<svg xmlns="http://www.w3.org/2000/svg" xmlns:xlink="http://www.w3.org/1999/xlink" width="16" height="16" class="yc-icon nv-composite-bar__menu-icon" fill="currentColor" stroke="none" aria-hidden="true"><svg fill="currentColor" xmlns="http://www.w3.org/2000/svg"><path d="M2.4 6.714c.882 0 1.6-.704 1.6-1.571S3.282 3.57 2.4 3.57c-.882 0-1.6.705-1.6 1.572 0 .867.717 1.571 1.6 1.571zm11.2 0c.882 0 1.6-.704 1.6-1.571s-.718-1.572-1.6-1.572c-.882 0-1.6.705-1.6 1.572 0 .867.718 1.571 1.6 1.571zm.8.786h-1.6c-.44 0-.838.174-1.127.457a3.592 3.592 0 011.877 2.686h1.65c.443 0 .8-.351.8-.786v-.786c0-.866-.717-1.571-1.6-1.571zM8 7.5c1.548 0 2.8-1.23 2.8-2.75S9.547 2 8 2C6.452 2 5.2 3.23 5.2 4.75S6.452 7.5 8 7.5zm1.92.786h-.207c-.52.245-1.098.393-1.713.393s-1.19-.148-1.712-.393H6.08c-1.59 0-2.88 1.267-2.88 2.828v.707c0 .651.537 1.179 1.2 1.179h7.2c.663 0 1.2-.528 1.2-1.179v-.707c0-1.561-1.29-2.828-2.88-2.828zm-5.593-.33A1.61 1.61 0 003.2 7.5H1.6C.717 7.5 0 8.205 0 9.071v.786c0 .435.357.786.8.786h1.647a3.602 3.602 0 011.88-2.686z"></path></svg></svg>