<svg xmlns="http://www.w3.org/2000/svg" width="16" height="16" fill="none" viewBox="0 0 16 16">
    <g fill="#000" fill-rule="evenodd" clip-path="url(#clip0_4_38934)" clip-rule="evenodd">
        <path d="M5.111 4.083a1.028 1.028 0 1 0 0 2.056 1.028 1.028 0 0 0 0-2.056ZM2.583 5.111a2.528 2.528 0 1 1 5.056 0 2.528 2.528 0 0 1-5.056 0Zm8.306-1.028a1.028 1.028 0 1 0 0 2.056 1.028 1.028 0 0 0 0-2.056ZM8.36 5.111a2.528 2.528 0 1 1 5.056 0 2.528 2.528 0 0 1-5.056 0Zm2.529 4.75a1.028 1.028 0 1 0 0 2.056 1.028 1.028 0 0 0 0-2.056ZM8.36 10.89a2.528 2.528 0 1 1 5.056 0 2.528 2.528 0 0 1-5.056 0ZM5.111 9.861a1.028 1.028 0 1 0 0 2.056 1.028 1.028 0 0 0 0-2.056ZM2.583 10.89a2.528 2.528 0 1 1 5.056 0 2.528 2.528 0 0 1-5.056 0Z"/>
        <path d="M2.889 1.639c-.69 0-1.25.56-1.25 1.25v2.555a.75.75 0 0 1-1.5 0V2.89A2.75 2.75 0 0 1 2.889.14h2.555a.75.75 0 1 1 0 1.5H2.89Zm6.917-.75a.75.75 0 0 1 .75-.75h2.555a2.75 2.75 0 0 1 2.75 2.75v2.555a.75.75 0 1 1-1.5 0V2.89c0-.69-.56-1.25-1.25-1.25h-2.555a.75.75 0 0 1-.75-.75ZM.889 9.806a.75.75 0 0 1 .75.75v2.555c0 .69.56 1.25 1.25 1.25h2.555a.75.75 0 0 1 0 1.5H2.89a2.75 2.75 0 0 1-2.75-2.75v-2.555a.75.75 0 0 1 .75-.75Zm14.222 0a.75.75 0 0 1 .75.75v2.555a2.75 2.75 0 0 1-2.75 2.75h-2.555a.75.75 0 1 1 0-1.5h2.555c.69 0 1.25-.56 1.25-1.25v-2.555a.75.75 0 0 1 .75-.75Z"/>
    </g>
    <defs>
        <clipPath id="clip0_4_38934">
            <path fill="#fff" d="M0 0h16v16H0z"/>
        </clipPath>
    </defs>
</svg>
