<svg xmlns="http://www.w3.org/2000/svg" width="16" height="16" fill="none" viewBox="0 0 16 16">
  <g transform="scale(0.8888889)">
    <path fill="currentColor" fill-rule="evenodd" d="M1.406 13.219c0-1.088.882-1.969 1.969-1.969h.433L5.18 4.958a1.97 1.97 0 0 1 1.93-1.583h3.781c.939 0 1.747.662 1.93 1.583l1.372 6.292h.433c1.087 0 1.969.881 1.969 1.969v1.125a1.97 1.97 0 0 1-1.969 1.969H3.375a1.97 1.97 0 0 1-1.969-1.97V13.22Zm1.969-.281a.28.28 0 0 0-.281.28v1.126c0 .155.126.281.281.281h11.25a.28.28 0 0 0 .281-.281v-1.125a.28.28 0 0 0-.281-.281zm9.096-1.688-1.305-5.961a.28.28 0 0 0-.276-.226H7.11a.28.28 0 0 0-.276.226L5.529 11.25z" clip-rule="evenodd"/>
    <path fill="currentColor" d="M9 .281c.466 0 .844.378.844.844v.563a.844.844 0 0 1-1.688 0v-.563C8.156.66 8.534.281 9 .281M3.424 1.722a.844.844 0 0 1 1.193 0l.398.397a.844.844 0 1 1-1.193 1.194l-.398-.398a.844.844 0 0 1 0-1.193m13.413 4.456a.844.844 0 0 1-.597 1.034l-.543.145a.844.844 0 0 1-.437-1.63l.543-.145a.844.844 0 0 1 1.034.596m-13.5.582a.844.844 0 0 1-1.033.597L1.76 7.21a.844.844 0 0 1 .436-1.63l.544.146c.45.12.717.583.596 1.033Zm11.226-5.038c.33.33.33.863 0 1.193l-.397.398a.844.844 0 0 1-1.194-1.194l.398-.397a.844.844 0 0 1 1.193 0"/>
  </g>
</svg>