<svg xmlns="http://www.w3.org/2000/svg" width="16" height="16" fill="currentColor" aria-hidden="true" class="g-icon">
    <svg xmlns="http://www.w3.org/2000/svg" fill="none" viewBox="0 0 18 18">
        <circle cx="9" cy="9" r="9" fill="#5282ff"/>
        <g clip-path="url(#Standard=YANDEX_CLOUD,_Enabled=Yes_svg__a)">
            <path fill="#fff" fill-rule="evenodd" d="M4.188 9a4.81 4.81 0 0 1 4.805-4.812c1.153.028 1.644.696 1.767 1.295.024.12.018.34-.023.623q-.017.12-.037.228l-1.539.27H9.16c-.733.125-1.344.377-1.81.815-.468.441-.724 1.011-.857 1.652l-.388 1.878-.008.037-.017.085c-.03.148-.08.39-.116.636-.041.284-.078.667-.022 1.01A4.8 4.8 0 0 1 4.187 9M9 15.125a6.125 6.125 0 0 0 .002-12.25h-.006a6.125 6.125 0 0 0 .001 12.25zm.006-1.312c-1.153-.029-1.644-.697-1.767-1.296-.025-.12-.018-.34.023-.623q.017-.12.037-.228l1.539-.27h.001c.733-.125 1.344-.377 1.81-.815.468-.441.724-1.011.857-1.652l.388-1.878.008-.037.017-.085c.03-.148.08-.39.116-.636.041-.284.079-.667.022-1.01a4.812 4.812 0 0 1-3.05 8.529m1.41-6.097-1.032.18h-.002c-.57.099-.913.272-1.133.479-.216.204-.376.499-.471.961l-.196.948 1.032-.18h.002c.57-.099.913-.272 1.133-.479.216-.204.376-.499.471-.961z" clip-rule="evenodd"/>
        </g>
        <defs>
            <clipPath id="Standard=YANDEX_CLOUD,_Enabled=Yes_svg__a">
                <path fill="#fff" d="M2 2h14v14H2z"/>
            </clipPath>
        </defs>
    </svg>
</svg>
