<svg xmlns="http://www.w3.org/2000/svg" width="16" height="16" fill="currentColor" aria-hidden="true" class="g-icon">
    <svg xmlns="http://www.w3.org/2000/svg" fill="none" viewBox="0 0 18 18">
        <path fill="#c0100f" d="m9 0 7.037 3.389 1.737 7.614-4.869 6.106h-7.81l-4.87-6.106 1.739-7.614z"/>
        <path fill="#fff" fill-rule="evenodd" d="M9.003 3a.406.406 0 0 0-.406.383l-.065 1.141a4.5 4.5 0 0 0-2.736 1.317l-.932-.662a.406.406 0 0 0-.506.634l.85.762a4.48 4.48 0 0 0-.676 2.961l-1.098.316a.406.406 0 0 0 .18.791l1.126-.19a4.5 4.5 0 0 0 1.894 2.375l-.437 1.056a.406.406 0 0 0 .73.352l.553-1c.475.171.987.264 1.52.264s1.044-.092 1.518-.262l.553 1a.406.406 0 0 0 .73-.353l-.436-1.056a4.5 4.5 0 0 0 1.895-2.373l1.126.191a.406.406 0 0 0 .18-.79l-1.098-.318Q13.5 9.273 13.5 9c0-.891-.259-1.722-.706-2.422l.852-.761a.406.406 0 0 0-.505-.635l-.934.661a4.5 4.5 0 0 0-2.734-1.319l-.065-1.14A.406.406 0 0 0 9.003 3m-.536 2.667a3.36 3.36 0 0 0-1.735.837l1.622 1.15zM6.064 7.341a3.36 3.36 0 0 0-.428 1.877l1.91-.55zm-.191 2.92a3.4 3.4 0 0 0 1.2 1.507l.76-1.838zm2.163 1.973a3.37 3.37 0 0 0 1.928.002L9 10.493zm2.893-.461a3.4 3.4 0 0 0 1.205-1.508l-1.966-.334zm1.443-2.551a3.4 3.4 0 0 0-.43-1.883l-1.486 1.33zm-1.097-2.719L9.649 7.655l-.112-1.988a3.36 3.36 0 0 1 1.738.836M9.44 8.65a.65.65 0 0 0 .252.192.65.65 0 0 0-.137.6.65.65 0 0 0-.554.267.65.65 0 0 0-.555-.267.65.65 0 0 0-.136-.6.65.65 0 0 0 .384-.48.65.65 0 0 0 .615 0 .65.65 0 0 0 .131.288" clip-rule="evenodd"/>
    </svg>
</svg>
