<svg xmlns="http://www.w3.org/2000/svg" width="16" height="16" fill="none" viewBox="0 0 16 16">
    <path fill="currentColor" fill-rule="evenodd" d="M8 1C11.866 1 15 4.13401 15 8C15 11.866 11.866 15 8 15C4.13401 15 1 11.866 1 8C1 4.13401 4.13401 1 8 1ZM5.21875 4.90918L7.99902 7.11914V5.64941C8.53744 5.65026 9.05649 5.81969 9.48535 6.14844C9.91521 6.4681 10.2347 6.91811 10.3848 7.4375C10.5347 7.95693 10.5248 8.50638 10.335 9.00586C10.1549 9.51537 9.80445 9.94562 9.35449 10.2354C8.90464 10.5348 8.37468 10.6745 7.83496 10.6445C7.29516 10.6145 6.78487 10.405 6.375 10.0654C5.96515 9.71575 5.67466 9.24601 5.55469 8.72656C5.47473 8.37693 5.47472 8.00685 5.55469 7.65723L4.29492 6.6582C3.98501 7.42742 3.91459 8.267 4.10449 9.07617C4.30446 9.91535 4.76496 10.6653 5.4248 11.2148C6.08458 11.7642 6.90498 12.0934 7.76465 12.1436C8.62452 12.1935 9.47538 11.9636 10.1953 11.4941C10.9151 11.0246 11.4649 10.3345 11.7549 9.52539C12.0447 8.71618 12.0749 7.83698 11.835 7.00781L11.8252 6.99805C11.5752 6.17879 11.0747 5.449 10.3848 4.93945C9.69596 4.43095 8.85737 4.15127 7.99902 4.15039V2.69922L5.21875 4.90918Z" clip-rule="evenodd"/>
</svg>
