<svg xmlns="http://www.w3.org/2000/svg" width="16" height="16" fill="none" viewBox="0 0 16 16">
    <path fill="currentColor" fill-rule="evenodd" d="M13.4482 3.43359C14.096 3.78238 14.4999 4.45867 14.5 5.19434V10.8057L14.4951 10.9424C14.4484 11.6243 14.0556 12.2393 13.4482 12.5664L8 15.5L2.55176 12.5664C1.94437 12.2393 1.55157 11.6243 1.50488 10.9424L1.5 10.8057V5.19434C1.50009 4.45867 1.90402 3.78238 2.55176 3.43359L8 0.5L13.4482 3.43359ZM4.01562 11.083L7.99805 13.2275L11.9795 11.084L11.498 9H4.49805L4.01562 11.083ZM8.00195 4.19922C6.95261 4.19922 6.10156 5.05027 6.10156 6.09961C6.10177 7.14877 6.95274 7.99902 8.00195 7.99902C9.05098 7.99881 9.90116 7.14864 9.90137 6.09961C9.90137 5.0504 9.05112 4.19943 8.00195 4.19922Z" clip-rule="evenodd"/>
</svg>
