<svg xmlns="http://www.w3.org/2000/svg" width="16" height="16" fill="none" viewBox="0 0 16 16">
    <path fill="currentColor" fill-rule="evenodd" d="M6.5 5V7.5H7.25V9H1.21484C1.07649 8.63049 1 8.23266 1 7.81836C1.00023 6.08558 2.31781 4.64387 4.05762 4.33789C4.02784 4.16437 4.01172 3.98616 4.01172 3.80469C4.01187 1.97953 5.5775 0.5 7.50879 0.5C8.94067 0.500001 10.172 1.31309 10.7129 2.47754C10.9674 2.42183 11.2324 2.3916 11.5049 2.3916C13.4361 2.3916 15.0018 3.87118 15.002 5.69629C15.002 7.52156 13.4363 9.00195 11.5049 9.00195C11.4807 9.00195 11.4567 9.00046 11.4326 9H8.75195V10H13.252V12.2832C13.7002 12.5426 14.002 13.0269 14.002 13.582C14.002 14.4105 13.3304 15.082 12.502 15.082C11.6735 15.082 11.002 14.4105 11.002 13.582C11.002 13.0269 11.3037 12.5426 11.752 12.2832V11.5H8.75195V12.2822C9.20458 12.5405 9.50977 13.0275 9.50977 13.5859C9.50977 14.4144 8.83819 15.0859 8.00977 15.0859C7.18134 15.0859 6.50977 14.4144 6.50977 13.5859C6.50977 13.0341 6.80811 12.5525 7.25195 12.292V11.5H4.25195V12.2871C4.70018 12.5465 5.00195 13.0308 5.00195 13.5859C5.00195 14.4144 4.33038 15.0859 3.50195 15.0859C2.67353 15.0859 2.00195 14.4144 2.00195 13.5859C2.00195 13.0308 2.30372 12.5465 2.75195 12.2871V10H7.25195V9H8.75V7.5H9.5V5H6.5Z" clip-rule="evenodd"/>
</svg>
