<svg xmlns="http://www.w3.org/2000/svg" width="16" height="16" fill="none" viewBox="0 0 16 16">
    <path fill="currentColor" fill-rule="evenodd" d="M15 2.5V8.49805C15 12.364 11.866 15.498 8 15.498C4.13406 15.498 1 12.364 1 8.49805V2.5L8 1L15 2.5ZM3.08984 9C3.28825 10.5212 4.25178 11.8155 5.58594 12.5H6.00488C5.98858 12.4527 5.96477 12.4048 5.94922 12.3564C5.6587 11.4536 5.46981 10.2847 5.41895 9H3.08984ZM6.83398 9C6.88425 10.1838 6.9822 11.2275 7.23047 11.999C7.29112 12.1875 7.35375 12.3546 7.41797 12.5H8.58789C8.65212 12.3546 8.71571 12.1875 8.77637 11.999C9.02458 11.2276 9.11674 10.1837 9.16699 9H6.83398ZM10.5791 9C10.5282 10.2847 10.3393 11.4536 10.0488 12.3564C10.0333 12.4048 10.0095 12.4527 9.99316 12.5H10.4121C11.7463 11.8155 12.7098 10.5212 12.9082 9H10.5791ZM5.58789 4C4.25373 4.68449 3.29021 5.97883 3.0918 7.5H5.4209C5.47176 6.2153 5.66066 5.04641 5.95117 4.14355C5.96672 4.09524 5.99053 4.04729 6.00684 4H5.58789ZM7.41211 4C7.34788 4.14541 7.28429 4.31249 7.22363 4.50098C6.97542 5.27245 6.88326 6.31631 6.83301 7.5H9.16602C9.11575 6.31619 9.0178 5.27247 8.76953 4.50098C8.70888 4.31252 8.64625 4.14539 8.58203 4H7.41211ZM9.99512 4C10.0114 4.04729 10.0352 4.09524 10.0508 4.14355C10.3413 5.04641 10.5302 6.2153 10.5811 7.5H12.9102C12.7117 5.97883 11.7482 4.68449 10.4141 4H9.99512Z" clip-rule="evenodd"/>
</svg>
