<svg xmlns="http://www.w3.org/2000/svg" width="16" height="16" fill="none" viewBox="0 0 16 16">
    <path fill="currentColor" d="M6.995 1.25a.75.75 0 0 1 .75.75v1.78a3.26 3.26 0 0 1 1.573.873l1.028 1.03.116.12c.267.296.468.63.607.982a4.1 4.1 0 0 0-1.431.467 1.8 1.8 0 0 0-.353-.509l-1.029-1.03a1.773 1.773 0 0 0-2.506 0L4.53 6.937a2.5 2.5 0 0 0-.453 2.918l2.39-2.388a.75.75 0 0 1 1.06 1.06l-2.392 2.392c.74.389 1.632.378 2.366-.026.004.53.11 1.043.297 1.517l-.052.023V14a.75.75 0 0 1-1.5 0v-1.299a4 4 0 0 1-2.777-1.169 4 4 0 0 1-1.17-2.787H1a.75.75 0 0 1 0-1.5h1.571c.172-.438.422-.853.754-1.22l.143-.15.177-.177L2.23 4.284a.75.75 0 1 1 1.06-1.06l1.414 1.414c.442-.436.977-.72 1.54-.854V2a.75.75 0 0 1 .75-.75M9.63 2.557a2 2 0 0 1 2.677 2.964l-.236.236a.67.67 0 0 1-.943 0L9.242 3.872l-.085-.105a.67.67 0 0 1 .085-.838l.237-.236z"></path>
	<path fill="currentColor" fill-rule="evenodd" d="M11.904 8.004A3 3 0 0 1 14.75 11l-.004.154a3 3 0 0 1-.413 1.37l1.447 1.447a.75.75 0 0 1-1.06 1.06l-1.45-1.449a3 3 0 0 1-1.52.418l-.154-.004a3 3 0 0 1-2.842-2.842L8.75 11a3 3 0 0 1 3-3zM11.75 9.5a1.5 1.5 0 1 0 0 3 1.5 1.5 0 0 0 0-3" clip-rule="evenodd"></path>
</svg>