<svg xmlns="http://www.w3.org/2000/svg" width="16" height="16" fill="none" viewBox="0 0 16 16">
    <path fill="currentColor" fill-rule="evenodd" d="M13 1C14.1045 1.00005 15 1.89547 15 3L14.999 13C14.999 14.1045 14.1035 15 12.999 15H3C1.89543 15 1 14.1046 1 13V3C1 1.89543 1.89543 1 3 1H13ZM8 2.375C7.17157 2.375 6.5 3.04657 6.5 3.875C6.5 4.42995 6.802 4.9134 7.25 5.17285V7.62109H4.5V6.25879C4.948 5.99934 5.25 5.51589 5.25 4.96094C5.25 4.13251 4.57843 3.46094 3.75 3.46094C2.92157 3.46094 2.25 4.13251 2.25 4.96094C2.25 5.51589 2.552 5.99934 3 6.25879V9.11914H5V10.8262C4.55177 11.0856 4.25 11.5699 4.25 12.125C4.25 12.9534 4.92157 13.625 5.75 13.625C6.57843 13.625 7.25 12.9534 7.25 12.125C7.25 11.5699 6.94823 11.0856 6.5 10.8262V9.11914H7.25V9.12109H8.75V9.11914H9.5V10.8262C9.05177 11.0856 8.75 11.5699 8.75 12.125C8.75 12.9534 9.42157 13.625 10.25 13.625C11.0784 13.625 11.75 12.9534 11.75 12.125C11.75 11.5699 11.4482 11.0856 11 10.8262V9.11914H13V8H13.0039V6.25879C13.4519 5.99934 13.7539 5.51589 13.7539 4.96094C13.7539 4.13251 13.0823 3.46094 12.2539 3.46094C11.4255 3.46094 10.7539 4.13251 10.7539 4.96094C10.7539 5.51589 11.0559 5.99934 11.5039 6.25879V7.62109H8.75V5.17285C9.198 4.9134 9.5 4.42995 9.5 3.875C9.5 3.04657 8.82843 2.375 8 2.375Z" clip-rule="evenodd"/>
</svg>
