<svg xmlns="http://www.w3.org/2000/svg" width="654" height="186" fill="none" viewBox="0 0 654 186">
    <g clip-path="url(#clip0)">
        <path fill="#fff" d="M0 0h654v186H0z"/>
        <g filter="url(#filter0_d)">
            <ellipse cx="133" cy="84" fill="#fff" rx="124" ry="69"/>
            <ellipse cx="129.457" cy="82.467" fill="#fff" rx="62" ry="53.667"/>
            <rect width="248" height="138" x="9" y="15" fill="#fff" rx="15"/>
            <path fill="#322A65" d="M86.199 28.14a7.04 7.04 0 0 1-1.232-.098 5.918 5.918 0 0 1-.966-.224 4.977 4.977 0 0 1-.7-.322 2.774 2.774 0 0 1-.448-.35v-1.26c.14.121.322.247.546.378.224.121.48.233.77.336.298.103.616.187.952.252a5.79 5.79 0 0 0 1.078.098c.728 0 1.306-.135 1.736-.406.429-.28.644-.7.644-1.26 0-.28-.052-.509-.154-.686a1.248 1.248 0 0 0-.448-.462 2.61 2.61 0 0 0-.742-.322 20.18 20.18 0 0 0-1.022-.294c-.392-.103-.784-.22-1.176-.35a4.332 4.332 0 0 1-1.064-.518 2.622 2.622 0 0 1-.756-.812c-.187-.327-.28-.742-.28-1.246 0-.868.303-1.545.91-2.03.606-.485 1.535-.728 2.786-.728.364 0 .686.023.966.07.289.037.541.089.756.154.224.056.415.121.574.196.168.075.317.145.448.21v1.26a3.93 3.93 0 0 0-1.274-.532 6.055 6.055 0 0 0-1.47-.168c-.448 0-.826.037-1.134.112a2.01 2.01 0 0 0-.728.294 1.16 1.16 0 0 0-.406.476 1.52 1.52 0 0 0-.126.63c0 .28.06.513.182.7.13.187.298.345.504.476.214.121.457.224.728.308.27.084.555.159.854.224.392.093.793.2 1.204.322.41.121.779.29 1.106.504.326.215.592.495.798.84.214.336.322.775.322 1.316 0 .532-.108.985-.322 1.358a2.628 2.628 0 0 1-.826.896 3.501 3.501 0 0 1-1.19.504 6.247 6.247 0 0 1-1.4.154Zm11.085-.756a3.879 3.879 0 0 1-.378.238 4.38 4.38 0 0 1-.546.252 4.601 4.601 0 0 1-.728.182c-.27.056-.574.084-.91.084-1.222 0-2.151-.331-2.786-.994-.635-.663-.952-1.591-.952-2.786 0-.588.084-1.115.252-1.582.177-.467.42-.859.728-1.176a3.028 3.028 0 0 1 1.092-.742c.42-.177.877-.266 1.372-.266a3.5 3.5 0 0 1 1.4.266c.41.177.747.439 1.008.784.27.345.453.775.546 1.288.103.504.103 1.092 0 1.764h-5.124c.047.784.28 1.372.7 1.764.42.383 1.046.574 1.876.574.56 0 1.04-.08 1.442-.238a5.048 5.048 0 0 0 1.008-.518v1.106ZM94.4 21.686c-.532 0-.99.163-1.372.49-.383.327-.625.821-.728 1.484h3.906c.037-.672-.117-1.167-.462-1.484-.345-.327-.793-.49-1.344-.49Zm8.124.28a3.779 3.779 0 0 0-1.428.406c-.42.215-.733.55-.938 1.008V28h-1.232v-7.266h1.078l.126 1.582h.028c.205-.43.499-.803.882-1.12.392-.327.887-.527 1.484-.602v1.372ZM107.843 28h-1.988l-2.492-7.266h1.33l2.212 6.608 2.198-6.608h1.232L107.843 28Zm4.264-8.33c-.252 0-.453-.075-.602-.224a.805.805 0 0 1-.224-.574c0-.224.074-.415.224-.574.149-.159.35-.238.602-.238.242 0 .434.08.574.238.14.159.21.35.21.574 0 .224-.07.415-.21.574-.14.15-.332.224-.574.224Zm.602 1.064V28h-1.232v-7.266h1.232Zm5.144 7.406c-.56 0-1.069-.084-1.526-.252a3.335 3.335 0 0 1-1.148-.742 3.277 3.277 0 0 1-.728-1.19c-.168-.467-.252-.999-.252-1.596 0-.588.084-1.115.252-1.582.177-.467.425-.859.742-1.176a3.068 3.068 0 0 1 1.162-.742 4.27 4.27 0 0 1 1.554-.266c.448 0 .859.051 1.232.154.373.093.681.233.924.42v1.106a3.27 3.27 0 0 0-1.008-.434 4.156 4.156 0 0 0-1.134-.154c-.849 0-1.475.22-1.876.658-.392.439-.588 1.11-.588 2.016 0 .905.191 1.577.574 2.016.383.439.989.658 1.82.658.439 0 .84-.051 1.204-.154a4.969 4.969 0 0 0 1.008-.42v1.106a4.29 4.29 0 0 1-2.212.574Zm9.496-.756a3.979 3.979 0 0 1-.924.49 4.632 4.632 0 0 1-.728.182 4.51 4.51 0 0 1-.91.084c-1.223 0-2.152-.331-2.786-.994-.635-.663-.952-1.591-.952-2.786 0-.588.084-1.115.252-1.582.177-.467.42-.859.728-1.176a3.028 3.028 0 0 1 1.092-.742 3.49 3.49 0 0 1 1.372-.266c.522 0 .989.089 1.4.266.41.177.746.439 1.008.784.27.345.452.775.546 1.288.102.504.102 1.092 0 1.764h-5.124c.046.784.28 1.372.7 1.764.42.383 1.045.574 1.876.574.56 0 1.04-.08 1.442-.238a5.07 5.07 0 0 0 1.008-.518v1.106Zm-2.884-5.698c-.532 0-.99.163-1.372.49-.383.327-.626.821-.728 1.484h3.906c.037-.672-.117-1.167-.462-1.484-.346-.327-.794-.49-1.344-.49Zm7.77-3.724h3.206c1.138 0 2.02.238 2.646.714.634.467.952 1.2.952 2.198 0 .57-.094 1.06-.28 1.47-.178.401-.43.733-.756.994a3.153 3.153 0 0 1-1.176.574 5.734 5.734 0 0 1-1.498.182h-1.778V28h-1.316V17.962Zm1.316 1.204v3.738h1.778c.354 0 .676-.037.966-.112.289-.075.536-.191.742-.35.214-.159.378-.364.49-.616.121-.261.182-.574.182-.938 0-.607-.196-1.045-.588-1.316-.392-.27-.952-.406-1.68-.406h-1.89Zm10.659 2.8a3.779 3.779 0 0 0-1.428.406c-.42.215-.733.55-.938 1.008V28h-1.232v-7.266h1.078l.126 1.582h.028c.205-.43.499-.803.882-1.12.392-.327.886-.527 1.484-.602v1.372Zm4.278 6.174c-.495 0-.957-.084-1.386-.252a3.229 3.229 0 0 1-1.12-.728 3.542 3.542 0 0 1-.728-1.19c-.177-.467-.266-1.003-.266-1.61 0-.597.089-1.13.266-1.596.177-.476.42-.873.728-1.19.317-.317.691-.56 1.12-.728a3.767 3.767 0 0 1 1.386-.252c.504 0 .971.084 1.4.252.429.168.798.41 1.106.728.317.317.565.714.742 1.19.187.467.28.999.28 1.596 0 .607-.093 1.143-.28 1.61a3.433 3.433 0 0 1-.742 1.19c-.308.317-.677.56-1.106.728a3.807 3.807 0 0 1-1.4.252Zm0-1.106a2.5 2.5 0 0 0 .896-.154 2.04 2.04 0 0 0 .728-.49c.205-.224.364-.504.476-.84.112-.336.168-.733.168-1.19 0-.457-.056-.854-.168-1.19a2.168 2.168 0 0 0-.476-.826 1.828 1.828 0 0 0-.728-.49 2.322 2.322 0 0 0-.896-.168c-.327 0-.625.056-.896.168a1.845 1.845 0 0 0-.714.49c-.196.215-.35.49-.462.826a3.774 3.774 0 0 0-.168 1.19c0 .457.056.854.168 1.19.112.336.266.616.462.84.205.215.443.378.714.49a2.5 2.5 0 0 0 .896.154Zm8.505.966h-1.988l-2.492-7.266h1.33l2.212 6.608 2.198-6.608h1.232L156.993 28Zm4.264-8.33c-.252 0-.453-.075-.602-.224a.809.809 0 0 1-.224-.574.81.81 0 0 1 .224-.574c.149-.159.35-.238.602-.238.243 0 .434.08.574.238.14.159.21.35.21.574 0 .224-.07.415-.21.574-.14.15-.331.224-.574.224Zm.602 1.064V28h-1.232v-7.266h1.232Zm7.216 5.838a2.91 2.91 0 0 1-.938 1.148c-.401.28-.91.42-1.526.42a3.48 3.48 0 0 1-1.246-.224 2.997 2.997 0 0 1-1.036-.7 3.532 3.532 0 0 1-.714-1.176c-.177-.476-.266-1.036-.266-1.68 0-.635.089-1.185.266-1.652.178-.476.416-.868.714-1.176a2.76 2.76 0 0 1 1.036-.7 3.4 3.4 0 0 1 1.26-.238c.551 0 1.027.117 1.428.35.402.224.724.546.966.966v-3.948h1.232V28h-1.078l-.098-1.428Zm-2.282.462c.318 0 .612-.051.882-.154.271-.112.504-.28.7-.504a2.29 2.29 0 0 0 .476-.84c.122-.336.182-.728.182-1.176 0-.448-.06-.84-.182-1.176a2.29 2.29 0 0 0-.476-.84 1.736 1.736 0 0 0-.7-.49 2.28 2.28 0 0 0-.882-.168c-.644 0-1.171.229-1.582.686-.401.448-.602 1.11-.602 1.988 0 .887.206 1.554.616 2.002.411.448.934.672 1.568.672Zm11.251.35a3.979 3.979 0 0 1-.924.49 4.604 4.604 0 0 1-.728.182 4.51 4.51 0 0 1-.91.084c-1.223 0-2.151-.331-2.786-.994-.635-.663-.952-1.591-.952-2.786 0-.588.084-1.115.252-1.582.177-.467.42-.859.728-1.176a3.028 3.028 0 0 1 1.092-.742 3.49 3.49 0 0 1 1.372-.266 3.5 3.5 0 0 1 1.4.266c.411.177.747.439 1.008.784.271.345.453.775.546 1.288.103.504.103 1.092 0 1.764h-5.124c.047.784.28 1.372.7 1.764.42.383 1.045.574 1.876.574.56 0 1.041-.08 1.442-.238a5.07 5.07 0 0 0 1.008-.518v1.106Zm-2.884-5.698c-.532 0-.989.163-1.372.49-.383.327-.625.821-.728 1.484h3.906c.037-.672-.117-1.167-.462-1.484-.345-.327-.793-.49-1.344-.49Zm8.124.28a3.779 3.779 0 0 0-1.428.406c-.42.215-.733.55-.938 1.008V28h-1.232v-7.266h1.078l.126 1.582h.028c.205-.43.499-.803.882-1.12.392-.327.886-.527 1.484-.602v1.372Z"/>
        </g>
        <g filter="url(#filter1_d)">
            <ellipse cx="133" cy="93.5" fill="#fff" rx="124" ry="78.5"/>
            <ellipse cx="129.457" cy="91.756" fill="#fff" rx="62" ry="61.056"/>
            <rect width="248" height="157" x="9" y="15" fill="#fff" rx="15"/>
            <path fill="#322A65" d="M86.199 28.14a7.04 7.04 0 0 1-1.232-.098 5.918 5.918 0 0 1-.966-.224 4.977 4.977 0 0 1-.7-.322 2.774 2.774 0 0 1-.448-.35v-1.26c.14.121.322.247.546.378.224.121.48.233.77.336.298.103.616.187.952.252a5.79 5.79 0 0 0 1.078.098c.728 0 1.306-.135 1.736-.406.429-.28.644-.7.644-1.26 0-.28-.052-.509-.154-.686a1.248 1.248 0 0 0-.448-.462 2.61 2.61 0 0 0-.742-.322 20.18 20.18 0 0 0-1.022-.294c-.392-.103-.784-.22-1.176-.35a4.332 4.332 0 0 1-1.064-.518 2.622 2.622 0 0 1-.756-.812c-.187-.327-.28-.742-.28-1.246 0-.868.303-1.545.91-2.03.606-.485 1.535-.728 2.786-.728.364 0 .686.023.966.07.289.037.541.089.756.154.224.056.415.121.574.196.168.075.317.145.448.21v1.26a3.93 3.93 0 0 0-1.274-.532 6.055 6.055 0 0 0-1.47-.168c-.448 0-.826.037-1.134.112a2.01 2.01 0 0 0-.728.294 1.16 1.16 0 0 0-.406.476 1.52 1.52 0 0 0-.126.63c0 .28.06.513.182.7.13.187.298.345.504.476.214.121.457.224.728.308.27.084.555.159.854.224.392.093.793.2 1.204.322.41.121.779.29 1.106.504.326.215.592.495.798.84.214.336.322.775.322 1.316 0 .532-.108.985-.322 1.358a2.628 2.628 0 0 1-.826.896 3.501 3.501 0 0 1-1.19.504 6.247 6.247 0 0 1-1.4.154Zm11.085-.756a3.879 3.879 0 0 1-.378.238 4.38 4.38 0 0 1-.546.252 4.601 4.601 0 0 1-.728.182c-.27.056-.574.084-.91.084-1.222 0-2.151-.331-2.786-.994-.635-.663-.952-1.591-.952-2.786 0-.588.084-1.115.252-1.582.177-.467.42-.859.728-1.176a3.028 3.028 0 0 1 1.092-.742c.42-.177.877-.266 1.372-.266a3.5 3.5 0 0 1 1.4.266c.41.177.747.439 1.008.784.27.345.453.775.546 1.288.103.504.103 1.092 0 1.764h-5.124c.047.784.28 1.372.7 1.764.42.383 1.046.574 1.876.574.56 0 1.04-.08 1.442-.238a5.048 5.048 0 0 0 1.008-.518v1.106ZM94.4 21.686c-.532 0-.99.163-1.372.49-.383.327-.625.821-.728 1.484h3.906c.037-.672-.117-1.167-.462-1.484-.345-.327-.793-.49-1.344-.49Zm8.124.28a3.779 3.779 0 0 0-1.428.406c-.42.215-.733.55-.938 1.008V28h-1.232v-7.266h1.078l.126 1.582h.028c.205-.43.499-.803.882-1.12.392-.327.887-.527 1.484-.602v1.372ZM107.843 28h-1.988l-2.492-7.266h1.33l2.212 6.608 2.198-6.608h1.232L107.843 28Zm4.264-8.33c-.252 0-.453-.075-.602-.224a.805.805 0 0 1-.224-.574c0-.224.074-.415.224-.574.149-.159.35-.238.602-.238.242 0 .434.08.574.238.14.159.21.35.21.574 0 .224-.07.415-.21.574-.14.15-.332.224-.574.224Zm.602 1.064V28h-1.232v-7.266h1.232Zm5.144 7.406c-.56 0-1.069-.084-1.526-.252a3.335 3.335 0 0 1-1.148-.742 3.277 3.277 0 0 1-.728-1.19c-.168-.467-.252-.999-.252-1.596 0-.588.084-1.115.252-1.582.177-.467.425-.859.742-1.176a3.068 3.068 0 0 1 1.162-.742 4.27 4.27 0 0 1 1.554-.266c.448 0 .859.051 1.232.154.373.093.681.233.924.42v1.106a3.27 3.27 0 0 0-1.008-.434 4.156 4.156 0 0 0-1.134-.154c-.849 0-1.475.22-1.876.658-.392.439-.588 1.11-.588 2.016 0 .905.191 1.577.574 2.016.383.439.989.658 1.82.658.439 0 .84-.051 1.204-.154a4.969 4.969 0 0 0 1.008-.42v1.106a4.29 4.29 0 0 1-2.212.574Zm9.496-.756a3.979 3.979 0 0 1-.924.49 4.632 4.632 0 0 1-.728.182 4.51 4.51 0 0 1-.91.084c-1.223 0-2.152-.331-2.786-.994-.635-.663-.952-1.591-.952-2.786 0-.588.084-1.115.252-1.582.177-.467.42-.859.728-1.176a3.028 3.028 0 0 1 1.092-.742 3.49 3.49 0 0 1 1.372-.266c.522 0 .989.089 1.4.266.41.177.746.439 1.008.784.27.345.452.775.546 1.288.102.504.102 1.092 0 1.764h-5.124c.046.784.28 1.372.7 1.764.42.383 1.045.574 1.876.574.56 0 1.04-.08 1.442-.238a5.07 5.07 0 0 0 1.008-.518v1.106Zm-2.884-5.698c-.532 0-.99.163-1.372.49-.383.327-.626.821-.728 1.484h3.906c.037-.672-.117-1.167-.462-1.484-.346-.327-.794-.49-1.344-.49Zm7.77-3.724h3.206c1.138 0 2.02.238 2.646.714.634.467.952 1.2.952 2.198 0 .57-.094 1.06-.28 1.47-.178.401-.43.733-.756.994a3.153 3.153 0 0 1-1.176.574 5.734 5.734 0 0 1-1.498.182h-1.778V28h-1.316V17.962Zm1.316 1.204v3.738h1.778c.354 0 .676-.037.966-.112.289-.075.536-.191.742-.35.214-.159.378-.364.49-.616.121-.261.182-.574.182-.938 0-.607-.196-1.045-.588-1.316-.392-.27-.952-.406-1.68-.406h-1.89Zm10.659 2.8a3.779 3.779 0 0 0-1.428.406c-.42.215-.733.55-.938 1.008V28h-1.232v-7.266h1.078l.126 1.582h.028c.205-.43.499-.803.882-1.12.392-.327.886-.527 1.484-.602v1.372Zm4.278 6.174c-.495 0-.957-.084-1.386-.252a3.229 3.229 0 0 1-1.12-.728 3.542 3.542 0 0 1-.728-1.19c-.177-.467-.266-1.003-.266-1.61 0-.597.089-1.13.266-1.596.177-.476.42-.873.728-1.19.317-.317.691-.56 1.12-.728a3.767 3.767 0 0 1 1.386-.252c.504 0 .971.084 1.4.252.429.168.798.41 1.106.728.317.317.565.714.742 1.19.187.467.28.999.28 1.596 0 .607-.093 1.143-.28 1.61a3.433 3.433 0 0 1-.742 1.19c-.308.317-.677.56-1.106.728a3.807 3.807 0 0 1-1.4.252Zm0-1.106a2.5 2.5 0 0 0 .896-.154 2.04 2.04 0 0 0 .728-.49c.205-.224.364-.504.476-.84.112-.336.168-.733.168-1.19 0-.457-.056-.854-.168-1.19a2.168 2.168 0 0 0-.476-.826 1.828 1.828 0 0 0-.728-.49 2.322 2.322 0 0 0-.896-.168c-.327 0-.625.056-.896.168a1.845 1.845 0 0 0-.714.49c-.196.215-.35.49-.462.826a3.774 3.774 0 0 0-.168 1.19c0 .457.056.854.168 1.19.112.336.266.616.462.84.205.215.443.378.714.49a2.5 2.5 0 0 0 .896.154Zm8.505.966h-1.988l-2.492-7.266h1.33l2.212 6.608 2.198-6.608h1.232L156.993 28Zm4.264-8.33c-.252 0-.453-.075-.602-.224a.809.809 0 0 1-.224-.574.81.81 0 0 1 .224-.574c.149-.159.35-.238.602-.238.243 0 .434.08.574.238.14.159.21.35.21.574 0 .224-.07.415-.21.574-.14.15-.331.224-.574.224Zm.602 1.064V28h-1.232v-7.266h1.232Zm7.216 5.838a2.91 2.91 0 0 1-.938 1.148c-.401.28-.91.42-1.526.42a3.48 3.48 0 0 1-1.246-.224 2.997 2.997 0 0 1-1.036-.7 3.532 3.532 0 0 1-.714-1.176c-.177-.476-.266-1.036-.266-1.68 0-.635.089-1.185.266-1.652.178-.476.416-.868.714-1.176a2.76 2.76 0 0 1 1.036-.7 3.4 3.4 0 0 1 1.26-.238c.551 0 1.027.117 1.428.35.402.224.724.546.966.966v-3.948h1.232V28h-1.078l-.098-1.428Zm-2.282.462c.318 0 .612-.051.882-.154.271-.112.504-.28.7-.504a2.29 2.29 0 0 0 .476-.84c.122-.336.182-.728.182-1.176 0-.448-.06-.84-.182-1.176a2.29 2.29 0 0 0-.476-.84 1.736 1.736 0 0 0-.7-.49 2.28 2.28 0 0 0-.882-.168c-.644 0-1.171.229-1.582.686-.401.448-.602 1.11-.602 1.988 0 .887.206 1.554.616 2.002.411.448.934.672 1.568.672Zm11.251.35a3.979 3.979 0 0 1-.924.49 4.604 4.604 0 0 1-.728.182 4.51 4.51 0 0 1-.91.084c-1.223 0-2.151-.331-2.786-.994-.635-.663-.952-1.591-.952-2.786 0-.588.084-1.115.252-1.582.177-.467.42-.859.728-1.176a3.028 3.028 0 0 1 1.092-.742 3.49 3.49 0 0 1 1.372-.266 3.5 3.5 0 0 1 1.4.266c.411.177.747.439 1.008.784.271.345.453.775.546 1.288.103.504.103 1.092 0 1.764h-5.124c.047.784.28 1.372.7 1.764.42.383 1.045.574 1.876.574.56 0 1.041-.08 1.442-.238a5.07 5.07 0 0 0 1.008-.518v1.106Zm-2.884-5.698c-.532 0-.989.163-1.372.49-.383.327-.625.821-.728 1.484h3.906c.037-.672-.117-1.167-.462-1.484-.345-.327-.793-.49-1.344-.49Zm8.124.28a3.779 3.779 0 0 0-1.428.406c-.42.215-.733.55-.938 1.008V28h-1.232v-7.266h1.078l.126 1.582h.028c.205-.43.499-.803.882-1.12.392-.327.886-.527 1.484-.602v1.372Z"/>
        </g>
        <path fill="#000" fill-opacity=".7" d="m503.974 80-5-2.887v5.774l5-2.887ZM454 80.5h45.475v-1H454v1Zm.026 25.5 5 2.887v-5.774l-5 2.887Zm49.974-.5h-45.475v1H504v-1Z"/>
        <ellipse cx="478.429" cy="79.711" fill="#D1D0D8" rx="10" ry="10.111"/>
        <path fill="#322A65" d="M481.748 81.88c0 .466-.089.886-.266 1.26a2.883 2.883 0 0 1-.742.966 3.371 3.371 0 0 1-1.134.602c-.439.14-.924.21-1.456.21-.653 0-1.218-.08-1.694-.238-.476-.159-.863-.364-1.162-.616v-1.4c.299.298.691.56 1.176.784.485.214 1.05.322 1.694.322.691 0 1.232-.164 1.624-.49.401-.327.602-.784.602-1.372 0-.56-.177-.994-.532-1.302-.355-.318-.91-.476-1.666-.476h-1.288v-1.19h1.344c.532 0 .961-.14 1.288-.42.327-.28.49-.686.49-1.218 0-.476-.154-.85-.462-1.12-.308-.28-.751-.42-1.33-.42-.597 0-1.111.112-1.54.336a6.2 6.2 0 0 0-1.148.784V75.51a4.03 4.03 0 0 1 1.162-.658c.448-.168.961-.252 1.54-.252.476 0 .905.065 1.288.196.383.121.705.298.966.532.271.233.476.513.616.84.14.317.21.672.21 1.064 0 .317-.047.602-.14.854a2.016 2.016 0 0 1-.392.658 2.298 2.298 0 0 1-.56.476c-.215.121-.443.21-.686.266.289.046.565.135.826.266.271.13.509.298.714.504.205.196.364.434.476.714.121.27.182.574.182.91Z"/>
        <ellipse cx="478.429" cy="105.711" fill="#D1D0D8" rx="10" ry="10.111"/>
        <path fill="#322A65" d="M480.53 108.398v2.38h-1.232v-2.38h-4.34v-.868l3.92-6.79h1.652v6.594h1.358v1.064h-1.358Zm-1.232-1.064v-5.222l-3.066 5.222h3.066Z"/>
        <path fill="#000" fill-opacity=".7" d="m56 93.99 5 2.887v-5.774l-5 2.887Zm49.974 0-5-2.887v5.774l5-2.887Zm-45.47.5h40.971v-1H60.504v1Zm185.531-1.99 5-2.887v5.774l-5-2.887ZM314 93h-63.465v-1H314v1Z"/>
        <ellipse cx="279.929" cy="92.711" fill="#D1D0D8" rx="10" ry="10.111"/>
        <path fill="#322A65" d="M281.288 97.778h-1.274v-8.456l-2.772 2.128v-1.414l2.982-2.296h1.064v10.038Z"/>
        <g filter="url(#filter2_d)">
            <path fill="#027BF3" fill-rule="evenodd" d="M40 110c8.837 0 16-7.163 16-16s-7.163-16-16-16-16 7.163-16 16 7.163 16 16 16Z" clip-rule="evenodd"/>
        </g>
        <path fill="#fff" d="M42.222 86.889c-2.666 0-4.889 2.222-4.889 4.889 0 .622.09 1.244.356 1.866l-4.8 4.8v2.667h2.667l4.8-4.8c.622.267 1.244.356 1.866.356 2.667 0 4.89-2.223 4.89-4.89 0-2.666-2.223-4.888-4.89-4.888Zm1.334 5.333c-.978 0-1.778-.8-1.778-1.778 0-.977.8-1.777 1.778-1.777.977 0 1.777.8 1.777 1.777 0 .978-.8 1.778-1.777 1.778Z"/>
        <path fill="#322A65" d="M29.688 116.962V127h-1.316v-10.038h1.316Zm5.009 0h1.96L40.255 127h-1.4l-1.036-2.87H33.38L32.359 127h-1.232l3.57-10.038Zm2.702 5.978-1.792-4.998-1.792 4.998h3.584Zm9.273 1.064 3.262-7.042h1.708V127h-1.33v-8.078l-3.08 6.538-.658.014h-.588l.014-.014-3.038-6.65V127h-1.246v-10.038h1.834l3.122 7.042Z"/>
        <rect width="140" height="90" x="106" y="48" fill="#DAEEF9" rx="10"/>
        <path fill="#322A65" d="M112.174 85.702h-1.064V90h-1.316V79.962h1.316v4.55h.98l3.584-4.55h1.484l-3.962 5.012L117.312 90h-1.638l-3.5-4.298Zm9.047 4.438c-.494 0-.956-.084-1.386-.252a3.238 3.238 0 0 1-1.12-.728 3.558 3.558 0 0 1-.728-1.19c-.177-.467-.266-1.003-.266-1.61 0-.597.089-1.13.266-1.596a3.38 3.38 0 0 1 .728-1.19c.318-.317.691-.56 1.12-.728.43-.168.892-.252 1.386-.252.504 0 .971.084 1.4.252.43.168.798.41 1.106.728.318.317.565.714.742 1.19.187.467.28.999.28 1.596 0 .607-.093 1.143-.28 1.61a3.418 3.418 0 0 1-.742 1.19c-.308.317-.676.56-1.106.728a3.807 3.807 0 0 1-1.4.252Zm0-1.106c.327 0 .626-.051.896-.154a2.04 2.04 0 0 0 .728-.49 2.29 2.29 0 0 0 .476-.84c.112-.336.168-.733.168-1.19 0-.457-.056-.854-.168-1.19a2.156 2.156 0 0 0-.476-.826 1.828 1.828 0 0 0-.728-.49 2.318 2.318 0 0 0-.896-.168c-.326 0-.625.056-.896.168a1.86 1.86 0 0 0-.714.49c-.196.215-.35.49-.462.826a3.774 3.774 0 0 0-.168 1.19c0 .457.056.854.168 1.19.112.336.266.616.462.84.206.215.444.378.714.49.271.103.57.154.896.154Zm9.776-2.254h-3.514V90h-1.232v-7.266h1.232v2.996h3.514v-2.996h1.232V90h-1.232v-3.22Zm6.388 3.36c-.56 0-1.068-.084-1.526-.252a3.345 3.345 0 0 1-1.148-.742 3.277 3.277 0 0 1-.728-1.19c-.168-.467-.252-.999-.252-1.596 0-.588.084-1.115.252-1.582.178-.467.425-.859.742-1.176a3.076 3.076 0 0 1 1.162-.742 4.278 4.278 0 0 1 1.554-.266c.448 0 .859.051 1.232.154.374.093.682.233.924.42v1.106a3.25 3.25 0 0 0-1.008-.434 4.156 4.156 0 0 0-1.134-.154c-.849 0-1.474.22-1.876.658-.392.439-.588 1.11-.588 2.016 0 .905.192 1.577.574 2.016.383.439.99.658 1.82.658.439 0 .84-.051 1.204-.154.374-.112.71-.252 1.008-.42v1.106a4.29 4.29 0 0 1-2.212.574Zm6.846 0c-.494 0-.956-.084-1.386-.252a3.238 3.238 0 0 1-1.12-.728 3.558 3.558 0 0 1-.728-1.19c-.177-.467-.266-1.003-.266-1.61 0-.597.089-1.13.266-1.596a3.38 3.38 0 0 1 .728-1.19c.318-.317.691-.56 1.12-.728.43-.168.892-.252 1.386-.252.504 0 .971.084 1.4.252.43.168.798.41 1.106.728.318.317.565.714.742 1.19.187.467.28.999.28 1.596 0 .607-.093 1.143-.28 1.61a3.418 3.418 0 0 1-.742 1.19c-.308.317-.676.56-1.106.728a3.807 3.807 0 0 1-1.4.252Zm0-1.106c.327 0 .626-.051.896-.154a2.04 2.04 0 0 0 .728-.49 2.29 2.29 0 0 0 .476-.84c.112-.336.168-.733.168-1.19 0-.457-.056-.854-.168-1.19a2.156 2.156 0 0 0-.476-.826 1.828 1.828 0 0 0-.728-.49 2.318 2.318 0 0 0-.896-.168c-.326 0-.625.056-.896.168a1.86 1.86 0 0 0-.714.49c-.196.215-.35.49-.462.826a3.774 3.774 0 0 0-.168 1.19c0 .457.056.854.168 1.19.112.336.266.616.462.84.206.215.444.378.714.49.271.103.57.154.896.154Zm5.385-1.288c.131-.476.215-1.12.252-1.932a69.85 69.85 0 0 0 .056-3.08h4.886V90h-1.246v-6.216h-2.478a42.616 42.616 0 0 1-.098 2.66c-.047.775-.154 1.428-.322 1.96-.159.532-.397.938-.714 1.218-.308.27-.723.406-1.246.406h-.112a.657.657 0 0 1-.126-.014v-1.218c.047.01.107.014.182.014.476 0 .798-.355.966-1.064Zm12.596-.168c0 .42-.075.784-.224 1.092a2 2 0 0 1-.63.756c-.271.196-.593.34-.966.434-.374.093-.78.14-1.218.14h-2.408v-7.266h1.232v2.534h1.26c.924 0 1.647.182 2.17.546.522.364.784.952.784 1.764Zm-4.214-1.26v2.632h1.176c.532 0 .961-.098 1.288-.294.336-.205.504-.541.504-1.008 0-.476-.15-.817-.448-1.022-.299-.205-.719-.308-1.26-.308h-1.26Zm12.429 3.598a8.4 8.4 0 0 1-.532 1.148 3.86 3.86 0 0 1-.63.854 2.262 2.262 0 0 1-.784.518c-.29.121-.621.182-.994.182-.187 0-.36-.014-.518-.042a1.55 1.55 0 0 1-.434-.112v-1.19c.102.075.233.13.392.168.158.047.331.07.518.07.345 0 .63-.084.854-.252.224-.159.438-.415.644-.77l-2.954-7.756h1.358l2.31 6.132 2.296-6.132h1.19l-2.716 7.182Zm3.935-7.182h5.824V90h-1.232v-6.216h-3.36V90h-1.232v-7.266Zm11.488 7.406c-.56 0-1.045-.13-1.456-.392a2.856 2.856 0 0 1-.966-1.078v3.808h-1.232v-9.744h1.078l.126 1.414c.243-.476.57-.854.98-1.134.411-.28.92-.42 1.526-.42.42 0 .822.08 1.204.238.392.15.733.383 1.022.7.299.308.532.7.7 1.176.178.467.266 1.017.266 1.652 0 .644-.088 1.204-.266 1.68a3.5 3.5 0 0 1-.714 1.176 2.988 2.988 0 0 1-1.036.7 3.43 3.43 0 0 1-1.232.224Zm-.182-1.106c.644 0 1.162-.22 1.554-.658.402-.448.602-1.12.602-2.016 0-.877-.2-1.54-.602-1.988-.392-.457-.91-.686-1.554-.686-.317 0-.616.056-.896.168-.27.112-.508.28-.714.504a2.45 2.45 0 0 0-.476.826 3.723 3.723 0 0 0-.168 1.176c0 .448.056.84.168 1.176.122.336.28.616.476.84.206.224.444.392.714.504.28.103.579.154.896.154Zm9.111-.42a4.34 4.34 0 0 1-.322.532 2.444 2.444 0 0 1-1.19.854c-.262.093-.57.14-.924.14-.654 0-1.181-.182-1.582-.546-.402-.373-.602-.905-.602-1.596 0-.793.275-1.377.826-1.75.56-.373 1.353-.56 2.38-.56h1.358v-.602c0-.504-.131-.863-.392-1.078-.262-.215-.71-.322-1.344-.322a3.63 3.63 0 0 0-1.274.224c-.402.14-.761.303-1.078.49v-1.106a5.42 5.42 0 0 1 1.05-.462 4.374 4.374 0 0 1 1.47-.238c.914 0 1.61.191 2.086.574.476.373.714.957.714 1.75v4.2c.009.103.014.21.014.322.009.112.018.22.028.322.009.093.018.173.028.238h-1.12a6.4 6.4 0 0 1-.084-.546 8.197 8.197 0 0 1-.028-.63l-.014-.21Zm-2.17.42c.382 0 .709-.08.98-.238.27-.159.49-.34.658-.546.168-.215.289-.42.364-.616.074-.205.112-.35.112-.434v-.532h-1.232c-.738 0-1.274.107-1.61.322-.327.205-.49.518-.49.938 0 .327.098.593.294.798.196.205.504.308.924.308Zm5.283-6.3h2.716c.877 0 1.54.154 1.988.462.448.299.672.77.672 1.414 0 .43-.112.775-.336 1.036-.215.252-.523.434-.924.546 1.036.168 1.554.742 1.554 1.722 0 .373-.075.695-.224.966a1.86 1.86 0 0 1-.616.644c-.262.168-.579.29-.952.364a5.926 5.926 0 0 1-1.19.112h-2.688v-7.266Zm1.232 1.05v1.974h1.372c.466 0 .84-.084 1.12-.252.289-.168.434-.41.434-.728 0-.383-.126-.644-.378-.784s-.612-.21-1.078-.21h-1.47Zm0 2.954v2.212h1.442c.261 0 .494-.014.7-.042a1.71 1.71 0 0 0 .546-.182.912.912 0 0 0 .364-.336.99.99 0 0 0 .126-.518c0-.42-.145-.714-.434-.882-.29-.168-.724-.252-1.302-.252h-1.442Zm6.779 1.008c.131-.476.215-1.12.252-1.932a69.85 69.85 0 0 0 .056-3.08h4.886V90h-1.246v-6.216h-2.478a42.616 42.616 0 0 1-.098 2.66c-.047.775-.154 1.428-.322 1.96-.159.532-.397.938-.714 1.218-.308.27-.723.406-1.246.406h-.112a.657.657 0 0 1-.126-.014v-1.218c.047.01.107.014.182.014.476 0 .798-.355.966-1.064Zm12.974 1.638a3.979 3.979 0 0 1-.924.49 4.604 4.604 0 0 1-.728.182 4.51 4.51 0 0 1-.91.084c-1.223 0-2.151-.331-2.786-.994-.635-.663-.952-1.591-.952-2.786 0-.588.084-1.115.252-1.582.177-.467.42-.859.728-1.176a3.028 3.028 0 0 1 1.092-.742 3.49 3.49 0 0 1 1.372-.266 3.5 3.5 0 0 1 1.4.266c.411.177.747.439 1.008.784.271.345.453.775.546 1.288.103.504.103 1.092 0 1.764h-5.124c.047.784.28 1.372.7 1.764.42.383 1.045.574 1.876.574.56 0 1.041-.08 1.442-.238a5.07 5.07 0 0 0 1.008-.518v1.106Zm-2.884-5.698c-.532 0-.989.163-1.372.49-.383.327-.625.821-.728 1.484h3.906c.037-.672-.117-1.167-.462-1.484-.345-.327-.793-.49-1.344-.49Zm9.381 3.094h-3.514V90h-1.232v-7.266h1.232v2.996h3.514v-2.996h1.232V90h-1.232v-3.22Zm4.484 1.54 3.878-5.586h1.246V90h-1.232v-5.572L229.886 90h-1.26v-7.266h1.232v5.586Zm7.135-3.234c0-.41.075-.76.224-1.05.15-.299.36-.541.63-.728.271-.196.593-.34.966-.434.374-.093.78-.14 1.218-.14h2.338V90h-1.232v-2.632h-1.33L237.945 90h-1.47l2.1-2.94c-.504-.15-.896-.378-1.176-.686-.27-.308-.406-.737-.406-1.288Zm4.144 1.232v-2.534h-1.106c-.522 0-.952.098-1.288.294-.336.196-.504.513-.504.952 0 .457.15.789.448.994.299.196.724.294 1.274.294h1.176Zm-112.86 12.64c0-.532.089-.985.266-1.358a2.46 2.46 0 0 1 .742-.938 3.24 3.24 0 0 1 1.162-.532 6.12 6.12 0 0 1 1.484-.168h3.122V106h-1.33v-4.018h-1.82L129.131 106h-1.61l3.038-4.256c-.737-.159-1.302-.462-1.694-.91-.392-.457-.588-1.083-.588-1.876Zm5.446 1.834v-3.626h-1.792a4.07 4.07 0 0 0-.924.098 1.951 1.951 0 0 0-.714.294 1.44 1.44 0 0 0-.462.56c-.112.224-.168.504-.168.84 0 .635.182 1.101.546 1.4.364.289.891.434 1.582.434h1.932Zm8.253 1.988h-3.514V106h-1.232v-7.266h1.232v2.996h3.514v-2.996h1.232V106h-1.232v-3.22Zm2.86 2.17c.261-.159.466-.406.616-.742.149-.336.266-.761.35-1.274.084-.513.14-1.12.168-1.82.037-.7.07-1.493.098-2.38h4.998v6.216h1.092v3.122h-1.078l-.154-2.072h-5.404l-.126 2.072h-1.106v-3.122h.546Zm4.998 0v-5.166h-2.66c-.047 1.372-.136 2.473-.266 3.304-.122.821-.336 1.442-.644 1.862h3.57Zm9.256.434a3.919 3.919 0 0 1-.378.238c-.15.084-.332.168-.546.252a4.632 4.632 0 0 1-.728.182 4.51 4.51 0 0 1-.91.084c-1.223 0-2.152-.331-2.786-.994-.635-.663-.952-1.591-.952-2.786 0-.588.084-1.115.252-1.582.177-.467.42-.859.728-1.176a3.028 3.028 0 0 1 1.092-.742 3.49 3.49 0 0 1 1.372-.266c.522 0 .989.089 1.4.266.41.177.746.439 1.008.784.27.345.452.775.546 1.288.102.504.102 1.092 0 1.764h-5.124c.046.784.28 1.372.7 1.764.42.383 1.045.574 1.876.574.56 0 1.04-.079 1.442-.238a5.07 5.07 0 0 0 1.008-.518v1.106Zm-2.884-5.698c-.532 0-.99.163-1.372.49-.383.327-.626.821-.728 1.484h3.906c.037-.672-.117-1.167-.462-1.484-.346-.327-.794-.49-1.344-.49Zm6.511 3.22h-.644V106h-1.232v-7.266h1.232v3.122h.7l2.548-3.122h1.4l-2.982 3.584 3.038 3.682h-1.498l-2.562-3.094Zm8.219 3.234c-.56 0-1.069-.084-1.526-.252a3.335 3.335 0 0 1-1.148-.742 3.277 3.277 0 0 1-.728-1.19c-.168-.467-.252-.999-.252-1.596 0-.588.084-1.115.252-1.582.177-.467.425-.859.742-1.176a3.068 3.068 0 0 1 1.162-.742 4.27 4.27 0 0 1 1.554-.266c.448 0 .859.051 1.232.154.373.093.681.233.924.42v1.106a3.27 3.27 0 0 0-1.008-.434 4.156 4.156 0 0 0-1.134-.154c-.849 0-1.475.22-1.876.658-.392.439-.588 1.111-.588 2.016s.191 1.577.574 2.016c.383.439.989.658 1.82.658.439 0 .84-.051 1.204-.154a4.969 4.969 0 0 0 1.008-.42v1.106a4.29 4.29 0 0 1-2.212.574Zm4.536-.056c-.271 0-.49-.084-.658-.252a.884.884 0 0 1-.252-.63c0-.261.084-.476.252-.644.168-.168.387-.252.658-.252.261 0 .476.084.644.252a.873.873 0 0 1 .252.644.884.884 0 0 1-.252.63.873.873 0 0 1-.644.252Zm6.499.056a5.264 5.264 0 0 1-1.89-.336 4.344 4.344 0 0 1-1.526-1.008 4.783 4.783 0 0 1-1.022-1.624c-.243-.644-.364-1.386-.364-2.226 0-.84.121-1.577.364-2.212.252-.644.593-1.176 1.022-1.596.429-.43.938-.751 1.526-.966a5.264 5.264 0 0 1 1.89-.336c.681 0 1.316.112 1.904.336a4.132 4.132 0 0 1 1.526.966c.429.43.765.966 1.008 1.61.243.635.364 1.372.364 2.212 0 .831-.121 1.568-.364 2.212a4.622 4.622 0 0 1-1.008 1.624 4.344 4.344 0 0 1-1.526 1.008 5.305 5.305 0 0 1-1.904.336Zm0-1.19c.485 0 .933-.07 1.344-.21a2.786 2.786 0 0 0 1.064-.686c.308-.317.546-.728.714-1.232.177-.504.266-1.115.266-1.834 0-.719-.089-1.33-.266-1.834-.168-.504-.406-.91-.714-1.218a2.587 2.587 0 0 0-1.064-.686 3.909 3.909 0 0 0-1.344-.224c-.485 0-.933.075-1.344.224-.411.14-.77.369-1.078.686-.299.308-.537.714-.714 1.218-.168.504-.252 1.115-.252 1.834 0 .719.084 1.33.252 1.834.177.504.415.915.714 1.232.308.308.667.537 1.078.686.411.14.859.21 1.344.21Zm12.943-2.59c0 .607-.093 1.143-.28 1.61a3.418 3.418 0 0 1-.742 1.19c-.308.317-.676.56-1.106.728a3.807 3.807 0 0 1-1.4.252c-.513 0-.984-.084-1.414-.252a2.922 2.922 0 0 1-1.106-.798c-.308-.355-.55-.803-.728-1.344-.168-.541-.252-1.181-.252-1.918 0-.607.019-1.185.056-1.736.038-.55.122-1.06.252-1.526.131-.476.318-.9.56-1.274a3.084 3.084 0 0 1 1.736-1.26c.252-.075.504-.13.756-.168a7.71 7.71 0 0 1 .784-.07l.77-.028c.374-.028.686-.075.938-.14.252-.065.476-.154.672-.266v1.12a2.16 2.16 0 0 1-.658.28 9.303 9.303 0 0 1-.826.126 57.56 57.56 0 0 1-1.47.112c-.438.019-.84.121-1.204.308a2.178 2.178 0 0 0-.994 1.176c-.186.513-.303 1.125-.35 1.834.486-1.12 1.4-1.68 2.744-1.68.458 0 .882.084 1.274.252.402.159.747.397 1.036.714.299.317.532.709.7 1.176.168.457.252.985.252 1.582Zm-3.528 2.674c.327 0 .626-.051.896-.154a2.04 2.04 0 0 0 .728-.49 2.29 2.29 0 0 0 .476-.84c.112-.336.168-.733.168-1.19 0-.457-.056-.854-.168-1.19a2.158 2.158 0 0 0-.476-.826 1.828 1.828 0 0 0-.728-.49 2.318 2.318 0 0 0-.896-.168c-.644 0-1.18.215-1.61.644-.42.429-.63 1.092-.63 1.988 0 .467.056.873.168 1.218.112.336.266.616.462.84.206.224.444.392.714.504.271.103.57.154.896.154Zm5.425-1.288c.131-.476.215-1.12.252-1.932a69.85 69.85 0 0 0 .056-3.08h4.886V106h-1.246v-6.216h-2.478a42.616 42.616 0 0 1-.098 2.66c-.047.775-.154 1.428-.322 1.96-.159.532-.397.938-.714 1.218-.308.271-.723.406-1.246.406h-.112a.682.682 0 0 1-.126-.014v-1.218a.988.988 0 0 0 .182.014c.476 0 .798-.355.966-1.064Zm11.448.868a4.24 4.24 0 0 1-.322.532 2.444 2.444 0 0 1-1.19.854c-.261.093-.569.14-.924.14-.653 0-1.181-.182-1.582-.546-.401-.373-.602-.905-.602-1.596 0-.793.275-1.377.826-1.75.56-.373 1.353-.56 2.38-.56h1.358v-.602c0-.504-.131-.863-.392-1.078-.261-.215-.709-.322-1.344-.322a3.63 3.63 0 0 0-1.274.224c-.401.14-.761.303-1.078.49v-1.106a5.42 5.42 0 0 1 1.05-.462 4.374 4.374 0 0 1 1.47-.238c.915 0 1.61.191 2.086.574.476.373.714.957.714 1.75v4.2c.009.103.014.21.014.322l.028.322c.009.093.019.173.028.238h-1.12a6.439 6.439 0 0 1-.084-.546 8.21 8.21 0 0 1-.028-.63l-.014-.21Zm-2.17.42c.383 0 .709-.079.98-.238.271-.159.49-.341.658-.546.168-.215.289-.42.364-.616.075-.205.112-.35.112-.434v-.532h-1.232c-.737 0-1.274.107-1.61.322-.327.205-.49.518-.49.938 0 .327.098.593.294.798.196.205.504.308.924.308Zm7.159-2.128h-.644V106h-1.232v-7.266h1.232v3.122h.7l2.548-3.122h1.4l-2.982 3.584 3.038 3.682h-1.498l-2.562-3.094Zm9.476 1.708a4.24 4.24 0 0 1-.322.532 2.444 2.444 0 0 1-1.19.854c-.261.093-.569.14-.924.14-.653 0-1.181-.182-1.582-.546-.401-.373-.602-.905-.602-1.596 0-.793.275-1.377.826-1.75.56-.373 1.353-.56 2.38-.56h1.358v-.602c0-.504-.131-.863-.392-1.078-.261-.215-.709-.322-1.344-.322a3.63 3.63 0 0 0-1.274.224c-.401.14-.761.303-1.078.49v-1.106a5.42 5.42 0 0 1 1.05-.462 4.374 4.374 0 0 1 1.47-.238c.915 0 1.61.191 2.086.574.476.373.714.957.714 1.75v4.2c.009.103.014.21.014.322l.028.322c.009.093.019.173.028.238h-1.12a6.439 6.439 0 0 1-.084-.546 8.21 8.21 0 0 1-.028-.63l-.014-.21Zm-2.17.42c.383 0 .709-.079.98-.238.271-.159.49-.341.658-.546.168-.215.289-.42.364-.616.075-.205.112-.35.112-.434v-.532h-1.232c-.737 0-1.274.107-1.61.322-.327.205-.49.518-.49.938 0 .327.098.593.294.798.196.205.504.308.924.308Z"/>
        <path fill="#fff" stroke="#67B0F8" d="M453.5 93.5c0 43.134-31.169 78-69.5 78s-69.5-34.866-69.5-78 31.169-78 69.5-78 69.5 34.866 69.5 78Z"/>
        <path fill="#fff" stroke="#67B0F8" d="M416.5 91.756c0 16.788-3.902 31.963-10.185 42.924-6.291 10.974-14.906 17.631-24.315 17.631s-18.024-6.657-24.315-17.631c-6.283-10.961-10.185-26.136-10.185-42.924 0-16.79 3.902-31.964 10.185-42.925C363.976 37.857 372.591 31.2 382 31.2s18.024 6.657 24.315 17.631c6.283 10.96 10.185 26.136 10.185 42.925Z"/>
        <rect width="139" height="156" x="314.5" y="15.5" fill="#fff" stroke="#67B0F8" rx="9.5"/>
        <path fill="#322A65" d="M357.784 79.962h6.118v1.204H359.1v2.828h1.988c1.111 0 1.965.229 2.562.686.598.457.896 1.195.896 2.212 0 .56-.088 1.036-.266 1.428a2.492 2.492 0 0 1-.756.966 2.98 2.98 0 0 1-1.148.546 6.114 6.114 0 0 1-1.484.168h-3.108V79.962Zm1.316 5.222v3.626h1.792c.336 0 .64-.028.91-.084.28-.065.518-.173.714-.322.206-.15.364-.34.476-.574.112-.233.168-.527.168-.882 0-.597-.182-1.04-.546-1.33-.364-.29-.886-.434-1.568-.434H359.1Zm10.866 4.956c-.56 0-1.046-.13-1.456-.392a2.84 2.84 0 0 1-.966-1.078v3.808h-1.232v-9.744h1.078l.126 1.414c.242-.476.569-.854.98-1.134.41-.28.919-.42 1.526-.42.42 0 .821.08 1.204.238.392.15.732.383 1.022.7.298.308.532.7.7 1.176.177.467.266 1.017.266 1.652 0 .644-.089 1.204-.266 1.68a3.532 3.532 0 0 1-.714 1.176 2.997 2.997 0 0 1-1.036.7c-.392.15-.803.224-1.232.224Zm-.182-1.106c.644 0 1.162-.22 1.554-.658.401-.448.602-1.12.602-2.016 0-.877-.201-1.54-.602-1.988-.392-.457-.91-.686-1.554-.686-.318 0-.616.056-.896.168a1.99 1.99 0 0 0-.714.504 2.43 2.43 0 0 0-.476.826 3.723 3.723 0 0 0-.168 1.176c0 .448.056.84.168 1.176.121.336.28.616.476.84.205.224.443.392.714.504.28.103.578.154.896.154Zm9.11-.42a4.219 4.219 0 0 1-.322.532 2.444 2.444 0 0 1-1.19.854c-.261.093-.569.14-.924.14-.653 0-1.181-.182-1.582-.546-.401-.373-.602-.905-.602-1.596 0-.793.275-1.377.826-1.75.56-.373 1.353-.56 2.38-.56h1.358v-.602c0-.504-.131-.863-.392-1.078-.261-.215-.709-.322-1.344-.322a3.63 3.63 0 0 0-1.274.224c-.401.14-.761.303-1.078.49v-1.106a5.42 5.42 0 0 1 1.05-.462 4.374 4.374 0 0 1 1.47-.238c.915 0 1.61.191 2.086.574.476.373.714.957.714 1.75v4.2c.009.103.014.21.014.322l.028.322c.009.093.019.173.028.238h-1.12a6.4 6.4 0 0 1-.084-.546 8.197 8.197 0 0 1-.028-.63l-.014-.21Zm-2.17.42c.383 0 .709-.08.98-.238.271-.159.49-.34.658-.546.168-.215.289-.42.364-.616.075-.205.112-.35.112-.434v-.532h-1.232c-.737 0-1.274.107-1.61.322-.327.205-.49.518-.49.938 0 .327.098.593.294.798.196.205.504.308.924.308Zm8.853.882a8.282 8.282 0 0 1-.532 1.148 3.86 3.86 0 0 1-.63.854 2.253 2.253 0 0 1-.784.518 2.552 2.552 0 0 1-.994.182c-.187 0-.359-.014-.518-.042a1.56 1.56 0 0 1-.434-.112v-1.19c.103.075.233.13.392.168.159.047.331.07.518.07.345 0 .63-.084.854-.252.224-.159.439-.415.644-.77l-2.954-7.756h1.358l2.31 6.132 2.296-6.132h1.19l-2.716 7.182Zm9.088-2.03c0 .41-.084.76-.252 1.05-.159.28-.378.513-.658.7a2.88 2.88 0 0 1-.98.378 5.094 5.094 0 0 1-1.148.126 5.392 5.392 0 0 1-1.414-.168c-.401-.112-.719-.247-.952-.406V88.46c.289.177.635.317 1.036.42.401.103.835.154 1.302.154.532 0 .975-.084 1.33-.252.364-.177.546-.476.546-.896 0-.41-.154-.7-.462-.868-.299-.168-.761-.252-1.386-.252h-.966v-.994h1.008c.513 0 .905-.093 1.176-.28.271-.187.406-.457.406-.812a.738.738 0 0 0-.14-.462.868.868 0 0 0-.35-.308 1.486 1.486 0 0 0-.532-.168 3.37 3.37 0 0 0-.63-.056c-.429 0-.831.051-1.204.154a3.826 3.826 0 0 0-.994.434v-1.106c.243-.159.555-.294.938-.406a4.96 4.96 0 0 1 1.358-.168c.887 0 1.554.168 2.002.504.457.336.686.821.686 1.456 0 .476-.131.85-.392 1.12-.252.27-.611.457-1.078.56.579.075 1.013.257 1.302.546.299.29.448.658.448 1.106Zm7.589 1.498a3.979 3.979 0 0 1-.924.49 4.604 4.604 0 0 1-.728.182 4.51 4.51 0 0 1-.91.084c-1.223 0-2.151-.331-2.786-.994-.635-.663-.952-1.591-.952-2.786 0-.588.084-1.115.252-1.582.177-.467.42-.859.728-1.176a3.028 3.028 0 0 1 1.092-.742 3.49 3.49 0 0 1 1.372-.266 3.5 3.5 0 0 1 1.4.266c.411.177.747.439 1.008.784.271.345.453.775.546 1.288.103.504.103 1.092 0 1.764h-5.124c.047.784.28 1.372.7 1.764.42.383 1.045.574 1.876.574.56 0 1.041-.08 1.442-.238a5.07 5.07 0 0 0 1.008-.518v1.106Zm-2.884-5.698c-.532 0-.989.163-1.372.49-.383.327-.625.821-.728 1.484h3.906c.037-.672-.117-1.167-.462-1.484-.345-.327-.793-.49-1.344-.49Zm8.289 6.454c-.56 0-1.045-.13-1.456-.392a2.856 2.856 0 0 1-.966-1.078v3.808h-1.232v-9.744h1.078l.126 1.414a2.98 2.98 0 0 1 .98-1.134c.411-.28.919-.42 1.526-.42.42 0 .821.08 1.204.238.392.15.733.383 1.022.7.299.308.532.7.7 1.176.177.467.266 1.017.266 1.652 0 .644-.089 1.204-.266 1.68a3.5 3.5 0 0 1-.714 1.176 2.997 2.997 0 0 1-1.036.7c-.392.15-.803.224-1.232.224Zm-.182-1.106c.644 0 1.162-.22 1.554-.658.401-.448.602-1.12.602-2.016 0-.877-.201-1.54-.602-1.988-.392-.457-.91-.686-1.554-.686-.317 0-.616.056-.896.168a1.99 1.99 0 0 0-.714.504 2.43 2.43 0 0 0-.476.826 3.723 3.723 0 0 0-.168 1.176c0 .448.056.84.168 1.176.121.336.28.616.476.84.205.224.443.392.714.504.28.103.579.154.896.154Zm-67.121 9.7h5.824V106h-1.232v-6.216h-3.36V106h-1.232v-7.266Zm10.816 7.406c-.495 0-.957-.084-1.386-.252a3.224 3.224 0 0 1-1.12-.728 3.542 3.542 0 0 1-.728-1.19c-.178-.467-.266-1.003-.266-1.61 0-.597.088-1.129.266-1.596.177-.476.42-.873.728-1.19a3.22 3.22 0 0 1 1.12-.728 3.767 3.767 0 0 1 1.386-.252c.504 0 .97.084 1.4.252.429.168.798.41 1.106.728.317.317.564.714.742 1.19.186.467.28.999.28 1.596 0 .607-.094 1.143-.28 1.61a3.448 3.448 0 0 1-.742 1.19c-.308.317-.677.56-1.106.728-.43.168-.896.252-1.4.252Zm0-1.106c.326 0 .625-.051.896-.154.28-.112.522-.275.728-.49.205-.224.364-.504.476-.84.112-.336.168-.733.168-1.19 0-.457-.056-.854-.168-1.19a2.17 2.17 0 0 0-.476-.826 1.835 1.835 0 0 0-.728-.49 2.325 2.325 0 0 0-.896-.168c-.327 0-.626.056-.896.168a1.845 1.845 0 0 0-.714.49c-.196.215-.35.49-.462.826a3.775 3.775 0 0 0-.168 1.19c0 .457.056.854.168 1.19.112.336.266.616.462.84.205.215.443.378.714.49.27.103.569.154.896.154Zm5.384-1.288c.131-.476.215-1.12.252-1.932.038-.812.056-1.839.056-3.08h4.886V106h-1.246v-6.216h-2.478a42.616 42.616 0 0 1-.098 2.66c-.046.775-.154 1.428-.322 1.96-.158.532-.396.938-.714 1.218-.308.271-.723.406-1.246.406h-.112a.682.682 0 0 1-.126-.014v-1.218a.996.996 0 0 0 .182.014c.476 0 .798-.355.966-1.064Zm12.596-.168c0 .42-.074.784-.224 1.092-.149.308-.359.56-.63.756a2.76 2.76 0 0 1-.966.434c-.373.093-.779.14-1.218.14h-2.408v-7.266h1.232v2.534h1.26c.924 0 1.648.182 2.17.546.523.364.784.952.784 1.764Zm-4.214-1.26v2.632h1.176c.532 0 .962-.098 1.288-.294.336-.205.504-.541.504-1.008 0-.476-.149-.817-.448-1.022-.298-.205-.718-.308-1.26-.308h-1.26Zm10.935 1.568c0 .411-.084.761-.252 1.05-.159.28-.378.513-.658.7a2.88 2.88 0 0 1-.98.378 5.094 5.094 0 0 1-1.148.126 5.392 5.392 0 0 1-1.414-.168c-.401-.112-.719-.247-.952-.406v-1.106c.289.177.635.317 1.036.42.401.103.835.154 1.302.154.532 0 .975-.084 1.33-.252.364-.177.546-.476.546-.896 0-.411-.154-.7-.462-.868-.299-.168-.761-.252-1.386-.252h-.966v-.994h1.008c.513 0 .905-.093 1.176-.28.271-.187.406-.457.406-.812a.736.736 0 0 0-.14-.462.866.866 0 0 0-.35-.308 1.486 1.486 0 0 0-.532-.168 3.37 3.37 0 0 0-.63-.056c-.429 0-.831.051-1.204.154a3.815 3.815 0 0 0-.994.434v-1.106c.243-.159.555-.294.938-.406a4.96 4.96 0 0 1 1.358-.168c.887 0 1.554.168 2.002.504.457.336.686.821.686 1.456 0 .476-.131.849-.392 1.12-.252.271-.611.457-1.078.56.579.075 1.013.257 1.302.546.299.289.448.658.448 1.106Zm4.789 2.254c-.495 0-.957-.084-1.386-.252a3.233 3.233 0 0 1-1.12-.728 3.542 3.542 0 0 1-.728-1.19c-.177-.467-.266-1.003-.266-1.61 0-.597.089-1.129.266-1.596.177-.476.42-.873.728-1.19.317-.317.691-.56 1.12-.728a3.767 3.767 0 0 1 1.386-.252c.504 0 .971.084 1.4.252.429.168.798.41 1.106.728.317.317.565.714.742 1.19.187.467.28.999.28 1.596 0 .607-.093 1.143-.28 1.61a3.433 3.433 0 0 1-.742 1.19c-.308.317-.677.56-1.106.728a3.807 3.807 0 0 1-1.4.252Zm0-1.106a2.5 2.5 0 0 0 .896-.154 2.04 2.04 0 0 0 .728-.49c.205-.224.364-.504.476-.84.112-.336.168-.733.168-1.19 0-.457-.056-.854-.168-1.19a2.17 2.17 0 0 0-.476-.826 1.828 1.828 0 0 0-.728-.49 2.322 2.322 0 0 0-.896-.168c-.327 0-.625.056-.896.168a1.845 1.845 0 0 0-.714.49c-.196.215-.35.49-.462.826a3.775 3.775 0 0 0-.168 1.19c0 .457.056.854.168 1.19.112.336.266.616.462.84.205.215.443.378.714.49a2.5 2.5 0 0 0 .896.154Zm5.03-6.3h2.716c.877 0 1.54.154 1.988.462.448.299.672.77.672 1.414 0 .429-.112.775-.336 1.036-.215.252-.523.434-.924.546 1.036.168 1.554.742 1.554 1.722 0 .373-.075.695-.224.966a1.86 1.86 0 0 1-.616.644 2.754 2.754 0 0 1-.952.364 5.904 5.904 0 0 1-1.19.112h-2.688v-7.266Zm1.232 1.05v1.974h1.372c.466 0 .84-.084 1.12-.252.289-.168.434-.411.434-.728 0-.383-.126-.644-.378-.784s-.612-.21-1.078-.21h-1.47Zm0 2.954v2.212h1.442c.261 0 .494-.014.7-.042a1.71 1.71 0 0 0 .546-.182.912.912 0 0 0 .364-.336.991.991 0 0 0 .126-.518c0-.42-.145-.714-.434-.882-.29-.168-.724-.252-1.302-.252h-1.442Zm10.543 1.876a4.24 4.24 0 0 1-.322.532 2.444 2.444 0 0 1-1.19.854c-.261.093-.569.14-.924.14-.653 0-1.181-.182-1.582-.546-.401-.373-.602-.905-.602-1.596 0-.793.275-1.377.826-1.75.56-.373 1.353-.56 2.38-.56h1.358v-.602c0-.504-.131-.863-.392-1.078-.261-.215-.709-.322-1.344-.322a3.63 3.63 0 0 0-1.274.224c-.401.14-.761.303-1.078.49v-1.106a5.42 5.42 0 0 1 1.05-.462 4.374 4.374 0 0 1 1.47-.238c.915 0 1.61.191 2.086.574.476.373.714.957.714 1.75v4.2c.009.103.014.21.014.322l.028.322c.009.093.019.173.028.238h-1.12a6.439 6.439 0 0 1-.084-.546 8.21 8.21 0 0 1-.028-.63l-.014-.21Zm-2.17.42c.383 0 .709-.079.98-.238.271-.159.49-.341.658-.546.168-.215.289-.42.364-.616.075-.205.112-.35.112-.434v-.532h-1.232c-.737 0-1.274.107-1.61.322-.327.205-.49.518-.49.938 0 .327.098.593.294.798.196.205.504.308.924.308Zm8.141-5.25V106h-1.232v-6.216h-2.282v-1.05h5.838v1.05h-2.324Zm9.323 5.6a3.919 3.919 0 0 1-.378.238c-.15.084-.332.168-.546.252a4.632 4.632 0 0 1-.728.182 4.51 4.51 0 0 1-.91.084c-1.223 0-2.152-.331-2.786-.994-.635-.663-.952-1.591-.952-2.786 0-.588.084-1.115.252-1.582.177-.467.42-.859.728-1.176a3.028 3.028 0 0 1 1.092-.742 3.49 3.49 0 0 1 1.372-.266c.522 0 .989.089 1.4.266.41.177.746.439 1.008.784.27.345.452.775.546 1.288.102.504.102 1.092 0 1.764h-5.124c.046.784.28 1.372.7 1.764.42.383 1.045.574 1.876.574.56 0 1.04-.079 1.442-.238a5.07 5.07 0 0 0 1.008-.518v1.106Zm-2.884-5.698c-.532 0-.99.163-1.372.49-.383.327-.626.821-.728 1.484h3.906c.037-.672-.117-1.167-.462-1.484-.346-.327-.794-.49-1.344-.49Zm5.195 4.06c.131-.476.215-1.12.252-1.932a69.85 69.85 0 0 0 .056-3.08h4.886V106h-1.246v-6.216h-2.478a42.616 42.616 0 0 1-.098 2.66c-.047.775-.154 1.428-.322 1.96-.159.532-.397.938-.714 1.218-.308.271-.723.406-1.246.406h-.112a.682.682 0 0 1-.126-.014v-1.218a.988.988 0 0 0 .182.014c.476 0 .798-.355.966-1.064Zm7.192-2.66c0-.411.075-.761.224-1.05.149-.299.359-.541.63-.728.271-.196.593-.34.966-.434.373-.093.779-.14 1.218-.14h2.338V106h-1.232v-2.632h-1.33L423.216 106h-1.47l2.1-2.94c-.504-.149-.896-.378-1.176-.686-.271-.308-.406-.737-.406-1.288Zm4.144 1.232v-2.534h-1.106c-.523 0-.952.098-1.288.294-.336.196-.504.513-.504.952 0 .457.149.789.448.994.299.196.723.294 1.274.294h1.176Z"/>
        <path fill="#000" fill-opacity=".7" d="m574 50 2.887-5h-5.774L574 50Zm-400.49 0v-5h-1v5h1Zm7.5-12.5H566v-1H181.01v1ZM573.5 45v.5h1V45h-1Zm-7.5-7.5a7.5 7.5 0 0 1 7.5 7.5h1a8.5 8.5 0 0 0-8.5-8.5v1ZM173.51 45a7.5 7.5 0 0 1 7.5-7.5v-1a8.5 8.5 0 0 0-8.5 8.5h1Zm-.51 95-2.887 5h5.774L173 140Zm400.49 0v5h1v-5h-1Zm-7.5 12.5H181v1h384.99v-1ZM173.5 145v-.5h-1v.5h1Zm7.5 7.5a7.5 7.5 0 0 1-7.5-7.5h-1a8.5 8.5 0 0 0 8.5 8.5v-1Zm392.49-7.5a7.5 7.5 0 0 1-7.5 7.5v1a8.5 8.5 0 0 0 8.5-8.5h-1Z"/>
        <ellipse cx="280.429" cy="38.711" fill="#D1D0D8" rx="10" ry="10.111"/>
        <path fill="#322A65" d="M283.664 43.778h-6.398v-1.33a80.547 80.547 0 0 0 2.198-1.82 16.01 16.01 0 0 0 1.54-1.47c.401-.448.7-.873.896-1.274.196-.41.294-.836.294-1.274 0-.55-.168-.994-.504-1.33-.327-.346-.807-.518-1.442-.518a2.94 2.94 0 0 0-1.484.392 5.02 5.02 0 0 0-1.232.994v-1.414a4.26 4.26 0 0 1 1.204-.826c.448-.206.966-.308 1.554-.308.523 0 .985.07 1.386.21.411.14.751.336 1.022.588.28.252.49.555.63.91.149.354.224.746.224 1.176 0 .541-.107 1.05-.322 1.526a5.595 5.595 0 0 1-.924 1.428c-.411.476-.919.97-1.526 1.484a59.977 59.977 0 0 1-2.058 1.652h4.942v1.204Z"/>
        <ellipse cx="280.429" cy="152.711" fill="#D1D0D8" rx="10" ry="10.111"/>
        <path fill="#322A65" d="M283.496 154.46c0 .522-.084.998-.252 1.428-.159.42-.392.784-.7 1.092a3.124 3.124 0 0 1-1.106.7 4.15 4.15 0 0 1-1.442.238c-.597 0-1.115-.061-1.554-.182a3.673 3.673 0 0 1-1.12-.532v-1.372c.317.261.681.485 1.092.672.42.177.947.266 1.582.266.691 0 1.223-.21 1.596-.63.383-.42.574-.971.574-1.652 0-.728-.187-1.26-.56-1.596-.373-.336-.845-.504-1.414-.504-.42 0-.756.07-1.008.21-.243.13-.429.27-.56.42h-1.022v-5.278h5.432v1.204h-4.284v2.87c.187-.14.415-.262.686-.364.271-.112.593-.168.966-.168.429 0 .831.07 1.204.21a2.681 2.681 0 0 1 1.652 1.596c.159.392.238.849.238 1.372Z"/>
        <rect width="140" height="90" x="504" y="48" fill="#FFF5CC" rx="10"/>
        <path fill="#322A65" d="M524.265 87.962V98h-1.316V87.962h1.316Zm7.375 8.61a2.918 2.918 0 0 1-.938 1.148c-.402.28-.91.42-1.526.42a3.47 3.47 0 0 1-1.246-.224 2.988 2.988 0 0 1-1.036-.7 3.5 3.5 0 0 1-.714-1.176c-.178-.476-.266-1.036-.266-1.68 0-.635.088-1.185.266-1.652.177-.476.415-.868.714-1.176.298-.317.644-.55 1.036-.7a3.393 3.393 0 0 1 1.26-.238c.55 0 1.026.117 1.428.35.401.224.723.546.966.966v-3.948h1.232V98h-1.078l-.098-1.428Zm-2.282.462c.317 0 .611-.051.882-.154.27-.112.504-.28.7-.504.205-.224.364-.504.476-.84.121-.336.182-.728.182-1.176 0-.448-.061-.84-.182-1.176a2.305 2.305 0 0 0-.476-.84 1.743 1.743 0 0 0-.7-.49 2.287 2.287 0 0 0-.882-.168c-.644 0-1.172.229-1.582.686-.402.448-.602 1.11-.602 1.988 0 .887.205 1.554.616 2.002.41.448.933.672 1.568.672Zm11.25.35a3.738 3.738 0 0 1-.378.238 4.34 4.34 0 0 1-.546.252 4.576 4.576 0 0 1-.728.182c-.27.056-.574.084-.91.084-1.222 0-2.151-.331-2.786-.994-.634-.663-.952-1.591-.952-2.786 0-.588.084-1.115.252-1.582.178-.467.42-.859.728-1.176a3.028 3.028 0 0 1 1.092-.742 3.5 3.5 0 0 1 1.372-.266c.523 0 .99.089 1.4.266.411.177.747.439 1.008.784.271.345.453.775.546 1.288.103.504.103 1.092 0 1.764h-5.124c.047.784.28 1.372.7 1.764.42.383 1.046.574 1.876.574.56 0 1.041-.08 1.442-.238a5.015 5.015 0 0 0 1.008-.518v1.106Zm-2.884-5.698c-.532 0-.989.163-1.372.49-.382.327-.625.821-.728 1.484h3.906c.038-.672-.116-1.167-.462-1.484-.345-.327-.793-.49-1.344-.49Zm7.97 0c-.56 0-1.017.13-1.372.392a2.871 2.871 0 0 0-.84.98V98h-1.232v-7.266h1.162l.042 1.302h.028a2.46 2.46 0 0 1 .924-1.036c.42-.27.952-.406 1.596-.406.719 0 1.288.191 1.708.574.43.373.644.952.644 1.736V98h-1.232v-4.97c0-.504-.126-.854-.378-1.05-.252-.196-.602-.294-1.05-.294Zm8.165 6.16a2.252 2.252 0 0 1-.574.21 3.171 3.171 0 0 1-.742.084c-.355 0-.658-.051-.91-.154a1.755 1.755 0 0 1-.602-.406 1.726 1.726 0 0 1-.35-.588 2.45 2.45 0 0 1-.098-.686v-4.522h-.868v-1.05h.868v-1.526h1.232v1.526h2.114v1.05h-2.114v4.368c0 .308.075.532.224.672.159.14.434.21.826.21.364 0 .695-.103.994-.308v1.12Zm2.269-8.176c-.252 0-.452-.075-.602-.224a.809.809 0 0 1-.224-.574.81.81 0 0 1 .224-.574c.15-.159.35-.238.602-.238.243 0 .434.08.574.238.14.159.21.35.21.574 0 .224-.07.415-.21.574-.14.15-.331.224-.574.224Zm.602 1.064V98h-1.232v-7.266h1.232Zm5.564 7.112c-.149.084-.34.154-.574.21-.233.056-.48.084-.742.084-.354 0-.658-.051-.91-.154a1.765 1.765 0 0 1-.602-.406 1.742 1.742 0 0 1-.35-.588 2.45 2.45 0 0 1-.098-.686v-4.522h-.868v-1.05h.868v-1.526h1.232v1.526h2.114v1.05h-2.114v4.368c0 .308.075.532.224.672.159.14.434.21.826.21.364 0 .696-.103.994-.308v1.12Zm5.278.07a8.282 8.282 0 0 1-.532 1.148 3.86 3.86 0 0 1-.63.854 2.257 2.257 0 0 1-.784.518 2.557 2.557 0 0 1-.994.182c-.187 0-.359-.014-.518-.042a1.57 1.57 0 0 1-.434-.112v-1.19c.103.075.233.13.392.168.159.047.331.07.518.07.345 0 .63-.084.854-.252.224-.159.439-.415.644-.77l-2.954-7.756h1.358l2.31 6.132 2.296-6.132h1.19l-2.716 7.182Zm7.112-9.954h3.206c1.138 0 2.02.238 2.646.714.634.467.952 1.2.952 2.198 0 .57-.094 1.06-.28 1.47-.178.401-.43.733-.756.994a3.153 3.153 0 0 1-1.176.574 5.734 5.734 0 0 1-1.498.182H576V98h-1.316V87.962ZM576 89.166v3.738h1.778c.354 0 .676-.037.966-.112.289-.075.536-.191.742-.35.214-.159.378-.364.49-.616.121-.261.182-.574.182-.938 0-.607-.196-1.045-.588-1.316-.392-.27-.952-.406-1.68-.406H576Zm10.659 2.8a3.779 3.779 0 0 0-1.428.406c-.42.215-.733.55-.938 1.008V98h-1.232v-7.266h1.078l.126 1.582h.028c.205-.43.499-.803.882-1.12.392-.327.886-.527 1.484-.602v1.372Zm4.278 6.174c-.494 0-.956-.084-1.386-.252a3.238 3.238 0 0 1-1.12-.728 3.558 3.558 0 0 1-.728-1.19c-.177-.467-.266-1.003-.266-1.61 0-.597.089-1.13.266-1.596a3.38 3.38 0 0 1 .728-1.19c.318-.317.691-.56 1.12-.728.43-.168.892-.252 1.386-.252.504 0 .971.084 1.4.252.43.168.798.41 1.106.728.318.317.565.714.742 1.19.187.467.28.999.28 1.596 0 .607-.093 1.143-.28 1.61a3.418 3.418 0 0 1-.742 1.19c-.308.317-.676.56-1.106.728a3.807 3.807 0 0 1-1.4.252Zm0-1.106c.327 0 .626-.051.896-.154a2.04 2.04 0 0 0 .728-.49 2.29 2.29 0 0 0 .476-.84c.112-.336.168-.733.168-1.19 0-.457-.056-.854-.168-1.19a2.156 2.156 0 0 0-.476-.826 1.828 1.828 0 0 0-.728-.49 2.318 2.318 0 0 0-.896-.168c-.326 0-.625.056-.896.168a1.86 1.86 0 0 0-.714.49c-.196.215-.35.49-.462.826a3.774 3.774 0 0 0-.168 1.19c0 .457.056.854.168 1.19.112.336.266.616.462.84.206.215.444.378.714.49.271.103.57.154.896.154Zm8.505.966h-1.988l-2.492-7.266h1.33l2.212 6.608 2.198-6.608h1.232L599.442 98Zm4.264-8.33c-.252 0-.452-.075-.602-.224a.809.809 0 0 1-.224-.574.81.81 0 0 1 .224-.574c.15-.159.35-.238.602-.238.243 0 .434.08.574.238.14.159.21.35.21.574 0 .224-.07.415-.21.574-.14.15-.331.224-.574.224Zm.602 1.064V98h-1.232v-7.266h1.232Zm7.217 5.838a2.918 2.918 0 0 1-.938 1.148c-.402.28-.91.42-1.526.42a3.47 3.47 0 0 1-1.246-.224 2.988 2.988 0 0 1-1.036-.7 3.5 3.5 0 0 1-.714-1.176c-.178-.476-.266-1.036-.266-1.68 0-.635.088-1.185.266-1.652.177-.476.415-.868.714-1.176.298-.317.644-.55 1.036-.7a3.393 3.393 0 0 1 1.26-.238c.55 0 1.026.117 1.428.35.401.224.723.546.966.966v-3.948h1.232V98h-1.078l-.098-1.428Zm-2.282.462c.317 0 .611-.051.882-.154.27-.112.504-.28.7-.504.205-.224.364-.504.476-.84.121-.336.182-.728.182-1.176 0-.448-.061-.84-.182-1.176a2.305 2.305 0 0 0-.476-.84 1.743 1.743 0 0 0-.7-.49 2.287 2.287 0 0 0-.882-.168c-.644 0-1.172.229-1.582.686-.402.448-.602 1.11-.602 1.988 0 .887.205 1.554.616 2.002.41.448.933.672 1.568.672Zm11.25.35a3.979 3.979 0 0 1-.924.49 4.604 4.604 0 0 1-.728.182 4.51 4.51 0 0 1-.91.084c-1.223 0-2.151-.331-2.786-.994-.635-.663-.952-1.591-.952-2.786 0-.588.084-1.115.252-1.582.177-.467.42-.859.728-1.176a3.028 3.028 0 0 1 1.092-.742 3.49 3.49 0 0 1 1.372-.266 3.5 3.5 0 0 1 1.4.266c.411.177.747.439 1.008.784.271.345.453.775.546 1.288.103.504.103 1.092 0 1.764h-5.124c.047.784.28 1.372.7 1.764.42.383 1.045.574 1.876.574.56 0 1.041-.08 1.442-.238a5.07 5.07 0 0 0 1.008-.518v1.106Zm-2.884-5.698c-.532 0-.989.163-1.372.49-.383.327-.625.821-.728 1.484h3.906c.037-.672-.117-1.167-.462-1.484-.345-.327-.793-.49-1.344-.49Zm8.124.28a3.779 3.779 0 0 0-1.428.406c-.42.215-.733.55-.938 1.008V98h-1.232v-7.266h1.078l.126 1.582h.028c.205-.43.499-.803.882-1.12.392-.327.887-.527 1.484-.602v1.372Z"/>
    </g>
    <defs>
        <filter id="filter0_d" width="278" height="168" x="-6" y="0" color-interpolation-filters="sRGB" filterUnits="userSpaceOnUse">
            <feFlood flood-opacity="0" result="BackgroundImageFix"/>
            <feColorMatrix in="SourceAlpha" values="0 0 0 0 0 0 0 0 0 0 0 0 0 0 0 0 0 0 127 0"/>
            <feOffset/>
            <feGaussianBlur stdDeviation="7.5"/>
            <feColorMatrix values="0 0 0 0 0.592157 0 0 0 0 0.74902 0 0 0 0 0.905882 0 0 0 0.4 0"/>
            <feBlend in2="BackgroundImageFix" result="effect1_dropShadow"/>
            <feBlend in="SourceGraphic" in2="effect1_dropShadow" result="shape"/>
        </filter>
        <filter id="filter1_d" width="278" height="187" x="-6" y="0" color-interpolation-filters="sRGB" filterUnits="userSpaceOnUse">
            <feFlood flood-opacity="0" result="BackgroundImageFix"/>
            <feColorMatrix in="SourceAlpha" values="0 0 0 0 0 0 0 0 0 0 0 0 0 0 0 0 0 0 127 0"/>
            <feOffset/>
            <feGaussianBlur stdDeviation="7.5"/>
            <feColorMatrix values="0 0 0 0 0.592157 0 0 0 0 0.74902 0 0 0 0 0.905882 0 0 0 0.4 0"/>
            <feBlend in2="BackgroundImageFix" result="effect1_dropShadow"/>
            <feBlend in="SourceGraphic" in2="effect1_dropShadow" result="shape"/>
        </filter>
        <filter id="filter2_d" width="44" height="44" x="18" y="74" color-interpolation-filters="sRGB" filterUnits="userSpaceOnUse">
            <feFlood flood-opacity="0" result="BackgroundImageFix"/>
            <feColorMatrix in="SourceAlpha" values="0 0 0 0 0 0 0 0 0 0 0 0 0 0 0 0 0 0 127 0"/>
            <feOffset dy="2"/>
            <feGaussianBlur stdDeviation="3"/>
            <feColorMatrix values="0 0 0 0 0 0 0 0 0 0 0 0 0 0 0 0 0 0 0.0990433 0"/>
            <feBlend in2="BackgroundImageFix" result="effect1_dropShadow"/>
            <feBlend in="SourceGraphic" in2="effect1_dropShadow" result="shape"/>
        </filter>
        <clipPath id="clip0">
            <path fill="#fff" d="M0 0h654v186H0z"/>
        </clipPath>
    </defs>
</svg>
