<svg xmlns="http://www.w3.org/2000/svg" xml:space="preserve" width="32" height="32" viewBox="0 0 32 32">
    <circle cx="16" cy="16" r="16" fill="#80BC00"/>
    <path fill="#FFF" d="M16.3 2h-.7C7.9 2.2 1.9 8.6 2.1 16.3s6.6 13.8 14.3 13.6S30.2 23.3 30 15.6C29.8 8.2 23.8 2.2 16.3 2z"/>
    <path fill="#80BC00" d="M24.1 8.7c-2.6-3-6.7-4.2-10.6-3.3C9.2 6.5 6 10 5.3 14.5c-.6 4 1.1 7.8 4.3 10.3 1 .7 2.2.4 3-.4l2.6-3.4c1.9-2.5 4.1-4.9 6.4-7l2.3-2.1c.8-1 .9-2.3.2-3.2z"/>
    <path fill="#FFF" d="M19.5 11.8c-1.8-2.3-5.4-2.8-7.7-.8S9 16.4 11 18.8c.3.4.8.8 1.2 1.1.4.3 1.1.2 1.4-.2l1.3-1.8c1-1.3 2-2.4 3.2-3.5l1.1-1c.7-.5.7-1.2.3-1.6z"/>
</svg>
