<svg xmlns="http://www.w3.org/2000/svg" width="32" height="21" fill="none"><path fill="#C74634" d="M10.141 20.338a10.081 10.081 0 0 1-3.87-.714 10.01 10.01 0 0 1-3.292-2.14 9.908 9.908 0 0 1-2.204-3.233 9.837 9.837 0 0 1 0-7.65 9.909 9.909 0 0 1 2.204-3.234A10.01 10.01 0 0 1 6.27 1.228a10.08 10.08 0 0 1 3.87-.714H21.86a10.08 10.08 0 0 1 3.87.714 10.01 10.01 0 0 1 3.292 2.14A9.91 9.91 0 0 1 31.225 6.6a9.837 9.837 0 0 1 0 7.651 9.909 9.909 0 0 1-2.204 3.233 10.01 10.01 0 0 1-3.292 2.14 10.08 10.08 0 0 1-3.87.714H10.14Zm11.415-3.505a6.494 6.494 0 0 0 4.52-1.904 6.38 6.38 0 0 0 1.867-4.504 6.38 6.38 0 0 0-1.866-4.503 6.494 6.494 0 0 0-4.52-1.905H10.443a6.495 6.495 0 0 0-2.477.483 6.45 6.45 0 0 0-2.1 1.388A6.385 6.385 0 0 0 4.466 7.97a6.34 6.34 0 0 0-.487 2.455c0 3.505 2.927 6.409 6.466 6.409h11.112"/></svg>