<svg width="16" height="16" viewBox="0 0 16 16" fill="none" xmlns="http://www.w3.org/2000/svg">
<path d="M4.51562 5.76172C4.52196 8.69869 6.72984 11.1153 9.5752 11.4561V12.8574C9.57493 13.9425 8.03192 14.8143 5.96191 14.9717C5.95806 14.972 5.95405 14.9723 5.9502 14.9727C5.73504 14.9887 5.51443 15 5.28906 15L5.28711 14.999L5.28613 15C5.06057 15 4.83936 14.9887 4.62402 14.9727C4.62026 14.9723 4.61607 14.972 4.6123 14.9717C2.54272 14.8141 1.00026 13.9424 1 12.8574V5.14258C1.00026 4.07562 2.492 3.21527 4.50977 3.03711L4.51562 5.76172Z" fill="currentColor"/>
<path fill-rule="evenodd" clip-rule="evenodd" d="M10.625 1C13.041 1 15 2.95902 15 5.375V14H11V11.499H13.001V9.99902H10.2656C7.92221 9.99888 6.02084 8.10219 6.01562 5.75879L6.00586 1H10.625ZM11.6504 6.5C11.0153 6.5 10.5 7.01526 10.5 7.65039C10.5002 8.28534 11.0154 8.7998 11.6504 8.7998C12.2852 8.79959 12.7996 8.28521 12.7998 7.65039C12.7998 7.01539 12.2853 6.50021 11.6504 6.5Z" fill="currentColor"/>
</svg>
