<svg width="16" height="16" viewBox="0 0 16 16" fill="none" xmlns="http://www.w3.org/2000/svg">
<g clip-path="url(#clip0_2307_5317)">
<path fill-rule="evenodd" clip-rule="evenodd" d="M12.4639 1C14.1428 1 15.498 1.72059 15.498 2.60059V5.9043C15.4977 6.71206 14.3553 7.38333 12.8691 7.48828L11.0371 10.0107V13.3984C11.0371 14.2784 9.68184 14.999 8.00293 14.999C6.32402 14.999 4.96875 14.2784 4.96875 13.3984V10.167L3.01562 7.47949C1.58511 7.34917 0.500335 6.69141 0.5 5.9043V2.60059C0.5 1.72059 1.85527 1 3.53418 1C5.21309 1 6.56836 1.72059 6.56836 2.60059V3H9.42969V2.60059C9.42969 1.72059 10.785 1 12.4639 1ZM8 9.25C7.45639 9.25003 6.99512 9.34 6.68555 9.48926C6.36182 9.64535 6.32031 9.79813 6.32031 9.87109C6.32047 9.94421 6.36248 10.0962 6.68555 10.252C6.99512 10.4012 7.45639 10.4912 8 10.4912C8.54375 10.4912 9.00579 10.4012 9.31543 10.252C9.63824 10.0962 9.68051 9.94419 9.68066 9.87109C9.68066 9.79815 9.6389 9.6453 9.31543 9.48926C9.00579 9.33997 8.54375 9.25 8 9.25ZM6.56836 5V5.9043C6.56813 6.44062 6.0635 6.91518 5.29004 7.20605L6.11816 8.3457C6.63544 8.12872 7.28985 7.99805 8.00293 7.99805C8.67602 7.99805 9.29625 8.11605 9.79883 8.31152L10.625 7.17383C9.89872 6.88064 9.42991 6.42118 9.42969 5.9043V5H6.56836ZM3.5332 2.25C2.98894 2.25001 2.52673 2.33998 2.2168 2.48926C1.89302 2.6453 1.85156 2.79815 1.85156 2.87109C1.85172 2.94419 1.89367 3.09621 2.2168 3.25195C2.52673 3.40123 2.98894 3.4912 3.5332 3.49121C4.07752 3.49121 4.53965 3.40124 4.84961 3.25195C5.1729 3.09618 5.21469 2.94421 5.21484 2.87109C5.21484 2.79813 5.17356 2.64533 4.84961 2.48926C4.53965 2.33997 4.07752 2.25 3.5332 2.25ZM12.4688 2.25C11.9251 2.25003 11.4639 2.34 11.1543 2.48926C10.8306 2.64535 10.7891 2.79813 10.7891 2.87109C10.7892 2.94421 10.8312 3.09616 11.1543 3.25195C11.4639 3.40122 11.9251 3.49118 12.4688 3.49121C13.0125 3.49121 13.4745 3.40124 13.7842 3.25195C14.107 3.09621 14.1493 2.94419 14.1494 2.87109C14.1494 2.79815 14.1076 2.6453 13.7842 2.48926C13.4745 2.33997 13.0125 2.25 12.4688 2.25Z" fill="currentColor"/>
</g>
<defs>
<clipPath id="clip0_2307_5317">
<rect width="16" height="16" fill="currentColor"/>
</clipPath>
</defs>
</svg>
