<svg width="505" height="150" viewBox="0 0 505 150" fill="none" xmlns="http://www.w3.org/2000/svg">
<rect width="505" height="150" rx="10" fill="white"/>
<path d="M455 115C477.091 115 495 97.0914 495 75C495 52.9086 477.091 35 455 35C432.909 35 415 52.9086 415 75C415 97.0914 432.909 115 455 115Z" fill="#D1D0D8"/>
<path d="M436.345 56.396H438.025L441.109 65H439.909L439.021 62.54H435.217L434.341 65H433.285L436.345 56.396ZM438.661 61.52L437.125 57.236L435.589 61.52H438.661ZM443.274 65H442.218V58.772H443.142L443.25 59.888H443.274C443.442 59.536 443.694 59.244 444.03 59.012C444.366 58.772 444.806 58.652 445.35 58.652C445.83 58.652 446.222 58.768 446.526 59C446.838 59.224 447.046 59.564 447.15 60.02C447.326 59.596 447.594 59.264 447.954 59.024C448.322 58.776 448.766 58.652 449.286 58.652C449.862 58.652 450.318 58.816 450.654 59.144C450.99 59.464 451.158 59.96 451.158 60.632V65H450.09V60.764C450.09 60.356 449.99 60.06 449.79 59.876C449.59 59.684 449.318 59.588 448.974 59.588C448.742 59.588 448.538 59.624 448.362 59.696C448.186 59.76 448.03 59.852 447.894 59.972C447.758 60.092 447.634 60.232 447.522 60.392C447.41 60.552 447.306 60.72 447.21 60.896V65H446.154V60.644C446.154 60.244 446.054 59.968 445.854 59.816C445.654 59.664 445.382 59.588 445.038 59.588C444.814 59.588 444.614 59.616 444.438 59.672C444.262 59.728 444.102 59.808 443.958 59.912C443.822 60.016 443.698 60.144 443.586 60.296C443.474 60.44 443.37 60.6 443.274 60.776V65ZM455.367 65.12C454.943 65.12 454.547 65.048 454.179 64.904C453.811 64.76 453.491 64.552 453.219 64.28C452.955 64 452.747 63.66 452.595 63.26C452.443 62.86 452.367 62.4 452.367 61.88C452.367 61.368 452.443 60.912 452.595 60.512C452.747 60.104 452.955 59.764 453.219 59.492C453.491 59.22 453.811 59.012 454.179 58.868C454.547 58.724 454.943 58.652 455.367 58.652C455.799 58.652 456.199 58.724 456.567 58.868C456.935 59.012 457.251 59.22 457.515 59.492C457.787 59.764 457.999 60.104 458.151 60.512C458.311 60.912 458.391 61.368 458.391 61.88C458.391 62.4 458.311 62.86 458.151 63.26C457.999 63.66 457.787 64 457.515 64.28C457.251 64.552 456.935 64.76 456.567 64.904C456.199 65.048 455.799 65.12 455.367 65.12ZM455.367 64.172C455.647 64.172 455.903 64.128 456.135 64.04C456.375 63.944 456.583 63.804 456.759 63.62C456.935 63.428 457.071 63.188 457.167 62.9C457.263 62.612 457.311 62.272 457.311 61.88C457.311 61.488 457.263 61.148 457.167 60.86C457.071 60.572 456.935 60.336 456.759 60.152C456.583 59.96 456.375 59.82 456.135 59.732C455.903 59.636 455.647 59.588 455.367 59.588C455.087 59.588 454.831 59.636 454.599 59.732C454.367 59.82 454.163 59.96 453.987 60.152C453.819 60.336 453.687 60.572 453.591 60.86C453.495 61.148 453.447 61.488 453.447 61.88C453.447 62.272 453.495 62.612 453.591 62.9C453.687 63.188 453.819 63.428 453.987 63.62C454.163 63.804 454.367 63.944 454.599 64.04C454.831 64.128 455.087 64.172 455.367 64.172ZM463.674 63.884C463.506 64.236 463.246 64.532 462.894 64.772C462.55 65.004 462.098 65.12 461.538 65.12C460.962 65.12 460.494 64.96 460.134 64.64C459.782 64.312 459.606 63.808 459.606 63.128V58.772H460.674V63.128C460.674 63.336 460.702 63.508 460.758 63.644C460.822 63.772 460.906 63.876 461.01 63.956C461.114 64.036 461.234 64.092 461.37 64.124C461.514 64.156 461.67 64.172 461.838 64.172C462.302 64.172 462.674 64.068 462.954 63.86C463.234 63.652 463.474 63.368 463.674 63.008V58.772H464.73V65H463.794L463.698 63.884H463.674ZM469.416 59.588C468.936 59.588 468.544 59.7 468.24 59.924C467.944 60.14 467.704 60.42 467.52 60.764V65H466.464V58.772H467.46L467.496 59.888H467.52C467.688 59.528 467.952 59.232 468.312 59C468.672 58.768 469.128 58.652 469.68 58.652C470.296 58.652 470.784 58.816 471.144 59.144C471.512 59.464 471.696 59.96 471.696 60.632V65H470.64V60.74C470.64 60.308 470.532 60.008 470.316 59.84C470.1 59.672 469.8 59.588 469.416 59.588ZM476.414 64.868C476.286 64.94 476.122 65 475.922 65.048C475.722 65.096 475.51 65.12 475.286 65.12C474.982 65.12 474.722 65.076 474.506 64.988C474.298 64.9 474.126 64.784 473.99 64.64C473.854 64.488 473.754 64.32 473.69 64.136C473.634 63.944 473.606 63.748 473.606 63.548V59.672H472.862V58.772H473.606V57.464H474.662V58.772H476.474V59.672H474.662V63.416C474.662 63.68 474.726 63.872 474.854 63.992C474.99 64.112 475.226 64.172 475.562 64.172C475.874 64.172 476.158 64.084 476.414 63.908V64.868ZM423.539 79H421.919L420.599 74.188L419.243 79H417.671L416.255 72.772H417.371L418.559 78.208L420.071 72.772H421.259L422.735 78.148L423.911 72.772H424.955L423.539 79ZM426.72 71.86C426.504 71.86 426.332 71.796 426.204 71.668C426.076 71.532 426.012 71.368 426.012 71.176C426.012 70.984 426.076 70.82 426.204 70.684C426.332 70.548 426.504 70.48 426.72 70.48C426.928 70.48 427.092 70.548 427.212 70.684C427.332 70.82 427.392 70.984 427.392 71.176C427.392 71.368 427.332 71.532 427.212 71.668C427.092 71.796 426.928 71.86 426.72 71.86ZM427.236 72.772V79H426.18V72.772H427.236ZM432.006 78.868C431.878 78.94 431.714 79 431.514 79.048C431.314 79.096 431.102 79.12 430.878 79.12C430.574 79.12 430.314 79.076 430.098 78.988C429.89 78.9 429.718 78.784 429.582 78.64C429.446 78.488 429.346 78.32 429.282 78.136C429.226 77.944 429.198 77.748 429.198 77.548V73.672H428.454V72.772H429.198V71.464H430.254V72.772H432.066V73.672H430.254V77.416C430.254 77.68 430.318 77.872 430.446 77.992C430.582 78.112 430.818 78.172 431.154 78.172C431.466 78.172 431.75 78.084 432.006 77.908V78.868ZM436.363 73.588C435.883 73.588 435.491 73.7 435.187 73.924C434.891 74.14 434.651 74.42 434.467 74.764V79H433.411V70.396H434.467V72.772L434.443 73.888H434.467C434.635 73.536 434.899 73.244 435.259 73.012C435.619 72.772 436.075 72.652 436.627 72.652C437.243 72.652 437.731 72.816 438.091 73.144C438.459 73.464 438.643 73.96 438.643 74.632V79H437.587V74.74C437.587 74.308 437.479 74.008 437.263 73.84C437.047 73.672 436.747 73.588 436.363 73.588ZM444.777 77.776C444.585 78.184 444.317 78.512 443.973 78.76C443.629 79 443.193 79.12 442.665 79.12C442.289 79.12 441.933 79.056 441.597 78.928C441.261 78.792 440.965 78.592 440.709 78.328C440.453 78.056 440.249 77.72 440.097 77.32C439.945 76.912 439.869 76.432 439.869 75.88C439.869 75.336 439.945 74.864 440.097 74.464C440.249 74.056 440.453 73.72 440.709 73.456C440.965 73.184 441.261 72.984 441.597 72.856C441.941 72.72 442.301 72.652 442.677 72.652C443.149 72.652 443.557 72.752 443.901 72.952C444.245 73.144 444.521 73.42 444.729 73.78V70.396H445.785V79H444.861L444.777 77.776ZM442.821 78.172C443.093 78.172 443.345 78.128 443.577 78.04C443.809 77.944 444.009 77.8 444.177 77.608C444.353 77.416 444.489 77.176 444.585 76.888C444.689 76.6 444.741 76.264 444.741 75.88C444.741 75.496 444.689 75.16 444.585 74.872C444.489 74.584 444.353 74.344 444.177 74.152C444.009 73.96 443.809 73.82 443.577 73.732C443.345 73.636 443.093 73.588 442.821 73.588C442.269 73.588 441.817 73.784 441.465 74.176C441.121 74.56 440.949 75.128 440.949 75.88C440.949 76.64 441.125 77.212 441.477 77.596C441.829 77.98 442.277 78.172 442.821 78.172ZM450.593 73.828C450.145 73.868 449.737 73.984 449.369 74.176C449.009 74.36 448.741 74.648 448.565 75.04V79H447.509V72.772H448.433L448.541 74.128H448.565C448.741 73.76 448.993 73.44 449.321 73.168C449.657 72.888 450.081 72.716 450.593 72.652V73.828ZM455.41 77.812C455.338 77.956 455.246 78.108 455.134 78.268C455.022 78.42 454.882 78.56 454.714 78.688C454.546 78.816 454.346 78.92 454.114 79C453.89 79.08 453.626 79.12 453.322 79.12C452.762 79.12 452.31 78.964 451.966 78.652C451.622 78.332 451.45 77.876 451.45 77.284C451.45 76.604 451.686 76.104 452.158 75.784C452.638 75.464 453.318 75.304 454.198 75.304H455.362V74.788C455.362 74.356 455.25 74.048 455.026 73.864C454.802 73.68 454.418 73.588 453.874 73.588C453.49 73.588 453.126 73.652 452.782 73.78C452.438 73.9 452.13 74.04 451.858 74.2V73.252C452.082 73.116 452.382 72.984 452.758 72.856C453.142 72.72 453.562 72.652 454.018 72.652C454.802 72.652 455.398 72.816 455.806 73.144C456.214 73.464 456.418 73.964 456.418 74.644V77.992C456.418 78.064 456.418 78.148 456.418 78.244C456.426 78.332 456.43 78.424 456.43 78.52C456.438 78.616 456.446 78.708 456.454 78.796C456.462 78.876 456.47 78.944 456.478 79H455.518C455.494 78.888 455.47 78.732 455.446 78.532C455.43 78.324 455.422 78.144 455.422 77.992L455.41 77.812ZM453.55 78.172C453.878 78.172 454.158 78.104 454.39 77.968C454.622 77.832 454.81 77.676 454.954 77.5C455.098 77.316 455.202 77.14 455.266 76.972C455.33 76.796 455.362 76.672 455.362 76.6V76.144H454.306C453.674 76.144 453.214 76.236 452.926 76.42C452.646 76.596 452.506 76.864 452.506 77.224C452.506 77.504 452.59 77.732 452.758 77.908C452.926 78.084 453.19 78.172 453.55 78.172ZM464.859 79H463.239L461.919 74.188L460.563 79H458.991L457.575 72.772H458.691L459.879 78.208L461.391 72.772H462.579L464.055 78.148L465.231 72.772H466.275L464.859 79ZM470.453 73.588C469.973 73.588 469.581 73.7 469.277 73.924C468.981 74.14 468.741 74.42 468.557 74.764V79H467.501V72.772H468.497L468.533 73.888H468.557C468.725 73.528 468.989 73.232 469.349 73C469.709 72.768 470.165 72.652 470.717 72.652C471.333 72.652 471.821 72.816 472.181 73.144C472.549 73.464 472.733 73.96 472.733 74.632V79H471.677V74.74C471.677 74.308 471.569 74.008 471.353 73.84C471.137 73.672 470.837 73.588 470.453 73.588ZM480.172 79.12C479.692 79.12 479.276 79.008 478.924 78.784C478.58 78.56 478.304 78.252 478.096 77.86V81.124H477.04V72.772H477.964L478.072 73.984C478.28 73.576 478.56 73.252 478.912 73.012C479.264 72.772 479.7 72.652 480.22 72.652C480.58 72.652 480.924 72.72 481.252 72.856C481.588 72.984 481.88 73.184 482.128 73.456C482.384 73.72 482.584 74.056 482.728 74.464C482.88 74.864 482.956 75.336 482.956 75.88C482.956 76.432 482.88 76.912 482.728 77.32C482.576 77.72 482.372 78.056 482.116 78.328C481.86 78.592 481.564 78.792 481.228 78.928C480.892 79.056 480.54 79.12 480.172 79.12ZM480.016 78.172C480.568 78.172 481.012 77.984 481.348 77.608C481.692 77.224 481.864 76.648 481.864 75.88C481.864 75.128 481.692 74.56 481.348 74.176C481.012 73.784 480.568 73.588 480.016 73.588C479.744 73.588 479.488 73.636 479.248 73.732C479.016 73.828 478.812 73.972 478.636 74.164C478.468 74.348 478.332 74.584 478.228 74.872C478.132 75.16 478.084 75.496 478.084 75.88C478.084 76.264 478.132 76.6 478.228 76.888C478.332 77.176 478.468 77.416 478.636 77.608C478.812 77.8 479.016 77.944 479.248 78.04C479.488 78.128 479.744 78.172 480.016 78.172ZM489.191 78.472C489.103 78.536 488.995 78.604 488.867 78.676C488.739 78.748 488.583 78.82 488.399 78.892C488.215 78.956 488.007 79.008 487.775 79.048C487.543 79.096 487.283 79.12 486.995 79.12C485.947 79.12 485.151 78.836 484.607 78.268C484.063 77.7 483.791 76.904 483.791 75.88C483.791 75.376 483.863 74.924 484.007 74.524C484.159 74.124 484.367 73.788 484.631 73.516C484.895 73.236 485.207 73.024 485.567 72.88C485.927 72.728 486.319 72.652 486.743 72.652C487.191 72.652 487.591 72.728 487.943 72.88C488.295 73.032 488.583 73.256 488.807 73.552C489.039 73.848 489.195 74.216 489.275 74.656C489.363 75.088 489.363 75.592 489.275 76.168H484.883C484.923 76.84 485.123 77.344 485.483 77.68C485.843 78.008 486.379 78.172 487.091 78.172C487.571 78.172 487.983 78.104 488.327 77.968C488.671 77.832 488.959 77.684 489.191 77.524V78.472ZM486.719 73.588C486.263 73.588 485.871 73.728 485.543 74.008C485.215 74.288 485.007 74.712 484.919 75.28H488.267C488.299 74.704 488.167 74.28 487.871 74.008C487.575 73.728 487.191 73.588 486.719 73.588ZM493.682 73.828C493.234 73.868 492.826 73.984 492.458 74.176C492.098 74.36 491.83 74.648 491.654 75.04V79H490.598V72.772H491.522L491.63 74.128H491.654C491.83 73.76 492.082 73.44 492.41 73.168C492.746 72.888 493.17 72.716 493.682 72.652V73.828ZM439.061 93H438.005V86.772H438.929L439.037 87.888H439.061C439.229 87.536 439.481 87.244 439.817 87.012C440.153 86.772 440.593 86.652 441.137 86.652C441.617 86.652 442.009 86.768 442.313 87C442.625 87.224 442.833 87.564 442.937 88.02C443.113 87.596 443.381 87.264 443.741 87.024C444.109 86.776 444.553 86.652 445.073 86.652C445.649 86.652 446.105 86.816 446.441 87.144C446.777 87.464 446.945 87.96 446.945 88.632V93H445.877V88.764C445.877 88.356 445.777 88.06 445.577 87.876C445.377 87.684 445.105 87.588 444.761 87.588C444.529 87.588 444.325 87.624 444.149 87.696C443.973 87.76 443.817 87.852 443.681 87.972C443.545 88.092 443.421 88.232 443.309 88.392C443.197 88.552 443.093 88.72 442.997 88.896V93H441.941V88.644C441.941 88.244 441.841 87.968 441.641 87.816C441.441 87.664 441.169 87.588 440.825 87.588C440.601 87.588 440.401 87.616 440.225 87.672C440.049 87.728 439.889 87.808 439.745 87.912C439.609 88.016 439.485 88.144 439.373 88.296C439.261 88.44 439.157 88.6 439.061 88.776V93ZM451.154 93.12C450.73 93.12 450.334 93.048 449.966 92.904C449.598 92.76 449.278 92.552 449.006 92.28C448.742 92 448.534 91.66 448.382 91.26C448.23 90.86 448.154 90.4 448.154 89.88C448.154 89.368 448.23 88.912 448.382 88.512C448.534 88.104 448.742 87.764 449.006 87.492C449.278 87.22 449.598 87.012 449.966 86.868C450.334 86.724 450.73 86.652 451.154 86.652C451.586 86.652 451.986 86.724 452.354 86.868C452.722 87.012 453.038 87.22 453.302 87.492C453.574 87.764 453.786 88.104 453.938 88.512C454.098 88.912 454.178 89.368 454.178 89.88C454.178 90.4 454.098 90.86 453.938 91.26C453.786 91.66 453.574 92 453.302 92.28C453.038 92.552 452.722 92.76 452.354 92.904C451.986 93.048 451.586 93.12 451.154 93.12ZM451.154 92.172C451.434 92.172 451.69 92.128 451.922 92.04C452.162 91.944 452.37 91.804 452.546 91.62C452.722 91.428 452.858 91.188 452.954 90.9C453.05 90.612 453.098 90.272 453.098 89.88C453.098 89.488 453.05 89.148 452.954 88.86C452.858 88.572 452.722 88.336 452.546 88.152C452.37 87.96 452.162 87.82 451.922 87.732C451.69 87.636 451.434 87.588 451.154 87.588C450.874 87.588 450.618 87.636 450.386 87.732C450.154 87.82 449.95 87.96 449.774 88.152C449.606 88.336 449.474 88.572 449.378 88.86C449.282 89.148 449.234 89.488 449.234 89.88C449.234 90.272 449.282 90.612 449.378 90.9C449.474 91.188 449.606 91.428 449.774 91.62C449.95 91.804 450.154 91.944 450.386 92.04C450.618 92.128 450.874 92.172 451.154 92.172ZM458.418 87.588C457.938 87.588 457.546 87.7 457.242 87.924C456.946 88.14 456.706 88.42 456.522 88.764V93H455.466V86.772H456.462L456.498 87.888H456.522C456.69 87.528 456.954 87.232 457.314 87C457.674 86.768 458.13 86.652 458.682 86.652C459.298 86.652 459.786 86.816 460.146 87.144C460.514 87.464 460.698 87.96 460.698 88.632V93H459.642V88.74C459.642 88.308 459.534 88.008 459.318 87.84C459.102 87.672 458.802 87.588 458.418 87.588ZM465.416 92.868C465.288 92.94 465.124 93 464.924 93.048C464.724 93.096 464.512 93.12 464.288 93.12C463.984 93.12 463.724 93.076 463.508 92.988C463.3 92.9 463.128 92.784 462.992 92.64C462.856 92.488 462.756 92.32 462.692 92.136C462.636 91.944 462.608 91.748 462.608 91.548V87.672H461.864V86.772H462.608V85.464H463.664V86.772H465.476V87.672H463.664V91.416C463.664 91.68 463.728 91.872 463.856 91.992C463.992 92.112 464.228 92.172 464.564 92.172C464.876 92.172 465.16 92.084 465.416 91.908V92.868ZM469.773 87.588C469.293 87.588 468.901 87.7 468.597 87.924C468.301 88.14 468.061 88.42 467.877 88.764V93H466.821V84.396H467.877V86.772L467.853 87.888H467.877C468.045 87.536 468.309 87.244 468.669 87.012C469.029 86.772 469.485 86.652 470.037 86.652C470.653 86.652 471.141 86.816 471.501 87.144C471.869 87.464 472.053 87.96 472.053 88.632V93H470.997V88.74C470.997 88.308 470.889 88.008 470.673 87.84C470.457 87.672 470.157 87.588 469.773 87.588Z" fill="black"/>
<g filter="url(#filter0_d)">
<path d="M350 25H40C31.7157 25 25 31.7157 25 40V110C25 118.284 31.7157 125 40 125H350C358.284 125 365 118.284 365 110V40C365 31.7157 358.284 25 350 25Z" fill="white"/>
</g>
<path d="M35 40C35 37.2386 37.2386 35 40 35H170C172.761 35 175 37.2386 175 40V110C175 112.761 172.761 115 170 115H40C37.2386 115 35 112.761 35 110V40Z" fill="#DAEEF9"/>
<path d="M65.5402 43.2849H67.2202L70.3042 51.8889H69.1042L68.2162 49.4289H64.4122L63.5362 51.8889H62.4802L65.5402 43.2849ZM67.8562 48.4089L66.3202 44.1249L64.7842 48.4089H67.8562ZM72.4688 51.8889H71.4128V45.6609H72.3368L72.4448 46.7769H72.4688C72.6368 46.4249 72.8888 46.1329 73.2248 45.9009C73.5608 45.6609 74.0008 45.5409 74.5448 45.5409C75.0248 45.5409 75.4168 45.6569 75.7208 45.8889C76.0328 46.1129 76.2408 46.4529 76.3448 46.9089C76.5208 46.4849 76.7888 46.1529 77.1488 45.9129C77.5168 45.6649 77.9608 45.5409 78.4808 45.5409C79.0568 45.5409 79.5128 45.7049 79.8488 46.0329C80.1848 46.3529 80.3528 46.8489 80.3528 47.5209V51.8889H79.2848V47.6529C79.2848 47.2449 79.1848 46.9489 78.9848 46.7649C78.7848 46.5729 78.5128 46.4769 78.1688 46.4769C77.9368 46.4769 77.7328 46.5129 77.5568 46.5849C77.3808 46.6489 77.2248 46.7409 77.0888 46.8609C76.9528 46.9809 76.8288 47.1209 76.7168 47.2809C76.6048 47.4409 76.5008 47.6089 76.4048 47.7849V51.8889H75.3488V47.5329C75.3488 47.1329 75.2488 46.8569 75.0488 46.7049C74.8488 46.5529 74.5768 46.4769 74.2328 46.4769C74.0088 46.4769 73.8088 46.5049 73.6328 46.5609C73.4568 46.6169 73.2968 46.6969 73.1528 46.8009C73.0168 46.9049 72.8928 47.0329 72.7808 47.1849C72.6688 47.3289 72.5648 47.4889 72.4688 47.6649V51.8889ZM84.5626 52.0089C84.1386 52.0089 83.7426 51.9369 83.3746 51.7929C83.0066 51.6489 82.6866 51.4409 82.4146 51.1689C82.1506 50.8889 81.9426 50.5489 81.7906 50.1489C81.6386 49.7489 81.5626 49.2889 81.5626 48.7689C81.5626 48.2569 81.6386 47.8009 81.7906 47.4009C81.9426 46.9929 82.1506 46.6529 82.4146 46.3809C82.6866 46.1089 83.0066 45.9009 83.3746 45.7569C83.7426 45.6129 84.1386 45.5409 84.5626 45.5409C84.9946 45.5409 85.3946 45.6129 85.7626 45.7569C86.1306 45.9009 86.4466 46.1089 86.7106 46.3809C86.9826 46.6529 87.1946 46.9929 87.3466 47.4009C87.5066 47.8009 87.5866 48.2569 87.5866 48.7689C87.5866 49.2889 87.5066 49.7489 87.3466 50.1489C87.1946 50.5489 86.9826 50.8889 86.7106 51.1689C86.4466 51.4409 86.1306 51.6489 85.7626 51.7929C85.3946 51.9369 84.9946 52.0089 84.5626 52.0089ZM84.5626 51.0609C84.8426 51.0609 85.0986 51.0169 85.3306 50.9289C85.5706 50.8329 85.7786 50.6929 85.9546 50.5089C86.1306 50.3169 86.2666 50.0769 86.3626 49.7889C86.4586 49.5009 86.5066 49.1609 86.5066 48.7689C86.5066 48.3769 86.4586 48.0369 86.3626 47.7489C86.2666 47.4609 86.1306 47.2249 85.9546 47.0409C85.7786 46.8489 85.5706 46.7089 85.3306 46.6209C85.0986 46.5249 84.8426 46.4769 84.5626 46.4769C84.2826 46.4769 84.0266 46.5249 83.7946 46.6209C83.5626 46.7089 83.3586 46.8489 83.1826 47.0409C83.0146 47.2249 82.8826 47.4609 82.7866 47.7489C82.6906 48.0369 82.6426 48.3769 82.6426 48.7689C82.6426 49.1609 82.6906 49.5009 82.7866 49.7889C82.8826 50.0769 83.0146 50.3169 83.1826 50.5089C83.3586 50.6929 83.5626 50.8329 83.7946 50.9289C84.0266 51.0169 84.2826 51.0609 84.5626 51.0609ZM92.8698 50.7729C92.7018 51.1249 92.4418 51.4209 92.0898 51.6609C91.7458 51.8929 91.2938 52.0089 90.7338 52.0089C90.1578 52.0089 89.6898 51.8489 89.3298 51.5289C88.9778 51.2009 88.8018 50.6969 88.8018 50.0169V45.6609H89.8698V50.0169C89.8698 50.2249 89.8978 50.3969 89.9538 50.5329C90.0178 50.6609 90.1018 50.7649 90.2058 50.8449C90.3098 50.9249 90.4298 50.9809 90.5658 51.0129C90.7098 51.0449 90.8658 51.0609 91.0338 51.0609C91.4978 51.0609 91.8698 50.9569 92.1498 50.7489C92.4298 50.5409 92.6698 50.2569 92.8698 49.8969V45.6609H93.9258V51.8889H92.9898L92.8938 50.7729H92.8698ZM98.7069 51.7569C98.5789 51.8289 98.4149 51.8889 98.2149 51.9369C98.0149 51.9849 97.8029 52.0089 97.5789 52.0089C97.2749 52.0089 97.0149 51.9649 96.7989 51.8769C96.5909 51.7889 96.4189 51.6729 96.2829 51.5289C96.1469 51.3769 96.0469 51.2089 95.9829 51.0249C95.9269 50.8329 95.8989 50.6369 95.8989 50.4369V46.5609H95.1549V45.6609H95.8989V44.3529H96.9549V45.6609H98.7669V46.5609H96.9549V50.3049C96.9549 50.5689 97.0189 50.7609 97.1469 50.8809C97.2829 51.0009 97.5189 51.0609 97.8549 51.0609C98.1669 51.0609 98.4509 50.9729 98.7069 50.7969V51.7569ZM105.881 52.0089C105.401 52.0089 104.985 51.8969 104.633 51.6729C104.289 51.4489 104.013 51.1409 103.805 50.7489V54.0129H102.749V45.6609H103.673L103.781 46.8729C103.989 46.4649 104.269 46.1409 104.621 45.9009C104.973 45.6609 105.409 45.5409 105.929 45.5409C106.289 45.5409 106.633 45.6089 106.961 45.7449C107.297 45.8729 107.589 46.0729 107.837 46.3449C108.093 46.6089 108.293 46.9449 108.437 47.3529C108.589 47.7529 108.665 48.2249 108.665 48.7689C108.665 49.3209 108.589 49.8009 108.437 50.2089C108.285 50.6089 108.081 50.9449 107.825 51.2169C107.569 51.4809 107.273 51.6809 106.937 51.8169C106.601 51.9449 106.249 52.0089 105.881 52.0089ZM105.725 51.0609C106.277 51.0609 106.721 50.8729 107.057 50.4969C107.401 50.1129 107.573 49.5369 107.573 48.7689C107.573 48.0169 107.401 47.4489 107.057 47.0649C106.721 46.6729 106.277 46.4769 105.725 46.4769C105.453 46.4769 105.197 46.5249 104.957 46.6209C104.725 46.7169 104.521 46.8609 104.345 47.0529C104.177 47.2369 104.041 47.4729 103.937 47.7609C103.841 48.0489 103.793 48.3849 103.793 48.7689C103.793 49.1529 103.841 49.4889 103.937 49.7769C104.041 50.0649 104.177 50.3049 104.345 50.4969C104.521 50.6889 104.725 50.8329 104.957 50.9289C105.197 51.0169 105.453 51.0609 105.725 51.0609ZM114.9 51.3609C114.812 51.4249 114.704 51.4929 114.576 51.5649C114.448 51.6369 114.292 51.7089 114.108 51.7809C113.924 51.8449 113.716 51.8969 113.484 51.9369C113.252 51.9849 112.992 52.0089 112.704 52.0089C111.656 52.0089 110.86 51.7249 110.316 51.1569C109.772 50.5889 109.5 49.7929 109.5 48.7689C109.5 48.2649 109.572 47.8129 109.716 47.4129C109.868 47.0129 110.076 46.6769 110.34 46.4049C110.604 46.1249 110.916 45.9129 111.276 45.7689C111.636 45.6169 112.028 45.5409 112.452 45.5409C112.9 45.5409 113.3 45.6169 113.652 45.7689C114.004 45.9209 114.292 46.1449 114.516 46.4409C114.748 46.7369 114.904 47.1049 114.984 47.5449C115.072 47.9769 115.072 48.4809 114.984 49.0569H110.592C110.632 49.7289 110.832 50.2329 111.192 50.5689C111.552 50.8969 112.088 51.0609 112.8 51.0609C113.28 51.0609 113.692 50.9929 114.036 50.8569C114.38 50.7209 114.668 50.5729 114.9 50.4129V51.3609ZM112.428 46.4769C111.972 46.4769 111.58 46.6169 111.252 46.8969C110.924 47.1769 110.716 47.6009 110.628 48.1689H113.976C114.008 47.5929 113.876 47.1689 113.58 46.8969C113.284 46.6169 112.9 46.4769 112.428 46.4769ZM119.391 46.7169C118.943 46.7569 118.535 46.8729 118.167 47.0649C117.807 47.2489 117.539 47.5369 117.363 47.9289V51.8889H116.307V45.6609H117.231L117.339 47.0169H117.363C117.539 46.6489 117.791 46.3289 118.119 46.0569C118.455 45.7769 118.879 45.6049 119.391 45.5409V46.7169ZM126.375 51.8169C126.231 52.1929 126.079 52.5209 125.919 52.8009C125.759 53.0889 125.579 53.3329 125.379 53.5329C125.179 53.7329 124.955 53.8809 124.707 53.9769C124.459 54.0809 124.175 54.1329 123.855 54.1329C123.695 54.1329 123.547 54.1209 123.411 54.0969C123.275 54.0809 123.151 54.0489 123.039 54.0009V52.9809C123.127 53.0449 123.239 53.0929 123.375 53.1249C123.511 53.1649 123.659 53.1849 123.819 53.1849C124.115 53.1849 124.359 53.1129 124.551 52.9689C124.743 52.8329 124.927 52.6129 125.103 52.3089L122.571 45.6609H123.735L125.715 50.9169L127.683 45.6609H128.703L126.375 51.8169ZM134.529 51.3609C134.441 51.4249 134.333 51.4929 134.205 51.5649C134.077 51.6369 133.921 51.7089 133.737 51.7809C133.553 51.8449 133.345 51.8969 133.113 51.9369C132.881 51.9849 132.621 52.0089 132.333 52.0089C131.285 52.0089 130.489 51.7249 129.945 51.1569C129.401 50.5889 129.129 49.7929 129.129 48.7689C129.129 48.2649 129.201 47.8129 129.345 47.4129C129.497 47.0129 129.705 46.6769 129.969 46.4049C130.233 46.1249 130.545 45.9129 130.905 45.7689C131.265 45.6169 131.657 45.5409 132.081 45.5409C132.529 45.5409 132.929 45.6169 133.281 45.7689C133.633 45.9209 133.921 46.1449 134.145 46.4409C134.377 46.7369 134.533 47.1049 134.613 47.5449C134.701 47.9769 134.701 48.4809 134.613 49.0569H130.221C130.261 49.7289 130.461 50.2329 130.821 50.5689C131.181 50.8969 131.717 51.0609 132.429 51.0609C132.909 51.0609 133.321 50.9929 133.665 50.8569C134.009 50.7209 134.297 50.5729 134.529 50.4129V51.3609ZM132.057 46.4769C131.601 46.4769 131.209 46.6169 130.881 46.8969C130.553 47.1769 130.345 47.6009 130.257 48.1689H133.605C133.637 47.5929 133.505 47.1689 133.209 46.8969C132.913 46.6169 132.529 46.4769 132.057 46.4769ZM139.584 50.7009C139.512 50.8449 139.42 50.9969 139.308 51.1569C139.196 51.3089 139.056 51.4489 138.888 51.5769C138.72 51.7049 138.52 51.8089 138.288 51.8889C138.064 51.9689 137.8 52.0089 137.496 52.0089C136.936 52.0089 136.484 51.8529 136.14 51.5409C135.796 51.2209 135.624 50.7649 135.624 50.1729C135.624 49.4929 135.86 48.9929 136.332 48.6729C136.812 48.3529 137.492 48.1929 138.372 48.1929H139.536V47.6769C139.536 47.2449 139.424 46.9369 139.2 46.7529C138.976 46.5689 138.592 46.4769 138.048 46.4769C137.664 46.4769 137.3 46.5409 136.956 46.6689C136.612 46.7889 136.304 46.9289 136.032 47.0889V46.1409C136.256 46.0049 136.556 45.8729 136.932 45.7449C137.316 45.6089 137.736 45.5409 138.192 45.5409C138.976 45.5409 139.572 45.7049 139.98 46.0329C140.388 46.3529 140.592 46.8529 140.592 47.5329V50.8809C140.592 50.9529 140.592 51.0369 140.592 51.1329C140.6 51.2209 140.604 51.3129 140.604 51.4089C140.612 51.5049 140.62 51.5969 140.628 51.6849C140.636 51.7649 140.644 51.8329 140.652 51.8889H139.692C139.668 51.7769 139.644 51.6209 139.62 51.4209C139.604 51.2129 139.596 51.0329 139.596 50.8809L139.584 50.7009ZM137.724 51.0609C138.052 51.0609 138.332 50.9929 138.564 50.8569C138.796 50.7209 138.984 50.5649 139.128 50.3889C139.272 50.2049 139.376 50.0289 139.44 49.8609C139.504 49.6849 139.536 49.5609 139.536 49.4889V49.0329H138.48C137.848 49.0329 137.388 49.1249 137.1 49.3089C136.82 49.4849 136.68 49.7529 136.68 50.1129C136.68 50.3929 136.764 50.6209 136.932 50.7969C137.1 50.9729 137.364 51.0609 137.724 51.0609ZM145.337 46.7169C144.889 46.7569 144.481 46.8729 144.113 47.0649C143.753 47.2489 143.485 47.5369 143.309 47.9289V51.8889H142.253V45.6609H143.177L143.285 47.0169H143.309C143.485 46.6489 143.737 46.3289 144.065 46.0569C144.401 45.7769 144.825 45.6049 145.337 45.5409V46.7169ZM64.7952 64.7009C64.7232 64.8449 64.6312 64.9969 64.5192 65.1569C64.4072 65.3089 64.2672 65.4489 64.0992 65.5769C63.9312 65.7049 63.7312 65.8089 63.4992 65.8889C63.2752 65.9689 63.0112 66.0089 62.7072 66.0089C62.1472 66.0089 61.6952 65.8529 61.3512 65.5409C61.0072 65.2209 60.8352 64.7649 60.8352 64.1729C60.8352 63.4929 61.0712 62.9929 61.5432 62.6729C62.0232 62.3529 62.7032 62.1929 63.5832 62.1929H64.7472V61.6769C64.7472 61.2449 64.6352 60.9369 64.4112 60.7529C64.1872 60.5689 63.8032 60.4769 63.2592 60.4769C62.8752 60.4769 62.5112 60.5409 62.1672 60.6689C61.8232 60.7889 61.5152 60.9289 61.2432 61.0889V60.1409C61.4672 60.0049 61.7672 59.8729 62.1432 59.7449C62.5272 59.6089 62.9472 59.5409 63.4032 59.5409C64.1872 59.5409 64.7832 59.7049 65.1912 60.0329C65.5992 60.3529 65.8032 60.8529 65.8032 61.5329V64.8809C65.8032 64.9529 65.8032 65.0369 65.8032 65.1329C65.8112 65.2209 65.8152 65.3129 65.8152 65.4089C65.8232 65.5049 65.8312 65.5969 65.8392 65.6849C65.8472 65.7649 65.8552 65.8329 65.8632 65.8889H64.9032C64.8792 65.7769 64.8552 65.6209 64.8312 65.4209C64.8152 65.2129 64.8072 65.0329 64.8072 64.8809L64.7952 64.7009ZM62.9352 65.0609C63.2632 65.0609 63.5432 64.9929 63.7752 64.8569C64.0072 64.7209 64.1952 64.5649 64.3392 64.3889C64.4832 64.2049 64.5872 64.0289 64.6512 63.8609C64.7152 63.6849 64.7472 63.5609 64.7472 63.4889V63.0329H63.6912C63.0592 63.0329 62.5992 63.1249 62.3112 63.3089C62.0312 63.4849 61.8912 63.7529 61.8912 64.1129C61.8912 64.3929 61.9752 64.6209 62.1432 64.7969C62.3112 64.9729 62.5752 65.0609 62.9352 65.0609ZM70.1516 66.0089C69.6716 66.0089 69.2356 65.9369 68.8436 65.7929C68.4596 65.6409 68.1316 65.4289 67.8596 65.1569C67.5876 64.8769 67.3796 64.5369 67.2356 64.1369C67.0916 63.7369 67.0196 63.2809 67.0196 62.7689C67.0196 62.2649 67.0916 61.8129 67.2356 61.4129C67.3876 61.0129 67.5996 60.6769 67.8716 60.4049C68.1436 60.1249 68.4756 59.9129 68.8676 59.7689C69.2596 59.6169 69.7036 59.5409 70.1996 59.5409C70.5836 59.5409 70.9356 59.5849 71.2556 59.6729C71.5756 59.7529 71.8396 59.8729 72.0476 60.0329V60.9809C71.7916 60.8129 71.5036 60.6889 71.1836 60.6089C70.8716 60.5209 70.5476 60.4769 70.2116 60.4769C69.4836 60.4769 68.9476 60.6649 68.6036 61.0409C68.2676 61.4169 68.0996 61.9929 68.0996 62.7689C68.0996 63.5449 68.2636 64.1209 68.5916 64.4969C68.9196 64.8729 69.4396 65.0609 70.1516 65.0609C70.5276 65.0609 70.8716 65.0169 71.1836 64.9289C71.5036 64.8329 71.7916 64.7129 72.0476 64.5689V65.5169C71.8236 65.6529 71.5516 65.7689 71.2316 65.8649C70.9196 65.9609 70.5596 66.0089 70.1516 66.0089ZM76.0227 66.0089C75.5427 66.0089 75.1067 65.9369 74.7147 65.7929C74.3307 65.6409 74.0027 65.4289 73.7307 65.1569C73.4587 64.8769 73.2507 64.5369 73.1067 64.1369C72.9627 63.7369 72.8907 63.2809 72.8907 62.7689C72.8907 62.2649 72.9627 61.8129 73.1067 61.4129C73.2587 61.0129 73.4707 60.6769 73.7427 60.4049C74.0147 60.1249 74.3467 59.9129 74.7387 59.7689C75.1307 59.6169 75.5747 59.5409 76.0707 59.5409C76.4547 59.5409 76.8067 59.5849 77.1267 59.6729C77.4467 59.7529 77.7107 59.8729 77.9187 60.0329V60.9809C77.6627 60.8129 77.3747 60.6889 77.0547 60.6089C76.7427 60.5209 76.4187 60.4769 76.0827 60.4769C75.3547 60.4769 74.8187 60.6649 74.4747 61.0409C74.1387 61.4169 73.9707 61.9929 73.9707 62.7689C73.9707 63.5449 74.1347 64.1209 74.4627 64.4969C74.7907 64.8729 75.3107 65.0609 76.0227 65.0609C76.3987 65.0609 76.7427 65.0169 77.0547 64.9289C77.3747 64.8329 77.6627 64.7129 77.9187 64.5689V65.5169C77.6947 65.6529 77.4227 65.7689 77.1027 65.8649C76.7907 65.9609 76.4307 66.0089 76.0227 66.0089ZM81.7618 66.0089C81.3378 66.0089 80.9418 65.9369 80.5738 65.7929C80.2058 65.6489 79.8858 65.4409 79.6138 65.1689C79.3498 64.8889 79.1418 64.5489 78.9898 64.1489C78.8378 63.7489 78.7618 63.2889 78.7618 62.7689C78.7618 62.2569 78.8378 61.8009 78.9898 61.4009C79.1418 60.9929 79.3498 60.6529 79.6138 60.3809C79.8858 60.1089 80.2058 59.9009 80.5738 59.7569C80.9418 59.6129 81.3378 59.5409 81.7618 59.5409C82.1938 59.5409 82.5938 59.6129 82.9618 59.7569C83.3298 59.9009 83.6458 60.1089 83.9098 60.3809C84.1818 60.6529 84.3938 60.9929 84.5458 61.4009C84.7058 61.8009 84.7858 62.2569 84.7858 62.7689C84.7858 63.2889 84.7058 63.7489 84.5458 64.1489C84.3938 64.5489 84.1818 64.8889 83.9098 65.1689C83.6458 65.4409 83.3298 65.6489 82.9618 65.7929C82.5938 65.9369 82.1938 66.0089 81.7618 66.0089ZM81.7618 65.0609C82.0418 65.0609 82.2978 65.0169 82.5298 64.9289C82.7698 64.8329 82.9778 64.6929 83.1538 64.5089C83.3298 64.3169 83.4658 64.0769 83.5618 63.7889C83.6578 63.5009 83.7058 63.1609 83.7058 62.7689C83.7058 62.3769 83.6578 62.0369 83.5618 61.7489C83.4658 61.4609 83.3298 61.2249 83.1538 61.0409C82.9778 60.8489 82.7698 60.7089 82.5298 60.6209C82.2978 60.5249 82.0418 60.4769 81.7618 60.4769C81.4818 60.4769 81.2258 60.5249 80.9938 60.6209C80.7618 60.7089 80.5578 60.8489 80.3818 61.0409C80.2138 61.2249 80.0818 61.4609 79.9858 61.7489C79.8898 62.0369 79.8418 62.3769 79.8418 62.7689C79.8418 63.1609 79.8898 63.5009 79.9858 63.7889C80.0818 64.0769 80.2138 64.3169 80.3818 64.5089C80.5578 64.6929 80.7618 64.8329 80.9938 64.9289C81.2258 65.0169 81.4818 65.0609 81.7618 65.0609ZM89.157 60.7169C88.709 60.7569 88.301 60.8729 87.933 61.0649C87.573 61.2489 87.305 61.5369 87.129 61.9289V65.8889H86.073V59.6609H86.997L87.105 61.0169H87.129C87.305 60.6489 87.557 60.3289 87.885 60.0569C88.221 59.7769 88.645 59.6049 89.157 59.5409V60.7169ZM94.8495 64.6649C94.6575 65.0729 94.3895 65.4009 94.0455 65.6489C93.7015 65.8889 93.2655 66.0089 92.7375 66.0089C92.3615 66.0089 92.0055 65.9449 91.6695 65.8169C91.3335 65.6809 91.0375 65.4809 90.7815 65.2169C90.5255 64.9449 90.3215 64.6089 90.1695 64.2089C90.0175 63.8009 89.9415 63.3209 89.9415 62.7689C89.9415 62.2249 90.0175 61.7529 90.1695 61.3529C90.3215 60.9449 90.5255 60.6089 90.7815 60.3449C91.0375 60.0729 91.3335 59.8729 91.6695 59.7449C92.0135 59.6089 92.3735 59.5409 92.7495 59.5409C93.2215 59.5409 93.6295 59.6409 93.9735 59.8409C94.3175 60.0329 94.5935 60.3089 94.8015 60.6689V57.2849H95.8575V65.8889H94.9335L94.8495 64.6649ZM92.8935 65.0609C93.1655 65.0609 93.4175 65.0169 93.6495 64.9289C93.8815 64.8329 94.0815 64.6889 94.2495 64.4969C94.4255 64.3049 94.5615 64.0649 94.6575 63.7769C94.7615 63.4889 94.8135 63.1529 94.8135 62.7689C94.8135 62.3849 94.7615 62.0489 94.6575 61.7609C94.5615 61.4729 94.4255 61.2329 94.2495 61.0409C94.0815 60.8489 93.8815 60.7089 93.6495 60.6209C93.4175 60.5249 93.1655 60.4769 92.8935 60.4769C92.3415 60.4769 91.8895 60.6729 91.5375 61.0649C91.1935 61.4489 91.0215 62.0169 91.0215 62.7689C91.0215 63.5289 91.1975 64.1009 91.5495 64.4849C91.9015 64.8689 92.3495 65.0609 92.8935 65.0609ZM98.1208 58.7489C97.9048 58.7489 97.7328 58.6849 97.6048 58.5569C97.4768 58.4209 97.4128 58.2569 97.4128 58.0649C97.4128 57.8729 97.4768 57.7089 97.6048 57.5729C97.7328 57.4369 97.9048 57.3689 98.1208 57.3689C98.3288 57.3689 98.4928 57.4369 98.6128 57.5729C98.7328 57.7089 98.7928 57.8729 98.7928 58.0649C98.7928 58.2569 98.7328 58.4209 98.6128 58.5569C98.4928 58.6849 98.3288 58.7489 98.1208 58.7489ZM98.6368 59.6609V65.8889H97.5808V59.6609H98.6368ZM103.31 60.4769C102.83 60.4769 102.438 60.5889 102.134 60.8129C101.838 61.0289 101.598 61.3089 101.414 61.6529V65.8889H100.358V59.6609H101.354L101.39 60.7769H101.414C101.582 60.4169 101.846 60.1209 102.206 59.8889C102.566 59.6569 103.022 59.5409 103.574 59.5409C104.19 59.5409 104.678 59.7049 105.038 60.0329C105.406 60.3529 105.59 60.8489 105.59 61.5209V65.8889H104.534V61.6289C104.534 61.1969 104.426 60.8969 104.21 60.7289C103.994 60.5609 103.694 60.4769 103.31 60.4769ZM112.612 65.3609C112.612 65.7609 112.552 66.1249 112.432 66.4529C112.32 66.7889 112.136 67.0729 111.88 67.3049C111.632 67.5369 111.308 67.7169 110.908 67.8449C110.516 67.9729 110.04 68.0369 109.481 68.0369C109.177 68.0369 108.909 68.0209 108.677 67.9889C108.445 67.9569 108.241 67.9129 108.065 67.8569C107.897 67.8089 107.753 67.7529 107.633 67.6889C107.513 67.6329 107.413 67.5769 107.333 67.5209V66.5729C107.461 66.6449 107.593 66.7089 107.729 66.7649C107.873 66.8289 108.029 66.8849 108.197 66.9329C108.365 66.9809 108.553 67.0169 108.761 67.0409C108.977 67.0729 109.221 67.0889 109.493 67.0889C110.26 67.0889 110.796 66.9449 111.1 66.6569C111.404 66.3689 111.556 65.9409 111.556 65.3729V64.4129C111.372 64.7809 111.112 65.0769 110.776 65.3009C110.448 65.5249 110.04 65.6369 109.553 65.6369C109.185 65.6369 108.833 65.5729 108.497 65.4449C108.169 65.3169 107.877 65.1289 107.621 64.8809C107.373 64.6249 107.173 64.3089 107.021 63.9329C106.877 63.5489 106.805 63.1049 106.805 62.6009C106.805 62.0889 106.877 61.6449 107.021 61.2689C107.173 60.8849 107.373 60.5649 107.621 60.3089C107.877 60.0529 108.173 59.8609 108.509 59.7329C108.845 59.6049 109.201 59.5409 109.577 59.5409C110.072 59.5409 110.488 59.6529 110.824 59.8769C111.168 60.1009 111.436 60.4049 111.628 60.7889L111.64 60.6569C111.64 60.5129 111.648 60.3409 111.664 60.1409C111.68 59.9329 111.696 59.7729 111.712 59.6609H112.672C112.656 59.7729 112.64 59.9329 112.624 60.1409C112.616 60.3489 112.612 60.5209 112.612 60.6569V65.3609ZM109.745 64.6889C110.008 64.6889 110.248 64.6489 110.464 64.5689C110.688 64.4809 110.88 64.3489 111.04 64.1729C111.208 63.9969 111.336 63.7809 111.424 63.5249C111.52 63.2609 111.568 62.9529 111.568 62.6009C111.568 61.8889 111.392 61.3569 111.04 61.0049C110.696 60.6529 110.26 60.4769 109.733 60.4769C109.469 60.4769 109.221 60.5209 108.989 60.6089C108.765 60.6969 108.569 60.8289 108.401 61.0049C108.241 61.1809 108.113 61.4049 108.017 61.6769C107.921 61.9409 107.873 62.2489 107.873 62.6009C107.873 62.9529 107.921 63.2609 108.017 63.5249C108.113 63.7809 108.245 63.9969 108.413 64.1729C108.581 64.3409 108.777 64.4689 109.001 64.5569C109.233 64.6449 109.481 64.6889 109.745 64.6889ZM120.012 65.7569C119.884 65.8289 119.72 65.8889 119.52 65.9369C119.32 65.9849 119.108 66.0089 118.884 66.0089C118.58 66.0089 118.32 65.9649 118.104 65.8769C117.896 65.7889 117.724 65.6729 117.588 65.5289C117.452 65.3769 117.352 65.2089 117.288 65.0249C117.232 64.8329 117.204 64.6369 117.204 64.4369V60.5609H116.46V59.6609H117.204V58.3529H118.26V59.6609H120.072V60.5609H118.26V64.3049C118.26 64.5689 118.324 64.7609 118.452 64.8809C118.588 65.0009 118.824 65.0609 119.16 65.0609C119.472 65.0609 119.756 64.9729 120.012 64.7969V65.7569ZM123.914 66.0089C123.49 66.0089 123.094 65.9369 122.726 65.7929C122.358 65.6489 122.038 65.4409 121.766 65.1689C121.502 64.8889 121.294 64.5489 121.142 64.1489C120.99 63.7489 120.914 63.2889 120.914 62.7689C120.914 62.2569 120.99 61.8009 121.142 61.4009C121.294 60.9929 121.502 60.6529 121.766 60.3809C122.038 60.1089 122.358 59.9009 122.726 59.7569C123.094 59.6129 123.49 59.5409 123.914 59.5409C124.346 59.5409 124.746 59.6129 125.114 59.7569C125.482 59.9009 125.798 60.1089 126.062 60.3809C126.334 60.6529 126.546 60.9929 126.698 61.4009C126.858 61.8009 126.938 62.2569 126.938 62.7689C126.938 63.2889 126.858 63.7489 126.698 64.1489C126.546 64.5489 126.334 64.8889 126.062 65.1689C125.798 65.4409 125.482 65.6489 125.114 65.7929C124.746 65.9369 124.346 66.0089 123.914 66.0089ZM123.914 65.0609C124.194 65.0609 124.45 65.0169 124.682 64.9289C124.922 64.8329 125.13 64.6929 125.306 64.5089C125.482 64.3169 125.618 64.0769 125.714 63.7889C125.81 63.5009 125.858 63.1609 125.858 62.7689C125.858 62.3769 125.81 62.0369 125.714 61.7489C125.618 61.4609 125.482 61.2249 125.306 61.0409C125.13 60.8489 124.922 60.7089 124.682 60.6209C124.45 60.5249 124.194 60.4769 123.914 60.4769C123.634 60.4769 123.378 60.5249 123.146 60.6209C122.914 60.7089 122.71 60.8489 122.534 61.0409C122.366 61.2249 122.234 61.4609 122.138 61.7489C122.042 62.0369 121.994 62.3769 121.994 62.7689C121.994 63.1609 122.042 63.5009 122.138 63.7889C122.234 64.0769 122.366 64.3169 122.534 64.5089C122.71 64.6929 122.914 64.8329 123.146 64.9289C123.378 65.0169 123.634 65.0609 123.914 65.0609ZM133.91 65.7569C133.782 65.8289 133.618 65.8889 133.418 65.9369C133.218 65.9849 133.006 66.0089 132.782 66.0089C132.478 66.0089 132.218 65.9649 132.002 65.8769C131.794 65.7889 131.622 65.6729 131.486 65.5289C131.35 65.3769 131.25 65.2089 131.186 65.0249C131.13 64.8329 131.102 64.6369 131.102 64.4369V60.5609H130.358V59.6609H131.102V58.3529H132.158V59.6609H133.97V60.5609H132.158V64.3049C132.158 64.5689 132.222 64.7609 132.35 64.8809C132.486 65.0009 132.722 65.0609 133.058 65.0609C133.37 65.0609 133.654 64.9729 133.91 64.7969V65.7569ZM138.267 60.4769C137.787 60.4769 137.395 60.5889 137.091 60.8129C136.795 61.0289 136.555 61.3089 136.371 61.6529V65.8889H135.315V57.2849H136.371V59.6609L136.347 60.7769H136.371C136.539 60.4249 136.803 60.1329 137.163 59.9009C137.523 59.6609 137.979 59.5409 138.531 59.5409C139.147 59.5409 139.635 59.7049 139.995 60.0329C140.363 60.3529 140.547 60.8489 140.547 61.5209V65.8889H139.491V61.6289C139.491 61.1969 139.383 60.8969 139.167 60.7289C138.951 60.5609 138.651 60.4769 138.267 60.4769ZM147.174 65.3609C147.086 65.4249 146.978 65.4929 146.85 65.5649C146.722 65.6369 146.566 65.7089 146.382 65.7809C146.198 65.8449 145.99 65.8969 145.758 65.9369C145.526 65.9849 145.266 66.0089 144.978 66.0089C143.93 66.0089 143.134 65.7249 142.59 65.1569C142.046 64.5889 141.774 63.7929 141.774 62.7689C141.774 62.2649 141.846 61.8129 141.99 61.4129C142.142 61.0129 142.35 60.6769 142.614 60.4049C142.878 60.1249 143.19 59.9129 143.55 59.7689C143.91 59.6169 144.302 59.5409 144.726 59.5409C145.174 59.5409 145.574 59.6169 145.926 59.7689C146.278 59.9209 146.566 60.1449 146.79 60.4409C147.022 60.7369 147.178 61.1049 147.258 61.5449C147.346 61.9769 147.346 62.4809 147.258 63.0569H142.866C142.906 63.7289 143.106 64.2329 143.466 64.5689C143.826 64.8969 144.362 65.0609 145.074 65.0609C145.554 65.0609 145.966 64.9929 146.31 64.8569C146.654 64.7209 146.942 64.5729 147.174 64.4129V65.3609ZM144.702 60.4769C144.246 60.4769 143.854 60.6169 143.526 60.8969C143.198 61.1769 142.99 61.6009 142.902 62.1689H146.25C146.282 61.5929 146.15 61.1689 145.854 60.8969C145.558 60.6169 145.174 60.4769 144.702 60.4769ZM79.2034 78.7009C79.1314 78.8449 79.0394 78.9969 78.9274 79.1569C78.8154 79.3089 78.6754 79.4489 78.5074 79.5769C78.3394 79.7049 78.1394 79.8089 77.9074 79.8889C77.6834 79.9689 77.4194 80.0089 77.1154 80.0089C76.5554 80.0089 76.1034 79.8529 75.7594 79.5409C75.4154 79.2209 75.2434 78.7649 75.2434 78.1729C75.2434 77.4929 75.4794 76.9929 75.9514 76.6729C76.4314 76.3529 77.1114 76.1929 77.9914 76.1929H79.1554V75.6769C79.1554 75.2449 79.0434 74.9369 78.8194 74.7529C78.5954 74.5689 78.2114 74.4769 77.6674 74.4769C77.2834 74.4769 76.9194 74.5409 76.5754 74.6689C76.2314 74.7889 75.9234 74.9289 75.6514 75.0889V74.1409C75.8754 74.0049 76.1754 73.8729 76.5514 73.7449C76.9354 73.6089 77.3554 73.5409 77.8114 73.5409C78.5954 73.5409 79.1914 73.7049 79.5994 74.0329C80.0074 74.3529 80.2114 74.8529 80.2114 75.5329V78.8809C80.2114 78.9529 80.2114 79.0369 80.2114 79.1329C80.2194 79.2209 80.2234 79.3129 80.2234 79.4089C80.2314 79.5049 80.2394 79.5969 80.2474 79.6849C80.2554 79.7649 80.2634 79.8329 80.2714 79.8889H79.3114C79.2874 79.7769 79.2634 79.6209 79.2394 79.4209C79.2234 79.2129 79.2154 79.0329 79.2154 78.8809L79.2034 78.7009ZM77.3434 79.0609C77.6714 79.0609 77.9514 78.9929 78.1834 78.8569C78.4154 78.7209 78.6034 78.5649 78.7474 78.3889C78.8914 78.2049 78.9954 78.0289 79.0594 77.8609C79.1234 77.6849 79.1554 77.5609 79.1554 77.4889V77.0329H78.0994C77.4674 77.0329 77.0074 77.1249 76.7194 77.3089C76.4394 77.4849 76.2994 77.7529 76.2994 78.1129C76.2994 78.3929 76.3834 78.6209 76.5514 78.7969C76.7194 78.9729 76.9834 79.0609 77.3434 79.0609ZM87.2238 79.3609C87.2238 79.7609 87.1638 80.1249 87.0438 80.4529C86.9318 80.7889 86.7478 81.0729 86.4918 81.3049C86.2438 81.5369 85.9198 81.7169 85.5198 81.8449C85.1278 81.9729 84.6518 82.0369 84.0918 82.0369C83.7878 82.0369 83.5198 82.0209 83.2878 81.9889C83.0558 81.9569 82.8518 81.9129 82.6758 81.8569C82.5078 81.8089 82.3638 81.7529 82.2438 81.6889C82.1238 81.6329 82.0238 81.5769 81.9438 81.5209V80.5729C82.0718 80.6449 82.2038 80.7089 82.3398 80.7649C82.4838 80.8289 82.6398 80.8849 82.8078 80.9329C82.9758 80.9809 83.1638 81.0169 83.3718 81.0409C83.5878 81.0729 83.8318 81.0889 84.1038 81.0889C84.8718 81.0889 85.4078 80.9449 85.7118 80.6569C86.0158 80.3689 86.1678 79.9409 86.1678 79.3729V78.4129C85.9838 78.7809 85.7238 79.0769 85.3878 79.3009C85.0598 79.5249 84.6518 79.6369 84.1638 79.6369C83.7958 79.6369 83.4438 79.5729 83.1078 79.4449C82.7798 79.3169 82.4878 79.1289 82.2318 78.8809C81.9838 78.6249 81.7838 78.3089 81.6318 77.9329C81.4878 77.5489 81.4158 77.1049 81.4158 76.6009C81.4158 76.0889 81.4878 75.6449 81.6318 75.2689C81.7838 74.8849 81.9838 74.5649 82.2318 74.3089C82.4878 74.0529 82.7838 73.8609 83.1198 73.7329C83.4558 73.6049 83.8118 73.5409 84.1878 73.5409C84.6838 73.5409 85.0998 73.6529 85.4358 73.8769C85.7798 74.1009 86.0478 74.4049 86.2398 74.7889L86.2518 74.6569C86.2518 74.5129 86.2598 74.3409 86.2758 74.1409C86.2918 73.9329 86.3078 73.7729 86.3238 73.6609H87.2838C87.2678 73.7729 87.2518 73.9329 87.2358 74.1409C87.2278 74.3489 87.2238 74.5209 87.2238 74.6569V79.3609ZM84.3558 78.6889C84.6198 78.6889 84.8598 78.6489 85.0758 78.5689C85.2998 78.4809 85.4918 78.3489 85.6518 78.1729C85.8198 77.9969 85.9478 77.7809 86.0358 77.5249C86.1318 77.2609 86.1798 76.9529 86.1798 76.6009C86.1798 75.8889 86.0038 75.3569 85.6518 75.0049C85.3078 74.6529 84.8718 74.4769 84.3438 74.4769C84.0798 74.4769 83.8318 74.5209 83.5998 74.6089C83.3758 74.6969 83.1798 74.8289 83.0118 75.0049C82.8518 75.1809 82.7238 75.4049 82.6278 75.6769C82.5318 75.9409 82.4838 76.2489 82.4838 76.6009C82.4838 76.9529 82.5318 77.2609 82.6278 77.5249C82.7238 77.7809 82.8558 77.9969 83.0238 78.1729C83.1918 78.3409 83.3878 78.4689 83.6118 78.5569C83.8438 78.6449 84.0918 78.6889 84.3558 78.6889ZM92.0222 74.7169C91.5742 74.7569 91.1662 74.8729 90.7982 75.0649C90.4382 75.2489 90.1702 75.5369 89.9942 75.9289V79.8889H88.9382V73.6609H89.8622L89.9702 75.0169H89.9942C90.1702 74.6489 90.4222 74.3289 90.7502 74.0569C91.0862 73.7769 91.5102 73.6049 92.0222 73.5409V74.7169ZM98.0895 79.3609C98.0015 79.4249 97.8935 79.4929 97.7655 79.5649C97.6375 79.6369 97.4815 79.7089 97.2975 79.7809C97.1135 79.8449 96.9055 79.8969 96.6735 79.9369C96.4415 79.9849 96.1815 80.0089 95.8935 80.0089C94.8455 80.0089 94.0495 79.7249 93.5055 79.1569C92.9615 78.5889 92.6895 77.7929 92.6895 76.7689C92.6895 76.2649 92.7615 75.8129 92.9055 75.4129C93.0575 75.0129 93.2655 74.6769 93.5295 74.4049C93.7935 74.1249 94.1055 73.9129 94.4655 73.7689C94.8255 73.6169 95.2175 73.5409 95.6415 73.5409C96.0895 73.5409 96.4895 73.6169 96.8415 73.7689C97.1935 73.9209 97.4815 74.1449 97.7055 74.4409C97.9375 74.7369 98.0935 75.1049 98.1735 75.5449C98.2615 75.9769 98.2615 76.4809 98.1735 77.0569H93.7815C93.8215 77.7289 94.0215 78.2329 94.3815 78.5689C94.7415 78.8969 95.2775 79.0609 95.9895 79.0609C96.4695 79.0609 96.8815 78.9929 97.2255 78.8569C97.5695 78.7209 97.8575 78.5729 98.0895 78.4129V79.3609ZM95.6175 74.4769C95.1615 74.4769 94.7695 74.6169 94.4415 74.8969C94.1135 75.1769 93.9055 75.6009 93.8175 76.1689H97.1655C97.1975 75.5929 97.0655 75.1689 96.7695 74.8969C96.4735 74.6169 96.0895 74.4769 95.6175 74.4769ZM104.453 79.3609C104.365 79.4249 104.257 79.4929 104.129 79.5649C104.001 79.6369 103.845 79.7089 103.661 79.7809C103.477 79.8449 103.269 79.8969 103.037 79.9369C102.805 79.9849 102.545 80.0089 102.257 80.0089C101.209 80.0089 100.413 79.7249 99.8688 79.1569C99.3248 78.5889 99.0528 77.7929 99.0528 76.7689C99.0528 76.2649 99.1248 75.8129 99.2688 75.4129C99.4208 75.0129 99.6288 74.6769 99.8928 74.4049C100.157 74.1249 100.469 73.9129 100.829 73.7689C101.189 73.6169 101.581 73.5409 102.005 73.5409C102.453 73.5409 102.853 73.6169 103.205 73.7689C103.557 73.9209 103.845 74.1449 104.069 74.4409C104.301 74.7369 104.457 75.1049 104.537 75.5449C104.625 75.9769 104.625 76.4809 104.537 77.0569H100.145C100.185 77.7289 100.385 78.2329 100.745 78.5689C101.105 78.8969 101.641 79.0609 102.353 79.0609C102.833 79.0609 103.245 78.9929 103.589 78.8569C103.933 78.7209 104.221 78.5729 104.453 78.4129V79.3609ZM101.981 74.4769C101.525 74.4769 101.133 74.6169 100.805 74.8969C100.477 75.1769 100.269 75.6009 100.181 76.1689H103.529C103.561 75.5929 103.429 75.1689 103.133 74.8969C102.837 74.6169 102.453 74.4769 101.981 74.4769ZM106.916 79.8889H105.86V73.6609H106.784L106.892 74.7769H106.916C107.084 74.4249 107.336 74.1329 107.672 73.9009C108.008 73.6609 108.448 73.5409 108.992 73.5409C109.472 73.5409 109.864 73.6569 110.168 73.8889C110.48 74.1129 110.688 74.4529 110.792 74.9089C110.968 74.4849 111.236 74.1529 111.596 73.9129C111.964 73.6649 112.408 73.5409 112.928 73.5409C113.504 73.5409 113.96 73.7049 114.296 74.0329C114.632 74.3529 114.8 74.8489 114.8 75.5209V79.8889H113.732V75.6529C113.732 75.2449 113.632 74.9489 113.432 74.7649C113.232 74.5729 112.96 74.4769 112.616 74.4769C112.384 74.4769 112.18 74.5129 112.004 74.5849C111.828 74.6489 111.672 74.7409 111.536 74.8609C111.4 74.9809 111.276 75.1209 111.164 75.2809C111.052 75.4409 110.948 75.6089 110.852 75.7849V79.8889H109.796V75.5329C109.796 75.1329 109.696 74.8569 109.496 74.7049C109.296 74.5529 109.024 74.4769 108.68 74.4769C108.456 74.4769 108.256 74.5049 108.08 74.5609C107.904 74.6169 107.744 74.6969 107.6 74.8009C107.464 74.9049 107.34 75.0329 107.228 75.1849C107.116 75.3289 107.012 75.4889 106.916 75.6649V79.8889ZM121.41 79.3609C121.322 79.4249 121.214 79.4929 121.086 79.5649C120.958 79.6369 120.802 79.7089 120.618 79.7809C120.434 79.8449 120.226 79.8969 119.994 79.9369C119.762 79.9849 119.502 80.0089 119.214 80.0089C118.166 80.0089 117.37 79.7249 116.826 79.1569C116.282 78.5889 116.01 77.7929 116.01 76.7689C116.01 76.2649 116.082 75.8129 116.226 75.4129C116.378 75.0129 116.586 74.6769 116.85 74.4049C117.114 74.1249 117.426 73.9129 117.786 73.7689C118.146 73.6169 118.538 73.5409 118.962 73.5409C119.41 73.5409 119.81 73.6169 120.162 73.7689C120.514 73.9209 120.802 74.1449 121.026 74.4409C121.258 74.7369 121.414 75.1049 121.494 75.5449C121.582 75.9769 121.582 76.4809 121.494 77.0569H117.102C117.142 77.7289 117.342 78.2329 117.702 78.5689C118.062 78.8969 118.598 79.0609 119.31 79.0609C119.79 79.0609 120.202 78.9929 120.546 78.8569C120.89 78.7209 121.178 78.5729 121.41 78.4129V79.3609ZM118.938 74.4769C118.482 74.4769 118.09 74.6169 117.762 74.8969C117.434 75.1769 117.226 75.6009 117.138 76.1689H120.486C120.518 75.5929 120.386 75.1689 120.09 74.8969C119.794 74.6169 119.41 74.4769 118.938 74.4769ZM125.769 74.4769C125.289 74.4769 124.897 74.5889 124.593 74.8129C124.297 75.0289 124.057 75.3089 123.873 75.6529V79.8889H122.817V73.6609H123.813L123.849 74.7769H123.873C124.041 74.4169 124.305 74.1209 124.665 73.8889C125.025 73.6569 125.481 73.5409 126.033 73.5409C126.649 73.5409 127.137 73.7049 127.497 74.0329C127.865 74.3529 128.049 74.8489 128.049 75.5209V79.8889H126.993V75.6289C126.993 75.1969 126.885 74.8969 126.669 74.7289C126.453 74.5609 126.153 74.4769 125.769 74.4769ZM132.767 79.7569C132.639 79.8289 132.475 79.8889 132.275 79.9369C132.075 79.9849 131.863 80.0089 131.639 80.0089C131.335 80.0089 131.075 79.9649 130.859 79.8769C130.651 79.7889 130.479 79.6729 130.343 79.5289C130.207 79.3769 130.107 79.2089 130.043 79.0249C129.987 78.8329 129.959 78.6369 129.959 78.4369V74.5609H129.215V73.6609H129.959V72.3529H131.015V73.6609H132.827V74.5609H131.015V78.3049C131.015 78.5689 131.079 78.7609 131.207 78.8809C131.343 79.0009 131.579 79.0609 131.915 79.0609C132.227 79.0609 132.511 78.9729 132.767 78.7969V79.7569ZM102.683 88.1169C102.459 88.1169 102.271 88.0449 102.119 87.9009C101.975 87.7489 101.903 87.5689 101.903 87.3609C101.903 87.1369 101.975 86.9529 102.119 86.8089C102.271 86.6649 102.459 86.5929 102.683 86.5929C102.907 86.5929 103.091 86.6649 103.235 86.8089C103.379 86.9529 103.451 87.1369 103.451 87.3609C103.451 87.5689 103.379 87.7489 103.235 87.9009C103.091 88.0449 102.907 88.1169 102.683 88.1169ZM99.7908 90.2649V89.4249H105.575V90.2649H99.7908ZM102.683 93.1089C102.459 93.1089 102.271 93.0369 102.119 92.8929C101.975 92.7409 101.903 92.5609 101.903 92.3529C101.903 92.1289 101.975 91.9449 102.119 91.8009C102.271 91.6569 102.459 91.5849 102.683 91.5849C102.907 91.5849 103.091 91.6569 103.235 91.8009C103.379 91.9449 103.451 92.1289 103.451 92.3529C103.451 92.5609 103.379 92.7409 103.235 92.8929C103.091 93.0369 102.907 93.1089 102.683 93.1089ZM86.0854 105.405C86.0854 105.805 86.0094 106.165 85.8574 106.485C85.7054 106.805 85.4934 107.081 85.2214 107.313C84.9494 107.537 84.6254 107.709 84.2494 107.829C83.8734 107.949 83.4574 108.009 83.0014 108.009C82.4414 108.009 81.9574 107.941 81.5494 107.805C81.1414 107.669 80.8094 107.493 80.5534 107.277V106.077C80.8094 106.333 81.1454 106.557 81.5614 106.749C81.9774 106.933 82.4614 107.025 83.0134 107.025C83.6054 107.025 84.0694 106.885 84.4054 106.605C84.7494 106.325 84.9214 105.933 84.9214 105.429C84.9214 104.949 84.7694 104.577 84.4654 104.313C84.1614 104.041 83.6854 103.905 83.0374 103.905H81.9334V102.885H83.0854C83.5414 102.885 83.9094 102.765 84.1894 102.525C84.4694 102.285 84.6094 101.937 84.6094 101.481C84.6094 101.073 84.4774 100.753 84.2134 100.521C83.9494 100.281 83.5694 100.161 83.0734 100.161C82.5614 100.161 82.1214 100.257 81.7534 100.449C81.3934 100.641 81.0654 100.865 80.7694 101.121V99.9449C81.0494 99.7129 81.3814 99.5249 81.7654 99.3809C82.1494 99.2369 82.5894 99.1649 83.0854 99.1649C83.4934 99.1649 83.8614 99.2209 84.1894 99.3329C84.5174 99.4369 84.7934 99.5889 85.0174 99.7889C85.2494 99.9889 85.4254 100.229 85.5454 100.509C85.6654 100.781 85.7254 101.085 85.7254 101.421C85.7254 101.693 85.6854 101.937 85.6054 102.153C85.5254 102.369 85.4134 102.557 85.2694 102.717C85.1334 102.877 84.9734 103.013 84.7894 103.125C84.6054 103.229 84.4094 103.305 84.2014 103.353C84.4494 103.393 84.6854 103.469 84.9094 103.581C85.1414 103.693 85.3454 103.837 85.5214 104.013C85.6974 104.181 85.8334 104.385 85.9294 104.625C86.0334 104.857 86.0854 105.117 86.0854 105.405ZM92.8031 105.069C92.8031 105.509 92.7271 105.909 92.5751 106.269C92.4311 106.629 92.2311 106.941 91.9751 107.205C91.7191 107.461 91.4151 107.661 91.0631 107.805C90.7191 107.941 90.3471 108.009 89.9471 108.009C89.4031 108.009 88.9391 107.917 88.5551 107.733C88.1791 107.549 87.8711 107.293 87.6311 106.965C87.3911 106.629 87.2151 106.229 87.1031 105.765C86.9911 105.301 86.9351 104.793 86.9351 104.241C86.9351 103.489 87.0031 102.801 87.1391 102.177C87.2751 101.553 87.4831 101.021 87.7631 100.581C88.0431 100.133 88.3991 99.7849 88.8311 99.5369C89.2711 99.2889 89.7911 99.1649 90.3911 99.1649C90.8231 99.1649 91.1791 99.2089 91.4591 99.2969C91.7391 99.3849 91.9871 99.4889 92.2031 99.6089V100.677C91.6831 100.325 91.0791 100.149 90.3911 100.149C90.0151 100.149 89.6871 100.229 89.4071 100.389C89.1271 100.549 88.8871 100.769 88.6871 101.049C88.4951 101.321 88.3431 101.649 88.2311 102.033C88.1191 102.409 88.0471 102.813 88.0151 103.245C88.2791 102.885 88.5831 102.617 88.9271 102.441C89.2711 102.265 89.6471 102.177 90.0551 102.177C90.4391 102.177 90.7991 102.241 91.1351 102.369C91.4711 102.489 91.7631 102.673 92.0111 102.921C92.2591 103.169 92.4511 103.473 92.5871 103.833C92.7311 104.193 92.8031 104.605 92.8031 105.069ZM89.9111 107.049C90.1431 107.049 90.3631 107.009 90.5711 106.929C90.7871 106.841 90.9751 106.717 91.1351 106.557C91.2951 106.397 91.4231 106.197 91.5191 105.957C91.6151 105.709 91.6631 105.421 91.6631 105.093C91.6631 104.773 91.6151 104.489 91.5191 104.241C91.4311 103.993 91.3071 103.785 91.1471 103.617C90.9951 103.449 90.8191 103.325 90.6191 103.245C90.4271 103.157 90.2311 103.113 90.0311 103.113C89.7671 103.113 89.5191 103.157 89.2871 103.245C89.0631 103.333 88.8671 103.461 88.6991 103.629C88.5391 103.797 88.4111 104.005 88.3151 104.253C88.2191 104.501 88.1711 104.789 88.1711 105.117C88.1711 105.693 88.3271 106.161 88.6391 106.521C88.9511 106.873 89.3751 107.049 89.9111 107.049ZM99.0647 105.045C99.0647 105.493 98.9927 105.901 98.8487 106.269C98.7127 106.629 98.5127 106.941 98.2487 107.205C97.9927 107.461 97.6767 107.661 97.3007 107.805C96.9327 107.941 96.5207 108.009 96.0647 108.009C95.5527 108.009 95.1087 107.957 94.7327 107.853C94.3567 107.741 94.0367 107.589 93.7727 107.397V106.221C94.0447 106.445 94.3567 106.637 94.7087 106.797C95.0687 106.949 95.5207 107.025 96.0647 107.025C96.6567 107.025 97.1127 106.845 97.4327 106.485C97.7607 106.125 97.9247 105.653 97.9247 105.069C97.9247 104.445 97.7647 103.989 97.4447 103.701C97.1247 103.413 96.7207 103.269 96.2327 103.269C95.8727 103.269 95.5847 103.329 95.3687 103.449C95.1607 103.561 95.0007 103.681 94.8887 103.809H94.0127V99.2849H98.6687V100.317H94.9967V102.777C95.1567 102.657 95.3527 102.553 95.5847 102.465C95.8167 102.369 96.0927 102.321 96.4127 102.321C96.7807 102.321 97.1247 102.381 97.4447 102.501C97.7727 102.613 98.0567 102.785 98.2967 103.017C98.5367 103.241 98.7247 103.525 98.8607 103.869C98.9967 104.205 99.0647 104.597 99.0647 105.045ZM107.699 106.665C107.507 107.073 107.239 107.401 106.895 107.649C106.551 107.889 106.115 108.009 105.587 108.009C105.211 108.009 104.855 107.945 104.519 107.817C104.183 107.681 103.887 107.481 103.631 107.217C103.375 106.945 103.171 106.609 103.019 106.209C102.867 105.801 102.791 105.321 102.791 104.769C102.791 104.225 102.867 103.753 103.019 103.353C103.171 102.945 103.375 102.609 103.631 102.345C103.887 102.073 104.183 101.873 104.519 101.745C104.863 101.609 105.223 101.541 105.599 101.541C106.071 101.541 106.479 101.641 106.823 101.841C107.167 102.033 107.443 102.309 107.651 102.669V99.2849H108.707V107.889H107.783L107.699 106.665ZM105.743 107.061C106.015 107.061 106.267 107.017 106.499 106.929C106.731 106.833 106.931 106.689 107.099 106.497C107.275 106.305 107.411 106.065 107.507 105.777C107.611 105.489 107.663 105.153 107.663 104.769C107.663 104.385 107.611 104.049 107.507 103.761C107.411 103.473 107.275 103.233 107.099 103.041C106.931 102.849 106.731 102.709 106.499 102.621C106.267 102.525 106.015 102.477 105.743 102.477C105.191 102.477 104.739 102.673 104.387 103.065C104.043 103.449 103.871 104.017 103.871 104.769C103.871 105.529 104.047 106.101 104.399 106.485C104.751 106.869 105.199 107.061 105.743 107.061ZM114.078 106.701C114.006 106.845 113.914 106.997 113.802 107.157C113.69 107.309 113.55 107.449 113.382 107.577C113.214 107.705 113.014 107.809 112.782 107.889C112.558 107.969 112.294 108.009 111.99 108.009C111.43 108.009 110.978 107.853 110.634 107.541C110.29 107.221 110.118 106.765 110.118 106.173C110.118 105.493 110.354 104.993 110.826 104.673C111.306 104.353 111.986 104.193 112.866 104.193H114.03V103.677C114.03 103.245 113.918 102.937 113.694 102.753C113.47 102.569 113.086 102.477 112.542 102.477C112.158 102.477 111.794 102.541 111.45 102.669C111.106 102.789 110.798 102.929 110.526 103.089V102.141C110.75 102.005 111.05 101.873 111.426 101.745C111.81 101.609 112.23 101.541 112.686 101.541C113.47 101.541 114.066 101.705 114.474 102.033C114.882 102.353 115.086 102.853 115.086 103.533V106.881C115.086 106.953 115.086 107.037 115.086 107.133C115.094 107.221 115.098 107.313 115.098 107.409C115.106 107.505 115.114 107.597 115.122 107.685C115.13 107.765 115.138 107.833 115.146 107.889H114.186C114.162 107.777 114.138 107.621 114.114 107.421C114.098 107.213 114.09 107.033 114.09 106.881L114.078 106.701ZM112.218 107.061C112.546 107.061 112.826 106.993 113.058 106.857C113.29 106.721 113.478 106.565 113.622 106.389C113.766 106.205 113.87 106.029 113.934 105.861C113.998 105.685 114.03 105.561 114.03 105.489V105.033H112.974C112.342 105.033 111.882 105.125 111.594 105.309C111.314 105.485 111.174 105.753 111.174 106.113C111.174 106.393 111.258 106.621 111.426 106.797C111.594 106.973 111.858 107.061 112.218 107.061ZM119.807 107.817C119.663 108.193 119.511 108.521 119.351 108.801C119.191 109.089 119.011 109.333 118.811 109.533C118.611 109.733 118.387 109.881 118.139 109.977C117.891 110.081 117.607 110.133 117.287 110.133C117.127 110.133 116.979 110.121 116.843 110.097C116.707 110.081 116.583 110.049 116.471 110.001V108.981C116.559 109.045 116.671 109.093 116.807 109.125C116.943 109.165 117.091 109.185 117.251 109.185C117.547 109.185 117.791 109.113 117.983 108.969C118.175 108.833 118.359 108.613 118.535 108.309L116.003 101.661H117.167L119.147 106.917L121.115 101.661H122.135L119.807 107.817ZM125.114 108.009C124.786 108.009 124.494 107.981 124.238 107.925C123.99 107.877 123.77 107.817 123.578 107.745C123.394 107.665 123.238 107.585 123.11 107.505C122.982 107.417 122.882 107.341 122.81 107.277V106.329C122.89 106.409 122.998 106.497 123.134 106.593C123.27 106.681 123.434 106.765 123.626 106.845C123.818 106.925 124.034 106.993 124.274 107.049C124.522 107.097 124.798 107.121 125.102 107.121C125.55 107.121 125.906 107.049 126.17 106.905C126.434 106.761 126.566 106.517 126.566 106.173C126.566 105.989 126.522 105.841 126.434 105.729C126.354 105.617 126.242 105.529 126.098 105.465C125.954 105.393 125.786 105.337 125.594 105.297C125.41 105.257 125.214 105.217 125.006 105.177C124.742 105.121 124.482 105.061 124.226 104.997C123.97 104.925 123.738 104.825 123.53 104.697C123.322 104.561 123.154 104.389 123.026 104.181C122.898 103.965 122.834 103.685 122.834 103.341C122.834 102.781 123.05 102.341 123.482 102.021C123.922 101.701 124.534 101.541 125.318 101.541C125.758 101.541 126.146 101.585 126.482 101.673C126.826 101.761 127.09 101.857 127.274 101.961V102.909C127.066 102.773 126.806 102.661 126.494 102.573C126.19 102.477 125.81 102.429 125.354 102.429C124.882 102.429 124.518 102.493 124.262 102.621C124.014 102.749 123.89 102.981 123.89 103.317C123.89 103.485 123.926 103.621 123.998 103.725C124.07 103.821 124.166 103.901 124.286 103.965C124.414 104.021 124.558 104.065 124.718 104.097C124.878 104.129 125.046 104.165 125.222 104.205C125.494 104.261 125.774 104.321 126.062 104.385C126.35 104.449 126.606 104.549 126.83 104.685C127.062 104.821 127.25 105.005 127.394 105.237C127.546 105.461 127.622 105.765 127.622 106.149C127.622 106.509 127.55 106.809 127.406 107.049C127.262 107.289 127.07 107.481 126.83 107.625C126.598 107.761 126.33 107.857 126.026 107.913C125.73 107.977 125.426 108.009 125.114 108.009Z" fill="#18123D"/>
<path d="M215 40C215 37.2386 217.239 35 220 35H350C352.761 35 355 37.2386 355 40V110C355 112.761 352.761 115 350 115H220C217.239 115 215 112.761 215 110V40Z" fill="#FCEAD1"/>
<path d="M238.09 65.8889H236.554L232.234 58.6649V65.8889H231.166V57.2849H232.69L237.01 64.5089V57.2849H238.09V65.8889ZM243.948 64.7729C243.78 65.1249 243.52 65.4209 243.168 65.6609C242.824 65.8929 242.372 66.0089 241.812 66.0089C241.236 66.0089 240.768 65.8489 240.408 65.5289C240.056 65.2009 239.88 64.6969 239.88 64.0169V59.6609H240.948V64.0169C240.948 64.2249 240.976 64.3969 241.032 64.5329C241.096 64.6609 241.18 64.7649 241.284 64.8449C241.388 64.9249 241.508 64.9809 241.644 65.0129C241.788 65.0449 241.944 65.0609 242.112 65.0609C242.576 65.0609 242.948 64.9569 243.228 64.7489C243.508 64.5409 243.748 64.2569 243.948 63.8969V59.6609H245.004V65.8889H244.068L243.972 64.7729H243.948ZM247.793 65.8889H246.737V59.6609H247.661L247.769 60.7769H247.793C247.961 60.4249 248.213 60.1329 248.549 59.9009C248.885 59.6609 249.325 59.5409 249.869 59.5409C250.349 59.5409 250.741 59.6569 251.045 59.8889C251.357 60.1129 251.565 60.4529 251.669 60.9089C251.845 60.4849 252.113 60.1529 252.473 59.9129C252.841 59.6649 253.285 59.5409 253.805 59.5409C254.381 59.5409 254.837 59.7049 255.173 60.0329C255.509 60.3529 255.677 60.8489 255.677 61.5209V65.8889H254.609V61.6529C254.609 61.2449 254.509 60.9489 254.309 60.7649C254.109 60.5729 253.837 60.4769 253.493 60.4769C253.261 60.4769 253.057 60.5129 252.881 60.5849C252.705 60.6489 252.549 60.7409 252.413 60.8609C252.277 60.9809 252.153 61.1209 252.041 61.2809C251.929 61.4409 251.825 61.6089 251.729 61.7849V65.8889H250.673V61.5329C250.673 61.1329 250.573 60.8569 250.373 60.7049C250.173 60.5529 249.901 60.4769 249.557 60.4769C249.333 60.4769 249.133 60.5049 248.957 60.5609C248.781 60.6169 248.621 60.6969 248.477 60.8009C248.341 60.9049 248.217 61.0329 248.105 61.1849C247.993 61.3289 247.889 61.4889 247.793 61.6649V65.8889ZM263.247 62.7689C263.247 63.3209 263.171 63.8009 263.019 64.2089C262.867 64.6089 262.663 64.9449 262.407 65.2169C262.151 65.4809 261.855 65.6809 261.519 65.8169C261.183 65.9449 260.831 66.0089 260.463 66.0089C259.983 66.0089 259.563 65.8969 259.203 65.6729C258.851 65.4409 258.571 65.1209 258.363 64.7129L258.327 65.8889H257.331V57.2849H258.387L258.363 60.8729C258.571 60.4649 258.851 60.1409 259.203 59.9009C259.555 59.6609 259.991 59.5409 260.511 59.5409C260.871 59.5409 261.215 59.6089 261.543 59.7449C261.879 59.8729 262.171 60.0729 262.419 60.3449C262.675 60.6089 262.875 60.9449 263.019 61.3529C263.171 61.7529 263.247 62.2249 263.247 62.7689ZM260.307 65.0609C260.859 65.0609 261.303 64.8729 261.639 64.4969C261.983 64.1129 262.155 63.5369 262.155 62.7689C262.155 62.0169 261.983 61.4489 261.639 61.0649C261.303 60.6729 260.859 60.4769 260.307 60.4769C260.035 60.4769 259.779 60.5249 259.539 60.6209C259.307 60.7169 259.103 60.8609 258.927 61.0529C258.759 61.2369 258.623 61.4729 258.519 61.7609C258.423 62.0489 258.375 62.3849 258.375 62.7689C258.375 63.1529 258.423 63.4889 258.519 63.7769C258.623 64.0649 258.759 64.3049 258.927 64.4969C259.103 64.6889 259.307 64.8329 259.539 64.9289C259.779 65.0169 260.035 65.0609 260.307 65.0609ZM269.482 65.3609C269.394 65.4249 269.286 65.4929 269.158 65.5649C269.03 65.6369 268.874 65.7089 268.69 65.7809C268.506 65.8449 268.298 65.8969 268.066 65.9369C267.834 65.9849 267.574 66.0089 267.286 66.0089C266.238 66.0089 265.442 65.7249 264.898 65.1569C264.354 64.5889 264.082 63.7929 264.082 62.7689C264.082 62.2649 264.154 61.8129 264.298 61.4129C264.45 61.0129 264.658 60.6769 264.922 60.4049C265.186 60.1249 265.498 59.9129 265.858 59.7689C266.218 59.6169 266.61 59.5409 267.034 59.5409C267.482 59.5409 267.882 59.6169 268.234 59.7689C268.586 59.9209 268.874 60.1449 269.098 60.4409C269.33 60.7369 269.486 61.1049 269.566 61.5449C269.654 61.9769 269.654 62.4809 269.566 63.0569H265.174C265.214 63.7289 265.414 64.2329 265.774 64.5689C266.134 64.8969 266.67 65.0609 267.382 65.0609C267.862 65.0609 268.274 64.9929 268.618 64.8569C268.962 64.7209 269.25 64.5729 269.482 64.4129V65.3609ZM267.01 60.4769C266.554 60.4769 266.162 60.6169 265.834 60.8969C265.506 61.1769 265.298 61.6009 265.21 62.1689H268.558C268.59 61.5929 268.458 61.1689 268.162 60.8969C267.866 60.6169 267.482 60.4769 267.01 60.4769ZM273.973 60.7169C273.525 60.7569 273.117 60.8729 272.749 61.0649C272.389 61.2489 272.121 61.5369 271.945 61.9289V65.8889H270.889V59.6609H271.813L271.921 61.0169H271.945C272.121 60.6489 272.373 60.3289 272.701 60.0569C273.037 59.7769 273.461 59.6049 273.973 59.5409V60.7169ZM280.453 66.0089C280.029 66.0089 279.633 65.9369 279.265 65.7929C278.897 65.6489 278.577 65.4409 278.305 65.1689C278.041 64.8889 277.833 64.5489 277.681 64.1489C277.529 63.7489 277.453 63.2889 277.453 62.7689C277.453 62.2569 277.529 61.8009 277.681 61.4009C277.833 60.9929 278.041 60.6529 278.305 60.3809C278.577 60.1089 278.897 59.9009 279.265 59.7569C279.633 59.6129 280.029 59.5409 280.453 59.5409C280.885 59.5409 281.285 59.6129 281.653 59.7569C282.021 59.9009 282.337 60.1089 282.601 60.3809C282.873 60.6529 283.085 60.9929 283.237 61.4009C283.397 61.8009 283.477 62.2569 283.477 62.7689C283.477 63.2889 283.397 63.7489 283.237 64.1489C283.085 64.5489 282.873 64.8889 282.601 65.1689C282.337 65.4409 282.021 65.6489 281.653 65.7929C281.285 65.9369 280.885 66.0089 280.453 66.0089ZM280.453 65.0609C280.733 65.0609 280.989 65.0169 281.221 64.9289C281.461 64.8329 281.669 64.6929 281.845 64.5089C282.021 64.3169 282.157 64.0769 282.253 63.7889C282.349 63.5009 282.397 63.1609 282.397 62.7689C282.397 62.3769 282.349 62.0369 282.253 61.7489C282.157 61.4609 282.021 61.2249 281.845 61.0409C281.669 60.8489 281.461 60.7089 281.221 60.6209C280.989 60.5249 280.733 60.4769 280.453 60.4769C280.173 60.4769 279.917 60.5249 279.685 60.6209C279.453 60.7089 279.249 60.8489 279.073 61.0409C278.905 61.2249 278.773 61.4609 278.677 61.7489C278.581 62.0369 278.533 62.3769 278.533 62.7689C278.533 63.1609 278.581 63.5009 278.677 63.7889C278.773 64.0769 278.905 64.3169 279.073 64.5089C279.249 64.6929 279.453 64.8329 279.685 64.9289C279.917 65.0169 280.173 65.0609 280.453 65.0609ZM286.075 60.5609V65.8889H285.019V60.5609H284.263V59.6609H285.019V59.5049C285.019 58.7689 285.215 58.1969 285.607 57.7889C285.999 57.3809 286.535 57.1769 287.215 57.1769C287.511 57.1769 287.775 57.2129 288.007 57.2849V58.2449C287.935 58.2129 287.831 58.1849 287.695 58.1609C287.559 58.1369 287.415 58.1249 287.263 58.1249C286.895 58.1249 286.603 58.2369 286.387 58.4609C286.179 58.6849 286.075 59.0329 286.075 59.5049V59.6609H287.875V60.5609H286.075ZM296.213 64.6649C296.021 65.0729 295.753 65.4009 295.409 65.6489C295.065 65.8889 294.629 66.0089 294.101 66.0089C293.725 66.0089 293.369 65.9449 293.033 65.8169C292.697 65.6809 292.401 65.4809 292.145 65.2169C291.889 64.9449 291.685 64.6089 291.533 64.2089C291.381 63.8009 291.305 63.3209 291.305 62.7689C291.305 62.2249 291.381 61.7529 291.533 61.3529C291.685 60.9449 291.889 60.6089 292.145 60.3449C292.401 60.0729 292.697 59.8729 293.033 59.7449C293.377 59.6089 293.737 59.5409 294.113 59.5409C294.585 59.5409 294.993 59.6409 295.337 59.8409C295.681 60.0329 295.957 60.3089 296.165 60.6689V57.2849H297.221V65.8889H296.297L296.213 64.6649ZM294.257 65.0609C294.529 65.0609 294.781 65.0169 295.013 64.9289C295.245 64.8329 295.445 64.6889 295.613 64.4969C295.789 64.3049 295.925 64.0649 296.021 63.7769C296.125 63.4889 296.177 63.1529 296.177 62.7689C296.177 62.3849 296.125 62.0489 296.021 61.7609C295.925 61.4729 295.789 61.2329 295.613 61.0409C295.445 60.8489 295.245 60.7089 295.013 60.6209C294.781 60.5249 294.529 60.4769 294.257 60.4769C293.705 60.4769 293.253 60.6729 292.901 61.0649C292.557 61.4489 292.385 62.0169 292.385 62.7689C292.385 63.5289 292.561 64.1009 292.913 64.4849C293.265 64.8689 293.713 65.0609 294.257 65.0609ZM302.592 64.7009C302.52 64.8449 302.428 64.9969 302.316 65.1569C302.204 65.3089 302.064 65.4489 301.896 65.5769C301.728 65.7049 301.528 65.8089 301.296 65.8889C301.072 65.9689 300.808 66.0089 300.504 66.0089C299.944 66.0089 299.492 65.8529 299.148 65.5409C298.804 65.2209 298.632 64.7649 298.632 64.1729C298.632 63.4929 298.868 62.9929 299.34 62.6729C299.82 62.3529 300.5 62.1929 301.38 62.1929H302.544V61.6769C302.544 61.2449 302.432 60.9369 302.208 60.7529C301.984 60.5689 301.6 60.4769 301.056 60.4769C300.672 60.4769 300.308 60.5409 299.964 60.6689C299.62 60.7889 299.312 60.9289 299.04 61.0889V60.1409C299.264 60.0049 299.564 59.8729 299.94 59.7449C300.324 59.6089 300.744 59.5409 301.2 59.5409C301.984 59.5409 302.58 59.7049 302.988 60.0329C303.396 60.3529 303.6 60.8529 303.6 61.5329V64.8809C303.6 64.9529 303.6 65.0369 303.6 65.1329C303.608 65.2209 303.612 65.3129 303.612 65.4089C303.62 65.5049 303.628 65.5969 303.636 65.6849C303.644 65.7649 303.652 65.8329 303.66 65.8889H302.7C302.676 65.7769 302.652 65.6209 302.628 65.4209C302.612 65.2129 302.604 65.0329 302.604 64.8809L302.592 64.7009ZM300.732 65.0609C301.06 65.0609 301.34 64.9929 301.572 64.8569C301.804 64.7209 301.992 64.5649 302.136 64.3889C302.28 64.2049 302.384 64.0289 302.448 63.8609C302.512 63.6849 302.544 63.5609 302.544 63.4889V63.0329H301.488C300.856 63.0329 300.396 63.1249 300.108 63.3089C299.828 63.4849 299.688 63.7529 299.688 64.1129C299.688 64.3929 299.772 64.6209 299.94 64.7969C300.108 64.9729 300.372 65.0609 300.732 65.0609ZM308.32 65.8169C308.176 66.1929 308.024 66.5209 307.864 66.8009C307.704 67.0889 307.524 67.3329 307.324 67.5329C307.124 67.7329 306.9 67.8809 306.652 67.9769C306.404 68.0809 306.12 68.1329 305.8 68.1329C305.64 68.1329 305.492 68.1209 305.356 68.0969C305.22 68.0809 305.096 68.0489 304.984 68.0009V66.9809C305.072 67.0449 305.184 67.0929 305.32 67.1249C305.456 67.1649 305.604 67.1849 305.764 67.1849C306.06 67.1849 306.304 67.1129 306.496 66.9689C306.688 66.8329 306.872 66.6129 307.048 66.3089L304.516 59.6609H305.68L307.66 64.9169L309.628 59.6609H310.648L308.32 65.8169ZM313.627 66.0089C313.299 66.0089 313.007 65.9809 312.751 65.9249C312.503 65.8769 312.283 65.8169 312.091 65.7449C311.907 65.6649 311.751 65.5849 311.623 65.5049C311.495 65.4169 311.395 65.3409 311.323 65.2769V64.3289C311.403 64.4089 311.511 64.4969 311.647 64.5929C311.783 64.6809 311.947 64.7649 312.139 64.8449C312.331 64.9249 312.547 64.9929 312.787 65.0489C313.035 65.0969 313.311 65.1209 313.615 65.1209C314.063 65.1209 314.419 65.0489 314.683 64.9049C314.947 64.7609 315.079 64.5169 315.079 64.1729C315.079 63.9889 315.035 63.8409 314.947 63.7289C314.867 63.6169 314.755 63.5289 314.611 63.4649C314.467 63.3929 314.299 63.3369 314.107 63.2969C313.923 63.2569 313.727 63.2169 313.519 63.1769C313.255 63.1209 312.995 63.0609 312.739 62.9969C312.483 62.9249 312.251 62.8249 312.043 62.6969C311.835 62.5609 311.667 62.3889 311.539 62.1809C311.411 61.9649 311.347 61.6849 311.347 61.3409C311.347 60.7809 311.563 60.3409 311.995 60.0209C312.435 59.7009 313.047 59.5409 313.831 59.5409C314.271 59.5409 314.659 59.5849 314.995 59.6729C315.339 59.7609 315.603 59.8569 315.787 59.9609V60.9089C315.579 60.7729 315.319 60.6609 315.007 60.5729C314.703 60.4769 314.323 60.4289 313.867 60.4289C313.395 60.4289 313.031 60.4929 312.775 60.6209C312.527 60.7489 312.403 60.9809 312.403 61.3169C312.403 61.4849 312.439 61.6209 312.511 61.7249C312.583 61.8209 312.679 61.9009 312.799 61.9649C312.927 62.0209 313.071 62.0649 313.231 62.0969C313.391 62.1289 313.559 62.1649 313.735 62.2049C314.007 62.2609 314.287 62.3209 314.575 62.3849C314.863 62.4489 315.119 62.5489 315.343 62.6849C315.575 62.8209 315.763 63.0049 315.907 63.2369C316.059 63.4609 316.135 63.7649 316.135 64.1489C316.135 64.5089 316.063 64.8089 315.919 65.0489C315.775 65.2889 315.583 65.4809 315.343 65.6249C315.111 65.7609 314.843 65.8569 314.539 65.9129C314.243 65.9769 313.939 66.0089 313.627 66.0089ZM320.613 58.7489C320.397 58.7489 320.225 58.6849 320.097 58.5569C319.969 58.4209 319.905 58.2569 319.905 58.0649C319.905 57.8729 319.969 57.7089 320.097 57.5729C320.225 57.4369 320.397 57.3689 320.613 57.3689C320.821 57.3689 320.985 57.4369 321.105 57.5729C321.225 57.7089 321.285 57.8729 321.285 58.0649C321.285 58.2569 321.225 58.4209 321.105 58.5569C320.985 58.6849 320.821 58.7489 320.613 58.7489ZM321.129 59.6609V65.8889H320.073V59.6609H321.129ZM325.802 60.4769C325.322 60.4769 324.93 60.5889 324.626 60.8129C324.33 61.0289 324.09 61.3089 323.906 61.6529V65.8889H322.85V59.6609H323.846L323.882 60.7769H323.906C324.074 60.4169 324.338 60.1209 324.698 59.8889C325.058 59.6569 325.514 59.5409 326.066 59.5409C326.682 59.5409 327.17 59.7049 327.53 60.0329C327.898 60.3529 328.082 60.8489 328.082 61.5209V65.8889H327.026V61.6289C327.026 61.1969 326.918 60.8969 326.702 60.7289C326.486 60.5609 326.186 60.4769 325.802 60.4769ZM336.037 64.7009C335.965 64.8449 335.873 64.9969 335.761 65.1569C335.649 65.3089 335.509 65.4489 335.341 65.5769C335.173 65.7049 334.973 65.8089 334.741 65.8889C334.517 65.9689 334.253 66.0089 333.949 66.0089C333.389 66.0089 332.937 65.8529 332.593 65.5409C332.249 65.2209 332.077 64.7649 332.077 64.1729C332.077 63.4929 332.313 62.9929 332.785 62.6729C333.265 62.3529 333.945 62.1929 334.825 62.1929H335.989V61.6769C335.989 61.2449 335.877 60.9369 335.653 60.7529C335.429 60.5689 335.045 60.4769 334.501 60.4769C334.117 60.4769 333.753 60.5409 333.409 60.6689C333.065 60.7889 332.757 60.9289 332.485 61.0889V60.1409C332.709 60.0049 333.009 59.8729 333.385 59.7449C333.769 59.6089 334.189 59.5409 334.645 59.5409C335.429 59.5409 336.025 59.7049 336.433 60.0329C336.841 60.3529 337.045 60.8529 337.045 61.5329V64.8809C337.045 64.9529 337.045 65.0369 337.045 65.1329C337.053 65.2209 337.057 65.3129 337.057 65.4089C337.065 65.5049 337.073 65.5969 337.081 65.6849C337.089 65.7649 337.097 65.8329 337.105 65.8889H336.145C336.121 65.7769 336.097 65.6209 336.073 65.4209C336.057 65.2129 336.049 65.0329 336.049 64.8809L336.037 64.7009ZM334.177 65.0609C334.505 65.0609 334.785 64.9929 335.017 64.8569C335.249 64.7209 335.437 64.5649 335.581 64.3889C335.725 64.2049 335.829 64.0289 335.893 63.8609C335.957 63.6849 335.989 63.5609 335.989 63.4889V63.0329H334.933C334.301 63.0329 333.841 63.1249 333.553 63.3089C333.273 63.4849 333.133 63.7529 333.133 64.1129C333.133 64.3929 333.217 64.6209 333.385 64.7969C333.553 64.9729 333.817 65.0609 334.177 65.0609ZM239.496 79.8889H238.44V73.6609H239.364L239.472 74.7769H239.496C239.664 74.4249 239.916 74.1329 240.252 73.9009C240.588 73.6609 241.028 73.5409 241.572 73.5409C242.052 73.5409 242.444 73.6569 242.748 73.8889C243.06 74.1129 243.268 74.4529 243.372 74.9089C243.548 74.4849 243.816 74.1529 244.176 73.9129C244.544 73.6649 244.988 73.5409 245.508 73.5409C246.084 73.5409 246.54 73.7049 246.876 74.0329C247.212 74.3529 247.38 74.8489 247.38 75.5209V79.8889H246.312V75.6529C246.312 75.2449 246.212 74.9489 246.012 74.7649C245.812 74.5729 245.54 74.4769 245.196 74.4769C244.964 74.4769 244.76 74.5129 244.584 74.5849C244.408 74.6489 244.252 74.7409 244.116 74.8609C243.98 74.9809 243.856 75.1209 243.744 75.2809C243.632 75.4409 243.528 75.6089 243.432 75.7849V79.8889H242.376V75.5329C242.376 75.1329 242.276 74.8569 242.076 74.7049C241.876 74.5529 241.604 74.4769 241.26 74.4769C241.036 74.4769 240.836 74.5049 240.66 74.5609C240.484 74.6169 240.324 74.6969 240.18 74.8009C240.044 74.9049 239.92 75.0329 239.808 75.1849C239.696 75.3289 239.592 75.4889 239.496 75.6649V79.8889ZM251.59 80.0089C251.166 80.0089 250.77 79.9369 250.402 79.7929C250.034 79.6489 249.714 79.4409 249.442 79.1689C249.178 78.8889 248.97 78.5489 248.818 78.1489C248.666 77.7489 248.59 77.2889 248.59 76.7689C248.59 76.2569 248.666 75.8009 248.818 75.4009C248.97 74.9929 249.178 74.6529 249.442 74.3809C249.714 74.1089 250.034 73.9009 250.402 73.7569C250.77 73.6129 251.166 73.5409 251.59 73.5409C252.022 73.5409 252.422 73.6129 252.79 73.7569C253.158 73.9009 253.474 74.1089 253.738 74.3809C254.01 74.6529 254.222 74.9929 254.374 75.4009C254.534 75.8009 254.614 76.2569 254.614 76.7689C254.614 77.2889 254.534 77.7489 254.374 78.1489C254.222 78.5489 254.01 78.8889 253.738 79.1689C253.474 79.4409 253.158 79.6489 252.79 79.7929C252.422 79.9369 252.022 80.0089 251.59 80.0089ZM251.59 79.0609C251.87 79.0609 252.126 79.0169 252.358 78.9289C252.598 78.8329 252.806 78.6929 252.982 78.5089C253.158 78.3169 253.294 78.0769 253.39 77.7889C253.486 77.5009 253.534 77.1609 253.534 76.7689C253.534 76.3769 253.486 76.0369 253.39 75.7489C253.294 75.4609 253.158 75.2249 252.982 75.0409C252.806 74.8489 252.598 74.7089 252.358 74.6209C252.126 74.5249 251.87 74.4769 251.59 74.4769C251.31 74.4769 251.054 74.5249 250.822 74.6209C250.59 74.7089 250.386 74.8489 250.21 75.0409C250.042 75.2249 249.91 75.4609 249.814 75.7489C249.718 76.0369 249.67 76.3769 249.67 76.7689C249.67 77.1609 249.718 77.5009 249.814 77.7889C249.91 78.0769 250.042 78.3169 250.21 78.5089C250.386 78.6929 250.59 78.8329 250.822 78.9289C251.054 79.0169 251.31 79.0609 251.59 79.0609ZM258.853 74.4769C258.373 74.4769 257.981 74.5889 257.677 74.8129C257.381 75.0289 257.141 75.3089 256.957 75.6529V79.8889H255.901V73.6609H256.897L256.933 74.7769H256.957C257.125 74.4169 257.389 74.1209 257.749 73.8889C258.109 73.6569 258.565 73.5409 259.117 73.5409C259.733 73.5409 260.221 73.7049 260.581 74.0329C260.949 74.3529 261.133 74.8489 261.133 75.5209V79.8889H260.077V75.6289C260.077 75.1969 259.969 74.8969 259.753 74.7289C259.537 74.5609 259.237 74.4769 258.853 74.4769ZM265.851 79.7569C265.723 79.8289 265.559 79.8889 265.359 79.9369C265.159 79.9849 264.947 80.0089 264.723 80.0089C264.419 80.0089 264.159 79.9649 263.943 79.8769C263.735 79.7889 263.563 79.6729 263.427 79.5289C263.291 79.3769 263.191 79.2089 263.127 79.0249C263.071 78.8329 263.043 78.6369 263.043 78.4369V74.5609H262.299V73.6609H263.043V72.3529H264.099V73.6609H265.911V74.5609H264.099V78.3049C264.099 78.5689 264.163 78.7609 264.291 78.8809C264.427 79.0009 264.663 79.0609 264.999 79.0609C265.311 79.0609 265.595 78.9729 265.851 78.7969V79.7569ZM270.209 74.4769C269.729 74.4769 269.337 74.5889 269.033 74.8129C268.737 75.0289 268.497 75.3089 268.313 75.6529V79.8889H267.257V71.2849H268.313V73.6609L268.289 74.7769H268.313C268.481 74.4249 268.745 74.1329 269.105 73.9009C269.465 73.6609 269.921 73.5409 270.473 73.5409C271.089 73.5409 271.577 73.7049 271.937 74.0329C272.305 74.3529 272.489 74.8489 272.489 75.5209V79.8889H271.433V75.6289C271.433 75.1969 271.325 74.8969 271.109 74.7289C270.893 74.5609 270.593 74.4769 270.209 74.4769ZM278.74 81.5569C278.116 80.8449 277.652 80.0329 277.348 79.1209C277.044 78.2009 276.892 77.2289 276.892 76.2049C276.892 75.7009 276.928 75.1969 277 74.6929C277.08 74.1889 277.196 73.7049 277.348 73.2409C277.508 72.7689 277.7 72.3289 277.924 71.9209C278.156 71.5129 278.428 71.1449 278.74 70.8169H279.784C279.456 71.1289 279.176 71.4889 278.944 71.8969C278.712 72.3049 278.516 72.7409 278.356 73.2049C278.204 73.6689 278.092 74.1529 278.02 74.6569C277.948 75.1609 277.912 75.6649 277.912 76.1689C277.912 77.1929 278.06 78.1649 278.356 79.0849C278.66 80.0049 279.136 80.8289 279.784 81.5569H278.74ZM284.122 74.7169C283.674 74.7569 283.266 74.8729 282.898 75.0649C282.538 75.2489 282.27 75.5369 282.094 75.9289V79.8889H281.038V73.6609H281.962L282.07 75.0169H282.094C282.27 74.6489 282.522 74.3289 282.85 74.0569C283.186 73.7769 283.61 73.6049 284.122 73.5409V74.7169ZM290.189 79.3609C290.101 79.4249 289.993 79.4929 289.865 79.5649C289.737 79.6369 289.581 79.7089 289.397 79.7809C289.213 79.8449 289.005 79.8969 288.773 79.9369C288.541 79.9849 288.281 80.0089 287.993 80.0089C286.945 80.0089 286.149 79.7249 285.605 79.1569C285.061 78.5889 284.789 77.7929 284.789 76.7689C284.789 76.2649 284.861 75.8129 285.005 75.4129C285.157 75.0129 285.365 74.6769 285.629 74.4049C285.893 74.1249 286.205 73.9129 286.565 73.7689C286.925 73.6169 287.317 73.5409 287.741 73.5409C288.189 73.5409 288.589 73.6169 288.941 73.7689C289.293 73.9209 289.581 74.1449 289.805 74.4409C290.037 74.7369 290.193 75.1049 290.273 75.5449C290.361 75.9769 290.361 76.4809 290.273 77.0569H285.881C285.921 77.7289 286.121 78.2329 286.481 78.5689C286.841 78.8969 287.377 79.0609 288.089 79.0609C288.569 79.0609 288.981 78.9929 289.325 78.8569C289.669 78.7209 289.957 78.5729 290.189 78.4129V79.3609ZM287.717 74.4769C287.261 74.4769 286.869 74.6169 286.541 74.8969C286.213 75.1769 286.005 75.6009 285.917 76.1689H289.265C289.297 75.5929 289.165 75.1689 288.869 74.8969C288.573 74.6169 288.189 74.4769 287.717 74.4769ZM294.728 80.0089C294.248 80.0089 293.832 79.8969 293.48 79.6729C293.136 79.4489 292.86 79.1409 292.652 78.7489V82.0129H291.596V73.6609H292.52L292.628 74.8729C292.836 74.4649 293.116 74.1409 293.468 73.9009C293.82 73.6609 294.256 73.5409 294.776 73.5409C295.136 73.5409 295.48 73.6089 295.808 73.7449C296.144 73.8729 296.436 74.0729 296.684 74.3449C296.94 74.6089 297.14 74.9449 297.284 75.3529C297.436 75.7529 297.512 76.2249 297.512 76.7689C297.512 77.3209 297.436 77.8009 297.284 78.2089C297.132 78.6089 296.928 78.9449 296.672 79.2169C296.416 79.4809 296.12 79.6809 295.784 79.8169C295.448 79.9449 295.096 80.0089 294.728 80.0089ZM294.572 79.0609C295.124 79.0609 295.568 78.8729 295.904 78.4969C296.248 78.1129 296.42 77.5369 296.42 76.7689C296.42 76.0169 296.248 75.4489 295.904 75.0649C295.568 74.6729 295.124 74.4769 294.572 74.4769C294.3 74.4769 294.044 74.5249 293.804 74.6209C293.572 74.7169 293.368 74.8609 293.192 75.0529C293.024 75.2369 292.888 75.4729 292.784 75.7609C292.688 76.0489 292.64 76.3849 292.64 76.7689C292.64 77.1529 292.688 77.4889 292.784 77.7769C292.888 78.0649 293.024 78.3049 293.192 78.4969C293.368 78.6889 293.572 78.8329 293.804 78.9289C294.044 79.0169 294.3 79.0609 294.572 79.0609ZM301.348 80.0089C300.924 80.0089 300.528 79.9369 300.16 79.7929C299.792 79.6489 299.472 79.4409 299.2 79.1689C298.936 78.8889 298.728 78.5489 298.576 78.1489C298.424 77.7489 298.348 77.2889 298.348 76.7689C298.348 76.2569 298.424 75.8009 298.576 75.4009C298.728 74.9929 298.936 74.6529 299.2 74.3809C299.472 74.1089 299.792 73.9009 300.16 73.7569C300.528 73.6129 300.924 73.5409 301.348 73.5409C301.78 73.5409 302.18 73.6129 302.548 73.7569C302.916 73.9009 303.232 74.1089 303.496 74.3809C303.768 74.6529 303.98 74.9929 304.132 75.4009C304.292 75.8009 304.372 76.2569 304.372 76.7689C304.372 77.2889 304.292 77.7489 304.132 78.1489C303.98 78.5489 303.768 78.8889 303.496 79.1689C303.232 79.4409 302.916 79.6489 302.548 79.7929C302.18 79.9369 301.78 80.0089 301.348 80.0089ZM301.348 79.0609C301.628 79.0609 301.884 79.0169 302.116 78.9289C302.356 78.8329 302.564 78.6929 302.74 78.5089C302.916 78.3169 303.052 78.0769 303.148 77.7889C303.244 77.5009 303.292 77.1609 303.292 76.7689C303.292 76.3769 303.244 76.0369 303.148 75.7489C303.052 75.4609 302.916 75.2249 302.74 75.0409C302.564 74.8489 302.356 74.7089 302.116 74.6209C301.884 74.5249 301.628 74.4769 301.348 74.4769C301.068 74.4769 300.812 74.5249 300.58 74.6209C300.348 74.7089 300.144 74.8489 299.968 75.0409C299.8 75.2249 299.668 75.4609 299.572 75.7489C299.476 76.0369 299.428 76.3769 299.428 76.7689C299.428 77.1609 299.476 77.5009 299.572 77.7889C299.668 78.0769 299.8 78.3169 299.968 78.5089C300.144 78.6929 300.348 78.8329 300.58 78.9289C300.812 79.0169 301.068 79.0609 301.348 79.0609ZM308.743 74.7169C308.295 74.7569 307.887 74.8729 307.519 75.0649C307.159 75.2489 306.891 75.5369 306.715 75.9289V79.8889H305.659V73.6609H306.583L306.691 75.0169H306.715C306.891 74.6489 307.143 74.3289 307.471 74.0569C307.807 73.7769 308.231 73.6049 308.743 73.5409V74.7169ZM313.137 79.7569C313.009 79.8289 312.845 79.8889 312.645 79.9369C312.445 79.9849 312.233 80.0089 312.009 80.0089C311.705 80.0089 311.445 79.9649 311.229 79.8769C311.021 79.7889 310.849 79.6729 310.713 79.5289C310.577 79.3769 310.477 79.2089 310.413 79.0249C310.357 78.8329 310.329 78.6369 310.329 78.4369V74.5609H309.585V73.6609H310.329V72.3529H311.385V73.6609H313.197V74.5609H311.385V78.3049C311.385 78.5689 311.449 78.7609 311.577 78.8809C311.713 79.0009 311.949 79.0609 312.285 79.0609C312.597 79.0609 312.881 78.9729 313.137 78.7969V79.7569ZM315.082 72.7489C314.866 72.7489 314.694 72.6849 314.566 72.5569C314.438 72.4209 314.374 72.2569 314.374 72.0649C314.374 71.8729 314.438 71.7089 314.566 71.5729C314.694 71.4369 314.866 71.3689 315.082 71.3689C315.29 71.3689 315.454 71.4369 315.574 71.5729C315.694 71.7089 315.754 71.8729 315.754 72.0649C315.754 72.2569 315.694 72.4209 315.574 72.5569C315.454 72.6849 315.29 72.7489 315.082 72.7489ZM315.598 73.6609V79.8889H314.542V73.6609H315.598ZM320.271 74.4769C319.791 74.4769 319.399 74.5889 319.095 74.8129C318.799 75.0289 318.559 75.3089 318.375 75.6529V79.8889H317.319V73.6609H318.315L318.351 74.7769H318.375C318.543 74.4169 318.807 74.1209 319.167 73.8889C319.527 73.6569 319.983 73.5409 320.535 73.5409C321.151 73.5409 321.639 73.7049 321.999 74.0329C322.367 74.3529 322.551 74.8489 322.551 75.5209V79.8889H321.495V75.6289C321.495 75.1969 321.387 74.8969 321.171 74.7289C320.955 74.5609 320.655 74.4769 320.271 74.4769ZM329.573 79.3609C329.573 79.7609 329.513 80.1249 329.393 80.4529C329.281 80.7889 329.097 81.0729 328.841 81.3049C328.593 81.5369 328.269 81.7169 327.869 81.8449C327.477 81.9729 327.001 82.0369 326.441 82.0369C326.137 82.0369 325.869 82.0209 325.637 81.9889C325.405 81.9569 325.201 81.9129 325.025 81.8569C324.857 81.8089 324.713 81.7529 324.593 81.6889C324.473 81.6329 324.373 81.5769 324.293 81.5209V80.5729C324.421 80.6449 324.553 80.7089 324.689 80.7649C324.833 80.8289 324.989 80.8849 325.157 80.9329C325.325 80.9809 325.513 81.0169 325.721 81.0409C325.937 81.0729 326.181 81.0889 326.453 81.0889C327.221 81.0889 327.757 80.9449 328.061 80.6569C328.365 80.3689 328.517 79.9409 328.517 79.3729V78.4129C328.333 78.7809 328.073 79.0769 327.737 79.3009C327.409 79.5249 327.001 79.6369 326.513 79.6369C326.145 79.6369 325.793 79.5729 325.457 79.4449C325.129 79.3169 324.837 79.1289 324.581 78.8809C324.333 78.6249 324.133 78.3089 323.981 77.9329C323.837 77.5489 323.765 77.1049 323.765 76.6009C323.765 76.0889 323.837 75.6449 323.981 75.2689C324.133 74.8849 324.333 74.5649 324.581 74.3089C324.837 74.0529 325.133 73.8609 325.469 73.7329C325.805 73.6049 326.161 73.5409 326.537 73.5409C327.033 73.5409 327.449 73.6529 327.785 73.8769C328.129 74.1009 328.397 74.4049 328.589 74.7889L328.601 74.6569C328.601 74.5129 328.609 74.3409 328.625 74.1409C328.641 73.9329 328.657 73.7729 328.673 73.6609H329.633C329.617 73.7729 329.601 73.9329 329.585 74.1409C329.577 74.3489 329.573 74.5209 329.573 74.6569V79.3609ZM326.705 78.6889C326.969 78.6889 327.209 78.6489 327.425 78.5689C327.649 78.4809 327.841 78.3489 328.001 78.1729C328.169 77.9969 328.297 77.7809 328.385 77.5249C328.481 77.2609 328.529 76.9529 328.529 76.6009C328.529 75.8889 328.353 75.3569 328.001 75.0049C327.657 74.6529 327.221 74.4769 326.693 74.4769C326.429 74.4769 326.181 74.5209 325.949 74.6089C325.725 74.6969 325.529 74.8289 325.361 75.0049C325.201 75.1809 325.073 75.4049 324.977 75.6769C324.881 75.9409 324.833 76.2489 324.833 76.6009C324.833 76.9529 324.881 77.2609 324.977 77.5249C325.073 77.7809 325.205 77.9969 325.373 78.1729C325.541 78.3409 325.737 78.4689 325.961 78.5569C326.193 78.6449 326.441 78.6889 326.705 78.6889ZM268.49 94.0089C268.01 94.0089 267.594 93.8969 267.242 93.6729C266.898 93.4489 266.622 93.1409 266.414 92.7489V96.0129H265.358V87.6609H266.282L266.39 88.8729C266.598 88.4649 266.878 88.1409 267.23 87.9009C267.582 87.6609 268.018 87.5409 268.538 87.5409C268.898 87.5409 269.242 87.6089 269.57 87.7449C269.906 87.8729 270.198 88.0729 270.446 88.3449C270.702 88.6089 270.902 88.9449 271.046 89.3529C271.198 89.7529 271.274 90.2249 271.274 90.7689C271.274 91.3209 271.198 91.8009 271.046 92.2089C270.894 92.6089 270.69 92.9449 270.434 93.2169C270.178 93.4809 269.882 93.6809 269.546 93.8169C269.21 93.9449 268.858 94.0089 268.49 94.0089ZM268.334 93.0609C268.886 93.0609 269.33 92.8729 269.666 92.4969C270.01 92.1129 270.182 91.5369 270.182 90.7689C270.182 90.0169 270.01 89.4489 269.666 89.0649C269.33 88.6729 268.886 88.4769 268.334 88.4769C268.062 88.4769 267.806 88.5249 267.566 88.6209C267.334 88.7169 267.13 88.8609 266.954 89.0529C266.786 89.2369 266.65 89.4729 266.546 89.7609C266.45 90.0489 266.402 90.3849 266.402 90.7689C266.402 91.1529 266.45 91.4889 266.546 91.7769C266.65 92.0649 266.786 92.3049 266.954 92.4969C267.13 92.6889 267.334 92.8329 267.566 92.9289C267.806 93.0169 268.062 93.0609 268.334 93.0609ZM277.509 93.3609C277.421 93.4249 277.313 93.4929 277.185 93.5649C277.057 93.6369 276.901 93.7089 276.717 93.7809C276.533 93.8449 276.325 93.8969 276.093 93.9369C275.861 93.9849 275.601 94.0089 275.313 94.0089C274.265 94.0089 273.469 93.7249 272.925 93.1569C272.381 92.5889 272.109 91.7929 272.109 90.7689C272.109 90.2649 272.181 89.8129 272.325 89.4129C272.477 89.0129 272.685 88.6769 272.949 88.4049C273.213 88.1249 273.525 87.9129 273.885 87.7689C274.245 87.6169 274.637 87.5409 275.061 87.5409C275.509 87.5409 275.909 87.6169 276.261 87.7689C276.613 87.9209 276.901 88.1449 277.125 88.4409C277.357 88.7369 277.513 89.1049 277.593 89.5449C277.681 89.9769 277.681 90.4809 277.593 91.0569H273.201C273.241 91.7289 273.441 92.2329 273.801 92.5689C274.161 92.8969 274.697 93.0609 275.409 93.0609C275.889 93.0609 276.301 92.9929 276.645 92.8569C276.989 92.7209 277.277 92.5729 277.509 92.4129V93.3609ZM275.037 88.4769C274.581 88.4769 274.189 88.6169 273.861 88.8969C273.533 89.1769 273.325 89.6009 273.237 90.1689H276.585C276.617 89.5929 276.485 89.1689 276.189 88.8969C275.893 88.6169 275.509 88.4769 275.037 88.4769ZM282.001 88.7169C281.553 88.7569 281.145 88.8729 280.777 89.0649C280.417 89.2489 280.149 89.5369 279.973 89.9289V93.8889H278.917V87.6609H279.841L279.949 89.0169H279.973C280.149 88.6489 280.401 88.3289 280.729 88.0569C281.065 87.7769 281.489 87.6049 282.001 87.5409V88.7169ZM283.828 86.7489C283.612 86.7489 283.44 86.6849 283.312 86.5569C283.184 86.4209 283.12 86.2569 283.12 86.0649C283.12 85.8729 283.184 85.7089 283.312 85.5729C283.44 85.4369 283.612 85.3689 283.828 85.3689C284.036 85.3689 284.2 85.4369 284.32 85.5729C284.44 85.7089 284.5 85.8729 284.5 86.0649C284.5 86.2569 284.44 86.4209 284.32 86.5569C284.2 86.6849 284.036 86.7489 283.828 86.7489ZM284.344 87.6609V93.8889H283.288V87.6609H284.344ZM288.621 94.0089C288.197 94.0089 287.801 93.9369 287.433 93.7929C287.065 93.6489 286.745 93.4409 286.473 93.1689C286.209 92.8889 286.001 92.5489 285.849 92.1489C285.697 91.7489 285.621 91.2889 285.621 90.7689C285.621 90.2569 285.697 89.8009 285.849 89.4009C286.001 88.9929 286.209 88.6529 286.473 88.3809C286.745 88.1089 287.065 87.9009 287.433 87.7569C287.801 87.6129 288.197 87.5409 288.621 87.5409C289.053 87.5409 289.453 87.6129 289.821 87.7569C290.189 87.9009 290.505 88.1089 290.769 88.3809C291.041 88.6529 291.253 88.9929 291.405 89.4009C291.565 89.8009 291.645 90.2569 291.645 90.7689C291.645 91.2889 291.565 91.7489 291.405 92.1489C291.253 92.5489 291.041 92.8889 290.769 93.1689C290.505 93.4409 290.189 93.6489 289.821 93.7929C289.453 93.9369 289.053 94.0089 288.621 94.0089ZM288.621 93.0609C288.901 93.0609 289.157 93.0169 289.389 92.9289C289.629 92.8329 289.837 92.6929 290.013 92.5089C290.189 92.3169 290.325 92.0769 290.421 91.7889C290.517 91.5009 290.565 91.1609 290.565 90.7689C290.565 90.3769 290.517 90.0369 290.421 89.7489C290.325 89.4609 290.189 89.2249 290.013 89.0409C289.837 88.8489 289.629 88.7089 289.389 88.6209C289.157 88.5249 288.901 88.4769 288.621 88.4769C288.341 88.4769 288.085 88.5249 287.853 88.6209C287.621 88.7089 287.417 88.8489 287.241 89.0409C287.073 89.2249 286.941 89.4609 286.845 89.7489C286.749 90.0369 286.701 90.3769 286.701 90.7689C286.701 91.1609 286.749 91.5009 286.845 91.7889C286.941 92.0769 287.073 92.3169 287.241 92.5089C287.417 92.6929 287.621 92.8329 287.853 92.9289C288.085 93.0169 288.341 93.0609 288.621 93.0609ZM297.396 92.6649C297.204 93.0729 296.936 93.4009 296.592 93.6489C296.248 93.8889 295.812 94.0089 295.284 94.0089C294.908 94.0089 294.552 93.9449 294.216 93.8169C293.88 93.6809 293.584 93.4809 293.328 93.2169C293.072 92.9449 292.868 92.6089 292.716 92.2089C292.564 91.8009 292.488 91.3209 292.488 90.7689C292.488 90.2249 292.564 89.7529 292.716 89.3529C292.868 88.9449 293.072 88.6089 293.328 88.3449C293.584 88.0729 293.88 87.8729 294.216 87.7449C294.56 87.6089 294.92 87.5409 295.296 87.5409C295.768 87.5409 296.176 87.6409 296.52 87.8409C296.864 88.0329 297.14 88.3089 297.348 88.6689V85.2849H298.404V93.8889H297.48L297.396 92.6649ZM295.44 93.0609C295.712 93.0609 295.964 93.0169 296.196 92.9289C296.428 92.8329 296.628 92.6889 296.796 92.4969C296.972 92.3049 297.108 92.0649 297.204 91.7769C297.308 91.4889 297.36 91.1529 297.36 90.7689C297.36 90.3849 297.308 90.0489 297.204 89.7609C297.108 89.4729 296.972 89.2329 296.796 89.0409C296.628 88.8489 296.428 88.7089 296.196 88.6209C295.964 88.5249 295.712 88.4769 295.44 88.4769C294.888 88.4769 294.436 88.6729 294.084 89.0649C293.74 89.4489 293.568 90.0169 293.568 90.7689C293.568 91.5289 293.744 92.1009 294.096 92.4849C294.448 92.8689 294.896 93.0609 295.44 93.0609ZM300.704 95.5569C301.328 94.8449 301.792 94.0329 302.096 93.1209C302.4 92.2009 302.552 91.2289 302.552 90.2049C302.552 89.7009 302.512 89.1969 302.432 88.6929C302.36 88.1889 302.244 87.7049 302.084 87.2409C301.932 86.7689 301.74 86.3289 301.508 85.9209C301.284 85.5129 301.016 85.1449 300.704 84.8169H299.66C299.988 85.1289 300.268 85.4889 300.5 85.8969C300.732 86.3049 300.924 86.7409 301.076 87.2049C301.236 87.6689 301.352 88.1529 301.424 88.6569C301.496 89.1609 301.532 89.6649 301.532 90.1689C301.532 91.1929 301.38 92.1649 301.076 93.0849C300.78 94.0049 300.308 94.8289 299.66 95.5569H300.704Z" fill="#18123D"/>
<path d="M199.394 81.168L195.002 76.776L190.634 81.168L189.65 80.208L194.042 75.816L189.722 71.496L190.682 70.536L195.002 74.856L199.322 70.536L200.282 71.496L195.962 75.816L200.354 80.184L199.394 81.168Z" fill="#18123D"/>
<path d="M383.422 74.184V72.888H394.534V74.184H383.422ZM383.422 78.936V77.64H394.534V78.936H383.422Z" fill="#18123D"/>
<defs>
<filter id="filter0_d" x="10" y="10" width="370" height="130" filterUnits="userSpaceOnUse" color-interpolation-filters="sRGB">
<feFlood flood-opacity="0" result="BackgroundImageFix"/>
<feColorMatrix in="SourceAlpha" type="matrix" values="0 0 0 0 0 0 0 0 0 0 0 0 0 0 0 0 0 0 127 0"/>
<feOffset/>
<feGaussianBlur stdDeviation="7.5"/>
<feColorMatrix type="matrix" values="0 0 0 0 0.592157 0 0 0 0 0.74902 0 0 0 0 0.905882 0 0 0 0.4 0"/>
<feBlend mode="normal" in2="BackgroundImageFix" result="effect1_dropShadow"/>
<feBlend mode="normal" in="SourceGraphic" in2="effect1_dropShadow" result="shape"/>
</filter>
</defs>
</svg>
