<svg xmlns="http://www.w3.org/2000/svg" width="16" height="16" fill="none"><g stroke="#000" stroke-linecap="round" stroke-linejoin="round" stroke-miterlimit="10" stroke-width="1.5" clip-path="url(#a)"><path d="M15 5.55v7.41c0 1.13-1.08 2.02-2.21 2.02H3.05c-1.13 0-2.05-.92-2.05-2.05l.02-9.87c0-1.13.92-2.05 2.05-2.05h7.58c.29 0 .57.12.78.32l3.25 3.43c.2.22.32.5.32.79Z"/><path d="M5 1v3.01c0 .55.44.99.99.99H10M11 15v-4c0-.93-.68-1.5-1.66-1.5H6.66C5.68 9.5 5 10.07 5 11v4"/></g><defs><clipPath id="a"><path fill="#fff" d="M0 0h16v16H0z"/></clipPath></defs></svg>