<svg xmlns="http://www.w3.org/2000/svg" xmlns:xlink="http://www.w3.org/1999/xlink" width="14" height="14" class="yc-icon" fill="currentColor" stroke="none" aria-hidden="true"><svg xmlns="http://www.w3.org/2000/svg" viewBox="0 0 512 512"><path d="M367.968 103.996a39.999 39.999 0 1 0 40.004 40 40.03 40.03 0 0 0-40.004-40Zm137.105-84.654C503.855 13.734 498.323 8.203 492.73 7c-32.63-7-58.162-7-83.57-7C305.4 0 242.958 55.092 196.235 127.996H94.82c-16.346.016-35.533 11.875-42.879 26.483l-49.41 98.81A28.125 28.125 0 0 0 0 263.992a24.006 24.006 0 0 0 24.002 23.998h92.633l-10.594 21.422c-9.336 18.91 4.277 34.774 6.156 36.623l53.754 53.719c15.564 15.545 33.816 7.53 36.66 6.139l21.346-10.577V488a24.007 24.007 0 0 0 24.002 24 28.618 28.618 0 0 0 10.718-2.516l98.697-49.404c14.625-7.297 26.502-26.5 26.502-42.86V315.694c72.725-46.763 128.106-109.449 128.106-212.697.093-25.53.093-50.998-6.909-83.654ZM358.531 274.99c-36.942 18.485-121.106 60.14-166.797 82.733l-37.502-37.498c22.596-45.688 64.256-129.996 82.725-166.887 47.38-73.809 99.01-105.34 172.202-105.34 18.002 0 34.286 0 52.567 2.344 2.375 18.719 2.312 35.28 2.25 52.638 0 72.78-31.565 124.325-105.445 172.01Z"></path></svg></svg>