<svg xmlns="http://www.w3.org/2000/svg" width="331" height="423" fill="none">
    <path stroke="#4E496B" stroke-miterlimit="10" stroke-width="2" d="M253.6 364.6H77.2c-3.3 0-6 2.7-6 6v13.8m182.4-19.8c3.3 0 6-2.7 6-6v-82.8m-6.1-141.3c3.3 0 6-2.7 6-6v-9.2m-6 15.2H77.3c-3.3 0-6 2.7-6 6v13.8m188.2-35V155"/>
    <path fill="#4E496B" d="M264.5 125h-9.8l4.9-8.5 4.9 8.5Z"/>
    <path stroke="#4E496B" stroke-miterlimit="10" stroke-width="2" d="M253.5 58c3.3 0 6-2.7 6-6v-9.2m-6 15.2H77.3c-3.3 0-6 2.7-6 6v13.8m188.2-35.1v35.7"/>
    <path fill="#4E496B" d="M264.5 48.4h-9.8l4.9-8.4 4.9 8.4Z"/>
    <path fill="#fff" stroke="#67B0F8" stroke-width="2" d="M194.9 1h130c2.2 0 4 1.8 4 4v30c0 2.2-1.8 4-4 4h-130c-2.2 0-4-1.8-4-4V5c0-2.2 1.8-4 4-4Z"/>
    <path fill="#18123D" d="M207.456 8.976a3.789 3.789 0 0 0-1.428.406c-.42.215-.732.551-.938 1.008v4.62h-1.232V7.746h1.078l.126 1.581h.028c.206-.429.5-.802.882-1.12.392-.326.887-.527 1.484-.601v1.371Zm7.079 5.418a3.979 3.979 0 0 1-.924.49 4.604 4.604 0 0 1-.728.182 4.51 4.51 0 0 1-.91.084c-1.223 0-2.151-.33-2.786-.994-.635-.662-.952-1.59-.952-2.786 0-.587.084-1.115.252-1.581.177-.467.42-.86.728-1.176a3.028 3.028 0 0 1 1.092-.742 3.49 3.49 0 0 1 1.372-.267 3.5 3.5 0 0 1 1.4.266 2.46 2.46 0 0 1 1.008.785c.271.345.453.774.546 1.288.103.504.103 1.091 0 1.764h-5.124c.047.784.28 1.371.7 1.763.42.383 1.045.574 1.876.574.56 0 1.041-.079 1.442-.238a5.07 5.07 0 0 0 1.008-.517v1.106Zm-2.884-5.697c-.532 0-.989.163-1.372.49-.383.326-.625.82-.728 1.484h3.906c.037-.672-.117-1.167-.462-1.484-.345-.327-.793-.49-1.344-.49Zm6.85 6.454c-.383 0-.724-.033-1.022-.098a4.78 4.78 0 0 1-.77-.21 4.152 4.152 0 0 1-.546-.28 3.603 3.603 0 0 1-.35-.267v-1.105c.093.093.219.195.378.307.158.103.35.201.574.295.224.093.476.172.756.238.289.055.611.083.966.083.522 0 .938-.084 1.246-.252.308-.168.462-.452.462-.854 0-.214-.052-.387-.154-.517a.939.939 0 0 0-.392-.309 2.416 2.416 0 0 0-.588-.196 30.242 30.242 0 0 0-.686-.14 25.487 25.487 0 0 1-.91-.21c-.299-.083-.57-.2-.812-.35a1.898 1.898 0 0 1-.588-.601c-.15-.253-.224-.58-.224-.98 0-.654.252-1.167.756-1.54.513-.374 1.227-.56 2.142-.56.513 0 .966.05 1.358.153.401.103.709.215.924.337V9.2a3.3 3.3 0 0 0-.91-.391c-.355-.112-.798-.168-1.33-.168-.551 0-.976.074-1.274.223-.29.15-.434.42-.434.813a.82.82 0 0 0 .126.476 1 1 0 0 0 .336.28c.149.065.317.116.504.153.186.038.382.08.588.127.317.065.644.135.98.21a2.9 2.9 0 0 1 .896.35c.27.158.49.373.658.643.177.262.266.617.266 1.064 0 .42-.084.77-.252 1.05a1.93 1.93 0 0 1-.672.673c-.271.158-.584.27-.938.336-.346.074-.7.111-1.064.111Zm7.425 0c-.494 0-.956-.085-1.386-.252a3.238 3.238 0 0 1-1.12-.728 3.558 3.558 0 0 1-.728-1.19c-.177-.467-.266-1.004-.266-1.61 0-.598.089-1.13.266-1.597.178-.475.42-.872.728-1.19.318-.317.691-.56 1.12-.728.43-.167.892-.252 1.386-.252.504 0 .971.085 1.4.252.43.168.798.411 1.106.729.318.317.565.713.742 1.19.187.466.28.998.28 1.595 0 .607-.093 1.144-.28 1.61a3.418 3.418 0 0 1-.742 1.19c-.308.318-.676.56-1.106.729a3.807 3.807 0 0 1-1.4.252Zm0-1.107c.327 0 .626-.05.896-.154a2.04 2.04 0 0 0 .728-.49 2.29 2.29 0 0 0 .476-.84c.112-.335.168-.732.168-1.19a3.78 3.78 0 0 0-.168-1.19 2.155 2.155 0 0 0-.476-.825 1.828 1.828 0 0 0-.728-.49 2.318 2.318 0 0 0-.896-.168c-.326 0-.625.056-.896.168a1.86 1.86 0 0 0-.714.49 2.27 2.27 0 0 0-.462.825 3.774 3.774 0 0 0-.168 1.19c0 .458.056.855.168 1.19.112.336.266.617.462.84.206.215.444.378.714.49.271.103.57.154.896.154Zm9.692-.335c-.196.41-.499.755-.91 1.036-.401.27-.929.405-1.582.405-.672 0-1.218-.186-1.638-.56-.411-.382-.616-.97-.616-1.764V7.744h1.246v5.082c0 .243.033.444.098.602a1.041 1.041 0 0 0 .714.56c.168.038.35.056.546.056.541 0 .975-.12 1.302-.364a3.06 3.06 0 0 0 .84-.993V7.745h1.232v7.266h-1.092l-.112-1.302h-.028Zm6.852-4.732a3.778 3.778 0 0 0-1.428.405c-.42.215-.733.551-.938 1.008v4.62h-1.232V7.746h1.078l.126 1.581h.028c.205-.429.499-.802.882-1.12.392-.326.887-.527 1.484-.601v1.371Zm4.433 6.173c-.56 0-1.069-.084-1.526-.252a3.335 3.335 0 0 1-1.148-.742 3.263 3.263 0 0 1-.728-1.19c-.168-.466-.252-.998-.252-1.595 0-.588.084-1.116.252-1.582a3.26 3.26 0 0 1 .742-1.176 3.061 3.061 0 0 1 1.162-.742 4.27 4.27 0 0 1 1.554-.267c.448 0 .858.052 1.232.154.373.094.681.234.924.42v1.106a3.271 3.271 0 0 0-1.008-.434 4.157 4.157 0 0 0-1.134-.153c-.85 0-1.475.219-1.876.658-.392.438-.588 1.11-.588 2.015 0 .906.191 1.578.574 2.017.382.438.989.657 1.82.657.438 0 .84-.05 1.204-.154a4.969 4.969 0 0 0 1.008-.42v1.106a4.29 4.29 0 0 1-2.212.574Zm9.495-.755a3.738 3.738 0 0 1-.378.238 4.34 4.34 0 0 1-.546.252 4.576 4.576 0 0 1-.728.181c-.27.056-.574.084-.91.084-1.222 0-2.151-.33-2.786-.994-.634-.662-.952-1.59-.952-2.786 0-.587.084-1.115.252-1.581.178-.467.42-.86.728-1.176a3.028 3.028 0 0 1 1.092-.742c.42-.178.878-.267 1.372-.267.523 0 .99.09 1.4.266a2.46 2.46 0 0 1 1.008.785c.271.345.453.774.546 1.288.103.504.103 1.091 0 1.764h-5.124c.047.784.28 1.371.7 1.763.42.383 1.046.574 1.876.574.56 0 1.041-.079 1.442-.238a5.015 5.015 0 0 0 1.008-.517v1.106Zm-2.884-5.698c-.532 0-.989.163-1.372.49-.382.326-.625.82-.728 1.484h3.906c.038-.672-.116-1.167-.462-1.484-.345-.327-.793-.49-1.344-.49Zm4.358 1.484h3.36v1.12h-3.36v-1.12Zm6.445 4.83h-1.232V7.745h1.078l.126 1.301h.028c.196-.41.49-.75.882-1.021.392-.28.905-.42 1.54-.42.56 0 1.017.135 1.372.405.364.262.607.659.728 1.19.205-.494.518-.881.938-1.161.429-.29.947-.434 1.554-.434.672 0 1.204.19 1.596.573.392.374.588.952.588 1.736v5.097h-1.246v-4.942c0-.477-.117-.822-.35-1.037-.233-.223-.551-.335-.952-.335-.271 0-.509.042-.714.126a1.696 1.696 0 0 0-.546.322 2.76 2.76 0 0 0-.434.49 6.144 6.144 0 0 0-.364.588v4.787h-1.232V9.928c0-.466-.117-.788-.35-.966-.233-.177-.551-.265-.952-.265-.261 0-.495.032-.7.098a1.973 1.973 0 0 0-.56.28c-.159.12-.303.27-.434.448a4.103 4.103 0 0 0-.364.56v4.928Zm15.383-1.386a4.219 4.219 0 0 1-.322.531 2.419 2.419 0 0 1-1.19.854 2.73 2.73 0 0 1-.924.14c-.653 0-1.18-.181-1.582-.546-.401-.373-.602-.905-.602-1.595 0-.794.276-1.377.826-1.75.56-.374 1.354-.56 2.38-.56h1.358v-.602c0-.505-.13-.864-.392-1.079-.261-.214-.709-.322-1.344-.322-.448 0-.872.075-1.274.225a6.09 6.09 0 0 0-1.078.49V8.305a5.48 5.48 0 0 1 1.05-.462 4.375 4.375 0 0 1 1.47-.239c.915 0 1.61.192 2.086.574.476.374.714.957.714 1.75v4.202c.01.102.014.21.014.322l.028.322c.01.093.019.172.028.238h-1.12a6.4 6.4 0 0 1-.084-.546 8.74 8.74 0 0 1-.028-.63l-.014-.21Zm-2.17.42c.383 0 .71-.08.98-.239.271-.158.49-.34.658-.545.168-.215.29-.42.364-.616.075-.206.112-.35.112-.434v-.533h-1.232c-.737 0-1.274.108-1.61.322-.326.206-.49.518-.49.938 0 .327.098.593.294.798.196.206.504.308.924.308Zm8.728-5.348c-.56 0-1.018.13-1.372.392a2.85 2.85 0 0 0-.84.98v4.941h-1.232V7.746h1.162l.042 1.301h.028c.196-.42.504-.765.924-1.035.42-.271.952-.406 1.596-.406.718 0 1.288.19 1.708.573.429.374.644.952.644 1.736v5.097h-1.232v-4.97c0-.505-.126-.854-.378-1.05-.252-.197-.602-.294-1.05-.294Zm8.864 4.928a4.219 4.219 0 0 1-.322.531 2.419 2.419 0 0 1-1.19.854 2.73 2.73 0 0 1-.924.14c-.653 0-1.18-.181-1.582-.546-.401-.373-.602-.905-.602-1.595 0-.794.276-1.377.826-1.75.56-.374 1.354-.56 2.38-.56h1.358v-.602c0-.505-.13-.864-.392-1.079-.261-.214-.709-.322-1.344-.322-.448 0-.872.075-1.274.225a6.09 6.09 0 0 0-1.078.49V8.305a5.48 5.48 0 0 1 1.05-.462 4.375 4.375 0 0 1 1.47-.239c.915 0 1.61.192 2.086.574.476.374.714.957.714 1.75v4.202c.01.102.014.21.014.322l.028.322c.01.093.019.172.028.238h-1.12a6.4 6.4 0 0 1-.084-.546 8.74 8.74 0 0 1-.028-.63l-.014-.21Zm-2.17.42c.383 0 .71-.08.98-.239.271-.158.49-.34.658-.545.168-.215.29-.42.364-.616.075-.206.112-.35.112-.434v-.533h-1.232c-.737 0-1.274.108-1.61.322-.326.206-.49.518-.49.938 0 .327.098.593.294.798.196.206.504.308.924.308Zm11.527.35c0 .466-.07.89-.21 1.274a2.29 2.29 0 0 1-.644.994c-.289.27-.667.48-1.134.63-.457.149-1.012.224-1.666.224-.354 0-.667-.02-.938-.056a4.345 4.345 0 0 1-.714-.154 2.58 2.58 0 0 1-.504-.197 2.377 2.377 0 0 1-.35-.195v-1.106c.15.084.304.158.462.223.168.075.35.14.546.197.196.056.416.098.658.126.252.037.537.055.854.055.896 0 1.522-.168 1.876-.504.355-.336.532-.835.532-1.498v-1.12a2.64 2.64 0 0 1-.91 1.037c-.382.26-.858.392-1.428.392a3.42 3.42 0 0 1-1.232-.225 3.058 3.058 0 0 1-1.022-.658 3.414 3.414 0 0 1-.7-1.105c-.168-.448-.252-.966-.252-1.554 0-.598.084-1.116.252-1.555.178-.447.411-.82.7-1.12a2.923 2.923 0 0 1 1.036-.671c.392-.15.808-.224 1.246-.224.579 0 1.064.13 1.456.391.402.262.714.617.938 1.064l.014-.154c0-.168.01-.368.028-.601.019-.243.038-.43.056-.56h1.12c-.018.13-.037.317-.056.56a16.97 16.97 0 0 0-.014.601v5.489Zm-3.346-.784c.308 0 .588-.047.84-.14a1.76 1.76 0 0 0 .672-.463c.196-.205.346-.457.448-.755a3.15 3.15 0 0 0 .168-1.079c0-.83-.205-1.45-.616-1.861-.401-.411-.91-.617-1.526-.617-.308 0-.597.052-.868.155a1.9 1.9 0 0 0-.686.461 2.285 2.285 0 0 0-.448.785 3.15 3.15 0 0 0-.168 1.078c0 .41.056.77.168 1.077.112.3.266.551.462.756.196.197.425.346.686.449.271.102.56.153.868.153Zm11.129.784a3.979 3.979 0 0 1-.924.49 4.632 4.632 0 0 1-.728.181 4.51 4.51 0 0 1-.91.084c-1.223 0-2.152-.33-2.786-.994-.635-.662-.952-1.59-.952-2.786 0-.587.084-1.115.252-1.581.177-.467.42-.86.728-1.176a3.028 3.028 0 0 1 1.092-.742 3.49 3.49 0 0 1 1.372-.267c.522 0 .989.09 1.4.266.41.178.746.44 1.008.785.27.345.452.774.546 1.288.102.504.102 1.091 0 1.764h-5.124c.046.784.28 1.371.7 1.763.42.383 1.045.574 1.876.574.56 0 1.04-.079 1.442-.238a5.07 5.07 0 0 0 1.008-.517v1.106Zm-2.884-5.698c-.532 0-.99.163-1.372.49-.383.326-.626.82-.728 1.484h3.906c.037-.672-.117-1.167-.462-1.484-.346-.327-.794-.49-1.344-.49Zm8.123.28a3.789 3.789 0 0 0-1.428.405c-.42.215-.732.551-.938 1.008v4.62h-1.232V7.746h1.078l.126 1.581h.028c.206-.429.5-.802.882-1.12.392-.326.887-.527 1.484-.601v1.371Zm1.34 6.117c-.271 0-.49-.083-.658-.252a.885.885 0 0 1-.252-.63.87.87 0 0 1 .252-.643c.168-.169.387-.253.658-.253.261 0 .476.084.644.252a.872.872 0 0 1 .252.645.885.885 0 0 1-.252.63.873.873 0 0 1-.644.252Zm-94.9 16.056c-.56 0-1.069-.083-1.526-.252a3.335 3.335 0 0 1-1.148-.741 3.263 3.263 0 0 1-.728-1.19c-.168-.467-.252-1-.252-1.596 0-.588.084-1.116.252-1.582.177-.467.424-.86.742-1.177a3.06 3.06 0 0 1 1.162-.741 4.27 4.27 0 0 1 1.554-.266c.448 0 .858.05 1.232.154.373.093.681.233.924.42v1.106a3.27 3.27 0 0 0-1.008-.434 4.156 4.156 0 0 0-1.134-.154c-.85 0-1.475.219-1.876.658-.392.438-.588 1.11-.588 2.015 0 .906.191 1.578.574 2.017.382.438.989.657 1.82.657.438 0 .84-.05 1.204-.154a4.969 4.969 0 0 0 1.008-.42v1.107a4.29 4.29 0 0 1-2.212.574Zm4.945-10.177V31.01h-1.232V20.973h1.232Zm4.991 10.178c-.495 0-.957-.084-1.386-.253a3.22 3.22 0 0 1-1.12-.727 3.542 3.542 0 0 1-.728-1.19c-.178-.467-.266-1.004-.266-1.61 0-.598.088-1.13.266-1.596.177-.476.42-.873.728-1.19a3.22 3.22 0 0 1 1.12-.729 3.767 3.767 0 0 1 1.386-.252c.504 0 .97.085 1.4.253.429.168.798.41 1.106.727.317.318.564.715.742 1.19.186.467.28 1 .28 1.596 0 .607-.094 1.144-.28 1.61a3.448 3.448 0 0 1-.742 1.19c-.308.318-.677.56-1.106.728-.43.169-.896.253-1.4.253Zm0-1.107c.326 0 .625-.05.896-.154.28-.111.522-.275.728-.49.205-.223.364-.503.476-.84.112-.335.168-.732.168-1.19 0-.457-.056-.854-.168-1.19a2.168 2.168 0 0 0-.476-.825 1.835 1.835 0 0 0-.728-.49 2.325 2.325 0 0 0-.896-.168c-.327 0-.626.056-.896.168a1.845 1.845 0 0 0-.714.49 2.27 2.27 0 0 0-.462.825 3.774 3.774 0 0 0-.168 1.19c0 .458.056.854.168 1.19.112.337.266.617.462.84.205.215.443.379.714.49.27.103.569.154.896.154Zm9.691-.335c-.196.41-.499.756-.91 1.035-.401.271-.928.407-1.582.407-.672 0-1.218-.187-1.638-.56-.41-.383-.616-.971-.616-1.765v-5.082h1.246v5.082c0 .243.033.444.098.602a1.032 1.032 0 0 0 .714.56c.168.038.35.056.546.056.542 0 .976-.12 1.302-.364a3.06 3.06 0 0 0 .84-.994v-4.942h1.232v7.267h-1.092l-.112-1.302h-.028Zm8.462-.127a2.91 2.91 0 0 1-.938 1.148c-.401.28-.91.42-1.526.42a3.48 3.48 0 0 1-1.246-.223 2.997 2.997 0 0 1-1.036-.7 3.532 3.532 0 0 1-.714-1.177c-.177-.476-.266-1.035-.266-1.68 0-.634.089-1.185.266-1.652a3.35 3.35 0 0 1 .714-1.175 2.76 2.76 0 0 1 1.036-.7 3.4 3.4 0 0 1 1.26-.238c.551 0 1.027.116 1.428.35.402.224.724.546.966.966v-3.948h1.232V31.01h-1.078l-.098-1.428Zm-2.282.462c.318 0 .612-.05.882-.154.271-.111.504-.28.7-.503a2.29 2.29 0 0 0 .476-.84c.122-.337.182-.729.182-1.177 0-.448-.06-.84-.182-1.175a2.29 2.29 0 0 0-.476-.84 1.736 1.736 0 0 0-.7-.49 2.28 2.28 0 0 0-.882-.168c-.644 0-1.171.228-1.582.686-.401.448-.602 1.11-.602 1.988 0 .886.206 1.553.616 2.002.411.447.934.671 1.568.671Zm7.793 1.107c-.383 0-.724-.033-1.022-.099a4.78 4.78 0 0 1-.77-.21 4.152 4.152 0 0 1-.546-.28 3.603 3.603 0 0 1-.35-.265V29.19c.093.094.219.197.378.308.158.103.35.201.574.294.224.094.476.173.756.238.289.056.611.084.966.084.522 0 .938-.084 1.246-.252.308-.167.462-.452.462-.853 0-.215-.052-.388-.154-.518a.939.939 0 0 0-.392-.308 2.416 2.416 0 0 0-.588-.197 30.242 30.242 0 0 0-.686-.14 25.487 25.487 0 0 1-.91-.21c-.299-.084-.57-.2-.812-.35a1.898 1.898 0 0 1-.588-.602c-.15-.252-.224-.578-.224-.98 0-.653.252-1.166.756-1.54.513-.373 1.227-.56 2.142-.56.513 0 .966.052 1.358.155.401.102.709.214.924.335v1.107a3.3 3.3 0 0 0-.91-.393c-.355-.111-.798-.168-1.33-.168-.551 0-.976.075-1.274.224-.29.15-.434.42-.434.813a.82.82 0 0 0 .126.476 1 1 0 0 0 .336.28c.149.065.317.116.504.154.186.037.382.079.588.125.317.066.644.136.98.21.336.075.634.192.896.35.27.16.49.374.658.645.177.26.266.615.266 1.063 0 .42-.084.77-.252 1.05a1.93 1.93 0 0 1-.672.672c-.271.16-.584.271-.938.336-.346.075-.7.113-1.064.113Zm5.115-.056c-.27 0-.49-.084-.658-.252a.885.885 0 0 1-.252-.63c0-.262.084-.477.252-.645.168-.168.388-.252.658-.252.262 0 .476.085.644.253a.872.872 0 0 1 .252.643.885.885 0 0 1-.252.63.871.871 0 0 1-.644.253Zm5.387.056c-.495 0-.957-.084-1.386-.253a3.22 3.22 0 0 1-1.12-.727 3.542 3.542 0 0 1-.728-1.19c-.178-.467-.266-1.004-.266-1.61 0-.598.088-1.13.266-1.596.177-.476.42-.873.728-1.19a3.22 3.22 0 0 1 1.12-.729 3.767 3.767 0 0 1 1.386-.252c.504 0 .97.085 1.4.253.429.168.798.41 1.106.727.317.318.564.715.742 1.19.186.467.28 1 .28 1.596 0 .607-.094 1.144-.28 1.61a3.448 3.448 0 0 1-.742 1.19c-.308.318-.677.56-1.106.728-.43.169-.896.253-1.4.253Zm0-1.107c.326 0 .625-.05.896-.154.28-.111.522-.275.728-.49.205-.223.364-.503.476-.84.112-.335.168-.732.168-1.19 0-.457-.056-.854-.168-1.19a2.168 2.168 0 0 0-.476-.825 1.835 1.835 0 0 0-.728-.49 2.325 2.325 0 0 0-.896-.168c-.327 0-.626.056-.896.168a1.845 1.845 0 0 0-.714.49 2.27 2.27 0 0 0-.462.825 3.774 3.774 0 0 0-.168 1.19c0 .458.056.854.168 1.19.112.337.266.617.462.84.205.215.443.379.714.49.27.103.569.154.896.154Zm12.871.966h-1.89l-1.54-5.614-1.582 5.614h-1.834l-1.652-7.266h1.302l1.386 6.343 1.764-6.343h1.386l1.722 6.273 1.372-6.273h1.218l-1.652 7.267Zm6.526-6.314c-.56 0-1.017.131-1.372.392a2.871 2.871 0 0 0-.84.98v4.942h-1.232v-7.266h1.162l.042 1.303h.028c.196-.42.504-.766.924-1.037.42-.27.952-.405 1.596-.405.719 0 1.288.19 1.708.573.429.374.644.953.644 1.736v5.096h-1.232v-4.97c0-.503-.126-.854-.378-1.05-.252-.195-.602-.293-1.05-.293Zm10.391 5.698a3.979 3.979 0 0 1-.924.49 4.604 4.604 0 0 1-.728.183 4.51 4.51 0 0 1-.91.084c-1.223 0-2.151-.332-2.786-.994-.635-.663-.952-1.592-.952-2.787 0-.588.084-1.115.252-1.582.177-.466.42-.858.728-1.175a3.028 3.028 0 0 1 1.092-.742 3.49 3.49 0 0 1 1.372-.266 3.5 3.5 0 0 1 1.4.265c.411.178.747.44 1.008.784.271.346.453.775.546 1.288.103.505.103 1.093 0 1.764h-5.124c.047.785.28 1.372.7 1.765.42.382 1.045.573 1.876.573.56 0 1.041-.079 1.442-.238a5.07 5.07 0 0 0 1.008-.518v1.107Zm-2.884-5.697c-.532 0-.989.163-1.372.49-.383.326-.625.82-.728 1.483h3.906c.037-.672-.117-1.166-.462-1.484-.345-.326-.793-.49-1.344-.49Zm8.124.28a3.779 3.779 0 0 0-1.428.405c-.42.215-.733.551-.938 1.008v4.62h-1.232v-7.266h1.078l.126 1.582h.028c.205-.429.499-.802.882-1.12.392-.326.886-.527 1.484-.601v1.372Z"/>
    <path fill="#fff" stroke="#67B0F8" stroke-width="2" d="M194.9 77.6h130c2.2 0 4 1.8 4 4v30c0 2.2-1.8 4-4 4h-130c-2.2 0-4-1.8-4-4v-30c0-2.3 1.8-4 4-4Z"/>
    <path fill="#18123D" d="M245.422 98.624a4.219 4.219 0 0 1-.322.532 2.419 2.419 0 0 1-1.19.854 2.73 2.73 0 0 1-.924.14c-.653 0-1.18-.181-1.582-.546-.401-.373-.602-.905-.602-1.596 0-.793.276-1.376.826-1.75.56-.373 1.354-.56 2.38-.56h1.358v-.601c0-.504-.13-.864-.392-1.078-.261-.215-.709-.323-1.344-.323-.448 0-.872.075-1.274.225-.401.14-.76.303-1.078.49v-1.106a5.475 5.475 0 0 1 1.05-.463 4.374 4.374 0 0 1 1.47-.237c.915 0 1.61.19 2.086.573.476.374.714.957.714 1.75v4.201c.01.102.014.21.014.322l.028.322c.01.093.019.172.028.237h-1.12a6.35 6.35 0 0 1-.084-.546 8.74 8.74 0 0 1-.028-.63l-.014-.21Zm-2.17.42c.383 0 .71-.079.98-.237.271-.16.49-.341.658-.547.168-.214.29-.42.364-.616.075-.205.112-.35.112-.434v-.531h-1.232c-.737 0-1.274.107-1.61.322-.326.205-.49.517-.49.938 0 .326.098.592.294.798.196.205.504.308.924.308Zm10.492-.462a2.918 2.918 0 0 1-.938 1.149c-.402.279-.91.419-1.526.419-.439 0-.854-.074-1.246-.224a2.988 2.988 0 0 1-1.036-.7 3.5 3.5 0 0 1-.714-1.175c-.178-.477-.266-1.037-.266-1.68 0-.635.088-1.186.266-1.652.177-.476.415-.868.714-1.176a2.74 2.74 0 0 1 1.036-.7 3.393 3.393 0 0 1 1.26-.239c.55 0 1.026.117 1.428.35.401.225.723.547.966.967v-3.949h1.232v10.038h-1.078l-.098-1.428Zm-2.282.463c.317 0 .611-.052.882-.154.27-.113.504-.28.7-.505.205-.224.364-.504.476-.84.121-.336.182-.728.182-1.175 0-.448-.061-.84-.182-1.176a2.305 2.305 0 0 0-.476-.84 1.743 1.743 0 0 0-.7-.49 2.287 2.287 0 0 0-.882-.168c-.644 0-1.172.228-1.582.685-.402.448-.602 1.111-.602 1.989 0 .886.205 1.553.616 2.002.41.447.933.671 1.568.671Zm6.7.965h-1.232v-7.266h1.078l.126 1.302h.028c.196-.41.49-.75.882-1.022.392-.28.905-.42 1.54-.42.56 0 1.017.136 1.372.406.364.262.607.658.728 1.19a2.52 2.52 0 0 1 .938-1.162c.429-.289.947-.433 1.554-.433.672 0 1.204.19 1.596.573.392.374.588.953.588 1.737v5.095h-1.246v-4.942c0-.475-.117-.82-.35-1.035-.233-.225-.551-.337-.952-.337-.271 0-.509.043-.714.127a1.697 1.697 0 0 0-.546.322 2.76 2.76 0 0 0-.434.49 6.149 6.149 0 0 0-.364.587v4.788h-1.232v-5.082c0-.466-.117-.788-.35-.965-.233-.178-.551-.266-.952-.266-.261 0-.495.032-.7.097a1.973 1.973 0 0 0-.56.28 2.231 2.231 0 0 0-.434.448 4.106 4.106 0 0 0-.364.56v4.928Zm11.757-8.33c-.252 0-.452-.074-.602-.224a.809.809 0 0 1-.224-.574.81.81 0 0 1 .224-.574c.15-.158.35-.238.602-.238.243 0 .434.08.574.239.14.158.21.35.21.573a.84.84 0 0 1-.21.575c-.14.149-.331.224-.574.224Zm.602 1.064v7.266h-1.232v-7.266h1.232Zm5.453.953c-.56 0-1.018.13-1.372.391a2.85 2.85 0 0 0-.84.98v4.942h-1.232v-7.266h1.162l.042 1.302h.028a2.46 2.46 0 0 1 .924-1.036c.42-.27.952-.406 1.596-.406.718 0 1.288.192 1.708.575.429.373.644.951.644 1.736v5.095h-1.232v-4.97c0-.504-.126-.854-.378-1.05-.252-.195-.602-.293-1.05-.293Z"/>
    <path stroke="#4E496B" stroke-miterlimit="10" stroke-width="2" d="M253.5 211.4c3.3 0 6-2.7 6-6v-9.2m-6 15.2H77.3c-3.3 0-6 2.7-6 6v13.8m188.2-35v35.7"/>
    <path fill="#4E496B" d="M264.5 201.9h-9.8l4.9-8.5 4.9 8.5Z"/>
    <path fill="#fff" stroke="#67B0F8" stroke-width="2" d="M195.1 230.7h130c2.2 0 4 1.8 4 4v30c0 2.2-1.8 4-4 4h-130c-2.2 0-4-1.8-4-4v-30c0-2.2 1.8-4 4-4Z"/>
    <path fill="#18123D" d="M244.075 253.137h-1.988l-2.492-7.266h1.33l2.212 6.608 2.198-6.608h1.232l-2.492 7.266Zm4.264-8.33c-.252 0-.453-.074-.602-.224a.808.808 0 0 1-.224-.574.81.81 0 0 1 .224-.574c.149-.158.35-.238.602-.238.243 0 .434.08.574.238.14.159.21.35.21.574 0 .224-.07.416-.21.574-.14.15-.331.224-.574.224Zm.602 1.064v7.266h-1.232v-7.266h1.232Zm7.79 6.65a3.685 3.685 0 0 1-.378.238 4.34 4.34 0 0 1-.546.252 4.471 4.471 0 0 1-.728.182c-.27.056-.574.084-.91.084-1.222 0-2.151-.331-2.786-.994-.634-.662-.952-1.591-.952-2.786 0-.588.084-1.115.252-1.582.178-.466.42-.858.728-1.176a3.037 3.037 0 0 1 1.092-.742 3.5 3.5 0 0 1 1.372-.266c.523 0 .99.089 1.4.266a2.47 2.47 0 0 1 1.008.784c.271.346.453.775.546 1.288.103.504.103 1.092 0 1.764h-5.124c.047.784.28 1.372.7 1.764.42.383 1.046.574 1.876.574.56 0 1.041-.079 1.442-.238a4.964 4.964 0 0 0 1.008-.518v1.106Zm-2.884-5.698c-.532 0-.989.164-1.372.49-.382.327-.625.822-.728 1.484h3.906c.038-.672-.116-1.166-.462-1.484-.345-.326-.793-.49-1.344-.49Zm12.436 6.314h-1.89l-1.54-5.614-1.582 5.614h-1.834l-1.652-7.266h1.302l1.386 6.342 1.764-6.342h1.386l1.722 6.272 1.372-6.272h1.218l-1.652 7.266Zm8.796-.616a3.919 3.919 0 0 1-.378.238 4.34 4.34 0 0 1-.546.252 4.497 4.497 0 0 1-.728.182 4.51 4.51 0 0 1-.91.084c-1.223 0-2.151-.331-2.786-.994-.635-.662-.952-1.591-.952-2.786 0-.588.084-1.115.252-1.582.177-.466.42-.858.728-1.176a3.037 3.037 0 0 1 1.092-.742c.42-.177.877-.266 1.372-.266.523 0 .989.089 1.4.266a2.47 2.47 0 0 1 1.008.784c.271.346.453.775.546 1.288.103.504.103 1.092 0 1.764h-5.124c.047.784.28 1.372.7 1.764.42.383 1.045.574 1.876.574.56 0 1.041-.079 1.442-.238a5.017 5.017 0 0 0 1.008-.518v1.106Zm-2.884-5.698c-.532 0-.989.164-1.372.49-.383.327-.625.822-.728 1.484h3.906c.037-.672-.117-1.166-.462-1.484-.345-.326-.793-.49-1.344-.49Zm8.124.28a3.784 3.784 0 0 0-1.428.406c-.42.215-.733.551-.938 1.008v4.62h-1.232v-7.266h1.078l.126 1.582h.028c.205-.429.499-.802.882-1.12.392-.326.886-.527 1.484-.602v1.372Z"/>
    <path stroke="#4E496B" stroke-miterlimit="10" stroke-width="2" d="M71.4 272.3V308"/>
    <path fill="#4E496B" d="M76 278.2h-9.7l4.9-8.5 4.8 8.5Zm188.5.2h-9.8l4.9-8.5 4.9 8.5Z"/>
    <path fill="#18123D" d="M241.51 168.247a5.016 5.016 0 0 1-.486.306 5.636 5.636 0 0 1-.702.324 5.92 5.92 0 0 1-.936.234 5.796 5.796 0 0 1-1.17.108c-1.572 0-2.766-.426-3.582-1.278-.816-.852-1.224-2.046-1.224-3.582 0-.756.108-1.434.324-2.034.228-.6.54-1.104.936-1.512.396-.42.864-.738 1.404-.954a4.489 4.489 0 0 1 1.764-.342c.672 0 1.272.114 1.8.342.528.228.96.564 1.296 1.008.348.444.582.996.702 1.656.132.648.132 1.404 0 2.268h-6.588c.06 1.008.36 1.764.9 2.268.54.492 1.344.738 2.412.738.72 0 1.338-.102 1.854-.306a6.495 6.495 0 0 0 1.296-.666v1.422Zm-3.708-7.326c-.684 0-1.272.21-1.764.63-.492.42-.804 1.056-.936 1.908h5.022c.048-.864-.15-1.5-.594-1.908-.444-.42-1.02-.63-1.728-.63Zm12.515 6.282a3.748 3.748 0 0 1-1.206 1.476c-.516.36-1.17.54-1.962.54a4.462 4.462 0 0 1-1.602-.288 3.85 3.85 0 0 1-1.332-.9 4.515 4.515 0 0 1-.918-1.512c-.228-.612-.342-1.332-.342-2.16 0-.816.114-1.524.342-2.124.228-.612.534-1.116.918-1.512a3.545 3.545 0 0 1 1.332-.9 4.367 4.367 0 0 1 1.62-.306c.708 0 1.32.15 1.836.45.516.288.93.702 1.242 1.242v-5.076h1.584v12.906h-1.386l-.126-1.836Zm-2.934.594c.408 0 .786-.066 1.134-.198.348-.144.648-.36.9-.648.264-.288.468-.648.612-1.08.156-.432.234-.936.234-1.512s-.078-1.08-.234-1.512a2.957 2.957 0 0 0-.612-1.08 2.234 2.234 0 0 0-.9-.63 2.937 2.937 0 0 0-1.134-.216c-.828 0-1.506.294-2.034.882-.516.576-.774 1.428-.774 2.556 0 1.14.264 1.998.792 2.574.528.576 1.2.864 2.016.864Zm7.841-9.468c-.324 0-.582-.096-.774-.288a1.038 1.038 0 0 1-.288-.738c0-.288.096-.534.288-.738.192-.204.45-.306.774-.306.312 0 .558.102.738.306.18.204.27.45.27.738s-.09.534-.27.738c-.18.192-.426.288-.738.288Zm.774 1.368v9.342h-1.584v-9.342h1.584Zm7.154 9.144a2.895 2.895 0 0 1-.738.27c-.3.072-.618.108-.954.108-.456 0-.846-.066-1.17-.198a2.256 2.256 0 0 1-.774-.522 2.22 2.22 0 0 1-.45-.756 3.134 3.134 0 0 1-.126-.882v-5.814h-1.116v-1.35h1.116v-1.962h1.584v1.962h2.718v1.35h-2.718v5.616c0 .396.096.684.288.864.204.18.558.27 1.062.27.468 0 .894-.132 1.278-.396v1.44Zm5.853.378c-.636 0-1.23-.108-1.782-.324a4.15 4.15 0 0 1-1.44-.936 4.561 4.561 0 0 1-.936-1.53c-.228-.6-.342-1.29-.342-2.07 0-.768.114-1.452.342-2.052.228-.612.54-1.122.936-1.53a4.15 4.15 0 0 1 1.44-.936 4.847 4.847 0 0 1 1.782-.324c.648 0 1.248.108 1.8.324a3.97 3.97 0 0 1 1.422.936c.408.408.726.918.954 1.53.24.6.36 1.284.36 2.052 0 .78-.12 1.47-.36 2.07-.228.6-.546 1.11-.954 1.53a3.97 3.97 0 0 1-1.422.936 4.897 4.897 0 0 1-1.8.324Zm0-1.422c.42 0 .804-.066 1.152-.198.36-.144.672-.354.936-.63.264-.288.468-.648.612-1.08.144-.432.216-.942.216-1.53 0-.588-.072-1.098-.216-1.53-.144-.432-.348-.786-.612-1.062a2.353 2.353 0 0 0-.936-.63 2.985 2.985 0 0 0-1.152-.216c-.42 0-.804.072-1.152.216a2.378 2.378 0 0 0-.918.63c-.252.276-.45.63-.594 1.062-.144.432-.216.942-.216 1.53 0 .588.072 1.098.216 1.53.144.432.342.792.594 1.08.264.276.57.486.918.63.348.132.732.198 1.152.198Zm11.093-6.516a4.862 4.862 0 0 0-1.836.522c-.54.276-.942.708-1.206 1.296v5.94h-1.584v-9.342h1.386l.162 2.034h.036a4.225 4.225 0 0 1 1.134-1.44c.504-.42 1.14-.678 1.908-.774v1.764Z"/>
    <path fill="#fff" stroke="#67B0F8" stroke-width="2" d="M194.7 154.1h130c2.2 0 4 1.8 4 4v30c0 2.2-1.8 4-4 4h-130c-2.2 0-4-1.8-4-4v-30c0-2.2 1.7-4 4-4Z"/>
    <path fill="#18123D" d="M247.805 175.958a3.919 3.919 0 0 1-.378.238c-.15.084-.332.168-.546.252a4.632 4.632 0 0 1-.728.182 4.51 4.51 0 0 1-.91.084c-1.223 0-2.152-.331-2.786-.994-.635-.663-.952-1.591-.952-2.786 0-.588.084-1.115.252-1.582.177-.467.42-.859.728-1.176a3.024 3.024 0 0 1 1.092-.742c.42-.177.877-.266 1.372-.266.522 0 .989.089 1.4.266.41.177.746.439 1.008.784.27.345.452.775.546 1.288.102.504.102 1.092 0 1.764h-5.124c.046.784.28 1.372.7 1.764.42.383 1.045.574 1.876.574.56 0 1.04-.079 1.442-.238a5.07 5.07 0 0 0 1.008-.518v1.106Zm-2.884-5.698c-.532 0-.99.163-1.372.49-.383.327-.626.821-.728 1.484h3.906c.037-.672-.117-1.167-.462-1.484-.346-.327-.794-.49-1.344-.49Zm9.733 4.886a2.907 2.907 0 0 1-.938 1.148c-.401.28-.91.42-1.526.42a3.48 3.48 0 0 1-1.246-.224 3.002 3.002 0 0 1-1.036-.7 3.526 3.526 0 0 1-.714-1.176c-.177-.476-.266-1.036-.266-1.68 0-.635.089-1.185.266-1.652.178-.476.416-.868.714-1.176a2.76 2.76 0 0 1 1.036-.7 3.395 3.395 0 0 1 1.26-.238c.551 0 1.027.117 1.428.35.402.224.724.546.966.966v-3.948h1.232v10.038h-1.078l-.098-1.428Zm-2.282.462c.318 0 .612-.051.882-.154.271-.112.504-.28.7-.504a2.29 2.29 0 0 0 .476-.84c.122-.336.182-.728.182-1.176 0-.448-.06-.84-.182-1.176a2.29 2.29 0 0 0-.476-.84 1.739 1.739 0 0 0-.7-.49 2.28 2.28 0 0 0-.882-.168c-.644 0-1.171.229-1.582.686-.401.448-.602 1.111-.602 1.988 0 .887.206 1.554.616 2.002.411.448.934.672 1.568.672Zm6.099-7.364c-.252 0-.453-.075-.602-.224a.81.81 0 0 1-.224-.574.81.81 0 0 1 .224-.574c.149-.159.35-.238.602-.238.243 0 .434.079.574.238.14.159.21.35.21.574 0 .224-.07.415-.21.574-.14.149-.331.224-.574.224Zm.602 1.064v7.266h-1.232v-7.266h1.232Zm5.564 7.112c-.149.084-.34.154-.574.21-.233.056-.48.084-.742.084-.354 0-.658-.051-.91-.154a1.77 1.77 0 0 1-.602-.406 1.737 1.737 0 0 1-.35-.588 2.452 2.452 0 0 1-.098-.686v-4.522h-.868v-1.05h.868v-1.526h1.232v1.526h2.114v1.05h-2.114v4.368c0 .308.075.532.224.672.159.14.434.21.826.21.364 0 .696-.103.994-.308v1.12Zm4.553.294c-.495 0-.957-.084-1.386-.252a3.233 3.233 0 0 1-1.12-.728 3.542 3.542 0 0 1-.728-1.19c-.177-.467-.266-1.003-.266-1.61 0-.597.089-1.129.266-1.596.177-.476.42-.873.728-1.19.317-.317.691-.56 1.12-.728a3.767 3.767 0 0 1 1.386-.252c.504 0 .971.084 1.4.252.429.168.798.411 1.106.728.317.317.565.714.742 1.19.187.467.28.999.28 1.596 0 .607-.093 1.143-.28 1.61a3.433 3.433 0 0 1-.742 1.19c-.308.317-.677.56-1.106.728a3.807 3.807 0 0 1-1.4.252Zm0-1.106a2.5 2.5 0 0 0 .896-.154 2.04 2.04 0 0 0 .728-.49c.205-.224.364-.504.476-.84.112-.336.168-.733.168-1.19 0-.457-.056-.854-.168-1.19a2.17 2.17 0 0 0-.476-.826 1.831 1.831 0 0 0-.728-.49 2.322 2.322 0 0 0-.896-.168c-.327 0-.625.056-.896.168a1.849 1.849 0 0 0-.714.49c-.196.215-.35.49-.462.826a3.775 3.775 0 0 0-.168 1.19c0 .457.056.854.168 1.19.112.336.266.616.462.84.205.215.443.378.714.49a2.5 2.5 0 0 0 .896.154Zm8.628-5.068a3.784 3.784 0 0 0-1.428.406c-.42.215-.733.551-.938 1.008v4.62h-1.232v-7.266h1.078l.126 1.582h.028c.205-.429.499-.803.882-1.12.392-.327.887-.527 1.484-.602v1.372Z"/>
    <path stroke="#4E496B" stroke-miterlimit="10" stroke-width="2" d="M71.3 195.1v35.8"/>
    <path fill="#4E496B" d="M76 201.8h-9.8l4.9-8.4 4.9 8.4Z"/>
    <path fill="#fff" stroke="#67B0F8" stroke-width="2" d="M6.1 77.6h130c2.2 0 4 1.8 4 4v30c0 2.2-1.8 4-4 4H6.1c-2.2 0-4-1.8-4-4v-30c0-2.3 1.8-4 4-4Z"/>
    <path fill="#18123D" d="M17.865 86.966a3.783 3.783 0 0 0-1.428.406 2.02 2.02 0 0 0-.938 1.008V93h-1.232v-7.266h1.078l.126 1.582h.028c.205-.43.5-.803.882-1.12.392-.327.887-.527 1.484-.602v1.372Zm7.079 5.418a3.903 3.903 0 0 1-.378.238c-.15.084-.332.168-.546.252a4.607 4.607 0 0 1-.729.182c-.27.056-.573.084-.91.084-1.222 0-2.15-.331-2.785-.994-.635-.663-.953-1.591-.953-2.786 0-.588.084-1.115.252-1.582.178-.467.42-.859.729-1.176a3.028 3.028 0 0 1 1.091-.742 3.5 3.5 0 0 1 1.372-.266c.523 0 .99.089 1.4.266a2.47 2.47 0 0 1 1.009.784c.27.345.452.775.546 1.288.102.504.102 1.092 0 1.764h-5.125c.047.784.28 1.372.7 1.764.42.383 1.046.574 1.877.574.56 0 1.04-.08 1.442-.238a5.053 5.053 0 0 0 1.008-.518v1.106Zm-2.884-5.698c-.532 0-.99.163-1.372.49-.383.327-.626.821-.729 1.484h3.907c.037-.672-.117-1.167-.462-1.484-.346-.327-.794-.49-1.345-.49Zm6.85 6.454a4.81 4.81 0 0 1-1.023-.098 4.8 4.8 0 0 1-.77-.21 4.19 4.19 0 0 1-.546-.28 3.693 3.693 0 0 1-.35-.266V91.18c.094.093.22.196.378.308.159.103.35.2.574.294.224.093.476.173.756.238a5.1 5.1 0 0 0 .966.084c.523 0 .938-.084 1.246-.252.308-.168.462-.453.462-.854 0-.215-.051-.387-.154-.518a.934.934 0 0 0-.392-.308 2.416 2.416 0 0 0-.588-.196 29.16 29.16 0 0 0-.686-.14 25.843 25.843 0 0 1-.91-.21 3.178 3.178 0 0 1-.812-.35 1.904 1.904 0 0 1-.588-.602c-.149-.252-.224-.579-.224-.98 0-.653.252-1.167.756-1.54.514-.373 1.228-.56 2.142-.56.514 0 .966.051 1.358.154.402.103.71.215.924.336v1.106a3.295 3.295 0 0 0-.91-.392c-.354-.112-.798-.168-1.33-.168-.55 0-.975.075-1.274.224-.289.15-.434.42-.434.812a.82.82 0 0 0 .126.476 1 1 0 0 0 .336.28c.15.065.318.117.504.154.187.037.383.08.588.126.318.065.644.135.98.21.336.075.635.191.896.35.271.159.49.373.658.644.178.261.266.616.266 1.064 0 .42-.084.77-.252 1.05a1.93 1.93 0 0 1-.672.672c-.27.159-.583.27-.938.336-.345.075-.7.112-1.064.112Zm7.425 0a3.77 3.77 0 0 1-1.386-.252 3.228 3.228 0 0 1-1.12-.728 3.547 3.547 0 0 1-.728-1.19c-.178-.467-.266-1.003-.266-1.61 0-.597.088-1.13.266-1.596a3.37 3.37 0 0 1 .728-1.19c.317-.317.69-.56 1.12-.728a3.77 3.77 0 0 1 1.386-.252c.504 0 .97.084 1.4.252.43.168.798.41 1.106.728.317.317.565.714.742 1.19.187.467.28.999.28 1.596 0 .607-.093 1.143-.28 1.61a3.435 3.435 0 0 1-.742 1.19c-.308.317-.677.56-1.106.728-.43.168-.896.252-1.4.252Zm0-1.106c.326 0 .625-.051.896-.154a2.04 2.04 0 0 0 .728-.49 2.3 2.3 0 0 0 .476-.84c.112-.336.168-.733.168-1.19 0-.457-.056-.854-.168-1.19a2.165 2.165 0 0 0-.476-.826 1.83 1.83 0 0 0-.728-.49 2.322 2.322 0 0 0-.896-.168c-.327 0-.626.056-.896.168a1.85 1.85 0 0 0-.714.49c-.196.215-.35.49-.462.826a3.774 3.774 0 0 0-.168 1.19c0 .457.056.854.168 1.19.112.336.266.616.462.84.205.215.443.378.714.49.27.103.57.154.896.154Zm9.692-.336c-.196.41-.5.756-.91 1.036-.402.27-.93.406-1.582.406-.672 0-1.218-.187-1.638-.56-.411-.383-.616-.97-.616-1.764v-5.082h1.246v5.082c0 .243.032.443.098.602a1.032 1.032 0 0 0 .714.56c.168.037.35.056.546.056.54 0 .975-.121 1.302-.364a3.07 3.07 0 0 0 .84-.994v-4.942h1.232V93h-1.092l-.112-1.302h-.028Zm6.852-4.732a3.782 3.782 0 0 0-1.428.406 2.02 2.02 0 0 0-.938 1.008V93H49.28v-7.266h1.078l.126 1.582h.028c.205-.43.499-.803.882-1.12.392-.327.886-.527 1.484-.602v1.372Zm4.432 6.174c-.56 0-1.069-.084-1.526-.252a3.339 3.339 0 0 1-1.148-.742 3.273 3.273 0 0 1-.728-1.19c-.168-.467-.252-.999-.252-1.596 0-.588.084-1.115.252-1.582a3.29 3.29 0 0 1 .742-1.176 3.07 3.07 0 0 1 1.162-.742 4.274 4.274 0 0 1 1.554-.266c.448 0 .859.051 1.232.154.373.093.682.233.924.42v1.106a3.262 3.262 0 0 0-1.008-.434 4.156 4.156 0 0 0-1.134-.154c-.85 0-1.474.22-1.876.658-.392.439-.588 1.11-.588 2.016 0 .905.191 1.577.574 2.016.383.439.99.658 1.82.658.439 0 .84-.051 1.204-.154a4.95 4.95 0 0 0 1.008-.42v1.106a4.29 4.29 0 0 1-2.212.574Zm9.496-.756a3.879 3.879 0 0 1-.378.238 4.38 4.38 0 0 1-.546.252 4.601 4.601 0 0 1-.728.182c-.27.056-.574.084-.91.084-1.223 0-2.152-.331-2.786-.994-.635-.663-.952-1.591-.952-2.786 0-.588.084-1.115.252-1.582.177-.467.42-.859.728-1.176a3.028 3.028 0 0 1 1.092-.742c.42-.177.877-.266 1.372-.266a3.5 3.5 0 0 1 1.4.266c.41.177.746.439 1.008.784.27.345.452.775.546 1.288.102.504.102 1.092 0 1.764H61.78c.046.784.28 1.372.7 1.764.42.383 1.045.574 1.876.574.56 0 1.04-.08 1.442-.238a5.048 5.048 0 0 0 1.008-.518v1.106Zm-2.884-5.698c-.532 0-.99.163-1.372.49-.383.327-.626.821-.728 1.484h3.906c.037-.672-.117-1.167-.462-1.484-.346-.327-.794-.49-1.344-.49Zm4.358 1.484h3.36v1.12h-3.36v-1.12ZM74.725 93h-1.231v-7.266h1.078l.126 1.302h.028c.195-.41.49-.751.882-1.022.391-.28.905-.42 1.54-.42.56 0 1.017.135 1.371.406.364.261.607.658.728 1.19.206-.495.519-.882.939-1.162.429-.29.947-.434 1.553-.434.672 0 1.204.191 1.596.574.393.373.589.952.589 1.736V93h-1.247v-4.942c0-.476-.116-.821-.35-1.036-.233-.224-.55-.336-.951-.336-.271 0-.51.042-.715.126a1.69 1.69 0 0 0-.546.322 2.76 2.76 0 0 0-.433.49 6.21 6.21 0 0 0-.365.588V93h-1.231v-5.082c0-.467-.117-.789-.35-.966-.234-.177-.551-.266-.953-.266-.26 0-.494.033-.7.098a1.97 1.97 0 0 0-.56.28c-.158.121-.303.27-.433.448a4.226 4.226 0 0 0-.365.56V93Zm15.384-1.386a4.266 4.266 0 0 1-.322.532 2.437 2.437 0 0 1-1.19.854 2.75 2.75 0 0 1-.924.14c-.654 0-1.18-.182-1.582-.546-.401-.373-.602-.905-.602-1.596 0-.793.275-1.377.826-1.75.56-.373 1.353-.56 2.38-.56h1.358v-.602c0-.504-.13-.863-.392-1.078-.261-.215-.71-.322-1.344-.322a3.63 3.63 0 0 0-1.274.224c-.402.14-.76.303-1.078.49v-1.106a5.436 5.436 0 0 1 1.05-.462 4.374 4.374 0 0 1 1.47-.238c.915 0 1.61.191 2.086.574.476.373.714.957.714 1.75v4.2c.01.103.014.21.014.322.01.112.018.22.028.322.01.093.019.173.028.238h-1.12a6.4 6.4 0 0 1-.084-.546 8.353 8.353 0 0 1-.028-.63l-.014-.21Zm-2.17.42c.383 0 .71-.08.98-.238.27-.159.49-.34.658-.546.168-.215.29-.42.364-.616.075-.205.112-.35.112-.434v-.532H88.82c-.737 0-1.274.107-1.61.322-.327.205-.49.518-.49.938 0 .327.098.593.294.798.196.205.504.308.924.308Zm8.727-5.348c-.56 0-1.017.13-1.372.392a2.865 2.865 0 0 0-.84.98V93h-1.232v-7.266h1.162l.042 1.302h.028A2.46 2.46 0 0 1 95.378 86c.42-.27.952-.406 1.596-.406.719 0 1.288.191 1.708.574.43.373.644.952.644 1.736V93h-1.232v-4.97c0-.504-.126-.854-.378-1.05-.252-.196-.602-.294-1.05-.294Zm8.865 4.928a4.34 4.34 0 0 1-.322.532 2.444 2.444 0 0 1-1.19.854c-.262.093-.57.14-.924.14-.654 0-1.181-.182-1.582-.546-.402-.373-.602-.905-.602-1.596 0-.793.275-1.377.826-1.75.56-.373 1.353-.56 2.38-.56h1.358v-.602c0-.504-.131-.863-.392-1.078-.262-.215-.71-.322-1.344-.322a3.63 3.63 0 0 0-1.274.224c-.402.14-.761.303-1.078.49v-1.106a5.42 5.42 0 0 1 1.05-.462 4.374 4.374 0 0 1 1.47-.238c.914 0 1.61.191 2.086.574.476.373.714.957.714 1.75v4.2c.009.103.014.21.014.322.009.112.018.22.028.322.009.093.018.173.028.238h-1.12a6.4 6.4 0 0 1-.084-.546 8.197 8.197 0 0 1-.028-.63l-.014-.21Zm-2.17.42c.382 0 .709-.08.98-.238.27-.159.49-.34.658-.546.168-.215.289-.42.364-.616.074-.205.112-.35.112-.434v-.532h-1.232c-.738 0-1.274.107-1.61.322-.327.205-.49.518-.49.938 0 .327.098.593.294.798.196.205.504.308.924.308Zm11.527.35c0 .467-.07.891-.21 1.274a2.298 2.298 0 0 1-.644.994c-.289.27-.667.48-1.134.63-.457.15-1.013.224-1.666.224-.355 0-.667-.019-.938-.056a4.3 4.3 0 0 1-.714-.154 2.58 2.58 0 0 1-.504-.196 2.326 2.326 0 0 1-.35-.196v-1.106c.149.084.303.159.462.224a4.115 4.115 0 0 0 1.204.322c.252.037.537.056.854.056.896 0 1.521-.168 1.876-.504.355-.336.532-.835.532-1.498v-1.12c-.215.43-.518.775-.91 1.036-.383.261-.859.392-1.428.392a3.44 3.44 0 0 1-1.232-.224 3.049 3.049 0 0 1-1.022-.658 3.397 3.397 0 0 1-.7-1.106c-.168-.448-.252-.966-.252-1.554 0-.597.084-1.115.252-1.554a3.37 3.37 0 0 1 .7-1.12 2.922 2.922 0 0 1 1.036-.672 3.47 3.47 0 0 1 1.246-.224c.579 0 1.064.13 1.456.392.401.261.714.616.938 1.064l.014-.154c0-.168.009-.369.028-.602.019-.243.037-.43.056-.56h1.12c-.019.13-.037.317-.056.56a16.97 16.97 0 0 0-.014.602v5.488Zm-3.346-.784c.308 0 .588-.047.84-.14.261-.103.485-.257.672-.462a2.04 2.04 0 0 0 .448-.756 3.15 3.15 0 0 0 .168-1.078c0-.83-.205-1.451-.616-1.862-.401-.41-.91-.616-1.526-.616a2.42 2.42 0 0 0-.868.154 1.9 1.9 0 0 0-.686.462 2.27 2.27 0 0 0-.448.784 3.15 3.15 0 0 0-.168 1.078c0 .41.056.77.168 1.078.112.299.266.55.462.756.196.196.425.345.686.448.271.103.56.154.868.154Zm11.128.784a3.979 3.979 0 0 1-.924.49 4.604 4.604 0 0 1-.728.182 4.51 4.51 0 0 1-.91.084c-1.223 0-2.151-.331-2.786-.994-.635-.663-.952-1.591-.952-2.786 0-.588.084-1.115.252-1.582.177-.467.42-.859.728-1.176a3.028 3.028 0 0 1 1.092-.742 3.49 3.49 0 0 1 1.372-.266 3.5 3.5 0 0 1 1.4.266c.411.177.747.439 1.008.784.271.345.453.775.546 1.288.103.504.103 1.092 0 1.764h-5.124c.047.784.28 1.372.7 1.764.42.383 1.045.574 1.876.574.56 0 1.041-.08 1.442-.238a5.07 5.07 0 0 0 1.008-.518v1.106Zm-2.884-5.698c-.532 0-.989.163-1.372.49-.383.327-.625.821-.728 1.484h3.906c.037-.672-.117-1.167-.462-1.484-.345-.327-.793-.49-1.344-.49Zm8.124.28a3.779 3.779 0 0 0-1.428.406c-.42.215-.733.55-.938 1.008V93h-1.232v-7.266h1.078l.126 1.582h.028c.205-.43.499-.803.882-1.12.392-.327.887-.527 1.484-.602v1.372Zm1.339 6.118c-.27 0-.49-.084-.658-.252a.885.885 0 0 1-.252-.63c0-.261.084-.476.252-.644.168-.168.388-.252.658-.252.262 0 .476.084.644.252a.872.872 0 0 1 .252.644.885.885 0 0 1-.252.63.871.871 0 0 1-.644.252ZM27.439 109.14c-.56 0-1.07-.084-1.527-.252a3.338 3.338 0 0 1-1.148-.742 3.271 3.271 0 0 1-.728-1.19c-.168-.467-.252-.999-.252-1.596 0-.588.084-1.115.252-1.582.177-.467.425-.859.742-1.176a3.064 3.064 0 0 1 1.162-.742 4.28 4.28 0 0 1 1.554-.266c.448 0 .859.051 1.232.154.373.093.681.233.924.42v1.106a3.257 3.257 0 0 0-1.008-.434 4.145 4.145 0 0 0-1.134-.154c-.85 0-1.475.219-1.876.658-.392.439-.588 1.111-.588 2.016s.191 1.577.574 2.016c.383.439.99.658 1.82.658.439 0 .84-.051 1.204-.154.373-.112.71-.252 1.008-.42v1.106a4.29 4.29 0 0 1-2.212.574Zm4.945-10.178V109h-1.232V98.962h1.232Zm4.99 10.178a3.77 3.77 0 0 1-1.386-.252 3.234 3.234 0 0 1-1.12-.728 3.549 3.549 0 0 1-.728-1.19c-.177-.467-.266-1.003-.266-1.61 0-.597.089-1.129.266-1.596a3.37 3.37 0 0 1 .728-1.19c.317-.317.69-.56 1.12-.728a3.77 3.77 0 0 1 1.386-.252c.504 0 .97.084 1.4.252.43.168.798.411 1.106.728.317.317.565.714.742 1.19.187.467.28.999.28 1.596 0 .607-.093 1.143-.28 1.61a3.432 3.432 0 0 1-.742 1.19c-.308.317-.677.56-1.106.728-.43.168-.896.252-1.4.252Zm0-1.106a2.5 2.5 0 0 0 .896-.154 2.04 2.04 0 0 0 .728-.49c.205-.224.364-.504.476-.84.112-.336.168-.733.168-1.19 0-.457-.056-.854-.168-1.19a2.166 2.166 0 0 0-.476-.826 1.833 1.833 0 0 0-.728-.49 2.321 2.321 0 0 0-.896-.168c-.327 0-.625.056-.896.168-.27.103-.509.266-.714.49-.196.215-.35.49-.462.826a3.775 3.775 0 0 0-.168 1.19c0 .457.056.854.168 1.19.112.336.266.616.462.84.205.215.443.378.714.49.27.103.57.154.896.154Zm9.692-.336c-.196.411-.5.756-.91 1.036-.402.271-.929.406-1.582.406-.672 0-1.218-.187-1.638-.56-.411-.383-.616-.971-.616-1.764v-5.082h1.246v5.082c0 .243.032.443.098.602a1.034 1.034 0 0 0 .714.56c.168.037.35.056.546.056.541 0 .975-.121 1.302-.364.326-.243.606-.574.84-.994v-4.942h1.232V109h-1.092l-.112-1.302h-.028Zm8.462-.126a2.913 2.913 0 0 1-.938 1.148c-.402.28-.91.42-1.526.42-.439 0-.854-.075-1.246-.224a2.998 2.998 0 0 1-1.036-.7 3.504 3.504 0 0 1-.714-1.176c-.178-.476-.266-1.036-.266-1.68 0-.635.088-1.185.266-1.652.177-.476.415-.868.714-1.176a2.757 2.757 0 0 1 1.036-.7 3.39 3.39 0 0 1 1.26-.238c.55 0 1.026.117 1.428.35.401.224.723.546.966.966v-3.948h1.232V109h-1.078l-.098-1.428Zm-2.282.462c.317 0 .611-.051.882-.154.27-.112.504-.28.7-.504a2.3 2.3 0 0 0 .476-.84 3.46 3.46 0 0 0 .182-1.176c0-.448-.061-.84-.182-1.176a2.3 2.3 0 0 0-.476-.84 1.741 1.741 0 0 0-.7-.49 2.284 2.284 0 0 0-.882-.168c-.644 0-1.172.229-1.582.686-.402.448-.602 1.111-.602 1.988 0 .887.205 1.554.616 2.002.41.448.933.672 1.568.672Zm7.792 1.106a4.83 4.83 0 0 1-1.022-.098 4.8 4.8 0 0 1-.77-.21 4.19 4.19 0 0 1-.546-.28 3.693 3.693 0 0 1-.35-.266v-1.106c.093.093.22.196.378.308.159.103.35.201.574.294.224.093.476.173.756.238a5.1 5.1 0 0 0 .966.084c.523 0 .938-.084 1.246-.252.308-.168.462-.453.462-.854 0-.215-.051-.387-.154-.518a.934.934 0 0 0-.392-.308 2.429 2.429 0 0 0-.588-.196 29.16 29.16 0 0 0-.686-.14 24.567 24.567 0 0 1-.91-.21 3.198 3.198 0 0 1-.812-.35 1.904 1.904 0 0 1-.588-.602c-.15-.252-.224-.579-.224-.98 0-.653.252-1.167.756-1.54.514-.373 1.227-.56 2.142-.56.513 0 .966.051 1.358.154.401.103.71.215.924.336v1.106a3.295 3.295 0 0 0-.91-.392c-.355-.112-.798-.168-1.33-.168-.55 0-.975.075-1.274.224-.29.149-.434.42-.434.812a.82.82 0 0 0 .126.476c.084.112.196.205.336.28.15.065.317.117.504.154.187.037.383.079.588.126.317.065.644.135.98.21.336.075.635.191.896.35.27.159.49.373.658.644.178.261.266.616.266 1.064 0 .42-.084.77-.252 1.05a1.93 1.93 0 0 1-.672.672c-.27.159-.583.271-.938.336-.345.075-.7.112-1.064.112Zm5.116-.056c-.27 0-.49-.084-.658-.252a.884.884 0 0 1-.252-.63c0-.261.084-.476.252-.644.168-.168.387-.252.658-.252.261 0 .476.084.644.252a.873.873 0 0 1 .252.644.884.884 0 0 1-.252.63.872.872 0 0 1-.644.252Zm3.91-.084H68.83v-7.266h1.078l.126 1.302h.028c.196-.411.49-.751.882-1.022.392-.28.906-.42 1.54-.42.56 0 1.018.135 1.372.406.364.261.607.658.728 1.19a2.52 2.52 0 0 1 .938-1.162c.43-.289.948-.434 1.554-.434.672 0 1.204.191 1.596.574.392.373.588.952.588 1.736V109h-1.246v-4.942c0-.476-.116-.821-.35-1.036-.233-.224-.55-.336-.952-.336-.27 0-.508.042-.714.126a1.694 1.694 0 0 0-.546.322c-.158.14-.303.303-.434.49-.13.187-.252.383-.364.588V109h-1.232v-5.082c0-.467-.116-.789-.35-.966-.233-.177-.55-.266-.952-.266-.261 0-.494.033-.7.098a1.968 1.968 0 0 0-.56.28 2.202 2.202 0 0 0-.434.448c-.13.168-.252.355-.364.56V109Zm16.909-.616a3.846 3.846 0 0 1-.378.238c-.15.084-.332.168-.546.252a4.607 4.607 0 0 1-.728.182c-.27.056-.574.084-.91.084-1.223 0-2.152-.331-2.786-.994-.635-.663-.952-1.591-.952-2.786 0-.588.084-1.115.252-1.582.177-.467.42-.859.728-1.176a3.024 3.024 0 0 1 1.092-.742c.42-.177.877-.266 1.372-.266.522 0 .99.089 1.4.266.41.177.746.439 1.008.784.27.345.452.775.546 1.288.102.504.102 1.092 0 1.764h-5.124c.046.784.28 1.372.7 1.764.42.383 1.045.574 1.876.574.56 0 1.04-.079 1.442-.238a5.053 5.053 0 0 0 1.008-.518v1.106Zm-2.884-5.698c-.532 0-.99.163-1.372.49-.383.327-.626.821-.728 1.484h3.906c.037-.672-.117-1.167-.462-1.484-.346-.327-.794-.49-1.344-.49ZM89.847 109h-1.232v-7.266h1.078l.126 1.302h.028c.196-.411.49-.751.882-1.022.392-.28.905-.42 1.54-.42.56 0 1.017.135 1.372.406.364.261.606.658.728 1.19.205-.495.518-.882.938-1.162.429-.289.947-.434 1.554-.434.672 0 1.204.191 1.596.574.392.373.588.952.588 1.736V109h-1.246v-4.942c0-.476-.117-.821-.35-1.036-.234-.224-.551-.336-.952-.336-.271 0-.51.042-.714.126a1.694 1.694 0 0 0-.546.322c-.16.14-.304.303-.434.49a6.225 6.225 0 0 0-.364.588V109h-1.232v-5.082c0-.467-.117-.789-.35-.966-.234-.177-.551-.266-.952-.266-.262 0-.495.033-.7.098a1.968 1.968 0 0 0-.56.28 2.202 2.202 0 0 0-.434.448 4.124 4.124 0 0 0-.364.56V109Zm18.029-3.64c0 .644-.089 1.204-.266 1.68a3.494 3.494 0 0 1-.714 1.176 3.002 3.002 0 0 1-1.036.7 3.44 3.44 0 0 1-1.232.224c-.56 0-1.05-.131-1.47-.392a2.872 2.872 0 0 1-.98-1.12l-.042 1.372h-1.162V98.962h1.232l-.028 4.186a2.98 2.98 0 0 1 .98-1.134c.411-.28.919-.42 1.526-.42.42 0 .821.079 1.204.238.392.149.733.383 1.022.7.299.308.532.7.7 1.176.177.467.266 1.017.266 1.652Zm-3.43 2.674c.644 0 1.162-.219 1.554-.658.401-.448.602-1.12.602-2.016 0-.877-.201-1.54-.602-1.988-.392-.457-.91-.686-1.554-.686-.317 0-.616.056-.896.168a1.99 1.99 0 0 0-.714.504c-.196.215-.355.49-.476.826a3.723 3.723 0 0 0-.168 1.176c0 .448.056.84.168 1.176.121.336.28.616.476.84.205.224.443.392.714.504.28.103.579.154.896.154Zm10.704.35a3.685 3.685 0 0 1-.378.238 4.34 4.34 0 0 1-.546.252 4.576 4.576 0 0 1-.728.182c-.27.056-.574.084-.91.084-1.222 0-2.151-.331-2.786-.994-.634-.663-.952-1.591-.952-2.786 0-.588.084-1.115.252-1.582.178-.467.42-.859.728-1.176a3.024 3.024 0 0 1 1.092-.742 3.5 3.5 0 0 1 1.372-.266c.523 0 .99.089 1.4.266.411.177.747.439 1.008.784.271.345.453.775.546 1.288.103.504.103 1.092 0 1.764h-5.124c.047.784.28 1.372.7 1.764.42.383 1.046.574 1.876.574.56 0 1.041-.079 1.442-.238a5.015 5.015 0 0 0 1.008-.518v1.106Zm-2.884-5.698c-.532 0-.989.163-1.372.49-.382.327-.625.821-.728 1.484h3.906c.038-.672-.116-1.167-.462-1.484-.345-.327-.793-.49-1.344-.49Zm8.124.28a3.795 3.795 0 0 0-1.428.406c-.42.215-.732.551-.938 1.008V109h-1.232v-7.266h1.078l.126 1.582h.028c.206-.429.5-.803.882-1.12.392-.327.887-.527 1.484-.602v1.372Z"/>
    <path fill="#fff" stroke="#67B0F8" stroke-width="2" d="M6 383.8h130c2.2 0 4 1.8 4 4v30c0 2.2-1.8 4-4 4H6c-2.2 0-4-1.8-4-4v-30c0-2.2 1.8-4 4-4Z"/>
    <path fill="#18123D" d="M45.78 406.18a8.317 8.317 0 0 1-.533 1.148 3.818 3.818 0 0 1-.63.854 2.257 2.257 0 0 1-.784.518c-.289.121-.62.182-.994.182-.186 0-.359-.014-.518-.042a1.57 1.57 0 0 1-.434-.112v-1.19c.103.075.234.131.392.168.16.047.332.07.518.07.346 0 .63-.084.854-.252.224-.159.44-.415.644-.77l-2.954-7.756H42.7l2.31 6.132 2.296-6.132h1.19l-2.716 7.182Zm10.114 2.562h-1.232v-3.794a2.66 2.66 0 0 1-.938 1.064c-.392.261-.882.392-1.47.392a3.48 3.48 0 0 1-1.246-.224 2.998 2.998 0 0 1-1.036-.7 3.504 3.504 0 0 1-.714-1.176c-.177-.476-.266-1.036-.266-1.68 0-.635.089-1.185.266-1.652.177-.476.415-.868.714-1.176a2.757 2.757 0 0 1 1.036-.7 3.39 3.39 0 0 1 1.26-.238c.57 0 1.06.126 1.47.378.42.252.747.602.98 1.05l.014-.126c0-.168.01-.369.028-.602a4.48 4.48 0 0 1 .07-.56h1.134a9.185 9.185 0 0 0-.056.56c-.01.243-.014.443-.014.602v8.582Zm-3.458-3.444c.318 0 .611-.051.882-.154.27-.112.504-.28.7-.504a2.3 2.3 0 0 0 .476-.84 3.46 3.46 0 0 0 .182-1.176c0-.448-.06-.84-.182-1.176a2.167 2.167 0 0 0-.476-.826 1.87 1.87 0 0 0-.7-.504 2.284 2.284 0 0 0-.882-.168c-.644 0-1.171.229-1.582.686-.401.448-.602 1.111-.602 1.988 0 .887.206 1.554.616 2.002.41.448.933.672 1.568.672Zm6.14 1.05c-.27 0-.49-.084-.657-.252a.884.884 0 0 1-.252-.63c0-.261.084-.476.252-.644.168-.168.387-.252.658-.252.261 0 .476.084.644.252a.873.873 0 0 1 .252.644.884.884 0 0 1-.252.63.872.872 0 0 1-.644.252Zm5.525-.084h-1.988l-2.492-7.266h1.33l2.212 6.608 2.198-6.608h1.232l-2.492 7.266Zm4.264-8.33c-.252 0-.453-.075-.602-.224a.808.808 0 0 1-.224-.574.81.81 0 0 1 .224-.574c.15-.159.35-.238.602-.238.243 0 .434.079.574.238.14.159.21.35.21.574 0 .224-.07.415-.21.574-.14.149-.331.224-.574.224Zm.602 1.064v7.266h-1.232v-7.266h1.232Zm7.79 6.65a3.822 3.822 0 0 1-.378.238 4.38 4.38 0 0 1-.546.252 4.601 4.601 0 0 1-.728.182c-.27.056-.574.084-.91.084-1.223 0-2.151-.331-2.786-.994-.635-.663-.952-1.591-.952-2.786 0-.588.084-1.115.252-1.582.177-.467.42-.859.728-1.176a3.024 3.024 0 0 1 1.092-.742c.42-.177.877-.266 1.372-.266.523 0 .99.089 1.4.266.41.177.747.439 1.008.784.27.345.453.775.546 1.288.103.504.103 1.092 0 1.764h-5.124c.047.784.28 1.372.7 1.764.42.383 1.045.574 1.876.574.56 0 1.04-.079 1.442-.238a5.048 5.048 0 0 0 1.008-.518v1.106Zm-2.884-5.698c-.532 0-.99.163-1.372.49-.383.327-.625.821-.728 1.484h3.906c.037-.672-.117-1.167-.462-1.484-.345-.327-.793-.49-1.344-.49Zm12.436 6.314h-1.89l-1.54-5.614-1.582 5.614h-1.834l-1.652-7.266h1.302l1.386 6.342 1.764-6.342h1.386l1.722 6.272 1.372-6.272h1.218l-1.652 7.266Zm8.796-.616a3.846 3.846 0 0 1-.378.238c-.15.084-.332.168-.546.252a4.607 4.607 0 0 1-.728.182 4.51 4.51 0 0 1-.91.084c-1.223 0-2.152-.331-2.786-.994-.635-.663-.952-1.591-.952-2.786 0-.588.084-1.115.252-1.582.177-.467.42-.859.728-1.176a3.024 3.024 0 0 1 1.092-.742c.42-.177.877-.266 1.372-.266.522 0 .989.089 1.4.266.41.177.746.439 1.008.784.27.345.452.775.546 1.288.102.504.102 1.092 0 1.764h-5.124c.046.784.28 1.372.7 1.764.42.383 1.045.574 1.876.574.56 0 1.04-.079 1.442-.238a5.053 5.053 0 0 0 1.008-.518v1.106Zm-2.884-5.698c-.532 0-.99.163-1.372.49-.383.327-.626.821-.728 1.484h3.906c.037-.672-.117-1.167-.462-1.484-.346-.327-.794-.49-1.344-.49Zm8.124.28c-.523.047-1 .182-1.428.406-.42.215-.733.551-.939 1.008v4.62h-1.231v-7.266h1.078l.126 1.582h.028c.205-.429.499-.803.882-1.12.391-.327.886-.527 1.484-.602v1.372Z"/>
    <path fill="#fff" stroke="#67B0F8" stroke-width="2" d="M5.9 307.2h130c2.2 0 4 1.8 4 4v30c0 2.2-1.8 4-4 4H5.9c-2.2 0-4-1.8-4-4v-30c0-2.2 1.8-4 4-4Z"/>
    <path fill="#18123D" d="M43.244 329.617a8.372 8.372 0 0 1-.532 1.148 3.86 3.86 0 0 1-.63.854 2.257 2.257 0 0 1-.784.518c-.29.121-.62.182-.994.182-.187 0-.36-.014-.518-.042a1.57 1.57 0 0 1-.434-.112v-1.19c.103.074.234.13.392.168.159.046.331.07.518.07.346 0 .63-.084.854-.252.224-.159.439-.416.644-.77l-2.954-7.756h1.358l2.31 6.132 2.296-6.132h1.19l-2.716 7.182Zm10.115 2.562h-1.232v-3.794a2.667 2.667 0 0 1-.938 1.064c-.392.261-.882.392-1.47.392-.439 0-.854-.075-1.246-.224a2.998 2.998 0 0 1-1.036-.7 3.524 3.524 0 0 1-.714-1.176c-.177-.476-.266-1.036-.266-1.68 0-.635.089-1.186.266-1.652.177-.476.415-.868.714-1.176a2.745 2.745 0 0 1 1.036-.7 3.39 3.39 0 0 1 1.26-.238c.57 0 1.06.126 1.47.378.42.252.747.602.98 1.05l.014-.126c0-.168.01-.369.028-.602a4.53 4.53 0 0 1 .07-.56h1.134a9.1 9.1 0 0 0-.056.56c-.01.242-.014.443-.014.602v8.582Zm-3.458-3.444c.317 0 .611-.052.882-.154.27-.112.504-.28.7-.504a2.3 2.3 0 0 0 .476-.84 3.46 3.46 0 0 0 .182-1.176c0-.448-.06-.84-.182-1.176a2.16 2.16 0 0 0-.476-.826 1.87 1.87 0 0 0-.7-.504 2.284 2.284 0 0 0-.882-.168c-.644 0-1.171.228-1.582.686-.401.448-.602 1.11-.602 1.988 0 .886.205 1.554.616 2.002.41.448.933.672 1.568.672Zm6.14 1.05c-.27 0-.49-.084-.657-.252a.887.887 0 0 1-.252-.63c0-.262.084-.476.252-.644.167-.168.387-.252.657-.252.262 0 .477.084.645.252a.871.871 0 0 1 .252.644.887.887 0 0 1-.253.63.872.872 0 0 1-.644.252Zm3.308-8.414c-.252 0-.452-.075-.602-.224a.808.808 0 0 1-.224-.574c0-.224.075-.416.224-.574.15-.159.35-.238.602-.238.243 0 .434.079.574.238.14.158.21.35.21.574 0 .224-.07.415-.21.574-.14.149-.331.224-.574.224Zm.602 1.064v7.266H58.72v-7.266h1.232Zm5.452.952c-.56 0-1.017.13-1.372.392a2.856 2.856 0 0 0-.84.98v4.942H61.96v-7.266h1.162l.042 1.302h.028c.196-.42.504-.766.924-1.036.42-.271.952-.406 1.596-.406.719 0 1.288.191 1.708.574.43.373.644.952.644 1.736v5.096h-1.232v-4.97c0-.504-.126-.854-.378-1.05-.252-.196-.602-.294-1.05-.294Zm8.153 6.314h-1.988l-2.492-7.266h1.33l2.212 6.608 2.198-6.608h1.232l-2.492 7.266Zm6.48.14a3.77 3.77 0 0 1-1.387-.252 3.233 3.233 0 0 1-1.12-.728 3.557 3.557 0 0 1-.728-1.19c-.177-.467-.266-1.004-.266-1.61 0-.598.089-1.13.266-1.596.177-.476.42-.873.728-1.19a3.21 3.21 0 0 1 1.12-.728 3.77 3.77 0 0 1 1.386-.252c.504 0 .97.084 1.4.252.43.168.798.41 1.106.728.317.317.565.714.742 1.19.187.466.28.998.28 1.596 0 .606-.093 1.143-.28 1.61a3.442 3.442 0 0 1-.742 1.19c-.308.317-.677.56-1.106.728-.43.168-.896.252-1.4.252Zm0-1.106c.326 0 .624-.052.895-.154.28-.112.523-.276.728-.49a2.3 2.3 0 0 0 .476-.84c.112-.336.168-.733.168-1.19a3.77 3.77 0 0 0-.168-1.19 2.16 2.16 0 0 0-.476-.826 1.823 1.823 0 0 0-.728-.49 2.322 2.322 0 0 0-.896-.168c-.327 0-.625.056-.896.168-.27.102-.509.266-.714.49-.196.214-.35.49-.462.826a3.77 3.77 0 0 0-.168 1.19c0 .457.056.854.168 1.19.112.336.266.616.462.84.205.214.443.378.714.49.27.102.57.154.896.154Zm6.905-2.128h-.644v3.094h-1.232v-10.038h1.232v5.894h.7l2.548-3.122h1.4l-2.982 3.584L91 329.701h-1.498l-2.562-3.094Zm10.578 2.478a4.044 4.044 0 0 1-.924.49 4.716 4.716 0 0 1-.728.182 4.51 4.51 0 0 1-.91.084c-1.223 0-2.152-.332-2.786-.994-.635-.663-.952-1.592-.952-2.786 0-.588.084-1.116.252-1.582.177-.467.42-.859.728-1.176a3.024 3.024 0 0 1 1.092-.742 3.48 3.48 0 0 1 1.372-.266c.522 0 .989.088 1.4.266.41.177.746.438 1.008.784.27.345.452.774.546 1.288.102.504.102 1.092 0 1.764h-5.124c.046.784.28 1.372.7 1.764.42.382 1.045.574 1.876.574.56 0 1.04-.08 1.442-.238a5.106 5.106 0 0 0 1.008-.518v1.106Zm-2.884-5.698c-.532 0-.99.163-1.372.49-.383.326-.626.821-.728 1.484h3.906c.037-.672-.117-1.167-.462-1.484-.346-.327-.794-.49-1.344-.49Zm8.124.28a3.766 3.766 0 0 0-1.428.406c-.42.214-.733.55-.938 1.008v4.62H99.16v-7.266h1.079l.126 1.582h.028c.205-.43.499-.803.882-1.12.392-.327.886-.528 1.484-.602v1.372Z"/>
    <path fill="#fff" stroke="#67B0F8" stroke-width="2" d="M6 230.7h130c2.2 0 4 1.8 4 4v30c0 2.2-1.8 4-4 4H6c-2.2 0-4-1.8-4-4v-30c0-2.2 1.8-4 4-4Z"/>
    <path fill="#18123D" d="M47.533 253.053a8.262 8.262 0 0 1-.532 1.148 3.818 3.818 0 0 1-.63.854 2.243 2.243 0 0 1-.784.518 2.54 2.54 0 0 1-.994.182c-.187 0-.36-.014-.518-.042a1.536 1.536 0 0 1-.434-.112v-1.19c.103.075.233.131.392.168.159.047.331.07.518.07.345 0 .63-.084.854-.252.224-.158.439-.415.644-.77l-2.954-7.756h1.358l2.31 6.132 2.296-6.132h1.19l-2.716 7.182Zm10.115 2.562h-1.232v-3.794a2.66 2.66 0 0 1-.938 1.064c-.392.262-.882.392-1.47.392-.439 0-.854-.074-1.246-.224a2.984 2.984 0 0 1-1.036-.7 3.504 3.504 0 0 1-.714-1.176c-.178-.476-.266-1.036-.266-1.68 0-.634.088-1.185.266-1.652.177-.476.415-.868.714-1.176.298-.317.644-.55 1.036-.7a3.41 3.41 0 0 1 1.26-.238c.57 0 1.06.126 1.47.378.42.252.747.602.98 1.05l.014-.126c0-.168.01-.368.028-.602.018-.242.042-.429.07-.56h1.134a9.354 9.354 0 0 0-.056.56 14.9 14.9 0 0 0-.014.602v8.582Zm-3.458-3.444c.317 0 .611-.051.882-.154.27-.112.504-.28.7-.504a2.3 2.3 0 0 0 .476-.84 3.46 3.46 0 0 0 .182-1.176c0-.448-.06-.84-.182-1.176a2.167 2.167 0 0 0-.476-.826 1.869 1.869 0 0 0-.7-.504 2.284 2.284 0 0 0-.882-.168c-.644 0-1.172.229-1.582.686-.402.448-.602 1.111-.602 1.988 0 .887.205 1.554.616 2.002.41.448.933.672 1.568.672Zm6.14 1.05c-.27 0-.49-.084-.658-.252a.884.884 0 0 1-.252-.63c0-.261.084-.476.252-.644.168-.168.388-.252.658-.252.262 0 .476.084.644.252a.873.873 0 0 1 .252.644.884.884 0 0 1-.252.63.872.872 0 0 1-.644.252Zm8.186-.7a3.846 3.846 0 0 1-.378.238 4.38 4.38 0 0 1-.546.252 4.497 4.497 0 0 1-.727.182 4.517 4.517 0 0 1-.91.084c-1.223 0-2.152-.331-2.786-.994-.635-.662-.952-1.591-.952-2.786 0-.588.084-1.115.252-1.582.177-.466.42-.858.727-1.176a3.037 3.037 0 0 1 1.093-.742c.42-.177.877-.266 1.371-.266.523 0 .99.089 1.4.266a2.47 2.47 0 0 1 1.008.784c.271.346.453.775.547 1.288.102.504.102 1.092 0 1.764H63.49c.046.784.28 1.372.7 1.764.42.383 1.045.574 1.876.574.56 0 1.04-.079 1.442-.238a5.001 5.001 0 0 0 1.007-.518v1.106Zm-2.884-5.698c-.532 0-.989.164-1.372.49-.382.327-.625.822-.728 1.484h3.907c.037-.672-.117-1.166-.462-1.484-.346-.326-.794-.49-1.345-.49Zm9.734 4.886a2.913 2.913 0 0 1-.938 1.148c-.401.28-.91.42-1.526.42-.438 0-.854-.074-1.246-.224a2.985 2.985 0 0 1-1.036-.7 3.504 3.504 0 0 1-.714-1.176c-.177-.476-.266-1.036-.266-1.68 0-.634.089-1.185.266-1.652.178-.476.416-.868.714-1.176a2.77 2.77 0 0 1 1.036-.7 3.41 3.41 0 0 1 1.26-.238c.551 0 1.027.117 1.428.35.402.224.724.546.966.966v-3.948h1.232v10.038h-1.078l-.098-1.428Zm-2.282.462c.318 0 .612-.051.882-.154.271-.112.504-.28.7-.504a2.3 2.3 0 0 0 .476-.84 3.46 3.46 0 0 0 .182-1.176c0-.448-.06-.84-.182-1.176a2.3 2.3 0 0 0-.476-.84 1.74 1.74 0 0 0-.7-.49 2.284 2.284 0 0 0-.882-.168c-.644 0-1.171.229-1.582.686-.401.448-.602 1.111-.602 1.988 0 .887.206 1.554.616 2.002.411.448.934.672 1.568.672Zm6.099-7.364c-.252 0-.453-.074-.602-.224a.807.807 0 0 1-.224-.574.81.81 0 0 1 .224-.574c.15-.158.35-.238.602-.238.242 0 .434.08.574.238.14.159.21.35.21.574 0 .224-.07.416-.21.574-.14.15-.332.224-.574.224Zm.602 1.064v7.266h-1.232v-7.266h1.232Zm5.564 7.112c-.15.084-.34.154-.574.21-.233.056-.48.084-.742.084-.355 0-.658-.051-.91-.154a1.745 1.745 0 0 1-.602-.406 1.719 1.719 0 0 1-.35-.588 2.432 2.432 0 0 1-.098-.686v-4.522h-.868v-1.05h.868v-1.526h1.232v1.526h2.114v1.05h-2.114v4.368c0 .308.075.532.224.672.159.14.434.21.826.21.364 0 .695-.102.994-.308v1.12Zm4.553.294a3.77 3.77 0 0 1-1.386-.252 3.22 3.22 0 0 1-1.12-.728 3.539 3.539 0 0 1-.728-1.19c-.177-.466-.266-1.003-.266-1.61 0-.597.089-1.129.266-1.596.177-.476.42-.872.728-1.19.317-.317.69-.56 1.12-.728a3.77 3.77 0 0 1 1.386-.252c.504 0 .97.084 1.4.252.43.168.798.411 1.106.728.317.318.565.714.742 1.19.187.467.28.999.28 1.596 0 .607-.093 1.144-.28 1.61a3.422 3.422 0 0 1-.742 1.19c-.308.318-.677.56-1.106.728-.43.168-.896.252-1.4.252Zm0-1.106a2.5 2.5 0 0 0 .896-.154 2.04 2.04 0 0 0 .728-.49c.205-.224.364-.504.476-.84a3.77 3.77 0 0 0 .168-1.19c0-.457-.056-.854-.168-1.19a2.166 2.166 0 0 0-.476-.826 1.833 1.833 0 0 0-.728-.49 2.321 2.321 0 0 0-.896-.168c-.327 0-.625.056-.896.168-.27.103-.509.266-.714.49-.196.215-.35.49-.462.826a3.775 3.775 0 0 0-.168 1.19c0 .458.056.854.168 1.19.112.336.266.616.462.84.205.215.443.378.714.49.27.103.57.154.896.154Zm8.628-5.068a3.787 3.787 0 0 0-1.428.406c-.42.215-.733.551-.938 1.008v4.62h-1.232v-7.266h1.078l.126 1.582h.028a3.3 3.3 0 0 1 .882-1.12c.392-.326.886-.527 1.484-.602v1.372Z"/>
    <path fill="#fff" stroke="#67B0F8" stroke-width="2" d="M6 154.1h130c2.2 0 4 1.8 4 4v30c0 2.2-1.8 4-4 4H6c-2.2 0-4-1.8-4-4v-30c0-2.2 1.8-4 4-4Z"/>
    <path fill="#18123D" d="M46.376 176.49a8.317 8.317 0 0 1-.532 1.148 3.818 3.818 0 0 1-.63.854 2.257 2.257 0 0 1-.784.518c-.29.121-.62.182-.994.182-.187 0-.36-.014-.518-.042a1.57 1.57 0 0 1-.434-.112v-1.19c.103.075.233.131.392.168.159.047.331.07.518.07.345 0 .63-.084.854-.252.224-.159.439-.415.644-.77l-2.954-7.756h1.358l2.31 6.132 2.296-6.132h1.19l-2.716 7.182Zm10.115 2.562h-1.232v-3.794a2.66 2.66 0 0 1-.938 1.064c-.392.261-.882.392-1.47.392-.439 0-.854-.075-1.246-.224a2.999 2.999 0 0 1-1.036-.7 3.504 3.504 0 0 1-.714-1.176c-.177-.476-.266-1.036-.266-1.68 0-.635.089-1.185.266-1.652.177-.476.415-.868.714-1.176a2.758 2.758 0 0 1 1.036-.7 3.39 3.39 0 0 1 1.26-.238c.57 0 1.06.126 1.47.378a2.6 2.6 0 0 1 .98 1.05l.014-.126c0-.168.01-.369.028-.602.019-.243.042-.429.07-.56h1.134a9.267 9.267 0 0 0-.056.56c-.01.243-.014.443-.014.602v8.582Zm-3.458-3.444c.317 0 .611-.051.882-.154.27-.112.504-.28.7-.504a2.3 2.3 0 0 0 .476-.84 3.46 3.46 0 0 0 .182-1.176c0-.448-.06-.84-.182-1.176a2.167 2.167 0 0 0-.476-.826 1.869 1.869 0 0 0-.7-.504 2.284 2.284 0 0 0-.882-.168c-.644 0-1.172.229-1.582.686-.401.448-.602 1.111-.602 1.988 0 .887.205 1.554.616 2.002.41.448.933.672 1.568.672Zm6.14 1.05c-.27 0-.49-.084-.658-.252a.884.884 0 0 1-.252-.63c0-.261.084-.476.252-.644.168-.168.388-.252.658-.252.262 0 .476.084.644.252a.873.873 0 0 1 .252.644.884.884 0 0 1-.252.63.872.872 0 0 1-.644.252Zm6.934-1.47a4.276 4.276 0 0 1-.322.532 2.434 2.434 0 0 1-1.19.854c-.261.093-.57.14-.924.14-.653 0-1.18-.182-1.582-.546-.401-.373-.602-.905-.602-1.596 0-.793.275-1.377.826-1.75.56-.373 1.353-.56 2.38-.56h1.358v-.602c0-.504-.13-.863-.392-1.078-.261-.215-.71-.322-1.344-.322a3.63 3.63 0 0 0-1.274.224c-.401.14-.76.303-1.078.49v-1.106a5.405 5.405 0 0 1 1.05-.462 4.367 4.367 0 0 1 1.47-.238c.915 0 1.61.191 2.086.574.476.373.714.957.714 1.75v4.2c.01.103.014.21.014.322l.028.322c.01.093.019.173.028.238h-1.12a6.439 6.439 0 0 1-.084-.546 8.42 8.42 0 0 1-.028-.63l-.014-.21Zm-2.17.42c.383 0 .71-.079.98-.238.27-.159.49-.341.658-.546.168-.215.29-.42.364-.616.075-.205.112-.35.112-.434v-.532h-1.232c-.737 0-1.274.107-1.61.322-.327.205-.49.518-.49.938 0 .327.098.593.294.798.196.205.504.308.924.308Zm10.491-.462a2.913 2.913 0 0 1-.938 1.148c-.401.28-.91.42-1.526.42-.439 0-.854-.075-1.246-.224a2.998 2.998 0 0 1-1.036-.7 3.504 3.504 0 0 1-.714-1.176c-.177-.476-.266-1.036-.266-1.68 0-.635.089-1.185.266-1.652.177-.476.415-.868.714-1.176a2.757 2.757 0 0 1 1.036-.7 3.39 3.39 0 0 1 1.26-.238c.55 0 1.027.117 1.428.35.401.224.723.546.966.966v-3.948h1.232v10.038h-1.078l-.098-1.428Zm-2.282.462c.317 0 .611-.051.882-.154.27-.112.504-.28.7-.504a2.3 2.3 0 0 0 .476-.84 3.46 3.46 0 0 0 .182-1.176c0-.448-.06-.84-.182-1.176a2.3 2.3 0 0 0-.476-.84 1.741 1.741 0 0 0-.7-.49 2.284 2.284 0 0 0-.882-.168c-.644 0-1.171.229-1.582.686-.401.448-.602 1.111-.602 1.988 0 .887.205 1.554.616 2.002.41.448.933.672 1.568.672Zm6.7.966h-1.231v-7.266h1.078l.126 1.302h.028c.196-.411.49-.751.882-1.022.392-.28.905-.42 1.54-.42.56 0 1.017.135 1.372.406.364.261.606.658.728 1.19.205-.495.518-.882.938-1.162.429-.289.947-.434 1.554-.434.672 0 1.204.191 1.596.574.392.373.588.952.588 1.736v5.096h-1.246v-4.942c0-.476-.117-.821-.35-1.036-.234-.224-.551-.336-.952-.336-.271 0-.51.042-.714.126a1.696 1.696 0 0 0-.546.322c-.16.14-.304.303-.434.49a6.225 6.225 0 0 0-.364.588v4.788h-1.232v-5.082c0-.467-.117-.789-.35-.966-.234-.177-.551-.266-.952-.266-.262 0-.495.033-.7.098a1.97 1.97 0 0 0-.56.28 2.205 2.205 0 0 0-.434.448 4.124 4.124 0 0 0-.364.56v4.928Zm11.758-8.33c-.252 0-.453-.075-.602-.224a.808.808 0 0 1-.224-.574.81.81 0 0 1 .224-.574c.15-.159.35-.238.602-.238.243 0 .434.079.574.238.14.159.21.35.21.574 0 .224-.07.415-.21.574-.14.149-.331.224-.574.224Zm.602 1.064v7.266h-1.232v-7.266h1.232Zm5.452.952c-.56 0-1.017.131-1.372.392a2.868 2.868 0 0 0-.84.98v4.942h-1.232v-7.266h1.162l.042 1.302h.028a2.46 2.46 0 0 1 .924-1.036c.42-.271.952-.406 1.596-.406.719 0 1.288.191 1.708.574.43.373.644.952.644 1.736v5.096h-1.232v-4.97c0-.504-.126-.854-.378-1.05-.252-.196-.602-.294-1.05-.294Z"/>
</svg>
