<svg xmlns="http://www.w3.org/2000/svg" width="1100" height="250" fill="none" viewBox="0 0 1100 250">
    <path fill="#fff" d="M0 0h1100v250H0z"/>
    <path fill="#262626" d="m472 114-5-2.887v5.774l5-2.887Zm-92 .5h87.5v-1H380v1Zm288-.5-5-2.887v5.774l5-2.887Zm-56 .5h51.5v-1H612v1Zm-370-.5-5-2.887v5.774l5-2.887Zm-56 .5h51.5v-1H186v1Z"/>
    <rect width="130" height="60" x="50" y="87" fill="#EEF3FE" rx="8"/>
    <rect width="130" height="60" x="246" y="87" fill="#EEF3FE" rx="8"/>
    <path fill="#262626" d="M798.5 158.4h1.4l2.6 7.2h-1l-.7-2h-3.2l-.7 2h-.9l2.5-7.2Zm1.9 4.3-1.3-3.6-1.3 3.6h2.6Zm5.6 3c-.4 0-.7-.1-1-.3-.3-.2-.5-.4-.7-.8v2.7h-.9v-7h.8l.1 1c.2-.3.4-.6.7-.8.3-.2.7-.3 1.1-.3.3 0 .6.1.9.2.3.1.5.3.7.5.2.2.4.5.5.8.1.3.2.7.2 1.2s-.1.9-.2 1.2c-.1.3-.3.6-.5.8-.2.2-.5.4-.7.5-.4.3-.7.3-1 .3Zm-.1-.8c.5 0 .8-.2 1.1-.5.3-.3.4-.8.4-1.4 0-.6-.1-1.1-.4-1.4-.3-.3-.7-.5-1.1-.5-.2 0-.4 0-.6.1-.2.1-.4.2-.5.4-.1.2-.3.4-.3.6-.1.2-.1.5-.1.8 0 .3 0 .6.1.8l.3.6c.1.2.3.3.5.4.1.1.3.1.6.1Zm6.5-.3c-.1.1-.1.2-.2.4s-.2.2-.3.4c-.1.1-.3.2-.5.3-.2.1-.4.1-.7.1-.5 0-.8-.1-1.1-.4-.3-.3-.4-.6-.4-1.1 0-.6.2-1 .6-1.3.4-.3 1-.4 1.7-.4h1v-.4c0-.4-.1-.6-.3-.8-.2-.2-.5-.2-1-.2-.3 0-.6.1-.9.2-.3.1-.5.2-.8.4v-1c.2-.1.4-.2.8-.3.3-.1.7-.2 1-.2.7 0 1.1.1 1.5.4.3.3.5.7.5 1.3v3.6h-.8c0-.1 0-.2-.1-.4v-.6Zm-1.6.3c.3 0 .5-.1.7-.2.2-.1.3-.2.5-.4.1-.2.2-.3.3-.4.1-.1.1-.2.1-.3v-.4h-.9c-.5 0-.9.1-1.1.2-.2.2-.4.4-.4.7 0 .2.1.4.2.6.1.2.3.2.6.2Zm6 .8c-.4 0-.8-.1-1.1-.2-.3-.1-.6-.3-.8-.5-.2-.2-.4-.5-.5-.8-.1-.3-.2-.7-.2-1.1 0-.4.1-.8.2-1.1.1-.3.3-.6.5-.8.2-.2.5-.4.8-.5.3-.1.7-.2 1.1-.2.3 0 .6 0 .9.1.3.1.5.2.7.3v.8c-.2-.1-.5-.2-.7-.3-.3-.1-.5-.1-.8-.1-.6 0-1.1.2-1.3.5-.3.3-.4.8-.4 1.4 0 .6.1 1.1.4 1.4.3.3.7.5 1.3.5.3 0 .6 0 .9-.1.3-.1.5-.2.7-.3v.8c-.2.1-.4.2-.7.3-.3-.1-.6-.1-1-.1Zm5.2-4.6c-.4 0-.7.1-1 .3-.3.2-.5.4-.6.7v3.5h-.9v-7.2h.9v2.9c.1-.3.4-.5.7-.7.3-.2.7-.3 1.1-.3.5 0 .9.1 1.2.4.3.3.5.7.5 1.2v3.6h-.9V162c0-.4-.1-.6-.3-.8-.2 0-.4-.1-.7-.1Zm7.4 4.1c-.1.1-.2.1-.3.2-.1.1-.2.1-.4.2s-.3.1-.5.1-.4.1-.6.1c-.9 0-1.5-.2-2-.7-.5-.5-.7-1.1-.7-2 0-.4.1-.8.2-1.1.1-.3.3-.6.5-.8.2-.2.5-.4.8-.5.3-.1.6-.2 1-.2s.7.1 1 .2c.3.1.5.3.7.6.2.2.3.6.4.9.1.4.1.8 0 1.3h-3.7c0 .6.2 1 .5 1.3.3.3.7.4 1.3.4.4 0 .7-.1 1-.2.3-.1.5-.2.7-.4v.6h.1Zm-2.1-4.1c-.4 0-.7.1-1 .3-.3.2-.4.6-.5 1.1h2.8c0-.5-.1-.8-.3-1.1-.3-.2-.6-.3-1-.3Zm7.3 1.4h-.8v3.1h-.9v-7.2h.9v3.3h.7l2.6-3.3h1.1l-2.8 3.6 2.9 3.6h-1.2l-2.5-3.1Zm7.4 2.1c-.1.1-.1.2-.2.4s-.2.2-.3.4c-.1.1-.3.2-.5.3-.2.1-.4.1-.7.1-.5 0-.8-.1-1.1-.4-.3-.3-.4-.6-.4-1.1 0-.6.2-1 .6-1.3.4-.3 1-.4 1.7-.4h1v-.4c0-.4-.1-.6-.3-.8-.2-.2-.5-.2-1-.2-.3 0-.6.1-.9.2-.3.1-.5.2-.8.4v-1c.2-.1.4-.2.8-.3.3-.1.7-.2 1-.2.7 0 1.1.1 1.5.4.3.3.5.7.5 1.3v3.6h-.8c0-.1 0-.2-.1-.4v-.6Zm-1.5.3c.3 0 .5-.1.7-.2.2-.1.3-.2.5-.4.1-.2.2-.3.3-.4.1-.1.1-.2.1-.3v-.4h-.9c-.5 0-.9.1-1.1.2-.2.2-.4.4-.4.7 0 .2.1.4.2.6.1.2.3.2.6.2Zm5-3.7v4.4h-.9v-4.4h-.6v-.8h.6v-.1c0-.6.2-1.1.5-1.4.3-.3.8-.5 1.3-.5.2 0 .5 0 .7.1v.8c-.1 0-.1 0-.3-.1h-.4c-.3 0-.5.1-.7.3-.2.2-.3.5-.3.9v.1h1.5v.8h-1.4v-.1Zm3.8 2.2h-.5v2.2h-.9v-7.2h.9v4.2h.5l1.8-2.2h1L850 163l2.2 2.6h-1.1l-1.8-2.2Zm6.6 1.2c-.1.1-.1.2-.2.4s-.2.2-.3.4c-.1.1-.3.2-.5.3-.2.1-.4.1-.7.1-.5 0-.8-.1-1.1-.4-.3-.3-.4-.6-.4-1.1 0-.6.2-1 .6-1.3.4-.3 1-.4 1.7-.4h1v-.4c0-.4-.1-.6-.3-.8-.2-.2-.5-.2-1-.2-.3 0-.6.1-.9.2-.3.1-.5.2-.8.4v-1c.2-.1.4-.2.8-.3.3-.1.7-.2 1-.2.7 0 1.1.1 1.5.4.3.3.5.7.5 1.3v3.6h-.8c0-.1 0-.2-.1-.4v-.6Zm-1.6.3c.3 0 .5-.1.7-.2.2-.1.3-.2.5-.4.1-.2.2-.3.3-.4.1-.1.1-.2.1-.3v-.4h-.9c-.5 0-.9.1-1.1.2-.2.2-.4.4-.4.7 0 .2.1.4.2.6.1.2.3.2.6.2Zm9.8 1.7c-.6 0-1.1-.1-1.6-.3-.5-.2-.9-.5-1.3-.9s-.7-.8-.9-1.3c-.2-.5-.3-1.1-.3-1.7 0-.6.1-1.1.3-1.6.2-.5.5-.9.9-1.3s.8-.6 1.3-.8c.5-.2 1-.3 1.6-.3.6 0 1.1.1 1.6.3.5.2.9.5 1.3.8.4.4.7.8.9 1.3.2.5.3 1 .3 1.6 0 .6-.1 1.2-.3 1.7-.2.5-.5.9-.9 1.3s-.8.7-1.3.9c-.5.2-1 .3-1.6.3Zm0-.6c.5 0 1-.1 1.4-.3.4-.2.8-.4 1.1-.7.3-.3.5-.7.7-1.1.2-.4.3-.9.3-1.4 0-.5-.1-1-.3-1.4-.2-.4-.4-.8-.7-1.1-.3-.3-.7-.6-1.1-.7-.4-.2-.9-.3-1.4-.3-.5 0-1 .1-1.4.3-.4.2-.8.4-1.1.7-.3.3-.5.7-.7 1.1-.2.4-.3.9-.3 1.4 0 .5.1 1 .3 1.4.2.4.4.8.7 1.1.3.3.7.6 1.1.7.4.2.9.3 1.4.3Zm.2-1.4c-.7 0-1.2-.2-1.6-.6-.4-.4-.6-.9-.6-1.6 0-.7.2-1.2.6-1.6.4-.4.9-.6 1.6-.6.3 0 .5 0 .7.1.2.1.4.1.5.2v.7c-.2-.1-.3-.2-.5-.2s-.4-.1-.6-.1c-.9 0-1.3.5-1.3 1.4 0 .5.1.9.4 1.1.2.2.6.4 1 .4.2 0 .4 0 .6-.1.2-.1.4-.1.5-.3v.7c-.1.1-.2.2-.4.2-.4.3-.6.3-.9.3Zm4.3 2.2 3.2-8.8h.8l-3.2 8.8h-.8Zm4.8-8.4h2.4c.5 0 .9.1 1.3.2s.8.3 1.1.6c.3.3.5.6.7 1 .2.4.3 1 .3 1.6 0 .6-.1 1.2-.3 1.7-.2.5-.4.9-.7 1.2-.3.3-.7.6-1.1.7-.4.2-.9.2-1.4.2h-2.3v-7.2Zm1 .9v5.5h1.4c.4 0 .7-.1 1-.2.3-.1.6-.3.8-.5.2-.2.4-.5.5-.9.1-.4.2-.8.2-1.3s-.1-.9-.2-1.2c-.1-.3-.3-.6-.5-.8-.2-.2-.5-.3-.8-.4-.3-.1-.6-.1-1-.1h-1.4v-.1Zm9 5.3c-.1.1-.1.2-.2.4s-.2.2-.3.4c-.1.1-.3.2-.5.3-.2.1-.4.1-.7.1-.5 0-.8-.1-1.1-.4-.3-.3-.4-.6-.4-1.1 0-.6.2-1 .6-1.3.4-.3 1-.4 1.7-.4h1v-.4c0-.4-.1-.6-.3-.8-.2-.2-.5-.2-1-.2-.3 0-.6.1-.9.2-.3.1-.5.2-.8.4v-1c.2-.1.4-.2.8-.3.3-.1.7-.2 1-.2.7 0 1.1.1 1.5.4.3.3.5.7.5 1.3v3.6h-.8c0-.1 0-.2-.1-.4v-.6Zm-1.6.3c.3 0 .5-.1.7-.2.2-.1.3-.2.5-.4.1-.2.2-.3.3-.4.1-.1.1-.2.1-.3v-.4h-.9c-.5 0-.9.1-1.1.2-.2.2-.4.4-.4.7 0 .2.1.4.2.6.1.2.3.2.6.2Zm5.9.8c-.2 0-.3.1-.5.1-.3 0-.5 0-.6-.1-.1-.1-.3-.2-.4-.3-.1-.1-.2-.3-.2-.4-.1-.2-.1-.3-.1-.5v-3.2h-.6v-.8h.6v-1.1h.9v1.1h1.5v.8h-1.5v3.1c0 .2.1.4.2.5.1.1.3.2.6.2s.5-.1.7-.2v.8c-.3-.1-.4-.1-.6 0Zm4.7-1.1c-.1.1-.1.2-.2.4s-.2.2-.3.4c-.1.1-.3.2-.5.3-.2.1-.4.1-.7.1-.5 0-.8-.1-1.1-.4-.3-.3-.4-.6-.4-1.1 0-.6.2-1 .6-1.3.4-.3 1-.4 1.7-.4h1v-.4c0-.4-.1-.6-.3-.8-.2-.2-.5-.2-1-.2-.3 0-.6.1-.9.2-.3.1-.5.2-.8.4v-1c.2-.1.4-.2.8-.3.3-.1.7-.2 1-.2.7 0 1.1.1 1.5.4.3.3.5.7.5 1.3v3.6h-.8c0-.1 0-.2-.1-.4v-.6Zm-1.6.3c.3 0 .5-.1.7-.2.2-.1.3-.2.5-.4.1-.2.2-.3.3-.4.1-.1.1-.2.1-.3v-.4h-.9c-.5 0-.9.1-1.1.2-.2.2-.4.4-.4.7 0 .2.1.4.2.6.1.2.3.2.6.2Zm8.1.8c-.3 0-.6 0-.9-.1-.3 0-.5-.1-.7-.2-.2-.1-.4-.1-.5-.2-.1-.1-.2-.2-.3-.2v-.9c.1.1.2.2.4.3.2.1.3.2.6.2s.4.1.7.2c.2 0 .5.1.8.1.5 0 .9-.1 1.2-.3.3-.2.5-.5.5-.9 0-.2 0-.4-.1-.5l-.3-.3c-.1-.1-.3-.2-.5-.2s-.5-.1-.7-.2c-.3-.1-.6-.2-.8-.3-.3-.1-.5-.2-.8-.4-.2-.2-.4-.3-.5-.6-.1-.2-.2-.5-.2-.9 0-.6.2-1.1.7-1.5.4-.3 1.1-.5 2-.5h.7c.2 0 .4.1.5.1.2 0 .3.1.4.1.1 0 .2.1.3.2v.9c-.3-.2-.6-.3-.9-.4-.3-.1-.7-.1-1.1-.1-.3 0-.6 0-.8.1-.2 0-.4.1-.5.2l-.3.3c-.1.1-.1.3-.1.5s0 .4.1.5c.1.1.2.2.4.3.2.1.3.2.5.2.2.1.4.1.6.2.3.1.6.1.9.2.3.1.6.2.8.4l.6.6c.1.2.2.6.2.9 0 .4-.1.7-.2 1-.2.3-.3.5-.6.6-.2.2-.5.3-.9.4-.5.2-.9.2-1.2.2Zm5.9 0c-.2 0-.3.1-.5.1-.3 0-.5 0-.6-.1-.1-.1-.3-.2-.4-.3-.1-.1-.2-.3-.2-.4-.1-.2-.1-.3-.1-.5v-3.2h-.6v-.8h.6v-1.1h.9v1.1h1.5v.8h-1.5v3.1c0 .2.1.4.2.5.1.1.3.2.6.2s.5-.1.7-.2v.8c-.3-.1-.5-.1-.6 0Zm3.1-4.1c-.3.2-.5.4-.7.7v3.3h-.9v-5.2h.8l.1 1.1c.1-.3.4-.6.6-.8.3-.2.6-.4 1.1-.4v1c-.4 0-.7.1-1 .3Zm6.1 3.6c-.1.1-.2.1-.3.2-.1.1-.2.1-.4.2s-.3.1-.5.1-.4.1-.6.1c-.9 0-1.5-.2-2-.7-.5-.5-.7-1.1-.7-2 0-.4.1-.8.2-1.1.1-.3.3-.6.5-.8.2-.2.5-.4.8-.5.3-.1.6-.2 1-.2s.7.1 1 .2c.3.1.5.3.7.6.2.2.3.6.4.9.1.4.1.8 0 1.3h-3.7c0 .6.2 1 .5 1.3.3.3.7.4 1.3.4.4 0 .7-.1 1-.2.3-.1.5-.2.7-.4v.6h.1Zm-2.1-4.1c-.4 0-.7.1-1 .3-.3.2-.4.6-.5 1.1h2.8c0-.5-.1-.8-.3-1.1-.3-.2-.6-.3-1-.3Zm6.3 3.5c-.1.1-.1.2-.2.4s-.2.2-.3.4c-.1.1-.3.2-.5.3-.2.1-.4.1-.7.1-.5 0-.8-.1-1.1-.4-.3-.3-.4-.6-.4-1.1 0-.6.2-1 .6-1.3.4-.3 1-.4 1.7-.4h1v-.4c0-.4-.1-.6-.3-.8-.2-.2-.5-.2-1-.2-.3 0-.6.1-.9.2-.3.1-.5.2-.8.4v-1c.2-.1.4-.2.8-.3.3-.1.7-.2 1-.2.7 0 1.1.1 1.5.4.3.3.5.7.5 1.3v3.6h-.8c0-.1 0-.2-.1-.4v-.6Zm-1.6.3c.3 0 .5-.1.7-.2.2-.1.3-.2.5-.4.1-.2.2-.3.3-.4.1-.1.1-.2.1-.3v-.4h-.9c-.5 0-.9.1-1.1.2-.2.2-.4.4-.4.7 0 .2.1.4.2.6.1.2.3.2.6.2Zm4.7.7h-.9v-5.2h.8l.1.9c.1-.3.4-.5.6-.7.3-.2.6-.3 1.1-.3.4 0 .7.1 1 .3.3.2.4.5.5.9.1-.4.4-.6.7-.8.3-.2.7-.3 1.1-.3.5 0 .9.1 1.1.4.3.3.4.7.4 1.2v3.6h-.9v-3.5c0-.3-.1-.6-.3-.7-.2-.2-.4-.2-.7-.2-.2 0-.4 0-.5.1-.1.1-.3.1-.4.2-.1.1-.2.2-.3.4-.1.1-.2.3-.3.4v3.4h-.9v-3.6c0-.3-.1-.6-.3-.7-.2-.1-.4-.2-.7-.2-.2 0-.4 0-.5.1-.1 0-.3.1-.4.2l-.3.3c-.1.1-.2.3-.3.4v3.4h.3Zm9.6.1c-.3 0-.5 0-.7-.1-.2 0-.4-.1-.5-.2-.1-.1-.3-.1-.4-.2-.1-.1-.2-.1-.3-.2v-.8c.1.1.2.1.3.2.1.1.3.1.4.2.2.1.3.1.5.2.2 0 .4.1.7.1.4 0 .7-.1.9-.2.2-.1.3-.3.3-.6 0-.2 0-.3-.1-.4-.1-.1-.2-.2-.3-.2-.1-.1-.3-.1-.4-.1-.2 0-.3-.1-.5-.1s-.4-.1-.6-.2c-.2-.1-.4-.1-.6-.3l-.4-.4c-.1-.2-.2-.4-.2-.7 0-.5.2-.8.5-1.1.3-.3.9-.4 1.5-.4.4 0 .7 0 1 .1.3.1.5.2.7.2v.8l-.6-.3c-.3-.1-.6-.1-1-.1s-.7.1-.9.2c-.2.1-.3.3-.3.6 0 .1 0 .3.1.3l.2.2c.1.1.2.1.4.1.1 0 .3.1.4.1.2 0 .5.1.7.2.2.1.5.1.6.3.1.2.3.3.5.5.1.2.2.4.2.8 0 .3-.1.5-.2.8-.1.3-.3.4-.5.5-.2.1-.4.2-.7.3-.2-.1-.4-.1-.7-.1Z"/>
    <rect width="130" height="60" x="478" y="87" fill="#FFF2BF" rx="8"/>
    <path fill="#262626" d="M507 113h2.9c.6 0 1.1.1 1.6.2s.9.4 1.3.7c.4.3.7.7.9 1.2.2.5.3 1.1.3 1.9 0 .8-.1 1.4-.3 2-.2.6-.5 1-.9 1.4-.4.4-.8.7-1.3.9-.5.2-1.1.3-1.7.3H507V113Zm1.1 1.1v6.6h1.6c.4 0 .8-.1 1.2-.2.4-.1.7-.3.9-.6.3-.3.5-.6.6-1.1.1-.5.2-1 .2-1.6 0-.6-.1-1.1-.2-1.5-.1-.4-.3-.7-.6-.9-.3-.2-.6-.4-.9-.5-.4-.1-.7-.1-1.1-.1h-1.7v-.1Zm10.8 6.4c-.1.1-.2.3-.3.5-.1.2-.3.3-.4.4-.1.1-.4.2-.6.3-.2.1-.5.1-.8.1-.6 0-1-.2-1.4-.5-.3-.3-.5-.8-.5-1.4 0-.7.2-1.2.7-1.5.5-.3 1.2-.5 2-.5h1.2v-.5c0-.4-.1-.7-.3-.9-.2-.2-.6-.3-1.2-.3-.4 0-.7.1-1.1.2-.3.1-.7.3-.9.4v-.9c.2-.1.5-.3.9-.4.4-.1.8-.2 1.3-.2.8 0 1.4.2 1.8.5.4.3.6.8.6 1.5v4.3h-1c0-.1 0-.3-.1-.5v-.5l.1-.1Zm-1.8.3c.3 0 .6-.1.8-.2.2-.1.4-.3.6-.5.1-.2.2-.4.3-.5.1-.2.1-.3.1-.4v-.5h-1.1c-.6 0-1.1.1-1.4.3-.3.2-.4.5-.4.8 0 .3.1.5.3.7.1.2.4.3.8.3Zm7.1.9c-.2 0-.4.1-.6.1-.3 0-.6 0-.8-.1-.2-.1-.4-.2-.5-.4-.1-.1-.2-.3-.3-.5-.1-.2-.1-.4-.1-.6v-3.9h-.7v-.9h.7v-1.3h1.1v1.3h1.8v.9H523v3.8c0 .3.1.5.2.6.1.1.4.2.7.2.3 0 .6-.1.9-.3v1c-.3 0-.4.1-.6.1Zm5.5-1.2c-.1.1-.2.3-.3.5-.1.2-.3.3-.4.4-.1.1-.4.2-.6.3-.2.1-.5.1-.8.1-.6 0-1-.2-1.4-.5-.3-.3-.5-.8-.5-1.4 0-.7.2-1.2.7-1.5.5-.3 1.2-.5 2-.5h1.2v-.5c0-.4-.1-.7-.3-.9-.2-.2-.6-.3-1.2-.3-.4 0-.7.1-1.1.2-.3.1-.7.3-.9.4v-.9c.2-.1.5-.3.9-.4.4-.1.8-.2 1.3-.2.8 0 1.4.2 1.8.5.4.3.6.8.6 1.5v4.3h-1c0-.1 0-.3-.1-.5v-.5l.1-.1Zm-1.9.3c.3 0 .6-.1.8-.2.2-.1.4-.3.6-.5.1-.2.2-.4.3-.5.1-.2.1-.3.1-.4v-.5h-1.1c-.6 0-1.1.1-1.4.3-.3.2-.4.5-.4.8 0 .3.1.5.3.7.2.2.5.3.8.3Zm10.5-6.7v7.6h-1.1v-7.6h-2.7v-1h6.4v1h-2.6Zm5 2.7c-.4.2-.6.5-.8.9v4h-1.1v-6.2h.9l.1 1.4c.2-.4.4-.7.8-1 .3-.3.8-.4 1.3-.5v1.2c-.4-.1-.8 0-1.2.2Zm6.1 3.7c-.1.1-.2.3-.3.5-.1.2-.3.3-.4.4-.1.1-.4.2-.6.3-.2.1-.5.1-.8.1-.6 0-1-.2-1.4-.5-.3-.3-.5-.8-.5-1.4 0-.7.2-1.2.7-1.5.5-.3 1.2-.5 2-.5h1.2v-.5c0-.4-.1-.7-.3-.9-.2-.2-.6-.3-1.2-.3-.4 0-.7.1-1.1.2-.3.1-.7.3-.9.4v-.9c.2-.1.5-.3.9-.4.4-.1.8-.2 1.3-.2.8 0 1.4.2 1.8.5.4.3.6.8.6 1.5v4.3h-1c0-.1 0-.3-.1-.5v-.5l.1-.1Zm-1.9.3c.3 0 .6-.1.8-.2.2-.1.4-.3.6-.5.1-.2.2-.4.3-.5.1-.2.1-.3.1-.4v-.5h-1.1c-.6 0-1.1.1-1.4.3-.3.2-.4.5-.4.8 0 .3.1.5.3.7.2.2.4.3.8.3Zm7.5-4.6c-.5 0-.9.1-1.2.3-.3.2-.5.5-.7.8v4.2H552v-6.2h1v1.1c.2-.4.4-.7.8-.9.4-.2.8-.3 1.4-.3.6 0 1.1.2 1.5.5.4.3.5.8.5 1.5v4.4h-1.1v-4.3c0-.4-.1-.7-.3-.9-.1-.1-.4-.2-.8-.2Zm5.9 5.6c-.3 0-.6 0-.9-.1-.3-.1-.5-.1-.7-.2-.2-.1-.3-.2-.5-.2s-.2-.2-.3-.2v-.9l.3.3c.1.1.3.2.5.3.2.1.4.1.7.2.3.1.5.1.8.1.4 0 .8-.1 1.1-.2.3-.1.4-.4.4-.7 0-.2 0-.3-.1-.4l-.3-.3c-.1-.1-.3-.1-.5-.2s-.4-.1-.6-.1c-.3-.1-.5-.1-.8-.2-.3-.1-.5-.2-.7-.3-.2-.1-.4-.3-.5-.5-.1-.2-.2-.5-.2-.8 0-.6.2-1 .7-1.3.4-.3 1-.5 1.8-.5.4 0 .8 0 1.2.1.3.1.6.2.8.3v.9c-.2-.1-.5-.2-.8-.3-.3-.1-.7-.1-1.1-.1-.5 0-.8.1-1.1.2-.3.1-.4.4-.4.7 0 .2 0 .3.1.4.1.1.2.2.3.2.1.1.3.1.4.1.1 0 .3.1.5.1.3.1.6.1.8.2.3.1.5.2.8.3.3.1.4.3.6.5.1.2.2.5.2.9s-.1.7-.2.9c-.1.2-.3.4-.6.6-.2.1-.5.2-.8.3-.3-.2-.6-.1-.9-.1Zm5.2-5.5v5.3H565v-5.3h-.8v-.9h.8v-.1c0-.7.2-1.3.6-1.7.4-.4.9-.6 1.6-.6.3 0 .6 0 .8.1v.9c-.1 0-.2-.1-.3-.1h-.4c-.4 0-.7.1-.9.3-.2.2-.3.6-.3 1.1v.2h1.8v.9h-1.8v-.1Zm7.8 4.8c-.1.1-.2.1-.3.2-.1.1-.3.1-.5.2s-.4.1-.6.2c-.2 0-.5.1-.8.1-1 0-1.8-.3-2.4-.9-.5-.6-.8-1.4-.8-2.4 0-.5.1-1 .2-1.4.1-.4.4-.7.6-1 .3-.3.6-.5.9-.6.4-.1.8-.2 1.2-.2.4 0 .8.1 1.2.2.4.2.6.4.9.7.3.3.4.7.5 1.1.1.4.1.9 0 1.5h-4.4c0 .7.2 1.2.6 1.5.4.3.9.5 1.6.5.5 0 .9-.1 1.2-.2.3-.1.6-.3.9-.4v.9Zm-2.5-4.9c-.5 0-.8.1-1.2.4-.3.3-.5.7-.6 1.3h3.3c0-.6-.1-1-.4-1.3-.3-.3-.6-.4-1.1-.4Zm5.8.6c-.4.2-.6.5-.8.9v4h-1.1v-6.2h.9l.1 1.4c.2-.4.4-.7.8-1 .3-.3.8-.4 1.3-.5v1.2c-.5-.1-.9 0-1.2.2Z"/>
    <rect width="77" height="59" x="672.5" y="84.5" stroke="#5282FF" rx="7.5"/>
    <rect width="77" height="59" x="672.5" y="84.5" stroke="#5282FF" rx="7.5"/>
    <path fill="#262626" d="M706.8 121.5c-.2 0-.4-.1-.6-.2-.1-.1-.2-.3-.2-.5s.1-.4.2-.6c.1-.1.3-.2.6-.2.2 0 .4.1.6.2.1.1.2.3.2.6 0 .2-.1.4-.2.5-.2.2-.4.2-.6.2Zm2.8 0c-.2 0-.4-.1-.6-.2-.1-.1-.2-.3-.2-.5s.1-.4.2-.6c.1-.1.3-.2.6-.2.2 0 .4.1.6.2.1.1.2.3.2.6 0 .2-.1.4-.2.5-.2.2-.3.2-.6.2Zm2.9 0c-.2 0-.4-.1-.6-.2-.1-.1-.2-.3-.2-.5s.1-.4.2-.6c.1-.1.3-.2.6-.2.2 0 .4.1.6.2.1.1.2.3.2.6 0 .2-.1.4-.2.5-.2.2-.4.2-.6.2Z"/>
    <rect width="77" height="59" x="749.5" y="84.5" stroke="#5282FF" rx="7.5"/>
    <path fill="#262626" d="M784.8 121.5c-.2 0-.4-.1-.6-.2-.1-.1-.2-.3-.2-.5s.1-.4.2-.6c.1-.1.3-.2.6-.2.2 0 .4.1.6.2.1.1.2.3.2.6 0 .2-.1.4-.2.5-.2.2-.4.2-.6.2Zm2.8 0c-.2 0-.4-.1-.6-.2-.1-.1-.2-.3-.2-.5s.1-.4.2-.6c.1-.1.3-.2.6-.2.2 0 .4.1.6.2.1.1.2.3.2.6 0 .2-.1.4-.2.5-.2.2-.3.2-.6.2Zm2.9 0c-.2 0-.4-.1-.6-.2-.1-.1-.2-.3-.2-.5s.1-.4.2-.6c.1-.1.3-.2.6-.2.2 0 .4.1.6.2.1.1.2.3.2.6 0 .2-.1.4-.2.5-.2.2-.4.2-.6.2Z"/>
    <rect width="77" height="59" x="826.5" y="84.5" stroke="#5282FF" rx="7.5"/>
    <path fill="#262626" d="M860.8 121.5c-.2 0-.4-.1-.6-.2-.1-.1-.2-.3-.2-.5s.1-.4.2-.6c.1-.1.3-.2.6-.2.2 0 .4.1.6.2.1.1.2.3.2.6 0 .2-.1.4-.2.5-.2.2-.4.2-.6.2Zm2.8 0c-.2 0-.4-.1-.6-.2-.1-.1-.2-.3-.2-.5s.1-.4.2-.6c.1-.1.3-.2.6-.2.2 0 .4.1.6.2.1.1.2.3.2.6 0 .2-.1.4-.2.5-.2.2-.3.2-.6.2Zm2.9 0c-.2 0-.4-.1-.6-.2-.1-.1-.2-.3-.2-.5s.1-.4.2-.6c.1-.1.3-.2.6-.2.2 0 .4.1.6.2.1.1.2.3.2.6 0 .2-.1.4-.2.5-.2.2-.4.2-.6.2Z"/>
    <rect width="77" height="59" x="903.5" y="84.5" stroke="#5282FF" rx="7.5"/>
    <path fill="#262626" d="M937.8 121.5c-.2 0-.4-.1-.6-.2-.1-.1-.2-.3-.2-.5s.1-.4.2-.6c.1-.1.3-.2.6-.2.2 0 .4.1.6.2.1.1.2.3.2.6 0 .2-.1.4-.2.5-.2.2-.4.2-.6.2Zm2.8 0c-.2 0-.4-.1-.6-.2-.1-.1-.2-.3-.2-.5s.1-.4.2-.6c.1-.1.3-.2.6-.2.2 0 .4.1.6.2.1.1.2.3.2.6 0 .2-.1.4-.2.5-.2.2-.3.2-.6.2Zm2.9 0c-.2 0-.4-.1-.6-.2-.1-.1-.2-.3-.2-.5s.1-.4.2-.6c.1-.1.3-.2.6-.2.2 0 .4.1.6.2.1.1.2.3.2.6 0 .2-.1.4-.2.5-.2.2-.4.2-.6.2Z"/>
    <rect width="77" height="59" x="980.5" y="84.5" stroke="#5282FF" rx="7.5"/>
    <path fill="#262626" d="M1015.8 121.5c-.2 0-.4-.1-.6-.2-.1-.1-.2-.3-.2-.5s.1-.4.2-.6c.1-.1.3-.2.6-.2.2 0 .4.1.6.2.1.1.2.3.2.6 0 .2-.1.4-.2.5-.2.2-.4.2-.6.2Zm2.8 0c-.2 0-.4-.1-.6-.2-.1-.1-.2-.3-.2-.5s.1-.4.2-.6c.1-.1.3-.2.6-.2.2 0 .4.1.6.2.1.1.2.3.2.6 0 .2-.1.4-.2.5-.2.2-.3.2-.6.2Zm2.9 0c-.2 0-.4-.1-.6-.2-.1-.1-.2-.3-.2-.5s.1-.4.2-.6c.1-.1.3-.2.6-.2.2 0 .4.1.6.2.1.1.2.3.2.6 0 .2-.1.4-.2.5-.2.2-.4.2-.6.2Zm-726.6.4c-.4 0-.7 0-1.1-.1-.4-.1-.6-.1-.8-.2l-.6-.3c-.2-.1-.3-.2-.4-.3v-1.1c.1.1.3.2.5.3.2.1.4.2.7.3.3.1.5.2.8.2.3.1.6.1.9.1.6 0 1.1-.1 1.5-.4.4-.2.6-.6.6-1.1 0-.2 0-.4-.1-.6-.1-.2-.2-.3-.4-.4l-.6-.3c-.3-.1-.5-.2-.9-.2s-.7-.2-1-.3c-.3-.1-.6-.3-.9-.4-.3-.2-.5-.4-.6-.7-.2-.3-.2-.6-.2-1.1 0-.7.3-1.3.8-1.7.5-.4 1.3-.6 2.4-.6.3 0 .6 0 .8.1.2 0 .5.1.6.1.2.1.4.1.5.2.1.1.3.1.4.2v1.1c-.3-.2-.7-.4-1.1-.5-.4-.1-.8-.1-1.3-.1-.4 0-.7 0-1 .1-.3.1-.5.1-.6.3-.2.1-.3.2-.3.4-.1.2-.1.3-.1.5s.1.4.2.6c.1.2.3.3.4.4l.6.3c.2.1.5.1.7.2.3.1.7.2 1 .3.4.1.7.2.9.4.3.2.5.4.7.7.2.3.3.7.3 1.1 0 .5-.1.8-.3 1.2-.2.3-.4.6-.7.8-.3.2-.6.3-1 .4-.5.1-.9.1-1.3.1Zm7.1 0c-.4 0-.8-.1-1.2-.2-.4-.1-.7-.4-1-.6-.3-.3-.5-.6-.6-1-.2-.4-.2-.9-.2-1.4 0-.5.1-1 .2-1.4.2-.4.4-.7.6-1 .3-.3.6-.5 1-.6.4-.1.8-.2 1.2-.2.4 0 .8.1 1.2.2.4.1.7.4 1 .6.3.3.5.6.6 1 .2.4.2.9.2 1.4 0 .5-.1 1-.2 1.4-.2.4-.4.7-.6 1-.3.3-.6.5-1 .6-.4.1-.8.2-1.2.2Zm0-.9c.3 0 .5 0 .8-.1.2-.1.4-.2.6-.4.2-.2.3-.4.4-.7.1-.3.1-.6.1-1s0-.7-.1-1c-.1-.3-.2-.5-.4-.7-.2-.2-.4-.3-.6-.4-.2-.1-.5-.1-.8-.1-.3 0-.5 0-.8.1-.2.1-.4.2-.6.4-.2.2-.3.4-.4.7-.1.3-.1.6-.1 1s0 .7.1 1c.1.3.2.5.4.7.2.2.4.3.6.4.3 0 .5.1.8.1Zm7.5.6c-.3.2-.8.4-1.4.4-.6 0-1-.2-1.4-.5-.4-.3-.5-.8-.5-1.5v-4.4h1.1v4.4c0 .2 0 .4.1.5.1.1.1.2.2.3.1.1.2.1.4.2h.5c.5 0 .8-.1 1.1-.3.3-.2.5-.5.7-.9v-4.2h1.1v6.2h-.9l-.1-1.1c-.3.3-.5.6-.9.9Zm5.5-4.6c-.4.2-.6.5-.8.9v4h-1.1v-6.2h.9l.1 1.4c.2-.4.4-.7.8-1 .3-.3.8-.4 1.3-.5v1.2c-.5-.1-.9 0-1.2.2Zm5 4.9c-.5 0-.9-.1-1.3-.2s-.7-.4-1-.6c-.3-.3-.5-.6-.6-1-.1-.4-.2-.9-.2-1.4 0-.5.1-1 .2-1.4.1-.4.4-.7.6-1 .3-.3.6-.5 1-.6.4-.1.8-.2 1.3-.2.4 0 .7 0 1.1.1.3.1.6.2.8.4v.9c-.3-.2-.5-.3-.9-.4-.4-.1-.6-.1-1-.1-.7 0-1.3.2-1.6.6-.3.4-.5 1-.5 1.7 0 .8.2 1.4.5 1.7.3.4.8.6 1.6.6.4 0 .7 0 1-.1.3-.1.6-.2.9-.4v.9c-.2.1-.5.3-.8.3-.4.2-.7.2-1.1.2Zm8.1-.6c-.1.1-.2.1-.3.2-.1.1-.3.1-.5.2s-.4.1-.6.2c-.2 0-.5.1-.8.1-1 0-1.8-.3-2.4-.9-.5-.6-.8-1.4-.8-2.4 0-.5.1-1 .2-1.4.1-.4.4-.7.6-1 .3-.3.6-.5.9-.6.4-.1.8-.2 1.2-.2.4 0 .8.1 1.2.2.4.2.6.4.9.7.3.3.4.7.5 1.1.1.4.1.9 0 1.5h-4.4c0 .7.2 1.2.6 1.5.4.3.9.5 1.6.5.5 0 .9-.1 1.2-.2.3-.1.6-.3.9-.4v.9Zm-2.5-4.9c-.5 0-.8.1-1.2.4-.3.3-.5.7-.6 1.3h3.3c0-.6-.1-1-.4-1.3-.3-.3-.6-.4-1.1-.4Zm-117.534-14.777h-1.507l-1.684-5.85-1.684 5.85h-1.507L200 94h1.064l1.418 6.736 1.95-6.736h.886l1.95 6.648L208.686 94h.975l-1.595 7.623Zm4.166-4.255c-.355.178-.532.443-.709.798v3.545h-.975v-5.495h.797l.089 1.24c.177-.354.355-.62.709-.886.266-.265.709-.354 1.152-.443v1.064c-.354-.089-.709 0-1.063.177Zm2.748-2.038a.679.679 0 0 1-.444-.178.68.68 0 0 1-.177-.443.68.68 0 0 1 .177-.443.679.679 0 0 1 .444-.177c.177 0 .354.088.443.177a.68.68 0 0 1 .177.443.68.68 0 0 1-.177.443.678.678 0 0 1-.443.177Zm.443.797v5.496h-.975v-5.496h.975Zm3.811 5.496c-.177 0-.355.088-.532.088-.266 0-.532 0-.709-.088-.177-.089-.354-.178-.443-.355-.089-.088-.177-.266-.266-.443-.089-.177-.089-.355-.089-.532v-3.457h-.62v-.797h.62v-1.153h.975v1.153h1.596v.797h-1.596v3.369c0 .265.089.443.178.531.088.089.354.178.62.178s.532-.089.798-.266v.886c-.266 0-.355.089-.532.089Zm5.939-.443c-.089.088-.178.088-.266.177-.089.088-.266.088-.443.177-.178.089-.355.089-.532.177-.177 0-.443.089-.709.089-.887 0-1.596-.266-2.128-.798-.443-.532-.709-1.24-.709-2.127a5.2 5.2 0 0 1 .178-1.24c.088-.356.354-.621.531-.887.266-.266.532-.444.798-.532.355-.089.709-.177 1.064-.177.354 0 .709.088 1.063.177.355.177.532.354.798.62s.355.62.443.975c.089.355.089.798 0 1.33h-3.9c0 .62.178 1.064.532 1.329.355.266.798.444 1.418.444.444 0 .798-.089 1.064-.178.266-.088.532-.266.798-.354v.798Zm-2.128-4.344c-.443 0-.709.089-1.063.355-.266.266-.443.62-.532 1.152h2.925c0-.532-.089-.886-.355-1.152-.265-.266-.62-.355-.975-.355Z"/>
    <path fill="#000" d="M107.1 113h1.7l3.1 8.6h-1.2l-.9-2.5H106l-.9 2.5H104l3.1-8.6Zm2.3 5.1-1.5-4.3-1.5 4.3h3Zm6.7 3.6c-.5 0-.9-.1-1.2-.3-.3-.2-.6-.5-.8-.9v3.3H113v-8.4h.9l.1 1.2c.2-.4.5-.7.8-1 .4-.2.8-.4 1.3-.4.4 0 .7.1 1 .2.3.1.6.3.9.6.3.3.5.6.6 1 .1.4.2.9.2 1.4 0 .6-.1 1-.2 1.4-.2.4-.4.7-.6 1-.3.3-.6.5-.9.6-.3.3-.6.3-1 .3Zm-.2-.9c.6 0 1-.2 1.3-.6.3-.4.5-1 .5-1.7 0-.8-.2-1.3-.5-1.7-.3-.4-.8-.6-1.3-.6-.3 0-.5 0-.8.1-.2.1-.4.2-.6.4-.2.2-.3.4-.4.7-.1.3-.1.6-.1 1s0 .7.1 1c.1.3.2.5.4.7.2.2.4.3.6.4.3.2.6.3.8.3Zm7.4.9c-.5 0-.9-.1-1.2-.3-.3-.2-.6-.5-.8-.9v3.3h-1.1v-8.4h.9l.1 1.2c.2-.4.5-.7.8-1 .4-.2.8-.4 1.3-.4.4 0 .7.1 1 .2.3.1.6.3.9.6.3.3.5.6.6 1 .1.4.2.9.2 1.4 0 .6-.1 1-.2 1.4-.2.4-.4.7-.6 1-.3.3-.6.5-.9.6-.3.3-.6.3-1 .3Zm-.2-.9c.6 0 1-.2 1.3-.6.3-.4.5-1 .5-1.7 0-.8-.2-1.3-.5-1.7-.3-.4-.8-.6-1.3-.6-.3 0-.5 0-.8.1-.2.1-.4.2-.6.4-.2.2-.3.4-.4.7-.1.3-.1.6-.1 1s0 .7.1 1c.1.3.2.5.4.7.2.2.4.3.6.4.3.2.6.3.8.3Z"/>
    <path fill="#262626" d="M401.688 90.902a4.103 4.103 0 0 1-1.493-.264c-.439-.175-.878-.439-1.141-.79-.264-.351-.615-.702-.791-1.229-.175-.439-.263-1.053-.263-1.668s.088-1.141.263-1.668c.176-.527.439-.878.703-1.23.351-.35.702-.614 1.141-.79.439-.175.966-.263 1.581-.263.526 0 .965.088 1.316.176.352.087.703.263.966.35v.967c-.351-.176-.702-.352-1.053-.44-.439-.087-.791-.175-1.229-.175-.878 0-1.581.263-2.02.702-.439.527-.614 1.23-.614 2.195 0 .966.263 1.756.702 2.283.439.527 1.141.702 2.019.702.351 0 .79-.087 1.142-.175a2.965 2.965 0 0 0 1.053-.527v.966c-.175.175-.527.351-.878.439-.439.351-.878.439-1.404.439Zm6.233-4.829c-.439 0-.79.088-1.053.263-.264.176-.439.44-.615.703v3.687h-.966v-7.55h.966v3.073c.176-.352.351-.527.703-.79.351-.176.702-.352 1.229-.352.526 0 .965.176 1.317.44.351.263.439.702.439 1.316v3.863h-.966v-3.775c0-.351-.088-.615-.264-.79-.175 0-.439-.088-.79-.088Zm6.673 3.687c-.088.088-.176.264-.264.44-.087.175-.263.263-.351.35-.088.088-.351.176-.527.264-.175.088-.439.088-.702.088-.527 0-.878-.176-1.229-.44-.264-.263-.439-.702-.439-1.228 0-.615.175-1.054.614-1.317.439-.264 1.054-.44 1.756-.44h1.054v-.438c0-.352-.088-.615-.263-.79-.176-.176-.527-.264-1.054-.264-.351 0-.615.088-.966.176-.263.088-.614.263-.79.35v-.79c.176-.087.439-.263.79-.35.351-.088.703-.176 1.142-.176.702 0 1.229.176 1.58.439s.527.702.527 1.317v3.775h-.878c0-.088 0-.263-.088-.439v-.439l.088-.088Zm-1.668.352c.263 0 .526-.088.702-.176.176-.088.351-.263.527-.439.088-.176.175-.351.263-.439.088-.176.088-.263.088-.351v-.44h-.966c-.527 0-.966.089-1.229.264-.263.176-.351.44-.351.703 0 .263.088.439.263.614.176.176.439.264.703.264Zm6.584-4.039c-.439 0-.79.088-1.053.263-.264.176-.439.44-.615.703v3.687h-.966v-5.443h.878v.966c.176-.352.352-.615.703-.79.351-.176.702-.264 1.229-.264.527 0 .966.176 1.317.439s.439.702.439 1.317v3.863h-.966v-3.775c0-.352-.088-.615-.263-.79-.088-.088-.351-.176-.703-.176Zm8.166 4.302c0 .351-.088.702-.176.966a1.364 1.364 0 0 1-.527.702c-.263.176-.527.351-.878.44-.351.087-.79.175-1.229.175h-.702c-.176 0-.351-.088-.527-.088-.176 0-.263-.088-.351-.176-.088-.087-.176-.087-.264-.175v-.79c.088.087.264.087.352.175.087.088.263.088.439.176.175 0 .351.088.526.088h.615c.702 0 1.141-.088 1.405-.352.263-.263.439-.614.439-1.141v-.878c-.176.351-.352.615-.703.79-.263.176-.614.264-1.053.264-.352 0-.615-.088-.878-.176-.264-.088-.527-.263-.79-.527-.264-.263-.439-.527-.527-.79a3.887 3.887 0 0 1-.176-1.141c0-.44.088-.878.176-1.142.088-.263.263-.614.527-.878.263-.263.438-.35.79-.526a3.15 3.15 0 0 1 .965-.176c.439 0 .791.088 1.142.263.263.176.527.44.702.79v-.964h.878v5.091h-.175Zm-2.459-.615c.264 0 .439 0 .615-.087.175-.088.351-.176.527-.352.175-.175.263-.35.351-.614.088-.263.088-.527.088-.79 0-.615-.176-1.054-.439-1.405-.264-.351-.703-.44-1.142-.44-.263 0-.439 0-.614.089a1.838 1.838 0 0 0-.527.35c-.176.177-.264.352-.351.615-.088.264-.088.527-.088.79 0 .352 0 .615.088.79.087.264.175.44.351.528.176.175.351.263.527.35.175.089.351.176.614.176Zm8.341.615c-.088.088-.175.088-.263.176-.088.087-.264.087-.439.175-.176.088-.351.088-.527.176-.176 0-.439.088-.702.088-.878 0-1.581-.264-2.107-.79-.439-.527-.703-1.23-.703-2.108 0-.439.088-.878.176-1.229.088-.351.351-.614.527-.878.263-.263.526-.439.79-.527.351-.087.702-.175 1.053-.175s.703.088 1.054.175c.351.176.527.352.79.615s.351.615.439.966c.088.35.088.79 0 1.317h-3.863c0 .614.175 1.053.527 1.317.351.263.79.439 1.404.439.439 0 .791-.088 1.054-.176s.527-.263.79-.351v.79Zm-2.195-4.302c-.439 0-.702.088-1.053.351-.264.263-.439.615-.527 1.141h2.897c0-.526-.088-.877-.351-1.14-.263-.264-.527-.352-.966-.352Zm9.658 3.687c-.176.352-.439.615-.703.878-.263.264-.702.352-1.141.352-.351 0-.615-.088-.966-.176s-.526-.263-.79-.527c-.263-.263-.439-.527-.527-.878-.175-.351-.175-.79-.175-1.229 0-.439.088-.878.175-1.23.088-.35.352-.614.527-.877.264-.263.527-.44.79-.527.264-.088.615-.175.966-.175.439 0 .79.087 1.054.263.263.175.526.439.702.702v-2.985h.966v7.55h-.79l-.088-1.14Zm-1.756.352c.263 0 .439 0 .702-.088.176-.088.351-.176.527-.351.176-.176.263-.352.351-.615.088-.263.088-.527.088-.878s-.088-.615-.088-.878c-.088-.263-.175-.439-.351-.615a1.838 1.838 0 0 0-.527-.35c-.175-.088-.439-.088-.702-.088-.527 0-.878.175-1.229.526-.264.351-.439.878-.439 1.493 0 .702.175 1.141.439 1.492.263.352.79.352 1.229.352Zm7.375-.352c-.088.088-.176.264-.264.44-.087.175-.263.263-.351.35-.088.088-.351.176-.527.264-.175.088-.439.088-.702.088-.527 0-.878-.176-1.229-.44-.263-.263-.439-.702-.439-1.228 0-.615.176-1.054.615-1.317.439-.264 1.053-.44 1.755-.44h1.054v-.438c0-.352-.088-.615-.263-.79-.176-.176-.527-.264-1.054-.264-.351 0-.614.088-.966.176-.263.088-.614.263-.79.35v-.79c.176-.087.439-.263.79-.35.352-.088.703-.176 1.142-.176.702 0 1.229.176 1.58.439s.527.702.527 1.317v3.775h-.878c0-.088 0-.263-.088-.439v-.439l.088-.088Zm-1.668.352c.263 0 .526-.088.702-.176.176-.088.351-.263.527-.439.088-.176.175-.351.263-.439.088-.176.088-.263.088-.351v-.44h-.966c-.527 0-.966.089-1.229.264-.263.176-.351.44-.351.703 0 .263.088.439.263.614.176.176.439.264.703.264Zm6.233.702c-.175 0-.351.088-.526.088-.264 0-.527 0-.703-.088-.175-.088-.351-.176-.439-.351-.087-.088-.175-.264-.263-.44-.088-.175-.088-.35-.088-.526v-3.424h-.614v-.79h.614V84.14h.966v1.142h1.58v.79h-1.58v3.336c0 .264.088.44.175.527.088.088.352.176.615.176s.527-.088.79-.264v.878c-.175 0-.351.088-.527.088Zm4.917-1.054c-.088.088-.176.264-.263.44-.088.175-.264.263-.352.35-.087.088-.351.176-.526.264-.176.088-.439.088-.703.088-.527 0-.878-.176-1.229-.44-.263-.263-.439-.702-.439-1.228 0-.615.176-1.054.615-1.317.439-.264 1.053-.44 1.756-.44h1.053v-.438c0-.352-.088-.615-.263-.79-.176-.176-.527-.264-1.054-.264-.351 0-.614.088-.966.176-.263.088-.614.263-.79.35v-.79c.176-.087.439-.263.79-.35.352-.088.703-.176 1.142-.176.702 0 1.229.176 1.58.439s.527.702.527 1.317v3.775h-.878c0-.088 0-.263-.088-.439v-.439l.088-.088Zm-1.668.352c.263 0 .527-.088.702-.176.176-.088.351-.263.527-.439.088-.176.176-.351.263-.439.088-.176.088-.263.088-.351v-.44h-.966c-.526 0-.965.089-1.229.264-.263.176-.351.44-.351.703 0 .263.088.439.263.614.176.176.352.264.703.264Zm-41.563 12.94c-.439 0-.79-.088-1.141-.176-.351-.087-.615-.351-.878-.526-.263-.264-.439-.527-.527-.878a5.17 5.17 0 0 1-.175-1.229c0-.44.087-.878.175-1.23.088-.35.351-.614.527-.878.263-.263.527-.439.878-.526.351-.088.702-.176 1.141-.176.352 0 .615 0 .966.088.264.088.527.175.702.351v.79a2.16 2.16 0 0 0-.79-.351c-.351-.088-.526-.088-.878-.088-.614 0-1.141.176-1.404.527-.264.351-.439.878-.439 1.493 0 .702.175 1.229.439 1.492.263.351.702.527 1.404.527.352 0 .615 0 .878-.088.264-.088.527-.175.79-.351v.79c-.175.088-.438.263-.702.263-.263.176-.527.176-.966.176Zm6.058-1.141c-.087.088-.175.263-.263.439-.088.175-.263.263-.351.351-.088.088-.351.176-.527.263-.176.088-.439.088-.702.088-.527 0-.878-.175-1.23-.439-.263-.263-.438-.702-.438-1.229 0-.615.175-1.054.614-1.317.439-.263 1.054-.439 1.756-.439h1.054v-.439c0-.351-.088-.614-.264-.79-.175-.176-.527-.264-1.053-.264-.352 0-.615.088-.966.176a6.865 6.865 0 0 0-.79.351v-.79c.175-.088.439-.263.79-.351.351-.088.702-.176 1.141-.176.703 0 1.229.176 1.581.44.351.263.526.702.526 1.316v3.776h-.878c0-.088 0-.264-.087-.439v-.439l.087-.088Zm-1.668.351c.264 0 .527-.088.703-.176.175-.087.351-.263.526-.439.088-.175.176-.351.264-.439.088-.175.088-.263.088-.351v-.439h-.966c-.527 0-.966.088-1.229.264-.264.175-.352.439-.352.702 0 .263.088.439.264.615.175.175.439.263.702.263Zm6.761.79c-.439 0-.791-.088-1.054-.263a2.074 2.074 0 0 1-.702-.79v2.897h-.966v-7.375h.79l.088 1.053c.175-.35.439-.614.702-.877.351-.176.703-.352 1.142-.352.351 0 .614.088.878.176.263.088.526.263.79.527.263.263.439.526.527.878.087.35.175.79.175 1.229 0 .527-.088.878-.175 1.229-.176.351-.352.615-.527.878-.264.263-.527.439-.79.527a1.702 1.702 0 0 1-.878.263Zm-.176-.79c.527 0 .878-.176 1.141-.527.264-.351.439-.878.439-1.492 0-.703-.175-1.142-.439-1.493-.263-.351-.702-.527-1.141-.527-.263 0-.439 0-.702.088-.176.088-.352.176-.527.351-.176.176-.264.351-.351.615-.088.263-.088.527-.088.878s0 .614.088.878c.087.263.175.439.351.614.175.176.351.264.527.352.263.175.439.263.702.263Zm5.883.702c-.176 0-.352.088-.527.088-.264 0-.527 0-.703-.088-.175-.087-.351-.175-.439-.351-.087-.088-.175-.263-.263-.439-.088-.175-.088-.351-.088-.527v-3.424h-.614v-.79h.614v-1.141h.966v1.141h1.58v.79h-1.58v3.337c0 .263.088.439.176.526.087.088.351.176.614.176.264 0 .527-.088.79-.263v.878c-.175 0-.351.087-.526.087Zm4.477-.175a2.275 2.275 0 0 1-1.229.351c-.527 0-.878-.176-1.229-.439-.351-.263-.439-.702-.439-1.317v-3.863h.966v3.863c0 .176 0 .351.088.439.087.088.087.176.175.263.088.088.176.088.351.176h.439c.439 0 .703-.088.966-.263.263-.176.439-.439.615-.791v-3.687h.965v5.443h-.79l-.088-.965c-.175.263-.439.526-.79.79Zm4.829-4.039c-.351.176-.527.439-.702.79v3.512h-.966v-5.443h.79l.088 1.229c.175-.351.351-.615.702-.878.264-.263.703-.351 1.142-.44v1.054c-.439-.087-.791 0-1.054.176Zm6.409 3.775c-.087.088-.175.088-.263.176-.088.088-.263.088-.439.175-.176.088-.351.088-.527.176-.175 0-.439.088-.702.088-.878 0-1.581-.263-2.107-.79-.439-.527-.703-1.229-.703-2.107 0-.44.088-.878.176-1.23.088-.35.351-.614.527-.878.263-.263.526-.439.79-.526.351-.088.702-.176 1.053-.176.352 0 .703.088 1.054.176.351.175.527.35.79.614.264.264.351.615.439.966.088.351.088.79 0 1.317h-3.863c0 .615.176 1.054.527 1.317.351.263.79.439 1.405.439.439 0 .79-.088 1.053-.176.264-.087.527-.263.79-.351v.79Zm-2.195-4.302c-.439 0-.702.088-1.053.351-.264.264-.439.615-.527 1.142h2.897c0-.527-.087-.878-.351-1.142-.263-.263-.527-.35-.966-.35Z"/>
</svg>
