<svg width="1100" height="250" viewBox="0 0 1100 250" fill="none" xmlns="http://www.w3.org/2000/svg">
<rect width="1100" height="250" fill="white"/>
<path d="M472 114L467 111.113V116.887L472 114ZM380 114.5H467.5V113.5H380V114.5Z" fill="#262626"/>
<path d="M668 114L663 111.113L663 116.887L668 114ZM612 114.5L663.5 114.5L663.5 113.5L612 113.5L612 114.5Z" fill="#262626"/>
<path d="M242 114L237 111.113L237 116.887L242 114ZM186 114.5L237.5 114.5L237.5 113.5L186 113.5L186 114.5Z" fill="#262626"/>
<rect x="50" y="87" width="130" height="60" rx="8" fill="#EEF3FE"/>
<rect x="246" y="87" width="130" height="60" rx="8" fill="#EEF3FE"/>
<path d="M798.5 158.4H799.9L802.5 165.6H801.5L800.8 163.6H797.6L796.9 165.6H796L798.5 158.4ZM800.4 162.7L799.1 159.1L797.8 162.7H800.4Z" fill="#262626"/>
<path d="M806 165.7C805.6 165.7 805.3 165.6 805 165.4C804.7 165.2 804.5 165 804.3 164.6V167.3H803.4V160.3H804.2L804.3 161.3C804.5 161 804.7 160.7 805 160.5C805.3 160.3 805.7 160.2 806.1 160.2C806.4 160.2 806.7 160.3 807 160.4C807.3 160.5 807.5 160.7 807.7 160.9C807.9 161.1 808.1 161.4 808.2 161.7C808.3 162 808.4 162.4 808.4 162.9C808.4 163.4 808.3 163.8 808.2 164.1C808.1 164.4 807.9 164.7 807.7 164.9C807.5 165.1 807.2 165.3 807 165.4C806.6 165.7 806.3 165.7 806 165.7ZM805.9 164.9C806.4 164.9 806.7 164.7 807 164.4C807.3 164.1 807.4 163.6 807.4 163C807.4 162.4 807.3 161.9 807 161.6C806.7 161.3 806.3 161.1 805.9 161.1C805.7 161.1 805.5 161.1 805.3 161.2C805.1 161.3 804.9 161.4 804.8 161.6C804.7 161.8 804.5 162 804.5 162.2C804.4 162.4 804.4 162.7 804.4 163C804.4 163.3 804.4 163.6 804.5 163.8C804.6 164 804.7 164.2 804.8 164.4C804.9 164.6 805.1 164.7 805.3 164.8C805.4 164.9 805.6 164.9 805.9 164.9Z" fill="#262626"/>
<path d="M812.4 164.6C812.3 164.7 812.3 164.8 812.2 165C812.1 165.2 812 165.2 811.9 165.4C811.8 165.5 811.6 165.6 811.4 165.7C811.2 165.8 811 165.8 810.7 165.8C810.2 165.8 809.9 165.7 809.6 165.4C809.3 165.1 809.2 164.8 809.2 164.3C809.2 163.7 809.4 163.3 809.8 163C810.2 162.7 810.8 162.6 811.5 162.6H812.5V162.2C812.5 161.8 812.4 161.6 812.2 161.4C812 161.2 811.7 161.2 811.2 161.2C810.9 161.2 810.6 161.3 810.3 161.4C810 161.5 809.8 161.6 809.5 161.8V160.8C809.7 160.7 809.9 160.6 810.3 160.5C810.6 160.4 811 160.3 811.3 160.3C812 160.3 812.4 160.4 812.8 160.7C813.1 161 813.3 161.4 813.3 162V164.8C813.3 164.9 813.3 164.9 813.3 165C813.3 165.1 813.3 165.2 813.3 165.2C813.3 165.3 813.3 165.4 813.3 165.4C813.3 165.5 813.3 165.5 813.3 165.6H812.5C812.5 165.5 812.5 165.4 812.4 165.2C812.4 165 812.4 164.9 812.4 164.8V164.6ZM810.8 164.9C811.1 164.9 811.3 164.8 811.5 164.7C811.7 164.6 811.8 164.5 812 164.3C812.1 164.1 812.2 164 812.3 163.9C812.4 163.8 812.4 163.7 812.4 163.6V163.2H811.5C811 163.2 810.6 163.3 810.4 163.4C810.2 163.6 810 163.8 810 164.1C810 164.3 810.1 164.5 810.2 164.7C810.3 164.9 810.5 164.9 810.8 164.9Z" fill="#262626"/>
<path d="M816.8 165.7C816.4 165.7 816 165.6 815.7 165.5C815.4 165.4 815.1 165.2 814.9 165C814.7 164.8 814.5 164.5 814.4 164.2C814.3 163.9 814.2 163.5 814.2 163.1C814.2 162.7 814.3 162.3 814.4 162C814.5 161.7 814.7 161.4 814.9 161.2C815.1 161 815.4 160.8 815.7 160.7C816 160.6 816.4 160.5 816.8 160.5C817.1 160.5 817.4 160.5 817.7 160.6C818 160.7 818.2 160.8 818.4 160.9V161.7C818.2 161.6 817.9 161.5 817.7 161.4C817.4 161.3 817.2 161.3 816.9 161.3C816.3 161.3 815.8 161.5 815.6 161.8C815.3 162.1 815.2 162.6 815.2 163.2C815.2 163.8 815.3 164.3 815.6 164.6C815.9 164.9 816.3 165.1 816.9 165.1C817.2 165.1 817.5 165.1 817.8 165C818.1 164.9 818.3 164.8 818.5 164.7V165.5C818.3 165.6 818.1 165.7 817.8 165.8C817.5 165.7 817.2 165.7 816.8 165.7Z" fill="#262626"/>
<path d="M822 161.1C821.6 161.1 821.3 161.2 821 161.4C820.7 161.6 820.5 161.8 820.4 162.1V165.6H819.5V158.4H820.4V160.4V161.3C820.5 161 820.8 160.8 821.1 160.6C821.4 160.4 821.8 160.3 822.2 160.3C822.7 160.3 823.1 160.4 823.4 160.7C823.7 161 823.9 161.4 823.9 161.9V165.5H823V162C823 161.6 822.9 161.4 822.7 161.2C822.5 161.2 822.3 161.1 822 161.1Z" fill="#262626"/>
<path d="M829.4 165.2C829.3 165.3 829.2 165.3 829.1 165.4C829 165.5 828.9 165.5 828.7 165.6C828.5 165.7 828.4 165.7 828.2 165.7C828 165.7 827.8 165.8 827.6 165.8C826.7 165.8 826.1 165.6 825.6 165.1C825.1 164.6 824.9 164 824.9 163.1C824.9 162.7 825 162.3 825.1 162C825.2 161.7 825.4 161.4 825.6 161.2C825.8 161 826.1 160.8 826.4 160.7C826.7 160.6 827 160.5 827.4 160.5C827.8 160.5 828.1 160.6 828.4 160.7C828.7 160.8 828.9 161 829.1 161.3C829.3 161.5 829.4 161.9 829.5 162.2C829.6 162.6 829.6 163 829.5 163.5H825.8C825.8 164.1 826 164.5 826.3 164.8C826.6 165.1 827 165.2 827.6 165.2C828 165.2 828.3 165.1 828.6 165C828.9 164.9 829.1 164.8 829.3 164.6V165.2H829.4ZM827.3 161.1C826.9 161.1 826.6 161.2 826.3 161.4C826 161.6 825.9 162 825.8 162.5H828.6C828.6 162 828.5 161.7 828.3 161.4C828 161.2 827.7 161.1 827.3 161.1Z" fill="#262626"/>
<path d="M834.6 162.5H833.8V165.6H832.9V158.4H833.8V161.7H834.5L837.1 158.4H838.2L835.4 162L838.3 165.6H837.1L834.6 162.5Z" fill="#262626"/>
<path d="M842 164.6C841.9 164.7 841.9 164.8 841.8 165C841.7 165.2 841.6 165.2 841.5 165.4C841.4 165.5 841.2 165.6 841 165.7C840.8 165.8 840.6 165.8 840.3 165.8C839.8 165.8 839.5 165.7 839.2 165.4C838.9 165.1 838.8 164.8 838.8 164.3C838.8 163.7 839 163.3 839.4 163C839.8 162.7 840.4 162.6 841.1 162.6H842.1V162.2C842.1 161.8 842 161.6 841.8 161.4C841.6 161.2 841.3 161.2 840.8 161.2C840.5 161.2 840.2 161.3 839.9 161.4C839.6 161.5 839.4 161.6 839.1 161.8V160.8C839.3 160.7 839.5 160.6 839.9 160.5C840.2 160.4 840.6 160.3 840.9 160.3C841.6 160.3 842 160.4 842.4 160.7C842.7 161 842.9 161.4 842.9 162V164.8C842.9 164.9 842.9 164.9 842.9 165C842.9 165.1 842.9 165.2 842.9 165.2C842.9 165.3 842.9 165.4 842.9 165.4C842.9 165.5 842.9 165.5 842.9 165.6H842.1C842.1 165.5 842.1 165.4 842 165.2C842 165 842 164.9 842 164.8V164.6ZM840.5 164.9C840.8 164.9 841 164.8 841.2 164.7C841.4 164.6 841.5 164.5 841.7 164.3C841.8 164.1 841.9 164 842 163.9C842.1 163.8 842.1 163.7 842.1 163.6V163.2H841.2C840.7 163.2 840.3 163.3 840.1 163.4C839.9 163.6 839.7 163.8 839.7 164.1C839.7 164.3 839.8 164.5 839.9 164.7C840 164.9 840.2 164.9 840.5 164.9Z" fill="#262626"/>
<path d="M845.5 161.2V165.6H844.6V161.2H844V160.4H844.6V160.3C844.6 159.7 844.8 159.2 845.1 158.9C845.4 158.6 845.9 158.4 846.4 158.4C846.6 158.4 846.9 158.4 847.1 158.5V159.3C847 159.3 847 159.3 846.8 159.2C846.7 159.2 846.6 159.2 846.4 159.2C846.1 159.2 845.9 159.3 845.7 159.5C845.5 159.7 845.4 160 845.4 160.4V160.5H846.9V161.3H845.5V161.2Z" fill="#262626"/>
<path d="M849.3 163.4H848.8V165.6H847.9V158.4H848.8V162.6H849.3L851.1 160.4H852.1L850 163L852.2 165.6H851.1L849.3 163.4Z" fill="#262626"/>
<path d="M855.9 164.6C855.8 164.7 855.8 164.8 855.7 165C855.6 165.2 855.5 165.2 855.4 165.4C855.3 165.5 855.1 165.6 854.9 165.7C854.7 165.8 854.5 165.8 854.2 165.8C853.7 165.8 853.4 165.7 853.1 165.4C852.8 165.1 852.7 164.8 852.7 164.3C852.7 163.7 852.9 163.3 853.3 163C853.7 162.7 854.3 162.6 855 162.6H856V162.2C856 161.8 855.9 161.6 855.7 161.4C855.5 161.2 855.2 161.2 854.7 161.2C854.4 161.2 854.1 161.3 853.8 161.4C853.5 161.5 853.3 161.6 853 161.8V160.8C853.2 160.7 853.4 160.6 853.8 160.5C854.1 160.4 854.5 160.3 854.8 160.3C855.5 160.3 855.9 160.4 856.3 160.7C856.6 161 856.8 161.4 856.8 162V164.8C856.8 164.9 856.8 164.9 856.8 165C856.8 165.1 856.8 165.2 856.8 165.2C856.8 165.3 856.8 165.4 856.8 165.4C856.8 165.5 856.8 165.5 856.8 165.6H856C856 165.5 856 165.4 855.9 165.2C855.9 165 855.9 164.9 855.9 164.8V164.6ZM854.3 164.9C854.6 164.9 854.8 164.8 855 164.7C855.2 164.6 855.3 164.5 855.5 164.3C855.6 164.1 855.7 164 855.8 163.9C855.9 163.8 855.9 163.7 855.9 163.6V163.2H855C854.5 163.2 854.1 163.3 853.9 163.4C853.7 163.6 853.5 163.8 853.5 164.1C853.5 164.3 853.6 164.5 853.7 164.7C853.8 164.9 854 164.9 854.3 164.9Z" fill="#262626"/>
<path d="M864.1 166.6C863.5 166.6 863 166.5 862.5 166.3C862 166.1 861.6 165.8 861.2 165.4C860.8 165 860.5 164.6 860.3 164.1C860.1 163.6 860 163 860 162.4C860 161.8 860.1 161.3 860.3 160.8C860.5 160.3 860.8 159.9 861.2 159.5C861.6 159.1 862 158.9 862.5 158.7C863 158.5 863.5 158.4 864.1 158.4C864.7 158.4 865.2 158.5 865.7 158.7C866.2 158.9 866.6 159.2 867 159.5C867.4 159.9 867.7 160.3 867.9 160.8C868.1 161.3 868.2 161.8 868.2 162.4C868.2 163 868.1 163.6 867.9 164.1C867.7 164.6 867.4 165 867 165.4C866.6 165.8 866.2 166.1 865.7 166.3C865.2 166.5 864.7 166.6 864.1 166.6ZM864.1 166C864.6 166 865.1 165.9 865.5 165.7C865.9 165.5 866.3 165.3 866.6 165C866.9 164.7 867.1 164.3 867.3 163.9C867.5 163.5 867.6 163 867.6 162.5C867.6 162 867.5 161.5 867.3 161.1C867.1 160.7 866.9 160.3 866.6 160C866.3 159.7 865.9 159.4 865.5 159.3C865.1 159.1 864.6 159 864.1 159C863.6 159 863.1 159.1 862.7 159.3C862.3 159.5 861.9 159.7 861.6 160C861.3 160.3 861.1 160.7 860.9 161.1C860.7 161.5 860.6 162 860.6 162.5C860.6 163 860.7 163.5 860.9 163.9C861.1 164.3 861.3 164.7 861.6 165C861.9 165.3 862.3 165.6 862.7 165.7C863.1 165.9 863.6 166 864.1 166ZM864.3 164.6C863.6 164.6 863.1 164.4 862.7 164C862.3 163.6 862.1 163.1 862.1 162.4C862.1 161.7 862.3 161.2 862.7 160.8C863.1 160.4 863.6 160.2 864.3 160.2C864.6 160.2 864.8 160.2 865 160.3C865.2 160.4 865.4 160.4 865.5 160.5V161.2C865.3 161.1 865.2 161 865 161C864.8 161 864.6 160.9 864.4 160.9C863.5 160.9 863.1 161.4 863.1 162.3C863.1 162.8 863.2 163.2 863.5 163.4C863.7 163.6 864.1 163.8 864.5 163.8C864.7 163.8 864.9 163.8 865.1 163.7C865.3 163.6 865.5 163.6 865.6 163.4V164.1C865.5 164.2 865.4 164.3 865.2 164.3C864.8 164.6 864.6 164.6 864.3 164.6Z" fill="#262626"/>
<path d="M868.6 166.8L871.8 158H872.6L869.4 166.8H868.6Z" fill="#262626"/>
<path d="M873.4 158.4H875.8C876.3 158.4 876.7 158.5 877.1 158.6C877.5 158.7 877.9 158.9 878.2 159.2C878.5 159.5 878.7 159.8 878.9 160.2C879.1 160.6 879.2 161.2 879.2 161.8C879.2 162.4 879.1 163 878.9 163.5C878.7 164 878.5 164.4 878.2 164.7C877.9 165 877.5 165.3 877.1 165.4C876.7 165.6 876.2 165.6 875.7 165.6H873.4V158.4ZM874.4 159.3V164.8H875.8C876.2 164.8 876.5 164.7 876.8 164.6C877.1 164.5 877.4 164.3 877.6 164.1C877.8 163.9 878 163.6 878.1 163.2C878.2 162.8 878.3 162.4 878.3 161.9C878.3 161.4 878.2 161 878.1 160.7C878 160.4 877.8 160.1 877.6 159.9C877.4 159.7 877.1 159.6 876.8 159.5C876.5 159.4 876.2 159.4 875.8 159.4H874.4V159.3Z" fill="#262626"/>
<path d="M883.4 164.6C883.3 164.7 883.3 164.8 883.2 165C883.1 165.2 883 165.2 882.9 165.4C882.8 165.5 882.6 165.6 882.4 165.7C882.2 165.8 882 165.8 881.7 165.8C881.2 165.8 880.9 165.7 880.6 165.4C880.3 165.1 880.2 164.8 880.2 164.3C880.2 163.7 880.4 163.3 880.8 163C881.2 162.7 881.8 162.6 882.5 162.6H883.5V162.2C883.5 161.8 883.4 161.6 883.2 161.4C883 161.2 882.7 161.2 882.2 161.2C881.9 161.2 881.6 161.3 881.3 161.4C881 161.5 880.8 161.6 880.5 161.8V160.8C880.7 160.7 880.9 160.6 881.3 160.5C881.6 160.4 882 160.3 882.3 160.3C883 160.3 883.4 160.4 883.8 160.7C884.1 161 884.3 161.4 884.3 162V164.8C884.3 164.9 884.3 164.9 884.3 165C884.3 165.1 884.3 165.2 884.3 165.2C884.3 165.3 884.3 165.4 884.3 165.4C884.3 165.5 884.3 165.5 884.3 165.6H883.5C883.5 165.5 883.5 165.4 883.4 165.2C883.4 165 883.4 164.9 883.4 164.8V164.6ZM881.8 164.9C882.1 164.9 882.3 164.8 882.5 164.7C882.7 164.6 882.8 164.5 883 164.3C883.1 164.1 883.2 164 883.3 163.9C883.4 163.8 883.4 163.7 883.4 163.6V163.2H882.5C882 163.2 881.6 163.3 881.4 163.4C881.2 163.6 881 163.8 881 164.1C881 164.3 881.1 164.5 881.2 164.7C881.3 164.9 881.5 164.9 881.8 164.9Z" fill="#262626"/>
<path d="M887.7 165.7C887.5 165.7 887.4 165.8 887.2 165.8C886.9 165.8 886.7 165.8 886.6 165.7C886.5 165.6 886.3 165.5 886.2 165.4C886.1 165.3 886 165.1 886 165C885.9 164.8 885.9 164.7 885.9 164.5V161.3H885.3V160.5H885.9V159.4H886.8V160.5H888.3V161.3H886.8V164.4C886.8 164.6 886.9 164.8 887 164.9C887.1 165 887.3 165.1 887.6 165.1C887.9 165.1 888.1 165 888.3 164.9V165.7C888 165.6 887.9 165.6 887.7 165.7Z" fill="#262626"/>
<path d="M892.4 164.6C892.3 164.7 892.3 164.8 892.2 165C892.1 165.2 892 165.2 891.9 165.4C891.8 165.5 891.6 165.6 891.4 165.7C891.2 165.8 891 165.8 890.7 165.8C890.2 165.8 889.9 165.7 889.6 165.4C889.3 165.1 889.2 164.8 889.2 164.3C889.2 163.7 889.4 163.3 889.8 163C890.2 162.7 890.8 162.6 891.5 162.6H892.5V162.2C892.5 161.8 892.4 161.6 892.2 161.4C892 161.2 891.7 161.2 891.2 161.2C890.9 161.2 890.6 161.3 890.3 161.4C890 161.5 889.8 161.6 889.5 161.8V160.8C889.7 160.7 889.9 160.6 890.3 160.5C890.6 160.4 891 160.3 891.3 160.3C892 160.3 892.4 160.4 892.8 160.7C893.1 161 893.3 161.4 893.3 162V164.8C893.3 164.9 893.3 164.9 893.3 165C893.3 165.1 893.3 165.2 893.3 165.2C893.3 165.3 893.3 165.4 893.3 165.4C893.3 165.5 893.3 165.5 893.3 165.6H892.5C892.5 165.5 892.5 165.4 892.4 165.2C892.4 165 892.4 164.9 892.4 164.8V164.6ZM890.8 164.9C891.1 164.9 891.3 164.8 891.5 164.7C891.7 164.6 891.8 164.5 892 164.3C892.1 164.1 892.2 164 892.3 163.9C892.4 163.8 892.4 163.7 892.4 163.6V163.2H891.5C891 163.2 890.6 163.3 890.4 163.4C890.2 163.6 890 163.8 890 164.1C890 164.3 890.1 164.5 890.2 164.7C890.3 164.9 890.5 164.9 890.8 164.9Z" fill="#262626"/>
<path d="M898.9 165.7C898.6 165.7 898.3 165.7 898 165.6C897.7 165.6 897.5 165.5 897.3 165.4C897.1 165.3 896.9 165.3 896.8 165.2C896.7 165.1 896.6 165 896.5 165V164.1C896.6 164.2 896.7 164.3 896.9 164.4C897.1 164.5 897.2 164.6 897.5 164.6C897.8 164.6 897.9 164.7 898.2 164.8C898.4 164.8 898.7 164.9 899 164.9C899.5 164.9 899.9 164.8 900.2 164.6C900.5 164.4 900.7 164.1 900.7 163.7C900.7 163.5 900.7 163.3 900.6 163.2C900.5 163.1 900.4 163 900.3 162.9C900.2 162.8 900 162.7 899.8 162.7C899.6 162.7 899.3 162.6 899.1 162.5C898.8 162.4 898.5 162.3 898.3 162.2C898 162.1 897.8 162 897.5 161.8C897.3 161.6 897.1 161.5 897 161.2C896.9 161 896.8 160.7 896.8 160.3C896.8 159.7 897 159.2 897.5 158.8C897.9 158.5 898.6 158.3 899.5 158.3C899.8 158.3 900 158.3 900.2 158.3C900.4 158.3 900.6 158.4 900.7 158.4C900.9 158.4 901 158.5 901.1 158.5C901.2 158.5 901.3 158.6 901.4 158.7V159.6C901.1 159.4 900.8 159.3 900.5 159.2C900.2 159.1 899.8 159.1 899.4 159.1C899.1 159.1 898.8 159.1 898.6 159.2C898.4 159.2 898.2 159.3 898.1 159.4C898 159.5 897.9 159.6 897.8 159.7C897.7 159.8 897.7 160 897.7 160.2C897.7 160.4 897.7 160.6 897.8 160.7C897.9 160.8 898 160.9 898.2 161C898.4 161.1 898.5 161.2 898.7 161.2C898.9 161.3 899.1 161.3 899.3 161.4C899.6 161.5 899.9 161.5 900.2 161.6C900.5 161.7 900.8 161.8 901 162C901.2 162.2 901.4 162.4 901.6 162.6C901.7 162.8 901.8 163.2 901.8 163.5C901.8 163.9 901.7 164.2 901.6 164.5C901.4 164.8 901.3 165 901 165.1C900.8 165.3 900.5 165.4 900.1 165.5C899.6 165.7 899.2 165.7 898.9 165.7Z" fill="#262626"/>
<path d="M904.8 165.7C904.6 165.7 904.5 165.8 904.3 165.8C904 165.8 903.8 165.8 903.7 165.7C903.6 165.6 903.4 165.5 903.3 165.4C903.2 165.3 903.1 165.1 903.1 165C903 164.8 903 164.7 903 164.5V161.3H902.4V160.5H903V159.4H903.9V160.5H905.4V161.3H903.9V164.4C903.9 164.6 904 164.8 904.1 164.9C904.2 165 904.4 165.1 904.7 165.1C905 165.1 905.2 165 905.4 164.9V165.7C905.1 165.6 904.9 165.6 904.8 165.7Z" fill="#262626"/>
<path d="M907.9 161.6C907.6 161.8 907.4 162 907.2 162.3V165.6H906.3V160.4H907.1L907.2 161.5C907.3 161.2 907.6 160.9 907.8 160.7C908.1 160.5 908.4 160.3 908.9 160.3V161.3C908.5 161.3 908.2 161.4 907.9 161.6Z" fill="#262626"/>
<path d="M914 165.2C913.9 165.3 913.8 165.3 913.7 165.4C913.6 165.5 913.5 165.5 913.3 165.6C913.1 165.7 913 165.7 912.8 165.7C912.6 165.7 912.4 165.8 912.2 165.8C911.3 165.8 910.7 165.6 910.2 165.1C909.7 164.6 909.5 164 909.5 163.1C909.5 162.7 909.6 162.3 909.7 162C909.8 161.7 910 161.4 910.2 161.2C910.4 161 910.7 160.8 911 160.7C911.3 160.6 911.6 160.5 912 160.5C912.4 160.5 912.7 160.6 913 160.7C913.3 160.8 913.5 161 913.7 161.3C913.9 161.5 914 161.9 914.1 162.2C914.2 162.6 914.2 163 914.1 163.5H910.4C910.4 164.1 910.6 164.5 910.9 164.8C911.2 165.1 911.6 165.2 912.2 165.2C912.6 165.2 912.9 165.1 913.2 165C913.5 164.9 913.7 164.8 913.9 164.6V165.2H914ZM911.9 161.1C911.5 161.1 911.2 161.2 910.9 161.4C910.6 161.6 910.5 162 910.4 162.5H913.2C913.2 162 913.1 161.7 912.9 161.4C912.6 161.2 912.3 161.1 911.9 161.1Z" fill="#262626"/>
<path d="M918.2 164.6C918.1 164.7 918.1 164.8 918 165C917.9 165.2 917.8 165.2 917.7 165.4C917.6 165.5 917.4 165.6 917.2 165.7C917 165.8 916.8 165.8 916.5 165.8C916 165.8 915.7 165.7 915.4 165.4C915.1 165.1 915 164.8 915 164.3C915 163.7 915.2 163.3 915.6 163C916 162.7 916.6 162.6 917.3 162.6H918.3V162.2C918.3 161.8 918.2 161.6 918 161.4C917.8 161.2 917.5 161.2 917 161.2C916.7 161.2 916.4 161.3 916.1 161.4C915.8 161.5 915.6 161.6 915.3 161.8V160.8C915.5 160.7 915.7 160.6 916.1 160.5C916.4 160.4 916.8 160.3 917.1 160.3C917.8 160.3 918.2 160.4 918.6 160.7C918.9 161 919.1 161.4 919.1 162V164.8C919.1 164.9 919.1 164.9 919.1 165C919.1 165.1 919.1 165.2 919.1 165.2C919.1 165.3 919.1 165.4 919.1 165.4C919.1 165.5 919.1 165.5 919.1 165.6H918.3C918.3 165.5 918.3 165.4 918.2 165.2C918.2 165 918.2 164.9 918.2 164.8V164.6ZM916.6 164.9C916.9 164.9 917.1 164.8 917.3 164.7C917.5 164.6 917.6 164.5 917.8 164.3C917.9 164.1 918 164 918.1 163.9C918.2 163.8 918.2 163.7 918.2 163.6V163.2H917.3C916.8 163.2 916.4 163.3 916.2 163.4C916 163.6 915.8 163.8 915.8 164.1C915.8 164.3 915.9 164.5 916 164.7C916.1 164.9 916.3 164.9 916.6 164.9Z" fill="#262626"/>
<path d="M921.3 165.6H920.4V160.4H921.2L921.3 161.3C921.4 161 921.7 160.8 921.9 160.6C922.2 160.4 922.5 160.3 923 160.3C923.4 160.3 923.7 160.4 924 160.6C924.3 160.8 924.4 161.1 924.5 161.5C924.6 161.1 924.9 160.9 925.2 160.7C925.5 160.5 925.9 160.4 926.3 160.4C926.8 160.4 927.2 160.5 927.4 160.8C927.7 161.1 927.8 161.5 927.8 162V165.6H926.9V162.1C926.9 161.8 926.8 161.5 926.6 161.4C926.4 161.2 926.2 161.2 925.9 161.2C925.7 161.2 925.5 161.2 925.4 161.3C925.3 161.4 925.1 161.4 925 161.5C924.9 161.6 924.8 161.7 924.7 161.9C924.6 162 924.5 162.2 924.4 162.3V165.7H923.5V162.1C923.5 161.8 923.4 161.5 923.2 161.4C923 161.3 922.8 161.2 922.5 161.2C922.3 161.2 922.1 161.2 922 161.3C921.9 161.3 921.7 161.4 921.6 161.5C921.5 161.6 921.4 161.7 921.3 161.8C921.2 161.9 921.1 162.1 921 162.2V165.6H921.3Z" fill="#262626"/>
<path d="M930.9 165.7C930.6 165.7 930.4 165.7 930.2 165.6C930 165.6 929.8 165.5 929.7 165.4C929.6 165.3 929.4 165.3 929.3 165.2C929.2 165.1 929.1 165.1 929 165V164.2C929.1 164.3 929.2 164.3 929.3 164.4C929.4 164.5 929.6 164.5 929.7 164.6C929.9 164.7 930 164.7 930.2 164.8C930.4 164.8 930.6 164.9 930.9 164.9C931.3 164.9 931.6 164.8 931.8 164.7C932 164.6 932.1 164.4 932.1 164.1C932.1 163.9 932.1 163.8 932 163.7C931.9 163.6 931.8 163.5 931.7 163.5C931.6 163.4 931.4 163.4 931.3 163.4C931.1 163.4 931 163.3 930.8 163.3C930.6 163.3 930.4 163.2 930.2 163.1C930 163 929.8 163 929.6 162.8C929.4 162.6 929.3 162.5 929.2 162.4C929.1 162.2 929 162 929 161.7C929 161.2 929.2 160.9 929.5 160.6C929.8 160.3 930.4 160.2 931 160.2C931.4 160.2 931.7 160.2 932 160.3C932.3 160.4 932.5 160.5 932.7 160.5V161.3C932.5 161.2 932.3 161.1 932.1 161C931.8 160.9 931.5 160.9 931.1 160.9C930.7 160.9 930.4 161 930.2 161.1C930 161.2 929.9 161.4 929.9 161.7C929.9 161.8 929.9 162 930 162C930.1 162.1 930.1 162.1 930.2 162.2C930.3 162.3 930.4 162.3 930.6 162.3C930.7 162.3 930.9 162.4 931 162.4C931.2 162.4 931.5 162.5 931.7 162.6C931.9 162.7 932.2 162.7 932.3 162.9C932.4 163.1 932.6 163.2 932.8 163.4C932.9 163.6 933 163.8 933 164.2C933 164.5 932.9 164.7 932.8 165C932.7 165.3 932.5 165.4 932.3 165.5C932.1 165.6 931.9 165.7 931.6 165.8C931.4 165.7 931.2 165.7 930.9 165.7Z" fill="#262626"/>
<rect x="478" y="87" width="130" height="60" rx="8" fill="#FFF2BF"/>
<path d="M507 113H509.9C510.5 113 511 113.1 511.5 113.2C512 113.3 512.4 113.6 512.8 113.9C513.2 114.2 513.5 114.6 513.7 115.1C513.9 115.6 514 116.2 514 117C514 117.8 513.9 118.4 513.7 119C513.5 119.6 513.2 120 512.8 120.4C512.4 120.8 512 121.1 511.5 121.3C511 121.5 510.4 121.6 509.8 121.6H507V113ZM508.1 114.1V120.7H509.7C510.1 120.7 510.5 120.6 510.9 120.5C511.3 120.4 511.6 120.2 511.8 119.9C512.1 119.6 512.3 119.3 512.4 118.8C512.5 118.3 512.6 117.8 512.6 117.2C512.6 116.6 512.5 116.1 512.4 115.7C512.3 115.3 512.1 115 511.8 114.8C511.5 114.6 511.2 114.4 510.9 114.3C510.5 114.2 510.2 114.2 509.8 114.2H508.1V114.1Z" fill="#262626"/>
<path d="M518.9 120.5C518.8 120.6 518.7 120.8 518.6 121C518.5 121.2 518.3 121.3 518.2 121.4C518.1 121.5 517.8 121.6 517.6 121.7C517.4 121.8 517.1 121.8 516.8 121.8C516.2 121.8 515.8 121.6 515.4 121.3C515.1 121 514.9 120.5 514.9 119.9C514.9 119.2 515.1 118.7 515.6 118.4C516.1 118.1 516.8 117.9 517.6 117.9H518.8V117.4C518.8 117 518.7 116.7 518.5 116.5C518.3 116.3 517.9 116.2 517.3 116.2C516.9 116.2 516.6 116.3 516.2 116.4C515.9 116.5 515.5 116.7 515.3 116.8V115.9C515.5 115.8 515.8 115.6 516.2 115.5C516.6 115.4 517 115.3 517.5 115.3C518.3 115.3 518.9 115.5 519.3 115.8C519.7 116.1 519.9 116.6 519.9 117.3V120.6C519.9 120.7 519.9 120.8 519.9 120.8C519.9 120.8 519.9 121 519.9 121.1C519.9 121.2 519.9 121.3 519.9 121.4C519.9 121.5 519.9 121.6 519.9 121.6H518.9C518.9 121.5 518.9 121.3 518.8 121.1C518.8 120.9 518.8 120.7 518.8 120.6L518.9 120.5ZM517.1 120.8C517.4 120.8 517.7 120.7 517.9 120.6C518.1 120.5 518.3 120.3 518.5 120.1C518.6 119.9 518.7 119.7 518.8 119.6C518.9 119.4 518.9 119.3 518.9 119.2V118.7H517.8C517.2 118.7 516.7 118.8 516.4 119C516.1 119.2 516 119.5 516 119.8C516 120.1 516.1 120.3 516.3 120.5C516.4 120.7 516.7 120.8 517.1 120.8Z" fill="#262626"/>
<path d="M524.2 121.7C524 121.7 523.8 121.8 523.6 121.8C523.3 121.8 523 121.8 522.8 121.7C522.6 121.6 522.4 121.5 522.3 121.3C522.2 121.2 522.1 121 522 120.8C521.9 120.6 521.9 120.4 521.9 120.2V116.3H521.2V115.4H521.9V114.1H523V115.4H524.8V116.3H523V120.1C523 120.4 523.1 120.6 523.2 120.7C523.3 120.8 523.6 120.9 523.9 120.9C524.2 120.9 524.5 120.8 524.8 120.6V121.6C524.5 121.6 524.4 121.7 524.2 121.7Z" fill="#262626"/>
<path d="M529.7 120.5C529.6 120.6 529.5 120.8 529.4 121C529.3 121.2 529.1 121.3 529 121.4C528.9 121.5 528.6 121.6 528.4 121.7C528.2 121.8 527.9 121.8 527.6 121.8C527 121.8 526.6 121.6 526.2 121.3C525.9 121 525.7 120.5 525.7 119.9C525.7 119.2 525.9 118.7 526.4 118.4C526.9 118.1 527.6 117.9 528.4 117.9H529.6V117.4C529.6 117 529.5 116.7 529.3 116.5C529.1 116.3 528.7 116.2 528.1 116.2C527.7 116.2 527.4 116.3 527 116.4C526.7 116.5 526.3 116.7 526.1 116.8V115.9C526.3 115.8 526.6 115.6 527 115.5C527.4 115.4 527.8 115.3 528.3 115.3C529.1 115.3 529.7 115.5 530.1 115.8C530.5 116.1 530.7 116.6 530.7 117.3V120.6C530.7 120.7 530.7 120.8 530.7 120.8C530.7 120.8 530.7 121 530.7 121.1C530.7 121.2 530.7 121.3 530.7 121.4C530.7 121.5 530.7 121.6 530.7 121.6H529.7C529.7 121.5 529.7 121.3 529.6 121.1C529.6 120.9 529.6 120.7 529.6 120.6L529.7 120.5ZM527.8 120.8C528.1 120.8 528.4 120.7 528.6 120.6C528.8 120.5 529 120.3 529.2 120.1C529.3 119.9 529.4 119.7 529.5 119.6C529.6 119.4 529.6 119.3 529.6 119.2V118.7H528.5C527.9 118.7 527.4 118.8 527.1 119C526.8 119.2 526.7 119.5 526.7 119.8C526.7 120.1 526.8 120.3 527 120.5C527.2 120.7 527.5 120.8 527.8 120.8Z" fill="#262626"/>
<path d="M538.3 114.1V121.7H537.2V114.1H534.5V113.1H540.9V114.1H538.3Z" fill="#262626"/>
<path d="M543.3 116.8C542.9 117 542.7 117.3 542.5 117.7V121.7H541.4V115.5H542.3L542.4 116.9C542.6 116.5 542.8 116.2 543.2 115.9C543.5 115.6 544 115.5 544.5 115.4V116.6C544.1 116.5 543.7 116.6 543.3 116.8Z" fill="#262626"/>
<path d="M549.4 120.5C549.3 120.6 549.2 120.8 549.1 121C549 121.2 548.8 121.3 548.7 121.4C548.6 121.5 548.3 121.6 548.1 121.7C547.9 121.8 547.6 121.8 547.3 121.8C546.7 121.8 546.3 121.6 545.9 121.3C545.6 121 545.4 120.5 545.4 119.9C545.4 119.2 545.6 118.7 546.1 118.4C546.6 118.1 547.3 117.9 548.1 117.9H549.3V117.4C549.3 117 549.2 116.7 549 116.5C548.8 116.3 548.4 116.2 547.8 116.2C547.4 116.2 547.1 116.3 546.7 116.4C546.4 116.5 546 116.7 545.8 116.8V115.9C546 115.8 546.3 115.6 546.7 115.5C547.1 115.4 547.5 115.3 548 115.3C548.8 115.3 549.4 115.5 549.8 115.8C550.2 116.1 550.4 116.6 550.4 117.3V120.6C550.4 120.7 550.4 120.8 550.4 120.8C550.4 120.8 550.4 121 550.4 121.1C550.4 121.2 550.4 121.3 550.4 121.4C550.4 121.5 550.4 121.6 550.4 121.6H549.4C549.4 121.5 549.4 121.3 549.3 121.1C549.3 120.9 549.3 120.7 549.3 120.6L549.4 120.5ZM547.5 120.8C547.8 120.8 548.1 120.7 548.3 120.6C548.5 120.5 548.7 120.3 548.9 120.1C549 119.9 549.1 119.7 549.2 119.6C549.3 119.4 549.3 119.3 549.3 119.2V118.7H548.2C547.6 118.7 547.1 118.8 546.8 119C546.5 119.2 546.4 119.5 546.4 119.8C546.4 120.1 546.5 120.3 546.7 120.5C546.9 120.7 547.1 120.8 547.5 120.8Z" fill="#262626"/>
<path d="M555 116.2C554.5 116.2 554.1 116.3 553.8 116.5C553.5 116.7 553.3 117 553.1 117.3V121.5H552V115.3H553V116.4C553.2 116 553.4 115.7 553.8 115.5C554.2 115.3 554.6 115.2 555.2 115.2C555.8 115.2 556.3 115.4 556.7 115.7C557.1 116 557.2 116.5 557.2 117.2V121.6H556.1V117.3C556.1 116.9 556 116.6 555.8 116.4C555.7 116.3 555.4 116.2 555 116.2Z" fill="#262626"/>
<path d="M560.9 121.8C560.6 121.8 560.3 121.8 560 121.7C559.7 121.6 559.5 121.6 559.3 121.5C559.1 121.4 559 121.3 558.8 121.3C558.6 121.3 558.6 121.1 558.5 121.1V120.2C558.6 120.3 558.7 120.4 558.8 120.5C558.9 120.6 559.1 120.7 559.3 120.8C559.5 120.9 559.7 120.9 560 121C560.3 121.1 560.5 121.1 560.8 121.1C561.2 121.1 561.6 121 561.9 120.9C562.2 120.8 562.3 120.5 562.3 120.2C562.3 120 562.3 119.9 562.2 119.8C562.1 119.7 562 119.6 561.9 119.5C561.8 119.4 561.6 119.4 561.4 119.3C561.2 119.2 561 119.2 560.8 119.2C560.5 119.1 560.3 119.1 560 119C559.7 118.9 559.5 118.8 559.3 118.7C559.1 118.6 558.9 118.4 558.8 118.2C558.7 118 558.6 117.7 558.6 117.4C558.6 116.8 558.8 116.4 559.3 116.1C559.7 115.8 560.3 115.6 561.1 115.6C561.5 115.6 561.9 115.6 562.3 115.7C562.6 115.8 562.9 115.9 563.1 116V116.9C562.9 116.8 562.6 116.7 562.3 116.6C562 116.5 561.6 116.5 561.2 116.5C560.7 116.5 560.4 116.6 560.1 116.7C559.8 116.8 559.7 117.1 559.7 117.4C559.7 117.6 559.7 117.7 559.8 117.8C559.9 117.9 560 118 560.1 118C560.2 118.1 560.4 118.1 560.5 118.1C560.6 118.1 560.8 118.2 561 118.2C561.3 118.3 561.6 118.3 561.8 118.4C562.1 118.5 562.3 118.6 562.6 118.7C562.9 118.8 563 119 563.2 119.2C563.3 119.4 563.4 119.7 563.4 120.1C563.4 120.5 563.3 120.8 563.2 121C563.1 121.2 562.9 121.4 562.6 121.6C562.4 121.7 562.1 121.8 561.8 121.9C561.5 121.7 561.2 121.8 560.9 121.8Z" fill="#262626"/>
<path d="M566.1 116.3V121.6H565V116.3H564.2V115.4H565V115.3C565 114.6 565.2 114 565.6 113.6C566 113.2 566.5 113 567.2 113C567.5 113 567.8 113 568 113.1V114C567.9 114 567.8 113.9 567.7 113.9C567.6 113.9 567.4 113.9 567.3 113.9C566.9 113.9 566.6 114 566.4 114.2C566.2 114.4 566.1 114.8 566.1 115.3V115.5H567.9V116.4H566.1V116.3Z" fill="#262626"/>
<path d="M573.9 121.1C573.8 121.2 573.7 121.2 573.6 121.3C573.5 121.4 573.3 121.4 573.1 121.5C572.9 121.6 572.7 121.6 572.5 121.7C572.3 121.7 572 121.8 571.7 121.8C570.7 121.8 569.9 121.5 569.3 120.9C568.8 120.3 568.5 119.5 568.5 118.5C568.5 118 568.6 117.5 568.7 117.1C568.8 116.7 569.1 116.4 569.3 116.1C569.6 115.8 569.9 115.6 570.2 115.5C570.6 115.4 571 115.3 571.4 115.3C571.8 115.3 572.2 115.4 572.6 115.5C573 115.7 573.2 115.9 573.5 116.2C573.8 116.5 573.9 116.9 574 117.3C574.1 117.7 574.1 118.2 574 118.8H569.6C569.6 119.5 569.8 120 570.2 120.3C570.6 120.6 571.1 120.8 571.8 120.8C572.3 120.8 572.7 120.7 573 120.6C573.3 120.5 573.6 120.3 573.9 120.2V121.1ZM571.4 116.2C570.9 116.2 570.6 116.3 570.2 116.6C569.9 116.9 569.7 117.3 569.6 117.9H572.9C572.9 117.3 572.8 116.9 572.5 116.6C572.2 116.3 571.9 116.2 571.4 116.2Z" fill="#262626"/>
<path d="M577.2 116.8C576.8 117 576.6 117.3 576.4 117.7V121.7H575.3V115.5H576.2L576.3 116.9C576.5 116.5 576.7 116.2 577.1 115.9C577.4 115.6 577.9 115.5 578.4 115.4V116.6C577.9 116.5 577.5 116.6 577.2 116.8Z" fill="#262626"/>
<rect x="672.5" y="84.5" width="77" height="59" rx="7.5" stroke="#5282FF"/>
<rect x="672.5" y="84.5" width="77" height="59" rx="7.5" stroke="#5282FF"/>
<path d="M706.8 121.5C706.6 121.5 706.4 121.4 706.2 121.3C706.1 121.2 706 121 706 120.8C706 120.6 706.1 120.4 706.2 120.2C706.3 120.1 706.5 120 706.8 120C707 120 707.2 120.1 707.4 120.2C707.5 120.3 707.6 120.5 707.6 120.8C707.6 121 707.5 121.2 707.4 121.3C707.2 121.5 707 121.5 706.8 121.5Z" fill="#262626"/>
<path d="M709.6 121.5C709.4 121.5 709.2 121.4 709 121.3C708.9 121.2 708.8 121 708.8 120.8C708.8 120.6 708.9 120.4 709 120.2C709.1 120.1 709.3 120 709.6 120C709.8 120 710 120.1 710.2 120.2C710.3 120.3 710.4 120.5 710.4 120.8C710.4 121 710.3 121.2 710.2 121.3C710 121.5 709.9 121.5 709.6 121.5Z" fill="#262626"/>
<path d="M712.5 121.5C712.3 121.5 712.1 121.4 711.9 121.3C711.8 121.2 711.7 121 711.7 120.8C711.7 120.6 711.8 120.4 711.9 120.2C712 120.1 712.2 120 712.5 120C712.7 120 712.9 120.1 713.1 120.2C713.2 120.3 713.3 120.5 713.3 120.8C713.3 121 713.2 121.2 713.1 121.3C712.9 121.5 712.7 121.5 712.5 121.5Z" fill="#262626"/>
<rect x="749.5" y="84.5" width="77" height="59" rx="7.5" stroke="#5282FF"/>
<path d="M784.8 121.5C784.6 121.5 784.4 121.4 784.2 121.3C784.1 121.2 784 121 784 120.8C784 120.6 784.1 120.4 784.2 120.2C784.3 120.1 784.5 120 784.8 120C785 120 785.2 120.1 785.4 120.2C785.5 120.3 785.6 120.5 785.6 120.8C785.6 121 785.5 121.2 785.4 121.3C785.2 121.5 785 121.5 784.8 121.5Z" fill="#262626"/>
<path d="M787.6 121.5C787.4 121.5 787.2 121.4 787 121.3C786.9 121.2 786.8 121 786.8 120.8C786.8 120.6 786.9 120.4 787 120.2C787.1 120.1 787.3 120 787.6 120C787.8 120 788 120.1 788.2 120.2C788.3 120.3 788.4 120.5 788.4 120.8C788.4 121 788.3 121.2 788.2 121.3C788 121.5 787.9 121.5 787.6 121.5Z" fill="#262626"/>
<path d="M790.5 121.5C790.3 121.5 790.1 121.4 789.9 121.3C789.8 121.2 789.7 121 789.7 120.8C789.7 120.6 789.8 120.4 789.9 120.2C790 120.1 790.2 120 790.5 120C790.7 120 790.9 120.1 791.1 120.2C791.2 120.3 791.3 120.5 791.3 120.8C791.3 121 791.2 121.2 791.1 121.3C790.9 121.5 790.7 121.5 790.5 121.5Z" fill="#262626"/>
<rect x="826.5" y="84.5" width="77" height="59" rx="7.5" stroke="#5282FF"/>
<path d="M860.8 121.5C860.6 121.5 860.4 121.4 860.2 121.3C860.1 121.2 860 121 860 120.8C860 120.6 860.1 120.4 860.2 120.2C860.3 120.1 860.5 120 860.8 120C861 120 861.2 120.1 861.4 120.2C861.5 120.3 861.6 120.5 861.6 120.8C861.6 121 861.5 121.2 861.4 121.3C861.2 121.5 861 121.5 860.8 121.5Z" fill="#262626"/>
<path d="M863.6 121.5C863.4 121.5 863.2 121.4 863 121.3C862.9 121.2 862.8 121 862.8 120.8C862.8 120.6 862.9 120.4 863 120.2C863.1 120.1 863.3 120 863.6 120C863.8 120 864 120.1 864.2 120.2C864.3 120.3 864.4 120.5 864.4 120.8C864.4 121 864.3 121.2 864.2 121.3C864 121.5 863.9 121.5 863.6 121.5Z" fill="#262626"/>
<path d="M866.5 121.5C866.3 121.5 866.1 121.4 865.9 121.3C865.8 121.2 865.7 121 865.7 120.8C865.7 120.6 865.8 120.4 865.9 120.2C866 120.1 866.2 120 866.5 120C866.7 120 866.9 120.1 867.1 120.2C867.2 120.3 867.3 120.5 867.3 120.8C867.3 121 867.2 121.2 867.1 121.3C866.9 121.5 866.7 121.5 866.5 121.5Z" fill="#262626"/>
<rect x="903.5" y="84.5" width="77" height="59" rx="7.5" stroke="#5282FF"/>
<path d="M937.8 121.5C937.6 121.5 937.4 121.4 937.2 121.3C937.1 121.2 937 121 937 120.8C937 120.6 937.1 120.4 937.2 120.2C937.3 120.1 937.5 120 937.8 120C938 120 938.2 120.1 938.4 120.2C938.5 120.3 938.6 120.5 938.6 120.8C938.6 121 938.5 121.2 938.4 121.3C938.2 121.5 938 121.5 937.8 121.5Z" fill="#262626"/>
<path d="M940.6 121.5C940.4 121.5 940.2 121.4 940 121.3C939.9 121.2 939.8 121 939.8 120.8C939.8 120.6 939.9 120.4 940 120.2C940.1 120.1 940.3 120 940.6 120C940.8 120 941 120.1 941.2 120.2C941.3 120.3 941.4 120.5 941.4 120.8C941.4 121 941.3 121.2 941.2 121.3C941 121.5 940.9 121.5 940.6 121.5Z" fill="#262626"/>
<path d="M943.5 121.5C943.3 121.5 943.1 121.4 942.9 121.3C942.8 121.2 942.7 121 942.7 120.8C942.7 120.6 942.8 120.4 942.9 120.2C943 120.1 943.2 120 943.5 120C943.7 120 943.9 120.1 944.1 120.2C944.2 120.3 944.3 120.5 944.3 120.8C944.3 121 944.2 121.2 944.1 121.3C943.9 121.5 943.7 121.5 943.5 121.5Z" fill="#262626"/>
<rect x="980.5" y="84.5" width="77" height="59" rx="7.5" stroke="#5282FF"/>
<path d="M1015.8 121.5C1015.6 121.5 1015.4 121.4 1015.2 121.3C1015.1 121.2 1015 121 1015 120.8C1015 120.6 1015.1 120.4 1015.2 120.2C1015.3 120.1 1015.5 120 1015.8 120C1016 120 1016.2 120.1 1016.4 120.2C1016.5 120.3 1016.6 120.5 1016.6 120.8C1016.6 121 1016.5 121.2 1016.4 121.3C1016.2 121.5 1016 121.5 1015.8 121.5Z" fill="#262626"/>
<path d="M1018.6 121.5C1018.4 121.5 1018.2 121.4 1018 121.3C1017.9 121.2 1017.8 121 1017.8 120.8C1017.8 120.6 1017.9 120.4 1018 120.2C1018.1 120.1 1018.3 120 1018.6 120C1018.8 120 1019 120.1 1019.2 120.2C1019.3 120.3 1019.4 120.5 1019.4 120.8C1019.4 121 1019.3 121.2 1019.2 121.3C1019 121.5 1018.9 121.5 1018.6 121.5Z" fill="#262626"/>
<path d="M1021.5 121.5C1021.3 121.5 1021.1 121.4 1020.9 121.3C1020.8 121.2 1020.7 121 1020.7 120.8C1020.7 120.6 1020.8 120.4 1020.9 120.2C1021 120.1 1021.2 120 1021.5 120C1021.7 120 1021.9 120.1 1022.1 120.2C1022.2 120.3 1022.3 120.5 1022.3 120.8C1022.3 121 1022.2 121.2 1022.1 121.3C1021.9 121.5 1021.7 121.5 1021.5 121.5Z" fill="#262626"/>
<path d="M294.9 121.9C294.5 121.9 294.2 121.9 293.8 121.8C293.4 121.7 293.2 121.7 293 121.6C292.8 121.5 292.6 121.4 292.4 121.3C292.2 121.2 292.1 121.1 292 121V119.9C292.1 120 292.3 120.1 292.5 120.2C292.7 120.3 292.9 120.4 293.2 120.5C293.5 120.6 293.7 120.7 294 120.7C294.3 120.8 294.6 120.8 294.9 120.8C295.5 120.8 296 120.7 296.4 120.4C296.8 120.2 297 119.8 297 119.3C297 119.1 297 118.9 296.9 118.7C296.8 118.5 296.7 118.4 296.5 118.3C296.3 118.2 296.1 118.1 295.9 118C295.6 117.9 295.4 117.8 295 117.8C294.6 117.8 294.3 117.6 294 117.5C293.7 117.4 293.4 117.2 293.1 117.1C292.8 116.9 292.6 116.7 292.5 116.4C292.3 116.1 292.3 115.8 292.3 115.3C292.3 114.6 292.6 114 293.1 113.6C293.6 113.2 294.4 113 295.5 113C295.8 113 296.1 113 296.3 113.1C296.5 113.1 296.8 113.2 296.9 113.2C297.1 113.3 297.3 113.3 297.4 113.4C297.5 113.5 297.7 113.5 297.8 113.6V114.7C297.5 114.5 297.1 114.3 296.7 114.2C296.3 114.1 295.9 114.1 295.4 114.1C295 114.1 294.7 114.1 294.4 114.2C294.1 114.3 293.9 114.3 293.8 114.5C293.6 114.6 293.5 114.7 293.5 114.9C293.4 115.1 293.4 115.2 293.4 115.4C293.4 115.6 293.5 115.8 293.6 116C293.7 116.2 293.9 116.3 294 116.4C294.2 116.5 294.4 116.6 294.6 116.7C294.8 116.8 295.1 116.8 295.3 116.9C295.6 117 296 117.1 296.3 117.2C296.7 117.3 297 117.4 297.2 117.6C297.5 117.8 297.7 118 297.9 118.3C298.1 118.6 298.2 119 298.2 119.4C298.2 119.9 298.1 120.2 297.9 120.6C297.7 120.9 297.5 121.2 297.2 121.4C296.9 121.6 296.6 121.7 296.2 121.8C295.7 121.9 295.3 121.9 294.9 121.9Z" fill="#262626"/>
<path d="M302 121.9C301.6 121.9 301.2 121.8 300.8 121.7C300.4 121.6 300.1 121.3 299.8 121.1C299.5 120.8 299.3 120.5 299.2 120.1C299 119.7 299 119.2 299 118.7C299 118.2 299.1 117.7 299.2 117.3C299.4 116.9 299.6 116.6 299.8 116.3C300.1 116 300.4 115.8 300.8 115.7C301.2 115.6 301.6 115.5 302 115.5C302.4 115.5 302.8 115.6 303.2 115.7C303.6 115.8 303.9 116.1 304.2 116.3C304.5 116.6 304.7 116.9 304.8 117.3C305 117.7 305 118.2 305 118.7C305 119.2 304.9 119.7 304.8 120.1C304.6 120.5 304.4 120.8 304.2 121.1C303.9 121.4 303.6 121.6 303.2 121.7C302.8 121.8 302.4 121.9 302 121.9ZM302 121C302.3 121 302.5 121 302.8 120.9C303 120.8 303.2 120.7 303.4 120.5C303.6 120.3 303.7 120.1 303.8 119.8C303.9 119.5 303.9 119.2 303.9 118.8C303.9 118.4 303.9 118.1 303.8 117.8C303.7 117.5 303.6 117.3 303.4 117.1C303.2 116.9 303 116.8 302.8 116.7C302.6 116.6 302.3 116.6 302 116.6C301.7 116.6 301.5 116.6 301.2 116.7C301 116.8 300.8 116.9 300.6 117.1C300.4 117.3 300.3 117.5 300.2 117.8C300.1 118.1 300.1 118.4 300.1 118.8C300.1 119.2 300.1 119.5 300.2 119.8C300.3 120.1 300.4 120.3 300.6 120.5C300.8 120.7 301 120.8 301.2 120.9C301.5 120.9 301.7 121 302 121Z" fill="#262626"/>
<path d="M309.5 121.6C309.2 121.8 308.7 122 308.1 122C307.5 122 307.1 121.8 306.7 121.5C306.3 121.2 306.2 120.7 306.2 120V115.6H307.3V120C307.3 120.2 307.3 120.4 307.4 120.5C307.5 120.6 307.5 120.7 307.6 120.8C307.7 120.9 307.8 120.9 308 121C308.1 121 308.3 121 308.5 121C309 121 309.3 120.9 309.6 120.7C309.9 120.5 310.1 120.2 310.3 119.8V115.6H311.4V121.8H310.5L310.4 120.7C310.1 121 309.9 121.3 309.5 121.6Z" fill="#262626"/>
<path d="M315 117C314.6 117.2 314.4 117.5 314.2 117.9V121.9H313.1V115.7H314L314.1 117.1C314.3 116.7 314.5 116.4 314.9 116.1C315.2 115.8 315.7 115.7 316.2 115.6V116.8C315.7 116.7 315.3 116.8 315 117Z" fill="#262626"/>
<path d="M320 121.9C319.5 121.9 319.1 121.8 318.7 121.7C318.3 121.6 318 121.3 317.7 121.1C317.4 120.8 317.2 120.5 317.1 120.1C317 119.7 316.9 119.2 316.9 118.7C316.9 118.2 317 117.7 317.1 117.3C317.2 116.9 317.5 116.6 317.7 116.3C318 116 318.3 115.8 318.7 115.7C319.1 115.6 319.5 115.5 320 115.5C320.4 115.5 320.7 115.5 321.1 115.6C321.4 115.7 321.7 115.8 321.9 116V116.9C321.6 116.7 321.4 116.6 321 116.5C320.6 116.4 320.4 116.4 320 116.4C319.3 116.4 318.7 116.6 318.4 117C318.1 117.4 317.9 118 317.9 118.7C317.9 119.5 318.1 120.1 318.4 120.4C318.7 120.8 319.2 121 320 121C320.4 121 320.7 121 321 120.9C321.3 120.8 321.6 120.7 321.9 120.5V121.4C321.7 121.5 321.4 121.7 321.1 121.7C320.7 121.9 320.4 121.9 320 121.9Z" fill="#262626"/>
<path d="M328.1 121.3C328 121.4 327.9 121.4 327.8 121.5C327.7 121.6 327.5 121.6 327.3 121.7C327.1 121.8 326.9 121.8 326.7 121.9C326.5 121.9 326.2 122 325.9 122C324.9 122 324.1 121.7 323.5 121.1C323 120.5 322.7 119.7 322.7 118.7C322.7 118.2 322.8 117.7 322.9 117.3C323 116.9 323.3 116.6 323.5 116.3C323.8 116 324.1 115.8 324.4 115.7C324.8 115.6 325.2 115.5 325.6 115.5C326 115.5 326.4 115.6 326.8 115.7C327.2 115.9 327.4 116.1 327.7 116.4C328 116.7 328.1 117.1 328.2 117.5C328.3 117.9 328.3 118.4 328.2 119H323.8C323.8 119.7 324 120.2 324.4 120.5C324.8 120.8 325.3 121 326 121C326.5 121 326.9 120.9 327.2 120.8C327.5 120.7 327.8 120.5 328.1 120.4V121.3ZM325.6 116.4C325.1 116.4 324.8 116.5 324.4 116.8C324.1 117.1 323.9 117.5 323.8 118.1H327.1C327.1 117.5 327 117.1 326.7 116.8C326.4 116.5 326.1 116.4 325.6 116.4Z" fill="#262626"/>
<path d="M208.066 101.623H206.559L204.875 95.7727L203.191 101.623H201.684L200 94H201.064L202.482 100.736L204.432 94H205.318L207.268 100.648L208.686 94H209.661L208.066 101.623Z" fill="#262626"/>
<path d="M212.232 97.3682C211.877 97.5455 211.7 97.8114 211.523 98.166V101.711H210.548V96.216H211.345L211.434 97.4569C211.611 97.1023 211.789 96.8364 212.143 96.5705C212.409 96.3046 212.852 96.216 213.295 96.1273V97.191C212.941 97.1023 212.586 97.191 212.232 97.3682Z" fill="#262626"/>
<path d="M214.98 95.3295C214.802 95.3295 214.625 95.2409 214.536 95.1523C214.448 95.0636 214.359 94.8863 214.359 94.7091C214.359 94.5318 214.448 94.3545 214.536 94.2659C214.625 94.1773 214.802 94.0886 214.98 94.0886C215.157 94.0886 215.334 94.1773 215.423 94.2659C215.511 94.3545 215.6 94.5318 215.6 94.7091C215.6 94.8863 215.511 95.0636 215.423 95.1523C215.334 95.2409 215.157 95.3295 214.98 95.3295ZM215.423 96.1272V101.623H214.448V96.1272H215.423Z" fill="#262626"/>
<path d="M219.234 101.623C219.057 101.623 218.879 101.711 218.702 101.711C218.436 101.711 218.17 101.711 217.993 101.623C217.816 101.534 217.639 101.445 217.55 101.268C217.461 101.18 217.373 101.002 217.284 100.825C217.195 100.648 217.195 100.47 217.195 100.293V96.8363H216.575V96.0386H217.195V94.8864H218.17V96.0386H219.766V96.8363H218.17V100.205C218.17 100.47 218.259 100.648 218.348 100.736C218.436 100.825 218.702 100.914 218.968 100.914C219.234 100.914 219.5 100.825 219.766 100.648V101.534C219.5 101.534 219.411 101.623 219.234 101.623Z" fill="#262626"/>
<path d="M225.173 101.18C225.084 101.268 224.995 101.268 224.907 101.357C224.818 101.445 224.641 101.445 224.464 101.534C224.286 101.623 224.109 101.623 223.932 101.711C223.755 101.711 223.489 101.8 223.223 101.8C222.336 101.8 221.627 101.534 221.095 101.002C220.652 100.47 220.386 99.7614 220.386 98.875C220.386 98.4318 220.475 97.9886 220.564 97.6341C220.652 97.2795 220.918 97.0136 221.095 96.7477C221.361 96.4818 221.627 96.3045 221.893 96.2159C222.248 96.1273 222.602 96.0386 222.957 96.0386C223.311 96.0386 223.666 96.1273 224.02 96.2159C224.375 96.3932 224.552 96.5704 224.818 96.8364C225.084 97.1023 225.173 97.4568 225.261 97.8114C225.35 98.1659 225.35 98.6091 225.261 99.1409H221.361C221.361 99.7614 221.539 100.205 221.893 100.47C222.248 100.736 222.691 100.914 223.311 100.914C223.755 100.914 224.109 100.825 224.375 100.736C224.641 100.648 224.907 100.47 225.173 100.382V101.18ZM223.045 96.8364C222.602 96.8364 222.336 96.925 221.982 97.1909C221.716 97.4568 221.539 97.8114 221.45 98.3432H224.375C224.375 97.8114 224.286 97.4568 224.02 97.1909C223.755 96.925 223.4 96.8364 223.045 96.8364Z" fill="#262626"/>
<path d="M107.1 113H108.8L111.9 121.6H110.7L109.8 119.1H106L105.1 121.6H104L107.1 113ZM109.4 118.1L107.9 113.8L106.4 118.1H109.4Z" fill="black"/>
<path d="M116.1 121.7C115.6 121.7 115.2 121.6 114.9 121.4C114.6 121.2 114.3 120.9 114.1 120.5V123.8H113V115.4H113.9L114 116.6C114.2 116.2 114.5 115.9 114.8 115.6C115.2 115.4 115.6 115.2 116.1 115.2C116.5 115.2 116.8 115.3 117.1 115.4C117.4 115.5 117.7 115.7 118 116C118.3 116.3 118.5 116.6 118.6 117C118.7 117.4 118.8 117.9 118.8 118.4C118.8 119 118.7 119.4 118.6 119.8C118.4 120.2 118.2 120.5 118 120.8C117.7 121.1 117.4 121.3 117.1 121.4C116.8 121.7 116.5 121.7 116.1 121.7ZM115.9 120.8C116.5 120.8 116.9 120.6 117.2 120.2C117.5 119.8 117.7 119.2 117.7 118.5C117.7 117.7 117.5 117.2 117.2 116.8C116.9 116.4 116.4 116.2 115.9 116.2C115.6 116.2 115.4 116.2 115.1 116.3C114.9 116.4 114.7 116.5 114.5 116.7C114.3 116.9 114.2 117.1 114.1 117.4C114 117.7 114 118 114 118.4C114 118.8 114 119.1 114.1 119.4C114.2 119.7 114.3 119.9 114.5 120.1C114.7 120.3 114.9 120.4 115.1 120.5C115.4 120.7 115.7 120.8 115.9 120.8Z" fill="black"/>
<path d="M123.3 121.7C122.8 121.7 122.4 121.6 122.1 121.4C121.8 121.2 121.5 120.9 121.3 120.5V123.8H120.2V115.4H121.1L121.2 116.6C121.4 116.2 121.7 115.9 122 115.6C122.4 115.4 122.8 115.2 123.3 115.2C123.7 115.2 124 115.3 124.3 115.4C124.6 115.5 124.9 115.7 125.2 116C125.5 116.3 125.7 116.6 125.8 117C125.9 117.4 126 117.9 126 118.4C126 119 125.9 119.4 125.8 119.8C125.6 120.2 125.4 120.5 125.2 120.8C124.9 121.1 124.6 121.3 124.3 121.4C124 121.7 123.7 121.7 123.3 121.7ZM123.1 120.8C123.7 120.8 124.1 120.6 124.4 120.2C124.7 119.8 124.9 119.2 124.9 118.5C124.9 117.7 124.7 117.2 124.4 116.8C124.1 116.4 123.6 116.2 123.1 116.2C122.8 116.2 122.6 116.2 122.3 116.3C122.1 116.4 121.9 116.5 121.7 116.7C121.5 116.9 121.4 117.1 121.3 117.4C121.2 117.7 121.2 118 121.2 118.4C121.2 118.8 121.2 119.1 121.3 119.4C121.4 119.7 121.5 119.9 121.7 120.1C121.9 120.3 122.1 120.4 122.3 120.5C122.6 120.7 122.9 120.8 123.1 120.8Z" fill="black"/>
<path d="M401.688 90.9018C401.161 90.9018 400.634 90.814 400.195 90.6384C399.756 90.4628 399.317 90.1994 399.054 89.8482C398.79 89.497 398.439 89.1458 398.263 88.6191C398.088 88.1801 398 87.5655 398 86.9509C398 86.3363 398.088 85.8095 398.263 85.2827C398.439 84.756 398.702 84.4048 398.966 84.0536C399.317 83.7024 399.668 83.439 400.107 83.2634C400.546 83.0878 401.073 83 401.688 83C402.214 83 402.653 83.0878 403.004 83.1756C403.356 83.2634 403.707 83.439 403.97 83.5268V84.4926C403.619 84.317 403.268 84.1414 402.917 84.0536C402.478 83.9658 402.126 83.878 401.688 83.878C400.81 83.878 400.107 84.1414 399.668 84.5804C399.229 85.1071 399.054 85.8095 399.054 86.7753C399.054 87.7411 399.317 88.5313 399.756 89.058C400.195 89.5848 400.897 89.7604 401.775 89.7604C402.126 89.7604 402.565 89.6726 402.917 89.5848C403.268 89.497 403.619 89.3214 403.97 89.058V90.0238C403.795 90.1994 403.443 90.375 403.092 90.4628C402.653 90.814 402.214 90.9018 401.688 90.9018Z" fill="#262626"/>
<path d="M407.921 86.0729C407.482 86.0729 407.131 86.1607 406.868 86.3363C406.604 86.5119 406.429 86.7753 406.253 87.0387V90.7262H405.287V83.1756H406.253V85.2827V86.2485C406.429 85.8973 406.604 85.7217 406.956 85.4583C407.307 85.2827 407.658 85.1071 408.185 85.1071C408.711 85.1071 409.15 85.2827 409.502 85.5461C409.853 85.8095 409.941 86.2485 409.941 86.8631V90.7262H408.975V86.9509C408.975 86.5997 408.887 86.3363 408.711 86.1607C408.536 86.1607 408.272 86.0729 407.921 86.0729Z" fill="#262626"/>
<path d="M414.594 89.7604C414.506 89.8482 414.418 90.0238 414.33 90.1994C414.243 90.375 414.067 90.4628 413.979 90.5506C413.891 90.6384 413.628 90.7262 413.452 90.814C413.277 90.9018 413.013 90.9018 412.75 90.9018C412.223 90.9018 411.872 90.7262 411.521 90.4628C411.257 90.1994 411.082 89.7604 411.082 89.2336C411.082 88.6191 411.257 88.1801 411.696 87.9167C412.135 87.6533 412.75 87.4777 413.452 87.4777H414.506V87.0387C414.506 86.6875 414.418 86.4241 414.243 86.2485C414.067 86.0729 413.716 85.9851 413.189 85.9851C412.838 85.9851 412.574 86.0729 412.223 86.1607C411.96 86.2485 411.609 86.4241 411.433 86.5119V85.7217C411.609 85.6339 411.872 85.4583 412.223 85.3706C412.574 85.2828 412.926 85.1949 413.365 85.1949C414.067 85.1949 414.594 85.3705 414.945 85.6339C415.296 85.8973 415.472 86.3363 415.472 86.9509V89.8482C415.472 89.936 415.472 90.0238 415.472 90.0238C415.472 90.0238 415.472 90.1994 415.472 90.2872C415.472 90.375 415.472 90.4628 415.472 90.5506C415.472 90.6384 415.472 90.7262 415.472 90.7262H414.594C414.594 90.6384 414.594 90.4628 414.506 90.2872C414.506 90.1116 414.506 89.936 414.506 89.8482L414.594 89.7604ZM412.926 90.1116C413.189 90.1116 413.452 90.0238 413.628 89.936C413.804 89.8482 413.979 89.6726 414.155 89.497C414.243 89.3214 414.33 89.1458 414.418 89.058C414.506 88.8825 414.506 88.7946 414.506 88.7069V88.2679H413.54C413.013 88.2679 412.574 88.3557 412.311 88.5313C412.048 88.7069 411.96 88.9702 411.96 89.2336C411.96 89.497 412.048 89.6726 412.223 89.8482C412.399 90.0238 412.662 90.1116 412.926 90.1116Z" fill="#262626"/>
<path d="M419.51 86.0729C419.071 86.0729 418.72 86.1607 418.457 86.3363C418.193 86.5119 418.018 86.7753 417.842 87.0387V90.7262H416.876V85.2827H417.754V86.2485C417.93 85.8973 418.106 85.6339 418.457 85.4583C418.808 85.2827 419.159 85.1949 419.686 85.1949C420.213 85.1949 420.652 85.3705 421.003 85.6339C421.354 85.8973 421.442 86.3363 421.442 86.9509V90.814H420.476V87.0387C420.476 86.6875 420.388 86.4241 420.213 86.2485C420.125 86.1607 419.862 86.0729 419.51 86.0729Z" fill="#262626"/>
<path d="M427.676 90.375C427.676 90.7262 427.588 91.0774 427.5 91.3408C427.412 91.6042 427.237 91.8676 426.973 92.0432C426.71 92.2188 426.446 92.3944 426.095 92.4821C425.744 92.5699 425.305 92.6577 424.866 92.6577C424.603 92.6577 424.339 92.6577 424.164 92.6577C423.988 92.6577 423.813 92.57 423.637 92.57C423.461 92.57 423.374 92.4822 423.286 92.3944C423.198 92.3066 423.11 92.3066 423.022 92.2188V91.4286C423.11 91.5164 423.286 91.5164 423.374 91.6042C423.461 91.692 423.637 91.692 423.813 91.7798C423.988 91.7798 424.164 91.8676 424.339 91.8676C424.515 91.8676 424.778 91.8676 424.954 91.8676C425.656 91.8676 426.095 91.7798 426.359 91.5164C426.622 91.253 426.798 90.9018 426.798 90.375V89.497C426.622 89.8482 426.446 90.1116 426.095 90.2872C425.832 90.4628 425.481 90.5506 425.042 90.5506C424.69 90.5506 424.427 90.4628 424.164 90.375C423.9 90.2872 423.637 90.1116 423.374 89.8482C423.11 89.5848 422.935 89.3214 422.847 89.058C422.759 88.7947 422.671 88.3557 422.671 87.9167C422.671 87.4777 422.759 87.0387 422.847 86.7753C422.935 86.5119 423.11 86.1607 423.374 85.8973C423.637 85.6339 423.812 85.5461 424.164 85.3706C424.427 85.2828 424.778 85.1949 425.129 85.1949C425.568 85.1949 425.92 85.2827 426.271 85.4583C426.534 85.6339 426.798 85.8973 426.973 86.2485V86.1607C426.973 86.0729 426.973 85.8973 426.973 85.7217C426.973 85.5461 426.973 85.3705 426.973 85.2827H427.851C427.851 85.3705 427.851 85.5461 427.851 85.7217C427.851 85.8973 427.851 86.0729 427.851 86.1607V90.375H427.676ZM425.217 89.7604C425.481 89.7604 425.656 89.7604 425.832 89.6726C426.007 89.5848 426.183 89.497 426.359 89.3214C426.534 89.1458 426.622 88.9702 426.71 88.7069C426.798 88.4435 426.798 88.1801 426.798 87.9167C426.798 87.3021 426.622 86.8631 426.359 86.5119C426.095 86.1607 425.656 86.0729 425.217 86.0729C424.954 86.0729 424.778 86.0729 424.603 86.1607C424.427 86.2485 424.252 86.3363 424.076 86.5119C423.9 86.6875 423.812 86.8631 423.725 87.1265C423.637 87.3899 423.637 87.6533 423.637 87.9167C423.637 88.2679 423.637 88.5313 423.725 88.7069C423.812 88.9702 423.9 89.1458 424.076 89.2336C424.252 89.4092 424.427 89.497 424.603 89.5848C424.778 89.6726 424.954 89.7604 425.217 89.7604Z" fill="#262626"/>
<path d="M433.558 90.375C433.47 90.4628 433.383 90.4628 433.295 90.5506C433.207 90.6384 433.031 90.6384 432.856 90.7262C432.68 90.814 432.505 90.814 432.329 90.9018C432.153 90.9018 431.89 90.9896 431.627 90.9896C430.749 90.9896 430.046 90.7262 429.52 90.1994C429.081 89.6726 428.817 88.9702 428.817 88.0922C428.817 87.6532 428.905 87.2143 428.993 86.8631C429.081 86.5119 429.344 86.2485 429.52 85.9851C429.783 85.7217 430.046 85.5461 430.31 85.4583C430.661 85.3705 431.012 85.2827 431.363 85.2827C431.714 85.2827 432.066 85.3705 432.417 85.4583C432.768 85.6339 432.944 85.8095 433.207 86.0729C433.47 86.3363 433.558 86.6875 433.646 87.0387C433.734 87.3899 433.734 87.8288 433.646 88.3556H429.783C429.783 88.9702 429.958 89.4092 430.31 89.6726C430.661 89.936 431.1 90.1116 431.714 90.1116C432.153 90.1116 432.505 90.0238 432.768 89.936C433.031 89.8482 433.295 89.6726 433.558 89.5848V90.375ZM431.363 86.0729C430.924 86.0729 430.661 86.1607 430.31 86.4241C430.046 86.6875 429.871 87.0387 429.783 87.5655H432.68C432.68 87.0387 432.592 86.6875 432.329 86.4241C432.066 86.1607 431.802 86.0729 431.363 86.0729Z" fill="#262626"/>
<path d="M441.021 89.7604C440.845 90.1116 440.582 90.375 440.318 90.6384C440.055 90.9018 439.616 90.9896 439.177 90.9896C438.826 90.9896 438.562 90.9018 438.211 90.814C437.86 90.7262 437.685 90.5506 437.421 90.2872C437.158 90.0238 436.982 89.7604 436.894 89.4092C436.719 89.058 436.719 88.6191 436.719 88.1801C436.719 87.7411 436.807 87.3021 436.894 86.9509C436.982 86.5997 437.246 86.3363 437.421 86.0729C437.685 85.8095 437.948 85.6339 438.211 85.5461C438.475 85.4583 438.826 85.3705 439.177 85.3705C439.616 85.3705 439.967 85.4583 440.231 85.6339C440.494 85.8095 440.757 86.0729 440.933 86.3363V83.3512H441.899V90.9018H441.109L441.021 89.7604ZM439.265 90.1116C439.528 90.1116 439.704 90.1116 439.967 90.0238C440.143 89.936 440.318 89.8482 440.494 89.6726C440.67 89.497 440.757 89.3214 440.845 89.058C440.933 88.7946 440.933 88.5313 440.933 88.1801C440.933 87.8289 440.845 87.5655 440.845 87.3021C440.757 87.0387 440.67 86.8631 440.494 86.6875C440.318 86.5119 440.143 86.4241 439.967 86.3363C439.792 86.2485 439.528 86.2485 439.265 86.2485C438.738 86.2485 438.387 86.4241 438.036 86.7753C437.772 87.1265 437.597 87.6533 437.597 88.2679C437.597 88.9702 437.772 89.4092 438.036 89.7604C438.299 90.1116 438.826 90.1116 439.265 90.1116Z" fill="#262626"/>
<path d="M446.64 89.7604C446.552 89.8482 446.464 90.0238 446.376 90.1994C446.289 90.375 446.113 90.4628 446.025 90.5506C445.937 90.6384 445.674 90.7262 445.498 90.814C445.323 90.9018 445.059 90.9018 444.796 90.9018C444.269 90.9018 443.918 90.7262 443.567 90.4628C443.304 90.1994 443.128 89.7604 443.128 89.2336C443.128 88.6191 443.304 88.1801 443.743 87.9167C444.182 87.6533 444.796 87.4777 445.498 87.4777H446.552V87.0387C446.552 86.6875 446.464 86.4241 446.289 86.2485C446.113 86.0729 445.762 85.9851 445.235 85.9851C444.884 85.9851 444.621 86.0729 444.269 86.1607C444.006 86.2485 443.655 86.4241 443.479 86.5119V85.7217C443.655 85.6339 443.918 85.4583 444.269 85.3706C444.621 85.2828 444.972 85.1949 445.411 85.1949C446.113 85.1949 446.64 85.3705 446.991 85.6339C447.342 85.8973 447.518 86.3363 447.518 86.9509V89.8482C447.518 89.936 447.518 90.0238 447.518 90.0238C447.518 90.0238 447.518 90.1994 447.518 90.2872C447.518 90.375 447.518 90.4628 447.518 90.5506C447.518 90.6384 447.518 90.7262 447.518 90.7262H446.64C446.64 90.6384 446.64 90.4628 446.552 90.2872C446.552 90.1116 446.552 89.936 446.552 89.8482L446.64 89.7604ZM444.972 90.1116C445.235 90.1116 445.498 90.0238 445.674 89.936C445.85 89.8482 446.025 89.6726 446.201 89.497C446.289 89.3214 446.376 89.1458 446.464 89.058C446.552 88.8825 446.552 88.7946 446.552 88.7069V88.2679H445.586C445.059 88.2679 444.62 88.3557 444.357 88.5313C444.094 88.7069 444.006 88.9702 444.006 89.2336C444.006 89.497 444.094 89.6726 444.269 89.8482C444.445 90.0238 444.708 90.1116 444.972 90.1116Z" fill="#262626"/>
<path d="M451.205 90.814C451.03 90.814 450.854 90.9018 450.679 90.9018C450.415 90.9018 450.152 90.9018 449.976 90.814C449.801 90.7262 449.625 90.6384 449.537 90.4628C449.45 90.375 449.362 90.1994 449.274 90.0238C449.186 89.8482 449.186 89.6726 449.186 89.497V86.0729H448.572V85.2827H449.186V84.1414H450.152V85.2827H451.732V86.0729H450.152V89.4092C450.152 89.6726 450.24 89.8482 450.327 89.936C450.415 90.0238 450.679 90.1116 450.942 90.1116C451.205 90.1116 451.469 90.0238 451.732 89.8482V90.7262C451.557 90.7262 451.381 90.814 451.205 90.814Z" fill="#262626"/>
<path d="M456.122 89.7604C456.034 89.8482 455.946 90.0238 455.859 90.1994C455.771 90.375 455.595 90.4628 455.507 90.5506C455.42 90.6384 455.156 90.7262 454.981 90.814C454.805 90.9018 454.542 90.9018 454.278 90.9018C453.751 90.9018 453.4 90.7262 453.049 90.4628C452.786 90.1994 452.61 89.7604 452.61 89.2336C452.61 88.6191 452.786 88.1801 453.225 87.9167C453.664 87.6533 454.278 87.4777 454.981 87.4777H456.034V87.0387C456.034 86.6875 455.946 86.4241 455.771 86.2485C455.595 86.0729 455.244 85.9851 454.717 85.9851C454.366 85.9851 454.103 86.0729 453.751 86.1607C453.488 86.2485 453.137 86.4241 452.961 86.5119V85.7217C453.137 85.6339 453.4 85.4583 453.751 85.3706C454.103 85.2828 454.454 85.1949 454.893 85.1949C455.595 85.1949 456.122 85.3705 456.473 85.6339C456.824 85.8973 457 86.3363 457 86.9509V89.8482C457 89.936 457 90.0238 457 90.0238C457 90.0238 457 90.1994 457 90.2872C457 90.375 457 90.4628 457 90.5506C457 90.6384 457 90.7262 457 90.7262H456.122C456.122 90.6384 456.122 90.4628 456.034 90.2872C456.034 90.1116 456.034 89.936 456.034 89.8482L456.122 89.7604ZM454.454 90.1116C454.717 90.1116 454.981 90.0238 455.156 89.936C455.332 89.8482 455.507 89.6726 455.683 89.497C455.771 89.3214 455.859 89.1458 455.946 89.058C456.034 88.8825 456.034 88.7946 456.034 88.7069V88.2679H455.068C454.542 88.2679 454.103 88.3557 453.839 88.5313C453.576 88.7069 453.488 88.9702 453.488 89.2336C453.488 89.497 453.576 89.6726 453.751 89.8482C453.927 90.0238 454.103 90.1116 454.454 90.1116Z" fill="#262626"/>
<path d="M412.891 103.052C412.452 103.052 412.101 102.964 411.75 102.876C411.399 102.789 411.135 102.525 410.872 102.35C410.609 102.086 410.433 101.823 410.345 101.472C410.257 101.121 410.17 100.682 410.17 100.243C410.17 99.8036 410.257 99.3646 410.345 99.0134C410.433 98.6622 410.696 98.3988 410.872 98.1354C411.135 97.872 411.399 97.6964 411.75 97.6086C412.101 97.5208 412.452 97.433 412.891 97.433C413.243 97.433 413.506 97.433 413.857 97.5208C414.121 97.6086 414.384 97.6964 414.559 97.872V98.6622C414.296 98.4866 414.121 98.3988 413.769 98.311C413.418 98.2232 413.243 98.2232 412.891 98.2232C412.277 98.2232 411.75 98.3988 411.487 98.75C411.223 99.1012 411.048 99.628 411.048 100.243C411.048 100.945 411.223 101.472 411.487 101.735C411.75 102.086 412.189 102.262 412.891 102.262C413.243 102.262 413.506 102.262 413.769 102.174C414.033 102.086 414.296 101.999 414.559 101.823V102.613C414.384 102.701 414.121 102.876 413.857 102.876C413.594 103.052 413.33 103.052 412.891 103.052Z" fill="#262626"/>
<path d="M418.949 101.911C418.862 101.999 418.774 102.174 418.686 102.35C418.598 102.525 418.423 102.613 418.335 102.701C418.247 102.789 417.984 102.877 417.808 102.964C417.632 103.052 417.369 103.052 417.106 103.052C416.579 103.052 416.228 102.877 415.876 102.613C415.613 102.35 415.438 101.911 415.438 101.384C415.438 100.769 415.613 100.33 416.052 100.067C416.491 99.8036 417.106 99.628 417.808 99.628H418.862V99.189C418.862 98.8378 418.774 98.5745 418.598 98.3989C418.423 98.2233 418.071 98.1355 417.545 98.1355C417.193 98.1355 416.93 98.2233 416.579 98.3111C416.315 98.3989 415.964 98.5744 415.789 98.6622V97.8721C415.964 97.7843 416.228 97.6087 416.579 97.5209C416.93 97.4331 417.281 97.3453 417.72 97.3453C418.423 97.3453 418.949 97.5209 419.301 97.7843C419.652 98.0477 419.827 98.4866 419.827 99.1012V101.999C419.827 102.086 419.827 102.174 419.827 102.174C419.827 102.174 419.827 102.35 419.827 102.438C419.827 102.525 419.827 102.613 419.827 102.701C419.827 102.789 419.827 102.877 419.827 102.877H418.949C418.949 102.789 418.949 102.613 418.862 102.438C418.862 102.262 418.862 102.086 418.862 101.999L418.949 101.911ZM417.281 102.262C417.545 102.262 417.808 102.174 417.984 102.086C418.159 101.999 418.335 101.823 418.51 101.647C418.598 101.472 418.686 101.296 418.774 101.208C418.862 101.033 418.862 100.945 418.862 100.857V100.418H417.896C417.369 100.418 416.93 100.506 416.667 100.682C416.403 100.857 416.315 101.121 416.315 101.384C416.315 101.647 416.403 101.823 416.579 101.999C416.754 102.174 417.018 102.262 417.281 102.262Z" fill="#262626"/>
<path d="M424.042 103.052C423.603 103.052 423.251 102.964 422.988 102.789C422.725 102.613 422.461 102.35 422.286 101.999V104.896H421.32V97.5209H422.11L422.198 98.5745C422.373 98.2233 422.637 97.9599 422.9 97.6965C423.251 97.5209 423.603 97.3453 424.042 97.3453C424.393 97.3453 424.656 97.4331 424.92 97.5209C425.183 97.6087 425.446 97.7843 425.71 98.0477C425.973 98.3111 426.149 98.5744 426.237 98.9256C426.324 99.2768 426.412 99.7158 426.412 100.155C426.412 100.682 426.324 101.033 426.237 101.384C426.061 101.735 425.885 101.999 425.71 102.262C425.446 102.525 425.183 102.701 424.92 102.789C424.656 102.964 424.305 103.052 424.042 103.052ZM423.866 102.262C424.393 102.262 424.744 102.086 425.007 101.735C425.271 101.384 425.446 100.857 425.446 100.243C425.446 99.5402 425.271 99.1012 425.007 98.75C424.744 98.3989 424.305 98.2233 423.866 98.2233C423.603 98.2233 423.427 98.2233 423.164 98.3111C422.988 98.3989 422.812 98.4866 422.637 98.6622C422.461 98.8378 422.373 99.0134 422.286 99.2768C422.198 99.5402 422.198 99.8036 422.198 100.155C422.198 100.506 422.198 100.769 422.286 101.033C422.373 101.296 422.461 101.472 422.637 101.647C422.812 101.823 422.988 101.911 423.164 101.999C423.427 102.174 423.603 102.262 423.866 102.262Z" fill="#262626"/>
<path d="M429.749 102.964C429.573 102.964 429.397 103.052 429.222 103.052C428.958 103.052 428.695 103.052 428.519 102.964C428.344 102.877 428.168 102.789 428.08 102.613C427.993 102.525 427.905 102.35 427.817 102.174C427.729 101.999 427.729 101.823 427.729 101.647V98.2232H427.115V97.4331H427.729V96.2917H428.695V97.4331H430.275V98.2232H428.695V101.56C428.695 101.823 428.783 101.999 428.871 102.086C428.958 102.174 429.222 102.262 429.485 102.262C429.749 102.262 430.012 102.174 430.275 101.999V102.877C430.1 102.877 429.924 102.964 429.749 102.964Z" fill="#262626"/>
<path d="M434.226 102.789C433.963 102.964 433.524 103.14 432.997 103.14C432.47 103.14 432.119 102.964 431.768 102.701C431.417 102.438 431.329 101.999 431.329 101.384V97.5209H432.295V101.384C432.295 101.56 432.295 101.735 432.383 101.823C432.47 101.911 432.47 101.999 432.558 102.086C432.646 102.174 432.734 102.174 432.909 102.262C432.997 102.262 433.173 102.262 433.348 102.262C433.787 102.262 434.051 102.174 434.314 101.999C434.577 101.823 434.753 101.56 434.929 101.208V97.5209H435.894V102.964H435.104L435.016 101.999C434.841 102.262 434.577 102.525 434.226 102.789Z" fill="#262626"/>
<path d="M439.055 98.75C438.704 98.9256 438.528 99.189 438.353 99.5402V103.052H437.387V97.6087H438.177L438.265 98.8378C438.44 98.4866 438.616 98.2233 438.967 97.9599C439.231 97.6965 439.67 97.6087 440.109 97.5209V98.5744C439.67 98.4866 439.318 98.5744 439.055 98.75Z" fill="#262626"/>
<path d="M445.464 102.525C445.377 102.613 445.289 102.613 445.201 102.701C445.113 102.789 444.938 102.789 444.762 102.876C444.586 102.964 444.411 102.964 444.235 103.052C444.06 103.052 443.796 103.14 443.533 103.14C442.655 103.14 441.952 102.877 441.426 102.35C440.987 101.823 440.723 101.121 440.723 100.243C440.723 99.8036 440.811 99.3646 440.899 99.0134C440.987 98.6622 441.25 98.3988 441.426 98.1354C441.689 97.872 441.952 97.6964 442.216 97.6086C442.567 97.5208 442.918 97.433 443.269 97.433C443.621 97.433 443.972 97.5208 444.323 97.6086C444.674 97.7842 444.85 97.9598 445.113 98.2232C445.377 98.4866 445.464 98.8378 445.552 99.189C445.64 99.5402 445.64 99.9792 445.552 100.506H441.689C441.689 101.121 441.865 101.56 442.216 101.823C442.567 102.086 443.006 102.262 443.621 102.262C444.06 102.262 444.411 102.174 444.674 102.086C444.938 101.999 445.201 101.823 445.464 101.735V102.525ZM443.269 98.2232C442.83 98.2232 442.567 98.311 442.216 98.5744C441.952 98.8378 441.777 99.189 441.689 99.7158H444.586C444.586 99.189 444.499 98.8378 444.235 98.5744C443.972 98.311 443.708 98.2232 443.269 98.2232Z" fill="#262626"/>
</svg>
