<svg width="850" height="250" viewBox="0 0 850 250" fill="none" xmlns="http://www.w3.org/2000/svg">
<rect width="850" height="250" fill="white"/>
<path d="M164.5 75.4H165.9L168.5 82.6H167.5L166.8 80.6H163.6L162.9 82.6H162L164.5 75.4ZM166.4 79.7L165.1 76.1L163.8 79.7H166.4Z" fill="#262626"/>
<path d="M172 82.7C171.6 82.7 171.3 82.6 171 82.4C170.7 82.2 170.5 81.9999 170.3 81.5999V84.3H169.4V77.3H170.2L170.3 78.3C170.5 78 170.7 77.7 171 77.5C171.3 77.3 171.7 77.2 172.1 77.2C172.4 77.2 172.7 77.3 173 77.4C173.3 77.5 173.5 77.7 173.7 77.9C173.9 78.1 174.1 78.4 174.2 78.7C174.3 79 174.4 79.4 174.4 79.9C174.4 80.4 174.3 80.7999 174.2 81.0999C174.1 81.3999 173.9 81.7 173.7 81.9C173.5 82.1 173.2 82.3 173 82.4C172.6 82.7 172.3 82.7 172 82.7ZM171.9 81.9C172.4 81.9 172.7 81.7 173 81.4C173.3 81.1 173.4 80.6 173.4 80C173.4 79.4 173.3 78.8999 173 78.5999C172.7 78.2999 172.3 78.0999 171.9 78.0999C171.7 78.0999 171.5 78.1 171.3 78.2C171.1 78.3 170.9 78.3999 170.8 78.5999C170.7 78.7999 170.5 79 170.5 79.2C170.4 79.4 170.4 79.7 170.4 80C170.4 80.3 170.4 80.6 170.5 80.8C170.6 81 170.7 81.2 170.8 81.4C170.9 81.6 171.1 81.7 171.3 81.8C171.4 81.9 171.6 81.9 171.9 81.9Z" fill="#262626"/>
<path d="M178.4 81.6C178.3 81.7 178.3 81.8 178.2 82C178.1 82.2 178 82.2 177.9 82.4C177.8 82.5 177.6 82.6 177.4 82.7C177.2 82.8 177 82.8 176.7 82.8C176.2 82.8 175.9 82.7 175.6 82.4C175.3 82.1 175.2 81.8 175.2 81.3C175.2 80.7 175.4 80.3 175.8 80C176.2 79.7 176.8 79.6 177.5 79.6H178.5V79.2C178.5 78.8 178.4 78.6 178.2 78.4C178 78.2 177.7 78.2 177.2 78.2C176.9 78.2 176.6 78.3 176.3 78.4C176 78.5 175.8 78.6 175.5 78.8V77.8C175.7 77.7 175.9 77.6 176.3 77.5C176.6 77.4 177 77.3 177.3 77.3C178 77.3 178.4 77.4 178.8 77.7C179.1 78 179.3 78.4 179.3 79V81.8C179.3 81.9 179.3 81.9 179.3 82C179.3 82.1 179.3 82.2 179.3 82.2C179.3 82.3 179.3 82.4 179.3 82.4C179.3 82.5 179.3 82.5 179.3 82.6H178.5C178.5 82.5 178.5 82.4 178.4 82.2C178.4 82 178.4 81.9 178.4 81.8V81.6ZM176.8 81.9C177.1 81.9 177.3 81.8 177.5 81.7C177.7 81.6 177.8 81.5 178 81.3C178.1 81.1 178.2 81 178.3 80.9C178.4 80.8 178.4 80.7 178.4 80.6V80.2H177.5C177 80.2 176.6 80.3 176.4 80.4C176.2 80.6 176 80.8 176 81.1C176 81.3 176.1 81.5 176.2 81.7C176.3 81.9 176.5 81.9 176.8 81.9Z" fill="#262626"/>
<path d="M182.8 82.7C182.4 82.7 182 82.6 181.7 82.5C181.4 82.4 181.1 82.2 180.9 82C180.7 81.8 180.5 81.5 180.4 81.2C180.3 80.9 180.2 80.5 180.2 80.1C180.2 79.7 180.3 79.3 180.4 79C180.5 78.7 180.7 78.4 180.9 78.2C181.1 78 181.4 77.8 181.7 77.7C182 77.6 182.4 77.5 182.8 77.5C183.1 77.5 183.4 77.5 183.7 77.6C184 77.7 184.2 77.8 184.4 77.9V78.7C184.2 78.6 183.9 78.5 183.7 78.4C183.4 78.3 183.2 78.3 182.9 78.3C182.3 78.3 181.8 78.5 181.6 78.8C181.3 79.1 181.2 79.6 181.2 80.2C181.2 80.8 181.3 81.3 181.6 81.6C181.9 81.9 182.3 82.1 182.9 82.1C183.2 82.1 183.5 82.1 183.8 82C184.1 81.9 184.3 81.8 184.5 81.7V82.5C184.3 82.6 184.1 82.7 183.8 82.8C183.5 82.7 183.2 82.7 182.8 82.7Z" fill="#262626"/>
<path d="M188 78.1C187.6 78.1 187.3 78.2 187 78.4C186.7 78.6 186.5 78.8 186.4 79.1V82.6H185.5V75.4H186.4V77.4V78.3C186.5 78 186.8 77.8 187.1 77.6C187.4 77.4 187.8 77.3 188.2 77.3C188.7 77.3 189.1 77.4 189.4 77.7C189.7 78 189.9 78.4 189.9 78.9V82.5H189V79C189 78.6 188.9 78.4 188.7 78.2C188.5 78.2 188.3 78.1 188 78.1Z" fill="#262626"/>
<path d="M195.4 82.2C195.3 82.3 195.2 82.3 195.1 82.4C195 82.5 194.9 82.5 194.7 82.6C194.5 82.7 194.4 82.7 194.2 82.7C194 82.7 193.8 82.8 193.6 82.8C192.7 82.8 192.1 82.6 191.6 82.1C191.1 81.6 190.9 81 190.9 80.1C190.9 79.7 191 79.3 191.1 79C191.2 78.7 191.4 78.4 191.6 78.2C191.8 78 192.1 77.8 192.4 77.7C192.7 77.6 193 77.5 193.4 77.5C193.8 77.5 194.1 77.6 194.4 77.7C194.7 77.8 194.9 78 195.1 78.3C195.3 78.5 195.4 78.9 195.5 79.2C195.6 79.6 195.6 80 195.5 80.5H191.8C191.8 81.1 192 81.5 192.3 81.8C192.6 82.1 193 82.2 193.6 82.2C194 82.2 194.3 82.1 194.6 82C194.9 81.9 195.1 81.8 195.3 81.6V82.2H195.4ZM193.3 78.1C192.9 78.1 192.6 78.2 192.3 78.4C192 78.6 191.9 79 191.8 79.5H194.6C194.6 79 194.5 78.7 194.3 78.4C194 78.2 193.7 78.1 193.3 78.1Z" fill="#262626"/>
<path d="M200.6 79.5H199.8V82.6H198.9V75.4H199.8V78.7H200.5L203.1 75.4H204.2L201.4 79L204.3 82.6H203.1L200.6 79.5Z" fill="#262626"/>
<path d="M208 81.6C207.9 81.7 207.9 81.8 207.8 82C207.7 82.2 207.6 82.2 207.5 82.4C207.4 82.5 207.2 82.6 207 82.7C206.8 82.8 206.6 82.8 206.3 82.8C205.8 82.8 205.5 82.7 205.2 82.4C204.9 82.1 204.8 81.8 204.8 81.3C204.8 80.7 205 80.3 205.4 80C205.8 79.7 206.4 79.6 207.1 79.6H208.1V79.2C208.1 78.8 208 78.6 207.8 78.4C207.6 78.2 207.3 78.2 206.8 78.2C206.5 78.2 206.2 78.3 205.9 78.4C205.6 78.5 205.4 78.6 205.1 78.8V77.8C205.3 77.7 205.5 77.6 205.9 77.5C206.2 77.4 206.6 77.3 206.9 77.3C207.6 77.3 208 77.4 208.4 77.7C208.7 78 208.9 78.4 208.9 79V81.8C208.9 81.9 208.9 81.9 208.9 82C208.9 82.1 208.9 82.2 208.9 82.2C208.9 82.3 208.9 82.4 208.9 82.4C208.9 82.5 208.9 82.5 208.9 82.6H208.1C208.1 82.5 208.1 82.4 208 82.2C208 82 208 81.9 208 81.8V81.6ZM206.5 81.9C206.8 81.9 207 81.8 207.2 81.7C207.4 81.6 207.5 81.5 207.7 81.3C207.8 81.1 207.9 81 208 80.9C208.1 80.8 208.1 80.7 208.1 80.6V80.2H207.2C206.7 80.2 206.3 80.3 206.1 80.4C205.9 80.6 205.7 80.8 205.7 81.1C205.7 81.3 205.8 81.5 205.9 81.7C206 81.9 206.2 81.9 206.5 81.9Z" fill="#262626"/>
<path d="M211.5 78.2V82.6H210.6V78.2H210V77.4H210.6V77.3C210.6 76.7 210.8 76.2 211.1 75.9C211.4 75.6 211.9 75.4 212.4 75.4C212.6 75.4 212.9 75.4 213.1 75.5V76.3C213 76.3 213 76.3 212.8 76.2C212.7 76.2 212.6 76.2 212.4 76.2C212.1 76.2 211.9 76.3 211.7 76.5C211.5 76.7 211.4 77 211.4 77.4V77.5H212.9V78.3H211.5V78.2Z" fill="#262626"/>
<path d="M215.3 80.4H214.8V82.6H213.9V75.4H214.8V79.6H215.3L217.1 77.4H218.1L216 80L218.2 82.6H217.1L215.3 80.4Z" fill="#262626"/>
<path d="M221.9 81.6C221.8 81.7 221.8 81.8 221.7 82C221.6 82.2 221.5 82.2 221.4 82.4C221.3 82.5 221.1 82.6 220.9 82.7C220.7 82.8 220.5 82.8 220.2 82.8C219.7 82.8 219.4 82.7 219.1 82.4C218.8 82.1 218.7 81.8 218.7 81.3C218.7 80.7 218.9 80.3 219.3 80C219.7 79.7 220.3 79.6 221 79.6H222V79.2C222 78.8 221.9 78.6 221.7 78.4C221.5 78.2 221.2 78.2 220.7 78.2C220.4 78.2 220.1 78.3 219.8 78.4C219.5 78.5 219.3 78.6 219 78.8V77.8C219.2 77.7 219.4 77.6 219.8 77.5C220.1 77.4 220.5 77.3 220.8 77.3C221.5 77.3 221.9 77.4 222.3 77.7C222.6 78 222.8 78.4 222.8 79V81.8C222.8 81.9 222.8 81.9 222.8 82C222.8 82.1 222.8 82.2 222.8 82.2C222.8 82.3 222.8 82.4 222.8 82.4C222.8 82.5 222.8 82.5 222.8 82.6H222C222 82.5 222 82.4 221.9 82.2C221.9 82 221.9 81.9 221.9 81.8V81.6ZM220.3 81.9C220.6 81.9 220.8 81.8 221 81.7C221.2 81.6 221.3 81.5 221.5 81.3C221.6 81.1 221.7 81 221.8 80.9C221.9 80.8 221.9 80.7 221.9 80.6V80.2H221C220.5 80.2 220.1 80.3 219.9 80.4C219.7 80.6 219.5 80.8 219.5 81.1C219.5 81.3 219.6 81.5 219.7 81.7C219.8 81.9 220 81.9 220.3 81.9Z" fill="#262626"/>
<path d="M230.1 83.6C229.5 83.6 229 83.5 228.5 83.3C228 83.1 227.6 82.8 227.2 82.4C226.8 82 226.5 81.6 226.3 81.1C226.1 80.6 226 80 226 79.4C226 78.8 226.1 78.3 226.3 77.8C226.5 77.3 226.8 76.9 227.2 76.5C227.6 76.1 228 75.9 228.5 75.7C229 75.5 229.5 75.4 230.1 75.4C230.7 75.4 231.2 75.5 231.7 75.7C232.2 75.9 232.6 76.2 233 76.5C233.4 76.9 233.7 77.3 233.9 77.8C234.1 78.3 234.2 78.8 234.2 79.4C234.2 80 234.1 80.6 233.9 81.1C233.7 81.6 233.4 82 233 82.4C232.6 82.8 232.2 83.1 231.7 83.3C231.2 83.5 230.7 83.6 230.1 83.6ZM230.1 83C230.6 83 231.1 82.9 231.5 82.7C231.9 82.5 232.3 82.3 232.6 82C232.9 81.7 233.1 81.3 233.3 80.9C233.5 80.5 233.6 80 233.6 79.5C233.6 79 233.5 78.5 233.3 78.1C233.1 77.7 232.9 77.3 232.6 77C232.3 76.7 231.9 76.4 231.5 76.3C231.1 76.1 230.6 76 230.1 76C229.6 76 229.1 76.1 228.7 76.3C228.3 76.5 227.9 76.7 227.6 77C227.3 77.3 227.1 77.7 226.9 78.1C226.7 78.5 226.6 79 226.6 79.5C226.6 80 226.7 80.5 226.9 80.9C227.1 81.3 227.3 81.7 227.6 82C227.9 82.3 228.3 82.6 228.7 82.7C229.1 82.9 229.6 83 230.1 83ZM230.3 81.6C229.6 81.6 229.1 81.4 228.7 81C228.3 80.6 228.1 80.1 228.1 79.4C228.1 78.7 228.3 78.2 228.7 77.8C229.1 77.4 229.6 77.2 230.3 77.2C230.6 77.2 230.8 77.2 231 77.3C231.2 77.4 231.4 77.4 231.5 77.5V78.2C231.3 78.1 231.2 78 231 78C230.8 78 230.6 77.9 230.4 77.9C229.5 77.9 229.1 78.4 229.1 79.3C229.1 79.8 229.2 80.2 229.5 80.4C229.7 80.6 230.1 80.8 230.5 80.8C230.7 80.8 230.9 80.8 231.1 80.7C231.3 80.6 231.5 80.6 231.6 80.4V81.1C231.5 81.2 231.4 81.3 231.2 81.3C230.8 81.6 230.6 81.6 230.3 81.6Z" fill="#262626"/>
<path d="M234.6 83.8L237.8 75H238.6L235.4 83.8H234.6Z" fill="#262626"/>
<path d="M239.4 75.4H241.8C242.3 75.4 242.7 75.5 243.1 75.6C243.5 75.7 243.9 75.9 244.2 76.2C244.5 76.5 244.7 76.8 244.9 77.2C245.1 77.6 245.2 78.2 245.2 78.8C245.2 79.4 245.1 80 244.9 80.5C244.7 81 244.5 81.4 244.2 81.7C243.9 82 243.5 82.3 243.1 82.4C242.7 82.6 242.2 82.6 241.7 82.6H239.4V75.4ZM240.4 76.3V81.8H241.8C242.2 81.8 242.5 81.7 242.8 81.6C243.1 81.5 243.4 81.3 243.6 81.1C243.8 80.9 244 80.6 244.1 80.2C244.2 79.8 244.3 79.4 244.3 78.9C244.3 78.4 244.2 78 244.1 77.7C244 77.4 243.8 77.1 243.6 76.9C243.4 76.7 243.1 76.6 242.8 76.5C242.5 76.4 242.2 76.4 241.8 76.4H240.4V76.3Z" fill="#262626"/>
<path d="M249.4 81.6C249.3 81.7 249.3 81.8 249.2 82C249.1 82.2 249 82.2 248.9 82.4C248.8 82.5 248.6 82.6 248.4 82.7C248.2 82.8 248 82.8 247.7 82.8C247.2 82.8 246.9 82.7 246.6 82.4C246.3 82.1 246.2 81.8 246.2 81.3C246.2 80.7 246.4 80.3 246.8 80C247.2 79.7 247.8 79.6 248.5 79.6H249.5V79.2C249.5 78.8 249.4 78.6 249.2 78.4C249 78.2 248.7 78.2 248.2 78.2C247.9 78.2 247.6 78.3 247.3 78.4C247 78.5 246.8 78.6 246.5 78.8V77.8C246.7 77.7 246.9 77.6 247.3 77.5C247.6 77.4 248 77.3 248.3 77.3C249 77.3 249.4 77.4 249.8 77.7C250.1 78 250.3 78.4 250.3 79V81.8C250.3 81.9 250.3 81.9 250.3 82C250.3 82.1 250.3 82.2 250.3 82.2C250.3 82.3 250.3 82.4 250.3 82.4C250.3 82.5 250.3 82.5 250.3 82.6H249.5C249.5 82.5 249.5 82.4 249.4 82.2C249.4 82 249.4 81.9 249.4 81.8V81.6ZM247.8 81.9C248.1 81.9 248.3 81.8 248.5 81.7C248.7 81.6 248.8 81.5 249 81.3C249.1 81.1 249.2 81 249.3 80.9C249.4 80.8 249.4 80.7 249.4 80.6V80.2H248.5C248 80.2 247.6 80.3 247.4 80.4C247.2 80.6 247 80.8 247 81.1C247 81.3 247.1 81.5 247.2 81.7C247.3 81.9 247.5 81.9 247.8 81.9Z" fill="#262626"/>
<path d="M253.7 82.7C253.5 82.7 253.4 82.8 253.2 82.8C252.9 82.8 252.7 82.8 252.6 82.7C252.5 82.6 252.3 82.5 252.2 82.4C252.1 82.3 252 82.1 252 82C251.9 81.8 251.9 81.7 251.9 81.5V78.3H251.3V77.5H251.9V76.4H252.8V77.5H254.3V78.3H252.8V81.4C252.8 81.6 252.9 81.8 253 81.9C253.1 82 253.3 82.1 253.6 82.1C253.9 82.1 254.1 82 254.3 81.9V82.7C254 82.6 253.9 82.6 253.7 82.7Z" fill="#262626"/>
<path d="M258.4 81.6C258.3 81.7 258.3 81.8 258.2 82C258.1 82.2 258 82.2 257.9 82.4C257.8 82.5 257.6 82.6 257.4 82.7C257.2 82.8 257 82.8 256.7 82.8C256.2 82.8 255.9 82.7 255.6 82.4C255.3 82.1 255.2 81.8 255.2 81.3C255.2 80.7 255.4 80.3 255.8 80C256.2 79.7 256.8 79.6 257.5 79.6H258.5V79.2C258.5 78.8 258.4 78.6 258.2 78.4C258 78.2 257.7 78.2 257.2 78.2C256.9 78.2 256.6 78.3 256.3 78.4C256 78.5 255.8 78.6 255.5 78.8V77.8C255.7 77.7 255.9 77.6 256.3 77.5C256.6 77.4 257 77.3 257.3 77.3C258 77.3 258.4 77.4 258.8 77.7C259.1 78 259.3 78.4 259.3 79V81.8C259.3 81.9 259.3 81.9 259.3 82C259.3 82.1 259.3 82.2 259.3 82.2C259.3 82.3 259.3 82.4 259.3 82.4C259.3 82.5 259.3 82.5 259.3 82.6H258.5C258.5 82.5 258.5 82.4 258.4 82.2C258.4 82 258.4 81.9 258.4 81.8V81.6ZM256.8 81.9C257.1 81.9 257.3 81.8 257.5 81.7C257.7 81.6 257.8 81.5 258 81.3C258.1 81.1 258.2 81 258.3 80.9C258.4 80.8 258.4 80.7 258.4 80.6V80.2H257.5C257 80.2 256.6 80.3 256.4 80.4C256.2 80.6 256 80.8 256 81.1C256 81.3 256.1 81.5 256.2 81.7C256.3 81.9 256.5 81.9 256.8 81.9Z" fill="#262626"/>
<path d="M264.9 82.7C264.6 82.7 264.3 82.7 264 82.6C263.7 82.6 263.5 82.5 263.3 82.4C263.1 82.3 262.9 82.3 262.8 82.2C262.7 82.1 262.6 82 262.5 82V81.1C262.6 81.2 262.7 81.3 262.9 81.4C263.1 81.5 263.2 81.6 263.5 81.6C263.8 81.6 263.9 81.7 264.2 81.8C264.4 81.8 264.7 81.9 265 81.9C265.5 81.9 265.9 81.8 266.2 81.6C266.5 81.4 266.7 81.1 266.7 80.7C266.7 80.5 266.7 80.3 266.6 80.2C266.5 80.1 266.4 80 266.3 79.9C266.2 79.8 266 79.7 265.8 79.7C265.6 79.7 265.3 79.6 265.1 79.5C264.8 79.4 264.5 79.3 264.3 79.2C264 79.1 263.8 79 263.5 78.8C263.3 78.6 263.1 78.5 263 78.2C262.9 78 262.8 77.7 262.8 77.3C262.8 76.7 263 76.2 263.5 75.8C263.9 75.5 264.6 75.3 265.5 75.3C265.8 75.3 266 75.3 266.2 75.3C266.4 75.3 266.6 75.4 266.7 75.4C266.9 75.4 267 75.5 267.1 75.5C267.2 75.5 267.3 75.6 267.4 75.7V76.6C267.1 76.4 266.8 76.3 266.5 76.2C266.2 76.1 265.8 76.1 265.4 76.1C265.1 76.1 264.8 76.1 264.6 76.2C264.4 76.2 264.2 76.3 264.1 76.4C264 76.5 263.9 76.6 263.8 76.7C263.7 76.8 263.7 77 263.7 77.2C263.7 77.4 263.7 77.6 263.8 77.7C263.9 77.8 264 77.9 264.2 78C264.4 78.1 264.5 78.2 264.7 78.2C264.9 78.3 265.1 78.3 265.3 78.4C265.6 78.5 265.9 78.5 266.2 78.6C266.5 78.7 266.8 78.8 267 79C267.2 79.2 267.4 79.4 267.6 79.6C267.7 79.8 267.8 80.2 267.8 80.5C267.8 80.9 267.7 81.2 267.6 81.5C267.4 81.8 267.3 82 267 82.1C266.8 82.3 266.5 82.4 266.1 82.5C265.6 82.7 265.2 82.7 264.9 82.7Z" fill="#262626"/>
<path d="M270.8 82.7C270.6 82.7 270.5 82.8 270.3 82.8C270 82.8 269.8 82.8 269.7 82.7C269.6 82.6 269.4 82.5 269.3 82.4C269.2 82.3 269.1 82.1 269.1 82C269 81.8 269 81.7 269 81.5V78.3H268.4V77.5H269V76.4H269.9V77.5H271.4V78.3H269.9V81.4C269.9 81.6 270 81.8 270.1 81.9C270.2 82 270.4 82.1 270.7 82.1C271 82.1 271.2 82 271.4 81.9V82.7C271.1 82.6 270.9 82.6 270.8 82.7Z" fill="#262626"/>
<path d="M273.9 78.6C273.6 78.8 273.4 79 273.2 79.3V82.6H272.3V77.4H273.1L273.2 78.5C273.3 78.2 273.6 77.9 273.8 77.7C274.1 77.5 274.4 77.3 274.9 77.3V78.3C274.5 78.3 274.2 78.4 273.9 78.6Z" fill="#262626"/>
<path d="M280 82.2C279.9 82.3 279.8 82.3 279.7 82.4C279.6 82.5 279.5 82.5 279.3 82.6C279.1 82.7 279 82.7 278.8 82.7C278.6 82.7 278.4 82.8 278.2 82.8C277.3 82.8 276.7 82.6 276.2 82.1C275.7 81.6 275.5 81 275.5 80.1C275.5 79.7 275.6 79.3 275.7 79C275.8 78.7 276 78.4 276.2 78.2C276.4 78 276.7 77.8 277 77.7C277.3 77.6 277.6 77.5 278 77.5C278.4 77.5 278.7 77.6 279 77.7C279.3 77.8 279.5 78 279.7 78.3C279.9 78.5 280 78.9 280.1 79.2C280.2 79.6 280.2 80 280.1 80.5H276.4C276.4 81.1 276.6 81.5 276.9 81.8C277.2 82.1 277.6 82.2 278.2 82.2C278.6 82.2 278.9 82.1 279.2 82C279.5 81.9 279.7 81.8 279.9 81.6V82.2H280ZM277.9 78.1C277.5 78.1 277.2 78.2 276.9 78.4C276.6 78.6 276.5 79 276.4 79.5H279.2C279.2 79 279.1 78.7 278.9 78.4C278.6 78.2 278.3 78.1 277.9 78.1Z" fill="#262626"/>
<path d="M284.2 81.6C284.1 81.7 284.1 81.8 284 82C283.9 82.2 283.8 82.2 283.7 82.4C283.6 82.5 283.4 82.6 283.2 82.7C283 82.8 282.8 82.8 282.5 82.8C282 82.8 281.7 82.7 281.4 82.4C281.1 82.1 281 81.8 281 81.3C281 80.7 281.2 80.3 281.6 80C282 79.7 282.6 79.6 283.3 79.6H284.3V79.2C284.3 78.8 284.2 78.6 284 78.4C283.8 78.2 283.5 78.2 283 78.2C282.7 78.2 282.4 78.3 282.1 78.4C281.8 78.5 281.6 78.6 281.3 78.8V77.8C281.5 77.7 281.7 77.6 282.1 77.5C282.4 77.4 282.8 77.3 283.1 77.3C283.8 77.3 284.2 77.4 284.6 77.7C284.9 78 285.1 78.4 285.1 79V81.8C285.1 81.9 285.1 81.9 285.1 82C285.1 82.1 285.1 82.2 285.1 82.2C285.1 82.3 285.1 82.4 285.1 82.4C285.1 82.5 285.1 82.5 285.1 82.6H284.3C284.3 82.5 284.3 82.4 284.2 82.2C284.2 82 284.2 81.9 284.2 81.8V81.6ZM282.6 81.9C282.9 81.9 283.1 81.8 283.3 81.7C283.5 81.6 283.6 81.5 283.8 81.3C283.9 81.1 284 81 284.1 80.9C284.2 80.8 284.2 80.7 284.2 80.6V80.2H283.3C282.8 80.2 282.4 80.3 282.2 80.4C282 80.6 281.8 80.8 281.8 81.1C281.8 81.3 281.9 81.5 282 81.7C282.1 81.9 282.3 81.9 282.6 81.9Z" fill="#262626"/>
<path d="M287.3 82.6H286.4V77.4H287.2L287.3 78.3C287.4 78 287.7 77.8 287.9 77.6C288.2 77.4 288.5 77.3 289 77.3C289.4 77.3 289.7 77.4 290 77.6C290.3 77.8 290.4 78.1 290.5 78.5C290.6 78.1 290.9 77.9 291.2 77.7C291.5 77.5 291.9 77.4 292.3 77.4C292.8 77.4 293.2 77.5 293.4 77.8C293.7 78.1 293.8 78.5 293.8 79V82.6H292.9V79.1C292.9 78.8 292.8 78.5 292.6 78.4C292.4 78.2 292.2 78.2 291.9 78.2C291.7 78.2 291.5 78.2 291.4 78.3C291.3 78.4 291.1 78.4 291 78.5C290.9 78.6 290.8 78.7 290.7 78.9C290.6 79 290.5 79.2 290.4 79.3V82.7H289.5V79.1C289.5 78.8 289.4 78.5 289.2 78.4C289 78.3 288.8 78.2 288.5 78.2C288.3 78.2 288.1 78.2 288 78.3C287.9 78.3 287.7 78.4 287.6 78.5C287.5 78.6 287.4 78.7 287.3 78.8C287.2 78.9 287.1 79.1 287 79.2V82.6H287.3Z" fill="#262626"/>
<path d="M296.9 82.7C296.6 82.7 296.4 82.6999 296.2 82.5999C296 82.5999 295.8 82.5 295.7 82.4C295.6 82.3 295.4 82.3 295.3 82.2C295.2 82.1 295.1 82.1 295 82V81.2C295.1 81.3 295.2 81.3 295.3 81.4C295.4 81.5 295.6 81.4999 295.7 81.5999C295.9 81.6999 296 81.7 296.2 81.8C296.4 81.8 296.6 81.9 296.9 81.9C297.3 81.9 297.6 81.8 297.8 81.7C298 81.6 298.1 81.3999 298.1 81.0999C298.1 80.8999 298.1 80.8 298 80.7C297.9 80.6 297.8 80.5 297.7 80.5C297.6 80.4 297.4 80.4 297.3 80.4C297.1 80.4 297 80.3 296.8 80.3C296.6 80.3 296.4 80.1999 296.2 80.0999C296 79.9999 295.8 80 295.6 79.8C295.4 79.6 295.3 79.5 295.2 79.4C295.1 79.2 295 79 295 78.7C295 78.2 295.2 77.8999 295.5 77.5999C295.8 77.2999 296.4 77.2 297 77.2C297.4 77.2 297.7 77.2 298 77.3C298.3 77.4 298.5 77.5 298.7 77.5V78.3C298.5 78.2 298.3 78.1 298.1 78C297.8 77.9 297.5 77.9 297.1 77.9C296.7 77.9 296.4 77.9999 296.2 78.0999C296 78.1999 295.9 78.4 295.9 78.7C295.9 78.8 295.9 79 296 79C296.1 79.1 296.1 79.1 296.2 79.2C296.3 79.3 296.4 79.3 296.6 79.3C296.7 79.3 296.9 79.4 297 79.4C297.2 79.4 297.5 79.4999 297.7 79.5999C297.9 79.6999 298.2 79.7 298.3 79.9C298.4 80.1 298.6 80.2 298.8 80.4C298.9 80.6 299 80.8 299 81.2C299 81.5 298.9 81.7 298.8 82C298.7 82.3 298.5 82.4 298.3 82.5C298.1 82.6 297.9 82.7 297.6 82.8C297.4 82.7 297.2 82.7 296.9 82.7Z" fill="#262626"/>
<rect x="488" y="98" width="130" height="60" rx="8" fill="#FFF2BF"/>
<path d="M517 124H519.9C520.5 124 521 124.1 521.5 124.2C522 124.3 522.4 124.6 522.8 124.9C523.2 125.2 523.5 125.6 523.7 126.1C523.9 126.6 524 127.2 524 128C524 128.8 523.9 129.4 523.7 130C523.5 130.6 523.2 131 522.8 131.4C522.4 131.8 522 132.1 521.5 132.3C521 132.5 520.4 132.6 519.8 132.6H517V124ZM518.1 125.1V131.7H519.7C520.1 131.7 520.5 131.6 520.9 131.5C521.3 131.4 521.6 131.2 521.8 130.9C522.1 130.6 522.3 130.3 522.4 129.8C522.5 129.3 522.6 128.8 522.6 128.2C522.6 127.6 522.5 127.1 522.4 126.7C522.3 126.3 522.1 126 521.8 125.8C521.5 125.6 521.2 125.4 520.9 125.3C520.5 125.2 520.2 125.2 519.8 125.2H518.1V125.1Z" fill="#262626"/>
<path d="M528.9 131.5C528.8 131.6 528.7 131.8 528.6 132C528.5 132.2 528.3 132.3 528.2 132.4C528.1 132.5 527.8 132.6 527.6 132.7C527.4 132.8 527.1 132.8 526.8 132.8C526.2 132.8 525.8 132.6 525.4 132.3C525.1 132 524.9 131.5 524.9 130.9C524.9 130.2 525.1 129.7 525.6 129.4C526.1 129.1 526.8 128.9 527.6 128.9H528.8V128.4C528.8 128 528.7 127.7 528.5 127.5C528.3 127.3 527.9 127.2 527.3 127.2C526.9 127.2 526.6 127.3 526.2 127.4C525.9 127.5 525.5 127.7 525.3 127.8V126.9C525.5 126.8 525.8 126.6 526.2 126.5C526.6 126.4 527 126.3 527.5 126.3C528.3 126.3 528.9 126.5 529.3 126.8C529.7 127.1 529.9 127.6 529.9 128.3V131.6C529.9 131.7 529.9 131.8 529.9 131.8C529.9 131.8 529.9 132 529.9 132.1C529.9 132.2 529.9 132.3 529.9 132.4C529.9 132.5 529.9 132.6 529.9 132.6H528.9C528.9 132.5 528.9 132.3 528.8 132.1C528.8 131.9 528.8 131.7 528.8 131.6L528.9 131.5ZM527.1 131.8C527.4 131.8 527.7 131.7 527.9 131.6C528.1 131.5 528.3 131.3 528.5 131.1C528.6 130.9 528.7 130.7 528.8 130.6C528.9 130.4 528.9 130.3 528.9 130.2V129.7H527.8C527.2 129.7 526.7 129.8 526.4 130C526.1 130.2 526 130.5 526 130.8C526 131.1 526.1 131.3 526.3 131.5C526.4 131.7 526.7 131.8 527.1 131.8Z" fill="#262626"/>
<path d="M534.2 132.7C534 132.7 533.8 132.8 533.6 132.8C533.3 132.8 533 132.8 532.8 132.7C532.6 132.6 532.4 132.5 532.3 132.3C532.2 132.2 532.1 132 532 131.8C531.9 131.6 531.9 131.4 531.9 131.2V127.3H531.2V126.4H531.9V125.1H533V126.4H534.8V127.3H533V131.1C533 131.4 533.1 131.6 533.2 131.7C533.3 131.8 533.6 131.9 533.9 131.9C534.2 131.9 534.5 131.8 534.8 131.6V132.6C534.5 132.6 534.4 132.7 534.2 132.7Z" fill="#262626"/>
<path d="M539.7 131.5C539.6 131.6 539.5 131.8 539.4 132C539.3 132.2 539.1 132.3 539 132.4C538.9 132.5 538.6 132.6 538.4 132.7C538.2 132.8 537.9 132.8 537.6 132.8C537 132.8 536.6 132.6 536.2 132.3C535.9 132 535.7 131.5 535.7 130.9C535.7 130.2 535.9 129.7 536.4 129.4C536.9 129.1 537.6 128.9 538.4 128.9H539.6V128.4C539.6 128 539.5 127.7 539.3 127.5C539.1 127.3 538.7 127.2 538.1 127.2C537.7 127.2 537.4 127.3 537 127.4C536.7 127.5 536.3 127.7 536.1 127.8V126.9C536.3 126.8 536.6 126.6 537 126.5C537.4 126.4 537.8 126.3 538.3 126.3C539.1 126.3 539.7 126.5 540.1 126.8C540.5 127.1 540.7 127.6 540.7 128.3V131.6C540.7 131.7 540.7 131.8 540.7 131.8C540.7 131.8 540.7 132 540.7 132.1C540.7 132.2 540.7 132.3 540.7 132.4C540.7 132.5 540.7 132.6 540.7 132.6H539.7C539.7 132.5 539.7 132.3 539.6 132.1C539.6 131.9 539.6 131.7 539.6 131.6L539.7 131.5ZM537.8 131.8C538.1 131.8 538.4 131.7 538.6 131.6C538.8 131.5 539 131.3 539.2 131.1C539.3 130.9 539.4 130.7 539.5 130.6C539.6 130.4 539.6 130.3 539.6 130.2V129.7H538.5C537.9 129.7 537.4 129.8 537.1 130C536.8 130.2 536.7 130.5 536.7 130.8C536.7 131.1 536.8 131.3 537 131.5C537.2 131.7 537.5 131.8 537.8 131.8Z" fill="#262626"/>
<path d="M548.3 125.1V132.7H547.2V125.1H544.5V124.1H550.9V125.1H548.3Z" fill="#262626"/>
<path d="M553.3 127.8C552.9 128 552.7 128.3 552.5 128.7V132.7H551.4V126.5H552.3L552.4 127.9C552.6 127.5 552.8 127.2 553.2 126.9C553.5 126.6 554 126.5 554.5 126.4V127.6C554.1 127.5 553.7 127.6 553.3 127.8Z" fill="#262626"/>
<path d="M559.4 131.5C559.3 131.6 559.2 131.8 559.1 132C559 132.2 558.8 132.3 558.7 132.4C558.6 132.5 558.3 132.6 558.1 132.7C557.9 132.8 557.6 132.8 557.3 132.8C556.7 132.8 556.3 132.6 555.9 132.3C555.6 132 555.4 131.5 555.4 130.9C555.4 130.2 555.6 129.7 556.1 129.4C556.6 129.1 557.3 128.9 558.1 128.9H559.3V128.4C559.3 128 559.2 127.7 559 127.5C558.8 127.3 558.4 127.2 557.8 127.2C557.4 127.2 557.1 127.3 556.7 127.4C556.4 127.5 556 127.7 555.8 127.8V126.9C556 126.8 556.3 126.6 556.7 126.5C557.1 126.4 557.5 126.3 558 126.3C558.8 126.3 559.4 126.5 559.8 126.8C560.2 127.1 560.4 127.6 560.4 128.3V131.6C560.4 131.7 560.4 131.8 560.4 131.8C560.4 131.8 560.4 132 560.4 132.1C560.4 132.2 560.4 132.3 560.4 132.4C560.4 132.5 560.4 132.6 560.4 132.6H559.4C559.4 132.5 559.4 132.3 559.3 132.1C559.3 131.9 559.3 131.7 559.3 131.6L559.4 131.5ZM557.5 131.8C557.8 131.8 558.1 131.7 558.3 131.6C558.5 131.5 558.7 131.3 558.9 131.1C559 130.9 559.1 130.7 559.2 130.6C559.3 130.4 559.3 130.3 559.3 130.2V129.7H558.2C557.6 129.7 557.1 129.8 556.8 130C556.5 130.2 556.4 130.5 556.4 130.8C556.4 131.1 556.5 131.3 556.7 131.5C556.9 131.7 557.1 131.8 557.5 131.8Z" fill="#262626"/>
<path d="M565 127.2C564.5 127.2 564.1 127.3 563.8 127.5C563.5 127.7 563.3 128 563.1 128.3V132.5H562V126.3H563V127.4C563.2 127 563.4 126.7 563.8 126.5C564.2 126.3 564.6 126.2 565.2 126.2C565.8 126.2 566.3 126.4 566.7 126.7C567.1 127 567.2 127.5 567.2 128.2V132.6H566.1V128.3C566.1 127.9 566 127.6 565.8 127.4C565.7 127.3 565.4 127.2 565 127.2Z" fill="#262626"/>
<path d="M570.9 132.8C570.6 132.8 570.3 132.8 570 132.7C569.7 132.6 569.5 132.6 569.3 132.5C569.1 132.4 569 132.3 568.8 132.3C568.6 132.3 568.6 132.1 568.5 132.1V131.2C568.6 131.3 568.7 131.4 568.8 131.5C568.9 131.6 569.1 131.7 569.3 131.8C569.5 131.9 569.7 131.9 570 132C570.3 132.1 570.5 132.1 570.8 132.1C571.2 132.1 571.6 132 571.9 131.9C572.2 131.8 572.3 131.5 572.3 131.2C572.3 131 572.3 130.9 572.2 130.8C572.1 130.7 572 130.6 571.9 130.5C571.8 130.4 571.6 130.4 571.4 130.3C571.2 130.2 571 130.2 570.8 130.2C570.5 130.1 570.3 130.1 570 130C569.7 129.9 569.5 129.8 569.3 129.7C569.1 129.6 568.9 129.4 568.8 129.2C568.7 129 568.6 128.7 568.6 128.4C568.6 127.8 568.8 127.4 569.3 127.1C569.7 126.8 570.3 126.6 571.1 126.6C571.5 126.6 571.9 126.6 572.3 126.7C572.6 126.8 572.9 126.9 573.1 127V127.9C572.9 127.8 572.6 127.7 572.3 127.6C572 127.5 571.6 127.5 571.2 127.5C570.7 127.5 570.4 127.6 570.1 127.7C569.8 127.8 569.7 128.1 569.7 128.4C569.7 128.6 569.7 128.7 569.8 128.8C569.9 128.9 570 129 570.1 129C570.2 129.1 570.4 129.1 570.5 129.1C570.6 129.1 570.8 129.2 571 129.2C571.3 129.3 571.6 129.3 571.8 129.4C572.1 129.5 572.3 129.6 572.6 129.7C572.9 129.8 573 130 573.2 130.2C573.3 130.4 573.4 130.7 573.4 131.1C573.4 131.5 573.3 131.8 573.2 132C573.1 132.2 572.9 132.4 572.6 132.6C572.4 132.7 572.1 132.8 571.8 132.9C571.5 132.7 571.2 132.8 570.9 132.8Z" fill="#262626"/>
<path d="M576.1 127.3V132.6H575V127.3H574.2V126.4H575V126.3C575 125.6 575.2 125 575.6 124.6C576 124.2 576.5 124 577.2 124C577.5 124 577.8 124 578 124.1V125C577.9 125 577.8 124.9 577.7 124.9C577.6 124.9 577.4 124.9 577.3 124.9C576.9 124.9 576.6 125 576.4 125.2C576.2 125.4 576.1 125.8 576.1 126.3V126.5H577.9V127.4H576.1V127.3Z" fill="#262626"/>
<path d="M583.9 132.1C583.8 132.2 583.7 132.2 583.6 132.3C583.5 132.4 583.3 132.4 583.1 132.5C582.9 132.6 582.7 132.6 582.5 132.7C582.3 132.7 582 132.8 581.7 132.8C580.7 132.8 579.9 132.5 579.3 131.9C578.8 131.3 578.5 130.5 578.5 129.5C578.5 129 578.6 128.5 578.7 128.1C578.8 127.7 579.1 127.4 579.3 127.1C579.6 126.8 579.9 126.6 580.2 126.5C580.6 126.4 581 126.3 581.4 126.3C581.8 126.3 582.2 126.4 582.6 126.5C583 126.7 583.2 126.9 583.5 127.2C583.8 127.5 583.9 127.9 584 128.3C584.1 128.7 584.1 129.2 584 129.8H579.6C579.6 130.5 579.8 131 580.2 131.3C580.6 131.6 581.1 131.8 581.8 131.8C582.3 131.8 582.7 131.7 583 131.6C583.3 131.5 583.6 131.3 583.9 131.2V132.1ZM581.4 127.2C580.9 127.2 580.6 127.3 580.2 127.6C579.9 127.9 579.7 128.3 579.6 128.9H582.9C582.9 128.3 582.8 127.9 582.5 127.6C582.2 127.3 581.9 127.2 581.4 127.2Z" fill="#262626"/>
<path d="M587.2 127.8C586.8 128 586.6 128.3 586.4 128.7V132.7H585.3V126.5H586.2L586.3 127.9C586.5 127.5 586.7 127.2 587.1 126.9C587.4 126.6 587.9 126.5 588.4 126.4V127.6C587.9 127.5 587.5 127.6 587.2 127.8Z" fill="#262626"/>
<path d="M484 127L479 124.113L479 129.887L484 127ZM428 127.5L479.5 127.5L479.5 126.5L428 126.5L428 127.5Z" fill="#262626"/>
<path d="M678 127L673 124.113L673 129.887L678 127ZM622 127.5L673.5 127.5L673.5 126.5L622 126.5L622 127.5Z" fill="#262626"/>
<rect x="37.5" y="97.5" width="77" height="59" rx="7.5" stroke="#5282FF"/>
<rect x="37.5" y="97.5" width="77" height="59" rx="7.5" stroke="#5282FF"/>
<path d="M71.8 134.5C71.6 134.5 71.4 134.4 71.2 134.3C71.1 134.2 71 134 71 133.8C71 133.6 71.1 133.4 71.2 133.2C71.3 133.1 71.5 133 71.8 133C72 133 72.2 133.1 72.4 133.2C72.5 133.3 72.6 133.5 72.6 133.8C72.6 134 72.5 134.2 72.4 134.3C72.2 134.5 72 134.5 71.8 134.5Z" fill="#262626"/>
<path d="M74.6 134.5C74.4 134.5 74.2 134.4 74 134.3C73.9 134.2 73.8 134 73.8 133.8C73.8 133.6 73.9 133.4 74 133.2C74.1 133.1 74.3 133 74.6 133C74.8 133 75 133.1 75.2 133.2C75.3 133.3 75.4 133.5 75.4 133.8C75.4 134 75.3 134.2 75.2 134.3C75 134.5 74.9 134.5 74.6 134.5Z" fill="#262626"/>
<path d="M77.5 134.5C77.3 134.5 77.1 134.4 76.9 134.3C76.8 134.2 76.7 134 76.7 133.8C76.7 133.6 76.8 133.4 76.9 133.2C77 133.1 77.2 133 77.5 133C77.7 133 77.9 133.1 78.1 133.2C78.2 133.3 78.3 133.5 78.3 133.8C78.3 134 78.2 134.2 78.1 134.3C77.9 134.5 77.7 134.5 77.5 134.5Z" fill="#262626"/>
<rect x="114.5" y="97.5" width="77" height="59" rx="7.5" stroke="#5282FF"/>
<path d="M149.8 134.5C149.6 134.5 149.4 134.4 149.2 134.3C149.1 134.2 149 134 149 133.8C149 133.6 149.1 133.4 149.2 133.2C149.3 133.1 149.5 133 149.8 133C150 133 150.2 133.1 150.4 133.2C150.5 133.3 150.6 133.5 150.6 133.8C150.6 134 150.5 134.2 150.4 134.3C150.2 134.5 150 134.5 149.8 134.5Z" fill="#262626"/>
<path d="M152.6 134.5C152.4 134.5 152.2 134.4 152 134.3C151.9 134.2 151.8 134 151.8 133.8C151.8 133.6 151.9 133.4 152 133.2C152.1 133.1 152.3 133 152.6 133C152.8 133 153 133.1 153.2 133.2C153.3 133.3 153.4 133.5 153.4 133.8C153.4 134 153.3 134.2 153.2 134.3C153 134.5 152.9 134.5 152.6 134.5Z" fill="#262626"/>
<path d="M155.5 134.5C155.3 134.5 155.1 134.4 154.9 134.3C154.8 134.2 154.7 134 154.7 133.8C154.7 133.6 154.8 133.4 154.9 133.2C155 133.1 155.2 133 155.5 133C155.7 133 155.9 133.1 156.1 133.2C156.2 133.3 156.3 133.5 156.3 133.8C156.3 134 156.2 134.2 156.1 134.3C155.9 134.5 155.7 134.5 155.5 134.5Z" fill="#262626"/>
<rect x="191.5" y="97.5" width="77" height="59" rx="7.5" stroke="#5282FF"/>
<path d="M225.8 134.5C225.6 134.5 225.4 134.4 225.2 134.3C225.1 134.2 225 134 225 133.8C225 133.6 225.1 133.4 225.2 133.2C225.3 133.1 225.5 133 225.8 133C226 133 226.2 133.1 226.4 133.2C226.5 133.3 226.6 133.5 226.6 133.8C226.6 134 226.5 134.2 226.4 134.3C226.2 134.5 226 134.5 225.8 134.5Z" fill="#262626"/>
<path d="M228.6 134.5C228.4 134.5 228.2 134.4 228 134.3C227.9 134.2 227.8 134 227.8 133.8C227.8 133.6 227.9 133.4 228 133.2C228.1 133.1 228.3 133 228.6 133C228.8 133 229 133.1 229.2 133.2C229.3 133.3 229.4 133.5 229.4 133.8C229.4 134 229.3 134.2 229.2 134.3C229 134.5 228.9 134.5 228.6 134.5Z" fill="#262626"/>
<path d="M231.5 134.5C231.3 134.5 231.1 134.4 230.9 134.3C230.8 134.2 230.7 134 230.7 133.8C230.7 133.6 230.8 133.4 230.9 133.2C231 133.1 231.2 133 231.5 133C231.7 133 231.9 133.1 232.1 133.2C232.2 133.3 232.3 133.5 232.3 133.8C232.3 134 232.2 134.2 232.1 134.3C231.9 134.5 231.7 134.5 231.5 134.5Z" fill="#262626"/>
<rect x="268.5" y="97.5" width="77" height="59" rx="7.5" stroke="#5282FF"/>
<path d="M302.8 134.5C302.6 134.5 302.4 134.4 302.2 134.3C302.1 134.2 302 134 302 133.8C302 133.6 302.1 133.4 302.2 133.2C302.3 133.1 302.5 133 302.8 133C303 133 303.2 133.1 303.4 133.2C303.5 133.3 303.6 133.5 303.6 133.8C303.6 134 303.5 134.2 303.4 134.3C303.2 134.5 303 134.5 302.8 134.5Z" fill="#262626"/>
<path d="M305.6 134.5C305.4 134.5 305.2 134.4 305 134.3C304.9 134.2 304.8 134 304.8 133.8C304.8 133.6 304.9 133.4 305 133.2C305.1 133.1 305.3 133 305.6 133C305.8 133 306 133.1 306.2 133.2C306.3 133.3 306.4 133.5 306.4 133.8C306.4 134 306.3 134.2 306.2 134.3C306 134.5 305.9 134.5 305.6 134.5Z" fill="#262626"/>
<path d="M308.5 134.5C308.3 134.5 308.1 134.4 307.9 134.3C307.8 134.2 307.7 134 307.7 133.8C307.7 133.6 307.8 133.4 307.9 133.2C308 133.1 308.2 133 308.5 133C308.7 133 308.9 133.1 309.1 133.2C309.2 133.3 309.3 133.5 309.3 133.8C309.3 134 309.2 134.2 309.1 134.3C308.9 134.5 308.7 134.5 308.5 134.5Z" fill="#262626"/>
<rect x="345.5" y="97.5" width="77" height="59" rx="7.5" stroke="#5282FF"/>
<path d="M380.8 134.5C380.6 134.5 380.4 134.4 380.2 134.3C380.1 134.2 380 134 380 133.8C380 133.6 380.1 133.4 380.2 133.2C380.3 133.1 380.5 133 380.8 133C381 133 381.2 133.1 381.4 133.2C381.5 133.3 381.6 133.5 381.6 133.8C381.6 134 381.5 134.2 381.4 134.3C381.2 134.5 381 134.5 380.8 134.5Z" fill="#262626"/>
<path d="M383.6 134.5C383.4 134.5 383.2 134.4 383 134.3C382.9 134.2 382.8 134 382.8 133.8C382.8 133.6 382.9 133.4 383 133.2C383.1 133.1 383.3 133 383.6 133C383.8 133 384 133.1 384.2 133.2C384.3 133.3 384.4 133.5 384.4 133.8C384.4 134 384.3 134.2 384.2 134.3C384 134.5 383.9 134.5 383.6 134.5Z" fill="#262626"/>
<path d="M386.5 134.5C386.3 134.5 386.1 134.4 385.9 134.3C385.8 134.2 385.7 134 385.7 133.8C385.7 133.6 385.8 133.4 385.9 133.2C386 133.1 386.2 133 386.5 133C386.7 133 386.9 133.1 387.1 133.2C387.2 133.3 387.3 133.5 387.3 133.8C387.3 134 387.2 134.2 387.1 134.3C386.9 134.5 386.7 134.5 386.5 134.5Z" fill="#262626"/>
<path d="M690 97H804C808.4 97 812 100.6 812 105V149C812 153.4 808.4 157 804 157H690C685.6 157 682 153.4 682 149V105C682 100.5 685.6 97 690 97Z" fill="#EEF3FE"/>
<path d="M717 111C725.8 111 733 118.2 733 127C733 135.8 725.8 143 717 143C708.2 143 701 135.8 701 127C701 118.1 708.2 111 717 111Z" fill="#5282FF"/>
<path fill-rule="evenodd" clip-rule="evenodd" d="M710.4 120.1C710.1 120.4 710 120.7 710 120.9C710 121.1 710.1 121.4 710.4 121.7C710.7 122 711.2 122.3 711.8 122.6C713.1 123.1 714.9 123.5 717 123.5C719 123.5 720.9 123.2 722.2 122.6C722.8 122.3 723.3 122 723.6 121.7C723.9 121.4 724 121.1 724 120.9C724 120.7 723.9 120.4 723.6 120.1C723.3 119.8 722.8 119.5 722.2 119.2C720.9 118.7 719.1 118.3 717 118.3C715 118.3 713.1 118.6 711.8 119.2C711.2 119.5 710.7 119.8 710.4 120.1ZM709.5 119.2C709 119.7 708.7 120.2 708.7 120.9V126.6V132.3C708.7 133 709 133.5 709.5 134C710 134.5 710.6 134.8 711.3 135.1C712.8 135.7 714.8 136.1 716.9 136.1C719.1 136.1 721.1 135.7 722.5 135.1C723.2 134.8 723.9 134.4 724.3 134C724.8 133.5 725.1 133 725.1 132.3V126.6V120.9C725.1 120.2 724.8 119.7 724.3 119.2C723.8 118.7 723.2 118.4 722.5 118.1C721 117.5 719 117.1 716.9 117.1C714.7 117.1 712.7 117.5 711.3 118.1C710.6 118.4 710 118.8 709.5 119.2ZM724 128.7V132.3C724 132.5 723.9 132.8 723.6 133.1C723.3 133.4 722.8 133.7 722.2 134C720.9 134.5 719.1 134.9 717 134.9C715 134.9 713.1 134.6 711.8 134C711.2 133.7 710.7 133.4 710.4 133.1C710.1 132.8 710 132.5 710 132.3V128.7C710.4 129 710.8 129.2 711.4 129.4C712.9 130 714.9 130.4 717 130.4C719.2 130.4 721.2 130 722.6 129.4C723.2 129.3 723.6 129 724 128.7ZM710 126.6C710 126.8 710.1 127.1 710.4 127.4C710.7 127.7 711.2 128 711.8 128.3C713.1 128.8 714.9 129.2 717 129.2C719 129.2 720.9 128.9 722.2 128.3C722.8 128 723.3 127.7 723.6 127.4C723.9 127.1 724 126.8 724 126.6V123C723.6 123.3 723.2 123.5 722.6 123.7C721.1 124.3 719.1 124.7 717 124.7C714.8 124.7 712.8 124.3 711.4 123.7C710.9 123.5 710.4 123.2 710 123V126.6Z" fill="white"/>
<path d="M746.9 124V131.6H745.7V124H743V123H749.4V124H746.9Z" fill="black"/>
<path d="M753.6 130.4C753.5 130.5 753.4 130.7 753.3 130.9C753.2 131.1 753 131.2 752.9 131.3C752.8 131.4 752.5 131.5 752.3 131.6C752.1 131.7 751.8 131.7 751.5 131.7C750.9 131.7 750.5 131.5 750.1 131.2C749.8 130.9 749.6 130.4 749.6 129.8C749.6 129.1 749.8 128.6 750.3 128.3C750.8 128 751.5 127.8 752.3 127.8H753.5V127.3C753.5 126.9 753.4 126.6 753.2 126.4C753 126.2 752.6 126.1 752 126.1C751.6 126.1 751.3 126.2 750.9 126.3C750.6 126.4 750.2 126.6 750 126.7V125.8C750.2 125.7 750.5 125.5 750.9 125.4C751.3 125.3 751.7 125.2 752.2 125.2C753 125.2 753.6 125.4 754 125.7C754.4 126 754.6 126.5 754.6 127.2V130.5C754.6 130.6 754.6 130.7 754.6 130.7C754.6 130.7 754.6 130.9 754.6 131C754.6 131.1 754.6 131.2 754.6 131.3C754.6 131.4 754.6 131.5 754.6 131.5H753.6C753.6 131.4 753.6 131.2 753.5 131C753.5 130.8 753.5 130.6 753.5 130.5L753.6 130.4ZM751.7 130.8C752 130.8 752.3 130.7 752.5 130.6C752.7 130.5 752.9 130.3 753.1 130.1C753.2 129.9 753.3 129.7 753.4 129.6C753.5 129.4 753.5 129.3 753.5 129.2V128.7H752.4C751.8 128.7 751.3 128.8 751 129C750.7 129.2 750.6 129.5 750.6 129.8C750.6 130.1 750.7 130.3 750.9 130.5C751.1 130.7 751.3 130.8 751.7 130.8Z" fill="black"/>
<path d="M758.1 126.8C757.7 127 757.5 127.3 757.3 127.7V131.7H756.2V125.5H757.1L757.2 126.9C757.4 126.5 757.6 126.2 758 125.9C758.3 125.6 758.8 125.5 759.3 125.4V126.6C758.9 126.5 758.5 126.6 758.1 126.8Z" fill="black"/>
<path d="M765.8 131.1C765.8 131.5 765.7 131.9 765.6 132.2C765.5 132.5 765.3 132.8 765 133C764.7 133.2 764.4 133.4 764 133.5C763.6 133.6 763.1 133.7 762.6 133.7C762.3 133.7 762 133.7 761.8 133.7C761.6 133.7 761.4 133.6 761.2 133.6C761 133.6 760.9 133.5 760.8 133.4C760.7 133.3 760.6 133.3 760.5 133.2V132.3C760.6 132.4 760.8 132.4 760.9 132.5C761 132.6 761.2 132.6 761.4 132.7C761.6 132.7 761.8 132.8 762 132.8C762.2 132.8 762.5 132.8 762.7 132.8C763.5 132.8 764 132.7 764.3 132.4C764.6 132.1 764.8 131.7 764.8 131.1V130.1C764.6 130.5 764.4 130.8 764 131C763.7 131.2 763.3 131.3 762.8 131.3C762.4 131.3 762.1 131.2 761.8 131.1C761.5 131 761.2 130.8 760.9 130.5C760.6 130.2 760.4 129.9 760.3 129.6C760.2 129.3 760.1 128.8 760.1 128.3C760.1 127.8 760.2 127.3 760.3 127C760.4 126.7 760.6 126.3 760.9 126C761.2 125.7 761.4 125.6 761.8 125.4C762.1 125.3 762.5 125.2 762.9 125.2C763.4 125.2 763.8 125.3 764.2 125.5C764.5 125.7 764.8 126 765 126.4V126.3C765 126.2 765 126 765 125.8C765 125.6 765 125.4 765 125.3H766C766 125.4 766 125.6 766 125.8C766 126 766 126.2 766 126.3V131.1H765.8ZM763 130.4C763.3 130.4 763.5 130.4 763.7 130.3C763.9 130.2 764.1 130.1 764.3 129.9C764.5 129.7 764.6 129.5 764.7 129.2C764.8 128.9 764.8 128.6 764.8 128.3C764.8 127.6 764.6 127.1 764.3 126.7C764 126.3 763.5 126.2 763 126.2C762.7 126.2 762.5 126.2 762.3 126.3C762.1 126.4 761.9 126.5 761.7 126.7C761.5 126.9 761.4 127.1 761.3 127.4C761.2 127.7 761.2 128 761.2 128.3C761.2 128.7 761.2 129 761.3 129.2C761.4 129.5 761.5 129.7 761.7 129.8C761.9 130 762.1 130.1 762.3 130.2C762.5 130.3 762.7 130.4 763 130.4Z" fill="black"/>
<path d="M772.5 131.1C772.4 131.2 772.3 131.2 772.2 131.3C772.1 131.4 771.9 131.4 771.7 131.5C771.5 131.6 771.3 131.6 771.1 131.7C770.9 131.7 770.6 131.8 770.3 131.8C769.3 131.8 768.5 131.5 767.9 130.9C767.4 130.3 767.1 129.5 767.1 128.5C767.1 128 767.2 127.5 767.3 127.1C767.4 126.7 767.7 126.4 767.9 126.1C768.2 125.8 768.5 125.6 768.8 125.5C769.2 125.4 769.6 125.3 770 125.3C770.4 125.3 770.8 125.4 771.2 125.5C771.6 125.7 771.8 125.9 772.1 126.2C772.4 126.5 772.5 126.9 772.6 127.3C772.7 127.7 772.7 128.2 772.6 128.8H768.2C768.2 129.5 768.4 130 768.8 130.3C769.2 130.6 769.7 130.8 770.4 130.8C770.9 130.8 771.3 130.7 771.6 130.6C771.9 130.5 772.2 130.3 772.5 130.2V131.1ZM770 126.2C769.5 126.2 769.2 126.3 768.8 126.6C768.5 126.9 768.3 127.3 768.2 127.9H771.5C771.5 127.3 771.4 126.9 771.1 126.6C770.8 126.3 770.5 126.2 770 126.2Z" fill="black"/>
<path d="M776.5 131.6C776.3 131.6 776.1 131.7 775.9 131.7C775.6 131.7 775.3 131.7 775.1 131.6C774.9 131.5 774.7 131.4 774.6 131.2C774.5 131.1 774.4 130.9 774.3 130.7C774.2 130.5 774.2 130.3 774.2 130.1V126.2H773.5V125.3H774.2V124H775.3V125.3H777.1V126.2H775.3V130C775.3 130.3 775.4 130.5 775.5 130.6C775.6 130.7 775.9 130.8 776.2 130.8C776.5 130.8 776.8 130.7 777.1 130.5V131.5C776.8 131.5 776.7 131.6 776.5 131.6Z" fill="black"/>
</svg>
