<svg xmlns="http://www.w3.org/2000/svg" width="650" height="200" fill="none" viewBox="0 0 650 200">
    <path fill="#fff" d="M0 0h650v200H0z"/>
    <path fill="#FFF2BF" d="M263.8 66h114c4.4 0 8 3.6 8 8v44c0 4.4-3.6 8-8 8h-114c-4.4 0-8-3.6-8-8V74c0-4.5 3.6-8 8-8Z"/>
    <path fill="#262626" d="M285.1 91.4h2.9c.6 0 1.1.1 1.6.2s.9.4 1.3.7c.4.3.7.7.9 1.2.2.5.3 1.1.3 1.9 0 .8-.1 1.4-.3 2-.2.6-.5 1.1-.9 1.4-.4.3-.8.7-1.3.9-.5.2-1.1.3-1.7.3h-2.8v-8.6Zm1.2 1V99h1.6c.4 0 .8-.1 1.2-.2.4-.1.7-.3.9-.6.3-.3.5-.6.6-1.1.1-.4.2-1 .2-1.6 0-.6-.1-1.1-.2-1.5-.1-.4-.3-.7-.6-.9-.3-.2-.6-.4-.9-.5-.4-.1-.7-.1-1.1-.1h-1.7v-.1Zm10.8 6.4c-.1.1-.2.3-.3.5-.1.2-.3.3-.4.4-.1.1-.4.2-.6.3-.2.1-.5.1-.8.1-.6 0-1-.2-1.4-.5-.3-.3-.5-.8-.5-1.4 0-.7.2-1.2.7-1.5.5-.3 1.2-.5 2-.5h1.2v-.5c0-.4-.1-.7-.3-.9-.2-.2-.6-.3-1.2-.3-.4 0-.7.1-1.1.2-.3.1-.7.3-.9.4v-.9c.2-.1.5-.3.9-.4.4-.1.8-.2 1.3-.2.8 0 1.4.2 1.8.5.4.3.6.8.6 1.5v4.3h-1c0-.1 0-.3-.1-.5v-.5l.1-.1Zm-1.9.3c.3 0 .6-.1.8-.2.2-.1.4-.3.6-.5.1-.2.2-.4.3-.5.1-.2.1-.3.1-.4V97h-1c-.6 0-1.1.1-1.4.3-.3.2-.4.5-.4.8 0 .3.1.5.3.7.1.3.4.3.7.3Zm7.1.9c-.2 0-.4.1-.6.1-.3 0-.6 0-.8-.1-.2-.1-.4-.2-.5-.4-.1-.1-.2-.3-.3-.5-.1-.2-.1-.4-.1-.6v-3.9h-.7v-.9h.7v-1.3h1.1v1.3h1.8v.9h-1.8v3.8c0 .3.1.5.2.6.1.1.4.2.7.2.3 0 .6-.1.9-.3v1c-.2 0-.4.1-.6.1Zm5.6-1.2c-.1.1-.2.3-.3.5-.1.2-.3.3-.4.4-.1.1-.4.2-.6.3-.2.1-.5.1-.8.1-.6 0-1-.2-1.4-.5-.3-.3-.5-.8-.5-1.4 0-.7.2-1.2.7-1.5.5-.3 1.2-.5 2-.5h1.2v-.5c0-.4-.1-.7-.3-.9-.2-.2-.6-.3-1.2-.3-.4 0-.7.1-1.1.2-.3.1-.7.3-.9.4v-.9c.2-.1.5-.3.9-.4.4-.1.8-.2 1.3-.2.8 0 1.4.2 1.8.5.4.3.6.8.6 1.5v4.3h-1c0-.1 0-.3-.1-.5v-.5l.1-.1Zm-1.9.3c.3 0 .6-.1.8-.2.2-.1.4-.3.6-.5.1-.2.2-.4.3-.5.1-.2.1-.3.1-.4V97h-1.1c-.6 0-1.1.1-1.4.3-.3.2-.4.5-.4.8 0 .3.1.5.3.7.2.3.4.3.8.3Zm10.5-6.7v7.6h-1.1v-7.6h-2.7v-1h6.4v1h-2.6Zm5 2.7c-.4.2-.6.5-.8.9v4h-1.1v-6.2h.9l.1 1.4c.2-.4.4-.7.8-1 .3-.3.8-.4 1.3-.5v1.2c-.4-.1-.8 0-1.2.2Zm6 3.7c-.1.1-.2.3-.3.5-.1.2-.3.3-.4.4-.1.1-.4.2-.6.3-.2.1-.5.1-.8.1-.6 0-1-.2-1.4-.5-.3-.3-.5-.8-.5-1.4 0-.7.2-1.2.7-1.5.5-.3 1.2-.5 2-.5h1.2v-.5c0-.4-.1-.7-.3-.9-.2-.2-.6-.3-1.2-.3-.4 0-.7.1-1.1.2-.3.1-.7.3-.9.4v-.9c.2-.1.5-.3.9-.4.4-.1.8-.2 1.3-.2.8 0 1.4.2 1.8.5.4.3.6.8.6 1.5v4.3h-1c0-.1 0-.3-.1-.5v-.5l.1-.1Zm-1.8.3c.3 0 .6-.1.8-.2.2-.1.4-.3.6-.5.1-.2.2-.4.3-.5.1-.2.1-.3.1-.4V97h-1.1c-.6 0-1.1.1-1.4.3-.3.2-.4.5-.4.8 0 .3.1.5.3.7.2.3.4.3.8.3Zm7.5-4.5c-.5 0-.9.1-1.2.3-.3.2-.5.5-.7.8v4.2h-1.1v-6.2h1v1.1c.2-.4.4-.7.8-.9.4-.2.8-.3 1.4-.3.6 0 1.1.2 1.5.5.4.3.5.8.5 1.5v4.4h-1.1v-4.3c0-.4-.1-.7-.3-.9-.2-.2-.5-.2-.8-.2Zm5.9 5.5c-.3 0-.6 0-.9-.1-.3-.1-.5-.1-.7-.2-.2-.1-.3-.2-.5-.2s-.2-.2-.3-.2v-1l.3.3c.1.1.3.2.5.3.2.1.4.1.7.2.2.1.5.1.8.1.4 0 .8-.1 1.1-.2.3-.1.4-.4.4-.7 0-.2 0-.3-.1-.4l-.3-.3c-.1-.1-.3-.1-.5-.2s-.4-.1-.6-.1c-.3-.1-.5-.1-.8-.2-.3-.1-.5-.2-.7-.3-.2-.1-.4-.3-.5-.5-.1-.2-.2-.5-.2-.8 0-.6.2-1 .7-1.3.5-.3 1-.5 1.8-.5.4 0 .8 0 1.2.1.3.1.6.2.8.3v.9c-.2-.1-.5-.3-.8-.3-.3-.1-.7-.1-1.1-.1-.5 0-.8.1-1.1.2-.3.1-.4.4-.4.7 0 .2 0 .3.1.4.1.1.2.2.3.2.1.1.3.1.4.1.1 0 .3.1.5.1.3.1.6.1.8.2.3.1.5.2.8.3.3.1.4.3.6.5.1.2.2.5.2.9s-.1.7-.2.9c-.1.2-.3.4-.6.6-.2.1-.5.2-.8.3h-.9Zm5.2-5.5v5.3h-1.1v-5.3h-.8v-.9h.8v-.2c0-.7.2-1.3.6-1.7.4-.4.9-.6 1.6-.6.3 0 .6 0 .8.1v.9c-.1 0-.2-.1-.3-.1h-.4c-.4 0-.7.1-.9.3-.2.2-.3.6-.3 1.1v.2h1.8v.9h-1.8Zm7.8 4.8c-.1.1-.2.1-.3.2-.1.1-.3.1-.5.2s-.4.1-.6.2c-.2 0-.5.1-.8.1-1 0-1.8-.3-2.4-.9-.5-.6-.8-1.4-.8-2.4 0-.5.1-1 .2-1.4.1-.4.4-.7.6-1 .3-.3.6-.5.9-.6.4-.1.8-.2 1.2-.2.4 0 .8.1 1.2.2.4.1.6.4.9.7.3.3.4.7.5 1.1.1.4.1.9 0 1.5h-4.4c0 .7.2 1.2.6 1.5.4.3.9.5 1.6.5.5 0 .9-.1 1.2-.2.3-.1.6-.3.9-.4v.9Zm-2.5-4.8c-.5 0-.8.1-1.2.4-.4.3-.5.7-.6 1.3h3.3c0-.6-.1-1-.4-1.3-.2-.3-.6-.4-1.1-.4Zm5.7.5c-.4.2-.6.5-.8.9v4h-1.1v-6.2h.9l.1 1.4c.2-.4.4-.7.8-1 .3-.3.8-.4 1.3-.5v1.2c-.4-.1-.8 0-1.2.2Z"/>
    <path fill="#EEF3FE" d="M459.231 66h131.538c5.077 0 9.231 3.6 9.231 8v44c0 4.4-4.154 8-9.231 8H459.231c-5.077 0-9.231-3.6-9.231-8V74c0-4.5 4.154-8 9.231-8Z"/>
    <path fill="#262626" d="m252 96.4-5-2.887v5.774l5-2.887Zm-56 .5h51.5v-1H196v1Zm250-.5-5-2.887v5.774l5-2.887Zm-56 .5h51.5v-1H390v1Z"/>
    <rect width="32" height="32" x="466" y="81" fill="#5282FF" rx="16"/>
    <path fill="#fff" fill-rule="evenodd" d="M488 90c0-.6-.4-1-1-1h-10c-.6 0-1 .4-1 1v2h12v-2Zm1 4c0-.6-.4-1-1-1h-12c-.6 0-1 .4-1 1v2h14v-2Zm-14 3h14c.5 0 1 .4 1 1v6c0 .6-.4 1-1 1h-14c-.6 0-1-.4-1-1v-6c0-.6.4-1 1-1Zm5 5h4c.5 0 1-.5 1-1 0-.6-.4-1-1-1h-4c-.6 0-1 .4-1 1s.4 1 1 1Z" clip-rule="evenodd"/>
    <path fill="#262626" d="M511.1 106.1c-.6 0-1.1-.1-1.6-.3-.5-.2-.9-.5-1.3-.9s-.7-.8-.9-1.4c-.2-.6-.3-1.2-.3-1.9s.1-1.4.3-1.9c.2-.5.5-1 .9-1.4.4-.4.8-.6 1.3-.8.5-.2 1-.3 1.6-.3.6 0 1.1.1 1.6.3.5.2.9.5 1.3.8.4.4.7.8.9 1.4.2.6.3 1.2.3 1.9s-.1 1.3-.3 1.9c-.2.6-.5 1-.9 1.4-.4.4-.8.7-1.3.9-.5.2-1 .3-1.6.3Zm0-1c.4 0 .8-.1 1.2-.2.4-.1.7-.3.9-.6.3-.3.5-.6.6-1 .1-.4.2-1 .2-1.6 0-.6-.1-1.1-.2-1.6-.1-.4-.4-.8-.6-1-.3-.3-.6-.5-.9-.6-.3-.1-.7-.2-1.2-.2-.4 0-.8.1-1.2.2-.4.1-.7.3-.9.6-.3.3-.5.6-.6 1-.1.4-.2 1-.2 1.6 0 .6.1 1.1.2 1.6.1.4.4.8.6 1 .3.3.6.5.9.6.3.1.8.2 1.2.2Zm11.4-2.2c0 .6-.1 1-.2 1.4-.2.4-.4.7-.6 1-.3.3-.6.5-.9.6-.3.1-.7.2-1.1.2-.5 0-.9-.1-1.3-.3-.4-.2-.6-.5-.8-1v1.2h-1v-8.6h1.1v3.6c.2-.4.5-.7.8-1 .4-.2.8-.4 1.3-.4.4 0 .7.1 1 .2.3.1.6.3.9.6.3.3.5.6.6 1 .1.5.2.9.2 1.5Zm-2.9 2.3c.6 0 1-.2 1.3-.6.3-.4.5-1 .5-1.7 0-.8-.2-1.3-.5-1.7-.3-.4-.8-.6-1.3-.6-.3 0-.5 0-.8.1-.2.1-.4.2-.6.4-.2.2-.3.4-.4.7-.1.3-.1.6-.1 1s0 .7.1 1c.1.3.2.5.4.7.2.2.4.3.6.4.3.2.5.3.8.3Zm5.4 1.3c0 .2 0 .5-.1.7-.1.2-.2.4-.3.5-.1.2-.3.3-.5.4-.2.1-.5.1-.8.1-.2 0-.3 0-.5-.1-.2 0-.4-.1-.6-.2v-1c.1.1.2.2.4.2s.3.1.5.1c.3 0 .5-.1.6-.2.1-.1.2-.3.2-.5v-6.7h1.1v6.7Zm-.6-7.6c-.2 0-.4-.1-.5-.2-.1-.1-.2-.3-.2-.5s.1-.4.2-.5c.1-.1.3-.2.5-.2s.4.1.5.2c.1.1.2.3.2.5s-.1.4-.2.5c-.1.1-.3.2-.5.2Zm7.2 6.6c-.1.1-.2.1-.3.2-.1.1-.3.1-.5.2s-.4.1-.6.2c-.2 0-.5.1-.8.1-1 0-1.8-.3-2.4-.9-.5-.6-.8-1.4-.8-2.4 0-.5.1-1 .2-1.4.1-.4.4-.7.6-1 .3-.3.6-.5.9-.6.4-.1.8-.2 1.2-.2.4 0 .8.1 1.2.2.4.2.6.4.9.7.3.3.4.7.5 1.1.1.4.1.9 0 1.5h-4.4c0 .7.2 1.2.6 1.5.4.3.9.5 1.6.5.5 0 .9-.1 1.2-.2.3-.1.6-.3.9-.4v.9Zm-2.4-4.9c-.5 0-.8.1-1.2.4-.3.3-.5.7-.6 1.3h3.3c0-.6-.1-1-.4-1.3-.3-.3-.7-.4-1.1-.4Zm6.5 5.5c-.5 0-.9-.1-1.3-.2s-.7-.4-1-.6c-.3-.3-.5-.6-.6-1-.1-.4-.2-.9-.2-1.4 0-.5.1-1 .2-1.4.1-.4.4-.7.6-1 .3-.3.6-.5 1-.6.4-.1.8-.2 1.3-.2.4 0 .7 0 1.1.1.3.1.6.2.8.4v.9c-.3-.2-.5-.3-.9-.4-.4-.1-.6-.1-1-.1-.7 0-1.3.2-1.6.6-.3.4-.5 1-.5 1.7 0 .8.2 1.4.5 1.7.3.4.8.6 1.6.6.4 0 .7 0 1-.1.3-.1.6-.2.9-.4v.9c-.2.1-.5.3-.8.3-.3.2-.7.2-1.1.2Zm5.8 0c-.2 0-.4.1-.6.1-.3 0-.6 0-.8-.1-.2-.1-.4-.2-.5-.4-.1-.1-.2-.3-.3-.5-.1-.2-.1-.4-.1-.6v-3.9h-.7v-.9h.7v-1.3h1.1v1.3h1.8v.9h-1.8v3.8c0 .3.1.5.2.6.1.1.4.2.7.2.3 0 .6-.1.9-.3v1c-.2-.1-.4 0-.6.1Zm7.1 0c-.4 0-.7 0-1.1-.1-.4-.1-.6-.1-.8-.2l-.6-.3c-.2-.1-.3-.2-.4-.3v-1.1c.1.1.3.2.5.3.2.1.4.2.7.3.3.1.5.2.8.2.3.1.6.1.9.1.6 0 1.1-.1 1.5-.4.4-.2.6-.6.6-1.1 0-.2 0-.4-.1-.6-.1-.2-.2-.3-.4-.4l-.6-.3c-.3-.1-.5-.2-.9-.2s-.7-.2-1-.3c-.3-.1-.6-.3-.9-.4-.3-.2-.5-.4-.6-.7-.2-.3-.2-.6-.2-1.1 0-.7.3-1.3.8-1.7.5-.4 1.3-.6 2.4-.6.3 0 .6 0 .8.1.2 0 .5.1.6.1.2.1.4.1.5.2.1.1.3.1.4.2v1.1c-.3-.2-.7-.4-1.1-.5-.4-.1-.8-.1-1.3-.1-.4 0-.7 0-1 .1-.3.1-.5.1-.6.3-.2.1-.3.2-.3.4-.1.2-.1.3-.1.5s.1.4.2.6c.1.2.3.3.4.4l.6.3c.2.1.5.1.7.2.3.1.7.2 1 .3.4.1.7.2.9.4.3.2.5.4.7.7.2.3.3.7.3 1.1 0 .5-.1.8-.3 1.2-.2.3-.4.6-.7.8-.3.2-.6.3-1 .4-.5.1-.9.1-1.3.1Zm7 0c-.2 0-.4.1-.6.1-.3 0-.6 0-.8-.1-.2-.1-.4-.2-.5-.4-.1-.1-.2-.3-.3-.5-.1-.2-.1-.4-.1-.6v-3.9h-.7v-.9h.7v-1.3h1.1v1.3h1.8v.9h-1.8v3.8c0 .3.1.5.2.6.1.1.4.2.7.2.3 0 .6-.1.9-.3v1c-.2-.1-.4 0-.6.1Zm4.4 0c-.4 0-.8-.1-1.2-.2-.4-.1-.7-.4-1-.6-.3-.3-.5-.6-.6-1-.2-.4-.2-.9-.2-1.4 0-.5.1-1 .2-1.4.2-.4.4-.7.6-1 .3-.3.6-.5 1-.6.4-.1.8-.2 1.2-.2.4 0 .8.1 1.2.2.4.1.7.4 1 .6.3.3.5.6.6 1 .2.4.2.9.2 1.4 0 .5-.1 1-.2 1.4-.2.4-.4.7-.6 1-.3.3-.6.5-1 .6-.3.2-.7.2-1.2.2Zm0-.9c.3 0 .5 0 .8-.1.2-.1.4-.2.6-.4.2-.2.3-.4.4-.7.1-.3.1-.6.1-1s0-.7-.1-1c-.1-.3-.2-.5-.4-.7-.2-.2-.4-.3-.6-.4-.2-.1-.5-.1-.8-.1-.3 0-.5 0-.8.1-.2.1-.4.2-.6.4-.2.2-.3.4-.4.7-.1.3-.1.6-.1 1s0 .7.1 1c.1.3.2.5.4.7.2.2.4.3.6.4.3 0 .5.1.8.1Zm6.2-4c-.4.2-.6.5-.8.9v4h-1.1v-6.3h.9l.1 1.4c.2-.4.4-.7.8-1 .3-.3.8-.4 1.3-.5v1.2c-.4 0-.8.1-1.2.3Zm6 3.6c-.1.1-.2.3-.3.5-.1.2-.3.3-.4.4-.1.1-.4.2-.6.3-.2.1-.5.1-.8.1-.6 0-1-.2-1.4-.5-.3-.3-.5-.8-.5-1.4 0-.7.2-1.2.7-1.5.5-.3 1.2-.5 2-.5h1.2v-.4c0-.4-.1-.7-.3-.9-.2-.2-.6-.3-1.2-.3-.4 0-.7.1-1.1.2-.3.1-.7.3-.9.4v-.9c.2-.1.5-.3.9-.4.4-.1.8-.2 1.3-.2.8 0 1.4.2 1.8.5.4.3.6.8.6 1.5v4.3h-1c0-.1 0-.3-.1-.5v-.5l.1-.2Zm-1.8.4c.3 0 .6-.1.8-.2.2-.1.4-.3.6-.5.1-.2.2-.4.3-.5.1-.2.1-.3.1-.4v-.5h-1.1c-.6 0-1.1.1-1.4.3-.3.2-.4.5-.4.8 0 .3.1.5.3.7.1.2.4.3.8.3Zm9.8.3c0 .4-.1.8-.2 1.1-.1.3-.3.6-.6.8-.3.2-.6.4-1 .5-.4.1-.9.2-1.4.2h-.8c-.2 0-.4-.1-.6-.1-.2 0-.3-.1-.4-.2-.1-.1-.2-.1-.3-.2v-.9c.1.1.3.1.4.2.1.1.3.1.5.2.2 0 .4.1.6.1h.7c.8 0 1.3-.1 1.6-.4.3-.3.5-.7.5-1.3v-1c-.2.4-.4.7-.8.9-.3.2-.7.3-1.2.3-.4 0-.7-.1-1-.2-.3-.1-.6-.3-.9-.6-.3-.3-.5-.6-.6-.9-.1-.3-.2-.8-.2-1.3s.1-1 .2-1.3c.1-.3.3-.7.6-1 .3-.3.5-.4.9-.6.3-.1.7-.2 1.1-.2.5 0 .9.1 1.3.3.3.2.6.5.8.9v-1.1h1v5.8h-.2Zm-2.8-.7c.3 0 .5 0 .7-.1.2-.1.4-.2.6-.4.2-.2.3-.4.4-.7.1-.3.1-.6.1-.9 0-.7-.2-1.2-.5-1.6-.3-.4-.8-.5-1.3-.5-.3 0-.5 0-.7.1-.2.1-.4.2-.6.4-.2.2-.3.4-.4.7-.1.3-.1.6-.1.9 0 .4 0 .7.1.9.1.3.2.5.4.6.2.2.4.3.6.4.2.1.4.2.7.2Zm9.5.7c-.1.1-.2.1-.3.2-.1.1-.3.1-.5.2s-.4.1-.6.2c-.2 0-.5.1-.8.1-1 0-1.8-.3-2.4-.9-.5-.6-.8-1.4-.8-2.4 0-.5.1-1 .2-1.4.1-.4.4-.7.6-1 .3-.3.6-.5.9-.6.4-.1.8-.2 1.2-.2.4 0 .8.1 1.2.2.4.2.6.4.9.7.3.3.4.7.5 1.1.1.4.1.9 0 1.5h-4.4c0 .7.2 1.2.6 1.5.4.3.9.5 1.6.5.5 0 .9-.1 1.2-.2.3-.1.6-.3.9-.4v.9Zm-2.5-4.9c-.5 0-.8.1-1.2.4-.3.3-.5.7-.6 1.3h3.3c0-.6-.1-1-.4-1.3-.3-.3-.6-.4-1.1-.4Z"/>
    <path fill="#EEF3FE" d="M70 66.4h114c4.4 0 8 3.6 8 8v44c0 4.4-3.6 8-8 8H70c-4.4 0-8-3.6-8-8v-44c0-4.5 3.6-8 8-8Z"/>
    <path fill="#5282FF" d="M102 80.4c8.8 0 16 7.2 16 16s-7.2 16-16 16-16-7.2-16-16c0-8.9 7.2-16 16-16Z"/>
    <path fill="#fff" fill-rule="evenodd" d="M95.4 89.5c-.3.3-.4.6-.4.8 0 .2.1.5.4.8.3.3.8.6 1.4.9 1.3.5 3.1.9 5.2.9 2 0 3.9-.3 5.2-.9.6-.3 1.1-.6 1.4-.9.3-.3.4-.6.4-.8 0-.2-.1-.5-.4-.8-.3-.3-.8-.6-1.4-.9-1.3-.5-3.1-.9-5.2-.9-2 0-3.9.3-5.2.9-.6.3-1.1.6-1.4.9Zm-.9-.9c-.5.5-.8 1-.8 1.7v11.4c0 .7.3 1.2.8 1.7s1.1.8 1.8 1.1c1.5.6 3.5 1 5.6 1 2.2 0 4.2-.4 5.6-1 .7-.3 1.4-.7 1.8-1.1.5-.5.8-1 .8-1.7V90.3c0-.7-.3-1.2-.8-1.7s-1.1-.8-1.8-1.1c-1.5-.6-3.5-1-5.6-1-2.2 0-4.2.4-5.6 1-.7.3-1.3.7-1.8 1.1Zm14.5 9.5v3.6c0 .2-.1.5-.4.8-.3.3-.8.6-1.4.9-1.3.5-3.1.9-5.2.9-2 0-3.9-.3-5.2-.9-.6-.3-1.1-.6-1.4-.9-.3-.3-.4-.6-.4-.8v-3.6c.4.3.8.5 1.4.7 1.5.6 3.5 1 5.6 1 2.2 0 4.2-.4 5.6-1 .6-.1 1-.4 1.4-.7ZM95 96c0 .2.1.5.4.8.3.3.8.6 1.4.9 1.3.5 3.1.9 5.2.9 2 0 3.9-.3 5.2-.9.6-.3 1.1-.6 1.4-.9.3-.3.4-.6.4-.8v-3.6c-.4.3-.8.5-1.4.7-1.5.6-3.5 1-5.6 1-2.2 0-4.2-.4-5.6-1-.5-.2-1-.5-1.4-.7V96Z" clip-rule="evenodd"/>
    <path fill="#262626" d="M129.9 100.9c-.4 0-.7 0-1.1-.1-.4-.1-.6-.1-.8-.2l-.6-.3c-.2-.1-.3-.2-.4-.3v-1.1c.1.1.3.2.5.3.2.1.4.2.7.3.3.1.5.2.8.2.3.1.6.1.9.1.6 0 1.1-.1 1.5-.4.4-.2.6-.6.6-1.1 0-.2 0-.4-.1-.6-.1-.2-.2-.3-.4-.4l-.6-.3c-.3-.1-.5-.2-.9-.2s-.7-.2-1-.3c-.3-.1-.6-.3-.9-.4-.3-.2-.5-.4-.6-.7-.2-.3-.2-.6-.2-1.1 0-.7.3-1.3.8-1.7.5-.4 1.3-.6 2.4-.6.3 0 .6 0 .8.1.2 0 .5.1.6.1.2.1.4.1.5.2.1.1.3.1.4.2v1.1c-.3-.2-.7-.4-1.1-.5-.4-.1-.8-.1-1.3-.1-.4 0-.7 0-1 .1-.3.1-.5.1-.6.3-.2.1-.3.2-.3.4-.1.2-.1.3-.1.5s.1.4.2.6c.1.2.3.3.4.4l.6.3c.2.1.5.1.7.2.3.1.7.2 1 .3.4.1.7.2.9.4.3.2.5.4.7.7.2.3.3.7.3 1.1 0 .5-.1.8-.3 1.2-.2.3-.4.6-.7.8-.3.2-.6.3-1 .4-.5.1-.9.1-1.3.1Zm7.1 0c-.4 0-.8-.1-1.2-.2-.4-.1-.7-.4-1-.6-.3-.3-.5-.6-.6-1-.2-.4-.2-.9-.2-1.4 0-.5.1-1 .2-1.4.2-.4.4-.7.6-1 .3-.3.6-.5 1-.6.4-.1.8-.2 1.2-.2.4 0 .8.1 1.2.2.4.1.7.4 1 .6.3.3.5.6.6 1 .2.4.2.9.2 1.4 0 .5-.1 1-.2 1.4-.2.4-.4.7-.6 1-.3.3-.6.5-1 .6-.4.1-.8.2-1.2.2Zm0-.9c.3 0 .5 0 .8-.1.2-.1.4-.2.6-.4.2-.2.3-.4.4-.7.1-.3.1-.6.1-1s0-.7-.1-1c-.1-.3-.2-.5-.4-.7-.2-.2-.4-.3-.6-.4-.2-.1-.5-.1-.8-.1-.3 0-.5 0-.8.1-.2.1-.4.2-.6.4-.2.2-.3.4-.4.7-.1.3-.1.6-.1 1s0 .7.1 1c.1.3.2.5.4.7.2.2.4.3.6.4.3 0 .5.1.8.1Zm7.5.6c-.3.2-.8.4-1.4.4-.6 0-1-.2-1.4-.5-.4-.3-.5-.8-.5-1.5v-4.4h1.1V99c0 .2 0 .4.1.5.1.1.1.2.2.3.1.1.2.1.4.2h.5c.5 0 .8-.1 1.1-.3.3-.2.5-.5.7-.9v-4.2h1.1v6.2h-.9l-.1-1.1c-.3.3-.5.6-.9.9ZM150 96c-.4.2-.6.5-.8.9v4h-1.1v-6.2h.9l.1 1.4c.2-.4.4-.7.8-1 .3-.3.8-.4 1.3-.5v1.2c-.5-.1-.9 0-1.2.2Zm5 4.9c-.5 0-.9-.1-1.3-.2s-.7-.4-1-.6c-.3-.3-.5-.6-.6-1-.1-.4-.2-.9-.2-1.4 0-.5.1-1 .2-1.4.1-.4.4-.7.6-1 .3-.3.6-.5 1-.6.4-.1.8-.2 1.3-.2.4 0 .7 0 1.1.1.3.1.6.2.8.4v.9c-.3-.2-.5-.3-.9-.4-.4-.1-.6-.1-1-.1-.7 0-1.3.2-1.6.6-.3.4-.5 1-.5 1.7 0 .8.2 1.4.5 1.7.3.4.8.6 1.6.6.4 0 .7 0 1-.1.3-.1.6-.2.9-.4v.9c-.2.1-.5.3-.8.3-.4.2-.7.2-1.1.2Zm8.1-.6c-.1.1-.2.1-.3.2-.1.1-.3.1-.5.2s-.4.1-.6.2c-.2 0-.5.1-.8.1-1 0-1.8-.3-2.4-.9-.5-.6-.8-1.4-.8-2.4 0-.5.1-1 .2-1.4.1-.4.4-.7.6-1 .3-.3.6-.5.9-.6.4-.1.8-.2 1.2-.2.4 0 .8.1 1.2.2.4.2.6.4.9.7.3.3.4.7.5 1.1.1.4.1.9 0 1.5h-4.4c0 .7.2 1.2.6 1.5.4.3.9.5 1.6.5.5 0 .9-.1 1.2-.2.3-.1.6-.3.9-.4v.9Zm-2.5-4.9c-.5 0-.8.1-1.2.4-.3.3-.5.7-.6 1.3h3.3c0-.6-.1-1-.4-1.3-.3-.3-.6-.4-1.1-.4ZM510.9 83v7.6h-1.2V83H507v-1h6.4v1h-2.5Zm6.7 6.4c-.1.1-.2.3-.3.5-.1.2-.3.3-.4.4-.1.1-.4.2-.6.3-.2.1-.5.1-.8.1-.6 0-1-.2-1.4-.5-.3-.3-.5-.8-.5-1.4 0-.7.2-1.2.7-1.5.5-.3 1.2-.5 2-.5h1.2v-.5c0-.4-.1-.7-.3-.9-.2-.2-.6-.3-1.2-.3-.4 0-.7.1-1.1.2-.3.1-.7.3-.9.4v-.9c.2-.1.5-.3.9-.4.4-.1.8-.2 1.3-.2.8 0 1.4.2 1.8.5.4.3.6.8.6 1.5v4.3h-1c0-.1 0-.3-.1-.5v-.5l.1-.1Zm-1.9.4c.3 0 .6-.1.8-.2.2-.1.4-.3.6-.5.1-.2.2-.4.3-.5.1-.2.1-.3.1-.4v-.5h-1.1c-.6 0-1.1.1-1.4.3-.3.2-.4.5-.4.8 0 .3.1.5.3.7.2.2.4.3.8.3Zm6.2-4.4c-.4.2-.6.5-.8.9v4H520v-6.2h.9l.1 1.4c.2-.4.4-.7.8-1 .3-.3.8-.4 1.3-.5v1.2c-.4-.1-.8 0-1.2.2Zm7.9 4.7c0 .4-.1.8-.2 1.1-.1.3-.3.6-.6.8-.3.2-.6.4-1 .5-.4.1-.9.2-1.4.2h-.8c-.2 0-.4-.1-.6-.1-.2 0-.3-.1-.4-.2-.1-.1-.2-.1-.3-.2v-.9c.1.1.3.1.4.2.1.1.3.1.5.2.2 0 .4.1.6.1h.7c.8 0 1.3-.1 1.6-.4.3-.3.5-.7.5-1.3v-1c-.2.4-.4.7-.8.9-.3.2-.7.3-1.2.3-.4 0-.7-.1-1-.2-.3-.1-.6-.3-.9-.6-.3-.3-.5-.6-.6-.9-.1-.3-.2-.8-.2-1.3s.1-1 .2-1.3c.1-.3.3-.7.6-1 .3-.3.5-.4.9-.6.3-.1.7-.2 1.1-.2.5 0 .9.1 1.3.3.3.2.6.5.8.9v-1.1h1v5.8h-.2Zm-2.8-.7c.3 0 .5 0 .7-.1.2-.1.4-.2.6-.4.2-.2.3-.4.4-.7.1-.3.1-.6.1-.9 0-.7-.2-1.2-.5-1.6-.3-.4-.8-.5-1.3-.5-.3 0-.5 0-.7.1-.2.1-.4.2-.6.4-.2.2-.3.4-.4.7-.1.3-.1.6-.1.9 0 .4 0 .7.1.9.1.3.2.5.4.6.2.2.4.3.6.4.2.1.4.2.7.2Zm9.5.7c-.1.1-.2.1-.3.2-.1.1-.3.1-.5.2s-.4.1-.6.2c-.2 0-.5.1-.8.1-1 0-1.8-.3-2.4-.9-.5-.6-.8-1.4-.8-2.4 0-.5.1-1 .2-1.4.1-.4.4-.7.6-1 .3-.3.6-.5.9-.6.4-.1.8-.2 1.2-.2.4 0 .8.1 1.2.2.4.2.6.4.9.7.3.3.4.7.5 1.1.1.4.1.9 0 1.5h-4.4c0 .7.2 1.2.6 1.5.4.3.9.5 1.6.5.5 0 .9-.1 1.2-.2.3-.1.6-.3.9-.4v.9Zm-2.5-4.9c-.5 0-.8.1-1.2.4-.3.3-.5.7-.6 1.3h3.3c0-.6-.1-1-.4-1.3-.3-.3-.6-.4-1.1-.4Zm6.5 5.4c-.2 0-.4.1-.6.1-.3 0-.6 0-.8-.1-.2-.1-.4-.2-.5-.4-.1-.1-.2-.3-.3-.5-.1-.2-.1-.4-.1-.6v-3.9h-.7v-.9h.7V83h1.1v1.3h1.8v.9h-1.8V89c0 .3.1.5.2.6.1.1.4.2.7.2.3 0 .6-.1.9-.3v1c-.3 0-.4.1-.6.1Z"/>
</svg>
