<svg width="720" height="320" viewBox="0 0 720 320" fill="none" xmlns="http://www.w3.org/2000/svg">
<g filter="url(#filter0_d_1_34)">
<rect x="15" y="20" width="690" height="280" rx="10" fill="white"/>
</g>
<rect x="36" y="73" width="168" height="206" rx="9" fill="white" stroke="#5282FF" stroke-width="2"/>
<rect x="55" y="140" width="130" height="50" rx="10" fill="#D6E1FF"/>
<path d="M78.2228 160.396H84.6908V169H83.5508V161.428H79.3508V169H78.2228V160.396ZM89.1075 169.12C88.5395 169.12 88.0275 168.996 87.5715 168.748C87.1235 168.492 86.7675 168.124 86.5035 167.644C86.2395 167.156 86.1075 166.568 86.1075 165.88C86.1075 165.192 86.2395 164.608 86.5035 164.128C86.7675 163.648 87.1235 163.284 87.5715 163.036C88.0275 162.78 88.5395 162.652 89.1075 162.652C89.6835 162.652 90.1995 162.78 90.6555 163.036C91.1115 163.284 91.4715 163.648 91.7355 164.128C91.9995 164.608 92.1315 165.192 92.1315 165.88C92.1315 166.568 91.9995 167.156 91.7355 167.644C91.4715 168.124 91.1115 168.492 90.6555 168.748C90.1995 168.996 89.6835 169.12 89.1075 169.12ZM89.1075 168.172C89.6675 168.172 90.1315 167.988 90.4995 167.62C90.8675 167.244 91.0515 166.664 91.0515 165.88C91.0515 165.096 90.8675 164.52 90.4995 164.152C90.1315 163.776 89.6675 163.588 89.1075 163.588C88.5555 163.588 88.0955 163.776 87.7275 164.152C87.3675 164.52 87.1875 165.096 87.1875 165.88C87.1875 166.664 87.3675 167.244 87.7275 167.62C88.0955 167.988 88.5555 168.172 89.1075 168.172ZM92.7389 167.968C93.2189 168.04 93.5469 167.74 93.7229 167.068C93.7869 166.828 93.8389 166.528 93.8789 166.168C93.9189 165.8 93.9469 165.344 93.9629 164.8C93.9789 164.248 93.9869 163.572 93.9869 162.772H98.2949V169H97.2269V163.672H94.9829C94.9749 164.624 94.9469 165.388 94.8989 165.964C94.8589 166.532 94.7909 167.008 94.6949 167.392C94.5429 167.992 94.3109 168.42 93.9989 168.676C93.6869 168.932 93.2669 169.044 92.7389 169.012V167.968ZM101.036 162.772V164.872H102.176C102.968 164.872 103.588 165.032 104.036 165.352C104.484 165.664 104.708 166.176 104.708 166.888C104.708 167.376 104.596 167.776 104.372 168.088C104.148 168.4 103.84 168.632 103.448 168.784C103.056 168.928 102.608 169 102.104 169H99.9803V162.772H101.036ZM102.104 168.1C102.56 168.1 102.928 168.012 103.208 167.836C103.496 167.652 103.64 167.356 103.64 166.948C103.64 166.532 103.512 166.232 103.256 166.048C103 165.864 102.64 165.772 102.176 165.772H101.036V168.1H102.104ZM107.864 169.12C107.472 169.12 107.092 169.076 106.724 168.988C106.364 168.9 106.068 168.78 105.836 168.628V167.68C106.092 167.832 106.396 167.952 106.748 168.04C107.1 168.128 107.464 168.172 107.84 168.172C108.296 168.172 108.676 168.1 108.98 167.956C109.292 167.804 109.448 167.548 109.448 167.188C109.448 166.836 109.316 166.588 109.052 166.444C108.796 166.3 108.4 166.228 107.864 166.228H107.036V165.376H107.9C108.34 165.376 108.676 165.296 108.908 165.136C109.14 164.976 109.256 164.744 109.256 164.44C109.256 164.12 109.116 163.9 108.836 163.78C108.564 163.652 108.232 163.588 107.84 163.588C107.136 163.588 106.508 163.756 105.956 164.092V163.144C106.196 162.984 106.488 162.864 106.832 162.784C107.184 162.696 107.548 162.652 107.924 162.652C108.684 162.652 109.256 162.796 109.64 163.084C110.032 163.372 110.228 163.788 110.228 164.332C110.228 164.74 110.116 165.064 109.892 165.304C109.668 165.536 109.36 165.692 108.968 165.772C109.456 165.836 109.828 165.992 110.084 166.24C110.34 166.488 110.468 166.804 110.468 167.188C110.468 167.652 110.344 168.028 110.096 168.316C109.856 168.596 109.54 168.8 109.148 168.928C108.756 169.056 108.328 169.12 107.864 169.12ZM114.572 169.12C114.004 169.12 113.492 168.996 113.036 168.748C112.588 168.492 112.232 168.124 111.968 167.644C111.704 167.156 111.572 166.568 111.572 165.88C111.572 165.192 111.704 164.608 111.968 164.128C112.232 163.648 112.588 163.284 113.036 163.036C113.492 162.78 114.004 162.652 114.572 162.652C115.148 162.652 115.664 162.78 116.12 163.036C116.576 163.284 116.936 163.648 117.2 164.128C117.464 164.608 117.596 165.192 117.596 165.88C117.596 166.568 117.464 167.156 117.2 167.644C116.936 168.124 116.576 168.492 116.12 168.748C115.664 168.996 115.148 169.12 114.572 169.12ZM114.572 168.172C115.132 168.172 115.596 167.988 115.964 167.62C116.332 167.244 116.516 166.664 116.516 165.88C116.516 165.096 116.332 164.52 115.964 164.152C115.596 163.776 115.132 163.588 114.572 163.588C114.02 163.588 113.56 163.776 113.192 164.152C112.832 164.52 112.652 165.096 112.652 165.88C112.652 166.664 112.832 167.244 113.192 167.62C113.56 167.988 114.02 168.172 114.572 168.172ZM121.308 169H118.884V162.772H121.332C122.076 162.772 122.64 162.904 123.024 163.168C123.416 163.424 123.612 163.828 123.612 164.38C123.612 164.74 123.516 165.032 123.324 165.256C123.14 165.48 122.876 165.64 122.532 165.736C123.42 165.88 123.864 166.372 123.864 167.212C123.864 167.636 123.752 167.98 123.528 168.244C123.312 168.508 123.012 168.7 122.628 168.82C122.244 168.94 121.804 169 121.308 169ZM121.32 163.672H119.94V165.364H121.236C121.636 165.364 121.956 165.292 122.196 165.148C122.444 165.004 122.568 164.796 122.568 164.524C122.568 164.196 122.46 163.972 122.244 163.852C122.028 163.732 121.72 163.672 121.32 163.672ZM121.296 166.204H119.94V168.1H121.296C121.744 168.1 122.104 168.036 122.376 167.908C122.648 167.772 122.784 167.528 122.784 167.176C122.784 166.824 122.66 166.576 122.412 166.432C122.164 166.28 121.792 166.204 121.296 166.204ZM127.558 163.588C126.894 163.588 126.222 163.792 125.542 164.2V163.252C125.838 163.068 126.178 162.924 126.562 162.82C126.954 162.708 127.334 162.652 127.702 162.652C128.486 162.652 129.082 162.816 129.49 163.144C129.898 163.472 130.102 163.972 130.102 164.644V167.992C130.102 168.128 130.106 168.304 130.114 168.52C130.13 168.728 130.146 168.888 130.162 169H129.202C129.178 168.888 129.154 168.732 129.13 168.532C129.114 168.324 129.106 168.144 129.106 167.992L129.094 167.812C128.998 168.004 128.866 168.204 128.698 168.412C128.53 168.612 128.306 168.78 128.026 168.916C127.754 169.052 127.414 169.12 127.006 169.12C126.446 169.12 125.994 168.96 125.65 168.64C125.306 168.32 125.134 167.868 125.134 167.284C125.134 166.604 125.374 166.104 125.854 165.784C126.334 165.464 127.01 165.304 127.882 165.304H129.046V164.788C129.046 164.356 128.934 164.048 128.71 163.864C128.486 163.68 128.102 163.588 127.558 163.588ZM129.046 166.6V166.144H127.99C127.358 166.144 126.898 166.236 126.61 166.42C126.33 166.604 126.19 166.872 126.19 167.224C126.19 167.504 126.274 167.732 126.442 167.908C126.618 168.084 126.882 168.172 127.234 168.172C127.562 168.172 127.842 168.108 128.074 167.98C128.306 167.844 128.494 167.684 128.638 167.5C128.782 167.308 128.886 167.128 128.95 166.96C129.014 166.792 129.046 166.672 129.046 166.6ZM131.2 162.772H136.204V163.672H134.212V169H133.156V163.672H131.2V162.772ZM140.007 169.12C138.967 169.12 138.171 168.836 137.619 168.268C137.075 167.692 136.803 166.896 136.803 165.88C136.803 165.2 136.931 164.62 137.187 164.14C137.443 163.66 137.795 163.292 138.243 163.036C138.691 162.78 139.195 162.652 139.755 162.652C140.707 162.652 141.407 162.968 141.855 163.6C142.303 164.224 142.447 165.08 142.287 166.168H137.895C137.983 167.504 138.719 168.172 140.103 168.172C140.863 168.172 141.563 167.956 142.203 167.524V168.472C141.915 168.672 141.579 168.832 141.195 168.952C140.811 169.064 140.415 169.12 140.007 169.12ZM139.731 163.588C139.275 163.588 138.883 163.728 138.555 164.008C138.227 164.288 138.019 164.712 137.931 165.28H141.279C141.303 164.744 141.179 164.328 140.907 164.032C140.635 163.736 140.243 163.588 139.731 163.588ZM143.2 167.968C143.68 168.04 144.008 167.74 144.184 167.068C144.248 166.828 144.3 166.528 144.34 166.168C144.38 165.8 144.408 165.344 144.424 164.8C144.44 164.248 144.448 163.572 144.448 162.772H148.756V169H147.688V163.672H145.444C145.436 164.624 145.408 165.388 145.36 165.964C145.32 166.532 145.252 167.008 145.156 167.392C145.004 167.992 144.772 168.42 144.46 168.676C144.148 168.932 143.728 169.044 143.2 169.012V167.968ZM151.497 162.772V164.872H152.637C153.429 164.872 154.049 165.032 154.497 165.352C154.945 165.664 155.169 166.176 155.169 166.888C155.169 167.376 155.057 167.776 154.833 168.088C154.609 168.4 154.301 168.632 153.909 168.784C153.517 168.928 153.069 169 152.565 169H150.441V162.772H151.497ZM152.565 168.1C153.021 168.1 153.389 168.012 153.669 167.836C153.957 167.652 154.101 167.356 154.101 166.948C154.101 166.532 153.973 166.232 153.717 166.048C153.461 165.864 153.101 165.772 152.637 165.772H151.497V168.1H152.565ZM161.555 169H160.451V161.8L158.627 163.576V162.364L160.655 160.396H161.555V169Z" fill="#262626"/>
<rect x="55" y="210" width="130" height="50" rx="10" fill="#D6E1FF"/>
<path d="M77.2268 230.396H83.6948V239H82.5547V231.428H78.3548V239H77.2268V230.396ZM88.1114 239.12C87.5434 239.12 87.0314 238.996 86.5754 238.748C86.1274 238.492 85.7714 238.124 85.5074 237.644C85.2434 237.156 85.1114 236.568 85.1114 235.88C85.1114 235.192 85.2434 234.608 85.5074 234.128C85.7714 233.648 86.1274 233.284 86.5754 233.036C87.0314 232.78 87.5434 232.652 88.1114 232.652C88.6874 232.652 89.2034 232.78 89.6594 233.036C90.1154 233.284 90.4754 233.648 90.7394 234.128C91.0034 234.608 91.1354 235.192 91.1354 235.88C91.1354 236.568 91.0034 237.156 90.7394 237.644C90.4754 238.124 90.1154 238.492 89.6594 238.748C89.2034 238.996 88.6874 239.12 88.1114 239.12ZM88.1114 238.172C88.6714 238.172 89.1354 237.988 89.5034 237.62C89.8714 237.244 90.0554 236.664 90.0554 235.88C90.0554 235.096 89.8714 234.52 89.5034 234.152C89.1354 233.776 88.6714 233.588 88.1114 233.588C87.5594 233.588 87.0994 233.776 86.7314 234.152C86.3714 234.52 86.1914 235.096 86.1914 235.88C86.1914 236.664 86.3714 237.244 86.7314 237.62C87.0994 237.988 87.5594 238.172 88.1114 238.172ZM91.7428 237.968C92.2228 238.04 92.5508 237.74 92.7268 237.068C92.7908 236.828 92.8428 236.528 92.8828 236.168C92.9228 235.8 92.9508 235.344 92.9668 234.8C92.9828 234.248 92.9908 233.572 92.9908 232.772H97.2988V239H96.2308V233.672H93.9868C93.9788 234.624 93.9508 235.388 93.9028 235.964C93.8628 236.532 93.7948 237.008 93.6988 237.392C93.5468 237.992 93.3148 238.42 93.0028 238.676C92.6908 238.932 92.2708 239.044 91.7428 239.012V237.968ZM100.04 232.772V234.872H101.18C101.972 234.872 102.592 235.032 103.04 235.352C103.488 235.664 103.712 236.176 103.712 236.888C103.712 237.376 103.6 237.776 103.376 238.088C103.152 238.4 102.844 238.632 102.452 238.784C102.06 238.928 101.612 239 101.108 239H98.9843V232.772H100.04ZM101.108 238.1C101.564 238.1 101.932 238.012 102.212 237.836C102.5 237.652 102.644 237.356 102.644 236.948C102.644 236.532 102.516 236.232 102.26 236.048C102.004 235.864 101.644 235.772 101.18 235.772H100.04V238.1H101.108ZM106.867 239.12C106.475 239.12 106.095 239.076 105.727 238.988C105.367 238.9 105.071 238.78 104.839 238.628V237.68C105.095 237.832 105.399 237.952 105.751 238.04C106.103 238.128 106.467 238.172 106.843 238.172C107.299 238.172 107.679 238.1 107.983 237.956C108.295 237.804 108.451 237.548 108.451 237.188C108.451 236.836 108.319 236.588 108.055 236.444C107.799 236.3 107.403 236.228 106.867 236.228H106.039V235.376H106.903C107.343 235.376 107.679 235.296 107.911 235.136C108.143 234.976 108.259 234.744 108.259 234.44C108.259 234.12 108.119 233.9 107.839 233.78C107.567 233.652 107.235 233.588 106.843 233.588C106.139 233.588 105.511 233.756 104.959 234.092V233.144C105.199 232.984 105.491 232.864 105.835 232.784C106.187 232.696 106.551 232.652 106.927 232.652C107.687 232.652 108.259 232.796 108.643 233.084C109.035 233.372 109.231 233.788 109.231 234.332C109.231 234.74 109.119 235.064 108.895 235.304C108.671 235.536 108.363 235.692 107.971 235.772C108.459 235.836 108.831 235.992 109.087 236.24C109.343 236.488 109.471 236.804 109.471 237.188C109.471 237.652 109.347 238.028 109.099 238.316C108.859 238.596 108.543 238.8 108.151 238.928C107.759 239.056 107.331 239.12 106.867 239.12ZM113.576 239.12C113.008 239.12 112.496 238.996 112.04 238.748C111.592 238.492 111.236 238.124 110.972 237.644C110.708 237.156 110.576 236.568 110.576 235.88C110.576 235.192 110.708 234.608 110.972 234.128C111.236 233.648 111.592 233.284 112.04 233.036C112.496 232.78 113.008 232.652 113.576 232.652C114.152 232.652 114.668 232.78 115.124 233.036C115.58 233.284 115.94 233.648 116.204 234.128C116.468 234.608 116.6 235.192 116.6 235.88C116.6 236.568 116.468 237.156 116.204 237.644C115.94 238.124 115.58 238.492 115.124 238.748C114.668 238.996 114.152 239.12 113.576 239.12ZM113.576 238.172C114.136 238.172 114.6 237.988 114.968 237.62C115.336 237.244 115.52 236.664 115.52 235.88C115.52 235.096 115.336 234.52 114.968 234.152C114.6 233.776 114.136 233.588 113.576 233.588C113.024 233.588 112.564 233.776 112.196 234.152C111.836 234.52 111.656 235.096 111.656 235.88C111.656 236.664 111.836 237.244 112.196 237.62C112.564 237.988 113.024 238.172 113.576 238.172ZM120.311 239H117.887V232.772H120.335C121.079 232.772 121.643 232.904 122.027 233.168C122.419 233.424 122.615 233.828 122.615 234.38C122.615 234.74 122.519 235.032 122.327 235.256C122.143 235.48 121.879 235.64 121.535 235.736C122.423 235.88 122.867 236.372 122.867 237.212C122.867 237.636 122.755 237.98 122.531 238.244C122.315 238.508 122.015 238.7 121.631 238.82C121.247 238.94 120.807 239 120.311 239ZM120.323 233.672H118.943V235.364H120.239C120.639 235.364 120.959 235.292 121.199 235.148C121.447 235.004 121.571 234.796 121.571 234.524C121.571 234.196 121.463 233.972 121.247 233.852C121.031 233.732 120.723 233.672 120.323 233.672ZM120.299 236.204H118.943V238.1H120.299C120.747 238.1 121.107 238.036 121.379 237.908C121.651 237.772 121.787 237.528 121.787 237.176C121.787 236.824 121.663 236.576 121.415 236.432C121.167 236.28 120.795 236.204 120.299 236.204ZM126.562 233.588C125.898 233.588 125.226 233.792 124.546 234.2V233.252C124.842 233.068 125.182 232.924 125.566 232.82C125.958 232.708 126.338 232.652 126.706 232.652C127.49 232.652 128.086 232.816 128.494 233.144C128.902 233.472 129.106 233.972 129.106 234.644V237.992C129.106 238.128 129.11 238.304 129.118 238.52C129.134 238.728 129.15 238.888 129.166 239H128.206C128.182 238.888 128.158 238.732 128.134 238.532C128.118 238.324 128.11 238.144 128.11 237.992L128.098 237.812C128.002 238.004 127.87 238.204 127.702 238.412C127.534 238.612 127.31 238.78 127.03 238.916C126.758 239.052 126.418 239.12 126.01 239.12C125.45 239.12 124.998 238.96 124.654 238.64C124.31 238.32 124.138 237.868 124.138 237.284C124.138 236.604 124.378 236.104 124.858 235.784C125.338 235.464 126.014 235.304 126.886 235.304H128.05V234.788C128.05 234.356 127.938 234.048 127.714 233.864C127.49 233.68 127.106 233.588 126.562 233.588ZM128.05 236.6V236.144H126.994C126.362 236.144 125.902 236.236 125.614 236.42C125.334 236.604 125.194 236.872 125.194 237.224C125.194 237.504 125.278 237.732 125.446 237.908C125.622 238.084 125.886 238.172 126.238 238.172C126.566 238.172 126.846 238.108 127.078 237.98C127.31 237.844 127.498 237.684 127.642 237.5C127.786 237.308 127.89 237.128 127.954 236.96C128.018 236.792 128.05 236.672 128.05 236.6ZM130.204 232.772H135.208V233.672H133.216V239H132.16V233.672H130.204V232.772ZM139.011 239.12C137.971 239.12 137.175 238.836 136.623 238.268C136.079 237.692 135.807 236.896 135.807 235.88C135.807 235.2 135.935 234.62 136.191 234.14C136.447 233.66 136.799 233.292 137.247 233.036C137.695 232.78 138.199 232.652 138.759 232.652C139.711 232.652 140.411 232.968 140.859 233.6C141.307 234.224 141.451 235.08 141.291 236.168H136.899C136.987 237.504 137.723 238.172 139.107 238.172C139.867 238.172 140.567 237.956 141.207 237.524V238.472C140.919 238.672 140.583 238.832 140.199 238.952C139.815 239.064 139.419 239.12 139.011 239.12ZM138.735 233.588C138.279 233.588 137.887 233.728 137.559 234.008C137.231 234.288 137.023 234.712 136.935 235.28H140.283C140.307 234.744 140.183 234.328 139.911 234.032C139.639 233.736 139.247 233.588 138.735 233.588ZM142.204 237.968C142.684 238.04 143.012 237.74 143.188 237.068C143.252 236.828 143.304 236.528 143.344 236.168C143.384 235.8 143.412 235.344 143.428 234.8C143.444 234.248 143.452 233.572 143.452 232.772H147.76V239H146.692V233.672H144.448C144.44 234.624 144.412 235.388 144.364 235.964C144.324 236.532 144.256 237.008 144.16 237.392C144.008 237.992 143.776 238.42 143.464 238.676C143.152 238.932 142.732 239.044 142.204 239.012V237.968ZM150.501 232.772V234.872H151.641C152.433 234.872 153.053 235.032 153.501 235.352C153.949 235.664 154.173 236.176 154.173 236.888C154.173 237.376 154.061 237.776 153.837 238.088C153.613 238.4 153.305 238.632 152.913 238.784C152.521 238.928 152.073 239 151.569 239H149.445V232.772H150.501ZM151.569 238.1C152.025 238.1 152.393 238.012 152.673 237.836C152.961 237.652 153.105 237.356 153.105 236.948C153.105 236.532 152.977 236.232 152.721 236.048C152.465 235.864 152.105 235.772 151.641 235.772H150.501V238.1H151.569ZM163.283 239H157.679V237.86C158.567 237.148 159.291 236.548 159.851 236.06C160.411 235.564 160.847 235.136 161.159 234.776C161.471 234.416 161.687 234.088 161.807 233.792C161.927 233.488 161.987 233.176 161.987 232.856C161.987 232.36 161.835 231.972 161.531 231.692C161.227 231.412 160.815 231.272 160.295 231.272C159.423 231.272 158.627 231.668 157.907 232.46V231.248C158.563 230.6 159.371 230.276 160.331 230.276C161.203 230.276 161.891 230.5 162.395 230.948C162.899 231.388 163.151 231.988 163.151 232.748C163.151 233.14 163.087 233.512 162.959 233.864C162.839 234.208 162.623 234.572 162.311 234.956C162.007 235.332 161.579 235.764 161.027 236.252C160.475 236.74 159.775 237.312 158.927 237.968H163.283V239Z" fill="#262626"/>
<path d="M65.6122 103H64.2082L61.2082 99.316H60.2962V103H59.1682V94.396H60.2962V98.296H61.1362L64.2082 94.396H65.4802L62.0842 98.692L65.6122 103ZM66.2077 101.968C66.6877 102.04 67.0157 101.74 67.1917 101.068C67.2557 100.828 67.3077 100.528 67.3477 100.168C67.3877 99.8 67.4157 99.344 67.4317 98.8C67.4477 98.248 67.4557 97.572 67.4557 96.772H71.7637V103H70.6957V97.672H68.4517C68.4437 98.624 68.4157 99.388 68.3677 99.964C68.3277 100.532 68.2597 101.008 68.1637 101.392C68.0117 101.992 67.7797 102.42 67.4677 102.676C67.1557 102.932 66.7357 103.044 66.2077 103.012V101.968ZM75.5971 97.588C74.9331 97.588 74.2611 97.792 73.5811 98.2V97.252C73.8771 97.068 74.2171 96.924 74.6011 96.82C74.9931 96.708 75.3731 96.652 75.7411 96.652C76.5251 96.652 77.1211 96.816 77.5291 97.144C77.9371 97.472 78.1411 97.972 78.1411 98.644V101.992C78.1411 102.128 78.1451 102.304 78.1531 102.52C78.1691 102.728 78.1851 102.888 78.2011 103H77.2411C77.2171 102.888 77.1931 102.732 77.1691 102.532C77.1531 102.324 77.1451 102.144 77.1451 101.992L77.1331 101.812C77.0371 102.004 76.9051 102.204 76.7371 102.412C76.5691 102.612 76.3451 102.78 76.0651 102.916C75.7931 103.052 75.4531 103.12 75.0451 103.12C74.4851 103.12 74.0331 102.96 73.6891 102.64C73.3451 102.32 73.1731 101.868 73.1731 101.284C73.1731 100.604 73.4131 100.104 73.8931 99.784C74.3731 99.464 75.0491 99.304 75.9211 99.304H77.0851V98.788C77.0851 98.356 76.9731 98.048 76.7491 97.864C76.5251 97.68 76.1411 97.588 75.5971 97.588ZM77.0851 100.6V100.144H76.0291C75.3971 100.144 74.9371 100.236 74.6491 100.42C74.3691 100.604 74.2291 100.872 74.2291 101.224C74.2291 101.504 74.3131 101.732 74.4811 101.908C74.6571 102.084 74.9211 102.172 75.2731 102.172C75.6011 102.172 75.8811 102.108 76.1131 101.98C76.3451 101.844 76.5331 101.684 76.6771 101.5C76.8211 101.308 76.9251 101.128 76.9891 100.96C77.0531 100.792 77.0851 100.672 77.0851 100.6ZM82.4895 103.12C81.5215 103.12 80.7575 102.836 80.1975 102.268C79.6375 101.692 79.3575 100.896 79.3575 99.88C79.3575 98.864 79.6415 98.072 80.2095 97.504C80.7775 96.936 81.5535 96.652 82.5375 96.652C82.9135 96.652 83.2655 96.696 83.5935 96.784C83.9215 96.864 84.1855 96.984 84.3855 97.144V98.092C83.8415 97.756 83.2295 97.588 82.5495 97.588C81.8295 97.588 81.2975 97.78 80.9535 98.164C80.6095 98.54 80.4375 99.112 80.4375 99.88C80.4375 100.648 80.6015 101.224 80.9295 101.608C81.2655 101.984 81.7855 102.172 82.4895 102.172C83.1695 102.172 83.8015 102.008 84.3855 101.68V102.628C83.8655 102.956 83.2335 103.12 82.4895 103.12ZM85.2975 96.772H90.3015V97.672H88.3095V103H87.2535V97.672H85.2975V96.772ZM94.1045 103.12C93.0645 103.12 92.2685 102.836 91.7165 102.268C91.1725 101.692 90.9005 100.896 90.9005 99.88C90.9005 99.2 91.0285 98.62 91.2845 98.14C91.5405 97.66 91.8925 97.292 92.3405 97.036C92.7885 96.78 93.2925 96.652 93.8525 96.652C94.8045 96.652 95.5045 96.968 95.9525 97.6C96.4005 98.224 96.5445 99.08 96.3845 100.168H91.9925C92.0805 101.504 92.8165 102.172 94.2005 102.172C94.9605 102.172 95.6605 101.956 96.3005 101.524V102.472C96.0125 102.672 95.6765 102.832 95.2925 102.952C94.9085 103.064 94.5125 103.12 94.1045 103.12ZM93.8285 97.588C93.3725 97.588 92.9805 97.728 92.6525 98.008C92.3245 98.288 92.1165 98.712 92.0285 99.28H95.3765C95.4005 98.744 95.2765 98.328 95.0045 98.032C94.7325 97.736 94.3405 97.588 93.8285 97.588ZM97.8015 96.772H98.7255L98.8335 97.984C99.0335 97.584 99.3095 97.264 99.6615 97.024C100.022 96.776 100.462 96.652 100.982 96.652C101.47 96.652 101.918 96.772 102.326 97.012C102.742 97.244 103.078 97.6 103.334 98.08C103.59 98.552 103.717 99.152 103.717 99.88C103.717 100.608 103.586 101.212 103.322 101.692C103.066 102.172 102.726 102.532 102.302 102.772C101.886 103.004 101.43 103.12 100.934 103.12C100.462 103.12 100.05 103.008 99.6975 102.784C99.3455 102.56 99.0655 102.252 98.8575 101.86V105.124H97.8015V96.772ZM102.626 99.88C102.626 99.128 102.454 98.56 102.11 98.176C101.766 97.784 101.322 97.588 100.778 97.588C100.234 97.588 99.7735 97.78 99.3975 98.164C99.0295 98.54 98.8455 99.112 98.8455 99.88C98.8455 100.656 99.0295 101.232 99.3975 101.608C99.7735 101.984 100.234 102.172 100.778 102.172C101.322 102.172 101.766 101.98 102.11 101.596C102.454 101.212 102.626 100.64 102.626 99.88ZM107.939 105.244C107.611 105.244 107.339 105.2 107.123 105.112V104.092C107.283 104.228 107.543 104.296 107.903 104.296C108.183 104.296 108.419 104.228 108.611 104.092C108.811 103.964 109.003 103.74 109.187 103.42L106.655 96.772H107.819L109.799 102.028L111.767 96.772H112.787L110.459 102.928C110.139 103.752 109.783 104.344 109.391 104.704C108.999 105.064 108.515 105.244 107.939 105.244ZM113.833 103V96.772H118.825V103H117.769V97.672H114.889V103H113.833ZM120.548 96.772H121.472L121.58 97.984C121.78 97.584 122.056 97.264 122.408 97.024C122.768 96.776 123.208 96.652 123.728 96.652C124.216 96.652 124.664 96.772 125.072 97.012C125.488 97.244 125.824 97.6 126.08 98.08C126.336 98.552 126.464 99.152 126.464 99.88C126.464 100.608 126.332 101.212 126.068 101.692C125.812 102.172 125.472 102.532 125.048 102.772C124.632 103.004 124.176 103.12 123.68 103.12C123.208 103.12 122.796 103.008 122.444 102.784C122.092 102.56 121.812 102.252 121.604 101.86V105.124H120.548V96.772ZM125.372 99.88C125.372 99.128 125.2 98.56 124.856 98.176C124.512 97.784 124.068 97.588 123.524 97.588C122.98 97.588 122.52 97.78 122.144 98.164C121.776 98.54 121.592 99.112 121.592 99.88C121.592 100.656 121.776 101.232 122.144 101.608C122.52 101.984 122.98 102.172 123.524 102.172C124.068 102.172 124.512 101.98 124.856 101.596C125.2 101.212 125.372 100.64 125.372 99.88ZM129.796 97.588C129.132 97.588 128.46 97.792 127.78 98.2V97.252C128.076 97.068 128.416 96.924 128.8 96.82C129.192 96.708 129.572 96.652 129.94 96.652C130.724 96.652 131.32 96.816 131.728 97.144C132.136 97.472 132.34 97.972 132.34 98.644V101.992C132.34 102.128 132.344 102.304 132.352 102.52C132.368 102.728 132.384 102.888 132.4 103H131.44C131.416 102.888 131.392 102.732 131.368 102.532C131.352 102.324 131.344 102.144 131.344 101.992L131.332 101.812C131.236 102.004 131.104 102.204 130.936 102.412C130.768 102.612 130.544 102.78 130.264 102.916C129.992 103.052 129.652 103.12 129.244 103.12C128.684 103.12 128.232 102.96 127.888 102.64C127.544 102.32 127.372 101.868 127.372 101.284C127.372 100.604 127.612 100.104 128.092 99.784C128.572 99.464 129.248 99.304 130.12 99.304H131.284V98.788C131.284 98.356 131.172 98.048 130.948 97.864C130.724 97.68 130.34 97.588 129.796 97.588ZM131.284 100.6V100.144H130.228C129.596 100.144 129.136 100.236 128.848 100.42C128.568 100.604 128.428 100.872 128.428 101.224C128.428 101.504 128.512 101.732 128.68 101.908C128.856 102.084 129.12 102.172 129.472 102.172C129.8 102.172 130.08 102.108 130.312 101.98C130.544 101.844 130.732 101.684 130.876 101.5C131.02 101.308 131.124 101.128 131.188 100.96C131.252 100.792 131.284 100.672 131.284 100.6ZM136.425 103H134.001V96.772H136.449C137.193 96.772 137.757 96.904 138.141 97.168C138.533 97.424 138.729 97.828 138.729 98.38C138.729 98.74 138.633 99.032 138.441 99.256C138.257 99.48 137.993 99.64 137.649 99.736C138.537 99.88 138.981 100.372 138.981 101.212C138.981 101.636 138.869 101.98 138.645 102.244C138.429 102.508 138.129 102.7 137.745 102.82C137.361 102.94 136.921 103 136.425 103ZM136.437 97.672H135.057V99.364H136.353C136.753 99.364 137.073 99.292 137.313 99.148C137.561 99.004 137.685 98.796 137.685 98.524C137.685 98.196 137.577 97.972 137.361 97.852C137.145 97.732 136.837 97.672 136.437 97.672ZM136.413 100.204H135.057V102.1H136.413C136.861 102.1 137.221 102.036 137.493 101.908C137.765 101.772 137.901 101.528 137.901 101.176C137.901 100.824 137.777 100.576 137.529 100.432C137.281 100.28 136.909 100.204 136.413 100.204ZM140.001 101.968C140.481 102.04 140.809 101.74 140.985 101.068C141.049 100.828 141.101 100.528 141.141 100.168C141.181 99.8 141.209 99.344 141.225 98.8C141.241 98.248 141.249 97.572 141.249 96.772H145.557V103H144.489V97.672H142.245C142.237 98.624 142.209 99.388 142.161 99.964C142.121 100.532 142.053 101.008 141.957 101.392C141.805 101.992 141.573 102.42 141.261 102.676C140.949 102.932 140.529 103.044 140.001 103.012V101.968ZM146.834 103L148.634 100.48C148.21 100.36 147.878 100.164 147.638 99.892C147.398 99.62 147.278 99.252 147.278 98.788C147.278 98.316 147.39 97.932 147.614 97.636C147.838 97.34 148.146 97.124 148.538 96.988C148.93 96.844 149.378 96.772 149.882 96.772H151.886V103H150.83V100.744H149.69L148.094 103H146.834ZM149.882 97.672C149.434 97.672 149.066 97.756 148.778 97.924C148.49 98.092 148.346 98.364 148.346 98.74C148.346 99.132 148.474 99.416 148.73 99.592C148.994 99.76 149.358 99.844 149.822 99.844H150.83V97.672H149.882ZM156.378 103.12C155.338 103.12 154.542 102.836 153.99 102.268C153.446 101.692 153.174 100.896 153.174 99.88C153.174 99.2 153.302 98.62 153.558 98.14C153.814 97.66 154.166 97.292 154.614 97.036C155.062 96.78 155.566 96.652 156.126 96.652C157.078 96.652 157.778 96.968 158.226 97.6C158.674 98.224 158.818 99.08 158.658 100.168H154.266C154.354 101.504 155.09 102.172 156.474 102.172C157.234 102.172 157.934 101.956 158.574 101.524V102.472C158.286 102.672 157.95 102.832 157.566 102.952C157.182 103.064 156.786 103.12 156.378 103.12ZM156.102 97.588C155.646 97.588 155.254 97.728 154.926 98.008C154.598 98.288 154.39 98.712 154.302 99.28H157.65C157.674 98.744 157.55 98.328 157.278 98.032C157.006 97.736 156.614 97.588 156.102 97.588ZM160.075 96.772H161.647L163.555 100.948L165.595 96.772H167.059V103H166.015V97.996L163.903 102.304H163.063L161.071 97.972V103H160.075V96.772ZM171.338 103.12C170.77 103.12 170.258 102.996 169.802 102.748C169.354 102.492 168.998 102.124 168.734 101.644C168.47 101.156 168.338 100.568 168.338 99.88C168.338 99.192 168.47 98.608 168.734 98.128C168.998 97.648 169.354 97.284 169.802 97.036C170.258 96.78 170.77 96.652 171.338 96.652C171.914 96.652 172.43 96.78 172.886 97.036C173.342 97.284 173.702 97.648 173.966 98.128C174.23 98.608 174.362 99.192 174.362 99.88C174.362 100.568 174.23 101.156 173.966 101.644C173.702 102.124 173.342 102.492 172.886 102.748C172.43 102.996 171.914 103.12 171.338 103.12ZM171.338 102.172C171.898 102.172 172.362 101.988 172.73 101.62C173.098 101.244 173.282 100.664 173.282 99.88C173.282 99.096 173.098 98.52 172.73 98.152C172.362 97.776 171.898 97.588 171.338 97.588C170.786 97.588 170.326 97.776 169.958 98.152C169.598 98.52 169.418 99.096 169.418 99.88C169.418 100.664 169.598 101.244 169.958 101.62C170.326 101.988 170.786 102.172 171.338 102.172ZM178.337 95.944C177.705 95.944 177.233 95.788 176.921 95.476C176.609 95.156 176.453 94.768 176.453 94.312H177.509C177.509 94.616 177.581 94.836 177.725 94.972C177.877 95.108 178.081 95.176 178.337 95.176C178.593 95.176 178.793 95.108 178.937 94.972C179.081 94.836 179.153 94.616 179.153 94.312H180.209C180.209 94.768 180.053 95.156 179.741 95.476C179.437 95.788 178.969 95.944 178.337 95.944ZM176.705 96.772V101.536L179.909 96.772H180.977V103H179.921V98.248L176.729 103H175.649V96.772H176.705ZM88.0238 110.688C88.5518 110.688 89.0238 110.812 89.4398 111.06C89.8638 111.308 90.1998 111.672 90.4478 112.152C90.6958 112.624 90.8198 113.2 90.8198 113.88C90.8198 114.568 90.6878 115.156 90.4238 115.644C90.1598 116.124 89.7998 116.492 89.3438 116.748C88.8878 116.996 88.3718 117.12 87.7958 117.12C87.2118 117.12 86.6918 116.988 86.2358 116.724C85.7878 116.452 85.4358 116.044 85.1798 115.5C84.9238 114.956 84.7958 114.264 84.7958 113.424C84.7958 112.512 84.8478 111.752 84.9518 111.144C85.0638 110.536 85.2358 110.04 85.4678 109.656C85.6998 109.264 86.0118 108.952 86.4038 108.72C86.5958 108.608 86.7958 108.52 87.0038 108.456C87.2118 108.392 87.4718 108.344 87.7838 108.312C88.1038 108.272 88.5118 108.244 89.0078 108.228C89.3198 108.204 89.5838 108.164 89.7998 108.108C90.0158 108.052 90.2118 107.976 90.3878 107.88V108.84C90.2358 108.936 90.0678 109.012 89.8838 109.068C89.6998 109.116 89.4438 109.156 89.1158 109.188C88.6438 109.236 88.2678 109.268 87.9878 109.284C87.7158 109.3 87.4958 109.324 87.3278 109.356C87.1598 109.388 86.9918 109.452 86.8238 109.548C86.4798 109.74 86.2198 110.028 86.0438 110.412C85.8678 110.788 85.7478 111.348 85.6838 112.092C86.0998 111.156 86.8798 110.688 88.0238 110.688ZM87.7958 116.172C88.3558 116.172 88.8198 115.988 89.1878 115.62C89.5558 115.244 89.7398 114.664 89.7398 113.88C89.7398 113.096 89.5558 112.52 89.1878 112.152C88.8198 111.776 88.3558 111.588 87.7958 111.588C87.2438 111.588 86.7838 111.772 86.4158 112.14C86.0558 112.508 85.8758 113.076 85.8758 113.844C85.8758 114.644 86.0558 115.232 86.4158 115.608C86.7838 115.984 87.2438 116.172 87.7958 116.172ZM94.2533 111.588C93.5893 111.588 92.9173 111.792 92.2373 112.2V111.252C92.5333 111.068 92.8733 110.924 93.2573 110.82C93.6493 110.708 94.0293 110.652 94.3973 110.652C95.1813 110.652 95.7773 110.816 96.1853 111.144C96.5933 111.472 96.7973 111.972 96.7973 112.644V115.992C96.7973 116.128 96.8013 116.304 96.8093 116.52C96.8253 116.728 96.8413 116.888 96.8573 117H95.8973C95.8733 116.888 95.8493 116.732 95.8253 116.532C95.8093 116.324 95.8013 116.144 95.8013 115.992L95.7893 115.812C95.6933 116.004 95.5613 116.204 95.3933 116.412C95.2253 116.612 95.0013 116.78 94.7213 116.916C94.4493 117.052 94.1093 117.12 93.7013 117.12C93.1413 117.12 92.6893 116.96 92.3453 116.64C92.0013 116.32 91.8293 115.868 91.8293 115.284C91.8293 114.604 92.0693 114.104 92.5493 113.784C93.0293 113.464 93.7053 113.304 94.5773 113.304H95.7413V112.788C95.7413 112.356 95.6293 112.048 95.4053 111.864C95.1813 111.68 94.7973 111.588 94.2533 111.588ZM95.7413 114.6V114.144H94.6853C94.0533 114.144 93.5933 114.236 93.3053 114.42C93.0253 114.604 92.8853 114.872 92.8853 115.224C92.8853 115.504 92.9693 115.732 93.1373 115.908C93.3133 116.084 93.5773 116.172 93.9293 116.172C94.2573 116.172 94.5373 116.108 94.7693 115.98C95.0013 115.844 95.1893 115.684 95.3333 115.5C95.4773 115.308 95.5813 115.128 95.6453 114.96C95.7093 114.792 95.7413 114.672 95.7413 114.6ZM100.27 117.12C99.8778 117.12 99.4978 117.076 99.1298 116.988C98.7698 116.9 98.4738 116.78 98.2418 116.628V115.68C98.4978 115.832 98.8018 115.952 99.1538 116.04C99.5058 116.128 99.8698 116.172 100.246 116.172C100.702 116.172 101.082 116.1 101.386 115.956C101.698 115.804 101.854 115.548 101.854 115.188C101.854 114.836 101.722 114.588 101.458 114.444C101.202 114.3 100.806 114.228 100.27 114.228H99.4418V113.376H100.306C100.746 113.376 101.082 113.296 101.314 113.136C101.546 112.976 101.662 112.744 101.662 112.44C101.662 112.12 101.522 111.9 101.242 111.78C100.97 111.652 100.638 111.588 100.246 111.588C99.5418 111.588 98.9138 111.756 98.3618 112.092V111.144C98.6018 110.984 98.8938 110.864 99.2378 110.784C99.5898 110.696 99.9538 110.652 100.33 110.652C101.09 110.652 101.662 110.796 102.046 111.084C102.438 111.372 102.634 111.788 102.634 112.332C102.634 112.74 102.522 113.064 102.298 113.304C102.074 113.536 101.766 113.692 101.374 113.772C101.862 113.836 102.234 113.992 102.49 114.24C102.746 114.488 102.874 114.804 102.874 115.188C102.874 115.652 102.75 116.028 102.502 116.316C102.262 116.596 101.946 116.8 101.554 116.928C101.162 117.056 100.734 117.12 100.27 117.12ZM105.479 110.772V112.872H106.559C107.351 112.872 107.971 113.032 108.419 113.352C108.867 113.664 109.091 114.176 109.091 114.888C109.091 115.384 108.979 115.788 108.755 116.1C108.531 116.404 108.223 116.632 107.831 116.784C107.439 116.928 106.991 117 106.487 117H104.423V110.772H105.479ZM111.047 110.772V117H109.991V110.772H111.047ZM106.487 116.1C106.935 116.1 107.303 116.012 107.591 115.836C107.879 115.652 108.023 115.356 108.023 114.948C108.023 114.532 107.895 114.232 107.639 114.048C107.383 113.864 107.023 113.772 106.559 113.772H105.479V116.1H106.487ZM115.266 118.776H114.318V116.1H114.906C115.162 115.844 115.342 115.484 115.446 115.02C115.558 114.556 115.626 113.976 115.65 113.28C115.674 112.576 115.686 111.74 115.686 110.772H120.186V116.1H121.122V118.776H120.198L120.066 117H115.374L115.266 118.776ZM119.13 111.672H116.67C116.662 112.808 116.622 113.728 116.55 114.432C116.486 115.128 116.322 115.684 116.058 116.1H119.13V111.672ZM124.277 111.588C123.613 111.588 122.941 111.792 122.261 112.2V111.252C122.557 111.068 122.897 110.924 123.281 110.82C123.673 110.708 124.053 110.652 124.421 110.652C125.205 110.652 125.801 110.816 126.209 111.144C126.617 111.472 126.821 111.972 126.821 112.644V115.992C126.821 116.128 126.825 116.304 126.833 116.52C126.849 116.728 126.865 116.888 126.881 117H125.921C125.897 116.888 125.873 116.732 125.849 116.532C125.833 116.324 125.825 116.144 125.825 115.992L125.813 115.812C125.717 116.004 125.585 116.204 125.417 116.412C125.249 116.612 125.025 116.78 124.745 116.916C124.473 117.052 124.133 117.12 123.725 117.12C123.165 117.12 122.713 116.96 122.369 116.64C122.025 116.32 121.853 115.868 121.853 115.284C121.853 114.604 122.093 114.104 122.573 113.784C123.053 113.464 123.729 113.304 124.601 113.304H125.765V112.788C125.765 112.356 125.653 112.048 125.429 111.864C125.205 111.68 124.821 111.588 124.277 111.588ZM125.765 114.6V114.144H124.709C124.077 114.144 123.617 114.236 123.329 114.42C123.049 114.604 122.909 114.872 122.909 115.224C122.909 115.504 122.993 115.732 123.161 115.908C123.337 116.084 123.601 116.172 123.953 116.172C124.281 116.172 124.561 116.108 124.793 115.98C125.025 115.844 125.213 115.684 125.357 115.5C125.501 115.308 125.605 115.128 125.669 114.96C125.733 114.792 125.765 114.672 125.765 114.6ZM129.537 110.772V113.34H132.549V110.772H133.605V117H132.549V114.24H129.537V117H128.481V110.772H129.537ZM136.393 110.772V113.34H139.405V110.772H140.461V117H139.405V114.24H136.393V117H135.337V110.772H136.393ZM143.248 110.772V112.872H144.328C145.12 112.872 145.74 113.032 146.188 113.352C146.636 113.664 146.86 114.176 146.86 114.888C146.86 115.384 146.748 115.788 146.524 116.1C146.3 116.404 145.992 116.632 145.6 116.784C145.208 116.928 144.76 117 144.256 117H142.192V110.772H143.248ZM148.816 110.772V117H147.76V110.772H148.816ZM144.256 116.1C144.704 116.1 145.072 116.012 145.36 115.836C145.648 115.652 145.792 115.356 145.792 114.948C145.792 114.532 145.664 114.232 145.408 114.048C145.152 113.864 144.792 113.772 144.328 113.772H143.248V116.1H144.256ZM150.069 110.772H151.293L152.781 112.968L154.281 110.772H155.373L153.309 113.748L155.481 117H154.257L152.589 114.528L150.909 117H149.805L152.061 113.772L150.069 110.772Z" fill="black"/>
<rect x="276" y="73" width="168" height="206" rx="9" fill="white" stroke="#5282FF" stroke-width="2"/>
<rect x="295" y="140" width="130" height="50" rx="10" fill="#D6E1FF"/>
<path d="M322.131 160.396H328.599V169H327.459V161.428H323.259V169H322.131V160.396ZM333.016 169.12C332.448 169.12 331.936 168.996 331.48 168.748C331.032 168.492 330.676 168.124 330.412 167.644C330.148 167.156 330.016 166.568 330.016 165.88C330.016 165.192 330.148 164.608 330.412 164.128C330.676 163.648 331.032 163.284 331.48 163.036C331.936 162.78 332.448 162.652 333.016 162.652C333.592 162.652 334.108 162.78 334.564 163.036C335.02 163.284 335.38 163.648 335.644 164.128C335.908 164.608 336.04 165.192 336.04 165.88C336.04 166.568 335.908 167.156 335.644 167.644C335.38 168.124 335.02 168.492 334.564 168.748C334.108 168.996 333.592 169.12 333.016 169.12ZM333.016 168.172C333.576 168.172 334.04 167.988 334.408 167.62C334.776 167.244 334.96 166.664 334.96 165.88C334.96 165.096 334.776 164.52 334.408 164.152C334.04 163.776 333.576 163.588 333.016 163.588C332.464 163.588 332.004 163.776 331.636 164.152C331.276 164.52 331.096 165.096 331.096 165.88C331.096 166.664 331.276 167.244 331.636 167.62C332.004 167.988 332.464 168.172 333.016 168.172ZM337.412 170.776H336.464V168.1H337.052C337.308 167.844 337.488 167.484 337.592 167.02C337.704 166.556 337.772 165.976 337.796 165.28C337.82 164.576 337.832 163.74 337.832 162.772H342.332V168.1H343.268V170.776H342.344L342.212 169H337.52L337.412 170.776ZM341.276 163.672H338.816C338.808 164.808 338.768 165.728 338.696 166.432C338.632 167.128 338.468 167.684 338.204 168.1H341.276V163.672ZM349.458 169H348.174L345.978 166.348H345.426V169H344.37V162.772H345.426V165.448H346.026L348.21 162.772H349.41L346.854 165.844L349.458 169ZM350.065 167.968C350.545 168.04 350.873 167.74 351.049 167.068C351.113 166.828 351.165 166.528 351.205 166.168C351.245 165.8 351.273 165.344 351.289 164.8C351.305 164.248 351.313 163.572 351.313 162.772H355.621V169H354.553V163.672H352.309C352.301 164.624 352.273 165.388 352.225 165.964C352.185 166.532 352.117 167.008 352.021 167.392C351.869 167.992 351.637 168.42 351.325 168.676C351.013 168.932 350.593 169.044 350.065 169.012V167.968ZM362.359 169.12C361.847 169.12 361.383 169.008 360.967 168.784C360.551 168.56 360.211 168.236 359.947 167.812C359.691 167.38 359.539 166.856 359.491 166.24H358.399V169H357.343V162.772H358.399V165.34H359.515C359.579 164.764 359.739 164.276 359.995 163.876C360.259 163.476 360.595 163.172 361.003 162.964C361.411 162.756 361.863 162.652 362.359 162.652C362.911 162.652 363.407 162.78 363.847 163.036C364.287 163.284 364.631 163.648 364.879 164.128C365.135 164.608 365.263 165.192 365.263 165.88C365.263 166.568 365.135 167.156 364.879 167.644C364.631 168.124 364.287 168.492 363.847 168.748C363.407 168.996 362.911 169.12 362.359 169.12ZM362.359 168.172C362.879 168.172 363.311 167.988 363.655 167.62C363.999 167.244 364.171 166.664 364.171 165.88C364.171 165.096 363.999 164.52 363.655 164.152C363.311 163.776 362.879 163.588 362.359 163.588C361.847 163.588 361.419 163.776 361.075 164.152C360.731 164.52 360.559 165.096 360.559 165.88C360.559 166.664 360.731 167.244 361.075 167.62C361.419 167.988 361.847 168.172 362.359 168.172ZM368.598 165.916C368.87 165.916 369.138 165.876 369.402 165.796C369.674 165.716 369.918 165.592 370.134 165.424V162.772H371.19V169H370.134V166.264C369.686 166.616 369.114 166.792 368.418 166.792C367.714 166.792 367.174 166.616 366.798 166.264C366.43 165.912 366.246 165.356 366.246 164.596V162.772H367.314V164.608C367.314 165.096 367.426 165.436 367.65 165.628C367.874 165.82 368.19 165.916 368.598 165.916ZM375.677 169.12C374.637 169.12 373.841 168.836 373.289 168.268C372.745 167.692 372.473 166.896 372.473 165.88C372.473 165.2 372.601 164.62 372.857 164.14C373.113 163.66 373.465 163.292 373.913 163.036C374.361 162.78 374.865 162.652 375.425 162.652C376.377 162.652 377.077 162.968 377.525 163.6C377.973 164.224 378.117 165.08 377.957 166.168H373.565C373.653 167.504 374.389 168.172 375.773 168.172C376.533 168.172 377.233 167.956 377.873 167.524V168.472C377.585 168.672 377.249 168.832 376.865 168.952C376.481 169.064 376.085 169.12 375.677 169.12ZM375.401 163.588C374.945 163.588 374.553 163.728 374.225 164.008C373.897 164.288 373.689 164.712 373.601 165.28H376.949C376.973 164.744 376.849 164.328 376.577 164.032C376.305 163.736 375.913 163.588 375.401 163.588ZM380.43 162.772V165.34H383.442V162.772H384.498V169H383.442V166.24H380.43V169H379.374V162.772H380.43ZM387.285 162.772V167.536L390.489 162.772H391.557V169H390.501V164.248L387.309 169H386.229V162.772H387.285ZM396.044 169.12C395.004 169.12 394.208 168.836 393.656 168.268C393.112 167.692 392.84 166.896 392.84 165.88C392.84 165.2 392.968 164.62 393.224 164.14C393.48 163.66 393.832 163.292 394.28 163.036C394.728 162.78 395.232 162.652 395.792 162.652C396.744 162.652 397.444 162.968 397.892 163.6C398.34 164.224 398.484 165.08 398.324 166.168H393.932C394.02 167.504 394.756 168.172 396.14 168.172C396.9 168.172 397.6 167.956 398.24 167.524V168.472C397.952 168.672 397.616 168.832 397.232 168.952C396.848 169.064 396.452 169.12 396.044 169.12ZM395.768 163.588C395.312 163.588 394.92 163.728 394.592 164.008C394.264 164.288 394.056 164.712 393.968 165.28H397.316C397.34 164.744 397.216 164.328 396.944 164.032C396.672 163.736 396.28 163.588 395.768 163.588Z" fill="#262626"/>
<rect x="295" y="210" width="130" height="50" rx="10" fill="#D6E1FF"/>
<path d="M322.131 230.396H328.599V239H327.459V231.428H323.259V239H322.131V230.396ZM333.016 239.12C332.448 239.12 331.936 238.996 331.48 238.748C331.032 238.492 330.676 238.124 330.412 237.644C330.148 237.156 330.016 236.568 330.016 235.88C330.016 235.192 330.148 234.608 330.412 234.128C330.676 233.648 331.032 233.284 331.48 233.036C331.936 232.78 332.448 232.652 333.016 232.652C333.592 232.652 334.108 232.78 334.564 233.036C335.02 233.284 335.38 233.648 335.644 234.128C335.908 234.608 336.04 235.192 336.04 235.88C336.04 236.568 335.908 237.156 335.644 237.644C335.38 238.124 335.02 238.492 334.564 238.748C334.108 238.996 333.592 239.12 333.016 239.12ZM333.016 238.172C333.576 238.172 334.04 237.988 334.408 237.62C334.776 237.244 334.96 236.664 334.96 235.88C334.96 235.096 334.776 234.52 334.408 234.152C334.04 233.776 333.576 233.588 333.016 233.588C332.464 233.588 332.004 233.776 331.636 234.152C331.276 234.52 331.096 235.096 331.096 235.88C331.096 236.664 331.276 237.244 331.636 237.62C332.004 237.988 332.464 238.172 333.016 238.172ZM337.412 240.776H336.464V238.1H337.052C337.308 237.844 337.488 237.484 337.592 237.02C337.704 236.556 337.772 235.976 337.796 235.28C337.82 234.576 337.832 233.74 337.832 232.772H342.332V238.1H343.268V240.776H342.344L342.212 239H337.52L337.412 240.776ZM341.276 233.672H338.816C338.808 234.808 338.768 235.728 338.696 236.432C338.632 237.128 338.468 237.684 338.204 238.1H341.276V233.672ZM349.458 239H348.174L345.978 236.348H345.426V239H344.37V232.772H345.426V235.448H346.026L348.21 232.772H349.41L346.854 235.844L349.458 239ZM350.065 237.968C350.545 238.04 350.873 237.74 351.049 237.068C351.113 236.828 351.165 236.528 351.205 236.168C351.245 235.8 351.273 235.344 351.289 234.8C351.305 234.248 351.313 233.572 351.313 232.772H355.621V239H354.553V233.672H352.309C352.301 234.624 352.273 235.388 352.225 235.964C352.185 236.532 352.117 237.008 352.021 237.392C351.869 237.992 351.637 238.42 351.325 238.676C351.013 238.932 350.593 239.044 350.065 239.012V237.968ZM362.359 239.12C361.847 239.12 361.383 239.008 360.967 238.784C360.551 238.56 360.211 238.236 359.947 237.812C359.691 237.38 359.539 236.856 359.491 236.24H358.399V239H357.343V232.772H358.399V235.34H359.515C359.579 234.764 359.739 234.276 359.995 233.876C360.259 233.476 360.595 233.172 361.003 232.964C361.411 232.756 361.863 232.652 362.359 232.652C362.911 232.652 363.407 232.78 363.847 233.036C364.287 233.284 364.631 233.648 364.879 234.128C365.135 234.608 365.263 235.192 365.263 235.88C365.263 236.568 365.135 237.156 364.879 237.644C364.631 238.124 364.287 238.492 363.847 238.748C363.407 238.996 362.911 239.12 362.359 239.12ZM362.359 238.172C362.879 238.172 363.311 237.988 363.655 237.62C363.999 237.244 364.171 236.664 364.171 235.88C364.171 235.096 363.999 234.52 363.655 234.152C363.311 233.776 362.879 233.588 362.359 233.588C361.847 233.588 361.419 233.776 361.075 234.152C360.731 234.52 360.559 235.096 360.559 235.88C360.559 236.664 360.731 237.244 361.075 237.62C361.419 237.988 361.847 238.172 362.359 238.172ZM368.598 235.916C368.87 235.916 369.138 235.876 369.402 235.796C369.674 235.716 369.918 235.592 370.134 235.424V232.772H371.19V239H370.134V236.264C369.686 236.616 369.114 236.792 368.418 236.792C367.714 236.792 367.174 236.616 366.798 236.264C366.43 235.912 366.246 235.356 366.246 234.596V232.772H367.314V234.608C367.314 235.096 367.426 235.436 367.65 235.628C367.874 235.82 368.19 235.916 368.598 235.916ZM375.677 239.12C374.637 239.12 373.841 238.836 373.289 238.268C372.745 237.692 372.473 236.896 372.473 235.88C372.473 235.2 372.601 234.62 372.857 234.14C373.113 233.66 373.465 233.292 373.913 233.036C374.361 232.78 374.865 232.652 375.425 232.652C376.377 232.652 377.077 232.968 377.525 233.6C377.973 234.224 378.117 235.08 377.957 236.168H373.565C373.653 237.504 374.389 238.172 375.773 238.172C376.533 238.172 377.233 237.956 377.873 237.524V238.472C377.585 238.672 377.249 238.832 376.865 238.952C376.481 239.064 376.085 239.12 375.677 239.12ZM375.401 233.588C374.945 233.588 374.553 233.728 374.225 234.008C373.897 234.288 373.689 234.712 373.601 235.28H376.949C376.973 234.744 376.849 234.328 376.577 234.032C376.305 233.736 375.913 233.588 375.401 233.588ZM380.43 232.772V235.34H383.442V232.772H384.498V239H383.442V236.24H380.43V239H379.374V232.772H380.43ZM387.285 232.772V237.536L390.489 232.772H391.557V239H390.501V234.248L387.309 239H386.229V232.772H387.285ZM396.044 239.12C395.004 239.12 394.208 238.836 393.656 238.268C393.112 237.692 392.84 236.896 392.84 235.88C392.84 235.2 392.968 234.62 393.224 234.14C393.48 233.66 393.832 233.292 394.28 233.036C394.728 232.78 395.232 232.652 395.792 232.652C396.744 232.652 397.444 232.968 397.892 233.6C398.34 234.224 398.484 235.08 398.324 236.168H393.932C394.02 237.504 394.756 238.172 396.14 238.172C396.9 238.172 397.6 237.956 398.24 237.524V238.472C397.952 238.672 397.616 238.832 397.232 238.952C396.848 239.064 396.452 239.12 396.044 239.12ZM395.768 233.588C395.312 233.588 394.92 233.728 394.592 234.008C394.264 234.288 394.056 234.712 393.968 235.28H397.316C397.34 234.744 397.216 234.328 396.944 234.032C396.672 233.736 396.28 233.588 395.768 233.588Z" fill="#262626"/>
<path d="M333.791 103.12C332.943 103.12 332.199 102.944 331.559 102.592C330.927 102.24 330.435 101.736 330.083 101.08C329.731 100.416 329.555 99.624 329.555 98.704C329.555 97.32 329.919 96.24 330.647 95.464C331.375 94.68 332.415 94.288 333.767 94.288C334.271 94.288 334.751 94.344 335.207 94.456C335.671 94.56 336.063 94.712 336.383 94.912V95.992C336.039 95.776 335.635 95.608 335.171 95.488C334.715 95.368 334.243 95.308 333.755 95.308C332.747 95.308 331.999 95.592 331.511 96.16C331.023 96.728 330.779 97.576 330.779 98.704C330.779 99.84 331.043 100.692 331.571 101.26C332.099 101.82 332.871 102.1 333.887 102.1C334.847 102.1 335.679 101.836 336.383 101.308V102.388C336.103 102.612 335.731 102.792 335.267 102.928C334.803 103.056 334.311 103.12 333.791 103.12ZM340.404 103.12C339.836 103.12 339.324 102.996 338.868 102.748C338.42 102.492 338.064 102.124 337.8 101.644C337.536 101.156 337.404 100.568 337.404 99.88C337.404 99.192 337.536 98.608 337.8 98.128C338.064 97.648 338.42 97.284 338.868 97.036C339.324 96.78 339.836 96.652 340.404 96.652C340.98 96.652 341.496 96.78 341.952 97.036C342.408 97.284 342.768 97.648 343.032 98.128C343.296 98.608 343.428 99.192 343.428 99.88C343.428 100.568 343.296 101.156 343.032 101.644C342.768 102.124 342.408 102.492 341.952 102.748C341.496 102.996 340.98 103.12 340.404 103.12ZM340.404 102.172C340.964 102.172 341.428 101.988 341.796 101.62C342.164 101.244 342.348 100.664 342.348 99.88C342.348 99.096 342.164 98.52 341.796 98.152C341.428 97.776 340.964 97.588 340.404 97.588C339.852 97.588 339.392 97.776 339.024 98.152C338.664 98.52 338.484 99.096 338.484 99.88C338.484 100.664 338.664 101.244 339.024 101.62C339.392 101.988 339.852 102.172 340.404 102.172ZM347.668 97.588C347.188 97.588 346.796 97.7 346.492 97.924C346.196 98.14 345.956 98.42 345.772 98.764V103H344.716V96.772H345.712L345.748 97.888H345.772C345.94 97.536 346.204 97.244 346.564 97.012C346.924 96.772 347.38 96.652 347.932 96.652C348.548 96.652 349.036 96.816 349.396 97.144C349.764 97.472 349.948 97.968 349.948 98.632V103H348.892V98.74C348.892 98.316 348.78 98.02 348.556 97.852C348.34 97.676 348.044 97.588 347.668 97.588ZM354.57 97.588C354.09 97.588 353.698 97.7 353.394 97.924C353.098 98.14 352.858 98.42 352.674 98.764V103H351.618V96.772H352.614L352.65 97.888H352.674C352.842 97.536 353.106 97.244 353.466 97.012C353.826 96.772 354.282 96.652 354.834 96.652C355.45 96.652 355.938 96.816 356.298 97.144C356.666 97.472 356.85 97.968 356.85 98.632V103H355.794V98.74C355.794 98.316 355.682 98.02 355.458 97.852C355.242 97.676 354.946 97.588 354.57 97.588ZM361.28 103.12C360.24 103.12 359.444 102.836 358.892 102.268C358.348 101.692 358.076 100.896 358.076 99.88C358.076 99.2 358.204 98.62 358.46 98.14C358.716 97.66 359.068 97.292 359.516 97.036C359.964 96.78 360.468 96.652 361.028 96.652C361.98 96.652 362.68 96.968 363.128 97.6C363.576 98.224 363.72 99.08 363.56 100.168H359.168C359.256 101.504 359.992 102.172 361.376 102.172C362.136 102.172 362.836 101.956 363.476 101.524V102.472C363.188 102.672 362.852 102.832 362.468 102.952C362.084 103.064 361.688 103.12 361.28 103.12ZM361.004 97.588C360.548 97.588 360.156 97.728 359.828 98.008C359.5 98.288 359.292 98.712 359.204 99.28H362.552C362.576 98.744 362.452 98.328 362.18 98.032C361.908 97.736 361.516 97.588 361.004 97.588ZM367.572 103.12C366.604 103.12 365.84 102.836 365.28 102.268C364.72 101.692 364.44 100.896 364.44 99.88C364.44 98.864 364.724 98.072 365.292 97.504C365.86 96.936 366.636 96.652 367.62 96.652C367.996 96.652 368.348 96.696 368.676 96.784C369.004 96.864 369.268 96.984 369.468 97.144V98.092C368.924 97.756 368.312 97.588 367.632 97.588C366.912 97.588 366.38 97.78 366.036 98.164C365.692 98.54 365.52 99.112 365.52 99.88C365.52 100.648 365.684 101.224 366.012 101.608C366.348 101.984 366.868 102.172 367.572 102.172C368.252 102.172 368.884 102.008 369.468 101.68V102.628C368.948 102.956 368.316 103.12 367.572 103.12ZM370.309 97.672V96.772H371.053V95.464H372.109V96.772H373.921V97.672H372.109V101.416C372.109 101.68 372.177 101.872 372.313 101.992C372.449 102.112 372.681 102.172 373.009 102.172C373.321 102.172 373.605 102.084 373.861 101.908V102.868C373.733 102.948 373.565 103.008 373.357 103.048C373.149 103.096 372.941 103.12 372.733 103.12C372.333 103.12 372.009 103.044 371.761 102.892C371.513 102.74 371.333 102.544 371.221 102.304C371.109 102.064 371.053 101.812 371.053 101.548V97.672H370.309ZM375.806 95.86C375.59 95.86 375.418 95.796 375.29 95.668C375.162 95.532 375.098 95.368 375.098 95.176C375.098 94.984 375.162 94.82 375.29 94.684C375.418 94.548 375.59 94.48 375.806 94.48C376.014 94.48 376.178 94.548 376.298 94.684C376.418 94.82 376.478 94.984 376.478 95.176C376.478 95.368 376.418 95.532 376.298 95.668C376.178 95.796 376.014 95.86 375.806 95.86ZM375.266 96.772H376.322V103H375.266V96.772ZM380.6 103.12C380.032 103.12 379.52 102.996 379.064 102.748C378.616 102.492 378.26 102.124 377.996 101.644C377.732 101.156 377.6 100.568 377.6 99.88C377.6 99.192 377.732 98.608 377.996 98.128C378.26 97.648 378.616 97.284 379.064 97.036C379.52 96.78 380.032 96.652 380.6 96.652C381.176 96.652 381.692 96.78 382.148 97.036C382.604 97.284 382.964 97.648 383.228 98.128C383.492 98.608 383.624 99.192 383.624 99.88C383.624 100.568 383.492 101.156 383.228 101.644C382.964 102.124 382.604 102.492 382.148 102.748C381.692 102.996 381.176 103.12 380.6 103.12ZM380.6 102.172C381.16 102.172 381.624 101.988 381.992 101.62C382.36 101.244 382.544 100.664 382.544 99.88C382.544 99.096 382.36 98.52 381.992 98.152C381.624 97.776 381.16 97.588 380.6 97.588C380.048 97.588 379.588 97.776 379.22 98.152C378.86 98.52 378.68 99.096 378.68 99.88C378.68 100.664 378.86 101.244 379.22 101.62C379.588 101.988 380.048 102.172 380.6 102.172ZM387.863 97.588C387.383 97.588 386.991 97.7 386.687 97.924C386.391 98.14 386.151 98.42 385.967 98.764V103H384.911V96.772H385.907L385.943 97.888H385.967C386.135 97.536 386.399 97.244 386.759 97.012C387.119 96.772 387.575 96.652 388.127 96.652C388.743 96.652 389.231 96.816 389.591 97.144C389.959 97.472 390.143 97.968 390.143 98.632V103H389.087V98.74C389.087 98.316 388.975 98.02 388.751 97.852C388.535 97.676 388.239 97.588 387.863 97.588ZM341.248 115.692H340.756H340.744L340.756 115.68L338.152 109.98V117H337.084V108.396H338.656L341.332 114.432L344.128 108.396H345.592V117H344.452V110.076L341.812 115.68L341.248 115.692ZM349.564 111.588C348.9 111.588 348.228 111.792 347.548 112.2V111.252C347.844 111.068 348.184 110.924 348.568 110.82C348.96 110.708 349.34 110.652 349.708 110.652C350.492 110.652 351.088 110.816 351.496 111.144C351.904 111.472 352.108 111.972 352.108 112.644V115.992C352.108 116.128 352.112 116.304 352.12 116.52C352.136 116.728 352.152 116.888 352.168 117H351.208C351.184 116.888 351.16 116.732 351.136 116.532C351.12 116.324 351.112 116.144 351.112 115.992L351.1 115.812C351.004 116.004 350.872 116.204 350.704 116.412C350.536 116.612 350.312 116.78 350.032 116.916C349.76 117.052 349.42 117.12 349.012 117.12C348.452 117.12 348 116.96 347.656 116.64C347.312 116.32 347.14 115.868 347.14 115.284C347.14 114.604 347.38 114.104 347.86 113.784C348.34 113.464 349.016 113.304 349.888 113.304H351.052V112.788C351.052 112.356 350.94 112.048 350.716 111.864C350.492 111.68 350.108 111.588 349.564 111.588ZM351.052 114.6V114.144H349.996C349.364 114.144 348.904 114.236 348.616 114.42C348.336 114.604 348.196 114.872 348.196 115.224C348.196 115.504 348.28 115.732 348.448 115.908C348.624 116.084 348.888 116.172 349.24 116.172C349.568 116.172 349.848 116.108 350.08 115.98C350.312 115.844 350.5 115.684 350.644 115.5C350.788 115.308 350.892 115.128 350.956 114.96C351.02 114.792 351.052 114.672 351.052 114.6ZM356.72 111.588C356.24 111.588 355.848 111.7 355.544 111.924C355.248 112.14 355.008 112.42 354.824 112.764V117H353.768V110.772H354.764L354.8 111.888H354.824C354.992 111.536 355.256 111.244 355.616 111.012C355.976 110.772 356.432 110.652 356.984 110.652C357.6 110.652 358.088 110.816 358.448 111.144C358.816 111.472 359 111.968 359 112.632V117H357.944V112.74C357.944 112.316 357.832 112.02 357.608 111.852C357.392 111.676 357.096 111.588 356.72 111.588ZM362.783 111.588C362.119 111.588 361.447 111.792 360.767 112.2V111.252C361.063 111.068 361.403 110.924 361.787 110.82C362.179 110.708 362.559 110.652 362.927 110.652C363.711 110.652 364.307 110.816 364.715 111.144C365.123 111.472 365.327 111.972 365.327 112.644V115.992C365.327 116.128 365.331 116.304 365.339 116.52C365.355 116.728 365.371 116.888 365.387 117H364.427C364.403 116.888 364.379 116.732 364.355 116.532C364.339 116.324 364.331 116.144 364.331 115.992L364.319 115.812C364.223 116.004 364.091 116.204 363.923 116.412C363.755 116.612 363.531 116.78 363.251 116.916C362.979 117.052 362.639 117.12 362.231 117.12C361.671 117.12 361.219 116.96 360.875 116.64C360.531 116.32 360.359 115.868 360.359 115.284C360.359 114.604 360.599 114.104 361.079 113.784C361.559 113.464 362.235 113.304 363.107 113.304H364.271V112.788C364.271 112.356 364.159 112.048 363.935 111.864C363.711 111.68 363.327 111.588 362.783 111.588ZM364.271 114.6V114.144H363.215C362.583 114.144 362.123 114.236 361.835 114.42C361.555 114.604 361.415 114.872 361.415 115.224C361.415 115.504 361.499 115.732 361.667 115.908C361.843 116.084 362.107 116.172 362.459 116.172C362.787 116.172 363.067 116.108 363.299 115.98C363.531 115.844 363.719 115.684 363.863 115.5C364.007 115.308 364.111 115.128 364.175 114.96C364.239 114.792 364.271 114.672 364.271 114.6ZM367.059 118.632V117.684C367.395 117.868 367.731 118 368.067 118.08C368.403 118.16 368.787 118.2 369.219 118.2C369.987 118.2 370.523 118.052 370.827 117.756C371.131 117.468 371.283 117.044 371.283 116.484V115.524C371.099 115.892 370.839 116.188 370.503 116.412C370.175 116.636 369.767 116.748 369.279 116.748C368.791 116.748 368.335 116.636 367.911 116.412C367.495 116.18 367.159 115.84 366.903 115.392C366.655 114.944 366.531 114.384 366.531 113.712C366.531 113.032 366.655 112.468 366.903 112.02C367.159 111.564 367.495 111.224 367.911 111C368.335 110.768 368.799 110.652 369.303 110.652C369.799 110.652 370.215 110.764 370.551 110.988C370.895 111.212 371.163 111.516 371.355 111.9L371.367 111.768C371.367 111.624 371.375 111.452 371.391 111.252C371.407 111.044 371.423 110.884 371.439 110.772H372.399C372.383 110.876 372.367 111.036 372.351 111.252C372.343 111.46 372.339 111.632 372.339 111.768V116.472C372.339 117.008 372.231 117.476 372.015 117.876C371.807 118.276 371.475 118.588 371.019 118.812C370.563 119.036 369.959 119.148 369.207 119.148C368.295 119.148 367.579 118.976 367.059 118.632ZM371.295 113.712C371.295 113 371.119 112.468 370.767 112.116C370.423 111.764 369.987 111.588 369.459 111.588C368.931 111.588 368.487 111.764 368.127 112.116C367.775 112.468 367.599 113 367.599 113.712C367.599 114.408 367.775 114.932 368.127 115.284C368.487 115.628 368.935 115.8 369.471 115.8C369.991 115.8 370.423 115.628 370.767 115.284C371.119 114.94 371.295 114.416 371.295 113.712ZM376.813 117.12C375.773 117.12 374.977 116.836 374.425 116.268C373.881 115.692 373.609 114.896 373.609 113.88C373.609 113.2 373.737 112.62 373.993 112.14C374.249 111.66 374.601 111.292 375.049 111.036C375.497 110.78 376.001 110.652 376.561 110.652C377.513 110.652 378.213 110.968 378.661 111.6C379.109 112.224 379.253 113.08 379.093 114.168H374.701C374.789 115.504 375.525 116.172 376.909 116.172C377.669 116.172 378.369 115.956 379.009 115.524V116.472C378.721 116.672 378.385 116.832 378.001 116.952C377.617 117.064 377.221 117.12 376.813 117.12ZM376.537 111.588C376.081 111.588 375.689 111.728 375.361 112.008C375.033 112.288 374.825 112.712 374.737 113.28H378.085C378.109 112.744 377.985 112.328 377.713 112.032C377.441 111.736 377.049 111.588 376.537 111.588ZM383.501 111.828C383.005 111.868 382.581 111.992 382.229 112.2C381.885 112.408 381.633 112.688 381.473 113.04V117H380.417V110.772H381.341L381.449 112.128H381.473C381.673 111.712 381.945 111.376 382.289 111.12C382.641 110.864 383.045 110.708 383.501 110.652V111.828Z" fill="black"/>
<path d="M345.227 50H343.823L340.823 46.316H339.911V50H338.783V41.396H339.911V45.296H340.751L343.823 41.396H345.095L341.699 45.692L345.227 50ZM348.205 44.588C347.541 44.588 346.869 44.792 346.189 45.2V44.252C346.485 44.068 346.825 43.924 347.209 43.82C347.601 43.708 347.981 43.652 348.349 43.652C349.133 43.652 349.729 43.816 350.137 44.144C350.545 44.472 350.749 44.972 350.749 45.644V48.992C350.749 49.128 350.753 49.304 350.761 49.52C350.777 49.728 350.793 49.888 350.809 50H349.849C349.825 49.888 349.801 49.732 349.777 49.532C349.761 49.324 349.753 49.144 349.753 48.992L349.741 48.812C349.645 49.004 349.513 49.204 349.345 49.412C349.177 49.612 348.953 49.78 348.673 49.916C348.401 50.052 348.061 50.12 347.653 50.12C347.093 50.12 346.641 49.96 346.297 49.64C345.953 49.32 345.781 48.868 345.781 48.284C345.781 47.604 346.021 47.104 346.501 46.784C346.981 46.464 347.657 46.304 348.529 46.304H349.693V45.788C349.693 45.356 349.581 45.048 349.357 44.864C349.133 44.68 348.749 44.588 348.205 44.588ZM349.693 47.6V47.144H348.637C348.005 47.144 347.545 47.236 347.257 47.42C346.977 47.604 346.837 47.872 346.837 48.224C346.837 48.504 346.921 48.732 347.089 48.908C347.265 49.084 347.529 49.172 347.881 49.172C348.209 49.172 348.489 49.108 348.721 48.98C348.953 48.844 349.141 48.684 349.285 48.5C349.429 48.308 349.533 48.128 349.597 47.96C349.661 47.792 349.693 47.672 349.693 47.6ZM351.846 43.772H356.85V44.672H354.858V50H353.802V44.672H351.846V43.772ZM360.005 44.588C359.341 44.588 358.669 44.792 357.989 45.2V44.252C358.285 44.068 358.625 43.924 359.009 43.82C359.401 43.708 359.781 43.652 360.149 43.652C360.933 43.652 361.529 43.816 361.937 44.144C362.345 44.472 362.549 44.972 362.549 45.644V48.992C362.549 49.128 362.553 49.304 362.561 49.52C362.577 49.728 362.593 49.888 362.609 50H361.649C361.625 49.888 361.601 49.732 361.577 49.532C361.561 49.324 361.553 49.144 361.553 48.992L361.541 48.812C361.445 49.004 361.313 49.204 361.145 49.412C360.977 49.612 360.753 49.78 360.473 49.916C360.201 50.052 359.861 50.12 359.453 50.12C358.893 50.12 358.441 49.96 358.097 49.64C357.753 49.32 357.581 48.868 357.581 48.284C357.581 47.604 357.821 47.104 358.301 46.784C358.781 46.464 359.457 46.304 360.329 46.304H361.493V45.788C361.493 45.356 361.381 45.048 361.157 44.864C360.933 44.68 360.549 44.588 360.005 44.588ZM361.493 47.6V47.144H360.437C359.805 47.144 359.345 47.236 359.057 47.42C358.777 47.604 358.637 47.872 358.637 48.224C358.637 48.504 358.721 48.732 358.889 48.908C359.065 49.084 359.329 49.172 359.681 49.172C360.009 49.172 360.289 49.108 360.521 48.98C360.753 48.844 360.941 48.684 361.085 48.5C361.229 48.308 361.333 48.128 361.397 47.96C361.461 47.792 361.493 47.672 361.493 47.6ZM363.706 48.968C364.186 49.04 364.514 48.74 364.69 48.068C364.754 47.828 364.806 47.528 364.846 47.168C364.886 46.8 364.914 46.344 364.93 45.8C364.946 45.248 364.954 44.572 364.954 43.772H369.262V50H368.194V44.672H365.95C365.942 45.624 365.914 46.388 365.866 46.964C365.826 47.532 365.758 48.008 365.662 48.392C365.51 48.992 365.278 49.42 364.966 49.676C364.654 49.932 364.234 50.044 363.706 50.012V48.968ZM373.539 50.12C372.971 50.12 372.459 49.996 372.003 49.748C371.555 49.492 371.199 49.124 370.935 48.644C370.671 48.156 370.539 47.568 370.539 46.88C370.539 46.192 370.671 45.608 370.935 45.128C371.199 44.648 371.555 44.284 372.003 44.036C372.459 43.78 372.971 43.652 373.539 43.652C374.115 43.652 374.631 43.78 375.087 44.036C375.543 44.284 375.903 44.648 376.167 45.128C376.431 45.608 376.563 46.192 376.563 46.88C376.563 47.568 376.431 48.156 376.167 48.644C375.903 49.124 375.543 49.492 375.087 49.748C374.631 49.996 374.115 50.12 373.539 50.12ZM373.539 49.172C374.099 49.172 374.563 48.988 374.931 48.62C375.299 48.244 375.483 47.664 375.483 46.88C375.483 46.096 375.299 45.52 374.931 45.152C374.563 44.776 374.099 44.588 373.539 44.588C372.987 44.588 372.527 44.776 372.159 45.152C371.799 45.52 371.619 46.096 371.619 46.88C371.619 47.664 371.799 48.244 372.159 48.62C372.527 48.988 372.987 49.172 373.539 49.172ZM377.85 50V43.772H381.81V44.672H378.906V50H377.85Z" fill="black"/>
<rect x="516" y="73" width="168" height="206" rx="9" fill="white" stroke="#5282FF" stroke-width="2"/>
<rect x="535" y="140" width="130" height="50" rx="10" fill="#D6E1FF"/>
<path d="M584.789 169.12C583.941 169.12 583.197 168.944 582.557 168.592C581.925 168.24 581.433 167.736 581.081 167.08C580.729 166.416 580.553 165.624 580.553 164.704C580.553 163.32 580.917 162.24 581.645 161.464C582.373 160.68 583.413 160.288 584.765 160.288C585.269 160.288 585.749 160.344 586.205 160.456C586.669 160.56 587.061 160.712 587.381 160.912V161.992C587.037 161.776 586.633 161.608 586.169 161.488C585.713 161.368 585.241 161.308 584.753 161.308C583.745 161.308 582.997 161.592 582.509 162.16C582.021 162.728 581.777 163.576 581.777 164.704C581.777 165.84 582.041 166.692 582.569 167.26C583.097 167.82 583.869 168.1 584.885 168.1C585.845 168.1 586.677 167.836 587.381 167.308V168.388C587.101 168.612 586.729 168.792 586.265 168.928C585.801 169.056 585.309 169.12 584.789 169.12ZM591.606 169.12C590.566 169.12 589.77 168.836 589.218 168.268C588.674 167.692 588.402 166.896 588.402 165.88C588.402 165.2 588.53 164.62 588.786 164.14C589.042 163.66 589.394 163.292 589.842 163.036C590.29 162.78 590.794 162.652 591.354 162.652C592.306 162.652 593.006 162.968 593.454 163.6C593.902 164.224 594.046 165.08 593.886 166.168H589.494C589.582 167.504 590.318 168.172 591.702 168.172C592.462 168.172 593.162 167.956 593.802 167.524V168.472C593.514 168.672 593.178 168.832 592.794 168.952C592.41 169.064 592.014 169.12 591.606 169.12ZM591.33 163.588C590.874 163.588 590.482 163.728 590.154 164.008C589.826 164.288 589.618 164.712 589.53 165.28H592.878C592.902 164.744 592.778 164.328 592.506 164.032C592.234 163.736 591.842 163.588 591.33 163.588ZM600.391 169H599.107L596.911 166.348H596.359V169H595.303V162.772H596.359V165.448H596.959L599.143 162.772H600.343L597.787 165.844L600.391 169ZM601.503 162.772H602.427L602.535 163.984C602.735 163.584 603.011 163.264 603.363 163.024C603.723 162.776 604.163 162.652 604.683 162.652C605.171 162.652 605.619 162.772 606.027 163.012C606.443 163.244 606.779 163.6 607.035 164.08C607.291 164.552 607.419 165.152 607.419 165.88C607.419 166.608 607.287 167.212 607.023 167.692C606.767 168.172 606.427 168.532 606.003 168.772C605.587 169.004 605.131 169.12 604.635 169.12C604.163 169.12 603.751 169.008 603.399 168.784C603.047 168.56 602.767 168.252 602.559 167.86V171.124H601.503V162.772ZM606.327 165.88C606.327 165.128 606.155 164.56 605.811 164.176C605.467 163.784 605.023 163.588 604.479 163.588C603.935 163.588 603.475 163.78 603.099 164.164C602.731 164.54 602.547 165.112 602.547 165.88C602.547 166.656 602.731 167.232 603.099 167.608C603.475 167.984 603.935 168.172 604.479 168.172C605.023 168.172 605.467 167.98 605.811 167.596C606.155 167.212 606.327 166.64 606.327 165.88ZM611.458 169.12C610.418 169.12 609.622 168.836 609.07 168.268C608.526 167.692 608.254 166.896 608.254 165.88C608.254 165.2 608.382 164.62 608.638 164.14C608.894 163.66 609.246 163.292 609.694 163.036C610.142 162.78 610.646 162.652 611.206 162.652C612.158 162.652 612.858 162.968 613.306 163.6C613.754 164.224 613.898 165.08 613.738 166.168H609.346C609.434 167.504 610.17 168.172 611.554 168.172C612.314 168.172 613.014 167.956 613.654 167.524V168.472C613.366 168.672 613.03 168.832 612.646 168.952C612.262 169.064 611.866 169.12 611.458 169.12ZM611.182 163.588C610.726 163.588 610.334 163.728 610.006 164.008C609.678 164.288 609.47 164.712 609.382 165.28H612.73C612.754 164.744 612.63 164.328 612.358 164.032C612.086 163.736 611.694 163.588 611.182 163.588ZM614.592 162.772H619.596V163.672H617.604V169H616.548V163.672H614.592V162.772Z" fill="#262626"/>
<rect x="535" y="210" width="130" height="50" rx="10" fill="#D6E1FF"/>
<path d="M584.789 239.12C583.941 239.12 583.197 238.944 582.557 238.592C581.925 238.24 581.433 237.736 581.081 237.08C580.729 236.416 580.553 235.624 580.553 234.704C580.553 233.32 580.917 232.24 581.645 231.464C582.373 230.68 583.413 230.288 584.765 230.288C585.269 230.288 585.749 230.344 586.205 230.456C586.669 230.56 587.061 230.712 587.381 230.912V231.992C587.037 231.776 586.633 231.608 586.169 231.488C585.713 231.368 585.241 231.308 584.753 231.308C583.745 231.308 582.997 231.592 582.509 232.16C582.021 232.728 581.777 233.576 581.777 234.704C581.777 235.84 582.041 236.692 582.569 237.26C583.097 237.82 583.869 238.1 584.885 238.1C585.845 238.1 586.677 237.836 587.381 237.308V238.388C587.101 238.612 586.729 238.792 586.265 238.928C585.801 239.056 585.309 239.12 584.789 239.12ZM591.606 239.12C590.566 239.12 589.77 238.836 589.218 238.268C588.674 237.692 588.402 236.896 588.402 235.88C588.402 235.2 588.53 234.62 588.786 234.14C589.042 233.66 589.394 233.292 589.842 233.036C590.29 232.78 590.794 232.652 591.354 232.652C592.306 232.652 593.006 232.968 593.454 233.6C593.902 234.224 594.046 235.08 593.886 236.168H589.494C589.582 237.504 590.318 238.172 591.702 238.172C592.462 238.172 593.162 237.956 593.802 237.524V238.472C593.514 238.672 593.178 238.832 592.794 238.952C592.41 239.064 592.014 239.12 591.606 239.12ZM591.33 233.588C590.874 233.588 590.482 233.728 590.154 234.008C589.826 234.288 589.618 234.712 589.53 235.28H592.878C592.902 234.744 592.778 234.328 592.506 234.032C592.234 233.736 591.842 233.588 591.33 233.588ZM600.391 239H599.107L596.911 236.348H596.359V239H595.303V232.772H596.359V235.448H596.959L599.143 232.772H600.343L597.787 235.844L600.391 239ZM601.503 232.772H602.427L602.535 233.984C602.735 233.584 603.011 233.264 603.363 233.024C603.723 232.776 604.163 232.652 604.683 232.652C605.171 232.652 605.619 232.772 606.027 233.012C606.443 233.244 606.779 233.6 607.035 234.08C607.291 234.552 607.419 235.152 607.419 235.88C607.419 236.608 607.287 237.212 607.023 237.692C606.767 238.172 606.427 238.532 606.003 238.772C605.587 239.004 605.131 239.12 604.635 239.12C604.163 239.12 603.751 239.008 603.399 238.784C603.047 238.56 602.767 238.252 602.559 237.86V241.124H601.503V232.772ZM606.327 235.88C606.327 235.128 606.155 234.56 605.811 234.176C605.467 233.784 605.023 233.588 604.479 233.588C603.935 233.588 603.475 233.78 603.099 234.164C602.731 234.54 602.547 235.112 602.547 235.88C602.547 236.656 602.731 237.232 603.099 237.608C603.475 237.984 603.935 238.172 604.479 238.172C605.023 238.172 605.467 237.98 605.811 237.596C606.155 237.212 606.327 236.64 606.327 235.88ZM611.458 239.12C610.418 239.12 609.622 238.836 609.07 238.268C608.526 237.692 608.254 236.896 608.254 235.88C608.254 235.2 608.382 234.62 608.638 234.14C608.894 233.66 609.246 233.292 609.694 233.036C610.142 232.78 610.646 232.652 611.206 232.652C612.158 232.652 612.858 232.968 613.306 233.6C613.754 234.224 613.898 235.08 613.738 236.168H609.346C609.434 237.504 610.17 238.172 611.554 238.172C612.314 238.172 613.014 237.956 613.654 237.524V238.472C613.366 238.672 613.03 238.832 612.646 238.952C612.262 239.064 611.866 239.12 611.458 239.12ZM611.182 233.588C610.726 233.588 610.334 233.728 610.006 234.008C609.678 234.288 609.47 234.712 609.382 235.28H612.73C612.754 234.744 612.63 234.328 612.358 234.032C612.086 233.736 611.694 233.588 611.182 233.588ZM614.592 232.772H619.596V233.672H617.604V239H616.548V233.672H614.592V232.772Z" fill="#262626"/>
<path d="M578.414 94.396H579.542V101.98H583.73V103H578.414V94.396ZM587.459 103.12C586.891 103.12 586.379 102.996 585.923 102.748C585.475 102.492 585.119 102.124 584.855 101.644C584.591 101.156 584.459 100.568 584.459 99.88C584.459 99.192 584.591 98.608 584.855 98.128C585.119 97.648 585.475 97.284 585.923 97.036C586.379 96.78 586.891 96.652 587.459 96.652C588.035 96.652 588.551 96.78 589.007 97.036C589.463 97.284 589.823 97.648 590.087 98.128C590.351 98.608 590.483 99.192 590.483 99.88C590.483 100.568 590.351 101.156 590.087 101.644C589.823 102.124 589.463 102.492 589.007 102.748C588.551 102.996 588.035 103.12 587.459 103.12ZM587.459 102.172C588.019 102.172 588.483 101.988 588.851 101.62C589.219 101.244 589.403 100.664 589.403 99.88C589.403 99.096 589.219 98.52 588.851 98.152C588.483 97.776 588.019 97.588 587.459 97.588C586.907 97.588 586.447 97.776 586.079 98.152C585.719 98.52 585.539 99.096 585.539 99.88C585.539 100.664 585.719 101.244 586.079 101.62C586.447 101.988 586.907 102.172 587.459 102.172ZM594.458 103.12C593.49 103.12 592.726 102.836 592.166 102.268C591.606 101.692 591.326 100.896 591.326 99.88C591.326 98.864 591.61 98.072 592.178 97.504C592.746 96.936 593.522 96.652 594.506 96.652C594.882 96.652 595.234 96.696 595.562 96.784C595.89 96.864 596.154 96.984 596.354 97.144V98.092C595.81 97.756 595.198 97.588 594.518 97.588C593.798 97.588 593.266 97.78 592.922 98.164C592.578 98.54 592.406 99.112 592.406 99.88C592.406 100.648 592.57 101.224 592.898 101.608C593.234 101.984 593.754 102.172 594.458 102.172C595.138 102.172 595.77 102.008 596.354 101.68V102.628C595.834 102.956 595.202 103.12 594.458 103.12ZM602.729 103H601.445L599.249 100.348H598.697V103H597.641V94.396H598.697V99.448H599.297L601.481 96.772H602.681L600.125 99.844L602.729 103ZM603.594 94.396H604.65L604.626 97.984C604.834 97.584 605.114 97.264 605.466 97.024C605.818 96.776 606.254 96.652 606.774 96.652C607.262 96.652 607.71 96.772 608.118 97.012C608.534 97.244 608.87 97.6 609.126 98.08C609.382 98.552 609.51 99.152 609.51 99.88C609.51 100.608 609.378 101.212 609.114 101.692C608.858 102.172 608.518 102.532 608.094 102.772C607.678 103.004 607.222 103.12 606.726 103.12C606.246 103.12 605.826 103.004 605.466 102.772C605.114 102.54 604.834 102.224 604.626 101.824L604.59 103H603.594V94.396ZM608.418 99.88C608.418 99.128 608.246 98.56 607.902 98.176C607.558 97.784 607.114 97.588 606.57 97.588C606.026 97.588 605.566 97.78 605.19 98.164C604.822 98.54 604.638 99.112 604.638 99.88C604.638 100.656 604.822 101.232 605.19 101.608C605.566 101.984 606.026 102.172 606.57 102.172C607.114 102.172 607.558 101.98 607.902 101.596C608.246 101.212 608.418 100.64 608.418 99.88ZM613.346 103.12C612.778 103.12 612.266 102.996 611.81 102.748C611.362 102.492 611.006 102.124 610.742 101.644C610.478 101.156 610.346 100.568 610.346 99.88C610.346 99.192 610.478 98.608 610.742 98.128C611.006 97.648 611.362 97.284 611.81 97.036C612.266 96.78 612.778 96.652 613.346 96.652C613.922 96.652 614.438 96.78 614.894 97.036C615.35 97.284 615.71 97.648 615.974 98.128C616.238 98.608 616.37 99.192 616.37 99.88C616.37 100.568 616.238 101.156 615.974 101.644C615.71 102.124 615.35 102.492 614.894 102.748C614.438 102.996 613.922 103.12 613.346 103.12ZM613.346 102.172C613.906 102.172 614.37 101.988 614.738 101.62C615.106 101.244 615.29 100.664 615.29 99.88C615.29 99.096 615.106 98.52 614.738 98.152C614.37 97.776 613.906 97.588 613.346 97.588C612.794 97.588 612.334 97.776 611.966 98.152C611.606 98.52 611.426 99.096 611.426 99.88C611.426 100.664 611.606 101.244 611.966 101.62C612.334 101.988 612.794 102.172 613.346 102.172ZM617.003 96.772H618.227L619.715 98.968L621.215 96.772H622.307L620.243 99.748L622.415 103H621.191L619.523 100.528L617.843 103H616.739L618.995 99.772L617.003 96.772Z" fill="black"/>
<rect x="190" y="159" width="100" height="12" fill="white"/>
<path d="M290 165L280 170.774L280 159.226L290 165ZM281 166L190 166L190 164L281 164L281 166Z" fill="#4E496B"/>
<rect x="190" y="229" width="100" height="12" fill="white"/>
<path d="M290 235L280 240.774L280 229.226L290 235ZM281 236L190 236L190 234L281 234L281 236Z" fill="#4E496B"/>
<path d="M212.087 152.872C212.135 152.88 212.199 152.892 212.279 152.908C212.359 152.916 212.463 152.92 212.591 152.92C212.967 152.92 213.259 152.836 213.467 152.668C213.683 152.492 213.883 152.228 214.067 151.876L210.875 145.396H212.159L214.643 150.58L216.791 145.396H217.955L215.231 151.672C214.871 152.496 214.495 153.1 214.103 153.484C213.719 153.86 213.219 154.048 212.603 154.048C212.475 154.048 212.371 154.04 212.291 154.024C212.211 154.016 212.143 154.008 212.087 154V152.872ZM218.399 154V147.772H223.391V154H222.335V148.672H219.455V154H218.399ZM225.114 147.772H226.038L226.146 148.984C226.346 148.584 226.622 148.264 226.974 148.024C227.334 147.776 227.774 147.652 228.294 147.652C228.782 147.652 229.23 147.772 229.638 148.012C230.054 148.244 230.39 148.6 230.646 149.08C230.902 149.552 231.03 150.152 231.03 150.88C231.03 151.608 230.898 152.212 230.634 152.692C230.378 153.172 230.038 153.532 229.614 153.772C229.198 154.004 228.742 154.12 228.246 154.12C227.774 154.12 227.362 154.008 227.01 153.784C226.658 153.56 226.378 153.252 226.17 152.86V156.124H225.114V147.772ZM229.938 150.88C229.938 150.128 229.766 149.56 229.422 149.176C229.078 148.784 228.634 148.588 228.09 148.588C227.546 148.588 227.086 148.78 226.71 149.164C226.342 149.54 226.158 150.112 226.158 150.88C226.158 151.656 226.342 152.232 226.71 152.608C227.086 152.984 227.546 153.172 228.09 153.172C228.634 153.172 229.078 152.98 229.422 152.596C229.766 152.212 229.938 151.64 229.938 150.88ZM234.363 148.588C233.699 148.588 233.027 148.792 232.347 149.2V148.252C232.643 148.068 232.983 147.924 233.367 147.82C233.759 147.708 234.139 147.652 234.507 147.652C235.291 147.652 235.887 147.816 236.295 148.144C236.703 148.472 236.907 148.972 236.907 149.644V152.992C236.907 153.128 236.911 153.304 236.919 153.52C236.935 153.728 236.951 153.888 236.967 154H236.007C235.983 153.888 235.959 153.732 235.935 153.532C235.919 153.324 235.911 153.144 235.911 152.992L235.899 152.812C235.803 153.004 235.671 153.204 235.503 153.412C235.335 153.612 235.111 153.78 234.831 153.916C234.559 154.052 234.219 154.12 233.811 154.12C233.251 154.12 232.799 153.96 232.455 153.64C232.111 153.32 231.939 152.868 231.939 152.284C231.939 151.604 232.179 151.104 232.659 150.784C233.139 150.464 233.815 150.304 234.687 150.304H235.851V149.788C235.851 149.356 235.739 149.048 235.515 148.864C235.291 148.68 234.907 148.588 234.363 148.588ZM235.851 151.6V151.144H234.795C234.163 151.144 233.703 151.236 233.415 151.42C233.135 151.604 232.995 151.872 232.995 152.224C232.995 152.504 233.079 152.732 233.247 152.908C233.423 153.084 233.687 153.172 234.039 153.172C234.367 153.172 234.647 153.108 234.879 152.98C235.111 152.844 235.299 152.684 235.443 152.5C235.587 152.308 235.691 152.128 235.755 151.96C235.819 151.792 235.851 151.672 235.851 151.6ZM240.991 154H238.567V147.772H241.015C241.759 147.772 242.323 147.904 242.707 148.168C243.099 148.424 243.295 148.828 243.295 149.38C243.295 149.74 243.199 150.032 243.007 150.256C242.823 150.48 242.559 150.64 242.215 150.736C243.103 150.88 243.547 151.372 243.547 152.212C243.547 152.636 243.435 152.98 243.211 153.244C242.995 153.508 242.695 153.7 242.311 153.82C241.927 153.94 241.487 154 240.991 154ZM241.003 148.672H239.623V150.364H240.919C241.319 150.364 241.639 150.292 241.879 150.148C242.127 150.004 242.251 149.796 242.251 149.524C242.251 149.196 242.143 148.972 241.927 148.852C241.711 148.732 241.403 148.672 241.003 148.672ZM240.979 151.204H239.623V153.1H240.979C241.427 153.1 241.787 153.036 242.059 152.908C242.331 152.772 242.467 152.528 242.467 152.176C242.467 151.824 242.343 151.576 242.095 151.432C241.847 151.28 241.475 151.204 240.979 151.204ZM244.567 152.968C245.047 153.04 245.375 152.74 245.551 152.068C245.615 151.828 245.667 151.528 245.707 151.168C245.747 150.8 245.775 150.344 245.791 149.8C245.807 149.248 245.815 148.572 245.815 147.772H250.123V154H249.055V148.672H246.811C246.803 149.624 246.775 150.388 246.727 150.964C246.687 151.532 246.619 152.008 246.523 152.392C246.371 152.992 246.139 153.42 245.827 153.676C245.515 153.932 245.095 154.044 244.567 154.012V152.968ZM251.4 154L253.2 151.48C252.776 151.36 252.444 151.164 252.204 150.892C251.964 150.62 251.844 150.252 251.844 149.788C251.844 149.316 251.956 148.932 252.18 148.636C252.404 148.34 252.712 148.124 253.104 147.988C253.496 147.844 253.944 147.772 254.448 147.772H256.452V154H255.396V151.744H254.256L252.66 154H251.4ZM254.448 148.672C254 148.672 253.632 148.756 253.344 148.924C253.056 149.092 252.912 149.364 252.912 149.74C252.912 150.132 253.04 150.416 253.296 150.592C253.56 150.76 253.924 150.844 254.388 150.844H255.396V148.672H254.448ZM260.944 154.12C259.904 154.12 259.108 153.836 258.556 153.268C258.012 152.692 257.74 151.896 257.74 150.88C257.74 150.2 257.868 149.62 258.124 149.14C258.38 148.66 258.732 148.292 259.18 148.036C259.628 147.78 260.132 147.652 260.692 147.652C261.644 147.652 262.344 147.968 262.792 148.6C263.24 149.224 263.384 150.08 263.224 151.168H258.832C258.92 152.504 259.656 153.172 261.04 153.172C261.8 153.172 262.5 152.956 263.14 152.524V153.472C262.852 153.672 262.516 153.832 262.132 153.952C261.748 154.064 261.352 154.12 260.944 154.12ZM260.668 148.588C260.212 148.588 259.82 148.728 259.492 149.008C259.164 149.288 258.956 149.712 258.868 150.28H262.216C262.24 149.744 262.116 149.328 261.844 149.032C261.572 148.736 261.18 148.588 260.668 148.588ZM264.079 147.772H269.083V148.672H267.091V154H266.035V148.672H264.079V147.772Z" fill="black" fill-opacity="0.85"/>
<path d="M212.087 222.872C212.135 222.88 212.199 222.892 212.279 222.908C212.359 222.916 212.463 222.92 212.591 222.92C212.967 222.92 213.259 222.836 213.467 222.668C213.683 222.492 213.883 222.228 214.067 221.876L210.875 215.396H212.159L214.643 220.58L216.791 215.396H217.955L215.231 221.672C214.871 222.496 214.495 223.1 214.103 223.484C213.719 223.86 213.219 224.048 212.603 224.048C212.475 224.048 212.371 224.04 212.291 224.024C212.211 224.016 212.143 224.008 212.087 224V222.872ZM218.399 224V217.772H223.391V224H222.335V218.672H219.455V224H218.399ZM225.114 217.772H226.038L226.146 218.984C226.346 218.584 226.622 218.264 226.974 218.024C227.334 217.776 227.774 217.652 228.294 217.652C228.782 217.652 229.23 217.772 229.638 218.012C230.054 218.244 230.39 218.6 230.646 219.08C230.902 219.552 231.03 220.152 231.03 220.88C231.03 221.608 230.898 222.212 230.634 222.692C230.378 223.172 230.038 223.532 229.614 223.772C229.198 224.004 228.742 224.12 228.246 224.12C227.774 224.12 227.362 224.008 227.01 223.784C226.658 223.56 226.378 223.252 226.17 222.86V226.124H225.114V217.772ZM229.938 220.88C229.938 220.128 229.766 219.56 229.422 219.176C229.078 218.784 228.634 218.588 228.09 218.588C227.546 218.588 227.086 218.78 226.71 219.164C226.342 219.54 226.158 220.112 226.158 220.88C226.158 221.656 226.342 222.232 226.71 222.608C227.086 222.984 227.546 223.172 228.09 223.172C228.634 223.172 229.078 222.98 229.422 222.596C229.766 222.212 229.938 221.64 229.938 220.88ZM234.363 218.588C233.699 218.588 233.027 218.792 232.347 219.2V218.252C232.643 218.068 232.983 217.924 233.367 217.82C233.759 217.708 234.139 217.652 234.507 217.652C235.291 217.652 235.887 217.816 236.295 218.144C236.703 218.472 236.907 218.972 236.907 219.644V222.992C236.907 223.128 236.911 223.304 236.919 223.52C236.935 223.728 236.951 223.888 236.967 224H236.007C235.983 223.888 235.959 223.732 235.935 223.532C235.919 223.324 235.911 223.144 235.911 222.992L235.899 222.812C235.803 223.004 235.671 223.204 235.503 223.412C235.335 223.612 235.111 223.78 234.831 223.916C234.559 224.052 234.219 224.12 233.811 224.12C233.251 224.12 232.799 223.96 232.455 223.64C232.111 223.32 231.939 222.868 231.939 222.284C231.939 221.604 232.179 221.104 232.659 220.784C233.139 220.464 233.815 220.304 234.687 220.304H235.851V219.788C235.851 219.356 235.739 219.048 235.515 218.864C235.291 218.68 234.907 218.588 234.363 218.588ZM235.851 221.6V221.144H234.795C234.163 221.144 233.703 221.236 233.415 221.42C233.135 221.604 232.995 221.872 232.995 222.224C232.995 222.504 233.079 222.732 233.247 222.908C233.423 223.084 233.687 223.172 234.039 223.172C234.367 223.172 234.647 223.108 234.879 222.98C235.111 222.844 235.299 222.684 235.443 222.5C235.587 222.308 235.691 222.128 235.755 221.96C235.819 221.792 235.851 221.672 235.851 221.6ZM240.991 224H238.567V217.772H241.015C241.759 217.772 242.323 217.904 242.707 218.168C243.099 218.424 243.295 218.828 243.295 219.38C243.295 219.74 243.199 220.032 243.007 220.256C242.823 220.48 242.559 220.64 242.215 220.736C243.103 220.88 243.547 221.372 243.547 222.212C243.547 222.636 243.435 222.98 243.211 223.244C242.995 223.508 242.695 223.7 242.311 223.82C241.927 223.94 241.487 224 240.991 224ZM241.003 218.672H239.623V220.364H240.919C241.319 220.364 241.639 220.292 241.879 220.148C242.127 220.004 242.251 219.796 242.251 219.524C242.251 219.196 242.143 218.972 241.927 218.852C241.711 218.732 241.403 218.672 241.003 218.672ZM240.979 221.204H239.623V223.1H240.979C241.427 223.1 241.787 223.036 242.059 222.908C242.331 222.772 242.467 222.528 242.467 222.176C242.467 221.824 242.343 221.576 242.095 221.432C241.847 221.28 241.475 221.204 240.979 221.204ZM244.567 222.968C245.047 223.04 245.375 222.74 245.551 222.068C245.615 221.828 245.667 221.528 245.707 221.168C245.747 220.8 245.775 220.344 245.791 219.8C245.807 219.248 245.815 218.572 245.815 217.772H250.123V224H249.055V218.672H246.811C246.803 219.624 246.775 220.388 246.727 220.964C246.687 221.532 246.619 222.008 246.523 222.392C246.371 222.992 246.139 223.42 245.827 223.676C245.515 223.932 245.095 224.044 244.567 224.012V222.968ZM251.4 224L253.2 221.48C252.776 221.36 252.444 221.164 252.204 220.892C251.964 220.62 251.844 220.252 251.844 219.788C251.844 219.316 251.956 218.932 252.18 218.636C252.404 218.34 252.712 218.124 253.104 217.988C253.496 217.844 253.944 217.772 254.448 217.772H256.452V224H255.396V221.744H254.256L252.66 224H251.4ZM254.448 218.672C254 218.672 253.632 218.756 253.344 218.924C253.056 219.092 252.912 219.364 252.912 219.74C252.912 220.132 253.04 220.416 253.296 220.592C253.56 220.76 253.924 220.844 254.388 220.844H255.396V218.672H254.448ZM260.944 224.12C259.904 224.12 259.108 223.836 258.556 223.268C258.012 222.692 257.74 221.896 257.74 220.88C257.74 220.2 257.868 219.62 258.124 219.14C258.38 218.66 258.732 218.292 259.18 218.036C259.628 217.78 260.132 217.652 260.692 217.652C261.644 217.652 262.344 217.968 262.792 218.6C263.24 219.224 263.384 220.08 263.224 221.168H258.832C258.92 222.504 259.656 223.172 261.04 223.172C261.8 223.172 262.5 222.956 263.14 222.524V223.472C262.852 223.672 262.516 223.832 262.132 223.952C261.748 224.064 261.352 224.12 260.944 224.12ZM260.668 218.588C260.212 218.588 259.82 218.728 259.492 219.008C259.164 219.288 258.956 219.712 258.868 220.28H262.216C262.24 219.744 262.116 219.328 261.844 219.032C261.572 218.736 261.18 218.588 260.668 218.588ZM264.079 217.772H269.083V218.672H267.091V224H266.035V218.672H264.079V217.772Z" fill="black" fill-opacity="0.85"/>
<rect x="430" y="159" width="100" height="12" fill="white"/>
<path d="M530 165L520 170.774L520 159.226L530 165ZM521 166L430 166L430 164L521 164L521 166Z" fill="#4E496B"/>
<rect x="430" y="229" width="100" height="12" fill="white"/>
<path d="M530 235L520 240.774L520 229.226L530 235ZM521 236L430 236L430 234L521 234L521 236Z" fill="#4E496B"/>
<path d="M452.087 152.872C452.135 152.88 452.199 152.892 452.279 152.908C452.359 152.916 452.463 152.92 452.591 152.92C452.967 152.92 453.259 152.836 453.467 152.668C453.683 152.492 453.883 152.228 454.067 151.876L450.875 145.396H452.159L454.643 150.58L456.791 145.396H457.955L455.231 151.672C454.871 152.496 454.495 153.1 454.103 153.484C453.719 153.86 453.219 154.048 452.603 154.048C452.475 154.048 452.371 154.04 452.291 154.024C452.211 154.016 452.143 154.008 452.087 154V152.872ZM458.399 154V147.772H463.391V154H462.335V148.672H459.455V154H458.399ZM465.114 147.772H466.038L466.146 148.984C466.346 148.584 466.622 148.264 466.974 148.024C467.334 147.776 467.774 147.652 468.294 147.652C468.782 147.652 469.23 147.772 469.638 148.012C470.054 148.244 470.39 148.6 470.646 149.08C470.902 149.552 471.03 150.152 471.03 150.88C471.03 151.608 470.898 152.212 470.634 152.692C470.378 153.172 470.038 153.532 469.614 153.772C469.198 154.004 468.742 154.12 468.246 154.12C467.774 154.12 467.362 154.008 467.01 153.784C466.658 153.56 466.378 153.252 466.17 152.86V156.124H465.114V147.772ZM469.938 150.88C469.938 150.128 469.766 149.56 469.422 149.176C469.078 148.784 468.634 148.588 468.09 148.588C467.546 148.588 467.086 148.78 466.71 149.164C466.342 149.54 466.158 150.112 466.158 150.88C466.158 151.656 466.342 152.232 466.71 152.608C467.086 152.984 467.546 153.172 468.09 153.172C468.634 153.172 469.078 152.98 469.422 152.596C469.766 152.212 469.938 151.64 469.938 150.88ZM474.363 148.588C473.699 148.588 473.027 148.792 472.347 149.2V148.252C472.643 148.068 472.983 147.924 473.367 147.82C473.759 147.708 474.139 147.652 474.507 147.652C475.291 147.652 475.887 147.816 476.295 148.144C476.703 148.472 476.907 148.972 476.907 149.644V152.992C476.907 153.128 476.911 153.304 476.919 153.52C476.935 153.728 476.951 153.888 476.967 154H476.007C475.983 153.888 475.959 153.732 475.935 153.532C475.919 153.324 475.911 153.144 475.911 152.992L475.899 152.812C475.803 153.004 475.671 153.204 475.503 153.412C475.335 153.612 475.111 153.78 474.831 153.916C474.559 154.052 474.219 154.12 473.811 154.12C473.251 154.12 472.799 153.96 472.455 153.64C472.111 153.32 471.939 152.868 471.939 152.284C471.939 151.604 472.179 151.104 472.659 150.784C473.139 150.464 473.815 150.304 474.687 150.304H475.851V149.788C475.851 149.356 475.739 149.048 475.515 148.864C475.291 148.68 474.907 148.588 474.363 148.588ZM475.851 151.6V151.144H474.795C474.163 151.144 473.703 151.236 473.415 151.42C473.135 151.604 472.995 151.872 472.995 152.224C472.995 152.504 473.079 152.732 473.247 152.908C473.423 153.084 473.687 153.172 474.039 153.172C474.367 153.172 474.647 153.108 474.879 152.98C475.111 152.844 475.299 152.684 475.443 152.5C475.587 152.308 475.691 152.128 475.755 151.96C475.819 151.792 475.851 151.672 475.851 151.6ZM480.991 154H478.567V147.772H481.015C481.759 147.772 482.323 147.904 482.707 148.168C483.099 148.424 483.295 148.828 483.295 149.38C483.295 149.74 483.199 150.032 483.007 150.256C482.823 150.48 482.559 150.64 482.215 150.736C483.103 150.88 483.547 151.372 483.547 152.212C483.547 152.636 483.435 152.98 483.211 153.244C482.995 153.508 482.695 153.7 482.311 153.82C481.927 153.94 481.487 154 480.991 154ZM481.003 148.672H479.623V150.364H480.919C481.319 150.364 481.639 150.292 481.879 150.148C482.127 150.004 482.251 149.796 482.251 149.524C482.251 149.196 482.143 148.972 481.927 148.852C481.711 148.732 481.403 148.672 481.003 148.672ZM480.979 151.204H479.623V153.1H480.979C481.427 153.1 481.787 153.036 482.059 152.908C482.331 152.772 482.467 152.528 482.467 152.176C482.467 151.824 482.343 151.576 482.095 151.432C481.847 151.28 481.475 151.204 480.979 151.204ZM484.567 152.968C485.047 153.04 485.375 152.74 485.551 152.068C485.615 151.828 485.667 151.528 485.707 151.168C485.747 150.8 485.775 150.344 485.791 149.8C485.807 149.248 485.815 148.572 485.815 147.772H490.123V154H489.055V148.672H486.811C486.803 149.624 486.775 150.388 486.727 150.964C486.687 151.532 486.619 152.008 486.523 152.392C486.371 152.992 486.139 153.42 485.827 153.676C485.515 153.932 485.095 154.044 484.567 154.012V152.968ZM491.4 154L493.2 151.48C492.776 151.36 492.444 151.164 492.204 150.892C491.964 150.62 491.844 150.252 491.844 149.788C491.844 149.316 491.956 148.932 492.18 148.636C492.404 148.34 492.712 148.124 493.104 147.988C493.496 147.844 493.944 147.772 494.448 147.772H496.452V154H495.396V151.744H494.256L492.66 154H491.4ZM494.448 148.672C494 148.672 493.632 148.756 493.344 148.924C493.056 149.092 492.912 149.364 492.912 149.74C492.912 150.132 493.04 150.416 493.296 150.592C493.56 150.76 493.924 150.844 494.388 150.844H495.396V148.672H494.448ZM500.944 154.12C499.904 154.12 499.108 153.836 498.556 153.268C498.012 152.692 497.74 151.896 497.74 150.88C497.74 150.2 497.868 149.62 498.124 149.14C498.38 148.66 498.732 148.292 499.18 148.036C499.628 147.78 500.132 147.652 500.692 147.652C501.644 147.652 502.344 147.968 502.792 148.6C503.24 149.224 503.384 150.08 503.224 151.168H498.832C498.92 152.504 499.656 153.172 501.04 153.172C501.8 153.172 502.5 152.956 503.14 152.524V153.472C502.852 153.672 502.516 153.832 502.132 153.952C501.748 154.064 501.352 154.12 500.944 154.12ZM500.668 148.588C500.212 148.588 499.82 148.728 499.492 149.008C499.164 149.288 498.956 149.712 498.868 150.28H502.216C502.24 149.744 502.116 149.328 501.844 149.032C501.572 148.736 501.18 148.588 500.668 148.588ZM504.079 147.772H509.083V148.672H507.091V154H506.035V148.672H504.079V147.772Z" fill="black" fill-opacity="0.85"/>
<path d="M452.087 222.872C452.135 222.88 452.199 222.892 452.279 222.908C452.359 222.916 452.463 222.92 452.591 222.92C452.967 222.92 453.259 222.836 453.467 222.668C453.683 222.492 453.883 222.228 454.067 221.876L450.875 215.396H452.159L454.643 220.58L456.791 215.396H457.955L455.231 221.672C454.871 222.496 454.495 223.1 454.103 223.484C453.719 223.86 453.219 224.048 452.603 224.048C452.475 224.048 452.371 224.04 452.291 224.024C452.211 224.016 452.143 224.008 452.087 224V222.872ZM458.399 224V217.772H463.391V224H462.335V218.672H459.455V224H458.399ZM465.114 217.772H466.038L466.146 218.984C466.346 218.584 466.622 218.264 466.974 218.024C467.334 217.776 467.774 217.652 468.294 217.652C468.782 217.652 469.23 217.772 469.638 218.012C470.054 218.244 470.39 218.6 470.646 219.08C470.902 219.552 471.03 220.152 471.03 220.88C471.03 221.608 470.898 222.212 470.634 222.692C470.378 223.172 470.038 223.532 469.614 223.772C469.198 224.004 468.742 224.12 468.246 224.12C467.774 224.12 467.362 224.008 467.01 223.784C466.658 223.56 466.378 223.252 466.17 222.86V226.124H465.114V217.772ZM469.938 220.88C469.938 220.128 469.766 219.56 469.422 219.176C469.078 218.784 468.634 218.588 468.09 218.588C467.546 218.588 467.086 218.78 466.71 219.164C466.342 219.54 466.158 220.112 466.158 220.88C466.158 221.656 466.342 222.232 466.71 222.608C467.086 222.984 467.546 223.172 468.09 223.172C468.634 223.172 469.078 222.98 469.422 222.596C469.766 222.212 469.938 221.64 469.938 220.88ZM474.363 218.588C473.699 218.588 473.027 218.792 472.347 219.2V218.252C472.643 218.068 472.983 217.924 473.367 217.82C473.759 217.708 474.139 217.652 474.507 217.652C475.291 217.652 475.887 217.816 476.295 218.144C476.703 218.472 476.907 218.972 476.907 219.644V222.992C476.907 223.128 476.911 223.304 476.919 223.52C476.935 223.728 476.951 223.888 476.967 224H476.007C475.983 223.888 475.959 223.732 475.935 223.532C475.919 223.324 475.911 223.144 475.911 222.992L475.899 222.812C475.803 223.004 475.671 223.204 475.503 223.412C475.335 223.612 475.111 223.78 474.831 223.916C474.559 224.052 474.219 224.12 473.811 224.12C473.251 224.12 472.799 223.96 472.455 223.64C472.111 223.32 471.939 222.868 471.939 222.284C471.939 221.604 472.179 221.104 472.659 220.784C473.139 220.464 473.815 220.304 474.687 220.304H475.851V219.788C475.851 219.356 475.739 219.048 475.515 218.864C475.291 218.68 474.907 218.588 474.363 218.588ZM475.851 221.6V221.144H474.795C474.163 221.144 473.703 221.236 473.415 221.42C473.135 221.604 472.995 221.872 472.995 222.224C472.995 222.504 473.079 222.732 473.247 222.908C473.423 223.084 473.687 223.172 474.039 223.172C474.367 223.172 474.647 223.108 474.879 222.98C475.111 222.844 475.299 222.684 475.443 222.5C475.587 222.308 475.691 222.128 475.755 221.96C475.819 221.792 475.851 221.672 475.851 221.6ZM480.991 224H478.567V217.772H481.015C481.759 217.772 482.323 217.904 482.707 218.168C483.099 218.424 483.295 218.828 483.295 219.38C483.295 219.74 483.199 220.032 483.007 220.256C482.823 220.48 482.559 220.64 482.215 220.736C483.103 220.88 483.547 221.372 483.547 222.212C483.547 222.636 483.435 222.98 483.211 223.244C482.995 223.508 482.695 223.7 482.311 223.82C481.927 223.94 481.487 224 480.991 224ZM481.003 218.672H479.623V220.364H480.919C481.319 220.364 481.639 220.292 481.879 220.148C482.127 220.004 482.251 219.796 482.251 219.524C482.251 219.196 482.143 218.972 481.927 218.852C481.711 218.732 481.403 218.672 481.003 218.672ZM480.979 221.204H479.623V223.1H480.979C481.427 223.1 481.787 223.036 482.059 222.908C482.331 222.772 482.467 222.528 482.467 222.176C482.467 221.824 482.343 221.576 482.095 221.432C481.847 221.28 481.475 221.204 480.979 221.204ZM484.567 222.968C485.047 223.04 485.375 222.74 485.551 222.068C485.615 221.828 485.667 221.528 485.707 221.168C485.747 220.8 485.775 220.344 485.791 219.8C485.807 219.248 485.815 218.572 485.815 217.772H490.123V224H489.055V218.672H486.811C486.803 219.624 486.775 220.388 486.727 220.964C486.687 221.532 486.619 222.008 486.523 222.392C486.371 222.992 486.139 223.42 485.827 223.676C485.515 223.932 485.095 224.044 484.567 224.012V222.968ZM491.4 224L493.2 221.48C492.776 221.36 492.444 221.164 492.204 220.892C491.964 220.62 491.844 220.252 491.844 219.788C491.844 219.316 491.956 218.932 492.18 218.636C492.404 218.34 492.712 218.124 493.104 217.988C493.496 217.844 493.944 217.772 494.448 217.772H496.452V224H495.396V221.744H494.256L492.66 224H491.4ZM494.448 218.672C494 218.672 493.632 218.756 493.344 218.924C493.056 219.092 492.912 219.364 492.912 219.74C492.912 220.132 493.04 220.416 493.296 220.592C493.56 220.76 493.924 220.844 494.388 220.844H495.396V218.672H494.448ZM500.944 224.12C499.904 224.12 499.108 223.836 498.556 223.268C498.012 222.692 497.74 221.896 497.74 220.88C497.74 220.2 497.868 219.62 498.124 219.14C498.38 218.66 498.732 218.292 499.18 218.036C499.628 217.78 500.132 217.652 500.692 217.652C501.644 217.652 502.344 217.968 502.792 218.6C503.24 219.224 503.384 220.08 503.224 221.168H498.832C498.92 222.504 499.656 223.172 501.04 223.172C501.8 223.172 502.5 222.956 503.14 222.524V223.472C502.852 223.672 502.516 223.832 502.132 223.952C501.748 224.064 501.352 224.12 500.944 224.12ZM500.668 218.588C500.212 218.588 499.82 218.728 499.492 219.008C499.164 219.288 498.956 219.712 498.868 220.28H502.216C502.24 219.744 502.116 219.328 501.844 219.032C501.572 218.736 501.18 218.588 500.668 218.588ZM504.079 217.772H509.083V218.672H507.091V224H506.035V218.672H504.079V217.772Z" fill="black" fill-opacity="0.85"/>
<defs>
<filter id="filter0_d_1_34" x="7" y="12" width="706" height="296" filterUnits="userSpaceOnUse" color-interpolation-filters="sRGB">
<feFlood flood-opacity="0" result="BackgroundImageFix"/>
<feColorMatrix in="SourceAlpha" type="matrix" values="0 0 0 0 0 0 0 0 0 0 0 0 0 0 0 0 0 0 127 0" result="hardAlpha"/>
<feOffset/>
<feGaussianBlur stdDeviation="4"/>
<feColorMatrix type="matrix" values="0 0 0 0 0.321569 0 0 0 0 0.509804 0 0 0 0 1 0 0 0 0.2 0"/>
<feBlend mode="normal" in2="BackgroundImageFix" result="effect1_dropShadow_1_34"/>
<feBlend mode="normal" in="SourceGraphic" in2="effect1_dropShadow_1_34" result="shape"/>
</filter>
</defs>
</svg>
