<svg xmlns="http://www.w3.org/2000/svg" width="700" height="365" fill="none"><g clip-path="url(#a)"><g filter="url(#b)"><rect width="137" height="353" x="12" y="5" fill="#fff" rx="5"/></g><rect width="407" height="353" x="282" y="5" fill="#fff" rx="5"/><path fill="#000" d="M427.129 23.268V30h-1.342v-6.732h-2.398v-1.155h6.127v1.155h-2.387Zm5.094 6.842c-.403 0-.777-.066-1.122-.198a2.638 2.638 0 0 1-.902-.572 2.845 2.845 0 0 1-.594-.935 3.554 3.554 0 0 1-.209-1.265c0-.477.07-.898.209-1.265a2.72 2.72 0 0 1 .594-.924c.257-.257.558-.447.902-.572a3.114 3.114 0 0 1 1.122-.198c.404 0 .778.066 1.122.198.345.125.646.315.902.572.257.25.459.557.605.924.147.367.22.788.22 1.265 0 .477-.073.898-.22 1.265a2.73 2.73 0 0 1-.605.935c-.256.25-.557.44-.902.572a3.106 3.106 0 0 1-1.122.198Zm0-1.067c.44 0 .803-.154 1.089-.462.294-.308.44-.788.44-1.441 0-.645-.146-1.122-.44-1.43a1.406 1.406 0 0 0-1.089-.473 1.43 1.43 0 0 0-1.089.473c-.286.308-.429.785-.429 1.43 0 .653.143 1.133.429 1.441.294.308.657.462 1.089.462Zm8.453.957H439.4v-2.376c-.191.14-.415.25-.671.33-.257.08-.55.121-.88.121-.646 0-1.141-.172-1.485-.517-.345-.352-.517-.884-.517-1.595v-1.672h1.287v1.628c0 .41.088.697.264.858.176.161.44.242.792.242.22 0 .432-.03.638-.088.212-.066.403-.161.572-.286v-2.354h1.276V30Zm3.186-2.321h-.495V30h-1.276v-5.709h1.276v2.354h.539l1.815-2.354h1.342l-2.156 2.75L447.151 30h-1.507l-1.782-2.321Zm7.319 1.32c-.059.132-.14.264-.242.396a1.734 1.734 0 0 1-.363.363c-.14.103-.308.187-.506.253a2.194 2.194 0 0 1-.693.099c-.25 0-.481-.037-.693-.11a1.546 1.546 0 0 1-.561-.308 1.585 1.585 0 0 1-.374-.517 1.885 1.885 0 0 1-.132-.726c0-.623.231-1.089.693-1.397.462-.315 1.114-.473 1.958-.473h.869v-.352c0-.374-.096-.63-.286-.77-.191-.147-.506-.22-.946-.22-.374 0-.726.055-1.056.165a4.629 4.629 0 0 0-.858.363v-1.067a4.62 4.62 0 0 1 .902-.352c.374-.11.781-.165 1.221-.165.733 0 1.298.154 1.694.462.403.3.605.785.605 1.452V29.307c.007.08.011.165.011.253l.022.253c.007.073.014.136.022.187h-1.177a5.03 5.03 0 0 1-.066-.429 14.742 14.742 0 0 1-.033-.495l-.011-.077Zm-1.452.121c.271 0 .495-.055.671-.165.183-.117.33-.25.44-.396a1.55 1.55 0 0 0 .231-.451c.044-.147.066-.25.066-.308v-.385h-.792c-.506 0-.877.08-1.111.242a.743.743 0 0 0-.352.66c0 .25.069.447.209.594.146.14.359.209.638.209Zm6.477-4.829h4.851V30h-1.276v-4.675h-2.299V30h-1.276v-5.709Zm9.43 5.819c-.432 0-.806-.095-1.122-.286a2.284 2.284 0 0 1-.748-.792v2.915h-1.276v-7.656h1.166l.088 1.012a2.2 2.2 0 0 1 .759-.814c.316-.205.701-.308 1.155-.308.338 0 .657.062.957.187.308.117.576.3.803.55.228.242.407.55.539.924.14.367.209.8.209 1.298 0 .506-.069.946-.209 1.32a2.62 2.62 0 0 1-.55.924 2.242 2.242 0 0 1-.803.55c-.308.117-.63.176-.968.176Zm-.308-1.067c.455 0 .822-.154 1.1-.462.286-.315.429-.796.429-1.441 0-.638-.143-1.115-.429-1.43-.278-.315-.641-.473-1.089-.473-.227 0-.436.04-.627.121-.19.073-.359.19-.506.352a1.78 1.78 0 0 0-.33.605c-.08.235-.121.51-.121.825 0 .323.041.605.121.847.081.235.191.433.33.594.14.154.305.271.495.352.198.073.407.11.627.11Zm5.184-.77 2.64-3.982h1.254V30h-1.265v-3.96L470.523 30h-1.276v-5.709h1.265v3.982Zm7.96 1.837c-.462 0-.876-.066-1.243-.198a2.697 2.697 0 0 1-.935-.583 2.608 2.608 0 0 1-.594-.935 3.52 3.52 0 0 1-.209-1.254c0-.462.07-.876.209-1.243a2.5 2.5 0 0 1 1.54-1.507 3.57 3.57 0 0 1 1.254-.209c.396 0 .741.044 1.034.132.301.088.539.198.715.33v1.056a2.891 2.891 0 0 0-.748-.341 3.17 3.17 0 0 0-.924-.121c-1.181 0-1.771.634-1.771 1.903 0 1.269.579 1.903 1.738 1.903.374 0 .693-.04.957-.121a3.85 3.85 0 0 0 .748-.33v1.056a3.105 3.105 0 0 1-.715.33c-.286.088-.638.132-1.056.132Zm6.187-.176a6.18 6.18 0 0 1-.407.913 2.418 2.418 0 0 1-.495.66 1.703 1.703 0 0 1-.649.407 2.337 2.337 0 0 1-.858.143c-.359 0-.667-.059-.924-.176v-1.144c.103.08.231.143.385.187.154.044.323.066.506.066.25 0 .455-.055.616-.165.162-.103.308-.26.44-.473l-2.299-6.061h1.375l1.595 4.433 1.584-4.433h1.188l-2.057 5.643Zm5.531-4.609V30h-1.276v-4.675h-1.727v-1.034h4.763v1.034h-1.76Zm5.222 4.785c-.462 0-.876-.066-1.243-.198a2.707 2.707 0 0 1-.935-.583 2.635 2.635 0 0 1-.594-.935 3.52 3.52 0 0 1-.209-1.254c0-.462.07-.876.209-1.243a2.487 2.487 0 0 1 1.54-1.507 3.57 3.57 0 0 1 1.254-.209c.396 0 .741.044 1.034.132.301.088.539.198.715.33v1.056a2.876 2.876 0 0 0-.748-.341 3.17 3.17 0 0 0-.924-.121c-1.18 0-1.771.634-1.771 1.903 0 1.269.58 1.903 1.738 1.903.374 0 .693-.04.957-.121.272-.088.521-.198.748-.33v1.056c-.19.125-.429.235-.715.33-.286.088-.638.132-1.056.132Zm5.499-4.785V30h-1.276v-4.675h-1.727v-1.034h4.763v1.034h-1.76Zm2.733-1.034h2.332c1.444 0 2.167.477 2.167 1.43 0 .352-.099.63-.297.836-.191.198-.473.348-.847.451.462.066.806.209 1.034.429.227.22.341.532.341.935 0 .279-.059.52-.176.726a1.432 1.432 0 0 1-.495.506 2.324 2.324 0 0 1-.759.297 4.625 4.625 0 0 1-.99.099h-2.31v-5.709Zm1.265.979v1.353h.935c.308 0 .557-.055.748-.165a.562.562 0 0 0 .286-.506c0-.257-.085-.433-.253-.528-.162-.103-.4-.154-.715-.154h-1.001Zm0 2.255v1.496h.979c.352 0 .634-.051.847-.154.22-.103.33-.293.33-.572 0-.279-.099-.477-.297-.594-.191-.117-.495-.176-.913-.176h-.946Zm5.983.748 2.64-3.982h1.254V30h-1.265v-3.96L510.903 30h-1.276v-5.709h1.265v3.982Zm5.265-2.112c0-.308.058-.58.176-.814.117-.235.278-.429.484-.583a2.06 2.06 0 0 1 .759-.352c.3-.08.63-.121.99-.121h2.123V30h-1.276v-1.936h-.814L517.246 30h-1.43l1.573-2.211c-.396-.117-.701-.308-.913-.572-.213-.264-.319-.616-.319-1.056Zm3.256.891v-1.749h-.748c-.352 0-.642.066-.869.198-.22.132-.33.352-.33.66 0 .315.099.543.297.682.205.14.495.209.869.209h.781Zm6.95 4.477a6.573 6.573 0 0 1-1.265-2.222 8.586 8.586 0 0 1-.407-2.684c0-.477.033-.946.099-1.408.074-.462.18-.906.319-1.331.14-.425.312-.821.517-1.188.213-.374.459-.711.737-1.012h1.287c-.293.286-.55.616-.77.99a6.816 6.816 0 0 0-.539 1.188 8.373 8.373 0 0 0-.319 1.32 9.944 9.944 0 0 0-.099 1.408c0 .96.14 1.859.418 2.695a6.432 6.432 0 0 0 1.309 2.244h-1.287Zm5.782-8.261V30h-1.342v-6.732h-2.398v-1.155h6.127v1.155h-2.387Zm3.514-1.155h6.171V30h-1.342v-6.732h-3.498V30h-1.331v-7.887Zm8.677 9.416a6.399 6.399 0 0 0 1.254-2.222 8.36 8.36 0 0 0 .418-2.684c0-.477-.037-.946-.11-1.408a7.85 7.85 0 0 0-.308-1.331 6.178 6.178 0 0 0-.528-1.188 5.046 5.046 0 0 0-.726-1.012h-1.287c.293.286.546.616.759.99.22.367.4.763.539 1.188.147.418.253.858.319 1.32.073.462.11.931.11 1.408a8.46 8.46 0 0 1-.418 2.695 6.432 6.432 0 0 1-1.309 2.244h1.287Z"/><rect width="105" height="283" x="299" y="58" fill="#FFDADA" rx="5"/><path fill="#18123D" d="M317.155 130.11a4.136 4.136 0 0 1-1.485-.264 3.42 3.42 0 0 1-1.199-.792 3.76 3.76 0 0 1-.803-1.276c-.19-.506-.286-1.089-.286-1.749 0-.66.096-1.239.286-1.738.198-.506.466-.924.803-1.254.338-.337.737-.59 1.199-.759a4.136 4.136 0 0 1 1.485-.264c.536 0 1.034.088 1.496.264.462.169.862.422 1.199.759.338.337.602.759.792 1.265.191.499.286 1.078.286 1.738 0 .653-.095 1.232-.286 1.738-.19.506-.454.931-.792 1.276a3.41 3.41 0 0 1-1.199.792c-.462.176-.96.264-1.496.264Zm0-.935c.382 0 .734-.055 1.056-.165a2.18 2.18 0 0 0 .836-.539c.242-.249.429-.572.561-.968.14-.396.209-.876.209-1.441 0-.565-.069-1.045-.209-1.441-.132-.396-.319-.715-.561-.957a2.03 2.03 0 0 0-.836-.539 3.07 3.07 0 0 0-1.056-.176c-.381 0-.733.059-1.056.176-.322.11-.605.29-.847.539-.234.242-.421.561-.561.957-.132.396-.198.876-.198 1.441 0 .565.066 1.045.198 1.441.14.396.327.719.561.968.242.242.525.422.847.539.323.11.675.165 1.056.165Zm10.17-2.035c0 .477-.073.898-.22 1.265a2.683 2.683 0 0 1-.583.935c-.242.249-.531.44-.869.572a2.991 2.991 0 0 1-1.1.198c-.403 0-.773-.066-1.111-.198a2.295 2.295 0 0 1-.869-.627 3.042 3.042 0 0 1-.572-1.056c-.132-.425-.198-.928-.198-1.507 0-.477.015-.931.044-1.364.03-.433.096-.832.198-1.199a3.57 3.57 0 0 1 .44-1.001 2.42 2.42 0 0 1 1.364-.99 4.22 4.22 0 0 1 .594-.132c.206-.029.411-.048.616-.055l.605-.022c.294-.022.539-.059.737-.11.198-.051.374-.121.528-.209v.88a1.674 1.674 0 0 1-.517.22c-.176.037-.392.07-.649.099-.418.037-.803.066-1.155.088a2.26 2.26 0 0 0-.946.242 1.71 1.71 0 0 0-.781.924c-.146.403-.238.884-.275 1.441.382-.88 1.1-1.32 2.156-1.32.36 0 .693.066 1.001.198.316.125.587.312.814.561.235.249.418.557.55.924.132.359.198.774.198 1.243Zm-2.772 2.101c.257 0 .492-.04.704-.121.22-.088.411-.216.572-.385.162-.176.286-.396.374-.66.088-.264.132-.576.132-.935 0-.359-.044-.671-.132-.935a1.694 1.694 0 0 0-.374-.649 1.439 1.439 0 0 0-.572-.385 1.82 1.82 0 0 0-.704-.132c-.506 0-.927.169-1.265.506-.33.337-.495.858-.495 1.562 0 .367.044.686.132.957.088.264.209.484.363.66.162.176.349.308.561.396.213.081.448.121.704.121Zm6.327.869a2.96 2.96 0 0 1-1.089-.198 2.532 2.532 0 0 1-.88-.572 2.782 2.782 0 0 1-.572-.935 3.532 3.532 0 0 1-.209-1.265 3.5 3.5 0 0 1 .209-1.254c.139-.374.33-.686.572-.935.249-.249.542-.44.88-.572a2.96 2.96 0 0 1 1.089-.198c.396 0 .762.066 1.1.198.337.132.627.323.869.572.249.249.443.561.583.935.146.367.22.785.22 1.254a3.4 3.4 0 0 1-.22 1.265c-.14.367-.334.678-.583.935-.242.249-.532.44-.869.572a2.995 2.995 0 0 1-1.1.198Zm0-.869c.256 0 .491-.04.704-.121.22-.088.41-.216.572-.385.161-.176.286-.396.374-.66.088-.264.132-.576.132-.935 0-.359-.044-.671-.132-.935a1.707 1.707 0 0 0-.374-.649 1.446 1.446 0 0 0-.572-.385 1.828 1.828 0 0 0-.704-.132 1.82 1.82 0 0 0-.704.132c-.213.081-.4.209-.561.385a1.788 1.788 0 0 0-.363.649 2.966 2.966 0 0 0-.132.935c0 .359.044.671.132.935.088.264.209.484.363.66.161.169.348.297.561.385.212.081.447.121.704.121Zm6.823.869c-.44 0-.822-.103-1.144-.308a2.229 2.229 0 0 1-.759-.847v2.992h-.968v-7.656h.847l.099 1.111c.19-.374.447-.671.77-.891.322-.22.722-.33 1.199-.33.33 0 .645.062.946.187.308.117.575.301.803.55.234.242.418.55.55.924.139.367.209.799.209 1.298 0 .506-.07.946-.209 1.32-.14.367-.327.675-.561.924a2.36 2.36 0 0 1-.814.55 2.705 2.705 0 0 1-.968.176Zm-.143-.869c.506 0 .913-.172 1.221-.517.315-.352.473-.88.473-1.584 0-.689-.158-1.21-.473-1.562-.308-.359-.715-.539-1.221-.539-.25 0-.484.044-.704.132-.213.088-.4.22-.561.396a1.911 1.911 0 0 0-.374.649 2.925 2.925 0 0 0-.132.924c0 .352.044.66.132.924.095.264.22.484.374.66.161.176.348.308.561.396.22.081.454.121.704.121Zm6.619.693a6.617 6.617 0 0 1-.418.902 3.017 3.017 0 0 1-.495.671 1.783 1.783 0 0 1-.616.407 2.014 2.014 0 0 1-.781.143c-.147 0-.283-.011-.407-.033a1.227 1.227 0 0 1-.341-.088v-.935c.08.059.183.103.308.132.124.037.26.055.407.055.271 0 .495-.066.671-.198.176-.125.344-.326.506-.605l-2.321-6.094h1.067l1.815 4.818 1.804-4.818h.935l-2.134 5.643Zm2.451-.759a1.25 1.25 0 0 0 .484-.583c.117-.264.209-.598.275-1.001.066-.403.11-.88.132-1.43.029-.55.055-1.173.077-1.87h3.927v4.884h.858v2.453h-.847l-.121-1.628h-4.246l-.099 1.628h-.869v-2.453h.429Zm3.927 0v-4.059h-2.09c-.037 1.078-.106 1.943-.209 2.596-.095.645-.264 1.133-.506 1.463h2.805Zm5.073.935a2.96 2.96 0 0 1-1.089-.198 2.532 2.532 0 0 1-.88-.572 2.782 2.782 0 0 1-.572-.935 3.532 3.532 0 0 1-.209-1.265 3.5 3.5 0 0 1 .209-1.254c.139-.374.33-.686.572-.935.249-.249.542-.44.88-.572a2.96 2.96 0 0 1 1.089-.198c.396 0 .762.066 1.1.198.337.132.627.323.869.572.249.249.443.561.583.935.146.367.22.785.22 1.254a3.4 3.4 0 0 1-.22 1.265c-.14.367-.334.678-.583.935-.242.249-.532.44-.869.572a2.995 2.995 0 0 1-1.1.198Zm0-.869c.256 0 .491-.04.704-.121.22-.088.41-.216.572-.385.161-.176.286-.396.374-.66.088-.264.132-.576.132-.935 0-.359-.044-.671-.132-.935a1.707 1.707 0 0 0-.374-.649 1.446 1.446 0 0 0-.572-.385 1.828 1.828 0 0 0-.704-.132 1.82 1.82 0 0 0-.704.132c-.213.081-.4.209-.561.385a1.788 1.788 0 0 0-.363.649 2.966 2.966 0 0 0-.132.935c0 .359.044.671.132.935.088.264.209.484.363.66.161.169.348.297.561.385.212.081.447.121.704.121Zm3.952-4.95h2.134c.689 0 1.21.121 1.562.363.352.235.528.605.528 1.111 0 .337-.088.609-.264.814-.169.198-.411.341-.726.429.814.132 1.221.583 1.221 1.353 0 .293-.059.546-.176.759a1.463 1.463 0 0 1-.484.506 2.167 2.167 0 0 1-.748.286 4.634 4.634 0 0 1-.935.088h-2.112v-5.709Zm.968.825v1.551h1.078c.366 0 .66-.066.88-.198.227-.132.341-.323.341-.572 0-.301-.099-.506-.297-.616-.198-.11-.481-.165-.847-.165h-1.155Zm0 2.321v1.738h1.133c.205 0 .388-.011.55-.033.168-.029.311-.077.429-.143a.718.718 0 0 0 .286-.264.78.78 0 0 0 .099-.407c0-.33-.114-.561-.341-.693-.228-.132-.569-.198-1.023-.198h-1.133Zm8.284 1.474c-.066.132-.15.271-.253.418a1.923 1.923 0 0 1-.935.671c-.205.073-.447.11-.726.11-.513 0-.928-.143-1.243-.429-.315-.293-.473-.711-.473-1.254 0-.623.216-1.082.649-1.375.44-.293 1.063-.44 1.87-.44h1.067v-.473c0-.396-.103-.678-.308-.847-.205-.169-.557-.253-1.056-.253-.352 0-.686.059-1.001.176-.315.11-.598.238-.847.385v-.869c.205-.125.48-.246.825-.363a3.43 3.43 0 0 1 1.155-.187c.719 0 1.265.15 1.639.451.374.293.561.752.561 1.375v3.3c.007.081.011.165.011.253l.022.253c.007.073.015.136.022.187h-.88a5.068 5.068 0 0 1-.066-.429 6.417 6.417 0 0 1-.022-.495l-.011-.165Zm-1.705.33c.301 0 .557-.062.77-.187.213-.125.385-.268.517-.429a1.91 1.91 0 0 0 .286-.484c.059-.161.088-.275.088-.341v-.418h-.968c-.579 0-1.001.084-1.265.253-.257.161-.385.407-.385.737a.87.87 0 0 0 .231.627c.154.161.396.242.726.242Zm7.88-1.771h-2.761V130h-.968v-5.709h.968v2.354h2.761v-2.354h.968V130h-.968v-2.53Zm3.523 1.21 3.047-4.389h.979V130h-.968v-4.378L378.554 130h-.99v-5.709h.968v4.389Zm10.149.836c-.08.059-.179.121-.297.187a3.4 3.4 0 0 1-.429.198 3.59 3.59 0 0 1-.572.143 3.537 3.537 0 0 1-.715.066c-.96 0-1.69-.26-2.189-.781-.498-.521-.748-1.25-.748-2.189 0-.462.066-.876.198-1.243.14-.367.33-.675.572-.924.242-.257.528-.451.858-.583.33-.139.69-.209 1.078-.209.411 0 .778.07 1.1.209.323.139.587.345.792.616.213.271.356.609.429 1.012.081.396.081.858 0 1.386h-4.026c.037.616.22 1.078.55 1.386.33.301.822.451 1.474.451.44 0 .818-.062 1.133-.187.316-.125.58-.26.792-.407v.869Zm-2.266-4.477c-.418 0-.777.128-1.078.385-.3.257-.491.645-.572 1.166h3.069c.03-.528-.091-.917-.363-1.166-.271-.257-.623-.385-1.056-.385Zm-75.124 18.071c-.388 0-.751-.066-1.089-.198a2.55 2.55 0 0 1-.88-.572 2.798 2.798 0 0 1-.572-.935 3.554 3.554 0 0 1-.209-1.265c0-.469.07-.887.209-1.254.14-.374.33-.686.572-.935.25-.249.543-.44.88-.572a2.967 2.967 0 0 1 1.089-.198c.396 0 .763.066 1.1.198.338.132.627.323.869.572.25.249.444.561.583.935.147.367.22.785.22 1.254 0 .477-.073.898-.22 1.265a2.683 2.683 0 0 1-.583.935c-.242.249-.531.44-.869.572a2.991 2.991 0 0 1-1.1.198Zm0-.869c.257 0 .492-.04.704-.121.22-.088.411-.216.572-.385.162-.176.286-.396.374-.66.088-.264.132-.576.132-.935 0-.359-.044-.671-.132-.935a1.694 1.694 0 0 0-.374-.649 1.439 1.439 0 0 0-.572-.385 1.82 1.82 0 0 0-.704-.132c-.256 0-.491.044-.704.132a1.467 1.467 0 0 0-.561.385 1.788 1.788 0 0 0-.363.649 2.966 2.966 0 0 0-.132.935c0 .359.044.671.132.935.088.264.209.484.363.66.162.169.349.297.561.385.213.081.448.121.704.121Zm3.952-4.95h4.576V143h-.968v-4.884h-2.64V143h-.968v-5.709Zm10.699 5.225a3.083 3.083 0 0 1-.726.385c-.169.059-.36.106-.572.143a3.544 3.544 0 0 1-.715.066c-.961 0-1.691-.26-2.189-.781-.499-.521-.748-1.25-.748-2.189 0-.462.066-.876.198-1.243.139-.367.33-.675.572-.924.242-.257.528-.451.858-.583.33-.139.689-.209 1.078-.209.41 0 .777.07 1.1.209.322.139.586.345.792.616.212.271.355.609.429 1.012.08.396.08.858 0 1.386h-4.026c.036.616.22 1.078.55 1.386.33.301.821.451 1.474.451.44 0 .817-.062 1.133-.187.315-.125.579-.26.792-.407v.869Zm-2.266-4.477c-.418 0-.778.128-1.078.385-.301.257-.492.645-.572 1.166h3.069c.029-.528-.092-.917-.363-1.166-.272-.257-.624-.385-1.056-.385Zm6.512 5.071c-.44 0-.821-.103-1.144-.308a2.245 2.245 0 0 1-.759-.847v2.992h-.968v-7.656h.847l.099 1.111a2.35 2.35 0 0 1 .77-.891c.323-.22.723-.33 1.199-.33.33 0 .646.062.946.187.308.117.576.301.803.55.235.242.418.55.55.924.14.367.209.799.209 1.298 0 .506-.069.946-.209 1.32a2.742 2.742 0 0 1-.561.924 2.35 2.35 0 0 1-.814.55 2.7 2.7 0 0 1-.968.176Zm-.143-.869c.506 0 .913-.172 1.221-.517.316-.352.473-.88.473-1.584 0-.689-.157-1.21-.473-1.562-.308-.359-.715-.539-1.221-.539a1.88 1.88 0 0 0-.704.132 1.58 1.58 0 0 0-.561.396 1.928 1.928 0 0 0-.374.649 2.925 2.925 0 0 0-.132.924c0 .352.044.66.132.924.096.264.22.484.374.66.162.176.349.308.561.396.22.081.455.121.704.121Zm7.158-.33c-.066.132-.15.271-.253.418a1.897 1.897 0 0 1-.935.671c-.205.073-.447.11-.726.11-.513 0-.927-.143-1.243-.429-.315-.293-.473-.711-.473-1.254 0-.623.217-1.082.649-1.375.44-.293 1.064-.44 1.87-.44h1.067v-.473c0-.396-.102-.678-.308-.847-.205-.169-.557-.253-1.056-.253-.352 0-.685.059-1.001.176-.315.11-.597.238-.847.385v-.869c.206-.125.481-.246.825-.363a3.43 3.43 0 0 1 1.155-.187c.719 0 1.265.15 1.639.451.374.293.561.752.561 1.375v3.3c.008.081.011.165.011.253l.022.253.022.187h-.88a5.068 5.068 0 0 1-.066-.429 6.966 6.966 0 0 1-.022-.495l-.011-.165Zm-1.705.33c.301 0 .558-.062.77-.187.213-.125.385-.268.517-.429a1.88 1.88 0 0 0 .286-.484c.059-.161.088-.275.088-.341v-.418h-.968c-.579 0-1.001.084-1.265.253-.256.161-.385.407-.385.737a.87.87 0 0 0 .231.627c.154.161.396.242.726.242Zm6.397-4.125V143h-.968v-4.884h-1.793v-.825h4.587v.825h-1.826Zm5.125 4.994a2.96 2.96 0 0 1-1.089-.198 2.541 2.541 0 0 1-.88-.572 2.782 2.782 0 0 1-.572-.935 3.554 3.554 0 0 1-.209-1.265c0-.469.07-.887.209-1.254.139-.374.33-.686.572-.935.249-.249.543-.44.88-.572a2.96 2.96 0 0 1 1.089-.198c.396 0 .763.066 1.1.198.337.132.627.323.869.572.249.249.444.561.583.935.147.367.22.785.22 1.254 0 .477-.073.898-.22 1.265a2.697 2.697 0 0 1-.583.935c-.242.249-.532.44-.869.572a2.991 2.991 0 0 1-1.1.198Zm0-.869c.257 0 .491-.04.704-.121.22-.088.411-.216.572-.385.161-.176.286-.396.374-.66.088-.264.132-.576.132-.935 0-.359-.044-.671-.132-.935a1.707 1.707 0 0 0-.374-.649 1.439 1.439 0 0 0-.572-.385 1.824 1.824 0 0 0-.704-.132c-.257 0-.491.044-.704.132-.213.081-.4.209-.561.385a1.788 1.788 0 0 0-.363.649 2.966 2.966 0 0 0-.132.935c0 .359.044.671.132.935.088.264.209.484.363.66.161.169.348.297.561.385.213.081.447.121.704.121Zm6.823.869c-.44 0-.822-.103-1.144-.308a2.229 2.229 0 0 1-.759-.847v2.992h-.968v-7.656h.847l.099 1.111c.19-.374.447-.671.77-.891.322-.22.722-.33 1.199-.33.33 0 .645.062.946.187.308.117.575.301.803.55.234.242.418.55.55.924.139.367.209.799.209 1.298 0 .506-.07.946-.209 1.32-.14.367-.327.675-.561.924a2.36 2.36 0 0 1-.814.55 2.705 2.705 0 0 1-.968.176Zm-.143-.869c.506 0 .913-.172 1.221-.517.315-.352.473-.88.473-1.584 0-.689-.158-1.21-.473-1.562-.308-.359-.715-.539-1.221-.539-.25 0-.484.044-.704.132-.213.088-.4.22-.561.396a1.911 1.911 0 0 0-.374.649 2.925 2.925 0 0 0-.132.924c0 .352.044.66.132.924.095.264.22.484.374.66.161.176.348.308.561.396.22.081.454.121.704.121Zm7.158-.33a3.452 3.452 0 0 1-.253.418 1.923 1.923 0 0 1-.935.671c-.206.073-.448.11-.726.11-.514 0-.928-.143-1.243-.429-.316-.293-.473-.711-.473-1.254 0-.623.216-1.082.649-1.375.44-.293 1.063-.44 1.87-.44h1.067v-.473c0-.396-.103-.678-.308-.847-.206-.169-.558-.253-1.056-.253-.352 0-.686.059-1.001.176-.316.11-.598.238-.847.385v-.869c.205-.125.48-.246.825-.363a3.43 3.43 0 0 1 1.155-.187c.718 0 1.265.15 1.639.451.374.293.561.752.561 1.375v3.3c.007.081.011.165.011.253l.022.253c.007.073.014.136.022.187h-.88a5.068 5.068 0 0 1-.066-.429 6.417 6.417 0 0 1-.022-.495l-.011-.165Zm-1.705.33c.3 0 .557-.062.77-.187a1.92 1.92 0 0 0 .517-.429 1.91 1.91 0 0 0 .286-.484c.058-.161.088-.275.088-.341v-.418h-.968c-.58 0-1.001.084-1.265.253-.257.161-.385.407-.385.737a.87.87 0 0 0 .231.627c.154.161.396.242.726.242Zm9.032.869c-.44 0-.84-.066-1.199-.198a2.62 2.62 0 0 1-.902-.583 2.562 2.562 0 0 1-.572-.935 3.692 3.692 0 0 1-.198-1.254c0-.462.066-.876.198-1.243.139-.367.333-.675.583-.924a2.4 2.4 0 0 1 .913-.583 3.361 3.361 0 0 1 1.221-.209c.352 0 .674.04.968.121.293.073.535.183.726.33v.869a2.564 2.564 0 0 0-.792-.341 3.254 3.254 0 0 0-.891-.121c-.668 0-1.159.172-1.474.517-.308.345-.462.873-.462 1.584 0 .711.15 1.239.451 1.584.3.345.777.517 1.43.517.344 0 .66-.04.946-.121.293-.088.557-.198.792-.33v.869a3.371 3.371 0 0 1-1.738.451Zm3.036-5.819h2.134c.689 0 1.21.121 1.562.363.352.235.528.605.528 1.111 0 .337-.088.609-.264.814-.169.198-.411.341-.726.429.814.132 1.221.583 1.221 1.353 0 .293-.059.546-.176.759a1.463 1.463 0 0 1-.484.506 2.167 2.167 0 0 1-.748.286 4.634 4.634 0 0 1-.935.088h-2.112v-5.709Zm.968.825v1.551h1.078c.366 0 .66-.066.88-.198.227-.132.341-.323.341-.572 0-.301-.099-.506-.297-.616-.198-.11-.481-.165-.847-.165h-1.155Zm0 2.321v1.738h1.133c.205 0 .388-.011.55-.033.168-.029.311-.077.429-.143a.718.718 0 0 0 .286-.264.78.78 0 0 0 .099-.407c0-.33-.114-.561-.341-.693-.228-.132-.569-.198-1.023-.198h-1.133Zm4.779-1.298c0-.323.059-.598.176-.825a1.49 1.49 0 0 1 .495-.572 2.18 2.18 0 0 1 .759-.341c.293-.073.612-.11.957-.11h1.837V143h-.968v-2.068h-1.045L377.716 143h-1.155l1.65-2.31c-.396-.117-.704-.297-.924-.539-.213-.242-.319-.579-.319-1.012Zm3.256.968v-1.991h-.869c-.411 0-.748.077-1.012.231-.264.154-.396.403-.396.748 0 .359.117.62.352.781.235.154.568.231 1.001.231h.924Zm6.603 1.232c0 .323-.066.598-.198.825-.124.22-.297.403-.517.55-.22.139-.476.238-.77.297a3.996 3.996 0 0 1-.902.099c-.418 0-.788-.044-1.111-.132a2.572 2.572 0 0 1-.748-.319v-.869c.228.139.499.249.814.33a4.11 4.11 0 0 0 1.023.121c.418 0 .767-.066 1.045-.198.286-.139.429-.374.429-.704 0-.323-.121-.55-.363-.682-.234-.132-.597-.198-1.089-.198h-.759v-.781h.792c.404 0 .712-.073.924-.22.213-.147.319-.359.319-.638a.573.573 0 0 0-.11-.363.676.676 0 0 0-.275-.242 1.161 1.161 0 0 0-.418-.132 2.673 2.673 0 0 0-.495-.044c-.337 0-.652.04-.946.121a3.007 3.007 0 0 0-.781.341v-.869a2.78 2.78 0 0 1 .737-.319 3.898 3.898 0 0 1 1.067-.132c.697 0 1.221.132 1.573.396.36.264.539.645.539 1.144 0 .374-.102.667-.308.88-.198.213-.48.359-.847.44.455.059.796.202 1.023.429.235.227.352.517.352.869Zm2.388.341 3.047-4.389h.979V143h-.968v-4.378L389.237 143h-.99v-5.709h.968v4.389Zm-48.658 8.611h2.134c.69 0 1.21.121 1.562.363.352.235.528.605.528 1.111 0 .337-.088.609-.264.814-.168.198-.41.341-.726.429.814.132 1.221.583 1.221 1.353 0 .293-.058.546-.176.759a1.445 1.445 0 0 1-.484.506 2.151 2.151 0 0 1-.748.286 4.627 4.627 0 0 1-.935.088h-2.112v-5.709Zm.968.825v1.551h1.078c.367 0 .66-.066.88-.198.228-.132.341-.323.341-.572 0-.301-.099-.506-.297-.616-.198-.11-.48-.165-.847-.165h-1.155Zm0 2.321v1.738h1.133c.206 0 .389-.011.55-.033.169-.029.312-.077.429-.143a.711.711 0 0 0 .286-.264.78.78 0 0 0 .099-.407c0-.33-.113-.561-.341-.693-.227-.132-.568-.198-1.023-.198h-1.133Zm10.371-4.367V156h-1.045v-6.93h-2.431v-.957h5.907v.957h-2.431Zm3.682-.957h5.929V156h-1.045v-6.941h-3.85V156h-1.034v-7.887Z"/><path fill="#A8EFBC" d="M350.996 111c11.045 0 20-8.954 20-20s-8.955-20-20-20c-11.046 0-20 8.954-20 20s8.954 20 20 20Z"/><path fill="#fff" d="M352.389 86.03h2.728l-4-4.97-4 4.97h2.788v10.424h-2.788l4 4.97 4-4.97h-2.728V86.03Z"/><path fill="#fff" d="M361.359 90.03h-2.606v-2.788l-4.97 4 4.97 4v-2.727h2.606V90.03ZM340.935 89.788h2.606V87l4.97 4-4.97 4v-2.727h-2.606v-2.485Z"/><rect width="105" height="283" x="567" y="58" fill="#DAF4F2" rx="5"/><path fill="#18123D" d="M585.155 130.11a4.136 4.136 0 0 1-1.485-.264 3.42 3.42 0 0 1-1.199-.792 3.76 3.76 0 0 1-.803-1.276c-.19-.506-.286-1.089-.286-1.749 0-.66.096-1.239.286-1.738.198-.506.466-.924.803-1.254.338-.337.737-.59 1.199-.759a4.136 4.136 0 0 1 1.485-.264c.536 0 1.034.088 1.496.264.462.169.862.422 1.199.759.338.337.602.759.792 1.265.191.499.286 1.078.286 1.738 0 .653-.095 1.232-.286 1.738-.19.506-.454.931-.792 1.276a3.41 3.41 0 0 1-1.199.792c-.462.176-.96.264-1.496.264Zm0-.935c.382 0 .734-.055 1.056-.165a2.18 2.18 0 0 0 .836-.539c.242-.249.429-.572.561-.968.14-.396.209-.876.209-1.441 0-.565-.069-1.045-.209-1.441-.132-.396-.319-.715-.561-.957a2.03 2.03 0 0 0-.836-.539 3.07 3.07 0 0 0-1.056-.176c-.381 0-.733.059-1.056.176-.322.11-.605.29-.847.539-.234.242-.421.561-.561.957-.132.396-.198.876-.198 1.441 0 .565.066 1.045.198 1.441.14.396.327.719.561.968.242.242.525.422.847.539.323.11.675.165 1.056.165Zm10.17-2.035c0 .477-.073.898-.22 1.265a2.683 2.683 0 0 1-.583.935c-.242.249-.531.44-.869.572a2.991 2.991 0 0 1-1.1.198c-.403 0-.773-.066-1.111-.198a2.295 2.295 0 0 1-.869-.627 3.042 3.042 0 0 1-.572-1.056c-.132-.425-.198-.928-.198-1.507 0-.477.015-.931.044-1.364.03-.433.096-.832.198-1.199a3.57 3.57 0 0 1 .44-1.001 2.42 2.42 0 0 1 1.364-.99 4.22 4.22 0 0 1 .594-.132c.206-.029.411-.048.616-.055l.605-.022c.294-.022.539-.059.737-.11.198-.051.374-.121.528-.209v.88a1.674 1.674 0 0 1-.517.22c-.176.037-.392.07-.649.099-.418.037-.803.066-1.155.088a2.26 2.26 0 0 0-.946.242 1.71 1.71 0 0 0-.781.924c-.146.403-.238.884-.275 1.441.382-.88 1.1-1.32 2.156-1.32.36 0 .693.066 1.001.198.316.125.587.312.814.561.235.249.418.557.55.924.132.359.198.774.198 1.243Zm-2.772 2.101c.257 0 .492-.04.704-.121.22-.088.411-.216.572-.385.162-.176.286-.396.374-.66.088-.264.132-.576.132-.935 0-.359-.044-.671-.132-.935a1.694 1.694 0 0 0-.374-.649 1.439 1.439 0 0 0-.572-.385 1.82 1.82 0 0 0-.704-.132c-.506 0-.927.169-1.265.506-.33.337-.495.858-.495 1.562 0 .367.044.686.132.957.088.264.209.484.363.66.162.176.349.308.561.396.213.081.448.121.704.121Zm6.327.869a2.96 2.96 0 0 1-1.089-.198 2.532 2.532 0 0 1-.88-.572 2.782 2.782 0 0 1-.572-.935 3.532 3.532 0 0 1-.209-1.265 3.5 3.5 0 0 1 .209-1.254c.139-.374.33-.686.572-.935.249-.249.542-.44.88-.572a2.96 2.96 0 0 1 1.089-.198c.396 0 .762.066 1.1.198.337.132.627.323.869.572.249.249.443.561.583.935.146.367.22.785.22 1.254a3.4 3.4 0 0 1-.22 1.265c-.14.367-.334.678-.583.935-.242.249-.532.44-.869.572a2.995 2.995 0 0 1-1.1.198Zm0-.869c.256 0 .491-.04.704-.121.22-.088.41-.216.572-.385.161-.176.286-.396.374-.66.088-.264.132-.576.132-.935 0-.359-.044-.671-.132-.935a1.707 1.707 0 0 0-.374-.649 1.446 1.446 0 0 0-.572-.385 1.828 1.828 0 0 0-.704-.132 1.82 1.82 0 0 0-.704.132c-.213.081-.4.209-.561.385a1.788 1.788 0 0 0-.363.649 2.966 2.966 0 0 0-.132.935c0 .359.044.671.132.935.088.264.209.484.363.66.161.169.348.297.561.385.212.081.447.121.704.121Zm6.823.869c-.44 0-.822-.103-1.144-.308a2.229 2.229 0 0 1-.759-.847v2.992h-.968v-7.656h.847l.099 1.111c.19-.374.447-.671.77-.891.322-.22.722-.33 1.199-.33.33 0 .645.062.946.187.308.117.575.301.803.55.234.242.418.55.55.924.139.367.209.799.209 1.298 0 .506-.07.946-.209 1.32-.14.367-.327.675-.561.924a2.36 2.36 0 0 1-.814.55 2.705 2.705 0 0 1-.968.176Zm-.143-.869c.506 0 .913-.172 1.221-.517.315-.352.473-.88.473-1.584 0-.689-.158-1.21-.473-1.562-.308-.359-.715-.539-1.221-.539-.25 0-.484.044-.704.132-.213.088-.4.22-.561.396a1.911 1.911 0 0 0-.374.649 2.925 2.925 0 0 0-.132.924c0 .352.044.66.132.924.095.264.22.484.374.66.161.176.348.308.561.396.22.081.454.121.704.121Zm6.619.693a6.617 6.617 0 0 1-.418.902 3.017 3.017 0 0 1-.495.671 1.783 1.783 0 0 1-.616.407 2.014 2.014 0 0 1-.781.143c-.147 0-.283-.011-.407-.033a1.227 1.227 0 0 1-.341-.088v-.935c.08.059.183.103.308.132.124.037.26.055.407.055.271 0 .495-.066.671-.198.176-.125.344-.326.506-.605l-2.321-6.094h1.067l1.815 4.818 1.804-4.818h.935l-2.134 5.643Zm2.451-.759a1.25 1.25 0 0 0 .484-.583c.117-.264.209-.598.275-1.001.066-.403.11-.88.132-1.43.029-.55.055-1.173.077-1.87h3.927v4.884h.858v2.453h-.847l-.121-1.628h-4.246l-.099 1.628h-.869v-2.453h.429Zm3.927 0v-4.059h-2.09c-.037 1.078-.106 1.943-.209 2.596-.095.645-.264 1.133-.506 1.463h2.805Zm5.073.935a2.96 2.96 0 0 1-1.089-.198 2.532 2.532 0 0 1-.88-.572 2.782 2.782 0 0 1-.572-.935 3.532 3.532 0 0 1-.209-1.265 3.5 3.5 0 0 1 .209-1.254c.139-.374.33-.686.572-.935.249-.249.542-.44.88-.572a2.96 2.96 0 0 1 1.089-.198c.396 0 .762.066 1.1.198.337.132.627.323.869.572.249.249.443.561.583.935.146.367.22.785.22 1.254a3.4 3.4 0 0 1-.22 1.265c-.14.367-.334.678-.583.935-.242.249-.532.44-.869.572a2.995 2.995 0 0 1-1.1.198Zm0-.869c.256 0 .491-.04.704-.121.22-.088.41-.216.572-.385.161-.176.286-.396.374-.66.088-.264.132-.576.132-.935 0-.359-.044-.671-.132-.935a1.707 1.707 0 0 0-.374-.649 1.446 1.446 0 0 0-.572-.385 1.828 1.828 0 0 0-.704-.132 1.82 1.82 0 0 0-.704.132c-.213.081-.4.209-.561.385a1.788 1.788 0 0 0-.363.649 2.966 2.966 0 0 0-.132.935c0 .359.044.671.132.935.088.264.209.484.363.66.161.169.348.297.561.385.212.081.447.121.704.121Zm3.952-4.95h2.134c.689 0 1.21.121 1.562.363.352.235.528.605.528 1.111 0 .337-.088.609-.264.814-.169.198-.411.341-.726.429.814.132 1.221.583 1.221 1.353 0 .293-.059.546-.176.759a1.463 1.463 0 0 1-.484.506 2.167 2.167 0 0 1-.748.286 4.634 4.634 0 0 1-.935.088h-2.112v-5.709Zm.968.825v1.551h1.078c.366 0 .66-.066.88-.198.227-.132.341-.323.341-.572 0-.301-.099-.506-.297-.616-.198-.11-.481-.165-.847-.165h-1.155Zm0 2.321v1.738h1.133c.205 0 .388-.011.55-.033.168-.029.311-.077.429-.143a.718.718 0 0 0 .286-.264.78.78 0 0 0 .099-.407c0-.33-.114-.561-.341-.693-.228-.132-.569-.198-1.023-.198h-1.133Zm8.284 1.474c-.066.132-.15.271-.253.418a1.923 1.923 0 0 1-.935.671c-.205.073-.447.11-.726.11-.513 0-.928-.143-1.243-.429-.315-.293-.473-.711-.473-1.254 0-.623.216-1.082.649-1.375.44-.293 1.063-.44 1.87-.44h1.067v-.473c0-.396-.103-.678-.308-.847-.205-.169-.557-.253-1.056-.253-.352 0-.686.059-1.001.176-.315.11-.598.238-.847.385v-.869c.205-.125.48-.246.825-.363a3.43 3.43 0 0 1 1.155-.187c.719 0 1.265.15 1.639.451.374.293.561.752.561 1.375v3.3c.007.081.011.165.011.253l.022.253c.007.073.015.136.022.187h-.88a5.068 5.068 0 0 1-.066-.429 6.417 6.417 0 0 1-.022-.495l-.011-.165Zm-1.705.33c.301 0 .557-.062.77-.187.213-.125.385-.268.517-.429a1.91 1.91 0 0 0 .286-.484c.059-.161.088-.275.088-.341v-.418h-.968c-.579 0-1.001.084-1.265.253-.257.161-.385.407-.385.737a.87.87 0 0 0 .231.627c.154.161.396.242.726.242Zm7.88-1.771h-2.761V130h-.968v-5.709h.968v2.354h2.761v-2.354h.968V130h-.968v-2.53Zm3.523 1.21 3.047-4.389h.979V130h-.968v-4.378L646.554 130h-.99v-5.709h.968v4.389Zm10.149.836c-.08.059-.179.121-.297.187a3.4 3.4 0 0 1-.429.198 3.59 3.59 0 0 1-.572.143 3.537 3.537 0 0 1-.715.066c-.96 0-1.69-.26-2.189-.781-.498-.521-.748-1.25-.748-2.189 0-.462.066-.876.198-1.243.14-.367.33-.675.572-.924.242-.257.528-.451.858-.583.33-.139.69-.209 1.078-.209.411 0 .778.07 1.1.209.323.139.587.345.792.616.213.271.356.609.429 1.012.081.396.081.858 0 1.386h-4.026c.037.616.22 1.078.55 1.386.33.301.822.451 1.474.451.44 0 .818-.062 1.133-.187.316-.125.58-.26.792-.407v.869Zm-2.266-4.477c-.418 0-.777.128-1.078.385-.3.257-.491.645-.572 1.166h3.069c.03-.528-.091-.917-.363-1.166-.271-.257-.623-.385-1.056-.385Zm-50.789 14.54V143h-1.056v-3.388l-2.695-4.499h1.188l2.068 3.586 2.112-3.586h1.056l-2.673 4.466Zm6.798 3.531a4.415 4.415 0 0 1-1.595-.275 3.473 3.473 0 0 1-1.232-.792 3.608 3.608 0 0 1-.781-1.276c-.184-.506-.275-1.074-.275-1.705 0-.638.084-1.206.253-1.705.168-.499.418-.92.748-1.265.33-.352.733-.62 1.21-.803.484-.183 1.034-.275 1.65-.275.535 0 1.004.059 1.408.176.403.11.733.242.99.396v.99a3.655 3.655 0 0 0-1.144-.473 5.363 5.363 0 0 0-1.265-.154c-.932 0-1.621.26-2.068.781-.44.513-.66 1.291-.66 2.332 0 1.049.238 1.83.715 2.343.484.513 1.195.77 2.134.77a4.23 4.23 0 0 0 1.177-.165c.388-.11.759-.297 1.111-.561v.99c-.213.169-.525.323-.935.462-.404.139-.884.209-1.441.209Zm6.244-5.819h2.134c.689 0 1.21.121 1.562.363.352.235.528.605.528 1.111 0 .337-.088.609-.264.814-.169.198-.411.341-.726.429.814.132 1.221.583 1.221 1.353 0 .293-.059.546-.176.759a1.463 1.463 0 0 1-.484.506 2.167 2.167 0 0 1-.748.286 4.634 4.634 0 0 1-.935.088h-2.112v-5.709Zm.968.825v1.551h1.078c.366 0 .66-.066.88-.198.227-.132.341-.323.341-.572 0-.301-.099-.506-.297-.616-.198-.11-.481-.165-.847-.165h-1.155Zm0 2.321v1.738h1.133c.205 0 .388-.011.55-.033.168-.029.311-.077.429-.143a.718.718 0 0 0 .286-.264.78.78 0 0 0 .099-.407c0-.33-.114-.561-.341-.693-.228-.132-.569-.198-1.023-.198h-1.133Zm10.371-4.367V143h-1.045v-6.93h-2.431v-.957h5.907v.957h-2.431Zm3.681-.957h5.929V143h-1.045v-6.941h-3.85V143h-1.034v-7.887Z"/><path fill="#6FCBFF" d="M618.996 111c11.045 0 20-8.954 20-20s-8.955-20-20-20c-11.046 0-20 8.954-20 20s8.954 20 20 20Z"/><path fill="#fff" d="M620.389 86.03h2.728l-4-4.97-4 4.97h2.788v10.424h-2.788l4 4.97 4-4.97h-2.728V86.03Z"/><path fill="#fff" d="M629.359 90.03h-2.606v-2.788l-4.97 4 4.97 4v-2.727h2.606V90.03ZM608.935 89.788h2.606V87l4.97 4-4.97 4v-2.727h-2.606v-2.485Z"/><rect width="336" height="133" x="317" y="190" fill="#fff" stroke="#67B0F8" stroke-width="2" rx="4"/><path fill="#18123D" d="M402.842 210.07V217h-1.045v-6.93h-2.431v-.957h5.907v.957h-2.431Zm5.765 7.04c-.44 0-.821-.103-1.144-.308a2.245 2.245 0 0 1-.759-.847v2.992h-.968v-7.656h.847l.099 1.111c.191-.374.447-.671.77-.891.323-.22.722-.33 1.199-.33.33 0 .645.062.946.187.308.117.576.301.803.55.235.242.418.55.55.924.139.367.209.799.209 1.298 0 .506-.07.946-.209 1.32a2.742 2.742 0 0 1-.561.924 2.36 2.36 0 0 1-.814.55 2.705 2.705 0 0 1-.968.176Zm-.143-.869c.506 0 .913-.172 1.221-.517.315-.352.473-.88.473-1.584 0-.689-.158-1.21-.473-1.562-.308-.359-.715-.539-1.221-.539a1.88 1.88 0 0 0-.704.132c-.213.088-.4.22-.561.396a1.911 1.911 0 0 0-.374.649 2.925 2.925 0 0 0-.132.924c0 .352.044.66.132.924.095.264.22.484.374.66.161.176.348.308.561.396.22.081.455.121.704.121Zm7.158-.33c-.066.132-.15.271-.253.418a1.923 1.923 0 0 1-.935.671c-.205.073-.447.11-.726.11-.513 0-.928-.143-1.243-.429-.315-.293-.473-.711-.473-1.254 0-.623.216-1.082.649-1.375.44-.293 1.063-.44 1.87-.44h1.067v-.473c0-.396-.103-.678-.308-.847-.205-.169-.557-.253-1.056-.253-.352 0-.686.059-1.001.176-.315.11-.598.238-.847.385v-.869c.205-.125.48-.246.825-.363a3.43 3.43 0 0 1 1.155-.187c.719 0 1.265.15 1.639.451.374.293.561.752.561 1.375v3.3c.007.081.011.165.011.253l.022.253c.007.073.015.136.022.187h-.88a5.068 5.068 0 0 1-.066-.429 6.417 6.417 0 0 1-.022-.495l-.011-.165Zm-1.705.33c.301 0 .557-.062.77-.187.213-.125.385-.268.517-.429a1.91 1.91 0 0 0 .286-.484c.059-.161.088-.275.088-.341v-.418h-.968c-.579 0-1.001.084-1.265.253-.257.161-.385.407-.385.737a.87.87 0 0 0 .231.627c.154.161.396.242.726.242Zm7.88-1.771h-2.761V217h-.968v-5.709h.968v2.354h2.761v-2.354h.968V217h-.968v-2.53Zm4.029.099h-.506V217h-.968v-5.709h.968v2.453h.55l2.002-2.453h1.1l-2.343 2.816 2.387 2.893h-1.177l-2.013-2.431Zm6.337 2.541a2.96 2.96 0 0 1-1.089-.198 2.532 2.532 0 0 1-.88-.572 2.782 2.782 0 0 1-.572-.935 3.532 3.532 0 0 1-.209-1.265 3.5 3.5 0 0 1 .209-1.254c.139-.374.33-.686.572-.935.249-.249.542-.44.88-.572a2.96 2.96 0 0 1 1.089-.198c.396 0 .762.066 1.1.198.337.132.627.323.869.572.249.249.443.561.583.935.146.367.22.785.22 1.254a3.4 3.4 0 0 1-.22 1.265c-.14.367-.334.678-.583.935-.242.249-.532.44-.869.572a2.995 2.995 0 0 1-1.1.198Zm0-.869c.256 0 .491-.04.704-.121.22-.088.41-.216.572-.385.161-.176.286-.396.374-.66.088-.264.132-.576.132-.935 0-.359-.044-.671-.132-.935a1.707 1.707 0 0 0-.374-.649 1.446 1.446 0 0 0-.572-.385 1.828 1.828 0 0 0-.704-.132 1.82 1.82 0 0 0-.704.132c-.213.081-.4.209-.561.385a1.788 1.788 0 0 0-.363.649 2.966 2.966 0 0 0-.132.935c0 .359.044.671.132.935.088.264.209.484.363.66.161.169.348.297.561.385.212.081.447.121.704.121Zm3.952-4.95h2.134c.689 0 1.21.121 1.562.363.352.235.528.605.528 1.111 0 .337-.088.609-.264.814-.169.198-.411.341-.726.429.814.132 1.221.583 1.221 1.353 0 .293-.059.546-.176.759a1.463 1.463 0 0 1-.484.506 2.167 2.167 0 0 1-.748.286 4.634 4.634 0 0 1-.935.088h-2.112v-5.709Zm.968.825v1.551h1.078c.366 0 .66-.066.88-.198.227-.132.341-.323.341-.572 0-.301-.099-.506-.297-.616-.198-.11-.481-.165-.847-.165h-1.155Zm0 2.321v1.738h1.133c.205 0 .388-.011.55-.033.168-.029.311-.077.429-.143a.718.718 0 0 0 .286-.264.78.78 0 0 0 .099-.407c0-.33-.114-.561-.341-.693-.228-.132-.569-.198-1.023-.198h-1.133Zm7.283 2.673a2.96 2.96 0 0 1-1.089-.198 2.541 2.541 0 0 1-.88-.572 2.782 2.782 0 0 1-.572-.935 3.554 3.554 0 0 1-.209-1.265c0-.469.07-.887.209-1.254.139-.374.33-.686.572-.935.249-.249.543-.44.88-.572a2.96 2.96 0 0 1 1.089-.198c.396 0 .763.066 1.1.198.337.132.627.323.869.572.249.249.444.561.583.935.147.367.22.785.22 1.254 0 .477-.073.898-.22 1.265a2.697 2.697 0 0 1-.583.935c-.242.249-.532.44-.869.572a2.991 2.991 0 0 1-1.1.198Zm0-.869c.257 0 .491-.04.704-.121.22-.088.411-.216.572-.385.161-.176.286-.396.374-.66.088-.264.132-.576.132-.935 0-.359-.044-.671-.132-.935a1.707 1.707 0 0 0-.374-.649 1.439 1.439 0 0 0-.572-.385 1.824 1.824 0 0 0-.704-.132c-.257 0-.491.044-.704.132-.213.081-.4.209-.561.385a1.788 1.788 0 0 0-.363.649 2.966 2.966 0 0 0-.132.935c0 .359.044.671.132.935.088.264.209.484.363.66.161.169.348.297.561.385.213.081.447.121.704.121Zm8.495.275a3.083 3.083 0 0 1-.726.385 3.617 3.617 0 0 1-.572.143 3.544 3.544 0 0 1-.715.066c-.961 0-1.69-.26-2.189-.781-.499-.521-.748-1.25-.748-2.189 0-.462.066-.876.198-1.243.139-.367.33-.675.572-.924.242-.257.528-.451.858-.583.33-.139.689-.209 1.078-.209.411 0 .777.07 1.1.209.323.139.587.345.792.616.213.271.356.609.429 1.012.081.396.081.858 0 1.386h-4.026c.037.616.22 1.078.55 1.386.33.301.821.451 1.474.451.44 0 .818-.062 1.133-.187.315-.125.579-.26.792-.407v.869Zm-2.266-4.477c-.418 0-.777.128-1.078.385-.301.257-.491.645-.572 1.166h3.069c.029-.528-.092-.917-.363-1.166-.271-.257-.623-.385-1.056-.385Zm6.059-.748h4.576V217h-.968v-4.884h-2.64V217h-.968v-5.709Zm8.498 5.819a2.96 2.96 0 0 1-1.089-.198 2.541 2.541 0 0 1-.88-.572 2.782 2.782 0 0 1-.572-.935 3.554 3.554 0 0 1-.209-1.265c0-.469.07-.887.209-1.254.139-.374.33-.686.572-.935.249-.249.543-.44.88-.572a2.96 2.96 0 0 1 1.089-.198c.396 0 .763.066 1.1.198.337.132.627.323.869.572.249.249.444.561.583.935.147.367.22.785.22 1.254 0 .477-.073.898-.22 1.265a2.697 2.697 0 0 1-.583.935c-.242.249-.532.44-.869.572a2.991 2.991 0 0 1-1.1.198Zm0-.869c.257 0 .491-.04.704-.121.22-.088.411-.216.572-.385.161-.176.286-.396.374-.66.088-.264.132-.576.132-.935 0-.359-.044-.671-.132-.935a1.707 1.707 0 0 0-.374-.649 1.439 1.439 0 0 0-.572-.385 1.824 1.824 0 0 0-.704-.132c-.257 0-.491.044-.704.132-.213.081-.4.209-.561.385a1.788 1.788 0 0 0-.363.649 2.966 2.966 0 0 0-.132.935c0 .359.044.671.132.935.088.264.209.484.363.66.161.169.348.297.561.385.213.081.447.121.704.121Zm3.59-.066c.206-.125.367-.319.484-.583.118-.264.209-.598.275-1.001.066-.403.11-.88.132-1.43.03-.55.055-1.173.077-1.87h3.927v4.884h.858v2.453h-.847l-.121-1.628h-4.246l-.099 1.628h-.869v-2.453h.429Zm3.927 0v-4.059h-2.09c-.036 1.078-.106 1.943-.209 2.596-.095.645-.264 1.133-.506 1.463h2.805Zm4.311-1.606h-.506V217h-.968v-5.709h.968v2.453h.55l2.002-2.453h1.1l-2.343 2.816L480.17 217h-1.177l-2.013-2.431Zm4.649.66c.103-.374.169-.88.198-1.518.029-.638.044-1.445.044-2.42h3.839V217h-.979v-4.884h-1.947a33.43 33.43 0 0 1-.077 2.09c-.037.609-.121 1.122-.253 1.54-.125.418-.312.737-.561.957-.242.213-.568.319-.979.319h-.088a.543.543 0 0 1-.099-.011v-.957a.783.783 0 0 0 .143.011c.374 0 .627-.279.759-.836Zm12.856-1.089c0 .477-.07.898-.209 1.265a2.653 2.653 0 0 1-.561.935c-.235.249-.514.44-.836.572a2.765 2.765 0 0 1-1.056.198c-.352 0-.682-.059-.99-.176a2.443 2.443 0 0 1-.814-.506 2.714 2.714 0 0 1-.561-.836 3.3 3.3 0 0 1-.264-1.122h-.946V217h-.968v-5.709h.968v2.354h.968c.044-.396.139-.744.286-1.045a2.406 2.406 0 0 1 1.353-1.254c.3-.11.623-.165.968-.165.381 0 .733.066 1.056.198.322.132.601.323.836.572.242.249.429.561.561.935.139.367.209.785.209 1.254Zm-2.662 2.101c.242 0 .462-.04.66-.121.205-.088.381-.216.528-.385.146-.176.26-.396.341-.66.088-.264.132-.576.132-.935 0-.359-.044-.671-.132-.935a1.775 1.775 0 0 0-.341-.649 1.304 1.304 0 0 0-.528-.385 1.607 1.607 0 0 0-.66-.132c-.235 0-.455.044-.66.132a1.311 1.311 0 0 0-.517.385 1.883 1.883 0 0 0-.352.649 3.206 3.206 0 0 0-.121.935c0 .359.04.671.121.935.088.264.205.484.352.66.146.169.319.297.517.385.205.081.425.121.66.121Zm8.097.759h-.968v-2.508a2.305 2.305 0 0 1-.693.363c-.257.081-.55.121-.88.121-.646 0-1.141-.158-1.485-.473-.338-.323-.506-.836-.506-1.54v-1.672h.979v1.683c0 .447.102.759.308.935.205.176.495.264.869.264.256 0 .506-.037.748-.11.242-.073.462-.187.66-.341v-2.431h.968V217Zm6.125-.484c-.08.059-.179.121-.297.187a3.4 3.4 0 0 1-.429.198 3.59 3.59 0 0 1-.572.143 3.537 3.537 0 0 1-.715.066c-.96 0-1.69-.26-2.189-.781-.498-.521-.748-1.25-.748-2.189 0-.462.066-.876.198-1.243.14-.367.33-.675.572-.924.242-.257.528-.451.858-.583.33-.139.69-.209 1.078-.209.411 0 .778.07 1.1.209.323.139.587.345.792.616.213.271.356.609.429 1.012.081.396.081.858 0 1.386h-4.026c.037.616.22 1.078.55 1.386.33.301.822.451 1.474.451.44 0 .818-.062 1.133-.187.316-.125.58-.26.792-.407v.869Zm-2.266-4.477c-.418 0-.777.128-1.078.385-.3.257-.491.645-.572 1.166h3.069c.03-.528-.091-.917-.363-1.166-.271-.257-.623-.385-1.056-.385Zm7.371 2.431h-2.761V217h-.968v-5.709h.968v2.354h2.761v-2.354h.968V217h-.968v-2.53Zm3.524 1.21 3.047-4.389h.979V217h-.968v-4.378L514.696 217h-.99v-5.709h.968v4.389Zm10.149.836a3.083 3.083 0 0 1-.726.385c-.169.059-.36.106-.572.143a3.544 3.544 0 0 1-.715.066c-.961 0-1.691-.26-2.189-.781-.499-.521-.748-1.25-.748-2.189 0-.462.066-.876.198-1.243.139-.367.33-.675.572-.924.242-.257.528-.451.858-.583.33-.139.689-.209 1.078-.209.41 0 .777.07 1.1.209.322.139.586.345.792.616.212.271.355.609.429 1.012.08.396.08.858 0 1.386h-4.026c.036.616.22 1.078.55 1.386.33.301.821.451 1.474.451.44 0 .817-.062 1.133-.187.315-.125.579-.26.792-.407v.869Zm-2.266-4.477c-.418 0-.778.128-1.078.385-.301.257-.492.645-.572 1.166h3.069c.029-.528-.092-.917-.363-1.166-.272-.257-.624-.385-1.056-.385Zm7.643 6.49c-.675-.653-1.163-1.379-1.463-2.178-.301-.807-.451-1.716-.451-2.728 0-1.012.15-1.94.451-2.783.3-.843.788-1.562 1.463-2.156h.957a4.687 4.687 0 0 0-.902.968c-.242.359-.44.748-.594 1.166a6.222 6.222 0 0 0-.33 1.32c-.066.462-.099.946-.099 1.452 0 1.005.143 1.914.429 2.728.286.814.784 1.551 1.496 2.211h-.957Zm6.587-3.685c0 .352-.066.671-.198.957a2.107 2.107 0 0 1-.55.715c-.235.191-.51.337-.825.44-.316.103-.66.154-1.034.154-.389 0-.745-.048-1.067-.143a2.513 2.513 0 0 1-.836-.44 2.133 2.133 0 0 1-.55-.704 2.185 2.185 0 0 1-.198-.946c0-.513.132-.942.396-1.287a2.386 2.386 0 0 1 1.089-.781 1.968 1.968 0 0 1-.88-.671c-.213-.301-.319-.671-.319-1.111 0-.323.058-.609.176-.858.124-.249.289-.458.495-.627.212-.176.462-.308.748-.396.293-.088.608-.132.946-.132.33 0 .634.044.913.132.286.081.535.205.748.374.212.169.377.378.495.627.124.242.187.528.187.858 0 .447-.11.825-.33 1.133-.22.301-.51.524-.869.671.44.154.792.403 1.056.748.271.345.407.774.407 1.287Zm-2.607-2.431c.396 0 .718-.11.968-.33.249-.227.374-.539.374-.935s-.125-.704-.374-.924c-.25-.227-.572-.341-.968-.341s-.723.114-.979.341c-.257.22-.385.528-.385.924s.128.708.385.935c.256.22.583.33.979.33Zm0 3.828c.227 0 .436-.033.627-.099.198-.073.366-.172.506-.297.146-.132.26-.293.341-.484.08-.191.121-.407.121-.649 0-.242-.041-.458-.121-.649a1.258 1.258 0 0 0-.341-.473 1.346 1.346 0 0 0-.506-.297 1.953 1.953 0 0 0-1.287 0 1.44 1.44 0 0 0-.517.297 1.236 1.236 0 0 0-.341.473 1.647 1.647 0 0 0-.121.649c0 .242.04.458.121.649.08.191.194.352.341.484.146.125.319.224.517.297.205.066.425.099.66.099Zm6.036.869c-.374 0-.722-.077-1.045-.231a2.306 2.306 0 0 1-.825-.737c-.227-.337-.407-.759-.539-1.265-.132-.513-.198-1.122-.198-1.826s.066-1.309.198-1.815c.132-.513.312-.935.539-1.265.235-.33.51-.572.825-.726a2.396 2.396 0 0 1 1.045-.231c.374 0 .719.077 1.034.231.316.154.587.396.814.726.228.323.404.737.528 1.243.132.506.198 1.111.198 1.815s-.066 1.313-.198 1.826c-.124.506-.3.928-.528 1.265a2.179 2.179 0 0 1-.814.748 2.24 2.24 0 0 1-1.034.242Zm-.011-.869c.25 0 .47-.055.66-.165.191-.11.352-.29.484-.539.132-.249.231-.576.297-.979.074-.411.11-.909.11-1.496s-.033-1.082-.099-1.485c-.066-.411-.165-.741-.297-.99-.132-.249-.293-.429-.484-.539-.19-.11-.41-.165-.66-.165-.249 0-.473.055-.671.165-.19.11-.355.29-.495.539-.132.249-.234.579-.308.99a9.392 9.392 0 0 0-.099 1.485c0 .587.033 1.085.099 1.496.074.403.176.73.308.979s.294.429.484.539c.198.11.422.165.671.165Zm8.578.759h-5.027v-1.045a61.22 61.22 0 0 0 1.727-1.43c.492-.418.895-.803 1.21-1.155.316-.352.55-.686.704-1.001.154-.323.231-.656.231-1.001 0-.433-.132-.781-.396-1.045-.256-.271-.634-.407-1.133-.407-.418 0-.806.103-1.166.308a3.947 3.947 0 0 0-.968.781v-1.111c.279-.271.594-.488.946-.649a2.908 2.908 0 0 1 1.221-.242c.411 0 .774.055 1.089.165.323.11.591.264.803.462.22.198.385.436.495.715.118.279.176.587.176.924 0 .425-.084.825-.253 1.199a4.392 4.392 0 0 1-.726 1.122c-.322.374-.722.763-1.199 1.166-.469.396-1.008.829-1.617 1.298h3.883V217Zm2.154.066a.699.699 0 0 1-.517-.198.694.694 0 0 1-.198-.495c0-.205.066-.374.198-.506a.699.699 0 0 1 .517-.198c.205 0 .374.066.506.198a.686.686 0 0 1 .198.506.694.694 0 0 1-.198.495.686.686 0 0 1-.506.198Zm5.718-.066h-1.001v-6.644l-2.178 1.672v-1.111l2.343-1.804h.836V217Zm9.689 1.485a18.982 18.982 0 0 1-1.595-.385 19.694 19.694 0 0 1-1.287-.407 30.928 30.928 0 0 1-1.078-.407 47.457 47.457 0 0 0-.913-.363 4.365 4.365 0 0 1-.968-.528 3.403 3.403 0 0 1-.759-.792 3.622 3.622 0 0 1-.495-1.078 5.315 5.315 0 0 1-.176-1.43c0-.66.095-1.243.286-1.749.191-.506.455-.931.792-1.276a3.309 3.309 0 0 1 1.188-.781 4.027 4.027 0 0 1 1.496-.275c.528 0 1.023.088 1.485.264.462.169.862.422 1.199.759.345.33.612.748.803 1.254.198.499.297 1.078.297 1.738 0 .477-.051.924-.154 1.342a3.335 3.335 0 0 1-.484 1.122c-.227.33-.521.616-.88.858s-.803.429-1.331.561a16.374 16.374 0 0 0 2.948.605l-.374.968Zm-3.498-2.31c.381 0 .733-.055 1.056-.165.323-.117.601-.297.836-.539.242-.249.429-.572.561-.968.139-.396.209-.876.209-1.441 0-.565-.07-1.045-.209-1.441-.132-.396-.319-.715-.561-.957a2.036 2.036 0 0 0-.836-.539 3.079 3.079 0 0 0-1.056-.176c-.381 0-.733.059-1.056.176a2.12 2.12 0 0 0-.847.539c-.235.242-.422.561-.561.957-.132.396-.198.876-.198 1.441 0 .565.066 1.045.198 1.441.139.396.326.719.561.968.242.242.524.422.847.539.323.11.675.165 1.056.165Zm5.55 2.354a6.452 6.452 0 0 0 1.276-2.233 8.48 8.48 0 0 0 .418-2.673c0-.462-.037-.924-.11-1.386a7.241 7.241 0 0 0-.319-1.331 6.5 6.5 0 0 0-.528-1.21 4.873 4.873 0 0 0-.737-1.012h-.957c.3.286.557.616.77.99.212.374.388.774.528 1.199.146.425.253.869.319 1.331.066.462.099.924.099 1.386 0 .939-.14 1.83-.418 2.673a6.265 6.265 0 0 1-1.298 2.266h.957Z"/><rect width="300" height="31" x="335" y="232" fill="#DAEEF9" rx="5"/><path fill="#18123D" d="M347.785 243.395h5.929v7.887h-1.045v-6.941h-3.85v6.941h-1.034v-7.887Zm10.505 7.997c-.44 0-.821-.102-1.144-.308a2.238 2.238 0 0 1-.759-.847v2.992h-.968v-7.656h.847l.099 1.111a2.35 2.35 0 0 1 .77-.891c.323-.22.723-.33 1.199-.33.33 0 .646.063.946.187.308.118.576.301.803.55.235.242.418.55.55.924.14.367.209.8.209 1.298 0 .506-.069.946-.209 1.32a2.742 2.742 0 0 1-.561.924 2.337 2.337 0 0 1-.814.55 2.68 2.68 0 0 1-.968.176Zm-.143-.869c.506 0 .913-.172 1.221-.517.316-.352.473-.88.473-1.584 0-.689-.157-1.21-.473-1.562-.308-.359-.715-.539-1.221-.539a1.88 1.88 0 0 0-.704.132 1.58 1.58 0 0 0-.561.396 1.928 1.928 0 0 0-.374.649 2.925 2.925 0 0 0-.132.924c0 .352.044.66.132.924.096.264.22.484.374.66.162.176.349.308.561.396.22.081.455.121.704.121Zm4.836-.561 3.047-4.389h.979v5.709h-.968v-4.378l-3.036 4.378h-.99v-5.709h.968v4.389Zm5.606-4.389h2.134c.69 0 1.21.121 1.562.363.352.235.528.605.528 1.111 0 .338-.088.609-.264.814-.168.198-.41.341-.726.429.814.132 1.221.583 1.221 1.353 0 .294-.058.547-.176.759a1.437 1.437 0 0 1-.484.506 2.132 2.132 0 0 1-.748.286 4.627 4.627 0 0 1-.935.088h-2.112v-5.709Zm.968.825v1.551h1.078c.367 0 .66-.066.88-.198.228-.132.341-.322.341-.572 0-.3-.099-.506-.297-.616-.198-.11-.48-.165-.847-.165h-1.155Zm0 2.321v1.738h1.133c.206 0 .389-.011.55-.033.169-.029.312-.077.429-.143a.711.711 0 0 0 .286-.264.777.777 0 0 0 .099-.407c0-.33-.113-.561-.341-.693-.227-.132-.568-.198-1.023-.198h-1.133Zm8.285 1.474a3.376 3.376 0 0 1-.253.418 1.897 1.897 0 0 1-.935.671c-.206.074-.448.11-.726.11-.514 0-.928-.143-1.243-.429-.316-.293-.473-.711-.473-1.254 0-.623.216-1.081.649-1.375.44-.293 1.063-.44 1.87-.44h1.067v-.473c0-.396-.103-.678-.308-.847-.206-.168-.558-.253-1.056-.253-.352 0-.686.059-1.001.176-.316.11-.598.239-.847.385v-.869a4.34 4.34 0 0 1 .825-.363 3.454 3.454 0 0 1 1.155-.187c.718 0 1.265.151 1.639.451.374.294.561.752.561 1.375v3.3c.007.081.011.165.011.253a12.72 12.72 0 0 0 .044.44h-.88a4.94 4.94 0 0 1-.066-.429 6.376 6.376 0 0 1-.022-.495l-.011-.165Zm-1.705.33c.3 0 .557-.062.77-.187.212-.124.385-.267.517-.429.132-.168.227-.33.286-.484.058-.161.088-.275.088-.341v-.418h-.968c-.58 0-1.001.085-1.265.253-.257.162-.385.407-.385.737a.87.87 0 0 0 .231.627c.154.162.396.242.726.242Zm6.396-4.125v4.884h-.968v-4.884h-1.793v-.825h4.587v.825h-1.826Zm6.672 2.354h-2.761v2.53h-.968v-5.709h.968v2.354h2.761v-2.354h.968v5.709h-.968v-2.53Zm4.898 2.64c-.388 0-.751-.066-1.089-.198a2.536 2.536 0 0 1-.88-.572 2.788 2.788 0 0 1-.572-.935 3.55 3.55 0 0 1-.209-1.265c0-.469.07-.887.209-1.254.14-.374.33-.685.572-.935.25-.249.543-.44.88-.572a2.967 2.967 0 0 1 1.089-.198c.396 0 .763.066 1.1.198.338.132.627.323.869.572.25.25.444.561.583.935.147.367.22.785.22 1.254 0 .477-.073.899-.22 1.265a2.674 2.674 0 0 1-.583.935c-.242.25-.531.44-.869.572a2.991 2.991 0 0 1-1.1.198Zm0-.869c.257 0 .492-.04.704-.121.22-.088.411-.216.572-.385.162-.176.286-.396.374-.66.088-.264.132-.575.132-.935 0-.359-.044-.671-.132-.935a1.694 1.694 0 0 0-.374-.649 1.439 1.439 0 0 0-.572-.385 1.82 1.82 0 0 0-.704-.132c-.256 0-.491.044-.704.132a1.467 1.467 0 0 0-.561.385 1.788 1.788 0 0 0-.363.649 2.966 2.966 0 0 0-.132.935c0 .36.044.671.132.935.088.264.209.484.363.66.162.169.349.297.561.385.213.081.448.121.704.121Zm8.495.275c-.08.059-.179.121-.297.187a3.4 3.4 0 0 1-.429.198 3.485 3.485 0 0 1-.572.143 3.537 3.537 0 0 1-.715.066c-.96 0-1.69-.26-2.189-.781-.498-.52-.748-1.25-.748-2.189 0-.462.066-.876.198-1.243.14-.366.33-.674.572-.924.242-.256.528-.451.858-.583.33-.139.69-.209 1.078-.209.411 0 .778.07 1.1.209.323.14.587.345.792.616.213.272.356.609.429 1.012.081.396.081.858 0 1.386h-4.026c.037.616.22 1.078.55 1.386.33.301.822.451 1.474.451.44 0 .818-.062 1.133-.187.316-.124.58-.26.792-.407v.869Zm-2.266-4.477a1.61 1.61 0 0 0-1.078.385c-.3.257-.491.646-.572 1.166h3.069c.03-.528-.091-.916-.363-1.166-.271-.256-.623-.385-1.056-.385Zm5.267 6.281 3.487-9.636h.88l-3.487 9.636h-.88Zm7.581-7.029h4.576v5.709h-.968v-4.884h-2.64v4.884h-.968v-5.709Zm8.96 5.643a6.445 6.445 0 0 1-.418.902 2.957 2.957 0 0 1-.495.671 1.751 1.751 0 0 1-.616.407 1.99 1.99 0 0 1-.781.143c-.146 0-.282-.011-.407-.033a1.211 1.211 0 0 1-.341-.088v-.935a.846.846 0 0 0 .308.132c.125.037.261.055.407.055.272 0 .495-.066.671-.198.176-.124.345-.326.506-.605l-2.321-6.094h1.067l1.815 4.818 1.804-4.818h.935l-2.134 5.643Zm8.241-2.794c0 .477-.073.899-.22 1.265a2.688 2.688 0 0 1-.583.935 2.42 2.42 0 0 1-.869.572 2.991 2.991 0 0 1-1.1.198c-.403 0-.774-.066-1.111-.198a2.295 2.295 0 0 1-.869-.627 3.008 3.008 0 0 1-.572-1.056c-.132-.425-.198-.927-.198-1.507 0-.476.015-.931.044-1.364.029-.432.095-.832.198-1.199.103-.374.249-.707.44-1.001a2.43 2.43 0 0 1 1.364-.99 4.52 4.52 0 0 1 .594-.132 6.1 6.1 0 0 1 .616-.055l.605-.022a4.21 4.21 0 0 0 .737-.11c.198-.051.374-.121.528-.209v.88a1.685 1.685 0 0 1-.517.22c-.176.037-.392.07-.649.099-.418.037-.803.066-1.155.088-.345.015-.66.096-.946.242a1.713 1.713 0 0 0-.781.924c-.147.404-.238.884-.275 1.441.381-.88 1.1-1.32 2.156-1.32.359 0 .693.066 1.001.198.315.125.587.312.814.561.235.25.418.558.55.924.132.36.198.774.198 1.243Zm-2.772 2.101c.257 0 .491-.04.704-.121.22-.088.411-.216.572-.385.161-.176.286-.396.374-.66.088-.264.132-.575.132-.935 0-.359-.044-.671-.132-.935a1.707 1.707 0 0 0-.374-.649 1.439 1.439 0 0 0-.572-.385 1.824 1.824 0 0 0-.704-.132c-.506 0-.928.169-1.265.506-.33.338-.495.858-.495 1.562 0 .367.044.686.132.957.088.264.209.484.363.66.161.176.348.308.561.396.213.081.447.121.704.121Zm4.262-1.012c.103-.374.169-.88.198-1.518.03-.638.044-1.444.044-2.42h3.839v5.709h-.979v-4.884h-1.947a33.4 33.4 0 0 1-.077 2.09c-.036.609-.121 1.122-.253 1.54-.124.418-.311.737-.561.957-.242.213-.568.319-.979.319h-.088a.467.467 0 0 1-.099-.011v-.957a.709.709 0 0 0 .143.011c.374 0 .627-.278.759-.836Zm6.619.451 3.047-4.389h.979v5.709h-.968v-4.378l-3.036 4.378h-.99v-5.709h.968v4.389Zm10.028 1.32h-.968v-2.508a2.305 2.305 0 0 1-.693.363 2.92 2.92 0 0 1-.88.121c-.645 0-1.14-.157-1.485-.473-.337-.322-.506-.836-.506-1.54v-1.672h.979v1.683c0 .448.103.759.308.935.206.176.495.264.869.264.257 0 .506-.036.748-.11.242-.073.462-.187.66-.341v-2.431h.968v5.709Zm5.312-2.53h-2.761v2.53h-.968v-5.709h.968v2.354h2.761v-2.354h.968v5.709h-.968v-2.53Zm4.898 2.64c-.388 0-.751-.066-1.089-.198a2.536 2.536 0 0 1-.88-.572 2.788 2.788 0 0 1-.572-.935 3.55 3.55 0 0 1-.209-1.265c0-.469.07-.887.209-1.254.14-.374.33-.685.572-.935.25-.249.543-.44.88-.572a2.967 2.967 0 0 1 1.089-.198c.396 0 .763.066 1.1.198.338.132.627.323.869.572.25.25.444.561.583.935.147.367.22.785.22 1.254 0 .477-.073.899-.22 1.265a2.674 2.674 0 0 1-.583.935c-.242.25-.531.44-.869.572a2.991 2.991 0 0 1-1.1.198Zm0-.869c.257 0 .492-.04.704-.121.22-.088.411-.216.572-.385.162-.176.286-.396.374-.66.088-.264.132-.575.132-.935 0-.359-.044-.671-.132-.935a1.694 1.694 0 0 0-.374-.649 1.439 1.439 0 0 0-.572-.385 1.82 1.82 0 0 0-.704-.132c-.256 0-.491.044-.704.132a1.467 1.467 0 0 0-.561.385 1.788 1.788 0 0 0-.363.649 2.966 2.966 0 0 0-.132.935c0 .36.044.671.132.935.088.264.209.484.363.66.162.169.349.297.561.385.213.081.448.121.704.121Zm8.495.275c-.08.059-.179.121-.297.187a3.4 3.4 0 0 1-.429.198 3.485 3.485 0 0 1-.572.143 3.537 3.537 0 0 1-.715.066c-.96 0-1.69-.26-2.189-.781-.498-.52-.748-1.25-.748-2.189 0-.462.066-.876.198-1.243.14-.366.33-.674.572-.924.242-.256.528-.451.858-.583.33-.139.69-.209 1.078-.209.411 0 .778.07 1.1.209.323.14.587.345.792.616.213.272.356.609.429 1.012.081.396.081.858 0 1.386h-4.026c.037.616.22 1.078.55 1.386.33.301.822.451 1.474.451.44 0 .818-.062 1.133-.187.316-.124.58-.26.792-.407v.869Zm-2.266-4.477a1.61 1.61 0 0 0-1.078.385c-.3.257-.491.646-.572 1.166h3.069c.03-.528-.091-.916-.363-1.166-.271-.256-.623-.385-1.056-.385Zm8.523 5.071c-.44 0-.84-.066-1.199-.198a2.605 2.605 0 0 1-.902-.583 2.567 2.567 0 0 1-.572-.935 3.684 3.684 0 0 1-.198-1.254c0-.462.066-.876.198-1.243.139-.366.334-.674.583-.924a2.42 2.42 0 0 1 .913-.583 3.361 3.361 0 0 1 1.221-.209c.352 0 .675.041.968.121.293.074.535.184.726.33v.869a2.588 2.588 0 0 0-.792-.341 3.293 3.293 0 0 0-.891-.121c-.667 0-1.159.173-1.474.517-.308.345-.462.873-.462 1.584 0 .712.15 1.24.451 1.584.301.345.777.517 1.43.517.345 0 .66-.04.946-.121.293-.088.557-.198.792-.33v.869a3.371 3.371 0 0 1-1.738.451Zm5.379 0a2.96 2.96 0 0 1-1.089-.198 2.527 2.527 0 0 1-.88-.572 2.772 2.772 0 0 1-.572-.935 3.55 3.55 0 0 1-.209-1.265c0-.469.07-.887.209-1.254a2.65 2.65 0 0 1 .572-.935c.249-.249.543-.44.88-.572a2.96 2.96 0 0 1 1.089-.198c.396 0 .763.066 1.1.198.337.132.627.323.869.572.249.25.444.561.583.935.147.367.22.785.22 1.254 0 .477-.073.899-.22 1.265a2.688 2.688 0 0 1-.583.935 2.42 2.42 0 0 1-.869.572 2.991 2.991 0 0 1-1.1.198Zm0-.869c.257 0 .491-.04.704-.121.22-.088.411-.216.572-.385.161-.176.286-.396.374-.66.088-.264.132-.575.132-.935 0-.359-.044-.671-.132-.935a1.707 1.707 0 0 0-.374-.649 1.439 1.439 0 0 0-.572-.385 1.824 1.824 0 0 0-.704-.132c-.257 0-.491.044-.704.132-.213.081-.4.209-.561.385a1.788 1.788 0 0 0-.363.649 2.966 2.966 0 0 0-.132.935c0 .36.044.671.132.935.088.264.209.484.363.66.161.169.348.297.561.385.213.081.447.121.704.121Zm8.495.275a3.083 3.083 0 0 1-.726.385 3.511 3.511 0 0 1-.572.143 3.544 3.544 0 0 1-.715.066c-.961 0-1.69-.26-2.189-.781-.499-.52-.748-1.25-.748-2.189 0-.462.066-.876.198-1.243.139-.366.33-.674.572-.924.242-.256.528-.451.858-.583.33-.139.689-.209 1.078-.209.411 0 .777.07 1.1.209.323.14.587.345.792.616.213.272.356.609.429 1.012.081.396.081.858 0 1.386h-4.026c.037.616.22 1.078.55 1.386.33.301.821.451 1.474.451.44 0 .818-.062 1.133-.187.315-.124.579-.26.792-.407v.869Zm-2.266-4.477a1.61 1.61 0 0 0-1.078.385c-.301.257-.491.646-.572 1.166h3.069c.029-.528-.092-.916-.363-1.166-.271-.256-.623-.385-1.056-.385Zm3.334 4.136c.205-.124.367-.319.484-.583.117-.264.209-.597.275-1.001.066-.403.11-.88.132-1.43.029-.55.055-1.173.077-1.87h3.927v4.884h.858v2.453h-.847l-.121-1.628h-4.246l-.099 1.628h-.869v-2.453h.429Zm3.927 0v-4.059h-2.09c-.037 1.078-.106 1.944-.209 2.596-.095.646-.264 1.133-.506 1.463h2.805Zm3.805-.495 3.047-4.389h.979v5.709h-.968v-4.378l-3.036 4.378h-.99v-5.709h.968v4.389Zm9.335-1.21h-2.761v2.53h-.968v-5.709h.968v2.354h2.761v-2.354h.968v5.709h-.968v-2.53Zm7.098 2.046c-.08.059-.179.121-.297.187a3.4 3.4 0 0 1-.429.198 3.485 3.485 0 0 1-.572.143 3.537 3.537 0 0 1-.715.066c-.96 0-1.69-.26-2.189-.781-.498-.52-.748-1.25-.748-2.189 0-.462.066-.876.198-1.243.14-.366.33-.674.572-.924.242-.256.528-.451.858-.583.33-.139.69-.209 1.078-.209.411 0 .778.07 1.1.209.323.14.587.345.792.616.213.272.356.609.429 1.012.081.396.081.858 0 1.386h-4.026c.037.616.22 1.078.55 1.386.33.301.822.451 1.474.451.44 0 .818-.062 1.133-.187.316-.124.58-.26.792-.407v.869Zm-2.266-4.477a1.61 1.61 0 0 0-1.078.385c-.3.257-.491.646-.572 1.166h3.069c.03-.528-.091-.916-.363-1.166-.271-.256-.623-.385-1.056-.385Zm7.371 2.431h-2.761v2.53h-.968v-5.709h.968v2.354h2.761v-2.354h.968v5.709h-.968v-2.53Zm3.524 1.21 3.047-4.389h.979v5.709h-.968v-4.378l-3.036 4.378h-.99v-5.709h.968v4.389Zm10.149.836a3.083 3.083 0 0 1-.726.385c-.169.059-.36.107-.572.143a3.544 3.544 0 0 1-.715.066c-.961 0-1.691-.26-2.189-.781-.499-.52-.748-1.25-.748-2.189 0-.462.066-.876.198-1.243.139-.366.33-.674.572-.924.242-.256.528-.451.858-.583.33-.139.689-.209 1.078-.209.41 0 .777.07 1.1.209.322.14.586.345.792.616.212.272.355.609.429 1.012.08.396.08.858 0 1.386h-4.026c.036.616.22 1.078.55 1.386.33.301.821.451 1.474.451.44 0 .817-.062 1.133-.187.315-.124.579-.26.792-.407v.869Zm-2.266-4.477c-.418 0-.778.129-1.078.385-.301.257-.492.646-.572 1.166h3.069c.029-.528-.092-.916-.363-1.166-.272-.256-.624-.385-1.056-.385Zm16.894-1.012a2.1 2.1 0 0 1-.154.803 1.921 1.921 0 0 1-1.067 1.056 2.129 2.129 0 0 1-.792.143c-.286 0-.55-.047-.792-.143a2.075 2.075 0 0 1-.638-.418 2.075 2.075 0 0 1-.418-.638 2.214 2.214 0 0 1-.143-.803c0-.293.047-.561.143-.803.102-.249.242-.462.418-.638.183-.176.396-.311.638-.407.242-.102.506-.154.792-.154.286 0 .55.052.792.154a1.859 1.859 0 0 1 1.067 1.045c.102.242.154.51.154.803Zm-4.884 5.973h-1.331l-3.509-6.479v6.479h-.979v-7.887h1.331l3.509 6.479v-6.479h.979v7.887Zm1.727-5.973c0 .374.102.682.308.924.205.242.484.363.836.363s.63-.121.836-.363c.212-.242.319-.55.319-.924s-.107-.682-.319-.924c-.206-.242-.484-.363-.836-.363s-.631.121-.836.363c-.206.242-.308.55-.308.924Zm7.664 5.973h-1.001v-6.644l-2.178 1.672v-1.111l2.343-1.804h.836v7.887Zm6.947 1.529a6.427 6.427 0 0 1-1.276-2.233 8.452 8.452 0 0 1-.418-2.673c0-.462.033-.924.099-1.386.073-.462.179-.905.319-1.331.146-.432.322-.836.528-1.21.212-.374.462-.711.748-1.012h.957a4.242 4.242 0 0 0-.77.99 7.038 7.038 0 0 0-.539 1.199 7.77 7.77 0 0 0-.308 1.331 9.789 9.789 0 0 0-.099 1.386c0 .939.135 1.83.407 2.673a6.371 6.371 0 0 0 1.309 2.266h-.957Zm5.846-1.529h-1.617l-2.75-7.887h1.078l2.519 7.26 2.519-7.26h.99l-2.739 7.887Zm8.699 0h-4.873v-7.887h1.034v6.952h3.839v.935Zm3.523-7.887h1.54l2.827 7.887h-1.1l-.814-2.255h-3.487l-.803 2.255h-.968l2.805-7.887Zm2.123 4.697-1.408-3.927-1.408 3.927h2.816Zm9.739 3.19h-1.408l-3.96-6.622v6.622h-.979v-7.887h1.397l3.96 6.622v-6.622h.99v7.887Zm5.29-7.887v7.887h-1.034v-7.887h1.034Zm1.834 0h2.651c.528 0 1.019.063 1.474.187.454.125.85.33 1.188.616.337.286.601.664.792 1.133.19.47.286 1.049.286 1.738 0 .697-.099 1.309-.297 1.837a3.63 3.63 0 0 1-.803 1.309 3.32 3.32 0 0 1-1.221.803c-.47.176-.983.264-1.54.264h-2.53v-7.887Zm1.034.946v6.006h1.496c.403 0 .773-.062 1.111-.187a2.24 2.24 0 0 0 .869-.572c.242-.264.429-.597.561-1.001.132-.403.198-.883.198-1.441 0-.55-.066-1.004-.198-1.364-.132-.366-.316-.656-.55-.869a1.853 1.853 0 0 0-.825-.44 3.961 3.961 0 0 0-1.045-.132h-1.617Zm8.588 2.574v-.77h5.313v.77h-5.313Zm0 2.09v-.77h5.313v.77h-5.313Zm11.567-1.122-2.321 3.399h-1.1l2.882-4.147-2.508-3.74h1.243l2.002 3.014 1.98-3.014h1.1l-2.552 3.729 2.783 4.158h-1.232l-2.277-3.399Zm4.881 4.928a6.443 6.443 0 0 0 1.276-2.233 8.48 8.48 0 0 0 .418-2.673c0-.462-.037-.924-.11-1.386a7.26 7.26 0 0 0-.319-1.331 6.53 6.53 0 0 0-.528-1.21 4.873 4.873 0 0 0-.737-1.012h-.957c.3.286.557.616.77.99.212.374.388.774.528 1.199.146.426.253.869.319 1.331.066.462.099.924.099 1.386 0 .939-.14 1.83-.418 2.673a6.256 6.256 0 0 1-1.298 2.266h.957Z"/><rect width="300" height="31" x="335" y="275" fill="#DAEEF9" rx="5"/><path fill="#18123D" d="M347.817 286.395h5.929v7.887h-1.045v-6.941h-3.85v6.941h-1.034v-7.887Zm10.506 7.997c-.44 0-.822-.102-1.144-.308a2.222 2.222 0 0 1-.759-.847v2.992h-.968v-7.656h.847l.099 1.111c.19-.374.447-.671.77-.891.322-.22.722-.33 1.199-.33.33 0 .645.063.946.187.308.118.575.301.803.55.234.242.418.55.55.924.139.367.209.8.209 1.298 0 .506-.07.946-.209 1.32-.14.367-.327.675-.561.924a2.346 2.346 0 0 1-.814.55 2.683 2.683 0 0 1-.968.176Zm-.143-.869c.506 0 .913-.172 1.221-.517.315-.352.473-.88.473-1.584 0-.689-.158-1.21-.473-1.562-.308-.359-.715-.539-1.221-.539-.25 0-.484.044-.704.132-.213.088-.4.22-.561.396a1.911 1.911 0 0 0-.374.649 2.925 2.925 0 0 0-.132.924c0 .352.044.66.132.924.095.264.22.484.374.66.161.176.348.308.561.396.22.081.454.121.704.121Zm4.835-.561 3.047-4.389h.979v5.709h-.968v-4.378l-3.036 4.378h-.99v-5.709h.968v4.389Zm5.607-4.389h2.134c.689 0 1.21.121 1.562.363.352.235.528.605.528 1.111 0 .338-.088.609-.264.814-.169.198-.411.341-.726.429.814.132 1.221.583 1.221 1.353 0 .294-.059.547-.176.759a1.455 1.455 0 0 1-.484.506 2.147 2.147 0 0 1-.748.286 4.634 4.634 0 0 1-.935.088h-2.112v-5.709Zm.968.825v1.551h1.078c.366 0 .66-.066.88-.198.227-.132.341-.322.341-.572 0-.3-.099-.506-.297-.616-.198-.11-.481-.165-.847-.165h-1.155Zm0 2.321v1.738h1.133c.205 0 .388-.011.55-.033.168-.029.311-.077.429-.143a.718.718 0 0 0 .286-.264.777.777 0 0 0 .099-.407c0-.33-.114-.561-.341-.693-.228-.132-.569-.198-1.023-.198h-1.133Zm8.284 1.474a3.376 3.376 0 0 1-.253.418 1.897 1.897 0 0 1-.935.671c-.206.074-.448.11-.726.11-.514 0-.928-.143-1.243-.429-.316-.293-.473-.711-.473-1.254 0-.623.216-1.081.649-1.375.44-.293 1.063-.44 1.87-.44h1.067v-.473c0-.396-.103-.678-.308-.847-.206-.168-.558-.253-1.056-.253-.352 0-.686.059-1.001.176-.316.11-.598.239-.847.385v-.869a4.34 4.34 0 0 1 .825-.363 3.454 3.454 0 0 1 1.155-.187c.718 0 1.265.151 1.639.451.374.294.561.752.561 1.375v3.3c.007.081.011.165.011.253a12.72 12.72 0 0 0 .044.44h-.88a4.94 4.94 0 0 1-.066-.429 6.376 6.376 0 0 1-.022-.495l-.011-.165Zm-1.705.33c.3 0 .557-.062.77-.187.212-.124.385-.267.517-.429.132-.168.227-.33.286-.484.058-.161.088-.275.088-.341v-.418h-.968c-.58 0-1.001.085-1.265.253-.257.162-.385.407-.385.737a.87.87 0 0 0 .231.627c.154.162.396.242.726.242Zm6.396-4.125v4.884h-.968v-4.884h-1.793v-.825h4.587v.825h-1.826Zm6.672 2.354h-2.761v2.53h-.968v-5.709h.968v2.354h2.761v-2.354h.968v5.709h-.968v-2.53Zm4.899 2.64a2.96 2.96 0 0 1-1.089-.198 2.518 2.518 0 0 1-.88-.572 2.772 2.772 0 0 1-.572-.935 3.528 3.528 0 0 1-.209-1.265 3.5 3.5 0 0 1 .209-1.254 2.65 2.65 0 0 1 .572-.935c.249-.249.542-.44.88-.572a2.96 2.96 0 0 1 1.089-.198c.396 0 .762.066 1.1.198.337.132.627.323.869.572.249.25.443.561.583.935.146.367.22.785.22 1.254 0 .477-.074.899-.22 1.265-.14.367-.334.679-.583.935a2.42 2.42 0 0 1-.869.572 2.995 2.995 0 0 1-1.1.198Zm0-.869c.256 0 .491-.04.704-.121.22-.088.41-.216.572-.385.161-.176.286-.396.374-.66.088-.264.132-.575.132-.935 0-.359-.044-.671-.132-.935a1.707 1.707 0 0 0-.374-.649 1.446 1.446 0 0 0-.572-.385 1.828 1.828 0 0 0-.704-.132 1.82 1.82 0 0 0-.704.132c-.213.081-.4.209-.561.385a1.788 1.788 0 0 0-.363.649 2.966 2.966 0 0 0-.132.935c0 .36.044.671.132.935.088.264.209.484.363.66.161.169.348.297.561.385.212.081.447.121.704.121Zm8.494.275c-.08.059-.179.121-.297.187a3.4 3.4 0 0 1-.429.198 3.485 3.485 0 0 1-.572.143 3.537 3.537 0 0 1-.715.066c-.96 0-1.69-.26-2.189-.781-.498-.52-.748-1.25-.748-2.189 0-.462.066-.876.198-1.243.14-.366.33-.674.572-.924.242-.256.528-.451.858-.583.33-.139.69-.209 1.078-.209.411 0 .778.07 1.1.209.323.14.587.345.792.616.213.272.356.609.429 1.012.081.396.081.858 0 1.386h-4.026c.037.616.22 1.078.55 1.386.33.301.822.451 1.474.451.44 0 .818-.062 1.133-.187.316-.124.58-.26.792-.407v.869Zm-2.266-4.477a1.61 1.61 0 0 0-1.078.385c-.3.257-.491.646-.572 1.166h3.069c.03-.528-.091-.916-.363-1.166-.271-.256-.623-.385-1.056-.385Zm5.267 6.281 3.487-9.636h.88l-3.487 9.636h-.88Zm7.581-7.029h4.576v5.709h-.968v-4.884h-2.64v4.884h-.968v-5.709Zm8.961 5.643a6.561 6.561 0 0 1-.418.902 3.017 3.017 0 0 1-.495.671 1.77 1.77 0 0 1-.616.407 1.996 1.996 0 0 1-.781.143c-.147 0-.283-.011-.407-.033a1.193 1.193 0 0 1-.341-.088v-.935c.08.059.183.103.308.132.124.037.26.055.407.055.271 0 .495-.066.671-.198.176-.124.344-.326.506-.605l-2.321-6.094h1.067l1.815 4.818 1.804-4.818h.935l-2.134 5.643Zm8.24-2.794c0 .477-.073.899-.22 1.265a2.674 2.674 0 0 1-.583.935c-.242.25-.531.44-.869.572a2.991 2.991 0 0 1-1.1.198c-.403 0-.773-.066-1.111-.198a2.295 2.295 0 0 1-.869-.627c-.242-.278-.432-.63-.572-1.056-.132-.425-.198-.927-.198-1.507 0-.476.015-.931.044-1.364a6.04 6.04 0 0 1 .198-1.199c.103-.374.25-.707.44-1.001a2.43 2.43 0 0 1 1.364-.99 4.52 4.52 0 0 1 .594-.132c.206-.029.411-.047.616-.055l.605-.022c.294-.022.539-.058.737-.11.198-.051.374-.121.528-.209v.88a1.674 1.674 0 0 1-.517.22c-.176.037-.392.07-.649.099-.418.037-.803.066-1.155.088-.344.015-.66.096-.946.242a1.717 1.717 0 0 0-.781.924c-.146.404-.238.884-.275 1.441.382-.88 1.1-1.32 2.156-1.32.36 0 .693.066 1.001.198.316.125.587.312.814.561.235.25.418.558.55.924.132.36.198.774.198 1.243Zm-2.772 2.101c.257 0 .492-.04.704-.121.22-.088.411-.216.572-.385.162-.176.286-.396.374-.66.088-.264.132-.575.132-.935 0-.359-.044-.671-.132-.935a1.694 1.694 0 0 0-.374-.649 1.439 1.439 0 0 0-.572-.385 1.82 1.82 0 0 0-.704-.132c-.506 0-.927.169-1.265.506-.33.338-.495.858-.495 1.562 0 .367.044.686.132.957.088.264.209.484.363.66.162.176.349.308.561.396.213.081.448.121.704.121Zm4.262-1.012c.103-.374.169-.88.198-1.518.03-.638.044-1.444.044-2.42h3.839v5.709h-.979v-4.884h-1.947a33.4 33.4 0 0 1-.077 2.09c-.036.609-.121 1.122-.253 1.54-.124.418-.311.737-.561.957-.242.213-.568.319-.979.319h-.088a.467.467 0 0 1-.099-.011v-.957a.709.709 0 0 0 .143.011c.374 0 .627-.278.759-.836Zm6.619.451 3.047-4.389h.979v5.709h-.968v-4.378l-3.036 4.378h-.99v-5.709h.968v4.389Zm10.028 1.32h-.968v-2.508a2.305 2.305 0 0 1-.693.363 2.92 2.92 0 0 1-.88.121c-.645 0-1.14-.157-1.485-.473-.337-.322-.506-.836-.506-1.54v-1.672h.979v1.683c0 .448.103.759.308.935.206.176.495.264.869.264.257 0 .506-.036.748-.11.242-.073.462-.187.66-.341v-2.431h.968v5.709Zm5.312-2.53h-2.761v2.53h-.968v-5.709h.968v2.354h2.761v-2.354h.968v5.709h-.968v-2.53Zm4.899 2.64a2.96 2.96 0 0 1-1.089-.198 2.518 2.518 0 0 1-.88-.572 2.772 2.772 0 0 1-.572-.935 3.528 3.528 0 0 1-.209-1.265 3.5 3.5 0 0 1 .209-1.254 2.65 2.65 0 0 1 .572-.935c.249-.249.542-.44.88-.572a2.96 2.96 0 0 1 1.089-.198c.396 0 .762.066 1.1.198.337.132.627.323.869.572.249.25.443.561.583.935.146.367.22.785.22 1.254 0 .477-.074.899-.22 1.265-.14.367-.334.679-.583.935a2.42 2.42 0 0 1-.869.572 2.995 2.995 0 0 1-1.1.198Zm0-.869c.256 0 .491-.04.704-.121.22-.088.41-.216.572-.385.161-.176.286-.396.374-.66.088-.264.132-.575.132-.935 0-.359-.044-.671-.132-.935a1.707 1.707 0 0 0-.374-.649 1.446 1.446 0 0 0-.572-.385 1.828 1.828 0 0 0-.704-.132 1.82 1.82 0 0 0-.704.132c-.213.081-.4.209-.561.385a1.788 1.788 0 0 0-.363.649 2.966 2.966 0 0 0-.132.935c0 .36.044.671.132.935.088.264.209.484.363.66.161.169.348.297.561.385.212.081.447.121.704.121Zm8.494.275c-.08.059-.179.121-.297.187a3.4 3.4 0 0 1-.429.198 3.485 3.485 0 0 1-.572.143 3.537 3.537 0 0 1-.715.066c-.96 0-1.69-.26-2.189-.781-.498-.52-.748-1.25-.748-2.189 0-.462.066-.876.198-1.243.14-.366.33-.674.572-.924.242-.256.528-.451.858-.583.33-.139.69-.209 1.078-.209.411 0 .778.07 1.1.209.323.14.587.345.792.616.213.272.356.609.429 1.012.081.396.081.858 0 1.386h-4.026c.037.616.22 1.078.55 1.386.33.301.822.451 1.474.451.44 0 .818-.062 1.133-.187.316-.124.58-.26.792-.407v.869Zm-2.266-4.477a1.61 1.61 0 0 0-1.078.385c-.3.257-.491.646-.572 1.166h3.069c.03-.528-.091-.916-.363-1.166-.271-.256-.623-.385-1.056-.385Zm8.523 5.071c-.44 0-.839-.066-1.199-.198a2.615 2.615 0 0 1-.902-.583 2.567 2.567 0 0 1-.572-.935 3.684 3.684 0 0 1-.198-1.254c0-.462.066-.876.198-1.243a2.61 2.61 0 0 1 .583-.924c.25-.256.554-.451.913-.583.36-.139.767-.209 1.221-.209.352 0 .675.041.968.121.294.074.536.184.726.33v.869a2.567 2.567 0 0 0-.792-.341 3.293 3.293 0 0 0-.891-.121c-.667 0-1.158.173-1.474.517-.308.345-.462.873-.462 1.584 0 .712.151 1.24.451 1.584.301.345.778.517 1.43.517.345 0 .66-.04.946-.121a3.86 3.86 0 0 0 .792-.33v.869a3.371 3.371 0 0 1-1.738.451Zm5.379 0c-.388 0-.751-.066-1.089-.198a2.536 2.536 0 0 1-.88-.572 2.788 2.788 0 0 1-.572-.935 3.55 3.55 0 0 1-.209-1.265c0-.469.07-.887.209-1.254.14-.374.33-.685.572-.935.25-.249.543-.44.88-.572a2.967 2.967 0 0 1 1.089-.198c.396 0 .763.066 1.1.198.338.132.627.323.869.572.25.25.444.561.583.935.147.367.22.785.22 1.254 0 .477-.073.899-.22 1.265a2.674 2.674 0 0 1-.583.935c-.242.25-.531.44-.869.572a2.991 2.991 0 0 1-1.1.198Zm0-.869c.257 0 .492-.04.704-.121.22-.088.411-.216.572-.385.162-.176.286-.396.374-.66.088-.264.132-.575.132-.935 0-.359-.044-.671-.132-.935a1.694 1.694 0 0 0-.374-.649 1.439 1.439 0 0 0-.572-.385 1.82 1.82 0 0 0-.704-.132c-.256 0-.491.044-.704.132a1.467 1.467 0 0 0-.561.385 1.788 1.788 0 0 0-.363.649 2.966 2.966 0 0 0-.132.935c0 .36.044.671.132.935.088.264.209.484.363.66.162.169.349.297.561.385.213.081.448.121.704.121Zm8.495.275c-.08.059-.179.121-.297.187a3.4 3.4 0 0 1-.429.198 3.485 3.485 0 0 1-.572.143 3.537 3.537 0 0 1-.715.066c-.96 0-1.69-.26-2.189-.781-.498-.52-.748-1.25-.748-2.189 0-.462.066-.876.198-1.243.14-.366.33-.674.572-.924.242-.256.528-.451.858-.583.33-.139.69-.209 1.078-.209.411 0 .778.07 1.1.209.323.14.587.345.792.616.213.272.356.609.429 1.012.081.396.081.858 0 1.386h-4.026c.037.616.22 1.078.55 1.386.33.301.822.451 1.474.451.44 0 .818-.062 1.133-.187.316-.124.58-.26.792-.407v.869Zm-2.266-4.477a1.61 1.61 0 0 0-1.078.385c-.3.257-.491.646-.572 1.166h3.069c.03-.528-.091-.916-.363-1.166-.271-.256-.623-.385-1.056-.385Zm3.334 4.136c.206-.124.367-.319.484-.583.118-.264.209-.597.275-1.001.066-.403.11-.88.132-1.43.03-.55.055-1.173.077-1.87h3.927v4.884h.858v2.453h-.847l-.121-1.628h-4.246l-.099 1.628h-.869v-2.453h.429Zm3.927 0v-4.059h-2.09c-.036 1.078-.106 1.944-.209 2.596-.095.646-.264 1.133-.506 1.463h2.805Zm3.805-.495 3.047-4.389h.979v5.709h-.968v-4.378l-3.036 4.378h-.99v-5.709h.968v4.389Zm9.336-1.21h-2.761v2.53h-.968v-5.709h.968v2.354h2.761v-2.354h.968v5.709h-.968v-2.53Zm7.098 2.046a3.083 3.083 0 0 1-.726.385c-.169.059-.36.107-.572.143a3.544 3.544 0 0 1-.715.066c-.961 0-1.691-.26-2.189-.781-.499-.52-.748-1.25-.748-2.189 0-.462.066-.876.198-1.243.139-.366.33-.674.572-.924.242-.256.528-.451.858-.583.33-.139.689-.209 1.078-.209.41 0 .777.07 1.1.209.322.14.586.345.792.616.212.272.355.609.429 1.012.08.396.08.858 0 1.386h-4.026c.036.616.22 1.078.55 1.386.33.301.821.451 1.474.451.44 0 .817-.062 1.133-.187.315-.124.579-.26.792-.407v.869Zm-2.266-4.477c-.418 0-.778.129-1.078.385-.301.257-.492.646-.572 1.166h3.069c.029-.528-.092-.916-.363-1.166-.272-.256-.624-.385-1.056-.385Zm7.371 2.431h-2.761v2.53h-.968v-5.709h.968v2.354h2.761v-2.354h.968v5.709h-.968v-2.53Zm3.523 1.21 3.047-4.389h.979v5.709h-.968v-4.378l-3.036 4.378h-.99v-5.709h.968v4.389Zm10.149.836a3.083 3.083 0 0 1-.726.385 3.511 3.511 0 0 1-.572.143 3.544 3.544 0 0 1-.715.066c-.961 0-1.69-.26-2.189-.781-.499-.52-.748-1.25-.748-2.189 0-.462.066-.876.198-1.243.139-.366.33-.674.572-.924.242-.256.528-.451.858-.583.33-.139.689-.209 1.078-.209.411 0 .777.07 1.1.209.323.14.587.345.792.616.213.272.356.609.429 1.012.081.396.081.858 0 1.386h-4.026c.037.616.22 1.078.55 1.386.33.301.821.451 1.474.451.44 0 .818-.062 1.133-.187.315-.124.579-.26.792-.407v.869Zm-2.266-4.477a1.61 1.61 0 0 0-1.078.385c-.301.257-.491.646-.572 1.166h3.069c.029-.528-.092-.916-.363-1.166-.271-.256-.623-.385-1.056-.385Zm16.894-1.012c0 .286-.051.554-.154.803a1.921 1.921 0 0 1-1.067 1.056 2.129 2.129 0 0 1-.792.143c-.286 0-.55-.047-.792-.143a2.075 2.075 0 0 1-.638-.418 2.094 2.094 0 0 1-.418-.638 2.235 2.235 0 0 1-.143-.803c0-.293.048-.561.143-.803.103-.249.242-.462.418-.638.183-.176.396-.311.638-.407.242-.102.506-.154.792-.154.286 0 .55.052.792.154a1.859 1.859 0 0 1 1.067 1.045c.103.242.154.51.154.803Zm-4.884 5.973h-1.331l-3.509-6.479v6.479h-.979v-7.887h1.331l3.509 6.479v-6.479h.979v7.887Zm1.727-5.973c0 .374.103.682.308.924.205.242.484.363.836.363s.631-.121.836-.363c.213-.242.319-.55.319-.924s-.106-.682-.319-.924c-.205-.242-.484-.363-.836-.363s-.631.121-.836.363c-.205.242-.308.55-.308.924Zm9.138 5.973h-5.027v-1.045a62.69 62.69 0 0 0 1.727-1.43 12.58 12.58 0 0 0 1.21-1.155c.315-.352.55-.685.704-1.001.154-.322.231-.656.231-1.001 0-.432-.132-.781-.396-1.045-.257-.271-.634-.407-1.133-.407-.418 0-.807.103-1.166.308a3.97 3.97 0 0 0-.968.781v-1.111c.279-.271.594-.487.946-.649a2.908 2.908 0 0 1 1.221-.242c.411 0 .774.055 1.089.165.323.11.59.264.803.462.22.198.385.437.495.715.117.279.176.587.176.924 0 .426-.084.825-.253 1.199a4.392 4.392 0 0 1-.726 1.122 10.75 10.75 0 0 1-1.199 1.166c-.469.396-1.008.829-1.617 1.298h3.883v.946Zm5.473 1.529a6.427 6.427 0 0 1-1.276-2.233 8.452 8.452 0 0 1-.418-2.673c0-.462.033-.924.099-1.386.073-.462.179-.905.319-1.331.146-.432.322-.836.528-1.21.212-.374.462-.711.748-1.012h.957a4.242 4.242 0 0 0-.77.99 7.038 7.038 0 0 0-.539 1.199 7.77 7.77 0 0 0-.308 1.331 9.789 9.789 0 0 0-.099 1.386c0 .939.135 1.83.407 2.673a6.371 6.371 0 0 0 1.309 2.266h-.957Zm5.846-1.529h-1.617l-2.75-7.887h1.078l2.519 7.26 2.519-7.26h.99l-2.739 7.887Zm8.699 0h-4.873v-7.887h1.034v6.952h3.839v.935Zm3.523-7.887h1.54l2.827 7.887h-1.1l-.814-2.255h-3.487l-.803 2.255h-.968l2.805-7.887Zm2.123 4.697-1.408-3.927-1.408 3.927h2.816Zm9.739 3.19h-1.408l-3.96-6.622v6.622h-.979v-7.887h1.397l3.96 6.622v-6.622h.99v7.887Zm5.29-7.887v7.887h-1.034v-7.887h1.034Zm1.834 0h2.651c.528 0 1.019.063 1.474.187.455.125.851.33 1.188.616.337.286.601.664.792 1.133.191.47.286 1.049.286 1.738 0 .697-.099 1.309-.297 1.837a3.617 3.617 0 0 1-.803 1.309c-.337.352-.744.62-1.221.803a4.353 4.353 0 0 1-1.54.264h-2.53v-7.887Zm1.034.946v6.006h1.496c.403 0 .774-.062 1.111-.187a2.24 2.24 0 0 0 .869-.572c.242-.264.429-.597.561-1.001.132-.403.198-.883.198-1.441 0-.55-.066-1.004-.198-1.364-.132-.366-.315-.656-.55-.869a1.842 1.842 0 0 0-.825-.44 3.961 3.961 0 0 0-1.045-.132h-1.617Zm8.589 2.574v-.77h5.313v.77h-5.313Zm0 2.09v-.77h5.313v.77h-5.313Zm12.062-1.144v3.421h-1.056v-3.388l-2.695-4.499h1.188l2.068 3.586 2.112-3.586h1.056l-2.673 4.466Zm4.32 4.95a6.427 6.427 0 0 0 1.276-2.233 8.452 8.452 0 0 0 .418-2.673c0-.462-.036-.924-.11-1.386a7.18 7.18 0 0 0-.319-1.331 6.399 6.399 0 0 0-.528-1.21 4.837 4.837 0 0 0-.737-1.012h-.957c.301.286.558.616.77.99.213.374.389.774.528 1.199.147.426.253.869.319 1.331.066.462.099.924.099 1.386 0 .939-.139 1.83-.418 2.673a6.242 6.242 0 0 1-1.298 2.266h.957Z"/><rect width="105" height="283" x="28" y="58" fill="#FFF5CC" rx="5"/><path fill="#18123D" d="M46.156 130.11a4.136 4.136 0 0 1-1.486-.264 3.414 3.414 0 0 1-1.199-.792 3.755 3.755 0 0 1-.802-1.276c-.191-.506-.286-1.089-.286-1.749 0-.66.095-1.239.285-1.738.199-.506.466-.924.803-1.254.338-.337.738-.59 1.2-.759a4.136 4.136 0 0 1 1.485-.264c.535 0 1.034.088 1.495.264.462.169.862.422 1.2.759.337.337.6.759.791 1.265.191.499.286 1.078.286 1.738 0 .653-.095 1.232-.285 1.738-.191.506-.455.931-.793 1.276a3.414 3.414 0 0 1-1.199.792c-.462.176-.96.264-1.495.264Zm0-.935c.38 0 .733-.055 1.056-.165.322-.117.6-.297.835-.539.242-.249.43-.572.562-.968.139-.396.209-.876.209-1.441 0-.565-.07-1.045-.21-1.441-.131-.396-.319-.715-.56-.957a2.036 2.036 0 0 0-.837-.539 3.077 3.077 0 0 0-1.055-.176c-.382 0-.734.059-1.056.176-.323.11-.605.29-.848.539-.234.242-.421.561-.56.957-.133.396-.199.876-.199 1.441 0 .565.066 1.045.198 1.441.14.396.327.719.561.968.242.242.525.422.847.539.323.11.675.165 1.057.165Zm10.17-2.035c0 .477-.074.898-.22 1.265-.14.367-.334.678-.584.935a2.43 2.43 0 0 1-.869.572 2.992 2.992 0 0 1-1.1.198c-.403 0-.773-.066-1.11-.198a2.293 2.293 0 0 1-.87-.627 3.032 3.032 0 0 1-.572-1.056c-.132-.425-.198-.928-.198-1.507 0-.477.015-.931.044-1.364.03-.433.096-.832.198-1.199.103-.374.25-.708.44-1.001a2.42 2.42 0 0 1 1.364-.99 4.22 4.22 0 0 1 .594-.132c.206-.029.411-.048.616-.055l.605-.022a4.3 4.3 0 0 0 .737-.11c.198-.051.374-.121.528-.209v.88a1.684 1.684 0 0 1-.517.22c-.176.037-.392.07-.649.099-.418.037-.803.066-1.155.088-.344.015-.66.095-.946.242a1.707 1.707 0 0 0-.78.924c-.147.403-.239.884-.276 1.441.382-.88 1.1-1.32 2.156-1.32.36 0 .693.066 1.001.198.316.125.587.312.814.561.235.249.418.557.55.924.132.359.198.774.198 1.243Zm-2.773 2.101c.257 0 .492-.04.704-.121.22-.088.411-.216.572-.385.162-.176.286-.396.374-.66.088-.264.132-.576.132-.935 0-.359-.044-.671-.132-.935a1.702 1.702 0 0 0-.374-.649 1.441 1.441 0 0 0-.572-.385 1.824 1.824 0 0 0-.704-.132c-.506 0-.927.169-1.265.506-.33.337-.495.858-.495 1.562 0 .367.044.686.132.957.088.264.21.484.363.66.162.176.349.308.561.396.213.081.448.121.704.121Zm6.327.869c-.389 0-.752-.066-1.09-.198a2.541 2.541 0 0 1-.88-.572 2.787 2.787 0 0 1-.571-.935 3.547 3.547 0 0 1-.21-1.265c0-.469.07-.887.21-1.254.139-.374.33-.686.572-.935.249-.249.542-.44.88-.572.337-.132.7-.198 1.089-.198.396 0 .762.066 1.1.198.337.132.627.323.869.572.249.249.443.561.583.935.146.367.22.785.22 1.254 0 .477-.074.898-.22 1.265-.14.367-.334.678-.583.935-.242.249-.532.44-.87.572a2.992 2.992 0 0 1-1.1.198Zm0-.869c.256 0 .491-.04.704-.121.22-.088.41-.216.572-.385.161-.176.286-.396.374-.66.088-.264.132-.576.132-.935 0-.359-.044-.671-.132-.935a1.703 1.703 0 0 0-.374-.649 1.441 1.441 0 0 0-.572-.385 1.824 1.824 0 0 0-.704-.132c-.257 0-.492.044-.704.132-.213.081-.4.209-.561.385a1.788 1.788 0 0 0-.363.649 2.966 2.966 0 0 0-.132.935c0 .359.044.671.132.935.088.264.209.484.363.66.161.169.348.297.56.385.213.081.448.121.705.121Zm6.823.869c-.44 0-.822-.103-1.144-.308a2.24 2.24 0 0 1-.76-.847v2.992h-.967v-7.656h.847l.099 1.111c.19-.374.447-.671.77-.891.322-.22.722-.33 1.199-.33.33 0 .645.062.946.187.308.117.575.301.803.55a2.5 2.5 0 0 1 .55.924c.139.367.209.799.209 1.298 0 .506-.07.946-.21 1.32-.139.367-.326.675-.56.924a2.356 2.356 0 0 1-.814.55c-.308.117-.631.176-.968.176Zm-.143-.869c.506 0 .913-.172 1.22-.517.316-.352.474-.88.474-1.584 0-.689-.158-1.21-.473-1.562-.308-.359-.715-.539-1.221-.539-.25 0-.484.044-.704.132-.213.088-.4.22-.561.396a1.918 1.918 0 0 0-.374.649 2.925 2.925 0 0 0-.132.924c0 .352.044.66.132.924.095.264.22.484.374.66.161.176.348.308.56.396.22.081.455.121.705.121Zm6.619.693a6.534 6.534 0 0 1-.418.902 2.993 2.993 0 0 1-.495.671 1.773 1.773 0 0 1-.616.407 2.01 2.01 0 0 1-.781.143c-.147 0-.283-.011-.407-.033a1.237 1.237 0 0 1-.341-.088v-.935a.84.84 0 0 0 .308.132c.124.037.26.055.407.055.271 0 .495-.066.67-.198.177-.125.345-.326.507-.605l-2.321-6.094h1.067l1.815 4.818 1.804-4.818h.935l-2.134 5.643Zm2.451-.759a1.25 1.25 0 0 0 .484-.583c.117-.264.21-.598.275-1.001.066-.403.11-.88.132-1.43.03-.55.055-1.173.077-1.87h3.927v4.884h.858v2.453h-.847l-.12-1.628h-4.247l-.099 1.628h-.869v-2.453h.43Zm3.927 0v-4.059h-2.09c-.037 1.078-.106 1.943-.209 2.596-.095.645-.264 1.133-.506 1.463h2.805Zm5.073.935c-.389 0-.752-.066-1.09-.198a2.541 2.541 0 0 1-.88-.572 2.787 2.787 0 0 1-.571-.935 3.547 3.547 0 0 1-.21-1.265c0-.469.07-.887.21-1.254.139-.374.33-.686.572-.935.249-.249.542-.44.88-.572.337-.132.7-.198 1.089-.198.396 0 .762.066 1.1.198.337.132.627.323.869.572.249.249.443.561.583.935.146.367.22.785.22 1.254 0 .477-.074.898-.22 1.265-.14.367-.334.678-.583.935-.242.249-.532.44-.87.572a2.992 2.992 0 0 1-1.1.198Zm0-.869c.256 0 .491-.04.704-.121.22-.088.41-.216.572-.385.161-.176.286-.396.374-.66.088-.264.132-.576.132-.935 0-.359-.044-.671-.132-.935a1.703 1.703 0 0 0-.374-.649 1.441 1.441 0 0 0-.572-.385 1.824 1.824 0 0 0-.704-.132c-.257 0-.492.044-.704.132-.213.081-.4.209-.561.385a1.788 1.788 0 0 0-.363.649 2.966 2.966 0 0 0-.132.935c0 .359.044.671.132.935.088.264.209.484.363.66.161.169.348.297.56.385.213.081.448.121.705.121Zm3.952-4.95h2.134c.689 0 1.21.121 1.562.363.352.235.528.605.528 1.111 0 .337-.088.609-.264.814-.169.198-.411.341-.726.429.814.132 1.22.583 1.22 1.353 0 .293-.058.546-.175.759a1.453 1.453 0 0 1-.484.506 2.158 2.158 0 0 1-.748.286 4.631 4.631 0 0 1-.935.088h-2.112v-5.709Zm.968.825v1.551h1.078c.366 0 .66-.066.88-.198.227-.132.34-.323.34-.572 0-.301-.098-.506-.296-.616-.198-.11-.48-.165-.847-.165H89.55Zm0 2.321v1.738h1.133c.205 0 .388-.011.55-.033.168-.029.311-.077.429-.143a.713.713 0 0 0 .286-.264.78.78 0 0 0 .099-.407c0-.33-.114-.561-.341-.693-.228-.132-.569-.198-1.023-.198H89.55Zm8.284 1.474c-.066.132-.15.271-.253.418a1.912 1.912 0 0 1-.935.671c-.206.073-.448.11-.726.11-.514 0-.928-.143-1.243-.429-.316-.293-.473-.711-.473-1.254 0-.623.216-1.082.649-1.375.44-.293 1.063-.44 1.87-.44h1.067v-.473c0-.396-.103-.678-.308-.847-.206-.169-.558-.253-1.056-.253-.352 0-.686.059-1.001.176a4.74 4.74 0 0 0-.847.385v-.869c.205-.125.48-.246.825-.363a3.43 3.43 0 0 1 1.155-.187c.718 0 1.265.15 1.639.451.374.293.56.752.56 1.375v3.3c.008.081.012.165.012.253l.022.253c.007.073.014.136.022.187h-.88a5.068 5.068 0 0 1-.066-.429 6.626 6.626 0 0 1-.022-.495l-.011-.165Zm-1.705.33c.3 0 .557-.062.77-.187a1.91 1.91 0 0 0 .517-.429c.132-.169.227-.33.286-.484.058-.161.088-.275.088-.341v-.418h-.968c-.58 0-1.001.084-1.265.253-.257.161-.385.407-.385.737a.87.87 0 0 0 .23.627c.155.161.397.242.727.242Zm7.88-1.771h-2.761V130h-.968v-5.709h.968v2.354h2.761v-2.354h.968V130h-.968v-2.53Zm3.523 1.21 3.047-4.389h.979V130h-.968v-4.378L107.554 130h-.99v-5.709h.968v4.389Zm10.149.836c-.08.059-.179.121-.297.187a3.4 3.4 0 0 1-.429.198 3.59 3.59 0 0 1-.572.143 3.537 3.537 0 0 1-.715.066c-.96 0-1.69-.26-2.189-.781-.498-.521-.748-1.25-.748-2.189 0-.462.066-.876.198-1.243.14-.367.33-.675.572-.924.242-.257.528-.451.858-.583.33-.139.69-.209 1.078-.209.411 0 .778.07 1.1.209.323.139.587.345.792.616.213.271.356.609.429 1.012.081.396.081.858 0 1.386h-4.026c.037.616.22 1.078.55 1.386.33.301.822.451 1.474.451.44 0 .818-.062 1.133-.187.316-.125.58-.26.792-.407v.869Zm-2.266-4.477c-.418 0-.777.128-1.078.385-.3.257-.491.645-.572 1.166h3.069c.03-.528-.091-.917-.363-1.166-.271-.257-.623-.385-1.056-.385Zm-54.976 15.53h-.506V143h-.968v-5.709h.968v2.453h.55l2.002-2.453h1.1l-2.343 2.816L63.63 143h-1.177l-2.013-2.431Zm4.649.66c.103-.374.169-.88.198-1.518.03-.638.044-1.445.044-2.42h3.839V143h-.979v-4.884h-1.947a33.661 33.661 0 0 1-.077 2.09c-.037.609-.121 1.122-.253 1.54-.125.418-.312.737-.561.957-.242.213-.568.319-.979.319h-.088a.538.538 0 0 1-.099-.011v-.957a.784.784 0 0 0 .143.011c.374 0 .627-.279.759-.836Zm6.619.451 3.047-4.389h.979V143h-.968v-4.378L71.729 143h-.99v-5.709h.968v4.389Zm10.15.836a3.01 3.01 0 0 1-.298.187c-.117.066-.26.132-.429.198a3.62 3.62 0 0 1-.572.143 3.542 3.542 0 0 1-.715.066c-.96 0-1.69-.26-2.189-.781-.499-.521-.748-1.25-.748-2.189 0-.462.066-.876.198-1.243.14-.367.33-.675.572-.924.242-.257.528-.451.858-.583.33-.139.69-.209 1.078-.209.41 0 .777.07 1.1.209.323.139.587.345.792.616.213.271.356.609.43 1.012.08.396.08.858 0 1.386h-4.027c.037.616.22 1.078.55 1.386.33.301.821.451 1.474.451.44 0 .818-.062 1.133-.187.315-.125.58-.26.792-.407v.869Zm-2.267-4.477c-.418 0-.777.128-1.078.385-.3.257-.491.645-.572 1.166h3.07c.028-.528-.093-.917-.364-1.166-.271-.257-.623-.385-1.056-.385Zm7.371 2.431H84.2V143h-.968v-5.709h.968v2.354h2.761v-2.354h.968V143h-.968v-2.53Zm4.854-2.354V143h-.968v-4.884h-1.793v-.825h4.587v.825h-1.826Zm6.126 3.795c-.066.132-.15.271-.253.418a1.915 1.915 0 0 1-.935.671c-.205.073-.447.11-.726.11-.513 0-.927-.143-1.243-.429-.315-.293-.473-.711-.473-1.254 0-.623.217-1.082.65-1.375.44-.293 1.063-.44 1.87-.44h1.066v-.473c0-.396-.102-.678-.308-.847-.205-.169-.557-.253-1.056-.253-.352 0-.685.059-1 .176-.316.11-.598.238-.848.385v-.869c.206-.125.48-.246.825-.363a3.43 3.43 0 0 1 1.155-.187c.719 0 1.265.15 1.64.451.373.293.56.752.56 1.375v3.3c.008.081.011.165.011.253l.022.253.022.187h-.88a5.068 5.068 0 0 1-.066-.429 6.573 6.573 0 0 1-.022-.495l-.01-.165Zm-1.705.33c.3 0 .558-.062.77-.187.213-.125.385-.268.517-.429.132-.169.228-.33.286-.484.059-.161.088-.275.088-.341v-.418h-.968c-.58 0-1 .084-1.265.253-.256.161-.385.407-.385.737a.87.87 0 0 0 .231.627c.154.161.396.242.726.242Zm-48.835 8.05h2.134c.69 0 1.21.121 1.563.363.352.235.528.605.528 1.111 0 .337-.088.609-.264.814-.17.198-.411.341-.727.429.815.132 1.221.583 1.221 1.353 0 .293-.058.546-.175.759a1.455 1.455 0 0 1-.484.506 2.16 2.16 0 0 1-.748.286 4.632 4.632 0 0 1-.935.088H47.4v-5.709Zm.968.825v1.551h1.078c.367 0 .66-.066.88-.198.228-.132.342-.323.342-.572 0-.301-.1-.506-.297-.616-.199-.11-.48-.165-.847-.165H48.37Zm0 2.321v1.738h1.133c.206 0 .39-.011.55-.033.17-.029.312-.077.43-.143a.714.714 0 0 0 .285-.264.78.78 0 0 0 .1-.407c0-.33-.114-.561-.341-.693-.228-.132-.569-.198-1.024-.198H48.37Zm9.822 2.673c-.44 0-.84-.066-1.2-.198a2.623 2.623 0 0 1-.901-.583 2.57 2.57 0 0 1-.572-.935 3.692 3.692 0 0 1-.198-1.254c0-.462.066-.876.198-1.243.139-.367.333-.675.583-.924.249-.257.553-.451.913-.583.359-.139.766-.209 1.22-.209.353 0 .675.04.969.121.293.073.535.183.726.33v.869a2.558 2.558 0 0 0-.792-.341 3.254 3.254 0 0 0-.891-.121c-.668 0-1.159.172-1.474.517-.308.345-.462.873-.462 1.584 0 .711.15 1.239.45 1.584.301.345.778.517 1.43.517.345 0 .66-.04.947-.121.293-.088.557-.198.792-.33v.869a3.371 3.371 0 0 1-1.738.451Zm3.036-5.819h2.134c.689 0 1.21.121 1.562.363.352.235.528.605.528 1.111 0 .337-.088.609-.264.814-.169.198-.411.341-.726.429.814.132 1.22.583 1.22 1.353 0 .293-.058.546-.175.759a1.455 1.455 0 0 1-.484.506 2.16 2.16 0 0 1-.748.286 4.632 4.632 0 0 1-.935.088h-2.112v-5.709Zm.968.825v1.551h1.078c.366 0 .66-.066.88-.198.227-.132.34-.323.34-.572 0-.301-.098-.506-.296-.616-.198-.11-.48-.165-.847-.165h-1.155Zm0 2.321v1.738h1.133c.205 0 .388-.011.55-.033.168-.029.311-.077.429-.143a.714.714 0 0 0 .286-.264.78.78 0 0 0 .099-.407c0-.33-.114-.561-.341-.693-.228-.132-.569-.198-1.023-.198h-1.133Zm7.283 2.673c-.389 0-.752-.066-1.09-.198a2.54 2.54 0 0 1-.88-.572 2.787 2.787 0 0 1-.571-.935 3.545 3.545 0 0 1-.21-1.265c0-.469.07-.887.21-1.254.14-.374.33-.686.572-.935.25-.249.543-.44.88-.572.337-.132.7-.198 1.089-.198.396 0 .763.066 1.1.198.337.132.627.323.869.572.25.249.444.561.583.935.147.367.22.785.22 1.254 0 .477-.073.898-.22 1.265-.14.367-.334.678-.583.935-.242.249-.532.44-.87.572a2.993 2.993 0 0 1-1.1.198Zm0-.869c.257 0 .491-.04.704-.121.22-.088.41-.216.572-.385.161-.176.286-.396.374-.66.088-.264.132-.576.132-.935 0-.359-.044-.671-.132-.935a1.703 1.703 0 0 0-.374-.649 1.442 1.442 0 0 0-.572-.385 1.824 1.824 0 0 0-.704-.132c-.257 0-.491.044-.704.132-.213.081-.4.209-.561.385a1.788 1.788 0 0 0-.363.649 2.966 2.966 0 0 0-.132.935c0 .359.044.671.132.935.088.264.209.484.363.66.161.169.348.297.56.385.214.081.448.121.705.121Zm7.252-6.072a.626.626 0 0 1-.462-.176.644.644 0 0 1-.165-.44c0-.176.055-.323.165-.44a.604.604 0 0 1 .462-.187.57.57 0 0 1 .45.187.597.597 0 0 1 .177.44.621.621 0 0 1-.176.44.59.59 0 0 1-.451.176Zm-2.068 0a.612.612 0 0 1-.451-.176.62.62 0 0 1-.176-.44c0-.176.058-.323.176-.44a.59.59 0 0 1 .45-.187.57.57 0 0 1 .452.187.597.597 0 0 1 .176.44.621.621 0 0 1-.176.44.59.59 0 0 1-.451.176Zm3.31 6.347a3.01 3.01 0 0 1-.296.187c-.118.066-.26.132-.43.198a3.62 3.62 0 0 1-.571.143 3.542 3.542 0 0 1-.715.066c-.96 0-1.69-.26-2.19-.781-.498-.521-.747-1.25-.747-2.189 0-.462.066-.876.198-1.243.14-.367.33-.675.572-.924.242-.257.528-.451.858-.583.33-.139.69-.209 1.078-.209.41 0 .777.07 1.1.209.322.139.586.345.792.616.212.271.355.609.429 1.012.08.396.08.858 0 1.386h-4.026c.036.616.22 1.078.55 1.386.33.301.821.451 1.474.451.44 0 .817-.062 1.133-.187.315-.125.58-.26.792-.407v.869Zm-2.265-4.477c-.418 0-.778.128-1.078.385-.3.257-.492.645-.572 1.166h3.069c.03-.528-.092-.917-.363-1.166-.272-.257-.624-.385-1.056-.385Zm9.087.374-1.936 3.949h-.77l-1.826-3.971V156h-.913v-5.709h1.44l1.75 3.828 1.87-3.828h1.342V156h-.957v-4.587Zm11.014 3.652h1.034v2.805h-.968l-.12-1.87h-5.875v-7.887h1.034v6.952h3.85v-6.952h1.045v6.952Zm5.482 1.045a4.138 4.138 0 0 1-1.485-.264 3.414 3.414 0 0 1-1.2-.792 3.754 3.754 0 0 1-.802-1.276c-.19-.506-.286-1.089-.286-1.749 0-.66.095-1.239.286-1.738.198-.506.465-.924.803-1.254.337-.337.737-.59 1.199-.759a4.138 4.138 0 0 1 1.485-.264c.535 0 1.034.088 1.496.264.462.169.861.422 1.199.759.337.337.601.759.792 1.265.19.499.286 1.078.286 1.738 0 .653-.096 1.232-.286 1.738a3.634 3.634 0 0 1-.792 1.276 3.42 3.42 0 0 1-1.199.792 4.169 4.169 0 0 1-1.496.264Zm0-.935c.381 0 .733-.055 1.056-.165.322-.117.601-.297.836-.539.242-.249.429-.572.561-.968.139-.396.209-.876.209-1.441 0-.565-.07-1.045-.209-1.441-.132-.396-.319-.715-.561-.957a2.042 2.042 0 0 0-.836-.539 3.079 3.079 0 0 0-1.056-.176 3.07 3.07 0 0 0-1.056.176c-.323.11-.605.29-.847.539-.235.242-.422.561-.561.957-.132.396-.198.876-.198 1.441 0 .565.066 1.045.198 1.441.14.396.326.719.56.968.243.242.525.422.848.539.322.11.674.165 1.056.165Zm10.838-.11h1.012v2.805h-.957l-.11-1.87h-5.665l-.121 1.87h-.935v-2.805h.539c.249-.227.447-.532.594-.913.154-.389.271-.865.352-1.43.08-.565.139-1.228.176-1.991.036-.763.066-1.635.088-2.618h5.027v6.952Zm-1.045 0v-6.006h-3.014a53.887 53.887 0 0 1-.099 2.222 16.178 16.178 0 0 1-.176 1.683 7.394 7.394 0 0 1-.286 1.243c-.11.337-.25.623-.418.858h3.993Z"/><path fill="#D1D0D8" d="M79.996 111c11.045 0 20-8.954 20-20s-8.955-20-20-20c-11.046 0-20 8.954-20 20s8.954 20 20 20Z"/><path fill="#fff" d="M81.39 86.03h2.727l-4-4.97-4 4.97h2.788v10.424h-2.788l4 4.97 4-4.97h-2.728V86.03Z"/><path fill="#fff" d="M90.36 90.03h-2.607v-2.788l-4.97 4 4.97 4v-2.727h2.606V90.03ZM69.935 89.788h2.606V87l4.97 4-4.97 4v-2.727h-2.606v-2.485Z"/><rect width="88" height="43" x="171" y="38" fill="#DDF2E1" rx="5"/><path fill="#000" d="M182.541 53.623h-.836V57h-1.034v-7.887h1.034v3.575h.77l2.816-3.575h1.166l-3.113 3.938L186.578 57h-1.287l-2.75-3.377Zm8.228 2.288c-.066.132-.15.271-.253.418a1.923 1.923 0 0 1-.935.671c-.205.073-.447.11-.726.11-.513 0-.928-.143-1.243-.429-.315-.293-.473-.711-.473-1.254 0-.623.216-1.082.649-1.375.44-.293 1.063-.44 1.87-.44h1.067v-.473c0-.396-.103-.678-.308-.847-.205-.169-.557-.253-1.056-.253-.352 0-.686.059-1.001.176-.315.11-.598.238-.847.385v-.869c.205-.125.48-.246.825-.363a3.437 3.437 0 0 1 1.155-.187c.719 0 1.265.15 1.639.451.374.293.561.752.561 1.375v3.3c.007.08.011.165.011.253l.022.253c.007.073.015.136.022.187h-.88a5.03 5.03 0 0 1-.066-.429 6.405 6.405 0 0 1-.022-.495l-.011-.165Zm-1.705.33c.301 0 .557-.062.77-.187.213-.125.385-.268.517-.429.132-.169.227-.33.286-.484.059-.161.088-.275.088-.341v-.418h-.968c-.579 0-1.001.084-1.265.253-.257.161-.385.407-.385.737a.87.87 0 0 0 .231.627c.154.161.396.242.726.242Zm7.88-1.771h-2.761V57h-.968v-5.709h.968v2.354h2.761v-2.354h.968V57h-.968v-2.53Zm5.899 1.441c-.066.132-.15.271-.253.418a1.897 1.897 0 0 1-.935.671c-.205.073-.447.11-.726.11-.513 0-.927-.143-1.243-.429-.315-.293-.473-.711-.473-1.254 0-.623.217-1.082.649-1.375.44-.293 1.064-.44 1.87-.44h1.067v-.473c0-.396-.102-.678-.308-.847-.205-.169-.557-.253-1.056-.253a2.85 2.85 0 0 0-1.001.176 4.79 4.79 0 0 0-.847.385v-.869a4.31 4.31 0 0 1 .825-.363 3.437 3.437 0 0 1 1.155-.187c.719 0 1.265.15 1.639.451.374.293.561.752.561 1.375v3.3c.008.08.011.165.011.253l.022.253.022.187h-.88a5.03 5.03 0 0 1-.066-.429 6.951 6.951 0 0 1-.022-.495l-.011-.165Zm-1.705.33c.301 0 .558-.062.77-.187.213-.125.385-.268.517-.429.132-.169.228-.33.286-.484.059-.161.088-.275.088-.341v-.418h-.968c-.579 0-1.001.084-1.265.253-.256.161-.385.407-.385.737a.87.87 0 0 0 .231.627c.154.161.396.242.726.242Zm4.591-1.012c.103-.374.169-.88.198-1.518.03-.638.044-1.445.044-2.42h3.839V57h-.979v-4.884h-1.947a33.43 33.43 0 0 1-.077 2.09c-.036.609-.121 1.122-.253 1.54-.124.418-.311.737-.561.957-.242.213-.568.319-.979.319h-.088a.518.518 0 0 1-.099-.011v-.957a.764.764 0 0 0 .143.011c.374 0 .627-.279.759-.836Zm9.875-.132c0 .33-.059.616-.176.858-.117.242-.282.44-.495.594a2.186 2.186 0 0 1-.759.341c-.293.073-.612.11-.957.11h-1.837v-5.709h.968v1.991h.935c.726 0 1.294.143 1.705.429.411.286.616.748.616 1.386ZM217.397 57h-.968v-5.709h.968V57Zm-5.049-2.893v2.068h.869c.418 0 .755-.077 1.012-.231.264-.161.396-.425.396-.792 0-.374-.117-.642-.352-.803-.235-.161-.565-.242-.99-.242h-.935Zm11.519 3.003c-.44 0-.84-.066-1.199-.198a2.62 2.62 0 0 1-.902-.583 2.562 2.562 0 0 1-.572-.935 3.69 3.69 0 0 1-.198-1.254c0-.462.066-.876.198-1.243a2.57 2.57 0 0 1 .583-.924c.249-.257.553-.451.913-.583.359-.14.766-.209 1.221-.209.352 0 .674.04.968.121.293.073.535.183.726.33v.869a2.57 2.57 0 0 0-.792-.341 3.265 3.265 0 0 0-.891-.121c-.668 0-1.159.172-1.474.517-.308.345-.462.873-.462 1.584 0 .711.15 1.24.451 1.584.3.345.777.517 1.43.517.344 0 .66-.04.946-.121.293-.088.557-.198.792-.33v.869a3.371 3.371 0 0 1-1.738.451Zm3.036-5.819h2.134c.689 0 1.21.121 1.562.363.352.235.528.605.528 1.111 0 .337-.088.609-.264.814-.169.198-.411.341-.726.429.814.132 1.221.583 1.221 1.353 0 .293-.059.546-.176.759a1.46 1.46 0 0 1-.484.506 2.16 2.16 0 0 1-.748.286 4.656 4.656 0 0 1-.935.088h-2.112v-5.709Zm.968.825v1.551h1.078c.366 0 .66-.066.88-.198.227-.132.341-.323.341-.572 0-.3-.099-.506-.297-.616-.198-.11-.481-.165-.847-.165h-1.155Zm0 2.321v1.738h1.133c.205 0 .388-.011.55-.033.168-.03.311-.077.429-.143a.718.718 0 0 0 .286-.264.778.778 0 0 0 .099-.407c0-.33-.114-.561-.341-.693-.228-.132-.569-.198-1.023-.198h-1.133Zm4.779-1.298c0-.323.058-.598.176-.825a1.49 1.49 0 0 1 .495-.572 2.17 2.17 0 0 1 .759-.341c.293-.073.612-.11.957-.11h1.837V57h-.968v-2.068h-1.045L233.398 57h-1.155l1.65-2.31c-.396-.117-.704-.297-.924-.539-.213-.242-.319-.58-.319-1.012Zm3.256.968v-1.991h-.869c-.411 0-.748.077-1.012.231-.264.154-.396.403-.396.748 0 .36.117.62.352.781.234.154.568.231 1.001.231h.924Zm6.603 1.232c0 .323-.066.598-.198.825-.124.22-.297.403-.517.55-.22.14-.476.238-.77.297a3.996 3.996 0 0 1-.902.099c-.418 0-.788-.044-1.111-.132a2.58 2.58 0 0 1-.748-.319v-.869c.228.14.499.25.814.33.316.08.657.121 1.023.121.418 0 .767-.066 1.045-.198.286-.14.429-.374.429-.704 0-.323-.121-.55-.363-.682-.234-.132-.597-.198-1.089-.198h-.759v-.781h.792c.404 0 .712-.073.924-.22.213-.147.319-.36.319-.638a.574.574 0 0 0-.11-.363.676.676 0 0 0-.275-.242 1.161 1.161 0 0 0-.418-.132 2.648 2.648 0 0 0-.495-.044c-.337 0-.652.04-.946.121-.286.08-.546.194-.781.341v-.869a2.79 2.79 0 0 1 .737-.319 3.898 3.898 0 0 1 1.067-.132c.697 0 1.221.132 1.573.396.36.264.539.645.539 1.144 0 .374-.102.667-.308.88-.198.213-.48.36-.847.44.455.059.796.202 1.023.429.235.227.352.517.352.869Zm2.388.341 3.047-4.389h.979V57h-.968v-4.378L244.919 57h-.99v-5.709h.968v4.389Zm-54.21 14.43a2.96 2.96 0 0 1-1.089-.198 2.528 2.528 0 0 1-.88-.572 2.782 2.782 0 0 1-.572-.935 3.532 3.532 0 0 1-.209-1.265c0-.47.069-.887.209-1.254.139-.374.33-.686.572-.935.249-.25.542-.44.88-.572a2.96 2.96 0 0 1 1.089-.198c.396 0 .762.066 1.1.198.337.132.627.323.869.572.249.25.443.561.583.935.146.367.22.785.22 1.254a3.4 3.4 0 0 1-.22 1.265c-.14.367-.334.678-.583.935a2.43 2.43 0 0 1-.869.572 2.995 2.995 0 0 1-1.1.198Zm0-.869c.256 0 .491-.04.704-.121.22-.088.41-.216.572-.385.161-.176.286-.396.374-.66.088-.264.132-.576.132-.935 0-.36-.044-.671-.132-.935a1.705 1.705 0 0 0-.374-.649 1.443 1.443 0 0 0-.572-.385 1.828 1.828 0 0 0-.704-.132 1.82 1.82 0 0 0-.704.132c-.213.08-.4.209-.561.385a1.785 1.785 0 0 0-.363.649 2.965 2.965 0 0 0-.132.935c0 .36.044.671.132.935.088.264.209.484.363.66.161.169.348.297.561.385.212.08.447.121.704.121Zm3.951-4.95h4.576V70h-.968v-4.884h-2.64V70h-.968v-5.709Zm10.699 5.225a3.143 3.143 0 0 1-.726.385c-.169.059-.36.106-.572.143a3.544 3.544 0 0 1-.715.066c-.961 0-1.691-.26-2.189-.781-.499-.52-.748-1.25-.748-2.189 0-.462.066-.876.198-1.243a2.66 2.66 0 0 1 .572-.924 2.38 2.38 0 0 1 .858-.583c.33-.14.689-.209 1.078-.209.41 0 .777.07 1.1.209.322.14.586.345.792.616.212.271.355.609.429 1.012.08.396.08.858 0 1.386h-4.026c.036.616.22 1.078.55 1.386.33.3.821.451 1.474.451.44 0 .817-.062 1.133-.187.315-.125.579-.26.792-.407v.869Zm-2.266-4.477c-.418 0-.778.128-1.078.385-.301.257-.492.645-.572 1.166h3.069c.029-.528-.092-.917-.363-1.166-.272-.257-.624-.385-1.056-.385Zm6.513 5.071c-.44 0-.822-.103-1.144-.308a2.229 2.229 0 0 1-.759-.847v2.992h-.968v-7.656h.847l.099 1.111c.19-.374.447-.671.77-.891.322-.22.722-.33 1.199-.33.33 0 .645.062.946.187.308.117.575.3.803.55.234.242.418.55.55.924.139.367.209.8.209 1.298 0 .506-.07.946-.209 1.32a2.78 2.78 0 0 1-.561.924 2.356 2.356 0 0 1-.814.55 2.698 2.698 0 0 1-.968.176Zm-.143-.869c.506 0 .913-.172 1.221-.517.315-.352.473-.88.473-1.584 0-.69-.158-1.21-.473-1.562-.308-.36-.715-.539-1.221-.539-.25 0-.484.044-.704.132-.213.088-.4.22-.561.396a1.908 1.908 0 0 0-.374.649 2.925 2.925 0 0 0-.132.924c0 .352.044.66.132.924.095.264.22.484.374.66.161.176.348.308.561.396.22.08.454.121.704.121Zm7.158-.33a3.429 3.429 0 0 1-.253.418 1.923 1.923 0 0 1-.935.671c-.206.073-.448.11-.726.11-.514 0-.928-.143-1.243-.429-.316-.293-.473-.711-.473-1.254 0-.623.216-1.082.649-1.375.44-.293 1.063-.44 1.87-.44h1.067v-.473c0-.396-.103-.678-.308-.847-.206-.169-.558-.253-1.056-.253-.352 0-.686.059-1.001.176-.316.11-.598.238-.847.385v-.869c.205-.125.48-.246.825-.363a3.437 3.437 0 0 1 1.155-.187c.718 0 1.265.15 1.639.451.374.293.561.752.561 1.375v3.3c.007.08.011.165.011.253l.022.253c.007.073.014.136.022.187h-.88a5.03 5.03 0 0 1-.066-.429 6.405 6.405 0 0 1-.022-.495l-.011-.165Zm-1.705.33c.3 0 .557-.062.77-.187a1.91 1.91 0 0 0 .517-.429c.132-.169.227-.33.286-.484.058-.161.088-.275.088-.341v-.418h-.968c-.58 0-1.001.084-1.265.253-.257.161-.385.407-.385.737a.87.87 0 0 0 .231.627c.154.161.396.242.726.242Zm6.396-4.125V70h-.968v-4.884h-1.793v-.825h4.587v.825h-1.826Zm5.125 4.994a2.96 2.96 0 0 1-1.089-.198 2.537 2.537 0 0 1-.88-.572 2.782 2.782 0 0 1-.572-.935 3.554 3.554 0 0 1-.209-1.265c0-.47.07-.887.209-1.254.139-.374.33-.686.572-.935.249-.25.543-.44.88-.572a2.96 2.96 0 0 1 1.089-.198c.396 0 .763.066 1.1.198.337.132.627.323.869.572.249.25.444.561.583.935.147.367.22.785.22 1.254 0 .477-.073.898-.22 1.265a2.697 2.697 0 0 1-.583.935 2.43 2.43 0 0 1-.869.572 2.991 2.991 0 0 1-1.1.198Zm0-.869c.257 0 .491-.04.704-.121.22-.088.411-.216.572-.385.161-.176.286-.396.374-.66.088-.264.132-.576.132-.935 0-.36-.044-.671-.132-.935a1.705 1.705 0 0 0-.374-.649 1.436 1.436 0 0 0-.572-.385 1.824 1.824 0 0 0-.704-.132c-.257 0-.491.044-.704.132-.213.08-.4.209-.561.385a1.785 1.785 0 0 0-.363.649 2.965 2.965 0 0 0-.132.935c0 .36.044.671.132.935.088.264.209.484.363.66.161.169.348.297.561.385.213.08.447.121.704.121Zm6.823.869c-.44 0-.821-.103-1.144-.308a2.245 2.245 0 0 1-.759-.847v2.992h-.968v-7.656h.847l.099 1.111c.191-.374.447-.671.77-.891.323-.22.722-.33 1.199-.33.33 0 .645.062.946.187.308.117.576.3.803.55.235.242.418.55.55.924.139.367.209.8.209 1.298 0 .506-.07.946-.209 1.32a2.748 2.748 0 0 1-.561.924 2.356 2.356 0 0 1-.814.55 2.698 2.698 0 0 1-.968.176Zm-.143-.869c.506 0 .913-.172 1.221-.517.315-.352.473-.88.473-1.584 0-.69-.158-1.21-.473-1.562-.308-.36-.715-.539-1.221-.539a1.88 1.88 0 0 0-.704.132c-.213.088-.4.22-.561.396a1.908 1.908 0 0 0-.374.649 2.925 2.925 0 0 0-.132.924c0 .352.044.66.132.924.095.264.22.484.374.66.161.176.348.308.561.396.22.08.455.121.704.121Zm7.158-.33c-.066.132-.15.271-.253.418a1.923 1.923 0 0 1-.935.671c-.205.073-.447.11-.726.11-.513 0-.928-.143-1.243-.429-.315-.293-.473-.711-.473-1.254 0-.623.216-1.082.649-1.375.44-.293 1.063-.44 1.87-.44h1.067v-.473c0-.396-.103-.678-.308-.847-.205-.169-.557-.253-1.056-.253-.352 0-.686.059-1.001.176-.315.11-.598.238-.847.385v-.869c.205-.125.48-.246.825-.363a3.437 3.437 0 0 1 1.155-.187c.719 0 1.265.15 1.639.451.374.293.561.752.561 1.375v3.3c.007.08.011.165.011.253l.022.253c.007.073.015.136.022.187h-.88a5.03 5.03 0 0 1-.066-.429 6.405 6.405 0 0 1-.022-.495l-.011-.165Zm-1.705.33c.301 0 .557-.062.77-.187.213-.125.385-.268.517-.429.132-.169.227-.33.286-.484.059-.161.088-.275.088-.341v-.418h-.968c-.579 0-1.001.084-1.265.253-.257.161-.385.407-.385.737a.87.87 0 0 0 .231.627c.154.161.396.242.726.242Z"/><path fill="#4E496B" d="m107 91 10 5.773V85.227L107 91Zm216 0-10-5.773v11.546L323 91Zm-207 1h198v-2H116v2Z"/></g><defs><clipPath id="a"><path fill="#fff" d="M0 0h700v365H0z"/></clipPath><filter id="b" width="151.34" height="367.34" x="4.83" y="-2.17" color-interpolation-filters="sRGB" filterUnits="userSpaceOnUse"><feFlood flood-opacity="0" result="BackgroundImageFix"/><feColorMatrix in="SourceAlpha" result="hardAlpha" values="0 0 0 0 0 0 0 0 0 0 0 0 0 0 0 0 0 0 127 0"/><feOffset/><feGaussianBlur stdDeviation="3.585"/><feComposite in2="hardAlpha" operator="out"/><feColorMatrix values="0 0 0 0 0.592157 0 0 0 0 0.74902 0 0 0 0 0.905882 0 0 0 0.4 0"/><feBlend in2="BackgroundImageFix" result="effect1_dropShadow_329_176"/><feBlend in="SourceGraphic" in2="effect1_dropShadow_329_176" result="shape"/></filter></defs></svg>