<svg xmlns="http://www.w3.org/2000/svg" xmlns:xlink="http://www.w3.org/1999/xlink" width="15" height="15" class="g-icon" fill="currentColor" stroke="none" aria-hidden="true"><svg xmlns="http://www.w3.org/2000/svg" fill="none" viewBox="0 0 14 12"><path stroke="currentColor" stroke-width="1.5" d="M.75 2.5c0-.69.56-1.25 1.25-1.25h5c.69 0 1.25.56 1.25 1.25v1c0 .69-.56 1.25-1.25 1.25H2C1.31 4.75.75 4.19.75 3.5zm12.5 7c0 .69-.56 1.25-1.25 1.25H8c-.69 0-1.25-.56-1.25-1.25v-1c0-.69.56-1.25 1.25-1.25h4c.69 0 1.25.56 1.25 1.25zm-2.5-7a1.25 1.25 0 1 1 2.5 0v1a1.25 1.25 0 1 1-2.5 0zm-6.5 7c0 .69-.56 1.25-1.25 1.25H2c-.69 0-1.25-.56-1.25-1.25v-1c0-.69.56-1.25 1.25-1.25h1c.69 0 1.25.56 1.25 1.25z"></path></svg></svg>