<svg xmlns="http://www.w3.org/2000/svg" width="16" height="16" viewBox="0 0 16 16"><path d="M3.933 8c0-2.267 1.8-4.067 4.066-4.067s4.066 1.8 4.066 4.066-1.8 4.066-4.066 4.066S3.933 10.265 3.933 8zm10.199-.067l1.866-.334-.4-2-1.866.334c-.333-.867-.8-1.667-1.467-2.267l1.067-1.6L11.666.933l-1.067 1.6c-.8-.4-1.667-.6-2.6-.6h-.066L7.599.067l-2 .4.334 1.866c-.867.333-1.667.8-2.267 1.467l-1.6-1.067L.933 4.4l1.6 1.066c-.4.8-.6 1.667-.6 2.6v.067l-1.866.333.4 2 1.866-.334c.333.867.8 1.667 1.467 2.267l-1.067 1.6L4.4 15.132l1.066-1.6c.8.4 1.667.6 2.6.6h.067l.333 1.866 2-.4-.334-1.866c.867-.333 2.267-1.467 2.267-1.467l1.6 1.067 1.133-1.667-1.6-1.066c.4-.8.6-1.667.6-2.6v-.066z" fill="currentColor"/></svg>
