<svg width="14" height="12" viewBox="0 0 14 12" fill="none" xmlns="http://www.w3.org/2000/svg">
<path fill-rule="evenodd" clip-rule="evenodd" d="M7.875 0.846154H13.5625C13.8031 0.846154 14 1.03654 14 1.26923V2.11538C14 2.34808 13.8031 2.53846 13.5625 2.53846H7.875V2.96154C7.875 3.19423 7.67813 3.38462 7.4375 3.38462H6.5625C6.32188 3.38462 6.125 3.19423 6.125 2.96154V2.53846H0.4375C0.196875 2.53846 0 2.34808 0 2.11538V1.26923C0 1.03654 0.196875 0.846154 0.4375 0.846154H6.125V0.423077C6.125 0.190385 6.32188 0 6.5625 0H7.4375C7.67813 0 7.875 0.190385 7.875 0.423077V0.846154ZM13.5625 5.07693H11.375V4.65385C11.375 4.42116 11.1781 4.23077 10.9375 4.23077H10.0625C9.82188 4.23077 9.625 4.42116 9.625 4.65385V5.07693H0.4375C0.196875 5.07693 0 5.26731 0 5.5V6.34616C0 6.57885 0.196875 6.76923 0.4375 6.76923H9.625V7.19231C9.625 7.425 9.82188 7.61539 10.0625 7.61539H10.9375C11.1781 7.61539 11.375 7.425 11.375 7.19231V6.76923H13.5625C13.8031 6.76923 14 6.57885 14 6.34616V5.5C14 5.26731 13.8031 5.07693 13.5625 5.07693ZM13.5625 9.30769H4.375V8.88461C4.375 8.65192 4.17813 8.46153 3.9375 8.46153H3.0625C2.82188 8.46153 2.625 8.65192 2.625 8.88461V9.30769H0.4375C0.196875 9.30769 0 9.49807 0 9.73077V10.5769C0 10.8096 0.196875 11 0.4375 11H2.625V11.4231C2.625 11.6558 2.82188 11.8462 3.0625 11.8462H3.9375C4.17813 11.8462 4.375 11.6558 4.375 11.4231V11H13.5625C13.8031 11 14 10.8096 14 10.5769V9.73077C14 9.49807 13.8031 9.30769 13.5625 9.30769Z" fill="white"/>
</svg>
