<svg xmlns="http://www.w3.org/2000/svg" width="690" height="881" fill="none" viewBox="0 0 690 881">
    <g filter="url(#filter0_dd_7_41)">
        <rect width="662" height="245" x="15" y="12" fill="#fff" rx="7"/>
    </g>
    <path fill="#fff" stroke="#5282FF" stroke-width="2" d="M670 722H22a7 7 0 0 0-7 7v133a7 7 0 0 0 7 7h648a7 7 0 0 0 7-7V729a7 7 0 0 0-7-7Z"/>
    <path fill="#E3EBFF" d="M475 799H371a8 8 0 0 0-8 8v34a8 8 0 0 0 8 8h104a8 8 0 0 0 8-8v-34a8 8 0 0 0-8-8Z"/>
    <path fill="#262626" d="M409.635 819.396h2.892c.576 0 1.112.068 1.608.204.496.136.928.36 1.296.672.368.312.656.724.864 1.236.208.512.312 1.144.312 1.896 0 .76-.108 1.428-.324 2.004a3.949 3.949 0 0 1-.876 1.428 3.615 3.615 0 0 1-1.332.876 4.749 4.749 0 0 1-1.68.288h-2.76v-8.604Zm1.128 1.032v6.552h1.632c.44 0 .844-.068 1.212-.204.368-.136.684-.344.948-.624.264-.288.468-.652.612-1.092.144-.44.216-.964.216-1.572 0-.6-.072-1.096-.216-1.488-.144-.4-.344-.716-.6-.948a2.003 2.003 0 0 0-.9-.48 4.32 4.32 0 0 0-1.14-.144h-1.764Zm7.741.432c-.216 0-.388-.064-.516-.192a.692.692 0 0 1-.192-.492.675.675 0 0 1 .708-.696c.208 0 .372.068.492.204.12.136.18.3.18.492s-.06.356-.18.492c-.12.128-.284.192-.492.192Zm.516.912V828h-1.056v-6.228h1.056Zm3.713 6.348c-.328 0-.62-.028-.876-.084a4.113 4.113 0 0 1-.66-.18c-.184-.08-.34-.16-.468-.24a3.161 3.161 0 0 1-.3-.228v-.948c.08.08.188.168.324.264.136.088.3.172.492.252.192.08.408.148.648.204.248.048.524.072.828.072.448 0 .804-.072 1.068-.216.264-.144.396-.388.396-.732a.698.698 0 0 0-.132-.444.801.801 0 0 0-.336-.264 2.07 2.07 0 0 0-.504-.168c-.184-.04-.38-.08-.588-.12a22.265 22.265 0 0 1-.78-.18 2.73 2.73 0 0 1-.696-.3 1.633 1.633 0 0 1-.504-.516c-.128-.216-.192-.496-.192-.84 0-.56.216-1 .648-1.32.44-.32 1.052-.48 1.836-.48.44 0 .828.044 1.164.132.344.088.608.184.792.288v.948a2.824 2.824 0 0 0-.78-.336c-.304-.096-.684-.144-1.14-.144-.472 0-.836.064-1.092.192-.248.128-.372.36-.372.696 0 .168.036.304.108.408a.856.856 0 0 0 .288.24c.128.056.272.1.432.132.16.032.328.068.504.108.272.056.552.116.84.18.288.064.544.164.768.3.232.136.42.32.564.552.152.224.228.528.228.912 0 .36-.072.66-.216.9-.144.24-.336.432-.576.576-.232.136-.5.232-.804.288-.296.064-.6.096-.912.096Zm5.417-2.772h-.552V828h-1.056v-8.604h1.056v5.052h.6l2.184-2.676h1.2l-2.556 3.072L431.63 828h-1.284l-2.196-2.652Zm6.278 2.772c-.328 0-.62-.028-.876-.084a4.113 4.113 0 0 1-.66-.18c-.184-.08-.34-.16-.468-.24a3.161 3.161 0 0 1-.3-.228v-.948c.08.08.188.168.324.264.136.088.3.172.492.252.192.08.408.148.648.204.248.048.524.072.828.072.448 0 .804-.072 1.068-.216.264-.144.396-.388.396-.732a.698.698 0 0 0-.132-.444.801.801 0 0 0-.336-.264 2.07 2.07 0 0 0-.504-.168c-.184-.04-.38-.08-.588-.12a22.265 22.265 0 0 1-.78-.18 2.73 2.73 0 0 1-.696-.3 1.633 1.633 0 0 1-.504-.516c-.128-.216-.192-.496-.192-.84 0-.56.216-1 .648-1.32.44-.32 1.052-.48 1.836-.48.44 0 .828.044 1.164.132.344.088.608.184.792.288v.948a2.824 2.824 0 0 0-.78-.336c-.304-.096-.684-.144-1.14-.144-.472 0-.836.064-1.092.192-.248.128-.372.36-.372.696 0 .168.036.304.108.408a.856.856 0 0 0 .288.24c.128.056.272.1.432.132.16.032.328.068.504.108.272.056.552.116.84.18.288.064.544.164.768.3.232.136.42.32.564.552.152.224.228.528.228.912 0 .36-.072.66-.216.9-.144.24-.336.432-.576.576-.232.136-.5.232-.804.288-.296.064-.6.096-.912.096Z"/>
    <path fill="#E3EBFF" d="M321 799H217a8 8 0 0 0-8 8v34a8 8 0 0 0 8 8h104a8 8 0 0 0 8-8v-34a8 8 0 0 0-8-8Z"/>
    <path fill="#262626" d="M252.094 828.12c-.392 0-.744-.028-1.056-.084a5.07 5.07 0 0 1-.828-.192 4.264 4.264 0 0 1-.6-.276 2.38 2.38 0 0 1-.384-.3v-1.08c.12.104.276.212.468.324.192.104.412.2.66.288.256.088.528.16.816.216.296.056.604.084.924.084.624 0 1.12-.116 1.488-.348.368-.24.552-.6.552-1.08 0-.24-.044-.436-.132-.588a1.07 1.07 0 0 0-.384-.396 2.236 2.236 0 0 0-.636-.276c-.248-.08-.54-.164-.876-.252a16.032 16.032 0 0 1-1.008-.3 3.714 3.714 0 0 1-.912-.444 2.247 2.247 0 0 1-.648-.696c-.16-.28-.24-.636-.24-1.068 0-.744.26-1.324.78-1.74.52-.416 1.316-.624 2.388-.624.312 0 .588.02.828.06.248.032.464.076.648.132.192.048.356.104.492.168.144.064.272.124.384.18v1.08a3.368 3.368 0 0 0-1.092-.456 5.19 5.19 0 0 0-1.26-.144c-.384 0-.708.032-.972.096-.256.056-.464.14-.624.252a.995.995 0 0 0-.348.408c-.072.16-.108.34-.108.54 0 .24.052.44.156.6.112.16.256.296.432.408.184.104.392.192.624.264.232.072.476.136.732.192.336.08.68.172 1.032.276.352.104.668.248.948.432.28.184.508.424.684.72.184.288.276.664.276 1.128 0 .456-.092.844-.276 1.164a2.247 2.247 0 0 1-.708.768 3 3 0 0 1-1.02.432 5.356 5.356 0 0 1-1.2.132Zm9.501-.648a3.344 3.344 0 0 1-.324.204 3.758 3.758 0 0 1-.468.216 3.946 3.946 0 0 1-.624.156 3.864 3.864 0 0 1-.78.072c-1.048 0-1.844-.284-2.388-.852-.544-.568-.816-1.364-.816-2.388 0-.504.072-.956.216-1.356.152-.4.36-.736.624-1.008.264-.28.576-.492.936-.636.36-.152.752-.228 1.176-.228a3 3 0 0 1 1.2.228c.352.152.64.376.864.672.232.296.388.664.468 1.104.088.432.088.936 0 1.512h-4.392c.04.672.24 1.176.6 1.512.36.328.896.492 1.608.492.48 0 .892-.068 1.236-.204a4.33 4.33 0 0 0 .864-.444v.948Zm-2.472-4.884c-.456 0-.848.14-1.176.42-.328.28-.536.704-.624 1.272h3.348c.032-.576-.1-1-.396-1.272-.296-.28-.68-.42-1.152-.42Zm6.964.24c-.448.04-.856.156-1.224.348-.36.184-.628.472-.804.864V828h-1.056v-6.228h.924l.108 1.356h.024c.176-.368.428-.688.756-.96.336-.28.76-.452 1.272-.516v1.176Zm4.559 5.172h-1.704l-2.136-6.228h1.14l1.896 5.664 1.884-5.664h1.056L270.646 828Zm7.953-.528a3.344 3.344 0 0 1-.324.204 3.758 3.758 0 0 1-.468.216 3.946 3.946 0 0 1-.624.156 3.864 3.864 0 0 1-.78.072c-1.048 0-1.844-.284-2.388-.852-.544-.568-.816-1.364-.816-2.388 0-.504.072-.956.216-1.356.152-.4.36-.736.624-1.008.264-.28.576-.492.936-.636.36-.152.752-.228 1.176-.228a3 3 0 0 1 1.2.228c.352.152.64.376.864.672.232.296.388.664.468 1.104.088.432.088.936 0 1.512h-4.392c.04.672.24 1.176.6 1.512.36.328.896.492 1.608.492.48 0 .892-.068 1.236-.204a4.33 4.33 0 0 0 .864-.444v.948Zm-2.472-4.884c-.456 0-.848.14-1.176.42-.328.28-.536.704-.624 1.272h3.348c.032-.576-.1-1-.396-1.272-.296-.28-.68-.42-1.152-.42Zm6.964.24c-.448.04-.856.156-1.224.348-.36.184-.628.472-.804.864V828h-1.056v-6.228h.924l.108 1.356h.024c.176-.368.428-.688.756-.96.336-.28.76-.452 1.272-.516v1.176Zm3.279 5.292c-.328 0-.62-.028-.876-.084a4.113 4.113 0 0 1-.66-.18c-.184-.08-.34-.16-.468-.24a3.161 3.161 0 0 1-.3-.228v-.948c.08.08.188.168.324.264.136.088.3.172.492.252.192.08.408.148.648.204.248.048.524.072.828.072.448 0 .804-.072 1.068-.216.264-.144.396-.388.396-.732a.698.698 0 0 0-.132-.444.801.801 0 0 0-.336-.264 2.07 2.07 0 0 0-.504-.168c-.184-.04-.38-.08-.588-.12a22.265 22.265 0 0 1-.78-.18 2.73 2.73 0 0 1-.696-.3 1.633 1.633 0 0 1-.504-.516c-.128-.216-.192-.496-.192-.84 0-.56.216-1 .648-1.32.44-.32 1.052-.48 1.836-.48.44 0 .828.044 1.164.132.344.088.608.184.792.288v.948a2.824 2.824 0 0 0-.78-.336c-.304-.096-.684-.144-1.14-.144-.472 0-.836.064-1.092.192-.248.128-.372.36-.372.696 0 .168.036.304.108.408a.856.856 0 0 0 .288.24c.128.056.272.1.432.132.16.032.328.068.504.108.272.056.552.116.84.18.288.064.544.164.768.3.232.136.42.32.564.552.152.224.228.528.228.912 0 .36-.072.66-.216.9-.144.24-.336.432-.576.576-.232.136-.5.232-.804.288-.296.064-.6.096-.912.096Z"/>
    <path fill="#E3EBFF" d="M167 799H63a8 8 0 0 0-8 8v34a8 8 0 0 0 8 8h104a8 8 0 0 0 8-8v-34a8 8 0 0 0-8-8Z"/>
    <path fill="#262626" d="M81.877 819.396h2.892c.576 0 1.112.068 1.608.204.496.136.928.36 1.296.672.368.312.656.724.864 1.236.208.512.312 1.144.312 1.896 0 .76-.108 1.428-.324 2.004a3.949 3.949 0 0 1-.876 1.428 3.615 3.615 0 0 1-1.332.876 4.749 4.749 0 0 1-1.68.288h-2.76v-8.604Zm1.128 1.032v6.552h1.632c.44 0 .844-.068 1.212-.204.368-.136.684-.344.948-.624.264-.288.468-.652.612-1.092.144-.44.216-.964.216-1.572 0-.6-.072-1.096-.216-1.488-.144-.4-.344-.716-.6-.948a2.003 2.003 0 0 0-.9-.48 4.32 4.32 0 0 0-1.14-.144h-1.764Zm10.849 6.384a3.648 3.648 0 0 1-.276.456 2.088 2.088 0 0 1-1.02.732c-.224.08-.488.12-.792.12-.56 0-1.012-.156-1.356-.468-.344-.32-.516-.776-.516-1.368 0-.68.236-1.18.708-1.5.48-.32 1.16-.48 2.04-.48h1.164v-.516c0-.432-.112-.74-.336-.924-.224-.184-.608-.276-1.152-.276-.384 0-.748.064-1.092.192-.344.12-.652.26-.924.42v-.948c.224-.136.524-.268.9-.396a3.75 3.75 0 0 1 1.26-.204c.784 0 1.38.164 1.788.492.408.32.612.82.612 1.5v3.6c.008.088.012.18.012.276l.024.276c.008.08.016.148.024.204h-.96a5.482 5.482 0 0 1-.072-.468 7.173 7.173 0 0 1-.024-.54l-.012-.18Zm-1.86.36c.328 0 .608-.068.84-.204.232-.136.42-.292.564-.468.144-.184.248-.36.312-.528.064-.176.096-.3.096-.372v-.456H92.75c-.632 0-1.092.092-1.38.276-.28.176-.42.444-.42.804 0 .28.084.508.252.684.168.176.432.264.792.264Zm7.576.696a1.93 1.93 0 0 1-.492.18c-.2.048-.412.072-.636.072-.304 0-.564-.044-.78-.132a1.504 1.504 0 0 1-.516-.348 1.48 1.48 0 0 1-.3-.504 2.09 2.09 0 0 1-.084-.588v-3.876h-.744v-.9h.744v-1.308h1.056v1.308h1.812v.9h-1.812v3.744c0 .264.064.456.192.576.136.12.372.18.708.18.312 0 .596-.088.852-.264v.96Zm5.053-1.056a3.648 3.648 0 0 1-.276.456 2.088 2.088 0 0 1-1.02.732c-.224.08-.488.12-.792.12-.56 0-1.012-.156-1.356-.468-.344-.32-.516-.776-.516-1.368 0-.68.236-1.18.708-1.5.48-.32 1.16-.48 2.04-.48h1.164v-.516c0-.432-.112-.74-.336-.924-.224-.184-.608-.276-1.152-.276-.384 0-.748.064-1.092.192-.344.12-.652.26-.924.42v-.948c.224-.136.524-.268.9-.396a3.75 3.75 0 0 1 1.26-.204c.784 0 1.38.164 1.788.492.408.32.612.82.612 1.5v3.6c.008.088.012.18.012.276l.024.276c.008.08.016.148.024.204h-.96a5.482 5.482 0 0 1-.072-.468 7.173 7.173 0 0 1-.024-.54l-.012-.18Zm-1.86.36c.328 0 .608-.068.84-.204.232-.136.42-.292.564-.468.144-.184.248-.36.312-.528.064-.176.096-.3.096-.372v-.456h-1.056c-.632 0-1.092.092-1.38.276-.28.176-.42.444-.42.804 0 .28.084.508.252.684.168.176.432.264.792.264Zm9.853.948a3.77 3.77 0 0 1-1.308-.216 2.861 2.861 0 0 1-.984-.636c-.272-.28-.48-.62-.624-1.02a4.024 4.024 0 0 1-.216-1.368c0-.504.072-.956.216-1.356.152-.4.364-.736.636-1.008a2.63 2.63 0 0 1 .996-.636 3.662 3.662 0 0 1 1.332-.228c.384 0 .736.044 1.056.132.32.08.584.2.792.36v.948a2.798 2.798 0 0 0-.864-.372 3.563 3.563 0 0 0-.972-.132c-.728 0-1.264.188-1.608.564-.336.376-.504.952-.504 1.728s.164 1.352.492 1.728c.328.376.848.564 1.56.564.376 0 .72-.044 1.032-.132.32-.096.608-.216.864-.36v.948a3.678 3.678 0 0 1-1.896.492Zm8.14-.648a3.344 3.344 0 0 1-.324.204 3.758 3.758 0 0 1-.468.216 3.946 3.946 0 0 1-.624.156 3.864 3.864 0 0 1-.78.072c-1.048 0-1.844-.284-2.388-.852-.544-.568-.816-1.364-.816-2.388 0-.504.072-.956.216-1.356.152-.4.36-.736.624-1.008.264-.28.576-.492.936-.636.36-.152.752-.228 1.176-.228a3 3 0 0 1 1.2.228c.352.152.64.376.864.672.232.296.388.664.468 1.104.088.432.088.936 0 1.512h-4.392c.04.672.24 1.176.6 1.512.36.328.896.492 1.608.492.48 0 .892-.068 1.236-.204a4.33 4.33 0 0 0 .864-.444v.948Zm-2.472-4.884c-.456 0-.848.14-1.176.42-.328.28-.536.704-.624 1.272h3.348c.032-.576-.1-1-.396-1.272-.296-.28-.68-.42-1.152-.42Zm6.831 0c-.48 0-.872.112-1.176.336a2.455 2.455 0 0 0-.72.84V828h-1.056v-6.228h.996l.036 1.116h.024c.168-.36.432-.656.792-.888.36-.232.816-.348 1.368-.348.616 0 1.104.164 1.464.492.368.32.552.816.552 1.488V828h-1.056v-4.26c0-.432-.108-.732-.324-.9-.216-.168-.516-.252-.9-.252Zm6.998 5.28a1.93 1.93 0 0 1-.492.18c-.2.048-.412.072-.636.072-.304 0-.564-.044-.78-.132a1.504 1.504 0 0 1-.516-.348 1.48 1.48 0 0 1-.3-.504 2.09 2.09 0 0 1-.084-.588v-3.876h-.744v-.9h.744v-1.308h1.056v1.308h1.812v.9h-1.812v3.744c0 .264.064.456.192.576.136.12.372.18.708.18.312 0 .596-.088.852-.264v.96Zm6.303-.396a3.344 3.344 0 0 1-.324.204 3.758 3.758 0 0 1-.468.216 3.946 3.946 0 0 1-.624.156 3.864 3.864 0 0 1-.78.072c-1.048 0-1.844-.284-2.388-.852-.544-.568-.816-1.364-.816-2.388 0-.504.072-.956.216-1.356.152-.4.36-.736.624-1.008.264-.28.576-.492.936-.636.36-.152.752-.228 1.176-.228a3 3 0 0 1 1.2.228c.352.152.64.376.864.672.232.296.388.664.468 1.104.088.432.088.936 0 1.512h-4.392c.04.672.24 1.176.6 1.512.36.328.896.492 1.608.492.48 0 .892-.068 1.236-.204a4.33 4.33 0 0 0 .864-.444v.948Zm-2.472-4.884c-.456 0-.848.14-1.176.42-.328.28-.536.704-.624 1.272h3.348c.032-.576-.1-1-.396-1.272-.296-.28-.68-.42-1.152-.42Zm6.963.24c-.448.04-.856.156-1.224.348-.36.184-.628.472-.804.864V828h-1.056v-6.228h.924l.108 1.356h.024c.176-.368.428-.688.756-.96.336-.28.76-.452 1.272-.516v1.176Zm3.279 5.292c-.328 0-.62-.028-.876-.084a4.113 4.113 0 0 1-.66-.18c-.184-.08-.34-.16-.468-.24a3.161 3.161 0 0 1-.3-.228v-.948c.08.08.188.168.324.264.136.088.3.172.492.252.192.08.408.148.648.204.248.048.524.072.828.072.448 0 .804-.072 1.068-.216.264-.144.396-.388.396-.732a.698.698 0 0 0-.132-.444.801.801 0 0 0-.336-.264 2.07 2.07 0 0 0-.504-.168c-.184-.04-.38-.08-.588-.12a22.265 22.265 0 0 1-.78-.18 2.73 2.73 0 0 1-.696-.3 1.633 1.633 0 0 1-.504-.516c-.128-.216-.192-.496-.192-.84 0-.56.216-1 .648-1.32.44-.32 1.052-.48 1.836-.48.44 0 .828.044 1.164.132.344.088.608.184.792.288v.948a2.824 2.824 0 0 0-.78-.336c-.304-.096-.684-.144-1.14-.144-.472 0-.836.064-1.092.192-.248.128-.372.36-.372.696 0 .168.036.304.108.408a.856.856 0 0 0 .288.24c.128.056.272.1.432.132.16.032.328.068.504.108.272.056.552.116.84.18.288.064.544.164.768.3.232.136.42.32.564.552.152.224.228.528.228.912 0 .36-.072.66-.216.9-.144.24-.336.432-.576.576-.232.136-.5.232-.804.288-.296.064-.6.096-.912.096Z"/>
    <path fill="#E3EBFF" d="M629 799H525a8 8 0 0 0-8 8v34a8 8 0 0 0 8 8h104a8 8 0 0 0 8-8v-34a8 8 0 0 0-8-8Z"/>
    <path stroke="#262626" stroke-linecap="round" stroke-linejoin="round" stroke-width="2" d="M326 756v-8a2 2 0 0 0-2-2h-23a2 2 0 0 0-2 2v15a2 2 0 0 0 2 2h18m-14 4h14"/>
    <path stroke="#262626" stroke-linecap="round" stroke-linejoin="round" stroke-width="2" d="M327 756h-6a2 2 0 0 0-2 2v12a2 2 0 0 0 2 2h6a2 2 0 0 0 2-2v-12a2 2 0 0 0-2-2Z"/>
    <path fill="#262626" d="M344.552 759.244h-4.416V763h-1.128v-8.604h1.128v3.828h4.416v-3.828h1.14V763h-1.14v-3.756Zm6.644 2.568a3.648 3.648 0 0 1-.276.456 2.088 2.088 0 0 1-1.02.732c-.224.08-.488.12-.792.12-.56 0-1.012-.156-1.356-.468-.344-.32-.516-.776-.516-1.368 0-.68.236-1.18.708-1.5.48-.32 1.16-.48 2.04-.48h1.164v-.516c0-.432-.112-.74-.336-.924-.224-.184-.608-.276-1.152-.276-.384 0-.748.064-1.092.192-.344.12-.652.26-.924.42v-.948c.224-.136.524-.268.9-.396a3.75 3.75 0 0 1 1.26-.204c.784 0 1.38.164 1.788.492.408.32.612.82.612 1.5v3.6c.008.088.012.18.012.276l.024.276c.008.08.016.148.024.204h-.96a5.482 5.482 0 0 1-.072-.468 7.173 7.173 0 0 1-.024-.54l-.012-.18Zm-1.86.36c.328 0 .608-.068.84-.204.232-.136.42-.292.564-.468.144-.184.248-.36.312-.528.064-.176.096-.3.096-.372v-.456h-1.056c-.632 0-1.092.092-1.38.276-.28.176-.42.444-.42.804 0 .28.084.508.252.684.168.176.432.264.792.264Zm7.612-4.344c-.448.04-.856.156-1.224.348-.36.184-.628.472-.804.864V763h-1.056v-6.228h.924l.108 1.356h.024c.176-.368.428-.688.756-.96.336-.28.76-.452 1.272-.516v1.176Zm5.693 3.948c-.192.408-.46.736-.804.984-.344.24-.78.36-1.308.36-.376 0-.732-.064-1.068-.192a2.566 2.566 0 0 1-.888-.6 3.01 3.01 0 0 1-.612-1.008c-.152-.408-.228-.888-.228-1.44 0-.544.076-1.016.228-1.416.152-.408.356-.744.612-1.008.256-.272.552-.472.888-.6a2.911 2.911 0 0 1 1.08-.204c.472 0 .88.1 1.224.3.344.192.62.468.828.828v-3.384h1.055V763h-.923l-.084-1.224Zm-1.956.396c.272 0 .524-.044.756-.132.232-.096.432-.24.6-.432.176-.192.312-.432.408-.72.104-.288.156-.624.156-1.008s-.052-.72-.156-1.008a1.971 1.971 0 0 0-.408-.72 1.49 1.49 0 0 0-.6-.42 1.958 1.958 0 0 0-.756-.144c-.552 0-1.004.196-1.356.588-.344.384-.517.952-.517 1.704 0 .76.177 1.332.529 1.716.352.384.8.576 1.344.576Zm11.467.828h-1.62l-1.32-4.812-1.356 4.812h-1.572l-1.416-6.228h1.116l1.188 5.436 1.512-5.436h1.188l1.476 5.376 1.176-5.376h1.044L372.152 763Zm6.231-1.188a3.648 3.648 0 0 1-.276.456 2.088 2.088 0 0 1-1.02.732c-.224.08-.488.12-.792.12-.56 0-1.012-.156-1.356-.468-.344-.32-.516-.776-.516-1.368 0-.68.236-1.18.708-1.5.48-.32 1.16-.48 2.04-.48h1.164v-.516c0-.432-.112-.74-.336-.924-.224-.184-.608-.276-1.152-.276-.384 0-.748.064-1.092.192-.344.12-.652.26-.924.42v-.948c.224-.136.524-.268.9-.396a3.75 3.75 0 0 1 1.26-.204c.784 0 1.38.164 1.788.492.408.32.612.82.612 1.5v3.6c.008.088.012.18.012.276l.024.276c.008.08.016.148.024.204h-.96a5.482 5.482 0 0 1-.072-.468 7.173 7.173 0 0 1-.024-.54l-.012-.18Zm-1.86.36c.328 0 .608-.068.84-.204.232-.136.42-.292.564-.468.144-.184.248-.36.312-.528.064-.176.096-.3.096-.372v-.456h-1.056c-.632 0-1.092.092-1.38.276-.28.176-.42.444-.42.804 0 .28.084.508.252.684.168.176.432.264.792.264Zm7.613-4.344c-.448.04-.856.156-1.224.348-.36.184-.628.472-.804.864V763h-1.056v-6.228h.924l.108 1.356h.024c.176-.368.428-.688.756-.96.336-.28.76-.452 1.272-.516v1.176Zm6.067 4.644a3.344 3.344 0 0 1-.324.204 3.758 3.758 0 0 1-.468.216 3.946 3.946 0 0 1-.624.156 3.864 3.864 0 0 1-.78.072c-1.048 0-1.844-.284-2.388-.852-.544-.568-.816-1.364-.816-2.388 0-.504.072-.956.216-1.356.152-.4.36-.736.624-1.008.264-.28.576-.492.936-.636.36-.152.752-.228 1.176-.228a3 3 0 0 1 1.2.228c.352.152.64.376.864.672.232.296.388.664.468 1.104.088.432.088.936 0 1.512h-4.392c.04.672.24 1.176.6 1.512.36.328.896.492 1.608.492.48 0 .892-.068 1.236-.204a4.33 4.33 0 0 0 .864-.444v.948Zm-2.472-4.884c-.456 0-.848.14-1.176.42-.328.28-.536.704-.624 1.272h3.348c.032-.576-.1-1-.396-1.272-.296-.28-.68-.42-1.152-.42Z"/>
    <path fill="#fff" stroke="#5282FF" stroke-width="2" d="M670 320H22a7 7 0 0 0-7 7v113a7 7 0 0 0 7 7h648a7 7 0 0 0 7-7V327a7 7 0 0 0-7-7Z"/>
    <path stroke="#262626" stroke-linecap="round" stroke-linejoin="round" stroke-width="2" d="M315 343a2 2 0 0 1 2-2h2a2 2 0 0 1 2 2v2.414c.832.235 1.624.566 2.363.98l1.708-1.708a2 2 0 0 1 2.828 0l1.415 1.415a2 2 0 0 1 0 2.828l-1.708 1.708c.414.739.745 1.531.98 2.363H331a2 2 0 0 1 2 2v2a2 2 0 0 1-2 2h-2.414a10.892 10.892 0 0 1-.98 2.363l1.708 1.708a2 2 0 0 1 0 2.829l-1.415 1.414a2 2 0 0 1-2.828 0l-1.708-1.708c-.739.414-1.531.745-2.363.98V369a2 2 0 0 1-2 2h-2a2 2 0 0 1-2-2v-2.414a10.892 10.892 0 0 1-2.363-.98l-1.708 1.708a2 2 0 0 1-2.829 0l-1.414-1.414a2 2 0 0 1 0-2.829l1.708-1.708a10.892 10.892 0 0 1-.98-2.363H305a2 2 0 0 1-2-2v-2a2 2 0 0 1 2-2h2.414c.235-.832.566-1.624.98-2.363l-1.708-1.708a2 2 0 0 1 0-2.828l1.414-1.415a2 2 0 0 1 2.829 0l1.708 1.708a10.892 10.892 0 0 1 2.363-.98V343Z" clip-rule="evenodd"/>
    <path stroke="#262626" stroke-linecap="round" stroke-linejoin="round" stroke-width="2" d="M323 356a5 5 0 1 1-10.001-.001A5 5 0 0 1 323 356Z"/>
    <path fill="#262626" d="M345.408 360.12c-.392 0-.744-.028-1.056-.084a5.07 5.07 0 0 1-.828-.192 4.264 4.264 0 0 1-.6-.276 2.38 2.38 0 0 1-.384-.3v-1.08c.12.104.276.212.468.324.192.104.412.2.66.288.256.088.528.16.816.216.296.056.604.084.924.084.624 0 1.12-.116 1.488-.348.368-.24.552-.6.552-1.08 0-.24-.044-.436-.132-.588a1.07 1.07 0 0 0-.384-.396 2.236 2.236 0 0 0-.636-.276c-.248-.08-.54-.164-.876-.252a16.032 16.032 0 0 1-1.008-.3 3.714 3.714 0 0 1-.912-.444 2.247 2.247 0 0 1-.648-.696c-.16-.28-.24-.636-.24-1.068 0-.744.26-1.324.78-1.74.52-.416 1.316-.624 2.388-.624.312 0 .588.02.828.06.248.032.464.076.648.132.192.048.356.104.492.168.144.064.272.124.384.18v1.08a3.368 3.368 0 0 0-1.092-.456 5.19 5.19 0 0 0-1.26-.144c-.384 0-.708.032-.972.096-.256.056-.464.14-.624.252a.995.995 0 0 0-.348.408c-.072.16-.108.34-.108.54 0 .24.052.44.156.6.112.16.256.296.432.408.184.104.392.192.624.264.232.072.476.136.732.192.336.08.68.172 1.032.276.352.104.668.248.948.432.28.184.508.424.684.72.184.288.276.664.276 1.128 0 .456-.092.844-.276 1.164a2.247 2.247 0 0 1-.708.768 3 3 0 0 1-1.02.432 5.356 5.356 0 0 1-1.2.132Zm9.502-.648a3.344 3.344 0 0 1-.324.204 3.758 3.758 0 0 1-.468.216 3.946 3.946 0 0 1-.624.156 3.864 3.864 0 0 1-.78.072c-1.048 0-1.844-.284-2.388-.852-.544-.568-.816-1.364-.816-2.388 0-.504.072-.956.216-1.356.152-.4.36-.736.624-1.008.264-.28.576-.492.936-.636.36-.152.752-.228 1.176-.228a3 3 0 0 1 1.2.228c.352.152.64.376.864.672.232.296.388.664.468 1.104.088.432.088.936 0 1.512h-4.392c.04.672.24 1.176.6 1.512.36.328.896.492 1.608.492.48 0 .892-.068 1.236-.204a4.33 4.33 0 0 0 .864-.444v.948Zm-2.472-4.884c-.456 0-.848.14-1.176.42-.328.28-.536.704-.624 1.272h3.348c.032-.576-.1-1-.396-1.272-.296-.28-.68-.42-1.152-.42Zm6.963.24c-.448.04-.856.156-1.224.348-.36.184-.628.472-.804.864V360h-1.056v-6.228h.924l.108 1.356h.024c.176-.368.428-.688.756-.96.336-.28.76-.452 1.272-.516v1.176ZM363.96 360h-1.704l-2.136-6.228h1.14l1.896 5.664 1.884-5.664h1.056L363.96 360Zm3.655-7.14c-.216 0-.388-.064-.516-.192a.692.692 0 0 1-.192-.492.675.675 0 0 1 .708-.696c.208 0 .372.068.492.204.12.136.18.3.18.492s-.06.356-.18.492c-.12.128-.284.192-.492.192Zm.516.912V360h-1.056v-6.228h1.056Zm4.409 6.348a3.77 3.77 0 0 1-1.308-.216 2.861 2.861 0 0 1-.984-.636c-.272-.28-.48-.62-.624-1.02a4.024 4.024 0 0 1-.216-1.368c0-.504.072-.956.216-1.356.152-.4.364-.736.636-1.008a2.63 2.63 0 0 1 .996-.636 3.662 3.662 0 0 1 1.332-.228c.384 0 .736.044 1.056.132.32.08.584.2.792.36v.948a2.798 2.798 0 0 0-.864-.372 3.563 3.563 0 0 0-.972-.132c-.728 0-1.264.188-1.608.564-.336.376-.504.952-.504 1.728s.164 1.352.492 1.728c.328.376.848.564 1.56.564.376 0 .72-.044 1.032-.132.32-.096.608-.216.864-.36v.948a3.678 3.678 0 0 1-1.896.492Zm8.139-.648a3.344 3.344 0 0 1-.324.204 3.758 3.758 0 0 1-.468.216 3.946 3.946 0 0 1-.624.156 3.864 3.864 0 0 1-.78.072c-1.048 0-1.844-.284-2.388-.852-.544-.568-.816-1.364-.816-2.388 0-.504.072-.956.216-1.356.152-.4.36-.736.624-1.008.264-.28.576-.492.936-.636.36-.152.752-.228 1.176-.228a3 3 0 0 1 1.2.228c.352.152.64.376.864.672.232.296.388.664.468 1.104.088.432.088.936 0 1.512h-4.392c.04.672.24 1.176.6 1.512.36.328.896.492 1.608.492.48 0 .892-.068 1.236-.204a4.33 4.33 0 0 0 .864-.444v.948Zm-2.472-4.884c-.456 0-.848.14-1.176.42-.328.28-.536.704-.624 1.272h3.348c.032-.576-.1-1-.396-1.272-.296-.28-.68-.42-1.152-.42Zm5.872 5.532c-.328 0-.62-.028-.876-.084a4.113 4.113 0 0 1-.66-.18c-.184-.08-.34-.16-.468-.24a3.161 3.161 0 0 1-.3-.228v-.948c.08.08.188.168.324.264.136.088.3.172.492.252.192.08.408.148.648.204.248.048.524.072.828.072.448 0 .804-.072 1.068-.216.264-.144.396-.388.396-.732a.698.698 0 0 0-.132-.444.801.801 0 0 0-.336-.264 2.07 2.07 0 0 0-.504-.168c-.184-.04-.38-.08-.588-.12a22.265 22.265 0 0 1-.78-.18 2.73 2.73 0 0 1-.696-.3 1.633 1.633 0 0 1-.504-.516c-.128-.216-.192-.496-.192-.84 0-.56.216-1 .648-1.32.44-.32 1.052-.48 1.836-.48.44 0 .828.044 1.164.132.344.088.608.184.792.288v.948a2.824 2.824 0 0 0-.78-.336c-.304-.096-.684-.144-1.14-.144-.472 0-.836.064-1.092.192-.248.128-.372.36-.372.696 0 .168.036.304.108.408a.856.856 0 0 0 .288.24c.128.056.272.1.432.132.16.032.328.068.504.108.272.056.552.116.84.18.288.064.544.164.768.3.232.136.42.32.564.552.152.224.228.528.228.912 0 .36-.072.66-.216.9-.144.24-.336.432-.576.576-.232.136-.5.232-.804.288-.296.064-.6.096-.912.096Z"/>
    <path fill="#fff" stroke="#5282FF" stroke-width="2" d="M670 511H22a7 7 0 0 0-7 7v133a7 7 0 0 0 7 7h648a7 7 0 0 0 7-7V518a7 7 0 0 0-7-7Z"/>
    <path fill="#E3EBFF" d="M167 589H63a8 8 0 0 0-8 8v34a8 8 0 0 0 8 8h104a8 8 0 0 0 8-8v-34a8 8 0 0 0-8-8Z"/>
    <path fill="#262626" d="M107.484 614.268V618h-1.152v-3.696l-2.94-4.908h1.296l2.256 3.912 2.304-3.912h1.152l-2.916 4.872Zm4.165-4.872h2.892c.576 0 1.112.068 1.608.204.496.136.928.36 1.296.672.368.312.656.724.864 1.236.208.512.312 1.144.312 1.896 0 .76-.108 1.428-.324 2.004a3.949 3.949 0 0 1-.876 1.428 3.615 3.615 0 0 1-1.332.876 4.749 4.749 0 0 1-1.68.288h-2.76v-8.604Zm1.128 1.032v6.552h1.632c.44 0 .844-.068 1.212-.204.368-.136.684-.344.948-.624.264-.288.468-.652.612-1.092.144-.44.216-.964.216-1.572 0-.6-.072-1.096-.216-1.488-.144-.4-.344-.716-.6-.948a2.003 2.003 0 0 0-.9-.48 4.32 4.32 0 0 0-1.14-.144h-1.764Zm7.344-1.032h2.916c.944 0 1.66.16 2.148.48.496.32.744.86.744 1.62 0 .312-.044.584-.132.816-.08.224-.196.42-.348.588-.144.16-.324.292-.54.396a2.97 2.97 0 0 1-.696.24c.672.08 1.176.276 1.512.588.344.304.516.768.516 1.392 0 .448-.084.832-.252 1.152-.16.312-.384.568-.672.768a3.191 3.191 0 0 1-1.02.432c-.392.088-.82.132-1.284.132h-2.892v-8.604Zm1.128 1.032v2.64h1.704c.272 0 .52-.028.744-.084.224-.064.416-.156.576-.276.16-.128.284-.284.372-.468.096-.192.144-.42.144-.684 0-.44-.152-.736-.456-.888-.304-.16-.736-.24-1.296-.24h-1.788Zm0 3.66v2.892h1.764c.304 0 .58-.024.828-.072.248-.048.46-.128.636-.24a1.12 1.12 0 0 0 .42-.444c.104-.184.156-.412.156-.684 0-.544-.176-.92-.528-1.128-.344-.216-.892-.324-1.644-.324h-1.632Z"/>
    <path fill="#E3EBFF" d="M321 589H217a8 8 0 0 0-8 8v34a8 8 0 0 0 8 8h104a8 8 0 0 0 8-8v-34a8 8 0 0 0-8-8Z"/>
    <path fill="#262626" d="M248.644 618.12c-.64 0-1.22-.1-1.74-.3-.52-.2-.968-.488-1.344-.864a3.955 3.955 0 0 1-.852-1.392c-.2-.552-.3-1.172-.3-1.86 0-.696.092-1.316.276-1.86a3.657 3.657 0 0 1 .816-1.38c.36-.384.8-.676 1.32-.876.528-.2 1.128-.3 1.8-.3.584 0 1.096.064 1.536.192.44.12.8.264 1.08.432v1.08a3.98 3.98 0 0 0-1.248-.516 5.865 5.865 0 0 0-1.38-.168c-1.016 0-1.768.284-2.256.852-.48.56-.72 1.408-.72 2.544 0 1.144.26 1.996.78 2.556.528.56 1.304.84 2.328.84.44 0 .868-.06 1.284-.18.424-.12.828-.324 1.212-.612v1.08c-.232.184-.572.352-1.02.504-.44.152-.964.228-1.572.228Zm6.672 0c-.424 0-.82-.072-1.188-.216a2.767 2.767 0 0 1-.96-.624 3.04 3.04 0 0 1-.624-1.02c-.152-.4-.228-.86-.228-1.38 0-.512.076-.968.228-1.368a2.89 2.89 0 0 1 .624-1.02c.272-.272.592-.48.96-.624a3.231 3.231 0 0 1 1.188-.216c.432 0 .832.072 1.2.216.368.144.684.352.948.624.272.272.484.612.636 1.02.16.4.24.856.24 1.368 0 .52-.08.98-.24 1.38-.152.4-.364.74-.636 1.02-.264.272-.58.48-.948.624a3.265 3.265 0 0 1-1.2.216Zm0-.948c.28 0 .536-.044.768-.132.24-.096.448-.236.624-.42.176-.192.312-.432.408-.72.096-.288.144-.628.144-1.02s-.048-.732-.144-1.02a1.855 1.855 0 0 0-.408-.708 1.569 1.569 0 0 0-.624-.42 1.99 1.99 0 0 0-.768-.144c-.28 0-.536.048-.768.144a1.586 1.586 0 0 0-.612.42c-.168.184-.3.42-.396.708a3.234 3.234 0 0 0-.144 1.02c0 .392.048.732.144 1.02.096.288.228.528.396.72.176.184.38.324.612.42.232.088.488.132.768.132Zm5.368.828h-1.056v-6.228h.924l.108 1.116h.024a2.21 2.21 0 0 1 .756-.876c.336-.24.776-.36 1.32-.36.48 0 .872.116 1.176.348.312.224.52.564.624 1.02.176-.424.444-.756.804-.996.368-.248.812-.372 1.332-.372.576 0 1.032.164 1.368.492.336.32.504.816.504 1.488V618H267.5v-4.236c0-.408-.1-.704-.3-.888-.2-.192-.472-.288-.816-.288-.232 0-.436.036-.612.108a1.448 1.448 0 0 0-.468.276c-.136.12-.26.26-.372.42-.112.16-.216.328-.312.504V618h-1.056v-4.356c0-.4-.1-.676-.3-.828-.2-.152-.472-.228-.816-.228-.224 0-.424.028-.6.084a1.688 1.688 0 0 0-.48.24 1.89 1.89 0 0 0-.372.384 3.545 3.545 0 0 0-.312.48V618Zm12.669.12c-.48 0-.896-.112-1.248-.336a2.444 2.444 0 0 1-.828-.924v3.264h-1.056v-8.352h.924l.108 1.212c.208-.408.488-.732.84-.972s.788-.36 1.308-.36c.36 0 .704.068 1.032.204.336.128.628.328.876.6.256.264.456.6.6 1.008.152.4.228.872.228 1.416 0 .552-.076 1.032-.228 1.44a3.01 3.01 0 0 1-.612 1.008 2.566 2.566 0 0 1-.888.6 2.941 2.941 0 0 1-1.056.192Zm-.156-.948c.552 0 .996-.188 1.332-.564.344-.384.516-.96.516-1.728 0-.752-.172-1.32-.516-1.704-.336-.392-.78-.588-1.332-.588-.272 0-.528.048-.768.144a1.71 1.71 0 0 0-.612.432c-.168.184-.304.42-.408.708a3.191 3.191 0 0 0-.144 1.008c0 .384.048.72.144 1.008.104.288.24.528.408.72.176.192.38.336.612.432.24.088.496.132.768.132Zm8.216-.288a2.233 2.233 0 0 1-.78.888c-.344.232-.796.348-1.356.348-.576 0-1.044-.16-1.404-.48-.352-.328-.528-.832-.528-1.512v-4.356h1.068v4.356c0 .208.028.38.084.516a.886.886 0 0 0 .612.48c.144.032.3.048.468.048.464 0 .836-.104 1.116-.312.28-.208.52-.492.72-.852v-4.236h1.056V618h-.936l-.096-1.116h-.024Zm5.837.984a1.93 1.93 0 0 1-.492.18c-.2.048-.412.072-.636.072-.304 0-.564-.044-.78-.132a1.504 1.504 0 0 1-.516-.348 1.48 1.48 0 0 1-.3-.504 2.09 2.09 0 0 1-.084-.588v-3.876h-.744v-.9h.744v-1.308h1.056v1.308h1.812v.9h-1.812v3.744c0 .264.064.456.192.576.136.12.372.18.708.18.312 0 .596-.088.852-.264v.96Zm6.302-.396a3.344 3.344 0 0 1-.324.204 3.758 3.758 0 0 1-.468.216 3.946 3.946 0 0 1-.624.156 3.864 3.864 0 0 1-.78.072c-1.048 0-1.844-.284-2.388-.852-.544-.568-.816-1.364-.816-2.388 0-.504.072-.956.216-1.356.152-.4.36-.736.624-1.008.264-.28.576-.492.936-.636.36-.152.752-.228 1.176-.228a3 3 0 0 1 1.2.228c.352.152.64.376.864.672.232.296.388.664.468 1.104.088.432.088.936 0 1.512h-4.392c.04.672.24 1.176.6 1.512.36.328.896.492 1.608.492.48 0 .892-.068 1.236-.204a4.33 4.33 0 0 0 .864-.444v.948Zm-2.472-4.884c-.456 0-.848.14-1.176.42-.328.28-.536.704-.624 1.272h3.348c.032-.576-.1-1-.396-1.272-.296-.28-.68-.42-1.152-.42Z"/>
    <path fill="#E3EBFF" d="M475 589H371a8 8 0 0 0-8 8v34a8 8 0 0 0 8 8h104a8 8 0 0 0 8-8v-34a8 8 0 0 0-8-8Z"/>
    <path fill="#262626" d="M419.084 618h-1.536l-4.32-7.224V618h-1.068v-8.604h1.524l4.32 7.224v-7.224h1.08V618Zm2.006-8.604h2.916c.944 0 1.66.16 2.148.48.496.32.744.86.744 1.62 0 .312-.044.584-.132.816-.08.224-.196.42-.348.588-.144.16-.324.292-.54.396a2.97 2.97 0 0 1-.696.24c.672.08 1.176.276 1.512.588.344.304.516.768.516 1.392 0 .448-.084.832-.252 1.152-.16.312-.384.568-.672.768a3.191 3.191 0 0 1-1.02.432c-.392.088-.82.132-1.284.132h-2.892v-8.604Zm1.128 1.032v2.64h1.704c.272 0 .52-.028.744-.084.224-.064.416-.156.576-.276.16-.128.284-.284.372-.468.096-.192.144-.42.144-.684 0-.44-.152-.736-.456-.888-.304-.16-.736-.24-1.296-.24h-1.788Zm0 3.66v2.892h1.764c.304 0 .58-.024.828-.072.248-.048.46-.128.636-.24a1.12 1.12 0 0 0 .42-.444c.104-.184.156-.412.156-.684 0-.544-.176-.92-.528-1.128-.344-.216-.892-.324-1.644-.324h-1.632Zm9.006 4.032c-.392 0-.744-.028-1.056-.084a5.07 5.07 0 0 1-.828-.192 4.264 4.264 0 0 1-.6-.276 2.38 2.38 0 0 1-.384-.3v-1.08c.12.104.276.212.468.324.192.104.412.2.66.288.256.088.528.16.816.216.296.056.604.084.924.084.624 0 1.12-.116 1.488-.348.368-.24.552-.6.552-1.08 0-.24-.044-.436-.132-.588a1.07 1.07 0 0 0-.384-.396 2.236 2.236 0 0 0-.636-.276c-.248-.08-.54-.164-.876-.252a16.032 16.032 0 0 1-1.008-.3 3.714 3.714 0 0 1-.912-.444 2.247 2.247 0 0 1-.648-.696c-.16-.28-.24-.636-.24-1.068 0-.744.26-1.324.78-1.74.52-.416 1.316-.624 2.388-.624.312 0 .588.02.828.06.248.032.464.076.648.132.192.048.356.104.492.168.144.064.272.124.384.18v1.08a3.368 3.368 0 0 0-1.092-.456 5.19 5.19 0 0 0-1.26-.144c-.384 0-.708.032-.972.096-.256.056-.464.14-.624.252a.995.995 0 0 0-.348.408c-.072.16-.108.34-.108.54 0 .24.052.44.156.6.112.16.256.296.432.408.184.104.392.192.624.264.232.072.476.136.732.192.336.08.68.172 1.032.276.352.104.668.248.948.432.28.184.508.424.684.72.184.288.276.664.276 1.128 0 .456-.092.844-.276 1.164a2.247 2.247 0 0 1-.708.768 3 3 0 0 1-1.02.432 5.356 5.356 0 0 1-1.2.132Z"/>
    <path fill="#E3EBFF" d="M629 589H525a8 8 0 0 0-8 8v34a8 8 0 0 0 8 8h104a8 8 0 0 0 8-8v-34a8 8 0 0 0-8-8Z"/>
    <path fill="#262626" d="M570.202 618h-1.764l-3-8.604h1.176l2.748 7.92 2.748-7.92h1.08L570.202 618Zm4.173-8.604h2.748c.976 0 1.732.204 2.268.612.544.4.816 1.028.816 1.884 0 .488-.08.908-.24 1.26a2.22 2.22 0 0 1-.648.852c-.28.224-.616.388-1.008.492a4.91 4.91 0 0 1-1.284.156h-1.524V618h-1.128v-8.604Zm1.128 1.032v3.204h1.524c.304 0 .58-.032.828-.096s.46-.164.636-.3a1.3 1.3 0 0 0 .42-.528c.104-.224.156-.492.156-.804 0-.52-.168-.896-.504-1.128-.336-.232-.816-.348-1.44-.348h-1.62Zm9.928 7.692c-.64 0-1.22-.1-1.74-.3-.52-.2-.968-.488-1.344-.864a3.955 3.955 0 0 1-.852-1.392c-.2-.552-.3-1.172-.3-1.86 0-.696.092-1.316.276-1.86a3.657 3.657 0 0 1 .816-1.38c.36-.384.8-.676 1.32-.876.528-.2 1.128-.3 1.8-.3.584 0 1.096.064 1.536.192.44.12.8.264 1.08.432v1.08a3.98 3.98 0 0 0-1.248-.516 5.865 5.865 0 0 0-1.38-.168c-1.016 0-1.768.284-2.256.852-.48.56-.72 1.408-.72 2.544 0 1.144.26 1.996.78 2.556.528.56 1.304.84 2.328.84.44 0 .868-.06 1.284-.18.424-.12.828-.324 1.212-.612v1.08c-.232.184-.572.352-1.02.504-.44.152-.964.228-1.572.228Z"/>
    <path stroke="#262626" stroke-linecap="round" stroke-linejoin="round" stroke-width="2" d="M275 541h-8v20h8v-20Zm-11 20h30m-3-12h-8v12h8v-12Zm-2-4h-6v4h6v-4Zm-14-10 8 4v22h-8v-26Z"/>
    <path fill="#262626" d="M304.008 544.396h2.748c.976 0 1.732.204 2.268.612.544.4.816 1.028.816 1.884 0 .488-.08.908-.24 1.26a2.22 2.22 0 0 1-.648.852c-.28.224-.616.388-1.008.492a4.91 4.91 0 0 1-1.284.156h-1.524V553h-1.128v-8.604Zm1.128 1.032v3.204h1.524c.304 0 .58-.032.828-.096s.46-.164.636-.3a1.3 1.3 0 0 0 .42-.528c.104-.224.156-.492.156-.804 0-.52-.168-.896-.504-1.128-.336-.232-.816-.348-1.44-.348h-1.62Zm7.108-1.032V553h-1.056v-8.604h1.056Zm5.37 7.416a3.648 3.648 0 0 1-.276.456 2.088 2.088 0 0 1-1.02.732c-.224.08-.488.12-.792.12-.56 0-1.012-.156-1.356-.468-.344-.32-.516-.776-.516-1.368 0-.68.236-1.18.708-1.5.48-.32 1.16-.48 2.04-.48h1.164v-.516c0-.432-.112-.74-.336-.924-.224-.184-.608-.276-1.152-.276-.384 0-.748.064-1.092.192-.344.12-.652.26-.924.42v-.948c.224-.136.524-.268.9-.396a3.75 3.75 0 0 1 1.26-.204c.784 0 1.38.164 1.788.492.408.32.612.82.612 1.5v3.6c.008.088.012.18.012.276l.024.276c.008.08.016.148.024.204h-.96a5.482 5.482 0 0 1-.072-.468 7.173 7.173 0 0 1-.024-.54l-.012-.18Zm-1.86.36c.328 0 .608-.068.84-.204.232-.136.42-.292.564-.468.144-.184.248-.36.312-.528.064-.176.096-.3.096-.372v-.456h-1.056c-.632 0-1.092.092-1.38.276-.28.176-.42.444-.42.804 0 .28.084.508.252.684.168.176.432.264.792.264Zm7.576.696a1.93 1.93 0 0 1-.492.18c-.2.048-.412.072-.636.072-.304 0-.564-.044-.78-.132a1.504 1.504 0 0 1-.516-.348 1.48 1.48 0 0 1-.3-.504 2.09 2.09 0 0 1-.084-.588v-3.876h-.744v-.9h.744v-1.308h1.056v1.308h1.812v.9h-1.812v3.744c0 .264.064.456.192.576.136.12.372.18.708.18.312 0 .596-.088.852-.264v.96Zm2.775-5.196V553h-1.056v-5.328h-.756v-.9h.756v-.156c0-.736.196-1.308.588-1.716.392-.408.928-.612 1.608-.612.296 0 .56.036.792.108v.96a1.406 1.406 0 0 0-.312-.084 2.484 2.484 0 0 0-.432-.036c-.368 0-.66.112-.876.336-.208.224-.312.572-.312 1.044v.156h1.8v.9h-1.8Zm5.358 5.448c-.424 0-.82-.072-1.188-.216a2.767 2.767 0 0 1-.96-.624 3.04 3.04 0 0 1-.624-1.02c-.152-.4-.228-.86-.228-1.38 0-.512.076-.968.228-1.368a2.89 2.89 0 0 1 .624-1.02c.272-.272.592-.48.96-.624a3.231 3.231 0 0 1 1.188-.216c.432 0 .832.072 1.2.216.368.144.684.352.948.624.272.272.484.612.636 1.02.16.4.24.856.24 1.368 0 .52-.08.98-.24 1.38-.152.4-.364.74-.636 1.02-.264.272-.58.48-.948.624a3.265 3.265 0 0 1-1.2.216Zm0-.948c.28 0 .536-.044.768-.132.24-.096.448-.236.624-.42.176-.192.312-.432.408-.72.096-.288.144-.628.144-1.02s-.048-.732-.144-1.02a1.855 1.855 0 0 0-.408-.708 1.569 1.569 0 0 0-.624-.42 1.99 1.99 0 0 0-.768-.144c-.28 0-.536.048-.768.144a1.586 1.586 0 0 0-.612.42c-.168.184-.3.42-.396.708a3.234 3.234 0 0 0-.144 1.02c0 .392.048.732.144 1.02.096.288.228.528.396.72.176.184.38.324.612.42.232.088.488.132.768.132Zm7.395-4.344c-.448.04-.856.156-1.224.348-.36.184-.628.472-.804.864V553h-1.056v-6.228h.924l.108 1.356h.024c.176-.368.428-.688.756-.96.336-.28.76-.452 1.272-.516v1.176Zm2.343 5.172h-1.056v-6.228h.924l.108 1.116h.024a2.21 2.21 0 0 1 .756-.876c.336-.24.776-.36 1.32-.36.48 0 .872.116 1.176.348.312.224.52.564.624 1.02.176-.424.444-.756.804-.996.368-.248.812-.372 1.332-.372.576 0 1.032.164 1.368.492.336.32.504.816.504 1.488V553h-1.068v-4.236c0-.408-.1-.704-.3-.888-.2-.192-.472-.288-.816-.288-.232 0-.436.036-.612.108a1.448 1.448 0 0 0-.468.276c-.136.12-.26.26-.372.42-.112.16-.216.328-.312.504V553h-1.056v-4.356c0-.4-.1-.676-.3-.828-.2-.152-.472-.228-.816-.228-.224 0-.424.028-.6.084a1.688 1.688 0 0 0-.48.24 1.89 1.89 0 0 0-.372.384 3.545 3.545 0 0 0-.312.48V553Zm12.715-7.14c-.216 0-.388-.064-.516-.192a.692.692 0 0 1-.192-.492.675.675 0 0 1 .708-.696c.208 0 .372.068.492.204.12.136.18.3.18.492s-.06.356-.18.492c-.12.128-.284.192-.492.192Zm.516.912V553h-1.056v-6.228h1.056Zm4.673.816c-.48 0-.872.112-1.176.336a2.455 2.455 0 0 0-.72.84V553h-1.056v-6.228h.996l.036 1.116h.024c.168-.36.432-.656.792-.888.36-.232.816-.348 1.368-.348.616 0 1.104.164 1.464.492.368.32.552.816.552 1.488V553h-1.056v-4.26c0-.432-.108-.732-.324-.9-.216-.168-.516-.252-.9-.252Zm5.378.084V553h-1.056v-5.328h-.756v-.9h.756v-.156c0-.736.196-1.308.588-1.716.392-.408.928-.612 1.608-.612.296 0 .56.036.792.108v.96a1.406 1.406 0 0 0-.312-.084 2.484 2.484 0 0 0-.432-.036c-.368 0-.66.112-.876.336-.208.224-.312.572-.312 1.044v.156h1.8v.9h-1.8Zm6.121.156c-.448.04-.856.156-1.224.348-.36.184-.628.472-.804.864V553h-1.056v-6.228h.924l.108 1.356h.024c.176-.368.428-.688.756-.96.336-.28.76-.452 1.272-.516v1.176Zm4.818 3.984a3.648 3.648 0 0 1-.276.456 2.088 2.088 0 0 1-1.02.732c-.224.08-.488.12-.792.12-.56 0-1.012-.156-1.356-.468-.344-.32-.516-.776-.516-1.368 0-.68.236-1.18.708-1.5.48-.32 1.16-.48 2.04-.48h1.164v-.516c0-.432-.112-.74-.336-.924-.224-.184-.608-.276-1.152-.276-.384 0-.748.064-1.092.192-.344.12-.652.26-.924.42v-.948c.224-.136.524-.268.9-.396a3.75 3.75 0 0 1 1.26-.204c.784 0 1.38.164 1.788.492.408.32.612.82.612 1.5v3.6c.008.088.012.18.012.276l.024.276c.008.08.016.148.024.204h-.96a5.482 5.482 0 0 1-.072-.468 7.173 7.173 0 0 1-.024-.54l-.012-.18Zm-1.86.36c.328 0 .608-.068.84-.204.232-.136.42-.292.564-.468.144-.184.248-.36.312-.528.064-.176.096-.3.096-.372v-.456h-1.056c-.632 0-1.092.092-1.38.276-.28.176-.42.444-.42.804 0 .28.084.508.252.684.168.176.432.264.792.264Zm6.521.948c-.328 0-.62-.028-.876-.084a4.113 4.113 0 0 1-.66-.18c-.184-.08-.34-.16-.468-.24a3.161 3.161 0 0 1-.3-.228v-.948c.08.08.188.168.324.264.136.088.3.172.492.252.192.08.408.148.648.204.248.048.524.072.828.072.448 0 .804-.072 1.068-.216.264-.144.396-.388.396-.732a.698.698 0 0 0-.132-.444.801.801 0 0 0-.336-.264 2.07 2.07 0 0 0-.504-.168c-.184-.04-.38-.08-.588-.12a22.265 22.265 0 0 1-.78-.18 2.73 2.73 0 0 1-.696-.3 1.633 1.633 0 0 1-.504-.516c-.128-.216-.192-.496-.192-.84 0-.56.216-1 .648-1.32.44-.32 1.052-.48 1.836-.48.44 0 .828.044 1.164.132.344.088.608.184.792.288v.948a2.824 2.824 0 0 0-.78-.336c-.304-.096-.684-.144-1.14-.144-.472 0-.836.064-1.092.192-.248.128-.372.36-.372.696 0 .168.036.304.108.408a.856.856 0 0 0 .288.24c.128.056.272.1.432.132.16.032.328.068.504.108.272.056.552.116.84.18.288.064.544.164.768.3.232.136.42.32.564.552.152.224.228.528.228.912 0 .36-.072.66-.216.9-.144.24-.336.432-.576.576-.232.136-.5.232-.804.288-.296.064-.6.096-.912.096Zm6.856-.252a1.93 1.93 0 0 1-.492.18c-.2.048-.412.072-.636.072-.304 0-.564-.044-.78-.132a1.504 1.504 0 0 1-.516-.348 1.48 1.48 0 0 1-.3-.504 2.09 2.09 0 0 1-.084-.588v-3.876h-.744v-.9h.744v-1.308h1.056v1.308h1.812v.9h-1.812v3.744c0 .264.064.456.192.576.136.12.372.18.708.18.312 0 .596-.088.852-.264v.96Zm4.489-5.04c-.448.04-.856.156-1.224.348-.36.184-.628.472-.804.864V553h-1.056v-6.228h.924l.108 1.356h.024c.176-.368.428-.688.756-.96.336-.28.76-.452 1.272-.516v1.176Zm5.284 4.056a2.233 2.233 0 0 1-.78.888c-.344.232-.796.348-1.356.348-.576 0-1.044-.16-1.404-.48-.352-.328-.528-.832-.528-1.512v-4.356h1.068v4.356c0 .208.028.38.084.516a.886.886 0 0 0 .612.48c.144.032.3.048.468.048.464 0 .836-.104 1.116-.312.28-.208.52-.492.72-.852v-4.236h1.056V553h-.936l-.096-1.116h-.024Zm5.477 1.236a3.77 3.77 0 0 1-1.308-.216 2.861 2.861 0 0 1-.984-.636c-.272-.28-.48-.62-.624-1.02a4.024 4.024 0 0 1-.216-1.368c0-.504.072-.956.216-1.356.152-.4.364-.736.636-1.008a2.63 2.63 0 0 1 .996-.636 3.662 3.662 0 0 1 1.332-.228c.384 0 .736.044 1.056.132.32.08.584.2.792.36v.948a2.798 2.798 0 0 0-.864-.372 3.563 3.563 0 0 0-.972-.132c-.728 0-1.264.188-1.608.564-.336.376-.504.952-.504 1.728s.164 1.352.492 1.728c.328.376.848.564 1.56.564.376 0 .72-.044 1.032-.132.32-.096.608-.216.864-.36v.948a3.678 3.678 0 0 1-1.896.492Zm6.289-.252a1.93 1.93 0 0 1-.492.18c-.2.048-.412.072-.636.072-.304 0-.564-.044-.78-.132a1.504 1.504 0 0 1-.516-.348 1.48 1.48 0 0 1-.3-.504 2.09 2.09 0 0 1-.084-.588v-3.876h-.744v-.9h.744v-1.308h1.056v1.308h1.812v.9h-1.812v3.744c0 .264.064.456.192.576.136.12.372.18.708.18.312 0 .596-.088.852-.264v.96Zm5.402-.984a2.233 2.233 0 0 1-.78.888c-.344.232-.796.348-1.356.348-.576 0-1.044-.16-1.404-.48-.352-.328-.528-.832-.528-1.512v-4.356h1.068v4.356c0 .208.028.38.084.516a.886.886 0 0 0 .612.48c.144.032.3.048.468.048.464 0 .836-.104 1.116-.312.28-.208.52-.492.72-.852v-4.236h1.056V553H414l-.096-1.116h-.024Zm5.873-4.056c-.448.04-.856.156-1.224.348-.36.184-.628.472-.804.864V553h-1.056v-6.228h.924l.108 1.356h.024c.176-.368.428-.688.756-.96.336-.28.76-.452 1.272-.516v1.176Zm6.067 4.644a3.344 3.344 0 0 1-.324.204 3.758 3.758 0 0 1-.468.216 3.946 3.946 0 0 1-.624.156 3.864 3.864 0 0 1-.78.072c-1.048 0-1.844-.284-2.388-.852-.544-.568-.816-1.364-.816-2.388 0-.504.072-.956.216-1.356.152-.4.36-.736.624-1.008.264-.28.576-.492.936-.636.36-.152.752-.228 1.176-.228a3 3 0 0 1 1.2.228c.352.152.64.376.864.672.232.296.388.664.468 1.104.088.432.088.936 0 1.512h-4.392c.04.672.24 1.176.6 1.512.36.328.896.492 1.608.492.48 0 .892-.068 1.236-.204a4.33 4.33 0 0 0 .864-.444v.948Zm-2.472-4.884c-.456 0-.848.14-1.176.42-.328.28-.536.704-.624 1.272h3.348c.032-.576-.1-1-.396-1.272-.296-.28-.68-.42-1.152-.42Z"/>
    <path fill="#E3EBFF" d="M194 81.792H90a8 8 0 0 0-8 8v34a8 8 0 0 0 8 8h104a8 8 0 0 0 8-8v-34a8 8 0 0 0-8-8Z"/>
    <path fill="#262626" d="M137.085 102.188h1.14v5.664c0 .696.196 1.212.588 1.548.4.336.944.504 1.632.504.336 0 .644-.04.924-.12.288-.088.536-.216.744-.384a1.76 1.76 0 0 0 .48-.648c.12-.256.18-.556.18-.9v-5.664h1.08v5.628c0 .496-.088.936-.264 1.32-.176.384-.42.708-.732.972a3.09 3.09 0 0 1-1.08.6 4.34 4.34 0 0 1-1.356.204c-.472 0-.912-.064-1.32-.192a3.058 3.058 0 0 1-1.068-.576 2.679 2.679 0 0 1-.696-.948c-.168-.384-.252-.828-.252-1.332v-5.676Zm9.641 0v8.604h-1.128v-8.604h1.128Z"/>
    <path fill="#E3EBFF" d="M398 81.792H294a8 8 0 0 0-8 8v34a8 8 0 0 0 8 8h104a8 8 0 0 0 8-8v-34a8 8 0 0 0-8-8Z"/>
    <path fill="#262626" d="M337.812 110.912c-.392 0-.744-.028-1.056-.084a5.07 5.07 0 0 1-.828-.192 4.264 4.264 0 0 1-.6-.276 2.38 2.38 0 0 1-.384-.3v-1.08c.12.104.276.212.468.324.192.104.412.2.66.288.256.088.528.16.816.216.296.056.604.084.924.084.624 0 1.12-.116 1.488-.348.368-.24.552-.6.552-1.08 0-.24-.044-.436-.132-.588a1.07 1.07 0 0 0-.384-.396 2.236 2.236 0 0 0-.636-.276c-.248-.08-.54-.164-.876-.252a16.032 16.032 0 0 1-1.008-.3 3.714 3.714 0 0 1-.912-.444 2.247 2.247 0 0 1-.648-.696c-.16-.28-.24-.636-.24-1.068 0-.744.26-1.324.78-1.74.52-.416 1.316-.624 2.388-.624.312 0 .588.02.828.06.248.032.464.076.648.132.192.048.356.104.492.168.144.064.272.124.384.18v1.08a3.368 3.368 0 0 0-1.092-.456 5.19 5.19 0 0 0-1.26-.144c-.384 0-.708.032-.972.096-.256.056-.464.14-.624.252a.995.995 0 0 0-.348.408c-.072.16-.108.34-.108.54 0 .24.052.44.156.6.112.16.256.296.432.408.184.104.392.192.624.264.232.072.476.136.732.192.336.08.68.172 1.032.276.352.104.668.248.948.432.28.184.508.424.684.72.184.288.276.664.276 1.128 0 .456-.092.844-.276 1.164a2.247 2.247 0 0 1-.708.768 3 3 0 0 1-1.02.432 5.356 5.356 0 0 1-1.2.132Zm4.632-8.724h2.892c.576 0 1.112.068 1.608.204.496.136.928.36 1.296.672.368.312.656.724.864 1.236.208.512.312 1.144.312 1.896 0 .76-.108 1.428-.324 2.004a3.949 3.949 0 0 1-.876 1.428 3.615 3.615 0 0 1-1.332.876 4.749 4.749 0 0 1-1.68.288h-2.76v-8.604Zm1.128 1.032v6.552h1.632c.44 0 .844-.068 1.212-.204.368-.136.684-.344.948-.624.264-.288.468-.652.612-1.092.144-.44.216-.964.216-1.572 0-.6-.072-1.096-.216-1.488-.144-.4-.344-.716-.6-.948a2.003 2.003 0 0 0-.9-.48 4.32 4.32 0 0 0-1.14-.144h-1.764Zm9.384 3.888h-.912v3.684h-1.128v-8.604h1.128v3.9h.84l3.072-3.9h1.272l-3.396 4.296 3.528 4.308h-1.404l-3-3.684Z"/>
    <path fill="#E3EBFF" d="M602 81.792H498a8 8 0 0 0-8 8v34a8 8 0 0 0 8 8h104a8 8 0 0 0 8-8v-34a8 8 0 0 0-8-8Z"/>
    <path fill="#262626" d="M545.717 110.912c-.64 0-1.22-.1-1.74-.3-.52-.2-.968-.488-1.344-.864a3.955 3.955 0 0 1-.852-1.392c-.2-.552-.3-1.172-.3-1.86 0-.696.092-1.316.276-1.86a3.657 3.657 0 0 1 .816-1.38c.36-.384.8-.676 1.32-.876.528-.2 1.128-.3 1.8-.3.584 0 1.096.064 1.536.192.44.12.8.264 1.08.432v1.08a3.98 3.98 0 0 0-1.248-.516 5.865 5.865 0 0 0-1.38-.168c-1.016 0-1.768.284-2.256.852-.48.56-.72 1.408-.72 2.544 0 1.144.26 1.996.78 2.556.528.56 1.304.84 2.328.84.44 0 .868-.06 1.284-.18.424-.12.828-.324 1.212-.612v1.08c-.232.184-.572.352-1.02.504-.44.152-.964.228-1.572.228Zm9.634-.12h-5.316v-8.604h1.128v7.584h4.188v1.02Zm2.68-8.604v8.604h-1.128v-8.604h1.128Z"/>
    <path stroke="#5282FF" stroke-width="2" d="M627 66.539H62a7 7 0 0 0-7 7v64.308a7 7 0 0 0 7 7h565a7 7 0 0 0 7-7V73.539a7 7 0 0 0-7-7Z"/>
    <path fill="#E3EBFF" d="M627 189.824H62a8 8 0 0 0-8 8v34a8 8 0 0 0 8 8h565a8 8 0 0 0 8-8v-34a8 8 0 0 0-8-8Z"/>
    <path fill="#262626" d="M339.419 210.22h1.68l3.084 8.604h-1.2l-.888-2.46h-3.804l-.876 2.46h-1.056l3.06-8.604Zm2.316 5.124-1.536-4.284-1.536 4.284h3.072Zm3.701-5.124h2.748c.976 0 1.732.204 2.268.612.544.4.816 1.028.816 1.884 0 .488-.08.908-.24 1.26a2.22 2.22 0 0 1-.648.852c-.28.224-.616.388-1.008.492a4.91 4.91 0 0 1-1.284.156h-1.524v3.348h-1.128v-8.604Zm1.128 1.032v3.204h1.524c.304 0 .58-.032.828-.096s.46-.164.636-.3a1.3 1.3 0 0 0 .42-.528c.104-.224.156-.492.156-.804 0-.52-.168-.896-.504-1.128-.336-.232-.816-.348-1.44-.348h-1.62Zm7.324-1.032v8.604h-1.128v-8.604h1.128Z"/>
    <path stroke="#262626" stroke-linecap="round" stroke-linejoin="round" stroke-width="2" d="M325 28h-24a2 2 0 0 0-2 2v14a2 2 0 0 0 2 2h24a2 2 0 0 0 2-2V30a2 2 0 0 0-2-2Zm-9 18h-6v6h6v-6Zm-10 6h14"/>
    <path fill="#262626" d="M339.136 35.396V44h-1.128v-8.604h1.128Zm4.809 3.192c-.48 0-.872.112-1.176.336a2.455 2.455 0 0 0-.72.84V44h-1.056v-6.228h.996l.036 1.116h.024c.168-.36.432-.656.792-.888.36-.232.816-.348 1.368-.348.616 0 1.104.164 1.464.492.368.32.552.816.552 1.488V44h-1.056v-4.26c0-.432-.108-.732-.324-.9-.216-.168-.516-.252-.9-.252Zm6.998 5.28a1.93 1.93 0 0 1-.492.18c-.2.048-.412.072-.636.072-.304 0-.564-.044-.78-.132a1.504 1.504 0 0 1-.516-.348 1.48 1.48 0 0 1-.3-.504 2.09 2.09 0 0 1-.084-.588v-3.876h-.744v-.9h.744v-1.308h1.056v1.308h1.812v.9h-1.812v3.744c0 .264.064.456.192.576.136.12.372.18.708.18.312 0 .596-.088.852-.264v.96Zm6.303-.396a3.344 3.344 0 0 1-.324.204 3.758 3.758 0 0 1-.468.216 3.946 3.946 0 0 1-.624.156 3.864 3.864 0 0 1-.78.072c-1.048 0-1.844-.284-2.388-.852-.544-.568-.816-1.364-.816-2.388 0-.504.072-.956.216-1.356.152-.4.36-.736.624-1.008.264-.28.576-.492.936-.636.36-.152.752-.228 1.176-.228a3 3 0 0 1 1.2.228c.352.152.64.376.864.672.232.296.388.664.468 1.104.088.432.088.936 0 1.512h-4.392c.04.672.24 1.176.6 1.512.36.328.896.492 1.608.492.48 0 .892-.068 1.236-.204a4.33 4.33 0 0 0 .864-.444v.948Zm-2.472-4.884c-.456 0-.848.14-1.176.42-.328.28-.536.704-.624 1.272h3.348c.032-.576-.1-1-.396-1.272-.296-.28-.68-.42-1.152-.42Zm6.963.24c-.448.04-.856.156-1.224.348-.36.184-.628.472-.804.864V44h-1.056v-6.228h.924l.108 1.356h.024c.176-.368.428-.688.756-.96.336-.28.76-.452 1.272-.516v1.176Zm2.715-.156V44h-1.056v-5.328h-.756v-.9h.756v-.156c0-.736.196-1.308.588-1.716.392-.408.928-.612 1.608-.612.296 0 .56.036.792.108v.96a1.406 1.406 0 0 0-.312-.084 2.484 2.484 0 0 0-.432-.036c-.368 0-.66.112-.876.336-.208.224-.312.572-.312 1.044v.156h1.8v.9h-1.8Zm6.509 4.14a3.648 3.648 0 0 1-.276.456 2.088 2.088 0 0 1-1.02.732c-.224.08-.488.12-.792.12-.56 0-1.012-.156-1.356-.468-.344-.32-.516-.776-.516-1.368 0-.68.236-1.18.708-1.5.48-.32 1.16-.48 2.04-.48h1.164v-.516c0-.432-.112-.74-.336-.924-.224-.184-.608-.276-1.152-.276-.384 0-.748.064-1.092.192-.344.12-.652.26-.924.42v-.948c.224-.136.524-.268.9-.396a3.75 3.75 0 0 1 1.26-.204c.784 0 1.38.164 1.788.492.408.32.612.82.612 1.5v3.6c.008.088.012.18.012.276l.024.276c.008.08.016.148.024.204h-.96a5.482 5.482 0 0 1-.072-.468 7.173 7.173 0 0 1-.024-.54l-.012-.18Zm-1.86.36c.328 0 .608-.068.84-.204.232-.136.42-.292.564-.468.144-.184.248-.36.312-.528.064-.176.096-.3.096-.372v-.456h-1.056c-.632 0-1.092.092-1.38.276-.28.176-.42.444-.42.804 0 .28.084.508.252.684.168.176.432.264.792.264Zm7.217.948a3.77 3.77 0 0 1-1.308-.216 2.861 2.861 0 0 1-.984-.636c-.272-.28-.48-.62-.624-1.02a4.024 4.024 0 0 1-.216-1.368c0-.504.072-.956.216-1.356.152-.4.364-.736.636-1.008a2.63 2.63 0 0 1 .996-.636 3.662 3.662 0 0 1 1.332-.228c.384 0 .736.044 1.056.132.32.08.584.2.792.36v.948a2.798 2.798 0 0 0-.864-.372 3.563 3.563 0 0 0-.972-.132c-.728 0-1.264.188-1.608.564-.336.376-.504.952-.504 1.728s.164 1.352.492 1.728c.328.376.848.564 1.56.564.376 0 .72-.044 1.032-.132.32-.096.608-.216.864-.36v.948a3.678 3.678 0 0 1-1.896.492Zm8.139-.648a3.344 3.344 0 0 1-.324.204 3.758 3.758 0 0 1-.468.216 3.946 3.946 0 0 1-.624.156 3.864 3.864 0 0 1-.78.072c-1.048 0-1.844-.284-2.388-.852-.544-.568-.816-1.364-.816-2.388 0-.504.072-.956.216-1.356.152-.4.36-.736.624-1.008.264-.28.576-.492.936-.636.36-.152.752-.228 1.176-.228a3 3 0 0 1 1.2.228c.352.152.64.376.864.672.232.296.388.664.468 1.104.088.432.088.936 0 1.512h-4.392c.04.672.24 1.176.6 1.512.36.328.896.492 1.608.492.48 0 .892-.068 1.236-.204a4.33 4.33 0 0 0 .864-.444v.948Zm-2.472-4.884c-.456 0-.848.14-1.176.42-.328.28-.536.704-.624 1.272h3.348c.032-.576-.1-1-.396-1.272-.296-.28-.68-.42-1.152-.42Zm5.871 5.532c-.328 0-.62-.028-.876-.084a4.113 4.113 0 0 1-.66-.18c-.184-.08-.34-.16-.468-.24a3.161 3.161 0 0 1-.3-.228v-.948c.08.08.188.168.324.264.136.088.3.172.492.252.192.08.408.148.648.204.248.048.524.072.828.072.448 0 .804-.072 1.068-.216.264-.144.396-.388.396-.732a.698.698 0 0 0-.132-.444.801.801 0 0 0-.336-.264 2.07 2.07 0 0 0-.504-.168c-.184-.04-.38-.08-.588-.12a22.265 22.265 0 0 1-.78-.18 2.73 2.73 0 0 1-.696-.3 1.633 1.633 0 0 1-.504-.516c-.128-.216-.192-.496-.192-.84 0-.56.216-1 .648-1.32.44-.32 1.052-.48 1.836-.48.44 0 .828.044 1.164.132.344.088.608.184.792.288v.948a2.824 2.824 0 0 0-.78-.336c-.304-.096-.684-.144-1.14-.144-.472 0-.836.064-1.092.192-.248.128-.372.36-.372.696 0 .168.036.304.108.408a.856.856 0 0 0 .288.24c.128.056.272.1.432.132.16.032.328.068.504.108.272.056.552.116.84.18.288.064.544.164.768.3.232.136.42.32.564.552.152.224.228.528.228.912 0 .36-.072.66-.216.9-.144.24-.336.432-.576.576-.232.136-.5.232-.804.288-.296.064-.6.096-.912.096Z"/>
    <path fill="#4E496B" d="m345 182.956 5.774-10h-11.548l5.774 10Zm0-30-5.774 10h11.548l-5.774-10Zm1 21v-12h-2v12h2ZM346 309l5.774-10h-11.548L346 309Zm0-42-5.774 10h11.548L346 267Zm1 33v-24h-2v24h2Zm-1 200 5.774-10h-11.548L346 500Zm0-42-5.774 10h11.548L346 458Zm1 33v-24h-2v24h2Zm-1 220 5.774-10h-11.548L346 711Zm0-42-5.774 10h11.548L346 669Zm1 33v-24h-2v24h2Z"/>
    <path fill="#000" d="M560.448 819.273V828h-1.023l-4.755-6.852h-.086V828h-1.056v-8.727h1.022l4.773 6.869h.085v-6.869h1.04Zm4.723 8.863c-.631 0-1.175-.139-1.632-.417a2.803 2.803 0 0 1-1.053-1.176c-.244-.506-.367-1.094-.367-1.765 0-.67.123-1.261.367-1.772a2.888 2.888 0 0 1 1.031-1.202c.443-.29.96-.435 1.551-.435.341 0 .678.057 1.01.171.333.113.635.298.908.554.273.253.49.588.652 1.005.162.418.243.932.243 1.543v.426h-5.046v-.869h4.023c0-.369-.074-.699-.221-.989a1.673 1.673 0 0 0-.623-.686 1.746 1.746 0 0 0-.946-.251c-.4 0-.747.099-1.039.298a1.96 1.96 0 0 0-.669.767 2.242 2.242 0 0 0-.235 1.014v.58c0 .494.085.913.256 1.257.173.341.413.601.72.78.307.176.663.264 1.07.264.264 0 .502-.037.716-.111.215-.077.402-.19.558-.341.156-.153.277-.344.362-.571l.972.273a2.171 2.171 0 0 1-.516.869 2.52 2.52 0 0 1-.895.58 3.325 3.325 0 0 1-1.197.204Zm7.086-6.681v.852h-3.392v-.852h3.392Zm-2.403-1.569h1.006v6.239c0 .284.041.497.123.639a.637.637 0 0 0 .324.281c.134.046.274.069.422.069.111 0 .202-.006.273-.017l.17-.035.205.904a2.246 2.246 0 0 1-.75.119c-.284 0-.563-.061-.836-.183a1.656 1.656 0 0 1-.673-.558c-.176-.25-.264-.566-.264-.946v-6.512Zm5.399 8.114-1.994-6.545h1.057l1.414 5.011h.068l1.398-5.011h1.074l1.381 4.994h.068l1.415-4.994h1.057L580.196 828h-.988l-1.432-5.028h-.103L576.242 828h-.989Zm10.703.136c-.59 0-1.109-.14-1.555-.422a2.863 2.863 0 0 1-1.04-1.18c-.247-.506-.37-1.097-.37-1.773 0-.681.123-1.277.37-1.785.25-.509.597-.904 1.04-1.185.446-.281.965-.422 1.555-.422.591 0 1.108.141 1.552.422.446.281.792.676 1.039 1.185.25.508.375 1.104.375 1.785 0 .676-.125 1.267-.375 1.773a2.82 2.82 0 0 1-1.039 1.18c-.444.282-.961.422-1.552.422Zm0-.903c.449 0 .819-.115 1.108-.345.29-.23.505-.533.644-.908a3.48 3.48 0 0 0 .209-1.219c0-.437-.07-.845-.209-1.223a2.063 2.063 0 0 0-.644-.916c-.289-.233-.659-.349-1.108-.349-.448 0-.818.116-1.107.349-.29.233-.505.539-.644.916a3.518 3.518 0 0 0-.209 1.223c0 .438.07.844.209 1.219.139.375.354.678.644.908.289.23.659.345 1.107.345Zm4.502.767v-6.545h.971v.988h.068c.12-.324.336-.586.648-.788a1.906 1.906 0 0 1 1.057-.303 10.862 10.862 0 0 1 .528.017v1.023a3.308 3.308 0 0 0-.234-.038 2.292 2.292 0 0 0-.379-.03c-.319 0-.603.067-.853.2a1.468 1.468 0 0 0-.801 1.334V828h-1.005Zm5.402-2.386-.017-1.245h.204l2.864-2.914h1.244l-3.051 3.085h-.085l-1.159 1.074Zm-.938 2.386v-8.727h1.006V828h-1.006Zm4.159 0-2.556-3.239.716-.699L600.36 828h-1.279Z"/>
    <path fill="#5282FF" d="M137 410c0-8.837-7.163-16-16-16s-16 7.163-16 16 7.163 16 16 16 16-7.163 16-16Z"/>
    <path fill="#fff" fill-rule="evenodd" d="M113.061 411h10.02a1.503 1.503 0 0 0 2.916-.5 1.503 1.503 0 0 0-1.5-1.5c-.653 0-1.21.413-1.416 1h-10.08c0-4.413 3.584-8 7.999-8a7.99 7.99 0 0 1 6.244 3h-6.33c-.205-.587-.762-1-1.414-1a1.498 1.498 0 0 0-1.497 1.603 1.5 1.5 0 0 0 .901 1.273 1.502 1.502 0 0 0 2.01-.876h7.014a7.956 7.956 0 0 1 1.072 4c0 1.453-.39 2.827-1.073 4h-7.012c-.206-.587-.763-1-1.415-1a1.498 1.498 0 0 0-1.497 1.603 1.5 1.5 0 0 0 .901 1.273 1.502 1.502 0 0 0 2.01-.876h6.33a8.004 8.004 0 0 1-2.78 2.212A8.004 8.004 0 0 1 113.061 411Z" clip-rule="evenodd"/>
    <path fill="#5282FF" d="M87 410c0-8.837-7.163-16-16-16s-16 7.163-16 16 7.163 16 16 16 16-7.163 16-16Z"/>
    <path fill="#fff" fill-rule="evenodd" d="M71.5 415c1.37 0 2.642-.424 3.69-1.148l2.46 2.772a.788.788 0 0 0 .551.223c.207 0 .405-.08.552-.223a.747.747 0 0 0 0-1.073l-2.409-2.717A6.5 6.5 0 1 0 71.5 415Zm0-1a5.5 5.5 0 1 0 0-11 5.5 5.5 0 0 0 0 11Zm3.5-7.5a1.5 1.5 0 1 1-3 0 1.5 1.5 0 0 1 3 0Zm-7 1.5c-.336 0-.665.033-.982.096a4.5 4.5 0 0 0 5.976 4.65A5 5 0 0 0 68 408Zm4.013 7.983a7.502 7.502 0 0 1-7.893-6.137 5 5 0 1 0 7.893 6.137Z" clip-rule="evenodd"/>
    <path fill="#5282FF" d="M187 410c0-8.837-7.163-16-16-16s-16 7.163-16 16 7.163 16 16 16 16-7.163 16-16Z"/>
    <path fill="#fff" fill-rule="evenodd" d="M168 402h5c3.3 0 6 2.7 6 6v10h-4v-4h2v-1h-3.4c-3.1 0-5.6-2.5-5.6-5.6V402Zm6 9h2v-2h-2v2Zm-7-7.9v4.3c0 3.4 2.6 6.3 6 6.7v.5c0 1.4-2.2 2.5-5 2.5s-5-1.1-5-2.5v-9c0-1.3 1.7-2.3 4-2.5Z" clip-rule="evenodd"/>
    <path fill="#5282FF" d="M237 410c0-8.837-7.163-16-16-16s-16 7.163-16 16 7.163 16 16 16 16-7.163 16-16Z"/>
    <path fill="#fff" fill-rule="evenodd" d="M215 415.493V406.4c.39.32.863.573 1.374.787 1.235.52 2.87.813 4.626.813 1.754 0 3.39-.293 4.625-.813.51-.214.984-.467 1.374-.787v9.093C227 416.88 224.312 418 221 418s-6-1.12-6-2.507Zm4.53 1.04 1.47-1.466 1.47 1.466a.742.742 0 0 0 .816.163.755.755 0 0 0 .243-1.229l-2-2a.742.742 0 0 0-.817-.163.742.742 0 0 0-.243.163l-2 2a.755.755 0 0 0 .817 1.229.746.746 0 0 0 .244-.163Zm0-4 1.47-1.466 1.47 1.466a.742.742 0 0 0 .816.163.755.755 0 0 0 .243-1.229l-2-2a.742.742 0 0 0-.817-.163.742.742 0 0 0-.243.163l-2 2a.755.755 0 0 0 .817 1.229.746.746 0 0 0 .244-.163Zm-4.53-8.04c0-1.373 2.689-2.493 6-2.493s6 1.12 6 2.493c0 1.387-2.689 2.507-6 2.507s-6-1.12-6-2.507Z" clip-rule="evenodd"/>
    <path fill="#5282FF" d="M637 410c0-8.837-7.163-16-16-16s-16 7.163-16 16 7.163 16 16 16 16-7.163 16-16Z"/>
    <path fill="#fff" d="M630 412v-4h-3.99l-2.01-1.16V405h-3.987L618 403.838V402h-4v4h4v-1.008l2 1.155v1.705l-2 1.155V408h-4v4h4v-1.008l2 1.155v1.705l-2 1.155V414h-4v4h4v-1.838l2.013-1.162H624v-1.84l2.01-1.16H630Zm-9.987-1-1.732-1 1.732-1H624v-1.006l2 1.155v1.701l-2 1.155V411h-3.987Z"/>
    <path fill="#5282FF" d="M487 410c0-8.837-7.163-16-16-16s-16 7.163-16 16 7.163 16 16 16 16-7.163 16-16Z"/>
    <path fill="#fff" fill-rule="evenodd" d="M475 403h3v13h-3v-13Zm-8 3h3v10h-3v-10Zm-4 5h3v5h-3v-5Zm11-3h-3v8h3v-8Z" clip-rule="evenodd"/>
    <path fill="#5282FF" d="M587 410c0-8.837-7.163-16-16-16s-16 7.163-16 16 7.163 16 16 16 16-7.163 16-16Z"/>
    <path fill="#fff" fill-rule="evenodd" d="M570.5 406.5c.8-1.4 1.9-2.9 3.1-4.5 6.5 8.8 7.8 13 .5 16v-8h-1v8c-3.2-1.3-4.8-2.8-5-4.9-.1-1.7.7-3.9 2.4-6.6Zm-3.3 5.1c-.2 1.4 0 2.9.8 4.1.4.4.8.9 1.1 1.3-.3.1-.7.1-1.1.1-2.8 0-5-1.1-5-2.5v-9c0-1.4 2.2-2.5 5-2.5.9 0 2.5 0 3.1.6 0 0-1.7 2.4-2.4 3.7-.7 1.3-1.2 2.7-1.5 4.2Z" clip-rule="evenodd"/>
    <path fill="#5282FF" d="M537 410c0-8.837-7.163-16-16-16s-16 7.163-16 16 7.163 16 16 16 16-7.163 16-16Z"/>
    <path fill="#fff" fill-rule="evenodd" d="M513 405.5c0-1.4 2.2-2.5 5-2.5 1.4 0 2.8.3 4 1h-3v12h3c-1.2.7-2.6 1-4 1-2.8 0-5-1.1-5-2.5v-9Zm7-.5h1v10h-1v-10Zm3 0h-1v10h1v-10Zm1 0h1v10h-1v-10Zm3 0h-1v10h1v-10Zm1 3h1v4h-1v-4Z" clip-rule="evenodd"/>
    <path fill="#5282FF" d="M387 410c0-8.837-7.163-16-16-16s-16 7.163-16 16 7.163 16 16 16 16-7.163 16-16Z"/>
    <path fill="#fff" d="M364 404h-1v12h16v-2h-15v-10Zm11.5 5.5L372 406l-3.5 3.5-3.5-3.5v7h14v-7l-3.5 3.5Z"/>
    <path fill="#5282FF" d="M437 410c0-8.837-7.163-16-16-16s-16 7.163-16 16 7.163 16 16 16 16-7.163 16-16Z"/>
    <path fill="#fff" d="M428 411v2h-14v-2h-1v5a1 1 0 0 0 1 1h14a1 1 0 0 0 1-1v-5h-1Zm-5-8h-4v4h4v-4Zm-3 5h-4v4h4v-4Zm2 4h4v-4h-4v4Z"/>
    <path fill="#5282FF" d="M287 410c0-8.837-7.163-16-16-16s-16 7.163-16 16 7.163 16 16 16 16-7.163 16-16Z"/>
    <path fill="#fff" d="m267.44 417.599-4.44-5.567 1.583-6.944L271 402l6.417 3.089 1.583 6.944-4.44 5.566h-7.12Zm7.116-9.605-3.557-2.042-3.555 2.042v4.36L271 414.4l3.556-2.046v-4.36Zm-1.085.623h.007L271 410.042l-2.477-1.426h.005l2.471-1.419 2.472 1.42Z"/>
    <path fill="#5282FF" d="M337 410c0-8.837-7.163-16-16-16s-16 7.163-16 16 7.163 16 16 16 16-7.163 16-16Z"/>
    <path fill="#fff" d="M322 411h2.3c.4.6 1 1 1.7 1 1.1 0 2-.9 2-2s-.9-2-2-2c-.7 0-1.4.4-1.7 1H322v-4h2.3c.4.6 1 1 1.7 1 1.1 0 2-.9 2-2s-.9-2-2-2c-.7 0-1.4.4-1.7 1H322c-1.1 0-2 .9-2 2v4.3l-5-3.3v3h-3v2h3v3l5-3.3v4.3c0 1.1.9 2 2 2h2.3c.4.6 1 1 1.7 1 1.1 0 2-.9 2-2s-.9-2-2-2c-.7 0-1.4.4-1.7 1H322v-4Z"/>
    <defs>
        <filter id="filter0_dd_7_41" width="678" height="261" x="8" y="6" color-interpolation-filters="sRGB" filterUnits="userSpaceOnUse">
            <feFlood flood-opacity="0" result="BackgroundImageFix"/>
            <feColorMatrix in="SourceAlpha" result="hardAlpha" values="0 0 0 0 0 0 0 0 0 0 0 0 0 0 0 0 0 0 127 0"/>
            <feOffset dx="1" dy="2"/>
            <feGaussianBlur stdDeviation="4"/>
            <feColorMatrix values="0 0 0 0 0.221354 0 0 0 0 0.35647 0 0 0 0 0.708333 0 0 0 0.4 0"/>
            <feBlend in2="BackgroundImageFix" result="effect1_dropShadow_7_41"/>
            <feColorMatrix in="SourceAlpha" result="hardAlpha" values="0 0 0 0 0 0 0 0 0 0 0 0 0 0 0 0 0 0 127 0"/>
            <feOffset/>
            <feGaussianBlur stdDeviation="2"/>
            <feComposite in2="hardAlpha" operator="out"/>
            <feColorMatrix values="0 0 0 0 0.219608 0 0 0 0 0.356863 0 0 0 0 0.709804 0 0 0 0.04 0"/>
            <feBlend in2="effect1_dropShadow_7_41" result="effect2_dropShadow_7_41"/>
            <feBlend in="SourceGraphic" in2="effect2_dropShadow_7_41" result="shape"/>
        </filter>
    </defs>
</svg>
