<svg xmlns="http://www.w3.org/2000/svg" width="700" height="582" fill="none"><g filter="url(#a)"><rect width="473" height="518" x="201" y="32" fill="#fff" rx="15"/></g><rect width="192" height="391" x="236.5" y="123.5" fill="#fff" stroke="#5282FF" rx="4.5"/><path fill="#18123D" d="M314.288 170.16c-.885 0-1.685-.133-2.4-.4a5.189 5.189 0 0 1-1.84-1.152 5.344 5.344 0 0 1-1.168-1.856c-.267-.736-.4-1.563-.4-2.48 0-.928.128-1.755.384-2.48.267-.725.645-1.339 1.136-1.84a4.92 4.92 0 0 1 1.824-1.168c.715-.267 1.531-.4 2.448-.4.789 0 1.461.08 2.016.24.565.149 1.013.325 1.344.528v1.728c-.416-.267-.917-.469-1.504-.608a7.125 7.125 0 0 0-1.792-.224c-1.291 0-2.251.352-2.88 1.056-.619.693-.928 1.749-.928 3.168 0 2.816 1.301 4.224 3.904 4.224.608 0 1.179-.075 1.712-.224a4.654 4.654 0 0 0 1.488-.704v1.712c-.299.224-.731.427-1.296.608-.565.181-1.248.272-2.048.272Zm9.841-6.672a4.078 4.078 0 0 0-1.648.288 2.26 2.26 0 0 0-1.12.96V170h-1.856v-8.304h1.696l.128 1.728h.032c.267-.512.63-.939 1.088-1.28.47-.341 1.03-.544 1.68-.608v1.952Zm8.289 5.904a8.82 8.82 0 0 1-.432.256 4.33 4.33 0 0 1-.608.24 6.091 6.091 0 0 1-1.872.272c-1.525 0-2.667-.379-3.424-1.136-.747-.757-1.12-1.819-1.12-3.184 0-.672.101-1.275.304-1.808.203-.533.485-.981.848-1.344a3.564 3.564 0 0 1 1.296-.848 4.35 4.35 0 0 1 1.648-.304c.619 0 1.173.101 1.664.304a2.95 2.95 0 0 1 1.232.912c.32.405.539.907.656 1.504.128.597.133 1.296.016 2.096h-5.744c.075.757.325 1.328.752 1.712.427.373 1.093.56 2 .56.661 0 1.211-.08 1.648-.24a7.703 7.703 0 0 0 1.136-.528v1.536Zm-3.36-6.384c-.544 0-1.003.165-1.376.496-.373.331-.619.821-.736 1.472h3.904c.021-.672-.128-1.168-.448-1.488-.32-.32-.768-.48-1.344-.48Zm9.997 5.536a2.788 2.788 0 0 1-.352.576 2.491 2.491 0 0 1-.528.528 2.652 2.652 0 0 1-.736.368 3.191 3.191 0 0 1-1.008.144c-.363 0-.699-.053-1.008-.16a2.256 2.256 0 0 1-.816-.448 2.317 2.317 0 0 1-.544-.752 2.739 2.739 0 0 1-.192-1.056c0-.907.336-1.584 1.008-2.032.672-.459 1.621-.688 2.848-.688h1.264v-.512c0-.544-.139-.917-.416-1.12-.277-.213-.736-.32-1.376-.32-.544 0-1.056.08-1.536.24a6.729 6.729 0 0 0-1.248.528v-1.552c.331-.181.768-.352 1.312-.512a6.272 6.272 0 0 1 1.776-.24c1.067 0 1.888.224 2.464.672.587.437.88 1.141.88 2.112V168.992c.011.117.016.24.016.368l.032.368c.011.107.021.197.032.272h-1.712a7.266 7.266 0 0 1-.096-.624 27.094 27.094 0 0 1-.048-.72l-.016-.112Zm-2.112.176c.395 0 .72-.08.976-.24.267-.171.48-.363.64-.576a2.26 2.26 0 0 0 .336-.656c.064-.213.096-.363.096-.448v-.56h-1.152c-.736 0-1.275.117-1.616.352a1.082 1.082 0 0 0-.512.96c0 .363.101.651.304.864.213.203.523.304.928.304Zm10.37 1.024a2.686 2.686 0 0 1-.72.288 3.511 3.511 0 0 1-.992.128c-.448 0-.827-.059-1.136-.176a2.07 2.07 0 0 1-.736-.512 1.935 1.935 0 0 1-.416-.736 3.206 3.206 0 0 1-.128-.912V163.2h-.992v-1.504h.992v-1.744h1.856v1.744h2.384v1.504h-2.384v4.416c0 .341.08.592.24.752.171.16.448.24.832.24.256 0 .48-.037.672-.112a2.01 2.01 0 0 0 .528-.304v1.552Zm8.59-.352c-.118.075-.262.16-.432.256a4.38 4.38 0 0 1-.608.24 6.091 6.091 0 0 1-1.872.272c-1.526 0-2.667-.379-3.424-1.136-.747-.757-1.12-1.819-1.12-3.184 0-.672.101-1.275.304-1.808a3.75 3.75 0 0 1 .848-1.344 3.548 3.548 0 0 1 1.296-.848 4.347 4.347 0 0 1 1.648-.304c.618 0 1.173.101 1.664.304a2.95 2.95 0 0 1 1.232.912c.32.405.538.907.656 1.504.128.597.133 1.296.016 2.096h-5.744c.074.757.325 1.328.752 1.712.426.373 1.093.56 2 .56.661 0 1.21-.08 1.648-.24a7.752 7.752 0 0 0 1.136-.528v1.536Zm-3.36-6.384c-.544 0-1.003.165-1.376.496-.374.331-.619.821-.736 1.472h3.904c.021-.672-.128-1.168-.448-1.488-.32-.32-.768-.48-1.344-.48Zm-73.902 24.536a2.788 2.788 0 0 1-.352.576 2.491 2.491 0 0 1-.528.528 2.652 2.652 0 0 1-.736.368 3.191 3.191 0 0 1-1.008.144c-.363 0-.699-.053-1.008-.16a2.256 2.256 0 0 1-.816-.448 2.317 2.317 0 0 1-.544-.752 2.739 2.739 0 0 1-.192-1.056c0-.907.336-1.584 1.008-2.032.672-.459 1.621-.688 2.848-.688h1.264v-.512c0-.544-.139-.917-.416-1.12-.277-.213-.736-.32-1.376-.32-.544 0-1.056.08-1.536.24a6.729 6.729 0 0 0-1.248.528v-1.552c.331-.181.768-.352 1.312-.512a6.272 6.272 0 0 1 1.776-.24c1.067 0 1.888.224 2.464.672.587.437.88 1.141.88 2.112V187.992c.011.117.016.24.016.368l.032.368c.011.107.021.197.032.272h-1.712a7.266 7.266 0 0 1-.096-.624 27.094 27.094 0 0 1-.048-.72l-.016-.112Zm-2.112.176c.395 0 .72-.08.976-.24.267-.171.48-.363.64-.576a2.26 2.26 0 0 0 .336-.656c.064-.213.096-.363.096-.448v-.56h-1.152c-.736 0-1.275.117-1.616.352a1.082 1.082 0 0 0-.512.96c0 .363.101.651.304.864.213.203.523.304.928.304Zm17.678-2.88c0 .736-.102 1.376-.304 1.92a3.83 3.83 0 0 1-.8 1.344c-.331.352-.72.619-1.168.8a3.917 3.917 0 0 1-1.408.256c-.64 0-1.195-.144-1.664-.432a3.287 3.287 0 0 1-1.104-1.216l-.048 1.488h-1.76v-11.472h1.856l-.016 4.624a3.19 3.19 0 0 1 1.104-1.184c.458-.288 1.013-.432 1.664-.432.49 0 .954.091 1.392.272.448.171.837.437 1.168.8.33.352.592.8.784 1.344.202.533.304 1.163.304 1.888Zm-4.128 2.768c.661 0 1.194-.224 1.6-.672.416-.459.624-1.157.624-2.096 0-.928-.208-1.621-.624-2.08-.406-.459-.934-.688-1.584-.688a2.32 2.32 0 0 0-.912.176 1.91 1.91 0 0 0-.736.512 2.566 2.566 0 0 0-.48.88c-.118.341-.176.741-.176 1.2 0 .469.058.88.176 1.232.117.341.277.629.48.864.202.224.442.395.72.512.288.107.592.16.912.16Zm6.644-7.968a1.15 1.15 0 0 1-.848-.336 1.122 1.122 0 0 1-.32-.8c0-.309.107-.576.32-.8a1.15 1.15 0 0 1 .848-.336c.331 0 .603.112.816.336.224.224.336.491.336.8 0 .309-.112.576-.336.8a1.077 1.077 0 0 1-.816.336Zm.928 1.056V189h-1.856v-8.304h1.856Zm3.937-3.168V189h-1.856v-11.472h1.856Zm3.937 0V189h-1.856v-11.472h1.856Zm3.026 2.112a1.15 1.15 0 0 1-.848-.336 1.122 1.122 0 0 1-.32-.8c0-.309.107-.576.32-.8a1.15 1.15 0 0 1 .848-.336c.331 0 .603.112.816.336.224.224.336.491.336.8 0 .309-.112.576-.336.8a1.077 1.077 0 0 1-.816.336Zm.928 1.056V189h-1.856v-8.304h1.856Zm6.145 1.376c-.544 0-.992.117-1.344.352-.352.224-.64.517-.864.88V189h-1.856v-8.304h1.76l.064 1.36h.032c.224-.437.56-.8 1.008-1.088.459-.288 1.04-.432 1.744-.432.811 0 1.472.219 1.984.656.523.437.784 1.104.784 2V189h-1.872v-5.616c0-.48-.128-.816-.384-1.008-.256-.203-.608-.304-1.056-.304Zm12.879 5.856c0 .608-.085 1.152-.256 1.632-.16.491-.421.907-.784 1.248-.362.341-.832.603-1.408.784-.565.181-1.253.272-2.064.272-.426 0-.8-.027-1.12-.08a4.917 4.917 0 0 1-.832-.176 3.37 3.37 0 0 1-.608-.224 3.728 3.728 0 0 1-.416-.224v-1.536c.16.096.331.187.512.272.192.085.406.16.64.224.246.064.518.112.816.144.299.043.64.064 1.024.064.918 0 1.584-.171 2-.512.427-.341.64-.949.64-1.824v-.832a3.08 3.08 0 0 1-1.024 1.104c-.426.267-.954.4-1.584.4a3.87 3.87 0 0 1-1.392-.256 3.494 3.494 0 0 1-1.168-.752 3.899 3.899 0 0 1-.8-1.264c-.192-.512-.288-1.104-.288-1.776 0-.683.096-1.275.288-1.776.203-.512.47-.939.8-1.28a3.352 3.352 0 0 1 1.184-.768 3.917 3.917 0 0 1 1.408-.256c.64 0 1.179.139 1.616.416.438.267.79.64 1.056 1.12v-.048c0-.192.011-.421.032-.688.032-.277.064-.491.096-.64h1.712c-.021.149-.042.363-.064.64-.01.277-.016.507-.016.688v5.904Zm-4-.816c.63 0 1.147-.203 1.552-.608.406-.416.608-1.045.608-1.888 0-.853-.208-1.488-.624-1.904-.405-.427-.922-.64-1.552-.64a2.3 2.3 0 0 0-.864.16 1.99 1.99 0 0 0-.704.48 2.44 2.44 0 0 0-.464.8c-.106.309-.16.677-.16 1.104 0 .832.208 1.456.624 1.872.416.416.944.624 1.584.624Zm14.419.432a2.745 2.745 0 0 1-.352.576 2.446 2.446 0 0 1-.528.528 2.639 2.639 0 0 1-.736.368 3.191 3.191 0 0 1-1.008.144 3.07 3.07 0 0 1-1.008-.16 2.256 2.256 0 0 1-.816-.448 2.317 2.317 0 0 1-.544-.752 2.739 2.739 0 0 1-.192-1.056c0-.907.336-1.584 1.008-2.032.672-.459 1.622-.688 2.848-.688h1.264v-.512c0-.544-.138-.917-.416-1.12-.277-.213-.736-.32-1.376-.32-.544 0-1.056.08-1.536.24a6.729 6.729 0 0 0-1.248.528v-1.552c.331-.181.768-.352 1.312-.512a6.272 6.272 0 0 1 1.776-.24c1.067 0 1.888.224 2.464.672.587.437.88 1.141.88 2.112V187.992c.011.117.016.24.016.368l.032.368c.011.107.022.197.032.272h-1.712a7.266 7.266 0 0 1-.096-.624 27.094 27.094 0 0 1-.048-.72l-.016-.112Zm-2.112.176c.395 0 .72-.08.976-.24.267-.171.48-.363.64-.576a2.26 2.26 0 0 0 .336-.656c.064-.213.096-.363.096-.448v-.56h-1.152c-.736 0-1.274.117-1.616.352a1.082 1.082 0 0 0-.512.96c0 .363.102.651.304.864.214.203.523.304.928.304Zm9.73 1.44c-.672 0-1.274-.096-1.808-.288a3.933 3.933 0 0 1-1.36-.848 3.816 3.816 0 0 1-.864-1.36c-.202-.533-.304-1.141-.304-1.824 0-.672.102-1.275.304-1.808a3.623 3.623 0 0 1 2.24-2.192c.544-.203 1.152-.304 1.824-.304.576 0 1.078.064 1.504.192.438.128.784.288 1.04.48v1.536a4.19 4.19 0 0 0-1.088-.496 4.625 4.625 0 0 0-1.344-.176c-1.717 0-2.576.923-2.576 2.768 0 1.845.843 2.768 2.528 2.768.544 0 1.008-.059 1.392-.176a5.573 5.573 0 0 0 1.088-.48v1.536a4.533 4.533 0 0 1-1.04.48c-.416.128-.928.192-1.536.192Zm8 0c-.672 0-1.274-.096-1.808-.288a3.933 3.933 0 0 1-1.36-.848 3.816 3.816 0 0 1-.864-1.36c-.202-.533-.304-1.141-.304-1.824 0-.672.102-1.275.304-1.808a3.623 3.623 0 0 1 2.24-2.192c.544-.203 1.152-.304 1.824-.304.576 0 1.078.064 1.504.192.438.128.784.288 1.04.48v1.536a4.19 4.19 0 0 0-1.088-.496 4.625 4.625 0 0 0-1.344-.176c-1.717 0-2.576.923-2.576 2.768 0 1.845.843 2.768 2.528 2.768.544 0 1.008-.059 1.392-.176a5.573 5.573 0 0 0 1.088-.48v1.536a4.533 4.533 0 0 1-1.04.48c-.416.128-.928.192-1.536.192Zm7.776 0a4.53 4.53 0 0 1-1.632-.288 3.827 3.827 0 0 1-1.312-.832 4.144 4.144 0 0 1-.864-1.36c-.202-.533-.304-1.147-.304-1.84 0-.693.102-1.307.304-1.84a3.97 3.97 0 0 1 .864-1.344 3.539 3.539 0 0 1 1.312-.832 4.53 4.53 0 0 1 1.632-.288c.587 0 1.131.096 1.632.288.502.181.939.459 1.312.832.374.363.667.811.88 1.344.214.533.32 1.147.32 1.84 0 .693-.106 1.307-.32 1.84a3.978 3.978 0 0 1-.88 1.36c-.373.363-.81.64-1.312.832a4.523 4.523 0 0 1-1.632.288Zm0-1.552c.64 0 1.168-.224 1.584-.672.427-.448.64-1.147.64-2.096 0-.939-.213-1.632-.64-2.08-.416-.459-.944-.688-1.584-.688-.629 0-1.157.229-1.584.688-.416.448-.624 1.141-.624 2.08 0 .949.208 1.648.624 2.096a2.1 2.1 0 0 0 1.584.672Zm10.993.032c-.224.427-.56.789-1.008 1.088-.437.288-1.013.432-1.728.432-.778 0-1.413-.224-1.904-.672-.49-.448-.736-1.131-.736-2.048v-5.744h1.872v5.696c0 .48.134.805.4.976.267.16.592.24.976.24.523 0 .95-.107 1.28-.32.331-.224.614-.523.848-.896v-5.696h1.84V189h-1.696l-.112-1.36h-.032Zm8.003-5.568c-.544 0-.992.117-1.344.352-.352.224-.64.517-.864.88V189h-1.856v-8.304h1.76l.064 1.36h.032c.224-.437.56-.8 1.008-1.088.458-.288 1.04-.432 1.744-.432.81 0 1.472.219 1.984.656.522.437.784 1.104.784 2V189h-1.872v-5.616c0-.48-.128-.816-.384-1.008-.256-.203-.608-.304-1.056-.304Zm9.759 6.672a2.686 2.686 0 0 1-.72.288 3.511 3.511 0 0 1-.992.128c-.448 0-.827-.059-1.136-.176a2.07 2.07 0 0 1-.736-.512 1.935 1.935 0 0 1-.416-.736 3.206 3.206 0 0 1-.128-.912V182.2h-.992v-1.504h.992v-1.744h1.856v1.744h2.384v1.504h-2.384v4.416c0 .341.08.592.24.752.171.16.448.24.832.24.256 0 .48-.037.672-.112a2.01 2.01 0 0 0 .528-.304v1.552Z"/><rect width="139" height="69" x="26.5" y="180.5" fill="#fff" stroke="#5282FF" rx="4.5"/><path fill="#18123D" d="M80.141 211.908c-.424 0-.806-.031-1.144-.091a5.562 5.562 0 0 1-.897-.208 4.698 4.698 0 0 1-.65-.299 2.6 2.6 0 0 1-.416-.325v-1.17c.13.112.3.229.507.351.208.112.447.216.715.312.278.095.572.173.884.234.32.06.655.091 1.001.091.676 0 1.214-.126 1.612-.377.399-.26.598-.65.598-1.17 0-.26-.047-.473-.143-.637a1.149 1.149 0 0 0-.416-.429 2.403 2.403 0 0 0-.689-.299 17.31 17.31 0 0 0-.949-.273 18.062 18.062 0 0 1-1.092-.325 4.06 4.06 0 0 1-.988-.481c-.286-.2-.52-.451-.702-.754-.173-.304-.26-.689-.26-1.157 0-.806.282-1.435.845-1.885.564-.451 1.426-.676 2.587-.676.338 0 .637.021.897.065.269.034.503.082.702.143.208.052.386.112.533.182.156.069.295.134.416.195v1.17a3.64 3.64 0 0 0-1.183-.494 5.622 5.622 0 0 0-1.365-.156c-.416 0-.767.034-1.053.104-.277.06-.502.151-.676.273a1.072 1.072 0 0 0-.377.442 1.408 1.408 0 0 0-.117.585c0 .26.057.476.17.65.12.173.277.32.467.442.2.112.425.208.676.286.252.078.516.147.793.208.364.086.737.186 1.118.299.382.112.724.268 1.027.468.304.199.55.459.741.78.2.312.3.719.3 1.222 0 .494-.1.914-.3 1.261-.19.338-.446.615-.767.832-.32.216-.689.372-1.105.468-.416.095-.85.143-1.3.143Zm5.446-7.865c-.234 0-.42-.07-.559-.208a.75.75 0 0 1-.208-.533.75.75 0 0 1 .208-.533c.14-.148.325-.221.56-.221.225 0 .402.073.532.221.13.147.195.325.195.533a.779.779 0 0 1-.195.533c-.13.138-.307.208-.533.208Zm.56.988v6.747h-1.145v-6.747h1.144Zm7.662 6.175c0 .433-.065.827-.195 1.183-.121.364-.32.671-.598.923-.269.251-.62.446-1.053.585-.424.138-.94.208-1.547.208-.33 0-.62-.018-.87-.052a4.113 4.113 0 0 1-.664-.143 2.42 2.42 0 0 1-.468-.182 2.27 2.27 0 0 1-.325-.182v-1.027c.139.078.282.147.43.208a3.829 3.829 0 0 0 1.118.299c.233.034.498.052.792.052.832 0 1.413-.156 1.742-.468.33-.312.494-.776.494-1.391v-1.04a2.46 2.46 0 0 1-.845.962c-.355.242-.797.364-1.326.364a3.2 3.2 0 0 1-1.144-.208 2.846 2.846 0 0 1-.949-.611 3.165 3.165 0 0 1-.65-1.027c-.156-.416-.234-.897-.234-1.443 0-.555.078-1.036.234-1.443.165-.416.381-.763.65-1.04.278-.278.598-.486.962-.624.364-.139.75-.208 1.157-.208.538 0 .988.121 1.352.364.373.242.663.572.871.988l.013-.143c0-.156.009-.343.026-.559a8.52 8.52 0 0 1 .052-.52h1.04a8.52 8.52 0 0 0-.052.52c-.008.225-.013.411-.013.559v5.096Zm-3.107-.728c.286 0 .546-.044.78-.13.243-.096.45-.239.624-.429.182-.191.32-.425.416-.702.104-.286.156-.62.156-1.001 0-.772-.19-1.348-.572-1.729-.372-.382-.845-.572-1.417-.572-.286 0-.554.047-.806.143a1.753 1.753 0 0 0-.637.429c-.173.19-.312.433-.416.728a2.923 2.923 0 0 0-.156 1.001c0 .381.052.715.156 1.001.104.277.247.511.43.702.181.182.393.32.636.416.251.095.52.143.806.143Zm8.163-4.563c-.52 0-.945.121-1.274.364-.321.234-.581.537-.78.91v4.589h-1.145v-6.747h1.08l.038 1.209h.026c.183-.39.468-.711.858-.962.39-.252.884-.377 1.482-.377.668 0 1.196.177 1.586.533.399.346.598.884.598 1.612v4.732h-1.144v-4.615c0-.468-.117-.793-.35-.975-.234-.182-.56-.273-.975-.273Zm7.72-1.872c-.234 0-.42-.07-.559-.208a.754.754 0 0 1-.208-.533c0-.208.07-.386.208-.533.139-.148.325-.221.559-.221.226 0 .403.073.533.221.13.147.195.325.195.533a.779.779 0 0 1-.195.533c-.13.138-.307.208-.533.208Zm.559.988v6.747H106v-6.747h1.144Zm5.063.884c-.52 0-.944.121-1.274.364a2.67 2.67 0 0 0-.78.91v4.589h-1.144v-6.747h1.079l.039 1.209h.026c.182-.39.468-.711.858-.962.39-.252.884-.377 1.482-.377.668 0 1.196.177 1.586.533.399.346.598.884.598 1.612v4.732h-1.144v-4.615c0-.468-.117-.793-.351-.975-.234-.182-.559-.273-.975-.273Zm-51.268 20.863h-1.755l-1.43-5.213-1.469 5.213h-1.703l-1.534-6.747h1.21l1.286 5.889 1.638-5.889h1.287l1.6 5.824 1.273-5.824h1.131l-1.534 6.747Zm3.447-7.735c-.234 0-.42-.07-.559-.208a.751.751 0 0 1-.208-.533.75.75 0 0 1 .208-.533c.139-.148.325-.221.56-.221.225 0 .402.073.532.221.13.147.195.325.195.533a.779.779 0 0 1-.195.533c-.13.138-.307.208-.533.208Zm.56.988v6.747H63.8v-6.747h1.144Zm5.166 6.604a2.09 2.09 0 0 1-.533.195 2.944 2.944 0 0 1-.689.078c-.33 0-.611-.048-.845-.143a1.64 1.64 0 0 1-.559-.377 1.611 1.611 0 0 1-.325-.546 2.27 2.27 0 0 1-.091-.637v-4.199h-.806v-.975h.806v-1.417h1.144v1.417h1.963v.975h-1.963v4.056c0 .286.07.494.208.624.147.13.403.195.767.195.338 0 .646-.096.923-.286v1.04Zm4.72-5.72c-.52 0-.944.121-1.274.364-.32.234-.58.537-.78.91v4.589h-1.144v-9.321h1.144v2.574l-.026 1.209h.026c.182-.382.468-.698.858-.949.39-.26.884-.39 1.482-.39.668 0 1.196.177 1.586.533.399.346.598.884.598 1.612v4.732h-1.144v-4.615c0-.468-.117-.793-.35-.975-.235-.182-.56-.273-.976-.273Zm10.893 1.82v4.043h-1.248v-4.004l-3.185-5.317h1.404l2.444 4.238 2.496-4.238h1.248l-3.159 5.278Zm7.597 2.756c-.078.156-.178.32-.3.494a2.287 2.287 0 0 1-.454.455 2.328 2.328 0 0 1-.65.338 2.57 2.57 0 0 1-.858.13c-.607 0-1.097-.169-1.47-.507-.372-.347-.558-.841-.558-1.482 0-.737.255-1.279.767-1.625.52-.347 1.256-.52 2.21-.52h1.26v-.559c0-.468-.12-.802-.363-1.001-.243-.2-.66-.299-1.248-.299-.416 0-.81.069-1.183.208-.373.13-.707.281-1.001.455v-1.027c.242-.148.567-.291.975-.429a4.046 4.046 0 0 1 1.365-.221c.849 0 1.495.177 1.937.533.442.346.663.888.663 1.625v3.9c.008.095.013.195.013.299.008.104.017.203.026.299.008.086.017.16.026.221h-1.04a6.026 6.026 0 0 1-.078-.507 7.818 7.818 0 0 1-.026-.585l-.013-.195Zm-2.015.39c.355 0 .658-.074.91-.221.25-.148.455-.317.61-.507.157-.2.27-.39.339-.572.069-.191.104-.325.104-.403v-.494h-1.144c-.685 0-1.183.099-1.495.299-.304.19-.455.481-.455.871 0 .303.09.55.273.741.182.19.468.286.858.286Zm8.103-4.966c-.52 0-.944.121-1.274.364-.32.234-.58.537-.78.91v4.589h-1.144v-6.747h1.08l.038 1.209h.026c.182-.39.468-.711.858-.962.39-.252.884-.377 1.482-.377.668 0 1.196.177 1.586.533.399.346.598.884.598 1.612v4.732h-1.144v-4.615c0-.468-.117-.793-.351-.975-.234-.182-.559-.273-.975-.273Zm9.116 4.537a2.706 2.706 0 0 1-.871 1.066c-.373.26-.845.39-1.417.39-.407 0-.793-.07-1.157-.208a2.786 2.786 0 0 1-.962-.65 3.278 3.278 0 0 1-.663-1.092c-.165-.442-.247-.962-.247-1.56 0-.59.082-1.101.247-1.534.165-.442.386-.806.663-1.092.277-.295.598-.512.962-.65a3.143 3.143 0 0 1 1.17-.221c.511 0 .953.108 1.326.325.373.208.672.507.897.897v-3.666h1.144v9.321h-1.001l-.091-1.326Zm-2.119.429c.295 0 .568-.048.819-.143.251-.104.468-.26.65-.468a2.13 2.13 0 0 0 .442-.78c.113-.312.169-.676.169-1.092 0-.416-.056-.78-.169-1.092a2.13 2.13 0 0 0-.442-.78 1.613 1.613 0 0 0-.65-.455 2.119 2.119 0 0 0-.819-.156c-.598 0-1.088.212-1.469.637-.373.416-.559 1.031-.559 1.846 0 .823.191 1.443.572 1.859.381.416.867.624 1.456.624Zm10.447.325a3.867 3.867 0 0 1-.858.455c-.2.069-.425.125-.676.169a4.19 4.19 0 0 1-.845.078c-1.136 0-1.998-.308-2.587-.923-.59-.616-.884-1.478-.884-2.587 0-.546.078-1.036.234-1.469a3.13 3.13 0 0 1 .676-1.092 2.804 2.804 0 0 1 1.014-.689c.39-.165.814-.247 1.274-.247.485 0 .918.082 1.3.247.381.164.693.407.936.728.251.32.42.719.507 1.196.095.468.095 1.014 0 1.638h-4.758c.043.728.26 1.274.65 1.638.39.355.97.533 1.742.533.52 0 .966-.074 1.339-.221.372-.148.684-.308.936-.481v1.027Zm-2.678-5.291c-.494 0-.919.151-1.274.455-.356.303-.581.762-.676 1.378h3.627c.034-.624-.109-1.084-.429-1.378-.321-.304-.737-.455-1.248-.455Zm6.414 3.185-1.82 2.678h-1.196l2.444-3.497-2.158-3.25h1.326l1.612 2.379 1.625-2.379h1.183l-2.236 3.224 2.353 3.523h-1.326l-1.807-2.678Zm8.497-6.643v9.321h-1.222v-9.321h1.222Zm2.168 0h3.133c.624 0 1.205.073 1.742.221a3.62 3.62 0 0 1 1.404.728c.399.338.711.784.936 1.339.225.554.338 1.239.338 2.054 0 .823-.117 1.547-.351 2.171a4.28 4.28 0 0 1-.949 1.547c-.399.416-.88.732-1.443.949a5.144 5.144 0 0 1-1.82.312h-2.99v-9.321Zm1.222 1.118v7.098h1.768c.477 0 .914-.074 1.313-.221a2.666 2.666 0 0 0 1.027-.676c.286-.312.507-.707.663-1.183.156-.477.234-1.045.234-1.703 0-.65-.078-1.188-.234-1.612-.156-.434-.373-.776-.65-1.027a2.164 2.164 0 0 0-.975-.52 4.678 4.678 0 0 0-1.235-.156h-1.911Z"/><rect width="139" height="142" x="499.5" y="372.5" fill="#fff" stroke="#5282FF" rx="4.5"/><path fill="#18123D" d="M548.429 415.568h1.82l3.341 9.321h-1.3l-.962-2.665h-4.121l-.949 2.665h-1.144l3.315-9.321Zm2.509 5.551-1.664-4.641-1.664 4.641h3.328Zm6.638 3.9c-.52 0-.993-.078-1.417-.234a3.093 3.093 0 0 1-1.066-.689 3.034 3.034 0 0 1-.676-1.105 4.357 4.357 0 0 1-.234-1.482c0-.546.078-1.036.234-1.469.164-.433.394-.797.689-1.092a2.846 2.846 0 0 1 1.079-.689 3.955 3.955 0 0 1 1.443-.247c.416 0 .797.048 1.144.143.346.087.632.217.858.39v1.027a3.053 3.053 0 0 0-.936-.403 3.873 3.873 0 0 0-1.053-.143c-.789 0-1.37.204-1.742.611-.364.407-.546 1.031-.546 1.872 0 .841.177 1.465.533 1.872.355.407.918.611 1.69.611.407 0 .78-.048 1.118-.143.346-.104.658-.234.936-.39v1.027a3.984 3.984 0 0 1-2.054.533Zm6.813-.273a2.077 2.077 0 0 1-.533.195 2.938 2.938 0 0 1-.689.078c-.329 0-.611-.048-.845-.143a1.634 1.634 0 0 1-.559-.377 1.626 1.626 0 0 1-.325-.546 2.286 2.286 0 0 1-.091-.637v-4.199h-.806v-.975h.806v-1.417h1.144v1.417h1.963v.975h-1.963v4.056c0 .286.07.494.208.624.148.13.403.195.767.195.338 0 .646-.095.923-.286v1.04Zm2.108-7.592c-.234 0-.421-.069-.559-.208a.748.748 0 0 1-.208-.533c0-.208.069-.386.208-.533.138-.147.325-.221.559-.221.225 0 .403.074.533.221.13.147.195.325.195.533a.777.777 0 0 1-.195.533c-.13.139-.308.208-.533.208Zm.559.988v6.747h-1.144v-6.747h1.144Zm5.218 6.747h-1.846l-2.314-6.747h1.235l2.054 6.136 2.041-6.136h1.144l-2.314 6.747Zm7.263-1.287a3.85 3.85 0 0 1-.299.494 2.253 2.253 0 0 1-1.105.793c-.242.087-.528.13-.858.13-.606 0-1.096-.169-1.469-.507-.372-.347-.559-.841-.559-1.482 0-.737.256-1.278.767-1.625.52-.347 1.257-.52 2.21-.52h1.261v-.559c0-.468-.121-.802-.364-1.001-.242-.199-.658-.299-1.248-.299-.416 0-.81.069-1.183.208-.372.13-.706.282-1.001.455v-1.027c.243-.147.568-.29.975-.429a4.07 4.07 0 0 1 1.365-.221c.85 0 1.495.178 1.937.533.442.347.663.888.663 1.625v3.9c.009.095.013.195.013.299l.026.299c.009.087.018.16.026.221h-1.04a5.896 5.896 0 0 1-.078-.507 7.937 7.937 0 0 1-.026-.585l-.013-.195Zm-2.015.39c.356 0 .659-.074.91-.221.252-.147.455-.316.611-.507.156-.199.269-.39.338-.572.07-.191.104-.325.104-.403v-.494h-1.144c-.684 0-1.183.1-1.495.299-.303.191-.455.481-.455.871 0 .303.091.55.273.741.182.191.468.286.858.286Zm8.208.754a2.077 2.077 0 0 1-.533.195 2.938 2.938 0 0 1-.689.078c-.329 0-.611-.048-.845-.143a1.634 1.634 0 0 1-.559-.377 1.626 1.626 0 0 1-.325-.546 2.286 2.286 0 0 1-.091-.637v-4.199h-.806v-.975h.806v-1.417h1.144v1.417h1.963v.975h-1.963v4.056c0 .286.07.494.208.624.148.13.403.195.767.195.338 0 .646-.095.923-.286v1.04Zm6.828-.429a3.605 3.605 0 0 1-.351.221 4.116 4.116 0 0 1-.507.234 4.275 4.275 0 0 1-.676.169 4.183 4.183 0 0 1-.845.078c-1.135 0-1.998-.308-2.587-.923-.589-.615-.884-1.478-.884-2.587 0-.546.078-1.036.234-1.469.165-.433.39-.797.676-1.092a2.816 2.816 0 0 1 1.014-.689c.39-.165.815-.247 1.274-.247.485 0 .919.082 1.3.247.381.165.693.407.936.728.251.321.42.719.507 1.196.095.468.095 1.014 0 1.638h-4.758c.043.728.26 1.274.65 1.638.39.355.971.533 1.742.533.52 0 .966-.074 1.339-.221.373-.147.685-.308.936-.481v1.027Zm-2.678-5.291c-.494 0-.919.152-1.274.455-.355.303-.581.763-.676 1.378h3.627c.035-.624-.108-1.083-.429-1.378-.321-.303-.737-.455-1.248-.455Zm-63.005 20.72a2.105 2.105 0 0 1-.533.195 2.95 2.95 0 0 1-.689.078c-.33 0-.611-.048-.845-.143a1.615 1.615 0 0 1-.559-.377 1.594 1.594 0 0 1-.325-.546 2.25 2.25 0 0 1-.091-.637v-4.199h-.806v-.975h.806v-1.417h1.144v1.417h1.963v.975h-1.963v4.056c0 .286.069.494.208.624.147.13.403.195.767.195.338 0 .645-.095.923-.286v1.04Zm4.72-5.72c-.52 0-.945.121-1.274.364a2.649 2.649 0 0 0-.78.91v4.589h-1.144v-9.321h1.144v2.574l-.026 1.209h.026c.182-.381.468-.698.858-.949.39-.26.884-.39 1.482-.39.667 0 1.196.178 1.586.533.399.347.598.884.598 1.612v4.732h-1.144v-4.615c0-.468-.117-.793-.351-.975-.234-.182-.559-.273-.975-.273Zm9.648 5.291a3.605 3.605 0 0 1-.351.221 3.982 3.982 0 0 1-.507.234 4.248 4.248 0 0 1-.676.169 4.183 4.183 0 0 1-.845.078c-1.135 0-1.997-.308-2.587-.923-.589-.615-.884-1.478-.884-2.587 0-.546.078-1.036.234-1.469.165-.433.39-.797.676-1.092a2.816 2.816 0 0 1 1.014-.689c.39-.165.815-.247 1.274-.247.486 0 .919.082 1.3.247.382.165.694.407.936.728.252.321.421.719.507 1.196.096.468.096 1.014 0 1.638h-4.758c.044.728.26 1.274.65 1.638.39.355.971.533 1.742.533.52 0 .967-.074 1.339-.221.373-.147.685-.308.936-.481v1.027Zm-2.678-5.291a1.9 1.9 0 0 0-1.274.455c-.355.303-.58.763-.676 1.378h3.627c.035-.624-.108-1.083-.429-1.378-.32-.303-.736-.455-1.248-.455Zm10.452 5.993c-.52 0-.97-.121-1.352-.364a2.658 2.658 0 0 1-.897-1.001v3.536h-1.144v-9.048h1.001l.117 1.313c.226-.442.529-.793.91-1.053.382-.26.854-.39 1.417-.39.39 0 .763.074 1.118.221.364.139.681.355.949.65.278.286.494.65.65 1.092.165.433.247.945.247 1.534 0 .598-.082 1.118-.247 1.56a3.246 3.246 0 0 1-.663 1.092 2.772 2.772 0 0 1-.962.65 3.178 3.178 0 0 1-1.144.208Zm-.169-1.027c.598 0 1.079-.204 1.443-.611.373-.416.559-1.04.559-1.872 0-.815-.186-1.43-.559-1.846-.364-.425-.845-.637-1.443-.637-.294 0-.572.052-.832.156-.251.104-.472.26-.663.468a2.263 2.263 0 0 0-.442.767 3.457 3.457 0 0 0-.156 1.092c0 .416.052.78.156 1.092.113.312.26.572.442.78.191.208.412.364.663.468.26.095.538.143.832.143Zm8.46-.39a3.968 3.968 0 0 1-.299.494 2.253 2.253 0 0 1-1.105.793c-.243.087-.529.13-.858.13-.607 0-1.096-.169-1.469-.507-.373-.347-.559-.841-.559-1.482 0-.737.256-1.278.767-1.625.52-.347 1.257-.52 2.21-.52h1.261v-.559c0-.468-.121-.802-.364-1.001-.243-.199-.659-.299-1.248-.299-.416 0-.81.069-1.183.208-.373.13-.706.282-1.001.455v-1.027c.243-.147.568-.29.975-.429a4.07 4.07 0 0 1 1.365-.221c.849 0 1.495.178 1.937.533.442.347.663.888.663 1.625v3.9c.009.095.013.195.013.299l.026.299c.009.087.017.16.026.221h-1.04a5.896 5.896 0 0 1-.078-.507 7.937 7.937 0 0 1-.026-.585l-.013-.195Zm-2.015.39c.355 0 .659-.074.91-.221.251-.147.455-.316.611-.507.156-.199.269-.39.338-.572.069-.191.104-.325.104-.403v-.494h-1.144c-.685 0-1.183.1-1.495.299-.303.191-.455.481-.455.871 0 .303.091.55.273.741.182.191.468.286.858.286Zm5.491-6.838c-.234 0-.421-.069-.559-.208a.748.748 0 0 1-.208-.533c0-.208.069-.386.208-.533.138-.147.325-.221.559-.221.225 0 .403.074.533.221.13.147.195.325.195.533a.777.777 0 0 1-.195.533c-.13.139-.308.208-.533.208Zm.559.988v6.747h-1.144v-6.747h1.144Zm6.7 5.421a2.706 2.706 0 0 1-.871 1.066c-.372.26-.845.39-1.417.39-.407 0-.793-.069-1.157-.208a2.782 2.782 0 0 1-.962-.65 3.278 3.278 0 0 1-.663-1.092c-.164-.442-.247-.962-.247-1.56 0-.589.083-1.101.247-1.534.165-.442.386-.806.663-1.092.278-.295.598-.511.962-.65a3.163 3.163 0 0 1 1.17-.221c.512 0 .954.108 1.326.325.373.208.672.507.897.897v-3.666h1.144v9.321h-1.001l-.091-1.326Zm-2.119.429c.295 0 .568-.048.819-.143a1.73 1.73 0 0 0 .65-.468 2.13 2.13 0 0 0 .442-.78c.113-.312.169-.676.169-1.092 0-.416-.056-.78-.169-1.092a2.13 2.13 0 0 0-.442-.78 1.606 1.606 0 0 0-.65-.455 2.119 2.119 0 0 0-.819-.156c-.598 0-1.087.212-1.469.637-.372.416-.559 1.031-.559 1.846 0 .823.191 1.443.572 1.859.382.416.867.624 1.456.624Zm11.289.897h-1.846l-2.314-6.747h1.235l2.054 6.136 2.041-6.136h1.144l-2.314 6.747Zm8.616-.572a3.605 3.605 0 0 1-.351.221 3.982 3.982 0 0 1-.507.234 4.248 4.248 0 0 1-.676.169 4.183 4.183 0 0 1-.845.078c-1.135 0-1.997-.308-2.587-.923-.589-.615-.884-1.478-.884-2.587 0-.546.078-1.036.234-1.469.165-.433.39-.797.676-1.092a2.816 2.816 0 0 1 1.014-.689c.39-.165.815-.247 1.274-.247.486 0 .919.082 1.3.247.382.165.694.407.936.728.252.321.421.719.507 1.196.096.468.096 1.014 0 1.638h-4.758c.044.728.26 1.274.65 1.638.39.355.971.533 1.742.533.52 0 .967-.074 1.339-.221.373-.147.685-.308.936-.481v1.027Zm-2.678-5.291a1.9 1.9 0 0 0-1.274.455c-.355.303-.58.763-.676 1.378h3.627c.035-.624-.108-1.083-.429-1.378-.32-.303-.736-.455-1.248-.455Zm7.544.26a3.509 3.509 0 0 0-1.326.377c-.39.199-.68.511-.871.936v4.29h-1.144v-6.747h1.001l.117 1.469h.026a3.06 3.06 0 0 1 .819-1.04c.364-.303.823-.49 1.378-.559v1.274Zm3.552 5.733a4.45 4.45 0 0 1-.949-.091 4.475 4.475 0 0 1-.715-.195 3.938 3.938 0 0 1-.507-.26 3.514 3.514 0 0 1-.325-.247v-1.027c.087.087.204.182.351.286.148.095.325.186.533.273.208.087.442.16.702.221.269.052.568.078.897.078.486 0 .871-.078 1.157-.234.286-.156.429-.42.429-.793 0-.199-.047-.36-.143-.481a.864.864 0 0 0-.364-.286 2.228 2.228 0 0 0-.546-.182 26.073 26.073 0 0 0-.637-.13 26.13 26.13 0 0 1-.845-.195 2.962 2.962 0 0 1-.754-.325 1.776 1.776 0 0 1-.546-.559c-.138-.234-.208-.537-.208-.91 0-.607.234-1.083.702-1.43.477-.347 1.14-.52 1.989-.52.477 0 .897.048 1.261.143.373.095.659.199.858.312v1.027a3.055 3.055 0 0 0-.845-.364c-.329-.104-.741-.156-1.235-.156-.511 0-.905.069-1.183.208-.268.139-.403.39-.403.754 0 .182.039.329.117.442a.924.924 0 0 0 .312.26c.139.061.295.108.468.143.174.035.356.074.546.117.295.061.598.126.91.195.312.069.59.178.832.325.252.147.455.347.611.598.165.243.247.572.247.988 0 .39-.078.715-.234.975-.156.26-.364.468-.624.624a2.668 2.668 0 0 1-.871.312 4.68 4.68 0 0 1-.988.104Zm4.712-7.865c-.234 0-.421-.069-.559-.208a.748.748 0 0 1-.208-.533c0-.208.069-.386.208-.533.138-.147.325-.221.559-.221.225 0 .403.074.533.221.13.147.195.325.195.533a.777.777 0 0 1-.195.533c-.13.139-.308.208-.533.208Zm.559.988v6.747h-1.144v-6.747h1.144Zm4.633 6.877c-.459 0-.888-.078-1.287-.234a3.002 3.002 0 0 1-1.04-.676 3.3 3.3 0 0 1-.676-1.105c-.164-.433-.247-.932-.247-1.495 0-.555.083-1.049.247-1.482.165-.442.39-.81.676-1.105.295-.295.642-.52 1.04-.676a3.503 3.503 0 0 1 1.287-.234c.468 0 .902.078 1.3.234a2.86 2.86 0 0 1 1.027.676c.295.295.525.663.689 1.105.174.433.26.927.26 1.482 0 .563-.086 1.062-.26 1.495a3.173 3.173 0 0 1-.689 1.105 2.86 2.86 0 0 1-1.027.676 3.534 3.534 0 0 1-1.3.234Zm0-1.027c.304 0 .581-.048.832-.143a1.9 1.9 0 0 0 .676-.455 2.13 2.13 0 0 0 .442-.78c.104-.312.156-.68.156-1.105 0-.425-.052-.793-.156-1.105a2.003 2.003 0 0 0-.442-.767 1.691 1.691 0 0 0-.676-.455 2.152 2.152 0 0 0-.832-.156c-.303 0-.58.052-.832.156a1.719 1.719 0 0 0-.663.455 2.107 2.107 0 0 0-.429.767c-.104.312-.156.68-.156 1.105 0 .425.052.793.156 1.105.104.312.247.572.429.78.191.199.412.351.663.455.252.095.529.143.832.143Zm7.869-4.966c-.52 0-.945.121-1.274.364a2.649 2.649 0 0 0-.78.91v4.589h-1.144v-6.747h1.079l.039 1.209h.026c.182-.39.468-.711.858-.962.39-.251.884-.377 1.482-.377.667 0 1.196.178 1.586.533.398.347.598.884.598 1.612v4.732h-1.144v-4.615c0-.468-.117-.793-.351-.975-.234-.182-.559-.273-.975-.273Zm-71.726 21.72a2.105 2.105 0 0 1-.533.195 2.95 2.95 0 0 1-.689.078c-.33 0-.611-.048-.845-.143a1.615 1.615 0 0 1-.559-.377 1.594 1.594 0 0 1-.325-.546 2.25 2.25 0 0 1-.091-.637v-4.199h-.806v-.975h.806v-1.417h1.144v1.417h1.963v.975h-1.963v4.056c0 .286.069.494.208.624.147.13.403.195.767.195.338 0 .645-.095.923-.286v1.04Zm4.227.273c-.459 0-.888-.078-1.287-.234a3.002 3.002 0 0 1-1.04-.676 3.3 3.3 0 0 1-.676-1.105c-.164-.433-.247-.932-.247-1.495 0-.555.083-1.049.247-1.482.165-.442.39-.81.676-1.105.295-.295.642-.52 1.04-.676a3.503 3.503 0 0 1 1.287-.234c.468 0 .902.078 1.3.234a2.86 2.86 0 0 1 1.027.676c.295.295.525.663.689 1.105.174.433.26.927.26 1.482 0 .563-.086 1.062-.26 1.495a3.173 3.173 0 0 1-.689 1.105 2.86 2.86 0 0 1-1.027.676 3.534 3.534 0 0 1-1.3.234Zm0-1.027c.304 0 .581-.048.832-.143a1.9 1.9 0 0 0 .676-.455 2.13 2.13 0 0 0 .442-.78c.104-.312.156-.68.156-1.105 0-.425-.052-.793-.156-1.105a2.003 2.003 0 0 0-.442-.767 1.691 1.691 0 0 0-.676-.455 2.152 2.152 0 0 0-.832-.156c-.303 0-.58.052-.832.156a1.719 1.719 0 0 0-.663.455 2.107 2.107 0 0 0-.429.767c-.104.312-.156.68-.156 1.105 0 .425.052.793.156 1.105.104.312.247.572.429.78.191.199.412.351.663.455.252.095.529.143.832.143Zm10.439 1.027c-.52 0-.992-.078-1.417-.234a3.103 3.103 0 0 1-1.066-.689 3.048 3.048 0 0 1-.676-1.105 4.357 4.357 0 0 1-.234-1.482c0-.546.078-1.036.234-1.469.165-.433.395-.797.689-1.092a2.861 2.861 0 0 1 1.079-.689 3.963 3.963 0 0 1 1.443-.247c.416 0 .798.048 1.144.143.347.087.633.217.858.39v1.027a3.032 3.032 0 0 0-.936-.403 3.873 3.873 0 0 0-1.053-.143c-.788 0-1.369.204-1.742.611-.364.407-.546 1.031-.546 1.872 0 .841.178 1.465.533 1.872.356.407.919.611 1.69.611.408 0 .78-.048 1.118-.143.347-.104.659-.234.936-.39v1.027a3.984 3.984 0 0 1-2.054.533Zm6.218 0c-.46 0-.889-.078-1.287-.234a2.984 2.984 0 0 1-1.04-.676 3.283 3.283 0 0 1-.676-1.105c-.165-.433-.247-.932-.247-1.495 0-.555.082-1.049.247-1.482.164-.442.39-.81.676-1.105.294-.295.641-.52 1.04-.676a3.495 3.495 0 0 1 1.287-.234c.468 0 .901.078 1.3.234.398.156.741.381 1.027.676.294.295.524.663.689 1.105.173.433.26.927.26 1.482 0 .563-.087 1.062-.26 1.495a3.203 3.203 0 0 1-.689 1.105c-.286.295-.629.52-1.027.676a3.538 3.538 0 0 1-1.3.234Zm0-1.027c.303 0 .58-.048.832-.143.26-.104.485-.256.676-.455.19-.208.338-.468.442-.78.104-.312.156-.68.156-1.105 0-.425-.052-.793-.156-1.105a2.015 2.015 0 0 0-.442-.767 1.698 1.698 0 0 0-.676-.455 2.16 2.16 0 0 0-.832-.156c-.304 0-.581.052-.832.156a1.704 1.704 0 0 0-.663.455 2.107 2.107 0 0 0-.429.767c-.104.312-.156.68-.156 1.105 0 .425.052.793.156 1.105.104.312.247.572.429.78.19.199.411.351.663.455.251.095.528.143.832.143Zm7.868-4.966c-.52 0-.945.121-1.274.364a2.649 2.649 0 0 0-.78.91v4.589h-1.144v-6.747h1.079l.039 1.209h.026c.182-.39.468-.711.858-.962.39-.251.884-.377 1.482-.377.667 0 1.196.178 1.586.533.399.347.598.884.598 1.612v4.732h-1.144v-4.615c0-.468-.117-.793-.351-.975-.234-.182-.559-.273-.975-.273Zm7.582 5.72a2.105 2.105 0 0 1-.533.195 2.95 2.95 0 0 1-.689.078c-.33 0-.611-.048-.845-.143a1.615 1.615 0 0 1-.559-.377 1.594 1.594 0 0 1-.325-.546 2.25 2.25 0 0 1-.091-.637v-4.199h-.806v-.975h.806v-1.417h1.144v1.417h1.963v.975h-1.963v4.056c0 .286.069.494.208.624.147.13.403.195.767.195.338 0 .645-.095.923-.286v1.04Zm2.107-7.592c-.234 0-.42-.069-.559-.208a.748.748 0 0 1-.208-.533.733.733 0 0 1 .767-.754c.225 0 .403.074.533.221.13.147.195.325.195.533a.777.777 0 0 1-.195.533c-.13.139-.308.208-.533.208Zm.559.988v6.747h-1.144v-6.747h1.144Zm5.063.884c-.52 0-.945.121-1.274.364a2.649 2.649 0 0 0-.78.91v4.589h-1.144v-6.747h1.079l.039 1.209h.026c.182-.39.468-.711.858-.962.39-.251.884-.377 1.482-.377.667 0 1.196.178 1.586.533.398.347.598.884.598 1.612v4.732h-1.144v-4.615c0-.468-.117-.793-.351-.975-.234-.182-.559-.273-.975-.273Zm8.608 4.654a2.417 2.417 0 0 1-.845.962c-.372.251-.862.377-1.469.377-.624 0-1.131-.173-1.521-.52-.381-.355-.572-.901-.572-1.638v-4.719h1.157v4.719c0 .225.031.412.091.559.07.139.161.251.273.338.113.087.243.147.39.182.156.035.325.052.507.052.503 0 .906-.113 1.209-.338a2.83 2.83 0 0 0 .78-.923v-4.589h1.144v6.747h-1.014l-.104-1.209h-.026Zm8.391.637a3.867 3.867 0 0 1-.858.455c-.2.069-.425.126-.676.169a4.19 4.19 0 0 1-.845.078c-1.136 0-1.998-.308-2.587-.923-.59-.615-.884-1.478-.884-2.587 0-.546.078-1.036.234-1.469.164-.433.39-.797.676-1.092a2.816 2.816 0 0 1 1.014-.689c.39-.165.814-.247 1.274-.247.485 0 .918.082 1.3.247.381.165.693.407.936.728.251.321.42.719.507 1.196.095.468.095 1.014 0 1.638h-4.758c.043.728.26 1.274.65 1.638.39.355.97.533 1.742.533.52 0 .966-.074 1.339-.221.372-.147.684-.308.936-.481v1.027Zm-2.678-5.291c-.494 0-.919.152-1.274.455-.356.303-.581.763-.676 1.378h3.627c.034-.624-.109-1.083-.429-1.378-.321-.303-.737-.455-1.248-.455Zm-57.28 20.993c-.459 0-.888-.078-1.287-.234a3.002 3.002 0 0 1-1.04-.676 3.3 3.3 0 0 1-.676-1.105c-.164-.433-.247-.932-.247-1.495 0-.555.083-1.049.247-1.482.165-.442.39-.81.676-1.105.295-.295.642-.52 1.04-.676a3.503 3.503 0 0 1 1.287-.234c.468 0 .902.078 1.3.234a2.86 2.86 0 0 1 1.027.676c.295.295.525.663.689 1.105.174.433.26.927.26 1.482 0 .563-.086 1.062-.26 1.495a3.173 3.173 0 0 1-.689 1.105 2.86 2.86 0 0 1-1.027.676 3.534 3.534 0 0 1-1.3.234Zm0-1.027c.304 0 .581-.048.832-.143a1.9 1.9 0 0 0 .676-.455 2.13 2.13 0 0 0 .442-.78c.104-.312.156-.68.156-1.105 0-.425-.052-.793-.156-1.105a2.003 2.003 0 0 0-.442-.767 1.691 1.691 0 0 0-.676-.455 2.152 2.152 0 0 0-.832-.156c-.303 0-.58.052-.832.156a1.719 1.719 0 0 0-.663.455 2.107 2.107 0 0 0-.429.767c-.104.312-.156.68-.156 1.105 0 .425.052.793.156 1.105.104.312.247.572.429.78.191.199.412.351.663.455.252.095.529.143.832.143Zm8.064 1.027c-.52 0-.971-.121-1.352-.364a2.642 2.642 0 0 1-.897-1.001v3.536h-1.144v-9.048h1.001l.117 1.313c.225-.442.528-.793.91-1.053.381-.26.853-.39 1.417-.39.39 0 .762.074 1.118.221.364.139.68.355.949.65.277.286.494.65.65 1.092.164.433.247.945.247 1.534 0 .598-.083 1.118-.247 1.56a3.278 3.278 0 0 1-.663 1.092 2.782 2.782 0 0 1-.962.65 3.182 3.182 0 0 1-1.144.208Zm-.169-1.027c.598 0 1.079-.204 1.443-.611.372-.416.559-1.04.559-1.872 0-.815-.187-1.43-.559-1.846-.364-.425-.845-.637-1.443-.637-.295 0-.572.052-.832.156-.252.104-.473.26-.663.468-.182.199-.33.455-.442.767a3.457 3.457 0 0 0-.156 1.092c0 .416.052.78.156 1.092.112.312.26.572.442.78.19.208.411.364.663.468.26.095.537.143.832.143Zm9.94.325a3.867 3.867 0 0 1-.858.455c-.2.069-.425.126-.676.169a4.19 4.19 0 0 1-.845.078c-1.136 0-1.998-.308-2.587-.923-.59-.615-.884-1.478-.884-2.587 0-.546.078-1.036.234-1.469.164-.433.39-.797.676-1.092a2.816 2.816 0 0 1 1.014-.689c.39-.165.814-.247 1.274-.247.485 0 .918.082 1.3.247.381.165.693.407.936.728.251.321.42.719.507 1.196.095.468.095 1.014 0 1.638h-4.758c.043.728.26 1.274.65 1.638.39.355.97.533 1.742.533.52 0 .966-.074 1.339-.221.372-.147.684-.308.936-.481v1.027Zm-2.678-5.291c-.494 0-.919.152-1.274.455-.356.303-.581.763-.676 1.378h3.627c.034-.624-.109-1.083-.429-1.378-.321-.303-.737-.455-1.248-.455Zm7.543.26a3.509 3.509 0 0 0-1.326.377c-.39.199-.68.511-.871.936v4.29h-1.144v-6.747h1.001l.117 1.469h.026a3.06 3.06 0 0 1 .819-1.04c.364-.303.824-.49 1.378-.559v1.274Zm5.22 4.316a3.968 3.968 0 0 1-.299.494 2.28 2.28 0 0 1-.455.455 2.306 2.306 0 0 1-.65.338c-.243.087-.529.13-.858.13-.607 0-1.097-.169-1.469-.507-.373-.347-.559-.841-.559-1.482 0-.737.255-1.278.767-1.625.52-.347 1.256-.52 2.21-.52h1.261v-.559c0-.468-.122-.802-.364-1.001-.243-.199-.659-.299-1.248-.299-.416 0-.811.069-1.183.208-.373.13-.707.282-1.001.455v-1.027c.242-.147.567-.29.975-.429a4.07 4.07 0 0 1 1.365-.221c.849 0 1.495.178 1.937.533.442.347.663.888.663 1.625v3.9c.008.095.013.195.013.299.008.104.017.204.026.299.008.087.017.16.026.221h-1.04a5.896 5.896 0 0 1-.078-.507 7.42 7.42 0 0 1-.026-.585l-.013-.195Zm-2.015.39c.355 0 .658-.074.91-.221.251-.147.455-.316.611-.507.156-.199.268-.39.338-.572.069-.191.104-.325.104-.403v-.494h-1.144c-.685 0-1.183.1-1.495.299-.304.191-.455.481-.455.871 0 .303.091.55.273.741.182.191.468.286.858.286Zm8.207.754a2.077 2.077 0 0 1-.533.195 2.938 2.938 0 0 1-.689.078c-.329 0-.611-.048-.845-.143a1.634 1.634 0 0 1-.559-.377 1.626 1.626 0 0 1-.325-.546 2.286 2.286 0 0 1-.091-.637v-4.199h-.806v-.975h.806v-1.417h1.144v1.417h1.963v.975h-1.963v4.056c0 .286.07.494.208.624.148.13.403.195.767.195.338 0 .646-.095.923-.286v1.04Zm2.108-7.592c-.234 0-.421-.069-.559-.208a.748.748 0 0 1-.208-.533c0-.208.069-.386.208-.533.138-.147.325-.221.559-.221.225 0 .403.074.533.221.13.147.195.325.195.533a.777.777 0 0 1-.195.533c-.13.139-.308.208-.533.208Zm.559.988v6.747h-1.144v-6.747h1.144Zm4.633 6.877c-.459 0-.888-.078-1.287-.234a3.002 3.002 0 0 1-1.04-.676 3.3 3.3 0 0 1-.676-1.105c-.164-.433-.247-.932-.247-1.495 0-.555.083-1.049.247-1.482.165-.442.39-.81.676-1.105.295-.295.642-.52 1.04-.676a3.503 3.503 0 0 1 1.287-.234c.468 0 .902.078 1.3.234a2.86 2.86 0 0 1 1.027.676c.295.295.525.663.689 1.105.174.433.26.927.26 1.482 0 .563-.086 1.062-.26 1.495a3.173 3.173 0 0 1-.689 1.105 2.86 2.86 0 0 1-1.027.676 3.534 3.534 0 0 1-1.3.234Zm0-1.027c.304 0 .581-.048.832-.143a1.9 1.9 0 0 0 .676-.455 2.13 2.13 0 0 0 .442-.78c.104-.312.156-.68.156-1.105 0-.425-.052-.793-.156-1.105a2.003 2.003 0 0 0-.442-.767 1.691 1.691 0 0 0-.676-.455 2.152 2.152 0 0 0-.832-.156c-.303 0-.58.052-.832.156a1.719 1.719 0 0 0-.663.455 2.107 2.107 0 0 0-.429.767c-.104.312-.156.68-.156 1.105 0 .425.052.793.156 1.105.104.312.247.572.429.78.191.199.412.351.663.455.252.095.529.143.832.143Zm7.869-4.966c-.52 0-.945.121-1.274.364a2.649 2.649 0 0 0-.78.91v4.589h-1.144v-6.747h1.079l.039 1.209h.026c.182-.39.468-.711.858-.962.39-.251.884-.377 1.482-.377.667 0 1.196.178 1.586.533.399.347.598.884.598 1.612v4.732h-1.144v-4.615c0-.468-.117-.793-.351-.975-.234-.182-.559-.273-.975-.273Zm6.437 5.993a4.45 4.45 0 0 1-.949-.091 4.475 4.475 0 0 1-.715-.195 3.938 3.938 0 0 1-.507-.26 3.514 3.514 0 0 1-.325-.247v-1.027c.087.087.204.182.351.286.148.095.325.186.533.273.208.087.442.16.702.221.269.052.568.078.897.078.486 0 .871-.078 1.157-.234.286-.156.429-.42.429-.793 0-.199-.047-.36-.143-.481a.864.864 0 0 0-.364-.286 2.228 2.228 0 0 0-.546-.182 26.073 26.073 0 0 0-.637-.13 26.13 26.13 0 0 1-.845-.195 2.962 2.962 0 0 1-.754-.325 1.776 1.776 0 0 1-.546-.559c-.138-.234-.208-.537-.208-.91 0-.607.234-1.083.702-1.43.477-.347 1.14-.52 1.989-.52.477 0 .897.048 1.261.143.373.095.659.199.858.312v1.027a3.055 3.055 0 0 0-.845-.364c-.329-.104-.741-.156-1.235-.156-.511 0-.905.069-1.183.208-.268.139-.403.39-.403.754 0 .182.039.329.117.442a.924.924 0 0 0 .312.26c.139.061.295.108.468.143.174.035.356.074.546.117.295.061.598.126.91.195.312.069.59.178.832.325.252.147.455.347.611.598.165.243.247.572.247.988 0 .39-.078.715-.234.975-.156.26-.364.468-.624.624a2.668 2.668 0 0 1-.871.312 4.68 4.68 0 0 1-.988.104Z"/><rect width="139" height="178" x="499.5" y="123.5" fill="#fff" stroke="#FFDB4D" rx="4.5"/><path fill="#18123D" d="M565.928 183.236a4.43 4.43 0 0 1-.247 1.508 3.129 3.129 0 0 1-.728 1.196 3.39 3.39 0 0 1-1.248.793c-.494.191-1.079.286-1.755.286a4.701 4.701 0 0 1-1.807-.338 4.128 4.128 0 0 1-1.404-.975 4.396 4.396 0 0 1-.91-1.508 5.669 5.669 0 0 1-.325-1.963c0-.719.104-1.374.312-1.963a4.148 4.148 0 0 1 .91-1.508c.408-.416.91-.737 1.508-.962.598-.234 1.287-.351 2.067-.351.399 0 .754.026 1.066.078.321.052.603.117.845.195.243.078.451.165.624.26.182.095.338.186.468.273v1.17a9.015 9.015 0 0 0-.637-.338 4.171 4.171 0 0 0-.702-.286 5.023 5.023 0 0 0-.793-.182 5.944 5.944 0 0 0-.91-.065c-.589 0-1.1.082-1.534.247-.424.165-.78.407-1.066.728a3.044 3.044 0 0 0-.624 1.157 5.285 5.285 0 0 0-.208 1.547c0 1.161.273 2.067.819 2.717.555.641 1.322.962 2.301.962.486 0 .902-.061 1.248-.182a2.32 2.32 0 0 0 .845-.52 1.98 1.98 0 0 0 .468-.793c.104-.312.156-.65.156-1.014v-.26h-3.003v-1.105h4.264v1.196Zm7.073 3.081a3.867 3.867 0 0 1-.858.455c-.2.069-.425.126-.676.169a4.19 4.19 0 0 1-.845.078c-1.136 0-1.998-.308-2.587-.923-.59-.615-.884-1.478-.884-2.587 0-.546.078-1.036.234-1.469.164-.433.39-.797.676-1.092a2.816 2.816 0 0 1 1.014-.689c.39-.165.814-.247 1.274-.247.485 0 .918.082 1.3.247.381.165.693.407.936.728.251.321.42.719.507 1.196.095.468.095 1.014 0 1.638h-4.758c.043.728.26 1.274.65 1.638.39.355.97.533 1.742.533.52 0 .966-.074 1.339-.221.372-.147.684-.308.936-.481v1.027Zm-2.678-5.291c-.494 0-.919.152-1.274.455-.356.303-.581.763-.676 1.378H572c.034-.624-.109-1.083-.429-1.378-.321-.303-.737-.455-1.248-.455Zm7.504 5.72a2.077 2.077 0 0 1-.533.195 2.938 2.938 0 0 1-.689.078c-.329 0-.611-.048-.845-.143a1.634 1.634 0 0 1-.559-.377 1.626 1.626 0 0 1-.325-.546 2.286 2.286 0 0 1-.091-.637v-4.199h-.806v-.975h.806v-1.417h1.144v1.417h1.963v.975h-1.963v4.056c0 .286.07.494.208.624.148.13.403.195.767.195.338 0 .646-.095.923-.286v1.04Zm-46.564 13.856a3.85 3.85 0 0 1-.299.494 2.253 2.253 0 0 1-1.105.793c-.242.087-.528.13-.858.13-.606 0-1.096-.169-1.469-.507-.372-.347-.559-.841-.559-1.482 0-.737.256-1.278.767-1.625.52-.347 1.257-.52 2.21-.52h1.261v-.559c0-.468-.121-.802-.364-1.001-.242-.199-.658-.299-1.248-.299-.416 0-.81.069-1.183.208-.372.13-.706.282-1.001.455v-1.027c.243-.147.568-.29.975-.429a4.07 4.07 0 0 1 1.365-.221c.85 0 1.495.178 1.937.533.442.347.663.888.663 1.625v3.9c.009.095.013.195.013.299l.026.299c.009.087.018.16.026.221h-1.04a5.896 5.896 0 0 1-.078-.507 7.937 7.937 0 0 1-.026-.585l-.013-.195Zm-2.015.39c.356 0 .659-.074.91-.221.252-.147.455-.316.611-.507.156-.199.269-.39.338-.572.07-.191.104-.325.104-.403v-.494h-1.144c-.684 0-1.183.1-1.495.299-.303.191-.455.481-.455.871 0 .303.091.55.273.741.182.191.468.286.858.286Zm8.104-4.966c-.52 0-.944.121-1.274.364a2.67 2.67 0 0 0-.78.91v4.589h-1.144v-6.747h1.079l.039 1.209h.026c.182-.39.468-.711.858-.962.39-.251.884-.377 1.482-.377.668 0 1.196.178 1.586.533.399.347.598.884.598 1.612v4.732h-1.144v-4.615c0-.468-.117-.793-.351-.975-.234-.182-.559-.273-.975-.273Zm7.721-1.872c-.234 0-.42-.069-.559-.208a.752.752 0 0 1-.208-.533.733.733 0 0 1 .767-.754c.226 0 .403.074.533.221.13.147.195.325.195.533a.777.777 0 0 1-.195.533c-.13.139-.307.208-.533.208Zm.559.988v6.747h-1.144v-6.747h1.144Zm5.063.884c-.52 0-.945.121-1.274.364a2.649 2.649 0 0 0-.78.91v4.589h-1.144v-6.747h1.079l.039 1.209h.026c.182-.39.468-.711.858-.962.39-.251.884-.377 1.482-.377.667 0 1.196.178 1.586.533.399.347.598.884.598 1.612v4.732h-1.144v-4.615c0-.468-.117-.793-.351-.975-.234-.182-.559-.273-.975-.273Zm4.865-1.872c-.234 0-.421-.069-.559-.208a.748.748 0 0 1-.208-.533c0-.208.069-.386.208-.533.138-.147.325-.221.559-.221.225 0 .403.074.533.221.13.147.195.325.195.533a.777.777 0 0 1-.195.533c-.13.139-.308.208-.533.208Zm.559.988v6.747h-1.144v-6.747h1.144Zm5.166 6.604a2.077 2.077 0 0 1-.533.195 2.938 2.938 0 0 1-.689.078c-.329 0-.611-.048-.845-.143a1.634 1.634 0 0 1-.559-.377 1.626 1.626 0 0 1-.325-.546 2.286 2.286 0 0 1-.091-.637v-4.199h-.806v-.975h.806v-1.417h1.144v1.417h1.963v.975h-1.963v4.056c0 .286.07.494.208.624.148.13.403.195.767.195.338 0 .646-.095.923-.286v1.04Zm2.108-7.592c-.234 0-.421-.069-.559-.208a.748.748 0 0 1-.208-.533c0-.208.069-.386.208-.533.138-.147.325-.221.559-.221.225 0 .403.074.533.221.13.147.195.325.195.533a.777.777 0 0 1-.195.533c-.13.139-.308.208-.533.208Zm.559.988v6.747h-1.144v-6.747h1.144Zm5.816 5.46a3.85 3.85 0 0 1-.299.494 2.253 2.253 0 0 1-1.105.793c-.242.087-.528.13-.858.13-.606 0-1.096-.169-1.469-.507-.372-.347-.559-.841-.559-1.482 0-.737.256-1.278.767-1.625.52-.347 1.257-.52 2.21-.52h1.261v-.559c0-.468-.121-.802-.364-1.001-.242-.199-.658-.299-1.248-.299-.416 0-.81.069-1.183.208-.372.13-.706.282-1.001.455v-1.027c.243-.147.568-.29.975-.429a4.07 4.07 0 0 1 1.365-.221c.85 0 1.495.178 1.937.533.442.347.663.888.663 1.625v3.9c.009.095.013.195.013.299l.026.299c.009.087.018.16.026.221h-1.04a5.896 5.896 0 0 1-.078-.507 7.937 7.937 0 0 1-.026-.585l-.013-.195Zm-2.015.39c.356 0 .659-.074.91-.221.252-.147.455-.316.611-.507.156-.199.269-.39.338-.572.07-.191.104-.325.104-.403v-.494h-1.144c-.684 0-1.183.1-1.495.299-.303.191-.455.481-.455.871 0 .303.091.55.273.741.182.191.468.286.858.286Zm6.05-8.424v9.321h-1.144v-9.321h1.144Zm10.519 8.749c0 .433-.065.828-.195 1.183-.121.364-.32.672-.598.923-.268.251-.619.446-1.053.585-.424.139-.94.208-1.547.208-.329 0-.619-.017-.871-.052a4.022 4.022 0 0 1-.663-.143 2.42 2.42 0 0 1-.468-.182 2.193 2.193 0 0 1-.325-.182v-1.027c.139.078.282.147.429.208a3.835 3.835 0 0 0 1.118.299c.234.035.499.052.793.052.832 0 1.413-.156 1.742-.468.33-.312.494-.776.494-1.391v-1.04a2.45 2.45 0 0 1-.845.962c-.355.243-.797.364-1.326.364-.398 0-.78-.069-1.144-.208a2.84 2.84 0 0 1-.949-.611 3.171 3.171 0 0 1-.65-1.027c-.156-.416-.234-.897-.234-1.443 0-.555.078-1.036.234-1.443a3.14 3.14 0 0 1 .65-1.04c.278-.277.598-.485.962-.624s.75-.208 1.157-.208c.538 0 .988.121 1.352.364.373.243.663.572.871.988l.013-.143c0-.156.009-.342.026-.559a9.52 9.52 0 0 1 .052-.52h1.04a9.52 9.52 0 0 0-.052.52c-.008.225-.013.412-.013.559v5.096Zm-3.107-.728c.286 0 .546-.043.78-.13.243-.095.451-.238.624-.429.182-.191.321-.425.416-.702.104-.286.156-.62.156-1.001 0-.771-.19-1.348-.572-1.729-.372-.381-.845-.572-1.417-.572-.286 0-.554.048-.806.143a1.759 1.759 0 0 0-.637.429 2.117 2.117 0 0 0-.416.728c-.104.286-.156.62-.156 1.001 0 .381.052.715.156 1.001.104.277.247.511.429.702.182.182.395.321.637.416.252.095.52.143.806.143Zm8.306-4.303a3.499 3.499 0 0 0-1.326.377 1.87 1.87 0 0 0-.871.936v4.29h-1.144v-6.747h1.001l.117 1.469h.026c.19-.399.463-.745.819-1.04.364-.303.823-.49 1.378-.559v1.274Zm5.219 4.316a3.968 3.968 0 0 1-.299.494 2.253 2.253 0 0 1-1.105.793c-.243.087-.529.13-.858.13-.607 0-1.096-.169-1.469-.507-.373-.347-.559-.841-.559-1.482 0-.737.256-1.278.767-1.625.52-.347 1.257-.52 2.21-.52h1.261v-.559c0-.468-.121-.802-.364-1.001-.243-.199-.659-.299-1.248-.299-.416 0-.81.069-1.183.208-.373.13-.706.282-1.001.455v-1.027c.243-.147.568-.29.975-.429a4.07 4.07 0 0 1 1.365-.221c.849 0 1.495.178 1.937.533.442.347.663.888.663 1.625v3.9c.009.095.013.195.013.299l.026.299c.009.087.017.16.026.221h-1.04a5.896 5.896 0 0 1-.078-.507 7.937 7.937 0 0 1-.026-.585l-.013-.195Zm-2.015.39c.355 0 .659-.074.91-.221.251-.147.455-.316.611-.507.156-.199.269-.39.338-.572.069-.191.104-.325.104-.403v-.494h-1.144c-.685 0-1.183.1-1.495.299-.303.191-.455.481-.455.871 0 .303.091.55.273.741.182.191.468.286.858.286Zm8.104-4.966c-.52 0-.945.121-1.274.364a2.649 2.649 0 0 0-.78.91v4.589h-1.144v-6.747h1.079l.039 1.209h.026c.182-.39.468-.711.858-.962.39-.251.884-.377 1.482-.377.667 0 1.196.178 1.586.533.398.347.598.884.598 1.612v4.732h-1.144v-4.615c0-.468-.117-.793-.351-.975-.234-.182-.559-.273-.975-.273Zm7.581 5.72a2.077 2.077 0 0 1-.533.195 2.938 2.938 0 0 1-.689.078c-.329 0-.611-.048-.845-.143a1.634 1.634 0 0 1-.559-.377 1.626 1.626 0 0 1-.325-.546 2.286 2.286 0 0 1-.091-.637v-4.199h-.806v-.975h.806v-1.417h1.144v1.417h1.963v.975h-1.963v4.056c0 .286.07.494.208.624.148.13.403.195.767.195.338 0 .646-.095.923-.286v1.04Zm-62.109 13.856a3.968 3.968 0 0 1-.299.494 2.253 2.253 0 0 1-1.105.793c-.243.087-.529.13-.858.13-.607 0-1.096-.169-1.469-.507-.373-.347-.559-.841-.559-1.482 0-.737.256-1.278.767-1.625.52-.347 1.257-.52 2.21-.52h1.261v-.559c0-.468-.121-.802-.364-1.001-.243-.199-.659-.299-1.248-.299-.416 0-.81.069-1.183.208-.373.13-.706.282-1.001.455v-1.027c.243-.147.568-.29.975-.429a4.07 4.07 0 0 1 1.365-.221c.849 0 1.495.178 1.937.533.442.347.663.888.663 1.625v3.9c.009.095.013.195.013.299l.026.299c.009.087.017.16.026.221h-1.04a5.896 5.896 0 0 1-.078-.507 7.937 7.937 0 0 1-.026-.585l-.013-.195Zm-2.015.39c.355 0 .659-.074.91-.221.251-.147.455-.316.611-.507.156-.199.269-.39.338-.572.069-.191.104-.325.104-.403v-.494h-1.144c-.685 0-1.183.1-1.495.299-.303.191-.455.481-.455.871 0 .303.091.55.273.741.182.191.468.286.858.286Zm8.104-4.966c-.52 0-.945.121-1.274.364a2.649 2.649 0 0 0-.78.91v4.589h-1.144v-6.747h1.079l.039 1.209h.026c.182-.39.468-.711.858-.962.39-.251.884-.377 1.482-.377.667 0 1.196.178 1.586.533.399.347.598.884.598 1.612v4.732h-1.144v-4.615c0-.468-.117-.793-.351-.975-.234-.182-.559-.273-.975-.273Zm9.115 4.537a2.706 2.706 0 0 1-.871 1.066c-.372.26-.845.39-1.417.39-.407 0-.793-.069-1.157-.208a2.782 2.782 0 0 1-.962-.65 3.278 3.278 0 0 1-.663-1.092c-.164-.442-.247-.962-.247-1.56 0-.589.083-1.101.247-1.534.165-.442.386-.806.663-1.092.278-.295.598-.511.962-.65a3.163 3.163 0 0 1 1.17-.221c.512 0 .954.108 1.326.325.373.208.672.507.897.897v-3.666h1.144v9.321h-1.001l-.091-1.326Zm-2.119.429c.295 0 .568-.048.819-.143a1.73 1.73 0 0 0 .65-.468 2.13 2.13 0 0 0 .442-.78c.113-.312.169-.676.169-1.092 0-.416-.056-.78-.169-1.092a2.13 2.13 0 0 0-.442-.78 1.606 1.606 0 0 0-.65-.455 2.119 2.119 0 0 0-.819-.156c-.598 0-1.087.212-1.469.637-.372.416-.559 1.031-.559 1.846 0 .823.191 1.443.572 1.859.382.416.867.624 1.456.624Zm10.093 1.027c-.356 0-.672-.03-.949-.091a4.446 4.446 0 0 1-.715-.195 3.81 3.81 0 0 1-.507-.26 3.382 3.382 0 0 1-.325-.247v-1.027c.086.087.203.182.351.286.147.095.325.186.533.273.208.087.442.16.702.221.268.052.567.078.897.078.485 0 .871-.078 1.157-.234.286-.156.429-.42.429-.793a.759.759 0 0 0-.143-.481.87.87 0 0 0-.364-.286 2.228 2.228 0 0 0-.546-.182c-.2-.043-.412-.087-.637-.13a25.532 25.532 0 0 1-.845-.195 2.931 2.931 0 0 1-.754-.325 1.755 1.755 0 0 1-.546-.559c-.139-.234-.208-.537-.208-.91 0-.607.234-1.083.702-1.43.476-.347 1.139-.52 1.989-.52.476 0 .897.048 1.261.143.372.095.658.199.858.312v1.027a3.068 3.068 0 0 0-.845-.364c-.33-.104-.741-.156-1.235-.156-.512 0-.906.069-1.183.208-.269.139-.403.39-.403.754 0 .182.039.329.117.442a.924.924 0 0 0 .312.26c.138.061.294.108.468.143.173.035.355.074.546.117.294.061.598.126.91.195.312.069.589.178.832.325.251.147.455.347.611.598.164.243.247.572.247.988 0 .39-.078.715-.234.975-.156.26-.364.468-.624.624a2.685 2.685 0 0 1-.871.312c-.321.069-.65.104-.988.104Zm7.428-.273a2.091 2.091 0 0 1-.533.195 2.944 2.944 0 0 1-.689.078c-.329 0-.611-.048-.845-.143a1.625 1.625 0 0 1-.559-.377 1.61 1.61 0 0 1-.325-.546 2.25 2.25 0 0 1-.091-.637v-4.199h-.806v-.975h.806v-1.417h1.144v1.417h1.963v.975h-1.963v4.056c0 .286.069.494.208.624.147.13.403.195.767.195.338 0 .646-.095.923-.286v1.04Zm5.474-1.144a3.968 3.968 0 0 1-.299.494 2.253 2.253 0 0 1-1.105.793c-.243.087-.529.13-.858.13-.607 0-1.096-.169-1.469-.507-.373-.347-.559-.841-.559-1.482 0-.737.256-1.278.767-1.625.52-.347 1.257-.52 2.21-.52h1.261v-.559c0-.468-.121-.802-.364-1.001-.243-.199-.659-.299-1.248-.299-.416 0-.81.069-1.183.208-.373.13-.706.282-1.001.455v-1.027c.243-.147.568-.29.975-.429a4.07 4.07 0 0 1 1.365-.221c.849 0 1.495.178 1.937.533.442.347.663.888.663 1.625v3.9c.009.095.013.195.013.299l.026.299c.009.087.017.16.026.221h-1.04a5.896 5.896 0 0 1-.078-.507 7.937 7.937 0 0 1-.026-.585l-.013-.195Zm-2.015.39c.355 0 .659-.074.91-.221.251-.147.455-.316.611-.507.156-.199.269-.39.338-.572.069-.191.104-.325.104-.403v-.494h-1.144c-.685 0-1.183.1-1.495.299-.303.191-.455.481-.455.871 0 .303.091.55.273.741.182.191.468.286.858.286Zm8.247-4.706a3.509 3.509 0 0 0-1.326.377c-.39.199-.68.511-.871.936v4.29h-1.144v-6.747h1.001l.117 1.469h.026a3.06 3.06 0 0 1 .819-1.04c.364-.303.823-.49 1.378-.559v1.274Zm4.76 5.46a2.105 2.105 0 0 1-.533.195 2.95 2.95 0 0 1-.689.078c-.33 0-.611-.048-.845-.143a1.615 1.615 0 0 1-.559-.377 1.594 1.594 0 0 1-.325-.546 2.25 2.25 0 0 1-.091-.637v-4.199h-.806v-.975h.806v-1.417h1.144v1.417h1.963v.975h-1.963v4.056c0 .286.069.494.208.624.147.13.403.195.767.195.338 0 .645-.095.923-.286v1.04Zm-46.626 14.571a3.605 3.605 0 0 1-.351.221 4.116 4.116 0 0 1-.507.234 4.275 4.275 0 0 1-.676.169 4.183 4.183 0 0 1-.845.078c-1.135 0-1.998-.308-2.587-.923-.589-.615-.884-1.478-.884-2.587 0-.546.078-1.036.234-1.469.165-.433.39-.797.676-1.092a2.816 2.816 0 0 1 1.014-.689c.39-.165.815-.247 1.274-.247.485 0 .919.082 1.3.247.381.165.693.407.936.728.251.321.42.719.507 1.196.095.468.095 1.014 0 1.638h-4.758c.043.728.26 1.274.65 1.638.39.355.971.533 1.742.533.52 0 .966-.074 1.339-.221.373-.147.685-.308.936-.481v1.027Zm-2.678-5.291c-.494 0-.919.152-1.274.455-.355.303-.581.763-.676 1.378h3.627c.035-.624-.108-1.083-.429-1.378-.321-.303-.737-.455-1.248-.455Zm6.414 3.185-1.82 2.678h-1.196l2.444-3.497-2.158-3.25h1.326l1.612 2.379 1.625-2.379h1.183l-2.236 3.224 2.353 3.523h-1.326l-1.807-2.678Zm7.656 2.808c-.52 0-.971-.121-1.352-.364a2.642 2.642 0 0 1-.897-1.001v3.536h-1.144v-9.048h1.001l.117 1.313c.225-.442.529-.793.91-1.053.381-.26.854-.39 1.417-.39.39 0 .763.074 1.118.221.364.139.68.355.949.65.277.286.494.65.65 1.092.165.433.247.945.247 1.534 0 .598-.082 1.118-.247 1.56a3.278 3.278 0 0 1-.663 1.092 2.772 2.772 0 0 1-.962.65 3.178 3.178 0 0 1-1.144.208Zm-.169-1.027c.598 0 1.079-.204 1.443-.611.373-.416.559-1.04.559-1.872 0-.815-.186-1.43-.559-1.846-.364-.425-.845-.637-1.443-.637-.295 0-.572.052-.832.156-.251.104-.472.26-.663.468a2.263 2.263 0 0 0-.442.767 3.457 3.457 0 0 0-.156 1.092c0 .416.052.78.156 1.092.113.312.26.572.442.78.191.208.412.364.663.468.26.095.537.143.832.143Zm5.715-8.424v9.321h-1.144v-9.321h1.144Zm4.634 9.451c-.46 0-.889-.078-1.287-.234a2.984 2.984 0 0 1-1.04-.676 3.283 3.283 0 0 1-.676-1.105c-.165-.433-.247-.932-.247-1.495 0-.555.082-1.049.247-1.482.164-.442.39-.81.676-1.105.294-.295.641-.52 1.04-.676a3.495 3.495 0 0 1 1.287-.234c.468 0 .901.078 1.3.234.398.156.741.381 1.027.676.294.295.524.663.689 1.105.173.433.26.927.26 1.482 0 .563-.087 1.062-.26 1.495a3.203 3.203 0 0 1-.689 1.105c-.286.295-.629.52-1.027.676a3.538 3.538 0 0 1-1.3.234Zm0-1.027c.303 0 .58-.048.832-.143.26-.104.485-.256.676-.455.19-.208.338-.468.442-.78.104-.312.156-.68.156-1.105 0-.425-.052-.793-.156-1.105a2.015 2.015 0 0 0-.442-.767 1.698 1.698 0 0 0-.676-.455 2.16 2.16 0 0 0-.832-.156c-.304 0-.581.052-.832.156a1.704 1.704 0 0 0-.663.455 2.107 2.107 0 0 0-.429.767c-.104.312-.156.68-.156 1.105 0 .425.052.793.156 1.105.104.312.247.572.429.78.19.199.411.351.663.455.251.095.528.143.832.143Zm8.011-4.706a3.509 3.509 0 0 0-1.326.377c-.39.199-.68.511-.871.936v4.29h-1.144v-6.747h1.001l.117 1.469h.026a3.06 3.06 0 0 1 .819-1.04c.364-.303.824-.49 1.378-.559v1.274Zm1.98-2.132c-.234 0-.421-.069-.559-.208a.748.748 0 0 1-.208-.533c0-.208.069-.386.208-.533.138-.147.325-.221.559-.221.225 0 .403.074.533.221.13.147.195.325.195.533a.777.777 0 0 1-.195.533c-.13.139-.308.208-.533.208Zm.559.988v6.747h-1.144v-6.747h1.144Zm5.062.884c-.52 0-.944.121-1.274.364a2.67 2.67 0 0 0-.78.91v4.589h-1.144v-6.747h1.079l.039 1.209h.026c.182-.39.468-.711.858-.962.39-.251.884-.377 1.482-.377.668 0 1.196.178 1.586.533.399.347.598.884.598 1.612v4.732h-1.144v-4.615c0-.468-.117-.793-.351-.975-.234-.182-.559-.273-.975-.273Zm10.078 5.291c0 .433-.065.828-.195 1.183a2.132 2.132 0 0 1-.598.923c-.269.251-.62.446-1.053.585-.425.139-.94.208-1.547.208-.329 0-.62-.017-.871-.052a4.022 4.022 0 0 1-.663-.143 2.42 2.42 0 0 1-.468-.182 2.193 2.193 0 0 1-.325-.182v-1.027c.139.078.282.147.429.208a3.835 3.835 0 0 0 1.118.299 5.4 5.4 0 0 0 .793.052c.832 0 1.413-.156 1.742-.468.329-.312.494-.776.494-1.391v-1.04a2.45 2.45 0 0 1-.845.962c-.355.243-.797.364-1.326.364-.399 0-.78-.069-1.144-.208a2.83 2.83 0 0 1-.949-.611 3.154 3.154 0 0 1-.65-1.027c-.156-.416-.234-.897-.234-1.443 0-.555.078-1.036.234-1.443.165-.416.381-.763.65-1.04.277-.277.598-.485.962-.624s.75-.208 1.157-.208c.537 0 .988.121 1.352.364.373.243.663.572.871.988l.013-.143c0-.156.009-.342.026-.559.017-.225.035-.399.052-.52h1.04a8.605 8.605 0 0 0-.052.52c-.009.225-.013.412-.013.559v5.096Zm-3.107-.728c.286 0 .546-.043.78-.13.243-.095.451-.238.624-.429.182-.191.321-.425.416-.702.104-.286.156-.62.156-1.001 0-.771-.191-1.348-.572-1.729-.373-.381-.845-.572-1.417-.572a2.26 2.26 0 0 0-.806.143 1.75 1.75 0 0 0-.637.429 2.117 2.117 0 0 0-.416.728c-.104.286-.156.62-.156 1.001 0 .381.052.715.156 1.001.104.277.247.511.429.702.182.182.394.321.637.416.251.095.52.143.806.143Zm-44.667 17.157a2.091 2.091 0 0 1-.533.195 2.944 2.944 0 0 1-.689.078c-.329 0-.611-.048-.845-.143a1.625 1.625 0 0 1-.559-.377 1.61 1.61 0 0 1-.325-.546 2.25 2.25 0 0 1-.091-.637v-4.199h-.806v-.975h.806v-1.417h1.144v1.417h1.963v.975h-1.963v4.056c0 .286.069.494.208.624.147.13.403.195.767.195.338 0 .646-.095.923-.286v1.04Zm4.72-5.72c-.52 0-.944.121-1.274.364a2.67 2.67 0 0 0-.78.91v4.589h-1.144v-9.321h1.144v2.574l-.026 1.209h.026c.182-.381.468-.698.858-.949.39-.26.884-.39 1.482-.39.668 0 1.196.178 1.586.533.399.347.598.884.598 1.612v4.732h-1.144v-4.615c0-.468-.117-.793-.351-.975-.234-.182-.559-.273-.975-.273Zm9.649 5.291a3.867 3.867 0 0 1-.858.455c-.2.069-.425.126-.676.169a4.19 4.19 0 0 1-.845.078c-1.136 0-1.998-.308-2.587-.923-.59-.615-.884-1.478-.884-2.587 0-.546.078-1.036.234-1.469.164-.433.39-.797.676-1.092a2.816 2.816 0 0 1 1.014-.689c.39-.165.814-.247 1.274-.247.485 0 .918.082 1.3.247.381.165.693.407.936.728.251.321.42.719.507 1.196.095.468.095 1.014 0 1.638h-4.758c.043.728.26 1.274.65 1.638.39.355.97.533 1.742.533.52 0 .966-.074 1.339-.221.372-.147.684-.308.936-.481v1.027Zm-2.678-5.291c-.494 0-.919.152-1.274.455-.356.303-.581.763-.676 1.378h3.627c.034-.624-.109-1.083-.429-1.378-.321-.303-.737-.455-1.248-.455Zm9.971 5.993c-.52 0-.993-.078-1.417-.234a3.093 3.093 0 0 1-1.066-.689 3.034 3.034 0 0 1-.676-1.105 4.357 4.357 0 0 1-.234-1.482c0-.546.078-1.036.234-1.469.164-.433.394-.797.689-1.092a2.846 2.846 0 0 1 1.079-.689 3.955 3.955 0 0 1 1.443-.247c.416 0 .797.048 1.144.143.346.087.632.217.858.39v1.027a3.053 3.053 0 0 0-.936-.403 3.873 3.873 0 0 0-1.053-.143c-.789 0-1.37.204-1.742.611-.364.407-.546 1.031-.546 1.872 0 .841.177 1.465.533 1.872.355.407.918.611 1.69.611.407 0 .78-.048 1.118-.143.346-.104.658-.234.936-.39v1.027a3.984 3.984 0 0 1-2.054.533Zm4.592-9.451v9.321h-1.144v-9.321h1.144Zm4.634 9.451c-.459 0-.888-.078-1.287-.234a2.993 2.993 0 0 1-1.04-.676 3.3 3.3 0 0 1-.676-1.105c-.165-.433-.247-.932-.247-1.495 0-.555.082-1.049.247-1.482.165-.442.39-.81.676-1.105.295-.295.641-.52 1.04-.676a3.503 3.503 0 0 1 1.287-.234c.468 0 .901.078 1.3.234a2.86 2.86 0 0 1 1.027.676c.295.295.524.663.689 1.105.173.433.26.927.26 1.482 0 .563-.087 1.062-.26 1.495a3.188 3.188 0 0 1-.689 1.105 2.86 2.86 0 0 1-1.027.676 3.538 3.538 0 0 1-1.3.234Zm0-1.027c.303 0 .581-.048.832-.143.26-.104.485-.256.676-.455a2.13 2.13 0 0 0 .442-.78c.104-.312.156-.68.156-1.105 0-.425-.052-.793-.156-1.105a2.003 2.003 0 0 0-.442-.767 1.698 1.698 0 0 0-.676-.455 2.156 2.156 0 0 0-.832-.156c-.303 0-.581.052-.832.156a1.719 1.719 0 0 0-.663.455 2.107 2.107 0 0 0-.429.767c-.104.312-.156.68-.156 1.105 0 .425.052.793.156 1.105.104.312.247.572.429.78.191.199.412.351.663.455.251.095.529.143.832.143Zm8.999-.312a2.417 2.417 0 0 1-.845.962c-.372.251-.862.377-1.469.377-.624 0-1.131-.173-1.521-.52-.381-.355-.572-.901-.572-1.638v-4.719h1.157v4.719c0 .225.031.412.091.559.07.139.161.251.273.338.113.087.243.147.39.182.156.035.325.052.507.052.503 0 .906-.113 1.209-.338a2.83 2.83 0 0 0 .78-.923v-4.589h1.144v6.747h-1.014l-.104-1.209h-.026Zm7.858-.117a2.706 2.706 0 0 1-.871 1.066c-.373.26-.845.39-1.417.39-.407 0-.793-.069-1.157-.208a2.772 2.772 0 0 1-.962-.65 3.278 3.278 0 0 1-.663-1.092c-.165-.442-.247-.962-.247-1.56 0-.589.082-1.101.247-1.534.165-.442.386-.806.663-1.092.277-.295.598-.511.962-.65a3.163 3.163 0 0 1 1.17-.221c.511 0 .953.108 1.326.325.373.208.672.507.897.897v-3.666h1.144v9.321h-1.001l-.091-1.326Zm-2.119.429c.295 0 .568-.048.819-.143.251-.104.468-.26.65-.468a2.13 2.13 0 0 0 .442-.78c.113-.312.169-.676.169-1.092 0-.416-.056-.78-.169-1.092a2.13 2.13 0 0 0-.442-.78 1.613 1.613 0 0 0-.65-.455 2.119 2.119 0 0 0-.819-.156c-.598 0-1.088.212-1.469.637-.373.416-.559 1.031-.559 1.846 0 .823.191 1.443.572 1.859.381.416.867.624 1.456.624Z"/><path fill="#5282FF" fill-rule="evenodd" d="M96 123c13.799 0 25 11.2 25 25s-11.201 25-25 25-25-11.2-25-25 11.201-25 25-25Z" clip-rule="evenodd"/><path fill="#fff" fill-rule="evenodd" d="M85.938 158.829c-.455-.197-.733-.378-.841-.836-.14-1.098.133-1.921.84-2.497 2.272-1.492 5.313-2.14 6.865-3.159.525-.428.5-1.002.453-1.407-.047-.393-.26-.796-.61-1.271-1.314-1.52-2.515-3.761-2.515-8.333 0-2.124.947-3.949 2.406-4.94 1.031-.703 2.422-.891 3.464-.891 1.042 0 2.431.188 3.464.891 1.459.991 2.406 2.816 2.406 4.94 0 4.572-1.201 6.813-2.515 8.333-.35.473-.563.878-.61 1.271-.047.405-.072.979.453 1.407 1.552 1.02 4.593 1.667 6.865 3.159.707.578.979 1.399.84 2.497-.109.458-.386.641-.84.836-2.504.995-6.326 1.666-10.063 1.666-3.737 0-7.56-.671-10.063-1.666Z" clip-rule="evenodd"/><path fill="#000" fill-opacity=".7" d="m498.964 217-5-2.887v5.774l5-2.887Zm-69.964.5H494.464v-1H429v1ZM569 371.964l2.887-5h-5.774l2.887 5ZM568.5 302V367.464h1V302h-1ZM235.964 217l-5-2.887v5.774l5-2.887Zm-69.964.5H231.464v-1H166v1Z"/><rect width="140" height="69" x="262" y="222" fill="#D3E3FC" rx="5"/><path fill="#18123D" d="M301.374 260.667h-5.759v-9.321h1.222v8.216h4.537v1.105Zm2.11-7.735c-.234 0-.42-.07-.559-.208a.75.75 0 0 1-.208-.533c0-.208.069-.386.208-.533.139-.148.325-.221.559-.221.225 0 .403.073.533.221.13.147.195.325.195.533a.779.779 0 0 1-.195.533c-.13.138-.308.208-.533.208Zm.559.988v6.747h-1.144v-6.747h1.144Zm5.063.884c-.52 0-.945.121-1.274.364a2.649 2.649 0 0 0-.78.91v4.589h-1.144v-6.747h1.079l.039 1.209h.026c.182-.39.468-.711.858-.962.39-.252.884-.377 1.482-.377.667 0 1.196.177 1.586.533.398.346.598.884.598 1.612v4.732h-1.144v-4.615c0-.468-.117-.793-.351-.975-.234-.182-.559-.273-.975-.273Zm6.021 2.99h-.598v2.873h-1.144v-9.321h1.144v5.473h.65l2.366-2.899h1.3l-2.769 3.328 2.821 3.419h-1.391l-2.379-2.873Zm10.866 2.73a2.091 2.091 0 0 1-.533.195 2.944 2.944 0 0 1-.689.078c-.329 0-.611-.048-.845-.143a1.639 1.639 0 0 1-.559-.377 1.61 1.61 0 0 1-.325-.546 2.255 2.255 0 0 1-.091-.637v-4.199h-.806v-.975h.806v-1.417h1.144v1.417h1.963v.975h-1.963v4.056c0 .286.069.494.208.624.147.13.403.195.767.195.338 0 .646-.096.923-.286v1.04Zm4.72-5.72c-.52 0-.945.121-1.274.364a2.649 2.649 0 0 0-.78.91v4.589h-1.144v-9.321h1.144v2.574l-.026 1.209h.026c.182-.382.468-.698.858-.949.39-.26.884-.39 1.482-.39.667 0 1.196.177 1.586.533.399.346.598.884.598 1.612v4.732h-1.144v-4.615c0-.468-.117-.793-.351-.975-.234-.182-.559-.273-.975-.273Zm9.649 5.291a3.867 3.867 0 0 1-.858.455c-.2.069-.425.125-.676.169a4.19 4.19 0 0 1-.845.078c-1.136 0-1.998-.308-2.587-.923-.59-.616-.884-1.478-.884-2.587 0-.546.078-1.036.234-1.469a3.13 3.13 0 0 1 .676-1.092 2.804 2.804 0 0 1 1.014-.689c.39-.165.814-.247 1.274-.247.485 0 .918.082 1.3.247.381.164.693.407.936.728.251.32.42.719.507 1.196.095.468.095 1.014 0 1.638h-4.758c.043.728.26 1.274.65 1.638.39.355.97.533 1.742.533.52 0 .966-.074 1.339-.221.372-.148.684-.308.936-.481v1.027Zm-2.678-5.291c-.494 0-.919.151-1.274.455-.356.303-.581.762-.676 1.378h3.627c.034-.624-.109-1.084-.429-1.378-.321-.304-.737-.455-1.248-.455Zm9.971 5.993c-.52 0-.993-.078-1.417-.234a3.108 3.108 0 0 1-1.066-.689 3.042 3.042 0 0 1-.676-1.105 4.365 4.365 0 0 1-.234-1.482c0-.546.078-1.036.234-1.469.164-.434.394-.798.689-1.092a2.834 2.834 0 0 1 1.079-.689 3.955 3.955 0 0 1 1.443-.247c.416 0 .797.047 1.144.143.346.086.632.216.858.39v1.027a3.03 3.03 0 0 0-.936-.403 3.835 3.835 0 0 0-1.053-.143c-.789 0-1.37.203-1.742.611-.364.407-.546 1.031-.546 1.872 0 .84.177 1.464.533 1.872.355.407.918.611 1.69.611.407 0 .78-.048 1.118-.143.346-.104.658-.234.936-.39v1.027a3.984 3.984 0 0 1-2.054.533Zm7.4-1.417c-.078.156-.178.32-.299.494a2.279 2.279 0 0 1-.455.455 2.332 2.332 0 0 1-.65.338c-.243.086-.529.13-.858.13-.607 0-1.096-.169-1.469-.507-.373-.347-.559-.841-.559-1.482 0-.737.256-1.279.767-1.625.52-.347 1.257-.52 2.21-.52h1.261v-.559c0-.468-.121-.802-.364-1.001-.243-.2-.659-.299-1.248-.299-.416 0-.81.069-1.183.208-.373.13-.706.281-1.001.455v-1.027a4.99 4.99 0 0 1 .975-.429 4.046 4.046 0 0 1 1.365-.221c.849 0 1.495.177 1.937.533.442.346.663.888.663 1.625v3.9c.009.095.013.195.013.299l.026.299c.009.086.017.16.026.221h-1.04a6.026 6.026 0 0 1-.078-.507 7.983 7.983 0 0 1-.026-.585l-.013-.195Zm-2.015.39c.355 0 .659-.074.91-.221.251-.148.455-.317.611-.507.156-.2.269-.39.338-.572.069-.191.104-.325.104-.403v-.494h-1.144c-.685 0-1.183.099-1.495.299-.303.19-.455.481-.455.871 0 .303.091.55.273.741.182.19.468.286.858.286Zm8.247-4.706a3.499 3.499 0 0 0-1.326.377 1.87 1.87 0 0 0-.871.936v4.29h-1.144v-6.747h1.001l.117 1.469h.026c.19-.399.463-.746.819-1.04.364-.304.823-.49 1.378-.559v1.274Zm6.167 4.277a2.715 2.715 0 0 1-.871 1.066c-.373.26-.845.39-1.417.39-.408 0-.793-.07-1.157-.208a2.786 2.786 0 0 1-.962-.65 3.246 3.246 0 0 1-.663-1.092c-.165-.442-.247-.962-.247-1.56 0-.59.082-1.101.247-1.534.164-.442.385-.806.663-1.092.277-.295.598-.512.962-.65a3.135 3.135 0 0 1 1.17-.221c.511 0 .953.108 1.326.325.372.208.671.507.897.897v-3.666h1.144v9.321h-1.001l-.091-1.326Zm-2.119.429c.294 0 .567-.048.819-.143.251-.104.468-.26.65-.468.19-.208.338-.468.442-.78.112-.312.169-.676.169-1.092 0-.416-.057-.78-.169-1.092a2.145 2.145 0 0 0-.442-.78 1.613 1.613 0 0 0-.65-.455 2.126 2.126 0 0 0-.819-.156c-.598 0-1.088.212-1.469.637-.373.416-.559 1.031-.559 1.846 0 .823.19 1.443.572 1.859.381.416.866.624 1.456.624Z"/><rect width="140" height="69" x="262" y="321" fill="#D3E3FC" rx="5"/><path fill="#18123D" d="M283.307 343.346h5.772v1.118h-4.55v2.821h3.861v1.105h-3.861v3.172h4.615v1.105h-5.837v-9.321Zm10.812 3.458c-.52 0-.945.121-1.274.364a2.649 2.649 0 0 0-.78.91v4.589h-1.144v-6.747H292l.039 1.209h.026c.182-.39.468-.711.858-.962.39-.252.884-.377 1.482-.377.667 0 1.196.177 1.586.533.399.346.598.884.598 1.612v4.732h-1.144v-4.615c0-.468-.117-.793-.351-.975-.234-.182-.559-.273-.975-.273Zm7.581 5.72a2.077 2.077 0 0 1-.533.195 2.938 2.938 0 0 1-.689.078c-.329 0-.611-.048-.845-.143a1.649 1.649 0 0 1-.559-.377 1.626 1.626 0 0 1-.325-.546 2.292 2.292 0 0 1-.091-.637v-4.199h-.806v-.975h.806v-1.417h1.144v1.417h1.963v.975h-1.963v4.056c0 .286.07.494.208.624.148.13.403.195.767.195.338 0 .646-.096.923-.286v1.04Zm6.828-.429a3.605 3.605 0 0 1-.351.221 4.116 4.116 0 0 1-.507.234 4.387 4.387 0 0 1-.676.169 4.183 4.183 0 0 1-.845.078c-1.135 0-1.998-.308-2.587-.923-.589-.616-.884-1.478-.884-2.587 0-.546.078-1.036.234-1.469.165-.434.39-.798.676-1.092a2.804 2.804 0 0 1 1.014-.689c.39-.165.815-.247 1.274-.247.485 0 .919.082 1.3.247.381.164.693.407.936.728.251.32.42.719.507 1.196.095.468.095 1.014 0 1.638h-4.758c.043.728.26 1.274.65 1.638.39.355.971.533 1.742.533.52 0 .966-.074 1.339-.221.373-.148.685-.308.936-.481v1.027Zm-2.678-5.291c-.494 0-.919.151-1.274.455-.355.303-.581.762-.676 1.378h3.627c.035-.624-.108-1.084-.429-1.378-.321-.304-.737-.455-1.248-.455Zm7.544.26a3.499 3.499 0 0 0-1.326.377 1.87 1.87 0 0 0-.871.936v4.29h-1.144v-6.747h1.001l.117 1.469h.026c.19-.399.463-.746.819-1.04.364-.304.823-.49 1.378-.559v1.274Zm7.565 5.525c-.156.407-.32.762-.494 1.066a3.538 3.538 0 0 1-.585.793 2.091 2.091 0 0 1-.728.481 2.378 2.378 0 0 1-.923.169 2.78 2.78 0 0 1-.481-.039 1.48 1.48 0 0 1-.403-.104v-1.105c.096.069.217.121.364.156.148.043.308.065.481.065.321 0 .585-.078.793-.234.208-.148.408-.386.598-.715l-2.743-7.202h1.261l2.145 5.694 2.132-5.694h1.105l-2.522 6.669Zm6.234.208c-.46 0-.889-.078-1.287-.234a2.998 2.998 0 0 1-1.04-.676 3.293 3.293 0 0 1-.676-1.105c-.165-.434-.247-.932-.247-1.495 0-.555.082-1.049.247-1.482.164-.442.39-.811.676-1.105.294-.295.641-.52 1.04-.676a3.495 3.495 0 0 1 1.287-.234c.468 0 .901.078 1.3.234.398.156.741.381 1.027.676.294.294.524.663.689 1.105.173.433.26.927.26 1.482 0 .563-.087 1.061-.26 1.495a3.212 3.212 0 0 1-.689 1.105c-.286.294-.629.52-1.027.676a3.538 3.538 0 0 1-1.3.234Zm0-1.027c.303 0 .58-.048.832-.143.26-.104.485-.256.676-.455.19-.208.338-.468.442-.78.104-.312.156-.681.156-1.105 0-.425-.052-.793-.156-1.105a2.015 2.015 0 0 0-.442-.767 1.698 1.698 0 0 0-.676-.455 2.16 2.16 0 0 0-.832-.156c-.304 0-.581.052-.832.156a1.704 1.704 0 0 0-.663.455 2.107 2.107 0 0 0-.429.767c-.104.312-.156.68-.156 1.105 0 .424.052.793.156 1.105.104.312.247.572.429.78.19.199.411.351.663.455.251.095.528.143.832.143Zm8.999-.312a2.417 2.417 0 0 1-.845.962c-.372.251-.862.377-1.469.377-.624 0-1.131-.174-1.521-.52-.381-.356-.572-.902-.572-1.638v-4.719h1.157v4.719c0 .225.031.411.091.559.07.138.161.251.273.338.113.086.243.147.39.182.156.034.325.052.507.052.503 0 .906-.113 1.209-.338a2.84 2.84 0 0 0 .78-.923v-4.589h1.144v6.747h-1.014l-.104-1.209h-.026Zm6.363-4.394a3.499 3.499 0 0 0-1.326.377 1.87 1.87 0 0 0-.871.936v4.29h-1.144v-6.747h1.001l.117 1.469h.026c.19-.399.463-.746.819-1.04.364-.304.823-.49 1.378-.559v1.274Zm9.62 5.031a3.867 3.867 0 0 1-.858.455c-.2.069-.425.125-.676.169a4.19 4.19 0 0 1-.845.078c-1.136 0-1.998-.308-2.587-.923-.59-.616-.884-1.478-.884-2.587 0-.546.078-1.036.234-1.469a3.13 3.13 0 0 1 .676-1.092 2.804 2.804 0 0 1 1.014-.689c.39-.165.814-.247 1.274-.247.485 0 .918.082 1.3.247.381.164.693.407.936.728.251.32.42.719.507 1.196.095.468.095 1.014 0 1.638h-4.758c.043.728.26 1.274.65 1.638.39.355.97.533 1.742.533.52 0 .966-.074 1.339-.221.372-.148.684-.308.936-.481v1.027Zm-2.678-5.291c-.494 0-.919.151-1.274.455-.356.303-.581.762-.676 1.378h3.627c.034-.624-.109-1.084-.429-1.378-.321-.304-.737-.455-1.248-.455Zm4.046 1.378h3.12v1.04h-3.12v-1.04Zm5.985 4.485h-1.144v-6.747h1.001l.117 1.209h.026c.182-.382.455-.698.819-.949.364-.26.84-.39 1.43-.39.52 0 .944.125 1.274.377.338.242.563.611.676 1.105.19-.46.481-.819.871-1.079.398-.269.879-.403 1.443-.403.624 0 1.118.177 1.482.533.364.346.546.884.546 1.612v4.732h-1.157v-4.589c0-.442-.109-.763-.325-.962-.217-.208-.512-.312-.884-.312-.252 0-.473.039-.663.117-.191.069-.36.169-.507.299-.148.13-.282.281-.403.455a5.552 5.552 0 0 0-.338.546v4.446h-1.144v-4.719c0-.434-.109-.733-.325-.897-.217-.165-.512-.247-.884-.247-.243 0-.46.03-.65.091-.191.06-.364.147-.52.26a1.997 1.997 0 0 0-.403.416 3.757 3.757 0 0 0-.338.52v4.576Zm14.284-1.287a3.92 3.92 0 0 1-.299.494 2.279 2.279 0 0 1-.455.455 2.318 2.318 0 0 1-.65.338c-.242.086-.528.13-.858.13-.606 0-1.096-.169-1.469-.507-.372-.347-.559-.841-.559-1.482 0-.737.256-1.279.767-1.625.52-.347 1.257-.52 2.21-.52h1.261v-.559c0-.468-.121-.802-.364-1.001-.242-.2-.658-.299-1.248-.299-.416 0-.81.069-1.183.208a5.61 5.61 0 0 0-1.001.455v-1.027a4.99 4.99 0 0 1 .975-.429 4.046 4.046 0 0 1 1.365-.221c.85 0 1.495.177 1.937.533.442.346.663.888.663 1.625v3.9c.009.095.013.195.013.299l.026.299c.009.086.018.16.026.221h-1.04a6.026 6.026 0 0 1-.078-.507 7.983 7.983 0 0 1-.026-.585l-.013-.195Zm-2.015.39c.356 0 .659-.074.91-.221.252-.148.455-.317.611-.507.156-.2.269-.39.338-.572.07-.191.104-.325.104-.403v-.494h-1.144c-.684 0-1.183.099-1.495.299-.303.19-.455.481-.455.871 0 .303.091.55.273.741.182.19.468.286.858.286Zm5.491-6.838c-.234 0-.42-.07-.559-.208a.75.75 0 0 1-.208-.533c0-.208.069-.386.208-.533.139-.148.325-.221.559-.221.225 0 .403.073.533.221.13.147.195.325.195.533a.779.779 0 0 1-.195.533c-.13.138-.308.208-.533.208Zm.559.988v6.747h-1.144v-6.747h1.144Zm3.009-2.574v9.321h-1.144v-9.321h1.144Zm-99.288 23.034a3.92 3.92 0 0 1-.299.494 2.279 2.279 0 0 1-.455.455 2.318 2.318 0 0 1-.65.338c-.242.086-.528.13-.858.13-.606 0-1.096-.169-1.469-.507-.372-.347-.559-.841-.559-1.482 0-.737.256-1.279.767-1.625.52-.347 1.257-.52 2.21-.52h1.261v-.559c0-.468-.121-.802-.364-1.001-.242-.2-.658-.299-1.248-.299-.416 0-.81.069-1.183.208a5.61 5.61 0 0 0-1.001.455v-1.027a4.99 4.99 0 0 1 .975-.429 4.046 4.046 0 0 1 1.365-.221c.85 0 1.495.177 1.937.533.442.346.663.888.663 1.625v3.9c.009.095.013.195.013.299l.026.299c.009.086.018.16.026.221h-1.04a6.026 6.026 0 0 1-.078-.507 7.983 7.983 0 0 1-.026-.585l-.013-.195Zm-2.015.39c.356 0 .659-.074.91-.221.252-.148.455-.317.611-.507.156-.2.269-.39.338-.572.07-.191.104-.325.104-.403v-.494h-1.144c-.684 0-1.183.099-1.495.299-.303.19-.455.481-.455.871 0 .303.091.55.273.741.182.19.468.286.858.286Zm8.104-4.966c-.52 0-.945.121-1.274.364a2.649 2.649 0 0 0-.78.91v4.589h-1.144v-6.747h1.079l.039 1.209h.026c.182-.39.468-.711.858-.962.39-.252.884-.377 1.482-.377.667 0 1.196.177 1.586.533.399.346.598.884.598 1.612v4.732h-1.144v-4.615c0-.468-.117-.793-.351-.975-.234-.182-.559-.273-.975-.273Zm9.115 4.537a2.706 2.706 0 0 1-.871 1.066c-.372.26-.845.39-1.417.39-.407 0-.793-.07-1.157-.208a2.796 2.796 0 0 1-.962-.65 3.278 3.278 0 0 1-.663-1.092c-.164-.442-.247-.962-.247-1.56 0-.59.083-1.101.247-1.534.165-.442.386-.806.663-1.092.278-.295.598-.512.962-.65a3.143 3.143 0 0 1 1.17-.221c.512 0 .954.108 1.326.325.373.208.672.507.897.897v-3.666h1.144v9.321h-1.001l-.091-1.326Zm-2.119.429c.295 0 .568-.048.819-.143a1.73 1.73 0 0 0 .65-.468 2.13 2.13 0 0 0 .442-.78c.113-.312.169-.676.169-1.092 0-.416-.056-.78-.169-1.092a2.13 2.13 0 0 0-.442-.78 1.606 1.606 0 0 0-.65-.455 2.119 2.119 0 0 0-.819-.156c-.598 0-1.087.212-1.469.637-.372.416-.559 1.031-.559 1.846 0 .823.191 1.443.572 1.859.382.416.867.624 1.456.624Zm11.328 1.027c-.52 0-.971-.122-1.352-.364a2.65 2.65 0 0 1-.897-1.001v3.536h-1.144v-9.048h1.001l.117 1.313c.225-.442.529-.793.91-1.053.381-.26.854-.39 1.417-.39.39 0 .763.073 1.118.221.364.138.68.355.949.65.277.286.494.65.65 1.092.165.433.247.944.247 1.534 0 .598-.082 1.118-.247 1.56a3.278 3.278 0 0 1-.663 1.092 2.786 2.786 0 0 1-.962.65 3.2 3.2 0 0 1-1.144.208Zm-.169-1.027c.598 0 1.079-.204 1.443-.611.373-.416.559-1.04.559-1.872 0-.815-.186-1.43-.559-1.846-.364-.425-.845-.637-1.443-.637-.295 0-.572.052-.832.156-.251.104-.472.26-.663.468a2.263 2.263 0 0 0-.442.767 3.457 3.457 0 0 0-.156 1.092c0 .416.052.78.156 1.092.113.312.26.572.442.78.191.208.412.364.663.468.26.095.537.143.832.143Zm7.769-4.966c-.52 0-.945.121-1.274.364a2.649 2.649 0 0 0-.78.91v4.589h-1.144v-9.321h1.144v2.574l-.026 1.209h.026c.182-.382.468-.698.858-.949.39-.26.884-.39 1.482-.39.667 0 1.196.177 1.586.533.398.346.598.884.598 1.612v4.732h-1.144v-4.615c0-.468-.117-.793-.351-.975-.234-.182-.559-.273-.975-.273Zm7.048 5.993c-.459 0-.888-.078-1.287-.234a3.017 3.017 0 0 1-1.04-.676 3.31 3.31 0 0 1-.676-1.105c-.164-.434-.247-.932-.247-1.495 0-.555.083-1.049.247-1.482a3.13 3.13 0 0 1 .676-1.105c.295-.295.642-.52 1.04-.676a3.503 3.503 0 0 1 1.287-.234c.468 0 .902.078 1.3.234a2.86 2.86 0 0 1 1.027.676c.295.294.525.663.689 1.105.174.433.26.927.26 1.482 0 .563-.086 1.061-.26 1.495a3.182 3.182 0 0 1-.689 1.105c-.286.294-.628.52-1.027.676a3.534 3.534 0 0 1-1.3.234Zm0-1.027c.304 0 .581-.048.832-.143a1.9 1.9 0 0 0 .676-.455 2.13 2.13 0 0 0 .442-.78c.104-.312.156-.681.156-1.105 0-.425-.052-.793-.156-1.105a2.003 2.003 0 0 0-.442-.767 1.691 1.691 0 0 0-.676-.455 2.152 2.152 0 0 0-.832-.156c-.303 0-.58.052-.832.156a1.719 1.719 0 0 0-.663.455 2.107 2.107 0 0 0-.429.767c-.104.312-.156.68-.156 1.105 0 .424.052.793.156 1.105.104.312.247.572.429.78.191.199.412.351.663.455.252.095.529.143.832.143Zm7.869-4.966c-.52 0-.945.121-1.274.364a2.649 2.649 0 0 0-.78.91v4.589H325.3v-6.747h1.079l.039 1.209h.026c.182-.39.468-.711.858-.962.39-.252.884-.377 1.482-.377.667 0 1.196.177 1.586.533.398.346.598.884.598 1.612v4.732h-1.144v-4.615c0-.468-.117-.793-.351-.975-.234-.182-.559-.273-.975-.273Zm9.648 5.291a3.605 3.605 0 0 1-.351.221 3.982 3.982 0 0 1-.507.234 4.358 4.358 0 0 1-.676.169 4.183 4.183 0 0 1-.845.078c-1.135 0-1.997-.308-2.587-.923-.589-.616-.884-1.478-.884-2.587 0-.546.078-1.036.234-1.469.165-.434.39-.798.676-1.092a2.804 2.804 0 0 1 1.014-.689c.39-.165.815-.247 1.274-.247.486 0 .919.082 1.3.247.382.164.694.407.936.728.252.32.421.719.507 1.196.096.468.096 1.014 0 1.638h-4.758c.044.728.26 1.274.65 1.638.39.355.971.533 1.742.533.52 0 .967-.074 1.339-.221.373-.148.685-.308.936-.481v1.027Zm-2.678-5.291c-.494 0-.918.151-1.274.455-.355.303-.58.762-.676 1.378h3.627c.035-.624-.108-1.084-.429-1.378-.32-.304-.736-.455-1.248-.455Zm10.257 0c-.52 0-.944.121-1.274.364a2.67 2.67 0 0 0-.78.91v4.589h-1.144v-6.747h1.079l.039 1.209h.026c.182-.39.468-.711.858-.962.39-.252.884-.377 1.482-.377.668 0 1.196.177 1.586.533.399.346.598.884.598 1.612v4.732h-1.144v-4.615c0-.468-.117-.793-.351-.975-.234-.182-.559-.273-.975-.273Zm8.609 4.654a2.424 2.424 0 0 1-.845.962c-.373.251-.862.377-1.469.377-.624 0-1.131-.174-1.521-.52-.381-.356-.572-.902-.572-1.638v-4.719h1.157v4.719c0 .225.03.411.091.559a.961.961 0 0 0 .663.52c.156.034.325.052.507.052.503 0 .906-.113 1.209-.338.303-.226.563-.533.78-.923v-4.589h1.144v6.747h-1.014l-.104-1.209h-.026Zm4.165 1.209h-1.144v-6.747h1.001l.117 1.209h.026c.182-.382.455-.698.819-.949.364-.26.841-.39 1.43-.39.52 0 .945.125 1.274.377.338.242.564.611.676 1.105.191-.46.481-.819.871-1.079.399-.269.88-.403 1.443-.403.624 0 1.118.177 1.482.533.364.346.546.884.546 1.612v4.732h-1.157v-4.589c0-.442-.108-.763-.325-.962-.216-.208-.511-.312-.884-.312-.251 0-.472.039-.663.117-.19.069-.359.169-.507.299a2.58 2.58 0 0 0-.403.455 5.748 5.748 0 0 0-.338.546v4.446h-1.144v-4.719c0-.434-.108-.733-.325-.897-.216-.165-.511-.247-.884-.247-.242 0-.459.03-.65.091-.19.06-.364.147-.52.26a2.048 2.048 0 0 0-.403.416 3.851 3.851 0 0 0-.338.52v4.576Zm16.742-3.38c0 .598-.082 1.118-.247 1.56a3.278 3.278 0 0 1-.663 1.092 2.786 2.786 0 0 1-.962.65 3.2 3.2 0 0 1-1.144.208c-.52 0-.975-.122-1.365-.364a2.67 2.67 0 0 1-.91-1.04l-.039 1.274h-1.079v-9.321h1.144l-.026 3.887c.225-.442.529-.793.91-1.053.381-.26.854-.39 1.417-.39.39 0 .763.073 1.118.221.364.138.68.355.949.65.277.286.494.65.65 1.092.165.433.247.944.247 1.534Zm-3.185 2.483c.598 0 1.079-.204 1.443-.611.373-.416.559-1.04.559-1.872 0-.815-.186-1.43-.559-1.846-.364-.425-.845-.637-1.443-.637-.295 0-.572.052-.832.156-.251.104-.472.26-.663.468a2.263 2.263 0 0 0-.442.767 3.457 3.457 0 0 0-.156 1.092c0 .416.052.78.156 1.092.113.312.26.572.442.78.191.208.412.364.663.468.26.095.537.143.832.143Zm9.94.325a3.605 3.605 0 0 1-.351.221 4.116 4.116 0 0 1-.507.234 4.387 4.387 0 0 1-.676.169 4.183 4.183 0 0 1-.845.078c-1.135 0-1.998-.308-2.587-.923-.589-.616-.884-1.478-.884-2.587 0-.546.078-1.036.234-1.469.165-.434.39-.798.676-1.092a2.804 2.804 0 0 1 1.014-.689c.39-.165.815-.247 1.274-.247.485 0 .919.082 1.3.247.381.164.693.407.936.728.251.32.42.719.507 1.196.095.468.095 1.014 0 1.638h-4.758c.043.728.26 1.274.65 1.638.39.355.971.533 1.742.533.52 0 .966-.074 1.339-.221.373-.148.685-.308.936-.481v1.027Zm-2.678-5.291c-.494 0-.919.151-1.274.455-.355.303-.581.762-.676 1.378h3.627c.035-.624-.108-1.084-.429-1.378-.321-.304-.737-.455-1.248-.455Zm7.543.26a3.509 3.509 0 0 0-1.326.377c-.39.199-.68.511-.871.936v4.29h-1.144v-6.747h1.001l.117 1.469h.026a3.05 3.05 0 0 1 .819-1.04c.364-.304.824-.49 1.378-.559v1.274Z"/><rect width="140" height="69" x="262" y="420" fill="#D3E3FC" rx="5"/><path fill="#18123D" d="M311.429 442.346h1.82l3.341 9.321h-1.3l-.962-2.665h-4.121l-.949 2.665h-1.144l3.315-9.321Zm2.509 5.551-1.664-4.641-1.664 4.641h3.328Zm6.638 3.9c-.52 0-.993-.078-1.417-.234a3.108 3.108 0 0 1-1.066-.689 3.042 3.042 0 0 1-.676-1.105 4.365 4.365 0 0 1-.234-1.482c0-.546.078-1.036.234-1.469.164-.434.394-.798.689-1.092a2.834 2.834 0 0 1 1.079-.689 3.955 3.955 0 0 1 1.443-.247c.416 0 .797.047 1.144.143.346.086.632.216.858.39v1.027a3.03 3.03 0 0 0-.936-.403 3.835 3.835 0 0 0-1.053-.143c-.789 0-1.37.203-1.742.611-.364.407-.546 1.031-.546 1.872 0 .84.177 1.464.533 1.872.355.407.918.611 1.69.611.407 0 .78-.048 1.118-.143.346-.104.658-.234.936-.39v1.027a3.984 3.984 0 0 1-2.054.533Zm6.813-.273a2.077 2.077 0 0 1-.533.195 2.938 2.938 0 0 1-.689.078c-.329 0-.611-.048-.845-.143a1.649 1.649 0 0 1-.559-.377 1.626 1.626 0 0 1-.325-.546 2.292 2.292 0 0 1-.091-.637v-4.199h-.806v-.975h.806v-1.417h1.144v1.417h1.963v.975h-1.963v4.056c0 .286.07.494.208.624.148.13.403.195.767.195.338 0 .646-.096.923-.286v1.04Zm2.108-7.592c-.234 0-.421-.07-.559-.208a.75.75 0 0 1-.208-.533c0-.208.069-.386.208-.533.138-.148.325-.221.559-.221.225 0 .403.073.533.221.13.147.195.325.195.533a.779.779 0 0 1-.195.533c-.13.138-.308.208-.533.208Zm.559.988v6.747h-1.144v-6.747h1.144Zm5.218 6.747h-1.846l-2.314-6.747h1.235l2.054 6.136 2.041-6.136h1.144l-2.314 6.747Zm7.263-1.287a3.92 3.92 0 0 1-.299.494 2.279 2.279 0 0 1-.455.455 2.318 2.318 0 0 1-.65.338c-.242.086-.528.13-.858.13-.606 0-1.096-.169-1.469-.507-.372-.347-.559-.841-.559-1.482 0-.737.256-1.279.767-1.625.52-.347 1.257-.52 2.21-.52h1.261v-.559c0-.468-.121-.802-.364-1.001-.242-.2-.658-.299-1.248-.299-.416 0-.81.069-1.183.208a5.61 5.61 0 0 0-1.001.455v-1.027a4.99 4.99 0 0 1 .975-.429 4.046 4.046 0 0 1 1.365-.221c.85 0 1.495.177 1.937.533.442.346.663.888.663 1.625v3.9c.009.095.013.195.013.299l.026.299c.009.086.018.16.026.221h-1.04a6.026 6.026 0 0 1-.078-.507 7.983 7.983 0 0 1-.026-.585l-.013-.195Zm-2.015.39c.356 0 .659-.074.91-.221.252-.148.455-.317.611-.507.156-.2.269-.39.338-.572.07-.191.104-.325.104-.403v-.494h-1.144c-.684 0-1.183.099-1.495.299-.303.19-.455.481-.455.871 0 .303.091.55.273.741.182.19.468.286.858.286Zm8.208.754a2.077 2.077 0 0 1-.533.195 2.938 2.938 0 0 1-.689.078c-.329 0-.611-.048-.845-.143a1.649 1.649 0 0 1-.559-.377 1.626 1.626 0 0 1-.325-.546 2.292 2.292 0 0 1-.091-.637v-4.199h-.806v-.975h.806v-1.417h1.144v1.417h1.963v.975h-1.963v4.056c0 .286.07.494.208.624.148.13.403.195.767.195.338 0 .646-.096.923-.286v1.04Zm6.828-.429a3.605 3.605 0 0 1-.351.221 4.116 4.116 0 0 1-.507.234 4.387 4.387 0 0 1-.676.169 4.183 4.183 0 0 1-.845.078c-1.135 0-1.998-.308-2.587-.923-.589-.616-.884-1.478-.884-2.587 0-.546.078-1.036.234-1.469.165-.434.39-.798.676-1.092a2.804 2.804 0 0 1 1.014-.689c.39-.165.815-.247 1.274-.247.485 0 .919.082 1.3.247.381.164.693.407.936.728.251.32.42.719.507 1.196.095.468.095 1.014 0 1.638h-4.758c.043.728.26 1.274.65 1.638.39.355.971.533 1.742.533.52 0 .966-.074 1.339-.221.373-.148.685-.308.936-.481v1.027Zm-2.678-5.291c-.494 0-.919.151-1.274.455-.355.303-.581.762-.676 1.378h3.627c.035-.624-.108-1.084-.429-1.378-.321-.304-.737-.455-1.248-.455Zm-59.14 20.72a2.077 2.077 0 0 1-.533.195 2.938 2.938 0 0 1-.689.078c-.329 0-.611-.048-.845-.143a1.649 1.649 0 0 1-.559-.377 1.626 1.626 0 0 1-.325-.546 2.292 2.292 0 0 1-.091-.637v-4.199h-.806v-.975h.806v-1.417h1.144v1.417h1.963v.975h-1.963v4.056c0 .286.07.494.208.624.148.13.403.195.767.195.338 0 .646-.096.923-.286v1.04Zm4.721-5.72c-.52 0-.945.121-1.274.364a2.649 2.649 0 0 0-.78.91v4.589h-1.144v-9.321h1.144v2.574l-.026 1.209h.026c.182-.382.468-.698.858-.949.39-.26.884-.39 1.482-.39.667 0 1.196.177 1.586.533.398.346.598.884.598 1.612v4.732h-1.144v-4.615c0-.468-.117-.793-.351-.975-.234-.182-.559-.273-.975-.273Zm9.648 5.291a3.605 3.605 0 0 1-.351.221 3.982 3.982 0 0 1-.507.234 4.358 4.358 0 0 1-.676.169 4.183 4.183 0 0 1-.845.078c-1.135 0-1.997-.308-2.587-.923-.589-.616-.884-1.478-.884-2.587 0-.546.078-1.036.234-1.469.165-.434.39-.798.676-1.092a2.804 2.804 0 0 1 1.014-.689c.39-.165.815-.247 1.274-.247.486 0 .919.082 1.3.247.382.164.694.407.936.728.252.32.421.719.507 1.196.096.468.096 1.014 0 1.638h-4.758c.044.728.26 1.274.65 1.638.39.355.971.533 1.742.533.52 0 .967-.074 1.339-.221.373-.148.685-.308.936-.481v1.027Zm-2.678-5.291c-.494 0-.918.151-1.274.455-.355.303-.58.762-.676 1.378h3.627c.035-.624-.108-1.084-.429-1.378-.32-.304-.736-.455-1.248-.455Zm10.361 5.72a2.077 2.077 0 0 1-.533.195 2.938 2.938 0 0 1-.689.078c-.329 0-.611-.048-.845-.143a1.649 1.649 0 0 1-.559-.377 1.626 1.626 0 0 1-.325-.546 2.292 2.292 0 0 1-.091-.637v-4.199h-.806v-.975h.806v-1.417h1.144v1.417h1.963v.975h-1.963v4.056c0 .286.07.494.208.624.148.13.403.195.767.195.338 0 .646-.096.923-.286v1.04Zm4.863-5.46a3.509 3.509 0 0 0-1.326.377c-.39.199-.68.511-.871.936v4.29h-1.144v-6.747h1.001l.117 1.469h.026a3.05 3.05 0 0 1 .819-1.04c.364-.304.824-.49 1.378-.559v1.274Zm1.98-2.132c-.234 0-.421-.07-.559-.208a.75.75 0 0 1-.208-.533c0-.208.069-.386.208-.533.138-.148.325-.221.559-.221.225 0 .403.073.533.221.13.147.195.325.195.533a.779.779 0 0 1-.195.533c-.13.138-.308.208-.533.208Zm.559.988v6.747h-1.144v-6.747h1.144Zm5.817 5.46c-.078.156-.178.32-.299.494a2.306 2.306 0 0 1-.455.455 2.332 2.332 0 0 1-.65.338c-.243.086-.529.13-.858.13-.607 0-1.097-.169-1.469-.507-.373-.347-.559-.841-.559-1.482 0-.737.255-1.279.767-1.625.52-.347 1.256-.52 2.21-.52h1.261v-.559c0-.468-.122-.802-.364-1.001-.243-.2-.659-.299-1.248-.299-.416 0-.811.069-1.183.208-.373.13-.707.281-1.001.455v-1.027c.242-.148.567-.291.975-.429a4.046 4.046 0 0 1 1.365-.221c.849 0 1.495.177 1.937.533.442.346.663.888.663 1.625v3.9c.008.095.013.195.013.299.008.104.017.203.026.299.008.086.017.16.026.221h-1.04a6.026 6.026 0 0 1-.078-.507 7.46 7.46 0 0 1-.026-.585l-.013-.195Zm-2.015.39c.355 0 .658-.074.91-.221.251-.148.455-.317.611-.507.156-.2.268-.39.338-.572.069-.191.104-.325.104-.403v-.494h-1.144c-.685 0-1.183.099-1.495.299-.304.19-.455.481-.455.871 0 .303.091.55.273.741.182.19.468.286.858.286Zm6.049-8.424v9.321h-1.144v-9.321h1.144Zm8.115 9.451c-.52 0-.971-.122-1.352-.364a2.65 2.65 0 0 1-.897-1.001v3.536h-1.144v-9.048h1.001l.117 1.313c.225-.442.528-.793.91-1.053.381-.26.853-.39 1.417-.39.39 0 .762.073 1.118.221.364.138.68.355.949.65.277.286.494.65.65 1.092.164.433.247.944.247 1.534 0 .598-.083 1.118-.247 1.56a3.278 3.278 0 0 1-.663 1.092 2.796 2.796 0 0 1-.962.65 3.203 3.203 0 0 1-1.144.208Zm-.169-1.027c.598 0 1.079-.204 1.443-.611.372-.416.559-1.04.559-1.872 0-.815-.187-1.43-.559-1.846-.364-.425-.845-.637-1.443-.637-.295 0-.572.052-.832.156-.252.104-.473.26-.663.468-.182.199-.33.455-.442.767a3.457 3.457 0 0 0-.156 1.092c0 .416.052.78.156 1.092.112.312.26.572.442.78.19.208.411.364.663.468.26.095.537.143.832.143Zm9.939.325a3.605 3.605 0 0 1-.351.221 3.982 3.982 0 0 1-.507.234 4.358 4.358 0 0 1-.676.169 4.183 4.183 0 0 1-.845.078c-1.135 0-1.997-.308-2.587-.923-.589-.616-.884-1.478-.884-2.587 0-.546.078-1.036.234-1.469.165-.434.39-.798.676-1.092a2.804 2.804 0 0 1 1.014-.689c.39-.165.815-.247 1.274-.247.486 0 .919.082 1.3.247.382.164.694.407.936.728.252.32.421.719.507 1.196.096.468.096 1.014 0 1.638h-4.758c.044.728.26 1.274.65 1.638.39.355.971.533 1.742.533.52 0 .967-.074 1.339-.221.373-.148.685-.308.936-.481v1.027Zm-2.678-5.291c-.494 0-.918.151-1.274.455-.355.303-.58.762-.676 1.378h3.627c.035-.624-.108-1.084-.429-1.378-.32-.304-.736-.455-1.248-.455Zm7.544.26a3.509 3.509 0 0 0-1.326.377c-.39.199-.68.511-.871.936v4.29h-1.144v-6.747h1.001l.117 1.469h.026a3.05 3.05 0 0 1 .819-1.04c.364-.304.823-.49 1.378-.559v1.274Zm1.979-2.132c-.234 0-.42-.07-.559-.208a.754.754 0 0 1-.208-.533c0-.208.07-.386.208-.533.139-.148.325-.221.559-.221.226 0 .403.073.533.221.13.147.195.325.195.533a.779.779 0 0 1-.195.533c-.13.138-.307.208-.533.208Zm.559.988v6.747h-1.144v-6.747h1.144Zm4.634 6.877c-.459 0-.888-.078-1.287-.234a3.017 3.017 0 0 1-1.04-.676 3.31 3.31 0 0 1-.676-1.105c-.164-.434-.247-.932-.247-1.495 0-.555.083-1.049.247-1.482a3.13 3.13 0 0 1 .676-1.105c.295-.295.642-.52 1.04-.676a3.503 3.503 0 0 1 1.287-.234c.468 0 .902.078 1.3.234a2.86 2.86 0 0 1 1.027.676c.295.294.525.663.689 1.105.174.433.26.927.26 1.482 0 .563-.086 1.061-.26 1.495a3.182 3.182 0 0 1-.689 1.105c-.286.294-.628.52-1.027.676a3.534 3.534 0 0 1-1.3.234Zm0-1.027c.304 0 .581-.048.832-.143a1.9 1.9 0 0 0 .676-.455 2.13 2.13 0 0 0 .442-.78c.104-.312.156-.681.156-1.105 0-.425-.052-.793-.156-1.105a2.003 2.003 0 0 0-.442-.767 1.691 1.691 0 0 0-.676-.455 2.152 2.152 0 0 0-.832-.156c-.303 0-.58.052-.832.156a1.719 1.719 0 0 0-.663.455 2.107 2.107 0 0 0-.429.767c-.104.312-.156.68-.156 1.105 0 .424.052.793.156 1.105.104.312.247.572.429.78.191.199.412.351.663.455.252.095.529.143.832.143Zm9.507-.429a2.715 2.715 0 0 1-.871 1.066c-.373.26-.845.39-1.417.39-.408 0-.793-.07-1.157-.208a2.786 2.786 0 0 1-.962-.65 3.246 3.246 0 0 1-.663-1.092c-.165-.442-.247-.962-.247-1.56 0-.59.082-1.101.247-1.534.164-.442.385-.806.663-1.092.277-.295.598-.512.962-.65a3.135 3.135 0 0 1 1.17-.221c.511 0 .953.108 1.326.325.372.208.671.507.897.897v-3.666h1.144v9.321h-1.001l-.091-1.326Zm-2.119.429c.294 0 .567-.048.819-.143.251-.104.468-.26.65-.468.19-.208.338-.468.442-.78.112-.312.169-.676.169-1.092 0-.416-.057-.78-.169-1.092a2.145 2.145 0 0 0-.442-.78 1.613 1.613 0 0 0-.65-.455 2.126 2.126 0 0 0-.819-.156c-.598 0-1.088.212-1.469.637-.373.416-.559 1.031-.559 1.846 0 .823.19 1.443.572 1.859.381.416.866.624 1.456.624Z"/><path fill="#262626" d="M437.967 88.25v-3.835c0-2.892-.357-3.738-1.462-6.142l-5.785-12.61h-4.095l7.41 16.12v6.467h3.932Zm2.568-11.668 4.81-10.92h-3.997l-4.81 10.92h3.997Zm41.08 11.993c1.82 0 3.315-.845 4.355-2.438l.195 2.113h3.575V65.663h-3.867v8.157c-.975-1.463-2.405-2.242-4.095-2.242-3.738 0-6.338 3.152-6.338 8.612 0 5.395 2.535 8.385 6.175 8.385Zm23.758-1.43v-3.152c-1.203.812-3.218 1.527-5.103 1.527-2.828 0-3.9-1.332-4.063-4.063h9.328V79.41c0-5.688-2.502-7.832-6.37-7.832-4.713 0-6.955 3.607-6.955 8.547 0 5.688 2.795 8.45 7.735 8.45 2.47 0 4.29-.65 5.428-1.43ZM456.72 77.102c0-3.965-2.015-5.46-6.11-5.46-2.535 0-4.582 1.073-5.752 1.918v3.348c1.235-1.008 3.12-2.178 5.297-2.178 1.852 0 2.697.65 2.697 2.405v1.04h-.617c-5.915 0-8.547 1.918-8.547 5.33 0 3.152 2.015 4.973 5.005 4.973 2.274 0 3.25-.748 3.997-1.528h.162c.033.422.163.975.293 1.3h3.77a41.038 41.038 0 0 1-.195-3.997V77.102Zm7.02-.585c.715-.877 1.852-1.624 3.25-1.624 1.365 0 1.982.584 1.982 1.82V88.25h3.868V76.322c0-3.25-1.3-4.68-4.453-4.68-2.307 0-3.672.846-4.452 1.626h-.195l-.098-1.366h-3.77V88.25h3.868V76.517Zm53.527 11.733h4.356l-5.33-8.418 4.614-7.93h-3.867l-2.795 4.94-3.12-4.94h-4.355l4.94 7.833-5.135 8.515h3.932l3.283-5.525 3.477 5.525Zm-34.514-13.617c2.08 0 3.12 1.657 3.12 5.427 0 3.803-1.105 5.46-3.283 5.46-2.113 0-3.153-1.625-3.153-5.33 0-3.868 1.105-5.558 3.316-5.558v.001Zm16.347 0c1.918 0 2.503 1.592 2.503 3.64v.325h-5.395c.097-2.6 1.04-3.965 2.892-3.965Zm-46.247 9.717c-.488.715-1.398 1.3-2.763 1.3-1.625 0-2.438-.942-2.438-2.372 0-1.886 1.333-2.535 4.648-2.535h.552v3.607h.001Z"/><path fill="#B4C9FF" d="M559.25 77c0-8.284-6.716-15-15-15-8.284 0-15 6.716-15 15 0 8.284 6.716 15 15 15 8.284 0 15-6.716 15-15Z"/><path fill="#fff" d="M550.812 77a6.561 6.561 0 0 0-11.203-4.64 6.561 6.561 0 0 0 4.64 11.203A6.564 6.564 0 0 0 550.812 77Z"/><path fill="url(#b)" fill-rule="evenodd" d="M544.058 62.001c-8.196.103-14.808 6.779-14.808 14.999a14.94 14.94 0 0 0 3.641 9.797l1.808-11.367c.361-2.27.542-3.405 1.07-4.327a5.79 5.79 0 0 1 1.816-1.944c.883-.59 2.003-.847 4.244-1.362l4.053-.932c1.141-.262 1.712-.393 2.127-.232.347.135.63.399.788.736.189.404.097.982-.087 2.138l-1.011 6.354v.002c-.217 1.36-.325 2.041-.641 2.594a3.477 3.477 0 0 1-1.09 1.166c-.53.354-1.202.508-2.546.817l-3.102.714-.528 3.337c-.185 1.158-.277 1.736-.088 2.14.158.338.441.602.789.737.415.16.986.03 2.128-.234l4.052-.933c2.24-.516 3.36-.774 4.243-1.364a5.793 5.793 0 0 0 1.816-1.945c.527-.921.707-2.056 1.068-4.327l1.585-9.987c.082-.514.155-.973.215-1.385A14.966 14.966 0 0 0 544.442 62h-.384v.001Z" clip-rule="evenodd"/><path fill="#B4C9FF" fill-rule="evenodd" d="M541.826 62.195C534.695 63.353 529.25 69.54 529.25 77a14.943 14.943 0 0 0 3.65 9.807c.081-.55.166-1.1.256-1.65l.038-.236.062-.39h-.005l1.448-9.101c.361-2.27.542-3.406 1.07-4.327a5.79 5.79 0 0 1 1.816-1.945c.818-.545 1.839-.806 3.765-1.25l.476-.11v-5.604.001Zm2.599 29.804h-.35.35Z" clip-rule="evenodd"/><path fill="url(#c)" fill-rule="evenodd" d="M544.078 92a14.963 14.963 0 0 1-11.178-5.193c.06-.412.133-.87.214-1.385l1.586-9.987c.361-2.27.541-3.405 1.068-4.327a5.805 5.805 0 0 1 1.815-1.945c.883-.59 2.003-.847 4.243-1.363l4.052-.934c1.142-.263 1.714-.394 2.129-.233.348.135.63.398.789.736.189.404.097.983-.088 2.14l-.528 3.337-3.102.714c-1.344.309-2.016.463-2.546.817a3.48 3.48 0 0 0-1.09 1.167c-.316.552-.424 1.233-.641 2.593v.003l-1.011 6.353c-.184 1.156-.276 1.735-.087 2.138.158.338.44.601.788.736.415.162.986.03 2.127-.232l4.053-.932c2.24-.515 3.361-.773 4.244-1.361a5.79 5.79 0 0 0 1.816-1.945c.528-.921.708-2.057 1.07-4.327l1.808-11.366A14.943 14.943 0 0 1 559.25 77c0 8.227-6.623 14.907-14.828 15h-.344Z" clip-rule="evenodd"/><path fill="#B4C9FF" fill-rule="evenodd" d="M544.258 62h-.016l-.165.001h.346l-.165-.001Zm11.342 5.193A14.943 14.943 0 0 1 559.25 77c0 7.46-5.445 13.647-12.576 14.805v-5.602l.091-.021.386-.09c1.925-.444 2.946-.705 3.764-1.25a5.808 5.808 0 0 0 1.817-1.945c.527-.921.708-2.057 1.069-4.327l1.448-9.1h-.005l.062-.39.037-.235.064-.4c.073-.46.138-.876.193-1.252Z" clip-rule="evenodd"/><path fill="#262626" fill-rule="evenodd" d="M575.695 88.575c2.437 0 4.095-.877 5.102-1.56v-3.152c-1.3.942-2.73 1.657-4.81 1.657-3.575 0-5.265-2.892-5.265-8.547 0-5.818 1.625-8.58 5.46-8.58 1.788 0 3.445.78 4.615 1.527v-3.152c-1.04-.748-2.73-1.43-4.81-1.43-6.012 0-9.262 4.42-9.262 11.634 0 7.41 3.38 11.603 8.97 11.603Zm11.575-22.913h-3.867V88.25h3.867V65.662Zm2.592 14.43c0-5.492 2.958-8.514 7.215-8.514 4.258 0 7.215 3.022 7.215 8.482 0 5.492-2.957 8.515-7.215 8.515-4.257 0-7.215-3.023-7.215-8.482v-.001Zm3.998 0c0 3.77 1.072 5.428 3.217 5.428s3.218-1.657 3.218-5.46c0-3.77-1.073-5.427-3.218-5.427s-3.217 1.657-3.217 5.46v-.001Zm21.967 3.543c-.715.877-1.853 1.625-3.25 1.625-1.365 0-1.983-.585-1.983-1.82V71.902h-3.867V83.83c0 3.25 1.3 4.68 4.452 4.68 2.308 0 3.673-.845 4.453-1.625h.195l.097 1.365h3.77V71.902h-3.867v11.733Zm17.002 2.502c-1.04 1.593-2.535 2.438-4.355 2.438-3.64 0-6.175-2.99-6.175-8.385 0-5.46 2.6-8.613 6.337-8.613 1.69 0 3.12.78 4.095 2.243v-8.158h3.868V88.25h-3.575l-.195-2.113Zm-.098-6.077c0-3.77-1.04-5.427-3.12-5.427-2.21 0-3.315 1.69-3.315 5.557 0 3.705 1.04 5.33 3.153 5.33 2.177 0 3.282-1.657 3.282-5.46Z" clip-rule="evenodd"/><defs><radialGradient id="b" cx="0" cy="0" r="1" gradientTransform="matrix(4.1246 18.7676 -38.3068 8.4188 541.315 60.766)" gradientUnits="userSpaceOnUse"><stop offset=".274" stop-color="#B3C8FF"/><stop offset=".472" stop-color="#9EB9FF"/><stop offset=".768" stop-color="#6F97FF"/><stop offset="1" stop-color="#5282FF"/></radialGradient><radialGradient id="c" cx="0" cy="0" r="1" gradientTransform="matrix(-4.1246 -18.7676 38.3068 -8.4188 547.185 93.235)" gradientUnits="userSpaceOnUse"><stop offset=".274" stop-color="#B3C8FF"/><stop offset=".472" stop-color="#9EB9FF"/><stop offset=".768" stop-color="#6F97FF"/><stop offset="1" stop-color="#5282FF"/></radialGradient><filter id="a" width="489" height="534" x="193" y="24" color-interpolation-filters="sRGB" filterUnits="userSpaceOnUse"><feFlood flood-opacity="0" result="BackgroundImageFix"/><feColorMatrix in="SourceAlpha" result="hardAlpha" values="0 0 0 0 0 0 0 0 0 0 0 0 0 0 0 0 0 0 127 0"/><feOffset/><feGaussianBlur stdDeviation="4"/><feColorMatrix values="0 0 0 0 0.321569 0 0 0 0 0.509804 0 0 0 0 1 0 0 0 0.2 0"/><feBlend in2="BackgroundImageFix" result="effect1_dropShadow_1172_194"/><feBlend in="SourceGraphic" in2="effect1_dropShadow_1172_194" result="shape"/></filter></defs></svg>