<svg xmlns="http://www.w3.org/2000/svg" width="1001" height="760" fill="none" viewBox="0 0 1001 760">
    <path fill="#fff" d="M11 174h979c2.8 0 5 2.2 5 5v319c0 2.8-2.2 5-5 5H11c-2.8 0-5-2.2-5-5V179c0-2.8 2.2-5 5-5Z"/>
    <path fill="#DAF4F2" stroke="#5282FF" stroke-width="2" d="M43 208h172c2.2 0 4 1.8 4 4v102c0 2.2-1.8 4-4 4H43c-2.2 0-4-1.8-4-4V212c0-2.2 1.8-4 4-4Z"/>
    <path fill="#000" fill-opacity=".85" d="M77.9 261.4c-.7.1-1.4.3-2 .6-.6.3-1 .8-1.3 1.4v6.6h-1.8v-10.4h1.5l.2 2.3c.3-.6.7-1.1 1.3-1.6.6-.5 1.3-.8 2.1-.9v2Zm8.8 6.7c-.3.6-.7 1.1-1.3 1.5-.6.4-1.3.6-2.3.6-1 0-1.7-.3-2.3-.8-.6-.5-.9-1.4-.9-2.5v-7.3h1.8v7.3c0 .3 0 .6.1.9.1.2.2.4.4.5l.6.3c.2.1.5.1.8.1.8 0 1.4-.2 1.9-.5s.9-.8 1.2-1.4v-7.1h1.8V270h-1.6l-.2-1.9Zm4.4-5h4.8v1.6h-4.8v-1.6Zm12.2 7.1c-.8 0-1.5-.1-2.2-.4-.6-.3-1.2-.6-1.6-1.1-.5-.5-.8-1-1-1.7-.2-.7-.4-1.4-.4-2.3 0-.8.1-1.6.4-2.3.3-.7.6-1.2 1.1-1.7.5-.5 1-.8 1.7-1.1.7-.3 1.4-.4 2.2-.4.6 0 1.2.1 1.8.2.5.1 1 .3 1.3.6v1.6c-.4-.3-.9-.5-1.4-.6-.5-.1-1.1-.2-1.6-.2-1.2 0-2.1.3-2.7.9-.6.6-.8 1.6-.8 2.9 0 1.3.3 2.3.8 2.9.5.6 1.4.9 2.6.9.6 0 1.2-.1 1.7-.2.5-.2 1-.4 1.4-.6v1.6c-.4.2-.8.4-1.4.6-.6.3-1.2.4-1.9.4Zm13.5-1.1c-.1.1-.3.2-.5.3-.2.1-.5.2-.8.4-.3.1-.7.2-1 .3-.4.1-.8.1-1.3.1-1.7 0-3.1-.5-4-1.4-.9-.9-1.4-2.3-1.4-4 0-.8.1-1.6.4-2.3.3-.7.6-1.2 1-1.7s1-.8 1.6-1.1c.6-.3 1.3-.4 2-.4s1.4.1 2 .4c.6.3 1.1.6 1.4 1.1.4.5.6 1.1.8 1.8.1.7.1 1.6 0 2.5h-7.3c.1 1.1.4 2 1 2.5s1.5.8 2.7.8c.8 0 1.5-.1 2.1-.3.6-.2 1.1-.5 1.4-.7l-.1 1.7Zm-4.1-8.1c-.8 0-1.4.2-2 .7-.5.5-.9 1.2-1 2.1h5.6c.1-1-.2-1.7-.7-2.1-.5-.5-1.1-.7-1.9-.7Zm11.4 0c-.8 0-1.5.2-2 .6-.5.4-.9.8-1.2 1.4v7.1h-1.8v-10.4h1.7l.1 1.9c.3-.6.7-1.1 1.3-1.5.6-.4 1.4-.6 2.3-.6 1 0 1.8.3 2.4.8.6.5.9 1.4.9 2.5v7.3H126V263c0-.7-.2-1.2-.5-1.5-.3-.3-.8-.5-1.4-.5Zm11.7 8.8c-.2.1-.5.2-.8.3-.3.1-.7.1-1.1.1-.5 0-.9-.1-1.3-.2-.3-.1-.6-.3-.9-.6-.2-.3-.4-.5-.5-.8-.1-.3-.1-.6-.1-1v-6.5h-1.2v-1.5h1.2v-2.2h1.8v2.2h3v1.5h-3v6.2c0 .4.1.8.3 1 .2.2.6.3 1.2.3.5 0 1-.1 1.4-.4v1.6Zm7.4-8.4c-.7.1-1.4.3-2 .6-.6.3-1 .8-1.3 1.4v6.6h-1.8v-10.4h1.5l.2 2.3c.3-.6.7-1.1 1.3-1.6.6-.5 1.3-.8 2.1-.9v2Zm8.1 6.6c-.1.2-.3.5-.5.8-.2.3-.4.5-.7.7-.3.2-.6.4-1 .5-.4.1-.8.2-1.3.2-.9 0-1.7-.3-2.3-.8-.6-.5-.9-1.3-.9-2.3 0-1.1.4-2 1.2-2.5.8-.5 1.9-.8 3.4-.8h1.9v-.8c0-.7-.2-1.2-.6-1.5-.4-.3-1-.5-1.9-.5-.6 0-1.2.1-1.8.3-.6.2-1.1.4-1.5.7v-1.6c.4-.2.9-.4 1.5-.7.6-.2 1.3-.3 2.1-.3 1.3 0 2.3.3 3 .8.7.5 1 1.4 1 2.5v7.3h-1.6c0-.2-.1-.4-.1-.8v-.9l.1-.3Zm-3.1.6c.5 0 1-.1 1.4-.3.4-.2.7-.5.9-.8.2-.3.4-.6.5-.9.1-.3.2-.5.2-.6v-.8h-1.8c-1.1 0-1.8.2-2.3.5-.5.3-.7.7-.7 1.3 0 .5.1.8.4 1.1.3.3.8.5 1.4.5Zm9.3-12.9V270h-1.8v-14.3h1.8Zm8.9 14.3h-1.8v-12.1l-4 3v-2l4.3-3.3h1.5V270Zm4.7-6.9h4.8v1.6h-4.8v-1.6Zm13.5 4.9c-.1.2-.3.5-.5.8-.2.3-.4.5-.7.7-.3.2-.6.4-1 .5-.4.1-.8.2-1.3.2-.9 0-1.7-.3-2.3-.8-.6-.5-.9-1.3-.9-2.3 0-1.1.4-2 1.2-2.5.8-.5 1.9-.8 3.4-.8h1.9v-.8c0-.7-.2-1.2-.6-1.5-.4-.3-1-.5-1.9-.5-.6 0-1.2.1-1.8.3-.6.2-1.1.4-1.5.7v-1.6c.4-.2.9-.4 1.5-.7.6-.2 1.3-.3 2.1-.3 1.3 0 2.3.3 3 .8.7.5 1 1.4 1 2.5v7.3h-1.6c0-.2-.1-.4-.1-.8v-.9l.1-.3Zm-3.1.6c.5 0 1-.1 1.4-.3.4-.2.7-.5.9-.8.2-.3.4-.6.5-.9.1-.3.2-.5.2-.6v-.8h-1.8c-1.1 0-1.8.2-2.3.5-.5.3-.7.7-.7 1.3 0 .5.1.8.4 1.1.3.3.8.5 1.4.5Z"/>
    <path fill="#FFF5CC" stroke="#5282FF" stroke-width="2" d="M786 208h172c2.2 0 4 1.8 4 4v102c0 2.2-1.8 4-4 4H786c-2.2 0-4-1.8-4-4V212c0-2.2 1.8-4 4-4Z"/>
    <path fill="#000" fill-opacity=".85" d="M821.2 259.4c-.7.1-1.4.3-2 .6-.6.3-1 .8-1.3 1.4v6.6h-1.8v-10.4h1.5l.2 2.3c.3-.6.7-1.1 1.3-1.6.6-.5 1.3-.8 2.1-.9v2Zm8.8 6.7c-.3.6-.7 1.1-1.3 1.5-.6.4-1.3.6-2.3.6-1 0-1.7-.3-2.3-.8-.6-.5-.9-1.4-.9-2.5v-7.3h1.8v7.3c0 .3 0 .6.1.9.1.2.2.4.4.5l.6.3c.2.1.5.1.8.1.8 0 1.4-.2 1.9-.5s.9-.8 1.2-1.4v-7.1h1.8V268h-1.6l-.2-1.9Zm4.4-5h4.8v1.6h-4.8v-1.6Zm12.1 7.1c-.8 0-1.5-.1-2.2-.4-.6-.3-1.2-.6-1.6-1.1-.5-.5-.8-1-1-1.7-.2-.7-.4-1.4-.4-2.3 0-.8.1-1.6.4-2.3.3-.7.6-1.2 1.1-1.7.5-.5 1-.8 1.7-1.1.7-.3 1.4-.4 2.2-.4.6 0 1.2.1 1.8.2.5.1 1 .3 1.3.6v1.6c-.4-.3-.9-.5-1.4-.6-.5-.1-1.1-.2-1.6-.2-1.2 0-2.1.3-2.7.9-.6.6-.8 1.6-.8 2.9 0 1.3.3 2.3.8 2.9.5.6 1.4.9 2.6.9.6 0 1.2-.1 1.7-.2.5-.2 1-.4 1.4-.6v1.6c-.4.2-.8.4-1.4.6-.6.3-1.2.4-1.9.4Zm13.6-1.1c-.1.1-.3.2-.5.3-.2.1-.5.2-.8.4-.3.1-.7.2-1 .3-.4.1-.8.1-1.3.1-1.7 0-3.1-.5-4-1.4-.9-.9-1.4-2.3-1.4-4 0-.8.1-1.6.4-2.3.3-.7.6-1.2 1-1.7s1-.8 1.6-1.1c.6-.3 1.3-.4 2-.4s1.4.1 2 .4c.6.3 1.1.6 1.4 1.1.4.5.6 1.1.8 1.8.1.7.1 1.6 0 2.5H853c.1 1.1.4 2 1 2.5s1.5.8 2.7.8c.8 0 1.5-.1 2.1-.3.6-.2 1.1-.5 1.4-.7v1.7h-.1ZM856 259c-.8 0-1.4.2-2 .7-.5.5-.9 1.2-1 2.1h5.6c.1-1-.2-1.7-.7-2.1-.5-.5-1.1-.7-1.9-.7Zm11.4 0c-.8 0-1.5.2-2 .6-.5.4-.9.8-1.2 1.4v7.1h-1.8v-10.4h1.7l.1 1.9c.3-.6.7-1.1 1.3-1.5.6-.4 1.4-.6 2.3-.6 1 0 1.8.3 2.4.8.6.5.9 1.4.9 2.5v7.3h-1.8V261c0-.7-.2-1.2-.5-1.5-.3-.4-.8-.5-1.4-.5Zm11.6 8.8c-.2.1-.5.2-.8.3-.3.1-.7.1-1.1.1-.5 0-.9-.1-1.3-.2-.3-.1-.6-.3-.9-.6-.2-.3-.4-.5-.5-.8-.1-.3-.1-.6-.1-1v-6.5h-1.2v-1.5h1.2v-2.2h1.8v2.2h3v1.5h-3v6.2c0 .4.1.8.3 1 .2.2.6.3 1.2.3.5 0 1-.1 1.4-.4v1.6Zm7.5-8.4c-.7.1-1.4.3-2 .6-.6.3-1 .8-1.3 1.4v6.6h-1.8v-10.4h1.5l.2 2.3c.3-.6.7-1.1 1.3-1.6.6-.5 1.3-.8 2.1-.9v2Zm8.1 6.6c-.1.2-.3.5-.5.8-.2.3-.4.5-.7.7-.3.2-.6.4-1 .5-.4.1-.8.2-1.3.2-.9 0-1.7-.3-2.3-.8-.6-.5-.9-1.3-.9-2.3 0-1.1.4-2 1.2-2.5.8-.5 1.9-.8 3.4-.8h1.9v-.8c0-.7-.2-1.2-.6-1.5-.4-.3-1-.5-1.9-.5-.6 0-1.2.1-1.8.3-.6.2-1.1.4-1.5.7v-1.6c.4-.2.9-.4 1.5-.7.6-.2 1.3-.3 2.1-.3 1.3 0 2.3.3 3 .8.7.5 1 1.4 1 2.5v7.3h-1.6c0-.2-.1-.4-.1-.8v-.9l.1-.3Zm-3.1.6c.5 0 1-.1 1.4-.3.4-.2.7-.5.9-.8.2-.3.4-.6.5-.9.1-.3.2-.5.2-.6v-.8h-1.8c-1.1 0-1.8.2-2.3.5-.5.3-.7.7-.7 1.3 0 .5.1.8.4 1.1.3.4.8.5 1.4.5Zm9.3-12.9V268H899v-14.3h1.8Zm8.8 14.3h-1.8v-12.1l-4 3v-2l4.3-3.3h1.5V268Zm4.8-6.9h4.8v1.6h-4.8v-1.6Zm12.1 7.1c-.8 0-1.5-.1-2.2-.4-.6-.3-1.2-.6-1.6-1.1-.5-.5-.8-1-1-1.7-.2-.7-.4-1.4-.4-2.3 0-.8.1-1.6.4-2.3.3-.7.6-1.2 1.1-1.7.5-.5 1-.8 1.7-1.1.7-.3 1.4-.4 2.2-.4.6 0 1.2.1 1.8.2.5.1 1 .3 1.3.6v1.6c-.4-.3-.9-.5-1.4-.6-.5-.1-1.1-.2-1.6-.2-1.2 0-2.1.3-2.7.9-.6.6-.8 1.6-.8 2.9 0 1.3.3 2.3.8 2.9.5.6 1.4.9 2.6.9.6 0 1.2-.1 1.7-.2.5-.2 1-.4 1.4-.6v1.6c-.4.2-.8.4-1.4.6-.6.3-1.2.4-1.9.4Z"/>
    <path fill="#F7E0FF" stroke="#5282FF" stroke-dasharray="8 8" stroke-width="2" d="M787 363h172c2.2 0 4 1.8 4 4v102c0 2.2-1.8 4-4 4H787c-2.2 0-4-1.8-4-4V367c0-2.2 1.8-4 4-4Z"/>
    <path fill="#000" fill-opacity=".85" d="M809.1 416.4c-.8 0-1.5.1-2.1.4-.6.3-1.1.8-1.5 1.6l-1.4 6.6h-1.7l2.2-10.4h1.5l-.3 2.3c.3-.7.8-1.3 1.4-1.8.6-.5 1.4-.7 2.2-.7l-.3 2Zm4.6 7.3c.4 0 .8-.1 1.1-.2.3-.1.6-.3.8-.4.3-.2.5-.4.7-.6.2-.3.4-.5.6-.8l1.5-7.1h1.7l-2.2 10.4h-1.5l.2-1.9c-.4.6-.8 1.1-1.4 1.5-.5.4-1.2.6-2.1.6-1.1 0-1.9-.3-2.4-1s-.7-1.6-.4-2.8l1.4-6.8h1.7l-1.4 6.7c-.1.4-.1.8-.1 1.1.1.3.2.6.3.8.2.2.4.3.6.4.3.1.6.1.9.1Zm8.2-5.6h4.7l-.3 1.6h-4.7l.3-1.6Zm11 7.1c-.6 0-1.2-.1-1.8-.3-.6-.2-1.1-.5-1.5-.9-.4-.4-.7-.9-1-1.5-.3-.6-.4-1.3-.4-2.1 0-.9.1-1.7.4-2.4.3-.7.6-1.4 1.1-1.9.5-.5 1.1-1 1.8-1.3.7-.3 1.5-.5 2.4-.5.6 0 1.1.1 1.6.2s.9.3 1.2.5l-.3 1.5c-.4-.2-.8-.4-1.2-.5-.4-.1-.8-.2-1.3-.2-.7 0-1.2.1-1.7.4-.5.2-.9.6-1.2 1-.3.4-.5.9-.7 1.4-.1.5-.2 1.1-.2 1.7 0 1.2.3 2 .9 2.6.6.5 1.4.8 2.3.8.4 0 .8 0 1.2-.1.5-.1.9-.2 1.4-.5l-.3 1.5c-.4.2-.9.3-1.3.4-.6.2-1 .2-1.4.2Zm12.7-.6c-.3.1-.7.3-1.2.4-.5.1-1.1.2-1.8.2-.8 0-1.5-.1-2.1-.3-.6-.2-1.2-.5-1.6-.9-.4-.4-.8-.9-1-1.5-.2-.6-.4-1.3-.4-2.1 0-.9.1-1.7.4-2.4.3-.7.7-1.4 1.2-1.9s1.1-.9 1.7-1.2c.7-.3 1.4-.4 2.1-.4.8 0 1.4.1 2 .4.6.3 1 .7 1.3 1.2.3.5.5 1.1.6 1.8.1.7-.1 1.5-.4 2.4h-7.2v.1c0 1.1.3 2 .9 2.5.6.5 1.4.8 2.6.8.6 0 1.2-.1 1.7-.2s1-.3 1.4-.4l-.2 1.5Zm-2.7-8.7c-.8 0-1.6.3-2.1.8-.6.5-1 1.2-1.2 2.1h5.7c.1-.5.1-.9 0-1.3s-.2-.7-.5-.9c-.2-.2-.5-.4-.8-.5-.3-.1-.7-.2-1.1-.2Zm11.7 0c-.4 0-.8.1-1.1.2-.3.1-.6.3-.9.4-.3.2-.5.4-.7.7-.2.2-.4.5-.6.8l-1.5 7.1h-1.7l2.2-10.4h1.6l-.3 1.9c.4-.6.9-1.1 1.5-1.5.6-.4 1.3-.6 2.2-.6 1.1 0 1.9.4 2.4 1.1.5.7.6 1.7.3 3.1l-1.4 6.4h-1.7l1.4-6.5c.1-.5.1-.9.1-1.3 0-.3-.1-.6-.3-.8-.2-.2-.4-.3-.6-.4-.3-.1-.6-.2-.9-.2Zm9.7 9c-.4.2-.9.3-1.5.3-.5 0-1-.1-1.4-.2-.4-.2-.7-.4-.9-.7-.2-.3-.3-.7-.4-1.1-.1-.4 0-.9.1-1.3l1.3-5.8h-1.2l.3-1.4h1.2l.5-2.2h1.7l-.5 2.2h3l-.3 1.4h-3L862 422c-.3 1.2.1 1.7 1.2 1.7h.7c.2 0 .5-.1.6-.2l-.2 1.4Zm8.9-8.5c-.8 0-1.5.1-2.1.4-.6.3-1.1.8-1.5 1.6l-1.4 6.6h-1.7l2.2-10.4h1.5l-.3 2.3c.3-.7.8-1.3 1.4-1.8.6-.5 1.4-.7 2.2-.7l-.3 2Zm6.4 8.6v-.7c0-.3.1-.7.1-1.1-.1.2-.3.5-.5.7-.2.2-.4.5-.7.6-.3.2-.5.3-.9.4-.3.1-.7.2-1.1.2-.4 0-.7-.1-1.1-.2-.4-.1-.7-.3-1-.5-.3-.2-.5-.5-.7-.9-.2-.4-.3-.8-.3-1.3 0-1.1.4-1.9 1.2-2.6.8-.6 2-.9 3.6-.9h2.3v-.1c.1-.5.1-1 .1-1.4-.1-.4-.2-.6-.4-.8-.2-.2-.5-.4-.8-.4-.3-.1-.7-.1-1.1-.1-.6 0-1.1.1-1.6.2s-1 .3-1.4.5l.3-1.5c.4-.2.8-.4 1.4-.5.5-.1 1.1-.2 1.8-.2s1.2.1 1.8.2c.5.2 1 .4 1.3.8.3.4.6.8.7 1.4.1.6.1 1.3-.1 2.1l-1 4.4c0 .1-.1.2-.1.4 0 .1 0 .3-.1.5 0 .2-.1.3-.1.5v.4h-1.6v-.1Zm-2.6-1.2c.5 0 .9-.1 1.2-.3.4-.2.7-.4.9-.7.3-.3.5-.5.6-.8.2-.3.3-.5.3-.7l.3-1.2h-2.2c-1.1 0-1.8.2-2.3.6-.5.4-.7.9-.7 1.5 0 .5.1.9.4 1.2.5.3 1 .4 1.5.4Zm11.6-13.1-3 14.3h-1.7l3-14.3h1.7Zm5.3 14.3h-1.8l2.6-12.1-4.6 3 .4-2 4.9-3.3h1.5l-3 14.4Zm6.6-6.9h4.7l-.3 1.6h-4.7l.3-1.6Zm13.6 5.5c-.4.5-.9.9-1.4 1.2-.5.3-1.2.5-1.9.5-.6 0-1.1-.1-1.6-.3-.5-.2-.9-.5-1.3-.9-.3-.4-.6-.9-.8-1.4-.2-.6-.3-1.2-.3-1.9 0-.8.1-1.5.3-2.3.2-.7.6-1.4 1-2 .5-.6 1-1.1 1.6-1.4.7-.4 1.4-.5 2.2-.5.8 0 1.6.2 2.1.6.6.4 1 .9 1.3 1.6l1.2-5.9h1.7l-3.1 14.3h-1.5l.5-1.6Zm.7-4.6c0-1-.2-1.8-.7-2.3-.5-.5-1.1-.8-1.9-.8-.6 0-1.1.1-1.6.4-.4.2-.8.6-1.1 1-.3.4-.5.9-.6 1.4-.1.5-.2 1.1-.2 1.7 0 1.1.2 1.9.7 2.5.5.5 1.1.8 1.9.8.6 0 1.2-.1 1.6-.4.5-.3.8-.7 1.1-1.1.3-.5.5-1 .6-1.5.1-.6.2-1.2.2-1.7Zm10.8 8.8c-.6-.8-1-1.7-1.3-2.8-.3-1.1-.5-2.3-.5-3.7 0-2.3.4-4.4 1.3-6.4s2.1-3.7 3.8-5.1h1.9c-.7.6-1.4 1.4-2.1 2.2-.6.8-1.2 1.8-1.7 2.8-.5 1-.8 2.1-1.1 3.2-.3 1.1-.4 2.3-.4 3.5 0 1.3.2 2.4.5 3.4s.8 2 1.3 2.7h-1.7v.2Zm9.8-10-1-2.7-1.8 2.2-1.2-1.2 2.3-1.8-2.7-1.1.8-1.4 2.4 1.6.2-2.9 1.6.3-.8 2.8 2.8-.7.2 1.6-2.9.1 1.5 2.4-1.4.8Zm6.5-7.9c.6.8 1 1.7 1.3 2.8.3 1.1.5 2.3.5 3.7 0 2.3-.4 4.4-1.3 6.4s-2.1 3.7-3.7 5.1h-1.9c.7-.6 1.4-1.4 2.1-2.2.7-.8 1.2-1.8 1.7-2.8.5-1 .9-2.1 1.1-3.2.3-1.1.4-2.3.4-3.5 0-1.3-.2-2.4-.5-3.4s-.7-2-1.3-2.7h1.6v-.2Z"/>
    <path fill="#E3EBFF" stroke="#5282FF" stroke-width="2" d="M43 363h172c2.2 0 4 1.8 4 4v102c0 2.2-1.8 4-4 4H43c-2.2 0-4-1.8-4-4V367c0-2.2 1.8-4 4-4Z"/>
    <path fill="#000" fill-opacity=".85" d="M77.2 416.4c-.7.1-1.4.3-2 .6-.6.3-1 .8-1.3 1.4v6.6h-1.8v-10.4h1.5l.2 2.3c.3-.6.7-1.1 1.3-1.6.6-.5 1.3-.8 2.1-.9v2Zm8.8 6.7c-.3.6-.7 1.1-1.3 1.5-.6.4-1.3.6-2.3.6-1 0-1.7-.3-2.3-.8-.6-.5-.9-1.4-.9-2.5v-7.3H81v7.3c0 .3 0 .6.1.9.1.2.2.4.4.5l.6.3c.2.1.5.1.8.1.8 0 1.4-.2 1.9-.5s.9-.8 1.2-1.4v-7.1h1.8V425h-1.6l-.2-1.9Zm4.4-5h4.8v1.6h-4.8v-1.6Zm12.1 7.1c-.8 0-1.5-.1-2.2-.4-.6-.3-1.2-.6-1.6-1.1-.5-.5-.8-1-1-1.7-.2-.7-.4-1.4-.4-2.3 0-.8.1-1.6.4-2.3.3-.7.6-1.2 1.1-1.7.5-.5 1-.8 1.7-1.1.7-.3 1.4-.4 2.2-.4.6 0 1.2.1 1.8.2.5.1 1 .3 1.3.6v1.6c-.4-.3-.9-.5-1.4-.6-.5-.1-1.1-.2-1.6-.2-1.2 0-2.1.3-2.7.9-.6.6-.8 1.6-.8 2.9 0 1.3.3 2.3.8 2.9.5.6 1.4.9 2.6.9.6 0 1.2-.1 1.7-.2.5-.2 1-.4 1.4-.6v1.6c-.4.2-.8.4-1.4.6-.6.3-1.2.4-1.9.4Zm13.6-1.1c-.1.1-.3.2-.5.3-.2.1-.5.2-.8.4-.3.1-.7.2-1 .3-.4.1-.8.1-1.3.1-1.7 0-3.1-.5-4-1.4-.9-.9-1.4-2.3-1.4-4 0-.8.1-1.6.4-2.3.3-.7.6-1.2 1-1.7s1-.8 1.6-1.1c.6-.3 1.3-.4 2-.4s1.4.1 2 .4c.6.3 1.1.6 1.4 1.1.4.5.6 1.1.8 1.8.1.7.1 1.6 0 2.5H109c.1 1.1.4 2 1 2.5s1.5.8 2.7.8c.8 0 1.5-.1 2.1-.3.6-.2 1.1-.5 1.4-.7l-.1 1.7ZM112 416c-.8 0-1.4.2-2 .7-.5.5-.9 1.2-1 2.1h5.6c.1-1-.2-1.7-.7-2.1-.5-.5-1.1-.7-1.9-.7Zm11.4 0c-.8 0-1.5.2-2 .6-.5.4-.9.8-1.2 1.4v7.1h-1.8v-10.4h1.7l.1 1.9c.3-.6.7-1.1 1.3-1.5.6-.4 1.4-.6 2.3-.6 1 0 1.8.3 2.4.8.6.5.9 1.4.9 2.5v7.3h-1.8V418c0-.7-.2-1.2-.5-1.5-.3-.3-.8-.5-1.4-.5Zm11.6 8.8c-.2.1-.5.2-.8.3-.3.1-.7.1-1.1.1-.5 0-.9-.1-1.3-.2-.3-.1-.6-.3-.9-.6-.2-.3-.4-.5-.5-.8-.1-.3-.1-.6-.1-1v-6.5h-1.2v-1.5h1.2v-2.2h1.8v2.2h3v1.5h-3v6.2c0 .4.1.8.3 1 .2.2.6.3 1.2.3.5 0 1-.1 1.4-.4v1.6Zm7.5-8.4c-.7.1-1.4.3-2 .6-.6.3-1 .8-1.3 1.4v6.6h-1.8v-10.4h1.5l.2 2.3c.3-.6.7-1.1 1.3-1.6.6-.5 1.3-.8 2.1-.9v2Zm8 6.6c-.1.2-.3.5-.5.8-.2.3-.4.5-.7.7-.3.2-.6.4-1 .5-.4.1-.8.2-1.3.2-.9 0-1.7-.3-2.3-.8-.6-.5-.9-1.3-.9-2.3 0-1.1.4-2 1.2-2.5.8-.5 1.9-.8 3.4-.8h1.9v-.8c0-.7-.2-1.2-.6-1.5-.4-.3-1-.5-1.9-.5-.6 0-1.2.1-1.8.3-.6.2-1.1.4-1.5.7v-1.6c.4-.2.9-.4 1.5-.7.6-.2 1.3-.3 2.1-.3 1.3 0 2.3.3 3 .8.7.5 1 1.4 1 2.5v7.3h-1.6c0-.2-.1-.4-.1-.8v-.9l.1-.3Zm-3.1.6c.5 0 1-.1 1.4-.3.4-.2.7-.5.9-.8.2-.3.4-.6.5-.9.1-.3.2-.5.2-.6v-.8h-1.8c-1.1 0-1.8.2-2.3.5-.5.3-.7.7-.7 1.3 0 .5.1.8.4 1.1.3.3.8.5 1.4.5Zm9.4-12.9V425H155v-14.3h1.8Zm8.8 14.3h-1.8v-12.1l-4 3v-2l4.3-3.3h1.5V425Zm4.8-6.9h4.8v1.6h-4.8v-1.6Zm17.3 1.7c0 .9-.1 1.7-.4 2.4-.3.7-.6 1.2-1 1.7-.4.4-.9.8-1.5 1-.6.2-1.1.3-1.8.3-.8 0-1.5-.2-2.1-.6-.6-.4-1.1-.9-1.4-1.6l-.1 2h-1.7v-14.3h1.8v6c.3-.7.8-1.2 1.4-1.6.6-.4 1.3-.6 2.2-.6.6 0 1.2.1 1.7.3.6.2 1 .5 1.5 1 .4.4.8 1 1 1.7.3.6.4 1.4.4 2.3Zm-4.9 3.8c.9 0 1.7-.3 2.2-.9.6-.6.9-1.6.9-2.9 0-1.3-.3-2.2-.9-2.8-.6-.7-1.3-1-2.2-1-.5 0-.9.1-1.3.2-.4.2-.7.4-1 .7-.3.3-.5.7-.7 1.2-.2.5-.2 1-.2 1.7 0 .6.1 1.2.2 1.7.2.5.4.9.7 1.2.3.3.6.6 1 .7.4.1.8.2 1.3.2Z"/>
    <path fill="#fff" stroke="#FF5958" stroke-width="2" d="M193 564h172c2.2 0 4 1.8 4 4v72c0 2.2-1.8 4-4 4H193c-2.2 0-4-1.8-4-4v-72c0-2.2 1.8-4 4-4Z"/>
    <path fill="#000" fill-opacity=".85" d="M237.5 579.7h4.6c1.6 0 2.9.3 3.8 1 .9.7 1.4 1.7 1.4 3.1 0 .8-.1 1.5-.4 2.1-.3.6-.6 1-1.1 1.4-.5.4-1 .6-1.7.8-.6.2-1.4.3-2.1.3h-2.5v5.6h-1.9v-14.3h-.1Zm1.9 1.7v5.3h2.5c.5 0 1-.1 1.4-.2.4-.1.8-.3 1.1-.5.3-.2.5-.5.7-.9.2-.4.3-.8.3-1.3 0-.9-.3-1.5-.8-1.9-.6-.4-1.4-.6-2.4-.6h-2.8v.1Zm14 12.8c-.7 0-1.4-.1-2-.4-.6-.2-1.1-.6-1.6-1-.4-.5-.8-1-1-1.7-.3-.7-.4-1.4-.4-2.3 0-.9.1-1.6.4-2.3.3-.7.6-1.2 1-1.7.5-.5 1-.8 1.6-1 .6-.2 1.3-.4 2-.4s1.4.1 2 .4c.6.2 1.1.6 1.6 1 .5.5.8 1 1.1 1.7.3.7.4 1.4.4 2.3 0 .9-.1 1.6-.4 2.3-.3.7-.6 1.2-1.1 1.7-.4.5-1 .8-1.6 1-.6.3-1.3.4-2 .4Zm0-1.6c.5 0 .9-.1 1.3-.2.4-.2.7-.4 1-.7.3-.3.5-.7.7-1.2.2-.5.2-1 .2-1.7s-.1-1.2-.2-1.7c-.2-.5-.4-.9-.7-1.2-.3-.3-.6-.6-1-.7-.4-.2-.8-.2-1.3-.2s-.9.1-1.3.2-.7.4-1 .7c-.3.3-.5.7-.7 1.2-.2.5-.2 1-.2 1.7s.1 1.2.2 1.7.4.9.7 1.2c.3.3.6.5 1 .7.4.1.8.2 1.3.2Zm7.4-12.9h4.6c1.6 0 2.9.3 3.8 1 .9.7 1.4 1.7 1.4 3.1 0 .8-.1 1.5-.4 2.1-.3.6-.6 1-1.1 1.4-.5.4-1 .6-1.7.8-.6.2-1.4.3-2.1.3h-2.5v5.6h-1.9l-.1-14.3Zm1.9 1.7v5.3h2.5c.5 0 1-.1 1.4-.2.4-.1.8-.3 1.1-.5.3-.2.5-.5.7-.9.2-.4.3-.8.3-1.3 0-.9-.3-1.5-.8-1.9-.6-.4-1.4-.6-2.4-.6h-2.8v.1Zm26.2 12.6h-2.6l-7.2-12v12h-1.8v-14.3h2.5l7.2 12v-12h1.8V594h.1Zm9.4.2c-1 0-1.9-.2-2.7-.5-.8-.3-1.6-.8-2.2-1.4-.6-.6-1.1-1.4-1.5-2.3-.3-.9-.5-2-.5-3.2 0-1.2.2-2.3.5-3.2.4-.9.8-1.7 1.5-2.3.6-.6 1.3-1.1 2.2-1.4.8-.3 1.7-.5 2.7-.5 1 0 1.9.2 2.7.5.8.3 1.6.8 2.2 1.4.6.6 1.1 1.4 1.4 2.3.3.9.5 2 .5 3.2 0 1.2-.2 2.2-.5 3.2-.3.9-.8 1.7-1.4 2.3-.6.6-1.3 1.1-2.2 1.4-.8.3-1.7.5-2.7.5Zm0-1.7c.7 0 1.3-.1 1.9-.3.6-.2 1.1-.5 1.5-1 .4-.5.8-1 1-1.8.3-.7.4-1.6.4-2.6s-.1-1.9-.4-2.6c-.2-.7-.6-1.3-1-1.7-.4-.5-.9-.8-1.5-1-.6-.2-1.2-.3-1.9-.3s-1.3.1-1.9.3c-.6.2-1.1.5-1.5 1-.4.4-.8 1-1 1.7-.2.7-.4 1.6-.4 2.6s.1 1.9.4 2.6c.3.7.6 1.3 1 1.8.4.4 1 .8 1.5 1 .6.2 1.2.3 1.9.3Zm9.4-12.8h4.8c1.7 0 3 .3 3.9 1 .9.7 1.3 1.7 1.3 3.1 0 1.3-.3 2.2-.9 2.9-.6.7-1.4 1.1-2.4 1.3l3.9 6h-2.1l-3.7-5.8h-2.9v5.8h-1.9v-14.3Zm1.9 1.7v5.1h2.7c.5 0 1 0 1.4-.1.4-.1.8-.2 1.1-.5.3-.2.5-.5.7-.8.2-.4.3-.8.3-1.3 0-.9-.3-1.5-.8-1.8-.6-.4-1.4-.5-2.4-.5h-3v-.1Zm11.1-1.7h4.8c1 0 1.9.1 2.7.3.8.2 1.5.6 2.2 1.1.6.5 1.1 1.2 1.4 2.1.3.9.5 1.9.5 3.2 0 1.3-.2 2.4-.5 3.3-.3.9-.8 1.7-1.5 2.4-.6.6-1.4 1.1-2.2 1.5-.9.3-1.8.5-2.8.5h-4.6v-14.4Zm1.9 1.7v10.9h2.7c.7 0 1.4-.1 2-.3.6-.2 1.1-.6 1.6-1 .4-.5.8-1.1 1-1.8.2-.7.4-1.6.4-2.6s-.1-1.8-.4-2.5c-.2-.7-.6-1.2-1-1.6-.4-.4-.9-.7-1.5-.8-.6-.2-1.2-.2-1.9-.2h-2.9v-.1Z"/>
    <mask id="mask0_1_7" width="34" height="32" x="261" y="603" maskUnits="userSpaceOnUse" style="mask-type:luminance">
        <path fill="#fff" d="M295 603h-34v32h34v-32Z"/>
    </mask>
    <g mask="url(#mask0_1_7)">
        <path fill="#5282FF" fill-rule="evenodd" d="M267.4 631.9v-3.7c0-.6.5-1.1 1.2-1.1h.9V624c0-.3.1-.5.4-.7.2-.2.4-.3.7-.3h7.5v-2h-11.7c-2.9 0-5.3-2-5.3-5 0-2.8 2.7-5 5.7-5h.8c.5-2.3 2.6-4 5.2-4 .6 0 1.1.1 1.7.3 1.1-2.5 3.8-4.3 6.8-4.3 4.1 0 7.4 3.1 7.4 7 0 .3 0 .7-.1 1h1.1c2.9 0 5.3 2.2 5.3 5s-2.4 5-5.3 5h-9.6v2h7.5c.1 0 .2 0 .7.3l.1.1c.2.2.3.4.3.6v3h.9c.7 0 1.2.5 1.2 1.1v3.7c0 .6-.5 1.1-1.2 1.1h-4c-.7 0-1.2-.5-1.2-1.1v-3.7c0-.6.5-1.1 1.2-1.1h.9v-2h-6.4v2h.9c.7 0 1.2.5 1.2 1.1v3.7c0 .6-.5 1.1-1.2 1.1h-4c-.7 0-1.2-.5-1.2-1.1v-3.7c0-.6.5-1.1 1.2-1.1h.9v-2h-6.4v2h.9c.7 0 1.2.5 1.2 1.1v3.7c0 .6-.5 1.1-1.2 1.1h-4c-.5.1-1-.4-1-1Zm20.9-8.6c-.1 0-.1-.1 0 0-.1 0-.1 0 0 0Zm0 0c-.2-.1-.3-.2 0 0-.1-.1-.1-.1 0 0Z" clip-rule="evenodd"/>
    </g>
    <path fill="#fff" stroke="#FF5958" stroke-width="2" d="M432 564h172c2.2 0 4 1.8 4 4v72c0 2.2-1.8 4-4 4H432c-2.2 0-4-1.8-4-4v-72c0-2.2 1.8-4 4-4Z"/>
    <path fill="#000" fill-opacity=".85" d="M480.3 578.7h4.6c1.6 0 2.9.3 3.8 1 .9.7 1.4 1.7 1.4 3.1 0 .8-.1 1.5-.4 2.1-.3.6-.6 1-1.1 1.4-.5.4-1 .6-1.7.8-.6.2-1.4.3-2.1.3h-2.5v5.6h-1.9l-.1-14.3Zm1.8 1.7v5.3h2.5c.5 0 1-.1 1.4-.2.4-.1.8-.3 1.1-.5.3-.2.5-.5.7-.9.2-.4.3-.8.3-1.3 0-.9-.3-1.5-.8-1.9-.6-.4-1.4-.6-2.4-.6h-2.8v.1Zm14 12.8c-.7 0-1.4-.1-2-.4-.6-.2-1.1-.6-1.6-1-.4-.5-.8-1-1-1.7-.3-.7-.4-1.4-.4-2.3 0-.9.1-1.6.4-2.3.3-.7.6-1.2 1-1.7.5-.5 1-.8 1.6-1 .6-.2 1.3-.4 2-.4s1.4.1 2 .4c.6.2 1.1.6 1.6 1 .5.5.8 1 1.1 1.7.3.7.4 1.4.4 2.3 0 .9-.1 1.6-.4 2.3-.3.7-.6 1.2-1.1 1.7-.4.5-1 .8-1.6 1-.6.3-1.3.4-2 .4Zm0-1.6c.5 0 .9-.1 1.3-.2.4-.2.7-.4 1-.7.3-.3.5-.7.7-1.2.2-.5.2-1 .2-1.7s-.1-1.2-.2-1.7c-.2-.5-.4-.9-.7-1.2-.3-.3-.6-.6-1-.7-.4-.2-.8-.2-1.3-.2s-.9.1-1.3.2-.7.4-1 .7c-.3.3-.5.7-.7 1.2-.2.5-.2 1-.2 1.7s.1 1.2.2 1.7.4.9.7 1.2c.3.3.6.5 1 .7.4.1.8.2 1.3.2Zm7.4-12.9h4.6c1.6 0 2.9.3 3.8 1 .9.7 1.4 1.7 1.4 3.1 0 .8-.1 1.5-.4 2.1-.3.6-.6 1-1.1 1.4-.5.4-1 .6-1.7.8-.6.2-1.4.3-2.1.3h-2.5v5.6h-1.9l-.1-14.3Zm1.9 1.7v5.3h2.5c.5 0 1-.1 1.4-.2.4-.1.8-.3 1.1-.5.3-.2.5-.5.7-.9.2-.4.3-.8.3-1.3 0-.9-.3-1.5-.8-1.9-.6-.4-1.4-.6-2.4-.6h-2.8v.1Zm20.7 12.8c-1 0-1.9-.2-2.7-.5-.8-.3-1.6-.8-2.2-1.4-.6-.6-1.1-1.4-1.5-2.3-.3-.9-.5-2-.5-3.2 0-1.2.2-2.3.5-3.2.4-.9.8-1.7 1.5-2.3.6-.6 1.3-1.1 2.2-1.4.8-.3 1.7-.5 2.7-.5 1 0 1.9.2 2.7.5.8.3 1.6.8 2.2 1.4.6.6 1.1 1.4 1.4 2.3.3.9.5 2 .5 3.2 0 1.2-.2 2.2-.5 3.2-.3.9-.8 1.7-1.4 2.3-.6.6-1.3 1.1-2.2 1.4-.8.3-1.7.5-2.7.5Zm0-1.7c.7 0 1.3-.1 1.9-.3.6-.2 1.1-.5 1.5-1 .4-.5.8-1 1-1.8.3-.7.4-1.6.4-2.6s-.1-1.9-.4-2.6c-.2-.7-.6-1.3-1-1.7-.4-.5-.9-.8-1.5-1-.6-.2-1.2-.3-1.9-.3s-1.3.1-1.9.3c-.6.2-1.1.5-1.5 1-.4.4-.8 1-1 1.7-.2.7-.4 1.6-.4 2.6s.1 1.9.4 2.6c.3.7.6 1.3 1 1.8.4.4 1 .8 1.5 1 .6.2 1.2.3 1.9.3Zm13.3 1.7c-.7 0-1.2 0-1.8-.1-.5-.1-1-.2-1.4-.3-.4-.1-.7-.3-1-.5-.3-.2-.5-.3-.6-.5V590c.2.2.5.4.8.5.3.2.7.3 1.1.5.4.1.9.3 1.4.4.5.1 1 .1 1.5.1 1 0 1.9-.2 2.5-.6.6-.4.9-1 .9-1.8 0-.4-.1-.7-.2-1-.1-.3-.4-.5-.6-.7-.3-.2-.6-.3-1.1-.5-.4-.1-.9-.3-1.5-.4-.6-.1-1.1-.3-1.7-.5-.6-.2-1.1-.4-1.5-.7-.4-.3-.8-.7-1.1-1.2-.3-.5-.4-1.1-.4-1.8 0-1.2.4-2.2 1.3-2.9.9-.7 2.2-1 4-1 .5 0 1 0 1.4.1.4.1.8.1 1.1.2.3.1.6.2.8.3.2.1.5.2.6.3v1.8c-.6-.4-1.2-.6-1.8-.8-.6-.2-1.3-.2-2.1-.2-.6 0-1.2.1-1.6.2-.4.1-.8.2-1 .4-.3.2-.5.4-.6.7-.1.3-.2.6-.2.9 0 .4.1.7.3 1 .2.3.4.5.7.7.3.2.7.3 1 .4l1.2.3c.6.1 1.1.3 1.7.5.6.2 1.1.4 1.6.7.5.3.8.7 1.1 1.2.3.5.5 1.1.5 1.9 0 .8-.2 1.4-.5 1.9s-.7.9-1.2 1.3c-.5.3-1.1.6-1.7.7-.5.2-1.2.3-1.9.3Zm13-12.8V593h-1.9v-12.6h-4.4v-1.7h10.7v1.7h-4.4Z"/>
    <mask id="mask1_1_7" width="34" height="32" x="500" y="603" maskUnits="userSpaceOnUse" style="mask-type:luminance">
        <path fill="#fff" d="M534 603h-34v32h34v-32Z"/>
    </mask>
    <g mask="url(#mask1_1_7)">
        <path fill="#5282FF" fill-rule="evenodd" d="M506.4 631.9v-3.7c0-.6.5-1.1 1.2-1.1h.9V624c0-.3.1-.5.4-.7.2-.2.4-.3.7-.3h7.5v-2h-11.7c-2.9 0-5.3-2-5.3-5 0-2.8 2.7-5 5.7-5h.8c.5-2.3 2.6-4 5.2-4 .6 0 1.1.1 1.7.3 1.1-2.5 3.8-4.3 6.8-4.3 4.1 0 7.4 3.1 7.4 7 0 .3 0 .7-.1 1h1.1c2.9 0 5.3 2.2 5.3 5s-2.4 5-5.3 5h-9.6v2h7.5c.1 0 .2 0 .7.3l.1.1c.2.2.3.4.3.6v3h.9c.7 0 1.2.5 1.2 1.1v3.7c0 .6-.5 1.1-1.2 1.1h-4c-.7 0-1.2-.5-1.2-1.1v-3.7c0-.6.5-1.1 1.2-1.1h.9v-2h-6.4v2h.9c.7 0 1.2.5 1.2 1.1v3.7c0 .6-.5 1.1-1.2 1.1h-4c-.7 0-1.2-.5-1.2-1.1v-3.7c0-.6.5-1.1 1.2-1.1h.9v-2h-6.4v2h.9c.7 0 1.2.5 1.2 1.1v3.7c0 .6-.5 1.1-1.2 1.1h-4c-.5.1-1-.4-1-1Zm20.9-8.6c-.1 0-.1-.1 0 0-.1 0-.1 0 0 0Zm0 0c-.2-.1-.3-.2 0 0-.1-.1-.1-.1 0 0Z" clip-rule="evenodd"/>
    </g>
    <path fill="#fff" stroke="#FF5958" stroke-width="2" d="M671 564h172c2.2 0 4 1.8 4 4v72c0 2.2-1.8 4-4 4H671c-2.2 0-4-1.8-4-4v-72c0-2.2 1.8-4 4-4Z"/>
    <path fill="#000" fill-opacity=".85" d="M723.7 579.7h4.6c1.6 0 2.9.3 3.8 1 .9.7 1.4 1.7 1.4 3.1 0 .8-.1 1.5-.4 2.1-.3.6-.6 1-1.1 1.4-.5.4-1 .6-1.7.8-.6.2-1.4.3-2.1.3h-2.5v5.6h-1.9l-.1-14.3Zm1.9 1.7v5.3h2.5c.5 0 1-.1 1.4-.2.4-.1.8-.3 1.1-.5.3-.2.5-.5.7-.9.2-.4.3-.8.3-1.3 0-.9-.3-1.5-.8-1.9-.6-.4-1.4-.6-2.4-.6h-2.8v.1Zm13.9 12.8c-.7 0-1.4-.1-2-.4-.6-.2-1.1-.6-1.6-1-.4-.5-.8-1-1-1.7-.3-.7-.4-1.4-.4-2.3 0-.9.1-1.6.4-2.3.3-.7.6-1.2 1-1.7.5-.5 1-.8 1.6-1 .6-.2 1.3-.4 2-.4s1.4.1 2 .4c.6.2 1.1.6 1.6 1 .5.5.8 1 1.1 1.7.3.7.4 1.4.4 2.3 0 .9-.1 1.6-.4 2.3-.3.7-.6 1.2-1.1 1.7-.4.5-1 .8-1.6 1-.6.3-1.3.4-2 .4Zm0-1.6c.5 0 .9-.1 1.3-.2.4-.2.7-.4 1-.7.3-.3.5-.7.7-1.2.2-.5.2-1 .2-1.7s-.1-1.2-.2-1.7c-.2-.5-.4-.9-.7-1.2-.3-.3-.6-.6-1-.7-.4-.2-.8-.2-1.3-.2s-.9.1-1.3.2-.7.4-1 .7c-.3.3-.5.7-.7 1.2-.2.5-.2 1-.2 1.7s.1 1.2.2 1.7c.2.5.4.9.7 1.2.3.3.6.5 1 .7.4.1.8.2 1.3.2Zm7.4-12.9h4.6c1.6 0 2.9.3 3.8 1 .9.7 1.4 1.7 1.4 3.1 0 .8-.1 1.5-.4 2.1-.3.6-.6 1-1.1 1.4-.5.4-1 .6-1.7.8-.6.2-1.4.3-2.1.3h-2.5v5.6H747l-.1-14.3Zm1.9 1.7v5.3h2.5c.5 0 1-.1 1.4-.2.4-.1.8-.3 1.1-.5.3-.2.5-.5.7-.9.2-.4.3-.8.3-1.3 0-.9-.3-1.5-.8-1.9-.6-.4-1.4-.6-2.4-.6h-2.8v.1Zm18.7 12.8c-.7 0-1.2 0-1.8-.1-.5-.1-1-.2-1.4-.3-.4-.1-.7-.3-1-.5-.3-.2-.5-.3-.6-.5V591c.2.2.5.4.8.5.3.2.7.3 1.1.5.4.1.9.3 1.4.4.5.1 1 .1 1.5.1 1 0 1.9-.2 2.5-.6.6-.4.9-1 .9-1.8 0-.4-.1-.7-.2-1-.1-.3-.4-.5-.6-.7-.3-.2-.6-.3-1.1-.5-.4-.1-.9-.3-1.5-.4-.6-.1-1.1-.3-1.7-.5-.6-.2-1.1-.4-1.5-.7-.4-.3-.8-.7-1.1-1.2-.3-.5-.4-1.1-.4-1.8 0-1.2.4-2.2 1.3-2.9.9-.7 2.2-1 4-1 .5 0 1 0 1.4.1.4.1.8.1 1.1.2.3.1.6.2.8.3.2.1.5.2.6.3v1.8c-.6-.4-1.2-.6-1.8-.8-.6-.2-1.3-.2-2.1-.2-.6 0-1.2.1-1.6.2-.4.1-.8.2-1 .4-.3.2-.5.4-.6.7-.1.3-.2.6-.2.9 0 .4.1.7.3 1 .2.3.4.5.7.7.3.2.7.3 1 .4l1.2.3c.6.1 1.1.3 1.7.5.6.2 1.1.4 1.6.7.5.3.8.7 1.1 1.2.3.5.5 1.1.5 1.9 0 .8-.2 1.4-.5 1.9s-.7.9-1.2 1.3c-.5.3-1.1.6-1.7.7-.5.2-1.2.3-1.9.3Zm13-12.8V594h-1.9v-12.6h-4.4v-1.7h10.7v1.7h-4.4Zm6.7-1.7h4.8c1 0 1.9.1 2.7.3.8.2 1.5.6 2.2 1.1.6.5 1.1 1.2 1.4 2.1.3.9.5 1.9.5 3.2 0 1.3-.2 2.4-.5 3.3-.3.9-.8 1.7-1.5 2.4-.6.6-1.4 1.1-2.2 1.5-.9.3-1.8.5-2.8.5h-4.6v-14.4Zm1.9 1.7v10.9h2.7c.7 0 1.4-.1 2-.3.6-.2 1.1-.6 1.6-1 .4-.5.8-1.1 1-1.8.2-.7.4-1.6.4-2.6s-.1-1.8-.4-2.5c-.2-.7-.6-1.2-1-1.6-.4-.4-.9-.7-1.5-.8-.6-.2-1.2-.2-1.9-.2h-2.9v-.1Z"/>
    <path fill="#5282FF" fill-rule="evenodd" d="M757.4 604.9c.6-.6 1.1-.9 1.6-.9s1 .2 1.6.9c.6.6 1.2 1.6 1.7 2.9.9 2.4 1.6 5.6 1.7 9.2h-10c.1-3.6.7-6.9 1.7-9.2.5-1.3 1.1-2.3 1.7-2.9ZM752 617c.1-3.8.8-7.3 1.8-10 .4-.9.8-1.8 1.3-2.5-5.5 1.6-9.6 6.5-10.1 12.5h7Zm-7 2h7c.1 3.8.8 7.3 1.8 10 .4.9.8 1.8 1.3 2.5-5.5-1.7-9.6-6.6-10.1-12.5Zm-2-1c0-8.8 7.2-16 16-16s16 7.2 16 16-7.2 16-16 16-16-7.2-16-16Zm30-1c-.4-5.9-4.5-10.8-10.1-12.5.5.7.9 1.5 1.3 2.5 1.1 2.6 1.7 6.1 1.8 10h7Zm-7 2h7c-.4 5.9-4.5 10.8-10.1 12.5.5-.7.9-1.5 1.3-2.5 1-2.7 1.7-6.2 1.8-10Zm-2 0c-.1 3.6-.7 6.9-1.7 9.2-.5 1.3-1.1 2.3-1.7 2.9-.6.6-1.1.9-1.6.9s-1-.2-1.6-.9c-.6-.6-1.2-1.6-1.7-2.9-.9-2.4-1.6-5.6-1.7-9.2h10Z" clip-rule="evenodd"/>
    <path fill="#fff" stroke="#FF5958" stroke-width="2" d="M280 21h172c2.2 0 4 1.8 4 4v72c0 2.2-1.8 4-4 4H280c-2.2 0-4-1.8-4-4V25c0-2.2 1.8-4 4-4Z"/>
    <path fill="#000" fill-opacity=".85" d="M331.5 36.7h4.6c1.6 0 2.9.3 3.8 1 .9.7 1.4 1.7 1.4 3.1 0 .8-.1 1.5-.4 2.1-.3.6-.6 1-1.1 1.4-.5.4-1 .6-1.7.8-.6.2-1.4.3-2.1.3h-2.5V51h-1.9l-.1-14.3Zm1.9 1.7v5.3h2.5c.5 0 1-.1 1.4-.2.4-.1.8-.3 1.1-.5.3-.2.5-.5.7-.9.2-.4.3-.8.3-1.3 0-.9-.3-1.5-.8-1.9-.5-.4-1.4-.6-2.4-.6h-2.8v.1Zm13.9 12.8c-.7 0-1.4-.1-2-.4-.6-.2-1.1-.6-1.6-1-.4-.5-.8-1-1-1.7-.3-.7-.4-1.4-.4-2.3 0-.9.1-1.6.4-2.3.3-.7.6-1.2 1-1.7.5-.5 1-.8 1.6-1 .6-.2 1.3-.4 2-.4s1.4.1 2 .4c.6.2 1.1.6 1.6 1 .5.5.8 1 1.1 1.7.3.7.4 1.4.4 2.3 0 .9-.1 1.6-.4 2.3-.3.7-.6 1.2-1.1 1.7-.4.5-1 .8-1.6 1-.6.2-1.3.4-2 .4Zm0-1.6c.5 0 .9-.1 1.3-.2.4-.2.7-.4 1-.7.3-.3.5-.7.7-1.2.2-.5.2-1 .2-1.7s-.1-1.2-.2-1.7c-.2-.5-.4-.9-.7-1.2-.3-.3-.6-.6-1-.7-.4-.2-.8-.2-1.3-.2s-.9.1-1.3.2-.7.4-1 .7c-.3.3-.5.7-.7 1.2-.2.5-.2 1-.2 1.7s.1 1.2.2 1.7.4.9.7 1.2c.3.3.6.5 1 .7.4.1.9.2 1.3.2Zm7.5-12.9h4.6c1.6 0 2.9.3 3.8 1 .9.7 1.4 1.7 1.4 3.1 0 .8-.1 1.5-.4 2.1-.3.6-.6 1-1.1 1.4-.5.4-1 .6-1.7.8-.6.2-1.4.3-2.1.3h-2.5V51h-1.9l-.1-14.3Zm1.8 1.7v5.3h2.5c.5 0 1-.1 1.4-.2.4-.1.8-.3 1.1-.5.3-.2.5-.5.7-.9.2-.4.3-.8.3-1.3 0-.9-.3-1.5-.8-1.9-.5-.4-1.4-.6-2.4-.6h-2.8v.1Zm21.8 8.3 4.7-10.1h2.4V51h-1.9V39.5l-4.4 9.3h-1.7l-4.3-9.5V51h-1.8V36.7h2.6l4.4 10Zm19.2-4.2c0 1.3-.1 2.6-.4 3.6-.2 1.1-.6 2-1.1 2.7-.5.7-1.1 1.3-1.8 1.7-.7.4-1.6.6-2.6.6-.7 0-1.3-.1-1.8-.2s-.9-.3-1.3-.5v-1.8c.9.6 1.9.9 3.1.9.6 0 1.2-.1 1.6-.4.5-.3.9-.6 1.2-1.1.3-.5.6-1 .8-1.6.2-.6.3-1.3.4-2-.4.5-.9.9-1.5 1.2-.6.2-1.2.4-1.9.4-.6 0-1.2-.1-1.8-.3-.6-.2-1-.5-1.5-.9-.4-.4-.7-.9-1-1.5-.2-.6-.3-1.3-.3-2s.1-1.4.4-2c.3-.6.6-1.1 1-1.5.4-.4.9-.8 1.5-1 .6-.2 1.2-.4 1.9-.4.9 0 1.7.2 2.3.5.6.3 1.2.7 1.6 1.2.4.5.7 1.2.9 1.9.2.8.3 1.6.3 2.5Zm-4.9-4.4c-.4 0-.8.1-1.1.2-.3.1-.7.3-.9.6-.3.3-.5.6-.6 1-.2.4-.2.8-.2 1.4 0 .6.1 1 .2 1.4.2.4.4.7.6 1 .3.3.6.5.9.6.3.1.7.2 1 .2.4 0 .8-.1 1.2-.2.4-.1.7-.4 1-.6.3-.3.5-.6.7-1 .2-.4.2-.9.2-1.4 0-.9-.3-1.7-.8-2.2-.6-.7-1.3-1-2.2-1Z"/>
    <mask id="mask2_1_7" width="34" height="32" x="381" y="61" maskUnits="userSpaceOnUse" style="mask-type:luminance">
        <path fill="#fff" d="M415 61h-34v32h34V61Z"/>
    </mask>
    <g mask="url(#mask2_1_7)">
        <path fill="#5282FF" fill-rule="evenodd" d="M387.4 89.9v-3.7c0-.6.5-1.1 1.2-1.1h.9V82c0-.3.1-.5.4-.7.2-.2.4-.3.7-.3h7.5v-2h-11.7c-2.9 0-5.3-2-5.3-5 0-2.8 2.7-5 5.7-5h.8c.5-2.3 2.6-4 5.2-4 .6 0 1.1.1 1.7.3 1.1-2.5 3.8-4.3 6.8-4.3 4.1 0 7.4 3.1 7.4 7 0 .3 0 .7-.1 1h1.1c2.9 0 5.3 2.2 5.3 5s-2.4 5-5.3 5h-9.6v2h7.5c.1 0 .2 0 .7.3l.1.1c.2.2.3.4.3.6v3h.9c.7 0 1.2.5 1.2 1.1v3.7c0 .6-.5 1.1-1.2 1.1h-4c-.7 0-1.2-.5-1.2-1.1v-3.7c0-.6.5-1.1 1.2-1.1h.9v-2h-6.4v2h.9c.7 0 1.2.5 1.2 1.1v3.7c0 .6-.5 1.1-1.2 1.1h-4c-.7 0-1.2-.5-1.2-1.1v-3.7c0-.6.5-1.1 1.2-1.1h.9v-2h-6.4v2h.9c.7 0 1.2.5 1.2 1.1v3.7c0 .6-.5 1.1-1.2 1.1h-4c-.5.1-1-.4-1-1Zm20.9-8.6c-.1 0-.1-.1 0 0-.1 0-.1 0 0 0Zm0 0c-.2-.1-.3-.2 0 0-.1-.1-.1-.1 0 0Z" clip-rule="evenodd"/>
    </g>
    <path fill="#5282FF" fill-rule="evenodd" d="M332.4 63.9c.6-.6 1.1-.9 1.6-.9s1 .2 1.6.9c.6.6 1.2 1.6 1.7 2.9.9 2.4 1.6 5.6 1.7 9.2h-10c.1-3.6.7-6.9 1.7-9.2.5-1.3 1.1-2.3 1.7-2.9ZM327 76c.1-3.8.8-7.3 1.8-10 .4-.9.8-1.8 1.3-2.5-5.5 1.6-9.6 6.5-10.1 12.4l7 .1Zm-7 2h7c.1 3.8.8 7.3 1.8 10 .4.9.8 1.8 1.3 2.5-5.5-1.6-9.6-6.6-10.1-12.5Zm-2-1c0-8.8 7.2-16 16-16s16 7.2 16 16-7.2 16-16 16-16-7.2-16-16Zm30-1c-.4-5.9-4.5-10.9-10.1-12.4.5.7.9 1.6 1.3 2.5 1.1 2.6 1.7 6.1 1.8 10l7-.1Zm-7 2h7c-.4 5.9-4.5 10.9-10.1 12.4.5-.7.9-1.6 1.3-2.5 1-2.6 1.7-6.1 1.8-9.9Zm-2 0c-.1 3.6-.7 6.9-1.7 9.2-.5 1.3-1.1 2.3-1.7 2.9-.6.6-1.1.9-1.6.9s-1-.2-1.6-.9c-.6-.6-1.2-1.6-1.7-2.9-.9-2.4-1.6-5.6-1.7-9.2h10Z" clip-rule="evenodd"/>
    <path fill="#fff" stroke="#86829F" stroke-width="2" d="M85 683h846c2.2 0 4 1.8 4 4v44c0 2.2-1.8 4-4 4H85c-2.2 0-4-1.8-4-4v-44c0-2.2 1.8-4 4-4Z"/>
    <mask id="mask3_1_7" width="35" height="32" x="526" y="692" maskUnits="userSpaceOnUse" style="mask-type:luminance">
        <path fill="#fff" d="M560.4 692h-34v32h34v-32Z"/>
    </mask>
    <g mask="url(#mask3_1_7)">
        <path fill="#5282FF" fill-rule="evenodd" d="M532.8 720.9v-3.7c0-.6.5-1.1 1.2-1.1h.9V713c0-.3.1-.5.4-.7.2-.2.4-.3.7-.3h7.5v-2h-11.7c-2.9 0-5.3-2-5.3-5 0-2.8 2.7-5 5.7-5h.8c.5-2.3 2.6-4 5.2-4 .6 0 1.1.1 1.7.3 1.1-2.5 3.8-4.3 6.8-4.3 4.1 0 7.4 3.1 7.4 7 0 .3 0 .7-.1 1h1.1c2.9 0 5.3 2.2 5.3 5s-2.4 5-5.3 5h-9.6v2h7.5c.1 0 .2 0 .7.3l.1.1c.2.2.3.4.3.6v3h.9c.7 0 1.2.5 1.2 1.1v3.7c0 .6-.5 1.1-1.2 1.1h-4c-.7 0-1.2-.5-1.2-1.1v-3.7c0-.6.5-1.1 1.2-1.1h.9v-2h-6.4v2h.9c.7 0 1.2.5 1.2 1.1v3.7c0 .6-.5 1.1-1.2 1.1h-4c-.7 0-1.2-.5-1.2-1.1v-3.7c0-.6.5-1.1 1.2-1.1h.9v-2h-6.4v2h.9c.7 0 1.2.5 1.2 1.1v3.7c0 .6-.5 1.1-1.2 1.1h-4c-.5.1-1-.4-1-1Zm20.8-8.6c-.1-.1-.2-.2 0 0 0-.1 0-.1 0 0Z" clip-rule="evenodd"/>
    </g>
    <path fill="#000" fill-opacity=".85" d="M574.9 715.1c-.7 0-1.4-.1-2-.4-.6-.2-1.1-.6-1.6-1-.4-.4-.8-1-1-1.6-.2-.6-.3-1.4-.3-2.2 0-.8.1-1.5.3-2.2.2-.6.5-1.2 1-1.6.4-.4.9-.8 1.5-1 .6-.2 1.3-.3 2.1-.3.7 0 1.3.1 1.8.2s.9.3 1.3.5v1.3c-.4-.3-.9-.5-1.5-.6-.5-.1-1.1-.2-1.6-.2-1.2 0-2.1.3-2.6 1-.6.7-.8 1.6-.8 3 0 1.3.3 2.3.9 3 .6.7 1.5 1 2.7 1 .5 0 1-.1 1.5-.2s1-.4 1.4-.7v1.3c-.3.2-.7.4-1.2.6-.6.1-1.2.1-1.9.1ZM581 705v10h-1.2v-10h1.2Zm5 10.1c-.5 0-1-.1-1.4-.3-.4-.2-.8-.4-1.1-.7-.3-.3-.6-.7-.7-1.2-.2-.5-.3-1-.3-1.6 0-.6.1-1.1.3-1.6.2-.5.4-.9.7-1.2.3-.3.7-.6 1.1-.7.4-.2.9-.3 1.4-.3.5 0 1 .1 1.4.3.4.2.8.4 1.1.7.3.3.6.7.7 1.2.2.5.3 1 .3 1.6 0 .6-.1 1.1-.3 1.6-.2.5-.4.9-.7 1.2-.3.3-.7.6-1.1.7-.4.3-.9.3-1.4.3Zm0-1.1c.3 0 .6-.1.9-.2.3-.1.5-.3.7-.5.2-.2.4-.5.5-.8.1-.3.2-.7.2-1.2s-.1-.9-.2-1.2c-.1-.3-.3-.6-.5-.8-.2-.2-.4-.4-.7-.5-.3-.1-.6-.2-.9-.2-.3 0-.6.1-.9.2-.3.1-.5.3-.7.5-.2.2-.3.5-.5.8-.2.3-.2.7-.2 1.2s.1.9.2 1.2c.1.3.3.6.5.8.2.2.4.4.7.5.3.2.6.2.9.2Zm9.7-.3c-.2.4-.5.8-.9 1-.4.3-.9.4-1.6.4-.7 0-1.2-.2-1.6-.6-.4-.4-.6-1-.6-1.8v-5.1h1.2v5.1c0 .2 0 .4.1.6.1.1.2.3.3.4.1.1.3.2.4.2.2 0 .3.1.5.1.5 0 1-.1 1.3-.4.3-.2.6-.6.8-1v-4.9h1.2v7.3h-1l-.1-1.3Zm8.5-.1c-.2.5-.5.9-.9 1.1-.4.3-.9.4-1.5.4-.4 0-.9-.1-1.2-.2-.4-.2-.7-.4-1-.7-.3-.3-.5-.7-.7-1.2-.2-.5-.3-1-.3-1.7 0-.6.1-1.2.3-1.7.2-.5.4-.9.7-1.2.3-.3.6-.6 1-.7.4-.2.8-.2 1.3-.2s1 .1 1.4.3c.4.2.7.5 1 1V705h1.2v10h-1.1l-.2-1.4Zm-2.3.4c.3 0 .6-.1.9-.2.3-.1.5-.3.7-.5.2-.2.4-.5.5-.8.1-.3.2-.7.2-1.2s-.1-.8-.2-1.2c-.1-.3-.3-.6-.5-.8-.2-.2-.4-.4-.7-.5-.3-.1-.6-.2-.9-.2-.6 0-1.2.2-1.6.7-.4.4-.6 1.1-.6 2 0 .9.2 1.6.6 2 .4.5.9.7 1.6.7Zm10-9v10h-1.3v-10h1.3Zm5.6 3.7c-.6 0-1 .1-1.4.4-.3.3-.6.6-.8 1v4.9h-1.2v-7.3h1.2v1.3c.2-.4.5-.8.9-1 .4-.2 1-.4 1.6-.4.7 0 1.3.2 1.7.6.4.4.6 1 .6 1.7v5.1h-1.2v-5c0-.5-.1-.9-.4-1.1-.2-.1-.5-.2-1-.2Zm8.2 6.1c-.1.1-.3.2-.6.2-.2.1-.5.1-.7.1-.4 0-.7-.1-.9-.2-.2-.1-.4-.2-.6-.4-.2-.2-.3-.4-.3-.6-.1-.2-.1-.5-.1-.7v-4.5h-.9v-1h.9v-1.5h1.2v1.5h2.1v1h-2.1v4.4c0 .3.1.5.2.7.2.1.4.2.8.2s.7-.1 1-.3v1.1Zm7.3-.4c-.1.1-.2.2-.4.2-.1.1-.3.2-.5.3-.2.1-.5.1-.7.2-.3.1-.6.1-.9.1-1.2 0-2.2-.3-2.8-1-.6-.7-1-1.6-1-2.8 0-.6.1-1.1.3-1.6.2-.5.4-.9.7-1.2.3-.3.7-.6 1.1-.7.4-.2.9-.3 1.4-.3.5 0 1 .1 1.4.3.4.2.7.4 1 .8.3.3.5.8.5 1.3.1.5.1 1.1 0 1.8H628c0 .8.3 1.4.7 1.8.4.4 1 .6 1.9.6.6 0 1-.1 1.4-.2.4-.2.7-.3 1-.5v.9Zm-2.9-5.7c-.5 0-1 .2-1.4.5-.4.3-.6.8-.7 1.5h3.9c0-.7-.1-1.2-.5-1.5-.3-.4-.7-.5-1.3-.5Zm8.2.3c-.5 0-1 .2-1.4.4-.4.2-.7.6-.9 1v4.6h-1.2v-7.3h1.1l.1 1.6c.2-.4.5-.8.9-1.1.4-.3.9-.5 1.5-.6l-.1 1.4Zm4.4 6.1c-.6 0-1.1-.1-1.5-.3-.4-.2-.8-.4-1.1-.7-.3-.3-.6-.7-.7-1.2-.2-.5-.3-1-.3-1.6 0-.6.1-1.1.3-1.6.2-.5.4-.9.7-1.2.3-.3.7-.6 1.2-.7.5-.2 1-.3 1.6-.3.4 0 .9.1 1.2.2.4.1.7.2.9.4v1.1c-.3-.2-.6-.3-1-.4-.4-.1-.7-.2-1.1-.2-.8 0-1.5.2-1.9.7-.4.4-.6 1.1-.6 2 0 .9.2 1.6.6 2 .4.4 1 .7 1.8.7.4 0 .8-.1 1.2-.2.4-.1.7-.3 1-.4v1.1c-.3.2-.6.3-1 .4-.4.2-.8.2-1.3.2Zm6.7 0c-.5 0-1-.1-1.4-.3-.4-.2-.8-.4-1.1-.7-.3-.3-.5-.7-.7-1.2-.2-.5-.3-1-.3-1.6 0-.6.1-1.1.3-1.6.2-.5.4-.9.7-1.2.3-.3.7-.6 1.1-.7.4-.2.9-.3 1.4-.3.5 0 1 .1 1.4.3.4.2.8.4 1.1.7.3.3.6.7.7 1.2.2.5.3 1 .3 1.6 0 .6-.1 1.1-.3 1.6-.2.5-.4.9-.7 1.2-.3.3-.7.6-1.1.7-.4.3-.9.3-1.4.3Zm0-1.1c.3 0 .6-.1.9-.2.3-.1.5-.3.7-.5.2-.2.4-.5.5-.8.1-.3.2-.7.2-1.2s-.1-.9-.2-1.2c-.1-.3-.3-.6-.5-.8-.2-.2-.4-.4-.7-.5-.3-.1-.6-.2-.9-.2-.3 0-.6.1-.9.2-.3.1-.5.3-.7.5-.2.2-.3.5-.5.8-.2.3-.2.7-.2 1.2s.1.9.2 1.2c.1.3.3.6.5.8.2.2.4.4.7.5.3.2.6.2.9.2Zm8.5-5.3c-.6 0-1 .1-1.4.4-.3.3-.6.6-.8 1v4.9h-1.2v-7.3h1.2v1.3c.2-.4.5-.8.9-1 .4-.3 1-.4 1.6-.4.7 0 1.3.2 1.7.6.4.4.6 1 .6 1.7v5.1h-1.2v-5c0-.5-.1-.9-.4-1.1-.2-.1-.6-.2-1-.2Zm8 0c-.6 0-1 .1-1.4.4-.3.3-.6.6-.8 1v4.9h-1.2v-7.3h1.2v1.3c.2-.4.5-.8.9-1 .4-.2 1-.4 1.6-.4.7 0 1.3.2 1.7.6.4.4.6 1 .6 1.7v5.1h-1.2v-5c0-.5-.1-.9-.4-1.1-.2-.1-.5-.2-1-.2Zm10.4 5.7c-.1.1-.2.2-.4.2-.1.1-.3.2-.5.3-.2.1-.5.1-.7.2-.3.1-.6.1-.9.1-1.2 0-2.2-.3-2.8-1-.6-.7-1-1.6-1-2.8 0-.6.1-1.1.3-1.6.2-.5.4-.9.7-1.2.3-.3.7-.6 1.1-.7.4-.2.9-.3 1.4-.3.5 0 1 .1 1.4.3.4.2.7.4 1 .8.3.3.5.8.5 1.3.1.5.1 1.1 0 1.8h-5.1c0 .8.3 1.4.7 1.8.4.4 1 .6 1.9.6.6 0 1-.1 1.4-.2.4-.2.7-.3 1-.5v.9Zm-2.9-5.7c-.5 0-1 .2-1.4.5-.4.3-.6.8-.7 1.5h3.9c0-.7-.1-1.2-.5-1.5-.3-.4-.7-.5-1.3-.5Zm7.7 6.4c-.6 0-1.1-.1-1.5-.3-.4-.2-.8-.4-1.1-.7-.3-.3-.6-.7-.7-1.2-.2-.5-.3-1-.3-1.6 0-.6.1-1.1.3-1.6.2-.5.4-.9.7-1.2.3-.3.7-.6 1.2-.7.5-.2 1-.3 1.6-.3.4 0 .9.1 1.2.2.4.1.7.2.9.4v1.1c-.3-.2-.6-.3-1-.4-.4-.1-.7-.2-1.1-.2-.8 0-1.5.2-1.9.7-.4.4-.6 1.1-.6 2 0 .9.2 1.6.6 2 .4.4 1 .7 1.8.7.4 0 .8-.1 1.2-.2.4-.1.7-.3 1-.4v1.1c-.3.2-.6.3-1 .4-.4.2-.8.2-1.3.2Zm7.3-.3c-.1.1-.3.2-.6.2-.2.1-.5.1-.7.1-.4 0-.7-.1-.9-.2-.2-.1-.4-.2-.6-.4-.2-.2-.3-.4-.3-.6-.1-.2-.1-.5-.1-.7v-4.5h-.9v-1h.9v-1.5h1.2v1.5h2.1v1h-2.1v4.4c0 .3.1.5.2.7.2.1.4.2.8.2s.7-.1 1-.3v1.1Zm101.1-9.8v10h-1.3v-10h1.3Zm5.6 3.7c-.6 0-1 .1-1.4.4-.3.3-.6.6-.8 1v4.9h-1.2v-7.3h1.2v1.3c.2-.4.5-.8.9-1 .4-.3 1-.4 1.6-.4.7 0 1.3.2 1.7.6.4.4.6 1 .6 1.7v5.1h-1.2v-5c0-.5-.1-.9-.4-1.1-.2-.1-.6-.2-1-.2Zm8.2 6.1c-.1.1-.3.2-.6.2-.2.1-.5.1-.7.1-.4 0-.7-.1-.9-.2-.2-.1-.4-.2-.6-.4-.2-.2-.3-.4-.4-.6-.1-.2-.1-.5-.1-.7v-4.5h-.9v-1h.9v-1.5h1.2v1.5h2.1v1h-2.1v4.4c0 .3.1.5.2.7.2.1.4.2.8.2s.7-.1 1-.3l.1 1.1Zm7.3-.4c-.1.1-.2.2-.4.2s-.3.2-.5.3c-.2.1-.5.1-.7.2-.3.1-.6.1-.9.1-1.2 0-2.2-.3-2.8-1-.6-.7-1-1.6-1-2.8 0-.6.1-1.1.3-1.6.2-.5.4-.9.7-1.2.3-.3.7-.6 1.1-.7.4-.2.9-.3 1.4-.3.5 0 1 .1 1.4.3.4.2.7.4 1 .8.3.3.5.8.5 1.3.1.5.1 1.1 0 1.8h-5.1c0 .8.3 1.4.7 1.8.4.4 1 .6 1.9.6.6 0 1-.1 1.4-.2.4-.1.7-.3 1-.5v.9Zm-2.9-5.7c-.5 0-1 .2-1.4.5-.4.3-.6.8-.7 1.5h3.9c0-.7-.1-1.2-.5-1.5-.3-.4-.7-.5-1.3-.5Zm8.2.3c-.5 0-1 .2-1.4.4-.4.2-.7.6-.9 1v4.6h-1.2v-7.3h1.1l.1 1.6c.2-.4.5-.8.9-1.1.4-.3.9-.5 1.5-.6l-.1 1.4Zm4.9-.3c-.6 0-1 .1-1.4.4-.3.3-.6.6-.8 1v4.9h-1.2v-7.3h1.2v1.3c.2-.4.5-.8.9-1 .4-.2 1-.4 1.6-.4.7 0 1.3.2 1.7.6.4.4.6 1 .6 1.7v5.1h-1.2v-5c0-.5-.1-.9-.4-1.1-.2-.1-.5-.2-1-.2Zm10.4 5.7c-.1.1-.2.2-.4.2-.1.1-.3.2-.5.3-.2.1-.5.1-.7.2-.3.1-.6.1-.9.1-1.2 0-2.2-.3-2.8-1-.6-.7-1-1.6-1-2.8 0-.6.1-1.1.3-1.6.2-.5.4-.9.7-1.2.3-.3.7-.6 1.1-.7.4-.2.9-.3 1.4-.3.5 0 1 .1 1.4.3.4.2.7.4 1 .8.3.3.5.8.5 1.3.1.5.1 1.1 0 1.8h-5.1c0 .8.3 1.4.7 1.8.4.4 1 .6 1.9.6.6 0 1-.1 1.4-.2.4-.2.7-.3 1-.5v.9Zm-2.9-5.7c-.5 0-1 .2-1.4.5-.4.3-.6.8-.7 1.5h3.9c0-.7-.1-1.2-.5-1.5-.3-.4-.7-.5-1.3-.5Zm8.1 6.1c-.1.1-.3.2-.6.2-.2.1-.5.1-.7.1-.4 0-.7-.1-.9-.2-.2-.1-.4-.2-.6-.4-.2-.2-.3-.4-.3-.6-.1-.2-.1-.5-.1-.7v-4.5h-.9v-1h.9v-1.5h1.2v1.5h2.1v1h-2.1v4.4c0 .3.1.5.2.7.2.1.4.2.8.2s.7-.1 1-.3v1.1Zm4.9-9.8h3.2c1.1 0 2 .2 2.6.7.6.5 1 1.2 1 2.2 0 .6-.1 1.1-.3 1.5-.2.4-.4.7-.8 1-.3.3-.7.5-1.2.6-.4.1-.9.2-1.5.2h-1.8v3.9h-1.3l.1-10.1Zm1.3 1.2v3.7h1.8c.4 0 .7 0 1-.1.3-.1.5-.2.7-.3.2-.2.4-.4.5-.6.1-.3.2-.6.2-.9 0-.6-.2-1-.6-1.3-.4-.3-1-.4-1.7-.4h-1.9v-.1Zm12.6 8.2c-.1.1-.2.2-.4.2-.1.1-.3.2-.5.3-.2.1-.5.1-.7.2-.3.1-.6.1-.9.1-1.2 0-2.2-.3-2.8-1-.6-.7-1-1.6-1-2.8 0-.6.1-1.1.3-1.6.2-.5.4-.9.7-1.2.3-.3.7-.6 1.1-.7.4-.2.9-.3 1.4-.3.5 0 1 .1 1.4.3.4.2.7.4 1 .8.3.3.5.8.5 1.3.1.5.1 1.1 0 1.8h-5.1c0 .8.3 1.4.7 1.8.4.4 1 .6 1.9.6.6 0 1-.1 1.4-.2.4-.1.7-.3 1-.5v.9Zm-2.9-5.7c-.5 0-1 .2-1.4.5-.4.3-.6.8-.7 1.5h3.9c0-.7-.1-1.2-.5-1.5-.3-.4-.8-.5-1.3-.5Zm10.3 5.7c-.1.1-.2.2-.4.2s-.3.2-.5.3c-.2.1-.5.1-.7.2-.3.1-.6.1-.9.1-1.2 0-2.2-.3-2.8-1-.6-.7-1-1.6-1-2.8 0-.6.1-1.1.3-1.6.2-.5.4-.9.7-1.2.3-.3.7-.6 1.1-.7.4-.2.9-.3 1.4-.3.5 0 1 .1 1.4.3.4.2.7.4 1 .8.3.3.5.8.5 1.3.1.5.1 1.1 0 1.8h-5.1c0 .8.3 1.4.7 1.8.4.4 1 .6 1.9.6.6 0 1-.1 1.4-.2.4-.1.7-.3 1-.5v.9Zm-2.9-5.7c-.5 0-1 .2-1.4.5-.4.3-.6.8-.7 1.5h3.9c0-.7-.1-1.2-.5-1.5-.3-.4-.7-.5-1.3-.5Zm8.1.3c-.5 0-1 .2-1.4.4-.4.2-.7.6-.9 1v4.6h-1.2v-7.3h1.1l.1 1.6c.2-.4.5-.8.9-1.1.4-.3.9-.5 1.5-.6l-.1 1.4Zm2.2-2.3c-.3 0-.5-.1-.6-.2-.1-.2-.2-.3-.2-.6s.1-.4.2-.6c.1-.2.3-.2.6-.2.2 0 .4.1.6.2.1.2.2.4.2.6 0 .2-.1.4-.2.6-.2.1-.4.2-.6.2Zm.6 1v7.3h-1.2v-7.3h1.2Zm5.4 1c-.6 0-1 .1-1.4.4-.3.3-.6.6-.8 1v4.9h-1.2v-7.3h1.2v1.3c.2-.4.5-.8.9-1 .4-.3 1-.4 1.6-.4.7 0 1.3.2 1.7.6.4.4.6 1 .6 1.7v5.1h-1.2v-5c0-.5-.1-.9-.4-1.1-.2-.1-.5-.2-1-.2Zm10.9 5.7c0 .5-.1.9-.2 1.3s-.3.7-.6 1c-.3.3-.7.5-1.1.6-.5.1-1 .2-1.7.2-.4 0-.7 0-.9-.1-.3 0-.5-.1-.7-.2-.2-.1-.4-.1-.5-.2-.1-.1-.3-.1-.3-.2v-1.1c.1.1.3.2.5.2.2.1.4.1.5.2.2.1.4.1.7.1.3 0 .5.1.9.1.9 0 1.5-.2 1.9-.5.4-.3.5-.8.5-1.5v-1.1c-.2.4-.5.8-.9 1-.4.3-.9.4-1.4.4-.4 0-.8-.1-1.2-.2-.4-.1-.7-.4-1-.7-.3-.3-.5-.7-.7-1.1-.2-.4-.3-1-.3-1.6 0-.6.1-1.1.3-1.6.2-.4.4-.8.7-1.1.3-.3.6-.5 1-.7.4-.1.8-.2 1.2-.2.6 0 1.1.1 1.5.4.4.3.7.6.9 1.1v-.8c0-.2 0-.4.1-.6h1.1c0 .1 0 .3-.1.6v6.3h-.2Zm-3.4-.8c.3 0 .6 0 .8-.1.3-.1.5-.3.7-.5.2-.2.3-.5.4-.8.1-.3.2-.7.2-1.1 0-.8-.2-1.5-.6-1.9-.4-.4-.9-.6-1.5-.6-.3 0-.6.1-.9.2-.3.1-.5.3-.7.5-.2.2-.3.5-.4.8-.1.3-.2.7-.2 1.1 0 .4.1.8.2 1.1.1.3.3.6.5.8.2.2.4.3.7.4.2 0 .5.1.8.1Z"/>
    <path fill="#5282FF" fill-rule="evenodd" d="M763.4 694.9c.6-.6 1.1-.9 1.6-.9s1 .2 1.6.9c.6.6 1.2 1.6 1.7 2.9.9 2.4 1.6 5.6 1.7 9.2h-10c.1-3.6.7-6.9 1.7-9.2.5-1.3 1.1-2.3 1.7-2.9ZM758 707c.1-3.8.8-7.3 1.8-10 .4-.9.8-1.8 1.3-2.5-5.5 1.6-9.6 6.5-10.1 12.5h7Zm-7 2h7c.1 3.8.8 7.3 1.8 10 .4.9.8 1.8 1.3 2.5-5.5-1.7-9.6-6.6-10.1-12.5Zm-2-1c0-8.8 7.2-16 16-16s16 7.2 16 16-7.2 16-16 16-16-7.2-16-16Zm30-1c-.4-5.9-4.5-10.8-10.1-12.5.5.7.9 1.5 1.3 2.5 1.1 2.6 1.7 6.1 1.8 10h7Zm-7 2h7c-.4 5.9-4.5 10.8-10.1 12.5.5-.7.9-1.5 1.3-2.5 1-2.7 1.7-6.2 1.8-10Zm-2 0c-.1 3.6-.7 6.9-1.7 9.2-.5 1.3-1.1 2.3-1.7 2.9-.6.6-1.1.9-1.6.9s-1-.2-1.6-.9c-.6-.6-1.2-1.6-1.7-2.9-.9-2.4-1.6-5.6-1.7-9.2h10Z" clip-rule="evenodd"/>
    <path fill="#fff" stroke="#FF5958" stroke-width="2" d="M562 21h172c2.2 0 4 1.8 4 4v72c0 2.2-1.8 4-4 4H562c-2.2 0-4-1.8-4-4V25c0-2.2 1.8-4 4-4Z"/>
    <path fill="#000" fill-opacity=".85" d="M595.9 36.7h4.6c1.6 0 2.9.3 3.8 1 .9.7 1.4 1.7 1.4 3.1 0 .8-.1 1.5-.4 2.1-.3.6-.6 1-1.1 1.4-.5.4-1 .6-1.7.8-.6.2-1.4.3-2.1.3h-2.5V51H596l-.1-14.3Zm1.9 1.7v5.3h2.5c.5 0 1-.1 1.4-.2.4-.1.8-.3 1.1-.5.3-.2.5-.5.7-.9.2-.4.3-.8.3-1.3 0-.9-.3-1.5-.8-1.9-.6-.4-1.4-.6-2.4-.6h-2.8v.1Zm13.9 12.8c-.7 0-1.4-.1-2-.4-.6-.2-1.1-.6-1.6-1-.4-.5-.8-1-1-1.7-.3-.7-.4-1.4-.4-2.3 0-.9.1-1.6.4-2.3.3-.7.6-1.2 1-1.7.5-.5 1-.8 1.6-1 .6-.2 1.3-.4 2-.4s1.4.1 2 .4c.6.2 1.1.6 1.6 1 .5.5.8 1 1.1 1.7.3.7.4 1.4.4 2.3 0 .9-.1 1.6-.4 2.3-.3.7-.6 1.2-1.1 1.7-.4.5-1 .8-1.6 1-.6.3-1.2.4-2 .4Zm0-1.6c.5 0 .9-.1 1.3-.2.4-.2.7-.4 1-.7.3-.3.5-.7.7-1.2.2-.5.2-1 .2-1.7s-.1-1.2-.2-1.7c-.2-.5-.4-.9-.7-1.2-.3-.3-.6-.6-1-.7-.4-.2-.8-.2-1.3-.2s-.9.1-1.3.2-.7.4-1 .7c-.3.3-.5.7-.7 1.2-.2.5-.2 1-.2 1.7s.1 1.2.2 1.7.4.9.7 1.2c.3.3.6.5 1 .7.5.1.9.2 1.3.2Zm7.5-12.9h4.6c1.6 0 2.9.3 3.8 1 .9.7 1.4 1.7 1.4 3.1 0 .8-.1 1.5-.4 2.1-.3.6-.6 1-1.1 1.4-.5.4-1 .6-1.7.8-.6.2-1.4.3-2.1.3h-2.5V51h-1.9l-.1-14.3Zm1.9 1.7v5.3h2.5c.5 0 1-.1 1.4-.2.4-.1.8-.3 1.1-.5.3-.2.5-.5.7-.9.2-.4.3-.8.3-1.3 0-.9-.3-1.5-.8-1.9-.5-.4-1.4-.6-2.4-.6h-2.8v.1Zm19.9 0V51h-1.9V38.4h-4.4v-1.7h10.7v1.7H641Zm6.7-1.7h8.9v1.7h-7v4.3h5.9v1.7h-5.9v4.9h7.1V51h-9V36.7Zm21.2 8h-7.4V51h-1.9V36.7h1.9V43h7.4v-6.4h1.9V51h-1.9v-6.3Zm16.8 6.3h-2.6L676 39v12h-1.8V36.7h2.5l7.2 12v-12h1.8V51Zm9.4.2c-1 0-1.9-.2-2.7-.5-.8-.3-1.6-.8-2.2-1.4-.6-.6-1.1-1.4-1.5-2.3-.3-.9-.5-2-.5-3.2 0-1.2.2-2.3.5-3.2.4-.9.8-1.7 1.5-2.3.6-.6 1.3-1.1 2.2-1.4.8-.3 1.7-.5 2.7-.5 1 0 1.9.2 2.7.5.8.3 1.6.8 2.2 1.4.6.6 1.1 1.4 1.4 2.3.3.9.5 2 .5 3.2 0 1.2-.2 2.2-.5 3.2-.3.9-.8 1.7-1.4 2.3-.6.6-1.3 1.1-2.2 1.4-.8.3-1.8.5-2.7.5Zm0-1.7c.7 0 1.3-.1 1.9-.3.6-.2 1.1-.5 1.5-1 .4-.5.8-1 1-1.8.3-.7.4-1.6.4-2.6s-.1-1.9-.4-2.6c-.2-.7-.6-1.3-1-1.7-.4-.5-.9-.8-1.5-1-.6-.2-1.2-.3-1.9-.3s-1.3.1-1.9.3c-.6.2-1.1.5-1.5 1-.4.4-.8 1-1 1.7-.2.7-.4 1.6-.4 2.6s.1 1.9.4 2.6c.3.7.6 1.3 1 1.8.4.4 1 .8 1.5 1 .5.2 1.2.3 1.9.3Z"/>
    <path fill="#5282FF" fill-rule="evenodd" d="M678.4 61.9c.6-.6 1.1-.9 1.6-.9s1 .2 1.6.9c.6.6 1.2 1.6 1.7 2.9.9 2.4 1.6 5.6 1.7 9.2h-10c.1-3.6.7-6.9 1.7-9.2.5-1.3 1.1-2.3 1.7-2.9ZM673 74c.1-3.8.8-7.3 1.8-10 .4-.9.8-1.8 1.3-2.5-5.5 1.6-9.6 6.5-10.1 12.4l7 .1Zm-7 2h7c.1 3.8.8 7.3 1.8 10 .4.9.8 1.8 1.3 2.5-5.5-1.6-9.6-6.6-10.1-12.5Zm-2-1c0-8.8 7.2-16 16-16s16 7.2 16 16-7.2 16-16 16-16-7.2-16-16Zm30-1c-.4-5.9-4.5-10.9-10.1-12.4.5.7.9 1.6 1.3 2.5 1.1 2.6 1.7 6.1 1.8 10l7-.1Zm-7 2h7c-.4 5.9-4.5 10.9-10.1 12.4.5-.7.9-1.6 1.3-2.5 1-2.6 1.7-6.1 1.8-9.9Zm-2 0c-.1 3.6-.7 6.9-1.7 9.2-.5 1.3-1.1 2.3-1.7 2.9-.6.6-1.1.9-1.6.9s-1-.2-1.6-.9c-.6-.6-1.2-1.6-1.7-2.9-.9-2.4-1.6-5.6-1.7-9.2h10Z" clip-rule="evenodd"/>
    <mask id="mask4_1_7" width="34" height="32" x="595" y="59" maskUnits="userSpaceOnUse" style="mask-type:luminance">
        <path fill="#fff" d="M629 59h-34v32h34V59Z"/>
    </mask>
    <g mask="url(#mask4_1_7)">
        <path fill="#5282FF" fill-rule="evenodd" d="M601.4 87.9v-3.7c0-.6.5-1.1 1.2-1.1h.9V80c0-.3.1-.5.4-.7.2-.2.4-.3.7-.3h7.5v-2h-11.7c-2.9 0-5.3-2-5.3-5 0-2.8 2.7-5 5.7-5h.8c.5-2.3 2.6-4 5.2-4 .6 0 1.1.1 1.7.3 1.1-2.5 3.8-4.3 6.8-4.3 4.1 0 7.4 3.1 7.4 7 0 .3 0 .7-.1 1h1.1c2.9 0 5.3 2.2 5.3 5s-2.4 5-5.3 5h-9.6v2h7.5c.1 0 .2 0 .7.3l.1.1c.2.2.3.4.3.6v3h.9c.7 0 1.2.5 1.2 1.1v3.7c0 .6-.5 1.1-1.2 1.1h-4c-.7 0-1.2-.5-1.2-1.1v-3.7c0-.6.5-1.1 1.2-1.1h.9v-2h-6.4v2h.9c.7 0 1.2.5 1.2 1.1v3.7c0 .6-.5 1.1-1.2 1.1h-4c-.7 0-1.2-.5-1.2-1.1v-3.7c0-.6.5-1.1 1.2-1.1h.9v-2h-6.4v2h.9c.7 0 1.2.5 1.2 1.1v3.7c0 .6-.5 1.1-1.2 1.1h-4c-.5.1-1-.4-1-1Zm20.9-8.6c-.1 0-.1-.1 0 0-.1 0-.1 0 0 0Zm0 0c-.2-.1-.3-.2 0 0-.1-.1-.1-.1 0 0Z" clip-rule="evenodd"/>
    </g>
    <path fill="#5282FF" d="m407 267-10-5.8-.1 11.5L407 267Zm-185-1 10 5.8.1-11.5L222 266Zm176 0-167-1v2l167 .9V266Zm54-46-.7-11.5-9.7 6.3L452 220Zm-76-116 .7 11.5 9.7-6.3L376 104Zm71.9 107.9L381.8 111l-1.7 1.1L446.2 213l1.7-1.1ZM591 220l9.7-6.2-10.2-5.3.5 11.5Zm59-113-9.7 6.2 10.2 5.3-.5-11.5Zm-53.9 105.5 50.7-97-1.8-.9-50.7 97 1.8.9ZM777 267l-10-5.8v11.5l10-5.7Zm-141 0 10 5.8v-11.5l-10 5.7Zm132-1H645v2h123v-2Zm11 152-10-5.8v11.5l10-5.7Zm-73 0 10 5.8v-11.5l-10 5.7Zm64-1h-55v2h55v-2Zm-457 1-10-5.8v11.5l10-5.7Zm-91 0 10 5.8v-11.5l-10 5.7Zm82-1h-73v2h73v-2Zm71 48-11.1 3.2 8.3 8L375 465Zm-91 94 11.1-3.2-8.3-8L284 559Zm84-88.2-78.5 81.1 1.4 1.4 78.5-81.1-1.4-1.4Zm298-7.8 2.5 11.3 8.5-7.8-11-3.5Zm89 97-2.5-11.3-8.5 7.8 11 3.5Zm-83.7-89.7 76.8 83.7 1.5-1.4-76.8-83.6-1.5 1.3ZM518 467l-5.8 10h11.5l-5.7-10Zm0 93 5.8-10h-11.5l5.7 10Zm-1-84v75h2v-75h-2Z"/>
    <path fill="#fff" fill-rule="evenodd" stroke="#86829F" stroke-linecap="round" stroke-linejoin="round" stroke-width="2" d="M307 377.5c0 46.1 39 83.5 87.1 83.5h241.2c40.7 0 73.7-31.6 73.7-70.7 0-36.9-29.4-67.1-67-70.4v-.3c0-63.9-54-115.7-120.6-115.7-57.6 0-105.7 38.7-117.7 90.4-3.1-.3-6.3-.5-9.6-.5-48.1.2-87.1 37.5-87.1 83.7Z" clip-rule="evenodd"/>
    <path fill="#5282FF" fill-rule="evenodd" d="M353 412c0-.3.2-.8.6-1.2.5-.5 1.2-1 2.3-1.4 2-.8 4.9-1.4 8.1-1.4 3.2 0 6.1.5 8.1 1.4 1 .4 1.8.9 2.3 1.4.5.5.6.9.6 1.2 0 .3-.2.8-.6 1.2-.5.5-1.2 1-2.3 1.4-2 .8-4.9 1.4-8.1 1.4-3.2 0-6.1-.5-8.1-1.4-1-.4-1.8-.9-2.3-1.4-.4-.4-.6-.9-.6-1.2Zm-2 0c0-1 .5-1.9 1.2-2.7.7-.7 1.7-1.3 2.9-1.8 2.3-1 5.5-1.5 8.9-1.5 3.4 0 6.5.6 8.9 1.5 1.2.5 2.2 1.1 2.9 1.8.7.7 1.2 1.6 1.2 2.7v18c0 1-.5 1.9-1.2 2.7-.7.7-1.7 1.3-2.9 1.8-2.3 1-5.5 1.5-8.9 1.5-3.4 0-6.5-.6-8.9-1.5-1.2-.5-2.2-1.1-2.9-1.8-.7-.7-1.2-1.6-1.2-2.7v-18Zm24 3.3V430c0 .3-.2.8-.6 1.2-.5.5-1.2 1-2.3 1.4-2 .8-4.9 1.4-8.1 1.4-3.2 0-6.1-.5-8.1-1.4-1-.4-1.8-.9-2.3-1.4-.5-.5-.6-.9-.6-1.2v-14.7c.6.4 1.3.8 2.1 1.2 2.3 1 5.5 1.5 8.9 1.5 3.4 0 6.5-.6 8.9-1.5.8-.4 1.5-.8 2.1-1.2ZM504 222c0-.3.2-.8.6-1.2.5-.5 1.2-1 2.3-1.4 2-.8 4.9-1.4 8.1-1.4 3.2 0 6.1.5 8.1 1.4 1 .4 1.8.9 2.3 1.4.5.5.6.9.6 1.2 0 .3-.2.8-.6 1.2-.5.5-1.2 1-2.3 1.4-2 .8-4.9 1.4-8.1 1.4-3.2 0-6.1-.5-8.1-1.4-1-.4-1.8-.9-2.3-1.4-.4-.4-.6-.9-.6-1.2Zm-2 0c0-1 .5-1.9 1.2-2.7.7-.7 1.7-1.3 2.9-1.8 2.3-1 5.5-1.5 8.9-1.5 3.4 0 6.5.6 8.9 1.5 1.2.5 2.2 1.1 2.9 1.8.7.7 1.2 1.6 1.2 2.7v18c0 1-.5 1.9-1.2 2.7-.7.7-1.7 1.3-2.9 1.8-2.3 1-5.5 1.5-8.9 1.5-3.4 0-6.5-.6-8.9-1.5-1.2-.5-2.2-1.1-2.9-1.8-.7-.7-1.2-1.6-1.2-2.7v-18Zm24 3.3V240c0 .3-.2.8-.6 1.2-.5.5-1.2 1-2.3 1.4-2 .8-4.9 1.4-8.1 1.4-3.2 0-6.1-.5-8.1-1.4-1-.4-1.8-.9-2.3-1.4-.5-.5-.6-.9-.6-1.2v-14.7c.6.4 1.3.8 2.1 1.2 2.3 1 5.5 1.5 8.9 1.5 3.4 0 6.5-.6 8.9-1.5.8-.4 1.5-.8 2.1-1.2ZM637 411c0-.3.2-.8.6-1.2.5-.5 1.2-1 2.3-1.4 2-.8 4.9-1.4 8.1-1.4 3.2 0 6.1.5 8.1 1.4 1 .4 1.8.9 2.3 1.4.5.5.6.9.6 1.2 0 .3-.2.8-.6 1.2-.5.5-1.2 1-2.3 1.4-2 .8-4.9 1.4-8.1 1.4-3.2 0-6.1-.5-8.1-1.4-1-.4-1.8-.9-2.3-1.4-.4-.4-.6-.9-.6-1.2Zm-2 0c0-1 .5-1.9 1.2-2.7.7-.7 1.7-1.3 2.9-1.8 2.3-1 5.5-1.5 8.9-1.5 3.4 0 6.5.6 8.9 1.5 1.2.5 2.2 1.1 2.9 1.8.7.7 1.2 1.6 1.2 2.7v18c0 1-.5 1.9-1.2 2.7-.7.7-1.7 1.3-2.9 1.8-2.3 1-5.5 1.5-8.9 1.5-3.4 0-6.5-.6-8.9-1.5-1.2-.5-2.2-1.1-2.9-1.8-.7-.7-1.2-1.6-1.2-2.7v-18Zm24 3.3V429c0 .3-.2.8-.6 1.2-.5.5-1.2 1-2.3 1.4-2 .8-4.9 1.4-8.1 1.4-3.2 0-6.1-.5-8.1-1.4-1-.4-1.8-.9-2.3-1.4-.5-.5-.6-.9-.6-1.2v-14.7c.6.4 1.3.8 2.1 1.2 2.3 1 5.5 1.5 8.9 1.5 3.4 0 6.5-.6 8.9-1.5.8-.4 1.5-.8 2.1-1.2Zm-252.7-8c.4-.4 1-.4 1.4 0l4 4c.4.4.4 1 0 1.4-.4.4-1 .4-1.4 0l-2.3-2.3v23.2l2.3-2.3c.4-.4 1-.4 1.4 0 .4.4.4 1 0 1.4l-4 4c-.4.4-1 .4-1.4 0l-4-4c-.4-.4-.4-1 0-1.4.4-.4 1-.4 1.4 0l2.3 2.3v-23.2l-2.3 2.3c-.4.4-1 .4-1.4 0-.4-.4-.4-1 0-1.4l4-4ZM422 421c0 .6-.4 1-1 1h-7.6l2.3 2.3c.4.4.4 1 0 1.4-.4.4-1 .4-1.4 0l-4-4c-.4-.4-.4-1 0-1.4l4-4c.4-.4 1-.4 1.4 0 .4.4.4 1 0 1.4l-2.3 2.3h7.6c.6 0 1 .4 1 1Zm-30 0c0-.6.4-1 1-1h7.6l-2.3-2.3c-.4-.4-.4-1 0-1.4.4-.4 1-.4 1.4 0l4 4c.4.4.4 1 0 1.4l-4 4c-.4.4-1 .4-1.4 0-.4-.4-.4-1 0-1.4l2.3-2.3H393c-.6 0-1-.4-1-1Zm213.3-13.7c.4-.4 1-.4 1.4 0l4 4c.4.4.4 1 0 1.4-.4.4-1 .4-1.4 0l-2.3-2.3v23.2l2.3-2.3c.4-.4 1-.4 1.4 0 .4.4.4 1 0 1.4l-4 4c-.4.4-1 .4-1.4 0l-4-4c-.4-.4-.4-1 0-1.4.4-.4 1-.4 1.4 0l2.3 2.3v-23.2l-2.3 2.3c-.4.4-1 .4-1.4 0-.4-.4-.4-1 0-1.4l4-4ZM621 422c0 .6-.4 1-1 1h-7.6l2.3 2.3c.4.4.4 1 0 1.4-.4.4-1 .4-1.4 0l-4-4c-.4-.4-.4-1 0-1.4l4-4c.4-.4 1-.4 1.4 0 .4.4.4 1 0 1.4l-2.3 2.3h7.6c.6 0 1 .4 1 1Zm-30 0c0-.6.4-1 1-1h7.6l-2.3-2.3c-.4-.4-.4-1 0-1.4.4-.4 1-.4 1.4 0l4 4c.4.4.4 1 0 1.4l-4 4c-.4.4-1 .4-1.4 0-.4-.4-.4-1 0-1.4l2.3-2.3H592c-.6 0-1-.4-1-1Zm-76.7-166.7c.4-.4 1-.4 1.4 0l4 4c.4.4.4 1 0 1.4-.4.4-1 .4-1.4 0l-2.3-2.3v23.2l2.3-2.3c.4-.4 1-.4 1.4 0 .4.4.4 1 0 1.4l-4 4c-.4.4-1 .4-1.4 0l-4-4c-.4-.4-.4-1 0-1.4.4-.4 1-.4 1.4 0l2.3 2.3v-23.2l-2.3 2.3c-.4.4-1 .4-1.4 0-.4-.4-.4-1 0-1.4l4-4ZM530 270c0 .6-.4 1-1 1h-7.6l2.3 2.3c.4.4.4 1 0 1.4-.4.4-1 .4-1.4 0l-4-4c-.4-.4-.4-1 0-1.4l4-4c.4-.4 1-.4 1.4 0 .4.4.4 1 0 1.4l-2.3 2.3h7.6c.6 0 1 .4 1 1Zm-30 0c0-.6.4-1 1-1h7.6l-2.3-2.3c-.4-.4-.4-1 0-1.4.4-.4 1-.4 1.4 0l4 4c.4.4.4 1 0 1.4l-4 4c-.4.4-1 .4-1.4 0-.4-.4-.4-1 0-1.4l2.3-2.3H501c-.6 0-1-.4-1-1Z" clip-rule="evenodd"/>
    <path fill="#000" d="M439.8 333.2v7.8h-2.4v-7.7l-6.1-10.2h2.7l4.7 8.1 4.8-8.1h2.4l-6.1 10.1Zm14.6 5.3c-.1.3-.3.6-.6.9-.2.3-.5.6-.9.9-.3.3-.8.5-1.2.6-.5.2-1 .2-1.7.2-1.2 0-2.1-.3-2.8-1-.7-.7-1.1-1.6-1.1-2.8 0-1.4.5-2.5 1.5-3.1 1-.7 2.4-1 4.2-1h2.4v-1.1c0-.9-.2-1.5-.7-1.9-.5-.4-1.3-.6-2.4-.6-.8 0-1.6.1-2.3.4-.7.3-1.4.6-1.9.9v-2c.5-.3 1.1-.6 1.9-.8.8-.3 1.7-.4 2.6-.4 1.6 0 2.9.3 3.7 1 .8.7 1.3 1.7 1.3 3.1v9.1h-2c0-.2-.1-.6-.1-1s-.1-.8-.1-1.1l.2-.3Zm-3.9.7c.7 0 1.3-.1 1.7-.4.5-.3.9-.6 1.2-1 .3-.4.5-.7.6-1.1.1-.4.2-.6.2-.8v-1H452c-1.3 0-2.3.2-2.9.6-.6.4-.9.9-.9 1.7 0 .6.2 1.1.5 1.4.3.3 1 .6 1.8.6Zm15.5-9.5c-1 0-1.8.2-2.4.7-.6.5-1.1 1-1.5 1.8v8.8h-2.2v-13h2.1l.1 2.3c.3-.7.9-1.4 1.6-1.8.7-.5 1.7-.7 2.8-.7 1.3 0 2.3.3 3.1 1 .8.7 1.1 1.7 1.1 3.1v9.1h-2.2v-8.9c0-.9-.2-1.5-.7-1.9-.5-.4-1-.5-1.8-.5Zm17.5 8.7c-.4.8-1 1.5-1.7 2s-1.6.8-2.7.8c-.8 0-1.5-.1-2.2-.4-.7-.3-1.3-.7-1.8-1.2-.5-.6-1-1.3-1.3-2.1-.3-.8-.5-1.8-.5-3 0-1.1.2-2.1.5-3 .3-.8.7-1.5 1.3-2.1.6-.6 1.2-1 1.9-1.2.7-.3 1.5-.4 2.2-.4 1 0 1.8.2 2.5.6.7.4 1.3 1 1.7 1.7v-7h2.2V341h-1.9l-.2-2.6Zm-4 .8c.6 0 1.1-.1 1.6-.3.5-.2.9-.5 1.3-.9s.6-.9.8-1.5c.2-.6.3-1.3.3-2.1s-.1-1.5-.3-2.1c-.2-.6-.5-1.1-.8-1.5-.4-.4-.8-.7-1.3-.9-.5-.2-1-.3-1.6-.3-1.1 0-2.1.4-2.8 1.2-.7.8-1.1 2-1.1 3.6s.4 2.8 1.1 3.6c.7.8 1.6 1.2 2.8 1.2Zm20.1.6c-.2.1-.4.3-.7.4-.3.1-.6.3-1 .4-.4.1-.8.3-1.3.3-.5.1-1 .1-1.6.1-2.2 0-3.8-.6-5-1.8-1.1-1.2-1.7-2.8-1.7-5 0-1 .2-2 .5-2.8.3-.8.7-1.5 1.3-2.1.5-.6 1.2-1 1.9-1.3.7-.3 1.6-.5 2.4-.5.9 0 1.8.2 2.5.5s1.3.8 1.8 1.4c.5.6.8 1.4 1 2.3.2.9.2 2 0 3.2h-9.1c.1 1.4.5 2.5 1.2 3.2.7.7 1.9 1 3.3 1 1 0 1.9-.1 2.6-.4.7-.3 1.3-.6 1.8-.9v2h.1Zm-5.2-10.1c-.9 0-1.8.3-2.4.9-.7.6-1.1 1.5-1.3 2.6h7c.1-1.2-.2-2.1-.8-2.7-.7-.5-1.5-.8-2.5-.8Zm12.3 6.1-3.5 5.1h-2.3l4.7-6.7-4.1-6.2h2.5l3.1 4.6 3.1-4.6h2.3l-4.3 6.2 4.5 6.8h-2.5l-3.5-5.2Zm21.8 5.4c-1.3 0-2.5-.2-3.6-.6-1.1-.4-2-1-2.8-1.8-.8-.8-1.4-1.8-1.8-2.9-.4-1.1-.6-2.4-.6-3.9 0-1.4.2-2.7.6-3.9.4-1.1.9-2.1 1.7-2.9.7-.8 1.7-1.4 2.8-1.8 1.1-.4 2.3-.6 3.7-.6 1.2 0 2.3.1 3.2.4.9.3 1.7.6 2.2.9v2.2c-.7-.5-1.6-.8-2.6-1.1-1-.2-1.9-.3-2.9-.3-2.1 0-3.7.6-4.7 1.8-1 1.2-1.5 2.9-1.5 5.3s.5 4.2 1.6 5.3c1.1 1.2 2.7 1.7 4.8 1.7.9 0 1.8-.1 2.7-.4.9-.2 1.7-.7 2.5-1.3v2.2c-.5.4-1.2.7-2.1 1-.9.3-2 .7-3.2.7Zm10.8-18.2v17.9h-2.2V323h2.2Zm8.9 18.2c-.9 0-1.7-.1-2.5-.4-.8-.3-1.4-.7-2-1.3-.6-.6-1-1.3-1.3-2.1-.3-.8-.5-1.8-.5-2.9 0-1.1.2-2 .5-2.9.3-.9.8-1.5 1.3-2.1.6-.6 1.2-1 2-1.3.8-.3 1.6-.4 2.5-.4.9 0 1.7.1 2.5.4.8.3 1.4.7 2 1.3.6.6 1 1.3 1.3 2.1.3.8.5 1.8.5 2.9 0 1.1-.2 2-.5 2.9-.3.8-.8 1.5-1.3 2.1-.5.6-1.2 1-2 1.3-.8.3-1.6.4-2.5.4Zm0-2c.6 0 1.1-.1 1.6-.3.5-.2.9-.5 1.3-.9s.6-.9.8-1.5c.2-.6.3-1.3.3-2.1s-.1-1.5-.3-2.1c-.2-.6-.5-1.1-.8-1.5-.4-.4-.8-.7-1.3-.9-.5-.2-1-.3-1.6-.3-.6 0-1.1.1-1.6.3-.5.2-.9.5-1.3.9s-.6.9-.8 1.5c-.2.6-.3 1.3-.3 2.1s.1 1.5.3 2.1c.2.6.5 1.1.8 1.5.4.4.8.7 1.3.9.5.2 1 .3 1.6.3Zm15.7 1.2c-.7.5-1.7.7-2.8.7-1.2 0-2.2-.3-2.9-1-.7-.7-1.1-1.7-1.1-3.1v-9h2.2v9.1c0 .4.1.8.2 1.1.1.3.3.5.5.7.2.2.5.3.8.4.3.1.6.1 1 .1 1 0 1.7-.2 2.3-.7.6-.4 1.1-1 1.5-1.8V328h2.2v13h-1.9l-.2-2.3c-.5.6-1.1 1.2-1.8 1.7Zm16.7-2c-.4.8-1 1.5-1.7 2s-1.6.8-2.7.8c-.8 0-1.5-.1-2.2-.4-.7-.3-1.3-.7-1.8-1.2-.5-.6-1-1.3-1.3-2.1-.3-.8-.5-1.8-.5-3 0-1.1.2-2.1.5-3 .3-.8.7-1.5 1.3-2.1.6-.6 1.2-1 1.9-1.2.7-.3 1.5-.4 2.2-.4 1 0 1.8.2 2.5.6.7.4 1.3 1 1.7 1.7v-7h2.2V341h-1.9l-.2-2.6Zm-4.1.8c.6 0 1.1-.1 1.6-.3.5-.2.9-.5 1.3-.9s.6-.9.8-1.5c.2-.6.3-1.3.3-2.1s-.1-1.5-.3-2.1c-.2-.6-.5-1.1-.8-1.5-.4-.4-.8-.7-1.3-.9-.5-.2-1-.3-1.6-.3-1.1 0-2.1.4-2.8 1.2-.7.8-1.1 2-1.1 3.6s.4 2.8 1.1 3.6c.8.8 1.7 1.2 2.8 1.2ZM437.9 371c-.4.1-.9.1-1.3.1-.6 0-1.2-.1-1.6-.3-.4-.2-.8-.4-1.1-.7-.3-.3-.5-.7-.6-1-.1-.4-.2-.8-.2-1.2v-8.1h-1.5v-1.9h1.5v-2.7h2.2v2.7h3.8v1.9h-3.8v7.8c0 .6.1 1 .4 1.2.3.3.8.4 1.5.4.6 0 1.2-.2 1.8-.5v2c-.4.1-.7.2-1.1.3Zm7.8-10.2c-.8.4-1.3 1-1.7 1.8v8.2h-2.2v-13h1.9l.2 2.8c.4-.8.9-1.4 1.6-2 .7-.6 1.6-.9 2.6-1.1v2.4c-.8.3-1.6.5-2.4.9Zm12.6 7.6c-.1.3-.3.6-.6.9-.2.3-.5.6-.9.9-.3.3-.8.5-1.2.6-.5.2-1 .2-1.7.2-1.2 0-2.1-.3-2.8-1-.7-.7-1.1-1.6-1.1-2.8 0-1.4.5-2.5 1.5-3.1 1-.7 2.4-1 4.2-1h2.4V362c0-.9-.2-1.5-.7-1.9-.5-.4-1.3-.6-2.4-.6-.8 0-1.6.1-2.3.4-.7.3-1.4.6-1.9.9v-2c.5-.3 1.1-.6 1.9-.8.8-.3 1.7-.4 2.6-.4 1.6 0 2.9.3 3.7 1 .8.7 1.3 1.7 1.3 3.1v9.1h-2c0-.2-.1-.6-.1-1s-.1-.8-.1-1.1l.2-.3Zm-3.9.8c.7 0 1.3-.1 1.7-.4.5-.3.9-.6 1.2-1 .3-.4.5-.7.6-1.1.1-.4.2-.6.2-.8v-1H456c-1.3 0-2.3.2-2.9.6-.6.4-.9.9-.9 1.7 0 .6.2 1.1.5 1.4.3.3.9.6 1.7.6Zm12.4-9.4v11.1h-2.2v-11.1H463v-1.9h1.6v-.3c0-1.5.4-2.7 1.2-3.6.8-.9 1.9-1.3 3.3-1.3.6 0 1.2.1 1.6.2v2c-.1-.1-.4-.1-.6-.2-.3 0-.6-.1-.9-.1-.8 0-1.4.2-1.8.7-.4.5-.7 1.2-.7 2.2v.3h3.7v1.9l-3.6.1Zm8.9 0v11.1h-2.2v-11.1h-1.6v-1.9h1.6v-.3c0-1.5.4-2.7 1.2-3.6.8-.9 1.9-1.3 3.3-1.3.6 0 1.2.1 1.6.2v2c-.1-.1-.4-.1-.6-.2-.3 0-.6-.1-.9-.1-.8 0-1.4.2-1.8.7-.4.5-.7 1.2-.7 2.2v.3h3.7v1.9l-3.6.1Zm7.4-3.8c-.4 0-.8-.1-1.1-.4-.3-.3-.4-.6-.4-1s.1-.7.4-1c.3-.3.6-.4 1.1-.4.4 0 .8.1 1 .4.2.3.4.6.4 1s-.1.7-.4 1c-.2.3-.5.4-1 .4Zm1.1 1.9v13H482v-13h2.2Zm9.2 13.2c-1 0-1.9-.2-2.7-.5-.8-.3-1.5-.7-2.1-1.3-.6-.6-1-1.3-1.3-2.1-.3-.8-.4-1.8-.4-2.8 0-1 .2-2 .5-2.8.3-.8.7-1.5 1.3-2.1.6-.6 1.3-1 2.1-1.3.8-.3 1.7-.5 2.8-.5.8 0 1.5.1 2.2.3.7.2 1.2.4 1.6.8v2c-.5-.3-1.1-.6-1.8-.8-.7-.2-1.3-.3-2-.3-1.5 0-2.6.4-3.3 1.2-.7.8-1.1 2-1.1 3.6s.3 2.8 1 3.6c.7.8 1.8 1.2 3.2 1.2.8 0 1.5-.1 2.2-.3.7-.2 1.3-.4 1.8-.7v2c-.5.3-1 .5-1.7.7-.7 0-1.5.1-2.3.1Zm18.2-11.5c-1 0-1.8.2-2.4.7-.6.5-1.1 1-1.5 1.8v8.8h-2.2v-13h2.1l.1 2.3c.3-.7.9-1.4 1.6-1.8.7-.5 1.7-.7 2.8-.7 1.3 0 2.3.3 3.1 1 .8.7 1.1 1.7 1.1 3.1v9.1h-2.2V362c0-.9-.2-1.5-.7-1.9-.5-.4-1-.5-1.8-.5Zm18.5 10.2c-.2.1-.4.3-.7.4-.3.1-.6.3-1 .4-.4.1-.8.3-1.3.3-.5.1-1 .1-1.6.1-2.2 0-3.8-.6-5-1.8-1.1-1.2-1.7-2.8-1.7-5 0-1 .2-2 .5-2.8.3-.8.7-1.5 1.3-2.1.5-.6 1.2-1 1.9-1.3.7-.3 1.6-.5 2.4-.5.9 0 1.8.2 2.5.5s1.3.8 1.8 1.4c.5.6.8 1.4 1 2.3.2.9.2 2 0 3.2h-9.1c.1 1.4.5 2.5 1.2 3.2.7.7 1.9 1 3.3 1 1 0 1.9-.1 2.6-.4.7-.3 1.3-.6 1.8-.9l.1 2Zm-5.1-10.2c-.9 0-1.8.3-2.4.9-.7.6-1.1 1.5-1.3 2.6h7c.1-1.2-.2-2.1-.8-2.7-.7-.5-1.5-.8-2.5-.8Zm13.4 11.4c-.4.1-.9.1-1.3.1-.6 0-1.2-.1-1.6-.3-.4-.2-.8-.4-1.1-.7-.3-.3-.5-.7-.6-1-.1-.4-.2-.8-.2-1.2v-8.1H532v-1.9h1.5v-2.7h2.2v2.7h3.8v1.9h-3.8v7.8c0 .6.1 1 .4 1.2.3.2.8.4 1.5.4.6 0 1.2-.2 1.8-.5v2c-.3.1-.6.2-1 .3Zm18-.1H553l-2.7-10-2.8 10h-3.3l-2.9-13h2.3l2.5 11.3 3.1-11.3h2.5l3.1 11.2 2.4-11.2h2.2l-3 13Zm10.7.2c-.9 0-1.7-.1-2.5-.4-.8-.3-1.4-.7-2-1.3-.6-.6-1-1.3-1.3-2.1-.3-.8-.5-1.8-.5-2.9 0-1.1.2-2 .5-2.9.3-.9.8-1.5 1.3-2.1.6-.6 1.2-1 2-1.3.8-.3 1.6-.4 2.5-.4.9 0 1.7.1 2.5.4.8.3 1.4.7 2 1.3.6.6 1 1.3 1.3 2.1.3.8.5 1.8.5 2.9 0 1.1-.2 2-.5 2.9-.3.8-.8 1.5-1.3 2.1-.5.6-1.2 1-2 1.3-.8.3-1.6.4-2.5.4Zm0-1.9c.6 0 1.1-.1 1.6-.3.5-.2.9-.5 1.3-.9s.6-.9.8-1.5c.2-.6.3-1.3.3-2.1s-.1-1.5-.3-2.1c-.2-.6-.5-1.1-.8-1.5-.4-.4-.8-.7-1.3-.9-.5-.2-1-.3-1.6-.3-.6 0-1.1.1-1.6.3-.5.2-.9.5-1.3.9s-.6.9-.8 1.5c-.2.6-.3 1.3-.3 2.1s.1 1.5.3 2.1c.2.6.5 1.1.8 1.5.4.4.8.7 1.3.9.5.2 1 .3 1.6.3Zm12.8-8.4c-.8.4-1.3 1-1.7 1.8v8.2H576v-13h1.9l.2 2.8c.4-.8.9-1.4 1.6-2 .7-.6 1.6-.9 2.6-1.1v2.4c-.8.3-1.6.5-2.4.9Zm8.6 4.6h-1.1v5.5h-2.2V353h2.2v10.5h1.2l4.5-5.6h2.5l-5.3 6.4 5.4 6.6H593l-4.5-5.5Z"/>
    <path fill="#5282FF" fill-rule="evenodd" d="M111 699c0-.3.2-.8.6-1.2.5-.5 1.2-1 2.3-1.4 2-.8 4.9-1.4 8.1-1.4 3.2 0 6.1.5 8.1 1.4 1 .4 1.8.9 2.3 1.4.5.5.6.9.6 1.2 0 .3-.2.8-.6 1.2-.5.5-1.2 1-2.3 1.4-2 .8-4.9 1.4-8.1 1.4-3.2 0-6.1-.5-8.1-1.4-1-.4-1.8-.9-2.3-1.4-.4-.4-.6-.9-.6-1.2Zm-2 0c0-1 .5-1.9 1.2-2.7.7-.7 1.7-1.3 2.9-1.8 2.3-1 5.5-1.5 8.9-1.5 3.4 0 6.5.6 8.9 1.5 1.2.5 2.2 1.1 2.9 1.8.7.7 1.2 1.6 1.2 2.7v18c0 1-.5 1.9-1.2 2.7-.7.7-1.7 1.3-2.9 1.8-2.3 1-5.5 1.5-8.9 1.5-3.4 0-6.5-.6-8.9-1.5-1.2-.5-2.2-1.1-2.9-1.8-.7-.7-1.2-1.6-1.2-2.7v-18Zm24 3.3V717c0 .3-.2.8-.6 1.2-.5.5-1.2 1-2.3 1.4-2 .8-4.9 1.4-8.1 1.4-3.2 0-6.1-.5-8.1-1.4-1-.4-1.8-.9-2.3-1.4-.5-.5-.6-.9-.6-1.2v-14.7c.6.4 1.3.8 2.1 1.2 2.3 1 5.5 1.5 8.9 1.5 3.4 0 6.5-.6 8.9-1.5.8-.4 1.5-.8 2.1-1.2Z" clip-rule="evenodd"/>
    <path fill="#000" d="M145.4 704.6h3.5c.7 0 1.3.1 1.9.2.6.2 1.1.4 1.6.8.4.4.8.9 1 1.5.2.6.4 1.4.4 2.3 0 .9-.1 1.7-.4 2.4-.3.7-.6 1.3-1.1 1.7-.5.4-1 .8-1.6 1-.6.2-1.3.4-2 .4h-3.3v-10.3Zm1.3 1.2v7.9h2c.5 0 1-.1 1.5-.2.4-.2.8-.4 1.1-.8.3-.3.6-.8.7-1.3.2-.5.3-1.2.3-1.9s-.1-1.3-.3-1.8c-.2-.5-.4-.9-.7-1.1-.3-.3-.7-.5-1.1-.6-.4-.1-.9-.2-1.4-.2h-2.1Zm18.5 9.1h-2l-2.3-8-2.3 8h-2l-2.3-10.3h1.4l2 9.2 2.6-9.2h1.2l2.6 9 1.9-9h1.3l-2.1 10.3Zm3.7-10.3h3.5c.7 0 1.3.1 1.9.2.6.2 1.1.4 1.6.8.4.4.8.9 1 1.5.2.6.4 1.4.4 2.3 0 .9-.1 1.7-.4 2.4-.3.7-.6 1.3-1.1 1.7-.5.4-1 .8-1.6 1-.6.2-1.3.4-2 .4h-3.3v-10.3Zm1.4 1.2v7.9h2c.5 0 1-.1 1.5-.2.4-.2.8-.4 1.1-.8.3-.3.6-.8.7-1.3.2-.5.3-1.2.3-1.9s-.1-1.3-.3-1.8c-.2-.5-.4-.9-.7-1.1-.3-.3-.7-.5-1.1-.6-.4-.1-.9-.2-1.4-.2h-2.1Zm13.9 6 3.4-7.2h1.8v10.3H188v-8.3l-3.2 6.7h-1.3l-3.1-6.8v8.4h-1.3v-10.3h1.9l3.2 7.2Zm16.5 2.5c-.1.1-.2.2-.4.2-.2.1-.3.2-.6.3-.2.1-.5.1-.7.2-.3.1-.6.1-.9.1-1.3 0-2.2-.3-2.9-1-.7-.7-1-1.6-1-2.9 0-.6.1-1.1.3-1.6.2-.5.4-.9.7-1.2.3-.3.7-.6 1.1-.8.4-.2.9-.3 1.4-.3.5 0 1 .1 1.4.3.4.2.8.5 1 .8.3.4.5.8.6 1.3.1.5.1 1.1 0 1.8h-5.3c0 .8.3 1.4.7 1.8.4.4 1.1.6 1.9.6.6 0 1.1-.1 1.5-.2.4-.2.8-.3 1-.5v1.1h.2Zm-3-5.9c-.5 0-1 .2-1.4.5-.4.3-.6.8-.7 1.5h4c0-.7-.1-1.2-.5-1.5-.4-.3-.8-.5-1.4-.5Zm11.2 9h-1.3v-3.9c-.2.5-.5.8-1 1.1-.4.3-.9.4-1.5.4-.5 0-.9-.1-1.3-.2-.4-.2-.8-.4-1.1-.7-.3-.3-.6-.7-.7-1.2-.2-.5-.3-1.1-.3-1.7 0-.7.1-1.2.3-1.7.2-.5.4-.9.7-1.2.3-.3.7-.6 1.1-.7.4-.1.8-.2 1.3-.2.6 0 1.1.1 1.5.4.4.3.8.6 1 1.1v-.7c0-.2 0-.4.1-.6h1.2c0 .1 0 .3-.1.6v9.2h.1Zm-3.6-3.5c.3 0 .6-.1.9-.2.3-.1.5-.3.7-.5.2-.2.4-.5.5-.9.1-.3.2-.8.2-1.2 0-.4-.1-.9-.2-1.2-.1-.3-.3-.6-.5-.9-.2-.2-.4-.4-.7-.5-.3-.1-.6-.2-.9-.2-.7 0-1.2.2-1.6.7-.4.5-.6 1.2-.6 2.1 0 .9.2 1.6.6 2.1.5.5 1 .7 1.6.7Zm9.5.7c-.4.3-1 .4-1.6.4-.7 0-1.3-.2-1.7-.6-.4-.4-.6-1-.6-1.8v-5.2h1.3v5.2c0 .2 0 .5.1.6.1.2.2.3.3.4.1.1.3.2.4.2.2 0 .4.1.6.1.6 0 1-.1 1.3-.4.3-.2.6-.6.9-1v-5.1h1.3v7.5H216l-.1-1.3c-.3.4-.6.7-1.1 1Zm5-8.3c-.3 0-.5-.1-.6-.2-.2-.2-.2-.4-.2-.6 0-.2.1-.4.2-.6.2-.2.4-.2.6-.2.2 0 .4.1.6.2.1.2.2.4.2.6 0 .2-.1.4-.2.6-.2.2-.4.2-.6.2Zm.6 1.1v7.5h-1.3v-7.5h1.3Zm5.8 7.6c-.6 0-1.1-.1-1.5-.4-.4-.3-.8-.6-1-1.1v3.9h-1.3v-10h1.1l.1 1.5c.2-.5.6-.9 1-1.2.4-.3.9-.4 1.6-.4.4 0 .8.1 1.2.2.4.1.7.4 1.1.7.3.3.5.7.7 1.2.2.5.3 1.1.3 1.7 0 .7-.1 1.2-.3 1.7-.2.5-.4.9-.7 1.2-.3.3-.7.6-1.1.7-.3.3-.8.3-1.2.3Zm-.2-1.1c.7 0 1.2-.2 1.6-.7.4-.5.6-1.1.6-2.1 0-.9-.2-1.6-.6-2.1-.4-.5-.9-.7-1.6-.7-.3 0-.6.1-.9.2-.3.1-.5.3-.7.5-.2.2-.4.5-.5.9-.1.4-.2.8-.2 1.2 0 .4.1.9.2 1.2.1.3.3.6.5.9.2.2.5.4.7.5.3.2.6.2.9.2Zm6.3 1H231v-7.5h1.1l.1 1.3c.2-.4.5-.8.9-1.1.4-.3.9-.4 1.6-.4.6 0 1 .1 1.4.4.4.3.6.7.7 1.2.2-.5.5-.9 1-1.2.4-.3 1-.4 1.6-.4.7 0 1.2.2 1.6.6.4.4.6 1 .6 1.8v5.2h-1.3v-5.1c0-.5-.1-.8-.4-1.1-.2-.2-.6-.3-1-.3-.3 0-.5 0-.7.1l-.6.3c-.2.1-.3.3-.4.5-.1.2-.3.4-.4.6v4.9h-1.3v-5.2c0-.5-.1-.8-.4-1-.2-.2-.6-.3-1-.3-.3 0-.5 0-.7.1l-.6.3c-.2.1-.3.3-.5.5-.1.2-.3.4-.4.6v5.2h.4Zm17.4-.6c-.1.1-.2.2-.4.2-.2.1-.3.2-.6.3-.2.1-.5.1-.7.2-.3.1-.6.1-.9.1-1.3 0-2.2-.3-2.9-1-.7-.7-1-1.6-1-2.9 0-.6.1-1.1.3-1.6.2-.5.4-.9.7-1.2.3-.3.7-.6 1.1-.8.4-.2.9-.3 1.4-.3.5 0 1 .1 1.4.3.4.2.8.5 1 .8.3.4.5.8.6 1.3.1.5.1 1.1 0 1.8h-5.3c0 .8.3 1.4.7 1.8.4.4 1.1.6 1.9.6.6 0 1.1-.1 1.5-.2.4-.2.8-.3 1-.5v1.1h.2Zm-2.9-5.9c-.5 0-1 .2-1.4.5-.4.3-.6.8-.7 1.5h4c0-.7-.1-1.2-.5-1.5-.4-.3-.9-.5-1.4-.5Zm8.2 0c-.6 0-1 .1-1.4.4-.4.3-.7.6-.9 1v5.1h-1.3v-7.5h1.2v1.3c.2-.4.5-.8 1-1.1.4-.3 1-.4 1.6-.4.7 0 1.3.2 1.8.6.4.4.7 1 .7 1.8v5.2h-1.3v-5.1c0-.5-.1-.9-.4-1.1-.3-.2-.6-.2-1-.2Zm7.8 6.6c-.2.1-.5.1-.8.1-.4 0-.7-.1-.9-.2-.2-.1-.5-.2-.6-.4-.2-.2-.3-.4-.4-.6-.1-.2-.1-.5-.1-.7v-4.6h-.9v-1.1h.9v-1.6h1.3v1.6h2.2v1.1h-2.2v4.5c0 .3.1.5.2.7.2.1.4.2.8.2s.7-.1 1-.3v1.1c-.1 0-.3.1-.5.2Z"/>
    <path fill="#5282FF" fill-rule="evenodd" d="M329.2 693.3c.4-.4 1-.4 1.4 0l4 4c.4.4.4 1 0 1.4-.4.4-1 .4-1.4 0l-2.3-2.3v23.2l2.3-2.3c.4-.4 1-.4 1.4 0 .4.4.4 1 0 1.4l-4 4c-.4.4-1 .4-1.4 0l-4-4c-.4-.4-.4-1 0-1.4.4-.4 1-.4 1.4 0l2.3 2.3v-23.2l-2.3 2.3c-.4.4-1 .4-1.4 0-.4-.4-.4-1 0-1.4l4-4Zm15.7 14.7c0 .6-.4 1-1 1h-7.6l2.3 2.3c.4.4.4 1 0 1.4-.4.4-1 .4-1.4 0l-4-4c-.4-.4-.4-1 0-1.4l4-4c.4-.4 1-.4 1.4 0 .4.4.4 1 0 1.4l-2.3 2.3h7.6c.6 0 1 .4 1 1Zm-30 0c0-.6.4-1 1-1h7.6l-2.3-2.3c-.4-.4-.4-1 0-1.4.4-.4 1-.4 1.4 0l4 4c.4.4.4 1 0 1.4l-4 4c-.4.4-1 .4-1.4 0-.4-.4-.4-1 0-1.4l2.3-2.3h-7.6c-.6 0-1-.4-1-1Z" clip-rule="evenodd"/>
    <path fill="#000" d="M356.6 705.1v10h-1.3v-10h1.3Zm2.4 0h3.2c1.1 0 2 .2 2.7.7.6.5.9 1.2.9 2.2 0 .6-.1 1.1-.3 1.5-.2.4-.4.7-.8 1-.4.3-.7.5-1.2.6-.5.1-1 .2-1.5.2h-1.8v3.9h-1.3l.1-10.1Zm1.3 1.2v3.8h1.8c.4 0 .7 0 1-.1.3-.1.5-.2.7-.4.2-.2.4-.4.5-.6.1-.3.2-.6.2-.9 0-.6-.2-1.1-.6-1.3-.4-.3-1-.4-1.7-.4l-1.9-.1Zm4.9 10.5 4.4-12.3h1.1l-4.4 12.3h-1.1Zm11.7-4.7 3.3-7h1.7v10h-1.3V707l-3.1 6.5h-1.3l-3-6.7v8.2H372v-10h1.8l3.1 7.1Zm7.3-7h3.2c1.1 0 2 .2 2.7.7.6.5.9 1.2.9 2.2 0 .6-.1 1.1-.3 1.5-.2.4-.4.7-.8 1-.4.3-.7.5-1.2.6-.5.1-1 .2-1.5.2h-1.8v3.9h-1.3l.1-10.1Zm1.4 1.2v3.8h1.8c.4 0 .7 0 1-.1.3-.1.5-.2.7-.4.2-.2.4-.4.5-.6.1-.3.2-.6.2-.9 0-.6-.2-1.1-.6-1.3-.4-.3-1-.4-1.7-.4l-1.9-.1Zm13.4 8.8h-6.2v-10h1.3v8.9h4.9v1.1Zm4.6.2c-.5 0-.9 0-1.2-.1-.4-.1-.7-.1-1-.2-.3-.1-.5-.2-.7-.3-.2-.1-.3-.2-.5-.3V713c.1.1.3.2.5.4.2.1.5.2.8.3.3.1.6.2 1 .3.3.1.7.1 1.1.1.7 0 1.3-.1 1.7-.4.4-.3.6-.7.6-1.3 0-.3-.1-.5-.2-.7-.1-.2-.3-.3-.4-.5-.1-.2-.4-.2-.7-.3-.3-.1-.6-.2-1-.3-.4-.1-.8-.2-1.2-.4-.4-.1-.7-.3-1.1-.5-.3-.2-.6-.5-.8-.8-.2-.3-.3-.7-.3-1.2 0-.9.3-1.5.9-2 .6-.5 1.5-.7 2.8-.7.4 0 .7 0 1 .1.3 0 .5.1.8.2.2.1.4.1.6.2.2.1.3.1.4.2v1.3c-.4-.3-.8-.4-1.3-.5-.5-.1-.9-.2-1.5-.2-.4 0-.8 0-1.1.1-.3.1-.5.2-.7.3-.2.1-.3.3-.4.5-.1.2-.1.4-.1.6 0 .3.1.5.2.7.1.2.3.3.5.5.2.1.5.2.7.3.3.1.6.2.9.2l1.2.3c.4.1.8.3 1.1.5.3.2.6.5.8.8.2.3.3.8.3 1.3s-.1 1-.3 1.4c-.2.4-.5.7-.8.9-.3.2-.7.4-1.2.5-.4 0-.9.1-1.4.1Zm14.1-.8c-.1.1-.2.2-.4.2-.1.1-.3.2-.5.2s-.5.1-.7.2c-.3.1-.6.1-.9.1-1.2 0-2.2-.3-2.8-1-.6-.7-1-1.6-1-2.8 0-.6.1-1.1.3-1.6.2-.5.4-.9.7-1.2.3-.3.7-.6 1.1-.7.4-.2.9-.3 1.4-.3.5 0 1 .1 1.4.3.4.2.8.4 1 .8.3.3.4.8.5 1.3.1.5.1 1.1 0 1.8h-5.1c0 .8.3 1.4.7 1.8.4.4 1 .6 1.9.6.6 0 1-.1 1.4-.2.4-.2.7-.3 1-.5v1Zm-2.9-5.7c-.5 0-1 .2-1.4.5-.4.3-.6.8-.7 1.5h3.9c0-.7-.1-1.2-.5-1.5-.4-.3-.7-.5-1.3-.5Zm10.9 8.8h-1.2v-3.8c-.2.4-.5.8-.9 1.1-.4.3-.9.4-1.5.4-.4 0-.9-.1-1.2-.2-.4-.2-.7-.4-1-.7-.3-.3-.5-.7-.7-1.2-.2-.5-.3-1-.3-1.7 0-.6.1-1.2.3-1.7.2-.5.4-.9.7-1.2.3-.3.6-.5 1-.7.4-.2.8-.2 1.3-.2.6 0 1.1.1 1.5.4.4.3.7.6 1 1.1v-.7c0-.2 0-.4.1-.6h1.1v9.7h-.2Zm-3.4-3.4c.3 0 .6-.1.9-.2.3-.1.5-.3.7-.5.2-.2.4-.5.5-.8.1-.3.2-.7.2-1.2 0-.4-.1-.8-.2-1.2-.1-.3-.3-.6-.5-.8-.2-.2-.4-.4-.7-.5-.3-.1-.6-.2-.9-.2-.6 0-1.2.2-1.6.7-.4.5-.6 1.1-.6 2 0 .9.2 1.6.6 2 .4.5 1 .7 1.6.7Zm9.2.7c-.4.3-.9.4-1.6.4-.7 0-1.2-.2-1.6-.6-.4-.4-.6-1-.6-1.8v-5.1h1.2v5.1c0 .2 0 .4.1.6.1.2.2.3.3.4.1.1.3.2.4.2.2 0 .3.1.5.1.5 0 1-.1 1.3-.4.3-.2.6-.6.8-1v-5h1.2v7.3h-1.1l-.1-1.3c-.1.4-.4.8-.8 1.1Zm4.8-8.1c-.3 0-.5-.1-.6-.2-.1-.1-.2-.3-.2-.6s.1-.4.2-.6c.1-.2.4-.2.6-.2.2 0 .4.1.6.2.1.2.2.3.2.6s-.1.4-.2.6c-.2.1-.3.2-.6.2Zm.6 1.1v7.3h-1.2v-7.3h1.2Zm5.7 7.4c-.6 0-1-.1-1.5-.4-.4-.3-.7-.6-1-1.1v3.8h-1.2v-9.8h1.1l.1 1.4c.2-.5.6-.9 1-1.1.4-.2.9-.4 1.5-.4.4 0 .8.1 1.2.2.4.1.7.4 1 .7.3.3.5.7.7 1.2.2.5.3 1 .3 1.7 0 .6-.1 1.2-.3 1.7-.2.5-.4.9-.7 1.2-.3.3-.6.5-1 .7-.4.2-.8.2-1.2.2Zm-.2-1.1c.6 0 1.2-.2 1.6-.7.4-.4.6-1.1.6-2 0-.9-.2-1.5-.6-2-.4-.5-.9-.7-1.6-.7-.3 0-.6.1-.9.2-.3.1-.5.3-.7.5-.2.2-.4.5-.5.8-.1.3-.2.7-.2 1.2s.1.8.2 1.2c.1.3.3.6.5.8.2.2.4.4.7.5.3.1.6.2.9.2Zm6.2.9h-1.2v-7.3h1.1l.1 1.3c.2-.4.5-.8.9-1 .4-.3.9-.4 1.5-.4s1 .1 1.4.4c.4.3.6.7.7 1.2.2-.5.5-.9.9-1.2.4-.3.9-.4 1.5-.4.7 0 1.2.2 1.6.6.4.4.6 1 .6 1.7v5.1h-1.2v-4.9c0-.5-.1-.8-.4-1-.2-.2-.6-.3-1-.3-.3 0-.5 0-.7.1-.2.1-.4.2-.5.3-.2.1-.3.3-.4.5-.1.2-.3.4-.4.6v4.8h-1.2v-5.1c0-.5-.1-.8-.4-1-.3-.2-.6-.3-1-.3-.3 0-.5 0-.7.1l-.6.3c-.2.1-.3.3-.4.4-.1.1-.3.4-.4.6v4.9h.2Zm16.9-.6c-.1.1-.2.2-.4.2-.1.1-.3.2-.5.2s-.5.1-.7.2c-.3.1-.6.1-.9.1-1.2 0-2.2-.3-2.8-1-.6-.7-1-1.6-1-2.8 0-.6.1-1.1.3-1.6.2-.5.4-.9.7-1.2.3-.3.7-.6 1.1-.7.4-.2.9-.3 1.4-.3.5 0 1 .1 1.4.3.4.2.8.4 1 .8.3.3.4.8.5 1.3.1.5.1 1.1 0 1.8h-5.1c0 .8.3 1.4.7 1.8.4.4 1 .6 1.9.6.6 0 1-.1 1.4-.2.4-.2.7-.3 1-.5v1Zm-2.9-5.7c-.5 0-1 .2-1.4.5-.4.3-.6.8-.7 1.5h3.9c0-.7-.1-1.2-.5-1.5-.4-.3-.7-.5-1.3-.5Zm8 0c-.6 0-1 .1-1.4.4-.4.3-.6.6-.8 1v4.9h-1.2v-7.3h1.2v1.3c.2-.4.5-.8.9-1 .4-.3 1-.4 1.6-.4.7 0 1.3.2 1.7.6.4.4.6 1 .6 1.7v5.1H472v-5c0-.5-.1-.9-.4-1.1-.2-.1-.6-.2-1-.2Zm7.6 6.4c-.2.1-.5.1-.7.1-.4 0-.7-.1-.9-.2-.2-.1-.5-.2-.6-.4-.2-.2-.3-.4-.3-.6 0-.2-.1-.4-.1-.7v-4.5h-.9v-1.1h.9v-1.5h1.2v1.5h2.1v1.1h-2.1v4.4c0 .3.1.5.2.7.2.1.4.2.8.2s.7-.1 1-.3v1.1c-.2.1-.4.1-.6.2Z"/>
</svg>
