<?xml version="1.0" encoding="utf-8"?>
<!-- Generator: Adobe Illustrator 27.0.0, SVG Export Plug-In . SVG Version: 6.00 Build 0)  -->
<svg version="1.1" id="Layer_1" xmlns="http://www.w3.org/2000/svg" xmlns:xlink="http://www.w3.org/1999/xlink" x="0px" y="0px"
	 viewBox="0 0 1001 760" style="enable-background:new 0 0 1001 760;" xml:space="preserve">
<style type="text/css">
	.st0{fill:#FFFFFF;}
	.st1{fill:#DAF4F2;stroke:#5282FF;stroke-width:2;}
	.st2{fill-opacity:0.85;}
	.st3{fill:#FFF5CC;stroke:#5282FF;stroke-width:2;}
	.st4{fill:#F7E0FF;stroke:#5282FF;stroke-width:2;stroke-dasharray:8,8;}
	.st5{fill:#E3EBFF;stroke:#5282FF;stroke-width:2;}
	.st6{fill:#FFFFFF;stroke:#FF5958;stroke-width:2;}
	.st7{clip-path:url(#SVGID_00000118381412493187986310000007384263320931897017_);}
	.st8{fill-rule:evenodd;clip-rule:evenodd;fill:#5282FF;}
	.st9{clip-path:url(#SVGID_00000078736739417937931340000006507222410005305997_);}
	.st10{clip-path:url(#SVGID_00000030484399329181676670000011110567669260440197_);}
	.st11{fill:#FFFFFF;stroke:#86829F;stroke-width:2;}
	.st12{clip-path:url(#SVGID_00000085241200853370195530000010680536996960385947_);}
	.st13{clip-path:url(#SVGID_00000178180185035543364550000011827146509323375024_);}
	.st14{fill:#5282FF;}
	
		.st15{fill-rule:evenodd;clip-rule:evenodd;fill:#FFFFFF;stroke:#86829F;stroke-width:2;stroke-linecap:round;stroke-linejoin:round;}
</style>
<g>
	<path class="st0" d="M11,174h979c2.8,0,5,2.2,5,5v319c0,2.8-2.2,5-5,5H11c-2.8,0-5-2.2-5-5V179C6,176.2,8.2,174,11,174z"/>
</g>
<path class="st1" d="M43,208h172c2.2,0,4,1.8,4,4v102c0,2.2-1.8,4-4,4H43c-2.2,0-4-1.8-4-4V212C39,209.8,40.8,208,43,208z"/>
<path class="st2" d="M77.9,261.4c-0.7,0.1-1.4,0.3-2,0.6c-0.6,0.3-1,0.8-1.3,1.4v6.6h-1.8v-10.4h1.5l0.2,2.3l0,0
	c0.3-0.6,0.7-1.1,1.3-1.6c0.6-0.5,1.3-0.8,2.1-0.9C77.9,259.4,77.9,261.4,77.9,261.4z M86.7,268.1c-0.3,0.6-0.7,1.1-1.3,1.5
	c-0.6,0.4-1.3,0.6-2.3,0.6s-1.7-0.3-2.3-0.8c-0.6-0.5-0.9-1.4-0.9-2.5v-7.3h1.8v7.3c0,0.3,0,0.6,0.1,0.9c0.1,0.2,0.2,0.4,0.4,0.5
	c0.2,0.1,0.4,0.2,0.6,0.3c0.2,0.1,0.5,0.1,0.8,0.1c0.8,0,1.4-0.2,1.9-0.5s0.9-0.8,1.2-1.4v-7.1h1.8V270h-1.6L86.7,268.1L86.7,268.1z
	 M91.1,263.1h4.8v1.6h-4.8V263.1z M103.3,270.2c-0.8,0-1.5-0.1-2.2-0.4c-0.6-0.3-1.2-0.6-1.6-1.1c-0.5-0.5-0.8-1-1-1.7
	s-0.4-1.4-0.4-2.3c0-0.8,0.1-1.6,0.4-2.3c0.3-0.7,0.6-1.2,1.1-1.7s1-0.8,1.7-1.1c0.7-0.3,1.4-0.4,2.2-0.4c0.6,0,1.2,0.1,1.8,0.2
	c0.5,0.1,1,0.3,1.3,0.6v1.6c-0.4-0.3-0.9-0.5-1.4-0.6s-1.1-0.2-1.6-0.2c-1.2,0-2.1,0.3-2.7,0.9s-0.8,1.6-0.8,2.9s0.3,2.3,0.8,2.9
	s1.4,0.9,2.6,0.9c0.6,0,1.2-0.1,1.7-0.2c0.5-0.2,1-0.4,1.4-0.6v1.6c-0.4,0.2-0.8,0.4-1.4,0.6C104.6,270.1,104,270.2,103.3,270.2z
	 M116.8,269.1c-0.1,0.1-0.3,0.2-0.5,0.3c-0.2,0.1-0.5,0.2-0.8,0.4c-0.3,0.1-0.7,0.2-1,0.3c-0.4,0.1-0.8,0.1-1.3,0.1
	c-1.7,0-3.1-0.5-4-1.4s-1.4-2.3-1.4-4c0-0.8,0.1-1.6,0.4-2.3c0.3-0.7,0.6-1.2,1-1.7s1-0.8,1.6-1.1c0.6-0.3,1.3-0.4,2-0.4
	s1.4,0.1,2,0.4s1.1,0.6,1.4,1.1c0.4,0.5,0.6,1.1,0.8,1.8c0.1,0.7,0.1,1.6,0,2.5h-7.3c0.1,1.1,0.4,2,1,2.5s1.5,0.8,2.7,0.8
	c0.8,0,1.5-0.1,2.1-0.3c0.6-0.2,1.1-0.5,1.4-0.7L116.8,269.1L116.8,269.1z M112.7,261c-0.8,0-1.4,0.2-2,0.7c-0.5,0.5-0.9,1.2-1,2.1
	h5.6c0.1-1-0.2-1.7-0.7-2.1C114.1,261.2,113.5,261,112.7,261z M124.1,261c-0.8,0-1.5,0.2-2,0.6s-0.9,0.8-1.2,1.4v7.1h-1.8v-10.4h1.7
	l0.1,1.9l0,0c0.3-0.6,0.7-1.1,1.3-1.5s1.4-0.6,2.3-0.6c1,0,1.8,0.3,2.4,0.8s0.9,1.4,0.9,2.5v7.3H126V263c0-0.7-0.2-1.2-0.5-1.5
	S124.7,261,124.1,261z M135.8,269.8c-0.2,0.1-0.5,0.2-0.8,0.3c-0.3,0.1-0.7,0.1-1.1,0.1c-0.5,0-0.9-0.1-1.3-0.2
	c-0.3-0.1-0.6-0.3-0.9-0.6c-0.2-0.3-0.4-0.5-0.5-0.8s-0.1-0.6-0.1-1v-6.5h-1.2v-1.5h1.2v-2.2h1.8v2.2h3v1.5h-3v6.2
	c0,0.4,0.1,0.8,0.3,1s0.6,0.3,1.2,0.3c0.5,0,1-0.1,1.4-0.4L135.8,269.8L135.8,269.8z M143.2,261.4c-0.7,0.1-1.4,0.3-2,0.6
	c-0.6,0.3-1,0.8-1.3,1.4v6.6h-1.8v-10.4h1.5l0.2,2.3l0,0c0.3-0.6,0.7-1.1,1.3-1.6s1.3-0.8,2.1-0.9V261.4z M151.3,268
	c-0.1,0.2-0.3,0.5-0.5,0.8s-0.4,0.5-0.7,0.7s-0.6,0.4-1,0.5s-0.8,0.2-1.3,0.2c-0.9,0-1.7-0.3-2.3-0.8s-0.9-1.3-0.9-2.3
	c0-1.1,0.4-2,1.2-2.5s1.9-0.8,3.4-0.8h1.9V263c0-0.7-0.2-1.2-0.6-1.5c-0.4-0.3-1-0.5-1.9-0.5c-0.6,0-1.2,0.1-1.8,0.3
	c-0.6,0.2-1.1,0.4-1.5,0.7v-1.6c0.4-0.2,0.9-0.4,1.5-0.7c0.6-0.2,1.3-0.3,2.1-0.3c1.3,0,2.3,0.3,3,0.8s1,1.4,1,2.5v5.6
	c0,0.1,0,0.3,0,0.4s0,0.3,0,0.5s0,0.3,0,0.5c0,0.1,0,0.2,0,0.3h-1.6c0-0.2-0.1-0.4-0.1-0.8c0-0.3,0-0.6,0-0.9L151.3,268z
	 M148.2,268.6c0.5,0,1-0.1,1.4-0.3c0.4-0.2,0.7-0.5,0.9-0.8s0.4-0.6,0.5-0.9s0.2-0.5,0.2-0.6v-0.8h-1.8c-1.1,0-1.8,0.2-2.3,0.5
	s-0.7,0.7-0.7,1.3c0,0.5,0.1,0.8,0.4,1.1S147.6,268.6,148.2,268.6z M157.5,255.7V270h-1.8v-14.3H157.5z M166.4,270h-1.8v-12.1l-4,3
	v-2l4.3-3.3h1.5V270z M171.1,263.1h4.8v1.6h-4.8V263.1z M184.6,268c-0.1,0.2-0.3,0.5-0.5,0.8s-0.4,0.5-0.7,0.7s-0.6,0.4-1,0.5
	s-0.8,0.2-1.3,0.2c-0.9,0-1.7-0.3-2.3-0.8s-0.9-1.3-0.9-2.3c0-1.1,0.4-2,1.2-2.5s1.9-0.8,3.4-0.8h1.9V263c0-0.7-0.2-1.2-0.6-1.5
	c-0.4-0.3-1-0.5-1.9-0.5c-0.6,0-1.2,0.1-1.8,0.3c-0.6,0.2-1.1,0.4-1.5,0.7v-1.6c0.4-0.2,0.9-0.4,1.5-0.7c0.6-0.2,1.3-0.3,2.1-0.3
	c1.3,0,2.3,0.3,3,0.8s1,1.4,1,2.5v5.6c0,0.1,0,0.3,0,0.4s0,0.3,0,0.5s0,0.3,0,0.5c0,0.1,0,0.2,0,0.3h-1.6c0-0.2-0.1-0.4-0.1-0.8
	c0-0.3,0-0.6,0-0.9L184.6,268z M181.5,268.6c0.5,0,1-0.1,1.4-0.3c0.4-0.2,0.7-0.5,0.9-0.8s0.4-0.6,0.5-0.9s0.2-0.5,0.2-0.6v-0.8
	h-1.8c-1.1,0-1.8,0.2-2.3,0.5s-0.7,0.7-0.7,1.3c0,0.5,0.1,0.8,0.4,1.1S180.9,268.6,181.5,268.6z"/>
<path class="st3" d="M786,208h172c2.2,0,4,1.8,4,4v102c0,2.2-1.8,4-4,4H786c-2.2,0-4-1.8-4-4V212C782,209.8,783.8,208,786,208z"/>
<path class="st2" d="M821.2,259.4c-0.7,0.1-1.4,0.3-2,0.6c-0.6,0.3-1,0.8-1.3,1.4v6.6h-1.8v-10.4h1.5l0.2,2.3l0,0
	c0.3-0.6,0.7-1.1,1.3-1.6s1.3-0.8,2.1-0.9V259.4z M830,266.1c-0.3,0.6-0.7,1.1-1.3,1.5s-1.3,0.6-2.3,0.6s-1.7-0.3-2.3-0.8
	s-0.9-1.4-0.9-2.5v-7.3h1.8v7.3c0,0.3,0,0.6,0.1,0.9c0.1,0.2,0.2,0.4,0.4,0.5s0.4,0.2,0.6,0.3c0.2,0.1,0.5,0.1,0.8,0.1
	c0.8,0,1.4-0.2,1.9-0.5s0.9-0.8,1.2-1.4v-7.1h1.8V268h-1.6L830,266.1L830,266.1z M834.4,261.1h4.8v1.6h-4.8V261.1z M846.5,268.2
	c-0.8,0-1.5-0.1-2.2-0.4c-0.6-0.3-1.2-0.6-1.6-1.1c-0.5-0.5-0.8-1-1-1.7s-0.4-1.4-0.4-2.3c0-0.8,0.1-1.6,0.4-2.3
	c0.3-0.7,0.6-1.2,1.1-1.7s1-0.8,1.7-1.1c0.7-0.3,1.4-0.4,2.2-0.4c0.6,0,1.2,0.1,1.8,0.2c0.5,0.1,1,0.3,1.3,0.6v1.6
	c-0.4-0.3-0.9-0.5-1.4-0.6s-1.1-0.2-1.6-0.2c-1.2,0-2.1,0.3-2.7,0.9c-0.6,0.6-0.8,1.6-0.8,2.9s0.3,2.3,0.8,2.9s1.4,0.9,2.6,0.9
	c0.6,0,1.2-0.1,1.7-0.2c0.5-0.2,1-0.4,1.4-0.6v1.6c-0.4,0.2-0.8,0.4-1.4,0.6C847.8,268.1,847.2,268.2,846.5,268.2z M860.1,267.1
	c-0.1,0.1-0.3,0.2-0.5,0.3s-0.5,0.2-0.8,0.4c-0.3,0.1-0.7,0.2-1,0.3c-0.4,0.1-0.8,0.1-1.3,0.1c-1.7,0-3.1-0.5-4-1.4s-1.4-2.3-1.4-4
	c0-0.8,0.1-1.6,0.4-2.3c0.3-0.7,0.6-1.2,1-1.7s1-0.8,1.6-1.1c0.6-0.3,1.3-0.4,2-0.4s1.4,0.1,2,0.4s1.1,0.6,1.4,1.1
	c0.4,0.5,0.6,1.1,0.8,1.8c0.1,0.7,0.1,1.6,0,2.5H853c0.1,1.1,0.4,2,1,2.5s1.5,0.8,2.7,0.8c0.8,0,1.5-0.1,2.1-0.3s1.1-0.5,1.4-0.7
	v1.7H860.1z M856,259c-0.8,0-1.4,0.2-2,0.7c-0.5,0.5-0.9,1.2-1,2.1h5.6c0.1-1-0.2-1.7-0.7-2.1C857.4,259.2,856.8,259,856,259z
	 M867.4,259c-0.8,0-1.5,0.2-2,0.6s-0.9,0.8-1.2,1.4v7.1h-1.8v-10.4h1.7l0.1,1.9l0,0c0.3-0.6,0.7-1.1,1.3-1.5s1.4-0.6,2.3-0.6
	c1,0,1.8,0.3,2.4,0.8c0.6,0.5,0.9,1.4,0.9,2.5v7.3h-1.8V261c0-0.7-0.2-1.2-0.5-1.5C868.5,259.1,868,259,867.4,259z M879,267.8
	c-0.2,0.1-0.5,0.2-0.8,0.3c-0.3,0.1-0.7,0.1-1.1,0.1c-0.5,0-0.9-0.1-1.3-0.2c-0.3-0.1-0.6-0.3-0.9-0.6c-0.2-0.3-0.4-0.5-0.5-0.8
	s-0.1-0.6-0.1-1v-6.5h-1.2v-1.5h1.2v-2.2h1.8v2.2h3v1.5h-3v6.2c0,0.4,0.1,0.8,0.3,1s0.6,0.3,1.2,0.3c0.5,0,1-0.1,1.4-0.4L879,267.8
	L879,267.8z M886.5,259.4c-0.7,0.1-1.4,0.3-2,0.6c-0.6,0.3-1,0.8-1.3,1.4v6.6h-1.8v-10.4h1.5l0.2,2.3l0,0c0.3-0.6,0.7-1.1,1.3-1.6
	s1.3-0.8,2.1-0.9V259.4z M894.6,266c-0.1,0.2-0.3,0.5-0.5,0.8s-0.4,0.5-0.7,0.7s-0.6,0.4-1,0.5s-0.8,0.2-1.3,0.2
	c-0.9,0-1.7-0.3-2.3-0.8s-0.9-1.3-0.9-2.3c0-1.1,0.4-2,1.2-2.5s1.9-0.8,3.4-0.8h1.9V261c0-0.7-0.2-1.2-0.6-1.5
	c-0.4-0.3-1-0.5-1.9-0.5c-0.6,0-1.2,0.1-1.8,0.3c-0.6,0.2-1.1,0.4-1.5,0.7v-1.6c0.4-0.2,0.9-0.4,1.5-0.7c0.6-0.2,1.3-0.3,2.1-0.3
	c1.3,0,2.3,0.3,3,0.8s1,1.4,1,2.5v5.6c0,0.1,0,0.3,0,0.4s0,0.3,0,0.5s0,0.3,0,0.5c0,0.1,0,0.2,0,0.3h-1.6c0-0.2-0.1-0.4-0.1-0.8
	c0-0.3,0-0.6,0-0.9L894.6,266z M891.5,266.6c0.5,0,1-0.1,1.4-0.3c0.4-0.2,0.7-0.5,0.9-0.8s0.4-0.6,0.5-0.9s0.2-0.5,0.2-0.6v-0.8
	h-1.8c-1.1,0-1.8,0.2-2.3,0.5s-0.7,0.7-0.7,1.3c0,0.5,0.1,0.8,0.4,1.1C890.4,266.5,890.9,266.6,891.5,266.6z M900.8,253.7V268H899
	v-14.3H900.8z M909.6,268h-1.8v-12.1l-4,3v-2l4.3-3.3h1.5V268z M914.4,261.1h4.8v1.6h-4.8V261.1z M926.5,268.2
	c-0.8,0-1.5-0.1-2.2-0.4c-0.6-0.3-1.2-0.6-1.6-1.1c-0.5-0.5-0.8-1-1-1.7s-0.4-1.4-0.4-2.3c0-0.8,0.1-1.6,0.4-2.3
	c0.3-0.7,0.6-1.2,1.1-1.7s1-0.8,1.7-1.1c0.7-0.3,1.4-0.4,2.2-0.4c0.6,0,1.2,0.1,1.8,0.2c0.5,0.1,1,0.3,1.3,0.6v1.6
	c-0.4-0.3-0.9-0.5-1.4-0.6s-1.1-0.2-1.6-0.2c-1.2,0-2.1,0.3-2.7,0.9c-0.6,0.6-0.8,1.6-0.8,2.9s0.3,2.3,0.8,2.9s1.4,0.9,2.6,0.9
	c0.6,0,1.2-0.1,1.7-0.2c0.5-0.2,1-0.4,1.4-0.6v1.6c-0.4,0.2-0.8,0.4-1.4,0.6C927.8,268.1,927.2,268.2,926.5,268.2z"/>
<path class="st4" d="M787,363h172c2.2,0,4,1.8,4,4v102c0,2.2-1.8,4-4,4H787c-2.2,0-4-1.8-4-4V367C783,364.8,784.8,363,787,363z"/>
<path class="st2" d="M809.1,416.4c-0.8,0-1.5,0.1-2.1,0.4s-1.1,0.8-1.5,1.6l-1.4,6.6h-1.7l2.2-10.4h1.5l-0.3,2.3l0,0
	c0.3-0.7,0.8-1.3,1.4-1.8c0.6-0.5,1.4-0.7,2.2-0.7L809.1,416.4z M813.7,423.7c0.4,0,0.8-0.1,1.1-0.2s0.6-0.3,0.8-0.4
	c0.3-0.2,0.5-0.4,0.7-0.6c0.2-0.3,0.4-0.5,0.6-0.8l1.5-7.1h1.7l-2.2,10.4h-1.5l0.2-1.9l0,0c-0.4,0.6-0.8,1.1-1.4,1.5
	c-0.5,0.4-1.2,0.6-2.1,0.6c-1.1,0-1.9-0.3-2.4-1s-0.7-1.6-0.4-2.8l1.4-6.8h1.7l-1.4,6.7c-0.1,0.4-0.1,0.8-0.1,1.1
	c0.1,0.3,0.2,0.6,0.3,0.8c0.2,0.2,0.4,0.3,0.6,0.4C813.1,423.7,813.4,423.7,813.7,423.7z M821.9,418.1h4.7l-0.3,1.6h-4.7
	L821.9,418.1z M832.9,425.2c-0.6,0-1.2-0.1-1.8-0.3c-0.6-0.2-1.1-0.5-1.5-0.9s-0.7-0.9-1-1.5s-0.4-1.3-0.4-2.1
	c0-0.9,0.1-1.7,0.4-2.4c0.3-0.7,0.6-1.4,1.1-1.9s1.1-1,1.8-1.3s1.5-0.5,2.4-0.5c0.6,0,1.1,0.1,1.6,0.2s0.9,0.3,1.2,0.5l-0.3,1.5
	c-0.4-0.2-0.8-0.4-1.2-0.5s-0.8-0.2-1.3-0.2c-0.7,0-1.2,0.1-1.7,0.4c-0.5,0.2-0.9,0.6-1.2,1s-0.5,0.9-0.7,1.4
	c-0.1,0.5-0.2,1.1-0.2,1.7c0,1.2,0.3,2,0.9,2.6c0.6,0.5,1.4,0.8,2.3,0.8c0.4,0,0.8,0,1.2-0.1c0.5-0.1,0.9-0.2,1.4-0.5l-0.3,1.5
	c-0.4,0.2-0.9,0.3-1.3,0.4C833.7,425.2,833.3,425.2,832.9,425.2z M845.6,424.6c-0.3,0.1-0.7,0.3-1.2,0.4s-1.1,0.2-1.8,0.2
	c-0.8,0-1.5-0.1-2.1-0.3c-0.6-0.2-1.2-0.5-1.6-0.9c-0.4-0.4-0.8-0.9-1-1.5s-0.4-1.3-0.4-2.1c0-0.9,0.1-1.7,0.4-2.4
	c0.3-0.7,0.7-1.4,1.2-1.9s1.1-0.9,1.7-1.2c0.7-0.3,1.4-0.4,2.1-0.4c0.8,0,1.4,0.1,2,0.4s1,0.7,1.3,1.2s0.5,1.1,0.6,1.8
	s-0.1,1.5-0.4,2.4h-7.2v0.1c0,1.1,0.3,2,0.9,2.5c0.6,0.5,1.4,0.8,2.6,0.8c0.6,0,1.2-0.1,1.7-0.2s1-0.3,1.4-0.4L845.6,424.6z
	 M842.9,415.9c-0.8,0-1.6,0.3-2.1,0.8c-0.6,0.5-1,1.2-1.2,2.1h5.7c0.1-0.5,0.1-0.9,0-1.3s-0.2-0.7-0.5-0.9c-0.2-0.2-0.5-0.4-0.8-0.5
	S843.3,415.9,842.9,415.9z M854.6,415.9c-0.4,0-0.8,0.1-1.1,0.2s-0.6,0.3-0.9,0.4c-0.3,0.2-0.5,0.4-0.7,0.7
	c-0.2,0.2-0.4,0.5-0.6,0.8l-1.5,7.1h-1.7l2.2-10.4h1.6l-0.3,1.9l0,0c0.4-0.6,0.9-1.1,1.5-1.5s1.3-0.6,2.2-0.6c1.1,0,1.9,0.4,2.4,1.1
	s0.6,1.7,0.3,3.1l-1.4,6.4h-1.7l1.4-6.5c0.1-0.5,0.1-0.9,0.1-1.3c0-0.3-0.1-0.6-0.3-0.8c-0.2-0.2-0.4-0.3-0.6-0.4
	C855.2,416,854.9,415.9,854.6,415.9z M864.3,424.9c-0.4,0.2-0.9,0.3-1.5,0.3c-0.5,0-1-0.1-1.4-0.2c-0.4-0.2-0.7-0.4-0.9-0.7
	c-0.2-0.3-0.3-0.7-0.4-1.1c-0.1-0.4,0-0.9,0.1-1.3l1.3-5.8h-1.2l0.3-1.4h1.2l0.5-2.2h1.7l-0.5,2.2h3l-0.3,1.4h-3L862,422
	c-0.3,1.2,0.1,1.7,1.2,1.7c0.2,0,0.5,0,0.7,0s0.5-0.1,0.6-0.2L864.3,424.9z M873.2,416.4c-0.8,0-1.5,0.1-2.1,0.4s-1.1,0.8-1.5,1.6
	l-1.4,6.6h-1.7l2.2-10.4h1.5l-0.3,2.3l0,0c0.3-0.7,0.8-1.3,1.4-1.8c0.6-0.5,1.4-0.7,2.2-0.7L873.2,416.4z M879.6,425
	c0-0.1,0-0.4,0-0.7c0-0.3,0.1-0.7,0.1-1.1c-0.1,0.2-0.3,0.5-0.5,0.7s-0.4,0.5-0.7,0.6c-0.3,0.2-0.5,0.3-0.9,0.4
	c-0.3,0.1-0.7,0.2-1.1,0.2c-0.4,0-0.7-0.1-1.1-0.2c-0.4-0.1-0.7-0.3-1-0.5s-0.5-0.5-0.7-0.9s-0.3-0.8-0.3-1.3c0-1.1,0.4-1.9,1.2-2.6
	c0.8-0.6,2-0.9,3.6-0.9h2.3v-0.1c0.1-0.5,0.1-1,0.1-1.4c-0.1-0.4-0.2-0.6-0.4-0.8c-0.2-0.2-0.5-0.4-0.8-0.4
	c-0.3-0.1-0.7-0.1-1.1-0.1c-0.6,0-1.1,0.1-1.6,0.2s-1,0.3-1.4,0.5l0.3-1.5c0.4-0.2,0.8-0.4,1.4-0.5c0.5-0.1,1.1-0.2,1.8-0.2
	s1.2,0.1,1.8,0.2c0.5,0.2,1,0.4,1.3,0.8s0.6,0.8,0.7,1.4s0.1,1.3-0.1,2.1l-1,4.4c0,0.1-0.1,0.2-0.1,0.4c0,0.1,0,0.3-0.1,0.5
	c0,0.2-0.1,0.3-0.1,0.5c0,0.1,0,0.3,0,0.4h-1.6V425z M877,423.8c0.5,0,0.9-0.1,1.2-0.3c0.4-0.2,0.7-0.4,0.9-0.7
	c0.3-0.3,0.5-0.5,0.6-0.8c0.2-0.3,0.3-0.5,0.3-0.7l0.3-1.2h-2.2c-1.1,0-1.8,0.2-2.3,0.6s-0.7,0.9-0.7,1.5c0,0.5,0.1,0.9,0.4,1.2
	C876,423.7,876.5,423.8,877,423.8z M888.6,410.7l-3,14.3h-1.7l3-14.3H888.6z M893.9,425h-1.8l2.6-12.1l-4.6,3l0.4-2l4.9-3.3h1.5
	L893.9,425z M900.5,418.1h4.7l-0.3,1.6h-4.7L900.5,418.1z M914.1,423.6c-0.4,0.5-0.9,0.9-1.4,1.2c-0.5,0.3-1.2,0.5-1.9,0.5
	c-0.6,0-1.1-0.1-1.6-0.3c-0.5-0.2-0.9-0.5-1.3-0.9c-0.3-0.4-0.6-0.9-0.8-1.4c-0.2-0.6-0.3-1.2-0.3-1.9c0-0.8,0.1-1.5,0.3-2.3
	c0.2-0.7,0.6-1.4,1-2c0.5-0.6,1-1.1,1.6-1.4c0.7-0.4,1.4-0.5,2.2-0.5s1.6,0.2,2.1,0.6c0.6,0.4,1,0.9,1.3,1.6l1.2-5.9h1.7l-3.1,14.3
	h-1.5L914.1,423.6z M914.8,419c0-1-0.2-1.8-0.7-2.3s-1.1-0.8-1.9-0.8c-0.6,0-1.1,0.1-1.6,0.4c-0.4,0.2-0.8,0.6-1.1,1
	s-0.5,0.9-0.6,1.4s-0.2,1.1-0.2,1.7c0,1.1,0.2,1.9,0.7,2.5c0.5,0.5,1.1,0.8,1.9,0.8c0.6,0,1.2-0.1,1.6-0.4c0.5-0.3,0.8-0.7,1.1-1.1
	c0.3-0.5,0.5-1,0.6-1.5C914.7,420.1,914.8,419.5,914.8,419z M925.6,427.8c-0.6-0.8-1-1.7-1.3-2.8c-0.3-1.1-0.5-2.3-0.5-3.7
	c0-2.3,0.4-4.4,1.3-6.4c0.9-2,2.1-3.7,3.8-5.1h1.9c-0.7,0.6-1.4,1.4-2.1,2.2c-0.6,0.8-1.2,1.8-1.7,2.8s-0.8,2.1-1.1,3.2
	s-0.4,2.3-0.4,3.5c0,1.3,0.2,2.4,0.5,3.4s0.8,2,1.3,2.7h-1.7V427.8z M935.4,417.8l-1-2.7l-1.8,2.2l-1.2-1.2l2.3-1.8l-2.7-1.1
	l0.8-1.4l2.4,1.6l0.2-2.9l1.6,0.3l-0.8,2.8l2.8-0.7l0.2,1.6l-2.9,0.1l1.5,2.4L935.4,417.8z M941.9,409.9c0.6,0.8,1,1.7,1.3,2.8
	c0.3,1.1,0.5,2.3,0.5,3.7c0,2.3-0.4,4.4-1.3,6.4c-0.9,2-2.1,3.7-3.7,5.1h-1.9c0.7-0.6,1.4-1.4,2.1-2.2c0.7-0.8,1.2-1.8,1.7-2.8
	s0.9-2.1,1.1-3.2c0.3-1.1,0.4-2.3,0.4-3.5c0-1.3-0.2-2.4-0.5-3.4s-0.7-2-1.3-2.7h1.6V409.9z"/>
<path class="st5" d="M43,363h172c2.2,0,4,1.8,4,4v102c0,2.2-1.8,4-4,4H43c-2.2,0-4-1.8-4-4V367C39,364.8,40.8,363,43,363z"/>
<path class="st2" d="M77.2,416.4c-0.7,0.1-1.4,0.3-2,0.6c-0.6,0.3-1,0.8-1.3,1.4v6.6h-1.8v-10.4h1.5l0.2,2.3l0,0
	c0.3-0.6,0.7-1.1,1.3-1.6c0.6-0.5,1.3-0.8,2.1-0.9C77.2,414.4,77.2,416.4,77.2,416.4z M86,423.1c-0.3,0.6-0.7,1.1-1.3,1.5
	c-0.6,0.4-1.3,0.6-2.3,0.6s-1.7-0.3-2.3-0.8c-0.6-0.5-0.9-1.4-0.9-2.5v-7.3H81v7.3c0,0.3,0,0.6,0.1,0.9c0.1,0.2,0.2,0.4,0.4,0.5
	s0.4,0.2,0.6,0.3c0.2,0.1,0.5,0.1,0.8,0.1c0.8,0,1.4-0.2,1.9-0.5s0.9-0.8,1.2-1.4v-7.1h1.8V425h-1.6L86,423.1L86,423.1z M90.4,418.1
	h4.8v1.6h-4.8V418.1z M102.5,425.2c-0.8,0-1.5-0.1-2.2-0.4c-0.6-0.3-1.2-0.6-1.6-1.1c-0.5-0.5-0.8-1-1-1.7s-0.4-1.4-0.4-2.3
	c0-0.8,0.1-1.6,0.4-2.3c0.3-0.7,0.6-1.2,1.1-1.7s1-0.8,1.7-1.1c0.7-0.3,1.4-0.4,2.2-0.4c0.6,0,1.2,0.1,1.8,0.2
	c0.5,0.1,1,0.3,1.3,0.6v1.6c-0.4-0.3-0.9-0.5-1.4-0.6s-1.1-0.2-1.6-0.2c-1.2,0-2.1,0.3-2.7,0.9s-0.8,1.6-0.8,2.9s0.3,2.3,0.8,2.9
	s1.4,0.9,2.6,0.9c0.6,0,1.2-0.1,1.7-0.2c0.5-0.2,1-0.4,1.4-0.6v1.6c-0.4,0.2-0.8,0.4-1.4,0.6C103.8,425.1,103.2,425.2,102.5,425.2z
	 M116.1,424.1c-0.1,0.1-0.3,0.2-0.5,0.3c-0.2,0.1-0.5,0.2-0.8,0.4c-0.3,0.1-0.7,0.2-1,0.3c-0.4,0.1-0.8,0.1-1.3,0.1
	c-1.7,0-3.1-0.5-4-1.4s-1.4-2.3-1.4-4c0-0.8,0.1-1.6,0.4-2.3c0.3-0.7,0.6-1.2,1-1.7s1-0.8,1.6-1.1c0.6-0.3,1.3-0.4,2-0.4
	s1.4,0.1,2,0.4s1.1,0.6,1.4,1.1c0.4,0.5,0.6,1.1,0.8,1.8c0.1,0.7,0.1,1.6,0,2.5H109c0.1,1.1,0.4,2,1,2.5s1.5,0.8,2.7,0.8
	c0.8,0,1.5-0.1,2.1-0.3c0.6-0.2,1.1-0.5,1.4-0.7L116.1,424.1L116.1,424.1z M112,416c-0.8,0-1.4,0.2-2,0.7c-0.5,0.5-0.9,1.2-1,2.1
	h5.6c0.1-1-0.2-1.7-0.7-2.1C113.4,416.2,112.8,416,112,416z M123.4,416c-0.8,0-1.5,0.2-2,0.6s-0.9,0.8-1.2,1.4v7.1h-1.8v-10.4h1.7
	l0.1,1.9l0,0c0.3-0.6,0.7-1.1,1.3-1.5s1.4-0.6,2.3-0.6c1,0,1.8,0.3,2.4,0.8s0.9,1.4,0.9,2.5v7.3h-1.8V418c0-0.7-0.2-1.2-0.5-1.5
	S124,416,123.4,416z M135,424.8c-0.2,0.1-0.5,0.2-0.8,0.3c-0.3,0.1-0.7,0.1-1.1,0.1c-0.5,0-0.9-0.1-1.3-0.2
	c-0.3-0.1-0.6-0.3-0.9-0.6c-0.2-0.3-0.4-0.5-0.5-0.8s-0.1-0.6-0.1-1v-6.5h-1.2v-1.5h1.2v-2.2h1.8v2.2h3v1.5h-3v6.2
	c0,0.4,0.1,0.8,0.3,1s0.6,0.3,1.2,0.3c0.5,0,1-0.1,1.4-0.4L135,424.8L135,424.8z M142.5,416.4c-0.7,0.1-1.4,0.3-2,0.6
	c-0.6,0.3-1,0.8-1.3,1.4v6.6h-1.8v-10.4h1.5l0.2,2.3l0,0c0.3-0.6,0.7-1.1,1.3-1.6s1.3-0.8,2.1-0.9V416.4z M150.5,423
	c-0.1,0.2-0.3,0.5-0.5,0.8s-0.4,0.5-0.7,0.7s-0.6,0.4-1,0.5s-0.8,0.2-1.3,0.2c-0.9,0-1.7-0.3-2.3-0.8s-0.9-1.3-0.9-2.3
	c0-1.1,0.4-2,1.2-2.5s1.9-0.8,3.4-0.8h1.9V418c0-0.7-0.2-1.2-0.6-1.5c-0.4-0.3-1-0.5-1.9-0.5c-0.6,0-1.2,0.1-1.8,0.3
	c-0.6,0.2-1.1,0.4-1.5,0.7v-1.6c0.4-0.2,0.9-0.4,1.5-0.7c0.6-0.2,1.3-0.3,2.1-0.3c1.3,0,2.3,0.3,3,0.8s1,1.4,1,2.5v5.6
	c0,0.1,0,0.3,0,0.4s0,0.3,0,0.5s0,0.3,0,0.5c0,0.1,0,0.2,0,0.3h-1.6c0-0.2-0.1-0.4-0.1-0.8c0-0.3,0-0.6,0-0.9L150.5,423z
	 M147.4,423.6c0.5,0,1-0.1,1.4-0.3c0.4-0.2,0.7-0.5,0.9-0.8s0.4-0.6,0.5-0.9s0.2-0.5,0.2-0.6v-0.8h-1.8c-1.1,0-1.8,0.2-2.3,0.5
	s-0.7,0.7-0.7,1.3c0,0.5,0.1,0.8,0.4,1.1S146.8,423.6,147.4,423.6z M156.8,410.7V425H155v-14.3H156.8z M165.6,425h-1.8v-12.1l-4,3
	v-2l4.3-3.3h1.5V425z M170.4,418.1h4.8v1.6h-4.8V418.1z M187.7,419.8c0,0.9-0.1,1.7-0.4,2.4c-0.3,0.7-0.6,1.2-1,1.7
	c-0.4,0.4-0.9,0.8-1.5,1s-1.1,0.3-1.8,0.3c-0.8,0-1.5-0.2-2.1-0.6s-1.1-0.9-1.4-1.6l-0.1,2h-1.7v-14.3h1.8v6
	c0.3-0.7,0.8-1.2,1.4-1.6c0.6-0.4,1.3-0.6,2.2-0.6c0.6,0,1.2,0.1,1.7,0.3c0.6,0.2,1,0.5,1.5,1c0.4,0.4,0.8,1,1,1.7
	C187.6,418.1,187.7,418.9,187.7,419.8z M182.8,423.6c0.9,0,1.7-0.3,2.2-0.9c0.6-0.6,0.9-1.6,0.9-2.9s-0.3-2.2-0.9-2.8
	c-0.6-0.7-1.3-1-2.2-1c-0.5,0-0.9,0.1-1.3,0.2c-0.4,0.2-0.7,0.4-1,0.7c-0.3,0.3-0.5,0.7-0.7,1.2s-0.2,1-0.2,1.7
	c0,0.6,0.1,1.2,0.2,1.7c0.2,0.5,0.4,0.9,0.7,1.2c0.3,0.3,0.6,0.6,1,0.7C181.9,423.5,182.3,423.6,182.8,423.6z"/>
<path class="st6" d="M193,564h172c2.2,0,4,1.8,4,4v72c0,2.2-1.8,4-4,4H193c-2.2,0-4-1.8-4-4v-72C189,565.8,190.8,564,193,564z"/>
<path class="st2" d="M237.5,579.7h4.6c1.6,0,2.9,0.3,3.8,1c0.9,0.7,1.4,1.7,1.4,3.1c0,0.8-0.1,1.5-0.4,2.1c-0.3,0.6-0.6,1-1.1,1.4
	s-1,0.6-1.7,0.8c-0.6,0.2-1.4,0.3-2.1,0.3h-2.5v5.6h-1.9v-14.3H237.5z M239.4,581.4v5.3h2.5c0.5,0,1-0.1,1.4-0.2
	c0.4-0.1,0.8-0.3,1.1-0.5s0.5-0.5,0.7-0.9s0.3-0.8,0.3-1.3c0-0.9-0.3-1.5-0.8-1.9c-0.6-0.4-1.4-0.6-2.4-0.6h-2.8V581.4z
	 M253.4,594.2c-0.7,0-1.4-0.1-2-0.4c-0.6-0.2-1.1-0.6-1.6-1c-0.4-0.5-0.8-1-1-1.7c-0.3-0.7-0.4-1.4-0.4-2.3c0-0.9,0.1-1.6,0.4-2.3
	c0.3-0.7,0.6-1.2,1-1.7c0.5-0.5,1-0.8,1.6-1s1.3-0.4,2-0.4s1.4,0.1,2,0.4c0.6,0.2,1.1,0.6,1.6,1c0.5,0.5,0.8,1,1.1,1.7
	c0.3,0.7,0.4,1.4,0.4,2.3c0,0.9-0.1,1.6-0.4,2.3s-0.6,1.2-1.1,1.7c-0.4,0.5-1,0.8-1.6,1C254.8,594.1,254.1,594.2,253.4,594.2z
	 M253.4,592.6c0.5,0,0.9-0.1,1.3-0.2c0.4-0.2,0.7-0.4,1-0.7s0.5-0.7,0.7-1.2s0.2-1,0.2-1.7s-0.1-1.2-0.2-1.7
	c-0.2-0.5-0.4-0.9-0.7-1.2s-0.6-0.6-1-0.7c-0.4-0.2-0.8-0.2-1.3-0.2s-0.9,0.1-1.3,0.2c-0.4,0.1-0.7,0.4-1,0.7s-0.5,0.7-0.7,1.2
	s-0.2,1-0.2,1.7s0.1,1.2,0.2,1.7s0.4,0.9,0.7,1.2s0.6,0.5,1,0.7C252.5,592.5,252.9,592.6,253.4,592.6z M260.8,579.7h4.6
	c1.6,0,2.9,0.3,3.8,1s1.4,1.7,1.4,3.1c0,0.8-0.1,1.5-0.4,2.1s-0.6,1-1.1,1.4s-1,0.6-1.7,0.8c-0.6,0.2-1.4,0.3-2.1,0.3h-2.5v5.6h-1.9
	L260.8,579.7L260.8,579.7z M262.7,581.4v5.3h2.5c0.5,0,1-0.1,1.4-0.2s0.8-0.3,1.1-0.5c0.3-0.2,0.5-0.5,0.7-0.9s0.3-0.8,0.3-1.3
	c0-0.9-0.3-1.5-0.8-1.9c-0.6-0.4-1.4-0.6-2.4-0.6h-2.8V581.4z M288.9,594h-2.6l-7.2-12v12h-1.8v-14.3h2.5l7.2,12v-12h1.8V594H288.9z
	 M298.3,594.2c-1,0-1.9-0.2-2.7-0.5c-0.8-0.3-1.6-0.8-2.2-1.4c-0.6-0.6-1.1-1.4-1.5-2.3c-0.3-0.9-0.5-2-0.5-3.2s0.2-2.3,0.5-3.2
	c0.4-0.9,0.8-1.7,1.5-2.3c0.6-0.6,1.3-1.1,2.2-1.4c0.8-0.3,1.7-0.5,2.7-0.5s1.9,0.2,2.7,0.5c0.8,0.3,1.6,0.8,2.2,1.4
	c0.6,0.6,1.1,1.4,1.4,2.3c0.3,0.9,0.5,2,0.5,3.2s-0.2,2.2-0.5,3.2c-0.3,0.9-0.8,1.7-1.4,2.3s-1.3,1.1-2.2,1.4
	C300.2,594,299.3,594.2,298.3,594.2z M298.3,592.5c0.7,0,1.3-0.1,1.9-0.3s1.1-0.5,1.5-1s0.8-1,1-1.8c0.3-0.7,0.4-1.6,0.4-2.6
	s-0.1-1.9-0.4-2.6c-0.2-0.7-0.6-1.3-1-1.7c-0.4-0.5-0.9-0.8-1.5-1s-1.2-0.3-1.9-0.3c-0.7,0-1.3,0.1-1.9,0.3s-1.1,0.5-1.5,1
	c-0.4,0.4-0.8,1-1,1.7s-0.4,1.6-0.4,2.6s0.1,1.9,0.4,2.6c0.3,0.7,0.6,1.3,1,1.8c0.4,0.4,1,0.8,1.5,1
	C297,592.4,297.6,592.5,298.3,592.5z M307.7,579.7h4.8c1.7,0,3,0.3,3.9,1s1.3,1.7,1.3,3.1c0,1.3-0.3,2.2-0.9,2.9s-1.4,1.1-2.4,1.3
	l3.9,6h-2.1l-3.7-5.8h-2.9v5.8h-1.9L307.7,579.7L307.7,579.7z M309.6,581.4v5.1h2.7c0.5,0,1,0,1.4-0.1s0.8-0.2,1.1-0.5
	c0.3-0.2,0.5-0.5,0.7-0.8c0.2-0.4,0.3-0.8,0.3-1.3c0-0.9-0.3-1.5-0.8-1.8c-0.6-0.4-1.4-0.5-2.4-0.5h-3V581.4z M320.7,579.7h4.8
	c1,0,1.9,0.1,2.7,0.3c0.8,0.2,1.5,0.6,2.2,1.1c0.6,0.5,1.1,1.2,1.4,2.1c0.3,0.9,0.5,1.9,0.5,3.2s-0.2,2.4-0.5,3.3
	c-0.3,0.9-0.8,1.7-1.5,2.4c-0.6,0.6-1.4,1.1-2.2,1.5c-0.9,0.3-1.8,0.5-2.8,0.5h-4.6V579.7z M322.6,581.4v10.9h2.7
	c0.7,0,1.4-0.1,2-0.3s1.1-0.6,1.6-1c0.4-0.5,0.8-1.1,1-1.8s0.4-1.6,0.4-2.6s-0.1-1.8-0.4-2.5c-0.2-0.7-0.6-1.2-1-1.6
	c-0.4-0.4-0.9-0.7-1.5-0.8c-0.6-0.2-1.2-0.2-1.9-0.2h-2.9V581.4z"/>
<g>
	<g>
		<defs>
			<rect id="SVGID_1_" x="261" y="603" width="34" height="32"/>
		</defs>
		<clipPath id="SVGID_00000062179180370779138610000002043211490482461853_">
			<use xlink:href="#SVGID_1_"  style="overflow:visible;"/>
		</clipPath>
		<g style="clip-path:url(#SVGID_00000062179180370779138610000002043211490482461853_);">
			<path class="st8" d="M267.4,631.9v-3.7c0-0.6,0.5-1.1,1.2-1.1h0.9v-2.9c0,0,0,0,0-0.1c0,0,0,0,0-0.1l0,0c0-0.3,0.1-0.5,0.4-0.7
				c0.2-0.2,0.4-0.3,0.7-0.3l0,0c0,0,0,0,0.1,0h0.1h7.3v-2h-11.7c-2.9,0-5.3-2-5.3-5c0-2.8,2.7-5,5.7-5h0.8c0.5-2.3,2.6-4,5.2-4
				c0.6,0,1.1,0.1,1.7,0.3c1.1-2.5,3.8-4.3,6.8-4.3c4.1,0,7.4,3.1,7.4,7c0,0.3,0,0.7-0.1,1h1.1c2.9,0,5.3,2.2,5.3,5l0,0
				c0,2.8-2.4,5-5.3,5h-9.6v2h7.3c0,0,0,0,0.1,0c0,0,0,0,0.1,0l0,0c0.1,0,0.2,0,0.7,0.3l0,0c0,0,0,0,0.1,0.1
				c0.2,0.2,0.3,0.4,0.3,0.6l0,0l0,0v0.1v2.9h0.9c0.7,0,1.2,0.5,1.2,1.1v3.7c0,0.6-0.5,1.1-1.2,1.1h-4c-0.7,0-1.2-0.5-1.2-1.1v-3.7
				c0-0.6,0.5-1.1,1.2-1.1h0.9v-2h-6.4v2h0.9c0.7,0,1.2,0.5,1.2,1.1v3.7c0,0.6-0.5,1.1-1.2,1.1h-4c-0.7,0-1.2-0.5-1.2-1.1v-3.7
				c0-0.6,0.5-1.1,1.2-1.1h0.9v-2h-6.4v2h0.9c0.7,0,1.2,0.5,1.2,1.1v3.7c0,0.6-0.5,1.1-1.2,1.1h-4
				C267.9,633,267.4,632.5,267.4,631.9z M288.3,623.3L288.3,623.3C288.2,623.2,288.2,623.3,288.3,623.3
				C288.2,623.3,288.2,623.3,288.3,623.3z M288.3,623.3C288,623.1,288.1,623.2,288.3,623.3C288.2,623.2,288.2,623.2,288.3,623.3z"/>
		</g>
	</g>
</g>
<path class="st6" d="M432,564h172c2.2,0,4,1.8,4,4v72c0,2.2-1.8,4-4,4H432c-2.2,0-4-1.8-4-4v-72C428,565.8,429.8,564,432,564z"/>
<path class="st2" d="M480.3,578.7h4.6c1.6,0,2.9,0.3,3.8,1s1.4,1.7,1.4,3.1c0,0.8-0.1,1.5-0.4,2.1s-0.6,1-1.1,1.4s-1,0.6-1.7,0.8
	c-0.6,0.2-1.4,0.3-2.1,0.3h-2.5v5.6h-1.9L480.3,578.7L480.3,578.7z M482.1,580.4v5.3h2.5c0.5,0,1-0.1,1.4-0.2
	c0.4-0.1,0.8-0.3,1.1-0.5c0.3-0.2,0.5-0.5,0.7-0.9s0.3-0.8,0.3-1.3c0-0.9-0.3-1.5-0.8-1.9c-0.6-0.4-1.4-0.6-2.4-0.6h-2.8V580.4z
	 M496.1,593.2c-0.7,0-1.4-0.1-2-0.4c-0.6-0.2-1.1-0.6-1.6-1c-0.4-0.5-0.8-1-1-1.7c-0.3-0.7-0.4-1.4-0.4-2.3c0-0.9,0.1-1.6,0.4-2.3
	s0.6-1.2,1-1.7c0.5-0.5,1-0.8,1.6-1s1.3-0.4,2-0.4s1.4,0.1,2,0.4c0.6,0.2,1.1,0.6,1.6,1c0.5,0.5,0.8,1,1.1,1.7
	c0.3,0.7,0.4,1.4,0.4,2.3c0,0.9-0.1,1.6-0.4,2.3s-0.6,1.2-1.1,1.7c-0.4,0.5-1,0.8-1.6,1C497.5,593.1,496.8,593.2,496.1,593.2z
	 M496.1,591.6c0.5,0,0.9-0.1,1.3-0.2c0.4-0.2,0.7-0.4,1-0.7s0.5-0.7,0.7-1.2s0.2-1,0.2-1.7s-0.1-1.2-0.2-1.7
	c-0.2-0.5-0.4-0.9-0.7-1.2c-0.3-0.3-0.6-0.6-1-0.7c-0.4-0.2-0.8-0.2-1.3-0.2s-0.9,0.1-1.3,0.2c-0.4,0.1-0.7,0.4-1,0.7
	s-0.5,0.7-0.7,1.2s-0.2,1-0.2,1.7s0.1,1.2,0.2,1.7s0.4,0.9,0.7,1.2c0.3,0.3,0.6,0.5,1,0.7C495.2,591.5,495.6,591.6,496.1,591.6z
	 M503.5,578.7h4.6c1.6,0,2.9,0.3,3.8,1s1.4,1.7,1.4,3.1c0,0.8-0.1,1.5-0.4,2.1c-0.3,0.6-0.6,1-1.1,1.4c-0.5,0.4-1,0.6-1.7,0.8
	c-0.6,0.2-1.4,0.3-2.1,0.3h-2.5v5.6h-1.9L503.5,578.7L503.5,578.7z M505.4,580.4v5.3h2.5c0.5,0,1-0.1,1.4-0.2s0.8-0.3,1.1-0.5
	c0.3-0.2,0.5-0.5,0.7-0.9s0.3-0.8,0.3-1.3c0-0.9-0.3-1.5-0.8-1.9c-0.6-0.4-1.4-0.6-2.4-0.6h-2.8V580.4z M526.1,593.2
	c-1,0-1.9-0.2-2.7-0.5s-1.6-0.8-2.2-1.4c-0.6-0.6-1.1-1.4-1.5-2.3c-0.3-0.9-0.5-2-0.5-3.2s0.2-2.3,0.5-3.2c0.4-0.9,0.8-1.7,1.5-2.3
	c0.6-0.6,1.3-1.1,2.2-1.4c0.8-0.3,1.7-0.5,2.7-0.5s1.9,0.2,2.7,0.5s1.6,0.8,2.2,1.4c0.6,0.6,1.1,1.4,1.4,2.3c0.3,0.9,0.5,2,0.5,3.2
	s-0.2,2.2-0.5,3.2c-0.3,0.9-0.8,1.7-1.4,2.3c-0.6,0.6-1.3,1.1-2.2,1.4C528,593,527.1,593.2,526.1,593.2z M526.1,591.5
	c0.7,0,1.3-0.1,1.9-0.3c0.6-0.2,1.1-0.5,1.5-1s0.8-1,1-1.8c0.3-0.7,0.4-1.6,0.4-2.6s-0.1-1.9-0.4-2.6c-0.2-0.7-0.6-1.3-1-1.7
	c-0.4-0.5-0.9-0.8-1.5-1s-1.2-0.3-1.9-0.3s-1.3,0.1-1.9,0.3c-0.6,0.2-1.1,0.5-1.5,1c-0.4,0.4-0.8,1-1,1.7s-0.4,1.6-0.4,2.6
	s0.1,1.9,0.4,2.6c0.3,0.7,0.6,1.3,1,1.8c0.4,0.4,1,0.8,1.5,1C524.8,591.4,525.4,591.5,526.1,591.5z M539.4,593.2
	c-0.7,0-1.2,0-1.8-0.1c-0.5-0.1-1-0.2-1.4-0.3s-0.7-0.3-1-0.5s-0.5-0.3-0.6-0.5V590c0.2,0.2,0.5,0.4,0.8,0.5
	c0.3,0.2,0.7,0.3,1.1,0.5c0.4,0.1,0.9,0.3,1.4,0.4c0.5,0.1,1,0.1,1.5,0.1c1,0,1.9-0.2,2.5-0.6c0.6-0.4,0.9-1,0.9-1.8
	c0-0.4-0.1-0.7-0.2-1c-0.1-0.3-0.4-0.5-0.6-0.7c-0.3-0.2-0.6-0.3-1.1-0.5c-0.4-0.1-0.9-0.3-1.5-0.4c-0.6-0.1-1.1-0.3-1.7-0.5
	c-0.6-0.2-1.1-0.4-1.5-0.7s-0.8-0.7-1.1-1.2s-0.4-1.1-0.4-1.8c0-1.2,0.4-2.2,1.3-2.9c0.9-0.7,2.2-1,4-1c0.5,0,1,0,1.4,0.1
	s0.8,0.1,1.1,0.2c0.3,0.1,0.6,0.2,0.8,0.3s0.5,0.2,0.6,0.3v1.8c-0.6-0.4-1.2-0.6-1.8-0.8s-1.3-0.2-2.1-0.2c-0.6,0-1.2,0.1-1.6,0.2
	c-0.4,0.1-0.8,0.2-1,0.4c-0.3,0.2-0.5,0.4-0.6,0.7s-0.2,0.6-0.2,0.9c0,0.4,0.1,0.7,0.3,1s0.4,0.5,0.7,0.7s0.7,0.3,1,0.4
	c0.4,0.1,0.8,0.2,1.2,0.3c0.6,0.1,1.1,0.3,1.7,0.5c0.6,0.2,1.1,0.4,1.6,0.7s0.8,0.7,1.1,1.2s0.5,1.1,0.5,1.9c0,0.8-0.2,1.4-0.5,1.9
	s-0.7,0.9-1.2,1.3c-0.5,0.3-1.1,0.6-1.7,0.7C540.8,593.1,540.1,593.2,539.4,593.2z M552.4,580.4V593h-1.9v-12.6h-4.4v-1.7h10.7v1.7
	H552.4z"/>
<g>
	<g>
		<defs>
			<rect id="SVGID_00000092424927841810262620000002263140226097665180_" x="500" y="603" width="34" height="32"/>
		</defs>
		<clipPath id="SVGID_00000163765489650614263110000002317853369523911053_">
			<use xlink:href="#SVGID_00000092424927841810262620000002263140226097665180_"  style="overflow:visible;"/>
		</clipPath>
		<g style="clip-path:url(#SVGID_00000163765489650614263110000002317853369523911053_);">
			<path class="st8" d="M506.4,631.9v-3.7c0-0.6,0.5-1.1,1.2-1.1h0.9v-2.9c0,0,0,0,0-0.1c0,0,0,0,0-0.1l0,0c0-0.3,0.1-0.5,0.4-0.7
				c0.2-0.2,0.4-0.3,0.7-0.3l0,0c0,0,0,0,0.1,0h0.1h7.3v-2h-11.7c-2.9,0-5.3-2-5.3-5c0-2.8,2.7-5,5.7-5h0.8c0.5-2.3,2.6-4,5.2-4
				c0.6,0,1.1,0.1,1.7,0.3c1.1-2.5,3.8-4.3,6.8-4.3c4.1,0,7.4,3.1,7.4,7c0,0.3,0,0.7-0.1,1h1.1c2.9,0,5.3,2.2,5.3,5l0,0
				c0,2.8-2.4,5-5.3,5h-9.6v2h7.3c0,0,0,0,0.1,0c0,0,0,0,0.1,0l0,0c0.1,0,0.2,0,0.7,0.3l0,0c0,0,0,0,0.1,0.1
				c0.2,0.2,0.3,0.4,0.3,0.6l0,0l0,0v0.1v2.9h0.9c0.7,0,1.2,0.5,1.2,1.1v3.7c0,0.6-0.5,1.1-1.2,1.1h-4c-0.7,0-1.2-0.5-1.2-1.1v-3.7
				c0-0.6,0.5-1.1,1.2-1.1h0.9v-2h-6.4v2h0.9c0.7,0,1.2,0.5,1.2,1.1v3.7c0,0.6-0.5,1.1-1.2,1.1h-4c-0.7,0-1.2-0.5-1.2-1.1v-3.7
				c0-0.6,0.5-1.1,1.2-1.1h0.9v-2h-6.4v2h0.9c0.7,0,1.2,0.5,1.2,1.1v3.7c0,0.6-0.5,1.1-1.2,1.1h-4
				C506.9,633,506.4,632.5,506.4,631.9z M527.3,623.3L527.3,623.3C527.2,623.2,527.2,623.3,527.3,623.3
				C527.2,623.3,527.2,623.3,527.3,623.3z M527.3,623.3C527,623.1,527.1,623.2,527.3,623.3C527.2,623.2,527.2,623.2,527.3,623.3z"/>
		</g>
	</g>
</g>
<path class="st6" d="M671,564h172c2.2,0,4,1.8,4,4v72c0,2.2-1.8,4-4,4H671c-2.2,0-4-1.8-4-4v-72C667,565.8,668.8,564,671,564z"/>
<path class="st2" d="M723.7,579.7h4.6c1.6,0,2.9,0.3,3.8,1c0.9,0.7,1.4,1.7,1.4,3.1c0,0.8-0.1,1.5-0.4,2.1c-0.3,0.6-0.6,1-1.1,1.4
	s-1,0.6-1.7,0.8c-0.6,0.2-1.4,0.3-2.1,0.3h-2.5v5.6h-1.9L723.7,579.7L723.7,579.7z M725.6,581.4v5.3h2.5c0.5,0,1-0.1,1.4-0.2
	c0.4-0.1,0.8-0.3,1.1-0.5s0.5-0.5,0.7-0.9s0.3-0.8,0.3-1.3c0-0.9-0.3-1.5-0.8-1.9c-0.6-0.4-1.4-0.6-2.4-0.6h-2.8V581.4z
	 M739.5,594.2c-0.7,0-1.4-0.1-2-0.4c-0.6-0.2-1.1-0.6-1.6-1c-0.4-0.5-0.8-1-1-1.7c-0.3-0.7-0.4-1.4-0.4-2.3c0-0.9,0.1-1.6,0.4-2.3
	c0.3-0.7,0.6-1.2,1-1.7c0.5-0.5,1-0.8,1.6-1s1.3-0.4,2-0.4s1.4,0.1,2,0.4c0.6,0.2,1.1,0.6,1.6,1c0.5,0.5,0.8,1,1.1,1.7
	s0.4,1.4,0.4,2.3c0,0.9-0.1,1.6-0.4,2.3c-0.3,0.7-0.6,1.2-1.1,1.7c-0.4,0.5-1,0.8-1.6,1C740.9,594.1,740.2,594.2,739.5,594.2z
	 M739.5,592.6c0.5,0,0.9-0.1,1.3-0.2c0.4-0.2,0.7-0.4,1-0.7s0.5-0.7,0.7-1.2s0.2-1,0.2-1.7s-0.1-1.2-0.2-1.7
	c-0.2-0.5-0.4-0.9-0.7-1.2s-0.6-0.6-1-0.7c-0.4-0.2-0.8-0.2-1.3-0.2s-0.9,0.1-1.3,0.2c-0.4,0.1-0.7,0.4-1,0.7s-0.5,0.7-0.7,1.2
	s-0.2,1-0.2,1.7s0.1,1.2,0.2,1.7c0.2,0.5,0.4,0.9,0.7,1.2s0.6,0.5,1,0.7C738.6,592.5,739,592.6,739.5,592.6z M746.9,579.7h4.6
	c1.6,0,2.9,0.3,3.8,1c0.9,0.7,1.4,1.7,1.4,3.1c0,0.8-0.1,1.5-0.4,2.1c-0.3,0.6-0.6,1-1.1,1.4s-1,0.6-1.7,0.8
	c-0.6,0.2-1.4,0.3-2.1,0.3h-2.5v5.6H747L746.9,579.7L746.9,579.7z M748.8,581.4v5.3h2.5c0.5,0,1-0.1,1.4-0.2
	c0.4-0.1,0.8-0.3,1.1-0.5s0.5-0.5,0.7-0.9s0.3-0.8,0.3-1.3c0-0.9-0.3-1.5-0.8-1.9c-0.6-0.4-1.4-0.6-2.4-0.6h-2.8V581.4z
	 M767.5,594.2c-0.7,0-1.2,0-1.8-0.1c-0.5-0.1-1-0.2-1.4-0.3s-0.7-0.3-1-0.5s-0.5-0.3-0.6-0.5V591c0.2,0.2,0.5,0.4,0.8,0.5
	c0.3,0.2,0.7,0.3,1.1,0.5c0.4,0.1,0.9,0.3,1.4,0.4c0.5,0.1,1,0.1,1.5,0.1c1,0,1.9-0.2,2.5-0.6c0.6-0.4,0.9-1,0.9-1.8
	c0-0.4-0.1-0.7-0.2-1c-0.1-0.3-0.4-0.5-0.6-0.7c-0.3-0.2-0.6-0.3-1.1-0.5c-0.4-0.1-0.9-0.3-1.5-0.4c-0.6-0.1-1.1-0.3-1.7-0.5
	c-0.6-0.2-1.1-0.4-1.5-0.7s-0.8-0.7-1.1-1.2s-0.4-1.1-0.4-1.8c0-1.2,0.4-2.2,1.3-2.9c0.9-0.7,2.2-1,4-1c0.5,0,1,0,1.4,0.1
	s0.8,0.1,1.1,0.2c0.3,0.1,0.6,0.2,0.8,0.3s0.5,0.2,0.6,0.3v1.8c-0.6-0.4-1.2-0.6-1.8-0.8s-1.3-0.2-2.1-0.2c-0.6,0-1.2,0.1-1.6,0.2
	c-0.4,0.1-0.8,0.2-1,0.4c-0.3,0.2-0.5,0.4-0.6,0.7s-0.2,0.6-0.2,0.9c0,0.4,0.1,0.7,0.3,1s0.4,0.5,0.7,0.7s0.7,0.3,1,0.4
	c0.4,0.1,0.8,0.2,1.2,0.3c0.6,0.1,1.1,0.3,1.7,0.5c0.6,0.2,1.1,0.4,1.6,0.7s0.8,0.7,1.1,1.2s0.5,1.1,0.5,1.9c0,0.8-0.2,1.4-0.5,1.9
	s-0.7,0.9-1.2,1.3c-0.5,0.3-1.1,0.6-1.7,0.7C768.9,594.1,768.2,594.2,767.5,594.2z M780.5,581.4V594h-1.9v-12.6h-4.4v-1.7h10.7v1.7
	H780.5z M787.2,579.7h4.8c1,0,1.9,0.1,2.7,0.3s1.5,0.6,2.2,1.1c0.6,0.5,1.1,1.2,1.4,2.1c0.3,0.9,0.5,1.9,0.5,3.2s-0.2,2.4-0.5,3.3
	c-0.3,0.9-0.8,1.7-1.5,2.4c-0.6,0.6-1.4,1.1-2.2,1.5c-0.9,0.3-1.8,0.5-2.8,0.5h-4.6L787.2,579.7L787.2,579.7z M789.1,581.4v10.9h2.7
	c0.7,0,1.4-0.1,2-0.3s1.1-0.6,1.6-1c0.4-0.5,0.8-1.1,1-1.8s0.4-1.6,0.4-2.6s-0.1-1.8-0.4-2.5c-0.2-0.7-0.6-1.2-1-1.6
	c-0.4-0.4-0.9-0.7-1.5-0.8c-0.6-0.2-1.2-0.2-1.9-0.2h-2.9V581.4z"/>
<path class="st8" d="M757.4,604.9c0.6-0.6,1.1-0.9,1.6-0.9s1,0.2,1.6,0.9c0.6,0.6,1.2,1.6,1.7,2.9c0.9,2.4,1.6,5.6,1.7,9.2h-10
	c0.1-3.6,0.7-6.9,1.7-9.2C756.2,606.5,756.8,605.5,757.4,604.9z M752,617c0.1-3.8,0.8-7.3,1.8-10c0.4-0.9,0.8-1.8,1.3-2.5
	c-5.5,1.6-9.6,6.5-10.1,12.5H752z M745,619h7c0.1,3.8,0.8,7.3,1.8,10c0.4,0.9,0.8,1.8,1.3,2.5C749.6,629.8,745.5,624.9,745,619z
	 M743,618c0-8.8,7.2-16,16-16s16,7.2,16,16s-7.2,16-16,16S743,626.8,743,618z M773,617c-0.4-5.9-4.5-10.8-10.1-12.5
	c0.5,0.7,0.9,1.5,1.3,2.5c1.1,2.6,1.7,6.1,1.8,10H773z M766,619h7c-0.4,5.9-4.5,10.8-10.1,12.5c0.5-0.7,0.9-1.5,1.3-2.5
	C765.2,626.3,765.9,622.8,766,619z M764,619c-0.1,3.6-0.7,6.9-1.7,9.2c-0.5,1.3-1.1,2.3-1.7,2.9c-0.6,0.6-1.1,0.9-1.6,0.9
	s-1-0.2-1.6-0.9c-0.6-0.6-1.2-1.6-1.7-2.9c-0.9-2.4-1.6-5.6-1.7-9.2H764z"/>
<path class="st6" d="M280,21h172c2.2,0,4,1.8,4,4v72c0,2.2-1.8,4-4,4H280c-2.2,0-4-1.8-4-4V25C276,22.8,277.8,21,280,21z"/>
<path class="st2" d="M331.5,36.7h4.6c1.6,0,2.9,0.3,3.8,1s1.4,1.7,1.4,3.1c0,0.8-0.1,1.5-0.4,2.1s-0.6,1-1.1,1.4s-1,0.6-1.7,0.8
	c-0.6,0.2-1.4,0.3-2.1,0.3h-2.5V51h-1.9L331.5,36.7L331.5,36.7z M333.4,38.4v5.3h2.5c0.5,0,1-0.1,1.4-0.2c0.4-0.1,0.8-0.3,1.1-0.5
	c0.3-0.2,0.5-0.5,0.7-0.9s0.3-0.8,0.3-1.3c0-0.9-0.3-1.5-0.8-1.9s-1.4-0.6-2.4-0.6h-2.8V38.4z M347.3,51.2c-0.7,0-1.4-0.1-2-0.4
	c-0.6-0.2-1.1-0.6-1.6-1c-0.4-0.5-0.8-1-1-1.7c-0.3-0.7-0.4-1.4-0.4-2.3c0-0.9,0.1-1.6,0.4-2.3s0.6-1.2,1-1.7c0.5-0.5,1-0.8,1.6-1
	s1.3-0.4,2-0.4s1.4,0.1,2,0.4c0.6,0.2,1.1,0.6,1.6,1c0.5,0.5,0.8,1,1.1,1.7c0.3,0.7,0.4,1.4,0.4,2.3c0,0.9-0.1,1.6-0.4,2.3
	s-0.6,1.2-1.1,1.7c-0.4,0.5-1,0.8-1.6,1S348,51.2,347.3,51.2z M347.3,49.6c0.5,0,0.9-0.1,1.3-0.2c0.4-0.2,0.7-0.4,1-0.7
	s0.5-0.7,0.7-1.2s0.2-1,0.2-1.7s-0.1-1.2-0.2-1.7c-0.2-0.5-0.4-0.9-0.7-1.2c-0.3-0.3-0.6-0.6-1-0.7c-0.4-0.2-0.8-0.2-1.3-0.2
	s-0.9,0.1-1.3,0.2c-0.4,0.1-0.7,0.4-1,0.7s-0.5,0.7-0.7,1.2s-0.2,1-0.2,1.7s0.1,1.2,0.2,1.7s0.4,0.9,0.7,1.2c0.3,0.3,0.6,0.5,1,0.7
	C346.4,49.5,346.9,49.6,347.3,49.6z M354.8,36.7h4.6c1.6,0,2.9,0.3,3.8,1s1.4,1.7,1.4,3.1c0,0.8-0.1,1.5-0.4,2.1s-0.6,1-1.1,1.4
	s-1,0.6-1.7,0.8c-0.6,0.2-1.4,0.3-2.1,0.3h-2.5V51h-1.9L354.8,36.7L354.8,36.7z M356.6,38.4v5.3h2.5c0.5,0,1-0.1,1.4-0.2
	c0.4-0.1,0.8-0.3,1.1-0.5c0.3-0.2,0.5-0.5,0.7-0.9s0.3-0.8,0.3-1.3c0-0.9-0.3-1.5-0.8-1.9s-1.4-0.6-2.4-0.6h-2.8V38.4z M378.4,46.7
	l4.7-10.1h2.4V51h-1.9V39.5l-4.4,9.3h-0.9h-0.8l0,0l-4.3-9.5V51h-1.8V36.7h2.6L378.4,46.7z M397.6,42.5c0,1.3-0.1,2.6-0.4,3.6
	c-0.2,1.1-0.6,2-1.1,2.7s-1.1,1.3-1.8,1.7c-0.7,0.4-1.6,0.6-2.6,0.6c-0.7,0-1.3-0.1-1.8-0.2c-0.5-0.1-0.9-0.3-1.3-0.5v-1.8
	c0.9,0.6,1.9,0.9,3.1,0.9c0.6,0,1.2-0.1,1.6-0.4c0.5-0.3,0.9-0.6,1.2-1.1c0.3-0.5,0.6-1,0.8-1.6c0.2-0.6,0.3-1.3,0.4-2
	c-0.4,0.5-0.9,0.9-1.5,1.2c-0.6,0.2-1.2,0.4-1.9,0.4c-0.6,0-1.2-0.1-1.8-0.3c-0.6-0.2-1-0.5-1.5-0.9c-0.4-0.4-0.7-0.9-1-1.5
	c-0.2-0.6-0.3-1.3-0.3-2s0.1-1.4,0.4-2s0.6-1.1,1-1.5s0.9-0.8,1.5-1s1.2-0.4,1.9-0.4c0.9,0,1.7,0.2,2.3,0.5c0.6,0.3,1.2,0.7,1.6,1.2
	s0.7,1.2,0.9,1.9C397.5,40.8,397.6,41.6,397.6,42.5z M392.7,38.1c-0.4,0-0.8,0.1-1.1,0.2c-0.3,0.1-0.7,0.3-0.9,0.6
	c-0.3,0.3-0.5,0.6-0.6,1c-0.2,0.4-0.2,0.8-0.2,1.4s0.1,1,0.2,1.4c0.2,0.4,0.4,0.7,0.6,1c0.3,0.3,0.6,0.5,0.9,0.6s0.7,0.2,1,0.2
	c0.4,0,0.8-0.1,1.2-0.2c0.4-0.1,0.7-0.4,1-0.6c0.3-0.3,0.5-0.6,0.7-1s0.2-0.9,0.2-1.4c0-0.9-0.3-1.7-0.8-2.2
	C394.3,38.4,393.6,38.1,392.7,38.1z"/>
<g>
	<g>
		<defs>
			<rect id="SVGID_00000145771461570220186610000000310539833843699361_" x="381" y="61" width="34" height="32"/>
		</defs>
		<clipPath id="SVGID_00000088831229941120356240000008886327313364715142_">
			<use xlink:href="#SVGID_00000145771461570220186610000000310539833843699361_"  style="overflow:visible;"/>
		</clipPath>
		<g style="clip-path:url(#SVGID_00000088831229941120356240000008886327313364715142_);">
			<path class="st8" d="M387.4,89.9v-3.7c0-0.6,0.5-1.1,1.2-1.1h0.9v-2.9c0,0,0,0,0-0.1c0,0,0,0,0-0.1l0,0c0-0.3,0.1-0.5,0.4-0.7
				c0.2-0.2,0.4-0.3,0.7-0.3l0,0c0,0,0,0,0.1,0h0.1h7.3v-2h-11.7c-2.9,0-5.3-2-5.3-5c0-2.8,2.7-5,5.7-5h0.8c0.5-2.3,2.6-4,5.2-4
				c0.6,0,1.1,0.1,1.7,0.3c1.1-2.5,3.8-4.3,6.8-4.3c4.1,0,7.4,3.1,7.4,7c0,0.3,0,0.7-0.1,1h1.1c2.9,0,5.3,2.2,5.3,5l0,0
				c0,2.8-2.4,5-5.3,5h-9.6v2h7.3c0,0,0,0,0.1,0c0,0,0,0,0.1,0l0,0c0.1,0,0.2,0,0.7,0.3l0,0c0,0,0,0,0.1,0.1
				c0.2,0.2,0.3,0.4,0.3,0.6l0,0l0,0v0.1V85h0.9c0.7,0,1.2,0.5,1.2,1.1v3.7c0,0.6-0.5,1.1-1.2,1.1h-4c-0.7,0-1.2-0.5-1.2-1.1v-3.7
				c0-0.6,0.5-1.1,1.2-1.1h0.9v-2h-6.4v2h0.9c0.7,0,1.2,0.5,1.2,1.1v3.7c0,0.6-0.5,1.1-1.2,1.1h-4c-0.7,0-1.2-0.5-1.2-1.1v-3.7
				c0-0.6,0.5-1.1,1.2-1.1h0.9v-2h-6.4v2h0.9c0.7,0,1.2,0.5,1.2,1.1v3.7c0,0.6-0.5,1.1-1.2,1.1h-4C387.9,91,387.4,90.5,387.4,89.9z
				 M408.3,81.3L408.3,81.3C408.2,81.2,408.2,81.3,408.3,81.3C408.2,81.3,408.2,81.3,408.3,81.3z M408.3,81.3
				C408,81.1,408.1,81.2,408.3,81.3C408.2,81.2,408.2,81.2,408.3,81.3z"/>
		</g>
	</g>
</g>
<path class="st8" d="M332.4,63.9c0.6-0.6,1.1-0.9,1.6-0.9s1,0.2,1.6,0.9c0.6,0.6,1.2,1.6,1.7,2.9c0.9,2.4,1.6,5.6,1.7,9.2h-10
	c0.1-3.6,0.7-6.9,1.7-9.2C331.2,65.5,331.8,64.5,332.4,63.9z M327,76c0.1-3.8,0.8-7.3,1.8-10c0.4-0.9,0.8-1.8,1.3-2.5
	c-5.5,1.6-9.6,6.5-10.1,12.4L327,76L327,76z M320,78h7c0.1,3.8,0.8,7.3,1.8,10c0.4,0.9,0.8,1.8,1.3,2.5
	C324.6,88.9,320.5,83.9,320,78z M318,77c0-8.8,7.2-16,16-16s16,7.2,16,16s-7.2,16-16,16S318,85.8,318,77z M348,76
	c-0.4-5.9-4.5-10.9-10.1-12.4c0.5,0.7,0.9,1.6,1.3,2.5c1.1,2.6,1.7,6.1,1.8,10L348,76L348,76z M341,78h7
	c-0.4,5.9-4.5,10.9-10.1,12.4c0.5-0.7,0.9-1.6,1.3-2.5C340.2,85.3,340.9,81.8,341,78z M339,78c-0.1,3.6-0.7,6.9-1.7,9.2
	c-0.5,1.3-1.1,2.3-1.7,2.9S334.5,91,334,91s-1-0.2-1.6-0.9c-0.6-0.6-1.2-1.6-1.7-2.9c-0.9-2.4-1.6-5.6-1.7-9.2H339z"/>
<path class="st11" d="M85,683h846c2.2,0,4,1.8,4,4v44c0,2.2-1.8,4-4,4H85c-2.2,0-4-1.8-4-4v-44C81,684.8,82.8,683,85,683z"/>
<g>
	<g>
		<g>
			<defs>
				<rect id="SVGID_00000015341504378412069780000017617420300383133334_" x="526.4" y="692" width="34" height="32"/>
			</defs>
			<clipPath id="SVGID_00000113321519925456277650000018282470873704327810_">
				<use xlink:href="#SVGID_00000015341504378412069780000017617420300383133334_"  style="overflow:visible;"/>
			</clipPath>
			<g style="clip-path:url(#SVGID_00000113321519925456277650000018282470873704327810_);">
				<path class="st8" d="M532.8,720.9v-3.7c0-0.6,0.5-1.1,1.2-1.1h0.9v-2.9c0,0,0,0,0-0.1c0,0,0,0,0-0.1l0,0c0-0.3,0.1-0.5,0.4-0.7
					c0.2-0.2,0.4-0.3,0.7-0.3l0,0c0,0,0,0,0.1,0h0.1h7.3v-2h-11.7c-2.9,0-5.3-2-5.3-5c0-2.8,2.7-5,5.7-5h0.8c0.5-2.3,2.6-4,5.2-4
					c0.6,0,1.1,0.1,1.7,0.3c1.1-2.5,3.8-4.3,6.8-4.3c4.1,0,7.4,3.1,7.4,7c0,0.3,0,0.7-0.1,1h1.1c2.9,0,5.3,2.2,5.3,5l0,0
					c0,2.8-2.4,5-5.3,5h-9.6v2h7.3c0,0,0,0,0.1,0c0,0,0,0,0.1,0l0,0c0.1,0,0.2,0,0.7,0.3l0,0c0,0,0,0,0.1,0.1
					c0.2,0.2,0.3,0.4,0.3,0.6l0,0l0,0v0.1v2.9h0.9c0.7,0,1.2,0.5,1.2,1.1v3.7c0,0.6-0.5,1.1-1.2,1.1h-4c-0.7,0-1.2-0.5-1.2-1.1v-3.7
					c0-0.6,0.5-1.1,1.2-1.1h0.9v-2h-6.4v2h0.9c0.7,0,1.2,0.5,1.2,1.1v3.7c0,0.6-0.5,1.1-1.2,1.1h-4c-0.7,0-1.2-0.5-1.2-1.1v-3.7
					c0-0.6,0.5-1.1,1.2-1.1h0.9v-2h-6.4v2h0.9c0.7,0,1.2,0.5,1.2,1.1v3.7c0,0.6-0.5,1.1-1.2,1.1h-4
					C533.3,722,532.8,721.5,532.8,720.9z M553.6,712.3L553.6,712.3C553.6,712.2,553.6,712.3,553.6,712.3L553.6,712.3z M553.6,712.3
					C553.4,712.1,553.5,712.2,553.6,712.3C553.6,712.2,553.6,712.2,553.6,712.3z"/>
			</g>
		</g>
	</g>
	<path class="st2" d="M574.9,715.1c-0.7,0-1.4-0.1-2-0.4c-0.6-0.2-1.1-0.6-1.6-1c-0.4-0.4-0.8-1-1-1.6s-0.3-1.4-0.3-2.2
		s0.1-1.5,0.3-2.2c0.2-0.6,0.5-1.2,1-1.6c0.4-0.4,0.9-0.8,1.5-1s1.3-0.3,2.1-0.3c0.7,0,1.3,0.1,1.8,0.2c0.5,0.1,0.9,0.3,1.3,0.5v1.3
		c-0.4-0.3-0.9-0.5-1.5-0.6c-0.5-0.1-1.1-0.2-1.6-0.2c-1.2,0-2.1,0.3-2.6,1c-0.6,0.7-0.8,1.6-0.8,3c0,1.3,0.3,2.3,0.9,3
		c0.6,0.7,1.5,1,2.7,1c0.5,0,1-0.1,1.5-0.2c0.5-0.1,1-0.4,1.4-0.7v1.3c-0.3,0.2-0.7,0.4-1.2,0.6
		C576.2,715.1,575.6,715.1,574.9,715.1z M581,705v10h-1.2v-10H581z M586,715.1c-0.5,0-1-0.1-1.4-0.3s-0.8-0.4-1.1-0.7
		s-0.6-0.7-0.7-1.2c-0.2-0.5-0.3-1-0.3-1.6s0.1-1.1,0.3-1.6s0.4-0.9,0.7-1.2s0.7-0.6,1.1-0.7c0.4-0.2,0.9-0.3,1.4-0.3s1,0.1,1.4,0.3
		s0.8,0.4,1.1,0.7s0.6,0.7,0.7,1.2c0.2,0.5,0.3,1,0.3,1.6s-0.1,1.1-0.3,1.6s-0.4,0.9-0.7,1.2s-0.7,0.6-1.1,0.7
		C587,715.1,586.5,715.1,586,715.1z M586,714c0.3,0,0.6-0.1,0.9-0.2c0.3-0.1,0.5-0.3,0.7-0.5s0.4-0.5,0.5-0.8s0.2-0.7,0.2-1.2
		s-0.1-0.9-0.2-1.2s-0.3-0.6-0.5-0.8s-0.4-0.4-0.7-0.5s-0.6-0.2-0.9-0.2c-0.3,0-0.6,0.1-0.9,0.2c-0.3,0.1-0.5,0.3-0.7,0.5
		s-0.3,0.5-0.5,0.8s-0.2,0.7-0.2,1.2s0.1,0.9,0.2,1.2s0.3,0.6,0.5,0.8s0.4,0.4,0.7,0.5C585.4,714,585.7,714,586,714z M595.7,713.7
		c-0.2,0.4-0.5,0.8-0.9,1c-0.4,0.3-0.9,0.4-1.6,0.4c-0.7,0-1.2-0.2-1.6-0.6c-0.4-0.4-0.6-1-0.6-1.8v-5.1h1.2v5.1
		c0,0.2,0,0.4,0.1,0.6c0.1,0.1,0.2,0.3,0.3,0.4c0.1,0.1,0.3,0.2,0.4,0.2c0.2,0,0.3,0.1,0.5,0.1c0.5,0,1-0.1,1.3-0.4
		c0.3-0.2,0.6-0.6,0.8-1v-4.9h1.2v7.3h-1L595.7,713.7L595.7,713.7z M604.2,713.6c-0.2,0.5-0.5,0.9-0.9,1.1c-0.4,0.3-0.9,0.4-1.5,0.4
		c-0.4,0-0.9-0.1-1.2-0.2c-0.4-0.2-0.7-0.4-1-0.7s-0.5-0.7-0.7-1.2s-0.3-1-0.3-1.7c0-0.6,0.1-1.2,0.3-1.7s0.4-0.9,0.7-1.2
		s0.6-0.6,1-0.7c0.4-0.2,0.8-0.2,1.3-0.2s1,0.1,1.4,0.3s0.7,0.5,1,1V705h1.2v10h-1.1L604.2,713.6z M601.9,714c0.3,0,0.6-0.1,0.9-0.2
		c0.3-0.1,0.5-0.3,0.7-0.5s0.4-0.5,0.5-0.8s0.2-0.7,0.2-1.2s-0.1-0.8-0.2-1.2c-0.1-0.3-0.3-0.6-0.5-0.8s-0.4-0.4-0.7-0.5
		s-0.6-0.2-0.9-0.2c-0.6,0-1.2,0.2-1.6,0.7c-0.4,0.4-0.6,1.1-0.6,2s0.2,1.6,0.6,2C600.7,713.8,601.2,714,601.9,714z M611.9,705v10
		h-1.3v-10H611.9z M617.5,708.7c-0.6,0-1,0.1-1.4,0.4c-0.3,0.3-0.6,0.6-0.8,1v4.9h-1.2v-7.3h1.2v1.3l0,0c0.2-0.4,0.5-0.8,0.9-1
		s1-0.4,1.6-0.4c0.7,0,1.3,0.2,1.7,0.6c0.4,0.4,0.6,1,0.6,1.7v5.1h-1.2v-5c0-0.5-0.1-0.9-0.4-1.1C618.3,708.8,618,708.7,617.5,708.7
		z M625.7,714.8c-0.1,0.1-0.3,0.2-0.6,0.2c-0.2,0.1-0.5,0.1-0.7,0.1c-0.4,0-0.7-0.1-0.9-0.2c-0.2-0.1-0.4-0.2-0.6-0.4
		c-0.2-0.2-0.3-0.4-0.3-0.6c-0.1-0.2-0.1-0.5-0.1-0.7v-4.5h-0.9v-1h0.9v-1.5h1.2v1.5h2.1v1h-2.1v4.4c0,0.3,0.1,0.5,0.2,0.7
		c0.2,0.1,0.4,0.2,0.8,0.2c0.4,0,0.7-0.1,1-0.3L625.7,714.8L625.7,714.8z M633,714.4c-0.1,0.1-0.2,0.2-0.4,0.2
		c-0.1,0.1-0.3,0.2-0.5,0.3s-0.5,0.1-0.7,0.2c-0.3,0.1-0.6,0.1-0.9,0.1c-1.2,0-2.2-0.3-2.8-1s-1-1.6-1-2.8c0-0.6,0.1-1.1,0.3-1.6
		s0.4-0.9,0.7-1.2s0.7-0.6,1.1-0.7c0.4-0.2,0.9-0.3,1.4-0.3s1,0.1,1.4,0.3s0.7,0.4,1,0.8c0.3,0.3,0.5,0.8,0.5,1.3
		c0.1,0.5,0.1,1.1,0,1.8H628c0,0.8,0.3,1.4,0.7,1.8c0.4,0.4,1,0.6,1.9,0.6c0.6,0,1-0.1,1.4-0.2c0.4-0.2,0.7-0.3,1-0.5L633,714.4
		L633,714.4z M630.1,708.7c-0.5,0-1,0.2-1.4,0.5s-0.6,0.8-0.7,1.5h3.9c0-0.7-0.1-1.2-0.5-1.5C631.1,708.8,630.7,708.7,630.1,708.7z
		 M638.3,709c-0.5,0-1,0.2-1.4,0.4s-0.7,0.6-0.9,1v4.6h-1.2v-7.3h1.1l0.1,1.6l0,0c0.2-0.4,0.5-0.8,0.9-1.1s0.9-0.5,1.5-0.6
		L638.3,709L638.3,709z M642.7,715.1c-0.6,0-1.1-0.1-1.5-0.3s-0.8-0.4-1.1-0.7s-0.6-0.7-0.7-1.2c-0.2-0.5-0.3-1-0.3-1.6
		s0.1-1.1,0.3-1.6s0.4-0.9,0.7-1.2s0.7-0.6,1.2-0.7c0.5-0.2,1-0.3,1.6-0.3c0.4,0,0.9,0.1,1.2,0.2c0.4,0.1,0.7,0.2,0.9,0.4v1.1
		c-0.3-0.2-0.6-0.3-1-0.4c-0.4-0.1-0.7-0.2-1.1-0.2c-0.8,0-1.5,0.2-1.9,0.7c-0.4,0.4-0.6,1.1-0.6,2s0.2,1.6,0.6,2
		c0.4,0.4,1,0.7,1.8,0.7c0.4,0,0.8-0.1,1.2-0.2c0.4-0.1,0.7-0.3,1-0.4v1.1c-0.3,0.2-0.6,0.3-1,0.4
		C643.6,715.1,643.2,715.1,642.7,715.1z M649.4,715.1c-0.5,0-1-0.1-1.4-0.3s-0.8-0.4-1.1-0.7s-0.5-0.7-0.7-1.2s-0.3-1-0.3-1.6
		s0.1-1.1,0.3-1.6s0.4-0.9,0.7-1.2s0.7-0.6,1.1-0.7c0.4-0.2,0.9-0.3,1.4-0.3s1,0.1,1.4,0.3s0.8,0.4,1.1,0.7s0.6,0.7,0.7,1.2
		c0.2,0.5,0.3,1,0.3,1.6s-0.1,1.1-0.3,1.6s-0.4,0.9-0.7,1.2s-0.7,0.6-1.1,0.7C650.4,715.1,649.9,715.1,649.4,715.1z M649.4,714
		c0.3,0,0.6-0.1,0.9-0.2c0.3-0.1,0.5-0.3,0.7-0.5s0.4-0.5,0.5-0.8s0.2-0.7,0.2-1.2s-0.1-0.9-0.2-1.2s-0.3-0.6-0.5-0.8
		s-0.4-0.4-0.7-0.5s-0.6-0.2-0.9-0.2c-0.3,0-0.6,0.1-0.9,0.2c-0.3,0.1-0.5,0.3-0.7,0.5s-0.3,0.5-0.5,0.8s-0.2,0.7-0.2,1.2
		s0.1,0.9,0.2,1.2s0.3,0.6,0.5,0.8s0.4,0.4,0.7,0.5C648.8,714,649.1,714,649.4,714z M657.9,708.7c-0.6,0-1,0.1-1.4,0.4
		c-0.3,0.3-0.6,0.6-0.8,1v4.9h-1.2v-7.3h1.2v1.3l0,0c0.2-0.4,0.5-0.8,0.9-1c0.4-0.3,1-0.4,1.6-0.4c0.7,0,1.3,0.2,1.7,0.6
		c0.4,0.4,0.6,1,0.6,1.7v5.1h-1.2v-5c0-0.5-0.1-0.9-0.4-1.1C658.7,708.8,658.3,708.7,657.9,708.7z M665.9,708.7
		c-0.6,0-1,0.1-1.4,0.4c-0.3,0.3-0.6,0.6-0.8,1v4.9h-1.2v-7.3h1.2v1.3l0,0c0.2-0.4,0.5-0.8,0.9-1s1-0.4,1.6-0.4
		c0.7,0,1.3,0.2,1.7,0.6c0.4,0.4,0.6,1,0.6,1.7v5.1h-1.2v-5c0-0.5-0.1-0.9-0.4-1.1C666.7,708.8,666.4,708.7,665.9,708.7z
		 M676.3,714.4c-0.1,0.1-0.2,0.2-0.4,0.2c-0.1,0.1-0.3,0.2-0.5,0.3s-0.5,0.1-0.7,0.2c-0.3,0.1-0.6,0.1-0.9,0.1c-1.2,0-2.2-0.3-2.8-1
		s-1-1.6-1-2.8c0-0.6,0.1-1.1,0.3-1.6s0.4-0.9,0.7-1.2s0.7-0.6,1.1-0.7c0.4-0.2,0.9-0.3,1.4-0.3s1,0.1,1.4,0.3s0.7,0.4,1,0.8
		c0.3,0.3,0.5,0.8,0.5,1.3c0.1,0.5,0.1,1.1,0,1.8h-5.1c0,0.8,0.3,1.4,0.7,1.8c0.4,0.4,1,0.6,1.9,0.6c0.6,0,1-0.1,1.4-0.2
		c0.4-0.2,0.7-0.3,1-0.5L676.3,714.4L676.3,714.4z M673.4,708.7c-0.5,0-1,0.2-1.4,0.5s-0.6,0.8-0.7,1.5h3.9c0-0.7-0.1-1.2-0.5-1.5
		C674.4,708.8,674,708.7,673.4,708.7z M681.1,715.1c-0.6,0-1.1-0.1-1.5-0.3s-0.8-0.4-1.1-0.7s-0.6-0.7-0.7-1.2
		c-0.2-0.5-0.3-1-0.3-1.6s0.1-1.1,0.3-1.6s0.4-0.9,0.7-1.2s0.7-0.6,1.2-0.7c0.5-0.2,1-0.3,1.6-0.3c0.4,0,0.9,0.1,1.2,0.2
		c0.4,0.1,0.7,0.2,0.9,0.4v1.1c-0.3-0.2-0.6-0.3-1-0.4c-0.4-0.1-0.7-0.2-1.1-0.2c-0.8,0-1.5,0.2-1.9,0.7c-0.4,0.4-0.6,1.1-0.6,2
		s0.2,1.6,0.6,2c0.4,0.4,1,0.7,1.8,0.7c0.4,0,0.8-0.1,1.2-0.2c0.4-0.1,0.7-0.3,1-0.4v1.1c-0.3,0.2-0.6,0.3-1,0.4
		C682,715.1,681.6,715.1,681.1,715.1z M688.4,714.8c-0.1,0.1-0.3,0.2-0.6,0.2c-0.2,0.1-0.5,0.1-0.7,0.1c-0.4,0-0.7-0.1-0.9-0.2
		c-0.2-0.1-0.4-0.2-0.6-0.4c-0.2-0.2-0.3-0.4-0.3-0.6c-0.1-0.2-0.1-0.5-0.1-0.7v-4.5h-0.9v-1h0.9v-1.5h1.2v1.5h2.1v1h-2.1v4.4
		c0,0.3,0.1,0.5,0.2,0.7c0.2,0.1,0.4,0.2,0.8,0.2c0.4,0,0.7-0.1,1-0.3L688.4,714.8L688.4,714.8z"/>
</g>
<g>
	<path class="st2" d="M789.5,705v10h-1.3v-10H789.5z M795.1,708.7c-0.6,0-1,0.1-1.4,0.4c-0.3,0.3-0.6,0.6-0.8,1v4.9h-1.2v-7.3h1.2
		v1.3l0,0c0.2-0.4,0.5-0.8,0.9-1c0.4-0.3,1-0.4,1.6-0.4c0.7,0,1.3,0.2,1.7,0.6c0.4,0.4,0.6,1,0.6,1.7v5.1h-1.2v-5
		c0-0.5-0.1-0.9-0.4-1.1C795.9,708.8,795.5,708.7,795.1,708.7z M803.3,714.8c-0.1,0.1-0.3,0.2-0.6,0.2c-0.2,0.1-0.5,0.1-0.7,0.1
		c-0.4,0-0.7-0.1-0.9-0.2c-0.2-0.1-0.4-0.2-0.6-0.4c-0.2-0.2-0.3-0.4-0.4-0.6c-0.1-0.2-0.1-0.5-0.1-0.7v-4.5h-0.9v-1h0.9v-1.5h1.2
		v1.5h2.1v1h-2.1v4.4c0,0.3,0.1,0.5,0.2,0.7c0.2,0.1,0.4,0.2,0.8,0.2c0.4,0,0.7-0.1,1-0.3L803.3,714.8L803.3,714.8z M810.6,714.4
		c-0.1,0.1-0.2,0.2-0.4,0.2s-0.3,0.2-0.5,0.3s-0.5,0.1-0.7,0.2c-0.3,0.1-0.6,0.1-0.9,0.1c-1.2,0-2.2-0.3-2.8-1s-1-1.6-1-2.8
		c0-0.6,0.1-1.1,0.3-1.6s0.4-0.9,0.7-1.2s0.7-0.6,1.1-0.7c0.4-0.2,0.9-0.3,1.4-0.3s1,0.1,1.4,0.3s0.7,0.4,1,0.8
		c0.3,0.3,0.5,0.8,0.5,1.3c0.1,0.5,0.1,1.1,0,1.8h-5.1c0,0.8,0.3,1.4,0.7,1.8c0.4,0.4,1,0.6,1.9,0.6c0.6,0,1-0.1,1.4-0.2
		s0.7-0.3,1-0.5L810.6,714.4L810.6,714.4z M807.7,708.7c-0.5,0-1,0.2-1.4,0.5s-0.6,0.8-0.7,1.5h3.9c0-0.7-0.1-1.2-0.5-1.5
		C808.7,708.8,808.3,708.7,807.7,708.7z M815.9,709c-0.5,0-1,0.2-1.4,0.4s-0.7,0.6-0.9,1v4.6h-1.2v-7.3h1.1l0.1,1.6l0,0
		c0.2-0.4,0.5-0.8,0.9-1.1s0.9-0.5,1.5-0.6L815.9,709L815.9,709z M820.8,708.7c-0.6,0-1,0.1-1.4,0.4c-0.3,0.3-0.6,0.6-0.8,1v4.9
		h-1.2v-7.3h1.2v1.3l0,0c0.2-0.4,0.5-0.8,0.9-1s1-0.4,1.6-0.4c0.7,0,1.3,0.2,1.7,0.6c0.4,0.4,0.6,1,0.6,1.7v5.1h-1.2v-5
		c0-0.5-0.1-0.9-0.4-1.1C821.6,708.8,821.3,708.7,820.8,708.7z M831.2,714.4c-0.1,0.1-0.2,0.2-0.4,0.2c-0.1,0.1-0.3,0.2-0.5,0.3
		s-0.5,0.1-0.7,0.2c-0.3,0.1-0.6,0.1-0.9,0.1c-1.2,0-2.2-0.3-2.8-1s-1-1.6-1-2.8c0-0.6,0.1-1.1,0.3-1.6s0.4-0.9,0.7-1.2
		s0.7-0.6,1.1-0.7c0.4-0.2,0.9-0.3,1.4-0.3s1,0.1,1.4,0.3s0.7,0.4,1,0.8c0.3,0.3,0.5,0.8,0.5,1.3c0.1,0.5,0.1,1.1,0,1.8h-5.1
		c0,0.8,0.3,1.4,0.7,1.8c0.4,0.4,1,0.6,1.9,0.6c0.6,0,1-0.1,1.4-0.2c0.4-0.2,0.7-0.3,1-0.5L831.2,714.4L831.2,714.4z M828.3,708.7
		c-0.5,0-1,0.2-1.4,0.5s-0.6,0.8-0.7,1.5h3.9c0-0.7-0.1-1.2-0.5-1.5C829.3,708.8,828.9,708.7,828.3,708.7z M836.4,714.8
		c-0.1,0.1-0.3,0.2-0.6,0.2c-0.2,0.1-0.5,0.1-0.7,0.1c-0.4,0-0.7-0.1-0.9-0.2c-0.2-0.1-0.4-0.2-0.6-0.4c-0.2-0.2-0.3-0.4-0.3-0.6
		c-0.1-0.2-0.1-0.5-0.1-0.7v-4.5h-0.9v-1h0.9v-1.5h1.2v1.5h2.1v1h-2.1v4.4c0,0.3,0.1,0.5,0.2,0.7c0.2,0.1,0.4,0.2,0.8,0.2
		c0.4,0,0.7-0.1,1-0.3L836.4,714.8L836.4,714.8z M841.3,705h3.2c1.1,0,2,0.2,2.6,0.7s1,1.2,1,2.2c0,0.6-0.1,1.1-0.3,1.5
		s-0.4,0.7-0.8,1c-0.3,0.3-0.7,0.5-1.2,0.6c-0.4,0.1-0.9,0.2-1.5,0.2h-1.8v3.9h-1.3L841.3,705L841.3,705z M842.6,706.2v3.7h1.8
		c0.4,0,0.7,0,1-0.1s0.5-0.2,0.7-0.3c0.2-0.2,0.4-0.4,0.5-0.6c0.1-0.3,0.2-0.6,0.2-0.9c0-0.6-0.2-1-0.6-1.3s-1-0.4-1.7-0.4h-1.9
		V706.2z M855.2,714.4c-0.1,0.1-0.2,0.2-0.4,0.2c-0.1,0.1-0.3,0.2-0.5,0.3s-0.5,0.1-0.7,0.2c-0.3,0.1-0.6,0.1-0.9,0.1
		c-1.2,0-2.2-0.3-2.8-1s-1-1.6-1-2.8c0-0.6,0.1-1.1,0.3-1.6s0.4-0.9,0.7-1.2s0.7-0.6,1.1-0.7c0.4-0.2,0.9-0.3,1.4-0.3s1,0.1,1.4,0.3
		s0.7,0.4,1,0.8c0.3,0.3,0.5,0.8,0.5,1.3c0.1,0.5,0.1,1.1,0,1.8h-5.1c0,0.8,0.3,1.4,0.7,1.8c0.4,0.4,1,0.6,1.9,0.6
		c0.6,0,1-0.1,1.4-0.2s0.7-0.3,1-0.5L855.2,714.4L855.2,714.4z M852.3,708.7c-0.5,0-1,0.2-1.4,0.5s-0.6,0.8-0.7,1.5h3.9
		c0-0.7-0.1-1.2-0.5-1.5C853.3,708.8,852.8,708.7,852.3,708.7z M862.6,714.4c-0.1,0.1-0.2,0.2-0.4,0.2s-0.3,0.2-0.5,0.3
		s-0.5,0.1-0.7,0.2c-0.3,0.1-0.6,0.1-0.9,0.1c-1.2,0-2.2-0.3-2.8-1s-1-1.6-1-2.8c0-0.6,0.1-1.1,0.3-1.6s0.4-0.9,0.7-1.2
		s0.7-0.6,1.1-0.7c0.4-0.2,0.9-0.3,1.4-0.3s1,0.1,1.4,0.3s0.7,0.4,1,0.8c0.3,0.3,0.5,0.8,0.5,1.3c0.1,0.5,0.1,1.1,0,1.8h-5.1
		c0,0.8,0.3,1.4,0.7,1.8c0.4,0.4,1,0.6,1.9,0.6c0.6,0,1-0.1,1.4-0.2s0.7-0.3,1-0.5L862.6,714.4L862.6,714.4z M859.7,708.7
		c-0.5,0-1,0.2-1.4,0.5s-0.6,0.8-0.7,1.5h3.9c0-0.7-0.1-1.2-0.5-1.5C860.7,708.8,860.3,708.7,859.7,708.7z M867.8,709
		c-0.5,0-1,0.2-1.4,0.4s-0.7,0.6-0.9,1v4.6h-1.2v-7.3h1.1l0.1,1.6l0,0c0.2-0.4,0.5-0.8,0.9-1.1s0.9-0.5,1.5-0.6L867.8,709L867.8,709
		z M870,706.7c-0.3,0-0.5-0.1-0.6-0.2c-0.1-0.2-0.2-0.3-0.2-0.6s0.1-0.4,0.2-0.6c0.1-0.2,0.3-0.2,0.6-0.2c0.2,0,0.4,0.1,0.6,0.2
		c0.1,0.2,0.2,0.4,0.2,0.6s-0.1,0.4-0.2,0.6C870.4,706.6,870.2,706.7,870,706.7z M870.6,707.7v7.3h-1.2v-7.3H870.6z M876,708.7
		c-0.6,0-1,0.1-1.4,0.4c-0.3,0.3-0.6,0.6-0.8,1v4.9h-1.2v-7.3h1.2v1.3l0,0c0.2-0.4,0.5-0.8,0.9-1c0.4-0.3,1-0.4,1.6-0.4
		c0.7,0,1.3,0.2,1.7,0.6c0.4,0.4,0.6,1,0.6,1.7v5.1h-1.2v-5c0-0.5-0.1-0.9-0.4-1.1C876.8,708.8,876.5,708.7,876,708.7z M886.9,714.4
		c0,0.5-0.1,0.9-0.2,1.3c-0.1,0.4-0.3,0.7-0.6,1s-0.7,0.5-1.1,0.6c-0.5,0.1-1,0.2-1.7,0.2c-0.4,0-0.7,0-0.9-0.1
		c-0.3,0-0.5-0.1-0.7-0.2c-0.2-0.1-0.4-0.1-0.5-0.2c-0.1-0.1-0.3-0.1-0.3-0.2v-1.1c0.1,0.1,0.3,0.2,0.5,0.2c0.2,0.1,0.4,0.1,0.5,0.2
		c0.2,0.1,0.4,0.1,0.7,0.1s0.5,0.1,0.9,0.1c0.9,0,1.5-0.2,1.9-0.5s0.5-0.8,0.5-1.5v-1.1c-0.2,0.4-0.5,0.8-0.9,1
		c-0.4,0.3-0.9,0.4-1.4,0.4c-0.4,0-0.8-0.1-1.2-0.2c-0.4-0.1-0.7-0.4-1-0.7s-0.5-0.7-0.7-1.1c-0.2-0.4-0.3-1-0.3-1.6
		s0.1-1.1,0.3-1.6c0.2-0.4,0.4-0.8,0.7-1.1s0.6-0.5,1-0.7c0.4-0.1,0.8-0.2,1.2-0.2c0.6,0,1.1,0.1,1.5,0.4c0.4,0.3,0.7,0.6,0.9,1.1
		v-0.2c0-0.2,0-0.4,0-0.6c0-0.2,0-0.4,0.1-0.6h1.1c0,0.1,0,0.3-0.1,0.6c0,0.2,0,0.4,0,0.6v5.7H886.9z M883.5,713.6
		c0.3,0,0.6,0,0.8-0.1c0.3-0.1,0.5-0.3,0.7-0.5s0.3-0.5,0.4-0.8c0.1-0.3,0.2-0.7,0.2-1.1c0-0.8-0.2-1.5-0.6-1.9
		c-0.4-0.4-0.9-0.6-1.5-0.6c-0.3,0-0.6,0.1-0.9,0.2c-0.3,0.1-0.5,0.3-0.7,0.5s-0.3,0.5-0.4,0.8c-0.1,0.3-0.2,0.7-0.2,1.1
		s0.1,0.8,0.2,1.1c0.1,0.3,0.3,0.6,0.5,0.8s0.4,0.3,0.7,0.4C882.9,713.5,883.2,713.6,883.5,713.6z"/>
	<path class="st8" d="M763.4,694.9c0.6-0.6,1.1-0.9,1.6-0.9s1,0.2,1.6,0.9c0.6,0.6,1.2,1.6,1.7,2.9c0.9,2.4,1.6,5.6,1.7,9.2h-10
		c0.1-3.6,0.7-6.9,1.7-9.2C762.2,696.5,762.8,695.5,763.4,694.9z M758,707c0.1-3.8,0.8-7.3,1.8-10c0.4-0.9,0.8-1.8,1.3-2.5
		c-5.5,1.6-9.6,6.5-10.1,12.5H758z M751,709h7c0.1,3.8,0.8,7.3,1.8,10c0.4,0.9,0.8,1.8,1.3,2.5C755.6,719.8,751.5,714.9,751,709z
		 M749,708c0-8.8,7.2-16,16-16s16,7.2,16,16s-7.2,16-16,16S749,716.8,749,708z M779,707c-0.4-5.9-4.5-10.8-10.1-12.5
		c0.5,0.7,0.9,1.5,1.3,2.5c1.1,2.6,1.7,6.1,1.8,10H779z M772,709h7c-0.4,5.9-4.5,10.8-10.1,12.5c0.5-0.7,0.9-1.5,1.3-2.5
		C771.2,716.3,771.9,712.8,772,709z M770,709c-0.1,3.6-0.7,6.9-1.7,9.2c-0.5,1.3-1.1,2.3-1.7,2.9c-0.6,0.6-1.1,0.9-1.6,0.9
		s-1-0.2-1.6-0.9c-0.6-0.6-1.2-1.6-1.7-2.9c-0.9-2.4-1.6-5.6-1.7-9.2H770z"/>
</g>
<path class="st6" d="M562,21h172c2.2,0,4,1.8,4,4v72c0,2.2-1.8,4-4,4H562c-2.2,0-4-1.8-4-4V25C558,22.8,559.8,21,562,21z"/>
<path class="st2" d="M595.9,36.7h4.6c1.6,0,2.9,0.3,3.8,1c0.9,0.7,1.4,1.7,1.4,3.1c0,0.8-0.1,1.5-0.4,2.1c-0.3,0.6-0.6,1-1.1,1.4
	s-1,0.6-1.7,0.8c-0.6,0.2-1.4,0.3-2.1,0.3h-2.5V51H596L595.9,36.7L595.9,36.7z M597.8,38.4v5.3h2.5c0.5,0,1-0.1,1.4-0.2
	c0.4-0.1,0.8-0.3,1.1-0.5s0.5-0.5,0.7-0.9s0.3-0.8,0.3-1.3c0-0.9-0.3-1.5-0.8-1.9c-0.6-0.4-1.4-0.6-2.4-0.6h-2.8V38.4z M611.7,51.2
	c-0.7,0-1.4-0.1-2-0.4c-0.6-0.2-1.1-0.6-1.6-1c-0.4-0.5-0.8-1-1-1.7c-0.3-0.7-0.4-1.4-0.4-2.3c0-0.9,0.1-1.6,0.4-2.3
	c0.3-0.7,0.6-1.2,1-1.7c0.5-0.5,1-0.8,1.6-1s1.3-0.4,2-0.4s1.4,0.1,2,0.4c0.6,0.2,1.1,0.6,1.6,1c0.5,0.5,0.8,1,1.1,1.7
	s0.4,1.4,0.4,2.3c0,0.9-0.1,1.6-0.4,2.3c-0.3,0.7-0.6,1.2-1.1,1.7c-0.4,0.5-1,0.8-1.6,1C613.1,51.1,612.5,51.2,611.7,51.2z
	 M611.7,49.6c0.5,0,0.9-0.1,1.3-0.2c0.4-0.2,0.7-0.4,1-0.7s0.5-0.7,0.7-1.2s0.2-1,0.2-1.7s-0.1-1.2-0.2-1.7
	c-0.2-0.5-0.4-0.9-0.7-1.2s-0.6-0.6-1-0.7c-0.4-0.2-0.8-0.2-1.3-0.2s-0.9,0.1-1.3,0.2c-0.4,0.1-0.7,0.4-1,0.7s-0.5,0.7-0.7,1.2
	s-0.2,1-0.2,1.7s0.1,1.2,0.2,1.7s0.4,0.9,0.7,1.2s0.6,0.5,1,0.7C610.9,49.5,611.3,49.6,611.7,49.6z M619.2,36.7h4.6
	c1.6,0,2.9,0.3,3.8,1c0.9,0.7,1.4,1.7,1.4,3.1c0,0.8-0.1,1.5-0.4,2.1c-0.3,0.6-0.6,1-1.1,1.4s-1,0.6-1.7,0.8
	c-0.6,0.2-1.4,0.3-2.1,0.3h-2.5V51h-1.9L619.2,36.7L619.2,36.7z M621.1,38.4v5.3h2.5c0.5,0,1-0.1,1.4-0.2c0.4-0.1,0.8-0.3,1.1-0.5
	s0.5-0.5,0.7-0.9s0.3-0.8,0.3-1.3c0-0.9-0.3-1.5-0.8-1.9s-1.4-0.6-2.4-0.6h-2.8V38.4z M641,38.4V51h-1.9V38.4h-4.4v-1.7h10.7v1.7
	H641z M647.7,36.7h8.9v1.7h-7v4.3h5.9v1.7h-5.9v4.9h7.1V51h-9V36.7z M668.9,44.7h-7.4V51h-1.9V36.7h1.9V43h7.4v-6.4h1.9V51h-1.9
	V44.7z M685.7,51h-2.6L676,39v12h-1.8V36.7h2.5l7.2,12v-12h1.8V51z M695.1,51.2c-1,0-1.9-0.2-2.7-0.5s-1.6-0.8-2.2-1.4
	c-0.6-0.6-1.1-1.4-1.5-2.3c-0.3-0.9-0.5-2-0.5-3.2s0.2-2.3,0.5-3.2c0.4-0.9,0.8-1.7,1.5-2.3c0.6-0.6,1.3-1.1,2.2-1.4
	c0.8-0.3,1.7-0.5,2.7-0.5s1.9,0.2,2.7,0.5s1.6,0.8,2.2,1.4c0.6,0.6,1.1,1.4,1.4,2.3c0.3,0.9,0.5,2,0.5,3.2s-0.2,2.2-0.5,3.2
	c-0.3,0.9-0.8,1.7-1.4,2.3c-0.6,0.6-1.3,1.1-2.2,1.4C697,51,696,51.2,695.1,51.2z M695.1,49.5c0.7,0,1.3-0.1,1.9-0.3
	c0.6-0.2,1.1-0.5,1.5-1s0.8-1,1-1.8c0.3-0.7,0.4-1.6,0.4-2.6s-0.1-1.9-0.4-2.6c-0.2-0.7-0.6-1.3-1-1.7c-0.4-0.5-0.9-0.8-1.5-1
	s-1.2-0.3-1.9-0.3s-1.3,0.1-1.9,0.3c-0.6,0.2-1.1,0.5-1.5,1c-0.4,0.4-0.8,1-1,1.7s-0.4,1.6-0.4,2.6s0.1,1.9,0.4,2.6
	c0.3,0.7,0.6,1.3,1,1.8c0.4,0.4,1,0.8,1.5,1C693.7,49.4,694.4,49.5,695.1,49.5z"/>
<path class="st8" d="M678.4,61.9c0.6-0.6,1.1-0.9,1.6-0.9s1,0.2,1.6,0.9c0.6,0.6,1.2,1.6,1.7,2.9c0.9,2.4,1.6,5.6,1.7,9.2h-10
	c0.1-3.6,0.7-6.9,1.7-9.2C677.2,63.5,677.8,62.5,678.4,61.9z M673,74c0.1-3.8,0.8-7.3,1.8-10c0.4-0.9,0.8-1.8,1.3-2.5
	c-5.5,1.6-9.6,6.5-10.1,12.4L673,74L673,74z M666,76h7c0.1,3.8,0.8,7.3,1.8,10c0.4,0.9,0.8,1.8,1.3,2.5
	C670.6,86.9,666.5,81.9,666,76z M664,75c0-8.8,7.2-16,16-16s16,7.2,16,16s-7.2,16-16,16S664,83.8,664,75z M694,74
	c-0.4-5.9-4.5-10.9-10.1-12.4c0.5,0.7,0.9,1.6,1.3,2.5c1.1,2.6,1.7,6.1,1.8,10L694,74L694,74z M687,76h7
	c-0.4,5.9-4.5,10.9-10.1,12.4c0.5-0.7,0.9-1.6,1.3-2.5C686.2,83.3,686.9,79.8,687,76z M685,76c-0.1,3.6-0.7,6.9-1.7,9.2
	c-0.5,1.3-1.1,2.3-1.7,2.9c-0.6,0.6-1.1,0.9-1.6,0.9s-1-0.2-1.6-0.9c-0.6-0.6-1.2-1.6-1.7-2.9c-0.9-2.4-1.6-5.6-1.7-9.2H685z"/>
<g>
	<g>
		<defs>
			<rect id="SVGID_00000158748957017424211780000004692284702485670558_" x="595" y="59" width="34" height="32"/>
		</defs>
		<clipPath id="SVGID_00000091716616794579118520000000403632850171825806_">
			<use xlink:href="#SVGID_00000158748957017424211780000004692284702485670558_"  style="overflow:visible;"/>
		</clipPath>
		<g style="clip-path:url(#SVGID_00000091716616794579118520000000403632850171825806_);">
			<path class="st8" d="M601.4,87.9v-3.7c0-0.6,0.5-1.1,1.2-1.1h0.9v-2.9c0,0,0,0,0-0.1c0,0,0,0,0-0.1l0,0c0-0.3,0.1-0.5,0.4-0.7
				c0.2-0.2,0.4-0.3,0.7-0.3l0,0c0,0,0,0,0.1,0h0.1h7.3v-2h-11.7c-2.9,0-5.3-2-5.3-5c0-2.8,2.7-5,5.7-5h0.8c0.5-2.3,2.6-4,5.2-4
				c0.6,0,1.1,0.1,1.7,0.3c1.1-2.5,3.8-4.3,6.8-4.3c4.1,0,7.4,3.1,7.4,7c0,0.3,0,0.7-0.1,1h1.1c2.9,0,5.3,2.2,5.3,5l0,0
				c0,2.8-2.4,5-5.3,5h-9.6v2h7.3c0,0,0,0,0.1,0c0,0,0,0,0.1,0l0,0c0.1,0,0.2,0,0.7,0.3l0,0c0,0,0,0,0.1,0.1
				c0.2,0.2,0.3,0.4,0.3,0.6l0,0l0,0v0.1V83h0.9c0.7,0,1.2,0.5,1.2,1.1v3.7c0,0.6-0.5,1.1-1.2,1.1h-4c-0.7,0-1.2-0.5-1.2-1.1v-3.7
				c0-0.6,0.5-1.1,1.2-1.1h0.9v-2h-6.4v2h0.9c0.7,0,1.2,0.5,1.2,1.1v3.7c0,0.6-0.5,1.1-1.2,1.1h-4c-0.7,0-1.2-0.5-1.2-1.1v-3.7
				c0-0.6,0.5-1.1,1.2-1.1h0.9v-2h-6.4v2h0.9c0.7,0,1.2,0.5,1.2,1.1v3.7c0,0.6-0.5,1.1-1.2,1.1h-4C601.9,89,601.4,88.5,601.4,87.9z
				 M622.3,79.3L622.3,79.3C622.2,79.2,622.2,79.3,622.3,79.3C622.2,79.3,622.2,79.3,622.3,79.3z M622.3,79.3
				C622,79.1,622.1,79.2,622.3,79.3C622.2,79.2,622.2,79.2,622.3,79.3z"/>
		</g>
	</g>
</g>
<path class="st14" d="M407,267l-10-5.8l-0.1,11.5L407,267z M222,266l10,5.8l0.1-11.5L222,266z M398,266l-167-1v2l167,0.9V266z"/>
<path class="st14" d="M452,220l-0.7-11.5l-9.7,6.3L452,220z M376,104l0.7,11.5l9.7-6.3L376,104z M447.9,211.9L381.8,111l-1.7,1.1
	L446.2,213L447.9,211.9z"/>
<path class="st14" d="M591,220l9.7-6.2l-10.2-5.3L591,220z M650,107l-9.7,6.2l10.2,5.3L650,107z M596.1,212.5l50.7-97l-1.8-0.9
	l-50.7,97L596.1,212.5z"/>
<path class="st14" d="M777,267l-10-5.8v11.5L777,267z M636,267l10,5.8v-11.5L636,267z M768,266H645v2h123V266z"/>
<path class="st14" d="M779,418l-10-5.8v11.5L779,418z M706,418l10,5.8v-11.5L706,418z M770,417h-55v2h55V417z"/>
<path class="st14" d="M313,418l-10-5.8v11.5L313,418z M222,418l10,5.8v-11.5L222,418z M304,417h-73v2h73V417z"/>
<path class="st14" d="M375,465l-11.1,3.2l8.3,8L375,465z M284,559l11.1-3.2l-8.3-8L284,559z M368,470.8l-78.5,81.1l1.4,1.4
	l78.5-81.1L368,470.8z"/>
<path class="st14" d="M666,463l2.5,11.3l8.5-7.8L666,463z M755,560l-2.5-11.3l-8.5,7.8L755,560z M671.3,470.3l76.8,83.7l1.5-1.4
	L672.8,469L671.3,470.3z"/>
<path class="st14" d="M518,467l-5.8,10h11.5L518,467z M518,560l5.8-10h-11.5L518,560z M517,476v75h2v-75H517z"/>
<path class="st15" d="M307,377.5c0,46.1,39,83.5,87.1,83.5h241.2c40.7,0,73.7-31.6,73.7-70.7c0-36.9-29.4-67.1-67-70.4v-0.3
	c0-63.9-54-115.7-120.6-115.7c-57.6,0-105.7,38.7-117.7,90.4c-3.1-0.3-6.3-0.5-9.6-0.5C346,294,307,331.3,307,377.5z"/>
<path class="st8" d="M353,412c0-0.3,0.2-0.8,0.6-1.2c0.5-0.5,1.2-1,2.3-1.4c2-0.8,4.9-1.4,8.1-1.4s6.1,0.5,8.1,1.4
	c1,0.4,1.8,0.9,2.3,1.4s0.6,0.9,0.6,1.2s-0.2,0.8-0.6,1.2c-0.5,0.5-1.2,1-2.3,1.4c-2,0.8-4.9,1.4-8.1,1.4s-6.1-0.5-8.1-1.4
	c-1-0.4-1.8-0.9-2.3-1.4C353.2,412.8,353,412.3,353,412z M351,412c0-1,0.5-1.9,1.2-2.7c0.7-0.7,1.7-1.3,2.9-1.8
	c2.3-1,5.5-1.5,8.9-1.5s6.5,0.6,8.9,1.5c1.2,0.5,2.2,1.1,2.9,1.8c0.7,0.7,1.2,1.6,1.2,2.7v18c0,1-0.5,1.9-1.2,2.7
	c-0.7,0.7-1.7,1.3-2.9,1.8c-2.3,1-5.5,1.5-8.9,1.5s-6.5-0.6-8.9-1.5c-1.2-0.5-2.2-1.1-2.9-1.8c-0.7-0.7-1.2-1.6-1.2-2.7V412z
	 M375,415.3V430c0,0.3-0.2,0.8-0.6,1.2c-0.5,0.5-1.2,1-2.3,1.4c-2,0.8-4.9,1.4-8.1,1.4s-6.1-0.5-8.1-1.4c-1-0.4-1.8-0.9-2.3-1.4
	s-0.6-0.9-0.6-1.2v-14.7c0.6,0.4,1.3,0.8,2.1,1.2c2.3,1,5.5,1.5,8.9,1.5s6.5-0.6,8.9-1.5C373.7,416.1,374.4,415.7,375,415.3z"/>
<path class="st8" d="M504,222c0-0.3,0.2-0.8,0.6-1.2c0.5-0.5,1.2-1,2.3-1.4c2-0.8,4.9-1.4,8.1-1.4s6.1,0.5,8.1,1.4
	c1,0.4,1.8,0.9,2.3,1.4s0.6,0.9,0.6,1.2s-0.2,0.8-0.6,1.2c-0.5,0.5-1.2,1-2.3,1.4c-2,0.8-4.9,1.4-8.1,1.4c-3.2,0-6.1-0.5-8.1-1.4
	c-1-0.4-1.8-0.9-2.3-1.4C504.2,222.8,504,222.3,504,222z M502,222c0-1,0.5-1.9,1.2-2.7c0.7-0.7,1.7-1.3,2.9-1.8
	c2.3-1,5.5-1.5,8.9-1.5c3.4,0,6.5,0.6,8.9,1.5c1.2,0.5,2.2,1.1,2.9,1.8s1.2,1.6,1.2,2.7v18c0,1-0.5,1.9-1.2,2.7
	c-0.7,0.7-1.7,1.3-2.9,1.8c-2.3,1-5.5,1.5-8.9,1.5c-3.4,0-6.5-0.6-8.9-1.5c-1.2-0.5-2.2-1.1-2.9-1.8c-0.7-0.7-1.2-1.6-1.2-2.7V222z
	 M526,225.3V240c0,0.3-0.2,0.8-0.6,1.2c-0.5,0.5-1.2,1-2.3,1.4c-2,0.8-4.9,1.4-8.1,1.4c-3.2,0-6.1-0.5-8.1-1.4
	c-1-0.4-1.8-0.9-2.3-1.4s-0.6-0.9-0.6-1.2v-14.7c0.6,0.4,1.3,0.8,2.1,1.2c2.3,1,5.5,1.5,8.9,1.5c3.4,0,6.5-0.6,8.9-1.5
	C524.7,226.1,525.4,225.7,526,225.3z"/>
<path class="st8" d="M637,411c0-0.3,0.2-0.8,0.6-1.2c0.5-0.5,1.2-1,2.3-1.4c2-0.8,4.9-1.4,8.1-1.4s6.1,0.5,8.1,1.4
	c1,0.4,1.8,0.9,2.3,1.4s0.6,0.9,0.6,1.2s-0.2,0.8-0.6,1.2c-0.5,0.5-1.2,1-2.3,1.4c-2,0.8-4.9,1.4-8.1,1.4s-6.1-0.5-8.1-1.4
	c-1-0.4-1.8-0.9-2.3-1.4C637.2,411.8,637,411.3,637,411z M635,411c0-1,0.5-1.9,1.2-2.7c0.7-0.7,1.7-1.3,2.9-1.8
	c2.3-1,5.5-1.5,8.9-1.5s6.5,0.6,8.9,1.5c1.2,0.5,2.2,1.1,2.9,1.8c0.7,0.7,1.2,1.6,1.2,2.7v18c0,1-0.5,1.9-1.2,2.7
	c-0.7,0.7-1.7,1.3-2.9,1.8c-2.3,1-5.5,1.5-8.9,1.5s-6.5-0.6-8.9-1.5c-1.2-0.5-2.2-1.1-2.9-1.8c-0.7-0.7-1.2-1.6-1.2-2.7V411z
	 M659,414.3V429c0,0.3-0.2,0.8-0.6,1.2c-0.5,0.5-1.2,1-2.3,1.4c-2,0.8-4.9,1.4-8.1,1.4s-6.1-0.5-8.1-1.4c-1-0.4-1.8-0.9-2.3-1.4
	s-0.6-0.9-0.6-1.2v-14.7c0.6,0.4,1.3,0.8,2.1,1.2c2.3,1,5.5,1.5,8.9,1.5s6.5-0.6,8.9-1.5C657.7,415.1,658.4,414.7,659,414.3z"/>
<path class="st8" d="M406.3,406.3c0.4-0.4,1-0.4,1.4,0l4,4c0.4,0.4,0.4,1,0,1.4s-1,0.4-1.4,0l-2.3-2.3v23.2l2.3-2.3
	c0.4-0.4,1-0.4,1.4,0s0.4,1,0,1.4l-4,4c-0.4,0.4-1,0.4-1.4,0l-4-4c-0.4-0.4-0.4-1,0-1.4s1-0.4,1.4,0l2.3,2.3v-23.2l-2.3,2.3
	c-0.4,0.4-1,0.4-1.4,0s-0.4-1,0-1.4L406.3,406.3z M422,421c0,0.6-0.4,1-1,1h-7.6l2.3,2.3c0.4,0.4,0.4,1,0,1.4s-1,0.4-1.4,0l-4-4
	c-0.4-0.4-0.4-1,0-1.4l4-4c0.4-0.4,1-0.4,1.4,0s0.4,1,0,1.4l-2.3,2.3h7.6C421.6,420,422,420.4,422,421z M392,421c0-0.6,0.4-1,1-1
	h7.6l-2.3-2.3c-0.4-0.4-0.4-1,0-1.4s1-0.4,1.4,0l4,4c0.4,0.4,0.4,1,0,1.4l-4,4c-0.4,0.4-1,0.4-1.4,0s-0.4-1,0-1.4l2.3-2.3H393
	C392.4,422,392,421.6,392,421z"/>
<path class="st8" d="M605.3,407.3c0.4-0.4,1-0.4,1.4,0l4,4c0.4,0.4,0.4,1,0,1.4s-1,0.4-1.4,0l-2.3-2.3v23.2l2.3-2.3
	c0.4-0.4,1-0.4,1.4,0s0.4,1,0,1.4l-4,4c-0.4,0.4-1,0.4-1.4,0l-4-4c-0.4-0.4-0.4-1,0-1.4s1-0.4,1.4,0l2.3,2.3v-23.2l-2.3,2.3
	c-0.4,0.4-1,0.4-1.4,0s-0.4-1,0-1.4L605.3,407.3z M621,422c0,0.6-0.4,1-1,1h-7.6l2.3,2.3c0.4,0.4,0.4,1,0,1.4s-1,0.4-1.4,0l-4-4
	c-0.4-0.4-0.4-1,0-1.4l4-4c0.4-0.4,1-0.4,1.4,0s0.4,1,0,1.4l-2.3,2.3h7.6C620.6,421,621,421.4,621,422z M591,422c0-0.6,0.4-1,1-1
	h7.6l-2.3-2.3c-0.4-0.4-0.4-1,0-1.4s1-0.4,1.4,0l4,4c0.4,0.4,0.4,1,0,1.4l-4,4c-0.4,0.4-1,0.4-1.4,0s-0.4-1,0-1.4l2.3-2.3H592
	C591.4,423,591,422.6,591,422z"/>
<path class="st8" d="M514.3,255.3c0.4-0.4,1-0.4,1.4,0l4,4c0.4,0.4,0.4,1,0,1.4s-1,0.4-1.4,0l-2.3-2.3v23.2l2.3-2.3
	c0.4-0.4,1-0.4,1.4,0s0.4,1,0,1.4l-4,4c-0.4,0.4-1,0.4-1.4,0l-4-4c-0.4-0.4-0.4-1,0-1.4s1-0.4,1.4,0l2.3,2.3v-23.2l-2.3,2.3
	c-0.4,0.4-1,0.4-1.4,0s-0.4-1,0-1.4L514.3,255.3z M530,270c0,0.6-0.4,1-1,1h-7.6l2.3,2.3c0.4,0.4,0.4,1,0,1.4s-1,0.4-1.4,0l-4-4
	c-0.4-0.4-0.4-1,0-1.4l4-4c0.4-0.4,1-0.4,1.4,0s0.4,1,0,1.4l-2.3,2.3h7.6C529.6,269,530,269.4,530,270z M500,270c0-0.6,0.4-1,1-1
	h7.6l-2.3-2.3c-0.4-0.4-0.4-1,0-1.4s1-0.4,1.4,0l4,4c0.4,0.4,0.4,1,0,1.4l-4,4c-0.4,0.4-1,0.4-1.4,0s-0.4-1,0-1.4l2.3-2.3H501
	C500.4,271,500,270.6,500,270z"/>
<g>
	<path d="M439.8,333.2v7.8h-2.4v-7.7l-6.1-10.2h2.7l4.7,8.1l4.8-8.1h2.4L439.8,333.2z"/>
	<path d="M454.4,338.5c-0.1,0.3-0.3,0.6-0.6,0.9c-0.2,0.3-0.5,0.6-0.9,0.9c-0.3,0.3-0.8,0.5-1.2,0.6c-0.5,0.2-1,0.2-1.7,0.2
		c-1.2,0-2.1-0.3-2.8-1c-0.7-0.7-1.1-1.6-1.1-2.8c0-1.4,0.5-2.5,1.5-3.1c1-0.7,2.4-1,4.2-1h2.4v-1.1c0-0.9-0.2-1.5-0.7-1.9
		s-1.3-0.6-2.4-0.6c-0.8,0-1.6,0.1-2.3,0.4c-0.7,0.3-1.4,0.6-1.9,0.9v-2c0.5-0.3,1.1-0.6,1.9-0.8c0.8-0.3,1.7-0.4,2.6-0.4
		c1.6,0,2.9,0.3,3.7,1c0.8,0.7,1.3,1.7,1.3,3.1v7c0,0.1,0,0.3,0,0.5s0,0.4,0,0.6s0,0.4,0,0.6s0,0.3,0,0.4h-2c0-0.2-0.1-0.6-0.1-1
		s-0.1-0.8-0.1-1.1L454.4,338.5z M450.5,339.2c0.7,0,1.3-0.1,1.7-0.4c0.5-0.3,0.9-0.6,1.2-1c0.3-0.4,0.5-0.7,0.6-1.1
		s0.2-0.6,0.2-0.8v-1H452c-1.3,0-2.3,0.2-2.9,0.6s-0.9,0.9-0.9,1.7c0,0.6,0.2,1.1,0.5,1.4S449.7,339.2,450.5,339.2z"/>
	<path d="M466,329.7c-1,0-1.8,0.2-2.4,0.7s-1.1,1-1.5,1.8v8.8h-2.2v-13h2.1l0.1,2.3l0,0c0.3-0.7,0.9-1.4,1.6-1.8
		c0.7-0.5,1.7-0.7,2.8-0.7c1.3,0,2.3,0.3,3.1,1c0.8,0.7,1.1,1.7,1.1,3.1v9.1h-2.2v-8.9c0-0.9-0.2-1.5-0.7-1.9S466.8,329.7,466,329.7
		z"/>
	<path d="M483.5,338.4c-0.4,0.8-1,1.5-1.7,2s-1.6,0.8-2.7,0.8c-0.8,0-1.5-0.1-2.2-0.4s-1.3-0.7-1.8-1.2c-0.5-0.6-1-1.3-1.3-2.1
		c-0.3-0.8-0.5-1.8-0.5-3c0-1.1,0.2-2.1,0.5-3c0.3-0.8,0.7-1.5,1.3-2.1s1.2-1,1.9-1.2c0.7-0.3,1.5-0.4,2.2-0.4c1,0,1.8,0.2,2.5,0.6
		s1.3,1,1.7,1.7v-7h2.2V341h-1.9L483.5,338.4z M479.5,339.2c0.6,0,1.1-0.1,1.6-0.3c0.5-0.2,0.9-0.5,1.3-0.9s0.6-0.9,0.8-1.5
		c0.2-0.6,0.3-1.3,0.3-2.1c0-0.8-0.1-1.5-0.3-2.1c-0.2-0.6-0.5-1.1-0.8-1.5c-0.4-0.4-0.8-0.7-1.3-0.9c-0.5-0.2-1-0.3-1.6-0.3
		c-1.1,0-2.1,0.4-2.8,1.2s-1.1,2-1.1,3.6s0.4,2.8,1.1,3.6C477.4,338.8,478.3,339.2,479.5,339.2z"/>
	<path d="M499.6,339.8c-0.2,0.1-0.4,0.3-0.7,0.4s-0.6,0.3-1,0.4s-0.8,0.3-1.3,0.3c-0.5,0.1-1,0.1-1.6,0.1c-2.2,0-3.8-0.6-5-1.8
		c-1.1-1.2-1.7-2.8-1.7-5c0-1,0.2-2,0.5-2.8s0.7-1.5,1.3-2.1c0.5-0.6,1.2-1,1.9-1.3c0.7-0.3,1.6-0.5,2.4-0.5c0.9,0,1.8,0.2,2.5,0.5
		s1.3,0.8,1.8,1.4s0.8,1.4,1,2.3s0.2,2,0,3.2h-9.1c0.1,1.4,0.5,2.5,1.2,3.2s1.9,1,3.3,1c1,0,1.9-0.1,2.6-0.4s1.3-0.6,1.8-0.9v2
		H499.6z M494.4,329.7c-0.9,0-1.8,0.3-2.4,0.9c-0.7,0.6-1.1,1.5-1.3,2.6h7c0.1-1.2-0.2-2.1-0.8-2.7
		C496.2,330,495.4,329.7,494.4,329.7z"/>
	<path d="M506.7,335.8l-3.5,5.1h-2.3l4.7-6.7l-4.1-6.2h2.5l3.1,4.6l3.1-4.6h2.3l-4.3,6.2l4.5,6.8h-2.5L506.7,335.8z"/>
	<path d="M528.5,341.2c-1.3,0-2.5-0.2-3.6-0.6s-2-1-2.8-1.8s-1.4-1.8-1.8-2.9s-0.6-2.4-0.6-3.9c0-1.4,0.2-2.7,0.6-3.9
		c0.4-1.1,0.9-2.1,1.7-2.9c0.7-0.8,1.7-1.4,2.8-1.8s2.3-0.6,3.7-0.6c1.2,0,2.3,0.1,3.2,0.4s1.7,0.6,2.2,0.9v2.2
		c-0.7-0.5-1.6-0.8-2.6-1.1c-1-0.2-1.9-0.3-2.9-0.3c-2.1,0-3.7,0.6-4.7,1.8c-1,1.2-1.5,2.9-1.5,5.3s0.5,4.2,1.6,5.3
		c1.1,1.2,2.7,1.7,4.8,1.7c0.9,0,1.8-0.1,2.7-0.4c0.9-0.2,1.7-0.7,2.5-1.3v2.2c-0.5,0.4-1.2,0.7-2.1,1S529.7,341.2,528.5,341.2z"/>
	<path d="M539.3,323v17.9h-2.2V323H539.3z"/>
	<path d="M548.2,341.2c-0.9,0-1.7-0.1-2.5-0.4s-1.4-0.7-2-1.3c-0.6-0.6-1-1.3-1.3-2.1s-0.5-1.8-0.5-2.9s0.2-2,0.5-2.9
		s0.8-1.5,1.3-2.1c0.6-0.6,1.2-1,2-1.3s1.6-0.4,2.5-0.4s1.7,0.1,2.5,0.4s1.4,0.7,2,1.3s1,1.3,1.3,2.1c0.3,0.8,0.5,1.8,0.5,2.9
		s-0.2,2-0.5,2.9c-0.3,0.8-0.8,1.5-1.3,2.1s-1.2,1-2,1.3S549.1,341.2,548.2,341.2z M548.2,339.2c0.6,0,1.1-0.1,1.6-0.3
		c0.5-0.2,0.9-0.5,1.3-0.9s0.6-0.9,0.8-1.5s0.3-1.3,0.3-2.1c0-0.8-0.1-1.5-0.3-2.1s-0.5-1.1-0.8-1.5c-0.4-0.4-0.8-0.7-1.3-0.9
		c-0.5-0.2-1-0.3-1.6-0.3s-1.1,0.1-1.6,0.3c-0.5,0.2-0.9,0.5-1.3,0.9c-0.4,0.4-0.6,0.9-0.8,1.5s-0.3,1.3-0.3,2.1
		c0,0.8,0.1,1.5,0.3,2.1s0.5,1.1,0.8,1.5c0.4,0.4,0.8,0.7,1.3,0.9C547.1,339.1,547.6,339.2,548.2,339.2z"/>
	<path d="M563.9,340.4c-0.7,0.5-1.7,0.7-2.8,0.7c-1.2,0-2.2-0.3-2.9-1s-1.1-1.7-1.1-3.1v-9h2.2v9.1c0,0.4,0.1,0.8,0.2,1.1
		s0.3,0.5,0.5,0.7s0.5,0.3,0.8,0.4s0.6,0.1,1,0.1c1,0,1.7-0.2,2.3-0.7c0.6-0.4,1.1-1,1.5-1.8V328h2.2v13h-1.9l-0.2-2.3l0,0
		C565.2,339.3,564.6,339.9,563.9,340.4z"/>
	<path d="M580.6,338.4c-0.4,0.8-1,1.5-1.7,2s-1.6,0.8-2.7,0.8c-0.8,0-1.5-0.1-2.2-0.4s-1.3-0.7-1.8-1.2c-0.5-0.6-1-1.3-1.3-2.1
		s-0.5-1.8-0.5-3c0-1.1,0.2-2.1,0.5-3c0.3-0.8,0.7-1.5,1.3-2.1s1.2-1,1.9-1.2c0.7-0.3,1.5-0.4,2.2-0.4c1,0,1.8,0.2,2.5,0.6
		s1.3,1,1.7,1.7v-7h2.2V341h-1.9L580.6,338.4z M576.5,339.2c0.6,0,1.1-0.1,1.6-0.3c0.5-0.2,0.9-0.5,1.3-0.9c0.4-0.4,0.6-0.9,0.8-1.5
		s0.3-1.3,0.3-2.1c0-0.8-0.1-1.5-0.3-2.1s-0.5-1.1-0.8-1.5c-0.4-0.4-0.8-0.7-1.3-0.9c-0.5-0.2-1-0.3-1.6-0.3c-1.1,0-2.1,0.4-2.8,1.2
		c-0.7,0.8-1.1,2-1.1,3.6s0.4,2.8,1.1,3.6C574.5,338.8,575.4,339.2,576.5,339.2z"/>
	<path d="M437.9,371c-0.4,0.1-0.9,0.1-1.3,0.1c-0.6,0-1.2-0.1-1.6-0.3c-0.4-0.2-0.8-0.4-1.1-0.7c-0.3-0.3-0.5-0.7-0.6-1
		c-0.1-0.4-0.2-0.8-0.2-1.2v-8.1h-1.5v-1.9h1.5v-2.7h2.2v2.7h3.8v1.9h-3.8v7.8c0,0.6,0.1,1,0.4,1.2c0.3,0.3,0.8,0.4,1.5,0.4
		c0.6,0,1.2-0.2,1.8-0.5v2C438.6,370.8,438.3,370.9,437.9,371z"/>
	<path d="M445.7,360.8c-0.8,0.4-1.3,1-1.7,1.8v8.2h-2.2v-13h1.9l0.2,2.8l0,0c0.4-0.8,0.9-1.4,1.6-2s1.6-0.9,2.6-1.1v2.4
		C447.3,360.2,446.5,360.4,445.7,360.8z"/>
	<path d="M458.3,368.4c-0.1,0.3-0.3,0.6-0.6,0.9c-0.2,0.3-0.5,0.6-0.9,0.9c-0.3,0.3-0.8,0.5-1.2,0.6c-0.5,0.2-1,0.2-1.7,0.2
		c-1.2,0-2.1-0.3-2.8-1c-0.7-0.7-1.1-1.6-1.1-2.8c0-1.4,0.5-2.5,1.5-3.1c1-0.7,2.4-1,4.2-1h2.4V362c0-0.9-0.2-1.5-0.7-1.9
		s-1.3-0.6-2.4-0.6c-0.8,0-1.6,0.1-2.3,0.4c-0.7,0.3-1.4,0.6-1.9,0.9v-2c0.5-0.3,1.1-0.6,1.9-0.8c0.8-0.3,1.7-0.4,2.6-0.4
		c1.6,0,2.9,0.3,3.7,1c0.8,0.7,1.3,1.7,1.3,3.1v7c0,0.1,0,0.3,0,0.5s0,0.4,0,0.6s0,0.4,0,0.6s0,0.3,0,0.4h-2c0-0.2-0.1-0.6-0.1-1
		s-0.1-0.8-0.1-1.1L458.3,368.4z M454.4,369.2c0.7,0,1.3-0.1,1.7-0.4c0.5-0.3,0.9-0.6,1.2-1c0.3-0.4,0.5-0.7,0.6-1.1
		s0.2-0.6,0.2-0.8v-1H456c-1.3,0-2.3,0.2-2.9,0.6s-0.9,0.9-0.9,1.7c0,0.6,0.2,1.1,0.5,1.4S453.6,369.2,454.4,369.2z"/>
	<path d="M466.8,359.8v11.1h-2.2v-11.1H463v-1.9h1.6v-0.3c0-1.5,0.4-2.7,1.2-3.6s1.9-1.3,3.3-1.3c0.6,0,1.2,0.1,1.6,0.2v2
		c-0.1-0.1-0.4-0.1-0.6-0.2c-0.3,0-0.6-0.1-0.9-0.1c-0.8,0-1.4,0.2-1.8,0.7s-0.7,1.2-0.7,2.2v0.3h3.7v1.9L466.8,359.8L466.8,359.8z"
		/>
	<path d="M475.7,359.8v11.1h-2.2v-11.1h-1.6v-1.9h1.6v-0.3c0-1.5,0.4-2.7,1.2-3.6s1.9-1.3,3.3-1.3c0.6,0,1.2,0.1,1.6,0.2v2
		c-0.1-0.1-0.4-0.1-0.6-0.2c-0.3,0-0.6-0.1-0.9-0.1c-0.8,0-1.4,0.2-1.8,0.7s-0.7,1.2-0.7,2.2v0.3h3.7v1.9L475.7,359.8L475.7,359.8z"
		/>
	<path d="M483.1,356c-0.4,0-0.8-0.1-1.1-0.4c-0.3-0.3-0.4-0.6-0.4-1s0.1-0.7,0.4-1s0.6-0.4,1.1-0.4c0.4,0,0.8,0.1,1,0.4
		s0.4,0.6,0.4,1s-0.1,0.7-0.4,1C483.9,355.9,483.6,356,483.1,356z M484.2,357.9v13H482v-13H484.2z"/>
	<path d="M493.4,371.1c-1,0-1.9-0.2-2.7-0.5c-0.8-0.3-1.5-0.7-2.1-1.3s-1-1.3-1.3-2.1c-0.3-0.8-0.4-1.8-0.4-2.8s0.2-2,0.5-2.8
		s0.7-1.5,1.3-2.1c0.6-0.6,1.3-1,2.1-1.3c0.8-0.3,1.7-0.5,2.8-0.5c0.8,0,1.5,0.1,2.2,0.3c0.7,0.2,1.2,0.4,1.6,0.8v2
		c-0.5-0.3-1.1-0.6-1.8-0.8c-0.7-0.2-1.3-0.3-2-0.3c-1.5,0-2.6,0.4-3.3,1.2c-0.7,0.8-1.1,2-1.1,3.6s0.3,2.8,1,3.6
		c0.7,0.8,1.8,1.2,3.2,1.2c0.8,0,1.5-0.1,2.2-0.3c0.7-0.2,1.3-0.4,1.8-0.7v2c-0.5,0.3-1,0.5-1.7,0.7
		C495,371,494.2,371.1,493.4,371.1z"/>
	<path d="M511.6,359.6c-1,0-1.8,0.2-2.4,0.7s-1.1,1-1.5,1.8v8.8h-2.2v-13h2.1l0.1,2.3l0,0c0.3-0.7,0.9-1.4,1.6-1.8
		c0.7-0.5,1.7-0.7,2.8-0.7c1.3,0,2.3,0.3,3.1,1s1.1,1.7,1.1,3.1v9.1h-2.2V362c0-0.9-0.2-1.5-0.7-1.9S512.4,359.6,511.6,359.6z"/>
	<path d="M530.1,369.8c-0.2,0.1-0.4,0.3-0.7,0.4s-0.6,0.3-1,0.4s-0.8,0.3-1.3,0.3c-0.5,0.1-1,0.1-1.6,0.1c-2.2,0-3.8-0.6-5-1.8
		c-1.1-1.2-1.7-2.8-1.7-5c0-1,0.2-2,0.5-2.8s0.7-1.5,1.3-2.1c0.5-0.6,1.2-1,1.9-1.3s1.6-0.5,2.4-0.5c0.9,0,1.8,0.2,2.5,0.5
		s1.3,0.8,1.8,1.4s0.8,1.4,1,2.3s0.2,2,0,3.2h-9.1c0.1,1.4,0.5,2.5,1.2,3.2s1.9,1,3.3,1c1,0,1.9-0.1,2.6-0.4
		c0.7-0.3,1.3-0.6,1.8-0.9L530.1,369.8L530.1,369.8z M525,359.6c-0.9,0-1.8,0.3-2.4,0.9c-0.7,0.6-1.1,1.5-1.3,2.6h7
		c0.1-1.2-0.2-2.1-0.8-2.7C526.8,359.9,526,359.6,525,359.6z"/>
	<path d="M538.4,371c-0.4,0.1-0.9,0.1-1.3,0.1c-0.6,0-1.2-0.1-1.6-0.3c-0.4-0.2-0.8-0.4-1.1-0.7c-0.3-0.3-0.5-0.7-0.6-1
		c-0.1-0.4-0.2-0.8-0.2-1.2v-8.1H532v-1.9h1.5v-2.7h2.2v2.7h3.8v1.9h-3.8v7.8c0,0.6,0.1,1,0.4,1.2s0.8,0.4,1.5,0.4
		c0.6,0,1.2-0.2,1.8-0.5v2C539.1,370.8,538.8,370.9,538.4,371z"/>
	<path d="M556.4,370.9H553l-2.7-10l-2.8,10h-3.3l-2.9-13h2.3l2.5,11.3l3.1-11.3h2.5l3.1,11.2l2.4-11.2h2.2L556.4,370.9z"/>
	<path d="M567.1,371.1c-0.9,0-1.7-0.1-2.5-0.4s-1.4-0.7-2-1.3c-0.6-0.6-1-1.3-1.3-2.1s-0.5-1.8-0.5-2.9s0.2-2,0.5-2.9
		s0.8-1.5,1.3-2.1c0.6-0.6,1.2-1,2-1.3s1.6-0.4,2.5-0.4s1.7,0.1,2.5,0.4s1.4,0.7,2,1.3s1,1.3,1.3,2.1c0.3,0.8,0.5,1.8,0.5,2.9
		s-0.2,2-0.5,2.9c-0.3,0.8-0.8,1.5-1.3,2.1s-1.2,1-2,1.3S568,371.1,567.1,371.1z M567.1,369.2c0.6,0,1.1-0.1,1.6-0.3
		c0.5-0.2,0.9-0.5,1.3-0.9s0.6-0.9,0.8-1.5s0.3-1.3,0.3-2.1c0-0.8-0.1-1.5-0.3-2.1s-0.5-1.1-0.8-1.5c-0.4-0.4-0.8-0.7-1.3-0.9
		c-0.5-0.2-1-0.3-1.6-0.3s-1.1,0.1-1.6,0.3c-0.5,0.2-0.9,0.5-1.3,0.9c-0.4,0.4-0.6,0.9-0.8,1.5s-0.3,1.3-0.3,2.1
		c0,0.8,0.1,1.5,0.3,2.1s0.5,1.1,0.8,1.5c0.4,0.4,0.8,0.7,1.3,0.9S566.5,369.2,567.1,369.2z"/>
	<path d="M579.9,360.8c-0.8,0.4-1.3,1-1.7,1.8v8.2H576v-13h1.9l0.2,2.8l0,0c0.4-0.8,0.9-1.4,1.6-2c0.7-0.6,1.6-0.9,2.6-1.1v2.4
		C581.5,360.2,580.7,360.4,579.9,360.8z"/>
	<path d="M588.5,365.4h-1.1v5.5h-2.2V353h2.2v10.5h1.2l4.5-5.6h2.5l-5.3,6.4l5.4,6.6H593L588.5,365.4z"/>
</g>
<g>
	<path class="st8" d="M111,699c0-0.3,0.2-0.8,0.6-1.2c0.5-0.5,1.2-1,2.3-1.4c2-0.8,4.9-1.4,8.1-1.4s6.1,0.5,8.1,1.4
		c1,0.4,1.8,0.9,2.3,1.4s0.6,0.9,0.6,1.2s-0.2,0.8-0.6,1.2c-0.5,0.5-1.2,1-2.3,1.4c-2,0.8-4.9,1.4-8.1,1.4s-6.1-0.5-8.1-1.4
		c-1-0.4-1.8-0.9-2.3-1.4C111.2,699.8,111,699.3,111,699z M109,699c0-1,0.5-1.9,1.2-2.7c0.7-0.7,1.7-1.3,2.9-1.8
		c2.3-1,5.5-1.5,8.9-1.5s6.5,0.6,8.9,1.5c1.2,0.5,2.2,1.1,2.9,1.8s1.2,1.6,1.2,2.7v18c0,1-0.5,1.9-1.2,2.7c-0.7,0.7-1.7,1.3-2.9,1.8
		c-2.3,1-5.5,1.5-8.9,1.5s-6.5-0.6-8.9-1.5c-1.2-0.5-2.2-1.1-2.9-1.8c-0.7-0.7-1.2-1.6-1.2-2.7C109,717,109,699,109,699z M133,702.3
		V717c0,0.3-0.2,0.8-0.6,1.2c-0.5,0.5-1.2,1-2.3,1.4c-2,0.8-4.9,1.4-8.1,1.4s-6.1-0.5-8.1-1.4c-1-0.4-1.8-0.9-2.3-1.4
		s-0.6-0.9-0.6-1.2v-14.7c0.6,0.4,1.3,0.8,2.1,1.2c2.3,1,5.5,1.5,8.9,1.5s6.5-0.6,8.9-1.5C131.7,703.1,132.4,702.7,133,702.3z"/>
	<g>
		<path d="M145.4,704.6h3.5c0.7,0,1.3,0.1,1.9,0.2c0.6,0.2,1.1,0.4,1.6,0.8c0.4,0.4,0.8,0.9,1,1.5s0.4,1.4,0.4,2.3
			c0,0.9-0.1,1.7-0.4,2.4c-0.3,0.7-0.6,1.3-1.1,1.7s-1,0.8-1.6,1s-1.3,0.4-2,0.4h-3.3L145.4,704.6L145.4,704.6z M146.7,705.8v7.9h2
			c0.5,0,1-0.1,1.5-0.2c0.4-0.2,0.8-0.4,1.1-0.8c0.3-0.3,0.6-0.8,0.7-1.3c0.2-0.5,0.3-1.2,0.3-1.9s-0.1-1.3-0.3-1.8
			s-0.4-0.9-0.7-1.1c-0.3-0.3-0.7-0.5-1.1-0.6c-0.4-0.1-0.9-0.2-1.4-0.2L146.7,705.8L146.7,705.8z"/>
		<path d="M165.2,714.9h-2l-2.3-8l-2.3,8h-2l-2.3-10.3h1.4l2,9.2l2.6-9.2h1.2l2.6,9l1.9-9h1.3L165.2,714.9z"/>
		<path d="M168.9,704.6h3.5c0.7,0,1.3,0.1,1.9,0.2c0.6,0.2,1.1,0.4,1.6,0.8c0.4,0.4,0.8,0.9,1,1.5s0.4,1.4,0.4,2.3
			c0,0.9-0.1,1.7-0.4,2.4c-0.3,0.7-0.6,1.3-1.1,1.7s-1,0.8-1.6,1s-1.3,0.4-2,0.4h-3.3L168.9,704.6L168.9,704.6z M170.3,705.8v7.9h2
			c0.5,0,1-0.1,1.5-0.2c0.4-0.2,0.8-0.4,1.1-0.8c0.3-0.3,0.6-0.8,0.7-1.3c0.2-0.5,0.3-1.2,0.3-1.9s-0.1-1.3-0.3-1.8
			s-0.4-0.9-0.7-1.1c-0.3-0.3-0.7-0.5-1.1-0.6c-0.4-0.1-0.9-0.2-1.4-0.2L170.3,705.8L170.3,705.8z"/>
		<path d="M184.2,711.8l3.4-7.2h1.8v10.3H188v-8.3l-3.2,6.7h-0.7h-0.6l0,0l-3.1-6.8v8.4h-1.3v-10.3h1.9L184.2,711.8z"/>
		<path d="M200.7,714.3c-0.1,0.1-0.2,0.2-0.4,0.2c-0.2,0.1-0.3,0.2-0.6,0.3c-0.2,0.1-0.5,0.1-0.7,0.2c-0.3,0.1-0.6,0.1-0.9,0.1
			c-1.3,0-2.2-0.3-2.9-1s-1-1.6-1-2.9c0-0.6,0.1-1.1,0.3-1.6s0.4-0.9,0.7-1.2s0.7-0.6,1.1-0.8c0.4-0.2,0.9-0.3,1.4-0.3
			s1,0.1,1.4,0.3s0.8,0.5,1,0.8c0.3,0.4,0.5,0.8,0.6,1.3s0.1,1.1,0,1.8h-5.3c0,0.8,0.3,1.4,0.7,1.8c0.4,0.4,1.1,0.6,1.9,0.6
			c0.6,0,1.1-0.1,1.5-0.2c0.4-0.2,0.8-0.3,1-0.5v1.1H200.7z M197.7,708.4c-0.5,0-1,0.2-1.4,0.5s-0.6,0.8-0.7,1.5h4
			c0-0.7-0.1-1.2-0.5-1.5S198.3,708.4,197.7,708.4z"/>
		<path d="M208.9,717.4h-1.3v-3.9c-0.2,0.5-0.5,0.8-1,1.1c-0.4,0.3-0.9,0.4-1.5,0.4c-0.5,0-0.9-0.1-1.3-0.2
			c-0.4-0.2-0.8-0.4-1.1-0.7s-0.6-0.7-0.7-1.2c-0.2-0.5-0.3-1.1-0.3-1.7c0-0.7,0.1-1.2,0.3-1.7s0.4-0.9,0.7-1.2s0.7-0.6,1.1-0.7
			s0.8-0.2,1.3-0.2c0.6,0,1.1,0.1,1.5,0.4c0.4,0.3,0.8,0.6,1,1.1v-0.1c0-0.2,0-0.4,0-0.6c0-0.2,0-0.4,0.1-0.6h1.2
			c0,0.1,0,0.3-0.1,0.6c0,0.2,0,0.5,0,0.6v8.6H208.9z M205.3,713.9c0.3,0,0.6-0.1,0.9-0.2c0.3-0.1,0.5-0.3,0.7-0.5s0.4-0.5,0.5-0.9
			c0.1-0.3,0.2-0.8,0.2-1.2s-0.1-0.9-0.2-1.2c-0.1-0.3-0.3-0.6-0.5-0.9c-0.2-0.2-0.4-0.4-0.7-0.5s-0.6-0.2-0.9-0.2
			c-0.7,0-1.2,0.2-1.6,0.7c-0.4,0.5-0.6,1.2-0.6,2.1c0,0.9,0.2,1.6,0.6,2.1C204.2,713.7,204.7,713.9,205.3,713.9z"/>
		<path d="M214.8,714.6c-0.4,0.3-1,0.4-1.6,0.4c-0.7,0-1.3-0.2-1.7-0.6c-0.4-0.4-0.6-1-0.6-1.8v-5.2h1.3v5.2c0,0.2,0,0.5,0.1,0.6
			c0.1,0.2,0.2,0.3,0.3,0.4c0.1,0.1,0.3,0.2,0.4,0.2c0.2,0,0.4,0.1,0.6,0.1c0.6,0,1-0.1,1.3-0.4c0.3-0.2,0.6-0.6,0.9-1v-5.1h1.3v7.5
			H216l-0.1-1.3l0,0C215.6,714,215.3,714.3,214.8,714.6z"/>
		<path d="M219.8,706.3c-0.3,0-0.5-0.1-0.6-0.2c-0.2-0.2-0.2-0.4-0.2-0.6c0-0.2,0.1-0.4,0.2-0.6c0.2-0.2,0.4-0.2,0.6-0.2
			c0.2,0,0.4,0.1,0.6,0.2c0.1,0.2,0.2,0.4,0.2,0.6c0,0.2-0.1,0.4-0.2,0.6C220.2,706.3,220,706.3,219.8,706.3z M220.4,707.4v7.5h-1.3
			v-7.5H220.4z"/>
		<path d="M226.2,715c-0.6,0-1.1-0.1-1.5-0.4s-0.8-0.6-1-1.1v3.9h-1.3v-10h1.1l0.1,1.5c0.2-0.5,0.6-0.9,1-1.2s0.9-0.4,1.6-0.4
			c0.4,0,0.8,0.1,1.2,0.2s0.7,0.4,1.1,0.7c0.3,0.3,0.5,0.7,0.7,1.2s0.3,1.1,0.3,1.7c0,0.7-0.1,1.2-0.3,1.7s-0.4,0.9-0.7,1.2
			s-0.7,0.6-1.1,0.7C227.1,715,226.6,715,226.2,715z M226,713.9c0.7,0,1.2-0.2,1.6-0.7c0.4-0.5,0.6-1.1,0.6-2.1
			c0-0.9-0.2-1.6-0.6-2.1c-0.4-0.5-0.9-0.7-1.6-0.7c-0.3,0-0.6,0.1-0.9,0.2s-0.5,0.3-0.7,0.5s-0.4,0.5-0.5,0.9s-0.2,0.8-0.2,1.2
			s0.1,0.9,0.2,1.2s0.3,0.6,0.5,0.9c0.2,0.2,0.5,0.4,0.7,0.5C225.4,713.9,225.7,713.9,226,713.9z"/>
		<path d="M232.3,714.9H231v-7.5h1.1l0.1,1.3l0,0c0.2-0.4,0.5-0.8,0.9-1.1s0.9-0.4,1.6-0.4c0.6,0,1,0.1,1.4,0.4
			c0.4,0.3,0.6,0.7,0.7,1.2c0.2-0.5,0.5-0.9,1-1.2c0.4-0.3,1-0.4,1.6-0.4c0.7,0,1.2,0.2,1.6,0.6c0.4,0.4,0.6,1,0.6,1.8v5.2h-1.3
			v-5.1c0-0.5-0.1-0.8-0.4-1.1c-0.2-0.2-0.6-0.3-1-0.3c-0.3,0-0.5,0-0.7,0.1s-0.4,0.2-0.6,0.3c-0.2,0.1-0.3,0.3-0.4,0.5
			c-0.1,0.2-0.3,0.4-0.4,0.6v4.9h-1.3v-5.2c0-0.5-0.1-0.8-0.4-1c-0.2-0.2-0.6-0.3-1-0.3c-0.3,0-0.5,0-0.7,0.1s-0.4,0.2-0.6,0.3
			c-0.2,0.1-0.3,0.3-0.5,0.5c-0.1,0.2-0.3,0.4-0.4,0.6v5.2H232.3z"/>
		<path d="M249.7,714.3c-0.1,0.1-0.2,0.2-0.4,0.2c-0.2,0.1-0.3,0.2-0.6,0.3c-0.2,0.1-0.5,0.1-0.7,0.2c-0.3,0.1-0.6,0.1-0.9,0.1
			c-1.3,0-2.2-0.3-2.9-1s-1-1.6-1-2.9c0-0.6,0.1-1.1,0.3-1.6s0.4-0.9,0.7-1.2s0.7-0.6,1.1-0.8c0.4-0.2,0.9-0.3,1.4-0.3
			s1,0.1,1.4,0.3s0.8,0.5,1,0.8c0.3,0.4,0.5,0.8,0.6,1.3s0.1,1.1,0,1.8h-5.3c0,0.8,0.3,1.4,0.7,1.8c0.4,0.4,1.1,0.6,1.9,0.6
			c0.6,0,1.1-0.1,1.5-0.2c0.4-0.2,0.8-0.3,1-0.5v1.1H249.7z M246.8,708.4c-0.5,0-1,0.2-1.4,0.5s-0.6,0.8-0.7,1.5h4
			c0-0.7-0.1-1.2-0.5-1.5S247.3,708.4,246.8,708.4z"/>
		<path d="M255,708.4c-0.6,0-1,0.1-1.4,0.4s-0.7,0.6-0.9,1v5.1h-1.3v-7.5h1.2v1.3l0,0c0.2-0.4,0.5-0.8,1-1.1c0.4-0.3,1-0.4,1.6-0.4
			c0.7,0,1.3,0.2,1.8,0.6c0.4,0.4,0.7,1,0.7,1.8v5.2h-1.3v-5.1c0-0.5-0.1-0.9-0.4-1.1S255.4,708.4,255,708.4z"/>
		<path d="M262.8,715c-0.2,0.1-0.5,0.1-0.8,0.1c-0.4,0-0.7-0.1-0.9-0.2s-0.5-0.2-0.6-0.4c-0.2-0.2-0.3-0.4-0.4-0.6
			c-0.1-0.2-0.1-0.5-0.1-0.7v-4.6h-0.9v-1.1h0.9v-1.6h1.3v1.6h2.2v1.1h-2.2v4.5c0,0.3,0.1,0.5,0.2,0.7c0.2,0.1,0.4,0.2,0.8,0.2
			s0.7-0.1,1-0.3v1.1C263.2,714.8,263,714.9,262.8,715z"/>
	</g>
</g>
<g>
	<path class="st8" d="M329.2,693.3c0.4-0.4,1-0.4,1.4,0l4,4c0.4,0.4,0.4,1,0,1.4s-1,0.4-1.4,0l-2.3-2.3v23.2l2.3-2.3
		c0.4-0.4,1-0.4,1.4,0s0.4,1,0,1.4l-4,4c-0.4,0.4-1,0.4-1.4,0l-4-4c-0.4-0.4-0.4-1,0-1.4s1-0.4,1.4,0l2.3,2.3v-23.2l-2.3,2.3
		c-0.4,0.4-1,0.4-1.4,0s-0.4-1,0-1.4L329.2,693.3z M344.9,708c0,0.6-0.4,1-1,1h-7.6l2.3,2.3c0.4,0.4,0.4,1,0,1.4s-1,0.4-1.4,0l-4-4
		c-0.4-0.4-0.4-1,0-1.4l4-4c0.4-0.4,1-0.4,1.4,0s0.4,1,0,1.4l-2.3,2.3h7.6C344.5,707,344.9,707.4,344.9,708z M314.9,708
		c0-0.6,0.4-1,1-1h7.6l-2.3-2.3c-0.4-0.4-0.4-1,0-1.4s1-0.4,1.4,0l4,4c0.4,0.4,0.4,1,0,1.4l-4,4c-0.4,0.4-1,0.4-1.4,0s-0.4-1,0-1.4
		l2.3-2.3h-7.6C315.3,709,314.9,708.6,314.9,708z"/>
	<g>
		<path d="M356.6,705.1v10h-1.3v-10H356.6z"/>
		<path d="M359,705.1h3.2c1.1,0,2,0.2,2.7,0.7c0.6,0.5,0.9,1.2,0.9,2.2c0,0.6-0.1,1.1-0.3,1.5c-0.2,0.4-0.4,0.7-0.8,1
			s-0.7,0.5-1.2,0.6s-1,0.2-1.5,0.2h-1.8v3.9h-1.3L359,705.1L359,705.1z M360.3,706.3v3.8h1.8c0.4,0,0.7,0,1-0.1s0.5-0.2,0.7-0.4
			s0.4-0.4,0.5-0.6c0.1-0.3,0.2-0.6,0.2-0.9c0-0.6-0.2-1.1-0.6-1.3c-0.4-0.3-1-0.4-1.7-0.4L360.3,706.3L360.3,706.3z"/>
		<path d="M365.2,716.8l4.4-12.3h1.1l-4.4,12.3H365.2z"/>
		<path d="M376.9,712.1l3.3-7h1.7v10h-1.3V707l-3.1,6.5h-0.7h-0.6l0,0l-3-6.7v8.2H372v-10h1.8L376.9,712.1z"/>
		<path d="M384.2,705.1h3.2c1.1,0,2,0.2,2.7,0.7c0.6,0.5,0.9,1.2,0.9,2.2c0,0.6-0.1,1.1-0.3,1.5c-0.2,0.4-0.4,0.7-0.8,1
			s-0.7,0.5-1.2,0.6s-1,0.2-1.5,0.2h-1.8v3.9h-1.3L384.2,705.1L384.2,705.1z M385.6,706.3v3.8h1.8c0.4,0,0.7,0,1-0.1
			s0.5-0.2,0.7-0.4s0.4-0.4,0.5-0.6c0.1-0.3,0.2-0.6,0.2-0.9c0-0.6-0.2-1.1-0.6-1.3c-0.4-0.3-1-0.4-1.7-0.4L385.6,706.3L385.6,706.3
			z"/>
		<path d="M399,715.1h-6.2v-10h1.3v8.9h4.9L399,715.1L399,715.1z"/>
		<path d="M403.6,715.3c-0.5,0-0.9,0-1.2-0.1c-0.4-0.1-0.7-0.1-1-0.2c-0.3-0.1-0.5-0.2-0.7-0.3s-0.3-0.2-0.5-0.3V713
			c0.1,0.1,0.3,0.2,0.5,0.4c0.2,0.1,0.5,0.2,0.8,0.3s0.6,0.2,1,0.3c0.3,0.1,0.7,0.1,1.1,0.1c0.7,0,1.3-0.1,1.7-0.4
			c0.4-0.3,0.6-0.7,0.6-1.3c0-0.3-0.1-0.5-0.2-0.7s-0.3-0.3-0.4-0.5s-0.4-0.2-0.7-0.3c-0.3-0.1-0.6-0.2-1-0.3s-0.8-0.2-1.2-0.4
			c-0.4-0.1-0.7-0.3-1.1-0.5c-0.3-0.2-0.6-0.5-0.8-0.8s-0.3-0.7-0.3-1.2c0-0.9,0.3-1.5,0.9-2s1.5-0.7,2.8-0.7c0.4,0,0.7,0,1,0.1
			c0.3,0,0.5,0.1,0.8,0.2c0.2,0.1,0.4,0.1,0.6,0.2c0.2,0.1,0.3,0.1,0.4,0.2v1.3c-0.4-0.3-0.8-0.4-1.3-0.5s-0.9-0.2-1.5-0.2
			c-0.4,0-0.8,0-1.1,0.1c-0.3,0.1-0.5,0.2-0.7,0.3s-0.3,0.3-0.4,0.5s-0.1,0.4-0.1,0.6c0,0.3,0.1,0.5,0.2,0.7s0.3,0.3,0.5,0.5
			c0.2,0.1,0.5,0.2,0.7,0.3c0.3,0.1,0.6,0.2,0.9,0.2c0.4,0.1,0.8,0.2,1.2,0.3c0.4,0.1,0.8,0.3,1.1,0.5c0.3,0.2,0.6,0.5,0.8,0.8
			s0.3,0.8,0.3,1.3s-0.1,1-0.3,1.4s-0.5,0.7-0.8,0.9s-0.7,0.4-1.2,0.5C404.6,715.2,404.1,715.3,403.6,715.3z"/>
		<path d="M417.7,714.5c-0.1,0.1-0.2,0.2-0.4,0.2c-0.1,0.1-0.3,0.2-0.5,0.2s-0.5,0.1-0.7,0.2c-0.3,0.1-0.6,0.1-0.9,0.1
			c-1.2,0-2.2-0.3-2.8-1c-0.6-0.7-1-1.6-1-2.8c0-0.6,0.1-1.1,0.3-1.6c0.2-0.5,0.4-0.9,0.7-1.2c0.3-0.3,0.7-0.6,1.1-0.7
			c0.4-0.2,0.9-0.3,1.4-0.3s1,0.1,1.4,0.3s0.8,0.4,1,0.8c0.3,0.3,0.4,0.8,0.5,1.3s0.1,1.1,0,1.8h-5.1c0,0.8,0.3,1.4,0.7,1.8
			c0.4,0.4,1,0.6,1.9,0.6c0.6,0,1-0.1,1.4-0.2c0.4-0.2,0.7-0.3,1-0.5V714.5z M414.8,708.8c-0.5,0-1,0.2-1.4,0.5s-0.6,0.8-0.7,1.5
			h3.9c0-0.7-0.1-1.2-0.5-1.5S415.4,708.8,414.8,708.8z"/>
		<path d="M425.7,717.6h-1.2v-3.8c-0.2,0.4-0.5,0.8-0.9,1.1s-0.9,0.4-1.5,0.4c-0.4,0-0.9-0.1-1.2-0.2c-0.4-0.2-0.7-0.4-1-0.7
			s-0.5-0.7-0.7-1.2s-0.3-1-0.3-1.7c0-0.6,0.1-1.2,0.3-1.7c0.2-0.5,0.4-0.9,0.7-1.2c0.3-0.3,0.6-0.5,1-0.7s0.8-0.2,1.3-0.2
			c0.6,0,1.1,0.1,1.5,0.4c0.4,0.3,0.7,0.6,1,1.1v-0.1c0-0.2,0-0.4,0-0.6s0-0.4,0.1-0.6h1.1c0,0.1,0,0.3,0,0.6c0,0.2,0,0.4,0,0.6v8.5
			H425.7z M422.3,714.2c0.3,0,0.6-0.1,0.9-0.2c0.3-0.1,0.5-0.3,0.7-0.5s0.4-0.5,0.5-0.8s0.2-0.7,0.2-1.2c0-0.4-0.1-0.8-0.2-1.2
			c-0.1-0.3-0.3-0.6-0.5-0.8s-0.4-0.4-0.7-0.5c-0.3-0.1-0.6-0.2-0.9-0.2c-0.6,0-1.2,0.2-1.6,0.7s-0.6,1.1-0.6,2s0.2,1.6,0.6,2
			C421.1,714,421.7,714.2,422.3,714.2z"/>
		<path d="M431.5,714.9c-0.4,0.3-0.9,0.4-1.6,0.4s-1.2-0.2-1.6-0.6c-0.4-0.4-0.6-1-0.6-1.8v-5.1h1.2v5.1c0,0.2,0,0.4,0.1,0.6
			c0.1,0.2,0.2,0.3,0.3,0.4c0.1,0.1,0.3,0.2,0.4,0.2c0.2,0,0.3,0.1,0.5,0.1c0.5,0,1-0.1,1.3-0.4c0.3-0.2,0.6-0.6,0.8-1v-5h1.2v7.3
			h-1.1l-0.1-1.3l0,0C432.2,714.2,431.9,714.6,431.5,714.9z"/>
		<path d="M436.3,706.8c-0.3,0-0.5-0.1-0.6-0.2s-0.2-0.3-0.2-0.6s0.1-0.4,0.2-0.6c0.1-0.2,0.4-0.2,0.6-0.2s0.4,0.1,0.6,0.2
			c0.1,0.2,0.2,0.3,0.2,0.6s-0.1,0.4-0.2,0.6C436.7,706.7,436.6,706.8,436.3,706.8z M436.9,707.9v7.3h-1.2v-7.3H436.9z"/>
		<path d="M442.6,715.3c-0.6,0-1-0.1-1.5-0.4c-0.4-0.3-0.7-0.6-1-1.1v3.8h-1.2v-9.8h1.1l0.1,1.4c0.2-0.5,0.6-0.9,1-1.1
			s0.9-0.4,1.5-0.4c0.4,0,0.8,0.1,1.2,0.2s0.7,0.4,1,0.7s0.5,0.7,0.7,1.2s0.3,1,0.3,1.7c0,0.6-0.1,1.2-0.3,1.7s-0.4,0.9-0.7,1.2
			c-0.3,0.3-0.6,0.5-1,0.7S443,715.3,442.6,715.3z M442.4,714.2c0.6,0,1.2-0.2,1.6-0.7c0.4-0.4,0.6-1.1,0.6-2s-0.2-1.5-0.6-2
			s-0.9-0.7-1.6-0.7c-0.3,0-0.6,0.1-0.9,0.2c-0.3,0.1-0.5,0.3-0.7,0.5s-0.4,0.5-0.5,0.8s-0.2,0.7-0.2,1.2s0.1,0.8,0.2,1.2
			c0.1,0.3,0.3,0.6,0.5,0.8s0.4,0.4,0.7,0.5C441.8,714.1,442.1,714.2,442.4,714.2z"/>
		<path d="M448.6,715.1h-1.2v-7.3h1.1l0.1,1.3l0,0c0.2-0.4,0.5-0.8,0.9-1c0.4-0.3,0.9-0.4,1.5-0.4s1,0.1,1.4,0.4
			c0.4,0.3,0.6,0.7,0.7,1.2c0.2-0.5,0.5-0.9,0.9-1.2s0.9-0.4,1.5-0.4c0.7,0,1.2,0.2,1.6,0.6c0.4,0.4,0.6,1,0.6,1.7v5.1h-1.2v-4.9
			c0-0.5-0.1-0.8-0.4-1c-0.2-0.2-0.6-0.3-1-0.3c-0.3,0-0.5,0-0.7,0.1s-0.4,0.2-0.5,0.3c-0.2,0.1-0.3,0.3-0.4,0.5s-0.3,0.4-0.4,0.6
			v4.8h-1.2v-5.1c0-0.5-0.1-0.8-0.4-1s-0.6-0.3-1-0.3c-0.3,0-0.5,0-0.7,0.1s-0.4,0.2-0.6,0.3s-0.3,0.3-0.4,0.4s-0.3,0.4-0.4,0.6v4.9
			H448.6z"/>
		<path d="M465.5,714.5c-0.1,0.1-0.2,0.2-0.4,0.2c-0.1,0.1-0.3,0.2-0.5,0.2s-0.5,0.1-0.7,0.2c-0.3,0.1-0.6,0.1-0.9,0.1
			c-1.2,0-2.2-0.3-2.8-1c-0.6-0.7-1-1.6-1-2.8c0-0.6,0.1-1.1,0.3-1.6c0.2-0.5,0.4-0.9,0.7-1.2c0.3-0.3,0.7-0.6,1.1-0.7
			c0.4-0.2,0.9-0.3,1.4-0.3s1,0.1,1.4,0.3s0.8,0.4,1,0.8c0.3,0.3,0.4,0.8,0.5,1.3s0.1,1.1,0,1.8h-5.1c0,0.8,0.3,1.4,0.7,1.8
			c0.4,0.4,1,0.6,1.9,0.6c0.6,0,1-0.1,1.4-0.2c0.4-0.2,0.7-0.3,1-0.5V714.5z M462.6,708.8c-0.5,0-1,0.2-1.4,0.5s-0.6,0.8-0.7,1.5
			h3.9c0-0.7-0.1-1.2-0.5-1.5S463.2,708.8,462.6,708.8z"/>
		<path d="M470.6,708.8c-0.6,0-1,0.1-1.4,0.4s-0.6,0.6-0.8,1v4.9h-1.2v-7.3h1.2v1.3l0,0c0.2-0.4,0.5-0.8,0.9-1
			c0.4-0.3,1-0.4,1.6-0.4c0.7,0,1.3,0.2,1.7,0.6c0.4,0.4,0.6,1,0.6,1.7v5.1H472v-5c0-0.5-0.1-0.9-0.4-1.1
			C471.4,708.9,471,708.8,470.6,708.8z"/>
		<path d="M478.2,715.2c-0.2,0.1-0.5,0.1-0.7,0.1c-0.4,0-0.7-0.1-0.9-0.2c-0.2-0.1-0.5-0.2-0.6-0.4c-0.2-0.2-0.3-0.4-0.3-0.6
			s-0.1-0.4-0.1-0.7v-4.5h-0.9v-1.1h0.9v-1.5h1.2v1.5h2.1v1.1h-2.1v4.4c0,0.3,0.1,0.5,0.2,0.7c0.2,0.1,0.4,0.2,0.8,0.2
			s0.7-0.1,1-0.3v1.1C478.6,715.1,478.4,715.1,478.2,715.2z"/>
	</g>
</g>
</svg>
