<svg xmlns="http://www.w3.org/2000/svg" width="700" height="400" fill="none" viewBox="0 0 700 400">
    <rect width="138" height="42" x="190" y="179" fill="#fff" stroke="#5282FF" stroke-width="2" rx="7"/>
    <path fill="#18123D" d="M222.758 193.88c0-.728.128-1.328.384-1.8.256-.48.596-.836 1.02-1.068.432-.24.9-.36 1.404-.36.472 0 .88.1 1.224.3.344.192.62.468.828.828v-3.384h1.056V197h-.924l-.084-1.224a2.46 2.46 0 0 1-.816.984c-.344.24-.776.36-1.296.36-.496 0-.96-.116-1.392-.348-.424-.24-.764-.6-1.02-1.08-.256-.48-.384-1.084-.384-1.812Zm4.872 0c0-.776-.184-1.352-.552-1.728a1.838 1.838 0 0 0-1.368-.564c-.544 0-.992.196-1.344.588-.352.384-.528.952-.528 1.704 0 .76.176 1.332.528 1.716.352.384.8.576 1.344.576s1-.188 1.368-.564c.368-.376.552-.952.552-1.728Zm4.879-2.292c-.664 0-1.336.204-2.016.612v-.948a3.804 3.804 0 0 1 1.02-.432 4.142 4.142 0 0 1 1.14-.168c.784 0 1.38.164 1.788.492.408.328.612.828.612 1.5v3.348c0 .136.004.312.012.528.016.208.032.368.048.48h-.96a5.482 5.482 0 0 1-.072-.468 7.173 7.173 0 0 1-.024-.54l-.012-.18a3.359 3.359 0 0 1-.396.6c-.168.2-.392.368-.672.504-.272.136-.612.204-1.02.204-.56 0-1.012-.16-1.356-.48-.344-.32-.516-.772-.516-1.356 0-.68.24-1.18.72-1.5.48-.32 1.156-.48 2.028-.48h1.164v-.516c0-.432-.112-.74-.336-.924-.224-.184-.608-.276-1.152-.276Zm1.488 3.012v-.456h-1.056c-.632 0-1.092.092-1.38.276-.28.184-.42.452-.42.804 0 .28.084.508.252.684.176.176.44.264.792.264.328 0 .608-.064.84-.192.232-.136.42-.296.564-.48.144-.192.248-.372.312-.54.064-.168.096-.288.096-.36Zm2.213-2.928v-.9h.744v-1.308h1.056v1.308h1.812v.9h-1.812v3.744c0 .264.068.456.204.576.136.12.368.18.696.18.312 0 .596-.088.852-.264v.96a1.48 1.48 0 0 1-.504.18 2.767 2.767 0 0 1-.624.072c-.4 0-.724-.076-.972-.228a1.36 1.36 0 0 1-.54-.588 1.767 1.767 0 0 1-.168-.756v-3.876h-.744Zm7.069-.084c-.664 0-1.336.204-2.016.612v-.948a3.804 3.804 0 0 1 1.02-.432 4.142 4.142 0 0 1 1.14-.168c.784 0 1.38.164 1.788.492.408.328.612.828.612 1.5v3.348c0 .136.004.312.012.528.016.208.032.368.048.48h-.96a5.482 5.482 0 0 1-.072-.468 7.173 7.173 0 0 1-.024-.54l-.012-.18a3.359 3.359 0 0 1-.396.6c-.168.2-.392.368-.672.504-.272.136-.612.204-1.02.204-.56 0-1.012-.16-1.356-.48-.344-.32-.516-.772-.516-1.356 0-.68.24-1.18.72-1.5.48-.32 1.156-.48 2.028-.48h1.164v-.516c0-.432-.112-.74-.336-.924-.224-.184-.608-.276-1.152-.276Zm1.488 3.012v-.456h-1.056c-.632 0-1.092.092-1.38.276-.28.184-.42.452-.42.804 0 .28.084.508.252.684.176.176.44.264.792.264.328 0 .608-.064.84-.192.232-.136.42-.296.564-.48.144-.192.248-.372.312-.54.064-.168.096-.288.096-.36Zm2.572-.78v-.96h2.88v.96h-2.88Zm3.964-2.148v-.9h.744v-1.308h1.056v1.308h1.812v.9h-1.812v3.744c0 .264.068.456.204.576.136.12.368.18.696.18.312 0 .596-.088.852-.264v.96a1.48 1.48 0 0 1-.504.18 2.767 2.767 0 0 1-.624.072c-.4 0-.724-.076-.972-.228a1.36 1.36 0 0 1-.54-.588 1.767 1.767 0 0 1-.168-.756v-3.876h-.744Zm8.041.156c-.496.04-.92.164-1.272.372a1.87 1.87 0 0 0-.756.84V197h-1.056v-6.228h.924l.108 1.356h.024c.2-.416.472-.752.816-1.008a2.553 2.553 0 0 1 1.212-.468v1.176Zm3.282-.24c-.664 0-1.336.204-2.016.612v-.948a3.804 3.804 0 0 1 1.02-.432 4.142 4.142 0 0 1 1.14-.168c.784 0 1.38.164 1.788.492.408.328.612.828.612 1.5v3.348c0 .136.004.312.012.528.016.208.032.368.048.48h-.96a5.482 5.482 0 0 1-.072-.468 7.173 7.173 0 0 1-.024-.54l-.012-.18a3.359 3.359 0 0 1-.396.6c-.168.2-.392.368-.672.504-.272.136-.612.204-1.02.204-.56 0-1.012-.16-1.356-.48-.344-.32-.516-.772-.516-1.356 0-.68.24-1.18.72-1.5.48-.32 1.156-.48 2.028-.48h1.164v-.516c0-.432-.112-.74-.336-.924-.224-.184-.608-.276-1.152-.276Zm1.488 3.012v-.456h-1.056c-.632 0-1.092.092-1.38.276-.28.184-.42.452-.42.804 0 .28.084.508.252.684.176.176.44.264.792.264.328 0 .608-.064.84-.192.232-.136.42-.296.564-.48.144-.192.248-.372.312-.54.064-.168.096-.288.096-.36Zm5.669-3.012c-.48 0-.872.112-1.176.336a2.455 2.455 0 0 0-.72.84V197h-1.056v-6.228h.996l.036 1.116h.024c.168-.352.432-.644.792-.876.36-.24.816-.36 1.368-.36.616 0 1.104.164 1.464.492.368.328.552.824.552 1.488V197h-1.056v-4.26c0-.424-.112-.72-.336-.888-.216-.176-.512-.264-.888-.264Zm5.942 5.532c-.456 0-.892-.064-1.308-.192-.408-.136-.74-.316-.996-.54v-.948c.248.24.58.432.996.576.424.144.856.216 1.296.216.976 0 1.464-.316 1.464-.948a.698.698 0 0 0-.132-.444c-.08-.12-.232-.22-.456-.3a5.694 5.694 0 0 0-.972-.252c-.808-.16-1.372-.376-1.692-.648-.32-.28-.48-.676-.48-1.188 0-.568.22-1.008.66-1.32.44-.32 1.048-.48 1.824-.48.368 0 .728.04 1.08.12.36.072.652.172.876.3v.948c-.464-.32-1.104-.48-1.92-.48-.504 0-.876.072-1.116.216-.232.144-.348.368-.348.672 0 .16.036.292.108.396.072.104.216.196.432.276.216.08.54.164.972.252.552.112.988.248 1.308.408.328.152.56.348.696.588.144.24.216.544.216.912 0 .584-.22 1.04-.66 1.368-.44.328-1.056.492-1.848.492Zm4.181-.12v-5.328h-.756v-.9h.756v-.156c0-.736.196-1.308.588-1.716.392-.408.928-.612 1.608-.612.304 0 .568.036.792.108v.96a1.406 1.406 0 0 0-.312-.084 2.484 2.484 0 0 0-.432-.036c-.368 0-.66.112-.876.336-.208.224-.312.572-.312 1.044v.156h1.8v.9h-1.8V197h-1.056Zm6.489.12c-1.04 0-1.836-.284-2.388-.852-.544-.576-.816-1.372-.816-2.388 0-.68.128-1.26.384-1.74s.608-.848 1.056-1.104a2.993 2.993 0 0 1 1.512-.384c.952 0 1.652.316 2.1.948.448.624.592 1.48.432 2.568h-4.392c.088 1.336.824 2.004 2.208 2.004.76 0 1.46-.216 2.1-.648v.948c-.288.2-.624.36-1.008.48-.384.112-.78.168-1.188.168Zm-.276-5.532c-.456 0-.848.14-1.176.42-.328.28-.536.704-.624 1.272h3.348c.024-.536-.1-.952-.372-1.248-.272-.296-.664-.444-1.176-.444Zm6.964.24c-.496.04-.92.164-1.272.372a1.87 1.87 0 0 0-.756.84V197h-1.056v-6.228h.924l.108 1.356h.024c.2-.416.472-.752.816-1.008a2.553 2.553 0 0 1 1.212-.468v1.176Zm1.148 5.244a.789.789 0 0 1-.564-.216.759.759 0 0 1-.216-.54c0-.224.072-.408.216-.552a.789.789 0 0 1 .564-.216c.224 0 .408.072.552.216a.748.748 0 0 1 .216.552.759.759 0 0 1-.216.54.748.748 0 0 1-.552.216Zm-70.953 7.7h.924l.108 1.212c.2-.4.476-.72.828-.96.36-.248.8-.372 1.32-.372.488 0 .936.12 1.344.36.416.232.752.588 1.008 1.068.256.472.384 1.072.384 1.8s-.132 1.332-.396 1.812c-.256.48-.596.84-1.02 1.08a2.761 2.761 0 0 1-1.368.348c-.472 0-.884-.112-1.236-.336a2.408 2.408 0 0 1-.84-.924v3.264h-1.056v-8.352Zm4.824 3.108c0-.752-.172-1.32-.516-1.704-.344-.392-.788-.588-1.332-.588s-1.004.192-1.38.576c-.368.376-.552.948-.552 1.716 0 .776.184 1.352.552 1.728.376.376.836.564 1.38.564.544 0 .988-.192 1.332-.576.344-.384.516-.956.516-1.716Zm5.455-2.052c-.496.04-.92.164-1.272.372a1.87 1.87 0 0 0-.756.84V211h-1.056v-6.228h.924l.108 1.356h.024c.2-.416.472-.752.816-1.008a2.553 2.553 0 0 1 1.212-.468v1.176Zm1.827-1.968c-.216 0-.388-.064-.516-.192a.692.692 0 0 1-.192-.492.675.675 0 0 1 .708-.696c.208 0 .372.068.492.204.12.136.18.3.18.492s-.06.356-.18.492c-.12.128-.284.192-.492.192Zm-.54.912h1.056V211h-1.056v-6.228Zm2.034 0h1.14l1.896 5.664 1.884-5.664h1.056L240.718 211h-1.704l-2.136-6.228Zm9.008.816c-.664 0-1.336.204-2.016.612v-.948a3.804 3.804 0 0 1 1.02-.432 4.142 4.142 0 0 1 1.14-.168c.784 0 1.38.164 1.788.492.408.328.612.828.612 1.5v3.348c0 .136.004.312.012.528.016.208.032.368.048.48h-.96a5.482 5.482 0 0 1-.072-.468 7.173 7.173 0 0 1-.024-.54l-.012-.18a3.359 3.359 0 0 1-.396.6c-.168.2-.392.368-.672.504-.272.136-.612.204-1.02.204-.56 0-1.012-.16-1.356-.48-.344-.32-.516-.772-.516-1.356 0-.68.24-1.18.72-1.5.48-.32 1.156-.48 2.028-.48h1.164v-.516c0-.432-.112-.74-.336-.924-.224-.184-.608-.276-1.152-.276Zm1.488 3.012v-.456h-1.056c-.632 0-1.092.092-1.38.276-.28.184-.42.452-.42.804 0 .28.084.508.252.684.176.176.44.264.792.264.328 0 .608-.064.84-.192.232-.136.42-.296.564-.48.144-.192.248-.372.312-.54.064-.168.096-.288.096-.36Zm2.213-2.928v-.9h.744v-1.308h1.056v1.308h1.812v.9h-1.812v3.744c0 .264.068.456.204.576.136.12.368.18.696.18.312 0 .596-.088.852-.264v.96a1.48 1.48 0 0 1-.504.18 2.767 2.767 0 0 1-.624.072c-.4 0-.724-.076-.972-.228a1.36 1.36 0 0 1-.54-.588 1.767 1.767 0 0 1-.168-.756v-3.876h-.744Zm7.541 5.448c-1.04 0-1.836-.284-2.388-.852-.544-.576-.816-1.372-.816-2.388 0-.68.128-1.26.384-1.74s.608-.848 1.056-1.104a2.993 2.993 0 0 1 1.512-.384c.952 0 1.652.316 2.1.948.448.624.592 1.48.432 2.568h-4.392c.088 1.336.824 2.004 2.208 2.004.76 0 1.46-.216 2.1-.648v.948c-.288.2-.624.36-1.008.48-.384.112-.78.168-1.188.168Zm-.276-5.532c-.456 0-.848.14-1.176.42-.328.28-.536.704-.624 1.272h3.348c.024-.536-.1-.952-.372-1.248-.272-.296-.664-.444-1.176-.444ZM267.931 211h-1.2l-.888-2.46h-3.804l-.876 2.46h-1.056l3.06-8.604h1.68l3.084 8.604Zm-5.52-3.48h3.072l-1.536-4.284-1.536 4.284Zm6.126.36c0-.728.128-1.328.384-1.8.256-.48.596-.836 1.02-1.068.432-.24.9-.36 1.404-.36.472 0 .88.1 1.224.3.344.192.62.468.828.828v-3.384h1.056V211h-.924l-.084-1.224a2.46 2.46 0 0 1-.816.984c-.344.24-.776.36-1.296.36-.496 0-.96-.116-1.392-.348-.424-.24-.764-.6-1.02-1.08-.256-.48-.384-1.084-.384-1.812Zm4.872 0c0-.776-.184-1.352-.552-1.728a1.838 1.838 0 0 0-1.368-.564c-.544 0-.992.196-1.344.588-.352.384-.528.952-.528 1.704 0 .76.176 1.332.528 1.716.352.384.8.576 1.344.576s1-.188 1.368-.564c.368-.376.552-.952.552-1.728Zm6.704-1.236c0-.4-.1-.676-.3-.828-.2-.152-.472-.228-.816-.228-.448 0-.804.112-1.068.336-.264.216-.496.5-.696.852V211h-1.056v-6.228h.924l.108 1.116h.024a2.21 2.21 0 0 1 .756-.876c.344-.24.784-.36 1.32-.36.472 0 .864.116 1.176.348.312.224.52.564.624 1.02.176-.424.444-.756.804-.996.368-.248.812-.372 1.332-.372.568 0 1.02.164 1.356.492.344.328.516.824.516 1.488V211h-1.068v-4.236c0-.408-.1-.704-.3-.888-.2-.192-.472-.288-.816-.288-.456 0-.816.132-1.08.396a3.78 3.78 0 0 0-.684.912V211h-1.056v-4.356Zm7.197-2.784c-.216 0-.388-.064-.516-.192a.692.692 0 0 1-.192-.492.675.675 0 0 1 .708-.696c.208 0 .372.068.492.204.12.136.18.3.18.492s-.06.356-.18.492c-.12.128-.284.192-.492.192Zm-.54.912h1.056V211h-1.056v-6.228Zm5.73.816c-.48 0-.872.112-1.176.336a2.455 2.455 0 0 0-.72.84V211h-1.056v-6.228h.996l.036 1.116h.024c.168-.352.432-.644.792-.876.36-.24.816-.36 1.368-.36.616 0 1.104.164 1.464.492.368.328.552.824.552 1.488V211h-1.056v-4.26c0-.424-.112-.72-.336-.888-.216-.176-.512-.264-.888-.264Z"/>
    <rect width="138" height="42" x="190" y="95" fill="#fff" stroke="#5282FF" stroke-width="2" rx="7"/>
    <path fill="#18123D" d="M222.758 109.88c0-.728.128-1.328.384-1.8.256-.48.596-.836 1.02-1.068.432-.24.9-.36 1.404-.36.472 0 .88.1 1.224.3.344.192.62.468.828.828v-3.384h1.056V113h-.924l-.084-1.224a2.46 2.46 0 0 1-.816.984c-.344.24-.776.36-1.296.36-.496 0-.96-.116-1.392-.348-.424-.24-.764-.6-1.02-1.08-.256-.48-.384-1.084-.384-1.812Zm4.872 0c0-.776-.184-1.352-.552-1.728a1.838 1.838 0 0 0-1.368-.564c-.544 0-.992.196-1.344.588-.352.384-.528.952-.528 1.704 0 .76.176 1.332.528 1.716.352.384.8.576 1.344.576s1-.188 1.368-.564c.368-.376.552-.952.552-1.728Zm4.879-2.292c-.664 0-1.336.204-2.016.612v-.948a3.804 3.804 0 0 1 1.02-.432 4.142 4.142 0 0 1 1.14-.168c.784 0 1.38.164 1.788.492.408.328.612.828.612 1.5v3.348c0 .136.004.312.012.528.016.208.032.368.048.48h-.96a5.482 5.482 0 0 1-.072-.468 7.173 7.173 0 0 1-.024-.54l-.012-.18a3.359 3.359 0 0 1-.396.6c-.168.2-.392.368-.672.504-.272.136-.612.204-1.02.204-.56 0-1.012-.16-1.356-.48-.344-.32-.516-.772-.516-1.356 0-.68.24-1.18.72-1.5.48-.32 1.156-.48 2.028-.48h1.164v-.516c0-.432-.112-.74-.336-.924-.224-.184-.608-.276-1.152-.276Zm1.488 3.012v-.456h-1.056c-.632 0-1.092.092-1.38.276-.28.184-.42.452-.42.804 0 .28.084.508.252.684.176.176.44.264.792.264.328 0 .608-.064.84-.192.232-.136.42-.296.564-.48.144-.192.248-.372.312-.54.064-.168.096-.288.096-.36Zm2.213-2.928v-.9h.744v-1.308h1.056v1.308h1.812v.9h-1.812v3.744c0 .264.068.456.204.576.136.12.368.18.696.18.312 0 .596-.088.852-.264v.96a1.48 1.48 0 0 1-.504.18 2.767 2.767 0 0 1-.624.072c-.4 0-.724-.076-.972-.228a1.36 1.36 0 0 1-.54-.588 1.767 1.767 0 0 1-.168-.756v-3.876h-.744Zm7.069-.084c-.664 0-1.336.204-2.016.612v-.948a3.804 3.804 0 0 1 1.02-.432 4.142 4.142 0 0 1 1.14-.168c.784 0 1.38.164 1.788.492.408.328.612.828.612 1.5v3.348c0 .136.004.312.012.528.016.208.032.368.048.48h-.96a5.482 5.482 0 0 1-.072-.468 7.173 7.173 0 0 1-.024-.54l-.012-.18a3.359 3.359 0 0 1-.396.6c-.168.2-.392.368-.672.504-.272.136-.612.204-1.02.204-.56 0-1.012-.16-1.356-.48-.344-.32-.516-.772-.516-1.356 0-.68.24-1.18.72-1.5.48-.32 1.156-.48 2.028-.48h1.164v-.516c0-.432-.112-.74-.336-.924-.224-.184-.608-.276-1.152-.276Zm1.488 3.012v-.456h-1.056c-.632 0-1.092.092-1.38.276-.28.184-.42.452-.42.804 0 .28.084.508.252.684.176.176.44.264.792.264.328 0 .608-.064.84-.192.232-.136.42-.296.564-.48.144-.192.248-.372.312-.54.064-.168.096-.288.096-.36Zm2.572-.78v-.96h2.88v.96h-2.88Zm3.964-2.148v-.9h.744v-1.308h1.056v1.308h1.812v.9h-1.812v3.744c0 .264.068.456.204.576.136.12.368.18.696.18.312 0 .596-.088.852-.264v.96a1.48 1.48 0 0 1-.504.18 2.767 2.767 0 0 1-.624.072c-.4 0-.724-.076-.972-.228a1.36 1.36 0 0 1-.54-.588 1.767 1.767 0 0 1-.168-.756v-3.876h-.744Zm8.041.156c-.496.04-.92.164-1.272.372a1.87 1.87 0 0 0-.756.84V113h-1.056v-6.228h.924l.108 1.356h.024c.2-.416.472-.752.816-1.008a2.553 2.553 0 0 1 1.212-.468v1.176Zm3.282-.24c-.664 0-1.336.204-2.016.612v-.948a3.804 3.804 0 0 1 1.02-.432 4.142 4.142 0 0 1 1.14-.168c.784 0 1.38.164 1.788.492.408.328.612.828.612 1.5v3.348c0 .136.004.312.012.528.016.208.032.368.048.48h-.96a5.482 5.482 0 0 1-.072-.468 7.173 7.173 0 0 1-.024-.54l-.012-.18a3.359 3.359 0 0 1-.396.6c-.168.2-.392.368-.672.504-.272.136-.612.204-1.02.204-.56 0-1.012-.16-1.356-.48-.344-.32-.516-.772-.516-1.356 0-.68.24-1.18.72-1.5.48-.32 1.156-.48 2.028-.48h1.164v-.516c0-.432-.112-.74-.336-.924-.224-.184-.608-.276-1.152-.276Zm1.488 3.012v-.456h-1.056c-.632 0-1.092.092-1.38.276-.28.184-.42.452-.42.804 0 .28.084.508.252.684.176.176.44.264.792.264.328 0 .608-.064.84-.192.232-.136.42-.296.564-.48.144-.192.248-.372.312-.54.064-.168.096-.288.096-.36Zm5.669-3.012c-.48 0-.872.112-1.176.336a2.455 2.455 0 0 0-.72.84V113h-1.056v-6.228h.996l.036 1.116h.024c.168-.352.432-.644.792-.876.36-.24.816-.36 1.368-.36.616 0 1.104.164 1.464.492.368.328.552.824.552 1.488V113h-1.056v-4.26c0-.424-.112-.72-.336-.888-.216-.176-.512-.264-.888-.264Zm5.942 5.532c-.456 0-.892-.064-1.308-.192-.408-.136-.74-.316-.996-.54v-.948c.248.24.58.432.996.576.424.144.856.216 1.296.216.976 0 1.464-.316 1.464-.948a.698.698 0 0 0-.132-.444c-.08-.12-.232-.22-.456-.3a5.694 5.694 0 0 0-.972-.252c-.808-.16-1.372-.376-1.692-.648-.32-.28-.48-.676-.48-1.188 0-.568.22-1.008.66-1.32.44-.32 1.048-.48 1.824-.48.368 0 .728.04 1.08.12.36.072.652.172.876.3v.948c-.464-.32-1.104-.48-1.92-.48-.504 0-.876.072-1.116.216-.232.144-.348.368-.348.672 0 .16.036.292.108.396.072.104.216.196.432.276.216.08.54.164.972.252.552.112.988.248 1.308.408.328.152.56.348.696.588.144.24.216.544.216.912 0 .584-.22 1.04-.66 1.368-.44.328-1.056.492-1.848.492Zm4.181-.12v-5.328h-.756v-.9h.756v-.156c0-.736.196-1.308.588-1.716.392-.408.928-.612 1.608-.612.304 0 .568.036.792.108v.96a1.406 1.406 0 0 0-.312-.084 2.484 2.484 0 0 0-.432-.036c-.368 0-.66.112-.876.336-.208.224-.312.572-.312 1.044v.156h1.8v.9h-1.8V113h-1.056Zm6.489.12c-1.04 0-1.836-.284-2.388-.852-.544-.576-.816-1.372-.816-2.388 0-.68.128-1.26.384-1.74s.608-.848 1.056-1.104a2.993 2.993 0 0 1 1.512-.384c.952 0 1.652.316 2.1.948.448.624.592 1.48.432 2.568h-4.392c.088 1.336.824 2.004 2.208 2.004.76 0 1.46-.216 2.1-.648v.948c-.288.2-.624.36-1.008.48-.384.112-.78.168-1.188.168Zm-.276-5.532c-.456 0-.848.14-1.176.42-.328.28-.536.704-.624 1.272h3.348c.024-.536-.1-.952-.372-1.248-.272-.296-.664-.444-1.176-.444Zm6.964.24c-.496.04-.92.164-1.272.372a1.87 1.87 0 0 0-.756.84V113h-1.056v-6.228h.924l.108 1.356h.024c.2-.416.472-.752.816-1.008a2.553 2.553 0 0 1 1.212-.468v1.176Zm1.148 5.244a.789.789 0 0 1-.564-.216.759.759 0 0 1-.216-.54c0-.224.072-.408.216-.552a.789.789 0 0 1 .564-.216c.224 0 .408.072.552.216a.748.748 0 0 1 .216.552.759.759 0 0 1-.216.54.748.748 0 0 1-.552.216Zm-49.148 8.516c-.664 0-1.336.204-2.016.612v-.948a3.804 3.804 0 0 1 1.02-.432 4.142 4.142 0 0 1 1.14-.168c.784 0 1.38.164 1.788.492.408.328.612.828.612 1.5v3.348c0 .136.004.312.012.528.016.208.032.368.048.48h-.96a5.482 5.482 0 0 1-.072-.468 7.173 7.173 0 0 1-.024-.54l-.012-.18a3.359 3.359 0 0 1-.396.6c-.168.2-.392.368-.672.504-.272.136-.612.204-1.02.204-.56 0-1.012-.16-1.356-.48-.344-.32-.516-.772-.516-1.356 0-.68.24-1.18.72-1.5.48-.32 1.156-.48 2.028-.48h1.164v-.516c0-.432-.112-.74-.336-.924-.224-.184-.608-.276-1.152-.276Zm1.488 3.012v-.456h-1.056c-.632 0-1.092.092-1.38.276-.28.184-.42.452-.42.804 0 .28.084.508.252.684.176.176.44.264.792.264.328 0 .608-.064.84-.192.232-.136.42-.296.564-.48.144-.192.248-.372.312-.54.064-.168.096-.288.096-.36Zm2.273-.72c0-.728.128-1.328.384-1.8.256-.48.596-.836 1.02-1.068.432-.24.9-.36 1.404-.36.472 0 .88.1 1.224.3.344.192.62.468.828.828v-3.384h1.056V127h-.924l-.084-1.224a2.46 2.46 0 0 1-.816.984c-.344.24-.776.36-1.296.36-.496 0-.96-.116-1.392-.348-.424-.24-.764-.6-1.02-1.08-.256-.48-.384-1.084-.384-1.812Zm4.872 0c0-.776-.184-1.352-.552-1.728a1.838 1.838 0 0 0-1.368-.564c-.544 0-.992.196-1.344.588-.352.384-.528.952-.528 1.704 0 .76.176 1.332.528 1.716.352.384.8.576 1.344.576s1-.188 1.368-.564c.368-.376.552-.952.552-1.728Zm6.703-1.236c0-.4-.1-.676-.3-.828-.2-.152-.472-.228-.816-.228-.448 0-.804.112-1.068.336-.264.216-.496.5-.696.852V127h-1.056v-6.228h.924l.108 1.116h.024a2.21 2.21 0 0 1 .756-.876c.344-.24.784-.36 1.32-.36.472 0 .864.116 1.176.348.312.224.52.564.624 1.02.176-.424.444-.756.804-.996.368-.248.812-.372 1.332-.372.568 0 1.02.164 1.356.492.344.328.516.824.516 1.488V127h-1.068v-4.236c0-.408-.1-.704-.3-.888-.2-.192-.472-.288-.816-.288-.456 0-.816.132-1.08.396a3.78 3.78 0 0 0-.684.912V127h-1.056v-4.356Zm7.198-2.784c-.216 0-.388-.064-.516-.192a.692.692 0 0 1-.192-.492.675.675 0 0 1 .708-.696c.208 0 .372.068.492.204.12.136.18.3.18.492s-.06.356-.18.492c-.12.128-.284.192-.492.192Zm-.54.912h1.056V127h-1.056v-6.228Zm5.729.816c-.48 0-.872.112-1.176.336a2.455 2.455 0 0 0-.72.84V127h-1.056v-6.228h.996l.036 1.116h.024c.168-.352.432-.644.792-.876.36-.24.816-.36 1.368-.36.616 0 1.104.164 1.464.492.368.328.552.824.552 1.488V127h-1.056v-4.26c0-.424-.112-.72-.336-.888-.216-.176-.512-.264-.888-.264Z"/>
    <rect width="138" height="42" x="372" y="95" fill="#fff" stroke="#5282FF" stroke-width="2" rx="7"/>
    <path fill="#18123D" d="M428.698 120.12c-1.04 0-1.836-.284-2.388-.852-.544-.576-.816-1.372-.816-2.388 0-.68.128-1.26.384-1.74s.608-.848 1.056-1.104a2.993 2.993 0 0 1 1.512-.384c.952 0 1.652.316 2.1.948.448.624.592 1.48.432 2.568h-4.392c.088 1.336.824 2.004 2.208 2.004.76 0 1.46-.216 2.1-.648v.948c-.288.2-.624.36-1.008.48-.384.112-.78.168-1.188.168Zm-.276-5.532c-.456 0-.848.14-1.176.42-.328.28-.536.704-.624 1.272h3.348c.024-.536-.1-.952-.372-1.248-.272-.296-.664-.444-1.176-.444Zm3.436 2.292c0-.728.128-1.328.384-1.8.256-.48.596-.836 1.02-1.068.432-.24.9-.36 1.404-.36.472 0 .88.1 1.224.3.344.192.62.468.828.828v-3.384h1.055V120h-.923l-.084-1.224a2.46 2.46 0 0 1-.816.984c-.344.24-.776.36-1.296.36-.496 0-.96-.116-1.392-.348-.424-.24-.764-.6-1.02-1.08-.256-.48-.384-1.084-.384-1.812Zm4.872 0c0-.776-.184-1.352-.552-1.728a1.838 1.838 0 0 0-1.368-.564c-.544 0-.992.196-1.344.588-.352.384-.528.952-.528 1.704 0 .76.176 1.332.528 1.716.352.384.8.576 1.344.576s1-.188 1.368-.564c.368-.376.552-.952.552-1.728Zm3.307-4.02c-.216 0-.388-.064-.516-.192a.692.692 0 0 1-.192-.492.675.675 0 0 1 .708-.696c.208 0 .372.068.492.204.12.136.18.3.18.492s-.06.356-.18.492c-.12.128-.284.192-.492.192Zm-.54.912h1.056V120h-1.056v-6.228Zm2.273.9v-.9h.744v-1.308h1.056v1.308h1.812v.9h-1.812v3.744c0 .264.068.456.204.576.136.12.368.18.696.18.312 0 .596-.088.852-.264v.96a1.48 1.48 0 0 1-.504.18 2.767 2.767 0 0 1-.624.072c-.4 0-.724-.076-.972-.228a1.36 1.36 0 0 1-.54-.588 1.767 1.767 0 0 1-.168-.756v-3.876h-.744Zm7.338 5.448c-.568 0-1.08-.124-1.536-.372a2.784 2.784 0 0 1-1.068-1.104c-.264-.488-.396-1.076-.396-1.764s.132-1.272.396-1.752.62-.844 1.068-1.092a3.083 3.083 0 0 1 1.536-.384c.576 0 1.092.128 1.548.384a2.68 2.68 0 0 1 1.08 1.092c.264.48.396 1.064.396 1.752s-.132 1.276-.396 1.764a2.76 2.76 0 0 1-1.08 1.104 3.187 3.187 0 0 1-1.548.372Zm0-.948c.56 0 1.024-.184 1.392-.552.368-.376.552-.956.552-1.74s-.184-1.36-.552-1.728c-.368-.376-.832-.564-1.392-.564-.552 0-1.012.188-1.38.564-.36.368-.54.944-.54 1.728s.18 1.364.54 1.74c.368.368.828.552 1.38.552Zm7.395-4.344c-.496.04-.92.164-1.272.372a1.87 1.87 0 0 0-.756.84V120h-1.056v-6.228h.924l.108 1.356h.024c.2-.416.472-.752.816-1.008a2.553 2.553 0 0 1 1.212-.468v1.176Z"/>
    <rect width="138" height="42" x="372" y="11" fill="#fff" stroke="#5282FF" stroke-width="2" rx="7"/>
    <path fill="#18123D" d="M427.083 30.588c-.664 0-1.336.204-2.016.612v-.948a3.804 3.804 0 0 1 1.02-.432 4.142 4.142 0 0 1 1.14-.168c.784 0 1.38.164 1.788.492.408.328.612.828.612 1.5v3.348c0 .136.004.312.012.528.016.208.032.368.048.48h-.96a5.482 5.482 0 0 1-.072-.468 7.173 7.173 0 0 1-.024-.54l-.012-.18a3.359 3.359 0 0 1-.396.6c-.168.2-.392.368-.672.504-.272.136-.612.204-1.02.204-.56 0-1.012-.16-1.356-.48-.344-.32-.516-.772-.516-1.356 0-.68.24-1.18.72-1.5.48-.32 1.156-.48 2.028-.48h1.164v-.516c0-.432-.112-.74-.336-.924-.224-.184-.608-.276-1.152-.276Zm1.488 3.012v-.456h-1.056c-.632 0-1.092.092-1.38.276-.28.184-.42.452-.42.804 0 .28.084.508.252.684.176.176.44.264.792.264.328 0 .608-.064.84-.192.232-.136.42-.296.564-.48.144-.192.248-.372.312-.54.064-.168.096-.288.096-.36Zm2.273-.72c0-.728.128-1.328.384-1.8.256-.48.596-.836 1.02-1.068.432-.24.9-.36 1.404-.36.472 0 .88.1 1.224.3.344.192.62.468.828.828v-3.384h1.056V36h-.924l-.084-1.224a2.46 2.46 0 0 1-.816.984c-.344.24-.776.36-1.296.36-.496 0-.96-.116-1.392-.348-.424-.24-.764-.6-1.02-1.08-.256-.48-.384-1.084-.384-1.812Zm4.872 0c0-.776-.184-1.352-.552-1.728a1.838 1.838 0 0 0-1.368-.564c-.544 0-.992.196-1.344.588-.352.384-.528.952-.528 1.704 0 .76.176 1.332.528 1.716.352.384.8.576 1.344.576s1-.188 1.368-.564c.368-.376.552-.952.552-1.728Zm6.703-1.236c0-.4-.1-.676-.3-.828-.2-.152-.472-.228-.816-.228-.448 0-.804.112-1.068.336-.264.216-.496.5-.696.852V36h-1.056v-6.228h.924l.108 1.116h.024a2.21 2.21 0 0 1 .756-.876c.344-.24.784-.36 1.32-.36.472 0 .864.116 1.176.348.312.224.52.564.624 1.02.176-.424.444-.756.804-.996.368-.248.812-.372 1.332-.372.568 0 1.02.164 1.356.492.344.328.516.824.516 1.488V36h-1.068v-4.236c0-.408-.1-.704-.3-.888-.2-.192-.472-.288-.816-.288-.456 0-.816.132-1.08.396a3.78 3.78 0 0 0-.684.912V36h-1.056v-4.356Zm7.198-2.784c-.216 0-.388-.064-.516-.192a.692.692 0 0 1-.192-.492.675.675 0 0 1 .708-.696c.208 0 .372.068.492.204.12.136.18.3.18.492s-.06.356-.18.492c-.12.128-.284.192-.492.192Zm-.54.912h1.056V36h-1.056v-6.228Zm5.729.816c-.48 0-.872.112-1.176.336a2.455 2.455 0 0 0-.72.84V36h-1.056v-6.228h.996l.036 1.116h.024c.168-.352.432-.644.792-.876.36-.24.816-.36 1.368-.36.616 0 1.104.164 1.464.492.368.328.552.824.552 1.488V36h-1.056v-4.26c0-.424-.112-.72-.336-.888-.216-.176-.512-.264-.888-.264Z"/>
    <path fill="#4E496B" d="m259 222-5.774 10h11.548L259 222Zm-1 9v31h2v-31h-2Zm183-93 5.774 10h-11.548L441 138Zm1 9v31h-2v-31h2Zm-183-9-5.774 10h11.548L259 138Zm-1 9v30h2v-30h-2Z"/>
    <rect width="138" height="42" x="190" y="347" fill="#fff" stroke="#5282FF" stroke-width="2" rx="7"/>
    <path fill="#18123D" d="M222.758 361.88c0-.728.128-1.328.384-1.8.256-.48.596-.836 1.02-1.068.432-.24.9-.36 1.404-.36.472 0 .88.1 1.224.3.344.192.62.468.828.828v-3.384h1.056V365h-.924l-.084-1.224a2.46 2.46 0 0 1-.816.984c-.344.24-.776.36-1.296.36-.496 0-.96-.116-1.392-.348-.424-.24-.764-.6-1.02-1.08-.256-.48-.384-1.084-.384-1.812Zm4.872 0c0-.776-.184-1.352-.552-1.728a1.838 1.838 0 0 0-1.368-.564c-.544 0-.992.196-1.344.588-.352.384-.528.952-.528 1.704 0 .76.176 1.332.528 1.716.352.384.8.576 1.344.576s1-.188 1.368-.564c.368-.376.552-.952.552-1.728Zm4.879-2.292c-.664 0-1.336.204-2.016.612v-.948a3.804 3.804 0 0 1 1.02-.432 4.142 4.142 0 0 1 1.14-.168c.784 0 1.38.164 1.788.492.408.328.612.828.612 1.5v3.348c0 .136.004.312.012.528.016.208.032.368.048.48h-.96a5.482 5.482 0 0 1-.072-.468 7.173 7.173 0 0 1-.024-.54l-.012-.18a3.359 3.359 0 0 1-.396.6c-.168.2-.392.368-.672.504-.272.136-.612.204-1.02.204-.56 0-1.012-.16-1.356-.48-.344-.32-.516-.772-.516-1.356 0-.68.24-1.18.72-1.5.48-.32 1.156-.48 2.028-.48h1.164v-.516c0-.432-.112-.74-.336-.924-.224-.184-.608-.276-1.152-.276Zm1.488 3.012v-.456h-1.056c-.632 0-1.092.092-1.38.276-.28.184-.42.452-.42.804 0 .28.084.508.252.684.176.176.44.264.792.264.328 0 .608-.064.84-.192.232-.136.42-.296.564-.48.144-.192.248-.372.312-.54.064-.168.096-.288.096-.36Zm2.213-2.928v-.9h.744v-1.308h1.056v1.308h1.812v.9h-1.812v3.744c0 .264.068.456.204.576.136.12.368.18.696.18.312 0 .596-.088.852-.264v.96a1.48 1.48 0 0 1-.504.18 2.767 2.767 0 0 1-.624.072c-.4 0-.724-.076-.972-.228a1.36 1.36 0 0 1-.54-.588 1.767 1.767 0 0 1-.168-.756v-3.876h-.744Zm7.069-.084c-.664 0-1.336.204-2.016.612v-.948a3.804 3.804 0 0 1 1.02-.432 4.142 4.142 0 0 1 1.14-.168c.784 0 1.38.164 1.788.492.408.328.612.828.612 1.5v3.348c0 .136.004.312.012.528.016.208.032.368.048.48h-.96a5.482 5.482 0 0 1-.072-.468 7.173 7.173 0 0 1-.024-.54l-.012-.18a3.359 3.359 0 0 1-.396.6c-.168.2-.392.368-.672.504-.272.136-.612.204-1.02.204-.56 0-1.012-.16-1.356-.48-.344-.32-.516-.772-.516-1.356 0-.68.24-1.18.72-1.5.48-.32 1.156-.48 2.028-.48h1.164v-.516c0-.432-.112-.74-.336-.924-.224-.184-.608-.276-1.152-.276Zm1.488 3.012v-.456h-1.056c-.632 0-1.092.092-1.38.276-.28.184-.42.452-.42.804 0 .28.084.508.252.684.176.176.44.264.792.264.328 0 .608-.064.84-.192.232-.136.42-.296.564-.48.144-.192.248-.372.312-.54.064-.168.096-.288.096-.36Zm2.572-.78v-.96h2.88v.96h-2.88Zm3.964-2.148v-.9h.744v-1.308h1.056v1.308h1.812v.9h-1.812v3.744c0 .264.068.456.204.576.136.12.368.18.696.18.312 0 .596-.088.852-.264v.96a1.48 1.48 0 0 1-.504.18 2.767 2.767 0 0 1-.624.072c-.4 0-.724-.076-.972-.228a1.36 1.36 0 0 1-.54-.588 1.767 1.767 0 0 1-.168-.756v-3.876h-.744Zm8.041.156c-.496.04-.92.164-1.272.372a1.87 1.87 0 0 0-.756.84V365h-1.056v-6.228h.924l.108 1.356h.024c.2-.416.472-.752.816-1.008a2.553 2.553 0 0 1 1.212-.468v1.176Zm3.282-.24c-.664 0-1.336.204-2.016.612v-.948a3.804 3.804 0 0 1 1.02-.432 4.142 4.142 0 0 1 1.14-.168c.784 0 1.38.164 1.788.492.408.328.612.828.612 1.5v3.348c0 .136.004.312.012.528.016.208.032.368.048.48h-.96a5.482 5.482 0 0 1-.072-.468 7.173 7.173 0 0 1-.024-.54l-.012-.18a3.359 3.359 0 0 1-.396.6c-.168.2-.392.368-.672.504-.272.136-.612.204-1.02.204-.56 0-1.012-.16-1.356-.48-.344-.32-.516-.772-.516-1.356 0-.68.24-1.18.72-1.5.48-.32 1.156-.48 2.028-.48h1.164v-.516c0-.432-.112-.74-.336-.924-.224-.184-.608-.276-1.152-.276Zm1.488 3.012v-.456h-1.056c-.632 0-1.092.092-1.38.276-.28.184-.42.452-.42.804 0 .28.084.508.252.684.176.176.44.264.792.264.328 0 .608-.064.84-.192.232-.136.42-.296.564-.48.144-.192.248-.372.312-.54.064-.168.096-.288.096-.36Zm5.669-3.012c-.48 0-.872.112-1.176.336a2.455 2.455 0 0 0-.72.84V365h-1.056v-6.228h.996l.036 1.116h.024c.168-.352.432-.644.792-.876.36-.24.816-.36 1.368-.36.616 0 1.104.164 1.464.492.368.328.552.824.552 1.488V365h-1.056v-4.26c0-.424-.112-.72-.336-.888-.216-.176-.512-.264-.888-.264Zm5.942 5.532c-.456 0-.892-.064-1.308-.192-.408-.136-.74-.316-.996-.54v-.948c.248.24.58.432.996.576.424.144.856.216 1.296.216.976 0 1.464-.316 1.464-.948a.698.698 0 0 0-.132-.444c-.08-.12-.232-.22-.456-.3a5.694 5.694 0 0 0-.972-.252c-.808-.16-1.372-.376-1.692-.648-.32-.28-.48-.676-.48-1.188 0-.568.22-1.008.66-1.32.44-.32 1.048-.48 1.824-.48.368 0 .728.04 1.08.12.36.072.652.172.876.3v.948c-.464-.32-1.104-.48-1.92-.48-.504 0-.876.072-1.116.216-.232.144-.348.368-.348.672 0 .16.036.292.108.396.072.104.216.196.432.276.216.08.54.164.972.252.552.112.988.248 1.308.408.328.152.56.348.696.588.144.24.216.544.216.912 0 .584-.22 1.04-.66 1.368-.44.328-1.056.492-1.848.492Zm4.181-.12v-5.328h-.756v-.9h.756v-.156c0-.736.196-1.308.588-1.716.392-.408.928-.612 1.608-.612.304 0 .568.036.792.108v.96a1.406 1.406 0 0 0-.312-.084 2.484 2.484 0 0 0-.432-.036c-.368 0-.66.112-.876.336-.208.224-.312.572-.312 1.044v.156h1.8v.9h-1.8V365h-1.056Zm6.489.12c-1.04 0-1.836-.284-2.388-.852-.544-.576-.816-1.372-.816-2.388 0-.68.128-1.26.384-1.74s.608-.848 1.056-1.104a2.993 2.993 0 0 1 1.512-.384c.952 0 1.652.316 2.1.948.448.624.592 1.48.432 2.568h-4.392c.088 1.336.824 2.004 2.208 2.004.76 0 1.46-.216 2.1-.648v.948c-.288.2-.624.36-1.008.48-.384.112-.78.168-1.188.168Zm-.276-5.532c-.456 0-.848.14-1.176.42-.328.28-.536.704-.624 1.272h3.348c.024-.536-.1-.952-.372-1.248-.272-.296-.664-.444-1.176-.444Zm6.964.24c-.496.04-.92.164-1.272.372a1.87 1.87 0 0 0-.756.84V365h-1.056v-6.228h.924l.108 1.356h.024c.2-.416.472-.752.816-1.008a2.553 2.553 0 0 1 1.212-.468v1.176Zm1.148 5.244a.789.789 0 0 1-.564-.216.759.759 0 0 1-.216-.54c0-.224.072-.408.216-.552a.789.789 0 0 1 .564-.216c.224 0 .408.072.552.216a.748.748 0 0 1 .216.552.759.759 0 0 1-.216.54.748.748 0 0 1-.552.216Zm-51.55 8.516c-.664 0-1.336.204-2.016.612v-.948a3.804 3.804 0 0 1 1.02-.432 4.142 4.142 0 0 1 1.14-.168c.784 0 1.38.164 1.788.492.408.328.612.828.612 1.5v3.348c0 .136.004.312.012.528.016.208.032.368.048.48h-.96a5.482 5.482 0 0 1-.072-.468 7.173 7.173 0 0 1-.024-.54l-.012-.18a3.359 3.359 0 0 1-.396.6c-.168.2-.392.368-.672.504-.272.136-.612.204-1.02.204-.56 0-1.012-.16-1.356-.48-.344-.32-.516-.772-.516-1.356 0-.68.24-1.18.72-1.5.48-.32 1.156-.48 2.028-.48h1.164v-.516c0-.432-.112-.74-.336-.924-.224-.184-.608-.276-1.152-.276Zm1.488 3.012v-.456h-1.056c-.632 0-1.092.092-1.38.276-.28.184-.42.452-.42.804 0 .28.084.508.252.684.176.176.44.264.792.264.328 0 .608-.064.84-.192.232-.136.42-.296.564-.48.144-.192.248-.372.312-.54.064-.168.096-.288.096-.36Zm6.712 1.284a2.257 2.257 0 0 1-.78.876c-.344.24-.796.36-1.356.36-.576 0-1.044-.164-1.404-.492-.352-.328-.528-.828-.528-1.5v-4.356h1.068v4.356c0 .408.112.684.336.828.224.144.5.216.828.216.464 0 .836-.104 1.116-.312.28-.208.52-.492.72-.852v-4.236h1.056V379h-.936l-.096-1.116h-.024Zm2.346-2.004c0-.728.128-1.328.384-1.8.256-.48.596-.836 1.02-1.068.432-.24.9-.36 1.404-.36.472 0 .88.1 1.224.3.344.192.62.468.828.828v-3.384h1.056V379h-.924l-.084-1.224a2.46 2.46 0 0 1-.816.984c-.344.24-.776.36-1.296.36-.496 0-.96-.116-1.392-.348-.424-.24-.764-.6-1.02-1.08-.256-.48-.384-1.084-.384-1.812Zm4.872 0c0-.776-.184-1.352-.552-1.728a1.838 1.838 0 0 0-1.368-.564c-.544 0-.992.196-1.344.588-.352.384-.528.952-.528 1.704 0 .76.176 1.332.528 1.716.352.384.8.576 1.344.576s1-.188 1.368-.564c.368-.376.552-.952.552-1.728Zm3.307-4.02c-.216 0-.388-.064-.516-.192a.692.692 0 0 1-.192-.492.675.675 0 0 1 .708-.696c.208 0 .372.068.492.204.12.136.18.3.18.492s-.06.356-.18.492c-.12.128-.284.192-.492.192Zm-.54.912h1.056V379h-1.056v-6.228Zm2.273.9v-.9h.744v-1.308h1.056v1.308h1.812v.9h-1.812v3.744c0 .264.068.456.204.576.136.12.368.18.696.18.312 0 .596-.088.852-.264v.96a1.48 1.48 0 0 1-.504.18 2.767 2.767 0 0 1-.624.072c-.4 0-.724-.076-.972-.228a1.36 1.36 0 0 1-.54-.588 1.767 1.767 0 0 1-.168-.756v-3.876h-.744Zm7.338 5.448c-.568 0-1.08-.124-1.536-.372a2.784 2.784 0 0 1-1.068-1.104c-.264-.488-.396-1.076-.396-1.764s.132-1.272.396-1.752.62-.844 1.068-1.092a3.083 3.083 0 0 1 1.536-.384c.576 0 1.092.128 1.548.384a2.68 2.68 0 0 1 1.08 1.092c.264.48.396 1.064.396 1.752s-.132 1.276-.396 1.764a2.76 2.76 0 0 1-1.08 1.104 3.187 3.187 0 0 1-1.548.372Zm0-.948c.56 0 1.024-.184 1.392-.552.368-.376.552-.956.552-1.74s-.184-1.36-.552-1.728c-.368-.376-.832-.564-1.392-.564-.552 0-1.012.188-1.38.564-.36.368-.54.944-.54 1.728s.18 1.364.54 1.74c.368.368.828.552 1.38.552Zm7.395-4.344c-.496.04-.92.164-1.272.372a1.87 1.87 0 0 0-.756.84V379h-1.056v-6.228h.924l.108 1.356h.024c.2-.416.472-.752.816-1.008a2.553 2.553 0 0 1 1.212-.468v1.176Z"/>
    <path fill="#4E496B" d="m259 306-5.774 10h11.548L259 306Zm-1 9v31h2v-31h-2Z"/>
    <rect width="138" height="42" x="372" y="179" fill="#fff" stroke="#5282FF" stroke-width="2" rx="7"/>
    <path fill="#18123D" d="M423.425 197.772h1.14l1.896 5.664 1.884-5.664h1.056L427.265 204h-1.704l-2.136-6.228Zm7.495-.912c-.216 0-.388-.064-.516-.192a.692.692 0 0 1-.192-.492.675.675 0 0 1 .708-.696c.208 0 .372.068.492.204.12.136.18.3.18.492s-.06.356-.18.492c-.12.128-.284.192-.492.192Zm-.54.912h1.056V204h-1.056v-6.228Zm5.537 6.348c-1.04 0-1.836-.284-2.388-.852-.544-.576-.816-1.372-.816-2.388 0-.68.128-1.26.384-1.74s.608-.848 1.056-1.104a2.993 2.993 0 0 1 1.512-.384c.952 0 1.652.316 2.1.948.448.624.592 1.48.432 2.568h-4.392c.088 1.336.824 2.004 2.208 2.004.76 0 1.46-.216 2.1-.648v.948c-.288.2-.624.36-1.008.48-.384.112-.78.168-1.188.168Zm-.276-5.532c-.456 0-.848.14-1.176.42-.328.28-.536.704-.624 1.272h3.348c.024-.536-.1-.952-.372-1.248-.272-.296-.664-.444-1.176-.444Zm12.075-.816L446.3 204h-1.62l-1.32-4.812-1.356 4.812h-1.572l-1.416-6.228h1.116l1.188 5.436 1.512-5.436h1.188l1.476 5.376 1.176-5.376h1.044Zm3.869 6.348c-1.04 0-1.836-.284-2.388-.852-.544-.576-.816-1.372-.816-2.388 0-.68.128-1.26.384-1.74s.608-.848 1.056-1.104a2.993 2.993 0 0 1 1.512-.384c.952 0 1.652.316 2.1.948.448.624.592 1.48.432 2.568h-4.392c.088 1.336.824 2.004 2.208 2.004.76 0 1.46-.216 2.1-.648v.948c-.288.2-.624.36-1.008.48-.384.112-.78.168-1.188.168Zm-.276-5.532c-.456 0-.848.14-1.176.42-.328.28-.536.704-.624 1.272h3.348c.024-.536-.1-.952-.372-1.248-.272-.296-.664-.444-1.176-.444Zm6.963.24c-.496.04-.92.164-1.272.372a1.87 1.87 0 0 0-.756.84V204h-1.056v-6.228h.924l.108 1.356h.024c.2-.416.472-.752.816-1.008a2.553 2.553 0 0 1 1.212-.468v1.176Z"/>
    <rect width="138" height="42" x="190" y="263" fill="#fff" stroke="#5282FF" stroke-width="2" rx="7"/>
    <path fill="#18123D" d="M222.758 277.88c0-.728.128-1.328.384-1.8.256-.48.596-.836 1.02-1.068.432-.24.9-.36 1.404-.36.472 0 .88.1 1.224.3.344.192.62.468.828.828v-3.384h1.056V281h-.924l-.084-1.224a2.46 2.46 0 0 1-.816.984c-.344.24-.776.36-1.296.36-.496 0-.96-.116-1.392-.348-.424-.24-.764-.6-1.02-1.08-.256-.48-.384-1.084-.384-1.812Zm4.872 0c0-.776-.184-1.352-.552-1.728a1.838 1.838 0 0 0-1.368-.564c-.544 0-.992.196-1.344.588-.352.384-.528.952-.528 1.704 0 .76.176 1.332.528 1.716.352.384.8.576 1.344.576s1-.188 1.368-.564c.368-.376.552-.952.552-1.728Zm4.879-2.292c-.664 0-1.336.204-2.016.612v-.948a3.804 3.804 0 0 1 1.02-.432 4.142 4.142 0 0 1 1.14-.168c.784 0 1.38.164 1.788.492.408.328.612.828.612 1.5v3.348c0 .136.004.312.012.528.016.208.032.368.048.48h-.96a5.482 5.482 0 0 1-.072-.468 7.173 7.173 0 0 1-.024-.54l-.012-.18a3.359 3.359 0 0 1-.396.6c-.168.2-.392.368-.672.504-.272.136-.612.204-1.02.204-.56 0-1.012-.16-1.356-.48-.344-.32-.516-.772-.516-1.356 0-.68.24-1.18.72-1.5.48-.32 1.156-.48 2.028-.48h1.164v-.516c0-.432-.112-.74-.336-.924-.224-.184-.608-.276-1.152-.276Zm1.488 3.012v-.456h-1.056c-.632 0-1.092.092-1.38.276-.28.184-.42.452-.42.804 0 .28.084.508.252.684.176.176.44.264.792.264.328 0 .608-.064.84-.192.232-.136.42-.296.564-.48.144-.192.248-.372.312-.54.064-.168.096-.288.096-.36Zm2.213-2.928v-.9h.744v-1.308h1.056v1.308h1.812v.9h-1.812v3.744c0 .264.068.456.204.576.136.12.368.18.696.18.312 0 .596-.088.852-.264v.96a1.48 1.48 0 0 1-.504.18 2.767 2.767 0 0 1-.624.072c-.4 0-.724-.076-.972-.228a1.36 1.36 0 0 1-.54-.588 1.767 1.767 0 0 1-.168-.756v-3.876h-.744Zm7.069-.084c-.664 0-1.336.204-2.016.612v-.948a3.804 3.804 0 0 1 1.02-.432 4.142 4.142 0 0 1 1.14-.168c.784 0 1.38.164 1.788.492.408.328.612.828.612 1.5v3.348c0 .136.004.312.012.528.016.208.032.368.048.48h-.96a5.482 5.482 0 0 1-.072-.468 7.173 7.173 0 0 1-.024-.54l-.012-.18a3.359 3.359 0 0 1-.396.6c-.168.2-.392.368-.672.504-.272.136-.612.204-1.02.204-.56 0-1.012-.16-1.356-.48-.344-.32-.516-.772-.516-1.356 0-.68.24-1.18.72-1.5.48-.32 1.156-.48 2.028-.48h1.164v-.516c0-.432-.112-.74-.336-.924-.224-.184-.608-.276-1.152-.276Zm1.488 3.012v-.456h-1.056c-.632 0-1.092.092-1.38.276-.28.184-.42.452-.42.804 0 .28.084.508.252.684.176.176.44.264.792.264.328 0 .608-.064.84-.192.232-.136.42-.296.564-.48.144-.192.248-.372.312-.54.064-.168.096-.288.096-.36Zm2.572-.78v-.96h2.88v.96h-2.88Zm3.964-2.148v-.9h.744v-1.308h1.056v1.308h1.812v.9h-1.812v3.744c0 .264.068.456.204.576.136.12.368.18.696.18.312 0 .596-.088.852-.264v.96a1.48 1.48 0 0 1-.504.18 2.767 2.767 0 0 1-.624.072c-.4 0-.724-.076-.972-.228a1.36 1.36 0 0 1-.54-.588 1.767 1.767 0 0 1-.168-.756v-3.876h-.744Zm8.041.156c-.496.04-.92.164-1.272.372a1.87 1.87 0 0 0-.756.84V281h-1.056v-6.228h.924l.108 1.356h.024c.2-.416.472-.752.816-1.008a2.553 2.553 0 0 1 1.212-.468v1.176Zm3.282-.24c-.664 0-1.336.204-2.016.612v-.948a3.804 3.804 0 0 1 1.02-.432 4.142 4.142 0 0 1 1.14-.168c.784 0 1.38.164 1.788.492.408.328.612.828.612 1.5v3.348c0 .136.004.312.012.528.016.208.032.368.048.48h-.96a5.482 5.482 0 0 1-.072-.468 7.173 7.173 0 0 1-.024-.54l-.012-.18a3.359 3.359 0 0 1-.396.6c-.168.2-.392.368-.672.504-.272.136-.612.204-1.02.204-.56 0-1.012-.16-1.356-.48-.344-.32-.516-.772-.516-1.356 0-.68.24-1.18.72-1.5.48-.32 1.156-.48 2.028-.48h1.164v-.516c0-.432-.112-.74-.336-.924-.224-.184-.608-.276-1.152-.276Zm1.488 3.012v-.456h-1.056c-.632 0-1.092.092-1.38.276-.28.184-.42.452-.42.804 0 .28.084.508.252.684.176.176.44.264.792.264.328 0 .608-.064.84-.192.232-.136.42-.296.564-.48.144-.192.248-.372.312-.54.064-.168.096-.288.096-.36Zm5.669-3.012c-.48 0-.872.112-1.176.336a2.455 2.455 0 0 0-.72.84V281h-1.056v-6.228h.996l.036 1.116h.024c.168-.352.432-.644.792-.876.36-.24.816-.36 1.368-.36.616 0 1.104.164 1.464.492.368.328.552.824.552 1.488V281h-1.056v-4.26c0-.424-.112-.72-.336-.888-.216-.176-.512-.264-.888-.264Zm5.942 5.532c-.456 0-.892-.064-1.308-.192-.408-.136-.74-.316-.996-.54v-.948c.248.24.58.432.996.576.424.144.856.216 1.296.216.976 0 1.464-.316 1.464-.948a.698.698 0 0 0-.132-.444c-.08-.12-.232-.22-.456-.3a5.694 5.694 0 0 0-.972-.252c-.808-.16-1.372-.376-1.692-.648-.32-.28-.48-.676-.48-1.188 0-.568.22-1.008.66-1.32.44-.32 1.048-.48 1.824-.48.368 0 .728.04 1.08.12.36.072.652.172.876.3v.948c-.464-.32-1.104-.48-1.92-.48-.504 0-.876.072-1.116.216-.232.144-.348.368-.348.672 0 .16.036.292.108.396.072.104.216.196.432.276.216.08.54.164.972.252.552.112.988.248 1.308.408.328.152.56.348.696.588.144.24.216.544.216.912 0 .584-.22 1.04-.66 1.368-.44.328-1.056.492-1.848.492Zm4.181-.12v-5.328h-.756v-.9h.756v-.156c0-.736.196-1.308.588-1.716.392-.408.928-.612 1.608-.612.304 0 .568.036.792.108v.96a1.406 1.406 0 0 0-.312-.084 2.484 2.484 0 0 0-.432-.036c-.368 0-.66.112-.876.336-.208.224-.312.572-.312 1.044v.156h1.8v.9h-1.8V281h-1.056Zm6.489.12c-1.04 0-1.836-.284-2.388-.852-.544-.576-.816-1.372-.816-2.388 0-.68.128-1.26.384-1.74s.608-.848 1.056-1.104a2.993 2.993 0 0 1 1.512-.384c.952 0 1.652.316 2.1.948.448.624.592 1.48.432 2.568h-4.392c.088 1.336.824 2.004 2.208 2.004.76 0 1.46-.216 2.1-.648v.948c-.288.2-.624.36-1.008.48-.384.112-.78.168-1.188.168Zm-.276-5.532c-.456 0-.848.14-1.176.42-.328.28-.536.704-.624 1.272h3.348c.024-.536-.1-.952-.372-1.248-.272-.296-.664-.444-1.176-.444Zm6.964.24c-.496.04-.92.164-1.272.372a1.87 1.87 0 0 0-.756.84V281h-1.056v-6.228h.924l.108 1.356h.024c.2-.416.472-.752.816-1.008a2.553 2.553 0 0 1 1.212-.468v1.176Zm1.148 5.244a.789.789 0 0 1-.564-.216.759.759 0 0 1-.216-.54c0-.224.072-.408.216-.552a.789.789 0 0 1 .564-.216c.224 0 .408.072.552.216a.748.748 0 0 1 .216.552.759.759 0 0 1-.216.54.748.748 0 0 1-.552.216Zm-52.806 7.7h1.14l1.896 5.664 1.884-5.664h1.056L245.265 295h-1.704l-2.136-6.228Zm7.495-.912c-.216 0-.388-.064-.516-.192a.692.692 0 0 1-.192-.492.675.675 0 0 1 .708-.696c.208 0 .372.068.492.204.12.136.18.3.18.492s-.06.356-.18.492c-.12.128-.284.192-.492.192Zm-.54.912h1.056V295h-1.056v-6.228Zm5.537 6.348c-1.04 0-1.836-.284-2.388-.852-.544-.576-.816-1.372-.816-2.388 0-.68.128-1.26.384-1.74s.608-.848 1.056-1.104a2.993 2.993 0 0 1 1.512-.384c.952 0 1.652.316 2.1.948.448.624.592 1.48.432 2.568h-4.392c.088 1.336.824 2.004 2.208 2.004.76 0 1.46-.216 2.1-.648v.948c-.288.2-.624.36-1.008.48-.384.112-.78.168-1.188.168Zm-.276-5.532c-.456 0-.848.14-1.176.42-.328.28-.536.704-.624 1.272h3.348c.024-.536-.1-.952-.372-1.248-.272-.296-.664-.444-1.176-.444Zm12.075-.816L264.3 295h-1.62l-1.32-4.812-1.356 4.812h-1.572l-1.416-6.228h1.116l1.188 5.436 1.512-5.436h1.188l1.476 5.376 1.176-5.376h1.044Zm3.869 6.348c-1.04 0-1.836-.284-2.388-.852-.544-.576-.816-1.372-.816-2.388 0-.68.128-1.26.384-1.74s.608-.848 1.056-1.104a2.993 2.993 0 0 1 1.512-.384c.952 0 1.652.316 2.1.948.448.624.592 1.48.432 2.568h-4.392c.088 1.336.824 2.004 2.208 2.004.76 0 1.46-.216 2.1-.648v.948c-.288.2-.624.36-1.008.48-.384.112-.78.168-1.188.168Zm-.276-5.532c-.456 0-.848.14-1.176.42-.328.28-.536.704-.624 1.272h3.348c.024-.536-.1-.952-.372-1.248-.272-.296-.664-.444-1.176-.444Zm6.963.24c-.496.04-.92.164-1.272.372a1.87 1.87 0 0 0-.756.84V295h-1.056v-6.228h.924l.108 1.356h.024c.2-.416.472-.752.816-1.008a2.553 2.553 0 0 1 1.212-.468v1.176Z"/>
    <path fill="#4E496B" d="m441 54 5.774 10h-11.548L441 54Zm1 9v31h-2V63h2Zm-1 159-5.774 10h11.548L441 222Zm-174 20v-1 1Zm173-11v3.007h2V231h-2Zm-7 10H267v2h166v-2Zm-175 9v12h2v-12h-2Zm9-9a9 9 0 0 0-9 9h2a7 7 0 0 1 7-7v-2Zm173-6.993a6.994 6.994 0 0 1-7 6.993v2c4.969 0 9-4.021 9-8.993h-2Z"/>
    <path stroke="#4E496B" stroke-width="2" d="M441 146v5.521c0 4.418-3.582 6.787-8 6.787H267a8 8 0 0 0-8 8V178M441 61v5.95c0 4.419-3.582 6.742-8 6.742H267a8 8 0 0 0-8 8V94"/>
</svg>
