<svg version="1.1" id="Layer_1" xmlns="http://www.w3.org/2000/svg" xmlns:xlink="http://www.w3.org/1999/xlink" x="0px" y="0px" width="70px" height="70px" viewBox="0 0 70 70" xml:space="preserve" enable-background="new 0 0 70 70">
  <style type="text/css">
	.Drop_x0020_Shadow{fill:none;}
	.Outer_x0020_Glow_x0020_5_x0020_pt{fill:none;}
	.Blue_x0020_Neon{fill:none;stroke:#8AACDA;stroke-width:7;stroke-linecap:round;stroke-linejoin:round;}
	.Chrome_x0020_Highlight{fill:url(#SVGID_1_);stroke:#FFFFFF;stroke-width:0.3629;stroke-miterlimit:1;}
	.Jive_GS{fill:#FFDD00;}
	.Alyssa_GS{fill:#A6D0E4;}
	.st0{clip-path:url(#XMLID_25_);fill:#338EF5;}
	.st1{clip-path:url(#XMLID_28_);fill:#FFFFFF;}
	.st2{clip-path:url(#XMLID_30_);}
	.st3{clip-path:url(#XMLID_32_);enable-background:new;}
	.st4{clip-path:url(#XMLID_33_);}
	.st5{clip-path:url(#XMLID_35_);}
	.st6{clip-path:url(#XMLID_38_);fill:#BCB7A5;}
	.st7{clip-path:url(#XMLID_40_);enable-background:new;}
	.st8{clip-path:url(#XMLID_42_);}
	.st9{clip-path:url(#XMLID_43_);}
	.st10{clip-path:url(#XMLID_45_);fill:#BCB7A5;}
	.st11{clip-path:url(#XMLID_48_);enable-background:new;}
	.st12{clip-path:url(#XMLID_50_);}
	.st13{clip-path:url(#XMLID_52_);}
	.st14{clip-path:url(#XMLID_53_);fill:#BCB7A5;}
  </style>
  <linearGradient id="SVGID_1_" gradientUnits="userSpaceOnUse" x1="0" y1="0" x2="4.489659e-11" y2="-1">
    <stop offset="0" stop-color="#656565"/>
    <stop offset="0.618" stop-color="#1B1B1B"/>
    <stop offset="0.6292" stop-color="#545454"/>
    <stop offset="0.9831" stop-color="#3E3E3E"/>
  </linearGradient>
  <g id="XMLID_62_">
    <defs>
      <rect id="XMLID_21_" x="7.8" y="9.4" width="54.9" height="60.6"/>
    </defs>
    <clipPath id="XMLID_25_">
      <use xlink:href="#XMLID_21_" overflow="visible"/>
    </clipPath>
    <rect id="XMLID_22_" x="5.9" y="7.6" class="st0" width="58.7" height="64.3"/>
  </g>
  <g id="XMLID_59_">
    <defs>
      <path id="XMLID_19_" d="M11.9 61.3h41.9c0 0 1.4-11.3 1.8-20.1 0.7-13.9 0.5-25.3 0.5-25.3H14.1c0 0 0.3 11.6-0.4 25.7C13.2 50.2 11.9 61.3 11.9 61.3z"/>
    </defs>
    <clipPath id="XMLID_28_">
      <use xlink:href="#XMLID_19_" overflow="visible"/>
    </clipPath>
    <rect id="XMLID_20_" x="10" y="14" class="st1" width="48.1" height="49.2"/>
  </g>
  <g id="XMLID_54_">
    <defs>
      <path id="XMLID_55_" d="M32.8 6.5c0 1.5 1.2 2.8 2.7 2.8 1.5 0 2.7-1.2 2.7-2.8 0-1.5-1.2-2.8-2.7-2.8C34.1 3.7 32.8 5 32.8 6.5zM28.8 15.9V6.8c0-3.7 3-6.8 6.7-6.8 3.7 0 6.7 3 6.7 6.8v9.1h7.8v7.6H21v-7.6H28.8z"/>
    </defs>
    <clipPath id="XMLID_30_">
      <use xlink:href="#XMLID_55_" overflow="visible"/>
    </clipPath>
    <rect id="XMLID_18_" x="19.1" y="-1.9" class="st2" width="32.9" height="27.2"/>
  </g>
  <g id="XMLID_44_">
    <defs>
      <path id="XMLID_11_" d="M19.3 56.7h28.4c0 0 1.3-9.2 1.7-16.3 0.5-11.3 0.7-20.6 0.7-20.6H20.8c0 0 0.2 9.4-0.3 20.9C20.2 47.6 19.3 56.7 19.3 56.7z"/>
    </defs>
    <clipPath id="XMLID_32_">
      <use xlink:href="#XMLID_11_" overflow="visible"/>
    </clipPath>
    <g id="XMLID_46_" class="st3">
      <g id="XMLID_47_">
        <defs>
          <rect id="XMLID_12_" x="20.4" y="31" width="30.3" height="5.3"/>
        </defs>
        <clipPath id="XMLID_33_">
          <use xlink:href="#XMLID_12_" overflow="visible"/>
        </clipPath>
        <g id="XMLID_49_" class="st4">
          <defs>
            <rect id="XMLID_13_" x="20.6" y="31.2" width="29.8" height="5"/>
          </defs>
          <clipPath id="XMLID_35_">
            <use xlink:href="#XMLID_13_" overflow="visible"/>
          </clipPath>
          <g id="XMLID_51_" class="st5">
            <defs>
              <rect id="XMLID_14_" x="19.3" y="19.7" width="31" height="37.1"/>
            </defs>
            <clipPath id="XMLID_38_">
              <use xlink:href="#XMLID_14_" overflow="visible"/>
            </clipPath>
            <rect id="XMLID_15_" x="18.7" y="29.4" class="st6" width="33.6" height="8.8"/>
          </g>
        </g>
      </g>
    </g>
  </g>
  <g id="XMLID_34_">
    <defs>
      <path id="XMLID_6_" d="M19.3 56.7h28.4c0 0 1.3-9.2 1.7-16.3 0.5-11.3 0.7-20.6 0.7-20.6H20.8c0 0 0.2 9.4-0.3 20.9C20.2 47.6 19.3 56.7 19.3 56.7z"/>
    </defs>
    <clipPath id="XMLID_40_">
      <use xlink:href="#XMLID_6_" overflow="visible"/>
    </clipPath>
    <g id="XMLID_36_" class="st7">
      <g id="XMLID_37_">
        <defs>
          <rect id="XMLID_7_" x="19.3" y="39.3" width="31.4" height="5.7"/>
        </defs>
        <clipPath id="XMLID_42_">
          <use xlink:href="#XMLID_7_" overflow="visible"/>
        </clipPath>
        <g id="XMLID_39_" class="st8">
          <defs>
            <polygon id="XMLID_8_" points="19.8 39.7 50.4 39.7 50 44.7 19.5 44.7 "/>
          </defs>
          <clipPath id="XMLID_43_">
            <use xlink:href="#XMLID_8_" overflow="visible"/>
          </clipPath>
          <g id="XMLID_41_" class="st9">
            <defs>
              <rect id="XMLID_9_" x="19.3" y="19.7" width="31" height="37.1"/>
            </defs>
            <clipPath id="XMLID_45_">
              <use xlink:href="#XMLID_9_" overflow="visible"/>
            </clipPath>
            <rect id="XMLID_10_" x="17.6" y="37.8" class="st10" width="34.6" height="8.8"/>
          </g>
        </g>
      </g>
    </g>
  </g>
  <g id="XMLID_24_">
    <defs>
      <path id="XMLID_1_" d="M19.3 56.7h28.4c0 0 1.3-9.2 1.7-16.3 0.5-11.3 0.7-20.6 0.7-20.6H20.8c0 0 0.2 9.4-0.3 20.9C20.2 47.6 19.3 56.7 19.3 56.7z"/>
    </defs>
    <clipPath id="XMLID_48_">
      <use xlink:href="#XMLID_1_" overflow="visible"/>
    </clipPath>
    <g id="XMLID_26_" class="st11">
      <g id="XMLID_27_">
        <defs>
          <rect id="XMLID_2_" x="18.9" y="48" width="16.7" height="5.3"/>
        </defs>
        <clipPath id="XMLID_50_">
          <use xlink:href="#XMLID_2_" overflow="visible"/>
        </clipPath>
        <g id="XMLID_29_" class="st12">
          <defs>
            <polygon id="XMLID_3_" points="19.5 48.1 35.3 48.1 34.8 53.1 19 53.1 "/>
          </defs>
          <clipPath id="XMLID_52_">
            <use xlink:href="#XMLID_3_" overflow="visible"/>
          </clipPath>
          <g id="XMLID_31_" class="st13">
            <defs>
              <rect id="XMLID_4_" x="19.3" y="19.7" width="31" height="37.1"/>
            </defs>
            <clipPath id="XMLID_53_">
              <use xlink:href="#XMLID_4_" overflow="visible"/>
            </clipPath>
            <rect id="XMLID_5_" x="17.1" y="46.2" class="st14" width="20.1" height="8.8"/>
          </g>
        </g>
      </g>
    </g>
  </g>
</svg>