<svg width="20" height="20" viewBox="0 0 20 20" fill="none" xmlns="http://www.w3.org/2000/svg">
<path d="M10 20C15.523 20 20 15.523 20 10C20 4.477 15.523 0 10 0C4.477 0 0 4.477 0 10C0 15.523 4.477 20 10 20Z" fill="#FFDB4D"/>
<path fill-rule="evenodd" clip-rule="evenodd" d="M10.0713 12.7861C10.6629 12.7862 11.1425 13.2658 11.1426 13.8574C11.1426 14.4491 10.663 14.9287 10.0713 14.9287C9.47956 14.9287 9 14.4492 9 13.8574C9.00008 13.2658 9.4796 12.7861 10.0713 12.7861ZM10.0713 5C10.6234 5 11.0711 5.44791 11.0713 6V10.2861C11.0711 10.8382 10.6234 11.2861 10.0713 11.2861C9.51914 11.2861 9.07152 10.8382 9.07129 10.2861V6C9.07152 5.44791 9.51914 5 10.0713 5Z" fill="white"/>
</svg>
