<svg xmlns="http://www.w3.org/2000/svg" width="78" height="20" fill="none"><rect width="78" height="20" fill="#6B8499" fill-opacity=".12" rx="4"/><path fill="#3B6080" fill-rule="evenodd" d="M10.905 3.085a7.047 7.047 0 0 1 2.19 0 .75.75 0 1 1-.233 1.482 5.547 5.547 0 0 0-1.724 0 .75.75 0 0 1-.232-1.482ZM8.934 4.502a.75.75 0 0 1-.166 1.048c-.466.34-.878.75-1.217 1.217a.75.75 0 0 1-1.213-.882 7.036 7.036 0 0 1 1.548-1.548.75.75 0 0 1 1.048.165Zm6.135 0a.75.75 0 0 1 1.047-.165 7.037 7.037 0 0 1 1.548 1.548.75.75 0 0 1-1.213.882 5.533 5.533 0 0 0-1.217-1.217.75.75 0 0 1-.165-1.048Zm-9.125 3.78a.75.75 0 0 1 .624.856 5.546 5.546 0 0 0 0 1.724.75.75 0 0 1-1.482.232 7.047 7.047 0 0 1 0-2.188.75.75 0 0 1 .858-.625Zm12.115 0a.75.75 0 0 1 .857.624 7.048 7.048 0 0 1 0 2.188.75.75 0 1 1-1.482-.232 5.54 5.54 0 0 0 0-1.724.75.75 0 0 1 .625-.857ZM6.502 13.067a.75.75 0 0 1 1.048.165c.34.466.75.878 1.217 1.217a.75.75 0 0 1-.882 1.213 7.037 7.037 0 0 1-1.548-1.548.75.75 0 0 1 .165-1.047Zm10.996 0a.75.75 0 0 1 .165 1.047 7.037 7.037 0 0 1-1.548 1.548.75.75 0 0 1-.882-1.213 5.53 5.53 0 0 0 1.217-1.217.75.75 0 0 1 1.048-.165Zm-7.217 2.99a.75.75 0 0 1 .857-.625 5.54 5.54 0 0 0 1.724 0 .75.75 0 0 1 .232 1.482 7.048 7.048 0 0 1-2.188 0 .75.75 0 0 1-.625-.857Z" clip-rule="evenodd"/><path fill="#3B6080" d="M29.058 14.13a4.888 4.888 0 0 1-1.755-.312 4.047 4.047 0 0 1-1.417-.936 4.434 4.434 0 0 1-.949-1.508c-.225-.598-.338-1.287-.338-2.067 0-.78.113-1.465.338-2.054.234-.598.55-1.092.95-1.482a3.838 3.838 0 0 1 1.416-.897 4.888 4.888 0 0 1 1.755-.312c.633 0 1.222.104 1.768.312.546.2 1.019.498 1.417.897.399.399.71.897.936 1.495.226.59.338 1.274.338 2.054 0 .771-.112 1.456-.338 2.054a4.279 4.279 0 0 1-.936 1.508c-.398.407-.87.72-1.417.936a4.925 4.925 0 0 1-1.768.312Zm0-1.105c.45 0 .867-.065 1.248-.195a2.59 2.59 0 0 0 .988-.637c.286-.295.507-.676.663-1.144.165-.468.247-1.036.247-1.703s-.082-1.235-.247-1.703c-.156-.468-.377-.845-.663-1.131a2.401 2.401 0 0 0-.988-.637 3.626 3.626 0 0 0-1.248-.208c-.45 0-.866.07-1.248.208-.381.13-.715.342-1 .637-.278.286-.5.663-.664 1.131-.156.468-.234 1.036-.234 1.703s.078 1.235.234 1.703c.165.468.386.85.663 1.144.286.286.62.498 1.001.637.382.13.798.195 1.248.195Zm8.652-4.797V14h-1.144V8.228h-2.119v-.975h5.421v.975H37.71Zm5.22 2.899h-.598V14h-1.144V7.253h1.144v2.899h.65l2.366-2.899h1.3l-2.769 3.328L46.7 14h-1.39l-2.38-2.873Zm8.367 3.003c-.52 0-.97-.121-1.352-.364a2.647 2.647 0 0 1-.897-1.001v3.536h-1.144V7.253h1.001l.117 1.313c.226-.442.529-.793.91-1.053.382-.26.854-.39 1.417-.39.39 0 .763.074 1.118.221.364.139.68.355.95.65.277.286.493.65.65 1.092.164.433.246.945.246 1.534 0 .598-.082 1.118-.247 1.56a3.262 3.262 0 0 1-.663 1.092 2.78 2.78 0 0 1-.962.65 3.186 3.186 0 0 1-1.144.208Zm-.169-1.027c.598 0 1.08-.204 1.443-.611.373-.416.56-1.04.56-1.872 0-.815-.187-1.43-.56-1.846-.364-.425-.845-.637-1.443-.637a2.22 2.22 0 0 0-.832.156c-.251.104-.472.26-.663.468-.182.2-.33.455-.442.767a3.457 3.457 0 0 0-.156 1.092c0 .416.052.78.156 1.092.113.312.26.572.442.78.19.208.412.364.663.468.26.095.538.143.832.143Zm9.563-1.352c0 .39-.07.728-.208 1.014-.139.286-.333.52-.585.702-.251.182-.55.316-.897.403-.346.087-.723.13-1.13.13h-2.172V7.253h1.144v2.353h1.105c.858 0 1.53.169 2.015.507.486.338.728.884.728 1.638ZM62.811 14h-1.145V7.253h1.144V14Zm-5.968-3.419v2.444h1.027c.494 0 .893-.091 1.196-.273.312-.19.468-.503.468-.936 0-.442-.139-.758-.416-.949-.277-.19-.667-.286-1.17-.286h-1.105Zm10.561-2.353V14H66.26V8.228h-2.119v-.975h5.421v.975h-2.157Z"/></svg>