<svg xmlns="http://www.w3.org/2000/svg" width="176" height="20" fill="none" viewBox="0 0 176 20">
    <rect width="176" height="20" fill="#FFDB4D" fill-opacity=".3" rx="5"/>
    <path fill="#D17700" fill-rule="evenodd" d="M12 15.5a5.5 5.5 0 1 0 0-11 5.5 5.5 0 0 0 0 11Zm0 1.5a7 7 0 1 0 0-14 7 7 0 0 0 0 14Zm1.75-9.75a1 1 0 0 1 1 1v3.5a1 1 0 1 1-2 0v-3.5a1 1 0 0 1 1-1Zm-2.5 1a1 1 0 1 0-2 0v3.5a1 1 0 1 0 2 0v-3.5Z" clip-rule="evenodd"/>
    <path fill="#D17700" d="M28.687 5.81V14h-1.235V5.81h-2.873V4.679h6.981V5.81h-2.873Zm6.813 8.32c-.52 0-.97-.121-1.352-.364a2.647 2.647 0 0 1-.897-1.001v3.536h-1.144V7.253h1.001l.117 1.313c.226-.442.53-.793.91-1.053.382-.26.854-.39 1.417-.39.39 0 .763.074 1.118.221.364.139.68.355.95.65.277.286.493.65.65 1.092.164.433.246.945.246 1.534 0 .598-.082 1.118-.247 1.56a3.262 3.262 0 0 1-.663 1.092 2.78 2.78 0 0 1-.962.65 3.185 3.185 0 0 1-1.144.208Zm-.169-1.027c.598 0 1.08-.204 1.443-.611.373-.416.56-1.04.56-1.872 0-.815-.187-1.43-.56-1.846-.364-.425-.845-.637-1.443-.637a2.22 2.22 0 0 0-.832.156c-.25.104-.472.26-.663.468-.182.2-.329.455-.442.767a3.457 3.457 0 0 0-.156 1.092c0 .416.052.78.156 1.092.113.312.26.572.442.78.191.208.412.364.663.468.26.095.538.143.832.143Zm9.94.325a3.51 3.51 0 0 1-.35.221 4.075 4.075 0 0 1-.508.234c-.199.07-.424.126-.676.169a4.185 4.185 0 0 1-.845.078c-1.135 0-1.997-.308-2.587-.923-.589-.615-.884-1.478-.884-2.587 0-.546.078-1.036.234-1.469.165-.433.39-.797.676-1.092a2.812 2.812 0 0 1 1.014-.689c.39-.165.815-.247 1.274-.247.486 0 .919.082 1.3.247.382.165.694.407.936.728.252.32.42.72.507 1.196.096.468.096 1.014 0 1.638h-4.758c.044.728.26 1.274.65 1.638.39.355.971.533 1.742.533.52 0 .967-.074 1.34-.221a4.69 4.69 0 0 0 .935-.481v1.027Zm-2.678-5.291a1.9 1.9 0 0 0-1.274.455c-.355.303-.58.763-.676 1.378h3.627c.035-.624-.108-1.083-.429-1.378-.32-.303-.736-.455-1.248-.455Zm10.388 2.483c0 .563-.086 1.062-.26 1.495a3.186 3.186 0 0 1-.689 1.105 2.86 2.86 0 0 1-1.027.676 3.536 3.536 0 0 1-1.3.234c-.476 0-.914-.078-1.313-.234a2.719 2.719 0 0 1-1.027-.741c-.286-.33-.51-.745-.676-1.248-.156-.503-.234-1.096-.234-1.781 0-.563.018-1.1.052-1.612.035-.511.113-.984.234-1.417.122-.442.295-.836.52-1.183a2.865 2.865 0 0 1 1.612-1.17 5.1 5.1 0 0 1 .702-.156c.243-.035.486-.056.728-.065l.715-.026c.347-.026.637-.07.871-.13.234-.06.442-.143.624-.247v1.04a2 2 0 0 1-.61.26 8.678 8.678 0 0 1-.768.117c-.494.043-.949.078-1.365.104a2.67 2.67 0 0 0-1.118.286 2.02 2.02 0 0 0-.923 1.092c-.173.477-.281 1.044-.325 1.703.451-1.04 1.3-1.56 2.548-1.56.425 0 .82.078 1.183.234.373.147.694.368.962.663.278.295.494.659.65 1.092.156.425.234.914.234 1.469Zm-3.276 2.483c.304 0 .581-.048.832-.143a1.9 1.9 0 0 0 .676-.455 2.13 2.13 0 0 0 .442-.78c.104-.312.156-.68.156-1.105 0-.425-.052-.793-.156-1.105a2.009 2.009 0 0 0-.442-.767 1.699 1.699 0 0 0-.676-.455 2.155 2.155 0 0 0-.832-.156c-.598 0-1.096.2-1.495.598-.39.399-.585 1.014-.585 1.846 0 .433.052.81.156 1.131.104.312.247.572.43.78.19.208.411.364.662.468.252.095.53.143.832.143Zm7.896.819a7.73 7.73 0 0 1-.494 1.066 3.55 3.55 0 0 1-.585.793 2.09 2.09 0 0 1-.728.481 2.368 2.368 0 0 1-.923.169c-.173 0-.334-.013-.48-.039a1.446 1.446 0 0 1-.404-.104v-1.105c.095.07.217.121.364.156a1.7 1.7 0 0 0 .481.065c.32 0 .585-.078.793-.234.208-.147.407-.386.598-.715L53.48 7.253h1.261l2.145 5.694 2.132-5.694h1.105l-2.522 6.669Zm8.897-.494a3.646 3.646 0 0 1-.858.455c-.2.07-.425.126-.676.169a4.186 4.186 0 0 1-.845.078c-1.136 0-1.998-.308-2.587-.923-.59-.615-.884-1.478-.884-2.587 0-.546.078-1.036.234-1.469a3.15 3.15 0 0 1 .676-1.092 2.812 2.812 0 0 1 1.014-.689c.39-.165.814-.247 1.274-.247.485 0 .919.082 1.3.247.381.165.693.407.936.728.251.32.42.72.507 1.196.095.468.095 1.014 0 1.638H61.83c.043.728.26 1.274.65 1.638.39.355.97.533 1.742.533.52 0 .966-.074 1.339-.221a4.7 4.7 0 0 0 .936-.481v1.027ZM63.82 8.137c-.494 0-.919.152-1.274.455-.355.303-.58.763-.676 1.378h3.627c.034-.624-.109-1.083-.43-1.378-.32-.303-.736-.455-1.247-.455Zm6.958.091V14h-1.145V8.228h-2.118v-.975h5.42v.975h-2.157Zm6.2 5.902c-.52 0-.993-.078-1.418-.234a3.1 3.1 0 0 1-1.066-.689 3.038 3.038 0 0 1-.676-1.105 4.36 4.36 0 0 1-.234-1.482c0-.546.078-1.036.234-1.469.165-.433.395-.797.69-1.092a2.85 2.85 0 0 1 1.078-.689 3.967 3.967 0 0 1 1.443-.247c.416 0 .798.048 1.144.143.347.087.633.217.858.39v1.027a3.03 3.03 0 0 0-.936-.403 3.86 3.86 0 0 0-1.053-.143c-.788 0-1.369.204-1.742.611-.364.407-.546 1.031-.546 1.872 0 .84.178 1.465.533 1.872.356.407.92.611 1.69.611.408 0 .78-.048 1.118-.143a4.56 4.56 0 0 0 .936-.39v1.027a3.984 3.984 0 0 1-2.054.533Zm3.587-4.693c0-.381.07-.706.208-.975.14-.277.334-.503.585-.676.252-.182.55-.316.897-.403.347-.087.724-.13 1.131-.13h2.171V14h-1.144v-2.444h-1.235L81.45 14h-1.365l1.95-2.73c-.468-.139-.832-.351-1.092-.637-.25-.286-.377-.685-.377-1.196Zm3.848 1.144V8.228h-1.027c-.485 0-.884.091-1.196.273-.312.182-.468.477-.468.884 0 .425.14.732.416.923.278.182.672.273 1.183.273h1.092Zm7.021 1.859 3.601-5.187h1.157V14h-1.144V8.826L91.46 14h-1.17V7.253h1.144v5.187Zm11.033-1.43h-3.263V14H98.06V7.253h1.144v2.782h3.263V7.253h1.144V14h-1.144v-2.99Zm10.923-.39c0 .563-.095 1.057-.286 1.482a3.272 3.272 0 0 1-1.924 1.755c-.442.147-.91.23-1.404.247v2.197h-1.144v-2.197a4.758 4.758 0 0 1-1.43-.26 3.58 3.58 0 0 1-1.144-.663 3.178 3.178 0 0 1-.78-1.079c-.182-.425-.273-.919-.273-1.482 0-.555.096-1.044.286-1.469a3.02 3.02 0 0 1 .78-1.079c.33-.295.711-.516 1.144-.663a4.725 4.725 0 0 1 1.417-.26v-2.6h1.144v2.6c.503.017.971.104 1.404.26.442.156.824.381 1.144.676.33.286.59.641.78 1.066.191.425.286.914.286 1.469Zm-1.17 0c0-.416-.065-.776-.195-1.079a1.949 1.949 0 0 0-.52-.754 2.19 2.19 0 0 0-.767-.455 3.107 3.107 0 0 0-.962-.195v4.966c.347-.017.668-.078.962-.182.304-.113.564-.269.78-.468.217-.2.386-.45.507-.754.13-.303.195-.663.195-1.079Zm-6.045 0c0 .416.061.776.182 1.079.13.303.304.559.52.767.226.2.486.351.78.455.304.104.629.165.975.182V8.137a3.287 3.287 0 0 0-.988.195 2.176 2.176 0 0 0-1.287 1.222 2.867 2.867 0 0 0-.182 1.066Zm11.386 3.51c-.459 0-.888-.078-1.287-.234a2.997 2.997 0 0 1-1.04-.676 3.3 3.3 0 0 1-.676-1.105c-.165-.433-.247-.932-.247-1.495 0-.555.082-1.049.247-1.482.165-.442.39-.81.676-1.105.295-.295.641-.52 1.04-.676a3.503 3.503 0 0 1 1.287-.234c.468 0 .901.078 1.3.234a2.86 2.86 0 0 1 1.027.676c.295.295.524.663.689 1.105.173.433.26.927.26 1.482 0 .563-.087 1.062-.26 1.495a3.188 3.188 0 0 1-.689 1.105 2.86 2.86 0 0 1-1.027.676 3.538 3.538 0 0 1-1.3.234Zm0-1.027c.303 0 .581-.048.832-.143.26-.104.485-.256.676-.455a2.13 2.13 0 0 0 .442-.78c.104-.312.156-.68.156-1.105 0-.425-.052-.793-.156-1.105a2.005 2.005 0 0 0-.442-.767 1.702 1.702 0 0 0-.676-.455 2.156 2.156 0 0 0-.832-.156c-.303 0-.581.052-.832.156a1.723 1.723 0 0 0-.663.455 2.11 2.11 0 0 0-.429.767c-.104.312-.156.68-.156 1.105 0 .425.052.793.156 1.105.104.312.247.572.429.78.191.2.412.351.663.455.251.095.529.143.832.143Zm8.063 1.027c-.52 0-.97-.121-1.352-.364a2.658 2.658 0 0 1-.897-1.001v3.536h-1.144V7.253h1.001l.117 1.313c.226-.442.529-.793.91-1.053.382-.26.854-.39 1.417-.39.39 0 .763.074 1.118.221.364.139.681.355.949.65.278.286.494.65.65 1.092.165.433.247.945.247 1.534 0 .598-.082 1.118-.247 1.56a3.24 3.24 0 0 1-.663 1.092 2.777 2.777 0 0 1-.962.65 3.184 3.184 0 0 1-1.144.208Zm-.169-1.027c.598 0 1.079-.204 1.443-.611.373-.416.559-1.04.559-1.872 0-.815-.186-1.43-.559-1.846-.364-.425-.845-.637-1.443-.637-.294 0-.572.052-.832.156-.251.104-.472.26-.663.468-.182.2-.329.455-.442.767a3.457 3.457 0 0 0-.156 1.092c0 .416.052.78.156 1.092.113.312.26.572.442.78.191.208.412.364.663.468.26.095.538.143.832.143Zm11.006-4.524-2.288 4.667h-.91l-2.158-4.693V14h-1.079V7.253h1.703l2.067 4.524 2.21-4.524h1.586V14h-1.131V8.579Zm6.95 4.134a3.99 3.99 0 0 1-.299.494 2.253 2.253 0 0 1-1.105.793c-.243.087-.529.13-.858.13-.607 0-1.096-.169-1.469-.507-.373-.347-.559-.84-.559-1.482 0-.737.256-1.278.767-1.625.52-.347 1.257-.52 2.21-.52h1.261v-.559c0-.468-.121-.802-.364-1.001-.243-.2-.659-.299-1.248-.299-.416 0-.81.07-1.183.208-.373.13-.706.282-1.001.455V7.773c.243-.147.568-.29.975-.429a4.063 4.063 0 0 1 1.365-.221c.849 0 1.495.178 1.937.533.442.347.663.888.663 1.625v3.9c.009.095.013.195.013.299l.026.299c.009.087.017.16.026.221h-1.04a5.934 5.934 0 0 1-.078-.507 7.95 7.95 0 0 1-.026-.585l-.013-.195Zm-2.015.39c.355 0 .659-.074.91-.221.251-.147.455-.316.611-.507.156-.2.269-.39.338-.572.069-.19.104-.325.104-.403v-.494h-1.144c-.685 0-1.183.1-1.495.299-.303.19-.455.481-.455.871 0 .303.091.55.273.741.182.19.468.286.858.286Zm10.405.897h-5.499V7.253h1.144v5.772h3.315V7.253h1.144v5.772h1.014v2.899h-.975L151.801 14Zm3.452-1.56 3.601-5.187h1.157V14h-1.144V8.826L155.279 14h-1.17V7.253h1.144v5.187Zm6.626-3.003c0-.381.069-.706.208-.975.139-.277.334-.503.585-.676.251-.182.55-.316.897-.403a4.66 4.66 0 0 1 1.131-.13h2.171V14h-1.144v-2.444h-1.235L162.763 14h-1.365l1.95-2.73c-.468-.139-.832-.351-1.092-.637-.251-.286-.377-.685-.377-1.196Zm3.848 1.144V8.228H164.7c-.485 0-.884.091-1.196.273-.312.182-.468.477-.468.884 0 .425.139.732.416.923.277.182.672.273 1.183.273h1.092Z"/>
</svg>
