<svg xmlns="http://www.w3.org/2000/svg" width="540" height="490" fill="none" viewBox="0 0 540 490">
    <path fill="#fff" stroke="#67B0F8" stroke-width="2" d="M522.774 434h-140a4 4 0 0 0-4 4v34a4 4 0 0 0 4 4h140a4 4 0 0 0 4-4v-34a4 4 0 0 0-4-4ZM522 266H382a4 4 0 0 0-4 4v34a4 4 0 0 0 4 4h140a4 4 0 0 0 4-4v-34a4 4 0 0 0-4-4Z"/>
    <path fill="#18123D" d="M397.776 277.855a3.784 3.784 0 0 0-1.428.406c-.42.215-.733.551-.938 1.008v4.62h-1.232v-7.266h1.078l.126 1.582h.028c.205-.429.499-.803.882-1.12.392-.327.887-.527 1.484-.602v1.372Zm7.079 5.418a3.919 3.919 0 0 1-.378.238c-.15.084-.332.168-.546.252a4.632 4.632 0 0 1-.728.182 4.51 4.51 0 0 1-.91.084c-1.223 0-2.152-.331-2.786-.994-.635-.663-.952-1.591-.952-2.786 0-.588.084-1.115.252-1.582.177-.467.42-.859.728-1.176a3.024 3.024 0 0 1 1.092-.742c.42-.177.877-.266 1.372-.266.522 0 .989.089 1.4.266.41.177.746.439 1.008.784.27.345.452.775.546 1.288.102.504.102 1.092 0 1.764h-5.124c.046.784.28 1.372.7 1.764.42.383 1.045.574 1.876.574.56 0 1.04-.079 1.442-.238a5.07 5.07 0 0 0 1.008-.518v1.106Zm-2.884-5.698c-.532 0-.99.163-1.372.49-.383.327-.626.821-.728 1.484h3.906c.037-.672-.117-1.167-.462-1.484-.346-.327-.794-.49-1.344-.49Zm6.849 6.454c-.382 0-.723-.033-1.022-.098a4.808 4.808 0 0 1-.77-.21 4.282 4.282 0 0 1-.546-.28 3.732 3.732 0 0 1-.35-.266v-1.106c.094.093.22.196.378.308.159.103.35.201.574.294.224.093.476.173.756.238.29.056.612.084.966.084.523 0 .938-.084 1.246-.252.308-.168.462-.453.462-.854 0-.215-.051-.387-.154-.518a.932.932 0 0 0-.392-.308 2.429 2.429 0 0 0-.588-.196 28.153 28.153 0 0 0-.686-.14 24.708 24.708 0 0 1-.91-.21 3.213 3.213 0 0 1-.812-.35 1.92 1.92 0 0 1-.588-.602c-.149-.252-.224-.579-.224-.98 0-.653.252-1.167.756-1.54.514-.373 1.228-.56 2.142-.56.514 0 .966.051 1.358.154.402.103.71.215.924.336v1.106a3.286 3.286 0 0 0-.91-.392c-.354-.112-.798-.168-1.33-.168-.55 0-.975.075-1.274.224-.289.149-.434.42-.434.812a.82.82 0 0 0 .126.476c.084.112.196.205.336.28.15.065.318.117.504.154.187.037.383.079.588.126.318.065.644.135.98.21.336.075.635.191.896.35.271.159.49.373.658.644.178.261.266.616.266 1.064 0 .42-.084.77-.252 1.05a1.93 1.93 0 0 1-.672.672c-.27.159-.583.271-.938.336-.345.075-.7.112-1.064.112Zm7.426 0c-.495 0-.957-.084-1.386-.252a3.233 3.233 0 0 1-1.12-.728 3.542 3.542 0 0 1-.728-1.19c-.177-.467-.266-1.003-.266-1.61 0-.597.089-1.129.266-1.596.177-.476.42-.873.728-1.19.317-.317.691-.56 1.12-.728a3.767 3.767 0 0 1 1.386-.252c.504 0 .971.084 1.4.252.429.168.798.411 1.106.728.317.317.565.714.742 1.19.187.467.28.999.28 1.596 0 .607-.093 1.143-.28 1.61a3.433 3.433 0 0 1-.742 1.19c-.308.317-.677.56-1.106.728a3.807 3.807 0 0 1-1.4.252Zm0-1.106a2.5 2.5 0 0 0 .896-.154 2.04 2.04 0 0 0 .728-.49c.205-.224.364-.504.476-.84.112-.336.168-.733.168-1.19 0-.457-.056-.854-.168-1.19a2.17 2.17 0 0 0-.476-.826 1.831 1.831 0 0 0-.728-.49 2.322 2.322 0 0 0-.896-.168c-.327 0-.625.056-.896.168a1.849 1.849 0 0 0-.714.49c-.196.215-.35.49-.462.826a3.775 3.775 0 0 0-.168 1.19c0 .457.056.854.168 1.19.112.336.266.616.462.84.205.215.443.378.714.49a2.5 2.5 0 0 0 .896.154Zm9.692-.336c-.196.411-.5.756-.91 1.036-.402.271-.929.406-1.582.406-.672 0-1.218-.187-1.638-.56-.411-.383-.616-.971-.616-1.764v-5.082h1.246v5.082c0 .243.032.443.098.602.074.149.172.271.294.364.121.093.261.159.42.196.168.037.35.056.546.056.541 0 .975-.121 1.302-.364.326-.243.606-.574.84-.994v-4.942h1.232v7.266h-1.092l-.112-1.302h-.028Zm6.852-4.732a3.784 3.784 0 0 0-1.428.406c-.42.215-.733.551-.938 1.008v4.62h-1.232v-7.266h1.078l.126 1.582h.028c.205-.429.499-.803.882-1.12.392-.327.886-.527 1.484-.602v1.372Zm4.432 6.174c-.56 0-1.068-.084-1.526-.252a3.345 3.345 0 0 1-1.148-.742 3.277 3.277 0 0 1-.728-1.19c-.168-.467-.252-.999-.252-1.596 0-.588.084-1.115.252-1.582.178-.467.425-.859.742-1.176a3.073 3.073 0 0 1 1.162-.742 4.284 4.284 0 0 1 1.554-.266c.448 0 .859.051 1.232.154.374.093.682.233.924.42v1.106a3.243 3.243 0 0 0-1.008-.434 4.145 4.145 0 0 0-1.134-.154c-.849 0-1.474.219-1.876.658-.392.439-.588 1.111-.588 2.016s.192 1.577.574 2.016c.383.439.99.658 1.82.658.439 0 .84-.051 1.204-.154.374-.112.71-.252 1.008-.42v1.106a4.29 4.29 0 0 1-2.212.574Zm9.496-.756a3.919 3.919 0 0 1-.378.238c-.15.084-.332.168-.546.252a4.632 4.632 0 0 1-.728.182 4.51 4.51 0 0 1-.91.084c-1.223 0-2.152-.331-2.786-.994-.635-.663-.952-1.591-.952-2.786 0-.588.084-1.115.252-1.582.177-.467.42-.859.728-1.176a3.024 3.024 0 0 1 1.092-.742c.42-.177.877-.266 1.372-.266.522 0 .989.089 1.4.266.41.177.746.439 1.008.784.27.345.452.775.546 1.288.102.504.102 1.092 0 1.764h-5.124c.046.784.28 1.372.7 1.764.42.383 1.045.574 1.876.574.56 0 1.04-.079 1.442-.238a5.07 5.07 0 0 0 1.008-.518v1.106Zm-2.884-5.698c-.532 0-.99.163-1.372.49-.383.327-.626.821-.728 1.484h3.906c.037-.672-.117-1.167-.462-1.484-.346-.327-.794-.49-1.344-.49Zm4.358 1.484h3.36v1.12h-3.36v-1.12Zm6.445 4.83h-1.232v-7.266h1.078l.126 1.302h.028c.196-.411.49-.751.882-1.022.392-.28.905-.42 1.54-.42.56 0 1.017.135 1.372.406.364.261.606.658.728 1.19.205-.495.518-.882.938-1.162.429-.289.947-.434 1.554-.434.672 0 1.204.191 1.596.574.392.373.588.952.588 1.736v5.096h-1.246v-4.942c0-.476-.117-.821-.35-1.036-.234-.224-.551-.336-.952-.336-.271 0-.509.042-.714.126a1.681 1.681 0 0 0-.546.322 2.71 2.71 0 0 0-.434.49 6.225 6.225 0 0 0-.364.588v4.788h-1.232v-5.082c0-.467-.117-.789-.35-.966-.234-.177-.551-.266-.952-.266-.262 0-.495.033-.7.098a1.96 1.96 0 0 0-.56.28 2.179 2.179 0 0 0-.434.448 4.124 4.124 0 0 0-.364.56v4.928Zm15.383-1.386a4.24 4.24 0 0 1-.322.532 2.444 2.444 0 0 1-1.19.854c-.261.093-.569.14-.924.14-.653 0-1.181-.182-1.582-.546-.401-.373-.602-.905-.602-1.596 0-.793.275-1.377.826-1.75.56-.373 1.353-.56 2.38-.56h1.358v-.602c0-.504-.131-.863-.392-1.078-.261-.215-.709-.322-1.344-.322a3.63 3.63 0 0 0-1.274.224c-.401.14-.761.303-1.078.49v-1.106a5.383 5.383 0 0 1 1.05-.462 4.367 4.367 0 0 1 1.47-.238c.915 0 1.61.191 2.086.574.476.373.714.957.714 1.75v4.2c.009.103.014.21.014.322l.028.322c.009.093.019.173.028.238h-1.12a6.439 6.439 0 0 1-.084-.546 8.21 8.21 0 0 1-.028-.63l-.014-.21Zm-2.17.42c.383 0 .709-.079.98-.238.271-.159.49-.341.658-.546.168-.215.289-.42.364-.616.075-.205.112-.35.112-.434v-.532h-1.232c-.737 0-1.274.107-1.61.322-.327.205-.49.518-.49.938 0 .327.098.593.294.798.196.205.504.308.924.308Zm8.727-5.348c-.56 0-1.017.131-1.372.392a2.874 2.874 0 0 0-.84.98v4.942h-1.232v-7.266h1.162l.042 1.302h.028a2.46 2.46 0 0 1 .924-1.036c.42-.271.952-.406 1.596-.406.719 0 1.288.191 1.708.574.429.373.644.952.644 1.736v5.096h-1.232v-4.97c0-.504-.126-.854-.378-1.05-.252-.196-.602-.294-1.05-.294Zm8.865 4.928a4.363 4.363 0 0 1-.322.532 2.444 2.444 0 0 1-1.19.854c-.262.093-.57.14-.924.14-.654 0-1.181-.182-1.582-.546-.402-.373-.602-.905-.602-1.596 0-.793.275-1.377.826-1.75.56-.373 1.353-.56 2.38-.56h1.358v-.602c0-.504-.131-.863-.392-1.078-.262-.215-.71-.322-1.344-.322a3.63 3.63 0 0 0-1.274.224c-.402.14-.761.303-1.078.49v-1.106a5.383 5.383 0 0 1 1.05-.462 4.367 4.367 0 0 1 1.47-.238c.914 0 1.61.191 2.086.574.476.373.714.957.714 1.75v4.2c.009.103.014.21.014.322.009.112.018.219.028.322.009.093.018.173.028.238h-1.12a6.439 6.439 0 0 1-.084-.546 8.21 8.21 0 0 1-.028-.63l-.014-.21Zm-2.17.42c.382 0 .709-.079.98-.238.27-.159.49-.341.658-.546.168-.215.289-.42.364-.616.074-.205.112-.35.112-.434v-.532h-1.232c-.738 0-1.274.107-1.61.322-.327.205-.49.518-.49.938 0 .327.098.593.294.798.196.205.504.308.924.308Zm11.527.35c0 .467-.07.891-.21 1.274a2.3 2.3 0 0 1-.644.994c-.289.271-.667.481-1.134.63-.457.149-1.013.224-1.666.224-.355 0-.667-.019-.938-.056a4.3 4.3 0 0 1-.714-.154 2.562 2.562 0 0 1-.504-.196 2.326 2.326 0 0 1-.35-.196v-1.106c.149.084.303.159.462.224a4.105 4.105 0 0 0 1.204.322c.252.037.537.056.854.056.896 0 1.521-.168 1.876-.504.355-.336.532-.835.532-1.498v-1.12a2.645 2.645 0 0 1-.91 1.036c-.383.261-.859.392-1.428.392a3.44 3.44 0 0 1-1.232-.224 3.049 3.049 0 0 1-1.022-.658 3.397 3.397 0 0 1-.7-1.106c-.168-.448-.252-.966-.252-1.554 0-.597.084-1.115.252-1.554a3.37 3.37 0 0 1 .7-1.12 2.914 2.914 0 0 1 1.036-.672 3.476 3.476 0 0 1 1.246-.224c.579 0 1.064.131 1.456.392.401.261.714.616.938 1.064l.014-.154c0-.168.009-.369.028-.602.019-.243.037-.429.056-.56h1.12a9.267 9.267 0 0 0-.056.56 16.97 16.97 0 0 0-.014.602v5.488Zm-3.346-.784c.308 0 .588-.047.84-.14.261-.103.485-.257.672-.462.196-.205.345-.457.448-.756a3.15 3.15 0 0 0 .168-1.078c0-.831-.205-1.451-.616-1.862-.401-.411-.91-.616-1.526-.616a2.42 2.42 0 0 0-.868.154c-.261.103-.49.257-.686.462a2.27 2.27 0 0 0-.448.784 3.15 3.15 0 0 0-.168 1.078c0 .411.056.77.168 1.078.112.299.266.551.462.756.196.196.425.345.686.448.271.103.56.154.868.154Zm11.128.784a3.919 3.919 0 0 1-.378.238 4.34 4.34 0 0 1-.546.252 4.604 4.604 0 0 1-.728.182 4.51 4.51 0 0 1-.91.084c-1.223 0-2.151-.331-2.786-.994-.635-.663-.952-1.591-.952-2.786 0-.588.084-1.115.252-1.582.177-.467.42-.859.728-1.176a3.024 3.024 0 0 1 1.092-.742c.42-.177.877-.266 1.372-.266.523 0 .989.089 1.4.266.411.177.747.439 1.008.784.271.345.453.775.546 1.288.103.504.103 1.092 0 1.764h-5.124c.047.784.28 1.372.7 1.764.42.383 1.045.574 1.876.574.56 0 1.041-.079 1.442-.238a5.07 5.07 0 0 0 1.008-.518v1.106Zm-2.884-5.698c-.532 0-.989.163-1.372.49-.383.327-.625.821-.728 1.484h3.906c.037-.672-.117-1.167-.462-1.484-.345-.327-.793-.49-1.344-.49Zm8.124.28a3.784 3.784 0 0 0-1.428.406c-.42.215-.733.551-.938 1.008v4.62h-1.232v-7.266h1.078l.126 1.582h.028c.205-.429.499-.803.882-1.12.392-.327.887-.527 1.484-.602v1.372Zm1.34 6.118c-.271 0-.49-.084-.658-.252a.884.884 0 0 1-.252-.63c0-.261.084-.476.252-.644.168-.168.387-.252.658-.252.261 0 .476.084.644.252a.873.873 0 0 1 .252.644.884.884 0 0 1-.252.63.873.873 0 0 1-.644.252Zm-69.019 15.3a3.919 3.919 0 0 1-.378.238c-.15.084-.332.168-.546.252a4.632 4.632 0 0 1-.728.182 4.51 4.51 0 0 1-.91.084c-1.223 0-2.152-.331-2.786-.994-.635-.663-.952-1.591-.952-2.786 0-.588.084-1.115.252-1.582.177-.467.42-.859.728-1.176a3.024 3.024 0 0 1 1.092-.742c.42-.177.877-.266 1.372-.266.522 0 .989.089 1.4.266.41.177.746.439 1.008.784.27.345.452.775.546 1.288.102.504.102 1.092 0 1.764h-5.124c.046.784.28 1.372.7 1.764.42.383 1.045.574 1.876.574.56 0 1.04-.079 1.442-.238a5.07 5.07 0 0 0 1.008-.518v1.106Zm-2.884-5.698c-.532 0-.99.163-1.372.49-.383.327-.626.821-.728 1.484h3.906c.037-.672-.117-1.167-.462-1.484-.346-.327-.794-.49-1.344-.49Zm9.733 4.886a2.907 2.907 0 0 1-.938 1.148c-.401.28-.91.42-1.526.42a3.48 3.48 0 0 1-1.246-.224 3.002 3.002 0 0 1-1.036-.7 3.526 3.526 0 0 1-.714-1.176c-.177-.476-.266-1.036-.266-1.68 0-.635.089-1.185.266-1.652.178-.476.416-.868.714-1.176a2.76 2.76 0 0 1 1.036-.7 3.395 3.395 0 0 1 1.26-.238c.551 0 1.027.117 1.428.35.402.224.724.546.966.966v-3.948h1.232v10.038h-1.078l-.098-1.428Zm-2.282.462c.318 0 .612-.051.882-.154.271-.112.504-.28.7-.504a2.29 2.29 0 0 0 .476-.84c.122-.336.182-.728.182-1.176 0-.448-.06-.84-.182-1.176a2.29 2.29 0 0 0-.476-.84 1.739 1.739 0 0 0-.7-.49 2.28 2.28 0 0 0-.882-.168c-.644 0-1.171.229-1.582.686-.401.448-.602 1.111-.602 1.988 0 .887.206 1.554.616 2.002.411.448.934.672 1.568.672Zm6.099-7.364c-.252 0-.453-.075-.602-.224a.81.81 0 0 1-.224-.574.81.81 0 0 1 .224-.574c.149-.159.35-.238.602-.238.243 0 .434.079.574.238.14.159.21.35.21.574 0 .224-.07.415-.21.574-.14.149-.331.224-.574.224Zm.602 1.064v7.266h-1.232v-7.266h1.232Zm5.564 7.112c-.149.084-.34.154-.574.21-.233.056-.48.084-.742.084-.354 0-.658-.051-.91-.154a1.77 1.77 0 0 1-.602-.406 1.737 1.737 0 0 1-.35-.588 2.452 2.452 0 0 1-.098-.686v-4.522h-.868v-1.05h.868v-1.526h1.232v1.526h2.114v1.05h-2.114v4.368c0 .308.075.532.224.672.159.14.434.21.826.21.364 0 .696-.103.994-.308v1.12Zm4.553.294c-.494 0-.956-.084-1.386-.252a3.242 3.242 0 0 1-1.12-.728 3.558 3.558 0 0 1-.728-1.19c-.177-.467-.266-1.003-.266-1.61 0-.597.089-1.129.266-1.596.178-.476.42-.873.728-1.19.318-.317.691-.56 1.12-.728.43-.168.892-.252 1.386-.252.504 0 .971.084 1.4.252.43.168.798.411 1.106.728.318.317.565.714.742 1.19.187.467.28.999.28 1.596 0 .607-.093 1.143-.28 1.61a3.418 3.418 0 0 1-.742 1.19c-.308.317-.676.56-1.106.728a3.807 3.807 0 0 1-1.4.252Zm0-1.106c.327 0 .626-.051.896-.154a2.04 2.04 0 0 0 .728-.49 2.29 2.29 0 0 0 .476-.84c.112-.336.168-.733.168-1.19 0-.457-.056-.854-.168-1.19a2.158 2.158 0 0 0-.476-.826 1.831 1.831 0 0 0-.728-.49 2.318 2.318 0 0 0-.896-.168c-.326 0-.625.056-.896.168-.27.103-.508.266-.714.49-.196.215-.35.49-.462.826a3.775 3.775 0 0 0-.168 1.19c0 .457.056.854.168 1.19.112.336.266.616.462.84.206.215.444.378.714.49.271.103.57.154.896.154Zm8.628-5.068a3.784 3.784 0 0 0-1.428.406c-.42.215-.733.551-.938 1.008v4.62h-1.232v-7.266h1.078l.126 1.582h.028c.205-.429.499-.803.882-1.12.392-.327.887-.527 1.484-.602v1.372Z"/>
    <path fill="#fff" stroke="#67B0F8" stroke-width="2" d="M522 182H382a4 4 0 0 0-4 4v34a4 4 0 0 0 4 4h140a4 4 0 0 0 4-4v-34a4 4 0 0 0-4-4Z"/>
    <path fill="#18123D" d="M397.776 193.855a3.784 3.784 0 0 0-1.428.406c-.42.215-.733.551-.938 1.008v4.62h-1.232v-7.266h1.078l.126 1.582h.028c.205-.429.499-.803.882-1.12.392-.327.887-.527 1.484-.602v1.372Zm7.079 5.418a3.919 3.919 0 0 1-.378.238c-.15.084-.332.168-.546.252a4.632 4.632 0 0 1-.728.182 4.51 4.51 0 0 1-.91.084c-1.223 0-2.152-.331-2.786-.994-.635-.663-.952-1.591-.952-2.786 0-.588.084-1.115.252-1.582.177-.467.42-.859.728-1.176a3.024 3.024 0 0 1 1.092-.742c.42-.177.877-.266 1.372-.266.522 0 .989.089 1.4.266.41.177.746.439 1.008.784.27.345.452.775.546 1.288.102.504.102 1.092 0 1.764h-5.124c.046.784.28 1.372.7 1.764.42.383 1.045.574 1.876.574.56 0 1.04-.079 1.442-.238a5.07 5.07 0 0 0 1.008-.518v1.106Zm-2.884-5.698c-.532 0-.99.163-1.372.49-.383.327-.626.821-.728 1.484h3.906c.037-.672-.117-1.167-.462-1.484-.346-.327-.794-.49-1.344-.49Zm6.849 6.454c-.382 0-.723-.033-1.022-.098a4.808 4.808 0 0 1-.77-.21 4.282 4.282 0 0 1-.546-.28 3.732 3.732 0 0 1-.35-.266v-1.106c.094.093.22.196.378.308.159.103.35.201.574.294.224.093.476.173.756.238.29.056.612.084.966.084.523 0 .938-.084 1.246-.252.308-.168.462-.453.462-.854 0-.215-.051-.387-.154-.518a.932.932 0 0 0-.392-.308 2.429 2.429 0 0 0-.588-.196 28.153 28.153 0 0 0-.686-.14 24.708 24.708 0 0 1-.91-.21 3.213 3.213 0 0 1-.812-.35 1.92 1.92 0 0 1-.588-.602c-.149-.252-.224-.579-.224-.98 0-.653.252-1.167.756-1.54.514-.373 1.228-.56 2.142-.56.514 0 .966.051 1.358.154.402.103.71.215.924.336v1.106a3.286 3.286 0 0 0-.91-.392c-.354-.112-.798-.168-1.33-.168-.55 0-.975.075-1.274.224-.289.149-.434.42-.434.812a.82.82 0 0 0 .126.476c.084.112.196.205.336.28.15.065.318.117.504.154.187.037.383.079.588.126.318.065.644.135.98.21.336.075.635.191.896.35.271.159.49.373.658.644.178.261.266.616.266 1.064 0 .42-.084.77-.252 1.05a1.93 1.93 0 0 1-.672.672c-.27.159-.583.271-.938.336-.345.075-.7.112-1.064.112Zm7.426 0c-.495 0-.957-.084-1.386-.252a3.233 3.233 0 0 1-1.12-.728 3.542 3.542 0 0 1-.728-1.19c-.177-.467-.266-1.003-.266-1.61 0-.597.089-1.129.266-1.596.177-.476.42-.873.728-1.19.317-.317.691-.56 1.12-.728a3.767 3.767 0 0 1 1.386-.252c.504 0 .971.084 1.4.252.429.168.798.411 1.106.728.317.317.565.714.742 1.19.187.467.28.999.28 1.596 0 .607-.093 1.143-.28 1.61a3.433 3.433 0 0 1-.742 1.19c-.308.317-.677.56-1.106.728a3.807 3.807 0 0 1-1.4.252Zm0-1.106a2.5 2.5 0 0 0 .896-.154 2.04 2.04 0 0 0 .728-.49c.205-.224.364-.504.476-.84.112-.336.168-.733.168-1.19 0-.457-.056-.854-.168-1.19a2.17 2.17 0 0 0-.476-.826 1.831 1.831 0 0 0-.728-.49 2.322 2.322 0 0 0-.896-.168c-.327 0-.625.056-.896.168a1.849 1.849 0 0 0-.714.49c-.196.215-.35.49-.462.826a3.775 3.775 0 0 0-.168 1.19c0 .457.056.854.168 1.19.112.336.266.616.462.84.205.215.443.378.714.49a2.5 2.5 0 0 0 .896.154Zm9.692-.336c-.196.411-.5.756-.91 1.036-.402.271-.929.406-1.582.406-.672 0-1.218-.187-1.638-.56-.411-.383-.616-.971-.616-1.764v-5.082h1.246v5.082c0 .243.032.443.098.602.074.149.172.271.294.364.121.093.261.159.42.196.168.037.35.056.546.056.541 0 .975-.121 1.302-.364.326-.243.606-.574.84-.994v-4.942h1.232v7.266h-1.092l-.112-1.302h-.028Zm6.852-4.732a3.784 3.784 0 0 0-1.428.406c-.42.215-.733.551-.938 1.008v4.62h-1.232v-7.266h1.078l.126 1.582h.028c.205-.429.499-.803.882-1.12.392-.327.886-.527 1.484-.602v1.372Zm4.432 6.174c-.56 0-1.068-.084-1.526-.252a3.345 3.345 0 0 1-1.148-.742 3.277 3.277 0 0 1-.728-1.19c-.168-.467-.252-.999-.252-1.596 0-.588.084-1.115.252-1.582.178-.467.425-.859.742-1.176a3.073 3.073 0 0 1 1.162-.742 4.284 4.284 0 0 1 1.554-.266c.448 0 .859.051 1.232.154.374.093.682.233.924.42v1.106a3.243 3.243 0 0 0-1.008-.434 4.145 4.145 0 0 0-1.134-.154c-.849 0-1.474.219-1.876.658-.392.439-.588 1.111-.588 2.016s.192 1.577.574 2.016c.383.439.99.658 1.82.658.439 0 .84-.051 1.204-.154.374-.112.71-.252 1.008-.42v1.106a4.29 4.29 0 0 1-2.212.574Zm9.496-.756a3.919 3.919 0 0 1-.378.238c-.15.084-.332.168-.546.252a4.632 4.632 0 0 1-.728.182 4.51 4.51 0 0 1-.91.084c-1.223 0-2.152-.331-2.786-.994-.635-.663-.952-1.591-.952-2.786 0-.588.084-1.115.252-1.582.177-.467.42-.859.728-1.176a3.024 3.024 0 0 1 1.092-.742c.42-.177.877-.266 1.372-.266.522 0 .989.089 1.4.266.41.177.746.439 1.008.784.27.345.452.775.546 1.288.102.504.102 1.092 0 1.764h-5.124c.046.784.28 1.372.7 1.764.42.383 1.045.574 1.876.574.56 0 1.04-.079 1.442-.238a5.07 5.07 0 0 0 1.008-.518v1.106Zm-2.884-5.698c-.532 0-.99.163-1.372.49-.383.327-.626.821-.728 1.484h3.906c.037-.672-.117-1.167-.462-1.484-.346-.327-.794-.49-1.344-.49Zm4.358 1.484h3.36v1.12h-3.36v-1.12Zm6.445 4.83h-1.232v-7.266h1.078l.126 1.302h.028c.196-.411.49-.751.882-1.022.392-.28.905-.42 1.54-.42.56 0 1.017.135 1.372.406.364.261.606.658.728 1.19.205-.495.518-.882.938-1.162.429-.289.947-.434 1.554-.434.672 0 1.204.191 1.596.574.392.373.588.952.588 1.736v5.096h-1.246v-4.942c0-.476-.117-.821-.35-1.036-.234-.224-.551-.336-.952-.336-.271 0-.509.042-.714.126a1.681 1.681 0 0 0-.546.322 2.71 2.71 0 0 0-.434.49 6.225 6.225 0 0 0-.364.588v4.788h-1.232v-5.082c0-.467-.117-.789-.35-.966-.234-.177-.551-.266-.952-.266-.262 0-.495.033-.7.098a1.96 1.96 0 0 0-.56.28 2.179 2.179 0 0 0-.434.448 4.124 4.124 0 0 0-.364.56v4.928Zm15.383-1.386a4.24 4.24 0 0 1-.322.532 2.444 2.444 0 0 1-1.19.854c-.261.093-.569.14-.924.14-.653 0-1.181-.182-1.582-.546-.401-.373-.602-.905-.602-1.596 0-.793.275-1.377.826-1.75.56-.373 1.353-.56 2.38-.56h1.358v-.602c0-.504-.131-.863-.392-1.078-.261-.215-.709-.322-1.344-.322a3.63 3.63 0 0 0-1.274.224c-.401.14-.761.303-1.078.49v-1.106a5.383 5.383 0 0 1 1.05-.462 4.367 4.367 0 0 1 1.47-.238c.915 0 1.61.191 2.086.574.476.373.714.957.714 1.75v4.2c.009.103.014.21.014.322l.028.322c.009.093.019.173.028.238h-1.12a6.439 6.439 0 0 1-.084-.546 8.21 8.21 0 0 1-.028-.63l-.014-.21Zm-2.17.42c.383 0 .709-.079.98-.238.271-.159.49-.341.658-.546.168-.215.289-.42.364-.616.075-.205.112-.35.112-.434v-.532h-1.232c-.737 0-1.274.107-1.61.322-.327.205-.49.518-.49.938 0 .327.098.593.294.798.196.205.504.308.924.308Zm8.727-5.348c-.56 0-1.017.131-1.372.392a2.874 2.874 0 0 0-.84.98v4.942h-1.232v-7.266h1.162l.042 1.302h.028a2.46 2.46 0 0 1 .924-1.036c.42-.271.952-.406 1.596-.406.719 0 1.288.191 1.708.574.429.373.644.952.644 1.736v5.096h-1.232v-4.97c0-.504-.126-.854-.378-1.05-.252-.196-.602-.294-1.05-.294Zm8.865 4.928a4.363 4.363 0 0 1-.322.532 2.444 2.444 0 0 1-1.19.854c-.262.093-.57.14-.924.14-.654 0-1.181-.182-1.582-.546-.402-.373-.602-.905-.602-1.596 0-.793.275-1.377.826-1.75.56-.373 1.353-.56 2.38-.56h1.358v-.602c0-.504-.131-.863-.392-1.078-.262-.215-.71-.322-1.344-.322a3.63 3.63 0 0 0-1.274.224c-.402.14-.761.303-1.078.49v-1.106a5.383 5.383 0 0 1 1.05-.462 4.367 4.367 0 0 1 1.47-.238c.914 0 1.61.191 2.086.574.476.373.714.957.714 1.75v4.2c.009.103.014.21.014.322.009.112.018.219.028.322.009.093.018.173.028.238h-1.12a6.439 6.439 0 0 1-.084-.546 8.21 8.21 0 0 1-.028-.63l-.014-.21Zm-2.17.42c.382 0 .709-.079.98-.238.27-.159.49-.341.658-.546.168-.215.289-.42.364-.616.074-.205.112-.35.112-.434v-.532h-1.232c-.738 0-1.274.107-1.61.322-.327.205-.49.518-.49.938 0 .327.098.593.294.798.196.205.504.308.924.308Zm11.527.35c0 .467-.07.891-.21 1.274a2.3 2.3 0 0 1-.644.994c-.289.271-.667.481-1.134.63-.457.149-1.013.224-1.666.224-.355 0-.667-.019-.938-.056a4.3 4.3 0 0 1-.714-.154 2.562 2.562 0 0 1-.504-.196 2.326 2.326 0 0 1-.35-.196v-1.106c.149.084.303.159.462.224a4.105 4.105 0 0 0 1.204.322c.252.037.537.056.854.056.896 0 1.521-.168 1.876-.504.355-.336.532-.835.532-1.498v-1.12a2.645 2.645 0 0 1-.91 1.036c-.383.261-.859.392-1.428.392a3.44 3.44 0 0 1-1.232-.224 3.049 3.049 0 0 1-1.022-.658 3.397 3.397 0 0 1-.7-1.106c-.168-.448-.252-.966-.252-1.554 0-.597.084-1.115.252-1.554a3.37 3.37 0 0 1 .7-1.12 2.914 2.914 0 0 1 1.036-.672 3.476 3.476 0 0 1 1.246-.224c.579 0 1.064.131 1.456.392.401.261.714.616.938 1.064l.014-.154c0-.168.009-.369.028-.602.019-.243.037-.429.056-.56h1.12a9.267 9.267 0 0 0-.056.56 16.97 16.97 0 0 0-.014.602v5.488Zm-3.346-.784c.308 0 .588-.047.84-.14.261-.103.485-.257.672-.462.196-.205.345-.457.448-.756a3.15 3.15 0 0 0 .168-1.078c0-.831-.205-1.451-.616-1.862-.401-.411-.91-.616-1.526-.616a2.42 2.42 0 0 0-.868.154c-.261.103-.49.257-.686.462a2.27 2.27 0 0 0-.448.784 3.15 3.15 0 0 0-.168 1.078c0 .411.056.77.168 1.078.112.299.266.551.462.756.196.196.425.345.686.448.271.103.56.154.868.154Zm11.128.784a3.919 3.919 0 0 1-.378.238 4.34 4.34 0 0 1-.546.252 4.604 4.604 0 0 1-.728.182 4.51 4.51 0 0 1-.91.084c-1.223 0-2.151-.331-2.786-.994-.635-.663-.952-1.591-.952-2.786 0-.588.084-1.115.252-1.582.177-.467.42-.859.728-1.176a3.024 3.024 0 0 1 1.092-.742c.42-.177.877-.266 1.372-.266.523 0 .989.089 1.4.266.411.177.747.439 1.008.784.271.345.453.775.546 1.288.103.504.103 1.092 0 1.764h-5.124c.047.784.28 1.372.7 1.764.42.383 1.045.574 1.876.574.56 0 1.041-.079 1.442-.238a5.07 5.07 0 0 0 1.008-.518v1.106Zm-2.884-5.698c-.532 0-.989.163-1.372.49-.383.327-.625.821-.728 1.484h3.906c.037-.672-.117-1.167-.462-1.484-.345-.327-.793-.49-1.344-.49Zm8.124.28a3.784 3.784 0 0 0-1.428.406c-.42.215-.733.551-.938 1.008v4.62h-1.232v-7.266h1.078l.126 1.582h.028c.205-.429.499-.803.882-1.12.392-.327.887-.527 1.484-.602v1.372Zm1.34 6.118c-.271 0-.49-.084-.658-.252a.884.884 0 0 1-.252-.63c0-.261.084-.476.252-.644.168-.168.387-.252.658-.252.261 0 .476.084.644.252a.873.873 0 0 1 .252.644.884.884 0 0 1-.252.63.873.873 0 0 1-.644.252Zm-71.605 14.53a4.24 4.24 0 0 1-.322.532 2.444 2.444 0 0 1-1.19.854c-.261.093-.569.14-.924.14-.653 0-1.181-.182-1.582-.546-.401-.373-.602-.905-.602-1.596 0-.793.275-1.377.826-1.75.56-.373 1.353-.56 2.38-.56h1.358v-.602c0-.504-.131-.863-.392-1.078-.261-.215-.709-.322-1.344-.322a3.63 3.63 0 0 0-1.274.224c-.401.14-.761.303-1.078.49v-1.106a5.383 5.383 0 0 1 1.05-.462 4.367 4.367 0 0 1 1.47-.238c.915 0 1.61.191 2.086.574.476.373.714.957.714 1.75v4.2c.009.103.014.21.014.322l.028.322c.009.093.019.173.028.238h-1.12a6.439 6.439 0 0 1-.084-.546 8.21 8.21 0 0 1-.028-.63l-.014-.21Zm-2.17.42c.383 0 .709-.079.98-.238.271-.159.49-.341.658-.546.168-.215.289-.42.364-.616.075-.205.112-.35.112-.434v-.532h-1.232c-.737 0-1.274.107-1.61.322-.327.205-.49.518-.49.938 0 .327.098.593.294.798.196.205.504.308.924.308Zm10.491-.462a2.907 2.907 0 0 1-.938 1.148c-.401.28-.91.42-1.526.42a3.48 3.48 0 0 1-1.246-.224 3.002 3.002 0 0 1-1.036-.7 3.526 3.526 0 0 1-.714-1.176c-.177-.476-.266-1.036-.266-1.68 0-.635.089-1.185.266-1.652.178-.476.416-.868.714-1.176a2.76 2.76 0 0 1 1.036-.7 3.395 3.395 0 0 1 1.26-.238c.551 0 1.027.117 1.428.35.402.224.724.546.966.966v-3.948h1.232v10.038h-1.078l-.098-1.428Zm-2.282.462c.318 0 .612-.051.882-.154.271-.112.504-.28.7-.504a2.29 2.29 0 0 0 .476-.84c.122-.336.182-.728.182-1.176 0-.448-.06-.84-.182-1.176a2.29 2.29 0 0 0-.476-.84 1.739 1.739 0 0 0-.7-.49 2.28 2.28 0 0 0-.882-.168c-.644 0-1.171.229-1.582.686-.401.448-.602 1.111-.602 1.988 0 .887.206 1.554.616 2.002.411.448.934.672 1.568.672Zm6.701.966h-1.232v-7.266h1.078l.126 1.302h.028c.196-.411.49-.751.882-1.022.392-.28.905-.42 1.54-.42.56 0 1.017.135 1.372.406.364.261.606.658.728 1.19.205-.495.518-.882.938-1.162.429-.289.947-.434 1.554-.434.672 0 1.204.191 1.596.574.392.373.588.952.588 1.736v5.096h-1.246v-4.942c0-.476-.117-.821-.35-1.036-.234-.224-.551-.336-.952-.336-.271 0-.509.042-.714.126a1.681 1.681 0 0 0-.546.322 2.71 2.71 0 0 0-.434.49 6.225 6.225 0 0 0-.364.588v4.788h-1.232v-5.082c0-.467-.117-.789-.35-.966-.234-.177-.551-.266-.952-.266-.262 0-.495.033-.7.098a1.96 1.96 0 0 0-.56.28 2.179 2.179 0 0 0-.434.448 4.124 4.124 0 0 0-.364.56v4.928Zm11.757-8.33c-.252 0-.453-.075-.602-.224a.81.81 0 0 1-.224-.574.81.81 0 0 1 .224-.574c.149-.159.35-.238.602-.238.243 0 .434.079.574.238.14.159.21.35.21.574 0 .224-.07.415-.21.574-.14.149-.331.224-.574.224Zm.602 1.064v7.266h-1.232v-7.266h1.232Zm5.452.952c-.56 0-1.017.131-1.372.392a2.874 2.874 0 0 0-.84.98v4.942h-1.232v-7.266h1.162l.042 1.302h.028a2.46 2.46 0 0 1 .924-1.036c.42-.271.952-.406 1.596-.406.719 0 1.288.191 1.708.574.43.373.644.952.644 1.736v5.096h-1.232v-4.97c0-.504-.126-.854-.378-1.05-.252-.196-.602-.294-1.05-.294Z"/>
    <path fill="#fff" stroke="#67B0F8" stroke-width="2" d="M340 182H200a4 4 0 0 0-4 4v34a4 4 0 0 0 4 4h140a4 4 0 0 0 4-4v-34a4 4 0 0 0-4-4Z"/>
    <path fill="#18123D" d="M258.142 207.273a3.919 3.919 0 0 1-.378.238c-.15.084-.332.168-.546.252a4.632 4.632 0 0 1-.728.182 4.51 4.51 0 0 1-.91.084c-1.223 0-2.152-.331-2.786-.994-.635-.663-.952-1.591-.952-2.786 0-.588.084-1.115.252-1.582.177-.467.42-.859.728-1.176a3.024 3.024 0 0 1 1.092-.742c.42-.177.877-.266 1.372-.266.522 0 .989.089 1.4.266.41.177.746.439 1.008.784.27.345.452.775.546 1.288.102.504.102 1.092 0 1.764h-5.124c.046.784.28 1.372.7 1.764.42.383 1.045.574 1.876.574.56 0 1.04-.079 1.442-.238a5.07 5.07 0 0 0 1.008-.518v1.106Zm-2.884-5.698c-.532 0-.99.163-1.372.49-.383.327-.626.821-.728 1.484h3.906c.037-.672-.117-1.167-.462-1.484-.346-.327-.794-.49-1.344-.49Zm9.733 4.886a2.907 2.907 0 0 1-.938 1.148c-.401.28-.91.42-1.526.42a3.48 3.48 0 0 1-1.246-.224 3.002 3.002 0 0 1-1.036-.7 3.526 3.526 0 0 1-.714-1.176c-.177-.476-.266-1.036-.266-1.68 0-.635.089-1.185.266-1.652.178-.476.416-.868.714-1.176a2.76 2.76 0 0 1 1.036-.7 3.395 3.395 0 0 1 1.26-.238c.551 0 1.027.117 1.428.35.402.224.724.546.966.966v-3.948h1.232v10.038h-1.078l-.098-1.428Zm-2.282.462c.318 0 .612-.051.882-.154.271-.112.504-.28.7-.504a2.29 2.29 0 0 0 .476-.84c.122-.336.182-.728.182-1.176 0-.448-.06-.84-.182-1.176a2.29 2.29 0 0 0-.476-.84 1.739 1.739 0 0 0-.7-.49 2.28 2.28 0 0 0-.882-.168c-.644 0-1.171.229-1.582.686-.401.448-.602 1.111-.602 1.988 0 .887.206 1.554.616 2.002.411.448.934.672 1.568.672Zm6.099-7.364c-.252 0-.453-.075-.602-.224a.81.81 0 0 1-.224-.574.81.81 0 0 1 .224-.574c.149-.159.35-.238.602-.238.243 0 .434.079.574.238.14.159.21.35.21.574 0 .224-.07.415-.21.574-.14.149-.331.224-.574.224Zm.602 1.064v7.266h-1.232v-7.266h1.232Zm5.564 7.112c-.149.084-.34.154-.574.21-.233.056-.48.084-.742.084-.354 0-.658-.051-.91-.154a1.77 1.77 0 0 1-.602-.406 1.737 1.737 0 0 1-.35-.588 2.452 2.452 0 0 1-.098-.686v-4.522h-.868v-1.05h.868v-1.526h1.232v1.526h2.114v1.05h-2.114v4.368c0 .308.075.532.224.672.159.14.434.21.826.21.364 0 .696-.103.994-.308v1.12Zm4.553.294c-.494 0-.956-.084-1.386-.252a3.242 3.242 0 0 1-1.12-.728 3.558 3.558 0 0 1-.728-1.19c-.177-.467-.266-1.003-.266-1.61 0-.597.089-1.129.266-1.596.178-.476.42-.873.728-1.19.318-.317.691-.56 1.12-.728.43-.168.892-.252 1.386-.252.504 0 .971.084 1.4.252.43.168.798.411 1.106.728.318.317.565.714.742 1.19.187.467.28.999.28 1.596 0 .607-.093 1.143-.28 1.61a3.418 3.418 0 0 1-.742 1.19c-.308.317-.676.56-1.106.728a3.807 3.807 0 0 1-1.4.252Zm0-1.106c.327 0 .626-.051.896-.154a2.04 2.04 0 0 0 .728-.49 2.29 2.29 0 0 0 .476-.84c.112-.336.168-.733.168-1.19 0-.457-.056-.854-.168-1.19a2.158 2.158 0 0 0-.476-.826 1.831 1.831 0 0 0-.728-.49 2.318 2.318 0 0 0-.896-.168c-.326 0-.625.056-.896.168-.27.103-.508.266-.714.49-.196.215-.35.49-.462.826a3.775 3.775 0 0 0-.168 1.19c0 .457.056.854.168 1.19.112.336.266.616.462.84.206.215.444.378.714.49.271.103.57.154.896.154Zm8.628-5.068a3.784 3.784 0 0 0-1.428.406c-.42.215-.733.551-.938 1.008v4.62h-1.232v-7.266h1.078l.126 1.582h.028c.205-.429.499-.803.882-1.12.392-.327.887-.527 1.484-.602v1.372Z"/>
    <path fill="#fff" stroke="#67B0F8" stroke-width="2" d="M158 98H18a4 4 0 0 0-4 4v34a4 4 0 0 0 4 4h140a4 4 0 0 0 4-4v-34a4 4 0 0 0-4-4Z"/>
    <path fill="#18123D" d="M33.776 109.855a3.787 3.787 0 0 0-1.428.406c-.42.215-.733.551-.938 1.008v4.62h-1.232v-7.266h1.078l.126 1.582h.028c.205-.429.5-.803.882-1.12.392-.327.887-.527 1.484-.602v1.372Zm7.078 5.418a3.822 3.822 0 0 1-.377.238 4.38 4.38 0 0 1-.546.252 4.601 4.601 0 0 1-.728.182 4.517 4.517 0 0 1-.91.084c-1.223 0-2.152-.331-2.786-.994-.635-.663-.953-1.591-.953-2.786 0-.588.084-1.115.252-1.582.178-.467.42-.859.729-1.176a3.024 3.024 0 0 1 1.092-.742c.42-.177.877-.266 1.371-.266.523 0 .99.089 1.4.266.411.177.747.439 1.008.784.271.345.453.775.547 1.288.102.504.102 1.092 0 1.764h-5.125c.047.784.28 1.372.7 1.764.42.383 1.046.574 1.877.574.56 0 1.04-.079 1.441-.238a5.048 5.048 0 0 0 1.009-.518v1.106Zm-2.883-5.698c-.532 0-.99.163-1.372.49-.383.327-.626.821-.728 1.484h3.905c.038-.672-.116-1.167-.462-1.484-.345-.327-.793-.49-1.343-.49Zm6.85 6.454a4.84 4.84 0 0 1-1.023-.098 4.794 4.794 0 0 1-.77-.21 4.198 4.198 0 0 1-.546-.28 3.693 3.693 0 0 1-.35-.266v-1.106c.094.093.22.196.378.308.159.103.35.201.574.294.224.093.476.173.756.238a5.1 5.1 0 0 0 .966.084c.523 0 .938-.084 1.246-.252.308-.168.462-.453.462-.854 0-.215-.051-.387-.154-.518a.935.935 0 0 0-.392-.308 2.429 2.429 0 0 0-.588-.196 29.265 29.265 0 0 0-.686-.14 24.572 24.572 0 0 1-.91-.21 3.197 3.197 0 0 1-.812-.35 1.906 1.906 0 0 1-.588-.602c-.149-.252-.224-.579-.224-.98 0-.653.252-1.167.756-1.54.514-.373 1.228-.56 2.142-.56.514 0 .966.051 1.358.154.402.103.71.215.924.336v1.106a3.295 3.295 0 0 0-.91-.392c-.354-.112-.798-.168-1.33-.168-.55 0-.975.075-1.274.224-.289.149-.434.42-.434.812a.82.82 0 0 0 .126.476c.084.112.196.205.336.28.15.065.318.117.504.154.187.037.383.079.588.126.318.065.644.135.98.21.336.075.635.191.896.35.271.159.49.373.658.644.178.261.266.616.266 1.064 0 .42-.084.77-.252 1.05a1.93 1.93 0 0 1-.672.672c-.27.159-.583.271-.938.336a5 5 0 0 1-1.064.112Zm7.425 0a3.77 3.77 0 0 1-1.386-.252 3.234 3.234 0 0 1-1.12-.728 3.549 3.549 0 0 1-.728-1.19c-.177-.467-.266-1.003-.266-1.61 0-.597.089-1.129.266-1.596a3.37 3.37 0 0 1 .728-1.19c.317-.317.69-.56 1.12-.728a3.77 3.77 0 0 1 1.386-.252c.504 0 .97.084 1.4.252.43.168.798.411 1.106.728.317.317.565.714.742 1.19.187.467.28.999.28 1.596 0 .607-.093 1.143-.28 1.61a3.432 3.432 0 0 1-.742 1.19c-.308.317-.677.56-1.106.728-.43.168-.896.252-1.4.252Zm0-1.106a2.5 2.5 0 0 0 .896-.154 2.04 2.04 0 0 0 .728-.49c.205-.224.364-.504.476-.84.112-.336.168-.733.168-1.19 0-.457-.056-.854-.168-1.19a2.166 2.166 0 0 0-.476-.826 1.833 1.833 0 0 0-.728-.49 2.321 2.321 0 0 0-.896-.168c-.327 0-.625.056-.896.168-.27.103-.509.266-.714.49-.196.215-.35.49-.462.826a3.775 3.775 0 0 0-.168 1.19c0 .457.056.854.168 1.19.112.336.266.616.462.84.205.215.443.378.714.49.27.103.57.154.896.154Zm9.692-.336c-.196.411-.5.756-.91 1.036-.402.271-.929.406-1.582.406-.672 0-1.218-.187-1.638-.56-.411-.383-.616-.971-.616-1.764v-5.082h1.246v5.082c0 .243.032.443.098.602a1.034 1.034 0 0 0 .714.56c.168.037.35.056.546.056.541 0 .975-.121 1.302-.364.326-.243.606-.574.84-.994v-4.942h1.232v7.266h-1.092l-.112-1.302h-.028Zm6.852-4.732a3.787 3.787 0 0 0-1.428.406c-.42.215-.733.551-.938 1.008v4.62h-1.232v-7.266h1.078l.126 1.582h.028c.205-.429.499-.803.882-1.12.392-.327.886-.527 1.484-.602v1.372Zm4.432 6.174c-.56 0-1.069-.084-1.526-.252a3.338 3.338 0 0 1-1.148-.742 3.273 3.273 0 0 1-.728-1.19c-.168-.467-.252-.999-.252-1.596 0-.588.084-1.115.252-1.582.178-.467.425-.859.742-1.176a3.065 3.065 0 0 1 1.162-.742 4.28 4.28 0 0 1 1.554-.266c.448 0 .859.051 1.232.154.373.093.681.233.924.42v1.106a3.257 3.257 0 0 0-1.008-.434 4.145 4.145 0 0 0-1.134-.154c-.85 0-1.475.219-1.876.658-.392.439-.588 1.111-.588 2.016s.191 1.577.574 2.016c.383.439.99.658 1.82.658.439 0 .84-.051 1.204-.154.373-.112.71-.252 1.008-.42v1.106a4.29 4.29 0 0 1-2.212.574Zm9.496-.756a3.846 3.846 0 0 1-.378.238 4.38 4.38 0 0 1-.546.252 4.604 4.604 0 0 1-.728.182c-.27.056-.574.084-.91.084-1.223 0-2.152-.331-2.786-.994-.635-.663-.952-1.591-.952-2.786 0-.588.084-1.115.252-1.582.177-.467.42-.859.728-1.176a3.024 3.024 0 0 1 1.092-.742c.42-.177.877-.266 1.372-.266.523 0 .99.089 1.4.266.41.177.746.439 1.008.784.27.345.453.775.546 1.288.102.504.102 1.092 0 1.764h-5.124c.047.784.28 1.372.7 1.764.42.383 1.045.574 1.876.574.56 0 1.04-.079 1.442-.238a5.053 5.053 0 0 0 1.008-.518v1.106Zm-2.884-5.698c-.532 0-.99.163-1.372.49-.383.327-.626.821-.728 1.484h3.906c.037-.672-.117-1.167-.462-1.484-.346-.327-.793-.49-1.344-.49Zm4.358 1.484h3.36v1.12h-3.36v-1.12Zm6.445 4.83h-1.232v-7.266h1.078l.126 1.302h.028c.196-.411.49-.751.882-1.022.392-.28.905-.42 1.54-.42.56 0 1.017.135 1.372.406.364.261.606.658.728 1.19.205-.495.518-.882.938-1.162.429-.289.947-.434 1.554-.434.672 0 1.204.191 1.596.574.392.373.588.952.588 1.736v5.096h-1.246v-4.942c0-.476-.117-.821-.35-1.036-.234-.224-.551-.336-.952-.336-.271 0-.51.042-.714.126a1.694 1.694 0 0 0-.546.322c-.16.14-.304.303-.434.49a6.225 6.225 0 0 0-.364.588v4.788h-1.232v-5.082c0-.467-.117-.789-.35-.966-.234-.177-.551-.266-.952-.266-.262 0-.495.033-.7.098a1.968 1.968 0 0 0-.56.28 2.202 2.202 0 0 0-.434.448 4.124 4.124 0 0 0-.364.56v4.928Zm15.383-1.386a4.24 4.24 0 0 1-.322.532 2.444 2.444 0 0 1-1.19.854c-.261.093-.569.14-.924.14-.653 0-1.181-.182-1.582-.546-.401-.373-.602-.905-.602-1.596 0-.793.275-1.377.826-1.75.56-.373 1.353-.56 2.38-.56h1.358v-.602c0-.504-.131-.863-.392-1.078-.261-.215-.709-.322-1.344-.322a3.63 3.63 0 0 0-1.274.224c-.401.14-.761.303-1.078.49v-1.106a5.383 5.383 0 0 1 1.05-.462 4.367 4.367 0 0 1 1.47-.238c.915 0 1.61.191 2.086.574.476.373.714.957.714 1.75v4.2c.009.103.014.21.014.322l.028.322c.009.093.019.173.028.238h-1.12a6.439 6.439 0 0 1-.084-.546 8.21 8.21 0 0 1-.028-.63l-.014-.21Zm-2.17.42c.383 0 .709-.079.98-.238.271-.159.49-.341.658-.546.168-.215.289-.42.364-.616.075-.205.112-.35.112-.434v-.532h-1.232c-.737 0-1.274.107-1.61.322-.327.205-.49.518-.49.938 0 .327.098.593.294.798.196.205.504.308.924.308Zm8.727-5.348c-.56 0-1.017.131-1.372.392a2.874 2.874 0 0 0-.84.98v4.942h-1.232v-7.266h1.162l.042 1.302h.028a2.46 2.46 0 0 1 .924-1.036c.42-.271.952-.406 1.596-.406.719 0 1.288.191 1.708.574.429.373.644.952.644 1.736v5.096h-1.232v-4.97c0-.504-.126-.854-.378-1.05-.252-.196-.602-.294-1.05-.294Zm8.865 4.928a4.363 4.363 0 0 1-.322.532 2.444 2.444 0 0 1-1.19.854c-.262.093-.57.14-.924.14-.654 0-1.181-.182-1.582-.546-.402-.373-.602-.905-.602-1.596 0-.793.275-1.377.826-1.75.56-.373 1.353-.56 2.38-.56h1.358v-.602c0-.504-.131-.863-.392-1.078-.262-.215-.71-.322-1.344-.322a3.63 3.63 0 0 0-1.274.224c-.402.14-.761.303-1.078.49v-1.106a5.383 5.383 0 0 1 1.05-.462 4.367 4.367 0 0 1 1.47-.238c.914 0 1.61.191 2.086.574.476.373.714.957.714 1.75v4.2c.009.103.014.21.014.322.009.112.018.219.028.322.009.093.018.173.028.238h-1.12a6.439 6.439 0 0 1-.084-.546 8.21 8.21 0 0 1-.028-.63l-.014-.21Zm-2.17.42c.382 0 .709-.079.98-.238.27-.159.49-.341.658-.546.168-.215.289-.42.364-.616.074-.205.112-.35.112-.434v-.532h-1.232c-.738 0-1.274.107-1.61.322-.327.205-.49.518-.49.938 0 .327.098.593.294.798.196.205.504.308.924.308Zm11.527.35c0 .467-.07.891-.21 1.274a2.3 2.3 0 0 1-.644.994c-.289.271-.667.481-1.134.63-.457.149-1.013.224-1.666.224-.355 0-.667-.019-.938-.056a4.3 4.3 0 0 1-.714-.154 2.562 2.562 0 0 1-.504-.196 2.326 2.326 0 0 1-.35-.196v-1.106c.149.084.303.159.462.224a4.105 4.105 0 0 0 1.204.322c.252.037.537.056.854.056.896 0 1.521-.168 1.876-.504.355-.336.532-.835.532-1.498v-1.12a2.645 2.645 0 0 1-.91 1.036c-.383.261-.859.392-1.428.392a3.44 3.44 0 0 1-1.232-.224 3.049 3.049 0 0 1-1.022-.658 3.397 3.397 0 0 1-.7-1.106c-.168-.448-.252-.966-.252-1.554 0-.597.084-1.115.252-1.554a3.37 3.37 0 0 1 .7-1.12 2.914 2.914 0 0 1 1.036-.672 3.476 3.476 0 0 1 1.246-.224c.579 0 1.064.131 1.456.392.401.261.714.616.938 1.064l.014-.154c0-.168.009-.369.028-.602.019-.243.037-.429.056-.56h1.12a9.267 9.267 0 0 0-.056.56 16.97 16.97 0 0 0-.014.602v5.488Zm-3.346-.784c.308 0 .588-.047.84-.14.261-.103.485-.257.672-.462.196-.205.345-.457.448-.756a3.15 3.15 0 0 0 .168-1.078c0-.831-.205-1.451-.616-1.862-.401-.411-.91-.616-1.526-.616a2.42 2.42 0 0 0-.868.154c-.261.103-.49.257-.686.462a2.27 2.27 0 0 0-.448.784 3.15 3.15 0 0 0-.168 1.078c0 .411.056.77.168 1.078.112.299.266.551.462.756.196.196.425.345.686.448.271.103.56.154.868.154Zm11.128.784a3.919 3.919 0 0 1-.378.238 4.34 4.34 0 0 1-.546.252 4.604 4.604 0 0 1-.728.182 4.51 4.51 0 0 1-.91.084c-1.223 0-2.151-.331-2.786-.994-.635-.663-.952-1.591-.952-2.786 0-.588.084-1.115.252-1.582.177-.467.42-.859.728-1.176a3.024 3.024 0 0 1 1.092-.742c.42-.177.877-.266 1.372-.266.523 0 .989.089 1.4.266.411.177.747.439 1.008.784.271.345.453.775.546 1.288.103.504.103 1.092 0 1.764h-5.124c.047.784.28 1.372.7 1.764.42.383 1.045.574 1.876.574.56 0 1.041-.079 1.442-.238a5.07 5.07 0 0 0 1.008-.518v1.106Zm-2.884-5.698c-.532 0-.989.163-1.372.49-.383.327-.625.821-.728 1.484h3.906c.037-.672-.117-1.167-.462-1.484-.345-.327-.793-.49-1.344-.49Zm8.124.28a3.784 3.784 0 0 0-1.428.406c-.42.215-.733.551-.938 1.008v4.62h-1.232v-7.266h1.078l.126 1.582h.028c.205-.429.499-.803.882-1.12.392-.327.887-.527 1.484-.602v1.372Zm1.34 6.118c-.271 0-.49-.084-.658-.252a.884.884 0 0 1-.252-.63c0-.261.084-.476.252-.644.168-.168.387-.252.658-.252.261 0 .476.084.644.252a.873.873 0 0 1 .252.644.884.884 0 0 1-.252.63.873.873 0 0 1-.644.252ZM43.349 132.029c-.56 0-1.068-.084-1.526-.252a3.339 3.339 0 0 1-1.148-.742 3.273 3.273 0 0 1-.728-1.19c-.168-.467-.252-.999-.252-1.596 0-.588.084-1.115.252-1.582.177-.467.425-.859.742-1.176a3.066 3.066 0 0 1 1.162-.742 4.28 4.28 0 0 1 1.554-.266c.448 0 .859.051 1.232.154.373.093.681.233.924.42v1.106a3.255 3.255 0 0 0-1.008-.434 4.145 4.145 0 0 0-1.134-.154c-.85 0-1.474.219-1.876.658-.392.439-.588 1.111-.588 2.016s.192 1.577.574 2.016c.383.439.99.658 1.82.658.439 0 .84-.051 1.204-.154a4.95 4.95 0 0 0 1.008-.42v1.106a4.29 4.29 0 0 1-2.212.574Zm4.946-10.178v10.038h-1.232v-10.038h1.232Zm4.99 10.178a3.77 3.77 0 0 1-1.386-.252 3.233 3.233 0 0 1-1.12-.728 3.547 3.547 0 0 1-.728-1.19c-.177-.467-.266-1.003-.266-1.61 0-.597.089-1.129.266-1.596.177-.476.42-.873.728-1.19.317-.317.69-.56 1.12-.728a3.77 3.77 0 0 1 1.386-.252c.504 0 .97.084 1.4.252.43.168.798.411 1.106.728.317.317.565.714.742 1.19.187.467.28.999.28 1.596 0 .607-.093 1.143-.28 1.61a3.433 3.433 0 0 1-.742 1.19c-.308.317-.677.56-1.106.728-.43.168-.896.252-1.4.252Zm0-1.106a2.5 2.5 0 0 0 .896-.154 2.04 2.04 0 0 0 .728-.49 2.3 2.3 0 0 0 .476-.84c.112-.336.168-.733.168-1.19 0-.457-.056-.854-.168-1.19a2.167 2.167 0 0 0-.476-.826 1.833 1.833 0 0 0-.728-.49 2.322 2.322 0 0 0-.896-.168c-.327 0-.625.056-.896.168-.27.103-.509.266-.714.49-.196.215-.35.49-.462.826a3.775 3.775 0 0 0-.168 1.19c0 .457.056.854.168 1.19.112.336.266.616.462.84.205.215.443.378.714.49.27.103.57.154.896.154Zm9.692-.336c-.196.411-.5.756-.91 1.036-.402.271-.929.406-1.582.406-.672 0-1.218-.187-1.638-.56-.411-.383-.616-.971-.616-1.764v-5.082h1.246v5.082c0 .243.032.443.098.602a1.034 1.034 0 0 0 .714.56c.168.037.35.056.546.056.541 0 .975-.121 1.302-.364.326-.243.606-.574.84-.994v-4.942h1.232v7.266h-1.092l-.112-1.302h-.028Zm8.462-.126a2.912 2.912 0 0 1-.938 1.148c-.402.28-.91.42-1.526.42-.439 0-.854-.075-1.246-.224a2.999 2.999 0 0 1-1.036-.7 3.507 3.507 0 0 1-.714-1.176c-.178-.476-.266-1.036-.266-1.68 0-.635.088-1.185.266-1.652.177-.476.415-.868.714-1.176a2.758 2.758 0 0 1 1.036-.7 3.39 3.39 0 0 1 1.26-.238c.55 0 1.026.117 1.428.35.401.224.723.546.966.966v-3.948h1.232v10.038h-1.078l-.098-1.428Zm-2.282.462c.317 0 .611-.051.882-.154.27-.112.504-.28.7-.504.205-.224.364-.504.476-.84.121-.336.182-.728.182-1.176 0-.448-.06-.84-.182-1.176a2.299 2.299 0 0 0-.476-.84 1.74 1.74 0 0 0-.7-.49 2.284 2.284 0 0 0-.882-.168c-.644 0-1.172.229-1.582.686-.402.448-.602 1.111-.602 1.988 0 .887.205 1.554.616 2.002.41.448.933.672 1.568.672Zm7.792 1.106a4.83 4.83 0 0 1-1.022-.098 4.797 4.797 0 0 1-.77-.21 4.19 4.19 0 0 1-.546-.28 3.68 3.68 0 0 1-.35-.266v-1.106c.094.093.22.196.378.308.159.103.35.201.574.294.224.093.476.173.756.238a5.1 5.1 0 0 0 .966.084c.523 0 .938-.084 1.246-.252.308-.168.462-.453.462-.854 0-.215-.051-.387-.154-.518a.935.935 0 0 0-.392-.308 2.429 2.429 0 0 0-.588-.196 29.265 29.265 0 0 0-.686-.14 24.52 24.52 0 0 1-.91-.21 3.196 3.196 0 0 1-.812-.35 1.904 1.904 0 0 1-.588-.602c-.15-.252-.224-.579-.224-.98 0-.653.252-1.167.756-1.54.514-.373 1.228-.56 2.142-.56.514 0 .966.051 1.358.154.402.103.71.215.924.336v1.106a3.295 3.295 0 0 0-.91-.392c-.354-.112-.798-.168-1.33-.168-.55 0-.975.075-1.274.224-.29.149-.434.42-.434.812a.82.82 0 0 0 .126.476c.084.112.196.205.336.28.15.065.318.117.504.154.187.037.383.079.588.126.318.065.644.135.98.21.336.075.635.191.896.35.27.159.49.373.658.644.178.261.266.616.266 1.064 0 .42-.084.77-.252 1.05a1.93 1.93 0 0 1-.672.672c-.27.159-.583.271-.938.336a5 5 0 0 1-1.064.112Zm5.116-.056c-.27 0-.49-.084-.658-.252a.884.884 0 0 1-.252-.63c0-.261.084-.476.252-.644.168-.168.387-.252.658-.252.261 0 .476.084.644.252a.873.873 0 0 1 .252.644.884.884 0 0 1-.252.63.872.872 0 0 1-.644.252Zm3.91-.084h-1.233v-7.266h1.078l.126 1.302h.028c.196-.411.49-.751.882-1.022.392-.28.906-.42 1.54-.42.56 0 1.018.135 1.372.406.364.261.607.658.728 1.19a2.52 2.52 0 0 1 .938-1.162c.43-.289.948-.434 1.554-.434.672 0 1.204.191 1.596.574.392.373.588.952.588 1.736v5.096h-1.246v-4.942c0-.476-.116-.821-.35-1.036-.233-.224-.55-.336-.952-.336-.27 0-.508.042-.714.126a1.696 1.696 0 0 0-.546.322c-.158.14-.303.303-.434.49-.13.187-.252.383-.364.588v4.788h-1.232v-5.082c0-.467-.116-.789-.35-.966-.233-.177-.55-.266-.952-.266-.26 0-.494.033-.7.098a1.97 1.97 0 0 0-.56.28 2.208 2.208 0 0 0-.434.448c-.13.168-.252.355-.364.56v4.928Zm16.909-.616a3.919 3.919 0 0 1-.378.238c-.15.084-.332.168-.546.252a4.632 4.632 0 0 1-.728.182 4.51 4.51 0 0 1-.91.084c-1.223 0-2.151-.331-2.786-.994-.635-.663-.952-1.591-.952-2.786 0-.588.084-1.115.252-1.582.177-.467.42-.859.728-1.176a3.024 3.024 0 0 1 1.092-.742c.42-.177.877-.266 1.372-.266.522 0 .989.089 1.4.266.41.177.746.439 1.008.784.27.345.452.775.546 1.288.102.504.102 1.092 0 1.764h-5.124c.046.784.28 1.372.7 1.764.42.383 1.045.574 1.876.574.56 0 1.04-.079 1.442-.238a5.07 5.07 0 0 0 1.008-.518v1.106ZM100 125.575c-.532 0-.99.163-1.372.49-.383.327-.626.821-.728 1.484h3.906c.037-.672-.117-1.167-.462-1.484-.346-.327-.794-.49-1.344-.49Zm5.758 6.314h-1.232v-7.266h1.078l.126 1.302h.028c.196-.411.49-.751.882-1.022.392-.28.905-.42 1.54-.42.56 0 1.017.135 1.372.406.364.261.606.658.728 1.19.205-.495.518-.882.938-1.162.429-.289.947-.434 1.554-.434.672 0 1.204.191 1.596.574.392.373.588.952.588 1.736v5.096h-1.246v-4.942c0-.476-.117-.821-.35-1.036-.234-.224-.551-.336-.952-.336-.271 0-.509.042-.714.126a1.681 1.681 0 0 0-.546.322 2.71 2.71 0 0 0-.434.49 6.225 6.225 0 0 0-.364.588v4.788h-1.232v-5.082c0-.467-.117-.789-.35-.966-.234-.177-.551-.266-.952-.266-.262 0-.495.033-.7.098a1.96 1.96 0 0 0-.56.28 2.179 2.179 0 0 0-.434.448 4.124 4.124 0 0 0-.364.56v4.928Zm18.029-3.64c0 .644-.089 1.204-.266 1.68a3.494 3.494 0 0 1-.714 1.176 3.002 3.002 0 0 1-1.036.7 3.44 3.44 0 0 1-1.232.224c-.56 0-1.05-.131-1.47-.392a2.872 2.872 0 0 1-.98-1.12l-.042 1.372h-1.162v-10.038h1.232l-.028 4.186a2.98 2.98 0 0 1 .98-1.134c.411-.28.919-.42 1.526-.42.42 0 .821.079 1.204.238.392.149.733.383 1.022.7.299.308.532.7.7 1.176.177.467.266 1.017.266 1.652Zm-3.43 2.674c.644 0 1.162-.219 1.554-.658.401-.448.602-1.12.602-2.016 0-.877-.201-1.54-.602-1.988-.392-.457-.91-.686-1.554-.686-.317 0-.616.056-.896.168a1.99 1.99 0 0 0-.714.504c-.196.215-.355.49-.476.826a3.723 3.723 0 0 0-.168 1.176c0 .448.056.84.168 1.176.121.336.28.616.476.84.205.224.443.392.714.504.28.103.579.154.896.154Zm10.705.35a3.919 3.919 0 0 1-.378.238c-.15.084-.332.168-.546.252a4.632 4.632 0 0 1-.728.182 4.51 4.51 0 0 1-.91.084c-1.223 0-2.152-.331-2.786-.994-.635-.663-.952-1.591-.952-2.786 0-.588.084-1.115.252-1.582.177-.467.42-.859.728-1.176a3.024 3.024 0 0 1 1.092-.742c.42-.177.877-.266 1.372-.266.522 0 .989.089 1.4.266.41.177.746.439 1.008.784.27.345.452.775.546 1.288.102.504.102 1.092 0 1.764h-5.124c.046.784.28 1.372.7 1.764.42.383 1.045.574 1.876.574.56 0 1.04-.079 1.442-.238a5.07 5.07 0 0 0 1.008-.518v1.106Zm-2.884-5.698c-.532 0-.99.163-1.372.49-.383.327-.626.821-.728 1.484h3.906c.037-.672-.117-1.167-.462-1.484-.346-.327-.794-.49-1.344-.49Zm8.123.28a3.795 3.795 0 0 0-1.428.406c-.42.215-.732.551-.938 1.008v4.62h-1.232v-7.266h1.078l.126 1.582h.028c.206-.429.5-.803.882-1.12.392-.327.887-.527 1.484-.602v1.372Z"/>
    <path fill="#fff" stroke="#67B0F8" stroke-width="2" d="M340 98H200a4 4 0 0 0-4 4v34a4 4 0 0 0 4 4h140a4 4 0 0 0 4-4v-34a4 4 0 0 0-4-4Z"/>
    <path fill="#18123D" d="M255.556 122.503a4.24 4.24 0 0 1-.322.532 2.444 2.444 0 0 1-1.19.854c-.261.093-.569.14-.924.14-.653 0-1.181-.182-1.582-.546-.401-.373-.602-.905-.602-1.596 0-.793.275-1.377.826-1.75.56-.373 1.353-.56 2.38-.56h1.358v-.602c0-.504-.131-.863-.392-1.078-.261-.215-.709-.322-1.344-.322a3.63 3.63 0 0 0-1.274.224c-.401.14-.761.303-1.078.49v-1.106a5.383 5.383 0 0 1 1.05-.462 4.367 4.367 0 0 1 1.47-.238c.915 0 1.61.191 2.086.574.476.373.714.957.714 1.75v4.2c.009.103.014.21.014.322l.028.322c.009.093.019.173.028.238h-1.12a6.439 6.439 0 0 1-.084-.546 8.21 8.21 0 0 1-.028-.63l-.014-.21Zm-2.17.42c.383 0 .709-.079.98-.238.271-.159.49-.341.658-.546.168-.215.289-.42.364-.616.075-.205.112-.35.112-.434v-.532h-1.232c-.737 0-1.274.107-1.61.322-.327.205-.49.518-.49.938 0 .327.098.593.294.798.196.205.504.308.924.308Zm10.491-.462a2.907 2.907 0 0 1-.938 1.148c-.401.28-.91.42-1.526.42a3.48 3.48 0 0 1-1.246-.224 3.002 3.002 0 0 1-1.036-.7 3.526 3.526 0 0 1-.714-1.176c-.177-.476-.266-1.036-.266-1.68 0-.635.089-1.185.266-1.652.178-.476.416-.868.714-1.176a2.76 2.76 0 0 1 1.036-.7 3.395 3.395 0 0 1 1.26-.238c.551 0 1.027.117 1.428.35.402.224.724.546.966.966v-3.948h1.232v10.038h-1.078l-.098-1.428Zm-2.282.462c.318 0 .612-.051.882-.154.271-.112.504-.28.7-.504a2.29 2.29 0 0 0 .476-.84c.122-.336.182-.728.182-1.176 0-.448-.06-.84-.182-1.176a2.29 2.29 0 0 0-.476-.84 1.739 1.739 0 0 0-.7-.49 2.28 2.28 0 0 0-.882-.168c-.644 0-1.171.229-1.582.686-.401.448-.602 1.111-.602 1.988 0 .887.206 1.554.616 2.002.411.448.934.672 1.568.672Zm6.701.966h-1.232v-7.266h1.078l.126 1.302h.028c.196-.411.49-.751.882-1.022.392-.28.905-.42 1.54-.42.56 0 1.017.135 1.372.406.364.261.606.658.728 1.19.205-.495.518-.882.938-1.162.429-.289.947-.434 1.554-.434.672 0 1.204.191 1.596.574.392.373.588.952.588 1.736v5.096h-1.246v-4.942c0-.476-.117-.821-.35-1.036-.234-.224-.551-.336-.952-.336-.271 0-.509.042-.714.126a1.681 1.681 0 0 0-.546.322 2.71 2.71 0 0 0-.434.49 6.225 6.225 0 0 0-.364.588v4.788h-1.232v-5.082c0-.467-.117-.789-.35-.966-.234-.177-.551-.266-.952-.266-.262 0-.495.033-.7.098a1.96 1.96 0 0 0-.56.28 2.179 2.179 0 0 0-.434.448 4.124 4.124 0 0 0-.364.56v4.928Zm11.757-8.33c-.252 0-.453-.075-.602-.224a.81.81 0 0 1-.224-.574.81.81 0 0 1 .224-.574c.149-.159.35-.238.602-.238.243 0 .434.079.574.238.14.159.21.35.21.574 0 .224-.07.415-.21.574-.14.149-.331.224-.574.224Zm.602 1.064v7.266h-1.232v-7.266h1.232Zm5.452.952c-.56 0-1.017.131-1.372.392a2.874 2.874 0 0 0-.84.98v4.942h-1.232v-7.266h1.162l.042 1.302h.028a2.46 2.46 0 0 1 .924-1.036c.42-.271.952-.406 1.596-.406.719 0 1.288.191 1.708.574.43.373.644.952.644 1.736v5.096h-1.232v-4.97c0-.504-.126-.854-.378-1.05-.252-.196-.602-.294-1.05-.294Z"/>
    <path fill="#fff" stroke="#67B0F8" stroke-width="2" d="M340 14H200a4 4 0 0 0-4 4v34a4 4 0 0 0 4 4h140a4 4 0 0 0 4-4V18a4 4 0 0 0-4-4Z"/>
    <path fill="#18123D" d="M215.776 25.855a3.779 3.779 0 0 0-1.428.406c-.42.215-.733.55-.938 1.008v4.62h-1.232v-7.266h1.078l.126 1.582h.028c.205-.43.499-.803.882-1.12.392-.327.887-.527 1.484-.602v1.372Zm7.079 5.418a3.979 3.979 0 0 1-.924.49 4.632 4.632 0 0 1-.728.182 4.51 4.51 0 0 1-.91.084c-1.223 0-2.152-.331-2.786-.994-.635-.663-.952-1.591-.952-2.786 0-.588.084-1.115.252-1.582.177-.467.42-.859.728-1.176a3.028 3.028 0 0 1 1.092-.742 3.49 3.49 0 0 1 1.372-.266c.522 0 .989.089 1.4.266.41.177.746.439 1.008.784.27.345.452.775.546 1.288.102.504.102 1.092 0 1.764h-5.124c.046.784.28 1.372.7 1.764.42.383 1.045.574 1.876.574.56 0 1.04-.08 1.442-.238a5.07 5.07 0 0 0 1.008-.518v1.106Zm-2.884-5.698c-.532 0-.99.163-1.372.49-.383.327-.626.821-.728 1.484h3.906c.037-.672-.117-1.167-.462-1.484-.346-.327-.794-.49-1.344-.49Zm6.849 6.454c-.382 0-.723-.033-1.022-.098a4.808 4.808 0 0 1-.77-.21 4.282 4.282 0 0 1-.546-.28 3.732 3.732 0 0 1-.35-.266v-1.106c.094.093.22.196.378.308.159.103.35.2.574.294.224.093.476.173.756.238.29.056.612.084.966.084.523 0 .938-.084 1.246-.252.308-.168.462-.453.462-.854 0-.215-.051-.387-.154-.518a.932.932 0 0 0-.392-.308 2.416 2.416 0 0 0-.588-.196 28.153 28.153 0 0 0-.686-.14 26 26 0 0 1-.91-.21 3.202 3.202 0 0 1-.812-.35 1.92 1.92 0 0 1-.588-.602c-.149-.252-.224-.579-.224-.98 0-.653.252-1.167.756-1.54.514-.373 1.228-.56 2.142-.56.514 0 .966.051 1.358.154.402.103.71.215.924.336v1.106a3.286 3.286 0 0 0-.91-.392c-.354-.112-.798-.168-1.33-.168-.55 0-.975.075-1.274.224-.289.15-.434.42-.434.812a.82.82 0 0 0 .126.476 1 1 0 0 0 .336.28c.15.065.318.117.504.154.187.037.383.08.588.126.318.065.644.135.98.21.336.075.635.191.896.35.271.159.49.373.658.644.178.261.266.616.266 1.064 0 .42-.084.77-.252 1.05a1.93 1.93 0 0 1-.672.672c-.27.159-.583.27-.938.336-.345.075-.7.112-1.064.112Zm7.426 0c-.495 0-.957-.084-1.386-.252a3.229 3.229 0 0 1-1.12-.728 3.542 3.542 0 0 1-.728-1.19c-.177-.467-.266-1.003-.266-1.61 0-.597.089-1.13.266-1.596.177-.476.42-.873.728-1.19.317-.317.691-.56 1.12-.728a3.767 3.767 0 0 1 1.386-.252c.504 0 .971.084 1.4.252.429.168.798.41 1.106.728.317.317.565.714.742 1.19.187.467.28.999.28 1.596 0 .607-.093 1.143-.28 1.61a3.433 3.433 0 0 1-.742 1.19c-.308.317-.677.56-1.106.728a3.807 3.807 0 0 1-1.4.252Zm0-1.106a2.5 2.5 0 0 0 .896-.154 2.04 2.04 0 0 0 .728-.49c.205-.224.364-.504.476-.84.112-.336.168-.733.168-1.19 0-.457-.056-.854-.168-1.19a2.168 2.168 0 0 0-.476-.826 1.828 1.828 0 0 0-.728-.49 2.322 2.322 0 0 0-.896-.168c-.327 0-.625.056-.896.168a1.845 1.845 0 0 0-.714.49c-.196.215-.35.49-.462.826a3.774 3.774 0 0 0-.168 1.19c0 .457.056.854.168 1.19.112.336.266.616.462.84.205.215.443.378.714.49a2.5 2.5 0 0 0 .896.154Zm9.692-.336c-.196.41-.5.756-.91 1.036-.402.27-.929.406-1.582.406-.672 0-1.218-.187-1.638-.56-.411-.383-.616-.97-.616-1.764v-5.082h1.246v5.082c0 .243.032.443.098.602.074.15.172.27.294.364.121.093.261.159.42.196.168.037.35.056.546.056.541 0 .975-.121 1.302-.364.326-.243.606-.574.84-.994v-4.942h1.232v7.266h-1.092l-.112-1.302h-.028Zm6.852-4.732a3.779 3.779 0 0 0-1.428.406c-.42.215-.733.55-.938 1.008v4.62h-1.232v-7.266h1.078l.126 1.582h.028c.205-.43.499-.803.882-1.12.392-.327.886-.527 1.484-.602v1.372Zm4.432 6.174c-.56 0-1.068-.084-1.526-.252a3.345 3.345 0 0 1-1.148-.742 3.277 3.277 0 0 1-.728-1.19c-.168-.467-.252-.999-.252-1.596 0-.588.084-1.115.252-1.582.178-.467.425-.859.742-1.176a3.076 3.076 0 0 1 1.162-.742 4.278 4.278 0 0 1 1.554-.266c.448 0 .859.051 1.232.154.374.093.682.233.924.42v1.106a3.25 3.25 0 0 0-1.008-.434 4.156 4.156 0 0 0-1.134-.154c-.849 0-1.474.22-1.876.658-.392.439-.588 1.11-.588 2.016 0 .905.192 1.577.574 2.016.383.439.99.658 1.82.658.439 0 .84-.051 1.204-.154.374-.112.71-.252 1.008-.42v1.106a4.29 4.29 0 0 1-2.212.574Zm9.496-.756a3.979 3.979 0 0 1-.924.49 4.632 4.632 0 0 1-.728.182 4.51 4.51 0 0 1-.91.084c-1.223 0-2.152-.331-2.786-.994-.635-.663-.952-1.591-.952-2.786 0-.588.084-1.115.252-1.582.177-.467.42-.859.728-1.176a3.028 3.028 0 0 1 1.092-.742 3.49 3.49 0 0 1 1.372-.266c.522 0 .989.089 1.4.266.41.177.746.439 1.008.784.27.345.452.775.546 1.288.102.504.102 1.092 0 1.764h-5.124c.046.784.28 1.372.7 1.764.42.383 1.045.574 1.876.574.56 0 1.04-.08 1.442-.238a5.07 5.07 0 0 0 1.008-.518v1.106Zm-2.884-5.698c-.532 0-.99.163-1.372.49-.383.327-.626.821-.728 1.484h3.906c.037-.672-.117-1.167-.462-1.484-.346-.327-.794-.49-1.344-.49Zm4.358 1.484h3.36v1.12h-3.36v-1.12Zm6.445 4.83h-1.232v-7.266h1.078l.126 1.302h.028c.196-.41.49-.751.882-1.022.392-.28.905-.42 1.54-.42.56 0 1.017.135 1.372.406.364.261.606.658.728 1.19.205-.495.518-.882.938-1.162.429-.29.947-.434 1.554-.434.672 0 1.204.191 1.596.574.392.373.588.952.588 1.736v5.096h-1.246v-4.942c0-.476-.117-.821-.35-1.036-.234-.224-.551-.336-.952-.336-.271 0-.509.042-.714.126a1.676 1.676 0 0 0-.546.322 2.72 2.72 0 0 0-.434.49 6.149 6.149 0 0 0-.364.588v4.788h-1.232v-5.082c0-.467-.117-.789-.35-.966-.234-.177-.551-.266-.952-.266-.262 0-.495.033-.7.098a1.96 1.96 0 0 0-.56.28c-.159.121-.304.27-.434.448a4.106 4.106 0 0 0-.364.56v4.928Zm15.383-1.386a4.219 4.219 0 0 1-.322.532 2.444 2.444 0 0 1-1.19.854c-.261.093-.569.14-.924.14-.653 0-1.181-.182-1.582-.546-.401-.373-.602-.905-.602-1.596 0-.793.275-1.377.826-1.75.56-.373 1.353-.56 2.38-.56h1.358v-.602c0-.504-.131-.863-.392-1.078-.261-.215-.709-.322-1.344-.322a3.63 3.63 0 0 0-1.274.224c-.401.14-.761.303-1.078.49v-1.106a5.42 5.42 0 0 1 1.05-.462 4.374 4.374 0 0 1 1.47-.238c.915 0 1.61.191 2.086.574.476.373.714.957.714 1.75v4.2c.009.103.014.21.014.322l.028.322c.009.093.019.173.028.238h-1.12a6.4 6.4 0 0 1-.084-.546 8.197 8.197 0 0 1-.028-.63l-.014-.21Zm-2.17.42c.383 0 .709-.08.98-.238.271-.159.49-.34.658-.546.168-.215.289-.42.364-.616.075-.205.112-.35.112-.434v-.532h-1.232c-.737 0-1.274.107-1.61.322-.327.205-.49.518-.49.938 0 .327.098.593.294.798.196.205.504.308.924.308Zm8.727-5.348c-.56 0-1.017.13-1.372.392a2.871 2.871 0 0 0-.84.98v4.942h-1.232v-7.266h1.162l.042 1.302h.028a2.46 2.46 0 0 1 .924-1.036c.42-.27.952-.406 1.596-.406.719 0 1.288.191 1.708.574.429.373.644.952.644 1.736v5.096h-1.232v-4.97c0-.504-.126-.854-.378-1.05-.252-.196-.602-.294-1.05-.294Zm8.865 4.928a4.34 4.34 0 0 1-.322.532 2.444 2.444 0 0 1-1.19.854c-.262.093-.57.14-.924.14-.654 0-1.181-.182-1.582-.546-.402-.373-.602-.905-.602-1.596 0-.793.275-1.377.826-1.75.56-.373 1.353-.56 2.38-.56h1.358v-.602c0-.504-.131-.863-.392-1.078-.262-.215-.71-.322-1.344-.322a3.63 3.63 0 0 0-1.274.224c-.402.14-.761.303-1.078.49v-1.106a5.42 5.42 0 0 1 1.05-.462 4.374 4.374 0 0 1 1.47-.238c.914 0 1.61.191 2.086.574.476.373.714.957.714 1.75v4.2c.009.103.014.21.014.322.009.112.018.22.028.322.009.093.018.173.028.238h-1.12a6.4 6.4 0 0 1-.084-.546 8.197 8.197 0 0 1-.028-.63l-.014-.21Zm-2.17.42c.382 0 .709-.08.98-.238.27-.159.49-.34.658-.546.168-.215.289-.42.364-.616.074-.205.112-.35.112-.434v-.532h-1.232c-.738 0-1.274.107-1.61.322-.327.205-.49.518-.49.938 0 .327.098.593.294.798.196.205.504.308.924.308Zm11.527.35c0 .467-.07.891-.21 1.274a2.298 2.298 0 0 1-.644.994c-.289.27-.667.48-1.134.63-.457.15-1.013.224-1.666.224-.355 0-.667-.019-.938-.056a4.3 4.3 0 0 1-.714-.154 2.58 2.58 0 0 1-.504-.196 2.326 2.326 0 0 1-.35-.196v-1.106c.149.084.303.159.462.224a4.115 4.115 0 0 0 1.204.322c.252.037.537.056.854.056.896 0 1.521-.168 1.876-.504.355-.336.532-.835.532-1.498v-1.12c-.215.43-.518.775-.91 1.036-.383.261-.859.392-1.428.392a3.44 3.44 0 0 1-1.232-.224 3.049 3.049 0 0 1-1.022-.658 3.397 3.397 0 0 1-.7-1.106c-.168-.448-.252-.966-.252-1.554 0-.597.084-1.115.252-1.554a3.37 3.37 0 0 1 .7-1.12 2.922 2.922 0 0 1 1.036-.672 3.47 3.47 0 0 1 1.246-.224c.579 0 1.064.13 1.456.392.401.261.714.616.938 1.064l.014-.154c0-.168.009-.369.028-.602.019-.243.037-.43.056-.56h1.12c-.019.13-.037.317-.056.56a16.97 16.97 0 0 0-.014.602v5.488Zm-3.346-.784c.308 0 .588-.047.84-.14.261-.103.485-.257.672-.462a2.04 2.04 0 0 0 .448-.756 3.15 3.15 0 0 0 .168-1.078c0-.83-.205-1.451-.616-1.862-.401-.41-.91-.616-1.526-.616a2.42 2.42 0 0 0-.868.154 1.9 1.9 0 0 0-.686.462 2.27 2.27 0 0 0-.448.784 3.15 3.15 0 0 0-.168 1.078c0 .41.056.77.168 1.078.112.299.266.55.462.756.196.196.425.345.686.448.271.103.56.154.868.154Zm11.128.784a3.979 3.979 0 0 1-.924.49 4.604 4.604 0 0 1-.728.182 4.51 4.51 0 0 1-.91.084c-1.223 0-2.151-.331-2.786-.994-.635-.663-.952-1.591-.952-2.786 0-.588.084-1.115.252-1.582.177-.467.42-.859.728-1.176a3.028 3.028 0 0 1 1.092-.742 3.49 3.49 0 0 1 1.372-.266 3.5 3.5 0 0 1 1.4.266c.411.177.747.439 1.008.784.271.345.453.775.546 1.288.103.504.103 1.092 0 1.764h-5.124c.047.784.28 1.372.7 1.764.42.383 1.045.574 1.876.574.56 0 1.041-.08 1.442-.238a5.07 5.07 0 0 0 1.008-.518v1.106Zm-2.884-5.698c-.532 0-.989.163-1.372.49-.383.327-.625.821-.728 1.484h3.906c.037-.672-.117-1.167-.462-1.484-.345-.327-.793-.49-1.344-.49Zm8.124.28a3.779 3.779 0 0 0-1.428.406c-.42.215-.733.55-.938 1.008v4.62h-1.232v-7.266h1.078l.126 1.582h.028c.205-.43.499-.803.882-1.12.392-.327.887-.527 1.484-.602v1.372Zm1.34 6.118c-.271 0-.49-.084-.658-.252a.885.885 0 0 1-.252-.63c0-.261.084-.476.252-.644.168-.168.387-.252.658-.252.261 0 .476.084.644.252a.872.872 0 0 1 .252.644.885.885 0 0 1-.252.63.873.873 0 0 1-.644.252ZM232.26 48.029c-.56 0-1.068-.084-1.526-.252a3.345 3.345 0 0 1-1.148-.742 3.277 3.277 0 0 1-.728-1.19c-.168-.467-.252-.999-.252-1.596 0-.588.084-1.115.252-1.582.178-.467.425-.859.742-1.176a3.076 3.076 0 0 1 1.162-.742 4.278 4.278 0 0 1 1.554-.266c.448 0 .859.051 1.232.154.374.093.682.233.924.42v1.106a3.25 3.25 0 0 0-1.008-.434 4.156 4.156 0 0 0-1.134-.154c-.849 0-1.474.22-1.876.658-.392.439-.588 1.11-.588 2.016 0 .905.192 1.577.574 2.016.383.439.99.658 1.82.658.439 0 .84-.051 1.204-.154.374-.112.71-.252 1.008-.42v1.106a4.29 4.29 0 0 1-2.212.574Zm4.946-10.178v10.038h-1.232V37.85h1.232Zm4.99 10.178c-.495 0-.957-.084-1.386-.252a3.229 3.229 0 0 1-1.12-.728 3.542 3.542 0 0 1-.728-1.19c-.177-.467-.266-1.003-.266-1.61 0-.597.089-1.13.266-1.596.177-.476.42-.873.728-1.19.317-.317.691-.56 1.12-.728a3.767 3.767 0 0 1 1.386-.252c.504 0 .971.084 1.4.252.429.168.798.41 1.106.728.317.317.565.714.742 1.19.187.467.28.999.28 1.596 0 .607-.093 1.143-.28 1.61a3.433 3.433 0 0 1-.742 1.19c-.308.317-.677.56-1.106.728a3.807 3.807 0 0 1-1.4.252Zm0-1.106a2.5 2.5 0 0 0 .896-.154 2.04 2.04 0 0 0 .728-.49c.205-.224.364-.504.476-.84.112-.336.168-.733.168-1.19 0-.457-.056-.854-.168-1.19a2.168 2.168 0 0 0-.476-.826 1.828 1.828 0 0 0-.728-.49 2.322 2.322 0 0 0-.896-.168c-.327 0-.625.056-.896.168a1.845 1.845 0 0 0-.714.49c-.196.215-.35.49-.462.826a3.774 3.774 0 0 0-.168 1.19c0 .457.056.854.168 1.19.112.336.266.616.462.84.205.215.443.378.714.49a2.5 2.5 0 0 0 .896.154Zm9.692-.336c-.196.41-.499.756-.91 1.036-.401.27-.929.406-1.582.406-.672 0-1.218-.187-1.638-.56-.411-.383-.616-.97-.616-1.764v-5.082h1.246v5.082c0 .243.033.443.098.602a1.041 1.041 0 0 0 .714.56c.168.037.35.056.546.056.541 0 .975-.121 1.302-.364a3.06 3.06 0 0 0 .84-.994v-4.942h1.232v7.266h-1.092l-.112-1.302h-.028Zm8.462-.126a2.918 2.918 0 0 1-.938 1.148c-.401.28-.91.42-1.526.42a3.47 3.47 0 0 1-1.246-.224 2.997 2.997 0 0 1-1.036-.7 3.5 3.5 0 0 1-.714-1.176c-.177-.476-.266-1.036-.266-1.68 0-.635.089-1.185.266-1.652.177-.476.415-.868.714-1.176a2.76 2.76 0 0 1 1.036-.7 3.393 3.393 0 0 1 1.26-.238c.551 0 1.027.117 1.428.35.401.224.723.546.966.966V37.85h1.232v10.038h-1.078l-.098-1.428Zm-2.282.462c.317 0 .611-.051.882-.154.271-.112.504-.28.7-.504.205-.224.364-.504.476-.84.121-.336.182-.728.182-1.176 0-.448-.061-.84-.182-1.176a2.305 2.305 0 0 0-.476-.84 1.736 1.736 0 0 0-.7-.49 2.287 2.287 0 0 0-.882-.168c-.644 0-1.171.229-1.582.686-.401.448-.602 1.11-.602 1.988 0 .887.205 1.554.616 2.002.411.448.933.672 1.568.672Zm7.792 1.106c-.382 0-.723-.033-1.022-.098a4.808 4.808 0 0 1-.77-.21 4.282 4.282 0 0 1-.546-.28 3.732 3.732 0 0 1-.35-.266v-1.106c.094.093.22.196.378.308.159.103.35.2.574.294.224.093.476.173.756.238.29.056.612.084.966.084.523 0 .938-.084 1.246-.252.308-.168.462-.453.462-.854 0-.215-.051-.387-.154-.518a.932.932 0 0 0-.392-.308 2.416 2.416 0 0 0-.588-.196 28.153 28.153 0 0 0-.686-.14 26 26 0 0 1-.91-.21 3.202 3.202 0 0 1-.812-.35 1.92 1.92 0 0 1-.588-.602c-.149-.252-.224-.579-.224-.98 0-.653.252-1.167.756-1.54.514-.373 1.228-.56 2.142-.56.514 0 .966.051 1.358.154.402.103.71.215.924.336v1.106a3.286 3.286 0 0 0-.91-.392c-.354-.112-.798-.168-1.33-.168-.55 0-.975.075-1.274.224-.289.15-.434.42-.434.812a.82.82 0 0 0 .126.476 1 1 0 0 0 .336.28c.15.065.318.117.504.154.187.037.383.08.588.126.318.065.644.135.98.21.336.075.635.191.896.35.271.159.49.373.658.644.178.261.266.616.266 1.064 0 .42-.084.77-.252 1.05a1.93 1.93 0 0 1-.672.672c-.27.159-.583.27-.938.336-.345.075-.7.112-1.064.112Zm5.116-.056c-.271 0-.49-.084-.658-.252a.885.885 0 0 1-.252-.63c0-.261.084-.476.252-.644.168-.168.387-.252.658-.252.261 0 .476.084.644.252a.872.872 0 0 1 .252.644.885.885 0 0 1-.252.63.873.873 0 0 1-.644.252Zm5.386.056c-.495 0-.957-.084-1.386-.252a3.229 3.229 0 0 1-1.12-.728 3.542 3.542 0 0 1-.728-1.19c-.177-.467-.266-1.003-.266-1.61 0-.597.089-1.13.266-1.596.177-.476.42-.873.728-1.19.317-.317.691-.56 1.12-.728a3.767 3.767 0 0 1 1.386-.252c.504 0 .971.084 1.4.252.429.168.798.41 1.106.728.317.317.565.714.742 1.19.187.467.28.999.28 1.596 0 .607-.093 1.143-.28 1.61a3.433 3.433 0 0 1-.742 1.19c-.308.317-.677.56-1.106.728a3.807 3.807 0 0 1-1.4.252Zm0-1.106a2.5 2.5 0 0 0 .896-.154 2.04 2.04 0 0 0 .728-.49c.205-.224.364-.504.476-.84.112-.336.168-.733.168-1.19 0-.457-.056-.854-.168-1.19a2.168 2.168 0 0 0-.476-.826 1.828 1.828 0 0 0-.728-.49 2.322 2.322 0 0 0-.896-.168c-.327 0-.625.056-.896.168a1.845 1.845 0 0 0-.714.49c-.196.215-.35.49-.462.826a3.774 3.774 0 0 0-.168 1.19c0 .457.056.854.168 1.19.112.336.266.616.462.84.205.215.443.378.714.49a2.5 2.5 0 0 0 .896.154Zm12.871.966h-1.89l-1.54-5.614-1.582 5.614h-1.834l-1.652-7.266h1.302l1.386 6.342 1.764-6.342h1.386l1.722 6.272 1.372-6.272h1.218l-1.652 7.266Zm6.527-6.314c-.56 0-1.018.13-1.372.392a2.85 2.85 0 0 0-.84.98v4.942h-1.232v-7.266h1.162l.042 1.302h.028a2.46 2.46 0 0 1 .924-1.036c.42-.27.952-.406 1.596-.406.718 0 1.288.191 1.708.574.429.373.644.952.644 1.736v5.096h-1.232v-4.97c0-.504-.126-.854-.378-1.05-.252-.196-.602-.294-1.05-.294Zm10.39 5.698a3.738 3.738 0 0 1-.378.238 4.34 4.34 0 0 1-.546.252 4.576 4.576 0 0 1-.728.182c-.27.056-.574.084-.91.084-1.222 0-2.151-.331-2.786-.994-.634-.663-.952-1.591-.952-2.786 0-.588.084-1.115.252-1.582.178-.467.42-.859.728-1.176a3.028 3.028 0 0 1 1.092-.742 3.5 3.5 0 0 1 1.372-.266c.523 0 .99.089 1.4.266.411.177.747.439 1.008.784.271.345.453.775.546 1.288.103.504.103 1.092 0 1.764h-5.124c.047.784.28 1.372.7 1.764.42.383 1.046.574 1.876.574.56 0 1.041-.08 1.442-.238a5.015 5.015 0 0 0 1.008-.518v1.106Zm-2.884-5.698c-.532 0-.989.163-1.372.49-.382.327-.625.821-.728 1.484h3.906c.038-.672-.116-1.167-.462-1.484-.345-.327-.793-.49-1.344-.49Zm8.124.28a3.79 3.79 0 0 0-1.428.406c-.42.215-.732.55-.938 1.008v4.62h-1.232v-7.266h1.078l.126 1.582h.028c.206-.43.5-.803.882-1.12.392-.327.887-.527 1.484-.602v1.372Z"/>
    <path fill="#4E496B" d="m452 309 5.774 10h-11.548L452 309Zm1 9v31h-2v-31h2Zm-183-93-5.774 10h11.548L270 225Zm-1 9v31h2v-31h-2Zm183-9 5.774 10h-11.548L452 225Zm1 9v30h-2v-30h2Z"/>
    <path fill="#fff" stroke="#67B0F8" stroke-width="2" d="M340 266H200a4 4 0 0 0-4 4v34a4 4 0 0 0 4 4h140a4 4 0 0 0 4-4v-34a4 4 0 0 0-4-4Zm0 84H200a4 4 0 0 0-4 4v34a4 4 0 0 0 4 4h140a4 4 0 0 0 4-4v-34a4 4 0 0 0-4-4Z"/>
    <path fill="#18123D" d="M252.185 374.614a4.24 4.24 0 0 1-.322.532 2.444 2.444 0 0 1-1.19.854c-.261.093-.569.14-.924.14-.653 0-1.181-.182-1.582-.546-.401-.373-.602-.905-.602-1.596 0-.793.275-1.377.826-1.75.56-.373 1.353-.56 2.38-.56h1.358v-.602c0-.504-.131-.863-.392-1.078-.261-.215-.709-.322-1.344-.322a3.63 3.63 0 0 0-1.274.224c-.401.14-.761.303-1.078.49v-1.106a5.383 5.383 0 0 1 1.05-.462 4.367 4.367 0 0 1 1.47-.238c.915 0 1.61.191 2.086.574.476.373.714.957.714 1.75v4.2c.009.103.014.21.014.322l.028.322c.009.093.019.173.028.238h-1.12a6.439 6.439 0 0 1-.084-.546 8.21 8.21 0 0 1-.028-.63l-.014-.21Zm-2.17.42c.383 0 .709-.079.98-.238.271-.159.49-.341.658-.546.168-.215.289-.42.364-.616.075-.205.112-.35.112-.434v-.532h-1.232c-.737 0-1.274.107-1.61.322-.327.205-.49.518-.49.938 0 .327.098.593.294.798.196.205.504.308.924.308Zm9.945-.336a2.6 2.6 0 0 1-.91 1.036c-.401.271-.929.406-1.582.406-.672 0-1.218-.187-1.638-.56-.411-.383-.616-.971-.616-1.764v-5.082h1.246v5.082c0 .243.033.443.098.602a1.041 1.041 0 0 0 .714.56c.168.037.35.056.546.056.541 0 .975-.121 1.302-.364.327-.243.607-.574.84-.994v-4.942h1.232V376H260.1l-.112-1.302h-.028Zm8.462-.126a2.916 2.916 0 0 1-.938 1.148c-.401.28-.91.42-1.526.42-.439 0-.854-.075-1.246-.224a3.002 3.002 0 0 1-1.036-.7 3.494 3.494 0 0 1-.714-1.176c-.177-.476-.266-1.036-.266-1.68 0-.635.089-1.185.266-1.652.177-.476.415-.868.714-1.176a2.76 2.76 0 0 1 1.036-.7 3.387 3.387 0 0 1 1.26-.238c.551 0 1.027.117 1.428.35.401.224.723.546.966.966v-3.948h1.232V376h-1.078l-.098-1.428Zm-2.282.462c.317 0 .611-.051.882-.154.271-.112.504-.28.7-.504.205-.224.364-.504.476-.84.121-.336.182-.728.182-1.176 0-.448-.061-.84-.182-1.176a2.305 2.305 0 0 0-.476-.84 1.739 1.739 0 0 0-.7-.49 2.287 2.287 0 0 0-.882-.168c-.644 0-1.171.229-1.582.686-.401.448-.602 1.111-.602 1.988 0 .887.205 1.554.616 2.002.411.448.933.672 1.568.672Zm6.099-7.364c-.252 0-.453-.075-.602-.224a.805.805 0 0 1-.224-.574c0-.224.074-.415.224-.574.149-.159.35-.238.602-.238.242 0 .434.079.574.238.14.159.21.35.21.574 0 .224-.07.415-.21.574-.14.149-.332.224-.574.224Zm.602 1.064V376h-1.232v-7.266h1.232Zm5.564 7.112c-.15.084-.341.154-.574.21a3.177 3.177 0 0 1-.742.084c-.355 0-.658-.051-.91-.154a1.75 1.75 0 0 1-.602-.406 1.705 1.705 0 0 1-.35-.588 2.416 2.416 0 0 1-.098-.686v-4.522h-.868v-1.05h.868v-1.526h1.232v1.526h2.114v1.05h-2.114v4.368c0 .308.074.532.224.672.158.14.434.21.826.21.364 0 .695-.103.994-.308v1.12Zm4.553.294c-.495 0-.957-.084-1.386-.252a3.224 3.224 0 0 1-1.12-.728 3.542 3.542 0 0 1-.728-1.19c-.178-.467-.266-1.003-.266-1.61 0-.597.088-1.129.266-1.596.177-.476.42-.873.728-1.19.317-.317.69-.56 1.12-.728a3.767 3.767 0 0 1 1.386-.252c.504 0 .97.084 1.4.252.429.168.798.411 1.106.728.317.317.564.714.742 1.19.186.467.28.999.28 1.596 0 .607-.094 1.143-.28 1.61a3.448 3.448 0 0 1-.742 1.19c-.308.317-.677.56-1.106.728-.43.168-.896.252-1.4.252Zm0-1.106c.326 0 .625-.051.896-.154.28-.112.522-.275.728-.49.205-.224.364-.504.476-.84.112-.336.168-.733.168-1.19 0-.457-.056-.854-.168-1.19a2.17 2.17 0 0 0-.476-.826 1.838 1.838 0 0 0-.728-.49 2.325 2.325 0 0 0-.896-.168c-.327 0-.626.056-.896.168a1.849 1.849 0 0 0-.714.49c-.196.215-.35.49-.462.826a3.775 3.775 0 0 0-.168 1.19c0 .457.056.854.168 1.19.112.336.266.616.462.84.205.215.443.378.714.49.27.103.569.154.896.154Zm8.627-5.068a3.795 3.795 0 0 0-1.428.406c-.42.215-.732.551-.938 1.008V376h-1.232v-7.266h1.078l.126 1.582h.028c.206-.429.5-.803.882-1.12.392-.327.887-.527 1.484-.602v1.372Z"/>
    <path stroke="#4E496B" stroke-width="2" d="M270 314v35"/>
    <path fill="#18123D" d="M253.941 291.889h-1.988l-2.492-7.266h1.33l2.212 6.608 2.198-6.608h1.232l-2.492 7.266Zm4.264-8.33c-.252 0-.452-.075-.602-.224a.81.81 0 0 1-.224-.574.81.81 0 0 1 .224-.574c.15-.159.35-.238.602-.238.243 0 .434.079.574.238.14.159.21.35.21.574 0 .224-.07.415-.21.574-.14.149-.331.224-.574.224Zm.602 1.064v7.266h-1.232v-7.266h1.232Zm7.791 6.65a3.919 3.919 0 0 1-.378.238c-.15.084-.332.168-.546.252a4.632 4.632 0 0 1-.728.182 4.51 4.51 0 0 1-.91.084c-1.223 0-2.152-.331-2.786-.994-.635-.663-.952-1.591-.952-2.786 0-.588.084-1.115.252-1.582.177-.467.42-.859.728-1.176a3.024 3.024 0 0 1 1.092-.742c.42-.177.877-.266 1.372-.266.522 0 .989.089 1.4.266.41.177.746.439 1.008.784.27.345.452.775.546 1.288.102.504.102 1.092 0 1.764h-5.124c.046.784.28 1.372.7 1.764.42.383 1.045.574 1.876.574.56 0 1.04-.079 1.442-.238a5.07 5.07 0 0 0 1.008-.518v1.106Zm-2.884-5.698c-.532 0-.99.163-1.372.49-.383.327-.626.821-.728 1.484h3.906c.037-.672-.117-1.167-.462-1.484-.346-.327-.794-.49-1.344-.49Zm12.436 6.314h-1.89l-1.54-5.614-1.582 5.614h-1.834l-1.652-7.266h1.302l1.386 6.342 1.764-6.342h1.386l1.722 6.272 1.372-6.272h1.218l-1.652 7.266Zm8.795-.616a3.685 3.685 0 0 1-.378.238 4.34 4.34 0 0 1-.546.252 4.576 4.576 0 0 1-.728.182c-.27.056-.574.084-.91.084-1.222 0-2.151-.331-2.786-.994-.634-.663-.952-1.591-.952-2.786 0-.588.084-1.115.252-1.582.178-.467.42-.859.728-1.176a3.024 3.024 0 0 1 1.092-.742 3.5 3.5 0 0 1 1.372-.266c.523 0 .99.089 1.4.266.411.177.747.439 1.008.784.271.345.453.775.546 1.288.103.504.103 1.092 0 1.764h-5.124c.047.784.28 1.372.7 1.764.42.383 1.046.574 1.876.574.56 0 1.041-.079 1.442-.238a5.015 5.015 0 0 0 1.008-.518v1.106Zm-2.884-5.698c-.532 0-.989.163-1.372.49-.382.327-.625.821-.728 1.484h3.906c.038-.672-.116-1.167-.462-1.484-.345-.327-.793-.49-1.344-.49Zm8.124.28a3.795 3.795 0 0 0-1.428.406c-.42.215-.732.551-.938 1.008v4.62h-1.232v-7.266h1.078l.126 1.582h.028c.206-.429.5-.803.882-1.12.392-.327.887-.527 1.484-.602v1.372Z"/>
    <path fill="#fff" stroke="#67B0F8" stroke-width="2" d="M522 350H382a4 4 0 0 0-4 4v34a4 4 0 0 0 4 4h140a4 4 0 0 0 4-4v-34a4 4 0 0 0-4-4Z"/>
    <path fill="#18123D" d="M397.776 361.855a3.784 3.784 0 0 0-1.428.406c-.42.215-.733.551-.938 1.008v4.62h-1.232v-7.266h1.078l.126 1.582h.028c.205-.429.499-.803.882-1.12.392-.327.887-.527 1.484-.602v1.372Zm7.079 5.418a3.919 3.919 0 0 1-.378.238c-.15.084-.332.168-.546.252a4.632 4.632 0 0 1-.728.182 4.51 4.51 0 0 1-.91.084c-1.223 0-2.152-.331-2.786-.994-.635-.663-.952-1.591-.952-2.786 0-.588.084-1.115.252-1.582.177-.467.42-.859.728-1.176a3.024 3.024 0 0 1 1.092-.742c.42-.177.877-.266 1.372-.266.522 0 .989.089 1.4.266.41.177.746.439 1.008.784.27.345.452.775.546 1.288.102.504.102 1.092 0 1.764h-5.124c.046.784.28 1.372.7 1.764.42.383 1.045.574 1.876.574.56 0 1.04-.079 1.442-.238a5.07 5.07 0 0 0 1.008-.518v1.106Zm-2.884-5.698c-.532 0-.99.163-1.372.49-.383.327-.626.821-.728 1.484h3.906c.037-.672-.117-1.167-.462-1.484-.346-.327-.794-.49-1.344-.49Zm6.849 6.454c-.382 0-.723-.033-1.022-.098a4.808 4.808 0 0 1-.77-.21 4.282 4.282 0 0 1-.546-.28 3.732 3.732 0 0 1-.35-.266v-1.106c.094.093.22.196.378.308.159.103.35.201.574.294.224.093.476.173.756.238.29.056.612.084.966.084.523 0 .938-.084 1.246-.252.308-.168.462-.453.462-.854 0-.215-.051-.387-.154-.518a.932.932 0 0 0-.392-.308 2.429 2.429 0 0 0-.588-.196 28.153 28.153 0 0 0-.686-.14 24.708 24.708 0 0 1-.91-.21 3.213 3.213 0 0 1-.812-.35 1.92 1.92 0 0 1-.588-.602c-.149-.252-.224-.579-.224-.98 0-.653.252-1.167.756-1.54.514-.373 1.228-.56 2.142-.56.514 0 .966.051 1.358.154.402.103.71.215.924.336v1.106a3.286 3.286 0 0 0-.91-.392c-.354-.112-.798-.168-1.33-.168-.55 0-.975.075-1.274.224-.289.149-.434.42-.434.812a.82.82 0 0 0 .126.476c.084.112.196.205.336.28.15.065.318.117.504.154.187.037.383.079.588.126.318.065.644.135.98.21.336.075.635.191.896.35.271.159.49.373.658.644.178.261.266.616.266 1.064 0 .42-.084.77-.252 1.05a1.93 1.93 0 0 1-.672.672c-.27.159-.583.271-.938.336-.345.075-.7.112-1.064.112Zm7.426 0c-.495 0-.957-.084-1.386-.252a3.233 3.233 0 0 1-1.12-.728 3.542 3.542 0 0 1-.728-1.19c-.177-.467-.266-1.003-.266-1.61 0-.597.089-1.129.266-1.596.177-.476.42-.873.728-1.19.317-.317.691-.56 1.12-.728a3.767 3.767 0 0 1 1.386-.252c.504 0 .971.084 1.4.252.429.168.798.411 1.106.728.317.317.565.714.742 1.19.187.467.28.999.28 1.596 0 .607-.093 1.143-.28 1.61a3.433 3.433 0 0 1-.742 1.19c-.308.317-.677.56-1.106.728a3.807 3.807 0 0 1-1.4.252Zm0-1.106a2.5 2.5 0 0 0 .896-.154 2.04 2.04 0 0 0 .728-.49c.205-.224.364-.504.476-.84.112-.336.168-.733.168-1.19 0-.457-.056-.854-.168-1.19a2.17 2.17 0 0 0-.476-.826 1.831 1.831 0 0 0-.728-.49 2.322 2.322 0 0 0-.896-.168c-.327 0-.625.056-.896.168a1.849 1.849 0 0 0-.714.49c-.196.215-.35.49-.462.826a3.775 3.775 0 0 0-.168 1.19c0 .457.056.854.168 1.19.112.336.266.616.462.84.205.215.443.378.714.49a2.5 2.5 0 0 0 .896.154Zm9.692-.336c-.196.411-.5.756-.91 1.036-.402.271-.929.406-1.582.406-.672 0-1.218-.187-1.638-.56-.411-.383-.616-.971-.616-1.764v-5.082h1.246v5.082c0 .243.032.443.098.602.074.149.172.271.294.364.121.093.261.159.42.196.168.037.35.056.546.056.541 0 .975-.121 1.302-.364.326-.243.606-.574.84-.994v-4.942h1.232v7.266h-1.092l-.112-1.302h-.028Zm6.852-4.732a3.784 3.784 0 0 0-1.428.406c-.42.215-.733.551-.938 1.008v4.62h-1.232v-7.266h1.078l.126 1.582h.028c.205-.429.499-.803.882-1.12.392-.327.886-.527 1.484-.602v1.372Zm4.432 6.174c-.56 0-1.068-.084-1.526-.252a3.345 3.345 0 0 1-1.148-.742 3.277 3.277 0 0 1-.728-1.19c-.168-.467-.252-.999-.252-1.596 0-.588.084-1.115.252-1.582.178-.467.425-.859.742-1.176a3.073 3.073 0 0 1 1.162-.742 4.284 4.284 0 0 1 1.554-.266c.448 0 .859.051 1.232.154.374.093.682.233.924.42v1.106a3.243 3.243 0 0 0-1.008-.434 4.145 4.145 0 0 0-1.134-.154c-.849 0-1.474.219-1.876.658-.392.439-.588 1.111-.588 2.016s.192 1.577.574 2.016c.383.439.99.658 1.82.658.439 0 .84-.051 1.204-.154.374-.112.71-.252 1.008-.42v1.106a4.29 4.29 0 0 1-2.212.574Zm9.496-.756a3.919 3.919 0 0 1-.378.238c-.15.084-.332.168-.546.252a4.632 4.632 0 0 1-.728.182 4.51 4.51 0 0 1-.91.084c-1.223 0-2.152-.331-2.786-.994-.635-.663-.952-1.591-.952-2.786 0-.588.084-1.115.252-1.582.177-.467.42-.859.728-1.176a3.024 3.024 0 0 1 1.092-.742c.42-.177.877-.266 1.372-.266.522 0 .989.089 1.4.266.41.177.746.439 1.008.784.27.345.452.775.546 1.288.102.504.102 1.092 0 1.764h-5.124c.046.784.28 1.372.7 1.764.42.383 1.045.574 1.876.574.56 0 1.04-.079 1.442-.238a5.07 5.07 0 0 0 1.008-.518v1.106Zm-2.884-5.698c-.532 0-.99.163-1.372.49-.383.327-.626.821-.728 1.484h3.906c.037-.672-.117-1.167-.462-1.484-.346-.327-.794-.49-1.344-.49Zm4.358 1.484h3.36v1.12h-3.36v-1.12Zm6.445 4.83h-1.232v-7.266h1.078l.126 1.302h.028c.196-.411.49-.751.882-1.022.392-.28.905-.42 1.54-.42.56 0 1.017.135 1.372.406.364.261.606.658.728 1.19.205-.495.518-.882.938-1.162.429-.289.947-.434 1.554-.434.672 0 1.204.191 1.596.574.392.373.588.952.588 1.736v5.096h-1.246v-4.942c0-.476-.117-.821-.35-1.036-.234-.224-.551-.336-.952-.336-.271 0-.509.042-.714.126a1.681 1.681 0 0 0-.546.322 2.71 2.71 0 0 0-.434.49 6.225 6.225 0 0 0-.364.588v4.788h-1.232v-5.082c0-.467-.117-.789-.35-.966-.234-.177-.551-.266-.952-.266-.262 0-.495.033-.7.098a1.96 1.96 0 0 0-.56.28 2.179 2.179 0 0 0-.434.448 4.124 4.124 0 0 0-.364.56v4.928Zm15.383-1.386a4.24 4.24 0 0 1-.322.532 2.444 2.444 0 0 1-1.19.854c-.261.093-.569.14-.924.14-.653 0-1.181-.182-1.582-.546-.401-.373-.602-.905-.602-1.596 0-.793.275-1.377.826-1.75.56-.373 1.353-.56 2.38-.56h1.358v-.602c0-.504-.131-.863-.392-1.078-.261-.215-.709-.322-1.344-.322a3.63 3.63 0 0 0-1.274.224c-.401.14-.761.303-1.078.49v-1.106a5.383 5.383 0 0 1 1.05-.462 4.367 4.367 0 0 1 1.47-.238c.915 0 1.61.191 2.086.574.476.373.714.957.714 1.75v4.2c.009.103.014.21.014.322l.028.322c.009.093.019.173.028.238h-1.12a6.439 6.439 0 0 1-.084-.546 8.21 8.21 0 0 1-.028-.63l-.014-.21Zm-2.17.42c.383 0 .709-.079.98-.238.271-.159.49-.341.658-.546.168-.215.289-.42.364-.616.075-.205.112-.35.112-.434v-.532h-1.232c-.737 0-1.274.107-1.61.322-.327.205-.49.518-.49.938 0 .327.098.593.294.798.196.205.504.308.924.308Zm8.727-5.348c-.56 0-1.017.131-1.372.392a2.874 2.874 0 0 0-.84.98v4.942h-1.232v-7.266h1.162l.042 1.302h.028a2.46 2.46 0 0 1 .924-1.036c.42-.271.952-.406 1.596-.406.719 0 1.288.191 1.708.574.429.373.644.952.644 1.736v5.096h-1.232v-4.97c0-.504-.126-.854-.378-1.05-.252-.196-.602-.294-1.05-.294Zm8.865 4.928a4.363 4.363 0 0 1-.322.532 2.444 2.444 0 0 1-1.19.854c-.262.093-.57.14-.924.14-.654 0-1.181-.182-1.582-.546-.402-.373-.602-.905-.602-1.596 0-.793.275-1.377.826-1.75.56-.373 1.353-.56 2.38-.56h1.358v-.602c0-.504-.131-.863-.392-1.078-.262-.215-.71-.322-1.344-.322a3.63 3.63 0 0 0-1.274.224c-.402.14-.761.303-1.078.49v-1.106a5.383 5.383 0 0 1 1.05-.462 4.367 4.367 0 0 1 1.47-.238c.914 0 1.61.191 2.086.574.476.373.714.957.714 1.75v4.2c.009.103.014.21.014.322.009.112.018.219.028.322.009.093.018.173.028.238h-1.12a6.439 6.439 0 0 1-.084-.546 8.21 8.21 0 0 1-.028-.63l-.014-.21Zm-2.17.42c.382 0 .709-.079.98-.238.27-.159.49-.341.658-.546.168-.215.289-.42.364-.616.074-.205.112-.35.112-.434v-.532h-1.232c-.738 0-1.274.107-1.61.322-.327.205-.49.518-.49.938 0 .327.098.593.294.798.196.205.504.308.924.308Zm11.527.35c0 .467-.07.891-.21 1.274a2.3 2.3 0 0 1-.644.994c-.289.271-.667.481-1.134.63-.457.149-1.013.224-1.666.224-.355 0-.667-.019-.938-.056a4.3 4.3 0 0 1-.714-.154 2.562 2.562 0 0 1-.504-.196 2.326 2.326 0 0 1-.35-.196v-1.106c.149.084.303.159.462.224a4.105 4.105 0 0 0 1.204.322c.252.037.537.056.854.056.896 0 1.521-.168 1.876-.504.355-.336.532-.835.532-1.498v-1.12a2.645 2.645 0 0 1-.91 1.036c-.383.261-.859.392-1.428.392a3.44 3.44 0 0 1-1.232-.224 3.049 3.049 0 0 1-1.022-.658 3.397 3.397 0 0 1-.7-1.106c-.168-.448-.252-.966-.252-1.554 0-.597.084-1.115.252-1.554a3.37 3.37 0 0 1 .7-1.12 2.914 2.914 0 0 1 1.036-.672 3.476 3.476 0 0 1 1.246-.224c.579 0 1.064.131 1.456.392.401.261.714.616.938 1.064l.014-.154c0-.168.009-.369.028-.602.019-.243.037-.429.056-.56h1.12a9.267 9.267 0 0 0-.056.56 16.97 16.97 0 0 0-.014.602v5.488Zm-3.346-.784c.308 0 .588-.047.84-.14.261-.103.485-.257.672-.462.196-.205.345-.457.448-.756a3.15 3.15 0 0 0 .168-1.078c0-.831-.205-1.451-.616-1.862-.401-.411-.91-.616-1.526-.616a2.42 2.42 0 0 0-.868.154c-.261.103-.49.257-.686.462a2.27 2.27 0 0 0-.448.784 3.15 3.15 0 0 0-.168 1.078c0 .411.056.77.168 1.078.112.299.266.551.462.756.196.196.425.345.686.448.271.103.56.154.868.154Zm11.128.784a3.919 3.919 0 0 1-.378.238 4.34 4.34 0 0 1-.546.252 4.604 4.604 0 0 1-.728.182 4.51 4.51 0 0 1-.91.084c-1.223 0-2.151-.331-2.786-.994-.635-.663-.952-1.591-.952-2.786 0-.588.084-1.115.252-1.582.177-.467.42-.859.728-1.176a3.024 3.024 0 0 1 1.092-.742c.42-.177.877-.266 1.372-.266.523 0 .989.089 1.4.266.411.177.747.439 1.008.784.271.345.453.775.546 1.288.103.504.103 1.092 0 1.764h-5.124c.047.784.28 1.372.7 1.764.42.383 1.045.574 1.876.574.56 0 1.041-.079 1.442-.238a5.07 5.07 0 0 0 1.008-.518v1.106Zm-2.884-5.698c-.532 0-.989.163-1.372.49-.383.327-.625.821-.728 1.484h3.906c.037-.672-.117-1.167-.462-1.484-.345-.327-.793-.49-1.344-.49Zm8.124.28a3.784 3.784 0 0 0-1.428.406c-.42.215-.733.551-.938 1.008v4.62h-1.232v-7.266h1.078l.126 1.582h.028c.205-.429.499-.803.882-1.12.392-.327.887-.527 1.484-.602v1.372Zm1.34 6.118c-.271 0-.49-.084-.658-.252a.884.884 0 0 1-.252-.63c0-.261.084-.476.252-.644.168-.168.387-.252.658-.252.261 0 .476.084.644.252a.873.873 0 0 1 .252.644.884.884 0 0 1-.252.63.873.873 0 0 1-.644.252Zm-73.22 15.916h-1.988l-2.492-7.266h1.33l2.212 6.608 2.198-6.608h1.232l-2.492 7.266Zm4.264-8.33c-.252 0-.452-.075-.602-.224a.81.81 0 0 1-.224-.574.81.81 0 0 1 .224-.574c.15-.159.35-.238.602-.238.243 0 .434.079.574.238.14.159.21.35.21.574 0 .224-.07.415-.21.574-.14.149-.331.224-.574.224Zm.602 1.064v7.266h-1.232v-7.266h1.232Zm7.791 6.65a3.919 3.919 0 0 1-.378.238c-.15.084-.332.168-.546.252a4.632 4.632 0 0 1-.728.182 4.51 4.51 0 0 1-.91.084c-1.223 0-2.152-.331-2.786-.994-.635-.663-.952-1.591-.952-2.786 0-.588.084-1.115.252-1.582.177-.467.42-.859.728-1.176a3.024 3.024 0 0 1 1.092-.742c.42-.177.877-.266 1.372-.266.522 0 .989.089 1.4.266.41.177.746.439 1.008.784.27.345.452.775.546 1.288.102.504.102 1.092 0 1.764h-5.124c.046.784.28 1.372.7 1.764.42.383 1.045.574 1.876.574.56 0 1.04-.079 1.442-.238a5.07 5.07 0 0 0 1.008-.518v1.106Zm-2.884-5.698c-.532 0-.99.163-1.372.49-.383.327-.626.821-.728 1.484h3.906c.037-.672-.117-1.167-.462-1.484-.346-.327-.794-.49-1.344-.49Zm12.436 6.314h-1.89l-1.54-5.614-1.582 5.614h-1.834l-1.652-7.266h1.302l1.386 6.342 1.764-6.342h1.386l1.722 6.272 1.372-6.272h1.218l-1.652 7.266Zm8.795-.616a3.685 3.685 0 0 1-.378.238 4.34 4.34 0 0 1-.546.252 4.576 4.576 0 0 1-.728.182c-.27.056-.574.084-.91.084-1.222 0-2.151-.331-2.786-.994-.634-.663-.952-1.591-.952-2.786 0-.588.084-1.115.252-1.582.178-.467.42-.859.728-1.176a3.024 3.024 0 0 1 1.092-.742 3.5 3.5 0 0 1 1.372-.266c.523 0 .99.089 1.4.266.411.177.747.439 1.008.784.271.345.453.775.546 1.288.103.504.103 1.092 0 1.764h-5.124c.047.784.28 1.372.7 1.764.42.383 1.046.574 1.876.574.56 0 1.041-.079 1.442-.238a5.015 5.015 0 0 0 1.008-.518v1.106Zm-2.884-5.698c-.532 0-.989.163-1.372.49-.382.327-.625.821-.728 1.484h3.906c.038-.672-.116-1.167-.462-1.484-.345-.327-.793-.49-1.344-.49Zm8.124.28a3.795 3.795 0 0 0-1.428.406c-.42.215-.732.551-.938 1.008v4.62h-1.232v-7.266h1.078l.126 1.582h.028c.206-.429.5-.803.882-1.12.392-.327.887-.527 1.484-.602v1.372Z"/>
    <path stroke="#4E496B" stroke-width="2" d="M452 349v-15.007a4.995 4.995 0 0 0-5-4.993H296"/>
    <path fill="#4E496B" d="m270 309 5.774 10h-11.548L270 309Zm1 9v6.007h-2V318h2Zm4 10h134v2H275v-2Zm-4-3.993a3.994 3.994 0 0 0 4 3.993v2c-3.312 0-6-2.677-6-5.993h2Z"/>
    <path stroke="#4E496B" stroke-width="2" d="M452 265v-15.007a4.995 4.995 0 0 0-5-4.993H296"/>
    <path fill="#4E496B" d="m270 225 5.774 10h-11.548L270 225Zm1 9v6.007h-2V234h2Zm4 10h134v2H275v-2Zm-4-3.993a3.994 3.994 0 0 0 4 3.993v2c-3.312 0-6-2.677-6-5.993h2ZM270 141l-5.774 10h11.548L270 141Zm-1 9v31h2v-31h-2Z"/>
    <path stroke="#4E496B" stroke-width="2" d="M452 181v-15.007a4.995 4.995 0 0 0-5-4.993H296"/>
    <path fill="#4E496B" d="m270 141 5.774 10h-11.548L270 141Zm1 9v6.007h-2V150h2Zm4 10h134v2H275v-2Zm-4-3.993a3.994 3.994 0 0 0 4 3.993v2c-3.312 0-6-2.677-6-5.993h2ZM270 57l5.774 10h-11.548L270 57Zm1 9v31h-2V66h2Z"/>
    <path stroke="#4E496B" stroke-width="2" d="M88 97V81.993A4.994 4.994 0 0 1 93 77h139"/>
    <path fill="#4E496B" d="m270 57-5.774 10h11.548L270 57Zm-1 9v6.007h2V66h-2Zm-4 10H119v2h146v-2Zm4-3.993A3.994 3.994 0 0 1 265 76v2c3.312 0 6-2.677 6-5.993h-2Z"/>
    <path fill="#18123D" d="M396.315 452v-7.091h1.052v1.071h.074c.129-.351.363-.635.702-.854.338-.218.72-.328 1.145-.328.08 0 .18.002.3.005s.21.008.272.014v1.108a3.083 3.083 0 0 0-.254-.042 2.557 2.557 0 0 0-.411-.032c-.344 0-.652.072-.923.217a1.59 1.59 0 0 0-.868 1.445V452h-1.089Zm7.594.148c-.684 0-1.273-.151-1.768-.453a3.03 3.03 0 0 1-1.141-1.274c-.264-.548-.397-1.185-.397-1.911s.133-1.367.397-1.921c.268-.557.64-.991 1.117-1.301.481-.314 1.041-.471 1.681-.471.369 0 .734.061 1.094.184.36.124.688.324.983.601.296.273.531.637.707 1.089.175.452.263 1.01.263 1.671v.462h-5.466v-.942h4.358c0-.4-.08-.757-.24-1.071a1.807 1.807 0 0 0-.674-.743 1.886 1.886 0 0 0-1.025-.273c-.434 0-.81.108-1.127.324a2.124 2.124 0 0 0-.724.831c-.17.341-.254.707-.254 1.098v.628c0 .536.092.99.277 1.362.187.369.448.651.78.845.332.191.719.286 1.159.286.286 0 .544-.04.775-.12.234-.083.436-.206.605-.369.169-.167.3-.373.392-.619l1.053.296a2.33 2.33 0 0 1-.559.941 2.713 2.713 0 0 1-.969.628 3.59 3.59 0 0 1-1.297.222Zm9.616-5.651-.979.277a1.803 1.803 0 0 0-.272-.475 1.317 1.317 0 0 0-.48-.388c-.204-.102-.464-.152-.781-.152-.434 0-.795.1-1.084.3-.287.197-.43.447-.43.752 0 .271.099.485.296.642.197.157.504.288.923.392l1.053.259c.634.154 1.106.389 1.417.706.311.314.466.719.466 1.214 0 .406-.117.77-.351 1.09-.231.32-.554.572-.969.757-.416.184-.899.277-1.45.277-.723 0-1.322-.157-1.796-.471-.474-.314-.774-.773-.9-1.376l1.034-.258c.099.381.285.667.559.858.277.191.638.287 1.085.287.507 0 .911-.108 1.209-.324.302-.218.453-.48.453-.784a.826.826 0 0 0-.259-.619c-.172-.169-.437-.296-.794-.379l-1.182-.277c-.649-.153-1.126-.392-1.431-.715-.301-.326-.452-.734-.452-1.224 0-.4.112-.754.337-1.061.227-.308.537-.55.928-.725.394-.176.84-.263 1.338-.263.702 0 1.253.154 1.653.461.403.308.689.714.859 1.219Zm4.65 5.651c-.64 0-1.202-.153-1.685-.457a3.11 3.11 0 0 1-1.127-1.279c-.267-.548-.401-1.188-.401-1.921 0-.738.134-1.383.401-1.934a3.096 3.096 0 0 1 1.127-1.283c.483-.305 1.045-.457 1.685-.457.64 0 1.2.152 1.68.457.483.304.859.732 1.127 1.283.27.551.406 1.196.406 1.934 0 .733-.136 1.373-.406 1.921a3.068 3.068 0 0 1-1.127 1.279c-.48.304-1.04.457-1.68.457Zm0-.979c.486 0 .886-.125 1.2-.374.314-.249.546-.577.697-.983.151-.406.226-.847.226-1.321 0-.473-.075-.915-.226-1.324a2.23 2.23 0 0 0-.697-.993c-.314-.252-.714-.379-1.2-.379-.487 0-.887.127-1.201.379a2.237 2.237 0 0 0-.697.993c-.15.409-.226.851-.226 1.324 0 .474.076.915.226 1.321.151.406.384.734.697.983.314.249.714.374 1.201.374Zm9.345-2.068v-4.192h1.089V452h-1.089v-1.2h-.074a2.32 2.32 0 0 1-.776.918c-.351.25-.794.374-1.329.374-.444 0-.837-.097-1.182-.291a2.028 2.028 0 0 1-.813-.886c-.197-.397-.295-.897-.295-1.5v-4.506h1.089v4.432c0 .517.145.929.434 1.237.293.308.665.462 1.117.462.271 0 .547-.069.827-.208.283-.138.52-.351.711-.637.194-.286.291-.651.291-1.094Zm3.085 2.899v-7.091h1.052v1.071h.074c.129-.351.363-.635.702-.854.338-.218.72-.328 1.145-.328.08 0 .18.002.3.005s.21.008.272.014v1.108a3.083 3.083 0 0 0-.254-.042 2.557 2.557 0 0 0-.411-.032c-.344 0-.652.072-.923.217a1.59 1.59 0 0 0-.868 1.445V452h-1.089Zm7.501.148c-.664 0-1.237-.157-1.717-.471a3.072 3.072 0 0 1-1.108-1.297c-.258-.551-.388-1.181-.388-1.889 0-.72.133-1.355.397-1.906.268-.554.64-.987 1.117-1.297.481-.314 1.041-.471 1.681-.471.498 0 .948.092 1.348.277.4.184.728.443.983.775.256.333.414.72.476 1.164h-1.09a1.69 1.69 0 0 0-.554-.859c-.283-.252-.665-.379-1.145-.379-.424 0-.797.111-1.117.333a2.159 2.159 0 0 0-.743.928c-.176.397-.263.863-.263 1.399 0 .547.086 1.024.258 1.431.176.406.422.721.739.946.32.225.695.337 1.126.337.284 0 .54-.049.771-.148.231-.098.427-.24.587-.424.16-.185.274-.407.341-.665h1.09a2.535 2.535 0 0 1-.457 1.131c-.24.332-.559.597-.956.794-.394.194-.852.291-1.376.291Zm7.354 0c-.683 0-1.272-.151-1.768-.453a3.034 3.034 0 0 1-1.14-1.274c-.265-.548-.397-1.185-.397-1.911s.132-1.367.397-1.921c.268-.557.64-.991 1.117-1.301.48-.314 1.04-.471 1.681-.471.369 0 .734.061 1.094.184.36.124.688.324.983.601.295.273.531.637.706 1.089.176.452.263 1.01.263 1.671v.462h-5.465v-.942h4.358c0-.4-.08-.757-.241-1.071a1.794 1.794 0 0 0-.674-.743 1.88 1.88 0 0 0-1.024-.273c-.434 0-.81.108-1.127.324a2.126 2.126 0 0 0-.725.831 2.44 2.44 0 0 0-.254 1.098v.628c0 .536.093.99.277 1.362a2 2 0 0 0 .781.845 2.28 2.28 0 0 0 1.158.286c.287 0 .545-.04.776-.12.234-.083.435-.206.605-.369.169-.167.3-.373.392-.619l1.053.296a2.33 2.33 0 0 1-.559.941 2.73 2.73 0 0 1-.969.628 3.591 3.591 0 0 1-1.298.222Zm8.656-4.709v1.016h-4.136v-1.016h4.136Zm1.917 4.561v-7.091h1.053v1.108h.092c.148-.379.386-.672.716-.882.329-.212.725-.318 1.186-.318.468 0 .857.106 1.168.318.314.21.559.503.734.882h.074c.182-.366.454-.657.817-.872.363-.219.799-.328 1.307-.328.634 0 1.152.198 1.555.595.404.394.605 1.008.605 1.842V452h-1.089v-4.746c0-.523-.143-.897-.43-1.122a1.592 1.592 0 0 0-1.011-.337c-.498 0-.885.151-1.158.453-.274.298-.411.677-.411 1.136V452h-1.108v-4.857c0-.403-.131-.727-.393-.974-.261-.249-.598-.374-1.011-.374-.283 0-.548.076-.794.227-.243.15-.44.36-.591.628-.147.264-.221.57-.221.918V452h-1.09Zm13.386.166c-.45 0-.857-.084-1.224-.254a2.095 2.095 0 0 1-.872-.743c-.216-.326-.323-.72-.323-1.182 0-.406.08-.735.24-.988.16-.255.374-.455.641-.6.268-.145.564-.252.887-.323.326-.074.654-.132.983-.175.431-.056.78-.097 1.048-.125.271-.031.468-.082.591-.152.126-.071.189-.194.189-.37v-.037c0-.455-.124-.809-.374-1.061-.246-.253-.62-.379-1.121-.379-.521 0-.928.114-1.224.342-.295.227-.503.47-.623.729l-1.034-.369c.185-.431.431-.767.738-1.007.311-.243.65-.412 1.016-.508a4.238 4.238 0 0 1 1.09-.147c.227 0 .489.027.784.083.299.052.587.161.864.328.28.166.512.417.697.752.184.336.277.785.277 1.348V452h-1.09v-.96h-.055a1.935 1.935 0 0 1-.369.494 2.164 2.164 0 0 1-.688.448c-.287.123-.636.184-1.048.184Zm.166-.978c.431 0 .794-.085 1.089-.254a1.724 1.724 0 0 0 .905-1.501v-.997c-.046.055-.147.106-.304.152a4.962 4.962 0 0 1-.536.116 24.954 24.954 0 0 1-1.043.138 4.173 4.173 0 0 0-.794.18c-.243.08-.44.202-.591.365-.148.16-.222.379-.222.656 0 .378.14.664.42.858.283.191.642.287 1.076.287Zm6.162-3.454V452h-1.09v-7.091h1.053v1.108h.092a2.03 2.03 0 0 1 .757-.868c.339-.221.776-.332 1.311-.332.48 0 .901.098 1.261.295.36.194.64.49.84.887.2.394.3.892.3 1.495V452h-1.09v-4.432c0-.557-.144-.991-.433-1.302-.29-.314-.687-.471-1.192-.471a1.9 1.9 0 0 0-.932.227c-.271.15-.485.371-.642.66-.157.289-.235.64-.235 1.052Zm8.601 4.432a2.87 2.87 0 0 1-1.223-.254 2.095 2.095 0 0 1-.872-.743c-.216-.326-.324-.72-.324-1.182 0-.406.08-.735.24-.988.161-.255.374-.455.642-.6.268-.145.563-.252.887-.323.326-.074.654-.132.983-.175.431-.056.78-.097 1.048-.125.271-.031.468-.082.591-.152.126-.071.189-.194.189-.37v-.037c0-.455-.125-.809-.374-1.061-.246-.253-.62-.379-1.122-.379-.52 0-.928.114-1.223.342-.296.227-.503.47-.623.729l-1.034-.369c.184-.431.43-.767.738-1.007.311-.243.65-.412 1.016-.508a4.23 4.23 0 0 1 1.089-.147c.228 0 .49.027.785.083.299.052.586.161.863.328.28.166.513.417.697.752.185.336.277.785.277 1.348V452h-1.089v-.96h-.055a1.918 1.918 0 0 1-.37.494 2.141 2.141 0 0 1-.688.448c-.286.123-.635.184-1.048.184Zm.167-.978c.431 0 .794-.085 1.089-.254a1.731 1.731 0 0 0 .905-1.501v-.997c-.046.055-.148.106-.305.152a4.94 4.94 0 0 1-.535.116 25.025 25.025 0 0 1-1.044.138 4.19 4.19 0 0 0-.794.18c-.243.08-.44.202-.59.365-.148.16-.222.379-.222.656 0 .378.14.664.42.858.283.191.642.287 1.076.287Zm7.934 3.619c-.526 0-.978-.068-1.357-.203a2.874 2.874 0 0 1-1.542-1.219l.868-.609c.098.129.223.277.374.443.151.169.357.315.619.438.264.126.61.19 1.038.19.573 0 1.045-.139 1.417-.416.373-.277.559-.711.559-1.302v-1.44h-.092c-.08.129-.194.289-.342.48a1.928 1.928 0 0 1-.628.503c-.271.145-.637.217-1.098.217a2.955 2.955 0 0 1-1.542-.406c-.453-.271-.811-.665-1.076-1.182-.262-.517-.392-1.145-.392-1.883 0-.727.127-1.359.383-1.898.255-.541.611-.96 1.066-1.255.456-.299.982-.448 1.579-.448.462 0 .828.077 1.099.231.274.15.483.323.628.517.147.19.261.347.341.471h.111v-1.127h1.053v7.294c0 .609-.139 1.105-.416 1.487a2.365 2.365 0 0 1-1.108.844 4.17 4.17 0 0 1-1.542.273Zm-.037-3.896c.437 0 .807-.101 1.108-.301.302-.2.531-.487.688-.863.157-.375.236-.825.236-1.348 0-.511-.077-.962-.231-1.352a2.026 2.026 0 0 0-.684-.919c-.301-.222-.674-.333-1.117-.333-.461 0-.846.117-1.154.351a2.136 2.136 0 0 0-.688.942c-.15.394-.226.831-.226 1.311 0 .493.077.928.231 1.307.157.375.388.671.692.886.308.212.69.319 1.145.319Zm8.07 1.237c-.683 0-1.273-.151-1.768-.453a3.021 3.021 0 0 1-1.14-1.274c-.265-.548-.398-1.185-.398-1.911s.133-1.367.398-1.921a3.12 3.12 0 0 1 1.117-1.301c.48-.314 1.04-.471 1.68-.471.369 0 .734.061 1.094.184.36.124.688.324.984.601.295.273.53.637.706 1.089.175.452.263 1.01.263 1.671v.462h-5.466v-.942h4.358c0-.4-.08-.757-.24-1.071a1.807 1.807 0 0 0-.674-.743 1.884 1.884 0 0 0-1.025-.273c-.434 0-.809.108-1.126.324a2.118 2.118 0 0 0-.725.831 2.44 2.44 0 0 0-.254 1.098v.628c0 .536.092.99.277 1.362.188.369.448.651.78.845.333.191.719.286 1.159.286.286 0 .545-.04.775-.12.234-.083.436-.206.605-.369.169-.167.3-.373.393-.619l1.052.296a2.34 2.34 0 0 1-.558.941 2.726 2.726 0 0 1-.97.628 3.59 3.59 0 0 1-1.297.222Zm4.593-.148v-7.091h1.053v1.071h.074c.129-.351.363-.635.701-.854a2.073 2.073 0 0 1 1.145-.328c.08 0 .18.002.3.005s.211.008.273.014v1.108a3.083 3.083 0 0 0-.254-.042 2.557 2.557 0 0 0-.411-.032c-.345 0-.652.072-.923.217a1.59 1.59 0 0 0-.868 1.445V452h-1.09Zm4.819.074a.803.803 0 0 1-.587-.245.798.798 0 0 1-.244-.586c0-.228.081-.423.244-.586a.8.8 0 0 1 .587-.245c.227 0 .423.081.586.245a.8.8 0 0 1 .245.586.78.78 0 0 1-.116.415.86.86 0 0 1-.3.305.788.788 0 0 1-.415.111Zm-74.949 16.092c-.45 0-.857-.084-1.224-.254a2.095 2.095 0 0 1-.872-.743c-.216-.326-.323-.72-.323-1.182 0-.406.08-.735.24-.988.16-.255.374-.455.641-.6.268-.145.564-.252.887-.323.326-.074.654-.132.983-.175.431-.056.78-.097 1.048-.125.271-.031.468-.082.591-.152.126-.071.189-.194.189-.37v-.037c0-.455-.124-.809-.374-1.061-.246-.253-.62-.379-1.122-.379-.52 0-.927.114-1.223.342-.295.227-.503.47-.623.729l-1.034-.369c.184-.431.431-.767.738-1.007.311-.243.65-.412 1.016-.508a4.23 4.23 0 0 1 1.089-.147c.228 0 .49.027.785.083.299.052.587.161.864.328.28.166.512.417.697.752.184.336.277.785.277 1.348V468h-1.09v-.96h-.055a1.918 1.918 0 0 1-.37.494 2.147 2.147 0 0 1-.687.448c-.287.123-.636.184-1.048.184Zm.166-.978c.431 0 .794-.085 1.089-.254a1.724 1.724 0 0 0 .905-1.501v-.997c-.046.055-.148.106-.305.152a4.888 4.888 0 0 1-.535.116 25.724 25.724 0 0 1-1.043.138 4.156 4.156 0 0 0-.794.18 1.36 1.36 0 0 0-.591.365c-.148.16-.222.379-.222.656 0 .378.14.664.42.858.283.191.642.287 1.076.287Zm9.541-2.087v-4.192h1.089V468h-1.089v-1.2h-.074c-.166.36-.425.666-.775.918-.351.25-.795.374-1.33.374a2.37 2.37 0 0 1-1.182-.291 2.026 2.026 0 0 1-.812-.886c-.197-.397-.296-.897-.296-1.5v-4.506h1.09v4.432c0 .517.144.929.434 1.237.292.308.664.462 1.117.462.271 0 .546-.069.826-.208.283-.138.52-.351.711-.637.194-.286.291-.651.291-1.094Zm5.762 3.047c-.59 0-1.112-.15-1.565-.448-.452-.302-.806-.726-1.061-1.274-.256-.551-.383-1.202-.383-1.953 0-.745.127-1.391.383-1.939.255-.548.611-.971 1.066-1.269.456-.299.982-.448 1.579-.448.462 0 .826.077 1.094.231.271.15.477.323.619.517.144.19.257.347.337.471h.092v-3.491h1.089V468h-1.052v-1.089h-.129c-.08.129-.194.292-.342.489a2.04 2.04 0 0 1-.632.522c-.274.15-.639.226-1.095.226Zm.148-.979c.437 0 .807-.114 1.108-.342.302-.23.531-.549.688-.955.157-.41.235-.882.235-1.417 0-.53-.077-.993-.23-1.39-.154-.4-.382-.711-.684-.933-.301-.224-.674-.337-1.117-.337-.461 0-.846.119-1.154.356a2.124 2.124 0 0 0-.688.956c-.151.4-.226.849-.226 1.348 0 .504.077.963.231 1.375.157.41.388.736.692.979.308.24.69.36 1.145.36Zm5.249.831v-7.091h1.09V468h-1.09Zm.554-8.273a.773.773 0 0 1-.549-.217.694.694 0 0 1-.226-.521c0-.203.075-.377.226-.522a.773.773 0 0 1 .549-.217c.212 0 .394.072.545.217a.692.692 0 0 1 .231.522.688.688 0 0 1-.231.521.759.759 0 0 1-.545.217Zm5.615 1.182v.923h-3.675v-.923h3.675Zm-2.604-1.699h1.09v6.759c0 .308.044.538.134.692a.691.691 0 0 0 .35.305c.145.049.297.074.457.074a1.846 1.846 0 0 0 .481-.056l.221.979a2.232 2.232 0 0 1-.309.083c-.132.031-.3.046-.503.046-.308 0-.61-.066-.905-.198a1.8 1.8 0 0 1-.73-.605c-.19-.271-.286-.612-.286-1.025v-7.054Zm7.047 8.938c-.64 0-1.202-.153-1.685-.457a3.107 3.107 0 0 1-1.126-1.279c-.268-.548-.402-1.188-.402-1.921 0-.738.134-1.383.402-1.934a3.094 3.094 0 0 1 1.126-1.283c.483-.305 1.045-.457 1.685-.457.64 0 1.201.152 1.681.457.483.304.858.732 1.126 1.283.271.551.406 1.196.406 1.934 0 .733-.135 1.373-.406 1.921a3.066 3.066 0 0 1-1.126 1.279c-.48.304-1.041.457-1.681.457Zm0-.979c.487 0 .887-.125 1.201-.374.313-.249.546-.577.697-.983.15-.406.226-.847.226-1.321 0-.473-.076-.915-.226-1.324a2.237 2.237 0 0 0-.697-.993c-.314-.252-.714-.379-1.201-.379-.486 0-.886.127-1.2.379a2.23 2.23 0 0 0-.697.993 3.796 3.796 0 0 0-.226 1.324c0 .474.075.915.226 1.321.151.406.383.734.697.983.314.249.714.374 1.2.374Zm4.876.831v-7.091h1.053v1.071h.074c.129-.351.363-.635.702-.854.338-.218.72-.328 1.144-.328.08 0 .18.002.3.005.121.003.211.008.273.014v1.108a3.083 3.083 0 0 0-.254-.042 2.557 2.557 0 0 0-.411-.032c-.345 0-.652.072-.923.217a1.59 1.59 0 0 0-.868 1.445V468h-1.09Z"/>
    <path fill="#4E496B" d="m452.774 393 5.774 10H447l5.774-10Zm1 9v31h-2v-31h2Z"/>
</svg>
