<svg width="700" height="300" viewBox="0 0 700 300" fill="none" xmlns="http://www.w3.org/2000/svg">
<path d="M350 137C350 140.516 350 143.104 350 145C350 147.762 347.761 150 345 150L201 150" stroke="#4E496B" stroke-width="2"/>
<rect x="15" y="171" width="188" height="38" rx="4" fill="white" stroke="#5282FF" stroke-width="2"/>
<path d="M38.5612 184.962V195H37.3292V184.962H38.5612ZM43.5514 195.14C43.0567 195.14 42.5947 195.056 42.1654 194.888C41.7361 194.72 41.3627 194.477 41.0454 194.16C40.7374 193.833 40.4947 193.437 40.3174 192.97C40.1401 192.503 40.0514 191.967 40.0514 191.36C40.0514 190.763 40.1401 190.231 40.3174 189.764C40.4947 189.288 40.7374 188.891 41.0454 188.574C41.3627 188.257 41.7361 188.014 42.1654 187.846C42.5947 187.678 43.0567 187.594 43.5514 187.594C44.0554 187.594 44.5221 187.678 44.9514 187.846C45.3807 188.014 45.7494 188.257 46.0574 188.574C46.3747 188.891 46.6221 189.288 46.7994 189.764C46.9861 190.231 47.0794 190.763 47.0794 191.36C47.0794 191.967 46.9861 192.503 46.7994 192.97C46.6221 193.437 46.3747 193.833 46.0574 194.16C45.7494 194.477 45.3807 194.72 44.9514 194.888C44.5221 195.056 44.0554 195.14 43.5514 195.14ZM43.5514 194.034C43.8781 194.034 44.1767 193.983 44.4474 193.88C44.7274 193.768 44.9701 193.605 45.1754 193.39C45.3807 193.166 45.5394 192.886 45.6514 192.55C45.7634 192.214 45.8194 191.817 45.8194 191.36C45.8194 190.903 45.7634 190.506 45.6514 190.17C45.5394 189.834 45.3807 189.559 45.1754 189.344C44.9701 189.12 44.7274 188.957 44.4474 188.854C44.1767 188.742 43.8781 188.686 43.5514 188.686C43.2247 188.686 42.9261 188.742 42.6554 188.854C42.3847 188.957 42.1467 189.12 41.9414 189.344C41.7454 189.559 41.5914 189.834 41.4794 190.17C41.3674 190.506 41.3114 190.903 41.3114 191.36C41.3114 191.817 41.3674 192.214 41.4794 192.55C41.5914 192.886 41.7454 193.166 41.9414 193.39C42.1467 193.605 42.3847 193.768 42.6554 193.88C42.9261 193.983 43.2247 194.034 43.5514 194.034ZM51.7171 195.14C51.1571 195.14 50.6484 195.056 50.1911 194.888C49.7431 194.711 49.3604 194.463 49.0431 194.146C48.7258 193.819 48.4831 193.423 48.3151 192.956C48.1471 192.489 48.0631 191.957 48.0631 191.36C48.0631 190.772 48.1471 190.245 48.3151 189.778C48.4924 189.311 48.7398 188.919 49.0571 188.602C49.3744 188.275 49.7618 188.028 50.2191 187.86C50.6764 187.683 51.1944 187.594 51.7731 187.594C52.2211 187.594 52.6318 187.645 53.0051 187.748C53.3784 187.841 53.6864 187.981 53.9291 188.168V189.274C53.6304 189.078 53.2944 188.933 52.9211 188.84C52.5571 188.737 52.1791 188.686 51.7871 188.686C50.9378 188.686 50.3124 188.905 49.9111 189.344C49.5191 189.783 49.3231 190.455 49.3231 191.36C49.3231 192.265 49.5144 192.937 49.8971 193.376C50.2798 193.815 50.8864 194.034 51.7171 194.034C52.1558 194.034 52.5571 193.983 52.9211 193.88C53.2944 193.768 53.6304 193.628 53.9291 193.46V194.566C53.6678 194.725 53.3504 194.86 52.9771 194.972C52.6131 195.084 52.1931 195.14 51.7171 195.14ZM57.3067 191.906H56.6627V195H55.4307V184.962H56.6627V190.856H57.3627L59.9107 187.734H61.3107L58.3287 191.318L61.3667 195H59.8687L57.3067 191.906ZM69.278 191.36C69.278 192.004 69.1894 192.564 69.012 193.04C68.8347 193.507 68.5967 193.899 68.298 194.216C67.9994 194.524 67.654 194.757 67.262 194.916C66.87 195.065 66.4594 195.14 66.03 195.14C65.47 195.14 64.98 195.009 64.56 194.748C64.1494 194.477 63.8227 194.104 63.58 193.628L63.538 195H62.376V184.962H63.608L63.58 189.148C63.8227 188.672 64.1494 188.294 64.56 188.014C64.9707 187.734 65.4794 187.594 66.086 187.594C66.506 187.594 66.9074 187.673 67.29 187.832C67.682 187.981 68.0227 188.215 68.312 188.532C68.6107 188.84 68.844 189.232 69.012 189.708C69.1894 190.175 69.278 190.725 69.278 191.36ZM65.848 194.034C66.492 194.034 67.01 193.815 67.402 193.376C67.8034 192.928 68.004 192.256 68.004 191.36C68.004 190.483 67.8034 189.82 67.402 189.372C67.01 188.915 66.492 188.686 65.848 188.686C65.5307 188.686 65.232 188.742 64.952 188.854C64.6814 188.966 64.4434 189.134 64.238 189.358C64.042 189.573 63.8834 189.848 63.762 190.184C63.65 190.52 63.594 190.912 63.594 191.36C63.594 191.808 63.65 192.2 63.762 192.536C63.8834 192.872 64.042 193.152 64.238 193.376C64.4434 193.6 64.6814 193.768 64.952 193.88C65.232 193.983 65.5307 194.034 65.848 194.034ZM73.7526 195.14C73.2579 195.14 72.7959 195.056 72.3666 194.888C71.9372 194.72 71.5639 194.477 71.2466 194.16C70.9386 193.833 70.6959 193.437 70.5186 192.97C70.3412 192.503 70.2526 191.967 70.2526 191.36C70.2526 190.763 70.3412 190.231 70.5186 189.764C70.6959 189.288 70.9386 188.891 71.2466 188.574C71.5639 188.257 71.9372 188.014 72.3666 187.846C72.7959 187.678 73.2579 187.594 73.7526 187.594C74.2566 187.594 74.7232 187.678 75.1526 187.846C75.5819 188.014 75.9506 188.257 76.2586 188.574C76.5759 188.891 76.8232 189.288 77.0006 189.764C77.1872 190.231 77.2806 190.763 77.2806 191.36C77.2806 191.967 77.1872 192.503 77.0006 192.97C76.8232 193.437 76.5759 193.833 76.2586 194.16C75.9506 194.477 75.5819 194.72 75.1526 194.888C74.7232 195.056 74.2566 195.14 73.7526 195.14ZM73.7526 194.034C74.0792 194.034 74.3779 193.983 74.6486 193.88C74.9286 193.768 75.1712 193.605 75.3766 193.39C75.5819 193.166 75.7406 192.886 75.8526 192.55C75.9646 192.214 76.0206 191.817 76.0206 191.36C76.0206 190.903 75.9646 190.506 75.8526 190.17C75.7406 189.834 75.5819 189.559 75.3766 189.344C75.1712 189.12 74.9286 188.957 74.6486 188.854C74.3779 188.742 74.0792 188.686 73.7526 188.686C73.4259 188.686 73.1272 188.742 72.8566 188.854C72.5859 188.957 72.3479 189.12 72.1426 189.344C71.9466 189.559 71.7926 189.834 71.6806 190.17C71.5686 190.506 71.5126 190.903 71.5126 191.36C71.5126 191.817 71.5686 192.214 71.6806 192.55C71.7926 192.886 71.9466 193.166 72.1426 193.39C72.3479 193.605 72.5859 193.768 72.8566 193.88C73.1272 193.983 73.4259 194.034 73.7526 194.034ZM80.9588 192.116L78.9988 195H77.7108L80.3428 191.234L78.0188 187.734H79.4468L81.1828 190.296L82.9328 187.734H84.2068L81.7988 191.206L84.3328 195H82.9048L80.9588 192.116ZM86.3586 195.084C86.0879 195.084 85.8686 195 85.7006 194.832C85.5326 194.655 85.4486 194.445 85.4486 194.202C85.4486 193.941 85.5326 193.726 85.7006 193.558C85.8686 193.39 86.0879 193.306 86.3586 193.306C86.6199 193.306 86.8346 193.39 87.0026 193.558C87.1706 193.726 87.2546 193.941 87.2546 194.202C87.2546 194.445 87.1706 194.655 87.0026 194.832C86.8346 195 86.6199 195.084 86.3586 195.084ZM92.6902 195.14C92.1302 195.14 91.6448 195.009 91.2342 194.748C90.8328 194.487 90.5108 194.127 90.2682 193.67V197.478H89.0362V187.734H90.1142L90.2402 189.148C90.4828 188.672 90.8095 188.294 91.2202 188.014C91.6308 187.734 92.1395 187.594 92.7462 187.594C93.1662 187.594 93.5675 187.673 93.9502 187.832C94.3422 187.981 94.6829 188.215 94.9722 188.532C95.2708 188.84 95.5042 189.232 95.6722 189.708C95.8495 190.175 95.9382 190.725 95.9382 191.36C95.9382 192.004 95.8495 192.564 95.6722 193.04C95.4948 193.507 95.2568 193.899 94.9582 194.216C94.6595 194.524 94.3142 194.757 93.9222 194.916C93.5302 195.065 93.1195 195.14 92.6902 195.14ZM92.5082 194.034C93.1522 194.034 93.6702 193.815 94.0622 193.376C94.4635 192.928 94.6642 192.256 94.6642 191.36C94.6642 190.483 94.4635 189.82 94.0622 189.372C93.6702 188.915 93.1522 188.686 92.5082 188.686C92.1908 188.686 91.8922 188.742 91.6122 188.854C91.3415 188.966 91.1035 189.134 90.8982 189.358C90.7022 189.573 90.5435 189.848 90.4222 190.184C90.3102 190.52 90.2542 190.912 90.2542 191.36C90.2542 191.808 90.3102 192.2 90.4222 192.536C90.5435 192.872 90.7022 193.152 90.8982 193.376C91.1035 193.6 91.3415 193.768 91.6122 193.88C91.8922 193.983 92.1908 194.034 92.5082 194.034ZM101.618 193.614C101.534 193.782 101.427 193.959 101.296 194.146C101.166 194.323 101.002 194.487 100.806 194.636C100.61 194.785 100.377 194.907 100.106 195C99.845 195.093 99.537 195.14 99.1824 195.14C98.529 195.14 98.0017 194.958 97.6004 194.594C97.199 194.221 96.9984 193.689 96.9984 192.998C96.9984 192.205 97.2737 191.621 97.8244 191.248C98.3844 190.875 99.1777 190.688 100.204 190.688H101.562V190.086C101.562 189.582 101.432 189.223 101.17 189.008C100.909 188.793 100.461 188.686 99.8264 188.686C99.3784 188.686 98.9537 188.761 98.5524 188.91C98.151 189.05 97.7917 189.213 97.4744 189.4V188.294C97.7357 188.135 98.0857 187.981 98.5244 187.832C98.9724 187.673 99.4624 187.594 99.9944 187.594C100.909 187.594 101.604 187.785 102.08 188.168C102.556 188.541 102.794 189.125 102.794 189.918V193.824C102.794 193.908 102.794 194.006 102.794 194.118C102.804 194.221 102.808 194.328 102.808 194.44C102.818 194.552 102.827 194.659 102.836 194.762C102.846 194.855 102.855 194.935 102.864 195H101.744C101.716 194.869 101.688 194.687 101.66 194.454C101.642 194.211 101.632 194.001 101.632 193.824L101.618 193.614ZM99.4484 194.034C99.831 194.034 100.158 193.955 100.428 193.796C100.699 193.637 100.918 193.455 101.086 193.25C101.254 193.035 101.376 192.83 101.45 192.634C101.525 192.429 101.562 192.284 101.562 192.2V191.668H100.33C99.593 191.668 99.0564 191.775 98.7204 191.99C98.3937 192.195 98.2304 192.508 98.2304 192.928C98.2304 193.255 98.3284 193.521 98.5244 193.726C98.7204 193.931 99.0284 194.034 99.4484 194.034ZM108.301 194.916C108.133 195.355 107.956 195.737 107.769 196.064C107.583 196.4 107.373 196.685 107.139 196.918C106.906 197.151 106.645 197.324 106.355 197.436C106.066 197.557 105.735 197.618 105.361 197.618C105.175 197.618 105.002 197.604 104.843 197.576C104.685 197.557 104.54 197.52 104.409 197.464V196.274C104.512 196.349 104.643 196.405 104.801 196.442C104.96 196.489 105.133 196.512 105.319 196.512C105.665 196.512 105.949 196.428 106.173 196.26C106.397 196.101 106.612 195.845 106.817 195.49L103.863 187.734H105.221L107.531 193.866L109.827 187.734H111.017L108.301 194.916ZM113.401 184.962V195H112.169V184.962H113.401ZM118.391 195.14C117.897 195.14 117.435 195.056 117.005 194.888C116.576 194.72 116.203 194.477 115.885 194.16C115.577 193.833 115.335 193.437 115.157 192.97C114.98 192.503 114.891 191.967 114.891 191.36C114.891 190.763 114.98 190.231 115.157 189.764C115.335 189.288 115.577 188.891 115.885 188.574C116.203 188.257 116.576 188.014 117.005 187.846C117.435 187.678 117.897 187.594 118.391 187.594C118.895 187.594 119.362 187.678 119.791 187.846C120.221 188.014 120.589 188.257 120.897 188.574C121.215 188.891 121.462 189.288 121.639 189.764C121.826 190.231 121.919 190.763 121.919 191.36C121.919 191.967 121.826 192.503 121.639 192.97C121.462 193.437 121.215 193.833 120.897 194.16C120.589 194.477 120.221 194.72 119.791 194.888C119.362 195.056 118.895 195.14 118.391 195.14ZM118.391 194.034C118.718 194.034 119.017 193.983 119.287 193.88C119.567 193.768 119.81 193.605 120.015 193.39C120.221 193.166 120.379 192.886 120.491 192.55C120.603 192.214 120.659 191.817 120.659 191.36C120.659 190.903 120.603 190.506 120.491 190.17C120.379 189.834 120.221 189.559 120.015 189.344C119.81 189.12 119.567 188.957 119.287 188.854C119.017 188.742 118.718 188.686 118.391 188.686C118.065 188.686 117.766 188.742 117.495 188.854C117.225 188.957 116.987 189.12 116.781 189.344C116.585 189.559 116.431 189.834 116.319 190.17C116.207 190.506 116.151 190.903 116.151 191.36C116.151 191.817 116.207 192.214 116.319 192.55C116.431 192.886 116.585 193.166 116.781 193.39C116.987 193.605 117.225 193.768 117.495 193.88C117.766 193.983 118.065 194.034 118.391 194.034ZM127.54 193.614C127.456 193.782 127.349 193.959 127.218 194.146C127.088 194.323 126.924 194.487 126.728 194.636C126.532 194.785 126.299 194.907 126.028 195C125.767 195.093 125.459 195.14 125.104 195.14C124.451 195.14 123.924 194.958 123.522 194.594C123.121 194.221 122.92 193.689 122.92 192.998C122.92 192.205 123.196 191.621 123.746 191.248C124.306 190.875 125.1 190.688 126.126 190.688H127.484V190.086C127.484 189.582 127.354 189.223 127.092 189.008C126.831 188.793 126.383 188.686 125.748 188.686C125.3 188.686 124.876 188.761 124.474 188.91C124.073 189.05 123.714 189.213 123.396 189.4V188.294C123.658 188.135 124.008 187.981 124.446 187.832C124.894 187.673 125.384 187.594 125.916 187.594C126.831 187.594 127.526 187.785 128.002 188.168C128.478 188.541 128.716 189.125 128.716 189.918V193.824C128.716 193.908 128.716 194.006 128.716 194.118C128.726 194.221 128.73 194.328 128.73 194.44C128.74 194.552 128.749 194.659 128.758 194.762C128.768 194.855 128.777 194.935 128.786 195H127.666C127.638 194.869 127.61 194.687 127.582 194.454C127.564 194.211 127.554 194.001 127.554 193.824L127.54 193.614ZM125.37 194.034C125.753 194.034 126.08 193.955 126.35 193.796C126.621 193.637 126.84 193.455 127.008 193.25C127.176 193.035 127.298 192.83 127.372 192.634C127.447 192.429 127.484 192.284 127.484 192.2V191.668H126.252C125.515 191.668 124.978 191.775 124.642 191.99C124.316 192.195 124.152 192.508 124.152 192.928C124.152 193.255 124.25 193.521 124.446 193.726C124.642 193.931 124.95 194.034 125.37 194.034ZM135.861 193.572C135.637 194.048 135.325 194.431 134.923 194.72C134.522 195 134.013 195.14 133.397 195.14C132.959 195.14 132.543 195.065 132.151 194.916C131.759 194.757 131.414 194.524 131.115 194.216C130.817 193.899 130.579 193.507 130.401 193.04C130.224 192.564 130.135 192.004 130.135 191.36C130.135 190.725 130.224 190.175 130.401 189.708C130.579 189.232 130.817 188.84 131.115 188.532C131.414 188.215 131.759 187.981 132.151 187.832C132.553 187.673 132.973 187.594 133.411 187.594C133.962 187.594 134.438 187.711 134.839 187.944C135.241 188.168 135.563 188.49 135.805 188.91V184.962H137.037V195H135.959L135.861 193.572ZM133.579 194.034C133.897 194.034 134.191 193.983 134.461 193.88C134.732 193.768 134.965 193.6 135.161 193.376C135.367 193.152 135.525 192.872 135.637 192.536C135.759 192.2 135.819 191.808 135.819 191.36C135.819 190.912 135.759 190.52 135.637 190.184C135.525 189.848 135.367 189.568 135.161 189.344C134.965 189.12 134.732 188.957 134.461 188.854C134.191 188.742 133.897 188.686 133.579 188.686C132.935 188.686 132.408 188.915 131.997 189.372C131.596 189.82 131.395 190.483 131.395 191.36C131.395 192.247 131.601 192.914 132.011 193.362C132.422 193.81 132.945 194.034 133.579 194.034ZM143.808 195H141.75L138.25 184.962H139.622L142.828 194.202L146.034 184.962H147.294L143.808 195ZM149.139 186.67C148.887 186.67 148.686 186.595 148.537 186.446C148.388 186.287 148.313 186.096 148.313 185.872C148.313 185.648 148.388 185.457 148.537 185.298C148.686 185.139 148.887 185.06 149.139 185.06C149.382 185.06 149.573 185.139 149.713 185.298C149.853 185.457 149.923 185.648 149.923 185.872C149.923 186.096 149.853 186.287 149.713 186.446C149.573 186.595 149.382 186.67 149.139 186.67ZM149.741 187.734V195H148.509V187.734H149.741ZM157.531 194.384C157.428 194.459 157.302 194.538 157.153 194.622C157.004 194.706 156.822 194.79 156.607 194.874C156.392 194.949 156.15 195.009 155.879 195.056C155.608 195.112 155.305 195.14 154.969 195.14C153.746 195.14 152.818 194.809 152.183 194.146C151.548 193.483 151.231 192.555 151.231 191.36C151.231 190.772 151.315 190.245 151.483 189.778C151.66 189.311 151.903 188.919 152.211 188.602C152.519 188.275 152.883 188.028 153.303 187.86C153.723 187.683 154.18 187.594 154.675 187.594C155.198 187.594 155.664 187.683 156.075 187.86C156.486 188.037 156.822 188.299 157.083 188.644C157.354 188.989 157.536 189.419 157.629 189.932C157.732 190.436 157.732 191.024 157.629 191.696H152.505C152.552 192.48 152.785 193.068 153.205 193.46C153.625 193.843 154.25 194.034 155.081 194.034C155.641 194.034 156.122 193.955 156.523 193.796C156.924 193.637 157.26 193.465 157.531 193.278V194.384ZM154.647 188.686C154.115 188.686 153.658 188.849 153.275 189.176C152.892 189.503 152.65 189.997 152.547 190.66H156.453C156.49 189.988 156.336 189.493 155.991 189.176C155.646 188.849 155.198 188.686 154.647 188.686ZM167.083 195H165.193L163.653 189.386L162.071 195H160.237L158.585 187.734H159.887L161.273 194.076L163.037 187.734H164.423L166.145 194.006L167.517 187.734H168.735L167.083 195ZM175.879 194.384C175.776 194.459 175.65 194.538 175.501 194.622C175.351 194.706 175.169 194.79 174.955 194.874C174.74 194.949 174.497 195.009 174.227 195.056C173.956 195.112 173.653 195.14 173.317 195.14C172.094 195.14 171.165 194.809 170.531 194.146C169.896 193.483 169.579 192.555 169.579 191.36C169.579 190.772 169.663 190.245 169.831 189.778C170.008 189.311 170.251 188.919 170.559 188.602C170.867 188.275 171.231 188.028 171.651 187.86C172.071 187.683 172.528 187.594 173.023 187.594C173.545 187.594 174.012 187.683 174.423 187.86C174.833 188.037 175.169 188.299 175.431 188.644C175.701 188.989 175.883 189.419 175.977 189.932C176.079 190.436 176.079 191.024 175.977 191.696H170.853C170.899 192.48 171.133 193.068 171.553 193.46C171.973 193.843 172.598 194.034 173.429 194.034C173.989 194.034 174.469 193.955 174.871 193.796C175.272 193.637 175.608 193.465 175.879 193.278V194.384ZM172.995 188.686C172.463 188.686 172.005 188.849 171.623 189.176C171.24 189.503 170.997 189.997 170.895 190.66H174.801C174.838 189.988 174.684 189.493 174.339 189.176C173.993 188.849 173.545 188.686 172.995 188.686ZM181.119 188.966C180.596 189.013 180.12 189.148 179.691 189.372C179.271 189.587 178.958 189.923 178.753 190.38V195H177.521V187.734H178.599L178.725 189.316H178.753C178.958 188.887 179.252 188.513 179.635 188.196C180.027 187.869 180.521 187.669 181.119 187.594V188.966Z" fill="#262626"/>
<rect x="256" y="251" width="188" height="38" rx="4" fill="white" stroke="#5282FF" stroke-width="2"/>
<path d="M306.057 264.962V275H304.825V264.962H306.057ZM311.047 275.14C310.553 275.14 310.091 275.056 309.661 274.888C309.232 274.72 308.859 274.477 308.541 274.16C308.233 273.833 307.991 273.437 307.813 272.97C307.636 272.503 307.547 271.967 307.547 271.36C307.547 270.763 307.636 270.231 307.813 269.764C307.991 269.288 308.233 268.891 308.541 268.574C308.859 268.257 309.232 268.014 309.661 267.846C310.091 267.678 310.553 267.594 311.047 267.594C311.551 267.594 312.018 267.678 312.447 267.846C312.877 268.014 313.245 268.257 313.553 268.574C313.871 268.891 314.118 269.288 314.295 269.764C314.482 270.231 314.575 270.763 314.575 271.36C314.575 271.967 314.482 272.503 314.295 272.97C314.118 273.437 313.871 273.833 313.553 274.16C313.245 274.477 312.877 274.72 312.447 274.888C312.018 275.056 311.551 275.14 311.047 275.14ZM311.047 274.034C311.374 274.034 311.673 273.983 311.943 273.88C312.223 273.768 312.466 273.605 312.671 273.39C312.877 273.166 313.035 272.886 313.147 272.55C313.259 272.214 313.315 271.817 313.315 271.36C313.315 270.903 313.259 270.506 313.147 270.17C313.035 269.834 312.877 269.559 312.671 269.344C312.466 269.12 312.223 268.957 311.943 268.854C311.673 268.742 311.374 268.686 311.047 268.686C310.721 268.686 310.422 268.742 310.151 268.854C309.881 268.957 309.643 269.12 309.437 269.344C309.241 269.559 309.087 269.834 308.975 270.17C308.863 270.506 308.807 270.903 308.807 271.36C308.807 271.817 308.863 272.214 308.975 272.55C309.087 272.886 309.241 273.166 309.437 273.39C309.643 273.605 309.881 273.768 310.151 273.88C310.422 273.983 310.721 274.034 311.047 274.034ZM319.213 275.14C318.653 275.14 318.145 275.056 317.687 274.888C317.239 274.711 316.857 274.463 316.539 274.146C316.222 273.819 315.979 273.423 315.811 272.956C315.643 272.489 315.559 271.957 315.559 271.36C315.559 270.772 315.643 270.245 315.811 269.778C315.989 269.311 316.236 268.919 316.553 268.602C316.871 268.275 317.258 268.028 317.715 267.86C318.173 267.683 318.691 267.594 319.269 267.594C319.717 267.594 320.128 267.645 320.501 267.748C320.875 267.841 321.183 267.981 321.425 268.168V269.274C321.127 269.078 320.791 268.933 320.417 268.84C320.053 268.737 319.675 268.686 319.283 268.686C318.434 268.686 317.809 268.905 317.407 269.344C317.015 269.783 316.819 270.455 316.819 271.36C316.819 272.265 317.011 272.937 317.393 273.376C317.776 273.815 318.383 274.034 319.213 274.034C319.652 274.034 320.053 273.983 320.417 273.88C320.791 273.768 321.127 273.628 321.425 273.46V274.566C321.164 274.725 320.847 274.86 320.473 274.972C320.109 275.084 319.689 275.14 319.213 275.14ZM324.803 271.906H324.159V275H322.927V264.962H324.159V270.856H324.859L327.407 267.734H328.807L325.825 271.318L328.863 275H327.365L324.803 271.906ZM336.774 271.36C336.774 272.004 336.685 272.564 336.508 273.04C336.331 273.507 336.093 273.899 335.794 274.216C335.495 274.524 335.15 274.757 334.758 274.916C334.366 275.065 333.955 275.14 333.526 275.14C332.966 275.14 332.476 275.009 332.056 274.748C331.645 274.477 331.319 274.104 331.076 273.628L331.034 275H329.872V264.962H331.104L331.076 269.148C331.319 268.672 331.645 268.294 332.056 268.014C332.467 267.734 332.975 267.594 333.582 267.594C334.002 267.594 334.403 267.673 334.786 267.832C335.178 267.981 335.519 268.215 335.808 268.532C336.107 268.84 336.34 269.232 336.508 269.708C336.685 270.175 336.774 270.725 336.774 271.36ZM333.344 274.034C333.988 274.034 334.506 273.815 334.898 273.376C335.299 272.928 335.5 272.256 335.5 271.36C335.5 270.483 335.299 269.82 334.898 269.372C334.506 268.915 333.988 268.686 333.344 268.686C333.027 268.686 332.728 268.742 332.448 268.854C332.177 268.966 331.939 269.134 331.734 269.358C331.538 269.573 331.379 269.848 331.258 270.184C331.146 270.52 331.09 270.912 331.09 271.36C331.09 271.808 331.146 272.2 331.258 272.536C331.379 272.872 331.538 273.152 331.734 273.376C331.939 273.6 332.177 273.768 332.448 273.88C332.728 273.983 333.027 274.034 333.344 274.034ZM341.249 275.14C340.754 275.14 340.292 275.056 339.863 274.888C339.433 274.72 339.06 274.477 338.743 274.16C338.435 273.833 338.192 273.437 338.015 272.97C337.837 272.503 337.749 271.967 337.749 271.36C337.749 270.763 337.837 270.231 338.015 269.764C338.192 269.288 338.435 268.891 338.743 268.574C339.06 268.257 339.433 268.014 339.863 267.846C340.292 267.678 340.754 267.594 341.249 267.594C341.753 267.594 342.219 267.678 342.649 267.846C343.078 268.014 343.447 268.257 343.755 268.574C344.072 268.891 344.319 269.288 344.497 269.764C344.683 270.231 344.777 270.763 344.777 271.36C344.777 271.967 344.683 272.503 344.497 272.97C344.319 273.437 344.072 273.833 343.755 274.16C343.447 274.477 343.078 274.72 342.649 274.888C342.219 275.056 341.753 275.14 341.249 275.14ZM341.249 274.034C341.575 274.034 341.874 273.983 342.145 273.88C342.425 273.768 342.667 273.605 342.873 273.39C343.078 273.166 343.237 272.886 343.349 272.55C343.461 272.214 343.517 271.817 343.517 271.36C343.517 270.903 343.461 270.506 343.349 270.17C343.237 269.834 343.078 269.559 342.873 269.344C342.667 269.12 342.425 268.957 342.145 268.854C341.874 268.742 341.575 268.686 341.249 268.686C340.922 268.686 340.623 268.742 340.353 268.854C340.082 268.957 339.844 269.12 339.639 269.344C339.443 269.559 339.289 269.834 339.177 270.17C339.065 270.506 339.009 270.903 339.009 271.36C339.009 271.817 339.065 272.214 339.177 272.55C339.289 272.886 339.443 273.166 339.639 273.39C339.844 273.605 340.082 273.768 340.353 273.88C340.623 273.983 340.922 274.034 341.249 274.034ZM348.455 272.116L346.495 275H345.207L347.839 271.234L345.515 267.734H346.943L348.679 270.296L350.429 267.734H351.703L349.295 271.206L351.829 275H350.401L348.455 272.116ZM353.855 275.084C353.584 275.084 353.365 275 353.197 274.832C353.029 274.655 352.945 274.445 352.945 274.202C352.945 273.941 353.029 273.726 353.197 273.558C353.365 273.39 353.584 273.306 353.855 273.306C354.116 273.306 354.331 273.39 354.499 273.558C354.667 273.726 354.751 273.941 354.751 274.202C354.751 274.445 354.667 274.655 354.499 274.832C354.331 275 354.116 275.084 353.855 275.084ZM359.379 275H357.391L354.899 267.734H356.229L358.441 274.342L360.639 267.734H361.871L359.379 275ZM363.643 266.67C363.391 266.67 363.19 266.595 363.041 266.446C362.891 266.287 362.817 266.096 362.817 265.872C362.817 265.648 362.891 265.457 363.041 265.298C363.19 265.139 363.391 265.06 363.643 265.06C363.885 265.06 364.077 265.139 364.217 265.298C364.357 265.457 364.427 265.648 364.427 265.872C364.427 266.096 364.357 266.287 364.217 266.446C364.077 266.595 363.885 266.67 363.643 266.67ZM364.245 267.734V275H363.013V267.734H364.245ZM372.035 274.384C371.932 274.459 371.806 274.538 371.657 274.622C371.508 274.706 371.326 274.79 371.111 274.874C370.896 274.949 370.654 275.009 370.383 275.056C370.112 275.112 369.809 275.14 369.473 275.14C368.25 275.14 367.322 274.809 366.687 274.146C366.052 273.483 365.735 272.555 365.735 271.36C365.735 270.772 365.819 270.245 365.987 269.778C366.164 269.311 366.407 268.919 366.715 268.602C367.023 268.275 367.387 268.028 367.807 267.86C368.227 267.683 368.684 267.594 369.179 267.594C369.702 267.594 370.168 267.683 370.579 267.86C370.99 268.037 371.326 268.299 371.587 268.644C371.858 268.989 372.04 269.419 372.133 269.932C372.236 270.436 372.236 271.024 372.133 271.696H367.009C367.056 272.48 367.289 273.068 367.709 273.46C368.129 273.843 368.754 274.034 369.585 274.034C370.145 274.034 370.626 273.955 371.027 273.796C371.428 273.637 371.764 273.465 372.035 273.278V274.384ZM369.151 268.686C368.619 268.686 368.162 268.849 367.779 269.176C367.396 269.503 367.154 269.997 367.051 270.66H370.957C370.994 269.988 370.84 269.493 370.495 269.176C370.15 268.849 369.702 268.686 369.151 268.686ZM381.587 275H379.697L378.157 269.386L376.575 275H374.741L373.089 267.734H374.391L375.777 274.076L377.541 267.734H378.927L380.649 274.006L382.021 267.734H383.239L381.587 275ZM390.383 274.384C390.28 274.459 390.154 274.538 390.005 274.622C389.855 274.706 389.673 274.79 389.459 274.874C389.244 274.949 389.001 275.009 388.731 275.056C388.46 275.112 388.157 275.14 387.821 275.14C386.598 275.14 385.669 274.809 385.035 274.146C384.4 273.483 384.083 272.555 384.083 271.36C384.083 270.772 384.167 270.245 384.335 269.778C384.512 269.311 384.755 268.919 385.063 268.602C385.371 268.275 385.735 268.028 386.155 267.86C386.575 267.683 387.032 267.594 387.527 267.594C388.049 267.594 388.516 267.683 388.927 267.86C389.337 268.037 389.673 268.299 389.935 268.644C390.205 268.989 390.387 269.419 390.481 269.932C390.583 270.436 390.583 271.024 390.481 271.696H385.357C385.403 272.48 385.637 273.068 386.057 273.46C386.477 273.843 387.102 274.034 387.933 274.034C388.493 274.034 388.973 273.955 389.375 273.796C389.776 273.637 390.112 273.465 390.383 273.278V274.384ZM387.499 268.686C386.967 268.686 386.509 268.849 386.127 269.176C385.744 269.503 385.501 269.997 385.399 270.66H389.305C389.342 269.988 389.188 269.493 388.843 269.176C388.497 268.849 388.049 268.686 387.499 268.686ZM395.622 268.966C395.1 269.013 394.624 269.148 394.194 269.372C393.774 269.587 393.462 269.923 393.256 270.38V275H392.024V267.734H393.102L393.228 269.316H393.256C393.462 268.887 393.756 268.513 394.138 268.196C394.53 267.869 395.025 267.669 395.622 267.594V268.966Z" fill="#262626"/>
<rect x="496" y="171" width="188" height="38" rx="4" fill="white" stroke="#5282FF" stroke-width="2"/>
<path d="M573.908 195H571.92L569.428 187.734H570.758L572.97 194.342L575.168 187.734H576.4L573.908 195ZM578.172 186.67C577.92 186.67 577.719 186.595 577.57 186.446C577.421 186.287 577.346 186.096 577.346 185.872C577.346 185.648 577.421 185.457 577.57 185.298C577.719 185.139 577.92 185.06 578.172 185.06C578.415 185.06 578.606 185.139 578.746 185.298C578.886 185.457 578.956 185.648 578.956 185.872C578.956 186.096 578.886 186.287 578.746 186.446C578.606 186.595 578.415 186.67 578.172 186.67ZM578.774 187.734V195H577.542V187.734H578.774ZM586.564 194.384C586.462 194.459 586.336 194.538 586.186 194.622C586.037 194.706 585.855 194.79 585.64 194.874C585.426 194.949 585.183 195.009 584.912 195.056C584.642 195.112 584.338 195.14 584.002 195.14C582.78 195.14 581.851 194.809 581.216 194.146C580.582 193.483 580.264 192.555 580.264 191.36C580.264 190.772 580.348 190.245 580.516 189.778C580.694 189.311 580.936 188.919 581.244 188.602C581.552 188.275 581.916 188.028 582.336 187.86C582.756 187.683 583.214 187.594 583.708 187.594C584.231 187.594 584.698 187.683 585.108 187.86C585.519 188.037 585.855 188.299 586.116 188.644C586.387 188.989 586.569 189.419 586.662 189.932C586.765 190.436 586.765 191.024 586.662 191.696H581.538C581.585 192.48 581.818 193.068 582.238 193.46C582.658 193.843 583.284 194.034 584.114 194.034C584.674 194.034 585.155 193.955 585.556 193.796C585.958 193.637 586.294 193.465 586.564 193.278V194.384ZM583.68 188.686C583.148 188.686 582.691 188.849 582.308 189.176C581.926 189.503 581.683 189.997 581.58 190.66H585.486C585.524 189.988 585.37 189.493 585.024 189.176C584.679 188.849 584.231 188.686 583.68 188.686ZM596.116 195H594.226L592.686 189.386L591.104 195H589.27L587.618 187.734H588.92L590.306 194.076L592.07 187.734H593.456L595.178 194.006L596.55 187.734H597.768L596.116 195ZM604.912 194.384C604.809 194.459 604.683 194.538 604.534 194.622C604.385 194.706 604.203 194.79 603.988 194.874C603.773 194.949 603.531 195.009 603.26 195.056C602.989 195.112 602.686 195.14 602.35 195.14C601.127 195.14 600.199 194.809 599.564 194.146C598.929 193.483 598.612 192.555 598.612 191.36C598.612 190.772 598.696 190.245 598.864 189.778C599.041 189.311 599.284 188.919 599.592 188.602C599.9 188.275 600.264 188.028 600.684 187.86C601.104 187.683 601.561 187.594 602.056 187.594C602.579 187.594 603.045 187.683 603.456 187.86C603.867 188.037 604.203 188.299 604.464 188.644C604.735 188.989 604.917 189.419 605.01 189.932C605.113 190.436 605.113 191.024 605.01 191.696H599.886C599.933 192.48 600.166 193.068 600.586 193.46C601.006 193.843 601.631 194.034 602.462 194.034C603.022 194.034 603.503 193.955 603.904 193.796C604.305 193.637 604.641 193.465 604.912 193.278V194.384ZM602.028 188.686C601.496 188.686 601.039 188.849 600.656 189.176C600.273 189.503 600.031 189.997 599.928 190.66H603.834C603.871 189.988 603.717 189.493 603.372 189.176C603.027 188.849 602.579 188.686 602.028 188.686ZM610.152 188.966C609.629 189.013 609.153 189.148 608.724 189.372C608.304 189.587 607.991 189.923 607.786 190.38V195H606.554V187.734H607.632L607.758 189.316H607.786C607.991 188.887 608.285 188.513 608.668 188.196C609.06 187.869 609.554 187.669 610.152 187.594V188.966Z" fill="#262626"/>
<rect x="496" y="251" width="188" height="38" rx="4" fill="white" stroke="#5282FF" stroke-width="2"/>
<path d="M572.652 273.614C572.568 273.782 572.46 273.959 572.33 274.146C572.199 274.323 572.036 274.487 571.84 274.636C571.644 274.785 571.41 274.907 571.14 275C570.878 275.093 570.57 275.14 570.216 275.14C569.562 275.14 569.035 274.958 568.634 274.594C568.232 274.221 568.032 273.689 568.032 272.998C568.032 272.205 568.307 271.621 568.858 271.248C569.418 270.875 570.211 270.688 571.238 270.688H572.596V270.086C572.596 269.582 572.465 269.223 572.204 269.008C571.942 268.793 571.494 268.686 570.86 268.686C570.412 268.686 569.987 268.761 569.586 268.91C569.184 269.05 568.825 269.213 568.508 269.4V268.294C568.769 268.135 569.119 267.981 569.558 267.832C570.006 267.673 570.496 267.594 571.028 267.594C571.942 267.594 572.638 267.785 573.114 268.168C573.59 268.541 573.828 269.125 573.828 269.918V273.824C573.828 273.908 573.828 274.006 573.828 274.118C573.837 274.221 573.842 274.328 573.842 274.44C573.851 274.552 573.86 274.659 573.87 274.762C573.879 274.855 573.888 274.935 573.898 275H572.778C572.75 274.869 572.722 274.687 572.694 274.454C572.675 274.211 572.666 274.001 572.666 273.824L572.652 273.614ZM570.482 274.034C570.864 274.034 571.191 273.955 571.462 273.796C571.732 273.637 571.952 273.455 572.12 273.25C572.288 273.035 572.409 272.83 572.484 272.634C572.558 272.429 572.596 272.284 572.596 272.2V271.668H571.364C570.626 271.668 570.09 271.775 569.754 271.99C569.427 272.195 569.264 272.508 569.264 272.928C569.264 273.255 569.362 273.521 569.558 273.726C569.754 273.931 570.062 274.034 570.482 274.034ZM580.427 273.698C580.231 274.109 579.927 274.454 579.517 274.734C579.115 275.005 578.588 275.14 577.935 275.14C577.263 275.14 576.717 274.953 576.297 274.58C575.886 274.197 575.681 273.609 575.681 272.816V267.734H576.927V272.816C576.927 273.059 576.959 273.259 577.025 273.418C577.099 273.567 577.197 273.689 577.319 273.782C577.44 273.875 577.58 273.941 577.739 273.978C577.907 274.015 578.089 274.034 578.285 274.034C578.826 274.034 579.26 273.913 579.587 273.67C579.913 273.427 580.193 273.096 580.427 272.676V267.734H581.659V275H580.567L580.455 273.698H580.427ZM588.889 273.572C588.665 274.048 588.352 274.431 587.951 274.72C587.549 275 587.041 275.14 586.425 275.14C585.986 275.14 585.571 275.065 585.179 274.916C584.787 274.757 584.441 274.524 584.143 274.216C583.844 273.899 583.606 273.507 583.429 273.04C583.251 272.564 583.163 272.004 583.163 271.36C583.163 270.725 583.251 270.175 583.429 269.708C583.606 269.232 583.844 268.84 584.143 268.532C584.441 268.215 584.787 267.981 585.179 267.832C585.58 267.673 586 267.594 586.439 267.594C586.989 267.594 587.465 267.711 587.867 267.944C588.268 268.168 588.59 268.49 588.833 268.91V264.962H590.065V275H588.987L588.889 273.572ZM586.607 274.034C586.924 274.034 587.218 273.983 587.489 273.88C587.759 273.768 587.993 273.6 588.189 273.376C588.394 273.152 588.553 272.872 588.665 272.536C588.786 272.2 588.847 271.808 588.847 271.36C588.847 270.912 588.786 270.52 588.665 270.184C588.553 269.848 588.394 269.568 588.189 269.344C587.993 269.12 587.759 268.957 587.489 268.854C587.218 268.742 586.924 268.686 586.607 268.686C585.963 268.686 585.435 268.915 585.025 269.372C584.623 269.82 584.423 270.483 584.423 271.36C584.423 272.247 584.628 272.914 585.039 273.362C585.449 273.81 585.972 274.034 586.607 274.034ZM592.705 266.67C592.453 266.67 592.253 266.595 592.103 266.446C591.954 266.287 591.879 266.096 591.879 265.872C591.879 265.648 591.954 265.457 592.103 265.298C592.253 265.139 592.453 265.06 592.705 265.06C592.948 265.06 593.139 265.139 593.279 265.298C593.419 265.457 593.489 265.648 593.489 265.872C593.489 266.096 593.419 266.287 593.279 266.446C593.139 266.595 592.948 266.67 592.705 266.67ZM593.307 267.734V275H592.075V267.734H593.307ZM598.871 274.846C598.722 274.93 598.531 275 598.297 275.056C598.064 275.112 597.817 275.14 597.555 275.14C597.201 275.14 596.897 275.089 596.645 274.986C596.403 274.883 596.202 274.748 596.043 274.58C595.885 274.403 595.768 274.207 595.693 273.992C595.628 273.768 595.595 273.539 595.595 273.306V268.784H594.727V267.734H595.595V266.208H596.827V267.734H598.941V268.784H596.827V273.152C596.827 273.46 596.902 273.684 597.051 273.824C597.21 273.964 597.485 274.034 597.877 274.034C598.241 274.034 598.573 273.931 598.871 273.726V274.846ZM603.424 275.14C602.93 275.14 602.468 275.056 602.038 274.888C601.609 274.72 601.236 274.477 600.918 274.16C600.61 273.833 600.368 273.437 600.19 272.97C600.013 272.503 599.924 271.967 599.924 271.36C599.924 270.763 600.013 270.231 600.19 269.764C600.368 269.288 600.61 268.891 600.918 268.574C601.236 268.257 601.609 268.014 602.038 267.846C602.468 267.678 602.93 267.594 603.424 267.594C603.928 267.594 604.395 267.678 604.824 267.846C605.254 268.014 605.622 268.257 605.93 268.574C606.248 268.891 606.495 269.288 606.672 269.764C606.859 270.231 606.952 270.763 606.952 271.36C606.952 271.967 606.859 272.503 606.672 272.97C606.495 273.437 606.248 273.833 605.93 274.16C605.622 274.477 605.254 274.72 604.824 274.888C604.395 275.056 603.928 275.14 603.424 275.14ZM603.424 274.034C603.751 274.034 604.05 273.983 604.32 273.88C604.6 273.768 604.843 273.605 605.048 273.39C605.254 273.166 605.412 272.886 605.524 272.55C605.636 272.214 605.692 271.817 605.692 271.36C605.692 270.903 605.636 270.506 605.524 270.17C605.412 269.834 605.254 269.559 605.048 269.344C604.843 269.12 604.6 268.957 604.32 268.854C604.05 268.742 603.751 268.686 603.424 268.686C603.098 268.686 602.799 268.742 602.528 268.854C602.258 268.957 602.02 269.12 601.814 269.344C601.618 269.559 601.464 269.834 601.352 270.17C601.24 270.506 601.184 270.903 601.184 271.36C601.184 271.817 601.24 272.214 601.352 272.55C601.464 272.886 601.618 273.166 601.814 273.39C602.02 273.605 602.258 273.768 602.528 273.88C602.799 273.983 603.098 274.034 603.424 274.034ZM612.052 268.966C611.529 269.013 611.053 269.148 610.624 269.372C610.204 269.587 609.891 269.923 609.686 270.38V275H608.454V267.734H609.532L609.658 269.316H609.686C609.891 268.887 610.185 268.513 610.568 268.196C610.96 267.869 611.455 267.669 612.052 267.594V268.966Z" fill="#262626"/>
<rect x="496" y="91" width="188" height="38" rx="4" fill="white" stroke="#5282FF" stroke-width="2"/>
<path d="M578.108 114.384C578.006 114.459 577.88 114.538 577.73 114.622C577.581 114.706 577.399 114.79 577.184 114.874C576.97 114.949 576.727 115.009 576.456 115.056C576.186 115.112 575.882 115.14 575.546 115.14C574.324 115.14 573.395 114.809 572.76 114.146C572.126 113.483 571.808 112.555 571.808 111.36C571.808 110.772 571.892 110.245 572.06 109.778C572.238 109.311 572.48 108.919 572.788 108.602C573.096 108.275 573.46 108.028 573.88 107.86C574.3 107.683 574.758 107.594 575.252 107.594C575.775 107.594 576.242 107.683 576.652 107.86C577.063 108.037 577.399 108.299 577.66 108.644C577.931 108.989 578.113 109.419 578.206 109.932C578.309 110.436 578.309 111.024 578.206 111.696H573.082C573.129 112.48 573.362 113.068 573.782 113.46C574.202 113.843 574.828 114.034 575.658 114.034C576.218 114.034 576.699 113.955 577.1 113.796C577.502 113.637 577.838 113.465 578.108 113.278V114.384ZM575.224 108.686C574.692 108.686 574.235 108.849 573.852 109.176C573.47 109.503 573.227 109.997 573.124 110.66H577.03C577.068 109.988 576.914 109.493 576.568 109.176C576.223 108.849 575.775 108.686 575.224 108.686ZM584.958 113.572C584.734 114.048 584.421 114.431 584.02 114.72C583.619 115 583.11 115.14 582.494 115.14C582.055 115.14 581.64 115.065 581.248 114.916C580.856 114.757 580.511 114.524 580.212 114.216C579.913 113.899 579.675 113.507 579.498 113.04C579.321 112.564 579.232 112.004 579.232 111.36C579.232 110.725 579.321 110.175 579.498 109.708C579.675 109.232 579.913 108.84 580.212 108.532C580.511 108.215 580.856 107.981 581.248 107.832C581.649 107.673 582.069 107.594 582.508 107.594C583.059 107.594 583.535 107.711 583.936 107.944C584.337 108.168 584.659 108.49 584.902 108.91V104.962H586.134V115H585.056L584.958 113.572ZM582.676 114.034C582.993 114.034 583.287 113.983 583.558 113.88C583.829 113.768 584.062 113.6 584.258 113.376C584.463 113.152 584.622 112.872 584.734 112.536C584.855 112.2 584.916 111.808 584.916 111.36C584.916 110.912 584.855 110.52 584.734 110.184C584.622 109.848 584.463 109.568 584.258 109.344C584.062 109.12 583.829 108.957 583.558 108.854C583.287 108.742 582.993 108.686 582.676 108.686C582.032 108.686 581.505 108.915 581.094 109.372C580.693 109.82 580.492 110.483 580.492 111.36C580.492 112.247 580.697 112.914 581.108 113.362C581.519 113.81 582.041 114.034 582.676 114.034ZM588.775 106.67C588.523 106.67 588.322 106.595 588.173 106.446C588.023 106.287 587.949 106.096 587.949 105.872C587.949 105.648 588.023 105.457 588.173 105.298C588.322 105.139 588.523 105.06 588.775 105.06C589.017 105.06 589.209 105.139 589.349 105.298C589.489 105.457 589.559 105.648 589.559 105.872C589.559 106.096 589.489 106.287 589.349 106.446C589.209 106.595 589.017 106.67 588.775 106.67ZM589.377 107.734V115H588.145V107.734H589.377ZM594.941 114.846C594.791 114.93 594.6 115 594.367 115.056C594.133 115.112 593.886 115.14 593.625 115.14C593.27 115.14 592.967 115.089 592.715 114.986C592.472 114.883 592.271 114.748 592.113 114.58C591.954 114.403 591.837 114.207 591.763 113.992C591.697 113.768 591.665 113.539 591.665 113.306V108.784H590.797V107.734H591.665V106.208H592.897V107.734H595.011V108.784H592.897V113.152C592.897 113.46 592.971 113.684 593.121 113.824C593.279 113.964 593.555 114.034 593.947 114.034C594.311 114.034 594.642 113.931 594.941 113.726V114.846ZM599.494 115.14C598.999 115.14 598.537 115.056 598.108 114.888C597.678 114.72 597.305 114.477 596.988 114.16C596.68 113.833 596.437 113.437 596.26 112.97C596.082 112.503 595.994 111.967 595.994 111.36C595.994 110.763 596.082 110.231 596.26 109.764C596.437 109.288 596.68 108.891 596.988 108.574C597.305 108.257 597.678 108.014 598.108 107.846C598.537 107.678 598.999 107.594 599.494 107.594C599.998 107.594 600.464 107.678 600.894 107.846C601.323 108.014 601.692 108.257 602 108.574C602.317 108.891 602.564 109.288 602.742 109.764C602.928 110.231 603.022 110.763 603.022 111.36C603.022 111.967 602.928 112.503 602.742 112.97C602.564 113.437 602.317 113.833 602 114.16C601.692 114.477 601.323 114.72 600.894 114.888C600.464 115.056 599.998 115.14 599.494 115.14ZM599.494 114.034C599.82 114.034 600.119 113.983 600.39 113.88C600.67 113.768 600.912 113.605 601.118 113.39C601.323 113.166 601.482 112.886 601.594 112.55C601.706 112.214 601.762 111.817 601.762 111.36C601.762 110.903 601.706 110.506 601.594 110.17C601.482 109.834 601.323 109.559 601.118 109.344C600.912 109.12 600.67 108.957 600.39 108.854C600.119 108.742 599.82 108.686 599.494 108.686C599.167 108.686 598.868 108.742 598.598 108.854C598.327 108.957 598.089 109.12 597.884 109.344C597.688 109.559 597.534 109.834 597.422 110.17C597.31 110.506 597.254 110.903 597.254 111.36C597.254 111.817 597.31 112.214 597.422 112.55C597.534 112.886 597.688 113.166 597.884 113.39C598.089 113.605 598.327 113.768 598.598 113.88C598.868 113.983 599.167 114.034 599.494 114.034ZM608.121 108.966C607.599 109.013 607.123 109.148 606.693 109.372C606.273 109.587 605.961 109.923 605.755 110.38V115H604.523V107.734H605.601L605.727 109.316H605.755C605.961 108.887 606.255 108.513 606.637 108.196C607.029 107.869 607.524 107.669 608.121 107.594V108.966Z" fill="#262626"/>
<rect x="496" y="11" width="188" height="38" rx="4" fill="white" stroke="#5282FF" stroke-width="2"/>
<path d="M575.523 33.614C575.439 33.782 575.331 33.9593 575.201 34.146C575.07 34.3233 574.907 34.4867 574.711 34.636C574.515 34.7853 574.281 34.9067 574.011 35C573.749 35.0933 573.441 35.14 573.087 35.14C572.433 35.14 571.906 34.958 571.505 34.594C571.103 34.2207 570.903 33.6887 570.903 32.998C570.903 32.2047 571.178 31.6213 571.729 31.248C572.289 30.8747 573.082 30.688 574.109 30.688H575.467V30.086C575.467 29.582 575.336 29.2227 575.075 29.008C574.813 28.7933 574.365 28.686 573.731 28.686C573.283 28.686 572.858 28.7607 572.457 28.91C572.055 29.05 571.696 29.2133 571.379 29.4V28.294C571.64 28.1353 571.99 27.9813 572.429 27.832C572.877 27.6733 573.367 27.594 573.899 27.594C574.813 27.594 575.509 27.7853 575.985 28.168C576.461 28.5413 576.699 29.1247 576.699 29.918V33.824C576.699 33.908 576.699 34.006 576.699 34.118C576.708 34.2207 576.713 34.328 576.713 34.44C576.722 34.552 576.731 34.6593 576.741 34.762C576.75 34.8553 576.759 34.9347 576.769 35H575.649C575.621 34.8693 575.593 34.6873 575.565 34.454C575.546 34.2113 575.537 34.0013 575.537 33.824L575.523 33.614ZM573.353 34.034C573.735 34.034 574.062 33.9547 574.333 33.796C574.603 33.6373 574.823 33.4553 574.991 33.25C575.159 33.0353 575.28 32.83 575.355 32.634C575.429 32.4287 575.467 32.284 575.467 32.2V31.668H574.235C573.497 31.668 572.961 31.7753 572.625 31.99C572.298 32.1953 572.135 32.508 572.135 32.928C572.135 33.2547 572.233 33.5207 572.429 33.726C572.625 33.9313 572.933 34.034 573.353 34.034ZM583.844 33.572C583.62 34.048 583.307 34.4307 582.906 34.72C582.504 35 581.996 35.14 581.38 35.14C580.941 35.14 580.526 35.0653 580.134 34.916C579.742 34.7573 579.396 34.524 579.098 34.216C578.799 33.8987 578.561 33.5067 578.384 33.04C578.206 32.564 578.118 32.004 578.118 31.36C578.118 30.7253 578.206 30.1747 578.384 29.708C578.561 29.232 578.799 28.84 579.098 28.532C579.396 28.2147 579.742 27.9813 580.134 27.832C580.535 27.6733 580.955 27.594 581.394 27.594C581.944 27.594 582.42 27.7107 582.822 27.944C583.223 28.168 583.545 28.49 583.788 28.91V24.962H585.02V35H583.942L583.844 33.572ZM581.562 34.034C581.879 34.034 582.173 33.9827 582.444 33.88C582.714 33.768 582.948 33.6 583.144 33.376C583.349 33.152 583.508 32.872 583.62 32.536C583.741 32.2 583.802 31.808 583.802 31.36C583.802 30.912 583.741 30.52 583.62 30.184C583.508 29.848 583.349 29.568 583.144 29.344C582.948 29.12 582.714 28.9567 582.444 28.854C582.173 28.742 581.879 28.686 581.562 28.686C580.918 28.686 580.39 28.9147 579.98 29.372C579.578 29.82 579.378 30.4827 579.378 31.36C579.378 32.2467 579.583 32.914 579.994 33.362C580.404 33.81 580.927 34.034 581.562 34.034ZM588.262 35H587.03V27.734H588.108L588.234 29.036H588.262C588.458 28.6253 588.752 28.2847 589.144 28.014C589.536 27.734 590.05 27.594 590.684 27.594C591.244 27.594 591.702 27.7293 592.056 28C592.42 28.2613 592.663 28.658 592.784 29.19C592.99 28.6953 593.302 28.308 593.722 28.028C594.152 27.7387 594.67 27.594 595.276 27.594C595.948 27.594 596.48 27.7853 596.872 28.168C597.264 28.5413 597.46 29.12 597.46 29.904V35H596.214V30.058C596.214 29.582 596.098 29.2367 595.864 29.022C595.631 28.798 595.314 28.686 594.912 28.686C594.642 28.686 594.404 28.728 594.198 28.812C593.993 28.8867 593.811 28.994 593.652 29.134C593.494 29.274 593.349 29.4373 593.218 29.624C593.088 29.8107 592.966 30.0067 592.854 30.212V35H591.622V29.918C591.622 29.4513 591.506 29.1293 591.272 28.952C591.039 28.7747 590.722 28.686 590.32 28.686C590.059 28.686 589.826 28.7187 589.62 28.784C589.415 28.8493 589.228 28.9427 589.06 29.064C588.902 29.1853 588.757 29.3347 588.626 29.512C588.496 29.68 588.374 29.8667 588.262 30.072V35ZM600.02 26.67C599.768 26.67 599.567 26.5953 599.418 26.446C599.268 26.2873 599.194 26.096 599.194 25.872C599.194 25.648 599.268 25.4567 599.418 25.298C599.567 25.1393 599.768 25.06 600.02 25.06C600.262 25.06 600.454 25.1393 600.594 25.298C600.734 25.4567 600.804 25.648 600.804 25.872C600.804 26.096 600.734 26.2873 600.594 26.446C600.454 26.5953 600.262 26.67 600.02 26.67ZM600.622 27.734V35H599.39V27.734H600.622ZM606.074 28.686C605.514 28.686 605.057 28.8167 604.702 29.078C604.357 29.33 604.077 29.6567 603.862 30.058V35H602.63V27.734H603.792L603.834 29.036H603.862C604.058 28.616 604.366 28.2707 604.786 28C605.206 27.7293 605.738 27.594 606.382 27.594C607.101 27.594 607.67 27.7853 608.09 28.168C608.519 28.5413 608.734 29.12 608.734 29.904V35H607.502V30.03C607.502 29.526 607.376 29.176 607.124 28.98C606.872 28.784 606.522 28.686 606.074 28.686Z" fill="#262626"/>
<rect x="256" y="171" width="188" height="38" rx="4" fill="white" stroke="#5282FF" stroke-width="2"/>
<path d="M307.841 184.962V195H306.609V184.962H307.841ZM312.832 195.14C312.337 195.14 311.875 195.056 311.446 194.888C311.016 194.72 310.643 194.477 310.326 194.16C310.018 193.833 309.775 193.437 309.598 192.97C309.42 192.503 309.332 191.967 309.332 191.36C309.332 190.763 309.42 190.231 309.598 189.764C309.775 189.288 310.018 188.891 310.326 188.574C310.643 188.257 311.016 188.014 311.446 187.846C311.875 187.678 312.337 187.594 312.832 187.594C313.336 187.594 313.802 187.678 314.232 187.846C314.661 188.014 315.03 188.257 315.338 188.574C315.655 188.891 315.902 189.288 316.08 189.764C316.266 190.231 316.36 190.763 316.36 191.36C316.36 191.967 316.266 192.503 316.08 192.97C315.902 193.437 315.655 193.833 315.338 194.16C315.03 194.477 314.661 194.72 314.232 194.888C313.802 195.056 313.336 195.14 312.832 195.14ZM312.832 194.034C313.158 194.034 313.457 193.983 313.728 193.88C314.008 193.768 314.25 193.605 314.456 193.39C314.661 193.166 314.82 192.886 314.932 192.55C315.044 192.214 315.1 191.817 315.1 191.36C315.1 190.903 315.044 190.506 314.932 190.17C314.82 189.834 314.661 189.559 314.456 189.344C314.25 189.12 314.008 188.957 313.728 188.854C313.457 188.742 313.158 188.686 312.832 188.686C312.505 188.686 312.206 188.742 311.936 188.854C311.665 188.957 311.427 189.12 311.222 189.344C311.026 189.559 310.872 189.834 310.76 190.17C310.648 190.506 310.592 190.903 310.592 191.36C310.592 191.817 310.648 192.214 310.76 192.55C310.872 192.886 311.026 193.166 311.222 193.39C311.427 193.605 311.665 193.768 311.936 193.88C312.206 193.983 312.505 194.034 312.832 194.034ZM320.997 195.14C320.437 195.14 319.929 195.056 319.471 194.888C319.023 194.711 318.641 194.463 318.323 194.146C318.006 193.819 317.763 193.423 317.595 192.956C317.427 192.489 317.343 191.957 317.343 191.36C317.343 190.772 317.427 190.245 317.595 189.778C317.773 189.311 318.02 188.919 318.337 188.602C318.655 188.275 319.042 188.028 319.499 187.86C319.957 187.683 320.475 187.594 321.053 187.594C321.501 187.594 321.912 187.645 322.285 187.748C322.659 187.841 322.967 187.981 323.209 188.168V189.274C322.911 189.078 322.575 188.933 322.201 188.84C321.837 188.737 321.459 188.686 321.067 188.686C320.218 188.686 319.593 188.905 319.191 189.344C318.799 189.783 318.603 190.455 318.603 191.36C318.603 192.265 318.795 192.937 319.177 193.376C319.56 193.815 320.167 194.034 320.997 194.034C321.436 194.034 321.837 193.983 322.201 193.88C322.575 193.768 322.911 193.628 323.209 193.46V194.566C322.948 194.725 322.631 194.86 322.257 194.972C321.893 195.084 321.473 195.14 320.997 195.14ZM326.587 191.906H325.943V195H324.711V184.962H325.943V190.856H326.643L329.191 187.734H330.591L327.609 191.318L330.647 195H329.149L326.587 191.906ZM338.558 191.36C338.558 192.004 338.47 192.564 338.292 193.04C338.115 193.507 337.877 193.899 337.578 194.216C337.28 194.524 336.934 194.757 336.542 194.916C336.15 195.065 335.74 195.14 335.31 195.14C334.75 195.14 334.26 195.009 333.84 194.748C333.43 194.477 333.103 194.104 332.86 193.628L332.818 195H331.656V184.962H332.888L332.86 189.148C333.103 188.672 333.43 188.294 333.84 188.014C334.251 187.734 334.76 187.594 335.366 187.594C335.786 187.594 336.188 187.673 336.57 187.832C336.962 187.981 337.303 188.215 337.592 188.532C337.891 188.84 338.124 189.232 338.292 189.708C338.47 190.175 338.558 190.725 338.558 191.36ZM335.128 194.034C335.772 194.034 336.29 193.815 336.682 193.376C337.084 192.928 337.284 192.256 337.284 191.36C337.284 190.483 337.084 189.82 336.682 189.372C336.29 188.915 335.772 188.686 335.128 188.686C334.811 188.686 334.512 188.742 334.232 188.854C333.962 188.966 333.724 189.134 333.518 189.358C333.322 189.573 333.164 189.848 333.042 190.184C332.93 190.52 332.874 190.912 332.874 191.36C332.874 191.808 332.93 192.2 333.042 192.536C333.164 192.872 333.322 193.152 333.518 193.376C333.724 193.6 333.962 193.768 334.232 193.88C334.512 193.983 334.811 194.034 335.128 194.034ZM343.033 195.14C342.538 195.14 342.076 195.056 341.647 194.888C341.217 194.72 340.844 194.477 340.527 194.16C340.219 193.833 339.976 193.437 339.799 192.97C339.621 192.503 339.533 191.967 339.533 191.36C339.533 190.763 339.621 190.231 339.799 189.764C339.976 189.288 340.219 188.891 340.527 188.574C340.844 188.257 341.217 188.014 341.647 187.846C342.076 187.678 342.538 187.594 343.033 187.594C343.537 187.594 344.003 187.678 344.433 187.846C344.862 188.014 345.231 188.257 345.539 188.574C345.856 188.891 346.103 189.288 346.281 189.764C346.467 190.231 346.561 190.763 346.561 191.36C346.561 191.967 346.467 192.503 346.281 192.97C346.103 193.437 345.856 193.833 345.539 194.16C345.231 194.477 344.862 194.72 344.433 194.888C344.003 195.056 343.537 195.14 343.033 195.14ZM343.033 194.034C343.359 194.034 343.658 193.983 343.929 193.88C344.209 193.768 344.451 193.605 344.657 193.39C344.862 193.166 345.021 192.886 345.133 192.55C345.245 192.214 345.301 191.817 345.301 191.36C345.301 190.903 345.245 190.506 345.133 190.17C345.021 189.834 344.862 189.559 344.657 189.344C344.451 189.12 344.209 188.957 343.929 188.854C343.658 188.742 343.359 188.686 343.033 188.686C342.706 188.686 342.407 188.742 342.137 188.854C341.866 188.957 341.628 189.12 341.423 189.344C341.227 189.559 341.073 189.834 340.961 190.17C340.849 190.506 340.793 190.903 340.793 191.36C340.793 191.817 340.849 192.214 340.961 192.55C341.073 192.886 341.227 193.166 341.423 193.39C341.628 193.605 341.866 193.768 342.137 193.88C342.407 193.983 342.706 194.034 343.033 194.034ZM350.239 192.116L348.279 195H346.991L349.623 191.234L347.299 187.734H348.727L350.463 190.296L352.213 187.734H353.487L351.079 191.206L353.613 195H352.185L350.239 192.116ZM355.639 195.084C355.368 195.084 355.149 195 354.981 194.832C354.813 194.655 354.729 194.445 354.729 194.202C354.729 193.941 354.813 193.726 354.981 193.558C355.149 193.39 355.368 193.306 355.639 193.306C355.9 193.306 356.115 193.39 356.283 193.558C356.451 193.726 356.535 193.941 356.535 194.202C356.535 194.445 356.451 194.655 356.283 194.832C356.115 195 355.9 195.084 355.639 195.084ZM363.825 194.384C363.722 194.459 363.596 194.538 363.447 194.622C363.298 194.706 363.116 194.79 362.901 194.874C362.686 194.949 362.444 195.009 362.173 195.056C361.902 195.112 361.599 195.14 361.263 195.14C360.04 195.14 359.112 194.809 358.477 194.146C357.842 193.483 357.525 192.555 357.525 191.36C357.525 190.772 357.609 190.245 357.777 189.778C357.954 189.311 358.197 188.919 358.505 188.602C358.813 188.275 359.177 188.028 359.597 187.86C360.017 187.683 360.474 187.594 360.969 187.594C361.492 187.594 361.958 187.683 362.369 187.86C362.78 188.037 363.116 188.299 363.377 188.644C363.648 188.989 363.83 189.419 363.923 189.932C364.026 190.436 364.026 191.024 363.923 191.696H358.799C358.846 192.48 359.079 193.068 359.499 193.46C359.919 193.843 360.544 194.034 361.375 194.034C361.935 194.034 362.416 193.955 362.817 193.796C363.218 193.637 363.554 193.465 363.825 193.278V194.384ZM360.941 188.686C360.409 188.686 359.952 188.849 359.569 189.176C359.186 189.503 358.944 189.997 358.841 190.66H362.747C362.784 189.988 362.63 189.493 362.285 189.176C361.94 188.849 361.492 188.686 360.941 188.686ZM370.675 193.572C370.451 194.048 370.138 194.431 369.737 194.72C369.336 195 368.827 195.14 368.211 195.14C367.772 195.14 367.357 195.065 366.965 194.916C366.573 194.757 366.228 194.524 365.929 194.216C365.63 193.899 365.392 193.507 365.215 193.04C365.038 192.564 364.949 192.004 364.949 191.36C364.949 190.725 365.038 190.175 365.215 189.708C365.392 189.232 365.63 188.84 365.929 188.532C366.228 188.215 366.573 187.981 366.965 187.832C367.366 187.673 367.786 187.594 368.225 187.594C368.776 187.594 369.252 187.711 369.653 187.944C370.054 188.168 370.376 188.49 370.619 188.91V184.962H371.851V195H370.773L370.675 193.572ZM368.393 194.034C368.71 194.034 369.004 193.983 369.275 193.88C369.546 193.768 369.779 193.6 369.975 193.376C370.18 193.152 370.339 192.872 370.451 192.536C370.572 192.2 370.633 191.808 370.633 191.36C370.633 190.912 370.572 190.52 370.451 190.184C370.339 189.848 370.18 189.568 369.975 189.344C369.779 189.12 369.546 188.957 369.275 188.854C369.004 188.742 368.71 188.686 368.393 188.686C367.749 188.686 367.222 188.915 366.811 189.372C366.41 189.82 366.209 190.483 366.209 191.36C366.209 192.247 366.414 192.914 366.825 193.362C367.236 193.81 367.758 194.034 368.393 194.034ZM374.491 186.67C374.239 186.67 374.039 186.595 373.889 186.446C373.74 186.287 373.665 186.096 373.665 185.872C373.665 185.648 373.74 185.457 373.889 185.298C374.039 185.139 374.239 185.06 374.491 185.06C374.734 185.06 374.925 185.139 375.065 185.298C375.205 185.457 375.275 185.648 375.275 185.872C375.275 186.096 375.205 186.287 375.065 186.446C374.925 186.595 374.734 186.67 374.491 186.67ZM375.093 187.734V195H373.861V187.734H375.093ZM380.658 194.846C380.508 194.93 380.317 195 380.084 195.056C379.85 195.112 379.603 195.14 379.342 195.14C378.987 195.14 378.684 195.089 378.432 194.986C378.189 194.883 377.988 194.748 377.83 194.58C377.671 194.403 377.554 194.207 377.48 193.992C377.414 193.768 377.382 193.539 377.382 193.306V188.784H376.514V187.734H377.382V186.208H378.614V187.734H380.728V188.784H378.614V193.152C378.614 193.46 378.688 193.684 378.838 193.824C378.996 193.964 379.272 194.034 379.664 194.034C380.028 194.034 380.359 193.931 380.658 193.726V194.846ZM385.211 195.14C384.716 195.14 384.254 195.056 383.825 194.888C383.395 194.72 383.022 194.477 382.705 194.16C382.397 193.833 382.154 193.437 381.977 192.97C381.799 192.503 381.711 191.967 381.711 191.36C381.711 190.763 381.799 190.231 381.977 189.764C382.154 189.288 382.397 188.891 382.705 188.574C383.022 188.257 383.395 188.014 383.825 187.846C384.254 187.678 384.716 187.594 385.211 187.594C385.715 187.594 386.181 187.678 386.611 187.846C387.04 188.014 387.409 188.257 387.717 188.574C388.034 188.891 388.281 189.288 388.459 189.764C388.645 190.231 388.739 190.763 388.739 191.36C388.739 191.967 388.645 192.503 388.459 192.97C388.281 193.437 388.034 193.833 387.717 194.16C387.409 194.477 387.04 194.72 386.611 194.888C386.181 195.056 385.715 195.14 385.211 195.14ZM385.211 194.034C385.537 194.034 385.836 193.983 386.107 193.88C386.387 193.768 386.629 193.605 386.835 193.39C387.04 193.166 387.199 192.886 387.311 192.55C387.423 192.214 387.479 191.817 387.479 191.36C387.479 190.903 387.423 190.506 387.311 190.17C387.199 189.834 387.04 189.559 386.835 189.344C386.629 189.12 386.387 188.957 386.107 188.854C385.836 188.742 385.537 188.686 385.211 188.686C384.884 188.686 384.585 188.742 384.315 188.854C384.044 188.957 383.806 189.12 383.601 189.344C383.405 189.559 383.251 189.834 383.139 190.17C383.027 190.506 382.971 190.903 382.971 191.36C382.971 191.817 383.027 192.214 383.139 192.55C383.251 192.886 383.405 193.166 383.601 193.39C383.806 193.605 384.044 193.768 384.315 193.88C384.585 193.983 384.884 194.034 385.211 194.034ZM393.838 188.966C393.316 189.013 392.84 189.148 392.41 189.372C391.99 189.587 391.678 189.923 391.472 190.38V195H390.24V187.734H391.318L391.444 189.316H391.472C391.678 188.887 391.972 188.513 392.354 188.196C392.746 187.869 393.241 187.669 393.838 187.594V188.966Z" fill="#262626"/>
<rect x="256" y="91" width="188" height="38" rx="4" fill="white" stroke="#5282FF" stroke-width="2"/>
<path d="M306.645 104.962V115H305.413V104.962H306.645ZM311.635 115.14C311.141 115.14 310.679 115.056 310.249 114.888C309.82 114.72 309.447 114.477 309.129 114.16C308.821 113.833 308.579 113.437 308.401 112.97C308.224 112.503 308.135 111.967 308.135 111.36C308.135 110.763 308.224 110.231 308.401 109.764C308.579 109.288 308.821 108.891 309.129 108.574C309.447 108.257 309.82 108.014 310.249 107.846C310.679 107.678 311.141 107.594 311.635 107.594C312.139 107.594 312.606 107.678 313.035 107.846C313.465 108.014 313.833 108.257 314.141 108.574C314.459 108.891 314.706 109.288 314.883 109.764C315.07 110.231 315.163 110.763 315.163 111.36C315.163 111.967 315.07 112.503 314.883 112.97C314.706 113.437 314.459 113.833 314.141 114.16C313.833 114.477 313.465 114.72 313.035 114.888C312.606 115.056 312.139 115.14 311.635 115.14ZM311.635 114.034C311.962 114.034 312.261 113.983 312.531 113.88C312.811 113.768 313.054 113.605 313.259 113.39C313.465 113.166 313.623 112.886 313.735 112.55C313.847 112.214 313.903 111.817 313.903 111.36C313.903 110.903 313.847 110.506 313.735 110.17C313.623 109.834 313.465 109.559 313.259 109.344C313.054 109.12 312.811 108.957 312.531 108.854C312.261 108.742 311.962 108.686 311.635 108.686C311.309 108.686 311.01 108.742 310.739 108.854C310.469 108.957 310.231 109.12 310.025 109.344C309.829 109.559 309.675 109.834 309.563 110.17C309.451 110.506 309.395 110.903 309.395 111.36C309.395 111.817 309.451 112.214 309.563 112.55C309.675 112.886 309.829 113.166 310.025 113.39C310.231 113.605 310.469 113.768 310.739 113.88C311.01 113.983 311.309 114.034 311.635 114.034ZM319.801 115.14C319.241 115.14 318.732 115.056 318.275 114.888C317.827 114.711 317.444 114.463 317.127 114.146C316.81 113.819 316.567 113.423 316.399 112.956C316.231 112.489 316.147 111.957 316.147 111.36C316.147 110.772 316.231 110.245 316.399 109.778C316.576 109.311 316.824 108.919 317.141 108.602C317.458 108.275 317.846 108.028 318.303 107.86C318.76 107.683 319.278 107.594 319.857 107.594C320.305 107.594 320.716 107.645 321.089 107.748C321.462 107.841 321.77 107.981 322.013 108.168V109.274C321.714 109.078 321.378 108.933 321.005 108.84C320.641 108.737 320.263 108.686 319.871 108.686C319.022 108.686 318.396 108.905 317.995 109.344C317.603 109.783 317.407 110.455 317.407 111.36C317.407 112.265 317.598 112.937 317.981 113.376C318.364 113.815 318.97 114.034 319.801 114.034C320.24 114.034 320.641 113.983 321.005 113.88C321.378 113.768 321.714 113.628 322.013 113.46V114.566C321.752 114.725 321.434 114.86 321.061 114.972C320.697 115.084 320.277 115.14 319.801 115.14ZM325.391 111.906H324.747V115H323.515V104.962H324.747V110.856H325.447L327.995 107.734H329.395L326.413 111.318L329.451 115H327.953L325.391 111.906ZM337.362 111.36C337.362 112.004 337.273 112.564 337.096 113.04C336.919 113.507 336.681 113.899 336.382 114.216C336.083 114.524 335.738 114.757 335.346 114.916C334.954 115.065 334.543 115.14 334.114 115.14C333.554 115.14 333.064 115.009 332.644 114.748C332.233 114.477 331.907 114.104 331.664 113.628L331.622 115H330.46V104.962H331.692L331.664 109.148C331.907 108.672 332.233 108.294 332.644 108.014C333.055 107.734 333.563 107.594 334.17 107.594C334.59 107.594 334.991 107.673 335.374 107.832C335.766 107.981 336.107 108.215 336.396 108.532C336.695 108.84 336.928 109.232 337.096 109.708C337.273 110.175 337.362 110.725 337.362 111.36ZM333.932 114.034C334.576 114.034 335.094 113.815 335.486 113.376C335.887 112.928 336.088 112.256 336.088 111.36C336.088 110.483 335.887 109.82 335.486 109.372C335.094 108.915 334.576 108.686 333.932 108.686C333.615 108.686 333.316 108.742 333.036 108.854C332.765 108.966 332.527 109.134 332.322 109.358C332.126 109.573 331.967 109.848 331.846 110.184C331.734 110.52 331.678 110.912 331.678 111.36C331.678 111.808 331.734 112.2 331.846 112.536C331.967 112.872 332.126 113.152 332.322 113.376C332.527 113.6 332.765 113.768 333.036 113.88C333.316 113.983 333.615 114.034 333.932 114.034ZM341.837 115.14C341.342 115.14 340.88 115.056 340.451 114.888C340.021 114.72 339.648 114.477 339.331 114.16C339.023 113.833 338.78 113.437 338.603 112.97C338.425 112.503 338.337 111.967 338.337 111.36C338.337 110.763 338.425 110.231 338.603 109.764C338.78 109.288 339.023 108.891 339.331 108.574C339.648 108.257 340.021 108.014 340.451 107.846C340.88 107.678 341.342 107.594 341.837 107.594C342.341 107.594 342.807 107.678 343.237 107.846C343.666 108.014 344.035 108.257 344.343 108.574C344.66 108.891 344.907 109.288 345.085 109.764C345.271 110.231 345.365 110.763 345.365 111.36C345.365 111.967 345.271 112.503 345.085 112.97C344.907 113.437 344.66 113.833 344.343 114.16C344.035 114.477 343.666 114.72 343.237 114.888C342.807 115.056 342.341 115.14 341.837 115.14ZM341.837 114.034C342.163 114.034 342.462 113.983 342.733 113.88C343.013 113.768 343.255 113.605 343.461 113.39C343.666 113.166 343.825 112.886 343.937 112.55C344.049 112.214 344.105 111.817 344.105 111.36C344.105 110.903 344.049 110.506 343.937 110.17C343.825 109.834 343.666 109.559 343.461 109.344C343.255 109.12 343.013 108.957 342.733 108.854C342.462 108.742 342.163 108.686 341.837 108.686C341.51 108.686 341.211 108.742 340.941 108.854C340.67 108.957 340.432 109.12 340.227 109.344C340.031 109.559 339.877 109.834 339.765 110.17C339.653 110.506 339.597 110.903 339.597 111.36C339.597 111.817 339.653 112.214 339.765 112.55C339.877 112.886 340.031 113.166 340.227 113.39C340.432 113.605 340.67 113.768 340.941 113.88C341.211 113.983 341.51 114.034 341.837 114.034ZM349.043 112.116L347.083 115H345.795L348.427 111.234L346.103 107.734H347.531L349.267 110.296L351.017 107.734H352.291L349.883 111.206L352.417 115H350.989L349.043 112.116ZM354.443 115.084C354.172 115.084 353.953 115 353.785 114.832C353.617 114.655 353.533 114.445 353.533 114.202C353.533 113.941 353.617 113.726 353.785 113.558C353.953 113.39 354.172 113.306 354.443 113.306C354.704 113.306 354.919 113.39 355.087 113.558C355.255 113.726 355.339 113.941 355.339 114.202C355.339 114.445 355.255 114.655 355.087 114.832C354.919 115 354.704 115.084 354.443 115.084ZM361.376 113.614C361.292 113.782 361.185 113.959 361.054 114.146C360.924 114.323 360.76 114.487 360.564 114.636C360.368 114.785 360.135 114.907 359.864 115C359.603 115.093 359.295 115.14 358.94 115.14C358.287 115.14 357.76 114.958 357.358 114.594C356.957 114.221 356.756 113.689 356.756 112.998C356.756 112.205 357.032 111.621 357.582 111.248C358.142 110.875 358.936 110.688 359.962 110.688H361.32V110.086C361.32 109.582 361.19 109.223 360.928 109.008C360.667 108.793 360.219 108.686 359.584 108.686C359.136 108.686 358.712 108.761 358.31 108.91C357.909 109.05 357.55 109.213 357.232 109.4V108.294C357.494 108.135 357.844 107.981 358.282 107.832C358.73 107.673 359.22 107.594 359.752 107.594C360.667 107.594 361.362 107.785 361.838 108.168C362.314 108.541 362.552 109.125 362.552 109.918V113.824C362.552 113.908 362.552 114.006 362.552 114.118C362.562 114.221 362.566 114.328 362.566 114.44C362.576 114.552 362.585 114.659 362.594 114.762C362.604 114.855 362.613 114.935 362.622 115H361.502C361.474 114.869 361.446 114.687 361.418 114.454C361.4 114.211 361.39 114.001 361.39 113.824L361.376 113.614ZM359.206 114.034C359.589 114.034 359.916 113.955 360.186 113.796C360.457 113.637 360.676 113.455 360.844 113.25C361.012 113.035 361.134 112.83 361.208 112.634C361.283 112.429 361.32 112.284 361.32 112.2V111.668H360.088C359.351 111.668 358.814 111.775 358.478 111.99C358.152 112.195 357.988 112.508 357.988 112.928C357.988 113.255 358.086 113.521 358.282 113.726C358.478 113.931 358.786 114.034 359.206 114.034ZM369.697 113.572C369.473 114.048 369.161 114.431 368.759 114.72C368.358 115 367.849 115.14 367.233 115.14C366.795 115.14 366.379 115.065 365.987 114.916C365.595 114.757 365.25 114.524 364.951 114.216C364.653 113.899 364.415 113.507 364.237 113.04C364.06 112.564 363.971 112.004 363.971 111.36C363.971 110.725 364.06 110.175 364.237 109.708C364.415 109.232 364.653 108.84 364.951 108.532C365.25 108.215 365.595 107.981 365.987 107.832C366.389 107.673 366.809 107.594 367.247 107.594C367.798 107.594 368.274 107.711 368.675 107.944C369.077 108.168 369.399 108.49 369.641 108.91V104.962H370.873V115H369.795L369.697 113.572ZM367.415 114.034C367.733 114.034 368.027 113.983 368.297 113.88C368.568 113.768 368.801 113.6 368.997 113.376C369.203 113.152 369.361 112.872 369.473 112.536C369.595 112.2 369.655 111.808 369.655 111.36C369.655 110.912 369.595 110.52 369.473 110.184C369.361 109.848 369.203 109.568 368.997 109.344C368.801 109.12 368.568 108.957 368.297 108.854C368.027 108.742 367.733 108.686 367.415 108.686C366.771 108.686 366.244 108.915 365.833 109.372C365.432 109.82 365.231 110.483 365.231 111.36C365.231 112.247 365.437 112.914 365.847 113.362C366.258 113.81 366.781 114.034 367.415 114.034ZM374.116 115H372.884V107.734H373.962L374.088 109.036H374.116C374.312 108.625 374.606 108.285 374.998 108.014C375.39 107.734 375.903 107.594 376.538 107.594C377.098 107.594 377.555 107.729 377.91 108C378.274 108.261 378.517 108.658 378.638 109.19C378.843 108.695 379.156 108.308 379.576 108.028C380.005 107.739 380.523 107.594 381.13 107.594C381.802 107.594 382.334 107.785 382.726 108.168C383.118 108.541 383.314 109.12 383.314 109.904V115H382.068V110.058C382.068 109.582 381.951 109.237 381.718 109.022C381.485 108.798 381.167 108.686 380.766 108.686C380.495 108.686 380.257 108.728 380.052 108.812C379.847 108.887 379.665 108.994 379.506 109.134C379.347 109.274 379.203 109.437 379.072 109.624C378.941 109.811 378.82 110.007 378.708 110.212V115H377.476V109.918C377.476 109.451 377.359 109.129 377.126 108.952C376.893 108.775 376.575 108.686 376.174 108.686C375.913 108.686 375.679 108.719 375.474 108.784C375.269 108.849 375.082 108.943 374.914 109.064C374.755 109.185 374.611 109.335 374.48 109.512C374.349 109.68 374.228 109.867 374.116 110.072V115ZM385.873 106.67C385.621 106.67 385.421 106.595 385.271 106.446C385.122 106.287 385.047 106.096 385.047 105.872C385.047 105.648 385.122 105.457 385.271 105.298C385.421 105.139 385.621 105.06 385.873 105.06C386.116 105.06 386.307 105.139 386.447 105.298C386.587 105.457 386.657 105.648 386.657 105.872C386.657 106.096 386.587 106.287 386.447 106.446C386.307 106.595 386.116 106.67 385.873 106.67ZM386.475 107.734V115H385.243V107.734H386.475ZM391.927 108.686C391.367 108.686 390.91 108.817 390.555 109.078C390.21 109.33 389.93 109.657 389.715 110.058V115H388.483V107.734H389.645L389.687 109.036H389.715C389.911 108.616 390.219 108.271 390.639 108C391.059 107.729 391.591 107.594 392.235 107.594C392.954 107.594 393.523 107.785 393.943 108.168C394.373 108.541 394.587 109.12 394.587 109.904V115H393.355V110.03C393.355 109.526 393.229 109.176 392.977 108.98C392.725 108.784 392.375 108.686 391.927 108.686Z" fill="#262626"/>
<path d="M350 130L344.226 140L355.774 140L350 130ZM349 139L349 170L351 170L351 139L349 139Z" fill="#4E496B"/>
<path d="M350 210L344.226 220L355.774 220L350 210ZM349 219L349 250L351 250L351 219L349 219Z" fill="#4E496B"/>
<path d="M109 170C109 162.689 109 157.986 109 154.993C109 152.232 111.239 150 114 150L314 150" stroke="#4E496B" stroke-width="2"/>
<path d="M350 250C350 242.689 350 237.986 350 234.993C350 232.232 352.239 230 355 230L508 230" stroke="#4E496B" stroke-width="2"/>
<path d="M590 130L584.226 140L595.774 140L590 130ZM589 139L589 170L591 170L591 139L589 139Z" fill="#4E496B"/>
<path d="M590 220L590 250" stroke="#4E496B" stroke-width="2"/>
<path d="M350 170C350 162.689 350 157.986 350 154.993C350 152.232 352.239 150 355 150L554 150" stroke="#4E496B" stroke-width="2"/>
<path d="M590 137C590 140.516 590 143.104 590 145C590 147.762 587.761 150 585 150L441 150" stroke="#4E496B" stroke-width="2"/>
<path d="M590 50L584.226 60L595.774 60L590 50ZM589 59L589 90L591 90L591 59L589 59Z" fill="#4E496B"/>
<path d="M349 90C349 82.6888 349 77.9864 349 74.993C349 72.2316 351.239 70 354 70L554 70" stroke="#4E496B" stroke-width="2"/>
<path d="M590 57C590 60.5159 590 63.1037 590 65.0002C590 67.7616 587.761 70 585 70L441 70" stroke="#4E496B" stroke-width="2"/>
<path d="M590 210L584.226 220L595.774 220L590 210ZM590 225.003L589 225.003L590 225.003ZM585 230L585 229L585 230ZM589 219.001C589 221.298 589 223.33 589 225.003L591 225.003C591 223.33 591 221.298 591 219.001L589 219.001ZM585 229L441 229L441 231L585 231L585 229ZM589 225.003C589 227.211 587.21 229 585 229L585 231C588.313 231 591 228.317 591 225.003L589 225.003Z" fill="#4E496B"/>
</svg>
