<svg width="700" height="230" viewBox="16 85 668 232" fill="none" xmlns="http://www.w3.org/2000/svg">
<path d="M150 136L160 141.774V130.226L150 136ZM159 137H195.5V135H159V137Z" fill="#4E496B"/>
<path d="M84 239.5L89.7735 229.5H78.2265L84 239.5ZM85 230.5L85 172H83L83 230.5H85Z" fill="#4E496B"/>
<path d="M261 239.5L266.774 229.5H255.226L261 239.5ZM262 230.5V172H260V230.5H262Z" fill="#4E496B"/>
<path d="M288 239.5L293.774 229.5H282.226L288 239.5ZM439 205.75V206.75H440V205.75H439ZM288 205.75V204.75H287V205.75H288ZM289 230.5V205.75H287V230.5H289ZM288 206.75L439 206.75V204.75L288 204.75V206.75ZM440 205.75V171.5H438V205.75H440Z" fill="#4E496B"/>
<path d="M234 239.5L239.774 229.5H228.226L234 239.5ZM234 205.75H235V204.75H234V205.75ZM235 230.5V205.75H233V230.5H235ZM234 204.75L84 204.75V206.75L234 206.75V204.75Z" fill="#4E496B"/>
<path d="M502 136L512 141.774V130.226L502 136ZM511 137H547.5V135H511V137Z" fill="#4E496B"/>
<rect x="24" y="105" width="120" height="60" rx="5" fill="#E3EBFF"/>
<rect x="24" y="245" width="120" height="60" rx="5" fill="#E3EBFF"/>
<rect x="201" y="245" width="120" height="60" rx="5" fill="#FFF5CC"/>
<rect x="201" y="105" width="120" height="60" rx="5" fill="#E3EBFF"/>
<rect x="378" y="105" width="120" height="60" rx="5" fill="#E3EBFF"/>
<rect x="555" y="105" width="120" height="60" rx="5" fill="#E3EBFF"/>
<path d="M55.3417 129.962H58.7577C59.9523 129.962 60.8623 130.149 61.4877 130.522C62.113 130.895 62.4257 131.525 62.4257 132.412C62.4257 132.776 62.3743 133.093 62.2717 133.364C62.169 133.625 62.0197 133.854 61.8237 134.05C61.637 134.237 61.4083 134.391 61.1377 134.512C60.867 134.633 60.5683 134.727 60.2417 134.792C61.0817 134.895 61.7163 135.123 62.1457 135.478C62.575 135.833 62.7897 136.374 62.7897 137.102C62.7897 137.625 62.687 138.073 62.4817 138.446C62.2763 138.81 61.9917 139.109 61.6277 139.342C61.2637 139.566 60.8343 139.734 60.3397 139.846C59.845 139.949 59.3083 140 58.7297 140H55.3417V129.962ZM57.0357 131.432V134.106H58.8417C59.4017 134.106 59.8543 133.989 60.1997 133.756C60.545 133.513 60.7177 133.135 60.7177 132.622C60.7177 132.155 60.559 131.843 60.2417 131.684C59.9337 131.516 59.495 131.432 58.9257 131.432H57.0357ZM57.0357 135.562V138.544H58.8977C59.215 138.544 59.5043 138.521 59.7657 138.474C60.027 138.418 60.251 138.334 60.4377 138.222C60.6243 138.101 60.769 137.947 60.8717 137.76C60.9743 137.564 61.0257 137.326 61.0257 137.046C61.0257 136.495 60.8437 136.113 60.4797 135.898C60.125 135.674 59.551 135.562 58.7577 135.562H57.0357ZM67.4838 140.14C66.9705 140.14 66.4945 140.056 66.0558 139.888C65.6172 139.72 65.2345 139.477 64.9078 139.16C64.5905 138.833 64.3385 138.437 64.1518 137.97C63.9745 137.503 63.8858 136.967 63.8858 136.36C63.8858 135.753 63.9745 135.217 64.1518 134.75C64.3385 134.283 64.5905 133.891 64.9078 133.574C65.2345 133.247 65.6172 133.005 66.0558 132.846C66.4945 132.678 66.9705 132.594 67.4838 132.594C67.9972 132.594 68.4732 132.678 68.9118 132.846C69.3505 133.005 69.7332 133.247 70.0598 133.574C70.3865 133.891 70.6432 134.283 70.8298 134.75C71.0165 135.217 71.1098 135.753 71.1098 136.36C71.1098 136.967 71.0165 137.503 70.8298 137.97C70.6432 138.437 70.3865 138.833 70.0598 139.16C69.7332 139.477 69.3505 139.72 68.9118 139.888C68.4732 140.056 67.9972 140.14 67.4838 140.14ZM67.4838 138.782C68.0438 138.782 68.5058 138.586 68.8698 138.194C69.2432 137.802 69.4298 137.191 69.4298 136.36C69.4298 135.539 69.2432 134.932 68.8698 134.54C68.5058 134.139 68.0438 133.938 67.4838 133.938C66.9332 133.938 66.4712 134.139 66.0978 134.54C65.7338 134.932 65.5518 135.539 65.5518 136.36C65.5518 137.191 65.7338 137.802 66.0978 138.194C66.4712 138.586 66.9332 138.782 67.4838 138.782ZM76.4726 140.14C75.9219 140.14 75.4459 140.019 75.0446 139.776C74.6526 139.524 74.3353 139.188 74.0926 138.768V142.478H72.4686V132.734H73.9526L74.0646 134.022C74.3073 133.583 74.6293 133.238 75.0306 132.986C75.4319 132.725 75.9219 132.594 76.5006 132.594C76.9299 132.594 77.3359 132.673 77.7186 132.832C78.1106 132.981 78.4513 133.215 78.7406 133.532C79.0299 133.84 79.2586 134.232 79.4266 134.708C79.6039 135.175 79.6926 135.725 79.6926 136.36C79.6926 137.004 79.6039 137.564 79.4266 138.04C79.2586 138.507 79.0253 138.899 78.7266 139.216C78.4373 139.524 78.0966 139.757 77.7046 139.916C77.3126 140.065 76.9019 140.14 76.4726 140.14ZM76.0806 138.782C76.6593 138.782 77.1259 138.586 77.4806 138.194C77.8446 137.793 78.0266 137.181 78.0266 136.36C78.0266 135.548 77.8446 134.941 77.4806 134.54C77.1259 134.139 76.6639 133.938 76.0946 133.938C75.8053 133.938 75.5393 133.989 75.2966 134.092C75.0539 134.185 74.8393 134.335 74.6526 134.54C74.4753 134.745 74.3353 135.002 74.2326 135.31C74.1299 135.609 74.0786 135.959 74.0786 136.36C74.0786 136.771 74.1299 137.13 74.2326 137.438C74.3353 137.737 74.4753 137.989 74.6526 138.194C74.8299 138.39 75.0399 138.539 75.2826 138.642C75.5346 138.735 75.8006 138.782 76.0806 138.782ZM83.3222 137.046H82.6922V140H81.0682V132.734H82.6922V135.73H83.3782L85.6882 132.734H87.3962L84.6522 136.234L87.5082 140H85.5902L83.3222 137.046ZM94.3219 139.468C94.2193 139.533 94.0933 139.608 93.9439 139.692C93.7946 139.767 93.6173 139.837 93.4119 139.902C93.2066 139.967 92.9686 140.023 92.6979 140.07C92.4273 140.117 92.1193 140.14 91.7739 140.14C90.4393 140.14 89.4406 139.809 88.7779 139.146C88.1246 138.483 87.7979 137.555 87.7979 136.36C87.7979 135.772 87.8866 135.245 88.0639 134.778C88.2413 134.311 88.4886 133.919 88.8059 133.602C89.1233 133.275 89.5013 133.028 89.9399 132.86C90.3786 132.683 90.8593 132.594 91.3819 132.594C91.9233 132.594 92.4086 132.683 92.8379 132.86C93.2766 133.037 93.6359 133.303 93.9159 133.658C94.1959 134.013 94.3873 134.451 94.4899 134.974C94.6019 135.497 94.6066 136.108 94.5039 136.808H89.4779C89.5433 137.471 89.7626 137.97 90.1359 138.306C90.5093 138.633 91.0926 138.796 91.8859 138.796C92.4646 138.796 92.9453 138.726 93.3279 138.586C93.7199 138.437 94.0513 138.283 94.3219 138.124V139.468ZM91.3819 133.882C90.9059 133.882 90.5046 134.027 90.1779 134.316C89.8513 134.605 89.6366 135.035 89.5339 135.604H92.9499C92.9686 135.016 92.8379 134.582 92.5579 134.302C92.2779 134.022 91.8859 133.882 91.3819 133.882ZM100.016 140.14C99.4649 140.14 98.9889 140.019 98.5876 139.776C98.1956 139.524 97.8782 139.188 97.6356 138.768V142.478H96.0116V132.734H97.4956L97.6076 134.022C97.8502 133.583 98.1722 133.238 98.5736 132.986C98.9749 132.725 99.4649 132.594 100.044 132.594C100.473 132.594 100.879 132.673 101.262 132.832C101.654 132.981 101.994 133.215 102.284 133.532C102.573 133.84 102.802 134.232 102.97 134.708C103.147 135.175 103.236 135.725 103.236 136.36C103.236 137.004 103.147 137.564 102.97 138.04C102.802 138.507 102.568 138.899 102.27 139.216C101.98 139.524 101.64 139.757 101.248 139.916C100.856 140.065 100.445 140.14 100.016 140.14ZM99.6236 138.782C100.202 138.782 100.669 138.586 101.024 138.194C101.388 137.793 101.57 137.181 101.57 136.36C101.57 135.548 101.388 134.941 101.024 134.54C100.669 134.139 100.207 133.938 99.6376 133.938C99.3482 133.938 99.0822 133.989 98.8396 134.092C98.5969 134.185 98.3822 134.335 98.1956 134.54C98.0182 134.745 97.8782 135.002 97.7756 135.31C97.6729 135.609 97.6216 135.959 97.6216 136.36C97.6216 136.771 97.6729 137.13 97.7756 137.438C97.8782 137.737 98.0182 137.989 98.1956 138.194C98.3729 138.39 98.5829 138.539 98.8256 138.642C99.0776 138.735 99.3436 138.782 99.6236 138.782ZM110.379 137.494C110.379 137.914 110.3 138.283 110.141 138.6C109.992 138.917 109.782 139.179 109.511 139.384C109.241 139.589 108.919 139.743 108.545 139.846C108.172 139.949 107.761 140 107.313 140H104.611V132.734H106.235V135.086H107.369C108.321 135.086 109.059 135.282 109.581 135.674C110.113 136.066 110.379 136.673 110.379 137.494ZM112.829 140H111.205V132.734H112.829V140ZM106.235 136.374V138.726H107.187C107.635 138.726 107.999 138.637 108.279 138.46C108.569 138.273 108.713 137.97 108.713 137.55C108.713 137.13 108.587 136.831 108.335 136.654C108.083 136.467 107.719 136.374 107.243 136.374H106.235Z" fill="black" fill-opacity="0.85"/>
<path d="M59.3187 271.432V280H57.6107V271.432H54.5587V269.962H62.3567V271.432H59.3187ZM66.9306 274.302C66.3986 274.293 65.9179 274.377 65.4886 274.554C65.0593 274.731 64.7326 275.011 64.5086 275.394V280H62.8846V272.734H64.3686L64.4806 274.246H64.5086C64.7419 273.798 65.0593 273.425 65.4606 273.126C65.8713 272.827 66.3613 272.65 66.9306 272.594V274.302ZM69.0837 271.81C68.785 271.81 68.5377 271.712 68.3417 271.516C68.155 271.32 68.0617 271.087 68.0617 270.816C68.0617 270.545 68.155 270.312 68.3417 270.116C68.5377 269.92 68.785 269.822 69.0837 269.822C69.373 269.822 69.611 269.92 69.7977 270.116C69.9937 270.312 70.0917 270.545 70.0917 270.816C70.0917 271.087 69.9937 271.32 69.7977 271.516C69.611 271.712 69.373 271.81 69.0837 271.81ZM69.8957 272.734V280H68.2717V272.734H69.8957ZM78.3526 279.062C78.3526 279.594 78.278 280.07 78.1286 280.49C77.9886 280.919 77.76 281.283 77.4426 281.582C77.1253 281.881 76.7146 282.109 76.2106 282.268C75.716 282.427 75.114 282.506 74.4046 282.506C74.0313 282.506 73.7046 282.483 73.4246 282.436C73.1446 282.399 72.902 282.347 72.6966 282.282C72.4913 282.226 72.314 282.161 72.1646 282.086C72.0246 282.021 71.9033 281.955 71.8006 281.89V280.546C71.9406 280.63 72.09 280.709 72.2486 280.784C72.4166 280.859 72.6033 280.924 72.8086 280.98C73.0233 281.036 73.2613 281.078 73.5226 281.106C73.784 281.143 74.0826 281.162 74.4186 281.162C75.2213 281.162 75.8046 281.013 76.1686 280.714C76.542 280.415 76.7286 279.883 76.7286 279.118V278.39C76.5046 278.791 76.206 279.113 75.8326 279.356C75.4593 279.589 74.9973 279.706 74.4466 279.706C74.0266 279.706 73.6206 279.631 73.2286 279.482C72.846 279.333 72.5053 279.113 72.2066 278.824C71.9173 278.525 71.684 278.157 71.5066 277.718C71.3386 277.27 71.2546 276.752 71.2546 276.164C71.2546 275.567 71.3386 275.049 71.5066 274.61C71.684 274.162 71.9173 273.789 72.2066 273.49C72.5053 273.191 72.8506 272.967 73.2426 272.818C73.6346 272.669 74.0453 272.594 74.4746 272.594C75.0346 272.594 75.506 272.715 75.8886 272.958C76.2713 273.191 76.5793 273.518 76.8126 273.938V273.896C76.8126 273.728 76.822 273.527 76.8406 273.294C76.8686 273.051 76.8966 272.865 76.9246 272.734H78.4226C78.404 272.865 78.3853 273.051 78.3666 273.294C78.3573 273.537 78.3526 273.737 78.3526 273.896V279.062ZM74.8526 278.348C75.4033 278.348 75.856 278.171 76.2106 277.816C76.5653 277.452 76.7426 276.901 76.7426 276.164C76.7426 275.417 76.5606 274.862 76.1966 274.498C75.842 274.125 75.3893 273.938 74.8386 273.938C74.568 273.938 74.316 273.985 74.0826 274.078C73.8493 274.171 73.644 274.311 73.4666 274.498C73.2986 274.685 73.1633 274.918 73.0606 275.198C72.9673 275.469 72.9206 275.791 72.9206 276.164C72.9206 276.892 73.1026 277.438 73.4666 277.802C73.8306 278.166 74.2926 278.348 74.8526 278.348ZM86.8429 279.062C86.8429 279.594 86.7682 280.07 86.6189 280.49C86.4789 280.919 86.2502 281.283 85.9329 281.582C85.6155 281.881 85.2049 282.109 84.7009 282.268C84.2062 282.427 83.6042 282.506 82.8949 282.506C82.5215 282.506 82.1949 282.483 81.9149 282.436C81.6349 282.399 81.3922 282.347 81.1869 282.282C80.9815 282.226 80.8042 282.161 80.6549 282.086C80.5149 282.021 80.3935 281.955 80.2909 281.89V280.546C80.4309 280.63 80.5802 280.709 80.7389 280.784C80.9069 280.859 81.0935 280.924 81.2989 280.98C81.5135 281.036 81.7515 281.078 82.0129 281.106C82.2742 281.143 82.5729 281.162 82.9089 281.162C83.7115 281.162 84.2949 281.013 84.6589 280.714C85.0322 280.415 85.2189 279.883 85.2189 279.118V278.39C84.9949 278.791 84.6962 279.113 84.3229 279.356C83.9495 279.589 83.4875 279.706 82.9369 279.706C82.5169 279.706 82.1109 279.631 81.7189 279.482C81.3362 279.333 80.9955 279.113 80.6969 278.824C80.4075 278.525 80.1742 278.157 79.9969 277.718C79.8289 277.27 79.7449 276.752 79.7449 276.164C79.7449 275.567 79.8289 275.049 79.9969 274.61C80.1742 274.162 80.4075 273.789 80.6969 273.49C80.9955 273.191 81.3409 272.967 81.7329 272.818C82.1249 272.669 82.5355 272.594 82.9649 272.594C83.5249 272.594 83.9962 272.715 84.3789 272.958C84.7615 273.191 85.0695 273.518 85.3029 273.938V273.896C85.3029 273.728 85.3122 273.527 85.3309 273.294C85.3589 273.051 85.3869 272.865 85.4149 272.734H86.9129C86.8942 272.865 86.8755 273.051 86.8569 273.294C86.8475 273.537 86.8429 273.737 86.8429 273.896V279.062ZM83.3429 278.348C83.8935 278.348 84.3462 278.171 84.7009 277.816C85.0555 277.452 85.2329 276.901 85.2329 276.164C85.2329 275.417 85.0509 274.862 84.6869 274.498C84.3322 274.125 83.8795 273.938 83.3289 273.938C83.0582 273.938 82.8062 273.985 82.5729 274.078C82.3395 274.171 82.1342 274.311 81.9569 274.498C81.7889 274.685 81.6535 274.918 81.5509 275.198C81.4575 275.469 81.4109 275.791 81.4109 276.164C81.4109 276.892 81.5929 277.438 81.9569 277.802C82.3209 278.166 82.7829 278.348 83.3429 278.348ZM94.7731 279.468C94.6704 279.533 94.5444 279.608 94.3951 279.692C94.2458 279.767 94.0684 279.837 93.8631 279.902C93.6578 279.967 93.4198 280.023 93.1491 280.07C92.8784 280.117 92.5704 280.14 92.2251 280.14C90.8904 280.14 89.8918 279.809 89.2291 279.146C88.5758 278.483 88.2491 277.555 88.2491 276.36C88.2491 275.772 88.3378 275.245 88.5151 274.778C88.6924 274.311 88.9398 273.919 89.2571 273.602C89.5744 273.275 89.9524 273.028 90.3911 272.86C90.8298 272.683 91.3104 272.594 91.8331 272.594C92.3744 272.594 92.8598 272.683 93.2891 272.86C93.7278 273.037 94.0871 273.303 94.3671 273.658C94.6471 274.013 94.8384 274.451 94.9411 274.974C95.0531 275.497 95.0578 276.108 94.9551 276.808H89.9291C89.9944 277.471 90.2138 277.97 90.5871 278.306C90.9604 278.633 91.5438 278.796 92.3371 278.796C92.9158 278.796 93.3964 278.726 93.7791 278.586C94.1711 278.437 94.5024 278.283 94.7731 278.124V279.468ZM91.8331 273.882C91.3571 273.882 90.9558 274.027 90.6291 274.316C90.3024 274.605 90.0878 275.035 89.9851 275.604H93.4011C93.4198 275.016 93.2891 274.582 93.0091 274.302C92.7291 274.022 92.3371 273.882 91.8331 273.882ZM100.44 274.302C99.9084 274.293 99.4277 274.377 98.9984 274.554C98.569 274.731 98.2424 275.011 98.0184 275.394V280H96.3944V272.734H97.8784L97.9904 274.246H98.0184C98.2517 273.798 98.569 273.425 98.9704 273.126C99.381 272.827 99.871 272.65 100.44 272.594V274.302ZM107.693 279.468C107.59 279.533 107.464 279.608 107.315 279.692C107.166 279.767 106.988 279.837 106.783 279.902C106.578 279.967 106.34 280.023 106.069 280.07C105.798 280.117 105.49 280.14 105.145 280.14C103.81 280.14 102.812 279.809 102.149 279.146C101.496 278.483 101.169 277.555 101.169 276.36C101.169 275.772 101.258 275.245 101.435 274.778C101.612 274.311 101.86 273.919 102.177 273.602C102.494 273.275 102.872 273.028 103.311 272.86C103.75 272.683 104.23 272.594 104.753 272.594C105.294 272.594 105.78 272.683 106.209 272.86C106.648 273.037 107.007 273.303 107.287 273.658C107.567 274.013 107.758 274.451 107.861 274.974C107.973 275.497 107.978 276.108 107.875 276.808H102.849C102.914 277.471 103.134 277.97 103.507 278.306C103.88 278.633 104.464 278.796 105.257 278.796C105.836 278.796 106.316 278.726 106.699 278.586C107.091 278.437 107.422 278.283 107.693 278.124V279.468ZM104.753 273.882C104.277 273.882 103.876 274.027 103.549 274.316C103.222 274.605 103.008 275.035 102.905 275.604H106.321C106.34 275.016 106.209 274.582 105.929 274.302C105.649 274.022 105.257 273.882 104.753 273.882ZM113.36 274.302C112.828 274.293 112.348 274.377 111.918 274.554C111.489 274.731 111.162 275.011 110.938 275.394V280H109.314V272.734H110.798L110.91 274.246H110.938C111.172 273.798 111.489 273.425 111.89 273.126C112.301 272.827 112.791 272.65 113.36 272.594V274.302Z" fill="black" fill-opacity="0.85"/>
<path d="M226.793 266.024L224.259 270H222.537L225.911 264.848L222.775 259.962H224.749L227.087 263.672L229.383 259.962H231.119L227.969 264.82L231.315 270H229.369L226.793 266.024ZM236.294 270.14C235.743 270.14 235.267 270.019 234.866 269.776C234.474 269.524 234.157 269.188 233.914 268.768V272.478H232.29V262.734H233.774L233.886 264.022C234.129 263.583 234.451 263.238 234.852 262.986C235.253 262.725 235.743 262.594 236.322 262.594C236.751 262.594 237.157 262.673 237.54 262.832C237.932 262.981 238.273 263.215 238.562 263.532C238.851 263.84 239.08 264.232 239.248 264.708C239.425 265.175 239.514 265.725 239.514 266.36C239.514 267.004 239.425 267.564 239.248 268.04C239.08 268.507 238.847 268.899 238.548 269.216C238.259 269.524 237.918 269.757 237.526 269.916C237.134 270.065 236.723 270.14 236.294 270.14ZM235.902 268.782C236.481 268.782 236.947 268.586 237.302 268.194C237.666 267.793 237.848 267.181 237.848 266.36C237.848 265.548 237.666 264.941 237.302 264.54C236.947 264.139 236.485 263.938 235.916 263.938C235.627 263.938 235.361 263.989 235.118 264.092C234.875 264.185 234.661 264.335 234.474 264.54C234.297 264.745 234.157 265.002 234.054 265.31C233.951 265.609 233.9 265.959 233.9 266.36C233.9 266.771 233.951 267.13 234.054 267.438C234.157 267.737 234.297 267.989 234.474 268.194C234.651 268.39 234.861 268.539 235.104 268.642C235.356 268.735 235.622 268.782 235.902 268.782ZM245.007 268.726C244.932 268.894 244.83 269.062 244.699 269.23C244.578 269.398 244.424 269.552 244.237 269.692C244.06 269.823 243.845 269.93 243.593 270.014C243.341 270.098 243.047 270.14 242.711 270.14C242.394 270.14 242.1 270.093 241.829 270C241.558 269.916 241.32 269.785 241.115 269.608C240.919 269.431 240.76 269.211 240.639 268.95C240.527 268.679 240.471 268.371 240.471 268.026C240.471 267.233 240.765 266.64 241.353 266.248C241.941 265.847 242.772 265.646 243.845 265.646H244.951V265.198C244.951 264.722 244.83 264.395 244.587 264.218C244.344 264.031 243.943 263.938 243.383 263.938C242.907 263.938 242.459 264.008 242.039 264.148C241.628 264.279 241.264 264.433 240.947 264.61V263.252C241.236 263.093 241.619 262.944 242.095 262.804C242.571 262.664 243.089 262.594 243.649 262.594C244.582 262.594 245.301 262.79 245.805 263.182C246.318 263.565 246.575 264.181 246.575 265.03V268.824C246.575 268.908 246.575 269.006 246.575 269.118C246.584 269.221 246.589 269.328 246.589 269.44C246.598 269.552 246.608 269.659 246.617 269.762C246.626 269.855 246.636 269.935 246.645 270H245.147C245.119 269.869 245.091 269.687 245.063 269.454C245.044 269.221 245.03 269.011 245.021 268.824L245.007 268.726ZM243.159 268.88C243.504 268.88 243.789 268.81 244.013 268.67C244.246 268.521 244.433 268.353 244.573 268.166C244.713 267.97 244.811 267.779 244.867 267.592C244.923 267.405 244.951 267.275 244.951 267.2V266.71H243.943C243.299 266.71 242.828 266.813 242.529 267.018C242.23 267.214 242.081 267.494 242.081 267.858C242.081 268.175 242.17 268.427 242.347 268.614C242.534 268.791 242.804 268.88 243.159 268.88ZM253.017 266.934H249.951V270H248.327V262.734H249.951V265.618H253.017V262.734H254.641V270H253.017V266.934ZM258.072 267.802L261.432 262.734H263.028V270H261.418V264.96L258.086 270H256.462V262.734H258.072V267.802ZM265.486 267.424C265.589 266.948 265.654 266.332 265.682 265.576C265.72 264.811 265.738 263.863 265.738 262.734H270.96V270H269.336V264.05H267.222C267.204 265.011 267.166 265.861 267.11 266.598C267.054 267.335 266.938 267.961 266.76 268.474C266.592 268.978 266.345 269.365 266.018 269.636C265.701 269.907 265.272 270.042 264.73 270.042C264.656 270.042 264.581 270.037 264.506 270.028C264.441 270.028 264.371 270.023 264.296 270.014V268.502C264.39 268.521 264.46 268.53 264.506 268.53C264.758 268.53 264.959 268.441 265.108 268.264C265.267 268.077 265.393 267.797 265.486 267.424ZM274.41 267.802L277.77 262.734H279.366V270H277.756V264.96L274.424 270H272.8V262.734H274.41V267.802ZM290.574 268.684H291.652V272.072H290.266L290.126 270H281.194V262.734H282.818V268.684H285.072V262.734H286.696V268.684H288.936V262.734H290.574V268.684ZM298.796 269.468C298.693 269.533 298.567 269.608 298.418 269.692C298.268 269.767 298.091 269.837 297.886 269.902C297.68 269.967 297.442 270.023 297.172 270.07C296.901 270.117 296.593 270.14 296.248 270.14C294.913 270.14 293.914 269.809 293.252 269.146C292.598 268.483 292.272 267.555 292.272 266.36C292.272 265.772 292.36 265.245 292.538 264.778C292.715 264.311 292.962 263.919 293.28 263.602C293.597 263.275 293.975 263.028 294.414 262.86C294.852 262.683 295.333 262.594 295.856 262.594C296.397 262.594 296.882 262.683 297.312 262.86C297.75 263.037 298.11 263.303 298.39 263.658C298.67 264.013 298.861 264.451 298.964 264.974C299.076 265.497 299.08 266.108 298.978 266.808H293.952C294.017 267.471 294.236 267.97 294.61 268.306C294.983 268.633 295.566 268.796 296.36 268.796C296.938 268.796 297.419 268.726 297.802 268.586C298.194 268.437 298.525 268.283 298.796 268.124V269.468ZM295.856 263.882C295.38 263.882 294.978 264.027 294.652 264.316C294.325 264.605 294.11 265.035 294.008 265.604H297.424C297.442 265.016 297.312 264.582 297.032 264.302C296.752 264.022 296.36 263.882 295.856 263.882ZM219.962 278.962H223.35C224.059 278.962 224.717 279.041 225.324 279.2C225.94 279.359 226.472 279.62 226.92 279.984C227.377 280.348 227.732 280.829 227.984 281.426C228.245 282.023 228.376 282.761 228.376 283.638C228.376 284.525 228.245 285.304 227.984 285.976C227.732 286.639 227.372 287.194 226.906 287.642C226.448 288.09 225.902 288.431 225.268 288.664C224.642 288.888 223.956 289 223.21 289H219.962V278.962ZM221.656 280.432V287.544H223.266C223.76 287.544 224.208 287.469 224.61 287.32C225.02 287.171 225.37 286.942 225.66 286.634C225.958 286.326 226.187 285.934 226.346 285.458C226.514 284.973 226.598 284.399 226.598 283.736C226.598 283.083 226.518 282.546 226.36 282.126C226.201 281.697 225.977 281.356 225.688 281.104C225.408 280.852 225.072 280.679 224.68 280.586C224.288 280.483 223.863 280.432 223.406 280.432H221.656ZM232.22 278.962H234.446L238.002 289H236.252L235.328 286.368H231.1L230.176 289H228.678L232.22 278.962ZM234.81 284.912L233.214 280.39L231.618 284.912H234.81ZM247.564 285.024C247.564 285.612 247.476 286.158 247.298 286.662C247.121 287.157 246.85 287.591 246.486 287.964C246.122 288.328 245.665 288.617 245.114 288.832C244.573 289.037 243.934 289.14 243.196 289.14C242.468 289.14 241.806 289.019 241.208 288.776C240.611 288.533 240.098 288.188 239.668 287.74C239.239 287.292 238.908 286.751 238.674 286.116C238.441 285.481 238.324 284.772 238.324 283.988C238.324 283.204 238.436 282.495 238.66 281.86C238.894 281.225 239.23 280.684 239.668 280.236C240.116 279.788 240.667 279.443 241.32 279.2C241.983 278.957 242.744 278.836 243.602 278.836C244.032 278.836 244.41 278.864 244.736 278.92C245.072 278.967 245.371 279.032 245.632 279.116C245.894 279.191 246.122 279.279 246.318 279.382C246.514 279.485 246.692 279.583 246.85 279.676V281.188C246.421 280.936 245.95 280.726 245.436 280.558C244.932 280.381 244.33 280.292 243.63 280.292C242.408 280.292 241.516 280.619 240.956 281.272C240.396 281.916 240.116 282.821 240.116 283.988C240.116 285.164 240.382 286.074 240.914 286.718C241.456 287.362 242.221 287.684 243.21 287.684C243.677 287.684 244.078 287.623 244.414 287.502C244.75 287.371 245.021 287.199 245.226 286.984C245.441 286.76 245.595 286.499 245.688 286.2C245.791 285.892 245.842 285.556 245.842 285.192V285.108H242.902V283.652H247.564V285.024ZM249.007 284.016H252.437V285.402H249.007V284.016ZM263.192 285.36C263.192 285.948 263.094 286.471 262.898 286.928C262.702 287.376 262.427 287.759 262.072 288.076C261.727 288.384 261.316 288.627 260.84 288.804C260.374 288.981 259.87 289.084 259.328 289.112V291.478H257.704V289.112C257.154 289.075 256.64 288.972 256.164 288.804C255.688 288.627 255.278 288.379 254.932 288.062C254.587 287.745 254.316 287.362 254.12 286.914C253.924 286.466 253.826 285.948 253.826 285.36C253.826 284.772 253.924 284.254 254.12 283.806C254.316 283.358 254.587 282.975 254.932 282.658C255.287 282.341 255.698 282.098 256.164 281.93C256.64 281.753 257.154 281.65 257.704 281.622V278.822H259.328V281.622C259.879 281.65 260.388 281.753 260.854 281.93C261.33 282.098 261.741 282.341 262.086 282.658C262.432 282.975 262.702 283.358 262.898 283.806C263.094 284.254 263.192 284.772 263.192 285.36ZM261.526 285.36C261.526 284.576 261.321 283.983 260.91 283.582C260.5 283.181 259.972 282.957 259.328 282.91V287.81C259.972 287.763 260.5 287.539 260.91 287.138C261.321 286.737 261.526 286.144 261.526 285.36ZM255.478 285.36C255.478 286.144 255.684 286.737 256.094 287.138C256.514 287.539 257.051 287.763 257.704 287.81V282.91C257.042 282.966 256.505 283.195 256.094 283.596C255.684 283.997 255.478 284.585 255.478 285.36ZM268.618 287.726C268.544 287.894 268.441 288.062 268.31 288.23C268.189 288.398 268.035 288.552 267.848 288.692C267.671 288.823 267.456 288.93 267.204 289.014C266.952 289.098 266.658 289.14 266.322 289.14C266.005 289.14 265.711 289.093 265.44 289C265.17 288.916 264.932 288.785 264.726 288.608C264.53 288.431 264.372 288.211 264.25 287.95C264.138 287.679 264.082 287.371 264.082 287.026C264.082 286.233 264.376 285.64 264.964 285.248C265.552 284.847 266.383 284.646 267.456 284.646H268.562V284.198C268.562 283.722 268.441 283.395 268.198 283.218C267.956 283.031 267.554 282.938 266.994 282.938C266.518 282.938 266.07 283.008 265.65 283.148C265.24 283.279 264.876 283.433 264.558 283.61V282.252C264.848 282.093 265.23 281.944 265.706 281.804C266.182 281.664 266.7 281.594 267.26 281.594C268.194 281.594 268.912 281.79 269.416 282.182C269.93 282.565 270.186 283.181 270.186 284.03V287.824C270.186 287.908 270.186 288.006 270.186 288.118C270.196 288.221 270.2 288.328 270.2 288.44C270.21 288.552 270.219 288.659 270.228 288.762C270.238 288.855 270.247 288.935 270.256 289H268.758C268.73 288.869 268.702 288.687 268.674 288.454C268.656 288.221 268.642 288.011 268.632 287.824L268.618 287.726ZM266.77 287.88C267.116 287.88 267.4 287.81 267.624 287.67C267.858 287.521 268.044 287.353 268.184 287.166C268.324 286.97 268.422 286.779 268.478 286.592C268.534 286.405 268.562 286.275 268.562 286.2V285.71H267.554C266.91 285.71 266.439 285.813 266.14 286.018C265.842 286.214 265.692 286.494 265.692 286.858C265.692 287.175 265.781 287.427 265.958 287.614C266.145 287.791 266.416 287.88 266.77 287.88ZM275.214 280.866C274.822 280.866 274.482 280.815 274.192 280.712C273.912 280.609 273.674 280.469 273.478 280.292C273.292 280.105 273.152 279.891 273.058 279.648C272.965 279.396 272.918 279.13 272.918 278.85H274.346C274.346 279.177 274.421 279.415 274.57 279.564C274.729 279.704 274.944 279.774 275.214 279.774C275.485 279.774 275.695 279.704 275.844 279.564C275.994 279.415 276.068 279.177 276.068 278.85H277.51C277.51 279.13 277.464 279.396 277.37 279.648C277.277 279.891 277.132 280.105 276.936 280.292C276.75 280.469 276.512 280.609 276.222 280.712C275.933 280.815 275.597 280.866 275.214 280.866ZM273.548 286.802L276.908 281.734H278.504V289H276.894V283.96L273.562 289H271.938V281.734H273.548V286.802ZM280.963 286.424C281.066 285.948 281.131 285.332 281.159 284.576C281.196 283.811 281.215 282.863 281.215 281.734H286.437V289H284.813V283.05H282.699C282.68 284.011 282.643 284.861 282.587 285.598C282.531 286.335 282.414 286.961 282.237 287.474C282.069 287.978 281.822 288.365 281.495 288.636C281.178 288.907 280.748 289.042 280.207 289.042C280.132 289.042 280.058 289.037 279.983 289.028C279.918 289.028 279.848 289.023 279.773 289.014V287.502C279.866 287.521 279.936 287.53 279.983 287.53C280.235 287.53 280.436 287.441 280.585 287.264C280.744 287.077 280.87 286.797 280.963 286.424ZM291.426 289.14C290.913 289.14 290.437 289.056 289.998 288.888C289.56 288.72 289.177 288.477 288.85 288.16C288.533 287.833 288.281 287.437 288.094 286.97C287.917 286.503 287.828 285.967 287.828 285.36C287.828 284.753 287.917 284.217 288.094 283.75C288.281 283.283 288.533 282.891 288.85 282.574C289.177 282.247 289.56 282.005 289.998 281.846C290.437 281.678 290.913 281.594 291.426 281.594C291.94 281.594 292.416 281.678 292.854 281.846C293.293 282.005 293.676 282.247 294.002 282.574C294.329 282.891 294.586 283.283 294.772 283.75C294.959 284.217 295.052 284.753 295.052 285.36C295.052 285.967 294.959 286.503 294.772 286.97C294.586 287.437 294.329 287.833 294.002 288.16C293.676 288.477 293.293 288.72 292.854 288.888C292.416 289.056 291.94 289.14 291.426 289.14ZM291.426 287.782C291.986 287.782 292.448 287.586 292.812 287.194C293.186 286.802 293.372 286.191 293.372 285.36C293.372 284.539 293.186 283.932 292.812 283.54C292.448 283.139 291.986 282.938 291.426 282.938C290.876 282.938 290.414 283.139 290.04 283.54C289.676 283.932 289.494 284.539 289.494 285.36C289.494 286.191 289.676 286.802 290.04 287.194C290.414 287.586 290.876 287.782 291.426 287.782ZM296.411 281.734H299.379C301.218 281.734 302.137 282.341 302.137 283.554C302.137 284.002 302.011 284.357 301.759 284.618C301.516 284.87 301.157 285.061 300.681 285.192C301.269 285.276 301.708 285.458 301.997 285.738C302.286 286.018 302.431 286.415 302.431 286.928C302.431 287.283 302.356 287.591 302.207 287.852C302.058 288.113 301.848 288.328 301.577 288.496C301.316 288.664 300.994 288.79 300.611 288.874C300.228 288.958 299.808 289 299.351 289H296.411V281.734ZM298.021 282.98V284.702H299.211C299.603 284.702 299.92 284.632 300.163 284.492C300.406 284.343 300.527 284.128 300.527 283.848C300.527 283.521 300.42 283.297 300.205 283.176C300 283.045 299.696 282.98 299.295 282.98H298.021ZM298.021 285.85V287.754H299.267C299.715 287.754 300.074 287.689 300.345 287.558C300.625 287.427 300.765 287.185 300.765 286.83C300.765 286.475 300.639 286.223 300.387 286.074C300.144 285.925 299.757 285.85 299.225 285.85H298.021Z" fill="black" fill-opacity="0.85"/>
<path d="M215.115 129.962H222.969V140H221.261V131.432H216.809V140H215.115V129.962ZM225.571 137.424C225.674 136.948 225.739 136.332 225.767 135.576C225.805 134.811 225.823 133.863 225.823 132.734H231.045V140H229.421V134.05H227.307C227.289 135.011 227.251 135.861 227.195 136.598C227.139 137.335 227.023 137.961 226.845 138.474C226.677 138.978 226.43 139.365 226.103 139.636C225.786 139.907 225.357 140.042 224.815 140.042C224.741 140.042 224.666 140.037 224.591 140.028C224.526 140.028 224.456 140.023 224.381 140.014V138.502C224.475 138.521 224.545 138.53 224.591 138.53C224.843 138.53 225.044 138.441 225.193 138.264C225.352 138.077 225.478 137.797 225.571 137.424ZM237.071 138.726C236.996 138.894 236.893 139.062 236.763 139.23C236.641 139.398 236.487 139.552 236.301 139.692C236.123 139.823 235.909 139.93 235.657 140.014C235.405 140.098 235.111 140.14 234.775 140.14C234.457 140.14 234.163 140.093 233.893 140C233.622 139.916 233.384 139.785 233.179 139.608C232.983 139.431 232.824 139.211 232.703 138.95C232.591 138.679 232.535 138.371 232.535 138.026C232.535 137.233 232.829 136.64 233.417 136.248C234.005 135.847 234.835 135.646 235.909 135.646H237.015V135.198C237.015 134.722 236.893 134.395 236.651 134.218C236.408 134.031 236.007 133.938 235.447 133.938C234.971 133.938 234.523 134.008 234.103 134.148C233.692 134.279 233.328 134.433 233.011 134.61V133.252C233.3 133.093 233.683 132.944 234.159 132.804C234.635 132.664 235.153 132.594 235.713 132.594C236.646 132.594 237.365 132.79 237.869 133.182C238.382 133.565 238.639 134.181 238.639 135.03V138.824C238.639 138.908 238.639 139.006 238.639 139.118C238.648 139.221 238.653 139.328 238.653 139.44C238.662 139.552 238.671 139.659 238.681 139.762C238.69 139.855 238.699 139.935 238.709 140H237.211C237.183 139.869 237.155 139.687 237.127 139.454C237.108 139.221 237.094 139.011 237.085 138.824L237.071 138.726ZM235.223 138.88C235.568 138.88 235.853 138.81 236.077 138.67C236.31 138.521 236.497 138.353 236.637 138.166C236.777 137.97 236.875 137.779 236.931 137.592C236.987 137.405 237.015 137.275 237.015 137.2V136.71H236.007C235.363 136.71 234.891 136.813 234.593 137.018C234.294 137.214 234.145 137.494 234.145 137.858C234.145 138.175 234.233 138.427 234.411 138.614C234.597 138.791 234.868 138.88 235.223 138.88ZM245.08 136.934H242.014V140H240.39V132.734H242.014V135.618H245.08V132.734H246.704V140H245.08V136.934ZM250.135 137.802L253.495 132.734H255.091V140H253.481V134.96L250.149 140H248.525V132.734H250.135V137.802ZM260.924 140.14C260.373 140.14 259.897 140.019 259.496 139.776C259.104 139.524 258.786 139.188 258.544 138.768V142.478H256.92V132.734H258.404L258.516 134.022C258.758 133.583 259.08 133.238 259.482 132.986C259.883 132.725 260.373 132.594 260.952 132.594C261.381 132.594 261.787 132.673 262.17 132.832C262.562 132.981 262.902 133.215 263.192 133.532C263.481 133.84 263.71 134.232 263.878 134.708C264.055 135.175 264.144 135.725 264.144 136.36C264.144 137.004 264.055 137.564 263.878 138.04C263.71 138.507 263.476 138.899 263.178 139.216C262.888 139.524 262.548 139.757 262.156 139.916C261.764 140.065 261.353 140.14 260.924 140.14ZM260.532 138.782C261.11 138.782 261.577 138.586 261.932 138.194C262.296 137.793 262.478 137.181 262.478 136.36C262.478 135.548 262.296 134.941 261.932 134.54C261.577 134.139 261.115 133.938 260.546 133.938C260.256 133.938 259.99 133.989 259.748 134.092C259.505 134.185 259.29 134.335 259.104 134.54C258.926 134.745 258.786 135.002 258.684 135.31C258.581 135.609 258.53 135.959 258.53 136.36C258.53 136.771 258.581 137.13 258.684 137.438C258.786 137.737 258.926 137.989 259.104 138.194C259.281 138.39 259.491 138.539 259.734 138.642C259.986 138.735 260.252 138.782 260.532 138.782ZM268.669 140.14C268.156 140.14 267.68 140.056 267.241 139.888C266.803 139.72 266.42 139.477 266.093 139.16C265.776 138.833 265.524 138.437 265.337 137.97C265.16 137.503 265.071 136.967 265.071 136.36C265.071 135.753 265.16 135.217 265.337 134.75C265.524 134.283 265.776 133.891 266.093 133.574C266.42 133.247 266.803 133.005 267.241 132.846C267.68 132.678 268.156 132.594 268.669 132.594C269.183 132.594 269.659 132.678 270.097 132.846C270.536 133.005 270.919 133.247 271.245 133.574C271.572 133.891 271.829 134.283 272.015 134.75C272.202 135.217 272.295 135.753 272.295 136.36C272.295 136.967 272.202 137.503 272.015 137.97C271.829 138.437 271.572 138.833 271.245 139.16C270.919 139.477 270.536 139.72 270.097 139.888C269.659 140.056 269.183 140.14 268.669 140.14ZM268.669 138.782C269.229 138.782 269.691 138.586 270.055 138.194C270.429 137.802 270.615 137.191 270.615 136.36C270.615 135.539 270.429 134.932 270.055 134.54C269.691 134.139 269.229 133.938 268.669 133.938C268.119 133.938 267.657 134.139 267.283 134.54C266.919 134.932 266.737 135.539 266.737 136.36C266.737 137.191 266.919 137.802 267.283 138.194C267.657 138.586 268.119 138.782 268.669 138.782ZM273.654 132.734H276.622C278.461 132.734 279.38 133.341 279.38 134.554C279.38 135.002 279.254 135.357 279.002 135.618C278.759 135.87 278.4 136.061 277.924 136.192C278.512 136.276 278.951 136.458 279.24 136.738C279.529 137.018 279.674 137.415 279.674 137.928C279.674 138.283 279.599 138.591 279.45 138.852C279.301 139.113 279.091 139.328 278.82 139.496C278.559 139.664 278.237 139.79 277.854 139.874C277.471 139.958 277.051 140 276.594 140H273.654V132.734ZM275.264 133.98V135.702H276.454C276.846 135.702 277.163 135.632 277.406 135.492C277.649 135.343 277.77 135.128 277.77 134.848C277.77 134.521 277.663 134.297 277.448 134.176C277.243 134.045 276.939 133.98 276.538 133.98H275.264ZM275.264 136.85V138.754H276.51C276.958 138.754 277.317 138.689 277.588 138.558C277.868 138.427 278.008 138.185 278.008 137.83C278.008 137.475 277.882 137.223 277.63 137.074C277.387 136.925 277 136.85 276.468 136.85H275.264ZM290.649 138.684H291.727V142.072H290.341L290.201 140H281.269V132.734H282.893V138.684H285.147V132.734H286.771V138.684H289.011V132.734H290.649V138.684ZM294.569 137.802L297.929 132.734H299.525V140H297.915V134.96L294.583 140H292.959V132.734H294.569V137.802ZM303.607 137.046H302.977V140H301.353V132.734H302.977V135.73H303.663L305.973 132.734H307.681L304.937 136.234L307.793 140H305.875L303.607 137.046Z" fill="black" fill-opacity="0.85"/>
<path d="M401.161 129.962H404.577C405.772 129.962 406.682 130.149 407.307 130.522C407.932 130.895 408.245 131.525 408.245 132.412C408.245 132.776 408.194 133.093 408.091 133.364C407.988 133.625 407.839 133.854 407.643 134.05C407.456 134.237 407.228 134.391 406.957 134.512C406.686 134.633 406.388 134.727 406.061 134.792C406.901 134.895 407.536 135.123 407.965 135.478C408.394 135.833 408.609 136.374 408.609 137.102C408.609 137.625 408.506 138.073 408.301 138.446C408.096 138.81 407.811 139.109 407.447 139.342C407.083 139.566 406.654 139.734 406.159 139.846C405.664 139.949 405.128 140 404.549 140H401.161V129.962ZM402.855 131.432V134.106H404.661C405.221 134.106 405.674 133.989 406.019 133.756C406.364 133.513 406.537 133.135 406.537 132.622C406.537 132.155 406.378 131.843 406.061 131.684C405.753 131.516 405.314 131.432 404.745 131.432H402.855ZM402.855 135.562V138.544H404.717C405.034 138.544 405.324 138.521 405.585 138.474C405.846 138.418 406.07 138.334 406.257 138.222C406.444 138.101 406.588 137.947 406.691 137.76C406.794 137.564 406.845 137.326 406.845 137.046C406.845 136.495 406.663 136.113 406.299 135.898C405.944 135.674 405.37 135.562 404.577 135.562H402.855ZM416.229 139.468C416.126 139.533 416 139.608 415.851 139.692C415.702 139.767 415.524 139.837 415.319 139.902C415.114 139.967 414.876 140.023 414.605 140.07C414.334 140.117 414.026 140.14 413.681 140.14C412.346 140.14 411.348 139.809 410.685 139.146C410.032 138.483 409.705 137.555 409.705 136.36C409.705 135.772 409.794 135.245 409.971 134.778C410.148 134.311 410.396 133.919 410.713 133.602C411.03 133.275 411.408 133.028 411.847 132.86C412.286 132.683 412.766 132.594 413.289 132.594C413.83 132.594 414.316 132.683 414.745 132.86C415.184 133.037 415.543 133.303 415.823 133.658C416.103 134.013 416.294 134.451 416.397 134.974C416.509 135.497 416.514 136.108 416.411 136.808H411.385C411.45 137.471 411.67 137.97 412.043 138.306C412.416 138.633 413 138.796 413.793 138.796C414.372 138.796 414.852 138.726 415.235 138.586C415.627 138.437 415.958 138.283 416.229 138.124V139.468ZM413.289 133.882C412.813 133.882 412.412 134.027 412.085 134.316C411.758 134.605 411.544 135.035 411.441 135.604H414.857C414.876 135.016 414.745 134.582 414.465 134.302C414.185 134.022 413.793 133.882 413.289 133.882ZM424.737 136.388C424.737 136.995 424.643 137.531 424.457 137.998C424.27 138.465 424.013 138.857 423.687 139.174C423.369 139.491 422.987 139.734 422.539 139.902C422.1 140.061 421.624 140.14 421.111 140.14C420.588 140.14 420.107 140.051 419.669 139.874C419.23 139.697 418.852 139.431 418.535 139.076C418.217 138.712 417.965 138.264 417.779 137.732C417.601 137.191 417.513 136.556 417.513 135.828C417.513 135.165 417.541 134.559 417.597 134.008C417.653 133.457 417.746 132.963 417.877 132.524C418.017 132.085 418.203 131.703 418.437 131.376C418.67 131.04 418.969 130.751 419.333 130.508C419.762 130.237 420.219 130.065 420.705 129.99C421.199 129.915 421.703 129.869 422.217 129.85C422.786 129.822 423.215 129.775 423.505 129.71C423.794 129.635 424.041 129.542 424.247 129.43V130.872C424.144 130.937 424.037 130.993 423.925 131.04C423.813 131.077 423.682 131.11 423.533 131.138C423.383 131.166 423.211 131.194 423.015 131.222C422.819 131.241 422.59 131.259 422.329 131.278C421.853 131.325 421.419 131.371 421.027 131.418C420.635 131.455 420.285 131.572 419.977 131.768C419.622 132.011 419.361 132.347 419.193 132.776C419.025 133.205 418.913 133.728 418.857 134.344C419.323 133.289 420.224 132.762 421.559 132.762C421.988 132.762 422.394 132.846 422.777 133.014C423.169 133.173 423.509 133.406 423.799 133.714C424.088 134.022 424.317 134.4 424.485 134.848C424.653 135.296 424.737 135.809 424.737 136.388ZM421.111 138.782C421.68 138.782 422.147 138.591 422.511 138.208C422.884 137.816 423.071 137.219 423.071 136.416C423.071 135.613 422.884 135.021 422.511 134.638C422.147 134.246 421.68 134.05 421.111 134.05C420.551 134.05 420.089 134.241 419.725 134.624C419.37 135.007 419.193 135.595 419.193 136.388C419.193 137.209 419.375 137.816 419.739 138.208C420.103 138.591 420.56 138.782 421.111 138.782ZM426.119 135.016H429.549V136.402H426.119V135.016ZM434.732 140.14C434.144 140.14 433.616 140.056 433.15 139.888C432.683 139.711 432.286 139.463 431.96 139.146C431.633 138.819 431.381 138.423 431.204 137.956C431.026 137.489 430.938 136.957 430.938 136.36C430.938 135.772 431.026 135.245 431.204 134.778C431.381 134.311 431.633 133.919 431.96 133.602C432.286 133.275 432.688 133.028 433.164 132.86C433.64 132.683 434.172 132.594 434.76 132.594C435.264 132.594 435.702 132.65 436.076 132.762C436.458 132.874 436.762 133.014 436.986 133.182V134.526C436.696 134.339 436.379 134.195 436.034 134.092C435.698 133.989 435.306 133.938 434.858 133.938C433.355 133.938 432.604 134.745 432.604 136.36C432.604 137.975 433.341 138.782 434.816 138.782C435.292 138.782 435.698 138.731 436.034 138.628C436.379 138.516 436.696 138.376 436.986 138.208V139.552C436.743 139.711 436.44 139.851 436.076 139.972C435.712 140.084 435.264 140.14 434.732 140.14ZM444.557 139.468C444.455 139.533 444.329 139.608 444.179 139.692C444.03 139.767 443.853 139.837 443.647 139.902C443.442 139.967 443.204 140.023 442.933 140.07C442.663 140.117 442.355 140.14 442.009 140.14C440.675 140.14 439.676 139.809 439.013 139.146C438.36 138.483 438.033 137.555 438.033 136.36C438.033 135.772 438.122 135.245 438.299 134.778C438.477 134.311 438.724 133.919 439.041 133.602C439.359 133.275 439.737 133.028 440.175 132.86C440.614 132.683 441.095 132.594 441.617 132.594C442.159 132.594 442.644 132.683 443.073 132.86C443.512 133.037 443.871 133.303 444.151 133.658C444.431 134.013 444.623 134.451 444.725 134.974C444.837 135.497 444.842 136.108 444.739 136.808H439.713C439.779 137.471 439.998 137.97 440.371 138.306C440.745 138.633 441.328 138.796 442.121 138.796C442.7 138.796 443.181 138.726 443.563 138.586C443.955 138.437 444.287 138.283 444.557 138.124V139.468ZM441.617 133.882C441.141 133.882 440.74 134.027 440.413 134.316C440.087 134.605 439.872 135.035 439.769 135.604H443.185C443.204 135.016 443.073 134.582 442.793 134.302C442.513 134.022 442.121 133.882 441.617 133.882ZM450.251 140.14C449.7 140.14 449.224 140.019 448.823 139.776C448.431 139.524 448.114 139.188 447.871 138.768V142.478H446.247V132.734H447.731L447.843 134.022C448.086 133.583 448.408 133.238 448.809 132.986C449.21 132.725 449.7 132.594 450.279 132.594C450.708 132.594 451.114 132.673 451.497 132.832C451.889 132.981 452.23 133.215 452.519 133.532C452.808 133.84 453.037 134.232 453.205 134.708C453.382 135.175 453.471 135.725 453.471 136.36C453.471 137.004 453.382 137.564 453.205 138.04C453.037 138.507 452.804 138.899 452.505 139.216C452.216 139.524 451.875 139.757 451.483 139.916C451.091 140.065 450.68 140.14 450.251 140.14ZM449.859 138.782C450.438 138.782 450.904 138.586 451.259 138.194C451.623 137.793 451.805 137.181 451.805 136.36C451.805 135.548 451.623 134.941 451.259 134.54C450.904 134.139 450.442 133.938 449.873 133.938C449.584 133.938 449.318 133.989 449.075 134.092C448.832 134.185 448.618 134.335 448.431 134.54C448.254 134.745 448.114 135.002 448.011 135.31C447.908 135.609 447.857 135.959 447.857 136.36C447.857 136.771 447.908 137.13 448.011 137.438C448.114 137.737 448.254 137.989 448.431 138.194C448.608 138.39 448.818 138.539 449.061 138.642C449.313 138.735 449.579 138.782 449.859 138.782ZM454.847 132.734H457.815C459.653 132.734 460.573 133.341 460.573 134.554C460.573 135.002 460.447 135.357 460.195 135.618C459.952 135.87 459.593 136.061 459.117 136.192C459.705 136.276 460.143 136.458 460.433 136.738C460.722 137.018 460.867 137.415 460.867 137.928C460.867 138.283 460.792 138.591 460.643 138.852C460.493 139.113 460.283 139.328 460.013 139.496C459.751 139.664 459.429 139.79 459.047 139.874C458.664 139.958 458.244 140 457.787 140H454.847V132.734ZM456.457 133.98V135.702H457.647C458.039 135.702 458.356 135.632 458.599 135.492C458.841 135.343 458.963 135.128 458.963 134.848C458.963 134.521 458.855 134.297 458.641 134.176C458.435 134.045 458.132 133.98 457.731 133.98H456.457ZM456.457 136.85V138.754H457.703C458.151 138.754 458.51 138.689 458.781 138.558C459.061 138.427 459.201 138.185 459.201 137.83C459.201 137.475 459.075 137.223 458.823 137.074C458.58 136.925 458.193 136.85 457.661 136.85H456.457ZM468.538 139.468C468.435 139.533 468.309 139.608 468.16 139.692C468.01 139.767 467.833 139.837 467.628 139.902C467.422 139.967 467.184 140.023 466.914 140.07C466.643 140.117 466.335 140.14 465.99 140.14C464.655 140.14 463.656 139.809 462.994 139.146C462.34 138.483 462.014 137.555 462.014 136.36C462.014 135.772 462.102 135.245 462.28 134.778C462.457 134.311 462.704 133.919 463.022 133.602C463.339 133.275 463.717 133.028 464.156 132.86C464.594 132.683 465.075 132.594 465.598 132.594C466.139 132.594 466.624 132.683 467.054 132.86C467.492 133.037 467.852 133.303 468.132 133.658C468.412 134.013 468.603 134.451 468.706 134.974C468.818 135.497 468.822 136.108 468.72 136.808H463.694C463.759 137.471 463.978 137.97 464.352 138.306C464.725 138.633 465.308 138.796 466.102 138.796C466.68 138.796 467.161 138.726 467.544 138.586C467.936 138.437 468.267 138.283 468.538 138.124V139.468ZM465.598 133.882C465.122 133.882 464.72 134.027 464.394 134.316C464.067 134.605 463.852 135.035 463.75 135.604H467.166C467.184 135.016 467.054 134.582 466.774 134.302C466.494 134.022 466.102 133.882 465.598 133.882ZM474.231 140.14C473.681 140.14 473.205 140.019 472.803 139.776C472.411 139.524 472.094 139.188 471.851 138.768V142.478H470.227V132.734H471.711L471.823 134.022C472.066 133.583 472.388 133.238 472.789 132.986C473.191 132.725 473.681 132.594 474.259 132.594C474.689 132.594 475.095 132.673 475.477 132.832C475.869 132.981 476.21 133.215 476.499 133.532C476.789 133.84 477.017 134.232 477.185 134.708C477.363 135.175 477.451 135.725 477.451 136.36C477.451 137.004 477.363 137.564 477.185 138.04C477.017 138.507 476.784 138.899 476.485 139.216C476.196 139.524 475.855 139.757 475.463 139.916C475.071 140.065 474.661 140.14 474.231 140.14ZM473.839 138.782C474.418 138.782 474.885 138.586 475.239 138.194C475.603 137.793 475.785 137.181 475.785 136.36C475.785 135.548 475.603 134.941 475.239 134.54C474.885 134.139 474.423 133.938 473.853 133.938C473.564 133.938 473.298 133.989 473.055 134.092C472.813 134.185 472.598 134.335 472.411 134.54C472.234 134.745 472.094 135.002 471.991 135.31C471.889 135.609 471.837 135.959 471.837 136.36C471.837 136.771 471.889 137.13 471.991 137.438C472.094 137.737 472.234 137.989 472.411 138.194C472.589 138.39 472.799 138.539 473.041 138.642C473.293 138.735 473.559 138.782 473.839 138.782Z" fill="black" fill-opacity="0.85"/>
<path d="M563.953 129.962H567.369C568.564 129.962 569.474 130.149 570.099 130.522C570.724 130.895 571.037 131.525 571.037 132.412C571.037 132.776 570.986 133.093 570.883 133.364C570.78 133.625 570.631 133.854 570.435 134.05C570.248 134.237 570.02 134.391 569.749 134.512C569.478 134.633 569.18 134.727 568.853 134.792C569.693 134.895 570.328 135.123 570.757 135.478C571.186 135.833 571.401 136.374 571.401 137.102C571.401 137.625 571.298 138.073 571.093 138.446C570.888 138.81 570.603 139.109 570.239 139.342C569.875 139.566 569.446 139.734 568.951 139.846C568.456 139.949 567.92 140 567.341 140H563.953V129.962ZM565.647 131.432V134.106H567.453C568.013 134.106 568.466 133.989 568.811 133.756C569.156 133.513 569.329 133.135 569.329 132.622C569.329 132.155 569.17 131.843 568.853 131.684C568.545 131.516 568.106 131.432 567.537 131.432H565.647ZM565.647 135.562V138.544H567.509C567.826 138.544 568.116 138.521 568.377 138.474C568.638 138.418 568.862 138.334 569.049 138.222C569.236 138.101 569.38 137.947 569.483 137.76C569.586 137.564 569.637 137.326 569.637 137.046C569.637 136.495 569.455 136.113 569.091 135.898C568.736 135.674 568.162 135.562 567.369 135.562H565.647ZM579.021 139.468C578.918 139.533 578.792 139.608 578.643 139.692C578.494 139.767 578.316 139.837 578.111 139.902C577.906 139.967 577.668 140.023 577.397 140.07C577.126 140.117 576.818 140.14 576.473 140.14C575.138 140.14 574.14 139.809 573.477 139.146C572.824 138.483 572.497 137.555 572.497 136.36C572.497 135.772 572.586 135.245 572.763 134.778C572.94 134.311 573.188 133.919 573.505 133.602C573.822 133.275 574.2 133.028 574.639 132.86C575.078 132.683 575.558 132.594 576.081 132.594C576.622 132.594 577.108 132.683 577.537 132.86C577.976 133.037 578.335 133.303 578.615 133.658C578.895 134.013 579.086 134.451 579.189 134.974C579.301 135.497 579.306 136.108 579.203 136.808H574.177C574.242 137.471 574.462 137.97 574.835 138.306C575.208 138.633 575.792 138.796 576.585 138.796C577.164 138.796 577.644 138.726 578.027 138.586C578.419 138.437 578.75 138.283 579.021 138.124V139.468ZM576.081 133.882C575.605 133.882 575.204 134.027 574.877 134.316C574.55 134.605 574.336 135.035 574.233 135.604H577.649C577.668 135.016 577.537 134.582 577.257 134.302C576.977 134.022 576.585 133.882 576.081 133.882ZM587.529 136.388C587.529 136.995 587.435 137.531 587.249 137.998C587.062 138.465 586.805 138.857 586.479 139.174C586.161 139.491 585.779 139.734 585.331 139.902C584.892 140.061 584.416 140.14 583.903 140.14C583.38 140.14 582.899 140.051 582.461 139.874C582.022 139.697 581.644 139.431 581.327 139.076C581.009 138.712 580.757 138.264 580.571 137.732C580.393 137.191 580.305 136.556 580.305 135.828C580.305 135.165 580.333 134.559 580.389 134.008C580.445 133.457 580.538 132.963 580.669 132.524C580.809 132.085 580.995 131.703 581.229 131.376C581.462 131.04 581.761 130.751 582.125 130.508C582.554 130.237 583.011 130.065 583.497 129.99C583.991 129.915 584.495 129.869 585.009 129.85C585.578 129.822 586.007 129.775 586.297 129.71C586.586 129.635 586.833 129.542 587.039 129.43V130.872C586.936 130.937 586.829 130.993 586.717 131.04C586.605 131.077 586.474 131.11 586.325 131.138C586.175 131.166 586.003 131.194 585.807 131.222C585.611 131.241 585.382 131.259 585.121 131.278C584.645 131.325 584.211 131.371 583.819 131.418C583.427 131.455 583.077 131.572 582.769 131.768C582.414 132.011 582.153 132.347 581.985 132.776C581.817 133.205 581.705 133.728 581.649 134.344C582.115 133.289 583.016 132.762 584.351 132.762C584.78 132.762 585.186 132.846 585.569 133.014C585.961 133.173 586.301 133.406 586.591 133.714C586.88 134.022 587.109 134.4 587.277 134.848C587.445 135.296 587.529 135.809 587.529 136.388ZM583.903 138.782C584.472 138.782 584.939 138.591 585.303 138.208C585.676 137.816 585.863 137.219 585.863 136.416C585.863 135.613 585.676 135.021 585.303 134.638C584.939 134.246 584.472 134.05 583.903 134.05C583.343 134.05 582.881 134.241 582.517 134.624C582.162 135.007 581.985 135.595 581.985 136.388C581.985 137.209 582.167 137.816 582.531 138.208C582.895 138.591 583.352 138.782 583.903 138.782ZM588.911 135.016H592.341V136.402H588.911V135.016ZM595.651 137.802L599.011 132.734H600.607V140H598.997V134.96L595.665 140H594.041V132.734H595.651V137.802ZM607.125 136.934H604.059V140H602.435V132.734H604.059V135.618H607.125V132.734H608.749V140H607.125V136.934ZM613.818 134.05V140H612.194V134.05H609.996V132.734H616.058V134.05H613.818ZM623.195 139.468C623.092 139.533 622.966 139.608 622.817 139.692C622.668 139.767 622.49 139.837 622.285 139.902C622.08 139.967 621.842 140.023 621.571 140.07C621.3 140.117 620.992 140.14 620.647 140.14C619.312 140.14 618.314 139.809 617.651 139.146C616.998 138.483 616.671 137.555 616.671 136.36C616.671 135.772 616.76 135.245 616.937 134.778C617.114 134.311 617.362 133.919 617.679 133.602C617.996 133.275 618.374 133.028 618.813 132.86C619.252 132.683 619.732 132.594 620.255 132.594C620.796 132.594 621.282 132.683 621.711 132.86C622.15 133.037 622.509 133.303 622.789 133.658C623.069 134.013 623.26 134.451 623.363 134.974C623.475 135.497 623.48 136.108 623.377 136.808H618.351C618.416 137.471 618.636 137.97 619.009 138.306C619.382 138.633 619.966 138.796 620.759 138.796C621.338 138.796 621.818 138.726 622.201 138.586C622.593 138.437 622.924 138.283 623.195 138.124V139.468ZM620.255 133.882C619.779 133.882 619.378 134.027 619.051 134.316C618.724 134.605 618.51 135.035 618.407 135.604H621.823C621.842 135.016 621.711 134.582 621.431 134.302C621.151 134.022 620.759 133.882 620.255 133.882ZM628.889 140.14C628.338 140.14 627.862 140.019 627.461 139.776C627.069 139.524 626.751 139.188 626.509 138.768V142.478H624.885V132.734H626.369L626.481 134.022C626.723 133.583 627.045 133.238 627.447 132.986C627.848 132.725 628.338 132.594 628.917 132.594C629.346 132.594 629.752 132.673 630.135 132.832C630.527 132.981 630.867 133.215 631.157 133.532C631.446 133.84 631.675 134.232 631.843 134.708C632.02 135.175 632.109 135.725 632.109 136.36C632.109 137.004 632.02 137.564 631.843 138.04C631.675 138.507 631.441 138.899 631.143 139.216C630.853 139.524 630.513 139.757 630.121 139.916C629.729 140.065 629.318 140.14 628.889 140.14ZM628.497 138.782C629.075 138.782 629.542 138.586 629.897 138.194C630.261 137.793 630.443 137.181 630.443 136.36C630.443 135.548 630.261 134.941 629.897 134.54C629.542 134.139 629.08 133.938 628.511 133.938C628.221 133.938 627.955 133.989 627.713 134.092C627.47 134.185 627.255 134.335 627.069 134.54C626.891 134.745 626.751 135.002 626.649 135.31C626.546 135.609 626.495 135.959 626.495 136.36C626.495 136.771 626.546 137.13 626.649 137.438C626.751 137.737 626.891 137.989 627.069 138.194C627.246 138.39 627.456 138.539 627.699 138.642C627.951 138.735 628.217 138.782 628.497 138.782ZM642.402 136.36C642.402 136.948 642.304 137.471 642.108 137.928C641.912 138.376 641.637 138.759 641.282 139.076C640.937 139.384 640.526 139.627 640.05 139.804C639.584 139.981 639.08 140.084 638.538 140.112V142.478H636.914V140.112C636.364 140.075 635.85 139.972 635.374 139.804C634.898 139.627 634.488 139.379 634.142 139.062C633.797 138.745 633.526 138.362 633.33 137.914C633.134 137.466 633.036 136.948 633.036 136.36C633.036 135.772 633.134 135.254 633.33 134.806C633.526 134.358 633.797 133.975 634.142 133.658C634.497 133.341 634.908 133.098 635.374 132.93C635.85 132.753 636.364 132.65 636.914 132.622V129.822H638.538V132.622C639.089 132.65 639.598 132.753 640.064 132.93C640.54 133.098 640.951 133.341 641.296 133.658C641.642 133.975 641.912 134.358 642.108 134.806C642.304 135.254 642.402 135.772 642.402 136.36ZM640.736 136.36C640.736 135.576 640.531 134.983 640.12 134.582C639.71 134.181 639.182 133.957 638.538 133.91V138.81C639.182 138.763 639.71 138.539 640.12 138.138C640.531 137.737 640.736 137.144 640.736 136.36ZM634.688 136.36C634.688 137.144 634.894 137.737 635.304 138.138C635.724 138.539 636.261 138.763 636.914 138.81V133.91C636.252 133.966 635.715 134.195 635.304 134.596C634.894 134.997 634.688 135.585 634.688 136.36ZM649.855 139.468C649.752 139.533 649.626 139.608 649.477 139.692C649.328 139.767 649.15 139.837 648.945 139.902C648.74 139.967 648.502 140.023 648.231 140.07C647.96 140.117 647.652 140.14 647.307 140.14C645.972 140.14 644.974 139.809 644.311 139.146C643.658 138.483 643.331 137.555 643.331 136.36C643.331 135.772 643.42 135.245 643.597 134.778C643.774 134.311 644.022 133.919 644.339 133.602C644.656 133.275 645.034 133.028 645.473 132.86C645.912 132.683 646.392 132.594 646.915 132.594C647.456 132.594 647.942 132.683 648.371 132.86C648.81 133.037 649.169 133.303 649.449 133.658C649.729 134.013 649.92 134.451 650.023 134.974C650.135 135.497 650.14 136.108 650.037 136.808H645.011C645.076 137.471 645.296 137.97 645.669 138.306C646.042 138.633 646.626 138.796 647.419 138.796C647.998 138.796 648.478 138.726 648.861 138.586C649.253 138.437 649.584 138.283 649.855 138.124V139.468ZM646.915 133.882C646.439 133.882 646.038 134.027 645.711 134.316C645.384 134.605 645.17 135.035 645.067 135.604H648.483C648.502 135.016 648.371 134.582 648.091 134.302C647.811 134.022 647.419 133.882 646.915 133.882ZM654.821 131.866C654.429 131.866 654.088 131.815 653.799 131.712C653.519 131.609 653.281 131.469 653.085 131.292C652.898 131.105 652.758 130.891 652.665 130.648C652.571 130.396 652.525 130.13 652.525 129.85H653.953C653.953 130.177 654.027 130.415 654.177 130.564C654.335 130.704 654.55 130.774 654.821 130.774C655.091 130.774 655.301 130.704 655.451 130.564C655.6 130.415 655.675 130.177 655.675 129.85H657.117C657.117 130.13 657.07 130.396 656.977 130.648C656.883 130.891 656.739 131.105 656.543 131.292C656.356 131.469 656.118 131.609 655.829 131.712C655.539 131.815 655.203 131.866 654.821 131.866ZM653.155 137.802L656.515 132.734H658.111V140H656.501V134.96L653.169 140H651.545V132.734H653.155V137.802ZM663.285 140.14C662.697 140.14 662.17 140.056 661.703 139.888C661.237 139.711 660.84 139.463 660.513 139.146C660.187 138.819 659.935 138.423 659.757 137.956C659.58 137.489 659.491 136.957 659.491 136.36C659.491 135.772 659.58 135.245 659.757 134.778C659.935 134.311 660.187 133.919 660.513 133.602C660.84 133.275 661.241 133.028 661.717 132.86C662.193 132.683 662.725 132.594 663.313 132.594C663.817 132.594 664.256 132.65 664.629 132.762C665.012 132.874 665.315 133.014 665.539 133.182V134.526C665.25 134.339 664.933 134.195 664.587 134.092C664.251 133.989 663.859 133.938 663.411 133.938C661.909 133.938 661.157 134.745 661.157 136.36C661.157 137.975 661.895 138.782 663.369 138.782C663.845 138.782 664.251 138.731 664.587 138.628C664.933 138.516 665.25 138.376 665.539 138.208V139.552C665.297 139.711 664.993 139.851 664.629 139.972C664.265 140.084 663.817 140.14 663.285 140.14Z" fill="black" fill-opacity="0.85"/>
</svg>
