<svg width="670" height="270" fill="none" xmlns="http://www.w3.org/2000/svg"><rect width="670" height="270" rx="10" fill="#fff"/><path d="M590 50l-2.887 5h5.774L590 50zM80.5 80V69.295h-1V80h1zM85 64.812h500v-1H85v1zm505.5-5.5V54.5h-1v4.812h1zm-5.5 5.5a5.5 5.5 0 005.5-5.5h-1a4.5 4.5 0 01-4.5 4.5v1zM80.5 69.295a4.486 4.486 0 014.5-4.483v-1c-3.035 0-5.5 2.444-5.5 5.483h1zM590 190l-2.887 5h5.774L590 190zM80.5 220V209.295h-1V220h1zm4.5-15.188h500v-1H85v1zm505.5-5.5V194.5h-1v4.812h1zm-5.5 5.5a5.5 5.5 0 005.5-5.5h-1a4.5 4.5 0 01-4.5 4.5v1zm-504.5 4.483a4.486 4.486 0 014.5-4.483v-1c-3.035 0-5.5 2.444-5.5 5.483h1z" fill="#18123D" fill-opacity=".7"/><path d="M420.5 70v10h-1V70h1zm4.5-4.5a4.5 4.5 0 00-4.5 4.5h-1a5.5 5.5 0 015.5-5.5v1zM250.5 70v10h-1V70h1zm4.5-4.5a4.5 4.5 0 00-4.5 4.5h-1a5.5 5.5 0 015.5-5.5v1zM590 120l-2.887 5h5.774L590 120zM80.5 150V139.295h-1V150h1zm4.5-15.188h500v-1H85v1zm505.5-5.5V124.5h-1v4.812h1zm-5.5 5.5a5.5 5.5 0 005.5-5.5h-1a4.5 4.5 0 01-4.5 4.5v1zm-504.5 4.483a4.486 4.486 0 014.5-4.483v-1c-3.035 0-5.5 2.444-5.5 5.483h1z" fill="#18123D" fill-opacity=".7"/><path d="M420.5 140v10h-1v-10h1zm4.5-4.5a4.5 4.5 0 00-4.5 4.5h-1a5.5 5.5 0 015.5-5.5v1zM250.5 140v10h-1v-10h1zm4.5-4.5a4.5 4.5 0 00-4.5 4.5h-1a5.5 5.5 0 015.5-5.5v1zM420.5 210v10h-1v-10h1zm4.5-4.5a4.5 4.5 0 00-4.5 4.5h-1a5.5 5.5 0 015.5-5.5v1zM80 120.015l-2.887 5h5.774l-2.887-5zM80.5 150V124.516h-1V150h1z" fill="#18123D" fill-opacity=".7"/><rect x="520.5" y="10.5" width="139" height="39" rx="4.5" fill="#fff" stroke="#67B0F8"/><path d="M575.556 33.059a4.219 4.219 0 01-.322.532 2.447 2.447 0 01-1.19.853c-.261.094-.569.14-.924.14-.653 0-1.181-.181-1.582-.546-.401-.373-.602-.905-.602-1.595 0-.794.275-1.377.826-1.75.56-.374 1.353-.56 2.38-.56h1.358v-.602c0-.505-.131-.864-.392-1.078-.261-.215-.709-.322-1.344-.322a3.62 3.62 0 00-1.274.224c-.401.14-.761.303-1.078.49v-1.107a5.42 5.42 0 011.05-.462 4.374 4.374 0 011.47-.238c.915 0 1.61.192 2.086.575.476.373.714.956.714 1.75v4.2c.009.102.014.21.014.322l.028.322c.009.093.019.172.028.237h-1.12a6.4 6.4 0 01-.084-.546 8.197 8.197 0 01-.028-.63l-.014-.21zm-2.17.42c.383 0 .709-.08.98-.239.271-.158.49-.34.658-.546.168-.214.289-.42.364-.616.075-.205.112-.35.112-.434v-.531h-1.232c-.737 0-1.274.107-1.61.322-.327.205-.49.518-.49.938 0 .326.098.592.294.797.196.206.504.308.924.308zm10.491-.462a2.918 2.918 0 01-.938 1.147c-.401.28-.91.42-1.526.42a3.47 3.47 0 01-1.246-.224 2.997 2.997 0 01-1.036-.7 3.502 3.502 0 01-.714-1.175c-.177-.477-.266-1.037-.266-1.68 0-.635.089-1.186.266-1.652.177-.476.415-.868.714-1.176.299-.318.644-.551 1.036-.7a3.393 3.393 0 011.26-.239c.551 0 1.027.117 1.428.35.401.224.723.546.966.966v-3.947h1.232v10.037h-1.078l-.098-1.428zm-2.282.461c.317 0 .611-.05.882-.154.271-.111.504-.28.7-.503.205-.224.364-.505.476-.84.121-.337.182-.729.182-1.177 0-.447-.061-.84-.182-1.175a2.305 2.305 0 00-.476-.84 1.735 1.735 0 00-.7-.49 2.287 2.287 0 00-.882-.168c-.644 0-1.171.228-1.582.686-.401.448-.602 1.11-.602 1.988 0 .886.205 1.553.616 2.002.411.447.933.671 1.568.671zm6.701.966h-1.232v-7.266h1.078l.126 1.302h.028c.196-.41.49-.75.882-1.021.392-.28.905-.42 1.54-.42.56 0 1.017.135 1.372.405.364.262.606.659.728 1.19.205-.494.518-.881.938-1.162.429-.289.947-.434 1.554-.434.672 0 1.204.192 1.596.575.392.373.588.951.588 1.736v5.095h-1.246v-4.942c0-.476-.117-.82-.35-1.035-.234-.224-.551-.336-.952-.336-.271 0-.509.041-.714.125a1.674 1.674 0 00-.546.322 2.72 2.72 0 00-.434.49 6.124 6.124 0 00-.364.588v4.788h-1.232v-5.082c0-.466-.117-.788-.35-.965-.234-.178-.551-.266-.952-.266a2.3 2.3 0 00-.7.098 1.958 1.958 0 00-.56.28c-.159.12-.304.27-.434.447a4.1 4.1 0 00-.364.56v4.928zm11.757-8.33c-.252 0-.453-.074-.602-.224a.809.809 0 01-.224-.573c0-.224.075-.416.224-.575.149-.158.35-.238.602-.238.243 0 .434.08.574.238.14.16.21.35.21.575 0 .224-.07.415-.21.573-.14.15-.331.224-.574.224zm.602 1.064v7.266h-1.232v-7.266h1.232zm5.452.953c-.56 0-1.017.13-1.372.392a2.87 2.87 0 00-.84.98v4.941h-1.232v-7.266h1.162l.042 1.302h.028c.196-.42.504-.765.924-1.035.42-.271.952-.407 1.596-.407.719 0 1.288.192 1.708.575.43.373.644.951.644 1.736v5.095h-1.232v-4.97c0-.503-.126-.854-.378-1.05-.252-.195-.602-.293-1.05-.293z" fill="#18123D"/><rect x="350.5" y="80.5" width="139" height="39" rx="4.5" fill="#fff" stroke="#67B0F8"/><path d="M375.73 93.35h-.644v3.095h-1.232V86.407h1.232V92.3h.7l2.548-3.123h1.4l-2.982 3.585 3.038 3.681h-1.498l-2.562-3.094zm11.271.35c0 .448-.084.855-.252 1.218a2.672 2.672 0 01-.7.91c-.299.243-.649.43-1.05.56a4.23 4.23 0 01-1.316.197c-.495 0-.947-.061-1.358-.182a3.213 3.213 0 01-1.064-.56 2.712 2.712 0 01-.7-.897 2.78 2.78 0 01-.252-1.203c0-.654.168-1.2.504-1.638.345-.449.807-.78 1.386-.995a2.506 2.506 0 01-1.12-.853c-.271-.383-.406-.855-.406-1.415 0-.41.075-.774.224-1.091.159-.318.369-.584.63-.799a2.74 2.74 0 01.952-.504 4.171 4.171 0 011.204-.167c.42 0 .807.055 1.162.167.364.103.681.262.952.477.271.214.481.48.63.797.159.309.238.672.238 1.093 0 .569-.14 1.05-.42 1.442-.28.382-.649.667-1.106.853.56.197 1.008.514 1.344.953.345.438.518.984.518 1.638zm-3.318-3.094c.504 0 .915-.14 1.232-.42.317-.289.476-.686.476-1.19 0-.503-.159-.895-.476-1.175-.317-.29-.728-.434-1.232-.434s-.919.144-1.246.433c-.327.28-.49.673-.49 1.177s.163.9.49 1.19c.327.28.742.42 1.246.42zm0 4.873c.289 0 .555-.043.798-.126.252-.094.467-.22.644-.378.187-.168.331-.374.434-.616.103-.243.154-.518.154-.826 0-.308-.051-.584-.154-.826a1.586 1.586 0 00-.434-.602 1.703 1.703 0 00-.644-.379 2.206 2.206 0 00-.798-.14c-.299 0-.579.047-.84.14-.252.085-.471.21-.658.379-.187.158-.331.359-.434.602a2.096 2.096 0 00-.154.826c0 .308.051.583.154.826.103.242.247.448.434.616.187.158.406.284.658.378.261.084.541.126.84.126zm7.137 1.106c-.382 0-.723-.033-1.022-.098a4.808 4.808 0 01-.77-.21 4.295 4.295 0 01-.546-.28 3.75 3.75 0 01-.35-.266v-1.106c.094.093.22.195.378.308.159.102.35.2.574.293.224.094.476.173.756.239.29.055.612.084.966.084.523 0 .938-.085 1.246-.253.308-.168.462-.452.462-.854 0-.214-.051-.387-.154-.517a.932.932 0 00-.392-.308 2.412 2.412 0 00-.588-.197 27.685 27.685 0 00-.686-.14 26.46 26.46 0 01-.91-.21 3.202 3.202 0 01-.812-.35 1.92 1.92 0 01-.588-.602c-.149-.251-.224-.578-.224-.98 0-.653.252-1.166.756-1.54.514-.373 1.228-.56 2.142-.56.514 0 .966.052 1.358.154.402.103.71.215.924.337v1.106a3.283 3.283 0 00-.91-.392c-.354-.112-.798-.168-1.33-.168-.55 0-.975.074-1.274.224-.289.149-.434.42-.434.811a.82.82 0 00.126.477 1 1 0 00.336.28c.15.065.318.116.504.153.187.038.383.08.588.127.318.065.644.135.98.21.336.074.635.19.896.35.271.158.49.373.658.644.178.26.266.615.266 1.064 0 .42-.084.77-.252 1.05a1.93 1.93 0 01-.672.671 2.86 2.86 0 01-.938.337c-.345.074-.7.112-1.064.112zm5.116-.056c-.271 0-.49-.084-.658-.252a.885.885 0 01-.252-.63c0-.262.084-.477.252-.645.168-.167.387-.251.658-.251.261 0 .476.084.644.251a.872.872 0 01.252.645.885.885 0 01-.252.63.873.873 0 01-.644.251zm5.54.056c-.56 0-1.069-.084-1.526-.252a3.337 3.337 0 01-1.148-.742 3.278 3.278 0 01-.728-1.19c-.168-.467-.252-1-.252-1.596 0-.589.084-1.116.252-1.583.177-.466.425-.858.742-1.175a3.068 3.068 0 011.162-.742 4.268 4.268 0 011.554-.267c.448 0 .859.052 1.232.154.373.094.681.234.924.42v1.107a3.27 3.27 0 00-1.008-.434 4.156 4.156 0 00-1.134-.154c-.849 0-1.475.219-1.876.657-.392.44-.588 1.111-.588 2.017 0 .905.191 1.577.574 2.015.383.44.989.659 1.82.659.439 0 .84-.052 1.204-.154a4.969 4.969 0 001.008-.42v1.105a4.29 4.29 0 01-2.212.574zm4.946-10.178v10.038h-1.232V86.407h1.232zm6.67 8.736c-.196.41-.499.755-.91 1.035-.401.271-.929.407-1.582.407-.672 0-1.218-.187-1.638-.56-.411-.383-.616-.971-.616-1.765v-5.082h1.246v5.082c0 .243.033.444.098.602.075.15.173.271.294.365.121.093.261.158.42.195.168.038.35.056.546.056.541 0 .975-.12 1.302-.363a3.06 3.06 0 00.84-.994v-4.942h1.232v7.266h-1.092l-.112-1.302h-.028zm5.578 1.442a4.81 4.81 0 01-1.022-.098 4.808 4.808 0 01-.77-.21 4.164 4.164 0 01-.546-.28 3.75 3.75 0 01-.35-.266v-1.106c.093.093.219.195.378.308.159.102.35.2.574.293.224.094.476.173.756.239.289.055.611.084.966.084.523 0 .938-.085 1.246-.253.308-.168.462-.452.462-.854 0-.214-.051-.387-.154-.517a.932.932 0 00-.392-.308 2.412 2.412 0 00-.588-.197 28.659 28.659 0 00-.686-.14 26.46 26.46 0 01-.91-.21 3.187 3.187 0 01-.812-.35 1.899 1.899 0 01-.588-.602c-.149-.251-.224-.578-.224-.98 0-.653.252-1.166.756-1.54.513-.373 1.227-.56 2.142-.56.513 0 .966.052 1.358.154.401.103.709.215.924.337v1.106a3.296 3.296 0 00-.91-.392c-.355-.112-.798-.168-1.33-.168-.551 0-.975.074-1.274.224-.289.149-.434.42-.434.811a.82.82 0 00.126.477 1 1 0 00.336.28c.149.065.317.116.504.153.187.038.383.08.588.127.317.065.644.135.98.21.336.074.635.19.896.35.271.158.49.373.658.644.177.26.266.615.266 1.064 0 .42-.084.77-.252 1.05a1.93 1.93 0 01-.672.671 2.87 2.87 0 01-.938.337c-.345.074-.7.112-1.064.112zm7.999-.294c-.149.084-.34.154-.574.21-.233.055-.48.084-.742.084-.354 0-.658-.052-.91-.154a1.765 1.765 0 01-.602-.406 1.744 1.744 0 01-.35-.589 2.45 2.45 0 01-.098-.686v-4.522h-.868v-1.05h.868v-1.525h1.232v1.525h2.114v1.05h-2.114v4.369c0 .308.075.532.224.672.159.14.434.21.826.21.364 0 .696-.103.994-.308v1.12zm7.353-.462a3.756 3.756 0 01-.378.238 4.34 4.34 0 01-.546.252 4.587 4.587 0 01-.728.181c-.27.056-.574.085-.91.085-1.222 0-2.151-.332-2.786-.994-.634-.663-.952-1.592-.952-2.786 0-.589.084-1.116.252-1.583.178-.466.42-.858.728-1.175a3.028 3.028 0 011.092-.742c.42-.178.878-.267 1.372-.267.523 0 .99.09 1.4.267a2.46 2.46 0 011.008.783c.271.346.453.775.546 1.288.103.504.103 1.093 0 1.764h-5.124c.047.784.28 1.373.7 1.764.42.383 1.046.575 1.876.575.56 0 1.041-.08 1.442-.239a5.02 5.02 0 001.008-.517v1.106zm-2.884-5.698c-.532 0-.989.163-1.372.49-.382.326-.625.82-.728 1.484h3.906c.038-.672-.116-1.167-.462-1.484-.345-.327-.793-.49-1.344-.49zm8.124.28a3.787 3.787 0 00-1.428.406c-.42.214-.732.55-.938 1.008v4.62h-1.232v-7.266h1.078l.126 1.581h.028c.206-.429.5-.802.882-1.12.392-.326.887-.527 1.484-.602v1.373zm1.334 1.204h3.36v1.12h-3.36v-1.12zm9.469 3.444a4.34 4.34 0 01-.322.532c-.131.177-.294.34-.49.49-.196.149-.43.27-.7.364-.262.093-.57.14-.924.14-.654 0-1.181-.182-1.582-.546-.402-.374-.602-.906-.602-1.597 0-.793.275-1.376.826-1.75.56-.373 1.353-.56 2.38-.56h1.358v-.602c0-.504-.131-.863-.392-1.078-.262-.214-.71-.322-1.344-.322a3.62 3.62 0 00-1.274.225c-.402.14-.761.303-1.078.49v-1.106a5.42 5.42 0 011.05-.463 4.374 4.374 0 011.47-.237c.914 0 1.61.19 2.086.573.476.374.714.957.714 1.75v4.2c.009.103.014.21.014.323.009.111.018.219.028.322.009.093.018.172.028.238h-1.12a6.4 6.4 0 01-.084-.546 8.197 8.197 0 01-.028-.63l-.014-.21zm-2.17.42c.382 0 .709-.08.98-.239.27-.158.49-.34.658-.545.168-.215.289-.42.364-.616.074-.206.112-.35.112-.434v-.532h-1.232c-.738 0-1.274.107-1.61.322-.327.205-.49.517-.49.938 0 .326.098.592.294.797.196.206.504.308.924.308zm8.937 1.106c-.56 0-1.045-.131-1.456-.392a2.857 2.857 0 01-.966-1.078v3.808h-1.232v-9.745h1.078l.126 1.415a2.98 2.98 0 01.98-1.135c.411-.28.919-.42 1.526-.42.42 0 .821.08 1.204.239.392.149.733.382 1.022.7.299.307.532.7.7 1.175.177.467.266 1.018.266 1.653 0 .643-.089 1.203-.266 1.68a3.502 3.502 0 01-.714 1.175 2.997 2.997 0 01-1.036.7c-.392.15-.803.225-1.232.225zm-.182-1.106c.644 0 1.162-.22 1.554-.659.401-.447.602-1.12.602-2.015 0-.878-.201-1.54-.602-1.989-.392-.457-.91-.686-1.554-.686-.317 0-.616.056-.896.169a1.99 1.99 0 00-.714.503c-.196.215-.355.49-.476.826a3.723 3.723 0 00-.168 1.177c0 .447.056.84.168 1.175.121.337.28.617.476.84.205.225.443.393.714.505.28.102.579.153.896.153zm5.552-7.364c-.252 0-.452-.075-.602-.224a.809.809 0 01-.224-.575c0-.224.075-.415.224-.573.15-.16.35-.239.602-.239.243 0 .434.08.574.239.14.158.21.35.21.574 0 .224-.07.415-.21.574-.14.149-.331.224-.574.224zm.602 1.064v7.266h-1.232v-7.266h1.232zm2.681 7.35c-.271 0-.49-.084-.658-.252a.885.885 0 01-.252-.63c0-.262.084-.477.252-.645.168-.167.387-.251.658-.251.261 0 .476.084.644.251a.872.872 0 01.252.645.885.885 0 01-.252.63.873.873 0 01-.644.251zm-84.783 17.055c-.56 0-1.069-.084-1.526-.252a3.32 3.32 0 01-1.148-.742 3.255 3.255 0 01-.728-1.19c-.168-.466-.252-.998-.252-1.596 0-.588.084-1.115.252-1.582.177-.466.424-.858.742-1.176a3.07 3.07 0 011.162-.742 4.277 4.277 0 011.554-.266c.448 0 .858.052 1.232.154.373.094.681.234.924.42v1.106a3.287 3.287 0 00-1.008-.434 4.183 4.183 0 00-1.134-.154c-.85 0-1.475.22-1.876.658-.392.439-.588 1.111-.588 2.016 0 .906.191 1.578.574 2.016.382.439.989.658 1.82.658.438 0 .84-.051 1.204-.154a4.969 4.969 0 001.008-.42v1.106a4.29 4.29 0 01-2.212.574zm4.945-10.178v10.038h-1.232v-10.038h1.232zm6.67 8.736a2.6 2.6 0 01-.91 1.036c-.401.271-.928.406-1.582.406-.672 0-1.218-.186-1.638-.56-.41-.382-.616-.97-.616-1.764v-5.082h1.246v5.082c0 .243.033.444.098.602a1.032 1.032 0 00.714.56c.168.038.35.056.546.056.542 0 .976-.121 1.302-.364.327-.242.607-.574.84-.994v-4.942h1.232v7.266h-1.092l-.112-1.302h-.028zm5.578 1.442c-.382 0-.723-.032-1.022-.098a4.808 4.808 0 01-.77-.21 4.156 4.156 0 01-.546-.28 3.567 3.567 0 01-.35-.266v-1.106c.094.094.22.196.378.308.159.103.35.201.574.294.224.094.476.173.756.238.29.056.612.084.966.084.523 0 .938-.084 1.246-.252.308-.168.462-.452.462-.854 0-.214-.051-.387-.154-.518a.94.94 0 00-.392-.308 2.429 2.429 0 00-.588-.196 33.876 33.876 0 00-.686-.14 24.708 24.708 0 01-.91-.21 3.178 3.178 0 01-.812-.35 1.909 1.909 0 01-.588-.602c-.149-.252-.224-.578-.224-.98 0-.653.252-1.166.756-1.54.514-.373 1.228-.56 2.142-.56.514 0 .966.052 1.358.154.402.103.71.215.924.336v1.106a3.316 3.316 0 00-.91-.392c-.354-.112-.798-.168-1.33-.168-.55 0-.975.075-1.274.224-.289.15-.434.42-.434.812a.82.82 0 00.126.476.992.992 0 00.336.28c.15.066.318.117.504.154.187.038.383.08.588.126.318.066.644.136.98.21.336.075.635.192.896.35.271.159.49.374.658.644.178.262.266.616.266 1.064 0 .42-.084.77-.252 1.05a1.93 1.93 0 01-.672.672c-.27.159-.583.271-.938.336-.345.075-.7.112-1.064.112zm8-.294a2.252 2.252 0 01-.574.21 3.171 3.171 0 01-.742.084c-.355 0-.658-.051-.91-.154a1.745 1.745 0 01-.602-.406 1.72 1.72 0 01-.35-.588 2.446 2.446 0 01-.098-.686v-4.522h-.868v-1.05h.868v-1.526h1.232v1.526h2.114v1.05h-2.114v4.368c0 .308.075.532.224.672.159.14.434.21.826.21.364 0 .695-.102.994-.308v1.12zm7.353-.462a3.919 3.919 0 01-.378.238 4.34 4.34 0 01-.546.252 4.497 4.497 0 01-.728.182 4.51 4.51 0 01-.91.084c-1.223 0-2.151-.331-2.786-.994-.635-.662-.952-1.591-.952-2.786 0-.588.084-1.115.252-1.582.177-.466.42-.858.728-1.176a3.037 3.037 0 011.092-.742c.42-.177.877-.266 1.372-.266.523 0 .989.089 1.4.266a2.47 2.47 0 011.008.784c.271.346.453.775.546 1.288.103.504.103 1.092 0 1.764h-5.124c.047.784.28 1.372.7 1.764.42.383 1.045.574 1.876.574.56 0 1.041-.079 1.442-.238a5.017 5.017 0 001.008-.518v1.106zm-2.884-5.698c-.532 0-.989.164-1.372.49-.383.327-.625.822-.728 1.484h3.906c.037-.672-.117-1.166-.462-1.484-.345-.326-.793-.49-1.344-.49zm8.124.28a3.784 3.784 0 00-1.428.406c-.42.215-.733.551-.938 1.008v4.62h-1.232v-7.266h1.078l.126 1.582h.028c.205-.429.499-.802.882-1.12.392-.326.887-.527 1.484-.602v1.372zm1.333 1.204h3.36v1.12h-3.36v-1.12zm9.469 3.444a4.17 4.17 0 01-.322.532 2.449 2.449 0 01-1.19.854 2.73 2.73 0 01-.924.14c-.653 0-1.18-.182-1.582-.546-.401-.373-.602-.905-.602-1.596 0-.793.276-1.376.826-1.75.56-.373 1.354-.56 2.38-.56h1.358v-.602c0-.504-.13-.863-.392-1.078-.261-.214-.709-.322-1.344-.322-.448 0-.872.075-1.274.224-.401.14-.76.304-1.078.49v-1.106a5.564 5.564 0 011.05-.462 4.392 4.392 0 011.47-.238c.915 0 1.61.192 2.086.574.476.374.714.957.714 1.75v4.2c.01.103.014.21.014.322l.028.322c.01.094.019.173.028.238h-1.12a6.31 6.31 0 01-.084-.546 8.706 8.706 0 01-.028-.63l-.014-.21zm-2.17.42c.383 0 .71-.079.98-.238.271-.158.49-.34.658-.546.168-.214.29-.42.364-.616.075-.205.112-.35.112-.434v-.532h-1.232c-.737 0-1.274.108-1.61.322-.326.206-.49.518-.49.938 0 .327.098.593.294.798.196.206.504.308.924.308zm10.492-.462a2.916 2.916 0 01-.938 1.148c-.402.28-.91.42-1.526.42-.439 0-.854-.074-1.246-.224a2.979 2.979 0 01-1.036-.7 3.494 3.494 0 01-.714-1.176c-.178-.476-.266-1.036-.266-1.68 0-.634.088-1.185.266-1.652.177-.476.415-.868.714-1.176.298-.317.644-.55 1.036-.7a3.407 3.407 0 011.26-.238c.55 0 1.026.117 1.428.35.401.224.723.546.966.966v-3.948h1.232v10.038h-1.078l-.098-1.428zm-2.282.462c.317 0 .611-.051.882-.154.27-.112.504-.28.7-.504.205-.224.364-.504.476-.84.121-.336.182-.728.182-1.176 0-.448-.061-.84-.182-1.176a2.305 2.305 0 00-.476-.84 1.746 1.746 0 00-.7-.49 2.287 2.287 0 00-.882-.168c-.644 0-1.172.229-1.582.686-.402.448-.602 1.111-.602 1.988 0 .887.205 1.554.616 2.002.41.448.933.672 1.568.672zm6.7.966h-1.232v-7.266h1.078l.126 1.302h.028c.196-.41.49-.751.882-1.022.392-.28.905-.42 1.54-.42.56 0 1.017.136 1.372.406.364.262.607.658.728 1.19a2.52 2.52 0 01.938-1.162c.429-.289.947-.434 1.554-.434.672 0 1.204.192 1.596.574.392.374.588.952.588 1.736v5.096h-1.246v-4.942c0-.476-.117-.821-.35-1.036-.233-.224-.551-.336-.952-.336-.271 0-.509.042-.714.126a1.703 1.703 0 00-.546.322c-.159.14-.303.304-.434.49a6.225 6.225 0 00-.364.588v4.788h-1.232v-5.082c0-.466-.117-.788-.35-.966-.233-.177-.551-.266-.952-.266-.261 0-.495.033-.7.098a2 2 0 00-.56.28 2.231 2.231 0 00-.434.448 4.124 4.124 0 00-.364.56v4.928zm11.757-8.33c-.252 0-.452-.074-.602-.224a.808.808 0 01-.224-.574.81.81 0 01.224-.574c.15-.158.35-.238.602-.238.243 0 .434.08.574.238.14.159.21.35.21.574 0 .224-.07.416-.21.574-.14.15-.331.224-.574.224zm.602 1.064v7.266h-1.232v-7.266h1.232zm5.453.952c-.56 0-1.018.131-1.372.392a2.853 2.853 0 00-.84.98v4.942h-1.232v-7.266h1.162l.042 1.302h.028a2.46 2.46 0 01.924-1.036c.42-.27.952-.406 1.596-.406.718 0 1.288.192 1.708.574.429.374.644.952.644 1.736v5.096h-1.232v-4.97c0-.504-.126-.854-.378-1.05-.252-.196-.602-.294-1.05-.294z" fill="#18123D"/><path d="M590 50.015l-2.887 5h5.774l-2.887-5zM590.5 80V54.517h-1V80h1zM590 120.015l-2.887 5h5.774l-2.887-5zm.5 29.985V124.516h-1V150h1z" fill="#18123D" fill-opacity=".7"/><rect x="520.5" y="80.5" width="139" height="39" rx="4.5" fill="#fff" stroke="#67B0F8"/><path d="M578.142 103.828a3.919 3.919 0 01-.378.238c-.15.084-.332.168-.546.252a4.524 4.524 0 01-.728.182 4.51 4.51 0 01-.91.084c-1.223 0-2.152-.331-2.786-.994-.635-.662-.952-1.591-.952-2.786 0-.588.084-1.115.252-1.582.177-.466.42-.858.728-1.175a3.028 3.028 0 011.092-.742c.42-.178.877-.267 1.372-.267.522 0 .989.09 1.4.267.41.177.746.438 1.008.783.27.346.452.775.546 1.288.102.504.102 1.092 0 1.764h-5.124c.046.784.28 1.372.7 1.764.42.383 1.045.574 1.876.574.56 0 1.04-.079 1.442-.238a5.017 5.017 0 001.008-.518v1.106zm-2.884-5.698c-.532 0-.99.164-1.372.49-.383.327-.626.822-.728 1.484h3.906c.037-.671-.117-1.166-.462-1.483-.346-.327-.794-.49-1.344-.49zm9.733 4.886a2.907 2.907 0 01-.938 1.148c-.401.28-.91.42-1.526.42-.438 0-.854-.074-1.246-.224a2.988 2.988 0 01-1.036-.7 3.526 3.526 0 01-.714-1.176c-.177-.476-.266-1.036-.266-1.68 0-.634.089-1.185.266-1.651.178-.477.416-.869.714-1.177.299-.317.644-.55 1.036-.7a3.4 3.4 0 011.26-.237c.551 0 1.027.116 1.428.35.402.224.724.546.966.966v-3.949h1.232v10.038h-1.078l-.098-1.428zm-2.282.462c.318 0 .612-.051.882-.154.271-.112.504-.28.7-.504a2.29 2.29 0 00.476-.84c.122-.336.182-.728.182-1.176 0-.448-.06-.84-.182-1.175a2.29 2.29 0 00-.476-.84 1.735 1.735 0 00-.7-.49 2.28 2.28 0 00-.882-.169c-.644 0-1.171.23-1.582.687-.401.448-.602 1.11-.602 1.987 0 .887.206 1.554.616 2.002.411.448.934.672 1.568.672zm6.099-7.363c-.252 0-.453-.075-.602-.224a.809.809 0 01-.224-.575c0-.224.075-.415.224-.573.149-.16.35-.239.602-.239.243 0 .434.08.574.239.14.158.21.35.21.574 0 .224-.07.415-.21.574-.14.149-.331.224-.574.224zm.602 1.064v7.265h-1.232v-7.266h1.232zm5.564 7.111a2.252 2.252 0 01-.574.21 3.171 3.171 0 01-.742.084c-.355 0-.658-.051-.91-.154a1.745 1.745 0 01-.602-.406 1.72 1.72 0 01-.35-.588 2.446 2.446 0 01-.098-.686v-4.522h-.868v-1.05h.868v-1.525h1.232v1.525h2.114v1.05h-2.114v4.368c0 .308.075.532.224.672.159.14.434.21.826.21.364 0 .695-.102.994-.308v1.12zm4.553.294c-.495 0-.957-.084-1.386-.252a3.219 3.219 0 01-1.12-.728 3.532 3.532 0 01-.728-1.19c-.177-.466-.266-1.003-.266-1.61 0-.597.089-1.129.266-1.596.177-.475.42-.872.728-1.19.317-.317.691-.56 1.12-.728a3.767 3.767 0 011.386-.252c.504 0 .971.085 1.4.252.429.168.798.411 1.106.728.317.318.565.715.742 1.19.187.467.28.999.28 1.596 0 .607-.093 1.144-.28 1.61a3.424 3.424 0 01-.742 1.19c-.308.318-.677.56-1.106.728a3.807 3.807 0 01-1.4.252zm0-1.106a2.5 2.5 0 00.896-.154 2.04 2.04 0 00.728-.49c.205-.224.364-.504.476-.84a3.77 3.77 0 00.168-1.19c0-.457-.056-.853-.168-1.19a2.168 2.168 0 00-.476-.826 1.827 1.827 0 00-.728-.49 2.322 2.322 0 00-.896-.168c-.327 0-.625.056-.896.169a1.844 1.844 0 00-.714.49c-.196.214-.35.49-.462.826a3.772 3.772 0 00-.168 1.189c0 .458.056.854.168 1.19.112.336.266.616.462.84.205.215.443.378.714.49a2.5 2.5 0 00.896.154zm8.628-5.067a3.777 3.777 0 00-1.428.406c-.42.214-.733.55-.938 1.008v4.619h-1.232v-7.266h1.078l.126 1.582h.028c.205-.429.499-.802.882-1.12.392-.326.886-.527 1.484-.602v1.373z" fill="#18123D"/><rect x="520.5" y="150.5" width="139" height="39" rx="4.5" fill="#fff" stroke="#67B0F8"/><path d="M573.941 174.444h-1.988l-2.492-7.266h1.33l2.212 6.608 2.198-6.608h1.232l-2.492 7.266zm4.264-8.33c-.252 0-.452-.074-.602-.224a.808.808 0 01-.224-.574.81.81 0 01.224-.574c.15-.158.35-.238.602-.238.243 0 .434.08.574.238.14.159.21.35.21.574 0 .224-.07.416-.21.574-.14.15-.331.224-.574.224zm.602 1.064v7.266h-1.232v-7.266h1.232zm7.791 6.65a3.919 3.919 0 01-.378.238c-.15.084-.332.168-.546.252a4.524 4.524 0 01-.728.182 4.51 4.51 0 01-.91.084c-1.223 0-2.152-.331-2.786-.994-.635-.662-.952-1.591-.952-2.786 0-.588.084-1.115.252-1.582.177-.466.42-.858.728-1.176a3.037 3.037 0 011.092-.742c.42-.177.877-.266 1.372-.266.522 0 .989.089 1.4.266.41.178.746.439 1.008.784.27.346.452.775.546 1.288.102.504.102 1.092 0 1.764h-5.124c.046.784.28 1.372.7 1.764.42.383 1.045.574 1.876.574.56 0 1.04-.079 1.442-.238a5.017 5.017 0 001.008-.518v1.106zm-2.884-5.698c-.532 0-.99.164-1.372.49-.383.327-.626.822-.728 1.484h3.906c.037-.672-.117-1.166-.462-1.484-.346-.326-.794-.49-1.344-.49zm12.435 6.314h-1.89l-1.54-5.614-1.582 5.614h-1.834l-1.652-7.266h1.302l1.386 6.342 1.764-6.342h1.386l1.722 6.272 1.372-6.272h1.218l-1.652 7.266zm8.796-.616a3.685 3.685 0 01-.378.238 4.34 4.34 0 01-.546.252 4.471 4.471 0 01-.728.182c-.27.056-.574.084-.91.084-1.222 0-2.151-.331-2.786-.994-.634-.662-.952-1.591-.952-2.786 0-.588.084-1.115.252-1.582.178-.466.42-.858.728-1.176a3.037 3.037 0 011.092-.742 3.5 3.5 0 011.372-.266c.523 0 .99.089 1.4.266a2.47 2.47 0 011.008.784c.271.346.453.775.546 1.288.103.504.103 1.092 0 1.764h-5.124c.047.784.28 1.372.7 1.764.42.383 1.046.574 1.876.574.56 0 1.041-.079 1.442-.238a4.964 4.964 0 001.008-.518v1.106zm-2.884-5.698c-.532 0-.989.164-1.372.49-.382.327-.625.822-.728 1.484h3.906c.038-.672-.116-1.166-.462-1.484-.345-.326-.793-.49-1.344-.49zm8.124.28a3.784 3.784 0 00-1.428.406c-.42.215-.733.551-.938 1.008v4.62h-1.232v-7.266h1.078l.126 1.582h.028c.205-.429.499-.802.882-1.12.392-.326.887-.527 1.484-.602v1.372z" fill="#18123D"/><rect x="350.5" y="150.5" width="139" height="39" rx="4.5" fill="#fff" stroke="#67B0F8"/><path d="M375.73 163.35h-.644v3.094h-1.232v-10.038h1.232v5.894h.7l2.548-3.122h1.4l-2.982 3.584 3.038 3.682h-1.498l-2.562-3.094zm11.271.35c0 .448-.084.854-.252 1.218a2.668 2.668 0 01-.7.91c-.299.243-.649.43-1.05.56-.401.131-.84.196-1.316.196-.495 0-.947-.06-1.358-.182a3.193 3.193 0 01-1.064-.56 2.705 2.705 0 01-.7-.896 2.777 2.777 0 01-.252-1.204c0-.653.168-1.199.504-1.638.345-.448.807-.779 1.386-.994a2.499 2.499 0 01-1.12-.854c-.271-.382-.406-.854-.406-1.414 0-.41.075-.774.224-1.092.159-.317.369-.583.63-.798a2.74 2.74 0 01.952-.504 4.171 4.171 0 011.204-.168c.42 0 .807.056 1.162.168.364.103.681.262.952.476.271.215.481.481.63.798.159.308.238.672.238 1.092 0 .57-.14 1.05-.42 1.442-.28.383-.649.668-1.106.854.56.196 1.008.514 1.344.952.345.439.518.985.518 1.638zm-3.318-3.094c.504 0 .915-.14 1.232-.42.317-.289.476-.686.476-1.19 0-.504-.159-.896-.476-1.176-.317-.289-.728-.434-1.232-.434s-.919.145-1.246.434c-.327.28-.49.672-.49 1.176 0 .504.163.901.49 1.19.327.28.742.42 1.246.42zm0 4.872c.289 0 .555-.042.798-.126.252-.093.467-.219.644-.378.187-.168.331-.373.434-.616.103-.242.154-.518.154-.826 0-.308-.051-.583-.154-.826a1.595 1.595 0 00-.434-.602 1.703 1.703 0 00-.644-.378 2.215 2.215 0 00-.798-.14c-.299 0-.579.047-.84.14-.252.084-.471.21-.658.378-.187.159-.331.36-.434.602a2.097 2.097 0 00-.154.826c0 .308.051.584.154.826.103.243.247.448.434.616.187.159.406.285.658.378.261.084.541.126.84.126zm7.137 1.106c-.382 0-.723-.032-1.022-.098a4.808 4.808 0 01-.77-.21 4.156 4.156 0 01-.546-.28 3.567 3.567 0 01-.35-.266v-1.106c.094.094.22.196.378.308.159.103.35.201.574.294.224.094.476.173.756.238.29.056.612.084.966.084.523 0 .938-.084 1.246-.252.308-.168.462-.452.462-.854 0-.214-.051-.387-.154-.518a.94.94 0 00-.392-.308 2.429 2.429 0 00-.588-.196 33.876 33.876 0 00-.686-.14 24.708 24.708 0 01-.91-.21 3.178 3.178 0 01-.812-.35 1.909 1.909 0 01-.588-.602c-.149-.252-.224-.578-.224-.98 0-.653.252-1.166.756-1.54.514-.373 1.228-.56 2.142-.56.514 0 .966.052 1.358.154.402.103.71.215.924.336v1.106a3.316 3.316 0 00-.91-.392c-.354-.112-.798-.168-1.33-.168-.55 0-.975.075-1.274.224-.289.15-.434.42-.434.812a.82.82 0 00.126.476.992.992 0 00.336.28c.15.066.318.117.504.154.187.038.383.08.588.126.318.066.644.136.98.21.336.075.635.192.896.35.271.159.49.374.658.644.178.262.266.616.266 1.064 0 .42-.084.77-.252 1.05a1.93 1.93 0 01-.672.672c-.27.159-.583.271-.938.336-.345.075-.7.112-1.064.112zm5.116-.056c-.271 0-.49-.084-.658-.252a.884.884 0 01-.252-.63c0-.261.084-.476.252-.644.168-.168.387-.252.658-.252.261 0 .476.084.644.252a.873.873 0 01.252.644.884.884 0 01-.252.63.873.873 0 01-.644.252zm5.54.056c-.56 0-1.069-.084-1.526-.252a3.32 3.32 0 01-1.148-.742 3.268 3.268 0 01-.728-1.19c-.168-.466-.252-.998-.252-1.596 0-.588.084-1.115.252-1.582a3.3 3.3 0 01.742-1.176 3.077 3.077 0 011.162-.742 4.277 4.277 0 011.554-.266c.448 0 .859.052 1.232.154.373.094.681.234.924.42v1.106a3.287 3.287 0 00-1.008-.434 4.183 4.183 0 00-1.134-.154c-.849 0-1.475.22-1.876.658-.392.439-.588 1.111-.588 2.016 0 .906.191 1.578.574 2.016.383.439.989.658 1.82.658.439 0 .84-.051 1.204-.154a4.969 4.969 0 001.008-.42v1.106a4.29 4.29 0 01-2.212.574zm4.946-10.178v10.038h-1.232v-10.038h1.232zm6.67 8.736a2.6 2.6 0 01-.91 1.036c-.401.271-.929.406-1.582.406-.672 0-1.218-.186-1.638-.56-.411-.382-.616-.97-.616-1.764v-5.082h1.246v5.082c0 .243.033.444.098.602a1.032 1.032 0 00.714.56c.168.038.35.056.546.056.541 0 .975-.121 1.302-.364.327-.242.607-.574.84-.994v-4.942h1.232v7.266h-1.092l-.112-1.302h-.028zm5.578 1.442c-.383 0-.723-.032-1.022-.098a4.808 4.808 0 01-.77-.21 4.033 4.033 0 01-.546-.28 3.567 3.567 0 01-.35-.266v-1.106c.093.094.219.196.378.308.159.103.35.201.574.294.224.094.476.173.756.238.289.056.611.084.966.084.523 0 .938-.084 1.246-.252.308-.168.462-.452.462-.854 0-.214-.051-.387-.154-.518a.94.94 0 00-.392-.308 2.429 2.429 0 00-.588-.196 35.345 35.345 0 00-.686-.14 24.708 24.708 0 01-.91-.21 3.163 3.163 0 01-.812-.35 1.888 1.888 0 01-.588-.602c-.149-.252-.224-.578-.224-.98 0-.653.252-1.166.756-1.54.513-.373 1.227-.56 2.142-.56.513 0 .966.052 1.358.154.401.103.709.215.924.336v1.106a3.33 3.33 0 00-.91-.392c-.355-.112-.798-.168-1.33-.168-.551 0-.975.075-1.274.224-.289.15-.434.42-.434.812a.82.82 0 00.126.476.992.992 0 00.336.28c.149.066.317.117.504.154.187.038.383.08.588.126.317.066.644.136.98.21.336.075.635.192.896.35.271.159.49.374.658.644.177.262.266.616.266 1.064 0 .42-.084.77-.252 1.05a1.93 1.93 0 01-.672.672 2.851 2.851 0 01-.938.336c-.345.075-.7.112-1.064.112zm7.999-.294c-.149.084-.34.154-.574.21-.233.056-.48.084-.742.084-.354 0-.658-.051-.91-.154a1.755 1.755 0 01-.602-.406 1.737 1.737 0 01-.35-.588 2.446 2.446 0 01-.098-.686v-4.522h-.868v-1.05h.868v-1.526h1.232v1.526h2.114v1.05h-2.114v4.368c0 .308.075.532.224.672.159.14.434.21.826.21.364 0 .696-.102.994-.308v1.12zm7.353-.462a3.685 3.685 0 01-.378.238 4.34 4.34 0 01-.546.252 4.471 4.471 0 01-.728.182c-.27.056-.574.084-.91.084-1.222 0-2.151-.331-2.786-.994-.634-.662-.952-1.591-.952-2.786 0-.588.084-1.115.252-1.582.178-.466.42-.858.728-1.176a3.037 3.037 0 011.092-.742 3.5 3.5 0 011.372-.266c.523 0 .99.089 1.4.266a2.47 2.47 0 011.008.784c.271.346.453.775.546 1.288.103.504.103 1.092 0 1.764h-5.124c.047.784.28 1.372.7 1.764.42.383 1.046.574 1.876.574.56 0 1.041-.079 1.442-.238a4.964 4.964 0 001.008-.518v1.106zm-2.884-5.698c-.532 0-.989.164-1.372.49-.382.327-.625.822-.728 1.484h3.906c.038-.672-.116-1.166-.462-1.484-.345-.326-.793-.49-1.344-.49zm8.124.28a3.795 3.795 0 00-1.428.406c-.42.215-.732.551-.938 1.008v4.62h-1.232v-7.266h1.078l.126 1.582h.028c.206-.429.5-.802.882-1.12.392-.326.887-.527 1.484-.602v1.372zm1.334 1.204h3.36v1.12h-3.36v-1.12zm9.469 3.444a4.288 4.288 0 01-.322.532 2.419 2.419 0 01-1.19.854c-.262.094-.57.14-.924.14-.654 0-1.181-.182-1.582-.546-.402-.373-.602-.905-.602-1.596 0-.793.275-1.376.826-1.75.56-.373 1.353-.56 2.38-.56h1.358v-.602c0-.504-.131-.863-.392-1.078-.262-.214-.71-.322-1.344-.322a3.63 3.63 0 00-1.274.224c-.402.14-.761.304-1.078.49v-1.106a5.506 5.506 0 011.05-.462 4.392 4.392 0 011.47-.238c.914 0 1.61.192 2.086.574.476.374.714.957.714 1.75v4.2c.009.103.014.21.014.322.009.112.018.22.028.322.009.094.018.173.028.238h-1.12a6.31 6.31 0 01-.084-.546 8.168 8.168 0 01-.028-.63l-.014-.21zm-2.17.42c.382 0 .709-.079.98-.238.27-.158.49-.34.658-.546a2.41 2.41 0 00.364-.616c.074-.205.112-.35.112-.434v-.532h-1.232c-.738 0-1.274.108-1.61.322-.327.206-.49.518-.49.938 0 .327.098.593.294.798.196.206.504.308.924.308zm8.937 1.106c-.56 0-1.045-.13-1.456-.392a2.849 2.849 0 01-.966-1.078v3.808h-1.232v-9.744h1.078l.126 1.414a2.98 2.98 0 01.98-1.134c.411-.28.919-.42 1.526-.42.42 0 .821.08 1.204.238.392.15.733.383 1.022.7.299.308.532.7.7 1.176.177.467.266 1.018.266 1.652 0 .644-.089 1.204-.266 1.68a3.494 3.494 0 01-.714 1.176 2.988 2.988 0 01-1.036.7c-.392.15-.803.224-1.232.224zm-.182-1.106c.644 0 1.162-.219 1.554-.658.401-.448.602-1.12.602-2.016 0-.877-.201-1.54-.602-1.988-.392-.457-.91-.686-1.554-.686-.317 0-.616.056-.896.168a1.99 1.99 0 00-.714.504c-.196.215-.355.49-.476.826a3.723 3.723 0 00-.168 1.176c0 .448.056.84.168 1.176.121.336.28.616.476.84.205.224.443.392.714.504.28.103.579.154.896.154zm5.552-7.364c-.252 0-.452-.074-.602-.224a.808.808 0 01-.224-.574.81.81 0 01.224-.574c.15-.158.35-.238.602-.238.243 0 .434.08.574.238.14.159.21.35.21.574 0 .224-.07.416-.21.574-.14.15-.331.224-.574.224zm.602 1.064v7.266h-1.232v-7.266h1.232zm2.681 7.35c-.271 0-.49-.084-.658-.252a.884.884 0 01-.252-.63c0-.261.084-.476.252-.644.168-.168.387-.252.658-.252.261 0 .476.084.644.252a.873.873 0 01.252.644.884.884 0 01-.252.63.873.873 0 01-.644.252zm-57.343 16.3a3.919 3.919 0 01-.378.238c-.15.084-.332.168-.546.252a4.524 4.524 0 01-.728.182 4.51 4.51 0 01-.91.084c-1.223 0-2.152-.331-2.786-.994-.635-.662-.952-1.591-.952-2.786 0-.588.084-1.115.252-1.582.177-.466.42-.858.728-1.176a3.037 3.037 0 011.092-.742c.42-.177.877-.266 1.372-.266.522 0 .989.089 1.4.266.41.178.746.439 1.008.784.27.346.452.775.546 1.288.102.504.102 1.092 0 1.764h-5.124c.046.784.28 1.372.7 1.764.42.383 1.045.574 1.876.574.56 0 1.04-.079 1.442-.238a5.017 5.017 0 001.008-.518v1.106zm-2.884-5.698c-.532 0-.99.164-1.372.49-.383.327-.626.822-.728 1.484h3.906c.037-.672-.117-1.166-.462-1.484-.346-.326-.794-.49-1.344-.49zm9.733 4.886a2.907 2.907 0 01-.938 1.148c-.401.28-.91.42-1.526.42-.438 0-.854-.074-1.246-.224a2.988 2.988 0 01-1.036-.7 3.526 3.526 0 01-.714-1.176c-.177-.476-.266-1.036-.266-1.68 0-.634.089-1.185.266-1.652.178-.476.416-.868.714-1.176.299-.317.644-.55 1.036-.7a3.415 3.415 0 011.26-.238c.551 0 1.027.117 1.428.35.402.224.724.546.966.966v-3.948h1.232v10.038h-1.078l-.098-1.428zm-2.282.462c.318 0 .612-.051.882-.154.271-.112.504-.28.7-.504a2.29 2.29 0 00.476-.84c.122-.336.182-.728.182-1.176 0-.448-.06-.84-.182-1.176a2.29 2.29 0 00-.476-.84 1.739 1.739 0 00-.7-.49 2.28 2.28 0 00-.882-.168c-.644 0-1.171.229-1.582.686-.401.448-.602 1.111-.602 1.988 0 .887.206 1.554.616 2.002.411.448.934.672 1.568.672zm6.099-7.364c-.252 0-.453-.074-.602-.224a.808.808 0 01-.224-.574.81.81 0 01.224-.574c.149-.158.35-.238.602-.238.243 0 .434.08.574.238.14.159.21.35.21.574 0 .224-.07.416-.21.574-.14.15-.331.224-.574.224zm.602 1.064v7.266h-1.232v-7.266h1.232zm5.564 7.112a2.252 2.252 0 01-.574.21 3.171 3.171 0 01-.742.084c-.355 0-.658-.051-.91-.154a1.745 1.745 0 01-.602-.406 1.72 1.72 0 01-.35-.588 2.446 2.446 0 01-.098-.686v-4.522h-.868v-1.05h.868v-1.526h1.232v1.526h2.114v1.05h-2.114v4.368c0 .308.075.532.224.672.159.14.434.21.826.21.364 0 .695-.102.994-.308v1.12zm4.553.294c-.495 0-.957-.084-1.386-.252a3.219 3.219 0 01-1.12-.728 3.532 3.532 0 01-.728-1.19c-.177-.466-.266-1.003-.266-1.61 0-.597.089-1.129.266-1.596.177-.476.42-.872.728-1.19.317-.317.691-.56 1.12-.728a3.767 3.767 0 011.386-.252c.504 0 .971.084 1.4.252.429.168.798.411 1.106.728.317.318.565.714.742 1.19.187.467.28.999.28 1.596 0 .607-.093 1.144-.28 1.61a3.424 3.424 0 01-.742 1.19c-.308.318-.677.56-1.106.728a3.807 3.807 0 01-1.4.252zm0-1.106a2.5 2.5 0 00.896-.154 2.04 2.04 0 00.728-.49c.205-.224.364-.504.476-.84a3.77 3.77 0 00.168-1.19c0-.457-.056-.854-.168-1.19a2.17 2.17 0 00-.476-.826 1.831 1.831 0 00-.728-.49 2.322 2.322 0 00-.896-.168c-.327 0-.625.056-.896.168a1.849 1.849 0 00-.714.49c-.196.215-.35.49-.462.826a3.775 3.775 0 00-.168 1.19c0 .458.056.854.168 1.19.112.336.266.616.462.84.205.215.443.378.714.49a2.5 2.5 0 00.896.154zm8.628-5.068a3.784 3.784 0 00-1.428.406c-.42.215-.733.551-.938 1.008v4.62h-1.232v-7.266h1.078l.126 1.582h.028c.205-.429.499-.802.882-1.12.392-.326.886-.527 1.484-.602v1.372z" fill="#18123D"/><rect x="350.5" y="220.5" width="139" height="39" rx="4.5" fill="#fff" stroke="#67B0F8"/><path d="M375.73 233.35h-.644v3.094h-1.232v-10.038h1.232v5.894h.7l2.548-3.122h1.4l-2.982 3.584 3.038 3.682h-1.498l-2.562-3.094zm11.271.35c0 .448-.084.854-.252 1.218a2.668 2.668 0 01-.7.91c-.299.243-.649.43-1.05.56-.401.131-.84.196-1.316.196-.495 0-.947-.06-1.358-.182a3.193 3.193 0 01-1.064-.56 2.705 2.705 0 01-.7-.896 2.777 2.777 0 01-.252-1.204c0-.653.168-1.199.504-1.638.345-.448.807-.779 1.386-.994a2.499 2.499 0 01-1.12-.854c-.271-.382-.406-.854-.406-1.414 0-.41.075-.774.224-1.092.159-.317.369-.583.63-.798a2.74 2.74 0 01.952-.504 4.171 4.171 0 011.204-.168c.42 0 .807.056 1.162.168.364.103.681.262.952.476.271.215.481.481.63.798.159.308.238.672.238 1.092 0 .57-.14 1.05-.42 1.442-.28.383-.649.668-1.106.854.56.196 1.008.514 1.344.952.345.439.518.985.518 1.638zm-3.318-3.094c.504 0 .915-.14 1.232-.42.317-.289.476-.686.476-1.19 0-.504-.159-.896-.476-1.176-.317-.289-.728-.434-1.232-.434s-.919.145-1.246.434c-.327.28-.49.672-.49 1.176 0 .504.163.901.49 1.19.327.28.742.42 1.246.42zm0 4.872c.289 0 .555-.042.798-.126.252-.093.467-.219.644-.378.187-.168.331-.373.434-.616.103-.242.154-.518.154-.826 0-.308-.051-.583-.154-.826a1.595 1.595 0 00-.434-.602 1.703 1.703 0 00-.644-.378 2.215 2.215 0 00-.798-.14c-.299 0-.579.047-.84.14-.252.084-.471.21-.658.378-.187.159-.331.36-.434.602a2.097 2.097 0 00-.154.826c0 .308.051.584.154.826.103.243.247.448.434.616.187.159.406.285.658.378.261.084.541.126.84.126zm7.137 1.106c-.382 0-.723-.032-1.022-.098a4.808 4.808 0 01-.77-.21 4.156 4.156 0 01-.546-.28 3.567 3.567 0 01-.35-.266v-1.106c.094.094.22.196.378.308.159.103.35.201.574.294.224.094.476.173.756.238.29.056.612.084.966.084.523 0 .938-.084 1.246-.252.308-.168.462-.452.462-.854 0-.214-.051-.387-.154-.518a.94.94 0 00-.392-.308 2.429 2.429 0 00-.588-.196 33.876 33.876 0 00-.686-.14 24.708 24.708 0 01-.91-.21 3.178 3.178 0 01-.812-.35 1.909 1.909 0 01-.588-.602c-.149-.252-.224-.578-.224-.98 0-.653.252-1.166.756-1.54.514-.373 1.228-.56 2.142-.56.514 0 .966.052 1.358.154.402.103.71.215.924.336v1.106a3.316 3.316 0 00-.91-.392c-.354-.112-.798-.168-1.33-.168-.55 0-.975.075-1.274.224-.289.15-.434.42-.434.812a.82.82 0 00.126.476.992.992 0 00.336.28c.15.066.318.117.504.154.187.038.383.08.588.126.318.066.644.136.98.21.336.075.635.192.896.35.271.159.49.374.658.644.178.262.266.616.266 1.064 0 .42-.084.77-.252 1.05a1.93 1.93 0 01-.672.672c-.27.159-.583.271-.938.336-.345.075-.7.112-1.064.112zm5.116-.056c-.271 0-.49-.084-.658-.252a.884.884 0 01-.252-.63c0-.261.084-.476.252-.644.168-.168.387-.252.658-.252.261 0 .476.084.644.252a.873.873 0 01.252.644.884.884 0 01-.252.63.873.873 0 01-.644.252zm5.54.056c-.56 0-1.069-.084-1.526-.252a3.32 3.32 0 01-1.148-.742 3.268 3.268 0 01-.728-1.19c-.168-.466-.252-.998-.252-1.596 0-.588.084-1.115.252-1.582a3.3 3.3 0 01.742-1.176 3.077 3.077 0 011.162-.742 4.277 4.277 0 011.554-.266c.448 0 .859.052 1.232.154.373.094.681.234.924.42v1.106a3.287 3.287 0 00-1.008-.434 4.183 4.183 0 00-1.134-.154c-.849 0-1.475.22-1.876.658-.392.439-.588 1.111-.588 2.016 0 .906.191 1.578.574 2.016.383.439.989.658 1.82.658.439 0 .84-.051 1.204-.154a4.969 4.969 0 001.008-.42v1.106a4.29 4.29 0 01-2.212.574zm4.946-10.178v10.038h-1.232v-10.038h1.232zm6.67 8.736a2.6 2.6 0 01-.91 1.036c-.401.271-.929.406-1.582.406-.672 0-1.218-.186-1.638-.56-.411-.382-.616-.97-.616-1.764v-5.082h1.246v5.082c0 .243.033.444.098.602a1.032 1.032 0 00.714.56c.168.038.35.056.546.056.541 0 .975-.121 1.302-.364.327-.242.607-.574.84-.994v-4.942h1.232v7.266h-1.092l-.112-1.302h-.028zm5.578 1.442c-.383 0-.723-.032-1.022-.098a4.808 4.808 0 01-.77-.21 4.033 4.033 0 01-.546-.28 3.567 3.567 0 01-.35-.266v-1.106c.093.094.219.196.378.308.159.103.35.201.574.294.224.094.476.173.756.238.289.056.611.084.966.084.523 0 .938-.084 1.246-.252.308-.168.462-.452.462-.854 0-.214-.051-.387-.154-.518a.94.94 0 00-.392-.308 2.429 2.429 0 00-.588-.196 35.345 35.345 0 00-.686-.14 24.708 24.708 0 01-.91-.21 3.163 3.163 0 01-.812-.35 1.888 1.888 0 01-.588-.602c-.149-.252-.224-.578-.224-.98 0-.653.252-1.166.756-1.54.513-.373 1.227-.56 2.142-.56.513 0 .966.052 1.358.154.401.103.709.215.924.336v1.106a3.33 3.33 0 00-.91-.392c-.355-.112-.798-.168-1.33-.168-.551 0-.975.075-1.274.224-.289.15-.434.42-.434.812a.82.82 0 00.126.476.992.992 0 00.336.28c.149.066.317.117.504.154.187.038.383.08.588.126.317.066.644.136.98.21.336.075.635.192.896.35.271.159.49.374.658.644.177.262.266.616.266 1.064 0 .42-.084.77-.252 1.05a1.93 1.93 0 01-.672.672 2.851 2.851 0 01-.938.336c-.345.075-.7.112-1.064.112zm7.999-.294c-.149.084-.34.154-.574.21-.233.056-.48.084-.742.084-.354 0-.658-.051-.91-.154a1.755 1.755 0 01-.602-.406 1.737 1.737 0 01-.35-.588 2.446 2.446 0 01-.098-.686v-4.522h-.868v-1.05h.868v-1.526h1.232v1.526h2.114v1.05h-2.114v4.368c0 .308.075.532.224.672.159.14.434.21.826.21.364 0 .696-.102.994-.308v1.12zm7.353-.462a3.685 3.685 0 01-.378.238 4.34 4.34 0 01-.546.252 4.471 4.471 0 01-.728.182c-.27.056-.574.084-.91.084-1.222 0-2.151-.331-2.786-.994-.634-.662-.952-1.591-.952-2.786 0-.588.084-1.115.252-1.582.178-.466.42-.858.728-1.176a3.037 3.037 0 011.092-.742 3.5 3.5 0 011.372-.266c.523 0 .99.089 1.4.266a2.47 2.47 0 011.008.784c.271.346.453.775.546 1.288.103.504.103 1.092 0 1.764h-5.124c.047.784.28 1.372.7 1.764.42.383 1.046.574 1.876.574.56 0 1.041-.079 1.442-.238a4.964 4.964 0 001.008-.518v1.106zm-2.884-5.698c-.532 0-.989.164-1.372.49-.382.327-.625.822-.728 1.484h3.906c.038-.672-.116-1.166-.462-1.484-.345-.326-.793-.49-1.344-.49zm8.124.28a3.795 3.795 0 00-1.428.406c-.42.215-.732.551-.938 1.008v4.62h-1.232v-7.266h1.078l.126 1.582h.028c.206-.429.5-.802.882-1.12.392-.326.887-.527 1.484-.602v1.372zm1.334 1.204h3.36v1.12h-3.36v-1.12zm9.469 3.444a4.288 4.288 0 01-.322.532 2.419 2.419 0 01-1.19.854c-.262.094-.57.14-.924.14-.654 0-1.181-.182-1.582-.546-.402-.373-.602-.905-.602-1.596 0-.793.275-1.376.826-1.75.56-.373 1.353-.56 2.38-.56h1.358v-.602c0-.504-.131-.863-.392-1.078-.262-.214-.71-.322-1.344-.322a3.63 3.63 0 00-1.274.224c-.402.14-.761.304-1.078.49v-1.106a5.506 5.506 0 011.05-.462 4.392 4.392 0 011.47-.238c.914 0 1.61.192 2.086.574.476.374.714.957.714 1.75v4.2c.009.103.014.21.014.322.009.112.018.22.028.322.009.094.018.173.028.238h-1.12a6.31 6.31 0 01-.084-.546 8.168 8.168 0 01-.028-.63l-.014-.21zm-2.17.42c.382 0 .709-.079.98-.238.27-.158.49-.34.658-.546a2.41 2.41 0 00.364-.616c.074-.205.112-.35.112-.434v-.532h-1.232c-.738 0-1.274.108-1.61.322-.327.206-.49.518-.49.938 0 .327.098.593.294.798.196.206.504.308.924.308zm8.937 1.106c-.56 0-1.045-.13-1.456-.392a2.849 2.849 0 01-.966-1.078v3.808h-1.232v-9.744h1.078l.126 1.414a2.98 2.98 0 01.98-1.134c.411-.28.919-.42 1.526-.42.42 0 .821.08 1.204.238.392.15.733.383 1.022.7.299.308.532.7.7 1.176.177.467.266 1.018.266 1.652 0 .644-.089 1.204-.266 1.68a3.494 3.494 0 01-.714 1.176 2.988 2.988 0 01-1.036.7c-.392.15-.803.224-1.232.224zm-.182-1.106c.644 0 1.162-.219 1.554-.658.401-.448.602-1.12.602-2.016 0-.877-.201-1.54-.602-1.988-.392-.457-.91-.686-1.554-.686-.317 0-.616.056-.896.168a1.99 1.99 0 00-.714.504c-.196.215-.355.49-.476.826a3.723 3.723 0 00-.168 1.176c0 .448.056.84.168 1.176.121.336.28.616.476.84.205.224.443.392.714.504.28.103.579.154.896.154zm5.552-7.364c-.252 0-.452-.074-.602-.224a.808.808 0 01-.224-.574.81.81 0 01.224-.574c.15-.158.35-.238.602-.238.243 0 .434.08.574.238.14.159.21.35.21.574 0 .224-.07.416-.21.574-.14.15-.331.224-.574.224zm.602 1.064v7.266h-1.232v-7.266h1.232zm2.681 7.35c-.271 0-.49-.084-.658-.252a.884.884 0 01-.252-.63c0-.261.084-.476.252-.644.168-.168.387-.252.658-.252.261 0 .476.084.644.252a.873.873 0 01.252.644.884.884 0 01-.252.63.873.873 0 01-.644.252zm-61.544 16.916h-1.988l-2.492-7.266h1.33l2.212 6.608 2.198-6.608h1.232l-2.492 7.266zm4.264-8.33c-.252 0-.452-.074-.602-.224a.808.808 0 01-.224-.574.81.81 0 01.224-.574c.15-.158.35-.238.602-.238.243 0 .434.08.574.238.14.159.21.35.21.574 0 .224-.07.416-.21.574-.14.15-.331.224-.574.224zm.602 1.064v7.266h-1.232v-7.266h1.232zm7.791 6.65a3.919 3.919 0 01-.378.238c-.15.084-.332.168-.546.252a4.524 4.524 0 01-.728.182 4.51 4.51 0 01-.91.084c-1.223 0-2.152-.331-2.786-.994-.635-.662-.952-1.591-.952-2.786 0-.588.084-1.115.252-1.582.177-.466.42-.858.728-1.176a3.037 3.037 0 011.092-.742c.42-.177.877-.266 1.372-.266.522 0 .989.089 1.4.266.41.178.746.439 1.008.784.27.346.452.775.546 1.288.102.504.102 1.092 0 1.764h-5.124c.046.784.28 1.372.7 1.764.42.383 1.045.574 1.876.574.56 0 1.04-.079 1.442-.238a5.017 5.017 0 001.008-.518v1.106zm-2.884-5.698c-.532 0-.99.164-1.372.49-.383.327-.626.822-.728 1.484h3.906c.037-.672-.117-1.166-.462-1.484-.346-.326-.794-.49-1.344-.49zm12.435 6.314h-1.89l-1.54-5.614-1.582 5.614h-1.834l-1.652-7.266h1.302l1.386 6.342 1.764-6.342h1.386l1.722 6.272 1.372-6.272h1.218l-1.652 7.266zm8.796-.616a3.685 3.685 0 01-.378.238 4.34 4.34 0 01-.546.252 4.471 4.471 0 01-.728.182c-.27.056-.574.084-.91.084-1.222 0-2.151-.331-2.786-.994-.634-.662-.952-1.591-.952-2.786 0-.588.084-1.115.252-1.582.178-.466.42-.858.728-1.176a3.037 3.037 0 011.092-.742 3.5 3.5 0 011.372-.266c.523 0 .99.089 1.4.266a2.47 2.47 0 011.008.784c.271.346.453.775.546 1.288.103.504.103 1.092 0 1.764h-5.124c.047.784.28 1.372.7 1.764.42.383 1.046.574 1.876.574.56 0 1.041-.079 1.442-.238a4.964 4.964 0 001.008-.518v1.106zm-2.884-5.698c-.532 0-.989.164-1.372.49-.382.327-.625.822-.728 1.484h3.906c.038-.672-.116-1.166-.462-1.484-.345-.326-.793-.49-1.344-.49zm8.124.28a3.784 3.784 0 00-1.428.406c-.42.215-.733.551-.938 1.008v4.62h-1.232v-7.266h1.078l.126 1.582h.028c.205-.429.499-.802.882-1.12.392-.326.887-.527 1.484-.602v1.372z" fill="#18123D"/><rect x="180.5" y="80.5" width="139" height="39" rx="4.5" fill="#fff" stroke="#67B0F8"/><path d="M201.847 105h-1.988l-2.492-7.266h1.33l2.212 6.608 2.198-6.608h1.232L201.847 105zm7.288.14c-.56 0-1.046-.131-1.456-.392a2.84 2.84 0 01-.966-1.078v3.808h-1.232v-9.744h1.078l.126 1.414c.242-.476.569-.854.98-1.134.41-.28.919-.42 1.526-.42.42 0 .821.08 1.204.238.392.15.732.383 1.022.7.298.308.532.7.7 1.176.177.467.266 1.017.266 1.652 0 .644-.089 1.204-.266 1.68a3.526 3.526 0 01-.714 1.176 3.002 3.002 0 01-1.036.7 3.44 3.44 0 01-1.232.224zm-.182-1.106c.644 0 1.162-.219 1.554-.658.401-.448.602-1.12.602-2.016 0-.877-.201-1.54-.602-1.988-.392-.457-.91-.686-1.554-.686-.318 0-.616.056-.896.168a1.99 1.99 0 00-.714.504 2.43 2.43 0 00-.476.826 3.723 3.723 0 00-.168 1.176c0 .448.056.84.168 1.176.121.336.28.616.476.84.205.224.443.392.714.504.28.103.578.154.896.154zm8.058 1.106c-.56 0-1.068-.084-1.526-.252a3.345 3.345 0 01-1.148-.742 3.277 3.277 0 01-.728-1.19c-.168-.467-.252-.999-.252-1.596 0-.588.084-1.115.252-1.582.178-.467.425-.859.742-1.176a3.076 3.076 0 011.162-.742 4.278 4.278 0 011.554-.266c.448 0 .859.051 1.232.154.374.093.682.233.924.42v1.106a3.25 3.25 0 00-1.008-.434 4.156 4.156 0 00-1.134-.154c-.849 0-1.474.22-1.876.658-.392.439-.588 1.111-.588 2.016s.192 1.577.574 2.016c.383.439.99.658 1.82.658.439 0 .84-.051 1.204-.154.374-.112.71-.252 1.008-.42v1.106a4.29 4.29 0 01-2.212.574zm4.386-.056c-.271 0-.49-.084-.658-.252a.884.884 0 01-.252-.63c0-.261.084-.476.252-.644.168-.168.387-.252.658-.252.261 0 .476.084.644.252a.873.873 0 01.252.644.884.884 0 01-.252.63.873.873 0 01-.644.252zm6.331.056c-.56 0-1.045-.131-1.456-.392a2.856 2.856 0 01-.966-1.078v3.808h-1.232v-9.744h1.078l.126 1.414c.243-.476.57-.854.98-1.134.411-.28.92-.42 1.526-.42.42 0 .822.08 1.204.238.392.15.733.383 1.022.7.299.308.532.7.7 1.176.178.467.266 1.017.266 1.652 0 .644-.088 1.204-.266 1.68a3.494 3.494 0 01-.714 1.176 2.992 2.992 0 01-1.036.7 3.436 3.436 0 01-1.232.224zm-.182-1.106c.644 0 1.162-.219 1.554-.658.402-.448.602-1.12.602-2.016 0-.877-.2-1.54-.602-1.988-.392-.457-.91-.686-1.554-.686-.317 0-.616.056-.896.168-.27.112-.508.28-.714.504-.196.215-.354.49-.476.826a3.723 3.723 0 00-.168 1.176c0 .448.056.84.168 1.176.122.336.28.616.476.84.206.224.444.392.714.504.28.103.579.154.896.154zm9.585-.336a2.6 2.6 0 01-.91 1.036c-.401.271-.929.406-1.582.406-.672 0-1.218-.187-1.638-.56-.411-.383-.616-.971-.616-1.764v-5.082h1.246v5.082c0 .243.033.443.098.602a1.041 1.041 0 00.714.56c.168.037.35.056.546.056.541 0 .975-.121 1.302-.364.327-.243.607-.574.84-.994v-4.942h1.232V105h-1.092l-.112-1.302h-.028zm10.156-2.338c0 .644-.089 1.204-.266 1.68a3.494 3.494 0 01-.714 1.176 3.002 3.002 0 01-1.036.7 3.44 3.44 0 01-1.232.224c-.56 0-1.05-.131-1.47-.392a2.872 2.872 0 01-.98-1.12l-.042 1.372h-1.162V94.962h1.232l-.028 4.186a2.98 2.98 0 01.98-1.134c.411-.28.919-.42 1.526-.42.42 0 .821.08 1.204.238.392.15.733.383 1.022.7.299.308.532.7.7 1.176.177.467.266 1.017.266 1.652zm-3.43 2.674c.644 0 1.162-.219 1.554-.658.401-.448.602-1.12.602-2.016 0-.877-.201-1.54-.602-1.988-.392-.457-.91-.686-1.554-.686-.317 0-.616.056-.896.168a1.99 1.99 0 00-.714.504 2.43 2.43 0 00-.476.826 3.723 3.723 0 00-.168 1.176c0 .448.056.84.168 1.176.121.336.28.616.476.84.205.224.443.392.714.504.28.103.579.154.896.154zm6.154-9.072V105h-1.232V94.962h1.232zm2.639 1.708c-.252 0-.453-.075-.602-.224a.805.805 0 01-.224-.574c0-.224.074-.415.224-.574.149-.159.35-.238.602-.238.242 0 .434.08.574.238.14.159.21.35.21.574 0 .224-.07.415-.21.574-.14.15-.332.224-.574.224zm.602 1.064V105h-1.232v-7.266h1.232zm5.144 7.406c-.56 0-1.069-.084-1.526-.252a3.335 3.335 0 01-1.148-.742 3.277 3.277 0 01-.728-1.19c-.168-.467-.252-.999-.252-1.596 0-.588.084-1.115.252-1.582.177-.467.425-.859.742-1.176a3.068 3.068 0 011.162-.742 4.27 4.27 0 011.554-.266c.448 0 .859.051 1.232.154.373.093.681.233.924.42v1.106a3.27 3.27 0 00-1.008-.434 4.156 4.156 0 00-1.134-.154c-.849 0-1.475.22-1.876.658-.392.439-.588 1.111-.588 2.016s.191 1.577.574 2.016c.383.439.989.658 1.82.658.439 0 .84-.051 1.204-.154a4.969 4.969 0 001.008-.42v1.106a4.29 4.29 0 01-2.212.574zm6.556-10.178h1.96L270.51 105h-1.4l-1.036-2.87h-4.438l-1.022 2.87h-1.232l3.57-10.038zm2.702 5.978l-1.792-4.998-1.792 4.998h3.584zm9.289 2.632a2.916 2.916 0 01-.938 1.148c-.402.28-.91.42-1.526.42-.439 0-.854-.075-1.246-.224a2.992 2.992 0 01-1.036-.7 3.494 3.494 0 01-.714-1.176c-.178-.476-.266-1.036-.266-1.68 0-.635.088-1.185.266-1.652.177-.476.415-.868.714-1.176.298-.317.644-.55 1.036-.7a3.393 3.393 0 011.26-.238c.55 0 1.026.117 1.428.35.401.224.723.546.966.966v-3.948h1.232V105h-1.078l-.098-1.428zm-2.282.462c.317 0 .611-.051.882-.154.27-.112.504-.28.7-.504.205-.224.364-.504.476-.84.121-.336.182-.728.182-1.176 0-.448-.061-.84-.182-1.176a2.305 2.305 0 00-.476-.84 1.743 1.743 0 00-.7-.49 2.287 2.287 0 00-.882-.168c-.644 0-1.172.229-1.582.686-.402.448-.602 1.111-.602 1.988 0 .887.205 1.554.616 2.002.41.448.933.672 1.568.672zm6.7.966h-1.232v-7.266h1.078l.126 1.302h.028c.196-.41.49-.751.882-1.022.392-.28.905-.42 1.54-.42.56 0 1.017.135 1.372.406.364.261.607.658.728 1.19.205-.495.518-.882.938-1.162.429-.29.947-.434 1.554-.434.672 0 1.204.191 1.596.574.392.373.588.952.588 1.736V105h-1.246v-4.942c0-.476-.117-.821-.35-1.036-.233-.224-.551-.336-.952-.336-.271 0-.509.042-.714.126a1.697 1.697 0 00-.546.322 2.76 2.76 0 00-.434.49 6.186 6.186 0 00-.364.588V105h-1.232v-5.082c0-.467-.117-.789-.35-.966-.233-.177-.551-.266-.952-.266-.261 0-.495.033-.7.098a1.973 1.973 0 00-.56.28c-.159.121-.303.27-.434.448a4.106 4.106 0 00-.364.56V105zm11.757-8.33c-.252 0-.452-.075-.602-.224a.809.809 0 01-.224-.574c0-.224.075-.415.224-.574.15-.159.35-.238.602-.238.243 0 .434.08.574.238.14.159.21.35.21.574 0 .224-.07.415-.21.574-.14.15-.331.224-.574.224zm.602 1.064V105h-1.232v-7.266h1.232zm5.453.952c-.56 0-1.018.13-1.372.392a2.85 2.85 0 00-.84.98V105h-1.232v-7.266h1.162l.042 1.302h.028c.196-.42.504-.765.924-1.036.42-.27.952-.406 1.596-.406.718 0 1.288.191 1.708.574.429.373.644.952.644 1.736V105h-1.232v-4.97c0-.504-.126-.854-.378-1.05-.252-.196-.602-.294-1.05-.294z" fill="#18123D"/><rect x="10.5" y="80.5" width="139" height="39" rx="4.5" fill="#fff" stroke="#67B0F8"/><path d="M50.796 101.906h-.644V105H48.92V94.962h1.232v5.894h.7l2.548-3.122h1.4l-2.982 3.584L54.856 105h-1.498l-2.562-3.094zm11.271.35c0 .448-.084.854-.252 1.218a2.672 2.672 0 01-.7.91 3.233 3.233 0 01-1.05.56 4.22 4.22 0 01-1.316.196c-.494 0-.947-.061-1.358-.182a3.212 3.212 0 01-1.064-.56 2.72 2.72 0 01-.7-.896 2.78 2.78 0 01-.252-1.204c0-.653.168-1.199.504-1.638.346-.448.808-.78 1.386-.994a2.508 2.508 0 01-1.12-.854c-.27-.383-.406-.854-.406-1.414 0-.41.075-.775.224-1.092.16-.317.37-.583.63-.798.271-.224.588-.392.952-.504a4.172 4.172 0 011.204-.168c.42 0 .808.056 1.162.168.364.103.682.261.952.476.271.215.481.48.63.798.16.308.238.672.238 1.092 0 .57-.14 1.05-.42 1.442-.28.383-.648.667-1.106.854a2.82 2.82 0 011.344.952c.346.439.518.985.518 1.638zm-3.318-3.094c.504 0 .915-.14 1.232-.42.318-.29.476-.686.476-1.19 0-.504-.158-.896-.476-1.176-.317-.29-.728-.434-1.232-.434s-.919.145-1.246.434c-.326.28-.49.672-.49 1.176 0 .504.164.9.49 1.19.327.28.742.42 1.246.42zm0 4.872c.29 0 .556-.042.798-.126.252-.093.467-.219.644-.378.187-.168.332-.373.434-.616.103-.243.154-.518.154-.826 0-.308-.05-.583-.154-.826a1.586 1.586 0 00-.434-.602 1.706 1.706 0 00-.644-.378 2.212 2.212 0 00-.798-.14c-.298 0-.578.047-.84.14-.252.084-.47.21-.658.378a1.588 1.588 0 00-.434.602 2.105 2.105 0 00-.154.826c0 .308.052.583.154.826.103.243.248.448.434.616.187.159.406.285.658.378.262.084.542.126.84.126zm7.138 1.106a4.83 4.83 0 01-1.022-.098 4.8 4.8 0 01-.77-.21 4.19 4.19 0 01-.546-.28 3.693 3.693 0 01-.35-.266v-1.106c.093.093.219.196.378.308.158.103.35.201.574.294.224.093.476.173.756.238a5.1 5.1 0 00.966.084c.522 0 .938-.084 1.246-.252.308-.168.462-.453.462-.854 0-.215-.052-.387-.154-.518a.934.934 0 00-.392-.308 2.429 2.429 0 00-.588-.196 29.16 29.16 0 00-.686-.14 24.567 24.567 0 01-.91-.21 3.198 3.198 0 01-.812-.35 1.904 1.904 0 01-.588-.602c-.15-.252-.224-.579-.224-.98 0-.653.252-1.167.756-1.54.513-.373 1.227-.56 2.142-.56.513 0 .966.051 1.358.154.401.103.709.215.924.336v1.106a3.295 3.295 0 00-.91-.392c-.355-.112-.798-.168-1.33-.168-.551 0-.976.075-1.274.224-.29.15-.434.42-.434.812a.82.82 0 00.126.476c.084.112.196.205.336.28.149.065.317.117.504.154.186.037.382.079.588.126.317.065.644.135.98.21.336.075.634.191.896.35.27.159.49.373.658.644.177.261.266.616.266 1.064 0 .42-.084.77-.252 1.05a1.93 1.93 0 01-.672.672c-.271.159-.584.271-.938.336-.346.075-.7.112-1.064.112zm5.115-.056c-.27 0-.49-.084-.658-.252a.884.884 0 01-.252-.63c0-.261.084-.476.252-.644.168-.168.388-.252.658-.252.262 0 .476.084.644.252a.873.873 0 01.252.644.884.884 0 01-.252.63.872.872 0 01-.644.252zm6.934-1.47a4.288 4.288 0 01-.322.532 2.437 2.437 0 01-1.19.854c-.262.093-.57.14-.924.14-.653 0-1.18-.182-1.582-.546-.402-.373-.602-.905-.602-1.596 0-.793.275-1.377.826-1.75.56-.373 1.353-.56 2.38-.56h1.358v-.602c0-.504-.13-.863-.392-1.078-.261-.215-.71-.322-1.344-.322-.448 0-.873.075-1.274.224-.401.14-.76.303-1.078.49v-1.106a5.436 5.436 0 011.05-.462 4.374 4.374 0 011.47-.238c.915 0 1.61.191 2.086.574.476.373.714.957.714 1.75v4.2c.01.103.014.21.014.322.01.112.018.219.028.322.01.093.019.173.028.238h-1.12a6.439 6.439 0 01-.084-.546 8.366 8.366 0 01-.028-.63l-.014-.21zm-2.17.42c.382 0 .71-.079.98-.238.27-.159.49-.341.658-.546.168-.215.29-.42.364-.616.075-.205.112-.35.112-.434v-.532h-1.232c-.737 0-1.274.107-1.61.322-.327.205-.49.518-.49.938 0 .327.098.593.294.798.196.205.504.308.924.308zm10.491-.462a2.913 2.913 0 01-.938 1.148c-.401.28-.91.42-1.526.42-.439 0-.854-.075-1.246-.224a2.999 2.999 0 01-1.036-.7 3.504 3.504 0 01-.714-1.176c-.177-.476-.266-1.036-.266-1.68 0-.635.089-1.185.266-1.652.177-.476.415-.868.714-1.176.299-.317.644-.55 1.036-.7a3.395 3.395 0 011.26-.238c.55 0 1.027.117 1.428.35.401.224.723.546.966.966v-3.948h1.232V105h-1.078l-.098-1.428zm-2.282.462c.317 0 .611-.051.882-.154.27-.112.504-.28.7-.504a2.3 2.3 0 00.476-.84 3.46 3.46 0 00.182-1.176c0-.448-.06-.84-.182-1.176a2.3 2.3 0 00-.476-.84 1.738 1.738 0 00-.7-.49 2.284 2.284 0 00-.882-.168c-.644 0-1.171.229-1.582.686-.401.448-.602 1.111-.602 1.988 0 .887.205 1.554.616 2.002.41.448.933.672 1.568.672zm6.7.966h-1.231v-7.266h1.078l.125 1.302h.028c.197-.41.49-.751.883-1.022.391-.28.905-.42 1.54-.42.56 0 1.017.135 1.371.406.365.261.607.658.729 1.19.205-.495.518-.882.938-1.162.429-.29.947-.434 1.553-.434.673 0 1.205.191 1.597.574.391.373.588.952.588 1.736V105h-1.246v-4.942c0-.476-.117-.821-.35-1.036-.234-.224-.551-.336-.953-.336-.27 0-.508.042-.713.126a1.69 1.69 0 00-.546.322c-.16.14-.304.303-.434.49-.131.187-.253.383-.365.588V105h-1.231v-5.082c0-.467-.117-.789-.35-.966-.234-.177-.551-.266-.953-.266-.26 0-.494.033-.7.098a1.97 1.97 0 00-.56.28c-.158.121-.303.27-.433.448-.131.168-.253.355-.365.56V105zm11.758-8.33c-.252 0-.453-.075-.602-.224a.809.809 0 01-.224-.574c0-.224.075-.415.224-.574.149-.159.35-.238.602-.238.243 0 .434.08.574.238.14.159.21.35.21.574 0 .224-.07.415-.21.574-.14.15-.331.224-.574.224zm.602 1.064V105h-1.232v-7.266h1.232zm5.452.952c-.56 0-1.017.13-1.372.392a2.871 2.871 0 00-.84.98V105h-1.232v-7.266h1.162l.042 1.302h.028c.196-.42.504-.765.924-1.036.42-.27.952-.406 1.596-.406.719 0 1.288.191 1.708.574.429.373.644.952.644 1.736V105h-1.232v-4.97c0-.504-.126-.854-.378-1.05-.252-.196-.602-.294-1.05-.294z" fill="#18123D"/><rect x="180.5" y="150.5" width="139" height="39" rx="4.5" fill="#fff" stroke="#67B0F8"/><path d="M201.847 175h-1.988l-2.492-7.266h1.33l2.212 6.608 2.198-6.608h1.232L201.847 175zm7.288.14c-.56 0-1.046-.131-1.456-.392a2.84 2.84 0 01-.966-1.078v3.808h-1.232v-9.744h1.078l.126 1.414c.242-.476.569-.854.98-1.134.41-.28.919-.42 1.526-.42.42 0 .821.079 1.204.238.392.149.732.383 1.022.7.298.308.532.7.7 1.176.177.467.266 1.017.266 1.652 0 .644-.089 1.204-.266 1.68a3.526 3.526 0 01-.714 1.176 3.002 3.002 0 01-1.036.7 3.44 3.44 0 01-1.232.224zm-.182-1.106c.644 0 1.162-.219 1.554-.658.401-.448.602-1.12.602-2.016 0-.877-.201-1.54-.602-1.988-.392-.457-.91-.686-1.554-.686-.318 0-.616.056-.896.168a1.99 1.99 0 00-.714.504c-.196.215-.355.49-.476.826a3.723 3.723 0 00-.168 1.176c0 .448.056.84.168 1.176.121.336.28.616.476.84.205.224.443.392.714.504.28.103.578.154.896.154zm8.058 1.106c-.56 0-1.068-.084-1.526-.252a3.345 3.345 0 01-1.148-.742 3.277 3.277 0 01-.728-1.19c-.168-.467-.252-.999-.252-1.596 0-.588.084-1.115.252-1.582.178-.467.425-.859.742-1.176a3.073 3.073 0 011.162-.742 4.284 4.284 0 011.554-.266c.448 0 .859.051 1.232.154.374.093.682.233.924.42v1.106a3.243 3.243 0 00-1.008-.434 4.145 4.145 0 00-1.134-.154c-.849 0-1.474.219-1.876.658-.392.439-.588 1.111-.588 2.016s.192 1.577.574 2.016c.383.439.99.658 1.82.658.439 0 .84-.051 1.204-.154.374-.112.71-.252 1.008-.42v1.106a4.29 4.29 0 01-2.212.574zm4.386-.056c-.271 0-.49-.084-.658-.252a.884.884 0 01-.252-.63c0-.261.084-.476.252-.644.168-.168.387-.252.658-.252.261 0 .476.084.644.252a.873.873 0 01.252.644.884.884 0 01-.252.63.873.873 0 01-.644.252zm6.331.056c-.56 0-1.045-.131-1.456-.392a2.856 2.856 0 01-.966-1.078v3.808h-1.232v-9.744h1.078l.126 1.414c.243-.476.57-.854.98-1.134.411-.28.92-.42 1.526-.42.42 0 .822.079 1.204.238.392.149.733.383 1.022.7.299.308.532.7.7 1.176.178.467.266 1.017.266 1.652 0 .644-.088 1.204-.266 1.68a3.494 3.494 0 01-.714 1.176 2.992 2.992 0 01-1.036.7 3.436 3.436 0 01-1.232.224zm-.182-1.106c.644 0 1.162-.219 1.554-.658.402-.448.602-1.12.602-2.016 0-.877-.2-1.54-.602-1.988-.392-.457-.91-.686-1.554-.686-.317 0-.616.056-.896.168-.27.112-.508.28-.714.504a2.45 2.45 0 00-.476.826 3.723 3.723 0 00-.168 1.176c0 .448.056.84.168 1.176.122.336.28.616.476.84.206.224.444.392.714.504.28.103.579.154.896.154zm9.585-.336a2.6 2.6 0 01-.91 1.036c-.401.271-.929.406-1.582.406-.672 0-1.218-.187-1.638-.56-.411-.383-.616-.971-.616-1.764v-5.082h1.246v5.082c0 .243.033.443.098.602a1.041 1.041 0 00.714.56c.168.037.35.056.546.056.541 0 .975-.121 1.302-.364.327-.243.607-.574.84-.994v-4.942h1.232V175h-1.092l-.112-1.302h-.028zm10.156-2.338c0 .644-.089 1.204-.266 1.68a3.494 3.494 0 01-.714 1.176 3.002 3.002 0 01-1.036.7 3.44 3.44 0 01-1.232.224c-.56 0-1.05-.131-1.47-.392a2.872 2.872 0 01-.98-1.12l-.042 1.372h-1.162v-10.038h1.232l-.028 4.186a2.98 2.98 0 01.98-1.134c.411-.28.919-.42 1.526-.42.42 0 .821.079 1.204.238.392.149.733.383 1.022.7.299.308.532.7.7 1.176.177.467.266 1.017.266 1.652zm-3.43 2.674c.644 0 1.162-.219 1.554-.658.401-.448.602-1.12.602-2.016 0-.877-.201-1.54-.602-1.988-.392-.457-.91-.686-1.554-.686-.317 0-.616.056-.896.168a1.99 1.99 0 00-.714.504c-.196.215-.355.49-.476.826a3.723 3.723 0 00-.168 1.176c0 .448.056.84.168 1.176.121.336.28.616.476.84.205.224.443.392.714.504.28.103.579.154.896.154zm6.154-9.072V175h-1.232v-10.038h1.232zm2.639 1.708c-.252 0-.453-.075-.602-.224a.805.805 0 01-.224-.574c0-.224.074-.415.224-.574.149-.159.35-.238.602-.238.242 0 .434.079.574.238.14.159.21.35.21.574 0 .224-.07.415-.21.574-.14.149-.332.224-.574.224zm.602 1.064V175h-1.232v-7.266h1.232zm5.144 7.406c-.56 0-1.069-.084-1.526-.252a3.335 3.335 0 01-1.148-.742 3.277 3.277 0 01-.728-1.19c-.168-.467-.252-.999-.252-1.596 0-.588.084-1.115.252-1.582.177-.467.425-.859.742-1.176a3.065 3.065 0 011.162-.742 4.277 4.277 0 011.554-.266c.448 0 .859.051 1.232.154.373.093.681.233.924.42v1.106a3.263 3.263 0 00-1.008-.434 4.145 4.145 0 00-1.134-.154c-.849 0-1.475.219-1.876.658-.392.439-.588 1.111-.588 2.016s.191 1.577.574 2.016c.383.439.989.658 1.82.658.439 0 .84-.051 1.204-.154a4.969 4.969 0 001.008-.42v1.106a4.29 4.29 0 01-2.212.574zm6.556-10.178h1.96L270.51 175h-1.4l-1.036-2.87h-4.438l-1.022 2.87h-1.232l3.57-10.038zm2.702 5.978l-1.792-4.998-1.792 4.998h3.584zm9.289 2.632a2.916 2.916 0 01-.938 1.148c-.402.28-.91.42-1.526.42-.439 0-.854-.075-1.246-.224a2.992 2.992 0 01-1.036-.7 3.494 3.494 0 01-.714-1.176c-.178-.476-.266-1.036-.266-1.68 0-.635.088-1.185.266-1.652.177-.476.415-.868.714-1.176a2.752 2.752 0 011.036-.7 3.387 3.387 0 011.26-.238c.55 0 1.026.117 1.428.35.401.224.723.546.966.966v-3.948h1.232V175h-1.078l-.098-1.428zm-2.282.462c.317 0 .611-.051.882-.154.27-.112.504-.28.7-.504.205-.224.364-.504.476-.84.121-.336.182-.728.182-1.176 0-.448-.061-.84-.182-1.176a2.305 2.305 0 00-.476-.84 1.746 1.746 0 00-.7-.49 2.287 2.287 0 00-.882-.168c-.644 0-1.172.229-1.582.686-.402.448-.602 1.111-.602 1.988 0 .887.205 1.554.616 2.002.41.448.933.672 1.568.672zm6.7.966h-1.232v-7.266h1.078l.126 1.302h.028c.196-.411.49-.751.882-1.022.392-.28.905-.42 1.54-.42.56 0 1.017.135 1.372.406.364.261.607.658.728 1.19.205-.495.518-.882.938-1.162.429-.289.947-.434 1.554-.434.672 0 1.204.191 1.596.574.392.373.588.952.588 1.736V175h-1.246v-4.942c0-.476-.117-.821-.35-1.036-.233-.224-.551-.336-.952-.336-.271 0-.509.042-.714.126a1.703 1.703 0 00-.546.322c-.159.14-.303.303-.434.49a6.225 6.225 0 00-.364.588V175h-1.232v-5.082c0-.467-.117-.789-.35-.966-.233-.177-.551-.266-.952-.266-.261 0-.495.033-.7.098a1.973 1.973 0 00-.56.28 2.205 2.205 0 00-.434.448 4.124 4.124 0 00-.364.56V175zm11.757-8.33c-.252 0-.452-.075-.602-.224a.81.81 0 01-.224-.574.81.81 0 01.224-.574c.15-.159.35-.238.602-.238.243 0 .434.079.574.238.14.159.21.35.21.574 0 .224-.07.415-.21.574-.14.149-.331.224-.574.224zm.602 1.064V175h-1.232v-7.266h1.232zm5.453.952c-.56 0-1.018.131-1.372.392a2.853 2.853 0 00-.84.98V175h-1.232v-7.266h1.162l.042 1.302h.028a2.46 2.46 0 01.924-1.036c.42-.271.952-.406 1.596-.406.718 0 1.288.191 1.708.574.429.373.644.952.644 1.736V175h-1.232v-4.97c0-.504-.126-.854-.378-1.05-.252-.196-.602-.294-1.05-.294z" fill="#18123D"/><rect x="10.5" y="150.5" width="139" height="39" rx="4.5" fill="#fff" stroke="#67B0F8"/><path d="M51.992 171.906h-.644V175h-1.232v-10.038h1.232v5.894h.7l2.548-3.122h1.4l-2.982 3.584L56.052 175h-1.498l-2.562-3.094zm11.272.35c0 .448-.084.854-.252 1.218a2.672 2.672 0 01-.7.91 3.235 3.235 0 01-1.05.56 4.22 4.22 0 01-1.316.196c-.495 0-.948-.061-1.358-.182a3.211 3.211 0 01-1.064-.56 2.72 2.72 0 01-.7-.896 2.78 2.78 0 01-.252-1.204c0-.653.168-1.199.504-1.638.345-.448.807-.779 1.386-.994a2.507 2.507 0 01-1.12-.854c-.271-.383-.406-.854-.406-1.414 0-.411.074-.775.224-1.092.158-.317.368-.583.63-.798.27-.224.588-.392.952-.504a4.171 4.171 0 011.204-.168c.42 0 .807.056 1.162.168.364.103.681.261.952.476.27.215.48.481.63.798.158.308.238.672.238 1.092 0 .569-.14 1.05-.42 1.442a2.52 2.52 0 01-1.106.854 2.82 2.82 0 011.344.952c.345.439.518.985.518 1.638zm-3.318-3.094c.504 0 .914-.14 1.232-.42.317-.289.476-.686.476-1.19 0-.504-.159-.896-.476-1.176-.318-.289-.728-.434-1.232-.434s-.92.145-1.246.434c-.327.28-.49.672-.49 1.176 0 .504.163.901.49 1.19.326.28.742.42 1.246.42zm0 4.872c.289 0 .555-.042.798-.126.252-.093.466-.219.644-.378.186-.168.331-.373.434-.616.102-.243.154-.518.154-.826 0-.308-.052-.583-.154-.826a1.587 1.587 0 00-.434-.602 1.706 1.706 0 00-.644-.378 2.213 2.213 0 00-.798-.14c-.299 0-.579.047-.84.14-.252.084-.472.21-.658.378a1.587 1.587 0 00-.434.602 2.103 2.103 0 00-.154.826c0 .308.051.583.154.826.102.243.247.448.434.616.186.159.406.285.658.378.261.084.541.126.84.126zm7.137 1.106a4.83 4.83 0 01-1.022-.098 4.797 4.797 0 01-.77-.21 4.19 4.19 0 01-.546-.28 3.68 3.68 0 01-.35-.266v-1.106c.093.093.22.196.378.308.159.103.35.201.574.294.224.093.476.173.756.238a5.1 5.1 0 00.966.084c.523 0 .938-.084 1.246-.252.308-.168.462-.453.462-.854 0-.215-.051-.387-.154-.518a.935.935 0 00-.392-.308 2.429 2.429 0 00-.588-.196 29.265 29.265 0 00-.686-.14 24.52 24.52 0 01-.91-.21 3.196 3.196 0 01-.812-.35 1.904 1.904 0 01-.588-.602c-.15-.252-.224-.579-.224-.98 0-.653.252-1.167.756-1.54.513-.373 1.227-.56 2.142-.56.513 0 .966.051 1.358.154.401.103.71.215.924.336v1.106a3.295 3.295 0 00-.91-.392c-.355-.112-.798-.168-1.33-.168-.55 0-.975.075-1.274.224-.29.149-.434.42-.434.812a.82.82 0 00.126.476c.084.112.196.205.336.28.15.065.317.117.504.154.187.037.383.079.588.126.317.065.644.135.98.21.336.075.635.191.896.35.27.159.49.373.658.644.177.261.266.616.266 1.064 0 .42-.084.77-.252 1.05a1.93 1.93 0 01-.672.672c-.27.159-.583.271-.938.336a5 5 0 01-1.064.112zm5.116-.056c-.271 0-.49-.084-.658-.252a.884.884 0 01-.252-.63c0-.261.084-.476.252-.644.168-.168.387-.252.658-.252.26 0 .476.084.644.252a.873.873 0 01.252.644.884.884 0 01-.252.63.872.872 0 01-.644.252zm8.186-.7a3.822 3.822 0 01-.378.238 4.38 4.38 0 01-.546.252 4.601 4.601 0 01-.728.182c-.27.056-.574.084-.91.084-1.223 0-2.152-.331-2.786-.994-.635-.663-.952-1.591-.952-2.786 0-.588.084-1.115.252-1.582.177-.467.42-.859.728-1.176a3.024 3.024 0 011.092-.742c.42-.177.877-.266 1.372-.266.522 0 .99.089 1.4.266.41.177.746.439 1.008.784.27.345.452.775.546 1.288.102.504.102 1.092 0 1.764h-5.124c.046.784.28 1.372.7 1.764.42.383 1.045.574 1.876.574.56 0 1.04-.079 1.442-.238a5.048 5.048 0 001.008-.518v1.106zm-2.884-5.698c-.532 0-.99.163-1.372.49-.383.327-.626.821-.728 1.484h3.906c.037-.672-.117-1.167-.462-1.484-.346-.327-.794-.49-1.344-.49zm9.734 4.886a2.913 2.913 0 01-.938 1.148c-.402.28-.91.42-1.526.42-.44 0-.854-.075-1.246-.224a2.998 2.998 0 01-1.036-.7 3.504 3.504 0 01-.714-1.176c-.178-.476-.266-1.036-.266-1.68 0-.635.088-1.185.266-1.652.177-.476.415-.868.714-1.176a2.757 2.757 0 011.036-.7 3.39 3.39 0 011.26-.238c.55 0 1.026.117 1.428.35.4.224.723.546.966.966v-3.948h1.232V175h-1.078l-.098-1.428zm-2.282.462c.317 0 .61-.051.882-.154.27-.112.504-.28.7-.504a2.3 2.3 0 00.476-.84 3.46 3.46 0 00.182-1.176c0-.448-.061-.84-.182-1.176a2.3 2.3 0 00-.476-.84 1.741 1.741 0 00-.7-.49 2.284 2.284 0 00-.882-.168c-.644 0-1.172.229-1.582.686-.402.448-.602 1.111-.602 1.988 0 .887.205 1.554.616 2.002.41.448.933.672 1.568.672zm6.098-7.364c-.252 0-.453-.075-.602-.224a.808.808 0 01-.224-.574c0-.224.075-.415.224-.574.15-.159.35-.238.602-.238.243 0 .434.079.574.238.14.159.21.35.21.574 0 .224-.07.415-.21.574-.14.149-.331.224-.574.224zm.602 1.064V175h-1.232v-7.266h1.232zm5.564 7.112a2.25 2.25 0 01-.574.21 3.17 3.17 0 01-.742.084c-.354 0-.658-.051-.91-.154a1.76 1.76 0 01-.602-.406 1.722 1.722 0 01-.35-.588 2.44 2.44 0 01-.098-.686v-4.522h-.868v-1.05h.868v-1.526h1.232v1.526h2.114v1.05h-2.114v4.368c0 .308.075.532.224.672.159.14.434.21.826.21.364 0 .696-.103.994-.308v1.12zm4.553.294c-.494 0-.956-.084-1.386-.252a3.234 3.234 0 01-1.12-.728 3.547 3.547 0 01-.728-1.19c-.177-.467-.266-1.003-.266-1.61 0-.597.089-1.129.266-1.596.178-.476.42-.873.728-1.19.318-.317.69-.56 1.12-.728.43-.168.892-.252 1.386-.252.504 0 .971.084 1.4.252.43.168.798.411 1.106.728.318.317.565.714.742 1.19.187.467.28.999.28 1.596 0 .607-.093 1.143-.28 1.61a3.418 3.418 0 01-.742 1.19c-.308.317-.676.56-1.106.728a3.807 3.807 0 01-1.4.252zm0-1.106c.327 0 .626-.051.896-.154a2.04 2.04 0 00.728-.49 2.29 2.29 0 00.476-.84c.112-.336.168-.733.168-1.19 0-.457-.056-.854-.168-1.19a2.158 2.158 0 00-.476-.826 1.831 1.831 0 00-.728-.49 2.318 2.318 0 00-.896-.168c-.326 0-.625.056-.896.168-.27.103-.508.266-.714.49-.196.215-.35.49-.462.826a3.775 3.775 0 00-.168 1.19c0 .457.056.854.168 1.19.112.336.266.616.462.84.206.215.444.378.714.49.271.103.57.154.896.154zm8.628-5.068a3.784 3.784 0 00-1.428.406c-.42.215-.733.551-.938 1.008V175H106.8v-7.266h1.078l.126 1.582h.028c.205-.429.499-.803.882-1.12.392-.327.887-.527 1.484-.602v1.372z" fill="#18123D"/><path d="M80 190.015l-2.887 5h5.774l-2.887-5zM80.5 220V194.516h-1V220h1z" fill="#18123D" fill-opacity=".7"/><rect x="10.5" y="220.5" width="139" height="39" rx="4.5" fill="#fff" stroke="#67B0F8"/><path d="M50.208 241.906h-.644V245h-1.232v-10.038h1.232v5.894h.7l2.548-3.122h1.4l-2.982 3.584L54.268 245H52.77l-2.562-3.094zm11.272.35c0 .448-.084.854-.252 1.218a2.672 2.672 0 01-.7.91 3.233 3.233 0 01-1.05.56 4.22 4.22 0 01-1.317.196c-.494 0-.947-.061-1.358-.182a3.212 3.212 0 01-1.063-.56 2.72 2.72 0 01-.7-.896 2.78 2.78 0 01-.252-1.204c0-.653.168-1.199.504-1.638.345-.448.807-.779 1.386-.994a2.508 2.508 0 01-1.12-.854c-.271-.383-.407-.854-.407-1.414 0-.411.075-.775.224-1.092.16-.317.37-.583.63-.798.271-.224.588-.392.953-.504a4.172 4.172 0 011.203-.168c.42 0 .808.056 1.163.168.364.103.68.261.952.476.27.215.48.481.63.798.158.308.238.672.238 1.092 0 .569-.14 1.05-.42 1.442-.28.383-.65.667-1.106.854a2.82 2.82 0 011.343.952c.346.439.519.985.519 1.638zm-3.319-3.094c.505 0 .915-.14 1.233-.42.317-.289.476-.686.476-1.19 0-.504-.16-.896-.476-1.176-.318-.289-.728-.434-1.233-.434-.504 0-.919.145-1.245.434-.327.28-.49.672-.49 1.176 0 .504.163.901.49 1.19.326.28.742.42 1.245.42zm0 4.872c.29 0 .556-.042.798-.126.252-.093.467-.219.644-.378.187-.168.332-.373.434-.616.103-.243.154-.518.154-.826 0-.308-.05-.583-.154-.826a1.586 1.586 0 00-.434-.602 1.706 1.706 0 00-.644-.378 2.212 2.212 0 00-.798-.14c-.298 0-.578.047-.84.14-.252.084-.47.21-.657.378a1.588 1.588 0 00-.434.602 2.105 2.105 0 00-.154.826c0 .308.05.583.154.826.102.243.247.448.434.616.186.159.405.285.657.378.262.084.542.126.84.126zm7.138 1.106a4.83 4.83 0 01-1.022-.098 4.8 4.8 0 01-.77-.21 4.19 4.19 0 01-.546-.28 3.693 3.693 0 01-.35-.266v-1.106c.093.093.22.196.378.308.159.103.35.201.574.294.224.093.476.173.756.238a5.1 5.1 0 00.966.084c.523 0 .938-.084 1.246-.252.308-.168.462-.453.462-.854 0-.215-.051-.387-.154-.518a.934.934 0 00-.392-.308 2.429 2.429 0 00-.588-.196 29.16 29.16 0 00-.686-.14 24.567 24.567 0 01-.91-.21 3.198 3.198 0 01-.812-.35 1.904 1.904 0 01-.588-.602c-.15-.252-.224-.579-.224-.98 0-.653.252-1.167.756-1.54.513-.373 1.227-.56 2.142-.56.513 0 .966.051 1.358.154.401.103.71.215.924.336v1.106a3.295 3.295 0 00-.91-.392c-.355-.112-.798-.168-1.33-.168-.55 0-.975.075-1.274.224-.29.149-.434.42-.434.812a.82.82 0 00.126.476c.084.112.196.205.336.28.15.065.317.117.504.154.186.037.382.079.588.126.317.065.644.135.98.21.336.075.635.191.896.35.27.159.49.373.658.644.177.261.266.616.266 1.064 0 .42-.084.77-.252 1.05a1.93 1.93 0 01-.672.672c-.27.159-.584.271-.938.336-.346.075-.7.112-1.064.112zm5.115-.056c-.27 0-.49-.084-.658-.252a.884.884 0 01-.252-.63c0-.261.084-.476.252-.644.168-.168.388-.252.658-.252.262 0 .476.084.644.252a.873.873 0 01.252.644.884.884 0 01-.252.63.872.872 0 01-.644.252zm5.524-.084H73.95l-2.492-7.266h1.33L75 244.342l2.198-6.608h1.232L75.938 245zm4.264-8.33c-.251 0-.452-.075-.602-.224a.808.808 0 01-.224-.574c0-.224.075-.415.224-.574.15-.159.35-.238.603-.238.242 0 .433.079.573.238.14.159.21.35.21.574 0 .224-.07.415-.21.574-.14.149-.33.224-.573.224zm.603 1.064V245h-1.233v-7.266h1.233zm7.79 6.65a3.846 3.846 0 01-.378.238 4.38 4.38 0 01-.546.252 4.604 4.604 0 01-.728.182c-.271.056-.574.084-.91.084-1.223 0-2.152-.331-2.786-.994-.635-.663-.952-1.591-.952-2.786 0-.588.084-1.115.252-1.582.177-.467.42-.859.728-1.176a3.024 3.024 0 011.092-.742c.42-.177.877-.266 1.372-.266.522 0 .989.089 1.4.266.41.177.746.439 1.008.784.27.345.452.775.546 1.288.102.504.102 1.092 0 1.764h-5.124c.046.784.28 1.372.7 1.764.42.383 1.045.574 1.876.574.56 0 1.04-.079 1.442-.238a5.053 5.053 0 001.008-.518v1.106zm-2.884-5.698c-.532 0-.99.163-1.372.49-.383.327-.626.821-.728 1.484h3.906c.037-.672-.117-1.167-.462-1.484-.346-.327-.794-.49-1.344-.49zM98.147 245h-1.89l-1.54-5.614L93.135 245H91.3l-1.651-7.266h1.302l1.386 6.342 1.763-6.342h1.387l1.722 6.272 1.371-6.272H99.8L98.145 245zm8.795-.616a3.685 3.685 0 01-.378.238 4.34 4.34 0 01-.546.252 4.576 4.576 0 01-.728.182c-.27.056-.574.084-.91.084-1.222 0-2.151-.331-2.786-.994-.634-.663-.952-1.591-.952-2.786 0-.588.084-1.115.252-1.582.178-.467.42-.859.728-1.176a3.024 3.024 0 011.092-.742 3.5 3.5 0 011.372-.266c.523 0 .99.089 1.4.266.411.177.747.439 1.008.784.271.345.453.775.546 1.288.103.504.103 1.092 0 1.764h-5.124c.047.784.28 1.372.7 1.764.42.383 1.046.574 1.876.574.56 0 1.041-.079 1.442-.238a5.015 5.015 0 001.008-.518v1.106zm-2.884-5.698c-.532 0-.989.163-1.372.49-.382.327-.625.821-.728 1.484h3.906c.038-.672-.116-1.167-.462-1.484-.345-.327-.793-.49-1.344-.49zm8.124.28a3.795 3.795 0 00-1.428.406c-.42.215-.732.551-.938 1.008V245h-1.232v-7.266h1.078l.126 1.582h.028c.206-.429.5-.803.882-1.12.392-.327.887-.527 1.484-.602v1.372z" fill="#18123D"/></svg>