<svg width="1000" height="188" viewBox="0 0 1000 188" fill="none" xmlns="http://www.w3.org/2000/svg">
<g clip-path="url(#clip0_18_148)">
<rect width="1000" height="188" rx="18.622" fill="white"/>
<rect x="22.3464" y="22.3464" width="210.428" height="108.007" rx="18.622" fill="#EEF3FE"/>
<path d="M82.4009 69.6406C81.3283 69.6406 80.3227 69.4618 79.3841 69.1043C78.4456 68.7318 77.6337 68.1955 76.9484 67.4953C76.2631 66.7952 75.7193 65.9311 75.3171 64.9032C74.9297 63.8752 74.7361 62.6909 74.7361 61.3501C74.7361 60.0093 74.9297 58.8324 75.3171 57.8194C75.7193 56.7914 76.2631 55.9423 76.9484 55.2719C77.6337 54.5866 78.4456 54.0726 79.3841 53.73C80.3227 53.3724 81.3283 53.1937 82.4009 53.1937C83.4884 53.1937 84.5014 53.3724 85.44 53.73C86.3785 54.0726 87.1905 54.5866 87.8757 55.2719C88.561 55.9572 89.0973 56.8138 89.4847 57.8417C89.872 58.8547 90.0657 60.0317 90.0657 61.3724C90.0657 62.6983 89.872 63.8752 89.4847 64.9032C89.0973 65.9311 88.561 66.7952 87.8757 67.4953C87.1905 68.1955 86.3785 68.7318 85.44 69.1043C84.5014 69.4618 83.4884 69.6406 82.4009 69.6406ZM82.4009 67.7412C83.1756 67.7412 83.8906 67.6294 84.5461 67.406C85.2016 67.1676 85.7677 66.8026 86.2445 66.311C86.7361 65.8045 87.116 65.149 87.3841 64.3445C87.6672 63.54 87.8087 62.5642 87.8087 61.4171C87.8087 60.27 87.6672 59.2942 87.3841 58.4898C87.116 57.6853 86.7361 57.0372 86.2445 56.5456C85.7677 56.0391 85.2016 55.6741 84.5461 55.4507C83.8906 55.2123 83.1756 55.0931 82.4009 55.0931C81.6262 55.0931 80.9111 55.2123 80.2556 55.4507C79.6001 55.6741 79.0266 56.0391 78.535 56.5456C78.0582 57.0372 77.6784 57.6853 77.3953 58.4898C77.1271 59.2942 76.9931 60.27 76.9931 61.4171C76.9931 62.5642 77.1271 63.54 77.3953 64.3445C77.6784 65.149 78.0582 65.8045 78.535 66.311C79.0266 66.8026 79.6001 67.1676 80.2556 67.406C80.9111 67.6294 81.6262 67.7412 82.4009 67.7412ZM103.061 63.6071C103.061 64.5754 102.912 65.432 102.614 66.1769C102.331 66.9218 101.936 67.5549 101.43 68.0763C100.938 68.5829 100.349 68.9702 99.6641 69.2384C98.9789 69.5065 98.234 69.6406 97.4295 69.6406C96.6101 69.6406 95.8578 69.5065 95.1725 69.2384C94.4872 68.9553 93.8988 68.5307 93.4072 67.9646C92.9155 67.3985 92.5282 66.6834 92.2452 65.8194C91.977 64.9553 91.8429 63.9348 91.8429 62.7579C91.8429 61.7896 91.8727 60.8659 91.9323 59.987C91.9919 59.108 92.126 58.2961 92.3345 57.5512C92.5431 56.7914 92.8411 56.1136 93.2284 55.5177C93.6306 54.9069 94.1669 54.4004 94.8373 53.9981C95.2098 53.7747 95.5971 53.6108 95.9993 53.5065C96.4016 53.3873 96.8038 53.2979 97.206 53.2384C97.6232 53.1788 98.0403 53.1415 98.4574 53.1266C98.8746 53.1117 99.2843 53.0968 99.6865 53.0819C100.282 53.0372 100.781 52.9628 101.184 52.8585C101.586 52.7542 101.943 52.6127 102.256 52.4339V54.2216C101.929 54.4302 101.578 54.5791 101.206 54.6685C100.849 54.743 100.409 54.8101 99.8876 54.8696C99.0385 54.9441 98.2563 55.0037 97.5412 55.0484C96.8411 55.0782 96.2005 55.2421 95.6195 55.54C94.8746 55.9572 94.3457 56.5829 94.0329 57.4171C93.7349 58.2365 93.5487 59.2123 93.4742 60.3445C94.2489 58.5568 95.7088 57.6629 97.8541 57.6629C98.5841 57.6629 99.2619 57.797 99.8876 58.0652C100.528 58.3184 101.079 58.6983 101.541 59.2048C102.018 59.7114 102.39 60.3371 102.659 61.0819C102.927 61.8119 103.061 62.6536 103.061 63.6071ZM97.4295 67.8752C97.9509 67.8752 98.4277 67.7933 98.8597 67.6294C99.3066 67.4506 99.6939 67.1899 100.022 66.8473C100.349 66.4898 100.603 66.0428 100.781 65.5065C100.96 64.9702 101.05 64.3371 101.05 63.6071C101.05 62.8771 100.96 62.2439 100.781 61.7076C100.603 61.1713 100.349 60.7318 100.022 60.3892C99.6939 60.0317 99.3066 59.7709 98.8597 59.6071C98.4277 59.4283 97.9509 59.3389 97.4295 59.3389C96.4016 59.3389 95.545 59.6816 94.8597 60.3669C94.1893 61.0521 93.8541 62.1099 93.8541 63.54C93.8541 64.2849 93.9435 64.933 94.1223 65.4842C94.301 66.0205 94.5468 66.4674 94.8597 66.825C95.1874 67.1825 95.5673 67.4506 95.9993 67.6294C96.4314 67.7933 96.9081 67.8752 97.4295 67.8752ZM106.088 65.8194C106.297 65.0596 106.431 64.0317 106.49 62.7356C106.55 61.4395 106.58 59.8007 106.58 57.8194H114.379V69.4171H112.39V59.4953H108.435C108.42 61.0894 108.368 62.5047 108.278 63.7412C108.204 64.9777 108.032 66.0205 107.764 66.8696C107.511 67.7188 107.131 68.3669 106.625 68.8138C106.133 69.2458 105.47 69.4618 104.636 69.4618C104.576 69.4618 104.517 69.4618 104.457 69.4618C104.397 69.4618 104.33 69.4544 104.256 69.4395V67.4953C104.33 67.5102 104.427 67.5177 104.546 67.5177C105.306 67.5177 105.82 66.9516 106.088 65.8194ZM124.361 67.2048C124.227 67.473 124.056 67.756 123.847 68.054C123.639 68.3371 123.378 68.5978 123.065 68.8361C122.752 69.0745 122.38 69.2682 121.948 69.4171C121.531 69.5661 121.039 69.6406 120.473 69.6406C119.43 69.6406 118.588 69.3501 117.948 68.7691C117.307 68.1732 116.987 67.324 116.987 66.2216C116.987 64.9553 117.426 64.0242 118.305 63.4283C119.199 62.8324 120.465 62.5344 122.104 62.5344H124.272V61.5736C124.272 60.7691 124.063 60.1955 123.646 59.8529C123.229 59.5102 122.514 59.3389 121.501 59.3389C120.786 59.3389 120.108 59.4581 119.467 59.6965C118.827 59.9199 118.253 60.1806 117.747 60.4786V58.7132C118.164 58.46 118.722 58.2142 119.423 57.9758C120.138 57.7225 120.92 57.5959 121.769 57.5959C123.229 57.5959 124.339 57.9013 125.099 58.5121C125.858 59.108 126.238 60.0391 126.238 61.3054V67.54C126.238 67.6741 126.238 67.8305 126.238 68.0093C126.253 68.1732 126.261 68.3445 126.261 68.5233C126.275 68.702 126.29 68.8734 126.305 69.0372C126.32 69.1862 126.335 69.3128 126.35 69.4171H124.562C124.517 69.2086 124.473 68.9181 124.428 68.5456C124.398 68.1583 124.383 67.8231 124.383 67.54L124.361 67.2048ZM120.897 67.8752C121.508 67.8752 122.03 67.7486 122.462 67.4953C122.894 67.2421 123.244 66.9516 123.512 66.6238C123.78 66.2812 123.974 65.9534 124.093 65.6406C124.212 65.3128 124.272 65.0819 124.272 64.9479V64.0987H122.305C121.128 64.0987 120.272 64.27 119.735 64.6127C119.214 64.9404 118.953 65.4395 118.953 66.1099C118.953 66.6313 119.11 67.0559 119.423 67.3836C119.735 67.7114 120.227 67.8752 120.897 67.8752ZM137.986 69.4171H136.02V64.3222C135.617 64.635 135.148 64.8808 134.612 65.0596C134.09 65.2235 133.494 65.3054 132.824 65.3054C131.513 65.3054 130.507 64.9851 129.807 64.3445C129.122 63.689 128.779 62.6462 128.779 61.216V57.8194H130.768V61.2384C130.768 62.1471 130.977 62.7803 131.394 63.1378C131.811 63.4953 132.399 63.6741 133.159 63.6741C133.681 63.6741 134.187 63.5996 134.679 63.4506C135.17 63.3017 135.617 63.0708 136.02 62.7579V57.8194H137.986V69.4171ZM148.777 64.2775H143.168V69.4171H141.202V57.8194H143.168V62.6015H148.777V57.8194H150.744V69.4171H148.777V64.2775ZM162.549 65.5512C162.549 66.2216 162.43 66.8026 162.191 67.2942C161.953 67.7858 161.618 68.1881 161.186 68.5009C160.754 68.8138 160.24 69.0447 159.644 69.1937C159.048 69.3426 158.4 69.4171 157.7 69.4171H153.968V57.8194H155.934V61.8641H157.834C159.309 61.8641 160.463 62.1546 161.298 62.7356C162.132 63.3166 162.549 64.2551 162.549 65.5512ZM166.191 69.4171H164.225V57.8194H166.191V69.4171ZM155.934 63.54V67.7412H157.7C158.549 67.7412 159.234 67.5847 159.756 67.2719C160.292 66.9441 160.56 66.4078 160.56 65.6629C160.56 64.9032 160.322 64.3594 159.845 64.0317C159.368 63.7039 158.698 63.54 157.834 63.54H155.934ZM178.647 68.4339C178.484 68.5531 178.282 68.6797 178.044 68.8138C177.806 68.9479 177.515 69.0819 177.173 69.216C176.83 69.3352 176.443 69.432 176.011 69.5065C175.578 69.5959 175.094 69.6406 174.558 69.6406C172.606 69.6406 171.124 69.1117 170.111 68.054C169.098 66.9963 168.592 65.514 168.592 63.6071C168.592 62.6685 168.726 61.8268 168.994 61.0819C169.277 60.3371 169.664 59.7114 170.156 59.2048C170.647 58.6834 171.228 58.2886 171.899 58.0205C172.569 57.7374 173.299 57.5959 174.089 57.5959C174.923 57.5959 175.668 57.7374 176.323 58.0205C176.979 58.3035 177.515 58.7207 177.932 59.2719C178.364 59.8231 178.655 60.5084 178.804 61.3277C178.968 62.1322 178.968 63.0708 178.804 64.1434H170.625C170.7 65.3948 171.072 66.3333 171.742 66.959C172.413 67.5698 173.411 67.8752 174.737 67.8752C175.631 67.8752 176.398 67.7486 177.038 67.4953C177.679 67.2421 178.215 66.9665 178.647 66.6685V68.4339ZM174.044 59.3389C173.195 59.3389 172.465 59.5996 171.854 60.121C171.243 60.6425 170.856 61.432 170.692 62.4898H176.927C176.986 61.4171 176.74 60.6276 176.189 60.121C175.638 59.5996 174.923 59.3389 174.044 59.3389ZM58.4131 93.2048C58.279 93.473 58.1077 93.756 57.8991 94.054C57.6906 94.3371 57.4299 94.5978 57.117 94.8361C56.8042 95.0745 56.4317 95.2682 55.9997 95.4171C55.5826 95.5661 55.0909 95.6406 54.5248 95.6406C53.482 95.6406 52.6403 95.3501 51.9997 94.7691C51.3591 94.1732 51.0388 93.324 51.0388 92.2216C51.0388 90.9553 51.4783 90.0242 52.3572 89.4283C53.2511 88.8324 54.5174 88.5344 56.1561 88.5344H58.3237V87.5736C58.3237 86.7691 58.1152 86.1955 57.698 85.8529C57.2809 85.5102 56.5658 85.3389 55.5528 85.3389C54.8377 85.3389 54.1598 85.4581 53.5193 85.6965C52.8787 85.9199 52.3051 86.1806 51.7986 86.4786V84.7132C52.2157 84.46 52.7744 84.2142 53.4746 83.9758C54.1896 83.7225 54.9718 83.5959 55.8209 83.5959C57.2809 83.5959 58.3908 83.9013 59.1505 84.5121C59.9103 85.108 60.2902 86.0391 60.2902 87.3054V93.54C60.2902 93.6741 60.2902 93.8305 60.2902 94.0093C60.3051 94.1732 60.3125 94.3445 60.3125 94.5233C60.3274 94.702 60.3423 94.8734 60.3572 95.0372C60.3721 95.1862 60.387 95.3128 60.4019 95.4171H58.6142C58.5695 95.2086 58.5248 94.9181 58.4801 94.5456C58.4503 94.1583 58.4355 93.8231 58.4355 93.54L58.4131 93.2048ZM54.9494 93.8752C55.5602 93.8752 56.0816 93.7486 56.5137 93.4953C56.9457 93.2421 57.2958 92.9516 57.5639 92.6238C57.8321 92.2812 58.0258 91.9534 58.1449 91.6406C58.2641 91.3128 58.3237 91.0819 58.3237 90.9479V90.0987H56.3572C55.1803 90.0987 54.3237 90.27 53.7874 90.6127C53.266 90.9404 53.0053 91.4395 53.0053 92.1099C53.0053 92.6313 53.1617 93.0559 53.4746 93.3836C53.7874 93.7114 54.279 93.8752 54.9494 93.8752ZM69.0805 95.2831C68.8124 95.9832 68.5293 96.594 68.2314 97.1155C67.9334 97.6518 67.5982 98.1061 67.2258 98.4786C66.8533 98.851 66.4362 99.1266 65.9744 99.3054C65.5126 99.4991 64.9837 99.5959 64.3878 99.5959C64.0898 99.5959 63.8142 99.5736 63.561 99.5289C63.3077 99.4991 63.0768 99.4395 62.8682 99.3501V97.4506C63.0321 97.5698 63.2407 97.6592 63.4939 97.7188C63.7472 97.7933 64.0228 97.8305 64.3208 97.8305C64.872 97.8305 65.3263 97.6965 65.6839 97.4283C66.0414 97.175 66.3841 96.7654 66.7118 96.1993L61.9967 83.8194H64.1643L67.8515 93.6071L71.5163 83.8194H73.4157L69.0805 95.2831ZM74.0606 93.7412C74.4778 93.4879 74.8055 93.0931 75.0439 92.5568C75.2822 92.0205 75.4684 91.3426 75.6025 90.5233C75.7366 89.7039 75.826 88.7356 75.8707 87.6182C75.9303 86.5009 75.9824 85.2346 76.0271 83.8194H84.0048V93.7412H85.7478V98.7244H84.0271L83.7813 95.4171H75.1556L74.9545 98.7244H73.1891V93.7412H74.0606ZM82.0383 93.7412V85.4953H77.7925C77.718 87.6853 77.5765 89.4432 77.3679 90.7691C77.1742 92.0801 76.8316 93.0708 76.34 93.7412H82.0383ZM89.7682 92.7356L95.9581 83.8194H97.947V95.4171H95.9805V86.5233L89.8129 95.4171H87.8017V83.8194H89.7682V92.7356ZM105.828 85.4953V95.4171H103.861V85.4953H100.219V83.8194H109.537V85.4953H105.828ZM119.382 90.2775H113.773V95.4171H111.807V83.8194H113.773V88.6015H119.382V83.8194H121.349V95.4171H119.382V90.2775ZM133.154 91.5512C133.154 92.2216 133.035 92.8026 132.796 93.2942C132.558 93.7858 132.223 94.1881 131.791 94.5009C131.359 94.8138 130.845 95.0447 130.249 95.1937C129.653 95.3426 129.005 95.4171 128.305 95.4171H124.573V83.8194H126.539V87.8641H128.439C129.914 87.8641 131.068 88.1546 131.902 88.7356C132.737 89.3166 133.154 90.2551 133.154 91.5512ZM136.796 95.4171H134.83V83.8194H136.796V95.4171ZM126.539 89.54V93.7412H128.305C129.154 93.7412 129.839 93.5847 130.361 93.2719C130.897 92.9441 131.165 92.4078 131.165 91.6629C131.165 90.9032 130.927 90.3594 130.45 90.0317C129.973 89.7039 129.303 89.54 128.439 89.54H126.539ZM149.252 94.4339C149.088 94.5531 148.887 94.6797 148.649 94.8138C148.411 94.9479 148.12 95.0819 147.777 95.216C147.435 95.3352 147.047 95.432 146.615 95.5065C146.183 95.5959 145.699 95.6406 145.163 95.6406C143.211 95.6406 141.729 95.1117 140.716 94.054C139.703 92.9963 139.196 91.514 139.196 89.6071C139.196 88.6685 139.331 87.8268 139.599 87.0819C139.882 86.3371 140.269 85.7114 140.761 85.2048C141.252 84.6834 141.833 84.2886 142.504 84.0205C143.174 83.7374 143.904 83.5959 144.694 83.5959C145.528 83.5959 146.273 83.7374 146.928 84.0205C147.584 84.3035 148.12 84.7207 148.537 85.2719C148.969 85.8231 149.26 86.5084 149.409 87.3277C149.573 88.1322 149.573 89.0708 149.409 90.1434H141.23C141.304 91.3948 141.677 92.3333 142.347 92.959C143.018 93.5698 144.016 93.8752 145.342 93.8752C146.236 93.8752 147.003 93.7486 147.643 93.4953C148.284 93.2421 148.82 92.9665 149.252 92.6685V94.4339ZM144.649 85.3389C143.8 85.3389 143.07 85.5996 142.459 86.121C141.848 86.6425 141.461 87.432 141.297 88.4898H147.532C147.591 87.4171 147.345 86.6276 146.794 86.121C146.243 85.5996 145.528 85.3389 144.649 85.3389ZM157.851 91.8194C158.06 91.0596 158.194 90.0317 158.254 88.7356C158.313 87.4395 158.343 85.8007 158.343 83.8194H166.142V95.4171H164.153V85.4953H160.198C160.183 87.0894 160.131 88.5047 160.041 89.7412C159.967 90.9777 159.796 92.0205 159.527 92.8696C159.274 93.7188 158.894 94.3669 158.388 94.8138C157.896 95.2458 157.233 95.4618 156.399 95.4618C156.339 95.4618 156.28 95.4618 156.22 95.4618C156.161 95.4618 156.094 95.4544 156.019 95.4395V93.4953C156.094 93.5102 156.19 93.5177 156.31 93.5177C157.069 93.5177 157.583 92.9516 157.851 91.8194ZM174.091 95.6406C173.301 95.6406 172.564 95.5065 171.879 95.2384C171.193 94.9702 170.597 94.5829 170.091 94.0763C169.599 93.5549 169.212 92.9218 168.929 92.1769C168.646 91.432 168.504 90.5754 168.504 89.6071C168.504 88.6536 168.646 87.8045 168.929 87.0596C169.212 86.2998 169.599 85.6667 170.091 85.1601C170.597 84.6536 171.193 84.2663 171.879 83.9981C172.564 83.73 173.301 83.5959 174.091 83.5959C174.895 83.5959 175.64 83.73 176.325 83.9981C177.011 84.2663 177.599 84.6536 178.091 85.1601C178.597 85.6667 178.992 86.2998 179.275 87.0596C179.573 87.8045 179.722 88.6536 179.722 89.6071C179.722 90.5754 179.573 91.432 179.275 92.1769C178.992 92.9218 178.597 93.5549 178.091 94.0763C177.599 94.5829 177.011 94.9702 176.325 95.2384C175.64 95.5065 174.895 95.6406 174.091 95.6406ZM174.091 93.8752C174.612 93.8752 175.089 93.7933 175.521 93.6294C175.968 93.4506 176.355 93.1899 176.683 92.8473C177.011 92.4898 177.264 92.0428 177.443 91.5065C177.622 90.9702 177.711 90.3371 177.711 89.6071C177.711 88.8771 177.622 88.2439 177.443 87.7076C177.264 87.1713 177.011 86.7318 176.683 86.3892C176.355 86.0317 175.968 85.7709 175.521 85.6071C175.089 85.4283 174.612 85.3389 174.091 85.3389C173.569 85.3389 173.093 85.4283 172.661 85.6071C172.229 85.7709 171.849 86.0317 171.521 86.3892C171.208 86.7318 170.962 87.1713 170.784 87.7076C170.605 88.2439 170.515 88.8771 170.515 89.6071C170.515 90.3371 170.605 90.9702 170.784 91.5065C170.962 92.0428 171.208 92.4898 171.521 92.8473C171.849 93.1899 172.229 93.4506 172.661 93.6294C173.093 93.7933 173.569 93.8752 174.091 93.8752ZM182.119 83.8194H189.493V85.4953H184.086V95.4171H182.119V83.8194ZM193.84 92.7356L200.03 83.8194H202.019V95.4171H200.053V86.5233L193.885 95.4171H191.874V83.8194H193.84V92.7356Z" fill="#262626"/>
<path d="M459.963 76.3501L450.652 70.9744V81.7258L459.963 76.3501ZM333.333 77.2812H451.583V75.419H333.333V77.2812Z" fill="#262626"/>
<path d="M657.356 76.3501L648.045 70.9744V81.7258L657.356 76.3501ZM530.726 77.2812L648.976 77.2812V75.419L530.726 75.419V77.2812Z" fill="#262626"/>
<path d="M854.749 76.3501L845.438 70.9744V81.7258L854.749 76.3501ZM728.119 77.2812L846.369 77.2812V75.419L728.119 75.419V77.2812Z" fill="#262626"/>
<rect x="268.156" y="46.5549" width="59.5903" height="59.5903" rx="29.7952" fill="#5282FF"/>
<path fill-rule="evenodd" clip-rule="evenodd" d="M283.052 88.4431C283.052 86.9049 284.305 85.6629 285.847 85.6629C287.389 85.6629 288.643 86.9049 288.643 88.4431C288.643 89.9832 287.389 91.2495 285.847 91.2495C284.305 91.2495 283.052 89.9832 283.052 88.4431V88.4431ZM290.497 88.4431C290.497 86.9049 291.752 85.6629 293.294 85.6629C294.836 85.6629 296.089 86.9049 296.089 88.4431C296.089 89.9832 294.836 91.2495 293.294 91.2495C291.752 91.2495 290.497 89.9832 290.497 88.4431ZM297.946 88.4431C297.946 86.9049 299.201 85.6629 300.743 85.6629C302.285 85.6629 303.538 86.9049 303.538 88.4431C303.538 89.9832 302.285 91.2495 300.743 91.2495C299.201 91.2495 297.946 89.9832 297.946 88.4431V88.4431ZM309.669 86.9794L304.594 81.8882C304.534 81.8379 304.479 81.7634 304.432 81.7131C302.54 83.0732 300.268 83.803 297.939 83.7988C291.769 83.7988 286.758 78.7839 286.758 72.5995C286.762 69.6363 287.942 66.7958 290.038 64.7012C292.134 62.6065 294.975 61.4288 297.939 61.4264C299.992 61.4282 302.006 61.9952 303.759 63.0653C305.511 64.1354 306.936 65.6673 307.876 67.4931C308.816 69.319 309.235 71.3684 309.088 73.4168C308.941 75.4651 308.233 77.4335 307.041 79.1061L307.227 79.255L312.304 84.3463C312.653 84.6955 312.849 85.1691 312.849 85.6629C312.849 86.1566 312.653 86.6302 312.304 86.9794C311.952 87.3255 311.479 87.5195 310.986 87.5195C310.493 87.5195 310.02 87.3255 309.669 86.9794V86.9794ZM306.324 72.5995C306.321 70.3758 305.437 68.2439 303.865 66.6707C302.293 65.0976 300.162 64.2115 297.939 64.2066C295.715 64.2111 293.583 65.0969 292.011 66.6701C290.439 68.2433 289.554 70.3755 289.551 72.5995C289.535 73.7114 289.739 74.8154 290.153 75.8474C290.567 76.8794 291.183 77.8188 291.963 78.6109C292.743 79.403 293.673 80.032 294.699 80.4614C295.725 80.8907 296.826 81.1119 297.938 81.1119C299.05 81.1119 300.15 80.8907 301.176 80.4614C302.202 80.032 303.132 79.403 303.912 78.6109C304.693 77.8188 305.308 76.8794 305.722 75.8474C306.136 74.8154 306.341 73.7114 306.324 72.5995V72.5995Z" fill="white"/>
<path d="M276.666 122.296H279.794L285.537 138.318H283.303L281.649 133.737H274.565L272.934 138.318H270.967L276.666 122.296ZM280.979 131.838L278.118 123.86L275.258 131.838H280.979ZM294.934 136.24C294.621 136.896 294.137 137.447 293.481 137.894C292.841 138.326 291.999 138.542 290.956 138.542C289.884 138.542 289.012 138.244 288.342 137.648C287.686 137.037 287.359 136.099 287.359 134.832V126.721H289.347V134.832C289.347 135.22 289.4 135.54 289.504 135.793C289.623 136.032 289.779 136.225 289.973 136.374C290.167 136.523 290.39 136.628 290.643 136.687C290.912 136.747 291.202 136.777 291.515 136.777C292.379 136.777 293.072 136.583 293.593 136.196C294.115 135.808 294.562 135.279 294.934 134.609V126.721H296.9V138.318H295.157L294.979 136.24H294.934ZM308.441 136.039C308.083 136.799 307.584 137.41 306.944 137.871C306.303 138.318 305.491 138.542 304.508 138.542C303.808 138.542 303.145 138.423 302.519 138.184C301.893 137.931 301.342 137.559 300.865 137.067C300.389 136.561 300.009 135.935 299.726 135.19C299.443 134.43 299.301 133.536 299.301 132.508C299.301 131.495 299.443 130.616 299.726 129.871C300.009 129.112 300.389 128.486 300.865 127.994C301.342 127.488 301.893 127.115 302.519 126.877C303.16 126.624 303.83 126.497 304.53 126.497C305.409 126.497 306.169 126.683 306.809 127.056C307.45 127.413 307.964 127.927 308.351 128.598V122.296H310.318V138.318H308.597L308.441 136.039ZM304.798 136.777C305.305 136.777 305.774 136.695 306.206 136.531C306.638 136.352 307.011 136.084 307.323 135.726C307.651 135.369 307.904 134.922 308.083 134.385C308.277 133.849 308.374 133.223 308.374 132.508C308.374 131.793 308.277 131.168 308.083 130.631C307.904 130.095 307.651 129.648 307.323 129.29C307.011 128.933 306.638 128.672 306.206 128.508C305.774 128.33 305.305 128.24 304.798 128.24C303.77 128.24 302.929 128.605 302.273 129.335C301.633 130.05 301.312 131.108 301.312 132.508C301.312 133.924 301.64 134.989 302.296 135.704C302.951 136.419 303.785 136.777 304.798 136.777ZM314.533 125.022C314.13 125.022 313.81 124.903 313.572 124.665C313.333 124.412 313.214 124.106 313.214 123.749C313.214 123.391 313.333 123.086 313.572 122.832C313.81 122.579 314.13 122.452 314.533 122.452C314.92 122.452 315.225 122.579 315.449 122.832C315.672 123.086 315.784 123.391 315.784 123.749C315.784 124.106 315.672 124.412 315.449 124.665C315.225 124.903 314.92 125.022 314.533 125.022ZM315.493 126.721V138.318H313.527V126.721H315.493ZM324.375 138.073C324.137 138.207 323.831 138.318 323.459 138.408C323.086 138.497 322.692 138.542 322.274 138.542C321.708 138.542 321.224 138.46 320.822 138.296C320.435 138.132 320.114 137.916 319.861 137.648C319.608 137.365 319.421 137.052 319.302 136.709C319.198 136.352 319.146 135.987 319.146 135.615V128.397H317.76V126.721H319.146V124.285H321.112V126.721H324.487V128.397H321.112V135.369C321.112 135.86 321.232 136.218 321.47 136.441C321.723 136.665 322.163 136.777 322.788 136.777C323.369 136.777 323.898 136.613 324.375 136.285V138.073ZM279.245 150.24V164.318H277.122V150.24H272.184V148.296H284.184V150.24H279.245ZM290.912 154.687C290.077 154.762 289.317 154.978 288.632 155.335C287.962 155.678 287.463 156.214 287.135 156.944V164.318H285.169V152.721H286.889L287.09 155.246H287.135C287.463 154.561 287.932 153.965 288.543 153.458C289.169 152.937 289.958 152.616 290.912 152.497V154.687ZM299.883 162.106C299.749 162.374 299.578 162.657 299.369 162.955C299.161 163.238 298.9 163.499 298.587 163.737C298.274 163.976 297.902 164.169 297.47 164.318C297.053 164.467 296.561 164.542 295.995 164.542C294.952 164.542 294.111 164.251 293.47 163.67C292.829 163.074 292.509 162.225 292.509 161.123C292.509 159.857 292.949 158.925 293.828 158.33C294.721 157.734 295.988 157.436 297.626 157.436H299.794V156.475C299.794 155.67 299.585 155.097 299.168 154.754C298.751 154.412 298.036 154.24 297.023 154.24C296.308 154.24 295.63 154.359 294.99 154.598C294.349 154.821 293.775 155.082 293.269 155.38V153.615C293.686 153.361 294.245 153.115 294.945 152.877C295.66 152.624 296.442 152.497 297.291 152.497C298.751 152.497 299.861 152.803 300.621 153.413C301.381 154.009 301.76 154.94 301.76 156.207V162.441C301.76 162.575 301.76 162.732 301.76 162.911C301.775 163.074 301.783 163.246 301.783 163.425C301.798 163.603 301.813 163.775 301.828 163.939C301.842 164.088 301.857 164.214 301.872 164.318H300.085C300.04 164.11 299.995 163.819 299.95 163.447C299.921 163.06 299.906 162.724 299.906 162.441L299.883 162.106ZM296.42 162.777C297.031 162.777 297.552 162.65 297.984 162.397C298.416 162.143 298.766 161.853 299.034 161.525C299.302 161.182 299.496 160.855 299.615 160.542C299.734 160.214 299.794 159.983 299.794 159.849V159H297.828C296.651 159 295.794 159.171 295.258 159.514C294.736 159.842 294.476 160.341 294.476 161.011C294.476 161.533 294.632 161.957 294.945 162.285C295.258 162.613 295.749 162.777 296.42 162.777ZM305.858 151.022C305.456 151.022 305.136 150.903 304.897 150.665C304.659 150.412 304.54 150.106 304.54 149.749C304.54 149.391 304.659 149.086 304.897 148.832C305.136 148.579 305.456 148.452 305.858 148.452C306.245 148.452 306.551 148.579 306.774 148.832C306.998 149.086 307.109 149.391 307.109 149.749C307.109 150.106 306.998 150.412 306.774 150.665C306.551 150.903 306.245 151.022 305.858 151.022ZM306.819 152.721V164.318H304.853V152.721H306.819ZM311.991 148.296V164.318H310.024V148.296H311.991ZM318.906 164.542C318.295 164.542 317.751 164.49 317.275 164.385C316.813 164.296 316.403 164.184 316.046 164.05C315.703 163.901 315.412 163.752 315.174 163.603C314.936 163.439 314.75 163.298 314.615 163.179V161.413C314.764 161.562 314.966 161.726 315.219 161.905C315.472 162.069 315.777 162.225 316.135 162.374C316.493 162.523 316.895 162.65 317.342 162.754C317.804 162.844 318.317 162.888 318.884 162.888C319.718 162.888 320.381 162.754 320.872 162.486C321.364 162.218 321.61 161.763 321.61 161.123C321.61 160.78 321.528 160.505 321.364 160.296C321.215 160.088 321.006 159.924 320.738 159.804C320.47 159.67 320.157 159.566 319.8 159.492C319.457 159.417 319.092 159.343 318.705 159.268C318.213 159.164 317.729 159.052 317.252 158.933C316.776 158.799 316.344 158.613 315.956 158.374C315.569 158.121 315.256 157.801 315.018 157.413C314.779 157.011 314.66 156.49 314.66 155.849C314.66 154.806 315.062 153.987 315.867 153.391C316.686 152.795 317.826 152.497 319.286 152.497C320.105 152.497 320.828 152.579 321.453 152.743C322.094 152.907 322.586 153.086 322.928 153.279V155.045C322.541 154.791 322.057 154.583 321.476 154.419C320.91 154.24 320.202 154.151 319.353 154.151C318.474 154.151 317.796 154.27 317.319 154.508C316.858 154.747 316.627 155.179 316.627 155.804C316.627 156.117 316.694 156.371 316.828 156.564C316.962 156.743 317.141 156.892 317.364 157.011C317.602 157.115 317.871 157.197 318.168 157.257C318.466 157.317 318.779 157.384 319.107 157.458C319.614 157.562 320.135 157.674 320.671 157.793C321.208 157.912 321.684 158.099 322.101 158.352C322.533 158.605 322.884 158.948 323.152 159.38C323.435 159.797 323.576 160.363 323.576 161.078C323.576 161.749 323.442 162.307 323.174 162.754C322.906 163.201 322.548 163.559 322.101 163.827C321.669 164.08 321.17 164.259 320.604 164.363C320.053 164.482 319.487 164.542 318.906 164.542Z" fill="#262626"/>
<rect x="465.549" y="46.5549" width="59.5903" height="59.5903" rx="29.7952" fill="#5282FF"/>
<path fill-rule="evenodd" clip-rule="evenodd" d="M500.931 86.5773C500.931 86.1546 501.026 85.7579 501.203 85.3855L497.762 81.933H495.345V83.1993C495.345 84.5661 494.242 85.6574 492.885 85.6574H482.905C481.548 85.6574 480.447 84.5661 480.447 83.1993V67.6332C480.447 66.2682 481.549 65.1751 482.907 65.1751H492.886C494.246 65.1751 495.346 66.2682 495.346 67.6332V68.8995H497.764L501.203 65.4488C500.998 65.0233 500.905 64.5527 500.932 64.0813C500.959 63.6098 501.105 63.1529 501.357 62.7535C501.609 62.354 501.958 62.0251 502.372 61.7975C502.786 61.57 503.25 61.4513 503.723 61.4525C504.142 61.4524 504.556 61.5466 504.934 61.7284C505.312 61.9101 505.644 62.1746 505.906 62.5023C506.168 62.8299 506.352 63.2124 506.446 63.6211C506.54 64.0299 506.541 64.4546 506.448 64.8636C506.355 65.2726 506.171 65.6555 505.91 65.9838C505.649 66.3122 505.318 66.5775 504.94 66.7602C504.563 66.9429 504.149 67.0382 503.73 67.0391C503.31 67.04 502.896 66.9464 502.518 66.7654L498.808 70.4898C498.633 70.6633 498.396 70.7603 498.149 70.7598H495.345V74.4842H504.808C505.192 73.3911 506.227 72.622 507.445 72.622C508.186 72.622 508.896 72.9163 509.42 73.4401C509.944 73.964 510.238 74.6745 510.238 75.4153C510.238 76.1561 509.944 76.8666 509.42 77.3904C508.896 77.9143 508.186 78.2086 507.445 78.2086C506.227 78.2086 505.192 77.4376 504.808 76.3464H495.345V80.0708H498.149C498.395 80.0708 498.633 80.1695 498.808 80.3427L502.52 84.067C502.944 83.8615 503.415 83.7671 503.886 83.7929C504.357 83.8187 504.814 83.9637 505.214 84.2144C505.614 84.4651 505.944 84.8132 506.173 85.2262C506.401 85.6392 506.521 86.1034 506.521 86.5754C506.523 86.9437 506.452 87.3086 506.312 87.6492C506.172 87.9899 505.967 88.2995 505.707 88.5603C505.447 88.8212 505.138 89.028 504.798 89.169C504.457 89.3099 504.093 89.3823 503.724 89.3818C503.356 89.3823 502.992 89.31 502.652 89.1691C502.312 89.0283 502.003 88.8216 501.743 88.561C501.483 88.3004 501.277 87.991 501.137 87.6505C500.997 87.3101 500.926 86.9454 500.927 86.5773H500.931ZM493.482 79.1527V79.1285C493.479 78.8841 493.381 78.6507 493.207 78.4786C493.034 78.3065 492.799 78.2095 492.555 78.2086H483.237C482.992 78.2095 482.758 78.3065 482.584 78.4786C482.411 78.6507 482.312 78.8841 482.309 79.1285V79.1527C482.313 79.3967 482.412 79.6297 482.585 79.8014C482.759 79.9731 482.992 80.0698 483.237 80.0708H492.555C492.799 80.0698 493.033 79.9731 493.206 79.8014C493.38 79.6297 493.479 79.3967 493.482 79.1527ZM493.482 71.7039V71.6797C493.479 71.4357 493.38 71.2027 493.206 71.031C493.033 70.8593 492.799 70.7626 492.555 70.7616H483.237C482.992 70.7626 482.759 70.8593 482.585 71.031C482.412 71.2027 482.313 71.4357 482.309 71.6797V71.7058C482.313 71.9495 482.412 72.182 482.586 72.3533C482.759 72.5246 482.993 72.621 483.237 72.622H492.555C492.799 72.621 493.032 72.5246 493.206 72.3533C493.379 72.182 493.478 71.9495 493.482 71.7058V71.7039Z" fill="white"/>
<path d="M473.424 122.296H478.81C479.882 122.296 480.88 122.423 481.804 122.676C482.728 122.929 483.532 123.346 484.217 123.927C484.903 124.508 485.439 125.276 485.826 126.229C486.214 127.182 486.407 128.359 486.407 129.76C486.407 131.175 486.206 132.419 485.804 133.492C485.417 134.549 484.873 135.436 484.173 136.151C483.487 136.866 482.661 137.41 481.692 137.782C480.739 138.14 479.696 138.318 478.564 138.318H473.424V122.296ZM475.525 124.218V136.419H478.564C479.383 136.419 480.135 136.292 480.821 136.039C481.506 135.786 482.094 135.398 482.586 134.877C483.078 134.341 483.458 133.663 483.726 132.844C483.994 132.024 484.128 131.048 484.128 129.916C484.128 128.799 483.994 127.875 483.726 127.145C483.458 126.4 483.085 125.812 482.608 125.38C482.147 124.948 481.588 124.65 480.932 124.486C480.277 124.307 479.569 124.218 478.81 124.218H475.525ZM495.727 136.106C495.593 136.374 495.422 136.657 495.213 136.955C495.004 137.238 494.744 137.499 494.431 137.737C494.118 137.976 493.746 138.169 493.314 138.318C492.896 138.467 492.405 138.542 491.839 138.542C490.796 138.542 489.954 138.251 489.314 137.67C488.673 137.074 488.353 136.225 488.353 135.123C488.353 133.857 488.792 132.925 489.671 132.33C490.565 131.734 491.831 131.436 493.47 131.436H495.638V130.475C495.638 129.67 495.429 129.097 495.012 128.754C494.595 128.412 493.88 128.24 492.867 128.24C492.152 128.24 491.474 128.359 490.833 128.598C490.192 128.821 489.619 129.082 489.112 129.38V127.615C489.53 127.361 490.088 127.115 490.788 126.877C491.503 126.624 492.286 126.497 493.135 126.497C494.595 126.497 495.705 126.803 496.464 127.413C497.224 128.009 497.604 128.94 497.604 130.207V136.441C497.604 136.575 497.604 136.732 497.604 136.911C497.619 137.074 497.626 137.246 497.626 137.425C497.641 137.603 497.656 137.775 497.671 137.939C497.686 138.088 497.701 138.214 497.716 138.318H495.928C495.883 138.11 495.839 137.819 495.794 137.447C495.764 137.06 495.749 136.724 495.749 136.441L495.727 136.106ZM492.263 136.777C492.874 136.777 493.395 136.65 493.828 136.397C494.26 136.143 494.61 135.853 494.878 135.525C495.146 135.182 495.34 134.855 495.459 134.542C495.578 134.214 495.638 133.983 495.638 133.849V133H493.671C492.494 133 491.638 133.171 491.101 133.514C490.58 133.842 490.319 134.341 490.319 135.011C490.319 135.533 490.476 135.957 490.788 136.285C491.101 136.613 491.593 136.777 492.263 136.777ZM506.372 138.073C506.134 138.207 505.828 138.318 505.456 138.408C505.083 138.497 504.689 138.542 504.271 138.542C503.705 138.542 503.221 138.46 502.819 138.296C502.432 138.132 502.111 137.916 501.858 137.648C501.605 137.365 501.419 137.052 501.299 136.709C501.195 136.352 501.143 135.987 501.143 135.615V128.397H499.758V126.721H501.143V124.285H503.109V126.721H506.484V128.397H503.109V135.369C503.109 135.86 503.229 136.218 503.467 136.441C503.72 136.665 504.16 136.777 504.785 136.777C505.366 136.777 505.895 136.613 506.372 136.285V138.073ZM515.782 136.106C515.648 136.374 515.477 136.657 515.268 136.955C515.059 137.238 514.799 137.499 514.486 137.737C514.173 137.976 513.801 138.169 513.369 138.318C512.951 138.467 512.46 138.542 511.894 138.542C510.851 138.542 510.009 138.251 509.369 137.67C508.728 137.074 508.408 136.225 508.408 135.123C508.408 133.857 508.847 132.925 509.726 132.33C510.62 131.734 511.886 131.436 513.525 131.436H515.693V130.475C515.693 129.67 515.484 129.097 515.067 128.754C514.65 128.412 513.935 128.24 512.922 128.24C512.207 128.24 511.529 128.359 510.888 128.598C510.247 128.821 509.674 129.082 509.167 129.38V127.615C509.585 127.361 510.143 127.115 510.843 126.877C511.558 126.624 512.341 126.497 513.19 126.497C514.65 126.497 515.76 126.803 516.519 127.413C517.279 128.009 517.659 128.94 517.659 130.207V136.441C517.659 136.575 517.659 136.732 517.659 136.911C517.674 137.074 517.681 137.246 517.681 137.425C517.696 137.603 517.711 137.775 517.726 137.939C517.741 138.088 517.756 138.214 517.771 138.318H515.983C515.938 138.11 515.894 137.819 515.849 137.447C515.819 137.06 515.804 136.724 515.804 136.441L515.782 136.106ZM512.318 136.777C512.929 136.777 513.45 136.65 513.883 136.397C514.315 136.143 514.665 135.853 514.933 135.525C515.201 135.182 515.395 134.855 515.514 134.542C515.633 134.214 515.693 133.983 515.693 133.849V133H513.726C512.549 133 511.693 133.171 511.156 133.514C510.635 133.842 510.374 134.341 510.374 135.011C510.374 135.533 510.531 135.957 510.843 136.285C511.156 136.613 511.648 136.777 512.318 136.777ZM460.021 164.542C459.291 164.542 458.635 164.49 458.054 164.385C457.473 164.296 456.959 164.177 456.512 164.028C456.08 163.864 455.708 163.693 455.395 163.514C455.097 163.32 454.859 163.134 454.68 162.955V160.944C454.903 161.138 455.194 161.339 455.551 161.547C455.909 161.741 456.319 161.92 456.78 162.084C457.257 162.248 457.764 162.382 458.3 162.486C458.851 162.59 459.425 162.642 460.021 162.642C461.183 162.642 462.106 162.426 462.792 161.994C463.477 161.547 463.819 160.877 463.819 159.983C463.819 159.536 463.738 159.171 463.574 158.888C463.41 158.59 463.171 158.344 462.859 158.151C462.546 157.942 462.151 157.771 461.674 157.637C461.212 157.488 460.669 157.331 460.043 157.168C459.417 157.004 458.792 156.817 458.166 156.609C457.54 156.4 456.974 156.125 456.468 155.782C455.976 155.439 455.574 155.007 455.261 154.486C454.963 153.965 454.814 153.302 454.814 152.497C454.814 151.112 455.298 150.032 456.266 149.257C457.235 148.482 458.717 148.095 460.713 148.095C461.294 148.095 461.808 148.132 462.255 148.207C462.717 148.266 463.119 148.348 463.462 148.452C463.819 148.542 464.125 148.646 464.378 148.765C464.646 148.885 464.885 148.996 465.093 149.101V151.112C464.468 150.709 463.79 150.426 463.06 150.263C462.345 150.084 461.562 149.994 460.713 149.994C459.998 149.994 459.395 150.054 458.903 150.173C458.427 150.277 458.039 150.434 457.741 150.642C457.443 150.851 457.227 151.104 457.093 151.402C456.959 151.7 456.892 152.035 456.892 152.408C456.892 152.855 456.989 153.227 457.183 153.525C457.391 153.823 457.659 154.076 457.987 154.285C458.33 154.479 458.717 154.642 459.149 154.777C459.581 154.911 460.035 155.03 460.512 155.134C461.138 155.283 461.779 155.454 462.434 155.648C463.089 155.842 463.678 156.11 464.199 156.452C464.721 156.795 465.145 157.242 465.473 157.793C465.816 158.33 465.987 159.03 465.987 159.894C465.987 160.743 465.816 161.466 465.473 162.061C465.145 162.642 464.706 163.119 464.155 163.492C463.603 163.864 462.97 164.132 462.255 164.296C461.54 164.46 460.795 164.542 460.021 164.542ZM474.053 164.073C473.814 164.207 473.509 164.318 473.137 164.408C472.764 164.497 472.369 164.542 471.952 164.542C471.386 164.542 470.902 164.46 470.5 164.296C470.112 164.132 469.792 163.916 469.539 163.648C469.285 163.365 469.099 163.052 468.98 162.709C468.876 162.352 468.824 161.987 468.824 161.615V154.397H467.438V152.721H468.824V150.285H470.79V152.721H474.164V154.397H470.79V161.369C470.79 161.86 470.909 162.218 471.148 162.441C471.401 162.665 471.84 162.777 472.466 162.777C473.047 162.777 473.576 162.613 474.053 162.285V164.073ZM482.412 154.687C481.578 154.762 480.818 154.978 480.133 155.335C479.463 155.678 478.964 156.214 478.636 156.944V164.318H476.669V152.721H478.39L478.591 155.246H478.636C478.964 154.561 479.433 153.965 480.044 153.458C480.669 152.937 481.459 152.616 482.412 152.497V154.687ZM493.711 163.335C493.547 163.454 493.346 163.581 493.108 163.715C492.869 163.849 492.579 163.983 492.236 164.117C491.893 164.236 491.506 164.333 491.074 164.408C490.642 164.497 490.158 164.542 489.622 164.542C487.67 164.542 486.188 164.013 485.175 162.955C484.162 161.898 483.655 160.415 483.655 158.508C483.655 157.57 483.789 156.728 484.057 155.983C484.34 155.238 484.728 154.613 485.219 154.106C485.711 153.585 486.292 153.19 486.962 152.922C487.633 152.639 488.363 152.497 489.152 152.497C489.986 152.497 490.731 152.639 491.387 152.922C492.042 153.205 492.579 153.622 492.996 154.173C493.428 154.724 493.718 155.41 493.867 156.229C494.031 157.034 494.031 157.972 493.867 159.045H485.689C485.763 160.296 486.135 161.235 486.806 161.86C487.476 162.471 488.474 162.777 489.8 162.777C490.694 162.777 491.461 162.65 492.102 162.397C492.743 162.143 493.279 161.868 493.711 161.57V163.335ZM489.108 154.24C488.258 154.24 487.528 154.501 486.918 155.022C486.307 155.544 485.919 156.333 485.756 157.391H491.99C492.05 156.318 491.804 155.529 491.253 155.022C490.702 154.501 489.986 154.24 489.108 154.24ZM503.125 162.106C502.991 162.374 502.819 162.657 502.611 162.955C502.402 163.238 502.142 163.499 501.829 163.737C501.516 163.976 501.143 164.169 500.711 164.318C500.294 164.467 499.803 164.542 499.237 164.542C498.194 164.542 497.352 164.251 496.711 163.67C496.071 163.074 495.751 162.225 495.751 161.123C495.751 159.857 496.19 158.925 497.069 158.33C497.963 157.734 499.229 157.436 500.868 157.436H503.035V156.475C503.035 155.67 502.827 155.097 502.41 154.754C501.993 154.412 501.278 154.24 500.264 154.24C499.549 154.24 498.872 154.359 498.231 154.598C497.59 154.821 497.017 155.082 496.51 155.38V153.615C496.927 153.361 497.486 153.115 498.186 152.877C498.901 152.624 499.683 152.497 500.533 152.497C501.993 152.497 503.102 152.803 503.862 153.413C504.622 154.009 505.002 154.94 505.002 156.207V162.441C505.002 162.575 505.002 162.732 505.002 162.911C505.017 163.074 505.024 163.246 505.024 163.425C505.039 163.603 505.054 163.775 505.069 163.939C505.084 164.088 505.099 164.214 505.114 164.318H503.326C503.281 164.11 503.237 163.819 503.192 163.447C503.162 163.06 503.147 162.724 503.147 162.441L503.125 162.106ZM499.661 162.777C500.272 162.777 500.793 162.65 501.225 162.397C501.657 162.143 502.007 161.853 502.276 161.525C502.544 161.182 502.737 160.855 502.857 160.542C502.976 160.214 503.035 159.983 503.035 159.849V159H501.069C499.892 159 499.035 159.171 498.499 159.514C497.978 159.842 497.717 160.341 497.717 161.011C497.717 161.533 497.873 161.957 498.186 162.285C498.499 162.613 498.991 162.777 499.661 162.777ZM510.06 164.318H508.094V152.721H509.815L510.016 154.799H510.06C510.373 154.143 510.843 153.6 511.468 153.168C512.094 152.721 512.913 152.497 513.926 152.497C514.82 152.497 515.55 152.713 516.116 153.145C516.697 153.562 517.085 154.196 517.278 155.045C517.606 154.255 518.105 153.637 518.775 153.19C519.461 152.728 520.288 152.497 521.256 152.497C522.329 152.497 523.178 152.803 523.803 153.413C524.429 154.009 524.742 154.933 524.742 156.184V164.318H522.753V156.43C522.753 155.67 522.567 155.119 522.194 154.777C521.822 154.419 521.316 154.24 520.675 154.24C520.243 154.24 519.863 154.307 519.535 154.441C519.208 154.561 518.917 154.732 518.664 154.955C518.41 155.179 518.18 155.439 517.971 155.737C517.762 156.035 517.569 156.348 517.39 156.676V164.318H515.424V156.207C515.424 155.462 515.237 154.948 514.865 154.665C514.492 154.382 513.986 154.24 513.345 154.24C512.928 154.24 512.556 154.292 512.228 154.397C511.9 154.501 511.602 154.65 511.334 154.844C511.081 155.037 510.85 155.276 510.641 155.559C510.433 155.827 510.239 156.125 510.06 156.452V164.318ZM531.531 164.542C530.92 164.542 530.377 164.49 529.9 164.385C529.438 164.296 529.028 164.184 528.671 164.05C528.328 163.901 528.038 163.752 527.799 163.603C527.561 163.439 527.375 163.298 527.241 163.179V161.413C527.39 161.562 527.591 161.726 527.844 161.905C528.097 162.069 528.403 162.225 528.76 162.374C529.118 162.523 529.52 162.65 529.967 162.754C530.429 162.844 530.943 162.888 531.509 162.888C532.343 162.888 533.006 162.754 533.498 162.486C533.989 162.218 534.235 161.763 534.235 161.123C534.235 160.78 534.153 160.505 533.989 160.296C533.84 160.088 533.632 159.924 533.363 159.804C533.095 159.67 532.782 159.566 532.425 159.492C532.082 159.417 531.717 159.343 531.33 159.268C530.838 159.164 530.354 159.052 529.877 158.933C529.401 158.799 528.969 158.613 528.581 158.374C528.194 158.121 527.881 157.801 527.643 157.413C527.404 157.011 527.285 156.49 527.285 155.849C527.285 154.806 527.687 153.987 528.492 153.391C529.311 152.795 530.451 152.497 531.911 152.497C532.73 152.497 533.453 152.579 534.079 152.743C534.719 152.907 535.211 153.086 535.553 153.279V155.045C535.166 154.791 534.682 154.583 534.101 154.419C533.535 154.24 532.827 154.151 531.978 154.151C531.099 154.151 530.421 154.27 529.944 154.508C529.483 154.747 529.252 155.179 529.252 155.804C529.252 156.117 529.319 156.371 529.453 156.564C529.587 156.743 529.766 156.892 529.989 157.011C530.228 157.115 530.496 157.197 530.794 157.257C531.092 157.317 531.404 157.384 531.732 157.458C532.239 157.562 532.76 157.674 533.296 157.793C533.833 157.912 534.309 158.099 534.727 158.352C535.159 158.605 535.509 158.948 535.777 159.38C536.06 159.797 536.201 160.363 536.201 161.078C536.201 161.749 536.067 162.307 535.799 162.754C535.531 163.201 535.174 163.559 534.727 163.827C534.295 164.08 533.795 164.259 533.229 164.363C532.678 164.482 532.112 164.542 531.531 164.542Z" fill="#262626"/>
<rect x="662.942" y="46.5549" width="59.5903" height="59.5903" rx="29.7952" fill="#5282FF"/>
<path fill-rule="evenodd" clip-rule="evenodd" d="M681.564 86.5791V69.6462C682.29 70.2421 683.171 70.7132 684.123 71.1117C686.423 72.0801 689.467 72.6257 692.737 72.6257C696.004 72.6257 699.05 72.0801 701.35 71.1117C702.3 70.7132 703.182 70.2421 703.909 69.6462V86.5791C703.911 89.162 698.905 91.2477 692.737 91.2477C686.57 91.2477 681.564 89.162 681.564 86.5791ZM690 88.5158L692.737 85.7858L695.475 88.5158C695.604 88.6455 695.758 88.7484 695.927 88.8186C696.096 88.8888 696.278 88.9249 696.461 88.9249C696.644 88.9249 696.825 88.8888 696.995 88.8186C697.164 88.7484 697.318 88.6455 697.447 88.5158C697.709 88.2518 697.856 87.8951 697.856 87.5233C697.856 87.1515 697.709 86.7947 697.447 86.5307L693.722 82.8063C693.593 82.6764 693.439 82.5733 693.27 82.5029C693.101 82.4326 692.919 82.3963 692.736 82.3963C692.552 82.3963 692.371 82.4326 692.201 82.5029C692.032 82.5733 691.878 82.6764 691.749 82.8063L688.024 86.5307C687.762 86.7947 687.616 87.1515 687.616 87.5233C687.616 87.8951 687.762 88.2518 688.024 88.5158C688.154 88.6458 688.307 88.7489 688.477 88.8193C688.646 88.8896 688.828 88.9258 689.011 88.9258C689.195 88.9258 689.376 88.8896 689.546 88.8193C689.715 88.7489 689.869 88.6458 689.998 88.5158H690ZM690 81.067L692.737 78.3371L695.475 81.067C695.604 81.1967 695.758 81.2996 695.927 81.3698C696.096 81.44 696.278 81.4761 696.461 81.4761C696.644 81.4761 696.825 81.44 696.995 81.3698C697.164 81.2996 697.318 81.1967 697.447 81.067C697.709 80.803 697.856 80.4463 697.856 80.0745C697.856 79.7027 697.709 79.3459 697.447 79.0819L693.722 75.3575C693.593 75.2276 693.439 75.1245 693.27 75.0541C693.101 74.9838 692.919 74.9475 692.736 74.9475C692.552 74.9475 692.371 74.9838 692.201 75.0541C692.032 75.1245 691.878 75.2276 691.749 75.3575L688.024 79.0819C687.762 79.3459 687.616 79.7027 687.616 80.0745C687.616 80.4463 687.762 80.803 688.024 81.067C688.154 81.197 688.307 81.3001 688.477 81.3705C688.646 81.4408 688.828 81.477 689.011 81.477C689.195 81.477 689.376 81.4408 689.546 81.3705C689.715 81.3001 689.869 81.197 689.998 81.067H690ZM681.564 66.095C681.564 63.5382 686.572 61.4525 692.737 61.4525C698.903 61.4525 703.911 63.5382 703.911 66.095C703.911 68.6778 698.903 70.7635 692.737 70.7635C686.572 70.7635 681.564 68.6778 681.564 66.095Z" fill="white"/>
<path d="M670.817 122.296H676.202C677.275 122.296 678.273 122.423 679.197 122.676C680.12 122.929 680.925 123.346 681.61 123.927C682.296 124.508 682.832 125.276 683.219 126.229C683.607 127.182 683.8 128.359 683.8 129.76C683.8 131.175 683.599 132.419 683.197 133.492C682.809 134.549 682.266 135.436 681.566 136.151C680.88 136.866 680.053 137.41 679.085 137.782C678.132 138.14 677.089 138.318 675.957 138.318H670.817V122.296ZM672.917 124.218V136.419H675.957C676.776 136.419 677.528 136.292 678.214 136.039C678.899 135.786 679.487 135.398 679.979 134.877C680.471 134.341 680.85 133.663 681.119 132.844C681.387 132.024 681.521 131.048 681.521 129.916C681.521 128.799 681.387 127.875 681.119 127.145C680.85 126.4 680.478 125.812 680.001 125.38C679.539 124.948 678.981 124.65 678.325 124.486C677.67 124.307 676.962 124.218 676.202 124.218H672.917ZM693.12 136.106C692.986 136.374 692.814 136.657 692.606 136.955C692.397 137.238 692.137 137.499 691.824 137.737C691.511 137.976 691.138 138.169 690.706 138.318C690.289 138.467 689.798 138.542 689.232 138.542C688.189 138.542 687.347 138.251 686.706 137.67C686.066 137.074 685.746 136.225 685.746 135.123C685.746 133.857 686.185 132.925 687.064 132.33C687.958 131.734 689.224 131.436 690.863 131.436H693.03V130.475C693.03 129.67 692.822 129.097 692.405 128.754C691.988 128.412 691.273 128.24 690.259 128.24C689.544 128.24 688.867 128.359 688.226 128.598C687.585 128.821 687.012 129.082 686.505 129.38V127.615C686.922 127.361 687.481 127.115 688.181 126.877C688.896 126.624 689.678 126.497 690.528 126.497C691.988 126.497 693.097 126.803 693.857 127.413C694.617 128.009 694.997 128.94 694.997 130.207V136.441C694.997 136.575 694.997 136.732 694.997 136.911C695.012 137.074 695.019 137.246 695.019 137.425C695.034 137.603 695.049 137.775 695.064 137.939C695.079 138.088 695.094 138.214 695.109 138.318H693.321C693.276 138.11 693.232 137.819 693.187 137.447C693.157 137.06 693.142 136.724 693.142 136.441L693.12 136.106ZM689.656 136.777C690.267 136.777 690.788 136.65 691.22 136.397C691.652 136.143 692.003 135.853 692.271 135.525C692.539 135.182 692.732 134.855 692.852 134.542C692.971 134.214 693.03 133.983 693.03 133.849V133H691.064C689.887 133 689.03 133.171 688.494 133.514C687.973 133.842 687.712 134.341 687.712 135.011C687.712 135.533 687.868 135.957 688.181 136.285C688.494 136.613 688.986 136.777 689.656 136.777ZM703.765 138.073C703.527 138.207 703.221 138.318 702.849 138.408C702.476 138.497 702.081 138.542 701.664 138.542C701.098 138.542 700.614 138.46 700.212 138.296C699.825 138.132 699.504 137.916 699.251 137.648C698.998 137.365 698.811 137.052 698.692 136.709C698.588 136.352 698.536 135.987 698.536 135.615V128.397H697.15V126.721H698.536V124.285H700.502V126.721H703.877V128.397H700.502V135.369C700.502 135.86 700.622 136.218 700.86 136.441C701.113 136.665 701.553 136.777 702.178 136.777C702.759 136.777 703.288 136.613 703.765 136.285V138.073ZM713.175 136.106C713.041 136.374 712.869 136.657 712.661 136.955C712.452 137.238 712.192 137.499 711.879 137.737C711.566 137.976 711.193 138.169 710.761 138.318C710.344 138.467 709.853 138.542 709.287 138.542C708.244 138.542 707.402 138.251 706.761 137.67C706.121 137.074 705.801 136.225 705.801 135.123C705.801 133.857 706.24 132.925 707.119 132.33C708.013 131.734 709.279 131.436 710.918 131.436H713.085V130.475C713.085 129.67 712.877 129.097 712.46 128.754C712.043 128.412 711.328 128.24 710.314 128.24C709.599 128.24 708.922 128.359 708.281 128.598C707.64 128.821 707.067 129.082 706.56 129.38V127.615C706.977 127.361 707.536 127.115 708.236 126.877C708.951 126.624 709.733 126.497 710.583 126.497C712.043 126.497 713.152 126.803 713.912 127.413C714.672 128.009 715.052 128.94 715.052 130.207V136.441C715.052 136.575 715.052 136.732 715.052 136.911C715.067 137.074 715.074 137.246 715.074 137.425C715.089 137.603 715.104 137.775 715.119 137.939C715.134 138.088 715.149 138.214 715.164 138.318H713.376C713.331 138.11 713.287 137.819 713.242 137.447C713.212 137.06 713.197 136.724 713.197 136.441L713.175 136.106ZM709.711 136.777C710.322 136.777 710.843 136.65 711.275 136.397C711.707 136.143 712.058 135.853 712.326 135.525C712.594 135.182 712.787 134.855 712.907 134.542C713.026 134.214 713.085 133.983 713.085 133.849V133H711.119C709.942 133 709.085 133.171 708.549 133.514C708.028 133.842 707.767 134.341 707.767 135.011C707.767 135.533 707.923 135.957 708.236 136.285C708.549 136.613 709.041 136.777 709.711 136.777ZM658.843 150.24V164.318H656.72V150.24H651.781V148.296H663.781V150.24H658.843ZM670.509 154.687C669.675 154.762 668.915 154.978 668.229 155.335C667.559 155.678 667.06 156.214 666.732 156.944V164.318H664.766V152.721H666.486L666.688 155.246H666.732C667.06 154.561 667.529 153.965 668.14 153.458C668.766 152.937 669.555 152.616 670.509 152.497V154.687ZM679.481 162.106C679.347 162.374 679.175 162.657 678.967 162.955C678.758 163.238 678.497 163.499 678.185 163.737C677.872 163.976 677.499 164.169 677.067 164.318C676.65 164.467 676.159 164.542 675.592 164.542C674.55 164.542 673.708 164.251 673.067 163.67C672.427 163.074 672.106 162.225 672.106 161.123C672.106 159.857 672.546 158.925 673.425 158.33C674.319 157.734 675.585 157.436 677.224 157.436H679.391V156.475C679.391 155.67 679.183 155.097 678.766 154.754C678.348 154.412 677.633 154.24 676.62 154.24C675.905 154.24 675.227 154.359 674.587 154.598C673.946 154.821 673.373 155.082 672.866 155.38V153.615C673.283 153.361 673.842 153.115 674.542 152.877C675.257 152.624 676.039 152.497 676.889 152.497C678.348 152.497 679.458 152.803 680.218 153.413C680.978 154.009 681.358 154.94 681.358 156.207V162.441C681.358 162.575 681.358 162.732 681.358 162.911C681.373 163.074 681.38 163.246 681.38 163.425C681.395 163.603 681.41 163.775 681.425 163.939C681.44 164.088 681.455 164.214 681.47 164.318H679.682C679.637 164.11 679.592 163.819 679.548 163.447C679.518 163.06 679.503 162.724 679.503 162.441L679.481 162.106ZM676.017 162.777C676.628 162.777 677.149 162.65 677.581 162.397C678.013 162.143 678.363 161.853 678.632 161.525C678.9 161.182 679.093 160.855 679.213 160.542C679.332 160.214 679.391 159.983 679.391 159.849V159H677.425C676.248 159 675.391 159.171 674.855 159.514C674.334 159.842 674.073 160.341 674.073 161.011C674.073 161.533 674.229 161.957 674.542 162.285C674.855 162.613 675.347 162.777 676.017 162.777ZM689.947 154.24C689.053 154.24 688.323 154.449 687.757 154.866C687.206 155.268 686.759 155.79 686.416 156.43V164.318H684.45V152.721H686.305L686.372 154.799H686.416C686.729 154.128 687.221 153.577 687.891 153.145C688.562 152.713 689.411 152.497 690.439 152.497C691.586 152.497 692.494 152.803 693.165 153.413C693.85 154.009 694.193 154.933 694.193 156.184V164.318H692.226V156.385C692.226 155.581 692.025 155.022 691.623 154.709C691.221 154.397 690.662 154.24 689.947 154.24ZM701.013 164.542C700.402 164.542 699.858 164.49 699.382 164.385C698.92 164.296 698.51 164.184 698.152 164.05C697.81 163.901 697.519 163.752 697.281 163.603C697.043 163.439 696.856 163.298 696.722 163.179V161.413C696.871 161.562 697.072 161.726 697.326 161.905C697.579 162.069 697.884 162.225 698.242 162.374C698.599 162.523 699.002 162.65 699.449 162.754C699.91 162.844 700.424 162.888 700.99 162.888C701.825 162.888 702.488 162.754 702.979 162.486C703.471 162.218 703.717 161.763 703.717 161.123C703.717 160.78 703.635 160.505 703.471 160.296C703.322 160.088 703.113 159.924 702.845 159.804C702.577 159.67 702.264 159.566 701.907 159.492C701.564 159.417 701.199 159.343 700.812 159.268C700.32 159.164 699.836 159.052 699.359 158.933C698.882 158.799 698.45 158.613 698.063 158.374C697.676 158.121 697.363 157.801 697.125 157.413C696.886 157.011 696.767 156.49 696.767 155.849C696.767 154.806 697.169 153.987 697.974 153.391C698.793 152.795 699.933 152.497 701.393 152.497C702.212 152.497 702.935 152.579 703.56 152.743C704.201 152.907 704.693 153.086 705.035 153.279V155.045C704.648 154.791 704.164 154.583 703.583 154.419C703.017 154.24 702.309 154.151 701.46 154.151C700.581 154.151 699.903 154.27 699.426 154.508C698.964 154.747 698.733 155.179 698.733 155.804C698.733 156.117 698.801 156.371 698.935 156.564C699.069 156.743 699.247 156.892 699.471 157.011C699.709 157.115 699.977 157.197 700.275 157.257C700.573 157.317 700.886 157.384 701.214 157.458C701.72 157.562 702.242 157.674 702.778 157.793C703.314 157.912 703.791 158.099 704.208 158.352C704.64 158.605 704.99 158.948 705.259 159.38C705.542 159.797 705.683 160.363 705.683 161.078C705.683 161.749 705.549 162.307 705.281 162.754C705.013 163.201 704.655 163.559 704.208 163.827C703.776 164.08 703.277 164.259 702.711 164.363C702.16 164.482 701.594 164.542 701.013 164.542ZM710.765 154.397V164.318H708.798V154.397H707.39V152.721H708.798V152.43C708.798 151.06 709.163 149.994 709.893 149.235C710.623 148.475 711.621 148.095 712.888 148.095C713.439 148.095 713.93 148.162 714.362 148.296V150.084C714.228 150.024 714.035 149.972 713.781 149.927C713.528 149.883 713.26 149.86 712.977 149.86C712.292 149.86 711.748 150.069 711.346 150.486C710.958 150.903 710.765 151.551 710.765 152.43V152.721H714.117V154.397H710.765ZM725.213 163.335C725.049 163.454 724.848 163.581 724.609 163.715C724.371 163.849 724.08 163.983 723.738 164.117C723.395 164.236 723.008 164.333 722.576 164.408C722.144 164.497 721.659 164.542 721.123 164.542C719.172 164.542 717.689 164.013 716.676 162.955C715.663 161.898 715.157 160.415 715.157 158.508C715.157 157.57 715.291 156.728 715.559 155.983C715.842 155.238 716.229 154.613 716.721 154.106C717.213 153.585 717.794 153.19 718.464 152.922C719.134 152.639 719.864 152.497 720.654 152.497C721.488 152.497 722.233 152.639 722.889 152.922C723.544 153.205 724.08 153.622 724.497 154.173C724.929 154.724 725.22 155.41 725.369 156.229C725.533 157.034 725.533 157.972 725.369 159.045H717.19C717.265 160.296 717.637 161.235 718.308 161.86C718.978 162.471 719.976 162.777 721.302 162.777C722.196 162.777 722.963 162.65 723.604 162.397C724.244 162.143 724.781 161.868 725.213 161.57V163.335ZM720.609 154.24C719.76 154.24 719.03 154.501 718.419 155.022C717.808 155.544 717.421 156.333 717.257 157.391H723.492C723.551 156.318 723.306 155.529 722.754 155.022C722.203 154.501 721.488 154.24 720.609 154.24ZM733.576 154.687C732.742 154.762 731.982 154.978 731.297 155.335C730.626 155.678 730.127 156.214 729.8 156.944V164.318H727.833V152.721H729.554L729.755 155.246H729.8C730.127 154.561 730.597 153.965 731.207 153.458C731.833 152.937 732.623 152.616 733.576 152.497V154.687Z" fill="#262626"/>
<rect x="860.335" y="46.5549" width="59.5903" height="59.5903" rx="29.7952" fill="#5282FF"/>
<path fill-rule="evenodd" clip-rule="evenodd" d="M882.682 73.5568C882.682 79.2134 887.267 83.7989 892.924 83.7989C893.238 83.7989 893.548 83.7847 893.855 83.7572V84.73C893.855 87.3371 889.758 89.3855 884.544 89.3855C879.33 89.3855 875.233 87.3371 875.233 84.73V67.9702C875.233 65.3631 879.33 63.3147 884.544 63.3147C886.308 63.3147 887.944 63.5492 889.337 63.9604C885.449 65.414 882.682 69.1622 882.682 73.5568ZM892.924 79.1434C889.838 79.1434 887.337 76.6422 887.337 73.5568C887.337 70.4714 889.838 67.9702 892.924 67.9702C896.009 67.9702 898.51 70.4714 898.51 73.5568C898.51 76.6422 896.009 79.1434 892.924 79.1434ZM892.924 81.9367C888.296 81.9367 884.544 78.1849 884.544 73.5568C884.544 68.9287 888.296 65.1769 892.924 65.1769C897.552 65.1769 901.304 68.9287 901.304 73.5568C901.304 75.1965 900.833 76.7263 900.018 78.0181L904.483 82.4821C905.21 83.2093 905.21 84.3885 904.483 85.1156C903.755 85.8428 902.576 85.8428 901.849 85.1156L897.385 80.6518C896.093 81.4657 894.563 81.9367 892.924 81.9367Z" fill="white"/>
<path d="M813.762 133.536L818.969 122.296H821.695V138.318H819.572V125.425L814.656 135.86L813.606 135.883H812.667L812.69 135.86L807.841 125.246V138.318H805.852V122.296H808.779L813.762 133.536ZM831.952 136.106C831.818 136.374 831.646 136.657 831.438 136.955C831.229 137.238 830.969 137.499 830.656 137.737C830.343 137.976 829.97 138.169 829.538 138.318C829.121 138.467 828.63 138.542 828.063 138.542C827.021 138.542 826.179 138.251 825.538 137.67C824.898 137.074 824.577 136.225 824.577 135.123C824.577 133.857 825.017 132.925 825.896 132.33C826.79 131.734 828.056 131.436 829.695 131.436H831.862V130.475C831.862 129.67 831.654 129.097 831.237 128.754C830.82 128.412 830.104 128.24 829.091 128.24C828.376 128.24 827.699 128.359 827.058 128.598C826.417 128.821 825.844 129.082 825.337 129.38V127.615C825.754 127.361 826.313 127.115 827.013 126.877C827.728 126.624 828.51 126.497 829.36 126.497C830.82 126.497 831.929 126.803 832.689 127.413C833.449 128.009 833.829 128.94 833.829 130.207V136.441C833.829 136.575 833.829 136.732 833.829 136.911C833.844 137.074 833.851 137.246 833.851 137.425C833.866 137.603 833.881 137.775 833.896 137.939C833.911 138.088 833.926 138.214 833.941 138.318H832.153C832.108 138.11 832.063 137.819 832.019 137.447C831.989 137.06 831.974 136.724 831.974 136.441L831.952 136.106ZM828.488 136.777C829.099 136.777 829.62 136.65 830.052 136.397C830.484 136.143 830.834 135.853 831.103 135.525C831.371 135.182 831.564 134.855 831.684 134.542C831.803 134.214 831.862 133.983 831.862 133.849V133H829.896C828.719 133 827.862 133.171 827.326 133.514C826.805 133.842 826.544 134.341 826.544 135.011C826.544 135.533 826.7 135.957 827.013 136.285C827.326 136.613 827.818 136.777 828.488 136.777ZM842.418 128.24C841.524 128.24 840.794 128.449 840.228 128.866C839.677 129.268 839.23 129.79 838.887 130.43V138.318H836.921V126.721H838.776L838.843 128.799H838.887C839.2 128.128 839.692 127.577 840.362 127.145C841.033 126.713 841.882 126.497 842.91 126.497C844.057 126.497 844.966 126.803 845.636 127.413C846.321 128.009 846.664 128.933 846.664 130.184V138.318H844.697V130.385C844.697 129.581 844.496 129.022 844.094 128.709C843.692 128.397 843.133 128.24 842.418 128.24ZM856.568 136.106C856.434 136.374 856.262 136.657 856.054 136.955C855.845 137.238 855.584 137.499 855.272 137.737C854.959 137.976 854.586 138.169 854.154 138.318C853.737 138.467 853.246 138.542 852.679 138.542C851.637 138.542 850.795 138.251 850.154 137.67C849.514 137.074 849.193 136.225 849.193 135.123C849.193 133.857 849.633 132.925 850.512 132.33C851.406 131.734 852.672 131.436 854.311 131.436H856.478V130.475C856.478 129.67 856.27 129.097 855.853 128.754C855.435 128.412 854.72 128.24 853.707 128.24C852.992 128.24 852.314 128.359 851.674 128.598C851.033 128.821 850.46 129.082 849.953 129.38V127.615C850.37 127.361 850.929 127.115 851.629 126.877C852.344 126.624 853.126 126.497 853.975 126.497C855.435 126.497 856.545 126.803 857.305 127.413C858.065 128.009 858.445 128.94 858.445 130.207V136.441C858.445 136.575 858.445 136.732 858.445 136.911C858.46 137.074 858.467 137.246 858.467 137.425C858.482 137.603 858.497 137.775 858.512 137.939C858.527 138.088 858.542 138.214 858.557 138.318H856.769C856.724 138.11 856.679 137.819 856.635 137.447C856.605 137.06 856.59 136.724 856.59 136.441L856.568 136.106ZM853.104 136.777C853.715 136.777 854.236 136.65 854.668 136.397C855.1 136.143 855.45 135.853 855.719 135.525C855.987 135.182 856.18 134.855 856.3 134.542C856.419 134.214 856.478 133.983 856.478 133.849V133H854.512C853.335 133 852.478 133.171 851.942 133.514C851.421 133.842 851.16 134.341 851.16 135.011C851.16 135.533 851.316 135.957 851.629 136.285C851.942 136.613 852.434 136.777 853.104 136.777ZM871.503 137.335C871.503 138.08 871.392 138.758 871.168 139.369C870.959 139.994 870.617 140.523 870.14 140.955C869.678 141.387 869.075 141.723 868.33 141.961C867.6 142.199 866.714 142.318 865.671 142.318C865.105 142.318 864.606 142.289 864.174 142.229C863.742 142.169 863.362 142.088 863.034 141.983C862.721 141.894 862.453 141.79 862.23 141.67C862.006 141.566 861.82 141.462 861.671 141.358V139.592C861.909 139.726 862.155 139.845 862.408 139.95C862.676 140.069 862.967 140.173 863.28 140.263C863.593 140.352 863.943 140.419 864.33 140.464C864.732 140.523 865.187 140.553 865.693 140.553C867.123 140.553 868.122 140.285 868.688 139.749C869.254 139.212 869.537 138.415 869.537 137.358V135.57C869.194 136.255 868.71 136.806 868.084 137.223C867.473 137.641 866.714 137.849 865.805 137.849C865.12 137.849 864.464 137.73 863.838 137.492C863.228 137.253 862.684 136.903 862.207 136.441C861.745 135.965 861.373 135.376 861.09 134.676C860.822 133.961 860.688 133.134 860.688 132.196C860.688 131.242 860.822 130.415 861.09 129.715C861.373 129 861.745 128.404 862.207 127.927C862.684 127.451 863.235 127.093 863.861 126.855C864.487 126.616 865.149 126.497 865.85 126.497C866.773 126.497 867.548 126.706 868.174 127.123C868.814 127.54 869.313 128.106 869.671 128.821L869.693 128.575C869.693 128.307 869.708 127.987 869.738 127.615C869.768 127.227 869.797 126.929 869.827 126.721H871.615C871.585 126.929 871.555 127.227 871.526 127.615C871.511 128.002 871.503 128.322 871.503 128.575V137.335ZM866.162 136.084C866.654 136.084 867.101 136.009 867.503 135.86C867.92 135.696 868.278 135.451 868.576 135.123C868.889 134.795 869.127 134.393 869.291 133.916C869.47 133.425 869.559 132.851 869.559 132.196C869.559 130.87 869.231 129.879 868.576 129.223C867.935 128.568 867.123 128.24 866.14 128.24C865.649 128.24 865.187 128.322 864.755 128.486C864.338 128.65 863.973 128.896 863.66 129.223C863.362 129.551 863.123 129.968 862.945 130.475C862.766 130.966 862.676 131.54 862.676 132.196C862.676 132.851 862.766 133.425 862.945 133.916C863.123 134.393 863.369 134.795 863.682 135.123C863.995 135.436 864.36 135.674 864.777 135.838C865.209 136.002 865.671 136.084 866.162 136.084ZM883.925 137.335C883.761 137.454 883.56 137.581 883.322 137.715C883.083 137.849 882.793 137.983 882.45 138.117C882.107 138.236 881.72 138.333 881.288 138.408C880.856 138.497 880.372 138.542 879.835 138.542C877.884 138.542 876.402 138.013 875.389 136.955C874.376 135.898 873.869 134.415 873.869 132.508C873.869 131.57 874.003 130.728 874.271 129.983C874.554 129.238 874.942 128.613 875.433 128.106C875.925 127.585 876.506 127.19 877.176 126.922C877.847 126.639 878.577 126.497 879.366 126.497C880.2 126.497 880.945 126.639 881.601 126.922C882.256 127.205 882.793 127.622 883.21 128.173C883.642 128.724 883.932 129.41 884.081 130.229C884.245 131.034 884.245 131.972 884.081 133.045H875.903C875.977 134.296 876.349 135.235 877.02 135.86C877.69 136.471 878.688 136.777 880.014 136.777C880.908 136.777 881.675 136.65 882.316 136.397C882.957 136.143 883.493 135.868 883.925 135.57V137.335ZM879.322 128.24C878.472 128.24 877.742 128.501 877.132 129.022C876.521 129.544 876.133 130.333 875.97 131.391H882.204C882.264 130.318 882.018 129.529 881.467 129.022C880.916 128.501 880.2 128.24 879.322 128.24ZM894.858 136.039C894.501 136.799 894.002 137.41 893.361 137.871C892.721 138.318 891.909 138.542 890.925 138.542C890.225 138.542 889.562 138.423 888.937 138.184C888.311 137.931 887.76 137.559 887.283 137.067C886.806 136.561 886.426 135.935 886.143 135.19C885.86 134.43 885.719 133.536 885.719 132.508C885.719 131.495 885.86 130.616 886.143 129.871C886.426 129.112 886.806 128.486 887.283 127.994C887.76 127.488 888.311 127.115 888.937 126.877C889.577 126.624 890.248 126.497 890.948 126.497C891.827 126.497 892.586 126.683 893.227 127.056C893.868 127.413 894.382 127.927 894.769 128.598V122.296H896.735V138.318H895.015L894.858 136.039ZM891.216 136.777C891.722 136.777 892.192 136.695 892.624 136.531C893.056 136.352 893.428 136.084 893.741 135.726C894.069 135.369 894.322 134.922 894.501 134.385C894.694 133.849 894.791 133.223 894.791 132.508C894.791 131.793 894.694 131.168 894.501 130.631C894.322 130.095 894.069 129.648 893.741 129.29C893.428 128.933 893.056 128.672 892.624 128.508C892.192 128.33 891.722 128.24 891.216 128.24C890.188 128.24 889.346 128.605 888.691 129.335C888.05 130.05 887.73 131.108 887.73 132.508C887.73 133.924 888.058 134.989 888.713 135.704C889.369 136.419 890.203 136.777 891.216 136.777ZM909.592 138.542C908.862 138.542 908.207 138.49 907.626 138.385C907.045 138.296 906.531 138.177 906.084 138.028C905.652 137.864 905.279 137.693 904.966 137.514C904.668 137.32 904.43 137.134 904.251 136.955V134.944C904.475 135.138 904.765 135.339 905.123 135.547C905.48 135.741 905.89 135.92 906.352 136.084C906.829 136.248 907.335 136.382 907.871 136.486C908.423 136.59 908.996 136.642 909.592 136.642C910.754 136.642 911.678 136.426 912.363 135.994C913.048 135.547 913.391 134.877 913.391 133.983C913.391 133.536 913.309 133.171 913.145 132.888C912.981 132.59 912.743 132.344 912.43 132.151C912.117 131.942 911.722 131.771 911.246 131.637C910.784 131.488 910.24 131.331 909.614 131.168C908.989 131.004 908.363 130.817 907.737 130.609C907.112 130.4 906.546 130.125 906.039 129.782C905.547 129.439 905.145 129.007 904.832 128.486C904.534 127.965 904.385 127.302 904.385 126.497C904.385 125.112 904.87 124.032 905.838 123.257C906.806 122.482 908.289 122.095 910.285 122.095C910.866 122.095 911.38 122.132 911.827 122.207C912.289 122.266 912.691 122.348 913.033 122.452C913.391 122.542 913.696 122.646 913.95 122.765C914.218 122.885 914.456 122.996 914.665 123.101V125.112C914.039 124.709 913.361 124.426 912.631 124.263C911.916 124.084 911.134 123.994 910.285 123.994C909.57 123.994 908.966 124.054 908.475 124.173C907.998 124.277 907.611 124.434 907.313 124.642C907.015 124.851 906.799 125.104 906.665 125.402C906.531 125.7 906.464 126.035 906.464 126.408C906.464 126.855 906.56 127.227 906.754 127.525C906.963 127.823 907.231 128.076 907.559 128.285C907.901 128.479 908.289 128.642 908.721 128.777C909.153 128.911 909.607 129.03 910.084 129.134C910.709 129.283 911.35 129.454 912.006 129.648C912.661 129.842 913.249 130.11 913.771 130.452C914.292 130.795 914.717 131.242 915.045 131.793C915.387 132.33 915.559 133.03 915.559 133.894C915.559 134.743 915.387 135.466 915.045 136.061C914.717 136.642 914.277 137.119 913.726 137.492C913.175 137.864 912.542 138.132 911.827 138.296C911.112 138.46 910.367 138.542 909.592 138.542ZM927.286 137.335C927.123 137.454 926.921 137.581 926.683 137.715C926.445 137.849 926.154 137.983 925.812 138.117C925.469 138.236 925.082 138.333 924.65 138.408C924.218 138.497 923.733 138.542 923.197 138.542C921.245 138.542 919.763 138.013 918.75 136.955C917.737 135.898 917.231 134.415 917.231 132.508C917.231 131.57 917.365 130.728 917.633 129.983C917.916 129.238 918.303 128.613 918.795 128.106C919.286 127.585 919.867 127.19 920.538 126.922C921.208 126.639 921.938 126.497 922.728 126.497C923.562 126.497 924.307 126.639 924.962 126.922C925.618 127.205 926.154 127.622 926.571 128.173C927.003 128.724 927.294 129.41 927.443 130.229C927.607 131.034 927.607 131.972 927.443 133.045H919.264C919.339 134.296 919.711 135.235 920.381 135.86C921.052 136.471 922.05 136.777 923.376 136.777C924.27 136.777 925.037 136.65 925.677 136.397C926.318 136.143 926.854 135.868 927.286 135.57V137.335ZM922.683 128.24C921.834 128.24 921.104 128.501 920.493 129.022C919.882 129.544 919.495 130.333 919.331 131.391H925.566C925.625 130.318 925.38 129.529 924.828 129.022C924.277 128.501 923.562 128.24 922.683 128.24ZM935.65 128.687C934.816 128.762 934.056 128.978 933.371 129.335C932.7 129.678 932.201 130.214 931.874 130.944V138.318H929.907V126.721H931.628L931.829 129.246H931.874C932.201 128.561 932.671 127.965 933.281 127.458C933.907 126.937 934.697 126.616 935.65 126.497V128.687ZM944.14 138.318H940.966L936.989 126.721H939.112L942.642 137.268L946.151 126.721H948.117L944.14 138.318ZM950.946 125.022C950.544 125.022 950.223 124.903 949.985 124.665C949.747 124.412 949.627 124.106 949.627 123.749C949.627 123.391 949.747 123.086 949.985 122.832C950.223 122.579 950.544 122.452 950.946 122.452C951.333 122.452 951.639 122.579 951.862 122.832C952.085 123.086 952.197 123.391 952.197 123.749C952.197 124.106 952.085 124.412 951.862 124.665C951.639 124.903 951.333 125.022 950.946 125.022ZM951.907 126.721V138.318H949.94V126.721H951.907ZM960.118 138.542C959.224 138.542 958.412 138.408 957.682 138.14C956.967 137.857 956.356 137.462 955.85 136.955C955.343 136.434 954.956 135.801 954.688 135.056C954.419 134.311 954.285 133.462 954.285 132.508C954.285 131.57 954.419 130.728 954.688 129.983C954.971 129.238 955.365 128.613 955.872 128.106C956.378 127.585 956.997 127.19 957.727 126.922C958.457 126.639 959.284 126.497 960.207 126.497C960.922 126.497 961.578 126.579 962.174 126.743C962.77 126.892 963.261 127.115 963.649 127.413V129.179C963.172 128.866 962.635 128.635 962.04 128.486C961.459 128.322 960.855 128.24 960.23 128.24C958.874 128.24 957.876 128.59 957.235 129.29C956.609 129.991 956.297 131.063 956.297 132.508C956.297 133.953 956.602 135.026 957.213 135.726C957.824 136.426 958.792 136.777 960.118 136.777C960.818 136.777 961.459 136.695 962.04 136.531C962.635 136.352 963.172 136.128 963.649 135.86V137.626C963.231 137.879 962.725 138.095 962.129 138.274C961.548 138.452 960.878 138.542 960.118 138.542ZM975.274 137.335C975.11 137.454 974.909 137.581 974.671 137.715C974.433 137.849 974.142 137.983 973.799 138.117C973.457 138.236 973.07 138.333 972.637 138.408C972.205 138.497 971.721 138.542 971.185 138.542C969.233 138.542 967.751 138.013 966.738 136.955C965.725 135.898 965.218 134.415 965.218 132.508C965.218 131.57 965.353 130.728 965.621 129.983C965.904 129.238 966.291 128.613 966.783 128.106C967.274 127.585 967.855 127.19 968.526 126.922C969.196 126.639 969.926 126.497 970.716 126.497C971.55 126.497 972.295 126.639 972.95 126.922C973.606 127.205 974.142 127.622 974.559 128.173C974.991 128.724 975.282 129.41 975.431 130.229C975.595 131.034 975.595 131.972 975.431 133.045H967.252C967.327 134.296 967.699 135.235 968.369 135.86C969.04 136.471 970.038 136.777 971.364 136.777C972.258 136.777 973.025 136.65 973.665 136.397C974.306 136.143 974.842 135.868 975.274 135.57V137.335ZM970.671 128.24C969.822 128.24 969.092 128.501 968.481 129.022C967.87 129.544 967.483 130.333 967.319 131.391H973.554C973.613 130.318 973.367 129.529 972.816 129.022C972.265 128.501 971.55 128.24 970.671 128.24ZM815.684 154.397V164.318H813.718V154.397H812.31V152.721H813.718V152.43C813.718 151.06 814.083 149.994 814.813 149.235C815.543 148.475 816.541 148.095 817.807 148.095C818.358 148.095 818.85 148.162 819.282 148.296V150.084C819.148 150.024 818.954 149.972 818.701 149.927C818.448 149.883 818.18 149.86 817.897 149.86C817.211 149.86 816.668 150.069 816.265 150.486C815.878 150.903 815.684 151.551 815.684 152.43V152.721H819.036V154.397H815.684ZM825.663 164.542C824.873 164.542 824.136 164.408 823.451 164.14C822.765 163.871 822.169 163.484 821.663 162.978C821.171 162.456 820.784 161.823 820.501 161.078C820.218 160.333 820.076 159.477 820.076 158.508C820.076 157.555 820.218 156.706 820.501 155.961C820.784 155.201 821.171 154.568 821.663 154.061C822.169 153.555 822.765 153.168 823.451 152.899C824.136 152.631 824.873 152.497 825.663 152.497C826.467 152.497 827.212 152.631 827.897 152.899C828.583 153.168 829.171 153.555 829.663 154.061C830.169 154.568 830.564 155.201 830.847 155.961C831.145 156.706 831.294 157.555 831.294 158.508C831.294 159.477 831.145 160.333 830.847 161.078C830.564 161.823 830.169 162.456 829.663 162.978C829.171 163.484 828.583 163.871 827.897 164.14C827.212 164.408 826.467 164.542 825.663 164.542ZM825.663 162.777C826.184 162.777 826.661 162.695 827.093 162.531C827.54 162.352 827.927 162.091 828.255 161.749C828.583 161.391 828.836 160.944 829.015 160.408C829.194 159.871 829.283 159.238 829.283 158.508C829.283 157.778 829.194 157.145 829.015 156.609C828.836 156.073 828.583 155.633 828.255 155.29C827.927 154.933 827.54 154.672 827.093 154.508C826.661 154.33 826.184 154.24 825.663 154.24C825.141 154.24 824.665 154.33 824.233 154.508C823.801 154.672 823.421 154.933 823.093 155.29C822.78 155.633 822.534 156.073 822.356 156.609C822.177 157.145 822.087 157.778 822.087 158.508C822.087 159.238 822.177 159.871 822.356 160.408C822.534 160.944 822.78 161.391 823.093 161.749C823.421 162.091 823.801 162.352 824.233 162.531C824.665 162.695 825.141 162.777 825.663 162.777ZM839.434 154.687C838.6 154.762 837.84 154.978 837.155 155.335C836.484 155.678 835.985 156.214 835.658 156.944V164.318H833.691V152.721H835.412L835.613 155.246H835.658C835.985 154.561 836.455 153.965 837.065 153.458C837.691 152.937 838.481 152.616 839.434 152.497V154.687ZM853.735 164.542C852.663 164.542 851.657 164.363 850.719 164.006C849.78 163.633 848.968 163.097 848.283 162.397C847.598 161.696 847.054 160.832 846.652 159.804C846.264 158.777 846.071 157.592 846.071 156.251C846.071 154.911 846.264 153.734 846.652 152.721C847.054 151.693 847.598 150.844 848.283 150.173C848.968 149.488 849.78 148.974 850.719 148.631C851.657 148.274 852.663 148.095 853.735 148.095C854.823 148.095 855.836 148.274 856.775 148.631C857.713 148.974 858.525 149.488 859.21 150.173C859.896 150.858 860.432 151.715 860.819 152.743C861.207 153.756 861.4 154.933 861.4 156.274C861.4 157.6 861.207 158.777 860.819 159.804C860.432 160.832 859.896 161.696 859.21 162.397C858.525 163.097 857.713 163.633 856.775 164.006C855.836 164.363 854.823 164.542 853.735 164.542ZM853.735 162.642C854.51 162.642 855.225 162.531 855.881 162.307C856.536 162.069 857.102 161.704 857.579 161.212C858.071 160.706 858.451 160.05 858.719 159.246C859.002 158.441 859.143 157.466 859.143 156.318C859.143 155.171 859.002 154.196 858.719 153.391C858.451 152.587 858.071 151.939 857.579 151.447C857.102 150.94 856.536 150.575 855.881 150.352C855.225 150.114 854.51 149.994 853.735 149.994C852.961 149.994 852.246 150.114 851.59 150.352C850.935 150.575 850.361 150.94 849.87 151.447C849.393 151.939 849.013 152.587 848.73 153.391C848.462 154.196 848.328 155.171 848.328 156.318C848.328 157.466 848.462 158.441 848.73 159.246C849.013 160.05 849.393 160.706 849.87 161.212C850.361 161.704 850.935 162.069 851.59 162.307C852.246 162.531 852.961 162.642 853.735 162.642ZM869.77 164.542C868.876 164.542 868.101 164.333 867.446 163.916C866.805 163.499 866.291 162.925 865.904 162.196V168.274H863.937V152.721H865.658L865.859 154.978C866.246 154.218 866.768 153.615 867.423 153.168C868.079 152.721 868.891 152.497 869.859 152.497C870.529 152.497 871.17 152.624 871.781 152.877C872.407 153.115 872.95 153.488 873.412 153.994C873.889 154.486 874.261 155.112 874.529 155.871C874.812 156.616 874.954 157.495 874.954 158.508C874.954 159.536 874.812 160.43 874.529 161.19C874.246 161.935 873.867 162.561 873.39 163.067C872.913 163.559 872.362 163.931 871.736 164.184C871.11 164.423 870.455 164.542 869.77 164.542ZM869.479 162.777C870.507 162.777 871.334 162.426 871.96 161.726C872.6 161.011 872.921 159.939 872.921 158.508C872.921 157.108 872.6 156.05 871.96 155.335C871.334 154.605 870.507 154.24 869.479 154.24C868.973 154.24 868.496 154.33 868.049 154.508C867.617 154.687 867.237 154.955 866.909 155.313C866.596 155.655 866.343 156.095 866.15 156.631C865.971 157.168 865.881 157.793 865.881 158.508C865.881 159.223 865.971 159.849 866.15 160.385C866.343 160.922 866.596 161.369 866.909 161.726C867.237 162.084 867.617 162.352 868.049 162.531C868.496 162.695 868.973 162.777 869.479 162.777ZM886.565 163.335C886.402 163.454 886.2 163.581 885.962 163.715C885.724 163.849 885.433 163.983 885.091 164.117C884.748 164.236 884.361 164.333 883.929 164.408C883.497 164.497 883.012 164.542 882.476 164.542C880.524 164.542 879.042 164.013 878.029 162.955C877.016 161.898 876.51 160.415 876.51 158.508C876.51 157.57 876.644 156.728 876.912 155.983C877.195 155.238 877.582 154.613 878.074 154.106C878.565 153.585 879.146 153.19 879.817 152.922C880.487 152.639 881.217 152.497 882.007 152.497C882.841 152.497 883.586 152.639 884.241 152.922C884.897 153.205 885.433 153.622 885.85 154.173C886.282 154.724 886.573 155.41 886.722 156.229C886.886 157.034 886.886 157.972 886.722 159.045H878.543C878.618 160.296 878.99 161.235 879.66 161.86C880.331 162.471 881.329 162.777 882.655 162.777C883.549 162.777 884.316 162.65 884.956 162.397C885.597 162.143 886.133 161.868 886.565 161.57V163.335ZM881.962 154.24C881.113 154.24 880.383 154.501 879.772 155.022C879.161 155.544 878.774 156.333 878.61 157.391H884.845C884.904 156.318 884.659 155.529 884.107 155.022C883.556 154.501 882.841 154.24 881.962 154.24ZM894.683 154.24C893.789 154.24 893.059 154.449 892.493 154.866C891.942 155.268 891.495 155.79 891.153 156.43V164.318H889.186V152.721H891.041L891.108 154.799H891.153C891.465 154.128 891.957 153.577 892.627 153.145C893.298 152.713 894.147 152.497 895.175 152.497C896.322 152.497 897.231 152.803 897.901 153.413C898.586 154.009 898.929 154.933 898.929 156.184V164.318H896.963V156.385C896.963 155.581 896.761 155.022 896.359 154.709C895.957 154.397 895.398 154.24 894.683 154.24ZM906.777 164.542C906.047 164.542 905.392 164.49 904.811 164.385C904.23 164.296 903.716 164.177 903.269 164.028C902.837 163.864 902.464 163.693 902.151 163.514C901.853 163.32 901.615 163.134 901.436 162.955V160.944C901.66 161.138 901.95 161.339 902.308 161.547C902.665 161.741 903.075 161.92 903.537 162.084C904.013 162.248 904.52 162.382 905.056 162.486C905.608 162.59 906.181 162.642 906.777 162.642C907.939 162.642 908.863 162.426 909.548 161.994C910.233 161.547 910.576 160.877 910.576 159.983C910.576 159.536 910.494 159.171 910.33 158.888C910.166 158.59 909.928 158.344 909.615 158.151C909.302 157.942 908.907 157.771 908.431 157.637C907.969 157.488 907.425 157.331 906.799 157.168C906.174 157.004 905.548 156.817 904.922 156.609C904.297 156.4 903.73 156.125 903.224 155.782C902.732 155.439 902.33 155.007 902.017 154.486C901.719 153.965 901.57 153.302 901.57 152.497C901.57 151.112 902.054 150.032 903.023 149.257C903.991 148.482 905.473 148.095 907.47 148.095C908.051 148.095 908.565 148.132 909.012 148.207C909.473 148.266 909.876 148.348 910.218 148.452C910.576 148.542 910.881 148.646 911.135 148.765C911.403 148.885 911.641 148.996 911.85 149.101V151.112C911.224 150.709 910.546 150.426 909.816 150.263C909.101 150.084 908.319 149.994 907.47 149.994C906.755 149.994 906.151 150.054 905.66 150.173C905.183 150.277 904.796 150.434 904.498 150.642C904.2 150.851 903.984 151.104 903.85 151.402C903.716 151.7 903.649 152.035 903.649 152.408C903.649 152.855 903.745 153.227 903.939 153.525C904.148 153.823 904.416 154.076 904.743 154.285C905.086 154.479 905.473 154.642 905.905 154.777C906.338 154.911 906.792 155.03 907.269 155.134C907.894 155.283 908.535 155.454 909.19 155.648C909.846 155.842 910.434 156.11 910.956 156.452C911.477 156.795 911.902 157.242 912.23 157.793C912.572 158.33 912.743 159.03 912.743 159.894C912.743 160.743 912.572 161.466 912.23 162.061C911.902 162.642 911.462 163.119 910.911 163.492C910.36 163.864 909.727 164.132 909.012 164.296C908.297 164.46 907.552 164.542 906.777 164.542ZM924.471 163.335C924.307 163.454 924.106 163.581 923.868 163.715C923.63 163.849 923.339 163.983 922.996 164.117C922.654 164.236 922.266 164.333 921.834 164.408C921.402 164.497 920.918 164.542 920.382 164.542C918.43 164.542 916.948 164.013 915.935 162.955C914.922 161.898 914.415 160.415 914.415 158.508C914.415 157.57 914.55 156.728 914.818 155.983C915.101 155.238 915.488 154.613 915.98 154.106C916.471 153.585 917.052 153.19 917.723 152.922C918.393 152.639 919.123 152.497 919.913 152.497C920.747 152.497 921.492 152.639 922.147 152.922C922.803 153.205 923.339 153.622 923.756 154.173C924.188 154.724 924.479 155.41 924.628 156.229C924.792 157.034 924.792 157.972 924.628 159.045H916.449C916.523 160.296 916.896 161.235 917.566 161.86C918.237 162.471 919.235 162.777 920.561 162.777C921.455 162.777 922.222 162.65 922.862 162.397C923.503 162.143 924.039 161.868 924.471 161.57V163.335ZM919.868 154.24C919.019 154.24 918.289 154.501 917.678 155.022C917.067 155.544 916.68 156.333 916.516 157.391H922.751C922.81 156.318 922.564 155.529 922.013 155.022C921.462 154.501 920.747 154.24 919.868 154.24ZM933.885 162.106C933.751 162.374 933.58 162.657 933.371 162.955C933.163 163.238 932.902 163.499 932.589 163.737C932.276 163.976 931.904 164.169 931.472 164.318C931.055 164.467 930.563 164.542 929.997 164.542C928.954 164.542 928.112 164.251 927.472 163.67C926.831 163.074 926.511 162.225 926.511 161.123C926.511 159.857 926.95 158.925 927.829 158.33C928.723 157.734 929.99 157.436 931.628 157.436H933.796V156.475C933.796 155.67 933.587 155.097 933.17 154.754C932.753 154.412 932.038 154.24 931.025 154.24C930.31 154.24 929.632 154.359 928.991 154.598C928.351 154.821 927.777 155.082 927.271 155.38V153.615C927.688 153.361 928.247 153.115 928.947 152.877C929.662 152.624 930.444 152.497 931.293 152.497C932.753 152.497 933.863 152.803 934.623 153.413C935.382 154.009 935.762 154.94 935.762 156.207V162.441C935.762 162.575 935.762 162.732 935.762 162.911C935.777 163.074 935.785 163.246 935.785 163.425C935.8 163.603 935.814 163.775 935.829 163.939C935.844 164.088 935.859 164.214 935.874 164.318H934.086C934.042 164.11 933.997 163.819 933.952 163.447C933.922 163.06 933.908 162.724 933.908 162.441L933.885 162.106ZM930.422 162.777C931.032 162.777 931.554 162.65 931.986 162.397C932.418 162.143 932.768 161.853 933.036 161.525C933.304 161.182 933.498 160.855 933.617 160.542C933.736 160.214 933.796 159.983 933.796 159.849V159H931.829C930.652 159 929.796 159.171 929.26 159.514C928.738 159.842 928.477 160.341 928.477 161.011C928.477 161.533 928.634 161.957 928.947 162.285C929.26 162.613 929.751 162.777 930.422 162.777ZM944.597 154.687C943.763 154.762 943.003 154.978 942.318 155.335C941.648 155.678 941.149 156.214 940.821 156.944V164.318H938.854V152.721H940.575L940.776 155.246H940.821C941.149 154.561 941.618 153.965 942.229 153.458C942.854 152.937 943.644 152.616 944.597 152.497V154.687ZM951.672 164.542C950.779 164.542 949.967 164.408 949.237 164.14C948.522 163.857 947.911 163.462 947.404 162.955C946.898 162.434 946.51 161.801 946.242 161.056C945.974 160.311 945.84 159.462 945.84 158.508C945.84 157.57 945.974 156.728 946.242 155.983C946.525 155.238 946.92 154.613 947.427 154.106C947.933 153.585 948.551 153.19 949.281 152.922C950.011 152.639 950.838 152.497 951.762 152.497C952.477 152.497 953.132 152.579 953.728 152.743C954.324 152.892 954.816 153.115 955.203 153.413V155.179C954.726 154.866 954.19 154.635 953.594 154.486C953.013 154.322 952.41 154.24 951.784 154.24C950.428 154.24 949.43 154.59 948.79 155.29C948.164 155.991 947.851 157.063 947.851 158.508C947.851 159.953 948.157 161.026 948.767 161.726C949.378 162.426 950.347 162.777 951.672 162.777C952.373 162.777 953.013 162.695 953.594 162.531C954.19 162.352 954.726 162.128 955.203 161.86V163.626C954.786 163.879 954.279 164.095 953.684 164.274C953.103 164.452 952.432 164.542 951.672 164.542ZM963.097 154.24C962.203 154.24 961.473 154.449 960.907 154.866C960.356 155.268 959.909 155.79 959.566 156.43V164.318H957.6V148.296H959.566V152.721L959.522 154.799H959.566C959.879 154.143 960.371 153.6 961.041 153.168C961.712 152.721 962.561 152.497 963.589 152.497C964.736 152.497 965.645 152.803 966.315 153.413C967 154.009 967.343 154.933 967.343 156.184V164.318H965.377V156.385C965.377 155.581 965.175 155.022 964.773 154.709C964.371 154.397 963.812 154.24 963.097 154.24Z" fill="#262626"/>
</g>
<defs>
<clipPath id="clip0_18_148">
<rect width="1000" height="188" fill="white"/>
</clipPath>
</defs>
</svg>
