<?xml version="1.0" encoding="UTF-8"?>
<svg xmlns="http://www.w3.org/2000/svg" xmlns:xlink="http://www.w3.org/1999/xlink" width="16px" height="16px" viewBox="0 0 16 16" version="1.1">
<g id="surface1">
<path style=" stroke:none;fill-rule:evenodd;fill:rgb(0%,0%,0%);fill-opacity:1;" d="M 2.5 8 L 13.5 8 L 13.5 11 C 13.5 11.828125 12.828125 12.5 12 12.5 L 4 12.5 C 3.171875 12.5 2.5 11.828125 2.5 11 Z M 13.195312 6.5 L 11.347656 3.722656 C 11.253906 3.582031 11.097656 3.5 10.929688 3.5 L 5.070312 3.5 C 4.902344 3.5 4.746094 3.582031 4.652344 3.722656 L 2.804688 6.5 Z M 15 7.40625 L 15 11 C 15 12.65625 13.65625 14 12 14 L 4 14 C 2.34375 14 1 12.65625 1 11 L 1 7.40625 C 1 6.816406 1.175781 6.238281 1.503906 5.742188 L 3.40625 2.890625 C 3.777344 2.335938 4.402344 2 5.070312 2 L 10.929688 2 C 11.597656 2 12.222656 2.332031 12.59375 2.890625 L 14.496094 5.742188 C 14.824219 6.238281 15 6.816406 15 7.40625 Z M 9.25 11 C 9.664062 11 10 10.664062 10 10.25 C 10 9.835938 9.664062 9.5 9.25 9.5 L 6.75 9.5 C 6.335938 9.5 6 9.835938 6 10.25 C 6 10.664062 6.335938 11 6.75 11 Z M 9.25 11 "/>
</g>
</svg>
