<svg width="700" height="460" viewBox="0 0 700 460" fill="none" xmlns="http://www.w3.org/2000/svg">
<g filter="url(#filter0_d_4_130)">
<rect x="497" y="235" width="180" height="180" rx="5" fill="white"/>
</g>
<path d="M550.51 265.302C549.978 265.293 549.497 265.377 549.068 265.554C548.638 265.731 548.312 266.011 548.088 266.394L548.088 271L546.464 271L546.464 263.734L547.948 263.734L548.06 265.246L548.088 265.246C548.321 264.798 548.638 264.425 549.04 264.126C549.45 263.827 549.94 263.65 550.51 263.594L550.51 265.302ZM556.471 269.81C556.275 270.183 555.981 270.501 555.589 270.762C555.206 271.014 554.702 271.14 554.077 271.14C553.395 271.14 552.84 270.944 552.411 270.552C551.981 270.16 551.767 269.563 551.767 268.76L551.767 263.734L553.405 263.734L553.405 268.718C553.405 269.138 553.521 269.423 553.755 269.572C553.988 269.712 554.273 269.782 554.609 269.782C555.066 269.782 555.439 269.689 555.729 269.502C556.018 269.306 556.265 269.045 556.471 268.718L556.471 263.734L558.081 263.734L558.081 271L556.597 271L556.499 269.81L556.471 269.81ZM559.777 266.016L563.207 266.016L563.207 267.402L559.777 267.402L559.777 266.016ZM568.39 271.14C567.802 271.14 567.274 271.056 566.808 270.888C566.341 270.711 565.944 270.463 565.618 270.146C565.291 269.819 565.039 269.423 564.862 268.956C564.684 268.489 564.596 267.957 564.596 267.36C564.596 266.772 564.684 266.245 564.862 265.778C565.039 265.311 565.291 264.919 565.618 264.602C565.944 264.275 566.346 264.028 566.822 263.86C567.298 263.683 567.83 263.594 568.418 263.594C568.922 263.594 569.36 263.65 569.734 263.762C570.116 263.874 570.42 264.014 570.644 264.182L570.644 265.526C570.354 265.339 570.037 265.195 569.692 265.092C569.356 264.989 568.964 264.938 568.516 264.938C567.013 264.938 566.262 265.745 566.262 267.36C566.262 268.975 566.999 269.782 568.474 269.782C568.95 269.782 569.356 269.731 569.692 269.628C570.037 269.516 570.354 269.376 570.644 269.208L570.644 270.552C570.401 270.711 570.098 270.851 569.734 270.972C569.37 271.084 568.922 271.14 568.39 271.14ZM578.12 270.468C578.017 270.533 577.891 270.608 577.742 270.692C577.592 270.767 577.415 270.837 577.21 270.902C577.004 270.967 576.766 271.023 576.496 271.07C576.225 271.117 575.917 271.14 575.572 271.14C574.237 271.14 573.238 270.809 572.576 270.146C571.922 269.483 571.596 268.555 571.596 267.36C571.596 266.772 571.684 266.245 571.862 265.778C572.039 265.311 572.286 264.919 572.604 264.602C572.921 264.275 573.299 264.028 573.738 263.86C574.176 263.683 574.657 263.594 575.18 263.594C575.721 263.594 576.206 263.683 576.636 263.86C577.074 264.037 577.434 264.303 577.714 264.658C577.994 265.013 578.185 265.451 578.288 265.974C578.4 266.497 578.404 267.108 578.302 267.808L573.276 267.808C573.341 268.471 573.56 268.97 573.934 269.306C574.307 269.633 574.89 269.796 575.684 269.796C576.262 269.796 576.743 269.726 577.126 269.586C577.518 269.437 577.849 269.283 578.12 269.124L578.12 270.468ZM575.18 264.882C574.704 264.882 574.302 265.027 573.976 265.316C573.649 265.605 573.434 266.035 573.332 266.604L576.748 266.604C576.766 266.016 576.636 265.582 576.356 265.302C576.076 265.022 575.684 264.882 575.18 264.882ZM583.297 264.938C582.821 264.938 582.429 265.041 582.121 265.246C581.813 265.442 581.561 265.699 581.365 266.016L581.365 271L579.741 271L579.741 263.734L581.281 263.734L581.337 264.924L581.365 264.924C581.561 264.541 581.855 264.224 582.247 263.972C582.648 263.72 583.157 263.594 583.773 263.594C584.482 263.594 585.061 263.785 585.509 264.168C585.966 264.551 586.195 265.134 586.195 265.918L586.195 271L584.557 271L584.557 266.086C584.557 265.666 584.445 265.372 584.221 265.204C583.997 265.027 583.689 264.938 583.297 264.938ZM591.837 270.776C591.669 270.879 591.459 270.963 591.207 271.028C590.955 271.103 590.665 271.14 590.339 271.14C589.947 271.14 589.615 271.089 589.345 270.986C589.083 270.874 588.869 270.725 588.701 270.538C588.533 270.351 588.411 270.137 588.337 269.894C588.262 269.642 588.225 269.376 588.225 269.096L588.225 265.05L587.357 265.05L587.357 263.734L588.225 263.734L588.225 262.208L589.849 262.208L589.849 263.734L591.935 263.734L591.935 265.05L589.849 265.05L589.849 268.914C589.849 269.213 589.919 269.432 590.059 269.572C590.208 269.712 590.451 269.782 590.787 269.782C591.011 269.782 591.207 269.749 591.375 269.684C591.543 269.619 591.697 269.53 591.837 269.418L591.837 270.776ZM597.391 265.302C596.859 265.293 596.378 265.377 595.949 265.554C595.519 265.731 595.193 266.011 594.969 266.394L594.969 271L593.345 271L593.345 263.734L594.829 263.734L594.941 265.246L594.969 265.246C595.202 264.798 595.519 264.425 595.921 264.126C596.331 263.827 596.821 263.65 597.391 263.594L597.391 265.302ZM602.767 269.726C602.692 269.894 602.59 270.062 602.459 270.23C602.338 270.398 602.184 270.552 601.997 270.692C601.82 270.823 601.605 270.93 601.353 271.014C601.101 271.098 600.807 271.14 600.471 271.14C600.154 271.14 599.86 271.093 599.589 271C599.318 270.916 599.08 270.785 598.875 270.608C598.679 270.431 598.52 270.211 598.399 269.95C598.287 269.679 598.231 269.371 598.231 269.026C598.231 268.233 598.525 267.64 599.113 267.248C599.701 266.847 600.532 266.646 601.605 266.646L602.711 266.646L602.711 266.198C602.711 265.722 602.59 265.395 602.347 265.218C602.104 265.031 601.703 264.938 601.143 264.938C600.667 264.938 600.219 265.008 599.799 265.148C599.388 265.279 599.024 265.433 598.707 265.61L598.707 264.252C598.996 264.093 599.379 263.944 599.855 263.804C600.331 263.664 600.849 263.594 601.409 263.594C602.342 263.594 603.061 263.79 603.565 264.182C604.078 264.565 604.335 265.181 604.335 266.03L604.335 269.824C604.335 269.908 604.335 270.006 604.335 270.118C604.344 270.221 604.349 270.328 604.349 270.44C604.358 270.552 604.368 270.659 604.377 270.762C604.386 270.855 604.396 270.935 604.405 271L602.907 271C602.879 270.869 602.851 270.687 602.823 270.454C602.804 270.221 602.79 270.011 602.781 269.824L602.767 269.726ZM600.919 269.88C601.264 269.88 601.549 269.81 601.773 269.67C602.006 269.521 602.193 269.353 602.333 269.166C602.473 268.97 602.571 268.779 602.627 268.592C602.683 268.405 602.711 268.275 602.711 268.2L602.711 267.71L601.703 267.71C601.059 267.71 600.588 267.813 600.289 268.018C599.99 268.214 599.841 268.494 599.841 268.858C599.841 269.175 599.93 269.427 600.107 269.614C600.294 269.791 600.564 269.88 600.919 269.88ZM607.711 260.962L607.711 271L606.087 271L606.087 260.962L607.711 260.962ZM614.096 271L612.416 271L612.416 262.81L609.56 264.938L609.56 263.258L612.64 260.962L614.096 260.962L614.096 271ZM617.089 266.016L620.519 266.016L620.519 267.402L617.089 267.402L617.089 266.016ZM625.702 271.14C625.114 271.14 624.587 271.056 624.12 270.888C623.654 270.711 623.257 270.463 622.93 270.146C622.604 269.819 622.352 269.423 622.174 268.956C621.997 268.489 621.908 267.957 621.908 267.36C621.908 266.772 621.997 266.245 622.174 265.778C622.352 265.311 622.604 264.919 622.93 264.602C623.257 264.275 623.658 264.028 624.134 263.86C624.61 263.683 625.142 263.594 625.73 263.594C626.234 263.594 626.673 263.65 627.046 263.762C627.429 263.874 627.732 264.014 627.956 264.182L627.956 265.526C627.667 265.339 627.35 265.195 627.004 265.092C626.668 264.989 626.276 264.938 625.828 264.938C624.326 264.938 623.574 265.745 623.574 267.36C623.574 268.975 624.312 269.782 625.786 269.782C626.262 269.782 626.668 269.731 627.004 269.628C627.35 269.516 627.667 269.376 627.956 269.208L627.956 270.552C627.714 270.711 627.41 270.851 627.046 270.972C626.682 271.084 626.234 271.14 625.702 271.14Z" fill="#18123D"/>
<path d="M587 382.333C609.091 382.333 627 374.871 627 365.667V305.667H547V365.667C547 374.871 564.909 382.333 587 382.333Z" fill="#FFF2BF" stroke="#FFDB4D" stroke-width="2" stroke-linecap="round" stroke-linejoin="round"/>
<ellipse cx="587" cy="305.667" rx="40" ry="16.6667" fill="#FFF2BF" stroke="#FFDB4D" stroke-width="2" stroke-linecap="round" stroke-linejoin="round"/>
<path d="M583.464 331.962L586.922 331.962C588.191 331.962 589.148 332.2 589.792 332.676C590.436 333.152 590.758 333.913 590.758 334.958C590.758 335.798 590.562 336.447 590.17 336.904C589.787 337.352 589.264 337.665 588.602 337.842L591.192 342L589.246 342L586.796 338.038L585.158 338.038L585.158 342L583.464 342L583.464 331.962ZM585.158 333.432L585.158 336.624L586.866 336.624C587.202 336.624 587.5 336.596 587.762 336.54C588.032 336.484 588.261 336.391 588.448 336.26C588.634 336.129 588.774 335.957 588.868 335.742C588.97 335.527 589.022 335.261 589.022 334.944C589.022 334.384 588.84 333.992 588.476 333.768C588.121 333.544 587.603 333.432 586.922 333.432L585.158 333.432ZM570.123 359.946C569.404 359.115 568.867 358.173 568.513 357.118C568.167 356.063 567.995 354.925 567.995 353.702C567.995 353.095 568.037 352.498 568.121 351.91C568.214 351.322 568.349 350.757 568.527 350.216C568.704 349.675 568.923 349.171 569.185 348.704C569.455 348.228 569.768 347.799 570.123 347.416L571.761 347.416C571.387 347.78 571.061 348.2 570.781 348.676C570.51 349.143 570.281 349.647 570.095 350.188C569.917 350.72 569.782 351.28 569.689 351.868C569.605 352.456 569.563 353.053 569.563 353.66C569.563 354.883 569.74 356.026 570.095 357.09C570.449 358.145 571.005 359.097 571.761 359.946L570.123 359.946ZM575.552 358.14C575.188 358.14 574.857 358.107 574.558 358.042C574.269 357.986 574.012 357.916 573.788 357.832C573.564 357.748 573.373 357.659 573.214 357.566C573.065 357.473 572.943 357.389 572.85 357.314L572.85 356.026C572.943 356.11 573.069 356.203 573.228 356.306C573.396 356.399 573.587 356.493 573.802 356.586C574.026 356.67 574.278 356.74 574.558 356.796C574.838 356.852 575.151 356.88 575.496 356.88C576.009 356.88 576.383 356.805 576.616 356.656C576.859 356.497 576.98 356.269 576.98 355.97C576.98 355.774 576.933 355.62 576.84 355.508C576.747 355.396 576.621 355.307 576.462 355.242C576.303 355.177 576.117 355.13 575.902 355.102C575.697 355.065 575.482 355.023 575.258 354.976C574.969 354.92 574.679 354.85 574.39 354.766C574.11 354.673 573.853 354.547 573.62 354.388C573.396 354.229 573.209 354.024 573.06 353.772C572.92 353.52 572.85 353.198 572.85 352.806C572.85 352.115 573.107 351.574 573.62 351.182C574.133 350.79 574.866 350.594 575.818 350.594C576.359 350.594 576.826 350.65 577.218 350.762C577.619 350.874 577.913 350.991 578.1 351.112L578.1 352.4C577.876 352.251 577.587 352.12 577.232 352.008C576.877 351.896 576.429 351.84 575.888 351.84C575.356 351.84 574.969 351.91 574.726 352.05C574.483 352.19 574.362 352.409 574.362 352.708C574.362 352.876 574.404 353.011 574.488 353.114C574.581 353.207 574.698 353.282 574.838 353.338C574.987 353.394 575.155 353.441 575.342 353.478C575.538 353.506 575.739 353.539 575.944 353.576C576.233 353.632 576.527 353.702 576.826 353.786C577.134 353.861 577.409 353.982 577.652 354.15C577.904 354.309 578.109 354.523 578.268 354.794C578.427 355.065 578.506 355.415 578.506 355.844C578.506 356.283 578.422 356.651 578.254 356.95C578.086 357.239 577.862 357.473 577.582 357.65C577.302 357.827 576.985 357.953 576.63 358.028C576.275 358.103 575.916 358.14 575.552 358.14ZM583.777 357.916C583.619 358.355 583.446 358.742 583.259 359.078C583.082 359.414 582.872 359.694 582.629 359.918C582.396 360.151 582.121 360.324 581.803 360.436C581.495 360.557 581.131 360.618 580.711 360.618C580.254 360.618 579.862 360.543 579.535 360.394L579.535 358.938C579.666 359.041 579.829 359.12 580.025 359.176C580.221 359.232 580.436 359.26 580.669 359.26C580.987 359.26 581.248 359.19 581.453 359.05C581.659 358.919 581.845 358.719 582.013 358.448L579.087 350.734L580.837 350.734L582.867 356.376L584.883 350.734L586.395 350.734L583.777 357.916ZM591.028 351.938C590.552 351.938 590.16 352.041 589.852 352.246C589.544 352.442 589.292 352.699 589.096 353.016L589.096 358L587.472 358L587.472 350.734L589.012 350.734L589.068 351.924L589.096 351.924C589.292 351.541 589.586 351.224 589.978 350.972C590.38 350.72 590.888 350.594 591.504 350.594C592.214 350.594 592.792 350.785 593.24 351.168C593.698 351.551 593.926 352.134 593.926 352.918L593.926 358L592.288 358L592.288 353.086C592.288 352.666 592.176 352.372 591.952 352.204C591.728 352.027 591.42 351.938 591.028 351.938ZM599.008 358.14C598.42 358.14 597.893 358.056 597.426 357.888C596.959 357.711 596.563 357.463 596.236 357.146C595.909 356.819 595.657 356.423 595.48 355.956C595.303 355.489 595.214 354.957 595.214 354.36C595.214 353.772 595.303 353.245 595.48 352.778C595.657 352.311 595.909 351.919 596.236 351.602C596.563 351.275 596.964 351.028 597.44 350.86C597.916 350.683 598.448 350.594 599.036 350.594C599.54 350.594 599.979 350.65 600.352 350.762C600.735 350.874 601.038 351.014 601.262 351.182L601.262 352.526C600.973 352.339 600.655 352.195 600.31 352.092C599.974 351.989 599.582 351.938 599.134 351.938C597.631 351.938 596.88 352.745 596.88 354.36C596.88 355.975 597.617 356.782 599.092 356.782C599.568 356.782 599.974 356.731 600.31 356.628C600.655 356.516 600.973 356.376 601.262 356.208L601.262 357.552C601.019 357.711 600.716 357.851 600.352 357.972C599.988 358.084 599.54 358.14 599.008 358.14ZM603.88 359.946C604.599 359.115 605.131 358.173 605.476 357.118C605.831 356.063 606.008 354.925 606.008 353.702C606.008 353.095 605.961 352.498 605.868 351.91C605.784 351.322 605.653 350.757 605.476 350.216C605.299 349.675 605.075 349.171 604.804 348.704C604.543 348.228 604.235 347.799 603.88 347.416L602.242 347.416C602.615 347.78 602.937 348.2 603.208 348.676C603.488 349.143 603.717 349.647 603.894 350.188C604.081 350.72 604.216 351.28 604.3 351.868C604.393 352.456 604.44 353.053 604.44 353.66C604.44 354.883 604.263 356.026 603.908 357.09C603.553 358.145 602.998 359.097 602.242 359.946L603.88 359.946Z" fill="#18123D"/>
<g filter="url(#filter1_d_4_130)">
<rect x="23" y="235" width="180" height="180" rx="5" fill="white"/>
</g>
<g filter="url(#filter2_d_4_130)">
<rect x="260" y="20" width="180" height="180" rx="5" fill="white"/>
</g>
<path d="M350 167.333C372.091 167.333 390 159.871 390 150.667V90.6667H310V150.667C310 159.871 327.909 167.333 350 167.333Z" fill="#E3EBFF" stroke="#5282FF" stroke-width="2" stroke-linecap="round" stroke-linejoin="round"/>
<ellipse cx="350" cy="90.6667" rx="40" ry="16.6667" fill="#E3EBFF" stroke="#5282FF" stroke-width="2" stroke-linecap="round" stroke-linejoin="round"/>
<path d="M113 382.333C135.091 382.333 153 374.871 153 365.667V305.667H73V365.667C73 374.871 90.9086 382.333 113 382.333Z" fill="#FFF2BF" stroke="#FFDB4D" stroke-width="2" stroke-linecap="round" stroke-linejoin="round"/>
<ellipse cx="113" cy="305.667" rx="40" ry="16.6667" fill="#FFF2BF" stroke="#FFDB4D" stroke-width="2" stroke-linecap="round" stroke-linejoin="round"/>
<path d="M317.174 50.302C316.642 50.2927 316.161 50.3767 315.732 50.554C315.302 50.7313 314.976 51.0113 314.752 51.394L314.752 56L313.128 56L313.128 48.734L314.612 48.734L314.724 50.246L314.752 50.246C314.985 49.798 315.302 49.4247 315.704 49.126C316.114 48.8273 316.604 48.65 317.174 48.594L317.174 50.302ZM323.135 54.81C322.939 55.1833 322.645 55.5007 322.253 55.762C321.87 56.014 321.366 56.14 320.741 56.14C320.059 56.14 319.504 55.944 319.075 55.552C318.645 55.16 318.431 54.5627 318.431 53.76L318.431 48.734L320.069 48.734L320.069 53.718C320.069 54.138 320.185 54.4227 320.419 54.572C320.652 54.712 320.937 54.782 321.273 54.782C321.73 54.782 322.103 54.6887 322.393 54.502C322.682 54.306 322.929 54.0447 323.135 53.718L323.135 48.734L324.745 48.734L324.745 56L323.261 56L323.163 54.81L323.135 54.81ZM326.441 51.016L329.871 51.016L329.871 52.402L326.441 52.402L326.441 51.016ZM335.054 56.14C334.466 56.14 333.939 56.056 333.472 55.888C333.005 55.7107 332.609 55.4633 332.282 55.146C331.955 54.8193 331.703 54.4227 331.526 53.956C331.349 53.4893 331.26 52.9573 331.26 52.36C331.26 51.772 331.349 51.2447 331.526 50.778C331.703 50.3113 331.955 49.9193 332.282 49.602C332.609 49.2753 333.01 49.028 333.486 48.86C333.962 48.6827 334.494 48.594 335.082 48.594C335.586 48.594 336.025 48.65 336.398 48.762C336.781 48.874 337.084 49.014 337.308 49.182L337.308 50.526C337.019 50.3393 336.701 50.1947 336.356 50.092C336.02 49.9893 335.628 49.938 335.18 49.938C333.677 49.938 332.926 50.7453 332.926 52.36C332.926 53.9747 333.663 54.782 335.138 54.782C335.614 54.782 336.02 54.7307 336.356 54.628C336.701 54.516 337.019 54.376 337.308 54.208L337.308 55.552C337.065 55.7107 336.762 55.8507 336.398 55.972C336.034 56.084 335.586 56.14 335.054 56.14ZM344.784 55.468C344.681 55.5333 344.555 55.608 344.406 55.692C344.257 55.7667 344.079 55.8367 343.874 55.902C343.669 55.9673 343.431 56.0233 343.16 56.07C342.889 56.1167 342.581 56.14 342.236 56.14C340.901 56.14 339.903 55.8087 339.24 55.146C338.587 54.4833 338.26 53.5547 338.26 52.36C338.26 51.772 338.349 51.2447 338.526 50.778C338.703 50.3113 338.951 49.9193 339.268 49.602C339.585 49.2753 339.963 49.028 340.402 48.86C340.841 48.6827 341.321 48.594 341.844 48.594C342.385 48.594 342.871 48.6827 343.3 48.86C343.739 49.0373 344.098 49.3033 344.378 49.658C344.658 50.0127 344.849 50.4513 344.952 50.974C345.064 51.4967 345.069 52.108 344.966 52.808L339.94 52.808C340.005 53.4707 340.225 53.97 340.598 54.306C340.971 54.6327 341.555 54.796 342.348 54.796C342.927 54.796 343.407 54.726 343.79 54.586C344.182 54.4367 344.513 54.2827 344.784 54.124L344.784 55.468ZM341.844 49.882C341.368 49.882 340.967 50.0267 340.64 50.316C340.313 50.6053 340.099 51.0347 339.996 51.604L343.412 51.604C343.431 51.016 343.3 50.582 343.02 50.302C342.74 50.022 342.348 49.882 341.844 49.882ZM349.961 49.938C349.485 49.938 349.093 50.0407 348.785 50.246C348.477 50.442 348.225 50.6987 348.029 51.016L348.029 56L346.405 56L346.405 48.734L347.945 48.734L348.001 49.924L348.029 49.924C348.225 49.5413 348.519 49.224 348.911 48.972C349.312 48.72 349.821 48.594 350.437 48.594C351.146 48.594 351.725 48.7853 352.173 49.168C352.63 49.5507 352.859 50.134 352.859 50.918L352.859 56L351.221 56L351.221 51.086C351.221 50.666 351.109 50.372 350.885 50.204C350.661 50.0267 350.353 49.938 349.961 49.938ZM358.501 55.776C358.333 55.8787 358.123 55.9627 357.871 56.028C357.619 56.1027 357.329 56.14 357.003 56.14C356.611 56.14 356.279 56.0887 356.009 55.986C355.747 55.874 355.533 55.7247 355.365 55.538C355.197 55.3513 355.075 55.1367 355.001 54.894C354.926 54.642 354.889 54.376 354.889 54.096L354.889 50.05L354.021 50.05L354.021 48.734L354.889 48.734L354.889 47.208L356.513 47.208L356.513 48.734L358.599 48.734L358.599 50.05L356.513 50.05L356.513 53.914C356.513 54.2127 356.583 54.432 356.723 54.572C356.872 54.712 357.115 54.782 357.451 54.782C357.675 54.782 357.871 54.7493 358.039 54.684C358.207 54.6187 358.361 54.53 358.501 54.418L358.501 55.776ZM364.055 50.302C363.523 50.2927 363.042 50.3767 362.613 50.554C362.183 50.7313 361.857 51.0113 361.633 51.394L361.633 56L360.009 56L360.009 48.734L361.493 48.734L361.605 50.246L361.633 50.246C361.866 49.798 362.183 49.4247 362.585 49.126C362.995 48.8273 363.485 48.65 364.055 48.594L364.055 50.302ZM369.431 54.726C369.356 54.894 369.254 55.062 369.123 55.23C369.002 55.398 368.848 55.552 368.661 55.692C368.484 55.8227 368.269 55.93 368.017 56.014C367.765 56.098 367.471 56.14 367.135 56.14C366.818 56.14 366.524 56.0933 366.253 56C365.982 55.916 365.744 55.7853 365.539 55.608C365.343 55.4307 365.184 55.2113 365.063 54.95C364.951 54.6793 364.895 54.3713 364.895 54.026C364.895 53.2327 365.189 52.64 365.777 52.248C366.365 51.8467 367.196 51.646 368.269 51.646L369.375 51.646L369.375 51.198C369.375 50.722 369.254 50.3953 369.011 50.218C368.768 50.0313 368.367 49.938 367.807 49.938C367.331 49.938 366.883 50.008 366.463 50.148C366.052 50.2787 365.688 50.4327 365.371 50.61L365.371 49.252C365.66 49.0933 366.043 48.944 366.519 48.804C366.995 48.664 367.513 48.594 368.073 48.594C369.006 48.594 369.725 48.79 370.229 49.182C370.742 49.5647 370.999 50.1807 370.999 51.03L370.999 54.824C370.999 54.908 370.999 55.006 370.999 55.118C371.008 55.2207 371.013 55.328 371.013 55.44C371.022 55.552 371.032 55.6593 371.041 55.762C371.05 55.8553 371.06 55.9347 371.069 56L369.571 56C369.543 55.8693 369.515 55.6873 369.487 55.454C369.468 55.2207 369.454 55.0107 369.445 54.824L369.431 54.726ZM367.583 54.88C367.928 54.88 368.213 54.81 368.437 54.67C368.67 54.5207 368.857 54.3527 368.997 54.166C369.137 53.97 369.235 53.7787 369.291 53.592C369.347 53.4053 369.375 53.2747 369.375 53.2L369.375 52.71L368.367 52.71C367.723 52.71 367.252 52.8127 366.953 53.018C366.654 53.214 366.505 53.494 366.505 53.858C366.505 54.1753 366.594 54.4273 366.771 54.614C366.958 54.7913 367.228 54.88 367.583 54.88ZM374.375 45.962L374.375 56L372.751 56L372.751 45.962L374.375 45.962ZM376.056 51.016L379.486 51.016L379.486 52.402L376.056 52.402L376.056 51.016ZM385.372 54.726C385.298 54.894 385.195 55.062 385.064 55.23C384.943 55.398 384.789 55.552 384.602 55.692C384.425 55.8227 384.21 55.93 383.958 56.014C383.706 56.098 383.412 56.14 383.076 56.14C382.759 56.14 382.465 56.0933 382.194 56C381.924 55.916 381.686 55.7853 381.48 55.608C381.284 55.4307 381.126 55.2113 381.004 54.95C380.892 54.6793 380.836 54.3713 380.836 54.026C380.836 53.2327 381.13 52.64 381.718 52.248C382.306 51.8467 383.137 51.646 384.21 51.646L385.316 51.646L385.316 51.198C385.316 50.722 385.195 50.3954 384.952 50.218C384.71 50.0313 384.308 49.938 383.748 49.938C383.272 49.938 382.824 50.008 382.404 50.148C381.994 50.2787 381.63 50.4327 381.312 50.61L381.312 49.252C381.602 49.0933 381.984 48.944 382.46 48.804C382.936 48.664 383.454 48.594 384.014 48.594C384.948 48.594 385.666 48.79 386.17 49.182C386.684 49.5647 386.94 50.1807 386.94 51.03L386.94 54.824C386.94 54.908 386.94 55.006 386.94 55.118C386.95 55.2207 386.954 55.328 386.954 55.44C386.964 55.552 386.973 55.6594 386.982 55.762C386.992 55.8554 387.001 55.9347 387.01 56L385.512 56C385.484 55.8694 385.456 55.6874 385.428 55.454C385.41 55.2207 385.396 55.0107 385.386 54.824L385.372 54.726ZM383.524 54.88C383.87 54.88 384.154 54.81 384.378 54.67C384.612 54.5207 384.798 54.3527 384.938 54.166C385.078 53.97 385.176 53.7787 385.232 53.592C385.288 53.4054 385.316 53.2747 385.316 53.2L385.316 52.71L384.308 52.71C383.664 52.71 383.193 52.8127 382.894 53.018C382.596 53.214 382.446 53.494 382.446 53.858C382.446 54.1753 382.535 54.4273 382.712 54.614C382.899 54.7913 383.17 54.88 383.524 54.88Z" fill="#18123D"/>
<path d="M349.993 131.626L352.975 124.962L355.075 124.962L355.075 135L353.367 135L353.367 127.454L350.665 133.46L349.727 133.474L349.125 133.474L346.479 127.356L346.479 135L344.939 135L344.939 124.962L347.207 124.962L349.993 131.626Z" fill="#18123D"/>
<path d="M99.3739 331.962L102.832 331.962C104.101 331.962 105.058 332.2 105.702 332.676C106.346 333.152 106.668 333.913 106.668 334.958C106.668 335.798 106.472 336.447 106.08 336.904C105.697 337.352 105.175 337.665 104.512 337.842L107.102 342L105.156 342L102.706 338.038L101.068 338.038L101.068 342L99.3739 342L99.3739 331.962ZM101.068 333.432L101.068 336.624L102.776 336.624C103.112 336.624 103.411 336.596 103.672 336.54C103.943 336.484 104.171 336.391 104.358 336.26C104.545 336.129 104.685 335.957 104.778 335.742C104.881 335.527 104.932 335.261 104.932 334.944C104.932 334.384 104.75 333.992 104.386 333.768C104.031 333.544 103.513 333.432 102.832 333.432L101.068 333.432ZM113.835 343.946C113.116 343.115 112.579 342.173 112.225 341.118C111.879 340.063 111.707 338.925 111.707 337.702C111.707 337.095 111.749 336.498 111.833 335.91C111.926 335.322 112.061 334.757 112.239 334.216C112.416 333.675 112.635 333.171 112.897 332.704C113.167 332.228 113.48 331.799 113.835 331.416L115.473 331.416C115.099 331.78 114.773 332.2 114.493 332.676C114.222 333.143 113.993 333.647 113.807 334.188C113.629 334.72 113.494 335.28 113.401 335.868C113.317 336.456 113.275 337.053 113.275 337.66C113.275 338.883 113.452 340.026 113.807 341.09C114.161 342.145 114.717 343.097 115.473 343.946L113.835 343.946ZM120.076 337.128L119.166 335.462L118.242 337.128L117.052 336.246L118.354 334.846L116.492 334.482L116.94 333.068L118.648 333.866L118.41 331.962L119.894 331.962L119.642 333.88L121.364 333.068L121.812 334.482L119.95 334.832L121.252 336.246L120.076 337.128ZM124.473 343.946C125.191 343.115 125.723 342.173 126.069 341.118C126.423 340.063 126.601 338.925 126.601 337.702C126.601 337.095 126.554 336.498 126.461 335.91C126.377 335.322 126.246 334.757 126.069 334.216C125.891 333.675 125.667 333.171 125.397 332.704C125.135 332.228 124.827 331.799 124.473 331.416L122.835 331.416C123.208 331.78 123.53 332.2 123.801 332.676C124.081 333.143 124.309 333.647 124.487 334.188C124.673 334.72 124.809 335.28 124.893 335.868C124.986 336.456 125.033 337.053 125.033 337.66C125.033 338.883 124.855 340.026 124.501 341.09C124.146 342.145 123.591 343.097 122.835 343.946L124.473 343.946ZM96.1227 359.946C95.404 359.115 94.8673 358.173 94.5127 357.118C94.1673 356.063 93.9947 354.925 93.9947 353.702C93.9947 353.095 94.0367 352.498 94.1207 351.91C94.214 351.322 94.3493 350.757 94.5267 350.216C94.704 349.675 94.9233 349.171 95.1847 348.704C95.4553 348.228 95.768 347.799 96.1227 347.416L97.7607 347.416C97.3873 347.78 97.0607 348.2 96.7807 348.676C96.51 349.143 96.2813 349.647 96.0947 350.188C95.9173 350.72 95.782 351.28 95.6887 351.868C95.6047 352.456 95.5627 353.053 95.5627 353.66C95.5627 354.883 95.74 356.026 96.0947 357.09C96.4493 358.145 97.0047 359.097 97.7607 359.946L96.1227 359.946ZM101.552 358.14C101.188 358.14 100.857 358.107 100.558 358.042C100.269 357.986 100.012 357.916 99.788 357.832C99.564 357.748 99.3727 357.659 99.214 357.566C99.0647 357.473 98.9434 357.389 98.85 357.314L98.85 356.026C98.9434 356.11 99.0694 356.203 99.228 356.306C99.396 356.399 99.5874 356.493 99.802 356.586C100.026 356.67 100.278 356.74 100.558 356.796C100.838 356.852 101.151 356.88 101.496 356.88C102.009 356.88 102.383 356.805 102.616 356.656C102.859 356.497 102.98 356.269 102.98 355.97C102.98 355.774 102.933 355.62 102.84 355.508C102.747 355.396 102.621 355.307 102.462 355.242C102.303 355.177 102.117 355.13 101.902 355.102C101.697 355.065 101.482 355.023 101.258 354.976C100.969 354.92 100.679 354.85 100.39 354.766C100.11 354.673 99.8534 354.547 99.62 354.388C99.396 354.229 99.2094 354.024 99.06 353.772C98.92 353.52 98.85 353.198 98.85 352.806C98.85 352.115 99.1067 351.574 99.62 351.182C100.133 350.79 100.866 350.594 101.818 350.594C102.359 350.594 102.826 350.65 103.218 350.762C103.619 350.874 103.913 350.991 104.1 351.112L104.1 352.4C103.876 352.251 103.587 352.12 103.232 352.008C102.877 351.896 102.429 351.84 101.888 351.84C101.356 351.84 100.969 351.91 100.726 352.05C100.483 352.19 100.362 352.409 100.362 352.708C100.362 352.876 100.404 353.011 100.488 353.114C100.581 353.207 100.698 353.282 100.838 353.338C100.987 353.394 101.155 353.441 101.342 353.478C101.538 353.506 101.739 353.539 101.944 353.576C102.233 353.632 102.527 353.702 102.826 353.786C103.134 353.861 103.409 353.982 103.652 354.15C103.904 354.309 104.109 354.523 104.268 354.794C104.427 355.065 104.506 355.415 104.506 355.844C104.506 356.283 104.422 356.651 104.254 356.95C104.086 357.239 103.862 357.473 103.582 357.65C103.302 357.827 102.985 357.953 102.63 358.028C102.275 358.103 101.916 358.14 101.552 358.14ZM109.777 357.916C109.619 358.355 109.446 358.742 109.259 359.078C109.082 359.414 108.872 359.694 108.629 359.918C108.396 360.151 108.121 360.324 107.803 360.436C107.495 360.557 107.131 360.618 106.711 360.618C106.254 360.618 105.862 360.543 105.535 360.394L105.535 358.938C105.666 359.041 105.829 359.12 106.025 359.176C106.221 359.232 106.436 359.26 106.669 359.26C106.987 359.26 107.248 359.19 107.453 359.05C107.659 358.919 107.845 358.719 108.013 358.448L105.087 350.734L106.837 350.734L108.867 356.376L110.883 350.734L112.395 350.734L109.777 357.916ZM117.028 351.938C116.552 351.938 116.16 352.041 115.852 352.246C115.544 352.442 115.292 352.699 115.096 353.016L115.096 358L113.472 358L113.472 350.734L115.012 350.734L115.068 351.924L115.096 351.924C115.292 351.541 115.586 351.224 115.978 350.972C116.38 350.72 116.888 350.594 117.504 350.594C118.214 350.594 118.792 350.785 119.24 351.168C119.698 351.551 119.926 352.134 119.926 352.918L119.926 358L118.288 358L118.288 353.086C118.288 352.666 118.176 352.372 117.952 352.204C117.728 352.027 117.42 351.938 117.028 351.938ZM125.008 358.14C124.42 358.14 123.893 358.056 123.426 357.888C122.959 357.711 122.563 357.463 122.236 357.146C121.909 356.819 121.657 356.423 121.48 355.956C121.303 355.489 121.214 354.957 121.214 354.36C121.214 353.772 121.303 353.245 121.48 352.778C121.657 352.311 121.909 351.919 122.236 351.602C122.563 351.275 122.964 351.028 123.44 350.86C123.916 350.683 124.448 350.594 125.036 350.594C125.54 350.594 125.979 350.65 126.352 350.762C126.735 350.874 127.038 351.014 127.262 351.182L127.262 352.526C126.973 352.339 126.655 352.195 126.31 352.092C125.974 351.989 125.582 351.938 125.134 351.938C123.631 351.938 122.88 352.745 122.88 354.36C122.88 355.975 123.617 356.782 125.092 356.782C125.568 356.782 125.974 356.731 126.31 356.628C126.655 356.516 126.973 356.376 127.262 356.208L127.262 357.552C127.019 357.711 126.716 357.851 126.352 357.972C125.988 358.084 125.54 358.14 125.008 358.14ZM129.88 359.946C130.599 359.115 131.131 358.173 131.476 357.118C131.831 356.063 132.008 354.925 132.008 353.702C132.008 353.095 131.961 352.498 131.868 351.91C131.784 351.322 131.653 350.757 131.476 350.216C131.299 349.675 131.075 349.171 130.804 348.704C130.543 348.228 130.235 347.799 129.88 347.416L128.242 347.416C128.615 347.78 128.937 348.2 129.208 348.676C129.488 349.143 129.717 349.647 129.894 350.188C130.081 350.72 130.216 351.28 130.3 351.868C130.393 352.456 130.44 353.053 130.44 353.66C130.44 354.883 130.263 356.026 129.908 357.09C129.553 358.145 128.998 359.097 128.242 359.946L129.88 359.946Z" fill="#18123D"/>
<path d="M98.2959 343.988L127.707 343.988L127.707 345.038L98.2959 345.038L98.2959 343.988ZM92.8887 359.988L133.114 359.988L133.114 361.038L92.8887 361.038L92.8887 359.988Z" fill="#18123D"/>
<path d="M77.7783 265.302C77.2463 265.293 76.7656 265.377 76.3363 265.554C75.9069 265.731 75.5803 266.011 75.3563 266.394L75.3563 271L73.7323 271L73.7323 263.734L75.2163 263.734L75.3283 265.246L75.3563 265.246C75.5896 264.798 75.9069 264.425 76.3083 264.126C76.7189 263.827 77.2089 263.65 77.7783 263.594L77.7783 265.302ZM83.7393 269.81C83.5433 270.183 83.2493 270.501 82.8573 270.762C82.4746 271.014 81.9706 271.14 81.3453 271.14C80.664 271.14 80.1086 270.944 79.6793 270.552C79.25 270.16 79.0353 269.563 79.0353 268.76L79.0353 263.734L80.6733 263.734L80.6733 268.718C80.6733 269.138 80.79 269.423 81.0233 269.572C81.2566 269.712 81.5413 269.782 81.8773 269.782C82.3346 269.782 82.708 269.689 82.9973 269.502C83.2866 269.306 83.534 269.045 83.7393 268.718L83.7393 263.734L85.3493 263.734L85.3493 271L83.8653 271L83.7673 269.81L83.7393 269.81ZM87.0454 266.016L90.4754 266.016L90.4754 267.402L87.0454 267.402L87.0454 266.016ZM95.6583 271.14C95.0703 271.14 94.543 271.056 94.0763 270.888C93.6097 270.711 93.213 270.463 92.8863 270.146C92.5597 269.819 92.3077 269.423 92.1303 268.956C91.953 268.489 91.8643 267.957 91.8643 267.36C91.8643 266.772 91.953 266.245 92.1303 265.778C92.3077 265.311 92.5597 264.919 92.8863 264.602C93.213 264.275 93.6143 264.028 94.0903 263.86C94.5663 263.683 95.0983 263.594 95.6863 263.594C96.1903 263.594 96.629 263.65 97.0023 263.762C97.385 263.874 97.6883 264.014 97.9123 264.182L97.9123 265.526C97.623 265.339 97.3057 265.195 96.9603 265.092C96.6243 264.989 96.2323 264.938 95.7843 264.938C94.2817 264.938 93.5303 265.745 93.5303 267.36C93.5303 268.975 94.2677 269.782 95.7423 269.782C96.2183 269.782 96.6243 269.731 96.9603 269.628C97.3057 269.516 97.623 269.376 97.9123 269.208L97.9123 270.552C97.6697 270.711 97.3663 270.851 97.0023 270.972C96.6383 271.084 96.1903 271.14 95.6583 271.14ZM105.388 270.468C105.286 270.533 105.16 270.608 105.01 270.692C104.861 270.767 104.684 270.837 104.478 270.902C104.273 270.967 104.035 271.023 103.764 271.07C103.494 271.117 103.186 271.14 102.84 271.14C101.506 271.14 100.507 270.809 99.8443 270.146C99.191 269.483 98.8643 268.555 98.8643 267.36C98.8643 266.772 98.953 266.245 99.1303 265.778C99.3077 265.311 99.555 264.919 99.8723 264.602C100.19 264.275 100.568 264.028 101.006 263.86C101.445 263.683 101.926 263.594 102.448 263.594C102.99 263.594 103.475 263.683 103.904 263.86C104.343 264.037 104.702 264.303 104.982 264.658C105.262 265.013 105.454 265.451 105.556 265.974C105.668 266.497 105.673 267.108 105.57 267.808L100.544 267.808C100.61 268.471 100.829 268.97 101.202 269.306C101.576 269.633 102.159 269.796 102.952 269.796C103.531 269.796 104.012 269.726 104.394 269.586C104.786 269.437 105.118 269.283 105.388 269.124L105.388 270.468ZM102.448 264.882C101.972 264.882 101.571 265.027 101.244 265.316C100.918 265.605 100.703 266.035 100.6 266.604L104.016 266.604C104.035 266.016 103.904 265.582 103.624 265.302C103.344 265.022 102.952 264.882 102.448 264.882ZM110.566 264.938C110.09 264.938 109.698 265.041 109.39 265.246C109.082 265.442 108.83 265.699 108.634 266.016L108.634 271L107.01 271L107.01 263.734L108.55 263.734L108.606 264.924L108.634 264.924C108.83 264.541 109.124 264.224 109.516 263.972C109.917 263.72 110.426 263.594 111.042 263.594C111.751 263.594 112.33 263.785 112.778 264.168C113.235 264.551 113.464 265.134 113.464 265.918L113.464 271L111.826 271L111.826 266.086C111.826 265.666 111.714 265.372 111.49 265.204C111.266 265.027 110.958 264.938 110.566 264.938ZM119.105 270.776C118.937 270.879 118.727 270.963 118.475 271.028C118.223 271.103 117.934 271.14 117.607 271.14C117.215 271.14 116.884 271.089 116.613 270.986C116.352 270.874 116.137 270.725 115.969 270.538C115.801 270.351 115.68 270.137 115.605 269.894C115.53 269.642 115.493 269.376 115.493 269.096L115.493 265.05L114.625 265.05L114.625 263.734L115.493 263.734L115.493 262.208L117.117 262.208L117.117 263.734L119.203 263.734L119.203 265.05L117.117 265.05L117.117 268.914C117.117 269.213 117.187 269.432 117.327 269.572C117.476 269.712 117.719 269.782 118.055 269.782C118.279 269.782 118.475 269.749 118.643 269.684C118.811 269.619 118.965 269.53 119.105 269.418L119.105 270.776ZM124.659 265.302C124.127 265.293 123.646 265.377 123.217 265.554C122.788 265.731 122.461 266.011 122.237 266.394L122.237 271L120.613 271L120.613 263.734L122.097 263.734L122.209 265.246L122.237 265.246C122.47 264.798 122.788 264.425 123.189 264.126C123.6 263.827 124.09 263.65 124.659 263.594L124.659 265.302ZM130.035 269.726C129.961 269.894 129.858 270.062 129.727 270.23C129.606 270.398 129.452 270.552 129.265 270.692C129.088 270.823 128.873 270.93 128.621 271.014C128.369 271.098 128.075 271.14 127.739 271.14C127.422 271.14 127.128 271.093 126.857 271C126.587 270.916 126.349 270.785 126.143 270.608C125.947 270.431 125.789 270.211 125.667 269.95C125.555 269.679 125.499 269.371 125.499 269.026C125.499 268.233 125.793 267.64 126.381 267.248C126.969 266.847 127.8 266.646 128.873 266.646L129.979 266.646L129.979 266.198C129.979 265.722 129.858 265.395 129.615 265.218C129.373 265.031 128.971 264.938 128.411 264.938C127.935 264.938 127.487 265.008 127.067 265.148C126.657 265.279 126.293 265.433 125.975 265.61L125.975 264.252C126.265 264.093 126.647 263.944 127.123 263.804C127.599 263.664 128.117 263.594 128.677 263.594C129.611 263.594 130.329 263.79 130.833 264.182C131.347 264.565 131.603 265.181 131.603 266.03L131.603 269.824C131.603 269.908 131.603 270.006 131.603 270.118C131.613 270.221 131.617 270.328 131.617 270.44C131.627 270.552 131.636 270.659 131.645 270.762C131.655 270.855 131.664 270.935 131.673 271L130.175 271C130.147 270.869 130.119 270.687 130.091 270.454C130.073 270.221 130.059 270.011 130.049 269.824L130.035 269.726ZM128.187 269.88C128.533 269.88 128.817 269.81 129.041 269.67C129.275 269.521 129.461 269.353 129.601 269.166C129.741 268.97 129.839 268.779 129.895 268.592C129.951 268.405 129.979 268.275 129.979 268.2L129.979 267.71L128.971 267.71C128.327 267.71 127.856 267.813 127.557 268.018C127.259 268.214 127.109 268.494 127.109 268.858C127.109 269.175 127.198 269.427 127.375 269.614C127.562 269.791 127.833 269.88 128.187 269.88ZM134.979 260.962L134.979 271L133.355 271L133.355 260.962L134.979 260.962ZM141.365 271L139.685 271L139.685 262.81L136.829 264.938L136.829 263.258L139.909 260.962L141.365 260.962L141.365 271ZM144.358 266.016L147.788 266.016L147.788 267.402L144.358 267.402L144.358 266.016ZM156.712 267.36C156.712 268.004 156.623 268.564 156.446 269.04C156.278 269.507 156.045 269.899 155.746 270.216C155.457 270.524 155.116 270.757 154.724 270.916C154.332 271.065 153.921 271.14 153.492 271.14C152.932 271.14 152.447 271.014 152.036 270.762C151.635 270.501 151.313 270.146 151.07 269.698L151.028 271L149.488 271L149.488 260.962L151.112 260.962L151.098 265.008C151.341 264.569 151.663 264.224 152.064 263.972C152.465 263.72 152.951 263.594 153.52 263.594C153.949 263.594 154.355 263.673 154.738 263.832C155.13 263.981 155.471 264.215 155.76 264.532C156.049 264.84 156.278 265.232 156.446 265.708C156.623 266.175 156.712 266.725 156.712 267.36ZM153.1 269.782C153.679 269.782 154.145 269.586 154.5 269.194C154.864 268.793 155.046 268.181 155.046 267.36C155.046 266.548 154.864 265.941 154.5 265.54C154.145 265.139 153.683 264.938 153.114 264.938C152.825 264.938 152.559 264.989 152.316 265.092C152.073 265.185 151.859 265.335 151.672 265.54C151.495 265.745 151.355 266.002 151.252 266.31C151.149 266.609 151.098 266.959 151.098 267.36C151.098 267.771 151.149 268.13 151.252 268.438C151.355 268.737 151.495 268.989 151.672 269.194C151.849 269.39 152.059 269.539 152.302 269.642C152.554 269.735 152.82 269.782 153.1 269.782Z" fill="#18123D"/>
<path d="M586.523 235L592.297 225L580.75 225L586.523 235ZM586.523 112L587.523 112L586.523 112ZM440 108C539.665 108 572.242 108 582.504 108L582.504 106C572.242 106 539.665 106 440 106L440 108ZM585.523 112L585.523 226H587.523L587.523 112L585.523 112ZM582.504 108C583.576 108 584.276 108.415 584.741 109.054C585.237 109.733 585.523 110.752 585.523 112L587.523 112C587.523 110.486 587.181 109.005 586.357 107.875C585.504 106.704 584.194 106 582.504 106L582.504 108Z" fill="#4E496B"/>
<path d="M113.477 235L107.704 225L119.251 225L113.477 235ZM113.477 112L112.477 112L113.477 112ZM260 108C160.335 108 127.758 108 117.496 108L117.496 106C127.758 106 160.335 106 260 106L260 108ZM114.477 112L114.477 226H112.477L112.477 112L114.477 112ZM117.496 108C116.424 108 115.724 108.415 115.259 109.054C114.764 109.733 114.477 110.752 114.477 112L112.477 112C112.477 110.486 112.819 109.005 113.643 107.875C114.497 106.704 115.806 106 117.496 106L117.496 108Z" fill="#4E496B"/>
<defs>
<filter id="filter0_d_4_130" x="487" y="225" width="200" height="200" filterUnits="userSpaceOnUse" color-interpolation-filters="sRGB">
<feFlood flood-opacity="0" result="BackgroundImageFix"/>
<feColorMatrix in="SourceAlpha" type="matrix" values="0 0 0 0 0 0 0 0 0 0 0 0 0 0 0 0 0 0 127 0" result="hardAlpha"/>
<feOffset/>
<feGaussianBlur stdDeviation="5"/>
<feComposite in2="hardAlpha" operator="out"/>
<feColorMatrix type="matrix" values="0 0 0 0 0.592157 0 0 0 0 0.74902 0 0 0 0 0.905882 0 0 0 0.4 0"/>
<feBlend mode="normal" in2="BackgroundImageFix" result="effect1_dropShadow_4_130"/>
<feBlend mode="normal" in="SourceGraphic" in2="effect1_dropShadow_4_130" result="shape"/>
</filter>
<filter id="filter1_d_4_130" x="13" y="225" width="200" height="200" filterUnits="userSpaceOnUse" color-interpolation-filters="sRGB">
<feFlood flood-opacity="0" result="BackgroundImageFix"/>
<feColorMatrix in="SourceAlpha" type="matrix" values="0 0 0 0 0 0 0 0 0 0 0 0 0 0 0 0 0 0 127 0" result="hardAlpha"/>
<feOffset/>
<feGaussianBlur stdDeviation="5"/>
<feComposite in2="hardAlpha" operator="out"/>
<feColorMatrix type="matrix" values="0 0 0 0 0.592157 0 0 0 0 0.74902 0 0 0 0 0.905882 0 0 0 0.4 0"/>
<feBlend mode="normal" in2="BackgroundImageFix" result="effect1_dropShadow_4_130"/>
<feBlend mode="normal" in="SourceGraphic" in2="effect1_dropShadow_4_130" result="shape"/>
</filter>
<filter id="filter2_d_4_130" x="250" y="10" width="200" height="200" filterUnits="userSpaceOnUse" color-interpolation-filters="sRGB">
<feFlood flood-opacity="0" result="BackgroundImageFix"/>
<feColorMatrix in="SourceAlpha" type="matrix" values="0 0 0 0 0 0 0 0 0 0 0 0 0 0 0 0 0 0 127 0" result="hardAlpha"/>
<feOffset/>
<feGaussianBlur stdDeviation="5"/>
<feComposite in2="hardAlpha" operator="out"/>
<feColorMatrix type="matrix" values="0 0 0 0 0.592157 0 0 0 0 0.74902 0 0 0 0 0.905882 0 0 0 0.4 0"/>
<feBlend mode="normal" in2="BackgroundImageFix" result="effect1_dropShadow_4_130"/>
<feBlend mode="normal" in="SourceGraphic" in2="effect1_dropShadow_4_130" result="shape"/>
</filter>
</defs>
</svg>
