<svg width="700" height="420" viewBox="0 0 700 420" fill="none" xmlns="http://www.w3.org/2000/svg">
<g filter="url(#filter0_d_4_151)">
<rect x="40" y="35" width="250" height="350" rx="5" fill="white"/>
</g>
<path d="M163 198.333C185.091 198.333 203 190.871 203 181.667V121.667H123V181.667C123 190.871 140.909 198.333 163 198.333Z" fill="#E3EBFF" stroke="#5282FF" stroke-width="2" stroke-linecap="round" stroke-linejoin="round"/>
<ellipse cx="163" cy="121.667" rx="40" ry="16.6667" fill="#E3EBFF" stroke="#5282FF" stroke-width="2" stroke-linecap="round" stroke-linejoin="round"/>
<path d="M162.993 162.626L165.975 155.962L168.075 155.962L168.075 166L166.367 166L166.367 158.454L163.665 164.46L162.727 164.474L162.125 164.474L159.479 158.356L159.479 166L157.939 166L157.939 155.962L160.207 155.962L162.993 162.626Z" fill="#18123D"/>
<path d="M163 346.333C185.091 346.333 203 338.871 203 329.667V269.667H123V329.667C123 338.871 140.909 346.333 163 346.333Z" fill="#D5FAF3" stroke="#73F8DE" stroke-width="2" stroke-linecap="round" stroke-linejoin="round"/>
<ellipse cx="163" cy="269.667" rx="40" ry="16.6667" fill="#D5FAF3" stroke="#73F8DE" stroke-width="2" stroke-linecap="round" stroke-linejoin="round"/>
<path d="M159.464 295.962L162.922 295.962C164.191 295.962 165.148 296.2 165.792 296.676C166.436 297.152 166.758 297.913 166.758 298.958C166.758 299.798 166.562 300.447 166.17 300.904C165.787 301.352 165.264 301.665 164.602 301.842L167.192 306L165.246 306L162.796 302.038L161.158 302.038L161.158 306L159.464 306L159.464 295.962ZM161.158 297.432L161.158 300.624L162.866 300.624C163.202 300.624 163.5 300.596 163.762 300.54C164.032 300.484 164.261 300.391 164.448 300.26C164.634 300.129 164.774 299.957 164.868 299.742C164.97 299.527 165.022 299.261 165.022 298.944C165.022 298.384 164.84 297.992 164.476 297.768C164.121 297.544 163.603 297.432 162.922 297.432L161.158 297.432ZM142.37 323.946C141.651 323.115 141.114 322.173 140.76 321.118C140.414 320.063 140.242 318.925 140.242 317.702C140.242 317.095 140.284 316.498 140.368 315.91C140.461 315.322 140.596 314.757 140.774 314.216C140.951 313.675 141.17 313.171 141.432 312.704C141.702 312.228 142.015 311.799 142.37 311.416L144.008 311.416C143.634 311.78 143.308 312.2 143.028 312.676C142.757 313.143 142.528 313.647 142.342 314.188C142.164 314.72 142.029 315.28 141.936 315.868C141.852 316.456 141.81 317.053 141.81 317.66C141.81 318.883 141.987 320.026 142.342 321.09C142.696 322.145 143.252 323.097 144.008 323.946L142.37 323.946ZM149.591 320.726C149.516 320.894 149.414 321.062 149.283 321.23C149.162 321.398 149.008 321.552 148.821 321.692C148.644 321.823 148.429 321.93 148.177 322.014C147.925 322.098 147.631 322.14 147.295 322.14C146.978 322.14 146.684 322.093 146.413 322C146.142 321.916 145.904 321.785 145.699 321.608C145.503 321.431 145.344 321.211 145.223 320.95C145.111 320.679 145.055 320.371 145.055 320.026C145.055 319.233 145.349 318.64 145.937 318.248C146.525 317.847 147.356 317.646 148.429 317.646L149.535 317.646L149.535 317.198C149.535 316.722 149.414 316.395 149.171 316.218C148.928 316.031 148.527 315.938 147.967 315.938C147.491 315.938 147.043 316.008 146.623 316.148C146.212 316.279 145.848 316.433 145.531 316.61L145.531 315.252C145.82 315.093 146.203 314.944 146.679 314.804C147.155 314.664 147.673 314.594 148.233 314.594C149.166 314.594 149.885 314.79 150.389 315.182C150.902 315.565 151.159 316.181 151.159 317.03L151.159 320.824C151.159 320.908 151.159 321.006 151.159 321.118C151.168 321.221 151.173 321.328 151.173 321.44C151.182 321.552 151.192 321.659 151.201 321.762C151.21 321.855 151.22 321.935 151.229 322L149.731 322C149.703 321.869 149.675 321.687 149.647 321.454C149.628 321.221 149.614 321.011 149.605 320.824L149.591 320.726ZM147.743 320.88C148.088 320.88 148.373 320.81 148.597 320.67C148.83 320.521 149.017 320.353 149.157 320.166C149.297 319.97 149.395 319.779 149.451 319.592C149.507 319.405 149.535 319.275 149.535 319.2L149.535 318.71L148.527 318.71C147.883 318.71 147.412 318.813 147.113 319.018C146.814 319.214 146.665 319.494 146.665 319.858C146.665 320.175 146.754 320.427 146.931 320.614C147.118 320.791 147.388 320.88 147.743 320.88ZM155.305 322.14C154.941 322.14 154.61 322.107 154.311 322.042C154.022 321.986 153.765 321.916 153.541 321.832C153.317 321.748 153.126 321.659 152.967 321.566C152.818 321.473 152.696 321.389 152.603 321.314L152.603 320.026C152.696 320.11 152.822 320.203 152.981 320.306C153.149 320.399 153.34 320.493 153.555 320.586C153.779 320.67 154.031 320.74 154.311 320.796C154.591 320.852 154.904 320.88 155.249 320.88C155.762 320.88 156.136 320.805 156.369 320.656C156.612 320.497 156.733 320.269 156.733 319.97C156.733 319.774 156.686 319.62 156.593 319.508C156.5 319.396 156.374 319.307 156.215 319.242C156.056 319.177 155.87 319.13 155.655 319.102C155.45 319.065 155.235 319.023 155.011 318.976C154.722 318.92 154.432 318.85 154.143 318.766C153.863 318.673 153.606 318.547 153.373 318.388C153.149 318.229 152.962 318.024 152.813 317.772C152.673 317.52 152.603 317.198 152.603 316.806C152.603 316.115 152.86 315.574 153.373 315.182C153.886 314.79 154.619 314.594 155.571 314.594C156.112 314.594 156.579 314.65 156.971 314.762C157.372 314.874 157.666 314.991 157.853 315.112L157.853 316.4C157.629 316.251 157.34 316.12 156.985 316.008C156.63 315.896 156.182 315.84 155.641 315.84C155.109 315.84 154.722 315.91 154.479 316.05C154.236 316.19 154.115 316.409 154.115 316.708C154.115 316.876 154.157 317.011 154.241 317.114C154.334 317.207 154.451 317.282 154.591 317.338C154.74 317.394 154.908 317.441 155.095 317.478C155.291 317.506 155.492 317.539 155.697 317.576C155.986 317.632 156.28 317.702 156.579 317.786C156.887 317.861 157.162 317.982 157.405 318.15C157.657 318.309 157.862 318.523 158.021 318.794C158.18 319.065 158.259 319.415 158.259 319.844C158.259 320.283 158.175 320.651 158.007 320.95C157.839 321.239 157.615 321.473 157.335 321.65C157.055 321.827 156.738 321.953 156.383 322.028C156.028 322.103 155.669 322.14 155.305 322.14ZM163.53 321.916C163.372 322.355 163.199 322.742 163.012 323.078C162.835 323.414 162.625 323.694 162.382 323.918C162.149 324.151 161.874 324.324 161.556 324.436C161.248 324.557 160.884 324.618 160.464 324.618C160.007 324.618 159.615 324.543 159.288 324.394L159.288 322.938C159.419 323.041 159.582 323.12 159.778 323.176C159.974 323.232 160.189 323.26 160.422 323.26C160.74 323.26 161.001 323.19 161.206 323.05C161.412 322.919 161.598 322.719 161.766 322.448L158.84 314.734L160.59 314.734L162.62 320.376L164.636 314.734L166.148 314.734L163.53 321.916ZM170.781 315.938C170.305 315.938 169.913 316.041 169.605 316.246C169.297 316.442 169.045 316.699 168.849 317.016L168.849 322L167.225 322L167.225 314.734L168.765 314.734L168.821 315.924L168.849 315.924C169.045 315.541 169.339 315.224 169.731 314.972C170.133 314.72 170.641 314.594 171.257 314.594C171.967 314.594 172.545 314.785 172.993 315.168C173.451 315.551 173.679 316.134 173.679 316.918L173.679 322L172.041 322L172.041 317.086C172.041 316.666 171.929 316.372 171.705 316.204C171.481 316.027 171.173 315.938 170.781 315.938ZM178.761 322.14C178.173 322.14 177.646 322.056 177.179 321.888C176.712 321.711 176.316 321.463 175.989 321.146C175.662 320.819 175.41 320.423 175.233 319.956C175.056 319.489 174.967 318.957 174.967 318.36C174.967 317.772 175.056 317.245 175.233 316.778C175.41 316.311 175.662 315.919 175.989 315.602C176.316 315.275 176.717 315.028 177.193 314.86C177.669 314.683 178.201 314.594 178.789 314.594C179.293 314.594 179.732 314.65 180.105 314.762C180.488 314.874 180.791 315.014 181.015 315.182L181.015 316.526C180.726 316.339 180.408 316.195 180.063 316.092C179.727 315.989 179.335 315.938 178.887 315.938C177.384 315.938 176.633 316.745 176.633 318.36C176.633 319.975 177.37 320.782 178.845 320.782C179.321 320.782 179.727 320.731 180.063 320.628C180.408 320.516 180.726 320.376 181.015 320.208L181.015 321.552C180.772 321.711 180.469 321.851 180.105 321.972C179.741 322.084 179.293 322.14 178.761 322.14ZM183.633 323.946C184.352 323.115 184.884 322.173 185.229 321.118C185.584 320.063 185.761 318.925 185.761 317.702C185.761 317.095 185.714 316.498 185.621 315.91C185.537 315.322 185.406 314.757 185.229 314.216C185.052 313.675 184.828 313.171 184.557 312.704C184.296 312.228 183.988 311.799 183.633 311.416L181.995 311.416C182.368 311.78 182.69 312.2 182.961 312.676C183.241 313.143 183.47 313.647 183.647 314.188C183.834 314.72 183.969 315.28 184.053 315.868C184.146 316.456 184.193 317.053 184.193 317.66C184.193 318.883 184.016 320.026 183.661 321.09C183.306 322.145 182.751 323.097 181.995 323.946L183.633 323.946Z" fill="#18123D"/>
<path d="M158.386 307.988L167.612 307.988L167.612 309.038L158.386 309.038L158.386 307.988ZM139.136 323.988L186.867 323.988L186.867 325.038L139.136 325.038L139.136 323.988Z" fill="#18123D"/>
<path d="M128.325 81.302C127.793 81.2927 127.312 81.3767 126.883 81.554C126.454 81.7313 126.127 82.0113 125.903 82.394L125.903 87L124.279 87L124.279 79.734L125.763 79.734L125.875 81.246L125.903 81.246C126.136 80.798 126.454 80.4247 126.855 80.126C127.266 79.8273 127.756 79.65 128.325 79.594L128.325 81.302ZM134.286 85.81C134.09 86.1833 133.796 86.5007 133.404 86.762C133.022 87.014 132.518 87.14 131.892 87.14C131.211 87.14 130.656 86.944 130.226 86.552C129.797 86.16 129.582 85.5627 129.582 84.76L129.582 79.734L131.22 79.734L131.22 84.718C131.22 85.138 131.337 85.4227 131.57 85.572C131.804 85.712 132.088 85.782 132.424 85.782C132.882 85.782 133.255 85.6887 133.544 85.502C133.834 85.306 134.081 85.0447 134.286 84.718L134.286 79.734L135.896 79.734L135.896 87L134.412 87L134.314 85.81L134.286 85.81ZM137.592 82.016L141.022 82.016L141.022 83.402L137.592 83.402L137.592 82.016ZM146.205 87.14C145.617 87.14 145.09 87.056 144.623 86.888C144.157 86.7107 143.76 86.4633 143.433 86.146C143.107 85.8193 142.855 85.4227 142.677 84.956C142.5 84.4893 142.411 83.9573 142.411 83.36C142.411 82.772 142.5 82.2447 142.677 81.778C142.855 81.3113 143.107 80.9193 143.433 80.602C143.76 80.2753 144.161 80.028 144.637 79.86C145.113 79.6827 145.645 79.594 146.233 79.594C146.737 79.594 147.176 79.65 147.549 79.762C147.932 79.874 148.235 80.014 148.459 80.182L148.459 81.526C148.17 81.3393 147.853 81.1947 147.507 81.092C147.171 80.9893 146.779 80.938 146.331 80.938C144.829 80.938 144.077 81.7453 144.077 83.36C144.077 84.9747 144.815 85.782 146.289 85.782C146.765 85.782 147.171 85.7307 147.507 85.628C147.853 85.516 148.17 85.376 148.459 85.208L148.459 86.552C148.217 86.7107 147.913 86.8507 147.549 86.972C147.185 87.084 146.737 87.14 146.205 87.14ZM155.935 86.468C155.833 86.5333 155.707 86.608 155.557 86.692C155.408 86.7667 155.231 86.8367 155.025 86.902C154.82 86.9673 154.582 87.0233 154.311 87.07C154.041 87.1167 153.733 87.14 153.387 87.14C152.053 87.14 151.054 86.8087 150.391 86.146C149.738 85.4833 149.411 84.5547 149.411 83.36C149.411 82.772 149.5 82.2447 149.677 81.778C149.855 81.3113 150.102 80.9193 150.419 80.602C150.737 80.2753 151.115 80.028 151.553 79.86C151.992 79.6827 152.473 79.594 152.995 79.594C153.537 79.594 154.022 79.6827 154.451 79.86C154.89 80.0373 155.249 80.3033 155.529 80.658C155.809 81.0127 156.001 81.4513 156.103 81.974C156.215 82.4967 156.22 83.108 156.117 83.808L151.091 83.808C151.157 84.4707 151.376 84.97 151.749 85.306C152.123 85.6327 152.706 85.796 153.499 85.796C154.078 85.796 154.559 85.726 154.941 85.586C155.333 85.4367 155.665 85.2827 155.935 85.124L155.935 86.468ZM152.995 80.882C152.519 80.882 152.118 81.0267 151.791 81.316C151.465 81.6053 151.25 82.0347 151.147 82.604L154.563 82.604C154.582 82.016 154.451 81.582 154.171 81.302C153.891 81.022 153.499 80.882 152.995 80.882ZM161.112 80.938C160.636 80.938 160.244 81.0407 159.936 81.246C159.628 81.442 159.376 81.6987 159.18 82.016L159.18 87L157.556 87L157.556 79.734L159.096 79.734L159.152 80.924L159.18 80.924C159.376 80.5413 159.67 80.224 160.062 79.972C160.464 79.72 160.972 79.594 161.588 79.594C162.298 79.594 162.876 79.7853 163.324 80.168C163.782 80.5507 164.01 81.134 164.01 81.918L164.01 87L162.372 87L162.372 82.086C162.372 81.666 162.26 81.372 162.036 81.204C161.812 81.0267 161.504 80.938 161.112 80.938ZM169.652 86.776C169.484 86.8787 169.274 86.9627 169.022 87.028C168.77 87.1027 168.481 87.14 168.154 87.14C167.762 87.14 167.431 87.0887 167.16 86.986C166.899 86.874 166.684 86.7247 166.516 86.538C166.348 86.3513 166.227 86.1367 166.152 85.894C166.077 85.642 166.04 85.376 166.04 85.096L166.04 81.05L165.172 81.05L165.172 79.734L166.04 79.734L166.04 78.208L167.664 78.208L167.664 79.734L169.75 79.734L169.75 81.05L167.664 81.05L167.664 84.914C167.664 85.2127 167.734 85.432 167.874 85.572C168.023 85.712 168.266 85.782 168.602 85.782C168.826 85.782 169.022 85.7493 169.19 85.684C169.358 85.6187 169.512 85.53 169.652 85.418L169.652 86.776ZM175.206 81.302C174.674 81.2927 174.193 81.3767 173.764 81.554C173.335 81.7313 173.008 82.0113 172.784 82.394L172.784 87L171.16 87L171.16 79.734L172.644 79.734L172.756 81.246L172.784 81.246C173.017 80.798 173.335 80.4247 173.736 80.126C174.147 79.8273 174.637 79.65 175.206 79.594L175.206 81.302ZM180.582 85.726C180.508 85.894 180.405 86.062 180.274 86.23C180.153 86.398 179.999 86.552 179.812 86.692C179.635 86.8227 179.42 86.93 179.168 87.014C178.916 87.098 178.622 87.14 178.286 87.14C177.969 87.14 177.675 87.0933 177.404 87C177.134 86.916 176.896 86.7853 176.69 86.608C176.494 86.4307 176.336 86.2113 176.214 85.95C176.102 85.6793 176.046 85.3713 176.046 85.026C176.046 84.2327 176.34 83.64 176.928 83.248C177.516 82.8467 178.347 82.646 179.42 82.646L180.526 82.646L180.526 82.198C180.526 81.722 180.405 81.3953 180.162 81.218C179.92 81.0313 179.518 80.938 178.958 80.938C178.482 80.938 178.034 81.008 177.614 81.148C177.204 81.2787 176.84 81.4327 176.522 81.61L176.522 80.252C176.812 80.0933 177.194 79.944 177.67 79.804C178.146 79.664 178.664 79.594 179.224 79.594C180.158 79.594 180.876 79.79 181.38 80.182C181.894 80.5647 182.15 81.1807 182.15 82.03L182.15 85.824C182.15 85.908 182.15 86.006 182.15 86.118C182.16 86.2207 182.164 86.328 182.164 86.44C182.174 86.552 182.183 86.6593 182.192 86.762C182.202 86.8553 182.211 86.9347 182.22 87L180.722 87C180.694 86.8693 180.666 86.6873 180.638 86.454C180.62 86.2207 180.606 86.0107 180.596 85.824L180.582 85.726ZM178.734 85.88C179.08 85.88 179.364 85.81 179.588 85.67C179.822 85.5207 180.008 85.3527 180.148 85.166C180.288 84.97 180.386 84.7787 180.442 84.592C180.498 84.4053 180.526 84.2747 180.526 84.2L180.526 83.71L179.518 83.71C178.874 83.71 178.403 83.8127 178.104 84.018C177.806 84.214 177.656 84.494 177.656 84.858C177.656 85.1753 177.745 85.4273 177.922 85.614C178.109 85.7913 178.38 85.88 178.734 85.88ZM185.526 76.962L185.526 87L183.902 87L183.902 76.962L185.526 76.962ZM191.911 87L190.231 87L190.231 78.81L187.375 80.938L187.375 79.258L190.455 76.962L191.911 76.962L191.911 87ZM194.905 82.016L198.335 82.016L198.335 83.402L194.905 83.402L194.905 82.016ZM204.221 85.726C204.146 85.894 204.044 86.062 203.913 86.23C203.792 86.398 203.638 86.552 203.451 86.692C203.274 86.8227 203.059 86.93 202.807 87.014C202.555 87.098 202.261 87.14 201.925 87.14C201.608 87.14 201.314 87.0934 201.043 87C200.772 86.916 200.534 86.7854 200.329 86.608C200.133 86.4307 199.974 86.2114 199.853 85.95C199.741 85.6794 199.685 85.3714 199.685 85.026C199.685 84.2327 199.979 83.64 200.567 83.248C201.155 82.8467 201.986 82.646 203.059 82.646L204.165 82.646L204.165 82.198C204.165 81.722 204.044 81.3954 203.801 81.218C203.558 81.0314 203.157 80.938 202.597 80.938C202.121 80.938 201.673 81.008 201.253 81.148C200.842 81.2787 200.478 81.4327 200.161 81.61L200.161 80.252C200.45 80.0934 200.833 79.944 201.309 79.804C201.785 79.664 202.303 79.594 202.863 79.594C203.796 79.594 204.515 79.79 205.019 80.182C205.532 80.5647 205.789 81.1807 205.789 82.03L205.789 85.824C205.789 85.908 205.789 86.006 205.789 86.118C205.798 86.2207 205.803 86.328 205.803 86.44C205.812 86.552 205.822 86.6594 205.831 86.762C205.84 86.8554 205.85 86.9347 205.859 87L204.361 87C204.333 86.8694 204.305 86.6874 204.277 86.454C204.258 86.2207 204.244 86.0107 204.235 85.824L204.221 85.726ZM202.373 85.88C202.718 85.88 203.003 85.81 203.227 85.67C203.46 85.5207 203.647 85.3527 203.787 85.166C203.927 84.97 204.025 84.7787 204.081 84.592C204.137 84.4054 204.165 84.2747 204.165 84.2L204.165 83.71L203.157 83.71C202.513 83.71 202.042 83.8127 201.743 84.018C201.444 84.214 201.295 84.494 201.295 84.858C201.295 85.1754 201.384 85.4274 201.561 85.614C201.748 85.7914 202.018 85.88 202.373 85.88Z" fill="#18123D"/>
<g filter="url(#filter1_d_4_151)">
<rect x="410" y="35" width="250" height="350" rx="5" fill="white"/>
</g>
<path d="M533 198.333C555.091 198.333 573 190.871 573 181.667V121.667H493V181.667C493 190.871 510.909 198.333 533 198.333Z" fill="#FFDADA" stroke="#FF6565" stroke-width="2" stroke-linecap="round" stroke-linejoin="round"/>
<ellipse cx="533" cy="121.667" rx="40" ry="16.6667" fill="#FFDADA" stroke="#FF6565" stroke-width="2" stroke-linecap="round" stroke-linejoin="round"/>
<path d="M519.374 147.962L522.832 147.962C524.101 147.962 525.058 148.2 525.702 148.676C526.346 149.152 526.668 149.913 526.668 150.958C526.668 151.798 526.472 152.447 526.08 152.904C525.697 153.352 525.175 153.665 524.512 153.842L527.102 158L525.156 158L522.706 154.038L521.068 154.038L521.068 158L519.374 158L519.374 147.962ZM521.068 149.432L521.068 152.624L522.776 152.624C523.112 152.624 523.411 152.596 523.672 152.54C523.943 152.484 524.171 152.391 524.358 152.26C524.545 152.129 524.685 151.957 524.778 151.742C524.881 151.527 524.932 151.261 524.932 150.944C524.932 150.384 524.75 149.992 524.386 149.768C524.031 149.544 523.513 149.432 522.832 149.432L521.068 149.432ZM533.835 159.946C533.116 159.115 532.579 158.173 532.225 157.118C531.879 156.063 531.707 154.925 531.707 153.702C531.707 153.095 531.749 152.498 531.833 151.91C531.926 151.322 532.061 150.757 532.239 150.216C532.416 149.675 532.635 149.171 532.897 148.704C533.167 148.228 533.48 147.799 533.835 147.416L535.473 147.416C535.099 147.78 534.773 148.2 534.493 148.676C534.222 149.143 533.993 149.647 533.807 150.188C533.629 150.72 533.494 151.28 533.401 151.868C533.317 152.456 533.275 153.053 533.275 153.66C533.275 154.883 533.452 156.026 533.807 157.09C534.161 158.145 534.717 159.097 535.473 159.946L533.835 159.946ZM540.076 153.128L539.166 151.462L538.242 153.128L537.052 152.246L538.354 150.846L536.492 150.482L536.94 149.068L538.648 149.866L538.41 147.962L539.894 147.962L539.642 149.88L541.364 149.068L541.812 150.482L539.95 150.832L541.252 152.246L540.076 153.128ZM544.473 159.946C545.191 159.115 545.723 158.173 546.069 157.118C546.423 156.063 546.601 154.925 546.601 153.702C546.601 153.095 546.554 152.498 546.461 151.91C546.377 151.322 546.246 150.757 546.069 150.216C545.891 149.675 545.667 149.171 545.397 148.704C545.135 148.228 544.827 147.799 544.473 147.416L542.835 147.416C543.208 147.78 543.53 148.2 543.801 148.676C544.081 149.143 544.309 149.647 544.487 150.188C544.673 150.72 544.809 151.28 544.893 151.868C544.986 152.456 545.033 153.053 545.033 153.66C545.033 154.883 544.855 156.026 544.501 157.09C544.146 158.145 543.591 159.097 542.835 159.946L544.473 159.946ZM516.123 175.946C515.404 175.115 514.867 174.173 514.513 173.118C514.167 172.063 513.995 170.925 513.995 169.702C513.995 169.095 514.037 168.498 514.121 167.91C514.214 167.322 514.349 166.757 514.527 166.216C514.704 165.675 514.923 165.171 515.185 164.704C515.455 164.228 515.768 163.799 516.123 163.416L517.761 163.416C517.387 163.78 517.061 164.2 516.781 164.676C516.51 165.143 516.281 165.647 516.095 166.188C515.917 166.72 515.782 167.28 515.689 167.868C515.605 168.456 515.563 169.053 515.563 169.66C515.563 170.883 515.74 172.026 516.095 173.09C516.449 174.145 517.005 175.097 517.761 175.946L516.123 175.946ZM521.552 174.14C521.188 174.14 520.857 174.107 520.558 174.042C520.269 173.986 520.012 173.916 519.788 173.832C519.564 173.748 519.373 173.659 519.214 173.566C519.065 173.473 518.943 173.389 518.85 173.314L518.85 172.026C518.943 172.11 519.069 172.203 519.228 172.306C519.396 172.399 519.587 172.493 519.802 172.586C520.026 172.67 520.278 172.74 520.558 172.796C520.838 172.852 521.151 172.88 521.496 172.88C522.009 172.88 522.383 172.805 522.616 172.656C522.859 172.497 522.98 172.269 522.98 171.97C522.98 171.774 522.933 171.62 522.84 171.508C522.747 171.396 522.621 171.307 522.462 171.242C522.303 171.177 522.117 171.13 521.902 171.102C521.697 171.065 521.482 171.023 521.258 170.976C520.969 170.92 520.679 170.85 520.39 170.766C520.11 170.673 519.853 170.547 519.62 170.388C519.396 170.229 519.209 170.024 519.06 169.772C518.92 169.52 518.85 169.198 518.85 168.806C518.85 168.115 519.107 167.574 519.62 167.182C520.133 166.79 520.866 166.594 521.818 166.594C522.359 166.594 522.826 166.65 523.218 166.762C523.619 166.874 523.913 166.991 524.1 167.112L524.1 168.4C523.876 168.251 523.587 168.12 523.232 168.008C522.877 167.896 522.429 167.84 521.888 167.84C521.356 167.84 520.969 167.91 520.726 168.05C520.483 168.19 520.362 168.409 520.362 168.708C520.362 168.876 520.404 169.011 520.488 169.114C520.581 169.207 520.698 169.282 520.838 169.338C520.987 169.394 521.155 169.441 521.342 169.478C521.538 169.506 521.739 169.539 521.944 169.576C522.233 169.632 522.527 169.702 522.826 169.786C523.134 169.861 523.409 169.982 523.652 170.15C523.904 170.309 524.109 170.523 524.268 170.794C524.427 171.065 524.506 171.415 524.506 171.844C524.506 172.283 524.422 172.651 524.254 172.95C524.086 173.239 523.862 173.473 523.582 173.65C523.302 173.827 522.985 173.953 522.63 174.028C522.275 174.103 521.916 174.14 521.552 174.14ZM529.777 173.916C529.619 174.355 529.446 174.742 529.259 175.078C529.082 175.414 528.872 175.694 528.629 175.918C528.396 176.151 528.121 176.324 527.803 176.436C527.495 176.557 527.131 176.618 526.711 176.618C526.254 176.618 525.862 176.543 525.535 176.394L525.535 174.938C525.666 175.041 525.829 175.12 526.025 175.176C526.221 175.232 526.436 175.26 526.669 175.26C526.987 175.26 527.248 175.19 527.453 175.05C527.659 174.919 527.845 174.719 528.013 174.448L525.087 166.734L526.837 166.734L528.867 172.376L530.883 166.734L532.395 166.734L529.777 173.916ZM537.028 167.938C536.552 167.938 536.16 168.041 535.852 168.246C535.544 168.442 535.292 168.699 535.096 169.016L535.096 174L533.472 174L533.472 166.734L535.012 166.734L535.068 167.924L535.096 167.924C535.292 167.541 535.586 167.224 535.978 166.972C536.38 166.72 536.888 166.594 537.504 166.594C538.214 166.594 538.792 166.785 539.24 167.168C539.698 167.551 539.926 168.134 539.926 168.918L539.926 174L538.288 174L538.288 169.086C538.288 168.666 538.176 168.372 537.952 168.204C537.728 168.027 537.42 167.938 537.028 167.938ZM545.008 174.14C544.42 174.14 543.893 174.056 543.426 173.888C542.959 173.711 542.563 173.463 542.236 173.146C541.909 172.819 541.657 172.423 541.48 171.956C541.303 171.489 541.214 170.957 541.214 170.36C541.214 169.772 541.303 169.245 541.48 168.778C541.657 168.311 541.909 167.919 542.236 167.602C542.563 167.275 542.964 167.028 543.44 166.86C543.916 166.683 544.448 166.594 545.036 166.594C545.54 166.594 545.979 166.65 546.352 166.762C546.735 166.874 547.038 167.014 547.262 167.182L547.262 168.526C546.973 168.339 546.655 168.195 546.31 168.092C545.974 167.989 545.582 167.938 545.134 167.938C543.631 167.938 542.88 168.745 542.88 170.36C542.88 171.975 543.617 172.782 545.092 172.782C545.568 172.782 545.974 172.731 546.31 172.628C546.655 172.516 546.973 172.376 547.262 172.208L547.262 173.552C547.019 173.711 546.716 173.851 546.352 173.972C545.988 174.084 545.54 174.14 545.008 174.14ZM549.88 175.946C550.599 175.115 551.131 174.173 551.476 173.118C551.831 172.063 552.008 170.925 552.008 169.702C552.008 169.095 551.961 168.498 551.868 167.91C551.784 167.322 551.653 166.757 551.476 166.216C551.299 165.675 551.075 165.171 550.804 164.704C550.543 164.228 550.235 163.799 549.88 163.416L548.242 163.416C548.615 163.78 548.937 164.2 549.208 164.676C549.488 165.143 549.717 165.647 549.894 166.188C550.081 166.72 550.216 167.28 550.3 167.868C550.393 168.456 550.44 169.053 550.44 169.66C550.44 170.883 550.263 172.026 549.908 173.09C549.553 174.145 548.998 175.097 548.242 175.946L549.88 175.946Z" fill="#18123D"/>
<path d="M518.296 159.988L547.707 159.988L547.707 161.038L518.296 161.038L518.296 159.988ZM512.889 175.988L553.114 175.988L553.114 177.038L512.889 177.038L512.889 175.988Z" fill="#18123D"/>
<path d="M533 346.333C555.091 346.333 573 338.871 573 329.667V269.667H493V329.667C493 338.871 510.909 346.333 533 346.333Z" fill="#D5FAF3" stroke="#73F8DE" stroke-width="2" stroke-linecap="round" stroke-linejoin="round"/>
<ellipse cx="533" cy="269.667" rx="40" ry="16.6667" fill="#D5FAF3" stroke="#73F8DE" stroke-width="2" stroke-linecap="round" stroke-linejoin="round"/>
<path d="M529.464 295.962L532.922 295.962C534.191 295.962 535.148 296.2 535.792 296.676C536.436 297.152 536.758 297.913 536.758 298.958C536.758 299.798 536.562 300.447 536.17 300.904C535.787 301.352 535.264 301.665 534.602 301.842L537.192 306L535.246 306L532.796 302.038L531.158 302.038L531.158 306L529.464 306L529.464 295.962ZM531.158 297.432L531.158 300.624L532.866 300.624C533.202 300.624 533.5 300.596 533.762 300.54C534.032 300.484 534.261 300.391 534.448 300.26C534.634 300.129 534.774 299.957 534.868 299.742C534.97 299.527 535.022 299.261 535.022 298.944C535.022 298.384 534.84 297.992 534.476 297.768C534.121 297.544 533.603 297.432 532.922 297.432L531.158 297.432ZM512.37 323.946C511.651 323.115 511.114 322.173 510.76 321.118C510.414 320.063 510.242 318.925 510.242 317.702C510.242 317.095 510.284 316.498 510.368 315.91C510.461 315.322 510.596 314.757 510.774 314.216C510.951 313.675 511.17 313.171 511.432 312.704C511.702 312.228 512.015 311.799 512.37 311.416L514.008 311.416C513.634 311.78 513.308 312.2 513.028 312.676C512.757 313.143 512.528 313.647 512.342 314.188C512.164 314.72 512.029 315.28 511.936 315.868C511.852 316.456 511.81 317.053 511.81 317.66C511.81 318.883 511.987 320.026 512.342 321.09C512.696 322.145 513.252 323.097 514.008 323.946L512.37 323.946ZM519.591 320.726C519.516 320.894 519.414 321.062 519.283 321.23C519.162 321.398 519.008 321.552 518.821 321.692C518.644 321.823 518.429 321.93 518.177 322.014C517.925 322.098 517.631 322.14 517.295 322.14C516.978 322.14 516.684 322.093 516.413 322C516.142 321.916 515.904 321.785 515.699 321.608C515.503 321.431 515.344 321.211 515.223 320.95C515.111 320.679 515.055 320.371 515.055 320.026C515.055 319.233 515.349 318.64 515.937 318.248C516.525 317.847 517.356 317.646 518.429 317.646L519.535 317.646L519.535 317.198C519.535 316.722 519.414 316.395 519.171 316.218C518.928 316.031 518.527 315.938 517.967 315.938C517.491 315.938 517.043 316.008 516.623 316.148C516.212 316.279 515.848 316.433 515.531 316.61L515.531 315.252C515.82 315.093 516.203 314.944 516.679 314.804C517.155 314.664 517.673 314.594 518.233 314.594C519.166 314.594 519.885 314.79 520.389 315.182C520.902 315.565 521.159 316.181 521.159 317.03L521.159 320.824C521.159 320.908 521.159 321.006 521.159 321.118C521.168 321.221 521.173 321.328 521.173 321.44C521.182 321.552 521.192 321.659 521.201 321.762C521.21 321.855 521.22 321.935 521.229 322L519.731 322C519.703 321.869 519.675 321.687 519.647 321.454C519.628 321.221 519.614 321.011 519.605 320.824L519.591 320.726ZM517.743 320.88C518.088 320.88 518.373 320.81 518.597 320.67C518.83 320.521 519.017 320.353 519.157 320.166C519.297 319.97 519.395 319.779 519.451 319.592C519.507 319.405 519.535 319.275 519.535 319.2L519.535 318.71L518.527 318.71C517.883 318.71 517.412 318.813 517.113 319.018C516.814 319.214 516.665 319.494 516.665 319.858C516.665 320.175 516.754 320.427 516.931 320.614C517.118 320.791 517.388 320.88 517.743 320.88ZM525.305 322.14C524.941 322.14 524.61 322.107 524.311 322.042C524.022 321.986 523.765 321.916 523.541 321.832C523.317 321.748 523.126 321.659 522.967 321.566C522.818 321.473 522.696 321.389 522.603 321.314L522.603 320.026C522.696 320.11 522.822 320.203 522.981 320.306C523.149 320.399 523.34 320.493 523.555 320.586C523.779 320.67 524.031 320.74 524.311 320.796C524.591 320.852 524.904 320.88 525.249 320.88C525.762 320.88 526.136 320.805 526.369 320.656C526.612 320.497 526.733 320.269 526.733 319.97C526.733 319.774 526.686 319.62 526.593 319.508C526.5 319.396 526.374 319.307 526.215 319.242C526.056 319.177 525.87 319.13 525.655 319.102C525.45 319.065 525.235 319.023 525.011 318.976C524.722 318.92 524.432 318.85 524.143 318.766C523.863 318.673 523.606 318.547 523.373 318.388C523.149 318.229 522.962 318.024 522.813 317.772C522.673 317.52 522.603 317.198 522.603 316.806C522.603 316.115 522.86 315.574 523.373 315.182C523.886 314.79 524.619 314.594 525.571 314.594C526.112 314.594 526.579 314.65 526.971 314.762C527.372 314.874 527.666 314.991 527.853 315.112L527.853 316.4C527.629 316.251 527.34 316.12 526.985 316.008C526.63 315.896 526.182 315.84 525.641 315.84C525.109 315.84 524.722 315.91 524.479 316.05C524.236 316.19 524.115 316.409 524.115 316.708C524.115 316.876 524.157 317.011 524.241 317.114C524.334 317.207 524.451 317.282 524.591 317.338C524.74 317.394 524.908 317.441 525.095 317.478C525.291 317.506 525.492 317.539 525.697 317.576C525.986 317.632 526.28 317.702 526.579 317.786C526.887 317.861 527.162 317.982 527.405 318.15C527.657 318.309 527.862 318.523 528.021 318.794C528.18 319.065 528.259 319.415 528.259 319.844C528.259 320.283 528.175 320.651 528.007 320.95C527.839 321.239 527.615 321.473 527.335 321.65C527.055 321.827 526.738 321.953 526.383 322.028C526.028 322.103 525.669 322.14 525.305 322.14ZM533.53 321.916C533.372 322.355 533.199 322.742 533.012 323.078C532.835 323.414 532.625 323.694 532.382 323.918C532.149 324.151 531.874 324.324 531.556 324.436C531.248 324.557 530.884 324.618 530.464 324.618C530.007 324.618 529.615 324.543 529.288 324.394L529.288 322.938C529.419 323.041 529.582 323.12 529.778 323.176C529.974 323.232 530.189 323.26 530.422 323.26C530.74 323.26 531.001 323.19 531.206 323.05C531.412 322.919 531.598 322.719 531.766 322.448L528.84 314.734L530.59 314.734L532.62 320.376L534.636 314.734L536.148 314.734L533.53 321.916ZM540.781 315.938C540.305 315.938 539.913 316.041 539.605 316.246C539.297 316.442 539.045 316.699 538.849 317.016L538.849 322L537.225 322L537.225 314.734L538.765 314.734L538.821 315.924L538.849 315.924C539.045 315.541 539.339 315.224 539.731 314.972C540.133 314.72 540.641 314.594 541.257 314.594C541.967 314.594 542.545 314.785 542.993 315.168C543.451 315.551 543.679 316.134 543.679 316.918L543.679 322L542.041 322L542.041 317.086C542.041 316.666 541.929 316.372 541.705 316.204C541.481 316.027 541.173 315.938 540.781 315.938ZM548.761 322.14C548.173 322.14 547.646 322.056 547.179 321.888C546.712 321.711 546.316 321.463 545.989 321.146C545.662 320.819 545.41 320.423 545.233 319.956C545.056 319.489 544.967 318.957 544.967 318.36C544.967 317.772 545.056 317.245 545.233 316.778C545.41 316.311 545.662 315.919 545.989 315.602C546.316 315.275 546.717 315.028 547.193 314.86C547.669 314.683 548.201 314.594 548.789 314.594C549.293 314.594 549.732 314.65 550.105 314.762C550.488 314.874 550.791 315.014 551.015 315.182L551.015 316.526C550.726 316.339 550.408 316.195 550.063 316.092C549.727 315.989 549.335 315.938 548.887 315.938C547.384 315.938 546.633 316.745 546.633 318.36C546.633 319.975 547.37 320.782 548.845 320.782C549.321 320.782 549.727 320.731 550.063 320.628C550.408 320.516 550.726 320.376 551.015 320.208L551.015 321.552C550.772 321.711 550.469 321.851 550.105 321.972C549.741 322.084 549.293 322.14 548.761 322.14ZM553.633 323.946C554.352 323.115 554.884 322.173 555.229 321.118C555.584 320.063 555.761 318.925 555.761 317.702C555.761 317.095 555.714 316.498 555.621 315.91C555.537 315.322 555.406 314.757 555.229 314.216C555.052 313.675 554.828 313.171 554.557 312.704C554.296 312.228 553.988 311.799 553.633 311.416L551.995 311.416C552.368 311.78 552.69 312.2 552.961 312.676C553.241 313.143 553.47 313.647 553.647 314.188C553.834 314.72 553.969 315.28 554.053 315.868C554.146 316.456 554.193 317.053 554.193 317.66C554.193 318.883 554.016 320.026 553.661 321.09C553.306 322.145 552.751 323.097 551.995 323.946L553.633 323.946Z" fill="#18123D"/>
<path d="M528.386 307.988L537.612 307.988L537.612 309.038L528.386 309.038L528.386 307.988ZM509.136 323.988L556.867 323.988L556.867 325.038L509.136 325.038L509.136 323.988Z" fill="#18123D"/>
<path d="M497.778 81.302C497.246 81.2927 496.766 81.3767 496.336 81.554C495.907 81.7313 495.58 82.0113 495.356 82.394L495.356 87L493.732 87L493.732 79.734L495.216 79.734L495.328 81.246L495.356 81.246C495.59 80.798 495.907 80.4247 496.308 80.126C496.719 79.8273 497.209 79.65 497.778 79.594L497.778 81.302ZM503.739 85.81C503.543 86.1833 503.249 86.5007 502.857 86.762C502.475 87.014 501.971 87.14 501.345 87.14C500.664 87.14 500.109 86.944 499.679 86.552C499.25 86.16 499.035 85.5627 499.035 84.76L499.035 79.734L500.673 79.734L500.673 84.718C500.673 85.138 500.79 85.4227 501.023 85.572C501.257 85.712 501.541 85.782 501.877 85.782C502.335 85.782 502.708 85.6887 502.997 85.502C503.287 85.306 503.534 85.0447 503.739 84.718L503.739 79.734L505.349 79.734L505.349 87L503.865 87L503.767 85.81L503.739 85.81ZM507.045 82.016L510.475 82.016L510.475 83.402L507.045 83.402L507.045 82.016ZM515.658 87.14C515.07 87.14 514.543 87.056 514.076 86.888C513.61 86.7107 513.213 86.4633 512.886 86.146C512.56 85.8193 512.308 85.4227 512.13 84.956C511.953 84.4893 511.864 83.9573 511.864 83.36C511.864 82.772 511.953 82.2447 512.13 81.778C512.308 81.3113 512.56 80.9193 512.886 80.602C513.213 80.2753 513.614 80.028 514.09 79.86C514.566 79.6827 515.098 79.594 515.686 79.594C516.19 79.594 516.629 79.65 517.002 79.762C517.385 79.874 517.688 80.014 517.912 80.182L517.912 81.526C517.623 81.3393 517.306 81.1947 516.96 81.092C516.624 80.9893 516.232 80.938 515.784 80.938C514.282 80.938 513.53 81.7453 513.53 83.36C513.53 84.9747 514.268 85.782 515.742 85.782C516.218 85.782 516.624 85.7307 516.96 85.628C517.306 85.516 517.623 85.376 517.912 85.208L517.912 86.552C517.67 86.7107 517.366 86.8507 517.002 86.972C516.638 87.084 516.19 87.14 515.658 87.14ZM525.388 86.468C525.286 86.5333 525.16 86.608 525.01 86.692C524.861 86.7667 524.684 86.8367 524.478 86.902C524.273 86.9673 524.035 87.0233 523.764 87.07C523.494 87.1167 523.186 87.14 522.84 87.14C521.506 87.14 520.507 86.8087 519.844 86.146C519.191 85.4833 518.864 84.5547 518.864 83.36C518.864 82.772 518.953 82.2447 519.13 81.778C519.308 81.3113 519.555 80.9193 519.872 80.602C520.19 80.2753 520.568 80.028 521.006 79.86C521.445 79.6827 521.926 79.594 522.448 79.594C522.99 79.594 523.475 79.6827 523.904 79.86C524.343 80.0373 524.702 80.3033 524.982 80.658C525.262 81.0127 525.454 81.4513 525.556 81.974C525.668 82.4967 525.673 83.108 525.57 83.808L520.544 83.808C520.61 84.4707 520.829 84.97 521.202 85.306C521.576 85.6327 522.159 85.796 522.952 85.796C523.531 85.796 524.012 85.726 524.394 85.586C524.786 85.4367 525.118 85.2827 525.388 85.124L525.388 86.468ZM522.448 80.882C521.972 80.882 521.571 81.0267 521.244 81.316C520.918 81.6053 520.703 82.0347 520.6 82.604L524.016 82.604C524.035 82.016 523.904 81.582 523.624 81.302C523.344 81.022 522.952 80.882 522.448 80.882ZM530.566 80.938C530.09 80.938 529.698 81.0407 529.39 81.246C529.082 81.442 528.83 81.6987 528.634 82.016L528.634 87L527.01 87L527.01 79.734L528.55 79.734L528.606 80.924L528.634 80.924C528.83 80.5413 529.124 80.224 529.516 79.972C529.917 79.72 530.426 79.594 531.042 79.594C531.751 79.594 532.33 79.7853 532.778 80.168C533.235 80.5507 533.464 81.134 533.464 81.918L533.464 87L531.826 87L531.826 82.086C531.826 81.666 531.714 81.372 531.49 81.204C531.266 81.0267 530.958 80.938 530.566 80.938ZM539.105 86.776C538.937 86.8787 538.727 86.9627 538.475 87.028C538.223 87.1027 537.934 87.14 537.607 87.14C537.215 87.14 536.884 87.0887 536.613 86.986C536.352 86.874 536.137 86.7247 535.969 86.538C535.801 86.3513 535.68 86.1367 535.605 85.894C535.53 85.642 535.493 85.376 535.493 85.096L535.493 81.05L534.625 81.05L534.625 79.734L535.493 79.734L535.493 78.208L537.117 78.208L537.117 79.734L539.203 79.734L539.203 81.05L537.117 81.05L537.117 84.914C537.117 85.2127 537.187 85.432 537.327 85.572C537.476 85.712 537.719 85.782 538.055 85.782C538.279 85.782 538.475 85.7493 538.643 85.684C538.811 85.6187 538.965 85.53 539.105 85.418L539.105 86.776ZM544.659 81.302C544.127 81.2927 543.646 81.3767 543.217 81.554C542.788 81.7313 542.461 82.0113 542.237 82.394L542.237 87L540.613 87L540.613 79.734L542.097 79.734L542.209 81.246L542.237 81.246C542.47 80.798 542.788 80.4247 543.189 80.126C543.6 79.8273 544.09 79.65 544.659 79.594L544.659 81.302ZM550.035 85.726C549.961 85.894 549.858 86.062 549.727 86.23C549.606 86.398 549.452 86.552 549.265 86.692C549.088 86.8227 548.873 86.93 548.621 87.014C548.369 87.098 548.075 87.14 547.739 87.14C547.422 87.14 547.128 87.0933 546.857 87C546.587 86.916 546.349 86.7853 546.143 86.608C545.947 86.4307 545.789 86.2113 545.667 85.95C545.555 85.6793 545.499 85.3713 545.499 85.026C545.499 84.2327 545.793 83.64 546.381 83.248C546.969 82.8467 547.8 82.646 548.873 82.646L549.979 82.646L549.979 82.198C549.979 81.722 549.858 81.3953 549.615 81.218C549.373 81.0313 548.971 80.938 548.411 80.938C547.935 80.938 547.487 81.008 547.067 81.148C546.657 81.2787 546.293 81.4327 545.975 81.61L545.975 80.252C546.265 80.0933 546.647 79.944 547.123 79.804C547.599 79.664 548.117 79.594 548.677 79.594C549.611 79.594 550.329 79.79 550.833 80.182C551.347 80.5647 551.603 81.1807 551.603 82.03L551.603 85.824C551.603 85.908 551.603 86.006 551.603 86.118C551.613 86.2207 551.617 86.328 551.617 86.44C551.627 86.552 551.636 86.6593 551.645 86.762C551.655 86.8553 551.664 86.9347 551.673 87L550.175 87C550.147 86.8693 550.119 86.6873 550.091 86.454C550.073 86.2207 550.059 86.0107 550.049 85.824L550.035 85.726ZM548.187 85.88C548.533 85.88 548.817 85.81 549.041 85.67C549.275 85.5207 549.461 85.3527 549.601 85.166C549.741 84.97 549.839 84.7787 549.895 84.592C549.951 84.4053 549.979 84.2747 549.979 84.2L549.979 83.71L548.971 83.71C548.327 83.71 547.856 83.8127 547.557 84.018C547.259 84.214 547.109 84.494 547.109 84.858C547.109 85.1753 547.198 85.4273 547.375 85.614C547.562 85.7913 547.833 85.88 548.187 85.88ZM554.979 76.962L554.979 87L553.355 87L553.355 76.962L554.979 76.962ZM561.365 87L559.685 87L559.685 78.81L556.829 80.938L556.829 79.258L559.909 76.962L561.365 76.962L561.365 87ZM564.358 82.016L567.788 82.016L567.788 83.402L564.358 83.402L564.358 82.016ZM576.712 83.36C576.712 84.004 576.623 84.564 576.446 85.04C576.278 85.5067 576.045 85.8987 575.746 86.216C575.457 86.524 575.116 86.7574 574.724 86.916C574.332 87.0654 573.921 87.14 573.492 87.14C572.932 87.14 572.447 87.014 572.036 86.762C571.635 86.5007 571.313 86.146 571.07 85.698L571.028 87L569.488 87L569.488 76.962L571.112 76.962L571.098 81.008C571.341 80.5694 571.663 80.224 572.064 79.972C572.465 79.72 572.951 79.594 573.52 79.594C573.949 79.594 574.355 79.6734 574.738 79.832C575.13 79.9814 575.471 80.2147 575.76 80.532C576.049 80.84 576.278 81.232 576.446 81.708C576.623 82.1747 576.712 82.7254 576.712 83.36ZM573.1 85.782C573.679 85.782 574.145 85.586 574.5 85.194C574.864 84.7927 575.046 84.1814 575.046 83.36C575.046 82.548 574.864 81.9414 574.5 81.54C574.145 81.1387 573.683 80.938 573.114 80.938C572.825 80.938 572.559 80.9894 572.316 81.092C572.073 81.1854 571.859 81.3347 571.672 81.54C571.495 81.7454 571.355 82.002 571.252 82.31C571.149 82.6087 571.098 82.9587 571.098 83.36C571.098 83.7707 571.149 84.13 571.252 84.438C571.355 84.7367 571.495 84.9887 571.672 85.194C571.849 85.39 572.059 85.5394 572.302 85.642C572.554 85.7354 572.82 85.782 573.1 85.782Z" fill="#18123D"/>
<path d="M493 153L483 147.226V158.774L493 153ZM484 152L203 152V154L484 154V152Z" fill="#4E496B"/>
<path d="M533 253L538.774 243L527.226 243L533 253ZM532 198L532 244L534 244L534 198L532 198Z" fill="#4E496B"/>
<path d="M163 253L168.774 243L157.226 243L163 253ZM162 198L162 244L164 244L164 198L162 198Z" fill="#4E496B"/>
<defs>
<filter id="filter0_d_4_151" x="30" y="25" width="270" height="370" filterUnits="userSpaceOnUse" color-interpolation-filters="sRGB">
<feFlood flood-opacity="0" result="BackgroundImageFix"/>
<feColorMatrix in="SourceAlpha" type="matrix" values="0 0 0 0 0 0 0 0 0 0 0 0 0 0 0 0 0 0 127 0" result="hardAlpha"/>
<feOffset/>
<feGaussianBlur stdDeviation="5"/>
<feComposite in2="hardAlpha" operator="out"/>
<feColorMatrix type="matrix" values="0 0 0 0 0.592157 0 0 0 0 0.74902 0 0 0 0 0.905882 0 0 0 0.4 0"/>
<feBlend mode="normal" in2="BackgroundImageFix" result="effect1_dropShadow_4_151"/>
<feBlend mode="normal" in="SourceGraphic" in2="effect1_dropShadow_4_151" result="shape"/>
</filter>
<filter id="filter1_d_4_151" x="400" y="25" width="270" height="370" filterUnits="userSpaceOnUse" color-interpolation-filters="sRGB">
<feFlood flood-opacity="0" result="BackgroundImageFix"/>
<feColorMatrix in="SourceAlpha" type="matrix" values="0 0 0 0 0 0 0 0 0 0 0 0 0 0 0 0 0 0 127 0" result="hardAlpha"/>
<feOffset/>
<feGaussianBlur stdDeviation="5"/>
<feComposite in2="hardAlpha" operator="out"/>
<feColorMatrix type="matrix" values="0 0 0 0 0.592157 0 0 0 0 0.74902 0 0 0 0 0.905882 0 0 0 0.4 0"/>
<feBlend mode="normal" in2="BackgroundImageFix" result="effect1_dropShadow_4_151"/>
<feBlend mode="normal" in="SourceGraphic" in2="effect1_dropShadow_4_151" result="shape"/>
</filter>
</defs>
</svg>
