<svg xmlns="http://www.w3.org/2000/svg" width="481" height="136" fill="none"><path fill="#000" fill-opacity=".7" d="m480.753 72-5-2.887v5.774l5-2.887ZM0 72.5H476.252v-1H0v1Z"/><circle cx="102" cy="72" r="29.5" fill="#F5F4F4" stroke="#67B0F8"/><path fill="#F5F4F4" stroke="#67B0F8" d="M115.643 71.333c0 6.362-1.659 12.099-4.314 16.23-2.659 4.135-6.272 6.604-10.186 6.604-3.915 0-7.527-2.47-10.186-6.605-2.655-4.13-4.314-9.867-4.314-16.229 0-6.362 1.659-12.098 4.314-16.228 2.659-4.136 6.272-6.605 10.186-6.605 3.914 0 7.527 2.469 10.186 6.605 2.655 4.13 4.314 9.866 4.314 16.228Z"/><rect width="59" height="59" x="72.5" y="42.5" fill="#F5F4F4" stroke="#67B0F8" rx="9.5"/><path fill="#352E5E" d="M97.777 77h-6.202V66.962h1.316v8.848h4.886V77Zm4.084-8.82V77h-1.33v-8.82h-3.094v-1.218h7.518v1.218h-3.094Zm7.512 8.96a7.02 7.02 0 0 1-1.232-.098 5.918 5.918 0 0 1-.966-.224 5.014 5.014 0 0 1-.7-.322 2.805 2.805 0 0 1-.448-.35v-1.26c.14.121.322.247.546.378.224.121.481.233.77.336.299.103.616.187.952.252a5.8 5.8 0 0 0 1.078.098c.728 0 1.307-.135 1.736-.406.43-.28.644-.7.644-1.26 0-.28-.051-.509-.154-.686a1.242 1.242 0 0 0-.448-.462 2.604 2.604 0 0 0-.742-.322c-.289-.093-.63-.191-1.022-.294-.392-.103-.784-.22-1.176-.35a4.344 4.344 0 0 1-1.064-.518 2.622 2.622 0 0 1-.756-.812c-.186-.327-.28-.742-.28-1.246 0-.868.304-1.545.91-2.03.607-.485 1.536-.728 2.786-.728.364 0 .686.023.966.07.29.037.542.089.756.154.224.056.416.121.574.196.168.075.318.145.448.21v1.26a3.924 3.924 0 0 0-1.274-.532 6.055 6.055 0 0 0-1.47-.168c-.448 0-.826.037-1.134.112a2.018 2.018 0 0 0-.728.294c-.186.13-.322.29-.406.476a1.52 1.52 0 0 0-.126.63c0 .28.061.513.182.7.131.187.299.345.504.476.215.121.458.224.728.308.271.084.556.159.854.224.392.093.794.2 1.204.322.411.121.78.29 1.106.504.327.215.593.495.798.84.215.336.322.775.322 1.316 0 .532-.107.985-.322 1.358a2.61 2.61 0 0 1-.826.896 3.498 3.498 0 0 1-1.19.504 6.243 6.243 0 0 1-1.4.154Z"/><circle cx="266" cy="72" r="29.5" fill="#EDF4D6" stroke="#67B0F8"/><path fill="#EDF4D6" stroke="#67B0F8" d="M279.643 71.333c0 6.362-1.659 12.099-4.314 16.23-2.659 4.135-6.272 6.604-10.186 6.604-3.914 0-7.527-2.47-10.186-6.605-2.655-4.13-4.314-9.867-4.314-16.229 0-6.362 1.659-12.098 4.314-16.228 2.659-4.136 6.272-6.605 10.186-6.605 3.914 0 7.527 2.469 10.186 6.605 2.655 4.13 4.314 9.866 4.314 16.228Z"/><rect width="59" height="59" x="236.5" y="42.5" fill="#EDF4D6" stroke="#67B0F8" rx="9.5"/><path fill="#352E5E" d="M261.777 77h-6.202V66.962h1.316v8.848h4.886V77Zm4.084-8.82V77h-1.33v-8.82h-3.094v-1.218h7.518v1.218h-3.094Zm7.512 8.96a7.02 7.02 0 0 1-1.232-.098 5.918 5.918 0 0 1-.966-.224 5.014 5.014 0 0 1-.7-.322 2.805 2.805 0 0 1-.448-.35v-1.26c.14.121.322.247.546.378.224.121.481.233.77.336.299.103.616.187.952.252a5.8 5.8 0 0 0 1.078.098c.728 0 1.307-.135 1.736-.406.43-.28.644-.7.644-1.26 0-.28-.051-.509-.154-.686a1.242 1.242 0 0 0-.448-.462 2.604 2.604 0 0 0-.742-.322c-.289-.093-.63-.191-1.022-.294-.392-.103-.784-.22-1.176-.35a4.344 4.344 0 0 1-1.064-.518 2.622 2.622 0 0 1-.756-.812c-.186-.327-.28-.742-.28-1.246 0-.868.304-1.545.91-2.03.607-.485 1.536-.728 2.786-.728.364 0 .686.023.966.07.29.037.542.089.756.154.224.056.416.121.574.196.168.075.318.145.448.21v1.26a3.924 3.924 0 0 0-1.274-.532 6.055 6.055 0 0 0-1.47-.168c-.448 0-.826.037-1.134.112a2.018 2.018 0 0 0-.728.294c-.186.13-.322.29-.406.476a1.52 1.52 0 0 0-.126.63c0 .28.061.513.182.7.131.187.299.345.504.476.215.121.458.224.728.308.271.084.556.159.854.224.392.093.794.2 1.204.322.411.121.78.29 1.106.504.327.215.593.495.798.84.215.336.322.775.322 1.316 0 .532-.107.985-.322 1.358a2.61 2.61 0 0 1-.826.896 3.498 3.498 0 0 1-1.19.504 6.243 6.243 0 0 1-1.4.154Z"/><path fill="#000" fill-opacity=".7" d="m431.906 41.054 2.864-5.012-5.773.025 2.909 4.987Zm-330.808 1.473-.062-13.915-1 .005.062 13.915 1-.005Zm7.405-21.448 315.308-1.404-.005-1-315.307 1.404.004 1Zm322.841 6.063.042 9.415 1-.005-.042-9.415-1 .005Zm-7.533-7.467a7.5 7.5 0 0 1 7.533 7.467l1-.005a8.5 8.5 0 0 0-8.538-8.462l.005 1Zm-322.775 8.937a7.5 7.5 0 0 1 7.467-7.533l-.004-1a8.5 8.5 0 0 0-8.463 8.537l1-.004Z"/><path fill="#352E5E" d="M220.531 16.14c-.495 0-.957-.084-1.386-.252a3.229 3.229 0 0 1-1.12-.728 3.542 3.542 0 0 1-.728-1.19c-.177-.467-.266-1.003-.266-1.61 0-.597.089-1.13.266-1.596.177-.476.42-.873.728-1.19.317-.317.691-.56 1.12-.728a3.767 3.767 0 0 1 1.386-.252c.504 0 .971.084 1.4.252.429.168.798.41 1.106.728.317.317.565.714.742 1.19.187.467.28.999.28 1.596 0 .607-.093 1.143-.28 1.61a3.433 3.433 0 0 1-.742 1.19c-.308.317-.677.56-1.106.728a3.807 3.807 0 0 1-1.4.252Zm0-1.106c.327 0 .625-.051.896-.154.28-.112.523-.275.728-.49.205-.224.364-.504.476-.84.112-.336.168-.733.168-1.19 0-.457-.056-.854-.168-1.19a2.168 2.168 0 0 0-.476-.826 1.828 1.828 0 0 0-.728-.49 2.322 2.322 0 0 0-.896-.168c-.327 0-.625.056-.896.168a1.845 1.845 0 0 0-.714.49c-.196.215-.35.49-.462.826a3.774 3.774 0 0 0-.168 1.19c0 .457.056.854.168 1.19.112.336.266.616.462.84.205.215.443.378.714.49.271.103.569.154.896.154Zm11.582-2.674c0 .607-.094 1.143-.28 1.61a3.448 3.448 0 0 1-.742 1.19c-.308.317-.677.56-1.106.728-.43.168-.896.252-1.4.252-.514 0-.985-.084-1.414-.252a2.92 2.92 0 0 1-1.106-.798c-.308-.355-.551-.803-.728-1.344-.168-.541-.252-1.18-.252-1.918 0-.607.018-1.185.056-1.736.037-.55.121-1.06.252-1.526.13-.476.317-.9.56-1.274.252-.383.588-.7 1.008-.952.233-.14.476-.243.728-.308.252-.075.504-.13.756-.168.261-.037.522-.06.784-.07l.77-.028c.373-.028.686-.075.938-.14.252-.065.476-.154.672-.266v1.12c-.206.13-.425.224-.658.28-.224.047-.5.089-.826.126-.532.047-1.022.084-1.47.112-.439.019-.84.121-1.204.308a2.174 2.174 0 0 0-.994 1.176c-.187.513-.304 1.125-.35 1.834.485-1.12 1.4-1.68 2.744-1.68.457 0 .882.084 1.274.252.401.159.746.397 1.036.714.298.317.532.71.7 1.176.168.457.252.985.252 1.582Zm-3.528 2.674c.326 0 .625-.051.896-.154.28-.112.522-.275.728-.49.205-.224.364-.504.476-.84.112-.336.168-.733.168-1.19 0-.457-.056-.854-.168-1.19a2.168 2.168 0 0 0-.476-.826 1.835 1.835 0 0 0-.728-.49 2.325 2.325 0 0 0-.896-.168c-.644 0-1.181.215-1.61.644-.42.43-.63 1.092-.63 1.988 0 .467.056.873.168 1.218.112.336.266.616.462.84.205.224.443.392.714.504.27.103.569.154.896.154Zm9.815-2.254h-3.514V16h-1.232V8.734h1.232v2.996h3.514V8.734h1.232V16H238.4v-3.22Zm6.235 3.36c-.495 0-.957-.084-1.386-.252a3.22 3.22 0 0 1-1.12-.728 3.542 3.542 0 0 1-.728-1.19c-.178-.467-.266-1.003-.266-1.61 0-.597.088-1.13.266-1.596.177-.476.42-.873.728-1.19a3.22 3.22 0 0 1 1.12-.728 3.767 3.767 0 0 1 1.386-.252c.504 0 .97.084 1.4.252.429.168.798.41 1.106.728.317.317.564.714.742 1.19.186.467.28.999.28 1.596 0 .607-.094 1.143-.28 1.61a3.448 3.448 0 0 1-.742 1.19c-.308.317-.677.56-1.106.728-.43.168-.896.252-1.4.252Zm0-1.106c.326 0 .625-.051.896-.154.28-.112.522-.275.728-.49.205-.224.364-.504.476-.84.112-.336.168-.733.168-1.19 0-.457-.056-.854-.168-1.19a2.168 2.168 0 0 0-.476-.826 1.835 1.835 0 0 0-.728-.49 2.325 2.325 0 0 0-.896-.168c-.327 0-.626.056-.896.168a1.845 1.845 0 0 0-.714.49c-.196.215-.35.49-.462.826a3.774 3.774 0 0 0-.168 1.19c0 .457.056.854.168 1.19.112.336.266.616.462.84.205.215.443.378.714.49.27.103.569.154.896.154Zm5.029-6.3h2.716c.878 0 1.54.154 1.988.462.448.299.672.77.672 1.414 0 .43-.112.775-.336 1.036-.214.252-.522.434-.924.546 1.036.168 1.554.742 1.554 1.722 0 .373-.074.695-.224.966a1.839 1.839 0 0 1-.616.644c-.261.168-.578.29-.952.364-.364.075-.76.112-1.19.112h-2.688V8.734Zm1.232 1.05v1.974h1.372c.467 0 .84-.084 1.12-.252.29-.168.434-.41.434-.728 0-.383-.126-.644-.378-.784s-.611-.21-1.078-.21h-1.47Zm0 2.954v2.212h1.442c.262 0 .495-.014.7-.042a1.7 1.7 0 0 0 .546-.182.906.906 0 0 0 .364-.336.99.99 0 0 0 .126-.518c0-.42-.144-.714-.434-.882-.289-.168-.723-.252-1.302-.252h-1.442Zm6.779 1.008c.131-.476.215-1.12.252-1.932.038-.812.056-1.839.056-3.08h4.886V16h-1.246V9.784h-2.478a42.616 42.616 0 0 1-.098 2.66c-.046.775-.154 1.428-.322 1.96-.158.532-.396.938-.714 1.218-.308.27-.723.406-1.246.406h-.112a.657.657 0 0 1-.126-.014v-1.218a.97.97 0 0 0 .182.014c.476 0 .798-.355.966-1.064Zm12.974 1.638a3.738 3.738 0 0 1-.378.238 4.34 4.34 0 0 1-.546.252 4.576 4.576 0 0 1-.728.182c-.27.056-.574.084-.91.084-1.222 0-2.151-.331-2.786-.994-.634-.663-.952-1.591-.952-2.786 0-.588.084-1.115.252-1.582.178-.467.42-.859.728-1.176a3.028 3.028 0 0 1 1.092-.742c.42-.177.878-.266 1.372-.266.523 0 .99.089 1.4.266.411.177.747.439 1.008.784.271.345.453.775.546 1.288.103.504.103 1.092 0 1.764h-5.124c.047.784.28 1.372.7 1.764.42.383 1.046.574 1.876.574.56 0 1.041-.08 1.442-.238a5.015 5.015 0 0 0 1.008-.518v1.106Zm-2.884-5.698c-.532 0-.989.163-1.372.49-.382.327-.625.821-.728 1.484h3.906c.038-.672-.116-1.167-.462-1.484-.345-.327-.793-.49-1.344-.49Zm9.382 3.094h-3.514V16h-1.232V8.734h1.232v2.996h3.514V8.734h1.232V16h-1.232v-3.22Zm4.484 1.54 3.878-5.586h1.246V16h-1.232v-5.572L281.659 16h-1.26V8.734h1.232v5.586Zm12.917 1.064a3.979 3.979 0 0 1-.924.49 4.632 4.632 0 0 1-.728.182 4.51 4.51 0 0 1-.91.084c-1.223 0-2.152-.331-2.786-.994-.635-.663-.952-1.591-.952-2.786 0-.588.084-1.115.252-1.582.177-.467.42-.859.728-1.176a3.028 3.028 0 0 1 1.092-.742 3.49 3.49 0 0 1 1.372-.266c.522 0 .989.089 1.4.266.41.177.746.439 1.008.784.27.345.452.775.546 1.288.102.504.102 1.092 0 1.764h-5.124c.046.784.28 1.372.7 1.764.42.383 1.045.574 1.876.574.56 0 1.04-.08 1.442-.238a5.07 5.07 0 0 0 1.008-.518v1.106Zm-2.884-5.698c-.532 0-.99.163-1.372.49-.383.327-.626.821-.728 1.484h3.906c.037-.672-.117-1.167-.462-1.484-.346-.327-.794-.49-1.344-.49Zm7.319 5.264c.262-.159.467-.406.616-.742.15-.336.266-.76.35-1.274a15.2 15.2 0 0 0 .168-1.82c.038-.7.07-1.493.098-2.38h4.998v6.216h1.092v3.122h-1.078L305.073 16h-5.404l-.126 2.072h-1.106V14.95h.546Zm4.998 0V9.784h-2.66c-.046 1.372-.135 2.473-.266 3.304-.121.821-.336 1.442-.644 1.862h3.57Zm6.456 1.19c-.494 0-.956-.084-1.386-.252a3.238 3.238 0 0 1-1.12-.728 3.558 3.558 0 0 1-.728-1.19c-.177-.467-.266-1.003-.266-1.61 0-.597.089-1.13.266-1.596.178-.476.42-.873.728-1.19.318-.317.691-.56 1.12-.728.43-.168.892-.252 1.386-.252.504 0 .971.084 1.4.252.43.168.798.41 1.106.728.318.317.565.714.742 1.19.187.467.28.999.28 1.596 0 .607-.093 1.143-.28 1.61a3.418 3.418 0 0 1-.742 1.19c-.308.317-.676.56-1.106.728a3.807 3.807 0 0 1-1.4.252Zm0-1.106c.327 0 .626-.051.896-.154.28-.112.523-.275.728-.49a2.29 2.29 0 0 0 .476-.84c.112-.336.168-.733.168-1.19 0-.457-.056-.854-.168-1.19a2.156 2.156 0 0 0-.476-.826 1.828 1.828 0 0 0-.728-.49 2.318 2.318 0 0 0-.896-.168c-.326 0-.625.056-.896.168a1.86 1.86 0 0 0-.714.49c-.196.215-.35.49-.462.826a3.774 3.774 0 0 0-.168 1.19c0 .457.056.854.168 1.19.112.336.266.616.462.84.206.215.444.378.714.49.271.103.57.154.896.154ZM39.006 112.618h-5.152V117h-1.316v-10.038h1.316v4.466h5.152v-4.466h1.33V117h-1.33v-4.382Zm9.277 3.766a3.846 3.846 0 0 1-.378.238c-.15.084-.331.168-.546.252a4.607 4.607 0 0 1-.728.182c-.27.056-.574.084-.91.084-1.222 0-2.151-.331-2.786-.994-.635-.663-.952-1.591-.952-2.786 0-.588.084-1.115.252-1.582.178-.467.42-.859.728-1.176a3.024 3.024 0 0 1 1.092-.742c.42-.177.877-.266 1.372-.266.523 0 .99.089 1.4.266.41.177.747.439 1.008.784.27.345.453.775.546 1.288.103.504.103 1.092 0 1.764h-5.124c.047.784.28 1.372.7 1.764.42.383 1.045.574 1.876.574.56 0 1.04-.079 1.442-.238a5.053 5.053 0 0 0 1.008-.518v1.106Zm-2.884-5.698c-.532 0-.99.163-1.372.49-.383.327-.625.821-.728 1.484h3.906c.038-.672-.116-1.167-.462-1.484-.345-.327-.793-.49-1.344-.49Zm4.635-.952h5.824V117h-1.232v-6.216h-3.36V117h-1.232v-7.266Zm10.816 7.406a3.77 3.77 0 0 1-1.386-.252 3.232 3.232 0 0 1-1.12-.728 3.547 3.547 0 0 1-.728-1.19c-.177-.467-.266-1.003-.266-1.61 0-.597.089-1.129.266-1.596.178-.476.42-.873.728-1.19.318-.317.691-.56 1.12-.728a3.77 3.77 0 0 1 1.386-.252c.504 0 .971.084 1.4.252.43.168.798.411 1.106.728.318.317.565.714.742 1.19.187.467.28.999.28 1.596 0 .607-.093 1.143-.28 1.61a3.435 3.435 0 0 1-.742 1.19c-.308.317-.676.56-1.106.728-.429.168-.896.252-1.4.252Zm0-1.106c.327 0 .626-.051.896-.154.28-.112.523-.275.728-.49a2.3 2.3 0 0 0 .476-.84c.112-.336.168-.733.168-1.19 0-.457-.056-.854-.168-1.19a2.167 2.167 0 0 0-.476-.826 1.834 1.834 0 0 0-.728-.49 2.322 2.322 0 0 0-.896-.168c-.326 0-.625.056-.896.168-.27.103-.508.266-.714.49-.196.215-.35.49-.462.826a3.775 3.775 0 0 0-.168 1.19c0 .457.056.854.168 1.19.112.336.266.616.462.84.206.215.444.378.714.49.271.103.57.154.896.154Zm4.57-.084c.261-.159.466-.406.616-.742.149-.336.266-.761.35-1.274.084-.513.14-1.12.168-1.82.037-.7.07-1.493.098-2.38h4.998v6.216h1.092v3.122h-1.078L71.51 117h-5.404l-.126 2.072h-1.106v-3.122h.546Zm4.998 0v-5.166h-2.66c-.047 1.372-.136 2.473-.266 3.304-.122.821-.336 1.442-.644 1.862h3.57Zm3.642 0c.262-.159.467-.406.616-.742.15-.336.266-.761.35-1.274.084-.513.14-1.12.168-1.82.038-.7.07-1.493.098-2.38h4.998v6.216h1.092v3.122h-1.078L80.15 117h-5.404l-.126 2.072h-1.106v-3.122h.546Zm4.998 0v-5.166h-2.66c-.046 1.372-.135 2.473-.266 3.304-.121.821-.336 1.442-.644 1.862h3.57Zm9.256.434a3.846 3.846 0 0 1-.378.238 4.38 4.38 0 0 1-.546.252 4.604 4.604 0 0 1-.728.182c-.27.056-.574.084-.91.084-1.222 0-2.15-.331-2.786-.994-.634-.663-.952-1.591-.952-2.786 0-.588.084-1.115.252-1.582.178-.467.42-.859.728-1.176a3.024 3.024 0 0 1 1.092-.742c.42-.177.878-.266 1.372-.266.523 0 .99.089 1.4.266.411.177.747.439 1.008.784.271.345.453.775.546 1.288.103.504.103 1.092 0 1.764h-5.124c.047.784.28 1.372.7 1.764.42.383 1.046.574 1.876.574.56 0 1.041-.079 1.442-.238a5.053 5.053 0 0 0 1.008-.518v1.106Zm-2.884-5.698c-.532 0-.989.163-1.372.49-.382.327-.625.821-.728 1.484h3.906c.038-.672-.116-1.167-.462-1.484-.345-.327-.793-.49-1.344-.49Zm8.29 6.454c-.56 0-1.046-.131-1.456-.392a2.851 2.851 0 0 1-.966-1.078v3.808h-1.232v-9.744h1.078l.126 1.414c.242-.476.569-.854.98-1.134.41-.28.919-.42 1.526-.42.42 0 .821.079 1.204.238.392.149.732.383 1.022.7.298.308.532.7.7 1.176.177.467.266 1.017.266 1.652 0 .644-.089 1.204-.266 1.68a3.504 3.504 0 0 1-.714 1.176 2.998 2.998 0 0 1-1.036.7 3.438 3.438 0 0 1-1.232.224Zm-.182-1.106c.644 0 1.162-.219 1.554-.658.401-.448.602-1.12.602-2.016 0-.877-.201-1.54-.602-1.988-.392-.457-.91-.686-1.554-.686a2.39 2.39 0 0 0-.896.168c-.271.112-.509.28-.714.504a2.44 2.44 0 0 0-.476.826 3.723 3.723 0 0 0-.168 1.176c0 .448.056.84.168 1.176.121.336.28.616.476.84.205.224.443.392.714.504.28.103.578.154.896.154Zm9.659-6.3v3.122h.658l2.31-3.122h1.358l-2.702 3.556 2.8 3.71h-1.498l-2.324-3.094h-.602V117h-1.232v-3.094h-.616L98.997 117h-1.456l2.8-3.668-2.702-3.598h1.414l2.268 3.122h.644v-3.122h1.232Zm6.954 5.586 3.878-5.586h1.246V117h-1.232v-5.572L110.179 117h-1.26v-7.266h1.232v5.586Zm7.135-5.586h2.716c.878 0 1.54.154 1.988.462.448.299.672.77.672 1.414 0 .429-.112.775-.336 1.036-.214.252-.522.434-.924.546 1.036.168 1.554.742 1.554 1.722 0 .373-.074.695-.224.966a1.841 1.841 0 0 1-.616.644 2.738 2.738 0 0 1-.952.364c-.364.075-.76.112-1.19.112h-2.688v-7.266Zm1.232 1.05v1.974h1.372c.467 0 .84-.084 1.12-.252.29-.168.434-.411.434-.728 0-.383-.126-.644-.378-.784s-.611-.21-1.078-.21h-1.47Zm0 2.954v2.212h1.442c.262 0 .495-.014.7-.042.215-.037.397-.098.546-.182a.906.906 0 0 0 .364-.336.991.991 0 0 0 .126-.518c0-.42-.144-.714-.434-.882-.289-.168-.723-.252-1.302-.252h-1.442Zm10.544 1.876a4.24 4.24 0 0 1-.322.532 2.444 2.444 0 0 1-1.19.854c-.261.093-.569.14-.924.14-.653 0-1.181-.182-1.582-.546-.401-.373-.602-.905-.602-1.596 0-.793.275-1.377.826-1.75.56-.373 1.353-.56 2.38-.56h1.358v-.602c0-.504-.131-.863-.392-1.078-.261-.215-.709-.322-1.344-.322a3.63 3.63 0 0 0-1.274.224c-.401.14-.761.303-1.078.49v-1.106a5.383 5.383 0 0 1 1.05-.462 4.367 4.367 0 0 1 1.47-.238c.915 0 1.61.191 2.086.574.476.373.714.957.714 1.75v4.2c.009.103.014.21.014.322l.028.322c.009.093.019.173.028.238h-1.12a6.439 6.439 0 0 1-.084-.546 8.21 8.21 0 0 1-.028-.63l-.014-.21Zm-2.17.42c.383 0 .709-.079.98-.238.271-.159.49-.341.658-.546.168-.215.289-.42.364-.616.075-.205.112-.35.112-.434v-.532h-1.232c-.737 0-1.274.107-1.61.322-.327.205-.49.518-.49.938 0 .327.098.593.294.798.196.205.504.308.924.308Zm11.065.35a3.919 3.919 0 0 1-.378.238 4.34 4.34 0 0 1-.546.252 4.604 4.604 0 0 1-.728.182 4.51 4.51 0 0 1-.91.084c-1.223 0-2.151-.331-2.786-.994-.635-.663-.952-1.591-.952-2.786 0-.588.084-1.115.252-1.582.177-.467.42-.859.728-1.176a3.024 3.024 0 0 1 1.092-.742c.42-.177.877-.266 1.372-.266.523 0 .989.089 1.4.266.411.177.747.439 1.008.784.271.345.453.775.546 1.288.103.504.103 1.092 0 1.764h-5.124c.047.784.28 1.372.7 1.764.42.383 1.045.574 1.876.574.56 0 1.041-.079 1.442-.238a5.07 5.07 0 0 0 1.008-.518v1.106Zm-2.884-5.698c-.532 0-.989.163-1.372.49-.383.327-.625.821-.728 1.484h3.906c.037-.672-.117-1.167-.462-1.484-.345-.327-.793-.49-1.344-.49Zm11.565.476-2.464 5.026h-.98l-2.324-5.054V117h-1.162v-7.266h1.834l2.226 4.872 2.38-4.872h1.708V117h-1.218v-5.838Zm7.484 4.452a4.24 4.24 0 0 1-.322.532 2.419 2.419 0 0 1-1.19.854c-.261.093-.569.14-.924.14-.653 0-1.18-.182-1.582-.546-.401-.373-.602-.905-.602-1.596 0-.793.276-1.377.826-1.75.56-.373 1.354-.56 2.38-.56h1.358v-.602c0-.504-.13-.863-.392-1.078-.261-.215-.709-.322-1.344-.322-.448 0-.872.075-1.274.224-.401.14-.76.303-1.078.49v-1.106a5.438 5.438 0 0 1 1.05-.462 4.367 4.367 0 0 1 1.47-.238c.915 0 1.61.191 2.086.574.476.373.714.957.714 1.75v4.2c.01.103.014.21.014.322l.028.322c.01.093.019.173.028.238h-1.12a6.439 6.439 0 0 1-.084-.546 8.754 8.754 0 0 1-.028-.63l-.014-.21Zm-2.17.42c.383 0 .71-.079.98-.238.271-.159.49-.341.658-.546.168-.215.29-.42.364-.616.075-.205.112-.35.112-.434v-.532h-1.232c-.737 0-1.274.107-1.61.322-.326.205-.49.518-.49.938 0 .327.098.593.294.798.196.205.504.308.924.308Zm5.284-3.948c0-.411.074-.761.224-1.05.149-.299.359-.541.63-.728a2.76 2.76 0 0 1 .966-.434c.373-.093.779-.14 1.218-.14h2.338V117h-1.232v-2.632h-1.33L158.188 117h-1.47l2.1-2.94c-.504-.149-.896-.378-1.176-.686-.271-.308-.406-.737-.406-1.288Zm4.144 1.232v-2.534h-1.106c-.523 0-.952.098-1.288.294-.336.196-.504.513-.504.952 0 .457.149.789.448.994.298.196.723.294 1.274.294h1.176Zm-85.977 12.416h2.715c.878 0 1.54.154 1.989.462.448.299.671.77.671 1.414 0 .429-.112.775-.336 1.036-.214.252-.522.434-.923.546 1.035.168 1.553.742 1.553 1.722 0 .373-.074.695-.224.966a1.85 1.85 0 0 1-.615.644 2.745 2.745 0 0 1-.953.364c-.364.075-.76.112-1.19.112h-2.688v-7.266Zm1.231 1.05v1.974h1.373c.466 0 .84-.084 1.12-.252.289-.168.434-.411.434-.728 0-.383-.127-.644-.379-.784s-.61-.21-1.078-.21h-1.47Zm0 2.954v2.212h1.442c.262 0 .495-.014.7-.042.215-.037.397-.098.547-.182a.908.908 0 0 0 .364-.336.991.991 0 0 0 .126-.518c0-.42-.145-.714-.434-.882-.29-.168-.724-.252-1.303-.252h-1.441Zm12.07 2.646a3.846 3.846 0 0 1-.378.238c-.15.084-.331.168-.546.252a4.607 4.607 0 0 1-.728.182c-.27.056-.574.084-.91.084-1.223 0-2.151-.331-2.786-.994-.635-.663-.952-1.591-.952-2.786 0-.588.084-1.115.252-1.582.177-.467.42-.859.728-1.176a3.024 3.024 0 0 1 1.092-.742c.42-.177.877-.266 1.372-.266.523 0 .99.089 1.4.266.41.177.747.439 1.008.784.27.345.453.775.546 1.288.103.504.103 1.092 0 1.764h-5.124c.047.784.28 1.372.7 1.764.42.383 1.045.574 1.876.574.56 0 1.04-.079 1.442-.238a5.053 5.053 0 0 0 1.008-.518v1.106Zm-2.884-5.698c-.532 0-.99.163-1.372.49-.383.327-.625.821-.728 1.484h3.906c.037-.672-.117-1.167-.462-1.484-.345-.327-.793-.49-1.344-.49Zm8.29 6.454c-.56 0-1.046-.131-1.457-.392a2.85 2.85 0 0 1-.966-1.078v3.808h-1.232v-9.744h1.078l.126 1.414a2.98 2.98 0 0 1 .98-1.134c.41-.28.92-.42 1.526-.42.42 0 .822.079 1.204.238.392.149.733.383 1.022.7.299.308.532.7.7 1.176.178.467.266 1.017.266 1.652 0 .644-.088 1.204-.266 1.68a3.507 3.507 0 0 1-.714 1.176 2.999 2.999 0 0 1-1.036.7 3.439 3.439 0 0 1-1.232.224Zm-.183-1.106c.644 0 1.162-.219 1.554-.658.402-.448.602-1.12.602-2.016 0-.877-.2-1.54-.602-1.988-.392-.457-.91-.686-1.554-.686a2.39 2.39 0 0 0-.896.168c-.27.112-.508.28-.714.504-.196.215-.354.49-.476.826a3.723 3.723 0 0 0-.168 1.176c0 .448.056.84.168 1.176.122.336.28.616.476.84.206.224.444.392.714.504.28.103.579.154.896.154Zm8.059 1.106c-.56 0-1.069-.084-1.526-.252a3.339 3.339 0 0 1-1.148-.742 3.273 3.273 0 0 1-.728-1.19c-.168-.467-.252-.999-.252-1.596 0-.588.084-1.115.252-1.582.177-.467.424-.859.742-1.176a3.06 3.06 0 0 1 1.162-.742 4.277 4.277 0 0 1 1.554-.266c.448 0 .858.051 1.232.154.373.093.681.233.924.42v1.106a3.263 3.263 0 0 0-1.008-.434 4.145 4.145 0 0 0-1.134-.154c-.85 0-1.475.219-1.876.658-.392.439-.588 1.111-.588 2.016s.191 1.577.574 2.016c.382.439.989.658 1.82.658.438 0 .84-.051 1.204-.154a4.969 4.969 0 0 0 1.008-.42v1.106a4.29 4.29 0 0 1-2.212.574Zm5.096-1.82 3.878-5.586h1.246V133h-1.232v-5.572L107.11 133h-1.26v-7.266h1.232v5.586Zm7.135-3.234c0-.411.075-.761.224-1.05.149-.299.359-.541.63-.728.271-.196.593-.341.966-.434.373-.093.779-.14 1.218-.14h2.338V133h-1.232v-2.632h-1.33L115.169 133h-1.47l2.1-2.94c-.504-.149-.896-.378-1.176-.686-.271-.308-.406-.737-.406-1.288Zm4.144 1.232v-2.534h-1.106c-.523 0-.952.098-1.288.294-.336.196-.504.513-.504.952 0 .457.149.789.448.994.299.196.723.294 1.274.294h1.176ZM222.815 106.962h7.546V117h-1.33v-8.834h-4.9V117h-1.316v-10.038Zm13.37 10.178c-.56 0-1.045-.131-1.456-.392a2.856 2.856 0 0 1-.966-1.078v3.808h-1.232v-9.744h1.078l.126 1.414c.243-.476.57-.854.98-1.134.411-.28.92-.42 1.526-.42.42 0 .822.079 1.204.238.392.149.733.383 1.022.7.299.308.532.7.7 1.176.178.467.266 1.017.266 1.652 0 .644-.088 1.204-.266 1.68a3.494 3.494 0 0 1-.714 1.176 2.992 2.992 0 0 1-1.036.7 3.436 3.436 0 0 1-1.232.224Zm-.182-1.106c.644 0 1.162-.219 1.554-.658.402-.448.602-1.12.602-2.016 0-.877-.2-1.54-.602-1.988-.392-.457-.91-.686-1.554-.686-.317 0-.616.056-.896.168-.27.112-.508.28-.714.504a2.45 2.45 0 0 0-.476.826 3.723 3.723 0 0 0-.168 1.176c0 .448.056.84.168 1.176.122.336.28.616.476.84.206.224.444.392.714.504.28.103.579.154.896.154Zm10.705.35a3.919 3.919 0 0 1-.378.238 4.34 4.34 0 0 1-.546.252 4.604 4.604 0 0 1-.728.182 4.51 4.51 0 0 1-.91.084c-1.223 0-2.151-.331-2.786-.994-.635-.663-.952-1.591-.952-2.786 0-.588.084-1.115.252-1.582.177-.467.42-.859.728-1.176a3.024 3.024 0 0 1 1.092-.742c.42-.177.877-.266 1.372-.266.523 0 .989.089 1.4.266.411.177.747.439 1.008.784.271.345.453.775.546 1.288.103.504.103 1.092 0 1.764h-5.124c.047.784.28 1.372.7 1.764.42.383 1.045.574 1.876.574.56 0 1.041-.079 1.442-.238a5.07 5.07 0 0 0 1.008-.518v1.106Zm-2.884-5.698c-.532 0-.989.163-1.372.49-.383.327-.625.821-.728 1.484h3.906c.037-.672-.117-1.167-.462-1.484-.345-.327-.793-.49-1.344-.49Zm4.243 5.264c.262-.159.467-.406.616-.742.15-.336.266-.761.35-1.274.084-.513.14-1.12.168-1.82.038-.7.07-1.493.098-2.38h4.998v6.216h1.092v3.122h-1.078l-.154-2.072h-5.404l-.126 2.072h-1.106v-3.122h.546Zm4.998 0v-5.166h-2.66c-.046 1.372-.135 2.473-.266 3.304-.121.821-.336 1.442-.644 1.862h3.57Zm8.987-1.372c0 .42-.075.784-.224 1.092-.149.308-.359.56-.63.756a2.776 2.776 0 0 1-.966.434c-.373.093-.779.14-1.218.14h-2.338v-7.266h1.232v2.534h1.19c.924 0 1.647.182 2.17.546.523.364.784.952.784 1.764Zm2.282 2.422h-1.232v-7.266h1.232V117Zm-6.426-3.682v2.632h1.106c.532 0 .961-.098 1.288-.294.336-.205.504-.541.504-1.008 0-.476-.149-.817-.448-1.022-.299-.205-.719-.308-1.26-.308h-1.19Zm8.056 2.632c.261-.159.466-.406.616-.742.149-.336.266-.761.35-1.274.084-.513.14-1.12.168-1.82.037-.7.07-1.493.098-2.38h4.998v6.216h1.092v3.122h-1.078l-.154-2.072h-5.404l-.126 2.072h-1.106v-3.122h.546Zm4.998 0v-5.166h-2.66c-.047 1.372-.136 2.473-.266 3.304-.122.821-.336 1.442-.644 1.862h3.57Zm7.317.966a8.282 8.282 0 0 1-.532 1.148 3.776 3.776 0 0 1-.63.854 2.248 2.248 0 0 1-.784.518c-.289.121-.62.182-.994.182-.186 0-.359-.014-.518-.042a1.58 1.58 0 0 1-.434-.112v-1.19c.103.075.234.131.392.168.159.047.332.07.518.07.346 0 .63-.084.854-.252.224-.159.439-.415.644-.77l-2.954-7.756h1.358l2.31 6.132 2.296-6.132h1.19l-2.716 7.182Zm13.008-.966h1.092v3.122h-1.05l-.154-2.072h-8.96v-7.266h1.232v6.216h2.688v-6.216h1.232v6.216h2.688v-6.216h1.232v6.216Zm6.573-.336a4.363 4.363 0 0 1-.322.532 2.444 2.444 0 0 1-1.19.854c-.262.093-.57.14-.924.14-.654 0-1.181-.182-1.582-.546-.402-.373-.602-.905-.602-1.596 0-.793.275-1.377.826-1.75.56-.373 1.353-.56 2.38-.56h1.358v-.602c0-.504-.131-.863-.392-1.078-.262-.215-.71-.322-1.344-.322a3.63 3.63 0 0 0-1.274.224c-.402.14-.761.303-1.078.49v-1.106a5.383 5.383 0 0 1 1.05-.462 4.367 4.367 0 0 1 1.47-.238c.914 0 1.61.191 2.086.574.476.373.714.957.714 1.75v4.2c.009.103.014.21.014.322.009.112.018.219.028.322.009.093.018.173.028.238h-1.12a6.439 6.439 0 0 1-.084-.546 8.21 8.21 0 0 1-.028-.63l-.014-.21Zm-2.17.42c.382 0 .709-.079.98-.238.27-.159.49-.341.658-.546.168-.215.289-.42.364-.616.074-.205.112-.35.112-.434v-.532h-1.232c-.738 0-1.274.107-1.61.322-.327.205-.49.518-.49.938 0 .327.098.593.294.798.196.205.504.308.924.308Zm5.283-3.948c0-.411.075-.761.224-1.05.149-.299.359-.541.63-.728.271-.196.593-.341.966-.434.373-.093.779-.14 1.218-.14h2.338V117h-1.232v-2.632h-1.33L301.925 117h-1.47l2.1-2.94c-.504-.149-.896-.378-1.176-.686-.271-.308-.406-.737-.406-1.288Zm4.144 1.232v-2.534h-1.106c-.523 0-.952.098-1.288.294-.336.196-.504.513-.504.952 0 .457.149.789.448.994.299.196.723.294 1.274.294h1.176Zm-62.714 12.416h2.716c.877 0 1.54.154 1.988.462.448.299.672.77.672 1.414 0 .429-.112.775-.336 1.036-.215.252-.523.434-.924.546 1.036.168 1.554.742 1.554 1.722 0 .373-.075.695-.224.966a1.86 1.86 0 0 1-.616.644 2.754 2.754 0 0 1-.952.364 5.904 5.904 0 0 1-1.19.112h-2.688v-7.266Zm1.232 1.05v1.974h1.372c.466 0 .84-.084 1.12-.252.289-.168.434-.411.434-.728 0-.383-.126-.644-.378-.784s-.612-.21-1.078-.21h-1.47Zm0 2.954v2.212h1.442c.261 0 .494-.014.7-.042a1.71 1.71 0 0 0 .546-.182.912.912 0 0 0 .364-.336.991.991 0 0 0 .126-.518c0-.42-.145-.714-.434-.882-.29-.168-.724-.252-1.302-.252h-1.442Zm12.069 2.646a3.919 3.919 0 0 1-.378.238 4.34 4.34 0 0 1-.546.252 4.604 4.604 0 0 1-.728.182 4.51 4.51 0 0 1-.91.084c-1.223 0-2.151-.331-2.786-.994-.635-.663-.952-1.591-.952-2.786 0-.588.084-1.115.252-1.582.177-.467.42-.859.728-1.176a3.024 3.024 0 0 1 1.092-.742c.42-.177.877-.266 1.372-.266.523 0 .989.089 1.4.266.411.177.747.439 1.008.784.271.345.453.775.546 1.288.103.504.103 1.092 0 1.764h-5.124c.047.784.28 1.372.7 1.764.42.383 1.045.574 1.876.574.56 0 1.041-.079 1.442-.238a5.07 5.07 0 0 0 1.008-.518v1.106Zm-2.884-5.698c-.532 0-.989.163-1.372.49-.383.327-.625.821-.728 1.484h3.906c.037-.672-.117-1.167-.462-1.484-.345-.327-.793-.49-1.344-.49Zm8.289 6.454c-.56 0-1.045-.131-1.456-.392a2.856 2.856 0 0 1-.966-1.078v3.808h-1.232v-9.744h1.078l.126 1.414c.243-.476.57-.854.98-1.134.411-.28.92-.42 1.526-.42.42 0 .822.079 1.204.238.392.149.733.383 1.022.7.299.308.532.7.7 1.176.178.467.266 1.017.266 1.652 0 .644-.088 1.204-.266 1.68a3.494 3.494 0 0 1-.714 1.176 2.992 2.992 0 0 1-1.036.7 3.436 3.436 0 0 1-1.232.224Zm-.182-1.106c.644 0 1.162-.219 1.554-.658.402-.448.602-1.12.602-2.016 0-.877-.2-1.54-.602-1.988-.392-.457-.91-.686-1.554-.686-.317 0-.616.056-.896.168-.27.112-.508.28-.714.504a2.45 2.45 0 0 0-.476.826 3.723 3.723 0 0 0-.168 1.176c0 .448.056.84.168 1.176.122.336.28.616.476.84.206.224.444.392.714.504.28.103.579.154.896.154Zm8.059 1.106c-.56 0-1.069-.084-1.526-.252a3.335 3.335 0 0 1-1.148-.742 3.263 3.263 0 0 1-.728-1.19c-.168-.467-.252-.999-.252-1.596 0-.588.084-1.115.252-1.582.177-.467.424-.859.742-1.176a3.057 3.057 0 0 1 1.162-.742 4.277 4.277 0 0 1 1.554-.266c.448 0 .858.051 1.232.154.373.093.681.233.924.42v1.106a3.263 3.263 0 0 0-1.008-.434 4.145 4.145 0 0 0-1.134-.154c-.85 0-1.475.219-1.876.658-.392.439-.588 1.111-.588 2.016s.191 1.577.574 2.016c.382.439.989.658 1.82.658.438 0 .84-.051 1.204-.154a4.969 4.969 0 0 0 1.008-.42v1.106a4.29 4.29 0 0 1-2.212.574Zm5.096-1.82 3.878-5.586h1.246V133h-1.232v-5.572L274.11 133h-1.26v-7.266h1.232v5.586Zm7.135-3.234c0-.411.075-.761.224-1.05.149-.299.359-.541.63-.728.271-.196.593-.341.966-.434.373-.093.779-.14 1.218-.14h2.338V133h-1.232v-2.632h-1.33L282.169 133h-1.47l2.1-2.94c-.504-.149-.896-.378-1.176-.686-.271-.308-.406-.737-.406-1.288Zm4.144 1.232v-2.534h-1.106c-.523 0-.952.098-1.288.294-.336.196-.504.513-.504.952 0 .457.149.789.448.994.299.196.723.294 1.274.294h1.176Z"/><circle cx="430" cy="73" r="29.5" fill="#EDF4D6" stroke="#67B0F8"/><path fill="#EDF4D6" stroke="#67B0F8" d="M443.643 72.333c0 6.362-1.659 12.099-4.314 16.23-2.659 4.135-6.272 6.604-10.186 6.604-3.914 0-7.527-2.47-10.186-6.605-2.655-4.13-4.314-9.867-4.314-16.229 0-6.362 1.659-12.098 4.314-16.228 2.659-4.136 6.272-6.605 10.186-6.605 3.914 0 7.527 2.469 10.186 6.605 2.655 4.13 4.314 9.866 4.314 16.228Z"/><rect width="59" height="59" x="400.5" y="43.5" fill="#EDF4D6" stroke="#67B0F8" rx="9.5"/><path fill="#352E5E" d="M425.777 78h-6.202V67.962h1.316v8.848h4.886V78Zm4.084-8.82V78h-1.33v-8.82h-3.094v-1.218h7.518v1.218h-3.094Zm7.512 8.96a7.02 7.02 0 0 1-1.232-.098 5.918 5.918 0 0 1-.966-.224 5.014 5.014 0 0 1-.7-.322 2.805 2.805 0 0 1-.448-.35v-1.26c.14.121.322.247.546.378.224.121.481.233.77.336.299.103.616.187.952.252a5.8 5.8 0 0 0 1.078.098c.728 0 1.307-.135 1.736-.406.43-.28.644-.7.644-1.26 0-.28-.051-.509-.154-.686a1.242 1.242 0 0 0-.448-.462 2.604 2.604 0 0 0-.742-.322c-.289-.093-.63-.191-1.022-.294-.392-.103-.784-.22-1.176-.35a4.344 4.344 0 0 1-1.064-.518 2.622 2.622 0 0 1-.756-.812c-.186-.327-.28-.742-.28-1.246 0-.868.304-1.545.91-2.03.607-.485 1.536-.728 2.786-.728.364 0 .686.023.966.07.29.037.542.089.756.154.224.056.416.121.574.196.168.075.318.145.448.21v1.26a3.924 3.924 0 0 0-1.274-.532 6.055 6.055 0 0 0-1.47-.168c-.448 0-.826.037-1.134.112a2.018 2.018 0 0 0-.728.294c-.186.13-.322.29-.406.476a1.52 1.52 0 0 0-.126.63c0 .28.061.513.182.7.131.187.299.345.504.476.215.121.458.224.728.308.271.084.556.159.854.224.392.093.794.2 1.204.322.411.121.78.29 1.106.504.327.215.593.495.798.84.215.336.322.775.322 1.316 0 .532-.107.985-.322 1.358a2.61 2.61 0 0 1-.826.896 3.498 3.498 0 0 1-1.19.504 6.243 6.243 0 0 1-1.4.154ZM408.378 108.18V117h-1.33v-8.82h-3.094v-1.218h7.518v1.218h-3.094Zm9.384 8.204a3.919 3.919 0 0 1-.378.238c-.15.084-.332.168-.546.252a4.632 4.632 0 0 1-.728.182 4.51 4.51 0 0 1-.91.084c-1.223 0-2.152-.331-2.786-.994-.635-.663-.952-1.591-.952-2.786 0-.588.084-1.115.252-1.582.177-.467.42-.859.728-1.176a3.024 3.024 0 0 1 1.092-.742c.42-.177.877-.266 1.372-.266.522 0 .989.089 1.4.266.41.177.746.439 1.008.784.27.345.452.775.546 1.288.102.504.102 1.092 0 1.764h-5.124c.046.784.28 1.372.7 1.764.42.383 1.045.574 1.876.574.56 0 1.04-.079 1.442-.238a5.07 5.07 0 0 0 1.008-.518v1.106Zm-2.884-5.698c-.532 0-.99.163-1.372.49-.383.327-.626.821-.728 1.484h3.906c.037-.672-.117-1.167-.462-1.484-.346-.327-.794-.49-1.344-.49Zm6.511 3.22h-.644V117h-1.232v-7.266h1.232v3.122h.7l2.548-3.122h1.4l-2.982 3.584 3.038 3.682h-1.498l-2.562-3.094Zm8.995 3.01a8.4 8.4 0 0 1-.532 1.148 3.837 3.837 0 0 1-.63.854 2.266 2.266 0 0 1-.784.518c-.29.121-.621.182-.994.182-.187 0-.36-.014-.518-.042a1.561 1.561 0 0 1-.434-.112v-1.19c.102.075.233.131.392.168.158.047.331.07.518.07.345 0 .63-.084.854-.252.224-.159.438-.415.644-.77l-2.954-7.756h1.358l2.31 6.132 2.296-6.132h1.19l-2.716 7.182Zm13.008-.966h1.092v3.122h-1.05L443.28 117h-8.96v-7.266h1.232v6.216h2.688v-6.216h1.232v6.216h2.688v-6.216h1.232v6.216Zm6.572-.336a4.24 4.24 0 0 1-.322.532 2.419 2.419 0 0 1-1.19.854c-.261.093-.569.14-.924.14-.653 0-1.18-.182-1.582-.546-.401-.373-.602-.905-.602-1.596 0-.793.276-1.377.826-1.75.56-.373 1.354-.56 2.38-.56h1.358v-.602c0-.504-.13-.863-.392-1.078-.261-.215-.709-.322-1.344-.322-.448 0-.872.075-1.274.224-.401.14-.76.303-1.078.49v-1.106a5.438 5.438 0 0 1 1.05-.462 4.367 4.367 0 0 1 1.47-.238c.915 0 1.61.191 2.086.574.476.373.714.957.714 1.75v4.2c.01.103.014.21.014.322l.028.322c.01.093.019.173.028.238h-1.12a6.439 6.439 0 0 1-.084-.546 8.754 8.754 0 0 1-.028-.63l-.014-.21Zm-2.17.42c.383 0 .71-.079.98-.238.271-.159.49-.341.658-.546.168-.215.29-.42.364-.616.075-.205.112-.35.112-.434v-.532h-1.232c-.737 0-1.274.107-1.61.322-.326.205-.49.518-.49.938 0 .327.098.593.294.798.196.205.504.308.924.308Zm5.283-3.948c0-.411.075-.761.224-1.05.15-.299.36-.541.63-.728.271-.196.593-.341.966-.434.374-.093.78-.14 1.218-.14h2.338V117h-1.232v-2.632h-1.33L454.029 117h-1.47l2.1-2.94c-.504-.149-.896-.378-1.176-.686-.27-.308-.406-.737-.406-1.288Zm4.144 1.232v-2.534h-1.106c-.522 0-.952.098-1.288.294-.336.196-.504.513-.504.952 0 .457.15.789.448.994.299.196.724.294 1.274.294h1.176Zm-47.818 12.416h2.716c.877 0 1.54.154 1.988.462.448.299.672.77.672 1.414 0 .429-.112.775-.336 1.036-.215.252-.523.434-.924.546 1.036.168 1.554.742 1.554 1.722 0 .373-.075.695-.224.966a1.86 1.86 0 0 1-.616.644 2.754 2.754 0 0 1-.952.364 5.904 5.904 0 0 1-1.19.112h-2.688v-7.266Zm1.232 1.05v1.974h1.372c.466 0 .84-.084 1.12-.252.289-.168.434-.411.434-.728 0-.383-.126-.644-.378-.784s-.612-.21-1.078-.21h-1.47Zm0 2.954v2.212h1.442c.261 0 .494-.014.7-.042a1.71 1.71 0 0 0 .546-.182.912.912 0 0 0 .364-.336.991.991 0 0 0 .126-.518c0-.42-.145-.714-.434-.882-.29-.168-.724-.252-1.302-.252h-1.442Zm12.069 2.646a3.919 3.919 0 0 1-.378.238 4.34 4.34 0 0 1-.546.252 4.604 4.604 0 0 1-.728.182 4.51 4.51 0 0 1-.91.084c-1.223 0-2.151-.331-2.786-.994-.635-.663-.952-1.591-.952-2.786 0-.588.084-1.115.252-1.582.177-.467.42-.859.728-1.176a3.024 3.024 0 0 1 1.092-.742c.42-.177.877-.266 1.372-.266.523 0 .989.089 1.4.266.411.177.747.439 1.008.784.271.345.453.775.546 1.288.103.504.103 1.092 0 1.764h-5.124c.047.784.28 1.372.7 1.764.42.383 1.045.574 1.876.574.56 0 1.041-.079 1.442-.238a5.07 5.07 0 0 0 1.008-.518v1.106Zm-2.884-5.698c-.532 0-.989.163-1.372.49-.383.327-.625.821-.728 1.484h3.906c.037-.672-.117-1.167-.462-1.484-.345-.327-.793-.49-1.344-.49Zm8.289 6.454c-.56 0-1.045-.131-1.456-.392a2.856 2.856 0 0 1-.966-1.078v3.808h-1.232v-9.744h1.078l.126 1.414c.243-.476.57-.854.98-1.134.411-.28.92-.42 1.526-.42.42 0 .822.079 1.204.238.392.149.733.383 1.022.7.299.308.532.7.7 1.176.178.467.266 1.017.266 1.652 0 .644-.088 1.204-.266 1.68a3.494 3.494 0 0 1-.714 1.176 2.992 2.992 0 0 1-1.036.7 3.436 3.436 0 0 1-1.232.224Zm-.182-1.106c.644 0 1.162-.219 1.554-.658.402-.448.602-1.12.602-2.016 0-.877-.2-1.54-.602-1.988-.392-.457-.91-.686-1.554-.686-.317 0-.616.056-.896.168-.27.112-.508.28-.714.504a2.45 2.45 0 0 0-.476.826 3.723 3.723 0 0 0-.168 1.176c0 .448.056.84.168 1.176.122.336.28.616.476.84.206.224.444.392.714.504.28.103.579.154.896.154Zm8.059 1.106c-.56 0-1.069-.084-1.526-.252a3.335 3.335 0 0 1-1.148-.742 3.263 3.263 0 0 1-.728-1.19c-.168-.467-.252-.999-.252-1.596 0-.588.084-1.115.252-1.582.177-.467.424-.859.742-1.176a3.057 3.057 0 0 1 1.162-.742 4.277 4.277 0 0 1 1.554-.266c.448 0 .858.051 1.232.154.373.093.681.233.924.42v1.106a3.263 3.263 0 0 0-1.008-.434 4.145 4.145 0 0 0-1.134-.154c-.85 0-1.475.219-1.876.658-.392.439-.588 1.111-.588 2.016s.191 1.577.574 2.016c.382.439.989.658 1.82.658.438 0 .84-.051 1.204-.154a4.969 4.969 0 0 0 1.008-.42v1.106a4.29 4.29 0 0 1-2.212.574Zm5.096-1.82 3.878-5.586h1.246V133h-1.232v-5.572L441.11 133h-1.26v-7.266h1.232v5.586Zm7.135-3.234c0-.411.075-.761.224-1.05.149-.299.359-.541.63-.728.271-.196.593-.341.966-.434.373-.093.779-.14 1.218-.14h2.338V133h-1.232v-2.632h-1.33L449.169 133h-1.47l2.1-2.94c-.504-.149-.896-.378-1.176-.686-.271-.308-.406-.737-.406-1.288Zm4.144 1.232v-2.534h-1.106c-.523 0-.952.098-1.288.294-.336.196-.504.513-.504.952 0 .457.149.789.448.994.299.196.723.294 1.274.294h1.176Z"/></svg>