<svg width="70" height="24" viewBox="0 0 70 24" fill="none" xmlns="http://www.w3.org/2000/svg">
<path d="M0 5C0 2.23858 2.23858 0 5 0H65C67.7614 0 70 2.23858 70 5V19C70 21.7614 67.7614 24 65 24H5C2.23858 24 0 21.7614 0 19V5Z" fill="#DDF2E1"/>
<path d="M10.9789 12.3687H9.91485V16.6667H8.59885V6.62867H9.91485V11.1787H10.8949L14.4789 6.62867H15.9629L12.0009 11.6407L16.1169 16.6667H14.4789L10.9789 12.3687ZM20.0261 16.8067C19.5315 16.8067 19.0695 16.7227 18.6401 16.5547C18.2108 16.3867 17.8375 16.144 17.5201 15.8267C17.2121 15.5 16.9695 15.1033 16.7921 14.6367C16.6148 14.17 16.5261 13.6333 16.5261 13.0267C16.5261 12.4293 16.6148 11.8973 16.7921 11.4307C16.9695 10.9547 17.2121 10.558 17.5201 10.2407C17.8375 9.92334 18.2108 9.68067 18.6401 9.51267C19.0695 9.34467 19.5315 9.26067 20.0261 9.26067C20.5301 9.26067 20.9968 9.34467 21.4261 9.51267C21.8555 9.68067 22.2241 9.92334 22.5321 10.2407C22.8495 10.558 23.0968 10.9547 23.2741 11.4307C23.4608 11.8973 23.5541 12.4293 23.5541 13.0267C23.5541 13.6333 23.4608 14.17 23.2741 14.6367C23.0968 15.1033 22.8495 15.5 22.5321 15.8267C22.2241 16.144 21.8555 16.3867 21.4261 16.5547C20.9968 16.7227 20.5301 16.8067 20.0261 16.8067ZM20.0261 15.7007C20.3528 15.7007 20.6515 15.6493 20.9221 15.5467C21.2021 15.4347 21.4448 15.2713 21.6501 15.0567C21.8555 14.8327 22.0141 14.5527 22.1261 14.2167C22.2381 13.8807 22.2941 13.484 22.2941 13.0267C22.2941 12.5693 22.2381 12.1727 22.1261 11.8367C22.0141 11.5007 21.8555 11.2253 21.6501 11.0107C21.4448 10.7867 21.2021 10.6233 20.9221 10.5207C20.6515 10.4087 20.3528 10.3527 20.0261 10.3527C19.6995 10.3527 19.4008 10.4087 19.1301 10.5207C18.8595 10.6233 18.6215 10.7867 18.4161 11.0107C18.2201 11.2253 18.0661 11.5007 17.9541 11.8367C17.8421 12.1727 17.7861 12.5693 17.7861 13.0267C17.7861 13.484 17.8421 13.8807 17.9541 14.2167C18.0661 14.5527 18.2201 14.8327 18.4161 15.0567C18.6215 15.2713 18.8595 15.4347 19.1301 15.5467C19.4008 15.6493 19.6995 15.7007 20.0261 15.7007ZM29.8019 13.4467H26.2879V16.6667H25.0559V9.40067H26.2879V12.3967H29.8019V9.40067H31.0339V16.6667H29.8019V13.4467ZM36.1899 16.8067C35.6299 16.8067 35.1212 16.7227 34.6639 16.5547C34.2159 16.3773 33.8332 16.13 33.5159 15.8127C33.1986 15.486 32.9559 15.0893 32.7879 14.6227C32.6199 14.156 32.5359 13.624 32.5359 13.0267C32.5359 12.4387 32.6199 11.9113 32.7879 11.4447C32.9652 10.978 33.2126 10.586 33.5299 10.2687C33.8472 9.942 34.2346 9.69467 34.6919 9.52667C35.1492 9.34934 35.6672 9.26067 36.2459 9.26067C36.6939 9.26067 37.1046 9.312 37.4779 9.41467C37.8512 9.508 38.1592 9.648 38.4019 9.83467V10.9407C38.1032 10.7447 37.7672 10.6 37.3939 10.5067C37.0299 10.404 36.6519 10.3527 36.2599 10.3527C35.4106 10.3527 34.7852 10.572 34.3839 11.0107C33.9919 11.4493 33.7959 12.1213 33.7959 13.0267C33.7959 13.932 33.9872 14.604 34.3699 15.0427C34.7526 15.4813 35.3592 15.7007 36.1899 15.7007C36.6286 15.7007 37.0299 15.6493 37.3939 15.5467C37.7672 15.4347 38.1032 15.2947 38.4019 15.1267V16.2327C38.1406 16.3913 37.8232 16.5267 37.4499 16.6387C37.0859 16.7507 36.6659 16.8067 36.1899 16.8067ZM43.0359 16.8067C42.5412 16.8067 42.0792 16.7227 41.6499 16.5547C41.2206 16.3867 40.8472 16.144 40.5299 15.8267C40.2219 15.5 39.9792 15.1033 39.8019 14.6367C39.6246 14.17 39.5359 13.6333 39.5359 13.0267C39.5359 12.4293 39.6246 11.8973 39.8019 11.4307C39.9792 10.9547 40.2219 10.558 40.5299 10.2407C40.8472 9.92334 41.2206 9.68067 41.6499 9.51267C42.0792 9.34467 42.5412 9.26067 43.0359 9.26067C43.5399 9.26067 44.0066 9.34467 44.4359 9.51267C44.8652 9.68067 45.2339 9.92334 45.5419 10.2407C45.8592 10.558 46.1066 10.9547 46.2839 11.4307C46.4706 11.8973 46.5639 12.4293 46.5639 13.0267C46.5639 13.6333 46.4706 14.17 46.2839 14.6367C46.1066 15.1033 45.8592 15.5 45.5419 15.8267C45.2339 16.144 44.8652 16.3867 44.4359 16.5547C44.0066 16.7227 43.5399 16.8067 43.0359 16.8067ZM43.0359 15.7007C43.3626 15.7007 43.6612 15.6493 43.9319 15.5467C44.2119 15.4347 44.4546 15.2713 44.6599 15.0567C44.8652 14.8327 45.0239 14.5527 45.1359 14.2167C45.2479 13.8807 45.3039 13.484 45.3039 13.0267C45.3039 12.5693 45.2479 12.1727 45.1359 11.8367C45.0239 11.5007 44.8652 11.2253 44.6599 11.0107C44.4546 10.7867 44.2119 10.6233 43.9319 10.5207C43.6612 10.4087 43.3626 10.3527 43.0359 10.3527C42.7092 10.3527 42.4106 10.4087 42.1399 10.5207C41.8692 10.6233 41.6312 10.7867 41.4259 11.0107C41.2299 11.2253 41.0759 11.5007 40.9639 11.8367C40.8519 12.1727 40.7959 12.5693 40.7959 13.0267C40.7959 13.484 40.8519 13.8807 40.9639 14.2167C41.0759 14.5527 41.2299 14.8327 41.4259 15.0567C41.6312 15.2713 41.8692 15.4347 42.1399 15.5467C42.4106 15.6493 42.7092 15.7007 43.0359 15.7007ZM48.4205 14.4127C48.5512 13.9367 48.6352 13.2927 48.6725 12.4807C48.7099 11.6687 48.7285 10.642 48.7285 9.40067H53.6145V16.6667H52.3685V10.4507H49.8905C49.8812 11.4493 49.8485 12.336 49.7925 13.1107C49.7459 13.8853 49.6385 14.5387 49.4705 15.0707C49.3119 15.6027 49.0739 16.0087 48.7565 16.2887C48.4485 16.5593 48.0332 16.6947 47.5105 16.6947C47.4732 16.6947 47.4359 16.6947 47.3985 16.6947C47.3612 16.6947 47.3192 16.69 47.2725 16.6807V15.4627C47.3192 15.472 47.3799 15.4767 47.4545 15.4767C47.9305 15.4767 48.2525 15.122 48.4205 14.4127ZM61.0165 14.2447C61.0165 14.6647 60.9418 15.0287 60.7925 15.3367C60.6432 15.6447 60.4332 15.8967 60.1625 16.0927C59.8918 16.2887 59.5698 16.4333 59.1965 16.5267C58.8232 16.62 58.4172 16.6667 57.9785 16.6667H55.5705V9.40067H56.8025V11.9347H58.0625C58.9865 11.9347 59.7098 12.1167 60.2325 12.4807C60.7552 12.8447 61.0165 13.4327 61.0165 14.2447ZM56.8025 12.9847V15.6167H57.9785C58.5105 15.6167 58.9398 15.5187 59.2665 15.3227C59.6025 15.1173 59.7705 14.7813 59.7705 14.3147C59.7705 13.8387 59.6212 13.498 59.3225 13.2927C59.0238 13.0873 58.6038 12.9847 58.0625 12.9847H56.8025Z" fill="#18123D"/>
</svg>
