<svg xmlns="http://www.w3.org/2000/svg" width="86" height="20" fill="none" viewBox="0 0 86 20">
    <g clip-path="url(#clip0_3479_35394)">
        <path fill="#000" fill-opacity=".7" fill-rule="evenodd" d="M16.125 10a4.125 4.125 0 1 1-8.25 0 4.125 4.125 0 0 1 8.25 0Zm1.125 0a5.25 5.25 0 1 1-10.5 0 5.25 5.25 0 0 1 10.5 0Zm-6.352-1.898a.562.562 0 1 0-.796.796L11.204 10l-1.102 1.102a.562.562 0 1 0 .796.796L12 10.796l1.102 1.102a.562.562 0 1 0 .796-.796L12.796 10l1.102-1.102a.562.562 0 1 0-.796-.796L12 9.204l-1.102-1.102Z" clip-rule="evenodd"/>
    </g>
    <path fill="#000" fill-opacity=".7" d="M28.005 14.13a4.888 4.888 0 0 1-1.755-.312 4.047 4.047 0 0 1-1.417-.936 4.433 4.433 0 0 1-.949-1.508c-.225-.598-.338-1.287-.338-2.067 0-.78.113-1.465.338-2.054.234-.598.55-1.092.949-1.482a3.838 3.838 0 0 1 1.417-.897 4.888 4.888 0 0 1 1.755-.312c.633 0 1.222.104 1.768.312.546.2 1.018.498 1.417.897s.71.897.936 1.495c.225.59.338 1.274.338 2.054 0 .771-.113 1.456-.338 2.054a4.279 4.279 0 0 1-.936 1.508c-.399.407-.871.72-1.417.936a4.925 4.925 0 0 1-1.768.312Zm0-1.105c.45 0 .867-.065 1.248-.195a2.59 2.59 0 0 0 .988-.637c.286-.295.507-.676.663-1.144.165-.468.247-1.036.247-1.703s-.082-1.235-.247-1.703c-.156-.468-.377-.845-.663-1.131a2.402 2.402 0 0 0-.988-.637 3.626 3.626 0 0 0-1.248-.208c-.45 0-.867.07-1.248.208-.381.13-.715.342-1.001.637-.277.286-.498.663-.663 1.131-.156.468-.234 1.036-.234 1.703s.078 1.235.234 1.703c.165.468.386.85.663 1.144.286.286.62.498 1.001.637.381.13.797.195 1.248.195Zm8.652-4.797V14h-1.144V8.228h-2.12v-.975h5.422v.975h-2.158Zm9.913.351-2.288 4.667h-.91l-2.158-4.693V14h-1.079V7.253h1.703l2.067 4.524 2.21-4.524h1.586V14h-1.13V8.579Zm8.367 4.849c-.095.07-.212.143-.351.221a4.062 4.062 0 0 1-.507.234c-.2.07-.425.126-.676.169a4.185 4.185 0 0 1-.845.078c-1.136 0-1.998-.308-2.587-.923-.59-.615-.884-1.478-.884-2.587 0-.546.078-1.036.234-1.469.165-.433.39-.797.676-1.092a2.812 2.812 0 0 1 1.014-.689c.39-.165.814-.247 1.274-.247.485 0 .919.082 1.3.247.381.165.693.407.936.728.251.32.42.72.507 1.196.095.468.095 1.014 0 1.638H50.27c.043.728.26 1.274.65 1.638.39.355.97.533 1.742.533.52 0 .966-.074 1.339-.221a4.7 4.7 0 0 0 .936-.481v1.027Zm-2.678-5.291c-.494 0-.919.152-1.274.455-.355.303-.58.763-.676 1.378h3.627c.035-.624-.108-1.083-.43-1.378-.32-.303-.736-.455-1.247-.455Zm8.711 2.873h-3.263V14h-1.144V7.253h1.144v2.782h3.263V7.253h1.144V14H60.97v-2.99Zm8.389 2.418c-.096.07-.213.143-.351.221a4.075 4.075 0 0 1-.507.234c-.2.07-.425.126-.676.169a4.185 4.185 0 0 1-.845.078c-1.136 0-1.998-.308-2.587-.923-.59-.615-.884-1.478-.884-2.587 0-.546.078-1.036.234-1.469.164-.433.39-.797.676-1.092a2.812 2.812 0 0 1 1.014-.689c.39-.165.814-.247 1.274-.247.485 0 .918.082 1.3.247.381.165.693.407.936.728.251.32.42.72.507 1.196.095.468.095 1.014 0 1.638h-4.758c.043.728.26 1.274.65 1.638.39.355.97.533 1.742.533.52 0 .966-.074 1.339-.221.372-.147.684-.308.936-.481v1.027ZM66.68 8.137c-.494 0-.919.152-1.274.455-.356.303-.581.763-.676 1.378h3.627c.034-.624-.109-1.083-.43-1.378-.32-.303-.736-.455-1.247-.455Zm8.71 2.873h-3.26V14h-1.144V7.253h1.144v2.782h3.263V7.253h1.144V14h-1.144v-2.99Z"/>
    <defs>
        <clipPath id="clip0_3479_35394">
            <path fill="#fff" d="M6 4h12v12H6z"/>
        </clipPath>
    </defs>
</svg>
