<svg xmlns="http://www.w3.org/2000/svg" width="10" height="10" fill="currentColor" aria-hidden="true" class="yc-icon">
    <svg xmlns="http://www.w3.org/2000/svg" viewBox="0 0 512 512">
        <path d="M34.5 239 228.9 44.7c9.4-9.4 24.6-9.4 33.9 0l22.7 22.7c9.4 9.4 9.4 24.5 0 33.9L131.5 256l154 154.7c9.3 9.4 9.3 24.5 0 33.9l-22.7 22.7c-9.4 9.4-24.6 9.4-33.9 0L34.5 273c-9.3-9.4-9.3-24.6 0-34zm192 34 194.3 194.3c9.4 9.4 24.6 9.4 33.9 0l22.7-22.7c9.4-9.4 9.4-24.5 0-33.9L323.5 256l154-154.7c9.3-9.4 9.3-24.5 0-33.9l-22.7-22.7c-9.4-9.4-24.6-9.4-33.9 0L226.5 239c-9.3 9.4-9.3 24.6 0 34z"/>
    </svg>
</svg>
