<svg xmlns="http://www.w3.org/2000/svg" width="18" height="18" fill="currentColor" aria-hidden="true" class="yc-icon nv-composite-bar__menu-icon"><svg xmlns="http://www.w3.org/2000/svg" viewBox="0 0 16 16"><path d="M1.5 12.75c0 .44.31.75.75.75h13c.4 0 .75.34.75.75 0 .44-.34.75-.75.75h-13C1 15 0 14 0 12.75v-11C0 1.35.31 1 .75 1c.4 0 .75.34.75.75v11Zm9-3.22a.68.68 0 0 1-1.03 0l-2.5-2.47L4.5 9.53a.68.68 0 0 1-1.03 0c-.31-.28-.31-.75 0-1.06l3-3a.74.74 0 0 1 .5-.22c.22 0 .4.1.53.22l2.5 2.5 3.72-3.75a.74.74 0 0 1 1.03 0c.31.31.31.78 0 1.06L10.5 9.53Z"/></svg></svg>