<svg xmlns="http://www.w3.org/2000/svg" width="93" height="20" fill="none" viewBox="0 0 93 20">
    <g clip-path="url(#clip0_3479_35393)">
        <path fill="#3AB935" fill-rule="evenodd" d="M16.125 10a4.125 4.125 0 1 1-8.25 0 4.125 4.125 0 0 1 8.25 0Zm1.125 0a5.25 5.25 0 1 1-10.5 0 5.25 5.25 0 0 1 10.5 0Zm-2.925-1.162a.563.563 0 0 0-.9-.675l-1.86 2.48-1.042-1.04a.562.562 0 1 0-.796.795l1.5 1.5a.563.563 0 0 0 .848-.06l2.25-3Z" clip-rule="evenodd"/>
    </g>
    <path fill="#3AB935" d="M25.327 9.736v-1.04h1.313c.65 0 1.144-.139 1.482-.416.338-.286.507-.676.507-1.17 0-.529-.178-.901-.533-1.118-.355-.225-.823-.338-1.404-.338a6.132 6.132 0 0 0-2.873.676V5.173a6.14 6.14 0 0 1 1.118-.416c.468-.13 1.057-.195 1.768-.195.97 0 1.742.204 2.314.611.572.399.858 1.018.858 1.859 0 .546-.165.997-.494 1.352-.32.355-.793.607-1.417.754.737.095 1.291.32 1.664.676.381.347.572.845.572 1.495 0 .494-.095.923-.286 1.287-.19.355-.45.646-.78.871a3.46 3.46 0 0 1-1.144.507c-.442.104-.91.156-1.404.156-.702 0-1.304-.082-1.807-.247-.503-.173-.871-.36-1.105-.559v-1.17c.806.58 1.764.871 2.873.871.32 0 .624-.026.91-.078.286-.06.537-.156.754-.286.217-.13.386-.303.507-.52.13-.217.195-.485.195-.806 0-.59-.19-1.001-.572-1.235-.373-.243-.932-.364-1.677-.364h-1.339Zm10.432 2.977c-.078.156-.178.32-.299.494a2.26 2.26 0 0 1-1.105.793c-.243.087-.529.13-.858.13-.607 0-1.096-.169-1.469-.507-.373-.347-.559-.84-.559-1.482 0-.737.256-1.278.767-1.625.52-.347 1.257-.52 2.21-.52h1.261v-.559c0-.468-.121-.802-.364-1.001-.243-.2-.659-.299-1.248-.299-.416 0-.81.07-1.183.208-.373.13-.706.282-1 .455V7.773c.242-.147.567-.29.974-.429a4.063 4.063 0 0 1 1.365-.221c.85 0 1.495.178 1.937.533.442.347.663.888.663 1.625v3.9c.009.095.013.195.013.299l.026.299c.009.087.017.16.026.221h-1.04a5.934 5.934 0 0 1-.078-.507 7.787 7.787 0 0 1-.026-.585l-.013-.195Zm-2.015.39c.355 0 .659-.074.91-.221.251-.147.455-.316.611-.507.156-.2.269-.39.338-.572.07-.19.104-.325.104-.403v-.494h-1.144c-.685 0-1.183.1-1.495.299-.303.19-.455.481-.455.871 0 .303.091.55.273.741.182.19.468.286.858.286Zm4.906-5.85h2.522c.815 0 1.43.143 1.846.429.416.277.624.715.624 1.313 0 .399-.104.72-.312.962-.2.234-.486.403-.858.507.962.156 1.443.689 1.443 1.599 0 .347-.07.646-.208.897-.139.243-.33.442-.572.598a2.544 2.544 0 0 1-.884.338c-.338.07-.706.104-1.105.104H38.65V7.253Zm1.144.975v1.833h1.274c.433 0 .78-.078 1.04-.234.269-.156.403-.381.403-.676 0-.355-.117-.598-.351-.728-.234-.13-.568-.195-1.001-.195h-1.365Zm0 2.743v2.054h1.339c.242 0 .46-.013.65-.039.2-.035.368-.091.507-.169a.843.843 0 0 0 .338-.312.92.92 0 0 0 .117-.481c0-.39-.134-.663-.403-.819-.269-.156-.672-.234-1.21-.234h-1.338ZM51 13.428a3.51 3.51 0 0 1-.35.221 4.075 4.075 0 0 1-.508.234c-.199.07-.424.126-.676.169a4.185 4.185 0 0 1-.845.078c-1.135 0-1.997-.308-2.587-.923-.589-.615-.884-1.478-.884-2.587 0-.546.078-1.036.234-1.469.165-.433.39-.797.676-1.092a2.812 2.812 0 0 1 1.014-.689c.39-.165.815-.247 1.274-.247.486 0 .919.082 1.3.247.382.165.694.407.936.728.252.32.42.72.507 1.196.096.468.096 1.014 0 1.638h-4.758c.044.728.26 1.274.65 1.638.39.355.971.533 1.742.533.52 0 .967-.074 1.34-.221a4.69 4.69 0 0 0 .935-.481v1.027Zm-2.678-5.291a1.9 1.9 0 0 0-1.274.455c-.355.303-.58.763-.676 1.378H50c.035-.624-.108-1.083-.429-1.378-.32-.303-.736-.455-1.248-.455Zm7.697 5.993c-.52 0-.97-.121-1.352-.364a2.647 2.647 0 0 1-.897-1.001v3.536h-1.144V7.253h1.001l.117 1.313c.226-.442.53-.793.91-1.053.382-.26.854-.39 1.417-.39.39 0 .763.074 1.118.221.364.139.68.355.95.65.277.286.493.65.65 1.092.164.433.246.945.246 1.534 0 .598-.082 1.118-.247 1.56a3.262 3.262 0 0 1-.663 1.092 2.78 2.78 0 0 1-.962.65 3.185 3.185 0 0 1-1.144.208Zm-.169-1.027c.598 0 1.08-.204 1.443-.611.373-.416.56-1.04.56-1.872 0-.815-.187-1.43-.56-1.846-.364-.425-.845-.637-1.443-.637a2.22 2.22 0 0 0-.832.156c-.25.104-.472.26-.663.468-.182.2-.329.455-.442.767a3.457 3.457 0 0 0-.156 1.092c0 .416.052.78.156 1.092.113.312.26.572.442.78.191.208.412.364.663.468.26.095.538.143.832.143ZM68.846 14h-8.424V7.253h1.144v5.772h2.496V7.253h1.144v5.772h2.496V7.253h1.144V14Zm7.241-.572a3.51 3.51 0 0 1-.35.221 4.062 4.062 0 0 1-.508.234c-.2.07-.424.126-.676.169a4.185 4.185 0 0 1-.845.078c-1.135 0-1.997-.308-2.587-.923-.59-.615-.884-1.478-.884-2.587 0-.546.078-1.036.234-1.469.165-.433.39-.797.676-1.092a2.812 2.812 0 0 1 1.014-.689c.39-.165.815-.247 1.274-.247.486 0 .919.082 1.3.247.382.165.694.407.936.728.252.32.42.72.507 1.196.096.468.096 1.014 0 1.638H71.42c.044.728.26 1.274.65 1.638.39.355.97.533 1.742.533.52 0 .967-.074 1.34-.221a4.69 4.69 0 0 0 .935-.481v1.027ZM73.41 8.137a1.9 1.9 0 0 0-1.274.455c-.355.303-.58.763-.676 1.378h3.627c.035-.624-.108-1.083-.429-1.378-.32-.303-.736-.455-1.248-.455Zm8.711 2.873h-3.263V14h-1.144V7.253h1.144v2.782h3.263V7.253h1.144V14H82.12v-2.99Z"/>
    <defs>
        <clipPath id="clip0_3479_35393">
            <path fill="#fff" d="M6 4h12v12H6z"/>
        </clipPath>
    </defs>
</svg>
