<svg xmlns="http://www.w3.org/2000/svg" xmlns:xlink="http://www.w3.org/1999/xlink" width="16" height="16" class="yc-icon" fill="currentColor" stroke="none" aria-hidden="true"><svg xmlns="http://www.w3.org/2000/svg"><path fill-rule="evenodd" clip-rule="evenodd" d="M3 2.6h10c.22 0 .4.18.4.4v2a.4.4 0 0 1-.4.4H3a.4.4 0 0 1-.4-.4V3c0-.22.18-.4.4-.4ZM1 3a2 2 0 0 1 2-2h10a2 2 0 0 1 2 2v2a2 2 0 0 1-2 2H3a2 2 0 0 1-2-2V3Zm2 7.1h10c.22 0 .4.18.4.4v2a.4.4 0 0 1-.4.4H3a.4.4 0 0 1-.4-.4v-2c0-.22.18-.4.4-.4Zm-2 .4a2 2 0 0 1 2-2h10a2 2 0 0 1 2 2v2a2 2 0 0 1-2 2H3a2 2 0 0 1-2-2v-2Z"></path></svg></svg>