<svg xmlns="http://www.w3.org/2000/svg" width="15" height="17" fill="currentColor" class="yc-icon">
    <svg xmlns="http://www.w3.org/2000/svg" viewBox="0 0 15 17">
        <path d="M14.448 2.656h-2.646L10.71.774A1.531 1.531 0 0 0 9.388 0H6.15c-.542 0-1.043.294-1.322.774L3.737 2.656H1.09a.523.523 0 0 0-.514.531v.532c0 .293.23.531.514.531h.513v11.156c0 .88.69 1.594 1.542 1.594h9.247c.851 0 1.541-.713 1.541-1.594V4.25h.514a.523.523 0 0 0 .513-.531v-.531a.523.523 0 0 0-.513-.532zM9.182 13.812h.77a.392.392 0 0 0 .386-.398V6.242a.392.392 0 0 0-.385-.398h-.77a.392.392 0 0 0-.386.398v7.172c0 .22.172.399.385.399zM6.261 1.595a.191.191 0 0 0-.166.096l-.56.966h4.47l-.56-.966a.191.191 0 0 0-.166-.096H6.26zm6.132 13.812H3.146V4.25h9.247v11.156zm-6.036-1.594h-.77a.392.392 0 0 1-.386-.398V6.242c0-.22.173-.398.386-.398h.77c.213 0 .386.178.386.398v7.172c0 .22-.173.399-.386.399z"/>
    </svg>
</svg>
