<svg xmlns="http://www.w3.org/2000/svg" xmlns:xlink="http://www.w3.org/1999/xlink" width="16" height="16" class="yc-icon" fill="currentColor" stroke="none" aria-hidden="true"><svg viewBox="0 0 16 16" xmlns="http://www.w3.org/2000/svg"><path d="M8.219.531A7.49 7.49 0 002.78 2.625 7.56 7.56 0 00.5 8.063c0 3.687 2.719 6.906 6.375 7.437H7c.344 0 .656-.25.719-.625a.741.741 0 00-.625-.844C4.187 13.594 2 11.031 2 8.062c0-1.656.625-3.218 1.813-4.343C5 2.563 6.5 1.969 8.155 2.03 11.375 2.125 14 4.937 14 8.344v.594c0 .75-.625 1.374-1.375 1.374a1.367 1.367 0 01-1.375-1.374V5.28c0-.406-.344-.718-.75-.718a.771.771 0 00-.75.625 3.23 3.23 0 00-2-.688c-1.938 0-3.5 1.594-3.5 3.5 0 1.875 1.563 3.469 3.5 3.469.938 0 1.813-.406 2.438-1.031.53.78 1.406 1.312 2.437 1.312A2.887 2.887 0 0015.5 8.875v-.531C15.5 4.156 12.219.625 8.219.53zM7.75 10c-1.125 0-2-.875-2-1.969s.875-1.969 2-1.969c1.094 0 2 .907 2 1.97 0 1.093-.906 1.968-2 1.968z"></path></svg></svg>