<svg xmlns="http://www.w3.org/2000/svg" width="14" height="14" fill="currentColor" aria-hidden="true" class="yc-icon"><svg xmlns="http://www.w3.org/2000/svg" viewBox="0 0 17 16"><path d="M15.361 2.297 13.673.61a2.113 2.113 0 0 0-2.969 0l-9.94 9.877-.75 4.657c-.093.5.345.938.845.844l4.657-.75 9.877-9.94c.812-.812.812-2.156-.032-3Zm-9.095 7.44a.71.71 0 0 0 .5.187.69.69 0 0 0 .469-.188l3.72-3.72.906.907-5.283 5.314v-1.313h-1.5v-1.5H3.765L9.08 4.14l.906.907-3.72 3.72a.662.662 0 0 0 0 .968ZM2.578 14.33l-.907-.907.407-2.281.562-.594h1.313v1.5h1.5v1.313l-.594.562-2.281.407ZM14.424 4.329 12.892 5.86l-2.75-2.75 1.531-1.532a.736.736 0 0 1 1.031 0l1.688 1.688c.313.313.313.782.032 1.063Z"/></svg></svg>