<svg xmlns="http://www.w3.org/2000/svg" width="100" height="20" fill="none" viewBox="0 0 100 20">
    <g clip-path="url(#clip0_3479_35391)">
        <path fill="#4E79EB" fill-rule="evenodd" d="M16.125 10a4.125 4.125 0 1 1-8.25 0 4.125 4.125 0 0 1 8.25 0Zm1.125 0a5.25 5.25 0 1 1-10.5 0 5.25 5.25 0 0 1 10.5 0Zm-5.813 2.273 2.813-1.623a.75.75 0 0 0 0-1.3l-2.813-1.623a.75.75 0 0 0-1.124.65v3.247a.75.75 0 0 0 1.124.65Z" clip-rule="evenodd"/>
    </g>
    <path fill="#4768C2" d="M24.092 4.679h3.159c1.023 0 1.798.173 2.327.52.537.347.806.932.806 1.755 0 .338-.048.633-.143.884a1.881 1.881 0 0 1-.377.637 1.862 1.862 0 0 1-.585.429c-.225.113-.477.2-.754.26.728.087 1.274.299 1.638.637.373.33.559.832.559 1.508 0 .485-.091.901-.273 1.248a2.246 2.246 0 0 1-.728.832c-.312.208-.68.364-1.105.468a6.353 6.353 0 0 1-1.391.143h-3.133V4.679Zm1.222 1.118v2.86h1.846c.295 0 .563-.03.806-.091.243-.07.45-.169.624-.299a1.44 1.44 0 0 0 .403-.507 1.64 1.64 0 0 0 .156-.741c0-.477-.165-.797-.494-.962-.33-.173-.797-.26-1.404-.26h-1.937Zm0 3.965v3.133h1.911c.33 0 .628-.026.897-.078a1.97 1.97 0 0 0 .689-.26c.2-.121.351-.282.455-.481.113-.2.169-.446.169-.741 0-.59-.19-.997-.572-1.222-.373-.234-.966-.351-1.781-.351h-1.768Zm9.857-2.509h5.408V14h-1.144V8.228h-3.12V14h-1.144V7.253ZM45.84 14.13c-.52 0-.97-.121-1.352-.364a2.647 2.647 0 0 1-.897-1.001v3.536h-1.144V7.253h1l.118 1.313c.225-.442.528-.793.91-1.053.381-.26.853-.39 1.417-.39.39 0 .762.074 1.118.221.364.139.68.355.949.65.277.286.494.65.65 1.092.164.433.247.945.247 1.534 0 .598-.083 1.118-.247 1.56a3.262 3.262 0 0 1-.663 1.092 2.78 2.78 0 0 1-.962.65 3.186 3.186 0 0 1-1.144.208Zm-.17-1.027c.599 0 1.08-.204 1.444-.611.372-.416.559-1.04.559-1.872 0-.815-.187-1.43-.56-1.846-.363-.425-.844-.637-1.442-.637a2.22 2.22 0 0 0-.832.156c-.252.104-.473.26-.663.468-.182.2-.33.455-.442.767a3.457 3.457 0 0 0-.156 1.092c0 .416.052.78.156 1.092.112.312.26.572.442.78.19.208.411.364.663.468.26.095.537.143.832.143Zm7.34 1.027a3.5 3.5 0 0 1-1.286-.234 2.997 2.997 0 0 1-1.04-.676 3.295 3.295 0 0 1-.676-1.105c-.165-.433-.247-.932-.247-1.495 0-.555.082-1.049.247-1.482.164-.442.39-.81.676-1.105.294-.295.641-.52 1.04-.676a3.5 3.5 0 0 1 1.287-.234c.468 0 .901.078 1.3.234.398.156.74.381 1.027.676.294.295.524.663.689 1.105.173.433.26.927.26 1.482 0 .563-.087 1.062-.26 1.495a3.188 3.188 0 0 1-.69 1.105c-.285.295-.628.52-1.026.676a3.537 3.537 0 0 1-1.3.234Zm0-1.027c.304 0 .581-.048.833-.143.26-.104.485-.256.676-.455.19-.208.338-.468.442-.78.104-.312.156-.68.156-1.105 0-.425-.052-.793-.156-1.105a2.009 2.009 0 0 0-.442-.767 1.7 1.7 0 0 0-.676-.455 2.156 2.156 0 0 0-.832-.156c-.304 0-.581.052-.832.156a1.718 1.718 0 0 0-.663.455 2.11 2.11 0 0 0-.43.767c-.103.312-.155.68-.155 1.105 0 .425.052.793.156 1.105.104.312.247.572.429.78.19.2.411.351.663.455.251.095.528.143.832.143ZM63.18 14h-5.5V7.253h1.144v5.772h3.315V7.253h1.144v5.772h1.014v2.899h-.975L63.18 14Zm7.55-.572c-.094.07-.212.143-.35.221a4.075 4.075 0 0 1-.507.234c-.2.07-.425.126-.676.169a4.185 4.185 0 0 1-.845.078c-1.135 0-1.998-.308-2.587-.923-.59-.615-.884-1.478-.884-2.587 0-.546.078-1.036.234-1.469.164-.433.39-.797.676-1.092a2.812 2.812 0 0 1 1.014-.689c.39-.165.814-.247 1.274-.247.485 0 .918.082 1.3.247.381.165.693.407.936.728.251.32.42.72.507 1.196.095.468.095 1.014 0 1.638h-4.758c.043.728.26 1.274.65 1.638.39.355.97.533 1.742.533.52 0 .966-.074 1.339-.221a4.7 4.7 0 0 0 .936-.481v1.027Zm-2.677-5.291c-.494 0-.919.152-1.274.455-.356.303-.58.763-.676 1.378h3.627c.034-.624-.108-1.083-.43-1.378-.32-.303-.736-.455-1.247-.455Zm7.216 5.993c-.52 0-.992-.078-1.417-.234a3.1 3.1 0 0 1-1.066-.689 3.04 3.04 0 0 1-.676-1.105 4.36 4.36 0 0 1-.234-1.482c0-.546.078-1.036.234-1.469a3.06 3.06 0 0 1 .689-1.092 2.85 2.85 0 0 1 1.079-.689 3.967 3.967 0 0 1 1.443-.247c.416 0 .797.048 1.144.143.347.087.633.217.858.39v1.027a3.03 3.03 0 0 0-.936-.403 3.86 3.86 0 0 0-1.053-.143c-.789 0-1.37.204-1.742.611-.364.407-.546 1.031-.546 1.872 0 .84.178 1.465.533 1.872.355.407.919.611 1.69.611.407 0 .78-.048 1.118-.143.347-.104.659-.234.936-.39v1.027a3.984 3.984 0 0 1-2.054.533Zm6.5 0c-.52 0-.992-.078-1.417-.234a3.1 3.1 0 0 1-1.066-.689 3.04 3.04 0 0 1-.676-1.105 4.36 4.36 0 0 1-.234-1.482c0-.546.078-1.036.234-1.469a3.06 3.06 0 0 1 .689-1.092 2.85 2.85 0 0 1 1.079-.689 3.967 3.967 0 0 1 1.443-.247c.416 0 .797.048 1.144.143.347.087.633.217.858.39v1.027a3.03 3.03 0 0 0-.936-.403 3.86 3.86 0 0 0-1.053-.143c-.789 0-1.37.204-1.742.611-.364.407-.546 1.031-.546 1.872 0 .84.178 1.465.533 1.872.355.407.919.611 1.69.611.407 0 .78-.048 1.118-.143.347-.104.659-.234.936-.39v1.027a3.984 3.984 0 0 1-2.054.533Zm8.957-.702c-.095.07-.212.143-.351.221a4.062 4.062 0 0 1-.507.234c-.2.07-.425.126-.676.169a4.185 4.185 0 0 1-.845.078c-1.135 0-1.998-.308-2.587-.923-.59-.615-.884-1.478-.884-2.587 0-.546.078-1.036.234-1.469.165-.433.39-.797.676-1.092A2.812 2.812 0 0 1 86.8 7.37c.39-.165.815-.247 1.274-.247.485 0 .919.082 1.3.247.381.165.693.407.936.728.251.32.42.72.507 1.196.095.468.095 1.014 0 1.638h-4.758c.043.728.26 1.274.65 1.638.39.355.97.533 1.742.533.52 0 .966-.074 1.339-.221.373-.147.685-.308.936-.481v1.027Zm-2.678-5.291c-.494 0-.919.152-1.274.455-.355.303-.58.763-.676 1.378h3.627c.035-.624-.108-1.083-.43-1.378-.32-.303-.736-.455-1.247-.455Z"/>
    <defs>
        <clipPath id="clip0_3479_35391">
            <path fill="#fff" d="M6 4h12v12H6z"/>
        </clipPath>
    </defs>
</svg>
