<svg xmlns="http://www.w3.org/2000/svg" width="18" height="18" fill="currentColor" aria-hidden="true" class="yc-icon nv-composite-bar__menu-icon">
    <svg xmlns="http://www.w3.org/2000/svg" viewBox="0 0 16 16">
        <path d="M14 5c1.1 0 2 .9 2 2v7a2 2 0 0 1-2 2H2c-1.13 0-2-.88-2-2V7a2 2 0 0 1 2-2h12Zm0 1.5H2c-.28 0-.5.25-.5.5v7c0 .28.22.5.5.5h12c.25 0 .5-.22.5-.5V7c0-.25-.25-.5-.5-.5Zm-.25-4c.4 0 .75.34.75.75 0 .44-.34.75-.75.75H2.25a.72.72 0 0 1-.75-.75c0-.4.31-.75.75-.75h11.5ZM12.25 0c.4 0 .75.34.75.75 0 .44-.34.75-.75.75h-8.5A.72.72 0 0 1 3 .75c0-.4.31-.75.75-.75h8.5Z"/>
    </svg>
</svg>
