<svg xmlns="http://www.w3.org/2000/svg" width="16" height="16" fill="currentColor" aria-hidden="true" class="yc-icon">
    <svg xmlns="http://www.w3.org/2000/svg" viewBox="0 0 16 16">
        <path fill-rule="evenodd" d="M3.21 2.5a.5.5 0 0 0-.8-.4l-.7.52a.5.5 0 0 0 .5.86V5a.5.5 0 0 0 1 0V2.5zm2.54.5a.75.75 0 1 0 0 1.5h8.5a.75.75 0 0 0 0-1.5h-8.5zm0 8.5a.75.75 0 0 0 0 1.5h8.5a.75.75 0 0 0 0-1.5h-8.5zM5 8c0-.41.34-.75.75-.75h8.5a.75.75 0 0 1 0 1.5h-8.5A.75.75 0 0 1 5 8zm-2.6-.67c-.07.05-.08.1-.09.12a.5.5 0 0 1-.98-.15c.05-.35.26-.61.5-.78.23-.17.52-.27.82-.27.35 0 .67.1.9.34.24.24.34.55.34.85 0 .51-.32.86-.76 1.28l-.02.02-.01.01h.49a.5.5 0 0 1 0 1H1.75a.5.5 0 0 1-.33-.88L2.45 8c.22-.21.33-.34.4-.43.04-.07.04-.1.04-.11 0-.1-.03-.13-.04-.15-.01-.01-.06-.05-.2-.05a.44.44 0 0 0-.25.08zm-.5 3.17a.5.5 0 0 0 0 1h.38l-.15.18a.5.5 0 0 0 .38.82c.26 0 .37.08.41.12.05.06.08.13.08.22v.01l-.06.06a.7.7 0 0 1-.63.03c-.06-.03-.07-.06-.08-.06a.5.5 0 0 0-.9.41c.2.47.72.71 1.24.71.32 0 .65-.08.92-.26s.51-.48.51-.9a1.31 1.31 0 0 0-.6-1.11l.33-.4a.5.5 0 0 0-.38-.83H1.9z" clip-rule="evenodd"/>
    </svg>
</svg>
