<svg xmlns="http://www.w3.org/2000/svg" width="16" height="16" fill="currentColor" aria-hidden="true" class="yc-icon">
    <svg xmlns="http://www.w3.org/2000/svg" fill="none" viewBox="0 0 16 16">
        <path fill="currentColor" d="M6.629 14.625c.127.025.228-.025.254-.127l3.58-12.314c.025-.102-.025-.229-.127-.254l-.99-.28c-.102-.025-.229.026-.254.127l-3.58 12.315c-.026.101.025.228.152.254l.965.279ZM4.52 11.553l.686-.737a.2.2 0 0 0 0-.279l-2.69-2.412 2.691-2.387a.2.2 0 0 0 0-.279l-.686-.736c-.076-.077-.203-.102-.279-.026L.738 7.998a.2.2 0 0 0 0 .28l3.504 3.275a.2.2 0 0 0 .28 0Zm7.211 0 3.504-3.276a.2.2 0 0 0 0-.279l-3.504-3.3c-.076-.077-.203-.052-.279.025l-.685.736a.2.2 0 0 0 0 .28l2.691 2.386-2.691 2.412a.2.2 0 0 0 0 .28l.685.736a.2.2 0 0 0 .28 0Z"/>
    </svg>
</svg>
