<svg xmlns="http://www.w3.org/2000/svg" width="16" height="16" fill="none" viewBox="0 0 16 16">
    <path fill="currentColor" fill-opacity=".85" d="M9.117 12.188h.61a.309.309 0 0 0 .304-.305V6.398a.328.328 0 0 0-.304-.304h-.61a.309.309 0 0 0-.305.304v5.485c0 .178.127.305.305.305Zm4.164-8.532h-2.107l-.864-1.422c-.203-.33-.66-.609-1.04-.609H6.705c-.38 0-.838.28-1.04.61L4.8 3.655H2.719a.418.418 0 0 0-.406.406v.407a.4.4 0 0 0 .406.406h.406v8.531c0 .686.533 1.219 1.219 1.219h7.312a1.22 1.22 0 0 0 1.219-1.219v-8.53h.406a.418.418 0 0 0 .406-.406v-.407a.437.437 0 0 0-.406-.406ZM6.654 2.92c.026-.025.102-.076.127-.076h2.412c.026 0 .102.05.127.076l.432.736h-3.53l.432-.736Zm5.002 10.486H4.344V4.875h7.312v8.531Zm-5.383-1.219h.61a.309.309 0 0 0 .304-.304V6.398a.328.328 0 0 0-.304-.304h-.61a.309.309 0 0 0-.304.304v5.485c0 .178.127.305.304.305Z"/>
</svg>
