<svg width="21" height="10" viewBox="0 0 21 10" fill="none" xmlns="http://www.w3.org/2000/svg">
<path opacity="0.5" fill-rule="evenodd" clip-rule="evenodd" d="M3.88889 7C4.93209 7 5.77778 6.10457 5.77778 5C5.77778 3.89543 4.93209 3 3.88889 3C2.84568 3 2 3.89543 2 5C2 6.10457 2.84568 7 3.88889 7ZM10.5 7C11.5432 7 12.3889 6.10457 12.3889 5C12.3889 3.89543 11.5432 3 10.5 3C9.45682 3 8.61114 3.89543 8.61114 5C8.61114 6.10457 9.45682 7 10.5 7ZM19.0001 5C19.0001 6.10457 18.1544 7 17.1112 7C16.068 7 15.2223 6.10457 15.2223 5C15.2223 3.89543 16.068 3 17.1112 3C18.1544 3 19.0001 3.89543 19.0001 5Z" fill="currentColor"/>
</svg>
