<svg xmlns="http://www.w3.org/2000/svg" width="20" height="20" fill="none" viewBox="0 0 20 20">
    <path fill="#FC4F51" d="m3.838 10.714-1.817 1.2-1.07-.703A1 1 0 0 1 2.05 9.539l1.79 1.175Zm3.64 2.39 4.31 2.83a.5.5 0 0 0 .518.02l9.705-5.438a1 1 0 1 1 .978 1.745l-9.705 5.437a2.5 2.5 0 0 1-2.595-.091l-5.028-3.303 1.817-1.2Z"/>
    <path fill="#1A82E3" d="M2.05 15.487a1 1 0 0 1-1.1-1.669l6.48-4.276a2.5 2.5 0 0 1 1.877-.363l5.571 1.139a.5.5 0 0 0 .465-.148l6.427-6.854a1 1 0 1 1 1.458 1.368l-6.426 6.854a2.5 2.5 0 0 1-2.324.74l-5.571-1.14a.5.5 0 0 0-.375.073L2.05 15.487Z"/>
</svg>
