<svg width="470" height="240" viewBox="0 0 470 240" fill="none" xmlns="http://www.w3.org/2000/svg">
<path d="M420 70H257C254.791 70 253 71.7909 253 74V100C253 102.209 254.791 104 257 104H420C422.209 104 424 102.209 424 100V74C424 71.7909 422.209 70 420 70Z" fill="white" stroke="#5282FF" stroke-width="2"/>
<path d="M328.683 90.516C328.602 90.575 328.503 90.637 328.386 90.703C328.268 90.769 328.125 90.835 327.957 90.901C327.788 90.96 327.597 91.007 327.385 91.044C327.172 91.088 326.934 91.11 326.67 91.11C325.709 91.11 324.979 90.85 324.481 90.329C323.982 89.808 323.733 89.079 323.733 88.14C323.733 87.678 323.799 87.264 323.931 86.897C324.07 86.53 324.261 86.222 324.503 85.973C324.745 85.716 325.031 85.522 325.361 85.39C325.691 85.251 326.05 85.181 326.439 85.181C326.849 85.181 327.216 85.251 327.539 85.39C327.861 85.529 328.125 85.735 328.331 86.006C328.543 86.277 328.686 86.615 328.76 87.018C328.84 87.414 328.84 87.876 328.76 88.404H324.734C324.77 89.02 324.954 89.482 325.284 89.79C325.614 90.091 326.105 90.241 326.758 90.241C327.198 90.241 327.575 90.179 327.891 90.054C328.206 89.929 328.47 89.794 328.683 89.647V90.516ZM326.417 86.039C325.999 86.039 325.639 86.167 325.339 86.424C325.038 86.681 324.847 87.069 324.767 87.59H327.836C327.865 87.062 327.744 86.673 327.473 86.424C327.201 86.167 326.849 86.039 326.417 86.039ZM334.065 89.878C333.889 90.252 333.643 90.553 333.328 90.78C333.012 91 332.613 91.11 332.129 91.11C331.784 91.11 331.458 91.051 331.15 90.934C330.842 90.809 330.57 90.626 330.336 90.384C330.101 90.135 329.914 89.827 329.775 89.46C329.635 89.086 329.566 88.646 329.566 88.14C329.566 87.641 329.635 87.209 329.775 86.842C329.914 86.468 330.101 86.16 330.336 85.918C330.57 85.669 330.842 85.485 331.15 85.368C331.465 85.243 331.795 85.181 332.14 85.181C332.572 85.181 332.946 85.273 333.262 85.456C333.577 85.632 333.83 85.885 334.021 86.215V83.113H334.989V91H334.142L334.065 89.878ZM332.272 90.241C332.521 90.241 332.752 90.201 332.965 90.12C333.177 90.032 333.361 89.9 333.515 89.724C333.676 89.548 333.801 89.328 333.889 89.064C333.984 88.8 334.032 88.492 334.032 88.14C334.032 87.788 333.984 87.48 333.889 87.216C333.801 86.952 333.676 86.732 333.515 86.556C333.361 86.38 333.177 86.252 332.965 86.171C332.752 86.083 332.521 86.039 332.272 86.039C331.766 86.039 331.351 86.219 331.029 86.578C330.713 86.93 330.556 87.451 330.556 88.14C330.556 88.837 330.717 89.361 331.04 89.713C331.362 90.065 331.773 90.241 332.272 90.241ZM337.063 84.455C336.865 84.455 336.708 84.396 336.59 84.279C336.473 84.154 336.414 84.004 336.414 83.828C336.414 83.652 336.473 83.502 336.59 83.377C336.708 83.252 336.865 83.19 337.063 83.19C337.254 83.19 337.404 83.252 337.514 83.377C337.624 83.502 337.679 83.652 337.679 83.828C337.679 84.004 337.624 84.154 337.514 84.279C337.404 84.396 337.254 84.455 337.063 84.455ZM337.536 85.291V91H336.568V85.291H337.536ZM341.908 90.879C341.791 90.945 341.641 91 341.457 91.044C341.274 91.088 341.08 91.11 340.874 91.11C340.596 91.11 340.357 91.07 340.159 90.989C339.969 90.908 339.811 90.802 339.686 90.67C339.562 90.531 339.47 90.377 339.411 90.208C339.36 90.032 339.334 89.852 339.334 89.669V86.116H338.652V85.291H339.334V84.092H340.302V85.291H341.963V86.116H340.302V89.548C340.302 89.79 340.361 89.966 340.478 90.076C340.603 90.186 340.819 90.241 341.127 90.241C341.413 90.241 341.674 90.16 341.908 89.999V90.879ZM345.486 91.11C345.097 91.11 344.734 91.044 344.397 90.912C344.059 90.78 343.766 90.589 343.517 90.34C343.275 90.083 343.084 89.772 342.945 89.405C342.805 89.038 342.736 88.617 342.736 88.14C342.736 87.671 342.805 87.253 342.945 86.886C343.084 86.512 343.275 86.2 343.517 85.951C343.766 85.702 344.059 85.511 344.397 85.379C344.734 85.247 345.097 85.181 345.486 85.181C345.882 85.181 346.248 85.247 346.586 85.379C346.923 85.511 347.213 85.702 347.455 85.951C347.704 86.2 347.898 86.512 348.038 86.886C348.184 87.253 348.258 87.671 348.258 88.14C348.258 88.617 348.184 89.038 348.038 89.405C347.898 89.772 347.704 90.083 347.455 90.34C347.213 90.589 346.923 90.78 346.586 90.912C346.248 91.044 345.882 91.11 345.486 91.11ZM345.486 90.241C345.742 90.241 345.977 90.201 346.19 90.12C346.41 90.032 346.6 89.904 346.762 89.735C346.923 89.559 347.048 89.339 347.136 89.075C347.224 88.811 347.268 88.499 347.268 88.14C347.268 87.781 347.224 87.469 347.136 87.205C347.048 86.941 346.923 86.725 346.762 86.556C346.6 86.38 346.41 86.252 346.19 86.171C345.977 86.083 345.742 86.039 345.486 86.039C345.229 86.039 344.994 86.083 344.782 86.171C344.569 86.252 344.382 86.38 344.221 86.556C344.067 86.725 343.946 86.941 343.858 87.205C343.77 87.469 343.726 87.781 343.726 88.14C343.726 88.499 343.77 88.811 343.858 89.075C343.946 89.339 344.067 89.559 344.221 89.735C344.382 89.904 344.569 90.032 344.782 90.12C344.994 90.201 345.229 90.241 345.486 90.241ZM352.265 86.259C351.854 86.296 351.48 86.402 351.143 86.578C350.813 86.747 350.567 87.011 350.406 87.37V91H349.438V85.291H350.285L350.384 86.534H350.406C350.567 86.197 350.798 85.903 351.099 85.654C351.407 85.397 351.795 85.24 352.265 85.181V86.259Z" fill="#262626"/>
<path d="M421 4H258C255.791 4 254 5.79086 254 8V34C254 36.2091 255.791 38 258 38H421C423.209 38 425 36.2091 425 34V8C425 5.79086 423.209 4 421 4Z" fill="white" stroke="#5282FF" stroke-width="2"/>
<path d="M328.651 23.911C328.585 24.043 328.501 24.1823 328.398 24.329C328.295 24.4683 328.167 24.5967 328.013 24.714C327.859 24.8313 327.676 24.9267 327.463 25C327.258 25.0733 327.016 25.11 326.737 25.11C326.224 25.11 325.809 24.967 325.494 24.681C325.179 24.3877 325.021 23.9697 325.021 23.427C325.021 22.8037 325.237 22.3453 325.67 22.052C326.11 21.7587 326.733 21.612 327.54 21.612H328.607V21.139C328.607 20.743 328.504 20.4607 328.299 20.292C328.094 20.1233 327.742 20.039 327.243 20.039C326.891 20.039 326.557 20.0977 326.242 20.215C325.927 20.325 325.644 20.4533 325.395 20.6V19.731C325.6 19.6063 325.875 19.4853 326.22 19.368C326.572 19.2433 326.957 19.181 327.375 19.181C328.094 19.181 328.64 19.3313 329.014 19.632C329.388 19.9253 329.575 20.3837 329.575 21.007V24.076C329.575 24.142 329.575 24.219 329.575 24.307C329.582 24.3877 329.586 24.472 329.586 24.56C329.593 24.648 329.601 24.7323 329.608 24.813C329.615 24.8863 329.623 24.9487 329.63 25H328.75C328.728 24.8973 328.706 24.7543 328.684 24.571C328.669 24.3803 328.662 24.2153 328.662 24.076L328.651 23.911ZM326.946 24.241C327.247 24.241 327.503 24.1787 327.716 24.054C327.929 23.9293 328.101 23.7863 328.233 23.625C328.365 23.4563 328.46 23.295 328.519 23.141C328.578 22.9797 328.607 22.866 328.607 22.8V22.382H327.639C327.06 22.382 326.638 22.4663 326.374 22.635C326.117 22.7963 325.989 23.042 325.989 23.372C325.989 23.6287 326.066 23.8377 326.22 23.999C326.374 24.1603 326.616 24.241 326.946 24.241ZM335.189 23.878C335.013 24.252 334.768 24.5527 334.452 24.78C334.137 25 333.737 25.11 333.253 25.11C332.909 25.11 332.582 25.0513 332.274 24.934C331.966 24.8093 331.695 24.626 331.46 24.384C331.226 24.1347 331.039 23.8267 330.899 23.46C330.76 23.086 330.69 22.646 330.69 22.14C330.69 21.6413 330.76 21.2087 330.899 20.842C331.039 20.468 331.226 20.16 331.46 19.918C331.695 19.6687 331.966 19.4853 332.274 19.368C332.59 19.2433 332.92 19.181 333.264 19.181C333.697 19.181 334.071 19.2727 334.386 19.456C334.702 19.632 334.955 19.885 335.145 20.215V17.113H336.113V25H335.266L335.189 23.878ZM333.396 24.241C333.646 24.241 333.877 24.2007 334.089 24.12C334.302 24.032 334.485 23.9 334.639 23.724C334.801 23.548 334.925 23.328 335.013 23.064C335.109 22.8 335.156 22.492 335.156 22.14C335.156 21.788 335.109 21.48 335.013 21.216C334.925 20.952 334.801 20.732 334.639 20.556C334.485 20.38 334.302 20.2517 334.089 20.171C333.877 20.083 333.646 20.039 333.396 20.039C332.89 20.039 332.476 20.2187 332.153 20.578C331.838 20.93 331.68 21.4507 331.68 22.14C331.68 22.8367 331.842 23.361 332.164 23.713C332.487 24.065 332.898 24.241 333.396 24.241ZM338.661 25H337.693V19.291H338.54L338.639 20.314H338.661C338.815 19.9913 339.046 19.7237 339.354 19.511C339.662 19.291 340.065 19.181 340.564 19.181C341.004 19.181 341.363 19.2873 341.642 19.5C341.928 19.7053 342.119 20.017 342.214 20.435C342.375 20.0463 342.621 19.742 342.951 19.522C343.288 19.2947 343.695 19.181 344.172 19.181C344.7 19.181 345.118 19.3313 345.426 19.632C345.734 19.9253 345.888 20.38 345.888 20.996V25H344.909V21.117C344.909 20.743 344.817 20.4717 344.634 20.303C344.451 20.127 344.201 20.039 343.886 20.039C343.673 20.039 343.486 20.072 343.325 20.138C343.164 20.1967 343.021 20.281 342.896 20.391C342.771 20.501 342.658 20.6293 342.555 20.776C342.452 20.9227 342.357 21.0767 342.269 21.238V25H341.301V21.007C341.301 20.6403 341.209 20.3873 341.026 20.248C340.843 20.1087 340.593 20.039 340.278 20.039C340.073 20.039 339.889 20.0647 339.728 20.116C339.567 20.1673 339.42 20.2407 339.288 20.336C339.163 20.4313 339.05 20.5487 338.947 20.688C338.844 20.82 338.749 20.9667 338.661 21.128V25ZM347.899 18.455C347.701 18.455 347.543 18.3963 347.426 18.279C347.308 18.1543 347.25 18.004 347.25 17.828C347.25 17.652 347.308 17.5017 347.426 17.377C347.543 17.2523 347.701 17.19 347.899 17.19C348.089 17.19 348.24 17.2523 348.35 17.377C348.46 17.5017 348.515 17.652 348.515 17.828C348.515 18.004 348.46 18.1543 348.35 18.279C348.24 18.3963 348.089 18.455 347.899 18.455ZM348.372 19.291V25H347.404V19.291H348.372ZM352.656 20.039C352.216 20.039 351.856 20.1417 351.578 20.347C351.306 20.545 351.086 20.8017 350.918 21.117V25H349.95V19.291H350.863L350.896 20.314H350.918C351.072 19.984 351.314 19.7127 351.644 19.5C351.974 19.2873 352.392 19.181 352.898 19.181C353.462 19.181 353.91 19.3313 354.24 19.632C354.577 19.9253 354.746 20.38 354.746 20.996V25H353.778V21.095C353.778 20.699 353.679 20.424 353.481 20.27C353.283 20.116 353.008 20.039 352.656 20.039Z" fill="#262626"/>
<path d="M130 70C130 67.473 130 65.512 130 63.995C130 61.234 132.239 59 135 59H294" stroke="#4E496B" stroke-width="2"/>
<path d="M338 50C338 51.595 338 52.915 338 54.004C338 56.765 335.761 59 333 59H159" stroke="#4E496B" stroke-width="2"/>
<path d="M130 135C130 132.473 130 130.512 130 128.995C130 126.234 132.239 124 135 124H294" stroke="#4E496B" stroke-width="2"/>
<path d="M340 117C340 117.741 340 118.406 340 119.001C340 121.763 337.761 124 335 124H159" stroke="#4E496B" stroke-width="2"/>
<path d="M130 201C130 198.473 130 196.512 130 194.995C130 192.234 132.239 190 135 190H294" stroke="#4E496B" stroke-width="2"/>
<path d="M340 183C340 183.741 340 184.406 340 185.001C340 187.763 337.761 190 335 190H159" stroke="#4E496B" stroke-width="2"/>
<path d="M421 136H258C255.791 136 254 137.791 254 140V166C254 168.209 255.791 170 258 170H421C423.209 170 425 168.209 425 166V140C425 137.791 423.209 136 421 136Z" fill="white" stroke="#5282FF" stroke-width="2"/>
<path d="M327.382 157H325.82L323.862 151.291H324.907L326.645 156.483L328.372 151.291H329.34L327.382 157ZM330.733 150.455C330.535 150.455 330.377 150.396 330.26 150.279C330.142 150.154 330.084 150.004 330.084 149.828C330.084 149.652 330.142 149.502 330.26 149.377C330.377 149.252 330.535 149.19 330.733 149.19C330.923 149.19 331.074 149.252 331.184 149.377C331.294 149.502 331.349 149.652 331.349 149.828C331.349 150.004 331.294 150.154 331.184 150.279C331.074 150.396 330.923 150.455 330.733 150.455ZM331.206 151.291V157H330.238V151.291H331.206ZM337.327 156.516C337.246 156.575 337.147 156.637 337.03 156.703C336.912 156.769 336.769 156.835 336.601 156.901C336.432 156.96 336.241 157.007 336.029 157.044C335.816 157.088 335.578 157.11 335.314 157.11C334.353 157.11 333.623 156.85 333.125 156.329C332.626 155.808 332.377 155.079 332.377 154.14C332.377 153.678 332.443 153.264 332.575 152.897C332.714 152.53 332.905 152.222 333.147 151.973C333.389 151.716 333.675 151.522 334.005 151.39C334.335 151.251 334.694 151.181 335.083 151.181C335.493 151.181 335.86 151.251 336.183 151.39C336.505 151.529 336.769 151.735 336.975 152.006C337.187 152.277 337.33 152.615 337.404 153.018C337.484 153.414 337.484 153.876 337.404 154.404H333.378C333.414 155.02 333.598 155.482 333.928 155.79C334.258 156.091 334.749 156.241 335.402 156.241C335.842 156.241 336.219 156.179 336.535 156.054C336.85 155.929 337.114 155.794 337.327 155.647V156.516ZM335.061 152.039C334.643 152.039 334.283 152.167 333.983 152.424C333.682 152.681 333.491 153.069 333.411 153.59H336.48C336.509 153.062 336.388 152.673 336.117 152.424C335.845 152.167 335.493 152.039 335.061 152.039ZM344.832 157H343.347L342.137 152.589L340.894 157H339.453L338.155 151.291H339.178L340.267 156.274L341.653 151.291H342.742L344.095 156.219L345.173 151.291H346.13L344.832 157ZM351.743 156.516C351.662 156.575 351.563 156.637 351.446 156.703C351.328 156.769 351.185 156.835 351.017 156.901C350.848 156.96 350.657 157.007 350.445 157.044C350.232 157.088 349.994 157.11 349.73 157.11C348.769 157.11 348.039 156.85 347.541 156.329C347.042 155.808 346.793 155.079 346.793 154.14C346.793 153.678 346.859 153.264 346.991 152.897C347.13 152.53 347.321 152.222 347.563 151.973C347.805 151.716 348.091 151.522 348.421 151.39C348.751 151.251 349.11 151.181 349.499 151.181C349.909 151.181 350.276 151.251 350.599 151.39C350.921 151.529 351.185 151.735 351.391 152.006C351.603 152.277 351.746 152.615 351.82 153.018C351.9 153.414 351.9 153.876 351.82 154.404H347.794C347.83 155.02 348.014 155.482 348.344 155.79C348.674 156.091 349.165 156.241 349.818 156.241C350.258 156.241 350.635 156.179 350.951 156.054C351.266 155.929 351.53 155.794 351.743 155.647V156.516ZM349.477 152.039C349.059 152.039 348.699 152.167 348.399 152.424C348.098 152.681 347.907 153.069 347.827 153.59H350.896C350.925 153.062 350.804 152.673 350.533 152.424C350.261 152.167 349.909 152.039 349.477 152.039ZM355.86 152.259C355.449 152.296 355.075 152.402 354.738 152.578C354.408 152.747 354.162 153.011 354.001 153.37V157H353.033V151.291H353.88L353.979 152.534H354.001C354.162 152.197 354.393 151.903 354.694 151.654C355.002 151.397 355.39 151.24 355.86 151.181V152.259Z" fill="#262626"/>
<path d="M211 70H48C45.7909 70 44 71.7909 44 74V100C44 102.209 45.7909 104 48 104H211C213.209 104 215 102.209 215 100V74C215 71.7909 213.209 70 211 70Z" fill="white" stroke="#5282FF" stroke-width="2"/>
<path d="M77.9886 77.455C77.7906 77.455 77.6329 77.396 77.5156 77.279C77.3982 77.154 77.3396 77.004 77.3396 76.828C77.3396 76.652 77.3982 76.502 77.5156 76.377C77.6329 76.252 77.7906 76.19 77.9886 76.19C78.1792 76.19 78.3296 76.252 78.4396 76.377C78.5496 76.502 78.6046 76.652 78.6046 76.828C78.6046 77.004 78.5496 77.154 78.4396 77.279C78.3296 77.396 78.1792 77.455 77.9886 77.455ZM78.4616 78.291V84H77.4936V78.291H78.4616ZM83.3835 82.911C83.3175 83.043 83.2331 83.182 83.1305 83.329C83.0278 83.468 82.8995 83.597 82.7455 83.714C82.5915 83.831 82.4081 83.927 82.1955 84C81.9901 84.073 81.7481 84.11 81.4695 84.11C80.9561 84.11 80.5418 83.967 80.2265 83.681C79.9111 83.388 79.7535 82.97 79.7535 82.427C79.7535 81.804 79.9698 81.345 80.4025 81.052C80.8425 80.759 81.4658 80.612 82.2725 80.612H83.3395V80.139C83.3395 79.743 83.2368 79.461 83.0315 79.292C82.8261 79.123 82.4741 79.039 81.9755 79.039C81.6235 79.039 81.2898 79.098 80.9745 79.215C80.6591 79.325 80.3768 79.453 80.1275 79.6V78.731C80.3328 78.606 80.6078 78.485 80.9525 78.368C81.3045 78.243 81.6895 78.181 82.1075 78.181C82.8261 78.181 83.3725 78.331 83.7465 78.632C84.1205 78.925 84.3075 79.384 84.3075 80.007V83.076C84.3075 83.142 84.3075 83.219 84.3075 83.307C84.3148 83.388 84.3185 83.472 84.3185 83.56C84.3258 83.648 84.3331 83.732 84.3405 83.813C84.3478 83.886 84.3551 83.949 84.3625 84H83.4825C83.4605 83.897 83.4385 83.754 83.4165 83.571C83.4018 83.38 83.3945 83.215 83.3945 83.076L83.3835 82.911ZM81.6785 83.241C81.9791 83.241 82.2358 83.179 82.4485 83.054C82.6611 82.929 82.8335 82.786 82.9655 82.625C83.0975 82.456 83.1928 82.295 83.2515 82.141C83.3101 81.98 83.3395 81.866 83.3395 81.8V81.382H82.3715C81.7921 81.382 81.3705 81.466 81.1065 81.635C80.8498 81.796 80.7215 82.042 80.7215 82.372C80.7215 82.629 80.7985 82.838 80.9525 82.999C81.1065 83.16 81.3485 83.241 81.6785 83.241ZM86.7975 84H85.8295V78.291H86.6765L86.7755 79.314H86.7975C86.9515 78.991 87.1825 78.724 87.4905 78.511C87.7985 78.291 88.2018 78.181 88.7005 78.181C89.1405 78.181 89.4998 78.287 89.7785 78.5C90.0645 78.705 90.2552 79.017 90.3505 79.435C90.5118 79.046 90.7575 78.742 91.0875 78.522C91.4248 78.295 91.8318 78.181 92.3085 78.181C92.8365 78.181 93.2545 78.331 93.5625 78.632C93.8705 78.925 94.0245 79.38 94.0245 79.996V84H93.0455V80.117C93.0455 79.743 92.9538 79.472 92.7705 79.303C92.5872 79.127 92.3378 79.039 92.0225 79.039C91.8098 79.039 91.6228 79.072 91.4615 79.138C91.3002 79.197 91.1572 79.281 91.0325 79.391C90.9078 79.501 90.7942 79.629 90.6915 79.776C90.5888 79.923 90.4935 80.077 90.4055 80.238V84H89.4375V80.007C89.4375 79.64 89.3458 79.387 89.1625 79.248C88.9792 79.109 88.7298 79.039 88.4145 79.039C88.2092 79.039 88.0258 79.065 87.8645 79.116C87.7032 79.167 87.5565 79.241 87.4245 79.336C87.2998 79.431 87.1862 79.549 87.0835 79.688C86.9808 79.82 86.8855 79.967 86.7975 80.128V84ZM96.0684 84.066C95.8558 84.066 95.6834 84 95.5514 83.868C95.4194 83.729 95.3534 83.564 95.3534 83.373C95.3534 83.168 95.4194 82.999 95.5514 82.867C95.6834 82.735 95.8558 82.669 96.0684 82.669C96.2738 82.669 96.4424 82.735 96.5744 82.867C96.7064 82.999 96.7724 83.168 96.7724 83.373C96.7724 83.564 96.7064 83.729 96.5744 83.868C96.4424 84 96.2738 84.066 96.0684 84.066ZM99.9983 84.11C99.6976 84.11 99.4299 84.084 99.1953 84.033C98.9679 83.989 98.7663 83.934 98.5903 83.868C98.4216 83.795 98.2786 83.721 98.1613 83.648C98.0439 83.567 97.9523 83.498 97.8863 83.439V82.57C97.9596 82.643 98.0586 82.724 98.1833 82.812C98.3079 82.893 98.4583 82.97 98.6343 83.043C98.8103 83.116 99.0083 83.179 99.2283 83.23C99.4556 83.274 99.7086 83.296 99.9873 83.296C100.398 83.296 100.724 83.23 100.966 83.098C101.208 82.966 101.329 82.742 101.329 82.427C101.329 82.258 101.289 82.123 101.208 82.02C101.135 81.917 101.032 81.837 100.9 81.778C100.768 81.712 100.614 81.661 100.438 81.624C100.27 81.587 100.09 81.551 99.8993 81.514C99.6573 81.463 99.4189 81.408 99.1843 81.349C98.9496 81.283 98.7369 81.191 98.5463 81.074C98.3556 80.949 98.2016 80.792 98.0843 80.601C97.9669 80.403 97.9083 80.146 97.9083 79.831C97.9083 79.318 98.1063 78.914 98.5023 78.621C98.9056 78.328 99.4666 78.181 100.185 78.181C100.589 78.181 100.944 78.221 101.252 78.302C101.568 78.383 101.81 78.471 101.978 78.566V79.435C101.788 79.31 101.549 79.208 101.263 79.127C100.985 79.039 100.636 78.995 100.218 78.995C99.7856 78.995 99.4519 79.054 99.2173 79.171C98.9899 79.288 98.8763 79.501 98.8763 79.809C98.8763 79.963 98.9093 80.088 98.9753 80.183C99.0413 80.271 99.1293 80.344 99.2393 80.403C99.3566 80.454 99.4886 80.495 99.6353 80.524C99.7819 80.553 99.9359 80.586 100.097 80.623C100.347 80.674 100.603 80.729 100.867 80.788C101.131 80.847 101.366 80.938 101.571 81.063C101.784 81.188 101.956 81.356 102.088 81.569C102.228 81.774 102.297 82.053 102.297 82.405C102.297 82.735 102.231 83.01 102.099 83.23C101.967 83.45 101.791 83.626 101.571 83.758C101.359 83.883 101.113 83.971 100.834 84.022C100.563 84.081 100.284 84.11 99.9983 84.11ZM108.033 83.516C107.952 83.575 107.853 83.637 107.736 83.703C107.618 83.769 107.475 83.835 107.307 83.901C107.138 83.96 106.947 84.007 106.735 84.044C106.522 84.088 106.284 84.11 106.02 84.11C105.059 84.11 104.329 83.85 103.831 83.329C103.332 82.808 103.083 82.079 103.083 81.14C103.083 80.678 103.149 80.264 103.281 79.897C103.42 79.53 103.611 79.222 103.853 78.973C104.095 78.716 104.381 78.522 104.711 78.39C105.041 78.251 105.4 78.181 105.789 78.181C106.199 78.181 106.566 78.251 106.889 78.39C107.211 78.529 107.475 78.735 107.681 79.006C107.893 79.277 108.036 79.615 108.11 80.018C108.19 80.414 108.19 80.876 108.11 81.404H104.084C104.12 82.02 104.304 82.482 104.634 82.79C104.964 83.091 105.455 83.241 106.108 83.241C106.548 83.241 106.925 83.179 107.241 83.054C107.556 82.929 107.82 82.794 108.033 82.647V83.516ZM105.767 79.039C105.349 79.039 104.989 79.167 104.689 79.424C104.388 79.681 104.197 80.069 104.117 80.59H107.186C107.215 80.062 107.094 79.673 106.823 79.424C106.551 79.167 106.199 79.039 105.767 79.039ZM112.15 79.259C111.739 79.296 111.365 79.402 111.028 79.578C110.698 79.747 110.452 80.011 110.291 80.37V84H109.323V78.291H110.17L110.269 79.534H110.291C110.452 79.197 110.683 78.903 110.984 78.654C111.292 78.397 111.68 78.24 112.15 78.181V79.259ZM116.329 84H114.767L112.809 78.291H113.854L115.592 83.483L117.319 78.291H118.287L116.329 84ZM119.679 77.455C119.481 77.455 119.323 77.396 119.206 77.279C119.089 77.154 119.03 77.004 119.03 76.828C119.03 76.652 119.089 76.502 119.206 76.377C119.323 76.252 119.481 76.19 119.679 76.19C119.87 76.19 120.02 76.252 120.13 76.377C120.24 76.502 120.295 76.652 120.295 76.828C120.295 77.004 120.24 77.154 120.13 77.279C120.02 77.396 119.87 77.455 119.679 77.455ZM120.152 78.291V84H119.184V78.291H120.152ZM124.194 84.11C123.754 84.11 123.354 84.044 122.995 83.912C122.643 83.773 122.342 83.578 122.093 83.329C121.844 83.072 121.653 82.761 121.521 82.394C121.389 82.027 121.323 81.609 121.323 81.14C121.323 80.678 121.389 80.264 121.521 79.897C121.66 79.53 121.855 79.222 122.104 78.973C122.353 78.716 122.658 78.522 123.017 78.39C123.376 78.251 123.783 78.181 124.238 78.181C124.59 78.181 124.913 78.221 125.206 78.302C125.499 78.375 125.741 78.485 125.932 78.632V79.501C125.697 79.347 125.433 79.233 125.14 79.16C124.854 79.079 124.557 79.039 124.249 79.039C123.582 79.039 123.09 79.211 122.775 79.556C122.467 79.901 122.313 80.429 122.313 81.14C122.313 81.851 122.463 82.379 122.764 82.724C123.065 83.069 123.541 83.241 124.194 83.241C124.539 83.241 124.854 83.201 125.14 83.12C125.433 83.032 125.697 82.922 125.932 82.79V83.659C125.727 83.784 125.477 83.89 125.184 83.978C124.898 84.066 124.568 84.11 124.194 84.11ZM131.655 83.516C131.574 83.575 131.475 83.637 131.358 83.703C131.24 83.769 131.097 83.835 130.929 83.901C130.76 83.96 130.569 84.007 130.357 84.044C130.144 84.088 129.906 84.11 129.642 84.11C128.681 84.11 127.951 83.85 127.453 83.329C126.954 82.808 126.705 82.079 126.705 81.14C126.705 80.678 126.771 80.264 126.903 79.897C127.042 79.53 127.233 79.222 127.475 78.973C127.717 78.716 128.003 78.522 128.333 78.39C128.663 78.251 129.022 78.181 129.411 78.181C129.821 78.181 130.188 78.251 130.511 78.39C130.833 78.529 131.097 78.735 131.303 79.006C131.515 79.277 131.658 79.615 131.732 80.018C131.812 80.414 131.812 80.876 131.732 81.404H127.706C127.742 82.02 127.926 82.482 128.256 82.79C128.586 83.091 129.077 83.241 129.73 83.241C130.17 83.241 130.547 83.179 130.863 83.054C131.178 82.929 131.442 82.794 131.655 82.647V83.516ZM129.389 79.039C128.971 79.039 128.611 79.167 128.311 79.424C128.01 79.681 127.819 80.069 127.739 80.59H130.808C130.837 80.062 130.716 79.673 130.445 79.424C130.173 79.167 129.821 79.039 129.389 79.039ZM135.178 76.113H136.718L139.545 84H138.445L137.631 81.745H134.144L133.341 84H132.373L135.178 76.113ZM137.301 80.81L135.893 76.883L134.485 80.81H137.301ZM142.918 84.11C142.478 84.11 142.078 84.044 141.719 83.912C141.367 83.773 141.066 83.578 140.817 83.329C140.567 83.072 140.377 82.761 140.245 82.394C140.113 82.027 140.047 81.609 140.047 81.14C140.047 80.678 140.113 80.264 140.245 79.897C140.384 79.53 140.578 79.222 140.828 78.973C141.077 78.716 141.381 78.522 141.741 78.39C142.1 78.251 142.507 78.181 142.962 78.181C143.314 78.181 143.636 78.221 143.93 78.302C144.223 78.375 144.465 78.485 144.656 78.632V79.501C144.421 79.347 144.157 79.233 143.864 79.16C143.578 79.079 143.281 79.039 142.973 79.039C142.305 79.039 141.814 79.211 141.499 79.556C141.191 79.901 141.037 80.429 141.037 81.14C141.037 81.851 141.187 82.379 141.488 82.724C141.788 83.069 142.265 83.241 142.918 83.241C143.262 83.241 143.578 83.201 143.864 83.12C144.157 83.032 144.421 82.922 144.656 82.79V83.659C144.45 83.784 144.201 83.89 143.908 83.978C143.622 84.066 143.292 84.11 142.918 84.11ZM148.299 84.11C147.859 84.11 147.46 84.044 147.1 83.912C146.748 83.773 146.448 83.578 146.198 83.329C145.949 83.072 145.758 82.761 145.626 82.394C145.494 82.027 145.428 81.609 145.428 81.14C145.428 80.678 145.494 80.264 145.626 79.897C145.766 79.53 145.96 79.222 146.209 78.973C146.459 78.716 146.763 78.522 147.122 78.39C147.482 78.251 147.889 78.181 148.343 78.181C148.695 78.181 149.018 78.221 149.311 78.302C149.605 78.375 149.847 78.485 150.037 78.632V79.501C149.803 79.347 149.539 79.233 149.245 79.16C148.959 79.079 148.662 79.039 148.354 79.039C147.687 79.039 147.196 79.211 146.88 79.556C146.572 79.901 146.418 80.429 146.418 81.14C146.418 81.851 146.569 82.379 146.869 82.724C147.17 83.069 147.647 83.241 148.299 83.241C148.644 83.241 148.959 83.201 149.245 83.12C149.539 83.032 149.803 82.922 150.037 82.79V83.659C149.832 83.784 149.583 83.89 149.289 83.978C149.003 84.066 148.673 84.11 148.299 84.11ZM153.56 84.11C153.172 84.11 152.809 84.044 152.471 83.912C152.134 83.78 151.841 83.589 151.591 83.34C151.349 83.083 151.159 82.772 151.019 82.405C150.88 82.038 150.81 81.617 150.81 81.14C150.81 80.671 150.88 80.253 151.019 79.886C151.159 79.512 151.349 79.2 151.591 78.951C151.841 78.702 152.134 78.511 152.471 78.379C152.809 78.247 153.172 78.181 153.56 78.181C153.956 78.181 154.323 78.247 154.66 78.379C154.998 78.511 155.287 78.702 155.529 78.951C155.779 79.2 155.973 79.512 156.112 79.886C156.259 80.253 156.332 80.671 156.332 81.14C156.332 81.617 156.259 82.038 156.112 82.405C155.973 82.772 155.779 83.083 155.529 83.34C155.287 83.589 154.998 83.78 154.66 83.912C154.323 84.044 153.956 84.11 153.56 84.11ZM153.56 83.241C153.817 83.241 154.052 83.201 154.264 83.12C154.484 83.032 154.675 82.904 154.836 82.735C154.998 82.559 155.122 82.339 155.21 82.075C155.298 81.811 155.342 81.499 155.342 81.14C155.342 80.781 155.298 80.469 155.21 80.205C155.122 79.941 154.998 79.725 154.836 79.556C154.675 79.38 154.484 79.252 154.264 79.171C154.052 79.083 153.817 79.039 153.56 79.039C153.304 79.039 153.069 79.083 152.856 79.171C152.644 79.252 152.457 79.38 152.295 79.556C152.141 79.725 152.02 79.941 151.932 80.205C151.844 80.469 151.8 80.781 151.8 81.14C151.8 81.499 151.844 81.811 151.932 82.075C152.02 82.339 152.141 82.559 152.295 82.735C152.457 82.904 152.644 83.032 152.856 83.12C153.069 83.201 153.304 83.241 153.56 83.241ZM161.175 82.977C161.021 83.3 160.783 83.571 160.46 83.791C160.145 84.004 159.731 84.11 159.217 84.11C158.689 84.11 158.26 83.963 157.93 83.67C157.608 83.369 157.446 82.907 157.446 82.284V78.291H158.425V82.284C158.425 82.475 158.451 82.632 158.502 82.757C158.561 82.874 158.638 82.97 158.733 83.043C158.829 83.116 158.939 83.168 159.063 83.197C159.195 83.226 159.338 83.241 159.492 83.241C159.918 83.241 160.259 83.146 160.515 82.955C160.772 82.764 160.992 82.504 161.175 82.174V78.291H162.143V84H161.285L161.197 82.977H161.175ZM166.438 79.039C165.998 79.039 165.639 79.142 165.36 79.347C165.089 79.545 164.869 79.802 164.7 80.117V84H163.732V78.291H164.645L164.678 79.314H164.7C164.854 78.984 165.096 78.713 165.426 78.5C165.756 78.287 166.174 78.181 166.68 78.181C167.245 78.181 167.692 78.331 168.022 78.632C168.359 78.925 168.528 79.38 168.528 79.996V84H167.56V80.095C167.56 79.699 167.461 79.424 167.263 79.27C167.065 79.116 166.79 79.039 166.438 79.039ZM172.853 83.879C172.736 83.945 172.585 84 172.402 84.044C172.219 84.088 172.024 84.11 171.819 84.11C171.54 84.11 171.302 84.07 171.104 83.989C170.913 83.908 170.756 83.802 170.631 83.67C170.506 83.531 170.415 83.377 170.356 83.208C170.305 83.032 170.279 82.852 170.279 82.669V79.116H169.597V78.291H170.279V77.092H171.247V78.291H172.908V79.116H171.247V82.548C171.247 82.79 171.306 82.966 171.423 83.076C171.548 83.186 171.764 83.241 172.072 83.241C172.358 83.241 172.618 83.16 172.853 82.999V83.879ZM175.967 84.11C175.666 84.11 175.399 84.084 175.164 84.033C174.937 83.989 174.735 83.934 174.559 83.868C174.39 83.795 174.247 83.721 174.13 83.648C174.013 83.567 173.921 83.498 173.855 83.439V82.57C173.928 82.643 174.027 82.724 174.152 82.812C174.277 82.893 174.427 82.97 174.603 83.043C174.779 83.116 174.977 83.179 175.197 83.23C175.424 83.274 175.677 83.296 175.956 83.296C176.367 83.296 176.693 83.23 176.935 83.098C177.177 82.966 177.298 82.742 177.298 82.427C177.298 82.258 177.258 82.123 177.177 82.02C177.104 81.917 177.001 81.837 176.869 81.778C176.737 81.712 176.583 81.661 176.407 81.624C176.238 81.587 176.059 81.551 175.868 81.514C175.626 81.463 175.388 81.408 175.153 81.349C174.918 81.283 174.706 81.191 174.515 81.074C174.324 80.949 174.17 80.792 174.053 80.601C173.936 80.403 173.877 80.146 173.877 79.831C173.877 79.318 174.075 78.914 174.471 78.621C174.874 78.328 175.435 78.181 176.154 78.181C176.557 78.181 176.913 78.221 177.221 78.302C177.536 78.383 177.778 78.471 177.947 78.566V79.435C177.756 79.31 177.518 79.208 177.232 79.127C176.953 79.039 176.605 78.995 176.187 78.995C175.754 78.995 175.421 79.054 175.186 79.171C174.959 79.288 174.845 79.501 174.845 79.809C174.845 79.963 174.878 80.088 174.944 80.183C175.01 80.271 175.098 80.344 175.208 80.403C175.325 80.454 175.457 80.495 175.604 80.524C175.751 80.553 175.905 80.586 176.066 80.623C176.315 80.674 176.572 80.729 176.836 80.788C177.1 80.847 177.335 80.938 177.54 81.063C177.753 81.188 177.925 81.356 178.057 81.569C178.196 81.774 178.266 82.053 178.266 82.405C178.266 82.735 178.2 83.01 178.068 83.23C177.936 83.45 177.76 83.626 177.54 83.758C177.327 83.883 177.082 83.971 176.803 84.022C176.532 84.081 176.253 84.11 175.967 84.11ZM179.987 84.066C179.774 84.066 179.602 84 179.47 83.868C179.338 83.729 179.272 83.564 179.272 83.373C179.272 83.168 179.338 82.999 179.47 82.867C179.602 82.735 179.774 82.669 179.987 82.669C180.192 82.669 180.361 82.735 180.493 82.867C180.625 82.999 180.691 83.168 180.691 83.373C180.691 83.564 180.625 83.729 180.493 83.868C180.361 84 180.192 84.066 179.987 84.066ZM100.134 96.879C100.017 96.945 99.8661 97 99.6828 97.044C99.4994 97.088 99.3051 97.11 99.0998 97.11C98.8211 97.11 98.5828 97.07 98.3848 96.989C98.1941 96.908 98.0364 96.802 97.9118 96.67C97.7871 96.531 97.6954 96.377 97.6368 96.208C97.5854 96.032 97.5598 95.852 97.5598 95.669V92.116H96.8778V91.291H97.5598V90.092H98.5278V91.291H100.189V92.116H98.5278V95.548C98.5278 95.79 98.5864 95.966 98.7038 96.076C98.8284 96.186 99.0448 96.241 99.3528 96.241C99.6388 96.241 99.8991 96.16 100.134 95.999V96.879ZM103.711 97.11C103.323 97.11 102.96 97.044 102.622 96.912C102.285 96.78 101.992 96.589 101.742 96.34C101.5 96.083 101.31 95.772 101.17 95.405C101.031 95.038 100.961 94.617 100.961 94.14C100.961 93.671 101.031 93.253 101.17 92.886C101.31 92.512 101.5 92.2 101.742 91.951C101.992 91.702 102.285 91.511 102.622 91.379C102.96 91.247 103.323 91.181 103.711 91.181C104.107 91.181 104.474 91.247 104.811 91.379C105.149 91.511 105.438 91.702 105.68 91.951C105.93 92.2 106.124 92.512 106.263 92.886C106.41 93.253 106.483 93.671 106.483 94.14C106.483 94.617 106.41 95.038 106.263 95.405C106.124 95.772 105.93 96.083 105.68 96.34C105.438 96.589 105.149 96.78 104.811 96.912C104.474 97.044 104.107 97.11 103.711 97.11ZM103.711 96.241C103.968 96.241 104.203 96.201 104.415 96.12C104.635 96.032 104.826 95.904 104.987 95.735C105.149 95.559 105.273 95.339 105.361 95.075C105.449 94.811 105.493 94.499 105.493 94.14C105.493 93.781 105.449 93.469 105.361 93.205C105.273 92.941 105.149 92.725 104.987 92.556C104.826 92.38 104.635 92.252 104.415 92.171C104.203 92.083 103.968 92.039 103.711 92.039C103.455 92.039 103.22 92.083 103.007 92.171C102.795 92.252 102.608 92.38 102.446 92.556C102.292 92.725 102.171 92.941 102.083 93.205C101.995 93.469 101.951 93.781 101.951 94.14C101.951 94.499 101.995 94.811 102.083 95.075C102.171 95.339 102.292 95.559 102.446 95.735C102.608 95.904 102.795 96.032 103.007 96.12C103.22 96.201 103.455 96.241 103.711 96.241ZM109.137 94.569H108.631V97H107.663V89.113H108.631V93.744H109.181L111.183 91.291H112.283L109.94 94.107L112.327 97H111.15L109.137 94.569ZM117.448 96.516C117.368 96.575 117.269 96.637 117.151 96.703C117.034 96.769 116.891 96.835 116.722 96.901C116.554 96.96 116.363 97.007 116.15 97.044C115.938 97.088 115.699 97.11 115.435 97.11C114.475 97.11 113.745 96.85 113.246 96.329C112.748 95.808 112.498 95.079 112.498 94.14C112.498 93.678 112.564 93.264 112.696 92.897C112.836 92.53 113.026 92.222 113.268 91.973C113.51 91.716 113.796 91.522 114.126 91.39C114.456 91.251 114.816 91.181 115.204 91.181C115.615 91.181 115.982 91.251 116.304 91.39C116.627 91.529 116.891 91.735 117.096 92.006C117.309 92.277 117.452 92.615 117.525 93.018C117.606 93.414 117.606 93.876 117.525 94.404H113.499C113.536 95.02 113.719 95.482 114.049 95.79C114.379 96.091 114.871 96.241 115.523 96.241C115.963 96.241 116.341 96.179 116.656 96.054C116.972 95.929 117.236 95.794 117.448 95.647V96.516ZM115.182 92.039C114.764 92.039 114.405 92.167 114.104 92.424C113.804 92.681 113.613 93.069 113.532 93.59H116.601C116.631 93.062 116.51 92.673 116.238 92.424C115.967 92.167 115.615 92.039 115.182 92.039ZM121.444 92.039C121.004 92.039 120.645 92.142 120.366 92.347C120.095 92.545 119.875 92.802 119.706 93.117V97H118.738V91.291H119.651L119.684 92.314H119.706C119.86 91.984 120.102 91.713 120.432 91.5C120.762 91.287 121.18 91.181 121.686 91.181C122.251 91.181 122.698 91.331 123.028 91.632C123.366 91.925 123.534 92.38 123.534 92.996V97H122.566V93.095C122.566 92.699 122.467 92.424 122.269 92.27C122.071 92.116 121.796 92.039 121.444 92.039ZM128.618 97.11C128.032 97.11 127.5 97.018 127.023 96.835C126.547 96.652 126.136 96.388 125.791 96.043C125.454 95.691 125.194 95.266 125.01 94.767C124.827 94.261 124.735 93.693 124.735 93.062C124.735 92.424 124.82 91.856 124.988 91.357C125.157 90.858 125.406 90.437 125.736 90.092C126.066 89.74 126.47 89.472 126.946 89.289C127.43 89.106 127.98 89.014 128.596 89.014C129.132 89.014 129.601 89.073 130.004 89.19C130.408 89.3 130.738 89.432 130.994 89.586V90.576C130.664 90.363 130.283 90.206 129.85 90.103C129.425 90 129.003 89.949 128.585 89.949C127.654 89.949 126.965 90.209 126.517 90.73C126.077 91.243 125.857 92.021 125.857 93.062C125.857 94.111 126.096 94.892 126.572 95.405C127.056 95.918 127.768 96.175 128.706 96.175C129.11 96.175 129.502 96.12 129.883 96.01C130.272 95.9 130.642 95.713 130.994 95.449V96.439C130.782 96.608 130.47 96.762 130.059 96.901C129.656 97.04 129.176 97.11 128.618 97.11ZM135.272 92.259C134.862 92.296 134.488 92.402 134.15 92.578C133.82 92.747 133.575 93.011 133.413 93.37V97H132.445V91.291H133.292L133.391 92.534H133.413C133.575 92.197 133.806 91.903 134.106 91.654C134.414 91.397 134.803 91.24 135.272 91.181V92.259ZM140.834 96.516C140.753 96.575 140.654 96.637 140.537 96.703C140.42 96.769 140.277 96.835 140.108 96.901C139.939 96.96 139.749 97.007 139.536 97.044C139.323 97.088 139.085 97.11 138.821 97.11C137.86 97.11 137.131 96.85 136.632 96.329C136.133 95.808 135.884 95.079 135.884 94.14C135.884 93.678 135.95 93.264 136.082 92.897C136.221 92.53 136.412 92.222 136.654 91.973C136.896 91.716 137.182 91.522 137.512 91.39C137.842 91.251 138.201 91.181 138.59 91.181C139.001 91.181 139.367 91.251 139.69 91.39C140.013 91.529 140.277 91.735 140.482 92.006C140.695 92.277 140.838 92.615 140.911 93.018C140.992 93.414 140.992 93.876 140.911 94.404H136.885C136.922 95.02 137.105 95.482 137.435 95.79C137.765 96.091 138.256 96.241 138.909 96.241C139.349 96.241 139.727 96.179 140.042 96.054C140.357 95.929 140.621 95.794 140.834 95.647V96.516ZM138.568 92.039C138.15 92.039 137.791 92.167 137.49 92.424C137.189 92.681 136.999 93.069 136.918 93.59H139.987C140.016 93.062 139.895 92.673 139.624 92.424C139.353 92.167 139.001 92.039 138.568 92.039ZM145.468 95.911C145.402 96.043 145.318 96.182 145.215 96.329C145.112 96.468 144.984 96.597 144.83 96.714C144.676 96.831 144.493 96.927 144.28 97C144.075 97.073 143.833 97.11 143.554 97.11C143.041 97.11 142.626 96.967 142.311 96.681C141.996 96.388 141.838 95.97 141.838 95.427C141.838 94.804 142.054 94.345 142.487 94.052C142.927 93.759 143.55 93.612 144.357 93.612H145.424V93.139C145.424 92.743 145.321 92.461 145.116 92.292C144.911 92.123 144.559 92.039 144.06 92.039C143.708 92.039 143.374 92.098 143.059 92.215C142.744 92.325 142.461 92.453 142.212 92.6V91.731C142.417 91.606 142.692 91.485 143.037 91.368C143.389 91.243 143.774 91.181 144.192 91.181C144.911 91.181 145.457 91.331 145.831 91.632C146.205 91.925 146.392 92.384 146.392 93.007V96.076C146.392 96.142 146.392 96.219 146.392 96.307C146.399 96.388 146.403 96.472 146.403 96.56C146.41 96.648 146.418 96.732 146.425 96.813C146.432 96.886 146.44 96.949 146.447 97H145.567C145.545 96.897 145.523 96.754 145.501 96.571C145.486 96.38 145.479 96.215 145.479 96.076L145.468 95.911ZM143.763 96.241C144.064 96.241 144.32 96.179 144.533 96.054C144.746 95.929 144.918 95.786 145.05 95.625C145.182 95.456 145.277 95.295 145.336 95.141C145.395 94.98 145.424 94.866 145.424 94.8V94.382H144.456C143.877 94.382 143.455 94.466 143.191 94.635C142.934 94.796 142.806 95.042 142.806 95.372C142.806 95.629 142.883 95.838 143.037 95.999C143.191 96.16 143.433 96.241 143.763 96.241ZM150.708 96.879C150.591 96.945 150.44 97 150.257 97.044C150.074 97.088 149.879 97.11 149.674 97.11C149.395 97.11 149.157 97.07 148.959 96.989C148.768 96.908 148.611 96.802 148.486 96.67C148.361 96.531 148.27 96.377 148.211 96.208C148.16 96.032 148.134 95.852 148.134 95.669V92.116H147.452V91.291H148.134V90.092H149.102V91.291H150.763V92.116H149.102V95.548C149.102 95.79 149.161 95.966 149.278 96.076C149.403 96.186 149.619 96.241 149.927 96.241C150.213 96.241 150.473 96.16 150.708 95.999V96.879ZM154.285 97.11C153.897 97.11 153.534 97.044 153.196 96.912C152.859 96.78 152.566 96.589 152.316 96.34C152.074 96.083 151.884 95.772 151.744 95.405C151.605 95.038 151.535 94.617 151.535 94.14C151.535 93.671 151.605 93.253 151.744 92.886C151.884 92.512 152.074 92.2 152.316 91.951C152.566 91.702 152.859 91.511 153.196 91.379C153.534 91.247 153.897 91.181 154.285 91.181C154.681 91.181 155.048 91.247 155.385 91.379C155.723 91.511 156.012 91.702 156.254 91.951C156.504 92.2 156.698 92.512 156.837 92.886C156.984 93.253 157.057 93.671 157.057 94.14C157.057 94.617 156.984 95.038 156.837 95.405C156.698 95.772 156.504 96.083 156.254 96.34C156.012 96.589 155.723 96.78 155.385 96.912C155.048 97.044 154.681 97.11 154.285 97.11ZM154.285 96.241C154.542 96.241 154.777 96.201 154.989 96.12C155.209 96.032 155.4 95.904 155.561 95.735C155.723 95.559 155.847 95.339 155.935 95.075C156.023 94.811 156.067 94.499 156.067 94.14C156.067 93.781 156.023 93.469 155.935 93.205C155.847 92.941 155.723 92.725 155.561 92.556C155.4 92.38 155.209 92.252 154.989 92.171C154.777 92.083 154.542 92.039 154.285 92.039C154.029 92.039 153.794 92.083 153.581 92.171C153.369 92.252 153.182 92.38 153.02 92.556C152.866 92.725 152.745 92.941 152.657 93.205C152.569 93.469 152.525 93.781 152.525 94.14C152.525 94.499 152.569 94.811 152.657 95.075C152.745 95.339 152.866 95.559 153.02 95.735C153.182 95.904 153.369 96.032 153.581 96.12C153.794 96.201 154.029 96.241 154.285 96.241ZM161.064 92.259C160.654 92.296 160.28 92.402 159.942 92.578C159.612 92.747 159.367 93.011 159.205 93.37V97H158.237V91.291H159.084L159.183 92.534H159.205C159.367 92.197 159.598 91.903 159.898 91.654C160.206 91.397 160.595 91.24 161.064 91.181V92.259Z" fill="#262626"/>
<path d="M212 136H49C46.7909 136 45 137.791 45 140V166C45 168.209 46.7909 170 49 170H212C214.209 170 216 168.209 216 166V140C216 137.791 214.209 136 212 136Z" fill="white" stroke="#5282FF" stroke-width="2"/>
<path d="M79.9886 143.455C79.7906 143.455 79.6329 143.396 79.5156 143.279C79.3982 143.154 79.3396 143.004 79.3396 142.828C79.3396 142.652 79.3982 142.502 79.5156 142.377C79.6329 142.252 79.7906 142.19 79.9886 142.19C80.1792 142.19 80.3296 142.252 80.4396 142.377C80.5496 142.502 80.6046 142.652 80.6046 142.828C80.6046 143.004 80.5496 143.154 80.4396 143.279C80.3296 143.396 80.1792 143.455 79.9886 143.455ZM80.4616 144.291V150H79.4936V144.291H80.4616ZM85.3835 148.911C85.3175 149.043 85.2331 149.182 85.1305 149.329C85.0278 149.468 84.8995 149.597 84.7455 149.714C84.5915 149.831 84.4081 149.927 84.1955 150C83.9901 150.073 83.7481 150.11 83.4695 150.11C82.9561 150.11 82.5418 149.967 82.2265 149.681C81.9111 149.388 81.7535 148.97 81.7535 148.427C81.7535 147.804 81.9698 147.345 82.4025 147.052C82.8425 146.759 83.4658 146.612 84.2725 146.612H85.3395V146.139C85.3395 145.743 85.2368 145.461 85.0315 145.292C84.8261 145.123 84.4741 145.039 83.9755 145.039C83.6235 145.039 83.2898 145.098 82.9745 145.215C82.6591 145.325 82.3768 145.453 82.1275 145.6V144.731C82.3328 144.606 82.6078 144.485 82.9525 144.368C83.3045 144.243 83.6895 144.181 84.1075 144.181C84.8261 144.181 85.3725 144.331 85.7465 144.632C86.1205 144.925 86.3075 145.384 86.3075 146.007V149.076C86.3075 149.142 86.3075 149.219 86.3075 149.307C86.3148 149.388 86.3185 149.472 86.3185 149.56C86.3258 149.648 86.3331 149.732 86.3405 149.813C86.3478 149.886 86.3551 149.949 86.3625 150H85.4825C85.4605 149.897 85.4385 149.754 85.4165 149.571C85.4018 149.38 85.3945 149.215 85.3945 149.076L85.3835 148.911ZM83.6785 149.241C83.9791 149.241 84.2358 149.179 84.4485 149.054C84.6611 148.929 84.8335 148.786 84.9655 148.625C85.0975 148.456 85.1928 148.295 85.2515 148.141C85.3101 147.98 85.3395 147.866 85.3395 147.8V147.382H84.3715C83.7921 147.382 83.3705 147.466 83.1065 147.635C82.8498 147.796 82.7215 148.042 82.7215 148.372C82.7215 148.629 82.7985 148.838 82.9525 148.999C83.1065 149.16 83.3485 149.241 83.6785 149.241ZM88.7975 150H87.8295V144.291H88.6765L88.7755 145.314H88.7975C88.9515 144.991 89.1825 144.724 89.4905 144.511C89.7985 144.291 90.2018 144.181 90.7005 144.181C91.1405 144.181 91.4998 144.287 91.7785 144.5C92.0645 144.705 92.2552 145.017 92.3505 145.435C92.5118 145.046 92.7575 144.742 93.0875 144.522C93.4248 144.295 93.8318 144.181 94.3085 144.181C94.8365 144.181 95.2545 144.331 95.5625 144.632C95.8705 144.925 96.0245 145.38 96.0245 145.996V150H95.0455V146.117C95.0455 145.743 94.9538 145.472 94.7705 145.303C94.5872 145.127 94.3378 145.039 94.0225 145.039C93.8098 145.039 93.6228 145.072 93.4615 145.138C93.3002 145.197 93.1572 145.281 93.0325 145.391C92.9078 145.501 92.7942 145.629 92.6915 145.776C92.5888 145.923 92.4935 146.077 92.4055 146.238V150H91.4375V146.007C91.4375 145.64 91.3458 145.387 91.1625 145.248C90.9792 145.109 90.7298 145.039 90.4145 145.039C90.2092 145.039 90.0258 145.065 89.8645 145.116C89.7032 145.167 89.5565 145.241 89.4245 145.336C89.2998 145.431 89.1862 145.549 89.0835 145.688C88.9808 145.82 88.8855 145.967 88.7975 146.128V150ZM98.0684 150.066C97.8558 150.066 97.6834 150 97.5514 149.868C97.4194 149.729 97.3534 149.564 97.3534 149.373C97.3534 149.168 97.4194 148.999 97.5514 148.867C97.6834 148.735 97.8558 148.669 98.0684 148.669C98.2738 148.669 98.4424 148.735 98.5744 148.867C98.7064 148.999 98.7724 149.168 98.7724 149.373C98.7724 149.564 98.7064 149.729 98.5744 149.868C98.4424 150 98.2738 150.066 98.0684 150.066ZM101.998 150.11C101.698 150.11 101.43 150.084 101.195 150.033C100.968 149.989 100.766 149.934 100.59 149.868C100.422 149.795 100.279 149.721 100.161 149.648C100.044 149.567 99.9523 149.498 99.8863 149.439V148.57C99.9596 148.643 100.059 148.724 100.183 148.812C100.308 148.893 100.458 148.97 100.634 149.043C100.81 149.116 101.008 149.179 101.228 149.23C101.456 149.274 101.709 149.296 101.987 149.296C102.398 149.296 102.724 149.23 102.966 149.098C103.208 148.966 103.329 148.742 103.329 148.427C103.329 148.258 103.289 148.123 103.208 148.02C103.135 147.917 103.032 147.837 102.9 147.778C102.768 147.712 102.614 147.661 102.438 147.624C102.27 147.587 102.09 147.551 101.899 147.514C101.657 147.463 101.419 147.408 101.184 147.349C100.95 147.283 100.737 147.191 100.546 147.074C100.356 146.949 100.202 146.792 100.084 146.601C99.9669 146.403 99.9083 146.146 99.9083 145.831C99.9083 145.318 100.106 144.914 100.502 144.621C100.906 144.328 101.467 144.181 102.185 144.181C102.589 144.181 102.944 144.221 103.252 144.302C103.568 144.383 103.81 144.471 103.978 144.566V145.435C103.788 145.31 103.549 145.208 103.263 145.127C102.985 145.039 102.636 144.995 102.218 144.995C101.786 144.995 101.452 145.054 101.217 145.171C100.99 145.288 100.876 145.501 100.876 145.809C100.876 145.963 100.909 146.088 100.975 146.183C101.041 146.271 101.129 146.344 101.239 146.403C101.357 146.454 101.489 146.495 101.635 146.524C101.782 146.553 101.936 146.586 102.097 146.623C102.347 146.674 102.603 146.729 102.867 146.788C103.131 146.847 103.366 146.938 103.571 147.063C103.784 147.188 103.956 147.356 104.088 147.569C104.228 147.774 104.297 148.053 104.297 148.405C104.297 148.735 104.231 149.01 104.099 149.23C103.967 149.45 103.791 149.626 103.571 149.758C103.359 149.883 103.113 149.971 102.834 150.022C102.563 150.081 102.284 150.11 101.998 150.11ZM110.033 149.516C109.952 149.575 109.853 149.637 109.736 149.703C109.618 149.769 109.475 149.835 109.307 149.901C109.138 149.96 108.947 150.007 108.735 150.044C108.522 150.088 108.284 150.11 108.02 150.11C107.059 150.11 106.329 149.85 105.831 149.329C105.332 148.808 105.083 148.079 105.083 147.14C105.083 146.678 105.149 146.264 105.281 145.897C105.42 145.53 105.611 145.222 105.853 144.973C106.095 144.716 106.381 144.522 106.711 144.39C107.041 144.251 107.4 144.181 107.789 144.181C108.199 144.181 108.566 144.251 108.889 144.39C109.211 144.529 109.475 144.735 109.681 145.006C109.893 145.277 110.036 145.615 110.11 146.018C110.19 146.414 110.19 146.876 110.11 147.404H106.084C106.12 148.02 106.304 148.482 106.634 148.79C106.964 149.091 107.455 149.241 108.108 149.241C108.548 149.241 108.925 149.179 109.241 149.054C109.556 148.929 109.82 148.794 110.033 148.647V149.516ZM107.767 145.039C107.349 145.039 106.989 145.167 106.689 145.424C106.388 145.681 106.197 146.069 106.117 146.59H109.186C109.215 146.062 109.094 145.673 108.823 145.424C108.551 145.167 108.199 145.039 107.767 145.039ZM114.15 145.259C113.739 145.296 113.365 145.402 113.028 145.578C112.698 145.747 112.452 146.011 112.291 146.37V150H111.323V144.291H112.17L112.269 145.534H112.291C112.452 145.197 112.683 144.903 112.984 144.654C113.292 144.397 113.68 144.24 114.15 144.181V145.259ZM118.329 150H116.767L114.809 144.291H115.854L117.592 149.483L119.319 144.291H120.287L118.329 150ZM121.679 143.455C121.481 143.455 121.323 143.396 121.206 143.279C121.089 143.154 121.03 143.004 121.03 142.828C121.03 142.652 121.089 142.502 121.206 142.377C121.323 142.252 121.481 142.19 121.679 142.19C121.87 142.19 122.02 142.252 122.13 142.377C122.24 142.502 122.295 142.652 122.295 142.828C122.295 143.004 122.24 143.154 122.13 143.279C122.02 143.396 121.87 143.455 121.679 143.455ZM122.152 144.291V150H121.184V144.291H122.152ZM126.194 150.11C125.754 150.11 125.354 150.044 124.995 149.912C124.643 149.773 124.342 149.578 124.093 149.329C123.844 149.072 123.653 148.761 123.521 148.394C123.389 148.027 123.323 147.609 123.323 147.14C123.323 146.678 123.389 146.264 123.521 145.897C123.66 145.53 123.855 145.222 124.104 144.973C124.353 144.716 124.658 144.522 125.017 144.39C125.376 144.251 125.783 144.181 126.238 144.181C126.59 144.181 126.913 144.221 127.206 144.302C127.499 144.375 127.741 144.485 127.932 144.632V145.501C127.697 145.347 127.433 145.233 127.14 145.16C126.854 145.079 126.557 145.039 126.249 145.039C125.582 145.039 125.09 145.211 124.775 145.556C124.467 145.901 124.313 146.429 124.313 147.14C124.313 147.851 124.463 148.379 124.764 148.724C125.065 149.069 125.541 149.241 126.194 149.241C126.539 149.241 126.854 149.201 127.14 149.12C127.433 149.032 127.697 148.922 127.932 148.79V149.659C127.727 149.784 127.477 149.89 127.184 149.978C126.898 150.066 126.568 150.11 126.194 150.11ZM133.655 149.516C133.574 149.575 133.475 149.637 133.358 149.703C133.24 149.769 133.097 149.835 132.929 149.901C132.76 149.96 132.569 150.007 132.357 150.044C132.144 150.088 131.906 150.11 131.642 150.11C130.681 150.11 129.951 149.85 129.453 149.329C128.954 148.808 128.705 148.079 128.705 147.14C128.705 146.678 128.771 146.264 128.903 145.897C129.042 145.53 129.233 145.222 129.475 144.973C129.717 144.716 130.003 144.522 130.333 144.39C130.663 144.251 131.022 144.181 131.411 144.181C131.821 144.181 132.188 144.251 132.511 144.39C132.833 144.529 133.097 144.735 133.303 145.006C133.515 145.277 133.658 145.615 133.732 146.018C133.812 146.414 133.812 146.876 133.732 147.404H129.706C129.742 148.02 129.926 148.482 130.256 148.79C130.586 149.091 131.077 149.241 131.73 149.241C132.17 149.241 132.547 149.179 132.863 149.054C133.178 148.929 133.442 148.794 133.655 148.647V149.516ZM131.389 145.039C130.971 145.039 130.611 145.167 130.311 145.424C130.01 145.681 129.819 146.069 129.739 146.59H132.808C132.837 146.062 132.716 145.673 132.445 145.424C132.173 145.167 131.821 145.039 131.389 145.039ZM137.178 142.113H138.718L141.545 150H140.445L139.631 147.745H136.144L135.341 150H134.373L137.178 142.113ZM139.301 146.81L137.893 142.883L136.485 146.81H139.301ZM144.918 150.11C144.478 150.11 144.078 150.044 143.719 149.912C143.367 149.773 143.066 149.578 142.817 149.329C142.567 149.072 142.377 148.761 142.245 148.394C142.113 148.027 142.047 147.609 142.047 147.14C142.047 146.678 142.113 146.264 142.245 145.897C142.384 145.53 142.578 145.222 142.828 144.973C143.077 144.716 143.381 144.522 143.741 144.39C144.1 144.251 144.507 144.181 144.962 144.181C145.314 144.181 145.636 144.221 145.93 144.302C146.223 144.375 146.465 144.485 146.656 144.632V145.501C146.421 145.347 146.157 145.233 145.864 145.16C145.578 145.079 145.281 145.039 144.973 145.039C144.305 145.039 143.814 145.211 143.499 145.556C143.191 145.901 143.037 146.429 143.037 147.14C143.037 147.851 143.187 148.379 143.488 148.724C143.788 149.069 144.265 149.241 144.918 149.241C145.262 149.241 145.578 149.201 145.864 149.12C146.157 149.032 146.421 148.922 146.656 148.79V149.659C146.45 149.784 146.201 149.89 145.908 149.978C145.622 150.066 145.292 150.11 144.918 150.11ZM150.299 150.11C149.859 150.11 149.46 150.044 149.1 149.912C148.748 149.773 148.448 149.578 148.198 149.329C147.949 149.072 147.758 148.761 147.626 148.394C147.494 148.027 147.428 147.609 147.428 147.14C147.428 146.678 147.494 146.264 147.626 145.897C147.766 145.53 147.96 145.222 148.209 144.973C148.459 144.716 148.763 144.522 149.122 144.39C149.482 144.251 149.889 144.181 150.343 144.181C150.695 144.181 151.018 144.221 151.311 144.302C151.605 144.375 151.847 144.485 152.037 144.632V145.501C151.803 145.347 151.539 145.233 151.245 145.16C150.959 145.079 150.662 145.039 150.354 145.039C149.687 145.039 149.196 145.211 148.88 145.556C148.572 145.901 148.418 146.429 148.418 147.14C148.418 147.851 148.569 148.379 148.869 148.724C149.17 149.069 149.647 149.241 150.299 149.241C150.644 149.241 150.959 149.201 151.245 149.12C151.539 149.032 151.803 148.922 152.037 148.79V149.659C151.832 149.784 151.583 149.89 151.289 149.978C151.003 150.066 150.673 150.11 150.299 150.11ZM155.56 150.11C155.172 150.11 154.809 150.044 154.471 149.912C154.134 149.78 153.841 149.589 153.591 149.34C153.349 149.083 153.159 148.772 153.019 148.405C152.88 148.038 152.81 147.617 152.81 147.14C152.81 146.671 152.88 146.253 153.019 145.886C153.159 145.512 153.349 145.2 153.591 144.951C153.841 144.702 154.134 144.511 154.471 144.379C154.809 144.247 155.172 144.181 155.56 144.181C155.956 144.181 156.323 144.247 156.66 144.379C156.998 144.511 157.287 144.702 157.529 144.951C157.779 145.2 157.973 145.512 158.112 145.886C158.259 146.253 158.332 146.671 158.332 147.14C158.332 147.617 158.259 148.038 158.112 148.405C157.973 148.772 157.779 149.083 157.529 149.34C157.287 149.589 156.998 149.78 156.66 149.912C156.323 150.044 155.956 150.11 155.56 150.11ZM155.56 149.241C155.817 149.241 156.052 149.201 156.264 149.12C156.484 149.032 156.675 148.904 156.836 148.735C156.998 148.559 157.122 148.339 157.21 148.075C157.298 147.811 157.342 147.499 157.342 147.14C157.342 146.781 157.298 146.469 157.21 146.205C157.122 145.941 156.998 145.725 156.836 145.556C156.675 145.38 156.484 145.252 156.264 145.171C156.052 145.083 155.817 145.039 155.56 145.039C155.304 145.039 155.069 145.083 154.856 145.171C154.644 145.252 154.457 145.38 154.295 145.556C154.141 145.725 154.02 145.941 153.932 146.205C153.844 146.469 153.8 146.781 153.8 147.14C153.8 147.499 153.844 147.811 153.932 148.075C154.02 148.339 154.141 148.559 154.295 148.735C154.457 148.904 154.644 149.032 154.856 149.12C155.069 149.201 155.304 149.241 155.56 149.241ZM163.175 148.977C163.021 149.3 162.783 149.571 162.46 149.791C162.145 150.004 161.731 150.11 161.217 150.11C160.689 150.11 160.26 149.963 159.93 149.67C159.608 149.369 159.446 148.907 159.446 148.284V144.291H160.425V148.284C160.425 148.475 160.451 148.632 160.502 148.757C160.561 148.874 160.638 148.97 160.733 149.043C160.829 149.116 160.939 149.168 161.063 149.197C161.195 149.226 161.338 149.241 161.492 149.241C161.918 149.241 162.259 149.146 162.515 148.955C162.772 148.764 162.992 148.504 163.175 148.174V144.291H164.143V150H163.285L163.197 148.977H163.175ZM168.438 145.039C167.998 145.039 167.639 145.142 167.36 145.347C167.089 145.545 166.869 145.802 166.7 146.117V150H165.732V144.291H166.645L166.678 145.314H166.7C166.854 144.984 167.096 144.713 167.426 144.5C167.756 144.287 168.174 144.181 168.68 144.181C169.245 144.181 169.692 144.331 170.022 144.632C170.359 144.925 170.528 145.38 170.528 145.996V150H169.56V146.095C169.56 145.699 169.461 145.424 169.263 145.27C169.065 145.116 168.79 145.039 168.438 145.039ZM174.853 149.879C174.736 149.945 174.585 150 174.402 150.044C174.219 150.088 174.024 150.11 173.819 150.11C173.54 150.11 173.302 150.07 173.104 149.989C172.913 149.908 172.756 149.802 172.631 149.67C172.506 149.531 172.415 149.377 172.356 149.208C172.305 149.032 172.279 148.852 172.279 148.669V145.116H171.597V144.291H172.279V143.092H173.247V144.291H174.908V145.116H173.247V148.548C173.247 148.79 173.306 148.966 173.423 149.076C173.548 149.186 173.764 149.241 174.072 149.241C174.358 149.241 174.618 149.16 174.853 148.999V149.879ZM177.967 150.11C177.666 150.11 177.399 150.084 177.164 150.033C176.937 149.989 176.735 149.934 176.559 149.868C176.39 149.795 176.247 149.721 176.13 149.648C176.013 149.567 175.921 149.498 175.855 149.439V148.57C175.928 148.643 176.027 148.724 176.152 148.812C176.277 148.893 176.427 148.97 176.603 149.043C176.779 149.116 176.977 149.179 177.197 149.23C177.424 149.274 177.677 149.296 177.956 149.296C178.367 149.296 178.693 149.23 178.935 149.098C179.177 148.966 179.298 148.742 179.298 148.427C179.298 148.258 179.258 148.123 179.177 148.02C179.104 147.917 179.001 147.837 178.869 147.778C178.737 147.712 178.583 147.661 178.407 147.624C178.238 147.587 178.059 147.551 177.868 147.514C177.626 147.463 177.388 147.408 177.153 147.349C176.918 147.283 176.706 147.191 176.515 147.074C176.324 146.949 176.17 146.792 176.053 146.601C175.936 146.403 175.877 146.146 175.877 145.831C175.877 145.318 176.075 144.914 176.471 144.621C176.874 144.328 177.435 144.181 178.154 144.181C178.557 144.181 178.913 144.221 179.221 144.302C179.536 144.383 179.778 144.471 179.947 144.566V145.435C179.756 145.31 179.518 145.208 179.232 145.127C178.953 145.039 178.605 144.995 178.187 144.995C177.754 144.995 177.421 145.054 177.186 145.171C176.959 145.288 176.845 145.501 176.845 145.809C176.845 145.963 176.878 146.088 176.944 146.183C177.01 146.271 177.098 146.344 177.208 146.403C177.325 146.454 177.457 146.495 177.604 146.524C177.751 146.553 177.905 146.586 178.066 146.623C178.315 146.674 178.572 146.729 178.836 146.788C179.1 146.847 179.335 146.938 179.54 147.063C179.753 147.188 179.925 147.356 180.057 147.569C180.196 147.774 180.266 148.053 180.266 148.405C180.266 148.735 180.2 149.01 180.068 149.23C179.936 149.45 179.76 149.626 179.54 149.758C179.327 149.883 179.082 149.971 178.803 150.022C178.532 150.081 178.253 150.11 177.967 150.11ZM181.987 150.066C181.774 150.066 181.602 150 181.47 149.868C181.338 149.729 181.272 149.564 181.272 149.373C181.272 149.168 181.338 148.999 181.47 148.867C181.602 148.735 181.774 148.669 181.987 148.669C182.192 148.669 182.361 148.735 182.493 148.867C182.625 148.999 182.691 149.168 182.691 149.373C182.691 149.564 182.625 149.729 182.493 149.868C182.361 150 182.192 150.066 181.987 150.066ZM124.767 161.977C124.613 162.3 124.374 162.571 124.052 162.791C123.736 163.004 123.322 163.11 122.809 163.11C122.281 163.11 121.852 162.963 121.522 162.67C121.199 162.369 121.038 161.907 121.038 161.284V157.291H122.017V161.284C122.017 161.475 122.042 161.632 122.094 161.757C122.152 161.874 122.229 161.97 122.325 162.043C122.42 162.116 122.53 162.168 122.655 162.197C122.787 162.226 122.93 162.241 123.084 162.241C123.509 162.241 123.85 162.146 124.107 161.955C124.363 161.764 124.583 161.504 124.767 161.174V157.291H125.735V163H124.877L124.789 161.977H124.767ZM129.149 163.11C128.849 163.11 128.581 163.084 128.346 163.033C128.119 162.989 127.917 162.934 127.741 162.868C127.573 162.795 127.43 162.721 127.312 162.648C127.195 162.567 127.103 162.498 127.037 162.439V161.57C127.111 161.643 127.21 161.724 127.334 161.812C127.459 161.893 127.609 161.97 127.785 162.043C127.961 162.116 128.159 162.179 128.379 162.23C128.607 162.274 128.86 162.296 129.138 162.296C129.549 162.296 129.875 162.23 130.117 162.098C130.359 161.966 130.48 161.742 130.48 161.427C130.48 161.258 130.44 161.123 130.359 161.02C130.286 160.917 130.183 160.837 130.051 160.778C129.919 160.712 129.765 160.661 129.589 160.624C129.421 160.587 129.241 160.551 129.05 160.514C128.808 160.463 128.57 160.408 128.335 160.349C128.101 160.283 127.888 160.191 127.697 160.074C127.507 159.949 127.353 159.792 127.235 159.601C127.118 159.403 127.059 159.146 127.059 158.831C127.059 158.318 127.257 157.914 127.653 157.621C128.057 157.328 128.618 157.181 129.336 157.181C129.74 157.181 130.095 157.221 130.403 157.302C130.719 157.383 130.961 157.471 131.129 157.566V158.435C130.939 158.31 130.7 158.208 130.414 158.127C130.136 158.039 129.787 157.995 129.369 157.995C128.937 157.995 128.603 158.054 128.368 158.171C128.141 158.288 128.027 158.501 128.027 158.809C128.027 158.963 128.06 159.088 128.126 159.183C128.192 159.271 128.28 159.344 128.39 159.403C128.508 159.454 128.64 159.495 128.786 159.524C128.933 159.553 129.087 159.586 129.248 159.623C129.498 159.674 129.754 159.729 130.018 159.788C130.282 159.847 130.517 159.938 130.722 160.063C130.935 160.188 131.107 160.356 131.239 160.569C131.379 160.774 131.448 161.053 131.448 161.405C131.448 161.735 131.382 162.01 131.25 162.23C131.118 162.45 130.942 162.626 130.722 162.758C130.51 162.883 130.264 162.971 129.985 163.022C129.714 163.081 129.435 163.11 129.149 163.11ZM137.184 162.516C137.103 162.575 137.004 162.637 136.887 162.703C136.769 162.769 136.626 162.835 136.458 162.901C136.289 162.96 136.098 163.007 135.886 163.044C135.673 163.088 135.435 163.11 135.171 163.11C134.21 163.11 133.48 162.85 132.982 162.329C132.483 161.808 132.234 161.079 132.234 160.14C132.234 159.678 132.3 159.264 132.432 158.897C132.571 158.53 132.762 158.222 133.004 157.973C133.246 157.716 133.532 157.522 133.862 157.39C134.192 157.251 134.551 157.181 134.94 157.181C135.35 157.181 135.717 157.251 136.04 157.39C136.362 157.529 136.626 157.735 136.832 158.006C137.044 158.277 137.187 158.615 137.261 159.018C137.341 159.414 137.341 159.876 137.261 160.404H133.235C133.271 161.02 133.455 161.482 133.785 161.79C134.115 162.091 134.606 162.241 135.259 162.241C135.699 162.241 136.076 162.179 136.392 162.054C136.707 161.929 136.971 161.794 137.184 161.647V162.516ZM134.918 158.039C134.5 158.039 134.14 158.167 133.84 158.424C133.539 158.681 133.348 159.069 133.268 159.59H136.337C136.366 159.062 136.245 158.673 135.974 158.424C135.702 158.167 135.35 158.039 134.918 158.039ZM141.301 158.259C140.89 158.296 140.516 158.402 140.179 158.578C139.849 158.747 139.603 159.011 139.442 159.37V163H138.474V157.291H139.321L139.42 158.534H139.442C139.603 158.197 139.834 157.903 140.135 157.654C140.443 157.397 140.831 157.24 141.301 157.181V158.259Z" fill="#262626"/>
<path d="M421 202H258C255.791 202 254 203.791 254 206V232C254 234.209 255.791 236 258 236H421C423.209 236 425 234.209 425 232V206C425 203.791 423.209 202 421 202Z" fill="white" stroke="#5282FF" stroke-width="2"/>
<path d="M326.395 221.911C326.329 222.043 326.245 222.182 326.142 222.329C326.04 222.468 325.911 222.597 325.757 222.714C325.603 222.831 325.42 222.927 325.207 223C325.002 223.073 324.76 223.11 324.481 223.11C323.968 223.11 323.554 222.967 323.238 222.681C322.923 222.388 322.765 221.97 322.765 221.427C322.765 220.804 322.982 220.345 323.414 220.052C323.854 219.759 324.478 219.612 325.284 219.612H326.351V219.139C326.351 218.743 326.249 218.461 326.043 218.292C325.838 218.123 325.486 218.039 324.987 218.039C324.635 218.039 324.302 218.098 323.986 218.215C323.671 218.325 323.389 218.453 323.139 218.6V217.731C323.345 217.606 323.62 217.485 323.964 217.368C324.316 217.243 324.701 217.181 325.119 217.181C325.838 217.181 326.384 217.331 326.758 217.632C327.132 217.925 327.319 218.384 327.319 219.007V222.076C327.319 222.142 327.319 222.219 327.319 222.307C327.327 222.388 327.33 222.472 327.33 222.56C327.338 222.648 327.345 222.732 327.352 222.813C327.36 222.886 327.367 222.949 327.374 223H326.494C326.472 222.897 326.45 222.754 326.428 222.571C326.414 222.38 326.406 222.215 326.406 222.076L326.395 221.911ZM324.69 222.241C324.991 222.241 325.248 222.179 325.46 222.054C325.673 221.929 325.845 221.786 325.977 221.625C326.109 221.456 326.205 221.295 326.263 221.141C326.322 220.98 326.351 220.866 326.351 220.8V220.382H325.383C324.804 220.382 324.382 220.466 324.118 220.635C323.862 220.796 323.733 221.042 323.733 221.372C323.733 221.629 323.81 221.838 323.964 221.999C324.118 222.16 324.36 222.241 324.69 222.241ZM332.504 221.977C332.35 222.3 332.112 222.571 331.789 222.791C331.474 223.004 331.06 223.11 330.546 223.11C330.018 223.11 329.589 222.963 329.259 222.67C328.937 222.369 328.775 221.907 328.775 221.284V217.291H329.754V221.284C329.754 221.475 329.78 221.632 329.831 221.757C329.89 221.874 329.967 221.97 330.062 222.043C330.158 222.116 330.268 222.168 330.392 222.197C330.524 222.226 330.667 222.241 330.821 222.241C331.247 222.241 331.588 222.146 331.844 221.955C332.101 221.764 332.321 221.504 332.504 221.174V217.291H333.472V223H332.614L332.526 221.977H332.504ZM339.153 221.878C338.977 222.252 338.731 222.553 338.416 222.78C338.101 223 337.701 223.11 337.217 223.11C336.872 223.11 336.546 223.051 336.238 222.934C335.93 222.809 335.659 222.626 335.424 222.384C335.189 222.135 335.002 221.827 334.863 221.46C334.724 221.086 334.654 220.646 334.654 220.14C334.654 219.641 334.724 219.209 334.863 218.842C335.002 218.468 335.189 218.16 335.424 217.918C335.659 217.669 335.93 217.485 336.238 217.368C336.553 217.243 336.883 217.181 337.228 217.181C337.661 217.181 338.035 217.273 338.35 217.456C338.665 217.632 338.918 217.885 339.109 218.215V215.113H340.077V223H339.23L339.153 221.878ZM337.36 222.241C337.609 222.241 337.84 222.201 338.053 222.12C338.266 222.032 338.449 221.9 338.603 221.724C338.764 221.548 338.889 221.328 338.977 221.064C339.072 220.8 339.12 220.492 339.12 220.14C339.12 219.788 339.072 219.48 338.977 219.216C338.889 218.952 338.764 218.732 338.603 218.556C338.449 218.38 338.266 218.252 338.053 218.171C337.84 218.083 337.609 218.039 337.36 218.039C336.854 218.039 336.44 218.219 336.117 218.578C335.802 218.93 335.644 219.451 335.644 220.14C335.644 220.837 335.805 221.361 336.128 221.713C336.451 222.065 336.861 222.241 337.36 222.241ZM342.152 216.455C341.954 216.455 341.796 216.396 341.679 216.279C341.561 216.154 341.503 216.004 341.503 215.828C341.503 215.652 341.561 215.502 341.679 215.377C341.796 215.252 341.954 215.19 342.152 215.19C342.342 215.19 342.493 215.252 342.603 215.377C342.713 215.502 342.768 215.652 342.768 215.828C342.768 216.004 342.713 216.154 342.603 216.279C342.493 216.396 342.342 216.455 342.152 216.455ZM342.625 217.291V223H341.657V217.291H342.625ZM346.997 222.879C346.879 222.945 346.729 223 346.546 223.044C346.362 223.088 346.168 223.11 345.963 223.11C345.684 223.11 345.446 223.07 345.248 222.989C345.057 222.908 344.899 222.802 344.775 222.67C344.65 222.531 344.558 222.377 344.5 222.208C344.448 222.032 344.423 221.852 344.423 221.669V218.116H343.741V217.291H344.423V216.092H345.391V217.291H347.052V218.116H345.391V221.548C345.391 221.79 345.449 221.966 345.567 222.076C345.691 222.186 345.908 222.241 346.216 222.241C346.502 222.241 346.762 222.16 346.997 221.999V222.879ZM350.574 223.11C350.185 223.11 349.822 223.044 349.485 222.912C349.148 222.78 348.854 222.589 348.605 222.34C348.363 222.083 348.172 221.772 348.033 221.405C347.894 221.038 347.824 220.617 347.824 220.14C347.824 219.671 347.894 219.253 348.033 218.886C348.172 218.512 348.363 218.2 348.605 217.951C348.854 217.702 349.148 217.511 349.485 217.379C349.822 217.247 350.185 217.181 350.574 217.181C350.97 217.181 351.337 217.247 351.674 217.379C352.011 217.511 352.301 217.702 352.543 217.951C352.792 218.2 352.987 218.512 353.126 218.886C353.273 219.253 353.346 219.671 353.346 220.14C353.346 220.617 353.273 221.038 353.126 221.405C352.987 221.772 352.792 222.083 352.543 222.34C352.301 222.589 352.011 222.78 351.674 222.912C351.337 223.044 350.97 223.11 350.574 223.11ZM350.574 222.241C350.831 222.241 351.065 222.201 351.278 222.12C351.498 222.032 351.689 221.904 351.85 221.735C352.011 221.559 352.136 221.339 352.224 221.075C352.312 220.811 352.356 220.499 352.356 220.14C352.356 219.781 352.312 219.469 352.224 219.205C352.136 218.941 352.011 218.725 351.85 218.556C351.689 218.38 351.498 218.252 351.278 218.171C351.065 218.083 350.831 218.039 350.574 218.039C350.317 218.039 350.083 218.083 349.87 218.171C349.657 218.252 349.47 218.38 349.309 218.556C349.155 218.725 349.034 218.941 348.946 219.205C348.858 219.469 348.814 219.781 348.814 220.14C348.814 220.499 348.858 220.811 348.946 221.075C349.034 221.339 349.155 221.559 349.309 221.735C349.47 221.904 349.657 222.032 349.87 222.12C350.083 222.201 350.317 222.241 350.574 222.241ZM357.353 218.259C356.942 218.296 356.568 218.402 356.231 218.578C355.901 218.747 355.655 219.011 355.494 219.37V223H354.526V217.291H355.373L355.472 218.534H355.494C355.655 218.197 355.886 217.903 356.187 217.654C356.495 217.397 356.884 217.24 357.353 217.181V218.259Z" fill="#262626"/>
<path d="M212 202H49C46.7909 202 45 203.791 45 206V232C45 234.209 46.7909 236 49 236H212C214.209 236 216 234.209 216 232V206C216 203.791 214.209 202 212 202Z" fill="white" stroke="#5282FF" stroke-width="2"/>
<path d="M70.6546 218.259C70.244 218.296 69.87 218.402 69.5326 218.578C69.2026 218.747 68.957 219.011 68.7956 219.37V223H67.8276V217.291H68.6746L68.7736 218.534H68.7956C68.957 218.197 69.188 217.903 69.4886 217.654C69.7966 217.397 70.1853 217.24 70.6546 217.181V218.259ZM76.2163 222.516C76.1357 222.575 76.0367 222.637 75.9193 222.703C75.802 222.769 75.659 222.835 75.4903 222.901C75.3217 222.96 75.131 223.007 74.9183 223.044C74.7057 223.088 74.4673 223.11 74.2033 223.11C73.2427 223.11 72.513 222.85 72.0143 222.329C71.5157 221.808 71.2663 221.079 71.2663 220.14C71.2663 219.678 71.3323 219.264 71.4643 218.897C71.6037 218.53 71.7943 218.222 72.0363 217.973C72.2783 217.716 72.5643 217.522 72.8943 217.39C73.2243 217.251 73.5837 217.181 73.9723 217.181C74.383 217.181 74.7497 217.251 75.0723 217.39C75.395 217.529 75.659 217.735 75.8643 218.006C76.077 218.277 76.22 218.615 76.2933 219.018C76.374 219.414 76.374 219.876 76.2933 220.404H72.2673C72.304 221.02 72.4873 221.482 72.8173 221.79C73.1473 222.091 73.6387 222.241 74.2913 222.241C74.7313 222.241 75.109 222.179 75.4243 222.054C75.7397 221.929 76.0037 221.794 76.2163 221.647V222.516ZM73.9503 218.039C73.5323 218.039 73.173 218.167 72.8723 218.424C72.5717 218.681 72.381 219.069 72.3003 219.59H75.3693C75.3987 219.062 75.2777 218.673 75.0063 218.424C74.735 218.167 74.383 218.039 73.9503 218.039ZM79.3324 223.11C79.0317 223.11 78.764 223.084 78.5294 223.033C78.302 222.989 78.1004 222.934 77.9244 222.868C77.7557 222.795 77.6127 222.721 77.4954 222.648C77.378 222.567 77.2864 222.498 77.2204 222.439V221.57C77.2937 221.643 77.3927 221.724 77.5174 221.812C77.642 221.893 77.7924 221.97 77.9684 222.043C78.1444 222.116 78.3424 222.179 78.5624 222.23C78.7897 222.274 79.0427 222.296 79.3214 222.296C79.732 222.296 80.0584 222.23 80.3004 222.098C80.5424 221.966 80.6634 221.742 80.6634 221.427C80.6634 221.258 80.623 221.123 80.5424 221.02C80.469 220.917 80.3664 220.837 80.2344 220.778C80.1024 220.712 79.9484 220.661 79.7724 220.624C79.6037 220.587 79.424 220.551 79.2334 220.514C78.9914 220.463 78.753 220.408 78.5184 220.349C78.2837 220.283 78.071 220.191 77.8804 220.074C77.6897 219.949 77.5357 219.792 77.4184 219.601C77.301 219.403 77.2424 219.146 77.2424 218.831C77.2424 218.318 77.4404 217.914 77.8364 217.621C78.2397 217.328 78.8007 217.181 79.5194 217.181C79.9227 217.181 80.2784 217.221 80.5864 217.302C80.9017 217.383 81.1437 217.471 81.3124 217.566V218.435C81.1217 218.31 80.8834 218.208 80.5974 218.127C80.3187 218.039 79.9704 217.995 79.5524 217.995C79.1197 217.995 78.786 218.054 78.5514 218.171C78.324 218.288 78.2104 218.501 78.2104 218.809C78.2104 218.963 78.2434 219.088 78.3094 219.183C78.3754 219.271 78.4634 219.344 78.5734 219.403C78.6907 219.454 78.8227 219.495 78.9694 219.524C79.116 219.553 79.27 219.586 79.4314 219.623C79.6807 219.674 79.9374 219.729 80.2014 219.788C80.4654 219.847 80.7 219.938 80.9054 220.063C81.118 220.188 81.2904 220.356 81.4224 220.569C81.5617 220.774 81.6314 221.053 81.6314 221.405C81.6314 221.735 81.5654 222.01 81.4334 222.23C81.3014 222.45 81.1254 222.626 80.9054 222.758C80.6927 222.883 80.447 222.971 80.1684 223.022C79.897 223.081 79.6184 223.11 79.3324 223.11ZM85.1667 223.11C84.7781 223.11 84.4151 223.044 84.0777 222.912C83.7404 222.78 83.4471 222.589 83.1977 222.34C82.9557 222.083 82.7651 221.772 82.6257 221.405C82.4864 221.038 82.4167 220.617 82.4167 220.14C82.4167 219.671 82.4864 219.253 82.6257 218.886C82.7651 218.512 82.9557 218.2 83.1977 217.951C83.4471 217.702 83.7404 217.511 84.0777 217.379C84.4151 217.247 84.7781 217.181 85.1667 217.181C85.5627 217.181 85.9294 217.247 86.2667 217.379C86.6041 217.511 86.8937 217.702 87.1357 217.951C87.3851 218.2 87.5794 218.512 87.7187 218.886C87.8654 219.253 87.9387 219.671 87.9387 220.14C87.9387 220.617 87.8654 221.038 87.7187 221.405C87.5794 221.772 87.3851 222.083 87.1357 222.34C86.8937 222.589 86.6041 222.78 86.2667 222.912C85.9294 223.044 85.5627 223.11 85.1667 223.11ZM85.1667 222.241C85.4234 222.241 85.6581 222.201 85.8707 222.12C86.0907 222.032 86.2814 221.904 86.4427 221.735C86.6041 221.559 86.7287 221.339 86.8167 221.075C86.9047 220.811 86.9487 220.499 86.9487 220.14C86.9487 219.781 86.9047 219.469 86.8167 219.205C86.7287 218.941 86.6041 218.725 86.4427 218.556C86.2814 218.38 86.0907 218.252 85.8707 218.171C85.6581 218.083 85.4234 218.039 85.1667 218.039C84.9101 218.039 84.6754 218.083 84.4627 218.171C84.2501 218.252 84.0631 218.38 83.9017 218.556C83.7477 218.725 83.6267 218.941 83.5387 219.205C83.4507 219.469 83.4067 219.781 83.4067 220.14C83.4067 220.499 83.4507 220.811 83.5387 221.075C83.6267 221.339 83.7477 221.559 83.9017 221.735C84.0631 221.904 84.2501 222.032 84.4627 222.12C84.6754 222.201 84.9101 222.241 85.1667 222.241ZM92.7817 221.977C92.6277 222.3 92.3893 222.571 92.0667 222.791C91.7513 223.004 91.337 223.11 90.8237 223.11C90.2957 223.11 89.8667 222.963 89.5367 222.67C89.214 222.369 89.0527 221.907 89.0527 221.284V217.291H90.0317V221.284C90.0317 221.475 90.0573 221.632 90.1087 221.757C90.1673 221.874 90.2443 221.97 90.3397 222.043C90.435 222.116 90.545 222.168 90.6697 222.197C90.8017 222.226 90.9447 222.241 91.0987 222.241C91.524 222.241 91.865 222.146 92.1217 221.955C92.3783 221.764 92.5983 221.504 92.7817 221.174V217.291H93.7497V223H92.8917L92.8037 221.977H92.7817ZM98.1654 218.259C97.7547 218.296 97.3807 218.402 97.0434 218.578C96.7134 218.747 96.4677 219.011 96.3064 219.37V223H95.3384V217.291H96.1854L96.2844 218.534H96.3064C96.4677 218.197 96.6987 217.903 96.9994 217.654C97.3074 217.397 97.6961 217.24 98.1654 217.181V218.259ZM101.648 223.11C101.208 223.11 100.808 223.044 100.449 222.912C100.097 222.773 99.7964 222.578 99.5471 222.329C99.2978 222.072 99.1071 221.761 98.9751 221.394C98.8431 221.027 98.7771 220.609 98.7771 220.14C98.7771 219.678 98.8431 219.264 98.9751 218.897C99.1144 218.53 99.3088 218.222 99.5581 217.973C99.8074 217.716 100.112 217.522 100.471 217.39C100.83 217.251 101.237 217.181 101.692 217.181C102.044 217.181 102.367 217.221 102.66 217.302C102.953 217.375 103.195 217.485 103.386 217.632V218.501C103.151 218.347 102.887 218.233 102.594 218.16C102.308 218.079 102.011 218.039 101.703 218.039C101.036 218.039 100.544 218.211 100.229 218.556C99.9211 218.901 99.7671 219.429 99.7671 220.14C99.7671 220.851 99.9174 221.379 100.218 221.724C100.519 222.069 100.995 222.241 101.648 222.241C101.993 222.241 102.308 222.201 102.594 222.12C102.887 222.032 103.151 221.922 103.386 221.79V222.659C103.181 222.784 102.931 222.89 102.638 222.978C102.352 223.066 102.022 223.11 101.648 223.11ZM109.109 222.516C109.028 222.575 108.929 222.637 108.812 222.703C108.695 222.769 108.552 222.835 108.383 222.901C108.214 222.96 108.024 223.007 107.811 223.044C107.598 223.088 107.36 223.11 107.096 223.11C106.135 223.11 105.406 222.85 104.907 222.329C104.408 221.808 104.159 221.079 104.159 220.14C104.159 219.678 104.225 219.264 104.357 218.897C104.496 218.53 104.687 218.222 104.929 217.973C105.171 217.716 105.457 217.522 105.787 217.39C106.117 217.251 106.476 217.181 106.865 217.181C107.276 217.181 107.642 217.251 107.965 217.39C108.288 217.529 108.552 217.735 108.757 218.006C108.97 218.277 109.113 218.615 109.186 219.018C109.267 219.414 109.267 219.876 109.186 220.404H105.16C105.197 221.02 105.38 221.482 105.71 221.79C106.04 222.091 106.531 222.241 107.184 222.241C107.624 222.241 108.002 222.179 108.317 222.054C108.632 221.929 108.896 221.794 109.109 221.647V222.516ZM106.843 218.039C106.425 218.039 106.066 218.167 105.765 218.424C105.464 218.681 105.274 219.069 105.193 219.59H108.262C108.291 219.062 108.17 218.673 107.899 218.424C107.628 218.167 107.276 218.039 106.843 218.039ZM110.267 219.205H112.907V220.085H110.267V219.205ZM115.331 223H114.363V217.291H115.21L115.309 218.314H115.331C115.485 217.991 115.716 217.724 116.024 217.511C116.332 217.291 116.735 217.181 117.234 217.181C117.674 217.181 118.033 217.287 118.312 217.5C118.598 217.705 118.788 218.017 118.884 218.435C119.045 218.046 119.291 217.742 119.621 217.522C119.958 217.295 120.365 217.181 120.842 217.181C121.37 217.181 121.788 217.331 122.096 217.632C122.404 217.925 122.558 218.38 122.558 218.996V223H121.579V219.117C121.579 218.743 121.487 218.472 121.304 218.303C121.12 218.127 120.871 218.039 120.556 218.039C120.343 218.039 120.156 218.072 119.995 218.138C119.833 218.197 119.69 218.281 119.566 218.391C119.441 218.501 119.327 218.629 119.225 218.776C119.122 218.923 119.027 219.077 118.939 219.238V223H117.971V219.007C117.971 218.64 117.879 218.387 117.696 218.248C117.512 218.109 117.263 218.039 116.948 218.039C116.742 218.039 116.559 218.065 116.398 218.116C116.236 218.167 116.09 218.241 115.958 218.336C115.833 218.431 115.719 218.549 115.617 218.688C115.514 218.82 115.419 218.967 115.331 219.128V223ZM127.418 221.911C127.352 222.043 127.267 222.182 127.165 222.329C127.062 222.468 126.934 222.597 126.78 222.714C126.626 222.831 126.442 222.927 126.23 223C126.024 223.073 125.782 223.11 125.504 223.11C124.99 223.11 124.576 222.967 124.261 222.681C123.945 222.388 123.788 221.97 123.788 221.427C123.788 220.804 124.004 220.345 124.437 220.052C124.877 219.759 125.5 219.612 126.307 219.612H127.374V219.139C127.374 218.743 127.271 218.461 127.066 218.292C126.86 218.123 126.508 218.039 126.01 218.039C125.658 218.039 125.324 218.098 125.009 218.215C124.693 218.325 124.411 218.453 124.162 218.6V217.731C124.367 217.606 124.642 217.485 124.987 217.368C125.339 217.243 125.724 217.181 126.142 217.181C126.86 217.181 127.407 217.331 127.781 217.632C128.155 217.925 128.342 218.384 128.342 219.007V222.076C128.342 222.142 128.342 222.219 128.342 222.307C128.349 222.388 128.353 222.472 128.353 222.56C128.36 222.648 128.367 222.732 128.375 222.813C128.382 222.886 128.389 222.949 128.397 223H127.517C127.495 222.897 127.473 222.754 127.451 222.571C127.436 222.38 127.429 222.215 127.429 222.076L127.418 221.911ZM125.713 222.241C126.013 222.241 126.27 222.179 126.483 222.054C126.695 221.929 126.868 221.786 127 221.625C127.132 221.456 127.227 221.295 127.286 221.141C127.344 220.98 127.374 220.866 127.374 220.8V220.382H126.406C125.826 220.382 125.405 220.466 125.141 220.635C124.884 220.796 124.756 221.042 124.756 221.372C124.756 221.629 124.833 221.838 124.987 221.999C125.141 222.16 125.383 222.241 125.713 222.241ZM132.57 218.039C132.13 218.039 131.77 218.142 131.492 218.347C131.22 218.545 131 218.802 130.832 219.117V223H129.864V217.291H130.777L130.81 218.314H130.832C130.986 217.984 131.228 217.713 131.558 217.5C131.888 217.287 132.306 217.181 132.812 217.181C133.376 217.181 133.824 217.331 134.154 217.632C134.491 217.925 134.66 218.38 134.66 218.996V223H133.692V219.095C133.692 218.699 133.593 218.424 133.395 218.27C133.197 218.116 132.922 218.039 132.57 218.039ZM139.535 221.911C139.469 222.043 139.385 222.182 139.282 222.329C139.179 222.468 139.051 222.597 138.897 222.714C138.743 222.831 138.56 222.927 138.347 223C138.142 223.073 137.9 223.11 137.621 223.11C137.108 223.11 136.693 222.967 136.378 222.681C136.063 222.388 135.905 221.97 135.905 221.427C135.905 220.804 136.121 220.345 136.554 220.052C136.994 219.759 137.617 219.612 138.424 219.612H139.491V219.139C139.491 218.743 139.388 218.461 139.183 218.292C138.978 218.123 138.626 218.039 138.127 218.039C137.775 218.039 137.441 218.098 137.126 218.215C136.811 218.325 136.528 218.453 136.279 218.6V217.731C136.484 217.606 136.759 217.485 137.104 217.368C137.456 217.243 137.841 217.181 138.259 217.181C138.978 217.181 139.524 217.331 139.898 217.632C140.272 217.925 140.459 218.384 140.459 219.007V222.076C140.459 222.142 140.459 222.219 140.459 222.307C140.466 222.388 140.47 222.472 140.47 222.56C140.477 222.648 140.485 222.732 140.492 222.813C140.499 222.886 140.507 222.949 140.514 223H139.634C139.612 222.897 139.59 222.754 139.568 222.571C139.553 222.38 139.546 222.215 139.546 222.076L139.535 221.911ZM137.83 222.241C138.131 222.241 138.387 222.179 138.6 222.054C138.813 221.929 138.985 221.786 139.117 221.625C139.249 221.456 139.344 221.295 139.403 221.141C139.462 220.98 139.491 220.866 139.491 220.8V220.382H138.523C137.944 220.382 137.522 220.466 137.258 220.635C137.001 220.796 136.873 221.042 136.873 221.372C136.873 221.629 136.95 221.838 137.104 221.999C137.258 222.16 137.5 222.241 137.83 222.241ZM146.887 222.516C146.887 222.883 146.832 223.216 146.722 223.517C146.619 223.825 146.451 224.085 146.216 224.298C145.989 224.511 145.692 224.676 145.325 224.793C144.966 224.91 144.529 224.969 144.016 224.969C143.737 224.969 143.492 224.954 143.279 224.925C143.066 224.896 142.879 224.855 142.718 224.804C142.564 224.76 142.432 224.709 142.322 224.65C142.212 224.599 142.12 224.547 142.047 224.496V223.627C142.164 223.693 142.285 223.752 142.41 223.803C142.542 223.862 142.685 223.913 142.839 223.957C142.993 224.001 143.165 224.034 143.356 224.056C143.554 224.085 143.778 224.1 144.027 224.1C144.731 224.1 145.222 223.968 145.501 223.704C145.78 223.44 145.919 223.048 145.919 222.527V221.647C145.75 221.984 145.512 222.256 145.204 222.461C144.903 222.666 144.529 222.769 144.082 222.769C143.745 222.769 143.422 222.71 143.114 222.593C142.813 222.476 142.546 222.303 142.311 222.076C142.084 221.841 141.9 221.552 141.761 221.207C141.629 220.855 141.563 220.448 141.563 219.986C141.563 219.517 141.629 219.11 141.761 218.765C141.9 218.413 142.084 218.12 142.311 217.885C142.546 217.65 142.817 217.474 143.125 217.357C143.433 217.24 143.759 217.181 144.104 217.181C144.559 217.181 144.94 217.284 145.248 217.489C145.563 217.694 145.809 217.973 145.985 218.325L145.996 218.204C145.996 218.072 146.003 217.914 146.018 217.731C146.033 217.54 146.047 217.394 146.062 217.291H146.942C146.927 217.394 146.913 217.54 146.898 217.731C146.891 217.922 146.887 218.079 146.887 218.204V222.516ZM144.258 221.9C144.5 221.9 144.72 221.863 144.918 221.79C145.123 221.709 145.299 221.588 145.446 221.427C145.6 221.266 145.717 221.068 145.798 220.833C145.886 220.591 145.93 220.309 145.93 219.986C145.93 219.333 145.769 218.846 145.446 218.523C145.131 218.2 144.731 218.039 144.247 218.039C144.005 218.039 143.778 218.079 143.565 218.16C143.36 218.241 143.18 218.362 143.026 218.523C142.879 218.684 142.762 218.89 142.674 219.139C142.586 219.381 142.542 219.663 142.542 219.986C142.542 220.309 142.586 220.591 142.674 220.833C142.762 221.068 142.883 221.266 143.037 221.427C143.191 221.581 143.371 221.698 143.576 221.779C143.789 221.86 144.016 221.9 144.258 221.9ZM153.002 222.516C152.921 222.575 152.822 222.637 152.705 222.703C152.587 222.769 152.444 222.835 152.276 222.901C152.107 222.96 151.916 223.007 151.704 223.044C151.491 223.088 151.253 223.11 150.989 223.11C150.028 223.11 149.298 222.85 148.8 222.329C148.301 221.808 148.052 221.079 148.052 220.14C148.052 219.678 148.118 219.264 148.25 218.897C148.389 218.53 148.58 218.222 148.822 217.973C149.064 217.716 149.35 217.522 149.68 217.39C150.01 217.251 150.369 217.181 150.758 217.181C151.168 217.181 151.535 217.251 151.858 217.39C152.18 217.529 152.444 217.735 152.65 218.006C152.862 218.277 153.005 218.615 153.079 219.018C153.159 219.414 153.159 219.876 153.079 220.404H149.053C149.089 221.02 149.273 221.482 149.603 221.79C149.933 222.091 150.424 222.241 151.077 222.241C151.517 222.241 151.894 222.179 152.21 222.054C152.525 221.929 152.789 221.794 153.002 221.647V222.516ZM150.736 218.039C150.318 218.039 149.958 218.167 149.658 218.424C149.357 218.681 149.166 219.069 149.086 219.59H152.155C152.184 219.062 152.063 218.673 151.792 218.424C151.52 218.167 151.168 218.039 150.736 218.039ZM157.119 218.259C156.708 218.296 156.334 218.402 155.997 218.578C155.667 218.747 155.421 219.011 155.26 219.37V223H154.292V217.291H155.139L155.238 218.534H155.26C155.421 218.197 155.652 217.903 155.953 217.654C156.261 217.397 156.649 217.24 157.119 217.181V218.259ZM158.171 223.066C157.958 223.066 157.786 223 157.654 222.868C157.522 222.729 157.456 222.564 157.456 222.373C157.456 222.168 157.522 221.999 157.654 221.867C157.786 221.735 157.958 221.669 158.171 221.669C158.376 221.669 158.545 221.735 158.677 221.867C158.809 221.999 158.875 222.168 158.875 222.373C158.875 222.564 158.809 222.729 158.677 222.868C158.545 223 158.376 223.066 158.171 223.066ZM163.619 221.911C163.553 222.043 163.469 222.182 163.366 222.329C163.263 222.468 163.135 222.597 162.981 222.714C162.827 222.831 162.644 222.927 162.431 223C162.226 223.073 161.984 223.11 161.705 223.11C161.192 223.11 160.777 222.967 160.462 222.681C160.147 222.388 159.989 221.97 159.989 221.427C159.989 220.804 160.205 220.345 160.638 220.052C161.078 219.759 161.701 219.612 162.508 219.612H163.575V219.139C163.575 218.743 163.472 218.461 163.267 218.292C163.062 218.123 162.71 218.039 162.211 218.039C161.859 218.039 161.525 218.098 161.21 218.215C160.895 218.325 160.612 218.453 160.363 218.6V217.731C160.568 217.606 160.843 217.485 161.188 217.368C161.54 217.243 161.925 217.181 162.343 217.181C163.062 217.181 163.608 217.331 163.982 217.632C164.356 217.925 164.543 218.384 164.543 219.007V222.076C164.543 222.142 164.543 222.219 164.543 222.307C164.55 222.388 164.554 222.472 164.554 222.56C164.561 222.648 164.569 222.732 164.576 222.813C164.583 222.886 164.591 222.949 164.598 223H163.718C163.696 222.897 163.674 222.754 163.652 222.571C163.637 222.38 163.63 222.215 163.63 222.076L163.619 221.911ZM161.914 222.241C162.215 222.241 162.471 222.179 162.684 222.054C162.897 221.929 163.069 221.786 163.201 221.625C163.333 221.456 163.428 221.295 163.487 221.141C163.546 220.98 163.575 220.866 163.575 220.8V220.382H162.607C162.028 220.382 161.606 220.466 161.342 220.635C161.085 220.796 160.957 221.042 160.957 221.372C160.957 221.629 161.034 221.838 161.188 221.999C161.342 222.16 161.584 222.241 161.914 222.241ZM169.728 221.977C169.574 222.3 169.336 222.571 169.013 222.791C168.698 223.004 168.283 223.11 167.77 223.11C167.242 223.11 166.813 222.963 166.483 222.67C166.16 222.369 165.999 221.907 165.999 221.284V217.291H166.978V221.284C166.978 221.475 167.004 221.632 167.055 221.757C167.114 221.874 167.191 221.97 167.286 222.043C167.381 222.116 167.491 222.168 167.616 222.197C167.748 222.226 167.891 222.241 168.045 222.241C168.47 222.241 168.811 222.146 169.068 221.955C169.325 221.764 169.545 221.504 169.728 221.174V217.291H170.696V223H169.838L169.75 221.977H169.728ZM176.377 221.878C176.201 222.252 175.955 222.553 175.64 222.78C175.324 223 174.925 223.11 174.441 223.11C174.096 223.11 173.77 223.051 173.462 222.934C173.154 222.809 172.882 222.626 172.648 222.384C172.413 222.135 172.226 221.827 172.087 221.46C171.947 221.086 171.878 220.646 171.878 220.14C171.878 219.641 171.947 219.209 172.087 218.842C172.226 218.468 172.413 218.16 172.648 217.918C172.882 217.669 173.154 217.485 173.462 217.368C173.777 217.243 174.107 217.181 174.452 217.181C174.884 217.181 175.258 217.273 175.574 217.456C175.889 217.632 176.142 217.885 176.333 218.215V215.113H177.301V223H176.454L176.377 221.878ZM174.584 222.241C174.833 222.241 175.064 222.201 175.277 222.12C175.489 222.032 175.673 221.9 175.827 221.724C175.988 221.548 176.113 221.328 176.201 221.064C176.296 220.8 176.344 220.492 176.344 220.14C176.344 219.788 176.296 219.48 176.201 219.216C176.113 218.952 175.988 218.732 175.827 218.556C175.673 218.38 175.489 218.252 175.277 218.171C175.064 218.083 174.833 218.039 174.584 218.039C174.078 218.039 173.663 218.219 173.341 218.578C173.025 218.93 172.868 219.451 172.868 220.14C172.868 220.837 173.029 221.361 173.352 221.713C173.674 222.065 174.085 222.241 174.584 222.241ZM179.375 216.455C179.177 216.455 179.02 216.396 178.902 216.279C178.785 216.154 178.726 216.004 178.726 215.828C178.726 215.652 178.785 215.502 178.902 215.377C179.02 215.252 179.177 215.19 179.375 215.19C179.566 215.19 179.716 215.252 179.826 215.377C179.936 215.502 179.991 215.652 179.991 215.828C179.991 216.004 179.936 216.154 179.826 216.279C179.716 216.396 179.566 216.455 179.375 216.455ZM179.848 217.291V223H178.88V217.291H179.848ZM184.22 222.879C184.103 222.945 183.953 223 183.769 223.044C183.586 223.088 183.392 223.11 183.186 223.11C182.908 223.11 182.669 223.07 182.471 222.989C182.281 222.908 182.123 222.802 181.998 222.67C181.874 222.531 181.782 222.377 181.723 222.208C181.672 222.032 181.646 221.852 181.646 221.669V218.116H180.964V217.291H181.646V216.092H182.614V217.291H184.275V218.116H182.614V221.548C182.614 221.79 182.673 221.966 182.79 222.076C182.915 222.186 183.131 222.241 183.439 222.241C183.725 222.241 183.986 222.16 184.22 221.999V222.879ZM187.798 223.11C187.409 223.11 187.046 223.044 186.709 222.912C186.371 222.78 186.078 222.589 185.829 222.34C185.587 222.083 185.396 221.772 185.257 221.405C185.117 221.038 185.048 220.617 185.048 220.14C185.048 219.671 185.117 219.253 185.257 218.886C185.396 218.512 185.587 218.2 185.829 217.951C186.078 217.702 186.371 217.511 186.709 217.379C187.046 217.247 187.409 217.181 187.798 217.181C188.194 217.181 188.56 217.247 188.898 217.379C189.235 217.511 189.525 217.702 189.767 217.951C190.016 218.2 190.21 218.512 190.35 218.886C190.496 219.253 190.57 219.671 190.57 220.14C190.57 220.617 190.496 221.038 190.35 221.405C190.21 221.772 190.016 222.083 189.767 222.34C189.525 222.589 189.235 222.78 188.898 222.912C188.56 223.044 188.194 223.11 187.798 223.11ZM187.798 222.241C188.054 222.241 188.289 222.201 188.502 222.12C188.722 222.032 188.912 221.904 189.074 221.735C189.235 221.559 189.36 221.339 189.448 221.075C189.536 220.811 189.58 220.499 189.58 220.14C189.58 219.781 189.536 219.469 189.448 219.205C189.36 218.941 189.235 218.725 189.074 218.556C188.912 218.38 188.722 218.252 188.502 218.171C188.289 218.083 188.054 218.039 187.798 218.039C187.541 218.039 187.306 218.083 187.094 218.171C186.881 218.252 186.694 218.38 186.533 218.556C186.379 218.725 186.258 218.941 186.17 219.205C186.082 219.469 186.038 219.781 186.038 220.14C186.038 220.499 186.082 220.811 186.17 221.075C186.258 221.339 186.379 221.559 186.533 221.735C186.694 221.904 186.881 222.032 187.094 222.12C187.306 222.201 187.541 222.241 187.798 222.241ZM194.577 218.259C194.166 218.296 193.792 218.402 193.455 218.578C193.125 218.747 192.879 219.011 192.718 219.37V223H191.75V217.291H192.597L192.696 218.534H192.718C192.879 218.197 193.11 217.903 193.411 217.654C193.719 217.397 194.107 217.24 194.577 217.181V218.259Z" fill="#262626"/>
<path d="M338 39L332.226 49H343.774L338 39ZM337 48V69H339V48H337Z" fill="#4E496B"/>
<path d="M340 105L334.226 115H345.774L340 105ZM339 114V135H341V114H339Z" fill="#4E496B"/>
<path d="M340 171.301L334.226 181.301H345.774L340 171.301ZM339 180.301V201.301H341V180.301H339Z" fill="#4E496B"/>
</svg>
