<svg xmlns="http://www.w3.org/2000/svg" width="77" height="20" fill="none" viewBox="0 0 77 20">
    <rect width="77" height="20" fill="#3FC92E" fill-opacity=".1" rx="5"/>
    <path fill="#07A300" fill-rule="evenodd" d="M17.5 10a5.5 5.5 0 1 1-11 0 5.5 5.5 0 0 1 11 0Zm1.5 0a7 7 0 1 1-14 0 7 7 0 0 1 14 0Zm-3.9-1.55a.75.75 0 1 0-1.2-.9l-2.481 3.308L10.03 9.47a.75.75 0 1 0-1.06 1.06l2 2a.75.75 0 0 0 1.13-.08l3-4Z" clip-rule="evenodd"/>
    <path fill="#07A300" d="M26.623 9.736v-1.04h1.313c.65 0 1.144-.139 1.482-.416.338-.286.507-.676.507-1.17 0-.529-.178-.901-.533-1.118-.355-.225-.823-.338-1.404-.338a6.132 6.132 0 0 0-2.873.676V5.173a6.14 6.14 0 0 1 1.118-.416c.468-.13 1.057-.195 1.768-.195.97 0 1.742.204 2.314.611.572.399.858 1.018.858 1.859 0 .546-.165.997-.494 1.352-.32.355-.793.607-1.417.754.737.095 1.291.32 1.664.676.381.347.572.845.572 1.495 0 .494-.095.923-.286 1.287-.19.355-.45.646-.78.871a3.46 3.46 0 0 1-1.144.507c-.442.104-.91.156-1.404.156-.702 0-1.304-.082-1.807-.247-.503-.173-.871-.36-1.105-.559v-1.17c.806.58 1.764.871 2.873.871.32 0 .624-.026.91-.078.286-.06.537-.156.754-.286.217-.13.386-.303.507-.52.13-.217.195-.485.195-.806 0-.59-.19-1.001-.572-1.235-.373-.243-.932-.364-1.677-.364h-1.34Zm10.432 2.977c-.078.156-.178.32-.299.494a2.26 2.26 0 0 1-1.105.793c-.243.087-.529.13-.858.13-.607 0-1.096-.169-1.469-.507-.373-.347-.559-.84-.559-1.482 0-.737.256-1.278.767-1.625.52-.347 1.257-.52 2.21-.52h1.261v-.559c0-.468-.121-.802-.364-1.001-.243-.2-.659-.299-1.248-.299-.416 0-.81.07-1.183.208-.373.13-.706.282-1.001.455V7.773c.243-.147.568-.29.975-.429a4.063 4.063 0 0 1 1.365-.221c.85 0 1.495.178 1.937.533.442.347.663.888.663 1.625v3.9c.009.095.013.195.013.299l.026.299c.009.087.017.16.026.221h-1.04a5.934 5.934 0 0 1-.078-.507 7.787 7.787 0 0 1-.026-.585l-.013-.195Zm-2.015.39c.355 0 .659-.074.91-.221.251-.147.455-.316.611-.507.156-.2.269-.39.338-.572.07-.19.104-.325.104-.403v-.494h-1.144c-.685 0-1.183.1-1.495.299-.303.19-.455.481-.455.871 0 .303.091.55.273.741.182.19.468.286.858.286Zm6.648-1.976h-.598V14h-1.144V7.253h1.144v2.899h.65l2.366-2.899h1.3l-2.77 3.328L45.459 14h-1.391l-2.38-2.873Zm8.367 3.003c-.52 0-.971-.121-1.352-.364a2.647 2.647 0 0 1-.897-1.001v3.536h-1.144V7.253h1l.118 1.313c.225-.442.528-.793.91-1.053.38-.26.853-.39 1.417-.39.39 0 .762.074 1.118.221.364.139.68.355.949.65.277.286.494.65.65 1.092.164.433.247.945.247 1.534 0 .598-.083 1.118-.247 1.56a3.262 3.262 0 0 1-.663 1.092 2.78 2.78 0 0 1-.962.65 3.185 3.185 0 0 1-1.144.208Zm-.17-1.027c.599 0 1.08-.204 1.444-.611.372-.416.559-1.04.559-1.872 0-.815-.187-1.43-.56-1.846-.363-.425-.844-.637-1.442-.637a2.22 2.22 0 0 0-.832.156c-.252.104-.473.26-.663.468-.182.2-.33.455-.442.767a3.457 3.457 0 0 0-.156 1.092c0 .416.052.78.156 1.092.112.312.26.572.442.78.19.208.411.364.663.468.26.095.537.143.832.143Zm9.564-1.352c0 .39-.07.728-.209 1.014a1.84 1.84 0 0 1-.584.702c-.252.182-.55.316-.898.403a4.63 4.63 0 0 1-1.13.13h-2.172V7.253H55.6v2.353h1.105c.858 0 1.53.169 2.016.507.485.338.728.884.728 1.638ZM61.568 14h-1.145V7.253h1.145V14ZM55.6 10.581v2.444h1.027c.494 0 .893-.091 1.197-.273.312-.19.468-.503.468-.936 0-.442-.14-.758-.416-.949-.278-.19-.668-.286-1.17-.286H55.6Zm10.562-2.353V14h-1.144V8.228h-2.12v-.975h5.422v.975h-2.158Z"/>
</svg>
