<svg width="750" height="630" viewBox="0 0 750 630" fill="none" xmlns="http://www.w3.org/2000/svg">
<g filter="url(#filter0_d_16_162)">
<rect x="30" y="22" width="230" height="230" rx="10" fill="white"/>
</g>
<path d="M100.052 48.072V42.396H101.192V48.06C101.192 48.748 101.392 49.264 101.792 49.608C102.192 49.944 102.732 50.112 103.412 50.112C103.86 50.112 104.256 50.036 104.6 49.884C104.952 49.732 105.228 49.504 105.428 49.2C105.636 48.896 105.74 48.516 105.74 48.06V42.396H106.82V48.024C106.82 48.688 106.668 49.252 106.364 49.716C106.068 50.172 105.66 50.52 105.14 50.76C104.62 51 104.036 51.12 103.388 51.12C102.756 51.12 102.188 51.008 101.684 50.784C101.18 50.552 100.78 50.208 100.484 49.752C100.196 49.296 100.052 48.736 100.052 48.072ZM110.413 51.12C109.957 51.12 109.521 51.056 109.105 50.928C108.697 50.792 108.365 50.612 108.109 50.388V49.44C108.357 49.68 108.689 49.872 109.105 50.016C109.529 50.16 109.961 50.232 110.401 50.232C111.377 50.232 111.865 49.916 111.865 49.284C111.865 49.1 111.821 48.952 111.733 48.84C111.653 48.72 111.501 48.62 111.277 48.54C111.053 48.452 110.729 48.368 110.305 48.288C109.497 48.128 108.933 47.912 108.613 47.64C108.293 47.36 108.133 46.964 108.133 46.452C108.133 45.884 108.353 45.444 108.793 45.132C109.233 44.812 109.841 44.652 110.617 44.652C110.985 44.652 111.345 44.692 111.697 44.772C112.057 44.844 112.349 44.944 112.573 45.072V46.02C112.109 45.7 111.469 45.54 110.653 45.54C110.149 45.54 109.777 45.612 109.537 45.756C109.305 45.9 109.189 46.124 109.189 46.428C109.189 46.588 109.225 46.72 109.297 46.824C109.369 46.928 109.513 47.02 109.729 47.1C109.945 47.18 110.269 47.264 110.701 47.352C111.253 47.464 111.689 47.6 112.009 47.76C112.337 47.912 112.569 48.108 112.705 48.348C112.849 48.588 112.921 48.892 112.921 49.26C112.921 49.844 112.701 50.3 112.261 50.628C111.821 50.956 111.205 51.12 110.413 51.12ZM116.981 51.12C115.941 51.12 115.145 50.836 114.593 50.268C114.049 49.692 113.777 48.896 113.777 47.88C113.777 47.2 113.905 46.62 114.161 46.14C114.417 45.66 114.769 45.292 115.217 45.036C115.665 44.78 116.169 44.652 116.729 44.652C117.681 44.652 118.381 44.968 118.829 45.6C119.277 46.224 119.421 47.08 119.261 48.168H114.869C114.957 49.504 115.693 50.172 117.077 50.172C117.837 50.172 118.537 49.956 119.177 49.524V50.472C118.889 50.672 118.553 50.832 118.169 50.952C117.785 51.064 117.389 51.12 116.981 51.12ZM116.705 45.588C116.249 45.588 115.857 45.728 115.529 46.008C115.201 46.288 114.993 46.712 114.905 47.28H118.253C118.277 46.744 118.153 46.328 117.881 46.032C117.609 45.736 117.217 45.588 116.705 45.588ZM123.669 45.828C123.173 45.868 122.749 45.992 122.397 46.2C122.053 46.408 121.801 46.688 121.641 47.04V51H120.585V44.772H121.509L121.617 46.128H121.641C121.841 45.712 122.113 45.376 122.457 45.12C122.809 44.864 123.213 44.708 123.669 44.652V45.828ZM128.75 51H127.79L128.294 48.516H126.974V47.676H128.474L128.918 45.492H127.298V44.652H129.086L129.554 42.396H130.514L130.046 44.652H131.846L132.314 42.396H133.274L132.806 44.652H134.15V45.492H132.638L132.194 47.676H133.826V48.516H132.014L131.51 51H130.55L131.054 48.516H129.254L128.75 51ZM129.434 47.676H131.234L131.678 45.492H129.878L129.434 47.676ZM139.091 51H137.999V43.752L135.623 45.576V44.364L138.179 42.396H139.091V51ZM144.635 42.396H146.159L150.479 49.62V42.396H151.559V51H150.023L145.703 43.788V51H144.635V42.396ZM156.181 51.12C155.141 51.12 154.345 50.836 153.793 50.268C153.249 49.692 152.977 48.896 152.977 47.88C152.977 47.2 153.105 46.62 153.361 46.14C153.617 45.66 153.969 45.292 154.417 45.036C154.865 44.78 155.369 44.652 155.929 44.652C156.881 44.652 157.581 44.968 158.029 45.6C158.477 46.224 158.621 47.08 158.461 48.168H154.069C154.157 49.504 154.893 50.172 156.277 50.172C157.037 50.172 157.737 49.956 158.377 49.524V50.472C158.089 50.672 157.753 50.832 157.369 50.952C156.985 51.064 156.589 51.12 156.181 51.12ZM155.905 45.588C155.449 45.588 155.057 45.728 154.729 46.008C154.401 46.288 154.193 46.712 154.105 47.28H157.453C157.477 46.744 157.353 46.328 157.081 46.032C156.809 45.736 156.417 45.588 155.905 45.588ZM159.28 45.672V44.772H160.024V43.464H161.08V44.772H162.892V45.672H161.08V49.416C161.08 49.68 161.148 49.872 161.284 49.992C161.42 50.112 161.652 50.172 161.98 50.172C162.292 50.172 162.576 50.084 162.832 49.908V50.868C162.704 50.948 162.536 51.008 162.328 51.048C162.12 51.096 161.912 51.12 161.704 51.12C161.304 51.12 160.98 51.044 160.732 50.892C160.484 50.74 160.304 50.544 160.192 50.304C160.08 50.064 160.024 49.812 160.024 49.548V45.672H159.28ZM172.433 44.772L171.017 51H169.397L168.077 46.188L166.721 51H165.149L163.733 44.772H164.849L166.037 50.208L167.549 44.772H168.737L170.213 50.148L171.389 44.772H172.433ZM176.098 51.12C175.53 51.12 175.018 50.996 174.562 50.748C174.114 50.492 173.758 50.124 173.494 49.644C173.23 49.156 173.098 48.568 173.098 47.88C173.098 47.192 173.23 46.608 173.494 46.128C173.758 45.648 174.114 45.284 174.562 45.036C175.018 44.78 175.53 44.652 176.098 44.652C176.674 44.652 177.19 44.78 177.646 45.036C178.102 45.284 178.462 45.648 178.726 46.128C178.99 46.608 179.122 47.192 179.122 47.88C179.122 48.568 178.99 49.156 178.726 49.644C178.462 50.124 178.102 50.492 177.646 50.748C177.19 50.996 176.674 51.12 176.098 51.12ZM176.098 50.172C176.658 50.172 177.122 49.988 177.49 49.62C177.858 49.244 178.042 48.664 178.042 47.88C178.042 47.096 177.858 46.52 177.49 46.152C177.122 45.776 176.658 45.588 176.098 45.588C175.546 45.588 175.086 45.776 174.718 46.152C174.358 46.52 174.178 47.096 174.178 47.88C174.178 48.664 174.358 49.244 174.718 49.62C175.086 49.988 175.546 50.172 176.098 50.172ZM183.493 45.828C182.997 45.868 182.573 45.992 182.221 46.2C181.877 46.408 181.625 46.688 181.465 47.04V51H180.409V44.772H181.333L181.441 46.128H181.465C181.665 45.712 181.937 45.376 182.281 45.12C182.633 44.864 183.037 44.708 183.493 44.652V45.828ZM189.751 51H188.467L186.271 48.348H185.719V51H184.663V42.396H185.719V47.448H186.319L188.503 44.772H189.703L187.147 47.844L189.751 51Z" fill="black" fill-opacity="0.85"/>
<g filter="url(#filter1_d_16_162)">
<rect x="490" y="22" width="230" height="230" rx="10" fill="white"/>
</g>
<g filter="url(#filter2_d_16_162)">
<rect x="30" y="282" width="690" height="326" rx="10" fill="white"/>
</g>
<path d="M560.052 48.072V42.396H561.192V48.06C561.192 48.748 561.392 49.264 561.792 49.608C562.192 49.944 562.732 50.112 563.412 50.112C563.86 50.112 564.256 50.036 564.6 49.884C564.952 49.732 565.228 49.504 565.428 49.2C565.636 48.896 565.74 48.516 565.74 48.06V42.396H566.82V48.024C566.82 48.688 566.668 49.252 566.364 49.716C566.068 50.172 565.66 50.52 565.14 50.76C564.62 51 564.036 51.12 563.388 51.12C562.756 51.12 562.188 51.008 561.684 50.784C561.18 50.552 560.78 50.208 560.484 49.752C560.196 49.296 560.052 48.736 560.052 48.072ZM570.413 51.12C569.957 51.12 569.521 51.056 569.105 50.928C568.697 50.792 568.365 50.612 568.109 50.388V49.44C568.357 49.68 568.689 49.872 569.105 50.016C569.529 50.16 569.961 50.232 570.401 50.232C571.377 50.232 571.865 49.916 571.865 49.284C571.865 49.1 571.821 48.952 571.733 48.84C571.653 48.72 571.501 48.62 571.277 48.54C571.053 48.452 570.729 48.368 570.305 48.288C569.497 48.128 568.933 47.912 568.613 47.64C568.293 47.36 568.133 46.964 568.133 46.452C568.133 45.884 568.353 45.444 568.793 45.132C569.233 44.812 569.841 44.652 570.617 44.652C570.985 44.652 571.345 44.692 571.697 44.772C572.057 44.844 572.349 44.944 572.573 45.072V46.02C572.109 45.7 571.469 45.54 570.653 45.54C570.149 45.54 569.777 45.612 569.537 45.756C569.305 45.9 569.189 46.124 569.189 46.428C569.189 46.588 569.225 46.72 569.297 46.824C569.369 46.928 569.513 47.02 569.729 47.1C569.945 47.18 570.269 47.264 570.701 47.352C571.253 47.464 571.689 47.6 572.009 47.76C572.337 47.912 572.569 48.108 572.705 48.348C572.849 48.588 572.921 48.892 572.921 49.26C572.921 49.844 572.701 50.3 572.261 50.628C571.821 50.956 571.205 51.12 570.413 51.12ZM576.981 51.12C575.941 51.12 575.145 50.836 574.593 50.268C574.049 49.692 573.777 48.896 573.777 47.88C573.777 47.2 573.905 46.62 574.161 46.14C574.417 45.66 574.769 45.292 575.217 45.036C575.665 44.78 576.169 44.652 576.729 44.652C577.681 44.652 578.381 44.968 578.829 45.6C579.277 46.224 579.421 47.08 579.261 48.168H574.869C574.957 49.504 575.693 50.172 577.077 50.172C577.837 50.172 578.537 49.956 579.177 49.524V50.472C578.889 50.672 578.553 50.832 578.169 50.952C577.785 51.064 577.389 51.12 576.981 51.12ZM576.705 45.588C576.249 45.588 575.857 45.728 575.529 46.008C575.201 46.288 574.993 46.712 574.905 47.28H578.253C578.277 46.744 578.153 46.328 577.881 46.032C577.609 45.736 577.217 45.588 576.705 45.588ZM583.669 45.828C583.173 45.868 582.749 45.992 582.397 46.2C582.053 46.408 581.801 46.688 581.641 47.04V51H580.585V44.772H581.509L581.617 46.128H581.641C581.841 45.712 582.113 45.376 582.457 45.12C582.809 44.864 583.213 44.708 583.669 44.652V45.828ZM588.75 51H587.79L588.294 48.516H586.974V47.676H588.474L588.918 45.492H587.298V44.652H589.086L589.554 42.396H590.514L590.046 44.652H591.846L592.314 42.396H593.274L592.806 44.652H594.15V45.492H592.638L592.194 47.676H593.826V48.516H592.014L591.51 51H590.55L591.054 48.516H589.254L588.75 51ZM589.434 47.676H591.234L591.678 45.492H589.878L589.434 47.676ZM600.699 51H595.215V49.86C596.071 49.172 596.771 48.584 597.315 48.096C597.867 47.608 598.295 47.184 598.599 46.824C598.911 46.456 599.127 46.116 599.247 45.804C599.375 45.492 599.439 45.176 599.439 44.856C599.439 44.36 599.291 43.972 598.995 43.692C598.699 43.412 598.291 43.272 597.771 43.272C596.939 43.272 596.163 43.668 595.443 44.46V43.248C596.107 42.6 596.895 42.276 597.807 42.276C598.671 42.276 599.351 42.5 599.847 42.948C600.351 43.388 600.603 43.988 600.603 44.748C600.603 45.14 600.539 45.516 600.411 45.876C600.291 46.228 600.075 46.6 599.763 46.992C599.459 47.376 599.039 47.808 598.503 48.288C597.967 48.768 597.287 49.328 596.463 49.968H600.699V51ZM604.635 42.396H606.159L610.479 49.62V42.396H611.559V51H610.023L605.703 43.788V51H604.635V42.396ZM616.181 51.12C615.141 51.12 614.345 50.836 613.793 50.268C613.249 49.692 612.977 48.896 612.977 47.88C612.977 47.2 613.105 46.62 613.361 46.14C613.617 45.66 613.969 45.292 614.417 45.036C614.865 44.78 615.369 44.652 615.929 44.652C616.881 44.652 617.581 44.968 618.029 45.6C618.477 46.224 618.621 47.08 618.461 48.168H614.069C614.157 49.504 614.893 50.172 616.277 50.172C617.037 50.172 617.737 49.956 618.377 49.524V50.472C618.089 50.672 617.753 50.832 617.369 50.952C616.985 51.064 616.589 51.12 616.181 51.12ZM615.905 45.588C615.449 45.588 615.057 45.728 614.729 46.008C614.401 46.288 614.193 46.712 614.105 47.28H617.453C617.477 46.744 617.353 46.328 617.081 46.032C616.809 45.736 616.417 45.588 615.905 45.588ZM619.28 45.672V44.772H620.024V43.464H621.08V44.772H622.892V45.672H621.08V49.416C621.08 49.68 621.148 49.872 621.284 49.992C621.42 50.112 621.652 50.172 621.98 50.172C622.292 50.172 622.576 50.084 622.832 49.908V50.868C622.704 50.948 622.536 51.008 622.328 51.048C622.12 51.096 621.912 51.12 621.704 51.12C621.304 51.12 620.98 51.044 620.732 50.892C620.484 50.74 620.304 50.544 620.192 50.304C620.08 50.064 620.024 49.812 620.024 49.548V45.672H619.28ZM632.433 44.772L631.017 51H629.397L628.077 46.188L626.721 51H625.149L623.733 44.772H624.849L626.037 50.208L627.549 44.772H628.737L630.213 50.148L631.389 44.772H632.433ZM636.098 51.12C635.53 51.12 635.018 50.996 634.562 50.748C634.114 50.492 633.758 50.124 633.494 49.644C633.23 49.156 633.098 48.568 633.098 47.88C633.098 47.192 633.23 46.608 633.494 46.128C633.758 45.648 634.114 45.284 634.562 45.036C635.018 44.78 635.53 44.652 636.098 44.652C636.674 44.652 637.19 44.78 637.646 45.036C638.102 45.284 638.462 45.648 638.726 46.128C638.99 46.608 639.122 47.192 639.122 47.88C639.122 48.568 638.99 49.156 638.726 49.644C638.462 50.124 638.102 50.492 637.646 50.748C637.19 50.996 636.674 51.12 636.098 51.12ZM636.098 50.172C636.658 50.172 637.122 49.988 637.49 49.62C637.858 49.244 638.042 48.664 638.042 47.88C638.042 47.096 637.858 46.52 637.49 46.152C637.122 45.776 636.658 45.588 636.098 45.588C635.546 45.588 635.086 45.776 634.718 46.152C634.358 46.52 634.178 47.096 634.178 47.88C634.178 48.664 634.358 49.244 634.718 49.62C635.086 49.988 635.546 50.172 636.098 50.172ZM643.493 45.828C642.997 45.868 642.573 45.992 642.221 46.2C641.877 46.408 641.625 46.688 641.465 47.04V51H640.409V44.772H641.333L641.441 46.128H641.465C641.665 45.712 641.937 45.376 642.281 45.12C642.633 44.864 643.037 44.708 643.493 44.652V45.828ZM649.751 51H648.467L646.271 48.348H645.719V51H644.663V42.396H645.719V47.448H646.319L648.503 44.772H649.703L647.147 47.844L649.751 51Z" fill="black" fill-opacity="0.85"/>
<path d="M279.965 585.692H279.473H279.461L279.473 585.68L276.869 579.98V587H275.801V578.396H277.373L280.049 584.432L282.845 578.396H284.309V587H283.169V580.076L280.529 585.68L279.965 585.692ZM288.28 581.588C287.616 581.588 286.944 581.792 286.264 582.2V581.252C286.56 581.068 286.9 580.924 287.284 580.82C287.676 580.708 288.056 580.652 288.424 580.652C289.208 580.652 289.804 580.816 290.212 581.144C290.62 581.472 290.824 581.972 290.824 582.644V585.992C290.824 586.128 290.828 586.304 290.836 586.52C290.852 586.728 290.868 586.888 290.884 587H289.924C289.9 586.888 289.876 586.732 289.852 586.532C289.836 586.324 289.828 586.144 289.828 585.992L289.816 585.812C289.72 586.004 289.588 586.204 289.42 586.412C289.252 586.612 289.028 586.78 288.748 586.916C288.476 587.052 288.136 587.12 287.728 587.12C287.168 587.12 286.716 586.96 286.372 586.64C286.028 586.32 285.856 585.868 285.856 585.284C285.856 584.604 286.096 584.104 286.576 583.784C287.056 583.464 287.732 583.304 288.604 583.304H289.768V582.788C289.768 582.356 289.656 582.048 289.432 581.864C289.208 581.68 288.824 581.588 288.28 581.588ZM289.768 584.6V584.144H288.712C288.08 584.144 287.62 584.236 287.332 584.42C287.052 584.604 286.912 584.872 286.912 585.224C286.912 585.504 286.996 585.732 287.164 585.908C287.34 586.084 287.604 586.172 287.956 586.172C288.284 586.172 288.564 586.108 288.796 585.98C289.028 585.844 289.216 585.684 289.36 585.5C289.504 585.308 289.608 585.128 289.672 584.96C289.736 584.792 289.768 584.672 289.768 584.6ZM295.437 581.588C294.957 581.588 294.565 581.7 294.261 581.924C293.965 582.14 293.725 582.42 293.541 582.764V587H292.485V580.772H293.481L293.517 581.888H293.541C293.709 581.536 293.973 581.244 294.333 581.012C294.693 580.772 295.149 580.652 295.701 580.652C296.317 580.652 296.805 580.816 297.165 581.144C297.533 581.472 297.717 581.968 297.717 582.632V587H296.661V582.74C296.661 582.316 296.549 582.02 296.325 581.852C296.109 581.676 295.813 581.588 295.437 581.588ZM301.499 581.588C300.835 581.588 300.163 581.792 299.483 582.2V581.252C299.779 581.068 300.119 580.924 300.503 580.82C300.895 580.708 301.275 580.652 301.643 580.652C302.427 580.652 303.023 580.816 303.431 581.144C303.839 581.472 304.043 581.972 304.043 582.644V585.992C304.043 586.128 304.047 586.304 304.055 586.52C304.071 586.728 304.087 586.888 304.103 587H303.143C303.119 586.888 303.095 586.732 303.071 586.532C303.055 586.324 303.047 586.144 303.047 585.992L303.035 585.812C302.939 586.004 302.807 586.204 302.639 586.412C302.471 586.612 302.247 586.78 301.967 586.916C301.695 587.052 301.355 587.12 300.947 587.12C300.387 587.12 299.935 586.96 299.591 586.64C299.247 586.32 299.075 585.868 299.075 585.284C299.075 584.604 299.315 584.104 299.795 583.784C300.275 583.464 300.951 583.304 301.823 583.304H302.987V582.788C302.987 582.356 302.875 582.048 302.651 581.864C302.427 581.68 302.043 581.588 301.499 581.588ZM302.987 584.6V584.144H301.931C301.299 584.144 300.839 584.236 300.551 584.42C300.271 584.604 300.131 584.872 300.131 585.224C300.131 585.504 300.215 585.732 300.383 585.908C300.559 586.084 300.823 586.172 301.175 586.172C301.503 586.172 301.783 586.108 302.015 585.98C302.247 585.844 302.435 585.684 302.579 585.5C302.723 585.308 302.827 585.128 302.891 584.96C302.955 584.792 302.987 584.672 302.987 584.6ZM305.776 588.632V587.684C306.112 587.868 306.448 588 306.784 588.08C307.12 588.16 307.504 588.2 307.936 588.2C308.704 588.2 309.24 588.052 309.544 587.756C309.848 587.468 310 587.044 310 586.484V585.524C309.816 585.892 309.556 586.188 309.22 586.412C308.892 586.636 308.484 586.748 307.996 586.748C307.508 586.748 307.052 586.636 306.628 586.412C306.212 586.18 305.876 585.84 305.62 585.392C305.372 584.944 305.248 584.384 305.248 583.712C305.248 583.032 305.372 582.468 305.62 582.02C305.876 581.564 306.212 581.224 306.628 581C307.052 580.768 307.516 580.652 308.02 580.652C308.516 580.652 308.932 580.764 309.268 580.988C309.612 581.212 309.88 581.516 310.072 581.9L310.084 581.768C310.084 581.624 310.092 581.452 310.108 581.252C310.124 581.044 310.14 580.884 310.156 580.772H311.116C311.1 580.876 311.084 581.036 311.068 581.252C311.06 581.46 311.056 581.632 311.056 581.768V586.472C311.056 587.008 310.948 587.476 310.732 587.876C310.524 588.276 310.192 588.588 309.736 588.812C309.28 589.036 308.676 589.148 307.924 589.148C307.012 589.148 306.296 588.976 305.776 588.632ZM310.012 583.712C310.012 583 309.836 582.468 309.484 582.116C309.14 581.764 308.704 581.588 308.176 581.588C307.648 581.588 307.204 581.764 306.844 582.116C306.492 582.468 306.316 583 306.316 583.712C306.316 584.408 306.492 584.932 306.844 585.284C307.204 585.628 307.652 585.8 308.188 585.8C308.708 585.8 309.14 585.628 309.484 585.284C309.836 584.94 310.012 584.416 310.012 583.712ZM315.53 587.12C314.49 587.12 313.694 586.836 313.142 586.268C312.598 585.692 312.326 584.896 312.326 583.88C312.326 583.2 312.454 582.62 312.71 582.14C312.966 581.66 313.318 581.292 313.766 581.036C314.214 580.78 314.718 580.652 315.278 580.652C316.23 580.652 316.93 580.968 317.378 581.6C317.826 582.224 317.97 583.08 317.81 584.168H313.418C313.506 585.504 314.242 586.172 315.626 586.172C316.386 586.172 317.086 585.956 317.726 585.524V586.472C317.438 586.672 317.102 586.832 316.718 586.952C316.334 587.064 315.938 587.12 315.53 587.12ZM315.254 581.588C314.798 581.588 314.406 581.728 314.078 582.008C313.75 582.288 313.542 582.712 313.454 583.28H316.802C316.826 582.744 316.702 582.328 316.43 582.032C316.158 581.736 315.766 581.588 315.254 581.588ZM318.689 583.88C318.689 583.152 318.817 582.552 319.073 582.08C319.329 581.6 319.669 581.244 320.093 581.012C320.525 580.772 320.993 580.652 321.497 580.652C321.969 580.652 322.377 580.752 322.721 580.952C323.065 581.144 323.341 581.42 323.549 581.78V578.396H324.605V587H323.681L323.597 585.776C323.405 586.184 323.133 586.512 322.781 586.76C322.437 587 322.005 587.12 321.485 587.12C320.989 587.12 320.525 587.004 320.093 586.772C319.669 586.532 319.329 586.172 319.073 585.692C318.817 585.212 318.689 584.608 318.689 583.88ZM323.561 583.88C323.561 583.104 323.377 582.528 323.009 582.152C322.641 581.776 322.185 581.588 321.641 581.588C321.097 581.588 320.649 581.784 320.297 582.176C319.945 582.56 319.769 583.128 319.769 583.88C319.769 584.64 319.945 585.212 320.297 585.596C320.649 585.98 321.097 586.172 321.641 586.172C322.185 586.172 322.641 585.984 323.009 585.608C323.377 585.232 323.561 584.656 323.561 583.88ZM335.931 587H334.731L333.843 584.54H330.039L329.163 587H328.107L331.167 578.396H332.847L335.931 587ZM330.411 583.52H333.483L331.947 579.236L330.411 583.52ZM337.58 579.86C337.364 579.86 337.192 579.796 337.064 579.668C336.936 579.532 336.872 579.368 336.872 579.176C336.872 578.984 336.936 578.82 337.064 578.684C337.192 578.548 337.364 578.48 337.58 578.48C337.788 578.48 337.952 578.548 338.072 578.684C338.192 578.82 338.252 578.984 338.252 579.176C338.252 579.368 338.192 579.532 338.072 579.668C337.952 579.796 337.788 579.86 337.58 579.86ZM337.04 580.772H338.096V587H337.04V580.772ZM342.901 581.828C342.405 581.868 341.981 581.992 341.629 582.2C341.285 582.408 341.033 582.688 340.873 583.04V587H339.817V580.772H340.741L340.849 582.128H340.873C341.073 581.712 341.345 581.376 341.689 581.12C342.041 580.864 342.445 580.708 342.901 580.652V581.828ZM344.56 587V581.672H343.804V580.772H344.56V580.616C344.56 579.88 344.756 579.308 345.148 578.9C345.54 578.492 346.076 578.288 346.756 578.288C347.06 578.288 347.324 578.324 347.548 578.396V579.356C347.476 579.324 347.372 579.296 347.236 579.272C347.1 579.248 346.956 579.236 346.804 579.236C346.436 579.236 346.144 579.348 345.928 579.572C345.72 579.796 345.616 580.144 345.616 580.616V580.772H347.416V581.672H345.616V587H344.56ZM348.653 578.396H349.709V587H348.653V578.396ZM353.986 587.12C353.418 587.12 352.906 586.996 352.45 586.748C352.002 586.492 351.646 586.124 351.382 585.644C351.118 585.156 350.986 584.568 350.986 583.88C350.986 583.192 351.118 582.608 351.382 582.128C351.646 581.648 352.002 581.284 352.45 581.036C352.906 580.78 353.418 580.652 353.986 580.652C354.562 580.652 355.078 580.78 355.534 581.036C355.99 581.284 356.35 581.648 356.614 582.128C356.878 582.608 357.01 583.192 357.01 583.88C357.01 584.568 356.878 585.156 356.614 585.644C356.35 586.124 355.99 586.492 355.534 586.748C355.078 586.996 354.562 587.12 353.986 587.12ZM353.986 586.172C354.546 586.172 355.01 585.988 355.378 585.62C355.746 585.244 355.93 584.664 355.93 583.88C355.93 583.096 355.746 582.52 355.378 582.152C355.01 581.776 354.546 581.588 353.986 581.588C353.434 581.588 352.974 581.776 352.606 582.152C352.246 582.52 352.066 583.096 352.066 583.88C352.066 584.664 352.246 585.244 352.606 585.62C352.974 585.988 353.434 586.172 353.986 586.172ZM366.376 580.772L364.96 587H363.34L362.02 582.188L360.664 587H359.092L357.676 580.772H358.792L359.98 586.208L361.492 580.772H362.68L364.156 586.148L365.332 580.772H366.376ZM371.584 580.242H371.015L370.201 578.378V580.682H369.704V577.838H370.554L371.332 579.681L372.145 577.838H372.923V580.682H372.404V578.399L371.584 580.242ZM366.882 578.313V577.838H369.272V578.313H368.336V580.682H367.825V578.313H366.882ZM381.075 585.692H380.583H380.571L380.583 585.68L377.979 579.98V587H376.911V578.396H378.483L381.159 584.432L383.955 578.396H385.419V587H384.279V580.076L381.639 585.68L381.075 585.692ZM391.274 585.884C391.106 586.228 390.846 586.52 390.494 586.76C390.15 587 389.698 587.12 389.138 587.12C388.562 587.12 388.094 586.956 387.734 586.628C387.382 586.3 387.206 585.8 387.206 585.128V580.772H388.274V585.128C388.274 585.536 388.386 585.812 388.61 585.956C388.834 586.1 389.11 586.172 389.438 586.172C389.902 586.172 390.274 586.068 390.554 585.86C390.834 585.652 391.074 585.368 391.274 585.008V580.772H392.33V587H391.394L391.298 585.884H391.274ZM394.063 578.396H395.119V587H394.063V578.396ZM396.337 581.672V580.772H397.081V579.464H398.137V580.772H399.949V581.672H398.137V585.416C398.137 585.68 398.205 585.872 398.341 585.992C398.477 586.112 398.709 586.172 399.037 586.172C399.349 586.172 399.633 586.084 399.889 585.908V586.868C399.761 586.948 399.593 587.008 399.385 587.048C399.177 587.096 398.969 587.12 398.761 587.12C398.361 587.12 398.037 587.044 397.789 586.892C397.541 586.74 397.361 586.544 397.249 586.304C397.137 586.064 397.081 585.812 397.081 585.548V581.672H396.337ZM401.834 579.86C401.618 579.86 401.446 579.796 401.318 579.668C401.19 579.532 401.126 579.368 401.126 579.176C401.126 578.984 401.19 578.82 401.318 578.684C401.446 578.548 401.618 578.48 401.834 578.48C402.042 578.48 402.206 578.548 402.326 578.684C402.446 578.82 402.506 578.984 402.506 579.176C402.506 579.368 402.446 579.532 402.326 579.668C402.206 579.796 402.042 579.86 401.834 579.86ZM401.294 580.772H402.35V587H401.294V580.772ZM403.927 583.82V582.86H406.807V583.82H403.927ZM407.891 581.672V580.772H408.635V579.464H409.691V580.772H411.503V581.672H409.691V585.416C409.691 585.68 409.759 585.872 409.895 585.992C410.031 586.112 410.263 586.172 410.591 586.172C410.903 586.172 411.187 586.084 411.443 585.908V586.868C411.315 586.948 411.147 587.008 410.939 587.048C410.731 587.096 410.523 587.12 410.315 587.12C409.915 587.12 409.591 587.044 409.343 586.892C409.095 586.74 408.915 586.544 408.803 586.304C408.691 586.064 408.635 585.812 408.635 585.548V581.672H407.891ZM415.433 587.12C414.393 587.12 413.597 586.836 413.045 586.268C412.501 585.692 412.229 584.896 412.229 583.88C412.229 583.2 412.357 582.62 412.613 582.14C412.869 581.66 413.221 581.292 413.669 581.036C414.117 580.78 414.621 580.652 415.181 580.652C416.133 580.652 416.833 580.968 417.281 581.6C417.729 582.224 417.873 583.08 417.713 584.168H413.321C413.409 585.504 414.145 586.172 415.529 586.172C416.289 586.172 416.989 585.956 417.629 585.524V586.472C417.341 586.672 417.005 586.832 416.621 586.952C416.237 587.064 415.841 587.12 415.433 587.12ZM415.157 581.588C414.701 581.588 414.309 581.728 413.981 582.008C413.653 582.288 413.445 582.712 413.357 583.28H416.705C416.729 582.744 416.605 582.328 416.333 582.032C416.061 581.736 415.669 581.588 415.157 581.588ZM421.988 581.588C421.508 581.588 421.116 581.7 420.812 581.924C420.516 582.14 420.276 582.42 420.092 582.764V587H419.036V580.772H420.032L420.068 581.888H420.092C420.26 581.536 420.524 581.244 420.884 581.012C421.244 580.772 421.7 580.652 422.252 580.652C422.868 580.652 423.356 580.816 423.716 581.144C424.084 581.472 424.268 581.968 424.268 582.632V587H423.212V582.74C423.212 582.316 423.1 582.02 422.876 581.852C422.66 581.676 422.364 581.588 421.988 581.588ZM428.05 581.588C427.386 581.588 426.714 581.792 426.034 582.2V581.252C426.33 581.068 426.67 580.924 427.054 580.82C427.446 580.708 427.826 580.652 428.194 580.652C428.978 580.652 429.574 580.816 429.982 581.144C430.39 581.472 430.594 581.972 430.594 582.644V585.992C430.594 586.128 430.598 586.304 430.606 586.52C430.622 586.728 430.638 586.888 430.654 587H429.694C429.67 586.888 429.646 586.732 429.622 586.532C429.606 586.324 429.598 586.144 429.598 585.992L429.586 585.812C429.49 586.004 429.358 586.204 429.19 586.412C429.022 586.612 428.798 586.78 428.518 586.916C428.246 587.052 427.906 587.12 427.498 587.12C426.938 587.12 426.486 586.96 426.142 586.64C425.798 586.32 425.626 585.868 425.626 585.284C425.626 584.604 425.866 584.104 426.346 583.784C426.826 583.464 427.502 583.304 428.374 583.304H429.538V582.788C429.538 582.356 429.426 582.048 429.202 581.864C428.978 581.68 428.594 581.588 428.05 581.588ZM429.538 584.6V584.144H428.482C427.85 584.144 427.39 584.236 427.102 584.42C426.822 584.604 426.682 584.872 426.682 585.224C426.682 585.504 426.766 585.732 426.934 585.908C427.11 586.084 427.374 586.172 427.726 586.172C428.054 586.172 428.334 586.108 428.566 585.98C428.798 585.844 428.986 585.684 429.13 585.5C429.274 585.308 429.378 585.128 429.442 584.96C429.506 584.792 429.538 584.672 429.538 584.6ZM435.207 581.588C434.727 581.588 434.335 581.7 434.031 581.924C433.735 582.14 433.495 582.42 433.311 582.764V587H432.255V580.772H433.251L433.287 581.888H433.311C433.479 581.536 433.743 581.244 434.103 581.012C434.463 580.772 434.919 580.652 435.471 580.652C436.087 580.652 436.575 580.816 436.935 581.144C437.303 581.472 437.487 581.968 437.487 582.632V587H436.431V582.74C436.431 582.316 436.319 582.02 436.095 581.852C435.879 581.676 435.583 581.588 435.207 581.588ZM438.653 581.672V580.772H439.397V579.464H440.453V580.772H442.265V581.672H440.453V585.416C440.453 585.68 440.521 585.872 440.657 585.992C440.793 586.112 441.025 586.172 441.353 586.172C441.665 586.172 441.949 586.084 442.205 585.908V586.868C442.077 586.948 441.909 587.008 441.701 587.048C441.493 587.096 441.285 587.12 441.077 587.12C440.677 587.12 440.353 587.044 440.105 586.892C439.857 586.74 439.677 586.544 439.565 586.304C439.453 586.064 439.397 585.812 439.397 585.548V581.672H438.653ZM446.157 578.396H447.285V585.98H451.473V587H446.157V578.396ZM454.933 581.588C454.269 581.588 453.597 581.792 452.917 582.2V581.252C453.213 581.068 453.553 580.924 453.937 580.82C454.329 580.708 454.709 580.652 455.077 580.652C455.861 580.652 456.457 580.816 456.865 581.144C457.273 581.472 457.477 581.972 457.477 582.644V585.992C457.477 586.128 457.481 586.304 457.489 586.52C457.505 586.728 457.521 586.888 457.537 587H456.577C456.553 586.888 456.529 586.732 456.505 586.532C456.489 586.324 456.481 586.144 456.481 585.992L456.469 585.812C456.373 586.004 456.241 586.204 456.073 586.412C455.905 586.612 455.681 586.78 455.401 586.916C455.129 587.052 454.789 587.12 454.381 587.12C453.821 587.12 453.369 586.96 453.025 586.64C452.681 586.32 452.509 585.868 452.509 585.284C452.509 584.604 452.749 584.104 453.229 583.784C453.709 583.464 454.385 583.304 455.257 583.304H456.421V582.788C456.421 582.356 456.309 582.048 456.085 581.864C455.861 581.68 455.477 581.588 454.933 581.588ZM456.421 584.6V584.144H455.365C454.733 584.144 454.273 584.236 453.985 584.42C453.705 584.604 453.565 584.872 453.565 585.224C453.565 585.504 453.649 585.732 453.817 585.908C453.993 586.084 454.257 586.172 454.609 586.172C454.937 586.172 455.217 586.108 455.449 585.98C455.681 585.844 455.869 585.684 456.013 585.5C456.157 585.308 456.261 585.128 456.325 584.96C456.389 584.792 456.421 584.672 456.421 584.6ZM459.678 589.244C459.35 589.244 459.078 589.2 458.862 589.112V588.092C459.022 588.228 459.282 588.296 459.642 588.296C459.922 588.296 460.158 588.228 460.35 588.092C460.55 587.964 460.742 587.74 460.926 587.42L458.394 580.772H459.558L461.538 586.028L463.506 580.772H464.526L462.198 586.928C461.878 587.752 461.522 588.344 461.13 588.704C460.738 589.064 460.254 589.244 459.678 589.244ZM468.097 587.12C467.057 587.12 466.261 586.836 465.709 586.268C465.165 585.692 464.893 584.896 464.893 583.88C464.893 583.2 465.021 582.62 465.277 582.14C465.533 581.66 465.885 581.292 466.333 581.036C466.781 580.78 467.285 580.652 467.845 580.652C468.797 580.652 469.497 580.968 469.945 581.6C470.393 582.224 470.537 583.08 470.377 584.168H465.985C466.073 585.504 466.809 586.172 468.193 586.172C468.953 586.172 469.653 585.956 470.293 585.524V586.472C470.005 586.672 469.669 586.832 469.285 586.952C468.901 587.064 468.505 587.12 468.097 587.12ZM467.821 581.588C467.365 581.588 466.973 581.728 466.645 582.008C466.317 582.288 466.109 582.712 466.021 583.28H469.369C469.393 582.744 469.269 582.328 468.997 582.032C468.725 581.736 468.333 581.588 467.821 581.588ZM474.784 581.828C474.288 581.868 473.864 581.992 473.512 582.2C473.168 582.408 472.916 582.688 472.756 583.04V587H471.7V580.772H472.624L472.732 582.128H472.756C472.956 581.712 473.228 581.376 473.572 581.12C473.924 580.864 474.328 580.708 474.784 580.652V581.828Z" fill="black" fill-opacity="0.85"/>
<rect x="-1" y="1" width="162" height="139" rx="9" transform="matrix(-1 0 0 1 230 72)" fill="white"/>
<rect x="-1" y="1" width="162" height="139" rx="9" transform="matrix(-1 0 0 1 230 72)" stroke="#5282FF" stroke-width="2"/>
<rect x="-1" y="1" width="162" height="139" rx="9" transform="matrix(-1 0 0 1 220 83)" fill="white"/>
<rect x="71" y="96" width="138" height="60" rx="10" fill="#D6E1FF"/>
<path d="M94.1632 132H92.4132L91.4892 129.368H87.2612L86.3372 132H84.8392L88.3812 121.962H90.6072L94.1632 132ZM87.7792 127.912H90.9712L89.3752 123.39L87.7792 127.912ZM95.1639 124.734H96.6479L96.7599 126.036C96.9932 125.597 97.3106 125.247 97.7119 124.986C98.1226 124.725 98.6172 124.594 99.1959 124.594C99.7652 124.594 100.293 124.734 100.778 125.014C101.263 125.285 101.651 125.7 101.94 126.26C102.239 126.811 102.388 127.511 102.388 128.36C102.388 129.209 102.239 129.914 101.94 130.474C101.651 131.034 101.259 131.454 100.764 131.734C100.279 132.005 99.7466 132.14 99.1679 132.14C98.6172 132.14 98.1412 132.019 97.7399 131.776C97.3479 131.524 97.0306 131.188 96.7879 130.768V134.478H95.1639V124.734ZM100.722 128.36C100.722 127.557 100.54 126.955 100.176 126.554C99.8212 126.143 99.3592 125.938 98.7899 125.938C98.2206 125.938 97.7399 126.139 97.3479 126.54C96.9652 126.941 96.7739 127.548 96.7739 128.36C96.7739 129.181 96.9652 129.793 97.3479 130.194C97.7399 130.586 98.2159 130.782 98.7759 130.782C99.3452 130.782 99.8119 130.581 100.176 130.18C100.54 129.779 100.722 129.172 100.722 128.36ZM106.243 125.938C105.441 125.938 104.629 126.162 103.807 126.61V125.252C104.162 125.056 104.582 124.897 105.067 124.776C105.553 124.655 106.033 124.594 106.509 124.594C107.443 124.594 108.161 124.79 108.665 125.182C109.179 125.574 109.435 126.19 109.435 127.03V130.824C109.435 130.983 109.44 131.188 109.449 131.44C109.468 131.683 109.487 131.869 109.505 132H107.993C107.965 131.869 107.937 131.687 107.909 131.454C107.891 131.211 107.881 131.001 107.881 130.824L107.867 130.74C107.765 130.964 107.615 131.183 107.419 131.398C107.233 131.613 106.99 131.79 106.691 131.93C106.393 132.07 106.019 132.14 105.571 132.14C104.946 132.14 104.414 131.963 103.975 131.608C103.546 131.244 103.331 130.717 103.331 130.026C103.331 129.242 103.625 128.649 104.213 128.248C104.801 127.847 105.632 127.646 106.705 127.646H107.811V127.198C107.811 126.731 107.69 126.405 107.447 126.218C107.205 126.031 106.803 125.938 106.243 125.938ZM107.811 129.2V128.71H106.803C106.15 128.71 105.674 128.813 105.375 129.018C105.086 129.214 104.941 129.494 104.941 129.858C104.941 130.175 105.03 130.427 105.207 130.614C105.394 130.791 105.665 130.88 106.019 130.88C106.365 130.88 106.654 130.81 106.887 130.67C107.121 130.521 107.303 130.348 107.433 130.152C107.573 129.956 107.671 129.769 107.727 129.592C107.783 129.405 107.811 129.275 107.811 129.2ZM114.533 132.14C113.357 132.14 112.429 131.809 111.747 131.146C111.075 130.474 110.739 129.545 110.739 128.36C110.739 127.184 111.08 126.265 111.761 125.602C112.443 124.93 113.376 124.594 114.561 124.594C115.513 124.594 116.255 124.79 116.787 125.182V126.526C116.461 126.321 116.125 126.171 115.779 126.078C115.443 125.985 115.07 125.938 114.659 125.938C113.147 125.938 112.391 126.745 112.391 128.36C112.391 129.975 113.133 130.782 114.617 130.782C115.401 130.782 116.125 130.591 116.787 130.208V131.552C116.181 131.944 115.429 132.14 114.533 132.14ZM121.743 125.938C121.277 125.938 120.885 126.041 120.567 126.246C120.259 126.451 120.007 126.708 119.811 127.016V132H118.187V121.962H119.811V124.65L119.797 125.924H119.811C120.017 125.551 120.315 125.238 120.707 124.986C121.099 124.725 121.603 124.594 122.219 124.594C122.929 124.594 123.507 124.785 123.955 125.168C124.403 125.551 124.627 126.134 124.627 126.918V132H123.003V127.086C123.003 126.666 122.891 126.372 122.667 126.204C122.443 126.027 122.135 125.938 121.743 125.938ZM129.905 132.14C128.579 132.14 127.585 131.809 126.923 131.146C126.26 130.474 125.929 129.545 125.929 128.36C125.929 127.576 126.083 126.904 126.391 126.344C126.699 125.775 127.123 125.341 127.665 125.042C128.206 124.743 128.822 124.594 129.513 124.594C130.679 124.594 131.538 124.972 132.089 125.728C132.649 126.484 132.831 127.511 132.635 128.808H127.609C127.674 129.471 127.893 129.97 128.267 130.306C128.649 130.633 129.233 130.796 130.017 130.796C130.885 130.796 131.697 130.572 132.453 130.124V131.468C131.743 131.916 130.894 132.14 129.905 132.14ZM129.513 125.882C129.037 125.882 128.631 126.031 128.295 126.33C127.968 126.619 127.753 127.049 127.651 127.618H131.081C131.099 127.058 130.973 126.629 130.703 126.33C130.432 126.031 130.035 125.882 129.513 125.882ZM145.487 132H143.737L142.813 129.368H138.585L137.661 132H136.163L139.705 121.962H141.931L145.487 132ZM139.103 127.912H142.295L140.699 123.39L139.103 127.912ZM147.451 123.81C147.152 123.81 146.905 123.717 146.709 123.53C146.522 123.334 146.429 123.101 146.429 122.83C146.429 122.55 146.522 122.312 146.709 122.116C146.905 121.92 147.152 121.822 147.451 121.822C147.74 121.822 147.978 121.92 148.165 122.116C148.361 122.312 148.459 122.55 148.459 122.83C148.459 123.101 148.361 123.334 148.165 123.53C147.978 123.717 147.74 123.81 147.451 123.81ZM146.639 124.734H148.263V132H146.639V124.734ZM154.116 126.302C153.565 126.302 153.08 126.395 152.66 126.582C152.24 126.769 151.922 127.039 151.708 127.394V132H150.084V124.734H151.568L151.68 126.26H151.708C151.95 125.775 152.277 125.392 152.688 125.112C153.108 124.823 153.584 124.65 154.116 124.594V126.302ZM156.043 132V126.05H155.175V124.734H156.043V124.608C156.043 123.74 156.295 123.063 156.799 122.578C157.303 122.083 157.975 121.836 158.815 121.836C159.048 121.836 159.244 121.85 159.403 121.878C159.571 121.897 159.72 121.925 159.851 121.962V123.334C159.767 123.306 159.641 123.273 159.473 123.236C159.314 123.199 159.137 123.18 158.941 123.18C158.549 123.18 158.236 123.297 158.003 123.53C157.77 123.763 157.653 124.123 157.653 124.608V124.734H159.697V126.05H157.653V132H156.043ZM161.049 121.962H162.673V132H161.049V121.962ZM167.644 132.14C166.963 132.14 166.347 131.995 165.796 131.706C165.255 131.407 164.825 130.978 164.508 130.418C164.2 129.858 164.046 129.172 164.046 128.36C164.046 127.557 164.2 126.876 164.508 126.316C164.825 125.756 165.255 125.331 165.796 125.042C166.347 124.743 166.963 124.594 167.644 124.594C168.325 124.594 168.937 124.743 169.478 125.042C170.029 125.331 170.463 125.756 170.78 126.316C171.097 126.876 171.256 127.557 171.256 128.36C171.256 129.172 171.097 129.858 170.78 130.418C170.463 130.978 170.029 131.407 169.478 131.706C168.937 131.995 168.325 132.14 167.644 132.14ZM167.644 130.782C168.204 130.782 168.666 130.586 169.03 130.194C169.403 129.802 169.59 129.191 169.59 128.36C169.59 127.539 169.403 126.932 169.03 126.54C168.666 126.139 168.204 125.938 167.644 125.938C167.084 125.938 166.617 126.139 166.244 126.54C165.88 126.932 165.698 127.539 165.698 128.36C165.698 129.191 165.88 129.802 166.244 130.194C166.617 130.586 167.084 130.782 167.644 130.782ZM182.516 124.734L180.934 132H178.61L177.224 126.792L175.824 132H173.528L171.932 124.734H173.598L174.83 130.67L176.468 124.734H178.162L179.758 130.642L180.99 124.734H182.516ZM192.146 126.638H190.914L189.612 123.46V127.492H188.492V121.962H190.284L191.642 125.322L193.112 121.962H194.75V127.492H193.49V123.488L192.146 126.638ZM182.99 123.04V121.962H187.708V123.04H185.972V127.492H184.726V123.04H182.99Z" fill="#262626"/>
<path d="M94.87 194H93.466L90.466 190.316H89.554V194H88.426V185.396H89.554V189.296H90.394L93.466 185.396H94.738L91.342 189.692L94.87 194ZM98.4415 194.12C97.8815 194.12 97.3815 194.024 96.9415 193.832C96.5095 193.64 96.1695 193.364 95.9215 193.004C95.6735 192.636 95.5495 192.196 95.5495 191.684C95.5495 191.132 95.6935 190.664 95.9815 190.28C96.2775 189.888 96.6735 189.604 97.1695 189.428C96.7695 189.268 96.4495 189.024 96.2095 188.696C95.9775 188.368 95.8615 187.964 95.8615 187.484C95.8615 187.012 95.9735 186.612 96.1975 186.284C96.4215 185.956 96.7295 185.708 97.1215 185.54C97.5135 185.372 97.9535 185.288 98.4415 185.288C98.9215 185.288 99.3535 185.372 99.7375 185.54C100.121 185.7 100.425 185.94 100.649 186.26C100.881 186.58 100.997 186.98 100.997 187.46C100.997 187.948 100.877 188.356 100.637 188.684C100.397 189.012 100.081 189.26 99.6895 189.428C100.169 189.596 100.553 189.868 100.841 190.244C101.137 190.62 101.285 191.088 101.285 191.648C101.285 192.16 101.161 192.604 100.913 192.98C100.665 193.348 100.325 193.632 99.8935 193.832C99.4695 194.024 98.9855 194.12 98.4415 194.12ZM98.4415 188.996C98.8655 188.996 99.2135 188.876 99.4855 188.636C99.7655 188.388 99.9055 188.048 99.9055 187.616C99.9055 187.184 99.7655 186.848 99.4855 186.608C99.2135 186.36 98.8655 186.236 98.4415 186.236C98.0175 186.236 97.6615 186.36 97.3735 186.608C97.0935 186.848 96.9535 187.184 96.9535 187.616C96.9535 188.048 97.0935 188.388 97.3735 188.636C97.6615 188.876 98.0175 188.996 98.4415 188.996ZM98.4415 193.172C98.9375 193.172 99.3495 193.028 99.6775 192.74C100.013 192.444 100.181 192.032 100.181 191.504C100.181 190.976 100.013 190.568 99.6775 190.28C99.3495 189.984 98.9375 189.836 98.4415 189.836C97.9295 189.836 97.5015 189.984 97.1575 190.28C96.8215 190.568 96.6535 190.976 96.6535 191.504C96.6535 192.032 96.8215 192.444 97.1575 192.74C97.5015 193.028 97.9295 193.172 98.4415 193.172ZM104.559 194.12C104.103 194.12 103.667 194.056 103.251 193.928C102.843 193.792 102.511 193.612 102.255 193.388V192.44C102.503 192.68 102.835 192.872 103.251 193.016C103.675 193.16 104.107 193.232 104.547 193.232C105.523 193.232 106.011 192.916 106.011 192.284C106.011 192.1 105.967 191.952 105.879 191.84C105.799 191.72 105.647 191.62 105.423 191.54C105.199 191.452 104.875 191.368 104.451 191.288C103.643 191.128 103.079 190.912 102.759 190.64C102.439 190.36 102.279 189.964 102.279 189.452C102.279 188.884 102.499 188.444 102.939 188.132C103.379 187.812 103.987 187.652 104.763 187.652C105.131 187.652 105.491 187.692 105.843 187.772C106.203 187.844 106.495 187.944 106.719 188.072V189.02C106.255 188.7 105.615 188.54 104.799 188.54C104.295 188.54 103.923 188.612 103.683 188.756C103.451 188.9 103.335 189.124 103.335 189.428C103.335 189.588 103.371 189.72 103.443 189.824C103.515 189.928 103.659 190.02 103.875 190.1C104.091 190.18 104.415 190.264 104.847 190.352C105.399 190.464 105.835 190.6 106.155 190.76C106.483 190.912 106.715 191.108 106.851 191.348C106.995 191.588 107.067 191.892 107.067 192.26C107.067 192.844 106.847 193.3 106.407 193.628C105.967 193.956 105.351 194.12 104.559 194.12ZM110.914 185.396H112.438L116.758 192.62V185.396H117.838V194H116.302L111.982 186.788V194H110.914V185.396ZM122.256 194.12C121.688 194.12 121.176 193.996 120.72 193.748C120.272 193.492 119.916 193.124 119.652 192.644C119.388 192.156 119.256 191.568 119.256 190.88C119.256 190.192 119.388 189.608 119.652 189.128C119.916 188.648 120.272 188.284 120.72 188.036C121.176 187.78 121.688 187.652 122.256 187.652C122.832 187.652 123.348 187.78 123.804 188.036C124.26 188.284 124.62 188.648 124.884 189.128C125.148 189.608 125.28 190.192 125.28 190.88C125.28 191.568 125.148 192.156 124.884 192.644C124.62 193.124 124.26 193.492 123.804 193.748C123.348 193.996 122.832 194.12 122.256 194.12ZM122.256 193.172C122.816 193.172 123.28 192.988 123.648 192.62C124.016 192.244 124.2 191.664 124.2 190.88C124.2 190.096 124.016 189.52 123.648 189.152C123.28 188.776 122.816 188.588 122.256 188.588C121.704 188.588 121.244 188.776 120.876 189.152C120.516 189.52 120.336 190.096 120.336 190.88C120.336 191.664 120.516 192.244 120.876 192.62C121.244 192.988 121.704 193.172 122.256 193.172ZM126.123 190.88C126.123 190.152 126.251 189.552 126.507 189.08C126.763 188.6 127.103 188.244 127.527 188.012C127.959 187.772 128.427 187.652 128.931 187.652C129.403 187.652 129.811 187.752 130.155 187.952C130.499 188.144 130.775 188.42 130.983 188.78V185.396H132.039V194H131.115L131.031 192.776C130.839 193.184 130.567 193.512 130.215 193.76C129.871 194 129.439 194.12 128.919 194.12C128.423 194.12 127.959 194.004 127.527 193.772C127.103 193.532 126.763 193.172 126.507 192.692C126.251 192.212 126.123 191.608 126.123 190.88ZM130.995 190.88C130.995 190.104 130.811 189.528 130.443 189.152C130.075 188.776 129.619 188.588 129.075 188.588C128.531 188.588 128.083 188.784 127.731 189.176C127.379 189.56 127.203 190.128 127.203 190.88C127.203 191.64 127.379 192.212 127.731 192.596C128.083 192.98 128.531 193.172 129.075 193.172C129.619 193.172 130.075 192.984 130.443 192.608C130.811 192.232 130.995 191.656 130.995 190.88ZM136.522 194.12C135.482 194.12 134.686 193.836 134.134 193.268C133.59 192.692 133.318 191.896 133.318 190.88C133.318 190.2 133.446 189.62 133.702 189.14C133.958 188.66 134.31 188.292 134.758 188.036C135.206 187.78 135.71 187.652 136.27 187.652C137.222 187.652 137.922 187.968 138.37 188.6C138.818 189.224 138.962 190.08 138.802 191.168H134.41C134.498 192.504 135.234 193.172 136.618 193.172C137.378 193.172 138.078 192.956 138.718 192.524V193.472C138.43 193.672 138.094 193.832 137.71 193.952C137.326 194.064 136.93 194.12 136.522 194.12ZM136.246 188.588C135.79 188.588 135.398 188.728 135.07 189.008C134.742 189.288 134.534 189.712 134.446 190.28H137.794C137.818 189.744 137.694 189.328 137.422 189.032C137.15 188.736 136.758 188.588 136.246 188.588ZM146.272 193.1C146.872 193.1 147.356 193 147.724 192.8C148.092 192.6 148.36 192.328 148.528 191.984C148.696 191.632 148.78 191.232 148.78 190.784V190.544H146.008V189.524H149.944V190.628C149.944 191.292 149.812 191.888 149.548 192.416C149.284 192.944 148.88 193.36 148.336 193.664C147.792 193.968 147.104 194.12 146.272 194.12C145.464 194.12 144.748 193.936 144.124 193.568C143.508 193.2 143.028 192.688 142.684 192.032C142.34 191.368 142.168 190.592 142.168 189.704C142.168 188.816 142.336 188.044 142.672 187.388C143.008 186.724 143.504 186.208 144.16 185.84C144.824 185.472 145.636 185.288 146.596 185.288C147.708 185.288 148.632 185.536 149.368 186.032V187.112C148.896 186.832 148.436 186.628 147.988 186.5C147.548 186.372 147.072 186.308 146.56 186.308C145.472 186.308 144.672 186.608 144.16 187.208C143.648 187.8 143.392 188.632 143.392 189.704C143.392 190.768 143.648 191.6 144.16 192.2C144.672 192.8 145.376 193.1 146.272 193.1ZM154.483 188.828C153.987 188.868 153.563 188.992 153.211 189.2C152.867 189.408 152.615 189.688 152.455 190.04V194H151.399V187.772H152.323L152.431 189.128H152.455C152.655 188.712 152.927 188.376 153.271 188.12C153.623 187.864 154.027 187.708 154.483 187.652V188.828ZM158.022 194.12C157.454 194.12 156.942 193.996 156.486 193.748C156.038 193.492 155.682 193.124 155.418 192.644C155.154 192.156 155.022 191.568 155.022 190.88C155.022 190.192 155.154 189.608 155.418 189.128C155.682 188.648 156.038 188.284 156.486 188.036C156.942 187.78 157.454 187.652 158.022 187.652C158.598 187.652 159.114 187.78 159.57 188.036C160.026 188.284 160.386 188.648 160.65 189.128C160.914 189.608 161.046 190.192 161.046 190.88C161.046 191.568 160.914 192.156 160.65 192.644C160.386 193.124 160.026 193.492 159.57 193.748C159.114 193.996 158.598 194.12 158.022 194.12ZM158.022 193.172C158.582 193.172 159.046 192.988 159.414 192.62C159.782 192.244 159.966 191.664 159.966 190.88C159.966 190.096 159.782 189.52 159.414 189.152C159.046 188.776 158.582 188.588 158.022 188.588C157.47 188.588 157.01 188.776 156.642 189.152C156.282 189.52 156.102 190.096 156.102 190.88C156.102 191.664 156.282 192.244 156.642 192.62C157.01 192.988 157.47 193.172 158.022 193.172ZM166.329 192.884C166.161 193.228 165.901 193.52 165.549 193.76C165.205 194 164.753 194.12 164.193 194.12C163.617 194.12 163.149 193.956 162.789 193.628C162.437 193.3 162.261 192.8 162.261 192.128V187.772H163.329V192.128C163.329 192.536 163.441 192.812 163.665 192.956C163.889 193.1 164.165 193.172 164.493 193.172C164.957 193.172 165.329 193.068 165.609 192.86C165.889 192.652 166.129 192.368 166.329 192.008V187.772H167.385V194H166.449L166.353 192.884H166.329ZM169.118 187.772H170.042L170.15 188.984C170.35 188.584 170.626 188.264 170.978 188.024C171.338 187.776 171.778 187.652 172.298 187.652C172.786 187.652 173.234 187.772 173.642 188.012C174.058 188.244 174.394 188.6 174.65 189.08C174.906 189.552 175.034 190.152 175.034 190.88C175.034 191.608 174.902 192.212 174.638 192.692C174.382 193.172 174.042 193.532 173.618 193.772C173.202 194.004 172.746 194.12 172.25 194.12C171.778 194.12 171.366 194.008 171.014 193.784C170.662 193.56 170.382 193.252 170.174 192.86V196.124H169.118V187.772ZM173.942 190.88C173.942 190.128 173.77 189.56 173.426 189.176C173.082 188.784 172.638 188.588 172.094 188.588C171.55 188.588 171.09 188.78 170.714 189.164C170.346 189.54 170.162 190.112 170.162 190.88C170.162 191.656 170.346 192.232 170.714 192.608C171.09 192.984 171.55 193.172 172.094 193.172C172.638 193.172 173.082 192.98 173.426 192.596C173.77 192.212 173.942 191.64 173.942 190.88ZM180.108 194H179.148L179.652 191.516H178.332V190.676H179.832L180.276 188.492H178.656V187.652H180.444L180.912 185.396H181.872L181.404 187.652H183.204L183.672 185.396H184.632L184.164 187.652H185.508V188.492H183.996L183.552 190.676H185.184V191.516H183.372L182.868 194H181.908L182.412 191.516H180.612L180.108 194ZM180.792 190.676H182.592L183.036 188.492H181.236L180.792 190.676ZM190.448 194H189.356V186.752L186.98 188.576V187.364L189.536 185.396H190.448V194Z" fill="#262626"/>
<rect x="-1" y="1" width="162" height="139" rx="9" transform="matrix(-1 0 0 1 220 83)" stroke="#5282FF" stroke-width="2"/>
<rect x="-1" y="1" width="162" height="139" rx="9" transform="matrix(-1 0 0 1 690 72)" fill="white"/>
<rect x="-1" y="1" width="162" height="139" rx="9" transform="matrix(-1 0 0 1 690 72)" stroke="#5282FF" stroke-width="2"/>
<rect x="-1" y="1" width="162" height="139" rx="9" transform="matrix(-1 0 0 1 680 83)" fill="white"/>
<rect x="-1" y="1" width="162" height="139" rx="9" transform="matrix(-1 0 0 1 680 83)" stroke="#5282FF" stroke-width="2"/>
<rect x="531" y="96" width="138" height="60" rx="10" fill="#D6E1FF"/>
<path d="M554.163 131H552.413L551.489 128.368H547.261L546.337 131H544.839L548.381 120.962H550.607L554.163 131ZM547.779 126.912H550.971L549.375 122.39L547.779 126.912ZM555.164 123.734H556.648L556.76 125.036C556.993 124.597 557.311 124.247 557.712 123.986C558.123 123.725 558.617 123.594 559.196 123.594C559.765 123.594 560.293 123.734 560.778 124.014C561.263 124.285 561.651 124.7 561.94 125.26C562.239 125.811 562.388 126.511 562.388 127.36C562.388 128.209 562.239 128.914 561.94 129.474C561.651 130.034 561.259 130.454 560.764 130.734C560.279 131.005 559.747 131.14 559.168 131.14C558.617 131.14 558.141 131.019 557.74 130.776C557.348 130.524 557.031 130.188 556.788 129.768V133.478H555.164V123.734ZM560.722 127.36C560.722 126.557 560.54 125.955 560.176 125.554C559.821 125.143 559.359 124.938 558.79 124.938C558.221 124.938 557.74 125.139 557.348 125.54C556.965 125.941 556.774 126.548 556.774 127.36C556.774 128.181 556.965 128.793 557.348 129.194C557.74 129.586 558.216 129.782 558.776 129.782C559.345 129.782 559.812 129.581 560.176 129.18C560.54 128.779 560.722 128.172 560.722 127.36ZM566.243 124.938C565.441 124.938 564.629 125.162 563.807 125.61V124.252C564.162 124.056 564.582 123.897 565.067 123.776C565.553 123.655 566.033 123.594 566.509 123.594C567.443 123.594 568.161 123.79 568.665 124.182C569.179 124.574 569.435 125.19 569.435 126.03V129.824C569.435 129.983 569.44 130.188 569.449 130.44C569.468 130.683 569.487 130.869 569.505 131H567.993C567.965 130.869 567.937 130.687 567.909 130.454C567.891 130.211 567.881 130.001 567.881 129.824L567.867 129.74C567.765 129.964 567.615 130.183 567.419 130.398C567.233 130.613 566.99 130.79 566.691 130.93C566.393 131.07 566.019 131.14 565.571 131.14C564.946 131.14 564.414 130.963 563.975 130.608C563.546 130.244 563.331 129.717 563.331 129.026C563.331 128.242 563.625 127.649 564.213 127.248C564.801 126.847 565.632 126.646 566.705 126.646H567.811V126.198C567.811 125.731 567.69 125.405 567.447 125.218C567.205 125.031 566.803 124.938 566.243 124.938ZM567.811 128.2V127.71H566.803C566.15 127.71 565.674 127.813 565.375 128.018C565.086 128.214 564.941 128.494 564.941 128.858C564.941 129.175 565.03 129.427 565.207 129.614C565.394 129.791 565.665 129.88 566.019 129.88C566.365 129.88 566.654 129.81 566.887 129.67C567.121 129.521 567.303 129.348 567.433 129.152C567.573 128.956 567.671 128.769 567.727 128.592C567.783 128.405 567.811 128.275 567.811 128.2ZM574.533 131.14C573.357 131.14 572.429 130.809 571.747 130.146C571.075 129.474 570.739 128.545 570.739 127.36C570.739 126.184 571.08 125.265 571.761 124.602C572.443 123.93 573.376 123.594 574.561 123.594C575.513 123.594 576.255 123.79 576.787 124.182V125.526C576.461 125.321 576.125 125.171 575.779 125.078C575.443 124.985 575.07 124.938 574.659 124.938C573.147 124.938 572.391 125.745 572.391 127.36C572.391 128.975 573.133 129.782 574.617 129.782C575.401 129.782 576.125 129.591 576.787 129.208V130.552C576.181 130.944 575.429 131.14 574.533 131.14ZM581.743 124.938C581.277 124.938 580.885 125.041 580.567 125.246C580.259 125.451 580.007 125.708 579.811 126.016V131H578.187V120.962H579.811V123.65L579.797 124.924H579.811C580.017 124.551 580.315 124.238 580.707 123.986C581.099 123.725 581.603 123.594 582.219 123.594C582.929 123.594 583.507 123.785 583.955 124.168C584.403 124.551 584.627 125.134 584.627 125.918V131H583.003V126.086C583.003 125.666 582.891 125.372 582.667 125.204C582.443 125.027 582.135 124.938 581.743 124.938ZM589.905 131.14C588.579 131.14 587.585 130.809 586.923 130.146C586.26 129.474 585.929 128.545 585.929 127.36C585.929 126.576 586.083 125.904 586.391 125.344C586.699 124.775 587.123 124.341 587.665 124.042C588.206 123.743 588.822 123.594 589.513 123.594C590.679 123.594 591.538 123.972 592.089 124.728C592.649 125.484 592.831 126.511 592.635 127.808H587.609C587.674 128.471 587.893 128.97 588.267 129.306C588.649 129.633 589.233 129.796 590.017 129.796C590.885 129.796 591.697 129.572 592.453 129.124V130.468C591.743 130.916 590.894 131.14 589.905 131.14ZM589.513 124.882C589.037 124.882 588.631 125.031 588.295 125.33C587.968 125.619 587.753 126.049 587.651 126.618H591.081C591.099 126.058 590.973 125.629 590.703 125.33C590.432 125.031 590.035 124.882 589.513 124.882ZM605.487 131H603.737L602.813 128.368H598.585L597.661 131H596.163L599.705 120.962H601.931L605.487 131ZM599.103 126.912H602.295L600.699 122.39L599.103 126.912ZM607.451 122.81C607.152 122.81 606.905 122.717 606.709 122.53C606.522 122.334 606.429 122.101 606.429 121.83C606.429 121.55 606.522 121.312 606.709 121.116C606.905 120.92 607.152 120.822 607.451 120.822C607.74 120.822 607.978 120.92 608.165 121.116C608.361 121.312 608.459 121.55 608.459 121.83C608.459 122.101 608.361 122.334 608.165 122.53C607.978 122.717 607.74 122.81 607.451 122.81ZM606.639 123.734H608.263V131H606.639V123.734ZM614.116 125.302C613.565 125.302 613.08 125.395 612.66 125.582C612.24 125.769 611.922 126.039 611.708 126.394V131H610.084V123.734H611.568L611.68 125.26H611.708C611.95 124.775 612.277 124.392 612.688 124.112C613.108 123.823 613.584 123.65 614.116 123.594V125.302ZM616.043 131V125.05H615.175V123.734H616.043V123.608C616.043 122.74 616.295 122.063 616.799 121.578C617.303 121.083 617.975 120.836 618.815 120.836C619.048 120.836 619.244 120.85 619.403 120.878C619.571 120.897 619.72 120.925 619.851 120.962V122.334C619.767 122.306 619.641 122.273 619.473 122.236C619.314 122.199 619.137 122.18 618.941 122.18C618.549 122.18 618.236 122.297 618.003 122.53C617.77 122.763 617.653 123.123 617.653 123.608V123.734H619.697V125.05H617.653V131H616.043ZM621.049 120.962H622.673V131H621.049V120.962ZM627.644 131.14C626.963 131.14 626.347 130.995 625.796 130.706C625.255 130.407 624.825 129.978 624.508 129.418C624.2 128.858 624.046 128.172 624.046 127.36C624.046 126.557 624.2 125.876 624.508 125.316C624.825 124.756 625.255 124.331 625.796 124.042C626.347 123.743 626.963 123.594 627.644 123.594C628.325 123.594 628.937 123.743 629.478 124.042C630.029 124.331 630.463 124.756 630.78 125.316C631.097 125.876 631.256 126.557 631.256 127.36C631.256 128.172 631.097 128.858 630.78 129.418C630.463 129.978 630.029 130.407 629.478 130.706C628.937 130.995 628.325 131.14 627.644 131.14ZM627.644 129.782C628.204 129.782 628.666 129.586 629.03 129.194C629.403 128.802 629.59 128.191 629.59 127.36C629.59 126.539 629.403 125.932 629.03 125.54C628.666 125.139 628.204 124.938 627.644 124.938C627.084 124.938 626.617 125.139 626.244 125.54C625.88 125.932 625.698 126.539 625.698 127.36C625.698 128.191 625.88 128.802 626.244 129.194C626.617 129.586 627.084 129.782 627.644 129.782ZM642.516 123.734L640.934 131H638.61L637.224 125.792L635.824 131H633.528L631.932 123.734H633.598L634.83 129.67L636.468 123.734H638.162L639.758 129.642L640.99 123.734H642.516ZM652.146 125.638H650.914L649.612 122.46V126.492H648.492V120.962H650.284L651.642 124.322L653.112 120.962H654.75V126.492H653.49V122.488L652.146 125.638ZM642.99 122.04V120.962H647.708V122.04H645.972V126.492H644.726V122.04H642.99Z" fill="#262626"/>
<path d="M554.87 194H553.466L550.466 190.316H549.554V194H548.426V185.396H549.554V189.296H550.394L553.466 185.396H554.738L551.342 189.692L554.87 194ZM558.441 194.12C557.881 194.12 557.381 194.024 556.941 193.832C556.509 193.64 556.169 193.364 555.921 193.004C555.673 192.636 555.549 192.196 555.549 191.684C555.549 191.132 555.693 190.664 555.981 190.28C556.277 189.888 556.673 189.604 557.169 189.428C556.769 189.268 556.449 189.024 556.209 188.696C555.977 188.368 555.861 187.964 555.861 187.484C555.861 187.012 555.973 186.612 556.197 186.284C556.421 185.956 556.729 185.708 557.121 185.54C557.513 185.372 557.953 185.288 558.441 185.288C558.921 185.288 559.353 185.372 559.737 185.54C560.121 185.7 560.425 185.94 560.649 186.26C560.881 186.58 560.997 186.98 560.997 187.46C560.997 187.948 560.877 188.356 560.637 188.684C560.397 189.012 560.081 189.26 559.689 189.428C560.169 189.596 560.553 189.868 560.841 190.244C561.137 190.62 561.285 191.088 561.285 191.648C561.285 192.16 561.161 192.604 560.913 192.98C560.665 193.348 560.325 193.632 559.893 193.832C559.469 194.024 558.985 194.12 558.441 194.12ZM558.441 188.996C558.865 188.996 559.213 188.876 559.485 188.636C559.765 188.388 559.905 188.048 559.905 187.616C559.905 187.184 559.765 186.848 559.485 186.608C559.213 186.36 558.865 186.236 558.441 186.236C558.017 186.236 557.661 186.36 557.373 186.608C557.093 186.848 556.953 187.184 556.953 187.616C556.953 188.048 557.093 188.388 557.373 188.636C557.661 188.876 558.017 188.996 558.441 188.996ZM558.441 193.172C558.937 193.172 559.349 193.028 559.677 192.74C560.013 192.444 560.181 192.032 560.181 191.504C560.181 190.976 560.013 190.568 559.677 190.28C559.349 189.984 558.937 189.836 558.441 189.836C557.929 189.836 557.501 189.984 557.157 190.28C556.821 190.568 556.653 190.976 556.653 191.504C556.653 192.032 556.821 192.444 557.157 192.74C557.501 193.028 557.929 193.172 558.441 193.172ZM564.559 194.12C564.103 194.12 563.667 194.056 563.251 193.928C562.843 193.792 562.511 193.612 562.255 193.388V192.44C562.503 192.68 562.835 192.872 563.251 193.016C563.675 193.16 564.107 193.232 564.547 193.232C565.523 193.232 566.011 192.916 566.011 192.284C566.011 192.1 565.967 191.952 565.879 191.84C565.799 191.72 565.647 191.62 565.423 191.54C565.199 191.452 564.875 191.368 564.451 191.288C563.643 191.128 563.079 190.912 562.759 190.64C562.439 190.36 562.279 189.964 562.279 189.452C562.279 188.884 562.499 188.444 562.939 188.132C563.379 187.812 563.987 187.652 564.763 187.652C565.131 187.652 565.491 187.692 565.843 187.772C566.203 187.844 566.495 187.944 566.719 188.072V189.02C566.255 188.7 565.615 188.54 564.799 188.54C564.295 188.54 563.923 188.612 563.683 188.756C563.451 188.9 563.335 189.124 563.335 189.428C563.335 189.588 563.371 189.72 563.443 189.824C563.515 189.928 563.659 190.02 563.875 190.1C564.091 190.18 564.415 190.264 564.847 190.352C565.399 190.464 565.835 190.6 566.155 190.76C566.483 190.912 566.715 191.108 566.851 191.348C566.995 191.588 567.067 191.892 567.067 192.26C567.067 192.844 566.847 193.3 566.407 193.628C565.967 193.956 565.351 194.12 564.559 194.12ZM570.914 185.396H572.438L576.758 192.62V185.396H577.838V194H576.302L571.982 186.788V194H570.914V185.396ZM582.256 194.12C581.688 194.12 581.176 193.996 580.72 193.748C580.272 193.492 579.916 193.124 579.652 192.644C579.388 192.156 579.256 191.568 579.256 190.88C579.256 190.192 579.388 189.608 579.652 189.128C579.916 188.648 580.272 188.284 580.72 188.036C581.176 187.78 581.688 187.652 582.256 187.652C582.832 187.652 583.348 187.78 583.804 188.036C584.26 188.284 584.62 188.648 584.884 189.128C585.148 189.608 585.28 190.192 585.28 190.88C585.28 191.568 585.148 192.156 584.884 192.644C584.62 193.124 584.26 193.492 583.804 193.748C583.348 193.996 582.832 194.12 582.256 194.12ZM582.256 193.172C582.816 193.172 583.28 192.988 583.648 192.62C584.016 192.244 584.2 191.664 584.2 190.88C584.2 190.096 584.016 189.52 583.648 189.152C583.28 188.776 582.816 188.588 582.256 188.588C581.704 188.588 581.244 188.776 580.876 189.152C580.516 189.52 580.336 190.096 580.336 190.88C580.336 191.664 580.516 192.244 580.876 192.62C581.244 192.988 581.704 193.172 582.256 193.172ZM586.123 190.88C586.123 190.152 586.251 189.552 586.507 189.08C586.763 188.6 587.103 188.244 587.527 188.012C587.959 187.772 588.427 187.652 588.931 187.652C589.403 187.652 589.811 187.752 590.155 187.952C590.499 188.144 590.775 188.42 590.983 188.78V185.396H592.039V194H591.115L591.031 192.776C590.839 193.184 590.567 193.512 590.215 193.76C589.871 194 589.439 194.12 588.919 194.12C588.423 194.12 587.959 194.004 587.527 193.772C587.103 193.532 586.763 193.172 586.507 192.692C586.251 192.212 586.123 191.608 586.123 190.88ZM590.995 190.88C590.995 190.104 590.811 189.528 590.443 189.152C590.075 188.776 589.619 188.588 589.075 188.588C588.531 188.588 588.083 188.784 587.731 189.176C587.379 189.56 587.203 190.128 587.203 190.88C587.203 191.64 587.379 192.212 587.731 192.596C588.083 192.98 588.531 193.172 589.075 193.172C589.619 193.172 590.075 192.984 590.443 192.608C590.811 192.232 590.995 191.656 590.995 190.88ZM596.522 194.12C595.482 194.12 594.686 193.836 594.134 193.268C593.59 192.692 593.318 191.896 593.318 190.88C593.318 190.2 593.446 189.62 593.702 189.14C593.958 188.66 594.31 188.292 594.758 188.036C595.206 187.78 595.71 187.652 596.27 187.652C597.222 187.652 597.922 187.968 598.37 188.6C598.818 189.224 598.962 190.08 598.802 191.168H594.41C594.498 192.504 595.234 193.172 596.618 193.172C597.378 193.172 598.078 192.956 598.718 192.524V193.472C598.43 193.672 598.094 193.832 597.71 193.952C597.326 194.064 596.93 194.12 596.522 194.12ZM596.246 188.588C595.79 188.588 595.398 188.728 595.07 189.008C594.742 189.288 594.534 189.712 594.446 190.28H597.794C597.818 189.744 597.694 189.328 597.422 189.032C597.15 188.736 596.758 188.588 596.246 188.588ZM606.272 193.1C606.872 193.1 607.356 193 607.724 192.8C608.092 192.6 608.36 192.328 608.528 191.984C608.696 191.632 608.78 191.232 608.78 190.784V190.544H606.008V189.524H609.944V190.628C609.944 191.292 609.812 191.888 609.548 192.416C609.284 192.944 608.88 193.36 608.336 193.664C607.792 193.968 607.104 194.12 606.272 194.12C605.464 194.12 604.748 193.936 604.124 193.568C603.508 193.2 603.028 192.688 602.684 192.032C602.34 191.368 602.168 190.592 602.168 189.704C602.168 188.816 602.336 188.044 602.672 187.388C603.008 186.724 603.504 186.208 604.16 185.84C604.824 185.472 605.636 185.288 606.596 185.288C607.708 185.288 608.632 185.536 609.368 186.032V187.112C608.896 186.832 608.436 186.628 607.988 186.5C607.548 186.372 607.072 186.308 606.56 186.308C605.472 186.308 604.672 186.608 604.16 187.208C603.648 187.8 603.392 188.632 603.392 189.704C603.392 190.768 603.648 191.6 604.16 192.2C604.672 192.8 605.376 193.1 606.272 193.1ZM614.483 188.828C613.987 188.868 613.563 188.992 613.211 189.2C612.867 189.408 612.615 189.688 612.455 190.04V194H611.399V187.772H612.323L612.431 189.128H612.455C612.655 188.712 612.927 188.376 613.271 188.12C613.623 187.864 614.027 187.708 614.483 187.652V188.828ZM618.022 194.12C617.454 194.12 616.942 193.996 616.486 193.748C616.038 193.492 615.682 193.124 615.418 192.644C615.154 192.156 615.022 191.568 615.022 190.88C615.022 190.192 615.154 189.608 615.418 189.128C615.682 188.648 616.038 188.284 616.486 188.036C616.942 187.78 617.454 187.652 618.022 187.652C618.598 187.652 619.114 187.78 619.57 188.036C620.026 188.284 620.386 188.648 620.65 189.128C620.914 189.608 621.046 190.192 621.046 190.88C621.046 191.568 620.914 192.156 620.65 192.644C620.386 193.124 620.026 193.492 619.57 193.748C619.114 193.996 618.598 194.12 618.022 194.12ZM618.022 193.172C618.582 193.172 619.046 192.988 619.414 192.62C619.782 192.244 619.966 191.664 619.966 190.88C619.966 190.096 619.782 189.52 619.414 189.152C619.046 188.776 618.582 188.588 618.022 188.588C617.47 188.588 617.01 188.776 616.642 189.152C616.282 189.52 616.102 190.096 616.102 190.88C616.102 191.664 616.282 192.244 616.642 192.62C617.01 192.988 617.47 193.172 618.022 193.172ZM626.329 192.884C626.161 193.228 625.901 193.52 625.549 193.76C625.205 194 624.753 194.12 624.193 194.12C623.617 194.12 623.149 193.956 622.789 193.628C622.437 193.3 622.261 192.8 622.261 192.128V187.772H623.329V192.128C623.329 192.536 623.441 192.812 623.665 192.956C623.889 193.1 624.165 193.172 624.493 193.172C624.957 193.172 625.329 193.068 625.609 192.86C625.889 192.652 626.129 192.368 626.329 192.008V187.772H627.385V194H626.449L626.353 192.884H626.329ZM629.118 187.772H630.042L630.15 188.984C630.35 188.584 630.626 188.264 630.978 188.024C631.338 187.776 631.778 187.652 632.298 187.652C632.786 187.652 633.234 187.772 633.642 188.012C634.058 188.244 634.394 188.6 634.65 189.08C634.906 189.552 635.034 190.152 635.034 190.88C635.034 191.608 634.902 192.212 634.638 192.692C634.382 193.172 634.042 193.532 633.618 193.772C633.202 194.004 632.746 194.12 632.25 194.12C631.778 194.12 631.366 194.008 631.014 193.784C630.662 193.56 630.382 193.252 630.174 192.86V196.124H629.118V187.772ZM633.942 190.88C633.942 190.128 633.77 189.56 633.426 189.176C633.082 188.784 632.638 188.588 632.094 188.588C631.55 188.588 631.09 188.78 630.714 189.164C630.346 189.54 630.162 190.112 630.162 190.88C630.162 191.656 630.346 192.232 630.714 192.608C631.09 192.984 631.55 193.172 632.094 193.172C632.638 193.172 633.082 192.98 633.426 192.596C633.77 192.212 633.942 191.64 633.942 190.88ZM640.108 194H639.148L639.652 191.516H638.332V190.676H639.832L640.276 188.492H638.656V187.652H640.444L640.912 185.396H641.872L641.404 187.652H643.204L643.672 185.396H644.632L644.164 187.652H645.508V188.492H643.996L643.552 190.676H645.184V191.516H643.372L642.868 194H641.908L642.412 191.516H640.612L640.108 194ZM640.792 190.676H642.592L643.036 188.492H641.236L640.792 190.676ZM652.056 194H646.572V192.86C647.428 192.172 648.128 191.584 648.672 191.096C649.224 190.608 649.652 190.184 649.956 189.824C650.268 189.456 650.484 189.116 650.604 188.804C650.732 188.492 650.796 188.176 650.796 187.856C650.796 187.36 650.648 186.972 650.352 186.692C650.056 186.412 649.648 186.272 649.128 186.272C648.296 186.272 647.52 186.668 646.8 187.46V186.248C647.464 185.6 648.252 185.276 649.164 185.276C650.028 185.276 650.708 185.5 651.204 185.948C651.708 186.388 651.96 186.988 651.96 187.748C651.96 188.14 651.896 188.516 651.768 188.876C651.648 189.228 651.432 189.6 651.12 189.992C650.816 190.376 650.396 190.808 649.86 191.288C649.324 191.768 648.644 192.328 647.82 192.968H652.056V194Z" fill="#262626"/>
<path d="M280 441L138 441C133.582 441 130 437.418 130 433L130 224" stroke="#4E496B" stroke-width="2"/>
<path d="M360 471L365.774 461H354.226L360 471ZM184 442L352 442L352 440L184 440L184 442ZM359 449L359 462H361L361 449H359ZM352 442C355.866 442 359 445.134 359 449H361C361 444.029 356.971 440 352 440L352 442Z" fill="#4E496B"/>
<path d="M160 224L154.227 234L165.774 234L160 224ZM291 410L168 410L168 412L291 412L291 410ZM161 403L161 233L159 233L159 403L161 403ZM168 410C164.134 410 161 406.866 161 403L159 403C159 407.971 163.029 412 168 412L168 410Z" fill="#4E496B"/>
<path d="M205 411L352 411C356.418 411 360 407.418 360 403L360 381" stroke="#4E496B" stroke-width="2"/>
<path d="M590 224L595.773 234L584.226 234L590 224ZM439 410L582 410L582 412L439 412L439 410ZM589 403L589 233L591 233L591 403L589 403ZM582 410C585.866 410 589 406.866 589 403L591 403C591 407.971 586.971 412 582 412L582 410Z" fill="#4E496B"/>
<path d="M525 411L398 411C393.582 411 390 407.418 390 403L390 381" stroke="#4E496B" stroke-width="2"/>
<path d="M450 441L612 441C616.418 441 620 437.418 620 433L620 224" stroke="#4E496B" stroke-width="2"/>
<path d="M390 471L384.226 461H395.774L390 471ZM546 442L398 442L398 440L546 440L546 442ZM391 449L391 462H389L389 449H391ZM398 442C394.134 442 391 445.134 391 449H389C389 444.029 393.029 440 398 440L398 442Z" fill="#4E496B"/>
<rect x="-1" y="1" width="162" height="58" rx="9" transform="matrix(-1 0 0 1 465 310)" fill="white"/>
<rect x="-1" y="1" width="162" height="58" rx="9" transform="matrix(-1 0 0 1 465 310)" stroke="#5282FF" stroke-width="2"/>
<rect x="-1" y="1" width="162" height="58" rx="9" transform="matrix(-1 0 0 1 455 321)" fill="white"/>
<path d="M349.546 355H348.142L345.142 351.316H344.23V355H343.102V346.396H344.23V350.296H345.07L348.142 346.396H349.414L346.018 350.692L349.546 355ZM353.117 355.12C352.557 355.12 352.057 355.024 351.617 354.832C351.185 354.64 350.845 354.364 350.597 354.004C350.349 353.636 350.225 353.196 350.225 352.684C350.225 352.132 350.369 351.664 350.657 351.28C350.953 350.888 351.349 350.604 351.845 350.428C351.445 350.268 351.125 350.024 350.885 349.696C350.653 349.368 350.537 348.964 350.537 348.484C350.537 348.012 350.649 347.612 350.873 347.284C351.097 346.956 351.405 346.708 351.797 346.54C352.189 346.372 352.629 346.288 353.117 346.288C353.597 346.288 354.029 346.372 354.413 346.54C354.797 346.7 355.101 346.94 355.325 347.26C355.557 347.58 355.673 347.98 355.673 348.46C355.673 348.948 355.553 349.356 355.313 349.684C355.073 350.012 354.757 350.26 354.365 350.428C354.845 350.596 355.229 350.868 355.517 351.244C355.813 351.62 355.961 352.088 355.961 352.648C355.961 353.16 355.837 353.604 355.589 353.98C355.341 354.348 355.001 354.632 354.569 354.832C354.145 355.024 353.661 355.12 353.117 355.12ZM353.117 349.996C353.541 349.996 353.889 349.876 354.161 349.636C354.441 349.388 354.581 349.048 354.581 348.616C354.581 348.184 354.441 347.848 354.161 347.608C353.889 347.36 353.541 347.236 353.117 347.236C352.693 347.236 352.337 347.36 352.049 347.608C351.769 347.848 351.629 348.184 351.629 348.616C351.629 349.048 351.769 349.388 352.049 349.636C352.337 349.876 352.693 349.996 353.117 349.996ZM353.117 354.172C353.613 354.172 354.025 354.028 354.353 353.74C354.689 353.444 354.857 353.032 354.857 352.504C354.857 351.976 354.689 351.568 354.353 351.28C354.025 350.984 353.613 350.836 353.117 350.836C352.605 350.836 352.177 350.984 351.833 351.28C351.497 351.568 351.329 351.976 351.329 352.504C351.329 353.032 351.497 353.444 351.833 353.74C352.177 354.028 352.605 354.172 353.117 354.172ZM359.235 355.12C358.779 355.12 358.343 355.056 357.927 354.928C357.519 354.792 357.187 354.612 356.931 354.388V353.44C357.179 353.68 357.511 353.872 357.927 354.016C358.351 354.16 358.783 354.232 359.223 354.232C360.199 354.232 360.687 353.916 360.687 353.284C360.687 353.1 360.643 352.952 360.555 352.84C360.475 352.72 360.323 352.62 360.099 352.54C359.875 352.452 359.551 352.368 359.127 352.288C358.319 352.128 357.755 351.912 357.435 351.64C357.115 351.36 356.955 350.964 356.955 350.452C356.955 349.884 357.175 349.444 357.615 349.132C358.055 348.812 358.663 348.652 359.439 348.652C359.807 348.652 360.167 348.692 360.519 348.772C360.879 348.844 361.171 348.944 361.395 349.072V350.02C360.931 349.7 360.291 349.54 359.475 349.54C358.971 349.54 358.599 349.612 358.359 349.756C358.127 349.9 358.011 350.124 358.011 350.428C358.011 350.588 358.047 350.72 358.119 350.824C358.191 350.928 358.335 351.02 358.551 351.1C358.767 351.18 359.091 351.264 359.523 351.352C360.075 351.464 360.511 351.6 360.831 351.76C361.159 351.912 361.391 352.108 361.527 352.348C361.671 352.588 361.743 352.892 361.743 353.26C361.743 353.844 361.523 354.3 361.083 354.628C360.643 354.956 360.027 355.12 359.235 355.12ZM369.754 353.692H369.262H369.25L369.262 353.68L366.658 347.98V355H365.59V346.396H367.162L369.838 352.432L372.634 346.396H374.098V355H372.958V348.076L370.318 353.68L369.754 353.692ZM378.07 349.588C377.406 349.588 376.734 349.792 376.054 350.2V349.252C376.35 349.068 376.69 348.924 377.074 348.82C377.466 348.708 377.846 348.652 378.214 348.652C378.998 348.652 379.594 348.816 380.002 349.144C380.41 349.472 380.614 349.972 380.614 350.644V353.992C380.614 354.128 380.618 354.304 380.626 354.52C380.642 354.728 380.658 354.888 380.674 355H379.714C379.69 354.888 379.666 354.732 379.642 354.532C379.626 354.324 379.618 354.144 379.618 353.992L379.606 353.812C379.51 354.004 379.378 354.204 379.21 354.412C379.042 354.612 378.818 354.78 378.538 354.916C378.266 355.052 377.926 355.12 377.518 355.12C376.958 355.12 376.506 354.96 376.162 354.64C375.818 354.32 375.646 353.868 375.646 353.284C375.646 352.604 375.886 352.104 376.366 351.784C376.846 351.464 377.522 351.304 378.394 351.304H379.558V350.788C379.558 350.356 379.446 350.048 379.222 349.864C378.998 349.68 378.614 349.588 378.07 349.588ZM379.558 352.6V352.144H378.502C377.87 352.144 377.41 352.236 377.122 352.42C376.842 352.604 376.702 352.872 376.702 353.224C376.702 353.504 376.786 353.732 376.954 353.908C377.13 354.084 377.394 354.172 377.746 354.172C378.074 354.172 378.354 354.108 378.586 353.98C378.818 353.844 379.006 353.684 379.15 353.5C379.294 353.308 379.398 353.128 379.462 352.96C379.526 352.792 379.558 352.672 379.558 352.6ZM384.266 355.12C383.81 355.12 383.374 355.056 382.958 354.928C382.55 354.792 382.218 354.612 381.962 354.388V353.44C382.21 353.68 382.542 353.872 382.958 354.016C383.382 354.16 383.814 354.232 384.254 354.232C385.23 354.232 385.718 353.916 385.718 353.284C385.718 353.1 385.674 352.952 385.586 352.84C385.506 352.72 385.354 352.62 385.13 352.54C384.906 352.452 384.582 352.368 384.158 352.288C383.35 352.128 382.786 351.912 382.466 351.64C382.146 351.36 381.986 350.964 381.986 350.452C381.986 349.884 382.206 349.444 382.646 349.132C383.086 348.812 383.694 348.652 384.47 348.652C384.838 348.652 385.198 348.692 385.55 348.772C385.91 348.844 386.202 348.944 386.426 349.072V350.02C385.962 349.7 385.322 349.54 384.506 349.54C384.002 349.54 383.63 349.612 383.39 349.756C383.158 349.9 383.042 350.124 383.042 350.428C383.042 350.588 383.078 350.72 383.15 350.824C383.222 350.928 383.366 351.02 383.582 351.1C383.798 351.18 384.122 351.264 384.554 351.352C385.106 351.464 385.542 351.6 385.862 351.76C386.19 351.912 386.422 352.108 386.558 352.348C386.702 352.588 386.774 352.892 386.774 353.26C386.774 353.844 386.554 354.3 386.114 354.628C385.674 354.956 385.058 355.12 384.266 355.12ZM387.571 349.672V348.772H388.315V347.464H389.371V348.772H391.183V349.672H389.371V353.416C389.371 353.68 389.439 353.872 389.575 353.992C389.711 354.112 389.943 354.172 390.271 354.172C390.583 354.172 390.867 354.084 391.123 353.908V354.868C390.995 354.948 390.827 355.008 390.619 355.048C390.411 355.096 390.203 355.12 389.995 355.12C389.595 355.12 389.271 355.044 389.023 354.892C388.775 354.74 388.595 354.544 388.483 354.304C388.371 354.064 388.315 353.812 388.315 353.548V349.672H387.571ZM395.112 355.12C394.072 355.12 393.276 354.836 392.724 354.268C392.18 353.692 391.908 352.896 391.908 351.88C391.908 351.2 392.036 350.62 392.292 350.14C392.548 349.66 392.9 349.292 393.348 349.036C393.796 348.78 394.3 348.652 394.86 348.652C395.812 348.652 396.512 348.968 396.96 349.6C397.408 350.224 397.552 351.08 397.392 352.168H393C393.088 353.504 393.824 354.172 395.208 354.172C395.968 354.172 396.668 353.956 397.308 353.524V354.472C397.02 354.672 396.684 354.832 396.3 354.952C395.916 355.064 395.52 355.12 395.112 355.12ZM394.836 349.588C394.38 349.588 393.988 349.728 393.66 350.008C393.332 350.288 393.124 350.712 393.036 351.28H396.384C396.408 350.744 396.284 350.328 396.012 350.032C395.74 349.736 395.348 349.588 394.836 349.588ZM401.8 349.828C401.304 349.868 400.88 349.992 400.528 350.2C400.184 350.408 399.932 350.688 399.772 351.04V355H398.716V348.772H399.64L399.748 350.128H399.772C399.972 349.712 400.244 349.376 400.588 349.12C400.94 348.864 401.344 348.708 401.8 348.652V349.828ZM404.961 355.12C404.505 355.12 404.069 355.056 403.653 354.928C403.245 354.792 402.913 354.612 402.657 354.388V353.44C402.905 353.68 403.237 353.872 403.653 354.016C404.077 354.16 404.509 354.232 404.949 354.232C405.925 354.232 406.413 353.916 406.413 353.284C406.413 353.1 406.369 352.952 406.281 352.84C406.201 352.72 406.049 352.62 405.825 352.54C405.601 352.452 405.277 352.368 404.853 352.288C404.045 352.128 403.481 351.912 403.161 351.64C402.841 351.36 402.681 350.964 402.681 350.452C402.681 349.884 402.901 349.444 403.341 349.132C403.781 348.812 404.389 348.652 405.165 348.652C405.533 348.652 405.893 348.692 406.245 348.772C406.605 348.844 406.897 348.944 407.121 349.072V350.02C406.657 349.7 406.017 349.54 405.201 349.54C404.697 349.54 404.325 349.612 404.085 349.756C403.853 349.9 403.737 350.124 403.737 350.428C403.737 350.588 403.773 350.72 403.845 350.824C403.917 350.928 404.061 351.02 404.277 351.1C404.493 351.18 404.817 351.264 405.249 351.352C405.801 351.464 406.237 351.6 406.557 351.76C406.885 351.912 407.117 352.108 407.253 352.348C407.397 352.588 407.469 352.892 407.469 353.26C407.469 353.844 407.249 354.3 406.809 354.628C406.369 354.956 405.753 355.12 404.961 355.12Z" fill="#262626"/>
<rect x="-1" y="1" width="162" height="58" rx="9" transform="matrix(-1 0 0 1 455 321)" stroke="#5282FF" stroke-width="2"/>
<path d="M346.25 528.692H345.758H345.746L345.758 528.68L343.154 522.98V530H342.086V521.396H343.658L346.334 527.432L349.13 521.396H350.594V530H349.454V523.076L346.814 528.68L346.25 528.692ZM356.45 528.884C356.282 529.228 356.022 529.52 355.67 529.76C355.326 530 354.874 530.12 354.314 530.12C353.738 530.12 353.27 529.956 352.91 529.628C352.558 529.3 352.382 528.8 352.382 528.128V523.772H353.45V528.128C353.45 528.536 353.562 528.812 353.786 528.956C354.01 529.1 354.286 529.172 354.614 529.172C355.078 529.172 355.45 529.068 355.73 528.86C356.01 528.652 356.25 528.368 356.45 528.008V523.772H357.506V530H356.57L356.474 528.884H356.45ZM359.239 521.396H360.295V530H359.239V521.396ZM361.512 524.672V523.772H362.256V522.464H363.312V523.772H365.124V524.672H363.312V528.416C363.312 528.68 363.38 528.872 363.516 528.992C363.652 529.112 363.884 529.172 364.212 529.172C364.524 529.172 364.808 529.084 365.064 528.908V529.868C364.936 529.948 364.768 530.008 364.56 530.048C364.352 530.096 364.144 530.12 363.936 530.12C363.536 530.12 363.212 530.044 362.964 529.892C362.716 529.74 362.536 529.544 362.424 529.304C362.312 529.064 362.256 528.812 362.256 528.548V524.672H361.512ZM367.009 522.86C366.793 522.86 366.621 522.796 366.493 522.668C366.365 522.532 366.301 522.368 366.301 522.176C366.301 521.984 366.365 521.82 366.493 521.684C366.621 521.548 366.793 521.48 367.009 521.48C367.217 521.48 367.381 521.548 367.501 521.684C367.621 521.82 367.681 521.984 367.681 522.176C367.681 522.368 367.621 522.532 367.501 522.668C367.381 522.796 367.217 522.86 367.009 522.86ZM366.469 523.772H367.525V530H366.469V523.772ZM369.103 526.82V525.86H371.983V526.82H369.103ZM373.067 524.672V523.772H373.811V522.464H374.867V523.772H376.679V524.672H374.867V528.416C374.867 528.68 374.935 528.872 375.071 528.992C375.207 529.112 375.439 529.172 375.767 529.172C376.079 529.172 376.363 529.084 376.619 528.908V529.868C376.491 529.948 376.323 530.008 376.115 530.048C375.907 530.096 375.699 530.12 375.491 530.12C375.091 530.12 374.767 530.044 374.519 529.892C374.271 529.74 374.091 529.544 373.979 529.304C373.867 529.064 373.811 528.812 373.811 528.548V524.672H373.067ZM380.608 530.12C379.568 530.12 378.772 529.836 378.22 529.268C377.676 528.692 377.404 527.896 377.404 526.88C377.404 526.2 377.532 525.62 377.788 525.14C378.044 524.66 378.396 524.292 378.844 524.036C379.292 523.78 379.796 523.652 380.356 523.652C381.308 523.652 382.008 523.968 382.456 524.6C382.904 525.224 383.048 526.08 382.888 527.168H378.496C378.584 528.504 379.32 529.172 380.704 529.172C381.464 529.172 382.164 528.956 382.804 528.524V529.472C382.516 529.672 382.18 529.832 381.796 529.952C381.412 530.064 381.016 530.12 380.608 530.12ZM380.332 524.588C379.876 524.588 379.484 524.728 379.156 525.008C378.828 525.288 378.62 525.712 378.532 526.28H381.88C381.904 525.744 381.78 525.328 381.508 525.032C381.236 524.736 380.844 524.588 380.332 524.588ZM387.164 524.588C386.684 524.588 386.292 524.7 385.988 524.924C385.692 525.14 385.452 525.42 385.268 525.764V530H384.212V523.772H385.208L385.244 524.888H385.268C385.436 524.536 385.7 524.244 386.06 524.012C386.42 523.772 386.876 523.652 387.428 523.652C388.044 523.652 388.532 523.816 388.892 524.144C389.26 524.472 389.444 524.968 389.444 525.632V530H388.388V525.74C388.388 525.316 388.276 525.02 388.052 524.852C387.836 524.676 387.54 524.588 387.164 524.588ZM393.226 524.588C392.562 524.588 391.89 524.792 391.21 525.2V524.252C391.506 524.068 391.846 523.924 392.23 523.82C392.622 523.708 393.002 523.652 393.37 523.652C394.154 523.652 394.75 523.816 395.158 524.144C395.566 524.472 395.77 524.972 395.77 525.644V528.992C395.77 529.128 395.774 529.304 395.782 529.52C395.798 529.728 395.814 529.888 395.83 530H394.87C394.846 529.888 394.822 529.732 394.798 529.532C394.782 529.324 394.774 529.144 394.774 528.992L394.762 528.812C394.666 529.004 394.534 529.204 394.366 529.412C394.198 529.612 393.974 529.78 393.694 529.916C393.422 530.052 393.082 530.12 392.674 530.12C392.114 530.12 391.662 529.96 391.318 529.64C390.974 529.32 390.802 528.868 390.802 528.284C390.802 527.604 391.042 527.104 391.522 526.784C392.002 526.464 392.678 526.304 393.55 526.304H394.714V525.788C394.714 525.356 394.602 525.048 394.378 524.864C394.154 524.68 393.77 524.588 393.226 524.588ZM394.714 527.6V527.144H393.658C393.026 527.144 392.566 527.236 392.278 527.42C391.998 527.604 391.858 527.872 391.858 528.224C391.858 528.504 391.942 528.732 392.11 528.908C392.286 529.084 392.55 529.172 392.902 529.172C393.23 529.172 393.51 529.108 393.742 528.98C393.974 528.844 394.162 528.684 394.306 528.5C394.45 528.308 394.554 528.128 394.618 527.96C394.682 527.792 394.714 527.672 394.714 527.6ZM400.382 524.588C399.902 524.588 399.51 524.7 399.206 524.924C398.91 525.14 398.67 525.42 398.486 525.764V530H397.43V523.772H398.426L398.462 524.888H398.486C398.654 524.536 398.918 524.244 399.278 524.012C399.638 523.772 400.094 523.652 400.646 523.652C401.262 523.652 401.75 523.816 402.11 524.144C402.478 524.472 402.662 524.968 402.662 525.632V530H401.606V525.74C401.606 525.316 401.494 525.02 401.27 524.852C401.054 524.676 400.758 524.588 400.382 524.588ZM403.829 524.672V523.772H404.573V522.464H405.629V523.772H407.441V524.672H405.629V528.416C405.629 528.68 405.697 528.872 405.833 528.992C405.969 529.112 406.201 529.172 406.529 529.172C406.841 529.172 407.125 529.084 407.381 528.908V529.868C407.253 529.948 407.085 530.008 406.877 530.048C406.669 530.096 406.461 530.12 406.253 530.12C405.853 530.12 405.529 530.044 405.281 529.892C405.033 529.74 404.853 529.544 404.741 529.304C404.629 529.064 404.573 528.812 404.573 528.548V524.672H403.829ZM325.668 535.396H328.56C329.136 535.396 329.672 535.464 330.168 535.6C330.664 535.736 331.096 535.96 331.464 536.272C331.832 536.576 332.12 536.984 332.328 537.496C332.536 538.008 332.64 538.644 332.64 539.404C332.64 540.412 332.456 541.26 332.088 541.948C331.728 542.628 331.232 543.14 330.6 543.484C329.968 543.828 329.244 544 328.428 544H325.668V535.396ZM328.428 542.98C329.02 542.98 329.54 542.86 329.988 542.62C330.436 542.372 330.784 541.992 331.032 541.48C331.288 540.96 331.416 540.296 331.416 539.488C331.416 538.68 331.292 538.056 331.044 537.616C330.796 537.176 330.456 536.868 330.024 536.692C329.6 536.516 329.112 536.428 328.56 536.428H326.796V542.98H328.428ZM336.109 538.588C335.445 538.588 334.773 538.792 334.093 539.2V538.252C334.389 538.068 334.729 537.924 335.113 537.82C335.505 537.708 335.885 537.652 336.253 537.652C337.037 537.652 337.633 537.816 338.041 538.144C338.449 538.472 338.653 538.972 338.653 539.644V542.992C338.653 543.128 338.657 543.304 338.665 543.52C338.681 543.728 338.697 543.888 338.713 544H337.753C337.729 543.888 337.705 543.732 337.681 543.532C337.665 543.324 337.657 543.144 337.657 542.992L337.645 542.812C337.549 543.004 337.417 543.204 337.249 543.412C337.081 543.612 336.857 543.78 336.577 543.916C336.305 544.052 335.965 544.12 335.557 544.12C334.997 544.12 334.545 543.96 334.201 543.64C333.857 543.32 333.685 542.868 333.685 542.284C333.685 541.604 333.925 541.104 334.405 540.784C334.885 540.464 335.561 540.304 336.433 540.304H337.597V539.788C337.597 539.356 337.485 539.048 337.261 538.864C337.037 538.68 336.653 538.588 336.109 538.588ZM337.597 541.6V541.144H336.541C335.909 541.144 335.449 541.236 335.161 541.42C334.881 541.604 334.741 541.872 334.741 542.224C334.741 542.504 334.825 542.732 334.993 542.908C335.169 543.084 335.433 543.172 335.785 543.172C336.113 543.172 336.393 543.108 336.625 542.98C336.857 542.844 337.045 542.684 337.189 542.5C337.333 542.308 337.437 542.128 337.501 541.96C337.565 541.792 337.597 541.672 337.597 541.6ZM339.809 538.672V537.772H340.553V536.464H341.609V537.772H343.421V538.672H341.609V542.416C341.609 542.68 341.677 542.872 341.813 542.992C341.949 543.112 342.181 543.172 342.509 543.172C342.821 543.172 343.105 543.084 343.361 542.908V543.868C343.233 543.948 343.065 544.008 342.857 544.048C342.649 544.096 342.441 544.12 342.233 544.12C341.833 544.12 341.509 544.044 341.261 543.892C341.013 543.74 340.833 543.544 340.721 543.304C340.609 543.064 340.553 542.812 340.553 542.548V538.672H339.809ZM346.878 538.588C346.214 538.588 345.542 538.792 344.862 539.2V538.252C345.158 538.068 345.498 537.924 345.882 537.82C346.274 537.708 346.654 537.652 347.022 537.652C347.806 537.652 348.402 537.816 348.81 538.144C349.218 538.472 349.422 538.972 349.422 539.644V542.992C349.422 543.128 349.426 543.304 349.434 543.52C349.45 543.728 349.466 543.888 349.482 544H348.522C348.498 543.888 348.474 543.732 348.45 543.532C348.434 543.324 348.426 543.144 348.426 542.992L348.414 542.812C348.318 543.004 348.186 543.204 348.018 543.412C347.85 543.612 347.626 543.78 347.346 543.916C347.074 544.052 346.734 544.12 346.326 544.12C345.766 544.12 345.314 543.96 344.97 543.64C344.626 543.32 344.454 542.868 344.454 542.284C344.454 541.604 344.694 541.104 345.174 540.784C345.654 540.464 346.33 540.304 347.202 540.304H348.366V539.788C348.366 539.356 348.254 539.048 348.03 538.864C347.806 538.68 347.422 538.588 346.878 538.588ZM348.366 541.6V541.144H347.31C346.678 541.144 346.218 541.236 345.93 541.42C345.65 541.604 345.51 541.872 345.51 542.224C345.51 542.504 345.594 542.732 345.762 542.908C345.938 543.084 346.202 543.172 346.554 543.172C346.882 543.172 347.162 543.108 347.394 542.98C347.626 542.844 347.814 542.684 347.958 542.5C348.102 542.308 348.206 542.128 348.27 541.96C348.334 541.792 348.366 541.672 348.366 541.6ZM351.083 535.396H352.139L352.115 538.984C352.323 538.584 352.603 538.264 352.955 538.024C353.307 537.776 353.743 537.652 354.263 537.652C354.751 537.652 355.199 537.772 355.607 538.012C356.023 538.244 356.359 538.6 356.615 539.08C356.871 539.552 356.999 540.152 356.999 540.88C356.999 541.608 356.867 542.212 356.603 542.692C356.347 543.172 356.007 543.532 355.583 543.772C355.167 544.004 354.711 544.12 354.215 544.12C353.735 544.12 353.315 544.004 352.955 543.772C352.603 543.54 352.323 543.224 352.115 542.824L352.079 544H351.083V535.396ZM355.907 540.88C355.907 540.128 355.735 539.56 355.391 539.176C355.047 538.784 354.603 538.588 354.059 538.588C353.515 538.588 353.055 538.78 352.679 539.164C352.311 539.54 352.127 540.112 352.127 540.88C352.127 541.656 352.311 542.232 352.679 542.608C353.055 542.984 353.515 543.172 354.059 543.172C354.603 543.172 355.047 542.98 355.391 542.596C355.735 542.212 355.907 541.64 355.907 540.88ZM360.331 538.588C359.667 538.588 358.995 538.792 358.315 539.2V538.252C358.611 538.068 358.951 537.924 359.335 537.82C359.727 537.708 360.107 537.652 360.475 537.652C361.259 537.652 361.855 537.816 362.263 538.144C362.671 538.472 362.875 538.972 362.875 539.644V542.992C362.875 543.128 362.879 543.304 362.887 543.52C362.903 543.728 362.919 543.888 362.935 544H361.975C361.951 543.888 361.927 543.732 361.903 543.532C361.887 543.324 361.879 543.144 361.879 542.992L361.867 542.812C361.771 543.004 361.639 543.204 361.471 543.412C361.303 543.612 361.079 543.78 360.799 543.916C360.527 544.052 360.187 544.12 359.779 544.12C359.219 544.12 358.767 543.96 358.423 543.64C358.079 543.32 357.907 542.868 357.907 542.284C357.907 541.604 358.147 541.104 358.627 540.784C359.107 540.464 359.783 540.304 360.655 540.304H361.819V539.788C361.819 539.356 361.707 539.048 361.483 538.864C361.259 538.68 360.875 538.588 360.331 538.588ZM361.819 541.6V541.144H360.763C360.131 541.144 359.671 541.236 359.383 541.42C359.103 541.604 358.963 541.872 358.963 542.224C358.963 542.504 359.047 542.732 359.215 542.908C359.391 543.084 359.655 543.172 360.007 543.172C360.335 543.172 360.615 543.108 360.847 542.98C361.079 542.844 361.267 542.684 361.411 542.5C361.555 542.308 361.659 542.128 361.723 541.96C361.787 541.792 361.819 541.672 361.819 541.6ZM366.528 544.12C366.072 544.12 365.636 544.056 365.22 543.928C364.812 543.792 364.48 543.612 364.224 543.388V542.44C364.472 542.68 364.804 542.872 365.22 543.016C365.644 543.16 366.076 543.232 366.516 543.232C367.492 543.232 367.98 542.916 367.98 542.284C367.98 542.1 367.936 541.952 367.848 541.84C367.768 541.72 367.616 541.62 367.392 541.54C367.168 541.452 366.844 541.368 366.42 541.288C365.612 541.128 365.048 540.912 364.728 540.64C364.408 540.36 364.248 539.964 364.248 539.452C364.248 538.884 364.468 538.444 364.908 538.132C365.348 537.812 365.956 537.652 366.732 537.652C367.1 537.652 367.46 537.692 367.812 537.772C368.172 537.844 368.464 537.944 368.688 538.072V539.02C368.224 538.7 367.584 538.54 366.768 538.54C366.264 538.54 365.892 538.612 365.652 538.756C365.42 538.9 365.304 539.124 365.304 539.428C365.304 539.588 365.34 539.72 365.412 539.824C365.484 539.928 365.628 540.02 365.844 540.1C366.06 540.18 366.384 540.264 366.816 540.352C367.368 540.464 367.804 540.6 368.124 540.76C368.452 540.912 368.684 541.108 368.82 541.348C368.964 541.588 369.036 541.892 369.036 542.26C369.036 542.844 368.816 543.3 368.376 543.628C367.936 543.956 367.32 544.12 366.528 544.12ZM373.097 544.12C372.057 544.12 371.261 543.836 370.709 543.268C370.165 542.692 369.893 541.896 369.893 540.88C369.893 540.2 370.021 539.62 370.277 539.14C370.533 538.66 370.885 538.292 371.333 538.036C371.781 537.78 372.285 537.652 372.845 537.652C373.797 537.652 374.497 537.968 374.945 538.6C375.393 539.224 375.537 540.08 375.377 541.168H370.985C371.073 542.504 371.809 543.172 373.193 543.172C373.953 543.172 374.653 542.956 375.293 542.524V543.472C375.005 543.672 374.669 543.832 374.285 543.952C373.901 544.064 373.505 544.12 373.097 544.12ZM372.821 538.588C372.365 538.588 371.973 538.728 371.645 539.008C371.317 539.288 371.109 539.712 371.021 540.28H374.369C374.393 539.744 374.269 539.328 373.997 539.032C373.725 538.736 373.333 538.588 372.821 538.588ZM379.246 535.396H382.162C383.106 535.396 383.822 535.556 384.31 535.876C384.806 536.196 385.054 536.736 385.054 537.496C385.054 538.112 384.898 538.58 384.586 538.9C384.274 539.212 383.858 539.424 383.338 539.536C384.002 539.616 384.506 539.812 384.85 540.124C385.194 540.428 385.366 540.892 385.366 541.516C385.366 542.108 385.226 542.588 384.946 542.956C384.666 543.324 384.282 543.592 383.794 543.76C383.306 543.92 382.754 544 382.138 544H379.246V535.396ZM382.078 539.068C382.622 539.068 383.062 538.948 383.398 538.708C383.742 538.46 383.914 538.076 383.914 537.556C383.914 537.116 383.762 536.82 383.458 536.668C383.154 536.508 382.722 536.428 382.162 536.428H380.374V539.068H382.078ZM382.138 542.98C382.746 542.98 383.238 542.876 383.614 542.668C383.99 542.46 384.178 542.084 384.178 541.54C384.178 540.996 384.002 540.62 383.65 540.412C383.306 540.196 382.758 540.088 382.006 540.088H380.374V542.98H382.138ZM388.89 538.588C388.226 538.588 387.554 538.792 386.874 539.2V538.252C387.17 538.068 387.51 537.924 387.894 537.82C388.286 537.708 388.666 537.652 389.034 537.652C389.818 537.652 390.414 537.816 390.822 538.144C391.23 538.472 391.434 538.972 391.434 539.644V542.992C391.434 543.128 391.438 543.304 391.446 543.52C391.462 543.728 391.478 543.888 391.494 544H390.534C390.51 543.888 390.486 543.732 390.462 543.532C390.446 543.324 390.438 543.144 390.438 542.992L390.426 542.812C390.33 543.004 390.198 543.204 390.03 543.412C389.862 543.612 389.638 543.78 389.358 543.916C389.086 544.052 388.746 544.12 388.338 544.12C387.778 544.12 387.326 543.96 386.982 543.64C386.638 543.32 386.466 542.868 386.466 542.284C386.466 541.604 386.706 541.104 387.186 540.784C387.666 540.464 388.342 540.304 389.214 540.304H390.378V539.788C390.378 539.356 390.266 539.048 390.042 538.864C389.818 538.68 389.434 538.588 388.89 538.588ZM390.378 541.6V541.144H389.322C388.69 541.144 388.23 541.236 387.942 541.42C387.662 541.604 387.522 541.872 387.522 542.224C387.522 542.504 387.606 542.732 387.774 542.908C387.95 543.084 388.214 543.172 388.566 543.172C388.894 543.172 389.174 543.108 389.406 542.98C389.638 542.844 389.826 542.684 389.97 542.5C390.114 542.308 390.218 542.128 390.282 541.96C390.346 541.792 390.378 541.672 390.378 541.6ZM395.782 544.12C394.814 544.12 394.05 543.836 393.49 543.268C392.93 542.692 392.65 541.896 392.65 540.88C392.65 539.864 392.934 539.072 393.502 538.504C394.07 537.936 394.846 537.652 395.83 537.652C396.206 537.652 396.558 537.696 396.886 537.784C397.214 537.864 397.478 537.984 397.678 538.144V539.092C397.134 538.756 396.522 538.588 395.842 538.588C395.122 538.588 394.59 538.78 394.246 539.164C393.902 539.54 393.73 540.112 393.73 540.88C393.73 541.648 393.894 542.224 394.222 542.608C394.558 542.984 395.078 543.172 395.782 543.172C396.462 543.172 397.094 543.008 397.678 542.68V543.628C397.158 543.956 396.526 544.12 395.782 544.12ZM404.054 544H402.77L400.574 541.348H400.022V544H398.966V535.396H400.022V540.448H400.622L402.806 537.772H404.006L401.45 540.844L404.054 544ZM407.503 544.12C406.463 544.12 405.667 543.836 405.115 543.268C404.571 542.692 404.299 541.896 404.299 540.88C404.299 540.2 404.427 539.62 404.683 539.14C404.939 538.66 405.291 538.292 405.739 538.036C406.187 537.78 406.691 537.652 407.251 537.652C408.203 537.652 408.903 537.968 409.351 538.6C409.799 539.224 409.943 540.08 409.783 541.168H405.391C405.479 542.504 406.215 543.172 407.599 543.172C408.359 543.172 409.059 542.956 409.699 542.524V543.472C409.411 543.672 409.075 543.832 408.691 543.952C408.307 544.064 407.911 544.12 407.503 544.12ZM407.227 538.588C406.771 538.588 406.379 538.728 406.051 539.008C405.723 539.288 405.515 539.712 405.427 540.28H408.775C408.799 539.744 408.675 539.328 408.403 539.032C408.131 538.736 407.739 538.588 407.227 538.588ZM414.058 538.588C413.578 538.588 413.186 538.7 412.882 538.924C412.586 539.14 412.346 539.42 412.162 539.764V544H411.106V537.772H412.102L412.138 538.888H412.162C412.33 538.536 412.594 538.244 412.954 538.012C413.314 537.772 413.77 537.652 414.322 537.652C414.938 537.652 415.426 537.816 415.786 538.144C416.154 538.472 416.338 538.968 416.338 539.632V544H415.282V539.74C415.282 539.316 415.17 539.02 414.946 538.852C414.73 538.676 414.434 538.588 414.058 538.588ZM417.565 540.88C417.565 540.152 417.693 539.552 417.949 539.08C418.205 538.6 418.545 538.244 418.969 538.012C419.401 537.772 419.869 537.652 420.373 537.652C420.845 537.652 421.253 537.752 421.597 537.952C421.941 538.144 422.217 538.42 422.425 538.78V535.396H423.481V544H422.557L422.473 542.776C422.281 543.184 422.009 543.512 421.657 543.76C421.313 544 420.881 544.12 420.361 544.12C419.865 544.12 419.401 544.004 418.969 543.772C418.545 543.532 418.205 543.172 417.949 542.692C417.693 542.212 417.565 541.608 417.565 540.88ZM422.437 540.88C422.437 540.104 422.253 539.528 421.885 539.152C421.517 538.776 421.061 538.588 420.517 538.588C419.973 538.588 419.525 538.784 419.173 539.176C418.821 539.56 418.645 540.128 418.645 540.88C418.645 541.64 418.821 542.212 419.173 542.596C419.525 542.98 419.973 543.172 420.517 543.172C421.061 543.172 421.517 542.984 421.885 542.608C422.253 542.232 422.437 541.656 422.437 540.88Z" fill="#262626"/>
<path fill-rule="evenodd" clip-rule="evenodd" d="M385.3 487.59C387.788 486.444 388.75 485.024 388.75 483.5C388.75 483.309 388.735 483.121 388.704 482.934C388.486 481.625 387.477 480.413 385.3 479.41C382.809 478.263 379.19 477.625 375 477.625C370.81 477.625 367.191 478.263 364.7 479.41C362.212 480.556 361.25 481.976 361.25 483.5C361.25 485.024 362.212 486.444 364.7 487.59C367.191 488.737 370.81 489.375 375 489.375C379.19 489.375 382.809 488.737 385.3 487.59ZM388.75 487.743C386.055 490.164 380.907 491.375 375 491.375C369.093 491.375 363.945 490.164 361.25 487.743V494C361.25 495.524 362.212 496.944 364.7 498.09C367.191 499.237 370.81 499.875 375 499.875C379.19 499.875 382.809 499.237 385.3 498.09C387.788 496.944 388.75 495.524 388.75 494V487.743ZM388.75 498.243C386.055 500.664 380.907 501.875 375 501.875C369.093 501.875 363.945 500.664 361.25 498.243V504.5C361.25 506.024 362.212 507.444 364.7 508.59C367.191 509.737 370.81 510.375 375 510.375C379.19 510.375 382.809 509.737 385.3 508.59C387.788 507.444 388.75 506.024 388.75 504.5V498.243ZM390.43 481.654C388.961 477.635 382.611 475.625 375 475.625C366.302 475.625 359.25 478.25 359.25 483.5V494V504.5C359.25 509.75 366.302 512.375 375 512.375C383.698 512.375 390.75 509.75 390.75 504.5V494V483.5C390.75 482.844 390.64 482.229 390.43 481.654Z" fill="black"/>
<defs>
<filter id="filter0_d_16_162" x="22" y="14" width="246" height="246" filterUnits="userSpaceOnUse" color-interpolation-filters="sRGB">
<feFlood flood-opacity="0" result="BackgroundImageFix"/>
<feColorMatrix in="SourceAlpha" type="matrix" values="0 0 0 0 0 0 0 0 0 0 0 0 0 0 0 0 0 0 127 0" result="hardAlpha"/>
<feOffset/>
<feGaussianBlur stdDeviation="4"/>
<feColorMatrix type="matrix" values="0 0 0 0 0.321569 0 0 0 0 0.509804 0 0 0 0 1 0 0 0 0.2 0"/>
<feBlend mode="normal" in2="BackgroundImageFix" result="effect1_dropShadow_16_162"/>
<feBlend mode="normal" in="SourceGraphic" in2="effect1_dropShadow_16_162" result="shape"/>
</filter>
<filter id="filter1_d_16_162" x="482" y="14" width="246" height="246" filterUnits="userSpaceOnUse" color-interpolation-filters="sRGB">
<feFlood flood-opacity="0" result="BackgroundImageFix"/>
<feColorMatrix in="SourceAlpha" type="matrix" values="0 0 0 0 0 0 0 0 0 0 0 0 0 0 0 0 0 0 127 0" result="hardAlpha"/>
<feOffset/>
<feGaussianBlur stdDeviation="4"/>
<feColorMatrix type="matrix" values="0 0 0 0 0.321569 0 0 0 0 0.509804 0 0 0 0 1 0 0 0 0.2 0"/>
<feBlend mode="normal" in2="BackgroundImageFix" result="effect1_dropShadow_16_162"/>
<feBlend mode="normal" in="SourceGraphic" in2="effect1_dropShadow_16_162" result="shape"/>
</filter>
<filter id="filter2_d_16_162" x="22" y="274" width="706" height="342" filterUnits="userSpaceOnUse" color-interpolation-filters="sRGB">
<feFlood flood-opacity="0" result="BackgroundImageFix"/>
<feColorMatrix in="SourceAlpha" type="matrix" values="0 0 0 0 0 0 0 0 0 0 0 0 0 0 0 0 0 0 127 0" result="hardAlpha"/>
<feOffset/>
<feGaussianBlur stdDeviation="4"/>
<feColorMatrix type="matrix" values="0 0 0 0 0.321569 0 0 0 0 0.509804 0 0 0 0 1 0 0 0 0.2 0"/>
<feBlend mode="normal" in2="BackgroundImageFix" result="effect1_dropShadow_16_162"/>
<feBlend mode="normal" in="SourceGraphic" in2="effect1_dropShadow_16_162" result="shape"/>
</filter>
</defs>
</svg>
