<svg xmlns="http://www.w3.org/2000/svg" width="700" height="230" fill="none" viewBox="16 85 668 232"><path fill="#4E496B" d="m150 136 10 5.774v-11.548L150 136Zm9 1h36.5v-2H159v2ZM84 239.5l5.773-10H78.227l5.773 10Zm1-9V172h-2v58.5h2ZM261 239.5l5.774-10h-11.548l5.774 10Zm1-9V172h-2v58.5h2ZM288 239.5l5.774-10h-11.548l5.774 10Zm151-33.75v1h1v-1h-1Zm-151 0v-1h-1v1h1Zm1 24.75v-24.75h-2v24.75h2Zm-1-23.75h151v-2H288v2Zm152-1V171.5h-2v34.25h2Z"/><path fill="#4E496B" d="m234 239.5 5.774-10h-11.548l5.774 10Zm0-33.75h1v-1h-1v1Zm1 24.75v-24.75h-2v24.75h2Zm-1-25.75H84v2h150v-2ZM502 136l10 5.774v-11.548L502 136Zm9 1h36.5v-2H511v2Z"/><rect width="120" height="60" x="24" y="105" fill="#E3EBFF" rx="5"/><rect width="120" height="60" x="24" y="245" fill="#E3EBFF" rx="5"/><rect width="120" height="60" x="201" y="245" fill="#FFF5CC" rx="5"/><rect width="120" height="60" x="201" y="105" fill="#E3EBFF" rx="5"/><rect width="120" height="60" x="378" y="105" fill="#E3EBFF" rx="5"/><rect width="120" height="60" x="555" y="105" fill="#E3EBFF" rx="5"/><path fill="#000" fill-opacity=".85" d="M68.395 140h-2.31l-2.03-7.434L61.997 140h-2.324l-2.156-10.038h1.736l1.708 8.358 2.338-8.358h1.666l2.296 8.246 1.75-8.246h1.554L68.395 140Zm6.137.14a3.96 3.96 0 0 1-1.428-.252 3.349 3.349 0 0 1-1.148-.728 3.605 3.605 0 0 1-.756-1.19c-.178-.467-.266-1.003-.266-1.61 0-.607.088-1.143.266-1.61.186-.467.438-.859.756-1.176.326-.327.709-.569 1.148-.728a3.96 3.96 0 0 1 1.428-.252c.513 0 .989.084 1.428.252a3.09 3.09 0 0 1 1.148.728c.326.317.583.709.77 1.176.186.467.28 1.003.28 1.61 0 .607-.094 1.143-.28 1.61a3.495 3.495 0 0 1-.77 1.19 3.35 3.35 0 0 1-1.148.728 3.96 3.96 0 0 1-1.428.252Zm0-1.358c.56 0 1.022-.196 1.386-.588.373-.392.56-1.003.56-1.834 0-.821-.187-1.428-.56-1.82-.364-.401-.826-.602-1.386-.602-.551 0-1.013.201-1.386.602-.364.392-.546.999-.546 1.82 0 .831.182 1.442.546 1.834.373.392.835.588 1.386.588Zm9.03-4.48a3.589 3.589 0 0 0-1.442.252c-.429.177-.756.457-.98.84V140h-1.624v-7.266H81l.112 1.512h.028c.234-.448.551-.821.952-1.12.411-.299.901-.476 1.47-.532v1.708Zm3.596 2.744h-.645V140H84.89v-10.038h1.624v5.768h.686l2.31-2.996h1.709l-2.758 3.5L91.33 140h-1.904l-2.269-2.954Zm10.821 2.422c-.103.065-.228.14-.378.224-.15.075-.326.145-.532.21a5.444 5.444 0 0 1-1.638.238c-1.334 0-2.333-.331-2.996-.994-.653-.663-.98-1.591-.98-2.786 0-.588.089-1.115.266-1.582.177-.467.425-.859.742-1.176a3.105 3.105 0 0 1 1.134-.742c.439-.177.92-.266 1.442-.266a3.79 3.79 0 0 1 1.456.266 2.57 2.57 0 0 1 1.078.798c.28.355.472.793.574 1.316.112.523.117 1.134.014 1.834h-5.026c.066.663.285 1.162.658 1.498.373.327.957.49 1.75.49.579 0 1.06-.07 1.442-.21a6.63 6.63 0 0 0 .994-.462v1.344Zm-2.94-5.586c-.476 0-.877.145-1.204.434-.326.289-.541.719-.644 1.288h3.416c.019-.588-.112-1.022-.392-1.302s-.672-.42-1.176-.42Zm8.607.42a3.59 3.59 0 0 0-1.442.252 1.97 1.97 0 0 0-.98.84V140H99.6v-7.266h1.484l.112 1.512h.028a3.26 3.26 0 0 1 .952-1.12c.411-.299.901-.476 1.47-.532v1.708Zm3.721 5.838c-.364 0-.695-.033-.994-.098a4.808 4.808 0 0 1-.77-.21 3.75 3.75 0 0 1-.574-.266 3.926 3.926 0 0 1-.364-.252v-1.288c.094.084.22.177.378.28.168.093.36.187.574.28a4.802 4.802 0 0 0 1.694.294c.514 0 .887-.075 1.12-.224a.77.77 0 0 0 .364-.686c0-.196-.046-.35-.14-.462a.944.944 0 0 0-.378-.266 2.235 2.235 0 0 0-.56-.14c-.205-.037-.42-.079-.644-.126a9.858 9.858 0 0 1-.868-.21 3.099 3.099 0 0 1-.77-.378 1.99 1.99 0 0 1-.56-.616c-.14-.252-.21-.574-.21-.966 0-.691.257-1.232.77-1.624.514-.392 1.246-.588 2.198-.588.542 0 1.008.056 1.4.168.402.112.696.229.882.35v1.288a3.444 3.444 0 0 0-.868-.392c-.354-.112-.802-.168-1.344-.168-.532 0-.919.07-1.162.21-.242.14-.364.359-.364.658 0 .168.042.303.126.406.094.093.21.168.35.224.15.056.318.103.504.14a10.797 10.797 0 0 1 1.484.308c.308.075.584.196.826.364.252.159.458.373.616.644.159.271.238.621.238 1.05 0 .439-.084.807-.252 1.106a2.012 2.012 0 0 1-.672.7c-.28.177-.597.303-.952.378a5.191 5.191 0 0 1-1.078.112ZM59.319 271.432V280H57.61v-8.568h-3.052v-1.47h7.798v1.47h-3.038Zm7.612 2.87a3.589 3.589 0 0 0-1.442.252c-.43.177-.756.457-.98.84V280h-1.624v-7.266h1.484l.112 1.512h.028a3.25 3.25 0 0 1 .952-1.12c.41-.299.9-.476 1.47-.532v1.708Zm2.153-2.492c-.299 0-.546-.098-.742-.294a.98.98 0 0 1-.28-.7.98.98 0 0 1 .28-.7c.196-.196.443-.294.742-.294.289 0 .527.098.714.294a.955.955 0 0 1 .294.7.955.955 0 0 1-.294.7.943.943 0 0 1-.714.294Zm.812.924V280h-1.624v-7.266h1.624Zm8.457 6.328c0 .532-.075 1.008-.224 1.428-.14.429-.369.793-.686 1.092-.318.299-.728.527-1.232.686-.495.159-1.097.238-1.806.238-.374 0-.7-.023-.98-.07a4.297 4.297 0 0 1-.728-.154 2.88 2.88 0 0 1-.532-.196 3.214 3.214 0 0 1-.364-.196v-1.344c.14.084.289.163.448.238.168.075.354.14.56.196.214.056.452.098.714.126.261.037.56.056.896.056.802 0 1.386-.149 1.75-.448.373-.299.56-.831.56-1.596v-.728a2.707 2.707 0 0 1-.896.966c-.374.233-.836.35-1.386.35a3.4 3.4 0 0 1-1.218-.224 3.05 3.05 0 0 1-1.022-.658 3.399 3.399 0 0 1-.7-1.106c-.168-.448-.252-.966-.252-1.554 0-.597.084-1.115.252-1.554.177-.448.41-.821.7-1.12a2.911 2.911 0 0 1 1.036-.672 3.439 3.439 0 0 1 1.232-.224c.56 0 1.031.121 1.414.364.382.233.69.56.924.98v-.042c0-.168.009-.369.028-.602.028-.243.056-.429.084-.56h1.498a9.35 9.35 0 0 0-.056.56c-.01.243-.014.443-.014.602v5.166Zm-3.5-.714c.55 0 1.003-.177 1.358-.532.354-.364.532-.915.532-1.652 0-.747-.182-1.302-.546-1.666-.355-.373-.808-.56-1.358-.56-.271 0-.523.047-.756.14a1.718 1.718 0 0 0-.616.42c-.168.187-.304.42-.406.7-.094.271-.14.593-.14.966 0 .728.182 1.274.546 1.638.364.364.826.546 1.386.546Zm11.99.714c0 .532-.075 1.008-.224 1.428-.14.429-.369.793-.686 1.092-.318.299-.728.527-1.232.686-.495.159-1.097.238-1.806.238-.373 0-.7-.023-.98-.07a4.295 4.295 0 0 1-.728-.154 2.875 2.875 0 0 1-.532-.196 3.205 3.205 0 0 1-.364-.196v-1.344c.14.084.29.163.448.238.168.075.355.14.56.196.214.056.452.098.714.126.261.037.56.056.896.056.802 0 1.386-.149 1.75-.448.373-.299.56-.831.56-1.596v-.728a2.708 2.708 0 0 1-.896.966c-.373.233-.835.35-1.386.35a3.4 3.4 0 0 1-1.218-.224 3.048 3.048 0 0 1-1.022-.658 3.395 3.395 0 0 1-.7-1.106c-.168-.448-.252-.966-.252-1.554 0-.597.084-1.115.252-1.554a3.37 3.37 0 0 1 .7-1.12 2.91 2.91 0 0 1 1.036-.672 3.438 3.438 0 0 1 1.232-.224c.56 0 1.031.121 1.414.364.382.233.69.56.924.98v-.042c0-.168.01-.369.028-.602.028-.243.056-.429.084-.56h1.498a9.185 9.185 0 0 0-.056.56c-.01.243-.014.443-.014.602v5.166Zm-3.5-.714c.55 0 1.003-.177 1.358-.532.355-.364.532-.915.532-1.652 0-.747-.182-1.302-.546-1.666-.355-.373-.808-.56-1.358-.56-.27 0-.523.047-.756.14a1.716 1.716 0 0 0-.616.42 2.13 2.13 0 0 0-.406.7c-.094.271-.14.593-.14.966 0 .728.182 1.274.546 1.638.364.364.826.546 1.386.546Zm11.43 1.12c-.103.065-.229.14-.378.224-.15.075-.327.145-.532.21a5.444 5.444 0 0 1-1.638.238c-1.335 0-2.333-.331-2.996-.994-.653-.663-.98-1.591-.98-2.786 0-.588.089-1.115.266-1.582.177-.467.425-.859.742-1.176a3.105 3.105 0 0 1 1.134-.742 3.82 3.82 0 0 1 1.442-.266 3.79 3.79 0 0 1 1.456.266c.439.177.798.443 1.078.798.28.355.471.793.574 1.316.112.523.117 1.134.014 1.834H89.93c.065.663.285 1.162.658 1.498.373.327.957.49 1.75.49.579 0 1.06-.07 1.442-.21a6.63 6.63 0 0 0 .994-.462v1.344Zm-2.94-5.586c-.476 0-.877.145-1.204.434-.327.289-.541.719-.644 1.288h3.416c.019-.588-.112-1.022-.392-1.302s-.672-.42-1.176-.42Zm8.607.42a3.588 3.588 0 0 0-1.442.252c-.429.177-.756.457-.98.84V280h-1.624v-7.266h1.484l.112 1.512h.028a3.25 3.25 0 0 1 .952-1.12c.411-.299.901-.476 1.47-.532v1.708Zm7.253 5.166c-.103.065-.229.14-.378.224a3.642 3.642 0 0 1-.532.21 5.449 5.449 0 0 1-1.638.238c-1.335 0-2.333-.331-2.996-.994-.653-.663-.98-1.591-.98-2.786 0-.588.089-1.115.266-1.582.177-.467.425-.859.742-1.176a3.1 3.1 0 0 1 1.134-.742 3.82 3.82 0 0 1 1.442-.266 3.79 3.79 0 0 1 1.456.266c.439.177.798.443 1.078.798.28.355.471.793.574 1.316.112.523.117 1.134.014 1.834h-5.026c.065.663.285 1.162.658 1.498.373.327.957.49 1.75.49.579 0 1.059-.07 1.442-.21.392-.149.723-.303.994-.462v1.344Zm-2.94-5.586c-.476 0-.877.145-1.204.434-.327.289-.541.719-.644 1.288h3.416c.019-.588-.112-1.022-.392-1.302s-.672-.42-1.176-.42Zm8.607.42a3.59 3.59 0 0 0-1.442.252 1.97 1.97 0 0 0-.98.84V280h-1.624v-7.266h1.484l.112 1.512h.028a3.26 3.26 0 0 1 .952-1.12c.411-.299.901-.476 1.47-.532v1.708ZM231.308 270.14a7.3 7.3 0 0 1-1.162-.084 5.64 5.64 0 0 1-.924-.224 4.09 4.09 0 0 1-1.19-.63v-1.498c.14.112.322.229.546.35.233.112.49.215.77.308.289.093.597.173.924.238.327.056.663.084 1.008.084.672 0 1.209-.107 1.61-.322.401-.215.602-.569.602-1.064 0-.261-.051-.476-.154-.644a1.221 1.221 0 0 0-.448-.42 2.454 2.454 0 0 0-.7-.294c-.28-.084-.593-.168-.938-.252a13.084 13.084 0 0 1-1.148-.336 4.134 4.134 0 0 1-1.036-.518 2.795 2.795 0 0 1-.742-.84c-.187-.345-.28-.779-.28-1.302 0-.924.331-1.629.994-2.114.663-.495 1.615-.742 2.856-.742.364 0 .686.023.966.07.28.037.532.089.756.154.224.056.415.121.574.196.168.065.313.131.434.196v1.498c-.672-.439-1.568-.658-2.688-.658-.784 0-1.349.117-1.694.35a1.066 1.066 0 0 0-.504.938c0 .252.056.462.168.63.112.159.266.294.462.406.196.103.42.191.672.266.252.065.518.131.798.196.392.093.789.201 1.19.322.401.121.761.294 1.078.518a2.5 2.5 0 0 1 .798.854c.205.345.308.798.308 1.358 0 .579-.112 1.059-.336 1.442a2.575 2.575 0 0 1-.868.924 3.811 3.811 0 0 1-1.246.504c-.467.093-.952.14-1.456.14Zm9.154-.364a2.31 2.31 0 0 1-.63.252 3.052 3.052 0 0 1-.868.112c-.392 0-.724-.051-.994-.154a1.8 1.8 0 0 1-.644-.448 1.688 1.688 0 0 1-.364-.644 2.783 2.783 0 0 1-.112-.798v-4.046h-.868v-1.316h.868v-1.526h1.624v1.526h2.086v1.316h-2.086v3.864c0 .299.07.518.21.658.149.14.392.21.728.21.224 0 .42-.033.588-.098.168-.065.322-.154.462-.266v1.358Zm4.589.364c-.513 0-.989-.084-1.428-.252a3.36 3.36 0 0 1-1.148-.728 3.617 3.617 0 0 1-.756-1.19c-.177-.467-.266-1.003-.266-1.61 0-.607.089-1.143.266-1.61.187-.467.439-.859.756-1.176.327-.327.71-.569 1.148-.728a3.962 3.962 0 0 1 1.428-.252c.514 0 .99.084 1.428.252.439.159.822.401 1.148.728.327.317.584.709.77 1.176.187.467.28 1.003.28 1.61 0 .607-.093 1.143-.28 1.61a3.479 3.479 0 0 1-.77 1.19 3.34 3.34 0 0 1-1.148.728 3.955 3.955 0 0 1-1.428.252Zm0-1.358c.56 0 1.022-.196 1.386-.588.374-.392.56-1.003.56-1.834 0-.821-.186-1.428-.56-1.82-.364-.401-.826-.602-1.386-.602a1.82 1.82 0 0 0-1.386.602c-.364.392-.546.999-.546 1.82 0 .831.182 1.442.546 1.834a1.84 1.84 0 0 0 1.386.588Zm9.031-4.48a3.588 3.588 0 0 0-1.442.252 1.97 1.97 0 0 0-.98.84V270h-1.624v-7.266h1.484l.112 1.512h.028a3.25 3.25 0 0 1 .952-1.12c.411-.299.901-.476 1.47-.532v1.708Zm5.376 4.424a2.397 2.397 0 0 1-.308.504 2.151 2.151 0 0 1-.462.462 2.295 2.295 0 0 1-.644.322 2.792 2.792 0 0 1-.882.126 2.7 2.7 0 0 1-.882-.14 1.99 1.99 0 0 1-.714-.392 2.033 2.033 0 0 1-.476-.658 2.4 2.4 0 0 1-.168-.924c0-.793.294-1.386.882-1.778.588-.401 1.419-.602 2.492-.602h1.106v-.448c0-.476-.121-.803-.364-.98-.242-.187-.644-.28-1.204-.28-.476 0-.924.07-1.344.21-.41.131-.774.285-1.092.462v-1.358c.29-.159.672-.308 1.148-.448.476-.14.994-.21 1.554-.21.934 0 1.652.196 2.156.588.514.383.77.999.77 1.848v4.088c.01.103.014.21.014.322l.028.322c.01.093.019.173.028.238h-1.498a6.439 6.439 0 0 1-.084-.546 26.915 26.915 0 0 1-.042-.63l-.014-.098Zm-1.848.154c.346 0 .63-.07.854-.21a2.09 2.09 0 0 0 .56-.504 1.97 1.97 0 0 0 .294-.574 1.63 1.63 0 0 0 .084-.392v-.49h-1.008c-.644 0-1.115.103-1.414.308a.947.947 0 0 0-.448.84c0 .317.089.569.266.756.187.177.458.266.812.266Zm11.804.182c0 .532-.075 1.008-.224 1.428-.14.429-.369.793-.686 1.092-.317.299-.728.527-1.232.686-.495.159-1.097.238-1.806.238-.373 0-.7-.023-.98-.07a4.289 4.289 0 0 1-.728-.154 2.878 2.878 0 0 1-.532-.196 3.24 3.24 0 0 1-.364-.196v-1.344c.14.084.289.163.448.238.168.075.355.14.56.196.215.056.453.098.714.126.261.037.56.056.896.056.803 0 1.386-.149 1.75-.448.373-.299.56-.831.56-1.596v-.728a2.71 2.71 0 0 1-.896.966c-.373.233-.835.35-1.386.35a3.4 3.4 0 0 1-1.218-.224 3.049 3.049 0 0 1-1.022-.658 3.397 3.397 0 0 1-.7-1.106c-.168-.448-.252-.966-.252-1.554 0-.597.084-1.115.252-1.554a3.37 3.37 0 0 1 .7-1.12 2.914 2.914 0 0 1 1.036-.672 3.44 3.44 0 0 1 1.232-.224c.56 0 1.031.121 1.414.364.383.233.691.56.924.98v-.042c0-.168.009-.369.028-.602.028-.243.056-.429.084-.56h1.498a9.267 9.267 0 0 0-.056.56 16.97 16.97 0 0 0-.014.602v5.166Zm-3.5-.714c.551 0 1.003-.177 1.358-.532.355-.364.532-.915.532-1.652 0-.747-.182-1.302-.546-1.666-.355-.373-.807-.56-1.358-.56a2.02 2.02 0 0 0-.756.14 1.717 1.717 0 0 0-.616.42c-.168.187-.303.42-.406.7-.093.271-.14.593-.14.966 0 .728.182 1.274.546 1.638.364.364.826.546 1.386.546Zm11.43 1.12c-.102.065-.228.14-.378.224a3.598 3.598 0 0 1-.532.21 5.432 5.432 0 0 1-1.638.238c-1.334 0-2.333-.331-2.996-.994-.653-.663-.98-1.591-.98-2.786 0-.588.089-1.115.266-1.582.178-.467.425-.859.742-1.176a3.117 3.117 0 0 1 1.134-.742c.439-.177.92-.266 1.442-.266.542 0 1.027.089 1.456.266.439.177.798.443 1.078.798.28.355.472.793.574 1.316.112.523.117 1.134.014 1.834H272.5c.066.663.285 1.162.658 1.498.374.327.957.49 1.75.49.579 0 1.06-.07 1.442-.21.392-.149.724-.303.994-.462v1.344Zm-2.94-5.586c-.476 0-.877.145-1.204.434-.326.289-.541.719-.644 1.288h3.416c.019-.588-.112-1.022-.392-1.302s-.672-.42-1.176-.42Zm10.788 6.258c-.513 0-.989-.084-1.428-.252a3.35 3.35 0 0 1-1.148-.728 3.617 3.617 0 0 1-.756-1.19c-.177-.467-.266-1.003-.266-1.61 0-.607.089-1.143.266-1.61.187-.467.439-.859.756-1.176a3.09 3.09 0 0 1 1.148-.728 3.962 3.962 0 0 1 1.428-.252c.513 0 .989.084 1.428.252a3.09 3.09 0 0 1 1.148.728c.327.317.583.709.77 1.176.187.467.28 1.003.28 1.61 0 .607-.093 1.143-.28 1.61a3.494 3.494 0 0 1-.77 1.19 3.35 3.35 0 0 1-1.148.728 3.962 3.962 0 0 1-1.428.252Zm0-1.358c.56 0 1.022-.196 1.386-.588.373-.392.56-1.003.56-1.834 0-.821-.187-1.428-.56-1.82-.364-.401-.826-.602-1.386-.602-.551 0-1.013.201-1.386.602-.364.392-.546.999-.546 1.82 0 .831.182 1.442.546 1.834.373.392.835.588 1.386.588Zm6.935-4.732V270h-1.61v-5.95h-.868v-1.316h.868v-.126c0-.877.252-1.559.756-2.044.504-.485 1.176-.728 2.016-.728.242 0 .443.009.602.028.158.019.303.051.434.098v1.372a1.67 1.67 0 0 0-.364-.098 2.42 2.42 0 0 0-.546-.056c-.392 0-.705.117-.938.35-.234.233-.35.593-.35 1.078v.126h2.044v1.316h-2.044Zm-59.642 14.912h3.388c.71 0 1.368.079 1.974.238a4.13 4.13 0 0 1 1.596.784c.458.364.812.845 1.064 1.442.262.597.392 1.335.392 2.212 0 .887-.13 1.666-.392 2.338a4.468 4.468 0 0 1-1.078 1.666 4.543 4.543 0 0 1-1.638 1.022 6.06 6.06 0 0 1-2.058.336h-3.248v-10.038Zm1.694 1.47v7.112h1.61c.495 0 .943-.075 1.344-.224a2.661 2.661 0 0 0 1.05-.686c.299-.308.528-.7.686-1.176.168-.485.252-1.059.252-1.722 0-.653-.079-1.19-.238-1.61-.158-.429-.382-.77-.672-1.022a2.258 2.258 0 0 0-1.008-.518 4.998 4.998 0 0 0-1.274-.154h-1.75Zm10.565-1.47h2.226L250.526 289h-1.75l-.924-2.632h-4.228L242.7 289h-1.498l3.542-10.038Zm2.59 5.95-1.596-4.522-1.596 4.522h3.192Zm12.754.112a4.91 4.91 0 0 1-.266 1.638 3.57 3.57 0 0 1-.812 1.302c-.364.364-.822.653-1.372.868-.542.205-1.181.308-1.918.308-.728 0-1.391-.121-1.988-.364a4.392 4.392 0 0 1-1.54-1.036 4.597 4.597 0 0 1-.994-1.624c-.234-.635-.35-1.344-.35-2.128s.112-1.493.336-2.128a4.5 4.5 0 0 1 1.008-1.624 4.527 4.527 0 0 1 1.652-1.036c.662-.243 1.423-.364 2.282-.364.429 0 .807.028 1.134.084.336.047.634.112.896.196.261.075.49.163.686.266.196.103.373.201.532.294v1.512a7.246 7.246 0 0 0-1.414-.63c-.504-.177-1.106-.266-1.806-.266-1.223 0-2.114.327-2.674.98-.56.644-.84 1.549-.84 2.716 0 1.176.266 2.086.798 2.73.541.644 1.306.966 2.296.966.466 0 .868-.061 1.204-.182.336-.131.606-.303.812-.518.214-.224.368-.485.462-.784a3.19 3.19 0 0 0 .154-1.008v-.084h-2.94v-1.456h4.662v1.372Zm6.705-1.974V289h-1.61v-5.95h-.868v-1.316h.868v-.126c0-.877.252-1.559.756-2.044.504-.485 1.176-.728 2.016-.728.242 0 .443.009.602.028.158.019.303.051.434.098v1.372a1.67 1.67 0 0 0-.364-.098 2.42 2.42 0 0 0-.546-.056c-.392 0-.705.117-.938.35-.234.233-.35.593-.35 1.078v.126h2.044v1.316h-2.044Zm4.235-2.24a.978.978 0 0 1-1.022-.994.978.978 0 0 1 1.022-.994c.289 0 .527.098.714.294a.955.955 0 0 1 .294.7.955.955 0 0 1-.294.7.944.944 0 0 1-.714.294Zm.812.924V289h-1.624v-7.266h1.624Zm3.445-2.772V289h-1.624v-10.038h1.624Zm7.897 9.506c-.102.065-.228.14-.378.224a3.598 3.598 0 0 1-.532.21 5.432 5.432 0 0 1-1.638.238c-1.334 0-2.333-.331-2.996-.994-.653-.663-.98-1.591-.98-2.786 0-.588.089-1.115.266-1.582.178-.467.425-.859.742-1.176a3.117 3.117 0 0 1 1.134-.742c.439-.177.92-.266 1.442-.266.542 0 1.027.089 1.456.266.439.177.798.443 1.078.798.28.355.472.793.574 1.316.112.523.117 1.134.014 1.834h-5.026c.066.663.285 1.162.658 1.498.374.327.957.49 1.75.49.579 0 1.06-.07 1.442-.21.392-.149.724-.303.994-.462v1.344Zm-2.94-5.586c-.476 0-.877.145-1.204.434-.326.289-.541.719-.644 1.288h3.416c.019-.588-.112-1.022-.392-1.302s-.672-.42-1.176-.42Zm6.956 6.258c-.364 0-.696-.033-.994-.098a4.78 4.78 0 0 1-.77-.21 3.705 3.705 0 0 1-.574-.266 3.671 3.671 0 0 1-.364-.252v-1.288c.093.084.219.177.378.28.168.093.359.187.574.28a4.795 4.795 0 0 0 1.694.294c.513 0 .886-.075 1.12-.224a.772.772 0 0 0 .364-.686c0-.196-.047-.35-.14-.462a.959.959 0 0 0-.378-.266 2.258 2.258 0 0 0-.56-.14c-.206-.037-.42-.079-.644-.126a9.69 9.69 0 0 1-.868-.21 3.082 3.082 0 0 1-.77-.378 1.979 1.979 0 0 1-.56-.616c-.14-.252-.21-.574-.21-.966 0-.691.256-1.232.77-1.624.513-.392 1.246-.588 2.198-.588.541 0 1.008.056 1.4.168.401.112.695.229.882.35v1.288a3.46 3.46 0 0 0-.868-.392c-.355-.112-.803-.168-1.344-.168-.532 0-.92.07-1.162.21-.243.14-.364.359-.364.658 0 .168.042.303.126.406.093.093.21.168.35.224.149.056.317.103.504.14.196.028.396.061.602.098.289.056.583.126.882.21.308.075.583.196.826.364.252.159.457.373.616.644.158.271.238.621.238 1.05 0 .439-.084.807-.252 1.106a2.012 2.012 0 0 1-.672.7c-.28.177-.598.303-.952.378a5.198 5.198 0 0 1-1.078.112ZM233.723 140.14a7.3 7.3 0 0 1-1.162-.084 5.64 5.64 0 0 1-.924-.224 4.09 4.09 0 0 1-1.19-.63v-1.498c.14.112.322.229.546.35.233.112.49.215.77.308.289.093.597.173.924.238.327.056.663.084 1.008.084.672 0 1.209-.107 1.61-.322.401-.215.602-.569.602-1.064 0-.261-.051-.476-.154-.644a1.221 1.221 0 0 0-.448-.42 2.454 2.454 0 0 0-.7-.294c-.28-.084-.593-.168-.938-.252a13.084 13.084 0 0 1-1.148-.336 4.134 4.134 0 0 1-1.036-.518 2.795 2.795 0 0 1-.742-.84c-.187-.345-.28-.779-.28-1.302 0-.924.331-1.629.994-2.114.663-.495 1.615-.742 2.856-.742.364 0 .686.023.966.07.28.037.532.089.756.154.224.056.415.121.574.196.168.065.313.131.434.196v1.498c-.672-.439-1.568-.658-2.688-.658-.784 0-1.349.117-1.694.35a1.066 1.066 0 0 0-.504.938c0 .252.056.462.168.63.112.159.266.294.462.406.196.103.42.191.672.266.252.065.518.131.798.196.392.093.789.201 1.19.322.401.121.761.294 1.078.518a2.5 2.5 0 0 1 .798.854c.205.345.308.798.308 1.358 0 .579-.112 1.059-.336 1.442a2.575 2.575 0 0 1-.868.924 3.811 3.811 0 0 1-1.246.504c-.467.093-.952.14-1.456.14Zm8.662 0a4.651 4.651 0 0 1-1.582-.252 3.433 3.433 0 0 1-1.19-.742 3.322 3.322 0 0 1-.756-1.19c-.177-.467-.266-.999-.266-1.596 0-.588.089-1.115.266-1.582a3.16 3.16 0 0 1 1.96-1.918 4.551 4.551 0 0 1 1.596-.266 4.6 4.6 0 0 1 1.316.168c.383.112.686.252.91.42v1.344a3.68 3.68 0 0 0-.952-.434 4.026 4.026 0 0 0-1.176-.154c-1.503 0-2.254.807-2.254 2.422 0 1.615.737 2.422 2.212 2.422.476 0 .882-.051 1.218-.154a4.9 4.9 0 0 0 .952-.42v1.344a3.926 3.926 0 0 1-.91.42c-.364.112-.812.168-1.344.168Zm7.21-6.202c-.476 0-.868.103-1.176.308-.308.196-.56.453-.756.77V140h-1.624v-10.038h1.624v2.688l-.014 1.274h.014c.205-.373.504-.686.896-.938.392-.261.896-.392 1.512-.392.709 0 1.288.191 1.736.574.457.383.686.966.686 1.75V140h-1.638v-4.914c0-.42-.112-.714-.336-.882-.224-.177-.532-.266-.924-.266Zm10.709 5.53c-.102.065-.228.14-.378.224a3.598 3.598 0 0 1-.532.21 5.432 5.432 0 0 1-1.638.238c-1.334 0-2.333-.331-2.996-.994-.653-.663-.98-1.591-.98-2.786 0-.588.089-1.115.266-1.582.178-.467.425-.859.742-1.176a3.117 3.117 0 0 1 1.134-.742c.439-.177.92-.266 1.442-.266.542 0 1.027.089 1.456.266.439.177.798.443 1.078.798.28.355.472.793.574 1.316.112.523.117 1.134.014 1.834h-5.026c.066.663.285 1.162.658 1.498.374.327.957.49 1.75.49.579 0 1.06-.07 1.442-.21.392-.149.724-.303.994-.462v1.344Zm-2.94-5.586c-.476 0-.877.145-1.204.434-.326.289-.541.719-.644 1.288h3.416c.019-.588-.112-1.022-.392-1.302s-.672-.42-1.176-.42Zm9.77 4.76a2.91 2.91 0 0 1-.938 1.092c-.392.271-.882.406-1.47.406-.43 0-.84-.075-1.232-.224a2.992 2.992 0 0 1-1.036-.7 3.494 3.494 0 0 1-.714-1.176c-.178-.476-.266-1.036-.266-1.68 0-.635.088-1.185.266-1.652.177-.476.415-.868.714-1.176a2.883 2.883 0 0 1 1.05-.7 3.244 3.244 0 0 1 1.232-.238c.541 0 1.003.107 1.386.322.392.215.709.518.952.91v-3.864h1.61V140h-1.47l-.084-1.358Zm-2.03.14c.28 0 .536-.047.77-.14.242-.103.452-.252.63-.448.186-.205.331-.457.434-.756a3.43 3.43 0 0 0 .154-1.078 3.3 3.3 0 0 0-.154-1.064 2.11 2.11 0 0 0-.42-.756 1.576 1.576 0 0 0-.63-.448 1.986 1.986 0 0 0-.784-.154c-.57 0-1.041.205-1.414.616-.364.411-.546 1.013-.546 1.806 0 .812.182 1.419.546 1.82.364.401.835.602 1.414.602Zm10.055.028c-.196.373-.49.691-.882.952-.382.252-.886.378-1.512.378-.681 0-1.236-.196-1.666-.588-.429-.392-.644-.989-.644-1.792v-5.026h1.638v4.984c0 .42.117.705.35.854.234.14.518.21.854.21.458 0 .831-.093 1.12-.28.29-.196.537-.457.742-.784v-4.984h1.61V140h-1.484l-.098-1.19h-.028Zm5.07-8.848V140h-1.624v-10.038h1.624Zm7.898 9.506c-.103.065-.229.14-.378.224-.15.075-.327.145-.532.21a5.449 5.449 0 0 1-1.638.238c-1.335 0-2.334-.331-2.996-.994-.654-.663-.98-1.591-.98-2.786 0-.588.088-1.115.266-1.582.177-.467.424-.859.742-1.176a3.1 3.1 0 0 1 1.134-.742 3.815 3.815 0 0 1 1.442-.266c.541 0 1.026.089 1.456.266.438.177.798.443 1.078.798.28.355.471.793.574 1.316.112.523.116 1.134.014 1.834h-5.026c.065.663.284 1.162.658 1.498.373.327.956.49 1.75.49.578 0 1.059-.07 1.442-.21.392-.149.723-.303.994-.462v1.344Zm-2.94-5.586c-.476 0-.878.145-1.204.434-.327.289-.542.719-.644 1.288h3.416c.018-.588-.112-1.022-.392-1.302s-.672-.42-1.176-.42Zm8.607.42a3.588 3.588 0 0 0-1.442.252 1.97 1.97 0 0 0-.98.84V140h-1.624v-7.266h1.484l.112 1.512h.028a3.25 3.25 0 0 1 .952-1.12c.411-.299.901-.476 1.47-.532v1.708ZM413.729 140h-2.31l-2.03-7.434-2.058 7.434h-2.324l-2.156-10.038h1.736l1.708 8.358 2.338-8.358h1.666l2.296 8.246 1.75-8.246h1.554L413.729 140Zm9.063-.532c-.103.065-.229.14-.378.224-.15.075-.327.145-.532.21a5.449 5.449 0 0 1-1.638.238c-1.335 0-2.334-.331-2.996-.994-.654-.663-.98-1.591-.98-2.786 0-.588.088-1.115.266-1.582.177-.467.424-.859.742-1.176a3.1 3.1 0 0 1 1.134-.742 3.815 3.815 0 0 1 1.442-.266c.541 0 1.026.089 1.456.266.438.177.798.443 1.078.798.28.355.471.793.574 1.316.112.523.116 1.134.014 1.834h-5.026c.065.663.284 1.162.658 1.498.373.327.956.49 1.75.49.578 0 1.059-.07 1.442-.21.392-.149.723-.303.994-.462v1.344Zm-2.94-5.586c-.476 0-.878.145-1.204.434-.327.289-.542.719-.644 1.288h3.416c.018-.588-.112-1.022-.392-1.302s-.672-.42-1.176-.42Zm11.785 2.478c0 .644-.089 1.204-.266 1.68a3.33 3.33 0 0 1-.7 1.176c-.289.308-.63.541-1.022.7a3.44 3.44 0 0 1-1.232.224c-.56 0-1.045-.126-1.456-.378a2.881 2.881 0 0 1-.966-1.064l-.042 1.302h-1.54v-10.038h1.624l-.014 4.046c.243-.439.565-.784.966-1.036s.887-.378 1.456-.378c.429 0 .835.079 1.218.238.392.149.733.383 1.022.7.289.308.518.7.686 1.176.177.467.266 1.017.266 1.652Zm-3.612 2.422c.579 0 1.045-.196 1.4-.588.364-.401.546-1.013.546-1.834 0-.812-.182-1.419-.546-1.82-.355-.401-.817-.602-1.386-.602-.289 0-.555.051-.798.154a1.678 1.678 0 0 0-.644.448 2.26 2.26 0 0 0-.42.77 3.227 3.227 0 0 0-.154 1.05c0 .411.051.77.154 1.078.103.299.243.551.42.756.177.196.387.345.63.448.252.093.518.14.798.14Zm10.458 1.358c-.364 0-.696-.033-.994-.098a4.78 4.78 0 0 1-.77-.21 3.705 3.705 0 0 1-.574-.266 3.671 3.671 0 0 1-.364-.252v-1.288c.093.084.219.177.378.28.168.093.359.187.574.28a4.795 4.795 0 0 0 1.694.294c.513 0 .886-.075 1.12-.224a.772.772 0 0 0 .364-.686c0-.196-.047-.35-.14-.462a.959.959 0 0 0-.378-.266 2.258 2.258 0 0 0-.56-.14c-.206-.037-.42-.079-.644-.126a9.69 9.69 0 0 1-.868-.21 3.082 3.082 0 0 1-.77-.378 1.979 1.979 0 0 1-.56-.616c-.14-.252-.21-.574-.21-.966 0-.691.256-1.232.77-1.624.513-.392 1.246-.588 2.198-.588.541 0 1.008.056 1.4.168.401.112.695.229.882.35v1.288a3.46 3.46 0 0 0-.868-.392c-.355-.112-.803-.168-1.344-.168-.532 0-.92.07-1.162.21-.243.14-.364.359-.364.658 0 .168.042.303.126.406.093.093.21.168.35.224.149.056.317.103.504.14.196.028.396.061.602.098.289.056.583.126.882.21.308.075.583.196.826.364.252.159.457.373.616.644.158.271.238.621.238 1.05 0 .439-.084.807-.252 1.106a2.012 2.012 0 0 1-.672.7c-.28.177-.598.303-.952.378a5.198 5.198 0 0 1-1.078.112Zm10.381-.672c-.103.065-.229.14-.378.224a3.642 3.642 0 0 1-.532.21 5.449 5.449 0 0 1-1.638.238c-1.335 0-2.333-.331-2.996-.994-.653-.663-.98-1.591-.98-2.786 0-.588.089-1.115.266-1.582.177-.467.425-.859.742-1.176a3.1 3.1 0 0 1 1.134-.742 3.82 3.82 0 0 1 1.442-.266 3.79 3.79 0 0 1 1.456.266c.439.177.798.443 1.078.798.28.355.471.793.574 1.316.112.523.117 1.134.014 1.834h-5.026c.065.663.285 1.162.658 1.498.373.327.957.49 1.75.49.579 0 1.059-.07 1.442-.21.392-.149.723-.303.994-.462v1.344Zm-2.94-5.586c-.476 0-.877.145-1.204.434-.327.289-.541.719-.644 1.288h3.416c.019-.588-.112-1.022-.392-1.302s-.672-.42-1.176-.42Zm8.607.42a3.59 3.59 0 0 0-1.442.252 1.97 1.97 0 0 0-.98.84V140h-1.624v-7.266h1.484l.112 1.512h.028a3.26 3.26 0 0 1 .952-1.12c.411-.299.901-.476 1.47-.532v1.708Zm5.424 5.698h-2.212l-2.478-7.266h1.708l1.946 5.95 1.988-5.95h1.526L459.955 140Zm9.389-.532c-.102.065-.228.14-.378.224a3.598 3.598 0 0 1-.532.21 5.432 5.432 0 0 1-1.638.238c-1.334 0-2.333-.331-2.996-.994-.653-.663-.98-1.591-.98-2.786 0-.588.089-1.115.266-1.582.178-.467.425-.859.742-1.176a3.117 3.117 0 0 1 1.134-.742c.439-.177.92-.266 1.442-.266.542 0 1.027.089 1.456.266.439.177.798.443 1.078.798.28.355.472.793.574 1.316.112.523.117 1.134.014 1.834H464.5c.066.663.285 1.162.658 1.498.374.327.957.49 1.75.49.579 0 1.06-.07 1.442-.21.392-.149.724-.303.994-.462v1.344Zm-2.94-5.586c-.476 0-.877.145-1.204.434-.326.289-.541.719-.644 1.288h3.416c.019-.588-.112-1.022-.392-1.302s-.672-.42-1.176-.42Zm8.608.42a3.588 3.588 0 0 0-1.442.252c-.43.177-.756.457-.98.84V140h-1.624v-7.266h1.484l.112 1.512h.028a3.24 3.24 0 0 1 .952-1.12c.41-.299.9-.476 1.47-.532v1.708ZM572.805 129.962h1.708v6.482c0 .756.21 1.321.63 1.694.429.373 1.003.56 1.722.56.709 0 1.283-.187 1.722-.56.439-.373.658-.938.658-1.694v-6.482h1.54v6.524c0 .588-.098 1.111-.294 1.568a3.15 3.15 0 0 1-.826 1.134 3.63 3.63 0 0 1-1.246.714 5.148 5.148 0 0 1-1.61.238 5.512 5.512 0 0 1-1.596-.224 3.739 3.739 0 0 1-1.26-.686 3.159 3.159 0 0 1-.84-1.12c-.205-.457-.308-.98-.308-1.568v-6.58Zm12.075 10.178c-.364 0-.695-.033-.994-.098a4.808 4.808 0 0 1-.77-.21 3.75 3.75 0 0 1-.574-.266 3.926 3.926 0 0 1-.364-.252v-1.288c.094.084.22.177.378.28.168.093.36.187.574.28a4.802 4.802 0 0 0 1.694.294c.514 0 .887-.075 1.12-.224a.77.77 0 0 0 .364-.686c0-.196-.046-.35-.14-.462a.944.944 0 0 0-.378-.266 2.235 2.235 0 0 0-.56-.14c-.205-.037-.42-.079-.644-.126a9.858 9.858 0 0 1-.868-.21 3.099 3.099 0 0 1-.77-.378 1.99 1.99 0 0 1-.56-.616c-.14-.252-.21-.574-.21-.966 0-.691.257-1.232.77-1.624.514-.392 1.246-.588 2.198-.588.542 0 1.008.056 1.4.168.402.112.696.229.882.35v1.288a3.444 3.444 0 0 0-.868-.392c-.354-.112-.802-.168-1.344-.168-.532 0-.919.07-1.162.21-.242.14-.364.359-.364.658 0 .168.042.303.126.406.094.093.21.168.35.224.15.056.318.103.504.14a10.797 10.797 0 0 1 1.484.308c.308.075.584.196.826.364.252.159.458.373.616.644.159.271.238.621.238 1.05 0 .439-.084.807-.252 1.106a2.012 2.012 0 0 1-.672.7c-.28.177-.597.303-.952.378a5.191 5.191 0 0 1-1.078.112Zm10.381-.672c-.102.065-.228.14-.378.224a3.598 3.598 0 0 1-.532.21 5.432 5.432 0 0 1-1.638.238c-1.334 0-2.333-.331-2.996-.994-.653-.663-.98-1.591-.98-2.786 0-.588.089-1.115.266-1.582.178-.467.425-.859.742-1.176a3.117 3.117 0 0 1 1.134-.742c.439-.177.92-.266 1.442-.266.542 0 1.027.089 1.456.266.439.177.798.443 1.078.798.28.355.472.793.574 1.316.112.523.117 1.134.014 1.834h-5.026c.066.663.285 1.162.658 1.498.374.327.957.49 1.75.49.579 0 1.06-.07 1.442-.21.392-.149.724-.303.994-.462v1.344Zm-2.94-5.586c-.476 0-.877.145-1.204.434-.326.289-.541.719-.644 1.288h3.416c.019-.588-.112-1.022-.392-1.302s-.672-.42-1.176-.42Zm8.608.42a3.588 3.588 0 0 0-1.442.252c-.43.177-.756.457-.98.84V140h-1.624v-7.266h1.484l.112 1.512h.028a3.24 3.24 0 0 1 .952-1.12c.41-.299.9-.476 1.47-.532v1.708Zm5.229-2.492a.978.978 0 0 1-1.022-.994.978.978 0 0 1 1.022-.994c.289 0 .527.098.714.294a.955.955 0 0 1 .294.7.955.955 0 0 1-.294.7.944.944 0 0 1-.714.294Zm.812.924V140h-1.624v-7.266h1.624Zm5.377 1.204c-.476 0-.868.103-1.176.308-.308.196-.56.453-.756.77V140h-1.624v-7.266h1.54l.056 1.19h.028c.196-.383.49-.7.882-.952.401-.252.91-.378 1.526-.378.709 0 1.288.191 1.736.574.457.383.686.966.686 1.75V140h-1.638v-4.914c0-.42-.112-.714-.336-.882-.224-.177-.532-.266-.924-.266Zm8.539 5.838a2.31 2.31 0 0 1-.63.252 3.047 3.047 0 0 1-.868.112c-.392 0-.723-.051-.994-.154a1.809 1.809 0 0 1-.644-.448 1.701 1.701 0 0 1-.364-.644 2.818 2.818 0 0 1-.112-.798v-4.046h-.868v-1.316h.868v-1.526h1.624v1.526h2.086v1.316h-2.086v3.864c0 .299.07.518.21.658.15.14.392.21.728.21.224 0 .42-.033.588-.098.168-.065.322-.154.462-.266v1.358Zm7.516-.308c-.103.065-.229.14-.378.224a3.642 3.642 0 0 1-.532.21 5.449 5.449 0 0 1-1.638.238c-1.335 0-2.333-.331-2.996-.994-.653-.663-.98-1.591-.98-2.786 0-.588.089-1.115.266-1.582.177-.467.425-.859.742-1.176a3.1 3.1 0 0 1 1.134-.742 3.82 3.82 0 0 1 1.442-.266 3.79 3.79 0 0 1 1.456.266c.439.177.798.443 1.078.798.28.355.471.793.574 1.316.112.523.117 1.134.014 1.834h-5.026c.065.663.285 1.162.658 1.498.373.327.957.49 1.75.49.579 0 1.059-.07 1.442-.21.392-.149.723-.303.994-.462v1.344Zm-2.94-5.586c-.476 0-.877.145-1.204.434-.327.289-.541.719-.644 1.288h3.416c.019-.588-.112-1.022-.392-1.302s-.672-.42-1.176-.42Zm8.607.42a3.59 3.59 0 0 0-1.442.252 1.97 1.97 0 0 0-.98.84V140h-1.624v-7.266h1.484l.112 1.512h.028a3.26 3.26 0 0 1 .952-1.12c.411-.299.901-.476 1.47-.532v1.708Zm3.469-.252V140h-1.61v-5.95h-.868v-1.316h.868v-.126c0-.877.252-1.559.756-2.044.504-.485 1.176-.728 2.016-.728.242 0 .443.009.602.028.158.019.303.051.434.098v1.372a1.67 1.67 0 0 0-.364-.098 2.42 2.42 0 0 0-.546-.056c-.392 0-.705.117-.938.35-.234.233-.35.593-.35 1.078v.126h2.044v1.316h-2.044Zm7.39 4.676a2.44 2.44 0 0 1-.308.504 2.151 2.151 0 0 1-.462.462 2.295 2.295 0 0 1-.644.322 2.792 2.792 0 0 1-.882.126 2.7 2.7 0 0 1-.882-.14 1.973 1.973 0 0 1-.714-.392 2.018 2.018 0 0 1-.476-.658 2.4 2.4 0 0 1-.168-.924c0-.793.294-1.386.882-1.778.588-.401 1.419-.602 2.492-.602h1.106v-.448c0-.476-.121-.803-.364-.98-.243-.187-.644-.28-1.204-.28-.476 0-.924.07-1.344.21a5.936 5.936 0 0 0-1.092.462v-1.358c.289-.159.672-.308 1.148-.448.476-.14.994-.21 1.554-.21.933 0 1.652.196 2.156.588.513.383.77.999.77 1.848v4.088c.009.103.014.21.014.322l.028.322c.009.093.019.173.028.238h-1.498a6.439 6.439 0 0 1-.084-.546 19.152 19.152 0 0 1-.042-.63l-.014-.098Zm-1.848.154c.345 0 .63-.07.854-.21.233-.149.42-.317.56-.504a1.97 1.97 0 0 0 .294-.574 1.63 1.63 0 0 0 .084-.392v-.49h-1.008c-.644 0-1.115.103-1.414.308a.945.945 0 0 0-.448.84c0 .317.089.569.266.756.187.177.457.266.812.266Zm8.514 1.26a4.651 4.651 0 0 1-1.582-.252 3.433 3.433 0 0 1-1.19-.742 3.322 3.322 0 0 1-.756-1.19c-.177-.467-.266-.999-.266-1.596 0-.588.089-1.115.266-1.582a3.16 3.16 0 0 1 1.96-1.918 4.551 4.551 0 0 1 1.596-.266 4.6 4.6 0 0 1 1.316.168c.383.112.686.252.91.42v1.344a3.68 3.68 0 0 0-.952-.434 4.026 4.026 0 0 0-1.176-.154c-1.503 0-2.254.807-2.254 2.422 0 1.615.737 2.422 2.212 2.422.476 0 .882-.051 1.218-.154a4.9 4.9 0 0 0 .952-.42v1.344a3.926 3.926 0 0 1-.91.42c-.364.112-.812.168-1.344.168Zm9.73-.672c-.103.065-.229.14-.378.224a3.642 3.642 0 0 1-.532.21 5.449 5.449 0 0 1-1.638.238c-1.335 0-2.333-.331-2.996-.994-.653-.663-.98-1.591-.98-2.786 0-.588.089-1.115.266-1.582.177-.467.425-.859.742-1.176a3.1 3.1 0 0 1 1.134-.742 3.82 3.82 0 0 1 1.442-.266 3.79 3.79 0 0 1 1.456.266c.439.177.798.443 1.078.798.28.355.471.793.574 1.316.112.523.117 1.134.014 1.834h-5.026c.065.663.285 1.162.658 1.498.373.327.957.49 1.75.49.579 0 1.059-.07 1.442-.21.392-.149.723-.303.994-.462v1.344Zm-2.94-5.586c-.476 0-.877.145-1.204.434-.327.289-.541.719-.644 1.288h3.416c.019-.588-.112-1.022-.392-1.302s-.672-.42-1.176-.42Z"/></svg>