<svg xmlns="http://www.w3.org/2000/svg" width="16" height="16" viewBox="0 0 16 16">
    <path d="M16 1.5c0 .828-1.344 1.5-3 1.5s-3-.672-3-1.5S11.344 0 13 0s3 .672 3 1.5ZM5 11.602V14.3c0 .898 1.3 1.597 3 1.597s3-.699 3-1.597v-2.7c-.8.7-1.898 1-3 1s-2.2-.3-3-1ZM10 3v-.398c.8.699 1.898 1 3 1s2.2-.301 3-1v2.796c0 .801-1.2 1.5-2.8 1.602l-2.473 2.871c.175.191.273.406.273.629 0 .828-1.344 1.5-3 1.5s-3-.672-3-1.5c0-.207.082-.402.23-.578L2.8 7.102C1.3 7 0 6.3 0 5.5V2.602c.8.699 1.898 1 3 1s2.2-.301 3-1V3Zm-.277 6.273A5.242 5.242 0 0 0 8 9c-.266 0-.523.016-.766.05a5.678 5.678 0 0 0-1.132.25L4 6.899c1.102-.199 2-.796 2-1.5V4h4v1.398c0 .704.7 1.301 1.8 1.5ZM6 1.5C6 2.328 4.656 3 3 3s-3-.672-3-1.5S1.344 0 3 0s3 .672 3 1.5Zm0 0" style="stroke:none;fill-rule:evenodd;fill:#5282ff;fill-opacity:1"/>
</svg>
