<?xml version="1.0" encoding="UTF-8"?>
<svg xmlns="http://www.w3.org/2000/svg" xmlns:xlink="http://www.w3.org/1999/xlink" width="16px" height="16px" viewBox="0 0 16 16" version="1.1">
<g id="surface1">
<path style=" stroke:none;fill-rule:nonzero;fill:rgb(32.156863%,50.980392%,100%);fill-opacity:1;" d="M 7.476562 12.773438 C 7.027344 13.148438 6.464844 13.332031 5.792969 13.332031 C 5.445312 13.332031 5.195312 13.304688 5.046875 13.25 L 5.046875 11.953125 C 5.109375 11.96875 5.21875 11.988281 5.375 12.007812 C 5.53125 12.027344 5.671875 12.039062 5.792969 12.039062 C 6.121094 12.039062 6.359375 11.945312 6.507812 11.761719 C 6.65625 11.578125 6.757812 11.304688 6.8125 10.9375 L 7.464844 7.09375 L 6.601562 7.09375 L 6.847656 5.878906 L 7.675781 5.878906 L 7.816406 5.039062 C 7.949219 4.203125 8.242188 3.601562 8.691406 3.226562 C 9.144531 2.851562 9.714844 2.667969 10.410156 2.667969 C 10.574219 2.667969 10.714844 2.675781 10.835938 2.691406 C 10.957031 2.707031 11.046875 2.722656 11.109375 2.738281 L 11.109375 4.058594 C 11.050781 4.035156 10.941406 4.011719 10.785156 4 C 10.628906 3.984375 10.488281 3.976562 10.363281 3.976562 C 10.035156 3.976562 9.800781 4.0625 9.65625 4.238281 C 9.511719 4.414062 9.410156 4.679688 9.347656 5.039062 L 9.207031 5.878906 L 10.609375 5.878906 L 10.363281 7.09375 L 8.996094 7.09375 L 8.351562 10.960938 C 8.222656 11.796875 7.929688 12.398438 7.476562 12.773438 Z M 4.699219 15.980469 C 4.867188 15.96875 5.050781 15.945312 5.253906 15.90625 L 5.328125 15.894531 L 5.328125 14.746094 L 5.222656 14.765625 C 4.871094 14.835938 4.574219 14.871094 4.339844 14.871094 C 3.773438 14.871094 3.378906 14.738281 3.171875 14.476562 C 2.964844 14.203125 2.859375 13.859375 2.859375 13.445312 C 2.859375 13.175781 2.878906 12.921875 2.925781 12.652344 L 3.164062 11.269531 C 3.207031 11.023438 3.226562 10.742188 3.226562 10.4375 C 3.226562 10.183594 3.203125 9.9375 3.15625 9.703125 C 3.105469 9.464844 3.011719 9.238281 2.871094 9.023438 C 2.730469 8.8125 2.539062 8.609375 2.304688 8.421875 C 2.113281 8.269531 1.875 8.132812 1.589844 8.007812 C 1.871094 7.886719 2.113281 7.746094 2.3125 7.589844 C 2.554688 7.402344 2.742188 7.195312 2.878906 6.96875 C 3.011719 6.746094 3.105469 6.507812 3.15625 6.261719 C 3.203125 6.019531 3.226562 5.773438 3.226562 5.519531 C 3.226562 5.222656 3.207031 4.945312 3.164062 4.703125 L 2.917969 3.300781 C 2.878906 3.066406 2.859375 2.816406 2.859375 2.554688 C 2.859375 2.121094 2.964844 1.769531 3.179688 1.507812 C 3.390625 1.253906 3.789062 1.125 4.355469 1.125 C 4.484375 1.125 4.617188 1.132812 4.761719 1.152344 C 4.90625 1.167969 5.328125 1.226562 5.328125 1.226562 L 5.328125 0.0976562 L 4.703125 0.0273438 C 4.53125 0.0078125 4.363281 0 4.199219 0 C 3.269531 0 2.582031 0.234375 2.148438 0.699219 C 1.71875 1.160156 1.5 1.773438 1.5 2.523438 C 1.5 2.816406 1.523438 3.085938 1.570312 3.324219 C 1.617188 3.566406 1.667969 3.804688 1.722656 4.039062 C 1.773438 4.277344 1.824219 4.515625 1.871094 4.761719 C 1.917969 5.003906 1.941406 5.273438 1.941406 5.558594 C 1.941406 5.792969 1.917969 6.023438 1.871094 6.234375 C 1.828125 6.441406 1.742188 6.621094 1.605469 6.78125 C 1.476562 6.941406 1.289062 7.078125 1.046875 7.1875 C 0.808594 7.300781 0.480469 7.375 0.078125 7.410156 L 0 7.417969 L 0 8.585938 L 0.0820312 8.589844 C 0.503906 8.625 0.839844 8.703125 1.078125 8.828125 C 1.320312 8.953125 1.503906 9.101562 1.632812 9.269531 C 1.757812 9.441406 1.839844 9.640625 1.878906 9.859375 C 1.921875 10.09375 1.941406 10.335938 1.941406 10.585938 C 1.941406 10.859375 1.917969 11.113281 1.871094 11.34375 C 1.824219 11.574219 1.773438 11.808594 1.722656 12.039062 C 1.667969 12.269531 1.617188 12.5 1.570312 12.734375 C 1.523438 12.972656 1.5 13.226562 1.5 13.511719 C 1.5 14.25 1.714844 14.855469 2.140625 15.308594 C 2.566406 15.765625 3.257812 16 4.199219 16 C 4.363281 16 4.53125 15.992188 4.699219 15.980469 Z M 11.800781 16 C 12.742188 16 13.433594 15.765625 13.859375 15.3125 C 14.285156 14.855469 14.5 14.253906 14.5 13.511719 C 14.5 13.230469 14.476562 12.976562 14.425781 12.738281 C 14.382812 12.503906 14.332031 12.269531 14.277344 12.039062 C 14.226562 11.808594 14.175781 11.578125 14.128906 11.34375 C 14.082031 11.113281 14.058594 10.859375 14.058594 10.585938 C 14.058594 10.339844 14.078125 10.09375 14.117188 9.859375 C 14.15625 9.640625 14.242188 9.441406 14.367188 9.269531 C 14.492188 9.101562 14.679688 8.953125 14.917969 8.832031 C 15.160156 8.707031 15.496094 8.625 15.917969 8.59375 L 16 8.585938 L 16 7.417969 L 15.921875 7.410156 C 15.515625 7.375 15.191406 7.300781 14.953125 7.1875 C 14.710938 7.078125 14.523438 6.941406 14.390625 6.78125 C 14.257812 6.621094 14.171875 6.441406 14.128906 6.234375 C 14.082031 6.023438 14.058594 5.792969 14.058594 5.558594 C 14.058594 5.273438 14.082031 5.003906 14.128906 4.761719 C 14.175781 4.515625 14.226562 4.273438 14.277344 4.039062 C 14.332031 3.804688 14.382812 3.566406 14.429688 3.324219 C 14.476562 3.082031 14.5 2.816406 14.5 2.519531 C 14.5 1.773438 14.28125 1.160156 13.851562 0.695312 C 13.417969 0.234375 12.730469 0 11.800781 0 C 11.632812 0 11.464844 0.0078125 11.296875 0.0273438 L 10.671875 0.0976562 L 10.671875 1.226562 C 10.671875 1.226562 11.09375 1.171875 11.238281 1.152344 C 11.382812 1.136719 11.515625 1.128906 11.644531 1.128906 C 12.210938 1.128906 12.609375 1.257812 12.820312 1.511719 C 13.035156 1.769531 13.140625 2.121094 13.140625 2.558594 C 13.140625 2.816406 13.121094 3.066406 13.082031 3.300781 L 12.835938 4.703125 C 12.792969 4.949219 12.773438 5.222656 12.773438 5.523438 C 12.773438 5.773438 12.796875 6.023438 12.84375 6.261719 C 12.894531 6.507812 12.988281 6.746094 13.121094 6.96875 C 13.253906 7.195312 13.445312 7.40625 13.6875 7.59375 C 13.886719 7.746094 14.128906 7.886719 14.410156 8.007812 C 14.125 8.132812 13.886719 8.273438 13.695312 8.425781 C 13.460938 8.609375 13.269531 8.8125 13.128906 9.023438 C 12.988281 9.238281 12.894531 9.46875 12.84375 9.707031 C 12.796875 9.941406 12.773438 10.1875 12.773438 10.4375 C 12.773438 10.746094 12.792969 11.027344 12.835938 11.269531 L 13.074219 12.652344 C 13.121094 12.921875 13.140625 13.179688 13.140625 13.445312 C 13.140625 13.859375 13.035156 14.207031 12.828125 14.476562 C 12.621094 14.738281 12.226562 14.871094 11.660156 14.871094 C 11.425781 14.871094 11.125 14.839844 10.777344 14.769531 L 10.671875 14.75 L 10.671875 15.898438 L 10.746094 15.910156 C 10.949219 15.945312 11.132812 15.972656 11.300781 15.984375 C 11.46875 15.992188 11.636719 16 11.800781 16 Z M 11.800781 16 "/>
</g>
</svg>
