<svg xmlns="http://www.w3.org/2000/svg" width="16" height="16" viewBox="0 0 16 16">
    <path d="M7.477 12.773c-.45.375-1.012.559-1.684.559-.348 0-.598-.027-.746-.082v-1.297c.062.016.172.035.328.055.156.02.297.031.418.031.328 0 .566-.094.715-.277.148-.184.25-.457.304-.825l.653-3.843h-.863l.246-1.215h.828l.14-.84c.133-.836.426-1.437.875-1.812.454-.375 1.024-.559 1.72-.559.163 0 .304.008.425.023.121.016.21.032.273.047v1.32A1.2 1.2 0 0 0 10.785 4a4.28 4.28 0 0 0-.422-.023c-.328 0-.562.086-.707.261-.144.176-.246.442-.308.801l-.141.84h1.402l-.246 1.215H8.996l-.644 3.867c-.13.836-.422 1.437-.875 1.812ZM4.699 15.98a4.51 4.51 0 0 0 .555-.074l.074-.011v-1.149l-.105.02a4.7 4.7 0 0 1-.883.105c-.567 0-.961-.133-1.168-.394-.207-.274-.313-.618-.313-1.032 0-.27.02-.523.067-.793l.238-1.382a4.91 4.91 0 0 0 .063-.832c0-.254-.024-.5-.07-.735a1.987 1.987 0 0 0-.286-.68 2.71 2.71 0 0 0-.566-.601 3.221 3.221 0 0 0-.715-.414c.281-.121.523-.262.722-.418.243-.188.43-.395.567-.621a2.28 2.28 0 0 0 .277-.707 3.88 3.88 0 0 0 .07-.742c0-.297-.019-.575-.062-.817l-.246-1.402a4.55 4.55 0 0 1-.059-.746c0-.434.106-.785.32-1.047.212-.254.61-.383 1.176-.383.13 0 .262.008.407.027.144.016.566.075.566.075V.097l-.625-.07A4.452 4.452 0 0 0 4.2 0c-.93 0-1.617.234-2.05.7-.43.46-.649 1.073-.649 1.823 0 .293.023.563.07.801.047.242.098.48.153.715.05.238.101.477.148.723.047.242.07.511.07.797 0 .234-.023.464-.07.675a1.195 1.195 0 0 1-.266.547 1.49 1.49 0 0 1-.558.407c-.239.112-.568.187-.97.222L0 7.418v1.168l.082.004c.422.035.758.113.996.238.242.125.426.274.555.442.125.171.207.37.246.59.043.234.062.476.062.726 0 .273-.023.527-.07.758-.047.23-.098.465-.148.695-.055.23-.106.461-.153.695-.047.239-.07.493-.07.778 0 .738.215 1.343.64 1.797.426.457 1.118.691 2.06.691.163 0 .331-.008.5-.02Zm7.102.02c.941 0 1.633-.234 2.058-.688.426-.457.641-1.058.641-1.8 0-.282-.023-.535-.074-.774a13.879 13.879 0 0 0-.149-.699c-.05-.23-.101-.46-.148-.695a3.816 3.816 0 0 1-.07-.758c0-.246.02-.492.058-.727a1.44 1.44 0 0 1 .25-.59c.125-.167.313-.316.551-.437.242-.125.578-.207 1-.238L16 8.586V7.418l-.078-.008c-.406-.035-.73-.11-.969-.223a1.54 1.54 0 0 1-.562-.406 1.229 1.229 0 0 1-.262-.547 3.145 3.145 0 0 1-.07-.675c0-.286.023-.555.07-.797.047-.246.098-.489.148-.723.055-.234.106-.473.153-.715s.07-.508.07-.804c0-.747-.219-1.36-.648-1.825C13.418.235 12.73 0 11.8 0a4.48 4.48 0 0 0-.504.027l-.625.07v1.13l.566-.075c.145-.015.278-.023.407-.023.566 0 .964.129 1.175.383.215.258.32.61.32 1.047 0 .257-.019.507-.058.742l-.246 1.402c-.043.246-.063.52-.063.82 0 .25.024.5.07.739a2.227 2.227 0 0 0 .844 1.332c.2.152.442.293.723.414a3.224 3.224 0 0 0-.715.418 2.614 2.614 0 0 0-.566.597c-.14.215-.234.446-.285.684a3.72 3.72 0 0 0-.07.73c0 .31.019.59.062.833l.238 1.382c.047.27.067.528.067.793 0 .414-.106.762-.313 1.032-.207.261-.601.394-1.168.394-.234 0-.535-.031-.883-.101l-.105-.02v1.148l.074.012c.203.035.387.063.555.074.168.008.336.016.5.016Zm0 0" style="stroke:none;fill-rule:nonzero;fill:#5282ff;fill-opacity:1"/>
</svg>
