<svg xmlns="http://www.w3.org/2000/svg" width="16" height="16" viewBox="0 0 16 16">
    <path d="M.063 9h10.019a1.502 1.502 0 0 0 2.477.563 1.51 1.51 0 0 0 0-2.126A1.502 1.502 0 0 0 11.496 7c-.652 0-1.21.414-1.414 1H0v.027V8c0-4.414 3.586-8 8-8 1.2 0 2.383.27 3.465.79A7.97 7.97 0 0 1 14.242 3H7.914a1.504 1.504 0 0 0-2.746-.191 1.514 1.514 0 0 0 .105 1.558c.16.223.38.399.63.508a1.507 1.507 0 0 0 1.547-.21c.21-.177.374-.407.464-.665h7.016A7.98 7.98 0 0 1 16 8a7.93 7.93 0 0 1-1.074 4H7.914a1.504 1.504 0 0 0-2.746-.191 1.514 1.514 0 0 0 .105 1.558c.16.223.38.399.63.508a1.507 1.507 0 0 0 1.547-.21c.21-.177.374-.407.464-.665h6.328a7.97 7.97 0 0 1-2.777 2.21A8.003 8.003 0 0 1 2.707 14 7.994 7.994 0 0 1 .063 9Zm0 0" style="stroke:none;fill-rule:evenodd;fill:#5282ff;fill-opacity:1"/>
</svg>
