<svg width="16" height="16" viewBox="0 0 28 28" fill="none" xmlns="http://www.w3.org/2000/svg">
<circle cx="14" cy="14" r="14" fill="#5282FF"/>
<path d="M10 7.45455V6H8.6C7.4402 6 6.5 6.9402 6.5 8.1V10.9992C6.5 11.2204 6.46329 11.4401 6.39137 11.6493L6.23275 12.1108C6.08377 12.5442 5.76813 12.9003 5.35574 13.1002C5.12163 13.2138 4.86483 13.2727 4.60465 13.2727H4V15.2121H4.54658C4.84498 15.2121 5.13949 15.2798 5.408 15.4099L5.43194 15.4215C5.80068 15.6003 6.10152 15.8939 6.28932 16.2581C6.42777 16.5266 6.5 16.8243 6.5 17.1264V17.1515V19.9C6.5 21.0598 7.4402 22 8.6 22H10V20.5455H9C8.44772 20.5455 8 20.0977 8 19.5455V16.9667C8 16.1551 7.67112 15.3781 7.08844 14.813L7 14.7273L6.5 14.2424L6.85703 13.8962C6.95211 13.804 7.03779 13.7026 7.11282 13.5935L7.47213 13.0708C7.81594 12.5708 8 11.9781 8 11.3713V8.45455C8 7.90226 8.44772 7.45455 9 7.45455H10Z" fill="white" stroke="white" stroke-width="0.1"/>
<path d="M18 7.45455V6H19.4C20.5598 6 21.5 6.9402 21.5 8.1V10.9992C21.5 11.2204 21.5367 11.4401 21.6086 11.6493L21.7672 12.1108C21.9162 12.5442 22.2319 12.9003 22.6443 13.1002C22.8784 13.2138 23.1352 13.2727 23.3954 13.2727H24V15.2121H23.4534C23.155 15.2121 22.8605 15.2798 22.592 15.4099L22.5681 15.4215C22.1993 15.6003 21.8985 15.8939 21.7107 16.2581C21.5722 16.5266 21.5 16.8243 21.5 17.1264V17.1515V19.9C21.5 21.0598 20.5598 22 19.4 22H18V20.5455H19C19.5523 20.5455 20 20.0977 20 19.5455V16.9667C20 16.1551 20.3289 15.3781 20.9116 14.813L21 14.7273L21.5 14.2424L21.143 13.8962C21.0479 13.804 20.9622 13.7026 20.8872 13.5935L20.5279 13.0708C20.1841 12.5708 20 11.9781 20 11.3713V8.45455C20 7.90226 19.5523 7.45455 19 7.45455H18Z" fill="white" stroke="white" stroke-width="0.1"/>
<circle cx="10" cy="14.75" r="1" fill="white"/>
<circle cx="14" cy="14.75" r="1" fill="white"/>
<circle cx="18" cy="14.75" r="1" fill="white"/>
</svg>
