<?xml version="1.0" encoding="UTF-8"?>
<svg xmlns="http://www.w3.org/2000/svg" xmlns:xlink="http://www.w3.org/1999/xlink" width="18px" height="25px" viewBox="0 0 18 24" version="1.1">
<defs>
<clipPath id="clip1">
  <path d="M 1.085938 1.027344 L 16.90625 1.027344 L 16.90625 22.980469 L 1.085938 22.980469 Z M 1.085938 1.027344 "/>
</clipPath>
</defs>
<g id="surface1">
<g clip-path="url(#clip1)" clip-rule="nonzero">
<path style=" stroke:none;fill-rule:nonzero;fill:rgb(100%,100%,100%);fill-opacity:1;" d="M 1.085938 1.027344 L 16.90625 1.027344 L 16.90625 22.980469 L 1.085938 22.980469 Z M 1.085938 1.027344 "/>
</g>
<path style=" stroke:none;fill-rule:evenodd;fill:rgb(0%,0%,0%);fill-opacity:1;" d="M 7.355469 3.019531 L 5.035156 1.652344 L 3.203125 3.019531 L 3.203125 15.3125 L 4.652344 14.609375 L 6.003906 13.949219 L 8.320312 15.3125 L 10.640625 13.949219 L 12.960938 15.3125 L 14.792969 13.949219 L 14.792969 1.652344 L 13.34375 2.359375 L 11.992188 3.019531 L 9.671875 1.652344 Z M 9.671875 3.265625 L 8.125 4.175781 L 7.355469 4.628906 L 6.585938 4.175781 L 5.132812 3.324219 L 4.652344 3.683594 L 4.652344 13.066406 L 5.339844 12.734375 L 6.070312 12.375 L 6.773438 12.792969 L 8.320312 13.703125 L 9.871094 12.792969 L 10.640625 12.339844 L 11.40625 12.792969 L 12.863281 13.644531 L 13.34375 13.285156 L 13.34375 3.894531 L 12.65625 4.234375 L 11.925781 4.589844 L 11.222656 4.175781 Z M 6.101562 7.121094 C 6.101562 7.09375 6.101562 7.074219 6.101562 7.050781 C 6.105469 7.027344 6.105469 7.003906 6.113281 6.984375 C 6.117188 6.964844 6.121094 6.941406 6.128906 6.921875 C 6.140625 6.894531 6.144531 6.875 6.15625 6.855469 C 6.164062 6.832031 6.171875 6.816406 6.1875 6.796875 C 6.199219 6.777344 6.210938 6.753906 6.21875 6.738281 C 6.234375 6.71875 6.246094 6.703125 6.261719 6.683594 C 6.28125 6.667969 6.296875 6.652344 6.3125 6.636719 C 6.328125 6.621094 6.34375 6.605469 6.367188 6.589844 C 6.382812 6.578125 6.402344 6.5625 6.421875 6.550781 C 6.441406 6.535156 6.464844 6.527344 6.484375 6.515625 C 6.5 6.503906 6.523438 6.496094 6.542969 6.484375 C 6.566406 6.480469 6.59375 6.46875 6.613281 6.464844 C 6.636719 6.457031 6.65625 6.453125 6.683594 6.449219 C 6.707031 6.441406 6.726562 6.4375 6.753906 6.4375 C 6.777344 6.4375 6.796875 6.433594 6.824219 6.433594 L 11.167969 6.433594 C 11.195312 6.433594 11.21875 6.4375 11.238281 6.4375 C 11.265625 6.4375 11.289062 6.441406 11.308594 6.449219 C 11.335938 6.453125 11.359375 6.457031 11.378906 6.464844 C 11.402344 6.46875 11.421875 6.480469 11.445312 6.484375 C 11.472656 6.496094 11.488281 6.503906 11.507812 6.515625 C 11.53125 6.527344 11.554688 6.535156 11.574219 6.550781 C 11.589844 6.5625 11.613281 6.578125 11.628906 6.589844 C 11.648438 6.605469 11.667969 6.621094 11.683594 6.636719 C 11.699219 6.652344 11.714844 6.667969 11.730469 6.683594 C 11.746094 6.703125 11.757812 6.71875 11.773438 6.738281 C 11.785156 6.753906 11.796875 6.777344 11.808594 6.796875 C 11.816406 6.816406 11.828125 6.832031 11.839844 6.855469 C 11.851562 6.875 11.855469 6.894531 11.859375 6.921875 C 11.871094 6.941406 11.878906 6.964844 11.882812 6.984375 C 11.882812 7.003906 11.886719 7.027344 11.894531 7.050781 C 11.894531 7.074219 11.894531 7.09375 11.894531 7.121094 C 11.894531 7.140625 11.894531 7.160156 11.894531 7.183594 C 11.886719 7.207031 11.882812 7.230469 11.882812 7.25 C 11.878906 7.269531 11.871094 7.296875 11.859375 7.316406 C 11.855469 7.339844 11.851562 7.359375 11.839844 7.378906 C 11.828125 7.402344 11.816406 7.421875 11.808594 7.4375 C 11.796875 7.457031 11.785156 7.480469 11.773438 7.496094 C 11.757812 7.515625 11.746094 7.53125 11.730469 7.550781 C 11.714844 7.566406 11.699219 7.582031 11.683594 7.597656 C 11.667969 7.613281 11.648438 7.628906 11.628906 7.644531 C 11.613281 7.660156 11.589844 7.671875 11.574219 7.6875 C 11.554688 7.699219 11.53125 7.707031 11.507812 7.71875 C 11.488281 7.730469 11.472656 7.738281 11.445312 7.75 C 11.421875 7.753906 11.402344 7.765625 11.378906 7.769531 C 11.359375 7.777344 11.335938 7.78125 11.308594 7.785156 C 11.289062 7.792969 11.265625 7.796875 11.238281 7.796875 C 11.21875 7.800781 11.195312 7.800781 11.167969 7.800781 L 6.824219 7.800781 C 6.796875 7.800781 6.777344 7.800781 6.753906 7.796875 C 6.726562 7.796875 6.707031 7.792969 6.683594 7.785156 C 6.65625 7.78125 6.636719 7.777344 6.613281 7.769531 C 6.59375 7.765625 6.566406 7.753906 6.542969 7.75 C 6.523438 7.738281 6.5 7.730469 6.484375 7.71875 C 6.464844 7.707031 6.441406 7.699219 6.421875 7.6875 C 6.402344 7.671875 6.382812 7.660156 6.367188 7.644531 C 6.34375 7.628906 6.328125 7.613281 6.3125 7.597656 C 6.296875 7.582031 6.28125 7.566406 6.261719 7.550781 C 6.246094 7.53125 6.234375 7.515625 6.21875 7.496094 C 6.210938 7.480469 6.199219 7.457031 6.1875 7.4375 C 6.171875 7.421875 6.164062 7.402344 6.15625 7.378906 C 6.144531 7.359375 6.140625 7.339844 6.128906 7.316406 C 6.121094 7.296875 6.117188 7.269531 6.113281 7.25 C 6.105469 7.230469 6.105469 7.207031 6.101562 7.183594 C 6.101562 7.160156 6.101562 7.140625 6.101562 7.121094 Z M 6.824219 9.167969 C 6.796875 9.167969 6.777344 9.167969 6.753906 9.171875 C 6.726562 9.171875 6.707031 9.175781 6.683594 9.183594 C 6.65625 9.183594 6.636719 9.1875 6.613281 9.199219 C 6.59375 9.203125 6.566406 9.207031 6.542969 9.21875 C 6.523438 9.230469 6.5 9.238281 6.484375 9.25 C 6.464844 9.261719 6.441406 9.269531 6.421875 9.28125 C 6.402344 9.296875 6.382812 9.308594 6.367188 9.324219 C 6.34375 9.339844 6.328125 9.347656 6.3125 9.363281 C 6.296875 9.378906 6.28125 9.402344 6.261719 9.417969 C 6.246094 9.433594 6.234375 9.453125 6.21875 9.46875 C 6.210938 9.488281 6.199219 9.511719 6.1875 9.527344 C 6.171875 9.546875 6.164062 9.566406 6.15625 9.589844 C 6.144531 9.609375 6.140625 9.628906 6.128906 9.652344 C 6.121094 9.671875 6.117188 9.691406 6.113281 9.71875 C 6.105469 9.738281 6.105469 9.761719 6.101562 9.78125 C 6.101562 9.808594 6.101562 9.828125 6.101562 9.847656 C 6.101562 9.871094 6.101562 9.894531 6.101562 9.917969 C 6.105469 9.9375 6.105469 9.964844 6.113281 9.984375 C 6.117188 10.003906 6.121094 10.027344 6.128906 10.046875 C 6.140625 10.066406 6.144531 10.089844 6.15625 10.109375 C 6.164062 10.128906 6.171875 10.152344 6.1875 10.171875 C 6.199219 10.191406 6.210938 10.207031 6.21875 10.230469 C 6.234375 10.25 6.246094 10.265625 6.261719 10.28125 C 6.28125 10.300781 6.296875 10.316406 6.3125 10.332031 C 6.328125 10.347656 6.34375 10.363281 6.367188 10.378906 C 6.382812 10.390625 6.402344 10.40625 6.421875 10.417969 C 6.441406 10.433594 6.464844 10.441406 6.484375 10.453125 C 6.5 10.464844 6.523438 10.472656 6.542969 10.480469 C 6.566406 10.488281 6.59375 10.496094 6.613281 10.503906 C 6.636719 10.511719 6.65625 10.515625 6.683594 10.519531 C 6.707031 10.527344 6.726562 10.527344 6.753906 10.53125 C 6.777344 10.53125 6.796875 10.53125 6.824219 10.53125 L 9.238281 10.53125 C 9.257812 10.53125 9.285156 10.53125 9.308594 10.53125 C 9.335938 10.527344 9.355469 10.527344 9.378906 10.519531 C 9.40625 10.515625 9.425781 10.511719 9.449219 10.503906 C 9.46875 10.496094 9.492188 10.488281 9.515625 10.480469 C 9.535156 10.472656 9.558594 10.464844 9.578125 10.453125 C 9.601562 10.441406 9.621094 10.433594 9.636719 10.417969 C 9.660156 10.40625 9.679688 10.390625 9.699219 10.378906 C 9.714844 10.363281 9.734375 10.347656 9.75 10.332031 C 9.769531 10.316406 9.785156 10.300781 9.800781 10.28125 C 9.8125 10.265625 9.828125 10.25 9.839844 10.230469 C 9.855469 10.207031 9.867188 10.191406 9.875 10.171875 C 9.886719 10.152344 9.898438 10.128906 9.910156 10.109375 C 9.914062 10.089844 9.925781 10.066406 9.929688 10.046875 C 9.941406 10.027344 9.945312 10.003906 9.945312 9.984375 C 9.953125 9.964844 9.957031 9.9375 9.957031 9.917969 C 9.960938 9.894531 9.960938 9.871094 9.960938 9.847656 C 9.960938 9.828125 9.960938 9.808594 9.957031 9.78125 C 9.957031 9.761719 9.953125 9.738281 9.945312 9.71875 C 9.945312 9.691406 9.941406 9.671875 9.929688 9.652344 C 9.925781 9.628906 9.914062 9.609375 9.910156 9.589844 C 9.898438 9.566406 9.886719 9.546875 9.875 9.527344 C 9.867188 9.511719 9.855469 9.488281 9.839844 9.46875 C 9.828125 9.453125 9.8125 9.433594 9.800781 9.417969 C 9.785156 9.402344 9.769531 9.378906 9.75 9.363281 C 9.734375 9.347656 9.714844 9.339844 9.699219 9.324219 C 9.679688 9.308594 9.660156 9.296875 9.636719 9.28125 C 9.621094 9.269531 9.601562 9.261719 9.578125 9.25 C 9.558594 9.238281 9.535156 9.230469 9.515625 9.21875 C 9.492188 9.207031 9.46875 9.203125 9.449219 9.199219 C 9.425781 9.1875 9.40625 9.183594 9.378906 9.183594 C 9.355469 9.175781 9.335938 9.171875 9.308594 9.171875 C 9.285156 9.167969 9.257812 9.167969 9.238281 9.167969 Z M 6.824219 9.167969 "/>
</g>
</svg>
