<svg xmlns="http://www.w3.org/2000/svg" width="16" height="16" fill="none" viewBox="0 0 16 16">
    <path fill="currentColor" fill-rule="evenodd" d="M8.53 11.78a.75.75 0 0 1-1.06 0l-2.5-2.5a.75.75 0 0 1 1.06-1.06l1.22 1.22V1.75a.75.75 0 0 1 1.5 0v7.69l1.22-1.22a.75.75 0 1 1 1.06 1.06l-2.5 2.5ZM4.25 4a.75.75 0 1 1 0 1.5H4A1.5 1.5 0 0 0 2.5 7v5A1.5 1.5 0 0 0 4 13.5h8a1.5 1.5 0 0 0 1.5-1.5V7A1.5 1.5 0 0 0 12 5.5h-.25a.75.75 0 0 1 0-1.5H12a3 3 0 0 1 3 3v5a3 3 0 0 1-3 3H4a3 3 0 0 1-3-3V7a3 3 0 0 1 3-3h.25Z" clip-rule="evenodd"/>
</svg>
