<svg xmlns="http://www.w3.org/2000/svg" width="16" height="16" fill="none" viewBox="0 0 16 16">
    <path fill="currentColor" fill-rule="evenodd" d="M8 1.5a6.5 6.5 0 0 1 6.445 5.649.75.75 0 1 1-1.488.194A5.001 5.001 0 0 0 4.43 4.5h1.32a.75.75 0 0 1 0 1.5h-3A.75.75 0 0 1 2 5.25v-3a.75.75 0 1 1 1.5 0v1.06A6.48 6.48 0 0 1 8 1.5m5.25 13a.75.75 0 0 0 .75-.75v-3a.75.75 0 0 0-.75-.75h-3a.75.75 0 1 0 0 1.5h1.32a5.001 5.001 0 0 1-8.528-2.843.75.75 0 1 0-1.487.194 6.501 6.501 0 0 0 10.945 3.84v1.059c0 .414.336.75.75.75" clip-rule="evenodd"/>
</svg>
