<svg xmlns="http://www.w3.org/2000/svg" width="16" height="16" fill="none" viewBox="0 0 16 16">
    <path fill="currentColor" fill-rule="evenodd" d="M7.25 2H6.5a1 1 0 0 0-1 1v3a1 1 0 0 0 1 1h3a1 1 0 0 0 1-1V3a1 1 0 0 0-1-1h-.75v1.75a.75.75 0 0 1-1.5 0V2ZM6.5.5A2.5 2.5 0 0 0 4 3v3c0 .356.074.694.208 1H3A2.5 2.5 0 0 0 .5 9.5v3A2.5 2.5 0 0 0 3 15h10a2.5 2.5 0 0 0 2.5-2.5v-3A2.5 2.5 0 0 0 13 7h-1.208c.134-.306.208-.644.208-1V3A2.5 2.5 0 0 0 9.5.5h-3Zm.75 9a1 1 0 0 0-1-1h-1v1.75a.75.75 0 0 1-1.5 0V8.5H3a1 1 0 0 0-1 1v3a1 1 0 0 0 1 1h3.25a1 1 0 0 0 1-1v-3Zm1.5 3a1 1 0 0 0 1 1H13a1 1 0 0 0 1-1v-3a1 1 0 0 0-1-1h-.75v1.75a.75.75 0 0 1-1.5 0V8.5h-1a1 1 0 0 0-1 1v3Z" clip-rule="evenodd"/>
</svg>
