<svg xmlns="http://www.w3.org/2000/svg" width="16" height="16" fill="none" viewBox="0 0 16 16">
    <path fill="currentColor" fill-rule="evenodd" d="M4.5 6.25a3.25 3.25 0 0 1 6.398-.811.75.75 0 0 0 .702.563A3 3 0 0 1 11.5 12H3.75a2.25 2.25 0 0 1-.002-4.5h.03a.75.75 0 0 0 .747-.843A3 3 0 0 1 4.5 6.25M7.75 1.5a4.75 4.75 0 0 0-4.747 4.574A3.751 3.751 0 0 0 3.75 13.5h7.75a4.5 4.5 0 0 0 .687-8.948A4.75 4.75 0 0 0 7.75 1.5m2.85 5.75a.75.75 0 1 0-1.2-.9L7.369 9.058 6.28 7.97a.75.75 0 1 0-1.06 1.06l1.7 1.7a.75.75 0 0 0 1.13-.08z" clip-rule="evenodd"/>
</svg>
