<svg xmlns="http://www.w3.org/2000/svg" width="16" height="16" fill="none" viewBox="0 0 16 16">
    <path fill="currentColor" fill-rule="evenodd" d="M8.75.75a.75.75 0 0 0-1.5 0V2H5a3 3 0 0 0-3 3A2.19 2.19 0 0 0 .5 7.081V9.42c0 .944.604 1.782 1.5 2.081a3 3 0 0 0 3 3h6a3 3 0 0 0 3-3 2.19 2.19 0 0 0 1.5-2.081V7.08c0-.943-.604-1.78-1.5-2.08a3 3 0 0 0-3-3H8.75zM3.5 10.419V11.5A1.5 1.5 0 0 0 5 13h6a1.5 1.5 0 0 0 1.5-1.5v-1.081l1.026-.342A.69.69 0 0 0 14 9.419V7.08a.69.69 0 0 0-.474-.658L12.5 6.081V5A1.5 1.5 0 0 0 11 3.5H5A1.5 1.5 0 0 0 3.5 5v1.081l-1.026.342A.69.69 0 0 0 2 7.081V9.42c0 .298.191.564.474.658zM9.75 8A.75.75 0 0 1 9 7.25v-1a.75.75 0 0 1 1.5 0v1a.75.75 0 0 1-.75.75m.75 2.25a.75.75 0 0 1-.75.75h-3.5a.75.75 0 0 1 0-1.5h3.5a.75.75 0 0 1 .75.75m-5-3a.75.75 0 0 0 1.5 0v-1a.75.75 0 0 0-1.5 0z" clip-rule="evenodd"/>
</svg>
