<svg xmlns="http://www.w3.org/2000/svg" width="16" height="16" fill="none" viewBox="0 0 16 16">
    <path fill="currentColor" fill-rule="evenodd" d="M12.5 12a1.5 1.5 0 0 1-1.5 1.5H5A1.5 1.5 0 0 1 3.5 12V4A1.5 1.5 0 0 1 5 2.5h2.757a1.5 1.5 0 0 1 1.061.44l3.243 3.242a1.5 1.5 0 0 1 .439 1.06V12Zm.621-6.879A3 3 0 0 1 14 7.243V12a3 3 0 0 1-3 3H5a3 3 0 0 1-3-3V4a3 3 0 0 1 3-3h2.757a3 3 0 0 1 2.122.879L13.12 5.12ZM6.781 6.72A.75.75 0 0 0 5.72 7.78L6.94 9l-1.22 1.22a.75.75 0 1 0 1.06 1.06L8 10.06l1.22 1.22a.75.75 0 1 0 1.06-1.06L9.06 9l1.22-1.22a.75.75 0 1 0-1.06-1.06L8 7.94 6.78 6.72Z" clip-rule="evenodd"/>
</svg>
