<svg xmlns="http://www.w3.org/2000/svg" width="16" height="16" fill="none" viewBox="0 0 16 16">
    <path fill="currentColor" fill-rule="evenodd" d="M14.124 9.833a3.712 3.712 0 0 0-1.59-1.22l-.033-.012a2.877 2.877 0 0 0-2.795.37l-.36.269a.5.5 0 0 1-.653-.047L6.807 7.307a.5.5 0 0 1-.047-.654l.27-.36A2.877 2.877 0 0 0 7.4 3.5l-.013-.032a3.713 3.713 0 0 0-1.22-1.592l-.19-.143a2.33 2.33 0 0 0-2.135-.346l-.19.063A3.484 3.484 0 0 0 1.45 3.653a4.878 4.878 0 0 0-.105 2.725 9.758 9.758 0 0 0 2.567 4.533l1.178 1.178a9.758 9.758 0 0 0 4.533 2.566c.9.226 1.845.19 2.725-.104a3.484 3.484 0 0 0 2.204-2.204l.063-.189a2.33 2.33 0 0 0-.347-2.135l-.143-.19ZM5.16 3.219l-.19-.143a.65.65 0 0 0-.596-.096l-.19.063c-.538.18-.96.602-1.14 1.14a3.198 3.198 0 0 0-.069 1.788A8.077 8.077 0 0 0 5.1 9.723l1.178 1.178a8.078 8.078 0 0 0 3.752 2.125c.59.147 1.21.123 1.787-.069.539-.18.961-.602 1.14-1.14l.064-.19a.65.65 0 0 0-.097-.596l-.143-.19a2.034 2.034 0 0 0-.87-.668l-.033-.013a1.197 1.197 0 0 0-1.163.154l-.36.27a2.18 2.18 0 0 1-2.849-.203L5.62 8.495a2.18 2.18 0 0 1-.203-2.85l.27-.36c.25-.334.309-.774.154-1.162l-.013-.032a2.033 2.033 0 0 0-.668-.872Z" clip-rule="evenodd"/>
</svg>
