<svg xmlns="http://www.w3.org/2000/svg" width="14" height="14" fill="currentColor" aria-hidden="true" class="g-icon gn-composite-bar-item__collapse-item-icon">
    <svg xmlns="http://www.w3.org/2000/svg" fill="none" viewBox="0 0 16 16">
        <g fill="currentColor">
            <path d="M5.85 1.24a3.263 3.263 0 0 1 5.534 2.654 3.262 3.262 0 0 1 2.568 5.574L9.117 14.23l.208.212a.75.75 0 0 1-1.07 1.053l-.734-.746a.75.75 0 0 1 .01-1.061l5.37-5.288a1.762 1.762 0 0 0-2.473-2.51L7.445 8.825a.751.751 0 0 1-1.22-.823.8.8 0 0 1 .167-.246L9.376 4.82a1.763 1.763 0 0 0-2.473-2.512l-5.37 5.287A.75.75 0 0 1 .48 6.527z"/>
            <path d="M7.22 3.467a.751.751 0 0 1 1.052 1.07L5.6 7.167A1.743 1.743 0 0 0 8.045 9.65l2.673-2.63a.75.75 0 0 1 1.052 1.07l-2.672 2.63a3.243 3.243 0 0 1-4.55-4.622z"/>
        </g>
    </svg>
</svg>
