<svg xmlns="http://www.w3.org/2000/svg" xmlns:xlink="http://www.w3.org/1999/xlink" width="14" height="14" class="g-icon" fill="currentColor" stroke="none" aria-hidden="true"><svg xmlns="http://www.w3.org/2000/svg" fill="none" viewBox="0 0 14 14"><g clip-path="url(#ai-text_svg__a)"><path fill="currentColor" d="M6.344 1.75a.656.656 0 1 1 0 1.313H4.156A1.97 1.97 0 0 0 2.188 5.03v3.063c0 1.087.88 1.969 1.968 1.969h.824c.423 0 .828.174 1.118.483L7 11.51l.902-.963c.29-.309.695-.483 1.118-.483h.824a1.97 1.97 0 0 0 1.969-1.97v-.437a.656.656 0 0 1 1.312 0v.438a3.28 3.28 0 0 1-3.281 3.281H9.02a.22.22 0 0 0-.16.07L7.48 12.916a.656.656 0 0 1-.958 0L5.14 11.444a.22.22 0 0 0-.16-.069h-.824A3.28 3.28 0 0 1 .875 8.094V5.03A3.28 3.28 0 0 1 4.156 1.75zm3.5 5.688a.656.656 0 1 1 0 1.312H4.156a.656.656 0 1 1 0-1.312zM7.219 4.813a.656.656 0 0 1 0 1.312H4.156a.656.656 0 0 1 0-1.312zM11.156 0c.297 0 .557.2.634.486a2.37 2.37 0 0 0 1.724 1.724.656.656 0 0 1 0 1.268A2.37 2.37 0 0 0 11.79 5.2a.656.656 0 0 1-1.268 0A2.37 2.37 0 0 0 8.8 3.478a.656.656 0 0 1 0-1.268A2.37 2.37 0 0 0 10.522.486l.038-.103A.66.66 0 0 1 11.156 0"></path></g><defs><clipPath id="ai-text_svg__a"><path fill="#fff" d="M0 0h14v14H0z"></path></clipPath></defs></svg></svg>