<svg xmlns="http://www.w3.org/2000/svg" xmlns:xlink="http://www.w3.org/1999/xlink" width="24" height="24" class="g-icon" fill="currentColor" stroke="none" aria-hidden="true"><svg xmlns="http://www.w3.org/2000/svg" fill="none" viewBox="0 0 16 16"><path fill="currentColor" d="M13 10a.75.75 0 0 1 .725.556 2.37 2.37 0 0 0 1.72 1.72.75.75 0 0 1 0 1.449 2.37 2.37 0 0 0-1.72 1.72.75.75 0 0 1-1.45 0 2.37 2.37 0 0 0-1.72-1.72.75.75 0 0 1 0-1.45 2.37 2.37 0 0 0 1.72-1.72l.043-.117A.75.75 0 0 1 13 10M7 0a1 1 0 0 1 .986.836c.279 1.67.815 2.8 1.596 3.582.781.781 1.912 1.317 3.582 1.596a1 1 0 0 1 0 1.972c-1.67.279-2.8.815-3.582 1.596-.781.781-1.317 1.912-1.596 3.582a1 1 0 0 1-1.972 0c-.279-1.67-.815-2.8-1.596-3.582-.781-.781-1.912-1.317-3.582-1.596a1 1 0 0 1 0-1.972c1.67-.279 2.8-.815 3.582-1.596.781-.781 1.317-1.912 1.596-3.582l.018-.089A1 1 0 0 1 7 0"></path></svg></svg>