<svg xmlns="http://www.w3.org/2000/svg" width="16" height="16" fill="none" viewBox="0 0 16 16">
    <path fill="currentColor" fill-rule="evenodd" d="m12 9-2.94 5.041a1.932 1.932 0 0 1-3.56-1.378l.25-1.163.321-1.5h-2.94a2 2 0 0 1-1.927-2.535l.879-3.162A4 4 0 0 1 6.404 1.4L11.5 2zM6.229 2.89l3.863.455.379 5.3-2.708 4.64a.432.432 0 0 1-.796-.308l.571-2.663.389-1.814H3.13a.5.5 0 0 1-.482-.634l.879-3.162a2.5 2.5 0 0 1 2.7-1.814m7.023 5.663a.75.75 0 1 0 1.496-.106l-.5-7a.75.75 0 0 0-1.496.106z" clip-rule="evenodd"/>
</svg>
