<svg width="540" height="300" viewBox="0 0 540 300" fill="none" xmlns="http://www.w3.org/2000/svg">
<rect x="292" y="88" width="196" height="40" rx="4" fill="white" stroke="#67B0F8" stroke-width="2"/>
<path d="M376.673 112.13C375.546 112.13 374.684 111.822 374.086 111.207C373.497 110.583 373.202 109.721 373.202 108.62C373.202 107.883 373.341 107.255 373.618 106.735C373.895 106.215 374.277 105.816 374.762 105.539C375.247 105.262 375.793 105.123 376.4 105.123C377.431 105.123 378.19 105.465 378.675 106.15C379.16 106.826 379.316 107.753 379.143 108.932H374.385C374.48 110.379 375.278 111.103 376.777 111.103C377.6 111.103 378.359 110.869 379.052 110.401V111.428C378.74 111.645 378.376 111.818 377.96 111.948C377.544 112.069 377.115 112.13 376.673 112.13ZM376.374 106.137C375.88 106.137 375.455 106.289 375.1 106.592C374.745 106.895 374.519 107.355 374.424 107.97H378.051C378.077 107.389 377.943 106.939 377.648 106.618C377.353 106.297 376.929 106.137 376.374 106.137ZM380.096 108.62C380.096 107.831 380.234 107.181 380.512 106.67C380.789 106.15 381.157 105.764 381.617 105.513C382.085 105.253 382.592 105.123 383.138 105.123C383.649 105.123 384.091 105.231 384.464 105.448C384.836 105.656 385.135 105.955 385.361 106.345V102.679H386.505V112H385.504L385.413 110.674C385.205 111.116 384.91 111.471 384.529 111.74C384.156 112 383.688 112.13 383.125 112.13C382.587 112.13 382.085 112.004 381.617 111.753C381.157 111.493 380.789 111.103 380.512 110.583C380.234 110.063 380.096 109.409 380.096 108.62ZM385.374 108.62C385.374 107.779 385.174 107.155 384.776 106.748C384.377 106.341 383.883 106.137 383.294 106.137C382.704 106.137 382.219 106.349 381.838 106.774C381.456 107.19 381.266 107.805 381.266 108.62C381.266 109.443 381.456 110.063 381.838 110.479C382.219 110.895 382.704 111.103 383.294 111.103C383.883 111.103 384.377 110.899 384.776 110.492C385.174 110.085 385.374 109.461 385.374 108.62ZM388.957 104.265C388.723 104.265 388.536 104.196 388.398 104.057C388.259 103.91 388.19 103.732 388.19 103.524C388.19 103.316 388.259 103.138 388.398 102.991C388.536 102.844 388.723 102.77 388.957 102.77C389.182 102.77 389.36 102.844 389.49 102.991C389.62 103.138 389.685 103.316 389.685 103.524C389.685 103.732 389.62 103.91 389.49 104.057C389.36 104.196 389.182 104.265 388.957 104.265ZM388.372 105.253H389.516V112H388.372V105.253ZM390.834 106.228V105.253H391.64V103.836H392.784V105.253H394.747V106.228H392.784V110.284C392.784 110.57 392.858 110.778 393.005 110.908C393.153 111.038 393.404 111.103 393.759 111.103C394.097 111.103 394.405 111.008 394.682 110.817V111.857C394.544 111.944 394.362 112.009 394.136 112.052C393.911 112.104 393.686 112.13 393.46 112.13C393.027 112.13 392.676 112.048 392.407 111.883C392.139 111.718 391.944 111.506 391.822 111.246C391.701 110.986 391.64 110.713 391.64 110.427V106.228H390.834ZM398.783 112.13C398.168 112.13 397.613 111.996 397.119 111.727C396.634 111.45 396.248 111.051 395.962 110.531C395.676 110.002 395.533 109.365 395.533 108.62C395.533 107.875 395.676 107.242 395.962 106.722C396.248 106.202 396.634 105.808 397.119 105.539C397.613 105.262 398.168 105.123 398.783 105.123C399.407 105.123 399.966 105.262 400.46 105.539C400.954 105.808 401.344 106.202 401.63 106.722C401.916 107.242 402.059 107.875 402.059 108.62C402.059 109.365 401.916 110.002 401.63 110.531C401.344 111.051 400.954 111.45 400.46 111.727C399.966 111.996 399.407 112.13 398.783 112.13ZM398.783 111.103C399.39 111.103 399.892 110.904 400.291 110.505C400.69 110.098 400.889 109.469 400.889 108.62C400.889 107.771 400.69 107.147 400.291 106.748C399.892 106.341 399.39 106.137 398.783 106.137C398.185 106.137 397.687 106.341 397.288 106.748C396.898 107.147 396.703 107.771 396.703 108.62C396.703 109.469 396.898 110.098 397.288 110.505C397.687 110.904 398.185 111.103 398.783 111.103ZM406.795 106.397C406.257 106.44 405.798 106.575 405.417 106.8C405.044 107.025 404.771 107.329 404.598 107.71V112H403.454V105.253H404.455L404.572 106.722H404.598C404.814 106.271 405.109 105.907 405.482 105.63C405.863 105.353 406.301 105.184 406.795 105.123V106.397Z" fill="#18123D"/>
<rect x="292" y="4" width="196" height="40" rx="4" fill="white" stroke="#67B0F8" stroke-width="2"/>
<path d="M374.924 22.137C374.204 22.137 373.476 22.358 372.74 22.8V21.773C373.06 21.5737 373.429 21.4177 373.845 21.305C374.269 21.1837 374.681 21.123 375.08 21.123C375.929 21.123 376.575 21.3007 377.017 21.656C377.459 22.0113 377.68 22.553 377.68 23.281V26.908C377.68 27.0553 377.684 27.246 377.693 27.48C377.71 27.7053 377.727 27.8787 377.745 28H376.705C376.679 27.8787 376.653 27.7097 376.627 27.493C376.609 27.2677 376.601 27.0727 376.601 26.908L376.588 26.713C376.484 26.921 376.341 27.1377 376.159 27.363C375.977 27.5797 375.734 27.7617 375.431 27.909C375.136 28.0563 374.768 28.13 374.326 28.13C373.719 28.13 373.229 27.9567 372.857 27.61C372.484 27.2633 372.298 26.7737 372.298 26.141C372.298 25.4043 372.558 24.8627 373.078 24.516C373.598 24.1693 374.33 23.996 375.275 23.996H376.536V23.437C376.536 22.969 376.414 22.6353 376.172 22.436C375.929 22.2367 375.513 22.137 374.924 22.137ZM376.536 25.4V24.906H375.392C374.707 24.906 374.209 25.0057 373.897 25.205C373.593 25.4043 373.442 25.6947 373.442 26.076C373.442 26.3793 373.533 26.6263 373.715 26.817C373.905 27.0077 374.191 27.103 374.573 27.103C374.928 27.103 375.231 27.0337 375.483 26.895C375.734 26.7477 375.938 26.5743 376.094 26.375C376.25 26.167 376.362 25.972 376.432 25.79C376.501 25.608 376.536 25.478 376.536 25.4ZM378.997 24.62C378.997 23.8313 379.136 23.1813 379.413 22.67C379.691 22.15 380.059 21.7643 380.518 21.513C380.986 21.253 381.493 21.123 382.039 21.123C382.551 21.123 382.993 21.2313 383.365 21.448C383.738 21.656 384.037 21.955 384.262 22.345V18.679H385.406V28H384.405L384.314 26.674C384.106 27.116 383.812 27.4713 383.43 27.74C383.058 28 382.59 28.13 382.026 28.13C381.489 28.13 380.986 28.0043 380.518 27.753C380.059 27.493 379.691 27.103 379.413 26.583C379.136 26.063 378.997 25.4087 378.997 24.62ZM384.275 24.62C384.275 23.7793 384.076 23.1553 383.677 22.748C383.279 22.3407 382.785 22.137 382.195 22.137C381.606 22.137 381.121 22.3493 380.739 22.774C380.358 23.19 380.167 23.8053 380.167 24.62C380.167 25.4433 380.358 26.063 380.739 26.479C381.121 26.895 381.606 27.103 382.195 27.103C382.785 27.103 383.279 26.8993 383.677 26.492C384.076 26.0847 384.275 25.4607 384.275 24.62ZM391.537 23.281C391.537 22.8477 391.429 22.5487 391.212 22.384C390.996 22.2193 390.701 22.137 390.328 22.137C389.843 22.137 389.457 22.2583 389.171 22.501C388.885 22.735 388.634 23.0427 388.417 23.424V28H387.273V21.253H388.274L388.391 22.462H388.417C388.599 22.0807 388.872 21.7643 389.236 21.513C389.609 21.253 390.086 21.123 390.666 21.123C391.178 21.123 391.602 21.2487 391.94 21.5C392.278 21.7427 392.504 22.111 392.616 22.605C392.807 22.1457 393.097 21.786 393.487 21.526C393.886 21.2573 394.367 21.123 394.93 21.123C395.546 21.123 396.035 21.3007 396.399 21.656C396.772 22.0113 396.958 22.5487 396.958 23.268V28H395.801V23.411C395.801 22.969 395.693 22.6483 395.476 22.449C395.26 22.241 394.965 22.137 394.592 22.137C394.098 22.137 393.708 22.28 393.422 22.566C393.136 22.8433 392.889 23.1727 392.681 23.554V28H391.537V23.281ZM399.335 20.265C399.101 20.265 398.915 20.1957 398.776 20.057C398.637 19.9097 398.568 19.732 398.568 19.524C398.568 19.316 398.637 19.1383 398.776 18.991C398.915 18.8437 399.101 18.77 399.335 18.77C399.56 18.77 399.738 18.8437 399.868 18.991C399.998 19.1383 400.063 19.316 400.063 19.524C400.063 19.732 399.998 19.9097 399.868 20.057C399.738 20.1957 399.56 20.265 399.335 20.265ZM398.75 21.253H399.894V28H398.75V21.253ZM404.957 22.137C404.437 22.137 404.012 22.2583 403.683 22.501C403.362 22.735 403.102 23.0383 402.903 23.411V28H401.759V21.253H402.838L402.877 22.462H402.903C403.085 22.0807 403.371 21.7643 403.761 21.513C404.151 21.253 404.645 21.123 405.243 21.123C405.91 21.123 406.439 21.3007 406.829 21.656C407.227 22.0113 407.427 22.5487 407.427 23.268V28H406.283V23.385C406.283 22.9257 406.161 22.605 405.919 22.423C405.685 22.2323 405.364 22.137 404.957 22.137Z" fill="#18123D"/>
<path d="M150 87C150 79.1199 150 74.126 150 70.9966C150 68.2352 152.239 66 155 66L385 66C387.761 66 390 63.7614 390 61L390 53.5" stroke="#4E496B" stroke-width="2"/>
<rect x="292" y="172" width="196" height="40" rx="4" fill="white" stroke="#67B0F8" stroke-width="2"/>
<path d="M370.96 189.253H372.195L374.249 195.389L376.29 189.253H377.434L375.12 196H373.274L370.96 189.253ZM379.08 188.265C378.846 188.265 378.659 188.196 378.521 188.057C378.382 187.91 378.313 187.732 378.313 187.524C378.313 187.316 378.382 187.138 378.521 186.991C378.659 186.844 378.846 186.77 379.08 186.77C379.305 186.77 379.483 186.844 379.613 186.991C379.743 187.138 379.808 187.316 379.808 187.524C379.808 187.732 379.743 187.91 379.613 188.057C379.483 188.196 379.305 188.265 379.08 188.265ZM378.495 189.253H379.639V196H378.495V189.253ZM384.493 196.13C383.367 196.13 382.504 195.822 381.906 195.207C381.317 194.583 381.022 193.721 381.022 192.62C381.022 191.883 381.161 191.255 381.438 190.735C381.716 190.215 382.097 189.816 382.582 189.539C383.068 189.262 383.614 189.123 384.22 189.123C385.252 189.123 386.01 189.465 386.495 190.15C386.981 190.826 387.137 191.753 386.963 192.932H382.205C382.301 194.379 383.098 195.103 384.597 195.103C385.421 195.103 386.179 194.869 386.872 194.401V195.428C386.56 195.645 386.196 195.818 385.78 195.948C385.364 196.069 384.935 196.13 384.493 196.13ZM384.194 190.137C383.7 190.137 383.276 190.289 382.92 190.592C382.565 190.895 382.34 191.355 382.244 191.97H385.871C385.897 191.389 385.763 190.939 385.468 190.618C385.174 190.297 384.749 190.137 384.194 190.137ZM397.276 189.253L395.742 196H393.987L392.557 190.787L391.088 196H389.385L387.851 189.253H389.06L390.347 195.142L391.985 189.253H393.272L394.871 195.077L396.145 189.253H397.276ZM401.467 196.13C400.34 196.13 399.478 195.822 398.88 195.207C398.291 194.583 397.996 193.721 397.996 192.62C397.996 191.883 398.135 191.255 398.412 190.735C398.689 190.215 399.071 189.816 399.556 189.539C400.041 189.262 400.587 189.123 401.194 189.123C402.225 189.123 402.984 189.465 403.469 190.15C403.954 190.826 404.11 191.753 403.937 192.932H399.179C399.274 194.379 400.072 195.103 401.571 195.103C402.394 195.103 403.153 194.869 403.846 194.401V195.428C403.534 195.645 403.17 195.818 402.754 195.948C402.338 196.069 401.909 196.13 401.467 196.13ZM401.168 190.137C400.674 190.137 400.249 190.289 399.894 190.592C399.539 190.895 399.313 191.355 399.218 191.97H402.845C402.871 191.389 402.737 190.939 402.442 190.618C402.147 190.297 401.723 190.137 401.168 190.137ZM408.712 190.397C408.174 190.44 407.715 190.575 407.334 190.8C406.961 191.025 406.688 191.329 406.515 191.71V196H405.371V189.253H406.372L406.489 190.722H406.515C406.731 190.271 407.026 189.907 407.399 189.63C407.78 189.353 408.218 189.184 408.712 189.123V190.397Z" fill="#18123D"/>
<rect x="52" y="88" width="196" height="40" rx="4" fill="white" stroke="#67B0F8" stroke-width="2"/>
<path d="M76.8446 112.13C75.7959 112.13 74.9682 111.822 74.3616 111.207C73.7549 110.583 73.4516 109.721 73.4516 108.62C73.4516 107.519 73.7592 106.661 74.3746 106.046C74.9899 105.431 75.8306 105.123 76.8966 105.123C77.3039 105.123 77.6852 105.171 78.0406 105.266C78.3959 105.353 78.6819 105.483 78.8986 105.656V106.683C78.3092 106.319 77.6462 106.137 76.9096 106.137C76.1296 106.137 75.5532 106.345 75.1806 106.761C74.8079 107.168 74.6216 107.788 74.6216 108.62C74.6216 109.452 74.7992 110.076 75.1546 110.492C75.5186 110.899 76.0819 111.103 76.8446 111.103C77.5812 111.103 78.2659 110.925 78.8986 110.57V111.597C78.3352 111.952 77.6506 112.13 76.8446 112.13ZM83.2829 112.13C82.1563 112.13 81.2939 111.822 80.6959 111.207C80.1066 110.583 79.8119 109.721 79.8119 108.62C79.8119 107.883 79.9506 107.255 80.2279 106.735C80.5053 106.215 80.8866 105.816 81.3719 105.539C81.8573 105.262 82.4033 105.123 83.0099 105.123C84.0413 105.123 84.7996 105.465 85.2849 106.15C85.7703 106.826 85.9263 107.753 85.7529 108.932H80.9949C81.0903 110.379 81.8876 111.103 83.3869 111.103C84.2103 111.103 84.9686 110.869 85.6619 110.401V111.428C85.3499 111.645 84.9859 111.818 84.5699 111.948C84.1539 112.069 83.7249 112.13 83.2829 112.13ZM82.9839 106.137C82.4899 106.137 82.0653 106.289 81.7099 106.592C81.3546 106.895 81.1293 107.355 81.0339 107.97H84.6609C84.6869 107.389 84.5526 106.939 84.2579 106.618C83.9633 106.297 83.5386 106.137 82.9839 106.137ZM90.5275 106.397C89.9902 106.44 89.5308 106.575 89.1495 106.8C88.7768 107.025 88.5038 107.329 88.3305 107.71V112H87.1865V105.253H88.1875L88.3045 106.722H88.3305C88.5472 106.271 88.8418 105.907 89.2145 105.63C89.5958 105.353 90.0335 105.184 90.5275 105.123V106.397ZM91.4393 106.228V105.253H92.2453V103.836H93.3893V105.253H95.3523V106.228H93.3893V110.284C93.3893 110.57 93.463 110.778 93.6103 110.908C93.7576 111.038 94.009 111.103 94.3643 111.103C94.7023 111.103 95.01 111.008 95.2873 110.817V111.857C95.1486 111.944 94.9666 112.009 94.7413 112.052C94.516 112.104 94.2906 112.13 94.0653 112.13C93.632 112.13 93.281 112.048 93.0123 111.883C92.7436 111.718 92.5486 111.506 92.4273 111.246C92.306 110.986 92.2453 110.713 92.2453 110.427V106.228H91.4393ZM97.3945 104.265C97.1605 104.265 96.9742 104.196 96.8355 104.057C96.6969 103.91 96.6275 103.732 96.6275 103.524C96.6275 103.316 96.6969 103.138 96.8355 102.991C96.9742 102.844 97.1605 102.77 97.3945 102.77C97.6199 102.77 97.7975 102.844 97.9275 102.991C98.0575 103.138 98.1225 103.316 98.1225 103.524C98.1225 103.732 98.0575 103.91 97.9275 104.057C97.7975 104.196 97.6199 104.265 97.3945 104.265ZM96.8095 105.253H97.9535V112H96.8095V105.253ZM100.221 112V106.228H99.4023V105.253H100.221V105.084C100.221 104.287 100.434 103.667 100.858 103.225C101.283 102.783 101.864 102.562 102.6 102.562C102.93 102.562 103.216 102.601 103.458 102.679V103.719C103.38 103.684 103.268 103.654 103.12 103.628C102.973 103.602 102.817 103.589 102.652 103.589C102.254 103.589 101.937 103.71 101.703 103.953C101.478 104.196 101.365 104.573 101.365 105.084V105.253H103.315V106.228H101.365V112H100.221ZM105.24 104.265C105.006 104.265 104.82 104.196 104.681 104.057C104.543 103.91 104.473 103.732 104.473 103.524C104.473 103.316 104.543 103.138 104.681 102.991C104.82 102.844 105.006 102.77 105.24 102.77C105.466 102.77 105.643 102.844 105.773 102.991C105.903 103.138 105.968 103.316 105.968 103.524C105.968 103.732 105.903 103.91 105.773 104.057C105.643 104.196 105.466 104.265 105.24 104.265ZM104.655 105.253H105.799V112H104.655V105.253ZM110.576 112.13C109.527 112.13 108.7 111.822 108.093 111.207C107.486 110.583 107.183 109.721 107.183 108.62C107.183 107.519 107.491 106.661 108.106 106.046C108.721 105.431 109.562 105.123 110.628 105.123C111.035 105.123 111.417 105.171 111.772 105.266C112.127 105.353 112.413 105.483 112.63 105.656V106.683C112.041 106.319 111.378 106.137 110.641 106.137C109.861 106.137 109.285 106.345 108.912 106.761C108.539 107.168 108.353 107.788 108.353 108.62C108.353 109.452 108.531 110.076 108.886 110.492C109.25 110.899 109.813 111.103 110.576 111.103C111.313 111.103 111.997 110.925 112.63 110.57V111.597C112.067 111.952 111.382 112.13 110.576 112.13ZM116.312 106.137C115.593 106.137 114.865 106.358 114.128 106.8V105.773C114.449 105.574 114.817 105.418 115.233 105.305C115.658 105.184 116.07 105.123 116.468 105.123C117.318 105.123 117.963 105.301 118.405 105.656C118.847 106.011 119.068 106.553 119.068 107.281V110.908C119.068 111.055 119.073 111.246 119.081 111.48C119.099 111.705 119.116 111.879 119.133 112H118.093C118.067 111.879 118.041 111.71 118.015 111.493C117.998 111.268 117.989 111.073 117.989 110.908L117.976 110.713C117.872 110.921 117.729 111.138 117.547 111.363C117.365 111.58 117.123 111.762 116.819 111.909C116.525 112.056 116.156 112.13 115.714 112.13C115.108 112.13 114.618 111.957 114.245 111.61C113.873 111.263 113.686 110.774 113.686 110.141C113.686 109.404 113.946 108.863 114.466 108.516C114.986 108.169 115.719 107.996 116.663 107.996H117.924V107.437C117.924 106.969 117.803 106.635 117.56 106.436C117.318 106.237 116.902 106.137 116.312 106.137ZM117.924 109.4V108.906H116.78C116.096 108.906 115.597 109.006 115.285 109.205C114.982 109.404 114.83 109.695 114.83 110.076C114.83 110.379 114.921 110.626 115.103 110.817C115.294 111.008 115.58 111.103 115.961 111.103C116.317 111.103 116.62 111.034 116.871 110.895C117.123 110.748 117.326 110.574 117.482 110.375C117.638 110.167 117.751 109.972 117.82 109.79C117.89 109.608 117.924 109.478 117.924 109.4ZM120.321 106.228V105.253H121.127V103.836H122.271V105.253H124.234V106.228H122.271V110.284C122.271 110.57 122.345 110.778 122.492 110.908C122.639 111.038 122.891 111.103 123.246 111.103C123.584 111.103 123.892 111.008 124.169 110.817V111.857C124.03 111.944 123.848 112.009 123.623 112.052C123.398 112.104 123.172 112.13 122.947 112.13C122.514 112.13 122.163 112.048 121.894 111.883C121.625 111.718 121.43 111.506 121.309 111.246C121.188 110.986 121.127 110.713 121.127 110.427V106.228H120.321ZM128.491 112.13C127.364 112.13 126.502 111.822 125.904 111.207C125.315 110.583 125.02 109.721 125.02 108.62C125.02 107.883 125.159 107.255 125.436 106.735C125.713 106.215 126.095 105.816 126.58 105.539C127.065 105.262 127.611 105.123 128.218 105.123C129.249 105.123 130.008 105.465 130.493 106.15C130.978 106.826 131.134 107.753 130.961 108.932H126.203C126.298 110.379 127.096 111.103 128.595 111.103C129.418 111.103 130.177 110.869 130.87 110.401V111.428C130.558 111.645 130.194 111.818 129.778 111.948C129.362 112.069 128.933 112.13 128.491 112.13ZM128.192 106.137C127.698 106.137 127.273 106.289 126.918 106.592C126.563 106.895 126.337 107.355 126.242 107.97H129.869C129.895 107.389 129.761 106.939 129.466 106.618C129.171 106.297 128.747 106.137 128.192 106.137ZM132.238 108.555V107.515H135.358V108.555H132.238ZM141.343 107.281C141.343 106.848 141.235 106.549 141.018 106.384C140.801 106.219 140.507 106.137 140.134 106.137C139.649 106.137 139.263 106.258 138.977 106.501C138.691 106.735 138.44 107.043 138.223 107.424V112H137.079V105.253H138.08L138.197 106.462H138.223C138.405 106.081 138.678 105.764 139.042 105.513C139.415 105.253 139.891 105.123 140.472 105.123C140.983 105.123 141.408 105.249 141.746 105.5C142.084 105.743 142.309 106.111 142.422 106.605C142.613 106.146 142.903 105.786 143.293 105.526C143.692 105.257 144.173 105.123 144.736 105.123C145.351 105.123 145.841 105.301 146.205 105.656C146.578 106.011 146.764 106.549 146.764 107.268V112H145.607V107.411C145.607 106.969 145.499 106.648 145.282 106.449C145.065 106.241 144.771 106.137 144.398 106.137C143.904 106.137 143.514 106.28 143.228 106.566C142.942 106.843 142.695 107.173 142.487 107.554V112H141.343V107.281ZM150.844 106.137C150.124 106.137 149.396 106.358 148.66 106.8V105.773C148.98 105.574 149.349 105.418 149.765 105.305C150.189 105.184 150.601 105.123 151 105.123C151.849 105.123 152.495 105.301 152.937 105.656C153.379 106.011 153.6 106.553 153.6 107.281V110.908C153.6 111.055 153.604 111.246 153.613 111.48C153.63 111.705 153.647 111.879 153.665 112H152.625C152.599 111.879 152.573 111.71 152.547 111.493C152.529 111.268 152.521 111.073 152.521 110.908L152.508 110.713C152.404 110.921 152.261 111.138 152.079 111.363C151.897 111.58 151.654 111.762 151.351 111.909C151.056 112.056 150.688 112.13 150.246 112.13C149.639 112.13 149.149 111.957 148.777 111.61C148.404 111.263 148.218 110.774 148.218 110.141C148.218 109.404 148.478 108.863 148.998 108.516C149.518 108.169 150.25 107.996 151.195 107.996H152.456V107.437C152.456 106.969 152.334 106.635 152.092 106.436C151.849 106.237 151.433 106.137 150.844 106.137ZM152.456 109.4V108.906H151.312C150.627 108.906 150.129 109.006 149.817 109.205C149.513 109.404 149.362 109.695 149.362 110.076C149.362 110.379 149.453 110.626 149.635 110.817C149.825 111.008 150.111 111.103 150.493 111.103C150.848 111.103 151.151 111.034 151.403 110.895C151.654 110.748 151.858 110.574 152.014 110.375C152.17 110.167 152.282 109.972 152.352 109.79C152.421 109.608 152.456 109.478 152.456 109.4ZM158.596 106.137C158.076 106.137 157.652 106.258 157.322 106.501C157.002 106.735 156.742 107.038 156.542 107.411V112H155.398V105.253H156.477L156.516 106.462H156.542C156.724 106.081 157.01 105.764 157.4 105.513C157.79 105.253 158.284 105.123 158.882 105.123C159.55 105.123 160.078 105.301 160.468 105.656C160.867 106.011 161.066 106.549 161.066 107.268V112H159.922V107.385C159.922 106.926 159.801 106.605 159.558 106.423C159.324 106.232 159.004 106.137 158.596 106.137ZM165.164 106.137C164.445 106.137 163.717 106.358 162.98 106.8V105.773C163.301 105.574 163.669 105.418 164.085 105.305C164.51 105.184 164.921 105.123 165.32 105.123C166.169 105.123 166.815 105.301 167.257 105.656C167.699 106.011 167.92 106.553 167.92 107.281V110.908C167.92 111.055 167.924 111.246 167.933 111.48C167.95 111.705 167.968 111.879 167.985 112H166.945C166.919 111.879 166.893 111.71 166.867 111.493C166.85 111.268 166.841 111.073 166.841 110.908L166.828 110.713C166.724 110.921 166.581 111.138 166.399 111.363C166.217 111.58 165.974 111.762 165.671 111.909C165.376 112.056 165.008 112.13 164.566 112.13C163.959 112.13 163.47 111.957 163.097 111.61C162.724 111.263 162.538 110.774 162.538 110.141C162.538 109.404 162.798 108.863 163.318 108.516C163.838 108.169 164.57 107.996 165.515 107.996H166.776V107.437C166.776 106.969 166.655 106.635 166.412 106.436C166.169 106.237 165.753 106.137 165.164 106.137ZM166.776 109.4V108.906H165.632C164.947 108.906 164.449 109.006 164.137 109.205C163.834 109.404 163.682 109.695 163.682 110.076C163.682 110.379 163.773 110.626 163.955 110.817C164.146 111.008 164.432 111.103 164.813 111.103C165.168 111.103 165.472 111.034 165.723 110.895C165.974 110.748 166.178 110.574 166.334 110.375C166.49 110.167 166.603 109.972 166.672 109.79C166.741 109.608 166.776 109.478 166.776 109.4ZM169.797 113.768V112.741C170.161 112.94 170.525 113.083 170.889 113.17C171.253 113.257 171.669 113.3 172.137 113.3C172.969 113.3 173.549 113.14 173.879 112.819C174.208 112.507 174.373 112.048 174.373 111.441V110.401C174.173 110.8 173.892 111.12 173.528 111.363C173.172 111.606 172.73 111.727 172.202 111.727C171.673 111.727 171.179 111.606 170.72 111.363C170.269 111.112 169.905 110.743 169.628 110.258C169.359 109.773 169.225 109.166 169.225 108.438C169.225 107.701 169.359 107.09 169.628 106.605C169.905 106.111 170.269 105.743 170.72 105.5C171.179 105.249 171.682 105.123 172.228 105.123C172.765 105.123 173.216 105.244 173.58 105.487C173.952 105.73 174.243 106.059 174.451 106.475L174.464 106.332C174.464 106.176 174.472 105.99 174.49 105.773C174.507 105.548 174.524 105.374 174.542 105.253H175.582C175.564 105.366 175.547 105.539 175.53 105.773C175.521 105.998 175.517 106.185 175.517 106.332V111.428C175.517 112.009 175.4 112.516 175.166 112.949C174.94 113.382 174.581 113.72 174.087 113.963C173.593 114.206 172.938 114.327 172.124 114.327C171.136 114.327 170.36 114.141 169.797 113.768ZM174.386 108.438C174.386 107.667 174.195 107.09 173.814 106.709C173.441 106.328 172.969 106.137 172.397 106.137C171.825 106.137 171.344 106.328 170.954 106.709C170.572 107.09 170.382 107.667 170.382 108.438C170.382 109.192 170.572 109.76 170.954 110.141C171.344 110.514 171.829 110.7 172.41 110.7C172.973 110.7 173.441 110.514 173.814 110.141C174.195 109.768 174.386 109.201 174.386 108.438ZM180.364 112.13C179.237 112.13 178.375 111.822 177.777 111.207C177.188 110.583 176.893 109.721 176.893 108.62C176.893 107.883 177.032 107.255 177.309 106.735C177.586 106.215 177.968 105.816 178.453 105.539C178.938 105.262 179.484 105.123 180.091 105.123C181.122 105.123 181.881 105.465 182.366 106.15C182.851 106.826 183.007 107.753 182.834 108.932H178.076C178.171 110.379 178.969 111.103 180.468 111.103C181.291 111.103 182.05 110.869 182.743 110.401V111.428C182.431 111.645 182.067 111.818 181.651 111.948C181.235 112.069 180.806 112.13 180.364 112.13ZM180.065 106.137C179.571 106.137 179.146 106.289 178.791 106.592C178.436 106.895 178.21 107.355 178.115 107.97H181.742C181.768 107.389 181.634 106.939 181.339 106.618C181.044 106.297 180.62 106.137 180.065 106.137ZM187.609 106.397C187.071 106.44 186.612 106.575 186.231 106.8C185.858 107.025 185.585 107.329 185.412 107.71V112H184.268V105.253H185.269L185.386 106.722H185.412C185.628 106.271 185.923 105.907 186.296 105.63C186.677 105.353 187.115 105.184 187.609 105.123V106.397ZM188.852 112.078C188.61 112.078 188.406 112 188.241 111.844C188.085 111.679 188.007 111.484 188.007 111.259C188.007 111.016 188.085 110.817 188.241 110.661C188.406 110.505 188.61 110.427 188.852 110.427C189.095 110.427 189.294 110.505 189.45 110.661C189.606 110.817 189.684 111.016 189.684 111.259C189.684 111.484 189.606 111.679 189.45 111.844C189.294 112 189.095 112.078 188.852 112.078ZM193.627 106.137C192.907 106.137 192.179 106.358 191.443 106.8V105.773C191.763 105.574 192.132 105.418 192.548 105.305C192.972 105.184 193.384 105.123 193.783 105.123C194.632 105.123 195.278 105.301 195.72 105.656C196.162 106.011 196.383 106.553 196.383 107.281V110.908C196.383 111.055 196.387 111.246 196.396 111.48C196.413 111.705 196.43 111.879 196.448 112H195.408C195.382 111.879 195.356 111.71 195.33 111.493C195.312 111.268 195.304 111.073 195.304 110.908L195.291 110.713C195.187 110.921 195.044 111.138 194.862 111.363C194.68 111.58 194.437 111.762 194.134 111.909C193.839 112.056 193.471 112.13 193.029 112.13C192.422 112.13 191.932 111.957 191.56 111.61C191.187 111.263 191.001 110.774 191.001 110.141C191.001 109.404 191.261 108.863 191.781 108.516C192.301 108.169 193.033 107.996 193.978 107.996H195.239V107.437C195.239 106.969 195.117 106.635 194.875 106.436C194.632 106.237 194.216 106.137 193.627 106.137ZM195.239 109.4V108.906H194.095C193.41 108.906 192.912 109.006 192.6 109.205C192.296 109.404 192.145 109.695 192.145 110.076C192.145 110.379 192.236 110.626 192.418 110.817C192.608 111.008 192.894 111.103 193.276 111.103C193.631 111.103 193.934 111.034 194.186 110.895C194.437 110.748 194.641 110.574 194.797 110.375C194.953 110.167 195.065 109.972 195.135 109.79C195.204 109.608 195.239 109.478 195.239 109.4ZM197.701 108.62C197.701 107.831 197.839 107.181 198.117 106.67C198.394 106.15 198.762 105.764 199.222 105.513C199.69 105.253 200.197 105.123 200.743 105.123C201.254 105.123 201.696 105.231 202.069 105.448C202.441 105.656 202.74 105.955 202.966 106.345V102.679H204.11V112H203.109L203.018 110.674C202.81 111.116 202.515 111.471 202.134 111.74C201.761 112 201.293 112.13 200.73 112.13C200.192 112.13 199.69 112.004 199.222 111.753C198.762 111.493 198.394 111.103 198.117 110.583C197.839 110.063 197.701 109.409 197.701 108.62ZM202.979 108.62C202.979 107.779 202.779 107.155 202.381 106.748C201.982 106.341 201.488 106.137 200.899 106.137C200.309 106.137 199.824 106.349 199.443 106.774C199.061 107.19 198.871 107.805 198.871 108.62C198.871 109.443 199.061 110.063 199.443 110.479C199.824 110.895 200.309 111.103 200.899 111.103C201.488 111.103 201.982 110.899 202.381 110.492C202.779 110.085 202.979 109.461 202.979 108.62ZM210.241 107.281C210.241 106.848 210.132 106.549 209.916 106.384C209.699 106.219 209.404 106.137 209.032 106.137C208.546 106.137 208.161 106.258 207.875 106.501C207.589 106.735 207.337 107.043 207.121 107.424V112H205.977V105.253H206.978L207.095 106.462H207.121C207.303 106.081 207.576 105.764 207.94 105.513C208.312 105.253 208.789 105.123 209.37 105.123C209.881 105.123 210.306 105.249 210.644 105.5C210.982 105.743 211.207 106.111 211.32 106.605C211.51 106.146 211.801 105.786 212.191 105.526C212.589 105.257 213.07 105.123 213.634 105.123C214.249 105.123 214.739 105.301 215.103 105.656C215.475 106.011 215.662 106.549 215.662 107.268V112H214.505V107.411C214.505 106.969 214.396 106.648 214.18 106.449C213.963 106.241 213.668 106.137 213.296 106.137C212.802 106.137 212.412 106.28 212.126 106.566C211.84 106.843 211.593 107.173 211.385 107.554V112H210.241V107.281ZM218.038 104.265C217.804 104.265 217.618 104.196 217.479 104.057C217.34 103.91 217.271 103.732 217.271 103.524C217.271 103.316 217.34 103.138 217.479 102.991C217.618 102.844 217.804 102.77 218.038 102.77C218.263 102.77 218.441 102.844 218.571 102.991C218.701 103.138 218.766 103.316 218.766 103.524C218.766 103.732 218.701 103.91 218.571 104.057C218.441 104.196 218.263 104.265 218.038 104.265ZM217.453 105.253H218.597V112H217.453V105.253ZM223.66 106.137C223.14 106.137 222.715 106.258 222.386 106.501C222.065 106.735 221.805 107.038 221.606 107.411V112H220.462V105.253H221.541L221.58 106.462H221.606C221.788 106.081 222.074 105.764 222.464 105.513C222.854 105.253 223.348 105.123 223.946 105.123C224.613 105.123 225.142 105.301 225.532 105.656C225.931 106.011 226.13 106.549 226.13 107.268V112H224.986V107.385C224.986 106.926 224.865 106.605 224.622 106.423C224.388 106.232 224.067 106.137 223.66 106.137Z" fill="#18123D"/>
<rect x="52" y="172" width="196" height="40" rx="4" fill="white" stroke="#67B0F8" stroke-width="2"/>
<path d="M95.1449 189.13C94.0962 189.13 93.2685 188.822 92.6619 188.207C92.0552 187.583 91.7519 186.721 91.7519 185.62C91.7519 184.519 92.0595 183.661 92.6749 183.046C93.2902 182.431 94.1309 182.123 95.1969 182.123C95.6042 182.123 95.9855 182.171 96.3409 182.266C96.6962 182.353 96.9822 182.483 97.1989 182.656V183.683C96.6095 183.319 95.9465 183.137 95.2099 183.137C94.4299 183.137 93.8535 183.345 93.4809 183.761C93.1082 184.168 92.9219 184.788 92.9219 185.62C92.9219 186.452 93.0995 187.076 93.4549 187.492C93.8189 187.899 94.3822 188.103 95.1449 188.103C95.8815 188.103 96.5662 187.925 97.1989 187.57V188.597C96.6355 188.952 95.9509 189.13 95.1449 189.13ZM101.583 189.13C100.457 189.13 99.5942 188.822 98.9962 188.207C98.4069 187.583 98.1122 186.721 98.1122 185.62C98.1122 184.883 98.2509 184.255 98.5282 183.735C98.8056 183.215 99.1869 182.816 99.6722 182.539C100.158 182.262 100.704 182.123 101.31 182.123C102.342 182.123 103.1 182.465 103.585 183.15C104.071 183.826 104.227 184.753 104.053 185.932H99.2952C99.3906 187.379 100.188 188.103 101.687 188.103C102.511 188.103 103.269 187.869 103.962 187.401V188.428C103.65 188.645 103.286 188.818 102.87 188.948C102.454 189.069 102.025 189.13 101.583 189.13ZM101.284 183.137C100.79 183.137 100.366 183.289 100.01 183.592C99.6549 183.895 99.4296 184.355 99.3342 184.97H102.961C102.987 184.389 102.853 183.939 102.558 183.618C102.264 183.297 101.839 183.137 101.284 183.137ZM108.828 183.397C108.29 183.44 107.831 183.575 107.45 183.8C107.077 184.025 106.804 184.329 106.631 184.71V189H105.487V182.253H106.488L106.605 183.722H106.631C106.847 183.271 107.142 182.907 107.515 182.63C107.896 182.353 108.334 182.184 108.828 182.123V183.397ZM109.74 183.228V182.253H110.546V180.836H111.69V182.253H113.653V183.228H111.69V187.284C111.69 187.57 111.763 187.778 111.911 187.908C112.058 188.038 112.309 188.103 112.665 188.103C113.003 188.103 113.31 188.008 113.588 187.817V188.857C113.449 188.944 113.267 189.009 113.042 189.052C112.816 189.104 112.591 189.13 112.366 189.13C111.932 189.13 111.581 189.048 111.313 188.883C111.044 188.718 110.849 188.506 110.728 188.246C110.606 187.986 110.546 187.713 110.546 187.427V183.228H109.74ZM115.695 181.265C115.461 181.265 115.274 181.196 115.136 181.057C114.997 180.91 114.928 180.732 114.928 180.524C114.928 180.316 114.997 180.138 115.136 179.991C115.274 179.844 115.461 179.77 115.695 179.77C115.92 179.77 116.098 179.844 116.228 179.991C116.358 180.138 116.423 180.316 116.423 180.524C116.423 180.732 116.358 180.91 116.228 181.057C116.098 181.196 115.92 181.265 115.695 181.265ZM115.11 182.253H116.254V189H115.11V182.253ZM118.522 189V183.228H117.703V182.253H118.522V182.084C118.522 181.287 118.734 180.667 119.159 180.225C119.583 179.783 120.164 179.562 120.901 179.562C121.23 179.562 121.516 179.601 121.759 179.679V180.719C121.681 180.684 121.568 180.654 121.421 180.628C121.273 180.602 121.117 180.589 120.953 180.589C120.554 180.589 120.238 180.71 120.004 180.953C119.778 181.196 119.666 181.573 119.666 182.084V182.253H121.616V183.228H119.666V189H118.522ZM123.541 181.265C123.307 181.265 123.12 181.196 122.982 181.057C122.843 180.91 122.774 180.732 122.774 180.524C122.774 180.316 122.843 180.138 122.982 179.991C123.12 179.844 123.307 179.77 123.541 179.77C123.766 179.77 123.944 179.844 124.074 179.991C124.204 180.138 124.269 180.316 124.269 180.524C124.269 180.732 124.204 180.91 124.074 181.057C123.944 181.196 123.766 181.265 123.541 181.265ZM122.956 182.253H124.1V189H122.956V182.253ZM128.876 189.13C127.828 189.13 127 188.822 126.393 188.207C125.787 187.583 125.483 186.721 125.483 185.62C125.483 184.519 125.791 183.661 126.406 183.046C127.022 182.431 127.862 182.123 128.928 182.123C129.336 182.123 129.717 182.171 130.072 182.266C130.428 182.353 130.714 182.483 130.93 182.656V183.683C130.341 183.319 129.678 183.137 128.941 183.137C128.161 183.137 127.585 183.345 127.212 183.761C126.84 184.168 126.653 184.788 126.653 185.62C126.653 186.452 126.831 187.076 127.186 187.492C127.55 187.899 128.114 188.103 128.876 188.103C129.613 188.103 130.298 187.925 130.93 187.57V188.597C130.367 188.952 129.682 189.13 128.876 189.13ZM134.613 183.137C133.893 183.137 133.165 183.358 132.429 183.8V182.773C132.749 182.574 133.118 182.418 133.534 182.305C133.958 182.184 134.37 182.123 134.769 182.123C135.618 182.123 136.264 182.301 136.706 182.656C137.148 183.011 137.369 183.553 137.369 184.281V187.908C137.369 188.055 137.373 188.246 137.382 188.48C137.399 188.705 137.416 188.879 137.434 189H136.394C136.368 188.879 136.342 188.71 136.316 188.493C136.298 188.268 136.29 188.073 136.29 187.908L136.277 187.713C136.173 187.921 136.03 188.138 135.848 188.363C135.666 188.58 135.423 188.762 135.12 188.909C134.825 189.056 134.457 189.13 134.015 189.13C133.408 189.13 132.918 188.957 132.546 188.61C132.173 188.263 131.987 187.774 131.987 187.141C131.987 186.404 132.247 185.863 132.767 185.516C133.287 185.169 134.019 184.996 134.964 184.996H136.225V184.437C136.225 183.969 136.103 183.635 135.861 183.436C135.618 183.237 135.202 183.137 134.613 183.137ZM136.225 186.4V185.906H135.081C134.396 185.906 133.898 186.006 133.586 186.205C133.282 186.404 133.131 186.695 133.131 187.076C133.131 187.379 133.222 187.626 133.404 187.817C133.594 188.008 133.88 188.103 134.262 188.103C134.617 188.103 134.92 188.034 135.172 187.895C135.423 187.748 135.627 187.574 135.783 187.375C135.939 187.167 136.051 186.972 136.121 186.79C136.19 186.608 136.225 186.478 136.225 186.4ZM138.621 183.228V182.253H139.427V180.836H140.571V182.253H142.534V183.228H140.571V187.284C140.571 187.57 140.645 187.778 140.792 187.908C140.94 188.038 141.191 188.103 141.546 188.103C141.884 188.103 142.192 188.008 142.469 187.817V188.857C142.331 188.944 142.149 189.009 141.923 189.052C141.698 189.104 141.473 189.13 141.247 189.13C140.814 189.13 140.463 189.048 140.194 188.883C139.926 188.718 139.731 188.506 139.609 188.246C139.488 187.986 139.427 187.713 139.427 187.427V183.228H138.621ZM146.791 189.13C145.665 189.13 144.802 188.822 144.204 188.207C143.615 187.583 143.32 186.721 143.32 185.62C143.32 184.883 143.459 184.255 143.736 183.735C144.014 183.215 144.395 182.816 144.88 182.539C145.366 182.262 145.912 182.123 146.518 182.123C147.55 182.123 148.308 182.465 148.793 183.15C149.279 183.826 149.435 184.753 149.261 185.932H144.503C144.599 187.379 145.396 188.103 146.895 188.103C147.719 188.103 148.477 187.869 149.17 187.401V188.428C148.858 188.645 148.494 188.818 148.078 188.948C147.662 189.069 147.233 189.13 146.791 189.13ZM146.492 183.137C145.998 183.137 145.574 183.289 145.218 183.592C144.863 183.895 144.638 184.355 144.542 184.97H148.169C148.195 184.389 148.061 183.939 147.766 183.618C147.472 183.297 147.047 183.137 146.492 183.137ZM150.539 185.555V184.515H153.659V185.555H150.539ZM159.643 184.281C159.643 183.848 159.535 183.549 159.318 183.384C159.102 183.219 158.807 183.137 158.434 183.137C157.949 183.137 157.563 183.258 157.277 183.501C156.991 183.735 156.74 184.043 156.523 184.424V189H155.379V182.253H156.38L156.497 183.462H156.523C156.705 183.081 156.978 182.764 157.342 182.513C157.715 182.253 158.192 182.123 158.772 182.123C159.284 182.123 159.708 182.249 160.046 182.5C160.384 182.743 160.61 183.111 160.722 183.605C160.913 183.146 161.203 182.786 161.593 182.526C161.992 182.257 162.473 182.123 163.036 182.123C163.652 182.123 164.141 182.301 164.505 182.656C164.878 183.011 165.064 183.549 165.064 184.268V189H163.907V184.411C163.907 183.969 163.799 183.648 163.582 183.449C163.366 183.241 163.071 183.137 162.698 183.137C162.204 183.137 161.814 183.28 161.528 183.566C161.242 183.843 160.995 184.173 160.787 184.554V189H159.643V184.281ZM169.144 183.137C168.425 183.137 167.697 183.358 166.96 183.8V182.773C167.281 182.574 167.649 182.418 168.065 182.305C168.49 182.184 168.901 182.123 169.3 182.123C170.149 182.123 170.795 182.301 171.237 182.656C171.679 183.011 171.9 183.553 171.9 184.281V187.908C171.9 188.055 171.904 188.246 171.913 188.48C171.93 188.705 171.948 188.879 171.965 189H170.925C170.899 188.879 170.873 188.71 170.847 188.493C170.83 188.268 170.821 188.073 170.821 187.908L170.808 187.713C170.704 187.921 170.561 188.138 170.379 188.363C170.197 188.58 169.954 188.762 169.651 188.909C169.356 189.056 168.988 189.13 168.546 189.13C167.939 189.13 167.45 188.957 167.077 188.61C166.704 188.263 166.518 187.774 166.518 187.141C166.518 186.404 166.778 185.863 167.298 185.516C167.818 185.169 168.55 184.996 169.495 184.996H170.756V184.437C170.756 183.969 170.635 183.635 170.392 183.436C170.149 183.237 169.733 183.137 169.144 183.137ZM170.756 186.4V185.906H169.612C168.927 185.906 168.429 186.006 168.117 186.205C167.814 186.404 167.662 186.695 167.662 187.076C167.662 187.379 167.753 187.626 167.935 187.817C168.126 188.008 168.412 188.103 168.793 188.103C169.148 188.103 169.452 188.034 169.703 187.895C169.954 187.748 170.158 187.574 170.314 187.375C170.47 187.167 170.583 186.972 170.652 186.79C170.721 186.608 170.756 186.478 170.756 186.4ZM176.897 183.137C176.377 183.137 175.952 183.258 175.623 183.501C175.302 183.735 175.042 184.038 174.843 184.411V189H173.699V182.253H174.778L174.817 183.462H174.843C175.025 183.081 175.311 182.764 175.701 182.513C176.091 182.253 176.585 182.123 177.183 182.123C177.85 182.123 178.379 182.301 178.769 182.656C179.167 183.011 179.367 183.549 179.367 184.268V189H178.223V184.385C178.223 183.926 178.101 183.605 177.859 183.423C177.625 183.232 177.304 183.137 176.897 183.137ZM183.464 183.137C182.745 183.137 182.017 183.358 181.28 183.8V182.773C181.601 182.574 181.969 182.418 182.385 182.305C182.81 182.184 183.222 182.123 183.62 182.123C184.47 182.123 185.115 182.301 185.557 182.656C185.999 183.011 186.22 183.553 186.22 184.281V187.908C186.22 188.055 186.225 188.246 186.233 188.48C186.251 188.705 186.268 188.879 186.285 189H185.245C185.219 188.879 185.193 188.71 185.167 188.493C185.15 188.268 185.141 188.073 185.141 187.908L185.128 187.713C185.024 187.921 184.881 188.138 184.699 188.363C184.517 188.58 184.275 188.762 183.971 188.909C183.677 189.056 183.308 189.13 182.866 189.13C182.26 189.13 181.77 188.957 181.397 188.61C181.025 188.263 180.838 187.774 180.838 187.141C180.838 186.404 181.098 185.863 181.618 185.516C182.138 185.169 182.871 184.996 183.815 184.996H185.076V184.437C185.076 183.969 184.955 183.635 184.712 183.436C184.47 183.237 184.054 183.137 183.464 183.137ZM185.076 186.4V185.906H183.932C183.248 185.906 182.749 186.006 182.437 186.205C182.134 186.404 181.982 186.695 181.982 187.076C181.982 187.379 182.073 187.626 182.255 187.817C182.446 188.008 182.732 188.103 183.113 188.103C183.469 188.103 183.772 188.034 184.023 187.895C184.275 187.748 184.478 187.574 184.634 187.375C184.79 187.167 184.903 186.972 184.972 186.79C185.042 186.608 185.076 186.478 185.076 186.4ZM188.097 190.768V189.741C188.461 189.94 188.825 190.083 189.189 190.17C189.553 190.257 189.969 190.3 190.437 190.3C191.269 190.3 191.85 190.14 192.179 189.819C192.508 189.507 192.673 189.048 192.673 188.441V187.401C192.474 187.8 192.192 188.12 191.828 188.363C191.473 188.606 191.031 188.727 190.502 188.727C189.973 188.727 189.479 188.606 189.02 188.363C188.569 188.112 188.205 187.743 187.928 187.258C187.659 186.773 187.525 186.166 187.525 185.438C187.525 184.701 187.659 184.09 187.928 183.605C188.205 183.111 188.569 182.743 189.02 182.5C189.479 182.249 189.982 182.123 190.528 182.123C191.065 182.123 191.516 182.244 191.88 182.487C192.253 182.73 192.543 183.059 192.751 183.475L192.764 183.332C192.764 183.176 192.773 182.99 192.79 182.773C192.807 182.548 192.825 182.374 192.842 182.253H193.882C193.865 182.366 193.847 182.539 193.83 182.773C193.821 182.998 193.817 183.185 193.817 183.332V188.428C193.817 189.009 193.7 189.516 193.466 189.949C193.241 190.382 192.881 190.72 192.387 190.963C191.893 191.206 191.239 191.327 190.424 191.327C189.436 191.327 188.66 191.141 188.097 190.768ZM192.686 185.438C192.686 184.667 192.495 184.09 192.114 183.709C191.741 183.328 191.269 183.137 190.697 183.137C190.125 183.137 189.644 183.328 189.254 183.709C188.873 184.09 188.682 184.667 188.682 185.438C188.682 186.192 188.873 186.76 189.254 187.141C189.644 187.514 190.129 187.7 190.71 187.7C191.273 187.7 191.741 187.514 192.114 187.141C192.495 186.768 192.686 186.201 192.686 185.438ZM198.664 189.13C197.538 189.13 196.675 188.822 196.077 188.207C195.488 187.583 195.193 186.721 195.193 185.62C195.193 184.883 195.332 184.255 195.609 183.735C195.887 183.215 196.268 182.816 196.753 182.539C197.239 182.262 197.785 182.123 198.391 182.123C199.423 182.123 200.181 182.465 200.666 183.15C201.152 183.826 201.308 184.753 201.134 185.932H196.376C196.472 187.379 197.269 188.103 198.768 188.103C199.592 188.103 200.35 187.869 201.043 187.401V188.428C200.731 188.645 200.367 188.818 199.951 188.948C199.535 189.069 199.106 189.13 198.664 189.13ZM198.365 183.137C197.871 183.137 197.447 183.289 197.091 183.592C196.736 183.895 196.511 184.355 196.415 184.97H200.042C200.068 184.389 199.934 183.939 199.639 183.618C199.345 183.297 198.92 183.137 198.365 183.137ZM205.909 183.397C205.372 183.44 204.912 183.575 204.531 183.8C204.158 184.025 203.885 184.329 203.712 184.71V189H202.568V182.253H203.569L203.686 183.722H203.712C203.929 183.271 204.223 182.907 204.596 182.63C204.977 182.353 205.415 182.184 205.909 182.123V183.397ZM207.153 189.078C206.91 189.078 206.706 189 206.542 188.844C206.386 188.679 206.308 188.484 206.308 188.259C206.308 188.016 206.386 187.817 206.542 187.661C206.706 187.505 206.91 187.427 207.153 187.427C207.395 187.427 207.595 187.505 207.751 187.661C207.907 187.817 207.985 188.016 207.985 188.259C207.985 188.484 207.907 188.679 207.751 188.844C207.595 189 207.395 189.078 207.153 189.078ZM85.3251 204.13C84.2764 204.13 83.4487 203.822 82.8421 203.207C82.2354 202.583 81.9321 201.721 81.9321 200.62C81.9321 199.519 82.2397 198.661 82.8551 198.046C83.4704 197.431 84.3111 197.123 85.3771 197.123C85.7844 197.123 86.1657 197.171 86.5211 197.266C86.8764 197.353 87.1624 197.483 87.3791 197.656V198.683C86.7897 198.319 86.1267 198.137 85.3901 198.137C84.6101 198.137 84.0337 198.345 83.6611 198.761C83.2884 199.168 83.1021 199.788 83.1021 200.62C83.1021 201.452 83.2797 202.076 83.6351 202.492C83.9991 202.899 84.5624 203.103 85.3251 203.103C86.0617 203.103 86.7464 202.925 87.3791 202.57V203.597C86.8157 203.952 86.1311 204.13 85.3251 204.13ZM91.7634 204.13C90.6367 204.13 89.7744 203.822 89.1764 203.207C88.5871 202.583 88.2924 201.721 88.2924 200.62C88.2924 199.883 88.4311 199.255 88.7084 198.735C88.9857 198.215 89.3671 197.816 89.8524 197.539C90.3377 197.262 90.8837 197.123 91.4904 197.123C92.5217 197.123 93.2801 197.465 93.7654 198.15C94.2507 198.826 94.4067 199.753 94.2334 200.932H89.4754C89.5707 202.379 90.3681 203.103 91.8674 203.103C92.6907 203.103 93.4491 202.869 94.1424 202.401V203.428C93.8304 203.645 93.4664 203.818 93.0504 203.948C92.6344 204.069 92.2054 204.13 91.7634 204.13ZM91.4644 198.137C90.9704 198.137 90.5457 198.289 90.1904 198.592C89.8351 198.895 89.6097 199.355 89.5144 199.97H93.1414C93.1674 199.389 93.0331 198.939 92.7384 198.618C92.4437 198.297 92.0191 198.137 91.4644 198.137ZM99.008 198.397C98.4706 198.44 98.0113 198.575 97.63 198.8C97.2573 199.025 96.9843 199.329 96.811 199.71V204H95.667V197.253H96.668L96.785 198.722H96.811C97.0276 198.271 97.3223 197.907 97.695 197.63C98.0763 197.353 98.514 197.184 99.008 197.123V198.397ZM99.9198 198.228V197.253H100.726V195.836H101.87V197.253H103.833V198.228H101.87V202.284C101.87 202.57 101.943 202.778 102.091 202.908C102.238 203.038 102.489 203.103 102.845 203.103C103.183 203.103 103.49 203.008 103.768 202.817V203.857C103.629 203.944 103.447 204.009 103.222 204.052C102.996 204.104 102.771 204.13 102.546 204.13C102.112 204.13 101.761 204.048 101.493 203.883C101.224 203.718 101.029 203.506 100.908 203.246C100.786 202.986 100.726 202.713 100.726 202.427V198.228H99.9198ZM105.875 196.265C105.641 196.265 105.455 196.196 105.316 196.057C105.177 195.91 105.108 195.732 105.108 195.524C105.108 195.316 105.177 195.138 105.316 194.991C105.455 194.844 105.641 194.77 105.875 194.77C106.1 194.77 106.278 194.844 106.408 194.991C106.538 195.138 106.603 195.316 106.603 195.524C106.603 195.732 106.538 195.91 106.408 196.057C106.278 196.196 106.1 196.265 105.875 196.265ZM105.29 197.253H106.434V204H105.29V197.253ZM108.702 204V198.228H107.883V197.253H108.702V197.084C108.702 196.287 108.914 195.667 109.339 195.225C109.763 194.783 110.344 194.562 111.081 194.562C111.41 194.562 111.696 194.601 111.939 194.679V195.719C111.861 195.684 111.748 195.654 111.601 195.628C111.453 195.602 111.297 195.589 111.133 195.589C110.734 195.589 110.418 195.71 110.184 195.953C109.958 196.196 109.846 196.573 109.846 197.084V197.253H111.796V198.228H109.846V204H108.702ZM113.721 196.265C113.487 196.265 113.3 196.196 113.162 196.057C113.023 195.91 112.954 195.732 112.954 195.524C112.954 195.316 113.023 195.138 113.162 194.991C113.3 194.844 113.487 194.77 113.721 194.77C113.946 194.77 114.124 194.844 114.254 194.991C114.384 195.138 114.449 195.316 114.449 195.524C114.449 195.732 114.384 195.91 114.254 196.057C114.124 196.196 113.946 196.265 113.721 196.265ZM113.136 197.253H114.28V204H113.136V197.253ZM119.056 204.13C118.008 204.13 117.18 203.822 116.573 203.207C115.967 202.583 115.663 201.721 115.663 200.62C115.663 199.519 115.971 198.661 116.586 198.046C117.202 197.431 118.042 197.123 119.108 197.123C119.516 197.123 119.897 197.171 120.252 197.266C120.608 197.353 120.894 197.483 121.11 197.656V198.683C120.521 198.319 119.858 198.137 119.121 198.137C118.341 198.137 117.765 198.345 117.392 198.761C117.02 199.168 116.833 199.788 116.833 200.62C116.833 201.452 117.011 202.076 117.366 202.492C117.73 202.899 118.294 203.103 119.056 203.103C119.793 203.103 120.478 202.925 121.11 202.57V203.597C120.547 203.952 119.862 204.13 119.056 204.13ZM124.793 198.137C124.074 198.137 123.346 198.358 122.609 198.8V197.773C122.93 197.574 123.298 197.418 123.714 197.305C124.139 197.184 124.55 197.123 124.949 197.123C125.798 197.123 126.444 197.301 126.886 197.656C127.328 198.011 127.549 198.553 127.549 199.281V202.908C127.549 203.055 127.553 203.246 127.562 203.48C127.579 203.705 127.597 203.879 127.614 204H126.574C126.548 203.879 126.522 203.71 126.496 203.493C126.479 203.268 126.47 203.073 126.47 202.908L126.457 202.713C126.353 202.921 126.21 203.138 126.028 203.363C125.846 203.58 125.603 203.762 125.3 203.909C125.005 204.056 124.637 204.13 124.195 204.13C123.588 204.13 123.099 203.957 122.726 203.61C122.353 203.263 122.167 202.774 122.167 202.141C122.167 201.404 122.427 200.863 122.947 200.516C123.467 200.169 124.199 199.996 125.144 199.996H126.405V199.437C126.405 198.969 126.284 198.635 126.041 198.436C125.798 198.237 125.382 198.137 124.793 198.137ZM126.405 201.4V200.906H125.261C124.576 200.906 124.078 201.006 123.766 201.205C123.463 201.404 123.311 201.695 123.311 202.076C123.311 202.379 123.402 202.626 123.584 202.817C123.775 203.008 124.061 203.103 124.442 203.103C124.797 203.103 125.101 203.034 125.352 202.895C125.603 202.748 125.807 202.574 125.963 202.375C126.119 202.167 126.232 201.972 126.301 201.79C126.37 201.608 126.405 201.478 126.405 201.4ZM128.802 198.228V197.253H129.608V195.836H130.752V197.253H132.715V198.228H130.752V202.284C130.752 202.57 130.825 202.778 130.973 202.908C131.12 203.038 131.371 203.103 131.727 203.103C132.065 203.103 132.372 203.008 132.65 202.817V203.857C132.511 203.944 132.329 204.009 132.104 204.052C131.878 204.104 131.653 204.13 131.428 204.13C130.994 204.13 130.643 204.048 130.375 203.883C130.106 203.718 129.911 203.506 129.79 203.246C129.668 202.986 129.608 202.713 129.608 202.427V198.228H128.802ZM136.971 204.13C135.845 204.13 134.982 203.822 134.384 203.207C133.795 202.583 133.5 201.721 133.5 200.62C133.5 199.883 133.639 199.255 133.916 198.735C134.194 198.215 134.575 197.816 135.06 197.539C135.546 197.262 136.092 197.123 136.698 197.123C137.73 197.123 138.488 197.465 138.973 198.15C139.459 198.826 139.615 199.753 139.441 200.932H134.683C134.779 202.379 135.576 203.103 137.075 203.103C137.899 203.103 138.657 202.869 139.35 202.401V203.428C139.038 203.645 138.674 203.818 138.258 203.948C137.842 204.069 137.413 204.13 136.971 204.13ZM136.672 198.137C136.178 198.137 135.754 198.289 135.398 198.592C135.043 198.895 134.818 199.355 134.722 199.97H138.349C138.375 199.389 138.241 198.939 137.946 198.618C137.652 198.297 137.227 198.137 136.672 198.137ZM143.033 204.13C142.539 204.13 142.067 204.061 141.616 203.922C141.174 203.775 140.814 203.58 140.537 203.337V202.31C140.806 202.57 141.165 202.778 141.616 202.934C142.075 203.09 142.543 203.168 143.02 203.168C144.077 203.168 144.606 202.826 144.606 202.141C144.606 201.942 144.558 201.781 144.463 201.66C144.376 201.53 144.212 201.422 143.969 201.335C143.726 201.24 143.375 201.149 142.916 201.062C142.041 200.889 141.43 200.655 141.083 200.36C140.736 200.057 140.563 199.628 140.563 199.073C140.563 198.458 140.801 197.981 141.278 197.643C141.755 197.296 142.413 197.123 143.254 197.123C143.653 197.123 144.043 197.166 144.424 197.253C144.814 197.331 145.13 197.439 145.373 197.578V198.605C144.87 198.258 144.177 198.085 143.293 198.085C142.747 198.085 142.344 198.163 142.084 198.319C141.833 198.475 141.707 198.718 141.707 199.047C141.707 199.22 141.746 199.363 141.824 199.476C141.902 199.589 142.058 199.688 142.292 199.775C142.526 199.862 142.877 199.953 143.345 200.048C143.943 200.169 144.415 200.317 144.762 200.49C145.117 200.655 145.369 200.867 145.516 201.127C145.672 201.387 145.75 201.716 145.75 202.115C145.75 202.748 145.512 203.242 145.035 203.597C144.558 203.952 143.891 204.13 143.033 204.13ZM147.783 204.078C147.54 204.078 147.337 204 147.172 203.844C147.016 203.679 146.938 203.484 146.938 203.259C146.938 203.016 147.016 202.817 147.172 202.661C147.337 202.505 147.54 202.427 147.783 202.427C148.026 202.427 148.225 202.505 148.381 202.661C148.537 202.817 148.615 203.016 148.615 203.259C148.615 203.484 148.537 203.679 148.381 203.844C148.225 204 148.026 204.078 147.783 204.078ZM149.598 200.62C149.598 199.831 149.737 199.181 150.014 198.67C150.291 198.15 150.66 197.764 151.119 197.513C151.587 197.253 152.094 197.123 152.64 197.123C153.151 197.123 153.593 197.231 153.966 197.448C154.339 197.656 154.638 197.955 154.863 198.345V194.679H156.007V204H155.006L154.915 202.674C154.707 203.116 154.412 203.471 154.031 203.74C153.658 204 153.19 204.13 152.627 204.13C152.09 204.13 151.587 204.004 151.119 203.753C150.66 203.493 150.291 203.103 150.014 202.583C149.737 202.063 149.598 201.409 149.598 200.62ZM154.876 200.62C154.876 199.779 154.677 199.155 154.278 198.748C153.879 198.341 153.385 198.137 152.796 198.137C152.207 198.137 151.721 198.349 151.34 198.774C150.959 199.19 150.768 199.805 150.768 200.62C150.768 201.443 150.959 202.063 151.34 202.479C151.721 202.895 152.207 203.103 152.796 203.103C153.385 203.103 153.879 202.899 154.278 202.492C154.677 202.085 154.876 201.461 154.876 200.62ZM160.643 204.13C160.028 204.13 159.473 203.996 158.979 203.727C158.494 203.45 158.108 203.051 157.822 202.531C157.536 202.002 157.393 201.365 157.393 200.62C157.393 199.875 157.536 199.242 157.822 198.722C158.108 198.202 158.494 197.808 158.979 197.539C159.473 197.262 160.028 197.123 160.643 197.123C161.267 197.123 161.826 197.262 162.32 197.539C162.814 197.808 163.204 198.202 163.49 198.722C163.776 199.242 163.919 199.875 163.919 200.62C163.919 201.365 163.776 202.002 163.49 202.531C163.204 203.051 162.814 203.45 162.32 203.727C161.826 203.996 161.267 204.13 160.643 204.13ZM160.643 203.103C161.25 203.103 161.752 202.904 162.151 202.505C162.55 202.098 162.749 201.469 162.749 200.62C162.749 199.771 162.55 199.147 162.151 198.748C161.752 198.341 161.25 198.137 160.643 198.137C160.045 198.137 159.547 198.341 159.148 198.748C158.758 199.147 158.563 199.771 158.563 200.62C158.563 201.469 158.758 202.098 159.148 202.505C159.547 202.904 160.045 203.103 160.643 203.103ZM174.065 197.253L172.531 204H170.776L169.346 198.787L167.877 204H166.174L164.64 197.253H165.849L167.136 203.142L168.774 197.253H170.061L171.66 203.077L172.934 197.253H174.065ZM178.592 198.137C178.072 198.137 177.647 198.258 177.318 198.501C176.997 198.735 176.737 199.038 176.538 199.411V204H175.394V197.253H176.473L176.512 198.462H176.538C176.72 198.081 177.006 197.764 177.396 197.513C177.786 197.253 178.28 197.123 178.878 197.123C179.545 197.123 180.074 197.301 180.464 197.656C180.862 198.011 181.062 198.549 181.062 199.268V204H179.918V199.385C179.918 198.926 179.796 198.605 179.554 198.423C179.32 198.232 178.999 198.137 178.592 198.137ZM182.871 194.679H184.015V204H182.871V194.679ZM188.649 204.13C188.034 204.13 187.479 203.996 186.985 203.727C186.5 203.45 186.114 203.051 185.828 202.531C185.542 202.002 185.399 201.365 185.399 200.62C185.399 199.875 185.542 199.242 185.828 198.722C186.114 198.202 186.5 197.808 186.985 197.539C187.479 197.262 188.034 197.123 188.649 197.123C189.273 197.123 189.832 197.262 190.326 197.539C190.82 197.808 191.21 198.202 191.496 198.722C191.782 199.242 191.925 199.875 191.925 200.62C191.925 201.365 191.782 202.002 191.496 202.531C191.21 203.051 190.82 203.45 190.326 203.727C189.832 203.996 189.273 204.13 188.649 204.13ZM188.649 203.103C189.256 203.103 189.758 202.904 190.157 202.505C190.556 202.098 190.755 201.469 190.755 200.62C190.755 199.771 190.556 199.147 190.157 198.748C189.758 198.341 189.256 198.137 188.649 198.137C188.051 198.137 187.553 198.341 187.154 198.748C186.764 199.147 186.569 199.771 186.569 200.62C186.569 201.469 186.764 202.098 187.154 202.505C187.553 202.904 188.051 203.103 188.649 203.103ZM195.48 198.137C194.761 198.137 194.033 198.358 193.296 198.8V197.773C193.617 197.574 193.985 197.418 194.401 197.305C194.826 197.184 195.238 197.123 195.636 197.123C196.486 197.123 197.131 197.301 197.573 197.656C198.015 198.011 198.236 198.553 198.236 199.281V202.908C198.236 203.055 198.241 203.246 198.249 203.48C198.267 203.705 198.284 203.879 198.301 204H197.261C197.235 203.879 197.209 203.71 197.183 203.493C197.166 203.268 197.157 203.073 197.157 202.908L197.144 202.713C197.04 202.921 196.897 203.138 196.715 203.363C196.533 203.58 196.291 203.762 195.987 203.909C195.693 204.056 195.324 204.13 194.882 204.13C194.276 204.13 193.786 203.957 193.413 203.61C193.041 203.263 192.854 202.774 192.854 202.141C192.854 201.404 193.114 200.863 193.634 200.516C194.154 200.169 194.887 199.996 195.831 199.996H197.092V199.437C197.092 198.969 196.971 198.635 196.728 198.436C196.486 198.237 196.07 198.137 195.48 198.137ZM197.092 201.4V200.906H195.948C195.264 200.906 194.765 201.006 194.453 201.205C194.15 201.404 193.998 201.695 193.998 202.076C193.998 202.379 194.089 202.626 194.271 202.817C194.462 203.008 194.748 203.103 195.129 203.103C195.485 203.103 195.788 203.034 196.039 202.895C196.291 202.748 196.494 202.574 196.65 202.375C196.806 202.167 196.919 201.972 196.988 201.79C197.058 201.608 197.092 201.478 197.092 201.4ZM199.554 200.62C199.554 199.831 199.693 199.181 199.97 198.67C200.247 198.15 200.616 197.764 201.075 197.513C201.543 197.253 202.05 197.123 202.596 197.123C203.107 197.123 203.549 197.231 203.922 197.448C204.295 197.656 204.594 197.955 204.819 198.345V194.679H205.963V204H204.962L204.871 202.674C204.663 203.116 204.368 203.471 203.987 203.74C203.614 204 203.146 204.13 202.583 204.13C202.046 204.13 201.543 204.004 201.075 203.753C200.616 203.493 200.247 203.103 199.97 202.583C199.693 202.063 199.554 201.409 199.554 200.62ZM204.832 200.62C204.832 199.779 204.633 199.155 204.234 198.748C203.835 198.341 203.341 198.137 202.752 198.137C202.163 198.137 201.677 198.349 201.296 198.774C200.915 199.19 200.724 199.805 200.724 200.62C200.724 201.443 200.915 202.063 201.296 202.479C201.677 202.895 202.163 203.103 202.752 203.103C203.341 203.103 203.835 202.899 204.234 202.492C204.633 202.085 204.832 201.461 204.832 200.62ZM210.82 204.13C209.693 204.13 208.831 203.822 208.233 203.207C207.644 202.583 207.349 201.721 207.349 200.62C207.349 199.883 207.488 199.255 207.765 198.735C208.042 198.215 208.424 197.816 208.909 197.539C209.394 197.262 209.94 197.123 210.547 197.123C211.578 197.123 212.337 197.465 212.822 198.15C213.307 198.826 213.463 199.753 213.29 200.932H208.532C208.627 202.379 209.425 203.103 210.924 203.103C211.747 203.103 212.506 202.869 213.199 202.401V203.428C212.887 203.645 212.523 203.818 212.107 203.948C211.691 204.069 211.262 204.13 210.82 204.13ZM210.521 198.137C210.027 198.137 209.602 198.289 209.247 198.592C208.892 198.895 208.666 199.355 208.571 199.97H212.198C212.224 199.389 212.09 198.939 211.795 198.618C211.5 198.297 211.076 198.137 210.521 198.137ZM218.065 198.397C217.527 198.44 217.068 198.575 216.687 198.8C216.314 199.025 216.041 199.329 215.868 199.71V204H214.724V197.253H215.725L215.842 198.722H215.868C216.084 198.271 216.379 197.907 216.752 197.63C217.133 197.353 217.571 197.184 218.065 197.123V198.397Z" fill="#18123D"/>
<rect x="292" y="256" width="196" height="40" rx="4" fill="white" stroke="#67B0F8" stroke-width="2"/>
<path d="M372.321 274.137C371.602 274.137 370.874 274.358 370.137 274.8V273.773C370.458 273.574 370.826 273.418 371.242 273.305C371.667 273.184 372.079 273.123 372.477 273.123C373.327 273.123 373.972 273.301 374.414 273.656C374.856 274.011 375.077 274.553 375.077 275.281V278.908C375.077 279.055 375.082 279.246 375.09 279.48C375.108 279.705 375.125 279.879 375.142 280H374.102C374.076 279.879 374.05 279.71 374.024 279.493C374.007 279.268 373.998 279.073 373.998 278.908L373.985 278.713C373.881 278.921 373.738 279.138 373.556 279.363C373.374 279.58 373.132 279.762 372.828 279.909C372.534 280.056 372.165 280.13 371.723 280.13C371.117 280.13 370.627 279.957 370.254 279.61C369.882 279.263 369.695 278.774 369.695 278.141C369.695 277.404 369.955 276.863 370.475 276.516C370.995 276.169 371.728 275.996 372.672 275.996H373.933V275.437C373.933 274.969 373.812 274.635 373.569 274.436C373.327 274.237 372.911 274.137 372.321 274.137ZM373.933 277.4V276.906H372.789C372.105 276.906 371.606 277.006 371.294 277.205C370.991 277.404 370.839 277.695 370.839 278.076C370.839 278.379 370.93 278.626 371.112 278.817C371.303 279.008 371.589 279.103 371.97 279.103C372.326 279.103 372.629 279.034 372.88 278.895C373.132 278.748 373.335 278.574 373.491 278.375C373.647 278.167 373.76 277.972 373.829 277.79C373.899 277.608 373.933 277.478 373.933 277.4ZM381.205 278.791C381.023 279.164 380.741 279.48 380.36 279.74C379.987 280 379.498 280.13 378.891 280.13C378.267 280.13 377.76 279.952 377.37 279.597C376.989 279.242 376.798 278.7 376.798 277.972V273.253H377.955V277.972C377.955 278.414 378.076 278.713 378.319 278.869C378.562 279.025 378.861 279.103 379.216 279.103C379.719 279.103 380.122 278.99 380.425 278.765C380.728 278.54 380.988 278.232 381.205 277.842V273.253H382.349V280H381.335L381.231 278.791H381.205ZM383.746 276.62C383.746 275.831 383.884 275.181 384.162 274.67C384.439 274.15 384.807 273.764 385.267 273.513C385.735 273.253 386.242 273.123 386.788 273.123C387.299 273.123 387.741 273.231 388.114 273.448C388.486 273.656 388.785 273.955 389.011 274.345V270.679H390.155V280H389.154L389.063 278.674C388.855 279.116 388.56 279.471 388.179 279.74C387.806 280 387.338 280.13 386.775 280.13C386.237 280.13 385.735 280.004 385.267 279.753C384.807 279.493 384.439 279.103 384.162 278.583C383.884 278.063 383.746 277.409 383.746 276.62ZM389.024 276.62C389.024 275.779 388.824 275.155 388.426 274.748C388.027 274.341 387.533 274.137 386.944 274.137C386.354 274.137 385.869 274.349 385.488 274.774C385.106 275.19 384.916 275.805 384.916 276.62C384.916 277.443 385.106 278.063 385.488 278.479C385.869 278.895 386.354 279.103 386.944 279.103C387.533 279.103 388.027 278.899 388.426 278.492C388.824 278.085 389.024 277.461 389.024 276.62ZM392.606 272.265C392.372 272.265 392.186 272.196 392.047 272.057C391.909 271.91 391.839 271.732 391.839 271.524C391.839 271.316 391.909 271.138 392.047 270.991C392.186 270.844 392.372 270.77 392.606 270.77C392.832 270.77 393.009 270.844 393.139 270.991C393.269 271.138 393.334 271.316 393.334 271.524C393.334 271.732 393.269 271.91 393.139 272.057C393.009 272.196 392.832 272.265 392.606 272.265ZM392.021 273.253H393.165V280H392.021V273.253ZM394.484 274.228V273.253H395.29V271.836H396.434V273.253H398.397V274.228H396.434V278.284C396.434 278.57 396.508 278.778 396.655 278.908C396.803 279.038 397.054 279.103 397.409 279.103C397.747 279.103 398.055 279.008 398.332 278.817V279.857C398.194 279.944 398.012 280.009 397.786 280.052C397.561 280.104 397.336 280.13 397.11 280.13C396.677 280.13 396.326 280.048 396.057 279.883C395.789 279.718 395.594 279.506 395.472 279.246C395.351 278.986 395.29 278.713 395.29 278.427V274.228H394.484ZM402.433 280.13C401.818 280.13 401.263 279.996 400.769 279.727C400.284 279.45 399.898 279.051 399.612 278.531C399.326 278.002 399.183 277.365 399.183 276.62C399.183 275.875 399.326 275.242 399.612 274.722C399.898 274.202 400.284 273.808 400.769 273.539C401.263 273.262 401.818 273.123 402.433 273.123C403.057 273.123 403.616 273.262 404.11 273.539C404.604 273.808 404.994 274.202 405.28 274.722C405.566 275.242 405.709 275.875 405.709 276.62C405.709 277.365 405.566 278.002 405.28 278.531C404.994 279.051 404.604 279.45 404.11 279.727C403.616 279.996 403.057 280.13 402.433 280.13ZM402.433 279.103C403.04 279.103 403.542 278.904 403.941 278.505C404.34 278.098 404.539 277.469 404.539 276.62C404.539 275.771 404.34 275.147 403.941 274.748C403.542 274.341 403.04 274.137 402.433 274.137C401.835 274.137 401.337 274.341 400.938 274.748C400.548 275.147 400.353 275.771 400.353 276.62C400.353 277.469 400.548 278.098 400.938 278.505C401.337 278.904 401.835 279.103 402.433 279.103ZM410.444 274.397C409.907 274.44 409.448 274.575 409.066 274.8C408.694 275.025 408.421 275.329 408.247 275.71V280H407.103V273.253H408.104L408.221 274.722H408.247C408.464 274.271 408.759 273.907 409.131 273.63C409.513 273.353 409.95 273.184 410.444 273.123V274.397Z" fill="#18123D"/>
<path d="M150 129L144.226 139H155.774L150 129ZM149 138V171H151V138H149Z" fill="#4E496B"/>
<path d="M390 45L384.226 55H395.774L390 45ZM389 54V87H391V54H389Z" fill="#4E496B"/>
<path d="M390 129L384.226 139H395.774L390 129ZM389 138V171H391V138H389Z" fill="#4E496B"/>
<path d="M390 213L384.226 223H395.774L390 213ZM389 222V255H391V222H389Z" fill="#4E496B"/>
</svg>
