<svg xmlns="http://www.w3.org/2000/svg" width="16" height="16" fill="currentColor" aria-hidden="true" class="yc-icon"><svg xmlns="http://www.w3.org/2000/svg" fill="none" viewBox="0 0 16 16"><path fill="currentColor" d="M13.688 10.486v-6.83c0-.66-.56-1.219-1.22-1.219H3.532a1.22 1.22 0 0 0-1.219 1.22v8.937c0 .685.534 1.219 1.22 1.219h6.804c.28 0 .66-.153.863-.356l2.108-2.107c.203-.204.38-.584.38-.864zm-3.25 2.032v-1.956h1.93l-1.93 1.956zm2.03-8.862v5.688h-2.64a.602.602 0 0 0-.61.61v2.64H3.532V3.656h8.938z"/></svg></svg>