<svg xmlns="http://www.w3.org/2000/svg" width="16" height="16" fill="currentColor" aria-hidden="true" class="yc-icon">
    <svg xmlns="http://www.w3.org/2000/svg" fill="none" viewBox="0 0 16 16">
        <path fill="currentColor" d="m3.049 11.807.457-.508a.535.535 0 0 0 .127-.33v-.102c0-.203-.102-.305-.28-.305H1.907a.2.2 0 0 0-.203.204v.406c0 .127.076.203.203.203h.559c-.076.102-.203.229-.28.33l-.126.178c-.102.127-.153.254-.077.38l.026.052c.076.126.152.177.304.177h.127c.254 0 .407.076.407.254 0 .102-.102.203-.356.203-.127 0-.304-.05-.406-.076-.152-.101-.305-.101-.406.076l-.127.229c-.102.152-.076.304.076.406.178.127.508.229.94.229.863 0 1.218-.56 1.218-1.118 0-.355-.228-.736-.736-.888zm11.045-.229H5.969a.418.418 0 0 0-.407.406v.407c0 .228.178.406.407.406h8.125a.418.418 0 0 0 .406-.406v-.407a.437.437 0 0 0-.406-.406zm0-8.125H5.969a.418.418 0 0 0-.407.406v.407c0 .228.178.406.407.406h8.125a.418.418 0 0 0 .406-.406v-.407a.437.437 0 0 0-.406-.406zm0 4.063H5.969a.418.418 0 0 0-.407.406v.406a.4.4 0 0 0 .407.406h8.125a.418.418 0 0 0 .406-.406v-.406a.437.437 0 0 0-.406-.406zM1.906 5.687h1.625a.2.2 0 0 0 .203-.203v-.406a.218.218 0 0 0-.203-.203h-.406V2.641a.218.218 0 0 0-.203-.204h-.61c-.076.026-.152.051-.203.127l-.203.407v.076c0 .127.076.203.203.203h.204v1.625h-.407a.2.2 0 0 0-.203.203v.406c0 .127.076.204.203.204zM1.805 9.75H3.53a.2.2 0 0 0 .203-.203V9.14a.218.218 0 0 0-.203-.204h-.99c.076-.253 1.219-.457 1.219-1.421 0-.737-.635-1.016-1.117-1.016-.559 0-.864.254-1.041.482-.102.153-.077.28.076.407l.228.152c.127.127.28.076.407-.05a.378.378 0 0 1 .228-.102c.102 0 .229.05.229.228.025.33-1.27.559-1.27 1.752v.102c0 .177.127.279.305.279z"/>
    </svg>
</svg>
