<svg xmlns="http://www.w3.org/2000/svg" width="14" height="14" fill="currentColor" aria-hidden="true" class="yc-icon"><svg xmlns="http://www.w3.org/2000/svg" viewBox="0 0 14 14"><path d="m11.977 6.643.812-.457a.601.601 0 0 0 .28-.686c-.28-1.066-.864-2.031-1.626-2.818-.203-.178-.508-.229-.736-.102l-.812.482a4.505 4.505 0 0 0-.838-.482v-.94c0-.253-.203-.533-.457-.583a6.31 6.31 0 0 0-3.225 0 .596.596 0 0 0-.457.584v.94c-.254.1-.635.33-.838.482l-.812-.483c-.229-.127-.534-.076-.737.102C1.77 3.469 1.186 4.434.906 5.5c-.076.28.051.559.28.686l.812.457c-.025.152-.025.355-.025.482 0 .152 0 .355.025.482l-.812.483a.601.601 0 0 0-.28.685c.28 1.067.864 2.032 1.625 2.819.203.178.508.228.737.101l.812-.482c.203.152.584.38.838.482v.94c0 .254.203.533.457.584 1.041.279 2.184.279 3.225 0a.596.596 0 0 0 .457-.584v-.94c.254-.101.634-.33.838-.482l.812.482c.228.127.533.076.736-.101.762-.787 1.346-1.752 1.625-2.819a.601.601 0 0 0-.279-.685l-.812-.483a6.116 6.116 0 0 0 0-.964ZM10.63 8.268l1.117.634c-.152.457-.558 1.118-.863 1.473L9.768 9.74c-.813.686-.914.762-1.93 1.117v1.295c-.229.026-.61.077-.838.077-.254 0-.635-.051-.863-.077v-1.295c-1.016-.355-1.143-.431-1.93-1.117l-1.117.635c-.305-.355-.711-1.016-.863-1.473l1.117-.634c-.203-1.067-.203-1.194 0-2.26l-1.117-.635A4.784 4.784 0 0 1 3.09 3.9l1.117.635c.813-.685.914-.762 1.93-1.117V2.123c.228-.025.61-.076.863-.076.229 0 .61.05.838.076v1.295c1.016.355 1.142.432 1.93 1.117l1.117-.635c.305.356.71 1.016.863 1.473l-1.117.635c.203 1.066.203 1.193 0 2.26ZM7 4.688a2.455 2.455 0 0 0-2.438 2.437A2.438 2.438 0 0 0 7 9.563a2.455 2.455 0 0 0 2.438-2.438c0-1.32-1.118-2.438-2.438-2.438Zm0 3.656a1.203 1.203 0 0 1-1.219-1.219c0-.66.533-1.219 1.219-1.219.66 0 1.219.559 1.219 1.219 0 .686-.559 1.219-1.219 1.219Z"/></svg></svg>