<svg xmlns="http://www.w3.org/2000/svg" xmlns:xlink="http://www.w3.org/1999/xlink" width="14" height="14" class="yc-icon" fill="currentColor" stroke="none" aria-hidden="true"><svg viewBox="0 0 14 14" xmlns="http://www.w3.org/2000/svg"><path d="M4.193 3C3.527 3 3 3.5 3 4.193 3 4.887 3.527 5.4 4.193 5.4c.68 0 1.207-.513 1.207-1.207C5.4 3.499 4.873 3 4.193 3z"></path><path fill-rule="evenodd" clip-rule="evenodd" d="M11.121 13.4H2.88c-.792 0-1.08-.082-1.37-.238a1.615 1.615 0 01-.671-.671C.683 12.2.6 11.913.6 11.12V2.879c0-.792.083-1.08.238-1.37.154-.29.382-.517.672-.672C1.8.682 2.087.6 2.88.6h8.241c.793 0 1.08.082 1.37.237.29.155.517.383.672.672.155.29.237.578.237 1.37v8.242c0 .792-.082 1.08-.237 1.37-.155.29-.383.517-.672.671-.29.155-.577.238-1.37.238zm0-1.2H2.88c-.364 0-.547-.02-.646-.039a.46.46 0 01-.158-.057.416.416 0 01-.18-.18.464.464 0 01-.056-.157 3.626 3.626 0 01-.039-.646v-.074l2.488-2.132 2.044 1.022a.6.6 0 00.717-.138l2.808-3.16L12.2 8.647v2.474c0 .364-.02.547-.039.646a.464.464 0 01-.056.158.416.416 0 01-.18.18.461.461 0 01-.158.056 3.628 3.628 0 01-.646.039zm-9.32-9.321v6.588L3.81 7.744a.6.6 0 01.658-.08l1.99.994L9.351 5.4a.6.6 0 01.839-.057l2.01 1.723V2.879c0-.364-.02-.547-.04-.646a.463.463 0 00-.056-.158.416.416 0 00-.18-.18.463.463 0 00-.158-.056 3.628 3.628 0 00-.646-.039H2.88c-.364 0-.547.02-.646.039a.463.463 0 00-.158.057.416.416 0 00-.18.18.464.464 0 00-.056.157 3.627 3.627 0 00-.039.646z"></path></svg></svg>