<svg xmlns="http://www.w3.org/2000/svg" width="14" height="15" fill="currentColor" aria-hidden="true" class="yc-icon">
    <svg xmlns="http://www.w3.org/2000/svg" viewBox="0 0 14 15">
        <path d="M8.203 12.125h.656a.332.332 0 0 0 .329-.328V5.89a.353.353 0 0 0-.329-.329h-.656a.332.332 0 0 0-.328.329v5.906c0 .191.137.328.328.328zm4.485-9.188h-2.27l-.93-1.53C9.27 1.05 8.778.75 8.368.75H5.604c-.41 0-.902.3-1.12.656l-.93 1.532H1.312a.45.45 0 0 0-.437.437v.438c0 .246.191.437.438.437h.437v9.188c0 .738.574 1.312 1.313 1.312h7.874c.711 0 1.313-.574 1.313-1.313V4.25h.438a.45.45 0 0 0 .437-.438v-.437a.47.47 0 0 0-.438-.438zM5.55 2.146a.364.364 0 0 1 .136-.083h2.598c.027 0 .11.055.137.083l.465.792h-3.8l.465-.792zm5.386 11.293H3.064V4.25h7.874v9.188zM5.14 12.126h.656a.332.332 0 0 0 .328-.328V5.89a.353.353 0 0 0-.328-.329H5.14a.332.332 0 0 0-.329.329v5.906c0 .191.137.328.329.328z"/>
    </svg>
</svg>
