<svg xmlns="http://www.w3.org/2000/svg" xmlns:xlink="http://www.w3.org/1999/xlink" width="20" height="20" class="yc-icon nv-aside-header-footer-item__icon" fill="currentColor" stroke="none" aria-hidden="true"><svg fill="none" xmlns="http://www.w3.org/2000/svg"><path fill-rule="evenodd" clip-rule="evenodd" d="M9 2.5h2a.5.5 0 0 1 .5.5v.418c0 1.77 1.917 2.877 3.45 1.992l.362-.21a.5.5 0 0 1 .683.184l1 1.732a.5.5 0 0 1-.183.683l-.362.21c-1.533.884-1.533 3.098 0 3.983l.362.209a.5.5 0 0 1 .183.683l-1 1.732a.5.5 0 0 1-.683.183l-.362-.21c-1.533-.884-3.45.222-3.45 1.993V17a.5.5 0 0 1-.5.5H9a.5.5 0 0 1-.5-.5v-.418c0-1.77-1.917-2.877-3.45-1.992l-.362.209a.5.5 0 0 1-.683-.183l-1-1.732a.5.5 0 0 1 .183-.683l.362-.21c1.533-.884 1.533-3.098 0-3.983L3.188 7.8a.5.5 0 0 1-.183-.683l1-1.732a.5.5 0 0 1 .683-.183l.362.209c1.533.885 3.45-.221 3.45-1.992V3a.5.5 0 0 1 .5-.5ZM7 3a2 2 0 0 1 2-2h2a2 2 0 0 1 2 2v.418a.8.8 0 0 0 1.2.693l.362-.21a2 2 0 0 1 2.732.733l1 1.732a2 2 0 0 1-.732 2.732l-.362.21a.8.8 0 0 0 0 1.385l.362.209a2 2 0 0 1 .732 2.732l-1 1.732a2 2 0 0 1-2.732.732l-.362-.21a.8.8 0 0 0-1.2.694V17a2 2 0 0 1-2 2H9a2 2 0 0 1-2-2v-.418a.8.8 0 0 0-1.2-.693l-.362.209a2 2 0 0 1-2.732-.732l-1-1.732a2 2 0 0 1 .732-2.732l.362-.21a.8.8 0 0 0 0-1.385l-.362-.209a2 2 0 0 1-.732-2.732l1-1.732a2 2 0 0 1 2.732-.732l.362.209A.8.8 0 0 0 7 3.418V3Zm5 7a2 2 0 1 1-4 0 2 2 0 0 1 4 0Zm1.5 0a3.5 3.5 0 1 1-7 0 3.5 3.5 0 0 1 7 0Z" fill="currentColor"></path></svg></svg>