<svg xmlns="http://www.w3.org/2000/svg" xmlns:xlink="http://www.w3.org/1999/xlink" width="20" height="20" class="yc-icon nv-composite-bar__menu-icon" fill="currentColor" stroke="none" aria-hidden="true"><svg viewBox="0 0 16 16" xmlns="http://www.w3.org/2000/svg"><path d="M15.7656 7.28516C14.2891 3.92188 11.3359 1.625 8 1.625C4.63672 1.625 1.68359 3.92188 0.207031 7.28516C0.152344 7.42188 0.125 7.61328 0.125 7.75C0.125 7.88672 0.152344 8.10547 0.207031 8.24219C1.68359 11.6055 4.63672 13.875 8 13.875C11.3359 13.875 14.2891 11.6055 15.7656 8.24219C15.8203 8.10547 15.875 7.88672 15.875 7.75C15.875 7.61328 15.8203 7.42188 15.7656 7.28516ZM8 12.5625C5.26562 12.5625 2.75 10.7305 1.4375 7.77734C2.77734 4.79688 5.26562 2.9375 8 2.9375C10.707 2.9375 13.2227 4.79688 14.5352 7.75C13.1953 10.7305 10.707 12.5625 8 12.5625ZM8 4.25C6.05859 4.25 4.5 5.83594 4.5 7.75C4.5 9.69141 6.05859 11.25 8 11.25C9.91406 11.25 11.5 9.69141 11.5 7.77734C11.5 5.83594 9.91406 4.25 8 4.25ZM8 9.9375C6.76953 9.9375 5.8125 8.98047 5.8125 7.75C5.8125 7.75 5.8125 7.72266 5.8125 7.69531C5.94922 7.75 6.08594 7.75 6.25 7.75C7.20703 7.75 8 6.98438 8 6C8 5.86328 7.97266 5.72656 7.91797 5.58984C7.94531 5.58984 7.97266 5.5625 8 5.5625C9.20312 5.5625 10.1875 6.54688 10.1875 7.77734C10.1875 8.98047 9.20312 9.9375 8 9.9375Z"></path></svg></svg>