<svg xmlns="http://www.w3.org/2000/svg" width="16" height="16" fill="currentColor" aria-hidden="true" class="yc-icon GridTable-HeaderCellIcon">
    <svg xmlns="http://www.w3.org/2000/svg" viewBox="0 0 14 13">
        <path d="M12.469 3.469h-2.051l.383-2.051c.054-.355-.164-.711-.52-.766-.355-.054-.71.164-.765.52l-.41 2.297H6.07l.356-2.051c.054-.355-.164-.711-.52-.766-.355-.054-.71.164-.765.52l-.41 2.297H2.405c-.383 0-.656.3-.656.683 0 .356.273.63.656.63h2.078l-.71 3.937H1.53c-.383 0-.656.3-.656.656 0 .383.273.656.656.656h2.024l-.383 2.078c-.055.356.164.711.52.766h.136c.3 0 .574-.219.629-.52l.41-2.324h3.035l-.355 2.078a.637.637 0 0 0 .52.766h.136c.3 0 .574-.219.629-.52l.41-2.324h2.352c.355 0 .656-.273.656-.629 0-.355-.3-.656-.656-.656H9.488L10.2 4.81l2.27-.028c.355 0 .656-.273.656-.629a.67.67 0 0 0-.656-.683Zm-4.32 5.25H5.112l.711-3.938H8.86L8.15 8.72Z"/>
    </svg>
</svg>
