<svg xmlns="http://www.w3.org/2000/svg" width="470" height="320" fill="none"><rect width="171" height="34" x="253" y="11" fill="#fff" stroke="#67B0F8" stroke-width="2" rx="4"/><path fill="#18123D" d="M295.395 20.259c-.41.037-.784.143-1.122.319a1.59 1.59 0 0 0-.737.792V25h-.968v-5.709h.847l.099 1.243h.022c.162-.337.393-.63.693-.88.308-.257.697-.414 1.166-.473v1.078Zm5.562 4.257a3.143 3.143 0 0 1-.726.385 3.617 3.617 0 0 1-.572.143 3.544 3.544 0 0 1-.715.066c-.961 0-1.69-.26-2.189-.781-.499-.52-.748-1.25-.748-2.189 0-.462.066-.876.198-1.243a2.66 2.66 0 0 1 .572-.924 2.38 2.38 0 0 1 .858-.583c.33-.14.689-.209 1.078-.209.411 0 .777.07 1.1.209.323.14.587.345.792.616.213.271.356.609.429 1.012.081.396.081.858 0 1.386h-4.026c.037.616.22 1.078.55 1.386.33.3.821.451 1.474.451.44 0 .818-.062 1.133-.187.315-.125.579-.26.792-.407v.869Zm-2.266-4.477c-.418 0-.777.128-1.078.385-.301.257-.491.645-.572 1.166h3.069c.029-.528-.092-.917-.363-1.166-.271-.257-.623-.385-1.056-.385Zm5.382 5.071a3.78 3.78 0 0 1-.803-.077 3.78 3.78 0 0 1-.605-.165 3.253 3.253 0 0 1-.429-.22 2.942 2.942 0 0 1-.275-.209v-.869c.073.073.172.154.297.242.125.08.275.158.451.231.176.073.374.136.594.187.227.044.48.066.759.066.411 0 .737-.066.979-.198s.363-.356.363-.671a.638.638 0 0 0-.121-.407.732.732 0 0 0-.308-.242 1.898 1.898 0 0 0-.462-.154 22.911 22.911 0 0 0-.539-.11c-.242-.051-.48-.106-.715-.165a2.504 2.504 0 0 1-.638-.275 1.49 1.49 0 0 1-.462-.473c-.117-.198-.176-.455-.176-.77 0-.513.198-.917.594-1.21.403-.293.964-.44 1.683-.44.403 0 .759.04 1.067.121.315.08.557.169.726.264v.869a2.593 2.593 0 0 0-.715-.308c-.279-.088-.627-.132-1.045-.132-.433 0-.766.059-1.001.176-.227.117-.341.33-.341.638 0 .154.033.279.099.374a.785.785 0 0 0 .264.22c.117.051.249.092.396.121.147.03.301.062.462.099.249.051.506.106.77.165.264.059.499.15.704.275.213.125.385.293.517.506.139.205.209.484.209.836 0 .33-.066.605-.198.825-.132.22-.308.396-.528.528a2.25 2.25 0 0 1-.737.264 3.94 3.94 0 0 1-.836.088Zm5.834 0c-.388 0-.751-.066-1.089-.198a2.546 2.546 0 0 1-.88-.572 2.798 2.798 0 0 1-.572-.935 3.554 3.554 0 0 1-.209-1.265c0-.47.07-.887.209-1.254.14-.374.33-.686.572-.935.25-.25.543-.44.88-.572a2.967 2.967 0 0 1 1.089-.198c.396 0 .763.066 1.1.198.338.132.627.323.869.572.25.25.444.561.583.935.147.367.22.785.22 1.254 0 .477-.073.898-.22 1.265a2.683 2.683 0 0 1-.583.935c-.242.25-.531.44-.869.572a2.991 2.991 0 0 1-1.1.198Zm0-.869c.257 0 .492-.04.704-.121.22-.088.411-.216.572-.385.162-.176.286-.396.374-.66.088-.264.132-.576.132-.935 0-.36-.044-.671-.132-.935a1.692 1.692 0 0 0-.374-.649 1.436 1.436 0 0 0-.572-.385 1.82 1.82 0 0 0-.704-.132c-.256 0-.491.044-.704.132-.212.08-.399.209-.561.385a1.785 1.785 0 0 0-.363.649 2.965 2.965 0 0 0-.132.935c0 .36.044.671.132.935.088.264.209.484.363.66.162.169.349.297.561.385.213.08.448.121.704.121Zm7.615-.264a2.045 2.045 0 0 1-.715.814c-.315.213-.729.319-1.243.319-.528 0-.957-.147-1.287-.44-.322-.3-.484-.763-.484-1.386v-3.993h.979v3.993c0 .19.026.348.077.473a.82.82 0 0 0 .561.44c.132.03.275.044.429.044.426 0 .767-.095 1.023-.286.257-.19.477-.451.66-.781v-3.883h.968V25h-.858l-.088-1.023h-.022Zm5.384-3.718a2.968 2.968 0 0 0-1.122.319c-.33.169-.576.433-.737.792V25h-.968v-5.709h.847l.099 1.243h.022c.161-.337.392-.63.693-.88.308-.257.697-.414 1.166-.473v1.078Zm3.483 4.851c-.44 0-.84-.066-1.199-.198a2.62 2.62 0 0 1-.902-.583 2.562 2.562 0 0 1-.572-.935 3.69 3.69 0 0 1-.198-1.254c0-.462.066-.876.198-1.243a2.57 2.57 0 0 1 .583-.924c.249-.257.553-.451.913-.583.359-.14.766-.209 1.221-.209.352 0 .674.04.968.121.293.073.535.183.726.33v.869a2.57 2.57 0 0 0-.792-.341 3.265 3.265 0 0 0-.891-.121c-.668 0-1.159.172-1.474.517-.308.345-.462.873-.462 1.584 0 .711.15 1.24.451 1.584.3.345.777.517 1.43.517.344 0 .66-.04.946-.121.293-.088.557-.198.792-.33v.869a3.371 3.371 0 0 1-1.738.451Zm7.461-.594a3.143 3.143 0 0 1-.726.385c-.169.059-.36.106-.572.143a3.544 3.544 0 0 1-.715.066c-.961 0-1.691-.26-2.189-.781-.499-.52-.748-1.25-.748-2.189 0-.462.066-.876.198-1.243a2.66 2.66 0 0 1 .572-.924 2.38 2.38 0 0 1 .858-.583c.33-.14.689-.209 1.078-.209.41 0 .777.07 1.1.209.322.14.586.345.792.616.212.271.355.609.429 1.012.08.396.08.858 0 1.386h-4.026c.036.616.22 1.078.55 1.386.33.3.821.451 1.474.451.44 0 .817-.062 1.133-.187.315-.125.579-.26.792-.407v.869Zm-2.266-4.477c-.418 0-.778.128-1.078.385-.301.257-.492.645-.572 1.166h3.069c.029-.528-.092-.917-.363-1.166-.272-.257-.624-.385-1.056-.385Zm3.424 1.166h2.64v.88h-2.64v-.88ZM340.072 25h-.968v-5.709h.847l.099 1.023h.022c.154-.323.385-.59.693-.803.308-.22.711-.33 1.21-.33.44 0 .799.106 1.078.319.286.205.476.517.572.935.161-.389.407-.693.737-.913.337-.227.744-.341 1.221-.341.528 0 .946.15 1.254.451.308.293.462.748.462 1.364V25h-.979v-3.883c0-.374-.092-.645-.275-.814-.184-.176-.433-.264-.748-.264-.213 0-.4.033-.561.099a1.314 1.314 0 0 0-.429.253 2.13 2.13 0 0 0-.341.385c-.103.147-.198.3-.286.462V25h-.968v-3.993c0-.367-.092-.62-.275-.759-.184-.14-.433-.209-.748-.209-.206 0-.389.026-.55.077a1.538 1.538 0 0 0-.44.22 1.706 1.706 0 0 0-.341.352 3.22 3.22 0 0 0-.286.44V25Zm12.086-1.089c-.066.132-.15.271-.253.418a1.897 1.897 0 0 1-.935.671c-.205.073-.447.11-.726.11-.513 0-.927-.143-1.243-.429-.315-.293-.473-.711-.473-1.254 0-.623.217-1.082.649-1.375.44-.293 1.064-.44 1.87-.44h1.067v-.473c0-.396-.102-.678-.308-.847-.205-.169-.557-.253-1.056-.253a2.85 2.85 0 0 0-1.001.176 4.79 4.79 0 0 0-.847.385v-.869a4.31 4.31 0 0 1 .825-.363 3.437 3.437 0 0 1 1.155-.187c.719 0 1.265.15 1.639.451.374.293.561.752.561 1.375v3.3c.008.08.011.165.011.253l.022.253.022.187h-.88a5.03 5.03 0 0 1-.066-.429 6.951 6.951 0 0 1-.022-.495l-.011-.165Zm-1.705.33c.301 0 .558-.062.77-.187.213-.125.385-.268.517-.429.132-.169.228-.33.286-.484.059-.161.088-.275.088-.341v-.418h-.968c-.579 0-1.001.084-1.265.253-.256.161-.385.407-.385.737a.87.87 0 0 0 .231.627c.154.161.396.242.726.242Zm6.858-4.202c-.44 0-.8.103-1.078.308a2.236 2.236 0 0 0-.66.77V25h-.968v-5.709h.913l.033 1.023h.022c.154-.33.396-.601.726-.814.33-.213.748-.319 1.254-.319.564 0 1.012.15 1.342.451.337.293.506.748.506 1.364V25h-.968v-3.905c0-.396-.099-.671-.297-.825-.198-.154-.473-.231-.825-.231Zm6.965 3.872a3.429 3.429 0 0 1-.253.418 1.923 1.923 0 0 1-.935.671c-.206.073-.448.11-.726.11-.514 0-.928-.143-1.243-.429-.316-.293-.473-.711-.473-1.254 0-.623.216-1.082.649-1.375.44-.293 1.063-.44 1.87-.44h1.067v-.473c0-.396-.103-.678-.308-.847-.206-.169-.558-.253-1.056-.253-.352 0-.686.059-1.001.176-.316.11-.598.238-.847.385v-.869c.205-.125.48-.246.825-.363a3.437 3.437 0 0 1 1.155-.187c.718 0 1.265.15 1.639.451.374.293.561.752.561 1.375v3.3c.007.08.011.165.011.253l.022.253c.007.073.014.136.022.187h-.88a5.03 5.03 0 0 1-.066-.429 6.405 6.405 0 0 1-.022-.495l-.011-.165Zm-1.705.33c.3 0 .557-.062.77-.187a1.91 1.91 0 0 0 .517-.429c.132-.169.227-.33.286-.484.058-.161.088-.275.088-.341v-.418h-.968c-.58 0-1.001.084-1.265.253-.257.161-.385.407-.385.737a.87.87 0 0 0 .231.627c.154.161.396.242.726.242Zm9.057.275c0 .367-.055.7-.165 1.001a1.815 1.815 0 0 1-.506.781 2.324 2.324 0 0 1-.891.495c-.36.117-.796.176-1.309.176-.279 0-.525-.015-.737-.044-.213-.03-.4-.07-.561-.121a2.027 2.027 0 0 1-.396-.154 1.824 1.824 0 0 1-.275-.154v-.869c.117.066.238.125.363.176a3.258 3.258 0 0 0 .946.253c.198.03.421.044.671.044.704 0 1.195-.132 1.474-.396.278-.264.418-.656.418-1.177v-.88a2.079 2.079 0 0 1-.715.814c-.301.205-.675.308-1.122.308-.338 0-.66-.059-.968-.176a2.385 2.385 0 0 1-.803-.517 2.653 2.653 0 0 1-.55-.869 3.466 3.466 0 0 1-.198-1.221c0-.47.066-.876.198-1.221a2.63 2.63 0 0 1 .55-.88c.234-.235.506-.41.814-.528.308-.117.634-.176.979-.176.454 0 .836.103 1.144.308.315.205.561.484.737.836l.011-.121c0-.132.007-.29.022-.473.014-.19.029-.337.044-.44h.88c-.015.103-.03.25-.044.44-.008.19-.011.348-.011.473v4.312Zm-2.629-.616c.242 0 .462-.037.66-.11.205-.08.381-.202.528-.363.154-.161.271-.36.352-.594.088-.242.132-.524.132-.847 0-.653-.162-1.14-.484-1.463-.316-.323-.715-.484-1.199-.484-.242 0-.47.04-.682.121-.206.08-.385.202-.539.363a1.782 1.782 0 0 0-.352.616 2.475 2.475 0 0 0-.132.847c0 .323.044.605.132.847.088.235.209.433.363.594.154.154.333.271.539.352.212.08.44.121.682.121Zm8.743.616c-.08.059-.179.121-.297.187a3.4 3.4 0 0 1-.429.198 3.59 3.59 0 0 1-.572.143 3.537 3.537 0 0 1-.715.066c-.96 0-1.69-.26-2.189-.781-.498-.52-.748-1.25-.748-2.189 0-.462.066-.876.198-1.243.14-.367.33-.675.572-.924a2.38 2.38 0 0 1 .858-.583c.33-.14.69-.209 1.078-.209.411 0 .778.07 1.1.209.323.14.587.345.792.616.213.271.356.609.429 1.012.081.396.081.858 0 1.386h-4.026c.037.616.22 1.078.55 1.386.33.3.822.451 1.474.451.44 0 .818-.062 1.133-.187.316-.125.58-.26.792-.407v.869Zm-2.266-4.477c-.418 0-.777.128-1.078.385-.3.257-.491.645-.572 1.166h3.069c.03-.528-.091-.917-.363-1.166-.271-.257-.623-.385-1.056-.385Zm6.383.22c-.41.037-.784.143-1.122.319a1.59 1.59 0 0 0-.737.792V25h-.968v-5.709h.847l.099 1.243H380c.162-.337.393-.63.693-.88.308-.257.697-.414 1.166-.473v1.078Zm1.053 4.807a.699.699 0 0 1-.517-.198.695.695 0 0 1-.198-.495c0-.205.066-.374.198-.506a.699.699 0 0 1 .517-.198c.205 0 .374.066.506.198s.198.3.198.506c0 .19-.066.356-.198.495a.686.686 0 0 1-.506.198ZM308.347 38.11c-.44 0-.839-.066-1.199-.198a2.63 2.63 0 0 1-.902-.583 2.576 2.576 0 0 1-.572-.935 3.69 3.69 0 0 1-.198-1.254c0-.462.066-.876.198-1.243.14-.367.334-.675.583-.924.25-.257.554-.451.913-.583.36-.14.767-.209 1.221-.209.352 0 .675.04.968.121.294.073.536.183.726.33v.869a2.55 2.55 0 0 0-.792-.341 3.265 3.265 0 0 0-.891-.121c-.667 0-1.158.172-1.474.517-.308.345-.462.873-.462 1.584 0 .711.151 1.24.451 1.584.301.345.778.517 1.43.517.345 0 .66-.04.946-.121a3.86 3.86 0 0 0 .792-.33v.869a3.371 3.371 0 0 1-1.738.451Zm3.886-7.997V38h-.968v-7.887h.968Zm3.921 7.997a2.96 2.96 0 0 1-1.089-.198 2.537 2.537 0 0 1-.88-.572 2.782 2.782 0 0 1-.572-.935 3.554 3.554 0 0 1-.209-1.265c0-.47.07-.887.209-1.254.139-.374.33-.686.572-.935.249-.25.543-.44.88-.572a2.96 2.96 0 0 1 1.089-.198c.396 0 .763.066 1.1.198.337.132.627.323.869.572.249.25.444.561.583.935.147.367.22.785.22 1.254 0 .477-.073.898-.22 1.265a2.697 2.697 0 0 1-.583.935 2.43 2.43 0 0 1-.869.572 2.991 2.991 0 0 1-1.1.198Zm0-.869c.257 0 .491-.04.704-.121.22-.088.411-.216.572-.385.161-.176.286-.396.374-.66.088-.264.132-.576.132-.935 0-.36-.044-.671-.132-.935a1.705 1.705 0 0 0-.374-.649 1.436 1.436 0 0 0-.572-.385 1.824 1.824 0 0 0-.704-.132c-.257 0-.491.044-.704.132-.213.08-.4.209-.561.385a1.785 1.785 0 0 0-.363.649 2.965 2.965 0 0 0-.132.935c0 .36.044.671.132.935.088.264.209.484.363.66.161.169.348.297.561.385.213.08.447.121.704.121Zm7.615-.264a2.045 2.045 0 0 1-.715.814c-.315.213-.73.319-1.243.319-.528 0-.957-.147-1.287-.44-.323-.3-.484-.763-.484-1.386v-3.993h.979v3.993c0 .19.026.348.077.473a.82.82 0 0 0 .561.44c.132.03.275.044.429.044.425 0 .766-.095 1.023-.286.257-.19.477-.451.66-.781v-3.883h.968V38h-.858l-.088-1.023h-.022Zm6.649-.099a2.293 2.293 0 0 1-.737.902c-.316.22-.715.33-1.199.33-.345 0-.671-.059-.979-.176a2.347 2.347 0 0 1-.814-.55 2.748 2.748 0 0 1-.561-.924c-.14-.374-.209-.814-.209-1.32 0-.499.069-.931.209-1.298a2.61 2.61 0 0 1 .561-.924c.234-.25.506-.433.814-.55.315-.125.645-.187.99-.187.432 0 .806.092 1.122.275.315.176.568.429.759.759v-3.102h.968V38h-.847l-.077-1.122Zm-1.793.363c.249 0 .48-.04.693-.121.212-.088.396-.22.55-.396.161-.176.286-.396.374-.66.095-.264.143-.572.143-.924 0-.352-.048-.66-.143-.924a1.812 1.812 0 0 0-.374-.66 1.37 1.37 0 0 0-.55-.385 1.797 1.797 0 0 0-.693-.132c-.506 0-.921.18-1.243.539-.316.352-.473.873-.473 1.562 0 .697.161 1.221.484 1.573.322.352.733.528 1.232.528Zm6.122.869c-.3 0-.568-.026-.803-.077a3.78 3.78 0 0 1-.605-.165 3.384 3.384 0 0 1-.429-.22 2.942 2.942 0 0 1-.275-.209v-.869c.074.073.173.154.297.242.125.08.275.158.451.231.176.073.374.136.594.187.228.044.481.066.759.066.411 0 .737-.066.979-.198s.363-.356.363-.671a.638.638 0 0 0-.121-.407.732.732 0 0 0-.308-.242 1.898 1.898 0 0 0-.462-.154 21.914 21.914 0 0 0-.539-.11c-.242-.051-.48-.106-.715-.165a2.52 2.52 0 0 1-.638-.275 1.511 1.511 0 0 1-.462-.473c-.117-.198-.176-.455-.176-.77 0-.513.198-.917.594-1.21.404-.293.965-.44 1.683-.44.404 0 .759.04 1.067.121.316.08.558.169.726.264v.869a2.58 2.58 0 0 0-.715-.308c-.278-.088-.627-.132-1.045-.132-.432 0-.766.059-1.001.176-.227.117-.341.33-.341.638 0 .154.033.279.099.374a.785.785 0 0 0 .264.22c.118.051.25.092.396.121.147.03.301.062.462.099.25.051.506.106.77.165.264.059.499.15.704.275.213.125.385.293.517.506.14.205.209.484.209.836 0 .33-.066.605-.198.825-.132.22-.308.396-.528.528a2.242 2.242 0 0 1-.737.264 3.94 3.94 0 0 1-.836.088Zm4.02-.044a.699.699 0 0 1-.517-.198.695.695 0 0 1-.198-.495c0-.205.066-.374.198-.506a.699.699 0 0 1 .517-.198c.205 0 .374.066.506.198s.198.3.198.506c0 .19-.066.356-.198.495a.686.686 0 0 1-.506.198Zm4.232.044a2.96 2.96 0 0 1-1.089-.198 2.528 2.528 0 0 1-.88-.572 2.782 2.782 0 0 1-.572-.935 3.532 3.532 0 0 1-.209-1.265c0-.47.069-.887.209-1.254.139-.374.33-.686.572-.935.249-.25.542-.44.88-.572a2.96 2.96 0 0 1 1.089-.198c.396 0 .762.066 1.1.198.337.132.627.323.869.572.249.25.443.561.583.935.146.367.22.785.22 1.254a3.4 3.4 0 0 1-.22 1.265c-.14.367-.334.678-.583.935a2.43 2.43 0 0 1-.869.572 2.995 2.995 0 0 1-1.1.198Zm0-.869c.256 0 .491-.04.704-.121.22-.088.41-.216.572-.385.161-.176.286-.396.374-.66.088-.264.132-.576.132-.935 0-.36-.044-.671-.132-.935a1.705 1.705 0 0 0-.374-.649 1.443 1.443 0 0 0-.572-.385 1.828 1.828 0 0 0-.704-.132 1.82 1.82 0 0 0-.704.132c-.213.08-.4.209-.561.385a1.785 1.785 0 0 0-.363.649 2.965 2.965 0 0 0-.132.935c0 .36.044.671.132.935.088.264.209.484.363.66.161.169.348.297.561.385.212.08.447.121.704.121Zm10.113.759h-1.485l-1.21-4.411L349.174 38h-1.441l-1.298-5.709h1.023l1.089 4.983 1.386-4.983h1.089l1.353 4.928 1.078-4.928h.957L353.112 38Zm5.128-4.961c-.44 0-.8.103-1.078.308a2.236 2.236 0 0 0-.66.77V38h-.968v-5.709h.913l.033 1.023h.022c.154-.33.396-.601.726-.814.33-.213.748-.319 1.254-.319.564 0 1.012.15 1.342.451.337.293.506.748.506 1.364V38h-.968v-3.905c0-.396-.099-.671-.297-.825-.198-.154-.473-.231-.825-.231Zm8.164 4.477a3.143 3.143 0 0 1-.726.385 3.617 3.617 0 0 1-.572.143 3.544 3.544 0 0 1-.715.066c-.961 0-1.69-.26-2.189-.781-.499-.52-.748-1.25-.748-2.189 0-.462.066-.876.198-1.243a2.66 2.66 0 0 1 .572-.924 2.38 2.38 0 0 1 .858-.583c.33-.14.689-.209 1.078-.209.411 0 .777.07 1.1.209.323.14.587.345.792.616.213.271.356.609.429 1.012.081.396.081.858 0 1.386h-4.026c.037.616.22 1.078.55 1.386.33.3.821.451 1.474.451.44 0 .818-.062 1.133-.187.315-.125.579-.26.792-.407v.869Zm-2.266-4.477c-.418 0-.777.128-1.078.385-.301.257-.491.645-.572 1.166h3.069c.029-.528-.092-.917-.363-1.166-.271-.257-.623-.385-1.056-.385Zm6.383.22a2.968 2.968 0 0 0-1.122.319c-.33.169-.576.433-.737.792V38h-.968v-5.709h.847l.099 1.243h.022c.161-.337.392-.63.693-.88.308-.257.697-.414 1.166-.473v1.078Z"/><rect width="171" height="34" x="253" y="143" fill="#fff" stroke="#67B0F8" stroke-width="2" rx="4"/><path fill="#18123D" d="M328.683 163.516a3.083 3.083 0 0 1-.726.385c-.169.059-.36.106-.572.143a3.544 3.544 0 0 1-.715.066c-.961 0-1.691-.26-2.189-.781-.499-.521-.748-1.25-.748-2.189 0-.462.066-.876.198-1.243.139-.367.33-.675.572-.924.242-.257.528-.451.858-.583.33-.139.689-.209 1.078-.209.41 0 .777.07 1.1.209.322.139.586.345.792.616.212.271.355.609.429 1.012.08.396.08.858 0 1.386h-4.026c.036.616.22 1.078.55 1.386.33.301.821.451 1.474.451.44 0 .817-.062 1.133-.187.315-.125.579-.26.792-.407v.869Zm-2.266-4.477c-.418 0-.778.128-1.078.385-.301.257-.492.645-.572 1.166h3.069c.029-.528-.092-.917-.363-1.166-.272-.257-.624-.385-1.056-.385Zm7.648 3.839a2.291 2.291 0 0 1-.737.902c-.316.22-.715.33-1.199.33-.345 0-.671-.059-.979-.176a2.35 2.35 0 0 1-.814-.55 2.742 2.742 0 0 1-.561-.924c-.14-.374-.209-.814-.209-1.32 0-.499.069-.931.209-1.298a2.61 2.61 0 0 1 .561-.924c.234-.249.506-.433.814-.55a2.66 2.66 0 0 1 .99-.187c.432 0 .806.092 1.122.275.315.176.568.429.759.759v-3.102h.968V164h-.847l-.077-1.122Zm-1.793.363c.249 0 .48-.04.693-.121.212-.088.396-.22.55-.396.161-.176.286-.396.374-.66.095-.264.143-.572.143-.924 0-.352-.048-.66-.143-.924a1.812 1.812 0 0 0-.374-.66 1.373 1.373 0 0 0-.55-.385 1.797 1.797 0 0 0-.693-.132c-.506 0-.921.18-1.243.539-.316.352-.473.873-.473 1.562 0 .697.161 1.221.484 1.573.322.352.733.528 1.232.528Zm4.791-5.786a.642.642 0 0 1-.473-.176.636.636 0 0 1-.176-.451.618.618 0 0 1 .649-.638c.191 0 .341.062.451.187.11.125.165.275.165.451a.659.659 0 0 1-.165.451.589.589 0 0 1-.451.176Zm.473.836V164h-.968v-5.709h.968Zm4.372 5.588a1.755 1.755 0 0 1-.451.165 2.485 2.485 0 0 1-.583.066 1.89 1.89 0 0 1-.715-.121 1.393 1.393 0 0 1-.473-.319 1.367 1.367 0 0 1-.275-.462 1.93 1.93 0 0 1-.077-.539v-3.553h-.682v-.825h.682v-1.199h.968v1.199h1.661v.825h-1.661v3.432c0 .242.059.418.176.528.125.11.341.165.649.165.286 0 .547-.081.781-.242v.88Zm3.578.231a2.96 2.96 0 0 1-1.089-.198 2.532 2.532 0 0 1-.88-.572 2.782 2.782 0 0 1-.572-.935 3.532 3.532 0 0 1-.209-1.265 3.5 3.5 0 0 1 .209-1.254c.139-.374.33-.686.572-.935.249-.249.542-.44.88-.572a2.96 2.96 0 0 1 1.089-.198c.396 0 .762.066 1.1.198.337.132.627.323.869.572.249.249.443.561.583.935.146.367.22.785.22 1.254a3.4 3.4 0 0 1-.22 1.265c-.14.367-.334.678-.583.935-.242.249-.532.44-.869.572a2.995 2.995 0 0 1-1.1.198Zm0-.869c.256 0 .491-.04.704-.121.22-.088.41-.216.572-.385.161-.176.286-.396.374-.66.088-.264.132-.576.132-.935 0-.359-.044-.671-.132-.935a1.707 1.707 0 0 0-.374-.649 1.446 1.446 0 0 0-.572-.385 1.828 1.828 0 0 0-.704-.132 1.82 1.82 0 0 0-.704.132c-.213.081-.4.209-.561.385a1.788 1.788 0 0 0-.363.649 2.966 2.966 0 0 0-.132.935c0 .359.044.671.132.935.088.264.209.484.363.66.161.169.348.297.561.385.212.081.447.121.704.121Zm6.779-3.982a2.974 2.974 0 0 0-1.122.319c-.33.169-.576.433-.737.792V164h-.968v-5.709h.847l.099 1.243h.022c.161-.337.392-.631.693-.88.308-.257.696-.414 1.166-.473v1.078Z"/><rect width="171" height="34" x="254" y="77" fill="#fff" stroke="#67B0F8" stroke-width="2" rx="4"/><path fill="#18123D" d="M328.651 96.911c-.066.132-.15.271-.253.418a1.923 1.923 0 0 1-.935.671c-.205.073-.447.11-.726.11-.513 0-.928-.143-1.243-.429-.315-.293-.473-.711-.473-1.254 0-.623.216-1.082.649-1.375.44-.293 1.063-.44 1.87-.44h1.067v-.473c0-.396-.103-.678-.308-.847-.205-.169-.557-.253-1.056-.253-.352 0-.686.059-1.001.176-.315.11-.598.238-.847.385v-.869c.205-.125.48-.246.825-.363a3.437 3.437 0 0 1 1.155-.187c.719 0 1.265.15 1.639.451.374.293.561.752.561 1.375v3.3c.007.08.011.165.011.253l.022.253c.007.073.015.136.022.187h-.88a5.03 5.03 0 0 1-.066-.429 6.405 6.405 0 0 1-.022-.495l-.011-.165Zm-1.705.33c.301 0 .557-.062.77-.187.213-.125.385-.268.517-.429.132-.169.227-.33.286-.484.059-.161.088-.275.088-.341v-.418h-.968c-.579 0-1.001.084-1.265.253-.257.161-.385.407-.385.737a.87.87 0 0 0 .231.627c.154.161.396.242.726.242Zm8.243-.363a2.285 2.285 0 0 1-.737.902c-.315.22-.715.33-1.199.33a2.73 2.73 0 0 1-.979-.176 2.356 2.356 0 0 1-.814-.55 2.78 2.78 0 0 1-.561-.924c-.139-.374-.209-.814-.209-1.32 0-.499.07-.931.209-1.298a2.64 2.64 0 0 1 .561-.924 2.17 2.17 0 0 1 .814-.55c.316-.125.646-.187.99-.187.433 0 .807.092 1.122.275.316.176.569.429.759.759v-3.102h.968V98h-.847l-.077-1.122Zm-1.793.363c.25 0 .481-.04.693-.121.213-.088.396-.22.55-.396.162-.176.286-.396.374-.66.096-.264.143-.572.143-.924 0-.352-.047-.66-.143-.924a1.797 1.797 0 0 0-.374-.66 1.363 1.363 0 0 0-.55-.385 1.79 1.79 0 0 0-.693-.132c-.506 0-.92.18-1.243.539-.315.352-.473.873-.473 1.562 0 .697.162 1.221.484 1.573.323.352.734.528 1.232.528Zm5.265.759h-.968v-5.709h.847l.099 1.023h.022c.154-.323.385-.59.693-.803.308-.22.711-.33 1.21-.33.44 0 .799.106 1.078.319.286.205.477.517.572.935.161-.389.407-.693.737-.913.337-.227.744-.341 1.221-.341.528 0 .946.15 1.254.451.308.293.462.748.462 1.364V98h-.979v-3.883c0-.374-.092-.645-.275-.814-.183-.176-.433-.264-.748-.264-.213 0-.4.033-.561.099a1.335 1.335 0 0 0-.429.253c-.125.11-.238.238-.341.385-.103.147-.198.3-.286.462V98h-.968v-3.993c0-.367-.092-.62-.275-.759-.183-.14-.433-.209-.748-.209-.205 0-.389.026-.55.077a1.551 1.551 0 0 0-.44.22 1.733 1.733 0 0 0-.341.352 3.22 3.22 0 0 0-.286.44V98Zm9.238-6.545a.639.639 0 0 1-.473-.176.632.632 0 0 1-.176-.451.618.618 0 0 1 .649-.638c.19 0 .341.062.451.187.11.125.165.275.165.451a.658.658 0 0 1-.165.451.59.59 0 0 1-.451.176Zm.473.836V98h-.968v-5.709h.968Zm4.284.748c-.44 0-.8.103-1.078.308a2.236 2.236 0 0 0-.66.77V98h-.968v-5.709h.913l.033 1.023h.022c.154-.33.396-.601.726-.814.33-.213.748-.319 1.254-.319.564 0 1.012.15 1.342.451.337.293.506.748.506 1.364V98h-.968v-3.905c0-.396-.099-.671-.297-.825-.198-.154-.473-.231-.825-.231Z"/><path stroke="#4E496B" stroke-width="2" d="M130 76v-6.005A4.996 4.996 0 0 1 135 65h159"/><path stroke="#4E496B" stroke-width="2" d="M339 56v4.004A4.997 4.997 0 0 1 334 65H159M130 143v-6.005a4.996 4.996 0 0 1 5-4.995h159"/><path stroke="#4E496B" stroke-width="2" d="M338 123v4.004a4.997 4.997 0 0 1-5 4.996H159M130 208v-6.005a4.996 4.996 0 0 1 5-4.995h159"/><path stroke="#4E496B" stroke-width="2" d="M340 190v2.001a4.999 4.999 0 0 1-5 4.999H159M130 274v-6.005a4.996 4.996 0 0 1 5-4.995h159"/><path stroke="#4E496B" stroke-width="2" d="M340 256v2.001a4.999 4.999 0 0 1-5 4.999H159"/><rect width="171" height="34" x="254" y="209" fill="#fff" stroke="#67B0F8" stroke-width="2" rx="4"/><path fill="#18123D" d="M327.382 230h-1.562l-1.958-5.709h1.045l1.738 5.192 1.727-5.192h.968L327.382 230Zm3.351-6.545a.64.64 0 0 1-.473-.176.632.632 0 0 1-.176-.451c0-.176.058-.326.176-.451a.617.617 0 0 1 .473-.187.57.57 0 0 1 .451.187c.11.125.165.275.165.451a.659.659 0 0 1-.165.451.59.59 0 0 1-.451.176Zm.473.836V230h-.968v-5.709h.968Zm6.121 5.225a3.083 3.083 0 0 1-.726.385c-.169.059-.36.106-.572.143a3.544 3.544 0 0 1-.715.066c-.961 0-1.691-.26-2.189-.781-.499-.521-.748-1.25-.748-2.189 0-.462.066-.876.198-1.243.139-.367.33-.675.572-.924.242-.257.528-.451.858-.583.33-.139.689-.209 1.078-.209.41 0 .777.07 1.1.209.322.139.586.345.792.616.212.271.355.609.429 1.012.08.396.08.858 0 1.386h-4.026c.036.616.22 1.078.55 1.386.33.301.821.451 1.474.451.44 0 .817-.062 1.133-.187.315-.125.579-.26.792-.407v.869Zm-2.266-4.477c-.418 0-.778.128-1.078.385-.301.257-.492.645-.572 1.166h3.069c.029-.528-.092-.917-.363-1.166-.272-.257-.624-.385-1.056-.385Zm9.771 4.961h-1.485l-1.21-4.411-1.243 4.411h-1.441l-1.298-5.709h1.023l1.089 4.983 1.386-4.983h1.089l1.353 4.928 1.078-4.928h.957L344.832 230Zm6.911-.484a3.083 3.083 0 0 1-.726.385c-.169.059-.36.106-.572.143a3.544 3.544 0 0 1-.715.066c-.961 0-1.691-.26-2.189-.781-.499-.521-.748-1.25-.748-2.189 0-.462.066-.876.198-1.243.139-.367.33-.675.572-.924.242-.257.528-.451.858-.583.33-.139.689-.209 1.078-.209.41 0 .777.07 1.1.209.322.139.586.345.792.616.212.271.355.609.429 1.012.08.396.08.858 0 1.386h-4.026c.036.616.22 1.078.55 1.386.33.301.821.451 1.474.451.44 0 .817-.062 1.133-.187.315-.125.579-.26.792-.407v.869Zm-2.266-4.477c-.418 0-.778.128-1.078.385-.301.257-.492.645-.572 1.166h3.069c.029-.528-.092-.917-.363-1.166-.272-.257-.624-.385-1.056-.385Zm6.383.22a2.974 2.974 0 0 0-1.122.319c-.33.169-.576.433-.737.792V230h-.968v-5.709h.847l.099 1.243h.022c.161-.337.392-.631.693-.88.308-.257.696-.414 1.166-.473v1.078Z"/><rect width="171" height="34" x="44" y="143" fill="#fff" stroke="#67B0F8" stroke-width="2" rx="4"/><path fill="#18123D" d="M77.989 150.455a.64.64 0 0 1-.473-.176.635.635 0 0 1-.176-.451.617.617 0 0 1 .649-.638.57.57 0 0 1 .45.187c.11.125.166.275.166.451a.659.659 0 0 1-.165.451.59.59 0 0 1-.451.176Zm.473.836V157h-.968v-5.709h.968Zm4.922 4.62c-.066.132-.15.271-.253.418a1.915 1.915 0 0 1-.935.671c-.206.073-.448.11-.726.11-.514 0-.928-.143-1.243-.429-.316-.293-.473-.711-.473-1.254 0-.623.216-1.082.649-1.375.44-.293 1.063-.44 1.87-.44h1.067v-.473c0-.396-.103-.678-.308-.847-.206-.169-.558-.253-1.056-.253-.352 0-.686.059-1.001.176-.316.11-.598.238-.847.385v-.869c.205-.125.48-.246.825-.363a3.43 3.43 0 0 1 1.155-.187c.718 0 1.265.15 1.639.451.374.293.56.752.56 1.375v3.3c.008.081.012.165.012.253l.022.253c.007.073.014.136.022.187h-.88a5.068 5.068 0 0 1-.066-.429 6.573 6.573 0 0 1-.022-.495l-.011-.165Zm-1.705.33c.3 0 .557-.062.77-.187.212-.125.385-.268.517-.429.132-.169.227-.33.286-.484.058-.161.088-.275.088-.341v-.418h-.968c-.58 0-1.001.084-1.265.253-.257.161-.385.407-.385.737a.87.87 0 0 0 .23.627c.155.161.397.242.727.242Zm5.119.759h-.968v-5.709h.847l.099 1.023h.022c.154-.323.385-.59.693-.803.308-.22.71-.33 1.21-.33.44 0 .799.106 1.078.319.286.205.476.517.572.935.16-.389.407-.693.737-.913.337-.227.744-.341 1.22-.341.529 0 .947.15 1.255.451.308.293.462.748.462 1.364V157h-.98v-3.883c0-.374-.091-.645-.274-.814-.184-.176-.433-.264-.748-.264-.213 0-.4.033-.561.099a1.334 1.334 0 0 0-.43.253c-.124.11-.238.238-.34.385a4.957 4.957 0 0 0-.286.462V157h-.968v-3.993c0-.367-.092-.62-.275-.759-.184-.139-.433-.209-.748-.209-.206 0-.39.026-.55.077a1.547 1.547 0 0 0-.44.22 1.733 1.733 0 0 0-.341.352 3.267 3.267 0 0 0-.286.44V157Zm9.27.066a.7.7 0 0 1-.516-.198.694.694 0 0 1-.199-.495c0-.205.067-.374.199-.506a.7.7 0 0 1 .516-.198c.206 0 .374.066.507.198a.686.686 0 0 1 .197.506.694.694 0 0 1-.198.495.685.685 0 0 1-.505.198Zm3.93.044c-.3 0-.568-.026-.803-.077a3.768 3.768 0 0 1-.605-.165 3.291 3.291 0 0 1-.429-.22 2.89 2.89 0 0 1-.275-.209v-.869c.074.073.173.154.297.242.125.081.275.158.451.231.176.073.374.136.594.187.228.044.48.066.76.066.41 0 .736-.066.978-.198s.363-.356.363-.671a.638.638 0 0 0-.121-.407.732.732 0 0 0-.308-.242 1.911 1.911 0 0 0-.462-.154 22.254 22.254 0 0 0-.539-.11c-.242-.051-.48-.106-.715-.165a2.513 2.513 0 0 1-.638-.275 1.496 1.496 0 0 1-.462-.473c-.117-.198-.176-.455-.176-.77 0-.513.198-.917.594-1.21.404-.293.965-.44 1.683-.44.404 0 .759.04 1.067.121.316.081.558.169.726.264v.869a2.58 2.58 0 0 0-.715-.308c-.278-.088-.627-.132-1.045-.132-.432 0-.766.059-1 .176-.228.117-.342.33-.342.638 0 .154.033.279.1.374a.789.789 0 0 0 .263.22c.118.051.25.092.396.121.147.029.301.062.462.099.25.051.506.106.77.165.264.059.499.15.704.275.213.125.385.293.517.506.14.205.209.484.209.836 0 .33-.066.605-.198.825-.132.22-.308.396-.528.528a2.229 2.229 0 0 1-.737.264 3.92 3.92 0 0 1-.836.088Zm8.035-.594a3.083 3.083 0 0 1-.726.385c-.169.059-.36.106-.572.143a3.544 3.544 0 0 1-.715.066c-.961 0-1.691-.26-2.189-.781-.499-.521-.748-1.25-.748-2.189 0-.462.066-.876.198-1.243.139-.367.33-.675.572-.924.242-.257.528-.451.858-.583.33-.139.689-.209 1.078-.209.41 0 .777.07 1.1.209.322.139.586.345.792.616.212.271.355.609.429 1.012.08.396.08.858 0 1.386h-4.026c.036.616.22 1.078.55 1.386.33.301.821.451 1.474.451.44 0 .817-.062 1.133-.187.315-.125.579-.26.792-.407v.869Zm-2.266-4.477c-.418 0-.778.128-1.078.385-.301.257-.492.645-.572 1.166h3.069c.029-.528-.092-.917-.363-1.166-.272-.257-.624-.385-1.056-.385Zm6.383.22a2.974 2.974 0 0 0-1.122.319c-.33.169-.576.433-.737.792V157h-.968v-5.709h.847l.099 1.243h.022c.161-.337.392-.631.693-.88.308-.257.696-.414 1.166-.473v1.078Zm4.179 4.741h-1.562l-1.958-5.709h1.045l1.738 5.192 1.727-5.192h.968L116.329 157Zm3.35-6.545a.64.64 0 0 1-.473-.176.636.636 0 0 1-.176-.451c0-.176.059-.326.176-.451a.617.617 0 0 1 .473-.187c.191 0 .341.062.451.187.11.125.165.275.165.451a.659.659 0 0 1-.165.451.589.589 0 0 1-.451.176Zm.473.836V157h-.968v-5.709h.968Zm4.042 5.819c-.44 0-.84-.066-1.199-.198a2.62 2.62 0 0 1-.902-.583 2.576 2.576 0 0 1-.572-.935 3.692 3.692 0 0 1-.198-1.254c0-.462.066-.876.198-1.243.139-.367.334-.675.583-.924.249-.257.554-.451.913-.583a3.361 3.361 0 0 1 1.221-.209c.352 0 .675.04.968.121.293.073.535.183.726.33v.869a2.564 2.564 0 0 0-.792-.341 3.254 3.254 0 0 0-.891-.121c-.667 0-1.159.172-1.474.517-.308.345-.462.873-.462 1.584 0 .711.15 1.239.451 1.584.301.345.777.517 1.43.517.345 0 .66-.04.946-.121.293-.088.557-.198.792-.33v.869a3.371 3.371 0 0 1-1.738.451Zm7.461-.594a3.083 3.083 0 0 1-.726.385c-.169.059-.36.106-.572.143a3.544 3.544 0 0 1-.715.066c-.961 0-1.691-.26-2.189-.781-.499-.521-.748-1.25-.748-2.189 0-.462.066-.876.198-1.243.139-.367.33-.675.572-.924.242-.257.528-.451.858-.583.33-.139.689-.209 1.078-.209.41 0 .777.07 1.1.209.322.139.586.345.792.616.212.271.355.609.429 1.012.08.396.08.858 0 1.386h-4.026c.036.616.22 1.078.55 1.386.33.301.821.451 1.474.451.44 0 .817-.062 1.133-.187.315-.125.579-.26.792-.407v.869Zm-2.266-4.477c-.418 0-.778.128-1.078.385-.301.257-.492.645-.572 1.166h3.069c.029-.528-.092-.917-.363-1.166-.272-.257-.624-.385-1.056-.385Zm5.789-2.926h1.54l2.827 7.887h-1.1l-.814-2.255h-3.487l-.803 2.255h-.968l2.805-7.887Zm2.123 4.697-1.408-3.927-1.408 3.927h2.816Zm5.617 3.3c-.44 0-.84-.066-1.199-.198a2.62 2.62 0 0 1-.902-.583 2.562 2.562 0 0 1-.572-.935 3.692 3.692 0 0 1-.198-1.254c0-.462.066-.876.198-1.243.139-.367.333-.675.583-.924a2.4 2.4 0 0 1 .913-.583 3.361 3.361 0 0 1 1.221-.209c.352 0 .674.04.968.121.293.073.535.183.726.33v.869a2.564 2.564 0 0 0-.792-.341 3.254 3.254 0 0 0-.891-.121c-.668 0-1.159.172-1.474.517-.308.345-.462.873-.462 1.584 0 .711.15 1.239.451 1.584.3.345.777.517 1.43.517.344 0 .66-.04.946-.121.293-.088.557-.198.792-.33v.869a3.371 3.371 0 0 1-1.738.451Zm5.381 0c-.44 0-.839-.066-1.199-.198a2.63 2.63 0 0 1-.902-.583 2.576 2.576 0 0 1-.572-.935 3.692 3.692 0 0 1-.198-1.254c0-.462.066-.876.198-1.243.14-.367.334-.675.583-.924.25-.257.554-.451.913-.583.36-.139.767-.209 1.221-.209.352 0 .675.04.968.121.294.073.536.183.726.33v.869a2.543 2.543 0 0 0-.792-.341 3.254 3.254 0 0 0-.891-.121c-.667 0-1.158.172-1.474.517-.308.345-.462.873-.462 1.584 0 .711.151 1.239.451 1.584.301.345.778.517 1.43.517.345 0 .66-.04.946-.121a3.86 3.86 0 0 0 .792-.33v.869a3.371 3.371 0 0 1-1.738.451Zm5.261 0c-.388 0-.751-.066-1.089-.198a2.55 2.55 0 0 1-.88-.572 2.798 2.798 0 0 1-.572-.935 3.554 3.554 0 0 1-.209-1.265c0-.469.07-.887.209-1.254.14-.374.33-.686.572-.935.25-.249.543-.44.88-.572a2.967 2.967 0 0 1 1.089-.198c.396 0 .763.066 1.1.198.338.132.627.323.869.572.25.249.444.561.583.935.147.367.22.785.22 1.254 0 .477-.073.898-.22 1.265a2.683 2.683 0 0 1-.583.935c-.242.249-.531.44-.869.572a2.991 2.991 0 0 1-1.1.198Zm0-.869c.257 0 .492-.04.704-.121.22-.088.411-.216.572-.385.162-.176.286-.396.374-.66.088-.264.132-.576.132-.935 0-.359-.044-.671-.132-.935a1.694 1.694 0 0 0-.374-.649 1.439 1.439 0 0 0-.572-.385 1.82 1.82 0 0 0-.704-.132c-.256 0-.491.044-.704.132a1.467 1.467 0 0 0-.561.385 1.788 1.788 0 0 0-.363.649 2.966 2.966 0 0 0-.132.935c0 .359.044.671.132.935.088.264.209.484.363.66.162.169.349.297.561.385.213.081.448.121.704.121Zm7.615-.264a2.043 2.043 0 0 1-.715.814c-.315.213-.729.319-1.243.319-.528 0-.957-.147-1.287-.44-.322-.301-.484-.763-.484-1.386v-3.993h.979v3.993c0 .191.026.348.077.473a.82.82 0 0 0 .561.44c.132.029.275.044.429.044.426 0 .767-.095 1.023-.286.257-.191.477-.451.66-.781v-3.883h.968V157h-.858l-.088-1.023h-.022Zm5.263-3.938c-.44 0-.799.103-1.078.308a2.26 2.26 0 0 0-.66.77V157h-.968v-5.709h.913l.033 1.023h.022c.154-.33.396-.601.726-.814.33-.213.748-.319 1.254-.319.565 0 1.012.15 1.342.451.337.293.506.748.506 1.364V157h-.968v-3.905c0-.396-.099-.671-.297-.825-.198-.154-.473-.231-.825-.231Zm6.415 4.84a1.77 1.77 0 0 1-.451.165 2.491 2.491 0 0 1-.583.066c-.279 0-.517-.04-.715-.121a1.383 1.383 0 0 1-.473-.319 1.35 1.35 0 0 1-.275-.462 1.93 1.93 0 0 1-.077-.539v-3.553h-.682v-.825h.682v-1.199h.968v1.199h1.661v.825h-1.661v3.432c0 .242.059.418.176.528.125.11.341.165.649.165.286 0 .546-.081.781-.242v.88Zm3.114.231a3.8 3.8 0 0 1-.803-.077 3.78 3.78 0 0 1-.605-.165 3.253 3.253 0 0 1-.429-.22 2.942 2.942 0 0 1-.275-.209v-.869c.073.073.172.154.297.242.125.081.275.158.451.231.176.073.374.136.594.187.227.044.48.066.759.066.411 0 .737-.066.979-.198s.363-.356.363-.671a.638.638 0 0 0-.121-.407.732.732 0 0 0-.308-.242 1.911 1.911 0 0 0-.462-.154 22.911 22.911 0 0 0-.539-.11c-.242-.051-.48-.106-.715-.165a2.515 2.515 0 0 1-.638-.275 1.49 1.49 0 0 1-.462-.473c-.117-.198-.176-.455-.176-.77 0-.513.198-.917.594-1.21.403-.293.964-.44 1.683-.44.403 0 .759.04 1.067.121.315.081.557.169.726.264v.869a2.593 2.593 0 0 0-.715-.308c-.279-.088-.627-.132-1.045-.132-.433 0-.766.059-1.001.176-.227.117-.341.33-.341.638 0 .154.033.279.099.374a.789.789 0 0 0 .264.22c.117.051.249.092.396.121.147.029.301.062.462.099.249.051.506.106.77.165.264.059.499.15.704.275.213.125.385.293.517.506.139.205.209.484.209.836 0 .33-.066.605-.198.825-.132.22-.308.396-.528.528a2.237 2.237 0 0 1-.737.264 3.92 3.92 0 0 1-.836.088Zm4.02-.044a.699.699 0 0 1-.517-.198.694.694 0 0 1-.198-.495c0-.205.066-.374.198-.506a.699.699 0 0 1 .517-.198c.205 0 .374.066.506.198a.686.686 0 0 1 .198.506.694.694 0 0 1-.198.495.686.686 0 0 1-.506.198Zm-79.853 12.813a1.766 1.766 0 0 1-.451.165 2.492 2.492 0 0 1-.583.066c-.279 0-.517-.04-.715-.121a1.382 1.382 0 0 1-.473-.319 1.349 1.349 0 0 1-.275-.462 1.915 1.915 0 0 1-.077-.539v-3.553h-.682v-.825h.682v-1.199h.968v1.199h1.661v.825h-1.661v3.432c0 .242.058.418.176.528.125.11.34.165.649.165.286 0 .546-.081.781-.242v.88Zm3.577.231c-.388 0-.751-.066-1.089-.198a2.55 2.55 0 0 1-.88-.572 2.798 2.798 0 0 1-.572-.935 3.554 3.554 0 0 1-.209-1.265c0-.469.07-.887.209-1.254.14-.374.33-.686.572-.935.25-.249.543-.44.88-.572a2.967 2.967 0 0 1 1.089-.198c.396 0 .763.066 1.1.198.338.132.627.323.869.572.25.249.444.561.583.935.147.367.22.785.22 1.254 0 .477-.073.898-.22 1.265a2.683 2.683 0 0 1-.583.935c-.242.249-.531.44-.869.572a2.991 2.991 0 0 1-1.1.198Zm0-.869c.257 0 .492-.04.704-.121.22-.088.411-.216.572-.385.162-.176.286-.396.374-.66.088-.264.132-.576.132-.935 0-.359-.044-.671-.132-.935a1.694 1.694 0 0 0-.374-.649 1.439 1.439 0 0 0-.572-.385 1.82 1.82 0 0 0-.704-.132c-.256 0-.491.044-.704.132a1.467 1.467 0 0 0-.561.385 1.788 1.788 0 0 0-.363.649 2.966 2.966 0 0 0-.132.935c0 .359.044.671.132.935.088.264.209.484.363.66.162.169.349.297.561.385.213.081.448.121.704.121Zm5.426-1.672h-.506V170h-.968v-7.887h.968v4.631h.55l2.002-2.453h1.1l-2.343 2.816 2.387 2.893h-1.177l-2.013-2.431Zm8.311 1.947c-.08.059-.179.121-.297.187a3.4 3.4 0 0 1-.429.198 3.59 3.59 0 0 1-.572.143 3.537 3.537 0 0 1-.715.066c-.96 0-1.69-.26-2.189-.781-.498-.521-.748-1.25-.748-2.189 0-.462.066-.876.198-1.243.14-.367.33-.675.572-.924.242-.257.528-.451.858-.583.33-.139.69-.209 1.078-.209.411 0 .778.07 1.1.209.323.139.587.345.792.616.213.271.356.609.429 1.012.081.396.081.858 0 1.386h-4.026c.037.616.22 1.078.55 1.386.33.301.822.451 1.474.451.44 0 .818-.062 1.133-.187.316-.125.58-.26.792-.407v.869Zm-2.266-4.477c-.418 0-.777.128-1.078.385-.3.257-.491.645-.572 1.166h3.069c.03-.528-.091-.917-.363-1.166-.271-.257-.623-.385-1.056-.385Zm6.262 0c-.44 0-.799.103-1.078.308a2.26 2.26 0 0 0-.66.77V170h-.968v-5.709h.913l.033 1.023h.022c.154-.33.396-.601.726-.814.33-.213.748-.319 1.254-.319.565 0 1.012.15 1.342.451.338.293.506.748.506 1.364V170h-.968v-3.905c0-.396-.099-.671-.297-.825-.198-.154-.473-.231-.825-.231Zm7.174 5.071a4.423 4.423 0 0 1-1.595-.275 3.49 3.49 0 0 1-1.232-.792 3.637 3.637 0 0 1-.781-1.276 4.986 4.986 0 0 1-.275-1.705c0-.638.085-1.206.253-1.705.169-.499.418-.92.748-1.265.33-.352.734-.62 1.21-.803.484-.183 1.034-.275 1.65-.275.536 0 1.005.059 1.408.176.404.11.734.242.99.396v.99a3.645 3.645 0 0 0-1.144-.473 5.357 5.357 0 0 0-1.265-.154c-.931 0-1.62.26-2.068.781-.44.513-.66 1.291-.66 2.332 0 1.049.239 1.83.715 2.343.484.513 1.196.77 2.134.77a4.22 4.22 0 0 0 1.177-.165c.389-.11.759-.297 1.111-.561v.99c-.212.169-.524.323-.935.462-.403.139-.883.209-1.441.209Zm6.654-4.851c-.41.037-.784.143-1.122.319-.33.169-.575.433-.737.792V170h-.968v-5.709h.847l.099 1.243h.022c.162-.337.393-.631.693-.88.308-.257.697-.414 1.166-.473v1.078Zm5.562 4.257a3.083 3.083 0 0 1-.726.385 3.617 3.617 0 0 1-.572.143 3.544 3.544 0 0 1-.715.066c-.961 0-1.69-.26-2.189-.781-.499-.521-.748-1.25-.748-2.189 0-.462.066-.876.198-1.243.139-.367.33-.675.572-.924.242-.257.528-.451.858-.583.33-.139.689-.209 1.078-.209.411 0 .777.07 1.1.209.323.139.587.345.792.616.213.271.356.609.429 1.012.081.396.081.858 0 1.386h-4.026c.037.616.22 1.078.55 1.386.33.301.821.451 1.474.451.44 0 .818-.062 1.133-.187.315-.125.579-.26.792-.407v.869Zm-2.266-4.477c-.418 0-.777.128-1.078.385-.301.257-.491.645-.572 1.166h3.069c.029-.528-.092-.917-.363-1.166-.271-.257-.623-.385-1.056-.385Zm6.9 3.872c-.066.132-.15.271-.253.418a1.923 1.923 0 0 1-.935.671c-.205.073-.447.11-.726.11-.513 0-.928-.143-1.243-.429-.315-.293-.473-.711-.473-1.254 0-.623.216-1.082.649-1.375.44-.293 1.063-.44 1.87-.44h1.067v-.473c0-.396-.103-.678-.308-.847-.205-.169-.557-.253-1.056-.253-.352 0-.686.059-1.001.176-.315.11-.598.238-.847.385v-.869c.205-.125.48-.246.825-.363a3.43 3.43 0 0 1 1.155-.187c.719 0 1.265.15 1.639.451.374.293.561.752.561 1.375v3.3c.007.081.011.165.011.253l.022.253c.007.073.015.136.022.187h-.88a5.068 5.068 0 0 1-.066-.429 6.417 6.417 0 0 1-.022-.495l-.011-.165Zm-1.705.33c.301 0 .557-.062.77-.187.213-.125.385-.268.517-.429a1.91 1.91 0 0 0 .286-.484c.059-.161.088-.275.088-.341v-.418h-.968c-.579 0-1.001.084-1.265.253-.257.161-.385.407-.385.737a.87.87 0 0 0 .231.627c.154.161.396.242.726.242Zm6.945.638a1.77 1.77 0 0 1-.451.165 2.491 2.491 0 0 1-.583.066c-.279 0-.517-.04-.715-.121a1.383 1.383 0 0 1-.473-.319 1.35 1.35 0 0 1-.275-.462 1.93 1.93 0 0 1-.077-.539v-3.553h-.682v-.825h.682v-1.199h.968v1.199h1.661v.825h-1.661v3.432c0 .242.059.418.176.528.125.11.341.165.649.165.286 0 .546-.081.781-.242v.88Zm3.577.231c-.388 0-.751-.066-1.089-.198a2.55 2.55 0 0 1-.88-.572 2.798 2.798 0 0 1-.572-.935 3.554 3.554 0 0 1-.209-1.265c0-.469.07-.887.209-1.254.14-.374.33-.686.572-.935.25-.249.543-.44.88-.572a2.967 2.967 0 0 1 1.089-.198c.396 0 .763.066 1.1.198.338.132.627.323.869.572.25.249.444.561.583.935.147.367.22.785.22 1.254 0 .477-.073.898-.22 1.265a2.683 2.683 0 0 1-.583.935c-.242.249-.531.44-.869.572a2.991 2.991 0 0 1-1.1.198Zm0-.869c.257 0 .492-.04.704-.121.22-.088.411-.216.572-.385.162-.176.286-.396.374-.66.088-.264.132-.576.132-.935 0-.359-.044-.671-.132-.935a1.694 1.694 0 0 0-.374-.649 1.439 1.439 0 0 0-.572-.385 1.82 1.82 0 0 0-.704-.132c-.256 0-.491.044-.704.132a1.467 1.467 0 0 0-.561.385 1.788 1.788 0 0 0-.363.649 2.966 2.966 0 0 0-.132.935c0 .359.044.671.132.935.088.264.209.484.363.66.162.169.349.297.561.385.213.081.448.121.704.121Zm6.779-3.982c-.41.037-.784.143-1.122.319-.33.169-.575.433-.737.792V170h-.968v-5.709h.847l.099 1.243h.022c.162-.337.393-.631.693-.88.308-.257.697-.414 1.166-.473v1.078Z"/><rect width="171" height="34" x="45" y="77" fill="#fff" stroke="#67B0F8" stroke-width="2" rx="4"/><path fill="#18123D" d="M88.395 86.259c-.41.037-.784.143-1.122.319-.33.169-.575.433-.737.792V91h-.968v-5.709h.847l.1 1.243h.021c.162-.337.393-.63.693-.88.308-.257.697-.414 1.166-.473v1.078Zm5.562 4.257a3.067 3.067 0 0 1-.726.385 3.62 3.62 0 0 1-.572.143 3.542 3.542 0 0 1-.715.066c-.96 0-1.69-.26-2.189-.781-.499-.52-.748-1.25-.748-2.189 0-.462.066-.876.198-1.243.14-.367.33-.675.572-.924a2.38 2.38 0 0 1 .858-.583c.33-.14.69-.209 1.078-.209.41 0 .777.07 1.1.209.323.14.587.345.792.616.213.271.356.609.43 1.012.08.396.08.858 0 1.386h-4.027c.037.616.22 1.078.55 1.386.33.3.821.451 1.474.451.44 0 .818-.062 1.133-.187.315-.125.58-.26.792-.407v.869Zm-2.266-4.477c-.418 0-.777.128-1.078.385-.3.257-.491.645-.572 1.166h3.07c.028-.528-.093-.917-.364-1.166-.271-.257-.623-.385-1.056-.385Zm5.382 5.071c-.3 0-.568-.026-.803-.077a3.768 3.768 0 0 1-.605-.165 3.291 3.291 0 0 1-.429-.22 2.89 2.89 0 0 1-.275-.209v-.869c.073.073.172.154.297.242.125.08.275.158.451.231.176.073.374.136.594.187.227.044.48.066.76.066.41 0 .736-.066.978-.198s.363-.356.363-.671a.64.64 0 0 0-.12-.407.735.735 0 0 0-.309-.242 1.898 1.898 0 0 0-.462-.154 23.016 23.016 0 0 0-.539-.11c-.242-.051-.48-.106-.715-.165a2.503 2.503 0 0 1-.638-.275 1.496 1.496 0 0 1-.462-.473c-.117-.198-.176-.455-.176-.77 0-.513.198-.917.594-1.21.403-.293.964-.44 1.683-.44.403 0 .76.04 1.067.121.315.08.557.169.726.264v.869a2.59 2.59 0 0 0-.715-.308c-.279-.088-.627-.132-1.045-.132-.433 0-.766.059-1 .176-.228.117-.342.33-.342.638 0 .154.033.279.1.374a.785.785 0 0 0 .263.22c.117.051.25.092.396.121.147.03.3.062.462.099.25.051.506.106.77.165.264.059.499.15.704.275.213.125.385.293.517.506.14.205.21.484.21.836 0 .33-.067.605-.199.825-.132.22-.308.396-.528.528a2.251 2.251 0 0 1-.737.264c-.271.059-.55.088-.836.088Zm5.834 0c-.388 0-.751-.066-1.089-.198a2.546 2.546 0 0 1-.88-.572 2.798 2.798 0 0 1-.572-.935 3.554 3.554 0 0 1-.209-1.265c0-.47.07-.887.209-1.254.14-.374.33-.686.572-.935.25-.25.543-.44.88-.572a2.967 2.967 0 0 1 1.089-.198c.396 0 .763.066 1.1.198.338.132.627.323.869.572.25.25.444.561.583.935.147.367.22.785.22 1.254 0 .477-.073.898-.22 1.265a2.683 2.683 0 0 1-.583.935c-.242.25-.531.44-.869.572a2.991 2.991 0 0 1-1.1.198Zm0-.869c.257 0 .492-.04.704-.121.22-.088.411-.216.572-.385.162-.176.286-.396.374-.66.088-.264.132-.576.132-.935 0-.36-.044-.671-.132-.935a1.692 1.692 0 0 0-.374-.649 1.436 1.436 0 0 0-.572-.385 1.82 1.82 0 0 0-.704-.132c-.256 0-.491.044-.704.132-.212.08-.399.209-.561.385a1.785 1.785 0 0 0-.363.649 2.965 2.965 0 0 0-.132.935c0 .36.044.671.132.935.088.264.209.484.363.66.162.169.349.297.561.385.213.08.448.121.704.121Zm7.615-.264a2.045 2.045 0 0 1-.715.814c-.315.213-.729.319-1.243.319-.528 0-.957-.147-1.287-.44-.322-.3-.484-.763-.484-1.386v-3.993h.979v3.993c0 .19.026.348.077.473a.82.82 0 0 0 .561.44c.132.03.275.044.429.044.426 0 .767-.095 1.023-.286.257-.19.477-.451.66-.781v-3.883h.968V91h-.858l-.088-1.023h-.022Zm5.384-3.718a2.968 2.968 0 0 0-1.122.319c-.33.169-.576.433-.737.792V91h-.968v-5.709h.847l.099 1.243h.022c.161-.337.392-.63.693-.88.308-.257.697-.414 1.166-.473v1.078Zm3.483 4.851c-.44 0-.84-.066-1.199-.198a2.62 2.62 0 0 1-.902-.583 2.562 2.562 0 0 1-.572-.935 3.69 3.69 0 0 1-.198-1.254c0-.462.066-.876.198-1.243a2.57 2.57 0 0 1 .583-.924c.249-.257.553-.451.913-.583.359-.14.766-.209 1.221-.209.352 0 .674.04.968.121.293.073.535.183.726.33v.869a2.57 2.57 0 0 0-.792-.341 3.265 3.265 0 0 0-.891-.121c-.668 0-1.159.172-1.474.517-.308.345-.462.873-.462 1.584 0 .711.15 1.24.451 1.584.3.345.777.517 1.43.517.344 0 .66-.04.946-.121.293-.088.557-.198.792-.33v.869a3.371 3.371 0 0 1-1.738.451Zm7.461-.594a3.143 3.143 0 0 1-.726.385c-.169.059-.36.106-.572.143a3.544 3.544 0 0 1-.715.066c-.961 0-1.691-.26-2.189-.781-.499-.52-.748-1.25-.748-2.189 0-.462.066-.876.198-1.243a2.66 2.66 0 0 1 .572-.924 2.38 2.38 0 0 1 .858-.583c.33-.14.689-.209 1.078-.209.41 0 .777.07 1.1.209.322.14.586.345.792.616.212.271.355.609.429 1.012.08.396.08.858 0 1.386h-4.026c.036.616.22 1.078.55 1.386.33.3.821.451 1.474.451.44 0 .817-.062 1.133-.187.315-.125.579-.26.792-.407v.869Zm-2.266-4.477c-.418 0-.778.128-1.078.385-.301.257-.492.645-.572 1.166h3.069c.029-.528-.092-.917-.363-1.166-.272-.257-.624-.385-1.056-.385Zm3.424 1.166h2.64v.88h-2.64v-.88ZM133.072 91h-.968v-5.709h.847l.099 1.023h.022c.154-.323.385-.59.693-.803.308-.22.711-.33 1.21-.33.44 0 .799.106 1.078.319.286.205.476.517.572.935.161-.389.407-.693.737-.913.337-.227.744-.341 1.221-.341.528 0 .946.15 1.254.451.308.293.462.748.462 1.364V91h-.979v-3.883c0-.374-.092-.645-.275-.814-.184-.176-.433-.264-.748-.264-.213 0-.4.033-.561.099a1.314 1.314 0 0 0-.429.253 2.13 2.13 0 0 0-.341.385c-.103.147-.198.3-.286.462V91h-.968v-3.993c0-.367-.092-.62-.275-.759-.184-.14-.433-.209-.748-.209-.206 0-.389.026-.55.077a1.538 1.538 0 0 0-.44.22 1.706 1.706 0 0 0-.341.352 3.22 3.22 0 0 0-.286.44V91Zm12.086-1.089c-.066.132-.15.271-.253.418a1.897 1.897 0 0 1-.935.671c-.205.073-.447.11-.726.11-.513 0-.927-.143-1.243-.429-.315-.293-.473-.711-.473-1.254 0-.623.217-1.082.649-1.375.44-.293 1.064-.44 1.87-.44h1.067v-.473c0-.396-.102-.678-.308-.847-.205-.169-.557-.253-1.056-.253a2.85 2.85 0 0 0-1.001.176 4.79 4.79 0 0 0-.847.385v-.869a4.31 4.31 0 0 1 .825-.363 3.437 3.437 0 0 1 1.155-.187c.719 0 1.265.15 1.639.451.374.293.561.752.561 1.375v3.3c.008.08.011.165.011.253l.022.253.022.187h-.88a5.03 5.03 0 0 1-.066-.429 6.951 6.951 0 0 1-.022-.495l-.011-.165Zm-1.705.33c.301 0 .558-.062.77-.187.213-.125.385-.268.517-.429.132-.169.228-.33.286-.484.059-.161.088-.275.088-.341v-.418h-.968c-.579 0-1.001.084-1.265.253-.256.161-.385.407-.385.737a.87.87 0 0 0 .231.627c.154.161.396.242.726.242Zm6.858-4.202c-.44 0-.8.103-1.078.308a2.236 2.236 0 0 0-.66.77V91h-.968v-5.709h.913l.033 1.023h.022c.154-.33.396-.601.726-.814.33-.213.748-.319 1.254-.319.564 0 1.012.15 1.342.451.337.293.506.748.506 1.364V91h-.968v-3.905c0-.396-.099-.671-.297-.825-.198-.154-.473-.231-.825-.231Zm6.965 3.872a3.429 3.429 0 0 1-.253.418 1.923 1.923 0 0 1-.935.671c-.206.073-.448.11-.726.11-.514 0-.928-.143-1.243-.429-.316-.293-.473-.711-.473-1.254 0-.623.216-1.082.649-1.375.44-.293 1.063-.44 1.87-.44h1.067v-.473c0-.396-.103-.678-.308-.847-.206-.169-.558-.253-1.056-.253-.352 0-.686.059-1.001.176-.316.11-.598.238-.847.385v-.869c.205-.125.48-.246.825-.363a3.437 3.437 0 0 1 1.155-.187c.718 0 1.265.15 1.639.451.374.293.561.752.561 1.375v3.3c.007.08.011.165.011.253l.022.253c.007.073.014.136.022.187h-.88a5.03 5.03 0 0 1-.066-.429 6.405 6.405 0 0 1-.022-.495l-.011-.165Zm-1.705.33c.3 0 .557-.062.77-.187a1.91 1.91 0 0 0 .517-.429c.132-.169.227-.33.286-.484.058-.161.088-.275.088-.341v-.418h-.968c-.58 0-1.001.084-1.265.253-.257.161-.385.407-.385.737a.87.87 0 0 0 .231.627c.154.161.396.242.726.242Zm9.057.275c0 .367-.055.7-.165 1.001a1.815 1.815 0 0 1-.506.781 2.324 2.324 0 0 1-.891.495c-.36.117-.796.176-1.309.176-.279 0-.525-.015-.737-.044-.213-.03-.4-.07-.561-.121a2.027 2.027 0 0 1-.396-.154 1.824 1.824 0 0 1-.275-.154v-.869c.117.066.238.125.363.176a3.258 3.258 0 0 0 .946.253c.198.03.421.044.671.044.704 0 1.195-.132 1.474-.396.278-.264.418-.656.418-1.177v-.88a2.079 2.079 0 0 1-.715.814c-.301.205-.675.308-1.122.308-.338 0-.66-.059-.968-.176a2.385 2.385 0 0 1-.803-.517 2.653 2.653 0 0 1-.55-.869 3.466 3.466 0 0 1-.198-1.221c0-.47.066-.876.198-1.221a2.63 2.63 0 0 1 .55-.88c.234-.235.506-.41.814-.528.308-.117.634-.176.979-.176.454 0 .836.103 1.144.308.315.205.561.484.737.836l.011-.121c0-.132.007-.29.022-.473.014-.19.029-.337.044-.44h.88c-.015.103-.03.25-.044.44-.008.19-.011.348-.011.473v4.312Zm-2.629-.616c.242 0 .462-.037.66-.11.205-.08.381-.202.528-.363.154-.161.271-.36.352-.594.088-.242.132-.524.132-.847 0-.653-.162-1.14-.484-1.463-.316-.323-.715-.484-1.199-.484-.242 0-.47.04-.682.121-.206.08-.385.202-.539.363a1.782 1.782 0 0 0-.352.616 2.475 2.475 0 0 0-.132.847c0 .323.044.605.132.847.088.235.209.433.363.594.154.154.333.271.539.352.212.08.44.121.682.121Zm8.743.616c-.08.059-.179.121-.297.187a3.4 3.4 0 0 1-.429.198 3.59 3.59 0 0 1-.572.143 3.537 3.537 0 0 1-.715.066c-.96 0-1.69-.26-2.189-.781-.498-.52-.748-1.25-.748-2.189 0-.462.066-.876.198-1.243.14-.367.33-.675.572-.924a2.38 2.38 0 0 1 .858-.583c.33-.14.69-.209 1.078-.209.411 0 .778.07 1.1.209.323.14.587.345.792.616.213.271.356.609.429 1.012.081.396.081.858 0 1.386h-4.026c.037.616.22 1.078.55 1.386.33.3.822.451 1.474.451.44 0 .818-.062 1.133-.187.316-.125.58-.26.792-.407v.869Zm-2.266-4.477c-.418 0-.777.128-1.078.385-.3.257-.491.645-.572 1.166h3.069c.03-.528-.091-.917-.363-1.166-.271-.257-.623-.385-1.056-.385Zm6.383.22c-.41.037-.784.143-1.122.319a1.59 1.59 0 0 0-.737.792V91h-.968v-5.709h.847l.099 1.243H173c.162-.337.393-.63.693-.88.308-.257.697-.414 1.166-.473v1.078Zm1.053 4.807a.699.699 0 0 1-.517-.198.695.695 0 0 1-.198-.495c0-.205.066-.374.198-.506a.699.699 0 0 1 .517-.198c.205 0 .374.066.506.198s.198.3.198.506c0 .19-.066.356-.198.495a.686.686 0 0 1-.506.198ZM95.917 104.11c-.44 0-.84-.066-1.199-.198a2.624 2.624 0 0 1-.902-.583 2.572 2.572 0 0 1-.572-.935 3.692 3.692 0 0 1-.198-1.254c0-.462.066-.876.198-1.243.14-.367.334-.675.583-.924.25-.257.554-.451.913-.583.36-.14.767-.209 1.221-.209.352 0 .675.04.968.121.293.073.535.183.726.33v.869a2.563 2.563 0 0 0-.792-.341 3.265 3.265 0 0 0-.89-.121c-.668 0-1.16.172-1.475.517-.308.345-.462.873-.462 1.584 0 .711.15 1.239.451 1.584.3.345.778.517 1.43.517.345 0 .66-.04.946-.121.293-.088.558-.198.792-.33v.869a3.371 3.371 0 0 1-1.738.451Zm3.886-7.997V104h-.968v-7.887h.968Zm3.921 7.997a2.96 2.96 0 0 1-1.089-.198 2.541 2.541 0 0 1-.88-.572 2.782 2.782 0 0 1-.572-.935 3.554 3.554 0 0 1-.209-1.265c0-.469.07-.887.209-1.254.139-.374.33-.686.572-.935.249-.25.543-.44.88-.572a2.96 2.96 0 0 1 1.089-.198c.396 0 .763.066 1.1.198.337.132.627.323.869.572.249.25.444.561.583.935.147.367.22.785.22 1.254 0 .477-.073.898-.22 1.265a2.697 2.697 0 0 1-.583.935c-.242.249-.532.44-.869.572a2.991 2.991 0 0 1-1.1.198Zm0-.869c.257 0 .491-.04.704-.121.22-.088.411-.216.572-.385.161-.176.286-.396.374-.66.088-.264.132-.576.132-.935 0-.359-.044-.671-.132-.935a1.705 1.705 0 0 0-.374-.649 1.436 1.436 0 0 0-.572-.385 1.824 1.824 0 0 0-.704-.132c-.257 0-.491.044-.704.132-.213.08-.4.209-.561.385a1.785 1.785 0 0 0-.363.649 2.966 2.966 0 0 0-.132.935c0 .359.044.671.132.935.088.264.209.484.363.66.161.169.348.297.561.385.213.081.447.121.704.121Zm7.615-.264a2.05 2.05 0 0 1-.715.814c-.316.213-.73.319-1.243.319-.528 0-.957-.147-1.287-.44-.323-.301-.484-.763-.484-1.386v-3.993h.979v3.993c0 .191.025.348.077.473a.798.798 0 0 0 .231.286.85.85 0 0 0 .33.154c.132.029.275.044.429.044.425 0 .766-.095 1.023-.286.256-.191.476-.451.66-.781v-3.883h.968V104h-.858l-.088-1.023h-.022Zm6.649-.099a2.291 2.291 0 0 1-.737.902c-.316.22-.715.33-1.199.33-.345 0-.671-.059-.979-.176a2.35 2.35 0 0 1-.814-.55 2.742 2.742 0 0 1-.561-.924c-.14-.374-.209-.814-.209-1.32 0-.499.069-.931.209-1.298a2.61 2.61 0 0 1 .561-.924c.234-.25.506-.433.814-.55.315-.125.645-.187.99-.187.432 0 .806.092 1.122.275.315.176.568.429.759.759v-3.102h.968V104h-.847l-.077-1.122Zm-1.793.363c.249 0 .48-.04.693-.121.212-.088.396-.22.55-.396.161-.176.286-.396.374-.66.095-.264.143-.572.143-.924 0-.352-.048-.66-.143-.924a1.812 1.812 0 0 0-.374-.66 1.37 1.37 0 0 0-.55-.385 1.797 1.797 0 0 0-.693-.132c-.506 0-.921.18-1.243.539-.316.352-.473.873-.473 1.562 0 .697.161 1.221.484 1.573.322.352.733.528 1.232.528Zm6.122.869c-.3 0-.568-.026-.803-.077a3.78 3.78 0 0 1-.605-.165 3.384 3.384 0 0 1-.429-.22 2.942 2.942 0 0 1-.275-.209v-.869c.074.073.173.154.297.242.125.081.275.158.451.231.176.073.374.136.594.187.228.044.481.066.759.066.411 0 .737-.066.979-.198s.363-.356.363-.671a.638.638 0 0 0-.121-.407.732.732 0 0 0-.308-.242 1.911 1.911 0 0 0-.462-.154 21.914 21.914 0 0 0-.539-.11c-.242-.051-.48-.106-.715-.165a2.53 2.53 0 0 1-.638-.275 1.511 1.511 0 0 1-.462-.473c-.117-.198-.176-.455-.176-.77 0-.513.198-.917.594-1.21.404-.293.965-.44 1.683-.44.404 0 .759.04 1.067.121.316.08.558.169.726.264v.869a2.58 2.58 0 0 0-.715-.308c-.278-.088-.627-.132-1.045-.132-.432 0-.766.059-1.001.176-.227.117-.341.33-.341.638 0 .154.033.279.099.374a.789.789 0 0 0 .264.22c.118.051.25.092.396.121.147.029.301.062.462.099.25.051.506.106.77.165.264.059.499.15.704.275.213.125.385.293.517.506.14.205.209.484.209.836 0 .33-.066.605-.198.825-.132.22-.308.396-.528.528a2.229 2.229 0 0 1-.737.264 3.92 3.92 0 0 1-.836.088Zm4.02-.044a.699.699 0 0 1-.517-.198.694.694 0 0 1-.198-.495c0-.205.066-.374.198-.506a.699.699 0 0 1 .517-.198c.205 0 .374.066.506.198a.686.686 0 0 1 .198.506.694.694 0 0 1-.198.495.686.686 0 0 1-.506.198Zm3.071-.066h-.968v-5.709h.847l.099 1.023h.022c.154-.323.385-.59.693-.803.308-.22.712-.33 1.21-.33.44 0 .8.106 1.078.319.286.205.477.517.572.935.162-.389.407-.693.737-.913.338-.227.745-.341 1.221-.341.528 0 .946.15 1.254.451.308.293.462.748.462 1.364V104h-.979v-3.883c0-.374-.091-.645-.275-.814-.183-.176-.432-.264-.748-.264-.212 0-.399.033-.561.099a1.335 1.335 0 0 0-.429.253c-.124.11-.238.238-.341.385a5.068 5.068 0 0 0-.286.462V104h-.968v-3.993c0-.367-.091-.62-.275-.759-.183-.14-.432-.209-.748-.209-.205 0-.388.026-.55.077a1.551 1.551 0 0 0-.44.22 1.76 1.76 0 0 0-.341.352 3.317 3.317 0 0 0-.286.44V104Zm13.286-.484c-.08.059-.179.121-.297.187a3.4 3.4 0 0 1-.429.198 3.59 3.59 0 0 1-.572.143 3.537 3.537 0 0 1-.715.066c-.96 0-1.69-.26-2.189-.781-.498-.521-.748-1.25-.748-2.189 0-.462.066-.876.198-1.243.14-.367.33-.675.572-.924a2.38 2.38 0 0 1 .858-.583c.33-.14.69-.209 1.078-.209.411 0 .778.07 1.1.209.323.14.587.345.792.616.213.271.356.609.429 1.012.081.396.081.858 0 1.386h-4.026c.037.616.22 1.078.55 1.386.33.301.822.451 1.474.451.44 0 .818-.062 1.133-.187.316-.125.58-.26.792-.407v.869Zm-2.266-4.477c-.418 0-.777.128-1.078.385-.3.257-.491.645-.572 1.166h3.069c.03-.528-.091-.917-.363-1.166-.271-.257-.623-.385-1.056-.385Zm4.524 4.961h-.968v-5.709h.847l.099 1.023h.022c.154-.323.385-.59.693-.803.308-.22.712-.33 1.21-.33.44 0 .8.106 1.078.319.286.205.477.517.572.935.162-.389.407-.693.737-.913.338-.227.745-.341 1.221-.341.528 0 .946.15 1.254.451.308.293.462.748.462 1.364V104h-.979v-3.883c0-.374-.091-.645-.275-.814-.183-.176-.432-.264-.748-.264-.212 0-.399.033-.561.099a1.335 1.335 0 0 0-.429.253c-.124.11-.238.238-.341.385a5.068 5.068 0 0 0-.286.462V104h-.968v-3.993c0-.367-.091-.62-.275-.759-.183-.14-.432-.209-.748-.209-.205 0-.388.026-.55.077a1.551 1.551 0 0 0-.44.22 1.76 1.76 0 0 0-.341.352 3.317 3.317 0 0 0-.286.44V104Zm14.166-2.86c0 .506-.069.946-.209 1.32a2.742 2.742 0 0 1-.561.924 2.35 2.35 0 0 1-.814.55 2.7 2.7 0 0 1-.968.176c-.44 0-.825-.103-1.155-.308a2.265 2.265 0 0 1-.77-.88l-.033 1.078h-.913v-7.887h.968l-.022 3.289a2.35 2.35 0 0 1 .77-.891c.323-.22.723-.33 1.199-.33.33 0 .646.062.946.187.308.117.576.3.803.55.235.242.418.55.55.924.14.367.209.799.209 1.298Zm-2.695 2.101c.506 0 .913-.172 1.221-.517.316-.352.473-.88.473-1.584 0-.689-.157-1.21-.473-1.562-.308-.36-.715-.539-1.221-.539a1.88 1.88 0 0 0-.704.132 1.58 1.58 0 0 0-.561.396 1.925 1.925 0 0 0-.374.649 2.925 2.925 0 0 0-.132.924c0 .352.044.66.132.924.096.264.22.484.374.66.162.176.349.308.561.396.22.081.455.121.704.121Zm8.411.275a3.083 3.083 0 0 1-.726.385 3.617 3.617 0 0 1-.572.143 3.544 3.544 0 0 1-.715.066c-.961 0-1.69-.26-2.189-.781-.499-.521-.748-1.25-.748-2.189 0-.462.066-.876.198-1.243a2.66 2.66 0 0 1 .572-.924 2.38 2.38 0 0 1 .858-.583c.33-.14.689-.209 1.078-.209.411 0 .777.07 1.1.209.323.14.587.345.792.616.213.271.356.609.429 1.012.081.396.081.858 0 1.386h-4.026c.037.616.22 1.078.55 1.386.33.301.821.451 1.474.451.44 0 .818-.062 1.133-.187.315-.125.579-.26.792-.407v.869Zm-2.266-4.477c-.418 0-.777.128-1.078.385-.301.257-.491.645-.572 1.166h3.069c.029-.528-.092-.917-.363-1.166-.271-.257-.623-.385-1.056-.385Zm6.383.22a2.968 2.968 0 0 0-1.122.319c-.33.169-.576.433-.737.792V104h-.968v-5.709h.847l.099 1.243h.022c.161-.337.392-.63.693-.88.308-.257.697-.414 1.166-.473v1.078Z"/><rect width="171" height="34" x="45" y="209" fill="#fff" stroke="#67B0F8" stroke-width="2" rx="4"/><path fill="#18123D" d="M79.989 216.455a.64.64 0 0 1-.473-.176.635.635 0 0 1-.176-.451.617.617 0 0 1 .649-.638.57.57 0 0 1 .45.187c.11.125.166.275.166.451a.659.659 0 0 1-.165.451.59.59 0 0 1-.451.176Zm.473.836V223h-.968v-5.709h.968Zm4.922 4.62c-.066.132-.15.271-.253.418a1.915 1.915 0 0 1-.935.671c-.206.073-.448.11-.726.11-.514 0-.928-.143-1.243-.429-.316-.293-.473-.711-.473-1.254 0-.623.216-1.082.649-1.375.44-.293 1.063-.44 1.87-.44h1.067v-.473c0-.396-.103-.678-.308-.847-.206-.169-.558-.253-1.056-.253-.352 0-.686.059-1.001.176-.316.11-.598.238-.847.385v-.869c.205-.125.48-.246.825-.363a3.43 3.43 0 0 1 1.155-.187c.718 0 1.265.15 1.639.451.374.293.56.752.56 1.375v3.3c.008.081.012.165.012.253l.022.253c.007.073.014.136.022.187h-.88a5.068 5.068 0 0 1-.066-.429 6.573 6.573 0 0 1-.022-.495l-.011-.165Zm-1.705.33c.3 0 .557-.062.77-.187.212-.125.385-.268.517-.429.132-.169.227-.33.286-.484.058-.161.088-.275.088-.341v-.418h-.968c-.58 0-1.001.084-1.265.253-.257.161-.385.407-.385.737a.87.87 0 0 0 .23.627c.155.161.397.242.727.242Zm5.119.759h-.968v-5.709h.847l.099 1.023h.022c.154-.323.385-.59.693-.803.308-.22.71-.33 1.21-.33.44 0 .799.106 1.078.319.286.205.476.517.572.935.16-.389.407-.693.737-.913.337-.227.744-.341 1.22-.341.529 0 .947.15 1.255.451.308.293.462.748.462 1.364V223h-.98v-3.883c0-.374-.091-.645-.274-.814-.184-.176-.433-.264-.748-.264-.213 0-.4.033-.561.099a1.334 1.334 0 0 0-.43.253c-.124.11-.238.238-.34.385a4.957 4.957 0 0 0-.286.462V223h-.968v-3.993c0-.367-.092-.62-.275-.759-.184-.139-.433-.209-.748-.209-.206 0-.39.026-.55.077a1.547 1.547 0 0 0-.44.22 1.733 1.733 0 0 0-.341.352 3.267 3.267 0 0 0-.286.44V223Zm9.27.066a.7.7 0 0 1-.516-.198.694.694 0 0 1-.199-.495c0-.205.067-.374.199-.506a.7.7 0 0 1 .516-.198c.206 0 .374.066.507.198a.686.686 0 0 1 .197.506.694.694 0 0 1-.198.495.685.685 0 0 1-.505.198Zm3.93.044c-.3 0-.568-.026-.803-.077a3.78 3.78 0 0 1-.605-.165 3.384 3.384 0 0 1-.429-.22 2.928 2.928 0 0 1-.275-.209v-.869c.074.073.173.154.297.242.125.081.275.158.451.231.176.073.374.136.594.187.228.044.481.066.759.066.411 0 .737-.066.979-.198s.363-.356.363-.671a.638.638 0 0 0-.121-.407.732.732 0 0 0-.308-.242 1.911 1.911 0 0 0-.462-.154 21.914 21.914 0 0 0-.539-.11c-.242-.051-.48-.106-.715-.165a2.53 2.53 0 0 1-.638-.275 1.511 1.511 0 0 1-.462-.473c-.117-.198-.176-.455-.176-.77 0-.513.198-.917.594-1.21.404-.293.965-.44 1.683-.44.404 0 .759.04 1.067.121.316.081.558.169.726.264v.869a2.58 2.58 0 0 0-.715-.308c-.278-.088-.627-.132-1.045-.132-.432 0-.766.059-1.001.176-.227.117-.341.33-.341.638 0 .154.033.279.099.374a.789.789 0 0 0 .264.22c.118.051.25.092.396.121.147.029.301.062.462.099.25.051.506.106.77.165.264.059.499.15.704.275.213.125.385.293.517.506.14.205.209.484.209.836 0 .33-.066.605-.198.825-.132.22-.308.396-.528.528a2.229 2.229 0 0 1-.737.264 3.92 3.92 0 0 1-.836.088Zm8.035-.594a3.083 3.083 0 0 1-.726.385c-.169.059-.36.106-.572.143a3.544 3.544 0 0 1-.715.066c-.961 0-1.691-.26-2.189-.781-.499-.521-.748-1.25-.748-2.189 0-.462.066-.876.198-1.243.139-.367.33-.675.572-.924.242-.257.528-.451.858-.583.33-.139.689-.209 1.078-.209.41 0 .777.07 1.1.209.322.139.586.345.792.616.212.271.355.609.429 1.012.08.396.08.858 0 1.386h-4.026c.036.616.22 1.078.55 1.386.33.301.821.451 1.474.451.44 0 .817-.062 1.133-.187.315-.125.579-.26.792-.407v.869Zm-2.266-4.477c-.418 0-.778.128-1.078.385-.301.257-.492.645-.572 1.166h3.069c.029-.528-.092-.917-.363-1.166-.272-.257-.624-.385-1.056-.385Zm6.383.22a2.974 2.974 0 0 0-1.122.319c-.33.169-.576.433-.737.792V223h-.968v-5.709h.847l.099 1.243h.022c.161-.337.392-.631.693-.88.308-.257.696-.414 1.166-.473v1.078Zm4.179 4.741h-1.562l-1.958-5.709h1.045l1.738 5.192 1.727-5.192h.968L118.329 223Zm3.35-6.545a.64.64 0 0 1-.473-.176.636.636 0 0 1-.176-.451c0-.176.059-.326.176-.451a.617.617 0 0 1 .473-.187c.191 0 .341.062.451.187.11.125.165.275.165.451a.659.659 0 0 1-.165.451.589.589 0 0 1-.451.176Zm.473.836V223h-.968v-5.709h.968Zm4.042 5.819c-.44 0-.84-.066-1.199-.198a2.62 2.62 0 0 1-.902-.583 2.576 2.576 0 0 1-.572-.935 3.692 3.692 0 0 1-.198-1.254c0-.462.066-.876.198-1.243.139-.367.334-.675.583-.924.249-.257.554-.451.913-.583a3.361 3.361 0 0 1 1.221-.209c.352 0 .675.04.968.121.293.073.535.183.726.33v.869a2.564 2.564 0 0 0-.792-.341 3.254 3.254 0 0 0-.891-.121c-.667 0-1.159.172-1.474.517-.308.345-.462.873-.462 1.584 0 .711.15 1.239.451 1.584.301.345.777.517 1.43.517.345 0 .66-.04.946-.121.293-.088.557-.198.792-.33v.869a3.371 3.371 0 0 1-1.738.451Zm7.461-.594a3.083 3.083 0 0 1-.726.385c-.169.059-.36.106-.572.143a3.544 3.544 0 0 1-.715.066c-.961 0-1.691-.26-2.189-.781-.499-.521-.748-1.25-.748-2.189 0-.462.066-.876.198-1.243.139-.367.33-.675.572-.924.242-.257.528-.451.858-.583.33-.139.689-.209 1.078-.209.41 0 .777.07 1.1.209.322.139.586.345.792.616.212.271.355.609.429 1.012.08.396.08.858 0 1.386h-4.026c.036.616.22 1.078.55 1.386.33.301.821.451 1.474.451.44 0 .817-.062 1.133-.187.315-.125.579-.26.792-.407v.869Zm-2.266-4.477c-.418 0-.778.128-1.078.385-.301.257-.492.645-.572 1.166h3.069c.029-.528-.092-.917-.363-1.166-.272-.257-.624-.385-1.056-.385Zm5.789-2.926h1.54l2.827 7.887h-1.1l-.814-2.255h-3.487l-.803 2.255h-.968l2.805-7.887Zm2.123 4.697-1.408-3.927-1.408 3.927h2.816Zm5.617 3.3c-.44 0-.84-.066-1.199-.198a2.62 2.62 0 0 1-.902-.583 2.562 2.562 0 0 1-.572-.935 3.692 3.692 0 0 1-.198-1.254c0-.462.066-.876.198-1.243.139-.367.333-.675.583-.924a2.4 2.4 0 0 1 .913-.583 3.361 3.361 0 0 1 1.221-.209c.352 0 .674.04.968.121.293.073.535.183.726.33v.869a2.564 2.564 0 0 0-.792-.341 3.254 3.254 0 0 0-.891-.121c-.668 0-1.159.172-1.474.517-.308.345-.462.873-.462 1.584 0 .711.15 1.239.451 1.584.3.345.777.517 1.43.517.344 0 .66-.04.946-.121.293-.088.557-.198.792-.33v.869a3.371 3.371 0 0 1-1.738.451Zm5.381 0c-.44 0-.839-.066-1.199-.198a2.63 2.63 0 0 1-.902-.583 2.576 2.576 0 0 1-.572-.935 3.692 3.692 0 0 1-.198-1.254c0-.462.066-.876.198-1.243.14-.367.334-.675.583-.924.25-.257.554-.451.913-.583.36-.139.767-.209 1.221-.209.352 0 .675.04.968.121.294.073.536.183.726.33v.869a2.543 2.543 0 0 0-.792-.341 3.254 3.254 0 0 0-.891-.121c-.667 0-1.158.172-1.474.517-.308.345-.462.873-.462 1.584 0 .711.151 1.239.451 1.584.301.345.778.517 1.43.517.345 0 .66-.04.946-.121a3.86 3.86 0 0 0 .792-.33v.869a3.371 3.371 0 0 1-1.738.451Zm5.261 0c-.388 0-.751-.066-1.089-.198a2.55 2.55 0 0 1-.88-.572 2.798 2.798 0 0 1-.572-.935 3.554 3.554 0 0 1-.209-1.265c0-.469.07-.887.209-1.254.14-.374.33-.686.572-.935.25-.249.543-.44.88-.572a2.967 2.967 0 0 1 1.089-.198c.396 0 .763.066 1.1.198.338.132.627.323.869.572.25.249.444.561.583.935.147.367.22.785.22 1.254 0 .477-.073.898-.22 1.265a2.683 2.683 0 0 1-.583.935c-.242.249-.531.44-.869.572a2.991 2.991 0 0 1-1.1.198Zm0-.869c.257 0 .492-.04.704-.121.22-.088.411-.216.572-.385.162-.176.286-.396.374-.66.088-.264.132-.576.132-.935 0-.359-.044-.671-.132-.935a1.694 1.694 0 0 0-.374-.649 1.439 1.439 0 0 0-.572-.385 1.82 1.82 0 0 0-.704-.132c-.256 0-.491.044-.704.132a1.467 1.467 0 0 0-.561.385 1.788 1.788 0 0 0-.363.649 2.966 2.966 0 0 0-.132.935c0 .359.044.671.132.935.088.264.209.484.363.66.162.169.349.297.561.385.213.081.448.121.704.121Zm7.615-.264a2.043 2.043 0 0 1-.715.814c-.315.213-.729.319-1.243.319-.528 0-.957-.147-1.287-.44-.322-.301-.484-.763-.484-1.386v-3.993h.979v3.993c0 .191.026.348.077.473a.82.82 0 0 0 .561.44c.132.029.275.044.429.044.426 0 .767-.095 1.023-.286.257-.191.477-.451.66-.781v-3.883h.968V223h-.858l-.088-1.023h-.022Zm5.263-3.938c-.44 0-.799.103-1.078.308a2.26 2.26 0 0 0-.66.77V223h-.968v-5.709h.913l.033 1.023h.022c.154-.33.396-.601.726-.814.33-.213.748-.319 1.254-.319.565 0 1.012.15 1.342.451.337.293.506.748.506 1.364V223h-.968v-3.905c0-.396-.099-.671-.297-.825-.198-.154-.473-.231-.825-.231Zm6.415 4.84a1.77 1.77 0 0 1-.451.165 2.491 2.491 0 0 1-.583.066c-.279 0-.517-.04-.715-.121a1.383 1.383 0 0 1-.473-.319 1.35 1.35 0 0 1-.275-.462 1.93 1.93 0 0 1-.077-.539v-3.553h-.682v-.825h.682v-1.199h.968v1.199h1.661v.825h-1.661v3.432c0 .242.059.418.176.528.125.11.341.165.649.165.286 0 .546-.081.781-.242v.88Zm3.114.231a3.8 3.8 0 0 1-.803-.077 3.78 3.78 0 0 1-.605-.165 3.253 3.253 0 0 1-.429-.22 2.942 2.942 0 0 1-.275-.209v-.869c.073.073.172.154.297.242.125.081.275.158.451.231.176.073.374.136.594.187.227.044.48.066.759.066.411 0 .737-.066.979-.198s.363-.356.363-.671a.638.638 0 0 0-.121-.407.732.732 0 0 0-.308-.242 1.911 1.911 0 0 0-.462-.154 22.911 22.911 0 0 0-.539-.11c-.242-.051-.48-.106-.715-.165a2.515 2.515 0 0 1-.638-.275 1.49 1.49 0 0 1-.462-.473c-.117-.198-.176-.455-.176-.77 0-.513.198-.917.594-1.21.403-.293.964-.44 1.683-.44.403 0 .759.04 1.067.121.315.081.557.169.726.264v.869a2.593 2.593 0 0 0-.715-.308c-.279-.088-.627-.132-1.045-.132-.433 0-.766.059-1.001.176-.227.117-.341.33-.341.638 0 .154.033.279.099.374a.789.789 0 0 0 .264.22c.117.051.249.092.396.121.147.029.301.062.462.099.249.051.506.106.77.165.264.059.499.15.704.275.213.125.385.293.517.506.139.205.209.484.209.836 0 .33-.066.605-.198.825-.132.22-.308.396-.528.528a2.237 2.237 0 0 1-.737.264 3.92 3.92 0 0 1-.836.088Zm4.02-.044a.699.699 0 0 1-.517-.198.694.694 0 0 1-.198-.495c0-.205.066-.374.198-.506a.699.699 0 0 1 .517-.198c.205 0 .374.066.506.198a.686.686 0 0 1 .198.506.694.694 0 0 1-.198.495.686.686 0 0 1-.506.198Zm-57.22 11.911a2.05 2.05 0 0 1-.715.814c-.316.213-.73.319-1.243.319-.528 0-.957-.147-1.287-.44-.323-.301-.484-.763-.484-1.386v-3.993h.979v3.993c0 .191.025.348.077.473a.798.798 0 0 0 .231.286.85.85 0 0 0 .33.154c.132.029.275.044.429.044.425 0 .766-.095 1.023-.286.256-.191.476-.451.66-.781v-3.883h.968V236h-.858l-.088-1.023h-.022Zm4.382 1.133c-.3 0-.568-.026-.803-.077a3.78 3.78 0 0 1-.605-.165 3.384 3.384 0 0 1-.429-.22 2.942 2.942 0 0 1-.275-.209v-.869c.074.073.173.154.297.242.125.081.275.158.451.231.176.073.374.136.594.187.228.044.481.066.759.066.411 0 .737-.066.979-.198s.363-.356.363-.671a.638.638 0 0 0-.121-.407.732.732 0 0 0-.308-.242 1.911 1.911 0 0 0-.462-.154 21.914 21.914 0 0 0-.539-.11c-.242-.051-.48-.106-.715-.165a2.53 2.53 0 0 1-.638-.275 1.511 1.511 0 0 1-.462-.473c-.117-.198-.176-.455-.176-.77 0-.513.198-.917.594-1.21.404-.293.965-.44 1.683-.44.404 0 .759.04 1.067.121.316.081.558.169.726.264v.869a2.58 2.58 0 0 0-.715-.308c-.278-.088-.627-.132-1.045-.132-.432 0-.766.059-1.001.176-.227.117-.341.33-.341.638 0 .154.033.279.099.374a.789.789 0 0 0 .264.22c.118.051.25.092.396.121.147.029.301.062.462.099.25.051.506.106.77.165.264.059.499.15.704.275.213.125.385.293.517.506.14.205.209.484.209.836 0 .33-.066.605-.198.825-.132.22-.308.396-.528.528a2.229 2.229 0 0 1-.737.264 3.92 3.92 0 0 1-.836.088Zm8.035-.594a3.083 3.083 0 0 1-.726.385c-.169.059-.36.106-.572.143a3.544 3.544 0 0 1-.715.066c-.961 0-1.691-.26-2.189-.781-.499-.521-.748-1.25-.748-2.189 0-.462.066-.876.198-1.243.139-.367.33-.675.572-.924.242-.257.528-.451.858-.583.33-.139.689-.209 1.078-.209.41 0 .777.07 1.1.209.322.139.586.345.792.616.212.271.355.609.429 1.012.08.396.08.858 0 1.386h-4.026c.036.616.22 1.078.55 1.386.33.301.821.451 1.474.451.44 0 .817-.062 1.133-.187.315-.125.579-.26.792-.407v.869Zm-2.266-4.477c-.418 0-.778.128-1.078.385-.301.257-.492.645-.572 1.166h3.069c.029-.528-.092-.917-.363-1.166-.272-.257-.624-.385-1.056-.385Zm6.383.22a2.974 2.974 0 0 0-1.122.319c-.33.169-.576.433-.737.792V236h-.968v-5.709h.847l.099 1.243h.022c.161-.337.392-.631.693-.88.308-.257.696-.414 1.166-.473v1.078Z"/><rect width="171" height="34" x="254" y="275" fill="#fff" stroke="#67B0F8" stroke-width="2" rx="4"/><path fill="#18123D" d="M326.395 294.911c-.066.132-.15.271-.253.418a1.897 1.897 0 0 1-.935.671c-.205.073-.447.11-.726.11-.513 0-.927-.143-1.243-.429-.315-.293-.473-.711-.473-1.254 0-.623.217-1.082.649-1.375.44-.293 1.064-.44 1.87-.44h1.067v-.473c0-.396-.102-.678-.308-.847-.205-.169-.557-.253-1.056-.253-.352 0-.685.059-1.001.176-.315.11-.597.238-.847.385v-.869c.206-.125.481-.246.825-.363a3.43 3.43 0 0 1 1.155-.187c.719 0 1.265.15 1.639.451.374.293.561.752.561 1.375v3.3c.008.081.011.165.011.253l.022.253.022.187h-.88a5.068 5.068 0 0 1-.066-.429 6.966 6.966 0 0 1-.022-.495l-.011-.165Zm-1.705.33c.301 0 .558-.062.77-.187.213-.125.385-.268.517-.429a1.88 1.88 0 0 0 .286-.484c.059-.161.088-.275.088-.341v-.418h-.968c-.579 0-1.001.084-1.265.253-.256.161-.385.407-.385.737a.87.87 0 0 0 .231.627c.154.161.396.242.726.242Zm7.814-.264a2.043 2.043 0 0 1-.715.814c-.315.213-.729.319-1.243.319-.528 0-.957-.147-1.287-.44-.322-.301-.484-.763-.484-1.386v-3.993h.979v3.993c0 .191.026.348.077.473a.82.82 0 0 0 .561.44c.132.029.275.044.429.044.426 0 .767-.095 1.023-.286.257-.191.477-.451.66-.781v-3.883h.968V296h-.858l-.088-1.023h-.022Zm6.649-.099a2.291 2.291 0 0 1-.737.902c-.315.22-.715.33-1.199.33-.345 0-.671-.059-.979-.176a2.36 2.36 0 0 1-.814-.55 2.742 2.742 0 0 1-.561-.924c-.139-.374-.209-.814-.209-1.32 0-.499.07-.931.209-1.298a2.61 2.61 0 0 1 .561-.924 2.17 2.17 0 0 1 .814-.55 2.66 2.66 0 0 1 .99-.187c.433 0 .807.092 1.122.275.315.176.568.429.759.759v-3.102h.968V296h-.847l-.077-1.122Zm-1.793.363c.249 0 .48-.04.693-.121.213-.088.396-.22.55-.396.161-.176.286-.396.374-.66.095-.264.143-.572.143-.924 0-.352-.048-.66-.143-.924a1.812 1.812 0 0 0-.374-.66 1.366 1.366 0 0 0-.55-.385 1.797 1.797 0 0 0-.693-.132c-.506 0-.92.18-1.243.539-.315.352-.473.873-.473 1.562 0 .697.161 1.221.484 1.573.323.352.733.528 1.232.528Zm4.792-5.786a.64.64 0 0 1-.473-.176.632.632 0 0 1-.176-.451c0-.176.058-.326.176-.451a.617.617 0 0 1 .473-.187.57.57 0 0 1 .451.187c.11.125.165.275.165.451a.659.659 0 0 1-.165.451.59.59 0 0 1-.451.176Zm.473.836V296h-.968v-5.709h.968Zm4.372 5.588a1.784 1.784 0 0 1-.451.165 2.498 2.498 0 0 1-.583.066c-.279 0-.517-.04-.715-.121a1.374 1.374 0 0 1-.473-.319 1.335 1.335 0 0 1-.275-.462 1.893 1.893 0 0 1-.077-.539v-3.553h-.682v-.825h.682v-1.199h.968v1.199h1.661v.825h-1.661v3.432c0 .242.058.418.176.528.124.11.341.165.649.165.286 0 .546-.081.781-.242v.88Zm3.577.231a2.96 2.96 0 0 1-1.089-.198 2.541 2.541 0 0 1-.88-.572 2.782 2.782 0 0 1-.572-.935 3.554 3.554 0 0 1-.209-1.265c0-.469.07-.887.209-1.254.139-.374.33-.686.572-.935.249-.249.543-.44.88-.572a2.96 2.96 0 0 1 1.089-.198c.396 0 .763.066 1.1.198.337.132.627.323.869.572.249.249.444.561.583.935.147.367.22.785.22 1.254 0 .477-.073.898-.22 1.265a2.697 2.697 0 0 1-.583.935c-.242.249-.532.44-.869.572a2.991 2.991 0 0 1-1.1.198Zm0-.869c.257 0 .491-.04.704-.121.22-.088.411-.216.572-.385.161-.176.286-.396.374-.66.088-.264.132-.576.132-.935 0-.359-.044-.671-.132-.935a1.707 1.707 0 0 0-.374-.649 1.439 1.439 0 0 0-.572-.385 1.824 1.824 0 0 0-.704-.132c-.257 0-.491.044-.704.132-.213.081-.4.209-.561.385a1.788 1.788 0 0 0-.363.649 2.966 2.966 0 0 0-.132.935c0 .359.044.671.132.935.088.264.209.484.363.66.161.169.348.297.561.385.213.081.447.121.704.121Zm6.779-3.982a2.974 2.974 0 0 0-1.122.319c-.33.169-.576.433-.737.792V296h-.968v-5.709h.847l.099 1.243h.022c.161-.337.392-.631.693-.88.308-.257.697-.414 1.166-.473v1.078Z"/><rect width="171" height="34" x="45" y="275" fill="#fff" stroke="#67B0F8" stroke-width="2" rx="4"/><path fill="#18123D" d="M70.655 291.259c-.411.037-.785.143-1.122.319a1.59 1.59 0 0 0-.737.792V296h-.968v-5.709h.847l.099 1.243h.022c.161-.337.392-.631.693-.88.308-.257.696-.414 1.166-.473v1.078Zm5.561 4.257c-.08.059-.18.121-.297.187a3.44 3.44 0 0 1-.429.198c-.168.059-.359.106-.572.143a3.541 3.541 0 0 1-.715.066c-.96 0-1.69-.26-2.189-.781-.498-.521-.748-1.25-.748-2.189 0-.462.066-.876.198-1.243.14-.367.33-.675.572-.924.242-.257.528-.451.858-.583a2.75 2.75 0 0 1 1.078-.209c.411 0 .778.07 1.1.209.323.139.587.345.792.616.213.271.356.609.43 1.012.08.396.08.858 0 1.386h-4.027c.037.616.22 1.078.55 1.386.33.301.822.451 1.474.451.44 0 .818-.062 1.133-.187.316-.125.58-.26.792-.407v.869Zm-2.266-4.477c-.418 0-.777.128-1.078.385-.3.257-.491.645-.572 1.166h3.07c.029-.528-.092-.917-.364-1.166-.271-.257-.623-.385-1.056-.385Zm5.382 5.071c-.3 0-.568-.026-.803-.077a3.768 3.768 0 0 1-.605-.165 3.291 3.291 0 0 1-.429-.22 2.89 2.89 0 0 1-.275-.209v-.869c.074.073.173.154.297.242.125.081.275.158.451.231.176.073.374.136.594.187.228.044.48.066.76.066.41 0 .736-.066.978-.198s.363-.356.363-.671a.64.64 0 0 0-.12-.407.735.735 0 0 0-.309-.242 1.911 1.911 0 0 0-.462-.154 23.016 23.016 0 0 0-.539-.11c-.242-.051-.48-.106-.715-.165a2.513 2.513 0 0 1-.638-.275 1.496 1.496 0 0 1-.462-.473c-.117-.198-.176-.455-.176-.77 0-.513.198-.917.594-1.21.404-.293.965-.44 1.683-.44.404 0 .76.04 1.067.121.316.081.558.169.726.264v.869a2.59 2.59 0 0 0-.715-.308c-.278-.088-.627-.132-1.045-.132-.432 0-.766.059-1 .176-.228.117-.342.33-.342.638 0 .154.033.279.1.374a.789.789 0 0 0 .263.22c.118.051.25.092.396.121.147.029.301.062.462.099.25.051.506.106.77.165.264.059.499.15.704.275.213.125.385.293.517.506.14.205.21.484.21.836 0 .33-.067.605-.199.825-.132.22-.308.396-.528.528a2.238 2.238 0 0 1-.737.264c-.271.059-.55.088-.836.088Zm5.835 0c-.389 0-.752-.066-1.09-.198a2.542 2.542 0 0 1-.88-.572 2.788 2.788 0 0 1-.571-.935 3.547 3.547 0 0 1-.21-1.265c0-.469.07-.887.21-1.254.14-.374.33-.686.572-.935.25-.249.542-.44.88-.572.337-.132.7-.198 1.089-.198.396 0 .762.066 1.1.198.337.132.627.323.869.572.25.249.443.561.583.935.146.367.22.785.22 1.254 0 .477-.074.898-.22 1.265-.14.367-.334.678-.583.935a2.43 2.43 0 0 1-.87.572 2.992 2.992 0 0 1-1.1.198Zm0-.869c.256 0 .491-.04.704-.121.22-.088.41-.216.572-.385.161-.176.286-.396.374-.66.088-.264.132-.576.132-.935 0-.359-.044-.671-.132-.935a1.702 1.702 0 0 0-.374-.649 1.441 1.441 0 0 0-.572-.385 1.824 1.824 0 0 0-.704-.132c-.257 0-.492.044-.704.132-.213.081-.4.209-.561.385a1.788 1.788 0 0 0-.363.649 2.966 2.966 0 0 0-.132.935c0 .359.044.671.132.935.088.264.209.484.363.66.161.169.348.297.56.385.213.081.448.121.705.121Zm7.615-.264a2.046 2.046 0 0 1-.715.814c-.316.213-.73.319-1.243.319-.528 0-.957-.147-1.287-.44-.323-.301-.484-.763-.484-1.386v-3.993h.979v3.993c0 .191.025.348.077.473a.81.81 0 0 0 .56.44c.133.029.276.044.43.044.425 0 .766-.095 1.023-.286.256-.191.476-.451.66-.781v-3.883h.968V296h-.858l-.088-1.023h-.022Zm5.383-3.718c-.41.037-.784.143-1.122.319a1.59 1.59 0 0 0-.737.792V296h-.968v-5.709h.847l.1 1.243h.021c.162-.337.393-.631.693-.88.308-.257.697-.414 1.166-.473v1.078Zm3.483 4.851c-.44 0-.84-.066-1.199-.198a2.622 2.622 0 0 1-.902-.583 2.572 2.572 0 0 1-.572-.935 3.692 3.692 0 0 1-.198-1.254c0-.462.066-.876.198-1.243.14-.367.334-.675.583-.924a2.41 2.41 0 0 1 .913-.583 3.361 3.361 0 0 1 1.221-.209c.352 0 .675.04.968.121.293.073.535.183.726.33v.869a2.564 2.564 0 0 0-.792-.341 3.254 3.254 0 0 0-.891-.121c-.667 0-1.159.172-1.474.517-.308.345-.462.873-.462 1.584 0 .711.15 1.239.451 1.584.301.345.777.517 1.43.517.345 0 .66-.04.946-.121.293-.088.557-.198.792-.33v.869a3.371 3.371 0 0 1-1.738.451Zm7.461-.594a3.083 3.083 0 0 1-.726.385 3.617 3.617 0 0 1-.572.143 3.544 3.544 0 0 1-.715.066c-.961 0-1.69-.26-2.189-.781-.499-.521-.748-1.25-.748-2.189 0-.462.066-.876.198-1.243.139-.367.33-.675.572-.924.242-.257.528-.451.858-.583.33-.139.689-.209 1.078-.209.411 0 .777.07 1.1.209.323.139.587.345.792.616.213.271.356.609.429 1.012.081.396.081.858 0 1.386h-4.026c.037.616.22 1.078.55 1.386.33.301.821.451 1.474.451.44 0 .818-.062 1.133-.187.315-.125.579-.26.792-.407v.869Zm-2.266-4.477c-.418 0-.777.128-1.078.385-.301.257-.491.645-.572 1.166h3.069c.029-.528-.092-.917-.363-1.166-.271-.257-.623-.385-1.056-.385Zm3.424 1.166h2.64v.88h-2.64v-.88Zm5.064 3.795h-.968v-5.709h.847l.099 1.023h.022c.154-.323.385-.59.693-.803.308-.22.711-.33 1.21-.33.44 0 .799.106 1.078.319.286.205.476.517.572.935.161-.389.407-.693.737-.913.337-.227.744-.341 1.221-.341.528 0 .946.15 1.254.451.308.293.462.748.462 1.364V296h-.979v-3.883c0-.374-.092-.645-.275-.814-.184-.176-.433-.264-.748-.264-.213 0-.4.033-.561.099a1.32 1.32 0 0 0-.429.253c-.125.11-.239.238-.341.385a4.894 4.894 0 0 0-.286.462V296h-.968v-3.993c0-.367-.092-.62-.275-.759-.184-.139-.433-.209-.748-.209-.206 0-.389.026-.55.077a1.538 1.538 0 0 0-.44.22 1.706 1.706 0 0 0-.341.352 3.238 3.238 0 0 0-.286.44V296Zm12.087-1.089a3.452 3.452 0 0 1-.253.418 1.923 1.923 0 0 1-.935.671c-.206.073-.448.11-.726.11-.514 0-.928-.143-1.243-.429-.316-.293-.473-.711-.473-1.254 0-.623.216-1.082.649-1.375.44-.293 1.063-.44 1.87-.44h1.067v-.473c0-.396-.103-.678-.308-.847-.206-.169-.558-.253-1.056-.253-.352 0-.686.059-1.001.176-.316.11-.598.238-.847.385v-.869c.205-.125.48-.246.825-.363a3.43 3.43 0 0 1 1.155-.187c.718 0 1.265.15 1.639.451.374.293.561.752.561 1.375v3.3c.007.081.011.165.011.253l.022.253c.007.073.014.136.022.187h-.88a5.068 5.068 0 0 1-.066-.429 6.417 6.417 0 0 1-.022-.495l-.011-.165Zm-1.705.33c.3 0 .557-.062.77-.187a1.92 1.92 0 0 0 .517-.429 1.91 1.91 0 0 0 .286-.484c.058-.161.088-.275.088-.341v-.418h-.968c-.58 0-1.001.084-1.265.253-.257.161-.385.407-.385.737a.87.87 0 0 0 .231.627c.154.161.396.242.726.242Zm6.857-4.202c-.44 0-.8.103-1.078.308a2.239 2.239 0 0 0-.66.77V296h-.968v-5.709h.913l.033 1.023h.022c.154-.33.396-.601.726-.814.33-.213.748-.319 1.254-.319.564 0 1.012.15 1.342.451.337.293.506.748.506 1.364V296h-.968v-3.905c0-.396-.099-.671-.297-.825-.198-.154-.473-.231-.825-.231Zm6.965 3.872c-.066.132-.15.271-.253.418a1.923 1.923 0 0 1-.935.671c-.205.073-.447.11-.726.11-.513 0-.928-.143-1.243-.429-.315-.293-.473-.711-.473-1.254 0-.623.216-1.082.649-1.375.44-.293 1.063-.44 1.87-.44h1.067v-.473c0-.396-.103-.678-.308-.847-.205-.169-.557-.253-1.056-.253-.352 0-.686.059-1.001.176-.315.11-.598.238-.847.385v-.869c.205-.125.48-.246.825-.363a3.43 3.43 0 0 1 1.155-.187c.719 0 1.265.15 1.639.451.374.293.561.752.561 1.375v3.3c.007.081.011.165.011.253l.022.253c.007.073.015.136.022.187h-.88a5.068 5.068 0 0 1-.066-.429 6.417 6.417 0 0 1-.022-.495l-.011-.165Zm-1.705.33c.301 0 .557-.062.77-.187.213-.125.385-.268.517-.429a1.91 1.91 0 0 0 .286-.484c.059-.161.088-.275.088-.341v-.418h-.968c-.579 0-1.001.084-1.265.253-.257.161-.385.407-.385.737a.87.87 0 0 0 .231.627c.154.161.396.242.726.242Zm9.057.275c0 .367-.055.7-.165 1.001a1.807 1.807 0 0 1-.506.781c-.227.213-.524.378-.891.495-.359.117-.796.176-1.309.176-.279 0-.524-.015-.737-.044-.213-.029-.4-.07-.561-.121a2.008 2.008 0 0 1-.396-.154 1.824 1.824 0 0 1-.275-.154v-.869c.117.066.238.125.363.176a3.215 3.215 0 0 0 .946.253c.198.029.422.044.671.044.704 0 1.195-.132 1.474-.396.279-.264.418-.656.418-1.177v-.88a2.079 2.079 0 0 1-.715.814c-.301.205-.675.308-1.122.308-.337 0-.66-.059-.968-.176a2.395 2.395 0 0 1-.803-.517 2.67 2.67 0 0 1-.55-.869 3.466 3.466 0 0 1-.198-1.221c0-.469.066-.876.198-1.221a2.65 2.65 0 0 1 .55-.88c.235-.235.506-.411.814-.528.308-.117.634-.176.979-.176.455 0 .836.103 1.144.308.315.205.561.484.737.836l.011-.121c0-.132.007-.29.022-.473.015-.191.029-.337.044-.44h.88a7.281 7.281 0 0 0-.044.44c-.007.191-.011.348-.011.473v4.312Zm-2.629-.616c.242 0 .462-.037.66-.11.205-.081.381-.202.528-.363.154-.161.271-.359.352-.594.088-.242.132-.524.132-.847 0-.653-.161-1.14-.484-1.463-.315-.323-.715-.484-1.199-.484a1.9 1.9 0 0 0-.682.121 1.502 1.502 0 0 0-.539.363 1.782 1.782 0 0 0-.352.616 2.474 2.474 0 0 0-.132.847c0 .323.044.605.132.847.088.235.209.433.363.594.154.154.334.271.539.352a1.9 1.9 0 0 0 .682.121Zm8.744.616a3.083 3.083 0 0 1-.726.385c-.169.059-.36.106-.572.143a3.544 3.544 0 0 1-.715.066c-.961 0-1.691-.26-2.189-.781-.499-.521-.748-1.25-.748-2.189 0-.462.066-.876.198-1.243.139-.367.33-.675.572-.924.242-.257.528-.451.858-.583.33-.139.689-.209 1.078-.209.41 0 .777.07 1.1.209.322.139.586.345.792.616.212.271.355.609.429 1.012.08.396.08.858 0 1.386h-4.026c.036.616.22 1.078.55 1.386.33.301.821.451 1.474.451.44 0 .817-.062 1.133-.187.315-.125.579-.26.792-.407v.869Zm-2.266-4.477c-.418 0-.778.128-1.078.385-.301.257-.492.645-.572 1.166h3.069c.029-.528-.092-.917-.363-1.166-.272-.257-.624-.385-1.056-.385Zm6.383.22a2.974 2.974 0 0 0-1.122.319c-.33.169-.576.433-.737.792V296h-.968v-5.709h.847l.099 1.243h.022c.161-.337.392-.631.693-.88.308-.257.696-.414 1.166-.473v1.078Zm1.052 4.807a.699.699 0 0 1-.517-.198.694.694 0 0 1-.198-.495c0-.205.066-.374.198-.506a.699.699 0 0 1 .517-.198c.205 0 .374.066.506.198a.686.686 0 0 1 .198.506.694.694 0 0 1-.198.495.686.686 0 0 1-.506.198Zm5.448-1.155c-.066.132-.15.271-.253.418a1.923 1.923 0 0 1-.935.671c-.205.073-.447.11-.726.11-.513 0-.928-.143-1.243-.429-.315-.293-.473-.711-.473-1.254 0-.623.216-1.082.649-1.375.44-.293 1.063-.44 1.87-.44h1.067v-.473c0-.396-.103-.678-.308-.847-.205-.169-.557-.253-1.056-.253-.352 0-.686.059-1.001.176-.315.11-.598.238-.847.385v-.869c.205-.125.48-.246.825-.363a3.43 3.43 0 0 1 1.155-.187c.719 0 1.265.15 1.639.451.374.293.561.752.561 1.375v3.3c.007.081.011.165.011.253l.022.253c.007.073.015.136.022.187h-.88a5.068 5.068 0 0 1-.066-.429 6.417 6.417 0 0 1-.022-.495l-.011-.165Zm-1.705.33c.301 0 .557-.062.77-.187.213-.125.385-.268.517-.429a1.91 1.91 0 0 0 .286-.484c.059-.161.088-.275.088-.341v-.418h-.968c-.579 0-1.001.084-1.265.253-.257.161-.385.407-.385.737a.87.87 0 0 0 .231.627c.154.161.396.242.726.242Zm7.814-.264a2.043 2.043 0 0 1-.715.814c-.315.213-.73.319-1.243.319-.528 0-.957-.147-1.287-.44-.323-.301-.484-.763-.484-1.386v-3.993h.979v3.993c0 .191.026.348.077.473a.82.82 0 0 0 .561.44c.132.029.275.044.429.044.425 0 .766-.095 1.023-.286.257-.191.477-.451.66-.781v-3.883h.968V296h-.858l-.088-1.023h-.022Zm6.649-.099a2.291 2.291 0 0 1-.737.902c-.316.22-.715.33-1.199.33-.345 0-.671-.059-.979-.176a2.35 2.35 0 0 1-.814-.55 2.742 2.742 0 0 1-.561-.924c-.14-.374-.209-.814-.209-1.32 0-.499.069-.931.209-1.298a2.61 2.61 0 0 1 .561-.924c.234-.249.506-.433.814-.55a2.66 2.66 0 0 1 .99-.187c.432 0 .806.092 1.122.275.315.176.568.429.759.759v-3.102h.968V296h-.847l-.077-1.122Zm-1.793.363c.249 0 .48-.04.693-.121.212-.088.396-.22.55-.396.161-.176.286-.396.374-.66.095-.264.143-.572.143-.924 0-.352-.048-.66-.143-.924a1.812 1.812 0 0 0-.374-.66 1.373 1.373 0 0 0-.55-.385 1.797 1.797 0 0 0-.693-.132c-.506 0-.921.18-1.243.539-.316.352-.473.873-.473 1.562 0 .697.161 1.221.484 1.573.322.352.733.528 1.232.528Zm4.791-5.786a.642.642 0 0 1-.473-.176.636.636 0 0 1-.176-.451.618.618 0 0 1 .649-.638c.191 0 .341.062.451.187.11.125.165.275.165.451a.659.659 0 0 1-.165.451.589.589 0 0 1-.451.176Zm.473.836V296h-.968v-5.709h.968Zm4.372 5.588a1.755 1.755 0 0 1-.451.165 2.485 2.485 0 0 1-.583.066 1.89 1.89 0 0 1-.715-.121 1.393 1.393 0 0 1-.473-.319 1.367 1.367 0 0 1-.275-.462 1.93 1.93 0 0 1-.077-.539v-3.553h-.682v-.825h.682v-1.199h.968v1.199h1.661v.825h-1.661v3.432c0 .242.059.418.176.528.125.11.341.165.649.165.286 0 .547-.081.781-.242v.88Zm3.578.231a2.96 2.96 0 0 1-1.089-.198 2.532 2.532 0 0 1-.88-.572 2.782 2.782 0 0 1-.572-.935 3.532 3.532 0 0 1-.209-1.265 3.5 3.5 0 0 1 .209-1.254c.139-.374.33-.686.572-.935.249-.249.542-.44.88-.572a2.96 2.96 0 0 1 1.089-.198c.396 0 .762.066 1.1.198.337.132.627.323.869.572.249.249.443.561.583.935.146.367.22.785.22 1.254a3.4 3.4 0 0 1-.22 1.265c-.14.367-.334.678-.583.935-.242.249-.532.44-.869.572a2.995 2.995 0 0 1-1.1.198Zm0-.869c.256 0 .491-.04.704-.121.22-.088.41-.216.572-.385.161-.176.286-.396.374-.66.088-.264.132-.576.132-.935 0-.359-.044-.671-.132-.935a1.707 1.707 0 0 0-.374-.649 1.446 1.446 0 0 0-.572-.385 1.828 1.828 0 0 0-.704-.132 1.82 1.82 0 0 0-.704.132c-.213.081-.4.209-.561.385a1.788 1.788 0 0 0-.363.649 2.966 2.966 0 0 0-.132.935c0 .359.044.671.132.935.088.264.209.484.363.66.161.169.348.297.561.385.212.081.447.121.704.121Zm6.779-3.982a2.974 2.974 0 0 0-1.122.319c-.33.169-.576.433-.737.792V296h-.968v-5.709h.847l.099 1.243h.022c.161-.337.392-.631.693-.88.308-.257.696-.414 1.166-.473v1.078Z"/><path fill="#4E496B" d="m339 46-5.774 10h11.548L339 46Zm-1 9v21h2V55h-2ZM338 112l-5.774 10h11.548L338 112Zm-1 9v21h2v-21h-2ZM340 178l-5.774 10h11.548L340 178Zm-1 9v21h2v-21h-2ZM340 244.301l-5.774 10h11.548l-5.774-10Zm-1 9v21h2v-21h-2Z"/></svg>