<svg xmlns="http://www.w3.org/2000/svg" xmlns:xlink="http://www.w3.org/1999/xlink" width="16" height="16" class="yc-icon nv-composite-bar__menu-icon" fill="currentColor" stroke="none" aria-hidden="true"><svg viewBox="0 0 16 16" fill="none" xmlns="http://www.w3.org/2000/svg"><path d="M12.95 3.05a7 7 0 10-9.9 9.9 7 7 0 009.9-9.9zM2.826 5.632a5.775 5.775 0 018.66-2.297c-1.718-.162-3.869.716-5.612 2.456a9.453 9.453 0 00-1.655 2.228A8.149 8.149 0 012.826 5.63zm3.86 8.12A5.781 5.781 0 012.43 7.57c.722 1.568 2.546 2.994 4.938 3.63.894.243 1.818.35 2.743.319a8.19 8.19 0 01-1.359 2.395 5.728 5.728 0 01-2.068-.168v.006zm4.355-6.653a9.454 9.454 0 00-1.088-2.545 8.171 8.171 0 012.752-.02 5.781 5.781 0 01-2.339 8.651c.993-1.402 1.312-3.703.675-6.086z" fill="#6B8499"></path></svg></svg>