<svg xmlns="http://www.w3.org/2000/svg" width="16" height="16" fill="currentColor" aria-hidden="true" class="yc-icon nv-composite-bar__menu-icon"><svg xmlns="http://www.w3.org/2000/svg" fill="none" viewBox="0 0 16 16"><path fill="#6B8499" d="M12.95 3.05a7 7 0 1 0-9.9 9.9 7 7 0 0 0 9.9-9.9zM2.826 5.632a5.775 5.775 0 0 1 8.66-2.297c-1.718-.162-3.869.716-5.612 2.456a9.453 9.453 0 0 0-1.655 2.228A8.149 8.149 0 0 1 2.826 5.63zm3.86 8.12A5.781 5.781 0 0 1 2.43 7.57c.722 1.568 2.546 2.994 4.938 3.63a9.27 9.27 0 0 0 2.743.319 8.19 8.19 0 0 1-1.359 2.395 5.728 5.728 0 0 1-2.068-.168v.006zm4.355-6.653a9.454 9.454 0 0 0-1.088-2.545 8.171 8.171 0 0 1 2.752-.02 5.781 5.781 0 0 1-2.339 8.651c.993-1.402 1.312-3.703.675-6.086z"/></svg></svg>