<svg xmlns="http://www.w3.org/2000/svg" width="16" height="16" fill="currentColor" class="yc-icon nv-composite-bar__menu-icon">
    <svg xmlns="http://www.w3.org/2000/svg" fill="none" viewBox="0 0 14 14">
        <path fill="#6B8499" d="M12.734.28H10.98a.97.97 0 0 0-.98.96v1.72c0 .53.439.96.98.96h1.754a.97.97 0 0 0 .98-.96V1.24a.97.97 0 0 0-.98-.96z"/>
        <path fill="#6B8499" d="M5.865 4.022h1.54a2.854 2.854 0 0 1 1.72.699l.058.063c.427.465.679 1.06.712 1.685v1.504c0 .261.107.513.296.698.188.185.445.289.712.289h1.804c.267 0 .523-.104.712-.29a.978.978 0 0 0 .295-.697V6.205a.978.978 0 0 0-.295-.698 1.018 1.018 0 0 0-.712-.29h-1.534a2.822 2.822 0 0 1-1.72-.698l-.065-.056a2.727 2.727 0 0 1-.712-1.686v-1.51A.978.978 0 0 0 8.381.57a1.018 1.018 0 0 0-.713-.29H5.865c-.267 0-.524.104-.713.29a.978.978 0 0 0-.295.698v1.767c0 .262.106.513.295.698.19.185.446.29.713.29z" opacity=".5"/>
        <path fill="#6B8499" d="M12.995 10.21H11.47a2.766 2.766 0 0 1-1.704-.73l-.172-.172a2.766 2.766 0 0 1-.706-1.704V6.078a1.005 1.005 0 0 0-.998-.998H6.364a2.746 2.746 0 0 1-1.704-.687l-.171-.171a2.766 2.766 0 0 1-.706-1.704V.998A.998.998 0 0 0 2.785 0H.998A.998.998 0 0 0 0 .998v1.787a.998.998 0 0 0 .998.998h1.52c.641.03 1.253.281 1.73.712l.17.172c.423.471.672 1.072.706 1.704v1.525a1.004 1.004 0 0 0 .999.999h1.525a2.783 2.783 0 0 1 1.685.705l.172.172a2.79 2.79 0 0 1 .706 1.704v1.526a1.005 1.005 0 0 0 .998.998h1.793a1.005 1.005 0 0 0 .998-.998v-1.793a1.005 1.005 0 0 0-1.005-.998zm-10.05-.13h-1.89c-.582 0-1.055.43-1.055.96v1.72c0 .53.473.96 1.055.96h1.89c.582 0 1.055-.43 1.055-.96v-1.72c0-.53-.473-.96-1.055-.96z"/>
        <path fill="#6B8499" d="M7.85 9.978H6.315a2.822 2.822 0 0 1-1.72-.699l-.065-.056a2.726 2.726 0 0 1-.712-1.698v-1.51a.978.978 0 0 0-.288-.68 1.018 1.018 0 0 0-.688-.295H1.008c-.268 0-.524.104-.713.29A.978.978 0 0 0 0 6.027v1.767c0 .262.106.513.295.698.19.185.445.29.713.29h1.54a2.854 2.854 0 0 1 1.72.698l.058.063c.427.465.679 1.06.712 1.685v1.504a.971.971 0 0 0 .298.7 1.01 1.01 0 0 0 .716.287H7.85c.268 0 .524-.104.713-.29a.978.978 0 0 0 .295-.697v-1.768a.978.978 0 0 0-.295-.698 1.018 1.018 0 0 0-.713-.29z" opacity=".5"/>
    </svg>
</svg>
