<svg xmlns="http://www.w3.org/2000/svg" width="700" height="600" fill="none" viewBox="0 0 700 600">
    <path fill="#4E496B" d="m180 265 5.773-10h-11.547L180 265Zm160-25v-1 1Zm9-25v15h2v-15h-2Zm-9 24H190v2h150v-2Zm-161 11v6h2v-6h-2Zm11-11c-6.075 0-11 4.925-11 11h2a9 9 0 0 1 9-9v-2Zm159-9a9 9 0 0 1-9 9v2c6.075 0 11-4.925 11-11h-2Z"/>
    <path fill="#4E496B" d="m520 265-5.774-10h11.548L520 265Zm-10-25v1-1Zm9 16v-6h2v6h-2Zm-9-15H360v-2h150v2Zm-161-11v-15h2v15h-2Zm11 11c-6.075 0-11-4.925-11-11h2a9 9 0 0 0 9 9v2Zm159 9a9 9 0 0 0-9-9v-2c6.075 0 11 4.925 11 11h-2ZM350 145l-5.774-10h11.548L350 145Zm-1-9V95h2v41h-2Zm171 249-5.774-10h11.548L520 385Zm-1-9v-41h2v41h-2Z"/>
    <path fill="#4E496B" d="m520 385-5.774-10h11.548L520 385Zm-1-9v-41h2v41h-2Zm-339 9-5.774-10h11.548L180 385Zm-1-9v-41h2v41h-2Z"/>
    <path fill="#4E496B" d="m180 385-5.774-10h11.548L180 385Zm-1-9v-41h2v41h-2Zm1 129-5.774-10h11.548L180 505Zm-1-9v-41h2v41h-2Z"/>
    <path fill="#4E496B" d="m180 505-5.774-10h11.548L180 505Zm-1-9v-41h2v41h-2Z"/>
    <rect width="300" height="60" x="200" y="150" fill="#EEF3FE" rx="10"/>
    <path fill="#262626" d="M261.51 184.13c-.832 0-1.586-.186-2.262-.559a4.098 4.098 0 0 1-1.612-1.625c-.39-.719-.585-1.599-.585-2.639 0-1.04.195-1.911.585-2.613.399-.711.936-1.244 1.612-1.599s1.43-.533 2.262-.533c.85 0 1.608.182 2.275.546a3.86 3.86 0 0 1 1.599 1.586c.39.702.585 1.577.585 2.626 0 1.031-.195 1.907-.585 2.626a4.011 4.011 0 0 1-1.599 1.625c-.667.373-1.425.559-2.275.559Zm0-1.105c.598 0 1.136-.121 1.612-.364.477-.243.85-.633 1.118-1.17.278-.546.416-1.261.416-2.145 0-.893-.138-1.608-.416-2.145-.268-.537-.641-.927-1.118-1.17-.476-.243-1.014-.364-1.612-.364-.598 0-1.135.121-1.612.364-.468.243-.84.633-1.118 1.17-.277.537-.416 1.252-.416 2.145 0 .884.139 1.599.416 2.145.278.537.65.927 1.118 1.17a3.499 3.499 0 0 0 1.612.364Zm5.935.975v-6.747h5.408V184h-1.144v-5.772h-3.12V184h-1.144Zm7.275-6.747h1.001l.117 1.313c.216-.433.515-.78.897-1.04.39-.269.866-.403 1.43-.403.528 0 1.014.13 1.456.39.45.251.814.637 1.092 1.157.277.511.416 1.161.416 1.95 0 .789-.143 1.443-.429 1.963-.278.52-.646.91-1.105 1.17a2.997 2.997 0 0 1-1.482.377c-.512 0-.958-.121-1.339-.364a2.6 2.6 0 0 1-.91-1.001v3.536h-1.144v-9.048Zm5.226 3.367c0-.815-.187-1.43-.559-1.846-.373-.425-.854-.637-1.443-.637a2.01 2.01 0 0 0-1.495.624c-.399.407-.598 1.027-.598 1.859 0 .841.199 1.465.598 1.872.407.407.905.611 1.495.611.589 0 1.07-.208 1.443-.624.372-.416.559-1.036.559-1.859Zm5.559 3.51c-1.127 0-1.989-.308-2.587-.923-.59-.624-.884-1.486-.884-2.587 0-.737.138-1.365.416-1.885.277-.52.658-.919 1.144-1.196a3.244 3.244 0 0 1 1.638-.416c1.031 0 1.789.342 2.275 1.027.485.676.641 1.603.468 2.782h-4.758c.095 1.447.892 2.171 2.392 2.171.823 0 1.581-.234 2.275-.702v1.027c-.312.217-.676.39-1.092.52a4.585 4.585 0 0 1-1.287.182Zm-.299-5.993c-.494 0-.919.152-1.274.455-.356.303-.581.763-.676 1.378h3.627c.026-.581-.109-1.031-.403-1.352-.295-.321-.72-.481-1.274-.481Zm4.46 7.787h-1.027v-2.899h.637c.277-.277.472-.667.585-1.17.121-.503.195-1.131.221-1.885a81.26 81.26 0 0 0 .039-2.717h4.875v5.772h1.014v2.899h-1.001l-.143-1.924h-5.083l-.117 1.924Zm4.186-7.696h-2.665c-.009 1.231-.052 2.227-.13 2.99-.07.754-.247 1.356-.533 1.807h3.328v-4.797Zm6.214 5.902c-1.127 0-1.989-.308-2.587-.923-.589-.624-.884-1.486-.884-2.587 0-.737.139-1.365.416-1.885.277-.52.659-.919 1.144-1.196a3.244 3.244 0 0 1 1.638-.416c1.031 0 1.79.342 2.275 1.027.485.676.641 1.603.468 2.782h-4.758c.095 1.447.893 2.171 2.392 2.171.823 0 1.582-.234 2.275-.702v1.027c-.312.217-.676.39-1.092.52a4.585 4.585 0 0 1-1.287.182Zm-.299-5.993c-.494 0-.919.152-1.274.455-.355.303-.581.763-.676 1.378h3.627c.026-.581-.108-1.031-.403-1.352-.295-.321-.719-.481-1.274-.481Zm3.758 4.745c.52.078.876-.247 1.066-.975.07-.26.126-.585.169-.975.044-.399.074-.893.091-1.482.018-.598.026-1.33.026-2.197h4.667V184h-1.157v-5.772h-2.431a34.44 34.44 0 0 1-.091 2.483 9.137 9.137 0 0 1-.221 1.547c-.164.65-.416 1.114-.754 1.391-.338.277-.793.399-1.365.364v-1.131Zm7.403 1.118 1.95-2.73c-.459-.13-.819-.342-1.079-.637s-.39-.693-.39-1.196c0-.511.121-.927.364-1.248a2.062 2.062 0 0 1 1.001-.702c.425-.156.91-.234 1.456-.234h2.171V184h-1.144v-2.444h-1.235L312.293 184h-1.365Zm3.302-5.772c-.485 0-.884.091-1.196.273-.312.182-.468.477-.468.884 0 .425.139.732.416.923.286.182.68.273 1.183.273h1.092v-2.353h-1.027Zm7.037 5.902c-1.126 0-1.989-.308-2.587-.923-.589-.624-.884-1.486-.884-2.587 0-.737.139-1.365.416-1.885.278-.52.659-.919 1.144-1.196a3.249 3.249 0 0 1 1.638-.416c1.032 0 1.79.342 2.275 1.027.486.676.642 1.603.468 2.782h-4.758c.096 1.447.893 2.171 2.392 2.171a3.98 3.98 0 0 0 2.275-.702v1.027c-.312.217-.676.39-1.092.52a4.585 4.585 0 0 1-1.287.182Zm-.299-5.993a1.9 1.9 0 0 0-1.274.455c-.355.303-.58.763-.676 1.378h3.627c.026-.581-.108-1.031-.403-1.352-.294-.321-.719-.481-1.274-.481Zm4.304-.884h1.703l2.067 4.524 2.21-4.524h1.586V184h-1.131v-5.421l-2.288 4.667h-.91l-2.158-4.693V184h-1.079v-6.747Zm14.948 6.877c-1.049 0-1.877-.308-2.483-.923-.607-.624-.91-1.486-.91-2.587 0-1.101.307-1.959.923-2.574.615-.615 1.456-.923 2.522-.923.407 0 .788.048 1.144.143.355.087.641.217.858.39v1.027a3.711 3.711 0 0 0-1.989-.546c-.78 0-1.357.208-1.729.624-.373.407-.559 1.027-.559 1.859 0 .832.177 1.456.533 1.872.364.407.927.611 1.69.611.736 0 1.421-.178 2.054-.533v1.027c-.564.355-1.248.533-2.054.533Zm3.042-6.877h5.421v.975h-2.158V184h-1.144v-5.772h-2.119v-.975Zm8.838.884c-.719 0-1.447.221-2.184.663v-1.027a4.147 4.147 0 0 1 1.105-.468 4.505 4.505 0 0 1 1.235-.182c.85 0 1.495.178 1.937.533.442.355.663.897.663 1.625v3.627c0 .147.005.338.013.572.018.225.035.399.052.52h-1.04a5.896 5.896 0 0 1-.078-.507 7.937 7.937 0 0 1-.026-.585l-.013-.195a3.627 3.627 0 0 1-.429.65 2.156 2.156 0 0 1-.728.546c-.294.147-.663.221-1.105.221-.606 0-1.096-.173-1.469-.52-.372-.347-.559-.836-.559-1.469 0-.737.26-1.278.78-1.625s1.253-.52 2.197-.52h1.261v-.559c0-.468-.121-.802-.364-1.001-.242-.199-.658-.299-1.248-.299Zm1.612 3.263v-.494h-1.144c-.684 0-1.183.1-1.495.299-.303.199-.455.49-.455.871 0 .303.091.55.273.741.191.191.477.286.858.286.356 0 .659-.069.91-.208.252-.147.455-.321.611-.52a2.44 2.44 0 0 0 .338-.585c.07-.182.104-.312.104-.39Zm2.334-4.147h5.421v.975h-2.158V184h-1.144v-5.772h-2.119v-.975Zm7.517 9.178c-.356 0-.65-.048-.884-.143v-1.105c.173.147.455.221.845.221.303 0 .559-.074.767-.221.216-.139.424-.381.624-.728l-2.743-7.202h1.261l2.145 5.694 2.132-5.694h1.105l-2.522 6.669c-.347.893-.733 1.534-1.157 1.924-.425.39-.949.585-1.573.585Zm9.106-2.301c-1.049 0-1.877-.308-2.483-.923-.607-.624-.91-1.486-.91-2.587 0-1.101.307-1.959.923-2.574.615-.615 1.456-.923 2.522-.923.407 0 .788.048 1.144.143.355.087.641.217.858.39v1.027a3.711 3.711 0 0 0-1.989-.546c-.78 0-1.357.208-1.729.624-.373.407-.559 1.027-.559 1.859 0 .832.177 1.456.533 1.872.364.407.927.611 1.69.611.736 0 1.421-.178 2.054-.533v1.027c-.564.355-1.248.533-2.054.533Zm5.644-6.877h5.421v.975h-2.158V184h-1.144v-5.772h-2.119v-.975Zm6.742 0h1.001l.117 1.313c.216-.433.515-.78.897-1.04.39-.269.866-.403 1.43-.403.528 0 1.014.13 1.456.39.45.251.814.637 1.092 1.157.277.511.416 1.161.416 1.95 0 .789-.143 1.443-.429 1.963-.278.52-.646.91-1.105 1.17a2.997 2.997 0 0 1-1.482.377c-.512 0-.958-.121-1.339-.364a2.6 2.6 0 0 1-.91-1.001v3.536h-1.144v-9.048Zm5.226 3.367c0-.815-.187-1.43-.559-1.846-.373-.425-.854-.637-1.443-.637a2.01 2.01 0 0 0-1.495.624c-.399.407-.598 1.027-.598 1.859 0 .841.199 1.465.598 1.872.407.407.905.611 1.495.611.589 0 1.07-.208 1.443-.624.372-.416.559-1.036.559-1.859Zm4.793-2.483c-.719 0-1.447.221-2.184.663v-1.027a4.147 4.147 0 0 1 1.105-.468 4.5 4.5 0 0 1 1.235-.182c.849 0 1.495.178 1.937.533.442.355.663.897.663 1.625v3.627c0 .147.004.338.013.572.017.225.035.399.052.52h-1.04a5.896 5.896 0 0 1-.078-.507 7.937 7.937 0 0 1-.026-.585l-.013-.195a3.627 3.627 0 0 1-.429.65 2.166 2.166 0 0 1-.728.546c-.295.147-.663.221-1.105.221-.607 0-1.096-.173-1.469-.52-.373-.347-.559-.836-.559-1.469 0-.737.26-1.278.78-1.625s1.252-.52 2.197-.52h1.261v-.559c0-.468-.121-.802-.364-1.001-.243-.199-.659-.299-1.248-.299Zm1.612 3.263v-.494h-1.144c-.685 0-1.183.1-1.495.299-.303.199-.455.49-.455.871 0 .303.091.55.273.741.191.191.477.286.858.286.355 0 .659-.069.91-.208.251-.147.455-.321.611-.52a2.44 2.44 0 0 0 .338-.585c.069-.182.104-.312.104-.39Zm4.087-4.147v2.782h3.263v-2.782h1.144V184h-1.144v-2.99h-3.263V184h-1.144v-6.747h1.144Zm9.195 6.877c-1.049 0-1.877-.308-2.483-.923-.607-.624-.91-1.486-.91-2.587 0-1.101.307-1.959.923-2.574.615-.615 1.456-.923 2.522-.923.407 0 .788.048 1.144.143.355.087.641.217.858.39v1.027a3.711 3.711 0 0 0-1.989-.546c-.78 0-1.357.208-1.729.624-.373.407-.559 1.027-.559 1.859 0 .832.177 1.456.533 1.872.364.407.927.611 1.69.611.736 0 1.421-.178 2.054-.533v1.027c-.564.355-1.248.533-2.054.533Zm7.878-9.581v2.6a4.465 4.465 0 0 1 1.82.442c.546.269.979.654 1.3 1.157.329.503.494 1.127.494 1.872 0 .745-.165 1.374-.494 1.885a3.148 3.148 0 0 1-1.3 1.17 4.606 4.606 0 0 1-1.82.429v2.197h-1.144v-2.197a4.49 4.49 0 0 1-1.833-.442 3.26 3.26 0 0 1-1.313-1.157c-.321-.511-.481-1.14-.481-1.885 0-.745.16-1.369.481-1.872a3.14 3.14 0 0 1 1.313-1.157 4.554 4.554 0 0 1 1.833-.442v-2.6h1.144Zm2.444 6.071c0-.555-.109-1.01-.325-1.365a2.097 2.097 0 0 0-.884-.806 3.129 3.129 0 0 0-1.235-.312v4.966c.468-.026.884-.13 1.248-.312.372-.182.663-.451.871-.806.216-.355.325-.81.325-1.365Zm-6.045 0c0 .555.108 1.014.325 1.378.216.355.511.624.884.806.372.173.788.273 1.248.299v-4.966a3.108 3.108 0 0 0-1.261.325 2.106 2.106 0 0 0-.871.806c-.217.355-.325.806-.325 1.352Zm11.606 3.51c-1.126 0-1.989-.308-2.587-.923-.589-.624-.884-1.486-.884-2.587 0-.737.139-1.365.416-1.885.278-.52.659-.919 1.144-1.196a3.249 3.249 0 0 1 1.638-.416c1.032 0 1.79.342 2.275 1.027.486.676.642 1.603.468 2.782h-4.758c.096 1.447.893 2.171 2.392 2.171a3.98 3.98 0 0 0 2.275-.702v1.027c-.312.217-.676.39-1.092.52a4.585 4.585 0 0 1-1.287.182Zm-.299-5.993a1.9 1.9 0 0 0-1.274.455c-.355.303-.58.763-.676 1.378h3.627c.026-.581-.108-1.031-.403-1.352-.294-.321-.719-.481-1.274-.481Zm4.304-.884h1.001l.117 1.313c.217-.433.516-.78.897-1.04.39-.269.867-.403 1.43-.403.529 0 1.014.13 1.456.39.451.251.815.637 1.092 1.157.278.511.416 1.161.416 1.95 0 .789-.143 1.443-.429 1.963-.277.52-.645.91-1.105 1.17-.45.251-.944.377-1.482.377-.511 0-.957-.121-1.339-.364a2.616 2.616 0 0 1-.91-1.001v3.536h-1.144v-9.048Zm5.226 3.367c0-.815-.186-1.43-.559-1.846-.372-.425-.853-.637-1.443-.637-.589 0-1.087.208-1.495.624-.398.407-.598 1.027-.598 1.859 0 .841.2 1.465.598 1.872.408.407.906.611 1.495.611.59 0 1.071-.208 1.443-.624.373-.416.559-1.036.559-1.859Zm4.794-2.483c-.719 0-1.447.221-2.184.663v-1.027a4.147 4.147 0 0 1 1.105-.468 4.5 4.5 0 0 1 1.235-.182c.849 0 1.495.178 1.937.533.442.355.663.897.663 1.625v3.627c0 .147.004.338.013.572.017.225.035.399.052.52h-1.04a5.896 5.896 0 0 1-.078-.507 7.937 7.937 0 0 1-.026-.585l-.013-.195a3.627 3.627 0 0 1-.429.65 2.166 2.166 0 0 1-.728.546c-.295.147-.663.221-1.105.221-.607 0-1.096-.173-1.469-.52-.373-.347-.559-.836-.559-1.469 0-.737.26-1.278.78-1.625s1.252-.52 2.197-.52h1.261v-.559c0-.468-.121-.802-.364-1.001-.243-.199-.659-.299-1.248-.299Zm1.612 3.263v-.494h-1.144c-.685 0-1.183.1-1.495.299-.303.199-.455.49-.455.871 0 .303.091.55.273.741.191.191.477.286.858.286.355 0 .659-.069.91-.208.251-.147.455-.321.611-.52a2.44 2.44 0 0 0 .338-.585c.069-.182.104-.312.104-.39Z"/>
    <rect width="300" height="60" x="200" y="30" fill="#EEF3FE" rx="10"/>
    <path fill="#262626" d="m287.425 62.778.208.039c.087.009.2.013.338.013.408 0 .724-.091.949-.273.234-.19.451-.477.65-.858l-3.458-7.02h1.391l2.691 5.616 2.327-5.616h1.261l-2.951 6.799c-.39.893-.797 1.547-1.222 1.963-.416.407-.957.611-1.625.611-.138 0-.251-.009-.338-.026a5.612 5.612 0 0 1-.221-.026v-1.222Zm9.485 1.352c-1.049 0-1.877-.308-2.483-.923-.607-.624-.91-1.486-.91-2.587 0-1.1.307-1.959.923-2.574.615-.615 1.456-.923 2.522-.923.407 0 .788.048 1.144.143.355.087.641.217.858.39v1.027a3.711 3.711 0 0 0-1.989-.546c-.78 0-1.357.208-1.729.624-.373.407-.559 1.027-.559 1.859 0 .832.177 1.456.533 1.872.364.407.927.611 1.69.611.736 0 1.421-.178 2.054-.533v1.027c-.564.355-1.248.533-2.054.533Zm3.042-6.877h5.421v.975h-2.158V64h-1.144v-5.772h-2.119v-.975Zm6.741 0h1.001l.117 1.313c.217-.433.516-.78.897-1.04.39-.269.867-.403 1.43-.403.529 0 1.014.13 1.456.39.451.251.815.637 1.092 1.157.277.511.416 1.161.416 1.95 0 .789-.143 1.443-.429 1.963-.277.52-.646.91-1.105 1.17a2.994 2.994 0 0 1-1.482.377c-.511 0-.958-.121-1.339-.364a2.609 2.609 0 0 1-.91-1.001v3.536h-1.144v-9.048Zm5.226 3.367c0-.815-.186-1.43-.559-1.846-.373-.425-.854-.637-1.443-.637-.589 0-1.088.208-1.495.624-.399.407-.598 1.027-.598 1.859 0 .84.199 1.465.598 1.872.407.407.906.611 1.495.611.589 0 1.07-.208 1.443-.624.373-.416.559-1.036.559-1.859Zm4.793-2.483c-.719 0-1.447.221-2.184.663v-1.027c.321-.2.689-.355 1.105-.468a4.494 4.494 0 0 1 1.235-.182c.85 0 1.495.178 1.937.533.442.355.663.897.663 1.625v3.627c0 .147.005.338.013.572.018.225.035.399.052.52h-1.04a5.934 5.934 0 0 1-.078-.507 7.95 7.95 0 0 1-.026-.585l-.013-.195a3.638 3.638 0 0 1-.429.65 2.164 2.164 0 0 1-.728.546c-.294.147-.663.221-1.105.221-.606 0-1.096-.173-1.469-.52-.372-.347-.559-.836-.559-1.469 0-.737.26-1.278.78-1.625s1.253-.52 2.197-.52h1.261v-.559c0-.468-.121-.802-.364-1.001-.242-.2-.658-.299-1.248-.299Zm1.612 3.263v-.494h-1.144c-.684 0-1.183.1-1.495.299-.303.2-.455.49-.455.871 0 .303.091.55.273.741.191.19.477.286.858.286.356 0 .659-.07.91-.208.252-.147.455-.32.611-.52a2.44 2.44 0 0 0 .338-.585c.07-.182.104-.312.104-.39Zm4.087-4.147v2.782h3.263v-2.782h1.144V64h-1.144v-2.99h-3.263V64h-1.144v-6.747h1.144ZM328.213 64l1.95-2.73c-.46-.13-.819-.342-1.079-.637s-.39-.693-.39-1.196c0-.511.121-.927.364-1.248.242-.32.576-.555 1.001-.702.424-.156.91-.234 1.456-.234h2.171V64h-1.144v-2.444h-1.235L329.578 64h-1.365Zm3.302-5.772c-.486 0-.884.091-1.196.273-.312.182-.468.477-.468.884 0 .425.138.732.416.923.286.182.68.273 1.183.273h1.092v-2.353h-1.027Zm7.037 5.902c-1.127 0-1.989-.308-2.587-.923-.589-.624-.884-1.486-.884-2.587 0-.737.139-1.365.416-1.885a2.93 2.93 0 0 1 1.144-1.196 3.24 3.24 0 0 1 1.638-.416c1.031 0 1.79.342 2.275 1.027.485.676.641 1.603.468 2.782h-4.758c.095 1.447.893 2.171 2.392 2.171.823 0 1.582-.234 2.275-.702v1.027c-.312.217-.676.39-1.092.52a4.574 4.574 0 0 1-1.287.182Zm-.299-5.993c-.494 0-.919.152-1.274.455-.355.303-.581.763-.676 1.378h3.627c.026-.58-.108-1.031-.403-1.352-.295-.32-.719-.481-1.274-.481Zm4.304-.884h1.703l2.067 4.524 2.21-4.524h1.586V64h-1.131v-5.421l-2.288 4.667h-.91l-2.158-4.693V64h-1.079v-6.747ZM354.592 64v-6.747H360V64h-1.144v-5.772h-3.12V64h-1.144Zm7.275-6.747h1.001l.117 1.313c.216-.433.515-.78.897-1.04.39-.269.866-.403 1.43-.403.528 0 1.014.13 1.456.39.45.251.814.637 1.092 1.157.277.511.416 1.161.416 1.95 0 .789-.143 1.443-.429 1.963-.278.52-.646.91-1.105 1.17a2.994 2.994 0 0 1-1.482.377c-.512 0-.958-.121-1.339-.364a2.6 2.6 0 0 1-.91-1.001v3.536h-1.144v-9.048Zm5.226 3.367c0-.815-.187-1.43-.559-1.846-.373-.425-.854-.637-1.443-.637a2.01 2.01 0 0 0-1.495.624c-.399.407-.598 1.027-.598 1.859 0 .84.199 1.465.598 1.872.407.407.905.611 1.495.611.589 0 1.07-.208 1.443-.624.372-.416.559-1.036.559-1.859Zm5.338 3.51a3.42 3.42 0 0 1-1.664-.403 3.012 3.012 0 0 1-1.157-1.196c-.286-.529-.429-1.166-.429-1.911 0-.745.143-1.378.429-1.898.286-.52.671-.914 1.157-1.183a3.338 3.338 0 0 1 1.664-.416 3.37 3.37 0 0 1 1.677.416c.494.269.884.663 1.17 1.183.286.52.429 1.153.429 1.898 0 .745-.143 1.382-.429 1.911a2.99 2.99 0 0 1-1.17 1.196c-.494.269-1.053.403-1.677.403Zm0-1.027c.606 0 1.109-.2 1.508-.598.398-.407.598-1.036.598-1.885 0-.85-.2-1.473-.598-1.872-.399-.407-.902-.611-1.508-.611-.598 0-1.097.204-1.495.611-.39.399-.585 1.023-.585 1.872 0 .85.195 1.478.585 1.885.398.399.897.598 1.495.598Zm7.725-5.941c.572 0 1.083.134 1.534.403.459.269.823.663 1.092 1.183.269.511.403 1.135.403 1.872 0 .745-.143 1.382-.429 1.911a2.99 2.99 0 0 1-1.17 1.196c-.494.269-1.053.403-1.677.403-.633 0-1.196-.143-1.69-.429-.485-.295-.867-.737-1.144-1.326-.277-.59-.416-1.339-.416-2.249 0-.988.056-1.811.169-2.47.121-.659.308-1.196.559-1.612a2.836 2.836 0 0 1 1.014-1.014c.208-.121.425-.217.65-.286.225-.07.507-.121.845-.156.347-.043.789-.074 1.326-.091.338-.026.624-.07.858-.13a2.76 2.76 0 0 0 .637-.247v1.04a2.248 2.248 0 0 1-.546.247 5.644 5.644 0 0 1-.832.13c-.511.052-.919.087-1.222.104a5.763 5.763 0 0 0-.715.078 1.982 1.982 0 0 0-1.391 1.144c-.191.407-.321 1.014-.39 1.82.451-1.014 1.296-1.521 2.535-1.521Zm-.247 5.941c.607 0 1.109-.2 1.508-.598.399-.407.598-1.036.598-1.885 0-.85-.199-1.473-.598-1.872-.399-.407-.901-.611-1.508-.611-.598 0-1.096.2-1.495.598-.39.399-.585 1.014-.585 1.846 0 .867.195 1.504.585 1.911.399.407.897.611 1.495.611Zm3.971-.221c.52.078.876-.247 1.066-.975.07-.26.126-.585.169-.975.044-.399.074-.893.091-1.482.018-.598.026-1.33.026-2.197h4.667V64h-1.157v-5.772h-2.431a34.433 34.433 0 0 1-.091 2.483 9.132 9.132 0 0 1-.221 1.547c-.164.65-.416 1.114-.754 1.391-.338.277-.793.399-1.365.364v-1.131Zm10.874 1.248c-1.127 0-1.989-.308-2.587-.923-.589-.624-.884-1.486-.884-2.587 0-.737.139-1.365.416-1.885a2.93 2.93 0 0 1 1.144-1.196 3.24 3.24 0 0 1 1.638-.416c1.031 0 1.79.342 2.275 1.027.485.676.641 1.603.468 2.782h-4.758c.095 1.447.893 2.171 2.392 2.171.823 0 1.582-.234 2.275-.702v1.027c-.312.217-.676.39-1.092.52a4.574 4.574 0 0 1-1.287.182Zm-.299-5.993c-.494 0-.919.152-1.274.455-.355.303-.581.763-.676 1.378h3.627c.026-.58-.108-1.031-.403-1.352-.295-.32-.719-.481-1.274-.481Zm4.304-.884h1.703l2.067 4.524 2.21-4.524h1.586V64h-1.131v-5.421l-2.288 4.667h-.91l-2.158-4.693V64h-1.079v-6.747Zm10.018 9.178c-.355 0-.65-.048-.884-.143v-1.105c.173.147.455.221.845.221.303 0 .559-.074.767-.221.217-.139.425-.381.624-.728l-2.743-7.202h1.261l2.145 5.694 2.132-5.694h1.105l-2.522 6.669c-.347.893-.732 1.534-1.157 1.924-.425.39-.949.585-1.573.585Z"/>
    <rect width="300" height="60" x="30" y="270" fill="#EEF3FE" rx="10"/>
    <path fill="#262626" d="M101.105 294.679h2.977c1.058 0 1.877.221 2.457.663.59.433.884 1.114.884 2.041 0 .702-.147 1.274-.442 1.716a2.505 2.505 0 0 1-1.209.975c-.511.199-1.109.299-1.794.299h-1.651V304h-1.222v-9.321Zm2.873 4.589c.659 0 1.192-.143 1.599-.429.408-.286.611-.767.611-1.443 0-.563-.182-.971-.546-1.222-.364-.251-.884-.377-1.56-.377h-1.755v3.471h1.651Zm6.864-1.131c-.72 0-1.448.221-2.184.663v-1.027c.32-.199.689-.355 1.105-.468a4.495 4.495 0 0 1 1.235-.182c.849 0 1.495.178 1.937.533.442.355.663.897.663 1.625v3.627c0 .147.004.338.013.572.017.225.034.399.052.52h-1.04a5.896 5.896 0 0 1-.078-.507 7.42 7.42 0 0 1-.026-.585l-.013-.195a3.627 3.627 0 0 1-.429.65 2.166 2.166 0 0 1-.728.546c-.295.147-.663.221-1.105.221-.607 0-1.097-.173-1.469-.52-.373-.347-.559-.836-.559-1.469 0-.737.26-1.278.78-1.625s1.252-.52 2.197-.52h1.261v-.559c0-.468-.122-.802-.364-1.001-.243-.199-.659-.299-1.248-.299Zm1.612 3.263v-.494h-1.144c-.685 0-1.183.1-1.495.299-.304.199-.455.49-.455.871 0 .303.091.55.273.741.19.191.476.286.858.286.355 0 .658-.069.91-.208.251-.147.455-.321.611-.52.156-.208.268-.403.338-.585.069-.182.104-.312.104-.39Zm5.997-4.238c.572 0 1.084.134 1.534.403.46.269.824.663 1.092 1.183.269.511.403 1.135.403 1.872 0 .745-.143 1.382-.429 1.911-.286.52-.676.919-1.17 1.196-.494.269-1.053.403-1.677.403-.632 0-1.196-.143-1.69-.429-.485-.295-.866-.737-1.144-1.326-.277-.589-.416-1.339-.416-2.249 0-.988.057-1.811.169-2.47.122-.659.308-1.196.559-1.612.252-.425.59-.763 1.014-1.014.208-.121.425-.217.65-.286a4.55 4.55 0 0 1 .845-.156c.347-.043.789-.074 1.326-.091.338-.026.624-.069.858-.13.234-.061.447-.143.637-.247v1.04a2.226 2.226 0 0 1-.546.247 5.662 5.662 0 0 1-.832.13c-.511.052-.918.087-1.222.104a5.671 5.671 0 0 0-.715.078 1.987 1.987 0 0 0-1.391 1.144c-.19.407-.32 1.014-.39 1.82.451-1.014 1.296-1.521 2.535-1.521Zm-.247 5.941c.607 0 1.11-.199 1.508-.598.399-.407.598-1.036.598-1.885s-.199-1.473-.598-1.872c-.398-.407-.901-.611-1.508-.611-.598 0-1.096.199-1.495.598-.39.399-.585 1.014-.585 1.846 0 .867.195 1.504.585 1.911.399.407.897.611 1.495.611Zm7.477 1.027c-.615 0-1.17-.134-1.664-.403a3.016 3.016 0 0 1-1.157-1.196c-.286-.529-.429-1.166-.429-1.911 0-.745.143-1.378.429-1.898a2.93 2.93 0 0 1 1.157-1.183 3.344 3.344 0 0 1 1.664-.416 3.37 3.37 0 0 1 1.677.416c.494.269.884.663 1.17 1.183.286.52.429 1.153.429 1.898 0 .745-.143 1.382-.429 1.911-.286.52-.676.919-1.17 1.196-.494.269-1.053.403-1.677.403Zm0-1.027c.607 0 1.109-.199 1.508-.598.399-.407.598-1.036.598-1.885s-.199-1.473-.598-1.872c-.399-.407-.901-.611-1.508-.611-.598 0-1.096.204-1.495.611-.39.399-.585 1.023-.585 1.872 0 .849.195 1.478.585 1.885.399.399.897.598 1.495.598Zm3.934-5.85h5.421v.975h-2.158V304h-1.144v-5.772h-2.119v-.975Zm8.839.884c-.719 0-1.447.221-2.184.663v-1.027a4.147 4.147 0 0 1 1.105-.468 4.5 4.5 0 0 1 1.235-.182c.849 0 1.495.178 1.937.533.442.355.663.897.663 1.625v3.627c0 .147.004.338.013.572.017.225.035.399.052.52h-1.04a5.896 5.896 0 0 1-.078-.507 7.937 7.937 0 0 1-.026-.585l-.013-.195a3.627 3.627 0 0 1-.429.65 2.166 2.166 0 0 1-.728.546c-.295.147-.663.221-1.105.221-.607 0-1.096-.173-1.469-.52-.373-.347-.559-.836-.559-1.469 0-.737.26-1.278.78-1.625s1.252-.52 2.197-.52h1.261v-.559c0-.468-.121-.802-.364-1.001-.243-.199-.659-.299-1.248-.299Zm1.612 3.263v-.494h-1.144c-.685 0-1.183.1-1.495.299-.303.199-.455.49-.455.871 0 .303.091.55.273.741.191.191.477.286.858.286.355 0 .659-.069.91-.208.251-.147.455-.321.611-.52a2.44 2.44 0 0 0 .338-.585c.069-.182.104-.312.104-.39Zm5.933 2.73c-1.127 0-1.989-.308-2.587-.923-.59-.624-.884-1.486-.884-2.587 0-.737.138-1.365.416-1.885.277-.52.658-.919 1.144-1.196a3.244 3.244 0 0 1 1.638-.416c1.031 0 1.789.342 2.275 1.027.485.676.641 1.603.468 2.782h-4.758c.095 1.447.892 2.171 2.392 2.171.823 0 1.581-.234 2.275-.702v1.027c-.312.217-.676.39-1.092.52a4.585 4.585 0 0 1-1.287.182Zm-.299-5.993c-.494 0-.919.152-1.274.455-.356.303-.581.763-.676 1.378h3.627c.026-.581-.109-1.031-.403-1.352-.295-.321-.72-.481-1.274-.481Zm3.694-.884h5.421v.975h-2.158V304h-1.144v-5.772h-2.119v-.975Zm12.581 8.554h-1.131a7.875 7.875 0 0 1-1.508-2.652 9.971 9.971 0 0 1-.494-3.146c0-.737.074-1.46.221-2.171a8.938 8.938 0 0 1 .663-2.015 6.444 6.444 0 0 1 1.118-1.651h1.131a5.648 5.648 0 0 0-1.157 1.612 8.938 8.938 0 0 0-.663 2.015 11.363 11.363 0 0 0-.208 2.171c0 1.101.161 2.154.481 3.159a7.417 7.417 0 0 0 1.547 2.678Zm1.515-11.128h2.977c1.057 0 1.876.221 2.457.663.589.433.884 1.114.884 2.041 0 .702-.147 1.274-.442 1.716a2.505 2.505 0 0 1-1.209.975c-.511.199-1.109.299-1.794.299h-1.651V304h-1.222v-9.321Zm2.873 4.589c.659 0 1.192-.143 1.599-.429.407-.286.611-.767.611-1.443 0-.563-.182-.971-.546-1.222-.364-.251-.884-.377-1.56-.377h-1.755v3.471h1.651Zm7.565 4.862c-1.126 0-1.989-.308-2.587-.923-.589-.624-.884-1.486-.884-2.587 0-.737.139-1.365.416-1.885.278-.52.659-.919 1.144-1.196a3.249 3.249 0 0 1 1.638-.416c1.032 0 1.79.342 2.275 1.027.486.676.642 1.603.468 2.782h-4.758c.096 1.447.893 2.171 2.392 2.171a3.98 3.98 0 0 0 2.275-.702v1.027c-.312.217-.676.39-1.092.52a4.585 4.585 0 0 1-1.287.182Zm-.299-5.993a1.9 1.9 0 0 0-1.274.455c-.355.303-.58.763-.676 1.378h3.627c.026-.581-.108-1.031-.403-1.352-.294-.321-.719-.481-1.274-.481Zm4.305 5.863v-6.747h5.408V304h-1.144v-5.772h-3.12V304h-1.144Zm6.728-1.118c.52.078.875-.247 1.066-.975.069-.26.126-.585.169-.975.043-.399.074-.893.091-1.482.017-.598.026-1.33.026-2.197h4.667V304h-1.157v-5.772h-2.431a35.035 35.035 0 0 1-.091 2.483 9.137 9.137 0 0 1-.221 1.547c-.165.65-.416 1.114-.754 1.391-.338.277-.793.399-1.365.364v-1.131Zm9.028-5.629v5.161l3.471-5.161h1.157V304h-1.144v-5.148L193.716 304h-1.17v-6.747h1.144Zm6.498 6.747v-6.747h1.144v5.772h3.185v-5.772h1.144v5.772h1.014v2.899h-.975l-.143-1.924h-5.369Zm8.825-6.747v5.161l3.471-5.161h1.157V304h-1.144v-5.148L209.039 304h-1.17v-6.747h1.144Zm6.499 0h1.001l.117 1.313c.216-.433.515-.78.897-1.04.39-.269.866-.403 1.43-.403.528 0 1.014.13 1.456.39.45.251.814.637 1.092 1.157.277.511.416 1.161.416 1.95 0 .789-.143 1.443-.429 1.963-.278.52-.646.91-1.105 1.17a2.997 2.997 0 0 1-1.482.377c-.512 0-.958-.121-1.339-.364a2.6 2.6 0 0 1-.91-1.001v3.536h-1.144v-9.048Zm5.226 3.367c0-.815-.187-1.43-.559-1.846-.373-.425-.854-.637-1.443-.637a2.01 2.01 0 0 0-1.495.624c-.399.407-.598 1.027-.598 1.859 0 .841.199 1.465.598 1.872.407.407.905.611 1.495.611.589 0 1.07-.208 1.443-.624.372-.416.559-1.036.559-1.859Zm3.09 5.811c-.355 0-.65-.048-.884-.143v-1.105c.173.147.455.221.845.221.303 0 .559-.074.767-.221.217-.139.425-.381.624-.728l-2.743-7.202h1.261l2.145 5.694 2.132-5.694h1.105l-2.522 6.669c-.347.893-.732 1.534-1.157 1.924-.425.39-.949.585-1.573.585Zm9.184-2.301c-1.126 0-1.989-.308-2.587-.923-.589-.624-.884-1.486-.884-2.587 0-.737.139-1.365.416-1.885.278-.52.659-.919 1.144-1.196a3.249 3.249 0 0 1 1.638-.416c1.032 0 1.79.342 2.275 1.027.486.676.642 1.603.468 2.782h-4.758c.096 1.447.893 2.171 2.392 2.171a3.98 3.98 0 0 0 2.275-.702v1.027c-.312.217-.676.39-1.092.52a4.585 4.585 0 0 1-1.287.182Zm-.299-5.993a1.9 1.9 0 0 0-1.274.455c-.355.303-.58.763-.676 1.378h3.627c.026-.581-.108-1.031-.403-1.352-.294-.321-.719-.481-1.274-.481Zm3.695-.884h5.421v.975h-2.158V304h-1.144v-5.772h-2.119v-.975Zm9.463 6.877c-1.049 0-1.876-.308-2.483-.923-.607-.624-.91-1.486-.91-2.587 0-1.101.308-1.959.923-2.574.615-.615 1.456-.923 2.522-.923.407 0 .789.048 1.144.143.355.087.641.217.858.39v1.027a3.706 3.706 0 0 0-1.989-.546c-.78 0-1.356.208-1.729.624-.373.407-.559 1.027-.559 1.859 0 .832.178 1.456.533 1.872.364.407.927.611 1.69.611.737 0 1.421-.178 2.054-.533v1.027c-.563.355-1.248.533-2.054.533Zm3.107-.13 1.95-2.73c-.459-.13-.819-.342-1.079-.637s-.39-.693-.39-1.196c0-.511.121-.927.364-1.248a2.062 2.062 0 0 1 1.001-.702c.425-.156.91-.234 1.456-.234h2.171V304h-1.144v-2.444h-1.235L250.343 304h-1.365Zm3.302-5.772c-.485 0-.884.091-1.196.273-.312.182-.468.477-.468.884 0 .425.139.732.416.923.286.182.68.273 1.183.273h1.092v-2.353h-1.027Zm3.54 7.579a7.259 7.259 0 0 0 1.534-2.678c.329-1.005.494-2.058.494-3.159 0-.737-.074-1.46-.221-2.171a8.12 8.12 0 0 0-.663-2.015 5.444 5.444 0 0 0-1.144-1.612h1.131a6.018 6.018 0 0 1 1.118 1.651c.295.624.516 1.296.663 2.015.147.711.221 1.434.221 2.171a9.729 9.729 0 0 1-.507 3.146 7.696 7.696 0 0 1-1.495 2.652h-1.131Z"/>
    <rect width="300" height="60" x="370" y="270" fill="#EEF3FE" rx="10"/>
    <path fill="#262626" d="M458.183 304.13c-.832 0-1.586-.186-2.262-.559a4.098 4.098 0 0 1-1.612-1.625c-.39-.719-.585-1.599-.585-2.639 0-1.04.195-1.911.585-2.613.399-.711.936-1.244 1.612-1.599s1.43-.533 2.262-.533c.85 0 1.608.182 2.275.546a3.86 3.86 0 0 1 1.599 1.586c.39.702.585 1.577.585 2.626 0 1.031-.195 1.907-.585 2.626a4.011 4.011 0 0 1-1.599 1.625c-.667.373-1.425.559-2.275.559Zm0-1.105c.598 0 1.136-.121 1.612-.364.477-.243.85-.633 1.118-1.17.278-.546.416-1.261.416-2.145 0-.893-.138-1.608-.416-2.145-.268-.537-.641-.927-1.118-1.17-.476-.243-1.014-.364-1.612-.364-.598 0-1.135.121-1.612.364-.468.243-.84.633-1.118 1.17-.277.537-.416 1.252-.416 2.145 0 .884.139 1.599.416 2.145.278.537.65.927 1.118 1.17a3.499 3.499 0 0 0 1.612.364Zm8.911 1.105c-1.049 0-1.877-.308-2.483-.923-.607-.624-.91-1.486-.91-2.587 0-1.101.307-1.959.923-2.574.615-.615 1.456-.923 2.522-.923.407 0 .788.048 1.144.143.355.087.641.217.858.39v1.027a3.711 3.711 0 0 0-1.989-.546c-.78 0-1.357.208-1.729.624-.373.407-.559 1.027-.559 1.859 0 .832.177 1.456.533 1.872.364.407.927.611 1.69.611.736 0 1.421-.178 2.054-.533v1.027c-.564.355-1.248.533-2.054.533Zm3.042-6.877h5.421v.975h-2.158V304h-1.144v-5.772h-2.119v-.975Zm8.838.884c-.719 0-1.447.221-2.184.663v-1.027a4.147 4.147 0 0 1 1.105-.468 4.505 4.505 0 0 1 1.235-.182c.85 0 1.495.178 1.937.533.442.355.663.897.663 1.625v3.627c0 .147.005.338.013.572.018.225.035.399.052.52h-1.04a5.896 5.896 0 0 1-.078-.507 7.937 7.937 0 0 1-.026-.585l-.013-.195a3.627 3.627 0 0 1-.429.65 2.156 2.156 0 0 1-.728.546c-.294.147-.663.221-1.105.221-.606 0-1.096-.173-1.469-.52-.372-.347-.559-.836-.559-1.469 0-.737.26-1.278.78-1.625s1.253-.52 2.197-.52h1.261v-.559c0-.468-.121-.802-.364-1.001-.242-.199-.658-.299-1.248-.299Zm1.612 3.263v-.494h-1.144c-.684 0-1.183.1-1.495.299-.303.199-.455.49-.455.871 0 .303.091.55.273.741.191.191.477.286.858.286.356 0 .659-.069.91-.208.252-.147.455-.321.611-.52a2.44 2.44 0 0 0 .338-.585c.07-.182.104-.312.104-.39Zm4.087-4.147v2.782h3.263v-2.782h1.144V304h-1.144v-2.99h-3.263V304h-1.144v-6.747h1.144Zm9.052 6.877c-.615 0-1.17-.134-1.664-.403a3.016 3.016 0 0 1-1.157-1.196c-.286-.529-.429-1.166-.429-1.911 0-.745.143-1.378.429-1.898a2.93 2.93 0 0 1 1.157-1.183 3.344 3.344 0 0 1 1.664-.416 3.37 3.37 0 0 1 1.677.416c.494.269.884.663 1.17 1.183.286.52.429 1.153.429 1.898 0 .745-.143 1.382-.429 1.911-.286.52-.676.919-1.17 1.196-.494.269-1.053.403-1.677.403Zm0-1.027c.607 0 1.109-.199 1.508-.598.399-.407.598-1.036.598-1.885s-.199-1.473-.598-1.872c-.399-.407-.901-.611-1.508-.611-.598 0-1.096.204-1.495.611-.39.399-.585 1.023-.585 1.872 0 .849.195 1.478.585 1.885.399.399.897.598 1.495.598Zm7.296.897h-2.626v-6.747h2.652c.806 0 1.417.143 1.833.429.425.277.637.715.637 1.313 0 .39-.104.706-.312.949-.199.243-.485.416-.858.52.962.156 1.443.689 1.443 1.599 0 .459-.121.832-.364 1.118-.234.286-.559.494-.975.624-.416.13-.892.195-1.43.195Zm.013-5.772h-1.495v1.833h1.404c.434 0 .78-.078 1.04-.234.269-.156.403-.381.403-.676 0-.355-.117-.598-.351-.728-.234-.13-.567-.195-1.001-.195Zm-.026 2.743h-1.469v2.054h1.469c.486 0 .876-.069 1.17-.208.295-.147.442-.412.442-.793 0-.381-.134-.65-.403-.806-.268-.165-.671-.247-1.209-.247Zm3.887 1.911c.52.078.876-.247 1.066-.975.07-.26.126-.585.169-.975.044-.399.074-.893.091-1.482.018-.598.026-1.33.026-2.197h4.667V304h-1.157v-5.772h-2.431a34.44 34.44 0 0 1-.091 2.483 9.137 9.137 0 0 1-.221 1.547c-.164.65-.416 1.114-.754 1.391-.338.277-.793.399-1.365.364v-1.131Zm10.874 1.248c-1.126 0-1.989-.308-2.587-.923-.589-.624-.884-1.486-.884-2.587 0-.737.139-1.365.416-1.885.278-.52.659-.919 1.144-1.196a3.249 3.249 0 0 1 1.638-.416c1.032 0 1.79.342 2.275 1.027.486.676.642 1.603.468 2.782h-4.758c.096 1.447.893 2.171 2.392 2.171a3.98 3.98 0 0 0 2.275-.702v1.027c-.312.217-.676.39-1.092.52a4.585 4.585 0 0 1-1.287.182Zm-.299-5.993a1.9 1.9 0 0 0-1.274.455c-.355.303-.58.763-.676 1.378h3.627c.026-.581-.108-1.031-.403-1.352-.294-.321-.719-.481-1.274-.481Zm5.448-.884v2.782h3.263v-2.782h1.144V304h-1.144v-2.99h-3.263V304h-1.144v-6.747h1.144Zm12.123 8.554h-1.131a7.858 7.858 0 0 1-1.508-2.652 9.943 9.943 0 0 1-.494-3.146c0-.737.073-1.46.221-2.171a8.839 8.839 0 0 1 .663-2.015 6.42 6.42 0 0 1 1.118-1.651h1.131a5.629 5.629 0 0 0-1.157 1.612 8.839 8.839 0 0 0-.663 2.015 11.283 11.283 0 0 0-.208 2.171c0 1.101.16 2.154.481 3.159a7.402 7.402 0 0 0 1.547 2.678Zm5.427-1.677c-.832 0-1.586-.186-2.262-.559a4.098 4.098 0 0 1-1.612-1.625c-.39-.719-.585-1.599-.585-2.639 0-1.04.195-1.911.585-2.613.399-.711.936-1.244 1.612-1.599s1.43-.533 2.262-.533c.85 0 1.608.182 2.275.546a3.86 3.86 0 0 1 1.599 1.586c.39.702.585 1.577.585 2.626 0 1.031-.195 1.907-.585 2.626a4.011 4.011 0 0 1-1.599 1.625c-.667.373-1.425.559-2.275.559Zm0-1.105c.598 0 1.136-.121 1.612-.364.477-.243.85-.633 1.118-1.17.278-.546.416-1.261.416-2.145 0-.893-.138-1.608-.416-2.145-.268-.537-.641-.927-1.118-1.17-.476-.243-1.014-.364-1.612-.364-.598 0-1.135.121-1.612.364-.468.243-.84.633-1.118 1.17-.277.537-.416 1.252-.416 2.145 0 .884.139 1.599.416 2.145.278.537.65.927 1.118 1.17a3.499 3.499 0 0 0 1.612.364Zm14.359-5.772V304h-8.424v-6.747h1.144v5.772h2.496v-5.772h1.144v5.772h2.496v-5.772h1.144Zm3.016 0v5.161l3.471-5.161h1.157V304h-1.144v-5.148L555.869 304h-1.17v-6.747h1.144Zm9.554-.091c.572 0 1.083.134 1.534.403.459.269.823.663 1.092 1.183.268.511.403 1.135.403 1.872 0 .745-.143 1.382-.429 1.911-.286.52-.676.919-1.17 1.196-.494.269-1.053.403-1.677.403-.633 0-1.196-.143-1.69-.429-.486-.295-.867-.737-1.144-1.326-.278-.589-.416-1.339-.416-2.249 0-.988.056-1.811.169-2.47.121-.659.307-1.196.559-1.612a2.832 2.832 0 0 1 1.014-1.014c.208-.121.424-.217.65-.286.225-.069.507-.121.845-.156a14.9 14.9 0 0 1 1.326-.091c.338-.026.624-.069.858-.13.234-.061.446-.143.637-.247v1.04a2.26 2.26 0 0 1-.546.247c-.2.052-.477.095-.832.13-.512.052-.919.087-1.222.104a5.65 5.65 0 0 0-.715.078 1.775 1.775 0 0 0-.546.208c-.373.208-.655.52-.845.936-.191.407-.321 1.014-.39 1.82.45-1.014 1.295-1.521 2.535-1.521Zm-.247 5.941c.606 0 1.109-.199 1.508-.598.398-.407.598-1.036.598-1.885s-.2-1.473-.598-1.872c-.399-.407-.902-.611-1.508-.611-.598 0-1.097.199-1.495.598-.39.399-.585 1.014-.585 1.846 0 .867.195 1.504.585 1.911.398.407.897.611 1.495.611Zm10.219.897h-1.391l-2.379-2.873h-.598V304h-1.144v-6.747h1.144v2.899h.65l2.366-2.899h1.3l-2.769 3.328 2.821 3.419Zm3.365-5.863c-.719 0-1.447.221-2.184.663v-1.027a4.147 4.147 0 0 1 1.105-.468 4.505 4.505 0 0 1 1.235-.182c.85 0 1.495.178 1.937.533.442.355.663.897.663 1.625v3.627c0 .147.005.338.013.572.018.225.035.399.052.52h-1.04a5.896 5.896 0 0 1-.078-.507 7.937 7.937 0 0 1-.026-.585l-.013-.195a3.627 3.627 0 0 1-.429.65 2.156 2.156 0 0 1-.728.546c-.294.147-.663.221-1.105.221-.606 0-1.096-.173-1.469-.52-.372-.347-.559-.836-.559-1.469 0-.737.26-1.278.78-1.625s1.253-.52 2.197-.52h1.261v-.559c0-.468-.121-.802-.364-1.001-.242-.199-.658-.299-1.248-.299Zm1.612 3.263v-.494h-1.144c-.684 0-1.183.1-1.495.299-.303.199-.455.49-.455.871 0 .303.091.55.273.741.191.191.477.286.858.286.356 0 .659-.069.91-.208.252-.147.455-.321.611-.52a2.44 2.44 0 0 0 .338-.585c.07-.182.104-.312.104-.39Zm2.309 4.407a7.259 7.259 0 0 0 1.534-2.678c.329-1.005.494-2.058.494-3.159 0-.737-.074-1.46-.221-2.171a8.12 8.12 0 0 0-.663-2.015 5.444 5.444 0 0 0-1.144-1.612h1.131a6.018 6.018 0 0 1 1.118 1.651c.295.624.516 1.296.663 2.015.147.711.221 1.434.221 2.171a9.729 9.729 0 0 1-.507 3.146 7.696 7.696 0 0 1-1.495 2.652h-1.131Z"/>
    <rect width="300" height="60" x="30" y="390" fill="#EEF3FE" rx="10"/>
    <path fill="#262626" d="M59.357 414.679h7.007V424h-1.235v-8.203h-4.55V424h-1.222v-9.321Zm11.791 9.451c-.615 0-1.17-.134-1.664-.403a3.014 3.014 0 0 1-1.157-1.196c-.286-.529-.429-1.166-.429-1.911 0-.745.143-1.378.43-1.898.285-.52.671-.914 1.156-1.183a3.343 3.343 0 0 1 1.664-.416 3.37 3.37 0 0 1 1.677.416c.494.269.884.663 1.17 1.183.286.52.43 1.153.43 1.898 0 .745-.144 1.382-.43 1.911-.286.52-.676.919-1.17 1.196-.494.269-1.053.403-1.677.403Zm0-1.027c.607 0 1.11-.199 1.508-.598.399-.407.598-1.036.598-1.885s-.199-1.473-.598-1.872c-.398-.407-.901-.611-1.508-.611-.598 0-1.096.204-1.495.611-.39.399-.585 1.023-.585 1.872 0 .849.195 1.478.585 1.885.399.399.897.598 1.495.598Zm4.763 2.821h-1.027v-2.899h.637c.278-.277.473-.667.585-1.17.122-.503.195-1.131.221-1.885a81.26 81.26 0 0 0 .04-2.717h4.874v5.772h1.014v2.899h-1L81.11 424h-5.083l-.117 1.924Zm4.186-7.696h-2.665c-.008 1.231-.052 2.227-.13 2.99-.069.754-.247 1.356-.533 1.807h3.328v-4.797Zm4.496-.975v2.782h3.263v-2.782H89V424h-1.144v-2.99h-3.263V424h-1.144v-6.747h1.144Zm7.426 0v5.161l3.471-5.161h1.157V424h-1.144v-5.148L92.047 424h-1.17v-6.747h1.143Zm6.499 0h1.703l2.067 4.524 2.21-4.524h1.586V424h-1.131v-5.421l-2.288 4.667h-.91l-2.158-4.693V424h-1.079v-6.747Zm11.721.884c-.72 0-1.448.221-2.184.663v-1.027c.32-.199.689-.355 1.105-.468a4.495 4.495 0 0 1 1.235-.182c.849 0 1.495.178 1.937.533.442.355.663.897.663 1.625v3.627c0 .147.004.338.013.572.017.225.034.399.052.52h-1.04a5.896 5.896 0 0 1-.078-.507 7.42 7.42 0 0 1-.026-.585l-.013-.195a3.627 3.627 0 0 1-.429.65 2.166 2.166 0 0 1-.728.546c-.295.147-.663.221-1.105.221-.607 0-1.097-.173-1.469-.52-.373-.347-.559-.836-.559-1.469 0-.737.26-1.278.78-1.625s1.252-.52 2.197-.52h1.261v-.559c0-.468-.122-.802-.364-1.001-.243-.199-.659-.299-1.248-.299Zm1.612 3.263v-.494h-1.144c-.685 0-1.183.1-1.495.299-.304.199-.455.49-.455.871 0 .303.091.55.273.741.19.191.476.286.858.286.355 0 .658-.069.91-.208.251-.147.455-.321.611-.52.156-.208.268-.403.338-.585.069-.182.104-.312.104-.39Zm5.932 2.73c-1.126 0-1.989-.308-2.587-.923-.589-.624-.884-1.486-.884-2.587 0-.737.139-1.365.416-1.885.278-.52.659-.919 1.144-1.196a3.249 3.249 0 0 1 1.638-.416c1.032 0 1.79.342 2.275 1.027.486.676.642 1.603.468 2.782h-4.758c.096 1.447.893 2.171 2.392 2.171a3.98 3.98 0 0 0 2.275-.702v1.027c-.312.217-.676.39-1.092.52a4.585 4.585 0 0 1-1.287.182Zm-.299-5.993a1.9 1.9 0 0 0-1.274.455c-.355.303-.58.763-.676 1.378h3.627c.026-.581-.108-1.031-.403-1.352-.294-.321-.719-.481-1.274-.481Zm4.305-.884h1.703l2.067 4.524 2.21-4.524h1.586V424h-1.131v-5.421l-2.288 4.667h-.91l-2.158-4.693V424h-1.079v-6.747Zm11.489 5.629c.52.078.875-.247 1.066-.975.069-.26.125-.585.169-.975.043-.399.073-.893.091-1.482.017-.598.026-1.33.026-2.197h4.667V424h-1.157v-5.772h-2.431a35.035 35.035 0 0 1-.091 2.483 9.24 9.24 0 0 1-.221 1.547c-.165.65-.416 1.114-.754 1.391-.338.277-.793.399-1.365.364v-1.131Zm9.028-5.629v5.161l3.471-5.161h1.157V424h-1.144v-5.148L142.332 424h-1.17v-6.747h1.144Zm6.498 0h1.703l2.067 4.524 2.21-4.524h1.586V424h-1.131v-5.421l-2.288 4.667h-.91l-2.158-4.693V424h-1.079v-6.747Zm10.577 0v5.161l3.471-5.161h1.157V424h-1.144v-5.148L159.407 424h-1.17v-6.747h1.144Zm5.952 0h5.421v.975h-2.158V424h-1.144v-5.772h-2.119v-.975Zm7.886 0v2.275h1.17c.858 0 1.529.173 2.015.52.485.338.728.893.728 1.664 0 .537-.122.975-.364 1.313a2.202 2.202 0 0 1-1.001.741c-.425.156-.91.234-1.456.234h-2.236v-6.747h1.144Zm6.032 0V424h-1.144v-6.747h1.144Zm-4.94 5.772c.485 0 .884-.095 1.196-.286.312-.199.468-.52.468-.962 0-.451-.139-.776-.416-.975-.278-.199-.668-.299-1.17-.299h-1.17v2.522h1.092Zm12.591 2.782h-1.131a7.875 7.875 0 0 1-1.508-2.652 9.971 9.971 0 0 1-.494-3.146c0-.737.074-1.46.221-2.171a8.938 8.938 0 0 1 .663-2.015 6.444 6.444 0 0 1 1.118-1.651h1.131a5.648 5.648 0 0 0-1.157 1.612 8.938 8.938 0 0 0-.663 2.015 11.363 11.363 0 0 0-.208 2.171c0 1.101.161 2.154.481 3.159a7.417 7.417 0 0 0 1.547 2.678Zm4.544-1.807h-1.807l-2.054-9.321h1.274l1.768 8.268 2.392-8.268h1.118l2.34 8.112 1.755-8.112h1.183L197.361 424h-1.794l-2.054-7.202-2.067 7.202Zm16.587 0h-1.3l-.962-2.665h-4.121l-.949 2.665h-1.144l3.315-9.321h1.82l3.341 9.321Zm-5.98-3.77h3.328l-1.664-4.641-1.664 4.641Zm7.337-5.551h1.222v8.216h4.537V424h-5.759v-9.321Zm8.161 10.712h-.858c.165-.182.312-.412.442-.689.139-.277.221-.498.247-.663a.785.785 0 0 1-.442-.273.763.763 0 0 1-.169-.494c0-.225.07-.412.208-.559a.769.769 0 0 1 .585-.234c.243 0 .438.082.585.247.156.165.234.386.234.663 0 .243-.043.494-.13.754-.086.26-.195.498-.325.715a2.28 2.28 0 0 1-.377.533Zm5.089-10.712h1.144l-.026 3.887c.225-.433.529-.78.91-1.04.381-.269.854-.403 1.417-.403.529 0 1.014.13 1.456.39.451.251.815.637 1.092 1.157.277.511.416 1.161.416 1.95 0 .789-.143 1.443-.429 1.963-.277.52-.646.91-1.105 1.17a2.997 2.997 0 0 1-1.482.377c-.52 0-.975-.126-1.365-.377a2.687 2.687 0 0 1-.91-1.027l-.039 1.274h-1.079v-9.321Zm5.226 5.941c0-.815-.186-1.43-.559-1.846-.373-.425-.854-.637-1.443-.637-.589 0-1.088.208-1.495.624-.399.407-.598 1.027-.598 1.859 0 .841.199 1.465.598 1.872.407.407.906.611 1.495.611.589 0 1.07-.208 1.443-.624.373-.416.559-1.036.559-1.859Zm3.154-4.355c-.234 0-.42-.069-.559-.208a.748.748 0 0 1-.208-.533.733.733 0 0 1 .767-.754c.225 0 .403.074.533.221.13.147.195.325.195.533a.777.777 0 0 1-.195.533c-.13.139-.308.208-.533.208Zm-.585.988h1.144V424h-1.144v-6.747Zm6.207.884c-.52 0-.945.121-1.274.364a2.649 2.649 0 0 0-.78.91V424h-1.144v-6.747h1.079l.039 1.209h.026c.182-.381.468-.698.858-.949.39-.26.884-.39 1.482-.39.667 0 1.196.178 1.586.533.398.355.598.893.598 1.612V424h-1.144v-4.615c0-.459-.122-.78-.364-.962-.234-.191-.555-.286-.962-.286Zm4.279-3.458h1.144V424h-1.144v-9.321Zm5.778 9.451c-.615 0-1.17-.134-1.664-.403a3.016 3.016 0 0 1-1.157-1.196c-.286-.529-.429-1.166-.429-1.911 0-.745.143-1.378.429-1.898a2.93 2.93 0 0 1 1.157-1.183 3.344 3.344 0 0 1 1.664-.416 3.37 3.37 0 0 1 1.677.416c.494.269.884.663 1.17 1.183.286.52.429 1.153.429 1.898 0 .745-.143 1.382-.429 1.911-.286.52-.676.919-1.17 1.196-.494.269-1.053.403-1.677.403Zm0-1.027c.607 0 1.109-.199 1.508-.598.399-.407.598-1.036.598-1.885s-.199-1.473-.598-1.872c-.399-.407-.901-.611-1.508-.611-.598 0-1.096.204-1.495.611-.39.399-.585 1.023-.585 1.872 0 .849.195 1.478.585 1.885.399.399.897.598 1.495.598Zm4.749 2.665v-1.027c.364.199.728.342 1.092.429.364.087.78.13 1.248.13.832 0 1.412-.16 1.742-.481.329-.312.494-.771.494-1.378v-1.04c-.2.399-.481.719-.845.962-.356.243-.798.364-1.326.364a3.12 3.12 0 0 1-1.482-.364 2.844 2.844 0 0 1-1.092-1.105c-.269-.485-.403-1.092-.403-1.82 0-.737.134-1.348.403-1.833.277-.494.641-.862 1.092-1.105a3.093 3.093 0 0 1 1.508-.377c.537 0 .988.121 1.352.364.372.243.663.572.871.988l.013-.143c0-.156.008-.342.026-.559a7.85 7.85 0 0 1 .052-.52h1.04a6.778 6.778 0 0 0-.065 1.079v5.096c0 .581-.117 1.088-.351 1.521-.226.433-.585.771-1.079 1.014s-1.149.364-1.963.364c-.988 0-1.764-.186-2.327-.559Zm4.589-5.33c0-.771-.191-1.348-.572-1.729-.373-.381-.845-.572-1.417-.572-.572 0-1.053.191-1.443.572-.382.381-.572.958-.572 1.729 0 .754.19 1.322.572 1.703.39.373.875.559 1.456.559.563 0 1.031-.186 1.404-.559.381-.373.572-.94.572-1.703Zm3.612 4.953h-.858c.165-.182.312-.412.442-.689.139-.277.221-.498.247-.663a.785.785 0 0 1-.442-.273.757.757 0 0 1-.169-.494c0-.225.069-.412.208-.559a.766.766 0 0 1 .585-.234c.243 0 .438.082.585.247.156.165.234.386.234.663 0 .243-.043.494-.13.754a3.62 3.62 0 0 1-.325.715 2.28 2.28 0 0 1-.377.533Zm7.858-1.261a3.42 3.42 0 0 1-1.664-.403 3.01 3.01 0 0 1-1.157-1.196c-.286-.529-.429-1.166-.429-1.911 0-.745.143-1.378.429-1.898.286-.52.671-.914 1.157-1.183a3.342 3.342 0 0 1 1.664-.416 3.37 3.37 0 0 1 1.677.416c.494.269.884.663 1.17 1.183.286.52.429 1.153.429 1.898 0 .745-.143 1.382-.429 1.911-.286.52-.676.919-1.17 1.196-.494.269-1.053.403-1.677.403Zm0-1.027c.606 0 1.109-.199 1.508-.598.398-.407.598-1.036.598-1.885s-.2-1.473-.598-1.872c-.399-.407-.902-.611-1.508-.611-.598 0-1.097.204-1.495.611-.39.399-.585 1.023-.585 1.872 0 .849.195 1.478.585 1.885.398.399.897.598 1.495.598Zm4.67-5.85h1.001l.117 1.313c.217-.433.516-.78.897-1.04.39-.269.867-.403 1.43-.403.529 0 1.014.13 1.456.39.451.251.815.637 1.092 1.157.278.511.416 1.161.416 1.95 0 .789-.143 1.443-.429 1.963-.277.52-.645.91-1.105 1.17-.45.251-.944.377-1.482.377-.511 0-.957-.121-1.339-.364a2.616 2.616 0 0 1-.91-1.001v3.536h-1.144v-9.048Zm5.226 3.367c0-.815-.186-1.43-.559-1.846-.372-.425-.853-.637-1.443-.637-.589 0-1.087.208-1.495.624-.398.407-.598 1.027-.598 1.859 0 .841.2 1.465.598 1.872.408.407.906.611 1.495.611.59 0 1.071-.208 1.443-.624.373-.416.559-1.036.559-1.859Zm2.569-5.941h1.144V424h-1.144v-9.321Zm5.778 9.451c-.615 0-1.17-.134-1.664-.403a3.016 3.016 0 0 1-1.157-1.196c-.286-.529-.429-1.166-.429-1.911 0-.745.143-1.378.429-1.898a2.93 2.93 0 0 1 1.157-1.183 3.344 3.344 0 0 1 1.664-.416 3.37 3.37 0 0 1 1.677.416c.494.269.884.663 1.17 1.183.286.52.429 1.153.429 1.898 0 .745-.143 1.382-.429 1.911-.286.52-.676.919-1.17 1.196-.494.269-1.053.403-1.677.403Zm0-1.027c.607 0 1.109-.199 1.508-.598.399-.407.598-1.036.598-1.885s-.199-1.473-.598-1.872c-.399-.407-.901-.611-1.508-.611-.598 0-1.096.204-1.495.611-.39.399-.585 1.023-.585 1.872 0 .849.195 1.478.585 1.885.399.399.897.598 1.495.598Zm4.748 2.665v-1.027c.364.199.728.342 1.092.429.364.087.78.13 1.248.13.832 0 1.413-.16 1.742-.481.33-.312.494-.771.494-1.378v-1.04a2.45 2.45 0 0 1-.845.962c-.355.243-.797.364-1.326.364a3.125 3.125 0 0 1-1.482-.364 2.857 2.857 0 0 1-1.092-1.105c-.268-.485-.403-1.092-.403-1.82 0-.737.135-1.348.403-1.833.278-.494.642-.862 1.092-1.105.46-.251.962-.377 1.508-.377.538 0 .988.121 1.352.364.373.243.663.572.871.988l.013-.143c0-.156.009-.342.026-.559a9.52 9.52 0 0 1 .052-.52h1.04a7.998 7.998 0 0 0-.052.52c-.008.225-.013.412-.013.559v5.096c0 .581-.117 1.088-.351 1.521-.225.433-.585.771-1.079 1.014s-1.148.364-1.963.364c-.988 0-1.763-.186-2.327-.559Zm4.589-5.33c0-.771-.19-1.348-.572-1.729-.372-.381-.845-.572-1.417-.572-.572 0-1.053.191-1.443.572-.381.381-.572.958-.572 1.729 0 .754.191 1.322.572 1.703.39.373.876.559 1.456.559.564 0 1.032-.186 1.404-.559.382-.373.572-.94.572-1.703Zm2.482 5.369a7.259 7.259 0 0 0 1.534-2.678c.329-1.005.494-2.058.494-3.159 0-.737-.074-1.46-.221-2.171a8.12 8.12 0 0 0-.663-2.015 5.444 5.444 0 0 0-1.144-1.612h1.131a6.04 6.04 0 0 1 1.118 1.651c.294.624.515 1.296.663 2.015.147.711.221 1.434.221 2.171a9.729 9.729 0 0 1-.507 3.146 7.712 7.712 0 0 1-1.495 2.652h-1.131Z"/>
    <rect width="300" height="60" x="370" y="390" fill="#EEF3FE" rx="10"/>
    <path fill="#262626" d="M491.113 424h-1.3l-.962-2.665h-4.121l-.949 2.665h-1.144l3.315-9.321h1.82l3.341 9.321Zm-5.98-3.77h3.328l-1.664-4.641-1.664 4.641Zm12.693 3.77h-1.391l-2.379-2.873h-.598V424h-1.144v-6.747h1.144v2.899h.65l2.366-2.899h1.3l-2.769 3.328 2.821 3.419Zm.658-6.747h5.421v.975h-2.158V424h-1.144v-5.772h-2.119v-.975Zm7.886 0v5.161l3.471-5.161h1.157V424h-1.144v-5.148L506.396 424h-1.17v-6.747h1.144Zm9.124 6.747h-2.626v-6.747h2.652c.806 0 1.417.143 1.833.429.425.277.637.715.637 1.313 0 .39-.104.706-.312.949-.199.243-.485.416-.858.52.962.156 1.443.689 1.443 1.599 0 .459-.121.832-.364 1.118-.234.286-.559.494-.975.624-.416.13-.893.195-1.43.195Zm.013-5.772h-1.495v1.833h1.404c.433 0 .78-.078 1.04-.234.269-.156.403-.381.403-.676 0-.355-.117-.598-.351-.728-.234-.13-.568-.195-1.001-.195Zm-.026 2.743h-1.469v2.054h1.469c.485 0 .875-.069 1.17-.208.295-.147.442-.412.442-.793 0-.381-.134-.65-.403-.806-.269-.165-.672-.247-1.209-.247Zm5.641-3.718v5.161l3.471-5.161h1.157V424h-1.144v-5.148L521.148 424h-1.17v-6.747h1.144Zm6.498 0h1.001l.117 1.313c.217-.433.516-.78.897-1.04.39-.269.867-.403 1.43-.403.529 0 1.014.13 1.456.39.451.251.815.637 1.092 1.157.277.511.416 1.161.416 1.95 0 .789-.143 1.443-.429 1.963-.277.52-.646.91-1.105 1.17a2.997 2.997 0 0 1-1.482.377c-.511 0-.958-.121-1.339-.364a2.609 2.609 0 0 1-.91-1.001v3.536h-1.144v-9.048Zm5.226 3.367c0-.815-.186-1.43-.559-1.846-.373-.425-.854-.637-1.443-.637-.589 0-1.088.208-1.495.624-.399.407-.598 1.027-.598 1.859 0 .841.199 1.465.598 1.872.407.407.906.611 1.495.611.589 0 1.07-.208 1.443-.624.373-.416.559-1.036.559-1.859Zm3.091 5.811c-.356 0-.65-.048-.884-.143v-1.105c.173.147.455.221.845.221.303 0 .559-.074.767-.221.216-.139.424-.381.624-.728l-2.743-7.202h1.261l2.145 5.694 2.132-5.694h1.105l-2.522 6.669c-.347.893-.733 1.534-1.157 1.924-.425.39-.949.585-1.573.585Zm9.184-2.301c-1.127 0-1.989-.308-2.587-.923-.59-.624-.884-1.486-.884-2.587 0-.737.138-1.365.416-1.885.277-.52.658-.919 1.144-1.196a3.244 3.244 0 0 1 1.638-.416c1.031 0 1.789.342 2.275 1.027.485.676.641 1.603.468 2.782h-4.758c.095 1.447.892 2.171 2.392 2.171.823 0 1.581-.234 2.275-.702v1.027c-.312.217-.676.39-1.092.52a4.585 4.585 0 0 1-1.287.182Zm-.299-5.993c-.494 0-.919.152-1.274.455-.356.303-.581.763-.676 1.378h3.627c.026-.581-.109-1.031-.403-1.352-.295-.321-.72-.481-1.274-.481Zm4.304-.884h1.703l2.067 4.524 2.21-4.524h1.586V424h-1.131v-5.421l-2.288 4.667h-.91l-2.158-4.693V424h-1.079v-6.747Z"/>
    <rect width="300" height="60" x="30" y="510" fill="#EEF3FE" rx="10"/>
    <path fill="#262626" d="M64.822 537.13c-.92 0-1.725-.191-2.419-.572a3.987 3.987 0 0 1-1.599-1.638c-.38-.719-.572-1.577-.572-2.574 0-1.499.395-2.669 1.184-3.51.788-.849 1.915-1.274 3.38-1.274.545 0 1.066.061 1.56.182.502.113.927.277 1.273.494v1.17a4.636 4.636 0 0 0-1.313-.546 6.002 6.002 0 0 0-1.534-.195c-1.091 0-1.902.308-2.43.923-.53.615-.793 1.534-.793 2.756 0 1.231.285 2.154.858 2.769.572.607 1.408.91 2.508.91 1.04 0 1.942-.286 2.704-.858v1.17c-.303.243-.706.438-1.209.585a5.974 5.974 0 0 1-1.599.208Zm3.976-1.248c.52.078.876-.247 1.066-.975.07-.26.126-.585.17-.975.042-.399.073-.893.09-1.482.017-.598.026-1.33.026-2.197h4.667V537H73.66v-5.772h-2.43a34.854 34.854 0 0 1-.092 2.483 9.167 9.167 0 0 1-.22 1.547c-.166.65-.417 1.114-.755 1.391-.338.277-.793.399-1.365.364v-1.131Zm10.874 1.248c-1.127 0-1.989-.308-2.587-.923-.59-.624-.884-1.486-.884-2.587 0-.737.139-1.365.416-1.885.277-.52.659-.919 1.144-1.196a3.245 3.245 0 0 1 1.638-.416c1.031 0 1.79.342 2.275 1.027.485.676.641 1.603.468 2.782h-4.758c.095 1.447.893 2.171 2.392 2.171.823 0 1.582-.234 2.275-.702v1.027c-.312.217-.676.39-1.092.52a4.585 4.585 0 0 1-1.287.182Zm-.299-5.993a1.9 1.9 0 0 0-1.274.455c-.355.303-.58.763-.676 1.378h3.627c.026-.581-.108-1.031-.403-1.352-.295-.321-.72-.481-1.274-.481Zm4.46 7.787h-1.027v-2.899h.637c.278-.277.472-.667.585-1.17.121-.503.195-1.131.221-1.885a81.26 81.26 0 0 0 .04-2.717h4.874v5.772h1.014v2.899h-1L89.032 537H83.95l-.117 1.924Zm4.186-7.696h-2.665c-.008 1.231-.052 2.227-.13 2.99-.07.754-.247 1.356-.533 1.807h3.328v-4.797Zm4.496-.975v5.161l3.47-5.161h1.158V537h-1.144v-5.148L92.54 537h-1.17v-6.747h1.144Zm6.498 0h1.703l2.067 4.524 2.21-4.524h1.586V537h-1.131v-5.421l-2.288 4.667h-.91l-2.158-4.693V537h-1.079v-6.747Zm10.057 8.138h-.858c.164-.182.312-.412.442-.689.138-.277.221-.498.247-.663a.782.782 0 0 1-.442-.273.757.757 0 0 1-.169-.494c0-.225.069-.412.208-.559a.766.766 0 0 1 .585-.234c.242 0 .437.082.585.247.156.165.234.386.234.663 0 .243-.044.494-.13.754a3.62 3.62 0 0 1-.325.715 2.31 2.31 0 0 1-.377.533Zm7.507-4.732c.294 0 .585-.043.871-.13.294-.087.559-.221.793-.403v-2.873h1.144V537h-1.144v-2.964c-.486.381-1.105.572-1.859.572-.763 0-1.348-.191-1.755-.572-.399-.381-.598-.984-.598-1.807v-1.976h1.157v1.989c0 .529.121.897.364 1.105.242.208.585.312 1.027.312Zm4.132-3.406h5.421v.975h-2.158V537h-1.144v-5.772h-2.119v-.975Zm9.32 6.877c-.615 0-1.17-.134-1.664-.403a3.016 3.016 0 0 1-1.157-1.196c-.286-.529-.429-1.166-.429-1.911 0-.745.143-1.378.429-1.898a2.93 2.93 0 0 1 1.157-1.183 3.344 3.344 0 0 1 1.664-.416 3.37 3.37 0 0 1 1.677.416c.494.269.884.663 1.17 1.183.286.52.429 1.153.429 1.898 0 .745-.143 1.382-.429 1.911-.286.52-.676.919-1.17 1.196-.494.269-1.053.403-1.677.403Zm0-1.027c.607 0 1.11-.199 1.508-.598.399-.407.598-1.036.598-1.885s-.199-1.473-.598-1.872c-.398-.407-.901-.611-1.508-.611-.598 0-1.096.204-1.495.611-.39.399-.585 1.023-.585 1.872 0 .849.195 1.478.585 1.885.399.399.897.598 1.495.598Zm7.273.897v-6.747h4.29v.975h-3.146V537h-1.144Zm5.675-6.747h1.001l.117 1.313c.217-.433.516-.78.897-1.04.39-.269.867-.403 1.43-.403.529 0 1.014.13 1.456.39.451.251.815.637 1.092 1.157.277.511.416 1.161.416 1.95 0 .789-.143 1.443-.429 1.963-.277.52-.646.91-1.105 1.17a2.997 2.997 0 0 1-1.482.377c-.511 0-.958-.121-1.339-.364a2.609 2.609 0 0 1-.91-1.001v3.536h-1.144v-9.048Zm5.226 3.367c0-.815-.186-1.43-.559-1.846-.373-.425-.854-.637-1.443-.637-.589 0-1.088.208-1.495.624-.399.407-.598 1.027-.598 1.859 0 .841.199 1.465.598 1.872.407.407.906.611 1.495.611.589 0 1.07-.208 1.443-.624.373-.416.559-1.036.559-1.859Zm4.793-2.483c-.719 0-1.447.221-2.184.663v-1.027a4.147 4.147 0 0 1 1.105-.468 4.505 4.505 0 0 1 1.235-.182c.85 0 1.495.178 1.937.533.442.355.663.897.663 1.625v3.627c0 .147.005.338.013.572.018.225.035.399.052.52h-1.04a5.896 5.896 0 0 1-.078-.507 7.937 7.937 0 0 1-.026-.585l-.013-.195a3.627 3.627 0 0 1-.429.65 2.156 2.156 0 0 1-.728.546c-.294.147-.663.221-1.105.221-.606 0-1.096-.173-1.469-.52-.372-.347-.559-.836-.559-1.469 0-.737.26-1.278.78-1.625s1.253-.52 2.197-.52h1.261v-.559c0-.468-.121-.802-.364-1.001-.242-.199-.658-.299-1.248-.299Zm1.612 3.263v-.494h-1.144c-.684 0-1.183.1-1.495.299-.303.199-.455.49-.455.871 0 .303.091.55.273.741.191.191.477.286.858.286.356 0 .659-.069.91-.208.252-.147.455-.321.611-.52a2.44 2.44 0 0 0 .338-.585c.07-.182.104-.312.104-.39Zm7.233-6.851v2.6a4.46 4.46 0 0 1 1.82.442c.546.269.98.654 1.3 1.157.33.503.494 1.127.494 1.872 0 .745-.164 1.374-.494 1.885-.32.511-.754.901-1.3 1.17a4.602 4.602 0 0 1-1.82.429v2.197h-1.144v-2.197a4.49 4.49 0 0 1-1.833-.442 3.266 3.266 0 0 1-1.313-1.157c-.32-.511-.481-1.14-.481-1.885 0-.745.161-1.369.481-1.872.33-.511.767-.897 1.313-1.157a4.562 4.562 0 0 1 1.833-.442v-2.6h1.144Zm2.444 6.071c0-.555-.108-1.01-.325-1.365a2.086 2.086 0 0 0-.884-.806 3.124 3.124 0 0 0-1.235-.312v4.966c.468-.026.884-.13 1.248-.312.373-.182.663-.451.871-.806.217-.355.325-.81.325-1.365Zm-6.045 0c0 .555.109 1.014.325 1.378.217.355.512.624.884.806.373.173.789.273 1.248.299v-4.966a3.112 3.112 0 0 0-1.261.325 2.112 2.112 0 0 0-.871.806c-.216.355-.325.806-.325 1.352Zm9.761-3.367v5.161l3.471-5.161h1.157V537h-1.144v-5.148L168.027 537h-1.17v-6.747h1.144Zm12.01 6.747h-1.391l-2.379-2.873h-.598V537h-1.144v-6.747h1.144v2.899h.65l2.366-2.899h1.3l-2.769 3.328 2.821 3.419Zm2.348-6.747v5.161l3.471-5.161h1.157V537h-1.144v-5.148L182.385 537h-1.17v-6.747h1.144Zm10.245 0v2.782h3.263v-2.782h1.144V537h-1.144v-2.99h-3.263V537h-1.144v-6.747h1.144Zm9.052 6.877c-.615 0-1.17-.134-1.664-.403a3.016 3.016 0 0 1-1.157-1.196c-.286-.529-.429-1.166-.429-1.911 0-.745.143-1.378.429-1.898a2.93 2.93 0 0 1 1.157-1.183 3.344 3.344 0 0 1 1.664-.416 3.37 3.37 0 0 1 1.677.416c.494.269.884.663 1.17 1.183.286.52.429 1.153.429 1.898 0 .745-.143 1.382-.429 1.911-.286.52-.676.919-1.17 1.196-.494.269-1.053.403-1.677.403Zm0-1.027c.607 0 1.11-.199 1.508-.598.399-.407.598-1.036.598-1.885s-.199-1.473-.598-1.872c-.398-.407-.901-.611-1.508-.611-.598 0-1.096.204-1.495.611-.39.399-.585 1.023-.585 1.872 0 .849.195 1.478.585 1.885.399.399.897.598 1.495.598Zm4.671-5.85h1.001l.117 1.313c.216-.433.515-.78.897-1.04.39-.269.866-.403 1.43-.403.528 0 1.014.13 1.456.39.45.251.814.637 1.092 1.157.277.511.416 1.161.416 1.95 0 .789-.143 1.443-.429 1.963-.278.52-.646.91-1.105 1.17a2.997 2.997 0 0 1-1.482.377c-.512 0-.958-.121-1.339-.364a2.6 2.6 0 0 1-.91-1.001v3.536h-1.144v-9.048Zm5.226 3.367c0-.815-.187-1.43-.559-1.846-.373-.425-.854-.637-1.443-.637a2.01 2.01 0 0 0-1.495.624c-.399.407-.598 1.027-.598 1.859 0 .841.199 1.465.598 1.872.407.407.905.611 1.495.611.589 0 1.07-.208 1.443-.624.372-.416.559-1.036.559-1.859Zm2.569-3.367h1.703l2.067 4.524 2.21-4.524h1.586V537h-1.131v-5.421l-2.288 4.667h-.91l-2.158-4.693V537h-1.079v-6.747Zm11.72.884c-.719 0-1.447.221-2.184.663v-1.027a4.147 4.147 0 0 1 1.105-.468 4.5 4.5 0 0 1 1.235-.182c.849 0 1.495.178 1.937.533.442.355.663.897.663 1.625v3.627c0 .147.004.338.013.572.017.225.035.399.052.52h-1.04a5.896 5.896 0 0 1-.078-.507 7.937 7.937 0 0 1-.026-.585l-.013-.195a3.627 3.627 0 0 1-.429.65 2.166 2.166 0 0 1-.728.546c-.295.147-.663.221-1.105.221-.607 0-1.096-.173-1.469-.52-.373-.347-.559-.836-.559-1.469 0-.737.26-1.278.78-1.625s1.252-.52 2.197-.52h1.261v-.559c0-.468-.121-.802-.364-1.001-.243-.199-.659-.299-1.248-.299Zm1.612 3.263v-.494h-1.144c-.685 0-1.183.1-1.495.299-.303.199-.455.49-.455.871 0 .303.091.55.273.741.191.191.477.286.858.286.355 0 .659-.069.91-.208.251-.147.455-.321.611-.52a2.44 2.44 0 0 0 .338-.585c.069-.182.104-.312.104-.39Zm2.397 1.482c.52.078.875-.247 1.066-.975.069-.26.126-.585.169-.975.043-.399.074-.893.091-1.482.017-.598.026-1.33.026-2.197h4.667V537h-1.157v-5.772h-2.431a35.035 35.035 0 0 1-.091 2.483 9.137 9.137 0 0 1-.221 1.547c-.165.65-.416 1.114-.754 1.391-.338.277-.793.399-1.365.364v-1.131Zm9.028-5.629v5.161l3.471-5.161h1.157V537h-1.144v-5.148L238.905 537h-1.17v-6.747h1.144Zm8.461 6.877c-.424 0-.836-.048-1.235-.143a3.083 3.083 0 0 1-.962-.39v-1.027c.278.165.607.295.988.39.382.095.776.143 1.183.143.494 0 .906-.078 1.235-.234.338-.165.507-.442.507-.832 0-.381-.143-.65-.429-.806-.277-.156-.706-.234-1.287-.234h-.897v-.923h.936c.477 0 .841-.087 1.092-.26.252-.173.377-.425.377-.754 0-.347-.151-.585-.455-.715-.294-.139-.654-.208-1.079-.208-.762 0-1.443.182-2.041.546v-1.027c.26-.173.577-.303.949-.39a4.882 4.882 0 0 1 1.183-.143c.824 0 1.443.156 1.859.468.425.312.637.763.637 1.352 0 .442-.121.793-.364 1.053-.242.251-.576.42-1.001.507.529.069.932.238 1.209.507.278.269.416.611.416 1.027 0 .503-.134.91-.403 1.222-.26.303-.602.524-1.027.663a4.445 4.445 0 0 1-1.391.208Zm7.268 0c-.615 0-1.17-.134-1.664-.403a3.016 3.016 0 0 1-1.157-1.196c-.286-.529-.429-1.166-.429-1.911 0-.745.143-1.378.429-1.898a2.93 2.93 0 0 1 1.157-1.183 3.344 3.344 0 0 1 1.664-.416 3.37 3.37 0 0 1 1.677.416c.494.269.884.663 1.17 1.183.286.52.429 1.153.429 1.898 0 .745-.143 1.382-.429 1.911-.286.52-.676.919-1.17 1.196-.494.269-1.053.403-1.677.403Zm0-1.027c.607 0 1.11-.199 1.508-.598.399-.407.598-1.036.598-1.885s-.199-1.473-.598-1.872c-.398-.407-.901-.611-1.508-.611-.598 0-1.096.204-1.495.611-.39.399-.585 1.023-.585 1.872 0 .849.195 1.478.585 1.885.399.399.897.598 1.495.598Zm7.297.897h-2.626v-6.747h2.652c.806 0 1.417.143 1.833.429.424.277.637.715.637 1.313 0 .39-.104.706-.312.949-.2.243-.486.416-.858.52.962.156 1.443.689 1.443 1.599 0 .459-.122.832-.364 1.118-.234.286-.559.494-.975.624-.416.13-.893.195-1.43.195Zm.013-5.772h-1.495v1.833h1.404c.433 0 .78-.078 1.04-.234.268-.156.403-.381.403-.676 0-.355-.117-.598-.351-.728-.234-.13-.568-.195-1.001-.195Zm-.026 2.743h-1.469v2.054h1.469c.485 0 .875-.069 1.17-.208.294-.147.442-.412.442-.793 0-.381-.135-.65-.403-.806-.269-.165-.672-.247-1.209-.247Zm6.784-2.834c-.719 0-1.447.221-2.184.663v-1.027a4.147 4.147 0 0 1 1.105-.468 4.5 4.5 0 0 1 1.235-.182c.849 0 1.495.178 1.937.533.442.355.663.897.663 1.625v3.627c0 .147.004.338.013.572.017.225.035.399.052.52h-1.04a5.896 5.896 0 0 1-.078-.507 7.937 7.937 0 0 1-.026-.585l-.013-.195a3.627 3.627 0 0 1-.429.65 2.166 2.166 0 0 1-.728.546c-.295.147-.663.221-1.105.221-.607 0-1.096-.173-1.469-.52-.373-.347-.559-.836-.559-1.469 0-.737.26-1.278.78-1.625s1.252-.52 2.197-.52h1.261v-.559c0-.468-.121-.802-.364-1.001-.243-.199-.659-.299-1.248-.299Zm1.612 3.263v-.494h-1.144c-.685 0-1.183.1-1.495.299-.303.199-.455.49-.455.871 0 .303.091.55.273.741.191.191.477.286.858.286.355 0 .659-.069.91-.208.251-.147.455-.321.611-.52a2.44 2.44 0 0 0 .338-.585c.069-.182.104-.312.104-.39Zm2.397 1.482c.52.078.875-.247 1.066-.975.069-.26.126-.585.169-.975.043-.399.074-.893.091-1.482.017-.598.026-1.33.026-2.197h4.667V537h-1.157v-5.772h-2.431a35.035 35.035 0 0 1-.091 2.483 9.137 9.137 0 0 1-.221 1.547c-.165.65-.416 1.114-.754 1.391-.338.277-.793.399-1.365.364v-1.131Zm9.028-5.629v5.161l3.471-5.161h1.157V537h-1.144v-5.148L281.739 537h-1.17v-6.747h1.144Zm9.41 6.877c-1.048 0-1.876-.308-2.483-.923-.606-.624-.91-1.486-.91-2.587 0-1.101.308-1.959.923-2.574.616-.615 1.456-.923 2.522-.923.408 0 .789.048 1.144.143.356.087.642.217.858.39v1.027a3.706 3.706 0 0 0-1.989-.546c-.78 0-1.356.208-1.729.624-.372.407-.559 1.027-.559 1.859 0 .832.178 1.456.533 1.872.364.407.928.611 1.69.611.737 0 1.422-.178 2.054-.533v1.027c-.563.355-1.248.533-2.054.533Zm4.693-6.877v2.275h1.235c.858 0 1.53.173 2.015.52.486.338.728.893.728 1.664 0 .529-.121.962-.364 1.3a2.154 2.154 0 0 1-1.001.754c-.424.156-.91.234-1.456.234h-2.301v-6.747h1.144Zm1.157 5.772c.494 0 .893-.095 1.196-.286.312-.199.468-.52.468-.962 0-.451-.138-.776-.416-.975-.277-.199-.667-.299-1.17-.299h-1.235v2.522h1.157Zm-169.718 8.228v5.161l3.471-5.161h1.157V551h-1.144v-5.148L127.281 551h-1.17v-6.747h1.144Zm11.87 6.877c-.615 0-1.17-.134-1.664-.403a3.016 3.016 0 0 1-1.157-1.196c-.286-.529-.429-1.166-.429-1.911 0-.745.143-1.378.429-1.898a2.93 2.93 0 0 1 1.157-1.183 3.344 3.344 0 0 1 1.664-.416 3.37 3.37 0 0 1 1.677.416c.494.269.884.663 1.17 1.183.286.52.429 1.153.429 1.898 0 .745-.143 1.382-.429 1.911-.286.52-.676.919-1.17 1.196-.494.269-1.053.403-1.677.403Zm0-1.027c.607 0 1.11-.199 1.508-.598.399-.407.598-1.036.598-1.885s-.199-1.473-.598-1.872c-.398-.407-.901-.611-1.508-.611-.598 0-1.096.204-1.495.611-.39.399-.585 1.023-.585 1.872 0 .849.195 1.478.585 1.885.399.399.897.598 1.495.598Zm13.095-5.85V551h-8.424v-6.747h1.144v5.772h2.496v-5.772h1.144v5.772h2.496v-5.772h1.144Zm3.016 0v5.161l3.471-5.161h1.157V551h-1.144v-5.148L155.262 551h-1.17v-6.747h1.144Zm9.553-.091c.572 0 1.084.134 1.534.403.46.269.824.663 1.092 1.183.269.511.403 1.135.403 1.872 0 .745-.143 1.382-.429 1.911-.286.52-.676.919-1.17 1.196-.494.269-1.053.403-1.677.403-.632 0-1.196-.143-1.69-.429-.485-.295-.866-.737-1.144-1.326-.277-.589-.416-1.339-.416-2.249 0-.988.057-1.811.169-2.47.122-.659.308-1.196.559-1.612.252-.425.59-.763 1.014-1.014.208-.121.425-.217.65-.286a4.55 4.55 0 0 1 .845-.156c.347-.043.789-.074 1.326-.091.338-.026.624-.069.858-.13.234-.061.447-.143.637-.247v1.04a2.226 2.226 0 0 1-.546.247 5.662 5.662 0 0 1-.832.13c-.511.052-.918.087-1.222.104a5.671 5.671 0 0 0-.715.078 1.987 1.987 0 0 0-1.391 1.144c-.19.407-.32 1.014-.39 1.82.451-1.014 1.296-1.521 2.535-1.521Zm-.247 5.941c.607 0 1.11-.199 1.508-.598.399-.407.598-1.036.598-1.885s-.199-1.473-.598-1.872c-.398-.407-.901-.611-1.508-.611-.598 0-1.096.199-1.495.598-.39.399-.585 1.014-.585 1.846 0 .867.195 1.504.585 1.911.399.407.897.611 1.495.611Zm10.22.897h-1.391l-2.379-2.873h-.598V551h-1.144v-6.747h1.144v2.899h.65l2.366-2.899h1.3l-2.769 3.328 2.821 3.419Zm2.348-6.747v5.161l3.471-5.161h1.157V551h-1.144v-5.148L177.136 551h-1.17v-6.747h1.144Zm10.245 0v5.161l3.471-5.161h1.157V551h-1.144v-5.148L187.381 551h-1.17v-6.747h1.144Zm9.41 6.877c-1.048 0-1.876-.308-2.483-.923-.606-.624-.91-1.486-.91-2.587 0-1.101.308-1.959.923-2.574.616-.615 1.456-.923 2.522-.923.408 0 .789.048 1.144.143.356.087.642.217.858.39v1.027a3.706 3.706 0 0 0-1.989-.546c-.78 0-1.356.208-1.729.624-.372.407-.559 1.027-.559 1.859 0 .832.178 1.456.533 1.872.364.407.928.611 1.69.611.737 0 1.422-.178 2.054-.533v1.027c-.563.355-1.248.533-2.054.533Zm5.943-3.471c.295 0 .585-.043.871-.13.295-.087.559-.221.793-.403v-2.873h1.144V551h-1.144v-2.964c-.485.381-1.105.572-1.859.572-.763 0-1.348-.191-1.755-.572-.399-.381-.598-.984-.598-1.807v-1.976h1.157v1.989c0 .529.121.897.364 1.105.243.208.585.312 1.027.312Zm7.669 3.471c-1.127 0-1.989-.308-2.587-.923-.59-.624-.884-1.486-.884-2.587 0-.737.138-1.365.416-1.885.277-.52.658-.919 1.144-1.196a3.244 3.244 0 0 1 1.638-.416c1.031 0 1.789.342 2.275 1.027.485.676.641 1.603.468 2.782h-4.758c.095 1.447.892 2.171 2.392 2.171.823 0 1.581-.234 2.275-.702v1.027c-.312.217-.676.39-1.092.52a4.585 4.585 0 0 1-1.287.182Zm-.299-5.993c-.494 0-.919.152-1.274.455-.356.303-.581.763-.676 1.378h3.627c.026-.581-.109-1.031-.403-1.352-.295-.321-.72-.481-1.274-.481Zm6.267 5.993c-.425 0-.837-.048-1.235-.143-.39-.095-.711-.225-.962-.39v-1.027c.277.165.606.295.988.39a4.87 4.87 0 0 0 1.183.143c.494 0 .905-.078 1.235-.234.338-.165.507-.442.507-.832 0-.381-.143-.65-.429-.806-.278-.156-.707-.234-1.287-.234h-.897v-.923h.936c.476 0 .84-.087 1.092-.26.251-.173.377-.425.377-.754 0-.347-.152-.585-.455-.715-.295-.139-.655-.208-1.079-.208-.763 0-1.443.182-2.041.546v-1.027a2.88 2.88 0 0 1 .949-.39 4.87 4.87 0 0 1 1.183-.143c.823 0 1.443.156 1.859.468.424.312.637.763.637 1.352 0 .442-.122.793-.364 1.053-.243.251-.577.42-1.001.507.528.069.931.238 1.209.507.277.269.416.611.416 1.027 0 .503-.135.91-.403 1.222-.26.303-.603.524-1.027.663a4.454 4.454 0 0 1-1.391.208Zm3.889-1.248c.52.078.876-.247 1.066-.975.07-.26.126-.585.169-.975.044-.399.074-.893.091-1.482.018-.598.026-1.33.026-2.197h4.667V551h-1.157v-5.772h-2.431a34.44 34.44 0 0 1-.091 2.483 9.137 9.137 0 0 1-.221 1.547c-.164.65-.416 1.114-.754 1.391-.338.277-.793.399-1.365.364v-1.131Zm9.028-5.629v5.161l3.471-5.161h1.157V551h-1.144v-5.148L229.288 551h-1.17v-6.747h1.144Z"/>
</svg>
