<svg xmlns="http://www.w3.org/2000/svg" width="18" height="18" fill="currentColor" aria-hidden="true" class="yc-icon nv-composite-bar__menu-icon">
    <svg xmlns="http://www.w3.org/2000/svg" fill="none" viewBox="0 0 16 16">
        <path fill="currentColor" fill-rule="evenodd" d="M13.78 3.72a.75.75 0 0 1 0 1.06l-3 3a.75.75 0 1 1-1.06-1.06L11.44 5H2.75a.75.75 0 1 1 0-1.5h8.69L9.72 1.78A.75.75 0 0 1 10.78.72l3 3ZM2 11.75a.75.75 0 0 1 .22-.53l3-3a.75.75 0 0 1 1.06 1.06L4.56 11h8.69a.75.75 0 0 1 0 1.5H4.56l1.72 1.72a.75.75 0 1 1-1.06 1.06l-3-3a.75.75 0 0 1-.22-.53Z" clip-rule="evenodd"/>
    </svg>
</svg>
