<svg xmlns="http://www.w3.org/2000/svg" width="16" height="16" fill="none" viewBox="0 0 16 16">
    <path fill="#000" fill-rule="evenodd" d="M3 8a7.003 7.003 0 0 0 4.783 6.642C7.013 14.873 6.07 15 5 15c-3 0-5-.997-5-2.498V3.496C.002 1.996 2.001 1 5 1c1.07 0 2.013.127 2.783.358A7.003 7.003 0 0 0 3 8Zm4.006.5c.04 1.543.266 2.964.631 4.059.137.412.303.803.502 1.147A6.005 6.005 0 0 1 4.02 8.5h2.985Zm8.973 0a6.005 6.005 0 0 1-4.118 5.206c.2-.344.365-.736.502-1.147.365-1.095.59-2.516.63-4.059h2.986Zm-4.118-6.206A6.005 6.005 0 0 1 15.98 7.5h-2.986c-.04-1.543-.265-2.964-.63-4.059a6.237 6.237 0 0 0-.502-1.147ZM8.007 7.5c.084-3.064.936-5.476 1.977-5.5h.032c1.04.024 1.893 2.436 1.977 5.5H8.007Zm-3.986 0a6.005 6.005 0 0 1 4.118-5.206c-.2.344-.365.736-.502 1.147-.365 1.095-.59 2.516-.63 4.059H4.02Zm3.986 1C8.09 11.58 8.952 14 10 14s1.908-2.42 1.993-5.5H8.007Z" clip-rule="evenodd"/>
</svg>
