<svg xmlns="http://www.w3.org/2000/svg" width="16" height="16" fill="none" viewBox="0 0 16 16">
    <path fill="currentColor" fill-rule="evenodd" d="M3 1.5h10A1.5 1.5 0 0 1 14.5 3v5H16V3a3 3 0 0 0-3-3H3a3 3 0 0 0-3 3v10a3 3 0 0 0 3 3h5v-1.5H3A1.5 1.5 0 0 1 1.5 13V3A1.5 1.5 0 0 1 3 1.5Zm10.19 9.845a1.845 1.845 0 1 1-3.69 0 1.845 1.845 0 0 1 3.69 0Zm-.07 2.836a3.345 3.345 0 1 1 1.06-1.06l1.598 1.597a.75.75 0 0 1-1.06 1.06l-1.598-1.597ZM3.47 8.47a.75.75 0 0 0 1.06 1.06l2.5-2.5a.75.75 0 0 0 0-1.06l-2.5-2.5a.75.75 0 0 0-1.06 1.06L5.44 6.5 3.47 8.47Z" clip-rule="evenodd"/>
</svg>
