<svg xmlns="http://www.w3.org/2000/svg" width="1100" height="250" fill="none" viewBox="0 0 1100 250">
    <path fill="#fff" d="M0 0h1100v250H0z"/>
    <path fill="#262626" d="m472 121-5-2.887v5.774l5-2.887Zm-92 .5h87.5v-1H380v1Zm288-.5-5-2.887v5.774l5-2.887Zm-56 .5h51.5v-1H612v1Zm-370-.5-5-2.887v5.774l5-2.887Zm-56 .5h51.5v-1H186v1Z"/>
    <rect width="130" height="60" x="50" y="94" fill="#EEF3FE" rx="8"/>
    <path fill="#000" d="M80 120h6.5v8.6h-1.1V121h-4.2v7.6h-1.1V120H80Zm11.5 8.8c-.5 0-.9-.1-1.2-.3-.3-.2-.6-.5-.8-.9v3.3h-1.1v-8.4h.9l.1 1.2c.2-.4.5-.7.8-1 .4-.2.8-.4 1.3-.4.4 0 .7.1 1 .2.3.1.6.3.9.6.3.3.5.6.6 1 .1.4.2.9.2 1.4 0 .6-.1 1-.2 1.4-.2.4-.4.7-.6 1-.3.3-.6.5-.9.6-.3.2-.6.3-1 .3Zm-.2-1c.6 0 1-.2 1.3-.6.3-.4.5-1 .5-1.7 0-.8-.2-1.3-.5-1.7-.3-.4-.8-.6-1.3-.6-.3 0-.5 0-.8.1-.2.1-.4.2-.6.4-.2.2-.3.4-.4.7-.1.3-.1.6-.1 1s0 .7.1 1c.1.3.2.5.4.7.2.2.4.3.6.4.3.3.6.3.8.3Zm5.3-.6 3.3-4.8h1.1v6.2h-1.1v-4.8l-3.3 4.8h-1.1v-6.2h1.1v4.8Zm6.6-.5c.1-.4.2-1 .2-1.7v-2.6h4.2v6.2h-1.1v-5.3h-2.1c0 .9 0 1.6-.1 2.3-.1.7-.1 1.2-.3 1.7-.1.5-.3.8-.6 1-.3.2-.6.4-1.1.4h-.2v-1h.2c.5-.1.8-.4.9-1Zm8.7 2.1c-.4 0-.8-.1-1.2-.2-.4-.1-.7-.4-1-.6-.3-.3-.5-.6-.6-1-.2-.4-.2-.9-.2-1.4 0-.5.1-1 .2-1.4.2-.4.4-.7.6-1 .3-.3.6-.5 1-.6.4-.1.8-.2 1.2-.2.4 0 .8.1 1.2.2.4.1.7.4 1 .6.3.3.5.6.6 1 .2.4.2.9.2 1.4 0 .5-.1 1-.2 1.4-.2.4-.4.7-.6 1-.3.3-.6.5-1 .6-.3.1-.7.2-1.2.2Zm0-1c.3 0 .5 0 .8-.1.2-.1.4-.2.6-.4.2-.2.3-.4.4-.7.1-.3.1-.6.1-1s0-.7-.1-1c-.1-.3-.2-.5-.4-.7-.2-.2-.4-.3-.6-.4-.2-.1-.5-.1-.8-.1-.3 0-.5 0-.8.1-.2.1-.4.2-.6.4-.2.2-.3.4-.4.7-.1.3-.1.6-.1 1s0 .7.1 1c.1.3.2.5.4.7.2.2.4.3.6.4.3.1.6.1.8.1Zm8.3-5.4v2.7h.6l2-2.7h1.2l-2.3 3 2.4 3.2h-1.3l-2-2.7h-.5v2.7h-1.1v-2.7h-.5l-2 2.7h-1.2l2.4-3.1-2.3-3.1h1.2l1.9 2.7h.6v-2.7h.9Zm9.7 5.7c-.1.1-.2.1-.3.2-.1.1-.3.1-.5.2s-.4.1-.6.2c-.2 0-.5.1-.8.1-1 0-1.8-.3-2.4-.9-.5-.6-.8-1.4-.8-2.4 0-.5.1-1 .2-1.4.1-.4.4-.7.6-1 .3-.3.6-.5.9-.6.4-.1.8-.2 1.2-.2.4 0 .8.1 1.2.2.4.2.6.4.9.7.3.3.4.7.5 1.1.1.4.1.9 0 1.5h-4.4c0 .7.2 1.2.6 1.5.4.3.9.5 1.6.5.5 0 .9-.1 1.2-.2.3-.1.6-.3.9-.4v.9Zm-2.5-4.9c-.5 0-.8.1-1.2.4-.3.3-.5.7-.6 1.3h3.3c0-.6-.1-1-.4-1.3-.3-.3-.6-.4-1.1-.4Z"/>
    <path fill="#262626" d="M135.4 125.9h-3v2.8h-1.1v-6.2h1.1v2.6h3v-2.6h1.1v6.2h-1.1v-2.8Z"/>
    <path fill="#000" d="m139.3 127.2 3.3-4.8h1.1v6.2h-1.1v-4.8l-3.3 4.8h-1.1v-6.2h1.1v4.8Zm11.1.9c-.1.1-.2.1-.3.2-.1.1-.3.1-.5.2s-.4.1-.6.2c-.2 0-.5.1-.8.1-1 0-1.8-.3-2.4-.9-.5-.6-.8-1.4-.8-2.4 0-.5.1-1 .2-1.4.1-.4.4-.7.6-1 .3-.3.6-.5.9-.6.4-.1.8-.2 1.2-.2.4 0 .8.1 1.2.2.4.2.6.4.9.7.3.3.4.7.5 1.1.1.4.1.9 0 1.5h-4.4c0 .7.2 1.2.6 1.5.4.3.9.5 1.6.5.5 0 .9-.1 1.2-.2.3-.1.6-.3.9-.4v.9Zm-2.5-4.9c-.5 0-.8.1-1.2.4-.3.3-.5.7-.6 1.3h3.3c0-.6-.1-1-.4-1.3-.3-.3-.6-.4-1.1-.4Z"/>
    <rect width="130" height="60" x="246" y="94" fill="#EEF3FE" rx="8"/>
    <path fill="#262626" d="m286.2 127.1 4.7-7.1h1.2v8.6h-1.2v-7.1l-4.7 7.1H285V120h1.1v7.1h.1Zm10.5 1.6c-.5 0-.9-.1-1.3-.2s-.7-.4-1-.6c-.3-.3-.5-.6-.6-1-.1-.4-.2-.9-.2-1.4 0-.5.1-1 .2-1.4.1-.4.4-.7.6-1 .3-.3.6-.5 1-.6.4-.1.8-.2 1.3-.2.4 0 .7 0 1.1.1.3.1.6.2.8.4v.9c-.3-.2-.5-.3-.9-.4-.4-.1-.6-.1-1-.1-.7 0-1.3.2-1.6.6-.3.4-.5 1-.5 1.7 0 .8.2 1.4.5 1.7.3.4.8.6 1.6.6.4 0 .7 0 1-.1.3-.1.6-.2.9-.4v.9c-.2.1-.5.3-.8.3-.3.1-.7.2-1.1.2Zm5.8-5.5v5.3h-1.1v-5.3h-2v-.9h5v.9h-1.9Zm5.6 5.5c-.4 0-.8-.1-1.2-.2-.4-.1-.7-.4-1-.6-.3-.3-.5-.6-.6-1-.2-.4-.2-.9-.2-1.4 0-.5.1-1 .2-1.4.2-.4.4-.7.6-1 .3-.3.6-.5 1-.6.4-.1.8-.2 1.2-.2.4 0 .8.1 1.2.2.4.1.7.4 1 .6.3.3.5.6.6 1 .2.4.2.9.2 1.4 0 .5-.1 1-.2 1.4-.2.4-.4.7-.6 1-.3.3-.6.5-1 .6-.4.1-.8.2-1.2.2Zm0-1c.3 0 .5 0 .8-.1.2-.1.4-.2.6-.4.2-.2.3-.4.4-.7.1-.3.1-.6.1-1s0-.7-.1-1c-.1-.3-.2-.5-.4-.7-.2-.2-.4-.3-.6-.4-.2-.1-.5-.1-.8-.1-.3 0-.5 0-.8.1-.2.1-.4.2-.6.4-.2.2-.3.4-.4.7-.1.3-.1.6-.1 1s0 .7.1 1c.1.3.2.5.4.7.2.2.4.3.6.4.3.1.5.1.8.1Zm9 .9H316v-2.7c-.2.2-.5.3-.8.4-.3.1-.6.1-1 .1-.7 0-1.2-.2-1.6-.5-.4-.3-.6-.9-.6-1.7v-1.8h1.1v1.8c0 .5.1.8.3 1 .2.2.5.3.9.3.3 0 .6 0 .8-.1.3-.1.5-.2.7-.4v-2.7h1.1v6.3h.2Zm5.8-2.8h-3v2.8h-1.1v-6.2h1.1v2.6h3v-2.6h1.1v6.2h-1.1v-2.8Zm3.8 1.3 3.3-4.8h1.1v6.2H330v-4.8l-3.3 4.8h-1.1v-6.2h1.1v4.8Zm7.7-1.2h-.6v2.7h-1.1v-6.2h1.1v2.7h.6l2.2-2.7h1.2l-2.6 3.1 2.6 3.2h-1.3l-2.1-2.8Zm464.1 39.5h1.4l2.6 7.2h-1l-.7-2h-3.2l-.7 2h-.9l2.5-7.2Zm1.9 4.3-1.3-3.6-1.3 3.6h2.6Zm5.6 3c-.4 0-.7-.1-1-.3-.3-.2-.5-.4-.7-.8v2.7h-.9v-7h.8l.1 1c.2-.3.4-.6.7-.8.3-.2.7-.3 1.1-.3.3 0 .6.1.9.2.3.1.5.3.7.5.2.2.4.5.5.8.1.3.2.7.2 1.2s-.1.9-.2 1.2c-.1.3-.3.6-.5.8-.2.2-.5.4-.7.5-.4.3-.7.3-1 .3Zm-.1-.8c.5 0 .8-.2 1.1-.5.3-.3.4-.8.4-1.4 0-.6-.1-1.1-.4-1.4-.3-.3-.7-.5-1.1-.5-.2 0-.4 0-.6.1-.2.1-.4.2-.5.4-.1.2-.3.4-.3.6-.1.2-.1.5-.1.8 0 .3 0 .6.1.8l.3.6c.1.2.3.3.5.4.1.1.3.1.6.1Zm6.5-.3c-.1.1-.1.2-.2.4s-.2.2-.3.4c-.1.1-.3.2-.5.3-.2.1-.4.1-.7.1-.5 0-.8-.1-1.1-.4-.3-.3-.4-.6-.4-1.1 0-.6.2-1 .6-1.3.4-.3 1-.4 1.7-.4h1v-.4c0-.4-.1-.6-.3-.8-.2-.2-.5-.2-1-.2-.3 0-.6.1-.9.2-.3.1-.5.2-.8.4v-1c.2-.1.4-.2.8-.3.3-.1.7-.2 1-.2.7 0 1.1.1 1.5.4.3.3.5.7.5 1.3v3.6h-.8c0-.1 0-.2-.1-.4v-.6Zm-1.6.3c.3 0 .5-.1.7-.2.2-.1.3-.2.5-.4.1-.2.2-.3.3-.4.1-.1.1-.2.1-.3v-.4h-.9c-.5 0-.9.1-1.1.2-.2.2-.4.4-.4.7 0 .2.1.4.2.6.1.2.3.2.6.2Zm6 .8c-.4 0-.8-.1-1.1-.2-.3-.1-.6-.3-.8-.5-.2-.2-.4-.5-.5-.8-.1-.3-.2-.7-.2-1.1 0-.4.1-.8.2-1.1.1-.3.3-.6.5-.8.2-.2.5-.4.8-.5.3-.1.7-.2 1.1-.2.3 0 .6 0 .9.1.3.1.5.2.7.3v.8c-.2-.1-.5-.2-.7-.3-.3-.1-.5-.1-.8-.1-.6 0-1.1.2-1.3.5-.3.3-.4.8-.4 1.4 0 .6.1 1.1.4 1.4.3.3.7.5 1.3.5.3 0 .6 0 .9-.1.3-.1.5-.2.7-.3v.8c-.2.1-.4.2-.7.3-.3-.1-.6-.1-1-.1Zm5.2-4.6c-.4 0-.7.1-1 .3-.3.2-.5.4-.6.7v3.5h-.9v-7.2h.9v2.9c.1-.3.4-.5.7-.7.3-.2.7-.3 1.1-.3.5 0 .9.1 1.2.4.3.3.5.7.5 1.2v3.6h-.9V169c0-.4-.1-.6-.3-.8-.2 0-.4-.1-.7-.1Zm7.4 4.1c-.1.1-.2.1-.3.2-.1.1-.2.1-.4.2s-.3.1-.5.1-.4.1-.6.1c-.9 0-1.5-.2-2-.7-.5-.5-.7-1.1-.7-2 0-.4.1-.8.2-1.1.1-.3.3-.6.5-.8.2-.2.5-.4.8-.5.3-.1.6-.2 1-.2s.7.1 1 .2c.3.1.5.3.7.6.2.2.3.6.4.9.1.4.1.8 0 1.3h-3.7c0 .6.2 1 .5 1.3.3.3.7.4 1.3.4.4 0 .7-.1 1-.2.3-.1.5-.2.7-.4v.6h.1Zm-2.1-4.1c-.4 0-.7.1-1 .3-.3.2-.4.6-.5 1.1h2.8c0-.5-.1-.8-.3-1.1-.3-.2-.6-.3-1-.3Zm7.3 1.4h-.8v3.1h-.9v-7.2h.9v3.3h.7l2.6-3.3h1.1l-2.8 3.6 2.9 3.6h-1.2l-2.5-3.1Zm7.4 2.1c-.1.1-.1.2-.2.4s-.2.2-.3.4c-.1.1-.3.2-.5.3-.2.1-.4.1-.7.1-.5 0-.8-.1-1.1-.4-.3-.3-.4-.6-.4-1.1 0-.6.2-1 .6-1.3.4-.3 1-.4 1.7-.4h1v-.4c0-.4-.1-.6-.3-.8-.2-.2-.5-.2-1-.2-.3 0-.6.1-.9.2-.3.1-.5.2-.8.4v-1c.2-.1.4-.2.8-.3.3-.1.7-.2 1-.2.7 0 1.1.1 1.5.4.3.3.5.7.5 1.3v3.6h-.8c0-.1 0-.2-.1-.4v-.6Zm-1.5.3c.3 0 .5-.1.7-.2.2-.1.3-.2.5-.4.1-.2.2-.3.3-.4.1-.1.1-.2.1-.3v-.4h-.9c-.5 0-.9.1-1.1.2-.2.2-.4.4-.4.7 0 .2.1.4.2.6.1.2.3.2.6.2Zm5-3.7v4.4h-.9v-4.4h-.6v-.8h.6v-.1c0-.6.2-1.1.5-1.4.3-.3.8-.5 1.3-.5.2 0 .5 0 .7.1v.8c-.1 0-.1 0-.3-.1h-.4c-.3 0-.5.1-.7.3-.2.2-.3.5-.3.9v.1h1.5v.8h-1.4v-.1Zm3.8 2.2h-.5v2.2h-.9v-7.2h.9v4.2h.5l1.8-2.2h1L850 170l2.2 2.6h-1.1l-1.8-2.2Zm6.6 1.2c-.1.1-.1.2-.2.4s-.2.2-.3.4c-.1.1-.3.2-.5.3-.2.1-.4.1-.7.1-.5 0-.8-.1-1.1-.4-.3-.3-.4-.6-.4-1.1 0-.6.2-1 .6-1.3.4-.3 1-.4 1.7-.4h1v-.4c0-.4-.1-.6-.3-.8-.2-.2-.5-.2-1-.2-.3 0-.6.1-.9.2-.3.1-.5.2-.8.4v-1c.2-.1.4-.2.8-.3.3-.1.7-.2 1-.2.7 0 1.1.1 1.5.4.3.3.5.7.5 1.3v3.6h-.8c0-.1 0-.2-.1-.4v-.6Zm-1.6.3c.3 0 .5-.1.7-.2.2-.1.3-.2.5-.4.1-.2.2-.3.3-.4.1-.1.1-.2.1-.3v-.4h-.9c-.5 0-.9.1-1.1.2-.2.2-.4.4-.4.7 0 .2.1.4.2.6.1.2.3.2.6.2Zm9.8 1.7c-.6 0-1.1-.1-1.6-.3-.5-.2-.9-.5-1.3-.9s-.7-.8-.9-1.3c-.2-.5-.3-1.1-.3-1.7 0-.6.1-1.1.3-1.6.2-.5.5-.9.9-1.3s.8-.6 1.3-.8c.5-.2 1-.3 1.6-.3.6 0 1.1.1 1.6.3.5.2.9.5 1.3.8.4.4.7.8.9 1.3.2.5.3 1 .3 1.6 0 .6-.1 1.2-.3 1.7-.2.5-.5.9-.9 1.3s-.8.7-1.3.9c-.5.2-1 .3-1.6.3Zm0-.6c.5 0 1-.1 1.4-.3.4-.2.8-.4 1.1-.7.3-.3.5-.7.7-1.1.2-.4.3-.9.3-1.4 0-.5-.1-1-.3-1.4-.2-.4-.4-.8-.7-1.1-.3-.3-.7-.6-1.1-.7-.4-.2-.9-.3-1.4-.3-.5 0-1 .1-1.4.3-.4.2-.8.4-1.1.7-.3.3-.5.7-.7 1.1-.2.4-.3.9-.3 1.4 0 .5.1 1 .3 1.4.2.4.4.8.7 1.1.3.3.7.6 1.1.7.4.2.9.3 1.4.3Zm.2-1.4c-.7 0-1.2-.2-1.6-.6-.4-.4-.6-.9-.6-1.6 0-.7.2-1.2.6-1.6.4-.4.9-.6 1.6-.6.3 0 .5 0 .7.1.2.1.4.1.5.2v.7c-.2-.1-.3-.2-.5-.2s-.4-.1-.6-.1c-.9 0-1.3.5-1.3 1.4 0 .5.1.9.4 1.1.2.2.6.4 1 .4.2 0 .4 0 .6-.1.2-.1.4-.1.5-.3v.7c-.1.1-.2.2-.4.2-.4.3-.6.3-.9.3Zm4.3 2.2 3.2-8.8h.8l-3.2 8.8h-.8Zm4.8-8.4h2.4c.5 0 .9.1 1.3.2s.8.3 1.1.6c.3.3.5.6.7 1 .2.4.3 1 .3 1.6 0 .6-.1 1.2-.3 1.7-.2.5-.4.9-.7 1.2-.3.3-.7.6-1.1.7-.4.2-.9.2-1.4.2h-2.3v-7.2Zm1 .9v5.5h1.4c.4 0 .7-.1 1-.2.3-.1.6-.3.8-.5.2-.2.4-.5.5-.9.1-.4.2-.8.2-1.3s-.1-.9-.2-1.2c-.1-.3-.3-.6-.5-.8-.2-.2-.5-.3-.8-.4-.3-.1-.6-.1-1-.1h-1.4v-.1Zm9 5.3c-.1.1-.1.2-.2.4s-.2.2-.3.4c-.1.1-.3.2-.5.3-.2.1-.4.1-.7.1-.5 0-.8-.1-1.1-.4-.3-.3-.4-.6-.4-1.1 0-.6.2-1 .6-1.3.4-.3 1-.4 1.7-.4h1v-.4c0-.4-.1-.6-.3-.8-.2-.2-.5-.2-1-.2-.3 0-.6.1-.9.2-.3.1-.5.2-.8.4v-1c.2-.1.4-.2.8-.3.3-.1.7-.2 1-.2.7 0 1.1.1 1.5.4.3.3.5.7.5 1.3v3.6h-.8c0-.1 0-.2-.1-.4v-.6Zm-1.6.3c.3 0 .5-.1.7-.2.2-.1.3-.2.5-.4.1-.2.2-.3.3-.4.1-.1.1-.2.1-.3v-.4h-.9c-.5 0-.9.1-1.1.2-.2.2-.4.4-.4.7 0 .2.1.4.2.6.1.2.3.2.6.2Zm5.9.8c-.2 0-.3.1-.5.1-.3 0-.5 0-.6-.1-.1-.1-.3-.2-.4-.3-.1-.1-.2-.3-.2-.4-.1-.2-.1-.3-.1-.5v-3.2h-.6v-.8h.6v-1.1h.9v1.1h1.5v.8h-1.5v3.1c0 .2.1.4.2.5.1.1.3.2.6.2s.5-.1.7-.2v.8c-.3-.1-.4-.1-.6 0Zm4.7-1.1c-.1.1-.1.2-.2.4s-.2.2-.3.4c-.1.1-.3.2-.5.3-.2.1-.4.1-.7.1-.5 0-.8-.1-1.1-.4-.3-.3-.4-.6-.4-1.1 0-.6.2-1 .6-1.3.4-.3 1-.4 1.7-.4h1v-.4c0-.4-.1-.6-.3-.8-.2-.2-.5-.2-1-.2-.3 0-.6.1-.9.2-.3.1-.5.2-.8.4v-1c.2-.1.4-.2.8-.3.3-.1.7-.2 1-.2.7 0 1.1.1 1.5.4.3.3.5.7.5 1.3v3.6h-.8c0-.1 0-.2-.1-.4v-.6Zm-1.6.3c.3 0 .5-.1.7-.2.2-.1.3-.2.5-.4.1-.2.2-.3.3-.4.1-.1.1-.2.1-.3v-.4h-.9c-.5 0-.9.1-1.1.2-.2.2-.4.4-.4.7 0 .2.1.4.2.6.1.2.3.2.6.2Zm8.1.8c-.3 0-.6 0-.9-.1-.3 0-.5-.1-.7-.2-.2-.1-.4-.1-.5-.2-.1-.1-.2-.2-.3-.2v-.9c.1.1.2.2.4.3.2.1.3.2.6.2s.4.1.7.2c.2 0 .5.1.8.1.5 0 .9-.1 1.2-.3.3-.2.5-.5.5-.9 0-.2 0-.4-.1-.5l-.3-.3c-.1-.1-.3-.2-.5-.2s-.5-.1-.7-.2c-.3-.1-.6-.2-.8-.3-.3-.1-.5-.2-.8-.4-.2-.2-.4-.3-.5-.6-.1-.2-.2-.5-.2-.9 0-.6.2-1.1.7-1.5.4-.3 1.1-.5 2-.5h.7c.2 0 .4.1.5.1.2 0 .3.1.4.1.1 0 .2.1.3.2v.9c-.3-.2-.6-.3-.9-.4-.3-.1-.7-.1-1.1-.1-.3 0-.6 0-.8.1-.2 0-.4.1-.5.2l-.3.3c-.1.1-.1.3-.1.5s0 .4.1.5c.1.1.2.2.4.3.2.1.3.2.5.2.2.1.4.1.6.2.3.1.6.1.9.2.3.1.6.2.8.4l.6.6c.1.2.2.6.2.9 0 .4-.1.7-.2 1-.2.3-.3.5-.6.6-.2.2-.5.3-.9.4-.5.2-.9.2-1.2.2Zm5.9 0c-.2 0-.3.1-.5.1-.3 0-.5 0-.6-.1-.1-.1-.3-.2-.4-.3-.1-.1-.2-.3-.2-.4-.1-.2-.1-.3-.1-.5v-3.2h-.6v-.8h.6v-1.1h.9v1.1h1.5v.8h-1.5v3.1c0 .2.1.4.2.5.1.1.3.2.6.2s.5-.1.7-.2v.8c-.3-.1-.5-.1-.6 0Zm3.1-4.1c-.3.2-.5.4-.7.7v3.3h-.9v-5.2h.8l.1 1.1c.1-.3.4-.6.6-.8.3-.2.6-.4 1.1-.4v1c-.4 0-.7.1-1 .3Zm6.1 3.6c-.1.1-.2.1-.3.2-.1.1-.2.1-.4.2s-.3.1-.5.1-.4.1-.6.1c-.9 0-1.5-.2-2-.7-.5-.5-.7-1.1-.7-2 0-.4.1-.8.2-1.1.1-.3.3-.6.5-.8.2-.2.5-.4.8-.5.3-.1.6-.2 1-.2s.7.1 1 .2c.3.1.5.3.7.6.2.2.3.6.4.9.1.4.1.8 0 1.3h-3.7c0 .6.2 1 .5 1.3.3.3.7.4 1.3.4.4 0 .7-.1 1-.2.3-.1.5-.2.7-.4v.6h.1Zm-2.1-4.1c-.4 0-.7.1-1 .3-.3.2-.4.6-.5 1.1h2.8c0-.5-.1-.8-.3-1.1-.3-.2-.6-.3-1-.3Zm6.3 3.5c-.1.1-.1.2-.2.4s-.2.2-.3.4c-.1.1-.3.2-.5.3-.2.1-.4.1-.7.1-.5 0-.8-.1-1.1-.4-.3-.3-.4-.6-.4-1.1 0-.6.2-1 .6-1.3.4-.3 1-.4 1.7-.4h1v-.4c0-.4-.1-.6-.3-.8-.2-.2-.5-.2-1-.2-.3 0-.6.1-.9.2-.3.1-.5.2-.8.4v-1c.2-.1.4-.2.8-.3.3-.1.7-.2 1-.2.7 0 1.1.1 1.5.4.3.3.5.7.5 1.3v3.6h-.8c0-.1 0-.2-.1-.4v-.6Zm-1.6.3c.3 0 .5-.1.7-.2.2-.1.3-.2.5-.4.1-.2.2-.3.3-.4.1-.1.1-.2.1-.3v-.4h-.9c-.5 0-.9.1-1.1.2-.2.2-.4.4-.4.7 0 .2.1.4.2.6.1.2.3.2.6.2Zm4.7.7h-.9v-5.2h.8l.1.9c.1-.3.4-.5.6-.7.3-.2.6-.3 1.1-.3.4 0 .7.1 1 .3.3.2.4.5.5.9.1-.4.4-.6.7-.8.3-.2.7-.3 1.1-.3.5 0 .9.1 1.1.4.3.3.4.7.4 1.2v3.6h-.9v-3.5c0-.3-.1-.6-.3-.7-.2-.2-.4-.2-.7-.2-.2 0-.4 0-.5.1-.1.1-.3.1-.4.2-.1.1-.2.2-.3.4-.1.1-.2.3-.3.4v3.4h-.9v-3.6c0-.3-.1-.6-.3-.7-.2-.1-.4-.2-.7-.2-.2 0-.4 0-.5.1-.1 0-.3.1-.4.2l-.3.3c-.1.1-.2.3-.3.4v3.4h.3Zm9.6.1c-.3 0-.5 0-.7-.1-.2 0-.4-.1-.5-.2-.1-.1-.3-.1-.4-.2-.1-.1-.2-.1-.3-.2v-.8c.1.1.2.1.3.2.1.1.3.1.4.2.2.1.3.1.5.2.2 0 .4.1.7.1.4 0 .7-.1.9-.2.2-.1.3-.3.3-.6 0-.2 0-.3-.1-.4-.1-.1-.2-.2-.3-.2-.1-.1-.3-.1-.4-.1-.2 0-.3-.1-.5-.1s-.4-.1-.6-.2c-.2-.1-.4-.1-.6-.3l-.4-.4c-.1-.2-.2-.4-.2-.7 0-.5.2-.8.5-1.1.3-.3.9-.4 1.5-.4.4 0 .7 0 1 .1.3.1.5.2.7.2v.8l-.6-.3c-.3-.1-.6-.1-1-.1s-.7.1-.9.2c-.2.1-.3.3-.3.6 0 .1 0 .3.1.3l.2.2c.1.1.2.1.4.1.1 0 .3.1.4.1.2 0 .5.1.7.2.2.1.5.1.6.3.1.2.3.3.5.5.1.2.2.4.2.8 0 .3-.1.5-.2.8-.1.3-.3.4-.5.5-.2.1-.4.2-.7.3-.2-.1-.4-.1-.7-.1Z"/>
    <rect width="130" height="60" x="478" y="94" fill="#FFF2BF" rx="8"/>
    <path fill="#262626" d="M507 120h2.9c.6 0 1.1.1 1.6.2s.9.4 1.3.7c.4.3.7.7.9 1.2.2.5.3 1.1.3 1.9 0 .8-.1 1.4-.3 2-.2.6-.5 1-.9 1.4-.4.4-.8.7-1.3.9-.5.2-1.1.3-1.7.3H507V120Zm1.1 1.1v6.6h1.6c.4 0 .8-.1 1.2-.2.4-.1.7-.3.9-.6.3-.3.5-.6.6-1.1.1-.5.2-1 .2-1.6 0-.6-.1-1.1-.2-1.5-.1-.4-.3-.7-.6-.9-.3-.2-.6-.4-.9-.5-.4-.1-.7-.1-1.1-.1h-1.7v-.1Zm10.8 6.4c-.1.1-.2.3-.3.5-.1.2-.3.3-.4.4-.1.1-.4.2-.6.3-.2.1-.5.1-.8.1-.6 0-1-.2-1.4-.5-.3-.3-.5-.8-.5-1.4 0-.7.2-1.2.7-1.5.5-.3 1.2-.5 2-.5h1.2v-.5c0-.4-.1-.7-.3-.9-.2-.2-.6-.3-1.2-.3-.4 0-.7.1-1.1.2-.3.1-.7.3-.9.4v-.9c.2-.1.5-.3.9-.4.4-.1.8-.2 1.3-.2.8 0 1.4.2 1.8.5.4.3.6.8.6 1.5v4.3h-1c0-.1 0-.3-.1-.5v-.5l.1-.1Zm-1.8.3c.3 0 .6-.1.8-.2.2-.1.4-.3.6-.5.1-.2.2-.4.3-.5.1-.2.1-.3.1-.4v-.5h-1.1c-.6 0-1.1.1-1.4.3-.3.2-.4.5-.4.8 0 .3.1.5.3.7.1.2.4.3.8.3Zm7.1.9c-.2 0-.4.1-.6.1-.3 0-.6 0-.8-.1-.2-.1-.4-.2-.5-.4-.1-.1-.2-.3-.3-.5-.1-.2-.1-.4-.1-.6v-3.9h-.7v-.9h.7v-1.3h1.1v1.3h1.8v.9H523v3.8c0 .3.1.5.2.6.1.1.4.2.7.2.3 0 .6-.1.9-.3v1c-.3 0-.4.1-.6.1Zm5.5-1.2c-.1.1-.2.3-.3.5-.1.2-.3.3-.4.4-.1.1-.4.2-.6.3-.2.1-.5.1-.8.1-.6 0-1-.2-1.4-.5-.3-.3-.5-.8-.5-1.4 0-.7.2-1.2.7-1.5.5-.3 1.2-.5 2-.5h1.2v-.5c0-.4-.1-.7-.3-.9-.2-.2-.6-.3-1.2-.3-.4 0-.7.1-1.1.2-.3.1-.7.3-.9.4v-.9c.2-.1.5-.3.9-.4.4-.1.8-.2 1.3-.2.8 0 1.4.2 1.8.5.4.3.6.8.6 1.5v4.3h-1c0-.1 0-.3-.1-.5v-.5l.1-.1Zm-1.9.3c.3 0 .6-.1.8-.2.2-.1.4-.3.6-.5.1-.2.2-.4.3-.5.1-.2.1-.3.1-.4v-.5h-1.1c-.6 0-1.1.1-1.4.3-.3.2-.4.5-.4.8 0 .3.1.5.3.7.2.2.5.3.8.3Zm10.5-6.7v7.6h-1.1v-7.6h-2.7v-1h6.4v1h-2.6Zm5 2.7c-.4.2-.6.5-.8.9v4h-1.1v-6.2h.9l.1 1.4c.2-.4.4-.7.8-1 .3-.3.8-.4 1.3-.5v1.2c-.4-.1-.8 0-1.2.2Zm6.1 3.7c-.1.1-.2.3-.3.5-.1.2-.3.3-.4.4-.1.1-.4.2-.6.3-.2.1-.5.1-.8.1-.6 0-1-.2-1.4-.5-.3-.3-.5-.8-.5-1.4 0-.7.2-1.2.7-1.5.5-.3 1.2-.5 2-.5h1.2v-.5c0-.4-.1-.7-.3-.9-.2-.2-.6-.3-1.2-.3-.4 0-.7.1-1.1.2-.3.1-.7.3-.9.4v-.9c.2-.1.5-.3.9-.4.4-.1.8-.2 1.3-.2.8 0 1.4.2 1.8.5.4.3.6.8.6 1.5v4.3h-1c0-.1 0-.3-.1-.5v-.5l.1-.1Zm-1.9.3c.3 0 .6-.1.8-.2.2-.1.4-.3.6-.5.1-.2.2-.4.3-.5.1-.2.1-.3.1-.4v-.5h-1.1c-.6 0-1.1.1-1.4.3-.3.2-.4.5-.4.8 0 .3.1.5.3.7.2.2.4.3.8.3Zm7.5-4.6c-.5 0-.9.1-1.2.3-.3.2-.5.5-.7.8v4.2H552v-6.2h1v1.1c.2-.4.4-.7.8-.9.4-.2.8-.3 1.4-.3.6 0 1.1.2 1.5.5.4.3.5.8.5 1.5v4.4h-1.1v-4.3c0-.4-.1-.7-.3-.9-.1-.1-.4-.2-.8-.2Zm5.9 5.6c-.3 0-.6 0-.9-.1-.3-.1-.5-.1-.7-.2-.2-.1-.3-.2-.5-.2s-.2-.2-.3-.2v-.9l.3.3c.1.1.3.2.5.3.2.1.4.1.7.2.3.1.5.1.8.1.4 0 .8-.1 1.1-.2.3-.1.4-.4.4-.7 0-.2 0-.3-.1-.4l-.3-.3c-.1-.1-.3-.1-.5-.2s-.4-.1-.6-.1c-.3-.1-.5-.1-.8-.2-.3-.1-.5-.2-.7-.3-.2-.1-.4-.3-.5-.5-.1-.2-.2-.5-.2-.8 0-.6.2-1 .7-1.3.4-.3 1-.5 1.8-.5.4 0 .8 0 1.2.1.3.1.6.2.8.3v.9c-.2-.1-.5-.2-.8-.3-.3-.1-.7-.1-1.1-.1-.5 0-.8.1-1.1.2-.3.1-.4.4-.4.7 0 .2 0 .3.1.4.1.1.2.2.3.2.1.1.3.1.4.1.1 0 .3.1.5.1.3.1.6.1.8.2.3.1.5.2.8.3.3.1.4.3.6.5.1.2.2.5.2.9s-.1.7-.2.9c-.1.2-.3.4-.6.6-.2.1-.5.2-.8.3-.3-.2-.6-.1-.9-.1Zm5.2-5.5v5.3H565v-5.3h-.8v-.9h.8v-.1c0-.7.2-1.3.6-1.7.4-.4.9-.6 1.6-.6.3 0 .6 0 .8.1v.9c-.1 0-.2-.1-.3-.1h-.4c-.4 0-.7.1-.9.3-.2.2-.3.6-.3 1.1v.2h1.8v.9h-1.8v-.1Zm7.8 4.8c-.1.1-.2.1-.3.2-.1.1-.3.1-.5.2s-.4.1-.6.2c-.2 0-.5.1-.8.1-1 0-1.8-.3-2.4-.9-.5-.6-.8-1.4-.8-2.4 0-.5.1-1 .2-1.4.1-.4.4-.7.6-1 .3-.3.6-.5.9-.6.4-.1.8-.2 1.2-.2.4 0 .8.1 1.2.2.4.2.6.4.9.7.3.3.4.7.5 1.1.1.4.1.9 0 1.5h-4.4c0 .7.2 1.2.6 1.5.4.3.9.5 1.6.5.5 0 .9-.1 1.2-.2.3-.1.6-.3.9-.4v.9Zm-2.5-4.9c-.5 0-.8.1-1.2.4-.3.3-.5.7-.6 1.3h3.3c0-.6-.1-1-.4-1.3-.3-.3-.6-.4-1.1-.4Zm5.8.6c-.4.2-.6.5-.8.9v4h-1.1v-6.2h.9l.1 1.4c.2-.4.4-.7.8-1 .3-.3.8-.4 1.3-.5v1.2c-.5-.1-.9 0-1.2.2Z"/>
    <rect width="77" height="59" x="672.5" y="91.5" stroke="#5282FF" rx="7.5"/>
    <rect width="77" height="59" x="672.5" y="91.5" stroke="#5282FF" rx="7.5"/>
    <path fill="#262626" d="M706.8 128.5c-.2 0-.4-.1-.6-.2-.1-.1-.2-.3-.2-.5s.1-.4.2-.6c.1-.1.3-.2.6-.2.2 0 .4.1.6.2.1.1.2.3.2.6 0 .2-.1.4-.2.5-.2.2-.4.2-.6.2Zm2.8 0c-.2 0-.4-.1-.6-.2-.1-.1-.2-.3-.2-.5s.1-.4.2-.6c.1-.1.3-.2.6-.2.2 0 .4.1.6.2.1.1.2.3.2.6 0 .2-.1.4-.2.5-.2.2-.3.2-.6.2Zm2.9 0c-.2 0-.4-.1-.6-.2-.1-.1-.2-.3-.2-.5s.1-.4.2-.6c.1-.1.3-.2.6-.2.2 0 .4.1.6.2.1.1.2.3.2.6 0 .2-.1.4-.2.5-.2.2-.4.2-.6.2Z"/>
    <rect width="77" height="59" x="749.5" y="91.5" stroke="#5282FF" rx="7.5"/>
    <path fill="#262626" d="M784.8 128.5c-.2 0-.4-.1-.6-.2-.1-.1-.2-.3-.2-.5s.1-.4.2-.6c.1-.1.3-.2.6-.2.2 0 .4.1.6.2.1.1.2.3.2.6 0 .2-.1.4-.2.5-.2.2-.4.2-.6.2Zm2.8 0c-.2 0-.4-.1-.6-.2-.1-.1-.2-.3-.2-.5s.1-.4.2-.6c.1-.1.3-.2.6-.2.2 0 .4.1.6.2.1.1.2.3.2.6 0 .2-.1.4-.2.5-.2.2-.3.2-.6.2Zm2.9 0c-.2 0-.4-.1-.6-.2-.1-.1-.2-.3-.2-.5s.1-.4.2-.6c.1-.1.3-.2.6-.2.2 0 .4.1.6.2.1.1.2.3.2.6 0 .2-.1.4-.2.5-.2.2-.4.2-.6.2Z"/>
    <rect width="77" height="59" x="826.5" y="91.5" stroke="#5282FF" rx="7.5"/>
    <path fill="#262626" d="M860.8 128.5c-.2 0-.4-.1-.6-.2-.1-.1-.2-.3-.2-.5s.1-.4.2-.6c.1-.1.3-.2.6-.2.2 0 .4.1.6.2.1.1.2.3.2.6 0 .2-.1.4-.2.5-.2.2-.4.2-.6.2Zm2.8 0c-.2 0-.4-.1-.6-.2-.1-.1-.2-.3-.2-.5s.1-.4.2-.6c.1-.1.3-.2.6-.2.2 0 .4.1.6.2.1.1.2.3.2.6 0 .2-.1.4-.2.5-.2.2-.3.2-.6.2Zm2.9 0c-.2 0-.4-.1-.6-.2-.1-.1-.2-.3-.2-.5s.1-.4.2-.6c.1-.1.3-.2.6-.2.2 0 .4.1.6.2.1.1.2.3.2.6 0 .2-.1.4-.2.5-.2.2-.4.2-.6.2Z"/>
    <rect width="77" height="59" x="903.5" y="91.5" stroke="#5282FF" rx="7.5"/>
    <path fill="#262626" d="M937.8 128.5c-.2 0-.4-.1-.6-.2-.1-.1-.2-.3-.2-.5s.1-.4.2-.6c.1-.1.3-.2.6-.2.2 0 .4.1.6.2.1.1.2.3.2.6 0 .2-.1.4-.2.5-.2.2-.4.2-.6.2Zm2.8 0c-.2 0-.4-.1-.6-.2-.1-.1-.2-.3-.2-.5s.1-.4.2-.6c.1-.1.3-.2.6-.2.2 0 .4.1.6.2.1.1.2.3.2.6 0 .2-.1.4-.2.5-.2.2-.3.2-.6.2Zm2.9 0c-.2 0-.4-.1-.6-.2-.1-.1-.2-.3-.2-.5s.1-.4.2-.6c.1-.1.3-.2.6-.2.2 0 .4.1.6.2.1.1.2.3.2.6 0 .2-.1.4-.2.5-.2.2-.4.2-.6.2Z"/>
    <rect width="77" height="59" x="980.5" y="91.5" stroke="#5282FF" rx="7.5"/>
    <path fill="#262626" d="M1015.8 128.5c-.2 0-.4-.1-.6-.2-.1-.1-.2-.3-.2-.5s.1-.4.2-.6c.1-.1.3-.2.6-.2.2 0 .4.1.6.2.1.1.2.3.2.6 0 .2-.1.4-.2.5-.2.2-.4.2-.6.2Zm2.8 0c-.2 0-.4-.1-.6-.2-.1-.1-.2-.3-.2-.5s.1-.4.2-.6c.1-.1.3-.2.6-.2.2 0 .4.1.6.2.1.1.2.3.2.6 0 .2-.1.4-.2.5-.2.2-.3.2-.6.2Zm2.9 0c-.2 0-.4-.1-.6-.2-.1-.1-.2-.3-.2-.5s.1-.4.2-.6c.1-.1.3-.2.6-.2.2 0 .4.1.6.2.1.1.2.3.2.6 0 .2-.1.4-.2.5-.2.2-.4.2-.6.2ZM198.3 105v-.8h1c.5 0 .9-.1 1.1-.3.3-.2.4-.5.4-.9s-.1-.7-.4-.9c-.3-.2-.6-.3-1.1-.3-.5 0-.9 0-1.2.1-.3.1-.7.2-1 .4v-.8c.2-.1.5-.2.9-.3.4-.1.8-.2 1.4-.2.7 0 1.3.2 1.8.5.4.3.7.8.7 1.4 0 .4-.1.8-.4 1-.3.2-.6.5-1.1.6.6.1 1 .2 1.3.5.3.3.4.7.4 1.2 0 .4-.1.7-.2 1-.1.3-.3.5-.6.7-.3.2-.5.3-.9.4-.3.1-.7.1-1.1.1-.5 0-1-.1-1.4-.2-.4-.1-.7-.3-.9-.4v-.9c.6.4 1.4.7 2.2.7.2 0 .5 0 .7-.1.2 0 .4-.1.6-.2.2-.1.3-.2.4-.4.1-.2.1-.4.1-.6 0-.5-.1-.8-.4-1-.3-.2-.7-.3-1.3-.3h-1Zm8 2.3c-.1.1-.1.2-.2.4s-.2.2-.3.4c-.1.1-.3.2-.5.3-.2.1-.4.1-.7.1-.5 0-.8-.1-1.1-.4-.3-.3-.4-.6-.4-1.1 0-.6.2-1 .6-1.3.4-.3 1-.4 1.7-.4h1v-.4c0-.4-.1-.6-.3-.8-.2-.2-.5-.2-1-.2-.3 0-.6.1-.9.2-.3.1-.5.2-.8.4v-1c.2-.1.4-.2.8-.3.3-.1.7-.2 1-.2.7 0 1.1.1 1.5.4.3.3.5.7.5 1.3v3.6h-.8c0-.1 0-.2-.1-.4v-.6Zm-1.5.3c.3 0 .5-.1.7-.2.2-.1.3-.2.5-.4.1-.2.2-.3.3-.4.1-.1.1-.2.1-.3v-.4h-.9c-.5 0-.9.1-1.1.2-.2.2-.4.4-.4.7 0 .2.1.4.2.6.1.2.3.2.6.2Zm3.8-4.5h4.2v5.2h-1v-4.4h-2.4v4.4h-.9v-5.2h.1Zm6.4 4 2.8-4h.9v5.2h-.9v-4l-2.8 4h-.9v-5.2h.9v4Zm7.4 1.3c-.4 0-.8-.1-1.1-.2-.3-.1-.6-.3-.8-.5-.2-.2-.4-.5-.5-.8-.1-.3-.2-.7-.2-1.1 0-.4.1-.8.2-1.1.1-.3.3-.6.5-.8.2-.2.5-.4.8-.5.3-.1.7-.2 1.1-.2.3 0 .6 0 .9.1.3.1.5.2.7.3v.8c-.2-.1-.5-.2-.7-.3-.3-.1-.5-.1-.8-.1-.6 0-1.1.2-1.3.5-.3.3-.4.8-.4 1.4 0 .6.1 1.1.4 1.4.3.3.7.5 1.3.5.3 0 .6 0 .9-.1.3-.1.5-.2.7-.3v.8c-.2.1-.4.2-.7.3-.4-.1-.7-.1-1-.1Zm6.6-1.8c0 .3-.1.6-.2.8-.1.2-.3.4-.4.5-.2.1-.4.2-.7.3-.3.1-.6.1-.9.1h-1.7v-5.2h.9v1.8h.9c.7 0 1.2.1 1.5.4.4.3.6.7.6 1.3Zm-3-.9v1.9h.8c.4 0 .7-.1.9-.2.2-.1.4-.4.4-.7 0-.3-.1-.6-.3-.7-.2-.1-.5-.2-.9-.2h-.9v-.1Zm170.5-7.4c-.5 0-.9-.1-1.4-.2-.4-.2-.8-.4-1.1-.7-.3-.3-.5-.7-.7-1.2-.2-.5-.3-1-.3-1.6 0-.6.1-1.1.3-1.6.2-.5.4-.8.7-1.1.3-.3.7-.5 1.1-.7.4-.2.9-.2 1.4-.2.5 0 .9.1 1.4.2.4.2.8.4 1.1.7.3.3.5.7.7 1.1.2.5.3 1 .3 1.6 0 .6-.1 1.1-.3 1.6-.2.5-.4.8-.7 1.2-.3.3-.7.6-1.1.7-.5.1-1 .2-1.4.2Zm0-.8c.3 0 .7-.1 1-.2.3-.1.5-.3.8-.5.2-.2.4-.5.5-.9.1-.4.2-.8.2-1.3s-.1-1-.2-1.3c-.1-.4-.3-.7-.5-.9-.2-.2-.5-.4-.8-.5-.3-.1-.6-.2-1-.2s-.7.1-1 .2c-.3.1-.5.3-.8.5-.2.2-.4.5-.5.9-.1.4-.2.8-.2 1.3s.1 1 .2 1.3c.1.4.3.7.5.9.2.2.5.4.8.5.3.1.6.2 1 .2Zm6.6-3.7v4.4h-.9v-4.4h-1.6V93h4.2v.8h-1.7Zm4.8 4.5c-.4 0-.8-.1-1.1-.2-.3-.1-.6-.3-.8-.5-.2-.2-.4-.5-.5-.8-.1-.3-.2-.7-.2-1.1 0-.4.1-.8.2-1.1.1-.3.3-.6.5-.8.2-.2.5-.4.8-.5.3-.1.7-.2 1.1-.2.3 0 .6 0 .9.1.3.1.5.2.7.3v.8c-.2-.1-.5-.2-.7-.3-.3-.1-.5-.1-.8-.1-.6 0-1.1.2-1.3.5-.3.3-.4.8-.4 1.4 0 .6.1 1.1.4 1.4.3.3.7.5 1.3.5.3 0 .6 0 .9-.1.3-.1.5-.2.7-.3v.8c-.2.1-.4.2-.7.3-.4-.1-.7-.1-1-.1Zm3.1-1.7c.1-.3.2-.8.2-1.4V93h3.5v5.2h-.9v-4.4H412c0 .7 0 1.3-.1 1.9 0 .6-.1 1-.2 1.4-.1.4-.3.7-.5.9-.2.2-.5.3-.9.3h-.2v-.9h.1c.5 0 .7-.3.8-.8Zm9.3 1.2c-.1.1-.2.1-.3.2-.1.1-.2.1-.4.2s-.3.1-.5.1-.4.1-.7.1c-.9 0-1.5-.2-2-.7-.5-.5-.7-1.1-.7-2 0-.4.1-.8.2-1.1.1-.3.3-.6.5-.8.2-.2.5-.4.8-.5.3-.1.6-.2 1-.2s.7.1 1 .2c.3.1.5.3.7.6.2.2.3.6.4.9.1.3.1.8 0 1.3h-3.7c0 .6.2 1 .5 1.3.3.3.7.4 1.3.4.4 0 .7-.1 1-.2.3-.1.5-.2.7-.4v.6h.2Zm-2-4.1c-.4 0-.7.1-1 .3-.3.2-.4.6-.5 1.1h2.8c0-.5-.1-.8-.3-1.1-.3-.2-.6-.3-1-.3Zm6.7-.7v2.2h.5l1.7-2.2h1l-1.9 2.5 2 2.7h-1.1l-1.7-2.2h-.4v2.2h-.9V96h-.4l-1.7 2.2h-1l2-2.6-1.9-2.6h1l1.6 2.2h.5V93h.7Zm5 4 2.8-4h.9v5.2h-.9v-4l-2.8 4h-.9V93h.9v4Zm5.1-4h1.9c.6 0 1.1.1 1.4.3.3.2.5.6.5 1 0 .3-.1.6-.2.7-.2.2-.4.3-.7.4.7.1 1.1.5 1.1 1.2 0 .3-.1.5-.2.7-.1.2-.3.3-.4.5-.1.2-.4.2-.7.3-.3.1-.5.1-.9.1H435V93h.1Zm.9.8v1.4h1c.3 0 .6-.1.8-.2.2-.1.3-.3.3-.5 0-.3-.1-.5-.3-.6-.2-.1-.4-.2-.8-.2h-1v.1Zm0 2.1v1.6h1.5c.1 0 .3-.1.4-.1.1-.1.2-.1.3-.2.1-.1.1-.2.1-.4 0-.3-.1-.5-.3-.6-.2-.1-.5-.2-.9-.2H436v-.1Zm7.5 1.3c-.1.1-.1.2-.2.4-.1.1-.2.2-.3.4-.1.2-.3.2-.5.3-.2.1-.4.1-.7.1-.5 0-.8-.1-1.1-.4-.3-.3-.4-.6-.4-1.1 0-.6.2-1 .6-1.3.4-.3 1-.4 1.7-.4h1v-.4c0-.4-.1-.6-.3-.8-.2-.2-.5-.2-1-.2-.3 0-.6.1-.9.2-.3.1-.5.2-.8.4v-1c.2-.1.4-.2.8-.3.4-.1.7-.2 1-.2.7 0 1.2.1 1.5.4.3.3.5.7.5 1.3v3.6h-.8c0-.1 0-.2-.1-.4v-.6Zm-1.5.3c.3 0 .5-.1.7-.2.2-.1.3-.2.5-.4.1-.2.2-.3.3-.4.1-.1.1-.2.1-.3v-.4h-1c-.5 0-.9.1-1.1.2-.2.2-.4.4-.4.7 0 .2.1.4.2.6.1.2.4.2.7.2Zm7.1-1.6h-2.5v2.3h-.9V93h.9v2.1h2.5V93h.9v5.2h-.9v-2.3Zm3.2 1.1 2.8-4h.9v5.2h-.9v-4l-2.8 4h-.9V93h.9v4Zm9.3.8c-.1.1-.2.1-.3.2-.1.1-.2.1-.4.2s-.3.1-.5.1-.4.1-.6.1c-.9 0-1.5-.2-2-.7-.5-.5-.7-1.1-.7-2 0-.4.1-.8.2-1.1.1-.3.3-.6.5-.8.2-.2.5-.4.8-.5.3-.1.6-.2 1-.2s.7.1 1 .2c.3.1.5.3.7.6.2.2.3.6.4.9.1.4.1.8 0 1.3H458c0 .6.2 1 .5 1.3.3.3.7.4 1.3.4.4 0 .7-.1 1-.2.3-.1.5-.2.7-.4v.6h.1Zm-2.1-4.1c-.4 0-.7.1-1 .3-.3.2-.4.6-.5 1.1h2.8c0-.5-.1-.8-.3-1.1-.3-.2-.6-.3-1-.3ZM402.8 109l2.8-4h.9v5.2h-.9v-4l-2.8 4h-.9V105h.9v4Zm8.8-.3c0 .3-.1.5-.2.7-.1.2-.3.4-.5.5-.2.1-.4.2-.7.3-.3.1-.5.1-.8.1-.4 0-.7 0-1-.1-.3-.1-.5-.2-.7-.3v-.8c.2.1.5.2.7.3.3.1.6.1.9.1.4 0 .7-.1 1-.2.3-.1.4-.3.4-.6s-.1-.5-.3-.6c-.2-.1-.5-.2-1-.2h-.7v-.7h.7c.4 0 .6-.1.8-.2.2-.1.3-.3.3-.6 0-.1 0-.2-.1-.3-.1-.1-.1-.2-.3-.2-.1-.1-.2-.1-.4-.1h-.5c-.3 0-.6 0-.9.1-.3.1-.5.2-.7.3v-.8c.2-.1.4-.2.7-.3.3-.1.6-.1 1-.1.6 0 1.1.1 1.4.4.3.3.5.6.5 1 0 .3-.1.6-.3.8-.2.2-.4.3-.8.4.4.1.7.2.9.4.2.2.6.4.6.7Zm6.2-2.7-1.8 3.6h-.7l-1.7-3.6v4.2h-.8V105h1.3l1.6 3.5 1.7-3.5h1.2v5.2h-.9V106h.1Zm6.4 3.8c-.1.1-.2.1-.3.2-.1.1-.2.1-.4.2s-.3.1-.5.1-.4.1-.7.1c-.9 0-1.5-.2-2-.7-.5-.5-.7-1.1-.7-2 0-.4.1-.8.2-1.1.1-.3.3-.6.5-.8.2-.2.5-.4.8-.5.3-.1.6-.2 1-.2s.7.1 1 .2c.3.1.5.3.7.6.2.2.3.6.4.9.1.3.1.8 0 1.3h-3.6c0 .6.2 1 .5 1.3.3.3.7.4 1.3.4.4 0 .7-.1 1-.2.3-.1.5-.2.7-.4v.6h.1Zm-2-4.1c-.4 0-.7.1-1 .3-.3.2-.4.6-.5 1.1h2.8c0-.5-.1-.8-.3-1.1-.3-.2-.6-.3-1-.3Zm6.7 2.2h-2.5v2.3h-.9V105h.9v2.1h2.5V105h.9v5.2h-.9v-2.3Zm6.4 1.9c-.1.1-.2.1-.3.2-.1.1-.2.1-.4.2s-.3.1-.5.1-.4.1-.7.1c-.9 0-1.5-.2-2-.7-.5-.5-.7-1.1-.7-2 0-.4.1-.8.2-1.1.1-.3.3-.6.5-.8.2-.2.5-.4.8-.5.3-.1.6-.2 1-.2s.7.1 1 .2c.3.1.5.3.7.6.2.2.3.6.4.9.1.3.1.8 0 1.3h-3.7c0 .6.2 1 .5 1.3.3.3.7.4 1.3.4.4 0 .7-.1 1-.2.3-.1.5-.2.7-.4v.6h.2Zm-2-4.1c-.4 0-.7.1-1 .3-.3.2-.4.6-.5 1.1h2.8c0-.5-.1-.8-.3-1.1-.3-.2-.6-.3-1-.3Zm6.7 2.2h-2.5v2.3h-.9V105h.9v2.1h2.5V105h.9v5.2h-.9v-2.3Zm3.2 1.1 2.8-4h.9v5.2h-.9v-4l-2.8 4h-.9V105h.9v4Zm5.9 0 2.8-4h.9v5.2h-.9v-4l-2.8 4h-.9V105h.9v4Zm1.5-4.7c-.3 0-.5 0-.7-.1-.2-.1-.4-.2-.5-.3-.1-.1-.2-.3-.3-.4-.1-.1-.1-.3-.1-.5h.9c0 .3.1.4.2.5.1.1.3.2.5.2s.4-.1.5-.2c.1-.1.2-.3.2-.5h.9c0 .4-.1.7-.4 1-.3.2-.7.3-1.2.3Z"/>
</svg>
