<svg width="1100" height="250" viewBox="0 0 1100 250" fill="none" xmlns="http://www.w3.org/2000/svg">
<rect width="1100" height="250" fill="white"/>
<path d="M472 121L467 118.113V123.887L472 121ZM380 121.5H467.5V120.5H380V121.5Z" fill="#262626"/>
<path d="M668 121L663 118.113L663 123.887L668 121ZM612 121.5L663.5 121.5L663.5 120.5L612 120.5L612 121.5Z" fill="#262626"/>
<path d="M242 121L237 118.113L237 123.887L242 121ZM186 121.5L237.5 121.5L237.5 120.5L186 120.5L186 121.5Z" fill="#262626"/>
<rect x="50" y="94" width="130" height="60" rx="8" fill="#EEF3FE"/>
<path d="M80 120H86.5V128.6H85.4V121H81.2V128.6H80.1V120H80Z" fill="black"/>
<path d="M91.5 128.8C91 128.8 90.6 128.7 90.3 128.5C90 128.3 89.7 128 89.5 127.6V130.9H88.4V122.5H89.3L89.4 123.7C89.6 123.3 89.9 123 90.2 122.7C90.6 122.5 91 122.3 91.5 122.3C91.9 122.3 92.2 122.4 92.5 122.5C92.8 122.6 93.1 122.8 93.4 123.1C93.7 123.4 93.9 123.7 94 124.1C94.1 124.5 94.2 125 94.2 125.5C94.2 126.1 94.1 126.5 94 126.9C93.8 127.3 93.6 127.6 93.4 127.9C93.1 128.2 92.8 128.4 92.5 128.5C92.2 128.7 91.9 128.8 91.5 128.8ZM91.3 127.8C91.9 127.8 92.3 127.6 92.6 127.2C92.9 126.8 93.1 126.2 93.1 125.5C93.1 124.7 92.9 124.2 92.6 123.8C92.3 123.4 91.8 123.2 91.3 123.2C91 123.2 90.8 123.2 90.5 123.3C90.3 123.4 90.1 123.5 89.9 123.7C89.7 123.9 89.6 124.1 89.5 124.4C89.4 124.7 89.4 125 89.4 125.4C89.4 125.8 89.4 126.1 89.5 126.4C89.6 126.7 89.7 126.9 89.9 127.1C90.1 127.3 90.3 127.4 90.5 127.5C90.8 127.8 91.1 127.8 91.3 127.8Z" fill="black"/>
<path d="M96.6 127.2L99.9 122.4H101V128.6H99.9V123.8L96.6 128.6H95.5V122.4H96.6V127.2Z" fill="black"/>
<path d="M103.2 126.7C103.3 126.3 103.4 125.7 103.4 125C103.4 124.3 103.4 123.4 103.4 122.4H107.6V128.6H106.5V123.3H104.4C104.4 124.2 104.4 124.9 104.3 125.6C104.2 126.3 104.2 126.8 104 127.3C103.9 127.8 103.7 128.1 103.4 128.3C103.1 128.5 102.8 128.7 102.3 128.7H102.2H102.1V127.7C102.1 127.7 102.2 127.7 102.3 127.7C102.8 127.6 103.1 127.3 103.2 126.7Z" fill="black"/>
<path d="M111.9 128.8C111.5 128.8 111.1 128.7 110.7 128.6C110.3 128.5 110 128.2 109.7 128C109.4 127.7 109.2 127.4 109.1 127C108.9 126.6 108.9 126.1 108.9 125.6C108.9 125.1 109 124.6 109.1 124.2C109.3 123.8 109.5 123.5 109.7 123.2C110 122.9 110.3 122.7 110.7 122.6C111.1 122.5 111.5 122.4 111.9 122.4C112.3 122.4 112.7 122.5 113.1 122.6C113.5 122.7 113.8 123 114.1 123.2C114.4 123.5 114.6 123.8 114.7 124.2C114.9 124.6 114.9 125.1 114.9 125.6C114.9 126.1 114.8 126.6 114.7 127C114.5 127.4 114.3 127.7 114.1 128C113.8 128.3 113.5 128.5 113.1 128.6C112.8 128.7 112.4 128.8 111.9 128.8ZM111.9 127.8C112.2 127.8 112.4 127.8 112.7 127.7C112.9 127.6 113.1 127.5 113.3 127.3C113.5 127.1 113.6 126.9 113.7 126.6C113.8 126.3 113.8 126 113.8 125.6C113.8 125.2 113.8 124.9 113.7 124.6C113.6 124.3 113.5 124.1 113.3 123.9C113.1 123.7 112.9 123.6 112.7 123.5C112.5 123.4 112.2 123.4 111.9 123.4C111.6 123.4 111.4 123.4 111.1 123.5C110.9 123.6 110.7 123.7 110.5 123.9C110.3 124.1 110.2 124.3 110.1 124.6C110 124.9 110 125.2 110 125.6C110 126 110 126.3 110.1 126.6C110.2 126.9 110.3 127.1 110.5 127.3C110.7 127.5 110.9 127.6 111.1 127.7C111.4 127.8 111.7 127.8 111.9 127.8Z" fill="black"/>
<path d="M120.2 122.4V125.1H120.8L122.8 122.4H124L121.7 125.4L124.1 128.6H122.8L120.8 125.9H120.3V128.6H119.2V125.9H118.7L116.7 128.6H115.5L117.9 125.5L115.6 122.4H116.8L118.7 125.1H119.3V122.4H120.2Z" fill="black"/>
<path d="M129.9 128.1C129.8 128.2 129.7 128.2 129.6 128.3C129.5 128.4 129.3 128.4 129.1 128.5C128.9 128.6 128.7 128.6 128.5 128.7C128.3 128.7 128 128.8 127.7 128.8C126.7 128.8 125.9 128.5 125.3 127.9C124.8 127.3 124.5 126.5 124.5 125.5C124.5 125 124.6 124.5 124.7 124.1C124.8 123.7 125.1 123.4 125.3 123.1C125.6 122.8 125.9 122.6 126.2 122.5C126.6 122.4 127 122.3 127.4 122.3C127.8 122.3 128.2 122.4 128.6 122.5C129 122.7 129.2 122.9 129.5 123.2C129.8 123.5 129.9 123.9 130 124.3C130.1 124.7 130.1 125.2 130 125.8H125.6C125.6 126.5 125.8 127 126.2 127.3C126.6 127.6 127.1 127.8 127.8 127.8C128.3 127.8 128.7 127.7 129 127.6C129.3 127.5 129.6 127.3 129.9 127.2V128.1ZM127.4 123.2C126.9 123.2 126.6 123.3 126.2 123.6C125.9 123.9 125.7 124.3 125.6 124.9H128.9C128.9 124.3 128.8 123.9 128.5 123.6C128.2 123.3 127.9 123.2 127.4 123.2Z" fill="black"/>
<path d="M135.4 125.9H132.4V128.7H131.3V122.5H132.4V125.1H135.4V122.5H136.5V128.7H135.4V125.9Z" fill="#262626"/>
<path d="M139.3 127.2L142.6 122.4H143.7V128.6H142.6V123.8L139.3 128.6H138.2V122.4H139.3V127.2Z" fill="black"/>
<path d="M150.4 128.1C150.3 128.2 150.2 128.2 150.1 128.3C150 128.4 149.8 128.4 149.6 128.5C149.4 128.6 149.2 128.6 149 128.7C148.8 128.7 148.5 128.8 148.2 128.8C147.2 128.8 146.4 128.5 145.8 127.9C145.3 127.3 145 126.5 145 125.5C145 125 145.1 124.5 145.2 124.1C145.3 123.7 145.6 123.4 145.8 123.1C146.1 122.8 146.4 122.6 146.7 122.5C147.1 122.4 147.5 122.3 147.9 122.3C148.3 122.3 148.7 122.4 149.1 122.5C149.5 122.7 149.7 122.9 150 123.2C150.3 123.5 150.4 123.9 150.5 124.3C150.6 124.7 150.6 125.2 150.5 125.8H146.1C146.1 126.5 146.3 127 146.7 127.3C147.1 127.6 147.6 127.8 148.3 127.8C148.8 127.8 149.2 127.7 149.5 127.6C149.8 127.5 150.1 127.3 150.4 127.2V128.1ZM147.9 123.2C147.4 123.2 147.1 123.3 146.7 123.6C146.4 123.9 146.2 124.3 146.1 124.9H149.4C149.4 124.3 149.3 123.9 149 123.6C148.7 123.3 148.4 123.2 147.9 123.2Z" fill="black"/>
<rect x="246" y="94" width="130" height="60" rx="8" fill="#EEF3FE"/>
<path d="M286.2 127.1L290.9 120H292.1V128.6H290.9V121.5L286.2 128.6H285V120H286.1V127.1H286.2Z" fill="#262626"/>
<path d="M296.7 128.7C296.2 128.7 295.8 128.6 295.4 128.5C295 128.4 294.7 128.1 294.4 127.9C294.1 127.6 293.9 127.3 293.8 126.9C293.7 126.5 293.6 126 293.6 125.5C293.6 125 293.7 124.5 293.8 124.1C293.9 123.7 294.2 123.4 294.4 123.1C294.7 122.8 295 122.6 295.4 122.5C295.8 122.4 296.2 122.3 296.7 122.3C297.1 122.3 297.4 122.3 297.8 122.4C298.1 122.5 298.4 122.6 298.6 122.8V123.7C298.3 123.5 298.1 123.4 297.7 123.3C297.3 123.2 297.1 123.2 296.7 123.2C296 123.2 295.4 123.4 295.1 123.8C294.8 124.2 294.6 124.8 294.6 125.5C294.6 126.3 294.8 126.9 295.1 127.2C295.4 127.6 295.9 127.8 296.7 127.8C297.1 127.8 297.4 127.8 297.7 127.7C298 127.6 298.3 127.5 298.6 127.3V128.2C298.4 128.3 298.1 128.5 297.8 128.5C297.5 128.6 297.1 128.7 296.7 128.7Z" fill="#262626"/>
<path d="M302.5 123.2V128.5H301.4V123.2H299.4V122.3H304.4V123.2H302.5Z" fill="#262626"/>
<path d="M308.1 128.7C307.7 128.7 307.3 128.6 306.9 128.5C306.5 128.4 306.2 128.1 305.9 127.9C305.6 127.6 305.4 127.3 305.3 126.9C305.1 126.5 305.1 126 305.1 125.5C305.1 125 305.2 124.5 305.3 124.1C305.5 123.7 305.7 123.4 305.9 123.1C306.2 122.8 306.5 122.6 306.9 122.5C307.3 122.4 307.7 122.3 308.1 122.3C308.5 122.3 308.9 122.4 309.3 122.5C309.7 122.6 310 122.9 310.3 123.1C310.6 123.4 310.8 123.7 310.9 124.1C311.1 124.5 311.1 125 311.1 125.5C311.1 126 311 126.5 310.9 126.9C310.7 127.3 310.5 127.6 310.3 127.9C310 128.2 309.7 128.4 309.3 128.5C308.9 128.6 308.5 128.7 308.1 128.7ZM308.1 127.7C308.4 127.7 308.6 127.7 308.9 127.6C309.1 127.5 309.3 127.4 309.5 127.2C309.7 127 309.8 126.8 309.9 126.5C310 126.2 310 125.9 310 125.5C310 125.1 310 124.8 309.9 124.5C309.8 124.2 309.7 124 309.5 123.8C309.3 123.6 309.1 123.5 308.9 123.4C308.7 123.3 308.4 123.3 308.1 123.3C307.8 123.3 307.6 123.3 307.3 123.4C307.1 123.5 306.9 123.6 306.7 123.8C306.5 124 306.4 124.2 306.3 124.5C306.2 124.8 306.2 125.1 306.2 125.5C306.2 125.9 306.2 126.2 306.3 126.5C306.4 126.8 306.5 127 306.7 127.2C306.9 127.4 307.1 127.5 307.3 127.6C307.6 127.7 307.8 127.7 308.1 127.7Z" fill="#262626"/>
<path d="M317.1 128.6H316V125.9C315.8 126.1 315.5 126.2 315.2 126.3C314.9 126.4 314.6 126.4 314.2 126.4C313.5 126.4 313 126.2 312.6 125.9C312.2 125.6 312 125 312 124.2V122.4H313.1V124.2C313.1 124.7 313.2 125 313.4 125.2C313.6 125.4 313.9 125.5 314.3 125.5C314.6 125.5 314.9 125.5 315.1 125.4C315.4 125.3 315.6 125.2 315.8 125V122.3H316.9V128.6H317.1Z" fill="#262626"/>
<path d="M322.9 125.8H319.9V128.6H318.8V122.4H319.9V125H322.9V122.4H324V128.6H322.9V125.8Z" fill="#262626"/>
<path d="M326.7 127.1L330 122.3H331.1V128.5H330V123.7L326.7 128.5H325.6V122.3H326.7V127.1Z" fill="#262626"/>
<path d="M334.4 125.9H333.8V128.6H332.7V122.4H333.8V125.1H334.4L336.6 122.4H337.8L335.2 125.5L337.8 128.7H336.5L334.4 125.9Z" fill="#262626"/>
<path d="M798.5 165.4H799.9L802.5 172.6H801.5L800.8 170.6H797.6L796.9 172.6H796L798.5 165.4ZM800.4 169.7L799.1 166.1L797.8 169.7H800.4Z" fill="#262626"/>
<path d="M806 172.7C805.6 172.7 805.3 172.6 805 172.4C804.7 172.2 804.5 172 804.3 171.6V174.3H803.4V167.3H804.2L804.3 168.3C804.5 168 804.7 167.7 805 167.5C805.3 167.3 805.7 167.2 806.1 167.2C806.4 167.2 806.7 167.3 807 167.4C807.3 167.5 807.5 167.7 807.7 167.9C807.9 168.1 808.1 168.4 808.2 168.7C808.3 169 808.4 169.4 808.4 169.9C808.4 170.4 808.3 170.8 808.2 171.1C808.1 171.4 807.9 171.7 807.7 171.9C807.5 172.1 807.2 172.3 807 172.4C806.6 172.7 806.3 172.7 806 172.7ZM805.9 171.9C806.4 171.9 806.7 171.7 807 171.4C807.3 171.1 807.4 170.6 807.4 170C807.4 169.4 807.3 168.9 807 168.6C806.7 168.3 806.3 168.1 805.9 168.1C805.7 168.1 805.5 168.1 805.3 168.2C805.1 168.3 804.9 168.4 804.8 168.6C804.7 168.8 804.5 169 804.5 169.2C804.4 169.4 804.4 169.7 804.4 170C804.4 170.3 804.4 170.6 804.5 170.8C804.6 171 804.7 171.2 804.8 171.4C804.9 171.6 805.1 171.7 805.3 171.8C805.4 171.9 805.6 171.9 805.9 171.9Z" fill="#262626"/>
<path d="M812.4 171.6C812.3 171.7 812.3 171.8 812.2 172C812.1 172.2 812 172.2 811.9 172.4C811.8 172.5 811.6 172.6 811.4 172.7C811.2 172.8 811 172.8 810.7 172.8C810.2 172.8 809.9 172.7 809.6 172.4C809.3 172.1 809.2 171.8 809.2 171.3C809.2 170.7 809.4 170.3 809.8 170C810.2 169.7 810.8 169.6 811.5 169.6H812.5V169.2C812.5 168.8 812.4 168.6 812.2 168.4C812 168.2 811.7 168.2 811.2 168.2C810.9 168.2 810.6 168.3 810.3 168.4C810 168.5 809.8 168.6 809.5 168.8V167.8C809.7 167.7 809.9 167.6 810.3 167.5C810.6 167.4 811 167.3 811.3 167.3C812 167.3 812.4 167.4 812.8 167.7C813.1 168 813.3 168.4 813.3 169V171.8C813.3 171.9 813.3 171.9 813.3 172C813.3 172.1 813.3 172.2 813.3 172.2C813.3 172.3 813.3 172.4 813.3 172.4C813.3 172.5 813.3 172.5 813.3 172.6H812.5C812.5 172.5 812.5 172.4 812.4 172.2C812.4 172 812.4 171.9 812.4 171.8V171.6ZM810.8 171.9C811.1 171.9 811.3 171.8 811.5 171.7C811.7 171.6 811.8 171.5 812 171.3C812.1 171.1 812.2 171 812.3 170.9C812.4 170.8 812.4 170.7 812.4 170.6V170.2H811.5C811 170.2 810.6 170.3 810.4 170.4C810.2 170.6 810 170.8 810 171.1C810 171.3 810.1 171.5 810.2 171.7C810.3 171.9 810.5 171.9 810.8 171.9Z" fill="#262626"/>
<path d="M816.8 172.7C816.4 172.7 816 172.6 815.7 172.5C815.4 172.4 815.1 172.2 814.9 172C814.7 171.8 814.5 171.5 814.4 171.2C814.3 170.9 814.2 170.5 814.2 170.1C814.2 169.7 814.3 169.3 814.4 169C814.5 168.7 814.7 168.4 814.9 168.2C815.1 168 815.4 167.8 815.7 167.7C816 167.6 816.4 167.5 816.8 167.5C817.1 167.5 817.4 167.5 817.7 167.6C818 167.7 818.2 167.8 818.4 167.9V168.7C818.2 168.6 817.9 168.5 817.7 168.4C817.4 168.3 817.2 168.3 816.9 168.3C816.3 168.3 815.8 168.5 815.6 168.8C815.3 169.1 815.2 169.6 815.2 170.2C815.2 170.8 815.3 171.3 815.6 171.6C815.9 171.9 816.3 172.1 816.9 172.1C817.2 172.1 817.5 172.1 817.8 172C818.1 171.9 818.3 171.8 818.5 171.7V172.5C818.3 172.6 818.1 172.7 817.8 172.8C817.5 172.7 817.2 172.7 816.8 172.7Z" fill="#262626"/>
<path d="M822 168.1C821.6 168.1 821.3 168.2 821 168.4C820.7 168.6 820.5 168.8 820.4 169.1V172.6H819.5V165.4H820.4V167.4V168.3C820.5 168 820.8 167.8 821.1 167.6C821.4 167.4 821.8 167.3 822.2 167.3C822.7 167.3 823.1 167.4 823.4 167.7C823.7 168 823.9 168.4 823.9 168.9V172.5H823V169C823 168.6 822.9 168.4 822.7 168.2C822.5 168.2 822.3 168.1 822 168.1Z" fill="#262626"/>
<path d="M829.4 172.2C829.3 172.3 829.2 172.3 829.1 172.4C829 172.5 828.9 172.5 828.7 172.6C828.5 172.7 828.4 172.7 828.2 172.7C828 172.7 827.8 172.8 827.6 172.8C826.7 172.8 826.1 172.6 825.6 172.1C825.1 171.6 824.9 171 824.9 170.1C824.9 169.7 825 169.3 825.1 169C825.2 168.7 825.4 168.4 825.6 168.2C825.8 168 826.1 167.8 826.4 167.7C826.7 167.6 827 167.5 827.4 167.5C827.8 167.5 828.1 167.6 828.4 167.7C828.7 167.8 828.9 168 829.1 168.3C829.3 168.5 829.4 168.9 829.5 169.2C829.6 169.6 829.6 170 829.5 170.5H825.8C825.8 171.1 826 171.5 826.3 171.8C826.6 172.1 827 172.2 827.6 172.2C828 172.2 828.3 172.1 828.6 172C828.9 171.9 829.1 171.8 829.3 171.6V172.2H829.4ZM827.3 168.1C826.9 168.1 826.6 168.2 826.3 168.4C826 168.6 825.9 169 825.8 169.5H828.6C828.6 169 828.5 168.7 828.3 168.4C828 168.2 827.7 168.1 827.3 168.1Z" fill="#262626"/>
<path d="M834.6 169.5H833.8V172.6H832.9V165.4H833.8V168.7H834.5L837.1 165.4H838.2L835.4 169L838.3 172.6H837.1L834.6 169.5Z" fill="#262626"/>
<path d="M842 171.6C841.9 171.7 841.9 171.8 841.8 172C841.7 172.2 841.6 172.2 841.5 172.4C841.4 172.5 841.2 172.6 841 172.7C840.8 172.8 840.6 172.8 840.3 172.8C839.8 172.8 839.5 172.7 839.2 172.4C838.9 172.1 838.8 171.8 838.8 171.3C838.8 170.7 839 170.3 839.4 170C839.8 169.7 840.4 169.6 841.1 169.6H842.1V169.2C842.1 168.8 842 168.6 841.8 168.4C841.6 168.2 841.3 168.2 840.8 168.2C840.5 168.2 840.2 168.3 839.9 168.4C839.6 168.5 839.4 168.6 839.1 168.8V167.8C839.3 167.7 839.5 167.6 839.9 167.5C840.2 167.4 840.6 167.3 840.9 167.3C841.6 167.3 842 167.4 842.4 167.7C842.7 168 842.9 168.4 842.9 169V171.8C842.9 171.9 842.9 171.9 842.9 172C842.9 172.1 842.9 172.2 842.9 172.2C842.9 172.3 842.9 172.4 842.9 172.4C842.9 172.5 842.9 172.5 842.9 172.6H842.1C842.1 172.5 842.1 172.4 842 172.2C842 172 842 171.9 842 171.8V171.6ZM840.5 171.9C840.8 171.9 841 171.8 841.2 171.7C841.4 171.6 841.5 171.5 841.7 171.3C841.8 171.1 841.9 171 842 170.9C842.1 170.8 842.1 170.7 842.1 170.6V170.2H841.2C840.7 170.2 840.3 170.3 840.1 170.4C839.9 170.6 839.7 170.8 839.7 171.1C839.7 171.3 839.8 171.5 839.9 171.7C840 171.9 840.2 171.9 840.5 171.9Z" fill="#262626"/>
<path d="M845.5 168.2V172.6H844.6V168.2H844V167.4H844.6V167.3C844.6 166.7 844.8 166.2 845.1 165.9C845.4 165.6 845.9 165.4 846.4 165.4C846.6 165.4 846.9 165.4 847.1 165.5V166.3C847 166.3 847 166.3 846.8 166.2C846.7 166.2 846.6 166.2 846.4 166.2C846.1 166.2 845.9 166.3 845.7 166.5C845.5 166.7 845.4 167 845.4 167.4V167.5H846.9V168.3H845.5V168.2Z" fill="#262626"/>
<path d="M849.3 170.4H848.8V172.6H847.9V165.4H848.8V169.6H849.3L851.1 167.4H852.1L850 170L852.2 172.6H851.1L849.3 170.4Z" fill="#262626"/>
<path d="M855.9 171.6C855.8 171.7 855.8 171.8 855.7 172C855.6 172.2 855.5 172.2 855.4 172.4C855.3 172.5 855.1 172.6 854.9 172.7C854.7 172.8 854.5 172.8 854.2 172.8C853.7 172.8 853.4 172.7 853.1 172.4C852.8 172.1 852.7 171.8 852.7 171.3C852.7 170.7 852.9 170.3 853.3 170C853.7 169.7 854.3 169.6 855 169.6H856V169.2C856 168.8 855.9 168.6 855.7 168.4C855.5 168.2 855.2 168.2 854.7 168.2C854.4 168.2 854.1 168.3 853.8 168.4C853.5 168.5 853.3 168.6 853 168.8V167.8C853.2 167.7 853.4 167.6 853.8 167.5C854.1 167.4 854.5 167.3 854.8 167.3C855.5 167.3 855.9 167.4 856.3 167.7C856.6 168 856.8 168.4 856.8 169V171.8C856.8 171.9 856.8 171.9 856.8 172C856.8 172.1 856.8 172.2 856.8 172.2C856.8 172.3 856.8 172.4 856.8 172.4C856.8 172.5 856.8 172.5 856.8 172.6H856C856 172.5 856 172.4 855.9 172.2C855.9 172 855.9 171.9 855.9 171.8V171.6ZM854.3 171.9C854.6 171.9 854.8 171.8 855 171.7C855.2 171.6 855.3 171.5 855.5 171.3C855.6 171.1 855.7 171 855.8 170.9C855.9 170.8 855.9 170.7 855.9 170.6V170.2H855C854.5 170.2 854.1 170.3 853.9 170.4C853.7 170.6 853.5 170.8 853.5 171.1C853.5 171.3 853.6 171.5 853.7 171.7C853.8 171.9 854 171.9 854.3 171.9Z" fill="#262626"/>
<path d="M864.1 173.6C863.5 173.6 863 173.5 862.5 173.3C862 173.1 861.6 172.8 861.2 172.4C860.8 172 860.5 171.6 860.3 171.1C860.1 170.6 860 170 860 169.4C860 168.8 860.1 168.3 860.3 167.8C860.5 167.3 860.8 166.9 861.2 166.5C861.6 166.1 862 165.9 862.5 165.7C863 165.5 863.5 165.4 864.1 165.4C864.7 165.4 865.2 165.5 865.7 165.7C866.2 165.9 866.6 166.2 867 166.5C867.4 166.9 867.7 167.3 867.9 167.8C868.1 168.3 868.2 168.8 868.2 169.4C868.2 170 868.1 170.6 867.9 171.1C867.7 171.6 867.4 172 867 172.4C866.6 172.8 866.2 173.1 865.7 173.3C865.2 173.5 864.7 173.6 864.1 173.6ZM864.1 173C864.6 173 865.1 172.9 865.5 172.7C865.9 172.5 866.3 172.3 866.6 172C866.9 171.7 867.1 171.3 867.3 170.9C867.5 170.5 867.6 170 867.6 169.5C867.6 169 867.5 168.5 867.3 168.1C867.1 167.7 866.9 167.3 866.6 167C866.3 166.7 865.9 166.4 865.5 166.3C865.1 166.1 864.6 166 864.1 166C863.6 166 863.1 166.1 862.7 166.3C862.3 166.5 861.9 166.7 861.6 167C861.3 167.3 861.1 167.7 860.9 168.1C860.7 168.5 860.6 169 860.6 169.5C860.6 170 860.7 170.5 860.9 170.9C861.1 171.3 861.3 171.7 861.6 172C861.9 172.3 862.3 172.6 862.7 172.7C863.1 172.9 863.6 173 864.1 173ZM864.3 171.6C863.6 171.6 863.1 171.4 862.7 171C862.3 170.6 862.1 170.1 862.1 169.4C862.1 168.7 862.3 168.2 862.7 167.8C863.1 167.4 863.6 167.2 864.3 167.2C864.6 167.2 864.8 167.2 865 167.3C865.2 167.4 865.4 167.4 865.5 167.5V168.2C865.3 168.1 865.2 168 865 168C864.8 168 864.6 167.9 864.4 167.9C863.5 167.9 863.1 168.4 863.1 169.3C863.1 169.8 863.2 170.2 863.5 170.4C863.7 170.6 864.1 170.8 864.5 170.8C864.7 170.8 864.9 170.8 865.1 170.7C865.3 170.6 865.5 170.6 865.6 170.4V171.1C865.5 171.2 865.4 171.3 865.2 171.3C864.8 171.6 864.6 171.6 864.3 171.6Z" fill="#262626"/>
<path d="M868.6 173.8L871.8 165H872.6L869.4 173.8H868.6Z" fill="#262626"/>
<path d="M873.4 165.4H875.8C876.3 165.4 876.7 165.5 877.1 165.6C877.5 165.7 877.9 165.9 878.2 166.2C878.5 166.5 878.7 166.8 878.9 167.2C879.1 167.6 879.2 168.2 879.2 168.8C879.2 169.4 879.1 170 878.9 170.5C878.7 171 878.5 171.4 878.2 171.7C877.9 172 877.5 172.3 877.1 172.4C876.7 172.6 876.2 172.6 875.7 172.6H873.4V165.4ZM874.4 166.3V171.8H875.8C876.2 171.8 876.5 171.7 876.8 171.6C877.1 171.5 877.4 171.3 877.6 171.1C877.8 170.9 878 170.6 878.1 170.2C878.2 169.8 878.3 169.4 878.3 168.9C878.3 168.4 878.2 168 878.1 167.7C878 167.4 877.8 167.1 877.6 166.9C877.4 166.7 877.1 166.6 876.8 166.5C876.5 166.4 876.2 166.4 875.8 166.4H874.4V166.3Z" fill="#262626"/>
<path d="M883.4 171.6C883.3 171.7 883.3 171.8 883.2 172C883.1 172.2 883 172.2 882.9 172.4C882.8 172.5 882.6 172.6 882.4 172.7C882.2 172.8 882 172.8 881.7 172.8C881.2 172.8 880.9 172.7 880.6 172.4C880.3 172.1 880.2 171.8 880.2 171.3C880.2 170.7 880.4 170.3 880.8 170C881.2 169.7 881.8 169.6 882.5 169.6H883.5V169.2C883.5 168.8 883.4 168.6 883.2 168.4C883 168.2 882.7 168.2 882.2 168.2C881.9 168.2 881.6 168.3 881.3 168.4C881 168.5 880.8 168.6 880.5 168.8V167.8C880.7 167.7 880.9 167.6 881.3 167.5C881.6 167.4 882 167.3 882.3 167.3C883 167.3 883.4 167.4 883.8 167.7C884.1 168 884.3 168.4 884.3 169V171.8C884.3 171.9 884.3 171.9 884.3 172C884.3 172.1 884.3 172.2 884.3 172.2C884.3 172.3 884.3 172.4 884.3 172.4C884.3 172.5 884.3 172.5 884.3 172.6H883.5C883.5 172.5 883.5 172.4 883.4 172.2C883.4 172 883.4 171.9 883.4 171.8V171.6ZM881.8 171.9C882.1 171.9 882.3 171.8 882.5 171.7C882.7 171.6 882.8 171.5 883 171.3C883.1 171.1 883.2 171 883.3 170.9C883.4 170.8 883.4 170.7 883.4 170.6V170.2H882.5C882 170.2 881.6 170.3 881.4 170.4C881.2 170.6 881 170.8 881 171.1C881 171.3 881.1 171.5 881.2 171.7C881.3 171.9 881.5 171.9 881.8 171.9Z" fill="#262626"/>
<path d="M887.7 172.7C887.5 172.7 887.4 172.8 887.2 172.8C886.9 172.8 886.7 172.8 886.6 172.7C886.5 172.6 886.3 172.5 886.2 172.4C886.1 172.3 886 172.1 886 172C885.9 171.8 885.9 171.7 885.9 171.5V168.3H885.3V167.5H885.9V166.4H886.8V167.5H888.3V168.3H886.8V171.4C886.8 171.6 886.9 171.8 887 171.9C887.1 172 887.3 172.1 887.6 172.1C887.9 172.1 888.1 172 888.3 171.9V172.7C888 172.6 887.9 172.6 887.7 172.7Z" fill="#262626"/>
<path d="M892.4 171.6C892.3 171.7 892.3 171.8 892.2 172C892.1 172.2 892 172.2 891.9 172.4C891.8 172.5 891.6 172.6 891.4 172.7C891.2 172.8 891 172.8 890.7 172.8C890.2 172.8 889.9 172.7 889.6 172.4C889.3 172.1 889.2 171.8 889.2 171.3C889.2 170.7 889.4 170.3 889.8 170C890.2 169.7 890.8 169.6 891.5 169.6H892.5V169.2C892.5 168.8 892.4 168.6 892.2 168.4C892 168.2 891.7 168.2 891.2 168.2C890.9 168.2 890.6 168.3 890.3 168.4C890 168.5 889.8 168.6 889.5 168.8V167.8C889.7 167.7 889.9 167.6 890.3 167.5C890.6 167.4 891 167.3 891.3 167.3C892 167.3 892.4 167.4 892.8 167.7C893.1 168 893.3 168.4 893.3 169V171.8C893.3 171.9 893.3 171.9 893.3 172C893.3 172.1 893.3 172.2 893.3 172.2C893.3 172.3 893.3 172.4 893.3 172.4C893.3 172.5 893.3 172.5 893.3 172.6H892.5C892.5 172.5 892.5 172.4 892.4 172.2C892.4 172 892.4 171.9 892.4 171.8V171.6ZM890.8 171.9C891.1 171.9 891.3 171.8 891.5 171.7C891.7 171.6 891.8 171.5 892 171.3C892.1 171.1 892.2 171 892.3 170.9C892.4 170.8 892.4 170.7 892.4 170.6V170.2H891.5C891 170.2 890.6 170.3 890.4 170.4C890.2 170.6 890 170.8 890 171.1C890 171.3 890.1 171.5 890.2 171.7C890.3 171.9 890.5 171.9 890.8 171.9Z" fill="#262626"/>
<path d="M898.9 172.7C898.6 172.7 898.3 172.7 898 172.6C897.7 172.6 897.5 172.5 897.3 172.4C897.1 172.3 896.9 172.3 896.8 172.2C896.7 172.1 896.6 172 896.5 172V171.1C896.6 171.2 896.7 171.3 896.9 171.4C897.1 171.5 897.2 171.6 897.5 171.6C897.8 171.6 897.9 171.7 898.2 171.8C898.4 171.8 898.7 171.9 899 171.9C899.5 171.9 899.9 171.8 900.2 171.6C900.5 171.4 900.7 171.1 900.7 170.7C900.7 170.5 900.7 170.3 900.6 170.2C900.5 170.1 900.4 170 900.3 169.9C900.2 169.8 900 169.7 899.8 169.7C899.6 169.7 899.3 169.6 899.1 169.5C898.8 169.4 898.5 169.3 898.3 169.2C898 169.1 897.8 169 897.5 168.8C897.3 168.6 897.1 168.5 897 168.2C896.9 168 896.8 167.7 896.8 167.3C896.8 166.7 897 166.2 897.5 165.8C897.9 165.5 898.6 165.3 899.5 165.3C899.8 165.3 900 165.3 900.2 165.3C900.4 165.3 900.6 165.4 900.7 165.4C900.9 165.4 901 165.5 901.1 165.5C901.2 165.5 901.3 165.6 901.4 165.7V166.6C901.1 166.4 900.8 166.3 900.5 166.2C900.2 166.1 899.8 166.1 899.4 166.1C899.1 166.1 898.8 166.1 898.6 166.2C898.4 166.2 898.2 166.3 898.1 166.4C898 166.5 897.9 166.6 897.8 166.7C897.7 166.8 897.7 167 897.7 167.2C897.7 167.4 897.7 167.6 897.8 167.7C897.9 167.8 898 167.9 898.2 168C898.4 168.1 898.5 168.2 898.7 168.2C898.9 168.3 899.1 168.3 899.3 168.4C899.6 168.5 899.9 168.5 900.2 168.6C900.5 168.7 900.8 168.8 901 169C901.2 169.2 901.4 169.4 901.6 169.6C901.7 169.8 901.8 170.2 901.8 170.5C901.8 170.9 901.7 171.2 901.6 171.5C901.4 171.8 901.3 172 901 172.1C900.8 172.3 900.5 172.4 900.1 172.5C899.6 172.7 899.2 172.7 898.9 172.7Z" fill="#262626"/>
<path d="M904.8 172.7C904.6 172.7 904.5 172.8 904.3 172.8C904 172.8 903.8 172.8 903.7 172.7C903.6 172.6 903.4 172.5 903.3 172.4C903.2 172.3 903.1 172.1 903.1 172C903 171.8 903 171.7 903 171.5V168.3H902.4V167.5H903V166.4H903.9V167.5H905.4V168.3H903.9V171.4C903.9 171.6 904 171.8 904.1 171.9C904.2 172 904.4 172.1 904.7 172.1C905 172.1 905.2 172 905.4 171.9V172.7C905.1 172.6 904.9 172.6 904.8 172.7Z" fill="#262626"/>
<path d="M907.9 168.6C907.6 168.8 907.4 169 907.2 169.3V172.6H906.3V167.4H907.1L907.2 168.5C907.3 168.2 907.6 167.9 907.8 167.7C908.1 167.5 908.4 167.3 908.9 167.3V168.3C908.5 168.3 908.2 168.4 907.9 168.6Z" fill="#262626"/>
<path d="M914 172.2C913.9 172.3 913.8 172.3 913.7 172.4C913.6 172.5 913.5 172.5 913.3 172.6C913.1 172.7 913 172.7 912.8 172.7C912.6 172.7 912.4 172.8 912.2 172.8C911.3 172.8 910.7 172.6 910.2 172.1C909.7 171.6 909.5 171 909.5 170.1C909.5 169.7 909.6 169.3 909.7 169C909.8 168.7 910 168.4 910.2 168.2C910.4 168 910.7 167.8 911 167.7C911.3 167.6 911.6 167.5 912 167.5C912.4 167.5 912.7 167.6 913 167.7C913.3 167.8 913.5 168 913.7 168.3C913.9 168.5 914 168.9 914.1 169.2C914.2 169.6 914.2 170 914.1 170.5H910.4C910.4 171.1 910.6 171.5 910.9 171.8C911.2 172.1 911.6 172.2 912.2 172.2C912.6 172.2 912.9 172.1 913.2 172C913.5 171.9 913.7 171.8 913.9 171.6V172.2H914ZM911.9 168.1C911.5 168.1 911.2 168.2 910.9 168.4C910.6 168.6 910.5 169 910.4 169.5H913.2C913.2 169 913.1 168.7 912.9 168.4C912.6 168.2 912.3 168.1 911.9 168.1Z" fill="#262626"/>
<path d="M918.2 171.6C918.1 171.7 918.1 171.8 918 172C917.9 172.2 917.8 172.2 917.7 172.4C917.6 172.5 917.4 172.6 917.2 172.7C917 172.8 916.8 172.8 916.5 172.8C916 172.8 915.7 172.7 915.4 172.4C915.1 172.1 915 171.8 915 171.3C915 170.7 915.2 170.3 915.6 170C916 169.7 916.6 169.6 917.3 169.6H918.3V169.2C918.3 168.8 918.2 168.6 918 168.4C917.8 168.2 917.5 168.2 917 168.2C916.7 168.2 916.4 168.3 916.1 168.4C915.8 168.5 915.6 168.6 915.3 168.8V167.8C915.5 167.7 915.7 167.6 916.1 167.5C916.4 167.4 916.8 167.3 917.1 167.3C917.8 167.3 918.2 167.4 918.6 167.7C918.9 168 919.1 168.4 919.1 169V171.8C919.1 171.9 919.1 171.9 919.1 172C919.1 172.1 919.1 172.2 919.1 172.2C919.1 172.3 919.1 172.4 919.1 172.4C919.1 172.5 919.1 172.5 919.1 172.6H918.3C918.3 172.5 918.3 172.4 918.2 172.2C918.2 172 918.2 171.9 918.2 171.8V171.6ZM916.6 171.9C916.9 171.9 917.1 171.8 917.3 171.7C917.5 171.6 917.6 171.5 917.8 171.3C917.9 171.1 918 171 918.1 170.9C918.2 170.8 918.2 170.7 918.2 170.6V170.2H917.3C916.8 170.2 916.4 170.3 916.2 170.4C916 170.6 915.8 170.8 915.8 171.1C915.8 171.3 915.9 171.5 916 171.7C916.1 171.9 916.3 171.9 916.6 171.9Z" fill="#262626"/>
<path d="M921.3 172.6H920.4V167.4H921.2L921.3 168.3C921.4 168 921.7 167.8 921.9 167.6C922.2 167.4 922.5 167.3 923 167.3C923.4 167.3 923.7 167.4 924 167.6C924.3 167.8 924.4 168.1 924.5 168.5C924.6 168.1 924.9 167.9 925.2 167.7C925.5 167.5 925.9 167.4 926.3 167.4C926.8 167.4 927.2 167.5 927.4 167.8C927.7 168.1 927.8 168.5 927.8 169V172.6H926.9V169.1C926.9 168.8 926.8 168.5 926.6 168.4C926.4 168.2 926.2 168.2 925.9 168.2C925.7 168.2 925.5 168.2 925.4 168.3C925.3 168.4 925.1 168.4 925 168.5C924.9 168.6 924.8 168.7 924.7 168.9C924.6 169 924.5 169.2 924.4 169.3V172.7H923.5V169.1C923.5 168.8 923.4 168.5 923.2 168.4C923 168.3 922.8 168.2 922.5 168.2C922.3 168.2 922.1 168.2 922 168.3C921.9 168.3 921.7 168.4 921.6 168.5C921.5 168.6 921.4 168.7 921.3 168.8C921.2 168.9 921.1 169.1 921 169.2V172.6H921.3Z" fill="#262626"/>
<path d="M930.9 172.7C930.6 172.7 930.4 172.7 930.2 172.6C930 172.6 929.8 172.5 929.7 172.4C929.6 172.3 929.4 172.3 929.3 172.2C929.2 172.1 929.1 172.1 929 172V171.2C929.1 171.3 929.2 171.3 929.3 171.4C929.4 171.5 929.6 171.5 929.7 171.6C929.9 171.7 930 171.7 930.2 171.8C930.4 171.8 930.6 171.9 930.9 171.9C931.3 171.9 931.6 171.8 931.8 171.7C932 171.6 932.1 171.4 932.1 171.1C932.1 170.9 932.1 170.8 932 170.7C931.9 170.6 931.8 170.5 931.7 170.5C931.6 170.4 931.4 170.4 931.3 170.4C931.1 170.4 931 170.3 930.8 170.3C930.6 170.3 930.4 170.2 930.2 170.1C930 170 929.8 170 929.6 169.8C929.4 169.6 929.3 169.5 929.2 169.4C929.1 169.2 929 169 929 168.7C929 168.2 929.2 167.9 929.5 167.6C929.8 167.3 930.4 167.2 931 167.2C931.4 167.2 931.7 167.2 932 167.3C932.3 167.4 932.5 167.5 932.7 167.5V168.3C932.5 168.2 932.3 168.1 932.1 168C931.8 167.9 931.5 167.9 931.1 167.9C930.7 167.9 930.4 168 930.2 168.1C930 168.2 929.9 168.4 929.9 168.7C929.9 168.8 929.9 169 930 169C930.1 169.1 930.1 169.1 930.2 169.2C930.3 169.3 930.4 169.3 930.6 169.3C930.7 169.3 930.9 169.4 931 169.4C931.2 169.4 931.5 169.5 931.7 169.6C931.9 169.7 932.2 169.7 932.3 169.9C932.4 170.1 932.6 170.2 932.8 170.4C932.9 170.6 933 170.8 933 171.2C933 171.5 932.9 171.7 932.8 172C932.7 172.3 932.5 172.4 932.3 172.5C932.1 172.6 931.9 172.7 931.6 172.8C931.4 172.7 931.2 172.7 930.9 172.7Z" fill="#262626"/>
<rect x="478" y="94" width="130" height="60" rx="8" fill="#FFF2BF"/>
<path d="M507 120H509.9C510.5 120 511 120.1 511.5 120.2C512 120.3 512.4 120.6 512.8 120.9C513.2 121.2 513.5 121.6 513.7 122.1C513.9 122.6 514 123.2 514 124C514 124.8 513.9 125.4 513.7 126C513.5 126.6 513.2 127 512.8 127.4C512.4 127.8 512 128.1 511.5 128.3C511 128.5 510.4 128.6 509.8 128.6H507V120ZM508.1 121.1V127.7H509.7C510.1 127.7 510.5 127.6 510.9 127.5C511.3 127.4 511.6 127.2 511.8 126.9C512.1 126.6 512.3 126.3 512.4 125.8C512.5 125.3 512.6 124.8 512.6 124.2C512.6 123.6 512.5 123.1 512.4 122.7C512.3 122.3 512.1 122 511.8 121.8C511.5 121.6 511.2 121.4 510.9 121.3C510.5 121.2 510.2 121.2 509.8 121.2H508.1V121.1Z" fill="#262626"/>
<path d="M518.9 127.5C518.8 127.6 518.7 127.8 518.6 128C518.5 128.2 518.3 128.3 518.2 128.4C518.1 128.5 517.8 128.6 517.6 128.7C517.4 128.8 517.1 128.8 516.8 128.8C516.2 128.8 515.8 128.6 515.4 128.3C515.1 128 514.9 127.5 514.9 126.9C514.9 126.2 515.1 125.7 515.6 125.4C516.1 125.1 516.8 124.9 517.6 124.9H518.8V124.4C518.8 124 518.7 123.7 518.5 123.5C518.3 123.3 517.9 123.2 517.3 123.2C516.9 123.2 516.6 123.3 516.2 123.4C515.9 123.5 515.5 123.7 515.3 123.8V122.9C515.5 122.8 515.8 122.6 516.2 122.5C516.6 122.4 517 122.3 517.5 122.3C518.3 122.3 518.9 122.5 519.3 122.8C519.7 123.1 519.9 123.6 519.9 124.3V127.6C519.9 127.7 519.9 127.8 519.9 127.8C519.9 127.8 519.9 128 519.9 128.1C519.9 128.2 519.9 128.3 519.9 128.4C519.9 128.5 519.9 128.6 519.9 128.6H518.9C518.9 128.5 518.9 128.3 518.8 128.1C518.8 127.9 518.8 127.7 518.8 127.6L518.9 127.5ZM517.1 127.8C517.4 127.8 517.7 127.7 517.9 127.6C518.1 127.5 518.3 127.3 518.5 127.1C518.6 126.9 518.7 126.7 518.8 126.6C518.9 126.4 518.9 126.3 518.9 126.2V125.7H517.8C517.2 125.7 516.7 125.8 516.4 126C516.1 126.2 516 126.5 516 126.8C516 127.1 516.1 127.3 516.3 127.5C516.4 127.7 516.7 127.8 517.1 127.8Z" fill="#262626"/>
<path d="M524.2 128.7C524 128.7 523.8 128.8 523.6 128.8C523.3 128.8 523 128.8 522.8 128.7C522.6 128.6 522.4 128.5 522.3 128.3C522.2 128.2 522.1 128 522 127.8C521.9 127.6 521.9 127.4 521.9 127.2V123.3H521.2V122.4H521.9V121.1H523V122.4H524.8V123.3H523V127.1C523 127.4 523.1 127.6 523.2 127.7C523.3 127.8 523.6 127.9 523.9 127.9C524.2 127.9 524.5 127.8 524.8 127.6V128.6C524.5 128.6 524.4 128.7 524.2 128.7Z" fill="#262626"/>
<path d="M529.7 127.5C529.6 127.6 529.5 127.8 529.4 128C529.3 128.2 529.1 128.3 529 128.4C528.9 128.5 528.6 128.6 528.4 128.7C528.2 128.8 527.9 128.8 527.6 128.8C527 128.8 526.6 128.6 526.2 128.3C525.9 128 525.7 127.5 525.7 126.9C525.7 126.2 525.9 125.7 526.4 125.4C526.9 125.1 527.6 124.9 528.4 124.9H529.6V124.4C529.6 124 529.5 123.7 529.3 123.5C529.1 123.3 528.7 123.2 528.1 123.2C527.7 123.2 527.4 123.3 527 123.4C526.7 123.5 526.3 123.7 526.1 123.8V122.9C526.3 122.8 526.6 122.6 527 122.5C527.4 122.4 527.8 122.3 528.3 122.3C529.1 122.3 529.7 122.5 530.1 122.8C530.5 123.1 530.7 123.6 530.7 124.3V127.6C530.7 127.7 530.7 127.8 530.7 127.8C530.7 127.8 530.7 128 530.7 128.1C530.7 128.2 530.7 128.3 530.7 128.4C530.7 128.5 530.7 128.6 530.7 128.6H529.7C529.7 128.5 529.7 128.3 529.6 128.1C529.6 127.9 529.6 127.7 529.6 127.6L529.7 127.5ZM527.8 127.8C528.1 127.8 528.4 127.7 528.6 127.6C528.8 127.5 529 127.3 529.2 127.1C529.3 126.9 529.4 126.7 529.5 126.6C529.6 126.4 529.6 126.3 529.6 126.2V125.7H528.5C527.9 125.7 527.4 125.8 527.1 126C526.8 126.2 526.7 126.5 526.7 126.8C526.7 127.1 526.8 127.3 527 127.5C527.2 127.7 527.5 127.8 527.8 127.8Z" fill="#262626"/>
<path d="M538.3 121.1V128.7H537.2V121.1H534.5V120.1H540.9V121.1H538.3Z" fill="#262626"/>
<path d="M543.3 123.8C542.9 124 542.7 124.3 542.5 124.7V128.7H541.4V122.5H542.3L542.4 123.9C542.6 123.5 542.8 123.2 543.2 122.9C543.5 122.6 544 122.5 544.5 122.4V123.6C544.1 123.5 543.7 123.6 543.3 123.8Z" fill="#262626"/>
<path d="M549.4 127.5C549.3 127.6 549.2 127.8 549.1 128C549 128.2 548.8 128.3 548.7 128.4C548.6 128.5 548.3 128.6 548.1 128.7C547.9 128.8 547.6 128.8 547.3 128.8C546.7 128.8 546.3 128.6 545.9 128.3C545.6 128 545.4 127.5 545.4 126.9C545.4 126.2 545.6 125.7 546.1 125.4C546.6 125.1 547.3 124.9 548.1 124.9H549.3V124.4C549.3 124 549.2 123.7 549 123.5C548.8 123.3 548.4 123.2 547.8 123.2C547.4 123.2 547.1 123.3 546.7 123.4C546.4 123.5 546 123.7 545.8 123.8V122.9C546 122.8 546.3 122.6 546.7 122.5C547.1 122.4 547.5 122.3 548 122.3C548.8 122.3 549.4 122.5 549.8 122.8C550.2 123.1 550.4 123.6 550.4 124.3V127.6C550.4 127.7 550.4 127.8 550.4 127.8C550.4 127.8 550.4 128 550.4 128.1C550.4 128.2 550.4 128.3 550.4 128.4C550.4 128.5 550.4 128.6 550.4 128.6H549.4C549.4 128.5 549.4 128.3 549.3 128.1C549.3 127.9 549.3 127.7 549.3 127.6L549.4 127.5ZM547.5 127.8C547.8 127.8 548.1 127.7 548.3 127.6C548.5 127.5 548.7 127.3 548.9 127.1C549 126.9 549.1 126.7 549.2 126.6C549.3 126.4 549.3 126.3 549.3 126.2V125.7H548.2C547.6 125.7 547.1 125.8 546.8 126C546.5 126.2 546.4 126.5 546.4 126.8C546.4 127.1 546.5 127.3 546.7 127.5C546.9 127.7 547.1 127.8 547.5 127.8Z" fill="#262626"/>
<path d="M555 123.2C554.5 123.2 554.1 123.3 553.8 123.5C553.5 123.7 553.3 124 553.1 124.3V128.5H552V122.3H553V123.4C553.2 123 553.4 122.7 553.8 122.5C554.2 122.3 554.6 122.2 555.2 122.2C555.8 122.2 556.3 122.4 556.7 122.7C557.1 123 557.2 123.5 557.2 124.2V128.6H556.1V124.3C556.1 123.9 556 123.6 555.8 123.4C555.7 123.3 555.4 123.2 555 123.2Z" fill="#262626"/>
<path d="M560.9 128.8C560.6 128.8 560.3 128.8 560 128.7C559.7 128.6 559.5 128.6 559.3 128.5C559.1 128.4 559 128.3 558.8 128.3C558.6 128.3 558.6 128.1 558.5 128.1V127.2C558.6 127.3 558.7 127.4 558.8 127.5C558.9 127.6 559.1 127.7 559.3 127.8C559.5 127.9 559.7 127.9 560 128C560.3 128.1 560.5 128.1 560.8 128.1C561.2 128.1 561.6 128 561.9 127.9C562.2 127.8 562.3 127.5 562.3 127.2C562.3 127 562.3 126.9 562.2 126.8C562.1 126.7 562 126.6 561.9 126.5C561.8 126.4 561.6 126.4 561.4 126.3C561.2 126.2 561 126.2 560.8 126.2C560.5 126.1 560.3 126.1 560 126C559.7 125.9 559.5 125.8 559.3 125.7C559.1 125.6 558.9 125.4 558.8 125.2C558.7 125 558.6 124.7 558.6 124.4C558.6 123.8 558.8 123.4 559.3 123.1C559.7 122.8 560.3 122.6 561.1 122.6C561.5 122.6 561.9 122.6 562.3 122.7C562.6 122.8 562.9 122.9 563.1 123V123.9C562.9 123.8 562.6 123.7 562.3 123.6C562 123.5 561.6 123.5 561.2 123.5C560.7 123.5 560.4 123.6 560.1 123.7C559.8 123.8 559.7 124.1 559.7 124.4C559.7 124.6 559.7 124.7 559.8 124.8C559.9 124.9 560 125 560.1 125C560.2 125.1 560.4 125.1 560.5 125.1C560.6 125.1 560.8 125.2 561 125.2C561.3 125.3 561.6 125.3 561.8 125.4C562.1 125.5 562.3 125.6 562.6 125.7C562.9 125.8 563 126 563.2 126.2C563.3 126.4 563.4 126.7 563.4 127.1C563.4 127.5 563.3 127.8 563.2 128C563.1 128.2 562.9 128.4 562.6 128.6C562.4 128.7 562.1 128.8 561.8 128.9C561.5 128.7 561.2 128.8 560.9 128.8Z" fill="#262626"/>
<path d="M566.1 123.3V128.6H565V123.3H564.2V122.4H565V122.3C565 121.6 565.2 121 565.6 120.6C566 120.2 566.5 120 567.2 120C567.5 120 567.8 120 568 120.1V121C567.9 121 567.8 120.9 567.7 120.9C567.6 120.9 567.4 120.9 567.3 120.9C566.9 120.9 566.6 121 566.4 121.2C566.2 121.4 566.1 121.8 566.1 122.3V122.5H567.9V123.4H566.1V123.3Z" fill="#262626"/>
<path d="M573.9 128.1C573.8 128.2 573.7 128.2 573.6 128.3C573.5 128.4 573.3 128.4 573.1 128.5C572.9 128.6 572.7 128.6 572.5 128.7C572.3 128.7 572 128.8 571.7 128.8C570.7 128.8 569.9 128.5 569.3 127.9C568.8 127.3 568.5 126.5 568.5 125.5C568.5 125 568.6 124.5 568.7 124.1C568.8 123.7 569.1 123.4 569.3 123.1C569.6 122.8 569.9 122.6 570.2 122.5C570.6 122.4 571 122.3 571.4 122.3C571.8 122.3 572.2 122.4 572.6 122.5C573 122.7 573.2 122.9 573.5 123.2C573.8 123.5 573.9 123.9 574 124.3C574.1 124.7 574.1 125.2 574 125.8H569.6C569.6 126.5 569.8 127 570.2 127.3C570.6 127.6 571.1 127.8 571.8 127.8C572.3 127.8 572.7 127.7 573 127.6C573.3 127.5 573.6 127.3 573.9 127.2V128.1ZM571.4 123.2C570.9 123.2 570.6 123.3 570.2 123.6C569.9 123.9 569.7 124.3 569.6 124.9H572.9C572.9 124.3 572.8 123.9 572.5 123.6C572.2 123.3 571.9 123.2 571.4 123.2Z" fill="#262626"/>
<path d="M577.2 123.8C576.8 124 576.6 124.3 576.4 124.7V128.7H575.3V122.5H576.2L576.3 123.9C576.5 123.5 576.7 123.2 577.1 122.9C577.4 122.6 577.9 122.5 578.4 122.4V123.6C577.9 123.5 577.5 123.6 577.2 123.8Z" fill="#262626"/>
<rect x="672.5" y="91.5" width="77" height="59" rx="7.5" stroke="#5282FF"/>
<rect x="672.5" y="91.5" width="77" height="59" rx="7.5" stroke="#5282FF"/>
<path d="M706.8 128.5C706.6 128.5 706.4 128.4 706.2 128.3C706.1 128.2 706 128 706 127.8C706 127.6 706.1 127.4 706.2 127.2C706.3 127.1 706.5 127 706.8 127C707 127 707.2 127.1 707.4 127.2C707.5 127.3 707.6 127.5 707.6 127.8C707.6 128 707.5 128.2 707.4 128.3C707.2 128.5 707 128.5 706.8 128.5Z" fill="#262626"/>
<path d="M709.6 128.5C709.4 128.5 709.2 128.4 709 128.3C708.9 128.2 708.8 128 708.8 127.8C708.8 127.6 708.9 127.4 709 127.2C709.1 127.1 709.3 127 709.6 127C709.8 127 710 127.1 710.2 127.2C710.3 127.3 710.4 127.5 710.4 127.8C710.4 128 710.3 128.2 710.2 128.3C710 128.5 709.9 128.5 709.6 128.5Z" fill="#262626"/>
<path d="M712.5 128.5C712.3 128.5 712.1 128.4 711.9 128.3C711.8 128.2 711.7 128 711.7 127.8C711.7 127.6 711.8 127.4 711.9 127.2C712 127.1 712.2 127 712.5 127C712.7 127 712.9 127.1 713.1 127.2C713.2 127.3 713.3 127.5 713.3 127.8C713.3 128 713.2 128.2 713.1 128.3C712.9 128.5 712.7 128.5 712.5 128.5Z" fill="#262626"/>
<rect x="749.5" y="91.5" width="77" height="59" rx="7.5" stroke="#5282FF"/>
<path d="M784.8 128.5C784.6 128.5 784.4 128.4 784.2 128.3C784.1 128.2 784 128 784 127.8C784 127.6 784.1 127.4 784.2 127.2C784.3 127.1 784.5 127 784.8 127C785 127 785.2 127.1 785.4 127.2C785.5 127.3 785.6 127.5 785.6 127.8C785.6 128 785.5 128.2 785.4 128.3C785.2 128.5 785 128.5 784.8 128.5Z" fill="#262626"/>
<path d="M787.6 128.5C787.4 128.5 787.2 128.4 787 128.3C786.9 128.2 786.8 128 786.8 127.8C786.8 127.6 786.9 127.4 787 127.2C787.1 127.1 787.3 127 787.6 127C787.8 127 788 127.1 788.2 127.2C788.3 127.3 788.4 127.5 788.4 127.8C788.4 128 788.3 128.2 788.2 128.3C788 128.5 787.9 128.5 787.6 128.5Z" fill="#262626"/>
<path d="M790.5 128.5C790.3 128.5 790.1 128.4 789.9 128.3C789.8 128.2 789.7 128 789.7 127.8C789.7 127.6 789.8 127.4 789.9 127.2C790 127.1 790.2 127 790.5 127C790.7 127 790.9 127.1 791.1 127.2C791.2 127.3 791.3 127.5 791.3 127.8C791.3 128 791.2 128.2 791.1 128.3C790.9 128.5 790.7 128.5 790.5 128.5Z" fill="#262626"/>
<rect x="826.5" y="91.5" width="77" height="59" rx="7.5" stroke="#5282FF"/>
<path d="M860.8 128.5C860.6 128.5 860.4 128.4 860.2 128.3C860.1 128.2 860 128 860 127.8C860 127.6 860.1 127.4 860.2 127.2C860.3 127.1 860.5 127 860.8 127C861 127 861.2 127.1 861.4 127.2C861.5 127.3 861.6 127.5 861.6 127.8C861.6 128 861.5 128.2 861.4 128.3C861.2 128.5 861 128.5 860.8 128.5Z" fill="#262626"/>
<path d="M863.6 128.5C863.4 128.5 863.2 128.4 863 128.3C862.9 128.2 862.8 128 862.8 127.8C862.8 127.6 862.9 127.4 863 127.2C863.1 127.1 863.3 127 863.6 127C863.8 127 864 127.1 864.2 127.2C864.3 127.3 864.4 127.5 864.4 127.8C864.4 128 864.3 128.2 864.2 128.3C864 128.5 863.9 128.5 863.6 128.5Z" fill="#262626"/>
<path d="M866.5 128.5C866.3 128.5 866.1 128.4 865.9 128.3C865.8 128.2 865.7 128 865.7 127.8C865.7 127.6 865.8 127.4 865.9 127.2C866 127.1 866.2 127 866.5 127C866.7 127 866.9 127.1 867.1 127.2C867.2 127.3 867.3 127.5 867.3 127.8C867.3 128 867.2 128.2 867.1 128.3C866.9 128.5 866.7 128.5 866.5 128.5Z" fill="#262626"/>
<rect x="903.5" y="91.5" width="77" height="59" rx="7.5" stroke="#5282FF"/>
<path d="M937.8 128.5C937.6 128.5 937.4 128.4 937.2 128.3C937.1 128.2 937 128 937 127.8C937 127.6 937.1 127.4 937.2 127.2C937.3 127.1 937.5 127 937.8 127C938 127 938.2 127.1 938.4 127.2C938.5 127.3 938.6 127.5 938.6 127.8C938.6 128 938.5 128.2 938.4 128.3C938.2 128.5 938 128.5 937.8 128.5Z" fill="#262626"/>
<path d="M940.6 128.5C940.4 128.5 940.2 128.4 940 128.3C939.9 128.2 939.8 128 939.8 127.8C939.8 127.6 939.9 127.4 940 127.2C940.1 127.1 940.3 127 940.6 127C940.8 127 941 127.1 941.2 127.2C941.3 127.3 941.4 127.5 941.4 127.8C941.4 128 941.3 128.2 941.2 128.3C941 128.5 940.9 128.5 940.6 128.5Z" fill="#262626"/>
<path d="M943.5 128.5C943.3 128.5 943.1 128.4 942.9 128.3C942.8 128.2 942.7 128 942.7 127.8C942.7 127.6 942.8 127.4 942.9 127.2C943 127.1 943.2 127 943.5 127C943.7 127 943.9 127.1 944.1 127.2C944.2 127.3 944.3 127.5 944.3 127.8C944.3 128 944.2 128.2 944.1 128.3C943.9 128.5 943.7 128.5 943.5 128.5Z" fill="#262626"/>
<rect x="980.5" y="91.5" width="77" height="59" rx="7.5" stroke="#5282FF"/>
<path d="M1015.8 128.5C1015.6 128.5 1015.4 128.4 1015.2 128.3C1015.1 128.2 1015 128 1015 127.8C1015 127.6 1015.1 127.4 1015.2 127.2C1015.3 127.1 1015.5 127 1015.8 127C1016 127 1016.2 127.1 1016.4 127.2C1016.5 127.3 1016.6 127.5 1016.6 127.8C1016.6 128 1016.5 128.2 1016.4 128.3C1016.2 128.5 1016 128.5 1015.8 128.5Z" fill="#262626"/>
<path d="M1018.6 128.5C1018.4 128.5 1018.2 128.4 1018 128.3C1017.9 128.2 1017.8 128 1017.8 127.8C1017.8 127.6 1017.9 127.4 1018 127.2C1018.1 127.1 1018.3 127 1018.6 127C1018.8 127 1019 127.1 1019.2 127.2C1019.3 127.3 1019.4 127.5 1019.4 127.8C1019.4 128 1019.3 128.2 1019.2 128.3C1019 128.5 1018.9 128.5 1018.6 128.5Z" fill="#262626"/>
<path d="M1021.5 128.5C1021.3 128.5 1021.1 128.4 1020.9 128.3C1020.8 128.2 1020.7 128 1020.7 127.8C1020.7 127.6 1020.8 127.4 1020.9 127.2C1021 127.1 1021.2 127 1021.5 127C1021.7 127 1021.9 127.1 1022.1 127.2C1022.2 127.3 1022.3 127.5 1022.3 127.8C1022.3 128 1022.2 128.2 1022.1 128.3C1021.9 128.5 1021.7 128.5 1021.5 128.5Z" fill="#262626"/>
<path d="M198.3 105V104.2H199.3C199.8 104.2 200.2 104.1 200.4 103.9C200.7 103.7 200.8 103.4 200.8 103C200.8 102.6 200.7 102.3 200.4 102.1C200.1 101.9 199.8 101.8 199.3 101.8C198.8 101.8 198.4 101.8 198.1 101.9C197.8 102 197.4 102.1 197.1 102.3V101.5C197.3 101.4 197.6 101.3 198 101.2C198.4 101.1 198.8 101 199.4 101C200.1 101 200.7 101.2 201.2 101.5C201.6 101.8 201.9 102.3 201.9 102.9C201.9 103.3 201.8 103.7 201.5 103.9C201.2 104.1 200.9 104.4 200.4 104.5C201 104.6 201.4 104.7 201.7 105C202 105.3 202.1 105.7 202.1 106.2C202.1 106.6 202 106.9 201.9 107.2C201.8 107.5 201.6 107.7 201.3 107.9C201 108.1 200.8 108.2 200.4 108.3C200.1 108.4 199.7 108.4 199.3 108.4C198.8 108.4 198.3 108.3 197.9 108.2C197.5 108.1 197.2 107.9 197 107.8V106.9C197.6 107.3 198.4 107.6 199.2 107.6C199.4 107.6 199.7 107.6 199.9 107.5C200.1 107.5 200.3 107.4 200.5 107.3C200.7 107.2 200.8 107.1 200.9 106.9C201 106.7 201 106.5 201 106.3C201 105.8 200.9 105.5 200.6 105.3C200.3 105.1 199.9 105 199.3 105H198.3Z" fill="#262626"/>
<path d="M206.3 107.3C206.2 107.4 206.2 107.5 206.1 107.7C206 107.9 205.9 107.9 205.8 108.1C205.7 108.2 205.5 108.3 205.3 108.4C205.1 108.5 204.9 108.5 204.6 108.5C204.1 108.5 203.8 108.4 203.5 108.1C203.2 107.8 203.1 107.5 203.1 107C203.1 106.4 203.3 106 203.7 105.7C204.1 105.4 204.7 105.3 205.4 105.3H206.4V104.9C206.4 104.5 206.3 104.3 206.1 104.1C205.9 103.9 205.6 103.9 205.1 103.9C204.8 103.9 204.5 104 204.2 104.1C203.9 104.2 203.7 104.3 203.4 104.5V103.5C203.6 103.4 203.8 103.3 204.2 103.2C204.5 103.1 204.9 103 205.2 103C205.9 103 206.3 103.1 206.7 103.4C207 103.7 207.2 104.1 207.2 104.7V107.5C207.2 107.6 207.2 107.6 207.2 107.7C207.2 107.8 207.2 107.9 207.2 107.9C207.2 108 207.2 108.1 207.2 108.1C207.2 108.2 207.2 108.2 207.2 108.3H206.4C206.4 108.2 206.4 108.1 206.3 107.9C206.3 107.7 206.3 107.6 206.3 107.5V107.3ZM204.8 107.6C205.1 107.6 205.3 107.5 205.5 107.4C205.7 107.3 205.8 107.2 206 107C206.1 106.8 206.2 106.7 206.3 106.6C206.4 106.5 206.4 106.4 206.4 106.3V105.9H205.5C205 105.9 204.6 106 204.4 106.1C204.2 106.3 204 106.5 204 106.8C204 107 204.1 107.2 204.2 107.4C204.3 107.6 204.5 107.6 204.8 107.6Z" fill="#262626"/>
<path d="M208.6 103.1H212.8V108.3H211.8V103.9H209.4V108.3H208.5V103.1H208.6Z" fill="#262626"/>
<path d="M215 107.1L217.8 103.1H218.7V108.3H217.8V104.3L215 108.3H214.1V103.1H215V107.1Z" fill="#262626"/>
<path d="M222.4 108.4C222 108.4 221.6 108.3 221.3 108.2C221 108.1 220.7 107.9 220.5 107.7C220.3 107.5 220.1 107.2 220 106.9C219.9 106.6 219.8 106.2 219.8 105.8C219.8 105.4 219.9 105 220 104.7C220.1 104.4 220.3 104.1 220.5 103.9C220.7 103.7 221 103.5 221.3 103.4C221.6 103.3 222 103.2 222.4 103.2C222.7 103.2 223 103.2 223.3 103.3C223.6 103.4 223.8 103.5 224 103.6V104.4C223.8 104.3 223.5 104.2 223.3 104.1C223 104 222.8 104 222.5 104C221.9 104 221.4 104.2 221.2 104.5C220.9 104.8 220.8 105.3 220.8 105.9C220.8 106.5 220.9 107 221.2 107.3C221.5 107.6 221.9 107.8 222.5 107.8C222.8 107.8 223.1 107.8 223.4 107.7C223.7 107.6 223.9 107.5 224.1 107.4V108.2C223.9 108.3 223.7 108.4 223.4 108.5C223 108.4 222.7 108.4 222.4 108.4Z" fill="#262626"/>
<path d="M229 106.6C229 106.9 228.9 107.2 228.8 107.4C228.7 107.6 228.5 107.8 228.4 107.9C228.2 108 228 108.1 227.7 108.2C227.4 108.3 227.1 108.3 226.8 108.3H225.1V103.1H226V104.9H226.9C227.6 104.9 228.1 105 228.4 105.3C228.8 105.6 229 106 229 106.6ZM226 105.7V107.6H226.8C227.2 107.6 227.5 107.5 227.7 107.4C227.9 107.3 228.1 107 228.1 106.7C228.1 106.4 228 106.1 227.8 106C227.6 105.9 227.3 105.8 226.9 105.8H226V105.7Z" fill="#262626"/>
<path d="M396.5 98.3C396 98.3 395.6 98.2 395.1 98.1C394.7 97.9 394.3 97.7 394 97.4C393.7 97.1 393.5 96.7 393.3 96.2C393.1 95.7 393 95.2 393 94.6C393 94 393.1 93.5 393.3 93C393.5 92.5 393.7 92.2 394 91.9C394.3 91.6 394.7 91.4 395.1 91.2C395.5 91 396 91 396.5 91C397 91 397.4 91.1 397.9 91.2C398.3 91.4 398.7 91.6 399 91.9C399.3 92.2 399.5 92.6 399.7 93C399.9 93.5 400 94 400 94.6C400 95.2 399.9 95.7 399.7 96.2C399.5 96.7 399.3 97 399 97.4C398.7 97.7 398.3 98 397.9 98.1C397.4 98.2 396.9 98.3 396.5 98.3ZM396.5 97.5C396.8 97.5 397.2 97.4 397.5 97.3C397.8 97.2 398 97 398.3 96.8C398.5 96.6 398.7 96.3 398.8 95.9C398.9 95.5 399 95.1 399 94.6C399 94.1 398.9 93.6 398.8 93.3C398.7 92.9 398.5 92.6 398.3 92.4C398.1 92.2 397.8 92 397.5 91.9C397.2 91.8 396.9 91.7 396.5 91.7C396.1 91.7 395.8 91.8 395.5 91.9C395.2 92 395 92.2 394.7 92.4C394.5 92.6 394.3 92.9 394.2 93.3C394.1 93.7 394 94.1 394 94.6C394 95.1 394.1 95.6 394.2 95.9C394.3 96.3 394.5 96.6 394.7 96.8C394.9 97 395.2 97.2 395.5 97.3C395.8 97.4 396.1 97.5 396.5 97.5Z" fill="#262626"/>
<path d="M403.1 93.8V98.2H402.2V93.8H400.6V93H404.8V93.8H403.1Z" fill="#262626"/>
<path d="M407.9 98.3C407.5 98.3 407.1 98.2 406.8 98.1C406.5 98 406.2 97.8 406 97.6C405.8 97.4 405.6 97.1 405.5 96.8C405.4 96.5 405.3 96.1 405.3 95.7C405.3 95.3 405.4 94.9 405.5 94.6C405.6 94.3 405.8 94 406 93.8C406.2 93.6 406.5 93.4 406.8 93.3C407.1 93.2 407.5 93.1 407.9 93.1C408.2 93.1 408.5 93.1 408.8 93.2C409.1 93.3 409.3 93.4 409.5 93.5V94.3C409.3 94.2 409 94.1 408.8 94C408.5 93.9 408.3 93.9 408 93.9C407.4 93.9 406.9 94.1 406.7 94.4C406.4 94.7 406.3 95.2 406.3 95.8C406.3 96.4 406.4 96.9 406.7 97.2C407 97.5 407.4 97.7 408 97.7C408.3 97.7 408.6 97.7 408.9 97.6C409.2 97.5 409.4 97.4 409.6 97.3V98.1C409.4 98.2 409.2 98.3 408.9 98.4C408.5 98.3 408.2 98.3 407.9 98.3Z" fill="#262626"/>
<path d="M411 96.6C411.1 96.3 411.2 95.8 411.2 95.2C411.2 94.6 411.2 93.9 411.2 93H414.7V98.2H413.8V93.8H412C412 94.5 412 95.1 411.9 95.7C411.9 96.3 411.8 96.7 411.7 97.1C411.6 97.5 411.4 97.8 411.2 98C411 98.2 410.7 98.3 410.3 98.3H410.2H410.1V97.4H410.2C410.7 97.4 410.9 97.1 411 96.6Z" fill="#262626"/>
<path d="M420.3 97.8C420.2 97.9 420.1 97.9 420 98C419.9 98.1 419.8 98.1 419.6 98.2C419.4 98.3 419.3 98.3 419.1 98.3C418.9 98.3 418.7 98.4 418.4 98.4C417.5 98.4 416.9 98.2 416.4 97.7C415.9 97.2 415.7 96.6 415.7 95.7C415.7 95.3 415.8 94.9 415.9 94.6C416 94.3 416.2 94 416.4 93.8C416.6 93.6 416.9 93.4 417.2 93.3C417.5 93.2 417.8 93.1 418.2 93.1C418.6 93.1 418.9 93.2 419.2 93.3C419.5 93.4 419.7 93.6 419.9 93.9C420.1 94.1 420.2 94.5 420.3 94.8C420.4 95.1 420.4 95.6 420.3 96.1H416.6C416.6 96.7 416.8 97.1 417.1 97.4C417.4 97.7 417.8 97.8 418.4 97.8C418.8 97.8 419.1 97.7 419.4 97.6C419.7 97.5 419.9 97.4 420.1 97.2V97.8H420.3ZM418.3 93.7C417.9 93.7 417.6 93.8 417.3 94C417 94.2 416.9 94.6 416.8 95.1H419.6C419.6 94.6 419.5 94.3 419.3 94C419 93.8 418.7 93.7 418.3 93.7Z" fill="#262626"/>
<path d="M425 93V95.2H425.5L427.2 93H428.2L426.3 95.5L428.3 98.2H427.2L425.5 96H425.1V98.2H424.2V96H423.8L422.1 98.2H421.1L423.1 95.6L421.2 93H422.2L423.8 95.2H424.3V93H425Z" fill="#262626"/>
<path d="M430 97L432.8 93H433.7V98.2H432.8V94.2L430 98.2H429.1V93H430V97Z" fill="#262626"/>
<path d="M435.1 93H437C437.6 93 438.1 93.1 438.4 93.3C438.7 93.5 438.9 93.9 438.9 94.3C438.9 94.6 438.8 94.9 438.7 95C438.5 95.2 438.3 95.3 438 95.4C438.7 95.5 439.1 95.9 439.1 96.6C439.1 96.9 439 97.1 438.9 97.3C438.8 97.5 438.6 97.6 438.5 97.8C438.4 98 438.1 98 437.8 98.1C437.5 98.2 437.3 98.2 436.9 98.2H435V93H435.1ZM436 93.8V95.2H437C437.3 95.2 437.6 95.1 437.8 95C438 94.9 438.1 94.7 438.1 94.5C438.1 94.2 438 94 437.8 93.9C437.6 93.8 437.4 93.7 437 93.7H436V93.8ZM436 95.9V97.5H437C437.2 97.5 437.4 97.5 437.5 97.5C437.6 97.5 437.8 97.4 437.9 97.4C438 97.3 438.1 97.3 438.2 97.2C438.3 97.1 438.3 97 438.3 96.8C438.3 96.5 438.2 96.3 438 96.2C437.8 96.1 437.5 96 437.1 96H436V95.9Z" fill="#262626"/>
<path d="M443.5 97.2C443.4 97.3 443.4 97.4 443.3 97.6C443.2 97.7 443.1 97.8 443 98C442.9 98.2 442.7 98.2 442.5 98.3C442.3 98.4 442.1 98.4 441.8 98.4C441.3 98.4 441 98.3 440.7 98C440.4 97.7 440.3 97.4 440.3 96.9C440.3 96.3 440.5 95.9 440.9 95.6C441.3 95.3 441.9 95.2 442.6 95.2H443.6V94.8C443.6 94.4 443.5 94.2 443.3 94C443.1 93.8 442.8 93.8 442.3 93.8C442 93.8 441.7 93.9 441.4 94C441.1 94.1 440.9 94.2 440.6 94.4V93.4C440.8 93.3 441 93.2 441.4 93.1C441.8 93 442.1 92.9 442.4 92.9C443.1 92.9 443.6 93 443.9 93.3C444.2 93.6 444.4 94 444.4 94.6V97.4C444.4 97.5 444.4 97.5 444.4 97.6C444.4 97.7 444.4 97.8 444.4 97.8C444.4 97.9 444.4 98 444.4 98C444.4 98.1 444.4 98.1 444.4 98.2H443.6C443.6 98.1 443.6 98 443.5 97.8C443.5 97.6 443.5 97.5 443.5 97.4V97.2ZM442 97.5C442.3 97.5 442.5 97.4 442.7 97.3C442.9 97.2 443 97.1 443.2 96.9C443.3 96.7 443.4 96.6 443.5 96.5C443.6 96.4 443.6 96.3 443.6 96.2V95.8H442.6C442.1 95.8 441.7 95.9 441.5 96C441.3 96.2 441.1 96.4 441.1 96.7C441.1 96.9 441.2 97.1 441.3 97.3C441.4 97.5 441.7 97.5 442 97.5Z" fill="#262626"/>
<path d="M449.1 95.9H446.6V98.2H445.7V93H446.6V95.1H449.1V93H450V98.2H449.1V95.9Z" fill="#262626"/>
<path d="M452.3 97L455.1 93H456V98.2H455.1V94.2L452.3 98.2H451.4V93H452.3V97Z" fill="#262626"/>
<path d="M461.6 97.8C461.5 97.9 461.4 97.9 461.3 98C461.2 98.1 461.1 98.1 460.9 98.2C460.7 98.3 460.6 98.3 460.4 98.3C460.2 98.3 460 98.4 459.8 98.4C458.9 98.4 458.3 98.2 457.8 97.7C457.3 97.2 457.1 96.6 457.1 95.7C457.1 95.3 457.2 94.9 457.3 94.6C457.4 94.3 457.6 94 457.8 93.8C458 93.6 458.3 93.4 458.6 93.3C458.9 93.2 459.2 93.1 459.6 93.1C460 93.1 460.3 93.2 460.6 93.3C460.9 93.4 461.1 93.6 461.3 93.9C461.5 94.1 461.6 94.5 461.7 94.8C461.8 95.2 461.8 95.6 461.7 96.1H458C458 96.7 458.2 97.1 458.5 97.4C458.8 97.7 459.2 97.8 459.8 97.8C460.2 97.8 460.5 97.7 460.8 97.6C461.1 97.5 461.3 97.4 461.5 97.2V97.8H461.6ZM459.5 93.7C459.1 93.7 458.8 93.8 458.5 94C458.2 94.2 458.1 94.6 458 95.1H460.8C460.8 94.6 460.7 94.3 460.5 94C460.2 93.8 459.9 93.7 459.5 93.7Z" fill="#262626"/>
<path d="M402.8 109L405.6 105H406.5V110.2H405.6V106.2L402.8 110.2H401.9V105H402.8V109Z" fill="#262626"/>
<path d="M411.6 108.7C411.6 109 411.5 109.2 411.4 109.4C411.3 109.6 411.1 109.8 410.9 109.9C410.7 110 410.5 110.1 410.2 110.2C409.9 110.3 409.7 110.3 409.4 110.3C409 110.3 408.7 110.3 408.4 110.2C408.1 110.1 407.9 110 407.7 109.9V109.1C407.9 109.2 408.2 109.3 408.4 109.4C408.7 109.5 409 109.5 409.3 109.5C409.7 109.5 410 109.4 410.3 109.3C410.6 109.2 410.7 109 410.7 108.7C410.7 108.4 410.6 108.2 410.4 108.1C410.2 108 409.9 107.9 409.4 107.9H408.7V107.2H409.4C409.8 107.2 410 107.1 410.2 107C410.4 106.9 410.5 106.7 410.5 106.4C410.5 106.3 410.5 106.2 410.4 106.1C410.3 106 410.3 105.9 410.1 105.9C410 105.8 409.9 105.8 409.7 105.8C409.5 105.8 409.4 105.8 409.2 105.8C408.9 105.8 408.6 105.8 408.3 105.9C408 106 407.8 106.1 407.6 106.2V105.4C407.8 105.3 408 105.2 408.3 105.1C408.6 105 408.9 105 409.3 105C409.9 105 410.4 105.1 410.7 105.4C411 105.7 411.2 106 411.2 106.4C411.2 106.7 411.1 107 410.9 107.2C410.7 107.4 410.5 107.5 410.1 107.6C410.5 107.7 410.8 107.8 411 108C411.2 108.2 411.6 108.4 411.6 108.7Z" fill="#262626"/>
<path d="M417.8 106L416 109.6H415.3L413.6 106V110.2H412.8V105H414.1L415.7 108.5L417.4 105H418.6V110.2H417.7V106H417.8Z" fill="#262626"/>
<path d="M424.2 109.8C424.1 109.9 424 109.9 423.9 110C423.8 110.1 423.7 110.1 423.5 110.2C423.3 110.3 423.2 110.3 423 110.3C422.8 110.3 422.6 110.4 422.3 110.4C421.4 110.4 420.8 110.2 420.3 109.7C419.8 109.2 419.6 108.6 419.6 107.7C419.6 107.3 419.7 106.9 419.8 106.6C419.9 106.3 420.1 106 420.3 105.8C420.5 105.6 420.8 105.4 421.1 105.3C421.4 105.2 421.7 105.1 422.1 105.1C422.5 105.1 422.8 105.2 423.1 105.3C423.4 105.4 423.6 105.6 423.8 105.9C424 106.1 424.1 106.5 424.2 106.8C424.3 107.1 424.3 107.6 424.2 108.1H420.6C420.6 108.7 420.8 109.1 421.1 109.4C421.4 109.7 421.8 109.8 422.4 109.8C422.8 109.8 423.1 109.7 423.4 109.6C423.7 109.5 423.9 109.4 424.1 109.2V109.8H424.2ZM422.2 105.7C421.8 105.7 421.5 105.8 421.2 106C420.9 106.2 420.8 106.6 420.7 107.1H423.5C423.5 106.6 423.4 106.3 423.2 106C422.9 105.8 422.6 105.7 422.2 105.7Z" fill="#262626"/>
<path d="M428.9 107.9H426.4V110.2H425.5V105H426.4V107.1H428.9V105H429.8V110.2H428.9V107.9Z" fill="#262626"/>
<path d="M435.3 109.8C435.2 109.9 435.1 109.9 435 110C434.9 110.1 434.8 110.1 434.6 110.2C434.4 110.3 434.3 110.3 434.1 110.3C433.9 110.3 433.7 110.4 433.4 110.4C432.5 110.4 431.9 110.2 431.4 109.7C430.9 109.2 430.7 108.6 430.7 107.7C430.7 107.3 430.8 106.9 430.9 106.6C431 106.3 431.2 106 431.4 105.8C431.6 105.6 431.9 105.4 432.2 105.3C432.5 105.2 432.8 105.1 433.2 105.1C433.6 105.1 433.9 105.2 434.2 105.3C434.5 105.4 434.7 105.6 434.9 105.9C435.1 106.1 435.2 106.5 435.3 106.8C435.4 107.1 435.4 107.6 435.3 108.1H431.6C431.6 108.7 431.8 109.1 432.1 109.4C432.4 109.7 432.8 109.8 433.4 109.8C433.8 109.8 434.1 109.7 434.4 109.6C434.7 109.5 434.9 109.4 435.1 109.2V109.8H435.3ZM433.3 105.7C432.9 105.7 432.6 105.8 432.3 106C432 106.2 431.9 106.6 431.8 107.1H434.6C434.6 106.6 434.5 106.3 434.3 106C434 105.8 433.7 105.7 433.3 105.7Z" fill="#262626"/>
<path d="M440 107.9H437.5V110.2H436.6V105H437.5V107.1H440V105H440.9V110.2H440V107.9Z" fill="#262626"/>
<path d="M443.2 109L446 105H446.9V110.2H446V106.2L443.2 110.2H442.3V105H443.2V109Z" fill="#262626"/>
<path d="M449.1 109L451.9 105H452.8V110.2H451.9V106.2L449.1 110.2H448.2V105H449.1V109ZM450.6 104.3C450.3 104.3 450.1 104.3 449.9 104.2C449.7 104.1 449.5 104 449.4 103.9C449.3 103.8 449.2 103.6 449.1 103.5C449 103.4 449 103.2 449 103H449.9C449.9 103.3 450 103.4 450.1 103.5C450.2 103.6 450.4 103.7 450.6 103.7C450.8 103.7 451 103.6 451.1 103.5C451.2 103.4 451.3 103.2 451.3 103H452.2C452.2 103.4 452.1 103.7 451.8 104C451.5 104.2 451.1 104.3 450.6 104.3Z" fill="#262626"/>
</svg>
