<svg xmlns="http://www.w3.org/2000/svg" width="650" height="250" fill="none" viewBox="0 0 650 250">
    <path fill="#fff" d="M0 0h650v250H0z"/>
    <path fill="#FFF2BF" d="M270.8 138.6h114c4.4 0 8 3.6 8 8v44c0 4.4-3.6 8-8 8h-114c-4.4 0-8-3.6-8-8v-44c0-4.5 3.6-8 8-8Z"/>
    <path fill="#262626" d="M292.1 164h2.9c.6 0 1.1.1 1.6.2s.9.4 1.3.7c.4.3.7.7.9 1.2.2.5.3 1.1.3 1.9 0 .8-.1 1.4-.3 2-.2.6-.5 1.1-.9 1.4-.4.3-.8.7-1.3.9-.5.2-1.1.3-1.7.3h-2.8V164Zm1.2 1v6.6h1.6c.4 0 .8-.1 1.2-.2.4-.1.7-.3.9-.6.3-.3.5-.6.6-1.1.1-.4.2-1 .2-1.6 0-.6-.1-1.1-.2-1.5-.1-.4-.3-.7-.6-.9-.3-.2-.6-.4-.9-.5-.4-.1-.7-.1-1.1-.1h-1.7v-.1Zm10.8 6.4c-.1.1-.2.3-.3.5-.1.2-.3.3-.4.4-.1.1-.4.2-.6.3-.2.1-.5.1-.8.1-.6 0-1-.2-1.4-.5-.3-.3-.5-.8-.5-1.4 0-.7.2-1.2.7-1.5.5-.3 1.2-.5 2-.5h1.2v-.5c0-.4-.1-.7-.3-.9-.2-.2-.6-.3-1.2-.3-.4 0-.7.1-1.1.2-.3.1-.7.3-.9.4v-.9c.2-.1.5-.3.9-.4.4-.1.8-.2 1.3-.2.8 0 1.4.2 1.8.5.4.3.6.8.6 1.5v4.3h-1c0-.1 0-.3-.1-.5v-.5l.1-.1Zm-1.9.3c.3 0 .6-.1.8-.2.2-.1.4-.3.6-.5.1-.2.2-.4.3-.5.1-.2.1-.3.1-.4v-.5h-1c-.6 0-1.1.1-1.4.3-.3.2-.4.5-.4.8 0 .3.1.5.3.7.1.3.4.3.7.3Zm7.1.9c-.2 0-.4.1-.6.1-.3 0-.6 0-.8-.1-.2-.1-.4-.2-.5-.4-.1-.1-.2-.3-.3-.5-.1-.2-.1-.4-.1-.6v-3.9h-.7v-.9h.7V165h1.1v1.3h1.8v.9h-1.8v3.8c0 .3.1.5.2.6.1.1.4.2.7.2.3 0 .6-.1.9-.3v1c-.2 0-.4.1-.6.1Zm5.6-1.2c-.1.1-.2.3-.3.5-.1.2-.3.3-.4.4-.1.1-.4.2-.6.3-.2.1-.5.1-.8.1-.6 0-1-.2-1.4-.5-.3-.3-.5-.8-.5-1.4 0-.7.2-1.2.7-1.5.5-.3 1.2-.5 2-.5h1.2v-.5c0-.4-.1-.7-.3-.9-.2-.2-.6-.3-1.2-.3-.4 0-.7.1-1.1.2-.3.1-.7.3-.9.4v-.9c.2-.1.5-.3.9-.4.4-.1.8-.2 1.3-.2.8 0 1.4.2 1.8.5.4.3.6.8.6 1.5v4.3h-1c0-.1 0-.3-.1-.5v-.5l.1-.1Zm-1.9.3c.3 0 .6-.1.8-.2.2-.1.4-.3.6-.5.1-.2.2-.4.3-.5.1-.2.1-.3.1-.4v-.5h-1.1c-.6 0-1.1.1-1.4.3-.3.2-.4.5-.4.8 0 .3.1.5.3.7.2.3.4.3.8.3Zm10.5-6.7v7.6h-1.1V165h-2.7v-1h6.4v1h-2.6Zm5 2.7c-.4.2-.6.5-.8.9v4h-1.1v-6.2h.9l.1 1.4c.2-.4.4-.7.8-1 .3-.3.8-.4 1.3-.5v1.2c-.4-.1-.8 0-1.2.2Zm6 3.7c-.1.1-.2.3-.3.5-.1.2-.3.3-.4.4-.1.1-.4.2-.6.3-.2.1-.5.1-.8.1-.6 0-1-.2-1.4-.5-.3-.3-.5-.8-.5-1.4 0-.7.2-1.2.7-1.5.5-.3 1.2-.5 2-.5h1.2v-.5c0-.4-.1-.7-.3-.9-.2-.2-.6-.3-1.2-.3-.4 0-.7.1-1.1.2-.3.1-.7.3-.9.4v-.9c.2-.1.5-.3.9-.4.4-.1.8-.2 1.3-.2.8 0 1.4.2 1.8.5.4.3.6.8.6 1.5v4.3h-1c0-.1 0-.3-.1-.5v-.5l.1-.1Zm-1.8.3c.3 0 .6-.1.8-.2.2-.1.4-.3.6-.5.1-.2.2-.4.3-.5.1-.2.1-.3.1-.4v-.5h-1.1c-.6 0-1.1.1-1.4.3-.3.2-.4.5-.4.8 0 .3.1.5.3.7.2.3.4.3.8.3Zm7.5-4.5c-.5 0-.9.1-1.2.3-.3.2-.5.5-.7.8v4.2h-1.1v-6.2h1v1.1c.2-.4.4-.7.8-.9.4-.2.8-.3 1.4-.3.6 0 1.1.2 1.5.5.4.3.5.8.5 1.5v4.4h-1.1v-4.3c0-.4-.1-.7-.3-.9-.2-.2-.5-.2-.8-.2Zm5.9 5.5c-.3 0-.6 0-.9-.1-.3-.1-.5-.1-.7-.2-.2-.1-.3-.2-.5-.2s-.2-.2-.3-.2v-1l.3.3c.1.1.3.2.5.3.2.1.4.1.7.2.2.1.5.1.8.1.4 0 .8-.1 1.1-.2.3-.1.4-.4.4-.7 0-.2 0-.3-.1-.4l-.3-.3c-.1-.1-.3-.1-.5-.2s-.4-.1-.6-.1c-.3-.1-.5-.1-.8-.2-.3-.1-.5-.2-.7-.3-.2-.1-.4-.3-.5-.5-.1-.2-.2-.5-.2-.8 0-.6.2-1 .7-1.3.5-.3 1-.5 1.8-.5.4 0 .8 0 1.2.1.3.1.6.2.8.3v.9c-.2-.1-.5-.3-.8-.3-.3-.1-.7-.1-1.1-.1-.5 0-.8.1-1.1.2-.3.1-.4.4-.4.7 0 .2 0 .3.1.4.1.1.2.2.3.2.1.1.3.1.4.1.1 0 .3.1.5.1.3.1.6.1.8.2.3.1.5.2.8.3.3.1.4.3.6.5.1.2.2.5.2.9s-.1.7-.2.9c-.1.2-.3.4-.6.6-.2.1-.5.2-.8.3h-.9Zm5.2-5.5v5.3h-1.1v-5.3h-.8v-.9h.8v-.2c0-.7.2-1.3.6-1.7.4-.4.9-.6 1.6-.6.3 0 .6 0 .8.1v.9c-.1 0-.2-.1-.3-.1h-.4c-.4 0-.7.1-.9.3-.2.2-.3.6-.3 1.1v.2h1.8v.9h-1.8Zm7.8 4.8c-.1.1-.2.1-.3.2-.1.1-.3.1-.5.2s-.4.1-.6.2c-.2 0-.5.1-.8.1-1 0-1.8-.3-2.4-.9-.5-.6-.8-1.4-.8-2.4 0-.5.1-1 .2-1.4.1-.4.4-.7.6-1 .3-.3.6-.5.9-.6.4-.1.8-.2 1.2-.2.4 0 .8.1 1.2.2.4.1.6.4.9.7.3.3.4.7.5 1.1.1.4.1.9 0 1.5h-4.4c0 .7.2 1.2.6 1.5.4.3.9.5 1.6.5.5 0 .9-.1 1.2-.2.3-.1.6-.3.9-.4v.9Zm-2.5-4.8c-.5 0-.8.1-1.2.4-.4.3-.5.7-.6 1.3h3.3c0-.6-.1-1-.4-1.3-.2-.3-.6-.4-1.1-.4Zm5.7.5c-.4.2-.6.5-.8.9v4h-1.1v-6.2h.9l.1 1.4c.2-.4.4-.7.8-1 .3-.3.8-.4 1.3-.5v1.2c-.4-.1-.8 0-1.2.2ZM514 55.4h2.9c.6 0 1.1.1 1.6.2s.9.4 1.3.7c.4.3.7.7.9 1.2.2.5.3 1.1.3 1.9 0 .8-.1 1.4-.3 2-.2.6-.5 1.1-.9 1.4-.4.3-.8.7-1.3.9-.5.2-1.1.3-1.7.3H514v-8.6Zm1.1 1V63h1.6c.4 0 .8-.1 1.2-.2.4-.1.7-.3.9-.6.3-.3.5-.6.6-1.1.1-.4.2-1 .2-1.6 0-.6-.1-1.1-.2-1.5-.1-.4-.3-.7-.6-.9-.3-.2-.6-.4-.9-.5-.4-.1-.7-.1-1.1-.1h-1.7v-.1Zm10.9 6.4c-.1.1-.2.3-.3.5-.1.2-.3.3-.4.4-.1.1-.4.2-.6.3-.2.1-.5.1-.8.1-.6 0-1-.2-1.4-.5-.3-.3-.5-.8-.5-1.4 0-.7.2-1.2.7-1.5.5-.3 1.2-.5 2-.5h1.2v-.5c0-.4-.1-.7-.3-.9-.2-.2-.6-.3-1.2-.3-.4 0-.7.1-1.1.2-.3.1-.7.3-.9.4v-.9c.2-.1.5-.3.9-.4.4-.1.8-.2 1.3-.2.8 0 1.4.2 1.8.5.4.3.6.8.6 1.5v4.3h-1c0-.1 0-.3-.1-.5v-.5l.1-.1Zm-1.9.4c.3 0 .6-.1.8-.2.2-.1.4-.3.6-.5.1-.2.2-.4.3-.5.1-.2.1-.3.1-.4v-.5h-1.1c-.6 0-1.1.1-1.4.3-.3.2-.4.5-.4.8 0 .3.1.5.3.7.2.2.5.3.8.3Zm7.1.9c-.2 0-.4.1-.6.1-.3 0-.6 0-.8-.1-.2-.1-.4-.2-.5-.4-.1-.1-.2-.3-.3-.5-.1-.2-.1-.4-.1-.6v-3.9h-.7v-.9h.7v-1.3h1.1v1.3h1.8v.9H530v3.8c0 .3.1.5.2.6.1.1.4.2.7.2.3 0 .6-.1.9-.3v1c-.2-.1-.4 0-.6.1Zm5.6-1.3c-.1.1-.2.3-.3.5-.1.2-.3.3-.4.4-.1.1-.4.2-.6.3-.2.1-.5.1-.8.1-.6 0-1-.2-1.4-.5-.3-.3-.5-.8-.5-1.4 0-.7.2-1.2.7-1.5.5-.3 1.2-.5 2-.5h1.2v-.5c0-.4-.1-.7-.3-.9-.2-.2-.6-.3-1.2-.3-.4 0-.7.1-1.1.2-.3.1-.7.3-.9.4v-.9c.2-.1.5-.3.9-.4.4-.1.8-.2 1.3-.2.8 0 1.4.2 1.8.5.4.3.6.8.6 1.5v4.3h-1c0-.1 0-.3-.1-.5v-.5l.1-.1Zm-1.9.4c.3 0 .6-.1.8-.2.2-.1.4-.3.6-.5.1-.2.2-.4.3-.5.1-.2.1-.3.1-.4v-.5h-1.1c-.6 0-1.1.1-1.4.3-.3.2-.4.5-.4.8 0 .3.1.5.3.7.2.2.4.3.8.3Zm10 .8h-5.3v-8.6h1.1V63h4.2v1Zm6.2-.5c-.1.1-.2.1-.3.2-.1.1-.3.1-.5.2s-.4.1-.6.2c-.2 0-.5.1-.8.1-1 0-1.8-.3-2.4-.9-.5-.6-.8-1.4-.8-2.4 0-.5.1-1 .2-1.4.1-.4.4-.7.6-1 .3-.3.6-.5.9-.6.4-.1.8-.2 1.2-.2.4 0 .8.1 1.2.2.4.1.6.4.9.7.3.3.4.7.5 1.1.1.4.1.9 0 1.5h-4.4c0 .7.2 1.2.6 1.5.4.3.9.5 1.6.5.5 0 .9-.1 1.2-.2.3-.1.6-.3.9-.4v.9Zm-2.4-4.9c-.5 0-.8.1-1.2.4-.4.3-.5.7-.6 1.3h3.3c0-.6-.1-1-.4-1.3-.3-.3-.7-.4-1.1-.4Zm6.8 0c-.5 0-.9.1-1.2.3-.3.2-.5.5-.7.8v4.2h-1.1v-6.2h1v1.1c.2-.4.4-.7.8-.9.4-.2.8-.3 1.4-.3.6 0 1.1.2 1.5.5.4.3.5.8.5 1.5V64h-1.1v-4.3c0-.4-.1-.7-.3-.9-.1-.1-.4-.2-.8-.2Zm5.9 5.5c-.3 0-.6 0-.9-.1-.3-.1-.5-.1-.7-.2-.2-.1-.3-.2-.5-.2s-.2-.2-.3-.2v-.9l.3.3c.1.1.3.2.5.3.2.1.4.1.7.2.2.1.5.1.8.1.4 0 .8-.1 1.1-.2.3-.1.4-.4.4-.7 0-.2 0-.3-.1-.4l-.3-.3c-.1-.1-.3-.1-.5-.2s-.4-.1-.6-.1c-.3-.1-.5-.1-.8-.2-.3-.1-.5-.2-.7-.3-.2-.1-.4-.3-.5-.5-.1-.2-.2-.5-.2-.8 0-.6.2-1 .7-1.3.5-.3 1-.5 1.8-.5.4 0 .8 0 1.2.1.3.1.6.2.8.3v.9c-.2-.1-.5-.3-.8-.3-.3-.1-.7-.1-1.1-.1-.5 0-.8.1-1.1.2-.3.1-.4.4-.4.7 0 .2 0 .3.1.4.1.1.2.2.3.2.1.1.3.1.4.1.1 0 .3.1.5.1.3.1.6.1.8.2.3.1.5.2.8.3.3.1.4.3.6.5.1.2.2.5.2.9s-.1.7-.2.9c-.1.2-.3.4-.6.6-.2.1-.5.2-.8.3-.3-.1-.6-.1-.9-.1Z"/>
    <path fill="#5282FF" d="M489 44c8.8 0 16 7.2 16 16s-7.2 16-16 16-16-7.2-16-16 7.2-16 16-16Z"/>
    <path fill="#fff" fill-rule="evenodd" d="M493 53h3v13h-3V53Zm-8 3h3v10h-3V56Zm-4 5h3v5h-3v-5Zm11-3h-3v8h3v-8Z" clip-rule="evenodd"/>
    <path fill="#EEF3FE" d="M77 139h114c4.4 0 8 3.6 8 8v44c0 4.4-3.6 8-8 8H77c-4.4 0-8-3.6-8-8v-44c0-4.5 3.6-8 8-8Z"/>
    <path fill="#262626" d="m129.1 171.5 4.7-7.1h1.2v8.6h-1.2v-7.1l-4.7 7.1h-1.2v-8.6h1.1v7.1h.1Zm10.5 1.6c-.5 0-.9-.1-1.3-.2s-.7-.4-1-.6c-.3-.2-.5-.6-.6-1-.1-.4-.2-.9-.2-1.4 0-.5.1-1 .2-1.4.1-.4.4-.7.6-1 .2-.3.6-.5 1-.6.4-.1.8-.2 1.3-.2.4 0 .7 0 1.1.1.3.1.6.2.8.4v.9c-.3-.2-.5-.3-.9-.4-.4-.1-.6-.1-1-.1-.7 0-1.3.2-1.6.6-.3.4-.5 1-.5 1.7s.2 1.4.5 1.7c.3.4.8.6 1.6.6.4 0 .7 0 1-.1.3-.1.6-.2.9-.4v.9c-.2.1-.5.3-.8.3-.3.1-.6.2-1.1.2Zm5.9-5.5v5.3h-1.1v-5.3h-2v-.9h5v.9h-1.9Zm5.6 5.5c-.4 0-.8-.1-1.2-.2-.4-.1-.7-.4-1-.6-.3-.3-.5-.6-.6-1-.1-.4-.2-.9-.2-1.4 0-.5.1-1 .2-1.4.1-.4.4-.7.6-1 .3-.3.6-.5 1-.6.4-.1.8-.2 1.2-.2.4 0 .8.1 1.2.2.4.1.7.4 1 .6.3.3.5.6.6 1 .2.4.2.9.2 1.4 0 .5-.1 1-.2 1.4-.2.4-.4.7-.6 1-.3.3-.6.5-1 .6-.4.1-.8.2-1.2.2Zm0-1c.3 0 .5 0 .8-.1.2-.1.4-.2.6-.4.2-.2.3-.4.4-.7.1-.3.1-.6.1-1s0-.7-.1-1c-.1-.3-.2-.5-.4-.7-.2-.2-.4-.3-.6-.4-.2-.1-.5-.1-.8-.1-.3 0-.5 0-.8.1-.2.1-.4.2-.6.4-.2.2-.3.4-.4.7-.1.3-.1.6-.1 1s0 .7.1 1c.1.3.2.5.4.7.2.2.4.3.6.4.2.1.5.1.8.1Zm8.9.9h-1.1v-2.7c-.2.2-.5.3-.8.4-.3.1-.6.1-1 .1-.7 0-1.2-.2-1.6-.5-.4-.3-.6-.9-.6-1.7v-1.8h1.1v1.8c0 .5.1.8.3 1 .2.2.5.3.9.3.3 0 .6 0 .8-.1.3-.1.5-.2.7-.4v-2.7h1.1v6.3h.2Zm5.8-2.8h-3v2.8h-1.1v-6.2h1.1v2.6h3v-2.6h1.1v6.2h-1.1v-2.8Zm3.8 1.3 3.3-4.8h1.1v6.2h-1.1v-4.8l-3.3 4.8h-1.1v-6.2h1.1v4.8Zm7.8-1.2h-.6v2.7h-1.1v-6.2h1.1v2.7h.6l2.2-2.7h1.2l-2.6 3.1 2.6 3.2h-1.3l-2.1-2.8Z"/>
    <path fill="#5282FF" d="M103 153c8.8 0 16 7.2 16 16s-7.2 16-16 16-16-7.2-16-16c0-8.9 7.2-16 16-16Z"/>
    <path fill="#fff" fill-rule="evenodd" d="M96.4 162.1c-.3.3-.4.6-.4.8 0 .2.1.5.4.8.3.3.8.6 1.4.9 1.3.5 3.1.9 5.2.9 2 0 3.9-.3 5.2-.9.6-.3 1.1-.6 1.4-.9.3-.3.4-.6.4-.8 0-.2-.1-.5-.4-.8-.3-.3-.8-.6-1.4-.9-1.3-.5-3.1-.9-5.2-.9-2 0-3.9.3-5.2.9-.6.3-1.1.6-1.4.9Zm-.9-.9c-.5.5-.8 1-.8 1.7v11.4c0 .7.3 1.2.8 1.7s1.1.8 1.8 1.1c1.5.6 3.5 1 5.6 1 2.2 0 4.2-.4 5.6-1 .7-.3 1.4-.7 1.8-1.1.5-.5.8-1 .8-1.7v-11.4c0-.7-.3-1.2-.8-1.7s-1.1-.8-1.8-1.1c-1.5-.6-3.5-1-5.6-1-2.2 0-4.2.4-5.6 1-.7.3-1.3.7-1.8 1.1Zm14.5 9.5v3.6c0 .2-.1.5-.4.8-.3.3-.8.6-1.4.9-1.3.5-3.1.9-5.2.9-2 0-3.9-.3-5.2-.9-.6-.3-1.1-.6-1.4-.9-.3-.3-.4-.6-.4-.8v-3.6c.4.3.8.5 1.4.7 1.5.6 3.5 1 5.6 1 2.2 0 4.2-.4 5.6-1 .6-.1 1-.4 1.4-.7Zm-14-2.1c0 .2.1.5.4.8.3.3.8.6 1.4.9 1.3.5 3.1.9 5.2.9 2 0 3.9-.3 5.2-.9.6-.3 1.1-.6 1.4-.9.3-.3.4-.6.4-.8V165c-.4.3-.8.5-1.4.7-1.5.6-3.5 1-5.6 1-2.2 0-4.2-.4-5.6-1-.5-.2-1-.5-1.4-.7v3.6Z" clip-rule="evenodd"/>
    <path fill="#EEF3FE" d="M465 138.6h114c4.4 0 8 3.6 8 8v44c0 4.4-3.6 8-8 8H465c-4.4 0-8-3.6-8-8v-44c0-4.5 3.6-8 8-8Z"/>
    <path fill="#262626" d="M514 156.1h6.5v8.6h-1.1v-7.6h-4.2v7.6h-1.1v-8.6h-.1Zm11.5 8.7c-.5 0-.9-.1-1.2-.3-.3-.2-.6-.5-.8-.9v3.3h-1.1v-8.4h.9l.1 1.2c.2-.4.5-.7.8-1 .3-.3.8-.4 1.3-.4.4 0 .7.1 1 .2.3.1.6.3.9.6.3.3.5.6.6 1 .1.4.2.9.2 1.4 0 .6-.1 1-.2 1.4-.2.4-.4.7-.6 1-.3.3-.6.5-.9.6-.3.2-.7.3-1 .3Zm-.2-.9c.6 0 1-.2 1.3-.6.3-.4.5-1 .5-1.7 0-.8-.2-1.3-.5-1.7-.3-.4-.8-.6-1.3-.6-.3 0-.5 0-.8.1-.2.1-.4.2-.6.4-.2.2-.3.4-.4.7-.1.3-.1.6-.1 1s0 .7.1 1c.1.3.2.5.4.7.2.2.4.3.6.4.3.2.6.3.8.3Zm5.3-.7 3.3-4.8h1.1v6.2h-1.1v-4.8l-3.3 4.8h-1.1v-6.2h1.1v4.8Zm11.1 1c-.1.1-.2.1-.3.2-.1.1-.3.1-.5.2s-.4.1-.6.2c-.2 0-.5.1-.8.1-1 0-1.8-.3-2.4-.9-.5-.6-.8-1.4-.8-2.4 0-.5.1-1 .2-1.4.1-.4.4-.7.6-1 .3-.3.6-.5.9-.6.4-.1.8-.2 1.2-.2.4 0 .8.1 1.2.2.4.1.6.4.9.7.3.3.4.7.5 1.1.1.4.1.9 0 1.5h-4.4c0 .7.2 1.2.6 1.5.4.3.9.5 1.6.5.5 0 .9-.1 1.2-.2.3-.1.6-.3.9-.4v.9Zm-2.5-4.9c-.5 0-.8.1-1.2.4-.4.3-.5.7-.6 1.3h3.3c0-.6-.1-1-.4-1.3-.2-.3-.6-.4-1.1-.4Zm9.9.4L547 164h-.8l-2-4.3v5h-1v-6.2h1.6l1.9 4.2 2-4.2h1.5v6.2h-1v-5h-.1Zm6.9 2.2h-3v2.8h-1.1v-6.2h1.1v2.6h3v-2.6h1.1v6.2H556v-2.8Zm3.8 1.3 3.3-4.8h1.1v6.2h-1.1v-4.8l-3.3 4.8h-1.1v-6.2h1.1v4.8Zm7.7-1.2h-.6v2.7h-1.1v-6.2h1.1v2.7h.6l2.2-2.7h1.2l-2.6 3.1 2.6 3.2h-1.3l-2.1-2.8Zm-49.7 17.2c-.6 0-1.2-.1-1.7-.3-.5-.2-1-.5-1.3-.9-.3-.4-.7-.8-.9-1.4-.2-.5-.3-1.2-.3-1.9s.1-1.3.3-1.9c.2-.6.5-1 .8-1.4.4-.4.8-.7 1.3-.9.5-.2 1.1-.3 1.8-.3.6 0 1.1.1 1.5.2.4.1.8.3 1.1.4v1.1c-.4-.2-.8-.4-1.2-.5-.5-.1-.9-.2-1.4-.2-1 0-1.8.3-2.3.8-.5.6-.7 1.4-.7 2.5s.3 2 .8 2.6c.5.6 1.3.8 2.3.8.4 0 .9-.1 1.3-.2s.8-.3 1.2-.6v1.1c-.2.2-.6.4-1 .5-.5.4-1 .5-1.6.5Zm5.2-8.7v8.6h-1.1v-8.6h1.1Zm2.2 1.4c-.2 0-.4-.1-.5-.2-.1-.1-.2-.3-.2-.5s.1-.4.2-.5c.1-.1.3-.2.5-.2s.4.1.5.2c.1.1.2.3.2.5s-.1.4-.2.5c-.1.1-.3.2-.5.2Zm.6.9v6.2h-1.1v-6.2h1.1Zm4.4 6.4c-.5 0-.9-.1-1.3-.2s-.7-.4-1-.6c-.3-.3-.5-.6-.6-1-.1-.4-.2-.9-.2-1.4 0-.5.1-1 .2-1.4.1-.4.4-.7.6-1 .3-.3.6-.5 1-.6.4-.1.8-.2 1.3-.2.4 0 .7 0 1.1.1.3.1.6.2.8.4v.9c-.3-.2-.5-.3-.9-.4-.4-.1-.6-.1-1-.1-.7 0-1.3.2-1.6.6-.3.4-.5 1-.5 1.7 0 .8.2 1.4.5 1.7.3.4.8.6 1.6.6.4 0 .7 0 1-.1.3-.1.6-.2.9-.4v.9c-.2.1-.5.3-.8.3-.4.1-.7.2-1.1.2Zm4.7-2.8h-.6v2.7h-1.1v-8.6h1.1v5.1h.6l2.2-2.7h1.2l-2.6 3.1 2.6 3.2H537l-2.1-2.8Zm10.1-1.1h-4.4v3.8h-1.1v-8.6h1.1v3.8h4.4v-3.8h1.1v8.6H545v-3.8Zm5.5 3.9c-.4 0-.8-.1-1.2-.2-.4-.1-.7-.4-1-.6-.3-.3-.5-.6-.6-1-.2-.4-.2-.9-.2-1.4 0-.5.1-1 .2-1.4.2-.4.4-.7.6-1 .3-.3.6-.5 1-.6.4-.1.8-.2 1.2-.2.4 0 .8.1 1.2.2.4.1.7.4 1 .6.3.3.5.6.6 1 .2.4.2.9.2 1.4 0 .5-.1 1-.2 1.4-.2.4-.4.7-.6 1-.3.3-.6.5-1 .6-.3.1-.7.2-1.2.2Zm0-.9c.3 0 .5 0 .8-.1.3-.1.4-.2.6-.4.2-.2.3-.4.4-.7.1-.3.1-.6.1-1s0-.7-.1-1c-.1-.3-.2-.5-.4-.7-.2-.2-.4-.3-.6-.4-.2-.1-.5-.1-.8-.1-.3 0-.5 0-.8.1-.2.1-.4.2-.6.4-.2.2-.3.4-.4.7-.1.3-.1.6-.1 1s0 .7.1 1c.1.3.2.5.4.7.2.2.4.3.6.4.2.1.6.1.8.1Zm7.6.5c-.3.2-.8.4-1.4.4-.6 0-1-.2-1.4-.5-.4-.3-.5-.8-.5-1.5v-4.4h1.1v4.4c0 .2 0 .4.1.5.1.1.1.2.2.3.1.1.2.1.4.2h.5c.5 0 .8-.1 1.1-.3.3-.2.5-.5.7-.9v-4.2h1.1v6.2h-.9l-.1-1.1c-.3.4-.6.7-.9.9Zm5.5.4c-.3 0-.6 0-.9-.1-.3-.1-.5-.1-.7-.2-.2-.1-.3-.2-.5-.2s-.2-.2-.3-.2v-.9l.3.3c.1.1.3.2.5.3.2.1.4.1.7.2.3.1.5.1.8.1.4 0 .8-.1 1.1-.2.3-.1.4-.4.4-.7 0-.2 0-.3-.1-.4l-.3-.3c-.1-.1-.3-.1-.5-.2s-.4-.1-.6-.1c-.3-.1-.5-.1-.8-.2-.3-.1-.5-.2-.7-.3-.2-.1-.4-.3-.5-.5-.1-.2-.2-.5-.2-.8 0-.6.2-1 .7-1.3.4-.3 1-.5 1.8-.5.4 0 .8 0 1.2.1.3.1.6.2.8.3v.9c-.2-.1-.5-.3-.8-.3-.3-.1-.7-.1-1.1-.1-.5 0-.8.1-1.1.2-.3.1-.4.4-.4.7 0 .2 0 .3.1.4.1.1.2.2.3.2.1.1.3.1.4.1.2 0 .3.1.5.1.3.1.6.1.8.2.3.1.5.2.8.3.2.1.4.3.6.5.1.2.2.5.2.9s-.1.7-.2.9c-.1.2-.3.4-.6.6-.2.1-.5.2-.8.3-.3-.1-.6-.1-.9-.1Zm8.8-.6c-.1.1-.2.1-.3.2-.1.1-.3.1-.5.2s-.4.1-.6.2c-.2.1-.5.1-.8.1-1 0-1.8-.3-2.4-.9-.5-.6-.8-1.4-.8-2.4 0-.5.1-1 .2-1.4.1-.4.4-.7.6-1 .3-.3.6-.5.9-.6.4-.1.8-.2 1.2-.2.4 0 .8.1 1.2.2.4.2.6.4.9.7.2.3.4.7.5 1.1.1.4.1.9 0 1.5h-4.4c0 .7.2 1.2.6 1.5.4.3.9.5 1.6.5.5 0 .9-.1 1.2-.2.3-.1.6-.3.9-.4v.9Zm-2.5-4.9c-.5 0-.8.1-1.2.4-.3.3-.5.7-.6 1.3h3.3c0-.6-.1-1-.4-1.3-.2-.3-.6-.4-1.1-.4Z"/>
    <path fill="#5282FF" d="M489 152.6c8.8 0 16 7.2 16 16s-7.2 16-16 16-16-7.2-16-16c0-8.9 7.2-16 16-16Z"/>
    <path fill="#fff" d="M483.1 159.7h-1.6v15.1h1.6v-15.1Zm4.2 0h-1.6v17.7h1.6v-17.7Zm4.1 0h-1.6v17.7h1.6v-17.7Zm4.1 0h-1.6v17.7h1.6v-17.7Zm4.2 6.1h-1.6v4.3h1.6v-4.3Z"/>
    <path fill="#262626" d="m259 169-5-2.887v5.774l5-2.887Zm-56 .5h51.5v-1H203v1Zm250-.5-5-2.887v5.774l5-2.887Zm-56 .5h51.5v-1H397v1ZM522 77l-2.887 5h5.774L522 77Zm.5 56V81.5h-1V133h1Z"/>
</svg>
