<svg width="650" height="250" viewBox="0 0 650 250" fill="none" xmlns="http://www.w3.org/2000/svg">
<rect width="650" height="250" fill="white"/>
<path d="M270.8 138.6H384.8C389.2 138.6 392.8 142.2 392.8 146.6V190.6C392.8 195 389.2 198.6 384.8 198.6H270.8C266.4 198.6 262.8 195 262.8 190.6V146.6C262.8 142.1 266.4 138.6 270.8 138.6Z" fill="#FFF2BF"/>
<path d="M292.1 164H295C295.6 164 296.1 164.1 296.6 164.2C297.1 164.3 297.5 164.6 297.9 164.9C298.3 165.2 298.6 165.6 298.8 166.1C299 166.6 299.1 167.2 299.1 168C299.1 168.8 299 169.4 298.8 170C298.6 170.6 298.3 171.1 297.9 171.4C297.5 171.7 297.1 172.1 296.6 172.3C296.1 172.5 295.5 172.6 294.9 172.6H292.1V164ZM293.3 165V171.6H294.9C295.3 171.6 295.7 171.5 296.1 171.4C296.5 171.3 296.8 171.1 297 170.8C297.3 170.5 297.5 170.2 297.6 169.7C297.7 169.3 297.8 168.7 297.8 168.1C297.8 167.5 297.7 167 297.6 166.6C297.5 166.2 297.3 165.9 297 165.7C296.7 165.5 296.4 165.3 296.1 165.2C295.7 165.1 295.4 165.1 295 165.1H293.3V165Z" fill="#262626"/>
<path d="M304.1 171.4C304 171.5 303.9 171.7 303.8 171.9C303.7 172.1 303.5 172.2 303.4 172.3C303.3 172.4 303 172.5 302.8 172.6C302.6 172.7 302.3 172.7 302 172.7C301.4 172.7 301 172.5 300.6 172.2C300.3 171.9 300.1 171.4 300.1 170.8C300.1 170.1 300.3 169.6 300.8 169.3C301.3 169 302 168.8 302.8 168.8H304V168.3C304 167.9 303.9 167.6 303.7 167.4C303.5 167.2 303.1 167.1 302.5 167.1C302.1 167.1 301.8 167.2 301.4 167.3C301.1 167.4 300.7 167.6 300.5 167.7V166.8C300.7 166.7 301 166.5 301.4 166.4C301.8 166.3 302.2 166.2 302.7 166.2C303.5 166.2 304.1 166.4 304.5 166.7C304.9 167 305.1 167.5 305.1 168.2V171.5C305.1 171.6 305.1 171.7 305.1 171.7C305.1 171.8 305.1 171.9 305.1 172C305.1 172.1 305.1 172.2 305.1 172.3C305.1 172.4 305.1 172.5 305.1 172.5H304.1C304.1 172.4 304.1 172.2 304 172C304 171.8 304 171.6 304 171.5L304.1 171.4ZM302.2 171.7C302.5 171.7 302.8 171.6 303 171.5C303.2 171.4 303.4 171.2 303.6 171C303.7 170.8 303.8 170.6 303.9 170.5C304 170.3 304 170.2 304 170.1V169.6H303C302.4 169.6 301.9 169.7 301.6 169.9C301.3 170.1 301.2 170.4 301.2 170.7C301.2 171 301.3 171.2 301.5 171.4C301.6 171.7 301.9 171.7 302.2 171.7Z" fill="#262626"/>
<path d="M309.3 172.6C309.1 172.6 308.9 172.7 308.7 172.7C308.4 172.7 308.1 172.7 307.9 172.6C307.7 172.5 307.5 172.4 307.4 172.2C307.3 172.1 307.2 171.9 307.1 171.7C307 171.5 307 171.3 307 171.1V167.2H306.3V166.3H307V165H308.1V166.3H309.9V167.2H308.1V171C308.1 171.3 308.2 171.5 308.3 171.6C308.4 171.7 308.7 171.8 309 171.8C309.3 171.8 309.6 171.7 309.9 171.5V172.5C309.7 172.5 309.5 172.6 309.3 172.6Z" fill="#262626"/>
<path d="M314.9 171.4C314.8 171.5 314.7 171.7 314.6 171.9C314.5 172.1 314.3 172.2 314.2 172.3C314.1 172.4 313.8 172.5 313.6 172.6C313.4 172.7 313.1 172.7 312.8 172.7C312.2 172.7 311.8 172.5 311.4 172.2C311.1 171.9 310.9 171.4 310.9 170.8C310.9 170.1 311.1 169.6 311.6 169.3C312.1 169 312.8 168.8 313.6 168.8H314.8V168.3C314.8 167.9 314.7 167.6 314.5 167.4C314.3 167.2 313.9 167.1 313.3 167.1C312.9 167.1 312.6 167.2 312.2 167.3C311.9 167.4 311.5 167.6 311.3 167.7V166.8C311.5 166.7 311.8 166.5 312.2 166.4C312.6 166.3 313 166.2 313.5 166.2C314.3 166.2 314.9 166.4 315.3 166.7C315.7 167 315.9 167.5 315.9 168.2V171.5C315.9 171.6 315.9 171.7 315.9 171.7C315.9 171.8 315.9 171.9 315.9 172C315.9 172.1 315.9 172.2 315.9 172.3C315.9 172.4 315.9 172.5 315.9 172.5H314.9C314.9 172.4 314.9 172.2 314.8 172C314.8 171.8 314.8 171.6 314.8 171.5L314.9 171.4ZM313 171.7C313.3 171.7 313.6 171.6 313.8 171.5C314 171.4 314.2 171.2 314.4 171C314.5 170.8 314.6 170.6 314.7 170.5C314.8 170.3 314.8 170.2 314.8 170.1V169.6H313.7C313.1 169.6 312.6 169.7 312.3 169.9C312 170.1 311.9 170.4 311.9 170.7C311.9 171 312 171.2 312.2 171.4C312.4 171.7 312.6 171.7 313 171.7Z" fill="#262626"/>
<path d="M323.5 165V172.6H322.4V165H319.7V164H326.1V165H323.5Z" fill="#262626"/>
<path d="M328.5 167.7C328.1 167.9 327.9 168.2 327.7 168.6V172.6H326.6V166.4H327.5L327.6 167.8C327.8 167.4 328 167.1 328.4 166.8C328.7 166.5 329.2 166.4 329.7 166.3V167.5C329.3 167.4 328.9 167.5 328.5 167.7Z" fill="#262626"/>
<path d="M334.5 171.4C334.4 171.5 334.3 171.7 334.2 171.9C334.1 172.1 333.9 172.2 333.8 172.3C333.7 172.4 333.4 172.5 333.2 172.6C333 172.7 332.7 172.7 332.4 172.7C331.8 172.7 331.4 172.5 331 172.2C330.7 171.9 330.5 171.4 330.5 170.8C330.5 170.1 330.7 169.6 331.2 169.3C331.7 169 332.4 168.8 333.2 168.8H334.4V168.3C334.4 167.9 334.3 167.6 334.1 167.4C333.9 167.2 333.5 167.1 332.9 167.1C332.5 167.1 332.2 167.2 331.8 167.3C331.5 167.4 331.1 167.6 330.9 167.7V166.8C331.1 166.7 331.4 166.5 331.8 166.4C332.2 166.3 332.6 166.2 333.1 166.2C333.9 166.2 334.5 166.4 334.9 166.7C335.3 167 335.5 167.5 335.5 168.2V171.5C335.5 171.6 335.5 171.7 335.5 171.7C335.5 171.8 335.5 171.9 335.5 172C335.5 172.1 335.5 172.2 335.5 172.3C335.5 172.4 335.5 172.5 335.5 172.5H334.5C334.5 172.4 334.5 172.2 334.4 172C334.4 171.8 334.4 171.6 334.4 171.5L334.5 171.4ZM332.7 171.7C333 171.7 333.3 171.6 333.5 171.5C333.7 171.4 333.9 171.2 334.1 171C334.2 170.8 334.3 170.6 334.4 170.5C334.5 170.3 334.5 170.2 334.5 170.1V169.6H333.4C332.8 169.6 332.3 169.7 332 169.9C331.7 170.1 331.6 170.4 331.6 170.7C331.6 171 331.7 171.2 331.9 171.4C332.1 171.7 332.3 171.7 332.7 171.7Z" fill="#262626"/>
<path d="M340.2 167.2C339.7 167.2 339.3 167.3 339 167.5C338.7 167.7 338.5 168 338.3 168.3V172.5H337.2V166.3H338.2V167.4C338.4 167 338.6 166.7 339 166.5C339.4 166.3 339.8 166.2 340.4 166.2C341 166.2 341.5 166.4 341.9 166.7C342.3 167 342.4 167.5 342.4 168.2V172.6H341.3V168.3C341.3 167.9 341.2 167.6 341 167.4C340.8 167.2 340.5 167.2 340.2 167.2Z" fill="#262626"/>
<path d="M346.1 172.7C345.8 172.7 345.5 172.7 345.2 172.6C344.9 172.5 344.7 172.5 344.5 172.4C344.3 172.3 344.2 172.2 344 172.2C343.8 172.2 343.8 172 343.7 172V171C343.8 171.1 343.9 171.2 344 171.3C344.1 171.4 344.3 171.5 344.5 171.6C344.7 171.7 344.9 171.7 345.2 171.8C345.4 171.9 345.7 171.9 346 171.9C346.4 171.9 346.8 171.8 347.1 171.7C347.4 171.6 347.5 171.3 347.5 171C347.5 170.8 347.5 170.7 347.4 170.6C347.3 170.5 347.2 170.4 347.1 170.3C347 170.2 346.8 170.2 346.6 170.1C346.4 170 346.2 170 346 170C345.7 169.9 345.5 169.9 345.2 169.8C344.9 169.7 344.7 169.6 344.5 169.5C344.3 169.4 344.1 169.2 344 169C343.9 168.8 343.8 168.5 343.8 168.2C343.8 167.6 344 167.2 344.5 166.9C345 166.6 345.5 166.4 346.3 166.4C346.7 166.4 347.1 166.4 347.5 166.5C347.8 166.6 348.1 166.7 348.3 166.8V167.7C348.1 167.6 347.8 167.4 347.5 167.4C347.2 167.3 346.8 167.3 346.4 167.3C345.9 167.3 345.6 167.4 345.3 167.5C345 167.6 344.9 167.9 344.9 168.2C344.9 168.4 344.9 168.5 345 168.6C345.1 168.7 345.2 168.8 345.3 168.8C345.4 168.9 345.6 168.9 345.7 168.9C345.8 168.9 346 169 346.2 169C346.5 169.1 346.8 169.1 347 169.2C347.3 169.3 347.5 169.4 347.8 169.5C348.1 169.6 348.2 169.8 348.4 170C348.5 170.2 348.6 170.5 348.6 170.9C348.6 171.3 348.5 171.6 348.4 171.8C348.3 172 348.1 172.2 347.8 172.4C347.6 172.5 347.3 172.6 347 172.7C346.7 172.7 346.4 172.7 346.1 172.7Z" fill="#262626"/>
<path d="M351.3 167.2V172.5H350.2V167.2H349.4V166.3H350.2V166.1C350.2 165.4 350.4 164.8 350.8 164.4C351.2 164 351.7 163.8 352.4 163.8C352.7 163.8 353 163.8 353.2 163.9V164.8C353.1 164.8 353 164.7 352.9 164.7C352.8 164.7 352.6 164.7 352.5 164.7C352.1 164.7 351.8 164.8 351.6 165C351.4 165.2 351.3 165.6 351.3 166.1V166.3H353.1V167.2H351.3Z" fill="#262626"/>
<path d="M359.1 172C359 172.1 358.9 172.1 358.8 172.2C358.7 172.3 358.5 172.3 358.3 172.4C358.1 172.5 357.9 172.5 357.7 172.6C357.5 172.6 357.2 172.7 356.9 172.7C355.9 172.7 355.1 172.4 354.5 171.8C354 171.2 353.7 170.4 353.7 169.4C353.7 168.9 353.8 168.4 353.9 168C354 167.6 354.3 167.3 354.5 167C354.8 166.7 355.1 166.5 355.4 166.4C355.8 166.3 356.2 166.2 356.6 166.2C357 166.2 357.4 166.3 357.8 166.4C358.2 166.5 358.4 166.8 358.7 167.1C359 167.4 359.1 167.8 359.2 168.2C359.3 168.6 359.3 169.1 359.2 169.7H354.8C354.8 170.4 355 170.9 355.4 171.2C355.8 171.5 356.3 171.7 357 171.7C357.5 171.7 357.9 171.6 358.2 171.5C358.5 171.4 358.8 171.2 359.1 171.1V172ZM356.6 167.2C356.1 167.2 355.8 167.3 355.4 167.6C355 167.9 354.9 168.3 354.8 168.9H358.1C358.1 168.3 358 167.9 357.7 167.6C357.5 167.3 357.1 167.2 356.6 167.2Z" fill="#262626"/>
<path d="M362.3 167.7C361.9 167.9 361.7 168.2 361.5 168.6V172.6H360.4V166.4H361.3L361.4 167.8C361.6 167.4 361.8 167.1 362.2 166.8C362.5 166.5 363 166.4 363.5 166.3V167.5C363.1 167.4 362.7 167.5 362.3 167.7Z" fill="#262626"/>
<path d="M514 55.4H516.9C517.5 55.4 518 55.5 518.5 55.6C519 55.7 519.4 56 519.8 56.3C520.2 56.6 520.5 57 520.7 57.5C520.9 58 521 58.6 521 59.4C521 60.2 520.9 60.8 520.7 61.4C520.5 62 520.2 62.5 519.8 62.8C519.4 63.1 519 63.5 518.5 63.7C518 63.9 517.4 64 516.8 64H514V55.4ZM515.1 56.4V63H516.7C517.1 63 517.5 62.9 517.9 62.8C518.3 62.7 518.6 62.5 518.8 62.2C519.1 61.9 519.3 61.6 519.4 61.1C519.5 60.7 519.6 60.1 519.6 59.5C519.6 58.9 519.5 58.4 519.4 58C519.3 57.6 519.1 57.3 518.8 57.1C518.5 56.9 518.2 56.7 517.9 56.6C517.5 56.5 517.2 56.5 516.8 56.5H515.1V56.4Z" fill="#262626"/>
<path d="M526 62.8C525.9 62.9 525.8 63.1 525.7 63.3C525.6 63.5 525.4 63.6 525.3 63.7C525.2 63.8 524.9 63.9 524.7 64C524.5 64.1 524.2 64.1 523.9 64.1C523.3 64.1 522.9 63.9 522.5 63.6C522.2 63.3 522 62.8 522 62.2C522 61.5 522.2 61 522.7 60.7C523.2 60.4 523.9 60.2 524.7 60.2H525.9V59.7C525.9 59.3 525.8 59 525.6 58.8C525.4 58.6 525 58.5 524.4 58.5C524 58.5 523.7 58.6 523.3 58.7C523 58.8 522.6 59 522.4 59.1V58.2C522.6 58.1 522.9 57.9 523.3 57.8C523.7 57.7 524.1 57.6 524.6 57.6C525.4 57.6 526 57.8 526.4 58.1C526.8 58.4 527 58.9 527 59.6V62.9C527 63 527 63.1 527 63.1C527 63.2 527 63.3 527 63.4C527 63.5 527 63.6 527 63.7C527 63.8 527 63.9 527 63.9H526C526 63.8 526 63.6 525.9 63.4C525.9 63.2 525.9 63 525.9 62.9L526 62.8ZM524.1 63.2C524.4 63.2 524.7 63.1 524.9 63C525.1 62.9 525.3 62.7 525.5 62.5C525.6 62.3 525.7 62.1 525.8 62C525.9 61.8 525.9 61.7 525.9 61.6V61.1H524.8C524.2 61.1 523.7 61.2 523.4 61.4C523.1 61.6 523 61.9 523 62.2C523 62.5 523.1 62.7 523.3 62.9C523.5 63.1 523.8 63.2 524.1 63.2Z" fill="#262626"/>
<path d="M531.2 64.1C531 64.1 530.8 64.2 530.6 64.2C530.3 64.2 530 64.2 529.8 64.1C529.6 64 529.4 63.9 529.3 63.7C529.2 63.6 529.1 63.4 529 63.2C528.9 63 528.9 62.8 528.9 62.6V58.7H528.2V57.8H528.9V56.5H530V57.8H531.8V58.7H530V62.5C530 62.8 530.1 63 530.2 63.1C530.3 63.2 530.6 63.3 530.9 63.3C531.2 63.3 531.5 63.2 531.8 63V64C531.6 63.9 531.4 64 531.2 64.1Z" fill="#262626"/>
<path d="M536.8 62.8C536.7 62.9 536.6 63.1 536.5 63.3C536.4 63.5 536.2 63.6 536.1 63.7C536 63.8 535.7 63.9 535.5 64C535.3 64.1 535 64.1 534.7 64.1C534.1 64.1 533.7 63.9 533.3 63.6C533 63.3 532.8 62.8 532.8 62.2C532.8 61.5 533 61 533.5 60.7C534 60.4 534.7 60.2 535.5 60.2H536.7V59.7C536.7 59.3 536.6 59 536.4 58.8C536.2 58.6 535.8 58.5 535.2 58.5C534.8 58.5 534.5 58.6 534.1 58.7C533.8 58.8 533.4 59 533.2 59.1V58.2C533.4 58.1 533.7 57.9 534.1 57.8C534.5 57.7 534.9 57.6 535.4 57.6C536.2 57.6 536.8 57.8 537.2 58.1C537.6 58.4 537.8 58.9 537.8 59.6V62.9C537.8 63 537.8 63.1 537.8 63.1C537.8 63.2 537.8 63.3 537.8 63.4C537.8 63.5 537.8 63.6 537.8 63.7C537.8 63.8 537.8 63.9 537.8 63.9H536.8C536.8 63.8 536.8 63.6 536.7 63.4C536.7 63.2 536.7 63 536.7 62.9L536.8 62.8ZM534.9 63.2C535.2 63.2 535.5 63.1 535.7 63C535.9 62.9 536.1 62.7 536.3 62.5C536.4 62.3 536.5 62.1 536.6 62C536.7 61.8 536.7 61.7 536.7 61.6V61.1H535.6C535 61.1 534.5 61.2 534.2 61.4C533.9 61.6 533.8 61.9 533.8 62.2C533.8 62.5 533.9 62.7 534.1 62.9C534.3 63.1 534.5 63.2 534.9 63.2Z" fill="#262626"/>
<path d="M544.9 64H539.6V55.4H540.7V63H544.9V64Z" fill="#262626"/>
<path d="M551.1 63.5C551 63.6 550.9 63.6 550.8 63.7C550.7 63.8 550.5 63.8 550.3 63.9C550.1 64 549.9 64 549.7 64.1C549.5 64.1 549.2 64.2 548.9 64.2C547.9 64.2 547.1 63.9 546.5 63.3C546 62.7 545.7 61.9 545.7 60.9C545.7 60.4 545.8 59.9 545.9 59.5C546 59.1 546.3 58.8 546.5 58.5C546.8 58.2 547.1 58 547.4 57.9C547.8 57.8 548.2 57.7 548.6 57.7C549 57.7 549.4 57.8 549.8 57.9C550.2 58 550.4 58.3 550.7 58.6C551 58.9 551.1 59.3 551.2 59.7C551.3 60.1 551.3 60.6 551.2 61.2H546.8C546.8 61.9 547 62.4 547.4 62.7C547.8 63 548.3 63.2 549 63.2C549.5 63.2 549.9 63.1 550.2 63C550.5 62.9 550.8 62.7 551.1 62.6V63.5ZM548.7 58.6C548.2 58.6 547.9 58.7 547.5 59C547.1 59.3 547 59.7 546.9 60.3H550.2C550.2 59.7 550.1 59.3 549.8 59C549.5 58.7 549.1 58.6 548.7 58.6Z" fill="#262626"/>
<path d="M555.5 58.6C555 58.6 554.6 58.7 554.3 58.9C554 59.1 553.8 59.4 553.6 59.7V63.9H552.5V57.7H553.5V58.8C553.7 58.4 553.9 58.1 554.3 57.9C554.7 57.7 555.1 57.6 555.7 57.6C556.3 57.6 556.8 57.8 557.2 58.1C557.6 58.4 557.7 58.9 557.7 59.6V64H556.6V59.7C556.6 59.3 556.5 59 556.3 58.8C556.2 58.7 555.9 58.6 555.5 58.6Z" fill="#262626"/>
<path d="M561.4 64.1C561.1 64.1 560.8 64.1 560.5 64C560.2 63.9 560 63.9 559.8 63.8C559.6 63.7 559.5 63.6 559.3 63.6C559.1 63.6 559.1 63.4 559 63.4V62.5C559.1 62.6 559.2 62.7 559.3 62.8C559.4 62.9 559.6 63 559.8 63.1C560 63.2 560.2 63.2 560.5 63.3C560.7 63.4 561 63.4 561.3 63.4C561.7 63.4 562.1 63.3 562.4 63.2C562.7 63.1 562.8 62.8 562.8 62.5C562.8 62.3 562.8 62.2 562.7 62.1C562.6 62 562.5 61.9 562.4 61.8C562.3 61.7 562.1 61.7 561.9 61.6C561.7 61.5 561.5 61.5 561.3 61.5C561 61.4 560.8 61.4 560.5 61.3C560.2 61.2 560 61.1 559.8 61C559.6 60.9 559.4 60.7 559.3 60.5C559.2 60.3 559.1 60 559.1 59.7C559.1 59.1 559.3 58.7 559.8 58.4C560.3 58.1 560.8 57.9 561.6 57.9C562 57.9 562.4 57.9 562.8 58C563.1 58.1 563.4 58.2 563.6 58.3V59.2C563.4 59.1 563.1 58.9 562.8 58.9C562.5 58.8 562.1 58.8 561.7 58.8C561.2 58.8 560.9 58.9 560.6 59C560.3 59.1 560.2 59.4 560.2 59.7C560.2 59.9 560.2 60 560.3 60.1C560.4 60.2 560.5 60.3 560.6 60.3C560.7 60.4 560.9 60.4 561 60.4C561.1 60.4 561.3 60.5 561.5 60.5C561.8 60.6 562.1 60.6 562.3 60.7C562.6 60.8 562.8 60.9 563.1 61C563.4 61.1 563.5 61.3 563.7 61.5C563.8 61.7 563.9 62 563.9 62.4C563.9 62.8 563.8 63.1 563.7 63.3C563.6 63.5 563.4 63.7 563.1 63.9C562.9 64 562.6 64.1 562.3 64.2C562 64.1 561.7 64.1 561.4 64.1Z" fill="#262626"/>
<path d="M489 44C497.8 44 505 51.2 505 60C505 68.8 497.8 76 489 76C480.2 76 473 68.8 473 60C473 51.2 480.2 44 489 44Z" fill="#5282FF"/>
<path fill-rule="evenodd" clip-rule="evenodd" d="M493 53H496V66H493V53ZM485 56H488V66H485V56ZM481 61H484V66H481V61ZM492 58H489V66H492V58Z" fill="white"/>
<path d="M77 139H191C195.4 139 199 142.6 199 147V191C199 195.4 195.4 199 191 199H77C72.6 199 69 195.4 69 191V147C69 142.5 72.6 139 77 139Z" fill="#EEF3FE"/>
<path d="M129.1 171.5L133.8 164.4H135V173H133.8V165.9L129.1 173H127.9V164.4H129V171.5H129.1Z" fill="#262626"/>
<path d="M139.6 173.1C139.1 173.1 138.7 173 138.3 172.9C137.9 172.8 137.6 172.5 137.3 172.3C137 172.1 136.8 171.7 136.7 171.3C136.6 170.9 136.5 170.4 136.5 169.9C136.5 169.4 136.6 168.9 136.7 168.5C136.8 168.1 137.1 167.8 137.3 167.5C137.5 167.2 137.9 167 138.3 166.9C138.7 166.8 139.1 166.7 139.6 166.7C140 166.7 140.3 166.7 140.7 166.8C141 166.9 141.3 167 141.5 167.2V168.1C141.2 167.9 141 167.8 140.6 167.7C140.2 167.6 140 167.6 139.6 167.6C138.9 167.6 138.3 167.8 138 168.2C137.7 168.6 137.5 169.2 137.5 169.9C137.5 170.6 137.7 171.3 138 171.6C138.3 172 138.8 172.2 139.6 172.2C140 172.2 140.3 172.2 140.6 172.1C140.9 172 141.2 171.9 141.5 171.7V172.6C141.3 172.7 141 172.9 140.7 172.9C140.4 173 140.1 173.1 139.6 173.1Z" fill="#262626"/>
<path d="M145.5 167.6V172.9H144.4V167.6H142.4V166.7H147.4V167.6H145.5Z" fill="#262626"/>
<path d="M151.1 173.1C150.7 173.1 150.3 173 149.9 172.9C149.5 172.8 149.2 172.5 148.9 172.3C148.6 172 148.4 171.7 148.3 171.3C148.2 170.9 148.1 170.4 148.1 169.9C148.1 169.4 148.2 168.9 148.3 168.5C148.4 168.1 148.7 167.8 148.9 167.5C149.2 167.2 149.5 167 149.9 166.9C150.3 166.8 150.7 166.7 151.1 166.7C151.5 166.7 151.9 166.8 152.3 166.9C152.7 167 153 167.3 153.3 167.5C153.6 167.8 153.8 168.1 153.9 168.5C154.1 168.9 154.1 169.4 154.1 169.9C154.1 170.4 154 170.9 153.9 171.3C153.7 171.7 153.5 172 153.3 172.3C153 172.6 152.7 172.8 152.3 172.9C151.9 173 151.5 173.1 151.1 173.1ZM151.1 172.1C151.4 172.1 151.6 172.1 151.9 172C152.1 171.9 152.3 171.8 152.5 171.6C152.7 171.4 152.8 171.2 152.9 170.9C153 170.6 153 170.3 153 169.9C153 169.5 153 169.2 152.9 168.9C152.8 168.6 152.7 168.4 152.5 168.2C152.3 168 152.1 167.9 151.9 167.8C151.7 167.7 151.4 167.7 151.1 167.7C150.8 167.7 150.6 167.7 150.3 167.8C150.1 167.9 149.9 168 149.7 168.2C149.5 168.4 149.4 168.6 149.3 168.9C149.2 169.2 149.2 169.5 149.2 169.9C149.2 170.3 149.2 170.6 149.3 170.9C149.4 171.2 149.5 171.4 149.7 171.6C149.9 171.8 150.1 171.9 150.3 172C150.5 172.1 150.8 172.1 151.1 172.1Z" fill="#262626"/>
<path d="M160 173H158.9V170.3C158.7 170.5 158.4 170.6 158.1 170.7C157.8 170.8 157.5 170.8 157.1 170.8C156.4 170.8 155.9 170.6 155.5 170.3C155.1 170 154.9 169.4 154.9 168.6V166.8H156V168.6C156 169.1 156.1 169.4 156.3 169.6C156.5 169.8 156.8 169.9 157.2 169.9C157.5 169.9 157.8 169.9 158 169.8C158.3 169.7 158.5 169.6 158.7 169.4V166.7H159.8V173H160Z" fill="#262626"/>
<path d="M165.8 170.2H162.8V173H161.7V166.8H162.8V169.4H165.8V166.8H166.9V173H165.8V170.2Z" fill="#262626"/>
<path d="M169.6 171.5L172.9 166.7H174V172.9H172.9V168.1L169.6 172.9H168.5V166.7H169.6V171.5Z" fill="#262626"/>
<path d="M177.4 170.3H176.8V173H175.7V166.8H176.8V169.5H177.4L179.6 166.8H180.8L178.2 169.9L180.8 173.1H179.5L177.4 170.3Z" fill="#262626"/>
<path d="M103 153C111.8 153 119 160.2 119 169C119 177.8 111.8 185 103 185C94.2 185 87 177.8 87 169C87 160.1 94.2 153 103 153Z" fill="#5282FF"/>
<path fill-rule="evenodd" clip-rule="evenodd" d="M96.4 162.1C96.1 162.4 96 162.7 96 162.9C96 163.1 96.1 163.4 96.4 163.7C96.7 164 97.2 164.3 97.8 164.6C99.1 165.1 100.9 165.5 103 165.5C105 165.5 106.9 165.2 108.2 164.6C108.8 164.3 109.3 164 109.6 163.7C109.9 163.4 110 163.1 110 162.9C110 162.7 109.9 162.4 109.6 162.1C109.3 161.8 108.8 161.5 108.2 161.2C106.9 160.7 105.1 160.3 103 160.3C101 160.3 99.1 160.6 97.8 161.2C97.2 161.5 96.7 161.8 96.4 162.1ZM95.5 161.2C95 161.7 94.7 162.2 94.7 162.9V168.6V174.3C94.7 175 95 175.5 95.5 176C96 176.5 96.6 176.8 97.3 177.1C98.8 177.7 100.8 178.1 102.9 178.1C105.1 178.1 107.1 177.7 108.5 177.1C109.2 176.8 109.9 176.4 110.3 176C110.8 175.5 111.1 175 111.1 174.3V168.6V162.9C111.1 162.2 110.8 161.7 110.3 161.2C109.8 160.7 109.2 160.4 108.5 160.1C107 159.5 105 159.1 102.9 159.1C100.7 159.1 98.7 159.5 97.3 160.1C96.6 160.4 96 160.8 95.5 161.2ZM110 170.7V174.3C110 174.5 109.9 174.8 109.6 175.1C109.3 175.4 108.8 175.7 108.2 176C106.9 176.5 105.1 176.9 103 176.9C101 176.9 99.1 176.6 97.8 176C97.2 175.7 96.7 175.4 96.4 175.1C96.1 174.8 96 174.5 96 174.3V170.7C96.4 171 96.8 171.2 97.4 171.4C98.9 172 100.9 172.4 103 172.4C105.2 172.4 107.2 172 108.6 171.4C109.2 171.3 109.6 171 110 170.7ZM96 168.6C96 168.8 96.1 169.1 96.4 169.4C96.7 169.7 97.2 170 97.8 170.3C99.1 170.8 100.9 171.2 103 171.2C105 171.2 106.9 170.9 108.2 170.3C108.8 170 109.3 169.7 109.6 169.4C109.9 169.1 110 168.8 110 168.6V165C109.6 165.3 109.2 165.5 108.6 165.7C107.1 166.3 105.1 166.7 103 166.7C100.8 166.7 98.8 166.3 97.4 165.7C96.9 165.5 96.4 165.2 96 165V168.6Z" fill="white"/>
<path d="M465 138.6H579C583.4 138.6 587 142.2 587 146.6V190.6C587 195 583.4 198.6 579 198.6H465C460.6 198.6 457 195 457 190.6V146.6C457 142.1 460.6 138.6 465 138.6Z" fill="#EEF3FE"/>
<path d="M514 156.1H520.5V164.7H519.4V157.1H515.2V164.7H514.1V156.1H514Z" fill="#262626"/>
<path d="M525.5 164.8C525 164.8 524.6 164.7 524.3 164.5C524 164.3 523.7 164 523.5 163.6V166.9H522.4V158.5H523.3L523.4 159.7C523.6 159.3 523.9 159 524.2 158.7C524.5 158.4 525 158.3 525.5 158.3C525.9 158.3 526.2 158.4 526.5 158.5C526.8 158.6 527.1 158.8 527.4 159.1C527.7 159.4 527.9 159.7 528 160.1C528.1 160.5 528.2 161 528.2 161.5C528.2 162.1 528.1 162.5 528 162.9C527.8 163.3 527.6 163.6 527.4 163.9C527.1 164.2 526.8 164.4 526.5 164.5C526.2 164.7 525.8 164.8 525.5 164.8ZM525.3 163.9C525.9 163.9 526.3 163.7 526.6 163.3C526.9 162.9 527.1 162.3 527.1 161.6C527.1 160.8 526.9 160.3 526.6 159.9C526.3 159.5 525.8 159.3 525.3 159.3C525 159.3 524.8 159.3 524.5 159.4C524.3 159.5 524.1 159.6 523.9 159.8C523.7 160 523.6 160.2 523.5 160.5C523.4 160.8 523.4 161.1 523.4 161.5C523.4 161.9 523.4 162.2 523.5 162.5C523.6 162.8 523.7 163 523.9 163.2C524.1 163.4 524.3 163.5 524.5 163.6C524.8 163.8 525.1 163.9 525.3 163.9Z" fill="#262626"/>
<path d="M530.6 163.2L533.9 158.4H535V164.6H533.9V159.8L530.6 164.6H529.5V158.4H530.6V163.2Z" fill="#262626"/>
<path d="M541.7 164.2C541.6 164.3 541.5 164.3 541.4 164.4C541.3 164.5 541.1 164.5 540.9 164.6C540.7 164.7 540.5 164.7 540.3 164.8C540.1 164.8 539.8 164.9 539.5 164.9C538.5 164.9 537.7 164.6 537.1 164C536.6 163.4 536.3 162.6 536.3 161.6C536.3 161.1 536.4 160.6 536.5 160.2C536.6 159.8 536.9 159.5 537.1 159.2C537.4 158.9 537.7 158.7 538 158.6C538.4 158.5 538.8 158.4 539.2 158.4C539.6 158.4 540 158.5 540.4 158.6C540.8 158.7 541 159 541.3 159.3C541.6 159.6 541.7 160 541.8 160.4C541.9 160.8 541.9 161.3 541.8 161.9H537.4C537.4 162.6 537.6 163.1 538 163.4C538.4 163.7 538.9 163.9 539.6 163.9C540.1 163.9 540.5 163.8 540.8 163.7C541.1 163.6 541.4 163.4 541.7 163.3V164.2ZM539.2 159.3C538.7 159.3 538.4 159.4 538 159.7C537.6 160 537.5 160.4 537.4 161H540.7C540.7 160.4 540.6 160 540.3 159.7C540.1 159.4 539.7 159.3 539.2 159.3Z" fill="#262626"/>
<path d="M549.1 159.7L547 164H546.2L544.2 159.7V164.7H543.2V158.5H544.8L546.7 162.7L548.7 158.5H550.2V164.7H549.2V159.7H549.1Z" fill="#262626"/>
<path d="M556 161.9H553V164.7H551.9V158.5H553V161.1H556V158.5H557.1V164.7H556V161.9Z" fill="#262626"/>
<path d="M559.8 163.2L563.1 158.4H564.2V164.6H563.1V159.8L559.8 164.6H558.7V158.4H559.8V163.2Z" fill="#262626"/>
<path d="M567.5 162H566.9V164.7H565.8V158.5H566.9V161.2H567.5L569.7 158.5H570.9L568.3 161.6L570.9 164.8H569.6L567.5 162Z" fill="#262626"/>
<path d="M517.8 179.2C517.2 179.2 516.6 179.1 516.1 178.9C515.6 178.7 515.1 178.4 514.8 178C514.5 177.6 514.1 177.2 513.9 176.6C513.7 176.1 513.6 175.4 513.6 174.7C513.6 174 513.7 173.4 513.9 172.8C514.1 172.2 514.4 171.8 514.7 171.4C515.1 171 515.5 170.7 516 170.5C516.5 170.3 517.1 170.2 517.8 170.2C518.4 170.2 518.9 170.3 519.3 170.4C519.7 170.5 520.1 170.7 520.4 170.8V171.9C520 171.7 519.6 171.5 519.2 171.4C518.7 171.3 518.3 171.2 517.8 171.2C516.8 171.2 516 171.5 515.5 172C515 172.6 514.8 173.4 514.8 174.5C514.8 175.6 515.1 176.5 515.6 177.1C516.1 177.7 516.9 177.9 517.9 177.9C518.3 177.9 518.8 177.8 519.2 177.7C519.6 177.6 520 177.4 520.4 177.1V178.2C520.2 178.4 519.8 178.6 519.4 178.7C518.9 179.1 518.4 179.2 517.8 179.2Z" fill="#262626"/>
<path d="M523 170.5V179.1H521.9V170.5H523Z" fill="#262626"/>
<path d="M525.2 171.9C525 171.9 524.8 171.8 524.7 171.7C524.6 171.6 524.5 171.4 524.5 171.2C524.5 171 524.6 170.8 524.7 170.7C524.8 170.6 525 170.5 525.2 170.5C525.4 170.5 525.6 170.6 525.7 170.7C525.8 170.8 525.9 171 525.9 171.2C525.9 171.4 525.8 171.6 525.7 171.7C525.6 171.8 525.4 171.9 525.2 171.9ZM525.8 172.8V179H524.7V172.8H525.8Z" fill="#262626"/>
<path d="M530.2 179.2C529.7 179.2 529.3 179.1 528.9 179C528.5 178.9 528.2 178.6 527.9 178.4C527.6 178.1 527.4 177.8 527.3 177.4C527.2 177 527.1 176.5 527.1 176C527.1 175.5 527.2 175 527.3 174.6C527.4 174.2 527.7 173.9 527.9 173.6C528.2 173.3 528.5 173.1 528.9 173C529.3 172.9 529.7 172.8 530.2 172.8C530.6 172.8 530.9 172.8 531.3 172.9C531.6 173 531.9 173.1 532.1 173.3V174.2C531.8 174 531.6 173.9 531.2 173.8C530.8 173.7 530.6 173.7 530.2 173.7C529.5 173.7 528.9 173.9 528.6 174.3C528.3 174.7 528.1 175.3 528.1 176C528.1 176.8 528.3 177.4 528.6 177.7C528.9 178.1 529.4 178.3 530.2 178.3C530.6 178.3 530.9 178.3 531.2 178.2C531.5 178.1 531.8 178 532.1 177.8V178.7C531.9 178.8 531.6 179 531.3 179C530.9 179.1 530.6 179.2 530.2 179.2Z" fill="#262626"/>
<path d="M534.9 176.4H534.3V179.1H533.2V170.5H534.3V175.6H534.9L537.1 172.9H538.3L535.7 176L538.3 179.2H537L534.9 176.4Z" fill="#262626"/>
<path d="M545 175.3H540.6V179.1H539.5V170.5H540.6V174.3H545V170.5H546.1V179.1H545V175.3Z" fill="#262626"/>
<path d="M550.5 179.2C550.1 179.2 549.7 179.1 549.3 179C548.9 178.9 548.6 178.6 548.3 178.4C548 178.1 547.8 177.8 547.7 177.4C547.5 177 547.5 176.5 547.5 176C547.5 175.5 547.6 175 547.7 174.6C547.9 174.2 548.1 173.9 548.3 173.6C548.6 173.3 548.9 173.1 549.3 173C549.7 172.9 550.1 172.8 550.5 172.8C550.9 172.8 551.3 172.9 551.7 173C552.1 173.1 552.4 173.4 552.7 173.6C553 173.9 553.2 174.2 553.3 174.6C553.5 175 553.5 175.5 553.5 176C553.5 176.5 553.4 177 553.3 177.4C553.1 177.8 552.9 178.1 552.7 178.4C552.4 178.7 552.1 178.9 551.7 179C551.4 179.1 551 179.2 550.5 179.2ZM550.5 178.3C550.8 178.3 551 178.3 551.3 178.2C551.6 178.1 551.7 178 551.9 177.8C552.1 177.6 552.2 177.4 552.3 177.1C552.4 176.8 552.4 176.5 552.4 176.1C552.4 175.7 552.4 175.4 552.3 175.1C552.2 174.8 552.1 174.6 551.9 174.4C551.7 174.2 551.5 174.1 551.3 174C551.1 173.9 550.8 173.9 550.5 173.9C550.2 173.9 550 173.9 549.7 174C549.5 174.1 549.3 174.2 549.1 174.4C548.9 174.6 548.8 174.8 548.7 175.1C548.6 175.4 548.6 175.7 548.6 176.1C548.6 176.5 548.6 176.8 548.7 177.1C548.8 177.4 548.9 177.6 549.1 177.8C549.3 178 549.5 178.1 549.7 178.2C549.9 178.3 550.3 178.3 550.5 178.3Z" fill="#262626"/>
<path d="M558.1 178.8C557.8 179 557.3 179.2 556.7 179.2C556.1 179.2 555.7 179 555.3 178.7C554.9 178.4 554.8 177.9 554.8 177.2V172.8H555.9V177.2C555.9 177.4 555.9 177.6 556 177.7C556.1 177.8 556.1 177.9 556.2 178C556.3 178.1 556.4 178.1 556.6 178.2C556.7 178.2 556.9 178.2 557.1 178.2C557.6 178.2 557.9 178.1 558.2 177.9C558.5 177.7 558.7 177.4 558.9 177V172.8H560V179H559.1L559 177.9C558.7 178.3 558.4 178.6 558.1 178.8Z" fill="#262626"/>
<path d="M563.6 179.2C563.3 179.2 563 179.2 562.7 179.1C562.4 179 562.2 179 562 178.9C561.8 178.8 561.7 178.7 561.5 178.7C561.3 178.7 561.3 178.5 561.2 178.5V177.6C561.3 177.7 561.4 177.8 561.5 177.9C561.6 178 561.8 178.1 562 178.2C562.2 178.3 562.4 178.3 562.7 178.4C563 178.5 563.2 178.5 563.5 178.5C563.9 178.5 564.3 178.4 564.6 178.3C564.9 178.2 565 177.9 565 177.6C565 177.4 565 177.3 564.9 177.2C564.8 177.1 564.7 177 564.6 176.9C564.5 176.8 564.3 176.8 564.1 176.7C563.9 176.6 563.7 176.6 563.5 176.6C563.2 176.5 563 176.5 562.7 176.4C562.4 176.3 562.2 176.2 562 176.1C561.8 176 561.6 175.8 561.5 175.6C561.4 175.4 561.3 175.1 561.3 174.8C561.3 174.2 561.5 173.8 562 173.5C562.4 173.2 563 173 563.8 173C564.2 173 564.6 173 565 173.1C565.3 173.2 565.6 173.3 565.8 173.4V174.3C565.6 174.2 565.3 174 565 174C564.7 173.9 564.3 173.9 563.9 173.9C563.4 173.9 563.1 174 562.8 174.1C562.5 174.2 562.4 174.5 562.4 174.8C562.4 175 562.4 175.1 562.5 175.2C562.6 175.3 562.7 175.4 562.8 175.4C562.9 175.5 563.1 175.5 563.2 175.5C563.4 175.5 563.5 175.6 563.7 175.6C564 175.7 564.3 175.7 564.5 175.8C564.8 175.9 565 176 565.3 176.1C565.5 176.2 565.7 176.4 565.9 176.6C566 176.8 566.1 177.1 566.1 177.5C566.1 177.9 566 178.2 565.9 178.4C565.8 178.6 565.6 178.8 565.3 179C565.1 179.1 564.8 179.2 564.5 179.3C564.2 179.2 563.9 179.2 563.6 179.2Z" fill="#262626"/>
<path d="M572.4 178.6C572.3 178.7 572.2 178.7 572.1 178.8C572 178.9 571.8 178.9 571.6 179C571.4 179.1 571.2 179.1 571 179.2C570.8 179.3 570.5 179.3 570.2 179.3C569.2 179.3 568.4 179 567.8 178.4C567.3 177.8 567 177 567 176C567 175.5 567.1 175 567.2 174.6C567.3 174.2 567.6 173.9 567.8 173.6C568.1 173.3 568.4 173.1 568.7 173C569.1 172.9 569.5 172.8 569.9 172.8C570.3 172.8 570.7 172.9 571.1 173C571.5 173.2 571.7 173.4 572 173.7C572.2 174 572.4 174.4 572.5 174.8C572.6 175.2 572.6 175.7 572.5 176.3H568.1C568.1 177 568.3 177.5 568.7 177.8C569.1 178.1 569.6 178.3 570.3 178.3C570.8 178.3 571.2 178.2 571.5 178.1C571.8 178 572.1 177.8 572.4 177.7V178.6ZM569.9 173.7C569.4 173.7 569.1 173.8 568.7 174.1C568.4 174.4 568.2 174.8 568.1 175.4H571.4C571.4 174.8 571.3 174.4 571 174.1C570.8 173.8 570.4 173.7 569.9 173.7Z" fill="#262626"/>
<path d="M489 152.6C497.8 152.6 505 159.8 505 168.6C505 177.4 497.8 184.6 489 184.6C480.2 184.6 473 177.4 473 168.6C473 159.7 480.2 152.6 489 152.6Z" fill="#5282FF"/>
<path d="M483.1 159.7H481.5V174.8H483.1V159.7Z" fill="white"/>
<path d="M487.3 159.7H485.7V177.4H487.3V159.7Z" fill="white"/>
<path d="M491.4 159.7H489.8V177.4H491.4V159.7Z" fill="white"/>
<path d="M495.5 159.7H493.9V177.4H495.5V159.7Z" fill="white"/>
<path d="M499.7 165.8H498.1V170.1H499.7V165.8Z" fill="white"/>
<path d="M259 169L254 166.113L254 171.887L259 169ZM203 169.5L254.5 169.5L254.5 168.5L203 168.5L203 169.5Z" fill="#262626"/>
<path d="M453 169L448 166.113L448 171.887L453 169ZM397 169.5L448.5 169.5L448.5 168.5L397 168.5L397 169.5Z" fill="#262626"/>
<path d="M522 77L519.113 82L524.887 82L522 77ZM522.5 133L522.5 81.5L521.5 81.5L521.5 133L522.5 133Z" fill="#262626"/>
</svg>
