<svg xmlns="http://www.w3.org/2000/svg" width="522" height="395" fill="none"><g filter="url(#a)"><rect width="510" height="381" x="6" y="6" fill="#fff" rx="5"/></g><path fill="#000" fill-opacity=".85" d="M73.465 22.09c-.432 0-.837-.072-1.215-.216a2.8 2.8 0 0 1-.981-.648 3.07 3.07 0 0 1-.657-1.044c-.156-.414-.234-.891-.234-1.431s.078-1.014.234-1.422c.162-.414.381-.756.657-1.026.276-.276.603-.483.981-.621a3.384 3.384 0 0 1 1.215-.216c.438 0 .846.072 1.224.216.378.138.705.345.981.621s.492.621.648 1.035c.156.408.234.882.234 1.422 0 .534-.078 1.008-.234 1.422a2.963 2.963 0 0 1-.648 1.044 2.8 2.8 0 0 1-.981.648 3.41 3.41 0 0 1-1.224.216Zm0-.765c.312 0 .6-.045.864-.135.264-.096.492-.243.684-.441.198-.204.351-.468.459-.792.114-.324.171-.717.171-1.179 0-.462-.057-.855-.171-1.179a1.964 1.964 0 0 0-.459-.783 1.663 1.663 0 0 0-.684-.441 2.51 2.51 0 0 0-.864-.144c-.312 0-.6.048-.864.144-.264.09-.495.237-.693.441a2.114 2.114 0 0 0-.459.783c-.108.324-.162.717-.162 1.179 0 .462.054.855.162 1.179.114.324.267.588.459.792.198.198.429.345.693.441.264.09.552.135.864.135Zm8.32-1.665c0 .39-.06.735-.18 1.035-.113.3-.272.555-.476.765-.198.204-.435.36-.711.468a2.448 2.448 0 0 1-.9.162c-.33 0-.633-.054-.91-.162a1.881 1.881 0 0 1-.71-.513 2.475 2.475 0 0 1-.468-.864 4.18 4.18 0 0 1-.162-1.233c0-.39.012-.762.036-1.116.024-.354.078-.681.162-.981a2.9 2.9 0 0 1 .36-.819 1.983 1.983 0 0 1 1.116-.81 3.53 3.53 0 0 1 .486-.108c.168-.024.336-.039.504-.045l.495-.018c.24-.018.44-.048.603-.09.162-.042.306-.099.432-.171v.72a1.385 1.385 0 0 1-.423.18c-.144.03-.321.057-.531.081-.342.03-.657.054-.945.072-.282.012-.54.078-.774.198-.3.168-.513.42-.64.756-.12.33-.194.723-.224 1.179.312-.72.9-1.08 1.764-1.08.294 0 .567.054.819.162.258.102.48.255.666.459.192.204.342.456.45.756.108.294.162.633.162 1.017Zm-2.267 1.719c.21 0 .402-.033.576-.099.18-.072.336-.177.468-.315.132-.144.234-.324.306-.54.072-.216.108-.471.108-.765 0-.294-.036-.549-.108-.765a1.391 1.391 0 0 0-.306-.531 1.176 1.176 0 0 0-.468-.315 1.492 1.492 0 0 0-.576-.108c-.414 0-.76.138-1.035.414-.27.276-.405.702-.405 1.278 0 .3.036.561.108.783.072.216.17.396.297.54.132.144.285.252.459.324.174.066.366.099.576.099Zm3.487-.828c.084-.306.138-.72.162-1.242.024-.522.036-1.182.036-1.98h3.141V22h-.8v-3.996H83.95a27.562 27.562 0 0 1-.063 1.71c-.03.498-.099.918-.207 1.26-.102.342-.255.603-.459.783-.198.174-.465.261-.8.261h-.073a.417.417 0 0 1-.08-.009v-.783c.03.006.068.009.116.009.306 0 .513-.228.621-.684Zm7.36.558a2.736 2.736 0 0 1-.207.342 1.566 1.566 0 0 1-.766.549c-.167.06-.365.09-.593.09-.42 0-.76-.117-1.018-.351-.258-.24-.387-.582-.387-1.026 0-.51.177-.885.531-1.125.36-.24.87-.36 1.53-.36h.874v-.387c0-.324-.084-.555-.252-.693-.168-.138-.456-.207-.864-.207a2.33 2.33 0 0 0-.82.144c-.258.09-.489.195-.692.315v-.711c.168-.102.393-.201.675-.297.287-.102.602-.153.944-.153.589 0 1.036.123 1.342.369.305.24.459.615.459 1.125v2.7c.005.066.008.135.008.207l.018.207c.006.06.012.111.018.153h-.72a4.111 4.111 0 0 1-.053-.351 5.38 5.38 0 0 1-.018-.405l-.01-.135Zm-1.395.27c.246 0 .456-.051.63-.153.174-.102.315-.219.422-.351a1.55 1.55 0 0 0 .234-.396.978.978 0 0 0 .073-.279v-.342h-.792c-.475 0-.82.069-1.036.207-.21.132-.315.333-.315.603 0 .21.063.381.19.513.125.132.323.198.593.198Zm4.602-1.368h-.414V22h-.792v-4.671h.792v2.007h.45l1.638-2.007h.9l-1.917 2.304L96.182 22h-.963l-1.647-1.989Zm5.184 2.079c-.318 0-.615-.054-.89-.162a2.075 2.075 0 0 1-.72-.468 2.28 2.28 0 0 1-.469-.765 2.902 2.902 0 0 1-.17-1.035c0-.384.056-.726.17-1.026.114-.306.27-.561.468-.765.204-.204.444-.36.72-.468.276-.108.573-.162.891-.162.324 0 .624.054.9.162.276.108.513.264.711.468a2.1 2.1 0 0 1 .477.765c.12.3.18.642.18 1.026 0 .39-.06.735-.18 1.035-.114.3-.273.555-.477.765-.198.204-.435.36-.71.468a2.448 2.448 0 0 1-.9.162Zm0-.711c.21 0 .402-.033.576-.099.18-.072.336-.177.468-.315.132-.144.234-.324.306-.54.072-.216.108-.471.108-.765 0-.294-.036-.549-.108-.765a1.39 1.39 0 0 0-.306-.531 1.176 1.176 0 0 0-.468-.315 1.492 1.492 0 0 0-.576-.108c-.21 0-.402.036-.576.108a1.19 1.19 0 0 0-.459.315 1.46 1.46 0 0 0-.297.531 2.426 2.426 0 0 0-.108.765c0 .294.036.549.108.765.072.216.171.396.297.54.132.138.285.243.46.315.173.066.365.099.575.099ZM71.782 36H70.54v-4.671h1.161l.063.702h.018c.126-.228.303-.417.531-.567.234-.15.531-.225.891-.225.33 0 .615.075.855.225.246.15.42.378.522.684.138-.276.333-.495.585-.657.258-.168.57-.252.936-.252.21 0 .405.033.585.099.18.06.333.153.459.279.132.12.234.273.306.459.078.186.117.405.117.657V36h-1.251v-3.105c0-.228-.063-.396-.189-.504a.686.686 0 0 0-.477-.162.931.931 0 0 0-.585.18 1.45 1.45 0 0 0-.387.423V36h-1.251v-3.15c0-.234-.06-.396-.18-.486a.76.76 0 0 0-.468-.135c-.246 0-.447.051-.603.153a1.43 1.43 0 0 0-.396.387V36Zm9.5-.054a5.92 5.92 0 0 1-.324.747 1.99 1.99 0 0 1-.405.54c-.15.15-.33.261-.54.333-.21.078-.462.117-.756.117-.18 0-.34-.015-.477-.045a1.665 1.665 0 0 1-.405-.126v-1.08c.102.072.225.129.369.171.15.048.312.072.486.072a.9.9 0 0 0 .468-.108.83.83 0 0 0 .306-.306l-1.863-4.932h1.323l1.17 3.375 1.143-3.375h1.143l-1.638 4.617Zm2.176-3.231H85.7v1.026h-2.24v-1.026Zm5.583 3.375c-.39 0-.741-.054-1.053-.162a2.287 2.287 0 0 1-.783-.477 2.18 2.18 0 0 1-.504-.765 2.874 2.874 0 0 1-.171-1.026c0-.378.057-.717.171-1.017a2.091 2.091 0 0 1 1.296-1.233 3.052 3.052 0 0 1 1.053-.171c.36 0 .66.039.9.117.24.072.429.159.567.261v.99a2.39 2.39 0 0 0-1.359-.378c-.9 0-1.35.477-1.35 1.431 0 .954.444 1.431 1.332 1.431.33 0 .597-.033.801-.099a3.16 3.16 0 0 0 .576-.27v.981c-.138.102-.33.192-.576.27-.24.078-.54.117-.9.117Zm3.571-6.543V36H91.37v-6.453h1.242Zm3.184 6.543c-.336 0-.648-.051-.936-.153a2.247 2.247 0 0 1-.747-.468 2.246 2.246 0 0 1-.495-.765 2.842 2.842 0 0 1-.18-1.044c0-.39.06-.735.18-1.035.12-.306.285-.561.495-.765.216-.204.465-.357.747-.459.288-.108.6-.162.936-.162.336 0 .648.054.936.162.294.102.546.255.756.459.216.204.384.459.504.765.126.3.19.645.19 1.035 0 .39-.064.738-.19 1.044-.12.3-.288.555-.504.765-.21.204-.462.36-.756.468-.288.102-.6.153-.936.153Zm0-.999c.324 0 .588-.117.792-.351.204-.234.306-.594.306-1.08 0-.48-.102-.837-.306-1.071a1.002 1.002 0 0 0-.792-.351 1 1 0 0 0-.774.351c-.204.234-.306.591-.306 1.071 0 .486.102.846.306 1.08a1 1 0 0 0 .774.351Zm6.164.207a1.647 1.647 0 0 1-.549.567c-.234.15-.546.225-.936.225-.222 0-.426-.03-.612-.09a1.344 1.344 0 0 1-.486-.297 1.448 1.448 0 0 1-.315-.486 1.948 1.948 0 0 1-.108-.684v-3.204h1.26v3.15c0 .24.066.402.198.486a.934.934 0 0 0 .495.126c.252 0 .462-.048.63-.144.168-.102.309-.234.423-.396v-3.222h1.233V36h-1.152l-.063-.702h-.018Zm5.66-.126c-.15.282-.351.507-.603.675-.246.162-.552.243-.918.243-.264 0-.522-.048-.774-.144a1.925 1.925 0 0 1-.666-.45 2.376 2.376 0 0 1-.468-.756 3.09 3.09 0 0 1-.171-1.08c0-.408.057-.762.171-1.062a2.25 2.25 0 0 1 .468-.756c.198-.204.42-.354.666-.45.252-.102.513-.153.783-.153.342 0 .633.066.873.198.246.132.447.312.603.54v-2.43h1.242V36h-1.152l-.054-.828Zm-1.17-.081c.162 0 .312-.027.45-.081a.983.983 0 0 0 .36-.27c.102-.12.183-.267.243-.441.06-.18.09-.393.09-.639 0-.486-.111-.846-.333-1.08a1.057 1.057 0 0 0-.81-.351c-.33 0-.606.123-.828.369-.216.24-.324.594-.324 1.062 0 .48.108.84.324 1.08.216.234.492.351.828.351Z"/><rect width="468" height="164" x="28" y="52" stroke="#5282FF" stroke-width="2" rx="7"/><rect width="195" height="121" x="28" y="242" stroke="#5282FF" stroke-width="2" rx="7"/><rect width="195" height="121" x="301" y="242" stroke="#5282FF" stroke-width="2" rx="7"/><path stroke="#262626" stroke-linecap="round" stroke-linejoin="round" stroke-width="2" d="M33 29.85c0 3.949 3.104 7.15 6.933 7.15h19.2C62.373 37 65 34.291 65 30.95c0-3.156-2.343-5.747-5.333-6.025V24.9c0-5.468-4.298-9.9-9.6-9.9-4.584 0-8.417 3.313-9.372 7.743a6.804 6.804 0 0 0-.762-.043C36.104 22.7 33 25.901 33 29.85Z" clip-rule="evenodd"/><path stroke="#262626" stroke-linecap="round" stroke-linejoin="round" stroke-width="2" d="M37 62a2 2 0 0 1 2-2h5.172a2 2 0 0 1 1.414.586l1.828 1.828a2 2 0 0 0 1.414.586H63a2 2 0 0 1 2 2v14a2 2 0 0 1-2 2H39a2 2 0 0 1-2-2V62Z"/><path fill="#000" fill-opacity=".85" d="M72.286 66.237h-.684V69h-.846v-6.453h.846v2.925h.63l2.304-2.925h.954l-2.547 3.222L75.589 69h-1.053l-2.25-2.763Zm6.732 1.872a2.736 2.736 0 0 1-.207.342 1.566 1.566 0 0 1-.765.549c-.168.06-.366.09-.594.09-.42 0-.76-.117-1.017-.351-.258-.24-.387-.582-.387-1.026 0-.51.177-.885.53-1.125.36-.24.87-.36 1.53-.36h.874v-.387c0-.324-.084-.555-.252-.693-.168-.138-.456-.207-.864-.207a2.33 2.33 0 0 0-.82.144c-.257.09-.488.195-.692.315v-.711c.168-.102.393-.201.675-.297.288-.102.603-.153.945-.153.588 0 1.035.123 1.34.369.307.24.46.615.46 1.125v2.7c.006.066.009.135.009.207l.018.207c.006.06.012.111.018.153h-.72a4.111 4.111 0 0 1-.054-.351 5.38 5.38 0 0 1-.018-.405l-.01-.135Zm-1.395.27c.246 0 .456-.051.63-.153.174-.102.315-.219.423-.351a1.55 1.55 0 0 0 .234-.396.978.978 0 0 0 .072-.279v-.342h-.792c-.474 0-.82.069-1.035.207-.21.132-.315.333-.315.603 0 .21.063.381.189.513s.324.198.594.198Zm5.233-3.375V69h-.792v-3.996h-1.467v-.675h3.753v.675h-1.494Zm5.012 3.105a2.736 2.736 0 0 1-.207.342 1.566 1.566 0 0 1-.765.549c-.168.06-.366.09-.594.09-.42 0-.759-.117-1.017-.351-.258-.24-.387-.582-.387-1.026 0-.51.177-.885.531-1.125.36-.24.87-.36 1.53-.36h.873v-.387c0-.324-.084-.555-.252-.693-.168-.138-.456-.207-.864-.207a2.33 2.33 0 0 0-.819.144c-.258.09-.489.195-.693.315v-.711c.168-.102.393-.201.675-.297.288-.102.603-.153.945-.153.588 0 1.035.123 1.341.369.306.24.46.615.46 1.125v2.7c.005.066.008.135.008.207l.018.207c.006.06.012.111.018.153h-.72a4.111 4.111 0 0 1-.054-.351 5.38 5.38 0 0 1-.018-.405l-.009-.135Zm-1.395.27c.246 0 .456-.051.63-.153.174-.102.315-.219.423-.351a1.55 1.55 0 0 0 .234-.396.978.978 0 0 0 .072-.279v-.342h-.792c-.474 0-.819.069-1.035.207-.21.132-.315.333-.315.603 0 .21.063.381.19.513.125.132.323.198.593.198Zm3.757-.828c.084-.306.138-.72.162-1.242.024-.522.036-1.182.036-1.98h3.14V69h-.8v-3.996h-1.593a27.562 27.562 0 0 1-.063 1.71c-.03.498-.1.918-.207 1.26-.102.342-.255.603-.46.783-.197.174-.464.261-.8.261h-.072a.417.417 0 0 1-.081-.009v-.783c.03.006.069.009.117.009.306 0 .513-.228.62-.684Zm6.54 1.539c-.318 0-.615-.054-.89-.162a2.075 2.075 0 0 1-.72-.468 2.28 2.28 0 0 1-.469-.765 2.902 2.902 0 0 1-.17-1.035c0-.384.056-.726.17-1.026.114-.306.27-.561.468-.765.204-.204.444-.36.72-.468.276-.108.573-.162.891-.162.324 0 .624.054.9.162.276.108.513.264.711.468a2.1 2.1 0 0 1 .477.765c.12.3.18.642.18 1.026 0 .39-.06.735-.18 1.035-.114.3-.273.555-.477.765-.198.204-.435.36-.71.468a2.448 2.448 0 0 1-.9.162Zm0-.711c.21 0 .402-.033.576-.099.18-.072.336-.177.468-.315.132-.144.234-.324.306-.54.072-.216.108-.471.108-.765 0-.294-.036-.549-.108-.765a1.391 1.391 0 0 0-.306-.531 1.176 1.176 0 0 0-.468-.315 1.492 1.492 0 0 0-.576-.108c-.21 0-.402.036-.576.108a1.19 1.19 0 0 0-.459.315 1.46 1.46 0 0 0-.297.531 2.426 2.426 0 0 0-.108.765c0 .294.036.549.108.765.072.216.171.396.297.54.132.138.285.243.46.315.173.066.365.099.575.099Zm3.233-4.05h2.97v.675h-2.178V69h-.792v-4.671Zm-27.123 12.9c-.252 0-.471.051-.657.153-.18.102-.327.234-.441.396V81H70.54v-4.671h1.17l.054.702h.018a1.53 1.53 0 0 1 .558-.567c.246-.15.558-.225.936-.225.222 0 .429.033.621.099.198.06.366.153.504.279.144.12.255.273.333.459.084.186.126.405.126.657V81h-1.251v-3.132c0-.234-.066-.399-.198-.495-.126-.096-.303-.144-.531-.144Zm7.063 3.465a4.49 4.49 0 0 1-.252.135c-.09.042-.201.084-.333.126a3.3 3.3 0 0 1-.45.09c-.168.03-.37.045-.603.045-.912 0-1.587-.213-2.025-.639-.438-.426-.657-1.023-.657-1.791 0-.378.057-.717.17-1.017.12-.3.286-.552.496-.756.21-.21.459-.369.747-.477.294-.114.618-.171.972-.171.36 0 .684.06.972.18.288.114.525.285.71.513.193.228.325.516.397.864.072.348.072.75 0 1.206h-3.168c.048.366.18.642.396.828.222.18.573.27 1.053.27.384 0 .696-.042.936-.126a5.19 5.19 0 0 0 .639-.261v.981Zm-1.917-3.528a.996.996 0 0 0-.693.252c-.186.168-.312.411-.378.729h1.944c.006-.33-.066-.576-.216-.738-.15-.162-.37-.243-.657-.243Zm5.655 3.654c-.12.078-.267.141-.44.189a2.088 2.088 0 0 1-.63.081c-.27 0-.496-.036-.676-.108a1.259 1.259 0 0 1-.44-.306 1.156 1.156 0 0 1-.235-.441 2.09 2.09 0 0 1-.072-.558V77.31h-.558v-.981h.558v-.981h1.242v.981h1.323v.981H82.43v2.232c0 .186.042.324.126.414.084.09.222.135.414.135.162 0 .3-.024.414-.072.114-.054.213-.117.297-.189v.99Zm.753-3.105h2.24v1.026h-2.24v-1.026Zm4.838-.405V81H88.03v-3.69h-.55v-.981h.55v-.054c0-.288.045-.543.135-.765a1.565 1.565 0 0 1 .99-.918c.234-.084.492-.126.774-.126.18 0 .324.009.432.027.108.012.204.03.288.054v1.008a1.064 1.064 0 0 0-.243-.063 1.633 1.633 0 0 0-.37-.036.794.794 0 0 0-.557.198c-.138.132-.207.339-.207.621v.054h1.278v.981h-1.278Zm4.046 3.78c-.336 0-.648-.051-.936-.153a2.247 2.247 0 0 1-.747-.468 2.246 2.246 0 0 1-.495-.765 2.842 2.842 0 0 1-.18-1.044c0-.39.06-.735.18-1.035.12-.306.285-.561.495-.765.216-.204.465-.357.747-.459.288-.108.6-.162.936-.162.336 0 .648.054.936.162.294.102.546.255.756.459.216.204.384.459.504.765.126.3.189.645.189 1.035 0 .39-.063.738-.19 1.044-.12.3-.287.555-.503.765-.21.204-.462.36-.756.468-.288.102-.6.153-.936.153Zm0-.999c.324 0 .588-.117.792-.351.204-.234.306-.594.306-1.08 0-.48-.102-.837-.306-1.071a1.002 1.002 0 0 0-.792-.351 1 1 0 0 0-.774.351c-.204.234-.306.591-.306 1.071 0 .486.102.846.306 1.08a1 1 0 0 0 .774.351Zm4.445-5.544V81H96.52v-6.453h1.243Zm4.426 5.625c-.15.282-.351.507-.603.675-.246.162-.552.243-.918.243-.264 0-.522-.048-.774-.144a1.925 1.925 0 0 1-.666-.45 2.376 2.376 0 0 1-.468-.756 3.09 3.09 0 0 1-.171-1.08c0-.408.057-.762.17-1.062a2.25 2.25 0 0 1 .469-.756c.198-.204.42-.354.666-.45.252-.102.513-.153.783-.153.342 0 .633.066.873.198.246.132.447.312.603.54v-2.43h1.242V81h-1.152l-.054-.828Zm-1.17-.081c.162 0 .312-.027.45-.081a.983.983 0 0 0 .36-.27c.102-.12.183-.267.243-.441.06-.18.09-.393.09-.639 0-.486-.111-.846-.333-1.08a1.057 1.057 0 0 0-.81-.351c-.33 0-.606.123-.828.369-.216.24-.324.594-.324 1.062 0 .48.108.84.324 1.08.216.234.492.351.828.351Zm7.515.603a4.49 4.49 0 0 1-.252.135c-.09.042-.201.084-.333.126a3.3 3.3 0 0 1-.45.09c-.168.03-.369.045-.603.045-.912 0-1.587-.213-2.025-.639-.438-.426-.657-1.023-.657-1.791 0-.378.057-.717.171-1.017.12-.3.285-.552.495-.756.21-.21.459-.369.747-.477.294-.114.618-.171.972-.171.36 0 .684.06.972.18.288.114.525.285.711.513.192.228.324.516.396.864.072.348.072.75 0 1.206h-3.168c.048.366.18.642.396.828.222.18.573.27 1.053.27.384 0 .696-.042.936-.126a5.19 5.19 0 0 0 .639-.261v.981Zm-1.917-3.528a.996.996 0 0 0-.693.252c-.186.168-.312.411-.378.729h1.944c.006-.33-.066-.576-.216-.738-.15-.162-.369-.243-.657-.243Zm5.781.342a2.21 2.21 0 0 0-.927.099c-.276.09-.492.237-.648.441V81h-1.242v-4.671h1.161l.063.945h.018c.168-.306.384-.549.648-.729.27-.18.579-.282.927-.306v1.269ZM249.273 197.09a3.61 3.61 0 0 1-1.305-.225 2.856 2.856 0 0 1-1.008-.648 2.966 2.966 0 0 1-.639-1.044 4.074 4.074 0 0 1-.225-1.395c0-.522.069-.987.207-1.395.138-.408.342-.753.612-1.035.27-.288.6-.507.99-.657.396-.15.846-.225 1.35-.225.438 0 .822.048 1.152.144.33.09.6.198.81.324v.81a2.985 2.985 0 0 0-.936-.387 4.399 4.399 0 0 0-1.035-.126c-.762 0-1.326.213-1.692.639-.36.42-.54 1.056-.54 1.908 0 .858.195 1.497.585 1.917.396.42.978.63 1.746.63.33 0 .651-.045.963-.135.318-.09.621-.243.909-.459v.81c-.174.138-.429.264-.765.378-.33.114-.723.171-1.179.171Zm6.804-.486a2.508 2.508 0 0 1-.594.315 2.96 2.96 0 0 1-.468.117 2.898 2.898 0 0 1-.585.054c-.786 0-1.383-.213-1.791-.639-.408-.426-.612-1.023-.612-1.791 0-.378.054-.717.162-1.017.114-.3.27-.552.468-.756.198-.21.432-.369.702-.477.27-.114.564-.171.882-.171.336 0 .636.057.9.171.264.114.48.282.648.504.174.222.291.498.351.828.066.324.066.702 0 1.134h-3.294c.03.504.18.882.45 1.134.27.246.672.369 1.206.369.36 0 .669-.051.927-.153.258-.102.474-.213.648-.333v.711Zm-1.854-3.663c-.342 0-.636.105-.882.315-.246.21-.402.528-.468.954h2.511c.024-.432-.075-.75-.297-.954-.222-.21-.51-.315-.864-.315Zm4.817.063V197h-.792v-3.996h-1.467v-.675h3.753v.675h-1.494Zm5.882 2.439c0 .27-.048.504-.144.702-.096.198-.231.36-.405.486a1.785 1.785 0 0 1-.621.279c-.24.06-.501.09-.783.09h-1.548v-4.671h.792v1.629h.81c.594 0 1.059.117 1.395.351.336.234.504.612.504 1.134Zm-2.709-.81v1.692h.756c.342 0 .618-.063.828-.189.216-.132.324-.348.324-.648 0-.306-.096-.525-.288-.657-.192-.132-.462-.198-.81-.198h-.81Zm-27.612 14.457a3.279 3.279 0 0 1-1.125-.189 2.38 2.38 0 0 1-.612-.333v-.918c.06.054.141.111.243.171.102.06.222.117.36.171.144.048.306.09.486.126.18.03.378.045.594.045.324 0 .546-.045.666-.135a.42.42 0 0 0 .18-.351c0-.114-.03-.201-.09-.261a.516.516 0 0 0-.243-.144 1.593 1.593 0 0 0-.333-.081 5.588 5.588 0 0 1-.396-.072 6.269 6.269 0 0 1-.531-.135 1.88 1.88 0 0 1-.477-.243 1.222 1.222 0 0 1-.342-.396 1.323 1.323 0 0 1-.135-.63c0-.462.168-.822.504-1.08.336-.264.816-.396 1.44-.396.36 0 .666.039.918.117.252.078.432.156.54.234v.918a2.083 2.083 0 0 0-.54-.243c-.222-.072-.51-.108-.864-.108-.33 0-.561.039-.693.117a.378.378 0 0 0-.189.342c0 .102.027.18.081.234.06.054.138.096.234.126s.204.054.324.072c.126.012.255.027.387.045.174.03.351.072.531.126.18.048.342.126.486.234.15.108.27.252.36.432.096.174.144.396.144.666 0 .288-.054.531-.162.729a1.432 1.432 0 0 1-.432.477c-.18.12-.384.204-.612.252a3.036 3.036 0 0 1-.702.081Zm5.054-3.861c-.252 0-.471.051-.657.153-.18.102-.327.234-.441.396V209h-1.242v-6.453h1.242v1.683l-.009.81h.009c.138-.228.327-.417.567-.567.24-.156.549-.234.927-.234.222 0 .429.033.621.099.198.06.366.153.504.279.144.12.255.273.333.459.084.186.126.405.126.657V209h-1.251v-3.132c0-.234-.066-.399-.198-.495-.126-.096-.303-.144-.531-.144Zm5.749 3.771a5.056 5.056 0 0 1-.054-.351 12.86 12.86 0 0 0-.036-.387 1.452 1.452 0 0 1-.189.297 1.333 1.333 0 0 1-.279.27 1.487 1.487 0 0 1-.405.189c-.15.048-.327.072-.531.072-.198 0-.387-.027-.567-.081a1.36 1.36 0 0 1-.468-.252 1.24 1.24 0 0 1-.315-.423 1.399 1.399 0 0 1-.117-.594c0-.498.195-.882.585-1.152.39-.27.945-.405 1.665-.405h.576v-.207c0-.288-.075-.483-.225-.585-.144-.108-.378-.162-.702-.162-.324 0-.621.042-.891.126-.27.084-.507.177-.711.279v-.99c.204-.102.465-.195.783-.279a4.081 4.081 0 0 1 1.044-.126c.612 0 1.089.129 1.431.387.348.258.522.669.522 1.233v2.574c.006.066.009.135.009.207l.018.207c.006.06.012.111.018.153h-1.161Zm-1.116-.801a.878.878 0 0 0 .495-.126 1.102 1.102 0 0 0 .441-.639c.03-.114.045-.195.045-.243v-.279h-.531c-.372 0-.645.063-.819.189a.575.575 0 0 0-.252.495c0 .192.054.342.162.45a.663.663 0 0 0 .459.153Zm6.092-2.691a2.21 2.21 0 0 0-.927.099c-.276.09-.492.237-.648.441V209h-1.242v-4.671h1.161l.063.945h.018c.168-.306.384-.549.648-.729.27-.18.579-.282.927-.306v1.269Zm4.766 3.186a4.49 4.49 0 0 1-.252.135c-.09.042-.201.084-.333.126a3.3 3.3 0 0 1-.45.09c-.168.03-.369.045-.603.045-.912 0-1.587-.213-2.025-.639-.438-.426-.657-1.023-.657-1.791 0-.378.057-.717.171-1.017.12-.3.285-.552.495-.756.21-.21.459-.369.747-.477.294-.114.618-.171.972-.171.36 0 .684.06.972.18.288.114.525.285.711.513.192.228.324.516.396.864.072.348.072.75 0 1.206h-3.168c.048.366.18.642.396.828.222.18.573.27 1.053.27.384 0 .696-.042.936-.126a5.19 5.19 0 0 0 .639-.261v.981Zm-1.917-3.528a.996.996 0 0 0-.693.252c-.186.168-.312.411-.378.729h1.944c.006-.33-.066-.576-.216-.738-.15-.162-.369-.243-.657-.243Zm6.304 3.006c-.15.282-.351.507-.603.675-.246.162-.552.243-.918.243-.264 0-.522-.048-.774-.144a1.925 1.925 0 0 1-.666-.45 2.376 2.376 0 0 1-.468-.756 3.09 3.09 0 0 1-.171-1.08c0-.408.057-.762.171-1.062a2.25 2.25 0 0 1 .468-.756c.198-.204.42-.354.666-.45.252-.102.513-.153.783-.153.342 0 .633.066.873.198.246.132.447.312.603.54v-2.43h1.242V209h-1.152l-.054-.828Zm-1.17-.081c.162 0 .312-.027.45-.081a.983.983 0 0 0 .36-.27c.102-.12.183-.267.243-.441.06-.18.09-.393.09-.639 0-.486-.111-.846-.333-1.08a1.057 1.057 0 0 0-.81-.351c-.33 0-.606.123-.828.369-.216.24-.324.594-.324 1.062 0 .48.108.84.324 1.08.216.234.492.351.828.351Zm3.384-2.376h2.241v1.026h-2.241v-1.026Zm5.585-.486c-.252 0-.471.051-.657.153-.18.102-.327.234-.441.396V209h-1.242v-4.671h1.17l.054.702h.018a1.53 1.53 0 0 1 .558-.567c.246-.15.558-.225.936-.225.222 0 .429.033.621.099.198.06.366.153.504.279.144.12.255.273.333.459.084.186.126.405.126.657V209h-1.251v-3.132c0-.234-.066-.399-.198-.495-.126-.096-.303-.144-.531-.144Zm7.062 3.465a4.49 4.49 0 0 1-.252.135c-.09.042-.201.084-.333.126a3.3 3.3 0 0 1-.45.09c-.168.03-.369.045-.603.045-.912 0-1.587-.213-2.025-.639-.438-.426-.657-1.023-.657-1.791 0-.378.057-.717.171-1.017.12-.3.285-.552.495-.756.21-.21.459-.369.747-.477.294-.114.618-.171.972-.171.36 0 .684.06.972.18.288.114.525.285.711.513.192.228.324.516.396.864.072.348.072.75 0 1.206h-3.168c.048.366.18.642.396.828.222.18.573.27 1.053.27.384 0 .696-.042.936-.126a5.19 5.19 0 0 0 .639-.261v.981Zm-1.917-3.528a.996.996 0 0 0-.693.252c-.186.168-.312.411-.378.729h1.944c.006-.33-.066-.576-.216-.738-.15-.162-.369-.243-.657-.243Zm5.656 3.654c-.12.078-.267.141-.441.189a2.088 2.088 0 0 1-.63.081c-.27 0-.495-.036-.675-.108a1.259 1.259 0 0 1-.441-.306 1.156 1.156 0 0 1-.234-.441 2.09 2.09 0 0 1-.072-.558v-2.367h-.558v-.981h.558v-.981h1.242v.981h1.323v.981h-1.323v2.232c0 .186.042.324.126.414.084.09.222.135.414.135.162 0 .3-.024.414-.072.114-.054.213-.117.297-.189v.99ZM71.414 325.547H73.6c.708 0 1.245.12 1.61.36.373.24.559.645.559 1.215 0 .234-.033.438-.1.612-.06.168-.146.315-.26.441a1.29 1.29 0 0 1-.405.297c-.156.078-.33.138-.522.18.504.06.882.207 1.134.441.258.228.387.576.387 1.044 0 .336-.063.624-.19.864-.12.234-.287.426-.503.576a2.393 2.393 0 0 1-.765.324 4.397 4.397 0 0 1-.963.099h-2.17v-6.453Zm.846.774v1.98h1.278c.204 0 .39-.021.558-.063.168-.048.312-.117.432-.207a.992.992 0 0 0 .279-.351c.072-.144.108-.315.108-.513 0-.33-.114-.552-.342-.666-.228-.12-.552-.18-.972-.18H72.26Zm0 2.745v2.169h1.323c.228 0 .435-.018.62-.054.187-.036.346-.096.478-.18a.84.84 0 0 0 .315-.333 1.03 1.03 0 0 0 .117-.513c0-.408-.132-.69-.396-.846-.258-.162-.67-.243-1.233-.243H72.26Zm8.14 1.008 2.097-4.527h1.099V332h-.856v-5.193l-1.98 4.203-.422.009h-.378l.009-.009-1.953-4.275V332h-.802v-6.453h1.18l2.006 4.527Zm-14.727 13.098c-.15.282-.351.507-.603.675-.246.162-.552.243-.918.243-.264 0-.522-.048-.774-.144a1.925 1.925 0 0 1-.666-.45 2.376 2.376 0 0 1-.468-.756 3.09 3.09 0 0 1-.171-1.08c0-.408.057-.762.17-1.062a2.25 2.25 0 0 1 .469-.756c.198-.204.42-.354.666-.45.252-.102.513-.153.783-.153.342 0 .633.066.873.198.246.132.447.312.603.54v-2.43h1.242V344h-1.152l-.054-.828Zm-1.17-.081c.162 0 .312-.027.45-.081a.983.983 0 0 0 .36-.27c.102-.12.183-.267.243-.441.06-.18.09-.393.09-.639 0-.486-.111-.846-.333-1.08a1.057 1.057 0 0 0-.81-.351c-.33 0-.606.123-.828.369-.216.24-.324.594-.324 1.062 0 .48.108.84.324 1.08.216.234.492.351.828.351Zm7.515.603a4.49 4.49 0 0 1-.252.135c-.09.042-.201.084-.333.126a3.3 3.3 0 0 1-.45.09c-.168.03-.37.045-.603.045-.912 0-1.587-.213-2.025-.639-.438-.426-.657-1.023-.657-1.791 0-.378.057-.717.17-1.017.12-.3.286-.552.496-.756.21-.21.459-.369.747-.477.294-.114.618-.171.972-.171.36 0 .684.06.972.18.288.114.525.285.71.513.193.228.325.516.397.864.072.348.072.75 0 1.206h-3.168c.048.366.18.642.396.828.222.18.573.27 1.053.27.384 0 .696-.042.936-.126a5.19 5.19 0 0 0 .639-.261v.981Zm-1.917-3.528a.996.996 0 0 0-.693.252c-.186.168-.312.411-.378.729h1.944c.006-.33-.066-.576-.216-.738-.15-.162-.37-.243-.657-.243ZM75.605 344h-1.548l-1.575-4.671h1.287l1.134 3.483 1.152-3.483h1.143L75.605 344Zm2.082-3.285h2.24v1.026h-2.24v-1.026ZM83.542 344h-1.548l-1.575-4.671h1.287l1.134 3.483 1.152-3.483h1.143L83.542 344Zm3.395 0h-1.242v-4.671h1.161l.063.702h.018c.126-.228.303-.417.531-.567.234-.15.531-.225.891-.225.33 0 .615.075.855.225.246.15.42.378.522.684.138-.276.333-.495.585-.657.258-.168.57-.252.936-.252.21 0 .405.033.585.099.18.06.333.153.46.279.131.12.233.273.305.459.078.186.117.405.117.657V344h-1.25v-3.105c0-.228-.064-.396-.19-.504a.686.686 0 0 0-.477-.162.931.931 0 0 0-.585.18 1.45 1.45 0 0 0-.387.423V344h-1.25v-3.15c0-.234-.06-.396-.18-.486a.76.76 0 0 0-.469-.135c-.246 0-.447.051-.603.153a1.43 1.43 0 0 0-.396.387V344ZM62.4 356h-.82v-5.436l-1.781 1.368v-.909l1.917-1.476h.684V356Zm4.093.09a1.96 1.96 0 0 1-.855-.189 1.884 1.884 0 0 1-.675-.603 3.362 3.362 0 0 1-.441-1.035c-.108-.42-.162-.918-.162-1.494s.054-1.071.162-1.485c.108-.42.255-.765.441-1.035.192-.27.417-.468.675-.594a1.96 1.96 0 0 1 .855-.189c.306 0 .588.063.846.189s.48.324.666.594c.186.264.33.603.432 1.017.108.414.162.909.162 1.485 0 .576-.054 1.074-.162 1.494a3.22 3.22 0 0 1-.432 1.035c-.186.276-.408.48-.666.612a1.83 1.83 0 0 1-.846.198Zm-.009-.711c.204 0 .384-.045.54-.135.156-.09.288-.237.396-.441a2.64 2.64 0 0 0 .243-.801c.06-.336.09-.744.09-1.224s-.027-.885-.081-1.215c-.054-.336-.135-.606-.243-.81a1.063 1.063 0 0 0-.396-.441 1.061 1.061 0 0 0-.54-.135c-.204 0-.387.045-.549.135-.156.09-.291.237-.405.441a2.81 2.81 0 0 0-.252.81 7.69 7.69 0 0 0-.081 1.215c0 .48.027.888.081 1.224.06.33.144.597.252.801.108.204.24.351.396.441.162.09.345.135.549.135Zm3.832.675a.572.572 0 0 1-.423-.162.57.57 0 0 1-.162-.405.56.56 0 0 1 .162-.414.572.572 0 0 1 .423-.162.56.56 0 0 1 .414.162.56.56 0 0 1 .162.414.57.57 0 0 1-.162.405.56.56 0 0 1-.414.162Zm4.678-.054h-.819v-5.436l-1.781 1.368v-.909l1.916-1.476h.684V356Zm2.969.054a.572.572 0 0 1-.423-.162.57.57 0 0 1-.162-.405.56.56 0 0 1 .162-.414.572.572 0 0 1 .423-.162.56.56 0 0 1 .414.162.56.56 0 0 1 .162.414.57.57 0 0 1-.162.405.56.56 0 0 1-.414.162ZM82.64 356h-.819v-5.436l-1.782 1.368v-.909l1.917-1.476h.684V356Zm6.154 0h-4.113v-.855a51.376 51.376 0 0 0 1.413-1.17c.402-.342.732-.657.99-.945a3.68 3.68 0 0 0 .576-.819 1.88 1.88 0 0 0 .19-.819c0-.354-.109-.639-.325-.855-.21-.222-.519-.333-.927-.333-.342 0-.66.084-.954.252a3.225 3.225 0 0 0-.792.639v-.909c.228-.222.486-.399.774-.531.288-.132.621-.198 1-.198a2.7 2.7 0 0 1 .89.135c.264.09.483.216.657.378.18.162.315.357.405.585.096.228.144.48.144.756 0 .348-.069.675-.207.981-.132.306-.33.612-.594.918a8.819 8.819 0 0 1-.98.954c-.385.324-.826.678-1.324 1.062h3.177V356Zm1.474.054a.572.572 0 0 1-.422-.162.57.57 0 0 1-.162-.405.56.56 0 0 1 .162-.414.572.572 0 0 1 .422-.162.56.56 0 0 1 .414.162.56.56 0 0 1 .162.414.57.57 0 0 1-.162.405.56.56 0 0 1-.414.162Zm3.841-.108a5.35 5.35 0 0 1-.342.738c-.12.216-.255.399-.405.549-.15.15-.318.261-.504.333a1.64 1.64 0 0 1-.639.117 1.92 1.92 0 0 1-.333-.027 1.002 1.002 0 0 1-.279-.072v-.765c.066.048.15.084.252.108.102.03.213.045.333.045a.89.89 0 0 0 .549-.162c.144-.102.282-.267.414-.495l-1.899-4.986h.873l1.485 3.942 1.476-3.942h.765l-1.746 4.617ZM347.414 325.547h2.187c.708 0 1.245.12 1.611.36.372.24.558.645.558 1.215 0 .234-.033.438-.099.612-.06.168-.147.315-.261.441a1.29 1.29 0 0 1-.405.297c-.156.078-.33.138-.522.18.504.06.882.207 1.134.441.258.228.387.576.387 1.044 0 .336-.063.624-.189.864-.12.234-.288.426-.504.576a2.393 2.393 0 0 1-.765.324 4.397 4.397 0 0 1-.963.099h-2.169v-6.453Zm.846.774v1.98h1.278c.204 0 .39-.021.558-.063.168-.048.312-.117.432-.207a.992.992 0 0 0 .279-.351c.072-.144.108-.315.108-.513 0-.33-.114-.552-.342-.666-.228-.12-.552-.18-.972-.18h-1.341Zm0 2.745v2.169h1.323c.228 0 .435-.018.621-.054.186-.036.345-.096.477-.18a.84.84 0 0 0 .315-.333 1.03 1.03 0 0 0 .117-.513c0-.408-.132-.69-.396-.846-.258-.162-.669-.243-1.233-.243h-1.224Zm8.14 1.008 2.097-4.527h1.098V332h-.855v-5.193l-1.98 4.203-.423.009h-.378l.009-.009-1.953-4.275V332h-.801v-6.453h1.179l2.007 4.527Zm-17.646 14.016c-.348 0-.648-.075-.9-.225a1.867 1.867 0 0 1-.603-.621v2.349h-1.242v-6.264h1.161l.063.765c.156-.27.36-.48.612-.63.252-.15.558-.225.918-.225.276 0 .537.051.783.153.252.096.471.246.657.45.192.198.342.45.45.756.108.3.162.654.162 1.062 0 .414-.057.774-.171 1.08-.108.3-.255.552-.441.756a1.836 1.836 0 0 1-.657.45 2.206 2.206 0 0 1-.792.144Zm-.351-.999c.336 0 .609-.117.819-.351.21-.234.315-.594.315-1.08 0-.48-.105-.837-.315-1.071-.21-.24-.48-.36-.81-.36-.336 0-.615.12-.837.36-.222.234-.333.591-.333 1.071 0 .486.111.846.333 1.08.222.234.498.351.828.351Zm6.048-2.583a2.21 2.21 0 0 0-.927.099c-.276.09-.492.237-.648.441V344h-1.242v-4.671h1.161l.063.945h.018c.168-.306.384-.549.648-.729.27-.18.579-.282.927-.306v1.269Zm2.805 3.582c-.336 0-.648-.051-.936-.153a2.247 2.247 0 0 1-.747-.468 2.246 2.246 0 0 1-.495-.765 2.842 2.842 0 0 1-.18-1.044c0-.39.06-.735.18-1.035.12-.306.285-.561.495-.765.216-.204.465-.357.747-.459.288-.108.6-.162.936-.162.336 0 .648.054.936.162.294.102.546.255.756.459.216.204.384.459.504.765.126.3.189.645.189 1.035 0 .39-.063.738-.189 1.044-.12.3-.288.555-.504.765-.21.204-.462.36-.756.468-.288.102-.6.153-.936.153Zm0-.999c.324 0 .588-.117.792-.351.204-.234.306-.594.306-1.08 0-.48-.102-.837-.306-1.071a1.002 1.002 0 0 0-.792-.351 1 1 0 0 0-.774.351c-.204.234-.306.591-.306 1.071 0 .486.102.846.306 1.08a1 1 0 0 0 .774.351Zm6.541.081c-.15.282-.351.507-.603.675-.246.162-.552.243-.918.243-.264 0-.522-.048-.774-.144a1.925 1.925 0 0 1-.666-.45 2.376 2.376 0 0 1-.468-.756 3.09 3.09 0 0 1-.171-1.08c0-.408.057-.762.171-1.062a2.25 2.25 0 0 1 .468-.756c.198-.204.42-.354.666-.45.252-.102.513-.153.783-.153.342 0 .633.066.873.198.246.132.447.312.603.54v-2.43h1.242V344h-1.152l-.054-.828Zm-1.17-.081c.162 0 .312-.027.45-.081a.983.983 0 0 0 .36-.27c.102-.12.183-.267.243-.441.06-.18.09-.393.09-.639 0-.486-.111-.846-.333-1.08a1.057 1.057 0 0 0-.81-.351c-.33 0-.606.123-.828.369-.216.24-.324.594-.324 1.062 0 .48.108.84.324 1.08.216.234.492.351.828.351Zm3.384-2.376h2.241v1.026h-2.241v-1.026Zm5.855 3.285h-1.548l-1.575-4.671h1.287l1.134 3.483 1.152-3.483h1.143L361.866 344Zm3.396 0h-1.242v-4.671h1.161l.063.702h.018c.126-.228.303-.417.531-.567.234-.15.531-.225.891-.225.33 0 .615.075.855.225.246.15.42.378.522.684.138-.276.333-.495.585-.657.258-.168.57-.252.936-.252.21 0 .405.033.585.099.18.06.333.153.459.279.132.12.234.273.306.459.078.186.117.405.117.657V344h-1.251v-3.105c0-.228-.063-.396-.189-.504a.686.686 0 0 0-.477-.162.931.931 0 0 0-.585.18 1.45 1.45 0 0 0-.387.423V344h-1.251v-3.15c0-.234-.06-.396-.18-.486a.76.76 0 0 0-.468-.135c-.246 0-.447.051-.603.153a1.43 1.43 0 0 0-.396.387V344Zm-26.669 12h-.819v-5.436l-1.782 1.368v-.909l1.917-1.476h.684V356Zm4.093.09a1.96 1.96 0 0 1-.855-.189 1.884 1.884 0 0 1-.675-.603 3.362 3.362 0 0 1-.441-1.035c-.108-.42-.162-.918-.162-1.494s.054-1.071.162-1.485c.108-.42.255-.765.441-1.035.192-.27.417-.468.675-.594a1.96 1.96 0 0 1 .855-.189c.306 0 .588.063.846.189s.48.324.666.594c.186.264.33.603.432 1.017.108.414.162.909.162 1.485 0 .576-.054 1.074-.162 1.494a3.22 3.22 0 0 1-.432 1.035c-.186.276-.408.48-.666.612a1.83 1.83 0 0 1-.846.198Zm-.009-.711c.204 0 .384-.045.54-.135.156-.09.288-.237.396-.441a2.64 2.64 0 0 0 .243-.801c.06-.336.09-.744.09-1.224s-.027-.885-.081-1.215c-.054-.336-.135-.606-.243-.81a1.063 1.063 0 0 0-.396-.441 1.061 1.061 0 0 0-.54-.135c-.204 0-.387.045-.549.135-.156.09-.291.237-.405.441a2.81 2.81 0 0 0-.252.81 7.69 7.69 0 0 0-.081 1.215c0 .48.027.888.081 1.224.06.33.144.597.252.801.108.204.24.351.396.441.162.09.345.135.549.135Zm3.833.675a.572.572 0 0 1-.423-.162.57.57 0 0 1-.162-.405.56.56 0 0 1 .162-.414.572.572 0 0 1 .423-.162.56.56 0 0 1 .414.162.56.56 0 0 1 .162.414.57.57 0 0 1-.162.405.56.56 0 0 1-.414.162Zm4.678-.054h-.819v-5.436l-1.782 1.368v-.909l1.917-1.476h.684V356Zm2.968.054a.572.572 0 0 1-.423-.162.57.57 0 0 1-.162-.405.56.56 0 0 1 .162-.414.572.572 0 0 1 .423-.162.56.56 0 0 1 .414.162.56.56 0 0 1 .162.414.57.57 0 0 1-.162.405.56.56 0 0 1-.414.162Zm4.678-.054h-.819v-5.436l-1.782 1.368v-.909l1.917-1.476h.684V356Zm6.209-1.863c0 .3-.057.57-.171.81-.114.24-.273.447-.477.621a2.17 2.17 0 0 1-.729.387c-.282.09-.594.135-.936.135-.42 0-.783-.051-1.089-.153a2.25 2.25 0 0 1-.747-.396v-.9c.192.192.444.36.756.504.312.138.675.207 1.089.207.444 0 .792-.105 1.044-.315.258-.21.387-.504.387-.882 0-.36-.114-.639-.342-.837-.228-.204-.585-.306-1.071-.306h-.828v-.765h.864c.342 0 .618-.09.828-.27.21-.18.315-.441.315-.783 0-.306-.099-.546-.297-.72-.198-.18-.483-.27-.855-.27-.384 0-.714.072-.99.216-.27.144-.516.312-.738.504v-.882c.21-.174.459-.315.747-.423.288-.108.618-.162.99-.162.306 0 .582.042.828.126.246.078.453.192.621.342.174.15.306.33.396.54.09.204.135.432.135.684 0 .204-.03.387-.09.549a1.3 1.3 0 0 1-.252.423c-.102.12-.222.222-.36.306a1.642 1.642 0 0 1-.441.171c.186.03.363.087.531.171.174.084.327.192.459.324.132.126.234.279.306.459.078.174.117.369.117.585Zm1.42 1.917a.572.572 0 0 1-.423-.162.57.57 0 0 1-.162-.405.56.56 0 0 1 .162-.414.572.572 0 0 1 .423-.162.56.56 0 0 1 .414.162.56.56 0 0 1 .162.414.57.57 0 0 1-.162.405.56.56 0 0 1-.414.162Zm4.932-.054h-3.456v-.513l2.457-3.483h-2.385v-.675h3.375v.513l-2.457 3.483h2.466V356ZM377.414 126.547h2.187c.708 0 1.245.12 1.611.36.372.24.558.645.558 1.215 0 .234-.033.438-.099.612-.06.168-.147.315-.261.441a1.29 1.29 0 0 1-.405.297c-.156.078-.33.138-.522.18.504.06.882.207 1.134.441.258.228.387.576.387 1.044 0 .336-.063.624-.189.864-.12.234-.288.426-.504.576a2.393 2.393 0 0 1-.765.324 4.397 4.397 0 0 1-.963.099h-2.169v-6.453Zm.846.774v1.98h1.278c.204 0 .39-.021.558-.063.168-.048.312-.117.432-.207a.992.992 0 0 0 .279-.351c.072-.144.108-.315.108-.513 0-.33-.114-.552-.342-.666-.228-.12-.552-.18-.972-.18h-1.341Zm0 2.745v2.169h1.323c.228 0 .435-.018.621-.054.186-.036.345-.096.477-.18a.84.84 0 0 0 .315-.333 1.03 1.03 0 0 0 .117-.513c0-.408-.132-.69-.396-.846-.258-.162-.669-.243-1.233-.243h-1.224Zm8.14 1.008 2.097-4.527h1.098V133h-.855v-5.193l-1.98 4.203-.423.009h-.378l.009-.009-1.953-4.275V133h-.801v-6.453h1.179l2.007 4.527Zm-15.041 10.155c-.252 0-.471.051-.657.153-.18.102-.327.234-.441.396V145h-1.242v-4.671h1.17l.054.702h.018a1.53 1.53 0 0 1 .558-.567c.246-.15.558-.225.936-.225.222 0 .429.033.621.099.198.06.366.153.504.279.144.12.255.273.333.459.084.186.126.405.126.657V145h-1.251v-3.132c0-.234-.066-.399-.198-.495-.126-.096-.303-.144-.531-.144Zm7.063 3.465a4.49 4.49 0 0 1-.252.135c-.09.042-.201.084-.333.126a3.3 3.3 0 0 1-.45.09c-.168.03-.369.045-.603.045-.912 0-1.587-.213-2.025-.639-.438-.426-.657-1.023-.657-1.791 0-.378.057-.717.171-1.017.12-.3.285-.552.495-.756.21-.21.459-.369.747-.477.294-.114.618-.171.972-.171.36 0 .684.06.972.18.288.114.525.285.711.513.192.228.324.516.396.864.072.348.072.75 0 1.206h-3.168c.048.366.18.642.396.828.222.18.573.27 1.053.27.384 0 .696-.042.936-.126a5.19 5.19 0 0 0 .639-.261v.981Zm-1.917-3.528a.996.996 0 0 0-.693.252c-.186.168-.312.411-.378.729h1.944c.006-.33-.066-.576-.216-.738-.15-.162-.369-.243-.657-.243Zm5.656 3.654c-.12.078-.267.141-.441.189a2.088 2.088 0 0 1-.63.081c-.27 0-.495-.036-.675-.108a1.259 1.259 0 0 1-.441-.306 1.156 1.156 0 0 1-.234-.441 2.09 2.09 0 0 1-.072-.558v-2.367h-.558v-.981h.558v-.981h1.242v.981h1.323v.981h-1.323v2.232c0 .186.042.324.126.414.084.09.222.135.414.135.162 0 .3-.024.414-.072.114-.054.213-.117.297-.189v.99Zm.84-3.105h2.241v1.026h-2.241v-1.026Zm5.855 3.285h-1.548l-1.575-4.671h1.287l1.134 3.483 1.152-3.483h1.143L388.856 145Zm3.396 0h-1.242v-4.671h1.161l.063.702h.018c.126-.228.303-.417.531-.567.234-.15.531-.225.891-.225.33 0 .615.075.855.225.246.15.42.378.522.684.138-.276.333-.495.585-.657.258-.168.57-.252.936-.252.21 0 .405.033.585.099.18.06.333.153.459.279.132.12.234.273.306.459.078.186.117.405.117.657V145h-1.251v-3.105c0-.228-.063-.396-.189-.504a.686.686 0 0 0-.477-.162.931.931 0 0 0-.585.18 1.45 1.45 0 0 0-.387.423V145h-1.251v-3.15c0-.234-.06-.396-.18-.486a.76.76 0 0 0-.468-.135c-.246 0-.447.051-.603.153a1.43 1.43 0 0 0-.396.387V145Zm-23.857 12h-.819v-5.436l-1.782 1.368v-.909l1.917-1.476h.684V157Zm4.094.09a1.96 1.96 0 0 1-.855-.189 1.884 1.884 0 0 1-.675-.603 3.362 3.362 0 0 1-.441-1.035c-.108-.42-.162-.918-.162-1.494s.054-1.071.162-1.485c.108-.42.255-.765.441-1.035.192-.27.417-.468.675-.594a1.96 1.96 0 0 1 .855-.189c.306 0 .588.063.846.189s.48.324.666.594c.186.264.33.603.432 1.017.108.414.162.909.162 1.485 0 .576-.054 1.074-.162 1.494a3.22 3.22 0 0 1-.432 1.035c-.186.276-.408.48-.666.612a1.83 1.83 0 0 1-.846.198Zm-.009-.711c.204 0 .384-.045.54-.135.156-.09.288-.237.396-.441a2.64 2.64 0 0 0 .243-.801c.06-.336.09-.744.09-1.224s-.027-.885-.081-1.215c-.054-.336-.135-.606-.243-.81a1.063 1.063 0 0 0-.396-.441 1.061 1.061 0 0 0-.54-.135c-.204 0-.387.045-.549.135-.156.09-.291.237-.405.441a2.81 2.81 0 0 0-.252.81 7.69 7.69 0 0 0-.081 1.215c0 .48.027.888.081 1.224.06.33.144.597.252.801.108.204.24.351.396.441.162.09.345.135.549.135Zm3.832.675a.572.572 0 0 1-.423-.162.57.57 0 0 1-.162-.405.56.56 0 0 1 .162-.414.572.572 0 0 1 .423-.162.56.56 0 0 1 .414.162.56.56 0 0 1 .162.414.57.57 0 0 1-.162.405.56.56 0 0 1-.414.162Zm4.678-.054h-.819v-5.436l-1.782 1.368v-.909l1.917-1.476h.684V157Zm2.968.054a.572.572 0 0 1-.423-.162.57.57 0 0 1-.162-.405.56.56 0 0 1 .162-.414.572.572 0 0 1 .423-.162.56.56 0 0 1 .414.162.56.56 0 0 1 .162.414.57.57 0 0 1-.162.405.56.56 0 0 1-.414.162Zm4.679-.054h-.819v-5.436l-1.782 1.368v-.909l1.917-1.476h.684V157Zm4.948 0h-.819v-5.436l-1.782 1.368v-.909l1.917-1.476h.684V157Zm2.68.054a.572.572 0 0 1-.423-.162.57.57 0 0 1-.162-.405.56.56 0 0 1 .162-.414.572.572 0 0 1 .423-.162.56.56 0 0 1 .414.162.56.56 0 0 1 .162.414.57.57 0 0 1-.162.405.56.56 0 0 1-.414.162Zm3.384-1.908-1.26 1.854h-.828l1.692-2.421-1.494-2.25h.918l1.116 1.647 1.125-1.647h.819l-1.548 2.232 1.629 2.439h-.918l-1.251-1.854Z"/><path stroke="#262626" stroke-linecap="round" stroke-linejoin="round" stroke-width="2" d="M37 252a2 2 0 0 1 2-2h5.172a2 2 0 0 1 1.414.586l1.828 1.828a2 2 0 0 0 1.414.586H63a2 2 0 0 1 2 2v14a2 2 0 0 1-2 2H39a2 2 0 0 1-2-2v-17ZM312 252a2 2 0 0 1 2-2h5.172a2 2 0 0 1 1.414.586l1.828 1.828a2 2 0 0 0 1.414.586H338a2 2 0 0 1 2 2v14a2 2 0 0 1-2 2h-24a2 2 0 0 1-2-2v-17Z"/><path fill="#000" fill-opacity=".85" d="M71.286 256.237h-.684V259h-.846v-6.453h.846v2.925h.63l2.304-2.925h.954l-2.547 3.222L74.589 259h-1.053l-2.25-2.763Zm6.732 1.872a2.736 2.736 0 0 1-.207.342 1.566 1.566 0 0 1-.765.549c-.168.06-.366.09-.594.09-.42 0-.76-.117-1.017-.351-.258-.24-.387-.582-.387-1.026 0-.51.177-.885.53-1.125.36-.24.87-.36 1.53-.36h.874v-.387c0-.324-.084-.555-.252-.693-.168-.138-.456-.207-.864-.207a2.33 2.33 0 0 0-.82.144c-.257.09-.488.195-.692.315v-.711c.168-.102.393-.201.675-.297.288-.102.603-.153.945-.153.588 0 1.035.123 1.34.369.307.24.46.615.46 1.125v2.7c.006.066.009.135.009.207l.018.207c.006.06.012.111.018.153h-.72a4.111 4.111 0 0 1-.054-.351 5.38 5.38 0 0 1-.018-.405l-.01-.135Zm-1.395.27c.246 0 .456-.051.63-.153.174-.102.315-.219.423-.351a1.55 1.55 0 0 0 .234-.396.978.978 0 0 0 .072-.279v-.342h-.792c-.474 0-.82.069-1.035.207-.21.132-.315.333-.315.603 0 .21.063.381.189.513s.324.198.594.198Zm5.233-3.375V259h-.792v-3.996h-1.467v-.675h3.753v.675h-1.494Zm5.012 3.105a2.736 2.736 0 0 1-.207.342 1.566 1.566 0 0 1-.765.549c-.168.06-.366.09-.594.09-.42 0-.759-.117-1.017-.351-.258-.24-.387-.582-.387-1.026 0-.51.177-.885.531-1.125.36-.24.87-.36 1.53-.36h.873v-.387c0-.324-.084-.555-.252-.693-.168-.138-.456-.207-.864-.207a2.33 2.33 0 0 0-.819.144c-.258.09-.489.195-.693.315v-.711c.168-.102.393-.201.675-.297.288-.102.603-.153.945-.153.588 0 1.035.123 1.341.369.306.24.46.615.46 1.125v2.7c.005.066.008.135.008.207l.018.207c.006.06.012.111.018.153h-.72a4.111 4.111 0 0 1-.054-.351 5.38 5.38 0 0 1-.018-.405l-.009-.135Zm-1.395.27c.246 0 .456-.051.63-.153.174-.102.315-.219.423-.351a1.55 1.55 0 0 0 .234-.396.978.978 0 0 0 .072-.279v-.342h-.792c-.474 0-.819.069-1.035.207-.21.132-.315.333-.315.603 0 .21.063.381.19.513.125.132.323.198.593.198Zm3.757-.828c.084-.306.138-.72.162-1.242.024-.522.036-1.182.036-1.98h3.14V259h-.8v-3.996h-1.593a27.562 27.562 0 0 1-.063 1.71c-.03.498-.1.918-.207 1.26-.102.342-.255.603-.46.783-.197.174-.464.261-.8.261h-.072a.417.417 0 0 1-.081-.009v-.783c.03.006.069.009.117.009.306 0 .513-.228.62-.684Zm6.54 1.539c-.318 0-.615-.054-.89-.162a2.075 2.075 0 0 1-.72-.468 2.28 2.28 0 0 1-.469-.765 2.902 2.902 0 0 1-.17-1.035c0-.384.056-.726.17-1.026.114-.306.27-.561.468-.765.204-.204.444-.36.72-.468.276-.108.573-.162.891-.162.324 0 .624.054.9.162.276.108.513.264.711.468a2.1 2.1 0 0 1 .477.765c.12.3.18.642.18 1.026 0 .39-.06.735-.18 1.035-.114.3-.273.555-.477.765-.198.204-.435.36-.71.468a2.448 2.448 0 0 1-.9.162Zm0-.711c.21 0 .402-.033.576-.099.18-.072.336-.177.468-.315.132-.144.234-.324.306-.54.072-.216.108-.471.108-.765 0-.294-.036-.549-.108-.765a1.391 1.391 0 0 0-.306-.531 1.176 1.176 0 0 0-.468-.315 1.492 1.492 0 0 0-.576-.108c-.21 0-.402.036-.576.108a1.19 1.19 0 0 0-.459.315 1.46 1.46 0 0 0-.297.531 2.426 2.426 0 0 0-.108.765c0 .294.036.549.108.765.072.216.171.396.297.54.132.138.285.243.46.315.173.066.365.099.575.099Zm3.234-4.05h2.969v.675h-2.177V259h-.793v-4.671Zm-26.125 15.843c-.15.282-.351.507-.603.675-.246.162-.552.243-.918.243-.264 0-.522-.048-.774-.144a1.925 1.925 0 0 1-.666-.45 2.376 2.376 0 0 1-.468-.756 3.09 3.09 0 0 1-.171-1.08c0-.408.057-.762.171-1.062a2.25 2.25 0 0 1 .468-.756c.198-.204.42-.354.666-.45.252-.102.513-.153.783-.153.342 0 .633.066.873.198.246.132.447.312.603.54v-2.43h1.242V271h-1.152l-.054-.828Zm-1.17-.081c.162 0 .312-.027.45-.081a.983.983 0 0 0 .36-.27c.102-.12.183-.267.243-.441.06-.18.09-.393.09-.639 0-.486-.111-.846-.333-1.08a1.057 1.057 0 0 0-.81-.351c-.33 0-.606.123-.828.369-.216.24-.324.594-.324 1.062 0 .48.108.84.324 1.08.216.234.492.351.828.351Zm7.515.603a4.49 4.49 0 0 1-.252.135c-.09.042-.201.084-.333.126a3.3 3.3 0 0 1-.45.09c-.168.03-.369.045-.603.045-.912 0-1.587-.213-2.025-.639-.438-.426-.657-1.023-.657-1.791 0-.378.057-.717.171-1.017.12-.3.285-.552.495-.756.21-.21.459-.369.747-.477.294-.114.618-.171.972-.171.36 0 .684.06.972.18.288.114.525.285.711.513.192.228.324.516.396.864.072.348.072.75 0 1.206H76.2c.048.366.18.642.396.828.222.18.573.27 1.053.27.384 0 .696-.042.936-.126a5.19 5.19 0 0 0 .639-.261v.981Zm-1.917-3.528a.996.996 0 0 0-.693.252c-.186.168-.312.411-.378.729h1.944c.006-.33-.066-.576-.216-.738-.15-.162-.369-.243-.657-.243ZM82.811 271h-1.548l-1.575-4.671h1.287l1.134 3.483 1.152-3.483h1.143L82.811 271Zm2.082-3.285h2.24v1.026h-2.24v-1.026Zm4.838-.405V271h-1.242v-3.69h-.55v-.981h.55v-.054c0-.288.045-.543.135-.765a1.565 1.565 0 0 1 .99-.918c.234-.084.492-.126.774-.126.18 0 .324.009.432.027.108.012.204.03.288.054v1.008a1.064 1.064 0 0 0-.243-.063 1.633 1.633 0 0 0-.37-.036.794.794 0 0 0-.557.198c-.138.132-.207.339-.207.621v.054h1.278v.981H89.73Zm4.046 3.78c-.336 0-.648-.051-.936-.153a2.247 2.247 0 0 1-.747-.468 2.246 2.246 0 0 1-.495-.765 2.842 2.842 0 0 1-.18-1.044c0-.39.06-.735.18-1.035.12-.306.285-.561.495-.765.216-.204.465-.357.747-.459.288-.108.6-.162.936-.162.336 0 .648.054.936.162.294.102.546.255.756.459.216.204.384.459.504.765.126.3.189.645.189 1.035 0 .39-.063.738-.19 1.044-.12.3-.287.555-.503.765-.21.204-.462.36-.756.468-.288.102-.6.153-.936.153Zm0-.999c.324 0 .588-.117.792-.351.204-.234.306-.594.306-1.08 0-.48-.102-.837-.306-1.071a1.002 1.002 0 0 0-.792-.351 1 1 0 0 0-.774.351c-.204.234-.306.591-.306 1.071 0 .486.102.846.306 1.08a1 1 0 0 0 .774.351Zm4.445-5.544V271H96.98v-6.453h1.242Zm4.426 5.625c-.15.282-.351.507-.603.675-.246.162-.552.243-.918.243-.264 0-.522-.048-.774-.144a1.926 1.926 0 0 1-.666-.45 2.376 2.376 0 0 1-.468-.756 3.09 3.09 0 0 1-.171-1.08c0-.408.057-.762.17-1.062a2.25 2.25 0 0 1 .469-.756c.198-.204.42-.354.666-.45.252-.102.513-.153.783-.153.342 0 .633.066.873.198.246.132.447.312.603.54v-2.43h1.242V271h-1.152l-.054-.828Zm-1.17-.081c.162 0 .312-.027.45-.081a.983.983 0 0 0 .36-.27c.102-.12.183-.267.243-.441.06-.18.09-.393.09-.639 0-.486-.111-.846-.333-1.08a1.057 1.057 0 0 0-.81-.351c-.33 0-.606.123-.828.369-.216.24-.324.594-.324 1.062 0 .48.108.84.324 1.08.216.234.492.351.828.351Zm7.515.603a4.49 4.49 0 0 1-.252.135c-.09.042-.201.084-.333.126a3.3 3.3 0 0 1-.45.09c-.168.03-.369.045-.603.045-.912 0-1.587-.213-2.025-.639-.438-.426-.657-1.023-.657-1.791 0-.378.057-.717.171-1.017.12-.3.285-.552.495-.756.21-.21.459-.369.747-.477.294-.114.618-.171.972-.171.36 0 .684.06.972.18.288.114.525.285.711.513.192.228.324.516.396.864.072.348.072.75 0 1.206h-3.168c.048.366.18.642.396.828.222.18.573.27 1.053.27.384 0 .696-.042.936-.126a5.19 5.19 0 0 0 .639-.261v.981Zm-1.917-3.528a.996.996 0 0 0-.693.252c-.186.168-.312.411-.378.729h1.944c.006-.33-.066-.576-.216-.738-.15-.162-.369-.243-.657-.243Zm5.781.342a2.21 2.21 0 0 0-.927.099c-.276.09-.492.237-.648.441V271h-1.242v-4.671h1.161l.063.945h.018c.168-.306.384-.549.648-.729.27-.18.579-.282.927-.306v1.269ZM346.286 256.237h-.684V259h-.846v-6.453h.846v2.925h.63l2.304-2.925h.954l-2.547 3.222 2.646 3.231h-1.053l-2.25-2.763Zm6.732 1.872a2.736 2.736 0 0 1-.207.342 1.566 1.566 0 0 1-.765.549c-.168.06-.366.09-.594.09-.42 0-.759-.117-1.017-.351-.258-.24-.387-.582-.387-1.026 0-.51.177-.885.531-1.125.36-.24.87-.36 1.53-.36h.873v-.387c0-.324-.084-.555-.252-.693-.168-.138-.456-.207-.864-.207a2.33 2.33 0 0 0-.819.144c-.258.09-.489.195-.693.315v-.711c.168-.102.393-.201.675-.297.288-.102.603-.153.945-.153.588 0 1.035.123 1.341.369.306.24.459.615.459 1.125v2.7c.006.066.009.135.009.207l.018.207c.006.06.012.111.018.153h-.72a4.111 4.111 0 0 1-.054-.351 5.38 5.38 0 0 1-.018-.405l-.009-.135Zm-1.395.27c.246 0 .456-.051.63-.153.174-.102.315-.219.423-.351a1.55 1.55 0 0 0 .234-.396.978.978 0 0 0 .072-.279v-.342h-.792c-.474 0-.819.069-1.035.207-.21.132-.315.333-.315.603 0 .21.063.381.189.513s.324.198.594.198Zm5.233-3.375V259h-.792v-3.996h-1.467v-.675h3.753v.675h-1.494Zm5.012 3.105a2.736 2.736 0 0 1-.207.342 1.566 1.566 0 0 1-.765.549c-.168.06-.366.09-.594.09-.42 0-.759-.117-1.017-.351-.258-.24-.387-.582-.387-1.026 0-.51.177-.885.531-1.125.36-.24.87-.36 1.53-.36h.873v-.387c0-.324-.084-.555-.252-.693-.168-.138-.456-.207-.864-.207a2.33 2.33 0 0 0-.819.144c-.258.09-.489.195-.693.315v-.711c.168-.102.393-.201.675-.297.288-.102.603-.153.945-.153.588 0 1.035.123 1.341.369.306.24.459.615.459 1.125v2.7c.006.066.009.135.009.207l.018.207c.006.06.012.111.018.153h-.72a4.111 4.111 0 0 1-.054-.351 5.38 5.38 0 0 1-.018-.405l-.009-.135Zm-1.395.27c.246 0 .456-.051.63-.153.174-.102.315-.219.423-.351a1.55 1.55 0 0 0 .234-.396.978.978 0 0 0 .072-.279v-.342h-.792c-.474 0-.819.069-1.035.207-.21.132-.315.333-.315.603 0 .21.063.381.189.513s.324.198.594.198Zm3.757-.828c.084-.306.138-.72.162-1.242.024-.522.036-1.182.036-1.98h3.141V259h-.801v-3.996h-1.593a27.562 27.562 0 0 1-.063 1.71c-.03.498-.099.918-.207 1.26-.102.342-.255.603-.459.783-.198.174-.465.261-.801.261h-.072a.417.417 0 0 1-.081-.009v-.783c.03.006.069.009.117.009.306 0 .513-.228.621-.684Zm6.54 1.539c-.318 0-.615-.054-.891-.162a2.075 2.075 0 0 1-.72-.468 2.28 2.28 0 0 1-.468-.765 2.902 2.902 0 0 1-.171-1.035c0-.384.057-.726.171-1.026.114-.306.27-.561.468-.765.204-.204.444-.36.72-.468.276-.108.573-.162.891-.162.324 0 .624.054.9.162.276.108.513.264.711.468a2.1 2.1 0 0 1 .477.765c.12.3.18.642.18 1.026 0 .39-.06.735-.18 1.035-.114.3-.273.555-.477.765-.198.204-.435.36-.711.468a2.448 2.448 0 0 1-.9.162Zm0-.711c.21 0 .402-.033.576-.099.18-.072.336-.177.468-.315.132-.144.234-.324.306-.54.072-.216.108-.471.108-.765 0-.294-.036-.549-.108-.765a1.391 1.391 0 0 0-.306-.531 1.176 1.176 0 0 0-.468-.315 1.492 1.492 0 0 0-.576-.108c-.21 0-.402.036-.576.108a1.19 1.19 0 0 0-.459.315 1.46 1.46 0 0 0-.297.531 2.426 2.426 0 0 0-.108.765c0 .294.036.549.108.765.072.216.171.396.297.54.132.138.285.243.459.315.174.066.366.099.576.099Zm3.233-4.05h2.97v.675h-2.178V259h-.792v-4.671Zm-26.718 16.761c-.348 0-.648-.075-.9-.225a1.867 1.867 0 0 1-.603-.621v2.349h-1.242v-6.264h1.161l.063.765c.156-.27.36-.48.612-.63.252-.15.558-.225.918-.225.276 0 .537.051.783.153.252.096.471.246.657.45.192.198.342.45.45.756.108.3.162.654.162 1.062 0 .414-.057.774-.171 1.08-.108.3-.255.552-.441.756a1.836 1.836 0 0 1-.657.45 2.206 2.206 0 0 1-.792.144Zm-.351-.999c.336 0 .609-.117.819-.351.21-.234.315-.594.315-1.08 0-.48-.105-.837-.315-1.071-.21-.24-.48-.36-.81-.36-.336 0-.615.12-.837.36-.222.234-.333.591-.333 1.071 0 .486.111.846.333 1.08.222.234.498.351.828.351Zm6.048-2.583a2.21 2.21 0 0 0-.927.099c-.276.09-.492.237-.648.441V271h-1.242v-4.671h1.161l.063.945h.018c.168-.306.384-.549.648-.729.27-.18.579-.282.927-.306v1.269Zm2.804 3.582c-.336 0-.648-.051-.936-.153a2.247 2.247 0 0 1-.747-.468 2.246 2.246 0 0 1-.495-.765 2.842 2.842 0 0 1-.18-1.044c0-.39.06-.735.18-1.035.12-.306.285-.561.495-.765.216-.204.465-.357.747-.459.288-.108.6-.162.936-.162.336 0 .648.054.936.162.294.102.546.255.756.459.216.204.384.459.504.765.126.3.189.645.189 1.035 0 .39-.063.738-.189 1.044-.12.3-.288.555-.504.765-.21.204-.462.36-.756.468-.288.102-.6.153-.936.153Zm0-.999c.324 0 .588-.117.792-.351.204-.234.306-.594.306-1.08 0-.48-.102-.837-.306-1.071a1.002 1.002 0 0 0-.792-.351 1 1 0 0 0-.774.351c-.204.234-.306.591-.306 1.071 0 .486.102.846.306 1.08a1 1 0 0 0 .774.351Zm6.542.081c-.15.282-.351.507-.603.675-.246.162-.552.243-.918.243-.264 0-.522-.048-.774-.144a1.925 1.925 0 0 1-.666-.45 2.376 2.376 0 0 1-.468-.756 3.09 3.09 0 0 1-.171-1.08c0-.408.057-.762.171-1.062a2.25 2.25 0 0 1 .468-.756c.198-.204.42-.354.666-.45.252-.102.513-.153.783-.153.342 0 .633.066.873.198.246.132.447.312.603.54v-2.43h1.242V271h-1.152l-.054-.828Zm-1.17-.081c.162 0 .312-.027.45-.081a.983.983 0 0 0 .36-.27c.102-.12.183-.267.243-.441.06-.18.09-.393.09-.639 0-.486-.111-.846-.333-1.08a1.057 1.057 0 0 0-.81-.351c-.33 0-.606.123-.828.369-.216.24-.324.594-.324 1.062 0 .48.108.84.324 1.08.216.234.492.351.828.351Zm3.384-2.376h2.241v1.026h-2.241v-1.026Zm4.838-.405V271h-1.242v-3.69h-.549v-.981h.549v-.054c0-.288.045-.543.135-.765a1.565 1.565 0 0 1 .99-.918c.234-.084.492-.126.774-.126.18 0 .324.009.432.027.108.012.204.03.288.054v1.008a1.064 1.064 0 0 0-.243-.063 1.633 1.633 0 0 0-.369-.036.794.794 0 0 0-.558.198c-.138.132-.207.339-.207.621v.054h1.278v.981h-1.278Zm4.046 3.78c-.336 0-.648-.051-.936-.153a2.247 2.247 0 0 1-.747-.468 2.246 2.246 0 0 1-.495-.765 2.842 2.842 0 0 1-.18-1.044c0-.39.06-.735.18-1.035.12-.306.285-.561.495-.765.216-.204.465-.357.747-.459.288-.108.6-.162.936-.162.336 0 .648.054.936.162.294.102.546.255.756.459.216.204.384.459.504.765.126.3.189.645.189 1.035 0 .39-.063.738-.189 1.044-.12.3-.288.555-.504.765-.21.204-.462.36-.756.468-.288.102-.6.153-.936.153Zm0-.999c.324 0 .588-.117.792-.351.204-.234.306-.594.306-1.08 0-.48-.102-.837-.306-1.071a1.002 1.002 0 0 0-.792-.351 1 1 0 0 0-.774.351c-.204.234-.306.591-.306 1.071 0 .486.102.846.306 1.08a1 1 0 0 0 .774.351Zm4.445-5.544V271h-1.242v-6.453h1.242Zm4.426 5.625c-.15.282-.351.507-.603.675-.246.162-.552.243-.918.243-.264 0-.522-.048-.774-.144a1.925 1.925 0 0 1-.666-.45 2.376 2.376 0 0 1-.468-.756 3.09 3.09 0 0 1-.171-1.08c0-.408.057-.762.171-1.062a2.25 2.25 0 0 1 .468-.756c.198-.204.42-.354.666-.45.252-.102.513-.153.783-.153.342 0 .633.066.873.198.246.132.447.312.603.54v-2.43h1.242V271h-1.152l-.054-.828Zm-1.17-.081c.162 0 .312-.027.45-.081a.983.983 0 0 0 .36-.27c.102-.12.183-.267.243-.441.06-.18.09-.393.09-.639 0-.486-.111-.846-.333-1.08a1.057 1.057 0 0 0-.81-.351c-.33 0-.606.123-.828.369-.216.24-.324.594-.324 1.062 0 .48.108.84.324 1.08.216.234.492.351.828.351Zm7.515.603a4.49 4.49 0 0 1-.252.135c-.09.042-.201.084-.333.126a3.3 3.3 0 0 1-.45.09c-.168.03-.369.045-.603.045-.912 0-1.587-.213-2.025-.639-.438-.426-.657-1.023-.657-1.791 0-.378.057-.717.171-1.017.12-.3.285-.552.495-.756.21-.21.459-.369.747-.477.294-.114.618-.171.972-.171.36 0 .684.06.972.18.288.114.525.285.711.513.192.228.324.516.396.864.072.348.072.75 0 1.206h-3.168c.048.366.18.642.396.828.222.18.573.27 1.053.27.384 0 .696-.042.936-.126a5.19 5.19 0 0 0 .639-.261v.981Zm-1.917-3.528a.996.996 0 0 0-.693.252c-.186.168-.312.411-.378.729h1.944c.006-.33-.066-.576-.216-.738-.15-.162-.369-.243-.657-.243Zm5.781.342a2.21 2.21 0 0 0-.927.099c-.276.09-.492.237-.648.441V271h-1.242v-4.671h1.161l.063.945h.018c.168-.306.384-.549.648-.729.27-.18.579-.282.927-.306v1.269Z"/><path stroke="#262626" stroke-linecap="round" stroke-linejoin="round" stroke-width="2" d="m341 300 13 7v15l-13-7v-15ZM367 300l-13 7v15l13-7v-15Z"/><path stroke="#262626" stroke-linecap="round" stroke-linejoin="round" stroke-width="2" d="m367 300-13 7-13-7 13-7 13 7ZM371 100l13 7v15l-13-7v-15ZM397 100l-13 7v15l13-7v-15Z"/><path stroke="#262626" stroke-linecap="round" stroke-linejoin="round" stroke-width="2" d="m397 100-13 7-13-7 13-7 13 7Z"/><path fill="#FF5958" d="m172 285-5.773-10h11.547L172 285Zm-1-9V170h2v106h-2Z"/><path stroke="#FF5958" stroke-width="2" d="M170.967 170.267 241 169.99M270.088 170.445 435 172"/><path fill="#FF5958" d="m436 286-5.773-10h11.547L436 286Zm-1-9V171h2v106h-2ZM255 131l5.774 10h-11.547L255 131Zm1 9v14h-2v-14h2Z"/><path stroke="#4E496B" stroke-width="2" d="M90 307h44M367 308h37M284 106l85.979 1"/><rect width="32" height="32" x="239" y="154" fill="#5282FF" rx="16"/><path fill="#fff" d="M263.1 165.1c0-1.1-.9-2-2-2s-2 .9-2 2c0 .7.4 1.4 1 1.7v2.3h-4v-2.3c.6-.4 1-1 1-1.7 0-1.1-.9-2-2-2s-2 .9-2 2c0 .7.4 1.4 1 1.7v2.3h-4v-2.3c.6-.4 1-1 1-1.7 0-1.1-.9-2-2-2s-2 .9-2 2c0 .7.4 1.4 1 1.7v2.3c0 1.1.9 2 2 2h1v2.3c-.6.4-1 1-1 1.7 0 1.1.9 2 2 2s2-.9 2-2c0-.7-.4-1.4-1-1.7v-2.3h4v2.3c-.6.4-1 1-1 1.7 0 1.1.9 2 2 2s2-.9 2-2c0-.7-.4-1.4-1-1.7v-2.3h1c1.1 0 2-.9 2-2v-2.3c.6-.3 1-1 1-1.7Z"/><path stroke="#262626" stroke-linecap="round" stroke-linejoin="round" stroke-width="2" d="m64 300 13 7v15l-13-7v-15ZM90 300l-13 7v15l13-7v-15Z"/><path stroke="#262626" stroke-linecap="round" stroke-linejoin="round" stroke-width="2" d="m90 300-13 7-13-7 13-7 13 7Z"/><rect width="77" height="50" x="215" y="81" fill="#DAF4F2" rx="5"/><path fill="#000" fill-opacity=".85" d="M235.893 89.547h4.851V96h-.855v-5.679h-3.15V96h-.846v-6.453Zm8.164 6.543c-.318 0-.615-.054-.891-.162a2.075 2.075 0 0 1-.72-.468 2.28 2.28 0 0 1-.468-.765 2.902 2.902 0 0 1-.171-1.035c0-.384.057-.726.171-1.026.114-.306.27-.561.468-.765.204-.204.444-.36.72-.468.276-.108.573-.162.891-.162.324 0 .624.054.9.162.276.108.513.264.711.468a2.1 2.1 0 0 1 .477.765c.12.3.18.642.18 1.026 0 .39-.06.735-.18 1.035-.114.3-.273.555-.477.765-.198.204-.435.36-.711.468a2.448 2.448 0 0 1-.9.162Zm0-.711c.21 0 .402-.033.576-.099.18-.072.336-.177.468-.315.132-.144.234-.324.306-.54.072-.216.108-.471.108-.765 0-.294-.036-.549-.108-.765a1.391 1.391 0 0 0-.306-.531 1.176 1.176 0 0 0-.468-.315 1.492 1.492 0 0 0-.576-.108c-.21 0-.402.036-.576.108a1.19 1.19 0 0 0-.459.315 1.46 1.46 0 0 0-.297.531 2.426 2.426 0 0 0-.108.765c0 .294.036.549.108.765.072.216.171.396.297.54.132.138.285.243.459.315.174.066.366.099.576.099Zm2.937-.054c.168-.102.3-.261.396-.477.096-.216.171-.489.225-.819.054-.33.09-.72.108-1.17.024-.45.045-.96.063-1.53h3.213v3.996h.702v2.007h-.693L250.909 96h-3.474l-.081 1.332h-.711v-2.007h.351Zm3.213 0v-3.321h-1.71c-.03.882-.087 1.59-.171 2.124-.078.528-.216.927-.414 1.197h2.295Zm4.249.765c-.36 0-.687-.054-.981-.162a2.146 2.146 0 0 1-.738-.477 2.104 2.104 0 0 1-.468-.765 3.018 3.018 0 0 1-.162-1.026c0-.378.054-.717.162-1.017.114-.3.273-.552.477-.756.204-.21.453-.369.747-.477.294-.114.627-.171.999-.171.288 0 .552.033.792.099.24.06.438.15.594.27v.711a2.098 2.098 0 0 0-.648-.279 2.673 2.673 0 0 0-.729-.099c-.546 0-.948.141-1.206.423-.252.282-.378.714-.378 1.296 0 .582.123 1.014.369 1.296.246.282.636.423 1.17.423.282 0 .54-.033.774-.099.24-.072.456-.162.648-.27v.711a2.758 2.758 0 0 1-1.422.369Zm6.201-.486a2.508 2.508 0 0 1-.594.315 2.96 2.96 0 0 1-.468.117 2.898 2.898 0 0 1-.585.054c-.786 0-1.383-.213-1.791-.639-.408-.426-.612-1.023-.612-1.791 0-.378.054-.717.162-1.017.114-.3.27-.552.468-.756.198-.21.432-.369.702-.477.27-.114.564-.171.882-.171.336 0 .636.057.9.171.264.114.48.282.648.504.174.222.291.498.351.828.066.324.066.702 0 1.134h-3.294c.03.504.18.882.45 1.134.27.246.672.369 1.206.369.36 0 .669-.051.927-.153.258-.102.474-.213.648-.333v.711Zm-1.854-3.663c-.342 0-.636.105-.882.315-.246.21-.402.528-.468.954h2.511c.024-.432-.075-.75-.297-.954-.222-.21-.51-.315-.864-.315Zm4.817.063V96h-.792v-3.996h-1.467v-.675h3.753v.675h-1.494Zm5.882 2.439c0 .27-.048.504-.144.702-.096.198-.231.36-.405.486a1.785 1.785 0 0 1-.621.279c-.24.06-.501.09-.783.09h-1.548v-4.671h.792v1.629h.81c.594 0 1.059.117 1.395.351.336.234.504.612.504 1.134Zm-2.709-.81v1.692h.756c.342 0 .618-.063.828-.189.216-.132.324-.348.324-.648 0-.306-.096-.525-.288-.657-.192-.132-.462-.198-.81-.198h-.81Zm-30.846 14.457a3.279 3.279 0 0 1-1.125-.189 2.38 2.38 0 0 1-.612-.333v-.918c.06.054.141.111.243.171.102.06.222.117.36.171.144.048.306.09.486.126.18.03.378.045.594.045.324 0 .546-.045.666-.135a.42.42 0 0 0 .18-.351c0-.114-.03-.201-.09-.261a.516.516 0 0 0-.243-.144 1.593 1.593 0 0 0-.333-.081 5.588 5.588 0 0 1-.396-.072 6.269 6.269 0 0 1-.531-.135 1.88 1.88 0 0 1-.477-.243 1.222 1.222 0 0 1-.342-.396 1.323 1.323 0 0 1-.135-.63c0-.462.168-.822.504-1.08.336-.264.816-.396 1.44-.396.36 0 .666.039.918.117.252.078.432.156.54.234v.918a2.083 2.083 0 0 0-.54-.243c-.222-.072-.51-.108-.864-.108-.33 0-.561.039-.693.117a.378.378 0 0 0-.189.342c0 .102.027.18.081.234.06.054.138.096.234.126s.204.054.324.072c.126.012.255.027.387.045.174.03.351.072.531.126.18.048.342.126.486.234.15.108.27.252.36.432.096.174.144.396.144.666 0 .288-.054.531-.162.729a1.432 1.432 0 0 1-.432.477c-.18.12-.384.204-.612.252a3.036 3.036 0 0 1-.702.081Zm5.675-.792a1.647 1.647 0 0 1-.549.567c-.234.15-.546.225-.936.225-.222 0-.426-.03-.612-.09a1.344 1.344 0 0 1-.486-.297 1.448 1.448 0 0 1-.315-.486 1.948 1.948 0 0 1-.108-.684v-3.204h1.26v3.15c0 .24.066.402.198.486a.934.934 0 0 0 .495.126c.252 0 .462-.048.63-.144.168-.102.309-.234.423-.396v-3.222h1.233V108h-1.152l-.063-.702h-.018Zm7.127-1.638c0 .414-.057.774-.171 1.08-.108.3-.255.552-.441.756a1.836 1.836 0 0 1-.657.45 2.206 2.206 0 0 1-.792.144c-.36 0-.669-.081-.927-.243a1.77 1.77 0 0 1-.603-.657l-.045.81h-1.17v-6.453h1.242l-.009 2.529c.156-.264.36-.468.612-.612.252-.15.555-.225.909-.225.276 0 .537.051.783.153.252.096.471.246.657.45.192.198.342.45.45.756.108.3.162.654.162 1.062Zm-2.412 1.431c.336 0 .609-.117.819-.351.21-.234.315-.594.315-1.08 0-.48-.105-.837-.315-1.071-.21-.24-.48-.36-.81-.36-.336 0-.615.12-.837.36-.222.234-.333.591-.333 1.071 0 .486.111.846.333 1.08.222.234.498.351.828.351Zm5.571-2.862c-.252 0-.471.051-.657.153-.18.102-.327.234-.441.396V108h-1.242v-4.671h1.17l.054.702h.018a1.53 1.53 0 0 1 .558-.567c.246-.15.558-.225.936-.225.222 0 .429.033.621.099.198.06.366.153.504.279.144.12.255.273.333.459.084.186.126.405.126.657V108h-1.251v-3.132c0-.234-.066-.399-.198-.495-.126-.096-.303-.144-.531-.144Zm7.063 3.465a4.49 4.49 0 0 1-.252.135c-.09.042-.201.084-.333.126a3.3 3.3 0 0 1-.45.09c-.168.03-.369.045-.603.045-.912 0-1.587-.213-2.025-.639-.438-.426-.657-1.023-.657-1.791 0-.378.057-.717.171-1.017.12-.3.285-.552.495-.756.21-.21.459-.369.747-.477.294-.114.618-.171.972-.171.36 0 .684.06.972.18.288.114.525.285.711.513.192.228.324.516.396.864.072.348.072.75 0 1.206h-3.168c.048.366.18.642.396.828.222.18.573.27 1.053.27.384 0 .696-.042.936-.126a5.19 5.19 0 0 0 .639-.261v.981Zm-1.917-3.528a.996.996 0 0 0-.693.252c-.186.168-.312.411-.378.729h1.944c.006-.33-.066-.576-.216-.738-.15-.162-.369-.243-.657-.243Zm5.656 3.654c-.12.078-.267.141-.441.189a2.088 2.088 0 0 1-.63.081c-.27 0-.495-.036-.675-.108a1.259 1.259 0 0 1-.441-.306 1.156 1.156 0 0 1-.234-.441 2.09 2.09 0 0 1-.072-.558v-2.367h-.558v-.981h.558v-.981h1.242v.981h1.323v.981h-1.323v2.232c0 .186.042.324.126.414.084.09.222.135.414.135.162 0 .3-.024.414-.072.114-.054.213-.117.297-.189v.99Zm.84-3.105h2.241v1.026h-2.241v-1.026Zm5.99 3.285a5.056 5.056 0 0 1-.054-.351 12.86 12.86 0 0 0-.036-.387 1.452 1.452 0 0 1-.189.297 1.333 1.333 0 0 1-.279.27 1.487 1.487 0 0 1-.405.189c-.15.048-.327.072-.531.072-.198 0-.387-.027-.567-.081a1.36 1.36 0 0 1-.468-.252 1.24 1.24 0 0 1-.315-.423 1.399 1.399 0 0 1-.117-.594c0-.498.195-.882.585-1.152.39-.27.945-.405 1.665-.405h.576v-.207c0-.288-.075-.483-.225-.585-.144-.108-.378-.162-.702-.162-.324 0-.621.042-.891.126-.27.084-.507.177-.711.279v-.99c.204-.102.465-.195.783-.279a4.081 4.081 0 0 1 1.044-.126c.612 0 1.089.129 1.431.387.348.258.522.669.522 1.233v2.574c.006.066.009.135.009.207l.018.207c.006.06.012.111.018.153h-1.161Zm-1.116-.801a.878.878 0 0 0 .495-.126 1.102 1.102 0 0 0 .441-.639c.03-.114.045-.195.045-.243v-.279h-.531c-.372 0-.645.063-.819.189a.575.575 0 0 0-.252.495c0 .192.054.342.162.45a.663.663 0 0 0 .459.153ZM230.351 120h-.819v-5.436l-1.782 1.368v-.909l1.917-1.476h.684V120Zm4.093.09a1.96 1.96 0 0 1-.855-.189 1.884 1.884 0 0 1-.675-.603 3.362 3.362 0 0 1-.441-1.035c-.108-.42-.162-.918-.162-1.494s.054-1.071.162-1.485c.108-.42.255-.765.441-1.035.192-.27.417-.468.675-.594a1.96 1.96 0 0 1 .855-.189c.306 0 .588.063.846.189s.48.324.666.594c.186.264.33.603.432 1.017.108.414.162.909.162 1.485 0 .576-.054 1.074-.162 1.494a3.22 3.22 0 0 1-.432 1.035c-.186.276-.408.48-.666.612a1.83 1.83 0 0 1-.846.198Zm-.009-.711c.204 0 .384-.045.54-.135.156-.09.288-.237.396-.441a2.64 2.64 0 0 0 .243-.801c.06-.336.09-.744.09-1.224s-.027-.885-.081-1.215c-.054-.336-.135-.606-.243-.81a1.063 1.063 0 0 0-.396-.441 1.061 1.061 0 0 0-.54-.135c-.204 0-.387.045-.549.135-.156.09-.291.237-.405.441a2.81 2.81 0 0 0-.252.81 7.69 7.69 0 0 0-.081 1.215c0 .48.027.888.081 1.224.06.33.144.597.252.801.108.204.24.351.396.441.162.09.345.135.549.135Zm3.832.675a.572.572 0 0 1-.423-.162.57.57 0 0 1-.162-.405.56.56 0 0 1 .162-.414.572.572 0 0 1 .423-.162.56.56 0 0 1 .414.162.56.56 0 0 1 .162.414.57.57 0 0 1-.162.405.56.56 0 0 1-.414.162Zm4.679-.054h-.819v-5.436l-1.782 1.368v-.909l1.917-1.476h.684V120Zm2.968.054a.572.572 0 0 1-.423-.162.57.57 0 0 1-.162-.405.56.56 0 0 1 .162-.414.572.572 0 0 1 .423-.162.56.56 0 0 1 .414.162.56.56 0 0 1 .162.414.57.57 0 0 1-.162.405.56.56 0 0 1-.414.162Zm4.678-.054h-.819v-5.436l-1.782 1.368v-.909l1.917-1.476h.684V120Zm4.948 0h-.819v-5.436l-1.782 1.368v-.909l1.917-1.476h.684V120Zm2.969.054a.572.572 0 0 1-.423-.162.57.57 0 0 1-.162-.405.56.56 0 0 1 .162-.414.572.572 0 0 1 .423-.162.56.56 0 0 1 .414.162.56.56 0 0 1 .162.414.57.57 0 0 1-.162.405.56.56 0 0 1-.414.162Zm3.823.036a1.96 1.96 0 0 1-.855-.189 1.884 1.884 0 0 1-.675-.603 3.362 3.362 0 0 1-.441-1.035c-.108-.42-.162-.918-.162-1.494s.054-1.071.162-1.485c.108-.42.255-.765.441-1.035.192-.27.417-.468.675-.594a1.96 1.96 0 0 1 .855-.189c.306 0 .588.063.846.189s.48.324.666.594c.186.264.33.603.432 1.017.108.414.162.909.162 1.485 0 .576-.054 1.074-.162 1.494a3.22 3.22 0 0 1-.432 1.035c-.186.276-.408.48-.666.612a1.83 1.83 0 0 1-.846.198Zm-.009-.711c.204 0 .384-.045.54-.135.156-.09.288-.237.396-.441a2.64 2.64 0 0 0 .243-.801c.06-.336.09-.744.09-1.224s-.027-.885-.081-1.215c-.054-.336-.135-.606-.243-.81a1.063 1.063 0 0 0-.396-.441 1.061 1.061 0 0 0-.54-.135c-.204 0-.387.045-.549.135-.156.09-.291.237-.405.441a2.81 2.81 0 0 0-.252.81 7.69 7.69 0 0 0-.081 1.215c0 .48.027.888.081 1.224.06.33.144.597.252.801.108.204.24.351.396.441.162.09.345.135.549.135Zm2.464.981 2.592-7.164h.72l-2.592 7.164h-.72Zm7.868-.36h-4.113v-.855a51.376 51.376 0 0 0 1.413-1.17c.402-.342.732-.657.99-.945a3.68 3.68 0 0 0 .576-.819 1.88 1.88 0 0 0 .189-.819c0-.354-.108-.639-.324-.855-.21-.222-.519-.333-.927-.333-.342 0-.66.084-.954.252a3.225 3.225 0 0 0-.792.639v-.909c.228-.222.486-.399.774-.531.288-.132.621-.198.999-.198a2.7 2.7 0 0 1 .891.135c.264.09.483.216.657.378.18.162.315.357.405.585.096.228.144.48.144.756 0 .348-.069.675-.207.981-.132.306-.33.612-.594.918a8.819 8.819 0 0 1-.981.954c-.384.324-.825.678-1.323 1.062h3.177V120Zm4.219-1.53V120h-.792v-1.53h-2.79v-.558l2.52-4.365h1.062v4.239h.873v.684h-.873Zm-.792-.684v-3.357l-1.971 3.357h1.971Z"/><rect width="77" height="50" x="134" y="285" fill="#E3EBFF" rx="5"/><rect width="77" height="50" x="404" y="286" fill="#FFF5CC" rx="5"/><path fill="#000" fill-opacity=".85" d="M155.893 294.547h4.851V301h-.855v-5.679h-3.15V301h-.846v-6.453Zm8.164 6.543c-.318 0-.615-.054-.891-.162a2.075 2.075 0 0 1-.72-.468 2.28 2.28 0 0 1-.468-.765 2.902 2.902 0 0 1-.171-1.035c0-.384.057-.726.171-1.026.114-.306.27-.561.468-.765.204-.204.444-.36.72-.468.276-.108.573-.162.891-.162.324 0 .624.054.9.162.276.108.513.264.711.468a2.1 2.1 0 0 1 .477.765c.12.3.18.642.18 1.026 0 .39-.06.735-.18 1.035-.114.3-.273.555-.477.765-.198.204-.435.36-.711.468a2.448 2.448 0 0 1-.9.162Zm0-.711c.21 0 .402-.033.576-.099.18-.072.336-.177.468-.315.132-.144.234-.324.306-.54.072-.216.108-.471.108-.765 0-.294-.036-.549-.108-.765a1.391 1.391 0 0 0-.306-.531 1.176 1.176 0 0 0-.468-.315 1.492 1.492 0 0 0-.576-.108c-.21 0-.402.036-.576.108a1.19 1.19 0 0 0-.459.315 1.46 1.46 0 0 0-.297.531 2.426 2.426 0 0 0-.108.765c0 .294.036.549.108.765.072.216.171.396.297.54.132.138.285.243.459.315.174.066.366.099.576.099Zm2.937-.054c.168-.102.3-.261.396-.477.096-.216.171-.489.225-.819.054-.33.09-.72.108-1.17.024-.45.045-.96.063-1.53h3.213v3.996h.702v2.007h-.693l-.099-1.332h-3.474l-.081 1.332h-.711v-2.007h.351Zm3.213 0v-3.321h-1.71c-.03.882-.087 1.59-.171 2.124-.078.528-.216.927-.414 1.197h2.295Zm4.249.765c-.36 0-.687-.054-.981-.162a2.146 2.146 0 0 1-.738-.477 2.104 2.104 0 0 1-.468-.765 3.018 3.018 0 0 1-.162-1.026c0-.378.054-.717.162-1.017.114-.3.273-.552.477-.756.204-.21.453-.369.747-.477.294-.114.627-.171.999-.171.288 0 .552.033.792.099.24.06.438.15.594.27v.711a2.098 2.098 0 0 0-.648-.279 2.673 2.673 0 0 0-.729-.099c-.546 0-.948.141-1.206.423-.252.282-.378.714-.378 1.296 0 .582.123 1.014.369 1.296.246.282.636.423 1.17.423.282 0 .54-.033.774-.099.24-.072.456-.162.648-.27v.711a2.758 2.758 0 0 1-1.422.369Zm6.201-.486a2.508 2.508 0 0 1-.594.315 2.96 2.96 0 0 1-.468.117 2.898 2.898 0 0 1-.585.054c-.786 0-1.383-.213-1.791-.639-.408-.426-.612-1.023-.612-1.791 0-.378.054-.717.162-1.017.114-.3.27-.552.468-.756.198-.21.432-.369.702-.477.27-.114.564-.171.882-.171.336 0 .636.057.9.171.264.114.48.282.648.504.174.222.291.498.351.828.066.324.066.702 0 1.134h-3.294c.03.504.18.882.45 1.134.27.246.672.369 1.206.369.36 0 .669-.051.927-.153.258-.102.474-.213.648-.333v.711Zm-1.854-3.663c-.342 0-.636.105-.882.315-.246.21-.402.528-.468.954h2.511c.024-.432-.075-.75-.297-.954-.222-.21-.51-.315-.864-.315Zm4.817.063V301h-.792v-3.996h-1.467v-.675h3.753v.675h-1.494Zm5.882 2.439c0 .27-.048.504-.144.702-.096.198-.231.36-.405.486a1.785 1.785 0 0 1-.621.279c-.24.06-.501.09-.783.09h-1.548v-4.671h.792v1.629h.81c.594 0 1.059.117 1.395.351.336.234.504.612.504 1.134Zm-2.709-.81v1.692h.756c.342 0 .618-.063.828-.189.216-.132.324-.348.324-.648 0-.306-.096-.525-.288-.657-.192-.132-.462-.198-.81-.198h-.81Zm-31.207 14.457a3.279 3.279 0 0 1-1.125-.189 2.38 2.38 0 0 1-.612-.333v-.918c.06.054.141.111.243.171.102.06.222.117.36.171.144.048.306.09.486.126.18.03.378.045.594.045.324 0 .546-.045.666-.135a.42.42 0 0 0 .18-.351c0-.114-.03-.201-.09-.261a.516.516 0 0 0-.243-.144 1.593 1.593 0 0 0-.333-.081 5.588 5.588 0 0 1-.396-.072 6.269 6.269 0 0 1-.531-.135 1.88 1.88 0 0 1-.477-.243 1.222 1.222 0 0 1-.342-.396 1.323 1.323 0 0 1-.135-.63c0-.462.168-.822.504-1.08.336-.264.816-.396 1.44-.396.36 0 .666.039.918.117.252.078.432.156.54.234v.918a2.083 2.083 0 0 0-.54-.243c-.222-.072-.51-.108-.864-.108-.33 0-.561.039-.693.117a.378.378 0 0 0-.189.342c0 .102.027.18.081.234.06.054.138.096.234.126s.204.054.324.072c.126.012.255.027.387.045.174.03.351.072.531.126.18.048.342.126.486.234.15.108.27.252.36.432.096.174.144.396.144.666 0 .288-.054.531-.162.729a1.432 1.432 0 0 1-.432.477c-.18.12-.384.204-.612.252a3.036 3.036 0 0 1-.702.081Zm5.676-.792a1.647 1.647 0 0 1-.549.567c-.234.15-.546.225-.936.225-.222 0-.426-.03-.612-.09a1.344 1.344 0 0 1-.486-.297 1.448 1.448 0 0 1-.315-.486 1.948 1.948 0 0 1-.108-.684v-3.204h1.26v3.15c0 .24.066.402.198.486a.934.934 0 0 0 .495.126c.252 0 .462-.048.63-.144.168-.102.309-.234.423-.396v-3.222h1.233V313h-1.152l-.063-.702h-.018Zm7.127-1.638c0 .414-.057.774-.171 1.08-.108.3-.255.552-.441.756a1.836 1.836 0 0 1-.657.45 2.206 2.206 0 0 1-.792.144c-.36 0-.669-.081-.927-.243a1.77 1.77 0 0 1-.603-.657l-.045.81h-1.17v-6.453h1.242l-.009 2.529c.156-.264.36-.468.612-.612.252-.15.555-.225.909-.225.276 0 .537.051.783.153.252.096.471.246.657.45.192.198.342.45.45.756.108.3.162.654.162 1.062Zm-2.412 1.431c.336 0 .609-.117.819-.351.21-.234.315-.594.315-1.08 0-.48-.105-.837-.315-1.071-.21-.24-.48-.36-.81-.36-.336 0-.615.12-.837.36-.222.234-.333.591-.333 1.071 0 .486.111.846.333 1.08.222.234.498.351.828.351Zm5.571-2.862c-.252 0-.471.051-.657.153-.18.102-.327.234-.441.396V313h-1.242v-4.671h1.17l.054.702h.018a1.53 1.53 0 0 1 .558-.567c.246-.15.558-.225.936-.225.222 0 .429.033.621.099.198.06.366.153.504.279.144.12.255.273.333.459.084.186.126.405.126.657V313h-1.251v-3.132c0-.234-.066-.399-.198-.495-.126-.096-.303-.144-.531-.144Zm7.063 3.465a4.49 4.49 0 0 1-.252.135c-.09.042-.201.084-.333.126a3.3 3.3 0 0 1-.45.09c-.168.03-.369.045-.603.045-.912 0-1.587-.213-2.025-.639-.438-.426-.657-1.023-.657-1.791 0-.378.057-.717.171-1.017.12-.3.285-.552.495-.756.21-.21.459-.369.747-.477.294-.114.618-.171.972-.171.36 0 .684.06.972.18.288.114.525.285.711.513.192.228.324.516.396.864.072.348.072.75 0 1.206h-3.168c.048.366.18.642.396.828.222.18.573.27 1.053.27.384 0 .696-.042.936-.126a5.19 5.19 0 0 0 .639-.261v.981Zm-1.917-3.528a.996.996 0 0 0-.693.252c-.186.168-.312.411-.378.729h1.944c.006-.33-.066-.576-.216-.738-.15-.162-.369-.243-.657-.243Zm5.655 3.654c-.12.078-.267.141-.441.189a2.088 2.088 0 0 1-.63.081c-.27 0-.495-.036-.675-.108a1.259 1.259 0 0 1-.441-.306 1.156 1.156 0 0 1-.234-.441 2.09 2.09 0 0 1-.072-.558v-2.367h-.558v-.981h.558v-.981h1.242v.981h1.323v.981h-1.323v2.232c0 .186.042.324.126.414.084.09.222.135.414.135.162 0 .3-.024.414-.072.114-.054.213-.117.297-.189v.99Zm.841-3.105h2.241v1.026h-2.241v-1.026Zm8.051.945c0 .414-.057.774-.171 1.08-.108.3-.255.552-.441.756a1.836 1.836 0 0 1-.657.45 2.206 2.206 0 0 1-.792.144c-.36 0-.669-.081-.927-.243a1.77 1.77 0 0 1-.603-.657l-.045.81h-1.17v-6.453h1.242l-.009 2.529c.156-.264.36-.468.612-.612.252-.15.555-.225.909-.225.276 0 .537.051.783.153.252.096.471.246.657.45.192.198.342.45.45.756.108.3.162.654.162 1.062Zm-2.412 1.431c.336 0 .609-.117.819-.351.21-.234.315-.594.315-1.08 0-.48-.105-.837-.315-1.071-.21-.24-.48-.36-.81-.36-.336 0-.615.12-.837.36-.222.234-.333.591-.333 1.071 0 .486.111.846.333 1.08.222.234.498.351.828.351ZM150.351 325h-.819v-5.436l-1.782 1.368v-.909l1.917-1.476h.684V325Zm4.093.09a1.96 1.96 0 0 1-.855-.189 1.884 1.884 0 0 1-.675-.603 3.362 3.362 0 0 1-.441-1.035c-.108-.42-.162-.918-.162-1.494s.054-1.071.162-1.485c.108-.42.255-.765.441-1.035.192-.27.417-.468.675-.594a1.96 1.96 0 0 1 .855-.189c.306 0 .588.063.846.189s.48.324.666.594c.186.264.33.603.432 1.017.108.414.162.909.162 1.485 0 .576-.054 1.074-.162 1.494a3.22 3.22 0 0 1-.432 1.035c-.186.276-.408.48-.666.612a1.83 1.83 0 0 1-.846.198Zm-.009-.711c.204 0 .384-.045.54-.135.156-.09.288-.237.396-.441a2.64 2.64 0 0 0 .243-.801c.06-.336.09-.744.09-1.224s-.027-.885-.081-1.215c-.054-.336-.135-.606-.243-.81a1.063 1.063 0 0 0-.396-.441 1.061 1.061 0 0 0-.54-.135c-.204 0-.387.045-.549.135-.156.09-.291.237-.405.441a2.81 2.81 0 0 0-.252.81 7.69 7.69 0 0 0-.081 1.215c0 .48.027.888.081 1.224.06.33.144.597.252.801.108.204.24.351.396.441.162.09.345.135.549.135Zm3.832.675a.572.572 0 0 1-.423-.162.57.57 0 0 1-.162-.405.56.56 0 0 1 .162-.414.572.572 0 0 1 .423-.162.56.56 0 0 1 .414.162.56.56 0 0 1 .162.414.57.57 0 0 1-.162.405.56.56 0 0 1-.414.162Zm4.679-.054h-.819v-5.436l-1.782 1.368v-.909l1.917-1.476h.684V325Zm2.968.054a.572.572 0 0 1-.423-.162.57.57 0 0 1-.162-.405.56.56 0 0 1 .162-.414.572.572 0 0 1 .423-.162.56.56 0 0 1 .414.162.56.56 0 0 1 .162.414.57.57 0 0 1-.162.405.56.56 0 0 1-.414.162Zm4.678-.054h-.819v-5.436l-1.782 1.368v-.909l1.917-1.476h.684V325Zm6.154 0h-4.113v-.855a51.376 51.376 0 0 0 1.413-1.17c.402-.342.732-.657.99-.945a3.68 3.68 0 0 0 .576-.819 1.88 1.88 0 0 0 .189-.819c0-.354-.108-.639-.324-.855-.21-.222-.519-.333-.927-.333-.342 0-.66.084-.954.252a3.225 3.225 0 0 0-.792.639v-.909c.228-.222.486-.399.774-.531.288-.132.621-.198.999-.198a2.7 2.7 0 0 1 .891.135c.264.09.483.216.657.378.18.162.315.357.405.585.096.228.144.48.144.756 0 .348-.069.675-.207.981-.132.306-.33.612-.594.918a8.819 8.819 0 0 1-.981.954c-.384.324-.825.678-1.323 1.062h3.177V325Zm1.763.054a.572.572 0 0 1-.423-.162.57.57 0 0 1-.162-.405.56.56 0 0 1 .162-.414.572.572 0 0 1 .423-.162.56.56 0 0 1 .414.162.56.56 0 0 1 .162.414.57.57 0 0 1-.162.405.56.56 0 0 1-.414.162Zm3.823.036a1.96 1.96 0 0 1-.855-.189 1.884 1.884 0 0 1-.675-.603 3.362 3.362 0 0 1-.441-1.035c-.108-.42-.162-.918-.162-1.494s.054-1.071.162-1.485c.108-.42.255-.765.441-1.035.192-.27.417-.468.675-.594a1.96 1.96 0 0 1 .855-.189c.306 0 .588.063.846.189s.48.324.666.594c.186.264.33.603.432 1.017.108.414.162.909.162 1.485 0 .576-.054 1.074-.162 1.494a3.22 3.22 0 0 1-.432 1.035c-.186.276-.408.48-.666.612a1.83 1.83 0 0 1-.846.198Zm-.009-.711c.204 0 .384-.045.54-.135.156-.09.288-.237.396-.441a2.64 2.64 0 0 0 .243-.801c.06-.336.09-.744.09-1.224s-.027-.885-.081-1.215c-.054-.336-.135-.606-.243-.81a1.063 1.063 0 0 0-.396-.441 1.061 1.061 0 0 0-.54-.135c-.204 0-.387.045-.549.135-.156.09-.291.237-.405.441a2.81 2.81 0 0 0-.252.81 7.69 7.69 0 0 0-.081 1.215c0 .48.027.888.081 1.224.06.33.144.597.252.801.108.204.24.351.396.441.162.09.345.135.549.135Zm2.464.981 2.592-7.164h.72l-2.592 7.164h-.72Zm7.868-.36h-4.113v-.855a51.376 51.376 0 0 0 1.413-1.17c.402-.342.732-.657.99-.945a3.68 3.68 0 0 0 .576-.819 1.88 1.88 0 0 0 .189-.819c0-.354-.108-.639-.324-.855-.21-.222-.519-.333-.927-.333-.342 0-.66.084-.954.252a3.225 3.225 0 0 0-.792.639v-.909c.228-.222.486-.399.774-.531.288-.132.621-.198.999-.198a2.7 2.7 0 0 1 .891.135c.264.09.483.216.657.378.18.162.315.357.405.585.096.228.144.48.144.756 0 .348-.069.675-.207.981-.132.306-.33.612-.594.918a8.819 8.819 0 0 1-.981.954c-.384.324-.825.678-1.323 1.062h3.177V325Zm4.219-1.53V325h-.792v-1.53h-2.79v-.558l2.52-4.365h1.062v4.239h.873v.684h-.873Zm-.792-.684v-3.357l-1.971 3.357h1.971ZM426.893 295.547h4.851V302h-.855v-5.679h-3.15V302h-.846v-6.453Zm8.164 6.543c-.318 0-.615-.054-.891-.162a2.075 2.075 0 0 1-.72-.468 2.28 2.28 0 0 1-.468-.765 2.902 2.902 0 0 1-.171-1.035c0-.384.057-.726.171-1.026.114-.306.27-.561.468-.765.204-.204.444-.36.72-.468.276-.108.573-.162.891-.162.324 0 .624.054.9.162.276.108.513.264.711.468a2.1 2.1 0 0 1 .477.765c.12.3.18.642.18 1.026 0 .39-.06.735-.18 1.035-.114.3-.273.555-.477.765-.198.204-.435.36-.711.468a2.448 2.448 0 0 1-.9.162Zm0-.711c.21 0 .402-.033.576-.099.18-.072.336-.177.468-.315.132-.144.234-.324.306-.54.072-.216.108-.471.108-.765 0-.294-.036-.549-.108-.765a1.391 1.391 0 0 0-.306-.531 1.176 1.176 0 0 0-.468-.315 1.492 1.492 0 0 0-.576-.108c-.21 0-.402.036-.576.108a1.19 1.19 0 0 0-.459.315 1.46 1.46 0 0 0-.297.531 2.426 2.426 0 0 0-.108.765c0 .294.036.549.108.765.072.216.171.396.297.54.132.138.285.243.459.315.174.066.366.099.576.099Zm2.937-.054c.168-.102.3-.261.396-.477.096-.216.171-.489.225-.819.054-.33.09-.72.108-1.17.024-.45.045-.96.063-1.53h3.213v3.996h.702v2.007h-.693l-.099-1.332h-3.474l-.081 1.332h-.711v-2.007h.351Zm3.213 0v-3.321h-1.71c-.03.882-.087 1.59-.171 2.124-.078.528-.216.927-.414 1.197h2.295Zm4.249.765c-.36 0-.687-.054-.981-.162a2.146 2.146 0 0 1-.738-.477 2.104 2.104 0 0 1-.468-.765 3.018 3.018 0 0 1-.162-1.026c0-.378.054-.717.162-1.017.114-.3.273-.552.477-.756.204-.21.453-.369.747-.477.294-.114.627-.171.999-.171.288 0 .552.033.792.099.24.06.438.15.594.27v.711a2.098 2.098 0 0 0-.648-.279 2.673 2.673 0 0 0-.729-.099c-.546 0-.948.141-1.206.423-.252.282-.378.714-.378 1.296 0 .582.123 1.014.369 1.296.246.282.636.423 1.17.423.282 0 .54-.033.774-.099.24-.072.456-.162.648-.27v.711a2.758 2.758 0 0 1-1.422.369Zm6.201-.486a2.508 2.508 0 0 1-.594.315 2.96 2.96 0 0 1-.468.117 2.898 2.898 0 0 1-.585.054c-.786 0-1.383-.213-1.791-.639-.408-.426-.612-1.023-.612-1.791 0-.378.054-.717.162-1.017.114-.3.27-.552.468-.756.198-.21.432-.369.702-.477.27-.114.564-.171.882-.171.336 0 .636.057.9.171.264.114.48.282.648.504.174.222.291.498.351.828.066.324.066.702 0 1.134h-3.294c.03.504.18.882.45 1.134.27.246.672.369 1.206.369.36 0 .669-.051.927-.153.258-.102.474-.213.648-.333v.711Zm-1.854-3.663c-.342 0-.636.105-.882.315-.246.21-.402.528-.468.954h2.511c.024-.432-.075-.75-.297-.954-.222-.21-.51-.315-.864-.315Zm4.817.063V302h-.792v-3.996h-1.467v-.675h3.753v.675h-1.494Zm5.882 2.439c0 .27-.048.504-.144.702-.096.198-.231.36-.405.486a1.785 1.785 0 0 1-.621.279c-.24.06-.501.09-.783.09h-1.548v-4.671h.792v1.629h.81c.594 0 1.059.117 1.395.351.336.234.504.612.504 1.134Zm-2.709-.81v1.692h.756c.342 0 .618-.063.828-.189.216-.132.324-.348.324-.648 0-.306-.096-.525-.288-.657-.192-.132-.462-.198-.81-.198h-.81Zm-30.684 14.457a3.279 3.279 0 0 1-1.125-.189 2.38 2.38 0 0 1-.612-.333v-.918c.06.054.141.111.243.171.102.06.222.117.36.171.144.048.306.09.486.126.18.03.378.045.594.045.324 0 .546-.045.666-.135a.42.42 0 0 0 .18-.351c0-.114-.03-.201-.09-.261a.516.516 0 0 0-.243-.144 1.593 1.593 0 0 0-.333-.081 5.588 5.588 0 0 1-.396-.072 6.269 6.269 0 0 1-.531-.135 1.88 1.88 0 0 1-.477-.243 1.222 1.222 0 0 1-.342-.396 1.323 1.323 0 0 1-.135-.63c0-.462.168-.822.504-1.08.336-.264.816-.396 1.44-.396.36 0 .666.039.918.117.252.078.432.156.54.234v.918a2.083 2.083 0 0 0-.54-.243c-.222-.072-.51-.108-.864-.108-.33 0-.561.039-.693.117a.378.378 0 0 0-.189.342c0 .102.027.18.081.234.06.054.138.096.234.126s.204.054.324.072c.126.012.255.027.387.045.174.03.351.072.531.126.18.048.342.126.486.234.15.108.27.252.36.432.096.174.144.396.144.666 0 .288-.054.531-.162.729a1.432 1.432 0 0 1-.432.477c-.18.12-.384.204-.612.252a3.036 3.036 0 0 1-.702.081Zm5.676-.792a1.647 1.647 0 0 1-.549.567c-.234.15-.546.225-.936.225-.222 0-.426-.03-.612-.09a1.344 1.344 0 0 1-.486-.297 1.448 1.448 0 0 1-.315-.486 1.948 1.948 0 0 1-.108-.684v-3.204h1.26v3.15c0 .24.066.402.198.486a.934.934 0 0 0 .495.126c.252 0 .462-.048.63-.144.168-.102.309-.234.423-.396v-3.222h1.233V314h-1.152l-.063-.702h-.018Zm7.127-1.638c0 .414-.057.774-.171 1.08-.108.3-.255.552-.441.756a1.836 1.836 0 0 1-.657.45 2.206 2.206 0 0 1-.792.144c-.36 0-.669-.081-.927-.243a1.77 1.77 0 0 1-.603-.657l-.045.81h-1.17v-6.453h1.242l-.009 2.529c.156-.264.36-.468.612-.612.252-.15.555-.225.909-.225.276 0 .537.051.783.153.252.096.471.246.657.45.192.198.342.45.45.756.108.3.162.654.162 1.062Zm-2.412 1.431c.336 0 .609-.117.819-.351.21-.234.315-.594.315-1.08 0-.48-.105-.837-.315-1.071-.21-.24-.48-.36-.81-.36-.336 0-.615.12-.837.36-.222.234-.333.591-.333 1.071 0 .486.111.846.333 1.08.222.234.498.351.828.351Zm5.571-2.862c-.252 0-.471.051-.657.153-.18.102-.327.234-.441.396V314h-1.242v-4.671h1.17l.054.702h.018a1.53 1.53 0 0 1 .558-.567c.246-.15.558-.225.936-.225.222 0 .429.033.621.099.198.06.366.153.504.279.144.12.255.273.333.459.084.186.126.405.126.657V314H443.8v-3.132c0-.234-.066-.399-.198-.495-.126-.096-.303-.144-.531-.144Zm7.063 3.465a4.49 4.49 0 0 1-.252.135c-.09.042-.201.084-.333.126a3.3 3.3 0 0 1-.45.09c-.168.03-.369.045-.603.045-.912 0-1.587-.213-2.025-.639-.438-.426-.657-1.023-.657-1.791 0-.378.057-.717.171-1.017.12-.3.285-.552.495-.756.21-.21.459-.369.747-.477.294-.114.618-.171.972-.171.36 0 .684.06.972.18.288.114.525.285.711.513.192.228.324.516.396.864.072.348.072.75 0 1.206h-3.168c.048.366.18.642.396.828.222.18.573.27 1.053.27.384 0 .696-.042.936-.126a5.19 5.19 0 0 0 .639-.261v.981Zm-1.917-3.528a.996.996 0 0 0-.693.252c-.186.168-.312.411-.378.729h1.944c.006-.33-.066-.576-.216-.738-.15-.162-.369-.243-.657-.243Zm5.655 3.654c-.12.078-.267.141-.441.189a2.088 2.088 0 0 1-.63.081c-.27 0-.495-.036-.675-.108a1.259 1.259 0 0 1-.441-.306 1.156 1.156 0 0 1-.234-.441 2.09 2.09 0 0 1-.072-.558v-2.367h-.558v-.981h.558v-.981h1.242v.981h1.323v.981h-1.323v2.232c0 .186.042.324.126.414.084.09.222.135.414.135.162 0 .3-.024.414-.072.114-.054.213-.117.297-.189v.99Zm.841-3.105h2.241v1.026h-2.241v-1.026Zm5.494 3.375c-.39 0-.741-.054-1.053-.162a2.287 2.287 0 0 1-.783-.477 2.18 2.18 0 0 1-.504-.765 2.874 2.874 0 0 1-.171-1.026c0-.378.057-.717.171-1.017a2.091 2.091 0 0 1 1.296-1.233 3.052 3.052 0 0 1 1.053-.171c.36 0 .66.039.9.117.24.072.429.159.567.261v.99a2.39 2.39 0 0 0-1.359-.378c-.9 0-1.35.477-1.35 1.431 0 .954.444 1.431 1.332 1.431.33 0 .597-.033.801-.099a3.16 3.16 0 0 0 .576-.27v.981c-.138.102-.33.192-.576.27-.24.078-.54.117-.9.117ZM421.351 326h-.819v-5.436l-1.782 1.368v-.909l1.917-1.476h.684V326Zm4.093.09a1.96 1.96 0 0 1-.855-.189 1.884 1.884 0 0 1-.675-.603 3.362 3.362 0 0 1-.441-1.035c-.108-.42-.162-.918-.162-1.494s.054-1.071.162-1.485c.108-.42.255-.765.441-1.035.192-.27.417-.468.675-.594a1.96 1.96 0 0 1 .855-.189c.306 0 .588.063.846.189s.48.324.666.594c.186.264.33.603.432 1.017.108.414.162.909.162 1.485 0 .576-.054 1.074-.162 1.494a3.22 3.22 0 0 1-.432 1.035c-.186.276-.408.48-.666.612a1.83 1.83 0 0 1-.846.198Zm-.009-.711c.204 0 .384-.045.54-.135.156-.09.288-.237.396-.441a2.64 2.64 0 0 0 .243-.801c.06-.336.09-.744.09-1.224s-.027-.885-.081-1.215c-.054-.336-.135-.606-.243-.81a1.063 1.063 0 0 0-.396-.441 1.061 1.061 0 0 0-.54-.135c-.204 0-.387.045-.549.135-.156.09-.291.237-.405.441a2.81 2.81 0 0 0-.252.81 7.69 7.69 0 0 0-.081 1.215c0 .48.027.888.081 1.224.06.33.144.597.252.801.108.204.24.351.396.441.162.09.345.135.549.135Zm3.832.675a.572.572 0 0 1-.423-.162.57.57 0 0 1-.162-.405.56.56 0 0 1 .162-.414.572.572 0 0 1 .423-.162.56.56 0 0 1 .414.162.56.56 0 0 1 .162.414.57.57 0 0 1-.162.405.56.56 0 0 1-.414.162Zm4.679-.054h-.819v-5.436l-1.782 1.368v-.909l1.917-1.476h.684V326Zm2.968.054a.572.572 0 0 1-.423-.162.57.57 0 0 1-.162-.405.56.56 0 0 1 .162-.414.572.572 0 0 1 .423-.162.56.56 0 0 1 .414.162.56.56 0 0 1 .162.414.57.57 0 0 1-.162.405.56.56 0 0 1-.414.162Zm4.678-.054h-.819v-5.436l-1.782 1.368v-.909l1.917-1.476h.684V326Zm6.208-1.863c0 .3-.057.57-.171.81-.114.24-.273.447-.477.621a2.17 2.17 0 0 1-.729.387c-.282.09-.594.135-.936.135-.42 0-.783-.051-1.089-.153a2.25 2.25 0 0 1-.747-.396v-.9c.192.192.444.36.756.504.312.138.675.207 1.089.207.444 0 .792-.105 1.044-.315.258-.21.387-.504.387-.882 0-.36-.114-.639-.342-.837-.228-.204-.585-.306-1.071-.306h-.828v-.765h.864c.342 0 .618-.09.828-.27.21-.18.315-.441.315-.783 0-.306-.099-.546-.297-.72-.198-.18-.483-.27-.855-.27-.384 0-.714.072-.99.216-.27.144-.516.312-.738.504v-.882c.21-.174.459-.315.747-.423.288-.108.618-.162.99-.162.306 0 .582.042.828.126.246.078.453.192.621.342.174.15.306.33.396.54.09.204.135.432.135.684 0 .204-.03.387-.09.549a1.3 1.3 0 0 1-.252.423c-.102.12-.222.222-.36.306a1.642 1.642 0 0 1-.441.171c.186.03.363.087.531.171.174.084.327.192.459.324.132.126.234.279.306.459.078.174.117.369.117.585Zm1.709 1.917a.572.572 0 0 1-.423-.162.57.57 0 0 1-.162-.405.56.56 0 0 1 .162-.414.572.572 0 0 1 .423-.162.56.56 0 0 1 .414.162.56.56 0 0 1 .162.414.57.57 0 0 1-.162.405.56.56 0 0 1-.414.162Zm3.823.036a1.96 1.96 0 0 1-.855-.189 1.884 1.884 0 0 1-.675-.603 3.362 3.362 0 0 1-.441-1.035c-.108-.42-.162-.918-.162-1.494s.054-1.071.162-1.485c.108-.42.255-.765.441-1.035.192-.27.417-.468.675-.594a1.96 1.96 0 0 1 .855-.189c.306 0 .588.063.846.189s.48.324.666.594c.186.264.33.603.432 1.017.108.414.162.909.162 1.485 0 .576-.054 1.074-.162 1.494a3.22 3.22 0 0 1-.432 1.035c-.186.276-.408.48-.666.612a1.83 1.83 0 0 1-.846.198Zm-.009-.711c.204 0 .384-.045.54-.135.156-.09.288-.237.396-.441a2.64 2.64 0 0 0 .243-.801c.06-.336.09-.744.09-1.224s-.027-.885-.081-1.215c-.054-.336-.135-.606-.243-.81a1.063 1.063 0 0 0-.396-.441 1.061 1.061 0 0 0-.54-.135c-.204 0-.387.045-.549.135-.156.09-.291.237-.405.441a2.81 2.81 0 0 0-.252.81 7.69 7.69 0 0 0-.081 1.215c0 .48.027.888.081 1.224.06.33.144.597.252.801.108.204.24.351.396.441.162.09.345.135.549.135Zm2.464.981 2.592-7.164h.72l-2.592 7.164h-.72Zm7.868-.36h-4.113v-.855a51.376 51.376 0 0 0 1.413-1.17c.402-.342.732-.657.99-.945a3.68 3.68 0 0 0 .576-.819 1.88 1.88 0 0 0 .189-.819c0-.354-.108-.639-.324-.855-.21-.222-.519-.333-.927-.333-.342 0-.66.084-.954.252a3.225 3.225 0 0 0-.792.639v-.909c.228-.222.486-.399.774-.531.288-.132.621-.198.999-.198a2.7 2.7 0 0 1 .891.135c.264.09.483.216.657.378.18.162.315.357.405.585.096.228.144.48.144.756 0 .348-.069.675-.207.981-.132.306-.33.612-.594.918a8.819 8.819 0 0 1-.981.954c-.384.324-.825.678-1.323 1.062h3.177V326Zm4.219-1.53V326h-.792v-1.53h-2.79v-.558l2.52-4.365h1.062v4.239h.873v.684h-.873Zm-.792-.684v-3.357l-1.971 3.357h1.971Z"/><defs><filter id="a" width="522" height="393" x="0" y="0" color-interpolation-filters="sRGB" filterUnits="userSpaceOnUse"><feFlood flood-opacity="0" result="BackgroundImageFix"/><feColorMatrix in="SourceAlpha" result="hardAlpha" values="0 0 0 0 0 0 0 0 0 0 0 0 0 0 0 0 0 0 127 0"/><feOffset/><feGaussianBlur stdDeviation="3"/><feColorMatrix values="0 0 0 0 0.321569 0 0 0 0 0.509804 0 0 0 0 1 0 0 0 0.2 0"/><feBlend in2="BackgroundImageFix" result="effect1_dropShadow_202_135"/><feBlend in="SourceGraphic" in2="effect1_dropShadow_202_135" result="shape"/></filter></defs></svg>