<svg xmlns="http://www.w3.org/2000/svg" width="800" height="600" fill="none" viewBox="0 0 800 600">
    <g clip-path="url(#clip0)">
        <path fill="#fff" d="M0 0h800v600H0z"/>
        <path fill="#fff" d="M46 42h673v547H46z"/>
        <g filter="url(#filter0_d)">
            <rect width="673" height="547" x="46" y="42" fill="#fff" rx="15"/>
        </g>
        <path fill="#67B0F8" d="M359.494 568.14a5.264 5.264 0 0 1-1.89-.336 4.354 4.354 0 0 1-1.526-1.008 4.783 4.783 0 0 1-1.022-1.624c-.242-.644-.364-1.386-.364-2.226 0-.84.122-1.577.364-2.212.252-.644.593-1.176 1.022-1.596.43-.429.938-.751 1.526-.966a5.264 5.264 0 0 1 1.89-.336c.682 0 1.316.112 1.904.336a4.14 4.14 0 0 1 1.526.966c.43.429.766.966 1.008 1.61.243.635.364 1.372.364 2.212 0 .831-.121 1.568-.364 2.212a4.593 4.593 0 0 1-1.008 1.624 4.344 4.344 0 0 1-1.526 1.008 5.301 5.301 0 0 1-1.904.336Zm0-1.19c.486 0 .934-.07 1.344-.21a2.778 2.778 0 0 0 1.064-.686c.308-.317.546-.728.714-1.232.178-.504.266-1.115.266-1.834 0-.719-.088-1.33-.266-1.834-.168-.504-.406-.91-.714-1.218a2.583 2.583 0 0 0-1.064-.686 3.908 3.908 0 0 0-1.344-.224c-.485 0-.933.075-1.344.224-.41.14-.77.369-1.078.686-.298.308-.536.714-.714 1.218-.168.504-.252 1.115-.252 1.834 0 .719.084 1.33.252 1.834.178.504.416.915.714 1.232.308.308.668.537 1.078.686.411.14.859.21 1.344.21Zm6.56-8.988h6.118v1.204h-4.802v2.828h1.988c1.111 0 1.965.229 2.562.686.597.457.896 1.195.896 2.212 0 .56-.089 1.036-.266 1.428a2.492 2.492 0 0 1-.756.966 2.98 2.98 0 0 1-1.148.546 6.12 6.12 0 0 1-1.484.168h-3.108v-10.038Zm1.316 5.222v3.626h1.792c.336 0 .639-.028.91-.084.28-.065.518-.173.714-.322.205-.149.364-.341.476-.574.112-.233.168-.527.168-.882 0-.597-.182-1.041-.546-1.33-.364-.289-.887-.434-1.568-.434h-1.946Zm7.995 1.778c.14-.7.234-1.629.28-2.786.047-1.157.08-2.562.098-4.214h6.188V568h-1.33v-8.834h-3.612a133.747 133.747 0 0 1-.112 3.542c-.046.989-.135 1.834-.266 2.534a9.48 9.48 0 0 1-.308 1.078 3.164 3.164 0 0 1-.49.896 2.254 2.254 0 0 1-.728.63c-.289.149-.634.224-1.036.224a.434.434 0 0 1-.098-.014h-.098v-1.33a.775.775 0 0 0 .168.014c.392-.009.686-.177.882-.504.206-.336.36-.761.462-1.274Zm11.574-7h1.96L392.497 568h-1.4l-1.036-2.87h-4.438l-1.022 2.87h-1.232l3.57-10.038Zm2.702 5.978-1.792-4.998-1.792 4.998h3.584Zm6.697-.238h-1.064V568h-1.316v-10.038h1.316v4.55h.98l3.584-4.55h1.484l-3.962 5.012 4.116 5.026h-1.638l-3.5-4.298Zm10.174 4.438a5.264 5.264 0 0 1-1.89-.336 4.344 4.344 0 0 1-1.526-1.008 4.783 4.783 0 0 1-1.022-1.624c-.243-.644-.364-1.386-.364-2.226 0-.84.121-1.577.364-2.212.252-.644.593-1.176 1.022-1.596a4.14 4.14 0 0 1 1.526-.966 5.264 5.264 0 0 1 1.89-.336c.681 0 1.316.112 1.904.336a4.14 4.14 0 0 1 1.526.966c.429.429.765.966 1.008 1.61.243.635.364 1.372.364 2.212 0 .831-.121 1.568-.364 2.212a4.622 4.622 0 0 1-1.008 1.624 4.344 4.344 0 0 1-1.526 1.008 5.305 5.305 0 0 1-1.904.336Zm0-1.19c.485 0 .933-.07 1.344-.21a2.786 2.786 0 0 0 1.064-.686c.308-.317.546-.728.714-1.232.177-.504.266-1.115.266-1.834 0-.719-.089-1.33-.266-1.834-.168-.504-.406-.91-.714-1.218a2.59 2.59 0 0 0-1.064-.686 3.916 3.916 0 0 0-1.344-.224c-.485 0-.933.075-1.344.224-.411.14-.77.369-1.078.686-.299.308-.537.714-.714 1.218-.168.504-.252 1.115-.252 1.834 0 .719.084 1.33.252 1.834.177.504.415.915.714 1.232.308.308.667.537 1.078.686.411.14.859.21 1.344.21Z"/>
        <rect width="191" height="432" x="90.5" y="84.5" fill="#fff" stroke="#D1D0D8" stroke-dasharray="8 8" rx="4.5"/>
        <rect width="160" height="432" x="303.5" y="84.5" fill="#fff" stroke="#D1D0D8" stroke-dasharray="8 8" rx="4.5"/>
        <path fill="#fff" d="M106 505h160v15H106z"/>
        <path fill="#000" d="M115.114 514.752v-1.28h1.616c.8 0 1.408-.171 1.824-.512.416-.352.624-.832.624-1.44 0-.651-.219-1.109-.656-1.376-.437-.277-1.013-.416-1.728-.416-.736 0-1.397.08-1.984.24a7.695 7.695 0 0 0-1.552.592v-1.424c.352-.181.811-.352 1.376-.512.576-.16 1.301-.24 2.176-.24 1.195 0 2.144.251 2.848.752.704.491 1.056 1.253 1.056 2.288 0 .672-.203 1.227-.608 1.664-.395.437-.976.747-1.744.928.907.117 1.589.395 2.048.832.469.427.704 1.04.704 1.84 0 .608-.117 1.136-.352 1.584a3.001 3.001 0 0 1-.96 1.072 4.267 4.267 0 0 1-1.408.624 7.525 7.525 0 0 1-1.728.192c-.864 0-1.605-.101-2.224-.304-.619-.213-1.072-.443-1.36-.688v-1.44c.992.715 2.171 1.072 3.536 1.072.395 0 .768-.032 1.12-.096.352-.075.661-.192.928-.352.267-.16.475-.373.624-.64.16-.267.24-.597.24-.992 0-.725-.235-1.232-.704-1.52-.459-.299-1.147-.448-2.064-.448h-1.648Zm11.384 5.408a4.303 4.303 0 0 1-1.584-.288 3.676 3.676 0 0 1-1.28-.832 4.044 4.044 0 0 1-.832-1.36c-.203-.533-.304-1.147-.304-1.84 0-.683.101-1.291.304-1.824.202-.544.48-.997.832-1.36.362-.363.789-.64 1.28-.832a4.303 4.303 0 0 1 1.584-.288c.576 0 1.109.096 1.6.288.49.192.912.469 1.264.832.362.363.645.816.848 1.36.213.533.32 1.141.32 1.824 0 .693-.107 1.307-.32 1.84a3.938 3.938 0 0 1-.848 1.36 3.53 3.53 0 0 1-1.264.832 4.354 4.354 0 0 1-1.6.288Zm0-1.264c.373 0 .714-.059 1.024-.176.32-.128.597-.315.832-.56.234-.256.416-.576.544-.96.128-.384.192-.837.192-1.36 0-.523-.064-.976-.192-1.36a2.479 2.479 0 0 0-.544-.944 2.09 2.09 0 0 0-.832-.56 2.657 2.657 0 0 0-1.024-.192 2.65 2.65 0 0 0-1.024.192 2.1 2.1 0 0 0-.816.56c-.224.245-.4.56-.528.944-.128.384-.192.837-.192 1.36 0 .523.064.976.192 1.36.128.384.304.704.528.96.234.245.506.432.816.56.309.117.65.176 1.024.176Zm11.172-2.576h-4.016V520h-1.408v-8.304h1.408v3.424h4.016v-3.424h1.408V520h-1.408v-3.68Zm8.58 2.096a4.762 4.762 0 0 1-.368.608 2.775 2.775 0 0 1-1.36.976c-.298.107-.65.16-1.056.16-.746 0-1.349-.208-1.808-.624-.458-.427-.688-1.035-.688-1.824 0-.907.315-1.573.944-2 .64-.427 1.547-.64 2.72-.64h1.552v-.688c0-.576-.149-.987-.448-1.232-.298-.245-.81-.368-1.536-.368-.512 0-.997.085-1.456.256a6.98 6.98 0 0 0-1.232.56v-1.264c.299-.181.699-.357 1.2-.528a5.008 5.008 0 0 1 1.68-.272c1.046 0 1.84.219 2.384.656.544.427.816 1.093.816 2v4.8c.011.117.016.24.016.368l.032.368c.011.107.022.197.032.272h-1.28a7.266 7.266 0 0 1-.096-.624 9.73 9.73 0 0 1-.032-.72l-.016-.24Zm-2.48.48c.438 0 .811-.091 1.12-.272.31-.181.56-.389.752-.624a2.74 2.74 0 0 0 .416-.704c.086-.235.128-.4.128-.496v-.608h-1.408c-.842 0-1.456.123-1.84.368-.373.235-.56.592-.56 1.072 0 .373.112.677.336.912.224.235.576.352 1.056.352Zm9.106-.096c.299-.181.533-.464.704-.848.171-.384.304-.869.4-1.456.096-.587.16-1.28.192-2.08.043-.8.08-1.707.112-2.72h5.712v7.104h1.248v3.568h-1.232l-.176-2.368h-6.176l-.144 2.368h-1.264V518.8h.624Zm5.712 0v-5.904h-3.04c-.053 1.568-.155 2.827-.304 3.776-.139.939-.384 1.648-.736 2.128h4.08Zm7.378 1.36a4.31 4.31 0 0 1-1.584-.288 3.694 3.694 0 0 1-1.28-.832 4.06 4.06 0 0 1-.832-1.36c-.202-.533-.304-1.147-.304-1.84 0-.683.102-1.291.304-1.824a3.86 3.86 0 0 1 .832-1.36c.363-.363.79-.64 1.28-.832a4.31 4.31 0 0 1 1.584-.288c.576 0 1.11.096 1.6.288.491.192.912.469 1.264.832.363.363.646.816.848 1.36.214.533.32 1.141.32 1.824 0 .693-.106 1.307-.32 1.84a3.909 3.909 0 0 1-.848 1.36c-.352.363-.773.64-1.264.832a4.35 4.35 0 0 1-1.6.288Zm0-1.264a2.87 2.87 0 0 0 1.024-.176c.32-.128.598-.315.832-.56.235-.256.416-.576.544-.96.128-.384.192-.837.192-1.36 0-.523-.064-.976-.192-1.36a2.466 2.466 0 0 0-.544-.944 2.083 2.083 0 0 0-.832-.56 2.65 2.65 0 0 0-1.024-.192c-.373 0-.714.064-1.024.192a2.115 2.115 0 0 0-.816.56c-.224.245-.4.56-.528.944-.128.384-.192.837-.192 1.36 0 .523.064.976.192 1.36.128.384.304.704.528.96.235.245.507.432.816.56.31.117.651.176 1.024.176Zm9.333 1.264c-.64 0-1.222-.096-1.744-.288a3.809 3.809 0 0 1-1.312-.848 3.735 3.735 0 0 1-.832-1.36c-.192-.533-.288-1.141-.288-1.824 0-.672.096-1.275.288-1.808a3.75 3.75 0 0 1 .848-1.344 3.503 3.503 0 0 1 1.328-.848c.522-.203 1.114-.304 1.776-.304.512 0 .981.059 1.408.176.426.107.778.267 1.056.48v1.264a3.753 3.753 0 0 0-1.152-.496 4.764 4.764 0 0 0-1.296-.176c-.971 0-1.686.251-2.144.752-.448.501-.673 1.269-.673 2.304s.219 1.803.657 2.304c.437.501 1.13.752 2.08.752.501 0 .96-.059 1.376-.176.426-.128.81-.288 1.152-.48v1.264a4.904 4.904 0 0 1-2.528.656Zm7.76-7.264V520h-1.408v-7.104h-2.608v-1.2h6.672v1.2h-2.656Zm8.595 7.008a9.549 9.549 0 0 1-.608 1.312 4.357 4.357 0 0 1-.72.976 2.57 2.57 0 0 1-.896.592 2.91 2.91 0 0 1-1.136.208c-.213 0-.411-.016-.592-.048a1.77 1.77 0 0 1-.496-.128v-1.36c.117.085.267.149.448.192.181.053.379.08.592.08.395 0 .72-.096.976-.288.256-.181.501-.475.736-.88l-3.376-8.864h1.552l2.64 7.008 2.624-7.008h1.36l-3.104 8.208Zm4.498-8.208h6.656V520H201.4v-7.104h-3.84V520h-1.408v-8.304Zm14.377 4.624h-4.016V520h-1.408v-8.304h1.408v3.424h4.016v-3.424h1.408V520h-1.408v-3.68Zm7.125 3.84a4.303 4.303 0 0 1-1.584-.288 3.676 3.676 0 0 1-1.28-.832 4.044 4.044 0 0 1-.832-1.36c-.203-.533-.304-1.147-.304-1.84 0-.683.101-1.291.304-1.824.202-.544.48-.997.832-1.36.362-.363.789-.64 1.28-.832a4.303 4.303 0 0 1 1.584-.288c.576 0 1.109.096 1.6.288.49.192.912.469 1.264.832.362.363.645.816.848 1.36.213.533.32 1.141.32 1.824 0 .693-.107 1.307-.32 1.84a3.938 3.938 0 0 1-.848 1.36 3.53 3.53 0 0 1-1.264.832 4.354 4.354 0 0 1-1.6.288Zm0-1.264c.373 0 .714-.059 1.024-.176.32-.128.597-.315.832-.56.234-.256.416-.576.544-.96.128-.384.192-.837.192-1.36 0-.523-.064-.976-.192-1.36a2.479 2.479 0 0 0-.544-.944 2.09 2.09 0 0 0-.832-.56 2.657 2.657 0 0 0-1.024-.192 2.65 2.65 0 0 0-1.024.192 2.1 2.1 0 0 0-.816.56c-.224.245-.4.56-.528.944-.128.384-.192.837-.192 1.36 0 .523.064.976.192 1.36.128.384.304.704.528.96.234.245.506.432.816.56.309.117.65.176 1.024.176Zm9.332 1.264c-.64 0-1.221-.096-1.744-.288a3.818 3.818 0 0 1-1.312-.848 3.735 3.735 0 0 1-.832-1.36c-.192-.533-.288-1.141-.288-1.824 0-.672.096-1.275.288-1.808.203-.533.485-.981.848-1.344a3.511 3.511 0 0 1 1.328-.848c.523-.203 1.115-.304 1.776-.304.512 0 .981.059 1.408.176.427.107.779.267 1.056.48v1.264a3.732 3.732 0 0 0-1.152-.496 4.764 4.764 0 0 0-1.296-.176c-.971 0-1.685.251-2.144.752-.448.501-.672 1.269-.672 2.304s.219 1.803.656 2.304c.437.501 1.131.752 2.08.752.501 0 .96-.059 1.376-.176a5.645 5.645 0 0 0 1.152-.48v1.264a4.904 4.904 0 0 1-2.528.656Zm7.76-7.264V520h-1.408v-7.104h-2.608v-1.2h6.672v1.2h-2.656Zm5.689 5.184 4.432-6.384h1.424V520h-1.408v-6.368L240.467 520h-1.44v-8.304h1.408v6.384Zm16.47 1.92h-1.456v-9.664l-3.168 2.432v-1.616l3.408-2.624h1.216V520Z"/>
        <path fill="#fff" d="M308 505h152v15H308z"/>
        <path fill="#000" d="M313.114 514.752v-1.28h1.616c.8 0 1.408-.171 1.824-.512.416-.352.624-.832.624-1.44 0-.651-.219-1.109-.656-1.376-.437-.277-1.013-.416-1.728-.416-.736 0-1.397.08-1.984.24a7.695 7.695 0 0 0-1.552.592v-1.424c.352-.181.811-.352 1.376-.512.576-.16 1.301-.24 2.176-.24 1.195 0 2.144.251 2.848.752.704.491 1.056 1.253 1.056 2.288 0 .672-.203 1.227-.608 1.664-.395.437-.976.747-1.744.928.907.117 1.589.395 2.048.832.469.427.704 1.04.704 1.84 0 .608-.117 1.136-.352 1.584a3.001 3.001 0 0 1-.96 1.072 4.267 4.267 0 0 1-1.408.624 7.525 7.525 0 0 1-1.728.192c-.864 0-1.605-.101-2.224-.304-.619-.213-1.072-.443-1.36-.688v-1.44c.992.715 2.171 1.072 3.536 1.072.395 0 .768-.032 1.12-.096.352-.075.661-.192.928-.352.267-.16.475-.373.624-.64.16-.267.24-.597.24-.992 0-.725-.235-1.232-.704-1.52-.459-.299-1.147-.448-2.064-.448h-1.648Zm11.384 5.408a4.303 4.303 0 0 1-1.584-.288 3.676 3.676 0 0 1-1.28-.832 4.044 4.044 0 0 1-.832-1.36c-.203-.533-.304-1.147-.304-1.84 0-.683.101-1.291.304-1.824.202-.544.48-.997.832-1.36.362-.363.789-.64 1.28-.832a4.303 4.303 0 0 1 1.584-.288c.576 0 1.109.096 1.6.288.49.192.912.469 1.264.832.362.363.645.816.848 1.36.213.533.32 1.141.32 1.824 0 .693-.107 1.307-.32 1.84a3.938 3.938 0 0 1-.848 1.36 3.53 3.53 0 0 1-1.264.832 4.354 4.354 0 0 1-1.6.288Zm0-1.264c.373 0 .714-.059 1.024-.176.32-.128.597-.315.832-.56.234-.256.416-.576.544-.96.128-.384.192-.837.192-1.36 0-.523-.064-.976-.192-1.36a2.479 2.479 0 0 0-.544-.944 2.09 2.09 0 0 0-.832-.56 2.657 2.657 0 0 0-1.024-.192 2.65 2.65 0 0 0-1.024.192 2.1 2.1 0 0 0-.816.56c-.224.245-.4.56-.528.944-.128.384-.192.837-.192 1.36 0 .523.064.976.192 1.36.128.384.304.704.528.96.234.245.506.432.816.56.309.117.65.176 1.024.176Zm11.172-2.576h-4.016V520h-1.408v-8.304h1.408v3.424h4.016v-3.424h1.408V520h-1.408v-3.68Zm8.58 2.096a4.762 4.762 0 0 1-.368.608 2.775 2.775 0 0 1-1.36.976c-.298.107-.65.16-1.056.16-.746 0-1.349-.208-1.808-.624-.458-.427-.688-1.035-.688-1.824 0-.907.315-1.573.944-2 .64-.427 1.547-.64 2.72-.64h1.552v-.688c0-.576-.149-.987-.448-1.232-.298-.245-.81-.368-1.536-.368-.512 0-.997.085-1.456.256a6.98 6.98 0 0 0-1.232.56v-1.264c.299-.181.699-.357 1.2-.528a5.008 5.008 0 0 1 1.68-.272c1.046 0 1.84.219 2.384.656.544.427.816 1.093.816 2v4.8c.011.117.016.24.016.368l.032.368c.011.107.022.197.032.272h-1.28a7.266 7.266 0 0 1-.096-.624 9.73 9.73 0 0 1-.032-.72l-.016-.24Zm-2.48.48c.438 0 .811-.091 1.12-.272.31-.181.56-.389.752-.624a2.74 2.74 0 0 0 .416-.704c.086-.235.128-.4.128-.496v-.608h-1.408c-.842 0-1.456.123-1.84.368-.373.235-.56.592-.56 1.072 0 .373.112.677.336.912.224.235.576.352 1.056.352Zm9.106-.096c.299-.181.533-.464.704-.848.171-.384.304-.869.4-1.456.096-.587.16-1.28.192-2.08.043-.8.08-1.707.112-2.72h5.712v7.104h1.248v3.568h-1.232l-.176-2.368h-6.176l-.144 2.368h-1.264V518.8h.624Zm5.712 0v-5.904h-3.04c-.053 1.568-.155 2.827-.304 3.776-.139.939-.384 1.648-.736 2.128h4.08Zm7.378 1.36a4.31 4.31 0 0 1-1.584-.288 3.694 3.694 0 0 1-1.28-.832 4.06 4.06 0 0 1-.832-1.36c-.202-.533-.304-1.147-.304-1.84 0-.683.102-1.291.304-1.824a3.86 3.86 0 0 1 .832-1.36c.363-.363.79-.64 1.28-.832a4.31 4.31 0 0 1 1.584-.288c.576 0 1.11.096 1.6.288.491.192.912.469 1.264.832.363.363.646.816.848 1.36.214.533.32 1.141.32 1.824 0 .693-.106 1.307-.32 1.84a3.909 3.909 0 0 1-.848 1.36c-.352.363-.773.64-1.264.832a4.35 4.35 0 0 1-1.6.288Zm0-1.264a2.87 2.87 0 0 0 1.024-.176c.32-.128.598-.315.832-.56.235-.256.416-.576.544-.96.128-.384.192-.837.192-1.36 0-.523-.064-.976-.192-1.36a2.466 2.466 0 0 0-.544-.944 2.083 2.083 0 0 0-.832-.56 2.65 2.65 0 0 0-1.024-.192c-.373 0-.714.064-1.024.192a2.115 2.115 0 0 0-.816.56c-.224.245-.4.56-.528.944-.128.384-.192.837-.192 1.36 0 .523.064.976.192 1.36.128.384.304.704.528.96.235.245.507.432.816.56.31.117.651.176 1.024.176Zm9.333 1.264c-.64 0-1.222-.096-1.744-.288a3.809 3.809 0 0 1-1.312-.848 3.735 3.735 0 0 1-.832-1.36c-.192-.533-.288-1.141-.288-1.824 0-.672.096-1.275.288-1.808a3.75 3.75 0 0 1 .848-1.344 3.503 3.503 0 0 1 1.328-.848c.522-.203 1.114-.304 1.776-.304.512 0 .981.059 1.408.176.426.107.778.267 1.056.48v1.264a3.753 3.753 0 0 0-1.152-.496 4.764 4.764 0 0 0-1.296-.176c-.971 0-1.686.251-2.144.752-.448.501-.673 1.269-.673 2.304s.219 1.803.657 2.304c.437.501 1.13.752 2.08.752.501 0 .96-.059 1.376-.176.426-.128.81-.288 1.152-.48v1.264a4.904 4.904 0 0 1-2.528.656Zm7.76-7.264V520h-1.408v-7.104h-2.608v-1.2h6.672v1.2h-2.656Zm8.595 7.008a9.549 9.549 0 0 1-.608 1.312 4.357 4.357 0 0 1-.72.976 2.57 2.57 0 0 1-.896.592 2.91 2.91 0 0 1-1.136.208c-.213 0-.411-.016-.592-.048a1.77 1.77 0 0 1-.496-.128v-1.36c.117.085.267.149.448.192.181.053.379.08.592.08.395 0 .72-.096.976-.288.256-.181.501-.475.736-.88l-3.376-8.864h1.552l2.64 7.008 2.624-7.008h1.36l-3.104 8.208Zm4.498-8.208h6.656V520H399.4v-7.104h-3.84V520h-1.408v-8.304Zm14.377 4.624h-4.016V520h-1.408v-8.304h1.408v3.424h4.016v-3.424h1.408V520h-1.408v-3.68Zm7.125 3.84a4.303 4.303 0 0 1-1.584-.288 3.676 3.676 0 0 1-1.28-.832 4.044 4.044 0 0 1-.832-1.36c-.203-.533-.304-1.147-.304-1.84 0-.683.101-1.291.304-1.824.202-.544.48-.997.832-1.36.362-.363.789-.64 1.28-.832a4.303 4.303 0 0 1 1.584-.288c.576 0 1.109.096 1.6.288.49.192.912.469 1.264.832.362.363.645.816.848 1.36.213.533.32 1.141.32 1.824 0 .693-.107 1.307-.32 1.84a3.938 3.938 0 0 1-.848 1.36 3.53 3.53 0 0 1-1.264.832 4.354 4.354 0 0 1-1.6.288Zm0-1.264c.373 0 .714-.059 1.024-.176.32-.128.597-.315.832-.56.234-.256.416-.576.544-.96.128-.384.192-.837.192-1.36 0-.523-.064-.976-.192-1.36a2.479 2.479 0 0 0-.544-.944 2.09 2.09 0 0 0-.832-.56 2.657 2.657 0 0 0-1.024-.192 2.65 2.65 0 0 0-1.024.192 2.1 2.1 0 0 0-.816.56c-.224.245-.4.56-.528.944-.128.384-.192.837-.192 1.36 0 .523.064.976.192 1.36.128.384.304.704.528.96.234.245.506.432.816.56.309.117.65.176 1.024.176Zm9.332 1.264c-.64 0-1.221-.096-1.744-.288a3.818 3.818 0 0 1-1.312-.848 3.735 3.735 0 0 1-.832-1.36c-.192-.533-.288-1.141-.288-1.824 0-.672.096-1.275.288-1.808.203-.533.485-.981.848-1.344a3.511 3.511 0 0 1 1.328-.848c.523-.203 1.115-.304 1.776-.304.512 0 .981.059 1.408.176.427.107.779.267 1.056.48v1.264a3.732 3.732 0 0 0-1.152-.496 4.764 4.764 0 0 0-1.296-.176c-.971 0-1.685.251-2.144.752-.448.501-.672 1.269-.672 2.304s.219 1.803.656 2.304c.437.501 1.131.752 2.08.752.501 0 .96-.059 1.376-.176a5.645 5.645 0 0 0 1.152-.48v1.264a4.904 4.904 0 0 1-2.528.656Zm7.76-7.264V520h-1.408v-7.104h-2.608v-1.2h6.672v1.2h-2.656Zm5.689 5.184 4.432-6.384h1.424V520h-1.408v-6.368L438.467 520h-1.44v-8.304h1.408v6.384Zm18.614 1.92h-7.312v-1.52a91.438 91.438 0 0 0 2.512-2.08 18.297 18.297 0 0 0 1.76-1.68c.459-.512.8-.997 1.024-1.456.224-.469.336-.955.336-1.456 0-.629-.192-1.136-.576-1.52-.373-.395-.923-.592-1.648-.592-.608 0-1.173.149-1.696.448a5.726 5.726 0 0 0-1.408 1.136v-1.616a4.859 4.859 0 0 1 1.376-.944c.512-.235 1.104-.352 1.776-.352.597 0 1.125.08 1.584.24.469.16.859.384 1.168.672.32.288.56.635.72 1.04.171.405.256.853.256 1.344 0 .619-.123 1.2-.368 1.744-.235.544-.587 1.088-1.056 1.632a15.708 15.708 0 0 1-1.744 1.696 70.291 70.291 0 0 1-2.352 1.888h5.648V520Z"/>
        <rect width="191" height="432" x="483.5" y="84.5" fill="#fff" stroke="#D1D0D8" stroke-dasharray="8 8" rx="4.5"/>
        <path fill="#fff" d="M502 505h153v15H502z"/>
        <path fill="#000" d="M507.614 514.752v-1.28h1.616c.8 0 1.408-.171 1.824-.512.416-.352.624-.832.624-1.44 0-.651-.219-1.109-.656-1.376-.437-.277-1.013-.416-1.728-.416-.736 0-1.397.08-1.984.24a7.695 7.695 0 0 0-1.552.592v-1.424c.352-.181.811-.352 1.376-.512.576-.16 1.301-.24 2.176-.24 1.195 0 2.144.251 2.848.752.704.491 1.056 1.253 1.056 2.288 0 .672-.203 1.227-.608 1.664-.395.437-.976.747-1.744.928.907.117 1.589.395 2.048.832.469.427.704 1.04.704 1.84 0 .608-.117 1.136-.352 1.584a3.001 3.001 0 0 1-.96 1.072 4.267 4.267 0 0 1-1.408.624 7.525 7.525 0 0 1-1.728.192c-.864 0-1.605-.101-2.224-.304-.619-.213-1.072-.443-1.36-.688v-1.44c.992.715 2.171 1.072 3.536 1.072.395 0 .768-.032 1.12-.096.352-.075.661-.192.928-.352.267-.16.475-.373.624-.64.16-.267.24-.597.24-.992 0-.725-.235-1.232-.704-1.52-.459-.299-1.147-.448-2.064-.448h-1.648Zm11.384 5.408a4.303 4.303 0 0 1-1.584-.288 3.676 3.676 0 0 1-1.28-.832 4.044 4.044 0 0 1-.832-1.36c-.203-.533-.304-1.147-.304-1.84 0-.683.101-1.291.304-1.824.202-.544.48-.997.832-1.36.362-.363.789-.64 1.28-.832a4.303 4.303 0 0 1 1.584-.288c.576 0 1.109.096 1.6.288.49.192.912.469 1.264.832.362.363.645.816.848 1.36.213.533.32 1.141.32 1.824 0 .693-.107 1.307-.32 1.84a3.938 3.938 0 0 1-.848 1.36 3.53 3.53 0 0 1-1.264.832 4.354 4.354 0 0 1-1.6.288Zm0-1.264c.373 0 .714-.059 1.024-.176.32-.128.597-.315.832-.56.234-.256.416-.576.544-.96.128-.384.192-.837.192-1.36 0-.523-.064-.976-.192-1.36a2.479 2.479 0 0 0-.544-.944 2.09 2.09 0 0 0-.832-.56 2.657 2.657 0 0 0-1.024-.192 2.65 2.65 0 0 0-1.024.192 2.1 2.1 0 0 0-.816.56c-.224.245-.4.56-.528.944-.128.384-.192.837-.192 1.36 0 .523.064.976.192 1.36.128.384.304.704.528.96.234.245.506.432.816.56.309.117.65.176 1.024.176Zm11.172-2.576h-4.016V520h-1.408v-8.304h1.408v3.424h4.016v-3.424h1.408V520h-1.408v-3.68Zm8.58 2.096a4.762 4.762 0 0 1-.368.608 2.775 2.775 0 0 1-1.36.976c-.298.107-.65.16-1.056.16-.746 0-1.349-.208-1.808-.624-.458-.427-.688-1.035-.688-1.824 0-.907.315-1.573.944-2 .64-.427 1.547-.64 2.72-.64h1.552v-.688c0-.576-.149-.987-.448-1.232-.298-.245-.81-.368-1.536-.368-.512 0-.997.085-1.456.256a6.98 6.98 0 0 0-1.232.56v-1.264c.299-.181.699-.357 1.2-.528a5.008 5.008 0 0 1 1.68-.272c1.046 0 1.84.219 2.384.656.544.427.816 1.093.816 2v4.8c.011.117.016.24.016.368l.032.368c.011.107.022.197.032.272h-1.28a7.266 7.266 0 0 1-.096-.624 9.73 9.73 0 0 1-.032-.72l-.016-.24Zm-2.48.48c.438 0 .811-.091 1.12-.272.31-.181.56-.389.752-.624a2.74 2.74 0 0 0 .416-.704c.086-.235.128-.4.128-.496v-.608h-1.408c-.842 0-1.456.123-1.84.368-.373.235-.56.592-.56 1.072 0 .373.112.677.336.912.224.235.576.352 1.056.352Zm9.106-.096c.299-.181.533-.464.704-.848.171-.384.304-.869.4-1.456.096-.587.16-1.28.192-2.08.043-.8.08-1.707.112-2.72h5.712v7.104h1.248v3.568h-1.232l-.176-2.368h-6.176l-.144 2.368h-1.264V518.8h.624Zm5.712 0v-5.904h-3.04c-.053 1.568-.155 2.827-.304 3.776-.139.939-.384 1.648-.736 2.128h4.08Zm7.378 1.36a4.31 4.31 0 0 1-1.584-.288 3.694 3.694 0 0 1-1.28-.832 4.06 4.06 0 0 1-.832-1.36c-.202-.533-.304-1.147-.304-1.84 0-.683.102-1.291.304-1.824a3.86 3.86 0 0 1 .832-1.36c.363-.363.79-.64 1.28-.832a4.31 4.31 0 0 1 1.584-.288c.576 0 1.11.096 1.6.288.491.192.912.469 1.264.832.363.363.646.816.848 1.36.214.533.32 1.141.32 1.824 0 .693-.106 1.307-.32 1.84a3.909 3.909 0 0 1-.848 1.36c-.352.363-.773.64-1.264.832a4.35 4.35 0 0 1-1.6.288Zm0-1.264a2.87 2.87 0 0 0 1.024-.176c.32-.128.598-.315.832-.56.235-.256.416-.576.544-.96.128-.384.192-.837.192-1.36 0-.523-.064-.976-.192-1.36a2.466 2.466 0 0 0-.544-.944 2.083 2.083 0 0 0-.832-.56 2.65 2.65 0 0 0-1.024-.192c-.373 0-.714.064-1.024.192a2.115 2.115 0 0 0-.816.56c-.224.245-.4.56-.528.944-.128.384-.192.837-.192 1.36 0 .523.064.976.192 1.36.128.384.304.704.528.96.235.245.507.432.816.56.31.117.651.176 1.024.176Zm9.333 1.264c-.64 0-1.222-.096-1.744-.288a3.809 3.809 0 0 1-1.312-.848 3.735 3.735 0 0 1-.832-1.36c-.192-.533-.288-1.141-.288-1.824 0-.672.096-1.275.288-1.808a3.75 3.75 0 0 1 .848-1.344 3.503 3.503 0 0 1 1.328-.848c.522-.203 1.114-.304 1.776-.304.512 0 .981.059 1.408.176.426.107.778.267 1.056.48v1.264a3.753 3.753 0 0 0-1.152-.496 4.764 4.764 0 0 0-1.296-.176c-.971 0-1.686.251-2.144.752-.448.501-.673 1.269-.673 2.304s.219 1.803.657 2.304c.437.501 1.13.752 2.08.752.501 0 .96-.059 1.376-.176.426-.128.81-.288 1.152-.48v1.264a4.904 4.904 0 0 1-2.528.656Zm7.76-7.264V520h-1.408v-7.104h-2.608v-1.2h6.672v1.2h-2.656Zm8.595 7.008a9.549 9.549 0 0 1-.608 1.312 4.357 4.357 0 0 1-.72.976 2.57 2.57 0 0 1-.896.592 2.91 2.91 0 0 1-1.136.208c-.213 0-.411-.016-.592-.048a1.77 1.77 0 0 1-.496-.128v-1.36c.117.085.267.149.448.192.181.053.379.08.592.08.395 0 .72-.096.976-.288.256-.181.501-.475.736-.88l-3.376-8.864h1.552l2.64 7.008 2.624-7.008h1.36l-3.104 8.208Zm4.498-8.208h6.656V520H593.9v-7.104h-3.84V520h-1.408v-8.304Zm14.377 4.624h-4.016V520h-1.408v-8.304h1.408v3.424h4.016v-3.424h1.408V520h-1.408v-3.68Zm7.125 3.84a4.303 4.303 0 0 1-1.584-.288 3.676 3.676 0 0 1-1.28-.832 4.044 4.044 0 0 1-.832-1.36c-.203-.533-.304-1.147-.304-1.84 0-.683.101-1.291.304-1.824.202-.544.48-.997.832-1.36.362-.363.789-.64 1.28-.832a4.303 4.303 0 0 1 1.584-.288c.576 0 1.109.096 1.6.288.49.192.912.469 1.264.832.362.363.645.816.848 1.36.213.533.32 1.141.32 1.824 0 .693-.107 1.307-.32 1.84a3.938 3.938 0 0 1-.848 1.36 3.53 3.53 0 0 1-1.264.832 4.354 4.354 0 0 1-1.6.288Zm0-1.264c.373 0 .714-.059 1.024-.176.32-.128.597-.315.832-.56.234-.256.416-.576.544-.96.128-.384.192-.837.192-1.36 0-.523-.064-.976-.192-1.36a2.479 2.479 0 0 0-.544-.944 2.09 2.09 0 0 0-.832-.56 2.657 2.657 0 0 0-1.024-.192 2.65 2.65 0 0 0-1.024.192 2.1 2.1 0 0 0-.816.56c-.224.245-.4.56-.528.944-.128.384-.192.837-.192 1.36 0 .523.064.976.192 1.36.128.384.304.704.528.96.234.245.506.432.816.56.309.117.65.176 1.024.176Zm9.332 1.264c-.64 0-1.221-.096-1.744-.288a3.818 3.818 0 0 1-1.312-.848 3.735 3.735 0 0 1-.832-1.36c-.192-.533-.288-1.141-.288-1.824 0-.672.096-1.275.288-1.808.203-.533.485-.981.848-1.344a3.511 3.511 0 0 1 1.328-.848c.523-.203 1.115-.304 1.776-.304.512 0 .981.059 1.408.176.427.107.779.267 1.056.48v1.264a3.732 3.732 0 0 0-1.152-.496 4.764 4.764 0 0 0-1.296-.176c-.971 0-1.685.251-2.144.752-.448.501-.672 1.269-.672 2.304s.219 1.803.656 2.304c.437.501 1.131.752 2.08.752.501 0 .96-.059 1.376-.176a5.645 5.645 0 0 0 1.152-.48v1.264a4.904 4.904 0 0 1-2.528.656Zm7.76-7.264V520h-1.408v-7.104h-2.608v-1.2h6.672v1.2h-2.656Zm5.689 5.184 4.432-6.384h1.424V520h-1.408v-6.368L632.967 520h-1.44v-8.304h1.408v6.384Zm18.71-1.392c0 .533-.101 1.013-.304 1.44a3.287 3.287 0 0 1-.848 1.104 3.86 3.86 0 0 1-1.296.688c-.501.16-1.056.24-1.664.24-.747 0-1.392-.091-1.936-.272-.544-.181-.987-.416-1.328-.704v-1.6c.341.341.789.64 1.344.896.555.245 1.2.368 1.936.368.789 0 1.408-.187 1.856-.56.459-.373.688-.896.688-1.568 0-.64-.203-1.136-.608-1.488-.405-.363-1.04-.544-1.904-.544h-1.472v-1.36h1.536c.608 0 1.099-.16 1.472-.48.373-.32.56-.784.56-1.392 0-.544-.176-.971-.528-1.28-.352-.32-.859-.48-1.52-.48-.683 0-1.269.128-1.76.384-.48.256-.917.555-1.312.896v-1.568c.373-.309.816-.56 1.328-.752.512-.192 1.099-.288 1.76-.288.544 0 1.035.075 1.472.224.437.139.805.341 1.104.608.309.267.544.587.704.96.16.363.24.768.24 1.216 0 .363-.053.688-.16.976a2.313 2.313 0 0 1-.448.752 2.624 2.624 0 0 1-.64.544c-.245.139-.507.24-.784.304.331.053.645.155.944.304.309.149.581.341.816.576.235.224.416.496.544.816.139.309.208.656.208 1.04Z"/>
        <rect width="527" height="355" x="119.5" y="127.5" fill="#DAEEF9" fill-opacity=".4" stroke="#D1D0D8" rx="4.5"/>
        <path fill="#DAEEF9" fill-opacity=".4" d="M363.389 304.544c0 .802-.121 1.526-.364 2.17a4.68 4.68 0 0 1-1.022 1.624 4.42 4.42 0 0 1-1.596 1.008c-.616.233-1.302.35-2.058.35-.719 0-1.339-.089-1.862-.266-.513-.178-.905-.374-1.176-.588v-1.26a4.49 4.49 0 0 0 1.414.714c.495.14 1.003.21 1.526.21 1.148 0 2.03-.285 2.646-.854.625-.57.975-1.438 1.05-2.604h-4.718v-1.176h4.704c-.093-1.102-.42-1.923-.98-2.464-.56-.551-1.377-.826-2.45-.826-.523 0-1.05.07-1.582.21-.523.13-.999.326-1.428.588v-1.26c.327-.196.742-.364 1.246-.504.504-.15 1.087-.224 1.75-.224.784 0 1.479.116 2.086.35a3.946 3.946 0 0 1 1.54 1.022c.42.438.737.975.952 1.61.215.634.322 1.358.322 2.17Zm1.95 2.758c.13-.476.214-1.12.252-1.932a69.86 69.86 0 0 0 .056-3.08h4.886v7.266h-1.246v-6.216h-2.478c-.01.998-.042 1.885-.098 2.66-.047.774-.154 1.428-.322 1.96-.159.532-.397.938-.714 1.218-.308.27-.724.406-1.246.406h-.112a.664.664 0 0 1-.126-.014v-1.218a.98.98 0 0 0 .182.014c.476 0 .798-.355.966-1.064Zm12.973 1.638a3.867 3.867 0 0 1-.378.238 4.34 4.34 0 0 1-.546.252 4.687 4.687 0 0 1-.728.182c-.27.056-.574.084-.91.084-1.222 0-2.151-.332-2.786-.994-.634-.663-.952-1.592-.952-2.786 0-.588.084-1.116.252-1.582.178-.467.42-.859.728-1.176a3.024 3.024 0 0 1 1.092-.742c.42-.178.878-.266 1.372-.266.523 0 .99.088 1.4.266.411.177.747.438 1.008.784.271.345.453.774.546 1.288.103.504.103 1.092 0 1.764h-5.124c.047.784.28 1.372.7 1.764.42.382 1.046.574 1.876.574.56 0 1.041-.08 1.442-.238a5.067 5.067 0 0 0 1.008-.518v1.106Zm-2.884-5.698c-.532 0-.989.163-1.372.49-.382.326-.625.821-.728 1.484h3.906c.038-.672-.116-1.167-.462-1.484-.345-.327-.793-.49-1.344-.49Zm11.566.476-2.464 5.026h-.98l-2.324-5.054v5.866h-1.162v-7.266h1.834l2.226 4.872 2.38-4.872h1.708v7.266h-1.218v-5.838Zm9.01 5.222a4.125 4.125 0 0 1-.924.49 4.716 4.716 0 0 1-.728.182 4.51 4.51 0 0 1-.91.084c-1.223 0-2.151-.332-2.786-.994-.635-.663-.952-1.592-.952-2.786 0-.588.084-1.116.252-1.582.177-.467.42-.859.728-1.176a3.024 3.024 0 0 1 1.092-.742c.42-.178.877-.266 1.372-.266.523 0 .989.088 1.4.266.411.177.747.438 1.008.784.271.345.453.774.546 1.288.103.504.103 1.092 0 1.764h-5.124c.047.784.28 1.372.7 1.764.42.382 1.045.574 1.876.574.56 0 1.041-.08 1.442-.238a5.123 5.123 0 0 0 1.008-.518v1.106Zm-2.884-5.698c-.532 0-.989.163-1.372.49-.383.326-.625.821-.728 1.484h3.906c.037-.672-.117-1.167-.462-1.484-.345-.327-.793-.49-1.344-.49Zm9.381 3.094h-3.514v3.22h-1.232v-7.266h1.232v2.996h3.514v-2.996h1.232v7.266h-1.232v-3.22Zm6.178-2.996v6.216h-1.232v-6.216h-2.282v-1.05h5.838v1.05h-2.324Z"/>
        <path fill="#DAEEF9" d="M144 365a5 5 0 0 1 5-5h110a5 5 0 0 1 5 5v60a5 5 0 0 1-5 5H149a5 5 0 0 1-5-5v-60Z"/>
        <path fill="#18123D" d="M279.852 452.528h6.688v1.376h-5.184V464h-1.504v-11.472Zm11.734 11.632c-.64 0-1.195-.149-1.664-.448a3.253 3.253 0 0 1-1.104-1.232v4.352h-1.408v-11.136h1.232l.144 1.616c.277-.544.65-.976 1.12-1.296.469-.32 1.05-.48 1.744-.48.48 0 .938.091 1.376.272.448.171.837.437 1.168.8.341.352.608.8.8 1.344.202.533.304 1.163.304 1.888 0 .736-.102 1.376-.304 1.92a4.03 4.03 0 0 1-.816 1.344 3.423 3.423 0 0 1-1.184.8 3.917 3.917 0 0 1-1.408.256Zm-.208-1.264c.736 0 1.328-.251 1.776-.752.458-.512.688-1.28.688-2.304 0-1.003-.23-1.76-.688-2.272-.448-.523-1.04-.784-1.776-.784a2.73 2.73 0 0 0-1.024.192c-.31.128-.582.32-.816.576-.224.245-.406.56-.544.944-.128.384-.192.832-.192 1.344 0 .512.064.96.192 1.344.138.384.32.704.544.96.234.256.506.448.816.576.32.117.661.176 1.024.176Zm9.627 1.008a9.432 9.432 0 0 1-.608 1.312 4.357 4.357 0 0 1-.72.976 2.56 2.56 0 0 1-.896.592c-.33.139-.709.208-1.136.208a3.42 3.42 0 0 1-.592-.048 1.78 1.78 0 0 1-.496-.128v-1.36c.118.085.267.149.448.192.182.053.379.08.592.08.395 0 .72-.096.976-.288.256-.181.502-.475.736-.88l-3.376-8.864h1.552l2.64 7.008 2.624-7.008h1.36l-3.104 8.208Zm4.499-8.208h6.656V464h-1.408v-7.104h-3.84V464h-1.408v-8.304Zm8.953 0h6.656V464h-1.408v-7.104h-3.84V464h-1.408v-8.304Zm13.817 6.72a4.88 4.88 0 0 1-.368.608c-.15.203-.336.389-.56.56a2.837 2.837 0 0 1-.8.416c-.299.107-.651.16-1.056.16-.747 0-1.35-.208-1.808-.624-.459-.427-.688-1.035-.688-1.824 0-.907.314-1.573.944-2 .64-.427 1.546-.64 2.72-.64h1.552v-.688c0-.576-.15-.987-.448-1.232-.299-.245-.811-.368-1.536-.368a4.13 4.13 0 0 0-1.456.256c-.459.16-.87.347-1.232.56v-1.264c.298-.181.698-.357 1.2-.528a5.008 5.008 0 0 1 1.68-.272c1.045 0 1.84.219 2.384.656.544.427.816 1.093.816 2v4.8c.01.117.016.24.016.368.01.128.021.251.032.368.01.107.021.197.032.272h-1.28a7.266 7.266 0 0 1-.096-.624 9.21 9.21 0 0 1-.032-.72l-.016-.24Zm-2.48.48c.437 0 .81-.091 1.12-.272.309-.181.56-.389.752-.624.192-.245.33-.48.416-.704.085-.235.128-.4.128-.496v-.608h-1.408c-.843 0-1.456.123-1.84.368-.374.235-.56.592-.56 1.072 0 .373.112.677.336.912.224.235.576.352 1.056.352Zm9.553-7.2h3.104c1.003 0 1.76.176 2.272.528.512.341.768.88.768 1.616 0 .491-.128.885-.384 1.184-.245.288-.597.496-1.056.624 1.184.192 1.776.848 1.776 1.968 0 .427-.085.795-.256 1.104a2.1 2.1 0 0 1-.704.736 3.116 3.116 0 0 1-1.088.416 6.794 6.794 0 0 1-1.36.128h-3.072v-8.304Zm1.408 1.2v2.256h1.568c.534 0 .96-.096 1.28-.288.331-.192.496-.469.496-.832 0-.437-.144-.736-.432-.896-.288-.16-.698-.24-1.232-.24h-1.68Zm0 3.376v2.528h1.648c.299 0 .566-.016.8-.048.246-.043.454-.112.624-.208.182-.096.32-.224.416-.384.096-.16.144-.357.144-.592 0-.48-.165-.816-.496-1.008-.33-.192-.826-.288-1.488-.288h-1.648Zm8.594 1.808 4.432-6.384h1.424V464h-1.408v-6.368L345.381 464h-1.44v-8.304h1.408v6.384Zm12.331 2.08c-.64 0-1.195-.149-1.664-.448a3.253 3.253 0 0 1-1.104-1.232v4.352h-1.408v-11.136h1.232l.144 1.616c.277-.544.65-.976 1.12-1.296.469-.32 1.05-.48 1.744-.48.48 0 .938.091 1.376.272.448.171.837.437 1.168.8.341.352.608.8.8 1.344.202.533.304 1.163.304 1.888 0 .736-.102 1.376-.304 1.92a4.03 4.03 0 0 1-.816 1.344 3.423 3.423 0 0 1-1.184.8 3.917 3.917 0 0 1-1.408.256Zm-.208-1.264c.736 0 1.328-.251 1.776-.752.458-.512.688-1.28.688-2.304 0-1.003-.23-1.76-.688-2.272-.448-.523-1.04-.784-1.776-.784a2.73 2.73 0 0 0-1.024.192c-.31.128-.582.32-.816.576-.224.245-.406.56-.544.944-.128.384-.192.832-.192 1.344 0 .512.064.96.192 1.344.138.384.32.704.544.96.234.256.506.448.816.576.32.117.661.176 1.024.176Zm8.813-6V464h-1.408v-7.104h-2.608v-1.2h6.672v1.2h-2.656Zm8.595 7.008a9.432 9.432 0 0 1-.608 1.312 4.357 4.357 0 0 1-.72.976 2.56 2.56 0 0 1-.896.592c-.33.139-.709.208-1.136.208a3.42 3.42 0 0 1-.592-.048 1.78 1.78 0 0 1-.496-.128v-1.36c.118.085.267.149.448.192.182.053.379.08.592.08.395 0 .72-.096.976-.288.256-.181.502-.475.736-.88l-3.376-8.864h1.552l2.64 7.008 2.624-7.008h1.36l-3.104 8.208Zm9.206-1.488a4.762 4.762 0 0 1-.368.608 2.775 2.775 0 0 1-1.36.976c-.298.107-.65.16-1.056.16-.746 0-1.349-.208-1.808-.624-.458-.427-.688-1.035-.688-1.824 0-.907.315-1.573.944-2 .64-.427 1.547-.64 2.72-.64h1.552v-.688c0-.576-.149-.987-.448-1.232-.298-.245-.81-.368-1.536-.368-.512 0-.997.085-1.456.256a6.98 6.98 0 0 0-1.232.56v-1.264c.299-.181.699-.357 1.2-.528a5.008 5.008 0 0 1 1.68-.272c1.046 0 1.84.219 2.384.656.544.427.816 1.093.816 2v4.8c.011.117.016.24.016.368l.032.368c.011.107.022.197.032.272h-1.28a7.266 7.266 0 0 1-.096-.624 9.73 9.73 0 0 1-.032-.72l-.016-.24Zm-2.48.48c.438 0 .811-.091 1.12-.272.31-.181.56-.389.752-.624a2.74 2.74 0 0 0 .416-.704c.086-.235.128-.4.128-.496v-.608h-1.408c-.842 0-1.456.123-1.84.368-.373.235-.56.592-.56 1.072 0 .373.112.677.336.912.224.235.576.352 1.056.352Zm6.678-1.472c.15-.544.246-1.28.288-2.208.043-.928.064-2.101.064-3.52h5.584V464h-1.424v-7.104h-2.832a48.485 48.485 0 0 1-.112 3.04c-.053.885-.176 1.632-.368 2.24-.181.608-.453 1.072-.816 1.392-.352.309-.826.464-1.424.464h-.128a.727.727 0 0 1-.144-.016v-1.392c.054.011.123.016.208.016.544 0 .912-.405 1.104-1.216Zm14.396-.192c0 .48-.086.896-.256 1.248-.171.352-.411.64-.72.864a3.19 3.19 0 0 1-1.104.496c-.427.107-.891.16-1.392.16h-2.752v-8.304h1.408v2.896h1.44c1.056 0 1.882.208 2.48.624.597.416.896 1.088.896 2.016Zm-4.816-1.44v3.008h1.344c.608 0 1.098-.112 1.472-.336.384-.235.576-.619.576-1.152 0-.544-.171-.933-.512-1.168-.342-.235-.822-.352-1.44-.352h-1.44Zm12.032.528h-4.016V464h-1.408v-8.304h1.408v3.424h4.016v-3.424h1.408V464h-1.408v-3.68Zm9.861.912c0 .48-.085.896-.256 1.248-.171.352-.411.64-.72.864a3.173 3.173 0 0 1-1.104.496c-.427.107-.891.16-1.392.16h-2.672v-8.304h1.408v2.896h1.36c1.056 0 1.883.208 2.48.624.597.416.896 1.088.896 2.016Zm2.608 2.768h-1.408v-8.304h1.408V464Zm-7.344-4.208v3.008h1.264c.608 0 1.099-.112 1.472-.336.384-.235.576-.619.576-1.152 0-.544-.171-.933-.512-1.168-.341-.235-.821-.352-1.44-.352h-1.36Zm12.454.912-2.24 3.296h-1.472l3.008-4.304-2.656-4h1.632l1.984 2.928 2-2.928h1.456l-2.752 3.968 2.896 4.336h-1.632l-2.224-3.296Zm16.683-3.376-2.816 5.744h-1.12l-2.656-5.776V464h-1.328v-8.304h2.096l2.544 5.568 2.72-5.568h1.952V464h-1.392v-6.672Zm8.553 5.088a4.762 4.762 0 0 1-.368.608 2.775 2.775 0 0 1-1.36.976c-.298.107-.65.16-1.056.16-.746 0-1.349-.208-1.808-.624-.458-.427-.688-1.035-.688-1.824 0-.907.315-1.573.944-2 .64-.427 1.547-.64 2.72-.64h1.552v-.688c0-.576-.149-.987-.448-1.232-.298-.245-.81-.368-1.536-.368-.512 0-.997.085-1.456.256a6.98 6.98 0 0 0-1.232.56v-1.264c.299-.181.699-.357 1.2-.528a5.008 5.008 0 0 1 1.68-.272c1.046 0 1.84.219 2.384.656.544.427.816 1.093.816 2v4.8c.011.117.016.24.016.368l.032.368c.011.107.022.197.032.272h-1.28a7.266 7.266 0 0 1-.096-.624 9.73 9.73 0 0 1-.032-.72l-.016-.24Zm-2.48.48c.438 0 .811-.091 1.12-.272.31-.181.56-.389.752-.624a2.74 2.74 0 0 0 .416-.704c.086-.235.128-.4.128-.496v-.608h-1.408c-.842 0-1.456.123-1.84.368-.373.235-.56.592-.56 1.072 0 .373.112.677.336.912.224.235.576.352 1.056.352ZM466.637 464h-10.368v-8.304h1.408v7.104h3.072v-7.104h1.408v7.104h3.072v-7.104h1.408V464Zm3.712-1.92 4.432-6.384h1.424V464h-1.408v-6.368L470.381 464h-1.44v-8.304h1.408v6.384Zm13.579-1.76h-4.016V464h-1.408v-8.304h1.408v3.424h4.016v-3.424h1.408V464h-1.408v-3.68Z"/>
        <path fill="#DAEEF9" d="M144 274a5 5 0 0 1 5-5h110a5 5 0 0 1 5 5v60a5 5 0 0 1-5 5H149a5 5 0 0 1-5-5v-60Zm0-94a5 5 0 0 1 5-5h110a5 5 0 0 1 5 5v60a5 5 0 0 1-5 5H149a5 5 0 0 1-5-5v-60Zm179 185a5 5 0 0 1 5-5h110a5 5 0 0 1 5 5v60a5 5 0 0 1-5 5H328a5 5 0 0 1-5-5v-60Zm179 0a5 5 0 0 1 5-5h110a5 5 0 0 1 5 5v60a5 5 0 0 1-5 5H507a5 5 0 0 1-5-5v-60Zm-179-91a5 5 0 0 1 5-5h110a5 5 0 0 1 5 5v60a5 5 0 0 1-5 5H328a5 5 0 0 1-5-5v-60Zm0-94a5 5 0 0 1 5-5h110a5 5 0 0 1 5 5v60a5 5 0 0 1-5 5H328a5 5 0 0 1-5-5v-60Zm179 94a5 5 0 0 1 5-5h110a5 5 0 0 1 5 5v60a5 5 0 0 1-5 5H507a5 5 0 0 1-5-5v-60Z"/>
        <path fill="#18123D" d="M556.906 399h-2.058l-3.5-10.038h1.372l3.206 9.24 3.206-9.24h1.26L556.906 399Zm9.825-2.996 3.262-7.042h1.708V399h-1.33v-8.078l-3.08 6.538-.658.014h-.588l.014-.014-3.038-6.65V399h-1.246v-10.038h1.834l3.122 7.042ZM377.906 399h-2.058l-3.5-10.038h1.372l3.206 9.24 3.206-9.24h1.26L377.906 399Zm9.825-2.996 3.262-7.042h1.708V399h-1.33v-8.078l-3.08 6.538-.658.014h-.588l.014-.014-3.038-6.65V399h-1.246v-10.038h1.834l3.122 7.042ZM377.906 309h-2.058l-3.5-10.038h1.372l3.206 9.24 3.206-9.24h1.26L377.906 309Zm9.825-2.996 3.262-7.042h1.708V309h-1.33v-8.078l-3.08 6.538-.658.014h-.588l.014-.014-3.038-6.65V309h-1.246v-10.038h1.834l3.122 7.042ZM377.906 215h-2.058l-3.5-10.038h1.372l3.206 9.24 3.206-9.24h1.26L377.906 215Zm9.825-2.996 3.262-7.042h1.708V215h-1.33v-8.078l-3.08 6.538-.658.014h-.588l.014-.014-3.038-6.65V215h-1.246v-10.038h1.834l3.122 7.042ZM198.906 215h-2.058l-3.5-10.038h1.372l3.206 9.24 3.206-9.24h1.26L198.906 215Zm9.825-2.996 3.262-7.042h1.708V215h-1.33v-8.078l-3.08 6.538-.658.014h-.588l.014-.014-3.038-6.65V215h-1.246v-10.038h1.834l3.122 7.042ZM198.906 309h-2.058l-3.5-10.038h1.372l3.206 9.24 3.206-9.24h1.26L198.906 309Zm9.825-2.996 3.262-7.042h1.708V309h-1.33v-8.078l-3.08 6.538-.658.014h-.588l.014-.014-3.038-6.65V309h-1.246v-10.038h1.834l3.122 7.042ZM198.906 400h-2.058l-3.5-10.038h1.372l3.206 9.24 3.206-9.24h1.26L198.906 400Zm9.825-2.996 3.262-7.042h1.708V400h-1.33v-8.078l-3.08 6.538-.658.014h-.588l.014-.014-3.038-6.65V400h-1.246v-10.038h1.834l3.122 7.042ZM556.906 309h-2.058l-3.5-10.038h1.372l3.206 9.24 3.206-9.24h1.26L556.906 309Zm9.825-2.996 3.262-7.042h1.708V309h-1.33v-8.078l-3.08 6.538-.658.014h-.588l.014-.014-3.038-6.65V309h-1.246v-10.038h1.834l3.122 7.042Z"/>
    </g>
    <defs>
        <clipPath id="clip0">
            <path fill="#fff" d="M0 0h800v600H0z"/>
        </clipPath>
        <filter id="filter0_d" width="703" height="577" x="31" y="27" color-interpolation-filters="sRGB" filterUnits="userSpaceOnUse">
            <feFlood flood-opacity="0" result="BackgroundImageFix"/>
            <feColorMatrix in="SourceAlpha" values="0 0 0 0 0 0 0 0 0 0 0 0 0 0 0 0 0 0 127 0"/>
            <feOffset/>
            <feGaussianBlur stdDeviation="7.5"/>
            <feColorMatrix values="0 0 0 0 0.592157 0 0 0 0 0.74902 0 0 0 0 0.905882 0 0 0 0.4 0"/>
            <feBlend in2="BackgroundImageFix" result="effect1_dropShadow"/>
            <feBlend in="SourceGraphic" in2="effect1_dropShadow" result="shape"/>
        </filter>
    </defs>
</svg>
