<svg width="700" height="600" viewBox="0 0 700 600" fill="none" xmlns="http://www.w3.org/2000/svg">
<g filter="url(#filter0_d_25_149)">
<rect x="103" y="160" width="494" height="280" rx="10" fill="white"/>
</g>
<rect x="281" y="180" width="138" height="50" rx="10" fill="#D6E1FF"/>
<path d="M317.693 210.14C316.946 210.14 316.27 210.023 315.663 209.79C315.056 209.557 314.534 209.221 314.095 208.782C313.666 208.334 313.334 207.793 313.101 207.158C312.868 206.514 312.751 205.791 312.751 204.988C312.751 204.176 312.858 203.453 313.073 202.818C313.288 202.183 313.605 201.647 314.025 201.208C314.445 200.76 314.958 200.419 315.565 200.186C316.181 199.953 316.881 199.836 317.665 199.836C318.346 199.836 318.944 199.911 319.457 200.06C319.97 200.2 320.39 200.368 320.717 200.564V201.824C320.297 201.553 319.812 201.353 319.261 201.222C318.72 201.091 318.183 201.026 317.651 201.026C316.466 201.026 315.588 201.357 315.019 202.02C314.459 202.673 314.179 203.663 314.179 204.988C314.179 206.323 314.482 207.317 315.089 207.97C315.705 208.623 316.61 208.95 317.805 208.95C318.318 208.95 318.818 208.88 319.303 208.74C319.798 208.6 320.269 208.362 320.717 208.026V209.286C320.446 209.501 320.05 209.697 319.527 209.874C319.014 210.051 318.402 210.14 317.693 210.14ZM325.477 210.14C324.983 210.14 324.521 210.056 324.091 209.888C323.662 209.72 323.289 209.477 322.971 209.16C322.663 208.833 322.421 208.437 322.243 207.97C322.066 207.503 321.977 206.967 321.977 206.36C321.977 205.763 322.066 205.231 322.243 204.764C322.421 204.288 322.663 203.891 322.971 203.574C323.289 203.257 323.662 203.014 324.091 202.846C324.521 202.678 324.983 202.594 325.477 202.594C325.981 202.594 326.448 202.678 326.877 202.846C327.307 203.014 327.675 203.257 327.983 203.574C328.301 203.891 328.548 204.288 328.725 204.764C328.912 205.231 329.005 205.763 329.005 206.36C329.005 206.967 328.912 207.503 328.725 207.97C328.548 208.437 328.301 208.833 327.983 209.16C327.675 209.477 327.307 209.72 326.877 209.888C326.448 210.056 325.981 210.14 325.477 210.14ZM325.477 209.034C325.804 209.034 326.103 208.983 326.373 208.88C326.653 208.768 326.896 208.605 327.101 208.39C327.307 208.166 327.465 207.886 327.577 207.55C327.689 207.214 327.745 206.817 327.745 206.36C327.745 205.903 327.689 205.506 327.577 205.17C327.465 204.834 327.307 204.559 327.101 204.344C326.896 204.12 326.653 203.957 326.373 203.854C326.103 203.742 325.804 203.686 325.477 203.686C325.151 203.686 324.852 203.742 324.581 203.854C324.311 203.957 324.073 204.12 323.867 204.344C323.671 204.559 323.517 204.834 323.405 205.17C323.293 205.506 323.237 205.903 323.237 206.36C323.237 206.817 323.293 207.214 323.405 207.55C323.517 207.886 323.671 208.166 323.867 208.39C324.073 208.605 324.311 208.768 324.581 208.88C324.852 208.983 325.151 209.034 325.477 209.034ZM333.489 210.14C332.994 210.14 332.532 210.056 332.103 209.888C331.674 209.72 331.3 209.477 330.983 209.16C330.675 208.833 330.432 208.437 330.255 207.97C330.078 207.503 329.989 206.967 329.989 206.36C329.989 205.763 330.078 205.231 330.255 204.764C330.432 204.288 330.675 203.891 330.983 203.574C331.3 203.257 331.674 203.014 332.103 202.846C332.532 202.678 332.994 202.594 333.489 202.594C333.993 202.594 334.46 202.678 334.889 202.846C335.318 203.014 335.687 203.257 335.995 203.574C336.312 203.891 336.56 204.288 336.737 204.764C336.924 205.231 337.017 205.763 337.017 206.36C337.017 206.967 336.924 207.503 336.737 207.97C336.56 208.437 336.312 208.833 335.995 209.16C335.687 209.477 335.318 209.72 334.889 209.888C334.46 210.056 333.993 210.14 333.489 210.14ZM333.489 209.034C333.816 209.034 334.114 208.983 334.385 208.88C334.665 208.768 334.908 208.605 335.113 208.39C335.318 208.166 335.477 207.886 335.589 207.55C335.701 207.214 335.757 206.817 335.757 206.36C335.757 205.903 335.701 205.506 335.589 205.17C335.477 204.834 335.318 204.559 335.113 204.344C334.908 204.12 334.665 203.957 334.385 203.854C334.114 203.742 333.816 203.686 333.489 203.686C333.162 203.686 332.864 203.742 332.593 203.854C332.322 203.957 332.084 204.12 331.879 204.344C331.683 204.559 331.529 204.834 331.417 205.17C331.305 205.506 331.249 205.903 331.249 206.36C331.249 206.817 331.305 207.214 331.417 207.55C331.529 207.886 331.683 208.166 331.879 208.39C332.084 208.605 332.322 208.768 332.593 208.88C332.864 208.983 333.162 209.034 333.489 209.034ZM342.117 203.966C341.594 204.013 341.118 204.148 340.689 204.372C340.269 204.587 339.956 204.923 339.751 205.38V210H338.519V202.734H339.597L339.723 204.316H339.751C339.956 203.887 340.25 203.513 340.633 203.196C341.025 202.869 341.519 202.669 342.117 202.594V203.966ZM348.758 208.572C348.534 209.048 348.221 209.431 347.82 209.72C347.419 210 346.91 210.14 346.294 210.14C345.855 210.14 345.44 210.065 345.048 209.916C344.656 209.757 344.311 209.524 344.012 209.216C343.713 208.899 343.475 208.507 343.298 208.04C343.121 207.564 343.032 207.004 343.032 206.36C343.032 205.725 343.121 205.175 343.298 204.708C343.475 204.232 343.713 203.84 344.012 203.532C344.311 203.215 344.656 202.981 345.048 202.832C345.449 202.673 345.869 202.594 346.308 202.594C346.859 202.594 347.335 202.711 347.736 202.944C348.137 203.168 348.459 203.49 348.702 203.91V199.962H349.934V210H348.856L348.758 208.572ZM346.476 209.034C346.793 209.034 347.087 208.983 347.358 208.88C347.629 208.768 347.862 208.6 348.058 208.376C348.263 208.152 348.422 207.872 348.534 207.536C348.655 207.2 348.716 206.808 348.716 206.36C348.716 205.912 348.655 205.52 348.534 205.184C348.422 204.848 348.263 204.568 348.058 204.344C347.862 204.12 347.629 203.957 347.358 203.854C347.087 203.742 346.793 203.686 346.476 203.686C345.832 203.686 345.305 203.915 344.894 204.372C344.493 204.82 344.292 205.483 344.292 206.36C344.292 207.247 344.497 207.914 344.908 208.362C345.319 208.81 345.841 209.034 346.476 209.034ZM352.575 201.67C352.323 201.67 352.122 201.595 351.973 201.446C351.823 201.287 351.749 201.096 351.749 200.872C351.749 200.648 351.823 200.457 351.973 200.298C352.122 200.139 352.323 200.06 352.575 200.06C352.817 200.06 353.009 200.139 353.149 200.298C353.289 200.457 353.359 200.648 353.359 200.872C353.359 201.096 353.289 201.287 353.149 201.446C353.009 201.595 352.817 201.67 352.575 201.67ZM353.177 202.734V210H351.945V202.734H353.177ZM358.629 203.686C358.069 203.686 357.611 203.817 357.257 204.078C356.911 204.33 356.631 204.657 356.417 205.058V210H355.185V202.734H356.347L356.389 204.036H356.417C356.613 203.616 356.921 203.271 357.341 203C357.761 202.729 358.293 202.594 358.937 202.594C359.655 202.594 360.225 202.785 360.645 203.168C361.074 203.541 361.289 204.12 361.289 204.904V210H360.057V205.03C360.057 204.526 359.931 204.176 359.679 203.98C359.427 203.784 359.077 203.686 358.629 203.686ZM367.493 208.614C367.409 208.782 367.302 208.959 367.171 209.146C367.041 209.323 366.877 209.487 366.681 209.636C366.485 209.785 366.252 209.907 365.981 210C365.72 210.093 365.412 210.14 365.057 210.14C364.404 210.14 363.877 209.958 363.475 209.594C363.074 209.221 362.873 208.689 362.873 207.998C362.873 207.205 363.149 206.621 363.699 206.248C364.259 205.875 365.053 205.688 366.079 205.688H367.437V205.086C367.437 204.582 367.307 204.223 367.045 204.008C366.784 203.793 366.336 203.686 365.701 203.686C365.253 203.686 364.829 203.761 364.427 203.91C364.026 204.05 363.667 204.213 363.349 204.4V203.294C363.611 203.135 363.961 202.981 364.399 202.832C364.847 202.673 365.337 202.594 365.869 202.594C366.784 202.594 367.479 202.785 367.955 203.168C368.431 203.541 368.669 204.125 368.669 204.918V208.824C368.669 208.908 368.669 209.006 368.669 209.118C368.679 209.221 368.683 209.328 368.683 209.44C368.693 209.552 368.702 209.659 368.711 209.762C368.721 209.855 368.73 209.935 368.739 210H367.619C367.591 209.869 367.563 209.687 367.535 209.454C367.517 209.211 367.507 209.001 367.507 208.824L367.493 208.614ZM365.323 209.034C365.706 209.034 366.033 208.955 366.303 208.796C366.574 208.637 366.793 208.455 366.961 208.25C367.129 208.035 367.251 207.83 367.325 207.634C367.4 207.429 367.437 207.284 367.437 207.2V206.668H366.205C365.468 206.668 364.931 206.775 364.595 206.99C364.269 207.195 364.105 207.508 364.105 207.928C364.105 208.255 364.203 208.521 364.399 208.726C364.595 208.931 364.903 209.034 365.323 209.034ZM374.163 209.846C374.013 209.93 373.822 210 373.589 210.056C373.355 210.112 373.108 210.14 372.847 210.14C372.492 210.14 372.189 210.089 371.937 209.986C371.694 209.883 371.493 209.748 371.335 209.58C371.176 209.403 371.059 209.207 370.985 208.992C370.919 208.768 370.887 208.539 370.887 208.306V203.784H370.019V202.734H370.887V201.208H372.119V202.734H374.233V203.784H372.119V208.152C372.119 208.46 372.193 208.684 372.343 208.824C372.501 208.964 372.777 209.034 373.169 209.034C373.533 209.034 373.864 208.931 374.163 208.726V209.846ZM378.716 210.14C378.221 210.14 377.759 210.056 377.33 209.888C376.9 209.72 376.527 209.477 376.21 209.16C375.902 208.833 375.659 208.437 375.482 207.97C375.304 207.503 375.216 206.967 375.216 206.36C375.216 205.763 375.304 205.231 375.482 204.764C375.659 204.288 375.902 203.891 376.21 203.574C376.527 203.257 376.9 203.014 377.33 202.846C377.759 202.678 378.221 202.594 378.716 202.594C379.22 202.594 379.686 202.678 380.116 202.846C380.545 203.014 380.914 203.257 381.222 203.574C381.539 203.891 381.786 204.288 381.964 204.764C382.15 205.231 382.244 205.763 382.244 206.36C382.244 206.967 382.15 207.503 381.964 207.97C381.786 208.437 381.539 208.833 381.222 209.16C380.914 209.477 380.545 209.72 380.116 209.888C379.686 210.056 379.22 210.14 378.716 210.14ZM378.716 209.034C379.042 209.034 379.341 208.983 379.612 208.88C379.892 208.768 380.134 208.605 380.34 208.39C380.545 208.166 380.704 207.886 380.816 207.55C380.928 207.214 380.984 206.817 380.984 206.36C380.984 205.903 380.928 205.506 380.816 205.17C380.704 204.834 380.545 204.559 380.34 204.344C380.134 204.12 379.892 203.957 379.612 203.854C379.341 203.742 379.042 203.686 378.716 203.686C378.389 203.686 378.09 203.742 377.82 203.854C377.549 203.957 377.311 204.12 377.106 204.344C376.91 204.559 376.756 204.834 376.644 205.17C376.532 205.506 376.476 205.903 376.476 206.36C376.476 206.817 376.532 207.214 376.644 207.55C376.756 207.886 376.91 208.166 377.106 208.39C377.311 208.605 377.549 208.768 377.82 208.88C378.09 208.983 378.389 209.034 378.716 209.034ZM387.343 203.966C386.821 204.013 386.345 204.148 385.915 204.372C385.495 204.587 385.183 204.923 384.977 205.38V210H383.745V202.734H384.823L384.949 204.316H384.977C385.183 203.887 385.477 203.513 385.859 203.196C386.251 202.869 386.746 202.669 387.343 202.594V203.966Z" fill="black"/>
<rect x="103" y="10" width="494" height="120" rx="10" fill="white" stroke="#5282FF" stroke-width="2"/>
<rect x="123" y="60" width="138" height="50" rx="10" fill="#D6E1FF"/>
<path d="M179.374 79.962V88.138C179.374 88.39 179.328 88.6373 179.234 88.88C179.141 89.1227 178.996 89.3373 178.8 89.524C178.614 89.7107 178.371 89.86 178.072 89.972C177.783 90.084 177.438 90.14 177.036 90.14C176.794 90.14 176.546 90.1167 176.294 90.07C176.052 90.0327 175.828 89.9767 175.622 89.902V88.768C175.977 88.8893 176.346 88.95 176.728 88.95C177.186 88.95 177.517 88.8567 177.722 88.67C177.937 88.474 178.044 88.166 178.044 87.746V79.962H179.374ZM181.671 79.962H185.045C185.717 79.962 186.342 80.0413 186.921 80.2C187.5 80.3587 188.004 80.62 188.433 80.984C188.862 81.348 189.198 81.8287 189.441 82.426C189.684 83.0233 189.805 83.7607 189.805 84.638C189.805 85.5247 189.679 86.304 189.427 86.976C189.184 87.6387 188.844 88.194 188.405 88.642C187.976 89.09 187.458 89.4307 186.851 89.664C186.254 89.888 185.6 90 184.891 90H181.671V79.962ZM182.987 81.166V88.81H184.891C185.404 88.81 185.876 88.7307 186.305 88.572C186.734 88.4133 187.103 88.1707 187.411 87.844C187.719 87.508 187.957 87.0833 188.125 86.57C188.293 86.0567 188.377 85.4453 188.377 84.736C188.377 84.036 188.293 83.4573 188.125 83C187.957 82.5333 187.724 82.1647 187.425 81.894C187.136 81.6233 186.786 81.4367 186.375 81.334C185.964 81.222 185.521 81.166 185.045 81.166H182.987ZM191.556 79.962H194.958C196.059 79.962 196.895 80.1487 197.464 80.522C198.043 80.8953 198.332 81.5253 198.332 82.412C198.332 82.776 198.281 83.0933 198.178 83.364C198.085 83.6253 197.949 83.854 197.772 84.05C197.604 84.2367 197.394 84.3907 197.142 84.512C196.899 84.6333 196.629 84.7267 196.33 84.792C197.114 84.8853 197.702 85.114 198.094 85.478C198.495 85.8327 198.696 86.374 198.696 87.102C198.696 87.6247 198.598 88.0727 198.402 88.446C198.215 88.81 197.954 89.1087 197.618 89.342C197.282 89.566 196.885 89.734 196.428 89.846C195.971 89.9487 195.471 90 194.93 90H191.556V79.962ZM192.872 81.166V84.246H194.86C195.177 84.246 195.467 84.2133 195.728 84.148C195.989 84.0733 196.213 83.966 196.4 83.826C196.587 83.6767 196.731 83.4947 196.834 83.28C196.946 83.056 197.002 82.79 197.002 82.482C197.002 81.9687 196.825 81.6233 196.47 81.446C196.115 81.2593 195.611 81.166 194.958 81.166H192.872ZM192.872 85.436V88.81H194.93C195.285 88.81 195.607 88.782 195.896 88.726C196.185 88.67 196.433 88.5767 196.638 88.446C196.853 88.3153 197.016 88.1427 197.128 87.928C197.249 87.7133 197.31 87.4473 197.31 87.13C197.31 86.4953 197.105 86.0567 196.694 85.814C196.293 85.562 195.653 85.436 194.776 85.436H192.872ZM204.865 90.14C204.118 90.14 203.442 90.0233 202.835 89.79C202.228 89.5567 201.706 89.2207 201.267 88.782C200.838 88.334 200.506 87.7927 200.273 87.158C200.04 86.514 199.923 85.7907 199.923 84.988C199.923 84.176 200.03 83.4527 200.245 82.818C200.46 82.1833 200.777 81.6467 201.197 81.208C201.617 80.76 202.13 80.4193 202.737 80.186C203.353 79.9527 204.053 79.836 204.837 79.836C205.518 79.836 206.116 79.9107 206.629 80.06C207.142 80.2 207.562 80.368 207.889 80.564V81.824C207.469 81.5533 206.984 81.3527 206.433 81.222C205.892 81.0913 205.355 81.026 204.823 81.026C203.638 81.026 202.76 81.3573 202.191 82.02C201.631 82.6733 201.351 83.6627 201.351 84.988C201.351 86.3227 201.654 87.3167 202.261 87.97C202.877 88.6233 203.782 88.95 204.977 88.95C205.49 88.95 205.99 88.88 206.475 88.74C206.97 88.6 207.441 88.362 207.889 88.026V89.286C207.618 89.5007 207.222 89.6967 206.699 89.874C206.186 90.0513 205.574 90.14 204.865 90.14Z" fill="black"/>
<rect x="281" y="60" width="138" height="50" rx="10" fill="#D6E1FF"/>
<path d="M332.883 90H330.951L328.739 82.244L326.513 90H324.567L322.355 79.962H323.727L325.631 88.866L328.207 79.962H329.411L331.931 88.698L333.821 79.962H335.095L332.883 90ZM341.908 89.384C341.805 89.4587 341.679 89.538 341.53 89.622C341.381 89.706 341.199 89.79 340.984 89.874C340.769 89.9487 340.527 90.0093 340.256 90.056C339.985 90.112 339.682 90.14 339.346 90.14C338.123 90.14 337.195 89.8087 336.56 89.146C335.925 88.4833 335.608 87.5547 335.608 86.36C335.608 85.772 335.692 85.2447 335.86 84.778C336.037 84.3113 336.28 83.9193 336.588 83.602C336.896 83.2753 337.26 83.028 337.68 82.86C338.1 82.6827 338.557 82.594 339.052 82.594C339.575 82.594 340.041 82.6827 340.452 82.86C340.863 83.0373 341.199 83.2987 341.46 83.644C341.731 83.9893 341.913 84.4187 342.006 84.932C342.109 85.436 342.109 86.024 342.006 86.696H336.882C336.929 87.48 337.162 88.068 337.582 88.46C338.002 88.8427 338.627 89.034 339.458 89.034C340.018 89.034 340.499 88.9547 340.9 88.796C341.301 88.6373 341.637 88.4647 341.908 88.278V89.384ZM339.024 83.686C338.492 83.686 338.035 83.8493 337.652 84.176C337.269 84.5027 337.027 84.9973 336.924 85.66H340.83C340.867 84.988 340.713 84.4933 340.368 84.176C340.023 83.8493 339.575 83.686 339.024 83.686ZM350.452 86.36C350.452 87.004 350.363 87.564 350.186 88.04C350.009 88.5067 349.771 88.8987 349.472 89.216C349.173 89.524 348.828 89.7573 348.436 89.916C348.044 90.0653 347.633 90.14 347.204 90.14C346.644 90.14 346.154 90.0093 345.734 89.748C345.323 89.4773 344.997 89.104 344.754 88.628L344.712 90H343.55V79.962H344.782L344.754 84.148C344.997 83.672 345.323 83.294 345.734 83.014C346.145 82.734 346.653 82.594 347.26 82.594C347.68 82.594 348.081 82.6733 348.464 82.832C348.856 82.9813 349.197 83.2147 349.486 83.532C349.785 83.84 350.018 84.232 350.186 84.708C350.363 85.1747 350.452 85.7253 350.452 86.36ZM347.022 89.034C347.666 89.034 348.184 88.8147 348.576 88.376C348.977 87.928 349.178 87.256 349.178 86.36C349.178 85.4827 348.977 84.82 348.576 84.372C348.184 83.9147 347.666 83.686 347.022 83.686C346.705 83.686 346.406 83.742 346.126 83.854C345.855 83.966 345.617 84.134 345.412 84.358C345.216 84.5727 345.057 84.848 344.936 85.184C344.824 85.52 344.768 85.912 344.768 86.36C344.768 86.808 344.824 87.2 344.936 87.536C345.057 87.872 345.216 88.152 345.412 88.376C345.617 88.6 345.855 88.768 346.126 88.88C346.406 88.9827 346.705 89.034 347.022 89.034ZM354.913 90.14C354.455 90.14 354.045 90.1073 353.681 90.042C353.317 89.986 352.995 89.9113 352.715 89.818C352.444 89.7153 352.211 89.608 352.015 89.496C351.828 89.3747 351.679 89.258 351.567 89.146V87.886C351.707 88.0073 351.889 88.1333 352.113 88.264C352.337 88.3853 352.593 88.4973 352.883 88.6C353.181 88.7027 353.499 88.7867 353.835 88.852C354.18 88.9173 354.539 88.95 354.913 88.95C355.641 88.95 356.219 88.8147 356.649 88.544C357.078 88.264 357.293 87.844 357.293 87.284C357.293 87.004 357.241 86.7753 357.139 86.598C357.036 86.4113 356.887 86.2573 356.691 86.136C356.495 86.0053 356.247 85.898 355.949 85.814C355.659 85.7207 355.319 85.6227 354.927 85.52C354.535 85.4173 354.143 85.3007 353.751 85.17C353.359 85.0393 353.004 84.8667 352.687 84.652C352.379 84.4373 352.127 84.1667 351.931 83.84C351.744 83.5133 351.651 83.098 351.651 82.594C351.651 81.726 351.954 81.0493 352.561 80.564C353.167 80.0787 354.096 79.836 355.347 79.836C355.711 79.836 356.033 79.8593 356.313 79.906C356.602 79.9433 356.854 79.9947 357.069 80.06C357.293 80.116 357.484 80.1813 357.643 80.256C357.811 80.3307 357.96 80.4007 358.091 80.466V81.726C357.699 81.474 357.274 81.2967 356.817 81.194C356.369 81.082 355.879 81.026 355.347 81.026C354.899 81.026 354.521 81.0633 354.213 81.138C353.914 81.2033 353.671 81.3013 353.485 81.432C353.298 81.5627 353.163 81.7213 353.079 81.908C352.995 82.0947 352.953 82.3047 352.953 82.538C352.953 82.818 353.013 83.0513 353.135 83.238C353.265 83.4247 353.433 83.5833 353.639 83.714C353.853 83.8353 354.096 83.938 354.367 84.022C354.637 84.106 354.922 84.1807 355.221 84.246C355.613 84.3393 356.014 84.4467 356.425 84.568C356.835 84.6893 357.204 84.8573 357.531 85.072C357.857 85.2867 358.123 85.5667 358.329 85.912C358.543 86.248 358.651 86.6867 358.651 87.228C358.651 87.76 358.543 88.2127 358.329 88.586C358.123 88.95 357.848 89.2487 357.503 89.482C357.157 89.7153 356.761 89.8833 356.313 89.986C355.865 90.0887 355.398 90.14 354.913 90.14ZM368.982 91.89C368.235 91.7407 367.558 91.5773 366.952 91.4C366.354 91.232 365.808 91.0593 365.314 90.882C364.819 90.7047 364.362 90.532 363.942 90.364C363.531 90.196 363.144 90.042 362.78 89.902C362.332 89.7247 361.921 89.5007 361.548 89.23C361.174 88.95 360.852 88.614 360.582 88.222C360.311 87.83 360.101 87.3727 359.952 86.85C359.802 86.318 359.728 85.7113 359.728 85.03C359.728 84.19 359.849 83.448 360.092 82.804C360.334 82.16 360.67 81.6187 361.1 81.18C361.529 80.7413 362.033 80.41 362.612 80.186C363.2 79.9527 363.834 79.836 364.516 79.836C365.188 79.836 365.818 79.948 366.406 80.172C366.994 80.3867 367.502 80.7087 367.932 81.138C368.37 81.558 368.711 82.09 368.954 82.734C369.206 83.3687 369.332 84.106 369.332 84.946C369.332 85.5527 369.266 86.122 369.136 86.654C369.014 87.1767 368.809 87.6527 368.52 88.082C368.23 88.502 367.857 88.866 367.4 89.174C366.942 89.482 366.378 89.72 365.706 89.888C366.266 90.056 366.849 90.2053 367.456 90.336C368.062 90.4667 368.73 90.574 369.458 90.658L368.982 91.89ZM364.53 88.95C365.015 88.95 365.463 88.88 365.874 88.74C366.284 88.5907 366.639 88.362 366.938 88.054C367.246 87.7367 367.484 87.326 367.652 86.822C367.829 86.318 367.918 85.7067 367.918 84.988C367.918 84.2693 367.829 83.658 367.652 83.154C367.484 82.65 367.246 82.244 366.938 81.936C366.639 81.6187 366.284 81.39 365.874 81.25C365.463 81.1007 365.015 81.026 364.53 81.026C364.044 81.026 363.596 81.1007 363.186 81.25C362.775 81.39 362.416 81.6187 362.108 81.936C361.809 82.244 361.571 82.65 361.394 83.154C361.226 83.658 361.142 84.2693 361.142 84.988C361.142 85.7067 361.226 86.318 361.394 86.822C361.571 87.326 361.809 87.7367 362.108 88.054C362.416 88.362 362.775 88.5907 363.186 88.74C363.596 88.88 364.044 88.95 364.53 88.95ZM377.291 90H371.089V79.962H372.405V88.81H377.291V90Z" fill="black"/>
<rect x="439" y="60" width="138" height="50" rx="10" fill="#D6E1FF"/>
<path d="M482.543 79.962H485.917C486.589 79.962 487.215 80.0413 487.793 80.2C488.372 80.3587 488.876 80.62 489.305 80.984C489.735 81.348 490.071 81.8287 490.313 82.426C490.556 83.0233 490.677 83.7607 490.677 84.638C490.677 85.5247 490.551 86.304 490.299 86.976C490.057 87.6387 489.716 88.194 489.277 88.642C488.848 89.09 488.33 89.4307 487.723 89.664C487.126 89.888 486.473 90 485.763 90H482.543V79.962ZM483.859 81.166V88.81H485.763C486.277 88.81 486.748 88.7307 487.177 88.572C487.607 88.4133 487.975 88.1707 488.283 87.844C488.591 87.508 488.829 87.0833 488.997 86.57C489.165 86.0567 489.249 85.4453 489.249 84.736C489.249 84.036 489.165 83.4573 488.997 83C488.829 82.5333 488.596 82.1647 488.297 81.894C488.008 81.6233 487.658 81.4367 487.247 81.334C486.837 81.222 486.393 81.166 485.917 81.166H483.859ZM492.428 79.962H495.83C496.931 79.962 497.767 80.1487 498.336 80.522C498.915 80.8953 499.204 81.5253 499.204 82.412C499.204 82.776 499.153 83.0933 499.05 83.364C498.957 83.6253 498.821 83.854 498.644 84.05C498.476 84.2367 498.266 84.3907 498.014 84.512C497.771 84.6333 497.501 84.7267 497.202 84.792C497.986 84.8853 498.574 85.114 498.966 85.478C499.367 85.8327 499.568 86.374 499.568 87.102C499.568 87.6247 499.47 88.0727 499.274 88.446C499.087 88.81 498.826 89.1087 498.49 89.342C498.154 89.566 497.757 89.734 497.3 89.846C496.843 89.9487 496.343 90 495.802 90H492.428V79.962ZM493.744 81.166V84.246H495.732C496.049 84.246 496.339 84.2133 496.6 84.148C496.861 84.0733 497.085 83.966 497.272 83.826C497.459 83.6767 497.603 83.4947 497.706 83.28C497.818 83.056 497.874 82.79 497.874 82.482C497.874 81.9687 497.697 81.6233 497.342 81.446C496.987 81.2593 496.483 81.166 495.83 81.166H493.744ZM493.744 85.436V88.81H495.802C496.157 88.81 496.479 88.782 496.768 88.726C497.057 88.67 497.305 88.5767 497.51 88.446C497.725 88.3153 497.888 88.1427 498 87.928C498.121 87.7133 498.182 87.4473 498.182 87.13C498.182 86.4953 497.977 86.0567 497.566 85.814C497.165 85.562 496.525 85.436 495.648 85.436H493.744ZM507.065 89.384C506.963 89.4587 506.837 89.538 506.687 89.622C506.538 89.706 506.356 89.79 506.141 89.874C505.927 89.9487 505.684 90.0093 505.413 90.056C505.143 90.112 504.839 90.14 504.503 90.14C503.281 90.14 502.352 89.8087 501.717 89.146C501.083 88.4833 500.765 87.5547 500.765 86.36C500.765 85.772 500.849 85.2447 501.017 84.778C501.195 84.3113 501.437 83.9193 501.745 83.602C502.053 83.2753 502.417 83.028 502.837 82.86C503.257 82.6827 503.715 82.594 504.209 82.594C504.732 82.594 505.199 82.6827 505.609 82.86C506.02 83.0373 506.356 83.2987 506.617 83.644C506.888 83.9893 507.07 84.4187 507.163 84.932C507.266 85.436 507.266 86.024 507.163 86.696H502.039C502.086 87.48 502.319 88.068 502.739 88.46C503.159 88.8427 503.785 89.034 504.615 89.034C505.175 89.034 505.656 88.9547 506.057 88.796C506.459 88.6373 506.795 88.4647 507.065 88.278V89.384ZM504.181 83.686C503.649 83.686 503.192 83.8493 502.809 84.176C502.427 84.5027 502.184 84.9973 502.081 85.66H505.987C506.025 84.988 505.871 84.4933 505.525 84.176C505.18 83.8493 504.732 83.686 504.181 83.686ZM512.963 88.614C512.879 88.782 512.772 88.9593 512.641 89.146C512.511 89.3233 512.347 89.4867 512.151 89.636C511.955 89.7853 511.722 89.9067 511.451 90C511.19 90.0933 510.882 90.14 510.527 90.14C509.874 90.14 509.347 89.958 508.945 89.594C508.544 89.2207 508.343 88.6887 508.343 87.998C508.343 87.2047 508.619 86.6213 509.169 86.248C509.729 85.8747 510.523 85.688 511.549 85.688H512.907V85.086C512.907 84.582 512.777 84.2227 512.515 84.008C512.254 83.7933 511.806 83.686 511.171 83.686C510.723 83.686 510.299 83.7607 509.897 83.91C509.496 84.05 509.137 84.2133 508.819 84.4V83.294C509.081 83.1353 509.431 82.9813 509.869 82.832C510.317 82.6733 510.807 82.594 511.339 82.594C512.254 82.594 512.949 82.7853 513.425 83.168C513.901 83.5413 514.139 84.1247 514.139 84.918V88.824C514.139 88.908 514.139 89.006 514.139 89.118C514.149 89.2207 514.153 89.328 514.153 89.44C514.163 89.552 514.172 89.6593 514.181 89.762C514.191 89.8553 514.2 89.9347 514.209 90H513.089C513.061 89.8693 513.033 89.6873 513.005 89.454C512.987 89.2113 512.977 89.0013 512.977 88.824L512.963 88.614ZM510.793 89.034C511.176 89.034 511.503 88.9547 511.773 88.796C512.044 88.6373 512.263 88.4553 512.431 88.25C512.599 88.0353 512.721 87.83 512.795 87.634C512.87 87.4287 512.907 87.284 512.907 87.2V86.668H511.675C510.938 86.668 510.401 86.7753 510.065 86.99C509.739 87.1953 509.575 87.508 509.575 87.928C509.575 88.2547 509.673 88.5207 509.869 88.726C510.065 88.9313 510.373 89.034 510.793 89.034ZM519.62 90H517.632L515.14 82.734H516.47L518.682 89.342L520.88 82.734H522.112L519.62 90ZM528.899 89.384C528.797 89.4587 528.671 89.538 528.521 89.622C528.372 89.706 528.19 89.79 527.975 89.874C527.761 89.9487 527.518 90.0093 527.247 90.056C526.977 90.112 526.673 90.14 526.337 90.14C525.115 90.14 524.186 89.8087 523.551 89.146C522.917 88.4833 522.599 87.5547 522.599 86.36C522.599 85.772 522.683 85.2447 522.851 84.778C523.029 84.3113 523.271 83.9193 523.579 83.602C523.887 83.2753 524.251 83.028 524.671 82.86C525.091 82.6827 525.549 82.594 526.043 82.594C526.566 82.594 527.033 82.6827 527.443 82.86C527.854 83.0373 528.19 83.2987 528.451 83.644C528.722 83.9893 528.904 84.4187 528.997 84.932C529.1 85.436 529.1 86.024 528.997 86.696H523.873C523.92 87.48 524.153 88.068 524.573 88.46C524.993 88.8427 525.619 89.034 526.449 89.034C527.009 89.034 527.49 88.9547 527.891 88.796C528.293 88.6373 528.629 88.4647 528.899 88.278V89.384ZM526.015 83.686C525.483 83.686 525.026 83.8493 524.643 84.176C524.261 84.5027 524.018 84.9973 523.915 85.66H527.821C527.859 84.988 527.705 84.4933 527.359 84.176C527.014 83.8493 526.566 83.686 526.015 83.686ZM534.139 83.966C533.617 84.0127 533.141 84.148 532.711 84.372C532.291 84.5867 531.979 84.9227 531.773 85.38V90H530.541V82.734H531.619L531.745 84.316H531.773C531.979 83.8867 532.273 83.5133 532.655 83.196C533.047 82.8693 533.542 82.6687 534.139 82.594V83.966Z" fill="black"/>
<path d="M333.215 40.14C332.421 40.14 331.703 40.0233 331.059 39.79C330.424 39.5567 329.878 39.2207 329.421 38.782C328.973 38.334 328.627 37.7927 328.385 37.158C328.142 36.5233 328.021 35.8 328.021 34.988C328.021 34.176 328.137 33.4527 328.371 32.818C328.613 32.1833 328.959 31.6467 329.407 31.208C329.855 30.76 330.396 30.4193 331.031 30.186C331.675 29.9527 332.403 29.836 333.215 29.836C333.915 29.836 334.498 29.9013 334.965 30.032C335.441 30.1533 335.814 30.2933 336.085 30.452V32.174C335.758 31.9687 335.357 31.8053 334.881 31.684C334.405 31.5627 333.887 31.502 333.327 31.502C332.225 31.502 331.413 31.7913 330.891 32.37C330.368 32.9487 330.107 33.8213 330.107 34.988C330.107 37.312 331.189 38.474 333.355 38.474C333.915 38.474 334.423 38.4133 334.881 38.292C335.347 38.1613 335.749 37.9793 336.085 37.746V39.426C335.833 39.6127 335.464 39.7807 334.979 39.93C334.503 40.07 333.915 40.14 333.215 40.14ZM339.476 29.962V40H337.544V29.962H339.476ZM342.147 31.922C341.811 31.922 341.526 31.81 341.293 31.586C341.069 31.362 340.957 31.0913 340.957 30.774C340.957 30.4567 341.069 30.186 341.293 29.962C341.526 29.738 341.811 29.626 342.147 29.626C342.315 29.626 342.469 29.6587 342.609 29.724C342.749 29.78 342.87 29.8593 342.973 29.962C343.085 30.0647 343.169 30.186 343.225 30.326C343.29 30.466 343.323 30.6153 343.323 30.774C343.323 30.9327 343.29 31.082 343.225 31.222C343.169 31.362 343.085 31.4833 342.973 31.586C342.87 31.6887 342.749 31.7727 342.609 31.838C342.469 31.894 342.315 31.922 342.147 31.922ZM343.113 32.734V40H341.181V32.734H343.113ZM351.118 39.524C351.006 39.5893 350.875 39.6593 350.726 39.734C350.586 39.7993 350.413 39.8647 350.208 39.93C350.012 39.986 349.779 40.0327 349.508 40.07C349.247 40.1167 348.934 40.14 348.57 40.14C347.151 40.14 346.101 39.8087 345.42 39.146C344.739 38.4833 344.398 37.5547 344.398 36.36C344.398 35.772 344.487 35.2447 344.664 34.778C344.851 34.3113 345.107 33.9193 345.434 33.602C345.761 33.2753 346.148 33.028 346.596 32.86C347.053 32.6827 347.557 32.594 348.108 32.594C348.668 32.594 349.172 32.6873 349.62 32.874C350.068 33.0513 350.437 33.3173 350.726 33.672C351.025 34.0267 351.23 34.4747 351.342 35.016C351.454 35.5573 351.454 36.1827 351.342 36.892H346.414C346.489 37.4613 346.694 37.8907 347.03 38.18C347.375 38.46 347.921 38.6 348.668 38.6C349.265 38.6 349.751 38.5347 350.124 38.404C350.507 38.2733 350.838 38.138 351.118 37.998V39.524ZM348.136 34.036C347.707 34.036 347.347 34.1667 347.058 34.428C346.769 34.6893 346.573 35.0673 346.47 35.562H349.494C349.503 35.0487 349.391 34.666 349.158 34.414C348.925 34.162 348.584 34.036 348.136 34.036ZM356.387 34.134C355.995 34.134 355.655 34.2133 355.365 34.372C355.085 34.5307 354.857 34.736 354.679 34.988V40H352.747V32.734H354.567L354.651 33.826H354.679C354.875 33.4713 355.165 33.1773 355.547 32.944C355.93 32.7107 356.415 32.594 357.003 32.594C357.349 32.594 357.671 32.6453 357.969 32.748C358.277 32.8413 358.539 32.986 358.753 33.182C358.977 33.3687 359.15 33.6067 359.271 33.896C359.402 34.1853 359.467 34.526 359.467 34.918V40H357.521V35.128C357.521 34.764 357.419 34.5073 357.213 34.358C357.017 34.2087 356.742 34.134 356.387 34.134ZM365.246 39.72C365.059 39.8413 364.83 39.9393 364.56 40.014C364.298 40.098 363.972 40.14 363.58 40.14C363.16 40.14 362.81 40.084 362.53 39.972C362.25 39.8507 362.021 39.692 361.844 39.496C361.676 39.3 361.554 39.0713 361.48 38.81C361.405 38.5393 361.368 38.25 361.368 37.942V34.26H360.5V32.734H361.368V31.208H363.3V32.734H365.358V34.26H363.3V37.732C363.3 38.0213 363.365 38.236 363.496 38.376C363.626 38.516 363.841 38.586 364.14 38.586C364.392 38.586 364.606 38.5487 364.784 38.474C364.961 38.39 365.115 38.292 365.246 38.18V39.72ZM369.101 40.14C368.747 40.14 368.425 40.112 368.135 40.056C367.846 40 367.585 39.93 367.351 39.846C367.127 39.762 366.936 39.6733 366.777 39.58C366.619 39.4867 366.493 39.4027 366.399 39.328V37.9C366.493 37.984 366.619 38.0727 366.777 38.166C366.936 38.2593 367.123 38.348 367.337 38.432C367.561 38.5067 367.813 38.572 368.093 38.628C368.373 38.6747 368.681 38.698 369.017 38.698C369.521 38.698 369.867 38.628 370.053 38.488C370.24 38.348 370.333 38.166 370.333 37.942C370.333 37.7647 370.287 37.6293 370.193 37.536C370.1 37.4333 369.974 37.3587 369.815 37.312C369.666 37.256 369.493 37.214 369.297 37.186C369.101 37.158 368.896 37.1207 368.681 37.074C368.411 37.018 368.135 36.948 367.855 36.864C367.585 36.7707 367.337 36.6447 367.113 36.486C366.899 36.3273 366.721 36.122 366.581 35.87C366.441 35.6087 366.371 35.282 366.371 34.89C366.371 34.1713 366.633 33.6113 367.155 33.21C367.678 32.7993 368.425 32.594 369.395 32.594C369.955 32.594 370.431 32.6547 370.823 32.776C371.215 32.8973 371.495 33.0187 371.663 33.14V34.568C371.458 34.428 371.178 34.302 370.823 34.19C370.478 34.078 370.03 34.022 369.479 34.022C368.966 34.022 368.607 34.0827 368.401 34.204C368.205 34.3253 368.107 34.5027 368.107 34.736C368.107 34.8947 368.149 35.016 368.233 35.1C368.327 35.184 368.448 35.2493 368.597 35.296C368.747 35.3427 368.915 35.38 369.101 35.408C369.297 35.4267 369.498 35.45 369.703 35.478C369.974 35.5247 370.249 35.59 370.529 35.674C370.809 35.7487 371.061 35.87 371.285 36.038C371.519 36.206 371.705 36.43 371.845 36.71C371.995 36.9807 372.069 37.326 372.069 37.746C372.069 38.194 371.985 38.572 371.817 38.88C371.649 39.1787 371.425 39.426 371.145 39.622C370.865 39.8087 370.548 39.9393 370.193 40.014C369.839 40.098 369.475 40.14 369.101 40.14Z" fill="black"/>
<rect x="123" y="300" width="178" height="120" rx="10" fill="white" stroke="#5282FF" stroke-width="2"/>
<path d="M194.939 330H192.321L190.403 322.846L188.499 330H185.881L183.753 319.962H185.797L187.365 327.858L189.507 319.962H191.523L193.651 327.76L195.289 319.962H197.067L194.939 330ZM201.001 330.14C200.479 330.14 199.993 330.061 199.545 329.902C199.107 329.734 198.719 329.491 198.383 329.174C198.057 328.847 197.8 328.451 197.613 327.984C197.427 327.508 197.333 326.967 197.333 326.36C197.333 325.753 197.427 325.217 197.613 324.75C197.8 324.274 198.057 323.877 198.383 323.56C198.719 323.243 199.107 323.005 199.545 322.846C199.993 322.678 200.479 322.594 201.001 322.594C201.524 322.594 202.009 322.678 202.457 322.846C202.915 323.005 203.307 323.243 203.633 323.56C203.969 323.877 204.231 324.274 204.417 324.75C204.613 325.217 204.711 325.753 204.711 326.36C204.711 326.967 204.613 327.508 204.417 327.984C204.231 328.451 203.969 328.847 203.633 329.174C203.307 329.491 202.915 329.734 202.457 329.902C202.009 330.061 201.524 330.14 201.001 330.14ZM201.001 328.586C201.505 328.586 201.916 328.404 202.233 328.04C202.551 327.676 202.709 327.116 202.709 326.36C202.709 325.613 202.551 325.058 202.233 324.694C201.916 324.33 201.505 324.148 201.001 324.148C200.525 324.148 200.124 324.33 199.797 324.694C199.48 325.058 199.321 325.613 199.321 326.36C199.321 327.116 199.48 327.676 199.797 328.04C200.124 328.404 200.525 328.586 201.001 328.586ZM210.366 324.568C209.834 324.521 209.353 324.573 208.924 324.722C208.494 324.862 208.158 325.091 207.916 325.408V330H205.984V322.734H207.79L207.888 324.204H207.916C208.177 323.728 208.513 323.35 208.924 323.07C209.344 322.79 209.824 322.631 210.366 322.594V324.568ZM214.137 327.172H213.507V330H211.575V319.962H213.507V325.632H214.165L216.293 322.734H218.239L215.677 326.206L218.421 330H216.195L214.137 327.172ZM225.176 329.524C225.064 329.589 224.934 329.659 224.784 329.734C224.644 329.799 224.472 329.865 224.266 329.93C224.07 329.986 223.837 330.033 223.566 330.07C223.305 330.117 222.992 330.14 222.628 330.14C221.21 330.14 220.16 329.809 219.478 329.146C218.797 328.483 218.456 327.555 218.456 326.36C218.456 325.772 218.545 325.245 218.722 324.778C218.909 324.311 219.166 323.919 219.492 323.602C219.819 323.275 220.206 323.028 220.654 322.86C221.112 322.683 221.616 322.594 222.166 322.594C222.726 322.594 223.23 322.687 223.678 322.874C224.126 323.051 224.495 323.317 224.784 323.672C225.083 324.027 225.288 324.475 225.4 325.016C225.512 325.557 225.512 326.183 225.4 326.892H220.472C220.547 327.461 220.752 327.891 221.088 328.18C221.434 328.46 221.98 328.6 222.726 328.6C223.324 328.6 223.809 328.535 224.182 328.404C224.565 328.273 224.896 328.138 225.176 327.998V329.524ZM222.194 324.036C221.765 324.036 221.406 324.167 221.116 324.428C220.827 324.689 220.631 325.067 220.528 325.562H223.552C223.562 325.049 223.45 324.666 223.216 324.414C222.983 324.162 222.642 324.036 222.194 324.036ZM231.188 324.568C230.656 324.521 230.175 324.573 229.746 324.722C229.316 324.862 228.98 325.091 228.738 325.408V330H226.806V322.734H228.612L228.71 324.204H228.738C228.999 323.728 229.335 323.35 229.746 323.07C230.166 322.79 230.646 322.631 231.188 322.594V324.568ZM239.226 330H237.28V322.09L235.208 324.148V322.258L237.504 319.962H239.226V330Z" fill="black"/>
<rect x="143" y="350" width="138" height="50" rx="10" fill="#D6E1FF"/>
<path d="M180.219 380.14C179.473 380.14 178.796 380.023 178.189 379.79C177.583 379.557 177.06 379.221 176.621 378.782C176.192 378.334 175.861 377.793 175.627 377.158C175.394 376.514 175.277 375.791 175.277 374.988C175.277 374.176 175.385 373.453 175.599 372.818C175.814 372.183 176.131 371.647 176.551 371.208C176.971 370.76 177.485 370.419 178.091 370.186C178.707 369.953 179.407 369.836 180.191 369.836C180.873 369.836 181.47 369.911 181.983 370.06C182.497 370.2 182.917 370.368 183.243 370.564V371.824C182.823 371.553 182.338 371.353 181.787 371.222C181.246 371.091 180.709 371.026 180.177 371.026C178.992 371.026 178.115 371.357 177.545 372.02C176.985 372.673 176.705 373.663 176.705 374.988C176.705 376.323 177.009 377.317 177.615 377.97C178.231 378.623 179.137 378.95 180.331 378.95C180.845 378.95 181.344 378.88 181.829 378.74C182.324 378.6 182.795 378.362 183.243 378.026V379.286C182.973 379.501 182.576 379.697 182.053 379.874C181.54 380.051 180.929 380.14 180.219 380.14ZM188.004 380.14C187.509 380.14 187.047 380.056 186.618 379.888C186.188 379.72 185.815 379.477 185.498 379.16C185.19 378.833 184.947 378.437 184.77 377.97C184.592 377.503 184.504 376.967 184.504 376.36C184.504 375.763 184.592 375.231 184.77 374.764C184.947 374.288 185.19 373.891 185.498 373.574C185.815 373.257 186.188 373.014 186.618 372.846C187.047 372.678 187.509 372.594 188.004 372.594C188.508 372.594 188.974 372.678 189.404 372.846C189.833 373.014 190.202 373.257 190.51 373.574C190.827 373.891 191.074 374.288 191.252 374.764C191.438 375.231 191.532 375.763 191.532 376.36C191.532 376.967 191.438 377.503 191.252 377.97C191.074 378.437 190.827 378.833 190.51 379.16C190.202 379.477 189.833 379.72 189.404 379.888C188.974 380.056 188.508 380.14 188.004 380.14ZM188.004 379.034C188.33 379.034 188.629 378.983 188.9 378.88C189.18 378.768 189.422 378.605 189.628 378.39C189.833 378.166 189.992 377.886 190.104 377.55C190.216 377.214 190.272 376.817 190.272 376.36C190.272 375.903 190.216 375.506 190.104 375.17C189.992 374.834 189.833 374.559 189.628 374.344C189.422 374.12 189.18 373.957 188.9 373.854C188.629 373.742 188.33 373.686 188.004 373.686C187.677 373.686 187.378 373.742 187.108 373.854C186.837 373.957 186.599 374.12 186.394 374.344C186.198 374.559 186.044 374.834 185.932 375.17C185.82 375.506 185.764 375.903 185.764 376.36C185.764 376.817 185.82 377.214 185.932 377.55C186.044 377.886 186.198 378.166 186.394 378.39C186.599 378.605 186.837 378.768 187.108 378.88C187.378 378.983 187.677 379.034 188.004 379.034ZM196.477 373.686C195.917 373.686 195.46 373.817 195.105 374.078C194.76 374.33 194.48 374.657 194.265 375.058V380H193.033V372.734H194.195L194.237 374.036H194.265C194.461 373.616 194.769 373.271 195.189 373C195.609 372.729 196.141 372.594 196.785 372.594C197.504 372.594 198.073 372.785 198.493 373.168C198.923 373.541 199.137 374.12 199.137 374.904V380H197.905V375.03C197.905 374.526 197.779 374.176 197.527 373.98C197.275 373.784 196.925 373.686 196.477 373.686ZM204.53 373.686C203.97 373.686 203.513 373.817 203.158 374.078C202.813 374.33 202.533 374.657 202.318 375.058V380H201.086V372.734H202.248L202.29 374.036H202.318C202.514 373.616 202.822 373.271 203.242 373C203.662 372.729 204.194 372.594 204.838 372.594C205.557 372.594 206.126 372.785 206.546 373.168C206.975 373.541 207.19 374.12 207.19 374.904V380H205.958V375.03C205.958 374.526 205.832 374.176 205.58 373.98C205.328 373.784 204.978 373.686 204.53 373.686ZM214.921 379.384C214.818 379.459 214.692 379.538 214.543 379.622C214.394 379.706 214.212 379.79 213.997 379.874C213.782 379.949 213.54 380.009 213.269 380.056C212.998 380.112 212.695 380.14 212.359 380.14C211.136 380.14 210.208 379.809 209.573 379.146C208.938 378.483 208.621 377.555 208.621 376.36C208.621 375.772 208.705 375.245 208.873 374.778C209.05 374.311 209.293 373.919 209.601 373.602C209.909 373.275 210.273 373.028 210.693 372.86C211.113 372.683 211.57 372.594 212.065 372.594C212.588 372.594 213.054 372.683 213.465 372.86C213.876 373.037 214.212 373.299 214.473 373.644C214.744 373.989 214.926 374.419 215.019 374.932C215.122 375.436 215.122 376.024 215.019 376.696H209.895C209.942 377.48 210.175 378.068 210.595 378.46C211.015 378.843 211.64 379.034 212.471 379.034C213.031 379.034 213.512 378.955 213.913 378.796C214.314 378.637 214.65 378.465 214.921 378.278V379.384ZM212.037 373.686C211.505 373.686 211.048 373.849 210.665 374.176C210.282 374.503 210.04 374.997 209.937 375.66H213.843C213.88 374.988 213.726 374.493 213.381 374.176C213.036 373.849 212.588 373.686 212.037 373.686ZM219.699 380.14C219.139 380.14 218.63 380.056 218.173 379.888C217.725 379.711 217.342 379.463 217.025 379.146C216.707 378.819 216.465 378.423 216.297 377.956C216.129 377.489 216.045 376.957 216.045 376.36C216.045 375.772 216.129 375.245 216.297 374.778C216.474 374.311 216.721 373.919 217.039 373.602C217.356 373.275 217.743 373.028 218.201 372.86C218.658 372.683 219.176 372.594 219.755 372.594C220.203 372.594 220.613 372.645 220.987 372.748C221.36 372.841 221.668 372.981 221.911 373.168V374.274C221.612 374.078 221.276 373.933 220.903 373.84C220.539 373.737 220.161 373.686 219.769 373.686C218.919 373.686 218.294 373.905 217.893 374.344C217.501 374.783 217.305 375.455 217.305 376.36C217.305 377.265 217.496 377.937 217.879 378.376C218.261 378.815 218.868 379.034 219.699 379.034C220.137 379.034 220.539 378.983 220.903 378.88C221.276 378.768 221.612 378.628 221.911 378.46V379.566C221.649 379.725 221.332 379.86 220.959 379.972C220.595 380.084 220.175 380.14 219.699 380.14ZM227.037 379.846C226.887 379.93 226.696 380 226.463 380.056C226.229 380.112 225.982 380.14 225.721 380.14C225.366 380.14 225.063 380.089 224.811 379.986C224.568 379.883 224.367 379.748 224.209 379.58C224.05 379.403 223.933 379.207 223.859 378.992C223.793 378.768 223.761 378.539 223.761 378.306V373.784H222.893V372.734H223.761V371.208H224.993V372.734H227.107V373.784H224.993V378.152C224.993 378.46 225.067 378.684 225.217 378.824C225.375 378.964 225.651 379.034 226.043 379.034C226.407 379.034 226.738 378.931 227.037 378.726V379.846ZM231.59 380.14C231.095 380.14 230.633 380.056 230.204 379.888C229.774 379.72 229.401 379.477 229.084 379.16C228.776 378.833 228.533 378.437 228.356 377.97C228.178 377.503 228.09 376.967 228.09 376.36C228.09 375.763 228.178 375.231 228.356 374.764C228.533 374.288 228.776 373.891 229.084 373.574C229.401 373.257 229.774 373.014 230.204 372.846C230.633 372.678 231.095 372.594 231.59 372.594C232.094 372.594 232.56 372.678 232.99 372.846C233.419 373.014 233.788 373.257 234.096 373.574C234.413 373.891 234.66 374.288 234.838 374.764C235.024 375.231 235.118 375.763 235.118 376.36C235.118 376.967 235.024 377.503 234.838 377.97C234.66 378.437 234.413 378.833 234.096 379.16C233.788 379.477 233.419 379.72 232.99 379.888C232.56 380.056 232.094 380.14 231.59 380.14ZM231.59 379.034C231.916 379.034 232.215 378.983 232.486 378.88C232.766 378.768 233.008 378.605 233.214 378.39C233.419 378.166 233.578 377.886 233.69 377.55C233.802 377.214 233.858 376.817 233.858 376.36C233.858 375.903 233.802 375.506 233.69 375.17C233.578 374.834 233.419 374.559 233.214 374.344C233.008 374.12 232.766 373.957 232.486 373.854C232.215 373.742 231.916 373.686 231.59 373.686C231.263 373.686 230.964 373.742 230.694 373.854C230.423 373.957 230.185 374.12 229.98 374.344C229.784 374.559 229.63 374.834 229.518 375.17C229.406 375.506 229.35 375.903 229.35 376.36C229.35 376.817 229.406 377.214 229.518 377.55C229.63 377.886 229.784 378.166 229.98 378.39C230.185 378.605 230.423 378.768 230.694 378.88C230.964 378.983 231.263 379.034 231.59 379.034ZM240.217 373.966C239.695 374.013 239.219 374.148 238.789 374.372C238.369 374.587 238.057 374.923 237.851 375.38V380H236.619V372.734H237.697L237.823 374.316H237.851C238.057 373.887 238.351 373.513 238.733 373.196C239.125 372.869 239.62 372.669 240.217 372.594V373.966ZM247.875 380H246.587V371.6L244.459 373.672V372.258L246.825 369.962H247.875V380Z" fill="black"/>
<rect x="399" y="300" width="178" height="120" rx="10" fill="white" stroke="#5282FF" stroke-width="2"/>
<path d="M469.948 330H467.33L465.412 322.846L463.508 330H460.89L458.762 319.962H460.806L462.374 327.858L464.516 319.962H466.532L468.66 327.76L470.298 319.962H472.076L469.948 330ZM476.01 330.14C475.488 330.14 475.002 330.061 474.554 329.902C474.116 329.734 473.728 329.491 473.392 329.174C473.066 328.847 472.809 328.451 472.622 327.984C472.436 327.508 472.342 326.967 472.342 326.36C472.342 325.753 472.436 325.217 472.622 324.75C472.809 324.274 473.066 323.877 473.392 323.56C473.728 323.243 474.116 323.005 474.554 322.846C475.002 322.678 475.488 322.594 476.01 322.594C476.533 322.594 477.018 322.678 477.466 322.846C477.924 323.005 478.316 323.243 478.642 323.56C478.978 323.877 479.24 324.274 479.426 324.75C479.622 325.217 479.72 325.753 479.72 326.36C479.72 326.967 479.622 327.508 479.426 327.984C479.24 328.451 478.978 328.847 478.642 329.174C478.316 329.491 477.924 329.734 477.466 329.902C477.018 330.061 476.533 330.14 476.01 330.14ZM476.01 328.586C476.514 328.586 476.925 328.404 477.242 328.04C477.56 327.676 477.718 327.116 477.718 326.36C477.718 325.613 477.56 325.058 477.242 324.694C476.925 324.33 476.514 324.148 476.01 324.148C475.534 324.148 475.133 324.33 474.806 324.694C474.489 325.058 474.33 325.613 474.33 326.36C474.33 327.116 474.489 327.676 474.806 328.04C475.133 328.404 475.534 328.586 476.01 328.586ZM485.374 324.568C484.842 324.521 484.362 324.573 483.932 324.722C483.503 324.862 483.167 325.091 482.924 325.408V330H480.992V322.734H482.798L482.896 324.204H482.924C483.186 323.728 483.522 323.35 483.932 323.07C484.352 322.79 484.833 322.631 485.374 322.594V324.568ZM489.146 327.172H488.516V330H486.584V319.962H488.516V325.632H489.174L491.302 322.734H493.248L490.686 326.206L493.43 330H491.204L489.146 327.172ZM500.185 329.524C500.073 329.589 499.943 329.659 499.793 329.734C499.653 329.799 499.481 329.865 499.275 329.93C499.079 329.986 498.846 330.033 498.575 330.07C498.314 330.117 498.001 330.14 497.637 330.14C496.219 330.14 495.169 329.809 494.487 329.146C493.806 328.483 493.465 327.555 493.465 326.36C493.465 325.772 493.554 325.245 493.731 324.778C493.918 324.311 494.175 323.919 494.501 323.602C494.828 323.275 495.215 323.028 495.663 322.86C496.121 322.683 496.625 322.594 497.175 322.594C497.735 322.594 498.239 322.687 498.687 322.874C499.135 323.051 499.504 323.317 499.793 323.672C500.092 324.027 500.297 324.475 500.409 325.016C500.521 325.557 500.521 326.183 500.409 326.892H495.481C495.556 327.461 495.761 327.891 496.097 328.18C496.443 328.46 496.989 328.6 497.735 328.6C498.333 328.6 498.818 328.535 499.191 328.404C499.574 328.273 499.905 328.138 500.185 327.998V329.524ZM497.203 324.036C496.774 324.036 496.415 324.167 496.125 324.428C495.836 324.689 495.64 325.067 495.537 325.562H498.561C498.571 325.049 498.459 324.666 498.225 324.414C497.992 324.162 497.651 324.036 497.203 324.036ZM506.197 324.568C505.665 324.521 505.184 324.573 504.755 324.722C504.325 324.862 503.989 325.091 503.747 325.408V330H501.815V322.734H503.621L503.719 324.204H503.747C504.008 323.728 504.344 323.35 504.755 323.07C505.175 322.79 505.655 322.631 506.197 322.594V324.568ZM516.853 330H510.217V328.152C511.066 327.517 511.785 326.957 512.373 326.472C512.97 325.987 513.451 325.543 513.815 325.142C514.179 324.741 514.44 324.367 514.599 324.022C514.767 323.667 514.851 323.299 514.851 322.916C514.851 322.449 514.711 322.085 514.431 321.824C514.16 321.553 513.773 321.418 513.269 321.418C512.765 321.418 512.279 321.525 511.813 321.74C511.346 321.955 510.907 322.239 510.497 322.594V320.83C510.889 320.531 511.323 320.293 511.799 320.116C512.275 319.929 512.853 319.836 513.535 319.836C514.039 319.836 514.496 319.906 514.907 320.046C515.317 320.177 515.667 320.373 515.957 320.634C516.255 320.895 516.484 321.217 516.643 321.6C516.811 321.973 516.895 322.398 516.895 322.874C516.895 323.359 516.797 323.817 516.601 324.246C516.405 324.675 516.111 325.105 515.719 325.534C515.336 325.963 514.855 326.411 514.277 326.878C513.707 327.335 513.04 327.839 512.275 328.39H516.853V330Z" fill="black"/>
<rect x="419" y="350" width="138" height="50" rx="10" fill="#D6E1FF"/>
<path d="M455.057 380.14C454.311 380.14 453.634 380.023 453.027 379.79C452.421 379.557 451.898 379.221 451.459 378.782C451.03 378.334 450.699 377.793 450.465 377.158C450.232 376.514 450.115 375.791 450.115 374.988C450.115 374.176 450.223 373.453 450.437 372.818C450.652 372.183 450.969 371.647 451.389 371.208C451.809 370.76 452.323 370.419 452.929 370.186C453.545 369.953 454.245 369.836 455.029 369.836C455.711 369.836 456.308 369.911 456.821 370.06C457.335 370.2 457.755 370.368 458.081 370.564V371.824C457.661 371.553 457.176 371.353 456.625 371.222C456.084 371.091 455.547 371.026 455.015 371.026C453.83 371.026 452.953 371.357 452.383 372.02C451.823 372.673 451.543 373.663 451.543 374.988C451.543 376.323 451.847 377.317 452.453 377.97C453.069 378.623 453.975 378.95 455.169 378.95C455.683 378.95 456.182 378.88 456.667 378.74C457.162 378.6 457.633 378.362 458.081 378.026V379.286C457.811 379.501 457.414 379.697 456.891 379.874C456.378 380.051 455.767 380.14 455.057 380.14ZM462.842 380.14C462.347 380.14 461.885 380.056 461.456 379.888C461.026 379.72 460.653 379.477 460.336 379.16C460.028 378.833 459.785 378.437 459.608 377.97C459.43 377.503 459.342 376.967 459.342 376.36C459.342 375.763 459.43 375.231 459.608 374.764C459.785 374.288 460.028 373.891 460.336 373.574C460.653 373.257 461.026 373.014 461.456 372.846C461.885 372.678 462.347 372.594 462.842 372.594C463.346 372.594 463.812 372.678 464.242 372.846C464.671 373.014 465.04 373.257 465.348 373.574C465.665 373.891 465.912 374.288 466.09 374.764C466.276 375.231 466.37 375.763 466.37 376.36C466.37 376.967 466.276 377.503 466.09 377.97C465.912 378.437 465.665 378.833 465.348 379.16C465.04 379.477 464.671 379.72 464.242 379.888C463.812 380.056 463.346 380.14 462.842 380.14ZM462.842 379.034C463.168 379.034 463.467 378.983 463.738 378.88C464.018 378.768 464.26 378.605 464.466 378.39C464.671 378.166 464.83 377.886 464.942 377.55C465.054 377.214 465.11 376.817 465.11 376.36C465.11 375.903 465.054 375.506 464.942 375.17C464.83 374.834 464.671 374.559 464.466 374.344C464.26 374.12 464.018 373.957 463.738 373.854C463.467 373.742 463.168 373.686 462.842 373.686C462.515 373.686 462.216 373.742 461.946 373.854C461.675 373.957 461.437 374.12 461.232 374.344C461.036 374.559 460.882 374.834 460.77 375.17C460.658 375.506 460.602 375.903 460.602 376.36C460.602 376.817 460.658 377.214 460.77 377.55C460.882 377.886 461.036 378.166 461.232 378.39C461.437 378.605 461.675 378.768 461.946 378.88C462.216 378.983 462.515 379.034 462.842 379.034ZM471.315 373.686C470.755 373.686 470.298 373.817 469.943 374.078C469.598 374.33 469.318 374.657 469.103 375.058V380H467.871V372.734H469.033L469.075 374.036H469.103C469.299 373.616 469.607 373.271 470.027 373C470.447 372.729 470.979 372.594 471.623 372.594C472.342 372.594 472.911 372.785 473.331 373.168C473.761 373.541 473.975 374.12 473.975 374.904V380H472.743V375.03C472.743 374.526 472.617 374.176 472.365 373.98C472.113 373.784 471.763 373.686 471.315 373.686ZM479.368 373.686C478.808 373.686 478.351 373.817 477.996 374.078C477.651 374.33 477.371 374.657 477.156 375.058V380H475.924V372.734H477.086L477.128 374.036H477.156C477.352 373.616 477.66 373.271 478.08 373C478.5 372.729 479.032 372.594 479.676 372.594C480.395 372.594 480.964 372.785 481.384 373.168C481.813 373.541 482.028 374.12 482.028 374.904V380H480.796V375.03C480.796 374.526 480.67 374.176 480.418 373.98C480.166 373.784 479.816 373.686 479.368 373.686ZM489.759 379.384C489.656 379.459 489.53 379.538 489.381 379.622C489.231 379.706 489.049 379.79 488.835 379.874C488.62 379.949 488.377 380.009 488.107 380.056C487.836 380.112 487.533 380.14 487.197 380.14C485.974 380.14 485.045 379.809 484.411 379.146C483.776 378.483 483.459 377.555 483.459 376.36C483.459 375.772 483.543 375.245 483.711 374.778C483.888 374.311 484.131 373.919 484.439 373.602C484.747 373.275 485.111 373.028 485.531 372.86C485.951 372.683 486.408 372.594 486.903 372.594C487.425 372.594 487.892 372.683 488.303 372.86C488.713 373.037 489.049 373.299 489.311 373.644C489.581 373.989 489.763 374.419 489.857 374.932C489.959 375.436 489.959 376.024 489.857 376.696H484.733C484.779 377.48 485.013 378.068 485.433 378.46C485.853 378.843 486.478 379.034 487.309 379.034C487.869 379.034 488.349 378.955 488.751 378.796C489.152 378.637 489.488 378.465 489.759 378.278V379.384ZM486.875 373.686C486.343 373.686 485.885 373.849 485.503 374.176C485.12 374.503 484.877 374.997 484.775 375.66H488.681C488.718 374.988 488.564 374.493 488.219 374.176C487.873 373.849 487.425 373.686 486.875 373.686ZM494.537 380.14C493.977 380.14 493.468 380.056 493.011 379.888C492.563 379.711 492.18 379.463 491.863 379.146C491.545 378.819 491.303 378.423 491.135 377.956C490.967 377.489 490.883 376.957 490.883 376.36C490.883 375.772 490.967 375.245 491.135 374.778C491.312 374.311 491.559 373.919 491.877 373.602C492.194 373.275 492.581 373.028 493.039 372.86C493.496 372.683 494.014 372.594 494.593 372.594C495.041 372.594 495.451 372.645 495.825 372.748C496.198 372.841 496.506 372.981 496.749 373.168V374.274C496.45 374.078 496.114 373.933 495.741 373.84C495.377 373.737 494.999 373.686 494.607 373.686C493.757 373.686 493.132 373.905 492.731 374.344C492.339 374.783 492.143 375.455 492.143 376.36C492.143 377.265 492.334 377.937 492.717 378.376C493.099 378.815 493.706 379.034 494.537 379.034C494.975 379.034 495.377 378.983 495.741 378.88C496.114 378.768 496.45 378.628 496.749 378.46V379.566C496.487 379.725 496.17 379.86 495.797 379.972C495.433 380.084 495.013 380.14 494.537 380.14ZM501.875 379.846C501.725 379.93 501.534 380 501.301 380.056C501.067 380.112 500.82 380.14 500.559 380.14C500.204 380.14 499.901 380.089 499.649 379.986C499.406 379.883 499.205 379.748 499.047 379.58C498.888 379.403 498.771 379.207 498.697 378.992C498.631 378.768 498.599 378.539 498.599 378.306V373.784H497.731V372.734H498.599V371.208H499.831V372.734H501.945V373.784H499.831V378.152C499.831 378.46 499.905 378.684 500.055 378.824C500.213 378.964 500.489 379.034 500.881 379.034C501.245 379.034 501.576 378.931 501.875 378.726V379.846ZM506.428 380.14C505.933 380.14 505.471 380.056 505.042 379.888C504.612 379.72 504.239 379.477 503.922 379.16C503.614 378.833 503.371 378.437 503.194 377.97C503.016 377.503 502.928 376.967 502.928 376.36C502.928 375.763 503.016 375.231 503.194 374.764C503.371 374.288 503.614 373.891 503.922 373.574C504.239 373.257 504.612 373.014 505.042 372.846C505.471 372.678 505.933 372.594 506.428 372.594C506.932 372.594 507.398 372.678 507.828 372.846C508.257 373.014 508.626 373.257 508.934 373.574C509.251 373.891 509.498 374.288 509.676 374.764C509.862 375.231 509.956 375.763 509.956 376.36C509.956 376.967 509.862 377.503 509.676 377.97C509.498 378.437 509.251 378.833 508.934 379.16C508.626 379.477 508.257 379.72 507.828 379.888C507.398 380.056 506.932 380.14 506.428 380.14ZM506.428 379.034C506.754 379.034 507.053 378.983 507.324 378.88C507.604 378.768 507.846 378.605 508.052 378.39C508.257 378.166 508.416 377.886 508.528 377.55C508.64 377.214 508.696 376.817 508.696 376.36C508.696 375.903 508.64 375.506 508.528 375.17C508.416 374.834 508.257 374.559 508.052 374.344C507.846 374.12 507.604 373.957 507.324 373.854C507.053 373.742 506.754 373.686 506.428 373.686C506.101 373.686 505.802 373.742 505.532 373.854C505.261 373.957 505.023 374.12 504.818 374.344C504.622 374.559 504.468 374.834 504.356 375.17C504.244 375.506 504.188 375.903 504.188 376.36C504.188 376.817 504.244 377.214 504.356 377.55C504.468 377.886 504.622 378.166 504.818 378.39C505.023 378.605 505.261 378.768 505.532 378.88C505.802 378.983 506.101 379.034 506.428 379.034ZM515.055 373.966C514.533 374.013 514.057 374.148 513.627 374.372C513.207 374.587 512.895 374.923 512.689 375.38V380H511.457V372.734H512.535L512.661 374.316H512.689C512.895 373.887 513.189 373.513 513.571 373.196C513.963 372.869 514.458 372.669 515.055 372.594V373.966ZM525.891 380H519.353V378.67C520.212 377.979 520.954 377.368 521.579 376.836C522.214 376.304 522.736 375.814 523.147 375.366C523.567 374.918 523.875 374.493 524.071 374.092C524.276 373.691 524.379 373.271 524.379 372.832C524.379 372.281 524.211 371.838 523.875 371.502C523.539 371.157 523.049 370.984 522.405 370.984C521.854 370.984 521.346 371.115 520.879 371.376C520.412 371.628 519.992 371.959 519.619 372.37V370.956C519.974 370.601 520.38 370.326 520.837 370.13C521.294 369.925 521.831 369.822 522.447 369.822C522.97 369.822 523.436 369.892 523.847 370.032C524.258 370.172 524.603 370.368 524.883 370.62C525.163 370.872 525.373 371.175 525.513 371.53C525.662 371.885 525.737 372.277 525.737 372.706C525.737 373.247 525.625 373.756 525.401 374.232C525.186 374.708 524.869 375.184 524.449 375.66C524.029 376.127 523.511 376.617 522.895 377.13C522.288 377.634 521.593 378.189 520.809 378.796H525.891V380Z" fill="black"/>
<path d="M128.292 181.642V190H126.29V181.642H123.28V179.962H131.302V181.642H128.292ZM136.138 184.568C135.606 184.521 135.125 184.573 134.696 184.722C134.267 184.862 133.931 185.091 133.688 185.408V190H131.756V182.734H133.562L133.66 184.204H133.688C133.949 183.728 134.285 183.35 134.696 183.07C135.116 182.79 135.597 182.631 136.138 182.594V184.568ZM138.328 181.922C137.992 181.922 137.707 181.81 137.474 181.586C137.25 181.362 137.138 181.091 137.138 180.774C137.138 180.457 137.25 180.186 137.474 179.962C137.707 179.738 137.992 179.626 138.328 179.626C138.496 179.626 138.65 179.659 138.79 179.724C138.93 179.78 139.051 179.859 139.154 179.962C139.266 180.065 139.35 180.186 139.406 180.326C139.471 180.466 139.504 180.615 139.504 180.774C139.504 180.933 139.471 181.082 139.406 181.222C139.35 181.362 139.266 181.483 139.154 181.586C139.051 181.689 138.93 181.773 138.79 181.838C138.65 181.894 138.496 181.922 138.328 181.922ZM139.294 182.734V190H137.362V182.734H139.294ZM144.625 184.134C144.233 184.134 143.892 184.213 143.603 184.372C143.323 184.531 143.094 184.736 142.917 184.988V190H140.985V182.734H142.805L142.889 183.826H142.917C143.113 183.471 143.402 183.177 143.785 182.944C144.167 182.711 144.653 182.594 145.241 182.594C145.586 182.594 145.908 182.645 146.207 182.748C146.515 182.841 146.776 182.986 146.991 183.182C147.215 183.369 147.387 183.607 147.509 183.896C147.639 184.185 147.705 184.526 147.705 184.918V190H145.759V185.128C145.759 184.764 145.656 184.507 145.451 184.358C145.255 184.209 144.979 184.134 144.625 184.134ZM152.559 190.14C152.036 190.14 151.551 190.061 151.103 189.902C150.664 189.734 150.277 189.491 149.941 189.174C149.614 188.847 149.358 188.451 149.171 187.984C148.984 187.508 148.891 186.967 148.891 186.36C148.891 185.753 148.984 185.217 149.171 184.75C149.358 184.274 149.614 183.877 149.941 183.56C150.277 183.243 150.664 183.005 151.103 182.846C151.551 182.678 152.036 182.594 152.559 182.594C153.082 182.594 153.567 182.678 154.015 182.846C154.472 183.005 154.864 183.243 155.191 183.56C155.527 183.877 155.788 184.274 155.975 184.75C156.171 185.217 156.269 185.753 156.269 186.36C156.269 186.967 156.171 187.508 155.975 187.984C155.788 188.451 155.527 188.847 155.191 189.174C154.864 189.491 154.472 189.734 154.015 189.902C153.567 190.061 153.082 190.14 152.559 190.14ZM152.559 188.586C153.063 188.586 153.474 188.404 153.791 188.04C154.108 187.676 154.267 187.116 154.267 186.36C154.267 185.613 154.108 185.058 153.791 184.694C153.474 184.33 153.063 184.148 152.559 184.148C152.083 184.148 151.682 184.33 151.355 184.694C151.038 185.058 150.879 185.613 150.879 186.36C150.879 187.116 151.038 187.676 151.355 188.04C151.682 188.404 152.083 188.586 152.559 188.586ZM164.117 190.14C163.511 190.14 162.965 190.056 162.479 189.888C162.003 189.711 161.597 189.463 161.261 189.146C160.925 188.819 160.664 188.423 160.477 187.956C160.3 187.489 160.211 186.957 160.211 186.36C160.211 185.772 160.3 185.245 160.477 184.778C160.664 184.311 160.925 183.919 161.261 183.602C161.597 183.275 162.008 183.028 162.493 182.86C162.979 182.683 163.525 182.594 164.131 182.594C164.691 182.594 165.158 182.655 165.531 182.776C165.905 182.888 166.199 183.023 166.413 183.182V184.722C166.133 184.545 165.835 184.405 165.517 184.302C165.2 184.19 164.794 184.134 164.299 184.134C162.899 184.134 162.199 184.876 162.199 186.36C162.199 187.844 162.89 188.586 164.271 188.586C164.785 188.586 165.2 188.535 165.517 188.432C165.835 188.32 166.133 188.18 166.413 188.012V189.538C166.199 189.697 165.9 189.837 165.517 189.958C165.144 190.079 164.677 190.14 164.117 190.14ZM169.672 179.962V190H167.74V179.962H169.672ZM175.969 188.908C175.773 189.253 175.489 189.547 175.115 189.79C174.751 190.023 174.266 190.14 173.659 190.14C173.314 190.14 172.997 190.093 172.707 190C172.418 189.897 172.166 189.743 171.951 189.538C171.746 189.333 171.583 189.081 171.461 188.782C171.349 188.483 171.293 188.129 171.293 187.718V182.734H173.253V187.634C173.253 188.007 173.356 188.259 173.561 188.39C173.776 188.521 174.033 188.586 174.331 188.586C174.723 188.586 175.05 188.511 175.311 188.362C175.573 188.203 175.792 187.998 175.969 187.746V182.734H177.887V190H176.095L175.997 188.908H175.969ZM182.016 190.14C181.662 190.14 181.34 190.112 181.05 190.056C180.761 190 180.5 189.93 180.266 189.846C180.042 189.762 179.851 189.673 179.692 189.58C179.534 189.487 179.408 189.403 179.314 189.328V187.9C179.408 187.984 179.534 188.073 179.692 188.166C179.851 188.259 180.038 188.348 180.252 188.432C180.476 188.507 180.728 188.572 181.008 188.628C181.288 188.675 181.596 188.698 181.932 188.698C182.436 188.698 182.782 188.628 182.968 188.488C183.155 188.348 183.248 188.166 183.248 187.942C183.248 187.765 183.202 187.629 183.108 187.536C183.015 187.433 182.889 187.359 182.73 187.312C182.581 187.256 182.408 187.214 182.212 187.186C182.016 187.158 181.811 187.121 181.596 187.074C181.326 187.018 181.05 186.948 180.77 186.864C180.5 186.771 180.252 186.645 180.028 186.486C179.814 186.327 179.636 186.122 179.496 185.87C179.356 185.609 179.286 185.282 179.286 184.89C179.286 184.171 179.548 183.611 180.07 183.21C180.593 182.799 181.34 182.594 182.31 182.594C182.87 182.594 183.346 182.655 183.738 182.776C184.13 182.897 184.41 183.019 184.578 183.14V184.568C184.373 184.428 184.093 184.302 183.738 184.19C183.393 184.078 182.945 184.022 182.394 184.022C181.881 184.022 181.522 184.083 181.316 184.204C181.12 184.325 181.022 184.503 181.022 184.736C181.022 184.895 181.064 185.016 181.148 185.1C181.242 185.184 181.363 185.249 181.512 185.296C181.662 185.343 181.83 185.38 182.016 185.408C182.212 185.427 182.413 185.45 182.618 185.478C182.889 185.525 183.164 185.59 183.444 185.674C183.724 185.749 183.976 185.87 184.2 186.038C184.434 186.206 184.62 186.43 184.76 186.71C184.91 186.981 184.984 187.326 184.984 187.746C184.984 188.194 184.9 188.572 184.732 188.88C184.564 189.179 184.34 189.426 184.06 189.622C183.78 189.809 183.463 189.939 183.108 190.014C182.754 190.098 182.39 190.14 182.016 190.14ZM190.37 189.72C190.183 189.841 189.954 189.939 189.684 190.014C189.422 190.098 189.096 190.14 188.704 190.14C188.284 190.14 187.934 190.084 187.654 189.972C187.374 189.851 187.145 189.692 186.968 189.496C186.8 189.3 186.678 189.071 186.604 188.81C186.529 188.539 186.492 188.25 186.492 187.942V184.26H185.624V182.734H186.492V181.208H188.424V182.734H190.482V184.26H188.424V187.732C188.424 188.021 188.489 188.236 188.62 188.376C188.75 188.516 188.965 188.586 189.264 188.586C189.516 188.586 189.73 188.549 189.908 188.474C190.085 188.39 190.239 188.292 190.37 188.18V189.72ZM198.035 189.524C197.923 189.589 197.792 189.659 197.643 189.734C197.503 189.799 197.33 189.865 197.125 189.93C196.929 189.986 196.696 190.033 196.425 190.07C196.164 190.117 195.851 190.14 195.487 190.14C194.068 190.14 193.018 189.809 192.337 189.146C191.656 188.483 191.315 187.555 191.315 186.36C191.315 185.772 191.404 185.245 191.581 184.778C191.768 184.311 192.024 183.919 192.351 183.602C192.678 183.275 193.065 183.028 193.513 182.86C193.97 182.683 194.474 182.594 195.025 182.594C195.585 182.594 196.089 182.687 196.537 182.874C196.985 183.051 197.354 183.317 197.643 183.672C197.942 184.027 198.147 184.475 198.259 185.016C198.371 185.557 198.371 186.183 198.259 186.892H193.331C193.406 187.461 193.611 187.891 193.947 188.18C194.292 188.46 194.838 188.6 195.585 188.6C196.182 188.6 196.668 188.535 197.041 188.404C197.424 188.273 197.755 188.138 198.035 187.998V189.524ZM195.053 184.036C194.624 184.036 194.264 184.167 193.975 184.428C193.686 184.689 193.49 185.067 193.387 185.562H196.411C196.42 185.049 196.308 184.666 196.075 184.414C195.842 184.162 195.501 184.036 195.053 184.036ZM204.046 184.568C203.514 184.521 203.034 184.573 202.604 184.722C202.175 184.862 201.839 185.091 201.596 185.408V190H199.664V182.734H201.47L201.568 184.204H201.596C201.858 183.728 202.194 183.35 202.604 183.07C203.024 182.79 203.505 182.631 204.046 182.594V184.568Z" fill="black"/>
<rect x="103" y="470" width="494" height="120" rx="10" fill="white" stroke="#5282FF" stroke-width="2"/>
<path d="M308.816 489.962H312.232C312.97 489.962 313.656 490.041 314.29 490.2C314.934 490.359 315.49 490.62 315.956 490.984C316.432 491.348 316.801 491.829 317.062 492.426C317.333 493.023 317.468 493.761 317.468 494.638C317.468 495.525 317.333 496.304 317.062 496.976C316.792 497.639 316.418 498.194 315.942 498.642C315.466 499.09 314.897 499.431 314.234 499.664C313.581 499.888 312.867 500 312.092 500H308.816V489.962ZM310.818 491.642V498.334H312.19C312.666 498.334 313.1 498.264 313.492 498.124C313.884 497.984 314.22 497.769 314.5 497.48C314.78 497.181 315 496.808 315.158 496.36C315.317 495.903 315.396 495.361 315.396 494.736C315.396 494.129 315.317 493.625 315.158 493.224C315.009 492.823 314.794 492.505 314.514 492.272C314.244 492.039 313.922 491.875 313.548 491.782C313.175 491.689 312.769 491.642 312.33 491.642H310.818ZM323.022 500C322.994 499.86 322.966 499.678 322.938 499.454C322.919 499.221 322.901 499.02 322.882 498.852C322.807 499.011 322.709 499.165 322.588 499.314C322.476 499.463 322.331 499.603 322.154 499.734C321.977 499.855 321.767 499.953 321.524 500.028C321.291 500.103 321.015 500.14 320.698 500.14C320.39 500.14 320.096 500.098 319.816 500.014C319.545 499.93 319.303 499.799 319.088 499.622C318.883 499.445 318.719 499.225 318.598 498.964C318.477 498.703 318.416 498.395 318.416 498.04C318.416 497.265 318.719 496.668 319.326 496.248C319.933 495.828 320.796 495.618 321.916 495.618H322.812V495.296C322.812 494.848 322.695 494.545 322.462 494.386C322.238 494.218 321.874 494.134 321.37 494.134C320.866 494.134 320.404 494.199 319.984 494.33C319.564 494.461 319.195 494.605 318.878 494.764V493.224C319.195 493.065 319.601 492.921 320.096 492.79C320.591 492.659 321.132 492.594 321.72 492.594C322.672 492.594 323.414 492.795 323.946 493.196C324.487 493.597 324.758 494.237 324.758 495.114V498.824C324.758 498.908 324.758 499.006 324.758 499.118C324.767 499.221 324.772 499.328 324.772 499.44C324.781 499.552 324.791 499.659 324.8 499.762C324.809 499.855 324.819 499.935 324.828 500H323.022ZM321.286 498.754C321.603 498.754 321.86 498.689 322.056 498.558C322.252 498.418 322.406 498.259 322.518 498.082C322.63 497.905 322.705 497.732 322.742 497.564C322.789 497.387 322.812 497.261 322.812 497.186V496.752H321.986C321.407 496.752 320.983 496.85 320.712 497.046C320.451 497.233 320.32 497.489 320.32 497.816C320.32 498.115 320.404 498.348 320.572 498.516C320.749 498.675 320.987 498.754 321.286 498.754ZM330.567 499.72C330.38 499.841 330.152 499.939 329.881 500.014C329.62 500.098 329.293 500.14 328.901 500.14C328.481 500.14 328.131 500.084 327.851 499.972C327.571 499.851 327.342 499.692 327.165 499.496C326.997 499.3 326.876 499.071 326.801 498.81C326.726 498.539 326.689 498.25 326.689 497.942V494.26H325.821V492.734H326.689V491.208H328.621V492.734H330.679V494.26H328.621V497.732C328.621 498.021 328.686 498.236 328.817 498.376C328.948 498.516 329.162 498.586 329.461 498.586C329.713 498.586 329.928 498.549 330.105 498.474C330.282 498.39 330.436 498.292 330.567 498.18V499.72ZM336.256 500C336.228 499.86 336.2 499.678 336.172 499.454C336.154 499.221 336.135 499.02 336.116 498.852C336.042 499.011 335.944 499.165 335.822 499.314C335.71 499.463 335.566 499.603 335.388 499.734C335.211 499.855 335.001 499.953 334.758 500.028C334.525 500.103 334.25 500.14 333.932 500.14C333.624 500.14 333.33 500.098 333.05 500.014C332.78 499.93 332.537 499.799 332.322 499.622C332.117 499.445 331.954 499.225 331.832 498.964C331.711 498.703 331.65 498.395 331.65 498.04C331.65 497.265 331.954 496.668 332.56 496.248C333.167 495.828 334.03 495.618 335.15 495.618H336.046V495.296C336.046 494.848 335.93 494.545 335.696 494.386C335.472 494.218 335.108 494.134 334.604 494.134C334.1 494.134 333.638 494.199 333.218 494.33C332.798 494.461 332.43 494.605 332.112 494.764V493.224C332.43 493.065 332.836 492.921 333.33 492.79C333.825 492.659 334.366 492.594 334.954 492.594C335.906 492.594 336.648 492.795 337.18 493.196C337.722 493.597 337.992 494.237 337.992 495.114V498.824C337.992 498.908 337.992 499.006 337.992 499.118C338.002 499.221 338.006 499.328 338.006 499.44C338.016 499.552 338.025 499.659 338.034 499.762C338.044 499.855 338.053 499.935 338.062 500H336.256ZM334.52 498.754C334.838 498.754 335.094 498.689 335.29 498.558C335.486 498.418 335.64 498.259 335.752 498.082C335.864 497.905 335.939 497.732 335.976 497.564C336.023 497.387 336.046 497.261 336.046 497.186V496.752H335.22C334.642 496.752 334.217 496.85 333.946 497.046C333.685 497.233 333.554 497.489 333.554 497.816C333.554 498.115 333.638 498.348 333.806 498.516C333.984 498.675 334.222 498.754 334.52 498.754ZM345.128 500.14C344.773 500.14 344.451 500.112 344.162 500.056C343.872 500 343.611 499.93 343.378 499.846C343.154 499.762 342.962 499.673 342.804 499.58C342.645 499.487 342.519 499.403 342.426 499.328V497.9C342.519 497.984 342.645 498.073 342.804 498.166C342.962 498.259 343.149 498.348 343.364 498.432C343.588 498.507 343.84 498.572 344.12 498.628C344.4 498.675 344.708 498.698 345.044 498.698C345.548 498.698 345.893 498.628 346.08 498.488C346.266 498.348 346.36 498.166 346.36 497.942C346.36 497.765 346.313 497.629 346.22 497.536C346.126 497.433 346 497.359 345.842 497.312C345.692 497.256 345.52 497.214 345.324 497.186C345.128 497.158 344.922 497.121 344.708 497.074C344.437 497.018 344.162 496.948 343.882 496.864C343.611 496.771 343.364 496.645 343.14 496.486C342.925 496.327 342.748 496.122 342.608 495.87C342.468 495.609 342.398 495.282 342.398 494.89C342.398 494.171 342.659 493.611 343.182 493.21C343.704 492.799 344.451 492.594 345.422 492.594C345.982 492.594 346.458 492.655 346.85 492.776C347.242 492.897 347.522 493.019 347.69 493.14V494.568C347.484 494.428 347.204 494.302 346.85 494.19C346.504 494.078 346.056 494.022 345.506 494.022C344.992 494.022 344.633 494.083 344.428 494.204C344.232 494.325 344.134 494.503 344.134 494.736C344.134 494.895 344.176 495.016 344.26 495.1C344.353 495.184 344.474 495.249 344.624 495.296C344.773 495.343 344.941 495.38 345.128 495.408C345.324 495.427 345.524 495.45 345.73 495.478C346 495.525 346.276 495.59 346.556 495.674C346.836 495.749 347.088 495.87 347.312 496.038C347.545 496.206 347.732 496.43 347.872 496.71C348.021 496.981 348.096 497.326 348.096 497.746C348.096 498.194 348.012 498.572 347.844 498.88C347.676 499.179 347.452 499.426 347.172 499.622C346.892 499.809 346.574 499.939 346.22 500.014C345.865 500.098 345.501 500.14 345.128 500.14ZM352.612 500.14C352.089 500.14 351.604 500.061 351.156 499.902C350.717 499.734 350.33 499.491 349.994 499.174C349.667 498.847 349.41 498.451 349.224 497.984C349.037 497.508 348.944 496.967 348.944 496.36C348.944 495.753 349.037 495.217 349.224 494.75C349.41 494.274 349.667 493.877 349.994 493.56C350.33 493.243 350.717 493.005 351.156 492.846C351.604 492.678 352.089 492.594 352.612 492.594C353.134 492.594 353.62 492.678 354.068 492.846C354.525 493.005 354.917 493.243 355.244 493.56C355.58 493.877 355.841 494.274 356.028 494.75C356.224 495.217 356.322 495.753 356.322 496.36C356.322 496.967 356.224 497.508 356.028 497.984C355.841 498.451 355.58 498.847 355.244 499.174C354.917 499.491 354.525 499.734 354.068 499.902C353.62 500.061 353.134 500.14 352.612 500.14ZM352.612 498.586C353.116 498.586 353.526 498.404 353.844 498.04C354.161 497.676 354.32 497.116 354.32 496.36C354.32 495.613 354.161 495.058 353.844 494.694C353.526 494.33 353.116 494.148 352.612 494.148C352.136 494.148 351.734 494.33 351.408 494.694C351.09 495.058 350.932 495.613 350.932 496.36C350.932 497.116 351.09 497.676 351.408 498.04C351.734 498.404 352.136 498.586 352.612 498.586ZM362.2 498.908C362.004 499.253 361.719 499.547 361.346 499.79C360.982 500.023 360.497 500.14 359.89 500.14C359.545 500.14 359.227 500.093 358.938 500C358.649 499.897 358.397 499.743 358.182 499.538C357.977 499.333 357.813 499.081 357.692 498.782C357.58 498.483 357.524 498.129 357.524 497.718V492.734H359.484V497.634C359.484 498.007 359.587 498.259 359.792 498.39C360.007 498.521 360.263 498.586 360.562 498.586C360.954 498.586 361.281 498.511 361.542 498.362C361.803 498.203 362.023 497.998 362.2 497.746V492.734H364.118V500H362.326L362.228 498.908H362.2ZM370.193 494.568C369.661 494.521 369.18 494.573 368.751 494.722C368.321 494.862 367.985 495.091 367.743 495.408V500H365.811V492.734H367.617L367.715 494.204H367.743C368.004 493.728 368.34 493.35 368.751 493.07C369.171 492.79 369.651 492.631 370.193 492.594V494.568ZM374.793 500.14C374.186 500.14 373.64 500.056 373.155 499.888C372.679 499.711 372.273 499.463 371.937 499.146C371.601 498.819 371.34 498.423 371.153 497.956C370.976 497.489 370.887 496.957 370.887 496.36C370.887 495.772 370.976 495.245 371.153 494.778C371.34 494.311 371.601 493.919 371.937 493.602C372.273 493.275 372.684 493.028 373.169 492.86C373.654 492.683 374.2 492.594 374.807 492.594C375.367 492.594 375.834 492.655 376.207 492.776C376.58 492.888 376.874 493.023 377.089 493.182V494.722C376.809 494.545 376.51 494.405 376.193 494.302C375.876 494.19 375.47 494.134 374.975 494.134C373.575 494.134 372.875 494.876 372.875 496.36C372.875 497.844 373.566 498.586 374.947 498.586C375.46 498.586 375.876 498.535 376.193 498.432C376.51 498.32 376.809 498.18 377.089 498.012V499.538C376.874 499.697 376.576 499.837 376.193 499.958C375.82 500.079 375.353 500.14 374.793 500.14ZM384.73 499.524C384.618 499.589 384.488 499.659 384.338 499.734C384.198 499.799 384.026 499.865 383.82 499.93C383.624 499.986 383.391 500.033 383.12 500.07C382.859 500.117 382.546 500.14 382.182 500.14C380.764 500.14 379.714 499.809 379.032 499.146C378.351 498.483 378.01 497.555 378.01 496.36C378.01 495.772 378.099 495.245 378.276 494.778C378.463 494.311 378.72 493.919 379.046 493.602C379.373 493.275 379.76 493.028 380.208 492.86C380.666 492.683 381.17 492.594 381.72 492.594C382.28 492.594 382.784 492.687 383.232 492.874C383.68 493.051 384.049 493.317 384.338 493.672C384.637 494.027 384.842 494.475 384.954 495.016C385.066 495.557 385.066 496.183 384.954 496.892H380.026C380.101 497.461 380.306 497.891 380.642 498.18C380.988 498.46 381.534 498.6 382.28 498.6C382.878 498.6 383.363 498.535 383.736 498.404C384.119 498.273 384.45 498.138 384.73 497.998V499.524ZM381.748 494.036C381.319 494.036 380.96 494.167 380.67 494.428C380.381 494.689 380.185 495.067 380.082 495.562H383.106C383.116 495.049 383.004 494.666 382.77 494.414C382.537 494.162 382.196 494.036 381.748 494.036ZM388.796 500.14C388.441 500.14 388.119 500.112 387.83 500.056C387.54 500 387.279 499.93 387.046 499.846C386.822 499.762 386.63 499.673 386.472 499.58C386.313 499.487 386.187 499.403 386.094 499.328V497.9C386.187 497.984 386.313 498.073 386.472 498.166C386.63 498.259 386.817 498.348 387.032 498.432C387.256 498.507 387.508 498.572 387.788 498.628C388.068 498.675 388.376 498.698 388.712 498.698C389.216 498.698 389.561 498.628 389.748 498.488C389.934 498.348 390.028 498.166 390.028 497.942C390.028 497.765 389.981 497.629 389.888 497.536C389.794 497.433 389.668 497.359 389.51 497.312C389.36 497.256 389.188 497.214 388.992 497.186C388.796 497.158 388.59 497.121 388.376 497.074C388.105 497.018 387.83 496.948 387.55 496.864C387.279 496.771 387.032 496.645 386.808 496.486C386.593 496.327 386.416 496.122 386.276 495.87C386.136 495.609 386.066 495.282 386.066 494.89C386.066 494.171 386.327 493.611 386.85 493.21C387.372 492.799 388.119 492.594 389.09 492.594C389.65 492.594 390.126 492.655 390.518 492.776C390.91 492.897 391.19 493.019 391.358 493.14V494.568C391.152 494.428 390.872 494.302 390.518 494.19C390.172 494.078 389.724 494.022 389.174 494.022C388.66 494.022 388.301 494.083 388.096 494.204C387.9 494.325 387.802 494.503 387.802 494.736C387.802 494.895 387.844 495.016 387.928 495.1C388.021 495.184 388.142 495.249 388.292 495.296C388.441 495.343 388.609 495.38 388.796 495.408C388.992 495.427 389.192 495.45 389.398 495.478C389.668 495.525 389.944 495.59 390.224 495.674C390.504 495.749 390.756 495.87 390.98 496.038C391.213 496.206 391.4 496.43 391.54 496.71C391.689 496.981 391.764 497.326 391.764 497.746C391.764 498.194 391.68 498.572 391.512 498.88C391.344 499.179 391.12 499.426 390.84 499.622C390.56 499.809 390.242 499.939 389.888 500.014C389.533 500.098 389.169 500.14 388.796 500.14Z" fill="black"/>
<path d="M182.571 568.14C181.824 568.14 181.148 568.023 180.541 567.79C179.934 567.557 179.412 567.221 178.973 566.782C178.544 566.334 178.212 565.793 177.979 565.158C177.746 564.514 177.629 563.791 177.629 562.988C177.629 562.176 177.736 561.453 177.951 560.818C178.166 560.183 178.483 559.647 178.903 559.208C179.323 558.76 179.836 558.419 180.443 558.186C181.059 557.953 181.759 557.836 182.543 557.836C183.224 557.836 183.822 557.911 184.335 558.06C184.848 558.2 185.268 558.368 185.595 558.564V559.824C185.175 559.553 184.69 559.353 184.139 559.222C183.598 559.091 183.061 559.026 182.529 559.026C181.344 559.026 180.466 559.357 179.897 560.02C179.337 560.673 179.057 561.663 179.057 562.988C179.057 564.323 179.36 565.317 179.967 565.97C180.583 566.623 181.488 566.95 182.683 566.95C183.196 566.95 183.696 566.88 184.181 566.74C184.676 566.6 185.147 566.362 185.595 566.026V567.286C185.324 567.501 184.928 567.697 184.405 567.874C183.892 568.051 183.28 568.14 182.571 568.14ZM188.674 557.962V568H187.442V557.962H188.674ZM191.312 559.67C191.06 559.67 190.859 559.595 190.71 559.446C190.56 559.287 190.486 559.096 190.486 558.872C190.486 558.648 190.56 558.457 190.71 558.298C190.859 558.139 191.06 558.06 191.312 558.06C191.554 558.06 191.746 558.139 191.886 558.298C192.026 558.457 192.096 558.648 192.096 558.872C192.096 559.096 192.026 559.287 191.886 559.446C191.746 559.595 191.554 559.67 191.312 559.67ZM191.914 560.734V568H190.682V560.734H191.914ZM197.058 568.14C196.498 568.14 195.989 568.056 195.532 567.888C195.084 567.711 194.701 567.463 194.384 567.146C194.067 566.819 193.824 566.423 193.656 565.956C193.488 565.489 193.404 564.957 193.404 564.36C193.404 563.772 193.488 563.245 193.656 562.778C193.833 562.311 194.081 561.919 194.398 561.602C194.715 561.275 195.103 561.028 195.56 560.86C196.017 560.683 196.535 560.594 197.114 560.594C197.562 560.594 197.973 560.645 198.346 560.748C198.719 560.841 199.027 560.981 199.27 561.168V562.274C198.971 562.078 198.635 561.933 198.262 561.84C197.898 561.737 197.52 561.686 197.128 561.686C196.279 561.686 195.653 561.905 195.252 562.344C194.86 562.783 194.664 563.455 194.664 564.36C194.664 565.265 194.855 565.937 195.238 566.376C195.621 566.815 196.227 567.034 197.058 567.034C197.497 567.034 197.898 566.983 198.262 566.88C198.635 566.768 198.971 566.628 199.27 566.46V567.566C199.009 567.725 198.691 567.86 198.318 567.972C197.954 568.084 197.534 568.14 197.058 568.14ZM202.648 564.906H202.004V568H200.772V557.962H202.004V563.856H202.704L205.252 560.734H206.652L203.67 564.318L206.708 568H205.21L202.648 564.906ZM214.353 563.618H209.201V568H207.885V557.962H209.201V562.428H214.353V557.962H215.683V568H214.353V563.618ZM220.83 568.14C220.335 568.14 219.873 568.056 219.444 567.888C219.015 567.72 218.641 567.477 218.324 567.16C218.016 566.833 217.773 566.437 217.596 565.97C217.419 565.503 217.33 564.967 217.33 564.36C217.33 563.763 217.419 563.231 217.596 562.764C217.773 562.288 218.016 561.891 218.324 561.574C218.641 561.257 219.015 561.014 219.444 560.846C219.873 560.678 220.335 560.594 220.83 560.594C221.334 560.594 221.801 560.678 222.23 560.846C222.659 561.014 223.028 561.257 223.336 561.574C223.653 561.891 223.901 562.288 224.078 562.764C224.265 563.231 224.358 563.763 224.358 564.36C224.358 564.967 224.265 565.503 224.078 565.97C223.901 566.437 223.653 566.833 223.336 567.16C223.028 567.477 222.659 567.72 222.23 567.888C221.801 568.056 221.334 568.14 220.83 568.14ZM220.83 567.034C221.157 567.034 221.455 566.983 221.726 566.88C222.006 566.768 222.249 566.605 222.454 566.39C222.659 566.166 222.818 565.886 222.93 565.55C223.042 565.214 223.098 564.817 223.098 564.36C223.098 563.903 223.042 563.506 222.93 563.17C222.818 562.834 222.659 562.559 222.454 562.344C222.249 562.12 222.006 561.957 221.726 561.854C221.455 561.742 221.157 561.686 220.83 561.686C220.503 561.686 220.205 561.742 219.934 561.854C219.663 561.957 219.425 562.12 219.22 562.344C219.024 562.559 218.87 562.834 218.758 563.17C218.646 563.506 218.59 563.903 218.59 564.36C218.59 564.817 218.646 565.214 218.758 565.55C218.87 565.886 219.024 566.166 219.22 566.39C219.425 566.605 219.663 566.768 219.934 566.88C220.205 566.983 220.503 567.034 220.83 567.034ZM230.522 566.698C230.326 567.109 230.022 567.454 229.612 567.734C229.21 568.005 228.683 568.14 228.03 568.14C227.358 568.14 226.812 567.953 226.392 567.58C225.981 567.197 225.776 566.609 225.776 565.816V560.734H227.022V565.816C227.022 566.059 227.054 566.259 227.12 566.418C227.194 566.567 227.292 566.689 227.414 566.782C227.535 566.875 227.675 566.941 227.834 566.978C228.002 567.015 228.184 567.034 228.38 567.034C228.921 567.034 229.355 566.913 229.682 566.67C230.008 566.427 230.288 566.096 230.522 565.676V560.734H231.754V568H230.662L230.55 566.698H230.522ZM236.1 568.14C235.717 568.14 235.376 568.107 235.078 568.042C234.788 567.986 234.532 567.916 234.308 567.832C234.093 567.739 233.911 567.645 233.762 567.552C233.612 567.449 233.496 567.361 233.412 567.286V566.18C233.505 566.273 233.631 566.376 233.79 566.488C233.948 566.591 234.14 566.689 234.364 566.782C234.588 566.875 234.84 566.955 235.12 567.02C235.409 567.076 235.731 567.104 236.086 567.104C236.608 567.104 237.024 567.02 237.332 566.852C237.64 566.684 237.794 566.399 237.794 565.998C237.794 565.783 237.742 565.611 237.64 565.48C237.546 565.349 237.416 565.247 237.248 565.172C237.08 565.088 236.884 565.023 236.66 564.976C236.445 564.929 236.216 564.883 235.974 564.836C235.666 564.771 235.362 564.701 235.064 564.626C234.765 564.542 234.494 564.425 234.252 564.276C234.009 564.117 233.813 563.917 233.664 563.674C233.514 563.422 233.44 563.095 233.44 562.694C233.44 562.041 233.692 561.527 234.196 561.154C234.709 560.781 235.423 560.594 236.338 560.594C236.851 560.594 237.304 560.645 237.696 560.748C238.097 560.851 238.405 560.963 238.62 561.084V562.19C238.377 562.031 238.074 561.901 237.71 561.798C237.355 561.686 236.912 561.63 236.38 561.63C235.829 561.63 235.404 561.705 235.106 561.854C234.816 562.003 234.672 562.274 234.672 562.666C234.672 562.862 234.714 563.021 234.798 563.142C234.882 563.254 234.994 563.347 235.134 563.422C235.283 563.487 235.451 563.539 235.638 563.576C235.824 563.613 236.02 563.655 236.226 563.702C236.543 563.767 236.87 563.837 237.206 563.912C237.542 563.987 237.84 564.103 238.102 564.262C238.372 564.421 238.592 564.635 238.76 564.906C238.937 565.167 239.026 565.522 239.026 565.97C239.026 566.39 238.942 566.74 238.774 567.02C238.606 567.3 238.382 567.524 238.102 567.692C237.831 567.851 237.518 567.963 237.164 568.028C236.818 568.103 236.464 568.14 236.1 568.14ZM246.325 567.384C246.222 567.459 246.096 567.538 245.947 567.622C245.798 567.706 245.616 567.79 245.401 567.874C245.186 567.949 244.944 568.009 244.673 568.056C244.402 568.112 244.099 568.14 243.763 568.14C242.54 568.14 241.612 567.809 240.977 567.146C240.342 566.483 240.025 565.555 240.025 564.36C240.025 563.772 240.109 563.245 240.277 562.778C240.454 562.311 240.697 561.919 241.005 561.602C241.313 561.275 241.677 561.028 242.097 560.86C242.517 560.683 242.974 560.594 243.469 560.594C243.992 560.594 244.458 560.683 244.869 560.86C245.28 561.037 245.616 561.299 245.877 561.644C246.148 561.989 246.33 562.419 246.423 562.932C246.526 563.436 246.526 564.024 246.423 564.696H241.299C241.346 565.48 241.579 566.068 241.999 566.46C242.419 566.843 243.044 567.034 243.875 567.034C244.435 567.034 244.916 566.955 245.317 566.796C245.718 566.637 246.054 566.465 246.325 566.278V567.384ZM243.441 561.686C242.909 561.686 242.452 561.849 242.069 562.176C241.686 562.503 241.444 562.997 241.341 563.66H245.247C245.284 562.988 245.13 562.493 244.785 562.176C244.44 561.849 243.992 561.686 243.441 561.686Z" fill="black"/>
<rect x="196" y="516" width="32" height="32" rx="16" fill="#5282FF"/>
<path d="M209 525C210.4 525 211.8 525.3 213 526H210V538H213C211.8 538.7 210.4 539 209 539C206.2 539 204 537.9 204 536.5V527.5C204 526.1 206.2 525 209 525ZM212 537H211V527H212V537ZM214 537H213V527H214V537ZM216 537H215V527H216V537ZM218 537H217V527H218V537ZM220 530V534H219V530H220Z" fill="white"/>
<path d="M467.017 557.962V568H465.701V557.962H467.017ZM472.32 568.14C471.76 568.14 471.251 568.056 470.794 567.888C470.346 567.711 469.963 567.463 469.646 567.146C469.328 566.819 469.086 566.423 468.918 565.956C468.75 565.489 468.666 564.957 468.666 564.36C468.666 563.772 468.75 563.245 468.918 562.778C469.095 562.311 469.342 561.919 469.66 561.602C469.977 561.275 470.364 561.028 470.822 560.86C471.279 560.683 471.797 560.594 472.376 560.594C472.824 560.594 473.234 560.645 473.608 560.748C473.981 560.841 474.289 560.981 474.532 561.168V562.274C474.233 562.078 473.897 561.933 473.524 561.84C473.16 561.737 472.782 561.686 472.39 561.686C471.54 561.686 470.915 561.905 470.514 562.344C470.122 562.783 469.926 563.455 469.926 564.36C469.926 565.265 470.117 565.937 470.5 566.376C470.882 566.815 471.489 567.034 472.32 567.034C472.758 567.034 473.16 566.983 473.524 566.88C473.897 566.768 474.233 566.628 474.532 566.46V567.566C474.27 567.725 473.953 567.86 473.58 567.972C473.216 568.084 472.796 568.14 472.32 568.14ZM481.815 567.384C481.713 567.459 481.587 567.538 481.437 567.622C481.288 567.706 481.106 567.79 480.891 567.874C480.677 567.949 480.434 568.009 480.163 568.056C479.893 568.112 479.589 568.14 479.253 568.14C478.031 568.14 477.102 567.809 476.467 567.146C475.833 566.483 475.515 565.555 475.515 564.36C475.515 563.772 475.599 563.245 475.767 562.778C475.945 562.311 476.187 561.919 476.495 561.602C476.803 561.275 477.167 561.028 477.587 560.86C478.007 560.683 478.465 560.594 478.959 560.594C479.482 560.594 479.949 560.683 480.359 560.86C480.77 561.037 481.106 561.299 481.367 561.644C481.638 561.989 481.82 562.419 481.913 562.932C482.016 563.436 482.016 564.024 481.913 564.696H476.789C476.836 565.48 477.069 566.068 477.489 566.46C477.909 566.843 478.535 567.034 479.365 567.034C479.925 567.034 480.406 566.955 480.807 566.796C481.209 566.637 481.545 566.465 481.815 566.278V567.384ZM478.931 561.686C478.399 561.686 477.942 561.849 477.559 562.176C477.177 562.503 476.934 562.997 476.831 563.66H480.737C480.775 562.988 480.621 562.493 480.275 562.176C479.93 561.849 479.482 561.686 478.931 561.686ZM490.359 564.36C490.359 565.004 490.271 565.564 490.093 566.04C489.916 566.507 489.678 566.899 489.379 567.216C489.081 567.524 488.735 567.757 488.343 567.916C487.951 568.065 487.541 568.14 487.111 568.14C486.551 568.14 486.061 568.009 485.641 567.748C485.231 567.477 484.904 567.104 484.661 566.628L484.619 568H483.457V557.962H484.689L484.661 562.148C484.904 561.672 485.231 561.294 485.641 561.014C486.052 560.734 486.561 560.594 487.167 560.594C487.587 560.594 487.989 560.673 488.371 560.832C488.763 560.981 489.104 561.215 489.393 561.532C489.692 561.84 489.925 562.232 490.093 562.708C490.271 563.175 490.359 563.725 490.359 564.36ZM486.929 567.034C487.573 567.034 488.091 566.815 488.483 566.376C488.885 565.928 489.085 565.256 489.085 564.36C489.085 563.483 488.885 562.82 488.483 562.372C488.091 561.915 487.573 561.686 486.929 561.686C486.612 561.686 486.313 561.742 486.033 561.854C485.763 561.966 485.525 562.134 485.319 562.358C485.123 562.573 484.965 562.848 484.843 563.184C484.731 563.52 484.675 563.912 484.675 564.36C484.675 564.808 484.731 565.2 484.843 565.536C484.965 565.872 485.123 566.152 485.319 566.376C485.525 566.6 485.763 566.768 486.033 566.88C486.313 566.983 486.612 567.034 486.929 567.034ZM497.634 567.384C497.531 567.459 497.405 567.538 497.256 567.622C497.106 567.706 496.924 567.79 496.71 567.874C496.495 567.949 496.252 568.009 495.982 568.056C495.711 568.112 495.408 568.14 495.072 568.14C493.849 568.14 492.92 567.809 492.286 567.146C491.651 566.483 491.334 565.555 491.334 564.36C491.334 563.772 491.418 563.245 491.586 562.778C491.763 562.311 492.006 561.919 492.314 561.602C492.622 561.275 492.986 561.028 493.406 560.86C493.826 560.683 494.283 560.594 494.778 560.594C495.3 560.594 495.767 560.683 496.178 560.86C496.588 561.037 496.924 561.299 497.186 561.644C497.456 561.989 497.638 562.419 497.732 562.932C497.834 563.436 497.834 564.024 497.732 564.696H492.608C492.654 565.48 492.888 566.068 493.308 566.46C493.728 566.843 494.353 567.034 495.184 567.034C495.744 567.034 496.224 566.955 496.626 566.796C497.027 566.637 497.363 566.465 497.634 566.278V567.384ZM494.75 561.686C494.218 561.686 493.76 561.849 493.378 562.176C492.995 562.503 492.752 562.997 492.65 563.66H496.556C496.593 562.988 496.439 562.493 496.094 562.176C495.748 561.849 495.3 561.686 494.75 561.686ZM502.874 561.966C502.351 562.013 501.875 562.148 501.446 562.372C501.026 562.587 500.713 562.923 500.508 563.38V568H499.276V560.734H500.354L500.48 562.316H500.508C500.713 561.887 501.007 561.513 501.39 561.196C501.782 560.869 502.276 560.669 502.874 560.594V561.966ZM510.482 567.384C510.482 567.851 510.412 568.275 510.272 568.658C510.142 569.05 509.927 569.381 509.628 569.652C509.339 569.923 508.961 570.133 508.494 570.282C508.037 570.431 507.482 570.506 506.828 570.506C506.474 570.506 506.161 570.487 505.89 570.45C505.62 570.413 505.382 570.361 505.176 570.296C504.98 570.24 504.812 570.175 504.672 570.1C504.532 570.035 504.416 569.969 504.322 569.904V568.798C504.472 568.882 504.626 568.957 504.784 569.022C504.952 569.097 505.134 569.162 505.33 569.218C505.526 569.274 505.746 569.316 505.988 569.344C506.24 569.381 506.525 569.4 506.842 569.4C507.738 569.4 508.364 569.232 508.718 568.896C509.073 568.56 509.25 568.061 509.25 567.398V566.278C509.036 566.707 508.732 567.053 508.34 567.314C507.958 567.575 507.482 567.706 506.912 567.706C506.483 567.706 506.072 567.631 505.68 567.482C505.298 567.333 504.957 567.113 504.658 566.824C504.369 566.525 504.136 566.157 503.958 565.718C503.79 565.27 503.706 564.752 503.706 564.164C503.706 563.567 503.79 563.049 503.958 562.61C504.136 562.162 504.369 561.789 504.658 561.49C504.957 561.191 505.302 560.967 505.694 560.818C506.086 560.669 506.502 560.594 506.94 560.594C507.519 560.594 508.004 560.725 508.396 560.986C508.798 561.247 509.11 561.602 509.334 562.05L509.348 561.896C509.348 561.728 509.358 561.527 509.376 561.294C509.395 561.051 509.414 560.865 509.432 560.734H510.552C510.534 560.865 510.515 561.051 510.496 561.294C510.487 561.537 510.482 561.737 510.482 561.896V567.384ZM507.136 566.6C507.444 566.6 507.724 566.553 507.976 566.46C508.238 566.357 508.462 566.203 508.648 565.998C508.844 565.793 508.994 565.541 509.096 565.242C509.208 564.934 509.264 564.575 509.264 564.164C509.264 563.333 509.059 562.713 508.648 562.302C508.247 561.891 507.738 561.686 507.122 561.686C506.814 561.686 506.525 561.737 506.254 561.84C505.993 561.943 505.764 562.097 505.568 562.302C505.382 562.507 505.232 562.769 505.12 563.086C505.008 563.394 504.952 563.753 504.952 564.164C504.952 564.575 505.008 564.934 505.12 565.242C505.232 565.541 505.386 565.793 505.582 565.998C505.778 566.194 506.007 566.343 506.268 566.446C506.539 566.549 506.828 566.6 507.136 566.6Z" fill="black"/>
<path d="M488 518L488.617 518.006C494.958 518.127 500 520.125 500 524V540L499.996 540.186C499.832 544.062 494.524 546 488 546L487.383 545.994C481.144 545.875 476.163 543.939 476.004 540.186L476 540V524C476 520 481.373 518 488 518ZM498 535.616C495.85 537.204 492.175 538 488 538L487.383 537.994C483.465 537.919 480.043 537.127 478 535.618V540C478 540.899 478.543 541.851 480.352 542.684C482.164 543.518 484.845 544 488 544C491.155 544 493.836 543.518 495.648 542.684C497.457 541.851 498 540.899 498 540V535.616ZM498 527.616C495.85 529.204 492.175 530 488 530L487.383 529.994C483.465 529.919 480.043 529.127 478 527.618V532C478 532.899 478.543 533.851 480.352 534.684C482.164 535.518 484.845 536 488 536C491.155 536 493.836 535.518 495.648 534.684C497.457 533.851 498 532.899 498 532V527.616ZM488 520C484.845 520 482.164 520.482 480.352 521.316C478.543 522.149 478 523.101 478 524C478 524.899 478.543 525.851 480.352 526.684C482.164 527.518 484.845 528 488 528C491.155 528 493.836 527.518 495.648 526.684C497.457 525.851 498 524.899 498 524C498 523.101 497.457 522.149 495.648 521.316C493.836 520.482 491.155 520 488 520Z" fill="black"/>
<rect x="209" y="469" width="6" height="2" fill="white"/>
<rect x="485" y="469" width="6" height="2" fill="white"/>
<rect x="485" y="419" width="6" height="2" fill="white"/>
<rect x="209" y="419" width="6" height="2" fill="white"/>
<path d="M350 175L355.774 165H344.226L350 175ZM350 135H349L349 166H350H351L351 135H350Z" fill="#4E496B"/>
<path d="M212 508L217.774 498H206.226L212 508ZM212 405H211L211 499H212H213L213 405H212Z" fill="#4E496B"/>
<path d="M488 508L493.774 498H482.226L488 508ZM488 405H487L487 499H488H489L489 405H488Z" fill="#4E496B"/>
<path d="M212 295L217.774 285H206.226L212 295ZM340 265.818L340 264.818H222L222 265.818L222 266.818H340L340 265.818ZM212 275.818H211L211 286H212H213L213 275.818H212ZM350 255.818H351L351 235H350H349L349 255.818H350ZM222 265.818L222 264.818C215.925 264.818 211 269.743 211 275.818H212H213C213 270.847 217.029 266.818 222 266.818L222 265.818ZM340 265.818L340 266.818C346.075 266.818 351 261.893 351 255.818H350H349C349 260.788 344.971 264.818 340 264.818L340 265.818Z" fill="#4E496B"/>
<path d="M488 295L482.226 285H493.774L488 295ZM360 265.818L360 264.818H478L478 265.818L478 266.818H360L360 265.818ZM488 275.818H489L489 286H488H487L487 275.818H488ZM350 255.818H349L349 235H350H351L351 255.818H350ZM478 265.818L478 264.818C484.075 264.818 489 269.743 489 275.818H488H487C487 270.847 482.971 266.818 478 266.818L478 265.818ZM360 265.818L360 266.818C353.925 266.818 349 261.893 349 255.818H350H351C351 260.788 355.029 264.818 360 264.818L360 265.818Z" fill="#4E496B"/>
<defs>
<filter id="filter0_d_25_149" x="97" y="154" width="506" height="292" filterUnits="userSpaceOnUse" color-interpolation-filters="sRGB">
<feFlood flood-opacity="0" result="BackgroundImageFix"/>
<feColorMatrix in="SourceAlpha" type="matrix" values="0 0 0 0 0 0 0 0 0 0 0 0 0 0 0 0 0 0 127 0" result="hardAlpha"/>
<feOffset/>
<feGaussianBlur stdDeviation="3"/>
<feColorMatrix type="matrix" values="0 0 0 0 0.321569 0 0 0 0 0.509804 0 0 0 0 1 0 0 0 0.2 0"/>
<feBlend mode="normal" in2="BackgroundImageFix" result="effect1_dropShadow_25_149"/>
<feBlend mode="normal" in="SourceGraphic" in2="effect1_dropShadow_25_149" result="shape"/>
</filter>
</defs>
</svg>
