<svg width="481" height="136" viewBox="0 0 481 136" fill="none" xmlns="http://www.w3.org/2000/svg">
<g clip-path="url(#clip0)">
<path d="M480.753 72L475.753 69.1133V74.8868L480.753 72ZM0 72.5C0.661245 72.5 1.32164 72.5 1.98117 72.5C2.64071 72.5 3.29939 72.5 3.95722 72.5C4.61505 72.5 5.27203 72.5 5.92815 72.5C6.58428 72.5 7.23955 72.5 7.89398 72.5C8.5484 72.5 9.20197 72.5 9.85469 72.5C10.5074 72.5 11.1593 72.5 11.8103 72.5C12.4613 72.5 13.1115 72.5 13.7608 72.5C14.4102 72.5 15.0586 72.5 15.7063 72.5C16.3539 72.5 17.0007 72.5 17.6466 72.5C18.2926 72.5 18.9377 72.5 19.5819 72.5C20.2262 72.5 20.8696 72.5 21.5121 72.5C22.1547 72.5 22.7964 72.5 23.4373 72.5C24.0781 72.5 24.7182 72.5 25.3574 72.5C25.9966 72.5 26.6349 72.5 27.2724 72.5C27.9099 72.5 28.5466 72.5 29.1824 72.5C29.8182 72.5 30.4532 72.5 31.0874 72.5C31.7215 72.5 32.3548 72.5 32.9873 72.5C33.6197 72.5 34.2514 72.5 34.8822 72.5C35.513 72.5 36.1429 72.5 36.772 72.5C37.4012 72.5 38.0294 72.5 38.6569 72.5C39.2843 72.5 39.911 72.5 40.5367 72.5C41.1625 72.5 41.7875 72.5 42.4116 72.5C43.0357 72.5 43.659 72.5 44.2814 72.5C44.9039 72.5 45.5255 72.5 46.1463 72.5C46.7671 72.5 47.387 72.5 48.0061 72.5C48.6253 72.5 49.2436 72.5 49.861 72.5C50.4785 72.5 51.0951 72.5 51.7109 72.5C52.3267 72.5 52.9417 72.5 53.5559 72.5C54.17 72.5 54.7834 72.5 55.3959 72.5C56.0084 72.5 56.62 72.5 57.2309 72.5C57.8417 72.5 58.4518 72.5 59.061 72.5C59.6702 72.5 60.2785 72.5 60.8861 72.5C61.4936 72.5 62.1004 72.5 62.7063 72.5C63.3122 72.5 63.9173 72.5 64.5215 72.5C65.1258 72.5 65.7292 72.5 66.3319 72.5C66.9345 72.5 67.5363 72.5 68.1373 72.5C68.7383 72.5 69.3384 72.5 69.9378 72.5C70.5371 72.5 71.1356 72.5 71.7334 72.5C72.3311 72.5 72.928 72.5 73.524 72.5C74.1201 72.5 74.7154 72.5 75.3098 72.5C75.9043 72.5 76.4979 72.5 77.0907 72.5C77.6835 72.5 78.2755 72.5 78.8667 72.5C79.4579 72.5 80.0483 72.5 80.6378 72.5C81.2274 72.5 81.8162 72.5 82.4041 72.5C82.992 72.5 83.5792 72.5 84.1655 72.5C84.7518 72.5 85.3373 72.5 85.922 72.5C86.5067 72.5 87.0906 72.5 87.6737 72.5C88.2568 72.5 88.839 72.5 89.4205 72.5C90.002 72.5 90.5826 72.5 91.1625 72.5C91.7423 72.5 92.3214 72.5 92.8996 72.5C93.4779 72.5 94.0553 72.5 94.6319 72.5C95.2086 72.5 95.7844 72.5 96.3594 72.5C96.9344 72.5 97.5087 72.5 98.0821 72.5C98.6555 72.5 99.2281 72.5 99.7999 72.5C100.372 72.5 100.943 72.5 101.513 72.5C102.083 72.5 102.653 72.5 103.221 72.5C103.79 72.5 104.358 72.5 104.925 72.5C105.492 72.5 106.058 72.5 106.623 72.5C107.189 72.5 107.753 72.5 108.317 72.5C108.881 72.5 109.444 72.5 110.006 72.5C110.568 72.5 111.13 72.5 111.691 72.5C112.251 72.5 112.811 72.5 113.37 72.5C113.929 72.5 114.487 72.5 115.045 72.5C115.602 72.5 116.159 72.5 116.715 72.5C117.271 72.5 117.826 72.5 118.38 72.5C118.935 72.5 119.488 72.5 120.041 72.5C120.593 72.5 121.145 72.5 121.697 72.5C122.248 72.5 122.798 72.5 123.348 72.5C123.897 72.5 124.446 72.5 124.994 72.5C125.542 72.5 126.089 72.5 126.636 72.5C127.182 72.5 127.728 72.5 128.273 72.5C128.817 72.5 129.361 72.5 129.905 72.5C130.448 72.5 130.991 72.5 131.532 72.5C132.074 72.5 132.615 72.5 133.155 72.5C133.695 72.5 134.235 72.5 134.773 72.5C135.312 72.5 135.85 72.5 136.387 72.5C136.924 72.5 137.46 72.5 137.995 72.5C138.531 72.5 139.066 72.5 139.6 72.5C140.133 72.5 140.667 72.5 141.199 72.5C141.731 72.5 142.263 72.5 142.794 72.5C143.325 72.5 143.855 72.5 144.384 72.5C144.913 72.5 145.442 72.5 145.969 72.5C146.497 72.5 147.024 72.5 147.55 72.5C148.076 72.5 148.602 72.5 149.126 72.5C149.651 72.5 150.175 72.5 150.698 72.5C151.221 72.5 151.743 72.5 152.265 72.5C152.786 72.5 153.307 72.5 153.827 72.5C154.347 72.5 154.866 72.5 155.385 72.5C155.903 72.5 156.421 72.5 156.938 72.5C157.455 72.5 157.971 72.5 158.486 72.5C159.002 72.5 159.516 72.5 160.03 72.5C160.544 72.5 161.057 72.5 161.57 72.5C162.082 72.5 162.594 72.5 163.104 72.5C163.615 72.5 164.125 72.5 164.635 72.5C165.144 72.5 165.652 72.5 166.16 72.5C166.668 72.5 167.175 72.5 167.681 72.5C168.187 72.5 168.693 72.5 169.198 72.5C169.702 72.5 170.206 72.5 170.709 72.5C171.213 72.5 171.715 72.5 172.217 72.5C172.719 72.5 173.219 72.5 173.72 72.5C174.22 72.5 174.719 72.5 175.218 72.5C175.717 72.5 176.215 72.5 176.712 72.5C177.209 72.5 177.705 72.5 178.201 72.5C178.697 72.5 179.191 72.5 179.686 72.5C180.18 72.5 180.673 72.5 181.166 72.5C181.659 72.5 182.15 72.5 182.642 72.5C183.133 72.5 183.623 72.5 184.113 72.5C184.602 72.5 185.091 72.5 185.579 72.5C186.068 72.5 186.555 72.5 187.042 72.5C187.528 72.5 188.014 72.5 188.499 72.5C188.985 72.5 189.469 72.5 189.953 72.5C190.436 72.5 190.919 72.5 191.401 72.5C191.884 72.5 192.365 72.5 192.846 72.5C193.327 72.5 193.806 72.5 194.286 72.5C194.765 72.5 195.243 72.5 195.721 72.5C196.199 72.5 196.676 72.5 197.152 72.5C197.628 72.5 198.104 72.5 198.579 72.5C199.053 72.5 199.527 72.5 200.001 72.5C200.474 72.5 200.947 72.5 201.418 72.5C201.89 72.5 202.361 72.5 202.832 72.5C203.302 72.5 203.772 72.5 204.24 72.5C204.709 72.5 205.177 72.5 205.645 72.5C206.112 72.5 206.579 72.5 207.045 72.5C207.511 72.5 207.976 72.5 208.441 72.5C208.905 72.5 209.369 72.5 209.832 72.5C210.295 72.5 210.757 72.5 211.219 72.5C211.68 72.5 212.141 72.5 212.601 72.5C213.061 72.5 213.52 72.5 213.979 72.5C214.438 72.5 214.896 72.5 215.353 72.5C215.81 72.5 216.266 72.5 216.722 72.5C217.178 72.5 217.633 72.5 218.087 72.5C218.541 72.5 218.995 72.5 219.448 72.5C219.901 72.5 220.353 72.5 220.804 72.5C221.256 72.5 221.706 72.5 222.156 72.5C222.606 72.5 223.055 72.5 223.504 72.5C223.952 72.5 224.4 72.5 224.847 72.5C225.294 72.5 225.74 72.5 226.186 72.5C226.632 72.5 227.077 72.5 227.521 72.5C227.965 72.5 228.408 72.5 228.851 72.5C229.294 72.5 229.736 72.5 230.177 72.5C230.618 72.5 231.059 72.5 231.499 72.5C231.939 72.5 232.378 72.5 232.816 72.5C233.255 72.5 233.692 72.5 234.129 72.5C234.566 72.5 235.003 72.5 235.438 72.5C235.874 72.5 236.309 72.5 236.743 72.5C237.177 72.5 237.611 72.5 238.043 72.5C238.476 72.5 238.908 72.5 239.339 72.5C239.771 72.5 240.201 72.5 240.631 72.5C241.061 72.5 241.49 72.5 241.919 72.5C242.347 72.5 242.775 72.5 243.202 72.5C243.629 72.5 244.056 72.5 244.481 72.5C244.907 72.5 245.332 72.5 245.756 72.5C246.18 72.5 246.604 72.5 247.027 72.5C247.45 72.5 247.872 72.5 248.293 72.5C248.715 72.5 249.135 72.5 249.555 72.5C249.976 72.5 250.395 72.5 250.813 72.5C251.232 72.5 251.65 72.5 252.067 72.5C252.485 72.5 252.901 72.5 253.317 72.5C253.733 72.5 254.148 72.5 254.562 72.5C254.977 72.5 255.39 72.5 255.804 72.5C256.217 72.5 256.629 72.5 257.041 72.5C257.452 72.5 257.863 72.5 258.273 72.5C258.684 72.5 259.093 72.5 259.502 72.5C259.911 72.5 260.319 72.5 260.727 72.5C261.134 72.5 261.541 72.5 261.947 72.5C262.353 72.5 262.759 72.5 263.163 72.5C263.568 72.5 263.972 72.5 264.375 72.5C264.779 72.5 265.181 72.5 265.583 72.5C265.985 72.5 266.387 72.5 266.787 72.5C267.188 72.5 267.588 72.5 267.987 72.5C268.386 72.5 268.785 72.5 269.183 72.5C269.58 72.5 269.978 72.5 270.374 72.5C270.771 72.5 271.166 72.5 271.561 72.5C271.957 72.5 272.351 72.5 272.745 72.5C273.138 72.5 273.531 72.5 273.924 72.5C274.316 72.5 274.708 72.5 275.099 72.5C275.49 72.5 275.88 72.5 276.27 72.5C276.66 72.5 277.049 72.5 277.437 72.5C277.825 72.5 278.213 72.5 278.6 72.5C278.987 72.5 279.373 72.5 279.758 72.5C280.144 72.5 280.529 72.5 280.913 72.5C281.297 72.5 281.681 72.5 282.064 72.5C282.447 72.5 282.829 72.5 283.21 72.5C283.592 72.5 283.973 72.5 284.353 72.5C284.733 72.5 285.113 72.5 285.492 72.5C285.87 72.5 286.249 72.5 286.626 72.5C287.004 72.5 287.38 72.5 287.757 72.5C288.133 72.5 288.508 72.5 288.883 72.5C289.258 72.5 289.632 72.5 290.006 72.5C290.379 72.5 290.752 72.5 291.124 72.5C291.496 72.5 291.868 72.5 292.238 72.5C292.609 72.5 292.979 72.5 293.349 72.5C293.718 72.5 294.087 72.5 294.455 72.5C294.824 72.5 295.191 72.5 295.558 72.5C295.925 72.5 296.291 72.5 296.656 72.5C297.022 72.5 297.387 72.5 297.751 72.5C298.115 72.5 298.479 72.5 298.841 72.5C299.204 72.5 299.566 72.5 299.928 72.5C300.29 72.5 300.65 72.5 301.011 72.5C301.371 72.5 301.73 72.5 302.089 72.5C302.448 72.5 302.807 72.5 303.164 72.5C303.522 72.5 303.879 72.5 304.235 72.5C304.591 72.5 304.947 72.5 305.302 72.5C305.657 72.5 306.011 72.5 306.365 72.5C306.719 72.5 307.072 72.5 307.424 72.5C307.776 72.5 308.128 72.5 308.479 72.5C308.83 72.5 309.181 72.5 309.53 72.5C309.88 72.5 310.229 72.5 310.578 72.5C310.926 72.5 311.274 72.5 311.621 72.5C311.968 72.5 312.315 72.5 312.661 72.5C313.007 72.5 313.352 72.5 313.696 72.5C314.041 72.5 314.385 72.5 314.728 72.5C315.072 72.5 315.414 72.5 315.756 72.5C316.098 72.5 316.439 72.5 316.78 72.5C317.121 72.5 317.461 72.5 317.8 72.5C318.14 72.5 318.479 72.5 318.817 72.5C319.155 72.5 319.492 72.5 319.829 72.5C320.166 72.5 320.502 72.5 320.838 72.5C321.174 72.5 321.508 72.5 321.843 72.5C322.177 72.5 322.511 72.5 322.844 72.5C323.177 72.5 323.509 72.5 323.841 72.5C324.173 72.5 324.504 72.5 324.834 72.5C325.165 72.5 325.495 72.5 325.824 72.5C326.153 72.5 326.482 72.5 326.81 72.5C327.138 72.5 327.465 72.5 327.792 72.5C328.118 72.5 328.444 72.5 328.77 72.5C329.095 72.5 329.42 72.5 329.744 72.5C330.068 72.5 330.392 72.5 330.715 72.5C331.038 72.5 331.36 72.5 331.682 72.5C332.003 72.5 332.324 72.5 332.645 72.5C332.965 72.5 333.285 72.5 333.604 72.5C333.923 72.5 334.242 72.5 334.559 72.5C334.877 72.5 335.195 72.5 335.511 72.5C335.828 72.5 336.144 72.5 336.459 72.5C336.775 72.5 337.089 72.5 337.404 72.5C337.718 72.5 338.031 72.5 338.344 72.5C338.657 72.5 338.969 72.5 339.281 72.5C339.593 72.5 339.904 72.5 340.214 72.5C340.525 72.5 340.834 72.5 341.144 72.5C341.453 72.5 341.761 72.5 342.069 72.5C342.377 72.5 342.684 72.5 342.991 72.5C343.298 72.5 343.604 72.5 343.909 72.5C344.215 72.5 344.52 72.5 344.824 72.5C345.128 72.5 345.432 72.5 345.735 72.5C346.038 72.5 346.34 72.5 346.642 72.5C346.944 72.5 347.245 72.5 347.546 72.5C347.846 72.5 348.146 72.5 348.446 72.5C348.745 72.5 349.044 72.5 349.342 72.5C349.64 72.5 349.938 72.5 350.234 72.5C350.531 72.5 350.828 72.5 351.123 72.5C351.419 72.5 351.714 72.5 352.009 72.5C352.303 72.5 352.597 72.5 352.89 72.5C353.184 72.5 353.476 72.5 353.768 72.5C354.06 72.5 354.352 72.5 354.643 72.5C354.933 72.5 355.224 72.5 355.513 72.5C355.803 72.5 356.092 72.5 356.381 72.5C356.669 72.5 356.957 72.5 357.244 72.5C357.531 72.5 357.818 72.5 358.104 72.5C358.39 72.5 358.675 72.5 358.96 72.5C359.245 72.5 359.529 72.5 359.813 72.5C360.097 72.5 360.38 72.5 360.662 72.5C360.945 72.5 361.227 72.5 361.508 72.5C361.789 72.5 362.07 72.5 362.35 72.5C362.63 72.5 362.909 72.5 363.188 72.5C363.467 72.5 363.745 72.5 364.023 72.5C364.301 72.5 364.578 72.5 364.854 72.5C365.131 72.5 365.407 72.5 365.682 72.5C365.957 72.5 366.232 72.5 366.506 72.5C366.781 72.5 367.054 72.5 367.327 72.5C367.6 72.5 367.872 72.5 368.144 72.5C368.416 72.5 368.687 72.5 368.958 72.5C369.228 72.5 369.499 72.5 369.768 72.5C370.037 72.5 370.306 72.5 370.575 72.5C370.843 72.5 371.111 72.5 371.378 72.5C371.645 72.5 371.911 72.5 372.177 72.5C372.443 72.5 372.709 72.5 372.973 72.5C373.238 72.5 373.502 72.5 373.766 72.5C374.03 72.5 374.293 72.5 374.555 72.5C374.818 72.5 375.079 72.5 375.341 72.5C375.602 72.5 375.863 72.5 376.123 72.5C376.383 72.5 376.643 72.5 376.902 72.5C377.161 72.5 377.419 72.5 377.677 72.5C377.935 72.5 378.192 72.5 378.449 72.5C378.705 72.5 378.961 72.5 379.217 72.5C379.472 72.5 379.727 72.5 379.982 72.5C380.236 72.5 380.49 72.5 380.743 72.5C380.997 72.5 381.249 72.5 381.501 72.5C381.753 72.5 382.005 72.5 382.256 72.5C382.507 72.5 382.757 72.5 383.007 72.5C383.257 72.5 383.506 72.5 383.755 72.5C384.004 72.5 384.252 72.5 384.499 72.5C384.747 72.5 384.994 72.5 385.24 72.5C385.487 72.5 385.732 72.5 385.978 72.5C386.223 72.5 386.468 72.5 386.712 72.5C386.956 72.5 387.2 72.5 387.443 72.5C387.686 72.5 387.928 72.5 388.17 72.5C388.412 72.5 388.653 72.5 388.894 72.5C389.135 72.5 389.375 72.5 389.615 72.5C389.855 72.5 390.094 72.5 390.332 72.5C390.571 72.5 390.809 72.5 391.046 72.5C391.284 72.5 391.52 72.5 391.757 72.5C391.993 72.5 392.229 72.5 392.464 72.5C392.699 72.5 392.934 72.5 393.168 72.5C393.402 72.5 393.636 72.5 393.869 72.5C394.102 72.5 394.334 72.5 394.566 72.5C394.798 72.5 395.029 72.5 395.26 72.5C395.491 72.5 395.721 72.5 395.951 72.5C396.18 72.5 396.409 72.5 396.638 72.5C396.866 72.5 397.094 72.5 397.322 72.5C397.549 72.5 397.776 72.5 398.003 72.5C398.229 72.5 398.455 72.5 398.68 72.5C398.905 72.5 399.13 72.5 399.354 72.5C399.578 72.5 399.802 72.5 400.025 72.5C400.248 72.5 400.471 72.5 400.693 72.5C400.915 72.5 401.136 72.5 401.357 72.5C401.578 72.5 401.799 72.5 402.018 72.5C402.238 72.5 402.457 72.5 402.676 72.5C402.895 72.5 403.113 72.5 403.331 72.5C403.548 72.5 403.766 72.5 403.982 72.5C404.199 72.5 404.415 72.5 404.63 72.5C404.846 72.5 405.061 72.5 405.275 72.5C405.49 72.5 405.704 72.5 405.917 72.5C406.13 72.5 406.343 72.5 406.555 72.5C406.768 72.5 406.979 72.5 407.191 72.5C407.402 72.5 407.613 72.5 407.823 72.5C408.033 72.5 408.243 72.5 408.452 72.5C408.661 72.5 408.869 72.5 409.077 72.5C409.285 72.5 409.493 72.5 409.7 72.5C409.907 72.5 410.113 72.5 410.319 72.5C410.525 72.5 410.73 72.5 410.935 72.5C411.14 72.5 411.344 72.5 411.548 72.5C411.752 72.5 411.955 72.5 412.158 72.5C412.361 72.5 412.563 72.5 412.765 72.5C412.966 72.5 413.167 72.5 413.368 72.5C413.569 72.5 413.769 72.5 413.968 72.5C414.168 72.5 414.367 72.5 414.566 72.5C414.764 72.5 414.962 72.5 415.16 72.5C415.357 72.5 415.554 72.5 415.751 72.5C415.947 72.5 416.143 72.5 416.338 72.5C416.534 72.5 416.729 72.5 416.923 72.5C417.117 72.5 417.311 72.5 417.505 72.5C417.698 72.5 417.891 72.5 418.083 72.5C418.275 72.5 418.467 72.5 418.658 72.5C418.85 72.5 419.04 72.5 419.231 72.5C419.421 72.5 419.611 72.5 419.8 72.5C419.989 72.5 420.178 72.5 420.366 72.5C420.554 72.5 420.742 72.5 420.929 72.5C421.116 72.5 421.303 72.5 421.489 72.5C421.675 72.5 421.861 72.5 422.046 72.5C422.231 72.5 422.416 72.5 422.6 72.5C422.784 72.5 422.968 72.5 423.151 72.5C423.334 72.5 423.516 72.5 423.698 72.5C423.881 72.5 424.062 72.5 424.243 72.5C424.424 72.5 424.605 72.5 424.785 72.5C424.965 72.5 425.144 72.5 425.324 72.5C425.503 72.5 425.681 72.5 425.859 72.5C426.037 72.5 426.215 72.5 426.392 72.5C426.569 72.5 426.745 72.5 426.921 72.5C427.097 72.5 427.273 72.5 427.448 72.5C427.623 72.5 427.798 72.5 427.972 72.5C428.146 72.5 428.319 72.5 428.492 72.5C428.665 72.5 428.838 72.5 429.01 72.5C429.182 72.5 429.354 72.5 429.525 72.5C429.696 72.5 429.866 72.5 430.036 72.5C430.206 72.5 430.376 72.5 430.545 72.5C430.714 72.5 430.883 72.5 431.051 72.5C431.219 72.5 431.386 72.5 431.554 72.5C431.721 72.5 431.887 72.5 432.053 72.5C432.22 72.5 432.385 72.5 432.55 72.5C432.715 72.5 432.88 72.5 433.044 72.5C433.208 72.5 433.372 72.5 433.535 72.5C433.699 72.5 433.861 72.5 434.023 72.5C434.186 72.5 434.347 72.5 434.509 72.5C434.67 72.5 434.831 72.5 434.991 72.5C435.151 72.5 435.311 72.5 435.47 72.5C435.63 72.5 435.788 72.5 435.947 72.5C436.105 72.5 436.263 72.5 436.42 72.5C436.578 72.5 436.735 72.5 436.891 72.5C437.047 72.5 437.203 72.5 437.359 72.5C437.514 72.5 437.669 72.5 437.824 72.5C437.978 72.5 438.132 72.5 438.286 72.5C438.439 72.5 438.592 72.5 438.745 72.5C438.898 72.5 439.05 72.5 439.201 72.5C439.353 72.5 439.504 72.5 439.655 72.5C439.805 72.5 439.956 72.5 440.105 72.5C440.255 72.5 440.404 72.5 440.553 72.5C440.702 72.5 440.85 72.5 440.998 72.5C441.146 72.5 441.293 72.5 441.44 72.5C441.587 72.5 441.733 72.5 441.879 72.5C442.025 72.5 442.171 72.5 442.316 72.5C442.461 72.5 442.605 72.5 442.75 72.5C442.894 72.5 443.037 72.5 443.18 72.5C443.323 72.5 443.466 72.5 443.608 72.5C443.751 72.5 443.892 72.5 444.034 72.5C444.175 72.5 444.316 72.5 444.456 72.5C444.596 72.5 444.736 72.5 444.876 72.5C445.015 72.5 445.154 72.5 445.293 72.5C445.431 72.5 445.569 72.5 445.707 72.5C445.844 72.5 445.981 72.5 446.118 72.5C446.255 72.5 446.391 72.5 446.527 72.5C446.662 72.5 446.798 72.5 446.933 72.5C447.067 72.5 447.202 72.5 447.336 72.5C447.47 72.5 447.603 72.5 447.736 72.5C447.869 72.5 448.002 72.5 448.134 72.5C448.266 72.5 448.397 72.5 448.528 72.5C448.66 72.5 448.79 72.5 448.921 72.5C449.051 72.5 449.181 72.5 449.31 72.5C449.439 72.5 449.568 72.5 449.697 72.5C449.825 72.5 449.953 72.5 450.081 72.5C450.208 72.5 450.335 72.5 450.462 72.5C450.589 72.5 450.715 72.5 450.841 72.5C450.967 72.5 451.092 72.5 451.217 72.5C451.342 72.5 451.466 72.5 451.59 72.5C451.714 72.5 451.837 72.5 451.961 72.5C452.084 72.5 452.206 72.5 452.328 72.5C452.451 72.5 452.572 72.5 452.694 72.5C452.815 72.5 452.936 72.5 453.056 72.5C453.177 72.5 453.297 72.5 453.416 72.5C453.536 72.5 453.655 72.5 453.773 72.5C453.892 72.5 454.01 72.5 454.128 72.5C454.246 72.5 454.363 72.5 454.48 72.5C454.597 72.5 454.714 72.5 454.829 72.5C454.946 72.5 455.061 72.5 455.176 72.5C455.291 72.5 455.406 72.5 455.52 72.5C455.635 72.5 455.749 72.5 455.862 72.5C455.975 72.5 456.088 72.5 456.201 72.5C456.313 72.5 456.426 72.5 456.537 72.5C456.649 72.5 456.76 72.5 456.871 72.5C456.982 72.5 457.092 72.5 457.202 72.5C457.312 72.5 457.422 72.5 457.531 72.5C457.64 72.5 457.748 72.5 457.857 72.5C457.965 72.5 458.073 72.5 458.18 72.5C458.287 72.5 458.394 72.5 458.501 72.5C458.607 72.5 458.713 72.5 458.819 72.5C458.925 72.5 459.03 72.5 459.135 72.5C459.24 72.5 459.344 72.5 459.448 72.5C459.552 72.5 459.656 72.5 459.759 72.5C459.862 72.5 459.965 72.5 460.067 72.5C460.169 72.5 460.271 72.5 460.372 72.5C460.474 72.5 460.575 72.5 460.675 72.5C460.776 72.5 460.876 72.5 460.976 72.5C461.076 72.5 461.175 72.5 461.274 72.5C461.373 72.5 461.471 72.5 461.57 72.5C461.668 72.5 461.765 72.5 461.863 72.5C461.96 72.5 462.057 72.5 462.153 72.5C462.25 72.5 462.346 72.5 462.441 72.5C462.537 72.5 462.632 72.5 462.727 72.5C462.822 72.5 462.916 72.5 463.01 72.5C463.104 72.5 463.197 72.5 463.291 72.5C463.384 72.5 463.476 72.5 463.569 72.5C463.661 72.5 463.753 72.5 463.844 72.5C463.936 72.5 464.027 72.5 464.118 72.5C464.208 72.5 464.299 72.5 464.388 72.5C464.478 72.5 464.568 72.5 464.657 72.5C464.746 72.5 464.835 72.5 464.923 72.5C465.011 72.5 465.099 72.5 465.186 72.5C465.274 72.5 465.361 72.5 465.447 72.5C465.534 72.5 465.62 72.5 465.706 72.5C465.792 72.5 465.877 72.5 465.962 72.5C466.047 72.5 466.132 72.5 466.216 72.5C466.3 72.5 466.384 72.5 466.468 72.5C466.551 72.5 466.634 72.5 466.717 72.5C466.799 72.5 466.882 72.5 466.963 72.5C467.045 72.5 467.127 72.5 467.208 72.5C467.289 72.5 467.369 72.5 467.45 72.5C467.53 72.5 467.61 72.5 467.689 72.5C467.769 72.5 467.848 72.5 467.926 72.5C468.005 72.5 468.083 72.5 468.161 72.5C468.239 72.5 468.317 72.5 468.394 72.5C468.471 72.5 468.548 72.5 468.624 72.5C468.7 72.5 468.776 72.5 468.852 72.5C468.927 72.5 469.003 72.5 469.077 72.5C469.152 72.5 469.226 72.5 469.3 72.5C469.374 72.5 469.448 72.5 469.521 72.5C469.595 72.5 469.667 72.5 469.74 72.5C469.812 72.5 469.884 72.5 469.956 72.5C470.028 72.5 470.099 72.5 470.17 72.5C470.241 72.5 470.311 72.5 470.382 72.5C470.452 72.5 470.521 72.5 470.591 72.5C470.66 72.5 470.729 72.5 470.798 72.5C470.867 72.5 470.935 72.5 471.003 72.5C471.071 72.5 471.138 72.5 471.205 72.5C471.272 72.5 471.339 72.5 471.405 72.5C471.472 72.5 471.538 72.5 471.603 72.5C471.669 72.5 471.734 72.5 471.799 72.5C471.864 72.5 471.928 72.5 471.993 72.5C472.057 72.5 472.12 72.5 472.184 72.5C472.247 72.5 472.31 72.5 472.373 72.5C472.435 72.5 472.498 72.5 472.559 72.5C472.621 72.5 472.683 72.5 472.744 72.5C472.805 72.5 472.866 72.5 472.926 72.5C472.987 72.5 473.047 72.5 473.106 72.5C473.166 72.5 473.225 72.5 473.284 72.5C473.343 72.5 473.402 72.5 473.46 72.5C473.518 72.5 473.576 72.5 473.633 72.5C473.691 72.5 473.748 72.5 473.805 72.5C473.861 72.5 473.918 72.5 473.974 72.5C474.03 72.5 474.085 72.5 474.141 72.5C474.196 72.5 474.251 72.5 474.305 72.5C474.36 72.5 474.414 72.5 474.468 72.5C474.522 72.5 474.575 72.5 474.628 72.5C474.682 72.5 474.734 72.5 474.787 72.5C474.839 72.5 474.891 72.5 474.943 72.5C474.995 72.5 475.046 72.5 475.097 72.5C475.148 72.5 475.198 72.5 475.249 72.5C475.299 72.5 475.349 72.5 475.398 72.5C475.448 72.5 475.497 72.5 475.546 72.5C475.595 72.5 475.643 72.5 475.691 72.5C475.74 72.5 475.787 72.5 475.835 72.5C475.882 72.5 475.929 72.5 475.976 72.5C476.023 72.5 476.069 72.5 476.115 72.5C476.161 72.5 476.207 72.5 476.252 72.5V71.5C476.207 71.5 476.161 71.5 476.115 71.5C476.069 71.5 476.023 71.5 475.976 71.5C475.929 71.5 475.882 71.5 475.835 71.5C475.787 71.5 475.74 71.5 475.691 71.5C475.643 71.5 475.595 71.5 475.546 71.5C475.497 71.5 475.448 71.5 475.398 71.5C475.349 71.5 475.299 71.5 475.249 71.5C475.198 71.5 475.148 71.5 475.097 71.5C475.046 71.5 474.995 71.5 474.943 71.5C474.891 71.5 474.839 71.5 474.787 71.5C474.734 71.5 474.682 71.5 474.628 71.5C474.575 71.5 474.522 71.5 474.468 71.5C474.414 71.5 474.36 71.5 474.305 71.5C474.251 71.5 474.196 71.5 474.141 71.5C474.085 71.5 474.03 71.5 473.974 71.5C473.918 71.5 473.861 71.5 473.805 71.5C473.748 71.5 473.691 71.5 473.633 71.5C473.576 71.5 473.518 71.5 473.46 71.5C473.402 71.5 473.343 71.5 473.284 71.5C473.225 71.5 473.166 71.5 473.106 71.5C473.047 71.5 472.987 71.5 472.926 71.5C472.866 71.5 472.805 71.5 472.744 71.5C472.683 71.5 472.621 71.5 472.559 71.5C472.498 71.5 472.435 71.5 472.373 71.5C472.31 71.5 472.247 71.5 472.184 71.5C472.12 71.5 472.057 71.5 471.993 71.5C471.928 71.5 471.864 71.5 471.799 71.5C471.734 71.5 471.669 71.5 471.603 71.5C471.538 71.5 471.472 71.5 471.405 71.5C471.339 71.5 471.272 71.5 471.205 71.5C471.138 71.5 471.071 71.5 471.003 71.5C470.935 71.5 470.867 71.5 470.798 71.5C470.729 71.5 470.66 71.5 470.591 71.5C470.521 71.5 470.452 71.5 470.382 71.5C470.311 71.5 470.241 71.5 470.17 71.5C470.099 71.5 470.028 71.5 469.956 71.5C469.884 71.5 469.812 71.5 469.74 71.5C469.667 71.5 469.595 71.5 469.521 71.5C469.448 71.5 469.374 71.5 469.3 71.5C469.226 71.5 469.152 71.5 469.077 71.5C469.003 71.5 468.927 71.5 468.852 71.5C468.776 71.5 468.7 71.5 468.624 71.5C468.548 71.5 468.471 71.5 468.394 71.5C468.317 71.5 468.239 71.5 468.161 71.5C468.083 71.5 468.005 71.5 467.926 71.5C467.848 71.5 467.769 71.5 467.689 71.5C467.61 71.5 467.53 71.5 467.45 71.5C467.369 71.5 467.289 71.5 467.208 71.5C467.127 71.5 467.045 71.5 466.963 71.5C466.882 71.5 466.799 71.5 466.717 71.5C466.634 71.5 466.551 71.5 466.468 71.5C466.384 71.5 466.3 71.5 466.216 71.5C466.132 71.5 466.047 71.5 465.962 71.5C465.877 71.5 465.792 71.5 465.706 71.5C465.62 71.5 465.534 71.5 465.447 71.5C465.361 71.5 465.274 71.5 465.186 71.5C465.099 71.5 465.011 71.5 464.923 71.5C464.835 71.5 464.746 71.5 464.657 71.5C464.568 71.5 464.478 71.5 464.388 71.5C464.299 71.5 464.208 71.5 464.118 71.5C464.027 71.5 463.936 71.5 463.844 71.5C463.753 71.5 463.661 71.5 463.569 71.5C463.476 71.5 463.384 71.5 463.291 71.5C463.197 71.5 463.104 71.5 463.01 71.5C462.916 71.5 462.822 71.5 462.727 71.5C462.632 71.5 462.537 71.5 462.441 71.5C462.346 71.5 462.25 71.5 462.153 71.5C462.057 71.5 461.96 71.5 461.863 71.5C461.765 71.5 461.668 71.5 461.57 71.5C461.471 71.5 461.373 71.5 461.274 71.5C461.175 71.5 461.076 71.5 460.976 71.5C460.876 71.5 460.776 71.5 460.675 71.5C460.575 71.5 460.474 71.5 460.372 71.5C460.271 71.5 460.169 71.5 460.067 71.5C459.965 71.5 459.862 71.5 459.759 71.5C459.656 71.5 459.552 71.5 459.448 71.5C459.344 71.5 459.24 71.5 459.135 71.5C459.03 71.5 458.925 71.5 458.819 71.5C458.713 71.5 458.607 71.5 458.501 71.5C458.394 71.5 458.287 71.5 458.18 71.5C458.073 71.5 457.965 71.5 457.857 71.5C457.748 71.5 457.64 71.5 457.531 71.5C457.422 71.5 457.312 71.5 457.202 71.5C457.092 71.5 456.982 71.5 456.871 71.5C456.76 71.5 456.649 71.5 456.537 71.5C456.426 71.5 456.313 71.5 456.201 71.5C456.088 71.5 455.975 71.5 455.862 71.5C455.749 71.5 455.635 71.5 455.52 71.5C455.406 71.5 455.291 71.5 455.176 71.5C455.061 71.5 454.946 71.5 454.829 71.5C454.714 71.5 454.597 71.5 454.48 71.5C454.363 71.5 454.246 71.5 454.128 71.5C454.01 71.5 453.892 71.5 453.773 71.5C453.655 71.5 453.536 71.5 453.416 71.5C453.297 71.5 453.177 71.5 453.056 71.5C452.936 71.5 452.815 71.5 452.694 71.5C452.572 71.5 452.451 71.5 452.328 71.5C452.206 71.5 452.084 71.5 451.961 71.5C451.837 71.5 451.714 71.5 451.59 71.5C451.466 71.5 451.342 71.5 451.217 71.5C451.092 71.5 450.967 71.5 450.841 71.5C450.715 71.5 450.589 71.5 450.462 71.5C450.335 71.5 450.208 71.5 450.081 71.5C449.953 71.5 449.825 71.5 449.697 71.5C449.568 71.5 449.439 71.5 449.31 71.5C449.181 71.5 449.051 71.5 448.921 71.5C448.79 71.5 448.66 71.5 448.528 71.5C448.397 71.5 448.266 71.5 448.134 71.5C448.002 71.5 447.869 71.5 447.736 71.5C447.603 71.5 447.47 71.5 447.336 71.5C447.202 71.5 447.067 71.5 446.933 71.5C446.798 71.5 446.662 71.5 446.527 71.5C446.391 71.5 446.255 71.5 446.118 71.5C445.981 71.5 445.844 71.5 445.707 71.5C445.569 71.5 445.431 71.5 445.293 71.5C445.154 71.5 445.015 71.5 444.876 71.5C444.736 71.5 444.596 71.5 444.456 71.5C444.316 71.5 444.175 71.5 444.034 71.5C443.892 71.5 443.751 71.5 443.608 71.5C443.466 71.5 443.323 71.5 443.18 71.5C443.037 71.5 442.894 71.5 442.75 71.5C442.605 71.5 442.461 71.5 442.316 71.5C442.171 71.5 442.025 71.5 441.879 71.5C441.733 71.5 441.587 71.5 441.44 71.5C441.293 71.5 441.146 71.5 440.998 71.5C440.85 71.5 440.702 71.5 440.553 71.5C440.404 71.5 440.255 71.5 440.105 71.5C439.956 71.5 439.805 71.5 439.655 71.5C439.504 71.5 439.353 71.5 439.201 71.5C439.05 71.5 438.898 71.5 438.745 71.5C438.592 71.5 438.439 71.5 438.286 71.5C438.132 71.5 437.978 71.5 437.824 71.5C437.669 71.5 437.514 71.5 437.359 71.5C437.203 71.5 437.047 71.5 436.891 71.5C436.735 71.5 436.578 71.5 436.42 71.5C436.263 71.5 436.105 71.5 435.947 71.5C435.788 71.5 435.63 71.5 435.47 71.5C435.311 71.5 435.151 71.5 434.991 71.5C434.831 71.5 434.67 71.5 434.509 71.5C434.347 71.5 434.186 71.5 434.023 71.5C433.861 71.5 433.699 71.5 433.535 71.5C433.372 71.5 433.208 71.5 433.044 71.5C432.88 71.5 432.715 71.5 432.55 71.5C432.385 71.5 432.22 71.5 432.053 71.5C431.887 71.5 431.721 71.5 431.554 71.5C431.386 71.5 431.219 71.5 431.051 71.5C430.883 71.5 430.714 71.5 430.545 71.5C430.376 71.5 430.206 71.5 430.036 71.5C429.866 71.5 429.696 71.5 429.525 71.5C429.354 71.5 429.182 71.5 429.01 71.5C428.838 71.5 428.665 71.5 428.492 71.5C428.319 71.5 428.146 71.5 427.972 71.5C427.798 71.5 427.623 71.5 427.448 71.5C427.273 71.5 427.097 71.5 426.921 71.5C426.745 71.5 426.569 71.5 426.392 71.5C426.215 71.5 426.037 71.5 425.859 71.5C425.681 71.5 425.503 71.5 425.324 71.5C425.144 71.5 424.965 71.5 424.785 71.5C424.605 71.5 424.424 71.5 424.243 71.5C424.062 71.5 423.881 71.5 423.698 71.5C423.516 71.5 423.334 71.5 423.151 71.5C422.968 71.5 422.784 71.5 422.6 71.5C422.416 71.5 422.231 71.5 422.046 71.5C421.861 71.5 421.675 71.5 421.489 71.5C421.303 71.5 421.116 71.5 420.929 71.5C420.742 71.5 420.554 71.5 420.366 71.5C420.178 71.5 419.989 71.5 419.8 71.5C419.611 71.5 419.421 71.5 419.231 71.5C419.04 71.5 418.85 71.5 418.658 71.5C418.467 71.5 418.275 71.5 418.083 71.5C417.891 71.5 417.698 71.5 417.505 71.5C417.311 71.5 417.117 71.5 416.923 71.5C416.729 71.5 416.534 71.5 416.338 71.5C416.143 71.5 415.947 71.5 415.751 71.5C415.554 71.5 415.357 71.5 415.16 71.5C414.962 71.5 414.764 71.5 414.566 71.5C414.367 71.5 414.168 71.5 413.968 71.5C413.769 71.5 413.569 71.5 413.368 71.5C413.167 71.5 412.966 71.5 412.765 71.5C412.563 71.5 412.361 71.5 412.158 71.5C411.955 71.5 411.752 71.5 411.548 71.5C411.344 71.5 411.14 71.5 410.935 71.5C410.73 71.5 410.525 71.5 410.319 71.5C410.113 71.5 409.907 71.5 409.7 71.5C409.493 71.5 409.285 71.5 409.077 71.5C408.869 71.5 408.661 71.5 408.452 71.5C408.243 71.5 408.033 71.5 407.823 71.5C407.613 71.5 407.402 71.5 407.191 71.5C406.979 71.5 406.768 71.5 406.555 71.5C406.343 71.5 406.13 71.5 405.917 71.5C405.704 71.5 405.49 71.5 405.275 71.5C405.061 71.5 404.846 71.5 404.63 71.5C404.415 71.5 404.199 71.5 403.982 71.5C403.766 71.5 403.548 71.5 403.331 71.5C403.113 71.5 402.895 71.5 402.676 71.5C402.457 71.5 402.238 71.5 402.018 71.5C401.799 71.5 401.578 71.5 401.357 71.5C401.136 71.5 400.915 71.5 400.693 71.5C400.471 71.5 400.248 71.5 400.025 71.5C399.802 71.5 399.578 71.5 399.354 71.5C399.13 71.5 398.905 71.5 398.68 71.5C398.455 71.5 398.229 71.5 398.003 71.5C397.776 71.5 397.549 71.5 397.322 71.5C397.094 71.5 396.866 71.5 396.638 71.5C396.409 71.5 396.18 71.5 395.951 71.5C395.721 71.5 395.491 71.5 395.26 71.5C395.029 71.5 394.798 71.5 394.566 71.5C394.334 71.5 394.102 71.5 393.869 71.5C393.636 71.5 393.402 71.5 393.168 71.5C392.934 71.5 392.699 71.5 392.464 71.5C392.229 71.5 391.993 71.5 391.757 71.5C391.52 71.5 391.284 71.5 391.046 71.5C390.809 71.5 390.571 71.5 390.332 71.5C390.094 71.5 389.855 71.5 389.615 71.5C389.375 71.5 389.135 71.5 388.894 71.5C388.653 71.5 388.412 71.5 388.17 71.5C387.928 71.5 387.686 71.5 387.443 71.5C387.2 71.5 386.956 71.5 386.712 71.5C386.468 71.5 386.223 71.5 385.978 71.5C385.732 71.5 385.487 71.5 385.24 71.5C384.994 71.5 384.747 71.5 384.499 71.5C384.252 71.5 384.004 71.5 383.755 71.5C383.506 71.5 383.257 71.5 383.007 71.5C382.757 71.5 382.507 71.5 382.256 71.5C382.005 71.5 381.753 71.5 381.501 71.5C381.249 71.5 380.997 71.5 380.743 71.5C380.49 71.5 380.236 71.5 379.982 71.5C379.727 71.5 379.472 71.5 379.217 71.5C378.961 71.5 378.705 71.5 378.449 71.5C378.192 71.5 377.935 71.5 377.677 71.5C377.419 71.5 377.161 71.5 376.902 71.5C376.643 71.5 376.383 71.5 376.123 71.5C375.863 71.5 375.602 71.5 375.341 71.5C375.079 71.5 374.818 71.5 374.555 71.5C374.293 71.5 374.03 71.5 373.766 71.5C373.502 71.5 373.238 71.5 372.973 71.5C372.709 71.5 372.443 71.5 372.177 71.5C371.911 71.5 371.645 71.5 371.378 71.5C371.111 71.5 370.843 71.5 370.575 71.5C370.306 71.5 370.037 71.5 369.768 71.5C369.499 71.5 369.228 71.5 368.958 71.5C368.687 71.5 368.416 71.5 368.144 71.5C367.872 71.5 367.6 71.5 367.327 71.5C367.054 71.5 366.781 71.5 366.506 71.5C366.232 71.5 365.957 71.5 365.682 71.5C365.407 71.5 365.131 71.5 364.854 71.5C364.578 71.5 364.301 71.5 364.023 71.5C363.745 71.5 363.467 71.5 363.188 71.5C362.909 71.5 362.63 71.5 362.35 71.5C362.07 71.5 361.789 71.5 361.508 71.5C361.227 71.5 360.945 71.5 360.662 71.5C360.38 71.5 360.097 71.5 359.813 71.5C359.529 71.5 359.245 71.5 358.96 71.5C358.675 71.5 358.39 71.5 358.104 71.5C357.818 71.5 357.531 71.5 357.244 71.5C356.957 71.5 356.669 71.5 356.381 71.5C356.092 71.5 355.803 71.5 355.513 71.5C355.224 71.5 354.933 71.5 354.643 71.5C354.352 71.5 354.06 71.5 353.768 71.5C353.476 71.5 353.184 71.5 352.89 71.5C352.597 71.5 352.303 71.5 352.009 71.5C351.714 71.5 351.419 71.5 351.123 71.5C350.828 71.5 350.531 71.5 350.234 71.5C349.938 71.5 349.64 71.5 349.342 71.5C349.044 71.5 348.745 71.5 348.446 71.5C348.146 71.5 347.846 71.5 347.546 71.5C347.245 71.5 346.944 71.5 346.642 71.5C346.34 71.5 346.038 71.5 345.735 71.5C345.432 71.5 345.128 71.5 344.824 71.5C344.52 71.5 344.215 71.5 343.909 71.5C343.604 71.5 343.298 71.5 342.991 71.5C342.684 71.5 342.377 71.5 342.069 71.5C341.761 71.5 341.453 71.5 341.144 71.5C340.834 71.5 340.525 71.5 340.214 71.5C339.904 71.5 339.593 71.5 339.281 71.5C338.969 71.5 338.657 71.5 338.344 71.5C338.031 71.5 337.718 71.5 337.404 71.5C337.089 71.5 336.775 71.5 336.459 71.5C336.144 71.5 335.828 71.5 335.511 71.5C335.195 71.5 334.877 71.5 334.559 71.5C334.242 71.5 333.923 71.5 333.604 71.5C333.285 71.5 332.965 71.5 332.645 71.5C332.324 71.5 332.003 71.5 331.682 71.5C331.36 71.5 331.038 71.5 330.715 71.5C330.392 71.5 330.068 71.5 329.744 71.5C329.42 71.5 329.095 71.5 328.77 71.5C328.444 71.5 328.118 71.5 327.792 71.5C327.465 71.5 327.138 71.5 326.81 71.5C326.482 71.5 326.153 71.5 325.824 71.5C325.495 71.5 325.165 71.5 324.834 71.5C324.504 71.5 324.173 71.5 323.841 71.5C323.509 71.5 323.177 71.5 322.844 71.5C322.511 71.5 322.177 71.5 321.843 71.5C321.508 71.5 321.174 71.5 320.838 71.5C320.502 71.5 320.166 71.5 319.829 71.5C319.492 71.5 319.155 71.5 318.817 71.5C318.479 71.5 318.14 71.5 317.8 71.5C317.461 71.5 317.121 71.5 316.78 71.5C316.439 71.5 316.098 71.5 315.756 71.5C315.414 71.5 315.072 71.5 314.728 71.5C314.385 71.5 314.041 71.5 313.696 71.5C313.352 71.5 313.007 71.5 312.661 71.5C312.315 71.5 311.968 71.5 311.621 71.5C311.274 71.5 310.926 71.5 310.578 71.5C310.229 71.5 309.88 71.5 309.53 71.5C309.181 71.5 308.83 71.5 308.479 71.5C308.128 71.5 307.776 71.5 307.424 71.5C307.072 71.5 306.719 71.5 306.365 71.5C306.011 71.5 305.657 71.5 305.302 71.5C304.947 71.5 304.591 71.5 304.235 71.5C303.879 71.5 303.522 71.5 303.164 71.5C302.807 71.5 302.448 71.5 302.089 71.5C301.73 71.5 301.371 71.5 301.011 71.5C300.65 71.5 300.29 71.5 299.928 71.5C299.566 71.5 299.204 71.5 298.841 71.5C298.479 71.5 298.115 71.5 297.751 71.5C297.387 71.5 297.022 71.5 296.656 71.5C296.291 71.5 295.925 71.5 295.558 71.5C295.191 71.5 294.824 71.5 294.455 71.5C294.087 71.5 293.718 71.5 293.349 71.5C292.979 71.5 292.609 71.5 292.238 71.5C291.868 71.5 291.496 71.5 291.124 71.5C290.752 71.5 290.379 71.5 290.006 71.5C289.632 71.5 289.258 71.5 288.883 71.5C288.508 71.5 288.133 71.5 287.757 71.5C287.38 71.5 287.004 71.5 286.626 71.5C286.249 71.5 285.87 71.5 285.492 71.5C285.113 71.5 284.733 71.5 284.353 71.5C283.973 71.5 283.592 71.5 283.21 71.5C282.829 71.5 282.447 71.5 282.064 71.5C281.681 71.5 281.297 71.5 280.913 71.5C280.529 71.5 280.144 71.5 279.758 71.5C279.373 71.5 278.987 71.5 278.6 71.5C278.213 71.5 277.825 71.5 277.437 71.5C277.049 71.5 276.66 71.5 276.27 71.5C275.88 71.5 275.49 71.5 275.099 71.5C274.708 71.5 274.316 71.5 273.924 71.5C273.531 71.5 273.138 71.5 272.745 71.5C272.351 71.5 271.957 71.5 271.561 71.5C271.166 71.5 270.771 71.5 270.374 71.5C269.978 71.5 269.58 71.5 269.183 71.5C268.785 71.5 268.386 71.5 267.987 71.5C267.588 71.5 267.188 71.5 266.787 71.5C266.387 71.5 265.985 71.5 265.583 71.5C265.181 71.5 264.779 71.5 264.375 71.5C263.972 71.5 263.568 71.5 263.163 71.5C262.759 71.5 262.353 71.5 261.947 71.5C261.541 71.5 261.134 71.5 260.727 71.5C260.319 71.5 259.911 71.5 259.502 71.5C259.093 71.5 258.684 71.5 258.273 71.5C257.863 71.5 257.452 71.5 257.041 71.5C256.629 71.5 256.217 71.5 255.804 71.5C255.39 71.5 254.977 71.5 254.562 71.5C254.148 71.5 253.733 71.5 253.317 71.5C252.901 71.5 252.485 71.5 252.067 71.5C251.65 71.5 251.232 71.5 250.813 71.5C250.395 71.5 249.976 71.5 249.555 71.5C249.135 71.5 248.715 71.5 248.293 71.5C247.872 71.5 247.45 71.5 247.027 71.5C246.604 71.5 246.18 71.5 245.756 71.5C245.332 71.5 244.907 71.5 244.481 71.5C244.056 71.5 243.629 71.5 243.202 71.5C242.775 71.5 242.347 71.5 241.919 71.5C241.49 71.5 241.061 71.5 240.631 71.5C240.201 71.5 239.771 71.5 239.339 71.5C238.908 71.5 238.476 71.5 238.043 71.5C237.611 71.5 237.177 71.5 236.743 71.5C236.309 71.5 235.874 71.5 235.438 71.5C235.003 71.5 234.566 71.5 234.129 71.5C233.692 71.5 233.255 71.5 232.816 71.5C232.378 71.5 231.939 71.5 231.499 71.5C231.059 71.5 230.618 71.5 230.177 71.5C229.736 71.5 229.294 71.5 228.851 71.5C228.408 71.5 227.965 71.5 227.521 71.5C227.077 71.5 226.632 71.5 226.186 71.5C225.74 71.5 225.294 71.5 224.847 71.5C224.4 71.5 223.952 71.5 223.504 71.5C223.055 71.5 222.606 71.5 222.156 71.5C221.706 71.5 221.256 71.5 220.804 71.5C220.353 71.5 219.901 71.5 219.448 71.5C218.995 71.5 218.541 71.5 218.087 71.5C217.633 71.5 217.178 71.5 216.722 71.5C216.266 71.5 215.81 71.5 215.353 71.5C214.896 71.5 214.438 71.5 213.979 71.5C213.52 71.5 213.061 71.5 212.601 71.5C212.141 71.5 211.68 71.5 211.219 71.5C210.757 71.5 210.295 71.5 209.832 71.5C209.369 71.5 208.905 71.5 208.441 71.5C207.976 71.5 207.511 71.5 207.045 71.5C206.579 71.5 206.112 71.5 205.645 71.5C205.177 71.5 204.709 71.5 204.24 71.5C203.772 71.5 203.302 71.5 202.832 71.5C202.361 71.5 201.89 71.5 201.418 71.5C200.947 71.5 200.474 71.5 200.001 71.5C199.527 71.5 199.053 71.5 198.579 71.5C198.104 71.5 197.628 71.5 197.152 71.5C196.676 71.5 196.199 71.5 195.721 71.5C195.243 71.5 194.765 71.5 194.286 71.5C193.806 71.5 193.327 71.5 192.846 71.5C192.365 71.5 191.884 71.5 191.401 71.5C190.919 71.5 190.436 71.5 189.953 71.5C189.469 71.5 188.985 71.5 188.499 71.5C188.014 71.5 187.528 71.5 187.042 71.5C186.555 71.5 186.068 71.5 185.579 71.5C185.091 71.5 184.602 71.5 184.113 71.5C183.623 71.5 183.133 71.5 182.642 71.5C182.15 71.5 181.659 71.5 181.166 71.5C180.673 71.5 180.18 71.5 179.686 71.5C179.191 71.5 178.697 71.5 178.201 71.5C177.705 71.5 177.209 71.5 176.712 71.5C176.215 71.5 175.717 71.5 175.218 71.5C174.719 71.5 174.22 71.5 173.72 71.5C173.219 71.5 172.719 71.5 172.217 71.5C171.715 71.5 171.213 71.5 170.709 71.5C170.206 71.5 169.702 71.5 169.198 71.5C168.693 71.5 168.187 71.5 167.681 71.5C167.175 71.5 166.668 71.5 166.16 71.5C165.652 71.5 165.144 71.5 164.635 71.5C164.125 71.5 163.615 71.5 163.104 71.5C162.594 71.5 162.082 71.5 161.57 71.5C161.057 71.5 160.544 71.5 160.03 71.5C159.516 71.5 159.002 71.5 158.486 71.5C157.971 71.5 157.455 71.5 156.938 71.5C156.421 71.5 155.903 71.5 155.385 71.5C154.866 71.5 154.347 71.5 153.827 71.5C153.307 71.5 152.786 71.5 152.265 71.5C151.743 71.5 151.221 71.5 150.698 71.5C150.175 71.5 149.651 71.5 149.126 71.5C148.602 71.5 148.076 71.5 147.55 71.5C147.024 71.5 146.497 71.5 145.969 71.5C145.442 71.5 144.913 71.5 144.384 71.5C143.855 71.5 143.325 71.5 142.794 71.5C142.263 71.5 141.731 71.5 141.199 71.5C140.667 71.5 140.133 71.5 139.6 71.5C139.066 71.5 138.531 71.5 137.995 71.5C137.46 71.5 136.924 71.5 136.387 71.5C135.85 71.5 135.312 71.5 134.773 71.5C134.235 71.5 133.695 71.5 133.155 71.5C132.615 71.5 132.074 71.5 131.532 71.5C130.991 71.5 130.448 71.5 129.905 71.5C129.361 71.5 128.817 71.5 128.273 71.5C127.728 71.5 127.182 71.5 126.636 71.5C126.089 71.5 125.542 71.5 124.994 71.5C124.446 71.5 123.897 71.5 123.348 71.5C122.798 71.5 122.248 71.5 121.697 71.5C121.145 71.5 120.593 71.5 120.041 71.5C119.488 71.5 118.935 71.5 118.38 71.5C117.826 71.5 117.271 71.5 116.715 71.5C116.159 71.5 115.602 71.5 115.045 71.5C114.487 71.5 113.929 71.5 113.37 71.5C112.811 71.5 112.251 71.5 111.691 71.5C111.13 71.5 110.568 71.5 110.006 71.5C109.444 71.5 108.881 71.5 108.317 71.5C107.753 71.5 107.189 71.5 106.623 71.5C106.058 71.5 105.492 71.5 104.925 71.5C104.358 71.5 103.79 71.5 103.221 71.5C102.653 71.5 102.083 71.5 101.513 71.5C100.943 71.5 100.372 71.5 99.7999 71.5C99.2281 71.5 98.6555 71.5 98.0821 71.5C97.5087 71.5 96.9344 71.5 96.3594 71.5C95.7844 71.5 95.2086 71.5 94.6319 71.5C94.0553 71.5 93.4779 71.5 92.8996 71.5C92.3214 71.5 91.7423 71.5 91.1625 71.5C90.5826 71.5 90.002 71.5 89.4205 71.5C88.839 71.5 88.2568 71.5 87.6737 71.5C87.0906 71.5 86.5067 71.5 85.922 71.5C85.3373 71.5 84.7518 71.5 84.1655 71.5C83.5792 71.5 82.992 71.5 82.4041 71.5C81.8162 71.5 81.2274 71.5 80.6378 71.5C80.0483 71.5 79.4579 71.5 78.8667 71.5C78.2755 71.5 77.6835 71.5 77.0907 71.5C76.4979 71.5 75.9043 71.5 75.3098 71.5C74.7154 71.5 74.1201 71.5 73.524 71.5C72.928 71.5 72.3311 71.5 71.7334 71.5C71.1356 71.5 70.5371 71.5 69.9378 71.5C69.3384 71.5 68.7383 71.5 68.1373 71.5C67.5363 71.5 66.9345 71.5 66.3319 71.5C65.7292 71.5 65.1258 71.5 64.5215 71.5C63.9173 71.5 63.3122 71.5 62.7063 71.5C62.1004 71.5 61.4936 71.5 60.8861 71.5C60.2785 71.5 59.6702 71.5 59.061 71.5C58.4518 71.5 57.8417 71.5 57.2309 71.5C56.62 71.5 56.0084 71.5 55.3959 71.5C54.7834 71.5 54.17 71.5 53.5559 71.5C52.9417 71.5 52.3267 71.5 51.7109 71.5C51.0951 71.5 50.4785 71.5 49.861 71.5C49.2436 71.5 48.6253 71.5 48.0061 71.5C47.387 71.5 46.7671 71.5 46.1463 71.5C45.5255 71.5 44.9039 71.5 44.2814 71.5C43.659 71.5 43.0357 71.5 42.4116 71.5C41.7875 71.5 41.1625 71.5 40.5367 71.5C39.911 71.5 39.2843 71.5 38.6569 71.5C38.0294 71.5 37.4012 71.5 36.772 71.5C36.1429 71.5 35.513 71.5 34.8822 71.5C34.2514 71.5 33.6197 71.5 32.9873 71.5C32.3548 71.5 31.7215 71.5 31.0874 71.5C30.4532 71.5 29.8182 71.5 29.1824 71.5C28.5466 71.5 27.9099 71.5 27.2724 71.5C26.6349 71.5 25.9966 71.5 25.3574 71.5C24.7182 71.5 24.0781 71.5 23.4373 71.5C22.7964 71.5 22.1547 71.5 21.5121 71.5C20.8696 71.5 20.2262 71.5 19.5819 71.5C18.9377 71.5 18.2926 71.5 17.6466 71.5C17.0007 71.5 16.3539 71.5 15.7063 71.5C15.0586 71.5 14.4102 71.5 13.7608 71.5C13.1115 71.5 12.4613 71.5 11.8103 71.5C11.1593 71.5 10.5074 71.5 9.85469 71.5C9.20197 71.5 8.5484 71.5 7.89398 71.5C7.23955 71.5 6.58428 71.5 5.92815 71.5C5.27203 71.5 4.61505 71.5 3.95722 71.5C3.29939 71.5 2.64071 71.5 1.98117 71.5C1.32164 71.5 0.661245 71.5 0 71.5V72.5Z" fill="black" fill-opacity="0.7"/>
<path d="M102 101.5C118.292 101.5 131.5 88.2924 131.5 72C131.5 55.7076 118.292 42.5 102 42.5C85.7076 42.5 72.5 55.7076 72.5 72C72.5 88.2924 85.7076 101.5 102 101.5Z" fill="#F5F4F4" stroke="#67B0F8"/>
<path d="M115.643 71.3333C115.643 77.6953 113.984 83.4316 111.329 87.5621C108.67 91.6979 105.057 94.1667 101.143 94.1667C97.2285 94.1667 93.6156 91.6979 90.9568 87.5621C88.3015 83.4316 86.6429 77.6953 86.6429 71.3333C86.6429 64.9714 88.3015 59.235 90.9568 55.1046C93.6156 50.9687 97.2285 48.5 101.143 48.5C105.057 48.5 108.67 50.9687 111.329 55.1046C113.984 59.235 115.643 64.9714 115.643 71.3333Z" fill="#F5F4F4" stroke="#67B0F8"/>
<path d="M122 42.5H82C76.7533 42.5 72.5 46.7533 72.5 52V92C72.5 97.2467 76.7533 101.5 82 101.5H122C127.247 101.5 131.5 97.2467 131.5 92V52C131.5 46.7533 127.247 42.5 122 42.5Z" fill="#F5F4F4" stroke="#67B0F8"/>
<path d="M97.7774 76.9999H91.5754V66.9619H92.8914V75.8099H97.7774V76.9999ZM101.861 68.1799V76.9999H100.531V68.1799H97.4366V66.9619H104.955V68.1799H101.861ZM109.373 77.1399C108.916 77.1399 108.505 77.1072 108.141 77.0419C107.777 76.9859 107.455 76.9112 107.175 76.8179C106.905 76.7152 106.671 76.6079 106.475 76.4959C106.289 76.3746 106.139 76.2579 106.027 76.1459V74.8859C106.167 75.0072 106.349 75.1332 106.573 75.2639C106.797 75.3852 107.054 75.4972 107.343 75.5999C107.642 75.7026 107.959 75.7866 108.295 75.8519C108.641 75.9172 109 75.9499 109.373 75.9499C110.101 75.9499 110.68 75.8146 111.109 75.5439C111.539 75.2639 111.753 74.8439 111.753 74.2839C111.753 74.0039 111.702 73.7752 111.599 73.5979C111.497 73.4112 111.347 73.2572 111.151 73.1359C110.955 73.0052 110.708 72.8979 110.409 72.8139C110.12 72.7206 109.779 72.6226 109.387 72.5199C108.995 72.4172 108.603 72.3006 108.211 72.1699C107.819 72.0392 107.465 71.8666 107.147 71.6519C106.839 71.4372 106.587 71.1666 106.391 70.8399C106.205 70.5132 106.111 70.0979 106.111 69.5939C106.111 68.7259 106.415 68.0492 107.021 67.5639C107.628 67.0786 108.557 66.8359 109.807 66.8359C110.171 66.8359 110.493 66.8592 110.773 66.9059C111.063 66.9432 111.315 66.9946 111.529 67.0599C111.753 67.1159 111.945 67.1812 112.103 67.2559C112.271 67.3306 112.421 67.4006 112.551 67.4659V68.7259C112.159 68.4739 111.735 68.2966 111.277 68.1939C110.829 68.0819 110.339 68.0259 109.807 68.0259C109.359 68.0259 108.981 68.0632 108.673 68.1379C108.375 68.2032 108.132 68.3012 107.945 68.4319C107.759 68.5626 107.623 68.7212 107.539 68.9079C107.455 69.0946 107.413 69.3046 107.413 69.5379C107.413 69.8179 107.474 70.0512 107.595 70.2379C107.726 70.4246 107.894 70.5832 108.099 70.7139C108.314 70.8352 108.557 70.9379 108.827 71.0219C109.098 71.1059 109.383 71.1806 109.681 71.2459C110.073 71.3392 110.475 71.4466 110.885 71.5679C111.296 71.6892 111.665 71.8572 111.991 72.0719C112.318 72.2866 112.584 72.5666 112.789 72.9119C113.004 73.2479 113.111 73.6866 113.111 74.2279C113.111 74.7599 113.004 75.2126 112.789 75.5859C112.584 75.9499 112.309 76.2486 111.963 76.4819C111.618 76.7152 111.221 76.8832 110.773 76.9859C110.325 77.0886 109.859 77.1399 109.373 77.1399Z" fill="#352E5E"/>
<path d="M266 101.5C282.292 101.5 295.5 88.2924 295.5 72C295.5 55.7076 282.292 42.5 266 42.5C249.708 42.5 236.5 55.7076 236.5 72C236.5 88.2924 249.708 101.5 266 101.5Z" fill="#EDF4D6" stroke="#67B0F8"/>
<path d="M279.643 71.3333C279.643 77.6953 277.984 83.4316 275.329 87.5621C272.67 91.6979 269.057 94.1667 265.143 94.1667C261.229 94.1667 257.616 91.6979 254.957 87.5621C252.302 83.4316 250.643 77.6953 250.643 71.3333C250.643 64.9714 252.302 59.235 254.957 55.1046C257.616 50.9687 261.229 48.5 265.143 48.5C269.057 48.5 272.67 50.9687 275.329 55.1046C277.984 59.235 279.643 64.9714 279.643 71.3333Z" fill="#EDF4D6" stroke="#67B0F8"/>
<path d="M286 42.5H246C240.753 42.5 236.5 46.7533 236.5 52V92C236.5 97.2467 240.753 101.5 246 101.5H286C291.247 101.5 295.5 97.2467 295.5 92V52C295.5 46.7533 291.247 42.5 286 42.5Z" fill="#EDF4D6" stroke="#67B0F8"/>
<path d="M261.777 76.9999H255.575V66.9619H256.891V75.8099H261.777V76.9999ZM265.861 68.1799V76.9999H264.531V68.1799H261.437V66.9619H268.955V68.1799H265.861ZM273.373 77.1399C272.916 77.1399 272.505 77.1072 272.141 77.0419C271.777 76.9859 271.455 76.9112 271.175 76.8179C270.905 76.7152 270.671 76.6079 270.475 76.4959C270.289 76.3746 270.139 76.2579 270.027 76.1459V74.8859C270.167 75.0072 270.349 75.1332 270.573 75.2639C270.797 75.3852 271.054 75.4972 271.343 75.5999C271.642 75.7026 271.959 75.7866 272.295 75.8519C272.641 75.9172 273 75.9499 273.373 75.9499C274.101 75.9499 274.68 75.8146 275.109 75.5439C275.539 75.2639 275.753 74.8439 275.753 74.2839C275.753 74.0039 275.702 73.7752 275.599 73.5979C275.497 73.4112 275.347 73.2572 275.151 73.1359C274.955 73.0052 274.708 72.8979 274.409 72.8139C274.12 72.7206 273.779 72.6226 273.387 72.5199C272.995 72.4172 272.603 72.3006 272.211 72.1699C271.819 72.0392 271.465 71.8666 271.147 71.6519C270.839 71.4372 270.587 71.1666 270.391 70.8399C270.205 70.5132 270.111 70.0979 270.111 69.5939C270.111 68.7259 270.415 68.0492 271.021 67.5639C271.628 67.0786 272.557 66.8359 273.807 66.8359C274.171 66.8359 274.493 66.8592 274.773 66.9059C275.063 66.9432 275.315 66.9946 275.529 67.0599C275.753 67.1159 275.945 67.1812 276.103 67.2559C276.271 67.3306 276.421 67.4006 276.551 67.4659V68.7259C276.159 68.4739 275.735 68.2966 275.277 68.1939C274.829 68.0819 274.339 68.0259 273.807 68.0259C273.359 68.0259 272.981 68.0632 272.673 68.1379C272.375 68.2032 272.132 68.3012 271.945 68.4319C271.759 68.5626 271.623 68.7212 271.539 68.9079C271.455 69.0946 271.413 69.3046 271.413 69.5379C271.413 69.8179 271.474 70.0512 271.595 70.2379C271.726 70.4246 271.894 70.5832 272.099 70.7139C272.314 70.8352 272.557 70.9379 272.827 71.0219C273.098 71.1059 273.383 71.1806 273.681 71.2459C274.073 71.3392 274.475 71.4466 274.885 71.5679C275.296 71.6892 275.665 71.8572 275.991 72.0719C276.318 72.2866 276.584 72.5666 276.789 72.9119C277.004 73.2479 277.111 73.6866 277.111 74.2279C277.111 74.7599 277.004 75.2126 276.789 75.5859C276.584 75.9499 276.309 76.2486 275.963 76.4819C275.618 76.7152 275.221 76.8832 274.773 76.9859C274.325 77.0886 273.859 77.1399 273.373 77.1399Z" fill="#352E5E"/>
<path d="M431.906 41.0544L434.77 36.0416L428.997 36.0673L431.906 41.0544ZM101.098 42.5272L101.036 28.6121L100.036 28.6165L100.098 42.5316L101.098 42.5272ZM108.503 21.0788L423.811 19.675L423.806 18.675L108.499 20.0788L108.503 21.0788ZM431.344 27.1416L431.386 36.5567L432.386 36.5522L432.344 27.1371L431.344 27.1416ZM423.811 19.675C427.953 19.6566 431.325 22.9995 431.344 27.1416L432.344 27.1371C432.323 22.4427 428.5 18.6541 423.806 18.675L423.811 19.675ZM101.036 28.6121C101.018 24.47 104.361 21.0972 108.503 21.0788L108.499 20.0788C103.804 20.0997 100.016 23.9221 100.036 28.6165L101.036 28.6121Z" fill="black" fill-opacity="0.7"/>
<path d="M430 102.5C446.292 102.5 459.5 89.2924 459.5 73C459.5 56.7076 446.292 43.5 430 43.5C413.708 43.5 400.5 56.7076 400.5 73C400.5 89.2924 413.708 102.5 430 102.5Z" fill="#EDF4D6" stroke="#67B0F8"/>
<path d="M443.643 72.3333C443.643 78.6953 441.984 84.4316 439.329 88.5621C436.67 92.6979 433.057 95.1667 429.143 95.1667C425.229 95.1667 421.616 92.6979 418.957 88.5621C416.302 84.4316 414.643 78.6953 414.643 72.3333C414.643 65.9714 416.302 60.235 418.957 56.1046C421.616 51.9687 425.229 49.5 429.143 49.5C433.057 49.5 436.67 51.9687 439.329 56.1046C441.984 60.235 443.643 65.9714 443.643 72.3333Z" fill="#EDF4D6" stroke="#67B0F8"/>
<path d="M450 43.5H410C404.753 43.5 400.5 47.7533 400.5 53V93C400.5 98.2467 404.753 102.5 410 102.5H450C455.247 102.5 459.5 98.2467 459.5 93V53C459.5 47.7533 455.247 43.5 450 43.5Z" fill="#EDF4D6" stroke="#67B0F8"/>
<path d="M425.777 77.9999H419.575V67.9619H420.891V76.8099H425.777V77.9999ZM429.861 69.1799V77.9999H428.531V69.1799H425.437V67.9619H432.955V69.1799H429.861ZM437.373 78.1399C436.916 78.1399 436.505 78.1072 436.141 78.0419C435.777 77.9859 435.455 77.9112 435.175 77.8179C434.905 77.7152 434.671 77.6079 434.475 77.4959C434.289 77.3746 434.139 77.2579 434.027 77.1459V75.8859C434.167 76.0072 434.349 76.1332 434.573 76.2639C434.797 76.3852 435.054 76.4972 435.343 76.5999C435.642 76.7026 435.959 76.7866 436.295 76.8519C436.641 76.9172 437 76.9499 437.373 76.9499C438.101 76.9499 438.68 76.8146 439.109 76.5439C439.539 76.2639 439.753 75.8439 439.753 75.2839C439.753 75.0039 439.702 74.7752 439.599 74.5979C439.497 74.4112 439.347 74.2572 439.151 74.1359C438.955 74.0052 438.708 73.8979 438.409 73.8139C438.12 73.7206 437.779 73.6226 437.387 73.5199C436.995 73.4172 436.603 73.3006 436.211 73.1699C435.819 73.0392 435.465 72.8666 435.147 72.6519C434.839 72.4372 434.587 72.1666 434.391 71.8399C434.205 71.5132 434.111 71.0979 434.111 70.5939C434.111 69.7259 434.415 69.0492 435.021 68.5639C435.628 68.0786 436.557 67.8359 437.807 67.8359C438.171 67.8359 438.493 67.8592 438.773 67.9059C439.063 67.9432 439.315 67.9946 439.529 68.0599C439.753 68.1159 439.945 68.1812 440.103 68.2559C440.271 68.3306 440.421 68.4006 440.551 68.4659V69.7259C440.159 69.4739 439.735 69.2966 439.277 69.1939C438.829 69.0819 438.339 69.0259 437.807 69.0259C437.359 69.0259 436.981 69.0632 436.673 69.1379C436.375 69.2032 436.132 69.3012 435.945 69.4319C435.759 69.5626 435.623 69.7212 435.539 69.9079C435.455 70.0946 435.413 70.3046 435.413 70.5379C435.413 70.8179 435.474 71.0512 435.595 71.2379C435.726 71.4246 435.894 71.5832 436.099 71.7139C436.314 71.8352 436.557 71.9379 436.827 72.0219C437.098 72.1059 437.383 72.1806 437.681 72.2459C438.073 72.3392 438.475 72.4466 438.885 72.5679C439.296 72.6892 439.665 72.8572 439.991 73.0719C440.318 73.2866 440.584 73.5666 440.789 73.9119C441.004 74.2479 441.111 74.6866 441.111 75.2279C441.111 75.7599 441.004 76.2126 440.789 76.5859C440.584 76.9499 440.309 77.2486 439.963 77.4819C439.618 77.7152 439.221 77.8832 438.773 77.9859C438.325 78.0886 437.859 78.1399 437.373 78.1399Z" fill="#352E5E"/>
<path d="M234.129 4.962H235.459V11.57C235.459 12.382 235.688 12.984 236.145 13.376C236.612 13.768 237.247 13.964 238.049 13.964C238.441 13.964 238.801 13.9173 239.127 13.824C239.463 13.7213 239.753 13.572 239.995 13.376C240.238 13.1707 240.425 12.9187 240.555 12.62C240.695 12.3213 240.765 11.9713 240.765 11.57V4.962H242.025V11.528C242.025 12.1067 241.923 12.62 241.717 13.068C241.512 13.516 241.227 13.894 240.863 14.202C240.509 14.51 240.089 14.7433 239.603 14.902C239.118 15.0607 238.591 15.14 238.021 15.14C237.471 15.14 236.957 15.0653 236.481 14.916C236.005 14.7667 235.59 14.5427 235.235 14.244C234.89 13.9453 234.619 13.5767 234.423 13.138C234.227 12.69 234.129 12.172 234.129 11.584V4.962ZM247.547 15.14C246.987 15.14 246.501 15.0093 246.091 14.748C245.689 14.4867 245.367 14.1273 245.125 13.67V17.478H243.893V7.734H244.971L245.097 9.148C245.339 8.672 245.666 8.294 246.077 8.014C246.487 7.734 246.996 7.594 247.603 7.594C248.023 7.594 248.424 7.67333 248.807 7.832C249.199 7.98133 249.539 8.21467 249.829 8.532C250.127 8.84 250.361 9.232 250.529 9.708C250.706 10.1747 250.795 10.7253 250.795 11.36C250.795 12.004 250.706 12.564 250.529 13.04C250.351 13.5067 250.113 13.8987 249.815 14.216C249.516 14.524 249.171 14.7573 248.779 14.916C248.387 15.0653 247.976 15.14 247.547 15.14ZM247.365 14.034C248.009 14.034 248.527 13.8147 248.919 13.376C249.32 12.928 249.521 12.256 249.521 11.36C249.521 10.4827 249.32 9.82 248.919 9.372C248.527 8.91467 248.009 8.686 247.365 8.686C247.047 8.686 246.749 8.742 246.469 8.854C246.198 8.966 245.96 9.134 245.755 9.358C245.559 9.57267 245.4 9.848 245.279 10.184C245.167 10.52 245.111 10.912 245.111 11.36C245.111 11.808 245.167 12.2 245.279 12.536C245.4 12.872 245.559 13.152 245.755 13.376C245.96 13.6 246.198 13.768 246.469 13.88C246.749 13.9827 247.047 14.034 247.365 14.034ZM257.495 13.572C257.271 14.048 256.959 14.4307 256.557 14.72C256.156 15 255.647 15.14 255.031 15.14C254.593 15.14 254.177 15.0653 253.785 14.916C253.393 14.7573 253.048 14.524 252.749 14.216C252.451 13.8987 252.213 13.5067 252.035 13.04C251.858 12.564 251.769 12.004 251.769 11.36C251.769 10.7253 251.858 10.1747 252.035 9.708C252.213 9.232 252.451 8.84 252.749 8.532C253.048 8.21467 253.393 7.98133 253.785 7.832C254.187 7.67333 254.607 7.594 255.045 7.594C255.596 7.594 256.072 7.71067 256.473 7.944C256.875 8.168 257.197 8.49 257.439 8.91V4.962H258.671V15H257.593L257.495 13.572ZM255.213 14.034C255.531 14.034 255.825 13.9827 256.095 13.88C256.366 13.768 256.599 13.6 256.795 13.376C257.001 13.152 257.159 12.872 257.271 12.536C257.393 12.2 257.453 11.808 257.453 11.36C257.453 10.912 257.393 10.52 257.271 10.184C257.159 9.848 257.001 9.568 256.795 9.344C256.599 9.12 256.366 8.95667 256.095 8.854C255.825 8.742 255.531 8.686 255.213 8.686C254.569 8.686 254.042 8.91467 253.631 9.372C253.23 9.82 253.029 10.4827 253.029 11.36C253.029 12.2467 253.235 12.914 253.645 13.362C254.056 13.81 254.579 14.034 255.213 14.034ZM264.938 13.614C264.854 13.782 264.746 13.9593 264.616 14.146C264.485 14.3233 264.322 14.4867 264.126 14.636C263.93 14.7853 263.696 14.9067 263.426 15C263.164 15.0933 262.856 15.14 262.502 15.14C261.848 15.14 261.321 14.958 260.92 14.594C260.518 14.2207 260.318 13.6887 260.318 12.998C260.318 12.2047 260.593 11.6213 261.144 11.248C261.704 10.8747 262.497 10.688 263.524 10.688H264.882V10.086C264.882 9.582 264.751 9.22267 264.49 9.008C264.228 8.79333 263.78 8.686 263.146 8.686C262.698 8.686 262.273 8.76067 261.872 8.91C261.47 9.05 261.111 9.21333 260.794 9.4V8.294C261.055 8.13533 261.405 7.98133 261.844 7.832C262.292 7.67333 262.782 7.594 263.314 7.594C264.228 7.594 264.924 7.78533 265.4 8.168C265.876 8.54133 266.114 9.12467 266.114 9.918V13.824C266.114 13.908 266.114 14.006 266.114 14.118C266.123 14.2207 266.128 14.328 266.128 14.44C266.137 14.552 266.146 14.6593 266.156 14.762C266.165 14.8553 266.174 14.9347 266.184 15H265.064C265.036 14.8693 265.008 14.6873 264.98 14.454C264.961 14.2113 264.952 14.0013 264.952 13.824L264.938 13.614ZM262.768 14.034C263.15 14.034 263.477 13.9547 263.748 13.796C264.018 13.6373 264.238 13.4553 264.406 13.25C264.574 13.0353 264.695 12.83 264.77 12.634C264.844 12.4287 264.882 12.284 264.882 12.2V11.668H263.65C262.912 11.668 262.376 11.7753 262.04 11.99C261.713 12.1953 261.55 12.508 261.55 12.928C261.55 13.2547 261.648 13.5207 261.844 13.726C262.04 13.9313 262.348 14.034 262.768 14.034ZM271.607 14.846C271.458 14.93 271.266 15 271.033 15.056C270.8 15.112 270.552 15.14 270.291 15.14C269.936 15.14 269.633 15.0887 269.381 14.986C269.138 14.8833 268.938 14.748 268.779 14.58C268.62 14.4027 268.504 14.2067 268.429 13.992C268.364 13.768 268.331 13.5393 268.331 13.306V8.784H267.463V7.734H268.331V6.208H269.563V7.734H271.677V8.784H269.563V13.152C269.563 13.46 269.638 13.684 269.787 13.824C269.946 13.964 270.221 14.034 270.613 14.034C270.977 14.034 271.308 13.9313 271.607 13.726V14.846ZM278.96 14.384C278.857 14.4587 278.731 14.538 278.582 14.622C278.433 14.706 278.251 14.79 278.036 14.874C277.821 14.9487 277.579 15.0093 277.308 15.056C277.037 15.112 276.734 15.14 276.398 15.14C275.175 15.14 274.247 14.8087 273.612 14.146C272.977 13.4833 272.66 12.5547 272.66 11.36C272.66 10.772 272.744 10.2447 272.912 9.778C273.089 9.31133 273.332 8.91933 273.64 8.602C273.948 8.27533 274.312 8.028 274.732 7.86C275.152 7.68267 275.609 7.594 276.104 7.594C276.627 7.594 277.093 7.68267 277.504 7.86C277.915 8.03733 278.251 8.29867 278.512 8.644C278.783 8.98933 278.965 9.41867 279.058 9.932C279.161 10.436 279.161 11.024 279.058 11.696H273.934C273.981 12.48 274.214 13.068 274.634 13.46C275.054 13.8427 275.679 14.034 276.51 14.034C277.07 14.034 277.551 13.9547 277.952 13.796C278.353 13.6373 278.689 13.4647 278.96 13.278V14.384ZM276.076 8.686C275.544 8.686 275.087 8.84933 274.704 9.176C274.321 9.50267 274.079 9.99733 273.976 10.66H277.882C277.919 9.988 277.765 9.49333 277.42 9.176C277.075 8.84933 276.627 8.686 276.076 8.686ZM287.234 14.846C287.085 14.93 286.893 15 286.66 15.056C286.427 15.112 286.179 15.14 285.918 15.14C285.563 15.14 285.26 15.0887 285.008 14.986C284.765 14.8833 284.565 14.748 284.406 14.58C284.247 14.4027 284.131 14.2067 284.056 13.992C283.991 13.768 283.958 13.5393 283.958 13.306V8.784H283.09V7.734H283.958V6.208H285.19V7.734H287.304V8.784H285.19V13.152C285.19 13.46 285.265 13.684 285.414 13.824C285.573 13.964 285.848 14.034 286.24 14.034C286.604 14.034 286.935 13.9313 287.234 13.726V14.846ZM291.787 15.14C291.292 15.14 290.83 15.056 290.401 14.888C289.972 14.72 289.598 14.4773 289.281 14.16C288.973 13.8333 288.73 13.4367 288.553 12.97C288.376 12.5033 288.287 11.9667 288.287 11.36C288.287 10.7627 288.376 10.2307 288.553 9.764C288.73 9.288 288.973 8.89133 289.281 8.574C289.598 8.25667 289.972 8.014 290.401 7.846C290.83 7.678 291.292 7.594 291.787 7.594C292.291 7.594 292.758 7.678 293.187 7.846C293.616 8.014 293.985 8.25667 294.293 8.574C294.61 8.89133 294.858 9.288 295.035 9.764C295.222 10.2307 295.315 10.7627 295.315 11.36C295.315 11.9667 295.222 12.5033 295.035 12.97C294.858 13.4367 294.61 13.8333 294.293 14.16C293.985 14.4773 293.616 14.72 293.187 14.888C292.758 15.056 292.291 15.14 291.787 15.14ZM291.787 14.034C292.114 14.034 292.412 13.9827 292.683 13.88C292.963 13.768 293.206 13.6047 293.411 13.39C293.616 13.166 293.775 12.886 293.887 12.55C293.999 12.214 294.055 11.8173 294.055 11.36C294.055 10.9027 293.999 10.506 293.887 10.17C293.775 9.834 293.616 9.55867 293.411 9.344C293.206 9.12 292.963 8.95667 292.683 8.854C292.412 8.742 292.114 8.686 291.787 8.686C291.46 8.686 291.162 8.742 290.891 8.854C290.62 8.95667 290.382 9.12 290.177 9.344C289.981 9.55867 289.827 9.834 289.715 10.17C289.603 10.506 289.547 10.9027 289.547 11.36C289.547 11.8173 289.603 12.214 289.715 12.55C289.827 12.886 289.981 13.166 290.177 13.39C290.382 13.6047 290.62 13.768 290.891 13.88C291.162 13.9827 291.46 14.034 291.787 14.034Z" fill="black"/>
<path d="M411.543 117.14C410.796 117.14 410.119 117.023 409.513 116.79C408.906 116.557 408.383 116.221 407.945 115.782C407.515 115.334 407.184 114.793 406.951 114.158C406.717 113.514 406.601 112.791 406.601 111.988C406.601 111.176 406.708 110.453 406.923 109.818C407.137 109.183 407.455 108.647 407.875 108.208C408.295 107.76 408.808 107.419 409.415 107.186C410.031 106.953 410.731 106.836 411.515 106.836C412.196 106.836 412.793 106.911 413.307 107.06C413.82 107.2 414.24 107.368 414.567 107.564V108.824C414.147 108.553 413.661 108.353 413.111 108.222C412.569 108.091 412.033 108.026 411.501 108.026C410.315 108.026 409.438 108.357 408.869 109.02C408.309 109.673 408.029 110.663 408.029 111.988C408.029 113.323 408.332 114.317 408.939 114.97C409.555 115.623 410.46 115.95 411.655 115.95C412.168 115.95 412.667 115.88 413.153 115.74C413.647 115.6 414.119 115.362 414.567 115.026V116.286C414.296 116.501 413.899 116.697 413.377 116.874C412.863 117.051 412.252 117.14 411.543 117.14ZM421.075 115.698C420.879 116.109 420.576 116.454 420.165 116.734C419.764 117.005 419.237 117.14 418.583 117.14C417.911 117.14 417.365 116.953 416.945 116.58C416.535 116.197 416.329 115.609 416.329 114.816V109.734H417.575V114.816C417.575 115.059 417.608 115.259 417.673 115.418C417.748 115.567 417.846 115.689 417.967 115.782C418.089 115.875 418.229 115.941 418.387 115.978C418.555 116.015 418.737 116.034 418.933 116.034C419.475 116.034 419.909 115.913 420.235 115.67C420.562 115.427 420.842 115.096 421.075 114.676V109.734H422.307V117H421.215L421.103 115.698H421.075ZM427.927 110.966C427.405 111.013 426.929 111.148 426.499 111.372C426.079 111.587 425.767 111.923 425.561 112.38V117H424.329V109.734H425.407L425.533 111.316H425.561C425.767 110.887 426.061 110.513 426.443 110.196C426.835 109.869 427.33 109.669 427.927 109.594V110.966ZM433.027 110.966C432.504 111.013 432.028 111.148 431.599 111.372C431.179 111.587 430.866 111.923 430.661 112.38V117H429.429V109.734H430.507L430.633 111.316H430.661C430.866 110.887 431.16 110.513 431.543 110.196C431.935 109.869 432.43 109.669 433.027 109.594V110.966ZM440.105 116.384C440.003 116.459 439.877 116.538 439.727 116.622C439.578 116.706 439.396 116.79 439.181 116.874C438.967 116.949 438.724 117.009 438.453 117.056C438.183 117.112 437.879 117.14 437.543 117.14C436.321 117.14 435.392 116.809 434.757 116.146C434.123 115.483 433.805 114.555 433.805 113.36C433.805 112.772 433.889 112.245 434.057 111.778C434.235 111.311 434.477 110.919 434.785 110.602C435.093 110.275 435.457 110.028 435.877 109.86C436.297 109.683 436.755 109.594 437.249 109.594C437.772 109.594 438.239 109.683 438.649 109.86C439.06 110.037 439.396 110.299 439.657 110.644C439.928 110.989 440.11 111.419 440.203 111.932C440.306 112.436 440.306 113.024 440.203 113.696H435.079C435.126 114.48 435.359 115.068 435.779 115.46C436.199 115.843 436.825 116.034 437.655 116.034C438.215 116.034 438.696 115.955 439.097 115.796C439.499 115.637 439.835 115.465 440.105 115.278V116.384ZM437.221 110.686C436.689 110.686 436.232 110.849 435.849 111.176C435.467 111.503 435.224 111.997 435.121 112.66H439.027C439.065 111.988 438.911 111.493 438.565 111.176C438.22 110.849 437.772 110.686 437.221 110.686ZM445.191 110.686C444.631 110.686 444.174 110.817 443.819 111.078C443.474 111.33 443.194 111.657 442.979 112.058V117H441.747V109.734H442.909L442.951 111.036H442.979C443.175 110.616 443.483 110.271 443.903 110C444.323 109.729 444.855 109.594 445.499 109.594C446.218 109.594 446.787 109.785 447.207 110.168C447.637 110.541 447.851 111.12 447.851 111.904V117H446.619V112.03C446.619 111.526 446.493 111.176 446.241 110.98C445.989 110.784 445.639 110.686 445.191 110.686ZM453.356 116.846C453.207 116.93 453.015 117 452.782 117.056C452.549 117.112 452.301 117.14 452.04 117.14C451.685 117.14 451.382 117.089 451.13 116.986C450.887 116.883 450.687 116.748 450.528 116.58C450.369 116.403 450.253 116.207 450.178 115.992C450.113 115.768 450.08 115.539 450.08 115.306V110.784H449.212V109.734H450.08V108.208H451.312V109.734H453.426V110.784H451.312V115.152C451.312 115.46 451.387 115.684 451.536 115.824C451.695 115.964 451.97 116.034 452.362 116.034C452.726 116.034 453.057 115.931 453.356 115.726V116.846ZM411.767 133H409.779L407.287 125.734H408.617L410.829 132.342L413.027 125.734H414.259L411.767 133ZM421.047 132.384C420.944 132.459 420.818 132.538 420.669 132.622C420.52 132.706 420.338 132.79 420.123 132.874C419.908 132.949 419.666 133.009 419.395 133.056C419.124 133.112 418.821 133.14 418.485 133.14C417.262 133.14 416.334 132.809 415.699 132.146C415.064 131.483 414.747 130.555 414.747 129.36C414.747 128.772 414.831 128.245 414.999 127.778C415.176 127.311 415.419 126.919 415.727 126.602C416.035 126.275 416.399 126.028 416.819 125.86C417.239 125.683 417.696 125.594 418.191 125.594C418.714 125.594 419.18 125.683 419.591 125.86C420.002 126.037 420.338 126.299 420.599 126.644C420.87 126.989 421.052 127.419 421.145 127.932C421.248 128.436 421.248 129.024 421.145 129.696H416.021C416.068 130.48 416.301 131.068 416.721 131.46C417.141 131.843 417.766 132.034 418.597 132.034C419.157 132.034 419.638 131.955 420.039 131.796C420.44 131.637 420.776 131.465 421.047 131.278V132.384ZM418.163 126.686C417.631 126.686 417.174 126.849 416.791 127.176C416.408 127.503 416.166 127.997 416.063 128.66H419.969C420.006 127.988 419.852 127.493 419.507 127.176C419.162 126.849 418.714 126.686 418.163 126.686ZM426.287 126.966C425.764 127.013 425.288 127.148 424.859 127.372C424.439 127.587 424.126 127.923 423.921 128.38V133H422.689V125.734H423.767L423.893 127.316H423.921C424.126 126.887 424.42 126.513 424.803 126.196C425.195 125.869 425.689 125.669 426.287 125.594V126.966ZM430.112 133.14C429.73 133.14 429.389 133.107 429.09 133.042C428.801 132.986 428.544 132.916 428.32 132.832C428.106 132.739 427.924 132.645 427.774 132.552C427.625 132.449 427.508 132.361 427.424 132.286V131.18C427.518 131.273 427.644 131.376 427.802 131.488C427.961 131.591 428.152 131.689 428.376 131.782C428.6 131.875 428.852 131.955 429.132 132.02C429.422 132.076 429.744 132.104 430.098 132.104C430.621 132.104 431.036 132.02 431.344 131.852C431.652 131.684 431.806 131.399 431.806 130.998C431.806 130.783 431.755 130.611 431.652 130.48C431.559 130.349 431.428 130.247 431.26 130.172C431.092 130.088 430.896 130.023 430.672 129.976C430.458 129.929 430.229 129.883 429.986 129.836C429.678 129.771 429.375 129.701 429.076 129.626C428.778 129.542 428.507 129.425 428.264 129.276C428.022 129.117 427.826 128.917 427.676 128.674C427.527 128.422 427.452 128.095 427.452 127.694C427.452 127.041 427.704 126.527 428.208 126.154C428.722 125.781 429.436 125.594 430.35 125.594C430.864 125.594 431.316 125.645 431.708 125.748C432.11 125.851 432.418 125.963 432.632 126.084V127.19C432.39 127.031 432.086 126.901 431.722 126.798C431.368 126.686 430.924 126.63 430.392 126.63C429.842 126.63 429.417 126.705 429.118 126.854C428.829 127.003 428.684 127.274 428.684 127.666C428.684 127.862 428.726 128.021 428.81 128.142C428.894 128.254 429.006 128.347 429.146 128.422C429.296 128.487 429.464 128.539 429.65 128.576C429.837 128.613 430.033 128.655 430.238 128.702C430.556 128.767 430.882 128.837 431.218 128.912C431.554 128.987 431.853 129.103 432.114 129.262C432.385 129.421 432.604 129.635 432.772 129.906C432.95 130.167 433.038 130.522 433.038 130.97C433.038 131.39 432.954 131.74 432.786 132.02C432.618 132.3 432.394 132.524 432.114 132.692C431.844 132.851 431.531 132.963 431.176 133.028C430.831 133.103 430.476 133.14 430.112 133.14ZM435.186 124.67C434.934 124.67 434.733 124.595 434.584 124.446C434.435 124.287 434.36 124.096 434.36 123.872C434.36 123.648 434.435 123.457 434.584 123.298C434.733 123.139 434.934 123.06 435.186 123.06C435.429 123.06 435.62 123.139 435.76 123.298C435.9 123.457 435.97 123.648 435.97 123.872C435.97 124.096 435.9 124.287 435.76 124.446C435.62 124.595 435.429 124.67 435.186 124.67ZM435.788 125.734V133H434.556V125.734H435.788ZM440.778 133.14C440.283 133.14 439.821 133.056 439.392 132.888C438.963 132.72 438.589 132.477 438.272 132.16C437.964 131.833 437.721 131.437 437.544 130.97C437.367 130.503 437.278 129.967 437.278 129.36C437.278 128.763 437.367 128.231 437.544 127.764C437.721 127.288 437.964 126.891 438.272 126.574C438.589 126.257 438.963 126.014 439.392 125.846C439.821 125.678 440.283 125.594 440.778 125.594C441.282 125.594 441.749 125.678 442.178 125.846C442.607 126.014 442.976 126.257 443.284 126.574C443.601 126.891 443.849 127.288 444.026 127.764C444.213 128.231 444.306 128.763 444.306 129.36C444.306 129.967 444.213 130.503 444.026 130.97C443.849 131.437 443.601 131.833 443.284 132.16C442.976 132.477 442.607 132.72 442.178 132.888C441.749 133.056 441.282 133.14 440.778 133.14ZM440.778 132.034C441.105 132.034 441.403 131.983 441.674 131.88C441.954 131.768 442.197 131.605 442.402 131.39C442.607 131.166 442.766 130.886 442.878 130.55C442.99 130.214 443.046 129.817 443.046 129.36C443.046 128.903 442.99 128.506 442.878 128.17C442.766 127.834 442.607 127.559 442.402 127.344C442.197 127.12 441.954 126.957 441.674 126.854C441.403 126.742 441.105 126.686 440.778 126.686C440.451 126.686 440.153 126.742 439.882 126.854C439.611 126.957 439.373 127.12 439.168 127.344C438.972 127.559 438.818 127.834 438.706 128.17C438.594 128.506 438.538 128.903 438.538 129.36C438.538 129.817 438.594 130.214 438.706 130.55C438.818 130.886 438.972 131.166 439.168 131.39C439.373 131.605 439.611 131.768 439.882 131.88C440.153 131.983 440.451 132.034 440.778 132.034ZM449.252 126.686C448.692 126.686 448.234 126.817 447.88 127.078C447.534 127.33 447.254 127.657 447.04 128.058V133H445.808V125.734H446.97L447.012 127.036H447.04C447.236 126.616 447.544 126.271 447.964 126C448.384 125.729 448.916 125.594 449.56 125.594C450.278 125.594 450.848 125.785 451.268 126.168C451.697 126.541 451.912 127.12 451.912 127.904V133H450.68V128.03C450.68 127.526 450.554 127.176 450.302 126.98C450.05 126.784 449.7 126.686 449.252 126.686Z" fill="black"/>
<path d="M239.654 107.962H242.86C243.998 107.962 244.88 108.2 245.506 108.676C246.14 109.143 246.458 109.875 246.458 110.874C246.458 111.443 246.364 111.933 246.178 112.344C246 112.745 245.748 113.077 245.422 113.338C245.095 113.599 244.703 113.791 244.246 113.912C243.798 114.033 243.298 114.094 242.748 114.094H240.97V118H239.654V107.962ZM240.97 109.166V112.904H242.748C243.102 112.904 243.424 112.867 243.714 112.792C244.003 112.717 244.25 112.601 244.456 112.442C244.67 112.283 244.834 112.078 244.946 111.826C245.067 111.565 245.128 111.252 245.128 110.888C245.128 110.281 244.932 109.843 244.54 109.572C244.148 109.301 243.588 109.166 242.86 109.166H240.97ZM251.628 111.966C251.106 112.013 250.63 112.148 250.2 112.372C249.78 112.587 249.468 112.923 249.262 113.38V118H248.03V110.734H249.108L249.234 112.316H249.262C249.468 111.887 249.762 111.513 250.144 111.196C250.536 110.869 251.031 110.669 251.628 110.594V111.966ZM258.707 117.384C258.604 117.459 258.478 117.538 258.329 117.622C258.18 117.706 257.998 117.79 257.783 117.874C257.568 117.949 257.326 118.009 257.055 118.056C256.784 118.112 256.481 118.14 256.145 118.14C254.922 118.14 253.994 117.809 253.359 117.146C252.724 116.483 252.407 115.555 252.407 114.36C252.407 113.772 252.491 113.245 252.659 112.778C252.836 112.311 253.079 111.919 253.387 111.602C253.695 111.275 254.059 111.028 254.479 110.86C254.899 110.683 255.356 110.594 255.851 110.594C256.374 110.594 256.84 110.683 257.251 110.86C257.662 111.037 257.998 111.299 258.259 111.644C258.53 111.989 258.712 112.419 258.805 112.932C258.908 113.436 258.908 114.024 258.805 114.696H253.681C253.728 115.48 253.961 116.068 254.381 116.46C254.801 116.843 255.426 117.034 256.257 117.034C256.817 117.034 257.298 116.955 257.699 116.796C258.1 116.637 258.436 116.465 258.707 116.278V117.384ZM255.823 111.686C255.291 111.686 254.834 111.849 254.451 112.176C254.068 112.503 253.826 112.997 253.723 113.66H257.629C257.666 112.988 257.512 112.493 257.167 112.176C256.822 111.849 256.374 111.686 255.823 111.686ZM263.961 118H261.973L259.481 110.734H260.811L263.023 117.342L265.221 110.734H266.453L263.961 118ZM268.225 109.67C267.973 109.67 267.772 109.595 267.623 109.446C267.474 109.287 267.399 109.096 267.399 108.872C267.399 108.648 267.474 108.457 267.623 108.298C267.772 108.139 267.973 108.06 268.225 108.06C268.468 108.06 268.659 108.139 268.799 108.298C268.939 108.457 269.009 108.648 269.009 108.872C269.009 109.096 268.939 109.287 268.799 109.446C268.659 109.595 268.468 109.67 268.225 109.67ZM268.827 110.734V118H267.595V110.734H268.827ZM273.817 118.14C273.322 118.14 272.86 118.056 272.431 117.888C272.002 117.72 271.628 117.477 271.311 117.16C271.003 116.833 270.76 116.437 270.583 115.97C270.406 115.503 270.317 114.967 270.317 114.36C270.317 113.763 270.406 113.231 270.583 112.764C270.76 112.288 271.003 111.891 271.311 111.574C271.628 111.257 272.002 111.014 272.431 110.846C272.86 110.678 273.322 110.594 273.817 110.594C274.321 110.594 274.788 110.678 275.217 110.846C275.646 111.014 276.015 111.257 276.323 111.574C276.64 111.891 276.888 112.288 277.065 112.764C277.252 113.231 277.345 113.763 277.345 114.36C277.345 114.967 277.252 115.503 277.065 115.97C276.888 116.437 276.64 116.833 276.323 117.16C276.015 117.477 275.646 117.72 275.217 117.888C274.788 118.056 274.321 118.14 273.817 118.14ZM273.817 117.034C274.144 117.034 274.442 116.983 274.713 116.88C274.993 116.768 275.236 116.605 275.441 116.39C275.646 116.166 275.805 115.886 275.917 115.55C276.029 115.214 276.085 114.817 276.085 114.36C276.085 113.903 276.029 113.506 275.917 113.17C275.805 112.834 275.646 112.559 275.441 112.344C275.236 112.12 274.993 111.957 274.713 111.854C274.442 111.742 274.144 111.686 273.817 111.686C273.49 111.686 273.192 111.742 272.921 111.854C272.65 111.957 272.412 112.12 272.207 112.344C272.011 112.559 271.857 112.834 271.745 113.17C271.633 113.506 271.577 113.903 271.577 114.36C271.577 114.817 271.633 115.214 271.745 115.55C271.857 115.886 272.011 116.166 272.207 116.39C272.412 116.605 272.65 116.768 272.921 116.88C273.192 116.983 273.49 117.034 273.817 117.034ZM283.509 116.698C283.313 117.109 283.01 117.454 282.599 117.734C282.198 118.005 281.67 118.14 281.017 118.14C280.345 118.14 279.799 117.953 279.379 117.58C278.968 117.197 278.763 116.609 278.763 115.816V110.734H280.009V115.816C280.009 116.059 280.042 116.259 280.107 116.418C280.182 116.567 280.28 116.689 280.401 116.782C280.522 116.875 280.662 116.941 280.821 116.978C280.989 117.015 281.171 117.034 281.367 117.034C281.908 117.034 282.342 116.913 282.669 116.67C282.996 116.427 283.276 116.096 283.509 115.676V110.734H284.741V118H283.649L283.537 116.698H283.509ZM289.087 118.14C288.704 118.14 288.364 118.107 288.065 118.042C287.776 117.986 287.519 117.916 287.295 117.832C287.08 117.739 286.898 117.645 286.749 117.552C286.6 117.449 286.483 117.361 286.399 117.286V116.18C286.492 116.273 286.618 116.376 286.777 116.488C286.936 116.591 287.127 116.689 287.351 116.782C287.575 116.875 287.827 116.955 288.107 117.02C288.396 117.076 288.718 117.104 289.073 117.104C289.596 117.104 290.011 117.02 290.319 116.852C290.627 116.684 290.781 116.399 290.781 115.998C290.781 115.783 290.73 115.611 290.627 115.48C290.534 115.349 290.403 115.247 290.235 115.172C290.067 115.088 289.871 115.023 289.647 114.976C289.432 114.929 289.204 114.883 288.961 114.836C288.653 114.771 288.35 114.701 288.051 114.626C287.752 114.542 287.482 114.425 287.239 114.276C286.996 114.117 286.8 113.917 286.651 113.674C286.502 113.422 286.427 113.095 286.427 112.694C286.427 112.041 286.679 111.527 287.183 111.154C287.696 110.781 288.41 110.594 289.325 110.594C289.838 110.594 290.291 110.645 290.683 110.748C291.084 110.851 291.392 110.963 291.607 111.084V112.19C291.364 112.031 291.061 111.901 290.697 111.798C290.342 111.686 289.899 111.63 289.367 111.63C288.816 111.63 288.392 111.705 288.093 111.854C287.804 112.003 287.659 112.274 287.659 112.666C287.659 112.862 287.701 113.021 287.785 113.142C287.869 113.254 287.981 113.347 288.121 113.422C288.27 113.487 288.438 113.539 288.625 113.576C288.812 113.613 289.008 113.655 289.213 113.702C289.53 113.767 289.857 113.837 290.193 113.912C290.529 113.987 290.828 114.103 291.089 114.262C291.36 114.421 291.579 114.635 291.747 114.906C291.924 115.167 292.013 115.522 292.013 115.97C292.013 116.39 291.929 116.74 291.761 117.02C291.593 117.3 291.369 117.524 291.089 117.692C290.818 117.851 290.506 117.963 290.151 118.028C289.806 118.103 289.451 118.14 289.087 118.14ZM247.267 134H245.279L242.787 126.734H244.117L246.329 133.342L248.527 126.734H249.759L247.267 134ZM256.547 133.384C256.444 133.459 256.318 133.538 256.169 133.622C256.02 133.706 255.838 133.79 255.623 133.874C255.408 133.949 255.166 134.009 254.895 134.056C254.624 134.112 254.321 134.14 253.985 134.14C252.762 134.14 251.834 133.809 251.199 133.146C250.564 132.483 250.247 131.555 250.247 130.36C250.247 129.772 250.331 129.245 250.499 128.778C250.676 128.311 250.919 127.919 251.227 127.602C251.535 127.275 251.899 127.028 252.319 126.86C252.739 126.683 253.196 126.594 253.691 126.594C254.214 126.594 254.68 126.683 255.091 126.86C255.502 127.037 255.838 127.299 256.099 127.644C256.37 127.989 256.552 128.419 256.645 128.932C256.748 129.436 256.748 130.024 256.645 130.696H251.521C251.568 131.48 251.801 132.068 252.221 132.46C252.641 132.843 253.266 133.034 254.097 133.034C254.657 133.034 255.138 132.955 255.539 132.796C255.94 132.637 256.276 132.465 256.547 132.278V133.384ZM253.663 127.686C253.131 127.686 252.674 127.849 252.291 128.176C251.908 128.503 251.666 128.997 251.563 129.66H255.469C255.506 128.988 255.352 128.493 255.007 128.176C254.662 127.849 254.214 127.686 253.663 127.686ZM261.787 127.966C261.264 128.013 260.788 128.148 260.359 128.372C259.939 128.587 259.626 128.923 259.421 129.38V134H258.189V126.734H259.267L259.393 128.316H259.421C259.626 127.887 259.92 127.513 260.303 127.196C260.695 126.869 261.189 126.669 261.787 126.594V127.966ZM265.612 134.14C265.23 134.14 264.889 134.107 264.59 134.042C264.301 133.986 264.044 133.916 263.82 133.832C263.606 133.739 263.424 133.645 263.274 133.552C263.125 133.449 263.008 133.361 262.924 133.286V132.18C263.018 132.273 263.144 132.376 263.302 132.488C263.461 132.591 263.652 132.689 263.876 132.782C264.1 132.875 264.352 132.955 264.632 133.02C264.922 133.076 265.244 133.104 265.598 133.104C266.121 133.104 266.536 133.02 266.844 132.852C267.152 132.684 267.306 132.399 267.306 131.998C267.306 131.783 267.255 131.611 267.152 131.48C267.059 131.349 266.928 131.247 266.76 131.172C266.592 131.088 266.396 131.023 266.172 130.976C265.958 130.929 265.729 130.883 265.486 130.836C265.178 130.771 264.875 130.701 264.576 130.626C264.278 130.542 264.007 130.425 263.764 130.276C263.522 130.117 263.326 129.917 263.176 129.674C263.027 129.422 262.952 129.095 262.952 128.694C262.952 128.041 263.204 127.527 263.708 127.154C264.222 126.781 264.936 126.594 265.85 126.594C266.364 126.594 266.816 126.645 267.208 126.748C267.61 126.851 267.918 126.963 268.132 127.084V128.19C267.89 128.031 267.586 127.901 267.222 127.798C266.868 127.686 266.424 127.63 265.892 127.63C265.342 127.63 264.917 127.705 264.618 127.854C264.329 128.003 264.184 128.274 264.184 128.666C264.184 128.862 264.226 129.021 264.31 129.142C264.394 129.254 264.506 129.347 264.646 129.422C264.796 129.487 264.964 129.539 265.15 129.576C265.337 129.613 265.533 129.655 265.738 129.702C266.056 129.767 266.382 129.837 266.718 129.912C267.054 129.987 267.353 130.103 267.614 130.262C267.885 130.421 268.104 130.635 268.272 130.906C268.45 131.167 268.538 131.522 268.538 131.97C268.538 132.39 268.454 132.74 268.286 133.02C268.118 133.3 267.894 133.524 267.614 133.692C267.344 133.851 267.031 133.963 266.676 134.028C266.331 134.103 265.976 134.14 265.612 134.14ZM270.686 125.67C270.434 125.67 270.233 125.595 270.084 125.446C269.935 125.287 269.86 125.096 269.86 124.872C269.86 124.648 269.935 124.457 270.084 124.298C270.233 124.139 270.434 124.06 270.686 124.06C270.929 124.06 271.12 124.139 271.26 124.298C271.4 124.457 271.47 124.648 271.47 124.872C271.47 125.096 271.4 125.287 271.26 125.446C271.12 125.595 270.929 125.67 270.686 125.67ZM271.288 126.734V134H270.056V126.734H271.288ZM276.278 134.14C275.783 134.14 275.321 134.056 274.892 133.888C274.463 133.72 274.089 133.477 273.772 133.16C273.464 132.833 273.221 132.437 273.044 131.97C272.867 131.503 272.778 130.967 272.778 130.36C272.778 129.763 272.867 129.231 273.044 128.764C273.221 128.288 273.464 127.891 273.772 127.574C274.089 127.257 274.463 127.014 274.892 126.846C275.321 126.678 275.783 126.594 276.278 126.594C276.782 126.594 277.249 126.678 277.678 126.846C278.107 127.014 278.476 127.257 278.784 127.574C279.101 127.891 279.349 128.288 279.526 128.764C279.713 129.231 279.806 129.763 279.806 130.36C279.806 130.967 279.713 131.503 279.526 131.97C279.349 132.437 279.101 132.833 278.784 133.16C278.476 133.477 278.107 133.72 277.678 133.888C277.249 134.056 276.782 134.14 276.278 134.14ZM276.278 133.034C276.605 133.034 276.903 132.983 277.174 132.88C277.454 132.768 277.697 132.605 277.902 132.39C278.107 132.166 278.266 131.886 278.378 131.55C278.49 131.214 278.546 130.817 278.546 130.36C278.546 129.903 278.49 129.506 278.378 129.17C278.266 128.834 278.107 128.559 277.902 128.344C277.697 128.12 277.454 127.957 277.174 127.854C276.903 127.742 276.605 127.686 276.278 127.686C275.951 127.686 275.653 127.742 275.382 127.854C275.111 127.957 274.873 128.12 274.668 128.344C274.472 128.559 274.318 128.834 274.206 129.17C274.094 129.506 274.038 129.903 274.038 130.36C274.038 130.817 274.094 131.214 274.206 131.55C274.318 131.886 274.472 132.166 274.668 132.39C274.873 132.605 275.111 132.768 275.382 132.88C275.653 132.983 275.951 133.034 276.278 133.034ZM284.752 127.686C284.192 127.686 283.734 127.817 283.38 128.078C283.034 128.33 282.754 128.657 282.54 129.058V134H281.308V126.734H282.47L282.512 128.036H282.54C282.736 127.616 283.044 127.271 283.464 127C283.884 126.729 284.416 126.594 285.06 126.594C285.778 126.594 286.348 126.785 286.768 127.168C287.197 127.541 287.412 128.12 287.412 128.904V134H286.18V129.03C286.18 128.526 286.054 128.176 285.802 127.98C285.55 127.784 285.2 127.686 284.752 127.686Z" fill="black"/>
<path d="M65.549 106.962H68.923C69.595 106.962 70.2204 107.041 70.799 107.2C71.3777 107.359 71.8817 107.62 72.311 107.984C72.7404 108.348 73.0764 108.829 73.319 109.426C73.5617 110.023 73.683 110.761 73.683 111.638C73.683 112.525 73.557 113.304 73.305 113.976C73.0624 114.639 72.7217 115.194 72.283 115.642C71.8537 116.09 71.3357 116.431 70.729 116.664C70.1317 116.888 69.4784 117 68.769 117H65.549V106.962ZM66.865 108.166V115.81H68.769C69.2824 115.81 69.7537 115.731 70.183 115.572C70.6124 115.413 70.981 115.171 71.289 114.844C71.597 114.508 71.835 114.083 72.003 113.57C72.171 113.057 72.255 112.445 72.255 111.736C72.255 111.036 72.171 110.457 72.003 110C71.835 109.533 71.6017 109.165 71.303 108.894C71.0137 108.623 70.6637 108.437 70.253 108.334C69.8424 108.222 69.399 108.166 68.923 108.166H66.865ZM81.1162 116.384C81.0135 116.459 80.8875 116.538 80.7382 116.622C80.5888 116.706 80.4068 116.79 80.1922 116.874C79.9775 116.949 79.7348 117.009 79.4642 117.056C79.1935 117.112 78.8902 117.14 78.5542 117.14C77.3315 117.14 76.4028 116.809 75.7682 116.146C75.1335 115.483 74.8162 114.555 74.8162 113.36C74.8162 112.772 74.9002 112.245 75.0682 111.778C75.2455 111.311 75.4882 110.919 75.7962 110.602C76.1042 110.275 76.4682 110.028 76.8882 109.86C77.3082 109.683 77.7655 109.594 78.2602 109.594C78.7828 109.594 79.2495 109.683 79.6602 109.86C80.0708 110.037 80.4068 110.299 80.6682 110.644C80.9388 110.989 81.1208 111.419 81.2142 111.932C81.3168 112.436 81.3168 113.024 81.2142 113.696H76.0902C76.1368 114.48 76.3702 115.068 76.7902 115.46C77.2102 115.843 77.8355 116.034 78.6662 116.034C79.2262 116.034 79.7068 115.955 80.1082 115.796C80.5095 115.637 80.8455 115.465 81.1162 115.278V116.384ZM78.2322 110.686C77.7002 110.686 77.2428 110.849 76.8602 111.176C76.4775 111.503 76.2348 111.997 76.1322 112.66H80.0382C80.0755 111.988 79.9215 111.493 79.5762 111.176C79.2308 110.849 78.7828 110.686 78.2322 110.686ZM86.412 117.14C85.852 117.14 85.3667 117.009 84.956 116.748C84.5547 116.487 84.2327 116.127 83.99 115.67V119.478H82.758V109.734H83.836L83.962 111.148C84.2047 110.672 84.5313 110.294 84.942 110.014C85.3527 109.734 85.8613 109.594 86.468 109.594C86.888 109.594 87.2893 109.673 87.672 109.832C88.064 109.981 88.4047 110.215 88.694 110.532C88.9927 110.84 89.226 111.232 89.394 111.708C89.5713 112.175 89.66 112.725 89.66 113.36C89.66 114.004 89.5713 114.564 89.394 115.04C89.2167 115.507 88.9787 115.899 88.68 116.216C88.3813 116.524 88.036 116.757 87.644 116.916C87.252 117.065 86.8413 117.14 86.412 117.14ZM86.23 116.034C86.874 116.034 87.392 115.815 87.784 115.376C88.1853 114.928 88.386 114.256 88.386 113.36C88.386 112.483 88.1853 111.82 87.784 111.372C87.392 110.915 86.874 110.686 86.23 110.686C85.9127 110.686 85.614 110.742 85.334 110.854C85.0633 110.966 84.8253 111.134 84.62 111.358C84.424 111.573 84.2653 111.848 84.144 112.184C84.032 112.52 83.976 112.912 83.976 113.36C83.976 113.808 84.032 114.2 84.144 114.536C84.2653 114.872 84.424 115.152 84.62 115.376C84.8253 115.6 85.0633 115.768 85.334 115.88C85.614 115.983 85.9127 116.034 86.23 116.034ZM94.7505 110.966C94.2279 111.013 93.7519 111.148 93.3225 111.372C92.9025 111.587 92.5899 111.923 92.3845 112.38V117H91.1525V109.734H92.2305L92.3565 111.316H92.3845C92.5899 110.887 92.8839 110.513 93.2665 110.196C93.6585 109.869 94.1532 109.669 94.7505 109.594V110.966ZM101.829 116.384C101.726 116.459 101.6 116.538 101.451 116.622C101.302 116.706 101.12 116.79 100.905 116.874C100.69 116.949 100.448 117.009 100.177 117.056C99.9064 117.112 99.6031 117.14 99.2671 117.14C98.0444 117.14 97.1157 116.809 96.4811 116.146C95.8464 115.483 95.5291 114.555 95.5291 113.36C95.5291 112.772 95.6131 112.245 95.7811 111.778C95.9584 111.311 96.2011 110.919 96.5091 110.602C96.8171 110.275 97.1811 110.028 97.6011 109.86C98.0211 109.683 98.4784 109.594 98.9731 109.594C99.4957 109.594 99.9624 109.683 100.373 109.86C100.784 110.037 101.12 110.299 101.381 110.644C101.652 110.989 101.834 111.419 101.927 111.932C102.03 112.436 102.03 113.024 101.927 113.696H96.8031C96.8497 114.48 97.0831 115.068 97.5031 115.46C97.9231 115.843 98.5484 116.034 99.3791 116.034C99.9391 116.034 100.42 115.955 100.821 115.796C101.222 115.637 101.558 115.465 101.829 115.278V116.384ZM98.9451 110.686C98.4131 110.686 97.9557 110.849 97.5731 111.176C97.1904 111.503 96.9477 111.997 96.8451 112.66H100.751C100.788 111.988 100.634 111.493 100.289 111.176C99.9437 110.849 99.4957 110.686 98.9451 110.686ZM106.607 117.14C106.047 117.14 105.538 117.056 105.081 116.888C104.633 116.711 104.25 116.463 103.933 116.146C103.616 115.819 103.373 115.423 103.205 114.956C103.037 114.489 102.953 113.957 102.953 113.36C102.953 112.772 103.037 112.245 103.205 111.778C103.382 111.311 103.63 110.919 103.947 110.602C104.264 110.275 104.652 110.028 105.109 109.86C105.566 109.683 106.084 109.594 106.663 109.594C107.111 109.594 107.522 109.645 107.895 109.748C108.268 109.841 108.576 109.981 108.819 110.168V111.274C108.52 111.078 108.184 110.933 107.811 110.84C107.447 110.737 107.069 110.686 106.677 110.686C105.828 110.686 105.202 110.905 104.801 111.344C104.409 111.783 104.213 112.455 104.213 113.36C104.213 114.265 104.404 114.937 104.787 115.376C105.17 115.815 105.776 116.034 106.607 116.034C107.046 116.034 107.447 115.983 107.811 115.88C108.184 115.768 108.52 115.628 108.819 115.46V116.566C108.558 116.725 108.24 116.86 107.867 116.972C107.503 117.084 107.083 117.14 106.607 117.14ZM114.577 115.614C114.493 115.782 114.385 115.959 114.255 116.146C114.124 116.323 113.961 116.487 113.765 116.636C113.569 116.785 113.335 116.907 113.065 117C112.803 117.093 112.495 117.14 112.141 117.14C111.487 117.14 110.96 116.958 110.559 116.594C110.157 116.221 109.957 115.689 109.957 114.998C109.957 114.205 110.232 113.621 110.783 113.248C111.343 112.875 112.136 112.688 113.163 112.688H114.521V112.086C114.521 111.582 114.39 111.223 114.129 111.008C113.867 110.793 113.419 110.686 112.785 110.686C112.337 110.686 111.912 110.761 111.511 110.91C111.109 111.05 110.75 111.213 110.433 111.4V110.294C110.694 110.135 111.044 109.981 111.483 109.832C111.931 109.673 112.421 109.594 112.953 109.594C113.867 109.594 114.563 109.785 115.039 110.168C115.515 110.541 115.753 111.125 115.753 111.918V115.824C115.753 115.908 115.753 116.006 115.753 116.118C115.762 116.221 115.767 116.328 115.767 116.44C115.776 116.552 115.785 116.659 115.795 116.762C115.804 116.855 115.813 116.935 115.823 117H114.703C114.675 116.869 114.647 116.687 114.619 116.454C114.6 116.211 114.591 116.001 114.591 115.824L114.577 115.614ZM112.407 116.034C112.789 116.034 113.116 115.955 113.387 115.796C113.657 115.637 113.877 115.455 114.045 115.25C114.213 115.035 114.334 114.83 114.409 114.634C114.483 114.429 114.521 114.284 114.521 114.2V113.668H113.289C112.551 113.668 112.015 113.775 111.679 113.99C111.352 114.195 111.189 114.508 111.189 114.928C111.189 115.255 111.287 115.521 111.483 115.726C111.679 115.931 111.987 116.034 112.407 116.034ZM121.246 116.846C121.096 116.93 120.905 117 120.672 117.056C120.438 117.112 120.191 117.14 119.93 117.14C119.575 117.14 119.272 117.089 119.02 116.986C118.777 116.883 118.576 116.748 118.418 116.58C118.259 116.403 118.142 116.207 118.068 115.992C118.002 115.768 117.97 115.539 117.97 115.306V110.784H117.102V109.734H117.97V108.208H119.202V109.734H121.316V110.784H119.202V115.152C119.202 115.46 119.276 115.684 119.426 115.824C119.584 115.964 119.86 116.034 120.252 116.034C120.616 116.034 120.947 115.931 121.246 115.726V116.846ZM128.599 116.384C128.496 116.459 128.37 116.538 128.221 116.622C128.071 116.706 127.889 116.79 127.675 116.874C127.46 116.949 127.217 117.009 126.947 117.056C126.676 117.112 126.373 117.14 126.037 117.14C124.814 117.14 123.885 116.809 123.251 116.146C122.616 115.483 122.299 114.555 122.299 113.36C122.299 112.772 122.383 112.245 122.551 111.778C122.728 111.311 122.971 110.919 123.279 110.602C123.587 110.275 123.951 110.028 124.371 109.86C124.791 109.683 125.248 109.594 125.743 109.594C126.265 109.594 126.732 109.683 127.143 109.86C127.553 110.037 127.889 110.299 128.151 110.644C128.421 110.989 128.603 111.419 128.697 111.932C128.799 112.436 128.799 113.024 128.697 113.696H123.573C123.619 114.48 123.853 115.068 124.273 115.46C124.693 115.843 125.318 116.034 126.149 116.034C126.709 116.034 127.189 115.955 127.591 115.796C127.992 115.637 128.328 115.465 128.599 115.278V116.384ZM125.715 110.686C125.183 110.686 124.725 110.849 124.343 111.176C123.96 111.503 123.717 111.997 123.615 112.66H127.521C127.558 111.988 127.404 111.493 127.059 111.176C126.713 110.849 126.265 110.686 125.715 110.686ZM135.448 115.572C135.224 116.048 134.912 116.431 134.51 116.72C134.109 117 133.6 117.14 132.984 117.14C132.546 117.14 132.13 117.065 131.738 116.916C131.346 116.757 131.001 116.524 130.702 116.216C130.404 115.899 130.166 115.507 129.988 115.04C129.811 114.564 129.722 114.004 129.722 113.36C129.722 112.725 129.811 112.175 129.988 111.708C130.166 111.232 130.404 110.84 130.702 110.532C131.001 110.215 131.346 109.981 131.738 109.832C132.14 109.673 132.56 109.594 132.998 109.594C133.549 109.594 134.025 109.711 134.426 109.944C134.828 110.168 135.15 110.49 135.392 110.91V106.962H136.624V117H135.546L135.448 115.572ZM133.166 116.034C133.484 116.034 133.778 115.983 134.048 115.88C134.319 115.768 134.552 115.6 134.748 115.376C134.954 115.152 135.112 114.872 135.224 114.536C135.346 114.2 135.406 113.808 135.406 113.36C135.406 112.912 135.346 112.52 135.224 112.184C135.112 111.848 134.954 111.568 134.748 111.344C134.552 111.12 134.319 110.957 134.048 110.854C133.778 110.742 133.484 110.686 133.166 110.686C132.522 110.686 131.995 110.915 131.584 111.372C131.183 111.82 130.982 112.483 130.982 113.36C130.982 114.247 131.188 114.914 131.598 115.362C132.009 115.81 132.532 116.034 133.166 116.034ZM82.7675 133H80.7795L78.2875 125.734H79.6175L81.8295 132.342L84.0275 125.734H85.2595L82.7675 133ZM92.0468 132.384C91.9442 132.459 91.8182 132.538 91.6688 132.622C91.5195 132.706 91.3375 132.79 91.1228 132.874C90.9082 132.949 90.6655 133.009 90.3948 133.056C90.1242 133.112 89.8208 133.14 89.4848 133.14C88.2622 133.14 87.3335 132.809 86.6988 132.146C86.0642 131.483 85.7468 130.555 85.7468 129.36C85.7468 128.772 85.8308 128.245 85.9988 127.778C86.1762 127.311 86.4188 126.919 86.7268 126.602C87.0348 126.275 87.3988 126.028 87.8188 125.86C88.2388 125.683 88.6962 125.594 89.1908 125.594C89.7135 125.594 90.1802 125.683 90.5908 125.86C91.0015 126.037 91.3375 126.299 91.5988 126.644C91.8695 126.989 92.0515 127.419 92.1448 127.932C92.2475 128.436 92.2475 129.024 92.1448 129.696H87.0208C87.0675 130.48 87.3008 131.068 87.7208 131.46C88.1408 131.843 88.7662 132.034 89.5968 132.034C90.1568 132.034 90.6375 131.955 91.0388 131.796C91.4402 131.637 91.7762 131.465 92.0468 131.278V132.384ZM89.1628 126.686C88.6308 126.686 88.1735 126.849 87.7908 127.176C87.4082 127.503 87.1655 127.997 87.0628 128.66H90.9688C91.0062 127.988 90.8522 127.493 90.5068 127.176C90.1615 126.849 89.7135 126.686 89.1628 126.686ZM97.2867 126.966C96.764 127.013 96.288 127.148 95.8587 127.372C95.4387 127.587 95.126 127.923 94.9207 128.38V133H93.6887V125.734H94.7667L94.8927 127.316H94.9207C95.126 126.887 95.42 126.513 95.8027 126.196C96.1947 125.869 96.6893 125.669 97.2867 125.594V126.966ZM101.112 133.14C100.73 133.14 100.389 133.107 100.09 133.042C99.8009 132.986 99.5443 132.916 99.3203 132.832C99.1056 132.739 98.9236 132.645 98.7743 132.552C98.6249 132.449 98.5083 132.361 98.4243 132.286V131.18C98.5176 131.273 98.6436 131.376 98.8023 131.488C98.9609 131.591 99.1523 131.689 99.3763 131.782C99.6003 131.875 99.8523 131.955 100.132 132.02C100.422 132.076 100.744 132.104 101.098 132.104C101.621 132.104 102.036 132.02 102.344 131.852C102.652 131.684 102.806 131.399 102.806 130.998C102.806 130.783 102.755 130.611 102.652 130.48C102.559 130.349 102.428 130.247 102.26 130.172C102.092 130.088 101.896 130.023 101.672 129.976C101.458 129.929 101.229 129.883 100.986 129.836C100.678 129.771 100.375 129.701 100.076 129.626C99.7776 129.542 99.5069 129.425 99.2643 129.276C99.0216 129.117 98.8256 128.917 98.6763 128.674C98.5269 128.422 98.4523 128.095 98.4523 127.694C98.4523 127.041 98.7043 126.527 99.2083 126.154C99.7216 125.781 100.436 125.594 101.35 125.594C101.864 125.594 102.316 125.645 102.708 125.748C103.11 125.851 103.418 125.963 103.632 126.084V127.19C103.39 127.031 103.086 126.901 102.722 126.798C102.368 126.686 101.924 126.63 101.392 126.63C100.842 126.63 100.417 126.705 100.118 126.854C99.8289 127.003 99.6843 127.274 99.6843 127.666C99.6843 127.862 99.7263 128.021 99.8103 128.142C99.8943 128.254 100.006 128.347 100.146 128.422C100.296 128.487 100.464 128.539 100.65 128.576C100.837 128.613 101.033 128.655 101.238 128.702C101.556 128.767 101.882 128.837 102.218 128.912C102.554 128.987 102.853 129.103 103.114 129.262C103.385 129.421 103.604 129.635 103.772 129.906C103.95 130.167 104.038 130.522 104.038 130.97C104.038 131.39 103.954 131.74 103.786 132.02C103.618 132.3 103.394 132.524 103.114 132.692C102.844 132.851 102.531 132.963 102.176 133.028C101.831 133.103 101.476 133.14 101.112 133.14ZM106.186 124.67C105.934 124.67 105.733 124.595 105.584 124.446C105.435 124.287 105.36 124.096 105.36 123.872C105.36 123.648 105.435 123.457 105.584 123.298C105.733 123.139 105.934 123.06 106.186 123.06C106.429 123.06 106.62 123.139 106.76 123.298C106.9 123.457 106.97 123.648 106.97 123.872C106.97 124.096 106.9 124.287 106.76 124.446C106.62 124.595 106.429 124.67 106.186 124.67ZM106.788 125.734V133H105.556V125.734H106.788ZM111.778 133.14C111.283 133.14 110.821 133.056 110.392 132.888C109.963 132.72 109.589 132.477 109.272 132.16C108.964 131.833 108.721 131.437 108.544 130.97C108.367 130.503 108.278 129.967 108.278 129.36C108.278 128.763 108.367 128.231 108.544 127.764C108.721 127.288 108.964 126.891 109.272 126.574C109.589 126.257 109.963 126.014 110.392 125.846C110.821 125.678 111.283 125.594 111.778 125.594C112.282 125.594 112.749 125.678 113.178 125.846C113.607 126.014 113.976 126.257 114.284 126.574C114.601 126.891 114.849 127.288 115.026 127.764C115.213 128.231 115.306 128.763 115.306 129.36C115.306 129.967 115.213 130.503 115.026 130.97C114.849 131.437 114.601 131.833 114.284 132.16C113.976 132.477 113.607 132.72 113.178 132.888C112.749 133.056 112.282 133.14 111.778 133.14ZM111.778 132.034C112.105 132.034 112.403 131.983 112.674 131.88C112.954 131.768 113.197 131.605 113.402 131.39C113.607 131.166 113.766 130.886 113.878 130.55C113.99 130.214 114.046 129.817 114.046 129.36C114.046 128.903 113.99 128.506 113.878 128.17C113.766 127.834 113.607 127.559 113.402 127.344C113.197 127.12 112.954 126.957 112.674 126.854C112.403 126.742 112.105 126.686 111.778 126.686C111.451 126.686 111.153 126.742 110.882 126.854C110.611 126.957 110.373 127.12 110.168 127.344C109.972 127.559 109.818 127.834 109.706 128.17C109.594 128.506 109.538 128.903 109.538 129.36C109.538 129.817 109.594 130.214 109.706 130.55C109.818 130.886 109.972 131.166 110.168 131.39C110.373 131.605 110.611 131.768 110.882 131.88C111.153 131.983 111.451 132.034 111.778 132.034ZM120.252 126.686C119.692 126.686 119.234 126.817 118.88 127.078C118.534 127.33 118.254 127.657 118.04 128.058V133H116.808V125.734H117.97L118.012 127.036H118.04C118.236 126.616 118.544 126.271 118.964 126C119.384 125.729 119.916 125.594 120.56 125.594C121.278 125.594 121.848 125.785 122.268 126.168C122.697 126.541 122.912 127.12 122.912 127.904V133H121.68V128.03C121.68 127.526 121.554 127.176 121.302 126.98C121.05 126.784 120.7 126.686 120.252 126.686Z" fill="black"/>
</g>
<defs>
<clipPath id="clip0">
<rect width="481" height="136" fill="white"/>
</clipPath>
</defs>
</svg>
