<svg xmlns="http://www.w3.org/2000/svg" width="700" height="550" fill="none" viewBox="0 0 700 550">
    <rect width="121" height="42" x="575" y="172" fill="#fff" stroke="#5282FF" stroke-width="2" rx="4"/>
    <path fill="#262626" d="M597.665 196.889h-1.562l-1.958-5.709h1.045l1.738 5.192 1.727-5.192h.968l-1.958 5.709Zm5.727.11c-.44 0-.822-.103-1.144-.308a2.229 2.229 0 0 1-.759-.847v2.992h-.968v-7.656h.847l.099 1.111c.19-.374.447-.671.77-.891.322-.22.722-.33 1.199-.33.33 0 .645.062.946.187.308.117.575.301.803.55.234.242.418.55.55.924.139.367.209.799.209 1.298 0 .506-.07.946-.209 1.32-.14.367-.327.675-.561.924a2.36 2.36 0 0 1-.814.55 2.705 2.705 0 0 1-.968.176Zm-.143-.869c.506 0 .913-.172 1.221-.517.315-.352.473-.88.473-1.584 0-.689-.158-1.21-.473-1.562-.308-.359-.715-.539-1.221-.539-.25 0-.484.044-.704.132-.213.088-.4.22-.561.396a1.911 1.911 0 0 0-.374.649 2.925 2.925 0 0 0-.132.924c0 .352.044.66.132.924.095.264.22.484.374.66.161.176.348.308.561.396.22.081.454.121.704.121Zm6.331.869c-.44 0-.839-.066-1.199-.198a2.63 2.63 0 0 1-.902-.583 2.576 2.576 0 0 1-.572-.935 3.692 3.692 0 0 1-.198-1.254c0-.462.066-.876.198-1.243.14-.367.334-.675.583-.924.25-.257.554-.451.913-.583.36-.139.767-.209 1.221-.209.352 0 .675.04.968.121.294.073.536.183.726.33v.869a2.543 2.543 0 0 0-.792-.341 3.254 3.254 0 0 0-.891-.121c-.667 0-1.158.172-1.474.517-.308.345-.462.873-.462 1.584 0 .711.151 1.239.451 1.584.301.345.778.517 1.43.517.345 0 .66-.04.946-.121a3.86 3.86 0 0 0 .792-.33v.869a3.371 3.371 0 0 1-1.738.451Zm3.446-.044a.699.699 0 0 1-.517-.198.694.694 0 0 1-.198-.495c0-.205.066-.374.198-.506a.699.699 0 0 1 .517-.198c.205 0 .374.066.506.198a.686.686 0 0 1 .198.506.694.694 0 0 1-.198.495.686.686 0 0 1-.506.198Zm4.975.044c-.44 0-.821-.103-1.144-.308a2.245 2.245 0 0 1-.759-.847v2.992h-.968v-7.656h.847l.099 1.111c.191-.374.447-.671.77-.891.323-.22.722-.33 1.199-.33.33 0 .645.062.946.187.308.117.576.301.803.55.235.242.418.55.55.924.139.367.209.799.209 1.298 0 .506-.07.946-.209 1.32a2.742 2.742 0 0 1-.561.924 2.36 2.36 0 0 1-.814.55 2.705 2.705 0 0 1-.968.176Zm-.143-.869c.506 0 .913-.172 1.221-.517.315-.352.473-.88.473-1.584 0-.689-.158-1.21-.473-1.562-.308-.359-.715-.539-1.221-.539a1.88 1.88 0 0 0-.704.132c-.213.088-.4.22-.561.396a1.911 1.911 0 0 0-.374.649 2.925 2.925 0 0 0-.132.924c0 .352.044.66.132.924.095.264.22.484.374.66.161.176.348.308.561.396.22.081.455.121.704.121Zm7.531-.264a2.05 2.05 0 0 1-.715.814c-.316.213-.73.319-1.243.319-.528 0-.957-.147-1.287-.44-.323-.301-.484-.763-.484-1.386v-3.993h.979v3.993c0 .191.025.348.077.473a.798.798 0 0 0 .231.286.85.85 0 0 0 .33.154c.132.029.275.044.429.044.425 0 .766-.095 1.023-.286.256-.191.476-.451.66-.781v-3.883h.968v5.709h-.858l-.088-1.023h-.022Zm7.979-1.837c0 .506-.069.946-.209 1.32a2.742 2.742 0 0 1-.561.924 2.35 2.35 0 0 1-.814.55 2.7 2.7 0 0 1-.968.176c-.44 0-.825-.103-1.155-.308a2.265 2.265 0 0 1-.77-.88l-.033 1.078h-.913v-7.887h.968l-.022 3.289a2.35 2.35 0 0 1 .77-.891c.323-.22.723-.33 1.199-.33.33 0 .646.062.946.187.308.117.576.301.803.55.235.242.418.55.55.924.14.367.209.799.209 1.298Zm-2.695 2.101c.506 0 .913-.172 1.221-.517.316-.352.473-.88.473-1.584 0-.689-.157-1.21-.473-1.562-.308-.359-.715-.539-1.221-.539a1.88 1.88 0 0 0-.704.132 1.58 1.58 0 0 0-.561.396 1.928 1.928 0 0 0-.374.649 2.925 2.925 0 0 0-.132.924c0 .352.044.66.132.924.096.264.22.484.374.66.162.176.349.308.561.396.22.081.455.121.704.121Zm4.836-7.128v7.887h-.968v-7.887h.968Zm2.073 1.342a.64.64 0 0 1-.473-.176.636.636 0 0 1-.176-.451c0-.176.059-.326.176-.451a.617.617 0 0 1 .473-.187c.191 0 .341.062.451.187.11.125.165.275.165.451a.659.659 0 0 1-.165.451.589.589 0 0 1-.451.176Zm.473.836v5.709h-.968v-5.709h.968Zm4.042 5.819c-.44 0-.84-.066-1.199-.198a2.62 2.62 0 0 1-.902-.583 2.576 2.576 0 0 1-.572-.935 3.692 3.692 0 0 1-.198-1.254c0-.462.066-.876.198-1.243.139-.367.334-.675.583-.924.249-.257.554-.451.913-.583a3.361 3.361 0 0 1 1.221-.209c.352 0 .675.04.968.121.293.073.535.183.726.33v.869a2.564 2.564 0 0 0-.792-.341 3.254 3.254 0 0 0-.891-.121c-.667 0-1.159.172-1.474.517-.308.345-.462.873-.462 1.584 0 .711.15 1.239.451 1.584.301.345.777.517 1.43.517.345 0 .66-.04.946-.121.293-.088.557-.198.792-.33v.869a3.371 3.371 0 0 1-1.738.451Zm5.151-7.997h1.54l2.827 7.887h-1.1l-.814-2.255h-3.487l-.803 2.255h-.968l2.805-7.887Zm2.123 4.697-1.408-3.927-1.408 3.927h2.816Zm7.298 2.068a2.283 2.283 0 0 1-.737.902c-.315.22-.715.33-1.199.33-.344 0-.671-.059-.979-.176a2.36 2.36 0 0 1-.814-.55 2.774 2.774 0 0 1-.561-.924c-.139-.374-.209-.814-.209-1.32 0-.499.07-.931.209-1.298a2.64 2.64 0 0 1 .561-.924 2.17 2.17 0 0 1 .814-.55c.316-.125.646-.187.99-.187.433 0 .807.092 1.122.275.316.176.569.429.759.759v-3.102h.968v7.887h-.847l-.077-1.122Zm-1.793.363c.25 0 .481-.04.693-.121.213-.088.396-.22.55-.396.162-.176.286-.396.374-.66.096-.264.143-.572.143-.924 0-.352-.047-.66-.143-.924a1.797 1.797 0 0 0-.374-.66 1.366 1.366 0 0 0-.55-.385 1.79 1.79 0 0 0-.693-.132c-.506 0-.92.18-1.243.539-.315.352-.473.873-.473 1.562 0 .697.162 1.221.484 1.573.323.352.734.528 1.232.528Zm5.265.759h-.968v-5.709h.847l.099 1.023h.022c.154-.323.385-.59.693-.803.308-.22.711-.33 1.21-.33.44 0 .799.106 1.078.319.286.205.477.517.572.935.161-.389.407-.693.737-.913.337-.227.744-.341 1.221-.341.528 0 .946.15 1.254.451.308.293.462.748.462 1.364v4.004h-.979v-3.883c0-.374-.092-.645-.275-.814-.183-.176-.433-.264-.748-.264-.213 0-.4.033-.561.099a1.34 1.34 0 0 0-.429.253c-.125.11-.238.238-.341.385a4.894 4.894 0 0 0-.286.462v3.762h-.968v-3.993c0-.367-.092-.62-.275-.759-.183-.139-.433-.209-.748-.209-.205 0-.389.026-.55.077a1.551 1.551 0 0 0-.44.22 1.733 1.733 0 0 0-.341.352 3.238 3.238 0 0 0-.286.44v3.872Zm9.238-6.545a.64.64 0 0 1-.473-.176.636.636 0 0 1-.176-.451c0-.176.059-.326.176-.451a.617.617 0 0 1 .473-.187c.191 0 .341.062.451.187.11.125.165.275.165.451a.659.659 0 0 1-.165.451.589.589 0 0 1-.451.176Zm.473.836v5.709h-.968v-5.709h.968Zm4.284.748c-.44 0-.8.103-1.078.308a2.239 2.239 0 0 0-.66.77v3.883h-.968v-5.709h.913l.033 1.023h.022c.154-.33.396-.601.726-.814.33-.213.748-.319 1.254-.319.564 0 1.012.15 1.342.451.337.293.506.748.506 1.364v4.004h-.968v-3.905c0-.396-.099-.671-.297-.825-.198-.154-.473-.231-.825-.231Z"/>
    <rect width="121" height="42" x="3" y="254" fill="#fff" stroke="#5282FF" stroke-width="2" rx="4"/>
    <path fill="#262626" d="M25.514 272h-.968v-5.709h.847l.099 1.023h.022c.154-.323.385-.59.693-.803.308-.22.711-.33 1.21-.33.44 0 .8.106 1.078.319.286.205.477.517.572.935.161-.389.407-.693.737-.913.337-.227.744-.341 1.22-.341.529 0 .947.15 1.255.451.308.293.462.748.462 1.364V272h-.98v-3.883c0-.374-.09-.645-.274-.814-.183-.176-.433-.264-.748-.264-.213 0-.4.033-.561.099a1.334 1.334 0 0 0-.43.253c-.124.11-.237.238-.34.385a4.957 4.957 0 0 0-.286.462V272h-.968v-3.993c0-.367-.092-.62-.275-.759-.183-.139-.433-.209-.748-.209-.205 0-.389.026-.55.077a1.547 1.547 0 0 0-.44.22 1.733 1.733 0 0 0-.341.352 3.267 3.267 0 0 0-.286.44V272Zm12.087-1.089c-.066.132-.15.271-.253.418a1.912 1.912 0 0 1-.935.671c-.205.073-.447.11-.726.11-.514 0-.928-.143-1.243-.429-.316-.293-.473-.711-.473-1.254 0-.623.216-1.082.649-1.375.44-.293 1.063-.44 1.87-.44h1.067v-.473c0-.396-.103-.678-.308-.847-.206-.169-.558-.253-1.056-.253-.352 0-.686.059-1.001.176a4.74 4.74 0 0 0-.847.385v-.869c.205-.125.48-.246.825-.363a3.43 3.43 0 0 1 1.155-.187c.718 0 1.265.15 1.639.451.374.293.56.752.56 1.375v3.3c.008.081.012.165.012.253l.022.253c.007.073.014.136.022.187h-.88a5.068 5.068 0 0 1-.066-.429 6.626 6.626 0 0 1-.022-.495l-.011-.165Zm-1.705.33c.3 0 .557-.062.77-.187a1.91 1.91 0 0 0 .517-.429 1.91 1.91 0 0 0 .286-.484c.059-.161.088-.275.088-.341v-.418h-.968c-.58 0-1.001.084-1.265.253-.257.161-.385.407-.385.737a.87.87 0 0 0 .23.627c.155.161.397.242.727.242Zm6.857-4.202c-.44 0-.8.103-1.078.308a2.252 2.252 0 0 0-.66.77V272h-.968v-5.709h.913l.033 1.023h.022c.154-.33.396-.601.726-.814.33-.213.748-.319 1.254-.319.565 0 1.012.15 1.342.451.337.293.506.748.506 1.364V272h-.968v-3.905c0-.396-.1-.671-.297-.825-.198-.154-.473-.231-.825-.231Zm6.965 3.872c-.066.132-.15.271-.253.418a1.912 1.912 0 0 1-.935.671c-.205.073-.447.11-.726.11-.513 0-.928-.143-1.243-.429-.315-.293-.473-.711-.473-1.254 0-.623.216-1.082.649-1.375.44-.293 1.063-.44 1.87-.44h1.067v-.473c0-.396-.103-.678-.308-.847-.205-.169-.557-.253-1.056-.253-.352 0-.686.059-1.001.176a4.74 4.74 0 0 0-.847.385v-.869c.205-.125.48-.246.825-.363a3.43 3.43 0 0 1 1.155-.187c.719 0 1.265.15 1.639.451.374.293.561.752.561 1.375v3.3c.007.081.011.165.011.253l.022.253c.007.073.015.136.022.187h-.88a5.068 5.068 0 0 1-.066-.429 6.626 6.626 0 0 1-.022-.495l-.011-.165Zm-1.705.33c.3 0 .557-.062.77-.187a1.91 1.91 0 0 0 .517-.429 1.91 1.91 0 0 0 .286-.484c.059-.161.088-.275.088-.341v-.418h-.968c-.58 0-1.001.084-1.265.253-.257.161-.385.407-.385.737a.87.87 0 0 0 .231.627c.154.161.396.242.726.242Zm9.057.275c0 .367-.055.7-.165 1.001a1.808 1.808 0 0 1-.506.781 2.307 2.307 0 0 1-.89.495c-.36.117-.797.176-1.31.176-.279 0-.524-.015-.737-.044a3.34 3.34 0 0 1-.56-.121 2.008 2.008 0 0 1-.397-.154 1.84 1.84 0 0 1-.275-.154v-.869c.117.066.238.125.363.176a3.215 3.215 0 0 0 .946.253c.198.029.422.044.671.044.704 0 1.195-.132 1.474-.396.279-.264.418-.656.418-1.177v-.88a2.076 2.076 0 0 1-.715.814c-.3.205-.675.308-1.122.308-.337 0-.66-.059-.968-.176-.3-.117-.568-.29-.803-.517a2.667 2.667 0 0 1-.55-.869 3.466 3.466 0 0 1-.198-1.221c0-.469.066-.876.198-1.221.14-.352.323-.645.55-.88.235-.235.506-.411.814-.528.308-.117.634-.176.98-.176.454 0 .835.103 1.143.308.315.205.561.484.737.836l.011-.121c0-.132.007-.29.022-.473a7.2 7.2 0 0 1 .044-.44h.88a7.2 7.2 0 0 0-.044.44c-.007.191-.01.348-.01.473v4.312Zm-2.629-.616c.242 0 .462-.037.66-.11a1.4 1.4 0 0 0 .528-.363c.154-.161.271-.359.352-.594.088-.242.132-.524.132-.847 0-.653-.161-1.14-.484-1.463-.315-.323-.715-.484-1.199-.484a1.9 1.9 0 0 0-.682.121 1.498 1.498 0 0 0-.539.363 1.787 1.787 0 0 0-.352.616 2.474 2.474 0 0 0-.132.847c0 .323.044.605.132.847.088.235.21.433.363.594.154.154.334.271.54.352a1.9 1.9 0 0 0 .681.121Zm8.744.616a3.01 3.01 0 0 1-.297.187 3.44 3.44 0 0 1-.43.198 3.604 3.604 0 0 1-.571.143 3.542 3.542 0 0 1-.715.066c-.961 0-1.69-.26-2.19-.781-.498-.521-.747-1.25-.747-2.189 0-.462.066-.876.198-1.243.139-.367.33-.675.572-.924.242-.257.528-.451.858-.583.33-.139.689-.209 1.078-.209.41 0 .777.07 1.1.209.322.139.586.345.792.616.212.271.355.609.429 1.012.08.396.08.858 0 1.386h-4.026c.036.616.22 1.078.55 1.386.33.301.82.451 1.474.451.44 0 .817-.062 1.133-.187.315-.125.579-.26.792-.407v.869Zm-2.266-4.477c-.418 0-.778.128-1.078.385-.301.257-.492.645-.572 1.166h3.069c.029-.528-.092-.917-.363-1.166-.272-.257-.624-.385-1.056-.385Zm7.648 3.839a2.288 2.288 0 0 1-.737.902c-.316.22-.715.33-1.2.33-.344 0-.67-.059-.978-.176a2.357 2.357 0 0 1-.814-.55 2.754 2.754 0 0 1-.561-.924c-.14-.374-.21-.814-.21-1.32 0-.499.07-.931.21-1.298.139-.374.326-.682.56-.924.235-.249.507-.433.815-.55a2.66 2.66 0 0 1 .99-.187c.432 0 .806.092 1.122.275.315.176.568.429.759.759v-3.102h.968V272h-.847l-.077-1.122Zm-1.793.363c.249 0 .48-.04.693-.121.212-.088.396-.22.55-.396.161-.176.286-.396.374-.66.095-.264.143-.572.143-.924 0-.352-.048-.66-.143-.924a1.806 1.806 0 0 0-.374-.66 1.368 1.368 0 0 0-.55-.385 1.794 1.794 0 0 0-.693-.132c-.506 0-.92.18-1.243.539-.316.352-.473.873-.473 1.562 0 .697.161 1.221.484 1.573.322.352.733.528 1.232.528Zm4.164-3.036h2.64v.88h-2.64v-.88Zm5.57 1.364h-.506V272h-.968v-7.887h.968v4.631h.55l2.002-2.453h1.1l-2.343 2.816L79.698 272h-1.177l-2.013-2.431Zm7.22 1.342c-.066.132-.15.271-.253.418a1.915 1.915 0 0 1-.935.671c-.206.073-.448.11-.726.11-.513 0-.928-.143-1.243-.429-.316-.293-.473-.711-.473-1.254 0-.623.216-1.082.649-1.375.44-.293 1.063-.44 1.87-.44h1.067v-.473c0-.396-.103-.678-.308-.847-.206-.169-.558-.253-1.056-.253-.352 0-.686.059-1.001.176-.316.11-.598.238-.847.385v-.869c.205-.125.48-.246.825-.363a3.43 3.43 0 0 1 1.155-.187c.719 0 1.265.15 1.639.451.374.293.56.752.56 1.375v3.3c.008.081.012.165.012.253l.022.253c.007.073.014.136.022.187h-.88a5.068 5.068 0 0 1-.066-.429 6.573 6.573 0 0 1-.022-.495l-.011-.165Zm-1.705.33c.3 0 .557-.062.77-.187a1.91 1.91 0 0 0 .517-.429 1.91 1.91 0 0 0 .286-.484c.058-.161.088-.275.088-.341v-.418h-.968c-.58 0-1.001.084-1.265.253-.257.161-.385.407-.385.737a.87.87 0 0 0 .23.627c.155.161.397.242.727.242Zm5.46-4.125V272h-.968v-4.884h-.693v-.825h.693v-.143c0-.675.18-1.199.539-1.573.36-.374.85-.561 1.474-.561.271 0 .513.033.726.099v.88a1.307 1.307 0 0 0-.286-.077 2.276 2.276 0 0 0-.396-.033c-.338 0-.605.103-.803.308-.19.205-.286.524-.286.957v.143h1.65v.825h-1.65Zm4.258 2.453h-.506V272h-.968v-7.887h.968v4.631h.55l2.002-2.453h1.1l-2.343 2.816L94.93 272h-1.177l-2.013-2.431Zm7.22 1.342a3.467 3.467 0 0 1-.254.418 1.912 1.912 0 0 1-.935.671c-.205.073-.447.11-.726.11-.513 0-.927-.143-1.243-.429-.315-.293-.473-.711-.473-1.254 0-.623.217-1.082.65-1.375.44-.293 1.063-.44 1.87-.44h1.066v-.473c0-.396-.102-.678-.308-.847-.205-.169-.557-.253-1.056-.253-.352 0-.685.059-1 .176a4.74 4.74 0 0 0-.848.385v-.869c.206-.125.48-.246.825-.363a3.43 3.43 0 0 1 1.155-.187c.719 0 1.265.15 1.64.451.373.293.56.752.56 1.375v3.3c.008.081.011.165.011.253l.022.253.022.187h-.88a5.068 5.068 0 0 1-.066-.429 6.626 6.626 0 0 1-.022-.495l-.01-.165Zm-1.706.33c.3 0 .558-.062.77-.187a1.91 1.91 0 0 0 .517-.429 1.88 1.88 0 0 0 .286-.484c.059-.161.088-.275.088-.341v-.418h-.968c-.58 0-1 .084-1.265.253-.256.161-.385.407-.385.737a.87.87 0 0 0 .231.627c.154.161.396.242.726.242Zm4.679.825a.7.7 0 0 1-.517-.198.694.694 0 0 1-.198-.495c0-.205.066-.374.198-.506a.7.7 0 0 1 .517-.198c.206 0 .374.066.506.198a.686.686 0 0 1 .198.506.694.694 0 0 1-.198.495.684.684 0 0 1-.506.198Zm-49.783 11.845c-.066.132-.15.271-.253.418a1.912 1.912 0 0 1-.935.671c-.205.073-.447.11-.726.11-.513 0-.928-.143-1.243-.429-.315-.293-.473-.711-.473-1.254 0-.623.216-1.082.65-1.375.44-.293 1.063-.44 1.87-.44h1.066v-.473c0-.396-.102-.678-.308-.847-.205-.169-.557-.253-1.056-.253-.352 0-.686.059-1 .176a4.74 4.74 0 0 0-.848.385v-.869c.205-.125.48-.246.825-.363a3.43 3.43 0 0 1 1.155-.187c.719 0 1.265.15 1.64.451.373.293.56.752.56 1.375v3.3c.008.081.011.165.011.253l.022.253.022.187h-.88a5.068 5.068 0 0 1-.066-.429 6.626 6.626 0 0 1-.022-.495l-.01-.165Zm-1.705.33c.3 0 .558-.062.77-.187a1.91 1.91 0 0 0 .517-.429 1.88 1.88 0 0 0 .286-.484c.059-.161.088-.275.088-.341v-.418h-.968c-.58 0-1 .084-1.265.253-.257.161-.385.407-.385.737a.87.87 0 0 0 .231.627c.154.161.396.242.726.242Zm8.243-.363a2.288 2.288 0 0 1-.737.902c-.315.22-.715.33-1.199.33-.345 0-.67-.059-.979-.176a2.356 2.356 0 0 1-.814-.55 2.751 2.751 0 0 1-.56-.924c-.14-.374-.21-.814-.21-1.32 0-.499.07-.931.21-1.298.139-.374.325-.682.56-.924a2.17 2.17 0 0 1 .814-.55c.316-.125.645-.187.99-.187.433 0 .807.092 1.122.275.316.176.569.429.76.759v-3.102h.967V285h-.847l-.077-1.122Zm-1.793.363c.25 0 .48-.04.693-.121.213-.088.396-.22.55-.396.161-.176.286-.396.374-.66.096-.264.143-.572.143-.924 0-.352-.047-.66-.143-.924a1.807 1.807 0 0 0-.374-.66 1.37 1.37 0 0 0-.55-.385 1.795 1.795 0 0 0-.693-.132c-.506 0-.92.18-1.243.539-.315.352-.473.873-.473 1.562 0 .697.162 1.221.484 1.573.323.352.733.528 1.232.528Zm5.265.759h-.968v-5.709h.847l.099 1.023h.022c.154-.323.385-.59.693-.803.308-.22.711-.33 1.21-.33.44 0 .8.106 1.078.319.286.205.477.517.572.935.161-.389.407-.693.737-.913.337-.227.744-.341 1.22-.341.529 0 .947.15 1.255.451.308.293.462.748.462 1.364V285h-.98v-3.883c0-.374-.09-.645-.274-.814-.183-.176-.433-.264-.748-.264-.213 0-.4.033-.561.099a1.332 1.332 0 0 0-.43.253c-.124.11-.237.238-.34.385a4.957 4.957 0 0 0-.286.462V285H64.8v-3.993c0-.367-.092-.62-.275-.759-.183-.139-.433-.209-.748-.209-.206 0-.389.026-.55.077a1.546 1.546 0 0 0-.44.22 1.73 1.73 0 0 0-.341.352 3.267 3.267 0 0 0-.286.44V285Zm9.238-6.545a.64.64 0 0 1-.473-.176.635.635 0 0 1-.176-.451.617.617 0 0 1 .649-.638.57.57 0 0 1 .45.187.66.66 0 0 1 .166.451.659.659 0 0 1-.165.451.59.59 0 0 1-.451.176Zm.473.836V285h-.968v-5.709h.968Zm4.284.748c-.44 0-.8.103-1.078.308a2.254 2.254 0 0 0-.66.77V285h-.968v-5.709h.913l.033 1.023h.022c.154-.33.396-.601.726-.814.33-.213.748-.319 1.254-.319.564 0 1.012.15 1.342.451.337.293.506.748.506 1.364V285h-.968v-3.905c0-.396-.1-.671-.297-.825-.198-.154-.473-.231-.825-.231Z"/>
    <rect width="121" height="42" x="3" y="418" fill="#fff" stroke="#5282FF" stroke-width="2" rx="4"/>
    <path fill="#262626" d="M25.514 436h-.968v-5.709h.847l.099 1.023h.022c.154-.323.385-.59.693-.803.308-.22.711-.33 1.21-.33.44 0 .8.106 1.078.319.286.205.477.517.572.935.161-.389.407-.693.737-.913.337-.227.744-.341 1.22-.341.529 0 .947.15 1.255.451.308.293.462.748.462 1.364V436h-.98v-3.883c0-.374-.09-.645-.274-.814-.183-.176-.433-.264-.748-.264-.213 0-.4.033-.561.099a1.334 1.334 0 0 0-.43.253c-.124.11-.237.238-.34.385a4.957 4.957 0 0 0-.286.462V436h-.968v-3.993c0-.367-.092-.62-.275-.759-.183-.139-.433-.209-.748-.209-.205 0-.389.026-.55.077a1.547 1.547 0 0 0-.44.22 1.733 1.733 0 0 0-.341.352 3.267 3.267 0 0 0-.286.44V436Zm12.087-1.089c-.066.132-.15.271-.253.418a1.912 1.912 0 0 1-.935.671c-.205.073-.447.11-.726.11-.514 0-.928-.143-1.243-.429-.316-.293-.473-.711-.473-1.254 0-.623.216-1.082.649-1.375.44-.293 1.063-.44 1.87-.44h1.067v-.473c0-.396-.103-.678-.308-.847-.206-.169-.558-.253-1.056-.253-.352 0-.686.059-1.001.176a4.74 4.74 0 0 0-.847.385v-.869c.205-.125.48-.246.825-.363a3.43 3.43 0 0 1 1.155-.187c.718 0 1.265.15 1.639.451.374.293.56.752.56 1.375v3.3c.008.081.012.165.012.253l.022.253c.007.073.014.136.022.187h-.88a5.068 5.068 0 0 1-.066-.429 6.626 6.626 0 0 1-.022-.495l-.011-.165Zm-1.705.33c.3 0 .557-.062.77-.187a1.91 1.91 0 0 0 .517-.429 1.91 1.91 0 0 0 .286-.484c.059-.161.088-.275.088-.341v-.418h-.968c-.58 0-1.001.084-1.265.253-.257.161-.385.407-.385.737a.87.87 0 0 0 .23.627c.155.161.397.242.727.242Zm6.857-4.202c-.44 0-.8.103-1.078.308a2.252 2.252 0 0 0-.66.77V436h-.968v-5.709h.913l.033 1.023h.022c.154-.33.396-.601.726-.814.33-.213.748-.319 1.254-.319.565 0 1.012.15 1.342.451.337.293.506.748.506 1.364V436h-.968v-3.905c0-.396-.1-.671-.297-.825-.198-.154-.473-.231-.825-.231Zm6.965 3.872c-.066.132-.15.271-.253.418a1.912 1.912 0 0 1-.935.671c-.205.073-.447.11-.726.11-.513 0-.928-.143-1.243-.429-.315-.293-.473-.711-.473-1.254 0-.623.216-1.082.649-1.375.44-.293 1.063-.44 1.87-.44h1.067v-.473c0-.396-.103-.678-.308-.847-.205-.169-.557-.253-1.056-.253-.352 0-.686.059-1.001.176a4.74 4.74 0 0 0-.847.385v-.869c.205-.125.48-.246.825-.363a3.43 3.43 0 0 1 1.155-.187c.719 0 1.265.15 1.639.451.374.293.561.752.561 1.375v3.3c.007.081.011.165.011.253l.022.253c.007.073.015.136.022.187h-.88a5.068 5.068 0 0 1-.066-.429 6.626 6.626 0 0 1-.022-.495l-.011-.165Zm-1.705.33c.3 0 .557-.062.77-.187a1.91 1.91 0 0 0 .517-.429 1.91 1.91 0 0 0 .286-.484c.059-.161.088-.275.088-.341v-.418h-.968c-.58 0-1.001.084-1.265.253-.257.161-.385.407-.385.737a.87.87 0 0 0 .231.627c.154.161.396.242.726.242Zm9.057.275c0 .367-.055.7-.165 1.001a1.808 1.808 0 0 1-.506.781 2.307 2.307 0 0 1-.89.495c-.36.117-.797.176-1.31.176-.279 0-.524-.015-.737-.044a3.34 3.34 0 0 1-.56-.121 2.008 2.008 0 0 1-.397-.154 1.84 1.84 0 0 1-.275-.154v-.869c.117.066.238.125.363.176a3.215 3.215 0 0 0 .946.253c.198.029.422.044.671.044.704 0 1.195-.132 1.474-.396.279-.264.418-.656.418-1.177v-.88a2.076 2.076 0 0 1-.715.814c-.3.205-.675.308-1.122.308-.337 0-.66-.059-.968-.176-.3-.117-.568-.29-.803-.517a2.667 2.667 0 0 1-.55-.869 3.466 3.466 0 0 1-.198-1.221c0-.469.066-.876.198-1.221.14-.352.323-.645.55-.88.235-.235.506-.411.814-.528.308-.117.634-.176.98-.176.454 0 .835.103 1.143.308.315.205.561.484.737.836l.011-.121c0-.132.007-.29.022-.473a7.2 7.2 0 0 1 .044-.44h.88a7.2 7.2 0 0 0-.044.44c-.007.191-.01.348-.01.473v4.312Zm-2.629-.616c.242 0 .462-.037.66-.11a1.4 1.4 0 0 0 .528-.363c.154-.161.271-.359.352-.594.088-.242.132-.524.132-.847 0-.653-.161-1.14-.484-1.463-.315-.323-.715-.484-1.199-.484a1.9 1.9 0 0 0-.682.121 1.498 1.498 0 0 0-.539.363 1.787 1.787 0 0 0-.352.616 2.474 2.474 0 0 0-.132.847c0 .323.044.605.132.847.088.235.21.433.363.594.154.154.334.271.54.352a1.9 1.9 0 0 0 .681.121Zm8.744.616a3.01 3.01 0 0 1-.297.187 3.44 3.44 0 0 1-.43.198 3.604 3.604 0 0 1-.571.143 3.542 3.542 0 0 1-.715.066c-.961 0-1.69-.26-2.19-.781-.498-.521-.747-1.25-.747-2.189 0-.462.066-.876.198-1.243.139-.367.33-.675.572-.924.242-.257.528-.451.858-.583.33-.139.689-.209 1.078-.209.41 0 .777.07 1.1.209.322.139.586.345.792.616.212.271.355.609.429 1.012.08.396.08.858 0 1.386h-4.026c.036.616.22 1.078.55 1.386.33.301.82.451 1.474.451.44 0 .817-.062 1.133-.187.315-.125.579-.26.792-.407v.869Zm-2.266-4.477c-.418 0-.778.128-1.078.385-.301.257-.492.645-.572 1.166h3.069c.029-.528-.092-.917-.363-1.166-.272-.257-.624-.385-1.056-.385Zm7.648 3.839a2.288 2.288 0 0 1-.737.902c-.316.22-.715.33-1.2.33-.344 0-.67-.059-.978-.176a2.357 2.357 0 0 1-.814-.55 2.754 2.754 0 0 1-.561-.924c-.14-.374-.21-.814-.21-1.32 0-.499.07-.931.21-1.298.139-.374.326-.682.56-.924.235-.249.507-.433.815-.55a2.66 2.66 0 0 1 .99-.187c.432 0 .806.092 1.122.275.315.176.568.429.759.759v-3.102h.968V436h-.847l-.077-1.122Zm-1.793.363c.249 0 .48-.04.693-.121.212-.088.396-.22.55-.396.161-.176.286-.396.374-.66.095-.264.143-.572.143-.924 0-.352-.048-.66-.143-.924a1.806 1.806 0 0 0-.374-.66 1.368 1.368 0 0 0-.55-.385 1.794 1.794 0 0 0-.693-.132c-.506 0-.92.18-1.243.539-.316.352-.473.873-.473 1.562 0 .697.161 1.221.484 1.573.322.352.733.528 1.232.528Zm4.164-3.036h2.64v.88h-2.64v-.88Zm5.57 1.364h-.506V436h-.968v-7.887h.968v4.631h.55l2.002-2.453h1.1l-2.343 2.816L79.698 436h-1.177l-2.013-2.431Zm7.22 1.342c-.066.132-.15.271-.253.418a1.915 1.915 0 0 1-.935.671c-.206.073-.448.11-.726.11-.513 0-.928-.143-1.243-.429-.316-.293-.473-.711-.473-1.254 0-.623.216-1.082.649-1.375.44-.293 1.063-.44 1.87-.44h1.067v-.473c0-.396-.103-.678-.308-.847-.206-.169-.558-.253-1.056-.253-.352 0-.686.059-1.001.176-.316.11-.598.238-.847.385v-.869c.205-.125.48-.246.825-.363a3.43 3.43 0 0 1 1.155-.187c.719 0 1.265.15 1.639.451.374.293.56.752.56 1.375v3.3c.008.081.012.165.012.253l.022.253c.007.073.014.136.022.187h-.88a5.068 5.068 0 0 1-.066-.429 6.573 6.573 0 0 1-.022-.495l-.011-.165Zm-1.705.33c.3 0 .557-.062.77-.187a1.91 1.91 0 0 0 .517-.429 1.91 1.91 0 0 0 .286-.484c.058-.161.088-.275.088-.341v-.418h-.968c-.58 0-1.001.084-1.265.253-.257.161-.385.407-.385.737a.87.87 0 0 0 .23.627c.155.161.397.242.727.242Zm5.46-4.125V436h-.968v-4.884h-.693v-.825h.693v-.143c0-.675.18-1.199.539-1.573.36-.374.85-.561 1.474-.561.271 0 .513.033.726.099v.88a1.307 1.307 0 0 0-.286-.077 2.276 2.276 0 0 0-.396-.033c-.338 0-.605.103-.803.308-.19.205-.286.524-.286.957v.143h1.65v.825h-1.65Zm4.258 2.453h-.506V436h-.968v-7.887h.968v4.631h.55l2.002-2.453h1.1l-2.343 2.816L94.93 436h-1.177l-2.013-2.431Zm7.22 1.342a3.467 3.467 0 0 1-.254.418 1.912 1.912 0 0 1-.935.671c-.205.073-.447.11-.726.11-.513 0-.927-.143-1.243-.429-.315-.293-.473-.711-.473-1.254 0-.623.217-1.082.65-1.375.44-.293 1.063-.44 1.87-.44h1.066v-.473c0-.396-.102-.678-.308-.847-.205-.169-.557-.253-1.056-.253-.352 0-.685.059-1 .176a4.74 4.74 0 0 0-.848.385v-.869c.206-.125.48-.246.825-.363a3.43 3.43 0 0 1 1.155-.187c.719 0 1.265.15 1.64.451.373.293.56.752.56 1.375v3.3c.008.081.011.165.011.253l.022.253.022.187h-.88a5.068 5.068 0 0 1-.066-.429 6.626 6.626 0 0 1-.022-.495l-.01-.165Zm-1.706.33c.3 0 .558-.062.77-.187a1.91 1.91 0 0 0 .517-.429 1.88 1.88 0 0 0 .286-.484c.059-.161.088-.275.088-.341v-.418h-.968c-.58 0-1 .084-1.265.253-.256.161-.385.407-.385.737a.87.87 0 0 0 .231.627c.154.161.396.242.726.242Zm4.679.825a.7.7 0 0 1-.517-.198.694.694 0 0 1-.198-.495c0-.205.066-.374.198-.506a.7.7 0 0 1 .517-.198c.206 0 .374.066.506.198a.686.686 0 0 1 .198.506.694.694 0 0 1-.198.495.684.684 0 0 1-.506.198ZM50.882 449H49.32l-1.958-5.709h1.045l1.738 5.192 1.727-5.192h.968L50.882 449Zm3.35-6.545a.64.64 0 0 1-.472-.176.635.635 0 0 1-.176-.451.617.617 0 0 1 .649-.638.57.57 0 0 1 .45.187.66.66 0 0 1 .166.451.659.659 0 0 1-.165.451.59.59 0 0 1-.451.176Zm.474.836V449h-.968v-5.709h.968Zm6.12 5.225a3.01 3.01 0 0 1-.296.187 3.44 3.44 0 0 1-.43.198 3.604 3.604 0 0 1-.571.143 3.542 3.542 0 0 1-.715.066c-.961 0-1.69-.26-2.19-.781-.498-.521-.747-1.25-.747-2.189 0-.462.066-.876.198-1.243.139-.367.33-.675.572-.924.242-.257.528-.451.858-.583.33-.139.689-.209 1.078-.209.41 0 .777.07 1.1.209.322.139.586.345.792.616.212.271.355.609.429 1.012.08.396.08.858 0 1.386h-4.026c.036.616.22 1.078.55 1.386.33.301.821.451 1.474.451.44 0 .817-.062 1.133-.187.315-.125.579-.26.792-.407v.869Zm-2.265-4.477c-.418 0-.778.128-1.078.385-.301.257-.492.645-.572 1.166h3.069c.029-.528-.092-.917-.363-1.166-.272-.257-.624-.385-1.056-.385ZM68.33 449h-1.484l-1.21-4.411L64.394 449h-1.441l-1.298-5.709h1.023l1.089 4.983 1.386-4.983h1.089l1.353 4.928 1.078-4.928h.957L68.332 449Zm6.912-.484a3.01 3.01 0 0 1-.297.187 3.44 3.44 0 0 1-.43.198 3.604 3.604 0 0 1-.571.143 3.542 3.542 0 0 1-.715.066c-.961 0-1.69-.26-2.19-.781-.498-.521-.747-1.25-.747-2.189 0-.462.066-.876.198-1.243.139-.367.33-.675.572-.924.242-.257.528-.451.858-.583.33-.139.689-.209 1.078-.209.41 0 .777.07 1.1.209.322.139.586.345.792.616.212.271.355.609.429 1.012.08.396.08.858 0 1.386h-4.026c.036.616.22 1.078.55 1.386.33.301.821.451 1.474.451.44 0 .817-.062 1.133-.187.315-.125.579-.26.792-.407v.869Zm-2.266-4.477c-.418 0-.778.128-1.078.385-.301.257-.492.645-.572 1.166h3.069c.029-.528-.092-.917-.363-1.166-.272-.257-.624-.385-1.056-.385Zm6.383.22a2.98 2.98 0 0 0-1.122.319 1.59 1.59 0 0 0-.737.792V449h-.968v-5.709h.847l.099 1.243h.022c.161-.337.392-.631.693-.88.308-.257.696-.414 1.166-.473v1.078Z"/>
    <rect width="121" height="42" x="3" y="500" fill="#fff" stroke="#5282FF" stroke-width="2" rx="4"/>
    <path fill="#262626" d="M25.514 518h-.968v-5.709h.847l.099 1.023h.022c.154-.323.385-.59.693-.803.308-.22.711-.33 1.21-.33.44 0 .8.106 1.078.319.286.205.477.517.572.935.161-.389.407-.693.737-.913.337-.227.744-.341 1.22-.341.529 0 .947.15 1.255.451.308.293.462.748.462 1.364V518h-.98v-3.883c0-.374-.09-.645-.274-.814-.183-.176-.433-.264-.748-.264-.213 0-.4.033-.561.099a1.334 1.334 0 0 0-.43.253c-.124.11-.237.238-.34.385a4.957 4.957 0 0 0-.286.462V518h-.968v-3.993c0-.367-.092-.62-.275-.759-.183-.139-.433-.209-.748-.209-.205 0-.389.026-.55.077a1.547 1.547 0 0 0-.44.22 1.733 1.733 0 0 0-.341.352 3.267 3.267 0 0 0-.286.44V518Zm12.087-1.089c-.066.132-.15.271-.253.418a1.912 1.912 0 0 1-.935.671c-.205.073-.447.11-.726.11-.514 0-.928-.143-1.243-.429-.316-.293-.473-.711-.473-1.254 0-.623.216-1.082.649-1.375.44-.293 1.063-.44 1.87-.44h1.067v-.473c0-.396-.103-.678-.308-.847-.206-.169-.558-.253-1.056-.253-.352 0-.686.059-1.001.176a4.74 4.74 0 0 0-.847.385v-.869c.205-.125.48-.246.825-.363a3.43 3.43 0 0 1 1.155-.187c.718 0 1.265.15 1.639.451.374.293.56.752.56 1.375v3.3c.008.081.012.165.012.253l.022.253c.007.073.014.136.022.187h-.88a5.068 5.068 0 0 1-.066-.429 6.626 6.626 0 0 1-.022-.495l-.011-.165Zm-1.705.33c.3 0 .557-.062.77-.187a1.91 1.91 0 0 0 .517-.429 1.91 1.91 0 0 0 .286-.484c.059-.161.088-.275.088-.341v-.418h-.968c-.58 0-1.001.084-1.265.253-.257.161-.385.407-.385.737a.87.87 0 0 0 .23.627c.155.161.397.242.727.242Zm6.857-4.202c-.44 0-.8.103-1.078.308a2.252 2.252 0 0 0-.66.77V518h-.968v-5.709h.913l.033 1.023h.022c.154-.33.396-.601.726-.814.33-.213.748-.319 1.254-.319.565 0 1.012.15 1.342.451.337.293.506.748.506 1.364V518h-.968v-3.905c0-.396-.1-.671-.297-.825-.198-.154-.473-.231-.825-.231Zm6.965 3.872c-.066.132-.15.271-.253.418a1.912 1.912 0 0 1-.935.671c-.205.073-.447.11-.726.11-.513 0-.928-.143-1.243-.429-.315-.293-.473-.711-.473-1.254 0-.623.216-1.082.649-1.375.44-.293 1.063-.44 1.87-.44h1.067v-.473c0-.396-.103-.678-.308-.847-.205-.169-.557-.253-1.056-.253-.352 0-.686.059-1.001.176a4.74 4.74 0 0 0-.847.385v-.869c.205-.125.48-.246.825-.363a3.43 3.43 0 0 1 1.155-.187c.719 0 1.265.15 1.639.451.374.293.561.752.561 1.375v3.3c.007.081.011.165.011.253l.022.253c.007.073.015.136.022.187h-.88a5.068 5.068 0 0 1-.066-.429 6.626 6.626 0 0 1-.022-.495l-.011-.165Zm-1.705.33c.3 0 .557-.062.77-.187a1.91 1.91 0 0 0 .517-.429 1.91 1.91 0 0 0 .286-.484c.059-.161.088-.275.088-.341v-.418h-.968c-.58 0-1.001.084-1.265.253-.257.161-.385.407-.385.737a.87.87 0 0 0 .231.627c.154.161.396.242.726.242Zm9.057.275c0 .367-.055.7-.165 1.001a1.808 1.808 0 0 1-.506.781 2.307 2.307 0 0 1-.89.495c-.36.117-.797.176-1.31.176-.279 0-.524-.015-.737-.044a3.34 3.34 0 0 1-.56-.121 2.008 2.008 0 0 1-.397-.154 1.84 1.84 0 0 1-.275-.154v-.869c.117.066.238.125.363.176a3.215 3.215 0 0 0 .946.253c.198.029.422.044.671.044.704 0 1.195-.132 1.474-.396.279-.264.418-.656.418-1.177v-.88a2.076 2.076 0 0 1-.715.814c-.3.205-.675.308-1.122.308-.337 0-.66-.059-.968-.176-.3-.117-.568-.29-.803-.517a2.667 2.667 0 0 1-.55-.869 3.466 3.466 0 0 1-.198-1.221c0-.469.066-.876.198-1.221.14-.352.323-.645.55-.88.235-.235.506-.411.814-.528.308-.117.634-.176.98-.176.454 0 .835.103 1.143.308.315.205.561.484.737.836l.011-.121c0-.132.007-.29.022-.473a7.2 7.2 0 0 1 .044-.44h.88a7.2 7.2 0 0 0-.044.44c-.007.191-.01.348-.01.473v4.312Zm-2.629-.616c.242 0 .462-.037.66-.11a1.4 1.4 0 0 0 .528-.363c.154-.161.271-.359.352-.594.088-.242.132-.524.132-.847 0-.653-.161-1.14-.484-1.463-.315-.323-.715-.484-1.199-.484a1.9 1.9 0 0 0-.682.121 1.498 1.498 0 0 0-.539.363 1.787 1.787 0 0 0-.352.616 2.474 2.474 0 0 0-.132.847c0 .323.044.605.132.847.088.235.21.433.363.594.154.154.334.271.54.352a1.9 1.9 0 0 0 .681.121Zm8.744.616a3.01 3.01 0 0 1-.297.187 3.44 3.44 0 0 1-.43.198 3.604 3.604 0 0 1-.571.143 3.542 3.542 0 0 1-.715.066c-.961 0-1.69-.26-2.19-.781-.498-.521-.747-1.25-.747-2.189 0-.462.066-.876.198-1.243.139-.367.33-.675.572-.924.242-.257.528-.451.858-.583.33-.139.689-.209 1.078-.209.41 0 .777.07 1.1.209.322.139.586.345.792.616.212.271.355.609.429 1.012.08.396.08.858 0 1.386h-4.026c.036.616.22 1.078.55 1.386.33.301.82.451 1.474.451.44 0 .817-.062 1.133-.187.315-.125.579-.26.792-.407v.869Zm-2.266-4.477c-.418 0-.778.128-1.078.385-.301.257-.492.645-.572 1.166h3.069c.029-.528-.092-.917-.363-1.166-.272-.257-.624-.385-1.056-.385Zm7.648 3.839a2.288 2.288 0 0 1-.737.902c-.316.22-.715.33-1.2.33-.344 0-.67-.059-.978-.176a2.357 2.357 0 0 1-.814-.55 2.754 2.754 0 0 1-.561-.924c-.14-.374-.21-.814-.21-1.32 0-.499.07-.931.21-1.298.139-.374.326-.682.56-.924.235-.249.507-.433.815-.55a2.66 2.66 0 0 1 .99-.187c.432 0 .806.092 1.122.275.315.176.568.429.759.759v-3.102h.968V518h-.847l-.077-1.122Zm-1.793.363c.249 0 .48-.04.693-.121.212-.088.396-.22.55-.396.161-.176.286-.396.374-.66.095-.264.143-.572.143-.924 0-.352-.048-.66-.143-.924a1.806 1.806 0 0 0-.374-.66 1.368 1.368 0 0 0-.55-.385 1.794 1.794 0 0 0-.693-.132c-.506 0-.92.18-1.243.539-.316.352-.473.873-.473 1.562 0 .697.161 1.221.484 1.573.322.352.733.528 1.232.528Zm4.164-3.036h2.64v.88h-2.64v-.88Zm5.57 1.364h-.506V518h-.968v-7.887h.968v4.631h.55l2.002-2.453h1.1l-2.343 2.816L79.698 518h-1.177l-2.013-2.431Zm7.22 1.342c-.066.132-.15.271-.253.418a1.915 1.915 0 0 1-.935.671c-.206.073-.448.11-.726.11-.513 0-.928-.143-1.243-.429-.316-.293-.473-.711-.473-1.254 0-.623.216-1.082.649-1.375.44-.293 1.063-.44 1.87-.44h1.067v-.473c0-.396-.103-.678-.308-.847-.206-.169-.558-.253-1.056-.253-.352 0-.686.059-1.001.176-.316.11-.598.238-.847.385v-.869c.205-.125.48-.246.825-.363a3.43 3.43 0 0 1 1.155-.187c.719 0 1.265.15 1.639.451.374.293.56.752.56 1.375v3.3c.008.081.012.165.012.253l.022.253c.007.073.014.136.022.187h-.88a5.068 5.068 0 0 1-.066-.429 6.573 6.573 0 0 1-.022-.495l-.011-.165Zm-1.705.33c.3 0 .557-.062.77-.187a1.91 1.91 0 0 0 .517-.429 1.91 1.91 0 0 0 .286-.484c.058-.161.088-.275.088-.341v-.418h-.968c-.58 0-1.001.084-1.265.253-.257.161-.385.407-.385.737a.87.87 0 0 0 .23.627c.155.161.397.242.727.242Zm5.46-4.125V518h-.968v-4.884h-.693v-.825h.693v-.143c0-.675.18-1.199.539-1.573.36-.374.85-.561 1.474-.561.271 0 .513.033.726.099v.88a1.307 1.307 0 0 0-.286-.077 2.276 2.276 0 0 0-.396-.033c-.338 0-.605.103-.803.308-.19.205-.286.524-.286.957v.143h1.65v.825h-1.65Zm4.258 2.453h-.506V518h-.968v-7.887h.968v4.631h.55l2.002-2.453h1.1l-2.343 2.816L94.93 518h-1.177l-2.013-2.431Zm7.22 1.342a3.467 3.467 0 0 1-.254.418 1.912 1.912 0 0 1-.935.671c-.205.073-.447.11-.726.11-.513 0-.927-.143-1.243-.429-.315-.293-.473-.711-.473-1.254 0-.623.217-1.082.65-1.375.44-.293 1.063-.44 1.87-.44h1.066v-.473c0-.396-.102-.678-.308-.847-.205-.169-.557-.253-1.056-.253-.352 0-.685.059-1 .176a4.74 4.74 0 0 0-.848.385v-.869c.206-.125.48-.246.825-.363a3.43 3.43 0 0 1 1.155-.187c.719 0 1.265.15 1.64.451.373.293.56.752.56 1.375v3.3c.008.081.011.165.011.253l.022.253.022.187h-.88a5.068 5.068 0 0 1-.066-.429 6.626 6.626 0 0 1-.022-.495l-.01-.165Zm-1.706.33c.3 0 .558-.062.77-.187a1.91 1.91 0 0 0 .517-.429 1.88 1.88 0 0 0 .286-.484c.059-.161.088-.275.088-.341v-.418h-.968c-.58 0-1 .084-1.265.253-.256.161-.385.407-.385.737a.87.87 0 0 0 .231.627c.154.161.396.242.726.242Zm4.679.825a.7.7 0 0 1-.517-.198.694.694 0 0 1-.198-.495c0-.205.066-.374.198-.506a.7.7 0 0 1 .517-.198c.206 0 .374.066.506.198a.686.686 0 0 1 .198.506.694.694 0 0 1-.198.495.684.684 0 0 1-.506.198Zm-52.039 11.845c-.066.132-.15.271-.253.418a1.915 1.915 0 0 1-.935.671c-.205.073-.447.11-.726.11-.513 0-.927-.143-1.243-.429-.315-.293-.473-.711-.473-1.254 0-.623.217-1.082.65-1.375.44-.293 1.063-.44 1.87-.44h1.066v-.473c0-.396-.102-.678-.308-.847-.205-.169-.557-.253-1.056-.253-.352 0-.685.059-1 .176-.316.11-.598.238-.848.385v-.869c.206-.125.48-.246.825-.363a3.43 3.43 0 0 1 1.155-.187c.719 0 1.265.15 1.64.451.373.293.56.752.56 1.375v3.3c.008.081.011.165.011.253l.022.253.022.187h-.88a5.068 5.068 0 0 1-.066-.429 6.573 6.573 0 0 1-.022-.495l-.01-.165Zm-1.705.33c.3 0 .558-.062.77-.187.213-.125.385-.268.517-.429a1.88 1.88 0 0 0 .286-.484c.059-.161.088-.275.088-.341v-.418h-.968c-.58 0-1 .084-1.265.253-.256.161-.385.407-.385.737a.87.87 0 0 0 .231.627c.154.161.396.242.726.242Zm7.814-.264a2.045 2.045 0 0 1-.715.814c-.315.213-.73.319-1.243.319-.528 0-.957-.147-1.287-.44-.322-.301-.484-.763-.484-1.386v-3.993h.98v3.993c0 .191.025.348.076.473a.813.813 0 0 0 .561.44 2 2 0 0 0 .43.044c.425 0 .766-.095 1.022-.286.257-.191.477-.451.66-.781v-3.883h.968V531h-.858l-.088-1.023h-.022Zm6.649-.099a2.288 2.288 0 0 1-.737.902c-.315.22-.715.33-1.199.33-.345 0-.671-.059-.979-.176a2.357 2.357 0 0 1-.814-.55 2.754 2.754 0 0 1-.561-.924c-.14-.374-.209-.814-.209-1.32 0-.499.07-.931.209-1.298.14-.374.326-.682.561-.924a2.17 2.17 0 0 1 .814-.55 2.66 2.66 0 0 1 .99-.187c.433 0 .807.092 1.122.275.315.176.568.429.759.759v-3.102h.968V531h-.847l-.077-1.122Zm-1.793.363c.25 0 .48-.04.693-.121.213-.088.396-.22.55-.396.161-.176.286-.396.374-.66.095-.264.143-.572.143-.924 0-.352-.048-.66-.143-.924a1.806 1.806 0 0 0-.374-.66 1.368 1.368 0 0 0-.55-.385 1.794 1.794 0 0 0-.693-.132c-.506 0-.92.18-1.243.539-.315.352-.473.873-.473 1.562 0 .697.161 1.221.484 1.573.323.352.733.528 1.232.528Zm4.792-5.786a.64.64 0 0 1-.473-.176.635.635 0 0 1-.176-.451.617.617 0 0 1 .649-.638.57.57 0 0 1 .45.187.66.66 0 0 1 .166.451.659.659 0 0 1-.165.451.59.59 0 0 1-.451.176Zm.473.836V531h-.968v-5.709h.968Zm4.372 5.588a1.768 1.768 0 0 1-.451.165 2.49 2.49 0 0 1-.583.066c-.279 0-.517-.04-.715-.121a1.384 1.384 0 0 1-.473-.319 1.352 1.352 0 0 1-.275-.462 1.918 1.918 0 0 1-.077-.539v-3.553h-.682v-.825h.682v-1.199h.968v1.199h1.66v.825h-1.66v3.432c0 .242.058.418.176.528.124.11.34.165.649.165.286 0 .546-.081.78-.242v.88Zm3.577.231a2.96 2.96 0 0 1-1.089-.198 2.54 2.54 0 0 1-.88-.572 2.787 2.787 0 0 1-.572-.935 3.545 3.545 0 0 1-.209-1.265c0-.469.07-.887.209-1.254.14-.374.33-.686.572-.935.25-.249.543-.44.88-.572a2.96 2.96 0 0 1 1.089-.198c.396 0 .763.066 1.1.198.337.132.627.323.869.572.25.249.444.561.583.935.147.367.22.785.22 1.254 0 .477-.073.898-.22 1.265-.14.367-.334.678-.583.935-.242.249-.532.44-.869.572a2.993 2.993 0 0 1-1.1.198Zm0-.869c.257 0 .491-.04.704-.121.22-.088.41-.216.572-.385.161-.176.286-.396.374-.66.088-.264.132-.576.132-.935 0-.359-.044-.671-.132-.935a1.703 1.703 0 0 0-.374-.649 1.442 1.442 0 0 0-.572-.385 1.824 1.824 0 0 0-.704-.132c-.257 0-.491.044-.704.132-.213.081-.4.209-.561.385a1.788 1.788 0 0 0-.363.649 2.966 2.966 0 0 0-.132.935c0 .359.044.671.132.935.088.264.209.484.363.66.161.169.348.297.561.385.213.081.447.121.704.121Zm6.779-3.982a2.98 2.98 0 0 0-1.122.319 1.59 1.59 0 0 0-.737.792V531h-.968v-5.709h.847l.099 1.243h.022c.161-.337.392-.631.693-.88.308-.257.697-.414 1.166-.473v1.078Z"/>
    <rect width="121" height="42" x="146" y="418" fill="#fff" stroke="#5282FF" stroke-width="2" rx="4"/>
    <path fill="#262626" d="M177.833 442.889h-.968v-5.709h.847l.099 1.023h.022c.154-.323.385-.59.693-.803.308-.22.711-.33 1.21-.33.44 0 .799.106 1.078.319.286.205.476.517.572.935.161-.389.407-.693.737-.913.337-.227.744-.341 1.221-.341.528 0 .946.15 1.254.451.308.293.462.748.462 1.364v4.004h-.979v-3.883c0-.374-.092-.645-.275-.814-.184-.176-.433-.264-.748-.264-.213 0-.4.033-.561.099a1.32 1.32 0 0 0-.429.253c-.125.11-.239.238-.341.385a4.894 4.894 0 0 0-.286.462v3.762h-.968v-3.993c0-.367-.092-.62-.275-.759-.184-.139-.433-.209-.748-.209-.206 0-.389.026-.55.077a1.538 1.538 0 0 0-.44.22 1.706 1.706 0 0 0-.341.352 3.238 3.238 0 0 0-.286.44v3.872Zm12.835-1.122a2.291 2.291 0 0 1-.737.902c-.316.22-.715.33-1.199.33-.345 0-.671-.059-.979-.176a2.35 2.35 0 0 1-.814-.55 2.742 2.742 0 0 1-.561-.924c-.14-.374-.209-.814-.209-1.32 0-.499.069-.931.209-1.298a2.61 2.61 0 0 1 .561-.924c.234-.249.506-.433.814-.55a2.66 2.66 0 0 1 .99-.187c.432 0 .806.092 1.122.275.315.176.568.429.759.759v-3.102h.968v7.887h-.847l-.077-1.122Zm-1.793.363c.249 0 .48-.04.693-.121.212-.088.396-.22.55-.396.161-.176.286-.396.374-.66.095-.264.143-.572.143-.924 0-.352-.048-.66-.143-.924a1.812 1.812 0 0 0-.374-.66 1.373 1.373 0 0 0-.55-.385 1.797 1.797 0 0 0-.693-.132c-.506 0-.921.18-1.243.539-.316.352-.473.873-.473 1.562 0 .697.161 1.221.484 1.573.322.352.733.528 1.232.528Zm9.719-2.101c0 .506-.069.946-.209 1.32a2.742 2.742 0 0 1-.561.924 2.35 2.35 0 0 1-.814.55 2.7 2.7 0 0 1-.968.176c-.44 0-.825-.103-1.155-.308a2.265 2.265 0 0 1-.77-.88l-.033 1.078h-.913v-7.887h.968l-.022 3.289a2.35 2.35 0 0 1 .77-.891c.323-.22.723-.33 1.199-.33.33 0 .646.062.946.187.308.117.576.301.803.55.235.242.418.55.55.924.14.367.209.799.209 1.298Zm-2.695 2.101c.506 0 .913-.172 1.221-.517.316-.352.473-.88.473-1.584 0-.689-.157-1.21-.473-1.562-.308-.359-.715-.539-1.221-.539a1.88 1.88 0 0 0-.704.132 1.58 1.58 0 0 0-.561.396 1.928 1.928 0 0 0-.374.649 2.925 2.925 0 0 0-.132.924c0 .352.044.66.132.924.096.264.22.484.374.66.162.176.349.308.561.396.22.081.455.121.704.121Zm4.235.825a.699.699 0 0 1-.517-.198.694.694 0 0 1-.198-.495c0-.205.066-.374.198-.506a.699.699 0 0 1 .517-.198c.205 0 .374.066.506.198a.686.686 0 0 1 .198.506.694.694 0 0 1-.198.495.686.686 0 0 1-.506.198Zm5.448-1.155c-.066.132-.15.271-.253.418a1.923 1.923 0 0 1-.935.671c-.205.073-.447.11-.726.11-.513 0-.928-.143-1.243-.429-.315-.293-.473-.711-.473-1.254 0-.623.216-1.082.649-1.375.44-.293 1.063-.44 1.87-.44h1.067v-.473c0-.396-.103-.678-.308-.847-.205-.169-.557-.253-1.056-.253-.352 0-.686.059-1.001.176-.315.11-.598.238-.847.385v-.869c.205-.125.48-.246.825-.363a3.43 3.43 0 0 1 1.155-.187c.719 0 1.265.15 1.639.451.374.293.561.752.561 1.375v3.3c.007.081.011.165.011.253l.022.253c.007.073.015.136.022.187h-.88a5.068 5.068 0 0 1-.066-.429 6.417 6.417 0 0 1-.022-.495l-.011-.165Zm-1.705.33c.301 0 .557-.062.77-.187.213-.125.385-.268.517-.429a1.91 1.91 0 0 0 .286-.484c.059-.161.088-.275.088-.341v-.418h-.968c-.579 0-1.001.084-1.265.253-.257.161-.385.407-.385.737a.87.87 0 0 0 .231.627c.154.161.396.242.726.242Zm7.814-.264a2.043 2.043 0 0 1-.715.814c-.315.213-.73.319-1.243.319-.528 0-.957-.147-1.287-.44-.323-.301-.484-.763-.484-1.386v-3.993h.979v3.993c0 .191.026.348.077.473a.82.82 0 0 0 .561.44c.132.029.275.044.429.044.425 0 .766-.095 1.023-.286.257-.191.477-.451.66-.781v-3.883h.968v5.709h-.858l-.088-1.023h-.022Zm6.649-.099a2.291 2.291 0 0 1-.737.902c-.316.22-.715.33-1.199.33-.345 0-.671-.059-.979-.176a2.35 2.35 0 0 1-.814-.55 2.742 2.742 0 0 1-.561-.924c-.14-.374-.209-.814-.209-1.32 0-.499.069-.931.209-1.298a2.61 2.61 0 0 1 .561-.924c.234-.249.506-.433.814-.55a2.66 2.66 0 0 1 .99-.187c.432 0 .806.092 1.122.275.315.176.568.429.759.759v-3.102h.968v7.887h-.847l-.077-1.122Zm-1.793.363c.249 0 .48-.04.693-.121.212-.088.396-.22.55-.396.161-.176.286-.396.374-.66.095-.264.143-.572.143-.924 0-.352-.048-.66-.143-.924a1.812 1.812 0 0 0-.374-.66 1.373 1.373 0 0 0-.55-.385 1.797 1.797 0 0 0-.693-.132c-.506 0-.921.18-1.243.539-.316.352-.473.873-.473 1.562 0 .697.161 1.221.484 1.573.322.352.733.528 1.232.528Zm4.791-5.786a.642.642 0 0 1-.473-.176.636.636 0 0 1-.176-.451.618.618 0 0 1 .649-.638c.191 0 .341.062.451.187.11.125.165.275.165.451a.659.659 0 0 1-.165.451.589.589 0 0 1-.451.176Zm.473.836v5.709h-.968v-5.709h.968Zm4.372 5.588a1.755 1.755 0 0 1-.451.165 2.485 2.485 0 0 1-.583.066 1.89 1.89 0 0 1-.715-.121 1.393 1.393 0 0 1-.473-.319 1.367 1.367 0 0 1-.275-.462 1.93 1.93 0 0 1-.077-.539v-3.553h-.682v-.825h.682v-1.199h.968v1.199h1.661v.825h-1.661v3.432c0 .242.059.418.176.528.125.11.341.165.649.165.286 0 .547-.081.781-.242v.88Zm3.578.231a2.96 2.96 0 0 1-1.089-.198 2.532 2.532 0 0 1-.88-.572 2.782 2.782 0 0 1-.572-.935 3.532 3.532 0 0 1-.209-1.265 3.5 3.5 0 0 1 .209-1.254c.139-.374.33-.686.572-.935.249-.249.542-.44.88-.572a2.96 2.96 0 0 1 1.089-.198c.396 0 .762.066 1.1.198.337.132.627.323.869.572.249.249.443.561.583.935.146.367.22.785.22 1.254a3.4 3.4 0 0 1-.22 1.265c-.14.367-.334.678-.583.935-.242.249-.532.44-.869.572a2.995 2.995 0 0 1-1.1.198Zm0-.869c.256 0 .491-.04.704-.121.22-.088.41-.216.572-.385.161-.176.286-.396.374-.66.088-.264.132-.576.132-.935 0-.359-.044-.671-.132-.935a1.707 1.707 0 0 0-.374-.649 1.446 1.446 0 0 0-.572-.385 1.828 1.828 0 0 0-.704-.132 1.82 1.82 0 0 0-.704.132c-.213.081-.4.209-.561.385a1.788 1.788 0 0 0-.363.649 2.966 2.966 0 0 0-.132.935c0 .359.044.671.132.935.088.264.209.484.363.66.161.169.348.297.561.385.212.081.447.121.704.121Zm6.778-3.982c-.41.037-.784.143-1.122.319-.33.169-.575.433-.737.792v3.63h-.968v-5.709h.847l.099 1.243h.022c.162-.337.393-.631.693-.88.308-.257.697-.414 1.166-.473v1.078Z"/>
    <rect width="121" height="42" x="146" y="336" fill="#fff" stroke="#5282FF" stroke-width="2" rx="4"/>
    <path fill="#262626" d="M179.627 360.889h-.968v-5.709h.847l.099 1.023h.022c.154-.323.385-.59.693-.803.308-.22.711-.33 1.21-.33.44 0 .799.106 1.078.319.286.205.476.517.572.935.161-.389.407-.693.737-.913.337-.227.744-.341 1.221-.341.528 0 .946.15 1.254.451.308.293.462.748.462 1.364v4.004h-.979v-3.883c0-.374-.092-.645-.275-.814-.184-.176-.433-.264-.748-.264-.213 0-.4.033-.561.099a1.32 1.32 0 0 0-.429.253c-.125.11-.239.238-.341.385a4.894 4.894 0 0 0-.286.462v3.762h-.968v-3.993c0-.367-.092-.62-.275-.759-.184-.139-.433-.209-.748-.209-.206 0-.389.026-.55.077a1.538 1.538 0 0 0-.44.22 1.706 1.706 0 0 0-.341.352 3.238 3.238 0 0 0-.286.44v3.872Zm12.835-1.122a2.291 2.291 0 0 1-.737.902c-.316.22-.715.33-1.199.33-.345 0-.671-.059-.979-.176a2.35 2.35 0 0 1-.814-.55 2.742 2.742 0 0 1-.561-.924c-.14-.374-.209-.814-.209-1.32 0-.499.069-.931.209-1.298a2.61 2.61 0 0 1 .561-.924c.234-.249.506-.433.814-.55a2.66 2.66 0 0 1 .99-.187c.432 0 .806.092 1.122.275.315.176.568.429.759.759v-3.102h.968v7.887h-.847l-.077-1.122Zm-1.793.363c.249 0 .48-.04.693-.121.212-.088.396-.22.55-.396.161-.176.286-.396.374-.66.095-.264.143-.572.143-.924 0-.352-.048-.66-.143-.924a1.812 1.812 0 0 0-.374-.66 1.373 1.373 0 0 0-.55-.385 1.797 1.797 0 0 0-.693-.132c-.506 0-.921.18-1.243.539-.316.352-.473.873-.473 1.562 0 .697.161 1.221.484 1.573.322.352.733.528 1.232.528Zm9.719-2.101c0 .506-.069.946-.209 1.32a2.742 2.742 0 0 1-.561.924 2.35 2.35 0 0 1-.814.55 2.7 2.7 0 0 1-.968.176c-.44 0-.825-.103-1.155-.308a2.265 2.265 0 0 1-.77-.88l-.033 1.078h-.913v-7.887h.968l-.022 3.289a2.35 2.35 0 0 1 .77-.891c.323-.22.723-.33 1.199-.33.33 0 .646.062.946.187.308.117.576.301.803.55.235.242.418.55.55.924.14.367.209.799.209 1.298Zm-2.695 2.101c.506 0 .913-.172 1.221-.517.316-.352.473-.88.473-1.584 0-.689-.157-1.21-.473-1.562-.308-.359-.715-.539-1.221-.539a1.88 1.88 0 0 0-.704.132 1.58 1.58 0 0 0-.561.396 1.928 1.928 0 0 0-.374.649 2.925 2.925 0 0 0-.132.924c0 .352.044.66.132.924.096.264.22.484.374.66.162.176.349.308.561.396.22.081.455.121.704.121Zm4.235.825a.699.699 0 0 1-.517-.198.694.694 0 0 1-.198-.495c0-.205.066-.374.198-.506a.699.699 0 0 1 .517-.198c.205 0 .374.066.506.198a.686.686 0 0 1 .198.506.694.694 0 0 1-.198.495.686.686 0 0 1-.506.198Zm4.34-.066h-1.562l-1.958-5.709h1.045l1.738 5.192 1.727-5.192h.968l-1.958 5.709Zm3.351-6.545a.64.64 0 0 1-.473-.176.632.632 0 0 1-.176-.451c0-.176.058-.326.176-.451a.617.617 0 0 1 .473-.187.57.57 0 0 1 .451.187c.11.125.165.275.165.451a.659.659 0 0 1-.165.451.59.59 0 0 1-.451.176Zm.473.836v5.709h-.968v-5.709h.968Zm6.12 5.225c-.08.059-.179.121-.297.187a3.4 3.4 0 0 1-.429.198 3.59 3.59 0 0 1-.572.143 3.537 3.537 0 0 1-.715.066c-.96 0-1.69-.26-2.189-.781-.498-.521-.748-1.25-.748-2.189 0-.462.066-.876.198-1.243.14-.367.33-.675.572-.924.242-.257.528-.451.858-.583.33-.139.69-.209 1.078-.209.411 0 .778.07 1.1.209.323.139.587.345.792.616.213.271.356.609.429 1.012.081.396.081.858 0 1.386h-4.026c.037.616.22 1.078.55 1.386.33.301.822.451 1.474.451.44 0 .818-.062 1.133-.187.316-.125.58-.26.792-.407v.869Zm-2.266-4.477c-.418 0-.777.128-1.078.385-.3.257-.491.645-.572 1.166h3.069c.03-.528-.091-.917-.363-1.166-.271-.257-.623-.385-1.056-.385Zm9.772 4.961h-1.485l-1.21-4.411-1.243 4.411h-1.441l-1.298-5.709h1.023l1.089 4.983 1.386-4.983h1.089l1.353 4.928 1.078-4.928h.957l-1.298 5.709Zm6.911-.484a3.083 3.083 0 0 1-.726.385c-.169.059-.36.106-.572.143a3.544 3.544 0 0 1-.715.066c-.961 0-1.691-.26-2.189-.781-.499-.521-.748-1.25-.748-2.189 0-.462.066-.876.198-1.243.139-.367.33-.675.572-.924.242-.257.528-.451.858-.583.33-.139.689-.209 1.078-.209.41 0 .777.07 1.1.209.322.139.586.345.792.616.212.271.355.609.429 1.012.08.396.08.858 0 1.386h-4.026c.036.616.22 1.078.55 1.386.33.301.821.451 1.474.451.44 0 .817-.062 1.133-.187.315-.125.579-.26.792-.407v.869Zm-2.266-4.477c-.418 0-.778.128-1.078.385-.301.257-.492.645-.572 1.166h3.069c.029-.528-.092-.917-.363-1.166-.272-.257-.624-.385-1.056-.385Zm6.383.22a2.974 2.974 0 0 0-1.122.319c-.33.169-.576.433-.737.792v3.63h-.968v-5.709h.847l.099 1.243h.022c.161-.337.392-.631.693-.88.308-.257.696-.414 1.166-.473v1.078Z"/>
    <rect width="121" height="42" x="289" y="172" fill="#fff" stroke="#5282FF" stroke-width="2" rx="4"/>
    <path fill="#262626" d="M336.882 196.889h-1.562l-1.958-5.709h1.045l1.738 5.192 1.727-5.192h.968l-1.958 5.709Zm3.351-6.545a.64.64 0 0 1-.473-.176.636.636 0 0 1-.176-.451c0-.176.059-.326.176-.451a.617.617 0 0 1 .473-.187c.191 0 .341.062.451.187.11.125.165.275.165.451a.659.659 0 0 1-.165.451.589.589 0 0 1-.451.176Zm.473.836v5.709h-.968v-5.709h.968Zm6.121 5.225a3.083 3.083 0 0 1-.726.385c-.169.059-.36.106-.572.143a3.544 3.544 0 0 1-.715.066c-.961 0-1.691-.26-2.189-.781-.499-.521-.748-1.25-.748-2.189 0-.462.066-.876.198-1.243.139-.367.33-.675.572-.924.242-.257.528-.451.858-.583.33-.139.689-.209 1.078-.209.41 0 .777.07 1.1.209.322.139.586.345.792.616.212.271.355.609.429 1.012.08.396.08.858 0 1.386h-4.026c.036.616.22 1.078.55 1.386.33.301.821.451 1.474.451.44 0 .817-.062 1.133-.187.315-.125.579-.26.792-.407v.869Zm-2.266-4.477c-.418 0-.778.128-1.078.385-.301.257-.492.645-.572 1.166h3.069c.029-.528-.092-.917-.363-1.166-.272-.257-.624-.385-1.056-.385Zm9.771 4.961h-1.485l-1.21-4.411-1.243 4.411h-1.441l-1.298-5.709h1.023l1.089 4.983 1.386-4.983h1.089l1.353 4.928 1.078-4.928h.957l-1.298 5.709Zm6.911-.484a3.083 3.083 0 0 1-.726.385c-.169.059-.36.106-.572.143a3.544 3.544 0 0 1-.715.066c-.961 0-1.691-.26-2.189-.781-.499-.521-.748-1.25-.748-2.189 0-.462.066-.876.198-1.243.139-.367.33-.675.572-.924.242-.257.528-.451.858-.583.33-.139.689-.209 1.078-.209.41 0 .777.07 1.1.209.322.139.586.345.792.616.212.271.355.609.429 1.012.08.396.08.858 0 1.386h-4.026c.036.616.22 1.078.55 1.386.33.301.821.451 1.474.451.44 0 .817-.062 1.133-.187.315-.125.579-.26.792-.407v.869Zm-2.266-4.477c-.418 0-.778.128-1.078.385-.301.257-.492.645-.572 1.166h3.069c.029-.528-.092-.917-.363-1.166-.272-.257-.624-.385-1.056-.385Zm6.383.22a2.974 2.974 0 0 0-1.122.319c-.33.169-.576.433-.737.792v3.63h-.968v-5.709h.847l.099 1.243h.022c.161-.337.392-.631.693-.88.308-.257.696-.414 1.166-.473v1.078Z"/>
    <rect width="121" height="42" x="3" y="336" fill="#fff" stroke="#5282FF" stroke-width="2" rx="4"/>
    <path fill="#262626" d="M25.514 354h-.968v-5.709h.847l.099 1.023h.022c.154-.323.385-.59.693-.803.308-.22.711-.33 1.21-.33.44 0 .8.106 1.078.319.286.205.477.517.572.935.161-.389.407-.693.737-.913.337-.227.744-.341 1.22-.341.529 0 .947.15 1.255.451.308.293.462.748.462 1.364V354h-.98v-3.883c0-.374-.09-.645-.274-.814-.183-.176-.433-.264-.748-.264-.213 0-.4.033-.561.099a1.334 1.334 0 0 0-.43.253c-.124.11-.237.238-.34.385a4.957 4.957 0 0 0-.286.462V354h-.968v-3.993c0-.367-.092-.62-.275-.759-.183-.139-.433-.209-.748-.209-.205 0-.389.026-.55.077a1.547 1.547 0 0 0-.44.22 1.733 1.733 0 0 0-.341.352 3.267 3.267 0 0 0-.286.44V354Zm12.087-1.089c-.066.132-.15.271-.253.418a1.912 1.912 0 0 1-.935.671c-.205.073-.447.11-.726.11-.514 0-.928-.143-1.243-.429-.316-.293-.473-.711-.473-1.254 0-.623.216-1.082.649-1.375.44-.293 1.063-.44 1.87-.44h1.067v-.473c0-.396-.103-.678-.308-.847-.206-.169-.558-.253-1.056-.253-.352 0-.686.059-1.001.176a4.74 4.74 0 0 0-.847.385v-.869c.205-.125.48-.246.825-.363a3.43 3.43 0 0 1 1.155-.187c.718 0 1.265.15 1.639.451.374.293.56.752.56 1.375v3.3c.008.081.012.165.012.253l.022.253c.007.073.014.136.022.187h-.88a5.068 5.068 0 0 1-.066-.429 6.626 6.626 0 0 1-.022-.495l-.011-.165Zm-1.705.33c.3 0 .557-.062.77-.187a1.91 1.91 0 0 0 .517-.429 1.91 1.91 0 0 0 .286-.484c.059-.161.088-.275.088-.341v-.418h-.968c-.58 0-1.001.084-1.265.253-.257.161-.385.407-.385.737a.87.87 0 0 0 .23.627c.155.161.397.242.727.242Zm6.857-4.202c-.44 0-.8.103-1.078.308a2.252 2.252 0 0 0-.66.77V354h-.968v-5.709h.913l.033 1.023h.022c.154-.33.396-.601.726-.814.33-.213.748-.319 1.254-.319.565 0 1.012.15 1.342.451.337.293.506.748.506 1.364V354h-.968v-3.905c0-.396-.1-.671-.297-.825-.198-.154-.473-.231-.825-.231Zm6.965 3.872c-.066.132-.15.271-.253.418a1.912 1.912 0 0 1-.935.671c-.205.073-.447.11-.726.11-.513 0-.928-.143-1.243-.429-.315-.293-.473-.711-.473-1.254 0-.623.216-1.082.649-1.375.44-.293 1.063-.44 1.87-.44h1.067v-.473c0-.396-.103-.678-.308-.847-.205-.169-.557-.253-1.056-.253-.352 0-.686.059-1.001.176a4.74 4.74 0 0 0-.847.385v-.869c.205-.125.48-.246.825-.363a3.43 3.43 0 0 1 1.155-.187c.719 0 1.265.15 1.639.451.374.293.561.752.561 1.375v3.3c.007.081.011.165.011.253l.022.253c.007.073.015.136.022.187h-.88a5.068 5.068 0 0 1-.066-.429 6.626 6.626 0 0 1-.022-.495l-.011-.165Zm-1.705.33c.3 0 .557-.062.77-.187a1.91 1.91 0 0 0 .517-.429 1.91 1.91 0 0 0 .286-.484c.059-.161.088-.275.088-.341v-.418h-.968c-.58 0-1.001.084-1.265.253-.257.161-.385.407-.385.737a.87.87 0 0 0 .231.627c.154.161.396.242.726.242Zm9.057.275c0 .367-.055.7-.165 1.001a1.808 1.808 0 0 1-.506.781 2.307 2.307 0 0 1-.89.495c-.36.117-.797.176-1.31.176-.279 0-.524-.015-.737-.044a3.34 3.34 0 0 1-.56-.121 2.008 2.008 0 0 1-.397-.154 1.84 1.84 0 0 1-.275-.154v-.869c.117.066.238.125.363.176a3.215 3.215 0 0 0 .946.253c.198.029.422.044.671.044.704 0 1.195-.132 1.474-.396.279-.264.418-.656.418-1.177v-.88a2.076 2.076 0 0 1-.715.814c-.3.205-.675.308-1.122.308-.337 0-.66-.059-.968-.176-.3-.117-.568-.29-.803-.517a2.667 2.667 0 0 1-.55-.869 3.466 3.466 0 0 1-.198-1.221c0-.469.066-.876.198-1.221.14-.352.323-.645.55-.88.235-.235.506-.411.814-.528.308-.117.634-.176.98-.176.454 0 .835.103 1.143.308.315.205.561.484.737.836l.011-.121c0-.132.007-.29.022-.473a7.2 7.2 0 0 1 .044-.44h.88a7.2 7.2 0 0 0-.044.44c-.007.191-.01.348-.01.473v4.312Zm-2.629-.616c.242 0 .462-.037.66-.11a1.4 1.4 0 0 0 .528-.363c.154-.161.271-.359.352-.594.088-.242.132-.524.132-.847 0-.653-.161-1.14-.484-1.463-.315-.323-.715-.484-1.199-.484a1.9 1.9 0 0 0-.682.121 1.498 1.498 0 0 0-.539.363 1.787 1.787 0 0 0-.352.616 2.474 2.474 0 0 0-.132.847c0 .323.044.605.132.847.088.235.21.433.363.594.154.154.334.271.54.352a1.9 1.9 0 0 0 .681.121Zm8.744.616a3.01 3.01 0 0 1-.297.187 3.44 3.44 0 0 1-.43.198 3.604 3.604 0 0 1-.571.143 3.542 3.542 0 0 1-.715.066c-.961 0-1.69-.26-2.19-.781-.498-.521-.747-1.25-.747-2.189 0-.462.066-.876.198-1.243.139-.367.33-.675.572-.924.242-.257.528-.451.858-.583.33-.139.689-.209 1.078-.209.41 0 .777.07 1.1.209.322.139.586.345.792.616.212.271.355.609.429 1.012.08.396.08.858 0 1.386h-4.026c.036.616.22 1.078.55 1.386.33.301.82.451 1.474.451.44 0 .817-.062 1.133-.187.315-.125.579-.26.792-.407v.869Zm-2.266-4.477c-.418 0-.778.128-1.078.385-.301.257-.492.645-.572 1.166h3.069c.029-.528-.092-.917-.363-1.166-.272-.257-.624-.385-1.056-.385Zm7.648 3.839a2.288 2.288 0 0 1-.737.902c-.316.22-.715.33-1.2.33-.344 0-.67-.059-.978-.176a2.357 2.357 0 0 1-.814-.55 2.754 2.754 0 0 1-.561-.924c-.14-.374-.21-.814-.21-1.32 0-.499.07-.931.21-1.298.139-.374.326-.682.56-.924.235-.249.507-.433.815-.55a2.66 2.66 0 0 1 .99-.187c.432 0 .806.092 1.122.275.315.176.568.429.759.759v-3.102h.968V354h-.847l-.077-1.122Zm-1.793.363c.249 0 .48-.04.693-.121.212-.088.396-.22.55-.396.161-.176.286-.396.374-.66.095-.264.143-.572.143-.924 0-.352-.048-.66-.143-.924a1.806 1.806 0 0 0-.374-.66 1.368 1.368 0 0 0-.55-.385 1.794 1.794 0 0 0-.693-.132c-.506 0-.92.18-1.243.539-.316.352-.473.873-.473 1.562 0 .697.161 1.221.484 1.573.322.352.733.528 1.232.528Zm4.164-3.036h2.64v.88h-2.64v-.88Zm5.57 1.364h-.506V354h-.968v-7.887h.968v4.631h.55l2.002-2.453h1.1l-2.343 2.816L79.698 354h-1.177l-2.013-2.431Zm7.22 1.342c-.066.132-.15.271-.253.418a1.915 1.915 0 0 1-.935.671c-.206.073-.448.11-.726.11-.513 0-.928-.143-1.243-.429-.316-.293-.473-.711-.473-1.254 0-.623.216-1.082.649-1.375.44-.293 1.063-.44 1.87-.44h1.067v-.473c0-.396-.103-.678-.308-.847-.206-.169-.558-.253-1.056-.253-.352 0-.686.059-1.001.176-.316.11-.598.238-.847.385v-.869c.205-.125.48-.246.825-.363a3.43 3.43 0 0 1 1.155-.187c.719 0 1.265.15 1.639.451.374.293.56.752.56 1.375v3.3c.008.081.012.165.012.253l.022.253c.007.073.014.136.022.187h-.88a5.068 5.068 0 0 1-.066-.429 6.573 6.573 0 0 1-.022-.495l-.011-.165Zm-1.705.33c.3 0 .557-.062.77-.187a1.91 1.91 0 0 0 .517-.429 1.91 1.91 0 0 0 .286-.484c.058-.161.088-.275.088-.341v-.418h-.968c-.58 0-1.001.084-1.265.253-.257.161-.385.407-.385.737a.87.87 0 0 0 .23.627c.155.161.397.242.727.242Zm5.46-4.125V354h-.968v-4.884h-.693v-.825h.693v-.143c0-.675.18-1.199.539-1.573.36-.374.85-.561 1.474-.561.271 0 .513.033.726.099v.88a1.307 1.307 0 0 0-.286-.077 2.276 2.276 0 0 0-.396-.033c-.338 0-.605.103-.803.308-.19.205-.286.524-.286.957v.143h1.65v.825h-1.65Zm4.258 2.453h-.506V354h-.968v-7.887h.968v4.631h.55l2.002-2.453h1.1l-2.343 2.816L94.93 354h-1.177l-2.013-2.431Zm7.22 1.342a3.467 3.467 0 0 1-.254.418 1.912 1.912 0 0 1-.935.671c-.205.073-.447.11-.726.11-.513 0-.927-.143-1.243-.429-.315-.293-.473-.711-.473-1.254 0-.623.217-1.082.65-1.375.44-.293 1.063-.44 1.87-.44h1.066v-.473c0-.396-.102-.678-.308-.847-.205-.169-.557-.253-1.056-.253-.352 0-.685.059-1 .176a4.74 4.74 0 0 0-.848.385v-.869c.206-.125.48-.246.825-.363a3.43 3.43 0 0 1 1.155-.187c.719 0 1.265.15 1.64.451.373.293.56.752.56 1.375v3.3c.008.081.011.165.011.253l.022.253.022.187h-.88a5.068 5.068 0 0 1-.066-.429 6.626 6.626 0 0 1-.022-.495l-.01-.165Zm-1.706.33c.3 0 .558-.062.77-.187a1.91 1.91 0 0 0 .517-.429 1.88 1.88 0 0 0 .286-.484c.059-.161.088-.275.088-.341v-.418h-.968c-.58 0-1 .084-1.265.253-.256.161-.385.407-.385.737a.87.87 0 0 0 .231.627c.154.161.396.242.726.242Zm4.679.825a.7.7 0 0 1-.517-.198.694.694 0 0 1-.198-.495c0-.205.066-.374.198-.506a.7.7 0 0 1 .517-.198c.206 0 .374.066.506.198a.686.686 0 0 1 .198.506.694.694 0 0 1-.198.495.684.684 0 0 1-.506.198Zm-47.751 12.45a3.01 3.01 0 0 1-.297.187 3.42 3.42 0 0 1-.43.198 3.62 3.62 0 0 1-.571.143 3.542 3.542 0 0 1-.715.066c-.961 0-1.69-.26-2.19-.781-.498-.521-.747-1.25-.747-2.189 0-.462.066-.876.198-1.243.139-.367.33-.675.572-.924.242-.257.528-.451.858-.583.33-.139.689-.209 1.078-.209.41 0 .777.07 1.1.209.322.139.586.345.792.616.212.271.355.609.429 1.012.08.396.08.858 0 1.386h-4.026c.036.616.22 1.078.55 1.386.33.301.821.451 1.474.451.44 0 .817-.062 1.133-.187.315-.125.579-.26.792-.407v.869Zm-2.266-4.477c-.418 0-.778.128-1.078.385-.301.257-.492.645-.572 1.166h3.069c.029-.528-.092-.917-.363-1.166-.272-.257-.624-.385-1.056-.385Zm7.648 3.839a2.288 2.288 0 0 1-.737.902c-.316.22-.715.33-1.2.33-.344 0-.67-.059-.978-.176a2.356 2.356 0 0 1-.814-.55 2.751 2.751 0 0 1-.561-.924c-.14-.374-.21-.814-.21-1.32 0-.499.07-.931.21-1.298.139-.374.326-.682.56-.924.235-.249.507-.433.815-.55a2.66 2.66 0 0 1 .99-.187c.432 0 .806.092 1.122.275.315.176.568.429.759.759v-3.102h.968V367h-.847l-.077-1.122Zm-1.793.363c.249 0 .48-.04.693-.121.212-.088.396-.22.55-.396.161-.176.286-.396.374-.66.095-.264.143-.572.143-.924 0-.352-.048-.66-.143-.924a1.807 1.807 0 0 0-.374-.66 1.37 1.37 0 0 0-.55-.385 1.795 1.795 0 0 0-.693-.132c-.506 0-.92.18-1.243.539-.316.352-.473.873-.473 1.562 0 .697.161 1.221.484 1.573.322.352.733.528 1.232.528Zm4.791-5.786a.64.64 0 0 1-.473-.176.635.635 0 0 1-.176-.451.617.617 0 0 1 .649-.638.57.57 0 0 1 .451.187c.11.125.165.275.165.451a.659.659 0 0 1-.165.451.59.59 0 0 1-.45.176Zm.473.836V367h-.968v-5.709h.968Zm4.372 5.588a1.77 1.77 0 0 1-.45.165 2.492 2.492 0 0 1-.584.066 1.89 1.89 0 0 1-.715-.121 1.382 1.382 0 0 1-.473-.319 1.349 1.349 0 0 1-.275-.462 1.915 1.915 0 0 1-.077-.539v-3.553h-.682v-.825h.682v-1.199h.968v1.199h1.661v.825h-1.66v3.432c0 .242.058.418.175.528.125.11.341.165.65.165.285 0 .546-.081.78-.242v.88Zm3.578.231c-.39 0-.752-.066-1.09-.198a2.541 2.541 0 0 1-.88-.572 2.787 2.787 0 0 1-.571-.935 3.547 3.547 0 0 1-.21-1.265c0-.469.07-.887.21-1.254.139-.374.33-.686.572-.935.249-.249.542-.44.88-.572a2.96 2.96 0 0 1 1.089-.198c.396 0 .762.066 1.1.198.337.132.627.323.869.572.249.249.443.561.583.935.146.367.22.785.22 1.254a3.4 3.4 0 0 1-.22 1.265c-.14.367-.334.678-.583.935-.242.249-.532.44-.87.572a2.992 2.992 0 0 1-1.1.198Zm0-.869c.256 0 .49-.04.704-.121.22-.088.41-.216.572-.385.16-.176.286-.396.374-.66.088-.264.132-.576.132-.935 0-.359-.044-.671-.132-.935a1.703 1.703 0 0 0-.374-.649 1.441 1.441 0 0 0-.572-.385 1.824 1.824 0 0 0-.704-.132 1.82 1.82 0 0 0-.704.132c-.213.081-.4.209-.561.385a1.788 1.788 0 0 0-.363.649 2.966 2.966 0 0 0-.132.935c0 .359.044.671.132.935.088.264.209.484.363.66.16.169.348.297.56.385.213.081.448.121.705.121Zm6.778-3.982c-.41.037-.784.143-1.121.319a1.59 1.59 0 0 0-.737.792V367h-.969v-5.709h.847l.1 1.243h.022a2.57 2.57 0 0 1 .692-.88c.308-.257.697-.414 1.166-.473v1.078Z"/>
    <rect width="121" height="42" x="289" y="8" fill="#fff" stroke="#5282FF" stroke-width="2" rx="4"/>
    <path fill="#262626" d="M338.151 31.8c-.066.132-.15.271-.253.418a1.897 1.897 0 0 1-.935.67 2.14 2.14 0 0 1-.726.11c-.513 0-.927-.142-1.243-.428-.315-.293-.473-.711-.473-1.254 0-.623.217-1.082.649-1.375.44-.293 1.064-.44 1.87-.44h1.067v-.473c0-.396-.102-.678-.308-.847-.205-.169-.557-.253-1.056-.253a2.85 2.85 0 0 0-1.001.176 4.79 4.79 0 0 0-.847.385v-.87a4.31 4.31 0 0 1 .825-.362 3.437 3.437 0 0 1 1.155-.187c.719 0 1.265.15 1.639.45.374.294.561.753.561 1.376v3.299c.008.082.011.166.011.254l.022.253.022.187h-.88a5.03 5.03 0 0 1-.066-.43 6.951 6.951 0 0 1-.022-.494l-.011-.165Zm-1.705.33c.301 0 .558-.062.77-.187a1.89 1.89 0 0 0 .517-.43c.132-.168.228-.33.286-.483.059-.161.088-.275.088-.341v-.418h-.968c-.579 0-1.001.084-1.265.253-.256.161-.385.407-.385.737a.87.87 0 0 0 .231.627c.154.161.396.242.726.242Zm8.243-.363a2.285 2.285 0 0 1-.737.902c-.315.22-.715.33-1.199.33a2.73 2.73 0 0 1-.979-.176 2.356 2.356 0 0 1-.814-.55 2.78 2.78 0 0 1-.561-.924c-.139-.374-.209-.814-.209-1.32 0-.499.07-.931.209-1.298a2.64 2.64 0 0 1 .561-.924 2.17 2.17 0 0 1 .814-.55c.316-.125.646-.187.99-.187.433 0 .807.092 1.122.275.316.176.569.429.759.759v-3.102h.968v7.887h-.847l-.077-1.122Zm-1.793.363c.25 0 .481-.04.693-.121.213-.088.396-.22.55-.396.162-.176.286-.396.374-.66.096-.264.143-.572.143-.924 0-.352-.047-.66-.143-.924a1.797 1.797 0 0 0-.374-.66 1.363 1.363 0 0 0-.55-.385 1.79 1.79 0 0 0-.693-.132c-.506 0-.92.18-1.243.539-.315.352-.473.873-.473 1.562 0 .697.162 1.22.484 1.573.323.352.734.528 1.232.528Zm5.265.759h-.968v-5.71h.847l.099 1.024h.022c.154-.323.385-.59.693-.803.308-.22.711-.33 1.21-.33.44 0 .799.106 1.078.319.286.205.477.517.572.935.161-.389.407-.693.737-.913.337-.227.744-.341 1.221-.341.528 0 .946.15 1.254.45.308.294.462.749.462 1.365v4.004h-.979v-3.883c0-.374-.092-.645-.275-.814-.183-.176-.433-.264-.748-.264-.213 0-.4.033-.561.099a1.335 1.335 0 0 0-.429.253c-.125.11-.238.238-.341.385a4.77 4.77 0 0 0-.286.462v3.762h-.968v-3.993c0-.367-.092-.62-.275-.76-.183-.138-.433-.208-.748-.208-.205 0-.389.026-.55.077a1.551 1.551 0 0 0-.44.22 1.733 1.733 0 0 0-.341.352 3.22 3.22 0 0 0-.286.44v3.872Zm9.238-6.545a.639.639 0 0 1-.473-.176.636.636 0 0 1-.176-.451.618.618 0 0 1 .649-.638.57.57 0 0 1 .451.187c.11.125.165.275.165.45a.658.658 0 0 1-.165.452.588.588 0 0 1-.451.176Zm.473.836v5.709h-.968v-5.71h.968Zm4.284.748c-.44 0-.8.103-1.078.308a2.236 2.236 0 0 0-.66.77v3.883h-.968v-5.71h.913l.033 1.024h.022c.154-.33.396-.601.726-.814.33-.213.748-.32 1.254-.32.564 0 1.012.151 1.342.452.337.293.506.748.506 1.364v4.004h-.968v-3.905c0-.396-.099-.671-.297-.825-.198-.154-.473-.231-.825-.231Z"/>
    <rect width="121" height="42" x="289" y="90" fill="#fff" stroke="#5282FF" stroke-width="2" rx="4"/>
    <path fill="#262626" d="M340.183 114.405a3.083 3.083 0 0 1-.726.385c-.169.059-.36.106-.572.143a3.544 3.544 0 0 1-.715.066c-.961 0-1.691-.26-2.189-.781-.499-.521-.748-1.25-.748-2.189 0-.462.066-.876.198-1.243.139-.367.33-.675.572-.924.242-.257.528-.451.858-.583.33-.139.689-.209 1.078-.209.41 0 .777.07 1.1.209.322.139.586.345.792.616.212.271.355.609.429 1.012.08.396.08.858 0 1.386h-4.026c.036.616.22 1.078.55 1.386.33.301.821.451 1.474.451.44 0 .817-.062 1.133-.187.315-.125.579-.26.792-.407v.869Zm-2.266-4.477c-.418 0-.778.128-1.078.385-.301.257-.492.645-.572 1.166h3.069c.029-.528-.092-.917-.363-1.166-.272-.257-.624-.385-1.056-.385Zm7.648 3.839a2.291 2.291 0 0 1-.737.902c-.316.22-.715.33-1.199.33-.345 0-.671-.059-.979-.176a2.35 2.35 0 0 1-.814-.55 2.742 2.742 0 0 1-.561-.924c-.14-.374-.209-.814-.209-1.32 0-.499.069-.931.209-1.298a2.61 2.61 0 0 1 .561-.924c.234-.249.506-.433.814-.55a2.66 2.66 0 0 1 .99-.187c.432 0 .806.092 1.122.275.315.176.568.429.759.759v-3.102h.968v7.887h-.847l-.077-1.122Zm-1.793.363c.249 0 .48-.04.693-.121.212-.088.396-.22.55-.396.161-.176.286-.396.374-.66.095-.264.143-.572.143-.924 0-.352-.048-.66-.143-.924a1.812 1.812 0 0 0-.374-.66 1.373 1.373 0 0 0-.55-.385 1.797 1.797 0 0 0-.693-.132c-.506 0-.921.18-1.243.539-.316.352-.473.873-.473 1.562 0 .697.161 1.221.484 1.573.322.352.733.528 1.232.528Zm4.791-5.786a.642.642 0 0 1-.473-.176.636.636 0 0 1-.176-.451.618.618 0 0 1 .649-.638c.191 0 .341.062.451.187.11.125.165.275.165.451a.659.659 0 0 1-.165.451.589.589 0 0 1-.451.176Zm.473.836v5.709h-.968v-5.709h.968Zm4.372 5.588a1.755 1.755 0 0 1-.451.165 2.485 2.485 0 0 1-.583.066 1.89 1.89 0 0 1-.715-.121 1.393 1.393 0 0 1-.473-.319 1.367 1.367 0 0 1-.275-.462 1.93 1.93 0 0 1-.077-.539v-3.553h-.682v-.825h.682v-1.199h.968v1.199h1.661v.825h-1.661v3.432c0 .242.059.418.176.528.125.11.341.165.649.165.286 0 .547-.081.781-.242v.88Zm3.578.231a2.96 2.96 0 0 1-1.089-.198 2.532 2.532 0 0 1-.88-.572 2.782 2.782 0 0 1-.572-.935 3.532 3.532 0 0 1-.209-1.265 3.5 3.5 0 0 1 .209-1.254c.139-.374.33-.686.572-.935.249-.249.542-.44.88-.572a2.96 2.96 0 0 1 1.089-.198c.396 0 .762.066 1.1.198.337.132.627.323.869.572.249.249.443.561.583.935.146.367.22.785.22 1.254a3.4 3.4 0 0 1-.22 1.265c-.14.367-.334.678-.583.935-.242.249-.532.44-.869.572a2.995 2.995 0 0 1-1.1.198Zm0-.869c.256 0 .491-.04.704-.121.22-.088.41-.216.572-.385.161-.176.286-.396.374-.66.088-.264.132-.576.132-.935 0-.359-.044-.671-.132-.935a1.707 1.707 0 0 0-.374-.649 1.446 1.446 0 0 0-.572-.385 1.828 1.828 0 0 0-.704-.132 1.82 1.82 0 0 0-.704.132c-.213.081-.4.209-.561.385a1.788 1.788 0 0 0-.363.649 2.966 2.966 0 0 0-.132.935c0 .359.044.671.132.935.088.264.209.484.363.66.161.169.348.297.561.385.212.081.447.121.704.121Zm6.779-3.982a2.974 2.974 0 0 0-1.122.319c-.33.169-.576.433-.737.792v3.63h-.968v-5.709h.847l.099 1.243h.022c.161-.337.392-.631.693-.88.308-.257.696-.414 1.166-.473v1.078Z"/>
    <rect width="121" height="42" x="146" y="172" fill="#fff" stroke="#5282FF" stroke-width="2" rx="4"/>
    <path fill="#262626" d="M180.089 196.889h-.968v-5.709h.847l.099 1.023h.022c.154-.323.385-.59.693-.803.308-.22.711-.33 1.21-.33.44 0 .799.106 1.078.319.286.205.476.517.572.935.161-.389.407-.693.737-.913.337-.227.744-.341 1.221-.341.528 0 .946.15 1.254.451.308.293.462.748.462 1.364v4.004h-.979v-3.883c0-.374-.092-.645-.275-.814-.184-.176-.433-.264-.748-.264-.213 0-.4.033-.561.099a1.32 1.32 0 0 0-.429.253c-.125.11-.239.238-.341.385a4.894 4.894 0 0 0-.286.462v3.762h-.968v-3.993c0-.367-.092-.62-.275-.759-.184-.139-.433-.209-.748-.209-.206 0-.389.026-.55.077a1.538 1.538 0 0 0-.44.22 1.706 1.706 0 0 0-.341.352 3.238 3.238 0 0 0-.286.44v3.872Zm12.835-1.122a2.291 2.291 0 0 1-.737.902c-.316.22-.715.33-1.199.33-.345 0-.671-.059-.979-.176a2.35 2.35 0 0 1-.814-.55 2.742 2.742 0 0 1-.561-.924c-.14-.374-.209-.814-.209-1.32 0-.499.069-.931.209-1.298a2.61 2.61 0 0 1 .561-.924c.234-.249.506-.433.814-.55a2.66 2.66 0 0 1 .99-.187c.432 0 .806.092 1.122.275.315.176.568.429.759.759v-3.102h.968v7.887h-.847l-.077-1.122Zm-1.793.363c.249 0 .48-.04.693-.121.212-.088.396-.22.55-.396.161-.176.286-.396.374-.66.095-.264.143-.572.143-.924 0-.352-.048-.66-.143-.924a1.812 1.812 0 0 0-.374-.66 1.373 1.373 0 0 0-.55-.385 1.797 1.797 0 0 0-.693-.132c-.506 0-.921.18-1.243.539-.316.352-.473.873-.473 1.562 0 .697.161 1.221.484 1.573.322.352.733.528 1.232.528Zm9.719-2.101c0 .506-.069.946-.209 1.32a2.742 2.742 0 0 1-.561.924 2.35 2.35 0 0 1-.814.55 2.7 2.7 0 0 1-.968.176c-.44 0-.825-.103-1.155-.308a2.265 2.265 0 0 1-.77-.88l-.033 1.078h-.913v-7.887h.968l-.022 3.289a2.35 2.35 0 0 1 .77-.891c.323-.22.723-.33 1.199-.33.33 0 .646.062.946.187.308.117.576.301.803.55.235.242.418.55.55.924.14.367.209.799.209 1.298Zm-2.695 2.101c.506 0 .913-.172 1.221-.517.316-.352.473-.88.473-1.584 0-.689-.157-1.21-.473-1.562-.308-.359-.715-.539-1.221-.539a1.88 1.88 0 0 0-.704.132 1.58 1.58 0 0 0-.561.396 1.928 1.928 0 0 0-.374.649 2.925 2.925 0 0 0-.132.924c0 .352.044.66.132.924.096.264.22.484.374.66.162.176.349.308.561.396.22.081.455.121.704.121Zm4.235.825a.699.699 0 0 1-.517-.198.694.694 0 0 1-.198-.495c0-.205.066-.374.198-.506a.699.699 0 0 1 .517-.198c.205 0 .374.066.506.198a.686.686 0 0 1 .198.506.694.694 0 0 1-.198.495.686.686 0 0 1-.506.198Zm5.448-1.155a3.452 3.452 0 0 1-.253.418 1.923 1.923 0 0 1-.935.671c-.206.073-.448.11-.726.11-.514 0-.928-.143-1.243-.429-.316-.293-.473-.711-.473-1.254 0-.623.216-1.082.649-1.375.44-.293 1.063-.44 1.87-.44h1.067v-.473c0-.396-.103-.678-.308-.847-.206-.169-.558-.253-1.056-.253-.352 0-.686.059-1.001.176-.316.11-.598.238-.847.385v-.869c.205-.125.48-.246.825-.363a3.43 3.43 0 0 1 1.155-.187c.718 0 1.265.15 1.639.451.374.293.561.752.561 1.375v3.3c.007.081.011.165.011.253l.022.253c.007.073.014.136.022.187h-.88a5.068 5.068 0 0 1-.066-.429 6.417 6.417 0 0 1-.022-.495l-.011-.165Zm-1.705.33c.3 0 .557-.062.77-.187a1.92 1.92 0 0 0 .517-.429 1.91 1.91 0 0 0 .286-.484c.058-.161.088-.275.088-.341v-.418h-.968c-.58 0-1.001.084-1.265.253-.257.161-.385.407-.385.737a.87.87 0 0 0 .231.627c.154.161.396.242.726.242Zm8.243-.363a2.291 2.291 0 0 1-.737.902c-.316.22-.715.33-1.199.33-.345 0-.671-.059-.979-.176a2.35 2.35 0 0 1-.814-.55 2.742 2.742 0 0 1-.561-.924c-.14-.374-.209-.814-.209-1.32 0-.499.069-.931.209-1.298a2.61 2.61 0 0 1 .561-.924c.234-.249.506-.433.814-.55a2.66 2.66 0 0 1 .99-.187c.432 0 .806.092 1.122.275.315.176.568.429.759.759v-3.102h.968v7.887h-.847l-.077-1.122Zm-1.793.363c.249 0 .48-.04.693-.121.212-.088.396-.22.55-.396.161-.176.286-.396.374-.66.095-.264.143-.572.143-.924 0-.352-.048-.66-.143-.924a1.812 1.812 0 0 0-.374-.66 1.373 1.373 0 0 0-.55-.385 1.797 1.797 0 0 0-.693-.132c-.506 0-.921.18-1.243.539-.316.352-.473.873-.473 1.562 0 .697.161 1.221.484 1.573.322.352.733.528 1.232.528Zm5.264.759h-.968v-5.709h.847l.099 1.023h.022c.154-.323.385-.59.693-.803.308-.22.712-.33 1.21-.33.44 0 .8.106 1.078.319.286.205.477.517.572.935.162-.389.407-.693.737-.913.338-.227.745-.341 1.221-.341.528 0 .946.15 1.254.451.308.293.462.748.462 1.364v4.004h-.979v-3.883c0-.374-.091-.645-.275-.814-.183-.176-.432-.264-.748-.264-.212 0-.399.033-.561.099a1.34 1.34 0 0 0-.429.253c-.124.11-.238.238-.341.385a5.11 5.11 0 0 0-.286.462v3.762h-.968v-3.993c0-.367-.091-.62-.275-.759-.183-.139-.432-.209-.748-.209-.205 0-.388.026-.55.077a1.551 1.551 0 0 0-.44.22 1.76 1.76 0 0 0-.341.352 3.336 3.336 0 0 0-.286.44v3.872Zm9.238-6.545a.642.642 0 0 1-.473-.176.636.636 0 0 1-.176-.451.618.618 0 0 1 .649-.638c.191 0 .341.062.451.187.11.125.165.275.165.451a.659.659 0 0 1-.165.451.589.589 0 0 1-.451.176Zm.473.836v5.709h-.968v-5.709h.968Zm4.284.748c-.44 0-.799.103-1.078.308a2.26 2.26 0 0 0-.66.77v3.883h-.968v-5.709h.913l.033 1.023h.022c.154-.33.396-.601.726-.814.33-.213.748-.319 1.254-.319.565 0 1.012.15 1.342.451.338.293.506.748.506 1.364v4.004h-.968v-3.905c0-.396-.099-.671-.297-.825-.198-.154-.473-.231-.825-.231Z"/>
    <rect width="121" height="42" x="289" y="336" fill="#fff" stroke="#5282FF" stroke-width="2" rx="4"/>
    <path fill="#262626" d="M334.541 355.928c-.609 0-1.225.187-1.848.561v-.869a3.46 3.46 0 0 1 .935-.396 3.784 3.784 0 0 1 1.045-.154c.719 0 1.265.15 1.639.451.374.301.561.759.561 1.375v3.069c0 .125.004.286.011.484.015.191.029.337.044.44h-.88a5.068 5.068 0 0 1-.066-.429 6.417 6.417 0 0 1-.022-.495l-.011-.165a3.09 3.09 0 0 1-.363.55 1.843 1.843 0 0 1-.616.462c-.249.125-.561.187-.935.187-.513 0-.928-.147-1.243-.44-.315-.293-.473-.708-.473-1.243 0-.623.22-1.082.66-1.375.44-.293 1.06-.44 1.859-.44h1.067v-.473c0-.396-.103-.678-.308-.847-.205-.169-.557-.253-1.056-.253Zm1.364 2.761v-.418h-.968c-.579 0-1.001.084-1.265.253-.257.169-.385.414-.385.737a.87.87 0 0 0 .231.627c.161.161.403.242.726.242.301 0 .557-.059.77-.176a1.8 1.8 0 0 0 .517-.44c.132-.176.227-.341.286-.495.059-.154.088-.264.088-.33Zm6.153 1.177a2.069 2.069 0 0 1-.715.803c-.315.22-.73.33-1.243.33-.528 0-.957-.15-1.287-.451-.323-.301-.484-.759-.484-1.375v-3.993h.979v3.993c0 .374.103.627.308.759.205.132.458.198.759.198.425 0 .766-.095 1.023-.286.257-.191.477-.451.66-.781v-3.883h.968v5.709h-.858l-.088-1.023h-.022Zm2.15-1.837c0-.667.117-1.217.352-1.65.234-.44.546-.766.935-.979.396-.22.825-.33 1.287-.33.432 0 .806.092 1.122.275.315.176.568.429.759.759v-3.102h.968v7.887h-.847l-.077-1.122a2.258 2.258 0 0 1-.748.902c-.316.22-.712.33-1.188.33-.455 0-.88-.106-1.276-.319-.389-.22-.701-.55-.935-.99-.235-.44-.352-.994-.352-1.661Zm4.466 0c0-.711-.169-1.239-.506-1.584a1.685 1.685 0 0 0-1.254-.517c-.499 0-.91.18-1.232.539-.323.352-.484.873-.484 1.562 0 .697.161 1.221.484 1.573.322.352.733.528 1.232.528.498 0 .916-.172 1.254-.517.337-.345.506-.873.506-1.584Zm3.032-3.685a.64.64 0 0 1-.473-.176.632.632 0 0 1-.176-.451c0-.176.058-.326.176-.451a.617.617 0 0 1 .473-.187.57.57 0 0 1 .451.187c.11.125.165.275.165.451a.659.659 0 0 1-.165.451.59.59 0 0 1-.451.176Zm-.495.836h.968v5.709h-.968v-5.709Zm2.083.825v-.825h.682v-1.199h.968v1.199h1.661v.825h-1.661v3.432c0 .242.063.418.187.528.125.11.338.165.638.165.286 0 .547-.081.781-.242v.88a1.365 1.365 0 0 1-.462.165 2.53 2.53 0 0 1-.572.066c-.366 0-.663-.07-.891-.209a1.248 1.248 0 0 1-.495-.539 1.63 1.63 0 0 1-.154-.693v-3.553h-.682Zm6.726 4.994c-.52 0-.99-.114-1.408-.341a2.559 2.559 0 0 1-.979-1.012c-.242-.447-.363-.986-.363-1.617s.121-1.166.363-1.606c.242-.44.569-.774.979-1.001a2.824 2.824 0 0 1 1.408-.352c.528 0 1.001.117 1.419.352.418.227.748.561.99 1.001.242.44.363.975.363 1.606 0 .631-.121 1.17-.363 1.617-.242.44-.572.777-.99 1.012a2.925 2.925 0 0 1-1.419.341Zm0-.869c.514 0 .939-.169 1.276-.506.338-.345.506-.876.506-1.595s-.168-1.247-.506-1.584c-.337-.345-.762-.517-1.276-.517-.506 0-.927.172-1.265.517-.33.337-.495.865-.495 1.584 0 .719.165 1.25.495 1.595.338.337.759.506 1.265.506Zm6.779-3.982c-.454.037-.843.15-1.166.341a1.718 1.718 0 0 0-.693.77v3.63h-.968v-5.709h.847l.099 1.243h.022c.184-.381.433-.689.748-.924a2.335 2.335 0 0 1 1.111-.429v1.078Z"/>
    <path fill="#4E496B" d="m350 133-5.774 10h11.548L350 133Zm-1 9v29h2v-29h-2Zm1-91-5.774 10h11.548L350 51Zm-1 9v29h2V60h-2ZM63 379l-5.773 10h11.547L63 379Zm-1 9v29h2v-29h-2Zm1-91-5.773 10h11.547L63 297Zm-1 9v29h2v-29h-2Zm146-91-5.773 10h11.547L208 215Zm-1 9v111h2V224h-2Zm143-9-5.773 10h11.547L350 215Zm-1 9v111h2V224h-2Z"/>
    <path fill="#4E496B" d="m209 379-5.773 10h11.546L209 379ZM71 398v1-1Zm-7 19v-11.005h-2V417h2Zm7-18h130v-2H71v2Zm139-9v-2h-2v2h2Zm-9 9a9 9 0 0 0 9-9h-2a7 7 0 0 1-7 7v2Zm-137 6.995A6.996 6.996 0 0 1 71 399v-2c-4.97 0-9 4.024-9 8.995h2ZM63 461l-5.773 10h11.547L63 461Zm-1 9v29h2v-29h-2Z"/>
    <path fill="#4E496B" d="m209 461-5.774 10h11.547L209 461ZM64 499v-11.005h-2V499h2Zm7-18h130v-2H71v2Zm139-9v-2h-2v2h2Zm-9 9a9 9 0 0 0 9-9h-2a7 7 0 0 1-7 7v2Zm-137 6.995A6.996 6.996 0 0 1 71 481v-2c-4.97 0-9 4.024-9 8.995h2Z"/>
    <path stroke="#4E496B" stroke-width="2" d="M63 253v-11.005A7.996 7.996 0 0 1 71 234h129a8 8 0 0 0 8-8v-5m0-50v-10.409a7.998 7.998 0 0 1 8-7.997h126a8 8 0 0 0 8-8V140M208 335v-51.257c0-4.419 3.582-7.984 8-7.984h126a8 8 0 0 0 8-8V257m285-86v-10.409a7.998 7.998 0 0 0-8-7.997H358a8 8 0 0 1-8-8V140"/>
</svg>
