<svg xmlns="http://www.w3.org/2000/svg" width="24" height="24" fill="none" viewBox="0 0 24 24">
    <path fill="#787878" d="M7 14a.965.965 0 0 1-.712-.288A.972.972 0 0 1 6 13c0-.283.095-.52.288-.712A.97.97 0 0 1 7 12c.282 0 .52.096.713.288.193.192.289.43.287.712a.986.986 0 0 1-.288.713A.952.952 0 0 1 7 14ZM22 4v12.45a.968.968 0 0 1-.288.713.964.964 0 0 1-.712.287c-.25 0-.479-.083-.687-.25-.208-.167-.312-.417-.313-.75V4H7.275c-.333 0-.583-.104-.75-.312a1.071 1.071 0 0 1 0-1.375c.167-.207.417-.312.75-.313H20c.55 0 1.021.196 1.413.588.392.392.588.863.587 1.412Zm-5 7h-2.725c-.333 0-.583-.104-.75-.312a1.07 1.07 0 0 1 0-1.375c.167-.207.417-.312.75-.313H17c.283 0 .521.096.713.288.192.192.288.43.287.712 0 .283-.097.52-.288.713A.957.957 0 0 1 17 11ZM6 18l-2.3 2.3c-.317.317-.68.388-1.088.213-.409-.175-.613-.487-.612-.938V4.8l-.6-.6a.948.948 0 0 1-.275-.7.95.95 0 0 1 .275-.7.948.948 0 0 1 .7-.275.95.95 0 0 1 .7.275l18.4 18.4a.98.98 0 0 1 .288.688.925.925 0 0 1-.288.712.948.948 0 0 1-.7.275.948.948 0 0 1-.7-.275L15.15 18H6Zm1-7a.965.965 0 0 1-.712-.288A.972.972 0 0 1 6 10c0-.283.095-.52.288-.712A.97.97 0 0 1 7 9c.282 0 .52.096.713.288.193.192.289.43.287.712a.986.986 0 0 1-.288.713A.952.952 0 0 1 7 11Zm10-3h-6a.965.965 0 0 1-.712-.288A.973.973 0 0 1 10 7c0-.283.095-.52.288-.712A.97.97 0 0 1 11 6h6c.283 0 .521.096.713.288.192.192.288.43.287.712 0 .283-.097.52-.288.713A.957.957 0 0 1 17 8ZM4 6.8v10.325L5.15 16h8.05L4 6.8Z"/>
</svg>
