<svg id="copy" viewBox="0 0 16 16" width="16" height="16" xmlns="http://www.w3.org/2000/svg">
  <g>
    <path d="M11.2 14.72H3.2c-.177 0-.32-.144-.32-.32V3.2c0-.177.143-.32.32-.32h8c.177 0 .32.143.32.32v11.2c0 .176-.143.32-.32.32zM3.52 14.08h7.36V3.52H3.52z"/>
  </g>
  <g>
    <path d="M12.8 13.12c-.176 0-.32-.144-.32-.32V2.08H4.08c-.177 0-.32-.143-.32-.32s.143-.32.32-.32h8c.177 0 .32.143.32.32v11.36c0 .177-.143.32-.32.32z"/>
  </g>
  <g>
    <path d="M4.8 6.4h4.8"/>
    <path d="M9.6 6.72H4.8c-.177 0-.32-.143-.32-.32 0-.176.143-.32.32-.32h4.8c.177 0 .32.144.32.32 0 .177-.143.32-.32.32z"/>
    <path d="M4.8 8h4.8"/>
    <path d="M9.6 8.32H4.8c-.177 0-.32-.144-.32-.32 0-.177.143-.32.32-.32h4.8c.177 0 .32.143.32.32 0 .176-.143.32-.32.32z"/>
    <path d="M4.8 9.6h4.8"/>
    <path d="M9.6 9.92H4.8c-.177 0-.32-.143-.32-.32s.143-.32.32-.32h4.8c.177 0 .32.143.32.32s-.143.32-.32.32z"/>
  </g>
</svg>