<svg xmlns="http://www.w3.org/2000/svg" xmlns:xlink="http://www.w3.org/1999/xlink" width="24" height="24" class="yc-icon nv-composite-bar__menu-icon" fill="currentColor" stroke="none" aria-hidden="true"><svg fill="none" xmlns="http://www.w3.org/2000/svg"><path d="M11.794 4.793a.998.998 0 111.412 1.414l-.79.765H17a3 3 0 013 3v1c0 .581-.447 1-1 1-.553 0-1-.419-1-1v-1c0-.525-.447-1-1-1h-4.584l.79.822a.998.998 0 11-1.412 1.412l-2.5-2.5a.998.998 0 010-1.412l2.5-2.501zm2.912 10.5a.998.998 0 010 1.413l-2.5 2.5a.998.998 0 11-1.412-1.412l.79-.794H7a1 1 0 00-1 1v1a1 1 0 11-2 0v-1c0-1.684 1.343-3 3-3h4.584l-.79-.794a.998.998 0 111.412-1.412l2.5 2.5zM20 16c0 1.103-.897 2-2 2s-2-.897-2-2 .897-2 2-2 2 .897 2 2zM8 8a2 2 0 11-4.002-.002A2 2 0 018 8z" fill="currentColor"></path></svg></svg>
