<svg xmlns="http://www.w3.org/2000/svg" xmlns:xlink="http://www.w3.org/1999/xlink" width="16" height="16" class="g-icon nv-service-inline-card__service-icon nv-service-inline-card__service-icon_external" fill="currentColor" stroke="none" aria-hidden="true"><svg xmlns="http://www.w3.org/2000/svg" viewBox="0 0 16 16">
    <path d="M16 3a2 2 0 0 0-4 0 2 2 0 0 0 1 1.72V7H9V4.72A2 2 0 0 0 10 3a2 2 0 0 0-4 0 2 2 0 0 0 1 1.72V7H3V4.72A2 2 0 0 0 4 3a2 2 0 0 0-4 0 2 2 0 0 0 1 1.72V7a2 2 0 0 0 2 2h1v2.28A2 2 0 0 0 3 13a2 2 0 0 0 4 0 2 2 0 0 0-1-1.72V9h4v2.28A2 2 0 0 0 9 13a2 2 0 0 0 4 0 2 2 0 0 0-1-1.72V9h1a2 2 0 0 0 2-2V4.72A2 2 0 0 0 16 3z"></path>
</svg></svg>