<svg width="16" height="16" viewBox="0 0 16 16" fill="none" xmlns="http://www.w3.org/2000/svg">
    <path fill-rule="evenodd" clip-rule="evenodd"
        d="M5.61673 2.69871C7.11443 1.01587 9.59449 0.522245 11.6335 1.49358C14.3425 2.7841 15.331 6.07175 13.8559 8.60811L10.538 14.3067C10.3525 14.6252 10.0474 14.8575 9.68966 14.9527C9.33191 15.0479 8.9506 14.9983 8.62958 14.8147L12.6465 7.91404C13.7167 6.07328 13.0009 3.68749 11.0368 2.74829C9.56296 2.04351 7.76168 2.39544 6.67284 3.60762C6.07241 4.27292 5.73517 5.13225 5.72384 6.02554C5.71252 6.91914 6.02804 7.78612 6.61163 8.46642C6.7166 8.58853 6.82952 8.70359 6.94949 8.8107L4.60439 12.8466C4.51259 13.0045 4.39048 13.1425 4.24512 13.2536C4.09945 13.3644 3.93358 13.4458 3.75639 13.4929C3.5792 13.5401 3.39436 13.552 3.21258 13.5284C3.0308 13.5046 2.85545 13.4455 2.69631 13.3546L5.24216 8.9732C4.87645 8.44959 4.61388 7.86202 4.46821 7.2417L2.90839 9.93168C2.72294 10.2503 2.41783 10.4825 2.06008 10.5777C1.70233 10.6729 1.32102 10.6233 1 10.4397L5.03436 3.5002C5.20237 3.21498 5.39731 2.9466 5.61673 2.69871ZM10.2733 4.90762C11.2449 5.4649 11.5803 6.70401 11.0181 7.66861L7.14963 14.306C6.96418 14.6246 6.65907 14.8569 6.30132 14.9521C5.94357 15.0472 5.56226 14.9977 5.24124 14.814L8.83339 8.63443C8.54511 8.57414 8.27367 8.45265 8.03742 8.27791C7.80116 8.10317 7.60592 7.87976 7.46514 7.62301C7.32437 7.36594 7.24144 7.08195 7.22185 6.79C7.20226 6.49805 7.24694 6.20549 7.35252 5.93251C7.4581 5.65953 7.62183 5.41226 7.83299 5.20814C8.04415 5.00402 8.29723 4.84795 8.5748 4.75063C8.85267 4.65331 9.14829 4.6169 9.44147 4.64383C9.73464 4.67076 10.0183 4.76073 10.2733 4.90762ZM8.86614 6.15499C8.79973 6.20579 8.74373 6.26883 8.70211 6.34106H8.7018C8.63876 6.4497 8.60938 6.57425 8.61764 6.69942C8.62591 6.82458 8.6715 6.94424 8.74832 7.0437C8.82513 7.14316 8.9301 7.21783 9.04945 7.25792C9.1691 7.29831 9.29794 7.30229 9.41974 7.26985C9.54185 7.23741 9.6511 7.16978 9.73434 7.07552C9.81758 6.98127 9.87083 6.86467 9.88735 6.74042C9.90388 6.61618 9.88276 6.48979 9.82707 6.37717C9.77137 6.26486 9.68293 6.17121 9.57367 6.10848C9.50114 6.06686 9.42097 6.03993 9.33773 6.02891C9.25449 6.0182 9.17002 6.0234 9.08923 6.04513C9.00844 6.06716 8.93255 6.10419 8.86614 6.15499Z"
        fill="currentColor" />
</svg>