<svg width="16" height="16" viewBox="0 0 16 16" fill="none" xmlns="http://www.w3.org/2000/svg">
    <path
        d="M11.45 5.75H7.53125C7.55 5.84375 7.5875 5.9375 7.60625 6.0125C7.7375 6.4625 7.8125 6.93125 7.85 7.41875C7.86875 7.60625 7.86875 7.8125 7.86875 8C7.86875 8.1875 7.86875 8.39375 7.85 8.58125C7.8125 9.06875 7.7375 9.5375 7.60625 9.9875C7.5875 10.0813 7.55 10.175 7.53125 10.25H11.45C12.6875 10.25 13.6813 9.2375 13.6813 8C13.6813 6.7625 12.6875 5.75 11.45 5.75Z"
        fill="currentColor" />
    <path
        d="M7.84995 8.58125C7.8687 8.39375 7.8687 8.1875 7.8687 8C7.8687 7.8125 7.8687 7.60625 7.84995 7.41875C7.81245 6.93125 7.73745 6.4625 7.6062 6.0125C7.58745 5.91875 7.54995 5.825 7.5312 5.75H1.47495C1.24995 6.4625 1.13745 7.2125 1.13745 8C1.13745 8.7875 1.24995 9.5375 1.47495 10.25H7.5312C7.54995 10.1563 7.58745 10.0625 7.6062 9.9875C7.73745 9.5375 7.81245 9.06875 7.84995 8.58125Z"
        fill="currentColor" />
    <path
        d="M12.125 11H7.25003C7.10003 11.3375 6.93127 11.6563 6.74377 11.9563C6.46252 12.425 6.12503 12.8375 5.75003 13.2312C5.61878 13.3625 5.48753 13.475 5.35628 13.6062C5.09378 13.85 4.79377 14.0562 4.49377 14.2625C5.67502 15.05 7.10002 15.5 8.61877 15.5C11.225 15.5 13.5125 14.1688 14.8625 12.1625C14.1688 11.45 13.1938 11 12.125 11Z"
        fill="currentColor" />
    <path
        d="M6.74373 11.9563C6.93123 11.6563 7.09998 11.3375 7.24998 11H1.75623C2.33748 12.3313 3.29373 13.475 4.51248 14.2625C4.81248 14.0562 5.09373 13.85 5.37498 13.6062C5.50623 13.4937 5.63748 13.3625 5.76873 13.2312C6.12498 12.8562 6.46248 12.425 6.74373 11.9563Z"
        fill="currentColor" />
    <path
        d="M5.75005 2.76874C5.6188 2.63749 5.48755 2.52499 5.3563 2.39374C5.0938 2.14999 4.7938 1.94374 4.4938 1.73749C3.2938 2.52499 2.33755 3.66874 1.73755 4.99999H7.2313C7.0813 4.66249 6.91255 4.34374 6.72505 4.04374C6.46255 3.57499 6.12505 3.14374 5.75005 2.76874Z"
        fill="currentColor" />
    <path
        d="M8.61877 0.5C7.10002 0.5 5.67502 0.95 4.49377 1.7375C4.79377 1.94375 5.07503 2.15 5.35628 2.39375C5.48753 2.50625 5.61878 2.6375 5.75003 2.76875C6.12503 3.1625 6.46252 3.575 6.74377 4.04375C6.93127 4.34375 7.10003 4.6625 7.25003 5H12.125C13.1938 5 14.1688 4.55 14.8625 3.8375C13.5125 1.83125 11.225 0.5 8.61877 0.5Z"
        fill="currentColor" />
</svg>