<svg xmlns="http://www.w3.org/2000/svg" width="32" height="32" fill="none" viewBox="0 0 32 32">
    <path fill="#00546B" d="M29.456 24.416c-1.74-.043-3.088.128-4.22.599-.325.128-.847.128-.89.535.173.171.195.45.347.685.261.428.718 1.006 1.131 1.306.457.342.913.684 1.392.984.848.514 1.805.813 2.631 1.327.479.3.957.685 1.436 1.006.239.17.391.45.696.556v-.064c-.153-.193-.196-.47-.348-.685-.218-.214-.435-.406-.653-.62a10.241 10.241 0 0 0-2.262-2.162c-.695-.471-2.218-1.113-2.5-1.905l-.044-.043c.478-.043 1.044-.214 1.5-.342.74-.193 1.414-.15 2.175-.343.348-.085.696-.192 1.044-.3v-.192c-.391-.385-.674-.899-1.087-1.263-1.11-.942-2.327-1.862-3.588-2.632-.675-.428-1.545-.706-2.262-1.07-.261-.129-.696-.193-.848-.407-.392-.47-.61-1.091-.892-1.648a53.665 53.665 0 0 1-1.784-3.724c-.39-.835-.63-1.67-1.108-2.44-2.24-3.638-4.676-5.843-8.417-8.004-.804-.45-1.761-.642-2.784-.878-.543-.021-1.087-.064-1.63-.085-.348-.15-.697-.557-1.001-.75-1.24-.77-4.436-2.44-5.35-.235-.587 1.391.87 2.761 1.37 3.467.37.493.848 1.049 1.11 1.606.152.363.195.749.347 1.134.348.941.674 1.99 1.131 2.868.24.45.5.92.805 1.327.174.235.478.342.544.727-.305.428-.327 1.07-.5 1.606-.784 2.418-.48 5.414.63 7.19.348.536 1.174 1.713 2.284 1.264.978-.386.76-1.606 1.043-2.676.066-.257.022-.428.153-.6v.044c.304.599.609 1.177.891 1.776.675 1.049 1.849 2.14 2.827 2.868.522.385.936 1.049 1.588 1.284v-.064h-.043c-.131-.193-.327-.278-.5-.428-.392-.385-.827-.856-1.132-1.284-.913-1.199-1.718-2.526-2.435-3.896-.348-.663-.653-1.39-.935-2.054-.131-.257-.131-.642-.348-.77-.327.47-.805.877-1.044 1.455-.413.92-.457 2.054-.61 3.232-.086.021-.043 0-.086.042-.696-.171-.935-.877-1.196-1.476-.653-1.52-.762-3.96-.196-5.715.152-.45.805-1.862.544-2.29-.13-.407-.566-.642-.805-.963a8.587 8.587 0 0 1-.783-1.37c-.522-1.198-.783-2.525-1.348-3.724-.261-.556-.718-1.134-1.088-1.648-.413-.578-.87-.984-1.196-1.67-.108-.235-.26-.62-.087-.877.044-.17.13-.235.305-.278.282-.235 1.087.064 1.37.193.804.32 1.479.62 2.153 1.07.304.214.63.62 1.022.728h.457c.696.15 1.478.042 2.13.235 1.154.364 2.197.899 3.133 1.477a19.103 19.103 0 0 1 6.785 7.32c.26.491.37.941.609 1.455.457 1.048 1.022 2.119 1.479 3.146.456 1.006.891 2.033 1.544 2.868.326.45 1.63.685 2.218.92.435.193 1.11.364 1.5.6.74.449 1.48.962 2.175 1.455.348.256 1.436.792 1.5 1.22Z"/>
</svg>
