<svg xmlns="http://www.w3.org/2000/svg" xml:space="preserve" width="32" height="32" viewBox="0 0 32 32">
    <circle cx="16" cy="16" r="16" fill="#5282FF"/>
    <path fill="#FFF" d="M24.9 14.3c1-1 1.4-2.9.2-2.6s-2.6 1-2.6 1c.4-1.1 1-2.1 1.5-3.1 0 0-3.2-1.8-6.7 2.5.5-1.6 1.4-3.2 2.4-4.6 0 0-4.9-1.4-8.2 4.8-2.7 4.9-2.2 7.8-3.8 7.8-1 0-1.4-1-1.4-2.3H4s0 5.3 3.5 5.4c1.3.1 2.6-.5 3.4-1.6 0 0 .6 3.4 2.7 3.5 2.4 0 2.3-2.7 4.3-2.7 2.2 0 1.3 2.5 3.5 2.7 2.7.2 4.9-5.3 4.5-7.4-.5-2.6-1.9-2.3-1-3.4z"/>
    <ellipse cx="13.08" cy="17.302" fill="#5282FF" rx="1.8" ry="1.2" transform="rotate(-52.338 13.08 17.302)"/>
    <ellipse cx="17.274" cy="17.33" fill="#5282FF" rx="1.8" ry="1.2" transform="rotate(-52.338 17.274 17.33)"/>
</svg>
