<svg xmlns="http://www.w3.org/2000/svg" xmlns:xlink="http://www.w3.org/1999/xlink" width="16" height="16" class="yc-icon" fill="currentColor" stroke="none" aria-hidden="true"><svg xmlns="http://www.w3.org/2000/svg" viewBox="0 0 16 16"><path d="M8 16v-.013a.748.748 0 01-.75-.747v-2.48c0-.413.335-.747.75-.747.413 0 .75.334.75.747v1.787A6.6 6.6 0 0014.583 8c0-1.56-.55-3-1.464-4.133A1.5 1.5 0 1112.499 1a1.497 1.497 0 011.488 1.707A7.933 7.933 0 0116 8c0 4.413-3.585 8-8 8zm-6.121-2.573c0-.094.006-.174.02-.254A7.976 7.976 0 010 8c0-4.413 3.585-8 8-8v.013a.76.76 0 01.75.76V3.24a.75.75 0 11-1.5 0l-.002-1.787A6.598 6.598 0 001.416 8c0 1.52.516 2.92 1.383 4.04a1.5 1.5 0 11.581 2.88 1.497 1.497 0 01-1.501-1.493zM5.5 8a2.5 2.5 0 114.999.012A2.5 2.5 0 015.5 8z"></path></svg></svg>