<svg xmlns="http://www.w3.org/2000/svg" width="635" height="250" fill="none" viewBox="0 0 635 250">
    <rect width="635" height="250" fill="#fff" rx="10"/>
    <path fill="#D1D0D8" d="M50 165c22.091 0 40-17.909 40-40S72.091 85 50 85s-40 17.909-40 40 17.909 40 40 40Z"/>
    <path fill="#000" d="m20.937 120.25 5.516-8.288h1.428V122h-1.344v-8.246L21.05 122h-1.428v-10.038h1.316v8.288Zm12.248 1.89c-.56 0-1.069-.084-1.526-.252a3.338 3.338 0 0 1-1.148-.742 3.273 3.273 0 0 1-.728-1.19c-.168-.467-.252-.999-.252-1.596 0-.588.084-1.115.252-1.582.177-.467.425-.859.742-1.176a3.065 3.065 0 0 1 1.162-.742 4.28 4.28 0 0 1 1.554-.266c.448 0 .859.051 1.232.154.373.093.681.233.924.42v1.106a3.257 3.257 0 0 0-1.008-.434 4.145 4.145 0 0 0-1.134-.154c-.85 0-1.475.219-1.876.658-.392.439-.588 1.111-.588 2.016s.191 1.577.574 2.016c.383.439.99.658 1.82.658.439 0 .84-.051 1.204-.154.373-.112.71-.252 1.008-.42v1.106a4.29 4.29 0 0 1-2.212.574Zm6.79-6.356V122h-1.232v-6.216h-2.282v-1.05h5.838v1.05h-2.324Zm6.523 6.356a3.77 3.77 0 0 1-1.386-.252 3.233 3.233 0 0 1-1.12-.728 3.547 3.547 0 0 1-.728-1.19c-.178-.467-.266-1.003-.266-1.61 0-.597.089-1.129.266-1.596.177-.476.42-.873.728-1.19.317-.317.69-.56 1.12-.728a3.77 3.77 0 0 1 1.386-.252c.504 0 .97.084 1.4.252.43.168.798.411 1.106.728.317.317.565.714.742 1.19.186.467.28.999.28 1.596 0 .607-.094 1.143-.28 1.61a3.433 3.433 0 0 1-.742 1.19c-.308.317-.677.56-1.106.728-.43.168-.896.252-1.4.252Zm0-1.106a2.5 2.5 0 0 0 .896-.154 2.04 2.04 0 0 0 .728-.49 2.3 2.3 0 0 0 .476-.84c.112-.336.168-.733.168-1.19 0-.457-.056-.854-.168-1.19a2.167 2.167 0 0 0-.476-.826 1.833 1.833 0 0 0-.728-.49 2.322 2.322 0 0 0-.896-.168c-.327 0-.625.056-.896.168-.27.103-.509.266-.714.49-.196.215-.35.49-.462.826a3.775 3.775 0 0 0-.168 1.19c0 .457.056.854.168 1.19.112.336.266.616.462.84.205.215.443.378.714.49.27.103.57.154.896.154ZM56.95 122h-1.233v-3.192c-.252.196-.546.35-.882.462-.326.103-.7.154-1.12.154-.82 0-1.45-.201-1.89-.602-.429-.411-.644-1.064-.644-1.96v-2.128h1.246v2.142c0 .569.131.966.393 1.19.26.224.63.336 1.105.336.327 0 .645-.047.953-.14.308-.093.588-.238.84-.434v-3.094h1.231V122Zm6.76-3.22h-3.514V122h-1.232v-7.266h1.232v2.996h3.514v-2.996h1.232V122H63.71v-3.22Zm4.484 1.54 3.878-5.586h1.246V122h-1.232v-5.572L68.223 122h-1.26v-7.266h1.232v5.586Zm9.011-1.414h-.644V122H75.33v-7.266h1.232v3.122h.7l2.548-3.122h1.4l-2.982 3.584L81.266 122h-1.498l-2.562-3.094ZM26.5 136.95c.261-.159.466-.406.616-.742.15-.336.266-.761.35-1.274.084-.513.14-1.12.168-1.82.037-.7.07-1.493.098-2.38h4.998v6.216h1.092v3.122h-1.078L32.589 138h-5.404l-.126 2.072h-1.106v-3.122h.546Zm4.998 0v-5.166h-2.66c-.047 1.372-.136 2.473-.266 3.304-.122.821-.336 1.442-.644 1.862h3.57Zm7.798-.336a4.288 4.288 0 0 1-.322.532 2.437 2.437 0 0 1-1.19.854c-.261.093-.57.14-.924.14-.653 0-1.18-.182-1.582-.546-.401-.373-.602-.905-.602-1.596 0-.793.276-1.377.826-1.75.56-.373 1.354-.56 2.38-.56h1.358v-.602c0-.504-.13-.863-.392-1.078-.261-.215-.71-.322-1.344-.322a3.63 3.63 0 0 0-1.274.224 6.03 6.03 0 0 0-1.078.49v-1.106a5.4 5.4 0 0 1 1.05-.462 4.367 4.367 0 0 1 1.47-.238c.915 0 1.61.191 2.086.574.476.373.714.957.714 1.75v4.2c.01.103.014.21.014.322l.028.322c.01.093.019.173.028.238h-1.12a6.439 6.439 0 0 1-.084-.546 8.366 8.366 0 0 1-.028-.63l-.014-.21Zm-2.17.42c.383 0 .71-.079.98-.238.27-.159.49-.341.658-.546.168-.215.29-.42.364-.616.075-.205.112-.35.112-.434v-.532h-1.232c-.737 0-1.274.107-1.61.322-.326.205-.49.518-.49.938 0 .327.098.593.294.798.196.205.504.308.924.308Zm10.03-2.254H43.64V138h-1.232v-7.266h1.232v2.996h3.514v-2.996h1.232V138h-1.232v-3.22Zm7.997 0h-3.514V138h-1.232v-7.266h1.232v2.996h3.514v-2.996h1.232V138h-1.232v-3.22Zm8.629.798c0 .42-.075.784-.224 1.092a2 2 0 0 1-.63.756 2.77 2.77 0 0 1-.966.434 5.03 5.03 0 0 1-1.218.14h-2.339v-7.266h1.232v2.534h1.19c.925 0 1.648.182 2.17.546.523.364.785.952.785 1.764ZM66.063 138H64.83v-7.266h1.233V138Zm-6.427-3.682v2.632h1.106c.533 0 .962-.098 1.289-.294.336-.205.504-.541.504-1.008 0-.476-.15-.817-.448-1.022-.3-.205-.72-.308-1.26-.308h-1.19Zm10.898.798L68.574 138h-1.288l2.632-3.766-2.324-3.5h1.428l1.736 2.562 1.75-2.562h1.274l-2.408 3.472L73.908 138H72.48l-1.946-2.884Z"/>
    <g filter="url(#filter0_d)">
        <path fill="#fff" d="M595 25H155c-8.284 0-15 6.716-15 15v170c0 8.284 6.716 15 15 15h440c8.284 0 15-6.716 15-15V40c0-8.284-6.716-15-15-15Z"/>
    </g>
    <path fill="#18123D" d="M346.207 44.116h3.374c.672 0 1.298.08 1.876.238.579.159 1.083.42 1.512.784.43.364.766.845 1.008 1.442.243.597.364 1.334.364 2.212 0 .886-.126 1.666-.378 2.338-.242.662-.583 1.218-1.022 1.666a4.211 4.211 0 0 1-1.554 1.022 5.536 5.536 0 0 1-1.96.336h-3.22V44.116Zm1.316 1.204v7.644h1.904c.514 0 .985-.08 1.414-.238.43-.159.798-.401 1.106-.728.308-.336.546-.76.714-1.274.168-.513.252-1.125.252-1.834 0-.7-.084-1.279-.252-1.736-.168-.467-.401-.836-.7-1.106a2.334 2.334 0 0 0-1.05-.56 5.036 5.036 0 0 0-1.33-.168h-2.058Zm12.657 7.448a4.211 4.211 0 0 1-.322.532 2.442 2.442 0 0 1-1.19.854c-.261.093-.569.14-.924.14-.653 0-1.181-.182-1.582-.546-.401-.373-.602-.905-.602-1.596 0-.794.275-1.377.826-1.75.56-.373 1.353-.56 2.38-.56h1.358v-.602c0-.504-.131-.864-.392-1.078-.261-.215-.709-.322-1.344-.322-.448 0-.873.074-1.274.224-.401.14-.761.303-1.078.49v-1.106a5.432 5.432 0 0 1 1.05-.462 4.377 4.377 0 0 1 1.47-.238c.915 0 1.61.191 2.086.574.476.373.714.956.714 1.75v4.2c.009.102.014.21.014.322l.028.322c.009.093.019.173.028.238h-1.12a6.387 6.387 0 0 1-.084-.546 8.193 8.193 0 0 1-.028-.63l-.014-.21Zm-2.17.42c.383 0 .709-.08.98-.238.271-.159.49-.34.658-.546a2.42 2.42 0 0 0 .364-.616c.075-.205.112-.35.112-.434v-.532h-1.232c-.737 0-1.274.107-1.61.322-.327.205-.49.518-.49.938 0 .326.098.593.294.798.196.205.504.308.924.308Zm8.839.812a2.252 2.252 0 0 1-.574.21 3.171 3.171 0 0 1-.742.084c-.355 0-.658-.051-.91-.154a1.754 1.754 0 0 1-.602-.406 1.726 1.726 0 0 1-.35-.588 2.45 2.45 0 0 1-.098-.686v-4.522h-.868v-1.05h.868v-1.526h1.232v1.526h2.114v1.05h-2.114v4.368c0 .308.075.532.224.672.159.14.434.21.826.21.364 0 .695-.103.994-.308V54Zm5.895-1.232a4.211 4.211 0 0 1-.322.532 2.416 2.416 0 0 1-1.19.854c-.261.093-.569.14-.924.14-.653 0-1.18-.182-1.582-.546-.401-.373-.602-.905-.602-1.596 0-.794.276-1.377.826-1.75.56-.373 1.354-.56 2.38-.56h1.358v-.602c0-.504-.13-.864-.392-1.078-.261-.215-.709-.322-1.344-.322-.448 0-.872.074-1.274.224-.401.14-.76.303-1.078.49v-1.106a5.488 5.488 0 0 1 1.05-.462 4.377 4.377 0 0 1 1.47-.238c.915 0 1.61.191 2.086.574.476.373.714.956.714 1.75v4.2c.01.102.014.21.014.322l.028.322c.01.093.019.173.028.238h-1.12a6.387 6.387 0 0 1-.084-.546 8.735 8.735 0 0 1-.028-.63l-.014-.21Zm-2.17.42c.383 0 .71-.08.98-.238.271-.159.49-.34.658-.546.168-.215.29-.42.364-.616.075-.205.112-.35.112-.434v-.532h-1.232c-.737 0-1.274.107-1.61.322-.326.205-.49.518-.49.938 0 .326.098.593.294.798.196.205.504.308.924.308Zm11.654.966h-6.202V44.116h1.316v8.848h4.886v1.19Zm7.287-.616a3.979 3.979 0 0 1-.924.49 4.62 4.62 0 0 1-.728.182 4.51 4.51 0 0 1-.91.084c-1.223 0-2.152-.331-2.786-.994-.635-.663-.952-1.591-.952-2.786 0-.588.084-1.116.252-1.582a3.39 3.39 0 0 1 .728-1.176 3.03 3.03 0 0 1 1.092-.742 3.49 3.49 0 0 1 1.372-.266c.522 0 .989.089 1.4.266.41.177.746.438 1.008.784.27.345.452.774.546 1.288.102.504.102 1.092 0 1.764h-5.124c.046.784.28 1.372.7 1.764.42.383 1.045.574 1.876.574.56 0 1.04-.08 1.442-.238a5.064 5.064 0 0 0 1.008-.518v1.106Zm-2.884-5.698c-.532 0-.99.163-1.372.49-.383.327-.626.821-.728 1.484h3.906c.037-.672-.117-1.167-.462-1.484-.346-.327-.794-.49-1.344-.49Zm7.969 0c-.56 0-1.017.13-1.372.392a2.871 2.871 0 0 0-.84.98v4.942h-1.232v-7.266h1.162l.042 1.302h.028a2.46 2.46 0 0 1 .924-1.036c.42-.27.952-.406 1.596-.406.719 0 1.288.191 1.708.574.43.373.644.952.644 1.736v5.096h-1.232v-4.97c0-.504-.126-.854-.378-1.05-.252-.196-.602-.294-1.05-.294Zm6.933 6.454a4.81 4.81 0 0 1-1.022-.098 4.808 4.808 0 0 1-.77-.21 4.27 4.27 0 0 1-.546-.28 3.715 3.715 0 0 1-.35-.266v-1.106c.094.093.22.196.378.308.159.102.35.2.574.294a4.8 4.8 0 0 0 .756.238c.29.056.612.084.966.084.523 0 .938-.084 1.246-.252.308-.168.462-.453.462-.854 0-.215-.051-.388-.154-.518a.933.933 0 0 0-.392-.308 2.416 2.416 0 0 0-.588-.196 28.637 28.637 0 0 0-.686-.14 26 26 0 0 1-.91-.21 3.199 3.199 0 0 1-.812-.35 1.918 1.918 0 0 1-.588-.602c-.149-.252-.224-.579-.224-.98 0-.654.252-1.167.756-1.54.514-.373 1.228-.56 2.142-.56.514 0 .966.051 1.358.154.402.102.71.215.924.336v1.106a3.29 3.29 0 0 0-.91-.392c-.354-.112-.798-.168-1.33-.168-.55 0-.975.075-1.274.224-.289.15-.434.42-.434.812a.82.82 0 0 0 .126.476.998.998 0 0 0 .336.28c.15.065.318.117.504.154.187.037.383.08.588.126.318.065.644.135.98.21.336.075.635.191.896.35.271.159.49.373.658.644.178.261.266.616.266 1.064 0 .42-.084.77-.252 1.05a1.93 1.93 0 0 1-.672.672c-.27.159-.583.27-.938.336-.345.075-.7.112-1.064.112Z"/>
    <path fill="#DAEEF9" d="M171 90a5 5 0 0 1 5-5h70a5 5 0 0 1 5 5v70a5 5 0 0 1-5 5h-70a5 5 0 0 1-5-5V90Z"/>
    <path fill="#D8D8D8" d="M227 109h-32v32h32v-32Z" opacity=".01"/>
    <path fill="#9A32A6" d="M208.675 128.679a1 1 0 0 0-.254-1.32l-4.073-3.054a1 1 0 0 1 .013-1.609L217.706 113l-5.213 9.735a1 1 0 0 0 .282 1.272l4.071 3.053c.55.413.529 1.245-.041 1.63L203 138l5.675-9.321Z"/>
    <path fill="#DAEEF9" d="M280 90a5 5 0 0 1 5-5h70a5 5 0 0 1 5 5v70a5 5 0 0 1-5 5h-70a5 5 0 0 1-5-5V90Zm110 1a5 5 0 0 1 5-5h70a5 5 0 0 1 5 5v70a5 5 0 0 1-5 5h-70a5 5 0 0 1-5-5V91Zm110-1a5 5 0 0 1 5-5h70a5 5 0 0 1 5 5v70a5 5 0 0 1-5 5h-70a5 5 0 0 1-5-5V90Z"/>
    <path fill="#18123D" fill-opacity=".7" d="m139.974 125-5-2.887v5.774l5-2.887ZM90 125.5h45.475v-1H90v1Zm189.985-.5-5-2.887v5.774l5-2.887Zm-29.985.5h25.484v-1H250v1Zm139.985-.5-5-2.887v5.774l5-2.887Zm-29.985.5h25.484v-1H360v1Zm139.985-.5-5-2.887v5.774l5-2.887Zm-29.985.5h25.484v-1H470v1Z"/>
    <path fill="#D8D8D8" d="M332 113h-24v24h24v-24Z" opacity=".01"/>
    <path fill="#43A047" fill-rule="evenodd" d="M323 113h-12v22h18v-16l-6-6Z" clip-rule="evenodd"/>
    <path fill="#fff" d="M326 128h-2v2h2v-2Zm-4 0h-2v2h2v-2Zm-4 0h-4v2h4v-2Zm8-4h-2v2h2v-2Zm-4 0h-2v2h2v-2Zm-4 0h-4v2h4v-2Zm8-4h-2v2h2v-2Zm-4 0h-2v2h2v-2Zm-4 0h-4v2h4v-2Z"/>
    <path fill="#207A40" fill-rule="evenodd" d="M325 119h4l-6-6v4a2 2 0 0 0 2 2Z" clip-rule="evenodd" opacity=".75"/>
    <path fill="#D8D8D8" d="M442 113h-24v24h24v-24Z" opacity=".01"/>
    <path fill="#1E88E5" fill-rule="evenodd" d="M433 113h-12v22h18v-16l-6-6Z" clip-rule="evenodd"/>
    <path fill="#fff" fill-rule="evenodd" d="M435 125a5 5 0 1 1-5-5v5h5Z" clip-rule="evenodd" opacity=".9"/>
    <path fill="#fff" fill-rule="evenodd" d="M435.9 123.099H432v-3.9a5.007 5.007 0 0 1 3.9 3.9Z" clip-rule="evenodd" opacity=".9"/>
    <path fill="#105FCC" fill-rule="evenodd" d="M435 119h4l-6-6v4a2 2 0 0 0 2 2Z" clip-rule="evenodd"/>
    <path fill="#D8D8D8" d="M552 113h-24v24h24v-24Z" opacity=".01"/>
    <path fill="#FDD835" fill-rule="evenodd" d="M543 113h-12v22h18v-16l-6-6Z" clip-rule="evenodd"/>
    <path fill="#D1461F" fill-rule="evenodd" d="M539 118h-5v-2h5v2Zm5 3v-1h-10v1h10Zm-4 10v-3h2v3h-2Zm-3 0h2v-2h-2v2Zm-3 0h2v-1h-2v1Zm0-9h7v1h-7v-1Zm9 9h2v-4h-2v4Z" clip-rule="evenodd"/>
    <g fill-rule="evenodd" clip-rule="evenodd" opacity=".5">
        <path fill="#FDD835" d="M545 119h4l-6-6v4a2 2 0 0 0 2 2Z" opacity=".5"/>
        <path fill="#D1883F" d="M545 119h4l-6-6v4a2 2 0 0 0 2 2Z" opacity=".5"/>
    </g>
    <path fill="#18123D" d="M166.395 171.962h7.546V182h-1.33v-8.834h-4.9V182h-1.316v-10.038Zm12.699 10.178c-.495 0-.957-.084-1.386-.252a3.224 3.224 0 0 1-1.12-.728 3.542 3.542 0 0 1-.728-1.19c-.178-.467-.266-1.003-.266-1.61 0-.597.088-1.129.266-1.596.177-.476.42-.873.728-1.19.317-.317.69-.56 1.12-.728a3.767 3.767 0 0 1 1.386-.252c.504 0 .97.084 1.4.252.429.168.798.411 1.106.728.317.317.564.714.742 1.19.186.467.28.999.28 1.596 0 .607-.094 1.143-.28 1.61a3.448 3.448 0 0 1-.742 1.19c-.308.317-.677.56-1.106.728-.43.168-.896.252-1.4.252Zm0-1.106c.326 0 .625-.051.896-.154.28-.112.522-.275.728-.49.205-.224.364-.504.476-.84.112-.336.168-.733.168-1.19 0-.457-.056-.854-.168-1.19a2.17 2.17 0 0 0-.476-.826 1.838 1.838 0 0 0-.728-.49 2.325 2.325 0 0 0-.896-.168c-.327 0-.626.056-.896.168a1.849 1.849 0 0 0-.714.49c-.196.215-.35.49-.462.826a3.775 3.775 0 0 0-.168 1.19c0 .457.056.854.168 1.19.112.336.266.616.462.84.205.215.443.378.714.49.27.103.569.154.896.154Zm4.569-.084c.261-.159.467-.406.616-.742.149-.336.266-.761.35-1.274.084-.513.14-1.12.168-1.82.037-.7.07-1.493.098-2.38h4.998v6.216h1.092v3.122h-1.078l-.154-2.072h-5.404l-.126 2.072h-1.106v-3.122h.546Zm4.998 0v-5.166h-2.66c-.047 1.372-.135 2.473-.266 3.304-.121.821-.336 1.442-.644 1.862h3.57Zm5.487-2.044h-.644V182h-1.232v-7.266h1.232v3.122h.7l2.548-3.122h1.4l-2.982 3.584 3.038 3.682h-1.498l-2.562-3.094Zm5.916.84c.131-.476.215-1.12.252-1.932a69.86 69.86 0 0 0 .056-3.08h4.886V182h-1.246v-6.216h-2.478a42.616 42.616 0 0 1-.098 2.66c-.047.775-.154 1.428-.322 1.96-.159.532-.397.938-.714 1.218-.308.271-.723.406-1.246.406h-.112a.682.682 0 0 1-.126-.014v-1.218a.988.988 0 0 0 .182.014c.476 0 .798-.355.966-1.064Zm16.362-1.386c0 .607-.089 1.143-.266 1.61a3.376 3.376 0 0 1-.714 1.19 3.01 3.01 0 0 1-1.064.728 3.518 3.518 0 0 1-1.344.252c-.448 0-.868-.075-1.26-.224a3.123 3.123 0 0 1-1.036-.644 3.497 3.497 0 0 1-.714-1.064 4.205 4.205 0 0 1-.336-1.428h-1.204V182h-1.232v-7.266h1.232v2.996h1.232c.056-.504.177-.947.364-1.33.187-.392.425-.719.714-.98a3.122 3.122 0 0 1 1.008-.616c.383-.14.793-.21 1.232-.21.485 0 .933.084 1.344.252a3.01 3.01 0 0 1 1.064.728c.308.317.546.714.714 1.19.177.467.266.999.266 1.596Zm-3.388 2.674a2.2 2.2 0 0 0 .84-.154c.261-.112.485-.275.672-.49.187-.224.331-.504.434-.84.112-.336.168-.733.168-1.19 0-.457-.056-.854-.168-1.19a2.24 2.24 0 0 0-.434-.826 1.657 1.657 0 0 0-.672-.49 2.046 2.046 0 0 0-.84-.168c-.299 0-.579.056-.84.168a1.676 1.676 0 0 0-.658.49c-.187.215-.336.49-.448.826a4.083 4.083 0 0 0-.154 1.19c0 .457.051.854.154 1.19.112.336.261.616.448.84.187.215.406.378.658.49.261.103.541.154.84.154Zm10.305.966h-1.232v-3.192c-.252.196-.546.35-.882.462-.327.103-.7.154-1.12.154-.821 0-1.451-.201-1.89-.602-.429-.411-.644-1.064-.644-1.96v-2.128h1.246v2.142c0 .569.131.966.392 1.19.261.224.63.336 1.106.336.327 0 .644-.047.952-.14.308-.093.588-.238.84-.434v-3.094h1.232V182Zm7.797-.616a3.919 3.919 0 0 1-.378.238c-.15.084-.332.168-.546.252a4.632 4.632 0 0 1-.728.182 4.51 4.51 0 0 1-.91.084c-1.223 0-2.152-.331-2.786-.994-.635-.663-.952-1.591-.952-2.786 0-.588.084-1.115.252-1.582.177-.467.42-.859.728-1.176a3.024 3.024 0 0 1 1.092-.742c.42-.177.877-.266 1.372-.266.522 0 .989.089 1.4.266.41.177.746.439 1.008.784.27.345.452.775.546 1.288.102.504.102 1.092 0 1.764h-5.124c.046.784.28 1.372.7 1.764.42.383 1.045.574 1.876.574.56 0 1.04-.079 1.442-.238a5.07 5.07 0 0 0 1.008-.518v1.106Zm-2.884-5.698c-.532 0-.99.163-1.372.49-.383.327-.626.821-.728 1.484h3.906c.037-.672-.117-1.167-.462-1.484-.346-.327-.794-.49-1.344-.49Zm9.381 3.094h-3.514V182h-1.232v-7.266h1.232v2.996h3.514v-2.996h1.232V182h-1.232v-3.22Zm4.484 1.54 3.878-5.586h1.246V182h-1.232v-5.572L242.149 182h-1.26v-7.266h1.232v5.586Zm12.917 1.064a3.919 3.919 0 0 1-.378.238 4.34 4.34 0 0 1-.546.252 4.604 4.604 0 0 1-.728.182 4.51 4.51 0 0 1-.91.084c-1.223 0-2.151-.331-2.786-.994-.635-.663-.952-1.591-.952-2.786 0-.588.084-1.115.252-1.582.177-.467.42-.859.728-1.176a3.024 3.024 0 0 1 1.092-.742c.42-.177.877-.266 1.372-.266.523 0 .989.089 1.4.266.411.177.747.439 1.008.784.271.345.453.775.546 1.288.103.504.103 1.092 0 1.764h-5.124c.047.784.28 1.372.7 1.764.42.383 1.045.574 1.876.574.56 0 1.041-.079 1.442-.238a5.07 5.07 0 0 0 1.008-.518v1.106Zm-2.884-5.698c-.532 0-.989.163-1.372.49-.383.327-.625.821-.728 1.484h3.906c.037-.672-.117-1.167-.462-1.484-.345-.327-.793-.49-1.344-.49Zm50.704 5.124h1.288v3.57h-1.218l-.14-2.38h-7.21l-.154 2.38h-1.19v-3.57h.686c.318-.289.57-.677.756-1.162.196-.495.346-1.101.448-1.82.103-.719.178-1.563.224-2.534.047-.971.084-2.081.112-3.332h6.398v8.848Zm-1.33 0v-7.644h-3.836a68.59 68.59 0 0 1-.126 2.828 19.987 19.987 0 0 1-.224 2.142 9.191 9.191 0 0 1-.364 1.582c-.14.429-.317.793-.532 1.092h5.082Zm8.438-.196a4.24 4.24 0 0 1-.322.532 2.444 2.444 0 0 1-1.19.854c-.261.093-.569.14-.924.14-.653 0-1.181-.182-1.582-.546-.401-.373-.602-.905-.602-1.596 0-.793.275-1.377.826-1.75.56-.373 1.353-.56 2.38-.56h1.358v-.602c0-.504-.131-.863-.392-1.078-.261-.215-.709-.322-1.344-.322a3.63 3.63 0 0 0-1.274.224c-.401.14-.761.303-1.078.49v-1.106a5.383 5.383 0 0 1 1.05-.462 4.367 4.367 0 0 1 1.47-.238c.915 0 1.61.191 2.086.574.476.373.714.957.714 1.75v4.2c.009.103.014.21.014.322l.028.322c.009.093.019.173.028.238h-1.12a6.439 6.439 0 0 1-.084-.546 8.21 8.21 0 0 1-.028-.63l-.014-.21Zm-2.17.42c.383 0 .709-.079.98-.238.271-.159.49-.341.658-.546.168-.215.289-.42.364-.616.075-.205.112-.35.112-.434v-.532h-1.232c-.737 0-1.274.107-1.61.322-.327.205-.49.518-.49.938 0 .327.098.593.294.798.196.205.504.308.924.308Zm8.141-5.25V182h-1.232v-6.216h-2.282v-1.05h5.838v1.05h-2.324Zm7.797 4.83a4.363 4.363 0 0 1-.322.532 2.444 2.444 0 0 1-1.19.854c-.262.093-.57.14-.924.14-.654 0-1.181-.182-1.582-.546-.402-.373-.602-.905-.602-1.596 0-.793.275-1.377.826-1.75.56-.373 1.353-.56 2.38-.56h1.358v-.602c0-.504-.131-.863-.392-1.078-.262-.215-.71-.322-1.344-.322a3.63 3.63 0 0 0-1.274.224c-.402.14-.761.303-1.078.49v-1.106a5.383 5.383 0 0 1 1.05-.462 4.367 4.367 0 0 1 1.47-.238c.914 0 1.61.191 2.086.574.476.373.714.957.714 1.75v4.2c.009.103.014.21.014.322.009.112.018.219.028.322.009.093.018.173.028.238h-1.12a6.439 6.439 0 0 1-.084-.546 8.21 8.21 0 0 1-.028-.63l-.014-.21Zm-2.17.42c.382 0 .709-.079.98-.238.27-.159.49-.341.658-.546.168-.215.289-.42.364-.616.074-.205.112-.35.112-.434v-.532h-1.232c-.738 0-1.274.107-1.61.322-.327.205-.49.518-.49.938 0 .327.098.593.294.798.196.205.504.308.924.308Zm8.419 1.106c-.56 0-1.069-.084-1.526-.252a3.335 3.335 0 0 1-1.148-.742 3.277 3.277 0 0 1-.728-1.19c-.168-.467-.252-.999-.252-1.596 0-.588.084-1.115.252-1.582.177-.467.425-.859.742-1.176a3.065 3.065 0 0 1 1.162-.742 4.277 4.277 0 0 1 1.554-.266c.448 0 .859.051 1.232.154.373.093.681.233.924.42v1.106a3.263 3.263 0 0 0-1.008-.434 4.145 4.145 0 0 0-1.134-.154c-.849 0-1.475.219-1.876.658-.392.439-.588 1.111-.588 2.016s.191 1.577.574 2.016c.383.439.989.658 1.82.658.439 0 .84-.051 1.204-.154a4.969 4.969 0 0 0 1.008-.42v1.106a4.29 4.29 0 0 1-2.212.574Zm9.646-.756a3.919 3.919 0 0 1-.378.238 4.34 4.34 0 0 1-.546.252 4.604 4.604 0 0 1-.728.182 4.51 4.51 0 0 1-.91.084c-1.223 0-2.151-.331-2.786-.994-.635-.663-.952-1.591-.952-2.786 0-.588.084-1.115.252-1.582.177-.467.42-.859.728-1.176a3.024 3.024 0 0 1 1.092-.742c.42-.177.877-.266 1.372-.266.523 0 .989.089 1.4.266.411.177.747.439 1.008.784.271.345.453.775.546 1.288.103.504.103 1.092 0 1.764h-5.124c.047.784.28 1.372.7 1.764.42.383 1.045.574 1.876.574.56 0 1.041-.079 1.442-.238a5.07 5.07 0 0 0 1.008-.518v1.106Zm-2.884-5.698c-.532 0-.989.163-1.372.49-.383.327-.625.821-.728 1.484h3.906c.037-.672-.117-1.167-.462-1.484-.345-.327-.793-.49-1.344-.49Zm7.493.098V182h-1.232v-6.216h-2.282v-1.05h5.838v1.05h-2.324ZM422.979 182h-1.33v-4.382c-.756.467-1.586.7-2.492.7-1.157 0-2.048-.285-2.674-.854-.625-.579-.938-1.479-.938-2.702v-2.8h1.33v2.8c0 .793.192 1.4.574 1.82.392.411.966.616 1.722.616.458 0 .896-.051 1.316-.154.42-.112.808-.294 1.162-.546v-4.536h1.33V182Zm6.421-1.386a4.363 4.363 0 0 1-.322.532 2.444 2.444 0 0 1-1.19.854c-.262.093-.57.14-.924.14-.654 0-1.181-.182-1.582-.546-.402-.373-.602-.905-.602-1.596 0-.793.275-1.377.826-1.75.56-.373 1.353-.56 2.38-.56h1.358v-.602c0-.504-.131-.863-.392-1.078-.262-.215-.71-.322-1.344-.322a3.63 3.63 0 0 0-1.274.224c-.402.14-.761.303-1.078.49v-1.106a5.383 5.383 0 0 1 1.05-.462 4.367 4.367 0 0 1 1.47-.238c.914 0 1.61.191 2.086.574.476.373.714.957.714 1.75v4.2c.009.103.014.21.014.322.009.112.018.219.028.322.009.093.018.173.028.238h-1.12a6.439 6.439 0 0 1-.084-.546 8.21 8.21 0 0 1-.028-.63l-.014-.21Zm-2.17.42c.382 0 .709-.079.98-.238.27-.159.49-.341.658-.546.168-.215.289-.42.364-.616.074-.205.112-.35.112-.434v-.532h-1.232c-.738 0-1.274.107-1.61.322-.327.205-.49.518-.49.938 0 .327.098.593.294.798.196.205.504.308.924.308Zm8.937 1.106c-.56 0-1.045-.131-1.456-.392a2.856 2.856 0 0 1-.966-1.078v3.808h-1.232v-9.744h1.078l.126 1.414a2.98 2.98 0 0 1 .98-1.134c.411-.28.919-.42 1.526-.42.42 0 .821.079 1.204.238.392.149.733.383 1.022.7.299.308.532.7.7 1.176.177.467.266 1.017.266 1.652 0 .644-.089 1.204-.266 1.68a3.494 3.494 0 0 1-.714 1.176 3.002 3.002 0 0 1-1.036.7 3.44 3.44 0 0 1-1.232.224Zm-.182-1.106c.644 0 1.162-.219 1.554-.658.401-.448.602-1.12.602-2.016 0-.877-.201-1.54-.602-1.988-.392-.457-.91-.686-1.554-.686-.317 0-.616.056-.896.168a1.99 1.99 0 0 0-.714.504c-.196.215-.355.49-.476.826a3.723 3.723 0 0 0-.168 1.176c0 .448.056.84.168 1.176.121.336.28.616.476.84.205.224.443.392.714.504.28.103.579.154.896.154Zm7.712-5.25V182h-1.232v-6.216h-2.282v-1.05h5.838v1.05h-2.324Zm74.78 5.026h1.288v3.57h-1.218l-.14-2.38h-7.21l-.154 2.38h-1.19v-3.57h.686c.317-.289.569-.677.756-1.162.196-.495.345-1.101.448-1.82a27.89 27.89 0 0 0 .224-2.534c.046-.971.084-2.081.112-3.332h6.398v8.848Zm-1.33 0v-7.644h-3.836a68.59 68.59 0 0 1-.126 2.828 20.516 20.516 0 0 1-.224 2.142 9.382 9.382 0 0 1-.364 1.582c-.14.429-.318.793-.532 1.092h5.082Zm8.437-.196a4.24 4.24 0 0 1-.322.532 2.419 2.419 0 0 1-1.19.854c-.261.093-.569.14-.924.14-.653 0-1.18-.182-1.582-.546-.401-.373-.602-.905-.602-1.596 0-.793.276-1.377.826-1.75.56-.373 1.354-.56 2.38-.56h1.358v-.602c0-.504-.13-.863-.392-1.078-.261-.215-.709-.322-1.344-.322-.448 0-.872.075-1.274.224-.401.14-.76.303-1.078.49v-1.106a5.438 5.438 0 0 1 1.05-.462 4.367 4.367 0 0 1 1.47-.238c.915 0 1.61.191 2.086.574.476.373.714.957.714 1.75v4.2c.01.103.014.21.014.322l.028.322c.01.093.019.173.028.238h-1.12a6.439 6.439 0 0 1-.084-.546 8.754 8.754 0 0 1-.028-.63l-.014-.21Zm-2.17.42c.383 0 .71-.079.98-.238.271-.159.49-.341.658-.546.168-.215.29-.42.364-.616.075-.205.112-.35.112-.434v-.532h-1.232c-.737 0-1.274.107-1.61.322-.326.205-.49.518-.49.938 0 .327.098.593.294.798.196.205.504.308.924.308Zm14.355.966h-9.072v-7.266h1.232v6.216h2.688v-6.216h1.232v6.216h2.688v-6.216h1.232V182Zm8.568-3.64c0 .607-.093 1.143-.28 1.61a3.418 3.418 0 0 1-.742 1.19c-.308.317-.676.56-1.106.728a3.807 3.807 0 0 1-1.4.252c-.513 0-.984-.084-1.414-.252a2.922 2.922 0 0 1-1.106-.798c-.308-.355-.55-.803-.728-1.344-.168-.541-.252-1.181-.252-1.918 0-.607.019-1.185.056-1.736a7.645 7.645 0 0 1 .252-1.526c.131-.476.318-.901.56-1.274.252-.383.588-.7 1.008-.952.234-.14.476-.243.728-.308.252-.075.504-.131.756-.168.262-.037.523-.061.784-.07l.77-.028c.374-.028.686-.075.938-.14.252-.065.476-.154.672-.266v1.12a2.136 2.136 0 0 1-.658.28 9.086 9.086 0 0 1-.826.126 57.56 57.56 0 0 1-1.47.112c-.438.019-.84.121-1.204.308a2.176 2.176 0 0 0-.994 1.176c-.186.513-.303 1.125-.35 1.834.486-1.12 1.4-1.68 2.744-1.68.458 0 .882.084 1.274.252.402.159.747.397 1.036.714.299.317.532.709.7 1.176.168.457.252.985.252 1.582Zm-3.528 2.674c.327 0 .626-.051.896-.154a2.04 2.04 0 0 0 .728-.49 2.29 2.29 0 0 0 .476-.84c.112-.336.168-.733.168-1.19 0-.457-.056-.854-.168-1.19a2.158 2.158 0 0 0-.476-.826 1.831 1.831 0 0 0-.728-.49 2.318 2.318 0 0 0-.896-.168c-.644 0-1.18.215-1.61.644-.42.429-.63 1.092-.63 1.988 0 .467.056.873.168 1.218.112.336.266.616.462.84.206.224.444.392.714.504.271.103.57.154.896.154Zm8.052 1.106c-.495 0-.957-.084-1.386-.252a3.233 3.233 0 0 1-1.12-.728 3.542 3.542 0 0 1-.728-1.19c-.177-.467-.266-1.003-.266-1.61 0-.597.089-1.129.266-1.596.177-.476.42-.873.728-1.19.317-.317.691-.56 1.12-.728a3.767 3.767 0 0 1 1.386-.252c.504 0 .971.084 1.4.252.429.168.798.411 1.106.728.317.317.565.714.742 1.19.187.467.28.999.28 1.596 0 .607-.093 1.143-.28 1.61a3.433 3.433 0 0 1-.742 1.19c-.308.317-.677.56-1.106.728a3.807 3.807 0 0 1-1.4.252Zm0-1.106a2.5 2.5 0 0 0 .896-.154 2.04 2.04 0 0 0 .728-.49c.205-.224.364-.504.476-.84.112-.336.168-.733.168-1.19 0-.457-.056-.854-.168-1.19a2.17 2.17 0 0 0-.476-.826 1.831 1.831 0 0 0-.728-.49 2.322 2.322 0 0 0-.896-.168c-.327 0-.625.056-.896.168a1.849 1.849 0 0 0-.714.49c-.196.215-.35.49-.462.826a3.775 3.775 0 0 0-.168 1.19c0 .457.056.854.168 1.19.112.336.266.616.462.84.205.215.443.378.714.49a2.5 2.5 0 0 0 .896.154Zm8.684 1.106c-.56 0-1.046-.131-1.456-.392a2.84 2.84 0 0 1-.966-1.078v3.808h-1.232v-9.744h1.078l.126 1.414c.242-.476.569-.854.98-1.134.41-.28.919-.42 1.526-.42.42 0 .821.079 1.204.238.392.149.732.383 1.022.7.298.308.532.7.7 1.176.177.467.266 1.017.266 1.652 0 .644-.089 1.204-.266 1.68a3.526 3.526 0 0 1-.714 1.176 3.002 3.002 0 0 1-1.036.7 3.44 3.44 0 0 1-1.232.224Zm-.182-1.106c.644 0 1.162-.219 1.554-.658.401-.448.602-1.12.602-2.016 0-.877-.201-1.54-.602-1.988-.392-.457-.91-.686-1.554-.686-.318 0-.616.056-.896.168a1.99 1.99 0 0 0-.714.504c-.196.215-.355.49-.476.826a3.723 3.723 0 0 0-.168 1.176c0 .448.056.84.168 1.176.121.336.28.616.476.84.205.224.443.392.714.504.28.103.578.154.896.154Zm4.394-.084c.261-.159.466-.406.616-.742.149-.336.266-.761.35-1.274.084-.513.14-1.12.168-1.82.037-.7.07-1.493.098-2.38h4.998v6.216h1.092v3.122h-1.078l-.154-2.072h-5.404l-.126 2.072h-1.106v-3.122h.546Zm4.998 0v-5.166h-2.66c-.047 1.372-.136 2.473-.266 3.304-.122.821-.336 1.442-.644 1.862h3.57Z"/>
    <defs>
        <filter id="filter0_d" width="500" height="230" x="125" y="10" color-interpolation-filters="sRGB" filterUnits="userSpaceOnUse">
            <feFlood flood-opacity="0" result="BackgroundImageFix"/>
            <feColorMatrix in="SourceAlpha" values="0 0 0 0 0 0 0 0 0 0 0 0 0 0 0 0 0 0 127 0"/>
            <feOffset/>
            <feGaussianBlur stdDeviation="7.5"/>
            <feColorMatrix values="0 0 0 0 0.592157 0 0 0 0 0.74902 0 0 0 0 0.905882 0 0 0 0.4 0"/>
            <feBlend in2="BackgroundImageFix" result="effect1_dropShadow"/>
            <feBlend in="SourceGraphic" in2="effect1_dropShadow" result="shape"/>
        </filter>
    </defs>
</svg>
