<svg xmlns="http://www.w3.org/2000/svg" width="700" height="520" fill="none" viewBox="0 0 700 520">
    <g filter="url(#filter0_d_42_109)">
        <rect width="626" height="70" x="37" y="102" fill="#fff" rx="10"/>
    </g>
    <g filter="url(#filter1_d_42_109)">
        <rect width="656" height="315" x="22" y="192" fill="#fff" rx="10"/>
    </g>
    <path fill="#5282FF" d="m444 424 5.774-10h-11.548L444 424Zm-63-25h55v-2h-55v2Zm62 7v9h2v-9h-2Zm-7-7a7 7 0 0 1 7 7h2a9 9 0 0 0-9-9v2Z"/>
    <path stroke="#5282FF" stroke-width="2" d="M417 398h-51a8 8 0 0 1-8-8v-18"/>
    <path fill="#5282FF" d="m256 424-5.774-10h11.548L256 424Zm63-25h-55v-2h55v2Zm-62 7v9h-2v-9h2Zm7-7a7 7 0 0 0-7 7h-2a9 9 0 0 1 9-9v2Z"/>
    <path stroke="#5282FF" stroke-width="2" d="M283 398h51a8 8 0 0 0 8-8v-18"/>
    <path fill="#000" fill-opacity=".85" d="M316.474 357.396V366h-1.128v-8.604h1.128Zm4.809 3.192c-.48 0-.872.112-1.176.336a2.455 2.455 0 0 0-.72.84V366h-1.056v-6.228h.996l.036 1.116h.024c.168-.36.432-.656.792-.888.36-.232.816-.348 1.368-.348.616 0 1.104.164 1.464.492.368.32.552.816.552 1.488V366h-1.056v-4.26c0-.432-.108-.732-.324-.9-.216-.168-.516-.252-.9-.252Zm6.998 5.28a1.93 1.93 0 0 1-.492.18c-.2.048-.412.072-.636.072-.304 0-.564-.044-.78-.132a1.504 1.504 0 0 1-.516-.348 1.48 1.48 0 0 1-.3-.504 2.09 2.09 0 0 1-.084-.588v-3.876h-.744v-.9h.744v-1.308h1.056v1.308h1.812v.9h-1.812v3.744c0 .264.064.456.192.576.136.12.372.18.708.18.312 0 .596-.088.852-.264v.96Zm6.303-.396a3.344 3.344 0 0 1-.324.204 3.758 3.758 0 0 1-.468.216 3.946 3.946 0 0 1-.624.156 3.864 3.864 0 0 1-.78.072c-1.048 0-1.844-.284-2.388-.852-.544-.568-.816-1.364-.816-2.388 0-.504.072-.956.216-1.356.152-.4.36-.736.624-1.008.264-.28.576-.492.936-.636.36-.152.752-.228 1.176-.228a3 3 0 0 1 1.2.228c.352.152.64.376.864.672.232.296.388.664.468 1.104.088.432.088.936 0 1.512h-4.392c.04.672.24 1.176.6 1.512.36.328.896.492 1.608.492.48 0 .892-.068 1.236-.204a4.33 4.33 0 0 0 .864-.444v.948Zm-2.472-4.884c-.456 0-.848.14-1.176.42-.328.28-.536.704-.624 1.272h3.348c.032-.576-.1-1-.396-1.272-.296-.28-.68-.42-1.152-.42Zm6.963.24c-.448.04-.856.156-1.224.348-.36.184-.628.472-.804.864V366h-1.056v-6.228h.924l.108 1.356h.024c.176-.368.428-.688.756-.96.336-.28.76-.452 1.272-.516v1.176Zm4.239-.24c-.48 0-.872.112-1.176.336a2.455 2.455 0 0 0-.72.84V366h-1.056v-6.228h.996l.036 1.116h.024c.168-.36.432-.656.792-.888.36-.232.816-.348 1.368-.348.616 0 1.104.164 1.464.492.368.32.552.816.552 1.488V366h-1.056v-4.26c0-.432-.108-.732-.324-.9-.216-.168-.516-.252-.9-.252Zm7.598 4.224a3.648 3.648 0 0 1-.276.456 2.088 2.088 0 0 1-1.02.732c-.224.08-.488.12-.792.12-.56 0-1.012-.156-1.356-.468-.344-.32-.516-.776-.516-1.368 0-.68.236-1.18.708-1.5.48-.32 1.16-.48 2.04-.48h1.164v-.516c0-.432-.112-.74-.336-.924-.224-.184-.608-.276-1.152-.276-.384 0-.748.064-1.092.192-.344.12-.652.26-.924.42v-.948c.224-.136.524-.268.9-.396a3.75 3.75 0 0 1 1.26-.204c.784 0 1.38.164 1.788.492.408.32.612.82.612 1.5v3.6c.008.088.012.18.012.276l.024.276c.008.08.016.148.024.204h-.96a5.482 5.482 0 0 1-.072-.468 7.173 7.173 0 0 1-.024-.54l-.012-.18Zm-1.86.36c.328 0 .608-.068.84-.204.232-.136.42-.292.564-.468.144-.184.248-.36.312-.528.064-.176.096-.3.096-.372v-.456h-1.056c-.632 0-1.092.092-1.38.276-.28.176-.42.444-.42.804 0 .28.084.508.252.684.168.176.432.264.792.264Zm5.585-7.776V366h-1.056v-8.604h1.056ZM366.063 366h-1.536l-4.32-7.224V366h-1.068v-8.604h1.524l4.32 7.224v-7.224h1.08V366Zm7.322 0h-5.316v-8.604h1.128v7.584h4.188V366Zm1.551-8.604h2.916c.944 0 1.66.16 2.148.48.496.32.744.86.744 1.62 0 .312-.044.584-.132.816-.08.224-.196.42-.348.588-.144.16-.324.292-.54.396a2.97 2.97 0 0 1-.696.24c.672.08 1.176.276 1.512.588.344.304.516.768.516 1.392 0 .448-.084.832-.252 1.152-.16.312-.384.568-.672.768a3.191 3.191 0 0 1-1.02.432c-.392.088-.82.132-1.284.132h-2.892v-8.604Zm1.128 1.032v2.64h1.704c.272 0 .52-.028.744-.084.224-.064.416-.156.576-.276.16-.128.284-.284.372-.468.096-.192.144-.42.144-.684 0-.44-.152-.736-.456-.888-.304-.16-.736-.24-1.296-.24h-1.788Zm0 3.66v2.892h1.764c.304 0 .58-.024.828-.072.248-.048.46-.128.636-.24a1.12 1.12 0 0 0 .42-.444c.104-.184.156-.412.156-.684 0-.544-.176-.92-.528-1.128-.344-.216-.892-.324-1.644-.324h-1.632Z"/>
    <path fill="#5282FF" fill-rule="evenodd" d="M355.126 325H351a2 2 0 0 0-2 2v8h6.126a4.002 4.002 0 0 1 7.874 1 4 4 0 0 1-7.874 1H349v8a2 2 0 0 0 2 2h4.126a4.002 4.002 0 0 1 7.874 1 4 4 0 0 1-7.874 1H351a4 4 0 0 1-4-4v-18a4 4 0 0 1 4-4h4.126a4.002 4.002 0 0 1 7.874 1 4 4 0 0 1-7.874 1ZM357 348a2 2 0 1 0 3.999.001A2 2 0 0 0 357 348Zm2-10a2 2 0 1 1-.001-3.999A2 2 0 0 1 359 338Zm-2-14a2 2 0 1 0 3.999.001A2 2 0 0 0 357 324Zm-23 11a1 1 0 0 0 0 2h7.586l-2.293 2.293a.999.999 0 1 0 1.414 1.414l4-4a.999.999 0 0 0 0-1.414l-4-4a.999.999 0 1 0-1.414 1.414l2.293 2.293H334Z" clip-rule="evenodd"/>
    <rect width="138" height="66" x="178" y="425" fill="#fff" stroke="#FF5958" stroke-width="2" rx="9"/>
    <path fill="#5282FF" fill-rule="evenodd" d="M209.052 444.646a2.003 2.003 0 0 1 1.896 0l9.943 5.354L210 455.864l-8.463-4.557a1 1 0 0 0-.949 1.761l8.412 4.529v9.715a1 1 0 1 0 2 0v-9.715l10.997-5.921c.002.038.003.077.003.116v11.416a2 2 0 0 1-1.052 1.761l-10 5.385a2.003 2.003 0 0 1-1.896 0l-10-5.385a2 2 0 0 1-1.052-1.761v-11.416a2 2 0 0 1 1.052-1.761l10-5.385Zm2.844-1.761a4.001 4.001 0 0 0-3.792 0l-10 5.385a4 4 0 0 0-2.104 3.522v11.416a4 4 0 0 0 2.104 3.522l10 5.385a4.001 4.001 0 0 0 3.792 0l10-5.385a4 4 0 0 0 2.104-3.522v-11.416a4 4 0 0 0-2.104-3.522l-10-5.385Z" clip-rule="evenodd"/>
    <path fill="#000" fill-opacity=".85" d="M246.426 462.12c-.392 0-.744-.028-1.056-.084a5.07 5.07 0 0 1-.828-.192 4.264 4.264 0 0 1-.6-.276 2.38 2.38 0 0 1-.384-.3v-1.08c.12.104.276.212.468.324.192.104.412.2.66.288.256.088.528.16.816.216.296.056.604.084.924.084.624 0 1.12-.116 1.488-.348.368-.24.552-.6.552-1.08 0-.24-.044-.436-.132-.588a1.07 1.07 0 0 0-.384-.396 2.236 2.236 0 0 0-.636-.276c-.248-.08-.54-.164-.876-.252a16.032 16.032 0 0 1-1.008-.3 3.714 3.714 0 0 1-.912-.444 2.247 2.247 0 0 1-.648-.696c-.16-.28-.24-.636-.24-1.068 0-.744.26-1.324.78-1.74.52-.416 1.316-.624 2.388-.624.312 0 .588.02.828.06.248.032.464.076.648.132.192.048.356.104.492.168.144.064.272.124.384.18v1.08a3.368 3.368 0 0 0-1.092-.456 5.19 5.19 0 0 0-1.26-.144c-.384 0-.708.032-.972.096-.256.056-.464.14-.624.252a.995.995 0 0 0-.348.408c-.072.16-.108.34-.108.54 0 .24.052.44.156.6.112.16.256.296.432.408.184.104.392.192.624.264.232.072.476.136.732.192.336.08.68.172 1.032.276.352.104.668.248.948.432.28.184.508.424.684.72.184.288.276.664.276 1.128 0 .456-.092.844-.276 1.164a2.247 2.247 0 0 1-.708.768 3 3 0 0 1-1.02.432 5.356 5.356 0 0 1-1.2.132Zm8.483-1.236a2.233 2.233 0 0 1-.78.888c-.344.232-.796.348-1.356.348-.576 0-1.044-.16-1.404-.48-.352-.328-.528-.832-.528-1.512v-4.356h1.068v4.356c0 .208.028.38.084.516a.886.886 0 0 0 .612.48c.144.032.3.048.468.048.464 0 .836-.104 1.116-.312.28-.208.52-.492.72-.852v-4.236h1.056V462h-.936l-.096-1.116h-.024Zm8.705-2.004c0 .552-.076 1.032-.228 1.44a3.01 3.01 0 0 1-.612 1.008 2.566 2.566 0 0 1-.888.6 2.941 2.941 0 0 1-1.056.192c-.48 0-.9-.112-1.26-.336a2.46 2.46 0 0 1-.84-.96l-.036 1.176h-.996v-8.604h1.056l-.024 3.588c.208-.408.488-.732.84-.972s.788-.36 1.308-.36c.36 0 .704.068 1.032.204.336.128.628.328.876.6.256.264.456.6.6 1.008.152.4.228.872.228 1.416Zm-2.94 2.292c.552 0 .996-.188 1.332-.564.344-.384.516-.96.516-1.728 0-.752-.172-1.32-.516-1.704-.336-.392-.78-.588-1.332-.588-.272 0-.528.048-.768.144a1.71 1.71 0 0 0-.612.432c-.168.184-.304.42-.408.708a3.191 3.191 0 0 0-.144 1.008c0 .384.048.72.144 1.008.104.288.24.528.408.72.176.192.38.336.612.432.24.088.496.132.768.132Zm7.171-4.584c-.48 0-.872.112-1.176.336a2.455 2.455 0 0 0-.72.84V462h-1.056v-6.228h.996l.036 1.116h.024c.168-.36.432-.656.792-.888.36-.232.816-.348 1.368-.348.616 0 1.104.164 1.464.492.368.32.552.816.552 1.488V462h-1.056v-4.26c0-.432-.108-.732-.324-.9-.216-.168-.516-.252-.9-.252Zm8.907 4.884a3.344 3.344 0 0 1-.324.204 3.758 3.758 0 0 1-.468.216 3.946 3.946 0 0 1-.624.156 3.864 3.864 0 0 1-.78.072c-1.048 0-1.844-.284-2.388-.852-.544-.568-.816-1.364-.816-2.388 0-.504.072-.956.216-1.356.152-.4.36-.736.624-1.008.264-.28.576-.492.936-.636.36-.152.752-.228 1.176-.228a3 3 0 0 1 1.2.228c.352.152.64.376.864.672.232.296.388.664.468 1.104.088.432.088.936 0 1.512h-4.392c.04.672.24 1.176.6 1.512.36.328.896.492 1.608.492.48 0 .892-.068 1.236-.204a4.33 4.33 0 0 0 .864-.444v.948Zm-2.472-4.884c-.456 0-.848.14-1.176.42-.328.28-.536.704-.624 1.272h3.348c.032-.576-.1-1-.396-1.272-.296-.28-.68-.42-1.152-.42Zm6.927 5.28a1.93 1.93 0 0 1-.492.18c-.2.048-.412.072-.636.072-.304 0-.564-.044-.78-.132a1.504 1.504 0 0 1-.516-.348 1.48 1.48 0 0 1-.3-.504 2.09 2.09 0 0 1-.084-.588v-3.876h-.744v-.9h.744v-1.308h1.056v1.308h1.812v.9h-1.812v3.744c0 .264.064.456.192.576.136.12.372.18.708.18.312 0 .596-.088.852-.264v.96Zm7.642.132h-1.092v-7.248l-2.376 1.824v-1.212l2.556-1.968h.912V462Z"/>
    <rect width="138" height="66" x="384" y="425" fill="#fff" stroke="#FFDB4D" stroke-width="2" rx="9"/>
    <path fill="#5282FF" fill-rule="evenodd" d="M415.052 444.646a2.003 2.003 0 0 1 1.896 0l9.943 5.354L416 455.864l-8.463-4.557a1 1 0 0 0-.949 1.761l8.412 4.529v9.715a1 1 0 1 0 2 0v-9.715l10.997-5.921c.002.038.003.077.003.116v11.416a2 2 0 0 1-1.052 1.761l-10 5.385a2.003 2.003 0 0 1-1.896 0l-10-5.385a2 2 0 0 1-1.052-1.761v-11.416a2 2 0 0 1 1.052-1.761l10-5.385Zm2.844-1.761a4.001 4.001 0 0 0-3.792 0l-10 5.385a4 4 0 0 0-2.104 3.522v11.416a4 4 0 0 0 2.104 3.522l10 5.385a4.001 4.001 0 0 0 3.792 0l10-5.385a4 4 0 0 0 2.104-3.522v-11.416a4 4 0 0 0-2.104-3.522l-10-5.385Z" clip-rule="evenodd"/>
    <path fill="#000" fill-opacity=".85" d="M452.426 462.12c-.392 0-.744-.028-1.056-.084a5.07 5.07 0 0 1-.828-.192 4.264 4.264 0 0 1-.6-.276 2.38 2.38 0 0 1-.384-.3v-1.08c.12.104.276.212.468.324.192.104.412.2.66.288.256.088.528.16.816.216.296.056.604.084.924.084.624 0 1.12-.116 1.488-.348.368-.24.552-.6.552-1.08 0-.24-.044-.436-.132-.588a1.07 1.07 0 0 0-.384-.396 2.236 2.236 0 0 0-.636-.276c-.248-.08-.54-.164-.876-.252a16.032 16.032 0 0 1-1.008-.3 3.714 3.714 0 0 1-.912-.444 2.247 2.247 0 0 1-.648-.696c-.16-.28-.24-.636-.24-1.068 0-.744.26-1.324.78-1.74.52-.416 1.316-.624 2.388-.624.312 0 .588.02.828.06.248.032.464.076.648.132.192.048.356.104.492.168.144.064.272.124.384.18v1.08a3.368 3.368 0 0 0-1.092-.456 5.19 5.19 0 0 0-1.26-.144c-.384 0-.708.032-.972.096-.256.056-.464.14-.624.252a.995.995 0 0 0-.348.408c-.072.16-.108.34-.108.54 0 .24.052.44.156.6.112.16.256.296.432.408.184.104.392.192.624.264.232.072.476.136.732.192.336.08.68.172 1.032.276.352.104.668.248.948.432.28.184.508.424.684.72.184.288.276.664.276 1.128 0 .456-.092.844-.276 1.164a2.247 2.247 0 0 1-.708.768 3 3 0 0 1-1.02.432 5.356 5.356 0 0 1-1.2.132Zm8.483-1.236a2.233 2.233 0 0 1-.78.888c-.344.232-.796.348-1.356.348-.576 0-1.044-.16-1.404-.48-.352-.328-.528-.832-.528-1.512v-4.356h1.068v4.356c0 .208.028.38.084.516a.886.886 0 0 0 .612.48c.144.032.3.048.468.048.464 0 .836-.104 1.116-.312.28-.208.52-.492.72-.852v-4.236h1.056V462h-.936l-.096-1.116h-.024Zm8.705-2.004c0 .552-.076 1.032-.228 1.44a3.01 3.01 0 0 1-.612 1.008 2.566 2.566 0 0 1-.888.6 2.941 2.941 0 0 1-1.056.192c-.48 0-.9-.112-1.26-.336a2.46 2.46 0 0 1-.84-.96l-.036 1.176h-.996v-8.604h1.056l-.024 3.588c.208-.408.488-.732.84-.972s.788-.36 1.308-.36c.36 0 .704.068 1.032.204.336.128.628.328.876.6.256.264.456.6.6 1.008.152.4.228.872.228 1.416Zm-2.94 2.292c.552 0 .996-.188 1.332-.564.344-.384.516-.96.516-1.728 0-.752-.172-1.32-.516-1.704-.336-.392-.78-.588-1.332-.588-.272 0-.528.048-.768.144a1.71 1.71 0 0 0-.612.432c-.168.184-.304.42-.408.708a3.191 3.191 0 0 0-.144 1.008c0 .384.048.72.144 1.008.104.288.24.528.408.72.176.192.38.336.612.432.24.088.496.132.768.132Zm7.171-4.584c-.48 0-.872.112-1.176.336a2.455 2.455 0 0 0-.72.84V462h-1.056v-6.228h.996l.036 1.116h.024c.168-.36.432-.656.792-.888.36-.232.816-.348 1.368-.348.616 0 1.104.164 1.464.492.368.32.552.816.552 1.488V462h-1.056v-4.26c0-.432-.108-.732-.324-.9-.216-.168-.516-.252-.9-.252Zm8.907 4.884a3.344 3.344 0 0 1-.324.204 3.758 3.758 0 0 1-.468.216 3.946 3.946 0 0 1-.624.156 3.864 3.864 0 0 1-.78.072c-1.048 0-1.844-.284-2.388-.852-.544-.568-.816-1.364-.816-2.388 0-.504.072-.956.216-1.356.152-.4.36-.736.624-1.008.264-.28.576-.492.936-.636.36-.152.752-.228 1.176-.228a3 3 0 0 1 1.2.228c.352.152.64.376.864.672.232.296.388.664.468 1.104.088.432.088.936 0 1.512h-4.392c.04.672.24 1.176.6 1.512.36.328.896.492 1.608.492.48 0 .892-.068 1.236-.204a4.33 4.33 0 0 0 .864-.444v.948Zm-2.472-4.884c-.456 0-.848.14-1.176.42-.328.28-.536.704-.624 1.272h3.348c.032-.576-.1-1-.396-1.272-.296-.28-.68-.42-1.152-.42Zm6.927 5.28a1.93 1.93 0 0 1-.492.18c-.2.048-.412.072-.636.072-.304 0-.564-.044-.78-.132a1.504 1.504 0 0 1-.516-.348 1.48 1.48 0 0 1-.3-.504 2.09 2.09 0 0 1-.084-.588v-3.876h-.744v-.9h.744v-1.308h1.056v1.308h1.812v.9h-1.812v3.744c0 .264.064.456.192.576.136.12.372.18.708.18.312 0 .596-.088.852-.264v.96Zm9.25.132h-5.484v-1.14a68.501 68.501 0 0 0 1.884-1.56c.536-.456.976-.876 1.32-1.26.344-.384.6-.748.768-1.092.168-.352.252-.716.252-1.092 0-.472-.144-.852-.432-1.14-.28-.296-.692-.444-1.236-.444-.456 0-.88.112-1.272.336a4.3 4.3 0 0 0-1.056.852v-1.212a3.647 3.647 0 0 1 1.032-.708c.384-.176.828-.264 1.332-.264a3.6 3.6 0 0 1 1.188.18c.352.12.644.288.876.504.24.216.42.476.54.78.128.304.192.64.192 1.008 0 .464-.092.9-.276 1.308a4.81 4.81 0 0 1-.792 1.224c-.352.408-.788.832-1.308 1.272a51.9 51.9 0 0 1-1.764 1.416h4.236V462Z"/>
    <g filter="url(#filter2_d_42_109)">
        <rect width="140" height="137" x="37" y="272" fill="#fff" rx="10"/>
    </g>
    <path fill="#000" fill-opacity=".85" d="M75.717 298.116a3.066 3.066 0 0 0-1.236.216 1.69 1.69 0 0 0-.84.72V303h-1.392v-6.228h1.272l.096 1.296h.024c.2-.384.472-.704.816-.96a2.517 2.517 0 0 1 1.26-.456v1.464Zm3.708 5.004c-.44 0-.848-.072-1.224-.216a2.867 2.867 0 0 1-.984-.624 3.091 3.091 0 0 1-.648-1.02c-.152-.4-.228-.86-.228-1.38 0-.52.076-.98.228-1.38.16-.4.376-.736.648-1.008.28-.28.608-.488.984-.624a3.394 3.394 0 0 1 1.224-.216c.44 0 .848.072 1.224.216.376.136.704.344.984.624.28.272.5.608.66 1.008.16.4.24.86.24 1.38 0 .52-.08.98-.24 1.38-.16.4-.38.74-.66 1.02-.28.272-.608.48-.984.624a3.394 3.394 0 0 1-1.224.216Zm0-1.164c.48 0 .876-.168 1.188-.504.32-.336.48-.86.48-1.572 0-.704-.16-1.224-.48-1.56a1.534 1.534 0 0 0-1.188-.516c-.472 0-.868.172-1.188.516-.312.336-.468.856-.468 1.56 0 .712.156 1.236.468 1.572.32.336.716.504 1.188.504Zm8.245.024c-.168.32-.42.592-.756.816-.328.216-.76.324-1.296.324-.584 0-1.06-.168-1.428-.504-.368-.336-.552-.848-.552-1.536v-4.308h1.404v4.272c0 .36.1.604.3.732.2.12.444.18.732.18.392 0 .712-.08.96-.24a2.23 2.23 0 0 0 .636-.672v-4.272h1.38V303h-1.272l-.084-1.02h-.024Zm6.302.828c-.144.088-.324.16-.54.216a2.623 2.623 0 0 1-.744.096c-.336 0-.62-.044-.852-.132a1.551 1.551 0 0 1-.552-.384 1.454 1.454 0 0 1-.312-.552 2.396 2.396 0 0 1-.096-.684V297.9h-.744v-1.128h.744v-1.308h1.392v1.308h1.788v1.128h-1.788v3.312c0 .256.06.444.18.564.128.12.336.18.624.18.192 0 .36-.028.504-.084.144-.056.276-.132.396-.228v1.164Zm6.442-.264c-.088.056-.196.12-.324.192a3.2 3.2 0 0 1-.456.18 4.628 4.628 0 0 1-1.404.204c-1.144 0-2-.284-2.568-.852-.56-.568-.84-1.364-.84-2.388 0-.504.076-.956.228-1.356.152-.4.364-.736.636-1.008.272-.28.596-.492.972-.636a3.268 3.268 0 0 1 1.236-.228c.464 0 .88.076 1.248.228.376.152.684.38.924.684.24.304.404.68.492 1.128.096.448.1.972.012 1.572h-4.308c.056.568.244.996.564 1.284.32.28.82.42 1.5.42.496 0 .908-.06 1.236-.18.336-.128.62-.26.852-.396v1.152Zm-2.52-4.788c-.408 0-.752.124-1.032.372s-.464.616-.552 1.104h2.928c.016-.504-.096-.876-.336-1.116-.24-.24-.576-.36-1.008-.36Zm3.789.972h2.94v1.188h-2.94v-1.188Zm7.746 4.08c-.144.088-.324.16-.54.216a2.623 2.623 0 0 1-.744.096c-.336 0-.62-.044-.852-.132a1.551 1.551 0 0 1-.552-.384 1.454 1.454 0 0 1-.312-.552 2.396 2.396 0 0 1-.096-.684V297.9h-.744v-1.128h.744v-1.308h1.392v1.308h1.788v1.128h-1.788v3.312c0 .256.06.444.18.564.128.12.336.18.624.18.192 0 .36-.028.504-.084.144-.056.276-.132.396-.228v1.164Zm4.88-.9a2.09 2.09 0 0 1-.264.432 1.857 1.857 0 0 1-.396.396 1.98 1.98 0 0 1-.552.276 2.393 2.393 0 0 1-.756.108c-.272 0-.524-.04-.756-.12a1.692 1.692 0 0 1-.612-.336 1.734 1.734 0 0 1-.408-.564 2.056 2.056 0 0 1-.144-.792c0-.68.252-1.188.756-1.524.504-.344 1.216-.516 2.136-.516h.948v-.384c0-.408-.104-.688-.312-.84-.208-.16-.552-.24-1.032-.24-.408 0-.792.06-1.152.18a5.066 5.066 0 0 0-.936.396v-1.164a5.05 5.05 0 0 1 .984-.384c.408-.12.852-.18 1.332-.18.8 0 1.416.168 1.848.504.44.328.66.856.66 1.584v3.504c.008.088.012.18.012.276l.024.276c.008.08.016.148.024.204h-1.284a5.482 5.482 0 0 1-.072-.468c-.016-.2-.028-.38-.036-.54l-.012-.084Zm-1.584.132c.296 0 .54-.06.732-.18.2-.128.36-.272.48-.432.12-.168.204-.332.252-.492.048-.16.072-.272.072-.336v-.42h-.864c-.552 0-.956.088-1.212.264a.81.81 0 0 0-.384.72c0 .272.076.488.228.648.16.152.392.228.696.228Zm10.622-2.16c0 .552-.076 1.032-.228 1.44-.144.4-.344.736-.6 1.008-.248.264-.54.464-.876.6a2.941 2.941 0 0 1-1.056.192c-.48 0-.896-.108-1.248-.324a2.467 2.467 0 0 1-.828-.912l-.036 1.116h-1.32v-8.604h1.392l-.012 3.468c.208-.376.484-.672.828-.888.344-.216.76-.324 1.248-.324.368 0 .716.068 1.044.204.336.128.628.328.876.6.248.264.444.6.588 1.008.152.4.228.872.228 1.416Zm-3.096 2.076c.496 0 .896-.168 1.2-.504.312-.344.468-.868.468-1.572 0-.696-.156-1.216-.468-1.56-.304-.344-.7-.516-1.188-.516-.248 0-.476.044-.684.132-.208.08-.392.208-.552.384a1.93 1.93 0 0 0-.36.66 2.771 2.771 0 0 0-.132.9c0 .352.044.66.132.924.088.256.208.472.36.648.152.168.332.296.54.384.216.08.444.12.684.12Zm5.667-7.56V303h-1.392v-8.604h1.392Zm6.769 8.148c-.088.056-.196.12-.324.192-.128.064-.28.124-.456.18a4.628 4.628 0 0 1-1.404.204c-1.144 0-2-.284-2.568-.852-.56-.568-.84-1.364-.84-2.388 0-.504.076-.956.228-1.356.152-.4.364-.736.636-1.008.272-.28.596-.492.972-.636a3.268 3.268 0 0 1 1.236-.228c.464 0 .88.076 1.248.228.376.152.684.38.924.684.24.304.404.68.492 1.128.096.448.1.972.012 1.572h-4.308c.056.568.244.996.564 1.284.32.28.82.42 1.5.42.496 0 .908-.06 1.236-.18.336-.128.62-.26.852-.396v1.152Zm-2.52-4.788c-.408 0-.752.124-1.032.372s-.464.616-.552 1.104h2.928c.016-.504-.096-.876-.336-1.116-.24-.24-.576-.36-1.008-.36ZM140.626 303h-1.44v-7.02l-2.448 1.824v-1.44l2.64-1.968h1.248V303Zm-63.514 19.396h2.88c1.015 0 1.787.2 2.316.6.535.392.803 1.012.803 1.86 0 .752-.184 1.328-.552 1.728-.36.4-.835.664-1.427.792l2.34 3.624H82.2l-2.245-3.492H78.24V331h-1.128v-8.604Zm1.128 1.032v3.06h1.644c.303 0 .58-.028.828-.084a1.71 1.71 0 0 0 .647-.276 1.23 1.23 0 0 0 .42-.504c.105-.216.157-.48.157-.792 0-.512-.169-.872-.505-1.08-.335-.216-.816-.324-1.44-.324H78.24Zm8.924 7.692c-.424 0-.82-.072-1.188-.216a2.767 2.767 0 0 1-.96-.624 3.04 3.04 0 0 1-.624-1.02c-.152-.4-.228-.86-.228-1.38 0-.512.076-.968.228-1.368a2.89 2.89 0 0 1 .624-1.02c.272-.272.592-.48.96-.624a3.231 3.231 0 0 1 1.188-.216c.432 0 .832.072 1.2.216.368.144.684.352.948.624.272.272.484.612.636 1.02.16.4.24.856.24 1.368 0 .52-.08.98-.24 1.38-.152.4-.364.74-.636 1.02-.264.272-.58.48-.948.624a3.265 3.265 0 0 1-1.2.216Zm0-.948c.28 0 .536-.044.768-.132.24-.096.448-.236.624-.42.176-.192.312-.432.408-.72.096-.288.144-.628.144-1.02s-.048-.732-.144-1.02a1.855 1.855 0 0 0-.408-.708 1.569 1.569 0 0 0-.624-.42 1.99 1.99 0 0 0-.768-.144c-.28 0-.536.048-.768.144a1.586 1.586 0 0 0-.612.42c-.168.184-.3.42-.396.708a3.234 3.234 0 0 0-.144 1.02c0 .392.048.732.144 1.02.096.288.228.528.396.72.176.184.38.324.612.42.232.088.488.132.768.132Zm8.307-.288a2.233 2.233 0 0 1-.78.888c-.344.232-.796.348-1.356.348-.576 0-1.044-.16-1.404-.48-.352-.328-.528-.832-.528-1.512v-4.356h1.068v4.356c0 .208.028.38.084.516a.886.886 0 0 0 .612.48c.144.032.3.048.468.048.464 0 .836-.104 1.116-.312.28-.208.52-.492.72-.852v-4.236h1.056V331h-.936l-.096-1.116h-.024Zm5.837.984a1.93 1.93 0 0 1-.492.18c-.2.048-.412.072-.636.072-.304 0-.564-.044-.78-.132a1.504 1.504 0 0 1-.516-.348 1.48 1.48 0 0 1-.3-.504 2.09 2.09 0 0 1-.084-.588v-3.876h-.743v-.9h.743v-1.308h1.056v1.308h1.812v.9h-1.811v3.744c0 .264.064.456.192.576.136.12.371.18.707.18.312 0 .596-.088.852-.264v.96Zm6.303-.396a3.344 3.344 0 0 1-.324.204 3.758 3.758 0 0 1-.468.216 3.946 3.946 0 0 1-.624.156 3.864 3.864 0 0 1-.78.072c-1.048 0-1.844-.284-2.388-.852-.544-.568-.816-1.364-.816-2.388 0-.504.072-.956.216-1.356.152-.4.36-.736.624-1.008.264-.28.576-.492.936-.636.36-.152.752-.228 1.176-.228a3 3 0 0 1 1.2.228c.352.152.64.376.864.672.232.296.388.664.468 1.104.088.432.088.936 0 1.512h-4.392c.04.672.24 1.176.6 1.512.36.328.896.492 1.608.492.48 0 .892-.068 1.236-.204a4.33 4.33 0 0 0 .864-.444v.948Zm-2.472-4.884c-.456 0-.848.14-1.176.42-.328.28-.536.704-.624 1.272h3.348c.032-.576-.1-1-.396-1.272-.296-.28-.68-.42-1.152-.42Zm9.564 5.28a1.93 1.93 0 0 1-.492.18c-.2.048-.412.072-.636.072-.304 0-.564-.044-.78-.132a1.504 1.504 0 0 1-.516-.348 1.48 1.48 0 0 1-.3-.504 2.09 2.09 0 0 1-.084-.588v-3.876h-.744v-.9h.744v-1.308h1.056v1.308h1.812v.9h-1.812v3.744c0 .264.064.456.192.576.136.12.372.18.708.18.312 0 .596-.088.852-.264v.96Zm5.053-1.056a3.648 3.648 0 0 1-.276.456 2.088 2.088 0 0 1-1.02.732c-.224.08-.488.12-.792.12-.56 0-1.012-.156-1.356-.468-.344-.32-.516-.776-.516-1.368 0-.68.236-1.18.708-1.5.48-.32 1.16-.48 2.04-.48h1.164v-.516c0-.432-.112-.74-.336-.924-.224-.184-.608-.276-1.152-.276-.384 0-.748.064-1.092.192-.344.12-.652.26-.924.42v-.948c.224-.136.524-.268.9-.396a3.75 3.75 0 0 1 1.26-.204c.784 0 1.38.164 1.788.492.408.32.612.82.612 1.5v3.6c.008.088.012.18.012.276l.024.276c.008.08.016.148.024.204h-.96a5.482 5.482 0 0 1-.072-.468 7.173 7.173 0 0 1-.024-.54l-.012-.18Zm-1.86.36c.328 0 .608-.068.84-.204.232-.136.42-.292.564-.468.144-.184.248-.36.312-.528.064-.176.096-.3.096-.372v-.456h-1.056c-.632 0-1.092.092-1.38.276-.28.176-.42.444-.42.804 0 .28.084.508.252.684.168.176.432.264.792.264Zm10.445-2.292c0 .552-.076 1.032-.228 1.44a3.01 3.01 0 0 1-.612 1.008 2.566 2.566 0 0 1-.888.6 2.941 2.941 0 0 1-1.056.192c-.48 0-.9-.112-1.26-.336a2.46 2.46 0 0 1-.84-.96l-.036 1.176h-.996v-8.604h1.056l-.024 3.588c.208-.408.488-.732.84-.972s.788-.36 1.308-.36c.36 0 .704.068 1.032.204.336.128.628.328.876.6.256.264.456.6.6 1.008.152.4.228.872.228 1.416Zm-2.94 2.292c.552 0 .996-.188 1.332-.564.344-.384.516-.96.516-1.728 0-.752-.172-1.32-.516-1.704-.336-.392-.78-.588-1.332-.588-.272 0-.528.048-.768.144a1.71 1.71 0 0 0-.612.432c-.168.184-.304.42-.408.708a3.191 3.191 0 0 0-.144 1.008c0 .384.048.72.144 1.008.104.288.24.528.408.72.176.192.38.336.612.432.24.088.496.132.768.132Zm5.275-7.776V331h-1.056v-8.604h1.056Zm6.677 8.076a3.344 3.344 0 0 1-.324.204 3.758 3.758 0 0 1-.468.216 3.946 3.946 0 0 1-.624.156 3.864 3.864 0 0 1-.78.072c-1.048 0-1.844-.284-2.388-.852-.544-.568-.816-1.364-.816-2.388 0-.504.072-.956.216-1.356.152-.4.36-.736.624-1.008.264-.28.576-.492.936-.636.36-.152.752-.228 1.176-.228a3 3 0 0 1 1.2.228c.352.152.64.376.864.672.232.296.388.664.468 1.104.088.432.088.936 0 1.512h-4.392c.04.672.24 1.176.6 1.512.36.328.896.492 1.608.492.48 0 .892-.068 1.236-.204a4.33 4.33 0 0 0 .864-.444v.948Zm-2.472-4.884c-.456 0-.848.14-1.176.42-.328.28-.536.704-.624 1.272h3.348c.032-.576-.1-1-.396-1.272-.296-.28-.68-.42-1.152-.42ZM86.333 345h-1.704l-2.136-6.228h1.14l1.896 5.664 1.884-5.664h1.056L86.333 345Zm3.655-7.14c-.216 0-.388-.064-.516-.192a.692.692 0 0 1-.192-.492.675.675 0 0 1 .708-.696c.208 0 .372.068.492.204.12.136.18.3.18.492s-.06.356-.18.492c-.12.128-.284.192-.492.192Zm.516.912V345h-1.056v-6.228h1.056Zm5.37 5.04a3.648 3.648 0 0 1-.277.456 2.088 2.088 0 0 1-1.02.732c-.224.08-.488.12-.792.12-.56 0-1.012-.156-1.356-.468-.344-.32-.516-.776-.516-1.368 0-.68.236-1.18.708-1.5.48-.32 1.16-.48 2.04-.48h1.164v-.516c0-.432-.112-.74-.336-.924-.224-.184-.608-.276-1.152-.276-.384 0-.748.064-1.092.192-.344.12-.652.26-.924.42v-.948c.224-.136.524-.268.9-.396a3.75 3.75 0 0 1 1.26-.204c.784 0 1.38.164 1.788.492.408.32.612.82.612 1.5v3.6c.008.088.012.18.012.276l.024.276c.008.08.016.148.024.204h-.96a5.482 5.482 0 0 1-.072-.468 7.173 7.173 0 0 1-.024-.54l-.012-.18Zm-1.86.36c.327 0 .607-.068.84-.204.231-.136.42-.292.563-.468.144-.184.248-.36.312-.528.064-.176.096-.3.096-.372v-.456H94.77c-.632 0-1.092.092-1.38.276-.28.176-.42.444-.42.804 0 .28.084.508.252.684.168.176.432.264.792.264Zm-35.377 6.224h2.892c.576 0 1.112.068 1.608.204.496.136.928.36 1.296.672.368.312.656.724.864 1.236.208.512.312 1.144.312 1.896 0 .76-.108 1.428-.324 2.004a3.949 3.949 0 0 1-.876 1.428 3.615 3.615 0 0 1-1.332.876 4.749 4.749 0 0 1-1.68.288h-2.76v-8.604Zm1.128 1.032v6.552h1.632c.44 0 .844-.068 1.212-.204.368-.136.684-.344.948-.624.264-.288.468-.652.612-1.092.144-.44.216-.964.216-1.572 0-.6-.072-1.096-.216-1.488-.144-.4-.344-.716-.6-.948a2.003 2.003 0 0 0-.9-.48 4.32 4.32 0 0 0-1.14-.144h-1.764Zm12.215 7.044a3.344 3.344 0 0 1-.324.204 3.758 3.758 0 0 1-.468.216 3.946 3.946 0 0 1-.624.156 3.864 3.864 0 0 1-.78.072c-1.048 0-1.844-.284-2.388-.852-.544-.568-.816-1.364-.816-2.388 0-.504.072-.956.216-1.356.152-.4.36-.736.624-1.008.264-.28.576-.492.936-.636.36-.152.752-.228 1.176-.228a3 3 0 0 1 1.2.228c.352.152.64.376.864.672.232.296.388.664.468 1.104.088.432.088.936 0 1.512h-4.392c.04.672.24 1.176.6 1.512.36.328.896.492 1.608.492.48 0 .892-.068 1.236-.204a4.33 4.33 0 0 0 .864-.444v.948Zm-2.472-4.884c-.456 0-.848.14-1.176.42-.328.28-.536.704-.624 1.272h3.348c.032-.576-.1-1-.396-1.272-.296-.28-.68-.42-1.152-.42Zm5.871 5.532c-.328 0-.62-.028-.876-.084a4.113 4.113 0 0 1-.66-.18c-.184-.08-.34-.16-.468-.24a3.161 3.161 0 0 1-.3-.228v-.948c.08.08.188.168.324.264.136.088.3.172.492.252.192.08.408.148.648.204.248.048.524.072.828.072.448 0 .804-.072 1.068-.216.264-.144.396-.388.396-.732a.698.698 0 0 0-.132-.444.801.801 0 0 0-.336-.264 2.07 2.07 0 0 0-.504-.168c-.184-.04-.38-.08-.588-.12a22.265 22.265 0 0 1-.78-.18 2.73 2.73 0 0 1-.696-.3 1.633 1.633 0 0 1-.504-.516c-.128-.216-.192-.496-.192-.84 0-.56.216-1 .648-1.32.44-.32 1.052-.48 1.836-.48.44 0 .828.044 1.164.132.344.088.608.184.792.288v.948a2.824 2.824 0 0 0-.78-.336c-.304-.096-.684-.144-1.14-.144-.472 0-.836.064-1.092.192-.248.128-.372.36-.372.696 0 .168.036.304.108.408a.856.856 0 0 0 .288.24c.128.056.272.1.432.132.16.032.328.068.504.108.272.056.552.116.84.18.288.064.544.164.768.3.232.136.42.32.564.552.152.224.228.528.228.912 0 .36-.072.66-.216.9-.144.24-.336.432-.576.576-.232.136-.5.232-.804.288-.296.064-.6.096-.912.096Zm6.857-.252a1.93 1.93 0 0 1-.492.18c-.2.048-.412.072-.636.072-.304 0-.564-.044-.78-.132a1.504 1.504 0 0 1-.516-.348 1.48 1.48 0 0 1-.3-.504 2.09 2.09 0 0 1-.084-.588v-3.876h-.744v-.9h.744v-1.308h1.056v1.308h1.812v.9h-1.812v3.744c0 .264.064.456.192.576.136.12.372.18.708.18.312 0 .596-.088.852-.264v.96Zm1.945-7.008c-.216 0-.388-.064-.516-.192a.692.692 0 0 1-.192-.492.675.675 0 0 1 .708-.696c.208 0 .372.068.492.204.12.136.18.3.18.492s-.06.356-.18.492c-.12.128-.284.192-.492.192Zm.516.912V359h-1.056v-6.228h1.056Zm4.674.816c-.48 0-.872.112-1.176.336a2.455 2.455 0 0 0-.72.84V359h-1.056v-6.228h.996l.036 1.116h.024c.168-.36.432-.656.792-.888.36-.232.816-.348 1.368-.348.616 0 1.104.164 1.464.492.368.32.552.816.552 1.488V359h-1.056v-4.26c0-.432-.108-.732-.324-.9-.216-.168-.516-.252-.9-.252Zm7.598 4.224a3.648 3.648 0 0 1-.276.456 2.088 2.088 0 0 1-1.02.732c-.224.08-.488.12-.792.12-.56 0-1.012-.156-1.356-.468-.344-.32-.516-.776-.516-1.368 0-.68.236-1.18.708-1.5.48-.32 1.16-.48 2.04-.48h1.164v-.516c0-.432-.112-.74-.336-.924-.224-.184-.608-.276-1.152-.276-.384 0-.748.064-1.092.192-.344.12-.652.26-.924.42v-.948c.224-.136.524-.268.9-.396a3.75 3.75 0 0 1 1.26-.204c.784 0 1.38.164 1.788.492.408.32.612.82.612 1.5v3.6c.008.088.012.18.012.276l.024.276c.008.08.016.148.024.204h-.96a5.482 5.482 0 0 1-.072-.468 7.173 7.173 0 0 1-.024-.54l-.012-.18Zm-1.86.36c.328 0 .608-.068.84-.204.232-.136.42-.292.564-.468.144-.184.248-.36.312-.528.064-.176.096-.3.096-.372v-.456h-1.056c-.632 0-1.092.092-1.38.276-.28.176-.42.444-.42.804 0 .28.084.508.252.684.168.176.432.264.792.264Zm7.576.696a1.93 1.93 0 0 1-.492.18c-.2.048-.412.072-.636.072-.304 0-.564-.044-.78-.132a1.504 1.504 0 0 1-.516-.348 1.473 1.473 0 0 1-.3-.504 2.09 2.09 0 0 1-.084-.588v-3.876h-.744v-.9h.744v-1.308h1.056v1.308h1.812v.9h-1.812v3.744c0 .264.064.456.192.576.136.12.372.18.708.18.312 0 .596-.088.852-.264v.96Zm1.946-7.008c-.216 0-.388-.064-.516-.192a.692.692 0 0 1-.192-.492.675.675 0 0 1 .708-.696c.208 0 .372.068.492.204.12.136.18.3.18.492s-.06.356-.18.492c-.12.128-.284.192-.492.192Zm.516.912V359h-1.056v-6.228h1.056Zm4.277 6.348c-.424 0-.82-.072-1.188-.216a2.767 2.767 0 0 1-.96-.624 3.04 3.04 0 0 1-.624-1.02c-.152-.4-.228-.86-.228-1.38 0-.512.076-.968.228-1.368a2.89 2.89 0 0 1 .624-1.02c.272-.272.592-.48.96-.624a3.231 3.231 0 0 1 1.188-.216c.432 0 .832.072 1.2.216.368.144.684.352.948.624.272.272.484.612.636 1.02.16.4.24.856.24 1.368 0 .52-.08.98-.24 1.38-.152.4-.364.74-.636 1.02-.264.272-.58.48-.948.624a3.265 3.265 0 0 1-1.2.216Zm0-.948c.28 0 .536-.044.768-.132.24-.096.448-.236.624-.42.176-.192.312-.432.408-.72.096-.288.144-.628.144-1.02s-.048-.732-.144-1.02a1.855 1.855 0 0 0-.408-.708 1.569 1.569 0 0 0-.624-.42 1.99 1.99 0 0 0-.768-.144c-.28 0-.536.048-.768.144a1.586 1.586 0 0 0-.612.42c-.168.184-.3.42-.396.708a3.234 3.234 0 0 0-.144 1.02c0 .392.048.732.144 1.02.096.288.228.528.396.72.176.184.38.324.612.42.232.088.488.132.768.132Zm7.263-4.584c-.48 0-.872.112-1.176.336a2.455 2.455 0 0 0-.72.84V359h-1.056v-6.228h.996l.036 1.116h.024c.168-.36.432-.656.792-.888.36-.232.816-.348 1.368-.348.616 0 1.104.164 1.464.492.368.32.552.816.552 1.488V359h-1.056v-4.26c0-.432-.108-.732-.324-.9-.216-.168-.516-.252-.9-.252Zm9.719 5.532c-.48 0-.896-.112-1.248-.336a2.444 2.444 0 0 1-.828-.924v3.264h-1.056v-8.352h.924l.108 1.212c.208-.408.488-.732.84-.972s.788-.36 1.308-.36c.36 0 .704.068 1.032.204.336.128.628.328.876.6.256.264.456.6.6 1.008.152.4.228.872.228 1.416 0 .552-.076 1.032-.228 1.44a3.01 3.01 0 0 1-.612 1.008 2.566 2.566 0 0 1-.888.6 2.941 2.941 0 0 1-1.056.192Zm-.156-.948c.552 0 .996-.188 1.332-.564.344-.384.516-.96.516-1.728 0-.752-.172-1.32-.516-1.704-.336-.392-.78-.588-1.332-.588-.272 0-.528.048-.768.144a1.71 1.71 0 0 0-.612.432c-.168.184-.304.42-.408.708a3.191 3.191 0 0 0-.144 1.008c0 .384.048.72.144 1.008.104.288.24.528.408.72.176.192.38.336.612.432.24.088.496.132.768.132Zm7.303-4.344c-.448.04-.856.156-1.224.348-.36.184-.628.472-.804.864V359h-1.056v-6.228h.924l.108 1.356h.024c.176-.368.428-.688.756-.96.336-.28.76-.452 1.272-.516v1.176Zm6.068 4.644a3.344 3.344 0 0 1-.324.204 3.758 3.758 0 0 1-.468.216 3.946 3.946 0 0 1-.624.156 3.864 3.864 0 0 1-.78.072c-1.048 0-1.844-.284-2.388-.852-.544-.568-.816-1.364-.816-2.388 0-.504.072-.956.216-1.356.152-.4.36-.736.624-1.008.264-.28.576-.492.936-.636.36-.152.752-.228 1.176-.228a3 3 0 0 1 1.2.228c.352.152.64.376.864.672.232.296.388.664.468 1.104.088.432.088.936 0 1.512h-4.392c.04.672.24 1.176.6 1.512.36.328.896.492 1.608.492.48 0 .892-.068 1.236-.204a4.33 4.33 0 0 0 .864-.444v.948Zm-2.472-4.884c-.456 0-.848.14-1.176.42-.328.28-.536.704-.624 1.272h3.348c.032-.576-.1-1-.396-1.272-.296-.28-.68-.42-1.152-.42Zm5.248.084V359h-1.056v-5.328h-.756v-.9h.756v-.156c0-.736.196-1.308.588-1.716.392-.408.928-.612 1.608-.612.296 0 .56.036.792.108v.96a1.406 1.406 0 0 0-.312-.084 2.484 2.484 0 0 0-.432-.036c-.368 0-.66.112-.876.336-.208.224-.312.572-.312 1.044v.156h1.8v.9h-1.8Zm3.577-1.812c-.216 0-.388-.064-.516-.192a.692.692 0 0 1-.192-.492.675.675 0 0 1 .708-.696c.208 0 .372.068.492.204.12.136.18.3.18.492s-.06.356-.18.492c-.12.128-.284.192-.492.192Zm.516.912V359h-1.056v-6.228h1.056Zm3.822 3.756-1.68 2.472h-1.104l2.256-3.228-1.992-3h1.224l1.488 2.196 1.5-2.196h1.092l-2.064 2.976 2.172 3.252h-1.224l-1.668-2.472Zm4.628 2.544a.763.763 0 0 1-.564-.216.759.759 0 0 1-.216-.54c0-.224.072-.408.216-.552a.763.763 0 0 1 .564-.216c.224 0 .408.072.552.216a.748.748 0 0 1 .216.552.759.759 0 0 1-.216.54.748.748 0 0 1-.552.216Zm0-4.596a.763.763 0 0 1-.564-.216.759.759 0 0 1-.216-.54c0-.224.072-.408.216-.552a.763.763 0 0 1 .564-.216c.224 0 .408.072.552.216a.748.748 0 0 1 .216.552.759.759 0 0 1-.216.54.748.748 0 0 1-.552.216ZM86.224 373.12c-.408 0-.788-.084-1.14-.252a2.513 2.513 0 0 1-.9-.804c-.248-.368-.444-.828-.588-1.38-.144-.56-.216-1.224-.216-1.992s.072-1.428.216-1.98c.144-.56.34-1.02.588-1.38.256-.36.556-.624.9-.792a2.612 2.612 0 0 1 1.14-.252c.408 0 .784.084 1.128.252.344.168.64.432.888.792.248.352.44.804.576 1.356.144.552.216 1.212.216 1.98s-.072 1.432-.216 1.992c-.136.552-.328 1.012-.576 1.38-.248.368-.544.64-.888.816a2.44 2.44 0 0 1-1.128.264Zm-.012-.948c.272 0 .512-.06.72-.18.208-.12.384-.316.528-.588.144-.272.252-.628.324-1.068.08-.448.12-.992.12-1.632 0-.64-.036-1.18-.108-1.62-.072-.448-.18-.808-.324-1.08-.144-.272-.32-.468-.528-.588a1.415 1.415 0 0 0-.72-.18c-.272 0-.516.06-.732.18-.208.12-.388.316-.54.588-.144.272-.256.632-.336 1.08-.072.44-.108.98-.108 1.62 0 .64.036 1.184.108 1.632.08.44.192.796.336 1.068.144.272.32.468.528.588.216.12.46.18.732.18Zm5.11.9a.763.763 0 0 1-.564-.216.759.759 0 0 1-.216-.54c0-.224.072-.408.216-.552a.763.763 0 0 1 .564-.216c.224 0 .408.072.552.216a.748.748 0 0 1 .216.552.759.759 0 0 1-.216.54.748.748 0 0 1-.552.216Zm5.098.048c-.408 0-.788-.084-1.14-.252a2.513 2.513 0 0 1-.9-.804c-.248-.368-.444-.828-.588-1.38-.144-.56-.216-1.224-.216-1.992s.072-1.428.216-1.98c.144-.56.34-1.02.588-1.38.256-.36.556-.624.9-.792a2.612 2.612 0 0 1 1.14-.252c.408 0 .784.084 1.128.252.344.168.64.432.888.792.248.352.44.804.576 1.356.144.552.216 1.212.216 1.98s-.072 1.432-.216 1.992c-.136.552-.328 1.012-.576 1.38-.248.368-.544.64-.888.816a2.44 2.44 0 0 1-1.128.264Zm-.012-.948c.272 0 .512-.06.72-.18.208-.12.384-.316.528-.588.144-.272.252-.628.324-1.068.08-.448.12-.992.12-1.632 0-.64-.036-1.18-.108-1.62-.072-.448-.18-.808-.324-1.08-.144-.272-.32-.468-.528-.588a1.415 1.415 0 0 0-.72-.18c-.272 0-.516.06-.732.18-.208.12-.388.316-.54.588-.144.272-.256.632-.336 1.08-.072.44-.108.98-.108 1.62 0 .64.036 1.184.108 1.632.08.44.192.796.336 1.068.144.272.32.468.528.588.216.12.46.18.732.18Zm5.109.9a.763.763 0 0 1-.564-.216.759.759 0 0 1-.216-.54c0-.224.072-.408.216-.552a.763.763 0 0 1 .564-.216c.224 0 .408.072.552.216a.748.748 0 0 1 .216.552.759.759 0 0 1-.216.54.748.748 0 0 1-.552.216Zm5.098.048c-.408 0-.788-.084-1.14-.252a2.513 2.513 0 0 1-.9-.804c-.248-.368-.444-.828-.588-1.38-.144-.56-.216-1.224-.216-1.992s.072-1.428.216-1.98c.144-.56.34-1.02.588-1.38.256-.36.556-.624.9-.792a2.612 2.612 0 0 1 1.14-.252c.408 0 .784.084 1.128.252.344.168.64.432.888.792.248.352.44.804.576 1.356.144.552.216 1.212.216 1.98s-.072 1.432-.216 1.992c-.136.552-.328 1.012-.576 1.38-.248.368-.544.64-.888.816a2.44 2.44 0 0 1-1.128.264Zm-.012-.948c.272 0 .512-.06.72-.18.208-.12.384-.316.528-.588.144-.272.252-.628.324-1.068.08-.448.12-.992.12-1.632 0-.64-.036-1.18-.108-1.62-.072-.448-.18-.808-.324-1.08-.144-.272-.32-.468-.528-.588a1.415 1.415 0 0 0-.72-.18c-.272 0-.516.06-.732.18-.208.12-.388.316-.54.588-.144.272-.256.632-.336 1.08-.072.44-.108.98-.108 1.62 0 .64.036 1.184.108 1.632.08.44.192.796.336 1.068.144.272.32.468.528.588.216.12.46.18.732.18Zm5.11.9a.763.763 0 0 1-.564-.216.759.759 0 0 1-.216-.54c0-.224.072-.408.216-.552a.763.763 0 0 1 .564-.216c.224 0 .408.072.552.216a.748.748 0 0 1 .216.552.759.759 0 0 1-.216.54.748.748 0 0 1-.552.216Zm5.097.048c-.408 0-.788-.084-1.14-.252a2.513 2.513 0 0 1-.9-.804c-.248-.368-.444-.828-.588-1.38-.144-.56-.216-1.224-.216-1.992s.072-1.428.216-1.98c.144-.56.34-1.02.588-1.38.256-.36.556-.624.9-.792a2.612 2.612 0 0 1 1.14-.252c.408 0 .784.084 1.128.252.344.168.64.432.888.792.248.352.44.804.576 1.356.144.552.216 1.212.216 1.98s-.072 1.432-.216 1.992c-.136.552-.328 1.012-.576 1.38-.248.368-.544.64-.888.816a2.44 2.44 0 0 1-1.128.264Zm-.012-.948c.272 0 .512-.06.72-.18.208-.12.384-.316.528-.588.144-.272.252-.628.324-1.068.08-.448.12-.992.12-1.632 0-.64-.036-1.18-.108-1.62-.072-.448-.18-.808-.324-1.08-.144-.272-.32-.468-.528-.588a1.415 1.415 0 0 0-.72-.18c-.272 0-.516.06-.732.18-.208.12-.388.316-.54.588-.144.272-.256.632-.336 1.08-.072.44-.108.98-.108 1.62 0 .64.036 1.184.108 1.632.08.44.192.796.336 1.068.144.272.32.468.528.588.216.12.46.18.732.18Zm3.286 1.308 3.456-9.552h.96l-3.456 9.552h-.96Zm7.742-.36c-.408 0-.788-.084-1.14-.252a2.513 2.513 0 0 1-.9-.804c-.248-.368-.444-.828-.588-1.38-.144-.56-.216-1.224-.216-1.992s.072-1.428.216-1.98c.144-.56.34-1.02.588-1.38.256-.36.556-.624.9-.792a2.612 2.612 0 0 1 1.14-.252c.408 0 .784.084 1.128.252.344.168.64.432.888.792.248.352.44.804.576 1.356.144.552.216 1.212.216 1.98s-.072 1.432-.216 1.992c-.136.552-.328 1.012-.576 1.38-.248.368-.544.64-.888.816a2.44 2.44 0 0 1-1.128.264Zm-.012-.948c.272 0 .512-.06.72-.18.208-.12.384-.316.528-.588.144-.272.252-.628.324-1.068.08-.448.12-.992.12-1.632 0-.64-.036-1.18-.108-1.62-.072-.448-.18-.808-.324-1.08-.144-.272-.32-.468-.528-.588a1.415 1.415 0 0 0-.72-.18c-.272 0-.516.06-.732.18-.208.12-.388.316-.54.588-.144.272-.256.632-.336 1.08-.072.44-.108.98-.108 1.62 0 .64.036 1.184.108 1.632.08.44.192.796.336 1.068.144.272.32.468.528.588.216.12.46.18.732.18ZM52.026 387H50.49l-4.32-7.224V387h-1.068v-8.604h1.524l4.32 7.224v-7.224h1.08V387Zm6.817-.528a3.344 3.344 0 0 1-.324.204 3.758 3.758 0 0 1-.468.216 3.946 3.946 0 0 1-.624.156 3.864 3.864 0 0 1-.78.072c-1.048 0-1.844-.284-2.388-.852-.544-.568-.816-1.364-.816-2.388 0-.504.072-.956.216-1.356.152-.4.36-.736.624-1.008.264-.28.576-.492.936-.636.36-.152.752-.228 1.176-.228a3 3 0 0 1 1.2.228c.352.152.64.376.864.672.232.296.388.664.468 1.104.088.432.088.936 0 1.512h-4.392c.04.672.24 1.176.6 1.512.36.328.896.492 1.608.492.48 0 .892-.068 1.236-.204a4.33 4.33 0 0 0 .864-.444v.948Zm-2.472-4.884c-.456 0-.848.14-1.176.42-.328.28-.536.704-.624 1.272h3.348c.032-.576-.1-1-.396-1.272-.296-.28-.68-.42-1.152-.42Zm5.921 2.94L60.612 387h-1.104l2.256-3.228-1.992-3h1.224l1.488 2.196 1.5-2.196h1.092l-2.064 2.976L65.184 387H63.96l-1.668-2.472Zm6.983 2.34a1.93 1.93 0 0 1-.492.18c-.2.048-.412.072-.636.072-.304 0-.564-.044-.78-.132a1.504 1.504 0 0 1-.516-.348 1.48 1.48 0 0 1-.3-.504 2.09 2.09 0 0 1-.084-.588v-3.876h-.744v-.9h.744v-1.308h1.056v1.308h1.812v.9h-1.812v3.744c0 .264.064.456.192.576.136.12.372.18.708.18.312 0 .596-.088.852-.264v.96Zm6.994-5.28c-.48 0-.872.112-1.176.336a2.455 2.455 0 0 0-.72.84V387h-1.056v-8.604h1.056v2.376l-.024 1.116h.024c.168-.352.432-.644.792-.876.36-.24.816-.36 1.368-.36.616 0 1.104.164 1.464.492.368.32.552.816.552 1.488V387h-1.056v-4.26c0-.432-.108-.732-.324-.9-.216-.168-.516-.252-.9-.252Zm6.506 5.532c-.424 0-.82-.072-1.188-.216a2.767 2.767 0 0 1-.96-.624 3.04 3.04 0 0 1-.623-1.02c-.153-.4-.229-.86-.229-1.38 0-.512.076-.968.228-1.368a2.89 2.89 0 0 1 .624-1.02c.273-.272.593-.48.96-.624a3.231 3.231 0 0 1 1.188-.216c.432 0 .832.072 1.2.216.369.144.684.352.949.624.271.272.483.612.635 1.02.16.4.24.856.24 1.368 0 .52-.08.98-.24 1.38-.151.4-.364.74-.635 1.02a2.65 2.65 0 0 1-.949.624 3.265 3.265 0 0 1-1.2.216Zm0-.948c.28 0 .536-.044.768-.132.24-.096.448-.236.624-.42.177-.192.313-.432.409-.72.096-.288.144-.628.144-1.02s-.049-.732-.144-1.02a1.855 1.855 0 0 0-.408-.708 1.569 1.569 0 0 0-.625-.42 1.99 1.99 0 0 0-.768-.144c-.28 0-.535.048-.768.144a1.586 1.586 0 0 0-.612.42c-.167.184-.3.42-.395.708a3.234 3.234 0 0 0-.144 1.02c0 .392.047.732.144 1.02.096.288.228.528.395.72.177.184.38.324.612.42.233.088.489.132.768.132Zm7.444.948c-.48 0-.896-.112-1.248-.336a2.444 2.444 0 0 1-.828-.924v3.264h-1.056v-8.352h.924l.108 1.212c.208-.408.488-.732.84-.972s.788-.36 1.308-.36c.36 0 .704.068 1.032.204.336.128.628.328.876.6.256.264.456.6.6 1.008.152.4.228.872.228 1.416 0 .552-.076 1.032-.228 1.44a3.01 3.01 0 0 1-.612 1.008 2.566 2.566 0 0 1-.888.6 2.941 2.941 0 0 1-1.056.192Zm-.156-.948c.552 0 .996-.188 1.332-.564.344-.384.516-.96.516-1.728 0-.752-.172-1.32-.516-1.704-.336-.392-.78-.588-1.332-.588-.272 0-.528.048-.768.144a1.71 1.71 0 0 0-.612.432c-.168.184-.304.42-.408.708a3.191 3.191 0 0 0-.144 1.008c0 .384.048.72.144 1.008.104.288.24.528.408.72.176.192.38.336.612.432.24.088.496.132.768.132Zm4.795.9a.763.763 0 0 1-.564-.216.759.759 0 0 1-.216-.54c0-.224.072-.408.216-.552a.763.763 0 0 1 .564-.216c.224 0 .408.072.552.216a.748.748 0 0 1 .216.552.759.759 0 0 1-.216.54.748.748 0 0 1-.552.216Zm0-4.596a.763.763 0 0 1-.564-.216.759.759 0 0 1-.216-.54c0-.224.072-.408.216-.552a.763.763 0 0 1 .564-.216c.224 0 .408.072.552.216a.748.748 0 0 1 .216.552.759.759 0 0 1-.216.54.748.748 0 0 1-.552.216Zm9.396 3.3c-.192.408-.46.736-.804.984-.344.24-.78.36-1.308.36-.376 0-.732-.064-1.068-.192a2.566 2.566 0 0 1-.888-.6 3.007 3.007 0 0 1-.612-1.008c-.152-.408-.228-.888-.228-1.44 0-.544.076-1.016.228-1.416.152-.408.356-.744.612-1.008.256-.272.552-.472.888-.6a2.911 2.911 0 0 1 1.08-.204c.472 0 .88.1 1.224.3.344.192.62.468.828.828v-3.384h1.056V387h-.924l-.084-1.224Zm-1.956.396c.272 0 .524-.044.756-.132.232-.096.432-.24.6-.432.176-.192.312-.432.408-.72.104-.288.156-.624.156-1.008s-.052-.72-.156-1.008a1.971 1.971 0 0 0-.408-.72 1.49 1.49 0 0 0-.6-.42 1.958 1.958 0 0 0-.756-.144c-.552 0-1.004.196-1.356.588-.344.384-.516.952-.516 1.704 0 .76.176 1.332.528 1.716.352.384.8.576 1.344.576Zm5.743.828h-1.056v-6.228h.924l.108 1.116h.024a2.21 2.21 0 0 1 .756-.876c.336-.24.776-.36 1.32-.36.48 0 .872.116 1.176.348.312.224.52.564.624 1.02.176-.424.444-.756.804-.996.368-.248.812-.372 1.332-.372.576 0 1.032.164 1.368.492.336.32.504.816.504 1.488V387h-1.068v-4.236c0-.408-.1-.704-.3-.888-.2-.192-.472-.288-.816-.288-.232 0-.436.036-.612.108a1.448 1.448 0 0 0-.468.276c-.136.12-.26.26-.372.42-.112.16-.216.328-.312.504V387h-1.056v-4.356c0-.4-.1-.676-.3-.828-.2-.152-.472-.228-.816-.228-.224 0-.424.028-.6.084a1.688 1.688 0 0 0-.48.24 1.89 1.89 0 0 0-.372.384 3.545 3.545 0 0 0-.312.48V387Zm13.702 0h-4.608v-.684l3.276-4.644h-3.18v-.9h4.5v.684l-3.276 4.644h3.288v.9Zm1.082-4.14h2.88v.96h-2.88v-.96Zm4.613-4.464h5.256v1.032h-4.128v2.856h3.504v1.02h-3.504V387h-1.128v-8.604ZM142.631 387h-1.656l-1.896-6.648-1.908 6.648h-1.668l-1.896-8.604h1.176l1.632 7.632 2.208-7.632h1.032l2.16 7.488 1.62-7.488h1.092L142.631 387Zm2.636-4.14h2.88v.96h-2.88v-.96Zm6.541-4.464h1.68l3.084 8.604h-1.2l-.888-2.46h-3.804l-.876 2.46h-1.056l3.06-8.604Zm2.316 5.124-1.536-4.284-1.536 4.284h3.072Zm7.465-5.124V387h-1.128v-8.604h1.128Zm2.001 0h2.748c.976 0 1.732.204 2.268.612.544.4.816 1.028.816 1.884 0 .488-.08.908-.24 1.26a2.22 2.22 0 0 1-.648.852c-.28.224-.616.388-1.008.492a4.91 4.91 0 0 1-1.284.156h-1.524V387h-1.128v-8.604Zm1.128 1.032v3.204h1.524c.304 0 .58-.032.828-.096s.46-.164.636-.3a1.3 1.3 0 0 0 .42-.528c.104-.224.156-.492.156-.804 0-.52-.168-.896-.504-1.128-.336-.232-.816-.348-1.44-.348h-1.62Z"/>
    <path fill="#FF5958" d="M101.238 336.396h5.472v1.26h-4.02v2.52h3.408v1.248h-3.408V345h-1.452v-8.604ZM116.875 345h-1.98l-1.74-6.372-1.764 6.372h-1.992l-1.848-8.604h1.488l1.464 7.164 2.004-7.164h1.428l1.968 7.068 1.5-7.068h1.332l-1.86 8.604Zm2.756-4.884h2.94v1.188h-2.94v-1.188Zm6.845-3.72h1.908l3.048 8.604h-1.5l-.792-2.256h-3.624l-.792 2.256h-1.284l3.036-8.604Zm2.22 5.1-1.368-3.876-1.368 3.876h2.736Z"/>
    <g filter="url(#filter3_d_42_109)">
        <rect width="140" height="137" x="523" y="272" fill="#fff" rx="10"/>
    </g>
    <path fill="#000" fill-opacity=".85" d="M561.717 298.116a3.066 3.066 0 0 0-1.236.216 1.69 1.69 0 0 0-.84.72V303h-1.392v-6.228h1.272l.096 1.296h.024c.2-.384.472-.704.816-.96a2.517 2.517 0 0 1 1.26-.456v1.464Zm3.708 5.004c-.44 0-.848-.072-1.224-.216a2.867 2.867 0 0 1-.984-.624 3.091 3.091 0 0 1-.648-1.02c-.152-.4-.228-.86-.228-1.38 0-.52.076-.98.228-1.38.16-.4.376-.736.648-1.008.28-.28.608-.488.984-.624a3.394 3.394 0 0 1 1.224-.216c.44 0 .848.072 1.224.216.376.136.704.344.984.624.28.272.5.608.66 1.008.16.4.24.86.24 1.38 0 .52-.08.98-.24 1.38-.16.4-.38.74-.66 1.02-.28.272-.608.48-.984.624a3.394 3.394 0 0 1-1.224.216Zm0-1.164c.48 0 .876-.168 1.188-.504.32-.336.48-.86.48-1.572 0-.704-.16-1.224-.48-1.56a1.534 1.534 0 0 0-1.188-.516c-.472 0-.868.172-1.188.516-.312.336-.468.856-.468 1.56 0 .712.156 1.236.468 1.572.32.336.716.504 1.188.504Zm8.245.024c-.168.32-.42.592-.756.816-.328.216-.76.324-1.296.324-.584 0-1.06-.168-1.428-.504-.368-.336-.552-.848-.552-1.536v-4.308h1.404v4.272c0 .36.1.604.3.732.2.12.444.18.732.18.392 0 .712-.08.96-.24a2.23 2.23 0 0 0 .636-.672v-4.272h1.38V303h-1.272l-.084-1.02h-.024Zm6.302.828c-.144.088-.324.16-.54.216a2.623 2.623 0 0 1-.744.096c-.336 0-.62-.044-.852-.132a1.551 1.551 0 0 1-.552-.384 1.454 1.454 0 0 1-.312-.552 2.396 2.396 0 0 1-.096-.684V297.9h-.744v-1.128h.744v-1.308h1.392v1.308h1.788v1.128h-1.788v3.312c0 .256.06.444.18.564.128.12.336.18.624.18.192 0 .36-.028.504-.084.144-.056.276-.132.396-.228v1.164Zm6.442-.264c-.088.056-.196.12-.324.192-.128.064-.28.124-.456.18a4.628 4.628 0 0 1-1.404.204c-1.144 0-2-.284-2.568-.852-.56-.568-.84-1.364-.84-2.388 0-.504.076-.956.228-1.356.152-.4.364-.736.636-1.008.272-.28.596-.492.972-.636a3.268 3.268 0 0 1 1.236-.228c.464 0 .88.076 1.248.228.376.152.684.38.924.684.24.304.404.68.492 1.128.096.448.1.972.012 1.572h-4.308c.056.568.244.996.564 1.284.32.28.82.42 1.5.42.496 0 .908-.06 1.236-.18.336-.128.62-.26.852-.396v1.152Zm-2.52-4.788c-.408 0-.752.124-1.032.372s-.464.616-.552 1.104h2.928c.016-.504-.096-.876-.336-1.116-.24-.24-.576-.36-1.008-.36Zm3.789.972h2.94v1.188h-2.94v-1.188Zm7.746 4.08c-.144.088-.324.16-.54.216a2.623 2.623 0 0 1-.744.096c-.336 0-.62-.044-.852-.132a1.551 1.551 0 0 1-.552-.384 1.454 1.454 0 0 1-.312-.552 2.396 2.396 0 0 1-.096-.684V297.9h-.744v-1.128h.744v-1.308h1.392v1.308h1.788v1.128h-1.788v3.312c0 .256.06.444.18.564.128.12.336.18.624.18.192 0 .36-.028.504-.084.144-.056.276-.132.396-.228v1.164Zm4.88-.9a2.09 2.09 0 0 1-.264.432 1.857 1.857 0 0 1-.396.396 1.98 1.98 0 0 1-.552.276 2.393 2.393 0 0 1-.756.108c-.272 0-.524-.04-.756-.12a1.692 1.692 0 0 1-.612-.336 1.734 1.734 0 0 1-.408-.564 2.056 2.056 0 0 1-.144-.792c0-.68.252-1.188.756-1.524.504-.344 1.216-.516 2.136-.516h.948v-.384c0-.408-.104-.688-.312-.84-.208-.16-.552-.24-1.032-.24-.408 0-.792.06-1.152.18a5.066 5.066 0 0 0-.936.396v-1.164a5.05 5.05 0 0 1 .984-.384c.408-.12.852-.18 1.332-.18.8 0 1.416.168 1.848.504.44.328.66.856.66 1.584v3.504c.008.088.012.18.012.276l.024.276c.008.08.016.148.024.204h-1.284a5.482 5.482 0 0 1-.072-.468c-.016-.2-.028-.38-.036-.54l-.012-.084Zm-1.584.132c.296 0 .54-.06.732-.18.2-.128.36-.272.48-.432.12-.168.204-.332.252-.492.048-.16.072-.272.072-.336v-.42h-.864c-.552 0-.956.088-1.212.264a.81.81 0 0 0-.384.72c0 .272.076.488.228.648.16.152.392.228.696.228Zm10.622-2.16c0 .552-.076 1.032-.228 1.44-.144.4-.344.736-.6 1.008-.248.264-.54.464-.876.6a2.941 2.941 0 0 1-1.056.192c-.48 0-.896-.108-1.248-.324a2.467 2.467 0 0 1-.828-.912l-.036 1.116h-1.32v-8.604h1.392l-.012 3.468c.208-.376.484-.672.828-.888.344-.216.76-.324 1.248-.324.368 0 .716.068 1.044.204.336.128.628.328.876.6.248.264.444.6.588 1.008.152.4.228.872.228 1.416Zm-3.096 2.076c.496 0 .896-.168 1.2-.504.312-.344.468-.868.468-1.572 0-.696-.156-1.216-.468-1.56-.304-.344-.7-.516-1.188-.516-.248 0-.476.044-.684.132-.208.08-.392.208-.552.384a1.93 1.93 0 0 0-.36.66 2.771 2.771 0 0 0-.132.9c0 .352.044.66.132.924.088.256.208.472.36.648.152.168.332.296.54.384.216.08.444.12.684.12Zm5.667-7.56V303h-1.392v-8.604h1.392Zm6.769 8.148c-.088.056-.196.12-.324.192-.128.064-.28.124-.456.18a4.628 4.628 0 0 1-1.404.204c-1.144 0-2-.284-2.568-.852-.56-.568-.84-1.364-.84-2.388 0-.504.076-.956.228-1.356.152-.4.364-.736.636-1.008.272-.28.596-.492.972-.636a3.268 3.268 0 0 1 1.236-.228c.464 0 .88.076 1.248.228.376.152.684.38.924.684.24.304.404.68.492 1.128.096.448.1.972.012 1.572h-4.308c.056.568.244.996.564 1.284.32.28.82.42 1.5.42.496 0 .908-.06 1.236-.18.336-.128.62-.26.852-.396v1.152Zm-2.52-4.788c-.408 0-.752.124-1.032.372s-.464.616-.552 1.104h2.928c.016-.504-.096-.876-.336-1.116-.24-.24-.576-.36-1.008-.36ZM628.078 303h-5.556v-1.38c.72-.56 1.336-1.056 1.848-1.488.512-.432.928-.828 1.248-1.188.328-.368.568-.712.72-1.032a2.4 2.4 0 0 0 .228-1.02c0-.432-.132-.776-.396-1.032-.256-.256-.624-.384-1.104-.384-.432 0-.844.104-1.236.312-.384.2-.744.46-1.08.78v-1.38c.32-.272.676-.492 1.068-.66.392-.168.86-.252 1.404-.252.432 0 .824.06 1.176.18s.648.292.888.516c.248.216.436.484.564.804.136.312.204.664.204 1.056 0 .432-.084.84-.252 1.224-.168.376-.42.756-.756 1.14-.328.384-.744.784-1.248 1.2-.496.416-1.08.876-1.752 1.38h4.032V303Zm-64.966 19.396h2.88c1.016 0 1.788.2 2.316.6.536.392.804 1.012.804 1.86 0 .752-.184 1.328-.552 1.728-.36.4-.836.664-1.428.792l2.34 3.624H568.2l-2.244-3.492h-1.716V331h-1.128v-8.604Zm1.128 1.032v3.06h1.644c.304 0 .58-.028.828-.084.256-.056.472-.148.648-.276a1.23 1.23 0 0 0 .42-.504c.104-.216.156-.48.156-.792 0-.512-.168-.872-.504-1.08-.336-.216-.816-.324-1.44-.324h-1.752Zm8.924 7.692c-.424 0-.82-.072-1.188-.216a2.767 2.767 0 0 1-.96-.624 3.04 3.04 0 0 1-.624-1.02c-.152-.4-.228-.86-.228-1.38 0-.512.076-.968.228-1.368a2.89 2.89 0 0 1 .624-1.02c.272-.272.592-.48.96-.624a3.231 3.231 0 0 1 1.188-.216c.432 0 .832.072 1.2.216.368.144.684.352.948.624.272.272.484.612.636 1.02.16.4.24.856.24 1.368 0 .52-.08.98-.24 1.38-.152.4-.364.74-.636 1.02-.264.272-.58.48-.948.624a3.265 3.265 0 0 1-1.2.216Zm0-.948c.28 0 .536-.044.768-.132.24-.096.448-.236.624-.42.176-.192.312-.432.408-.72.096-.288.144-.628.144-1.02s-.048-.732-.144-1.02a1.855 1.855 0 0 0-.408-.708 1.569 1.569 0 0 0-.624-.42 1.99 1.99 0 0 0-.768-.144c-.28 0-.536.048-.768.144a1.586 1.586 0 0 0-.612.42c-.168.184-.3.42-.396.708a3.234 3.234 0 0 0-.144 1.02c0 .392.048.732.144 1.02.096.288.228.528.396.72.176.184.38.324.612.42.232.088.488.132.768.132Zm8.307-.288a2.233 2.233 0 0 1-.78.888c-.344.232-.796.348-1.356.348-.576 0-1.044-.16-1.404-.48-.352-.328-.528-.832-.528-1.512v-4.356h1.068v4.356c0 .208.028.38.084.516a.886.886 0 0 0 .612.48c.144.032.3.048.468.048.464 0 .836-.104 1.116-.312.28-.208.52-.492.72-.852v-4.236h1.056V331h-.936l-.096-1.116h-.024Zm5.837.984a1.93 1.93 0 0 1-.492.18c-.2.048-.412.072-.636.072-.304 0-.564-.044-.78-.132a1.504 1.504 0 0 1-.516-.348 1.48 1.48 0 0 1-.3-.504 2.09 2.09 0 0 1-.084-.588v-3.876h-.744v-.9h.744v-1.308h1.056v1.308h1.812v.9h-1.812v3.744c0 .264.064.456.192.576.136.12.372.18.708.18.312 0 .596-.088.852-.264v.96Zm6.303-.396a3.344 3.344 0 0 1-.324.204 3.758 3.758 0 0 1-.468.216 3.946 3.946 0 0 1-.624.156 3.864 3.864 0 0 1-.78.072c-1.048 0-1.844-.284-2.388-.852-.544-.568-.816-1.364-.816-2.388 0-.504.072-.956.216-1.356.152-.4.36-.736.624-1.008.264-.28.576-.492.936-.636.36-.152.752-.228 1.176-.228a3 3 0 0 1 1.2.228c.352.152.64.376.864.672.232.296.388.664.468 1.104.088.432.088.936 0 1.512h-4.392c.04.672.24 1.176.6 1.512.36.328.896.492 1.608.492.48 0 .892-.068 1.236-.204a4.33 4.33 0 0 0 .864-.444v.948Zm-2.472-4.884c-.456 0-.848.14-1.176.42-.328.28-.536.704-.624 1.272h3.348c.032-.576-.1-1-.396-1.272-.296-.28-.68-.42-1.152-.42Zm9.564 5.28a1.93 1.93 0 0 1-.492.18c-.2.048-.412.072-.636.072-.304 0-.564-.044-.78-.132a1.504 1.504 0 0 1-.516-.348 1.48 1.48 0 0 1-.3-.504 2.09 2.09 0 0 1-.084-.588v-3.876h-.744v-.9h.744v-1.308h1.056v1.308h1.812v.9h-1.812v3.744c0 .264.064.456.192.576.136.12.372.18.708.18.312 0 .596-.088.852-.264v.96Zm5.053-1.056a3.648 3.648 0 0 1-.276.456 2.088 2.088 0 0 1-1.02.732c-.224.08-.488.12-.792.12-.56 0-1.012-.156-1.356-.468-.344-.32-.516-.776-.516-1.368 0-.68.236-1.18.708-1.5.48-.32 1.16-.48 2.04-.48h1.164v-.516c0-.432-.112-.74-.336-.924-.224-.184-.608-.276-1.152-.276-.384 0-.748.064-1.092.192-.344.12-.652.26-.924.42v-.948c.224-.136.524-.268.9-.396a3.75 3.75 0 0 1 1.26-.204c.784 0 1.38.164 1.788.492.408.32.612.82.612 1.5v3.6c.008.088.012.18.012.276l.024.276c.008.08.016.148.024.204h-.96a5.482 5.482 0 0 1-.072-.468 7.173 7.173 0 0 1-.024-.54l-.012-.18Zm-1.86.36c.328 0 .608-.068.84-.204.232-.136.42-.292.564-.468.144-.184.248-.36.312-.528.064-.176.096-.3.096-.372v-.456h-1.056c-.632 0-1.092.092-1.38.276-.28.176-.42.444-.42.804 0 .28.084.508.252.684.168.176.432.264.792.264Zm10.445-2.292c0 .552-.076 1.032-.228 1.44a3.01 3.01 0 0 1-.612 1.008 2.566 2.566 0 0 1-.888.6 2.941 2.941 0 0 1-1.056.192c-.48 0-.9-.112-1.26-.336a2.46 2.46 0 0 1-.84-.96l-.036 1.176h-.996v-8.604h1.056l-.024 3.588c.208-.408.488-.732.84-.972s.788-.36 1.308-.36c.36 0 .704.068 1.032.204.336.128.628.328.876.6.256.264.456.6.6 1.008.152.4.228.872.228 1.416Zm-2.94 2.292c.552 0 .996-.188 1.332-.564.344-.384.516-.96.516-1.728 0-.752-.172-1.32-.516-1.704-.336-.392-.78-.588-1.332-.588-.272 0-.528.048-.768.144a1.71 1.71 0 0 0-.612.432c-.168.184-.304.42-.408.708a3.191 3.191 0 0 0-.144 1.008c0 .384.048.72.144 1.008.104.288.24.528.408.72.176.192.38.336.612.432.24.088.496.132.768.132Zm5.275-7.776V331h-1.056v-8.604h1.056Zm6.677 8.076a3.344 3.344 0 0 1-.324.204 3.758 3.758 0 0 1-.468.216 3.946 3.946 0 0 1-.624.156 3.864 3.864 0 0 1-.78.072c-1.048 0-1.844-.284-2.388-.852-.544-.568-.816-1.364-.816-2.388 0-.504.072-.956.216-1.356.152-.4.36-.736.624-1.008.264-.28.576-.492.936-.636.36-.152.752-.228 1.176-.228a3 3 0 0 1 1.2.228c.352.152.64.376.864.672.232.296.388.664.468 1.104.088.432.088.936 0 1.512h-4.392c.04.672.24 1.176.6 1.512.36.328.896.492 1.608.492.48 0 .892-.068 1.236-.204a4.33 4.33 0 0 0 .864-.444v.948Zm-2.472-4.884c-.456 0-.848.14-1.176.42-.328.28-.536.704-.624 1.272h3.348c.032-.576-.1-1-.396-1.272-.296-.28-.68-.42-1.152-.42ZM572.333 345h-1.704l-2.136-6.228h1.14l1.896 5.664 1.884-5.664h1.056L572.333 345Zm3.655-7.14c-.216 0-.388-.064-.516-.192a.692.692 0 0 1-.192-.492.675.675 0 0 1 .708-.696c.208 0 .372.068.492.204.12.136.18.3.18.492s-.06.356-.18.492c-.12.128-.284.192-.492.192Zm.516.912V345h-1.056v-6.228h1.056Zm5.369 5.04a3.648 3.648 0 0 1-.276.456 2.088 2.088 0 0 1-1.02.732c-.224.08-.488.12-.792.12-.56 0-1.012-.156-1.356-.468-.344-.32-.516-.776-.516-1.368 0-.68.236-1.18.708-1.5.48-.32 1.16-.48 2.04-.48h1.164v-.516c0-.432-.112-.74-.336-.924-.224-.184-.608-.276-1.152-.276-.384 0-.748.064-1.092.192-.344.12-.652.26-.924.42v-.948c.224-.136.524-.268.9-.396a3.75 3.75 0 0 1 1.26-.204c.784 0 1.38.164 1.788.492.408.32.612.82.612 1.5v3.6c.008.088.012.18.012.276l.024.276c.008.08.016.148.024.204h-.96a5.482 5.482 0 0 1-.072-.468 7.173 7.173 0 0 1-.024-.54l-.012-.18Zm-1.86.36c.328 0 .608-.068.84-.204.232-.136.42-.292.564-.468.144-.184.248-.36.312-.528.064-.176.096-.3.096-.372v-.456h-1.056c-.632 0-1.092.092-1.38.276-.28.176-.42.444-.42.804 0 .28.084.508.252.684.168.176.432.264.792.264Zm-35.376 6.224h2.892c.576 0 1.112.068 1.608.204.496.136.928.36 1.296.672.368.312.656.724.864 1.236.208.512.312 1.144.312 1.896 0 .76-.108 1.428-.324 2.004a3.949 3.949 0 0 1-.876 1.428 3.615 3.615 0 0 1-1.332.876 4.749 4.749 0 0 1-1.68.288h-2.76v-8.604Zm1.128 1.032v6.552h1.632c.44 0 .844-.068 1.212-.204.368-.136.684-.344.948-.624.264-.288.468-.652.612-1.092.144-.44.216-.964.216-1.572 0-.6-.072-1.096-.216-1.488-.144-.4-.344-.716-.6-.948a2.003 2.003 0 0 0-.9-.48 4.32 4.32 0 0 0-1.14-.144h-1.764Zm12.215 7.044a3.344 3.344 0 0 1-.324.204 3.758 3.758 0 0 1-.468.216 3.946 3.946 0 0 1-.624.156 3.864 3.864 0 0 1-.78.072c-1.048 0-1.844-.284-2.388-.852-.544-.568-.816-1.364-.816-2.388 0-.504.072-.956.216-1.356.152-.4.36-.736.624-1.008.264-.28.576-.492.936-.636.36-.152.752-.228 1.176-.228a3 3 0 0 1 1.2.228c.352.152.64.376.864.672.232.296.388.664.468 1.104.088.432.088.936 0 1.512h-4.392c.04.672.24 1.176.6 1.512.36.328.896.492 1.608.492.48 0 .892-.068 1.236-.204a4.33 4.33 0 0 0 .864-.444v.948Zm-2.472-4.884c-.456 0-.848.14-1.176.42-.328.28-.536.704-.624 1.272h3.348c.032-.576-.1-1-.396-1.272-.296-.28-.68-.42-1.152-.42Zm5.871 5.532c-.328 0-.62-.028-.876-.084a4.113 4.113 0 0 1-.66-.18c-.184-.08-.34-.16-.468-.24a3.161 3.161 0 0 1-.3-.228v-.948c.08.08.188.168.324.264.136.088.3.172.492.252.192.08.408.148.648.204.248.048.524.072.828.072.448 0 .804-.072 1.068-.216.264-.144.396-.388.396-.732a.698.698 0 0 0-.132-.444.801.801 0 0 0-.336-.264 2.07 2.07 0 0 0-.504-.168c-.184-.04-.38-.08-.588-.12a22.265 22.265 0 0 1-.78-.18 2.73 2.73 0 0 1-.696-.3 1.633 1.633 0 0 1-.504-.516c-.128-.216-.192-.496-.192-.84 0-.56.216-1 .648-1.32.44-.32 1.052-.48 1.836-.48.44 0 .828.044 1.164.132.344.088.608.184.792.288v.948a2.824 2.824 0 0 0-.78-.336c-.304-.096-.684-.144-1.14-.144-.472 0-.836.064-1.092.192-.248.128-.372.36-.372.696 0 .168.036.304.108.408a.856.856 0 0 0 .288.24c.128.056.272.1.432.132.16.032.328.068.504.108.272.056.552.116.84.18.288.064.544.164.768.3.232.136.42.32.564.552.152.224.228.528.228.912 0 .36-.072.66-.216.9-.144.24-.336.432-.576.576-.232.136-.5.232-.804.288-.296.064-.6.096-.912.096Zm6.857-.252a1.93 1.93 0 0 1-.492.18c-.2.048-.412.072-.636.072-.304 0-.564-.044-.78-.132a1.504 1.504 0 0 1-.516-.348 1.48 1.48 0 0 1-.3-.504 2.09 2.09 0 0 1-.084-.588v-3.876h-.744v-.9h.744v-1.308h1.056v1.308h1.812v.9h-1.812v3.744c0 .264.064.456.192.576.136.12.372.18.708.18.312 0 .596-.088.852-.264v.96Zm1.945-7.008c-.216 0-.388-.064-.516-.192a.692.692 0 0 1-.192-.492.675.675 0 0 1 .708-.696c.208 0 .372.068.492.204.12.136.18.3.18.492s-.06.356-.18.492c-.12.128-.284.192-.492.192Zm.516.912V359h-1.056v-6.228h1.056Zm4.674.816c-.48 0-.872.112-1.176.336a2.455 2.455 0 0 0-.72.84V359h-1.056v-6.228h.996l.036 1.116h.024c.168-.36.432-.656.792-.888.36-.232.816-.348 1.368-.348.616 0 1.104.164 1.464.492.368.32.552.816.552 1.488V359h-1.056v-4.26c0-.432-.108-.732-.324-.9-.216-.168-.516-.252-.9-.252Zm7.598 4.224a3.648 3.648 0 0 1-.276.456 2.088 2.088 0 0 1-1.02.732c-.224.08-.488.12-.792.12-.56 0-1.012-.156-1.356-.468-.344-.32-.516-.776-.516-1.368 0-.68.236-1.18.708-1.5.48-.32 1.16-.48 2.04-.48h1.164v-.516c0-.432-.112-.74-.336-.924-.224-.184-.608-.276-1.152-.276-.384 0-.748.064-1.092.192-.344.12-.652.26-.924.42v-.948c.224-.136.524-.268.9-.396a3.75 3.75 0 0 1 1.26-.204c.784 0 1.38.164 1.788.492.408.32.612.82.612 1.5v3.6c.008.088.012.18.012.276l.024.276c.008.08.016.148.024.204h-.96a5.482 5.482 0 0 1-.072-.468 7.173 7.173 0 0 1-.024-.54l-.012-.18Zm-1.86.36c.328 0 .608-.068.84-.204.232-.136.42-.292.564-.468.144-.184.248-.36.312-.528.064-.176.096-.3.096-.372v-.456h-1.056c-.632 0-1.092.092-1.38.276-.28.176-.42.444-.42.804 0 .28.084.508.252.684.168.176.432.264.792.264Zm7.576.696a1.93 1.93 0 0 1-.492.18c-.2.048-.412.072-.636.072-.304 0-.564-.044-.78-.132a1.504 1.504 0 0 1-.516-.348 1.48 1.48 0 0 1-.3-.504 2.09 2.09 0 0 1-.084-.588v-3.876h-.744v-.9h.744v-1.308h1.056v1.308h1.812v.9h-1.812v3.744c0 .264.064.456.192.576.136.12.372.18.708.18.312 0 .596-.088.852-.264v.96Zm1.946-7.008c-.216 0-.388-.064-.516-.192a.692.692 0 0 1-.192-.492.675.675 0 0 1 .708-.696c.208 0 .372.068.492.204.12.136.18.3.18.492s-.06.356-.18.492c-.12.128-.284.192-.492.192Zm.516.912V359h-1.056v-6.228h1.056Zm4.277 6.348c-.424 0-.82-.072-1.188-.216a2.767 2.767 0 0 1-.96-.624 3.04 3.04 0 0 1-.624-1.02c-.152-.4-.228-.86-.228-1.38 0-.512.076-.968.228-1.368a2.89 2.89 0 0 1 .624-1.02c.272-.272.592-.48.96-.624a3.231 3.231 0 0 1 1.188-.216c.432 0 .832.072 1.2.216.368.144.684.352.948.624.272.272.484.612.636 1.02.16.4.24.856.24 1.368 0 .52-.08.98-.24 1.38-.152.4-.364.74-.636 1.02-.264.272-.58.48-.948.624a3.265 3.265 0 0 1-1.2.216Zm0-.948c.28 0 .536-.044.768-.132.24-.096.448-.236.624-.42.176-.192.312-.432.408-.72.096-.288.144-.628.144-1.02s-.048-.732-.144-1.02a1.855 1.855 0 0 0-.408-.708 1.569 1.569 0 0 0-.624-.42 1.99 1.99 0 0 0-.768-.144c-.28 0-.536.048-.768.144a1.586 1.586 0 0 0-.612.42c-.168.184-.3.42-.396.708a3.234 3.234 0 0 0-.144 1.02c0 .392.048.732.144 1.02.096.288.228.528.396.72.176.184.38.324.612.42.232.088.488.132.768.132Zm7.263-4.584c-.48 0-.872.112-1.176.336a2.455 2.455 0 0 0-.72.84V359h-1.056v-6.228h.996l.036 1.116h.024c.168-.36.432-.656.792-.888.36-.232.816-.348 1.368-.348.616 0 1.104.164 1.464.492.368.32.552.816.552 1.488V359h-1.056v-4.26c0-.432-.108-.732-.324-.9-.216-.168-.516-.252-.9-.252Zm9.719 5.532c-.48 0-.896-.112-1.248-.336a2.444 2.444 0 0 1-.828-.924v3.264h-1.056v-8.352h.924l.108 1.212c.208-.408.488-.732.84-.972s.788-.36 1.308-.36c.36 0 .704.068 1.032.204.336.128.628.328.876.6.256.264.456.6.6 1.008.152.4.228.872.228 1.416 0 .552-.076 1.032-.228 1.44a3.01 3.01 0 0 1-.612 1.008 2.566 2.566 0 0 1-.888.6 2.941 2.941 0 0 1-1.056.192Zm-.156-.948c.552 0 .996-.188 1.332-.564.344-.384.516-.96.516-1.728 0-.752-.172-1.32-.516-1.704-.336-.392-.78-.588-1.332-.588-.272 0-.528.048-.768.144a1.71 1.71 0 0 0-.612.432c-.168.184-.304.42-.408.708a3.191 3.191 0 0 0-.144 1.008c0 .384.048.72.144 1.008.104.288.24.528.408.72.176.192.38.336.612.432.24.088.496.132.768.132Zm7.303-4.344c-.448.04-.856.156-1.224.348-.36.184-.628.472-.804.864V359h-1.056v-6.228h.924l.108 1.356h.024c.176-.368.428-.688.756-.96.336-.28.76-.452 1.272-.516v1.176Zm6.068 4.644a3.344 3.344 0 0 1-.324.204 3.758 3.758 0 0 1-.468.216 3.946 3.946 0 0 1-.624.156 3.864 3.864 0 0 1-.78.072c-1.048 0-1.844-.284-2.388-.852-.544-.568-.816-1.364-.816-2.388 0-.504.072-.956.216-1.356.152-.4.36-.736.624-1.008.264-.28.576-.492.936-.636.36-.152.752-.228 1.176-.228a3 3 0 0 1 1.2.228c.352.152.64.376.864.672.232.296.388.664.468 1.104.088.432.088.936 0 1.512h-4.392c.04.672.24 1.176.6 1.512.36.328.896.492 1.608.492.48 0 .892-.068 1.236-.204a4.33 4.33 0 0 0 .864-.444v.948Zm-2.472-4.884c-.456 0-.848.14-1.176.42-.328.28-.536.704-.624 1.272h3.348c.032-.576-.1-1-.396-1.272-.296-.28-.68-.42-1.152-.42Zm5.248.084V359h-1.056v-5.328h-.756v-.9h.756v-.156c0-.736.196-1.308.588-1.716.392-.408.928-.612 1.608-.612.296 0 .56.036.792.108v.96a1.406 1.406 0 0 0-.312-.084 2.484 2.484 0 0 0-.432-.036c-.368 0-.66.112-.876.336-.208.224-.312.572-.312 1.044v.156h1.8v.9h-1.8Zm3.577-1.812c-.216 0-.388-.064-.516-.192a.692.692 0 0 1-.192-.492.675.675 0 0 1 .708-.696c.208 0 .372.068.492.204.12.136.18.3.18.492s-.06.356-.18.492c-.12.128-.284.192-.492.192Zm.516.912V359h-1.056v-6.228h1.056Zm3.822 3.756-1.68 2.472h-1.104l2.256-3.228-1.992-3h1.224l1.488 2.196 1.5-2.196h1.092l-2.064 2.976 2.172 3.252h-1.224l-1.668-2.472Zm4.628 2.544a.763.763 0 0 1-.564-.216.759.759 0 0 1-.216-.54c0-.224.072-.408.216-.552a.763.763 0 0 1 .564-.216c.224 0 .408.072.552.216a.748.748 0 0 1 .216.552.759.759 0 0 1-.216.54.748.748 0 0 1-.552.216Zm0-4.596a.763.763 0 0 1-.564-.216.759.759 0 0 1-.216-.54c0-.224.072-.408.216-.552a.763.763 0 0 1 .564-.216c.224 0 .408.072.552.216a.748.748 0 0 1 .216.552.759.759 0 0 1-.216.54.748.748 0 0 1-.552.216Zm-68.716 18.644c-.408 0-.788-.084-1.14-.252a2.513 2.513 0 0 1-.9-.804c-.248-.368-.444-.828-.588-1.38-.144-.56-.216-1.224-.216-1.992s.072-1.428.216-1.98c.144-.56.34-1.02.588-1.38.256-.36.556-.624.9-.792a2.612 2.612 0 0 1 1.14-.252c.408 0 .784.084 1.128.252.344.168.64.432.888.792.248.352.44.804.576 1.356.144.552.216 1.212.216 1.98s-.072 1.432-.216 1.992c-.136.552-.328 1.012-.576 1.38-.248.368-.544.64-.888.816a2.44 2.44 0 0 1-1.128.264Zm-.012-.948c.272 0 .512-.06.72-.18.208-.12.384-.316.528-.588.144-.272.252-.628.324-1.068.08-.448.12-.992.12-1.632 0-.64-.036-1.18-.108-1.62-.072-.448-.18-.808-.324-1.08-.144-.272-.32-.468-.528-.588a1.415 1.415 0 0 0-.72-.18c-.272 0-.516.06-.732.18-.208.12-.388.316-.54.588-.144.272-.256.632-.336 1.08-.072.44-.108.98-.108 1.62 0 .64.036 1.184.108 1.632.08.44.192.796.336 1.068.144.272.32.468.528.588.216.12.46.18.732.18Zm5.11.9a.763.763 0 0 1-.564-.216.759.759 0 0 1-.216-.54c0-.224.072-.408.216-.552a.763.763 0 0 1 .564-.216c.224 0 .408.072.552.216a.748.748 0 0 1 .216.552.759.759 0 0 1-.216.54.748.748 0 0 1-.552.216Zm5.098.048c-.408 0-.788-.084-1.14-.252a2.513 2.513 0 0 1-.9-.804c-.248-.368-.444-.828-.588-1.38-.144-.56-.216-1.224-.216-1.992s.072-1.428.216-1.98c.144-.56.34-1.02.588-1.38.256-.36.556-.624.9-.792a2.612 2.612 0 0 1 1.14-.252c.408 0 .784.084 1.128.252.344.168.64.432.888.792.248.352.44.804.576 1.356.144.552.216 1.212.216 1.98s-.072 1.432-.216 1.992c-.136.552-.328 1.012-.576 1.38-.248.368-.544.64-.888.816a2.44 2.44 0 0 1-1.128.264Zm-.012-.948c.272 0 .512-.06.72-.18.208-.12.384-.316.528-.588.144-.272.252-.628.324-1.068.08-.448.12-.992.12-1.632 0-.64-.036-1.18-.108-1.62-.072-.448-.18-.808-.324-1.08-.144-.272-.32-.468-.528-.588a1.415 1.415 0 0 0-.72-.18c-.272 0-.516.06-.732.18-.208.12-.388.316-.54.588-.144.272-.256.632-.336 1.08-.072.44-.108.98-.108 1.62 0 .64.036 1.184.108 1.632.08.44.192.796.336 1.068.144.272.32.468.528.588.216.12.46.18.732.18Zm5.109.9a.763.763 0 0 1-.564-.216.759.759 0 0 1-.216-.54c0-.224.072-.408.216-.552a.763.763 0 0 1 .564-.216c.224 0 .408.072.552.216a.748.748 0 0 1 .216.552.759.759 0 0 1-.216.54.748.748 0 0 1-.552.216Zm5.098.048c-.408 0-.788-.084-1.14-.252a2.513 2.513 0 0 1-.9-.804c-.248-.368-.444-.828-.588-1.38-.144-.56-.216-1.224-.216-1.992s.072-1.428.216-1.98c.144-.56.34-1.02.588-1.38.256-.36.556-.624.9-.792a2.612 2.612 0 0 1 1.14-.252c.408 0 .784.084 1.128.252.344.168.64.432.888.792.248.352.44.804.576 1.356.144.552.216 1.212.216 1.98s-.072 1.432-.216 1.992c-.136.552-.328 1.012-.576 1.38-.248.368-.544.64-.888.816a2.44 2.44 0 0 1-1.128.264Zm-.012-.948c.272 0 .512-.06.72-.18.208-.12.384-.316.528-.588.144-.272.252-.628.324-1.068.08-.448.12-.992.12-1.632 0-.64-.036-1.18-.108-1.62-.072-.448-.18-.808-.324-1.08-.144-.272-.32-.468-.528-.588a1.415 1.415 0 0 0-.72-.18c-.272 0-.516.06-.732.18-.208.12-.388.316-.54.588-.144.272-.256.632-.336 1.08-.072.44-.108.98-.108 1.62 0 .64.036 1.184.108 1.632.08.44.192.796.336 1.068.144.272.32.468.528.588.216.12.46.18.732.18Zm5.11.9a.763.763 0 0 1-.564-.216.759.759 0 0 1-.216-.54c0-.224.072-.408.216-.552a.763.763 0 0 1 .564-.216c.224 0 .408.072.552.216a.748.748 0 0 1 .216.552.759.759 0 0 1-.216.54.748.748 0 0 1-.552.216Zm5.097.048c-.408 0-.788-.084-1.14-.252a2.513 2.513 0 0 1-.9-.804c-.248-.368-.444-.828-.588-1.38-.144-.56-.216-1.224-.216-1.992s.072-1.428.216-1.98c.144-.56.34-1.02.588-1.38.256-.36.556-.624.9-.792a2.612 2.612 0 0 1 1.14-.252c.408 0 .784.084 1.128.252.344.168.64.432.888.792.248.352.44.804.576 1.356.144.552.216 1.212.216 1.98s-.072 1.432-.216 1.992c-.136.552-.328 1.012-.576 1.38-.248.368-.544.64-.888.816a2.44 2.44 0 0 1-1.128.264Zm-.012-.948c.272 0 .512-.06.72-.18.208-.12.384-.316.528-.588.144-.272.252-.628.324-1.068.08-.448.12-.992.12-1.632 0-.64-.036-1.18-.108-1.62-.072-.448-.18-.808-.324-1.08-.144-.272-.32-.468-.528-.588a1.415 1.415 0 0 0-.72-.18c-.272 0-.516.06-.732.18-.208.12-.388.316-.54.588-.144.272-.256.632-.336 1.08-.072.44-.108.98-.108 1.62 0 .64.036 1.184.108 1.632.08.44.192.796.336 1.068.144.272.32.468.528.588.216.12.46.18.732.18Zm3.286 1.308 3.456-9.552h.96l-3.456 9.552h-.96Zm7.742-.36c-.408 0-.788-.084-1.14-.252a2.513 2.513 0 0 1-.9-.804c-.248-.368-.444-.828-.588-1.38-.144-.56-.216-1.224-.216-1.992s.072-1.428.216-1.98c.144-.56.34-1.02.588-1.38.256-.36.556-.624.9-.792a2.612 2.612 0 0 1 1.14-.252c.408 0 .784.084 1.128.252.344.168.64.432.888.792.248.352.44.804.576 1.356.144.552.216 1.212.216 1.98s-.072 1.432-.216 1.992c-.136.552-.328 1.012-.576 1.38-.248.368-.544.64-.888.816a2.44 2.44 0 0 1-1.128.264Zm-.012-.948c.272 0 .512-.06.72-.18.208-.12.384-.316.528-.588.144-.272.252-.628.324-1.068.08-.448.12-.992.12-1.632 0-.64-.036-1.18-.108-1.62-.072-.448-.18-.808-.324-1.08-.144-.272-.32-.468-.528-.588a1.415 1.415 0 0 0-.72-.18c-.272 0-.516.06-.732.18-.208.12-.388.316-.54.588-.144.272-.256.632-.336 1.08-.072.44-.108.98-.108 1.62 0 .64.036 1.184.108 1.632.08.44.192.796.336 1.068.144.272.32.468.528.588.216.12.46.18.732.18ZM538.026 387h-1.536l-4.32-7.224V387h-1.068v-8.604h1.524l4.32 7.224v-7.224h1.08V387Zm6.817-.528a3.344 3.344 0 0 1-.324.204 3.758 3.758 0 0 1-.468.216 3.946 3.946 0 0 1-.624.156 3.864 3.864 0 0 1-.78.072c-1.048 0-1.844-.284-2.388-.852-.544-.568-.816-1.364-.816-2.388 0-.504.072-.956.216-1.356.152-.4.36-.736.624-1.008.264-.28.576-.492.936-.636.36-.152.752-.228 1.176-.228a3 3 0 0 1 1.2.228c.352.152.64.376.864.672.232.296.388.664.468 1.104.088.432.088.936 0 1.512h-4.392c.04.672.24 1.176.6 1.512.36.328.896.492 1.608.492.48 0 .892-.068 1.236-.204a4.33 4.33 0 0 0 .864-.444v.948Zm-2.472-4.884c-.456 0-.848.14-1.176.42-.328.28-.536.704-.624 1.272h3.348c.032-.576-.1-1-.396-1.272-.296-.28-.68-.42-1.152-.42Zm5.921 2.94-1.68 2.472h-1.104l2.256-3.228-1.992-3h1.224l1.488 2.196 1.5-2.196h1.092l-2.064 2.976 2.172 3.252h-1.224l-1.668-2.472Zm6.983 2.34a1.93 1.93 0 0 1-.492.18c-.2.048-.412.072-.636.072-.304 0-.564-.044-.78-.132a1.504 1.504 0 0 1-.516-.348 1.48 1.48 0 0 1-.3-.504 2.09 2.09 0 0 1-.084-.588v-3.876h-.744v-.9h.744v-1.308h1.056v1.308h1.812v.9h-1.812v3.744c0 .264.064.456.192.576.136.12.372.18.708.18.312 0 .596-.088.852-.264v.96Zm6.994-5.28c-.48 0-.872.112-1.176.336a2.455 2.455 0 0 0-.72.84V387h-1.056v-8.604h1.056v2.376l-.024 1.116h.024c.168-.352.432-.644.792-.876.36-.24.816-.36 1.368-.36.616 0 1.104.164 1.464.492.368.32.552.816.552 1.488V387h-1.056v-4.26c0-.432-.108-.732-.324-.9-.216-.168-.516-.252-.9-.252Zm6.506 5.532c-.424 0-.82-.072-1.188-.216a2.767 2.767 0 0 1-.96-.624 3.04 3.04 0 0 1-.624-1.02c-.152-.4-.228-.86-.228-1.38 0-.512.076-.968.228-1.368a2.89 2.89 0 0 1 .624-1.02c.272-.272.592-.48.96-.624a3.231 3.231 0 0 1 1.188-.216c.432 0 .832.072 1.2.216.368.144.684.352.948.624.272.272.484.612.636 1.02.16.4.24.856.24 1.368 0 .52-.08.98-.24 1.38-.152.4-.364.74-.636 1.02-.264.272-.58.48-.948.624a3.265 3.265 0 0 1-1.2.216Zm0-.948c.28 0 .536-.044.768-.132.24-.096.448-.236.624-.42.176-.192.312-.432.408-.72.096-.288.144-.628.144-1.02s-.048-.732-.144-1.02a1.855 1.855 0 0 0-.408-.708 1.569 1.569 0 0 0-.624-.42 1.99 1.99 0 0 0-.768-.144c-.28 0-.536.048-.768.144a1.586 1.586 0 0 0-.612.42c-.168.184-.3.42-.396.708a3.234 3.234 0 0 0-.144 1.02c0 .392.048.732.144 1.02.096.288.228.528.396.72.176.184.38.324.612.42.232.088.488.132.768.132Zm7.444.948c-.48 0-.896-.112-1.248-.336a2.444 2.444 0 0 1-.828-.924v3.264h-1.056v-8.352h.924l.108 1.212c.208-.408.488-.732.84-.972s.788-.36 1.308-.36c.36 0 .704.068 1.032.204.336.128.628.328.876.6.256.264.456.6.6 1.008.152.4.228.872.228 1.416 0 .552-.076 1.032-.228 1.44a3.01 3.01 0 0 1-.612 1.008 2.566 2.566 0 0 1-.888.6 2.941 2.941 0 0 1-1.056.192Zm-.156-.948c.552 0 .996-.188 1.332-.564.344-.384.516-.96.516-1.728 0-.752-.172-1.32-.516-1.704-.336-.392-.78-.588-1.332-.588-.272 0-.528.048-.768.144a1.71 1.71 0 0 0-.612.432c-.168.184-.304.42-.408.708a3.191 3.191 0 0 0-.144 1.008c0 .384.048.72.144 1.008.104.288.24.528.408.72.176.192.38.336.612.432.24.088.496.132.768.132Zm4.795.9a.763.763 0 0 1-.564-.216.759.759 0 0 1-.216-.54c0-.224.072-.408.216-.552a.763.763 0 0 1 .564-.216c.224 0 .408.072.552.216a.748.748 0 0 1 .216.552.759.759 0 0 1-.216.54.748.748 0 0 1-.552.216Zm0-4.596a.763.763 0 0 1-.564-.216.759.759 0 0 1-.216-.54c0-.224.072-.408.216-.552a.763.763 0 0 1 .564-.216c.224 0 .408.072.552.216a.748.748 0 0 1 .216.552.759.759 0 0 1-.216.54.748.748 0 0 1-.552.216Zm9.396 3.3c-.192.408-.46.736-.804.984-.344.24-.78.36-1.308.36-.376 0-.732-.064-1.068-.192a2.566 2.566 0 0 1-.888-.6 3.01 3.01 0 0 1-.612-1.008c-.152-.408-.228-.888-.228-1.44 0-.544.076-1.016.228-1.416.152-.408.356-.744.612-1.008.256-.272.552-.472.888-.6a2.911 2.911 0 0 1 1.08-.204c.472 0 .88.1 1.224.3.344.192.62.468.828.828v-3.384h1.056V387h-.924l-.084-1.224Zm-1.956.396c.272 0 .524-.044.756-.132.232-.096.432-.24.6-.432.176-.192.312-.432.408-.72.104-.288.156-.624.156-1.008s-.052-.72-.156-1.008a1.971 1.971 0 0 0-.408-.72 1.49 1.49 0 0 0-.6-.42 1.958 1.958 0 0 0-.756-.144c-.552 0-1.004.196-1.356.588-.344.384-.516.952-.516 1.704 0 .76.176 1.332.528 1.716.352.384.8.576 1.344.576Zm5.743.828h-1.056v-6.228h.924l.108 1.116h.024a2.21 2.21 0 0 1 .756-.876c.336-.24.776-.36 1.32-.36.48 0 .872.116 1.176.348.312.224.52.564.624 1.02.176-.424.444-.756.804-.996.368-.248.812-.372 1.332-.372.576 0 1.032.164 1.368.492.336.32.504.816.504 1.488V387h-1.068v-4.236c0-.408-.1-.704-.3-.888-.2-.192-.472-.288-.816-.288-.232 0-.436.036-.612.108a1.448 1.448 0 0 0-.468.276c-.136.12-.26.26-.372.42-.112.16-.216.328-.312.504V387h-1.056v-4.356c0-.4-.1-.676-.3-.828-.2-.152-.472-.228-.816-.228-.224 0-.424.028-.6.084a1.688 1.688 0 0 0-.48.24 1.89 1.89 0 0 0-.372.384 3.545 3.545 0 0 0-.312.48V387Zm13.702 0h-4.608v-.684l3.276-4.644h-3.18v-.9h4.5v.684l-3.276 4.644h3.288v.9Zm1.082-4.14h2.88v.96h-2.88v-.96Zm4.613-4.464h5.256v1.032h-4.128v2.856h3.504v1.02h-3.504V387h-1.128v-8.604ZM628.631 387h-1.656l-1.896-6.648-1.908 6.648h-1.668l-1.896-8.604h1.176l1.632 7.632 2.208-7.632h1.032l2.16 7.488 1.62-7.488h1.092L628.631 387Zm2.636-4.14h2.88v.96h-2.88v-.96Zm6.541-4.464h1.68l3.084 8.604h-1.2l-.888-2.46h-3.804l-.876 2.46h-1.056l3.06-8.604Zm2.316 5.124-1.536-4.284-1.536 4.284h3.072Zm7.465-5.124V387h-1.128v-8.604h1.128Zm2.001 0h2.748c.976 0 1.732.204 2.268.612.544.4.816 1.028.816 1.884 0 .488-.08.908-.24 1.26a2.22 2.22 0 0 1-.648.852c-.28.224-.616.388-1.008.492a4.91 4.91 0 0 1-1.284.156h-1.524V387h-1.128v-8.604Zm1.128 1.032v3.204h1.524c.304 0 .58-.032.828-.096s.46-.164.636-.3a1.3 1.3 0 0 0 .42-.528c.104-.224.156-.492.156-.804 0-.52-.168-.896-.504-1.128-.336-.232-.816-.348-1.44-.348h-1.62Z"/>
    <path fill="#FF5958" d="M587.238 336.396h5.472v1.26h-4.02v2.52h3.408v1.248h-3.408V345h-1.452v-8.604ZM602.875 345h-1.98l-1.74-6.372-1.764 6.372h-1.992l-1.848-8.604h1.488l1.464 7.164 2.004-7.164h1.428l1.968 7.068 1.5-7.068h1.332l-1.86 8.604Zm2.756-4.884h2.94v1.188h-2.94v-1.188Zm6.845-3.72h1.908l3.048 8.604h-1.5l-.792-2.256h-3.624l-.792 2.256h-1.284l3.036-8.604Zm2.22 5.1-1.368-3.876-1.368 3.876h2.736Z"/>
    <path fill="#000" fill-opacity=".85" d="M328.063 217h-1.956l-3.024-8.604h1.512l2.556 7.38 2.592-7.38h1.344L328.063 217Zm4.039-8.604h2.808c1.04 0 1.848.208 2.424.624.576.416.864 1.076.864 1.98 0 .496-.08.924-.24 1.284-.16.36-.388.656-.684.888-.288.232-.64.404-1.056.516a5.543 5.543 0 0 1-1.368.156h-1.296V217h-1.452v-8.604Zm1.452 1.26v2.94h1.296c.584 0 1.044-.116 1.38-.348.336-.232.504-.632.504-1.2 0-.488-.156-.84-.468-1.056-.304-.224-.756-.336-1.356-.336h-1.356Zm9.877 7.464c-.664 0-1.264-.1-1.8-.3a3.887 3.887 0 0 1-1.38-.864 4.006 4.006 0 0 1-.876-1.392c-.2-.552-.3-1.172-.3-1.86 0-.696.096-1.316.288-1.86.2-.544.484-1.004.852-1.38a3.69 3.69 0 0 1 1.368-.876c.536-.2 1.148-.3 1.836-.3.592 0 1.096.06 1.512.18.424.112.76.244 1.008.396v1.296a3.619 3.619 0 0 0-1.128-.456 5.334 5.334 0 0 0-1.344-.168c-.968 0-1.688.264-2.16.792-.464.52-.696 1.312-.696 2.376 0 2.112.976 3.168 2.928 3.168.456 0 .884-.056 1.284-.168.408-.112.78-.288 1.116-.528v1.284c-.224.168-.548.32-.972.456-.424.136-.936.204-1.536.204Zm4.669-.048a.951.951 0 0 1-.684-.264.921.921 0 0 1-.264-.66c0-.264.088-.484.264-.66a.929.929 0 0 1 .684-.276c.272 0 .5.092.684.276a.876.876 0 0 1 .276.66.9.9 0 0 1-.276.66.951.951 0 0 1-.684.264Zm0-4.248a.951.951 0 0 1-.684-.264.921.921 0 0 1-.264-.66c0-.264.088-.484.264-.66a.929.929 0 0 1 .684-.276c.272 0 .5.092.684.276a.876.876 0 0 1 .276.66.9.9 0 0 1-.276.66.951.951 0 0 1-.684.264Zm9.415 3.012c-.2.392-.468.704-.804.936-.336.232-.756.348-1.26.348-.368 0-.72-.064-1.056-.192a2.566 2.566 0 0 1-.888-.6 3.01 3.01 0 0 1-.612-1.008c-.152-.408-.228-.888-.228-1.44 0-.544.076-1.016.228-1.416.152-.408.356-.744.612-1.008a2.47 2.47 0 0 1 .9-.6 2.788 2.788 0 0 1 1.056-.204c.464 0 .86.092 1.188.276.336.184.608.444.816.78v-3.312h1.38V217h-1.26l-.072-1.164Zm-1.74.12c.24 0 .46-.04.66-.12.208-.088.388-.216.54-.384.16-.176.284-.392.372-.648.088-.264.132-.572.132-.924 0-.352-.044-.656-.132-.912a1.8 1.8 0 0 0-.36-.648 1.343 1.343 0 0 0-.54-.384 1.707 1.707 0 0 0-.672-.132c-.488 0-.892.176-1.212.528-.312.352-.468.868-.468 1.548 0 .696.156 1.216.468 1.56.312.344.716.516 1.212.516Zm6.04 1.044h-1.392v-6.228h1.272l.096 1.02h.024c.168-.328.412-.6.732-.816.328-.216.744-.324 1.248-.324.456 0 .844.108 1.164.324.32.216.536.544.648.984.176-.4.44-.716.792-.948.352-.24.78-.36 1.284-.36.28 0 .536.04.768.12.24.08.444.204.612.372.168.16.3.364.396.612.096.248.144.54.144.876V217h-1.404v-4.176c0-.36-.088-.62-.264-.78-.176-.16-.416-.24-.72-.24-.368 0-.672.1-.912.3-.232.2-.428.44-.588.72V217h-1.404v-4.272c0-.36-.088-.604-.264-.732-.176-.128-.412-.192-.708-.192-.384 0-.692.088-.924.264a2.28 2.28 0 0 0-.6.66V217Zm13.783 0h-4.86v-.936l3.144-4.188h-3.048v-1.104h4.752v.888l-3.144 4.224h3.156V217Zm-51.451-76h-1.956l-3.024-8.604h1.512l2.556 7.38 2.592-7.38h1.344L324.147 141Zm4.039-8.604h2.808c1.04 0 1.848.208 2.424.624.576.416.864 1.076.864 1.98 0 .496-.08.924-.24 1.284-.16.36-.388.656-.684.888-.288.232-.64.404-1.056.516a5.543 5.543 0 0 1-1.368.156h-1.296V141h-1.452v-8.604Zm1.452 1.26v2.94h1.296c.584 0 1.044-.116 1.38-.348.336-.232.504-.632.504-1.2 0-.488-.156-.84-.468-1.056-.304-.224-.756-.336-1.356-.336h-1.356Zm9.877 7.464c-.664 0-1.264-.1-1.8-.3a3.887 3.887 0 0 1-1.38-.864 4.006 4.006 0 0 1-.876-1.392c-.2-.552-.3-1.172-.3-1.86 0-.696.096-1.316.288-1.86.2-.544.484-1.004.852-1.38a3.69 3.69 0 0 1 1.368-.876c.536-.2 1.148-.3 1.836-.3.592 0 1.096.06 1.512.18.424.112.76.244 1.008.396v1.296a3.619 3.619 0 0 0-1.128-.456 5.334 5.334 0 0 0-1.344-.168c-.968 0-1.688.264-2.16.792-.464.52-.696 1.312-.696 2.376 0 2.112.976 3.168 2.928 3.168.456 0 .884-.056 1.284-.168.408-.112.78-.288 1.116-.528v1.284c-.224.168-.548.32-.972.456-.424.136-.936.204-1.536.204Zm4.669-.048a.951.951 0 0 1-.684-.264.921.921 0 0 1-.264-.66c0-.264.088-.484.264-.66a.929.929 0 0 1 .684-.276c.272 0 .5.092.684.276a.876.876 0 0 1 .276.66.9.9 0 0 1-.276.66.951.951 0 0 1-.684.264Zm0-4.248a.951.951 0 0 1-.684-.264.921.921 0 0 1-.264-.66c0-.264.088-.484.264-.66a.929.929 0 0 1 .684-.276c.272 0 .5.092.684.276a.876.876 0 0 1 .276.66.9.9 0 0 1-.276.66.951.951 0 0 1-.684.264Zm8.383 4.296c-.472 0-.88-.104-1.224-.312a2.489 2.489 0 0 1-.816-.864v3.18h-1.392v-8.352h1.272l.096 1.104c.208-.376.484-.672.828-.888.344-.224.764-.336 1.26-.336.368 0 .716.068 1.044.204.336.128.628.328.876.6.248.264.444.6.588 1.008.152.4.228.872.228 1.416 0 .552-.076 1.032-.228 1.44-.144.4-.344.736-.6 1.008-.248.264-.54.464-.876.6a2.941 2.941 0 0 1-1.056.192Zm-.336-1.164c.496 0 .896-.168 1.2-.504.312-.344.468-.868.468-1.572 0-.696-.156-1.216-.468-1.56-.304-.344-.7-.516-1.188-.516-.248 0-.476.044-.684.132-.208.08-.392.208-.552.384a1.93 1.93 0 0 0-.36.66 2.771 2.771 0 0 0-.132.9c0 .352.044.66.132.924.088.256.208.472.36.648.152.168.332.296.54.384.216.08.444.12.684.12Zm8.248.024c-.168.32-.42.592-.756.816-.328.216-.76.324-1.296.324-.584 0-1.06-.168-1.428-.504-.368-.336-.552-.848-.552-1.536v-4.308h1.404v4.272c0 .36.1.604.3.732.2.12.444.18.732.18.392 0 .712-.08.96-.24a2.23 2.23 0 0 0 .636-.672v-4.272h1.38V141h-1.272l-.084-1.02h-.024Zm9.145-2.1c0 .552-.076 1.032-.228 1.44-.144.4-.344.736-.6 1.008-.248.264-.54.464-.876.6a2.941 2.941 0 0 1-1.056.192c-.48 0-.896-.108-1.248-.324a2.467 2.467 0 0 1-.828-.912l-.036 1.116h-1.32v-8.604h1.392l-.012 3.468c.208-.376.484-.672.828-.888.344-.216.76-.324 1.248-.324.368 0 .716.068 1.044.204.336.128.628.328.876.6.248.264.444.6.588 1.008.152.4.228.872.228 1.416Zm-3.096 2.076c.496 0 .896-.168 1.2-.504.312-.344.468-.868.468-1.572 0-.696-.156-1.216-.468-1.56-.304-.344-.7-.516-1.188-.516-.248 0-.476.044-.684.132-.208.08-.392.208-.552.384a1.93 1.93 0 0 0-.36.66 2.771 2.771 0 0 0-.132.9c0 .352.044.66.132.924.088.256.208.472.36.648.152.168.332.296.54.384.216.08.444.12.684.12Zm5.667-7.56V141h-1.392v-8.604h1.392Zm2.27 1.584a.862.862 0 0 1-.636-.252.84.84 0 0 1-.24-.6.84.84 0 0 1 .24-.6.862.862 0 0 1 .636-.252c.248 0 .452.084.612.252a.82.82 0 0 1 .252.6.82.82 0 0 1-.252.6.808.808 0 0 1-.612.252Zm.696.792V141h-1.392v-6.228h1.392Zm4.428 6.348c-.504 0-.956-.072-1.356-.216-.4-.152-.74-.364-1.02-.636-.28-.28-.496-.62-.648-1.02a3.832 3.832 0 0 1-.228-1.368c0-.504.076-.956.228-1.356a2.71 2.71 0 0 1 1.68-1.644 3.895 3.895 0 0 1 1.368-.228c.432 0 .808.048 1.128.144.328.096.588.216.78.36v1.152a3.154 3.154 0 0 0-.816-.372 3.46 3.46 0 0 0-1.008-.132c-1.288 0-1.932.692-1.932 2.076 0 1.384.632 2.076 1.896 2.076.408 0 .756-.044 1.044-.132a4.2 4.2 0 0 0 .816-.36v1.152a3.384 3.384 0 0 1-.78.36c-.312.096-.696.144-1.152.144Zm-145.67 6c-.472 0-.88-.104-1.224-.312a2.489 2.489 0 0 1-.816-.864v3.18h-1.392v-8.352h1.272l.096 1.104c.208-.376.484-.672.828-.888.344-.224.764-.336 1.26-.336.368 0 .716.068 1.044.204.336.128.628.328.876.6.248.264.444.6.588 1.008.152.4.228.872.228 1.416 0 .552-.076 1.032-.228 1.44-.144.4-.344.736-.6 1.008-.248.264-.54.464-.876.6a2.941 2.941 0 0 1-1.056.192Zm-.336-1.164c.496 0 .896-.168 1.2-.504.312-.344.468-.868.468-1.572 0-.696-.156-1.216-.468-1.56-.304-.344-.7-.516-1.188-.516-.248 0-.476.044-.684.132-.208.08-.392.208-.552.384a1.93 1.93 0 0 0-.36.66 2.771 2.771 0 0 0-.132.9c0 .352.044.66.132.924.088.256.208.472.36.648.152.168.332.296.54.384.216.08.444.12.684.12Zm8.247.024c-.168.32-.42.592-.756.816-.328.216-.76.324-1.296.324-.584 0-1.06-.168-1.428-.504-.368-.336-.552-.848-.552-1.536v-4.308h1.404v4.272c0 .36.1.604.3.732.2.12.444.18.732.18.392 0 .712-.08.96-.24a2.23 2.23 0 0 0 .636-.672v-4.272h1.38V147h-1.272l-.084-1.02h-.024Zm9.146-2.1c0 .552-.076 1.032-.228 1.44-.144.4-.344.736-.6 1.008-.248.264-.54.464-.876.6a2.941 2.941 0 0 1-1.056.192c-.48 0-.896-.108-1.248-.324a2.467 2.467 0 0 1-.828-.912l-.036 1.116h-1.32v-8.604h1.392l-.012 3.468c.208-.376.484-.672.828-.888.344-.216.76-.324 1.248-.324.368 0 .716.068 1.044.204.336.128.628.328.876.6.248.264.444.6.588 1.008.152.4.228.872.228 1.416Zm-3.096 2.076c.496 0 .896-.168 1.2-.504.312-.344.468-.868.468-1.572 0-.696-.156-1.216-.468-1.56-.304-.344-.7-.516-1.188-.516-.248 0-.476.044-.684.132-.208.08-.392.208-.552.384a1.93 1.93 0 0 0-.36.66 2.771 2.771 0 0 0-.132.9c0 .352.044.66.132.924.088.256.208.472.36.648.152.168.332.296.54.384.216.08.444.12.684.12Zm5.667-7.56V147h-1.392v-8.604h1.392Zm2.269 1.584a.862.862 0 0 1-.636-.252.84.84 0 0 1-.24-.6.84.84 0 0 1 .24-.6.862.862 0 0 1 .636-.252c.248 0 .452.084.612.252a.82.82 0 0 1 .252.6.82.82 0 0 1-.252.6.808.808 0 0 1-.612.252Zm.696.792V147h-1.392v-6.228h1.392Zm4.429 6.348c-.504 0-.956-.072-1.356-.216-.4-.152-.74-.364-1.02-.636-.28-.28-.496-.62-.648-1.02a3.832 3.832 0 0 1-.228-1.368c0-.504.076-.956.228-1.356a2.71 2.71 0 0 1 1.68-1.644 3.895 3.895 0 0 1 1.368-.228c.432 0 .808.048 1.128.144.328.096.588.216.78.36v1.152a3.154 3.154 0 0 0-.816-.372 3.46 3.46 0 0 0-1.008-.132c-1.288 0-1.932.692-1.932 2.076 0 1.384.632 2.076 1.896 2.076.408 0 .756-.044 1.044-.132a4.2 4.2 0 0 0 .816-.36v1.152a3.384 3.384 0 0 1-.78.36c-.312.096-.696.144-1.152.144Zm-21.074 98.716c-.2.392-.468.704-.804.936-.336.232-.756.348-1.26.348-.368 0-.72-.064-1.056-.192a2.566 2.566 0 0 1-.888-.6 3.01 3.01 0 0 1-.612-1.008c-.152-.408-.228-.888-.228-1.44 0-.544.076-1.016.228-1.416.152-.408.356-.744.612-1.008a2.47 2.47 0 0 1 .9-.6 2.788 2.788 0 0 1 1.056-.204c.464 0 .86.092 1.188.276.336.184.608.444.816.78v-3.312h1.38V247h-1.26l-.072-1.164Zm-1.74.12c.24 0 .46-.04.66-.12.208-.088.388-.216.54-.384.16-.176.284-.392.372-.648.088-.264.132-.572.132-.924 0-.352-.044-.656-.132-.912a1.8 1.8 0 0 0-.36-.648 1.343 1.343 0 0 0-.54-.384 1.707 1.707 0 0 0-.672-.132c-.488 0-.892.176-1.212.528-.312.352-.468.868-.468 1.548 0 .696.156 1.216.468 1.56.312.344.716.516 1.212.516Zm6.039 1.044h-1.392v-6.228h1.272l.096 1.02h.024c.168-.328.412-.6.732-.816.328-.216.744-.324 1.248-.324.456 0 .844.108 1.164.324.32.216.536.544.648.984.176-.4.44-.716.792-.948.352-.24.78-.36 1.284-.36.28 0 .536.04.768.12.24.08.444.204.612.372.168.16.3.364.396.612.096.248.144.54.144.876V247h-1.404v-4.176c0-.36-.088-.62-.264-.78-.176-.16-.416-.24-.72-.24-.368 0-.672.1-.912.3-.232.2-.428.44-.588.72V247h-1.404v-4.272c0-.36-.088-.604-.264-.732-.176-.128-.412-.192-.708-.192-.384 0-.692.088-.924.264a2.28 2.28 0 0 0-.6.66V247Zm13.784 0h-4.86v-.936l3.144-4.188h-3.048v-1.104h4.752v.888l-3.144 4.224h3.156V247Z"/>
    <rect width="64" height="68" x="215" y="159" fill="#fff" stroke="#FF5958" stroke-width="2" rx="9"/>
    <path fill="#4E496B" d="m107 409-5.773 10h11.547L107 409Zm70 48h-62v2h62v-2Zm-69-7v-32h-2v32h2Zm7 7a7 7 0 0 1-7-7h-2a9 9 0 0 0 9 9v-2Zm478-48 5.773 10h-11.547L593 409Zm-70 48h62v2h-62v-2Zm69-7v-32h2v32h-2Zm-7 7a7 7 0 0 0 7-7h2a9 9 0 0 1-9 9v-2Z"/>
    <path stroke="#5282FF" stroke-width="2" d="M318 292h-63a8 8 0 0 1-8-8v-28"/>
    <path fill="#929292" d="m258 256-5.774 10h11.548L258 256Zm112 20H266v2h104v-2Zm-111-7v-4h-2v4h2Zm7 7a7 7 0 0 1-7-7h-2a9 9 0 0 0 9 9v-2Z"/>
    <path fill="#5282FF" d="m341 317 5.774-10h-11.548L341 317Zm-59-24h51v-2h-51v2Zm58 7v8h2v-8h-2Zm-7-7a7 7 0 0 1 7 7h2a9 9 0 0 0-9-9v2Z"/>
    <path stroke="#929292" stroke-width="2" d="M338 277h118a8 8 0 0 1 8 8v139"/>
    <path fill="#929292" d="m235 256-5.774 10h11.548L235 256Zm-1 9v159h2V265h-2Z"/>
    <rect width="138" height="68" x="281" y="13" fill="#fff" stroke="#5282FF" stroke-width="2" rx="9"/>
    <path fill="#000" fill-opacity=".85" d="M330.697 42.396V51h-1.128v-8.604h1.128Zm4.808 3.192c-.48 0-.872.112-1.176.336a2.455 2.455 0 0 0-.72.84V51h-1.056v-6.228h.996l.036 1.116h.024c.168-.36.432-.656.792-.888.36-.232.816-.348 1.368-.348.616 0 1.104.164 1.464.492.368.32.552.816.552 1.488V51h-1.056v-4.26c0-.432-.108-.732-.324-.9-.216-.168-.516-.252-.9-.252Zm6.999 5.28a1.93 1.93 0 0 1-.492.18c-.2.048-.412.072-.636.072-.304 0-.564-.044-.78-.132a1.504 1.504 0 0 1-.516-.348 1.48 1.48 0 0 1-.3-.504 2.09 2.09 0 0 1-.084-.588v-3.876h-.744v-.9h.744v-1.308h1.056v1.308h1.812v.9h-1.812v3.744c0 .264.064.456.192.576.136.12.372.18.708.18.312 0 .596-.088.852-.264v.96Zm6.302-.396a3.344 3.344 0 0 1-.324.204 3.758 3.758 0 0 1-.468.216 3.946 3.946 0 0 1-.624.156 3.864 3.864 0 0 1-.78.072c-1.048 0-1.844-.284-2.388-.852-.544-.568-.816-1.364-.816-2.388 0-.504.072-.956.216-1.356.152-.4.36-.736.624-1.008.264-.28.576-.492.936-.636.36-.152.752-.228 1.176-.228a3 3 0 0 1 1.2.228c.352.152.64.376.864.672.232.296.388.664.468 1.104.088.432.088.936 0 1.512h-4.392c.04.672.24 1.176.6 1.512.36.328.896.492 1.608.492.48 0 .892-.068 1.236-.204a4.33 4.33 0 0 0 .864-.444v.948Zm-2.472-4.884c-.456 0-.848.14-1.176.42-.328.28-.536.704-.624 1.272h3.348c.032-.576-.1-1-.396-1.272-.296-.28-.68-.42-1.152-.42Zm6.964.24c-.448.04-.856.156-1.224.348-.36.184-.628.472-.804.864V51h-1.056v-6.228h.924l.108 1.356h.024c.176-.368.428-.688.756-.96.336-.28.76-.452 1.272-.516v1.176Zm4.239-.24c-.48 0-.872.112-1.176.336a2.455 2.455 0 0 0-.72.84V51h-1.056v-6.228h.996l.036 1.116h.024c.168-.36.432-.656.792-.888.36-.232.816-.348 1.368-.348.616 0 1.104.164 1.464.492.368.32.552.816.552 1.488V51h-1.056v-4.26c0-.432-.108-.732-.324-.9-.216-.168-.516-.252-.9-.252Zm8.906 4.884a3.344 3.344 0 0 1-.324.204 3.758 3.758 0 0 1-.468.216 3.946 3.946 0 0 1-.624.156 3.864 3.864 0 0 1-.78.072c-1.048 0-1.844-.284-2.388-.852-.544-.568-.816-1.364-.816-2.388 0-.504.072-.956.216-1.356.152-.4.36-.736.624-1.008.264-.28.576-.492.936-.636.36-.152.752-.228 1.176-.228a3 3 0 0 1 1.2.228c.352.152.64.376.864.672.232.296.388.664.468 1.104.088.432.088.936 0 1.512h-4.392c.04.672.24 1.176.6 1.512.36.328.896.492 1.608.492.48 0 .892-.068 1.236-.204a4.33 4.33 0 0 0 .864-.444v.948Zm-2.472-4.884c-.456 0-.848.14-1.176.42-.328.28-.536.704-.624 1.272h3.348c.032-.576-.1-1-.396-1.272-.296-.28-.68-.42-1.152-.42Zm6.927 5.28a1.93 1.93 0 0 1-.492.18c-.2.048-.412.072-.636.072-.304 0-.564-.044-.78-.132a1.504 1.504 0 0 1-.516-.348 1.48 1.48 0 0 1-.3-.504 2.09 2.09 0 0 1-.084-.588v-3.876h-.744v-.9h.744v-1.308h1.056v1.308h1.812v.9h-1.812v3.744c0 .264.064.456.192.576.136.12.372.18.708.18.312 0 .596-.088.852-.264v.96Z"/>
    <path fill="#4E496B" d="M232.268 188.396h5.472v1.26h-4.02v2.52h3.408v1.248h-3.408V197h-1.452v-8.604ZM247.904 197h-1.98l-1.74-6.372L242.42 197h-1.992l-1.848-8.604h1.488l1.464 7.164 2.004-7.164h1.428l1.968 7.068 1.5-7.068h1.332l-1.86 8.604Zm2.756-4.884h2.94v1.188h-2.94v-1.188Zm6.845-3.72h1.908l3.048 8.604h-1.5l-.792-2.256h-3.624l-.792 2.256h-1.284l3.036-8.604Zm2.22 5.1-1.368-3.876-1.368 3.876h2.736Z"/>
    <path fill="#000" fill-opacity=".85" d="M439.919 147.12c-.472 0-.88-.104-1.224-.312a2.489 2.489 0 0 1-.816-.864v3.18h-1.392v-8.352h1.272l.096 1.104c.208-.376.484-.672.828-.888.344-.224.764-.336 1.26-.336.368 0 .716.068 1.044.204.336.128.628.328.876.6.248.264.444.6.588 1.008.152.4.228.872.228 1.416 0 .552-.076 1.032-.228 1.44-.144.4-.344.736-.6 1.008-.248.264-.54.464-.876.6a2.941 2.941 0 0 1-1.056.192Zm-.336-1.164c.496 0 .896-.168 1.2-.504.312-.344.468-.868.468-1.572 0-.696-.156-1.216-.468-1.56-.304-.344-.7-.516-1.188-.516-.248 0-.476.044-.684.132-.208.08-.392.208-.552.384a1.93 1.93 0 0 0-.36.66 2.771 2.771 0 0 0-.132.9c0 .352.044.66.132.924.088.256.208.472.36.648.152.168.332.296.54.384.216.08.444.12.684.12Zm8.247.024c-.168.32-.42.592-.756.816-.328.216-.76.324-1.296.324-.584 0-1.06-.168-1.428-.504-.368-.336-.552-.848-.552-1.536v-4.308h1.404v4.272c0 .36.1.604.3.732.2.12.444.18.732.18.392 0 .712-.08.96-.24a2.23 2.23 0 0 0 .636-.672v-4.272h1.38V147h-1.272l-.084-1.02h-.024Zm9.146-2.1c0 .552-.076 1.032-.228 1.44-.144.4-.344.736-.6 1.008-.248.264-.54.464-.876.6a2.941 2.941 0 0 1-1.056.192c-.48 0-.896-.108-1.248-.324a2.467 2.467 0 0 1-.828-.912l-.036 1.116h-1.32v-8.604h1.392l-.012 3.468c.208-.376.484-.672.828-.888.344-.216.76-.324 1.248-.324.368 0 .716.068 1.044.204.336.128.628.328.876.6.248.264.444.6.588 1.008.152.4.228.872.228 1.416Zm-3.096 2.076c.496 0 .896-.168 1.2-.504.312-.344.468-.868.468-1.572 0-.696-.156-1.216-.468-1.56-.304-.344-.7-.516-1.188-.516-.248 0-.476.044-.684.132-.208.08-.392.208-.552.384a1.93 1.93 0 0 0-.36.66 2.771 2.771 0 0 0-.132.9c0 .352.044.66.132.924.088.256.208.472.36.648.152.168.332.296.54.384.216.08.444.12.684.12Zm5.667-7.56V147h-1.392v-8.604h1.392Zm2.269 1.584a.862.862 0 0 1-.636-.252.84.84 0 0 1-.24-.6.84.84 0 0 1 .24-.6.862.862 0 0 1 .636-.252c.248 0 .452.084.612.252a.82.82 0 0 1 .252.6.82.82 0 0 1-.252.6.808.808 0 0 1-.612.252Zm.696.792V147h-1.392v-6.228h1.392Zm4.429 6.348c-.504 0-.956-.072-1.356-.216-.4-.152-.74-.364-1.02-.636-.28-.28-.496-.62-.648-1.02a3.832 3.832 0 0 1-.228-1.368c0-.504.076-.956.228-1.356a2.71 2.71 0 0 1 1.68-1.644 3.895 3.895 0 0 1 1.368-.228c.432 0 .808.048 1.128.144.328.096.588.216.78.36v1.152a3.154 3.154 0 0 0-.816-.372 3.46 3.46 0 0 0-1.008-.132c-1.288 0-1.932.692-1.932 2.076 0 1.384.632 2.076 1.896 2.076.408 0 .756-.044 1.044-.132a4.2 4.2 0 0 0 .816-.36v1.152a3.384 3.384 0 0 1-.78.36c-.312.096-.696.144-1.152.144Zm-21.074 98.716c-.2.392-.468.704-.804.936-.336.232-.756.348-1.26.348-.368 0-.72-.064-1.056-.192a2.566 2.566 0 0 1-.888-.6 3.01 3.01 0 0 1-.612-1.008c-.152-.408-.228-.888-.228-1.44 0-.544.076-1.016.228-1.416.152-.408.356-.744.612-1.008a2.47 2.47 0 0 1 .9-.6 2.788 2.788 0 0 1 1.056-.204c.464 0 .86.092 1.188.276.336.184.608.444.816.78v-3.312h1.38V247h-1.26l-.072-1.164Zm-1.74.12c.24 0 .46-.04.66-.12.208-.088.388-.216.54-.384.16-.176.284-.392.372-.648.088-.264.132-.572.132-.924 0-.352-.044-.656-.132-.912a1.8 1.8 0 0 0-.36-.648 1.343 1.343 0 0 0-.54-.384 1.707 1.707 0 0 0-.672-.132c-.488 0-.892.176-1.212.528-.312.352-.468.868-.468 1.548 0 .696.156 1.216.468 1.56.312.344.716.516 1.212.516Zm6.039 1.044h-1.392v-6.228h1.272l.096 1.02h.024c.168-.328.412-.6.732-.816.328-.216.744-.324 1.248-.324.456 0 .844.108 1.164.324.32.216.536.544.648.984.176-.4.44-.716.792-.948.352-.24.78-.36 1.284-.36.28 0 .536.04.768.12.24.08.444.204.612.372.168.16.3.364.396.612.096.248.144.54.144.876V247h-1.404v-4.176c0-.36-.088-.62-.264-.78-.176-.16-.416-.24-.72-.24-.368 0-.672.1-.912.3-.232.2-.428.44-.588.72V247h-1.404v-4.272c0-.36-.088-.604-.264-.732-.176-.128-.412-.192-.708-.192-.384 0-.692.088-.924.264a2.28 2.28 0 0 0-.6.66V247Zm13.784 0h-4.86v-.936l3.144-4.188h-3.048v-1.104h4.752v.888l-3.144 4.224h3.156V247Z"/>
    <rect width="64" height="68" x="421" y="159" fill="#fff" stroke="#FFDB4D" stroke-width="2" rx="9"/>
    <path fill="#4E496B" d="M438.543 188.396h5.472v1.26h-4.02v2.52h3.408v1.248h-3.408V197h-1.452v-8.604ZM454.179 197h-1.98l-1.74-6.372-1.764 6.372h-1.992l-1.848-8.604h1.488l1.464 7.164 2.004-7.164h1.428l1.968 7.068 1.5-7.068h1.332l-1.86 8.604Zm2.756-4.884h2.94v1.188h-2.94v-1.188Zm4.542-3.72h2.928c1.024 0 1.804.16 2.34.48.536.32.804.86.804 1.62 0 .312-.044.584-.132.816-.088.224-.216.42-.384.588-.16.16-.356.292-.588.396a3.597 3.597 0 0 1-.768.24c.72.088 1.264.284 1.632.588.368.304.552.768.552 1.392 0 .448-.088.832-.264 1.152-.176.312-.42.568-.732.768-.312.192-.68.336-1.104.432a6.792 6.792 0 0 1-1.38.132h-2.904v-8.604Zm1.452 1.26v2.292h1.548c.48 0 .868-.1 1.164-.3.296-.208.444-.532.444-.972 0-.4-.136-.668-.408-.804-.264-.144-.64-.216-1.128-.216h-1.62Zm0 3.54v2.556h1.596c.272 0 .52-.02.744-.06.224-.048.416-.12.576-.216a1.1 1.1 0 0 0 .372-.396c.088-.168.132-.372.132-.612 0-.472-.156-.8-.468-.984-.304-.192-.796-.288-1.476-.288h-1.476Z"/>
    <path fill="#5282FF" d="m240 133 5.774-10h-11.548L240 133Zm1-9V46h-2v78h2Zm7-85h32v-2h-32v2Zm-7 7a7 7 0 0 1 7-7v-2a9 9 0 0 0-9 9h2Z"/>
    <path fill="#929292" d="m280 55-10-5.773v11.547L280 55Zm-24 78V63h-2v70h2Zm7-77h8v-2h-8v2Zm-7 7a7 7 0 0 1 7-7v-2a9 9 0 0 0-9 9h2Z"/>
    <defs>
        <filter id="filter0_d_42_109" width="642" height="86" x="29" y="94" color-interpolation-filters="sRGB" filterUnits="userSpaceOnUse">
            <feFlood flood-opacity="0" result="BackgroundImageFix"/>
            <feColorMatrix in="SourceAlpha" result="hardAlpha" values="0 0 0 0 0 0 0 0 0 0 0 0 0 0 0 0 0 0 127 0"/>
            <feOffset/>
            <feGaussianBlur stdDeviation="4"/>
            <feColorMatrix values="0 0 0 0 0.321569 0 0 0 0 0.509804 0 0 0 0 1 0 0 0 0.2 0"/>
            <feBlend in2="BackgroundImageFix" result="effect1_dropShadow_42_109"/>
            <feBlend in="SourceGraphic" in2="effect1_dropShadow_42_109" result="shape"/>
        </filter>
        <filter id="filter1_d_42_109" width="672" height="331" x="14" y="184" color-interpolation-filters="sRGB" filterUnits="userSpaceOnUse">
            <feFlood flood-opacity="0" result="BackgroundImageFix"/>
            <feColorMatrix in="SourceAlpha" result="hardAlpha" values="0 0 0 0 0 0 0 0 0 0 0 0 0 0 0 0 0 0 127 0"/>
            <feOffset/>
            <feGaussianBlur stdDeviation="4"/>
            <feColorMatrix values="0 0 0 0 0.321569 0 0 0 0 0.509804 0 0 0 0 1 0 0 0 0.2 0"/>
            <feBlend in2="BackgroundImageFix" result="effect1_dropShadow_42_109"/>
            <feBlend in="SourceGraphic" in2="effect1_dropShadow_42_109" result="shape"/>
        </filter>
        <filter id="filter2_d_42_109" width="156" height="153" x="29" y="264" color-interpolation-filters="sRGB" filterUnits="userSpaceOnUse">
            <feFlood flood-opacity="0" result="BackgroundImageFix"/>
            <feColorMatrix in="SourceAlpha" result="hardAlpha" values="0 0 0 0 0 0 0 0 0 0 0 0 0 0 0 0 0 0 127 0"/>
            <feOffset/>
            <feGaussianBlur stdDeviation="4"/>
            <feColorMatrix values="0 0 0 0 0.321569 0 0 0 0 0.509804 0 0 0 0 1 0 0 0 0.2 0"/>
            <feBlend in2="BackgroundImageFix" result="effect1_dropShadow_42_109"/>
            <feBlend in="SourceGraphic" in2="effect1_dropShadow_42_109" result="shape"/>
        </filter>
        <filter id="filter3_d_42_109" width="156" height="153" x="515" y="264" color-interpolation-filters="sRGB" filterUnits="userSpaceOnUse">
            <feFlood flood-opacity="0" result="BackgroundImageFix"/>
            <feColorMatrix in="SourceAlpha" result="hardAlpha" values="0 0 0 0 0 0 0 0 0 0 0 0 0 0 0 0 0 0 127 0"/>
            <feOffset/>
            <feGaussianBlur stdDeviation="4"/>
            <feColorMatrix values="0 0 0 0 0.321569 0 0 0 0 0.509804 0 0 0 0 1 0 0 0 0.2 0"/>
            <feBlend in2="BackgroundImageFix" result="effect1_dropShadow_42_109"/>
            <feBlend in="SourceGraphic" in2="effect1_dropShadow_42_109" result="shape"/>
        </filter>
    </defs>
</svg>
