<svg xmlns="http://www.w3.org/2000/svg" xmlns:xlink="http://www.w3.org/1999/xlink" width="16" height="16" class="yc-icon" fill="currentColor" stroke="none" aria-hidden="true"><svg xmlns="http://www.w3.org/2000/svg" viewBox="0 0 512 512"><path d="M80 48H16A16 16 0 000 64v64a16 16 0 0016 16h64a16 16 0 0016-16V64a16 16 0 00-16-16zm0 160H16a16 16 0 00-16 16v64a16 16 0 0016 16h64a16 16 0 0016-16v-64a16 16 0 00-16-16zm0 160H16a16 16 0 00-16 16v64a16 16 0 0016 16h64a16 16 0 0016-16v-64a16 16 0 00-16-16zm416-136H176a16 16 0 00-16 16v16a16 16 0 0016 16h320a16 16 0 0016-16v-16a16 16 0 00-16-16zm0 160H176a16 16 0 00-16 16v16a16 16 0 0016 16h320a16 16 0 0016-16v-16a16 16 0 00-16-16zm0-320H176a16 16 0 00-16 16v16a16 16 0 0016 16h320a16 16 0 0016-16V88a16 16 0 00-16-16z"></path></svg></svg>
