<svg xmlns="http://www.w3.org/2000/svg" width="16" height="16" fill="currentColor" aria-hidden="true" class="yc-icon"><svg xmlns="http://www.w3.org/2000/svg" viewBox="0 0 16 16"><path fill-opacity=".85" fill-rule="evenodd" d="M3.561 14.998H1.319A.317.317 0 0 1 1 14.68v-2.242c0-.176.1-.42.222-.54L9.739 3.38a.318.318 0 0 1 .448.005l2.428 2.428a.318.318 0 0 1 .005.447l-8.518 8.518a.867.867 0 0 1-.541.222zM14.024 4.855a.32.32 0 0 1-.449-.003l-2.428-2.429a.318.318 0 0 1-.004-.448l.738-.738c.333-.313.652-.32.96 0l1.92 1.92c.324.32.313.652 0 .96l-.737.738z" clip-rule="evenodd"/></svg></svg>