<?xml version="1.0" encoding="UTF-8" standalone="no"?>
<svg
   width="16"
   height="16"
   fill="none"
   viewBox="0 0 16 16"
   version="1.1"
   id="svg1"
   sodipodi:docname="layout-split-rows-dots.svg"
   inkscape:version="1.4.2 (f4327f4, 2025-05-13)"
   xmlns:inkscape="http://www.inkscape.org/namespaces/inkscape"
   xmlns:sodipodi="http://sodipodi.sourceforge.net/DTD/sodipodi-0.dtd"
   xmlns="http://www.w3.org/2000/svg"
   xmlns:svg="http://www.w3.org/2000/svg">
  <defs
     id="defs1" />
  <sodipodi:namedview
     id="namedview1"
     pagecolor="#ffffff"
     bordercolor="#000000"
     borderopacity="0.25"
     inkscape:showpageshadow="2"
     inkscape:pageopacity="0.0"
     inkscape:pagecheckerboard="0"
     inkscape:deskcolor="#d1d1d1"
     inkscape:zoom="22.627417"
     inkscape:cx="3.9332815"
     inkscape:cy="11.821941"
     inkscape:window-width="1280"
     inkscape:window-height="961"
     inkscape:window-x="-8"
     inkscape:window-y="-8"
     inkscape:window-maximized="1"
     inkscape:current-layer="layer1" />
  <path
     fill="currentColor"
     fill-rule="evenodd"
     d="M13.5 4v1a1 1 0 0 1-1 1h-9a1 1 0 0 1-1-1V4a1 1 0 0 1 1-1h9a1 1 0 0 1 1 1M15 5V4a2.5 2.5 0 0 0-2.5-2.5h-9A2.5 2.5 0 0 0 1 4v1a2.5 2.5 0 0 0 2.5 2.5h9A2.5 2.5 0 0 0 15 5m-1.5 6v1a1 1 0 0 1-1 1h-9a1 1 0 0 1-1-1v-1a1 1 0 0 1 1-1h9a1 1 0 0 1 1 1m1.5 1v-1a2.5 2.5 0 0 0-2.5-2.5h-9A2.5 2.5 0 0 0 1 11v1a2.5 2.5 0 0 0 2.5 2.5h9A2.5 2.5 0 0 0 15 12"
     clip-rule="evenodd"
     id="path1" />
  <g
     inkscape:groupmode="layer"
     id="layer1"
     inkscape:label="Layer 1">
    <path
       id="rect1"
       style="fill:#000000"
       d="M 3.3919108,3.7712691 H 4.8423989 V 5.1548116 H 3.3919108 Z" />
    <path
       id="rect2"
       style="fill:#000000"
       d="m 3.3997233,10.747831 h 1.4504881 v 1.383543 H 3.3997233 Z" />
  </g>
</svg>
