<svg xmlns="http://www.w3.org/2000/svg" width="16" height="16" fill="none" viewBox="0 0 16 16">
    <path fill="#000" d="M11 14.39C11 15.295 9.7 16 8 16s-3-.705-3-1.61v-2.717c.8.704 1.9 1.007 3 1.007s2.2-.303 3-1.007v2.717Zm5-8.956c0 .805-1.2 1.51-2.8 1.61l-2.477 2.89c.176.193.277.406.277.631 0 .834-1.343 1.51-3 1.51s-3-.676-3-1.51a.91.91 0 0 1 .231-.583L2.8 7.145C1.3 7.044 0 6.339 0 5.535v-2.92c.8.705 1.9 1.006 3 1.006s2.2-.301 3-1.006v.403h4v-.403c.8.705 1.9 1.006 3 1.006s2.2-.301 3-1.006v2.818Zm-10 0c0 .704-.9 1.308-2 1.51l2.1 2.414a6.03 6.03 0 0 1 1.505-.288 5.883 5.883 0 0 1 .652-.008l.144.01a5.907 5.907 0 0 1 .291.026h.01c.372.046.717.126 1.02.233L11.8 6.943c-1.1-.2-1.8-.805-1.8-1.51V4.026H6v1.409ZM3 0c1.657 0 3 .676 3 1.51 0 .833-1.343 1.509-3 1.509s-3-.676-3-1.51C0 .677 1.343 0 3 0Zm10 0c1.657 0 3 .676 3 1.51 0 .833-1.343 1.509-3 1.509s-3-.676-3-1.51C10 .677 11.343 0 13 0Z"/>
</svg>
