<svg width="485" height="130" viewBox="0 0 485 130" fill="none" xmlns="http://www.w3.org/2000/svg">
<path d="M445 105C467.091 105 485 87.0914 485 65C485 42.9086 467.091 25 445 25C422.909 25 405 42.9086 405 65C405 87.0914 422.909 105 445 105Z" fill="#D1D0D8"/>
<path d="M429.344 55.12C428.704 55.12 428.124 55.02 427.604 54.82C427.084 54.62 426.636 54.332 426.26 53.956C425.892 53.572 425.608 53.108 425.408 52.564C425.208 52.012 425.108 51.392 425.108 50.704C425.108 50.008 425.2 49.388 425.384 48.844C425.568 48.3 425.84 47.84 426.2 47.464C426.56 47.08 427 46.788 427.52 46.588C428.048 46.388 428.648 46.288 429.32 46.288C429.904 46.288 430.416 46.352 430.856 46.48C431.296 46.6 431.656 46.744 431.936 46.912V47.992C431.576 47.76 431.16 47.588 430.688 47.476C430.224 47.364 429.764 47.308 429.308 47.308C428.292 47.308 427.54 47.592 427.052 48.16C426.572 48.72 426.332 49.568 426.332 50.704C426.332 51.848 426.592 52.7 427.112 53.26C427.64 53.82 428.416 54.1 429.44 54.1C429.88 54.1 430.308 54.04 430.724 53.92C431.148 53.8 431.552 53.596 431.936 53.308V54.388C431.704 54.572 431.364 54.74 430.916 54.892C430.476 55.044 429.952 55.12 429.344 55.12ZM436.52 54.928C436.376 55.304 436.224 55.632 436.064 55.912C435.904 56.2 435.724 56.444 435.524 56.644C435.324 56.844 435.1 56.992 434.852 57.088C434.604 57.192 434.32 57.244 434 57.244C433.84 57.244 433.692 57.232 433.556 57.208C433.42 57.192 433.296 57.16 433.184 57.112V56.092C433.272 56.156 433.384 56.204 433.52 56.236C433.656 56.276 433.804 56.296 433.964 56.296C434.26 56.296 434.504 56.224 434.696 56.08C434.888 55.944 435.072 55.724 435.248 55.42L432.716 48.772H433.88L435.86 54.028L437.828 48.772H438.848L436.52 54.928ZM445.833 49.996L443.721 54.304H442.881L440.889 49.972V55H439.893V48.772H441.465L443.373 52.948L445.413 48.772H446.877V55H445.833V49.996ZM454.54 49.996L452.428 54.304H451.588L449.596 49.972V55H448.6V48.772H450.172L452.08 52.948L454.12 48.772H455.584V55H454.54V49.996ZM460.955 53.812C460.883 53.956 460.791 54.108 460.679 54.268C460.567 54.42 460.427 54.56 460.259 54.688C460.091 54.816 459.891 54.92 459.659 55C459.435 55.08 459.171 55.12 458.867 55.12C458.307 55.12 457.855 54.964 457.511 54.652C457.167 54.332 456.995 53.876 456.995 53.284C456.995 52.604 457.231 52.104 457.703 51.784C458.183 51.464 458.863 51.304 459.743 51.304H460.907V50.788C460.907 50.356 460.795 50.048 460.571 49.864C460.347 49.68 459.963 49.588 459.419 49.588C459.035 49.588 458.671 49.652 458.327 49.78C457.983 49.9 457.675 50.04 457.403 50.2V49.252C457.627 49.116 457.927 48.984 458.303 48.856C458.687 48.72 459.107 48.652 459.563 48.652C460.347 48.652 460.943 48.816 461.351 49.144C461.759 49.464 461.963 49.964 461.963 50.644V53.992C461.963 54.064 461.963 54.148 461.963 54.244C461.971 54.332 461.975 54.424 461.975 54.52C461.983 54.616 461.991 54.708 461.999 54.796C462.007 54.876 462.015 54.944 462.023 55H461.063C461.039 54.888 461.015 54.732 460.991 54.532C460.975 54.324 460.967 54.144 460.967 53.992L460.955 53.812ZM459.095 54.172C459.423 54.172 459.703 54.104 459.935 53.968C460.167 53.832 460.355 53.676 460.499 53.5C460.643 53.316 460.747 53.14 460.811 52.972C460.875 52.796 460.907 52.672 460.907 52.6V52.144H459.851C459.219 52.144 458.759 52.236 458.471 52.42C458.191 52.596 458.051 52.864 458.051 53.224C458.051 53.504 458.135 53.732 458.303 53.908C458.471 54.084 458.735 54.172 459.095 54.172ZM420.948 69.12C420.468 69.12 420.032 69.048 419.64 68.904C419.256 68.752 418.928 68.54 418.656 68.268C418.384 67.988 418.176 67.648 418.032 67.248C417.888 66.848 417.816 66.392 417.816 65.88C417.816 65.376 417.888 64.924 418.032 64.524C418.184 64.124 418.396 63.788 418.668 63.516C418.94 63.236 419.272 63.024 419.664 62.88C420.056 62.728 420.5 62.652 420.996 62.652C421.38 62.652 421.732 62.696 422.052 62.784C422.372 62.864 422.636 62.984 422.844 63.144V64.092C422.588 63.924 422.3 63.8 421.98 63.72C421.668 63.632 421.344 63.588 421.008 63.588C420.28 63.588 419.744 63.776 419.4 64.152C419.064 64.528 418.896 65.104 418.896 65.88C418.896 66.656 419.06 67.232 419.388 67.608C419.716 67.984 420.236 68.172 420.948 68.172C421.324 68.172 421.668 68.128 421.98 68.04C422.3 67.944 422.588 67.824 422.844 67.68V68.628C422.62 68.764 422.348 68.88 422.028 68.976C421.716 69.072 421.356 69.12 420.948 69.12ZM424.26 62.772H429.252V69H428.196V63.672H425.316V69H424.26V62.772ZM432.031 67.56L435.355 62.772H436.423V69H435.367V64.224L432.055 69H430.975V62.772H432.031V67.56ZM440.835 69.12C440.355 69.12 439.919 69.048 439.527 68.904C439.143 68.752 438.815 68.54 438.543 68.268C438.271 67.988 438.063 67.648 437.919 67.248C437.775 66.848 437.703 66.392 437.703 65.88C437.703 65.376 437.775 64.924 437.919 64.524C438.071 64.124 438.283 63.788 438.555 63.516C438.827 63.236 439.159 63.024 439.551 62.88C439.943 62.728 440.387 62.652 440.883 62.652C441.267 62.652 441.619 62.696 441.939 62.784C442.259 62.864 442.523 62.984 442.731 63.144V64.092C442.475 63.924 442.187 63.8 441.867 63.72C441.555 63.632 441.231 63.588 440.895 63.588C440.167 63.588 439.631 63.776 439.287 64.152C438.951 64.528 438.783 65.104 438.783 65.88C438.783 66.656 438.947 67.232 439.275 67.608C439.603 67.984 440.123 68.172 440.835 68.172C441.211 68.172 441.555 68.128 441.867 68.04C442.187 67.944 442.475 67.824 442.731 67.68V68.628C442.507 68.764 442.235 68.88 441.915 68.976C441.603 69.072 441.243 69.12 440.835 69.12ZM447.795 67.812C447.723 67.956 447.631 68.108 447.519 68.268C447.407 68.42 447.267 68.56 447.099 68.688C446.931 68.816 446.731 68.92 446.499 69C446.275 69.08 446.011 69.12 445.707 69.12C445.147 69.12 444.695 68.964 444.351 68.652C444.007 68.332 443.835 67.876 443.835 67.284C443.835 66.604 444.071 66.104 444.543 65.784C445.023 65.464 445.703 65.304 446.583 65.304H447.747V64.788C447.747 64.356 447.635 64.048 447.411 63.864C447.187 63.68 446.803 63.588 446.259 63.588C445.875 63.588 445.511 63.652 445.167 63.78C444.823 63.9 444.515 64.04 444.243 64.2V63.252C444.467 63.116 444.767 62.984 445.143 62.856C445.527 62.72 445.947 62.652 446.403 62.652C447.187 62.652 447.783 62.816 448.191 63.144C448.599 63.464 448.803 63.964 448.803 64.644V67.992C448.803 68.064 448.803 68.148 448.803 68.244C448.811 68.332 448.815 68.424 448.815 68.52C448.823 68.616 448.831 68.708 448.839 68.796C448.847 68.876 448.855 68.944 448.863 69H447.903C447.879 68.888 447.855 68.732 447.831 68.532C447.815 68.324 447.807 68.144 447.807 67.992L447.795 67.812ZM445.935 68.172C446.263 68.172 446.543 68.104 446.775 67.968C447.007 67.832 447.195 67.676 447.339 67.5C447.483 67.316 447.587 67.14 447.651 66.972C447.715 66.796 447.747 66.672 447.747 66.6V66.144H446.691C446.059 66.144 445.599 66.236 445.311 66.42C445.031 66.596 444.891 66.864 444.891 67.224C444.891 67.504 444.975 67.732 445.143 67.908C445.311 68.084 445.575 68.172 445.935 68.172ZM454.532 66.24H451.52V69H450.464V62.772H451.52V65.34H454.532V62.772H455.588V69H454.532V66.24ZM458.375 67.56L461.699 62.772H462.767V69H461.711V64.224L458.399 69H457.319V62.772H458.375V67.56ZM464.491 64.788C464.491 64.436 464.555 64.136 464.683 63.888C464.811 63.632 464.991 63.424 465.223 63.264C465.455 63.096 465.731 62.972 466.051 62.892C466.371 62.812 466.719 62.772 467.095 62.772H469.099V69H468.043V66.744H466.903L465.307 69H464.047L465.847 66.48C465.415 66.352 465.079 66.156 464.839 65.892C464.607 65.628 464.491 65.26 464.491 64.788ZM468.043 65.844V63.672H467.095C466.647 63.672 466.279 63.756 465.991 63.924C465.703 64.092 465.559 64.364 465.559 64.74C465.559 65.132 465.687 65.416 465.943 65.592C466.199 65.76 466.563 65.844 467.035 65.844H468.043ZM431.889 76.772H434.217C434.969 76.772 435.537 76.904 435.921 77.168C436.305 77.424 436.497 77.828 436.497 78.38C436.497 78.748 436.401 79.044 436.209 79.268C436.025 79.484 435.761 79.64 435.417 79.736C436.305 79.88 436.749 80.372 436.749 81.212C436.749 81.532 436.685 81.808 436.557 82.04C436.429 82.264 436.253 82.448 436.029 82.592C435.805 82.736 435.533 82.84 435.213 82.904C434.901 82.968 434.561 83 434.193 83H431.889V76.772ZM432.945 77.672V79.364H434.121C434.521 79.364 434.841 79.292 435.081 79.148C435.329 79.004 435.453 78.796 435.453 78.524C435.453 78.196 435.345 77.972 435.129 77.852C434.913 77.732 434.605 77.672 434.205 77.672H432.945ZM432.945 80.204V82.1H434.181C434.405 82.1 434.605 82.088 434.781 82.064C434.965 82.032 435.121 81.98 435.249 81.908C435.385 81.836 435.489 81.74 435.561 81.62C435.633 81.5 435.669 81.352 435.669 81.176C435.669 80.816 435.545 80.564 435.297 80.42C435.049 80.276 434.677 80.204 434.181 80.204H432.945ZM445.795 83H444.739V80.264C444.523 80.432 444.271 80.564 443.983 80.66C443.703 80.748 443.383 80.792 443.023 80.792C442.319 80.792 441.779 80.62 441.403 80.276C441.035 79.924 440.851 79.364 440.851 78.596V76.772H441.919V78.608C441.919 79.096 442.031 79.436 442.255 79.628C442.479 79.82 442.795 79.916 443.203 79.916C443.483 79.916 443.755 79.876 444.019 79.796C444.283 79.716 444.523 79.592 444.739 79.424V76.772H445.795V83ZM451.17 81.812C451.098 81.956 451.006 82.108 450.894 82.268C450.782 82.42 450.642 82.56 450.474 82.688C450.306 82.816 450.106 82.92 449.874 83C449.65 83.08 449.386 83.12 449.082 83.12C448.522 83.12 448.07 82.964 447.726 82.652C447.382 82.332 447.21 81.876 447.21 81.284C447.21 80.604 447.446 80.104 447.918 79.784C448.398 79.464 449.078 79.304 449.958 79.304H451.122V78.788C451.122 78.356 451.01 78.048 450.786 77.864C450.562 77.68 450.178 77.588 449.634 77.588C449.25 77.588 448.886 77.652 448.542 77.78C448.198 77.9 447.89 78.04 447.618 78.2V77.252C447.842 77.116 448.142 76.984 448.518 76.856C448.902 76.72 449.322 76.652 449.778 76.652C450.562 76.652 451.158 76.816 451.566 77.144C451.974 77.464 452.178 77.964 452.178 78.644V81.992C452.178 82.064 452.178 82.148 452.178 82.244C452.186 82.332 452.19 82.424 452.19 82.52C452.198 82.616 452.206 82.708 452.214 82.796C452.222 82.876 452.23 82.944 452.238 83H451.278C451.254 82.888 451.23 82.732 451.206 82.532C451.19 82.324 451.182 82.144 451.182 81.992L451.17 81.812ZM449.31 82.172C449.638 82.172 449.918 82.104 450.15 81.968C450.382 81.832 450.57 81.676 450.714 81.5C450.858 81.316 450.962 81.14 451.026 80.972C451.09 80.796 451.122 80.672 451.122 80.6V80.144H450.066C449.434 80.144 448.974 80.236 448.686 80.42C448.406 80.596 448.266 80.864 448.266 81.224C448.266 81.504 448.35 81.732 448.518 81.908C448.686 82.084 448.95 82.172 449.31 82.172ZM456.527 83.12C456.047 83.12 455.611 83.048 455.219 82.904C454.835 82.752 454.507 82.54 454.235 82.268C453.963 81.988 453.755 81.648 453.611 81.248C453.467 80.848 453.395 80.392 453.395 79.88C453.395 79.376 453.467 78.924 453.611 78.524C453.763 78.124 453.975 77.788 454.247 77.516C454.519 77.236 454.851 77.024 455.243 76.88C455.635 76.728 456.079 76.652 456.575 76.652C456.959 76.652 457.311 76.696 457.631 76.784C457.951 76.864 458.215 76.984 458.423 77.144V78.092C458.167 77.924 457.879 77.8 457.559 77.72C457.247 77.632 456.923 77.588 456.587 77.588C455.859 77.588 455.323 77.776 454.979 78.152C454.643 78.528 454.475 79.104 454.475 79.88C454.475 80.656 454.639 81.232 454.967 81.608C455.295 81.984 455.815 82.172 456.527 82.172C456.903 82.172 457.247 82.128 457.559 82.04C457.879 81.944 458.167 81.824 458.423 81.68V82.628C458.199 82.764 457.927 82.88 457.607 82.976C457.295 83.072 456.935 83.12 456.527 83.12Z" fill="black"/>
<g filter="url(#filter0_d)">
<path d="M340 15H30C21.7157 15 15 21.7157 15 30V100C15 108.284 21.7157 115 30 115H340C348.284 115 355 108.284 355 100V30C355 21.7157 348.284 15 340 15Z" fill="white"/>
</g>
<path d="M25 30C25 27.2386 27.2386 25 30 25H160C162.761 25 165 27.2386 165 30V100C165 102.761 162.761 105 160 105H30C27.2386 105 25 102.761 25 100V30Z" fill="#DAEEF9"/>
<path d="M63.0271 56.0089C62.3871 56.0089 61.8071 55.9089 61.2871 55.7089C60.7671 55.5089 60.3191 55.2209 59.9431 54.8449C59.5751 54.4609 59.2911 53.9969 59.0911 53.4529C58.8911 52.9009 58.7911 52.2809 58.7911 51.5929C58.7911 50.8969 58.8831 50.2769 59.0671 49.7329C59.2511 49.1889 59.5231 48.7289 59.8831 48.3529C60.2431 47.9689 60.6831 47.6769 61.2031 47.4769C61.7311 47.2769 62.3311 47.1769 63.0031 47.1769C63.5871 47.1769 64.0991 47.2409 64.5391 47.3689C64.9791 47.4889 65.3391 47.6329 65.6191 47.8009V48.8809C65.2591 48.6489 64.8431 48.4769 64.3711 48.3649C63.9071 48.2529 63.4471 48.1969 62.9911 48.1969C61.9751 48.1969 61.2231 48.4809 60.7351 49.0489C60.2551 49.6089 60.0151 50.4569 60.0151 51.5929C60.0151 52.7369 60.2751 53.5889 60.7951 54.1489C61.3231 54.7089 62.0991 54.9889 63.1231 54.9889C63.5631 54.9889 63.9911 54.9289 64.4071 54.8089C64.8311 54.6889 65.2351 54.4849 65.6191 54.1969V55.2769C65.3871 55.4609 65.0471 55.6289 64.5991 55.7809C64.1591 55.9329 63.6351 56.0089 63.0271 56.0089ZM70.2033 55.8169C70.0593 56.1929 69.9073 56.5209 69.7473 56.8009C69.5873 57.0889 69.4073 57.3329 69.2073 57.5329C69.0073 57.7329 68.7833 57.8809 68.5353 57.9769C68.2873 58.0809 68.0033 58.1329 67.6833 58.1329C67.5233 58.1329 67.3753 58.1209 67.2393 58.0969C67.1033 58.0809 66.9793 58.0489 66.8673 58.0009V56.9809C66.9553 57.0449 67.0673 57.0929 67.2033 57.1249C67.3393 57.1649 67.4873 57.1849 67.6473 57.1849C67.9433 57.1849 68.1873 57.1129 68.3793 56.9689C68.5713 56.8329 68.7553 56.6129 68.9313 56.3089L66.3993 49.6609H67.5633L69.5433 54.9169L71.5113 49.6609H72.5313L70.2033 55.8169ZM79.5169 50.8849L77.4049 55.1929H76.5649L74.5729 50.8609V55.8889H73.5769V49.6609H75.1489L77.0569 53.8369L79.0969 49.6609H80.5609V55.8889H79.5169V50.8849ZM88.2239 50.8849L86.1119 55.1929H85.2719L83.2799 50.8609V55.8889H82.2839V49.6609H83.8559L85.7639 53.8369L87.8039 49.6609H89.2679V55.8889H88.2239V50.8849ZM94.639 54.7009C94.567 54.8449 94.475 54.9969 94.363 55.1569C94.251 55.3089 94.111 55.4489 93.943 55.5769C93.775 55.7049 93.575 55.8089 93.343 55.8889C93.119 55.9689 92.855 56.0089 92.551 56.0089C91.991 56.0089 91.539 55.8529 91.195 55.5409C90.851 55.2209 90.679 54.7649 90.679 54.1729C90.679 53.4929 90.915 52.9929 91.387 52.6729C91.867 52.3529 92.547 52.1929 93.427 52.1929H94.591V51.6769C94.591 51.2449 94.479 50.9369 94.255 50.7529C94.031 50.5689 93.647 50.4769 93.103 50.4769C92.719 50.4769 92.355 50.5409 92.011 50.6689C91.667 50.7889 91.359 50.9289 91.087 51.0889V50.1409C91.311 50.0049 91.611 49.8729 91.987 49.7449C92.371 49.6089 92.791 49.5409 93.247 49.5409C94.031 49.5409 94.627 49.7049 95.035 50.0329C95.443 50.3529 95.647 50.8529 95.647 51.5329V54.8809C95.647 54.9529 95.647 55.0369 95.647 55.1329C95.655 55.2209 95.659 55.3129 95.659 55.4089C95.667 55.5049 95.675 55.5969 95.683 55.6849C95.691 55.7649 95.699 55.8329 95.707 55.8889H94.747C94.723 55.7769 94.699 55.6209 94.675 55.4209C94.659 55.2129 94.651 55.0329 94.651 54.8809L94.639 54.7009ZM92.779 55.0609C93.107 55.0609 93.387 54.9929 93.619 54.8569C93.851 54.7209 94.039 54.5649 94.183 54.3889C94.327 54.2049 94.431 54.0289 94.495 53.8609C94.559 53.6849 94.591 53.5609 94.591 53.4889V53.0329H93.535C92.903 53.0329 92.443 53.1249 92.155 53.3089C91.875 53.4849 91.735 53.7529 91.735 54.1129C91.735 54.3929 91.819 54.6209 91.987 54.7969C92.155 54.9729 92.419 55.0609 92.779 55.0609ZM99.9441 49.6609H102.272C103.024 49.6609 103.592 49.7929 103.976 50.0569C104.36 50.3129 104.552 50.7169 104.552 51.2689C104.552 51.6369 104.456 51.9329 104.264 52.1569C104.08 52.3729 103.816 52.5289 103.472 52.6249C104.36 52.7689 104.804 53.2609 104.804 54.1009C104.804 54.4209 104.74 54.6969 104.612 54.9289C104.484 55.1529 104.308 55.3369 104.084 55.4809C103.86 55.6249 103.588 55.7289 103.268 55.7929C102.956 55.8569 102.616 55.8889 102.248 55.8889H99.9441V49.6609ZM101 50.5609V52.2529H102.176C102.576 52.2529 102.896 52.1809 103.136 52.0369C103.384 51.8929 103.508 51.6849 103.508 51.4129C103.508 51.0849 103.4 50.8609 103.184 50.7409C102.968 50.6209 102.66 50.5609 102.26 50.5609H101ZM101 53.0929V54.9889H102.236C102.46 54.9889 102.66 54.9769 102.836 54.9529C103.02 54.9209 103.176 54.8689 103.304 54.7969C103.44 54.7249 103.544 54.6289 103.616 54.5089C103.688 54.3889 103.724 54.2409 103.724 54.0649C103.724 53.7049 103.6 53.4529 103.352 53.3089C103.104 53.1649 102.732 53.0929 102.236 53.0929H101ZM109.026 49.6609H112.986V50.5609H110.082V55.8889H109.026V49.6609ZM116.645 56.0089C116.221 56.0089 115.825 55.9369 115.457 55.7929C115.089 55.6489 114.769 55.4409 114.497 55.1689C114.233 54.8889 114.025 54.5489 113.873 54.1489C113.721 53.7489 113.645 53.2889 113.645 52.7689C113.645 52.2569 113.721 51.8009 113.873 51.4009C114.025 50.9929 114.233 50.6529 114.497 50.3809C114.769 50.1089 115.089 49.9009 115.457 49.7569C115.825 49.6129 116.221 49.5409 116.645 49.5409C117.077 49.5409 117.477 49.6129 117.845 49.7569C118.213 49.9009 118.529 50.1089 118.793 50.3809C119.065 50.6529 119.277 50.9929 119.429 51.4009C119.589 51.8009 119.669 52.2569 119.669 52.7689C119.669 53.2889 119.589 53.7489 119.429 54.1489C119.277 54.5489 119.065 54.8889 118.793 55.1689C118.529 55.4409 118.213 55.6489 117.845 55.7929C117.477 55.9369 117.077 56.0089 116.645 56.0089ZM116.645 55.0609C116.925 55.0609 117.181 55.0169 117.413 54.9289C117.653 54.8329 117.861 54.6929 118.037 54.5089C118.213 54.3169 118.349 54.0769 118.445 53.7889C118.541 53.5009 118.589 53.1609 118.589 52.7689C118.589 52.3769 118.541 52.0369 118.445 51.7489C118.349 51.4609 118.213 51.2249 118.037 51.0409C117.861 50.8489 117.653 50.7089 117.413 50.6209C117.181 50.5249 116.925 50.4769 116.645 50.4769C116.365 50.4769 116.109 50.5249 115.877 50.6209C115.645 50.7089 115.441 50.8489 115.265 51.0409C115.097 51.2249 114.965 51.4609 114.869 51.7489C114.773 52.0369 114.725 52.3769 114.725 52.7689C114.725 53.1609 114.773 53.5009 114.869 53.7889C114.965 54.0769 115.097 54.3169 115.265 54.5089C115.441 54.6929 115.645 54.8329 115.877 54.9289C116.109 55.0169 116.365 55.0609 116.645 55.0609ZM120.561 54.9889C120.785 54.8529 120.961 54.6409 121.089 54.3529C121.217 54.0649 121.317 53.7009 121.389 53.2609C121.461 52.8209 121.509 52.3009 121.533 51.7009C121.565 51.1009 121.593 50.4209 121.617 49.6609H125.901V54.9889H126.837V57.6649H125.913L125.781 55.8889H121.149L121.041 57.6649H120.093V54.9889H120.561ZM124.845 54.9889V50.5609H122.565C122.525 51.7369 122.449 52.6809 122.337 53.3929C122.233 54.0969 122.049 54.6289 121.785 54.9889H124.845ZM59.5085 63.6609H64.5005V69.8889H63.4445V64.5609H60.5645V69.8889H59.5085V63.6609ZM68.7794 70.0089C68.3554 70.0089 67.9594 69.9369 67.5914 69.7929C67.2234 69.6489 66.9034 69.4409 66.6314 69.1689C66.3674 68.8889 66.1594 68.5489 66.0074 68.1489C65.8554 67.7489 65.7794 67.2889 65.7794 66.7689C65.7794 66.2569 65.8554 65.8009 66.0074 65.4009C66.1594 64.9929 66.3674 64.6529 66.6314 64.3809C66.9034 64.1089 67.2234 63.9009 67.5914 63.7569C67.9594 63.6129 68.3554 63.5409 68.7794 63.5409C69.2114 63.5409 69.6114 63.6129 69.9794 63.7569C70.3474 63.9009 70.6634 64.1089 70.9274 64.3809C71.1994 64.6529 71.4114 64.9929 71.5634 65.4009C71.7234 65.8009 71.8034 66.2569 71.8034 66.7689C71.8034 67.2889 71.7234 67.7489 71.5634 68.1489C71.4114 68.5489 71.1994 68.8889 70.9274 69.1689C70.6634 69.4409 70.3474 69.6489 69.9794 69.7929C69.6114 69.9369 69.2114 70.0089 68.7794 70.0089ZM68.7794 69.0609C69.0594 69.0609 69.3154 69.0169 69.5474 68.9289C69.7874 68.8329 69.9954 68.6929 70.1714 68.5089C70.3474 68.3169 70.4834 68.0769 70.5794 67.7889C70.6754 67.5009 70.7234 67.1609 70.7234 66.7689C70.7234 66.3769 70.6754 66.0369 70.5794 65.7489C70.4834 65.4609 70.3474 65.2249 70.1714 65.0409C69.9954 64.8489 69.7874 64.7089 69.5474 64.6209C69.3154 64.5249 69.0594 64.4769 68.7794 64.4769C68.4994 64.4769 68.2434 64.5249 68.0114 64.6209C67.7794 64.7089 67.5754 64.8489 67.3994 65.0409C67.2314 65.2249 67.0994 65.4609 67.0034 65.7489C66.9074 66.0369 66.8594 66.3769 66.8594 66.7689C66.8594 67.1609 66.9074 67.5009 67.0034 67.7889C67.0994 68.0769 67.2314 68.3169 67.3994 68.5089C67.5754 68.6929 67.7794 68.8329 68.0114 68.9289C68.2434 69.0169 68.4994 69.0609 68.7794 69.0609ZM78.7873 69.8169C78.6433 70.1929 78.4913 70.5209 78.3313 70.8009C78.1713 71.0889 77.9913 71.3329 77.7913 71.5329C77.5913 71.7329 77.3673 71.8809 77.1193 71.9769C76.8713 72.0809 76.5873 72.1329 76.2673 72.1329C76.1073 72.1329 75.9593 72.1209 75.8233 72.0969C75.6873 72.0809 75.5633 72.0489 75.4513 72.0009V70.9809C75.5393 71.0449 75.6513 71.0929 75.7873 71.1249C75.9233 71.1649 76.0713 71.1849 76.2313 71.1849C76.5273 71.1849 76.7713 71.1129 76.9633 70.9689C77.1553 70.8329 77.3393 70.6129 77.5153 70.3089L74.9833 63.6609H76.1473L78.1273 68.9169L80.0953 63.6609H81.1153L78.7873 69.8169ZM84.7317 70.0089C84.2517 70.0089 83.8157 69.9369 83.4237 69.7929C83.0397 69.6409 82.7117 69.4289 82.4397 69.1569C82.1677 68.8769 81.9597 68.5369 81.8157 68.1369C81.6717 67.7369 81.5997 67.2809 81.5997 66.7689C81.5997 66.2649 81.6717 65.8129 81.8157 65.4129C81.9677 65.0129 82.1797 64.6769 82.4517 64.4049C82.7237 64.1249 83.0557 63.9129 83.4477 63.7689C83.8397 63.6169 84.2837 63.5409 84.7797 63.5409C85.1637 63.5409 85.5157 63.5849 85.8357 63.6729C86.1557 63.7529 86.4197 63.8729 86.6277 64.0329V64.9809C86.3717 64.8129 86.0837 64.6889 85.7637 64.6089C85.4517 64.5209 85.1277 64.4769 84.7917 64.4769C84.0637 64.4769 83.5277 64.6649 83.1837 65.0409C82.8477 65.4169 82.6797 65.9929 82.6797 66.7689C82.6797 67.5449 82.8437 68.1209 83.1717 68.4969C83.4997 68.8729 84.0197 69.0609 84.7317 69.0609C85.1077 69.0609 85.4517 69.0169 85.7637 68.9289C86.0837 68.8329 86.3717 68.7129 86.6277 68.5689V69.5169C86.4037 69.6529 86.1317 69.7689 85.8117 69.8649C85.4997 69.9609 85.1397 70.0089 84.7317 70.0089ZM88.5237 67.9569C88.6357 67.5489 88.7077 66.9969 88.7397 66.3009C88.7717 65.6049 88.7877 64.7249 88.7877 63.6609H92.9757V69.8889H91.9077V64.5609H89.7837C89.7757 65.4169 89.7477 66.1769 89.6997 66.8409C89.6597 67.5049 89.5677 68.0649 89.4237 68.5209C89.2877 68.9769 89.0837 69.3249 88.8117 69.5649C88.5477 69.7969 88.1917 69.9129 87.7437 69.9129C87.7117 69.9129 87.6797 69.9129 87.6477 69.9129C87.6157 69.9129 87.5797 69.9089 87.5397 69.9009V68.8569C87.5797 68.8649 87.6317 68.8689 87.6957 68.8689C88.1037 68.8689 88.3797 68.5649 88.5237 67.9569ZM97.2442 70.0089C96.8202 70.0089 96.4242 69.9369 96.0562 69.7929C95.6882 69.6489 95.3682 69.4409 95.0962 69.1689C94.8322 68.8889 94.6242 68.5489 94.4722 68.1489C94.3202 67.7489 94.2442 67.2889 94.2442 66.7689C94.2442 66.2569 94.3202 65.8009 94.4722 65.4009C94.6242 64.9929 94.8322 64.6529 95.0962 64.3809C95.3682 64.1089 95.6882 63.9009 96.0562 63.7569C96.4242 63.6129 96.8202 63.5409 97.2442 63.5409C97.6762 63.5409 98.0762 63.6129 98.4442 63.7569C98.8122 63.9009 99.1282 64.1089 99.3922 64.3809C99.6642 64.6529 99.8762 64.9929 100.028 65.4009C100.188 65.8009 100.268 66.2569 100.268 66.7689C100.268 67.2889 100.188 67.7489 100.028 68.1489C99.8762 68.5489 99.6642 68.8889 99.3922 69.1689C99.1282 69.4409 98.8122 69.6489 98.4442 69.7929C98.0762 69.9369 97.6762 70.0089 97.2442 70.0089ZM97.2442 69.0609C97.5242 69.0609 97.7802 69.0169 98.0122 68.9289C98.2522 68.8329 98.4602 68.6929 98.6362 68.5089C98.8122 68.3169 98.9482 68.0769 99.0442 67.7889C99.1402 67.5009 99.1882 67.1609 99.1882 66.7689C99.1882 66.3769 99.1402 66.0369 99.0442 65.7489C98.9482 65.4609 98.8122 65.2249 98.6362 65.0409C98.4602 64.8489 98.2522 64.7089 98.0122 64.6209C97.7802 64.5249 97.5242 64.4769 97.2442 64.4769C96.9642 64.4769 96.7082 64.5249 96.4762 64.6209C96.2442 64.7089 96.0402 64.8489 95.8642 65.0409C95.6962 65.2249 95.5642 65.4609 95.4682 65.7489C95.3722 66.0369 95.3242 66.3769 95.3242 66.7689C95.3242 67.1609 95.3722 67.5009 95.4682 67.7889C95.5642 68.0769 95.6962 68.3169 95.8642 68.5089C96.0402 68.6929 96.2442 68.8329 96.4762 68.9289C96.7082 69.0169 96.9642 69.0609 97.2442 69.0609ZM101.555 63.6609H103.883C104.635 63.6609 105.203 63.7929 105.587 64.0569C105.971 64.3129 106.163 64.7169 106.163 65.2689C106.163 65.6369 106.067 65.9329 105.875 66.1569C105.691 66.3729 105.427 66.5289 105.083 66.6249C105.971 66.7689 106.415 67.2609 106.415 68.1009C106.415 68.4209 106.351 68.6969 106.223 68.9289C106.095 69.1529 105.919 69.3369 105.695 69.4809C105.471 69.6249 105.199 69.7289 104.879 69.7929C104.567 69.8569 104.227 69.8889 103.859 69.8889H101.555V63.6609ZM102.611 64.5609V66.2529H103.787C104.187 66.2529 104.507 66.1809 104.747 66.0369C104.995 65.8929 105.119 65.6849 105.119 65.4129C105.119 65.0849 105.011 64.8609 104.795 64.7409C104.579 64.6209 104.271 64.5609 103.871 64.5609H102.611ZM102.611 67.0929V68.9889H103.847C104.071 68.9889 104.271 68.9769 104.447 68.9529C104.631 68.9209 104.787 68.8689 104.915 68.7969C105.051 68.7249 105.155 68.6289 105.227 68.5089C105.299 68.3889 105.335 68.2409 105.335 68.0649C105.335 67.7049 105.211 67.4529 104.963 67.3089C104.715 67.1649 104.343 67.0929 103.847 67.0929H102.611ZM109.057 68.4489L112.381 63.6609H113.449V69.8889H112.393V65.1129L109.081 69.8889H108.001V63.6609H109.057V68.4489ZM115.173 65.6769C115.173 65.3249 115.237 65.0249 115.365 64.7769C115.493 64.5209 115.673 64.3129 115.905 64.1529C116.137 63.9849 116.413 63.8609 116.733 63.7809C117.053 63.7009 117.401 63.6609 117.777 63.6609H119.781V69.8889H118.725V67.6329H117.585L115.989 69.8889H114.729L116.529 67.3689C116.097 67.2409 115.761 67.0449 115.521 66.7809C115.289 66.5169 115.173 66.1489 115.173 65.6769ZM118.725 66.7329V64.5609H117.777C117.329 64.5609 116.961 64.6449 116.673 64.8129C116.385 64.9809 116.241 65.2529 116.241 65.6289C116.241 66.0209 116.369 66.3049 116.625 66.4809C116.881 66.6489 117.245 66.7329 117.717 66.7329H118.725ZM127.452 64.8849L125.34 69.1929H124.5L122.508 64.8609V69.8889H121.512V63.6609H123.084L124.992 67.8369L127.032 63.6609H128.496V69.8889H127.452V64.8849ZM64.1243 84.0089C63.6443 84.0089 63.2083 83.9369 62.8163 83.7929C62.4323 83.6409 62.1043 83.4289 61.8323 83.1569C61.5603 82.8769 61.3523 82.5369 61.2083 82.1369C61.0643 81.7369 60.9923 81.2809 60.9923 80.7689C60.9923 80.2649 61.0643 79.8129 61.2083 79.4129C61.3603 79.0129 61.5723 78.6769 61.8443 78.4049C62.1163 78.1249 62.4483 77.9129 62.8403 77.7689C63.2323 77.6169 63.6763 77.5409 64.1723 77.5409C64.5563 77.5409 64.9083 77.5849 65.2283 77.6729C65.5483 77.7529 65.8123 77.8729 66.0203 78.0329V78.9809C65.7643 78.8129 65.4763 78.6889 65.1563 78.6089C64.8443 78.5209 64.5203 78.4769 64.1843 78.4769C63.4563 78.4769 62.9203 78.6649 62.5763 79.0409C62.2403 79.4169 62.0723 79.9929 62.0723 80.7689C62.0723 81.5449 62.2363 82.1209 62.5643 82.4969C62.8923 82.8729 63.4123 83.0609 64.1243 83.0609C64.5003 83.0609 64.8443 83.0169 65.1563 82.9289C65.4763 82.8329 65.7643 82.7129 66.0203 82.5689V83.5169C65.7963 83.6529 65.5243 83.7689 65.2043 83.8649C64.8923 83.9609 64.5323 84.0089 64.1243 84.0089ZM69.9923 84.0089C69.5683 84.0089 69.1723 83.9369 68.8043 83.7929C68.4363 83.6489 68.1163 83.4409 67.8443 83.1689C67.5803 82.8889 67.3723 82.5489 67.2203 82.1489C67.0683 81.7489 66.9923 81.2889 66.9923 80.7689C66.9923 80.2569 67.0683 79.8009 67.2203 79.4009C67.3723 78.9929 67.5803 78.6529 67.8443 78.3809C68.1163 78.1089 68.4363 77.9009 68.8043 77.7569C69.1723 77.6129 69.5683 77.5409 69.9923 77.5409C70.4243 77.5409 70.8243 77.6129 71.1923 77.7569C71.5603 77.9009 71.8763 78.1089 72.1403 78.3809C72.4123 78.6529 72.6243 78.9929 72.7763 79.4009C72.9363 79.8009 73.0163 80.2569 73.0163 80.7689C73.0163 81.2889 72.9363 81.7489 72.7763 82.1489C72.6243 82.5489 72.4123 82.8889 72.1403 83.1689C71.8763 83.4409 71.5603 83.6489 71.1923 83.7929C70.8243 83.9369 70.4243 84.0089 69.9923 84.0089ZM69.9923 83.0609C70.2723 83.0609 70.5283 83.0169 70.7603 82.9289C71.0003 82.8329 71.2083 82.6929 71.3843 82.5089C71.5603 82.3169 71.6963 82.0769 71.7923 81.7889C71.8883 81.5009 71.9363 81.1609 71.9363 80.7689C71.9363 80.3769 71.8883 80.0369 71.7923 79.7489C71.6963 79.4609 71.5603 79.2249 71.3843 79.0409C71.2083 78.8489 71.0003 78.7089 70.7603 78.6209C70.5283 78.5249 70.2723 78.4769 69.9923 78.4769C69.7123 78.4769 69.4563 78.5249 69.2243 78.6209C68.9923 78.7089 68.7883 78.8489 68.6123 79.0409C68.4443 79.2249 68.3123 79.4609 68.2163 79.7489C68.1203 80.0369 68.0723 80.3769 68.0723 80.7689C68.0723 81.1609 68.1203 81.5009 68.2163 81.7889C68.3123 82.0769 68.4443 82.3169 68.6123 82.5089C68.7883 82.6929 68.9923 82.8329 69.2243 82.9289C69.4563 83.0169 69.7123 83.0609 69.9923 83.0609ZM74.3035 77.6609H78.2635V78.5609H75.3595V83.8889H74.3035V77.6609ZM79.4827 81.9569C79.5947 81.5489 79.6667 80.9969 79.6987 80.3009C79.7307 79.6049 79.7467 78.7249 79.7467 77.6609H83.9347V83.8889H82.8667V78.5609H80.7427C80.7347 79.4169 80.7067 80.1769 80.6587 80.8409C80.6187 81.5049 80.5267 82.0649 80.3827 82.5209C80.2467 82.9769 80.0427 83.3249 79.7707 83.5649C79.5067 83.7969 79.1507 83.9129 78.7027 83.9129C78.6707 83.9129 78.6387 83.9129 78.6067 83.9129C78.5747 83.9129 78.5387 83.9089 78.4987 83.9009V82.8569C78.5387 82.8649 78.5907 82.8689 78.6547 82.8689C79.0627 82.8689 79.3387 82.5649 79.4827 81.9569ZM89.2952 82.7009C89.2232 82.8449 89.1312 82.9969 89.0192 83.1569C88.9072 83.3089 88.7672 83.4489 88.5992 83.5769C88.4312 83.7049 88.2312 83.8089 87.9992 83.8889C87.7752 83.9689 87.5112 84.0089 87.2072 84.0089C86.6472 84.0089 86.1952 83.8529 85.8512 83.5409C85.5072 83.2209 85.3352 82.7649 85.3352 82.1729C85.3352 81.4929 85.5712 80.9929 86.0432 80.6729C86.5232 80.3529 87.2032 80.1929 88.0832 80.1929H89.2472V79.6769C89.2472 79.2449 89.1352 78.9369 88.9112 78.7529C88.6872 78.5689 88.3032 78.4769 87.7592 78.4769C87.3752 78.4769 87.0112 78.5409 86.6672 78.6689C86.3232 78.7889 86.0152 78.9289 85.7432 79.0889V78.1409C85.9672 78.0049 86.2672 77.8729 86.6432 77.7449C87.0272 77.6089 87.4472 77.5409 87.9032 77.5409C88.6872 77.5409 89.2832 77.7049 89.6912 78.0329C90.0992 78.3529 90.3032 78.8529 90.3032 79.5329V82.8809C90.3032 82.9529 90.3032 83.0369 90.3032 83.1329C90.3112 83.2209 90.3152 83.3129 90.3152 83.4089C90.3232 83.5049 90.3312 83.5969 90.3392 83.6849C90.3472 83.7649 90.3552 83.8329 90.3632 83.8889H89.4032C89.3792 83.7769 89.3552 83.6209 89.3312 83.4209C89.3152 83.2129 89.3072 83.0329 89.3072 82.8809L89.2952 82.7009ZM87.4352 83.0609C87.7632 83.0609 88.0432 82.9929 88.2752 82.8569C88.5072 82.7209 88.6952 82.5649 88.8392 82.3889C88.9832 82.2049 89.0872 82.0289 89.1512 81.8609C89.2152 81.6849 89.2472 81.5609 89.2472 81.4889V81.0329H88.1912C87.5592 81.0329 87.0992 81.1249 86.8112 81.3089C86.5312 81.4849 86.3912 81.7529 86.3912 82.1129C86.3912 82.3929 86.4752 82.6209 86.6432 82.7969C86.8112 82.9729 87.0752 83.0609 87.4352 83.0609ZM99.7396 83.8889H91.9636V77.6609H93.0196V82.9889H95.3236V77.6609H96.3796V82.9889H98.6836V77.6609H99.7396V83.8889ZM106.424 83.3609C106.336 83.4249 106.228 83.4929 106.1 83.5649C105.972 83.6369 105.816 83.7089 105.632 83.7809C105.448 83.8449 105.24 83.8969 105.008 83.9369C104.776 83.9849 104.516 84.0089 104.228 84.0089C103.18 84.0089 102.384 83.7249 101.84 83.1569C101.296 82.5889 101.024 81.7929 101.024 80.7689C101.024 80.2649 101.096 79.8129 101.24 79.4129C101.392 79.0129 101.6 78.6769 101.864 78.4049C102.128 78.1249 102.44 77.9129 102.8 77.7689C103.16 77.6169 103.552 77.5409 103.976 77.5409C104.424 77.5409 104.824 77.6169 105.176 77.7689C105.528 77.9209 105.816 78.1449 106.04 78.4409C106.272 78.7369 106.428 79.1049 106.508 79.5449C106.596 79.9769 106.596 80.4809 106.508 81.0569H102.116C102.156 81.7289 102.356 82.2329 102.716 82.5689C103.076 82.8969 103.612 83.0609 104.324 83.0609C104.804 83.0609 105.216 82.9929 105.56 82.8569C105.904 82.7209 106.192 82.5729 106.424 82.4129V83.3609ZM103.952 78.4769C103.496 78.4769 103.104 78.6169 102.776 78.8969C102.448 79.1769 102.24 79.6009 102.152 80.1689H105.5C105.532 79.5929 105.4 79.1689 105.104 78.8969C104.808 78.6169 104.424 78.4769 103.952 78.4769ZM111.993 81.1289H108.981V83.8889H107.925V77.6609H108.981V80.2289H111.993V77.6609H113.049V83.8889H111.993V81.1289ZM115.836 82.4489L119.16 77.6609H120.228V83.8889H119.172V79.1129L115.86 83.8889H114.78V77.6609H115.836V82.4489ZM121.952 79.6769C121.952 79.3249 122.016 79.0249 122.144 78.7769C122.272 78.5209 122.452 78.3129 122.684 78.1529C122.916 77.9849 123.192 77.8609 123.512 77.7809C123.832 77.7009 124.18 77.6609 124.556 77.6609H126.56V83.8889H125.504V81.6329H124.364L122.768 83.8889H121.508L123.308 81.3689C122.876 81.2409 122.54 81.0449 122.3 80.7809C122.068 80.5169 121.952 80.1489 121.952 79.6769ZM125.504 80.7329V78.5609H124.556C124.108 78.5609 123.74 78.6449 123.452 78.8129C123.164 78.9809 123.02 79.2529 123.02 79.6289C123.02 80.0209 123.148 80.3049 123.404 80.4809C123.66 80.6489 124.024 80.7329 124.496 80.7329H125.504Z" fill="#18123D"/>
<path d="M205 30C205 27.2386 207.239 25 210 25H340C342.761 25 345 27.2386 345 30V100C345 102.761 342.761 105 340 105H210C207.239 105 205 102.761 205 100V30Z" fill="#FCEAD1"/>
<path d="M229.003 67.4049C229.003 67.8049 228.927 68.1649 228.775 68.4849C228.623 68.8049 228.411 69.0809 228.139 69.3129C227.867 69.5369 227.543 69.7089 227.167 69.8289C226.791 69.9489 226.375 70.0089 225.919 70.0089C225.359 70.0089 224.875 69.9409 224.467 69.8049C224.059 69.6689 223.727 69.4929 223.471 69.2769V68.0769C223.727 68.3329 224.063 68.5569 224.479 68.7489C224.895 68.9329 225.379 69.0249 225.931 69.0249C226.523 69.0249 226.987 68.8849 227.323 68.6049C227.667 68.3249 227.839 67.9329 227.839 67.4289C227.839 66.9489 227.687 66.5769 227.383 66.3129C227.079 66.0409 226.603 65.9049 225.955 65.9049H224.851V64.8849H226.003C226.459 64.8849 226.827 64.7649 227.107 64.5249C227.387 64.2849 227.527 63.9369 227.527 63.4809C227.527 63.0729 227.395 62.7529 227.131 62.5209C226.867 62.2809 226.487 62.1609 225.991 62.1609C225.479 62.1609 225.039 62.2569 224.671 62.4489C224.311 62.6409 223.983 62.8649 223.687 63.1209V61.9449C223.967 61.7129 224.299 61.5249 224.683 61.3809C225.067 61.2369 225.507 61.1649 226.003 61.1649C226.411 61.1649 226.779 61.2209 227.107 61.3329C227.435 61.4369 227.711 61.5889 227.935 61.7889C228.167 61.9889 228.343 62.2289 228.463 62.5089C228.583 62.7809 228.643 63.0849 228.643 63.4209C228.643 63.6929 228.603 63.9369 228.523 64.1529C228.443 64.3689 228.331 64.5569 228.187 64.7169C228.051 64.8769 227.891 65.0129 227.707 65.1249C227.523 65.2289 227.327 65.3049 227.119 65.3529C227.367 65.3929 227.603 65.4689 227.827 65.5809C228.059 65.6929 228.263 65.8369 228.439 66.0129C228.615 66.1809 228.751 66.3849 228.847 66.6249C228.951 66.8569 229.003 67.1169 229.003 67.4049ZM235.721 67.0689C235.721 67.5089 235.645 67.9089 235.493 68.2689C235.349 68.6289 235.149 68.9409 234.893 69.2049C234.637 69.4609 234.333 69.6609 233.981 69.8049C233.637 69.9409 233.265 70.0089 232.865 70.0089C232.321 70.0089 231.857 69.9169 231.473 69.7329C231.097 69.5489 230.789 69.2929 230.549 68.9649C230.309 68.6289 230.133 68.2289 230.021 67.7649C229.909 67.3009 229.853 66.7929 229.853 66.2409C229.853 65.4889 229.921 64.8009 230.057 64.1769C230.193 63.5529 230.401 63.0209 230.681 62.5809C230.961 62.1329 231.317 61.7849 231.749 61.5369C232.189 61.2889 232.709 61.1649 233.309 61.1649C233.741 61.1649 234.097 61.2089 234.377 61.2969C234.657 61.3849 234.905 61.4889 235.121 61.6089V62.6769C234.601 62.3249 233.997 62.1489 233.309 62.1489C232.933 62.1489 232.605 62.2289 232.325 62.3889C232.045 62.5489 231.805 62.7689 231.605 63.0489C231.413 63.3209 231.261 63.6489 231.149 64.0329C231.037 64.4089 230.965 64.8129 230.933 65.2449C231.197 64.8849 231.501 64.6169 231.845 64.4409C232.189 64.2649 232.565 64.1769 232.973 64.1769C233.357 64.1769 233.717 64.2409 234.053 64.3689C234.389 64.4889 234.681 64.6729 234.929 64.9209C235.177 65.1689 235.369 65.4729 235.505 65.8329C235.649 66.1929 235.721 66.6049 235.721 67.0689ZM232.829 69.0489C233.061 69.0489 233.281 69.0089 233.489 68.9289C233.705 68.8409 233.893 68.7169 234.053 68.5569C234.213 68.3969 234.341 68.1969 234.437 67.9569C234.533 67.7089 234.581 67.4209 234.581 67.0929C234.581 66.7729 234.533 66.4889 234.437 66.2409C234.349 65.9929 234.225 65.7849 234.065 65.6169C233.913 65.4489 233.737 65.3249 233.537 65.2449C233.345 65.1569 233.149 65.1129 232.949 65.1129C232.685 65.1129 232.437 65.1569 232.205 65.2449C231.981 65.3329 231.785 65.4609 231.617 65.6289C231.457 65.7969 231.329 66.0049 231.233 66.2529C231.137 66.5009 231.089 66.7889 231.089 67.1169C231.089 67.6929 231.245 68.1609 231.557 68.5209C231.869 68.8729 232.293 69.0489 232.829 69.0489ZM241.983 67.0449C241.983 67.4929 241.911 67.9009 241.767 68.2689C241.631 68.6289 241.431 68.9409 241.167 69.2049C240.911 69.4609 240.595 69.6609 240.219 69.8049C239.851 69.9409 239.439 70.0089 238.983 70.0089C238.471 70.0089 238.027 69.9569 237.651 69.8529C237.275 69.7409 236.955 69.5889 236.691 69.3969V68.2209C236.963 68.4449 237.275 68.6369 237.627 68.7969C237.987 68.9489 238.439 69.0249 238.983 69.0249C239.575 69.0249 240.031 68.8449 240.351 68.4849C240.679 68.1249 240.843 67.6529 240.843 67.0689C240.843 66.4449 240.683 65.9889 240.363 65.7009C240.043 65.4129 239.639 65.2689 239.151 65.2689C238.791 65.2689 238.503 65.3289 238.287 65.4489C238.079 65.5609 237.919 65.6809 237.807 65.8089H236.931V61.2849H241.587V62.3169H237.915V64.7769C238.075 64.6569 238.271 64.5529 238.503 64.4649C238.735 64.3689 239.011 64.3209 239.331 64.3209C239.699 64.3209 240.043 64.3809 240.363 64.5009C240.691 64.6129 240.975 64.7849 241.215 65.0169C241.455 65.2409 241.643 65.5249 241.779 65.8689C241.915 66.2049 241.983 66.5969 241.983 67.0449ZM245.817 68.9889C246.041 68.8529 246.217 68.6409 246.345 68.3529C246.473 68.0649 246.573 67.7009 246.645 67.2609C246.717 66.8209 246.765 66.3009 246.789 65.7009C246.821 65.1009 246.849 64.4209 246.873 63.6609H251.157V68.9889H252.093V71.6649H251.169L251.037 69.8889H246.405L246.297 71.6649H245.349V68.9889H245.817ZM250.101 68.9889V64.5609H247.821C247.781 65.7369 247.705 66.6809 247.593 67.3929C247.489 68.0969 247.305 68.6289 247.041 68.9889H250.101ZM257.264 67.1289H254.252V69.8889H253.196V63.6609H254.252V66.2289H257.264V63.6609H258.32V69.8889H257.264V67.1289ZM265.008 69.3609C264.92 69.4249 264.812 69.4929 264.684 69.5649C264.556 69.6369 264.4 69.7089 264.216 69.7809C264.032 69.8449 263.824 69.8969 263.592 69.9369C263.36 69.9849 263.1 70.0089 262.812 70.0089C261.764 70.0089 260.968 69.7249 260.424 69.1569C259.88 68.5889 259.608 67.7929 259.608 66.7689C259.608 66.2649 259.68 65.8129 259.824 65.4129C259.976 65.0129 260.184 64.6769 260.448 64.4049C260.712 64.1249 261.024 63.9129 261.384 63.7689C261.744 63.6169 262.136 63.5409 262.56 63.5409C263.008 63.5409 263.408 63.6169 263.76 63.7689C264.112 63.9209 264.4 64.1449 264.624 64.4409C264.856 64.7369 265.012 65.1049 265.092 65.5449C265.18 65.9769 265.18 66.4809 265.092 67.0569H260.7C260.74 67.7289 260.94 68.2329 261.3 68.5689C261.66 68.8969 262.196 69.0609 262.908 69.0609C263.388 69.0609 263.8 68.9929 264.144 68.8569C264.488 68.7209 264.776 68.5729 265.008 68.4129V69.3609ZM262.536 64.4769C262.08 64.4769 261.688 64.6169 261.36 64.8969C261.032 65.1769 260.824 65.6009 260.736 66.1689H264.084C264.116 65.5929 263.984 65.1689 263.688 64.8969C263.392 64.6169 263.008 64.4769 262.536 64.4769ZM269.257 62.8329C268.937 62.8329 268.657 62.7929 268.417 62.7129C268.185 62.6249 267.989 62.5089 267.829 62.3649C267.677 62.2129 267.561 62.0409 267.481 61.8489C267.409 61.6489 267.373 61.4329 267.373 61.2009H268.429C268.429 61.5049 268.501 61.7249 268.645 61.8609C268.797 61.9969 269.001 62.0649 269.257 62.0649C269.513 62.0649 269.713 61.9969 269.857 61.8609C270.001 61.7249 270.073 61.5049 270.073 61.2009H271.129C271.129 61.6569 270.973 62.0449 270.661 62.3649C270.357 62.6769 269.889 62.8329 269.257 62.8329ZM267.565 68.4489L270.889 63.6609H271.957V69.8889H270.901V65.1129L267.589 69.8889H266.509V63.6609H267.565V68.4489ZM278.417 67.4169L276.737 69.8889H275.633L277.889 66.6609L275.897 63.6609H277.121L278.609 65.8569L280.109 63.6609H281.201L279.137 66.6369L281.309 69.8889H280.085L278.417 67.4169ZM290.197 69.8889H284.713V68.7489C285.441 68.1649 286.069 67.6449 286.597 67.1889C287.133 66.7329 287.573 66.3129 287.917 65.9289C288.261 65.5449 288.517 65.1809 288.685 64.8369C288.853 64.4849 288.937 64.1209 288.937 63.7449C288.937 63.2729 288.793 62.8929 288.505 62.6049C288.225 62.3089 287.813 62.1609 287.269 62.1609C286.813 62.1609 286.389 62.2729 285.997 62.4969C285.605 62.7209 285.253 63.0049 284.941 63.3489V62.1369C285.245 61.8409 285.589 61.6049 285.973 61.4289C286.357 61.2529 286.801 61.1649 287.305 61.1649C287.753 61.1649 288.149 61.2249 288.493 61.3449C288.845 61.4649 289.137 61.6329 289.369 61.8489C289.609 62.0649 289.789 62.3249 289.909 62.6289C290.037 62.9329 290.101 63.2689 290.101 63.6369C290.101 64.1009 290.009 64.5369 289.825 64.9449C289.649 65.3529 289.385 65.7609 289.033 66.1689C288.681 66.5769 288.245 67.0009 287.725 67.4409C287.213 67.8729 286.625 68.3449 285.961 68.8569H290.197V69.8889ZM295.823 67.8489V69.8889H294.767V67.8489H291.047V67.1049L294.407 61.2849H295.823V66.9369H296.987V67.8489H295.823ZM294.767 66.9369V62.4609L292.139 66.9369H294.767ZM305.645 69.8889H304.589V67.1529C304.373 67.3209 304.121 67.4529 303.833 67.5489C303.553 67.6369 303.233 67.6809 302.873 67.6809C302.169 67.6809 301.629 67.5089 301.253 67.1649C300.885 66.8129 300.701 66.2529 300.701 65.4849V63.6609H301.769V65.4969C301.769 65.9849 301.881 66.3249 302.105 66.5169C302.329 66.7089 302.645 66.8049 303.053 66.8049C303.333 66.8049 303.605 66.7649 303.869 66.6849C304.133 66.6049 304.373 66.4809 304.589 66.3129V63.6609H305.645V69.8889ZM311.02 68.7009C310.948 68.8449 310.856 68.9969 310.744 69.1569C310.632 69.3089 310.492 69.4489 310.324 69.5769C310.156 69.7049 309.956 69.8089 309.724 69.8889C309.5 69.9689 309.236 70.0089 308.932 70.0089C308.372 70.0089 307.92 69.8529 307.576 69.5409C307.232 69.2209 307.06 68.7649 307.06 68.1729C307.06 67.4929 307.296 66.9929 307.768 66.6729C308.248 66.3529 308.928 66.1929 309.808 66.1929H310.972V65.6769C310.972 65.2449 310.86 64.9369 310.636 64.7529C310.412 64.5689 310.028 64.4769 309.484 64.4769C309.1 64.4769 308.736 64.5409 308.392 64.6689C308.048 64.7889 307.74 64.9289 307.468 65.0889V64.1409C307.692 64.0049 307.992 63.8729 308.368 63.7449C308.752 63.6089 309.172 63.5409 309.628 63.5409C310.412 63.5409 311.008 63.7049 311.416 64.0329C311.824 64.3529 312.028 64.8529 312.028 65.5329V68.8809C312.028 68.9529 312.028 69.0369 312.028 69.1329C312.036 69.2209 312.04 69.3129 312.04 69.4089C312.048 69.5049 312.056 69.5969 312.064 69.6849C312.072 69.7649 312.08 69.8329 312.088 69.8889H311.128C311.104 69.7769 311.08 69.6209 311.056 69.4209C311.04 69.2129 311.032 69.0329 311.032 68.8809L311.02 68.7009ZM309.16 69.0609C309.488 69.0609 309.768 68.9929 310 68.8569C310.232 68.7209 310.42 68.5649 310.564 68.3889C310.708 68.2049 310.812 68.0289 310.876 67.8609C310.94 67.6849 310.972 67.5609 310.972 67.4889V67.0329H309.916C309.284 67.0329 308.824 67.1249 308.536 67.3089C308.256 67.4849 308.116 67.7529 308.116 68.1129C308.116 68.3929 308.2 68.6209 308.368 68.7969C308.536 68.9729 308.8 69.0609 309.16 69.0609ZM316.376 70.0089C315.896 70.0089 315.46 69.9369 315.068 69.7929C314.684 69.6409 314.356 69.4289 314.084 69.1569C313.812 68.8769 313.604 68.5369 313.46 68.1369C313.316 67.7369 313.244 67.2809 313.244 66.7689C313.244 66.2649 313.316 65.8129 313.46 65.4129C313.612 65.0129 313.824 64.6769 314.096 64.4049C314.368 64.1249 314.7 63.9129 315.092 63.7689C315.484 63.6169 315.928 63.5409 316.424 63.5409C316.808 63.5409 317.16 63.5849 317.48 63.6729C317.8 63.7529 318.064 63.8729 318.272 64.0329V64.9809C318.016 64.8129 317.728 64.6889 317.408 64.6089C317.096 64.5209 316.772 64.4769 316.436 64.4769C315.708 64.4769 315.172 64.6649 314.828 65.0409C314.492 65.4169 314.324 65.9929 314.324 66.7689C314.324 67.5449 314.488 68.1209 314.816 68.4969C315.144 68.8729 315.664 69.0609 316.376 69.0609C316.752 69.0609 317.096 69.0169 317.408 68.9289C317.728 68.8329 318.016 68.7129 318.272 68.5689V69.5169C318.048 69.6529 317.776 69.7689 317.456 69.8649C317.144 69.9609 316.784 70.0089 316.376 70.0089ZM323.336 68.7009C323.264 68.8449 323.172 68.9969 323.06 69.1569C322.948 69.3089 322.808 69.4489 322.64 69.5769C322.472 69.7049 322.272 69.8089 322.04 69.8889C321.816 69.9689 321.552 70.0089 321.248 70.0089C320.688 70.0089 320.236 69.8529 319.892 69.5409C319.548 69.2209 319.376 68.7649 319.376 68.1729C319.376 67.4929 319.612 66.9929 320.084 66.6729C320.564 66.3529 321.244 66.1929 322.124 66.1929H323.288V65.6769C323.288 65.2449 323.176 64.9369 322.952 64.7529C322.728 64.5689 322.344 64.4769 321.8 64.4769C321.416 64.4769 321.052 64.5409 320.708 64.6689C320.364 64.7889 320.056 64.9289 319.784 65.0889V64.1409C320.008 64.0049 320.308 63.8729 320.684 63.7449C321.068 63.6089 321.488 63.5409 321.944 63.5409C322.728 63.5409 323.324 63.7049 323.732 64.0329C324.14 64.3529 324.344 64.8529 324.344 65.5329V68.8809C324.344 68.9529 324.344 69.0369 324.344 69.1329C324.352 69.2209 324.356 69.3129 324.356 69.4089C324.364 69.5049 324.372 69.5969 324.38 69.6849C324.388 69.7649 324.396 69.8329 324.404 69.8889H323.444C323.42 69.7769 323.396 69.6209 323.372 69.4209C323.356 69.2129 323.348 69.0329 323.348 68.8809L323.336 68.7009ZM321.476 69.0609C321.804 69.0609 322.084 68.9929 322.316 68.8569C322.548 68.7209 322.736 68.5649 322.88 68.3889C323.024 68.2049 323.128 68.0289 323.192 67.8609C323.256 67.6849 323.288 67.5609 323.288 67.4889V67.0329H322.232C321.6 67.0329 321.14 67.1249 320.852 67.3089C320.572 67.4849 320.432 67.7529 320.432 68.1129C320.432 68.3929 320.516 68.6209 320.684 68.7969C320.852 68.9729 321.116 69.0609 321.476 69.0609Z" fill="#18123D"/>
<path d="M184.978 62.432C184.61 62.432 184.306 62.312 184.066 62.072C183.826 61.816 183.706 61.512 183.706 61.16C183.706 60.792 183.826 60.488 184.066 60.248C184.306 60.008 184.61 59.888 184.978 59.888C185.362 59.888 185.666 60.008 185.89 60.248C186.13 60.488 186.25 60.792 186.25 61.16C186.25 61.512 186.13 61.816 185.89 62.072C185.666 62.312 185.362 62.432 184.978 62.432ZM179.434 66.56V65.264H190.546V66.56H179.434ZM184.978 71.936C184.61 71.936 184.306 71.816 184.066 71.576C183.826 71.32 183.706 71.016 183.706 70.664C183.706 70.296 183.826 69.992 184.066 69.752C184.306 69.512 184.61 69.392 184.978 69.392C185.362 69.392 185.666 69.512 185.89 69.752C186.13 69.992 186.25 70.296 186.25 70.664C186.25 71.016 186.13 71.32 185.89 71.576C185.666 71.816 185.362 71.936 184.978 71.936Z" fill="#18123D"/>
<path d="M373.422 64.184V62.888H384.534V64.184H373.422ZM373.422 68.936V67.64H384.534V68.936H373.422Z" fill="#18123D"/>
<defs>
<filter id="filter0_d" x="0" y="0" width="370" height="130" filterUnits="userSpaceOnUse" color-interpolation-filters="sRGB">
<feFlood flood-opacity="0" result="BackgroundImageFix"/>
<feColorMatrix in="SourceAlpha" type="matrix" values="0 0 0 0 0 0 0 0 0 0 0 0 0 0 0 0 0 0 127 0"/>
<feOffset/>
<feGaussianBlur stdDeviation="7.5"/>
<feColorMatrix type="matrix" values="0 0 0 0 0.592157 0 0 0 0 0.74902 0 0 0 0 0.905882 0 0 0 0.4 0"/>
<feBlend mode="normal" in2="BackgroundImageFix" result="effect1_dropShadow"/>
<feBlend mode="normal" in="SourceGraphic" in2="effect1_dropShadow" result="shape"/>
</filter>
</defs>
</svg>
