<svg width="505" height="150" viewBox="0 0 505 150" fill="none" xmlns="http://www.w3.org/2000/svg">
<rect width="505" height="150" rx="10" fill="white"/>
<path d="M455 115C477.091 115 495 97.0914 495 75C495 52.9086 477.091 35 455 35C432.909 35 415 52.9086 415 75C415 97.0914 432.909 115 455 115Z" fill="#D1D0D8"/>
<path d="M439.344 65.12C438.704 65.12 438.124 65.02 437.604 64.82C437.084 64.62 436.636 64.332 436.26 63.956C435.892 63.572 435.608 63.108 435.408 62.564C435.208 62.012 435.108 61.392 435.108 60.704C435.108 60.008 435.2 59.388 435.384 58.844C435.568 58.3 435.84 57.84 436.2 57.464C436.56 57.08 437 56.788 437.52 56.588C438.048 56.388 438.648 56.288 439.32 56.288C439.904 56.288 440.416 56.352 440.856 56.48C441.296 56.6 441.656 56.744 441.936 56.912V57.992C441.576 57.76 441.16 57.588 440.688 57.476C440.224 57.364 439.764 57.308 439.308 57.308C438.292 57.308 437.54 57.592 437.052 58.16C436.572 58.72 436.332 59.568 436.332 60.704C436.332 61.848 436.592 62.7 437.112 63.26C437.64 63.82 438.416 64.1 439.44 64.1C439.88 64.1 440.308 64.04 440.724 63.92C441.148 63.8 441.552 63.596 441.936 63.308V64.388C441.704 64.572 441.364 64.74 440.916 64.892C440.476 65.044 439.952 65.12 439.344 65.12ZM446.52 64.928C446.376 65.304 446.224 65.632 446.064 65.912C445.904 66.2 445.724 66.444 445.524 66.644C445.324 66.844 445.1 66.992 444.852 67.088C444.604 67.192 444.32 67.244 444 67.244C443.84 67.244 443.692 67.232 443.556 67.208C443.42 67.192 443.296 67.16 443.184 67.112V66.092C443.272 66.156 443.384 66.204 443.52 66.236C443.656 66.276 443.804 66.296 443.964 66.296C444.26 66.296 444.504 66.224 444.696 66.08C444.888 65.944 445.072 65.724 445.248 65.42L442.716 58.772H443.88L445.86 64.028L447.828 58.772H448.848L446.52 64.928ZM455.833 59.996L453.721 64.304H452.881L450.889 59.972V65H449.893V58.772H451.465L453.373 62.948L455.413 58.772H456.877V65H455.833V59.996ZM464.54 59.996L462.428 64.304H461.588L459.596 59.972V65H458.6V58.772H460.172L462.08 62.948L464.12 58.772H465.584V65H464.54V59.996ZM470.955 63.812C470.883 63.956 470.791 64.108 470.679 64.268C470.567 64.42 470.427 64.56 470.259 64.688C470.091 64.816 469.891 64.92 469.659 65C469.435 65.08 469.171 65.12 468.867 65.12C468.307 65.12 467.855 64.964 467.511 64.652C467.167 64.332 466.995 63.876 466.995 63.284C466.995 62.604 467.231 62.104 467.703 61.784C468.183 61.464 468.863 61.304 469.743 61.304H470.907V60.788C470.907 60.356 470.795 60.048 470.571 59.864C470.347 59.68 469.963 59.588 469.419 59.588C469.035 59.588 468.671 59.652 468.327 59.78C467.983 59.9 467.675 60.04 467.403 60.2V59.252C467.627 59.116 467.927 58.984 468.303 58.856C468.687 58.72 469.107 58.652 469.563 58.652C470.347 58.652 470.943 58.816 471.351 59.144C471.759 59.464 471.963 59.964 471.963 60.644V63.992C471.963 64.064 471.963 64.148 471.963 64.244C471.971 64.332 471.975 64.424 471.975 64.52C471.983 64.616 471.991 64.708 471.999 64.796C472.007 64.876 472.015 64.944 472.023 65H471.063C471.039 64.888 471.015 64.732 470.991 64.532C470.975 64.324 470.967 64.144 470.967 63.992L470.955 63.812ZM469.095 64.172C469.423 64.172 469.703 64.104 469.935 63.968C470.167 63.832 470.355 63.676 470.499 63.5C470.643 63.316 470.747 63.14 470.811 62.972C470.875 62.796 470.907 62.672 470.907 62.6V62.144H469.851C469.219 62.144 468.759 62.236 468.471 62.42C468.191 62.596 468.051 62.864 468.051 63.224C468.051 63.504 468.135 63.732 468.303 63.908C468.471 64.084 468.735 64.172 469.095 64.172ZM430.948 79.12C430.468 79.12 430.032 79.048 429.64 78.904C429.256 78.752 428.928 78.54 428.656 78.268C428.384 77.988 428.176 77.648 428.032 77.248C427.888 76.848 427.816 76.392 427.816 75.88C427.816 75.376 427.888 74.924 428.032 74.524C428.184 74.124 428.396 73.788 428.668 73.516C428.94 73.236 429.272 73.024 429.664 72.88C430.056 72.728 430.5 72.652 430.996 72.652C431.38 72.652 431.732 72.696 432.052 72.784C432.372 72.864 432.636 72.984 432.844 73.144V74.092C432.588 73.924 432.3 73.8 431.98 73.72C431.668 73.632 431.344 73.588 431.008 73.588C430.28 73.588 429.744 73.776 429.4 74.152C429.064 74.528 428.896 75.104 428.896 75.88C428.896 76.656 429.06 77.232 429.388 77.608C429.716 77.984 430.236 78.172 430.948 78.172C431.324 78.172 431.668 78.128 431.98 78.04C432.3 77.944 432.588 77.824 432.844 77.68V78.628C432.62 78.764 432.348 78.88 432.028 78.976C431.716 79.072 431.356 79.12 430.948 79.12ZM434.26 72.772H439.252V79H438.196V73.672H435.316V79H434.26V72.772ZM442.031 77.56L445.355 72.772H446.423V79H445.367V74.224L442.055 79H440.975V72.772H442.031V77.56ZM450.835 79.12C450.355 79.12 449.919 79.048 449.527 78.904C449.143 78.752 448.815 78.54 448.543 78.268C448.271 77.988 448.063 77.648 447.919 77.248C447.775 76.848 447.703 76.392 447.703 75.88C447.703 75.376 447.775 74.924 447.919 74.524C448.071 74.124 448.283 73.788 448.555 73.516C448.827 73.236 449.159 73.024 449.551 72.88C449.943 72.728 450.387 72.652 450.883 72.652C451.267 72.652 451.619 72.696 451.939 72.784C452.259 72.864 452.523 72.984 452.731 73.144V74.092C452.475 73.924 452.187 73.8 451.867 73.72C451.555 73.632 451.231 73.588 450.895 73.588C450.167 73.588 449.631 73.776 449.287 74.152C448.951 74.528 448.783 75.104 448.783 75.88C448.783 76.656 448.947 77.232 449.275 77.608C449.603 77.984 450.123 78.172 450.835 78.172C451.211 78.172 451.555 78.128 451.867 78.04C452.187 77.944 452.475 77.824 452.731 77.68V78.628C452.507 78.764 452.235 78.88 451.915 78.976C451.603 79.072 451.243 79.12 450.835 79.12ZM457.795 77.812C457.723 77.956 457.631 78.108 457.519 78.268C457.407 78.42 457.267 78.56 457.099 78.688C456.931 78.816 456.731 78.92 456.499 79C456.275 79.08 456.011 79.12 455.707 79.12C455.147 79.12 454.695 78.964 454.351 78.652C454.007 78.332 453.835 77.876 453.835 77.284C453.835 76.604 454.071 76.104 454.543 75.784C455.023 75.464 455.703 75.304 456.583 75.304H457.747V74.788C457.747 74.356 457.635 74.048 457.411 73.864C457.187 73.68 456.803 73.588 456.259 73.588C455.875 73.588 455.511 73.652 455.167 73.78C454.823 73.9 454.515 74.04 454.243 74.2V73.252C454.467 73.116 454.767 72.984 455.143 72.856C455.527 72.72 455.947 72.652 456.403 72.652C457.187 72.652 457.783 72.816 458.191 73.144C458.599 73.464 458.803 73.964 458.803 74.644V77.992C458.803 78.064 458.803 78.148 458.803 78.244C458.811 78.332 458.815 78.424 458.815 78.52C458.823 78.616 458.831 78.708 458.839 78.796C458.847 78.876 458.855 78.944 458.863 79H457.903C457.879 78.888 457.855 78.732 457.831 78.532C457.815 78.324 457.807 78.144 457.807 77.992L457.795 77.812ZM455.935 78.172C456.263 78.172 456.543 78.104 456.775 77.968C457.007 77.832 457.195 77.676 457.339 77.5C457.483 77.316 457.587 77.14 457.651 76.972C457.715 76.796 457.747 76.672 457.747 76.6V76.144H456.691C456.059 76.144 455.599 76.236 455.311 76.42C455.031 76.596 454.891 76.864 454.891 77.224C454.891 77.504 454.975 77.732 455.143 77.908C455.311 78.084 455.575 78.172 455.935 78.172ZM464.532 76.24H461.52V79H460.464V72.772H461.52V75.34H464.532V72.772H465.588V79H464.532V76.24ZM468.375 77.56L471.699 72.772H472.767V79H471.711V74.224L468.399 79H467.319V72.772H468.375V77.56ZM474.491 74.788C474.491 74.436 474.555 74.136 474.683 73.888C474.811 73.632 474.991 73.424 475.223 73.264C475.455 73.096 475.731 72.972 476.051 72.892C476.371 72.812 476.719 72.772 477.095 72.772H479.099V79H478.043V76.744H476.903L475.307 79H474.047L475.847 76.48C475.415 76.352 475.079 76.156 474.839 75.892C474.607 75.628 474.491 75.26 474.491 74.788ZM478.043 75.844V73.672H477.095C476.647 73.672 476.279 73.756 475.991 73.924C475.703 74.092 475.559 74.364 475.559 74.74C475.559 75.132 475.687 75.416 475.943 75.592C476.199 75.76 476.563 75.844 477.035 75.844H478.043ZM438.216 86.772H440.544C441.296 86.772 441.864 86.904 442.248 87.168C442.632 87.424 442.824 87.828 442.824 88.38C442.824 88.748 442.728 89.044 442.536 89.268C442.352 89.484 442.088 89.64 441.744 89.736C442.632 89.88 443.076 90.372 443.076 91.212C443.076 91.532 443.012 91.808 442.884 92.04C442.756 92.264 442.58 92.448 442.356 92.592C442.132 92.736 441.86 92.84 441.54 92.904C441.228 92.968 440.888 93 440.52 93H438.216V86.772ZM439.272 87.672V89.364H440.448C440.848 89.364 441.168 89.292 441.408 89.148C441.656 89.004 441.78 88.796 441.78 88.524C441.78 88.196 441.672 87.972 441.456 87.852C441.24 87.732 440.932 87.672 440.532 87.672H439.272ZM439.272 90.204V92.1H440.508C440.732 92.1 440.932 92.088 441.108 92.064C441.292 92.032 441.448 91.98 441.576 91.908C441.712 91.836 441.816 91.74 441.888 91.62C441.96 91.5 441.996 91.352 441.996 91.176C441.996 90.816 441.872 90.564 441.624 90.42C441.376 90.276 441.004 90.204 440.508 90.204H439.272ZM446.962 92.1C447.186 91.964 447.362 91.752 447.49 91.464C447.618 91.176 447.718 90.812 447.79 90.372C447.862 89.932 447.91 89.412 447.934 88.812C447.966 88.212 447.994 87.532 448.018 86.772H452.302V92.1H453.238V94.776H452.314L452.182 93H447.55L447.442 94.776H446.494V92.1H446.962ZM451.246 92.1V87.672H448.966C448.926 88.848 448.85 89.792 448.738 90.504C448.634 91.208 448.45 91.74 448.186 92.1H451.246ZM459.179 92.472C459.091 92.536 458.983 92.604 458.855 92.676C458.727 92.748 458.571 92.82 458.387 92.892C458.203 92.956 457.995 93.008 457.763 93.048C457.531 93.096 457.271 93.12 456.983 93.12C455.935 93.12 455.139 92.836 454.595 92.268C454.051 91.7 453.779 90.904 453.779 89.88C453.779 89.376 453.851 88.924 453.995 88.524C454.147 88.124 454.355 87.788 454.619 87.516C454.883 87.236 455.195 87.024 455.555 86.88C455.915 86.728 456.307 86.652 456.731 86.652C457.179 86.652 457.579 86.728 457.931 86.88C458.283 87.032 458.571 87.256 458.795 87.552C459.027 87.848 459.183 88.216 459.263 88.656C459.351 89.088 459.351 89.592 459.263 90.168H454.871C454.911 90.84 455.111 91.344 455.471 91.68C455.831 92.008 456.367 92.172 457.079 92.172C457.559 92.172 457.971 92.104 458.315 91.968C458.659 91.832 458.947 91.684 459.179 91.524V92.472ZM456.707 87.588C456.251 87.588 455.859 87.728 455.531 88.008C455.203 88.288 454.995 88.712 454.907 89.28H458.255C458.287 88.704 458.155 88.28 457.859 88.008C457.563 87.728 457.179 87.588 456.707 87.588ZM464.748 90.24H461.736V93H460.68V86.772H461.736V89.34H464.748V86.772H465.804V93H464.748V90.24ZM472.168 90.924C472.168 91.284 472.104 91.596 471.976 91.86C471.848 92.124 471.668 92.34 471.436 92.508C471.204 92.676 470.928 92.8 470.608 92.88C470.288 92.96 469.94 93 469.564 93H467.5V86.772H468.556V88.944H469.636C470.428 88.944 471.048 89.1 471.496 89.412C471.944 89.724 472.168 90.228 472.168 90.924ZM468.556 89.844V92.1H469.564C470.02 92.1 470.388 92.016 470.668 91.848C470.956 91.672 471.1 91.384 471.1 90.984C471.1 90.576 470.972 90.284 470.716 90.108C470.46 89.932 470.1 89.844 469.636 89.844H468.556Z" fill="black"/>
<g filter="url(#filter0_d)">
<path d="M350 25H40C31.7157 25 25 31.7157 25 40V110C25 118.284 31.7157 125 40 125H350C358.284 125 365 118.284 365 110V40C365 31.7157 358.284 25 350 25Z" fill="white"/>
</g>
<path d="M35 40C35 37.2386 37.2386 35 40 35H170C172.761 35 175 37.2386 175 40V110C175 112.761 172.761 115 170 115H40C37.2386 115 35 112.761 35 110V40Z" fill="#DAEEF9"/>
<path d="M73.0271 66.0089C72.3871 66.0089 71.8071 65.9089 71.2871 65.7089C70.7671 65.5089 70.3191 65.2209 69.9431 64.8449C69.5751 64.4609 69.2911 63.9969 69.0911 63.4529C68.8911 62.9009 68.7911 62.2809 68.7911 61.5929C68.7911 60.8969 68.8831 60.2769 69.0671 59.7329C69.2511 59.1889 69.5231 58.7289 69.8831 58.3529C70.2431 57.9689 70.6831 57.6769 71.2031 57.4769C71.7311 57.2769 72.3311 57.1769 73.0031 57.1769C73.5871 57.1769 74.0991 57.2409 74.5391 57.3689C74.9791 57.4889 75.3391 57.6329 75.6191 57.8009V58.8809C75.2591 58.6489 74.8431 58.4769 74.3711 58.3649C73.9071 58.2529 73.4471 58.1969 72.9911 58.1969C71.9751 58.1969 71.2231 58.4809 70.7351 59.0489C70.2551 59.6089 70.0151 60.4569 70.0151 61.5929C70.0151 62.7369 70.2751 63.5889 70.7951 64.1489C71.3231 64.7089 72.0991 64.9889 73.1231 64.9889C73.5631 64.9889 73.9911 64.9289 74.4071 64.8089C74.8311 64.6889 75.2351 64.4849 75.6191 64.1969V65.2769C75.3871 65.4609 75.0471 65.6289 74.5991 65.7809C74.1591 65.9329 73.6351 66.0089 73.0271 66.0089ZM80.2033 65.8169C80.0593 66.1929 79.9073 66.5209 79.7473 66.8009C79.5873 67.0889 79.4073 67.3329 79.2073 67.5329C79.0073 67.7329 78.7833 67.8809 78.5353 67.9769C78.2873 68.0809 78.0033 68.1329 77.6833 68.1329C77.5233 68.1329 77.3753 68.1209 77.2393 68.0969C77.1033 68.0809 76.9793 68.0489 76.8673 68.0009V66.9809C76.9553 67.0449 77.0673 67.0929 77.2033 67.1249C77.3393 67.1649 77.4873 67.1849 77.6473 67.1849C77.9433 67.1849 78.1873 67.1129 78.3793 66.9689C78.5713 66.8329 78.7553 66.6129 78.9313 66.3089L76.3993 59.6609H77.5633L79.5433 64.9169L81.5113 59.6609H82.5313L80.2033 65.8169ZM89.5169 60.8849L87.4049 65.1929H86.5649L84.5729 60.8609V65.8889H83.5769V59.6609H85.1489L87.0569 63.8369L89.0969 59.6609H90.5609V65.8889H89.5169V60.8849ZM98.2239 60.8849L96.1119 65.1929H95.2719L93.2799 60.8609V65.8889H92.2839V59.6609H93.8559L95.7639 63.8369L97.8039 59.6609H99.2679V65.8889H98.2239V60.8849ZM104.639 64.7009C104.567 64.8449 104.475 64.9969 104.363 65.1569C104.251 65.3089 104.111 65.4489 103.943 65.5769C103.775 65.7049 103.575 65.8089 103.343 65.8889C103.119 65.9689 102.855 66.0089 102.551 66.0089C101.991 66.0089 101.539 65.8529 101.195 65.5409C100.851 65.2209 100.679 64.7649 100.679 64.1729C100.679 63.4929 100.915 62.9929 101.387 62.6729C101.867 62.3529 102.547 62.1929 103.427 62.1929H104.591V61.6769C104.591 61.2449 104.479 60.9369 104.255 60.7529C104.031 60.5689 103.647 60.4769 103.103 60.4769C102.719 60.4769 102.355 60.5409 102.011 60.6689C101.667 60.7889 101.359 60.9289 101.087 61.0889V60.1409C101.311 60.0049 101.611 59.8729 101.987 59.7449C102.371 59.6089 102.791 59.5409 103.247 59.5409C104.031 59.5409 104.627 59.7049 105.035 60.0329C105.443 60.3529 105.647 60.8529 105.647 61.5329V64.8809C105.647 64.9529 105.647 65.0369 105.647 65.1329C105.655 65.2209 105.659 65.3129 105.659 65.4089C105.667 65.5049 105.675 65.5969 105.683 65.6849C105.691 65.7649 105.699 65.8329 105.707 65.8889H104.747C104.723 65.7769 104.699 65.6209 104.675 65.4209C104.659 65.2129 104.651 65.0329 104.651 64.8809L104.639 64.7009ZM102.779 65.0609C103.107 65.0609 103.387 64.9929 103.619 64.8569C103.851 64.7209 104.039 64.5649 104.183 64.3889C104.327 64.2049 104.431 64.0289 104.495 63.8609C104.559 63.6849 104.591 63.5609 104.591 63.4889V63.0329H103.535C102.903 63.0329 102.443 63.1249 102.155 63.3089C101.875 63.4849 101.735 63.7529 101.735 64.1129C101.735 64.3929 101.819 64.6209 101.987 64.7969C102.155 64.9729 102.419 65.0609 102.779 65.0609ZM109.944 59.6609H112.272C113.024 59.6609 113.592 59.7929 113.976 60.0569C114.36 60.3129 114.552 60.7169 114.552 61.2689C114.552 61.6369 114.456 61.9329 114.264 62.1569C114.08 62.3729 113.816 62.5289 113.472 62.6249C114.36 62.7689 114.804 63.2609 114.804 64.1009C114.804 64.4209 114.74 64.6969 114.612 64.9289C114.484 65.1529 114.308 65.3369 114.084 65.4809C113.86 65.6249 113.588 65.7289 113.268 65.7929C112.956 65.8569 112.616 65.8889 112.248 65.8889H109.944V59.6609ZM111 60.5609V62.2529H112.176C112.576 62.2529 112.896 62.1809 113.136 62.0369C113.384 61.8929 113.508 61.6849 113.508 61.4129C113.508 61.0849 113.4 60.8609 113.184 60.7409C112.968 60.6209 112.66 60.5609 112.26 60.5609H111ZM111 63.0929V64.9889H112.236C112.46 64.9889 112.66 64.9769 112.836 64.9529C113.02 64.9209 113.176 64.8689 113.304 64.7969C113.44 64.7249 113.544 64.6289 113.616 64.5089C113.688 64.3889 113.724 64.2409 113.724 64.0649C113.724 63.7049 113.6 63.4529 113.352 63.3089C113.104 63.1649 112.732 63.0929 112.236 63.0929H111ZM119.026 59.6609H122.986V60.5609H120.082V65.8889H119.026V59.6609ZM126.645 66.0089C126.221 66.0089 125.825 65.9369 125.457 65.7929C125.089 65.6489 124.769 65.4409 124.497 65.1689C124.233 64.8889 124.025 64.5489 123.873 64.1489C123.721 63.7489 123.645 63.2889 123.645 62.7689C123.645 62.2569 123.721 61.8009 123.873 61.4009C124.025 60.9929 124.233 60.6529 124.497 60.3809C124.769 60.1089 125.089 59.9009 125.457 59.7569C125.825 59.6129 126.221 59.5409 126.645 59.5409C127.077 59.5409 127.477 59.6129 127.845 59.7569C128.213 59.9009 128.529 60.1089 128.793 60.3809C129.065 60.6529 129.277 60.9929 129.429 61.4009C129.589 61.8009 129.669 62.2569 129.669 62.7689C129.669 63.2889 129.589 63.7489 129.429 64.1489C129.277 64.5489 129.065 64.8889 128.793 65.1689C128.529 65.4409 128.213 65.6489 127.845 65.7929C127.477 65.9369 127.077 66.0089 126.645 66.0089ZM126.645 65.0609C126.925 65.0609 127.181 65.0169 127.413 64.9289C127.653 64.8329 127.861 64.6929 128.037 64.5089C128.213 64.3169 128.349 64.0769 128.445 63.7889C128.541 63.5009 128.589 63.1609 128.589 62.7689C128.589 62.3769 128.541 62.0369 128.445 61.7489C128.349 61.4609 128.213 61.2249 128.037 61.0409C127.861 60.8489 127.653 60.7089 127.413 60.6209C127.181 60.5249 126.925 60.4769 126.645 60.4769C126.365 60.4769 126.109 60.5249 125.877 60.6209C125.645 60.7089 125.441 60.8489 125.265 61.0409C125.097 61.2249 124.965 61.4609 124.869 61.7489C124.773 62.0369 124.725 62.3769 124.725 62.7689C124.725 63.1609 124.773 63.5009 124.869 63.7889C124.965 64.0769 125.097 64.3169 125.265 64.5089C125.441 64.6929 125.645 64.8329 125.877 64.9289C126.109 65.0169 126.365 65.0609 126.645 65.0609ZM130.561 64.9889C130.785 64.8529 130.961 64.6409 131.089 64.3529C131.217 64.0649 131.317 63.7009 131.389 63.2609C131.461 62.8209 131.509 62.3009 131.533 61.7009C131.565 61.1009 131.593 60.4209 131.617 59.6609H135.901V64.9889H136.837V67.6649H135.913L135.781 65.8889H131.149L131.041 67.6649H130.093V64.9889H130.561ZM134.845 64.9889V60.5609H132.565C132.525 61.7369 132.449 62.6809 132.337 63.3929C132.233 64.0969 132.049 64.6289 131.785 64.9889H134.845ZM69.5085 73.6609H74.5005V79.8889H73.4445V74.5609H70.5645V79.8889H69.5085V73.6609ZM78.7794 80.0089C78.3554 80.0089 77.9594 79.9369 77.5914 79.7929C77.2234 79.6489 76.9034 79.4409 76.6314 79.1689C76.3674 78.8889 76.1594 78.5489 76.0074 78.1489C75.8554 77.7489 75.7794 77.2889 75.7794 76.7689C75.7794 76.2569 75.8554 75.8009 76.0074 75.4009C76.1594 74.9929 76.3674 74.6529 76.6314 74.3809C76.9034 74.1089 77.2234 73.9009 77.5914 73.7569C77.9594 73.6129 78.3554 73.5409 78.7794 73.5409C79.2114 73.5409 79.6114 73.6129 79.9794 73.7569C80.3474 73.9009 80.6634 74.1089 80.9274 74.3809C81.1994 74.6529 81.4114 74.9929 81.5634 75.4009C81.7234 75.8009 81.8034 76.2569 81.8034 76.7689C81.8034 77.2889 81.7234 77.7489 81.5634 78.1489C81.4114 78.5489 81.1994 78.8889 80.9274 79.1689C80.6634 79.4409 80.3474 79.6489 79.9794 79.7929C79.6114 79.9369 79.2114 80.0089 78.7794 80.0089ZM78.7794 79.0609C79.0594 79.0609 79.3154 79.0169 79.5474 78.9289C79.7874 78.8329 79.9954 78.6929 80.1714 78.5089C80.3474 78.3169 80.4834 78.0769 80.5794 77.7889C80.6754 77.5009 80.7234 77.1609 80.7234 76.7689C80.7234 76.3769 80.6754 76.0369 80.5794 75.7489C80.4834 75.4609 80.3474 75.2249 80.1714 75.0409C79.9954 74.8489 79.7874 74.7089 79.5474 74.6209C79.3154 74.5249 79.0594 74.4769 78.7794 74.4769C78.4994 74.4769 78.2434 74.5249 78.0114 74.6209C77.7794 74.7089 77.5754 74.8489 77.3994 75.0409C77.2314 75.2249 77.0994 75.4609 77.0034 75.7489C76.9074 76.0369 76.8594 76.3769 76.8594 76.7689C76.8594 77.1609 76.9074 77.5009 77.0034 77.7889C77.0994 78.0769 77.2314 78.3169 77.3994 78.5089C77.5754 78.6929 77.7794 78.8329 78.0114 78.9289C78.2434 79.0169 78.4994 79.0609 78.7794 79.0609ZM88.7873 79.8169C88.6433 80.1929 88.4913 80.5209 88.3313 80.8009C88.1713 81.0889 87.9913 81.3329 87.7913 81.5329C87.5913 81.7329 87.3673 81.8809 87.1193 81.9769C86.8713 82.0809 86.5873 82.1329 86.2673 82.1329C86.1073 82.1329 85.9593 82.1209 85.8233 82.0969C85.6873 82.0809 85.5633 82.0489 85.4513 82.0009V80.9809C85.5393 81.0449 85.6513 81.0929 85.7873 81.1249C85.9233 81.1649 86.0713 81.1849 86.2313 81.1849C86.5273 81.1849 86.7713 81.1129 86.9633 80.9689C87.1553 80.8329 87.3393 80.6129 87.5153 80.3089L84.9833 73.6609H86.1473L88.1273 78.9169L90.0953 73.6609H91.1153L88.7873 79.8169ZM94.7317 80.0089C94.2517 80.0089 93.8157 79.9369 93.4237 79.7929C93.0397 79.6409 92.7117 79.4289 92.4397 79.1569C92.1677 78.8769 91.9597 78.5369 91.8157 78.1369C91.6717 77.7369 91.5997 77.2809 91.5997 76.7689C91.5997 76.2649 91.6717 75.8129 91.8157 75.4129C91.9677 75.0129 92.1797 74.6769 92.4517 74.4049C92.7237 74.1249 93.0557 73.9129 93.4477 73.7689C93.8397 73.6169 94.2837 73.5409 94.7797 73.5409C95.1637 73.5409 95.5157 73.5849 95.8357 73.6729C96.1557 73.7529 96.4197 73.8729 96.6277 74.0329V74.9809C96.3717 74.8129 96.0837 74.6889 95.7637 74.6089C95.4517 74.5209 95.1277 74.4769 94.7917 74.4769C94.0637 74.4769 93.5277 74.6649 93.1837 75.0409C92.8477 75.4169 92.6797 75.9929 92.6797 76.7689C92.6797 77.5449 92.8437 78.1209 93.1717 78.4969C93.4997 78.8729 94.0197 79.0609 94.7317 79.0609C95.1077 79.0609 95.4517 79.0169 95.7637 78.9289C96.0837 78.8329 96.3717 78.7129 96.6277 78.5689V79.5169C96.4037 79.6529 96.1317 79.7689 95.8117 79.8649C95.4997 79.9609 95.1397 80.0089 94.7317 80.0089ZM98.5237 77.9569C98.6357 77.5489 98.7077 76.9969 98.7397 76.3009C98.7717 75.6049 98.7877 74.7249 98.7877 73.6609H102.976V79.8889H101.908V74.5609H99.7837C99.7757 75.4169 99.7477 76.1769 99.6997 76.8409C99.6597 77.5049 99.5677 78.0649 99.4237 78.5209C99.2877 78.9769 99.0837 79.3249 98.8117 79.5649C98.5477 79.7969 98.1917 79.9129 97.7437 79.9129C97.7117 79.9129 97.6797 79.9129 97.6477 79.9129C97.6157 79.9129 97.5797 79.9089 97.5397 79.9009V78.8569C97.5797 78.8649 97.6317 78.8689 97.6957 78.8689C98.1037 78.8689 98.3797 78.5649 98.5237 77.9569ZM107.244 80.0089C106.82 80.0089 106.424 79.9369 106.056 79.7929C105.688 79.6489 105.368 79.4409 105.096 79.1689C104.832 78.8889 104.624 78.5489 104.472 78.1489C104.32 77.7489 104.244 77.2889 104.244 76.7689C104.244 76.2569 104.32 75.8009 104.472 75.4009C104.624 74.9929 104.832 74.6529 105.096 74.3809C105.368 74.1089 105.688 73.9009 106.056 73.7569C106.424 73.6129 106.82 73.5409 107.244 73.5409C107.676 73.5409 108.076 73.6129 108.444 73.7569C108.812 73.9009 109.128 74.1089 109.392 74.3809C109.664 74.6529 109.876 74.9929 110.028 75.4009C110.188 75.8009 110.268 76.2569 110.268 76.7689C110.268 77.2889 110.188 77.7489 110.028 78.1489C109.876 78.5489 109.664 78.8889 109.392 79.1689C109.128 79.4409 108.812 79.6489 108.444 79.7929C108.076 79.9369 107.676 80.0089 107.244 80.0089ZM107.244 79.0609C107.524 79.0609 107.78 79.0169 108.012 78.9289C108.252 78.8329 108.46 78.6929 108.636 78.5089C108.812 78.3169 108.948 78.0769 109.044 77.7889C109.14 77.5009 109.188 77.1609 109.188 76.7689C109.188 76.3769 109.14 76.0369 109.044 75.7489C108.948 75.4609 108.812 75.2249 108.636 75.0409C108.46 74.8489 108.252 74.7089 108.012 74.6209C107.78 74.5249 107.524 74.4769 107.244 74.4769C106.964 74.4769 106.708 74.5249 106.476 74.6209C106.244 74.7089 106.04 74.8489 105.864 75.0409C105.696 75.2249 105.564 75.4609 105.468 75.7489C105.372 76.0369 105.324 76.3769 105.324 76.7689C105.324 77.1609 105.372 77.5009 105.468 77.7889C105.564 78.0769 105.696 78.3169 105.864 78.5089C106.04 78.6929 106.244 78.8329 106.476 78.9289C106.708 79.0169 106.964 79.0609 107.244 79.0609ZM111.555 73.6609H113.883C114.635 73.6609 115.203 73.7929 115.587 74.0569C115.971 74.3129 116.163 74.7169 116.163 75.2689C116.163 75.6369 116.067 75.9329 115.875 76.1569C115.691 76.3729 115.427 76.5289 115.083 76.6249C115.971 76.7689 116.415 77.2609 116.415 78.1009C116.415 78.4209 116.351 78.6969 116.223 78.9289C116.095 79.1529 115.919 79.3369 115.695 79.4809C115.471 79.6249 115.199 79.7289 114.879 79.7929C114.567 79.8569 114.227 79.8889 113.859 79.8889H111.555V73.6609ZM112.611 74.5609V76.2529H113.787C114.187 76.2529 114.507 76.1809 114.747 76.0369C114.995 75.8929 115.119 75.6849 115.119 75.4129C115.119 75.0849 115.011 74.8609 114.795 74.7409C114.579 74.6209 114.271 74.5609 113.871 74.5609H112.611ZM112.611 77.0929V78.9889H113.847C114.071 78.9889 114.271 78.9769 114.447 78.9529C114.631 78.9209 114.787 78.8689 114.915 78.7969C115.051 78.7249 115.155 78.6289 115.227 78.5089C115.299 78.3889 115.335 78.2409 115.335 78.0649C115.335 77.7049 115.211 77.4529 114.963 77.3089C114.715 77.1649 114.343 77.0929 113.847 77.0929H112.611ZM119.057 78.4489L122.381 73.6609H123.449V79.8889H122.393V75.1129L119.081 79.8889H118.001V73.6609H119.057V78.4489ZM125.173 75.6769C125.173 75.3249 125.237 75.0249 125.365 74.7769C125.493 74.5209 125.673 74.3129 125.905 74.1529C126.137 73.9849 126.413 73.8609 126.733 73.7809C127.053 73.7009 127.401 73.6609 127.777 73.6609H129.781V79.8889H128.725V77.6329H127.585L125.989 79.8889H124.729L126.529 77.3689C126.097 77.2409 125.761 77.0449 125.521 76.7809C125.289 76.5169 125.173 76.1489 125.173 75.6769ZM128.725 76.7329V74.5609H127.777C127.329 74.5609 126.961 74.6449 126.673 74.8129C126.385 74.9809 126.241 75.2529 126.241 75.6289C126.241 76.0209 126.369 76.3049 126.625 76.4809C126.881 76.6489 127.245 76.7329 127.717 76.7329H128.725ZM137.452 74.8849L135.34 79.1929H134.5L132.508 74.8609V79.8889H131.512V73.6609H133.084L134.992 77.8369L137.032 73.6609H138.496V79.8889H137.452V74.8849ZM74.1243 94.0089C73.6443 94.0089 73.2083 93.9369 72.8163 93.7929C72.4323 93.6409 72.1043 93.4289 71.8323 93.1569C71.5603 92.8769 71.3523 92.5369 71.2083 92.1369C71.0643 91.7369 70.9923 91.2809 70.9923 90.7689C70.9923 90.2649 71.0643 89.8129 71.2083 89.4129C71.3603 89.0129 71.5723 88.6769 71.8443 88.4049C72.1163 88.1249 72.4483 87.9129 72.8403 87.7689C73.2323 87.6169 73.6763 87.5409 74.1723 87.5409C74.5563 87.5409 74.9083 87.5849 75.2283 87.6729C75.5483 87.7529 75.8123 87.8729 76.0203 88.0329V88.9809C75.7643 88.8129 75.4763 88.6889 75.1563 88.6089C74.8443 88.5209 74.5203 88.4769 74.1843 88.4769C73.4563 88.4769 72.9203 88.6649 72.5763 89.0409C72.2403 89.4169 72.0723 89.9929 72.0723 90.7689C72.0723 91.5449 72.2363 92.1209 72.5643 92.4969C72.8923 92.8729 73.4123 93.0609 74.1243 93.0609C74.5003 93.0609 74.8443 93.0169 75.1563 92.9289C75.4763 92.8329 75.7643 92.7129 76.0203 92.5689V93.5169C75.7963 93.6529 75.5243 93.7689 75.2043 93.8649C74.8923 93.9609 74.5323 94.0089 74.1243 94.0089ZM79.9923 94.0089C79.5683 94.0089 79.1723 93.9369 78.8043 93.7929C78.4363 93.6489 78.1163 93.4409 77.8443 93.1689C77.5803 92.8889 77.3723 92.5489 77.2203 92.1489C77.0683 91.7489 76.9923 91.2889 76.9923 90.7689C76.9923 90.2569 77.0683 89.8009 77.2203 89.4009C77.3723 88.9929 77.5803 88.6529 77.8443 88.3809C78.1163 88.1089 78.4363 87.9009 78.8043 87.7569C79.1723 87.6129 79.5683 87.5409 79.9923 87.5409C80.4243 87.5409 80.8243 87.6129 81.1923 87.7569C81.5603 87.9009 81.8763 88.1089 82.1403 88.3809C82.4123 88.6529 82.6243 88.9929 82.7763 89.4009C82.9363 89.8009 83.0163 90.2569 83.0163 90.7689C83.0163 91.2889 82.9363 91.7489 82.7763 92.1489C82.6243 92.5489 82.4123 92.8889 82.1403 93.1689C81.8763 93.4409 81.5603 93.6489 81.1923 93.7929C80.8243 93.9369 80.4243 94.0089 79.9923 94.0089ZM79.9923 93.0609C80.2723 93.0609 80.5283 93.0169 80.7603 92.9289C81.0003 92.8329 81.2083 92.6929 81.3843 92.5089C81.5603 92.3169 81.6963 92.0769 81.7923 91.7889C81.8883 91.5009 81.9363 91.1609 81.9363 90.7689C81.9363 90.3769 81.8883 90.0369 81.7923 89.7489C81.6963 89.4609 81.5603 89.2249 81.3843 89.0409C81.2083 88.8489 81.0003 88.7089 80.7603 88.6209C80.5283 88.5249 80.2723 88.4769 79.9923 88.4769C79.7123 88.4769 79.4563 88.5249 79.2243 88.6209C78.9923 88.7089 78.7883 88.8489 78.6123 89.0409C78.4443 89.2249 78.3123 89.4609 78.2163 89.7489C78.1203 90.0369 78.0723 90.3769 78.0723 90.7689C78.0723 91.1609 78.1203 91.5009 78.2163 91.7889C78.3123 92.0769 78.4443 92.3169 78.6123 92.5089C78.7883 92.6929 78.9923 92.8329 79.2243 92.9289C79.4563 93.0169 79.7123 93.0609 79.9923 93.0609ZM84.3035 87.6609H88.2635V88.5609H85.3595V93.8889H84.3035V87.6609ZM89.4827 91.9569C89.5947 91.5489 89.6667 90.9969 89.6987 90.3009C89.7307 89.6049 89.7467 88.7249 89.7467 87.6609H93.9347V93.8889H92.8667V88.5609H90.7427C90.7347 89.4169 90.7067 90.1769 90.6587 90.8409C90.6187 91.5049 90.5267 92.0649 90.3827 92.5209C90.2467 92.9769 90.0427 93.3249 89.7707 93.5649C89.5067 93.7969 89.1507 93.9129 88.7027 93.9129C88.6707 93.9129 88.6387 93.9129 88.6067 93.9129C88.5747 93.9129 88.5387 93.9089 88.4987 93.9009V92.8569C88.5387 92.8649 88.5907 92.8689 88.6547 92.8689C89.0627 92.8689 89.3387 92.5649 89.4827 91.9569ZM99.2952 92.7009C99.2232 92.8449 99.1312 92.9969 99.0192 93.1569C98.9072 93.3089 98.7672 93.4489 98.5992 93.5769C98.4312 93.7049 98.2312 93.8089 97.9992 93.8889C97.7752 93.9689 97.5112 94.0089 97.2072 94.0089C96.6472 94.0089 96.1952 93.8529 95.8512 93.5409C95.5072 93.2209 95.3352 92.7649 95.3352 92.1729C95.3352 91.4929 95.5712 90.9929 96.0432 90.6729C96.5232 90.3529 97.2032 90.1929 98.0832 90.1929H99.2472V89.6769C99.2472 89.2449 99.1352 88.9369 98.9112 88.7529C98.6872 88.5689 98.3032 88.4769 97.7592 88.4769C97.3752 88.4769 97.0112 88.5409 96.6672 88.6689C96.3232 88.7889 96.0152 88.9289 95.7432 89.0889V88.1409C95.9672 88.0049 96.2672 87.8729 96.6432 87.7449C97.0272 87.6089 97.4472 87.5409 97.9032 87.5409C98.6872 87.5409 99.2832 87.7049 99.6912 88.0329C100.099 88.3529 100.303 88.8529 100.303 89.5329V92.8809C100.303 92.9529 100.303 93.0369 100.303 93.1329C100.311 93.2209 100.315 93.3129 100.315 93.4089C100.323 93.5049 100.331 93.5969 100.339 93.6849C100.347 93.7649 100.355 93.8329 100.363 93.8889H99.4032C99.3792 93.7769 99.3552 93.6209 99.3312 93.4209C99.3152 93.2129 99.3072 93.0329 99.3072 92.8809L99.2952 92.7009ZM97.4352 93.0609C97.7632 93.0609 98.0432 92.9929 98.2752 92.8569C98.5072 92.7209 98.6952 92.5649 98.8392 92.3889C98.9832 92.2049 99.0872 92.0289 99.1512 91.8609C99.2152 91.6849 99.2472 91.5609 99.2472 91.4889V91.0329H98.1912C97.5592 91.0329 97.0992 91.1249 96.8112 91.3089C96.5312 91.4849 96.3912 91.7529 96.3912 92.1129C96.3912 92.3929 96.4752 92.6209 96.6432 92.7969C96.8112 92.9729 97.0752 93.0609 97.4352 93.0609ZM109.74 93.8889H101.964V87.6609H103.02V92.9889H105.324V87.6609H106.38V92.9889H108.684V87.6609H109.74V93.8889ZM116.424 93.3609C116.336 93.4249 116.228 93.4929 116.1 93.5649C115.972 93.6369 115.816 93.7089 115.632 93.7809C115.448 93.8449 115.24 93.8969 115.008 93.9369C114.776 93.9849 114.516 94.0089 114.228 94.0089C113.18 94.0089 112.384 93.7249 111.84 93.1569C111.296 92.5889 111.024 91.7929 111.024 90.7689C111.024 90.2649 111.096 89.8129 111.24 89.4129C111.392 89.0129 111.6 88.6769 111.864 88.4049C112.128 88.1249 112.44 87.9129 112.8 87.7689C113.16 87.6169 113.552 87.5409 113.976 87.5409C114.424 87.5409 114.824 87.6169 115.176 87.7689C115.528 87.9209 115.816 88.1449 116.04 88.4409C116.272 88.7369 116.428 89.1049 116.508 89.5449C116.596 89.9769 116.596 90.4809 116.508 91.0569H112.116C112.156 91.7289 112.356 92.2329 112.716 92.5689C113.076 92.8969 113.612 93.0609 114.324 93.0609C114.804 93.0609 115.216 92.9929 115.56 92.8569C115.904 92.7209 116.192 92.5729 116.424 92.4129V93.3609ZM113.952 88.4769C113.496 88.4769 113.104 88.6169 112.776 88.8969C112.448 89.1769 112.24 89.6009 112.152 90.1689H115.5C115.532 89.5929 115.4 89.1689 115.104 88.8969C114.808 88.6169 114.424 88.4769 113.952 88.4769ZM121.993 91.1289H118.981V93.8889H117.925V87.6609H118.981V90.2289H121.993V87.6609H123.049V93.8889H121.993V91.1289ZM125.836 92.4489L129.16 87.6609H130.228V93.8889H129.172V89.1129L125.86 93.8889H124.78V87.6609H125.836V92.4489ZM131.952 89.6769C131.952 89.3249 132.016 89.0249 132.144 88.7769C132.272 88.5209 132.452 88.3129 132.684 88.1529C132.916 87.9849 133.192 87.8609 133.512 87.7809C133.832 87.7009 134.18 87.6609 134.556 87.6609H136.56V93.8889H135.504V91.6329H134.364L132.768 93.8889H131.508L133.308 91.3689C132.876 91.2409 132.54 91.0449 132.3 90.7809C132.068 90.5169 131.952 90.1489 131.952 89.6769ZM135.504 90.7329V88.5609H134.556C134.108 88.5609 133.74 88.6449 133.452 88.8129C133.164 88.9809 133.02 89.2529 133.02 89.6289C133.02 90.0209 133.148 90.3049 133.404 90.4809C133.66 90.6489 134.024 90.7329 134.496 90.7329H135.504Z" fill="#18123D"/>
<path d="M215 40C215 37.2386 217.239 35 220 35H350C352.761 35 355 37.2386 355 40V110C355 112.761 352.761 115 350 115H220C217.239 115 215 112.761 215 110V40Z" fill="#FCEAD1"/>
<path d="M265.165 77.4049C265.165 77.8049 265.089 78.1649 264.937 78.4849C264.785 78.8049 264.573 79.0809 264.301 79.3129C264.029 79.5369 263.705 79.7089 263.329 79.8289C262.953 79.9489 262.537 80.0089 262.081 80.0089C261.521 80.0089 261.037 79.9409 260.629 79.8049C260.221 79.6689 259.889 79.4929 259.633 79.2769V78.0769C259.889 78.3329 260.225 78.5569 260.641 78.7489C261.057 78.9329 261.541 79.0249 262.093 79.0249C262.685 79.0249 263.149 78.8849 263.485 78.6049C263.829 78.3249 264.001 77.9329 264.001 77.4289C264.001 76.9489 263.849 76.5769 263.545 76.3129C263.241 76.0409 262.765 75.9049 262.117 75.9049H261.013V74.8849H262.165C262.621 74.8849 262.989 74.7649 263.269 74.5249C263.549 74.2849 263.689 73.9369 263.689 73.4809C263.689 73.0729 263.557 72.7529 263.293 72.5209C263.029 72.2809 262.649 72.1609 262.153 72.1609C261.641 72.1609 261.201 72.2569 260.833 72.4489C260.473 72.6409 260.145 72.8649 259.849 73.1209V71.9449C260.129 71.7129 260.461 71.5249 260.845 71.3809C261.229 71.2369 261.669 71.1649 262.165 71.1649C262.573 71.1649 262.941 71.2209 263.269 71.3329C263.597 71.4369 263.873 71.5889 264.097 71.7889C264.329 71.9889 264.505 72.2289 264.625 72.5089C264.745 72.7809 264.805 73.0849 264.805 73.4209C264.805 73.6929 264.765 73.9369 264.685 74.1529C264.605 74.3689 264.493 74.5569 264.349 74.7169C264.213 74.8769 264.053 75.0129 263.869 75.1249C263.685 75.2289 263.489 75.3049 263.281 75.3529C263.529 75.3929 263.765 75.4689 263.989 75.5809C264.221 75.6929 264.425 75.8369 264.601 76.0129C264.777 76.1809 264.913 76.3849 265.009 76.6249C265.113 76.8569 265.165 77.1169 265.165 77.4049ZM271.883 77.0689C271.883 77.5089 271.807 77.9089 271.655 78.2689C271.511 78.6289 271.311 78.9409 271.055 79.2049C270.799 79.4609 270.495 79.6609 270.143 79.8049C269.799 79.9409 269.427 80.0089 269.027 80.0089C268.483 80.0089 268.019 79.9169 267.635 79.7329C267.259 79.5489 266.951 79.2929 266.711 78.9649C266.471 78.6289 266.295 78.2289 266.183 77.7649C266.071 77.3009 266.015 76.7929 266.015 76.2409C266.015 75.4889 266.083 74.8009 266.219 74.1769C266.355 73.5529 266.563 73.0209 266.843 72.5809C267.123 72.1329 267.479 71.7849 267.911 71.5369C268.351 71.2889 268.871 71.1649 269.471 71.1649C269.903 71.1649 270.259 71.2089 270.539 71.2969C270.819 71.3849 271.067 71.4889 271.283 71.6089V72.6769C270.763 72.3249 270.159 72.1489 269.471 72.1489C269.095 72.1489 268.767 72.2289 268.487 72.3889C268.207 72.5489 267.967 72.7689 267.767 73.0489C267.575 73.3209 267.423 73.6489 267.311 74.0329C267.199 74.4089 267.127 74.8129 267.095 75.2449C267.359 74.8849 267.663 74.6169 268.007 74.4409C268.351 74.2649 268.727 74.1769 269.135 74.1769C269.519 74.1769 269.879 74.2409 270.215 74.3689C270.551 74.4889 270.843 74.6729 271.091 74.9209C271.339 75.1689 271.531 75.4729 271.667 75.8329C271.811 76.1929 271.883 76.6049 271.883 77.0689ZM268.991 79.0489C269.223 79.0489 269.443 79.0089 269.651 78.9289C269.867 78.8409 270.055 78.7169 270.215 78.5569C270.375 78.3969 270.503 78.1969 270.599 77.9569C270.695 77.7089 270.743 77.4209 270.743 77.0929C270.743 76.7729 270.695 76.4889 270.599 76.2409C270.511 75.9929 270.387 75.7849 270.227 75.6169C270.075 75.4489 269.899 75.3249 269.699 75.2449C269.507 75.1569 269.311 75.1129 269.111 75.1129C268.847 75.1129 268.599 75.1569 268.367 75.2449C268.143 75.3329 267.947 75.4609 267.779 75.6289C267.619 75.7969 267.491 76.0049 267.395 76.2529C267.299 76.5009 267.251 76.7889 267.251 77.1169C267.251 77.6929 267.407 78.1609 267.719 78.5209C268.031 78.8729 268.455 79.0489 268.991 79.0489ZM278.145 77.0449C278.145 77.4929 278.073 77.9009 277.929 78.2689C277.793 78.6289 277.593 78.9409 277.329 79.2049C277.073 79.4609 276.757 79.6609 276.381 79.8049C276.013 79.9409 275.601 80.0089 275.145 80.0089C274.633 80.0089 274.189 79.9569 273.813 79.8529C273.437 79.7409 273.117 79.5889 272.853 79.3969V78.2209C273.125 78.4449 273.437 78.6369 273.789 78.7969C274.149 78.9489 274.601 79.0249 275.145 79.0249C275.737 79.0249 276.193 78.8449 276.513 78.4849C276.841 78.1249 277.005 77.6529 277.005 77.0689C277.005 76.4449 276.845 75.9889 276.525 75.7009C276.205 75.4129 275.801 75.2689 275.313 75.2689C274.953 75.2689 274.665 75.3289 274.449 75.4489C274.241 75.5609 274.081 75.6809 273.969 75.8089H273.093V71.2849H277.749V72.3169H274.077V74.7769C274.237 74.6569 274.433 74.5529 274.665 74.4649C274.897 74.3689 275.173 74.3209 275.493 74.3209C275.861 74.3209 276.205 74.3809 276.525 74.5009C276.853 74.6129 277.137 74.7849 277.377 75.0169C277.617 75.2409 277.805 75.5249 277.941 75.8689C278.077 76.2049 278.145 76.5969 278.145 77.0449ZM281.979 78.9889C282.203 78.8529 282.379 78.6409 282.507 78.3529C282.635 78.0649 282.735 77.7009 282.807 77.2609C282.879 76.8209 282.927 76.3009 282.951 75.7009C282.983 75.1009 283.011 74.4209 283.035 73.6609H287.319V78.9889H288.255V81.6649H287.331L287.199 79.8889H282.567L282.459 81.6649H281.511V78.9889H281.979ZM286.263 78.9889V74.5609H283.983C283.943 75.7369 283.867 76.6809 283.755 77.3929C283.651 78.0969 283.467 78.6289 283.203 78.9889H286.263ZM293.426 77.1289H290.414V79.8889H289.358V73.6609H290.414V76.2289H293.426V73.6609H294.482V79.8889H293.426V77.1289ZM301.17 79.3609C301.082 79.4249 300.974 79.4929 300.846 79.5649C300.718 79.6369 300.562 79.7089 300.378 79.7809C300.194 79.8449 299.986 79.8969 299.754 79.9369C299.522 79.9849 299.262 80.0089 298.974 80.0089C297.926 80.0089 297.13 79.7249 296.586 79.1569C296.042 78.5889 295.77 77.7929 295.77 76.7689C295.77 76.2649 295.842 75.8129 295.986 75.4129C296.138 75.0129 296.346 74.6769 296.61 74.4049C296.874 74.1249 297.186 73.9129 297.546 73.7689C297.906 73.6169 298.298 73.5409 298.722 73.5409C299.17 73.5409 299.57 73.6169 299.922 73.7689C300.274 73.9209 300.562 74.1449 300.786 74.4409C301.018 74.7369 301.174 75.1049 301.254 75.5449C301.342 75.9769 301.342 76.4809 301.254 77.0569H296.862C296.902 77.7289 297.102 78.2329 297.462 78.5689C297.822 78.8969 298.358 79.0609 299.07 79.0609C299.55 79.0609 299.962 78.9929 300.306 78.8569C300.65 78.7209 300.938 78.5729 301.17 78.4129V79.3609ZM298.698 74.4769C298.242 74.4769 297.85 74.6169 297.522 74.8969C297.194 75.1769 296.986 75.6009 296.898 76.1689H300.246C300.278 75.5929 300.146 75.1689 299.85 74.8969C299.554 74.6169 299.17 74.4769 298.698 74.4769ZM305.419 72.8329C305.099 72.8329 304.819 72.7929 304.579 72.7129C304.347 72.6249 304.151 72.5089 303.991 72.3649C303.839 72.2129 303.723 72.0409 303.643 71.8489C303.571 71.6489 303.535 71.4329 303.535 71.2009H304.591C304.591 71.5049 304.663 71.7249 304.807 71.8609C304.959 71.9969 305.163 72.0649 305.419 72.0649C305.675 72.0649 305.875 71.9969 306.019 71.8609C306.163 71.7249 306.235 71.5049 306.235 71.2009H307.291C307.291 71.6569 307.135 72.0449 306.823 72.3649C306.519 72.6769 306.051 72.8329 305.419 72.8329ZM303.727 78.4489L307.051 73.6609H308.119V79.8889H307.063V75.1129L303.751 79.8889H302.671V73.6609H303.727V78.4489Z" fill="#18123D"/>
<path d="M194.978 72.432C194.61 72.432 194.306 72.312 194.066 72.072C193.826 71.816 193.706 71.512 193.706 71.16C193.706 70.792 193.826 70.488 194.066 70.248C194.306 70.008 194.61 69.888 194.978 69.888C195.362 69.888 195.666 70.008 195.89 70.248C196.13 70.488 196.25 70.792 196.25 71.16C196.25 71.512 196.13 71.816 195.89 72.072C195.666 72.312 195.362 72.432 194.978 72.432ZM189.434 76.56V75.264H200.546V76.56H189.434ZM194.978 81.936C194.61 81.936 194.306 81.816 194.066 81.576C193.826 81.32 193.706 81.016 193.706 80.664C193.706 80.296 193.826 79.992 194.066 79.752C194.306 79.512 194.61 79.392 194.978 79.392C195.362 79.392 195.666 79.512 195.89 79.752C196.13 79.992 196.25 80.296 196.25 80.664C196.25 81.016 196.13 81.32 195.89 81.576C195.666 81.816 195.362 81.936 194.978 81.936Z" fill="#18123D"/>
<path d="M383.422 74.184V72.888H394.534V74.184H383.422ZM383.422 78.936V77.64H394.534V78.936H383.422Z" fill="#18123D"/>
<defs>
<filter id="filter0_d" x="10" y="10" width="370" height="130" filterUnits="userSpaceOnUse" color-interpolation-filters="sRGB">
<feFlood flood-opacity="0" result="BackgroundImageFix"/>
<feColorMatrix in="SourceAlpha" type="matrix" values="0 0 0 0 0 0 0 0 0 0 0 0 0 0 0 0 0 0 127 0"/>
<feOffset/>
<feGaussianBlur stdDeviation="7.5"/>
<feColorMatrix type="matrix" values="0 0 0 0 0.592157 0 0 0 0 0.74902 0 0 0 0 0.905882 0 0 0 0.4 0"/>
<feBlend mode="normal" in2="BackgroundImageFix" result="effect1_dropShadow"/>
<feBlend mode="normal" in="SourceGraphic" in2="effect1_dropShadow" result="shape"/>
</filter>
</defs>
</svg>
