<svg width="485" height="130" viewBox="0 0 485 130" fill="none" xmlns="http://www.w3.org/2000/svg">
<path d="M445 105C467.091 105 485 87.0914 485 65C485 42.9086 467.091 25 445 25C422.909 25 405 42.9086 405 65C405 87.0914 422.909 105 445 105Z" fill="#D1D0D8"/>
<path d="M429.344 55.12C428.704 55.12 428.124 55.02 427.604 54.82C427.084 54.62 426.636 54.332 426.26 53.956C425.892 53.572 425.608 53.108 425.408 52.564C425.208 52.012 425.108 51.392 425.108 50.704C425.108 50.008 425.2 49.388 425.384 48.844C425.568 48.3 425.84 47.84 426.2 47.464C426.56 47.08 427 46.788 427.52 46.588C428.048 46.388 428.648 46.288 429.32 46.288C429.904 46.288 430.416 46.352 430.856 46.48C431.296 46.6 431.656 46.744 431.936 46.912V47.992C431.576 47.76 431.16 47.588 430.688 47.476C430.224 47.364 429.764 47.308 429.308 47.308C428.292 47.308 427.54 47.592 427.052 48.16C426.572 48.72 426.332 49.568 426.332 50.704C426.332 51.848 426.592 52.7 427.112 53.26C427.64 53.82 428.416 54.1 429.44 54.1C429.88 54.1 430.308 54.04 430.724 53.92C431.148 53.8 431.552 53.596 431.936 53.308V54.388C431.704 54.572 431.364 54.74 430.916 54.892C430.476 55.044 429.952 55.12 429.344 55.12ZM436.52 54.928C436.376 55.304 436.224 55.632 436.064 55.912C435.904 56.2 435.724 56.444 435.524 56.644C435.324 56.844 435.1 56.992 434.852 57.088C434.604 57.192 434.32 57.244 434 57.244C433.84 57.244 433.692 57.232 433.556 57.208C433.42 57.192 433.296 57.16 433.184 57.112V56.092C433.272 56.156 433.384 56.204 433.52 56.236C433.656 56.276 433.804 56.296 433.964 56.296C434.26 56.296 434.504 56.224 434.696 56.08C434.888 55.944 435.072 55.724 435.248 55.42L432.716 48.772H433.88L435.86 54.028L437.828 48.772H438.848L436.52 54.928ZM445.833 49.996L443.721 54.304H442.881L440.889 49.972V55H439.893V48.772H441.465L443.373 52.948L445.413 48.772H446.877V55H445.833V49.996ZM454.54 49.996L452.428 54.304H451.588L449.596 49.972V55H448.6V48.772H450.172L452.08 52.948L454.12 48.772H455.584V55H454.54V49.996ZM460.955 53.812C460.883 53.956 460.791 54.108 460.679 54.268C460.567 54.42 460.427 54.56 460.259 54.688C460.091 54.816 459.891 54.92 459.659 55C459.435 55.08 459.171 55.12 458.867 55.12C458.307 55.12 457.855 54.964 457.511 54.652C457.167 54.332 456.995 53.876 456.995 53.284C456.995 52.604 457.231 52.104 457.703 51.784C458.183 51.464 458.863 51.304 459.743 51.304H460.907V50.788C460.907 50.356 460.795 50.048 460.571 49.864C460.347 49.68 459.963 49.588 459.419 49.588C459.035 49.588 458.671 49.652 458.327 49.78C457.983 49.9 457.675 50.04 457.403 50.2V49.252C457.627 49.116 457.927 48.984 458.303 48.856C458.687 48.72 459.107 48.652 459.563 48.652C460.347 48.652 460.943 48.816 461.351 49.144C461.759 49.464 461.963 49.964 461.963 50.644V53.992C461.963 54.064 461.963 54.148 461.963 54.244C461.971 54.332 461.975 54.424 461.975 54.52C461.983 54.616 461.991 54.708 461.999 54.796C462.007 54.876 462.015 54.944 462.023 55H461.063C461.039 54.888 461.015 54.732 460.991 54.532C460.975 54.324 460.967 54.144 460.967 53.992L460.955 53.812ZM459.095 54.172C459.423 54.172 459.703 54.104 459.935 53.968C460.167 53.832 460.355 53.676 460.499 53.5C460.643 53.316 460.747 53.14 460.811 52.972C460.875 52.796 460.907 52.672 460.907 52.6V52.144H459.851C459.219 52.144 458.759 52.236 458.471 52.42C458.191 52.596 458.051 52.864 458.051 53.224C458.051 53.504 458.135 53.732 458.303 53.908C458.471 54.084 458.735 54.172 459.095 54.172ZM420.948 69.12C420.468 69.12 420.032 69.048 419.64 68.904C419.256 68.752 418.928 68.54 418.656 68.268C418.384 67.988 418.176 67.648 418.032 67.248C417.888 66.848 417.816 66.392 417.816 65.88C417.816 65.376 417.888 64.924 418.032 64.524C418.184 64.124 418.396 63.788 418.668 63.516C418.94 63.236 419.272 63.024 419.664 62.88C420.056 62.728 420.5 62.652 420.996 62.652C421.38 62.652 421.732 62.696 422.052 62.784C422.372 62.864 422.636 62.984 422.844 63.144V64.092C422.588 63.924 422.3 63.8 421.98 63.72C421.668 63.632 421.344 63.588 421.008 63.588C420.28 63.588 419.744 63.776 419.4 64.152C419.064 64.528 418.896 65.104 418.896 65.88C418.896 66.656 419.06 67.232 419.388 67.608C419.716 67.984 420.236 68.172 420.948 68.172C421.324 68.172 421.668 68.128 421.98 68.04C422.3 67.944 422.588 67.824 422.844 67.68V68.628C422.62 68.764 422.348 68.88 422.028 68.976C421.716 69.072 421.356 69.12 420.948 69.12ZM424.26 62.772H429.252V69H428.196V63.672H425.316V69H424.26V62.772ZM432.031 67.56L435.355 62.772H436.423V69H435.367V64.224L432.055 69H430.975V62.772H432.031V67.56ZM440.835 69.12C440.355 69.12 439.919 69.048 439.527 68.904C439.143 68.752 438.815 68.54 438.543 68.268C438.271 67.988 438.063 67.648 437.919 67.248C437.775 66.848 437.703 66.392 437.703 65.88C437.703 65.376 437.775 64.924 437.919 64.524C438.071 64.124 438.283 63.788 438.555 63.516C438.827 63.236 439.159 63.024 439.551 62.88C439.943 62.728 440.387 62.652 440.883 62.652C441.267 62.652 441.619 62.696 441.939 62.784C442.259 62.864 442.523 62.984 442.731 63.144V64.092C442.475 63.924 442.187 63.8 441.867 63.72C441.555 63.632 441.231 63.588 440.895 63.588C440.167 63.588 439.631 63.776 439.287 64.152C438.951 64.528 438.783 65.104 438.783 65.88C438.783 66.656 438.947 67.232 439.275 67.608C439.603 67.984 440.123 68.172 440.835 68.172C441.211 68.172 441.555 68.128 441.867 68.04C442.187 67.944 442.475 67.824 442.731 67.68V68.628C442.507 68.764 442.235 68.88 441.915 68.976C441.603 69.072 441.243 69.12 440.835 69.12ZM447.795 67.812C447.723 67.956 447.631 68.108 447.519 68.268C447.407 68.42 447.267 68.56 447.099 68.688C446.931 68.816 446.731 68.92 446.499 69C446.275 69.08 446.011 69.12 445.707 69.12C445.147 69.12 444.695 68.964 444.351 68.652C444.007 68.332 443.835 67.876 443.835 67.284C443.835 66.604 444.071 66.104 444.543 65.784C445.023 65.464 445.703 65.304 446.583 65.304H447.747V64.788C447.747 64.356 447.635 64.048 447.411 63.864C447.187 63.68 446.803 63.588 446.259 63.588C445.875 63.588 445.511 63.652 445.167 63.78C444.823 63.9 444.515 64.04 444.243 64.2V63.252C444.467 63.116 444.767 62.984 445.143 62.856C445.527 62.72 445.947 62.652 446.403 62.652C447.187 62.652 447.783 62.816 448.191 63.144C448.599 63.464 448.803 63.964 448.803 64.644V67.992C448.803 68.064 448.803 68.148 448.803 68.244C448.811 68.332 448.815 68.424 448.815 68.52C448.823 68.616 448.831 68.708 448.839 68.796C448.847 68.876 448.855 68.944 448.863 69H447.903C447.879 68.888 447.855 68.732 447.831 68.532C447.815 68.324 447.807 68.144 447.807 67.992L447.795 67.812ZM445.935 68.172C446.263 68.172 446.543 68.104 446.775 67.968C447.007 67.832 447.195 67.676 447.339 67.5C447.483 67.316 447.587 67.14 447.651 66.972C447.715 66.796 447.747 66.672 447.747 66.6V66.144H446.691C446.059 66.144 445.599 66.236 445.311 66.42C445.031 66.596 444.891 66.864 444.891 67.224C444.891 67.504 444.975 67.732 445.143 67.908C445.311 68.084 445.575 68.172 445.935 68.172ZM454.532 66.24H451.52V69H450.464V62.772H451.52V65.34H454.532V62.772H455.588V69H454.532V66.24ZM458.375 67.56L461.699 62.772H462.767V69H461.711V64.224L458.399 69H457.319V62.772H458.375V67.56ZM464.491 64.788C464.491 64.436 464.555 64.136 464.683 63.888C464.811 63.632 464.991 63.424 465.223 63.264C465.455 63.096 465.731 62.972 466.051 62.892C466.371 62.812 466.719 62.772 467.095 62.772H469.099V69H468.043V66.744H466.903L465.307 69H464.047L465.847 66.48C465.415 66.352 465.079 66.156 464.839 65.892C464.607 65.628 464.491 65.26 464.491 64.788ZM468.043 65.844V63.672H467.095C466.647 63.672 466.279 63.756 465.991 63.924C465.703 64.092 465.559 64.364 465.559 64.74C465.559 65.132 465.687 65.416 465.943 65.592C466.199 65.76 466.563 65.844 467.035 65.844H468.043ZM428.216 76.772H430.544C431.296 76.772 431.864 76.904 432.248 77.168C432.632 77.424 432.824 77.828 432.824 78.38C432.824 78.748 432.728 79.044 432.536 79.268C432.352 79.484 432.088 79.64 431.744 79.736C432.632 79.88 433.076 80.372 433.076 81.212C433.076 81.532 433.012 81.808 432.884 82.04C432.756 82.264 432.58 82.448 432.356 82.592C432.132 82.736 431.86 82.84 431.54 82.904C431.228 82.968 430.888 83 430.52 83H428.216V76.772ZM429.272 77.672V79.364H430.448C430.848 79.364 431.168 79.292 431.408 79.148C431.656 79.004 431.78 78.796 431.78 78.524C431.78 78.196 431.672 77.972 431.456 77.852C431.24 77.732 430.932 77.672 430.532 77.672H429.272ZM429.272 80.204V82.1H430.508C430.732 82.1 430.932 82.088 431.108 82.064C431.292 82.032 431.448 81.98 431.576 81.908C431.712 81.836 431.816 81.74 431.888 81.62C431.96 81.5 431.996 81.352 431.996 81.176C431.996 80.816 431.872 80.564 431.624 80.42C431.376 80.276 431.004 80.204 430.508 80.204H429.272ZM436.962 82.1C437.186 81.964 437.362 81.752 437.49 81.464C437.618 81.176 437.718 80.812 437.79 80.372C437.862 79.932 437.91 79.412 437.934 78.812C437.966 78.212 437.994 77.532 438.018 76.772H442.302V82.1H443.238V84.776H442.314L442.182 83H437.55L437.442 84.776H436.494V82.1H436.962ZM441.246 82.1V77.672H438.966C438.926 78.848 438.85 79.792 438.738 80.504C438.634 81.208 438.45 81.74 438.186 82.1H441.246ZM449.179 82.472C449.091 82.536 448.983 82.604 448.855 82.676C448.727 82.748 448.571 82.82 448.387 82.892C448.203 82.956 447.995 83.008 447.763 83.048C447.531 83.096 447.271 83.12 446.983 83.12C445.935 83.12 445.139 82.836 444.595 82.268C444.051 81.7 443.779 80.904 443.779 79.88C443.779 79.376 443.851 78.924 443.995 78.524C444.147 78.124 444.355 77.788 444.619 77.516C444.883 77.236 445.195 77.024 445.555 76.88C445.915 76.728 446.307 76.652 446.731 76.652C447.179 76.652 447.579 76.728 447.931 76.88C448.283 77.032 448.571 77.256 448.795 77.552C449.027 77.848 449.183 78.216 449.263 78.656C449.351 79.088 449.351 79.592 449.263 80.168H444.871C444.911 80.84 445.111 81.344 445.471 81.68C445.831 82.008 446.367 82.172 447.079 82.172C447.559 82.172 447.971 82.104 448.315 81.968C448.659 81.832 448.947 81.684 449.179 81.524V82.472ZM446.707 77.588C446.251 77.588 445.859 77.728 445.531 78.008C445.203 78.288 444.995 78.712 444.907 79.28H448.255C448.287 78.704 448.155 78.28 447.859 78.008C447.563 77.728 447.179 77.588 446.707 77.588ZM454.748 80.24H451.736V83H450.68V76.772H451.736V79.34H454.748V76.772H455.804V83H454.748V80.24ZM462.168 80.924C462.168 81.284 462.104 81.596 461.976 81.86C461.848 82.124 461.668 82.34 461.436 82.508C461.204 82.676 460.928 82.8 460.608 82.88C460.288 82.96 459.94 83 459.564 83H457.5V76.772H458.556V78.944H459.636C460.428 78.944 461.048 79.1 461.496 79.412C461.944 79.724 462.168 80.228 462.168 80.924ZM458.556 79.844V82.1H459.564C460.02 82.1 460.388 82.016 460.668 81.848C460.956 81.672 461.1 81.384 461.1 80.984C461.1 80.576 460.972 80.284 460.716 80.108C460.46 79.932 460.1 79.844 459.636 79.844H458.556Z" fill="black"/>
<g filter="url(#filter0_d)">
<path d="M340 15H30C21.7157 15 15 21.7157 15 30V100C15 108.284 21.7157 115 30 115H340C348.284 115 355 108.284 355 100V30C355 21.7157 348.284 15 340 15Z" fill="white"/>
</g>
<path d="M25 30C25 27.2386 27.2386 25 30 25H160C162.761 25 165 27.2386 165 30V100C165 102.761 162.761 105 160 105H30C27.2386 105 25 102.761 25 100V30Z" fill="#DAEEF9"/>
<path d="M63.0271 56.0089C62.3871 56.0089 61.8071 55.9089 61.2871 55.7089C60.7671 55.5089 60.3191 55.2209 59.9431 54.8449C59.5751 54.4609 59.2911 53.9969 59.0911 53.4529C58.8911 52.9009 58.7911 52.2809 58.7911 51.5929C58.7911 50.8969 58.8831 50.2769 59.0671 49.7329C59.2511 49.1889 59.5231 48.7289 59.8831 48.3529C60.2431 47.9689 60.6831 47.6769 61.2031 47.4769C61.7311 47.2769 62.3311 47.1769 63.0031 47.1769C63.5871 47.1769 64.0991 47.2409 64.5391 47.3689C64.9791 47.4889 65.3391 47.6329 65.6191 47.8009V48.8809C65.2591 48.6489 64.8431 48.4769 64.3711 48.3649C63.9071 48.2529 63.4471 48.1969 62.9911 48.1969C61.9751 48.1969 61.2231 48.4809 60.7351 49.0489C60.2551 49.6089 60.0151 50.4569 60.0151 51.5929C60.0151 52.7369 60.2751 53.5889 60.7951 54.1489C61.3231 54.7089 62.0991 54.9889 63.1231 54.9889C63.5631 54.9889 63.9911 54.9289 64.4071 54.8089C64.8311 54.6889 65.2351 54.4849 65.6191 54.1969V55.2769C65.3871 55.4609 65.0471 55.6289 64.5991 55.7809C64.1591 55.9329 63.6351 56.0089 63.0271 56.0089ZM70.2033 55.8169C70.0593 56.1929 69.9073 56.5209 69.7473 56.8009C69.5873 57.0889 69.4073 57.3329 69.2073 57.5329C69.0073 57.7329 68.7833 57.8809 68.5353 57.9769C68.2873 58.0809 68.0033 58.1329 67.6833 58.1329C67.5233 58.1329 67.3753 58.1209 67.2393 58.0969C67.1033 58.0809 66.9793 58.0489 66.8673 58.0009V56.9809C66.9553 57.0449 67.0673 57.0929 67.2033 57.1249C67.3393 57.1649 67.4873 57.1849 67.6473 57.1849C67.9433 57.1849 68.1873 57.1129 68.3793 56.9689C68.5713 56.8329 68.7553 56.6129 68.9313 56.3089L66.3993 49.6609H67.5633L69.5433 54.9169L71.5113 49.6609H72.5313L70.2033 55.8169ZM79.5169 50.8849L77.4049 55.1929H76.5649L74.5729 50.8609V55.8889H73.5769V49.6609H75.1489L77.0569 53.8369L79.0969 49.6609H80.5609V55.8889H79.5169V50.8849ZM88.2239 50.8849L86.1119 55.1929H85.2719L83.2799 50.8609V55.8889H82.2839V49.6609H83.8559L85.7639 53.8369L87.8039 49.6609H89.2679V55.8889H88.2239V50.8849ZM94.639 54.7009C94.567 54.8449 94.475 54.9969 94.363 55.1569C94.251 55.3089 94.111 55.4489 93.943 55.5769C93.775 55.7049 93.575 55.8089 93.343 55.8889C93.119 55.9689 92.855 56.0089 92.551 56.0089C91.991 56.0089 91.539 55.8529 91.195 55.5409C90.851 55.2209 90.679 54.7649 90.679 54.1729C90.679 53.4929 90.915 52.9929 91.387 52.6729C91.867 52.3529 92.547 52.1929 93.427 52.1929H94.591V51.6769C94.591 51.2449 94.479 50.9369 94.255 50.7529C94.031 50.5689 93.647 50.4769 93.103 50.4769C92.719 50.4769 92.355 50.5409 92.011 50.6689C91.667 50.7889 91.359 50.9289 91.087 51.0889V50.1409C91.311 50.0049 91.611 49.8729 91.987 49.7449C92.371 49.6089 92.791 49.5409 93.247 49.5409C94.031 49.5409 94.627 49.7049 95.035 50.0329C95.443 50.3529 95.647 50.8529 95.647 51.5329V54.8809C95.647 54.9529 95.647 55.0369 95.647 55.1329C95.655 55.2209 95.659 55.3129 95.659 55.4089C95.667 55.5049 95.675 55.5969 95.683 55.6849C95.691 55.7649 95.699 55.8329 95.707 55.8889H94.747C94.723 55.7769 94.699 55.6209 94.675 55.4209C94.659 55.2129 94.651 55.0329 94.651 54.8809L94.639 54.7009ZM92.779 55.0609C93.107 55.0609 93.387 54.9929 93.619 54.8569C93.851 54.7209 94.039 54.5649 94.183 54.3889C94.327 54.2049 94.431 54.0289 94.495 53.8609C94.559 53.6849 94.591 53.5609 94.591 53.4889V53.0329H93.535C92.903 53.0329 92.443 53.1249 92.155 53.3089C91.875 53.4849 91.735 53.7529 91.735 54.1129C91.735 54.3929 91.819 54.6209 91.987 54.7969C92.155 54.9729 92.419 55.0609 92.779 55.0609ZM99.9441 49.6609H102.272C103.024 49.6609 103.592 49.7929 103.976 50.0569C104.36 50.3129 104.552 50.7169 104.552 51.2689C104.552 51.6369 104.456 51.9329 104.264 52.1569C104.08 52.3729 103.816 52.5289 103.472 52.6249C104.36 52.7689 104.804 53.2609 104.804 54.1009C104.804 54.4209 104.74 54.6969 104.612 54.9289C104.484 55.1529 104.308 55.3369 104.084 55.4809C103.86 55.6249 103.588 55.7289 103.268 55.7929C102.956 55.8569 102.616 55.8889 102.248 55.8889H99.9441V49.6609ZM101 50.5609V52.2529H102.176C102.576 52.2529 102.896 52.1809 103.136 52.0369C103.384 51.8929 103.508 51.6849 103.508 51.4129C103.508 51.0849 103.4 50.8609 103.184 50.7409C102.968 50.6209 102.66 50.5609 102.26 50.5609H101ZM101 53.0929V54.9889H102.236C102.46 54.9889 102.66 54.9769 102.836 54.9529C103.02 54.9209 103.176 54.8689 103.304 54.7969C103.44 54.7249 103.544 54.6289 103.616 54.5089C103.688 54.3889 103.724 54.2409 103.724 54.0649C103.724 53.7049 103.6 53.4529 103.352 53.3089C103.104 53.1649 102.732 53.0929 102.236 53.0929H101ZM109.026 49.6609H112.986V50.5609H110.082V55.8889H109.026V49.6609ZM116.645 56.0089C116.221 56.0089 115.825 55.9369 115.457 55.7929C115.089 55.6489 114.769 55.4409 114.497 55.1689C114.233 54.8889 114.025 54.5489 113.873 54.1489C113.721 53.7489 113.645 53.2889 113.645 52.7689C113.645 52.2569 113.721 51.8009 113.873 51.4009C114.025 50.9929 114.233 50.6529 114.497 50.3809C114.769 50.1089 115.089 49.9009 115.457 49.7569C115.825 49.6129 116.221 49.5409 116.645 49.5409C117.077 49.5409 117.477 49.6129 117.845 49.7569C118.213 49.9009 118.529 50.1089 118.793 50.3809C119.065 50.6529 119.277 50.9929 119.429 51.4009C119.589 51.8009 119.669 52.2569 119.669 52.7689C119.669 53.2889 119.589 53.7489 119.429 54.1489C119.277 54.5489 119.065 54.8889 118.793 55.1689C118.529 55.4409 118.213 55.6489 117.845 55.7929C117.477 55.9369 117.077 56.0089 116.645 56.0089ZM116.645 55.0609C116.925 55.0609 117.181 55.0169 117.413 54.9289C117.653 54.8329 117.861 54.6929 118.037 54.5089C118.213 54.3169 118.349 54.0769 118.445 53.7889C118.541 53.5009 118.589 53.1609 118.589 52.7689C118.589 52.3769 118.541 52.0369 118.445 51.7489C118.349 51.4609 118.213 51.2249 118.037 51.0409C117.861 50.8489 117.653 50.7089 117.413 50.6209C117.181 50.5249 116.925 50.4769 116.645 50.4769C116.365 50.4769 116.109 50.5249 115.877 50.6209C115.645 50.7089 115.441 50.8489 115.265 51.0409C115.097 51.2249 114.965 51.4609 114.869 51.7489C114.773 52.0369 114.725 52.3769 114.725 52.7689C114.725 53.1609 114.773 53.5009 114.869 53.7889C114.965 54.0769 115.097 54.3169 115.265 54.5089C115.441 54.6929 115.645 54.8329 115.877 54.9289C116.109 55.0169 116.365 55.0609 116.645 55.0609ZM120.561 54.9889C120.785 54.8529 120.961 54.6409 121.089 54.3529C121.217 54.0649 121.317 53.7009 121.389 53.2609C121.461 52.8209 121.509 52.3009 121.533 51.7009C121.565 51.1009 121.593 50.4209 121.617 49.6609H125.901V54.9889H126.837V57.6649H125.913L125.781 55.8889H121.149L121.041 57.6649H120.093V54.9889H120.561ZM124.845 54.9889V50.5609H122.565C122.525 51.7369 122.449 52.6809 122.337 53.3929C122.233 54.0969 122.049 54.6289 121.785 54.9889H124.845ZM59.5085 63.6609H64.5005V69.8889H63.4445V64.5609H60.5645V69.8889H59.5085V63.6609ZM68.7794 70.0089C68.3554 70.0089 67.9594 69.9369 67.5914 69.7929C67.2234 69.6489 66.9034 69.4409 66.6314 69.1689C66.3674 68.8889 66.1594 68.5489 66.0074 68.1489C65.8554 67.7489 65.7794 67.2889 65.7794 66.7689C65.7794 66.2569 65.8554 65.8009 66.0074 65.4009C66.1594 64.9929 66.3674 64.6529 66.6314 64.3809C66.9034 64.1089 67.2234 63.9009 67.5914 63.7569C67.9594 63.6129 68.3554 63.5409 68.7794 63.5409C69.2114 63.5409 69.6114 63.6129 69.9794 63.7569C70.3474 63.9009 70.6634 64.1089 70.9274 64.3809C71.1994 64.6529 71.4114 64.9929 71.5634 65.4009C71.7234 65.8009 71.8034 66.2569 71.8034 66.7689C71.8034 67.2889 71.7234 67.7489 71.5634 68.1489C71.4114 68.5489 71.1994 68.8889 70.9274 69.1689C70.6634 69.4409 70.3474 69.6489 69.9794 69.7929C69.6114 69.9369 69.2114 70.0089 68.7794 70.0089ZM68.7794 69.0609C69.0594 69.0609 69.3154 69.0169 69.5474 68.9289C69.7874 68.8329 69.9954 68.6929 70.1714 68.5089C70.3474 68.3169 70.4834 68.0769 70.5794 67.7889C70.6754 67.5009 70.7234 67.1609 70.7234 66.7689C70.7234 66.3769 70.6754 66.0369 70.5794 65.7489C70.4834 65.4609 70.3474 65.2249 70.1714 65.0409C69.9954 64.8489 69.7874 64.7089 69.5474 64.6209C69.3154 64.5249 69.0594 64.4769 68.7794 64.4769C68.4994 64.4769 68.2434 64.5249 68.0114 64.6209C67.7794 64.7089 67.5754 64.8489 67.3994 65.0409C67.2314 65.2249 67.0994 65.4609 67.0034 65.7489C66.9074 66.0369 66.8594 66.3769 66.8594 66.7689C66.8594 67.1609 66.9074 67.5009 67.0034 67.7889C67.0994 68.0769 67.2314 68.3169 67.3994 68.5089C67.5754 68.6929 67.7794 68.8329 68.0114 68.9289C68.2434 69.0169 68.4994 69.0609 68.7794 69.0609ZM78.7873 69.8169C78.6433 70.1929 78.4913 70.5209 78.3313 70.8009C78.1713 71.0889 77.9913 71.3329 77.7913 71.5329C77.5913 71.7329 77.3673 71.8809 77.1193 71.9769C76.8713 72.0809 76.5873 72.1329 76.2673 72.1329C76.1073 72.1329 75.9593 72.1209 75.8233 72.0969C75.6873 72.0809 75.5633 72.0489 75.4513 72.0009V70.9809C75.5393 71.0449 75.6513 71.0929 75.7873 71.1249C75.9233 71.1649 76.0713 71.1849 76.2313 71.1849C76.5273 71.1849 76.7713 71.1129 76.9633 70.9689C77.1553 70.8329 77.3393 70.6129 77.5153 70.3089L74.9833 63.6609H76.1473L78.1273 68.9169L80.0953 63.6609H81.1153L78.7873 69.8169ZM84.7317 70.0089C84.2517 70.0089 83.8157 69.9369 83.4237 69.7929C83.0397 69.6409 82.7117 69.4289 82.4397 69.1569C82.1677 68.8769 81.9597 68.5369 81.8157 68.1369C81.6717 67.7369 81.5997 67.2809 81.5997 66.7689C81.5997 66.2649 81.6717 65.8129 81.8157 65.4129C81.9677 65.0129 82.1797 64.6769 82.4517 64.4049C82.7237 64.1249 83.0557 63.9129 83.4477 63.7689C83.8397 63.6169 84.2837 63.5409 84.7797 63.5409C85.1637 63.5409 85.5157 63.5849 85.8357 63.6729C86.1557 63.7529 86.4197 63.8729 86.6277 64.0329V64.9809C86.3717 64.8129 86.0837 64.6889 85.7637 64.6089C85.4517 64.5209 85.1277 64.4769 84.7917 64.4769C84.0637 64.4769 83.5277 64.6649 83.1837 65.0409C82.8477 65.4169 82.6797 65.9929 82.6797 66.7689C82.6797 67.5449 82.8437 68.1209 83.1717 68.4969C83.4997 68.8729 84.0197 69.0609 84.7317 69.0609C85.1077 69.0609 85.4517 69.0169 85.7637 68.9289C86.0837 68.8329 86.3717 68.7129 86.6277 68.5689V69.5169C86.4037 69.6529 86.1317 69.7689 85.8117 69.8649C85.4997 69.9609 85.1397 70.0089 84.7317 70.0089ZM88.5237 67.9569C88.6357 67.5489 88.7077 66.9969 88.7397 66.3009C88.7717 65.6049 88.7877 64.7249 88.7877 63.6609H92.9757V69.8889H91.9077V64.5609H89.7837C89.7757 65.4169 89.7477 66.1769 89.6997 66.8409C89.6597 67.5049 89.5677 68.0649 89.4237 68.5209C89.2877 68.9769 89.0837 69.3249 88.8117 69.5649C88.5477 69.7969 88.1917 69.9129 87.7437 69.9129C87.7117 69.9129 87.6797 69.9129 87.6477 69.9129C87.6157 69.9129 87.5797 69.9089 87.5397 69.9009V68.8569C87.5797 68.8649 87.6317 68.8689 87.6957 68.8689C88.1037 68.8689 88.3797 68.5649 88.5237 67.9569ZM97.2442 70.0089C96.8202 70.0089 96.4242 69.9369 96.0562 69.7929C95.6882 69.6489 95.3682 69.4409 95.0962 69.1689C94.8322 68.8889 94.6242 68.5489 94.4722 68.1489C94.3202 67.7489 94.2442 67.2889 94.2442 66.7689C94.2442 66.2569 94.3202 65.8009 94.4722 65.4009C94.6242 64.9929 94.8322 64.6529 95.0962 64.3809C95.3682 64.1089 95.6882 63.9009 96.0562 63.7569C96.4242 63.6129 96.8202 63.5409 97.2442 63.5409C97.6762 63.5409 98.0762 63.6129 98.4442 63.7569C98.8122 63.9009 99.1282 64.1089 99.3922 64.3809C99.6642 64.6529 99.8762 64.9929 100.028 65.4009C100.188 65.8009 100.268 66.2569 100.268 66.7689C100.268 67.2889 100.188 67.7489 100.028 68.1489C99.8762 68.5489 99.6642 68.8889 99.3922 69.1689C99.1282 69.4409 98.8122 69.6489 98.4442 69.7929C98.0762 69.9369 97.6762 70.0089 97.2442 70.0089ZM97.2442 69.0609C97.5242 69.0609 97.7802 69.0169 98.0122 68.9289C98.2522 68.8329 98.4602 68.6929 98.6362 68.5089C98.8122 68.3169 98.9482 68.0769 99.0442 67.7889C99.1402 67.5009 99.1882 67.1609 99.1882 66.7689C99.1882 66.3769 99.1402 66.0369 99.0442 65.7489C98.9482 65.4609 98.8122 65.2249 98.6362 65.0409C98.4602 64.8489 98.2522 64.7089 98.0122 64.6209C97.7802 64.5249 97.5242 64.4769 97.2442 64.4769C96.9642 64.4769 96.7082 64.5249 96.4762 64.6209C96.2442 64.7089 96.0402 64.8489 95.8642 65.0409C95.6962 65.2249 95.5642 65.4609 95.4682 65.7489C95.3722 66.0369 95.3242 66.3769 95.3242 66.7689C95.3242 67.1609 95.3722 67.5009 95.4682 67.7889C95.5642 68.0769 95.6962 68.3169 95.8642 68.5089C96.0402 68.6929 96.2442 68.8329 96.4762 68.9289C96.7082 69.0169 96.9642 69.0609 97.2442 69.0609ZM101.555 63.6609H103.883C104.635 63.6609 105.203 63.7929 105.587 64.0569C105.971 64.3129 106.163 64.7169 106.163 65.2689C106.163 65.6369 106.067 65.9329 105.875 66.1569C105.691 66.3729 105.427 66.5289 105.083 66.6249C105.971 66.7689 106.415 67.2609 106.415 68.1009C106.415 68.4209 106.351 68.6969 106.223 68.9289C106.095 69.1529 105.919 69.3369 105.695 69.4809C105.471 69.6249 105.199 69.7289 104.879 69.7929C104.567 69.8569 104.227 69.8889 103.859 69.8889H101.555V63.6609ZM102.611 64.5609V66.2529H103.787C104.187 66.2529 104.507 66.1809 104.747 66.0369C104.995 65.8929 105.119 65.6849 105.119 65.4129C105.119 65.0849 105.011 64.8609 104.795 64.7409C104.579 64.6209 104.271 64.5609 103.871 64.5609H102.611ZM102.611 67.0929V68.9889H103.847C104.071 68.9889 104.271 68.9769 104.447 68.9529C104.631 68.9209 104.787 68.8689 104.915 68.7969C105.051 68.7249 105.155 68.6289 105.227 68.5089C105.299 68.3889 105.335 68.2409 105.335 68.0649C105.335 67.7049 105.211 67.4529 104.963 67.3089C104.715 67.1649 104.343 67.0929 103.847 67.0929H102.611ZM109.057 68.4489L112.381 63.6609H113.449V69.8889H112.393V65.1129L109.081 69.8889H108.001V63.6609H109.057V68.4489ZM115.173 65.6769C115.173 65.3249 115.237 65.0249 115.365 64.7769C115.493 64.5209 115.673 64.3129 115.905 64.1529C116.137 63.9849 116.413 63.8609 116.733 63.7809C117.053 63.7009 117.401 63.6609 117.777 63.6609H119.781V69.8889H118.725V67.6329H117.585L115.989 69.8889H114.729L116.529 67.3689C116.097 67.2409 115.761 67.0449 115.521 66.7809C115.289 66.5169 115.173 66.1489 115.173 65.6769ZM118.725 66.7329V64.5609H117.777C117.329 64.5609 116.961 64.6449 116.673 64.8129C116.385 64.9809 116.241 65.2529 116.241 65.6289C116.241 66.0209 116.369 66.3049 116.625 66.4809C116.881 66.6489 117.245 66.7329 117.717 66.7329H118.725ZM127.452 64.8849L125.34 69.1929H124.5L122.508 64.8609V69.8889H121.512V63.6609H123.084L124.992 67.8369L127.032 63.6609H128.496V69.8889H127.452V64.8849ZM64.1243 84.0089C63.6443 84.0089 63.2083 83.9369 62.8163 83.7929C62.4323 83.6409 62.1043 83.4289 61.8323 83.1569C61.5603 82.8769 61.3523 82.5369 61.2083 82.1369C61.0643 81.7369 60.9923 81.2809 60.9923 80.7689C60.9923 80.2649 61.0643 79.8129 61.2083 79.4129C61.3603 79.0129 61.5723 78.6769 61.8443 78.4049C62.1163 78.1249 62.4483 77.9129 62.8403 77.7689C63.2323 77.6169 63.6763 77.5409 64.1723 77.5409C64.5563 77.5409 64.9083 77.5849 65.2283 77.6729C65.5483 77.7529 65.8123 77.8729 66.0203 78.0329V78.9809C65.7643 78.8129 65.4763 78.6889 65.1563 78.6089C64.8443 78.5209 64.5203 78.4769 64.1843 78.4769C63.4563 78.4769 62.9203 78.6649 62.5763 79.0409C62.2403 79.4169 62.0723 79.9929 62.0723 80.7689C62.0723 81.5449 62.2363 82.1209 62.5643 82.4969C62.8923 82.8729 63.4123 83.0609 64.1243 83.0609C64.5003 83.0609 64.8443 83.0169 65.1563 82.9289C65.4763 82.8329 65.7643 82.7129 66.0203 82.5689V83.5169C65.7963 83.6529 65.5243 83.7689 65.2043 83.8649C64.8923 83.9609 64.5323 84.0089 64.1243 84.0089ZM69.9923 84.0089C69.5683 84.0089 69.1723 83.9369 68.8043 83.7929C68.4363 83.6489 68.1163 83.4409 67.8443 83.1689C67.5803 82.8889 67.3723 82.5489 67.2203 82.1489C67.0683 81.7489 66.9923 81.2889 66.9923 80.7689C66.9923 80.2569 67.0683 79.8009 67.2203 79.4009C67.3723 78.9929 67.5803 78.6529 67.8443 78.3809C68.1163 78.1089 68.4363 77.9009 68.8043 77.7569C69.1723 77.6129 69.5683 77.5409 69.9923 77.5409C70.4243 77.5409 70.8243 77.6129 71.1923 77.7569C71.5603 77.9009 71.8763 78.1089 72.1403 78.3809C72.4123 78.6529 72.6243 78.9929 72.7763 79.4009C72.9363 79.8009 73.0163 80.2569 73.0163 80.7689C73.0163 81.2889 72.9363 81.7489 72.7763 82.1489C72.6243 82.5489 72.4123 82.8889 72.1403 83.1689C71.8763 83.4409 71.5603 83.6489 71.1923 83.7929C70.8243 83.9369 70.4243 84.0089 69.9923 84.0089ZM69.9923 83.0609C70.2723 83.0609 70.5283 83.0169 70.7603 82.9289C71.0003 82.8329 71.2083 82.6929 71.3843 82.5089C71.5603 82.3169 71.6963 82.0769 71.7923 81.7889C71.8883 81.5009 71.9363 81.1609 71.9363 80.7689C71.9363 80.3769 71.8883 80.0369 71.7923 79.7489C71.6963 79.4609 71.5603 79.2249 71.3843 79.0409C71.2083 78.8489 71.0003 78.7089 70.7603 78.6209C70.5283 78.5249 70.2723 78.4769 69.9923 78.4769C69.7123 78.4769 69.4563 78.5249 69.2243 78.6209C68.9923 78.7089 68.7883 78.8489 68.6123 79.0409C68.4443 79.2249 68.3123 79.4609 68.2163 79.7489C68.1203 80.0369 68.0723 80.3769 68.0723 80.7689C68.0723 81.1609 68.1203 81.5009 68.2163 81.7889C68.3123 82.0769 68.4443 82.3169 68.6123 82.5089C68.7883 82.6929 68.9923 82.8329 69.2243 82.9289C69.4563 83.0169 69.7123 83.0609 69.9923 83.0609ZM74.3035 77.6609H78.2635V78.5609H75.3595V83.8889H74.3035V77.6609ZM79.4827 81.9569C79.5947 81.5489 79.6667 80.9969 79.6987 80.3009C79.7307 79.6049 79.7467 78.7249 79.7467 77.6609H83.9347V83.8889H82.8667V78.5609H80.7427C80.7347 79.4169 80.7067 80.1769 80.6587 80.8409C80.6187 81.5049 80.5267 82.0649 80.3827 82.5209C80.2467 82.9769 80.0427 83.3249 79.7707 83.5649C79.5067 83.7969 79.1507 83.9129 78.7027 83.9129C78.6707 83.9129 78.6387 83.9129 78.6067 83.9129C78.5747 83.9129 78.5387 83.9089 78.4987 83.9009V82.8569C78.5387 82.8649 78.5907 82.8689 78.6547 82.8689C79.0627 82.8689 79.3387 82.5649 79.4827 81.9569ZM89.2952 82.7009C89.2232 82.8449 89.1312 82.9969 89.0192 83.1569C88.9072 83.3089 88.7672 83.4489 88.5992 83.5769C88.4312 83.7049 88.2312 83.8089 87.9992 83.8889C87.7752 83.9689 87.5112 84.0089 87.2072 84.0089C86.6472 84.0089 86.1952 83.8529 85.8512 83.5409C85.5072 83.2209 85.3352 82.7649 85.3352 82.1729C85.3352 81.4929 85.5712 80.9929 86.0432 80.6729C86.5232 80.3529 87.2032 80.1929 88.0832 80.1929H89.2472V79.6769C89.2472 79.2449 89.1352 78.9369 88.9112 78.7529C88.6872 78.5689 88.3032 78.4769 87.7592 78.4769C87.3752 78.4769 87.0112 78.5409 86.6672 78.6689C86.3232 78.7889 86.0152 78.9289 85.7432 79.0889V78.1409C85.9672 78.0049 86.2672 77.8729 86.6432 77.7449C87.0272 77.6089 87.4472 77.5409 87.9032 77.5409C88.6872 77.5409 89.2832 77.7049 89.6912 78.0329C90.0992 78.3529 90.3032 78.8529 90.3032 79.5329V82.8809C90.3032 82.9529 90.3032 83.0369 90.3032 83.1329C90.3112 83.2209 90.3152 83.3129 90.3152 83.4089C90.3232 83.5049 90.3312 83.5969 90.3392 83.6849C90.3472 83.7649 90.3552 83.8329 90.3632 83.8889H89.4032C89.3792 83.7769 89.3552 83.6209 89.3312 83.4209C89.3152 83.2129 89.3072 83.0329 89.3072 82.8809L89.2952 82.7009ZM87.4352 83.0609C87.7632 83.0609 88.0432 82.9929 88.2752 82.8569C88.5072 82.7209 88.6952 82.5649 88.8392 82.3889C88.9832 82.2049 89.0872 82.0289 89.1512 81.8609C89.2152 81.6849 89.2472 81.5609 89.2472 81.4889V81.0329H88.1912C87.5592 81.0329 87.0992 81.1249 86.8112 81.3089C86.5312 81.4849 86.3912 81.7529 86.3912 82.1129C86.3912 82.3929 86.4752 82.6209 86.6432 82.7969C86.8112 82.9729 87.0752 83.0609 87.4352 83.0609ZM99.7396 83.8889H91.9636V77.6609H93.0196V82.9889H95.3236V77.6609H96.3796V82.9889H98.6836V77.6609H99.7396V83.8889ZM106.424 83.3609C106.336 83.4249 106.228 83.4929 106.1 83.5649C105.972 83.6369 105.816 83.7089 105.632 83.7809C105.448 83.8449 105.24 83.8969 105.008 83.9369C104.776 83.9849 104.516 84.0089 104.228 84.0089C103.18 84.0089 102.384 83.7249 101.84 83.1569C101.296 82.5889 101.024 81.7929 101.024 80.7689C101.024 80.2649 101.096 79.8129 101.24 79.4129C101.392 79.0129 101.6 78.6769 101.864 78.4049C102.128 78.1249 102.44 77.9129 102.8 77.7689C103.16 77.6169 103.552 77.5409 103.976 77.5409C104.424 77.5409 104.824 77.6169 105.176 77.7689C105.528 77.9209 105.816 78.1449 106.04 78.4409C106.272 78.7369 106.428 79.1049 106.508 79.5449C106.596 79.9769 106.596 80.4809 106.508 81.0569H102.116C102.156 81.7289 102.356 82.2329 102.716 82.5689C103.076 82.8969 103.612 83.0609 104.324 83.0609C104.804 83.0609 105.216 82.9929 105.56 82.8569C105.904 82.7209 106.192 82.5729 106.424 82.4129V83.3609ZM103.952 78.4769C103.496 78.4769 103.104 78.6169 102.776 78.8969C102.448 79.1769 102.24 79.6009 102.152 80.1689H105.5C105.532 79.5929 105.4 79.1689 105.104 78.8969C104.808 78.6169 104.424 78.4769 103.952 78.4769ZM111.993 81.1289H108.981V83.8889H107.925V77.6609H108.981V80.2289H111.993V77.6609H113.049V83.8889H111.993V81.1289ZM115.836 82.4489L119.16 77.6609H120.228V83.8889H119.172V79.1129L115.86 83.8889H114.78V77.6609H115.836V82.4489ZM121.952 79.6769C121.952 79.3249 122.016 79.0249 122.144 78.7769C122.272 78.5209 122.452 78.3129 122.684 78.1529C122.916 77.9849 123.192 77.8609 123.512 77.7809C123.832 77.7009 124.18 77.6609 124.556 77.6609H126.56V83.8889H125.504V81.6329H124.364L122.768 83.8889H121.508L123.308 81.3689C122.876 81.2409 122.54 81.0449 122.3 80.7809C122.068 80.5169 121.952 80.1489 121.952 79.6769ZM125.504 80.7329V78.5609H124.556C124.108 78.5609 123.74 78.6449 123.452 78.8129C123.164 78.9809 123.02 79.2529 123.02 79.6289C123.02 80.0209 123.148 80.3049 123.404 80.4809C123.66 80.6489 124.024 80.7329 124.496 80.7329H125.504Z" fill="#18123D"/>
<path d="M205 30C205 27.2386 207.239 25 210 25H340C342.761 25 345 27.2386 345 30V100C345 102.761 342.761 105 340 105H210C207.239 105 205 102.761 205 100V30Z" fill="#FCEAD1"/>
<path d="M255.165 67.4049C255.165 67.8049 255.089 68.1649 254.937 68.4849C254.785 68.8049 254.573 69.0809 254.301 69.3129C254.029 69.5369 253.705 69.7089 253.329 69.8289C252.953 69.9489 252.537 70.0089 252.081 70.0089C251.521 70.0089 251.037 69.9409 250.629 69.8049C250.221 69.6689 249.889 69.4929 249.633 69.2769V68.0769C249.889 68.3329 250.225 68.5569 250.641 68.7489C251.057 68.9329 251.541 69.0249 252.093 69.0249C252.685 69.0249 253.149 68.8849 253.485 68.6049C253.829 68.3249 254.001 67.9329 254.001 67.4289C254.001 66.9489 253.849 66.5769 253.545 66.3129C253.241 66.0409 252.765 65.9049 252.117 65.9049H251.013V64.8849H252.165C252.621 64.8849 252.989 64.7649 253.269 64.5249C253.549 64.2849 253.689 63.9369 253.689 63.4809C253.689 63.0729 253.557 62.7529 253.293 62.5209C253.029 62.2809 252.649 62.1609 252.153 62.1609C251.641 62.1609 251.201 62.2569 250.833 62.4489C250.473 62.6409 250.145 62.8649 249.849 63.1209V61.9449C250.129 61.7129 250.461 61.5249 250.845 61.3809C251.229 61.2369 251.669 61.1649 252.165 61.1649C252.573 61.1649 252.941 61.2209 253.269 61.3329C253.597 61.4369 253.873 61.5889 254.097 61.7889C254.329 61.9889 254.505 62.2289 254.625 62.5089C254.745 62.7809 254.805 63.0849 254.805 63.4209C254.805 63.6929 254.765 63.9369 254.685 64.1529C254.605 64.3689 254.493 64.5569 254.349 64.7169C254.213 64.8769 254.053 65.0129 253.869 65.1249C253.685 65.2289 253.489 65.3049 253.281 65.3529C253.529 65.3929 253.765 65.4689 253.989 65.5809C254.221 65.6929 254.425 65.8369 254.601 66.0129C254.777 66.1809 254.913 66.3849 255.009 66.6249C255.113 66.8569 255.165 67.1169 255.165 67.4049ZM261.883 67.0689C261.883 67.5089 261.807 67.9089 261.655 68.2689C261.511 68.6289 261.311 68.9409 261.055 69.2049C260.799 69.4609 260.495 69.6609 260.143 69.8049C259.799 69.9409 259.427 70.0089 259.027 70.0089C258.483 70.0089 258.019 69.9169 257.635 69.7329C257.259 69.5489 256.951 69.2929 256.711 68.9649C256.471 68.6289 256.295 68.2289 256.183 67.7649C256.071 67.3009 256.015 66.7929 256.015 66.2409C256.015 65.4889 256.083 64.8009 256.219 64.1769C256.355 63.5529 256.563 63.0209 256.843 62.5809C257.123 62.1329 257.479 61.7849 257.911 61.5369C258.351 61.2889 258.871 61.1649 259.471 61.1649C259.903 61.1649 260.259 61.2089 260.539 61.2969C260.819 61.3849 261.067 61.4889 261.283 61.6089V62.6769C260.763 62.3249 260.159 62.1489 259.471 62.1489C259.095 62.1489 258.767 62.2289 258.487 62.3889C258.207 62.5489 257.967 62.7689 257.767 63.0489C257.575 63.3209 257.423 63.6489 257.311 64.0329C257.199 64.4089 257.127 64.8129 257.095 65.2449C257.359 64.8849 257.663 64.6169 258.007 64.4409C258.351 64.2649 258.727 64.1769 259.135 64.1769C259.519 64.1769 259.879 64.2409 260.215 64.3689C260.551 64.4889 260.843 64.6729 261.091 64.9209C261.339 65.1689 261.531 65.4729 261.667 65.8329C261.811 66.1929 261.883 66.6049 261.883 67.0689ZM258.991 69.0489C259.223 69.0489 259.443 69.0089 259.651 68.9289C259.867 68.8409 260.055 68.7169 260.215 68.5569C260.375 68.3969 260.503 68.1969 260.599 67.9569C260.695 67.7089 260.743 67.4209 260.743 67.0929C260.743 66.7729 260.695 66.4889 260.599 66.2409C260.511 65.9929 260.387 65.7849 260.227 65.6169C260.075 65.4489 259.899 65.3249 259.699 65.2449C259.507 65.1569 259.311 65.1129 259.111 65.1129C258.847 65.1129 258.599 65.1569 258.367 65.2449C258.143 65.3329 257.947 65.4609 257.779 65.6289C257.619 65.7969 257.491 66.0049 257.395 66.2529C257.299 66.5009 257.251 66.7889 257.251 67.1169C257.251 67.6929 257.407 68.1609 257.719 68.5209C258.031 68.8729 258.455 69.0489 258.991 69.0489ZM268.145 67.0449C268.145 67.4929 268.073 67.9009 267.929 68.2689C267.793 68.6289 267.593 68.9409 267.329 69.2049C267.073 69.4609 266.757 69.6609 266.381 69.8049C266.013 69.9409 265.601 70.0089 265.145 70.0089C264.633 70.0089 264.189 69.9569 263.813 69.8529C263.437 69.7409 263.117 69.5889 262.853 69.3969V68.2209C263.125 68.4449 263.437 68.6369 263.789 68.7969C264.149 68.9489 264.601 69.0249 265.145 69.0249C265.737 69.0249 266.193 68.8449 266.513 68.4849C266.841 68.1249 267.005 67.6529 267.005 67.0689C267.005 66.4449 266.845 65.9889 266.525 65.7009C266.205 65.4129 265.801 65.2689 265.313 65.2689C264.953 65.2689 264.665 65.3289 264.449 65.4489C264.241 65.5609 264.081 65.6809 263.969 65.8089H263.093V61.2849H267.749V62.3169H264.077V64.7769C264.237 64.6569 264.433 64.5529 264.665 64.4649C264.897 64.3689 265.173 64.3209 265.493 64.3209C265.861 64.3209 266.205 64.3809 266.525 64.5009C266.853 64.6129 267.137 64.7849 267.377 65.0169C267.617 65.2409 267.805 65.5249 267.941 65.8689C268.077 66.2049 268.145 66.5969 268.145 67.0449ZM271.979 68.9889C272.203 68.8529 272.379 68.6409 272.507 68.3529C272.635 68.0649 272.735 67.7009 272.807 67.2609C272.879 66.8209 272.927 66.3009 272.951 65.7009C272.983 65.1009 273.011 64.4209 273.035 63.6609H277.319V68.9889H278.255V71.6649H277.331L277.199 69.8889H272.567L272.459 71.6649H271.511V68.9889H271.979ZM276.263 68.9889V64.5609H273.983C273.943 65.7369 273.867 66.6809 273.755 67.3929C273.651 68.0969 273.467 68.6289 273.203 68.9889H276.263ZM283.426 67.1289H280.414V69.8889H279.358V63.6609H280.414V66.2289H283.426V63.6609H284.482V69.8889H283.426V67.1289ZM291.17 69.3609C291.082 69.4249 290.974 69.4929 290.846 69.5649C290.718 69.6369 290.562 69.7089 290.378 69.7809C290.194 69.8449 289.986 69.8969 289.754 69.9369C289.522 69.9849 289.262 70.0089 288.974 70.0089C287.926 70.0089 287.13 69.7249 286.586 69.1569C286.042 68.5889 285.77 67.7929 285.77 66.7689C285.77 66.2649 285.842 65.8129 285.986 65.4129C286.138 65.0129 286.346 64.6769 286.61 64.4049C286.874 64.1249 287.186 63.9129 287.546 63.7689C287.906 63.6169 288.298 63.5409 288.722 63.5409C289.17 63.5409 289.57 63.6169 289.922 63.7689C290.274 63.9209 290.562 64.1449 290.786 64.4409C291.018 64.7369 291.174 65.1049 291.254 65.5449C291.342 65.9769 291.342 66.4809 291.254 67.0569H286.862C286.902 67.7289 287.102 68.2329 287.462 68.5689C287.822 68.8969 288.358 69.0609 289.07 69.0609C289.55 69.0609 289.962 68.9929 290.306 68.8569C290.65 68.7209 290.938 68.5729 291.17 68.4129V69.3609ZM288.698 64.4769C288.242 64.4769 287.85 64.6169 287.522 64.8969C287.194 65.1769 286.986 65.6009 286.898 66.1689H290.246C290.278 65.5929 290.146 65.1689 289.85 64.8969C289.554 64.6169 289.17 64.4769 288.698 64.4769ZM295.419 62.8329C295.099 62.8329 294.819 62.7929 294.579 62.7129C294.347 62.6249 294.151 62.5089 293.991 62.3649C293.839 62.2129 293.723 62.0409 293.643 61.8489C293.571 61.6489 293.535 61.4329 293.535 61.2009H294.591C294.591 61.5049 294.663 61.7249 294.807 61.8609C294.959 61.9969 295.163 62.0649 295.419 62.0649C295.675 62.0649 295.875 61.9969 296.019 61.8609C296.163 61.7249 296.235 61.5049 296.235 61.2009H297.291C297.291 61.6569 297.135 62.0449 296.823 62.3649C296.519 62.6769 296.051 62.8329 295.419 62.8329ZM293.727 68.4489L297.051 63.6609H298.119V69.8889H297.063V65.1129L293.751 69.8889H292.671V63.6609H293.727V68.4489Z" fill="#18123D"/>
<path d="M184.978 62.432C184.61 62.432 184.306 62.312 184.066 62.072C183.826 61.816 183.706 61.512 183.706 61.16C183.706 60.792 183.826 60.488 184.066 60.248C184.306 60.008 184.61 59.888 184.978 59.888C185.362 59.888 185.666 60.008 185.89 60.248C186.13 60.488 186.25 60.792 186.25 61.16C186.25 61.512 186.13 61.816 185.89 62.072C185.666 62.312 185.362 62.432 184.978 62.432ZM179.434 66.56V65.264H190.546V66.56H179.434ZM184.978 71.936C184.61 71.936 184.306 71.816 184.066 71.576C183.826 71.32 183.706 71.016 183.706 70.664C183.706 70.296 183.826 69.992 184.066 69.752C184.306 69.512 184.61 69.392 184.978 69.392C185.362 69.392 185.666 69.512 185.89 69.752C186.13 69.992 186.25 70.296 186.25 70.664C186.25 71.016 186.13 71.32 185.89 71.576C185.666 71.816 185.362 71.936 184.978 71.936Z" fill="#18123D"/>
<path d="M373.422 64.184V62.888H384.534V64.184H373.422ZM373.422 68.936V67.64H384.534V68.936H373.422Z" fill="#18123D"/>
<defs>
<filter id="filter0_d" x="0" y="0" width="370" height="130" filterUnits="userSpaceOnUse" color-interpolation-filters="sRGB">
<feFlood flood-opacity="0" result="BackgroundImageFix"/>
<feColorMatrix in="SourceAlpha" type="matrix" values="0 0 0 0 0 0 0 0 0 0 0 0 0 0 0 0 0 0 127 0"/>
<feOffset/>
<feGaussianBlur stdDeviation="7.5"/>
<feColorMatrix type="matrix" values="0 0 0 0 0.592157 0 0 0 0 0.74902 0 0 0 0 0.905882 0 0 0 0.4 0"/>
<feBlend mode="normal" in2="BackgroundImageFix" result="effect1_dropShadow"/>
<feBlend mode="normal" in="SourceGraphic" in2="effect1_dropShadow" result="shape"/>
</filter>
</defs>
</svg>
