<svg xmlns="http://www.w3.org/2000/svg" width="24" height="24" fill="none" viewBox="0 0 24 24">
    <path fill="currentColor" d="M3 17.5c0 .844.656 1.5 1.5 1.5h15a1.5 1.5 0 0 0 1.5-1.5V12H3v5.5Zm6-2.125A.38.38 0 0 1 9.375 15h4.25c.188 0 .375.188.375.375v1.25a.38.38 0 0 1-.375.375h-4.25A.361.361 0 0 1 9 16.625v-1.25Zm-4 0A.38.38 0 0 1 5.375 15h2.25c.188 0 .375.188.375.375v1.25a.38.38 0 0 1-.375.375h-2.25A.361.361 0 0 1 5 16.625v-1.25ZM21 6.5c0-.813-.688-1.5-1.5-1.5h-15A1.5 1.5 0 0 0 3 6.5V8h18V6.5Z"/>
</svg>
