<svg width="660" height="930" fill="none" xmlns="http://www.w3.org/2000/svg"><path d="M330 79.985l2.887-5h-5.774l2.887 5zM329.5 50V75.484h1v-.025-.026-.025-.025-.025-.025-.026-.025-.026-.025-.026-.026-.026-.026-.026-.026-.026-.027-.026-.027-.026-.027-.027-.027-.026-.028-.027-.027-.027-.027-.028-.027-.028-.027-.028-.028-.028-.028-.028-.028-.028-.029-.028-.029-.028-.029-.029-.028-.03-.029-.029-.029-.029-.03-.029-.03-.029-.03-.03-.03-.03-.03-.03-.03-.03-.03-.03-.031-.031-.03-.032-.03-.032-.03-.032-.031-.032-.031-.032-.031-.032-.032-.032-.032-.032-.032-.032-.032-.033-.032-.033-.033-.032-.033-.033-.033-.033-.034-.033-.033-.034-.034-.033-.034-.034-.034-.034-.034-.034-.035-.034-.035-.034-.035-.035-.034-.035-.035-.036-.035-.035-.036-.035-.036-.035-.036-.036-.036-.036-.036-.037-.036-.036-.037-.037-.036-.037-.037-.037-.037-.037-.038-.037-.037-.038-.038-.037-.038-.038-.038-.039-.038-.038-.039-.038-.039-.038-.04-.038-.04-.038-.04-.039-.04-.039-.04-.039-.04-.04-.04-.04-.04-.04-.04-.04-.041-.041-.04-.042-.04-.042-.04-.042-.041-.042-.041-.042-.042-.042-.041-.043-.042-.042-.042-.043-.042-.043-.043-.042-.043-.043-.043-.044-.043-.044-.043-.044-.043-.044-.044-.044-.044-.044-.045-.044-.045-.044-.045-.045-.045-.045-.045-.046-.045-.045-.046-.046-.045-.046-.046-.046-.046-.047-.046-.046-.047-.047-.047-.046-.047-.048-.047-.047-.047-.048-.048-.047-.048-.048-.048-.048-.049-.048-.048-.049-.049-.048-.05-.048-.05-.049-.049-.05-.049-.05-.05-.049-.05-.05-.05-.05-.05-.051-.05-.052-.05-.051-.051-.051-.052-.051-.051-.052-.052-.051-.052-.052-.052-.053-.052-.052-.053-.052-.053-.053-.053-.053-.053V64v-.054-.053-.054-.054-.054-.054-.054-.054-.054-.054-.055-.055-.054-.055-.055-.055-.055-.056-.055-.056-.055-.056-.056-.056-.056-.056-.056-.056-.057-.057-.056-.057-.057-.057-.057-.058-.057-.058-.057-.058-.058-.058-.058-.058-.058-.059-.058-.059-.059-.059-.059-.059-.059-.06-.059-.06-.059-.06-.06-.06-.06-.06-.06-.06-.061-.061-.061-.061-.061-.061-.062-.061-.062-.061-.062-.062-.062-.062-.062-.063-.062-.063-.062-.063-.063-.063-.063-.063-.064-.064-.063-.064-.064-.064-.064-.064-.064-.065-.065-.064-.065-.065-.065-.065-.066-.065-.066-.065-.066-.066-.066-.066-.066-.067-.066-.067-.066-.067-.067-.068-.067-.067-.068-.067-.068-.068-.068-.068-.068-.068-.069-.068-.069-.069-.069-.069-.069-.07-.069-.07-.069-.07-.07-.07-.07-.07-.07-.071-.07-.071-.071-.071-.072-.07-.072-.072-.071-.072-.072-.072-.072-.072-.073-.072-.073-.073-.073-.073-.073-.073-.074-.073-.074-.073-.074-.074-.075-.074-.074-.075-.074-.075-.075-.075-.075-.076-.075-.076-.075-.076-.076-.076-.076-.077-.076-.077-.076-.077-.077-.077-.077-.078-.077-.078-.078-.077-.078-.078-.079-.078-.079-.078V50h-1zM330 239.985l2.887-5h-5.774l2.887 5zM329.5 210V235.484h1v-.025-.025-.026-.025-.025-.025-.026-.025-.026-.026-.025-.026-.026-.026-.026-.026-.027-.026-.026-.027-.026-.027-.027-.027-.026-.027-.028-.027-.027-.027-.028-.027-.028-.027-.028-.028-.028-.028-.028-.028-.028-.029-.028-.029-.028-.029-.029-.029-.028-.029-.03-.029-.029-.029-.03-.029-.03-.03-.029-.03-.03-.03-.031-.03-.03-.03-.031-.03-.031-.031-.031-.031-.031-.031-.031-.031-.032-.031-.032-.031-.032-.032-.032-.032-.032-.032-.032-.032-.033-.032-.033-.033-.032-.033-.033-.033-.033-.034-.033-.033-.034-.034-.033-.034-.034-.034-.034-.034-.034-.035-.034-.035-.034-.035-.035-.034-.035-.035-.036-.035-.035-.036-.035-.036-.035-.036-.036-.036-.036-.036-.037-.036-.036-.037-.037-.036-.037-.037-.037-.037-.037-.038-.037-.038-.037-.038-.038-.037-.038-.038-.039-.038-.038-.039-.038-.039-.038-.039-.039-.039-.039-.039-.04-.039-.04-.039-.04-.04-.04-.04-.04-.04-.04-.04-.041-.04-.041-.041-.041-.041-.041-.041-.041-.041-.042-.041-.042-.042-.042-.042-.042-.042-.042-.042-.043-.042-.043-.043-.042-.043-.043-.043-.044-.043-.043-.044-.044-.043-.044-.044-.044-.044-.045-.044-.044-.045-.044-.045-.045-.045-.045-.045-.045-.046-.045-.046-.045-.046-.046-.046-.046-.046-.047-.046-.046-.047-.047-.047-.046-.047-.048-.047-.047-.048-.047-.048-.047-.048-.048-.048-.048-.049-.048-.048-.049-.049-.048-.049-.049-.049-.05-.049-.049-.05-.049-.05-.05-.05-.05-.05-.05-.051-.05-.051-.051-.05-.051-.051-.051-.052-.051-.051-.052-.052-.051-.052-.052-.052-.053-.052-.052-.053-.052-.053-.053-.053-.053-.053-.054-.053-.053-.054-.054-.054-.054-.054-.054-.054-.054-.055-.055-.054-.055-.055-.055-.055-.056-.055-.055-.056-.056-.056-.056-.056-.056-.056-.056-.057-.057-.056-.057-.057-.057-.057-.058-.057-.058-.057-.058-.058-.058-.058-.058-.058-.059-.058-.059-.059-.059-.059-.059-.059-.059-.06-.059-.06-.06-.06-.06-.06-.06-.06-.061-.061-.06-.061-.061-.061-.061-.062-.061-.062-.061-.062-.062-.062-.062-.062-.063-.062-.063-.062-.063-.063-.063-.063-.064-.063-.063-.064-.064-.064-.064-.064-.064-.064-.065-.064-.065-.065-.065-.065-.065-.066-.065-.066-.065-.066-.066-.066-.066-.066-.067-.066-.067-.067-.066-.067-.068-.067-.067-.068-.067-.068-.068-.068-.068-.068-.068-.069-.068-.069-.069-.069-.069-.069-.069-.07-.069-.07-.07-.07-.07-.07-.07-.07-.071-.071-.07-.071-.071-.071-.072-.071-.072-.071-.072-.072-.072-.072-.072-.073-.072-.073-.073-.073-.073-.073-.073-.073-.074-.074-.073-.074-.074-.075-.074-.074-.075-.074-.075-.075-.075-.075-.076-.075-.076-.075-.076-.076-.076-.076-.077-.076-.077-.076-.077-.077-.077-.077-.078-.077-.078-.078-.077-.078-.078-.079-.078-.079-.078V210h-1zM330 319.985l2.887-5h-5.774l2.887 5zM329.5 290V315.484h1v-.025-.025-.026-.025-.025-.025-.026-.025-.026-.026-.025-.026-.026-.026-.026-.026-.027-.026-.026-.027-.026-.027-.027-.027-.026-.027-.028-.027-.027-.027-.028-.027-.028-.027-.028-.028-.028-.028-.028-.028-.028-.029-.028-.029-.028-.029-.029-.029-.028-.029-.03-.029-.029-.029-.03-.029-.03-.03-.029-.03-.03-.03-.031-.03-.03-.03-.031-.03-.031-.031-.031-.031-.031-.031-.031-.031-.032-.031-.032-.031-.032-.032-.032-.032-.032-.032-.032-.032-.033-.032-.033-.033-.032-.033-.033-.033-.033-.034-.033-.033-.034-.034-.033-.034-.034-.034-.034-.034-.034-.035-.034-.035-.034-.035-.035-.034-.035-.035-.036-.035-.035-.036-.035-.036-.035-.036-.036-.036-.036-.036-.037-.036-.036-.037-.037-.036-.037-.037-.037-.037-.037-.038-.037-.038-.037-.038-.038-.037-.038-.038-.039-.038-.038-.039-.038-.039-.038-.039-.039-.039-.039-.039-.04-.039-.04-.039-.04-.04-.04-.04-.04-.04-.04-.04-.041-.04-.041-.041-.041-.041-.041-.041-.041-.041-.042-.041-.042-.042-.042-.042-.042-.042-.042-.042-.043-.042-.043-.043-.042-.043-.043-.043-.044-.043-.043-.044-.044-.043-.044-.044-.044-.044-.045-.044-.044-.045-.044-.045-.045-.045-.045-.045-.045-.046-.045-.046-.045-.046-.046-.046-.046-.046-.047-.046-.046-.047-.047-.047-.046-.047-.048-.047-.047-.048-.047-.048-.047-.048-.048-.048-.048-.049-.048-.048-.049-.049-.048-.049-.049-.049-.05-.049-.049-.05-.049-.05-.05-.05-.05-.05-.05-.051-.05-.051-.051-.05-.051-.051-.051-.052-.051-.051-.052-.052-.051-.052-.052-.052-.053-.052-.052-.053-.052-.053-.053-.053-.053-.053-.054-.053-.053-.054-.054-.054-.054-.054-.054-.054-.054-.055-.055-.054-.055-.055-.055-.055-.056-.055-.055-.056-.056-.056-.056-.056-.056-.056-.056-.057-.057-.056-.057-.057-.057-.057-.058-.057-.058-.057-.058-.058-.058-.058-.058-.058-.059-.058-.059-.059-.059-.059-.059-.059-.059-.06-.059-.06-.06-.06-.06-.06-.06-.06-.061-.061-.06-.061-.061-.061-.061-.062-.061-.062-.061-.062-.062-.062-.062-.062-.063-.062-.063-.062-.063-.063-.063-.063-.064-.063-.063-.064-.064-.064-.064-.064-.064-.064-.065-.064-.065-.065-.065-.065-.065-.066-.065-.066-.065-.066-.066-.066-.066-.066-.067-.066-.067-.067-.066-.067-.068-.067-.067-.068-.067-.068-.068-.068-.068-.068-.068-.069-.068-.069-.069-.069-.069-.069-.069-.07-.069-.07-.07-.07-.07-.07-.07-.07-.071-.071-.07-.071-.071-.071-.072-.071-.072-.071-.072-.072-.072-.072-.072-.073-.072-.073-.073-.073-.073-.073-.073-.073-.074-.074-.073-.074-.074-.075-.074-.074-.075-.074-.075-.075-.075-.075-.076-.075-.076-.075-.076-.076-.076-.076-.077-.076-.077-.076-.077-.077-.077-.077-.078-.077-.078-.078-.077-.078-.078-.079-.078-.079-.078V290h-1zM330 159.985l2.887-5h-5.774l2.887 5zM329.5 130V155.484h1v-.025-.025-.026-.025-.025-.025-.026-.025-.026-.026-.025-.026-.026-.026-.026-.026-.027-.026-.026-.027-.026-.027-.027-.027-.026-.027-.028-.027-.027-.027-.028-.027-.028-.027-.028-.028-.028-.028-.028-.028-.028-.029-.028-.029-.028-.029-.029-.029-.028-.029-.03-.029-.029-.029-.03-.029-.03-.03-.029-.03-.03-.03-.031-.03-.03-.03-.031-.03-.031-.031-.031-.031-.031-.031-.031-.031-.032-.031-.032-.031-.032-.032-.032-.032-.032-.032-.032-.032-.033-.032-.033-.033-.032-.033-.033-.033-.033-.034-.033-.033-.034-.034-.033-.034-.034-.034-.034-.034-.034-.035-.034-.035-.034-.035-.035-.034-.035-.035-.036-.035-.035-.036-.035-.036-.035-.036-.036-.036-.036-.036-.037-.036-.036-.037-.037-.036-.037-.037-.037-.037-.037-.038-.037-.038-.037-.038-.038-.037-.038-.038-.039-.038-.038-.039-.038-.039-.038-.039-.039-.039-.039-.039-.04-.039-.04-.039-.04-.04-.04-.04-.04-.04-.04-.04-.041-.04-.041-.041-.041-.041-.041-.041-.041-.041-.042-.041-.042-.042-.042-.042-.042-.042-.042-.042-.043-.042-.043-.043-.042-.043-.043-.043-.044-.043-.043-.044-.044-.043-.044-.044-.044-.044-.045-.044-.044-.045-.044-.045-.045-.045-.045-.045-.045-.046-.045-.046-.045-.046-.046-.046-.046-.046-.047-.046-.046-.047-.047-.047-.046-.047-.048-.047-.047-.048-.047-.048-.047-.048-.048-.048-.048-.049-.048-.048-.049-.049-.048-.049-.049-.049-.05-.049-.049-.05-.049-.05-.05-.05-.05-.05-.05-.051-.05-.051-.051-.05-.051-.051-.051-.052-.051-.051-.052-.052-.051-.052-.052-.052-.053-.052-.052-.053-.052-.053-.053-.053-.053-.053-.054-.053-.053-.054-.054-.054-.054-.054-.054-.054-.054-.055-.055-.054-.055-.055-.055-.055-.056-.055-.055-.056-.056-.056-.056-.056-.056-.056-.056-.057-.057-.056-.057-.057-.057-.057-.058-.057-.058-.057-.058-.058-.058-.058-.058-.058-.059-.058-.059-.059-.059-.059-.059-.059-.059-.06-.059-.06-.06-.06-.06-.06-.06-.06-.061-.061-.06-.061-.061-.061-.061-.062-.061-.062-.061-.062-.062-.062-.062-.062-.063-.062-.063-.062-.063-.063-.063-.063-.064-.063-.063-.064-.064-.064-.064-.064-.064-.064-.065-.064-.065-.065-.065-.065-.065-.066-.065-.066-.065-.066-.066-.066-.066-.066-.067-.066-.067-.067-.066-.067-.068-.067-.067-.068-.067-.068-.068-.068-.068-.068-.068-.069-.068-.069-.069-.069-.069-.069-.069-.07-.069-.07-.07-.07-.07-.07-.07-.07-.071-.071-.07-.071-.071-.071-.072-.071-.072-.071-.072-.072-.072-.072-.072-.073-.072-.073-.073-.073-.073-.073-.073-.073-.074-.074-.073-.074-.074-.075-.074-.074-.075-.074-.075-.075-.075-.075-.076-.075-.076-.075-.076-.076-.076-.076-.077-.076-.077-.076-.077-.077-.077-.077-.078-.077-.078-.078-.077-.078-.078-.079-.078-.079-.078V130h-1z" fill="#18123D" fill-opacity=".7"/><path d="M230 85a5 5 0 015-5h190a5 5 0 015 5v40a5 5 0 01-5 5H235a5 5 0 01-5-5V85z" fill="#FFF5CC"/><path d="M277.374 108.666a4.42 4.42 0 01-1.595-.275 3.51 3.51 0 01-1.232-.792 3.631 3.631 0 01-.781-1.276 4.99 4.99 0 01-.275-1.705c0-.638.084-1.207.253-1.705.169-.499.418-.921.748-1.265.33-.352.733-.62 1.21-.803.484-.184 1.034-.275 1.65-.275.535 0 1.005.058 1.408.176.403.11.733.242.99.396v.99a3.622 3.622 0 00-1.144-.473 5.357 5.357 0 00-1.265-.154c-.931 0-1.621.26-2.068.781-.44.513-.66 1.29-.66 2.332 0 1.048.238 1.829.715 2.343.484.513 1.195.77 2.134.77.403 0 .796-.055 1.177-.165.389-.11.759-.297 1.111-.561v.99c-.213.168-.524.322-.935.462-.403.139-.884.209-1.441.209zm3.959-7.997h2.64c.931 0 1.639.183 2.123.55.491.359.737.927.737 1.705 0 .689-.169 1.217-.506 1.584-.33.366-.767.608-1.309.726l2.145 3.322h-1.166l-2.057-3.201h-1.573v3.201h-1.034v-7.887zm1.034.946v2.805h1.507c.278 0 .531-.026.759-.077.234-.052.432-.136.594-.253.168-.118.297-.272.385-.462.095-.198.143-.44.143-.726 0-.47-.154-.8-.462-.99-.308-.198-.748-.297-1.32-.297h-1.606zm6.131-.946h4.884v.946h-3.85v2.387h3.267v.935h-3.267v2.684h3.905v.935h-4.939v-7.887zm8.675 0h1.54l2.827 7.887h-1.1l-.814-2.255h-3.487l-.803 2.255h-.968l2.805-7.887zm2.123 4.697l-1.408-3.927-1.408 3.927h2.816zm5.501-3.74v6.93h-1.045v-6.93h-2.431v-.957h5.907v.957h-2.431zm4.737-.957v7.887H308.5v-7.887h1.034zm8.181 7.887h-1.408l-3.96-6.622v6.622h-.979v-7.887h1.397l3.96 6.622v-6.622h.99v7.887zm8.505-3.091c0 .462-.07.887-.209 1.276a2.665 2.665 0 01-.616 1.012 2.883 2.883 0 01-1.056.671c-.418.161-.913.242-1.485.242a3.98 3.98 0 01-1.529-.286 3.493 3.493 0 01-1.188-.825 3.714 3.714 0 01-.77-1.276 4.772 4.772 0 01-.275-1.661c0-.609.088-1.163.264-1.661.176-.499.432-.924.77-1.276.344-.352.77-.624 1.276-.814.506-.198 1.089-.297 1.749-.297.337 0 .638.022.902.066.271.044.509.099.715.165.205.066.381.139.528.22.154.08.286.157.396.231v.99a7.51 7.51 0 00-.539-.286 3.582 3.582 0 00-.594-.242 4.24 4.24 0 00-.671-.154 4.97 4.97 0 00-.77-.055c-.499 0-.932.069-1.298.209-.36.139-.66.344-.902.616-.235.264-.411.59-.528.979a4.426 4.426 0 00-.176 1.309c0 .982.231 1.749.693 2.299.469.542 1.118.814 1.947.814.41 0 .762-.052 1.056-.154.293-.11.531-.257.715-.44.183-.191.315-.415.396-.671.088-.264.132-.55.132-.858v-.22h-2.541v-.935h3.608v1.012zm.431 3.531h4.51v.825h-4.51v-.825zm6.355-8.327v7.887h-1.034v-7.887h1.034zm8.181 7.887h-1.408l-3.96-6.622v6.622h-.979v-7.887h1.397l3.96 6.622v-6.622h.99v7.887zm4.038.11c-.359 0-.682-.026-.968-.077a4.682 4.682 0 01-.759-.176 3.983 3.983 0 01-.55-.253 2.251 2.251 0 01-.352-.275v-.99c.11.095.253.194.429.297.176.095.378.183.605.264.235.08.484.146.748.198.272.051.554.077.847.077.572 0 1.027-.107 1.364-.319.338-.22.506-.55.506-.99 0-.22-.04-.4-.121-.539a.97.97 0 00-.352-.363 2.037 2.037 0 00-.583-.253 13.929 13.929 0 00-.803-.231 15.395 15.395 0 01-.924-.275 3.452 3.452 0 01-.836-.407 2.071 2.071 0 01-.594-.638c-.146-.257-.22-.583-.22-.979 0-.682.239-1.214.715-1.595.477-.382 1.207-.572 2.189-.572.286 0 .539.018.759.055.228.029.426.069.594.121.176.044.327.095.451.154.132.058.25.113.352.165v.99a3.067 3.067 0 00-1.001-.418 4.757 4.757 0 00-1.155-.132c-.352 0-.649.029-.891.088a1.577 1.577 0 00-.572.231.91.91 0 00-.319.374 1.189 1.189 0 00-.099.495c0 .22.048.403.143.55.103.146.235.271.396.374.169.095.36.176.572.242.213.066.437.124.671.176.308.073.624.157.946.253.323.095.613.227.869.396.257.168.466.388.627.66.169.264.253.608.253 1.034 0 .418-.084.773-.253 1.067-.161.286-.377.52-.649.704a2.76 2.76 0 01-.935.396c-.352.08-.718.121-1.1.121zm7.128-7.04v6.93h-1.045v-6.93h-2.431v-.957h5.907v.957h-2.431zm5.03-.957h1.54l2.827 7.887h-1.1l-.814-2.255h-3.487l-.803 2.255h-.968l2.805-7.887zm2.123 4.697l-1.408-3.927-1.408 3.927h2.816zm9.739 3.19h-1.408l-3.96-6.622v6.622h-.979v-7.887h1.397l3.96 6.622v-6.622h.99v7.887zm5.26.11a4.415 4.415 0 01-1.595-.275 3.5 3.5 0 01-1.232-.792 3.617 3.617 0 01-.781-1.276c-.184-.506-.275-1.075-.275-1.705 0-.638.084-1.207.253-1.705.168-.499.418-.921.748-1.265.33-.352.733-.62 1.21-.803.484-.184 1.034-.275 1.65-.275a5.04 5.04 0 011.408.176c.403.11.733.242.99.396v.99a3.632 3.632 0 00-1.144-.473 5.363 5.363 0 00-1.265-.154c-.932 0-1.621.26-2.068.781-.44.513-.66 1.29-.66 2.332 0 1.048.238 1.829.715 2.343.484.513 1.195.77 2.134.77a4.23 4.23 0 001.177-.165c.388-.11.759-.297 1.111-.561v.99c-.213.168-.525.322-.935.462-.404.139-.884.209-1.441.209zm3.959-7.997h4.884v.946h-3.85v2.387h3.267v.935h-3.267v2.684h3.905v.935h-4.939v-7.887z" fill="#18123D"/><path d="M230 165a5 5 0 015-5h190a5 5 0 015 5v40a5 5 0 01-5 5H235a5 5 0 01-5-5v-40z" fill="#FFF5CC"/><path d="M248.86 180.669h1.54l2.827 7.887h-1.1l-.814-2.255h-3.487l-.803 2.255h-.968l2.805-7.887zm2.123 4.697l-1.408-3.927-1.408 3.927h2.816zm10.627 3.19h-1.518l-1.738-6.094-1.749 6.094h-1.529l-1.738-7.887h1.078l1.496 6.996 2.024-6.996h.946l1.98 6.864 1.485-6.864h1.001l-1.738 7.887zm4.663-7.887h1.54l2.827 7.887h-1.1l-.814-2.255h-3.487l-.803 2.255h-.968l2.805-7.887zm2.123 4.697l-1.408-3.927-1.408 3.927h2.816zm4.426-4.697v7.887h-1.034v-7.887h1.034zm4.717.957v6.93h-1.045v-6.93h-2.431v-.957h5.907v.957h-2.431zm4.737-.957v7.887h-1.034v-7.887h1.034zm8.181 7.887h-1.408l-3.96-6.622v6.622h-.979v-7.887h1.397l3.96 6.622v-6.622h.99v7.887zm8.504-3.091c0 .462-.069.887-.209 1.276a2.653 2.653 0 01-.616 1.012c-.278.286-.63.509-1.056.671-.418.161-.913.242-1.485.242a3.984 3.984 0 01-1.529-.286 3.493 3.493 0 01-1.188-.825 3.73 3.73 0 01-.77-1.276 4.795 4.795 0 01-.275-1.661c0-.609.088-1.163.264-1.661.176-.499.433-.924.77-1.276.345-.352.77-.624 1.276-.814.506-.198 1.089-.297 1.749-.297.338 0 .638.022.902.066.272.044.51.099.715.165.206.066.382.139.528.22.154.08.286.157.396.231v.99a7.304 7.304 0 00-.539-.286 4.214 4.214 0 00-1.265-.396 4.951 4.951 0 00-.77-.055c-.498 0-.931.069-1.298.209-.359.139-.66.344-.902.616-.234.264-.41.59-.528.979a4.46 4.46 0 00-.176 1.309c0 .982.231 1.749.693 2.299.47.542 1.119.814 1.947.814.411 0 .763-.052 1.056-.154a1.97 1.97 0 00.715-.44c.184-.191.316-.415.396-.671.088-.264.132-.55.132-.858v-.22h-2.541v-.935h3.608v1.012zm.432 3.531h4.51v.825h-4.51v-.825zm7.52-.33c-.359 0-.682-.026-.968-.077a4.682 4.682 0 01-.759-.176 3.983 3.983 0 01-.55-.253 2.251 2.251 0 01-.352-.275v-.99c.11.095.253.194.429.297.176.095.378.183.605.264.235.08.484.146.748.198.272.051.554.077.847.077.572 0 1.027-.107 1.364-.319.338-.22.506-.55.506-.99 0-.22-.04-.4-.121-.539a.97.97 0 00-.352-.363 2.037 2.037 0 00-.583-.253 13.929 13.929 0 00-.803-.231 15.395 15.395 0 01-.924-.275 3.452 3.452 0 01-.836-.407 2.071 2.071 0 01-.594-.638c-.146-.257-.22-.583-.22-.979 0-.682.239-1.214.715-1.595.477-.382 1.207-.572 2.189-.572.286 0 .539.018.759.055.228.029.426.069.594.121.176.044.327.095.451.154.132.058.25.113.352.165v.99a3.067 3.067 0 00-1.001-.418 4.757 4.757 0 00-1.155-.132c-.352 0-.649.029-.891.088a1.577 1.577 0 00-.572.231.91.91 0 00-.319.374 1.189 1.189 0 00-.099.495c0 .22.048.403.143.55.103.146.235.271.396.374.169.095.36.176.572.242.213.066.437.124.671.176.308.073.624.157.946.253.323.095.613.227.869.396.257.168.466.388.627.66.169.264.253.608.253 1.034 0 .418-.084.773-.253 1.067-.161.286-.377.52-.649.704a2.76 2.76 0 01-.935.396c-.352.08-.718.121-1.1.121zm7.128-7.04v6.93h-1.045v-6.93h-2.431v-.957h5.907v.957h-2.431zm5.03-.957h1.54l2.827 7.887h-1.1l-.814-2.255h-3.487l-.803 2.255h-.968l2.805-7.887zm2.123 4.697l-1.408-3.927-1.408 3.927h2.816zm3.392-4.697h2.64c.932 0 1.639.183 2.123.55.492.359.737.927.737 1.705 0 .689-.168 1.217-.506 1.584-.33.366-.766.608-1.309.726l2.145 3.322h-1.166l-2.057-3.201h-1.573v3.201h-1.034v-7.887zm1.034.946v2.805h1.507c.279 0 .532-.026.759-.077.235-.052.433-.136.594-.253.169-.118.297-.272.385-.462.096-.198.143-.44.143-.726 0-.47-.154-.8-.462-.99-.308-.198-.748-.297-1.32-.297h-1.606zm8.852.011v6.93h-1.045v-6.93h-2.431v-.957h5.907v.957h-2.431zm3.516-.957h1.045v5.192c0 .638.18 1.111.539 1.419.367.308.865.462 1.496.462.308 0 .59-.037.847-.11.264-.081.491-.198.682-.352.191-.162.337-.36.44-.594.11-.235.165-.51.165-.825v-5.192h.99v5.159c0 .454-.081.858-.242 1.21a2.529 2.529 0 01-.671.891 2.843 2.843 0 01-.99.55 3.998 3.998 0 01-1.243.187 4.03 4.03 0 01-1.21-.176 2.828 2.828 0 01-.979-.528 2.469 2.469 0 01-.638-.869 3.022 3.022 0 01-.231-1.221v-5.203zm7.803 0h2.519c.895 0 1.588.187 2.079.561.499.366.748.942.748 1.727 0 .447-.073.832-.22 1.155a2.037 2.037 0 01-.594.781 2.479 2.479 0 01-.924.451 4.513 4.513 0 01-1.177.143h-1.397v3.069h-1.034v-7.887zm1.034.946v2.937h1.397c.279 0 .532-.03.759-.088a1.6 1.6 0 00.583-.275c.169-.125.297-.286.385-.484a1.73 1.73 0 00.143-.737c0-.477-.154-.822-.462-1.034-.308-.213-.748-.319-1.32-.319h-1.485zm4.646 7.381h4.51v.825h-4.51v-.825zm5.32-8.327h2.651c.528 0 1.02.062 1.474.187.455.124.851.33 1.188.616.338.286.602.663.792 1.133.191.469.286 1.048.286 1.738 0 .696-.099 1.309-.297 1.837-.19.52-.458.957-.803 1.309a3.316 3.316 0 01-1.221.803 4.349 4.349 0 01-1.54.264h-2.53v-7.887zm1.034.946v6.006h1.496c.404 0 .774-.063 1.111-.187.338-.125.627-.316.869-.572.242-.264.429-.598.561-1.001.132-.404.198-.884.198-1.441 0-.55-.066-1.005-.198-1.364-.132-.367-.315-.657-.55-.869a1.823 1.823 0 00-.825-.44 3.956 3.956 0 00-1.045-.132h-1.617zm6.546-.946h1.045v5.192c0 .638.18 1.111.539 1.419.367.308.865.462 1.496.462.308 0 .59-.037.847-.11.264-.081.491-.198.682-.352.191-.162.337-.36.44-.594.11-.235.165-.51.165-.825v-5.192h.99v5.159c0 .454-.081.858-.242 1.21a2.529 2.529 0 01-.671.891 2.843 2.843 0 01-.99.55 3.998 3.998 0 01-1.243.187 4.03 4.03 0 01-1.21-.176 2.828 2.828 0 01-.979-.528 2.469 2.469 0 01-.638-.869 3.022 3.022 0 01-.231-1.221v-5.203zm7.803 0h2.64c.931 0 1.639.183 2.123.55.491.359.737.927.737 1.705 0 .689-.169 1.217-.506 1.584-.33.366-.766.608-1.309.726l2.145 3.322h-1.166l-2.057-3.201h-1.573v3.201h-1.034v-7.887zm1.034.946v2.805h1.507c.279 0 .532-.026.759-.077.235-.052.433-.136.594-.253.169-.118.297-.272.385-.462.095-.198.143-.44.143-.726 0-.47-.154-.8-.462-.99-.308-.198-.748-.297-1.32-.297h-1.606zm8.178-.946h1.54l2.827 7.887h-1.1l-.814-2.255h-3.487l-.803 2.255h-.968l2.805-7.887zm2.123 4.697l-1.408-3.927-1.408 3.927h2.816zm5.501-3.74v6.93h-1.045v-6.93h-2.431v-.957h5.907v.957h-2.431zm4.737-.957v7.887h-1.034v-7.887h1.034zm5.145 7.997a4.136 4.136 0 01-1.485-.264 3.448 3.448 0 01-1.199-.792 3.76 3.76 0 01-.803-1.276c-.19-.506-.286-1.089-.286-1.749 0-.66.096-1.24.286-1.738.198-.506.466-.924.803-1.254a3.236 3.236 0 011.199-.759 4.136 4.136 0 011.485-.264c.536 0 1.034.088 1.496.264.462.168.862.421 1.199.759.338.337.602.759.792 1.265.191.498.286 1.078.286 1.738 0 .652-.095 1.232-.286 1.738-.19.506-.454.931-.792 1.276a3.438 3.438 0 01-1.199.792c-.462.176-.96.264-1.496.264zm0-.935c.382 0 .734-.055 1.056-.165.323-.118.602-.297.836-.539.242-.25.429-.572.561-.968.14-.396.209-.877.209-1.441 0-.565-.069-1.045-.209-1.441-.132-.396-.319-.715-.561-.957a2.02 2.02 0 00-.836-.539 3.047 3.047 0 00-1.056-.176c-.381 0-.733.058-1.056.176-.322.11-.605.289-.847.539-.234.242-.421.561-.561.957-.132.396-.198.876-.198 1.441 0 .564.066 1.045.198 1.441.14.396.327.718.561.968.242.242.525.421.847.539.323.11.675.165 1.056.165zm11.501.825h-1.408l-3.96-6.622v6.622h-.979v-7.887h1.397l3.96 6.622v-6.622h.99v7.887z" fill="#18123D"/><path d="M230 245a5 5 0 015-5h190a5 5 0 015 5v40a5 5 0 01-5 5H235a5 5 0 01-5-5v-40z" fill="#FFF5CC"/><path d="M282.143 268.666a4.423 4.423 0 01-1.595-.275 3.519 3.519 0 01-1.232-.792 3.646 3.646 0 01-.781-1.276 4.99 4.99 0 01-.275-1.705c0-.638.085-1.207.253-1.705.169-.499.418-.921.748-1.265.33-.352.734-.62 1.21-.803.484-.184 1.034-.275 1.65-.275.536 0 1.005.058 1.408.176.404.11.734.242.99.396v.99a3.622 3.622 0 00-1.144-.473 5.357 5.357 0 00-1.265-.154c-.931 0-1.62.26-2.068.781-.44.513-.66 1.29-.66 2.332 0 1.048.239 1.829.715 2.343.484.513 1.196.77 2.134.77a4.22 4.22 0 001.177-.165c.389-.11.759-.297 1.111-.561v.99c-.212.168-.524.322-.935.462-.403.139-.883.209-1.441.209zm9.041-3.553h-4.048v3.443h-1.034v-7.887h1.034v3.509h4.048v-3.509h1.045v7.887h-1.045v-3.443zm2.878-4.444h4.884v.946h-3.85v2.387h3.267v.935h-3.267v2.684h3.905v.935h-4.939v-7.887zm9.834 7.997a4.423 4.423 0 01-1.595-.275 3.519 3.519 0 01-1.232-.792 3.646 3.646 0 01-.781-1.276 4.99 4.99 0 01-.275-1.705c0-.638.085-1.207.253-1.705.169-.499.418-.921.748-1.265.33-.352.734-.62 1.21-.803.484-.184 1.034-.275 1.65-.275.536 0 1.005.058 1.408.176.404.11.734.242.99.396v.99a3.622 3.622 0 00-1.144-.473 5.357 5.357 0 00-1.265-.154c-.931 0-1.62.26-2.068.781-.44.513-.66 1.29-.66 2.332 0 1.048.239 1.829.715 2.343.484.513 1.196.77 2.134.77a4.22 4.22 0 001.177-.165c.389-.11.759-.297 1.111-.561v.99c-.212.168-.524.322-.935.462-.403.139-.883.209-1.441.209zm5.829-3.487h-.836v3.377h-1.034v-7.887h1.034v3.575h.77l2.816-3.575h1.166l-3.113 3.938 3.234 3.949h-1.287l-2.75-3.377zm6.211-4.51v7.887h-1.034v-7.887h1.034zm8.181 7.887h-1.408l-3.96-6.622v6.622h-.979v-7.887h1.397l3.96 6.622v-6.622h.99v7.887zm8.505-3.091c0 .462-.07.887-.209 1.276a2.653 2.653 0 01-.616 1.012 2.883 2.883 0 01-1.056.671c-.418.161-.913.242-1.485.242a3.984 3.984 0 01-1.529-.286 3.493 3.493 0 01-1.188-.825 3.714 3.714 0 01-.77-1.276 4.795 4.795 0 01-.275-1.661c0-.609.088-1.163.264-1.661.176-.499.433-.924.77-1.276.345-.352.77-.624 1.276-.814.506-.198 1.089-.297 1.749-.297.337 0 .638.022.902.066.271.044.51.099.715.165.205.066.381.139.528.22.154.08.286.157.396.231v.99a7.51 7.51 0 00-.539-.286 4.214 4.214 0 00-1.265-.396 4.96 4.96 0 00-.77-.055c-.499 0-.931.069-1.298.209-.359.139-.66.344-.902.616-.235.264-.411.59-.528.979a4.46 4.46 0 00-.176 1.309c0 .982.231 1.749.693 2.299.469.542 1.118.814 1.947.814.411 0 .763-.052 1.056-.154.293-.11.532-.257.715-.44.183-.191.315-.415.396-.671.088-.264.132-.55.132-.858v-.22h-2.541v-.935h3.608v1.012zm.432 3.531h4.51v.825h-4.51v-.825zm10.402-3.883h-4.048v3.443h-1.034v-7.887h1.034v3.509h4.048v-3.509h1.045v7.887h-1.045v-3.443zm2.878-4.444h4.884v.946h-3.85v2.387h3.267v.935h-3.267v2.684h3.905v.935h-4.939v-7.887zm8.675 0h1.54l2.827 7.887h-1.1l-.814-2.255h-3.487l-.803 2.255h-.968l2.805-7.887zm2.123 4.697l-1.408-3.927-1.408 3.927h2.816zm8.265 3.19h-4.873v-7.887h1.034v6.952h3.839v.935zm3.208-6.93v6.93h-1.045v-6.93h-2.431v-.957h5.907v.957h-2.431zm8.785 3.487h-4.048v3.443h-1.034v-7.887h1.034v3.509h4.048v-3.509h1.045v7.887h-1.045v-3.443z" fill="#18123D"/><path d="M230 325a5 5 0 015-5h190a5 5 0 015 5v40a5 5 0 01-5 5H235a5 5 0 01-5-5v-40z" fill="#FFF5CC"/><path d="M284.069 348.666a4.136 4.136 0 01-1.485-.264 3.438 3.438 0 01-1.199-.792 3.76 3.76 0 01-.803-1.276c-.191-.506-.286-1.089-.286-1.749 0-.66.095-1.24.286-1.738.198-.506.466-.924.803-1.254a3.228 3.228 0 011.199-.759 4.136 4.136 0 011.485-.264c.535 0 1.034.088 1.496.264.462.168.862.421 1.199.759.337.337.601.759.792 1.265.191.498.286 1.078.286 1.738 0 .652-.095 1.232-.286 1.738a3.634 3.634 0 01-.792 1.276 3.438 3.438 0 01-1.199.792 4.169 4.169 0 01-1.496.264zm0-.935c.381 0 .733-.055 1.056-.165a2.2 2.2 0 00.836-.539c.242-.25.429-.572.561-.968.139-.396.209-.877.209-1.441 0-.565-.07-1.045-.209-1.441-.132-.396-.319-.715-.561-.957a2.026 2.026 0 00-.836-.539 3.055 3.055 0 00-1.056-.176c-.381 0-.733.058-1.056.176a2.11 2.11 0 00-.847.539c-.235.242-.422.561-.561.957-.132.396-.198.876-.198 1.441 0 .564.066 1.045.198 1.441.139.396.326.718.561.968.242.242.524.421.847.539.323.11.675.165 1.056.165zm5.154-7.062h2.519c.895 0 1.588.187 2.079.561.499.366.748.942.748 1.727 0 .447-.073.832-.22 1.155a2.037 2.037 0 01-.594.781 2.494 2.494 0 01-.924.451 4.513 4.513 0 01-1.177.143h-1.397v3.069h-1.034v-7.887zm1.034.946v2.937h1.397c.279 0 .532-.03.759-.088.227-.059.422-.151.583-.275.169-.125.297-.286.385-.484.095-.206.143-.451.143-.737 0-.477-.154-.822-.462-1.034-.308-.213-.748-.319-1.32-.319h-1.485zm5.68-.946h4.884v.946h-3.85v2.387h3.267v.935h-3.267v2.684h3.905v.935h-4.939v-7.887zm12.921 7.887h-1.408l-3.96-6.622v6.622h-.979v-7.887h1.397l3.96 6.622v-6.622h.99v7.887zm2.873-7.887v7.887h-1.034v-7.887h1.034zm8.181 7.887h-1.408l-3.96-6.622v6.622h-.979v-7.887h1.397l3.96 6.622v-6.622h.99v7.887zm8.504-3.091c0 .462-.069.887-.209 1.276a2.653 2.653 0 01-.616 1.012c-.278.286-.63.509-1.056.671-.418.161-.913.242-1.485.242a3.984 3.984 0 01-1.529-.286 3.493 3.493 0 01-1.188-.825 3.73 3.73 0 01-.77-1.276 4.795 4.795 0 01-.275-1.661c0-.609.088-1.163.264-1.661.176-.499.433-.924.77-1.276.345-.352.77-.624 1.276-.814.506-.198 1.089-.297 1.749-.297.338 0 .638.022.902.066.272.044.51.099.715.165.206.066.382.139.528.22.154.08.286.157.396.231v.99a7.304 7.304 0 00-.539-.286 4.214 4.214 0 00-1.265-.396 4.951 4.951 0 00-.77-.055c-.498 0-.931.069-1.298.209-.359.139-.66.344-.902.616-.234.264-.41.59-.528.979a4.46 4.46 0 00-.176 1.309c0 .982.231 1.749.693 2.299.47.542 1.119.814 1.947.814.411 0 .763-.052 1.056-.154a1.97 1.97 0 00.715-.44c.184-.191.316-.415.396-.671.088-.264.132-.55.132-.858v-.22h-2.541v-.935h3.608v1.012zm.432 3.531h4.51v.825h-4.51v-.825zm8.202-7.37v6.93h-1.045v-6.93h-2.431v-.957h5.907v.957h-2.431zm3.703-.957h2.64c.932 0 1.639.183 2.123.55.492.359.737.927.737 1.705 0 .689-.168 1.217-.506 1.584-.33.366-.766.608-1.309.726l2.145 3.322h-1.166l-2.057-3.201h-1.573v3.201h-1.034v-7.887zm1.034.946v2.805h1.507c.279 0 .532-.026.759-.077.235-.052.433-.136.594-.253.169-.118.297-.272.385-.462.096-.198.143-.44.143-.726 0-.47-.154-.8-.462-.99-.308-.198-.748-.297-1.32-.297h-1.606zm8.179-.946h1.54l2.827 7.887h-1.1l-.814-2.255h-3.487l-.803 2.255h-.968l2.805-7.887zm2.123 4.697l-1.408-3.927-1.408 3.927h2.816zm3.392-4.697h4.818v.946h-3.784v2.618h3.212v.935h-3.212v3.388h-1.034v-7.887zm6.252 0h4.818v.946h-3.784v2.618h3.212v.935h-3.212v3.388h-1.034v-7.887zm7.286 0v7.887h-1.034v-7.887h1.034zm5.255 7.997a4.42 4.42 0 01-1.595-.275 3.51 3.51 0 01-1.232-.792 3.631 3.631 0 01-.781-1.276 4.99 4.99 0 01-.275-1.705c0-.638.084-1.207.253-1.705.169-.499.418-.921.748-1.265.33-.352.733-.62 1.21-.803.484-.184 1.034-.275 1.65-.275.535 0 1.005.058 1.408.176.403.11.733.242.99.396v.99a3.622 3.622 0 00-1.144-.473 5.357 5.357 0 00-1.265-.154c-.931 0-1.621.26-2.068.781-.44.513-.66 1.29-.66 2.332 0 1.048.238 1.829.715 2.343.484.513 1.195.77 2.134.77.403 0 .796-.055 1.177-.165.389-.11.759-.297 1.111-.561v.99c-.213.168-.524.322-.935.462-.403.139-.884.209-1.441.209z" fill="#18123D"/><path d="M330 479.985l2.887-5h-5.774l2.887 5zM329.5 450V475.484h1v-.025-.025-.026-.025-.025-.025-.026-.025-.026-.026-.025-.026-.026-.026-.026-.026-.027-.026-.026-.027-.026-.027-.027-.027-.026-.027-.028-.027-.027-.027-.028-.027-.028-.027-.028-.028-.028-.028-.028-.028-.028-.029-.028-.029-.028-.029-.029-.029-.028-.029-.03-.029-.029-.029-.03-.029-.03-.03-.029-.03-.03-.03-.031-.03-.03-.03-.031-.03-.031-.031-.031-.031-.031-.031-.031-.031-.032-.031-.032-.031-.032-.032-.032-.032-.032-.032-.032-.032-.033-.032-.033-.033-.032-.033-.033-.033-.033-.034-.033-.033-.034-.034-.033-.034-.034-.034-.034-.034-.034-.035-.034-.035-.034-.035-.035-.034-.035-.035-.036-.035-.035-.036-.035-.036-.035-.036-.036-.036-.036-.036-.037-.036-.036-.037-.037-.036-.037-.037-.037-.037-.037-.038-.037-.038-.037-.038-.038-.037-.038-.038-.039-.038-.038-.039-.038-.039-.038-.039-.039-.039-.039-.039-.04-.039-.04-.039-.04-.04-.04-.04-.04-.04-.04-.04-.041-.04-.041-.041-.041-.041-.041-.041-.041-.041-.042-.041-.042-.042-.042-.042-.042-.042-.042-.042-.043-.042-.043-.043-.042-.043-.043-.043-.044-.043-.043-.044-.044-.043-.044-.044-.044-.044-.045-.044-.044-.045-.044-.045-.045-.045-.045-.045-.045-.046-.045-.046-.045-.046-.046-.046-.046-.046-.047-.046-.046-.047-.047-.047-.046-.047-.048-.047-.047-.048-.047-.048-.047-.048-.048-.048-.048-.049-.048-.048-.049-.049-.048-.049-.049-.049-.05-.049-.049-.05-.049-.05-.05-.05-.05-.05-.05-.051-.05-.051-.051-.05-.051-.051-.051-.052-.051-.051-.052-.052-.051-.052-.052-.052-.053-.052-.052-.053-.052-.053-.053-.053-.053-.053-.054-.053-.053-.054-.054-.054-.054-.054-.054-.054-.054-.055-.055-.054-.055-.055-.055-.055-.056-.055-.055-.056-.056-.056-.056-.056-.056-.056-.056-.057-.057-.056-.057-.057-.057-.057-.058-.057-.058-.057-.058-.058-.058-.058-.058-.058-.059-.058-.059-.059-.059-.059-.059-.059-.059-.06-.059-.06-.06-.06-.06-.06-.06-.06-.061-.061-.06-.061-.061-.061-.061-.062-.061-.062-.061-.062-.062-.062-.062-.062-.063-.062-.063-.062-.063-.063-.063-.063-.064-.063-.063-.064-.064-.064-.064-.064-.064-.064-.065-.064-.065-.065-.065-.065-.065-.066-.065-.066-.065-.066-.066-.066-.066-.066-.067-.066-.067-.067-.066-.067-.068-.067-.067-.068-.067-.068-.068-.068-.068-.068-.068-.069-.068-.069-.069-.069-.069-.069-.069-.07-.069-.07-.07-.07-.07-.07-.07-.07-.071-.071-.07-.071-.071-.071-.072-.071-.072-.071-.072-.072-.072-.072-.072-.073-.072-.073-.073-.073-.073-.073-.073-.073-.074-.074-.073-.074-.074-.075-.074-.074-.075-.074-.075-.075-.075-.075-.076-.075-.076-.075-.076-.076-.076-.076-.077-.076-.077-.076-.077-.077-.077-.077-.078-.077-.078-.078-.077-.078-.078-.079-.078-.079-.078V450h-1zM330 399.985l2.887-5h-5.774l2.887 5zM329.5 370V395.484h1v-.025-.025-.026-.025-.025-.025-.026-.025-.026-.026-.025-.026-.026-.026-.026-.026-.027-.026-.026-.027-.026-.027-.027-.027-.026-.027-.028-.027-.027-.027-.028-.027-.028-.027-.028-.028-.028-.028-.028-.028-.028-.029-.028-.029-.028-.029-.029-.029-.028-.029-.03-.029-.029-.029-.03-.029-.03-.03-.029-.03-.03-.03-.031-.03-.03-.03-.031-.03-.031-.031-.031-.031-.031-.031-.031-.031-.032-.031-.032-.031-.032-.032-.032-.032-.032-.032-.032-.032-.033-.032-.033-.033-.032-.033-.033-.033-.033-.034-.033-.033-.034-.034-.033-.034-.034-.034-.034-.034-.034-.035-.034-.035-.034-.035-.035-.034-.035-.035-.036-.035-.035-.036-.035-.036-.035-.036-.036-.036-.036-.036-.037-.036-.036-.037-.037-.036-.037-.037-.037-.037-.037-.038-.037-.038-.037-.038-.038-.037-.038-.038-.039-.038-.038-.039-.038-.039-.038-.039-.039-.039-.039-.039-.04-.039-.04-.039-.04-.04-.04-.04-.04-.04-.04-.04-.041-.04-.041-.041-.041-.041-.041-.041-.041-.041-.042-.041-.042-.042-.042-.042-.042-.042-.042-.042-.043-.042-.043-.043-.042-.043-.043-.043-.044-.043-.043-.044-.044-.043-.044-.044-.044-.044-.045-.044-.044-.045-.044-.045-.045-.045-.045-.045-.045-.046-.045-.046-.045-.046-.046-.046-.046-.046-.047-.046-.046-.047-.047-.047-.046-.047-.048-.047-.047-.048-.047-.048-.047-.048-.048-.048-.048-.049-.048-.048-.049-.049-.048-.049-.049-.049-.05-.049-.049-.05-.049-.05-.05-.05-.05-.05-.05-.051-.05-.051-.051-.05-.051-.051-.051-.052-.051-.051-.052-.052-.051-.052-.052-.052-.053-.052-.052-.053-.052-.053-.053-.053-.053-.053-.054-.053-.053-.054-.054-.054-.054-.054-.054-.054-.054-.055-.055-.054-.055-.055-.055-.055-.056-.055-.055-.056-.056-.056-.056-.056-.056-.056-.056-.057-.057-.056-.057-.057-.057-.057-.058-.057-.058-.057-.058-.058-.058-.058-.058-.058-.059-.058-.059-.059-.059-.059-.059-.059-.059-.06-.059-.06-.06-.06-.06-.06-.06-.06-.061-.061-.06-.061-.061-.061-.061-.062-.061-.062-.061-.062-.062-.062-.062-.062-.063-.062-.063-.062-.063-.063-.063-.063-.064-.063-.063-.064-.064-.064-.064-.064-.064-.064-.065-.064-.065-.065-.065-.065-.065-.066-.065-.066-.065-.066-.066-.066-.066-.066-.067-.066-.067-.067-.066-.067-.068-.067-.067-.068-.067-.068-.068-.068-.068-.068-.068-.069-.068-.069-.069-.069-.069-.069-.069-.07-.069-.07-.07-.07-.07-.07-.07-.07-.071-.071-.07-.071-.071-.071-.072-.071-.072-.071-.072-.072-.072-.072-.072-.073-.072-.073-.073-.073-.073-.073-.073-.073-.074-.074-.073-.074-.074-.075-.074-.074-.075-.074-.075-.075-.075-.075-.076-.075-.076-.075-.076-.076-.076-.076-.077-.076-.077-.076-.077-.077-.077-.077-.078-.077-.078-.078-.077-.078-.078-.079-.078-.079-.078V370h-1z" fill="#18123D" fill-opacity=".7"/><path d="M230 405a5 5 0 015-5h190a5 5 0 015 5v40a5 5 0 01-5 5H235a5 5 0 01-5-5v-40z" fill="#FFF5CC"/><path d="M248.318 420.669h1.54l2.827 7.887h-1.1l-.814-2.255h-3.487l-.803 2.255h-.968l2.805-7.887zm2.123 4.697l-1.408-3.927-1.408 3.927h2.816zm10.627 3.19h-1.518l-1.738-6.094-1.749 6.094h-1.529l-1.738-7.887h1.078l1.496 6.996 2.024-6.996h.946l1.98 6.864 1.485-6.864h1.001l-1.738 7.887zm4.663-7.887h1.54l2.827 7.887h-1.1l-.814-2.255h-3.487l-.803 2.255h-.968l2.805-7.887zm2.123 4.697l-1.408-3.927-1.408 3.927h2.816zm4.426-4.697v7.887h-1.034v-7.887h1.034zm4.716.957v6.93h-1.045v-6.93h-2.431v-.957h5.907v.957h-2.431zm4.737-.957v7.887h-1.034v-7.887h1.034zm8.181 7.887h-1.408l-3.96-6.622v6.622h-.979v-7.887h1.397l3.96 6.622v-6.622h.99v7.887zm8.505-3.091c0 .462-.07.887-.209 1.276a2.665 2.665 0 01-.616 1.012 2.883 2.883 0 01-1.056.671c-.418.161-.913.242-1.485.242a3.98 3.98 0 01-1.529-.286 3.493 3.493 0 01-1.188-.825 3.714 3.714 0 01-.77-1.276 4.772 4.772 0 01-.275-1.661c0-.609.088-1.163.264-1.661.176-.499.432-.924.77-1.276.344-.352.77-.624 1.276-.814.506-.198 1.089-.297 1.749-.297.337 0 .638.022.902.066.271.044.509.099.715.165.205.066.381.139.528.22.154.08.286.157.396.231v.99a7.51 7.51 0 00-.539-.286 3.582 3.582 0 00-.594-.242 4.24 4.24 0 00-.671-.154 4.97 4.97 0 00-.77-.055c-.499 0-.932.069-1.298.209-.36.139-.66.344-.902.616-.235.264-.411.59-.528.979a4.426 4.426 0 00-.176 1.309c0 .982.231 1.749.693 2.299.469.542 1.118.814 1.947.814.41 0 .762-.052 1.056-.154.293-.11.531-.257.715-.44.183-.191.315-.415.396-.671.088-.264.132-.55.132-.858v-.22h-2.541v-.935h3.608v1.012zm.432 3.531h4.51v.825h-4.51v-.825zm12.888-.44h-1.518l-1.738-6.094-1.749 6.094h-1.529l-1.738-7.887h1.078l1.496 6.996 2.024-6.996h.946l1.98 6.864 1.485-6.864h1.001l-1.738 7.887zm4.663-7.887h1.54l2.827 7.887h-1.1l-.814-2.255h-3.487l-.803 2.255h-.968l2.805-7.887zm2.123 4.697l-1.408-3.927-1.408 3.927h2.816zm3.392-4.697h2.64c.931 0 1.639.183 2.123.55.491.359.737.927.737 1.705 0 .689-.169 1.217-.506 1.584-.33.366-.767.608-1.309.726l2.145 3.322h-1.166l-2.057-3.201h-1.573v3.201h-1.034v-7.887zm1.034.946v2.805h1.507c.278 0 .531-.026.759-.077.234-.052.432-.136.594-.253.168-.118.297-.272.385-.462.095-.198.143-.44.143-.726 0-.47-.154-.8-.462-.99-.308-.198-.748-.297-1.32-.297h-1.606zm10.025 4.587l2.563-5.533h1.342v7.887h-1.045v-6.347l-2.42 5.137-.517.011h-.462l.011-.011-2.387-5.225v6.435h-.979v-7.887h1.441l2.453 5.533zm5.555-5.533h1.045v5.192c0 .638.179 1.111.539 1.419.366.308.865.462 1.496.462.308 0 .59-.037.847-.11.264-.081.491-.198.682-.352.19-.162.337-.36.44-.594.11-.235.165-.51.165-.825v-5.192h.99v5.159c0 .454-.081.858-.242 1.21a2.54 2.54 0 01-.671.891 2.843 2.843 0 01-.99.55 4.003 4.003 0 01-1.243.187 4.03 4.03 0 01-1.21-.176 2.82 2.82 0 01-.979-.528 2.457 2.457 0 01-.638-.869 3.022 3.022 0 01-.231-1.221v-5.203zm7.803 0h2.519c.894 0 1.587.187 2.079.561.498.366.748.942.748 1.727 0 .447-.074.832-.22 1.155-.14.315-.338.575-.594.781a2.494 2.494 0 01-.924.451 4.519 4.519 0 01-1.177.143h-1.397v3.069h-1.034v-7.887zm1.034.946v2.937h1.397c.278 0 .531-.03.759-.088.227-.059.421-.151.583-.275a1.2 1.2 0 00.385-.484c.095-.206.143-.451.143-.737 0-.477-.154-.822-.462-1.034-.308-.213-.748-.319-1.32-.319h-1.485zm4.646 7.381h4.51v.825h-4.51v-.825zm5.32-8.327h2.651c.528 0 1.019.062 1.474.187.454.124.85.33 1.188.616.337.286.601.663.792 1.133.19.469.286 1.048.286 1.738 0 .696-.099 1.309-.297 1.837a3.64 3.64 0 01-.803 1.309 3.333 3.333 0 01-1.221.803c-.47.176-.983.264-1.54.264h-2.53v-7.887zm1.034.946v6.006h1.496c.403 0 .773-.063 1.111-.187.337-.125.627-.316.869-.572.242-.264.429-.598.561-1.001.132-.404.198-.884.198-1.441 0-.55-.066-1.005-.198-1.364-.132-.367-.316-.657-.55-.869a1.833 1.833 0 00-.825-.44 3.961 3.961 0 00-1.045-.132h-1.617zm6.545-.946h1.045v5.192c0 .638.18 1.111.539 1.419.367.308.866.462 1.496.462.308 0 .591-.037.847-.11.264-.081.492-.198.682-.352.191-.162.338-.36.44-.594.11-.235.165-.51.165-.825v-5.192h.99v5.159c0 .454-.08.858-.242 1.21a2.529 2.529 0 01-.671.891 2.826 2.826 0 01-.99.55 3.994 3.994 0 01-1.243.187c-.432 0-.836-.059-1.21-.176a2.828 2.828 0 01-.979-.528 2.469 2.469 0 01-.638-.869 3.022 3.022 0 01-.231-1.221v-5.203zm7.804 0h2.64c.931 0 1.639.183 2.123.55.491.359.737.927.737 1.705 0 .689-.169 1.217-.506 1.584-.33.366-.767.608-1.309.726l2.145 3.322h-1.166l-2.057-3.201h-1.573v3.201h-1.034v-7.887zm1.034.946v2.805h1.507c.278 0 .531-.026.759-.077.234-.052.432-.136.594-.253.168-.118.297-.272.385-.462.095-.198.143-.44.143-.726 0-.47-.154-.8-.462-.99-.308-.198-.748-.297-1.32-.297h-1.606zm8.178-.946h1.54l2.827 7.887h-1.1l-.814-2.255h-3.487l-.803 2.255h-.968l2.805-7.887zm2.123 4.697l-1.408-3.927-1.408 3.927h2.816zm5.501-3.74v6.93h-1.045v-6.93h-2.431v-.957h5.907v.957h-2.431zm4.737-.957v7.887h-1.034v-7.887h1.034zm5.145 7.997a4.136 4.136 0 01-1.485-.264 3.438 3.438 0 01-1.199-.792 3.76 3.76 0 01-.803-1.276c-.191-.506-.286-1.089-.286-1.749 0-.66.095-1.24.286-1.738.198-.506.466-.924.803-1.254a3.228 3.228 0 011.199-.759 4.136 4.136 0 011.485-.264c.535 0 1.034.088 1.496.264.462.168.862.421 1.199.759.337.337.601.759.792 1.265.191.498.286 1.078.286 1.738 0 .652-.095 1.232-.286 1.738a3.634 3.634 0 01-.792 1.276 3.438 3.438 0 01-1.199.792 4.169 4.169 0 01-1.496.264zm0-.935c.381 0 .733-.055 1.056-.165a2.2 2.2 0 00.836-.539c.242-.25.429-.572.561-.968.139-.396.209-.877.209-1.441 0-.565-.07-1.045-.209-1.441-.132-.396-.319-.715-.561-.957a2.026 2.026 0 00-.836-.539 3.055 3.055 0 00-1.056-.176c-.381 0-.733.058-1.056.176a2.11 2.11 0 00-.847.539c-.235.242-.422.561-.561.957-.132.396-.198.876-.198 1.441 0 .564.066 1.045.198 1.441.139.396.326.718.561.968.242.242.524.421.847.539.323.11.675.165 1.056.165zm11.501.825h-1.408l-3.96-6.622v6.622h-.979v-7.887h1.397l3.96 6.622v-6.622h.99v7.887z" fill="#18123D"/><path d="M460 485a5 5 0 015-5h190a5 5 0 015 5v40a5 5 0 01-5 5H465a5 5 0 01-5-5v-40z" fill="#DDF2E1"/><path d="M503.303 500.669h2.64c.931 0 1.639.183 2.123.55.491.359.737.927.737 1.705 0 .689-.169 1.217-.506 1.584-.33.366-.766.608-1.309.726l2.145 3.322h-1.166l-2.057-3.201h-1.573v3.201h-1.034v-7.887zm1.034.946v2.805h1.507c.279 0 .532-.026.759-.077.235-.052.433-.136.594-.253.169-.118.297-.272.385-.462.095-.198.143-.44.143-.726 0-.47-.154-.8-.462-.99-.308-.198-.748-.297-1.32-.297h-1.606zm5.837-.946h1.045v5.192c0 .638.179 1.111.539 1.419.366.308.865.462 1.496.462.308 0 .59-.037.847-.11.264-.081.491-.198.682-.352.19-.162.337-.36.44-.594.11-.235.165-.51.165-.825v-5.192h.99v5.159c0 .454-.081.858-.242 1.21a2.54 2.54 0 01-.671.891 2.843 2.843 0 01-.99.55 4.003 4.003 0 01-1.243.187 4.03 4.03 0 01-1.21-.176 2.82 2.82 0 01-.979-.528 2.457 2.457 0 01-.638-.869 3.022 3.022 0 01-.231-1.221v-5.203zm14.15 7.887h-1.408l-3.96-6.622v6.622h-.979v-7.887h1.397l3.96 6.622v-6.622h.99v7.887zm8.185 0h-1.408l-3.96-6.622v6.622h-.979v-7.887h1.397l3.96 6.622v-6.622h.99v7.887zm2.873-7.887v7.887h-1.034v-7.887h1.034zm8.181 7.887h-1.408l-3.96-6.622v6.622h-.979v-7.887h1.397l3.96 6.622v-6.622h.99v7.887zm8.505-3.091c0 .462-.07.887-.209 1.276a2.665 2.665 0 01-.616 1.012 2.883 2.883 0 01-1.056.671c-.418.161-.913.242-1.485.242a3.98 3.98 0 01-1.529-.286 3.493 3.493 0 01-1.188-.825 3.714 3.714 0 01-.77-1.276 4.772 4.772 0 01-.275-1.661c0-.609.088-1.163.264-1.661.176-.499.432-.924.77-1.276.344-.352.77-.624 1.276-.814.506-.198 1.089-.297 1.749-.297.337 0 .638.022.902.066.271.044.509.099.715.165.205.066.381.139.528.22.154.08.286.157.396.231v.99a7.51 7.51 0 00-.539-.286 3.582 3.582 0 00-.594-.242 4.24 4.24 0 00-.671-.154 4.97 4.97 0 00-.77-.055c-.499 0-.932.069-1.298.209-.36.139-.66.344-.902.616-.235.264-.411.59-.528.979a4.426 4.426 0 00-.176 1.309c0 .982.231 1.749.693 2.299.469.542 1.118.814 1.947.814.41 0 .762-.052 1.056-.154.293-.11.531-.257.715-.44.183-.191.315-.415.396-.671.088-.264.132-.55.132-.858v-.22h-2.541v-.935h3.608v1.012zm.432 3.531h4.51v.825h-4.51v-.825zm8.631-.33a4.136 4.136 0 01-1.485-.264 3.438 3.438 0 01-1.199-.792 3.745 3.745 0 01-.803-1.276c-.191-.506-.286-1.089-.286-1.749 0-.66.095-1.24.286-1.738.198-.506.465-.924.803-1.254a3.228 3.228 0 011.199-.759 4.136 4.136 0 011.485-.264c.535 0 1.034.088 1.496.264.462.168.861.421 1.199.759.337.337.601.759.792 1.265.19.498.286 1.078.286 1.738 0 .652-.096 1.232-.286 1.738a3.634 3.634 0 01-.792 1.276 3.448 3.448 0 01-1.199.792 4.169 4.169 0 01-1.496.264zm0-.935c.381 0 .733-.055 1.056-.165.322-.118.601-.297.836-.539.242-.25.429-.572.561-.968.139-.396.209-.877.209-1.441 0-.565-.07-1.045-.209-1.441-.132-.396-.319-.715-.561-.957a2.032 2.032 0 00-.836-.539 3.055 3.055 0 00-1.056-.176c-.382 0-.734.058-1.056.176a2.11 2.11 0 00-.847.539c-.235.242-.422.561-.561.957-.132.396-.198.876-.198 1.441 0 .564.066 1.045.198 1.441.139.396.326.718.561.968.242.242.524.421.847.539.322.11.674.165 1.056.165zm4.966-7.062h1.045v5.192c0 .638.18 1.111.539 1.419.367.308.866.462 1.496.462.308 0 .591-.037.847-.11.264-.081.492-.198.682-.352.191-.162.338-.36.44-.594.11-.235.165-.51.165-.825v-5.192h.99v5.159c0 .454-.08.858-.242 1.21a2.529 2.529 0 01-.671.891 2.826 2.826 0 01-.99.55 3.994 3.994 0 01-1.243.187c-.432 0-.836-.059-1.21-.176a2.828 2.828 0 01-.979-.528 2.469 2.469 0 01-.638-.869 3.022 3.022 0 01-.231-1.221v-5.203zm10.686.957v6.93h-1.045v-6.93h-2.431v-.957h5.907v.957h-2.431zm3.703-.957h2.651c.528 0 1.019.062 1.474.187.454.124.85.33 1.188.616.337.286.601.663.792 1.133.19.469.286 1.048.286 1.738 0 .696-.099 1.309-.297 1.837a3.64 3.64 0 01-.803 1.309 3.333 3.333 0 01-1.221.803c-.47.176-.983.264-1.54.264h-2.53v-7.887zm1.034.946v6.006h1.496c.403 0 .773-.063 1.111-.187.337-.125.627-.316.869-.572.242-.264.429-.598.561-1.001.132-.404.198-.884.198-1.441 0-.55-.066-1.005-.198-1.364-.132-.367-.316-.657-.55-.869a1.833 1.833 0 00-.825-.44 3.961 3.961 0 00-1.045-.132h-1.617zm8.5-.946h1.54l2.827 7.887h-1.1l-.814-2.255h-3.487l-.803 2.255h-.968l2.805-7.887zm2.123 4.697l-1.408-3.927-1.408 3.927h2.816zm5.501-3.74v6.93h-1.045v-6.93h-2.431v-.957h5.907v.957h-2.431zm3.703-.957h4.884v.946h-3.85v2.387h3.267v.935h-3.267v2.684h3.905v.935h-4.939v-7.887zm6.574 0h2.651c.528 0 1.02.062 1.474.187.455.124.851.33 1.188.616.338.286.602.663.792 1.133.191.469.286 1.048.286 1.738 0 .696-.099 1.309-.297 1.837-.19.52-.458.957-.803 1.309a3.316 3.316 0 01-1.221.803 4.349 4.349 0 01-1.54.264h-2.53v-7.887zm1.034.946v6.006h1.496c.404 0 .774-.063 1.111-.187.338-.125.627-.316.869-.572.242-.264.429-.598.561-1.001.132-.404.198-.884.198-1.441 0-.55-.066-1.005-.198-1.364-.132-.367-.315-.657-.55-.869a1.823 1.823 0 00-.825-.44 3.956 3.956 0 00-1.045-.132h-1.617z" fill="#18123D"/><path d="M200.015 745l5 2.887v-5.774l-5 2.887zm29.985-.5H204.516v1H230v-1zM430.015 750l5 2.887v-5.774l-5 2.887zm29.985-.5H434.516v1H460v-1zM459.985 505l-5-2.887v5.774l5-2.887zm-29.985.5H455.484v-1H430v1zM459.985 740l-5-2.887v5.774l5-2.887zm-29.985.5H455.484v-1H430v1zM330 559.985l2.887-5h-5.774l2.887 5zM329.5 530V555.484h1v-.025-.025-.026-.025-.025-.025-.026-.025-.026-.026-.025-.026-.026-.026-.026-.026-.027-.026-.026-.027-.026-.027-.027-.027-.026-.027-.028-.027-.027-.027-.028-.027-.028-.027-.028-.028-.028-.028-.028-.028-.028-.029-.028-.029-.028-.029-.029-.029-.028-.029-.03-.029-.029-.029-.03-.029-.03-.03-.029-.03-.03-.03-.031-.03-.03-.03-.031-.03-.031-.031-.031-.031-.031-.031-.031-.031-.032-.031-.032-.031-.032-.032-.032-.032-.032-.032-.032-.032-.033-.032-.033-.033-.032-.033-.033-.033-.033-.034-.033-.033-.034-.034-.033-.034-.034-.034-.034-.034-.034-.035-.034-.035-.034-.035-.035-.034-.035-.035-.036-.035-.035-.036-.035-.036-.035-.036-.036-.036-.036-.036-.037-.036-.036-.037-.037-.036-.037-.037-.037-.037-.037-.038-.037-.038-.037-.038-.038-.037-.038-.038-.039-.038-.038-.039-.038-.039-.038-.039-.039-.039-.039-.039-.04-.039-.04-.039-.04-.04-.04-.04-.04-.04-.04-.04-.041-.04-.041-.041-.041-.041-.041-.041-.041-.041-.042-.041-.042-.042-.042-.042-.042-.042-.042-.042-.043-.042-.043-.043-.042-.043-.043-.043-.044-.043-.043-.044-.044-.043-.044-.044-.044-.044-.045-.044-.044-.045-.044-.045-.045-.045-.045-.045-.045-.046-.045-.046-.045-.046-.046-.046-.046-.046-.047-.046-.046-.047-.047-.047-.046-.047-.048-.047-.047-.048-.047-.048-.047-.048-.048-.048-.048-.049-.048-.048-.049-.049-.048-.049-.049-.049-.05-.049-.049-.05-.049-.05-.05-.05-.05-.05-.05-.051-.05-.051-.051-.05-.051-.051-.051-.052-.051-.051-.052-.052-.051-.052-.052-.052-.053-.052-.052-.053-.052-.053-.053-.053-.053-.053-.054-.053-.053-.054-.054-.054-.054-.054-.054-.054-.054-.055-.055-.054-.055-.055-.055-.055-.056-.055-.055-.056-.056-.056-.056-.056-.056-.056-.056-.057-.057-.056-.057-.057-.057-.057-.058-.057-.058-.057-.058-.058-.058-.058-.058-.058-.059-.058-.059-.059-.059-.059-.059-.059-.059-.06-.059-.06-.06-.06-.06-.06-.06-.06-.061-.061-.06-.061-.061-.061-.061-.062-.061-.062-.061-.062-.062-.062-.062-.062-.063-.062-.063-.062-.063-.063-.063-.063-.064-.063-.063-.064-.064-.064-.064-.064-.064-.064-.065-.064-.065-.065-.065-.065-.065-.066-.065-.066-.065-.066-.066-.066-.066-.066-.067-.066-.067-.067-.066-.067-.068-.067-.067-.068-.067-.068-.068-.068-.068-.068-.068-.069-.068-.069-.069-.069-.069-.069-.069-.07-.069-.07-.07-.07-.07-.07-.07-.07-.071-.071-.07-.071-.071-.071-.072-.071-.072-.071-.072-.072-.072-.072-.072-.073-.072-.073-.073-.073-.073-.073-.073-.073-.074-.074-.073-.074-.074-.075-.074-.074-.075-.074-.075-.075-.075-.075-.076-.075-.076-.075-.076-.076-.076-.076-.077-.076-.077-.076-.077-.077-.077-.077-.078-.077-.078-.078-.077-.078-.078-.079-.078-.079-.078V530h-1zM330 639.985l2.887-5h-5.774l2.887 5zM329.5 610V635.484h1v-.025-.025-.026-.025-.025-.025-.026-.025-.026-.026-.025-.026-.026-.026-.026-.026-.027-.026-.026-.027-.026-.027-.027-.027-.026-.027-.028-.027-.027-.027-.028-.027-.028-.027-.028-.028-.028-.028-.028-.028-.028-.029-.028-.029-.028-.029-.029-.029-.028-.029-.03-.029-.029-.029-.03-.029-.03-.03-.029-.03-.03-.03-.031-.03-.03-.03-.031-.03-.031-.031-.031-.031-.031-.031-.031-.031-.032-.031-.032-.031-.032-.032-.032-.032-.032-.032-.032-.032-.033-.032-.033-.033-.032-.033-.033-.033-.033-.034-.033-.033-.034-.034-.033-.034-.034-.034-.034-.034-.034-.035-.034-.035-.034-.035-.035-.034-.035-.035-.036-.035-.035-.036-.035-.036-.035-.036-.036-.036-.036-.036-.037-.036-.036-.037-.037-.036-.037-.037-.037-.037-.037-.038-.037-.038-.037-.038-.038-.037-.038-.038-.039-.038-.038-.039-.038-.039-.038-.039-.039-.039-.039-.039-.04-.039-.04-.039-.04-.04-.04-.04-.04-.04-.04-.04-.041-.04-.041-.041-.041-.041-.041-.041-.041-.041-.042-.041-.042-.042-.042-.042-.042-.042-.042-.042-.043-.042-.043-.043-.042-.043-.043-.043-.044-.043-.043-.044-.044-.043-.044-.044-.044-.044-.045-.044-.044-.045-.044-.045-.045-.045-.045-.045-.045-.046-.045-.046-.045-.046-.046-.046-.046-.046-.047-.046-.046-.047-.047-.047-.046-.047-.048-.047-.047-.048-.047-.048-.047-.048-.048-.048-.048-.049-.048-.048-.049-.049-.048-.049-.049-.049-.05-.049-.049-.05-.049-.05-.05-.05-.05-.05-.05-.051-.05-.051-.051-.05-.051-.051-.051-.052-.051-.051-.052-.052-.051-.052-.052-.052-.053-.052-.052-.053-.052-.053-.053-.053-.053-.053-.054-.053-.053-.054-.054-.054-.054-.054-.054-.054-.054-.055-.055-.054-.055-.055-.055-.055-.056-.055-.055-.056-.056-.056-.056-.056-.056-.056-.056-.057-.057-.056-.057-.057-.057-.057-.058-.057-.058-.057-.058-.058-.058-.058-.058-.058-.059-.058-.059-.059-.059-.059-.059-.059-.059-.06-.059-.06-.06-.06-.06-.06-.06-.06-.061-.061-.06-.061-.061-.061-.061-.062-.061-.062-.061-.062-.062-.062-.062-.062-.063-.062-.063-.062-.063-.063-.063-.063-.064-.063-.063-.064-.064-.064-.064-.064-.064-.064-.065-.064-.065-.065-.065-.065-.065-.066-.065-.066-.065-.066-.066-.066-.066-.066-.067-.066-.067-.067-.066-.067-.068-.067-.067-.068-.067-.068-.068-.068-.068-.068-.068-.069-.068-.069-.069-.069-.069-.069-.069-.07-.069-.07-.07-.07-.07-.07-.07-.07-.071-.071-.07-.071-.071-.071-.072-.071-.072-.071-.072-.072-.072-.072-.072-.073-.072-.073-.073-.073-.073-.073-.073-.073-.074-.074-.073-.074-.074-.075-.074-.074-.075-.074-.075-.075-.075-.075-.076-.075-.076-.075-.076-.076-.076-.076-.077-.076-.077-.076-.077-.077-.077-.077-.078-.077-.078-.078-.077-.078-.078-.079-.078-.079-.078V610h-1z" fill="#18123D" fill-opacity=".7"/><path d="M230 565a5 5 0 015-5h190a5 5 0 015 5v40a5 5 0 01-5 5H235a5 5 0 01-5-5v-40z" fill="#FFF5CC"/><path d="M285.049 588.666a4.423 4.423 0 01-1.595-.275 3.519 3.519 0 01-1.232-.792 3.646 3.646 0 01-.781-1.276 4.99 4.99 0 01-.275-1.705c0-.638.085-1.207.253-1.705.169-.499.418-.921.748-1.265.33-.352.734-.62 1.21-.803.484-.184 1.034-.275 1.65-.275.536 0 1.005.058 1.408.176.404.11.734.242.99.396v.99a3.622 3.622 0 00-1.144-.473 5.357 5.357 0 00-1.265-.154c-.931 0-1.62.26-2.068.781-.44.513-.66 1.29-.66 2.332 0 1.048.239 1.829.715 2.343.484.513 1.196.77 2.134.77a4.22 4.22 0 001.177-.165c.389-.11.759-.297 1.111-.561v.99c-.212.168-.524.322-.935.462-.403.139-.883.209-1.441.209zm8.832-.11h-4.873v-7.887h1.034v6.952h3.839v.935zm4.4.11a4.136 4.136 0 01-1.485-.264 3.438 3.438 0 01-1.199-.792 3.76 3.76 0 01-.803-1.276c-.191-.506-.286-1.089-.286-1.749 0-.66.095-1.24.286-1.738.198-.506.466-.924.803-1.254a3.228 3.228 0 011.199-.759 4.136 4.136 0 011.485-.264c.535 0 1.034.088 1.496.264.462.168.862.421 1.199.759.337.337.601.759.792 1.265.191.498.286 1.078.286 1.738 0 .652-.095 1.232-.286 1.738a3.634 3.634 0 01-.792 1.276 3.438 3.438 0 01-1.199.792 4.169 4.169 0 01-1.496.264zm0-.935c.381 0 .733-.055 1.056-.165a2.2 2.2 0 00.836-.539c.242-.25.429-.572.561-.968.139-.396.209-.877.209-1.441 0-.565-.07-1.045-.209-1.441-.132-.396-.319-.715-.561-.957a2.026 2.026 0 00-.836-.539 3.055 3.055 0 00-1.056-.176c-.381 0-.733.058-1.056.176a2.11 2.11 0 00-.847.539c-.235.242-.422.561-.561.957-.132.396-.198.876-.198 1.441 0 .564.066 1.045.198 1.441.139.396.326.718.561.968.242.242.524.421.847.539.323.11.675.165 1.056.165zm7.3.935c-.359 0-.682-.026-.968-.077a4.682 4.682 0 01-.759-.176 3.983 3.983 0 01-.55-.253 2.251 2.251 0 01-.352-.275v-.99c.11.095.253.194.429.297.176.095.378.183.605.264.235.08.484.146.748.198.272.051.554.077.847.077.572 0 1.027-.107 1.364-.319.338-.22.506-.55.506-.99 0-.22-.04-.4-.121-.539a.97.97 0 00-.352-.363 2.037 2.037 0 00-.583-.253 13.929 13.929 0 00-.803-.231 15.395 15.395 0 01-.924-.275 3.452 3.452 0 01-.836-.407 2.071 2.071 0 01-.594-.638c-.146-.257-.22-.583-.22-.979 0-.682.239-1.214.715-1.595.477-.382 1.207-.572 2.189-.572.286 0 .539.018.759.055.228.029.426.069.594.121.176.044.327.095.451.154.132.058.25.113.352.165v.99a3.067 3.067 0 00-1.001-.418 4.757 4.757 0 00-1.155-.132c-.352 0-.649.029-.891.088a1.577 1.577 0 00-.572.231.91.91 0 00-.319.374 1.189 1.189 0 00-.099.495c0 .22.048.403.143.55.103.146.235.271.396.374.169.095.36.176.572.242.213.066.437.124.671.176.308.073.624.157.946.253.323.095.613.227.869.396.257.168.466.388.627.66.169.264.253.608.253 1.034 0 .418-.084.773-.253 1.067-.161.286-.377.52-.649.704a2.76 2.76 0 01-.935.396c-.352.08-.718.121-1.1.121zm5.279-7.997v7.887h-1.034v-7.887h1.034zm8.182 7.887h-1.408l-3.96-6.622v6.622h-.979v-7.887h1.397l3.96 6.622v-6.622h.99v7.887zm8.504-3.091c0 .462-.069.887-.209 1.276a2.653 2.653 0 01-.616 1.012c-.278.286-.63.509-1.056.671-.418.161-.913.242-1.485.242a3.984 3.984 0 01-1.529-.286 3.493 3.493 0 01-1.188-.825 3.73 3.73 0 01-.77-1.276 4.795 4.795 0 01-.275-1.661c0-.609.088-1.163.264-1.661.176-.499.433-.924.77-1.276.345-.352.77-.624 1.276-.814.506-.198 1.089-.297 1.749-.297.338 0 .638.022.902.066.272.044.51.099.715.165.206.066.382.139.528.22.154.08.286.157.396.231v.99a7.304 7.304 0 00-.539-.286 4.214 4.214 0 00-1.265-.396 4.951 4.951 0 00-.77-.055c-.498 0-.931.069-1.298.209-.359.139-.66.344-.902.616-.234.264-.41.59-.528.979a4.46 4.46 0 00-.176 1.309c0 .982.231 1.749.693 2.299.47.542 1.119.814 1.947.814.411 0 .763-.052 1.056-.154a1.97 1.97 0 00.715-.44c.184-.191.316-.415.396-.671.088-.264.132-.55.132-.858v-.22h-2.541v-.935h3.608v1.012zm.432 3.531h4.51v.825h-4.51v-.825zm8.202-7.37v6.93h-1.045v-6.93h-2.431v-.957h5.907v.957h-2.431zm3.703-.957h2.64c.931 0 1.639.183 2.123.55.491.359.737.927.737 1.705 0 .689-.169 1.217-.506 1.584-.33.366-.766.608-1.309.726l2.145 3.322h-1.166l-2.057-3.201h-1.573v3.201h-1.034v-7.887zm1.034.946v2.805h1.507c.279 0 .532-.026.759-.077.235-.052.433-.136.594-.253.169-.118.297-.272.385-.462.095-.198.143-.44.143-.726 0-.47-.154-.8-.462-.99-.308-.198-.748-.297-1.32-.297h-1.606zm8.178-.946h1.54l2.827 7.887h-1.1l-.814-2.255h-3.487l-.803 2.255h-.968l2.805-7.887zm2.123 4.697l-1.408-3.927-1.408 3.927h2.816zm3.393-4.697h4.818v.946h-3.784v2.618h3.212v.935h-3.212v3.388h-1.034v-7.887zm6.252 0h4.818v.946h-3.784v2.618h3.212v.935h-3.212v3.388h-1.034v-7.887zm7.286 0v7.887h-1.034v-7.887h1.034zm5.255 7.997a4.415 4.415 0 01-1.595-.275 3.5 3.5 0 01-1.232-.792 3.617 3.617 0 01-.781-1.276c-.184-.506-.275-1.075-.275-1.705 0-.638.084-1.207.253-1.705.168-.499.418-.921.748-1.265.33-.352.733-.62 1.21-.803.484-.184 1.034-.275 1.65-.275a5.04 5.04 0 011.408.176c.403.11.733.242.99.396v.99a3.632 3.632 0 00-1.144-.473 5.363 5.363 0 00-1.265-.154c-.932 0-1.621.26-2.068.781-.44.513-.66 1.29-.66 2.332 0 1.048.238 1.829.715 2.343.484.513 1.195.77 2.134.77a4.23 4.23 0 001.177-.165c.388-.11.759-.297 1.111-.561v.99c-.213.168-.525.322-.935.462-.404.139-.884.209-1.441.209z" fill="#18123D"/><path d="M330 719.985l2.887-5h-5.774l2.887 5zM329.5 690V715.484h1v-.025-.025-.026-.025-.025-.025-.026-.025-.026-.026-.025-.026-.026-.026-.026-.026-.027-.026-.026-.027-.026-.027-.027-.027-.026-.027-.028-.027-.027-.027-.028-.027-.028-.027-.028-.028-.028-.028-.028-.028-.028-.029-.028-.029-.028-.029-.029-.029-.028-.029-.03-.029-.029-.029-.03-.029-.03-.03-.029-.03-.03-.03-.031-.03-.03-.03-.031-.03-.031-.031-.031-.031-.031-.031-.031-.031-.032-.031-.032-.031-.032-.032-.032-.032-.032-.032-.032-.032-.033-.032-.033-.033-.032-.033-.033-.033-.033-.034-.033-.033-.034-.034-.033-.034-.034-.034-.034-.034-.034-.035-.034-.035-.034-.035-.035-.034-.035-.035-.036-.035-.035-.036-.035-.036-.035-.036-.036-.036-.036-.036-.037-.036-.036-.037-.037-.036-.037-.037-.037-.037-.037-.038-.037-.038-.037-.038-.038-.037-.038-.038-.039-.038-.038-.039-.038-.039-.038-.039-.039-.039-.039-.039-.04-.039-.04-.039-.04-.04-.04-.04-.04-.04-.04-.04-.041-.04-.041-.041-.041-.041-.041-.041-.041-.041-.042-.041-.042-.042-.042-.042-.042-.042-.042-.042-.043-.042-.043-.043-.042-.043-.043-.043-.044-.043-.043-.044-.044-.043-.044-.044-.044-.044-.045-.044-.044-.045-.044-.045-.045-.045-.045-.045-.045-.046-.045-.046-.045-.046-.046-.046-.046-.046-.047-.046-.046-.047-.047-.047-.046-.047-.048-.047-.047-.048-.047-.048-.047-.048-.048-.048-.048-.049-.048-.048-.049-.049-.048-.049-.049-.049-.05-.049-.049-.05-.049-.05-.05-.05-.05-.05-.05-.051-.05-.051-.051-.05-.051-.051-.051-.052-.051-.051-.052-.052-.051-.052-.052-.052-.053-.052-.052-.053-.052-.053-.053-.053-.053-.053-.054-.053-.053-.054-.054-.054-.054-.054-.054-.054-.054-.055-.055-.054-.055-.055-.055-.055-.056-.055-.055-.056-.056-.056-.056-.056-.056-.056-.056-.057-.057-.056-.057-.057-.057-.057-.058-.057-.058-.057-.058-.058-.058-.058-.058-.058-.059-.058-.059-.059-.059-.059-.059-.059-.059-.06-.059-.06-.06-.06-.06-.06-.06-.06-.061-.061-.06-.061-.061-.061-.061-.062-.061-.062-.061-.062-.062-.062-.062-.062-.063-.062-.063-.062-.063-.063-.063-.063-.064-.063-.063-.064-.064-.064-.064-.064-.064-.064-.065-.064-.065-.065-.065-.065-.065-.066-.065-.066-.065-.066-.066-.066-.066-.066-.067-.066-.067-.067-.066-.067-.068-.067-.067-.068-.067-.068-.068-.068-.068-.068-.068-.069-.068-.069-.069-.069-.069-.069-.069-.07-.069-.07-.07-.07-.07-.07-.07-.07-.071-.071-.07-.071-.071-.071-.072-.071-.072-.071-.072-.072-.072-.072-.072-.073-.072-.073-.073-.073-.073-.073-.073-.073-.074-.074-.073-.074-.074-.075-.074-.074-.075-.074-.075-.075-.075-.075-.076-.075-.076-.075-.076-.076-.076-.076-.077-.076-.077-.076-.077-.077-.077-.077-.078-.077-.078-.078-.077-.078-.078-.079-.078-.079-.078V690h-1z" fill="#18123D" fill-opacity=".7"/><path d="M230 645a5 5 0 015-5h190a5 5 0 015 5v40a5 5 0 01-5 5H235a5 5 0 01-5-5v-40z" fill="#FFF5CC"/><path d="M276.158 668.666c-.359 0-.682-.026-.968-.077a4.682 4.682 0 01-.759-.176 3.983 3.983 0 01-.55-.253 2.251 2.251 0 01-.352-.275v-.99c.11.095.253.194.429.297.176.095.378.183.605.264.235.08.484.146.748.198.272.051.554.077.847.077.572 0 1.027-.107 1.364-.319.338-.22.506-.55.506-.99 0-.22-.04-.4-.121-.539a.97.97 0 00-.352-.363 2.037 2.037 0 00-.583-.253 13.929 13.929 0 00-.803-.231 15.395 15.395 0 01-.924-.275 3.452 3.452 0 01-.836-.407 2.071 2.071 0 01-.594-.638c-.146-.257-.22-.583-.22-.979 0-.682.239-1.214.715-1.595.477-.382 1.207-.572 2.189-.572.286 0 .539.018.759.055.228.029.426.069.594.121.176.044.327.095.451.154.132.058.25.113.352.165v.99a3.067 3.067 0 00-1.001-.418 4.757 4.757 0 00-1.155-.132c-.352 0-.649.029-.891.088a1.577 1.577 0 00-.572.231.91.91 0 00-.319.374 1.189 1.189 0 00-.099.495c0 .22.048.403.143.55.103.146.235.271.396.374.169.095.36.176.572.242.213.066.437.124.671.176.308.073.624.157.946.253.323.095.613.227.869.396.257.168.466.388.627.66.169.264.253.608.253 1.034 0 .418-.084.773-.253 1.067-.161.286-.377.52-.649.704a2.76 2.76 0 01-.935.396c-.352.08-.718.121-1.1.121zm7.128-7.04v6.93h-1.045v-6.93h-2.431v-.957h5.907v.957h-2.431zm6.627 7.04a4.136 4.136 0 01-1.485-.264 3.438 3.438 0 01-1.199-.792 3.76 3.76 0 01-.803-1.276c-.191-.506-.286-1.089-.286-1.749 0-.66.095-1.24.286-1.738.198-.506.466-.924.803-1.254a3.228 3.228 0 011.199-.759 4.136 4.136 0 011.485-.264c.535 0 1.034.088 1.496.264.462.168.862.421 1.199.759.337.337.601.759.792 1.265.191.498.286 1.078.286 1.738 0 .652-.095 1.232-.286 1.738a3.634 3.634 0 01-.792 1.276 3.438 3.438 0 01-1.199.792 4.169 4.169 0 01-1.496.264zm0-.935c.381 0 .733-.055 1.056-.165a2.2 2.2 0 00.836-.539c.242-.25.429-.572.561-.968.139-.396.209-.877.209-1.441 0-.565-.07-1.045-.209-1.441-.132-.396-.319-.715-.561-.957a2.026 2.026 0 00-.836-.539 3.055 3.055 0 00-1.056-.176c-.381 0-.733.058-1.056.176a2.11 2.11 0 00-.847.539c-.235.242-.422.561-.561.957-.132.396-.198.876-.198 1.441 0 .564.066 1.045.198 1.441.139.396.326.718.561.968.242.242.524.421.847.539.323.11.675.165 1.056.165zm5.154-7.062h2.519c.894 0 1.587.187 2.079.561.498.366.748.942.748 1.727 0 .447-.074.832-.22 1.155-.14.315-.338.575-.594.781a2.494 2.494 0 01-.924.451 4.519 4.519 0 01-1.177.143h-1.397v3.069h-1.034v-7.887zm1.034.946v2.937h1.397c.278 0 .531-.03.759-.088.227-.059.421-.151.583-.275a1.2 1.2 0 00.385-.484c.095-.206.143-.451.143-.737 0-.477-.154-.822-.462-1.034-.308-.213-.748-.319-1.32-.319h-1.485zm5.68-.946h2.519c.894 0 1.587.187 2.079.561.498.366.748.942.748 1.727 0 .447-.074.832-.22 1.155-.14.315-.338.575-.594.781a2.494 2.494 0 01-.924.451 4.519 4.519 0 01-1.177.143h-1.397v3.069h-1.034v-7.887zm1.034.946v2.937h1.397c.278 0 .531-.03.759-.088.227-.059.421-.151.583-.275a1.2 1.2 0 00.385-.484c.095-.206.143-.451.143-.737 0-.477-.154-.822-.462-1.034-.308-.213-.748-.319-1.32-.319h-1.485zm6.713-.946v7.887h-1.034v-7.887h1.034zm8.182 7.887h-1.408l-3.96-6.622v6.622h-.979v-7.887h1.397l3.96 6.622v-6.622h.99v7.887zm8.504-3.091c0 .462-.07.887-.209 1.276a2.653 2.653 0 01-.616 1.012 2.883 2.883 0 01-1.056.671c-.418.161-.913.242-1.485.242a3.984 3.984 0 01-1.529-.286 3.493 3.493 0 01-1.188-.825 3.714 3.714 0 01-.77-1.276 4.795 4.795 0 01-.275-1.661c0-.609.088-1.163.264-1.661.176-.499.433-.924.77-1.276.345-.352.77-.624 1.276-.814.506-.198 1.089-.297 1.749-.297.337 0 .638.022.902.066.271.044.51.099.715.165.205.066.381.139.528.22.154.08.286.157.396.231v.99a7.51 7.51 0 00-.539-.286 4.214 4.214 0 00-1.265-.396 4.96 4.96 0 00-.77-.055c-.499 0-.931.069-1.298.209-.359.139-.66.344-.902.616-.235.264-.411.59-.528.979a4.46 4.46 0 00-.176 1.309c0 .982.231 1.749.693 2.299.469.542 1.118.814 1.947.814.411 0 .763-.052 1.056-.154.293-.11.532-.257.715-.44.183-.191.315-.415.396-.671.088-.264.132-.55.132-.858v-.22h-2.541v-.935h3.608v1.012zm.432 3.531h4.51v.825h-4.51v-.825zm6.354-8.327v7.887h-1.034v-7.887H333zm8.181 7.887h-1.408l-3.96-6.622v6.622h-.979v-7.887h1.397l3.96 6.622v-6.622h.99v7.887zm4.039.11c-.359 0-.682-.026-.968-.077a4.682 4.682 0 01-.759-.176 3.93 3.93 0 01-.55-.253 2.205 2.205 0 01-.352-.275v-.99c.11.095.253.194.429.297.176.095.378.183.605.264.235.08.484.146.748.198.271.051.554.077.847.077.572 0 1.027-.107 1.364-.319.337-.22.506-.55.506-.99 0-.22-.04-.4-.121-.539a.978.978 0 00-.352-.363 2.037 2.037 0 00-.583-.253 13.929 13.929 0 00-.803-.231 15.395 15.395 0 01-.924-.275 3.434 3.434 0 01-.836-.407 2.071 2.071 0 01-.594-.638c-.147-.257-.22-.583-.22-.979 0-.682.238-1.214.715-1.595.477-.382 1.206-.572 2.189-.572.286 0 .539.018.759.055.227.029.425.069.594.121.176.044.326.095.451.154.132.058.249.113.352.165v.99a3.076 3.076 0 00-1.001-.418 4.757 4.757 0 00-1.155-.132c-.352 0-.649.029-.891.088a1.57 1.57 0 00-.572.231.903.903 0 00-.319.374 1.189 1.189 0 00-.099.495c0 .22.048.403.143.55.103.146.235.271.396.374.169.095.359.176.572.242.213.066.436.124.671.176.308.073.623.157.946.253.323.095.612.227.869.396.257.168.466.388.627.66.169.264.253.608.253 1.034 0 .418-.084.773-.253 1.067-.161.286-.378.52-.649.704a2.76 2.76 0 01-.935.396c-.352.08-.719.121-1.1.121zm7.127-7.04v6.93h-1.045v-6.93h-2.431v-.957h5.907v.957h-2.431zm5.031-.957h1.54l2.827 7.887h-1.1l-.814-2.255h-3.487l-.803 2.255h-.968l2.805-7.887zm2.123 4.697l-1.408-3.927-1.408 3.927h2.816zm9.739 3.19h-1.408l-3.96-6.622v6.622h-.979v-7.887h1.397l3.96 6.622v-6.622h.99v7.887zm5.259.11a4.423 4.423 0 01-1.595-.275 3.519 3.519 0 01-1.232-.792 3.646 3.646 0 01-.781-1.276 4.99 4.99 0 01-.275-1.705c0-.638.085-1.207.253-1.705.169-.499.418-.921.748-1.265.33-.352.734-.62 1.21-.803.484-.184 1.034-.275 1.65-.275.536 0 1.005.058 1.408.176.404.11.734.242.99.396v.99a3.622 3.622 0 00-1.144-.473 5.357 5.357 0 00-1.265-.154c-.931 0-1.62.26-2.068.781-.44.513-.66 1.29-.66 2.332 0 1.048.239 1.829.715 2.343.484.513 1.196.77 2.134.77a4.22 4.22 0 001.177-.165c.389-.11.759-.297 1.111-.561v.99c-.212.168-.524.322-.935.462-.403.139-.883.209-1.441.209zm3.959-7.997h4.884v.946h-3.85v2.387h3.267v.935h-3.267v2.684h3.905v.935h-4.939v-7.887z" fill="#18123D"/><path d="M460 725a5 5 0 015-5h190a5 5 0 015 5v40a5 5 0 01-5 5H465a5 5 0 01-5-5v-40z" fill="#FFF5CC"/><path d="M503.444 740.669h1.045v5.192c0 .638.179 1.111.539 1.419.366.308.865.462 1.496.462.308 0 .59-.037.847-.11.264-.081.491-.198.682-.352.19-.162.337-.36.44-.594.11-.235.165-.51.165-.825v-5.192h.99v5.159c0 .454-.081.858-.242 1.21a2.54 2.54 0 01-.671.891 2.843 2.843 0 01-.99.55 4.003 4.003 0 01-1.243.187 4.03 4.03 0 01-1.21-.176 2.82 2.82 0 01-.979-.528 2.457 2.457 0 01-.638-.869 3.022 3.022 0 01-.231-1.221v-5.203zm7.803 0h2.519c.895 0 1.588.187 2.079.561.499.366.748.942.748 1.727 0 .447-.073.832-.22 1.155a2.037 2.037 0 01-.594.781 2.494 2.494 0 01-.924.451 4.513 4.513 0 01-1.177.143h-1.397v3.069h-1.034v-7.887zm1.034.946v2.937h1.397c.279 0 .532-.03.759-.088.227-.059.422-.151.583-.275.169-.125.297-.286.385-.484.095-.206.143-.451.143-.737 0-.477-.154-.822-.462-1.034-.308-.213-.748-.319-1.32-.319h-1.485zm5.68-.946h2.651c.528 0 1.019.062 1.474.187.454.124.85.33 1.188.616.337.286.601.663.792 1.133.19.469.286 1.048.286 1.738 0 .696-.099 1.309-.297 1.837a3.64 3.64 0 01-.803 1.309 3.333 3.333 0 01-1.221.803c-.47.176-.983.264-1.54.264h-2.53v-7.887zm1.034.946v6.006h1.496c.403 0 .773-.063 1.111-.187.337-.125.627-.316.869-.572.242-.264.429-.598.561-1.001.132-.404.198-.884.198-1.441 0-.55-.066-1.005-.198-1.364-.132-.367-.316-.657-.55-.869a1.833 1.833 0 00-.825-.44 3.961 3.961 0 00-1.045-.132h-1.617zm8.5-.946h1.54l2.827 7.887h-1.1l-.814-2.255h-3.487l-.803 2.255h-.968l2.805-7.887zm2.123 4.697l-1.408-3.927-1.408 3.927h2.816zm5.501-3.74v6.93h-1.045v-6.93h-2.431v-.957h5.907v.957h-2.431zm4.737-.957v7.887h-1.034v-7.887h1.034zm8.181 7.887h-1.408l-3.96-6.622v6.622h-.979v-7.887h1.397l3.96 6.622v-6.622h.99v7.887zm8.505-3.091c0 .462-.07.887-.209 1.276a2.665 2.665 0 01-.616 1.012 2.883 2.883 0 01-1.056.671c-.418.161-.913.242-1.485.242a3.98 3.98 0 01-1.529-.286 3.493 3.493 0 01-1.188-.825 3.714 3.714 0 01-.77-1.276 4.772 4.772 0 01-.275-1.661c0-.609.088-1.163.264-1.661.176-.499.432-.924.77-1.276.344-.352.77-.624 1.276-.814.506-.198 1.089-.297 1.749-.297.337 0 .638.022.902.066.271.044.509.099.715.165.205.066.381.139.528.22.154.08.286.157.396.231v.99a7.51 7.51 0 00-.539-.286 3.582 3.582 0 00-.594-.242 4.24 4.24 0 00-.671-.154 4.97 4.97 0 00-.77-.055c-.499 0-.932.069-1.298.209-.36.139-.66.344-.902.616-.235.264-.411.59-.528.979a4.426 4.426 0 00-.176 1.309c0 .982.231 1.749.693 2.299.469.542 1.118.814 1.947.814.41 0 .762-.052 1.056-.154.293-.11.531-.257.715-.44.183-.191.315-.415.396-.671.088-.264.132-.55.132-.858v-.22h-2.541v-.935h3.608v1.012zm.432 3.531h4.51v.825h-4.51v-.825zm6.354-8.327v7.887h-1.034v-7.887h1.034zm8.181 7.887h-1.408l-3.96-6.622v6.622h-.979v-7.887h1.397l3.96 6.622v-6.622h.99v7.887zm4.038.11c-.359 0-.682-.026-.968-.077a4.682 4.682 0 01-.759-.176 3.983 3.983 0 01-.55-.253 2.251 2.251 0 01-.352-.275v-.99c.11.095.253.194.429.297.176.095.378.183.605.264.235.08.484.146.748.198.272.051.554.077.847.077.572 0 1.027-.107 1.364-.319.338-.22.506-.55.506-.99 0-.22-.04-.4-.121-.539a.97.97 0 00-.352-.363 2.037 2.037 0 00-.583-.253 13.929 13.929 0 00-.803-.231 15.395 15.395 0 01-.924-.275 3.452 3.452 0 01-.836-.407 2.071 2.071 0 01-.594-.638c-.146-.257-.22-.583-.22-.979 0-.682.239-1.214.715-1.595.477-.382 1.207-.572 2.189-.572.286 0 .539.018.759.055.228.029.426.069.594.121.176.044.327.095.451.154.132.058.25.113.352.165v.99a3.067 3.067 0 00-1.001-.418 4.757 4.757 0 00-1.155-.132c-.352 0-.649.029-.891.088a1.577 1.577 0 00-.572.231.91.91 0 00-.319.374 1.189 1.189 0 00-.099.495c0 .22.048.403.143.55.103.146.235.271.396.374.169.095.36.176.572.242.213.066.437.124.671.176.308.073.624.157.946.253.323.095.613.227.869.396.257.168.466.388.627.66.169.264.253.608.253 1.034 0 .418-.084.773-.253 1.067-.161.286-.377.52-.649.704a2.76 2.76 0 01-.935.396c-.352.08-.718.121-1.1.121zm7.128-7.04v6.93h-1.045v-6.93h-2.431v-.957h5.907v.957h-2.431zm5.03-.957h1.54l2.827 7.887h-1.1l-.814-2.255h-3.487l-.803 2.255h-.968l2.805-7.887zm2.123 4.697l-1.408-3.927-1.408 3.927h2.816zm9.74 3.19h-1.408l-3.96-6.622v6.622h-.979v-7.887h1.397l3.96 6.622v-6.622h.99v7.887zm5.259.11a4.42 4.42 0 01-1.595-.275 3.51 3.51 0 01-1.232-.792 3.631 3.631 0 01-.781-1.276 4.99 4.99 0 01-.275-1.705c0-.638.084-1.207.253-1.705.169-.499.418-.921.748-1.265.33-.352.733-.62 1.21-.803.484-.184 1.034-.275 1.65-.275.535 0 1.005.058 1.408.176.403.11.733.242.99.396v.99a3.622 3.622 0 00-1.144-.473 5.357 5.357 0 00-1.265-.154c-.931 0-1.621.26-2.068.781-.44.513-.66 1.29-.66 2.332 0 1.048.238 1.829.715 2.343.484.513 1.195.77 2.134.77.403 0 .796-.055 1.177-.165.389-.11.759-.297 1.111-.561v.99c-.213.168-.524.322-.935.462-.403.139-.884.209-1.441.209zm3.959-7.997h4.884v.946h-3.85v2.387h3.267v.935h-3.267v2.684h3.905v.935h-4.939v-7.887z" fill="#18123D"/><path d="M330 879.985l2.887-5h-5.774l2.887 5zM329.5 850V875.484h1v-.025-.025-.026-.025-.025-.025-.026-.025-.026-.026-.025-.026-.026-.026-.026-.026-.027-.026-.026-.027-.026-.027-.027-.027-.026-.027-.028-.027-.027-.027-.028-.027-.028-.027-.028-.028-.028-.028-.028-.028-.028-.029-.028-.029-.028-.029-.029-.029-.028-.029-.03-.029-.029-.029-.03-.029-.03-.03-.029-.03-.03-.03-.031-.03-.03-.03-.031-.03-.031-.031-.031-.031-.031-.031-.031-.031-.032-.031-.032-.031-.032-.032-.032-.032-.032-.032-.032-.032-.033-.032-.033-.033-.032-.033-.033-.033-.033-.034-.033-.033-.034-.034-.033-.034-.034-.034-.034-.034-.034-.035-.034-.035-.034-.035-.035-.034-.035-.035-.036-.035-.035-.036-.035-.036-.035-.036-.036-.036-.036-.036-.037-.036-.036-.037-.037-.036-.037-.037-.037-.037-.037-.038-.037-.038-.037-.038-.038-.037-.038-.038-.039-.038-.038-.039-.038-.039-.038-.039-.039-.039-.039-.039-.04-.039-.04-.039-.04-.04-.04-.04-.04-.04-.04-.04-.041-.04-.041-.041-.041-.041-.041-.041-.041-.041-.042-.041-.042-.042-.042-.042-.042-.042-.042-.042-.043-.042-.043-.043-.042-.043-.043-.043-.044-.043-.043-.044-.044-.043-.044-.044-.044-.044-.045-.044-.044-.045-.044-.045-.045-.045-.045-.045-.045-.046-.045-.046-.045-.046-.046-.046-.046-.046-.047-.046-.046-.047-.047-.047-.046-.047-.048-.047-.047-.048-.047-.048-.047-.048-.048-.048-.048-.049-.048-.048-.049-.049-.048-.049-.049-.049-.05-.049-.049-.05-.049-.05-.05-.05-.05-.05-.05-.051-.05-.051-.051-.05-.051-.051-.051-.052-.051-.051-.052-.052-.051-.052-.052-.052-.053-.052-.052-.053-.052-.053-.053-.053-.053-.053-.054-.053-.053-.054-.054-.054-.054-.054-.054-.054-.054-.055-.055-.054-.055-.055-.055-.055-.056-.055-.055-.056-.056-.056-.056-.056-.056-.056-.056-.057-.057-.056-.057-.057-.057-.057-.058-.057-.058-.057-.058-.058-.058-.058-.058-.058-.059-.058-.059-.059-.059-.059-.059-.059-.059-.06-.059-.06-.06-.06-.06-.06-.06-.06-.061-.061-.06-.061-.061-.061-.061-.062-.061-.062-.061-.062-.062-.062-.062-.062-.063-.062-.063-.062-.063-.063-.063-.063-.064-.063-.063-.064-.064-.064-.064-.064-.064-.064-.065-.064-.065-.065-.065-.065-.065-.066-.065-.066-.065-.066-.066-.066-.066-.066-.067-.066-.067-.067-.066-.067-.068-.067-.067-.068-.067-.068-.068-.068-.068-.068-.068-.069-.068-.069-.069-.069-.069-.069-.069-.07-.069-.07-.07-.07-.07-.07-.07-.07-.071-.071-.07-.071-.071-.071-.072-.071-.072-.071-.072-.072-.072-.072-.072-.073-.072-.073-.073-.073-.073-.073-.073-.073-.074-.074-.073-.074-.074-.075-.074-.074-.075-.074-.075-.075-.075-.075-.076-.075-.076-.075-.076-.076-.076-.076-.077-.076-.077-.076-.077-.077-.077-.077-.078-.077-.078-.078-.077-.078-.078-.079-.078-.079-.078V850h-1z" fill="#18123D" fill-opacity=".7"/><path d="M230 805a5 5 0 015-5h190a5 5 0 015 5v40a5 5 0 01-5 5H235a5 5 0 01-5-5v-40z" fill="#FFF5CC"/><path d="M274.356 820.669h2.651c.528 0 1.019.062 1.474.187.454.124.85.33 1.188.616.337.286.601.663.792 1.133.19.469.286 1.048.286 1.738 0 .696-.099 1.309-.297 1.837a3.64 3.64 0 01-.803 1.309 3.333 3.333 0 01-1.221.803c-.47.176-.983.264-1.54.264h-2.53v-7.887zm1.034.946v6.006h1.496c.403 0 .773-.063 1.111-.187.337-.125.627-.316.869-.572.242-.264.429-.598.561-1.001.132-.404.198-.884.198-1.441 0-.55-.066-1.005-.198-1.364-.132-.367-.316-.657-.55-.869a1.833 1.833 0 00-.825-.44 3.961 3.961 0 00-1.045-.132h-1.617zm6.732-.946h4.884v.946h-3.85v2.387h3.267v.935h-3.267v2.684h3.905v.935h-4.939v-7.887zm11.448 7.887h-4.873v-7.887h1.034v6.952h3.839v.935zm1.422-7.887h4.884v.946h-3.85v2.387h3.267v.935h-3.267v2.684h3.905v.935h-4.939v-7.887zm9.402.957v6.93h-1.045v-6.93h-2.431v-.957h5.907v.957h-2.431zm4.737-.957v7.887h-1.034v-7.887h1.034zm8.181 7.887h-1.408l-3.96-6.622v6.622h-.979v-7.887h1.397l3.96 6.622v-6.622h.99v7.887zm8.505-3.091c0 .462-.07.887-.209 1.276a2.665 2.665 0 01-.616 1.012 2.883 2.883 0 01-1.056.671c-.418.161-.913.242-1.485.242a3.98 3.98 0 01-1.529-.286 3.493 3.493 0 01-1.188-.825 3.714 3.714 0 01-.77-1.276 4.772 4.772 0 01-.275-1.661c0-.609.088-1.163.264-1.661.176-.499.432-.924.77-1.276.344-.352.77-.624 1.276-.814.506-.198 1.089-.297 1.749-.297.337 0 .638.022.902.066.271.044.509.099.715.165.205.066.381.139.528.22.154.08.286.157.396.231v.99a7.51 7.51 0 00-.539-.286 3.582 3.582 0 00-.594-.242 4.24 4.24 0 00-.671-.154 4.97 4.97 0 00-.77-.055c-.499 0-.932.069-1.298.209-.36.139-.66.344-.902.616-.235.264-.411.59-.528.979a4.426 4.426 0 00-.176 1.309c0 .982.231 1.749.693 2.299.469.542 1.118.814 1.947.814.41 0 .762-.052 1.056-.154.293-.11.531-.257.715-.44.183-.191.315-.415.396-.671.088-.264.132-.55.132-.858v-.22h-2.541v-.935h3.608v1.012zm.432 3.531h4.51v.825h-4.51v-.825zm6.354-8.327v7.887h-1.034v-7.887h1.034zm8.181 7.887h-1.408l-3.96-6.622v6.622h-.979v-7.887h1.397l3.96 6.622v-6.622h.99v7.887zm4.038.11c-.359 0-.682-.026-.968-.077a4.682 4.682 0 01-.759-.176 3.983 3.983 0 01-.55-.253 2.251 2.251 0 01-.352-.275v-.99c.11.095.253.194.429.297.176.095.378.183.605.264.235.08.484.146.748.198.272.051.554.077.847.077.572 0 1.027-.107 1.364-.319.338-.22.506-.55.506-.99 0-.22-.04-.4-.121-.539a.97.97 0 00-.352-.363 2.037 2.037 0 00-.583-.253 13.929 13.929 0 00-.803-.231 15.395 15.395 0 01-.924-.275 3.452 3.452 0 01-.836-.407 2.071 2.071 0 01-.594-.638c-.146-.257-.22-.583-.22-.979 0-.682.239-1.214.715-1.595.477-.382 1.207-.572 2.189-.572.286 0 .539.018.759.055.228.029.426.069.594.121.176.044.327.095.451.154.132.058.25.113.352.165v.99a3.067 3.067 0 00-1.001-.418 4.757 4.757 0 00-1.155-.132c-.352 0-.649.029-.891.088a1.577 1.577 0 00-.572.231.91.91 0 00-.319.374 1.189 1.189 0 00-.099.495c0 .22.048.403.143.55.103.146.235.271.396.374.169.095.36.176.572.242.213.066.437.124.671.176.308.073.624.157.946.253.323.095.613.227.869.396.257.168.466.388.627.66.169.264.253.608.253 1.034 0 .418-.084.773-.253 1.067-.161.286-.377.52-.649.704a2.76 2.76 0 01-.935.396c-.352.08-.718.121-1.1.121zm7.128-7.04v6.93h-1.045v-6.93h-2.431v-.957h5.907v.957h-2.431zm5.03-.957h1.54l2.827 7.887h-1.1l-.814-2.255h-3.487l-.803 2.255h-.968l2.805-7.887zm2.123 4.697l-1.408-3.927-1.408 3.927h2.816zm9.739 3.19h-1.408l-3.96-6.622v6.622h-.979v-7.887h1.397l3.96 6.622v-6.622h.99v7.887zm5.26.11a4.42 4.42 0 01-1.595-.275 3.51 3.51 0 01-1.232-.792 3.631 3.631 0 01-.781-1.276 4.99 4.99 0 01-.275-1.705c0-.638.084-1.207.253-1.705.169-.499.418-.921.748-1.265.33-.352.733-.62 1.21-.803.484-.184 1.034-.275 1.65-.275.535 0 1.005.058 1.408.176.403.11.733.242.99.396v.99a3.622 3.622 0 00-1.144-.473 5.357 5.357 0 00-1.265-.154c-.931 0-1.621.26-2.068.781-.44.513-.66 1.29-.66 2.332 0 1.048.238 1.829.715 2.343.484.513 1.195.77 2.134.77.403 0 .796-.055 1.177-.165.389-.11.759-.297 1.111-.561v.99c-.213.168-.524.322-.935.462-.403.139-.884.209-1.441.209zm3.959-7.997h4.884v.946h-3.85v2.387h3.267v.935h-3.267v2.684H383v.935h-4.939v-7.887z" fill="#18123D"/><path d="M230 485a5 5 0 015-5h190a5 5 0 015 5v40a5 5 0 01-5 5H235a5 5 0 01-5-5v-40z" fill="#DDF2E1"/><path d="M280.93 500.669h2.64c.931 0 1.639.183 2.123.55.491.359.737.927.737 1.705 0 .689-.169 1.217-.506 1.584-.33.366-.766.608-1.309.726l2.145 3.322h-1.166l-2.057-3.201h-1.573v3.201h-1.034v-7.887zm1.034.946v2.805h1.507c.279 0 .532-.026.759-.077.235-.052.433-.136.594-.253.169-.118.297-.272.385-.462.095-.198.143-.44.143-.726 0-.47-.154-.8-.462-.99-.308-.198-.748-.297-1.32-.297h-1.606zm5.837-.946h1.045v5.192c0 .638.179 1.111.539 1.419.366.308.865.462 1.496.462.308 0 .59-.037.847-.11.264-.081.491-.198.682-.352.19-.162.337-.36.44-.594.11-.235.165-.51.165-.825v-5.192h.99v5.159c0 .454-.081.858-.242 1.21a2.54 2.54 0 01-.671.891 2.843 2.843 0 01-.99.55 4.003 4.003 0 01-1.243.187 4.03 4.03 0 01-1.21-.176 2.82 2.82 0 01-.979-.528 2.457 2.457 0 01-.638-.869 3.022 3.022 0 01-.231-1.221v-5.203zm14.15 7.887h-1.408l-3.96-6.622v6.622h-.979v-7.887h1.397l3.96 6.622v-6.622h.99v7.887zm8.185 0h-1.408l-3.96-6.622v6.622h-.979v-7.887h1.397l3.96 6.622v-6.622h.99v7.887zm2.873-7.887v7.887h-1.034v-7.887h1.034zm8.181 7.887h-1.408l-3.96-6.622v6.622h-.979v-7.887h1.397l3.96 6.622v-6.622h.99v7.887zm8.505-3.091c0 .462-.07.887-.209 1.276a2.665 2.665 0 01-.616 1.012 2.883 2.883 0 01-1.056.671c-.418.161-.913.242-1.485.242a3.98 3.98 0 01-1.529-.286 3.493 3.493 0 01-1.188-.825 3.714 3.714 0 01-.77-1.276 4.772 4.772 0 01-.275-1.661c0-.609.088-1.163.264-1.661.176-.499.432-.924.77-1.276.344-.352.77-.624 1.276-.814.506-.198 1.089-.297 1.749-.297.337 0 .638.022.902.066.271.044.509.099.715.165.205.066.381.139.528.22.154.08.286.157.396.231v.99a7.51 7.51 0 00-.539-.286 3.582 3.582 0 00-.594-.242 4.24 4.24 0 00-.671-.154 4.97 4.97 0 00-.77-.055c-.499 0-.932.069-1.298.209-.36.139-.66.344-.902.616-.235.264-.411.59-.528.979a4.426 4.426 0 00-.176 1.309c0 .982.231 1.749.693 2.299.469.542 1.118.814 1.947.814.41 0 .762-.052 1.056-.154.293-.11.531-.257.715-.44.183-.191.315-.415.396-.671.088-.264.132-.55.132-.858v-.22h-2.541v-.935h3.608v1.012zm.431 3.531h4.51v.825h-4.51v-.825zm7.422-8.327h1.54l2.827 7.887h-1.1l-.814-2.255h-3.487l-.803 2.255h-.968l2.805-7.887zm2.123 4.697l-1.408-3.927-1.408 3.927h2.816zm6.48 3.3a4.415 4.415 0 01-1.595-.275 3.5 3.5 0 01-1.232-.792 3.617 3.617 0 01-.781-1.276c-.184-.506-.275-1.075-.275-1.705 0-.638.084-1.207.253-1.705.168-.499.418-.921.748-1.265.33-.352.733-.62 1.21-.803.484-.184 1.034-.275 1.65-.275a5.04 5.04 0 011.408.176c.403.11.733.242.99.396v.99a3.632 3.632 0 00-1.144-.473 5.363 5.363 0 00-1.265-.154c-.932 0-1.621.26-2.068.781-.44.513-.66 1.29-.66 2.332 0 1.048.238 1.829.715 2.343.484.513 1.195.77 2.134.77a4.23 4.23 0 001.177-.165c.388-.11.759-.297 1.111-.561v.99c-.213.168-.525.322-.935.462-.404.139-.884.209-1.441.209zm6.894-7.04v6.93H352v-6.93h-2.431v-.957h5.907v.957h-2.431zm3.516-.957h1.045v5.192c0 .638.18 1.111.539 1.419.367.308.866.462 1.496.462.308 0 .591-.037.847-.11.264-.081.492-.198.682-.352.191-.162.338-.36.44-.594.11-.235.165-.51.165-.825v-5.192h.99v5.159c0 .454-.08.858-.242 1.21a2.529 2.529 0 01-.671.891 2.826 2.826 0 01-.99.55 3.994 3.994 0 01-1.243.187c-.432 0-.836-.059-1.21-.176a2.828 2.828 0 01-.979-.528 2.469 2.469 0 01-.638-.869 3.022 3.022 0 01-.231-1.221v-5.203zm9.69 0h1.54l2.827 7.887h-1.1l-.814-2.255h-3.487l-.803 2.255h-.968l2.805-7.887zm2.123 4.697l-1.408-3.927-1.408 3.927h2.816zm8.265 3.19h-4.873v-7.887h1.034v6.952h3.839v.935z" fill="#18123D"/><path d="M230 885a5 5 0 015-5h190a5 5 0 015 5v40a5 5 0 01-5 5H235a5 5 0 01-5-5v-40z" fill="#DDF2E1"/><path d="M305.454 900.669h2.651c.528 0 1.02.062 1.474.187.455.124.851.33 1.188.616.338.286.602.663.792 1.133.191.469.286 1.048.286 1.738 0 .696-.099 1.309-.297 1.837-.19.52-.458.957-.803 1.309a3.316 3.316 0 01-1.221.803 4.349 4.349 0 01-1.54.264h-2.53v-7.887zm1.034.946v6.006h1.496c.404 0 .774-.063 1.111-.187.338-.125.627-.316.869-.572.242-.264.429-.598.561-1.001.132-.404.198-.884.198-1.441 0-.55-.066-1.005-.198-1.364-.132-.367-.315-.657-.55-.869a1.823 1.823 0 00-.825-.44 3.956 3.956 0 00-1.045-.132h-1.617zm6.733-.946h4.884v.946h-3.85v2.387h3.267v.935h-3.267v2.684h3.905v.935h-4.939v-7.887zm11.447 7.887h-4.873v-7.887h1.034v6.952h3.839v.935zm1.422-7.887h4.884v.946h-3.85v2.387h3.267v.935h-3.267v2.684h3.905v.935h-4.939v-7.887zm9.403.957v6.93h-1.045v-6.93h-2.431v-.957h5.907v.957h-2.431zm3.703-.957h4.884v.946h-3.85v2.387h3.267v.935h-3.267v2.684h3.905v.935h-4.939v-7.887zm6.574 0h2.651c.528 0 1.019.062 1.474.187.455.124.851.33 1.188.616.337.286.601.663.792 1.133.191.469.286 1.048.286 1.738 0 .696-.099 1.309-.297 1.837-.191.52-.458.957-.803 1.309a3.316 3.316 0 01-1.221.803 4.353 4.353 0 01-1.54.264h-2.53v-7.887zm1.034.946v6.006h1.496c.403 0 .774-.063 1.111-.187.337-.125.627-.316.869-.572.242-.264.429-.598.561-1.001.132-.404.198-.884.198-1.441 0-.55-.066-1.005-.198-1.364-.132-.367-.315-.657-.55-.869a1.823 1.823 0 00-.825-.44 3.961 3.961 0 00-1.045-.132h-1.617z" fill="#18123D"/><path d="M230 725a5 5 0 015-5h190a5 5 0 015 5v40a5 5 0 01-5 5H235a5 5 0 01-5-5v-40z" fill="#DDF2E1"/><path d="M307.257 748.666c-.359 0-.682-.026-.968-.077a4.682 4.682 0 01-.759-.176 3.93 3.93 0 01-.55-.253 2.205 2.205 0 01-.352-.275v-.99c.11.095.253.194.429.297.176.095.378.183.605.264.235.08.484.146.748.198.271.051.554.077.847.077.572 0 1.027-.107 1.364-.319.337-.22.506-.55.506-.99 0-.22-.04-.4-.121-.539a.978.978 0 00-.352-.363 2.037 2.037 0 00-.583-.253 13.929 13.929 0 00-.803-.231 15.395 15.395 0 01-.924-.275 3.434 3.434 0 01-.836-.407 2.071 2.071 0 01-.594-.638c-.147-.257-.22-.583-.22-.979 0-.682.238-1.214.715-1.595.477-.382 1.206-.572 2.189-.572.286 0 .539.018.759.055.227.029.425.069.594.121.176.044.326.095.451.154.132.058.249.113.352.165v.99a3.076 3.076 0 00-1.001-.418 4.757 4.757 0 00-1.155-.132c-.352 0-.649.029-.891.088a1.57 1.57 0 00-.572.231.903.903 0 00-.319.374 1.189 1.189 0 00-.099.495c0 .22.048.403.143.55.103.146.235.271.396.374.169.095.359.176.572.242.213.066.436.124.671.176.308.073.623.157.946.253.323.095.612.227.869.396.257.168.466.388.627.66.169.264.253.608.253 1.034 0 .418-.084.773-.253 1.067-.161.286-.378.52-.649.704a2.76 2.76 0 01-.935.396c-.352.08-.719.121-1.1.121zm7.127-7.04v6.93h-1.045v-6.93h-2.431v-.957h5.907v.957h-2.431zm6.628 7.04a4.136 4.136 0 01-1.485-.264 3.438 3.438 0 01-1.199-.792 3.745 3.745 0 01-.803-1.276c-.191-.506-.286-1.089-.286-1.749 0-.66.095-1.24.286-1.738.198-.506.465-.924.803-1.254a3.228 3.228 0 011.199-.759 4.136 4.136 0 011.485-.264c.535 0 1.034.088 1.496.264.462.168.861.421 1.199.759.337.337.601.759.792 1.265.19.498.286 1.078.286 1.738 0 .652-.096 1.232-.286 1.738a3.634 3.634 0 01-.792 1.276 3.448 3.448 0 01-1.199.792 4.169 4.169 0 01-1.496.264zm0-.935c.381 0 .733-.055 1.056-.165.322-.118.601-.297.836-.539.242-.25.429-.572.561-.968.139-.396.209-.877.209-1.441 0-.565-.07-1.045-.209-1.441-.132-.396-.319-.715-.561-.957a2.032 2.032 0 00-.836-.539 3.055 3.055 0 00-1.056-.176c-.382 0-.734.058-1.056.176a2.11 2.11 0 00-.847.539c-.235.242-.422.561-.561.957-.132.396-.198.876-.198 1.441 0 .564.066 1.045.198 1.441.139.396.326.718.561.968.242.242.524.421.847.539.322.11.674.165 1.056.165zm5.153-7.062h2.519c.895 0 1.588.187 2.079.561.499.366.748.942.748 1.727 0 .447-.073.832-.22 1.155a2.037 2.037 0 01-.594.781 2.479 2.479 0 01-.924.451 4.513 4.513 0 01-1.177.143h-1.397v3.069h-1.034v-7.887zm1.034.946v2.937h1.397c.279 0 .532-.03.759-.088a1.6 1.6 0 00.583-.275c.169-.125.297-.286.385-.484a1.73 1.73 0 00.143-.737c0-.477-.154-.822-.462-1.034-.308-.213-.748-.319-1.32-.319h-1.485zm5.68-.946h2.519c.895 0 1.588.187 2.079.561.499.366.748.942.748 1.727 0 .447-.073.832-.22 1.155a2.037 2.037 0 01-.594.781 2.479 2.479 0 01-.924.451 4.513 4.513 0 01-1.177.143h-1.397v3.069h-1.034v-7.887zm1.034.946v2.937h1.397c.279 0 .532-.03.759-.088a1.6 1.6 0 00.583-.275c.169-.125.297-.286.385-.484a1.73 1.73 0 00.143-.737c0-.477-.154-.822-.462-1.034-.308-.213-.748-.319-1.32-.319h-1.485zm5.68-.946h4.884v.946h-3.85v2.387h3.267v.935h-3.267v2.684h3.905v.935h-4.939v-7.887zm6.574 0h2.651c.528 0 1.02.062 1.474.187.455.124.851.33 1.188.616.338.286.602.663.792 1.133.191.469.286 1.048.286 1.738 0 .696-.099 1.309-.297 1.837-.19.52-.458.957-.803 1.309a3.316 3.316 0 01-1.221.803 4.349 4.349 0 01-1.54.264h-2.53v-7.887zm1.034.946v6.006h1.496c.404 0 .774-.063 1.111-.187.338-.125.627-.316.869-.572.242-.264.429-.598.561-1.001.132-.404.198-.884.198-1.441 0-.55-.066-1.005-.198-1.364-.132-.367-.315-.657-.55-.869a1.823 1.823 0 00-.825-.44 3.956 3.956 0 00-1.045-.132h-1.617z" fill="#18123D"/><path d="M330 799.985l2.887-5h-5.774l2.887 5zM329.5 770V795.484h1v-.025-.025-.026-.025-.025-.025-.026-.025-.026-.026-.025-.026-.026-.026-.026-.026-.027-.026-.026-.027-.026-.027-.027-.027-.026-.027-.028-.027-.027-.027-.028-.027-.028-.027-.028-.028-.028-.028-.028-.028-.028-.029-.028-.029-.028-.029-.029-.029-.028-.029-.03-.029-.029-.029-.03-.029-.03-.03-.029-.03-.03-.03-.031-.03-.03-.03-.031-.03-.031-.031-.031-.031-.031-.031-.031-.031-.032-.031-.032-.031-.032-.032-.032-.032-.032-.032-.032-.032-.033-.032-.033-.033-.032-.033-.033-.033-.033-.034-.033-.033-.034-.034-.033-.034-.034-.034-.034-.034-.034-.035-.034-.035-.034-.035-.035-.034-.035-.035-.036-.035-.035-.036-.035-.036-.035-.036-.036-.036-.036-.036-.037-.036-.036-.037-.037-.036-.037-.037-.037-.037-.037-.038-.037-.038-.037-.038-.038-.037-.038-.038-.039-.038-.038-.039-.038-.039-.038-.039-.039-.039-.039-.039-.04-.039-.04-.039-.04-.04-.04-.04-.04-.04-.04-.04-.041-.04-.041-.041-.041-.041-.041-.041-.041-.041-.042-.041-.042-.042-.042-.042-.042-.042-.042-.042-.043-.042-.043-.043-.042-.043-.043-.043-.044-.043-.043-.044-.044-.043-.044-.044-.044-.044-.045-.044-.044-.045-.044-.045-.045-.045-.045-.045-.045-.046-.045-.046-.045-.046-.046-.046-.046-.046-.047-.046-.046-.047-.047-.047-.046-.047-.048-.047-.047-.048-.047-.048-.047-.048-.048-.048-.048-.049-.048-.048-.049-.049-.048-.049-.049-.049-.05-.049-.049-.05-.049-.05-.05-.05-.05-.05-.05-.051-.05-.051-.051-.05-.051-.051-.051-.052-.051-.051-.052-.052-.051-.052-.052-.052-.053-.052-.052-.053-.052-.053-.053-.053-.053-.053-.054-.053-.053-.054-.054-.054-.054-.054-.054-.054-.054-.055-.055-.054-.055-.055-.055-.055-.056-.055-.055-.056-.056-.056-.056-.056-.056-.056-.056-.057-.057-.056-.057-.057-.057-.057-.058-.057-.058-.057-.058-.058-.058-.058-.058-.058-.059-.058-.059-.059-.059-.059-.059-.059-.059-.06-.059-.06-.06-.06-.06-.06-.06-.06-.061-.061-.06-.061-.061-.061-.061-.062-.061-.062-.061-.062-.062-.062-.062-.062-.063-.062-.063-.062-.063-.063-.063-.063-.064-.063-.063-.064-.064-.064-.064-.064-.064-.064-.065-.064-.065-.065-.065-.065-.065-.066-.065-.066-.065-.066-.066-.066-.066-.066-.067-.066-.067-.067-.066-.067-.068-.067-.067-.068-.067-.068-.068-.068-.068-.068-.068-.069-.068-.069-.069-.069-.069-.069-.069-.07-.069-.07-.07-.07-.07-.07-.07-.07-.071-.071-.07-.071-.071-.071-.072-.071-.072-.071-.072-.072-.072-.072-.072-.073-.072-.073-.073-.073-.073-.073-.073-.073-.074-.074-.073-.074-.074-.075-.074-.074-.075-.074-.075-.075-.075-.075-.076-.075-.076-.075-.076-.076-.076-.076-.077-.076-.077-.076-.077-.077-.077-.077-.078-.077-.078-.078-.077-.078-.078-.079-.078-.079-.078V770h-1z" fill="#18123D" fill-opacity=".7"/><path d="M230 5a5 5 0 015-5h190a5 5 0 015 5v40a5 5 0 01-5 5H235a5 5 0 01-5-5V5z" fill="#FFF5CC"/><path d="M265.305 20.669h2.519c.895 0 1.588.186 2.079.56.499.367.748.943.748 1.727 0 .448-.073.833-.22 1.155a2.028 2.028 0 01-.594.781 2.462 2.462 0 01-.924.451 4.496 4.496 0 01-1.177.143h-1.397v3.07h-1.034v-7.887zm1.034.945v2.938h1.397c.279 0 .532-.03.759-.088.228-.06.422-.15.583-.275a1.19 1.19 0 00.385-.485c.096-.205.143-.45.143-.736 0-.477-.154-.822-.462-1.035-.308-.212-.748-.319-1.32-.319h-1.485zm5.68-.945h2.64c.932 0 1.639.183 2.123.55.492.359.737.927.737 1.704 0 .69-.168 1.218-.506 1.585-.33.366-.766.608-1.309.726l2.145 3.321h-1.166l-2.057-3.2h-1.573v3.2h-1.034V20.67zm1.034.945v2.805h1.507c.279 0 .532-.025.759-.076a1.56 1.56 0 00.594-.253c.169-.118.297-.272.385-.462.096-.198.143-.44.143-.727 0-.469-.154-.799-.462-.99-.308-.198-.748-.297-1.32-.297h-1.606zm6.131-.945h4.884v.945h-3.85v2.387h3.267v.935h-3.267v2.684h3.905v.935h-4.939V20.67zm6.575 0h2.519c.894 0 1.587.186 2.079.56.498.367.748.943.748 1.727 0 .448-.074.833-.22 1.155-.14.316-.338.576-.594.781a2.477 2.477 0 01-.924.451 4.502 4.502 0 01-1.177.143h-1.397v3.07h-1.034v-7.887zm1.034.945v2.938h1.397c.278 0 .531-.03.759-.088.227-.06.421-.15.583-.275.168-.125.297-.287.385-.485.095-.205.143-.45.143-.736 0-.477-.154-.822-.462-1.035-.308-.212-.748-.319-1.32-.319h-1.485zm7.125-.945h1.54l2.827 7.886h-1.1l-.814-2.255h-3.487l-.803 2.255h-.968l2.805-7.886zm2.123 4.697l-1.408-3.927-1.408 3.927h2.816zm3.392-4.697h2.64c.932 0 1.639.183 2.123.55.492.359.737.927.737 1.704 0 .69-.168 1.218-.506 1.585-.33.366-.766.608-1.309.726l2.145 3.321h-1.166l-2.057-3.2h-1.573v3.2h-1.034V20.67zm1.034.945v2.805h1.507c.279 0 .532-.025.759-.076a1.56 1.56 0 00.594-.253c.169-.118.297-.272.385-.462.096-.198.143-.44.143-.727 0-.469-.154-.799-.462-.99-.308-.198-.748-.297-1.32-.297h-1.606zm7.165-.945v7.886h-1.034V20.67h1.034zm8.182 7.886h-1.408l-3.96-6.622v6.622h-.979V20.67h1.397l3.96 6.622v-6.622h.99v7.886zm8.504-3.09c0 .462-.07.887-.209 1.276a2.648 2.648 0 01-.616 1.012c-.279.285-.631.51-1.056.67-.418.162-.913.243-1.485.243a3.971 3.971 0 01-1.529-.287 3.493 3.493 0 01-1.188-.825 3.707 3.707 0 01-.77-1.275 4.79 4.79 0 01-.275-1.662c0-.608.088-1.162.264-1.66.176-.5.433-.925.77-1.277a3.47 3.47 0 011.276-.814c.506-.197 1.089-.296 1.749-.296.337 0 .638.021.902.066.271.044.51.099.715.165.205.066.381.139.528.22.154.08.286.157.396.23v.99a7.674 7.674 0 00-.539-.285 3.572 3.572 0 00-.594-.242 4.292 4.292 0 00-.671-.154 5.01 5.01 0 00-.77-.055c-.499 0-.931.07-1.298.209-.359.139-.66.344-.902.616-.235.264-.411.59-.528.979a4.464 4.464 0 00-.176 1.308c0 .983.231 1.75.693 2.3.469.542 1.118.813 1.947.813.411 0 .763-.05 1.056-.154.293-.11.532-.256.715-.44.183-.19.315-.414.396-.67.088-.265.132-.55.132-.858v-.22h-2.541v-.936h3.608v1.012zm.432 3.53h4.51v.825h-4.51v-.825zm5.32-8.326h2.64c.931 0 1.639.183 2.123.55.491.359.737.927.737 1.704 0 .69-.169 1.218-.506 1.585-.33.366-.766.608-1.309.726l2.145 3.321h-1.166l-2.057-3.2h-1.573v3.2h-1.034V20.67zm1.034.945v2.805h1.507c.279 0 .532-.025.759-.076a1.56 1.56 0 00.594-.253c.169-.118.297-.272.385-.462.095-.198.143-.44.143-.727 0-.469-.154-.799-.462-.99-.308-.198-.748-.297-1.32-.297h-1.606zm6.131-.945h4.884v.945h-3.85v2.387h3.267v.935h-3.267v2.684h3.905v.935h-4.939V20.67zm8.721 7.997c-.36 0-.682-.026-.968-.078a4.64 4.64 0 01-.759-.175 3.884 3.884 0 01-.55-.253 2.165 2.165 0 01-.352-.276v-.99c.11.096.253.195.429.298.176.095.377.183.605.264.234.08.484.146.748.198.271.05.553.076.847.076.572 0 1.026-.106 1.364-.319.337-.22.506-.55.506-.99 0-.22-.041-.4-.121-.538a.984.984 0 00-.352-.363 2.06 2.06 0 00-.583-.253c-.228-.074-.495-.15-.803-.232a14.63 14.63 0 01-.924-.274 3.395 3.395 0 01-.836-.407 2.059 2.059 0 01-.594-.639c-.147-.256-.22-.582-.22-.979 0-.681.238-1.213.715-1.595.476-.38 1.206-.571 2.189-.571.286 0 .539.018.759.055.227.029.425.07.594.12.176.044.326.096.451.154.132.06.249.114.352.165v.99a3.09 3.09 0 00-1.001-.417 4.757 4.757 0 00-1.155-.133c-.352 0-.649.03-.891.088a1.576 1.576 0 00-.572.232.91.91 0 00-.319.373 1.194 1.194 0 00-.099.495c0 .22.047.404.143.55.102.147.234.272.396.374.168.096.359.177.572.242a8 8 0 00.671.177c.308.073.623.157.946.253.322.095.612.227.869.395.256.17.465.39.627.66.168.265.253.61.253 1.035 0 .418-.085.773-.253 1.067-.162.285-.378.52-.649.703a2.753 2.753 0 01-.935.396 4.91 4.91 0 01-1.1.122zm7.556 0a4.136 4.136 0 01-1.485-.265 3.42 3.42 0 01-1.199-.791 3.756 3.756 0 01-.803-1.276c-.191-.506-.286-1.09-.286-1.75 0-.66.095-1.239.286-1.738.198-.506.466-.924.803-1.253.337-.338.737-.59 1.199-.76a4.136 4.136 0 011.485-.263c.535 0 1.034.087 1.496.264.462.168.862.421 1.199.759.337.337.601.759.792 1.265.191.498.286 1.078.286 1.738 0 .652-.095 1.232-.286 1.738a3.63 3.63 0 01-.792 1.276 3.42 3.42 0 01-1.199.791 4.169 4.169 0 01-1.496.265zm0-.936c.381 0 .733-.055 1.056-.165.323-.117.601-.297.836-.539.242-.249.429-.572.561-.968.139-.395.209-.876.209-1.44 0-.565-.07-1.045-.209-1.441-.132-.396-.319-.715-.561-.957a2.033 2.033 0 00-.836-.54 3.072 3.072 0 00-1.056-.175c-.381 0-.733.058-1.056.175-.323.11-.605.29-.847.54-.235.242-.422.56-.561.957-.132.396-.198.876-.198 1.44 0 .565.066 1.046.198 1.441.139.396.326.72.561.968.242.242.524.422.847.54.323.11.675.165 1.056.165zm4.967-7.061h1.045v5.191c0 .639.18 1.111.539 1.42.367.307.865.461 1.496.461.308 0 .59-.036.847-.11.264-.08.491-.198.682-.352.191-.16.337-.359.44-.593.11-.235.165-.51.165-.826V20.67h.99v5.159c0 .454-.081.858-.242 1.21a2.529 2.529 0 01-.671.89 2.837 2.837 0 01-.99.55 3.978 3.978 0 01-1.243.188c-.433 0-.836-.06-1.21-.177a2.805 2.805 0 01-.979-.527 2.459 2.459 0 01-.638-.87 3.022 3.022 0 01-.231-1.22v-5.203zm7.803 0h2.64c.931 0 1.639.183 2.123.55.491.359.737.927.737 1.704 0 .69-.169 1.218-.506 1.585-.33.366-.766.608-1.309.726l2.145 3.321h-1.166l-2.057-3.2h-1.573v3.2h-1.034V20.67zm1.034.945v2.805h1.507c.279 0 .532-.025.759-.076a1.56 1.56 0 00.594-.253c.169-.118.297-.272.385-.462.095-.198.143-.44.143-.727 0-.469-.154-.799-.462-.99-.308-.198-.748-.297-1.32-.297h-1.606zm9.445 7.052a4.407 4.407 0 01-1.595-.276 3.481 3.481 0 01-1.232-.791 3.61 3.61 0 01-.781-1.276c-.184-.506-.275-1.075-.275-1.706 0-.637.084-1.206.253-1.704.168-.5.418-.92.748-1.265a3.21 3.21 0 011.21-.803c.484-.184 1.034-.275 1.65-.275.535 0 1.004.058 1.408.175.403.11.733.242.99.396v.99a3.658 3.658 0 00-1.144-.473 5.384 5.384 0 00-1.265-.154c-.932 0-1.621.26-2.068.781-.44.514-.66 1.291-.66 2.332 0 1.05.238 1.83.715 2.343.484.514 1.195.77 2.134.77a4.23 4.23 0 001.177-.165c.388-.11.759-.297 1.111-.56v.99c-.213.168-.525.322-.935.461-.404.14-.884.21-1.441.21zm3.959-7.997h4.884v.945h-3.85v2.387h3.267v.935h-3.267v2.684h3.905v.935h-4.939V20.67zm8.72 7.997c-.359 0-.682-.026-.968-.078a4.64 4.64 0 01-.759-.175 3.884 3.884 0 01-.55-.253 2.165 2.165 0 01-.352-.276v-.99c.11.096.253.195.429.298.176.095.378.183.605.264.235.08.484.146.748.198.271.05.554.076.847.076.572 0 1.027-.106 1.364-.319.337-.22.506-.55.506-.99 0-.22-.04-.4-.121-.538a.984.984 0 00-.352-.363 2.048 2.048 0 00-.583-.253c-.227-.074-.495-.15-.803-.232a14.63 14.63 0 01-.924-.274 3.395 3.395 0 01-.836-.407 2.059 2.059 0 01-.594-.639c-.147-.256-.22-.582-.22-.979 0-.681.238-1.213.715-1.595.477-.38 1.206-.571 2.189-.571.286 0 .539.018.759.055.227.029.425.07.594.12.176.044.326.096.451.154.132.06.249.114.352.165v.99a3.09 3.09 0 00-1.001-.417 4.757 4.757 0 00-1.155-.133c-.352 0-.649.03-.891.088a1.583 1.583 0 00-.572.232.91.91 0 00-.319.373 1.194 1.194 0 00-.099.495c0 .22.048.404.143.55.103.147.235.272.396.374.169.096.359.177.572.242.213.066.436.125.671.177.308.073.623.157.946.253.323.095.612.227.869.395.257.17.466.39.627.66.169.265.253.61.253 1.035 0 .418-.084.773-.253 1.067-.161.285-.378.52-.649.703a2.744 2.744 0 01-.935.396 4.91 4.91 0 01-1.1.122z" fill="#18123D"/><path d="M0 725a5 5 0 015-5h190a5 5 0 015 5v40a5 5 0 01-5 5H5a5 5 0 01-5-5v-40z" fill="#FFF5CC"/><path d="M46.695 748.666c-.359 0-.682-.026-.968-.077a4.682 4.682 0 01-.759-.176 3.945 3.945 0 01-.55-.253 2.219 2.219 0 01-.352-.275v-.99c.11.095.253.194.43.297.175.095.377.183.604.264.235.08.484.146.748.198.272.051.554.077.847.077.572 0 1.027-.107 1.364-.319.338-.22.506-.55.506-.99 0-.22-.04-.4-.12-.539a.976.976 0 00-.353-.363 2.04 2.04 0 00-.583-.253 13.999 13.999 0 00-.803-.231 15.395 15.395 0 01-.924-.275 3.44 3.44 0 01-.836-.407 2.071 2.071 0 01-.594-.638c-.146-.257-.22-.583-.22-.979 0-.682.239-1.214.715-1.595.477-.382 1.207-.572 2.19-.572.285 0 .538.018.758.055.228.029.426.069.594.121.176.044.327.095.451.154.132.058.25.113.352.165v.99a3.073 3.073 0 00-1-.418 4.757 4.757 0 00-1.156-.132c-.352 0-.649.029-.89.088a1.57 1.57 0 00-.573.231.905.905 0 00-.319.374 1.189 1.189 0 00-.099.495c0 .22.048.403.143.55.103.146.235.271.396.374.17.095.36.176.572.242.213.066.437.124.671.176.308.073.624.157.946.253.323.095.613.227.87.396.256.168.465.388.626.66.17.264.253.608.253 1.034 0 .418-.084.773-.253 1.067-.16.286-.377.52-.649.704a2.763 2.763 0 01-.935.396 4.95 4.95 0 01-1.1.121zm7.128-7.04v6.93h-1.045v-6.93h-2.431v-.957h5.907v.957h-2.431zm5.03-.957h1.54l2.827 7.887h-1.1l-.814-2.255H57.82l-.803 2.255h-.968l2.805-7.887zm2.123 4.697l-1.408-3.927-1.408 3.927h2.816zm3.392-4.697h2.64c.932 0 1.64.183 2.123.55.492.359.737.927.737 1.705 0 .689-.168 1.217-.506 1.584-.33.366-.766.608-1.309.726l2.145 3.322h-1.166l-2.057-3.201h-1.573v3.201h-1.034v-7.887zm1.034.946v2.805h1.507c.28 0 .532-.026.76-.077.234-.052.432-.136.593-.253.17-.118.297-.272.385-.462.096-.198.143-.44.143-.726 0-.47-.154-.8-.462-.99-.308-.198-.748-.297-1.32-.297h-1.606zm8.852.011v6.93H73.21v-6.93h-2.43v-.957h5.906v.957h-2.43zm4.737-.957v7.887h-1.034v-7.887h1.034zm8.181 7.887h-1.407l-3.96-6.622v6.622h-.98v-7.887h1.397l3.96 6.622v-6.622h.99v7.887zm8.505-3.091c0 .462-.07.887-.209 1.276a2.657 2.657 0 01-.616 1.012c-.279.286-.63.509-1.056.671-.418.161-.913.242-1.485.242a3.983 3.983 0 01-1.529-.286 3.493 3.493 0 01-1.188-.825 3.72 3.72 0 01-.77-1.276 4.788 4.788 0 01-.275-1.661c0-.609.088-1.163.264-1.661.176-.499.433-.924.77-1.276a3.46 3.46 0 011.276-.814c.506-.198 1.089-.297 1.749-.297.337 0 .638.022.902.066.271.044.51.099.715.165.205.066.381.139.528.22.154.08.286.157.396.231v.99a7.426 7.426 0 00-.539-.286 4.221 4.221 0 00-1.265-.396 4.96 4.96 0 00-.77-.055c-.499 0-.931.069-1.298.209-.36.139-.66.344-.902.616-.235.264-.41.59-.528.979a4.45 4.45 0 00-.176 1.309c0 .982.231 1.749.693 2.299.47.542 1.118.814 1.947.814.41 0 .763-.052 1.056-.154.293-.11.532-.257.715-.44.183-.191.315-.415.396-.671.088-.264.132-.55.132-.858v-.22h-2.541v-.935h3.608v1.012zm.432 3.531h4.51v.825h-4.51v-.825zm6.354-8.327v7.887h-1.034v-7.887h1.034zm8.181 7.887h-1.408l-3.96-6.622v6.622h-.979v-7.887h1.397l3.96 6.622v-6.622h.99v7.887zm4.039.11c-.36 0-.682-.026-.968-.077a4.682 4.682 0 01-.759-.176 3.93 3.93 0 01-.55-.253 2.205 2.205 0 01-.352-.275v-.99c.11.095.253.194.429.297.176.095.377.183.605.264.234.08.484.146.748.198.271.051.553.077.847.077.572 0 1.026-.107 1.364-.319.337-.22.506-.55.506-.99 0-.22-.041-.4-.121-.539a.978.978 0 00-.352-.363 2.05 2.05 0 00-.583-.253 14.166 14.166 0 00-.803-.231 15.395 15.395 0 01-.924-.275 3.434 3.434 0 01-.836-.407 2.071 2.071 0 01-.594-.638c-.147-.257-.22-.583-.22-.979 0-.682.238-1.214.715-1.595.476-.382 1.206-.572 2.189-.572.286 0 .539.018.759.055.227.029.425.069.594.121.176.044.326.095.451.154.132.058.249.113.352.165v.99a3.076 3.076 0 00-1.001-.418 4.757 4.757 0 00-1.155-.132c-.352 0-.649.029-.891.088a1.562 1.562 0 00-.572.231.903.903 0 00-.319.374 1.189 1.189 0 00-.099.495c0 .22.047.403.143.55.102.146.234.271.396.374.168.095.359.176.572.242.212.066.436.124.671.176.308.073.623.157.946.253.322.095.612.227.869.396.256.168.465.388.627.66.168.264.253.608.253 1.034 0 .418-.085.773-.253 1.067-.162.286-.378.52-.649.704a2.769 2.769 0 01-.935.396c-.352.08-.719.121-1.1.121zm7.127-7.04v6.93h-1.045v-6.93h-2.431v-.957h5.907v.957h-2.431zm5.031-.957h1.54l2.827 7.887h-1.1l-.814-2.255h-3.487l-.803 2.255h-.968l2.805-7.887zm2.123 4.697l-1.408-3.927-1.408 3.927h2.816zm9.739 3.19h-1.408l-3.96-6.622v6.622h-.979v-7.887h1.397l3.96 6.622v-6.622h.99v7.887zm5.259.11a4.423 4.423 0 01-1.595-.275 3.519 3.519 0 01-1.232-.792 3.646 3.646 0 01-.781-1.276 4.99 4.99 0 01-.275-1.705c0-.638.085-1.207.253-1.705.169-.499.418-.921.748-1.265.33-.352.734-.62 1.21-.803.484-.184 1.034-.275 1.65-.275.536 0 1.005.058 1.408.176.404.11.734.242.99.396v.99a3.622 3.622 0 00-1.144-.473 5.357 5.357 0 00-1.265-.154c-.931 0-1.62.26-2.068.781-.44.513-.66 1.29-.66 2.332 0 1.048.239 1.829.715 2.343.484.513 1.196.77 2.134.77a4.22 4.22 0 001.177-.165c.389-.11.759-.297 1.111-.561v.99c-.212.168-.524.322-.935.462-.403.139-.883.209-1.441.209zm3.959-7.997h4.884v.946h-3.85v2.387h3.267v.935h-3.267v2.684h3.905v.935h-4.939v-7.887z" fill="#18123D"/><path d="M430 585l5 2.887v-5.774L430 585zm129.5-55v50h1v-50h-1zm-4.5 54.5H434.5v1H555v-1zm4.5-4.5a4.5 4.5 0 01-4.5 4.5v1a5.5 5.5 0 005.5-5.5h-1zM230 185l-5-2.887v5.774l5-2.887zM99.5 720V190h-1v530h1zm4.5-534.5h121.5v-1H104v1zm-4.5 4.5a4.5 4.5 0 014.5-4.5v-1a5.5 5.5 0 00-5.5 5.5h1z" fill="#18123D" fill-opacity=".7"/></svg>