<svg width="16" height="15" viewBox="0 0 16 15" fill="none" xmlns="http://www.w3.org/2000/svg">
<path fill-rule="evenodd" clip-rule="evenodd" d="M0 5.1875C0 4.44771 0.40837 3.76834 1.06169 3.42127L7.06169 0.233768C7.6484 -0.0779229 8.3516 -0.0779227 8.93831 0.233769L14.9383 3.42127C15.5916 3.76834 16 4.44771 16 5.1875V12.9853C16 14.0899 15.1046 14.9853 14 14.9853H2C0.895431 14.9853 0 14.0899 0 12.9853V5.1875ZM3 6.98503C3 6.43275 3.44772 5.98503 4 5.98503H12C12.5523 5.98503 13 6.43275 13 6.98503C13 7.53732 12.5523 7.98503 12 7.98503H4C3.44772 7.98503 3 7.53732 3 6.98503ZM4 9.98503C3.44772 9.98503 3 10.4327 3 10.985C3 11.5373 3.44772 11.985 4 11.985H8C8.55228 11.985 9 11.5373 9 10.985C9 10.4327 8.55228 9.98503 8 9.98503H4Z" fill="black"/>
</svg>
