<svg xmlns="http://www.w3.org/2000/svg" width="17" height="16" fill="currentColor" aria-hidden="true" class="yc-icon"><svg xmlns="http://www.w3.org/2000/svg" viewBox="0 0 17 16"><path fill-opacity=".85" d="M15.844 7.281h-1.625V5.656a.437.437 0 0 0-.406-.406H13a.418.418 0 0 0-.406.406v1.625h-1.625a.418.418 0 0 0-.406.407V8.5a.4.4 0 0 0 .406.406h1.625v1.625a.4.4 0 0 0 .406.406h.813a.418.418 0 0 0 .406-.406V8.906h1.625a.418.418 0 0 0 .406-.406v-.813a.437.437 0 0 0-.406-.406zM5.688 8.5a3.256 3.256 0 0 0 3.25-3.25C8.938 3.473 7.465 2 5.688 2a3.256 3.256 0 0 0-3.25 3.25 3.24 3.24 0 0 0 3.25 3.25zm2.26.813h-.432c-.559.279-1.168.406-1.829.406-.66 0-1.294-.127-1.853-.406h-.432C1.523 9.313 0 10.86 0 12.74v1.041C0 14.467.533 15 1.219 15h8.937a1.22 1.22 0 0 0 1.219-1.219v-1.04a3.446 3.446 0 0 0-3.428-3.428z"/></svg></svg>