<svg xmlns="http://www.w3.org/2000/svg" width="14" height="15" fill="currentColor" aria-hidden="true" class="yc-icon"><svg xmlns="http://www.w3.org/2000/svg" viewBox="0 0 14 15"><path fill-rule="evenodd" d="M8 2H6a.5.5 0 0 0-.5.5V3h3v-.5A.5.5 0 0 0 8 2zm2 1v-.5a2 2 0 0 0-2-2H6a2 2 0 0 0-2 2V3H1.251a.75.75 0 0 0 0 1.5h.312l.317 7.625A3 3 0 0 0 4.878 15h4.245a3 3 0 0 0 2.997-2.875l.318-7.625h.312a.75.75 0 0 0 0-1.5H10zm.936 1.5H3.064l.315 7.562A1.5 1.5 0 0 0 4.878 13.5h4.245a1.5 1.5 0 0 0 1.498-1.438l.315-7.562zm-6.186 2v5a.75.75 0 0 0 1.5 0v-5a.75.75 0 0 0-1.5 0zm3.75-.75a.75.75 0 0 1 .75.75v5a.75.75 0 0 1-1.5 0v-5a.75.75 0 0 1 .75-.75z" clip-rule="evenodd"/></svg></svg>