<svg xmlns="http://www.w3.org/2000/svg" xmlns:xlink="http://www.w3.org/1999/xlink" width="20" height="20" class="yc-icon nv-composite-bar__menu-icon" fill="currentColor" stroke="none" aria-hidden="true"><svg viewBox="0 0 16 16" xmlns="http://www.w3.org/2000/svg"><path d="M1.5 8a6.5 6.5 0 0110.585-5.056.75.75 0 00.944-1.166A8 8 0 00.445 10.636a.75.75 0 101.416-.494A6.489 6.489 0 011.5 8zM14.5 8a6.5 6.5 0 01-10.586 5.056.75.75 0 10-.943 1.166 8 8 0 0012.584-8.858.75.75 0 00-1.416.494c.234.67.361 1.39.361 2.142z"></path><path fill-rule="evenodd" clip-rule="evenodd" d="M11.5 8a3.5 3.5 0 11-7 0 3.5 3.5 0 017 0zM10 8a2 2 0 11-4 0 2 2 0 014 0z"></path></svg></svg>