<svg xmlns="http://www.w3.org/2000/svg" xmlns:xlink="http://www.w3.org/1999/xlink" width="15" height="17" class="yc-icon" fill="currentColor" stroke="none" aria-hidden="true"><svg viewBox="0 0 15 17" xmlns="http://www.w3.org/2000/svg"><path fill-rule="evenodd" clip-rule="evenodd" d="M14.447 2.656h-2.646L10.709.774A1.531 1.531 0 009.387 0H6.15c-.541 0-1.043.294-1.322.774L3.736 2.656H1.09a.523.523 0 00-.514.531v.532c0 .293.23.531.514.531h.514v11.156c0 .88.69 1.594 1.54 1.594h9.248c.851 0 1.541-.713 1.541-1.594V4.25h.514a.523.523 0 00.514-.531v-.531a.523.523 0 00-.514-.532zM9.181 13.812h.77a.392.392 0 00.386-.398V6.242a.392.392 0 00-.385-.398h-.77a.392.392 0 00-.386.398v7.172c0 .22.173.399.385.399zM6.26 1.595a.191.191 0 00-.166.096l-.56.966h4.47l-.56-.966a.191.191 0 00-.166-.096H6.26zm6.133 13.812H3.145V4.25h9.248v11.156zm-6.036-1.594h-.771a.392.392 0 01-.385-.398V6.242c0-.22.172-.398.385-.398h.77c.213 0 .386.178.386.398v7.172c0 .22-.173.399-.385.399z" fill-opacity="0.85"></path></svg></svg>