<svg width="800" height="280" viewBox="0 0 800 280" fill="none" xmlns="http://www.w3.org/2000/svg">
<path fill-rule="evenodd" clip-rule="evenodd" d="M245 144C245 158.359 256.641 170 271 170H343C355.15 170 365 160.15 365 148C365 136.524 356.213 127.1 345 126.09L345 126C345 106.118 328.882 90 309 90C291.812 90 277.437 102.045 273.857 118.155C272.919 118.053 271.966 118 271 118C256.641 118 245 129.641 245 144Z" fill="white" stroke="#5282FF" stroke-width="2" stroke-linecap="round" stroke-linejoin="round"/>
<path d="M276.172 144H274.744V133.962H276.06V142.208L281.296 133.962H282.724V144H281.38V135.796L276.172 144ZM286.144 136.734V139.73H289.658V136.734H290.89V144H289.658V140.78H286.144V144H284.912V136.734H286.144ZM292.322 136.734H298.16V137.784H295.836V144H294.604V137.784H292.322V136.734ZM302.597 144.14C301.384 144.14 300.455 143.809 299.811 143.146C299.176 142.474 298.859 141.545 298.859 140.36C298.859 139.567 299.008 138.89 299.307 138.33C299.606 137.77 300.016 137.341 300.539 137.042C301.062 136.743 301.65 136.594 302.303 136.594C303.414 136.594 304.23 136.963 304.753 137.7C305.276 138.428 305.444 139.427 305.257 140.696H300.133C300.236 142.255 301.094 143.034 302.709 143.034C303.596 143.034 304.412 142.782 305.159 142.278V143.384C304.823 143.617 304.431 143.804 303.983 143.944C303.535 144.075 303.073 144.14 302.597 144.14ZM302.275 137.686C301.743 137.686 301.286 137.849 300.903 138.176C300.52 138.503 300.278 138.997 300.175 139.66H304.081C304.109 139.035 303.964 138.549 303.647 138.204C303.33 137.859 302.872 137.686 302.275 137.686ZM306.91 136.734H307.988L308.114 138.148C308.348 137.681 308.67 137.308 309.08 137.028C309.5 136.739 310.014 136.594 310.62 136.594C311.19 136.594 311.712 136.734 312.188 137.014C312.674 137.285 313.066 137.7 313.364 138.26C313.663 138.811 313.812 139.511 313.812 140.36C313.812 141.209 313.658 141.914 313.35 142.474C313.052 143.034 312.655 143.454 312.16 143.734C311.675 144.005 311.143 144.14 310.564 144.14C310.014 144.14 309.533 144.009 309.122 143.748C308.712 143.487 308.385 143.127 308.142 142.67V146.478H306.91V136.734ZM312.538 140.36C312.538 139.483 312.338 138.82 311.936 138.372C311.535 137.915 311.017 137.686 310.382 137.686C309.748 137.686 309.211 137.91 308.772 138.358C308.343 138.797 308.128 139.464 308.128 140.36C308.128 141.265 308.343 141.937 308.772 142.376C309.211 142.815 309.748 143.034 310.382 143.034C311.017 143.034 311.535 142.81 311.936 142.362C312.338 141.914 312.538 141.247 312.538 140.36ZM316.537 136.734V139.73H320.051V136.734H321.283V144H320.051V140.78H316.537V144H315.305V136.734H316.537ZM326.523 144.14C325.31 144.14 324.381 143.809 323.737 143.146C323.102 142.474 322.785 141.545 322.785 140.36C322.785 139.567 322.934 138.89 323.233 138.33C323.532 137.77 323.942 137.341 324.465 137.042C324.988 136.743 325.576 136.594 326.229 136.594C327.34 136.594 328.156 136.963 328.679 137.7C329.202 138.428 329.37 139.427 329.183 140.696H324.059C324.162 142.255 325.02 143.034 326.635 143.034C327.522 143.034 328.338 142.782 329.085 142.278V143.384C328.749 143.617 328.357 143.804 327.909 143.944C327.461 144.075 326.999 144.14 326.523 144.14ZM326.201 137.686C325.669 137.686 325.212 137.849 324.829 138.176C324.446 138.503 324.204 138.997 324.101 139.66H328.007C328.035 139.035 327.89 138.549 327.573 138.204C327.256 137.859 326.798 137.686 326.201 137.686ZM330.18 136.734H336.018V137.784H333.694V144H332.462V137.784H330.18V136.734Z" fill="black"/>
<rect x="35" y="85" width="140" height="110" rx="10" fill="white"/>
<rect x="35" y="85" width="140" height="110" rx="10" stroke="#5282FF" stroke-width="2"/>
<path d="M86.7483 101.962H90.1223C90.7943 101.962 91.4196 102.041 91.9983 102.2C92.5769 102.359 93.0809 102.62 93.5103 102.984C93.9396 103.339 94.2756 103.815 94.5183 104.412C94.7609 105.009 94.8823 105.751 94.8823 106.638C94.8823 107.814 94.6676 108.803 94.2383 109.606C93.8183 110.399 93.2396 110.997 92.5023 111.398C91.7649 111.799 90.9203 112 89.9683 112H86.7483V101.962ZM89.9683 110.81C90.6589 110.81 91.2656 110.67 91.7883 110.39C92.3109 110.101 92.7169 109.657 93.0063 109.06C93.3049 108.453 93.4543 107.679 93.4543 106.736C93.4543 105.793 93.3096 105.065 93.0203 104.552C92.7309 104.039 92.3343 103.679 91.8303 103.474C91.3356 103.269 90.7663 103.166 90.1223 103.166H88.0643V110.81H89.9683ZM96.633 101.962H100.007C100.679 101.962 101.304 102.041 101.883 102.2C102.462 102.359 102.966 102.62 103.395 102.984C103.824 103.339 104.16 103.815 104.403 104.412C104.646 105.009 104.767 105.751 104.767 106.638C104.767 107.814 104.552 108.803 104.123 109.606C103.703 110.399 103.124 110.997 102.387 111.398C101.65 111.799 100.805 112 99.853 112H96.633V101.962ZM99.853 110.81C100.544 110.81 101.15 110.67 101.673 110.39C102.196 110.101 102.602 109.657 102.891 109.06C103.19 108.453 103.339 107.679 103.339 106.736C103.339 105.793 103.194 105.065 102.905 104.552C102.616 104.039 102.219 103.679 101.715 103.474C101.22 103.269 100.651 103.166 100.007 103.166H97.949V110.81H99.853ZM109.4 112.14C108.737 112.14 108.14 111.995 107.608 111.706C107.085 111.407 106.67 110.978 106.362 110.418C106.054 109.849 105.9 109.163 105.9 108.36C105.9 107.557 106.054 106.876 106.362 106.316C106.67 105.756 107.085 105.331 107.608 105.042C108.14 104.743 108.737 104.594 109.4 104.594C110.072 104.594 110.674 104.743 111.206 105.042C111.738 105.331 112.158 105.756 112.466 106.316C112.774 106.876 112.928 107.557 112.928 108.36C112.928 109.163 112.774 109.849 112.466 110.418C112.158 110.978 111.738 111.407 111.206 111.706C110.674 111.995 110.072 112.14 109.4 112.14ZM109.4 111.034C110.053 111.034 110.595 110.819 111.024 110.39C111.453 109.951 111.668 109.275 111.668 108.36C111.668 107.445 111.453 106.773 111.024 106.344C110.595 105.905 110.053 105.686 109.4 105.686C108.756 105.686 108.219 105.905 107.79 106.344C107.37 106.773 107.16 107.445 107.16 108.36C107.16 109.275 107.37 109.951 107.79 110.39C108.219 110.819 108.756 111.034 109.4 111.034ZM117.398 112.14C116.689 112.14 116.031 112.051 115.424 111.874C114.827 111.687 114.369 111.445 114.052 111.146V109.886C114.285 110.091 114.584 110.273 114.948 110.432C115.321 110.591 115.723 110.717 116.152 110.81C116.581 110.903 116.997 110.95 117.398 110.95C118.154 110.95 118.737 110.805 119.148 110.516C119.568 110.227 119.778 109.816 119.778 109.284C119.778 108.967 119.713 108.71 119.582 108.514C119.461 108.309 119.227 108.131 118.882 107.982C118.546 107.833 118.056 107.679 117.412 107.52C116.572 107.305 115.914 107.067 115.438 106.806C114.962 106.545 114.626 106.237 114.43 105.882C114.234 105.518 114.136 105.089 114.136 104.594C114.136 103.698 114.453 103.017 115.088 102.55C115.723 102.074 116.637 101.836 117.832 101.836C118.355 101.836 118.835 101.887 119.274 101.99C119.713 102.093 120.147 102.251 120.576 102.466V103.726C119.876 103.259 118.961 103.026 117.832 103.026C116.236 103.026 115.438 103.53 115.438 104.538C115.438 104.977 115.601 105.322 115.928 105.574C116.264 105.826 116.857 106.05 117.706 106.246C118.583 106.442 119.269 106.671 119.764 106.932C120.259 107.193 120.609 107.511 120.814 107.884C121.029 108.248 121.136 108.696 121.136 109.228C121.136 110.133 120.805 110.847 120.142 111.37C119.479 111.883 118.565 112.14 117.398 112.14ZM69.2595 121.734V127.292L72.9975 121.734H74.2435V129H73.0115V123.456L69.2875 129H68.0275V121.734H69.2595ZM81.8887 129H79.0607V121.734H81.9167C82.7847 121.734 83.4427 121.888 83.8907 122.196C84.3481 122.495 84.5767 122.966 84.5767 123.61C84.5767 124.03 84.4647 124.371 84.2407 124.632C84.0261 124.893 83.7181 125.08 83.3167 125.192C84.3527 125.36 84.8707 125.934 84.8707 126.914C84.8707 127.409 84.7401 127.81 84.4787 128.118C84.2267 128.426 83.8767 128.65 83.4287 128.79C82.9807 128.93 82.4674 129 81.8887 129ZM81.9027 122.784H80.2927V124.758H81.8047C82.2714 124.758 82.6447 124.674 82.9247 124.506C83.2141 124.338 83.3587 124.095 83.3587 123.778C83.3587 123.395 83.2327 123.134 82.9807 122.994C82.7287 122.854 82.3694 122.784 81.9027 122.784ZM81.8747 125.738H80.2927V127.95H81.8747C82.3974 127.95 82.8174 127.875 83.1347 127.726C83.4521 127.567 83.6107 127.283 83.6107 126.872C83.6107 126.461 83.4661 126.172 83.1767 126.004C82.8874 125.827 82.4534 125.738 81.8747 125.738ZM89.937 129.14C88.7237 129.14 87.795 128.809 87.151 128.146C86.5163 127.474 86.199 126.545 86.199 125.36C86.199 124.567 86.3483 123.89 86.647 123.33C86.9457 122.77 87.3563 122.341 87.879 122.042C88.4017 121.743 88.9897 121.594 89.643 121.594C90.7537 121.594 91.5703 121.963 92.093 122.7C92.6157 123.428 92.7837 124.427 92.597 125.696H87.473C87.5757 127.255 88.4343 128.034 90.049 128.034C90.9357 128.034 91.7523 127.782 92.499 127.278V128.384C92.163 128.617 91.771 128.804 91.323 128.944C90.875 129.075 90.413 129.14 89.937 129.14ZM89.615 122.686C89.083 122.686 88.6257 122.849 88.243 123.176C87.8603 123.503 87.6177 123.997 87.515 124.66H91.421C91.449 124.035 91.3043 123.549 90.987 123.204C90.6697 122.859 90.2123 122.686 89.615 122.686ZM97.5402 121.636C98.1562 121.636 98.7069 121.781 99.1922 122.07C99.6869 122.359 100.079 122.784 100.368 123.344C100.658 123.895 100.802 124.567 100.802 125.36C100.802 126.163 100.648 126.849 100.34 127.418C100.032 127.978 99.6122 128.407 99.0802 128.706C98.5482 128.995 97.9462 129.14 97.2742 129.14C96.5929 129.14 95.9862 128.986 95.4542 128.678C94.9315 128.361 94.5209 127.885 94.2222 127.25C93.9235 126.615 93.7742 125.808 93.7742 124.828C93.7742 123.764 93.8349 122.877 93.9562 122.168C94.0869 121.459 94.2875 120.88 94.5582 120.432C94.8289 119.975 95.1929 119.611 95.6502 119.34C95.8742 119.209 96.1075 119.107 96.3502 119.032C96.5929 118.957 96.8962 118.901 97.2602 118.864C97.6335 118.817 98.1095 118.785 98.6882 118.766C99.0522 118.738 99.3602 118.691 99.6122 118.626C99.8642 118.561 100.093 118.472 100.298 118.36V119.48C100.121 119.592 99.9249 119.681 99.7102 119.746C99.4955 119.802 99.1969 119.849 98.8142 119.886C98.2635 119.942 97.8249 119.979 97.4982 119.998C97.1809 120.017 96.9242 120.045 96.7282 120.082C96.5322 120.119 96.3362 120.194 96.1402 120.306C95.7389 120.53 95.4355 120.866 95.2302 121.314C95.0249 121.753 94.8849 122.406 94.8102 123.274C95.2955 122.182 96.2055 121.636 97.5402 121.636ZM97.2742 128.034C97.9275 128.034 98.4689 127.819 98.8982 127.39C99.3275 126.951 99.5422 126.275 99.5422 125.36C99.5422 124.445 99.3275 123.773 98.8982 123.344C98.4689 122.905 97.9275 122.686 97.2742 122.686C96.6302 122.686 96.0935 122.901 95.6642 123.33C95.2442 123.759 95.0342 124.422 95.0342 125.318C95.0342 126.251 95.2442 126.937 95.6642 127.376C96.0935 127.815 96.6302 128.034 97.2742 128.034ZM102.313 125.29V124.17H105.673V125.29H102.313ZM109.853 122.686C109.078 122.686 108.294 122.924 107.501 123.4V122.294C107.846 122.079 108.243 121.911 108.691 121.79C109.148 121.659 109.592 121.594 110.021 121.594C110.936 121.594 111.631 121.785 112.107 122.168C112.583 122.551 112.821 123.134 112.821 123.918V127.824C112.821 127.983 112.826 128.188 112.835 128.44C112.854 128.683 112.872 128.869 112.891 129H111.771C111.743 128.869 111.715 128.687 111.687 128.454C111.668 128.211 111.659 128.001 111.659 127.824L111.645 127.614C111.533 127.838 111.379 128.071 111.183 128.314C110.987 128.547 110.726 128.743 110.399 128.902C110.082 129.061 109.685 129.14 109.209 129.14C108.556 129.14 108.028 128.953 107.627 128.58C107.226 128.207 107.025 127.679 107.025 126.998C107.025 126.205 107.305 125.621 107.865 125.248C108.425 124.875 109.214 124.688 110.231 124.688H111.589V124.086C111.589 123.582 111.458 123.223 111.197 123.008C110.936 122.793 110.488 122.686 109.853 122.686ZM111.589 126.2V125.668H110.357C109.62 125.668 109.083 125.775 108.747 125.99C108.42 126.205 108.257 126.517 108.257 126.928C108.257 127.255 108.355 127.521 108.551 127.726C108.756 127.931 109.064 128.034 109.475 128.034C109.858 128.034 110.184 127.959 110.455 127.81C110.726 127.651 110.945 127.465 111.113 127.25C111.281 127.026 111.402 126.816 111.477 126.62C111.552 126.424 111.589 126.284 111.589 126.2ZM114.102 121.734H119.94V122.784H117.616V129H116.384V122.784H114.102V121.734ZM123.62 122.686C122.846 122.686 122.062 122.924 121.268 123.4V122.294C121.614 122.079 122.01 121.911 122.458 121.79C122.916 121.659 123.359 121.594 123.788 121.594C124.703 121.594 125.398 121.785 125.874 122.168C126.35 122.551 126.588 123.134 126.588 123.918V127.824C126.588 127.983 126.593 128.188 126.602 128.44C126.621 128.683 126.64 128.869 126.658 129H125.538C125.51 128.869 125.482 128.687 125.454 128.454C125.436 128.211 125.426 128.001 125.426 127.824L125.412 127.614C125.3 127.838 125.146 128.071 124.95 128.314C124.754 128.547 124.493 128.743 124.166 128.902C123.849 129.061 123.452 129.14 122.976 129.14C122.323 129.14 121.796 128.953 121.394 128.58C120.993 128.207 120.792 127.679 120.792 126.998C120.792 126.205 121.072 125.621 121.632 125.248C122.192 124.875 122.981 124.688 123.998 124.688H125.356V124.086C125.356 123.582 125.226 123.223 124.964 123.008C124.703 122.793 124.255 122.686 123.62 122.686ZM125.356 126.2V125.668H124.124C123.387 125.668 122.85 125.775 122.514 125.99C122.188 126.205 122.024 126.517 122.024 126.928C122.024 127.255 122.122 127.521 122.318 127.726C122.524 127.931 122.832 128.034 123.242 128.034C123.625 128.034 123.952 127.959 124.222 127.81C124.493 127.651 124.712 127.465 124.88 127.25C125.048 127.026 125.17 126.816 125.244 126.62C125.319 126.424 125.356 126.284 125.356 126.2ZM134.462 129H132.964L130.402 125.906H129.758V129H128.526V121.734H129.758V124.856H130.458L133.006 121.734H134.406L131.424 125.318L134.462 129ZM136.99 121.734V127.292L140.728 121.734H141.974V129H140.742V123.456L137.018 129H135.758V121.734H136.99Z" fill="black"/>
<rect x="52" y="145" width="32" height="32" rx="16" fill="#FF5958"/>
<path d="M74 154V163.236C74 164.744 73.155 166.042 71.923 166.723L68 169L64.077 166.724C62.845 166.042 62 164.744 62 163.236V154H74Z" fill="white"/>
<path d="M75 154.5L60 169.5" stroke="#FF5958"/>
<rect x="126" y="145" width="32" height="32" rx="16" fill="#FF5958"/>
<path d="M148 154V163.236C148 164.744 147.155 166.042 145.923 166.723L142 169L138.077 166.724C136.845 166.042 136 164.744 136 163.236V154H148Z" fill="white"/>
<path d="M149 154.5L134 169.5" stroke="#FF5958"/>
<rect x="89" y="145" width="32" height="32" rx="16" fill="#FF5958"/>
<path d="M111 154V163.236C111 164.744 110.155 166.042 108.923 166.723L105 169L101.077 166.724C99.845 166.042 99 164.744 99 163.236V154H111Z" fill="white"/>
<path d="M112 154.5L97 169.5" stroke="#FF5958"/>
<path d="M240 140L230 134.226L230 145.774L240 140ZM180 141H231L231 139H180L180 141Z" fill="#4E496B"/>
<path d="M430 140L420 134.226L420 145.774L430 140ZM370 141H421L421 139H370L370 141Z" fill="#4E496B"/>
<path d="M620 140L610 134.226L610 145.774L620 140ZM560 141H611L611 139H560L560 141Z" fill="#4E496B"/>
<rect x="435" y="40" width="120" height="200" rx="10" fill="white"/>
<rect x="435" y="40" width="120" height="200" rx="10" stroke="#5282FF" stroke-width="2"/>
<path d="M468.636 114H467.236L466.2 111.13H461.762L460.74 114H459.508L463.078 103.962H465.038L468.636 114ZM462.196 109.94H465.78L463.988 104.942L462.196 109.94ZM469.792 106.734H470.87L470.996 108.148C471.23 107.681 471.552 107.308 471.962 107.028C472.382 106.739 472.896 106.594 473.502 106.594C474.072 106.594 474.594 106.734 475.07 107.014C475.556 107.285 475.948 107.7 476.246 108.26C476.545 108.811 476.694 109.511 476.694 110.36C476.694 111.209 476.54 111.914 476.232 112.474C475.934 113.034 475.537 113.454 475.042 113.734C474.557 114.005 474.025 114.14 473.446 114.14C472.896 114.14 472.415 114.009 472.004 113.748C471.594 113.487 471.267 113.127 471.024 112.67V116.478H469.792V106.734ZM475.42 110.36C475.42 109.483 475.22 108.82 474.818 108.372C474.417 107.915 473.899 107.686 473.264 107.686C472.63 107.686 472.093 107.91 471.654 108.358C471.225 108.797 471.01 109.464 471.01 110.36C471.01 111.265 471.225 111.937 471.654 112.376C472.093 112.815 472.63 113.034 473.264 113.034C473.899 113.034 474.417 112.81 474.818 112.362C475.22 111.914 475.42 111.247 475.42 110.36ZM478.187 106.734H479.265L479.391 108.148C479.624 107.681 479.946 107.308 480.357 107.028C480.777 106.739 481.29 106.594 481.897 106.594C482.466 106.594 482.989 106.734 483.465 107.014C483.95 107.285 484.342 107.7 484.641 108.26C484.939 108.811 485.089 109.511 485.089 110.36C485.089 111.209 484.935 111.914 484.627 112.474C484.328 113.034 483.931 113.454 483.437 113.734C482.951 114.005 482.419 114.14 481.841 114.14C481.29 114.14 480.809 114.009 480.399 113.748C479.988 113.487 479.661 113.127 479.419 112.67V116.478H478.187V106.734ZM483.815 110.36C483.815 109.483 483.614 108.82 483.213 108.372C482.811 107.915 482.293 107.686 481.659 107.686C481.024 107.686 480.487 107.91 480.049 108.358C479.619 108.797 479.405 109.464 479.405 110.36C479.405 111.265 479.619 111.937 480.049 112.376C480.487 112.815 481.024 113.034 481.659 113.034C482.293 113.034 482.811 112.81 483.213 112.362C483.614 111.914 483.815 111.247 483.815 110.36ZM486.581 103.962H487.813V114H486.581V103.962ZM490.451 105.67C490.199 105.67 489.999 105.595 489.849 105.446C489.7 105.287 489.625 105.096 489.625 104.872C489.625 104.648 489.7 104.457 489.849 104.298C489.999 104.139 490.199 104.06 490.451 104.06C490.694 104.06 490.885 104.139 491.025 104.298C491.165 104.457 491.235 104.648 491.235 104.872C491.235 105.096 491.165 105.287 491.025 105.446C490.885 105.595 490.694 105.67 490.451 105.67ZM489.821 106.734H491.053V114H489.821V106.734ZM496.198 114.14C495.068 114.14 494.177 113.809 493.524 113.146C492.87 112.474 492.544 111.545 492.544 110.36C492.544 109.175 492.875 108.251 493.538 107.588C494.2 106.925 495.106 106.594 496.254 106.594C496.692 106.594 497.103 106.645 497.486 106.748C497.868 106.841 498.176 106.981 498.41 107.168V108.274C497.775 107.882 497.061 107.686 496.268 107.686C495.428 107.686 494.807 107.91 494.406 108.358C494.004 108.797 493.804 109.464 493.804 110.36C493.804 111.256 493.995 111.928 494.378 112.376C494.77 112.815 495.376 113.034 496.198 113.034C496.991 113.034 497.728 112.843 498.41 112.46V113.566C497.803 113.949 497.066 114.14 496.198 114.14ZM502.375 107.686C501.601 107.686 500.817 107.924 500.023 108.4V107.294C500.369 107.079 500.765 106.911 501.213 106.79C501.671 106.659 502.114 106.594 502.543 106.594C503.458 106.594 504.153 106.785 504.629 107.168C505.105 107.551 505.343 108.134 505.343 108.918V112.824C505.343 112.983 505.348 113.188 505.357 113.44C505.376 113.683 505.395 113.869 505.413 114H504.293C504.265 113.869 504.237 113.687 504.209 113.454C504.191 113.211 504.181 113.001 504.181 112.824L504.167 112.614C504.055 112.838 503.901 113.071 503.705 113.314C503.509 113.547 503.248 113.743 502.921 113.902C502.604 114.061 502.207 114.14 501.731 114.14C501.078 114.14 500.551 113.953 500.149 113.58C499.748 113.207 499.547 112.679 499.547 111.998C499.547 111.205 499.827 110.621 500.387 110.248C500.947 109.875 501.736 109.688 502.753 109.688H504.111V109.086C504.111 108.582 503.981 108.223 503.719 108.008C503.458 107.793 503.01 107.686 502.375 107.686ZM504.111 111.2V110.668H502.879C502.142 110.668 501.605 110.775 501.269 110.99C500.943 111.205 500.779 111.517 500.779 111.928C500.779 112.255 500.877 112.521 501.073 112.726C501.279 112.931 501.587 113.034 501.997 113.034C502.38 113.034 502.707 112.959 502.977 112.81C503.248 112.651 503.467 112.465 503.635 112.25C503.803 112.026 503.925 111.816 503.999 111.62C504.074 111.424 504.111 111.284 504.111 111.2ZM506.692 107.784V106.734H507.56V105.208H508.792V106.734H510.906V107.784H508.792V112.152C508.792 112.46 508.872 112.684 509.03 112.824C509.189 112.964 509.46 113.034 509.842 113.034C510.206 113.034 510.538 112.931 510.836 112.726V113.846C510.687 113.939 510.491 114.009 510.248 114.056C510.006 114.112 509.763 114.14 509.52 114.14C509.054 114.14 508.676 114.051 508.386 113.874C508.097 113.697 507.887 113.468 507.756 113.188C507.626 112.908 507.56 112.614 507.56 112.306V107.784H506.692ZM513.106 105.67C512.854 105.67 512.653 105.595 512.504 105.446C512.354 105.287 512.28 105.096 512.28 104.872C512.28 104.648 512.354 104.457 512.504 104.298C512.653 104.139 512.854 104.06 513.106 104.06C513.348 104.06 513.54 104.139 513.68 104.298C513.82 104.457 513.89 104.648 513.89 104.872C513.89 105.096 513.82 105.287 513.68 105.446C513.54 105.595 513.348 105.67 513.106 105.67ZM512.476 106.734H513.708V114H512.476V106.734ZM518.698 114.14C518.035 114.14 517.438 113.995 516.906 113.706C516.383 113.407 515.968 112.978 515.66 112.418C515.352 111.849 515.198 111.163 515.198 110.36C515.198 109.557 515.352 108.876 515.66 108.316C515.968 107.756 516.383 107.331 516.906 107.042C517.438 106.743 518.035 106.594 518.698 106.594C519.37 106.594 519.972 106.743 520.504 107.042C521.036 107.331 521.456 107.756 521.764 108.316C522.072 108.876 522.226 109.557 522.226 110.36C522.226 111.163 522.072 111.849 521.764 112.418C521.456 112.978 521.036 113.407 520.504 113.706C519.972 113.995 519.37 114.14 518.698 114.14ZM518.698 113.034C519.351 113.034 519.893 112.819 520.322 112.39C520.751 111.951 520.966 111.275 520.966 110.36C520.966 109.445 520.751 108.773 520.322 108.344C519.893 107.905 519.351 107.686 518.698 107.686C518.054 107.686 517.517 107.905 517.088 108.344C516.668 108.773 516.458 109.445 516.458 110.36C516.458 111.275 516.668 111.951 517.088 112.39C517.517 112.819 518.054 113.034 518.698 113.034ZM527.172 107.686C526.612 107.686 526.154 107.817 525.8 108.078C525.454 108.33 525.174 108.657 524.96 109.058V114H523.728V106.734H524.89L524.932 108.036H524.96C525.156 107.625 525.464 107.285 525.884 107.014C526.304 106.734 526.836 106.594 527.48 106.594C528.198 106.594 528.768 106.785 529.188 107.168C529.617 107.551 529.832 108.129 529.832 108.904V114H528.6V109.03C528.6 108.535 528.469 108.19 528.208 107.994C527.956 107.789 527.61 107.686 527.172 107.686ZM451.906 117.962H453.222V126.81H458.108V128H451.906V117.962ZM462.459 128.14C461.796 128.14 461.199 127.995 460.667 127.706C460.144 127.407 459.729 126.978 459.421 126.418C459.113 125.849 458.959 125.163 458.959 124.36C458.959 123.557 459.113 122.876 459.421 122.316C459.729 121.756 460.144 121.331 460.667 121.042C461.199 120.743 461.796 120.594 462.459 120.594C463.131 120.594 463.733 120.743 464.265 121.042C464.797 121.331 465.217 121.756 465.525 122.316C465.833 122.876 465.987 123.557 465.987 124.36C465.987 125.163 465.833 125.849 465.525 126.418C465.217 126.978 464.797 127.407 464.265 127.706C463.733 127.995 463.131 128.14 462.459 128.14ZM462.459 127.034C463.112 127.034 463.653 126.819 464.083 126.39C464.512 125.951 464.727 125.275 464.727 124.36C464.727 123.445 464.512 122.773 464.083 122.344C463.653 121.905 463.112 121.686 462.459 121.686C461.815 121.686 461.278 121.905 460.849 122.344C460.429 122.773 460.219 123.445 460.219 124.36C460.219 125.275 460.429 125.951 460.849 126.39C461.278 126.819 461.815 127.034 462.459 127.034ZM469.816 121.686C469.041 121.686 468.257 121.924 467.464 122.4V121.294C467.809 121.079 468.206 120.911 468.654 120.79C469.111 120.659 469.554 120.594 469.984 120.594C470.898 120.594 471.594 120.785 472.07 121.168C472.546 121.551 472.784 122.134 472.784 122.918V126.824C472.784 126.983 472.788 127.188 472.798 127.44C472.816 127.683 472.835 127.869 472.854 128H471.734C471.706 127.869 471.678 127.687 471.65 127.454C471.631 127.211 471.622 127.001 471.622 126.824L471.608 126.614C471.496 126.838 471.342 127.071 471.146 127.314C470.95 127.547 470.688 127.743 470.362 127.902C470.044 128.061 469.648 128.14 469.172 128.14C468.518 128.14 467.991 127.953 467.59 127.58C467.188 127.207 466.988 126.679 466.988 125.998C466.988 125.205 467.268 124.621 467.828 124.248C468.388 123.875 469.176 123.688 470.194 123.688H471.552V123.086C471.552 122.582 471.421 122.223 471.16 122.008C470.898 121.793 470.45 121.686 469.816 121.686ZM471.552 125.2V124.668H470.32C469.582 124.668 469.046 124.775 468.71 124.99C468.383 125.205 468.22 125.517 468.22 125.928C468.22 126.255 468.318 126.521 468.514 126.726C468.719 126.931 469.027 127.034 469.438 127.034C469.82 127.034 470.147 126.959 470.418 126.81C470.688 126.651 470.908 126.465 471.076 126.25C471.244 126.026 471.365 125.816 471.44 125.62C471.514 125.424 471.552 125.284 471.552 125.2ZM474.203 124.36C474.203 123.511 474.352 122.811 474.651 122.26C474.95 121.7 475.346 121.285 475.841 121.014C476.345 120.734 476.891 120.594 477.479 120.594C478.03 120.594 478.506 120.711 478.907 120.944C479.308 121.168 479.63 121.49 479.873 121.91V117.962H481.105V128H480.027L479.929 126.572C479.705 127.048 479.388 127.431 478.977 127.72C478.576 128 478.072 128.14 477.465 128.14C476.886 128.14 476.345 128.005 475.841 127.734C475.346 127.454 474.95 127.034 474.651 126.474C474.352 125.914 474.203 125.209 474.203 124.36ZM479.887 124.36C479.887 123.455 479.672 122.783 479.243 122.344C478.814 121.905 478.282 121.686 477.647 121.686C477.012 121.686 476.49 121.915 476.079 122.372C475.668 122.82 475.463 123.483 475.463 124.36C475.463 125.247 475.668 125.914 476.079 126.362C476.49 126.81 477.012 127.034 477.647 127.034C478.282 127.034 478.814 126.815 479.243 126.376C479.672 125.937 479.887 125.265 479.887 124.36ZM486.086 117.962H489.488C490.589 117.962 491.425 118.149 491.994 118.522C492.573 118.895 492.862 119.525 492.862 120.412C492.862 121.131 492.68 121.677 492.316 122.05C491.952 122.414 491.467 122.661 490.86 122.792C491.635 122.885 492.223 123.114 492.624 123.478C493.025 123.833 493.226 124.374 493.226 125.102C493.226 125.793 493.063 126.353 492.736 126.782C492.409 127.211 491.961 127.524 491.392 127.72C490.823 127.907 490.179 128 489.46 128H486.086V117.962ZM489.39 122.246C490.025 122.246 490.538 122.106 490.93 121.826C491.331 121.537 491.532 121.089 491.532 120.482C491.532 119.969 491.355 119.623 491 119.446C490.645 119.259 490.141 119.166 489.488 119.166H487.402V122.246H489.39ZM489.46 126.81C490.169 126.81 490.743 126.689 491.182 126.446C491.621 126.203 491.84 125.765 491.84 125.13C491.84 124.495 491.635 124.057 491.224 123.814C490.823 123.562 490.183 123.436 489.306 123.436H487.402V126.81H489.46ZM497.337 121.686C496.563 121.686 495.779 121.924 494.985 122.4V121.294C495.331 121.079 495.727 120.911 496.175 120.79C496.633 120.659 497.076 120.594 497.505 120.594C498.42 120.594 499.115 120.785 499.591 121.168C500.067 121.551 500.305 122.134 500.305 122.918V126.824C500.305 126.983 500.31 127.188 500.319 127.44C500.338 127.683 500.357 127.869 500.375 128H499.255C499.227 127.869 499.199 127.687 499.171 127.454C499.153 127.211 499.143 127.001 499.143 126.824L499.129 126.614C499.017 126.838 498.863 127.071 498.667 127.314C498.471 127.547 498.21 127.743 497.883 127.902C497.566 128.061 497.169 128.14 496.693 128.14C496.04 128.14 495.513 127.953 495.111 127.58C494.71 127.207 494.509 126.679 494.509 125.998C494.509 125.205 494.789 124.621 495.349 124.248C495.909 123.875 496.698 123.688 497.715 123.688H499.073V123.086C499.073 122.582 498.943 122.223 498.681 122.008C498.42 121.793 497.972 121.686 497.337 121.686ZM499.073 125.2V124.668H497.841C497.104 124.668 496.567 124.775 496.231 124.99C495.905 125.205 495.741 125.517 495.741 125.928C495.741 126.255 495.839 126.521 496.035 126.726C496.241 126.931 496.549 127.034 496.959 127.034C497.342 127.034 497.669 126.959 497.939 126.81C498.21 126.651 498.429 126.465 498.597 126.25C498.765 126.026 498.887 125.816 498.961 125.62C499.036 125.424 499.073 125.284 499.073 125.2ZM502.242 117.962H503.474V128H502.242V117.962ZM507.947 121.686C507.172 121.686 506.388 121.924 505.595 122.4V121.294C505.94 121.079 506.337 120.911 506.785 120.79C507.242 120.659 507.685 120.594 508.115 120.594C509.029 120.594 509.725 120.785 510.201 121.168C510.677 121.551 510.915 122.134 510.915 122.918V126.824C510.915 126.983 510.919 127.188 510.929 127.44C510.947 127.683 510.966 127.869 510.985 128H509.865C509.837 127.869 509.809 127.687 509.781 127.454C509.762 127.211 509.753 127.001 509.753 126.824L509.739 126.614C509.627 126.838 509.473 127.071 509.277 127.314C509.081 127.547 508.819 127.743 508.493 127.902C508.175 128.061 507.779 128.14 507.303 128.14C506.649 128.14 506.122 127.953 505.721 127.58C505.319 127.207 505.119 126.679 505.119 125.998C505.119 125.205 505.399 124.621 505.959 124.248C506.519 123.875 507.307 123.688 508.325 123.688H509.683V123.086C509.683 122.582 509.552 122.223 509.291 122.008C509.029 121.793 508.581 121.686 507.947 121.686ZM509.683 125.2V124.668H508.451C507.713 124.668 507.177 124.775 506.841 124.99C506.514 125.205 506.351 125.517 506.351 125.928C506.351 126.255 506.449 126.521 506.645 126.726C506.85 126.931 507.158 127.034 507.569 127.034C507.951 127.034 508.278 126.959 508.549 126.81C508.819 126.651 509.039 126.465 509.207 126.25C509.375 126.026 509.496 125.816 509.571 125.62C509.645 125.424 509.683 125.284 509.683 125.2ZM516.296 121.686C515.736 121.686 515.278 121.817 514.924 122.078C514.578 122.33 514.298 122.657 514.084 123.058V128H512.852V120.734H514.014L514.056 122.036H514.084C514.28 121.625 514.588 121.285 515.008 121.014C515.428 120.734 515.96 120.594 516.604 120.594C517.322 120.594 517.892 120.785 518.312 121.168C518.741 121.551 518.956 122.129 518.956 122.904V128H517.724V123.03C517.724 122.535 517.593 122.19 517.332 121.994C517.08 121.789 516.734 121.686 516.296 121.686ZM524.04 128.14C522.911 128.14 522.02 127.809 521.366 127.146C520.713 126.474 520.386 125.545 520.386 124.36C520.386 123.175 520.718 122.251 521.38 121.588C522.043 120.925 522.948 120.594 524.096 120.594C524.535 120.594 524.946 120.645 525.328 120.748C525.711 120.841 526.019 120.981 526.252 121.168V122.274C525.618 121.882 524.904 121.686 524.11 121.686C523.27 121.686 522.65 121.91 522.248 122.358C521.847 122.797 521.646 123.464 521.646 124.36C521.646 125.256 521.838 125.928 522.22 126.376C522.612 126.815 523.219 127.034 524.04 127.034C524.834 127.034 525.571 126.843 526.252 126.46V127.566C525.646 127.949 524.908 128.14 524.04 128.14ZM530.974 128.14C529.761 128.14 528.832 127.809 528.188 127.146C527.553 126.474 527.236 125.545 527.236 124.36C527.236 123.567 527.385 122.89 527.684 122.33C527.983 121.77 528.393 121.341 528.916 121.042C529.439 120.743 530.027 120.594 530.68 120.594C531.791 120.594 532.607 120.963 533.13 121.7C533.653 122.428 533.821 123.427 533.634 124.696H528.51C528.613 126.255 529.471 127.034 531.086 127.034C531.973 127.034 532.789 126.782 533.536 126.278V127.384C533.2 127.617 532.808 127.804 532.36 127.944C531.912 128.075 531.45 128.14 530.974 128.14ZM530.652 121.686C530.12 121.686 529.663 121.849 529.28 122.176C528.897 122.503 528.655 122.997 528.552 123.66H532.458C532.486 123.035 532.341 122.549 532.024 122.204C531.707 121.859 531.249 121.686 530.652 121.686ZM538.776 121.966C538.197 122.013 537.703 122.157 537.292 122.4C536.891 122.643 536.597 122.969 536.41 123.38V128H535.178V120.734H536.256L536.382 122.316H536.41C536.643 121.831 536.961 121.439 537.362 121.14C537.773 120.841 538.244 120.659 538.776 120.594V121.966Z" fill="black"/>
<path d="M464.038 197.14C463.328 197.14 462.67 197.051 462.064 196.874C461.466 196.687 461.009 196.445 460.692 196.146V194.886C460.925 195.091 461.224 195.273 461.588 195.432C461.961 195.591 462.362 195.717 462.792 195.81C463.221 195.903 463.636 195.95 464.038 195.95C464.794 195.95 465.377 195.805 465.788 195.516C466.208 195.227 466.418 194.816 466.418 194.284C466.418 193.967 466.352 193.71 466.222 193.514C466.1 193.309 465.867 193.131 465.522 192.982C465.186 192.833 464.696 192.679 464.052 192.52C463.212 192.305 462.554 192.067 462.078 191.806C461.602 191.545 461.266 191.237 461.07 190.882C460.874 190.518 460.776 190.089 460.776 189.594C460.776 188.698 461.093 188.017 461.728 187.55C462.362 187.074 463.277 186.836 464.472 186.836C464.994 186.836 465.475 186.887 465.914 186.99C466.352 187.093 466.786 187.251 467.216 187.466V188.726C466.516 188.259 465.601 188.026 464.472 188.026C462.876 188.026 462.078 188.53 462.078 189.538C462.078 189.977 462.241 190.322 462.568 190.574C462.904 190.826 463.496 191.05 464.346 191.246C465.223 191.442 465.909 191.671 466.404 191.932C466.898 192.193 467.248 192.511 467.454 192.884C467.668 193.248 467.776 193.696 467.776 194.228C467.776 195.133 467.444 195.847 466.782 196.37C466.119 196.883 465.204 197.14 464.038 197.14ZM473.865 191.918C473.865 191.451 473.748 191.129 473.515 190.952C473.281 190.775 472.964 190.686 472.563 190.686C472.04 190.686 471.625 190.817 471.317 191.078C471.009 191.33 470.738 191.661 470.505 192.072V197H469.273V189.734H470.351L470.477 191.036H470.505C470.701 190.625 470.995 190.285 471.387 190.014C471.788 189.734 472.301 189.594 472.927 189.594C473.477 189.594 473.935 189.729 474.299 190C474.663 190.261 474.905 190.658 475.027 191.19C475.232 190.695 475.545 190.308 475.965 190.028C476.394 189.739 476.912 189.594 477.519 189.594C478.181 189.594 478.709 189.785 479.101 190.168C479.502 190.551 479.703 191.129 479.703 191.904V197H478.457V192.058C478.457 191.582 478.34 191.237 478.107 191.022C477.873 190.798 477.556 190.686 477.155 190.686C476.623 190.686 476.203 190.84 475.895 191.148C475.587 191.447 475.321 191.801 475.097 192.212V197H473.865V191.918ZM484.096 190.686C483.321 190.686 482.537 190.924 481.744 191.4V190.294C482.089 190.079 482.486 189.911 482.934 189.79C483.391 189.659 483.835 189.594 484.264 189.594C485.179 189.594 485.874 189.785 486.35 190.168C486.826 190.551 487.064 191.134 487.064 191.918V195.824C487.064 195.983 487.069 196.188 487.078 196.44C487.097 196.683 487.115 196.869 487.134 197H486.014C485.986 196.869 485.958 196.687 485.93 196.454C485.911 196.211 485.902 196.001 485.902 195.824L485.888 195.614C485.776 195.838 485.622 196.071 485.426 196.314C485.23 196.547 484.969 196.743 484.642 196.902C484.325 197.061 483.928 197.14 483.452 197.14C482.799 197.14 482.271 196.953 481.87 196.58C481.469 196.207 481.268 195.679 481.268 194.998C481.268 194.205 481.548 193.621 482.108 193.248C482.668 192.875 483.457 192.688 484.474 192.688H485.832V192.086C485.832 191.582 485.701 191.223 485.44 191.008C485.179 190.793 484.731 190.686 484.096 190.686ZM485.832 194.2V193.668H484.6C483.863 193.668 483.326 193.775 482.99 193.99C482.663 194.205 482.5 194.517 482.5 194.928C482.5 195.255 482.598 195.521 482.794 195.726C482.999 195.931 483.307 196.034 483.718 196.034C484.101 196.034 484.427 195.959 484.698 195.81C484.969 195.651 485.188 195.465 485.356 195.25C485.524 195.026 485.645 194.816 485.72 194.62C485.795 194.424 485.832 194.284 485.832 194.2ZM492.599 190.966C492.02 191.013 491.526 191.157 491.115 191.4C490.714 191.643 490.42 191.969 490.233 192.38V197H489.001V189.734H490.079L490.205 191.316H490.233C490.466 190.831 490.784 190.439 491.185 190.14C491.596 189.841 492.067 189.659 492.599 189.594V190.966ZM493.581 190.784V189.734H494.449V188.208H495.681V189.734H497.795V190.784H495.681V195.152C495.681 195.46 495.76 195.684 495.919 195.824C496.078 195.964 496.348 196.034 496.731 196.034C497.095 196.034 497.426 195.931 497.725 195.726V196.846C497.576 196.939 497.38 197.009 497.137 197.056C496.894 197.112 496.652 197.14 496.409 197.14C495.942 197.14 495.564 197.051 495.275 196.874C494.986 196.697 494.776 196.468 494.645 196.188C494.514 195.908 494.449 195.614 494.449 195.306V190.784H493.581ZM505.597 197H503.651L501.439 186.962H502.811L504.715 195.866L507.291 186.962H508.495L511.015 195.698L512.905 186.962H514.179L511.967 197H510.035L507.823 189.244L505.597 197ZM518.348 197.14C517.135 197.14 516.206 196.809 515.562 196.146C514.927 195.474 514.61 194.545 514.61 193.36C514.61 192.567 514.759 191.89 515.058 191.33C515.357 190.77 515.767 190.341 516.29 190.042C516.813 189.743 517.401 189.594 518.054 189.594C519.165 189.594 519.981 189.963 520.504 190.7C521.027 191.428 521.195 192.427 521.008 193.696H515.884C515.987 195.255 516.845 196.034 518.46 196.034C519.347 196.034 520.163 195.782 520.91 195.278V196.384C520.574 196.617 520.182 196.804 519.734 196.944C519.286 197.075 518.824 197.14 518.348 197.14ZM518.026 190.686C517.494 190.686 517.037 190.849 516.654 191.176C516.271 191.503 516.029 191.997 515.926 192.66H519.832C519.86 192.035 519.715 191.549 519.398 191.204C519.081 190.859 518.623 190.686 518.026 190.686ZM522.552 186.962H523.784L523.756 191.148C523.999 190.681 524.325 190.308 524.736 190.028C525.147 189.739 525.655 189.594 526.262 189.594C526.831 189.594 527.354 189.734 527.83 190.014C528.315 190.285 528.707 190.7 529.006 191.26C529.305 191.811 529.454 192.511 529.454 193.36C529.454 194.209 529.3 194.914 528.992 195.474C528.693 196.034 528.297 196.454 527.802 196.734C527.317 197.005 526.785 197.14 526.206 197.14C525.646 197.14 525.156 197.005 524.736 196.734C524.325 196.463 523.999 196.095 523.756 195.628L523.714 197H522.552V186.962ZM528.18 193.36C528.18 192.483 527.979 191.82 527.578 191.372C527.177 190.915 526.659 190.686 526.024 190.686C525.389 190.686 524.853 190.91 524.414 191.358C523.985 191.797 523.77 192.464 523.77 193.36C523.77 194.265 523.985 194.937 524.414 195.376C524.853 195.815 525.389 196.034 526.024 196.034C526.659 196.034 527.177 195.81 527.578 195.362C527.979 194.914 528.18 194.247 528.18 193.36ZM473.191 211.14C472.482 211.14 471.824 211.051 471.217 210.874C470.62 210.687 470.162 210.445 469.845 210.146V208.886C470.078 209.091 470.377 209.273 470.741 209.432C471.114 209.591 471.516 209.717 471.945 209.81C472.374 209.903 472.79 209.95 473.191 209.95C473.947 209.95 474.53 209.805 474.941 209.516C475.361 209.227 475.571 208.816 475.571 208.284C475.571 207.967 475.506 207.71 475.375 207.514C475.254 207.309 475.02 207.131 474.675 206.982C474.339 206.833 473.849 206.679 473.205 206.52C472.365 206.305 471.707 206.067 471.231 205.806C470.755 205.545 470.419 205.237 470.223 204.882C470.027 204.518 469.929 204.089 469.929 203.594C469.929 202.698 470.246 202.017 470.881 201.55C471.516 201.074 472.43 200.836 473.625 200.836C474.148 200.836 474.628 200.887 475.067 200.99C475.506 201.093 475.94 201.251 476.369 201.466V202.726C475.669 202.259 474.754 202.026 473.625 202.026C472.029 202.026 471.231 202.53 471.231 203.538C471.231 203.977 471.394 204.322 471.721 204.574C472.057 204.826 472.65 205.05 473.499 205.246C474.376 205.442 475.062 205.671 475.557 205.932C476.052 206.193 476.402 206.511 476.607 206.884C476.822 207.248 476.929 207.696 476.929 208.228C476.929 209.133 476.598 209.847 475.935 210.37C475.272 210.883 474.358 211.14 473.191 211.14ZM481.783 211.14C480.569 211.14 479.641 210.809 478.997 210.146C478.362 209.474 478.045 208.545 478.045 207.36C478.045 206.567 478.194 205.89 478.493 205.33C478.791 204.77 479.202 204.341 479.725 204.042C480.247 203.743 480.835 203.594 481.489 203.594C482.599 203.594 483.416 203.963 483.939 204.7C484.461 205.428 484.629 206.427 484.443 207.696H479.319C479.421 209.255 480.28 210.034 481.895 210.034C482.781 210.034 483.598 209.782 484.345 209.278V210.384C484.009 210.617 483.617 210.804 483.169 210.944C482.721 211.075 482.259 211.14 481.783 211.14ZM481.461 204.686C480.929 204.686 480.471 204.849 480.089 205.176C479.706 205.503 479.463 205.997 479.361 206.66H483.267C483.295 206.035 483.15 205.549 482.833 205.204C482.515 204.859 482.058 204.686 481.461 204.686ZM489.123 211.14C487.993 211.14 487.102 210.809 486.449 210.146C485.795 209.474 485.469 208.545 485.469 207.36C485.469 206.175 485.8 205.251 486.463 204.588C487.125 203.925 488.031 203.594 489.179 203.594C489.617 203.594 490.028 203.645 490.411 203.748C490.793 203.841 491.101 203.981 491.335 204.168V205.274C490.7 204.882 489.986 204.686 489.193 204.686C488.353 204.686 487.732 204.91 487.331 205.358C486.929 205.797 486.729 206.464 486.729 207.36C486.729 208.256 486.92 208.928 487.303 209.376C487.695 209.815 488.301 210.034 489.123 210.034C489.916 210.034 490.653 209.843 491.335 209.46V210.566C490.728 210.949 489.991 211.14 489.123 211.14ZM497.498 209.698C497.302 210.099 496.999 210.44 496.588 210.72C496.187 211 495.659 211.14 495.006 211.14C494.334 211.14 493.788 210.949 493.368 210.566C492.957 210.183 492.752 209.6 492.752 208.816V203.734H493.998V208.816C493.998 209.292 494.129 209.614 494.39 209.782C494.651 209.95 494.973 210.034 495.356 210.034C495.897 210.034 496.331 209.913 496.658 209.67C496.985 209.427 497.265 209.096 497.498 208.676V203.734H498.73V211H497.638L497.526 209.698H497.498ZM504.35 204.966C503.771 205.013 503.277 205.157 502.866 205.4C502.465 205.643 502.171 205.969 501.984 206.38V211H500.752V203.734H501.83L501.956 205.316H501.984C502.217 204.831 502.535 204.439 502.936 204.14C503.347 203.841 503.818 203.659 504.35 203.594V204.966ZM506.482 202.67C506.23 202.67 506.029 202.595 505.88 202.446C505.73 202.287 505.656 202.096 505.656 201.872C505.656 201.648 505.73 201.457 505.88 201.298C506.029 201.139 506.23 201.06 506.482 201.06C506.724 201.06 506.916 201.139 507.056 201.298C507.196 201.457 507.266 201.648 507.266 201.872C507.266 202.096 507.196 202.287 507.056 202.446C506.916 202.595 506.724 202.67 506.482 202.67ZM505.852 203.734H507.084V211H505.852V203.734ZM508.504 204.784V203.734H509.372V202.208H510.604V203.734H512.718V204.784H510.604V209.152C510.604 209.46 510.683 209.684 510.842 209.824C511.001 209.964 511.271 210.034 511.654 210.034C512.018 210.034 512.349 209.931 512.648 209.726V210.846C512.499 210.939 512.303 211.009 512.06 211.056C511.817 211.112 511.575 211.14 511.332 211.14C510.865 211.14 510.487 211.051 510.198 210.874C509.909 210.697 509.699 210.468 509.568 210.188C509.437 209.908 509.372 209.614 509.372 209.306V204.784H508.504ZM514.986 213.618C514.603 213.618 514.286 213.567 514.034 213.464V212.274C514.22 212.433 514.524 212.512 514.944 212.512C515.27 212.512 515.546 212.433 515.77 212.274C516.003 212.125 516.227 211.863 516.442 211.49L513.488 203.734H514.846L517.156 209.866L519.452 203.734H520.642L517.926 210.916C517.552 211.877 517.137 212.568 516.68 212.988C516.222 213.408 515.658 213.618 514.986 213.618Z" fill="black"/>
<rect x="479" y="61" width="32" height="32" rx="16" fill="#5282FF"/>
<path fill-rule="evenodd" clip-rule="evenodd" d="M502.246 84.9985V81.0544L500.878 82.1452L498.222 78.7548C498.591 78.2565 498.809 77.64 498.809 76.9726C498.809 76.8455 498.801 76.7202 498.786 76.5972L500.381 75.9782L501.013 77.6231L502.999 74.2297L499.252 73.0368L499.88 74.6713L498.291 75.2875C497.751 74.494 496.841 73.9728 495.809 73.9728C495.767 73.9728 495.726 73.9737 495.685 73.9753L494.937 71.7075L496.62 71.1606L493.335 68.9995L491.948 72.6786L493.605 72.1401L494.337 74.3581C493.627 74.7589 493.096 75.4409 492.896 76.253L492.896 76.2518L490.871 76.2515C490.587 75.4932 489.856 74.9534 488.998 74.9534C487.895 74.9534 487 75.8481 487 76.9517C487 78.0553 487.895 78.95 488.998 78.95C489.856 78.95 490.587 78.4099 490.871 77.6514L492.886 77.6518C493.04 78.3179 493.416 78.8986 493.932 79.3128L493.931 79.3121L493.029 81.0799L491.473 80.2847L492.263 84.1366L495.848 82.5208L494.275 81.7171L495.198 79.9101L495.196 79.9099C495.394 79.9509 495.599 79.9724 495.809 79.9724C496.291 79.9724 496.747 79.8587 497.15 79.6566L499.784 83.0182L498.405 84.1179L502.246 84.9985ZM495.809 75.3727C496.693 75.3727 497.409 76.089 497.409 76.9726C497.409 77.8562 496.693 78.5725 495.809 78.5725C494.925 78.5725 494.209 77.8562 494.209 76.9726C494.209 76.089 494.925 75.3727 495.809 75.3727Z" fill="white"/>
<path d="M511 160C511 151.163 503.837 144 495 144C486.163 144 479 151.163 479 160C479 168.837 486.163 176 495 176C503.837 176 511 168.837 511 160Z" fill="#5282FF"/>
<path fill-rule="evenodd" clip-rule="evenodd" d="M487.978 155.297L493.388 152.404C493.883 152.139 494.437 152 495 152C495.563 152 496.117 152.139 496.612 152.404L502.023 155.297C502.624 155.619 503 156.245 503 156.925V158.112C503 162.041 500.996 165.702 497.68 167.83L496.578 168.538C496.107 168.839 495.56 169 495 169C494.44 169 493.893 168.839 493.422 168.538L492.32 167.83C489.004 165.702 487 162.041 487 158.112V156.925C487 156.245 487.376 155.619 487.978 155.297ZM490.498 160.766H492.343C492.387 161.9 492.569 162.951 492.863 163.781C492.929 163.968 493.004 164.153 493.09 164.331C491.694 163.684 490.684 162.35 490.498 160.766ZM496.589 160.766H493.411C493.504 163.009 494.18 164.75 495 164.75C495.82 164.75 496.496 163.009 496.589 160.766ZM493.411 159.703H496.589C496.496 157.46 495.82 155.719 495 155.719C494.18 155.719 493.504 157.46 493.411 159.703ZM497.137 163.781C497.431 162.951 497.613 161.9 497.657 160.766H499.502C499.316 162.35 498.306 163.684 496.91 164.331C496.996 164.153 497.071 163.968 497.137 163.781ZM499.533 160.234V160.252V160.217V160.234ZM497.657 159.703H499.502C499.316 158.119 498.306 156.785 496.91 156.138C496.996 156.316 497.071 156.5 497.137 156.688C497.431 157.517 497.613 158.569 497.657 159.703ZM490.498 159.703H492.343C492.387 158.569 492.569 157.517 492.863 156.688C492.929 156.5 493.004 156.316 493.09 156.138C491.694 156.785 490.684 158.119 490.498 159.703Z" fill="white"/>
<rect x="625" y="85" width="140" height="110" rx="10" fill="white"/>
<rect x="625" y="85" width="140" height="110" rx="10" stroke="#5282FF" stroke-width="2"/>
<path d="M661.306 101.962H667.158V103.166H662.622V112H661.306V101.962ZM667.919 104.734H668.997L669.123 106.148C669.356 105.681 669.678 105.308 670.089 105.028C670.509 104.739 671.022 104.594 671.629 104.594C672.198 104.594 672.721 104.734 673.197 105.014C673.682 105.285 674.074 105.7 674.373 106.26C674.672 106.811 674.821 107.511 674.821 108.36C674.821 109.209 674.667 109.914 674.359 110.474C674.06 111.034 673.664 111.454 673.169 111.734C672.684 112.005 672.152 112.14 671.573 112.14C671.022 112.14 670.542 112.009 670.131 111.748C669.72 111.487 669.394 111.127 669.151 110.67V114.478H667.919V104.734ZM673.547 108.36C673.547 107.483 673.346 106.82 672.945 106.372C672.544 105.915 672.026 105.686 671.391 105.686C670.756 105.686 670.22 105.91 669.781 106.358C669.352 106.797 669.137 107.464 669.137 108.36C669.137 109.265 669.352 109.937 669.781 110.376C670.22 110.815 670.756 111.034 671.391 111.034C672.026 111.034 672.544 110.81 672.945 110.362C673.346 109.914 673.547 109.247 673.547 108.36ZM676.875 114.618C676.493 114.618 676.175 114.567 675.923 114.464V113.274C676.11 113.433 676.413 113.512 676.833 113.512C677.16 113.512 677.435 113.433 677.659 113.274C677.893 113.125 678.117 112.863 678.331 112.49L675.377 104.734H676.735L679.045 110.866L681.341 104.734H682.531L679.815 111.916C679.442 112.877 679.027 113.568 678.569 113.988C678.112 114.408 677.547 114.618 676.875 114.618ZM683.751 112V104.734H689.575V112H688.343V105.784H684.983V112H683.751ZM691.585 112V104.734H697.409V112H696.177V105.784H692.817V112H691.585ZM701.883 105.686C701.108 105.686 700.324 105.924 699.531 106.4V105.294C699.876 105.079 700.273 104.911 700.721 104.79C701.178 104.659 701.622 104.594 702.051 104.594C702.966 104.594 703.661 104.785 704.137 105.168C704.613 105.551 704.851 106.134 704.851 106.918V110.824C704.851 110.983 704.856 111.188 704.865 111.44C704.884 111.683 704.902 111.869 704.921 112H703.801C703.773 111.869 703.745 111.687 703.717 111.454C703.698 111.211 703.689 111.001 703.689 110.824L703.675 110.614C703.563 110.838 703.409 111.071 703.213 111.314C703.017 111.547 702.756 111.743 702.429 111.902C702.112 112.061 701.715 112.14 701.239 112.14C700.586 112.14 700.058 111.953 699.657 111.58C699.256 111.207 699.055 110.679 699.055 109.998C699.055 109.205 699.335 108.621 699.895 108.248C700.455 107.875 701.244 107.688 702.261 107.688H703.619V107.086C703.619 106.582 703.488 106.223 703.227 106.008C702.966 105.793 702.518 105.686 701.883 105.686ZM703.619 109.2V108.668H702.387C701.65 108.668 701.113 108.775 700.777 108.99C700.45 109.205 700.287 109.517 700.287 109.928C700.287 110.255 700.385 110.521 700.581 110.726C700.786 110.931 701.094 111.034 701.505 111.034C701.888 111.034 702.214 110.959 702.485 110.81C702.756 110.651 702.975 110.465 703.143 110.25C703.311 110.026 703.432 109.816 703.507 109.62C703.582 109.424 703.619 109.284 703.619 109.2ZM709.759 101.962H713.161C714.262 101.962 715.098 102.149 715.667 102.522C716.246 102.895 716.535 103.525 716.535 104.412C716.535 105.131 716.353 105.677 715.989 106.05C715.625 106.414 715.14 106.661 714.533 106.792C715.308 106.885 715.896 107.114 716.297 107.478C716.698 107.833 716.899 108.374 716.899 109.102C716.899 109.793 716.736 110.353 716.409 110.782C716.082 111.211 715.634 111.524 715.065 111.72C714.496 111.907 713.852 112 713.133 112H709.759V101.962ZM713.063 106.246C713.698 106.246 714.211 106.106 714.603 105.826C715.004 105.537 715.205 105.089 715.205 104.482C715.205 103.969 715.028 103.623 714.673 103.446C714.318 103.259 713.814 103.166 713.161 103.166H711.075V106.246H713.063ZM713.133 110.81C713.842 110.81 714.416 110.689 714.855 110.446C715.294 110.203 715.513 109.765 715.513 109.13C715.513 108.495 715.308 108.057 714.897 107.814C714.496 107.562 713.856 107.436 712.979 107.436H711.075V110.81H713.133ZM723.64 110.474H723.066H723.052L723.066 110.46L720.028 103.81V112H718.782V101.962H720.616L723.738 109.004L727 101.962H728.708V112H727.378V103.922L724.298 110.46L723.64 110.474ZM646.755 130.946H645.537C644.818 130.115 644.277 129.163 643.913 128.09C643.558 127.017 643.381 125.887 643.381 124.702C643.381 123.909 643.46 123.129 643.619 122.364C643.777 121.589 644.015 120.866 644.333 120.194C644.659 119.513 645.061 118.92 645.537 118.416H646.755C646.251 118.901 645.835 119.48 645.509 120.152C645.191 120.824 644.953 121.547 644.795 122.322C644.645 123.087 644.571 123.867 644.571 124.66C644.571 125.845 644.743 126.979 645.089 128.062C645.443 129.145 645.999 130.106 646.755 130.946ZM648.386 118.962H649.702V129H648.386V118.962ZM655.312 122.686C654.752 122.686 654.295 122.817 653.94 123.078C653.595 123.33 653.315 123.657 653.1 124.058V129H651.868V121.734H653.03L653.072 123.036H653.1C653.296 122.625 653.604 122.285 654.024 122.014C654.444 121.734 654.976 121.594 655.62 121.594C656.339 121.594 656.908 121.785 657.328 122.168C657.758 122.551 657.972 123.129 657.972 123.904V129H656.74V124.03C656.74 123.535 656.61 123.19 656.348 122.994C656.096 122.789 655.751 122.686 655.312 122.686ZM662.245 129.14C661.713 129.14 661.204 129.065 660.719 128.916C660.243 128.757 659.856 128.547 659.557 128.286V127.18C659.846 127.46 660.234 127.684 660.719 127.852C661.214 128.02 661.718 128.104 662.231 128.104C663.37 128.104 663.939 127.735 663.939 126.998C663.939 126.783 663.888 126.611 663.785 126.48C663.692 126.34 663.514 126.223 663.253 126.13C662.992 126.027 662.614 125.929 662.119 125.836C661.176 125.649 660.518 125.397 660.145 125.08C659.772 124.753 659.585 124.291 659.585 123.694C659.585 123.031 659.842 122.518 660.355 122.154C660.868 121.781 661.578 121.594 662.483 121.594C662.912 121.594 663.332 121.641 663.743 121.734C664.163 121.818 664.504 121.935 664.765 122.084V123.19C664.224 122.817 663.477 122.63 662.525 122.63C661.937 122.63 661.503 122.714 661.223 122.882C660.952 123.05 660.817 123.311 660.817 123.666C660.817 123.853 660.859 124.007 660.943 124.128C661.027 124.249 661.195 124.357 661.447 124.45C661.699 124.543 662.077 124.641 662.581 124.744C663.225 124.875 663.734 125.033 664.107 125.22C664.49 125.397 664.76 125.626 664.919 125.906C665.087 126.186 665.171 126.541 665.171 126.97C665.171 127.651 664.914 128.183 664.401 128.566C663.888 128.949 663.169 129.14 662.245 129.14ZM666.101 122.784V121.734H666.969V120.208H668.201V121.734H670.315V122.784H668.201V127.152C668.201 127.46 668.28 127.684 668.439 127.824C668.597 127.964 668.868 128.034 669.251 128.034C669.615 128.034 669.946 127.931 670.245 127.726V128.846C670.095 128.939 669.899 129.009 669.657 129.056C669.414 129.112 669.171 129.14 668.929 129.14C668.462 129.14 668.084 129.051 667.795 128.874C667.505 128.697 667.295 128.468 667.165 128.188C667.034 127.908 666.969 127.614 666.969 127.306V122.784H666.101ZM674.348 122.686C673.573 122.686 672.789 122.924 671.996 123.4V122.294C672.341 122.079 672.738 121.911 673.186 121.79C673.643 121.659 674.087 121.594 674.516 121.594C675.431 121.594 676.126 121.785 676.602 122.168C677.078 122.551 677.316 123.134 677.316 123.918V127.824C677.316 127.983 677.321 128.188 677.33 128.44C677.349 128.683 677.367 128.869 677.386 129H676.266C676.238 128.869 676.21 128.687 676.182 128.454C676.163 128.211 676.154 128.001 676.154 127.824L676.14 127.614C676.028 127.838 675.874 128.071 675.678 128.314C675.482 128.547 675.221 128.743 674.894 128.902C674.577 129.061 674.18 129.14 673.704 129.14C673.051 129.14 672.523 128.953 672.122 128.58C671.721 128.207 671.52 127.679 671.52 126.998C671.52 126.205 671.8 125.621 672.36 125.248C672.92 124.875 673.709 124.688 674.726 124.688H676.084V124.086C676.084 123.582 675.953 123.223 675.692 123.008C675.431 122.793 674.983 122.686 674.348 122.686ZM676.084 126.2V125.668H674.852C674.115 125.668 673.578 125.775 673.242 125.99C672.915 126.205 672.752 126.517 672.752 126.928C672.752 127.255 672.85 127.521 673.046 127.726C673.251 127.931 673.559 128.034 673.97 128.034C674.353 128.034 674.679 127.959 674.95 127.81C675.221 127.651 675.44 127.465 675.608 127.25C675.776 127.026 675.897 126.816 675.972 126.62C676.047 126.424 676.084 126.284 676.084 126.2ZM682.697 122.686C682.137 122.686 681.68 122.817 681.325 123.078C680.98 123.33 680.7 123.657 680.485 124.058V129H679.253V121.734H680.415L680.457 123.036H680.485C680.681 122.625 680.989 122.285 681.409 122.014C681.829 121.734 682.361 121.594 683.005 121.594C683.724 121.594 684.293 121.785 684.713 122.168C685.142 122.551 685.357 123.129 685.357 123.904V129H684.125V124.03C684.125 123.535 683.994 123.19 683.733 122.994C683.481 122.789 683.136 122.686 682.697 122.686ZM690.442 129.14C689.313 129.14 688.421 128.809 687.768 128.146C687.115 127.474 686.788 126.545 686.788 125.36C686.788 124.175 687.119 123.251 687.782 122.588C688.445 121.925 689.35 121.594 690.498 121.594C690.937 121.594 691.347 121.645 691.73 121.748C692.113 121.841 692.421 121.981 692.654 122.168V123.274C692.019 122.882 691.305 122.686 690.512 122.686C689.672 122.686 689.051 122.91 688.65 123.358C688.249 123.797 688.048 124.464 688.048 125.36C688.048 126.256 688.239 126.928 688.622 127.376C689.014 127.815 689.621 128.034 690.442 128.034C691.235 128.034 691.973 127.843 692.654 127.46V128.566C692.047 128.949 691.31 129.14 690.442 129.14ZM697.375 129.14C696.162 129.14 695.233 128.809 694.589 128.146C693.955 127.474 693.637 126.545 693.637 125.36C693.637 124.567 693.787 123.89 694.085 123.33C694.384 122.77 694.795 122.341 695.317 122.042C695.84 121.743 696.428 121.594 697.081 121.594C698.192 121.594 699.009 121.963 699.531 122.7C700.054 123.428 700.222 124.427 700.035 125.696H694.911C695.014 127.255 695.873 128.034 697.487 128.034C698.374 128.034 699.191 127.782 699.937 127.278V128.384C699.601 128.617 699.209 128.804 698.761 128.944C698.313 129.075 697.851 129.14 697.375 129.14ZM697.053 122.686C696.521 122.686 696.064 122.849 695.681 123.176C695.299 123.503 695.056 123.997 694.953 124.66H698.859C698.887 124.035 698.743 123.549 698.425 123.204C698.108 122.859 697.651 122.686 697.053 122.686ZM708.75 127.95C709.45 127.95 710.015 127.833 710.444 127.6C710.873 127.367 711.186 127.049 711.382 126.648C711.578 126.237 711.676 125.771 711.676 125.248V124.968H708.442V123.778H713.034V125.066C713.034 125.841 712.88 126.536 712.572 127.152C712.264 127.768 711.793 128.253 711.158 128.608C710.523 128.963 709.721 129.14 708.75 129.14C707.807 129.14 706.972 128.925 706.244 128.496C705.525 128.067 704.965 127.469 704.564 126.704C704.163 125.929 703.962 125.024 703.962 123.988C703.962 122.952 704.158 122.051 704.55 121.286C704.942 120.511 705.521 119.909 706.286 119.48C707.061 119.051 708.008 118.836 709.128 118.836C710.425 118.836 711.503 119.125 712.362 119.704V120.964C711.811 120.637 711.275 120.399 710.752 120.25C710.239 120.101 709.683 120.026 709.086 120.026C707.817 120.026 706.883 120.376 706.286 121.076C705.689 121.767 705.39 122.737 705.39 123.988C705.39 125.229 705.689 126.2 706.286 126.9C706.883 127.6 707.705 127.95 708.75 127.95ZM718.33 122.966C717.751 123.013 717.256 123.157 716.846 123.4C716.444 123.643 716.15 123.969 715.964 124.38V129H714.732V121.734H715.81L715.936 123.316H715.964C716.197 122.831 716.514 122.439 716.916 122.14C717.326 121.841 717.798 121.659 718.33 121.594V122.966ZM722.458 129.14C721.795 129.14 721.198 128.995 720.666 128.706C720.143 128.407 719.728 127.978 719.42 127.418C719.112 126.849 718.958 126.163 718.958 125.36C718.958 124.557 719.112 123.876 719.42 123.316C719.728 122.756 720.143 122.331 720.666 122.042C721.198 121.743 721.795 121.594 722.458 121.594C723.13 121.594 723.732 121.743 724.264 122.042C724.796 122.331 725.216 122.756 725.524 123.316C725.832 123.876 725.986 124.557 725.986 125.36C725.986 126.163 725.832 126.849 725.524 127.418C725.216 127.978 724.796 128.407 724.264 128.706C723.732 128.995 723.13 129.14 722.458 129.14ZM722.458 128.034C723.111 128.034 723.652 127.819 724.082 127.39C724.511 126.951 724.726 126.275 724.726 125.36C724.726 124.445 724.511 123.773 724.082 123.344C723.652 122.905 723.111 122.686 722.458 122.686C721.814 122.686 721.277 122.905 720.848 123.344C720.428 123.773 720.218 124.445 720.218 125.36C720.218 126.275 720.428 126.951 720.848 127.39C721.277 127.819 721.814 128.034 722.458 128.034ZM732.149 127.698C731.953 128.099 731.65 128.44 731.239 128.72C730.838 129 730.311 129.14 729.657 129.14C728.985 129.14 728.439 128.949 728.019 128.566C727.609 128.183 727.403 127.6 727.403 126.816V121.734H728.649V126.816C728.649 127.292 728.78 127.614 729.041 127.782C729.303 127.95 729.625 128.034 730.007 128.034C730.549 128.034 730.983 127.913 731.309 127.67C731.636 127.427 731.916 127.096 732.149 126.676V121.734H733.381V129H732.289L732.177 127.698H732.149ZM735.404 121.734H736.482L736.608 123.148C736.841 122.681 737.163 122.308 737.574 122.028C737.994 121.739 738.507 121.594 739.114 121.594C739.683 121.594 740.206 121.734 740.682 122.014C741.167 122.285 741.559 122.7 741.858 123.26C742.156 123.811 742.306 124.511 742.306 125.36C742.306 126.209 742.152 126.914 741.844 127.474C741.545 128.034 741.148 128.454 740.654 128.734C740.168 129.005 739.636 129.14 739.058 129.14C738.507 129.14 738.026 129.009 737.616 128.748C737.205 128.487 736.878 128.127 736.636 127.67V131.478H735.404V121.734ZM741.032 125.36C741.032 124.483 740.831 123.82 740.43 123.372C740.028 122.915 739.51 122.686 738.876 122.686C738.241 122.686 737.704 122.91 737.266 123.358C736.836 123.797 736.622 124.464 736.622 125.36C736.622 126.265 736.836 126.937 737.266 127.376C737.704 127.815 738.241 128.034 738.876 128.034C739.51 128.034 740.028 127.81 740.43 127.362C740.831 126.914 741.032 126.247 741.032 125.36ZM743.252 130.946C744.008 130.106 744.559 129.145 744.904 128.062C745.259 126.979 745.436 125.845 745.436 124.66C745.436 123.867 745.357 123.087 745.198 122.322C745.049 121.547 744.811 120.824 744.484 120.152C744.167 119.48 743.756 118.901 743.252 118.416H744.47C744.955 118.92 745.357 119.513 745.674 120.194C745.991 120.866 746.229 121.589 746.388 122.364C746.547 123.129 746.626 123.909 746.626 124.702C746.626 125.887 746.444 127.017 746.08 128.09C745.725 129.163 745.189 130.115 744.47 130.946H743.252Z" fill="black"/>
<rect x="642" y="145" width="32" height="32" rx="16" fill="#5282FF"/>
<path d="M666 160V158H664V156C664 155.4 663.6 155 663 155H661V153H659V155H657V153H655V155H653C652.4 155 652 155.4 652 156V158H650V160H652V162H650V164H652V166C652 166.6 652.4 167 653 167H655V169H657V167H659V169H661V167H663C663.6 167 664 166.6 664 166V164H666V162H664V160H666ZM661 164H655V158H661V164Z" fill="white"/>
<rect x="679" y="145" width="32" height="32" rx="16" fill="#5282FF"/>
<path d="M703 160V158H701V156C701 155.4 700.6 155 700 155H698V153H696V155H694V153H692V155H690C689.4 155 689 155.4 689 156V158H687V160H689V162H687V164H689V166C689 166.6 689.4 167 690 167H692V169H694V167H696V169H698V167H700C700.6 167 701 166.6 701 166V164H703V162H701V160H703ZM698 164H692V158H698V164Z" fill="white"/>
<rect x="716" y="145" width="32" height="32" rx="16" fill="#5282FF"/>
<path d="M740 160V158H738V156C738 155.4 737.6 155 737 155H735V153H733V155H731V153H729V155H727C726.4 155 726 155.4 726 156V158H724V160H726V162H724V164H726V166C726 166.6 726.4 167 727 167H729V169H731V167H733V169H735V167H737C737.6 167 738 166.6 738 166V164H740V162H738V160H740ZM735 164H729V158H735V164Z" fill="white"/>
</svg>
