<svg width="700" height="580" viewBox="0 0 700 580" fill="none" xmlns="http://www.w3.org/2000/svg">
<rect x="282" y="11" width="398" height="558" rx="9" fill="white" stroke="#5282FF" stroke-width="2"/>
<path d="M442.798 40.14C442.089 40.14 441.431 40.0513 440.824 39.874C440.227 39.6873 439.77 39.4447 439.452 39.146V37.886C439.686 38.0913 439.984 38.2733 440.348 38.432C440.722 38.5907 441.123 38.7167 441.552 38.81C441.982 38.9033 442.397 38.95 442.798 38.95C443.554 38.95 444.138 38.8053 444.548 38.516C444.968 38.2267 445.178 37.816 445.178 37.284C445.178 36.9667 445.113 36.71 444.982 36.514C444.861 36.3087 444.628 36.1313 444.282 35.982C443.946 35.8327 443.456 35.6787 442.812 35.52C441.972 35.3053 441.314 35.0673 440.838 34.806C440.362 34.5447 440.026 34.2367 439.83 33.882C439.634 33.518 439.536 33.0887 439.536 32.594C439.536 31.698 439.854 31.0167 440.488 30.55C441.123 30.074 442.038 29.836 443.232 29.836C443.755 29.836 444.236 29.8873 444.674 29.99C445.113 30.0927 445.547 30.2513 445.976 30.466V31.726C445.276 31.2593 444.362 31.026 443.232 31.026C441.636 31.026 440.838 31.53 440.838 32.538C440.838 32.9767 441.002 33.322 441.328 33.574C441.664 33.826 442.257 34.05 443.106 34.246C443.984 34.442 444.67 34.6707 445.164 34.932C445.659 35.1933 446.009 35.5107 446.214 35.884C446.429 36.248 446.536 36.696 446.536 37.228C446.536 38.1333 446.205 38.8473 445.542 39.37C444.88 39.8833 443.965 40.14 442.798 40.14ZM448.033 32.734H449.111L449.237 34.148C449.471 33.6813 449.793 33.308 450.203 33.028C450.623 32.7387 451.137 32.594 451.743 32.594C452.313 32.594 452.835 32.734 453.311 33.014C453.797 33.2847 454.189 33.7 454.487 34.26C454.786 34.8107 454.935 35.5107 454.935 36.36C454.935 37.2093 454.781 37.914 454.473 38.474C454.175 39.034 453.778 39.454 453.283 39.734C452.798 40.0047 452.266 40.14 451.687 40.14C451.137 40.14 450.656 40.0093 450.245 39.748C449.835 39.4867 449.508 39.1273 449.265 38.67V42.478H448.033V32.734ZM453.661 36.36C453.661 35.4827 453.461 34.82 453.059 34.372C452.658 33.9147 452.14 33.686 451.505 33.686C450.871 33.686 450.334 33.91 449.895 34.358C449.466 34.7967 449.251 35.464 449.251 36.36C449.251 37.2653 449.466 37.9373 449.895 38.376C450.334 38.8147 450.871 39.034 451.505 39.034C452.14 39.034 452.658 38.81 453.059 38.362C453.461 37.914 453.661 37.2467 453.661 36.36ZM459.648 40.14C458.435 40.14 457.506 39.8087 456.862 39.146C456.227 38.474 455.91 37.5453 455.91 36.36C455.91 35.5667 456.059 34.89 456.358 34.33C456.657 33.77 457.067 33.3407 457.59 33.042C458.113 32.7433 458.701 32.594 459.354 32.594C460.465 32.594 461.281 32.9627 461.804 33.7C462.327 34.428 462.495 35.4267 462.308 36.696H457.184C457.287 38.2547 458.145 39.034 459.76 39.034C460.647 39.034 461.463 38.782 462.21 38.278V39.384C461.874 39.6173 461.482 39.804 461.034 39.944C460.586 40.0747 460.124 40.14 459.648 40.14ZM459.326 33.686C458.794 33.686 458.337 33.8493 457.954 34.176C457.571 34.5027 457.329 34.9973 457.226 35.66H461.132C461.16 35.0347 461.015 34.5493 460.698 34.204C460.381 33.8587 459.923 33.686 459.326 33.686ZM467.072 40.14C465.858 40.14 464.93 39.8087 464.286 39.146C463.651 38.474 463.334 37.5453 463.334 36.36C463.334 35.5667 463.483 34.89 463.782 34.33C464.08 33.77 464.491 33.3407 465.014 33.042C465.536 32.7433 466.124 32.594 466.778 32.594C467.888 32.594 468.705 32.9627 469.228 33.7C469.75 34.428 469.918 35.4267 469.732 36.696H464.608C464.71 38.2547 465.569 39.034 467.184 39.034C468.07 39.034 468.887 38.782 469.634 38.278V39.384C469.298 39.6173 468.906 39.804 468.458 39.944C468.01 40.0747 467.548 40.14 467.072 40.14ZM466.75 33.686C466.218 33.686 465.76 33.8493 465.378 34.176C464.995 34.5027 464.752 34.9973 464.65 35.66H468.556C468.584 35.0347 468.439 34.5493 468.122 34.204C467.804 33.8587 467.347 33.686 466.75 33.686ZM474.412 40.14C473.282 40.14 472.391 39.8087 471.738 39.146C471.084 38.474 470.758 37.5453 470.758 36.36C470.758 35.1747 471.089 34.2507 471.752 33.588C472.414 32.9253 473.32 32.594 474.468 32.594C474.906 32.594 475.317 32.6453 475.7 32.748C476.082 32.8413 476.39 32.9813 476.624 33.168V34.274C475.989 33.882 475.275 33.686 474.482 33.686C473.642 33.686 473.021 33.91 472.62 34.358C472.218 34.7967 472.018 35.464 472.018 36.36C472.018 37.256 472.209 37.928 472.592 38.376C472.984 38.8147 473.59 39.034 474.412 39.034C475.205 39.034 475.942 38.8427 476.624 38.46V39.566C476.017 39.9487 475.28 40.14 474.412 40.14ZM481.569 33.686C481.009 33.686 480.552 33.8167 480.197 34.078C479.852 34.33 479.572 34.6567 479.357 35.058V40H478.125V29.962H479.357V32.734L479.329 34.036H479.357C479.553 33.6253 479.861 33.2847 480.281 33.014C480.701 32.734 481.233 32.594 481.877 32.594C482.596 32.594 483.165 32.7853 483.585 33.168C484.015 33.5507 484.229 34.1293 484.229 34.904V40H482.997V35.03C482.997 34.5353 482.867 34.19 482.605 33.994C482.353 33.7887 482.008 33.686 481.569 33.686ZM489.146 40.14C488.437 40.14 487.779 40.0513 487.172 39.874C486.575 39.6873 486.117 39.4447 485.8 39.146V37.886C486.033 38.0913 486.332 38.2733 486.696 38.432C487.069 38.5907 487.471 38.7167 487.9 38.81C488.329 38.9033 488.745 38.95 489.146 38.95C489.902 38.95 490.485 38.8053 490.896 38.516C491.316 38.2267 491.526 37.816 491.526 37.284C491.526 36.9667 491.461 36.71 491.33 36.514C491.209 36.3087 490.975 36.1313 490.63 35.982C490.294 35.8327 489.804 35.6787 489.16 35.52C488.32 35.3053 487.662 35.0673 487.186 34.806C486.71 34.5447 486.374 34.2367 486.178 33.882C485.982 33.518 485.884 33.0887 485.884 32.594C485.884 31.698 486.201 31.0167 486.836 30.55C487.471 30.074 488.385 29.836 489.58 29.836C490.103 29.836 490.583 29.8873 491.022 29.99C491.461 30.0927 491.895 30.2513 492.324 30.466V31.726C491.624 31.2593 490.709 31.026 489.58 31.026C487.984 31.026 487.186 31.53 487.186 32.538C487.186 32.9767 487.349 33.322 487.676 33.574C488.012 33.826 488.605 34.05 489.454 34.246C490.331 34.442 491.017 34.6707 491.512 34.932C492.007 35.1933 492.357 35.5107 492.562 35.884C492.777 36.248 492.884 36.696 492.884 37.228C492.884 38.1333 492.553 38.8473 491.89 39.37C491.227 39.8833 490.313 40.14 489.146 40.14ZM497.738 40.14C496.524 40.14 495.596 39.8087 494.952 39.146C494.317 38.474 494 37.5453 494 36.36C494 35.5667 494.149 34.89 494.448 34.33C494.746 33.77 495.157 33.3407 495.68 33.042C496.202 32.7433 496.79 32.594 497.444 32.594C498.554 32.594 499.371 32.9627 499.894 33.7C500.416 34.428 500.584 35.4267 500.398 36.696H495.274C495.376 38.2547 496.235 39.034 497.85 39.034C498.736 39.034 499.553 38.782 500.3 38.278V39.384C499.964 39.6173 499.572 39.804 499.124 39.944C498.676 40.0747 498.214 40.14 497.738 40.14ZM497.416 33.686C496.884 33.686 496.426 33.8493 496.044 34.176C495.661 34.5027 495.418 34.9973 495.316 35.66H499.222C499.25 35.0347 499.105 34.5493 498.788 34.204C498.47 33.8587 498.013 33.686 497.416 33.686ZM505.386 33.686C504.826 33.686 504.368 33.8167 504.014 34.078C503.668 34.33 503.388 34.6567 503.174 35.058V40H501.942V32.734H503.104L503.146 34.036H503.174C503.37 33.6253 503.678 33.2847 504.098 33.014C504.518 32.734 505.05 32.594 505.694 32.594C506.412 32.594 506.982 32.7853 507.402 33.168C507.831 33.5507 508.046 34.1293 508.046 34.904V40H506.814V35.03C506.814 34.5353 506.683 34.19 506.422 33.994C506.17 33.7887 505.824 33.686 505.386 33.686ZM512.318 40.14C511.786 40.14 511.278 40.0653 510.792 39.916C510.316 39.7573 509.929 39.5473 509.63 39.286V38.18C509.92 38.46 510.307 38.684 510.792 38.852C511.287 39.02 511.791 39.104 512.304 39.104C513.443 39.104 514.012 38.7353 514.012 37.998C514.012 37.7833 513.961 37.6107 513.858 37.48C513.765 37.34 513.588 37.2233 513.326 37.13C513.065 37.0273 512.687 36.9293 512.192 36.836C511.25 36.6493 510.592 36.3973 510.218 36.08C509.845 35.7533 509.658 35.2913 509.658 34.694C509.658 34.0313 509.915 33.518 510.428 33.154C510.942 32.7807 511.651 32.594 512.556 32.594C512.986 32.594 513.406 32.6407 513.816 32.734C514.236 32.818 514.577 32.9347 514.838 33.084V34.19C514.297 33.8167 513.55 33.63 512.598 33.63C512.01 33.63 511.576 33.714 511.296 33.882C511.026 34.05 510.89 34.3113 510.89 34.666C510.89 34.8527 510.932 35.0067 511.016 35.128C511.1 35.2493 511.268 35.3567 511.52 35.45C511.772 35.5433 512.15 35.6413 512.654 35.744C513.298 35.8747 513.807 36.0333 514.18 36.22C514.563 36.3973 514.834 36.626 514.992 36.906C515.16 37.186 515.244 37.5407 515.244 37.97C515.244 38.6513 514.988 39.1833 514.474 39.566C513.961 39.9487 513.242 40.14 512.318 40.14ZM519.982 40.14C518.769 40.14 517.84 39.8087 517.196 39.146C516.561 38.474 516.244 37.5453 516.244 36.36C516.244 35.5667 516.393 34.89 516.692 34.33C516.991 33.77 517.401 33.3407 517.924 33.042C518.447 32.7433 519.035 32.594 519.688 32.594C520.799 32.594 521.615 32.9627 522.138 33.7C522.661 34.428 522.829 35.4267 522.642 36.696H517.518C517.621 38.2547 518.479 39.034 520.094 39.034C520.981 39.034 521.797 38.782 522.544 38.278V39.384C522.208 39.6173 521.816 39.804 521.368 39.944C520.92 40.0747 520.458 40.14 519.982 40.14ZM519.66 33.686C519.128 33.686 518.671 33.8493 518.288 34.176C517.905 34.5027 517.663 34.9973 517.56 35.66H521.466C521.494 35.0347 521.349 34.5493 521.032 34.204C520.715 33.8587 520.257 33.686 519.66 33.686Z" fill="black"/>
<rect x="20" y="11" width="198" height="558" rx="9" fill="white" stroke="#5282FF" stroke-width="2"/>
<path d="M83.9554 39.14C83.0594 39.14 82.2474 38.9393 81.5194 38.538C80.7914 38.1367 80.2128 37.5533 79.7834 36.788C79.3634 36.0133 79.1534 35.066 79.1534 33.946C79.1534 32.826 79.3634 31.888 79.7834 31.132C80.2128 30.3667 80.7914 29.7927 81.5194 29.41C82.2474 29.0273 83.0594 28.836 83.9554 28.836C84.8701 28.836 85.6868 29.032 86.4054 29.424C87.1334 29.8067 87.7074 30.376 88.1274 31.132C88.5474 31.888 88.7574 32.8307 88.7574 33.96C88.7574 35.0707 88.5474 36.0133 88.1274 36.788C87.7074 37.5533 87.1334 38.1367 86.4054 38.538C85.6868 38.9393 84.8701 39.14 83.9554 39.14ZM83.9554 37.95C84.5994 37.95 85.1781 37.8193 85.6914 37.558C86.2048 37.2967 86.6061 36.8767 86.8954 36.298C87.1941 35.71 87.3434 34.94 87.3434 33.988C87.3434 33.0267 87.1941 32.2567 86.8954 31.678C86.6061 31.0993 86.2048 30.6793 85.6914 30.418C85.1781 30.1567 84.5994 30.026 83.9554 30.026C83.3114 30.026 82.7328 30.1567 82.2194 30.418C81.7154 30.6793 81.3141 31.0993 81.0154 31.678C80.7168 32.2567 80.5674 33.0267 80.5674 33.988C80.5674 34.94 80.7168 35.71 81.0154 36.298C81.3141 36.8767 81.7154 37.2967 82.2194 37.558C82.7328 37.8193 83.3114 37.95 83.9554 37.95ZM93.9449 32.966C93.3662 33.0127 92.8715 33.1573 92.4609 33.4C92.0595 33.6427 91.7655 33.9693 91.5789 34.38V39H90.3469V31.734H91.4249L91.5509 33.316H91.5789C91.8122 32.8307 92.1295 32.4387 92.5309 32.14C92.9415 31.8413 93.4129 31.6593 93.9449 31.594V32.966ZM95.3938 40.904V39.798C95.7858 40.0127 96.1778 40.1667 96.5698 40.26C96.9618 40.3533 97.4098 40.4 97.9138 40.4C98.8098 40.4 99.4351 40.2273 99.7898 39.882C100.144 39.546 100.322 39.0513 100.322 38.398V37.278C100.107 37.7073 99.8038 38.0527 99.4118 38.314C99.0291 38.5753 98.5531 38.706 97.9838 38.706C97.4144 38.706 96.8824 38.5753 96.3878 38.314C95.9024 38.0433 95.5104 37.6467 95.2118 37.124C94.9224 36.6013 94.7778 35.948 94.7778 35.164C94.7778 34.3707 94.9224 33.7127 95.2118 33.19C95.5104 32.658 95.9024 32.2613 96.3878 32C96.8824 31.7293 97.4238 31.594 98.0118 31.594C98.5904 31.594 99.0758 31.7247 99.4678 31.986C99.8691 32.2473 100.182 32.602 100.406 33.05L100.42 32.896C100.42 32.728 100.429 32.5273 100.448 32.294C100.466 32.0513 100.485 31.8647 100.504 31.734H101.624C101.605 31.8553 101.586 32.042 101.568 32.294C101.558 32.5367 101.554 32.7373 101.554 32.896V38.384C101.554 39.0093 101.428 39.5553 101.176 40.022C100.933 40.4887 100.546 40.8527 100.014 41.114C99.4818 41.3753 98.7771 41.506 97.8998 41.506C96.8358 41.506 96.0004 41.3053 95.3938 40.904ZM100.336 35.164C100.336 34.3333 100.13 33.7127 99.7198 33.302C99.3184 32.8913 98.8098 32.686 98.1938 32.686C97.5778 32.686 97.0598 32.8913 96.6398 33.302C96.2291 33.7127 96.0238 34.3333 96.0238 35.164C96.0238 35.976 96.2291 36.5873 96.6398 36.998C97.0598 37.3993 97.5824 37.6 98.2078 37.6C98.8144 37.6 99.3184 37.3993 99.7198 36.998C100.13 36.5967 100.336 35.9853 100.336 35.164ZM106.018 32.686C105.243 32.686 104.459 32.924 103.666 33.4V32.294C104.011 32.0793 104.408 31.9113 104.856 31.79C105.313 31.6593 105.757 31.594 106.186 31.594C107.101 31.594 107.796 31.7853 108.272 32.168C108.748 32.5507 108.986 33.134 108.986 33.918V37.824C108.986 37.9827 108.991 38.188 109 38.44C109.019 38.6827 109.037 38.8693 109.056 39H107.936C107.908 38.8693 107.88 38.6873 107.852 38.454C107.833 38.2113 107.824 38.0013 107.824 37.824L107.81 37.614C107.698 37.838 107.544 38.0713 107.348 38.314C107.152 38.5473 106.891 38.7433 106.564 38.902C106.247 39.0607 105.85 39.14 105.374 39.14C104.721 39.14 104.193 38.9533 103.792 38.58C103.391 38.2067 103.19 37.6793 103.19 36.998C103.19 36.2047 103.47 35.6213 104.03 35.248C104.59 34.8747 105.379 34.688 106.396 34.688H107.754V34.086C107.754 33.582 107.623 33.2227 107.362 33.008C107.101 32.7933 106.653 32.686 106.018 32.686ZM107.754 36.2V35.668H106.522C105.785 35.668 105.248 35.7753 104.912 35.99C104.585 36.2047 104.422 36.5173 104.422 36.928C104.422 37.2547 104.52 37.5207 104.716 37.726C104.921 37.9313 105.229 38.034 105.64 38.034C106.023 38.034 106.349 37.9593 106.62 37.81C106.891 37.6513 107.11 37.4647 107.278 37.25C107.446 37.026 107.567 36.816 107.642 36.62C107.717 36.424 107.754 36.284 107.754 36.2ZM114.367 32.686C113.807 32.686 113.35 32.8167 112.995 33.078C112.65 33.33 112.37 33.6567 112.155 34.058V39H110.923V31.734H112.085L112.127 33.036H112.155C112.351 32.6253 112.659 32.2847 113.079 32.014C113.499 31.734 114.031 31.594 114.675 31.594C115.394 31.594 115.963 31.7853 116.383 32.168C116.812 32.5507 117.027 33.1293 117.027 33.904V39H115.795V34.03C115.795 33.5353 115.664 33.19 115.403 32.994C115.151 32.7887 114.806 32.686 114.367 32.686ZM119.606 30.67C119.354 30.67 119.153 30.5953 119.004 30.446C118.854 30.2873 118.78 30.096 118.78 29.872C118.78 29.648 118.854 29.4567 119.004 29.298C119.153 29.1393 119.354 29.06 119.606 29.06C119.848 29.06 120.04 29.1393 120.18 29.298C120.32 29.4567 120.39 29.648 120.39 29.872C120.39 30.096 120.32 30.2873 120.18 30.446C120.04 30.5953 119.848 30.67 119.606 30.67ZM118.976 31.734H120.208V39H118.976V31.734ZM127.074 37.95V39H121.698V38.202L125.52 32.784H121.81V31.734H127.06V32.532L123.238 37.95H127.074ZM131.037 32.686C130.263 32.686 129.479 32.924 128.685 33.4V32.294C129.031 32.0793 129.427 31.9113 129.875 31.79C130.333 31.6593 130.776 31.594 131.205 31.594C132.12 31.594 132.815 31.7853 133.291 32.168C133.767 32.5507 134.005 33.134 134.005 33.918V37.824C134.005 37.9827 134.01 38.188 134.019 38.44C134.038 38.6827 134.057 38.8693 134.075 39H132.955C132.927 38.8693 132.899 38.6873 132.871 38.454C132.853 38.2113 132.843 38.0013 132.843 37.824L132.829 37.614C132.717 37.838 132.563 38.0713 132.367 38.314C132.171 38.5473 131.91 38.7433 131.583 38.902C131.266 39.0607 130.869 39.14 130.393 39.14C129.74 39.14 129.213 38.9533 128.811 38.58C128.41 38.2067 128.209 37.6793 128.209 36.998C128.209 36.2047 128.489 35.6213 129.049 35.248C129.609 34.8747 130.398 34.688 131.415 34.688H132.773V34.086C132.773 33.582 132.643 33.2227 132.381 33.008C132.12 32.7933 131.672 32.686 131.037 32.686ZM132.773 36.2V35.668H131.541C130.804 35.668 130.267 35.7753 129.931 35.99C129.605 36.2047 129.441 36.5173 129.441 36.928C129.441 37.2547 129.539 37.5207 129.735 37.726C129.941 37.9313 130.249 38.034 130.659 38.034C131.042 38.034 131.369 37.9593 131.639 37.81C131.91 37.6513 132.129 37.4647 132.297 37.25C132.465 37.026 132.587 36.816 132.661 36.62C132.736 36.424 132.773 36.284 132.773 36.2ZM135.355 32.784V31.734H136.223V30.208H137.455V31.734H139.569V32.784H137.455V37.152C137.455 37.46 137.534 37.684 137.693 37.824C137.851 37.964 138.122 38.034 138.505 38.034C138.869 38.034 139.2 37.9313 139.499 37.726V38.846C139.349 38.9393 139.153 39.0093 138.911 39.056C138.668 39.112 138.425 39.14 138.183 39.14C137.716 39.14 137.338 39.0513 137.049 38.874C136.759 38.6967 136.549 38.468 136.419 38.188C136.288 37.908 136.223 37.614 136.223 37.306V32.784H135.355ZM141.768 30.67C141.516 30.67 141.315 30.5953 141.166 30.446C141.017 30.2873 140.942 30.096 140.942 29.872C140.942 29.648 141.017 29.4567 141.166 29.298C141.315 29.1393 141.516 29.06 141.768 29.06C142.011 29.06 142.202 29.1393 142.342 29.298C142.482 29.4567 142.552 29.648 142.552 29.872C142.552 30.096 142.482 30.2873 142.342 30.446C142.202 30.5953 142.011 30.67 141.768 30.67ZM141.138 31.734H142.37V39H141.138V31.734ZM147.36 39.14C146.697 39.14 146.1 38.9953 145.568 38.706C145.045 38.4073 144.63 37.978 144.322 37.418C144.014 36.8487 143.86 36.1627 143.86 35.36C143.86 34.5573 144.014 33.876 144.322 33.316C144.63 32.756 145.045 32.3313 145.568 32.042C146.1 31.7433 146.697 31.594 147.36 31.594C148.032 31.594 148.634 31.7433 149.166 32.042C149.698 32.3313 150.118 32.756 150.426 33.316C150.734 33.876 150.888 34.5573 150.888 35.36C150.888 36.1627 150.734 36.8487 150.426 37.418C150.118 37.978 149.698 38.4073 149.166 38.706C148.634 38.9953 148.032 39.14 147.36 39.14ZM147.36 38.034C148.013 38.034 148.555 37.8193 148.984 37.39C149.413 36.9513 149.628 36.2747 149.628 35.36C149.628 34.4453 149.413 33.7733 148.984 33.344C148.555 32.9053 148.013 32.686 147.36 32.686C146.716 32.686 146.179 32.9053 145.75 33.344C145.33 33.7733 145.12 34.4453 145.12 35.36C145.12 36.2747 145.33 36.9513 145.75 37.39C146.179 37.8193 146.716 38.034 147.36 38.034ZM155.834 32.686C155.274 32.686 154.817 32.8167 154.462 33.078C154.117 33.33 153.837 33.6567 153.622 34.058V39H152.39V31.734H153.552L153.594 33.036H153.622C153.818 32.6253 154.126 32.2847 154.546 32.014C154.966 31.734 155.498 31.594 156.142 31.594C156.861 31.594 157.43 31.7853 157.85 32.168C158.279 32.5507 158.494 33.1293 158.494 33.904V39H157.262V34.03C157.262 33.5353 157.131 33.19 156.87 32.994C156.618 32.7887 156.273 32.686 155.834 32.686Z" fill="black"/>
<path d="M381 186L386.774 176L375.227 176L381 186ZM380 110L380 177L382 177L382 110L380 110Z" fill="#4E496B"/>
<rect x="321" y="60" width="120" height="50" rx="10" fill="#E3EBFF"/>
<path d="M331.57 79.962H339.116V90H337.786V81.166H332.886V90H331.57V79.962ZM344.268 90.14C343.606 90.14 343.008 89.9953 342.476 89.706C341.954 89.4073 341.538 88.978 341.23 88.418C340.922 87.8487 340.768 87.1627 340.768 86.36C340.768 85.5573 340.922 84.876 341.23 84.316C341.538 83.756 341.954 83.3313 342.476 83.042C343.008 82.7433 343.606 82.594 344.268 82.594C344.94 82.594 345.542 82.7433 346.074 83.042C346.606 83.3313 347.026 83.756 347.334 84.316C347.642 84.876 347.796 85.5573 347.796 86.36C347.796 87.1627 347.642 87.8487 347.334 88.418C347.026 88.978 346.606 89.4073 346.074 89.706C345.542 89.9953 344.94 90.14 344.268 90.14ZM344.268 89.034C344.922 89.034 345.463 88.8193 345.892 88.39C346.322 87.9513 346.536 87.2747 346.536 86.36C346.536 85.4453 346.322 84.7733 345.892 84.344C345.463 83.9053 344.922 83.686 344.268 83.686C343.624 83.686 343.088 83.9053 342.658 84.344C342.238 84.7733 342.028 85.4453 342.028 86.36C342.028 87.2747 342.238 87.9513 342.658 88.39C343.088 88.8193 343.624 89.034 344.268 89.034ZM349.398 92.072H348.292V88.95H348.978C349.276 88.6513 349.486 88.2313 349.608 87.69C349.738 87.1487 349.818 86.472 349.846 85.66C349.874 84.8387 349.888 83.8633 349.888 82.734H355.138V88.95H356.23V92.072H355.152L354.998 90H349.524L349.398 92.072ZM353.906 83.784H351.036C351.026 85.1093 350.98 86.1827 350.896 87.004C350.821 87.816 350.63 88.4647 350.322 88.95H353.906V83.784ZM363.451 90H361.953L359.391 86.906H358.747V90H357.515V82.734H358.747V85.856H359.447L361.995 82.734H363.395L360.413 86.318L363.451 90ZM364.159 88.796C364.719 88.88 365.102 88.53 365.307 87.746C365.382 87.466 365.443 87.116 365.489 86.696C365.536 86.2667 365.569 85.7347 365.587 85.1C365.606 84.456 365.615 83.6673 365.615 82.734H370.641V90H369.395V83.784H366.777C366.768 84.8947 366.735 85.786 366.679 86.458C366.633 87.1207 366.553 87.676 366.441 88.124C366.264 88.824 365.993 89.3233 365.629 89.622C365.265 89.9207 364.775 90.0513 364.159 90.014V88.796ZM378.502 90.14C377.904 90.14 377.363 90.0093 376.878 89.748C376.392 89.4867 375.996 89.1087 375.688 88.614C375.389 88.11 375.212 87.4987 375.156 86.78H373.882V90H372.65V82.734H373.882V85.73H375.184C375.258 85.058 375.445 84.4887 375.744 84.022C376.052 83.5553 376.444 83.2007 376.92 82.958C377.396 82.7153 377.923 82.594 378.502 82.594C379.146 82.594 379.724 82.7433 380.238 83.042C380.751 83.3313 381.152 83.756 381.442 84.316C381.74 84.876 381.89 85.5573 381.89 86.36C381.89 87.1627 381.74 87.8487 381.442 88.418C381.152 88.978 380.751 89.4073 380.238 89.706C379.724 89.9953 379.146 90.14 378.502 90.14ZM378.502 89.034C379.108 89.034 379.612 88.8193 380.014 88.39C380.415 87.9513 380.616 87.2747 380.616 86.36C380.616 85.4453 380.415 84.7733 380.014 84.344C379.612 83.9053 379.108 83.686 378.502 83.686C377.904 83.686 377.405 83.9053 377.004 84.344C376.602 84.7733 376.402 85.4453 376.402 86.36C376.402 87.2747 376.602 87.9513 377.004 88.39C377.405 88.8193 377.904 89.034 378.502 89.034ZM385.781 86.402C386.098 86.402 386.411 86.3553 386.719 86.262C387.036 86.1687 387.321 86.024 387.573 85.828V82.734H388.805V90H387.573V86.808C387.05 87.2187 386.383 87.424 385.571 87.424C384.75 87.424 384.12 87.2187 383.681 86.808C383.252 86.3973 383.037 85.7487 383.037 84.862V82.734H384.283V84.876C384.283 85.4453 384.414 85.842 384.675 86.066C384.936 86.29 385.305 86.402 385.781 86.402ZM394.04 90.14C392.826 90.14 391.898 89.8087 391.254 89.146C390.619 88.474 390.302 87.5453 390.302 86.36C390.302 85.5667 390.451 84.89 390.75 84.33C391.048 83.77 391.459 83.3407 391.982 83.042C392.504 82.7433 393.092 82.594 393.746 82.594C394.856 82.594 395.673 82.9627 396.196 83.7C396.718 84.428 396.886 85.4267 396.7 86.696H391.576C391.678 88.2547 392.537 89.034 394.152 89.034C395.038 89.034 395.855 88.782 396.602 88.278V89.384C396.266 89.6173 395.874 89.804 395.426 89.944C394.978 90.0747 394.516 90.14 394.04 90.14ZM393.718 83.686C393.186 83.686 392.728 83.8493 392.346 84.176C391.963 84.5027 391.72 84.9973 391.618 85.66H395.524C395.552 85.0347 395.407 84.5493 395.09 84.204C394.772 83.8587 394.315 83.686 393.718 83.686ZM399.585 82.734V85.73H403.099V82.734H404.331V90H403.099V86.78H399.585V90H398.353V82.734H399.585ZM407.583 82.734V88.292L411.321 82.734H412.567V90H411.335V84.456L407.611 90H406.351V82.734H407.583ZM417.801 90.14C416.588 90.14 415.659 89.8087 415.015 89.146C414.381 88.474 414.063 87.5453 414.063 86.36C414.063 85.5667 414.213 84.89 414.511 84.33C414.81 83.77 415.221 83.3407 415.743 83.042C416.266 82.7433 416.854 82.594 417.507 82.594C418.618 82.594 419.435 82.9627 419.957 83.7C420.48 84.428 420.648 85.4267 420.461 86.696H415.337C415.44 88.2547 416.299 89.034 417.913 89.034C418.8 89.034 419.617 88.782 420.363 88.278V89.384C420.027 89.6173 419.635 89.804 419.187 89.944C418.739 90.0747 418.277 90.14 417.801 90.14ZM417.479 83.686C416.947 83.686 416.49 83.8493 416.107 84.176C415.725 84.5027 415.482 84.9973 415.379 85.66H419.285C419.313 85.0347 419.169 84.5493 418.851 84.204C418.534 83.8587 418.077 83.686 417.479 83.686ZM429.117 90H427.843V81.544L425.071 83.672V82.258L428.053 79.962H429.117V90Z" fill="black"/>
<rect x="521" y="60" width="120" height="50" rx="10" fill="#E3EBFF"/>
<path d="M531.57 79.962H539.116V90H537.786V81.166H532.886V90H531.57V79.962ZM544.268 90.14C543.606 90.14 543.008 89.9953 542.476 89.706C541.954 89.4073 541.538 88.978 541.23 88.418C540.922 87.8487 540.768 87.1627 540.768 86.36C540.768 85.5573 540.922 84.876 541.23 84.316C541.538 83.756 541.954 83.3313 542.476 83.042C543.008 82.7433 543.606 82.594 544.268 82.594C544.94 82.594 545.542 82.7433 546.074 83.042C546.606 83.3313 547.026 83.756 547.334 84.316C547.642 84.876 547.796 85.5573 547.796 86.36C547.796 87.1627 547.642 87.8487 547.334 88.418C547.026 88.978 546.606 89.4073 546.074 89.706C545.542 89.9953 544.94 90.14 544.268 90.14ZM544.268 89.034C544.922 89.034 545.463 88.8193 545.892 88.39C546.322 87.9513 546.536 87.2747 546.536 86.36C546.536 85.4453 546.322 84.7733 545.892 84.344C545.463 83.9053 544.922 83.686 544.268 83.686C543.624 83.686 543.088 83.9053 542.658 84.344C542.238 84.7733 542.028 85.4453 542.028 86.36C542.028 87.2747 542.238 87.9513 542.658 88.39C543.088 88.8193 543.624 89.034 544.268 89.034ZM549.398 92.072H548.292V88.95H548.978C549.276 88.6513 549.486 88.2313 549.608 87.69C549.738 87.1487 549.818 86.472 549.846 85.66C549.874 84.8387 549.888 83.8633 549.888 82.734H555.138V88.95H556.23V92.072H555.152L554.998 90H549.524L549.398 92.072ZM553.906 83.784H551.036C551.026 85.1093 550.98 86.1827 550.896 87.004C550.821 87.816 550.63 88.4647 550.322 88.95H553.906V83.784ZM563.451 90H561.953L559.391 86.906H558.747V90H557.515V82.734H558.747V85.856H559.447L561.995 82.734H563.395L560.413 86.318L563.451 90ZM564.159 88.796C564.719 88.88 565.102 88.53 565.307 87.746C565.382 87.466 565.443 87.116 565.489 86.696C565.536 86.2667 565.569 85.7347 565.587 85.1C565.606 84.456 565.615 83.6673 565.615 82.734H570.641V90H569.395V83.784H566.777C566.768 84.8947 566.735 85.786 566.679 86.458C566.633 87.1207 566.553 87.676 566.441 88.124C566.264 88.824 565.993 89.3233 565.629 89.622C565.265 89.9207 564.775 90.0513 564.159 90.014V88.796ZM578.502 90.14C577.904 90.14 577.363 90.0093 576.878 89.748C576.392 89.4867 575.996 89.1087 575.688 88.614C575.389 88.11 575.212 87.4987 575.156 86.78H573.882V90H572.65V82.734H573.882V85.73H575.184C575.258 85.058 575.445 84.4887 575.744 84.022C576.052 83.5553 576.444 83.2007 576.92 82.958C577.396 82.7153 577.923 82.594 578.502 82.594C579.146 82.594 579.724 82.7433 580.238 83.042C580.751 83.3313 581.152 83.756 581.442 84.316C581.74 84.876 581.89 85.5573 581.89 86.36C581.89 87.1627 581.74 87.8487 581.442 88.418C581.152 88.978 580.751 89.4073 580.238 89.706C579.724 89.9953 579.146 90.14 578.502 90.14ZM578.502 89.034C579.108 89.034 579.612 88.8193 580.014 88.39C580.415 87.9513 580.616 87.2747 580.616 86.36C580.616 85.4453 580.415 84.7733 580.014 84.344C579.612 83.9053 579.108 83.686 578.502 83.686C577.904 83.686 577.405 83.9053 577.004 84.344C576.602 84.7733 576.402 85.4453 576.402 86.36C576.402 87.2747 576.602 87.9513 577.004 88.39C577.405 88.8193 577.904 89.034 578.502 89.034ZM585.781 86.402C586.098 86.402 586.411 86.3553 586.719 86.262C587.036 86.1687 587.321 86.024 587.573 85.828V82.734H588.805V90H587.573V86.808C587.05 87.2187 586.383 87.424 585.571 87.424C584.75 87.424 584.12 87.2187 583.681 86.808C583.252 86.3973 583.037 85.7487 583.037 84.862V82.734H584.283V84.876C584.283 85.4453 584.414 85.842 584.675 86.066C584.936 86.29 585.305 86.402 585.781 86.402ZM594.04 90.14C592.826 90.14 591.898 89.8087 591.254 89.146C590.619 88.474 590.302 87.5453 590.302 86.36C590.302 85.5667 590.451 84.89 590.75 84.33C591.048 83.77 591.459 83.3407 591.982 83.042C592.504 82.7433 593.092 82.594 593.746 82.594C594.856 82.594 595.673 82.9627 596.196 83.7C596.718 84.428 596.886 85.4267 596.7 86.696H591.576C591.678 88.2547 592.537 89.034 594.152 89.034C595.038 89.034 595.855 88.782 596.602 88.278V89.384C596.266 89.6173 595.874 89.804 595.426 89.944C594.978 90.0747 594.516 90.14 594.04 90.14ZM593.718 83.686C593.186 83.686 592.728 83.8493 592.346 84.176C591.963 84.5027 591.72 84.9973 591.618 85.66H595.524C595.552 85.0347 595.407 84.5493 595.09 84.204C594.772 83.8587 594.315 83.686 593.718 83.686ZM599.585 82.734V85.73H603.099V82.734H604.331V90H603.099V86.78H599.585V90H598.353V82.734H599.585ZM607.583 82.734V88.292L611.321 82.734H612.567V90H611.335V84.456L607.611 90H606.351V82.734H607.583ZM617.801 90.14C616.588 90.14 615.659 89.8087 615.015 89.146C614.381 88.474 614.063 87.5453 614.063 86.36C614.063 85.5667 614.213 84.89 614.511 84.33C614.81 83.77 615.221 83.3407 615.743 83.042C616.266 82.7433 616.854 82.594 617.507 82.594C618.618 82.594 619.435 82.9627 619.957 83.7C620.48 84.428 620.648 85.4267 620.461 86.696H615.337C615.44 88.2547 616.299 89.034 617.913 89.034C618.8 89.034 619.617 88.782 620.363 88.278V89.384C620.027 89.6173 619.635 89.804 619.187 89.944C618.739 90.0747 618.277 90.14 617.801 90.14ZM617.479 83.686C616.947 83.686 616.49 83.8493 616.107 84.176C615.725 84.5027 615.482 84.9973 615.379 85.66H619.285C619.313 85.0347 619.169 84.5493 618.851 84.204C618.534 83.8587 618.077 83.686 617.479 83.686ZM630.993 90H624.595V88.67C625.594 87.8673 626.411 87.1813 627.045 86.612C627.689 86.0427 628.189 85.548 628.543 85.128C628.907 84.6987 629.159 84.302 629.299 83.938C629.449 83.574 629.523 83.2053 629.523 82.832C629.523 82.2533 629.351 81.8007 629.005 81.474C628.66 81.1473 628.184 80.984 627.577 80.984C626.607 80.984 625.701 81.446 624.861 82.37V80.956C625.636 80.2 626.555 79.822 627.619 79.822C628.627 79.822 629.421 80.0833 629.999 80.606C630.587 81.1193 630.881 81.8193 630.881 82.706C630.881 83.1633 630.807 83.602 630.657 84.022C630.517 84.4327 630.265 84.8667 629.901 85.324C629.547 85.772 629.057 86.276 628.431 86.836C627.806 87.396 627.013 88.0493 626.051 88.796H630.993V90Z" fill="black"/>
<rect x="321" y="186" width="120" height="50" rx="10" fill="#E3EBFF"/>
<path d="M330.428 205.962H337.974V216H336.644V207.166H331.744V216H330.428V205.962ZM340.145 208.734H341.223L341.349 210.148C341.582 209.681 341.904 209.308 342.315 209.028C342.735 208.739 343.248 208.594 343.855 208.594C344.424 208.594 344.947 208.734 345.423 209.014C345.908 209.285 346.3 209.7 346.599 210.26C346.897 210.811 347.047 211.511 347.047 212.36C347.047 213.209 346.893 213.914 346.585 214.474C346.286 215.034 345.889 215.454 345.395 215.734C344.909 216.005 344.377 216.14 343.799 216.14C343.248 216.14 342.767 216.009 342.357 215.748C341.946 215.487 341.619 215.127 341.377 214.67V218.478H340.145V208.734ZM345.773 212.36C345.773 211.483 345.572 210.82 345.171 210.372C344.769 209.915 344.251 209.686 343.617 209.686C342.982 209.686 342.445 209.91 342.007 210.358C341.577 210.797 341.363 211.464 341.363 212.36C341.363 213.265 341.577 213.937 342.007 214.376C342.445 214.815 342.982 215.034 343.617 215.034C344.251 215.034 344.769 214.81 345.171 214.362C345.572 213.914 345.773 213.247 345.773 212.36ZM351.521 216.14C350.859 216.14 350.261 215.995 349.729 215.706C349.207 215.407 348.791 214.978 348.483 214.418C348.175 213.849 348.021 213.163 348.021 212.36C348.021 211.557 348.175 210.876 348.483 210.316C348.791 209.756 349.207 209.331 349.729 209.042C350.261 208.743 350.859 208.594 351.521 208.594C352.193 208.594 352.795 208.743 353.327 209.042C353.859 209.331 354.279 209.756 354.587 210.316C354.895 210.876 355.049 211.557 355.049 212.36C355.049 213.163 354.895 213.849 354.587 214.418C354.279 214.978 353.859 215.407 353.327 215.706C352.795 215.995 352.193 216.14 351.521 216.14ZM351.521 215.034C352.175 215.034 352.716 214.819 353.145 214.39C353.575 213.951 353.789 213.275 353.789 212.36C353.789 211.445 353.575 210.773 353.145 210.344C352.716 209.905 352.175 209.686 351.521 209.686C350.877 209.686 350.341 209.905 349.911 210.344C349.491 210.773 349.281 211.445 349.281 212.36C349.281 213.275 349.491 213.951 349.911 214.39C350.341 214.819 350.877 215.034 351.521 215.034ZM359.687 216.14C358.558 216.14 357.666 215.809 357.013 215.146C356.36 214.474 356.033 213.545 356.033 212.36C356.033 211.175 356.364 210.251 357.027 209.588C357.69 208.925 358.595 208.594 359.743 208.594C360.182 208.594 360.592 208.645 360.975 208.748C361.358 208.841 361.666 208.981 361.899 209.168V210.274C361.264 209.882 360.55 209.686 359.757 209.686C358.917 209.686 358.296 209.91 357.895 210.358C357.494 210.797 357.293 211.464 357.293 212.36C357.293 213.256 357.484 213.928 357.867 214.376C358.259 214.815 358.866 215.034 359.687 215.034C360.48 215.034 361.218 214.843 361.899 214.46V215.566C361.292 215.949 360.555 216.14 359.687 216.14ZM362.963 208.734H368.801V209.784H366.477V216H365.245V209.784H362.963V208.734ZM370.223 208.734H371.301L371.427 210.148C371.66 209.681 371.982 209.308 372.393 209.028C372.813 208.739 373.326 208.594 373.933 208.594C374.502 208.594 375.025 208.734 375.501 209.014C375.986 209.285 376.378 209.7 376.677 210.26C376.976 210.811 377.125 211.511 377.125 212.36C377.125 213.209 376.971 213.914 376.663 214.474C376.364 215.034 375.968 215.454 375.473 215.734C374.988 216.005 374.456 216.14 373.877 216.14C373.326 216.14 372.846 216.009 372.435 215.748C372.024 215.487 371.698 215.127 371.455 214.67V218.478H370.223V208.734ZM375.851 212.36C375.851 211.483 375.65 210.82 375.249 210.372C374.848 209.915 374.33 209.686 373.695 209.686C373.06 209.686 372.524 209.91 372.085 210.358C371.656 210.797 371.441 211.464 371.441 212.36C371.441 213.265 371.656 213.937 372.085 214.376C372.524 214.815 373.06 215.034 373.695 215.034C374.33 215.034 374.848 214.81 375.249 214.362C375.65 213.914 375.851 213.247 375.851 212.36ZM381.013 209.686C380.238 209.686 379.454 209.924 378.661 210.4V209.294C379.006 209.079 379.403 208.911 379.851 208.79C380.308 208.659 380.752 208.594 381.181 208.594C382.096 208.594 382.791 208.785 383.267 209.168C383.743 209.551 383.981 210.134 383.981 210.918V214.824C383.981 214.983 383.986 215.188 383.995 215.44C384.014 215.683 384.032 215.869 384.051 216H382.931C382.903 215.869 382.875 215.687 382.847 215.454C382.828 215.211 382.819 215.001 382.819 214.824L382.805 214.614C382.693 214.838 382.539 215.071 382.343 215.314C382.147 215.547 381.886 215.743 381.559 215.902C381.242 216.061 380.845 216.14 380.369 216.14C379.716 216.14 379.188 215.953 378.787 215.58C378.386 215.207 378.185 214.679 378.185 213.998C378.185 213.205 378.465 212.621 379.025 212.248C379.585 211.875 380.374 211.688 381.391 211.688H382.749V211.086C382.749 210.582 382.618 210.223 382.357 210.008C382.096 209.793 381.648 209.686 381.013 209.686ZM382.749 213.2V212.668H381.517C380.78 212.668 380.243 212.775 379.907 212.99C379.58 213.205 379.417 213.517 379.417 213.928C379.417 214.255 379.515 214.521 379.711 214.726C379.916 214.931 380.224 215.034 380.635 215.034C381.018 215.034 381.344 214.959 381.615 214.81C381.886 214.651 382.105 214.465 382.273 214.25C382.441 214.026 382.562 213.816 382.637 213.62C382.712 213.424 382.749 213.284 382.749 213.2ZM387.15 208.734V211.73H390.664V208.734H391.896V216H390.664V212.78H387.15V216H385.918V208.734H387.15ZM397.052 216.14C395.923 216.14 395.032 215.809 394.378 215.146C393.725 214.474 393.398 213.545 393.398 212.36C393.398 211.175 393.73 210.251 394.392 209.588C395.055 208.925 395.96 208.594 397.108 208.594C397.547 208.594 397.958 208.645 398.34 208.748C398.723 208.841 399.031 208.981 399.264 209.168V210.274C398.63 209.882 397.916 209.686 397.122 209.686C396.282 209.686 395.662 209.91 395.26 210.358C394.859 210.797 394.658 211.464 394.658 212.36C394.658 213.256 394.85 213.928 395.232 214.376C395.624 214.815 396.231 215.034 397.052 215.034C397.846 215.034 398.583 214.843 399.264 214.46V215.566C398.658 215.949 397.92 216.14 397.052 216.14ZM400.328 208.734H406.166V209.784H403.842V216H402.61V209.784H400.328V208.734ZM410.416 216H407.588V208.734H410.444C411.312 208.734 411.97 208.888 412.418 209.196C412.875 209.495 413.104 209.966 413.104 210.61C413.104 211.03 412.992 211.371 412.768 211.632C412.553 211.893 412.245 212.08 411.844 212.192C412.88 212.36 413.398 212.934 413.398 213.914C413.398 214.409 413.267 214.81 413.006 215.118C412.754 215.426 412.404 215.65 411.956 215.79C411.508 215.93 410.995 216 410.416 216ZM410.43 209.784H408.82V211.758H410.332C410.799 211.758 411.172 211.674 411.452 211.506C411.741 211.338 411.886 211.095 411.886 210.778C411.886 210.395 411.76 210.134 411.508 209.994C411.256 209.854 410.897 209.784 410.43 209.784ZM410.402 212.738H408.82V214.95H410.402C410.925 214.95 411.345 214.875 411.662 214.726C411.979 214.567 412.138 214.283 412.138 213.872C412.138 213.461 411.993 213.172 411.704 213.004C411.415 212.827 410.981 212.738 410.402 212.738ZM418.226 216.14C417.564 216.14 416.966 215.995 416.434 215.706C415.912 215.407 415.496 214.978 415.188 214.418C414.88 213.849 414.726 213.163 414.726 212.36C414.726 211.557 414.88 210.876 415.188 210.316C415.496 209.756 415.912 209.331 416.434 209.042C416.966 208.743 417.564 208.594 418.226 208.594C418.898 208.594 419.5 208.743 420.032 209.042C420.564 209.331 420.984 209.756 421.292 210.316C421.6 210.876 421.754 211.557 421.754 212.36C421.754 213.163 421.6 213.849 421.292 214.418C420.984 214.978 420.564 215.407 420.032 215.706C419.5 215.995 418.898 216.14 418.226 216.14ZM418.226 215.034C418.88 215.034 419.421 214.819 419.85 214.39C420.28 213.951 420.494 213.275 420.494 212.36C420.494 211.445 420.28 210.773 419.85 210.344C419.421 209.905 418.88 209.686 418.226 209.686C417.582 209.686 417.046 209.905 416.616 210.344C416.196 210.773 415.986 211.445 415.986 212.36C415.986 213.275 416.196 213.951 416.616 214.39C417.046 214.819 417.582 215.034 418.226 215.034ZM430.259 216H428.985V207.544L426.213 209.672V208.258L429.195 205.962H430.259V216Z" fill="black"/>
<rect x="521" y="144" width="120" height="50" rx="10" fill="#E3EBFF"/>
<path d="M553.062 163.962H560.608V174H559.278V165.166H554.378V174H553.062V163.962ZM562.779 166.734H563.857L563.983 168.148C564.216 167.681 564.538 167.308 564.949 167.028C565.369 166.739 565.882 166.594 566.489 166.594C567.058 166.594 567.581 166.734 568.057 167.014C568.542 167.285 568.934 167.7 569.233 168.26C569.531 168.811 569.681 169.511 569.681 170.36C569.681 171.209 569.527 171.914 569.219 172.474C568.92 173.034 568.523 173.454 568.029 173.734C567.543 174.005 567.011 174.14 566.433 174.14C565.882 174.14 565.401 174.009 564.991 173.748C564.58 173.487 564.253 173.127 564.011 172.67V176.478H562.779V166.734ZM568.407 170.36C568.407 169.483 568.206 168.82 567.805 168.372C567.403 167.915 566.885 167.686 566.251 167.686C565.616 167.686 565.079 167.91 564.641 168.358C564.211 168.797 563.997 169.464 563.997 170.36C563.997 171.265 564.211 171.937 564.641 172.376C565.079 172.815 565.616 173.034 566.251 173.034C566.885 173.034 567.403 172.81 567.805 172.362C568.206 171.914 568.407 171.247 568.407 170.36ZM574.155 174.14C573.492 174.14 572.895 173.995 572.363 173.706C571.84 173.407 571.425 172.978 571.117 172.418C570.809 171.849 570.655 171.163 570.655 170.36C570.655 169.557 570.809 168.876 571.117 168.316C571.425 167.756 571.84 167.331 572.363 167.042C572.895 166.743 573.492 166.594 574.155 166.594C574.827 166.594 575.429 166.743 575.961 167.042C576.493 167.331 576.913 167.756 577.221 168.316C577.529 168.876 577.683 169.557 577.683 170.36C577.683 171.163 577.529 171.849 577.221 172.418C576.913 172.978 576.493 173.407 575.961 173.706C575.429 173.995 574.827 174.14 574.155 174.14ZM574.155 173.034C574.808 173.034 575.35 172.819 575.779 172.39C576.208 171.951 576.423 171.275 576.423 170.36C576.423 169.445 576.208 168.773 575.779 168.344C575.35 167.905 574.808 167.686 574.155 167.686C573.511 167.686 572.974 167.905 572.545 168.344C572.125 168.773 571.915 169.445 571.915 170.36C571.915 171.275 572.125 171.951 572.545 172.39C572.974 172.819 573.511 173.034 574.155 173.034ZM582.405 174.14C581.191 174.14 580.263 173.809 579.619 173.146C578.984 172.474 578.667 171.545 578.667 170.36C578.667 169.567 578.816 168.89 579.115 168.33C579.413 167.77 579.824 167.341 580.347 167.042C580.869 166.743 581.457 166.594 582.111 166.594C583.221 166.594 584.038 166.963 584.561 167.7C585.083 168.428 585.251 169.427 585.065 170.696H579.941C580.043 172.255 580.902 173.034 582.517 173.034C583.403 173.034 584.22 172.782 584.967 172.278V173.384C584.631 173.617 584.239 173.804 583.791 173.944C583.343 174.075 582.881 174.14 582.405 174.14ZM582.083 167.686C581.551 167.686 581.093 167.849 580.711 168.176C580.328 168.503 580.085 168.997 579.983 169.66H583.889C583.917 169.035 583.772 168.549 583.455 168.204C583.137 167.859 582.68 167.686 582.083 167.686ZM592.654 174H591.156L588.594 170.906H587.95V174H586.718V166.734H587.95V169.856H588.65L591.198 166.734H592.598L589.616 170.318L592.654 174ZM593.362 166.734H599.2V167.784H596.876V174H595.644V167.784H593.362V166.734ZM607.625 174H606.351V165.544L603.579 167.672V166.258L606.561 163.962H607.625V174Z" fill="black"/>
<rect x="521" y="228" width="120" height="50" rx="10" fill="#E3EBFF"/>
<path d="M553.062 247.962H560.608V258H559.278V249.166H554.378V258H553.062V247.962ZM562.779 250.734H563.857L563.983 252.148C564.216 251.681 564.538 251.308 564.949 251.028C565.369 250.739 565.882 250.594 566.489 250.594C567.058 250.594 567.581 250.734 568.057 251.014C568.542 251.285 568.934 251.7 569.233 252.26C569.531 252.811 569.681 253.511 569.681 254.36C569.681 255.209 569.527 255.914 569.219 256.474C568.92 257.034 568.523 257.454 568.029 257.734C567.543 258.005 567.011 258.14 566.433 258.14C565.882 258.14 565.401 258.009 564.991 257.748C564.58 257.487 564.253 257.127 564.011 256.67V260.478H562.779V250.734ZM568.407 254.36C568.407 253.483 568.206 252.82 567.805 252.372C567.403 251.915 566.885 251.686 566.251 251.686C565.616 251.686 565.079 251.91 564.641 252.358C564.211 252.797 563.997 253.464 563.997 254.36C563.997 255.265 564.211 255.937 564.641 256.376C565.079 256.815 565.616 257.034 566.251 257.034C566.885 257.034 567.403 256.81 567.805 256.362C568.206 255.914 568.407 255.247 568.407 254.36ZM574.155 258.14C573.492 258.14 572.895 257.995 572.363 257.706C571.84 257.407 571.425 256.978 571.117 256.418C570.809 255.849 570.655 255.163 570.655 254.36C570.655 253.557 570.809 252.876 571.117 252.316C571.425 251.756 571.84 251.331 572.363 251.042C572.895 250.743 573.492 250.594 574.155 250.594C574.827 250.594 575.429 250.743 575.961 251.042C576.493 251.331 576.913 251.756 577.221 252.316C577.529 252.876 577.683 253.557 577.683 254.36C577.683 255.163 577.529 255.849 577.221 256.418C576.913 256.978 576.493 257.407 575.961 257.706C575.429 257.995 574.827 258.14 574.155 258.14ZM574.155 257.034C574.808 257.034 575.35 256.819 575.779 256.39C576.208 255.951 576.423 255.275 576.423 254.36C576.423 253.445 576.208 252.773 575.779 252.344C575.35 251.905 574.808 251.686 574.155 251.686C573.511 251.686 572.974 251.905 572.545 252.344C572.125 252.773 571.915 253.445 571.915 254.36C571.915 255.275 572.125 255.951 572.545 256.39C572.974 256.819 573.511 257.034 574.155 257.034ZM582.405 258.14C581.191 258.14 580.263 257.809 579.619 257.146C578.984 256.474 578.667 255.545 578.667 254.36C578.667 253.567 578.816 252.89 579.115 252.33C579.413 251.77 579.824 251.341 580.347 251.042C580.869 250.743 581.457 250.594 582.111 250.594C583.221 250.594 584.038 250.963 584.561 251.7C585.083 252.428 585.251 253.427 585.065 254.696H579.941C580.043 256.255 580.902 257.034 582.517 257.034C583.403 257.034 584.22 256.782 584.967 256.278V257.384C584.631 257.617 584.239 257.804 583.791 257.944C583.343 258.075 582.881 258.14 582.405 258.14ZM582.083 251.686C581.551 251.686 581.093 251.849 580.711 252.176C580.328 252.503 580.085 252.997 579.983 253.66H583.889C583.917 253.035 583.772 252.549 583.455 252.204C583.137 251.859 582.68 251.686 582.083 251.686ZM592.654 258H591.156L588.594 254.906H587.95V258H586.718V250.734H587.95V253.856H588.65L591.198 250.734H592.598L589.616 254.318L592.654 258ZM593.362 250.734H599.2V251.784H596.876V258H595.644V251.784H593.362V250.734ZM609.501 258H603.103V256.67C604.102 255.867 604.918 255.181 605.553 254.612C606.197 254.043 606.696 253.548 607.051 253.128C607.415 252.699 607.667 252.302 607.807 251.938C607.956 251.574 608.031 251.205 608.031 250.832C608.031 250.253 607.858 249.801 607.513 249.474C607.168 249.147 606.692 248.984 606.085 248.984C605.114 248.984 604.209 249.446 603.369 250.37V248.956C604.144 248.2 605.063 247.822 606.127 247.822C607.135 247.822 607.928 248.083 608.507 248.606C609.095 249.119 609.389 249.819 609.389 250.706C609.389 251.163 609.314 251.602 609.165 252.022C609.025 252.433 608.773 252.867 608.409 253.324C608.054 253.772 607.564 254.276 606.939 254.836C606.314 255.396 605.52 256.049 604.559 256.796H609.501V258Z" fill="black"/>
<rect x="521" y="312" width="120" height="50" rx="10" fill="#E3EBFF"/>
<path d="M553.062 331.962H560.608V342H559.278V333.166H554.378V342H553.062V331.962ZM562.779 334.734H563.857L563.983 336.148C564.216 335.681 564.538 335.308 564.949 335.028C565.369 334.739 565.882 334.594 566.489 334.594C567.058 334.594 567.581 334.734 568.057 335.014C568.542 335.285 568.934 335.7 569.233 336.26C569.531 336.811 569.681 337.511 569.681 338.36C569.681 339.209 569.527 339.914 569.219 340.474C568.92 341.034 568.523 341.454 568.029 341.734C567.543 342.005 567.011 342.14 566.433 342.14C565.882 342.14 565.401 342.009 564.991 341.748C564.58 341.487 564.253 341.127 564.011 340.67V344.478H562.779V334.734ZM568.407 338.36C568.407 337.483 568.206 336.82 567.805 336.372C567.403 335.915 566.885 335.686 566.251 335.686C565.616 335.686 565.079 335.91 564.641 336.358C564.211 336.797 563.997 337.464 563.997 338.36C563.997 339.265 564.211 339.937 564.641 340.376C565.079 340.815 565.616 341.034 566.251 341.034C566.885 341.034 567.403 340.81 567.805 340.362C568.206 339.914 568.407 339.247 568.407 338.36ZM574.155 342.14C573.492 342.14 572.895 341.995 572.363 341.706C571.84 341.407 571.425 340.978 571.117 340.418C570.809 339.849 570.655 339.163 570.655 338.36C570.655 337.557 570.809 336.876 571.117 336.316C571.425 335.756 571.84 335.331 572.363 335.042C572.895 334.743 573.492 334.594 574.155 334.594C574.827 334.594 575.429 334.743 575.961 335.042C576.493 335.331 576.913 335.756 577.221 336.316C577.529 336.876 577.683 337.557 577.683 338.36C577.683 339.163 577.529 339.849 577.221 340.418C576.913 340.978 576.493 341.407 575.961 341.706C575.429 341.995 574.827 342.14 574.155 342.14ZM574.155 341.034C574.808 341.034 575.35 340.819 575.779 340.39C576.208 339.951 576.423 339.275 576.423 338.36C576.423 337.445 576.208 336.773 575.779 336.344C575.35 335.905 574.808 335.686 574.155 335.686C573.511 335.686 572.974 335.905 572.545 336.344C572.125 336.773 571.915 337.445 571.915 338.36C571.915 339.275 572.125 339.951 572.545 340.39C572.974 340.819 573.511 341.034 574.155 341.034ZM582.405 342.14C581.191 342.14 580.263 341.809 579.619 341.146C578.984 340.474 578.667 339.545 578.667 338.36C578.667 337.567 578.816 336.89 579.115 336.33C579.413 335.77 579.824 335.341 580.347 335.042C580.869 334.743 581.457 334.594 582.111 334.594C583.221 334.594 584.038 334.963 584.561 335.7C585.083 336.428 585.251 337.427 585.065 338.696H579.941C580.043 340.255 580.902 341.034 582.517 341.034C583.403 341.034 584.22 340.782 584.967 340.278V341.384C584.631 341.617 584.239 341.804 583.791 341.944C583.343 342.075 582.881 342.14 582.405 342.14ZM582.083 335.686C581.551 335.686 581.093 335.849 580.711 336.176C580.328 336.503 580.085 336.997 579.983 337.66H583.889C583.917 337.035 583.772 336.549 583.455 336.204C583.137 335.859 582.68 335.686 582.083 335.686ZM592.654 342H591.156L588.594 338.906H587.95V342H586.718V334.734H587.95V337.856H588.65L591.198 334.734H592.598L589.616 338.318L592.654 342ZM593.362 334.734H599.2V335.784H596.876V342H595.644V335.784H593.362V334.734ZM604.741 337.352V336.162H606.085C606.608 336.162 607.032 336.022 607.359 335.742C607.695 335.453 607.863 335.047 607.863 334.524C607.863 334.048 607.709 333.675 607.401 333.404C607.093 333.124 606.65 332.984 606.071 332.984C605.586 332.984 605.128 333.073 604.699 333.25C604.279 333.427 603.84 333.712 603.383 334.104V332.732C604.13 332.125 605.03 331.822 606.085 331.822C607.046 331.822 607.798 332.065 608.339 332.55C608.89 333.035 609.165 333.67 609.165 334.454C609.165 335.089 608.988 335.593 608.633 335.966C608.288 336.339 607.872 336.587 607.387 336.708C607.779 336.764 608.138 336.899 608.465 337.114C608.801 337.319 609.072 337.59 609.277 337.926C609.482 338.262 609.585 338.654 609.585 339.102C609.585 339.718 609.431 340.255 609.123 340.712C608.815 341.169 608.39 341.524 607.849 341.776C607.317 342.019 606.696 342.14 605.987 342.14C604.755 342.14 603.803 341.855 603.131 341.286V339.886C603.486 340.231 603.915 340.502 604.419 340.698C604.923 340.894 605.45 340.992 606.001 340.992C606.692 340.992 607.233 340.829 607.625 340.502C608.026 340.166 608.227 339.709 608.227 339.13C608.227 338.57 608.045 338.136 607.681 337.828C607.326 337.511 606.776 337.352 606.029 337.352H604.741Z" fill="black"/>
<rect x="321" y="354" width="120" height="50" rx="10" fill="#E3EBFF"/>
<path d="M330.428 372.962H337.974V383H336.644V374.166H331.744V383H330.428V372.962ZM340.145 375.734H341.223L341.349 377.148C341.582 376.681 341.904 376.308 342.315 376.028C342.735 375.739 343.248 375.594 343.855 375.594C344.424 375.594 344.947 375.734 345.423 376.014C345.908 376.285 346.3 376.7 346.599 377.26C346.897 377.811 347.047 378.511 347.047 379.36C347.047 380.209 346.893 380.914 346.585 381.474C346.286 382.034 345.889 382.454 345.395 382.734C344.909 383.005 344.377 383.14 343.799 383.14C343.248 383.14 342.767 383.009 342.357 382.748C341.946 382.487 341.619 382.127 341.377 381.67V385.478H340.145V375.734ZM345.773 379.36C345.773 378.483 345.572 377.82 345.171 377.372C344.769 376.915 344.251 376.686 343.617 376.686C342.982 376.686 342.445 376.91 342.007 377.358C341.577 377.797 341.363 378.464 341.363 379.36C341.363 380.265 341.577 380.937 342.007 381.376C342.445 381.815 342.982 382.034 343.617 382.034C344.251 382.034 344.769 381.81 345.171 381.362C345.572 380.914 345.773 380.247 345.773 379.36ZM351.521 383.14C350.859 383.14 350.261 382.995 349.729 382.706C349.207 382.407 348.791 381.978 348.483 381.418C348.175 380.849 348.021 380.163 348.021 379.36C348.021 378.557 348.175 377.876 348.483 377.316C348.791 376.756 349.207 376.331 349.729 376.042C350.261 375.743 350.859 375.594 351.521 375.594C352.193 375.594 352.795 375.743 353.327 376.042C353.859 376.331 354.279 376.756 354.587 377.316C354.895 377.876 355.049 378.557 355.049 379.36C355.049 380.163 354.895 380.849 354.587 381.418C354.279 381.978 353.859 382.407 353.327 382.706C352.795 382.995 352.193 383.14 351.521 383.14ZM351.521 382.034C352.175 382.034 352.716 381.819 353.145 381.39C353.575 380.951 353.789 380.275 353.789 379.36C353.789 378.445 353.575 377.773 353.145 377.344C352.716 376.905 352.175 376.686 351.521 376.686C350.877 376.686 350.341 376.905 349.911 377.344C349.491 377.773 349.281 378.445 349.281 379.36C349.281 380.275 349.491 380.951 349.911 381.39C350.341 381.819 350.877 382.034 351.521 382.034ZM359.687 383.14C358.558 383.14 357.666 382.809 357.013 382.146C356.36 381.474 356.033 380.545 356.033 379.36C356.033 378.175 356.364 377.251 357.027 376.588C357.69 375.925 358.595 375.594 359.743 375.594C360.182 375.594 360.592 375.645 360.975 375.748C361.358 375.841 361.666 375.981 361.899 376.168V377.274C361.264 376.882 360.55 376.686 359.757 376.686C358.917 376.686 358.296 376.91 357.895 377.358C357.494 377.797 357.293 378.464 357.293 379.36C357.293 380.256 357.484 380.928 357.867 381.376C358.259 381.815 358.866 382.034 359.687 382.034C360.48 382.034 361.218 381.843 361.899 381.46V382.566C361.292 382.949 360.555 383.14 359.687 383.14ZM362.963 375.734H368.801V376.784H366.477V383H365.245V376.784H362.963V375.734ZM370.223 375.734H371.301L371.427 377.148C371.66 376.681 371.982 376.308 372.393 376.028C372.813 375.739 373.326 375.594 373.933 375.594C374.502 375.594 375.025 375.734 375.501 376.014C375.986 376.285 376.378 376.7 376.677 377.26C376.976 377.811 377.125 378.511 377.125 379.36C377.125 380.209 376.971 380.914 376.663 381.474C376.364 382.034 375.968 382.454 375.473 382.734C374.988 383.005 374.456 383.14 373.877 383.14C373.326 383.14 372.846 383.009 372.435 382.748C372.024 382.487 371.698 382.127 371.455 381.67V385.478H370.223V375.734ZM375.851 379.36C375.851 378.483 375.65 377.82 375.249 377.372C374.848 376.915 374.33 376.686 373.695 376.686C373.06 376.686 372.524 376.91 372.085 377.358C371.656 377.797 371.441 378.464 371.441 379.36C371.441 380.265 371.656 380.937 372.085 381.376C372.524 381.815 373.06 382.034 373.695 382.034C374.33 382.034 374.848 381.81 375.249 381.362C375.65 380.914 375.851 380.247 375.851 379.36ZM381.013 376.686C380.238 376.686 379.454 376.924 378.661 377.4V376.294C379.006 376.079 379.403 375.911 379.851 375.79C380.308 375.659 380.752 375.594 381.181 375.594C382.096 375.594 382.791 375.785 383.267 376.168C383.743 376.551 383.981 377.134 383.981 377.918V381.824C383.981 381.983 383.986 382.188 383.995 382.44C384.014 382.683 384.032 382.869 384.051 383H382.931C382.903 382.869 382.875 382.687 382.847 382.454C382.828 382.211 382.819 382.001 382.819 381.824L382.805 381.614C382.693 381.838 382.539 382.071 382.343 382.314C382.147 382.547 381.886 382.743 381.559 382.902C381.242 383.061 380.845 383.14 380.369 383.14C379.716 383.14 379.188 382.953 378.787 382.58C378.386 382.207 378.185 381.679 378.185 380.998C378.185 380.205 378.465 379.621 379.025 379.248C379.585 378.875 380.374 378.688 381.391 378.688H382.749V378.086C382.749 377.582 382.618 377.223 382.357 377.008C382.096 376.793 381.648 376.686 381.013 376.686ZM382.749 380.2V379.668H381.517C380.78 379.668 380.243 379.775 379.907 379.99C379.58 380.205 379.417 380.517 379.417 380.928C379.417 381.255 379.515 381.521 379.711 381.726C379.916 381.931 380.224 382.034 380.635 382.034C381.018 382.034 381.344 381.959 381.615 381.81C381.886 381.651 382.105 381.465 382.273 381.25C382.441 381.026 382.562 380.816 382.637 380.62C382.712 380.424 382.749 380.284 382.749 380.2ZM387.15 375.734V378.73H390.664V375.734H391.896V383H390.664V379.78H387.15V383H385.918V375.734H387.15ZM397.052 383.14C395.923 383.14 395.032 382.809 394.378 382.146C393.725 381.474 393.398 380.545 393.398 379.36C393.398 378.175 393.73 377.251 394.392 376.588C395.055 375.925 395.96 375.594 397.108 375.594C397.547 375.594 397.958 375.645 398.34 375.748C398.723 375.841 399.031 375.981 399.264 376.168V377.274C398.63 376.882 397.916 376.686 397.122 376.686C396.282 376.686 395.662 376.91 395.26 377.358C394.859 377.797 394.658 378.464 394.658 379.36C394.658 380.256 394.85 380.928 395.232 381.376C395.624 381.815 396.231 382.034 397.052 382.034C397.846 382.034 398.583 381.843 399.264 381.46V382.566C398.658 382.949 397.92 383.14 397.052 383.14ZM400.328 375.734H406.166V376.784H403.842V383H402.61V376.784H400.328V375.734ZM410.416 383H407.588V375.734H410.444C411.312 375.734 411.97 375.888 412.418 376.196C412.875 376.495 413.104 376.966 413.104 377.61C413.104 378.03 412.992 378.371 412.768 378.632C412.553 378.893 412.245 379.08 411.844 379.192C412.88 379.36 413.398 379.934 413.398 380.914C413.398 381.409 413.267 381.81 413.006 382.118C412.754 382.426 412.404 382.65 411.956 382.79C411.508 382.93 410.995 383 410.416 383ZM410.43 376.784H408.82V378.758H410.332C410.799 378.758 411.172 378.674 411.452 378.506C411.741 378.338 411.886 378.095 411.886 377.778C411.886 377.395 411.76 377.134 411.508 376.994C411.256 376.854 410.897 376.784 410.43 376.784ZM410.402 379.738H408.82V381.95H410.402C410.925 381.95 411.345 381.875 411.662 381.726C411.979 381.567 412.138 381.283 412.138 380.872C412.138 380.461 411.993 380.172 411.704 380.004C411.415 379.827 410.981 379.738 410.402 379.738ZM418.226 383.14C417.564 383.14 416.966 382.995 416.434 382.706C415.912 382.407 415.496 381.978 415.188 381.418C414.88 380.849 414.726 380.163 414.726 379.36C414.726 378.557 414.88 377.876 415.188 377.316C415.496 376.756 415.912 376.331 416.434 376.042C416.966 375.743 417.564 375.594 418.226 375.594C418.898 375.594 419.5 375.743 420.032 376.042C420.564 376.331 420.984 376.756 421.292 377.316C421.6 377.876 421.754 378.557 421.754 379.36C421.754 380.163 421.6 380.849 421.292 381.418C420.984 381.978 420.564 382.407 420.032 382.706C419.5 382.995 418.898 383.14 418.226 383.14ZM418.226 382.034C418.88 382.034 419.421 381.819 419.85 381.39C420.28 380.951 420.494 380.275 420.494 379.36C420.494 378.445 420.28 377.773 419.85 377.344C419.421 376.905 418.88 376.686 418.226 376.686C417.582 376.686 417.046 376.905 416.616 377.344C416.196 377.773 415.986 378.445 415.986 379.36C415.986 380.275 416.196 380.951 416.616 381.39C417.046 381.819 417.582 382.034 418.226 382.034ZM432.135 383H425.737V381.67C426.735 380.867 427.552 380.181 428.187 379.612C428.831 379.043 429.33 378.548 429.685 378.128C430.049 377.699 430.301 377.302 430.441 376.938C430.59 376.574 430.665 376.205 430.665 375.832C430.665 375.253 430.492 374.801 430.147 374.474C429.801 374.147 429.325 373.984 428.719 373.984C427.748 373.984 426.843 374.446 426.003 375.37V373.956C426.777 373.2 427.697 372.822 428.761 372.822C429.769 372.822 430.562 373.083 431.141 373.606C431.729 374.119 432.023 374.819 432.023 375.706C432.023 376.163 431.948 376.602 431.799 377.022C431.659 377.433 431.407 377.867 431.043 378.324C430.688 378.772 430.198 379.276 429.573 379.836C428.947 380.396 428.154 381.049 427.193 381.796H432.135V383Z" fill="black"/>
<rect x="521" y="396" width="120" height="50" rx="10" fill="#E3EBFF"/>
<path d="M553.062 415.962H560.608V426H559.278V417.166H554.378V426H553.062V415.962ZM562.779 418.734H563.857L563.983 420.148C564.216 419.681 564.538 419.308 564.949 419.028C565.369 418.739 565.882 418.594 566.489 418.594C567.058 418.594 567.581 418.734 568.057 419.014C568.542 419.285 568.934 419.7 569.233 420.26C569.531 420.811 569.681 421.511 569.681 422.36C569.681 423.209 569.527 423.914 569.219 424.474C568.92 425.034 568.523 425.454 568.029 425.734C567.543 426.005 567.011 426.14 566.433 426.14C565.882 426.14 565.401 426.009 564.991 425.748C564.58 425.487 564.253 425.127 564.011 424.67V428.478H562.779V418.734ZM568.407 422.36C568.407 421.483 568.206 420.82 567.805 420.372C567.403 419.915 566.885 419.686 566.251 419.686C565.616 419.686 565.079 419.91 564.641 420.358C564.211 420.797 563.997 421.464 563.997 422.36C563.997 423.265 564.211 423.937 564.641 424.376C565.079 424.815 565.616 425.034 566.251 425.034C566.885 425.034 567.403 424.81 567.805 424.362C568.206 423.914 568.407 423.247 568.407 422.36ZM574.155 426.14C573.492 426.14 572.895 425.995 572.363 425.706C571.84 425.407 571.425 424.978 571.117 424.418C570.809 423.849 570.655 423.163 570.655 422.36C570.655 421.557 570.809 420.876 571.117 420.316C571.425 419.756 571.84 419.331 572.363 419.042C572.895 418.743 573.492 418.594 574.155 418.594C574.827 418.594 575.429 418.743 575.961 419.042C576.493 419.331 576.913 419.756 577.221 420.316C577.529 420.876 577.683 421.557 577.683 422.36C577.683 423.163 577.529 423.849 577.221 424.418C576.913 424.978 576.493 425.407 575.961 425.706C575.429 425.995 574.827 426.14 574.155 426.14ZM574.155 425.034C574.808 425.034 575.35 424.819 575.779 424.39C576.208 423.951 576.423 423.275 576.423 422.36C576.423 421.445 576.208 420.773 575.779 420.344C575.35 419.905 574.808 419.686 574.155 419.686C573.511 419.686 572.974 419.905 572.545 420.344C572.125 420.773 571.915 421.445 571.915 422.36C571.915 423.275 572.125 423.951 572.545 424.39C572.974 424.819 573.511 425.034 574.155 425.034ZM582.405 426.14C581.191 426.14 580.263 425.809 579.619 425.146C578.984 424.474 578.667 423.545 578.667 422.36C578.667 421.567 578.816 420.89 579.115 420.33C579.413 419.77 579.824 419.341 580.347 419.042C580.869 418.743 581.457 418.594 582.111 418.594C583.221 418.594 584.038 418.963 584.561 419.7C585.083 420.428 585.251 421.427 585.065 422.696H579.941C580.043 424.255 580.902 425.034 582.517 425.034C583.403 425.034 584.22 424.782 584.967 424.278V425.384C584.631 425.617 584.239 425.804 583.791 425.944C583.343 426.075 582.881 426.14 582.405 426.14ZM582.083 419.686C581.551 419.686 581.093 419.849 580.711 420.176C580.328 420.503 580.085 420.997 579.983 421.66H583.889C583.917 421.035 583.772 420.549 583.455 420.204C583.137 419.859 582.68 419.686 582.083 419.686ZM592.654 426H591.156L588.594 422.906H587.95V426H586.718V418.734H587.95V421.856H588.65L591.198 418.734H592.598L589.616 422.318L592.654 426ZM593.362 418.734H599.2V419.784H596.876V426H595.644V419.784H593.362V418.734ZM608.367 426H607.135V423.62H602.795V422.752L606.715 415.962H608.367V422.556H609.725V423.62H608.367V426ZM604.069 422.556H607.135V417.334L604.069 422.556Z" fill="black"/>
<rect x="321" y="480" width="120" height="50" rx="10" fill="#E3EBFF"/>
<path d="M331.57 499.962H339.116V510H337.786V501.166H332.886V510H331.57V499.962ZM344.268 510.14C343.606 510.14 343.008 509.995 342.476 509.706C341.954 509.407 341.538 508.978 341.23 508.418C340.922 507.849 340.768 507.163 340.768 506.36C340.768 505.557 340.922 504.876 341.23 504.316C341.538 503.756 341.954 503.331 342.476 503.042C343.008 502.743 343.606 502.594 344.268 502.594C344.94 502.594 345.542 502.743 346.074 503.042C346.606 503.331 347.026 503.756 347.334 504.316C347.642 504.876 347.796 505.557 347.796 506.36C347.796 507.163 347.642 507.849 347.334 508.418C347.026 508.978 346.606 509.407 346.074 509.706C345.542 509.995 344.94 510.14 344.268 510.14ZM344.268 509.034C344.922 509.034 345.463 508.819 345.892 508.39C346.322 507.951 346.536 507.275 346.536 506.36C346.536 505.445 346.322 504.773 345.892 504.344C345.463 503.905 344.922 503.686 344.268 503.686C343.624 503.686 343.088 503.905 342.658 504.344C342.238 504.773 342.028 505.445 342.028 506.36C342.028 507.275 342.238 507.951 342.658 508.39C343.088 508.819 343.624 509.034 344.268 509.034ZM349.398 512.072H348.292V508.95H348.978C349.276 508.651 349.486 508.231 349.608 507.69C349.738 507.149 349.818 506.472 349.846 505.66C349.874 504.839 349.888 503.863 349.888 502.734H355.138V508.95H356.23V512.072H355.152L354.998 510H349.524L349.398 512.072ZM353.906 503.784H351.036C351.026 505.109 350.98 506.183 350.896 507.004C350.821 507.816 350.63 508.465 350.322 508.95H353.906V503.784ZM363.451 510H361.953L359.391 506.906H358.747V510H357.515V502.734H358.747V505.856H359.447L361.995 502.734H363.395L360.413 506.318L363.451 510ZM364.159 508.796C364.719 508.88 365.102 508.53 365.307 507.746C365.382 507.466 365.443 507.116 365.489 506.696C365.536 506.267 365.569 505.735 365.587 505.1C365.606 504.456 365.615 503.667 365.615 502.734H370.641V510H369.395V503.784H366.777C366.768 504.895 366.735 505.786 366.679 506.458C366.633 507.121 366.553 507.676 366.441 508.124C366.264 508.824 365.993 509.323 365.629 509.622C365.265 509.921 364.775 510.051 364.159 510.014V508.796ZM378.502 510.14C377.904 510.14 377.363 510.009 376.878 509.748C376.392 509.487 375.996 509.109 375.688 508.614C375.389 508.11 375.212 507.499 375.156 506.78H373.882V510H372.65V502.734H373.882V505.73H375.184C375.258 505.058 375.445 504.489 375.744 504.022C376.052 503.555 376.444 503.201 376.92 502.958C377.396 502.715 377.923 502.594 378.502 502.594C379.146 502.594 379.724 502.743 380.238 503.042C380.751 503.331 381.152 503.756 381.442 504.316C381.74 504.876 381.89 505.557 381.89 506.36C381.89 507.163 381.74 507.849 381.442 508.418C381.152 508.978 380.751 509.407 380.238 509.706C379.724 509.995 379.146 510.14 378.502 510.14ZM378.502 509.034C379.108 509.034 379.612 508.819 380.014 508.39C380.415 507.951 380.616 507.275 380.616 506.36C380.616 505.445 380.415 504.773 380.014 504.344C379.612 503.905 379.108 503.686 378.502 503.686C377.904 503.686 377.405 503.905 377.004 504.344C376.602 504.773 376.402 505.445 376.402 506.36C376.402 507.275 376.602 507.951 377.004 508.39C377.405 508.819 377.904 509.034 378.502 509.034ZM385.781 506.402C386.098 506.402 386.411 506.355 386.719 506.262C387.036 506.169 387.321 506.024 387.573 505.828V502.734H388.805V510H387.573V506.808C387.05 507.219 386.383 507.424 385.571 507.424C384.75 507.424 384.12 507.219 383.681 506.808C383.252 506.397 383.037 505.749 383.037 504.862V502.734H384.283V504.876C384.283 505.445 384.414 505.842 384.675 506.066C384.936 506.29 385.305 506.402 385.781 506.402ZM394.04 510.14C392.826 510.14 391.898 509.809 391.254 509.146C390.619 508.474 390.302 507.545 390.302 506.36C390.302 505.567 390.451 504.89 390.75 504.33C391.048 503.77 391.459 503.341 391.982 503.042C392.504 502.743 393.092 502.594 393.746 502.594C394.856 502.594 395.673 502.963 396.196 503.7C396.718 504.428 396.886 505.427 396.7 506.696H391.576C391.678 508.255 392.537 509.034 394.152 509.034C395.038 509.034 395.855 508.782 396.602 508.278V509.384C396.266 509.617 395.874 509.804 395.426 509.944C394.978 510.075 394.516 510.14 394.04 510.14ZM393.718 503.686C393.186 503.686 392.728 503.849 392.346 504.176C391.963 504.503 391.72 504.997 391.618 505.66H395.524C395.552 505.035 395.407 504.549 395.09 504.204C394.772 503.859 394.315 503.686 393.718 503.686ZM399.585 502.734V505.73H403.099V502.734H404.331V510H403.099V506.78H399.585V510H398.353V502.734H399.585ZM407.583 502.734V508.292L411.321 502.734H412.567V510H411.335V504.456L407.611 510H406.351V502.734H407.583ZM417.801 510.14C416.588 510.14 415.659 509.809 415.015 509.146C414.381 508.474 414.063 507.545 414.063 506.36C414.063 505.567 414.213 504.89 414.511 504.33C414.81 503.77 415.221 503.341 415.743 503.042C416.266 502.743 416.854 502.594 417.507 502.594C418.618 502.594 419.435 502.963 419.957 503.7C420.48 504.428 420.648 505.427 420.461 506.696H415.337C415.44 508.255 416.299 509.034 417.913 509.034C418.8 509.034 419.617 508.782 420.363 508.278V509.384C420.027 509.617 419.635 509.804 419.187 509.944C418.739 510.075 418.277 510.14 417.801 510.14ZM417.479 503.686C416.947 503.686 416.49 503.849 416.107 504.176C415.725 504.503 415.482 504.997 415.379 505.66H419.285C419.313 505.035 419.169 504.549 418.851 504.204C418.534 503.859 418.077 503.686 417.479 503.686ZM426.233 505.352V504.162H427.577C428.1 504.162 428.525 504.022 428.851 503.742C429.187 503.453 429.355 503.047 429.355 502.524C429.355 502.048 429.201 501.675 428.893 501.404C428.585 501.124 428.142 500.984 427.563 500.984C427.078 500.984 426.621 501.073 426.191 501.25C425.771 501.427 425.333 501.712 424.875 502.104V500.732C425.622 500.125 426.523 499.822 427.577 499.822C428.539 499.822 429.29 500.065 429.831 500.55C430.382 501.035 430.657 501.67 430.657 502.454C430.657 503.089 430.48 503.593 430.125 503.966C429.78 504.339 429.365 504.587 428.879 504.708C429.271 504.764 429.631 504.899 429.957 505.114C430.293 505.319 430.564 505.59 430.769 505.926C430.975 506.262 431.077 506.654 431.077 507.102C431.077 507.718 430.923 508.255 430.615 508.712C430.307 509.169 429.883 509.524 429.341 509.776C428.809 510.019 428.189 510.14 427.479 510.14C426.247 510.14 425.295 509.855 424.623 509.286V507.886C424.978 508.231 425.407 508.502 425.911 508.698C426.415 508.894 426.943 508.992 427.493 508.992C428.184 508.992 428.725 508.829 429.117 508.502C429.519 508.166 429.719 507.709 429.719 507.13C429.719 506.57 429.537 506.136 429.173 505.828C428.819 505.511 428.268 505.352 427.521 505.352H426.233Z" fill="black"/>
<rect x="521" y="480" width="120" height="50" rx="10" fill="#E3EBFF"/>
<path d="M531.57 499.962H539.116V510H537.786V501.166H532.886V510H531.57V499.962ZM544.268 510.14C543.606 510.14 543.008 509.995 542.476 509.706C541.954 509.407 541.538 508.978 541.23 508.418C540.922 507.849 540.768 507.163 540.768 506.36C540.768 505.557 540.922 504.876 541.23 504.316C541.538 503.756 541.954 503.331 542.476 503.042C543.008 502.743 543.606 502.594 544.268 502.594C544.94 502.594 545.542 502.743 546.074 503.042C546.606 503.331 547.026 503.756 547.334 504.316C547.642 504.876 547.796 505.557 547.796 506.36C547.796 507.163 547.642 507.849 547.334 508.418C547.026 508.978 546.606 509.407 546.074 509.706C545.542 509.995 544.94 510.14 544.268 510.14ZM544.268 509.034C544.922 509.034 545.463 508.819 545.892 508.39C546.322 507.951 546.536 507.275 546.536 506.36C546.536 505.445 546.322 504.773 545.892 504.344C545.463 503.905 544.922 503.686 544.268 503.686C543.624 503.686 543.088 503.905 542.658 504.344C542.238 504.773 542.028 505.445 542.028 506.36C542.028 507.275 542.238 507.951 542.658 508.39C543.088 508.819 543.624 509.034 544.268 509.034ZM549.398 512.072H548.292V508.95H548.978C549.276 508.651 549.486 508.231 549.608 507.69C549.738 507.149 549.818 506.472 549.846 505.66C549.874 504.839 549.888 503.863 549.888 502.734H555.138V508.95H556.23V512.072H555.152L554.998 510H549.524L549.398 512.072ZM553.906 503.784H551.036C551.026 505.109 550.98 506.183 550.896 507.004C550.821 507.816 550.63 508.465 550.322 508.95H553.906V503.784ZM563.451 510H561.953L559.391 506.906H558.747V510H557.515V502.734H558.747V505.856H559.447L561.995 502.734H563.395L560.413 506.318L563.451 510ZM564.159 508.796C564.719 508.88 565.102 508.53 565.307 507.746C565.382 507.466 565.443 507.116 565.489 506.696C565.536 506.267 565.569 505.735 565.587 505.1C565.606 504.456 565.615 503.667 565.615 502.734H570.641V510H569.395V503.784H566.777C566.768 504.895 566.735 505.786 566.679 506.458C566.633 507.121 566.553 507.676 566.441 508.124C566.264 508.824 565.993 509.323 565.629 509.622C565.265 509.921 564.775 510.051 564.159 510.014V508.796ZM578.502 510.14C577.904 510.14 577.363 510.009 576.878 509.748C576.392 509.487 575.996 509.109 575.688 508.614C575.389 508.11 575.212 507.499 575.156 506.78H573.882V510H572.65V502.734H573.882V505.73H575.184C575.258 505.058 575.445 504.489 575.744 504.022C576.052 503.555 576.444 503.201 576.92 502.958C577.396 502.715 577.923 502.594 578.502 502.594C579.146 502.594 579.724 502.743 580.238 503.042C580.751 503.331 581.152 503.756 581.442 504.316C581.74 504.876 581.89 505.557 581.89 506.36C581.89 507.163 581.74 507.849 581.442 508.418C581.152 508.978 580.751 509.407 580.238 509.706C579.724 509.995 579.146 510.14 578.502 510.14ZM578.502 509.034C579.108 509.034 579.612 508.819 580.014 508.39C580.415 507.951 580.616 507.275 580.616 506.36C580.616 505.445 580.415 504.773 580.014 504.344C579.612 503.905 579.108 503.686 578.502 503.686C577.904 503.686 577.405 503.905 577.004 504.344C576.602 504.773 576.402 505.445 576.402 506.36C576.402 507.275 576.602 507.951 577.004 508.39C577.405 508.819 577.904 509.034 578.502 509.034ZM585.781 506.402C586.098 506.402 586.411 506.355 586.719 506.262C587.036 506.169 587.321 506.024 587.573 505.828V502.734H588.805V510H587.573V506.808C587.05 507.219 586.383 507.424 585.571 507.424C584.75 507.424 584.12 507.219 583.681 506.808C583.252 506.397 583.037 505.749 583.037 504.862V502.734H584.283V504.876C584.283 505.445 584.414 505.842 584.675 506.066C584.936 506.29 585.305 506.402 585.781 506.402ZM594.04 510.14C592.826 510.14 591.898 509.809 591.254 509.146C590.619 508.474 590.302 507.545 590.302 506.36C590.302 505.567 590.451 504.89 590.75 504.33C591.048 503.77 591.459 503.341 591.982 503.042C592.504 502.743 593.092 502.594 593.746 502.594C594.856 502.594 595.673 502.963 596.196 503.7C596.718 504.428 596.886 505.427 596.7 506.696H591.576C591.678 508.255 592.537 509.034 594.152 509.034C595.038 509.034 595.855 508.782 596.602 508.278V509.384C596.266 509.617 595.874 509.804 595.426 509.944C594.978 510.075 594.516 510.14 594.04 510.14ZM593.718 503.686C593.186 503.686 592.728 503.849 592.346 504.176C591.963 504.503 591.72 504.997 591.618 505.66H595.524C595.552 505.035 595.407 504.549 595.09 504.204C594.772 503.859 594.315 503.686 593.718 503.686ZM599.585 502.734V505.73H603.099V502.734H604.331V510H603.099V506.78H599.585V510H598.353V502.734H599.585ZM607.583 502.734V508.292L611.321 502.734H612.567V510H611.335V504.456L607.611 510H606.351V502.734H607.583ZM617.801 510.14C616.588 510.14 615.659 509.809 615.015 509.146C614.381 508.474 614.063 507.545 614.063 506.36C614.063 505.567 614.213 504.89 614.511 504.33C614.81 503.77 615.221 503.341 615.743 503.042C616.266 502.743 616.854 502.594 617.507 502.594C618.618 502.594 619.435 502.963 619.957 503.7C620.48 504.428 620.648 505.427 620.461 506.696H615.337C615.44 508.255 616.299 509.034 617.913 509.034C618.8 509.034 619.617 508.782 620.363 508.278V509.384C620.027 509.617 619.635 509.804 619.187 509.944C618.739 510.075 618.277 510.14 617.801 510.14ZM617.479 503.686C616.947 503.686 616.49 503.849 616.107 504.176C615.725 504.503 615.482 504.997 615.379 505.66H619.285C619.313 505.035 619.169 504.549 618.851 504.204C618.534 503.859 618.077 503.686 617.479 503.686ZM629.859 510H628.627V507.62H624.287V506.752L628.207 499.962H629.859V506.556H631.217V507.62H629.859V510ZM625.561 506.556H628.627V501.334L625.561 506.556Z" fill="black"/>
<rect x="59" y="270" width="120" height="50" rx="10" fill="#E3EBFF"/>
<path d="M75.6908 300.14C74.7948 300.14 73.9828 299.939 73.2548 299.538C72.5268 299.137 71.9481 298.553 71.5188 297.788C71.0988 297.013 70.8888 296.066 70.8888 294.946C70.8888 293.826 71.0988 292.888 71.5188 292.132C71.9481 291.367 72.5268 290.793 73.2548 290.41C73.9828 290.027 74.7948 289.836 75.6908 289.836C76.6054 289.836 77.4221 290.032 78.1408 290.424C78.8688 290.807 79.4428 291.376 79.8628 292.132C80.2828 292.888 80.4928 293.831 80.4928 294.96C80.4928 296.071 80.2828 297.013 79.8628 297.788C79.4428 298.553 78.8688 299.137 78.1408 299.538C77.4221 299.939 76.6054 300.14 75.6908 300.14ZM75.6908 298.95C76.3348 298.95 76.9134 298.819 77.4268 298.558C77.9401 298.297 78.3414 297.877 78.6308 297.298C78.9294 296.71 79.0788 295.94 79.0788 294.988C79.0788 294.027 78.9294 293.257 78.6308 292.678C78.3414 292.099 77.9401 291.679 77.4268 291.418C76.9134 291.157 76.3348 291.026 75.6908 291.026C75.0468 291.026 74.4681 291.157 73.9548 291.418C73.4508 291.679 73.0494 292.099 72.7508 292.678C72.4521 293.257 72.3028 294.027 72.3028 294.988C72.3028 295.94 72.4521 296.71 72.7508 297.298C73.0494 297.877 73.4508 298.297 73.9548 298.558C74.4681 298.819 75.0468 298.95 75.6908 298.95ZM82.0822 292.734H83.1602L83.2862 294.148C83.5196 293.681 83.8416 293.308 84.2522 293.028C84.6722 292.739 85.1856 292.594 85.7922 292.594C86.3616 292.594 86.8842 292.734 87.3602 293.014C87.8456 293.285 88.2376 293.7 88.5362 294.26C88.8349 294.811 88.9842 295.511 88.9842 296.36C88.9842 297.209 88.8302 297.914 88.5222 298.474C88.2236 299.034 87.8269 299.454 87.3322 299.734C86.8469 300.005 86.3149 300.14 85.7362 300.14C85.1856 300.14 84.7049 300.009 84.2942 299.748C83.8836 299.487 83.5569 299.127 83.3142 298.67V302.478H82.0822V292.734ZM87.7102 296.36C87.7102 295.483 87.5096 294.82 87.1082 294.372C86.7069 293.915 86.1889 293.686 85.5542 293.686C84.9196 293.686 84.3829 293.91 83.9442 294.358C83.5149 294.797 83.3002 295.464 83.3002 296.36C83.3002 297.265 83.5149 297.937 83.9442 298.376C84.3829 298.815 84.9196 299.034 85.5542 299.034C86.1889 299.034 86.7069 298.81 87.1082 298.362C87.5096 297.914 87.7102 297.247 87.7102 296.36ZM90.4768 300V292.734H95.0968V293.784H91.7088V300H90.4768ZM98.847 293.686C98.0723 293.686 97.2883 293.924 96.495 294.4V293.294C96.8403 293.079 97.237 292.911 97.685 292.79C98.1423 292.659 98.5857 292.594 99.015 292.594C99.9297 292.594 100.625 292.785 101.101 293.168C101.577 293.551 101.815 294.134 101.815 294.918V298.824C101.815 298.983 101.82 299.188 101.829 299.44C101.848 299.683 101.866 299.869 101.885 300H100.765C100.737 299.869 100.709 299.687 100.681 299.454C100.662 299.211 100.653 299.001 100.653 298.824L100.639 298.614C100.527 298.838 100.373 299.071 100.177 299.314C99.981 299.547 99.7197 299.743 99.393 299.902C99.0757 300.061 98.679 300.14 98.203 300.14C97.5497 300.14 97.0223 299.953 96.621 299.58C96.2197 299.207 96.019 298.679 96.019 297.998C96.019 297.205 96.299 296.621 96.859 296.248C97.419 295.875 98.2077 295.688 99.225 295.688H100.583V295.086C100.583 294.582 100.452 294.223 100.191 294.008C99.9297 293.793 99.4817 293.686 98.847 293.686ZM100.583 297.2V296.668H99.351C98.6137 296.668 98.077 296.775 97.741 296.99C97.4143 297.205 97.251 297.517 97.251 297.928C97.251 298.255 97.349 298.521 97.545 298.726C97.7503 298.931 98.0583 299.034 98.469 299.034C98.8517 299.034 99.1783 298.959 99.449 298.81C99.7197 298.651 99.939 298.465 100.107 298.25C100.275 298.026 100.396 297.816 100.471 297.62C100.546 297.424 100.583 297.284 100.583 297.2ZM104.984 292.734V295.73H108.498V292.734H109.73V300H108.498V296.78H104.984V300H103.752V292.734H104.984ZM112.982 292.734V298.292L116.72 292.734H117.966V300H116.734V294.456L113.01 300H111.75V292.734H112.982ZM122.095 300.14C121.637 300.14 121.194 300.089 120.765 299.986C120.345 299.883 119.999 299.743 119.729 299.566V298.46C120.027 298.637 120.382 298.777 120.793 298.88C121.203 298.983 121.628 299.034 122.067 299.034C122.599 299.034 123.042 298.95 123.397 298.782C123.761 298.605 123.943 298.306 123.943 297.886C123.943 297.475 123.789 297.186 123.481 297.018C123.182 296.85 122.72 296.766 122.095 296.766H121.129V295.772H122.137C122.65 295.772 123.042 295.679 123.313 295.492C123.583 295.305 123.719 295.035 123.719 294.68C123.719 294.307 123.555 294.05 123.229 293.91C122.911 293.761 122.524 293.686 122.067 293.686C121.245 293.686 120.513 293.882 119.869 294.274V293.168C120.149 292.981 120.489 292.841 120.891 292.748C121.301 292.645 121.726 292.594 122.165 292.594C123.051 292.594 123.719 292.762 124.167 293.098C124.624 293.434 124.853 293.919 124.853 294.554C124.853 295.03 124.722 295.408 124.461 295.688C124.199 295.959 123.84 296.141 123.383 296.234C123.952 296.309 124.386 296.491 124.685 296.78C124.983 297.069 125.133 297.438 125.133 297.886C125.133 298.427 124.988 298.866 124.699 299.202C124.419 299.529 124.05 299.767 123.593 299.916C123.135 300.065 122.636 300.14 122.095 300.14ZM129.404 293.686C128.629 293.686 127.845 293.924 127.052 294.4V293.294C127.397 293.079 127.794 292.911 128.242 292.79C128.699 292.659 129.142 292.594 129.572 292.594C130.486 292.594 131.182 292.785 131.658 293.168C132.134 293.551 132.372 294.134 132.372 294.918V298.824C132.372 298.983 132.376 299.188 132.386 299.44C132.404 299.683 132.423 299.869 132.442 300H131.322C131.294 299.869 131.266 299.687 131.238 299.454C131.219 299.211 131.21 299.001 131.21 298.824L131.196 298.614C131.084 298.838 130.93 299.071 130.734 299.314C130.538 299.547 130.276 299.743 129.95 299.902C129.632 300.061 129.236 300.14 128.76 300.14C128.106 300.14 127.579 299.953 127.178 299.58C126.776 299.207 126.576 298.679 126.576 297.998C126.576 297.205 126.856 296.621 127.416 296.248C127.976 295.875 128.764 295.688 129.782 295.688H131.14V295.086C131.14 294.582 131.009 294.223 130.748 294.008C130.486 293.793 130.038 293.686 129.404 293.686ZM131.14 297.2V296.668H129.908C129.17 296.668 128.634 296.775 128.298 296.99C127.971 297.205 127.808 297.517 127.808 297.928C127.808 298.255 127.906 298.521 128.102 298.726C128.307 298.931 128.615 299.034 129.026 299.034C129.408 299.034 129.735 298.959 130.006 298.81C130.276 298.651 130.496 298.465 130.664 298.25C130.832 298.026 130.953 297.816 131.028 297.62C131.102 297.424 131.14 297.284 131.14 297.2ZM134.309 300V292.734H135.541V298.95H138.971V292.734H140.203V298.95H141.295V302.072H140.245L140.091 300H134.309ZM143.812 292.734V298.292L147.55 292.734H148.796V300H147.564V294.456L143.84 300H142.58V292.734H143.812ZM150.293 300L152.393 297.06C151.898 296.92 151.511 296.691 151.231 296.374C150.951 296.057 150.811 295.627 150.811 295.086C150.811 294.535 150.941 294.087 151.203 293.742C151.464 293.397 151.823 293.145 152.281 292.986C152.738 292.818 153.261 292.734 153.849 292.734H156.187V300H154.955V297.368H153.625L151.763 300H150.293ZM153.849 293.784C153.326 293.784 152.897 293.882 152.561 294.078C152.225 294.274 152.057 294.591 152.057 295.03C152.057 295.487 152.206 295.819 152.505 296.024C152.813 296.22 153.237 296.318 153.779 296.318H154.955V293.784H153.849ZM165.21 300H163.936V291.544L161.164 293.672V292.258L164.146 289.962H165.21V300Z" fill="black"/>
<path d="M581 110L581 119C581 123.418 577.418 127 573 127L389 127C384.582 127 381 130.582 381 135V150.5" stroke="#4E496B" stroke-width="2"/>
<path d="M521 253L489.494 253C485.076 253 481.494 249.418 481.494 245L481.494 219C481.494 214.582 477.912 211 473.494 211L449 211" stroke="#4E496B" stroke-width="2"/>
<path d="M441 211L451 216.774L451 205.226L441 211ZM482.494 203L482.494 177L480.494 177L480.494 203L482.494 203ZM489.494 170L521 170L521 168L489.494 168L489.494 170ZM473.494 210L450 210L450 212L473.494 212L473.494 210ZM482.494 177C482.494 173.134 485.628 170 489.494 170L489.494 168C484.523 168 480.494 172.029 480.494 177L482.494 177ZM480.494 203C480.494 206.866 477.36 210 473.494 210L473.494 212C478.464 212 482.494 207.971 482.494 203L480.494 203Z" fill="#4E496B"/>
<path d="M521 421L489.494 421C485.076 421 481.494 417.418 481.494 413L481.494 387C481.494 382.582 477.912 379 473.494 379L449 379" stroke="#4E496B" stroke-width="2"/>
<path d="M441 379L451 384.774L451 373.226L441 379ZM482.494 371L482.494 345L480.494 345L480.494 371L482.494 371ZM489.494 338L521 338L521 336L489.494 336L489.494 338ZM473.494 378L450 378L450 380L473.494 380L473.494 378ZM482.494 345C482.494 341.134 485.628 338 489.494 338L489.494 336C484.523 336 480.494 340.029 480.494 345L482.494 345ZM480.494 371C480.494 374.866 477.36 378 473.494 378L473.494 380C478.464 380 482.494 375.971 482.494 371L480.494 371Z" fill="#4E496B"/>
<path d="M321 379L258.767 379C254.349 379 250.767 375.418 250.767 371L250.767 304C250.767 299.582 247.185 296 242.767 296L193 296" stroke="#4E496B" stroke-width="2"/>
<path d="M179 296L189 301.773L189 290.226L179 296ZM251.877 288L251.877 219L249.877 219L249.877 288L251.877 288ZM258.877 212L321 212L321 210L258.877 210L258.877 212ZM242.877 295L188 295L188 297L242.877 297L242.877 295ZM251.877 219C251.877 215.134 255.011 212 258.877 212L258.877 210C253.906 210 249.877 214.029 249.877 219L251.877 219ZM249.877 288C249.877 291.866 246.743 295 242.877 295L242.877 297C247.847 297 251.877 292.971 251.877 288L249.877 288Z" fill="#4E496B"/>
<path d="M381 404L386.774 414L375.227 414L381 404ZM380 480L380 413L382 413L382 480L380 480Z" fill="#4E496B"/>
<path d="M581 480L581 471C581 466.582 577.418 463 573 463L389 463C384.582 463 381 459.418 381 455V439.5" stroke="#4E496B" stroke-width="2"/>
</svg>
