<svg xmlns="http://www.w3.org/2000/svg" width="350" height="520" fill="none" viewBox="0 0 350 520">
    <rect width="148" height="48" x="10" y="281" fill="#fff" stroke="#5282FF" stroke-width="2" rx="7"/>
    <path fill="#18123D" d="M52.286 302.772h1.14l1.896 5.664 1.884-5.664h1.056L56.126 309h-1.704l-2.136-6.228Zm7.495-.912c-.216 0-.388-.064-.516-.192a.692.692 0 0 1-.192-.492.675.675 0 0 1 .708-.696c.208 0 .372.068.492.204.12.136.18.3.18.492s-.06.356-.18.492c-.12.128-.284.192-.492.192Zm-.54.912h1.056V309h-1.056v-6.228Zm2.333 3.108c0-.728.128-1.328.384-1.8.256-.48.596-.836 1.02-1.068.432-.24.9-.36 1.404-.36.472 0 .88.1 1.224.3.344.192.62.468.828.828v-3.384h1.056V309h-.924l-.084-1.224a2.46 2.46 0 0 1-.816.984c-.344.24-.776.36-1.296.36-.496 0-.96-.116-1.392-.348-.424-.24-.764-.6-1.02-1.08-.256-.48-.384-1.084-.384-1.812Zm4.872 0c0-.776-.184-1.352-.552-1.728a1.838 1.838 0 0 0-1.368-.564c-.544 0-.992.196-1.344.588-.352.384-.528.952-.528 1.704 0 .76.176 1.332.528 1.716.352.384.8.576 1.344.576s1-.188 1.368-.564c.368-.376.552-.952.552-1.728Zm5.528 3.24c-1.04 0-1.836-.284-2.388-.852-.544-.576-.816-1.372-.816-2.388 0-.68.128-1.26.384-1.74s.608-.848 1.056-1.104a2.993 2.993 0 0 1 1.512-.384c.952 0 1.652.316 2.1.948.448.624.592 1.48.432 2.568h-4.392c.088 1.336.824 2.004 2.208 2.004.76 0 1.46-.216 2.1-.648v.948c-.288.2-.624.36-1.008.48-.384.112-.78.168-1.188.168Zm-.276-5.532c-.456 0-.848.14-1.176.42-.328.28-.536.704-.624 1.272h3.348c.024-.536-.1-.952-.372-1.248-.272-.296-.664-.444-1.176-.444Zm6.435 5.532c-.568 0-1.08-.124-1.536-.372a2.784 2.784 0 0 1-1.068-1.104c-.264-.488-.396-1.076-.396-1.764s.132-1.272.396-1.752.62-.844 1.068-1.092a3.083 3.083 0 0 1 1.536-.384c.576 0 1.092.128 1.548.384a2.68 2.68 0 0 1 1.08 1.092c.264.48.396 1.064.396 1.752s-.132 1.276-.396 1.764a2.76 2.76 0 0 1-1.08 1.104 3.187 3.187 0 0 1-1.548.372Zm0-.948c.56 0 1.024-.184 1.392-.552.368-.376.552-.956.552-1.74s-.184-1.36-.552-1.728c-.368-.376-.832-.564-1.392-.564-.552 0-1.012.188-1.38.564-.36.368-.54.944-.54 1.728s.18 1.364.54 1.74c.368.368.828.552 1.38.552Zm4.653.9a.789.789 0 0 1-.564-.216.759.759 0 0 1-.216-.54c0-.224.072-.408.216-.552a.789.789 0 0 1 .564-.216c.224 0 .408.072.552.216a.748.748 0 0 1 .216.552.759.759 0 0 1-.216.54.748.748 0 0 1-.552.216Zm4.82.048c-1.04 0-1.836-.284-2.388-.852-.544-.576-.816-1.372-.816-2.388 0-.68.128-1.26.384-1.74s.608-.848 1.056-1.104a2.993 2.993 0 0 1 1.512-.384c.952 0 1.652.316 2.1.948.448.624.592 1.48.432 2.568h-4.392c.088 1.336.824 2.004 2.208 2.004.76 0 1.46-.216 2.1-.648v.948c-.288.2-.624.36-1.008.48-.384.112-.78.168-1.188.168Zm-.276-5.532c-.456 0-.848.14-1.176.42-.328.28-.536.704-.624 1.272h3.348c.024-.536-.1-.952-.372-1.248-.272-.296-.664-.444-1.176-.444Zm3.436 2.292c0-.728.128-1.328.384-1.8.256-.48.596-.836 1.02-1.068.432-.24.9-.36 1.404-.36.472 0 .88.1 1.224.3.344.192.62.468.828.828v-3.384h1.056V309h-.924l-.084-1.224a2.46 2.46 0 0 1-.816.984c-.344.24-.776.36-1.296.36-.496 0-.96-.116-1.392-.348-.424-.24-.764-.6-1.02-1.08-.256-.48-.384-1.084-.384-1.812Zm4.872 0c0-.776-.184-1.352-.552-1.728a1.838 1.838 0 0 0-1.368-.564c-.544 0-.992.196-1.344.588-.352.384-.528.952-.528 1.704 0 .76.176 1.332.528 1.716.352.384.8.576 1.344.576s1-.188 1.368-.564c.368-.376.552-.952.552-1.728Zm3.307-4.02c-.216 0-.388-.064-.516-.192a.692.692 0 0 1-.192-.492.675.675 0 0 1 .708-.696c.208 0 .372.068.492.204.12.136.18.3.18.492s-.06.356-.18.492c-.12.128-.284.192-.492.192Zm-.54.912h1.056V309h-1.056v-6.228Zm2.273.9v-.9h.744v-1.308h1.056v1.308h1.812v.9h-1.812v3.744c0 .264.068.456.204.576.136.12.368.18.696.18.312 0 .596-.088.852-.264v.96a1.48 1.48 0 0 1-.504.18 2.767 2.767 0 0 1-.624.072c-.4 0-.724-.076-.972-.228a1.36 1.36 0 0 1-.54-.588 1.767 1.767 0 0 1-.168-.756v-3.876h-.744Zm7.338 5.448c-.568 0-1.08-.124-1.536-.372a2.784 2.784 0 0 1-1.068-1.104c-.264-.488-.396-1.076-.396-1.764s.132-1.272.396-1.752.62-.844 1.068-1.092a3.083 3.083 0 0 1 1.536-.384c.576 0 1.092.128 1.548.384a2.68 2.68 0 0 1 1.08 1.092c.264.48.396 1.064.396 1.752s-.132 1.276-.396 1.764a2.76 2.76 0 0 1-1.08 1.104 3.187 3.187 0 0 1-1.548.372Zm0-.948c.56 0 1.024-.184 1.392-.552.368-.376.552-.956.552-1.74s-.184-1.36-.552-1.728c-.368-.376-.832-.564-1.392-.564-.552 0-1.012.188-1.38.564-.36.368-.54.944-.54 1.728s.18 1.364.54 1.74c.368.368.828.552 1.38.552Zm7.395-4.344c-.496.04-.92.164-1.272.372a1.87 1.87 0 0 0-.756.84V309h-1.056v-6.228h.924l.108 1.356h.024c.2-.416.472-.752.816-1.008a2.553 2.553 0 0 1 1.212-.468v1.176Z"/>
    <rect width="148" height="48" x="10" y="191" fill="#fff" stroke="#5282FF" stroke-width="2" rx="7"/>
    <path fill="#18123D" d="M51.202 212.772h1.14l1.896 5.664 1.884-5.664h1.056L55.042 219h-1.704l-2.136-6.228Zm7.495-.912c-.216 0-.388-.064-.516-.192a.692.692 0 0 1-.192-.492.675.675 0 0 1 .708-.696c.208 0 .372.068.492.204.12.136.18.3.18.492s-.06.356-.18.492c-.12.128-.284.192-.492.192Zm-.54.912h1.056V219h-1.056v-6.228Zm2.333 3.108c0-.728.128-1.328.384-1.8.256-.48.596-.836 1.02-1.068.432-.24.9-.36 1.404-.36.472 0 .88.1 1.224.3.344.192.62.468.828.828v-3.384h1.056V219h-.924l-.084-1.224a2.46 2.46 0 0 1-.816.984c-.344.24-.776.36-1.296.36-.496 0-.96-.116-1.392-.348-.424-.24-.764-.6-1.02-1.08-.256-.48-.384-1.084-.384-1.812Zm4.872 0c0-.776-.184-1.352-.552-1.728a1.838 1.838 0 0 0-1.368-.564c-.544 0-.992.196-1.344.588-.352.384-.528.952-.528 1.704 0 .76.176 1.332.528 1.716.352.384.8.576 1.344.576s1-.188 1.368-.564c.368-.376.552-.952.552-1.728Zm5.528 3.24c-1.04 0-1.836-.284-2.388-.852-.544-.576-.816-1.372-.816-2.388 0-.68.128-1.26.384-1.74s.608-.848 1.056-1.104a2.993 2.993 0 0 1 1.512-.384c.952 0 1.652.316 2.1.948.448.624.592 1.48.432 2.568h-4.392c.088 1.336.824 2.004 2.208 2.004.76 0 1.46-.216 2.1-.648v.948c-.288.2-.624.36-1.008.48-.384.112-.78.168-1.188.168Zm-.276-5.532c-.456 0-.848.14-1.176.42-.328.28-.536.704-.624 1.272h3.348c.024-.536-.1-.952-.372-1.248-.272-.296-.664-.444-1.176-.444Zm6.435 5.532c-.568 0-1.08-.124-1.536-.372a2.784 2.784 0 0 1-1.068-1.104c-.264-.488-.396-1.076-.396-1.764s.132-1.272.396-1.752.62-.844 1.068-1.092a3.083 3.083 0 0 1 1.536-.384c.576 0 1.092.128 1.548.384a2.68 2.68 0 0 1 1.08 1.092c.264.48.396 1.064.396 1.752s-.132 1.276-.396 1.764a2.76 2.76 0 0 1-1.08 1.104 3.187 3.187 0 0 1-1.548.372Zm0-.948c.56 0 1.024-.184 1.392-.552.368-.376.552-.956.552-1.74s-.184-1.36-.552-1.728c-.368-.376-.832-.564-1.392-.564-.552 0-1.012.188-1.38.564-.36.368-.54.944-.54 1.728s.18 1.364.54 1.74c.368.368.828.552 1.38.552Zm4.653.9a.789.789 0 0 1-.564-.216.759.759 0 0 1-.216-.54c0-.224.072-.408.216-.552a.789.789 0 0 1 .564-.216c.224 0 .408.072.552.216a.748.748 0 0 1 .216.552.759.759 0 0 1-.216.54.748.748 0 0 1-.552.216Zm4.407-5.484c-.664 0-1.336.204-2.016.612v-.948a3.804 3.804 0 0 1 1.02-.432 4.142 4.142 0 0 1 1.14-.168c.784 0 1.38.164 1.788.492.408.328.612.828.612 1.5v3.348c0 .136.004.312.012.528.016.208.032.368.048.48h-.96a5.482 5.482 0 0 1-.072-.468 7.173 7.173 0 0 1-.024-.54l-.012-.18a3.359 3.359 0 0 1-.396.6c-.168.2-.392.368-.672.504-.272.136-.612.204-1.02.204-.56 0-1.012-.16-1.356-.48-.344-.32-.516-.772-.516-1.356 0-.68.24-1.18.72-1.5.48-.32 1.156-.48 2.028-.48h1.164v-.516c0-.432-.112-.74-.336-.924-.224-.184-.608-.276-1.152-.276Zm1.488 3.012v-.456H86.54c-.632 0-1.092.092-1.38.276-.28.184-.42.452-.42.804 0 .28.084.508.252.684.176.176.44.264.792.264.328 0 .608-.064.84-.192.232-.136.42-.296.564-.48.144-.192.248-.372.312-.54.064-.168.096-.288.096-.36Zm2.272-.72c0-.728.128-1.328.384-1.8.256-.48.596-.836 1.02-1.068.432-.24.9-.36 1.404-.36.472 0 .88.1 1.224.3.344.192.62.468.828.828v-3.384h1.056V219h-.924l-.084-1.224a2.46 2.46 0 0 1-.816.984c-.344.24-.776.36-1.296.36-.496 0-.96-.116-1.392-.348-.424-.24-.764-.6-1.02-1.08-.256-.48-.384-1.084-.384-1.812Zm4.872 0c0-.776-.184-1.352-.552-1.728a1.838 1.838 0 0 0-1.368-.564c-.544 0-.992.196-1.344.588-.352.384-.528.952-.528 1.704 0 .76.176 1.332.528 1.716.352.384.8.576 1.344.576s1-.188 1.368-.564c.368-.376.552-.952.552-1.728Zm6.704-1.236c0-.4-.1-.676-.3-.828-.2-.152-.472-.228-.816-.228-.448 0-.804.112-1.069.336-.264.216-.496.5-.696.852V219H97.51v-6.228h.924l.107 1.116h.024a2.21 2.21 0 0 1 .757-.876c.344-.24.784-.36 1.32-.36.472 0 .864.116 1.176.348.312.224.52.564.624 1.02.176-.424.444-.756.804-.996.368-.248.812-.372 1.332-.372.568 0 1.02.164 1.356.492.344.328.516.824.516 1.488V219h-1.068v-4.236c0-.408-.1-.704-.3-.888-.2-.192-.472-.288-.816-.288-.456 0-.816.132-1.08.396a3.78 3.78 0 0 0-.684.912V219h-1.056v-4.356Zm7.197-2.784c-.216 0-.388-.064-.516-.192a.692.692 0 0 1-.192-.492.675.675 0 0 1 .708-.696c.208 0 .372.068.492.204.12.136.18.3.18.492s-.06.356-.18.492c-.12.128-.284.192-.492.192Zm-.54.912h1.056V219h-1.056v-6.228Zm5.73.816c-.48 0-.872.112-1.176.336a2.455 2.455 0 0 0-.72.84V219h-1.056v-6.228h.996l.036 1.116h.024c.168-.352.432-.644.792-.876.36-.24.816-.36 1.368-.36.616 0 1.104.164 1.464.492.368.328.552.824.552 1.488V219h-1.056v-4.26c0-.424-.112-.72-.336-.888-.216-.176-.512-.264-.888-.264Z"/>
    <rect width="148" height="48" x="192" y="191" fill="#fff" stroke="#5282FF" stroke-width="2" rx="7"/>
    <path fill="#18123D" d="M253.698 219.12c-1.04 0-1.836-.284-2.388-.852-.544-.576-.816-1.372-.816-2.388 0-.68.128-1.26.384-1.74s.608-.848 1.056-1.104a2.993 2.993 0 0 1 1.512-.384c.952 0 1.652.316 2.1.948.448.624.592 1.48.432 2.568h-4.392c.088 1.336.824 2.004 2.208 2.004.76 0 1.46-.216 2.1-.648v.948c-.288.2-.624.36-1.008.48-.384.112-.78.168-1.188.168Zm-.276-5.532c-.456 0-.848.14-1.176.42-.328.28-.536.704-.624 1.272h3.348c.024-.536-.1-.952-.372-1.248-.272-.296-.664-.444-1.176-.444Zm3.436 2.292c0-.728.128-1.328.384-1.8.256-.48.596-.836 1.02-1.068.432-.24.9-.36 1.404-.36.472 0 .88.1 1.224.3.344.192.62.468.828.828v-3.384h1.055V219h-.923l-.084-1.224a2.46 2.46 0 0 1-.816.984c-.344.24-.776.36-1.296.36-.496 0-.96-.116-1.392-.348-.424-.24-.764-.6-1.02-1.08-.256-.48-.384-1.084-.384-1.812Zm4.872 0c0-.776-.184-1.352-.552-1.728a1.838 1.838 0 0 0-1.368-.564c-.544 0-.992.196-1.344.588-.352.384-.528.952-.528 1.704 0 .76.176 1.332.528 1.716.352.384.8.576 1.344.576s1-.188 1.368-.564c.368-.376.552-.952.552-1.728Zm3.307-4.02c-.216 0-.388-.064-.516-.192a.692.692 0 0 1-.192-.492.675.675 0 0 1 .708-.696c.208 0 .372.068.492.204.12.136.18.3.18.492s-.06.356-.18.492c-.12.128-.284.192-.492.192Zm-.54.912h1.056V219h-1.056v-6.228Zm2.273.9v-.9h.744v-1.308h1.056v1.308h1.812v.9h-1.812v3.744c0 .264.068.456.204.576.136.12.368.18.696.18.312 0 .596-.088.852-.264v.96a1.48 1.48 0 0 1-.504.18 2.767 2.767 0 0 1-.624.072c-.4 0-.724-.076-.972-.228a1.36 1.36 0 0 1-.54-.588 1.767 1.767 0 0 1-.168-.756v-3.876h-.744Zm7.338 5.448c-.568 0-1.08-.124-1.536-.372a2.784 2.784 0 0 1-1.068-1.104c-.264-.488-.396-1.076-.396-1.764s.132-1.272.396-1.752.62-.844 1.068-1.092a3.083 3.083 0 0 1 1.536-.384c.576 0 1.092.128 1.548.384a2.68 2.68 0 0 1 1.08 1.092c.264.48.396 1.064.396 1.752s-.132 1.276-.396 1.764a2.76 2.76 0 0 1-1.08 1.104 3.187 3.187 0 0 1-1.548.372Zm0-.948c.56 0 1.024-.184 1.392-.552.368-.376.552-.956.552-1.74s-.184-1.36-.552-1.728c-.368-.376-.832-.564-1.392-.564-.552 0-1.012.188-1.38.564-.36.368-.54.944-.54 1.728s.18 1.364.54 1.74c.368.368.828.552 1.38.552Zm7.395-4.344c-.496.04-.92.164-1.272.372a1.87 1.87 0 0 0-.756.84V219h-1.056v-6.228h.924l.108 1.356h.024c.2-.416.472-.752.816-1.008a2.553 2.553 0 0 1 1.212-.468v1.176Z"/>
    <rect width="148" height="48" x="192" y="101" fill="#fff" stroke="#5282FF" stroke-width="2" rx="7"/>
    <path fill="#18123D" d="M252.083 123.588c-.664 0-1.336.204-2.016.612v-.948a3.804 3.804 0 0 1 1.02-.432 4.142 4.142 0 0 1 1.14-.168c.784 0 1.38.164 1.788.492.408.328.612.828.612 1.5v3.348c0 .136.004.312.012.528.016.208.032.368.048.48h-.96a5.482 5.482 0 0 1-.072-.468 7.173 7.173 0 0 1-.024-.54l-.012-.18a3.359 3.359 0 0 1-.396.6c-.168.2-.392.368-.672.504-.272.136-.612.204-1.02.204-.56 0-1.012-.16-1.356-.48-.344-.32-.516-.772-.516-1.356 0-.68.24-1.18.72-1.5.48-.32 1.156-.48 2.028-.48h1.164v-.516c0-.432-.112-.74-.336-.924-.224-.184-.608-.276-1.152-.276Zm1.488 3.012v-.456h-1.056c-.632 0-1.092.092-1.38.276-.28.184-.42.452-.42.804 0 .28.084.508.252.684.176.176.44.264.792.264.328 0 .608-.064.84-.192.232-.136.42-.296.564-.48.144-.192.248-.372.312-.54.064-.168.096-.288.096-.36Zm2.273-.72c0-.728.128-1.328.384-1.8.256-.48.596-.836 1.02-1.068.432-.24.9-.36 1.404-.36.472 0 .88.1 1.224.3.344.192.62.468.828.828v-3.384h1.056V129h-.924l-.084-1.224a2.46 2.46 0 0 1-.816.984c-.344.24-.776.36-1.296.36-.496 0-.96-.116-1.392-.348-.424-.24-.764-.6-1.02-1.08-.256-.48-.384-1.084-.384-1.812Zm4.872 0c0-.776-.184-1.352-.552-1.728a1.838 1.838 0 0 0-1.368-.564c-.544 0-.992.196-1.344.588-.352.384-.528.952-.528 1.704 0 .76.176 1.332.528 1.716.352.384.8.576 1.344.576s1-.188 1.368-.564c.368-.376.552-.952.552-1.728Zm6.703-1.236c0-.4-.1-.676-.3-.828-.2-.152-.472-.228-.816-.228-.448 0-.804.112-1.068.336-.264.216-.496.5-.696.852V129h-1.056v-6.228h.924l.108 1.116h.024a2.21 2.21 0 0 1 .756-.876c.344-.24.784-.36 1.32-.36.472 0 .864.116 1.176.348.312.224.52.564.624 1.02.176-.424.444-.756.804-.996.368-.248.812-.372 1.332-.372.568 0 1.02.164 1.356.492.344.328.516.824.516 1.488V129h-1.068v-4.236c0-.408-.1-.704-.3-.888-.2-.192-.472-.288-.816-.288-.456 0-.816.132-1.08.396a3.78 3.78 0 0 0-.684.912V129h-1.056v-4.356Zm7.198-2.784c-.216 0-.388-.064-.516-.192a.692.692 0 0 1-.192-.492.675.675 0 0 1 .708-.696c.208 0 .372.068.492.204.12.136.18.3.18.492s-.06.356-.18.492c-.12.128-.284.192-.492.192Zm-.54.912h1.056V129h-1.056v-6.228Zm5.729.816c-.48 0-.872.112-1.176.336a2.455 2.455 0 0 0-.72.84V129h-1.056v-6.228h.996l.036 1.116h.024c.168-.352.432-.644.792-.876.36-.24.816-.36 1.368-.36.616 0 1.104.164 1.464.492.368.328.552.824.552 1.488V129h-1.056v-4.26c0-.424-.112-.72-.336-.888-.216-.176-.512-.264-.888-.264Z"/>
    <rect width="148" height="48" x="192" y="11" fill="#fff" stroke="#5282FF" stroke-width="2" rx="7"/>
    <path fill="#18123D" d="M219.651 26.828c-.496.04-.92.164-1.272.372a1.87 1.87 0 0 0-.756.84V32h-1.056v-6.228h.924l.108 1.356h.024c.2-.416.472-.752.816-1.008a2.553 2.553 0 0 1 1.212-.468v1.176Zm3.743 5.292c-1.04 0-1.836-.284-2.388-.852-.544-.576-.816-1.372-.816-2.388 0-.68.128-1.26.384-1.74s.608-.848 1.056-1.104a2.993 2.993 0 0 1 1.512-.384c.952 0 1.652.316 2.1.948.448.624.592 1.48.432 2.568h-4.392c.088 1.336.824 2.004 2.208 2.004.76 0 1.46-.216 2.1-.648v.948c-.288.2-.624.36-1.008.48-.384.112-.78.168-1.188.168Zm-.276-5.532c-.456 0-.848.14-1.176.42-.328.28-.536.704-.624 1.272h3.348c.024-.536-.1-.952-.372-1.248-.272-.296-.664-.444-1.176-.444Zm5.871 5.532c-.456 0-.892-.064-1.308-.192-.408-.136-.74-.316-.996-.54v-.948c.248.24.58.432.996.576.424.144.856.216 1.296.216.976 0 1.464-.316 1.464-.948a.698.698 0 0 0-.132-.444c-.08-.12-.232-.22-.456-.3a5.694 5.694 0 0 0-.972-.252c-.808-.16-1.372-.376-1.692-.648-.32-.28-.48-.676-.48-1.188 0-.568.22-1.008.66-1.32.44-.32 1.048-.48 1.824-.48.368 0 .728.04 1.08.12.36.072.652.172.876.3v.948c-.464-.32-1.104-.48-1.92-.48-.504 0-.876.072-1.116.216-.232.144-.348.368-.348.672 0 .16.036.292.108.396.072.104.216.196.432.276.216.08.54.164.972.252.552.112.988.248 1.308.408.328.152.56.348.696.588.144.24.216.544.216.912 0 .584-.22 1.04-.66 1.368-.44.328-1.056.492-1.848.492Zm6.365 0c-.568 0-1.08-.124-1.536-.372a2.784 2.784 0 0 1-1.068-1.104c-.264-.488-.396-1.076-.396-1.764s.132-1.272.396-1.752.62-.844 1.068-1.092a3.083 3.083 0 0 1 1.536-.384c.576 0 1.092.128 1.548.384a2.68 2.68 0 0 1 1.08 1.092c.264.48.396 1.064.396 1.752s-.132 1.276-.396 1.764a2.76 2.76 0 0 1-1.08 1.104 3.187 3.187 0 0 1-1.548.372Zm0-.948c.56 0 1.024-.184 1.392-.552.368-.376.552-.956.552-1.74s-.184-1.36-.552-1.728c-.368-.376-.832-.564-1.392-.564-.552 0-1.012.188-1.38.564-.36.368-.54.944-.54 1.728s.18 1.364.54 1.74c.368.368.828.552 1.38.552Zm8.307-.288a2.257 2.257 0 0 1-.78.876c-.344.24-.796.36-1.356.36-.576 0-1.044-.164-1.404-.492-.352-.328-.528-.828-.528-1.5v-4.356h1.068v4.356c0 .408.112.684.336.828.224.144.5.216.828.216.464 0 .836-.104 1.116-.312.28-.208.52-.492.72-.852v-4.236h1.056V32h-.936l-.096-1.116h-.024Zm5.873-4.056c-.496.04-.92.164-1.272.372a1.87 1.87 0 0 0-.756.84V32h-1.056v-6.228h.924l.108 1.356h.024c.2-.416.472-.752.816-1.008a2.553 2.553 0 0 1 1.212-.468v1.176Zm3.67 5.292c-.968 0-1.732-.284-2.292-.852-.56-.576-.84-1.372-.84-2.388 0-1.016.284-1.808.852-2.376.568-.568 1.344-.852 2.328-.852.376 0 .728.044 1.056.132.328.08.592.2.792.36v.948a3.423 3.423 0 0 0-1.836-.504c-.72 0-1.252.192-1.596.576-.344.376-.516.948-.516 1.716s.164 1.344.492 1.728c.336.376.856.564 1.56.564.68 0 1.312-.164 1.896-.492v.948c-.52.328-1.152.492-1.896.492Zm5.943 0c-1.04 0-1.836-.284-2.388-.852-.544-.576-.816-1.372-.816-2.388 0-.68.128-1.26.384-1.74s.608-.848 1.056-1.104a2.993 2.993 0 0 1 1.512-.384c.952 0 1.652.316 2.1.948.448.624.592 1.48.432 2.568h-4.392c.088 1.336.824 2.004 2.208 2.004.76 0 1.46-.216 2.1-.648v.948c-.288.2-.624.36-1.008.48-.384.112-.78.168-1.188.168Zm-.276-5.532c-.456 0-.848.14-1.176.42-.328.28-.536.704-.624 1.272h3.348c.024-.536-.1-.952-.372-1.248-.272-.296-.664-.444-1.176-.444Zm3.736 2.232v-.96h2.88v.96h-2.88Zm8.404-1.176c0-.4-.1-.676-.3-.828-.2-.152-.472-.228-.816-.228-.448 0-.804.112-1.068.336-.264.216-.496.5-.696.852V32h-1.056v-6.228h.924l.108 1.116h.024a2.21 2.21 0 0 1 .756-.876c.344-.24.784-.36 1.32-.36.472 0 .864.116 1.176.348.312.224.52.564.624 1.02.176-.424.444-.756.804-.996.368-.248.812-.372 1.332-.372.568 0 1.02.164 1.356.492.344.328.516.824.516 1.488V32h-1.068v-4.236c0-.408-.1-.704-.3-.888-.2-.192-.472-.288-.816-.288-.456 0-.816.132-1.08.396a3.78 3.78 0 0 0-.684.912V32h-1.056v-4.356Zm8.77-1.056c-.664 0-1.336.204-2.016.612v-.948a3.804 3.804 0 0 1 1.02-.432 4.142 4.142 0 0 1 1.14-.168c.784 0 1.38.164 1.788.492.408.328.612.828.612 1.5v3.348c0 .136.004.312.012.528.016.208.032.368.048.48h-.96a5.482 5.482 0 0 1-.072-.468 7.173 7.173 0 0 1-.024-.54l-.012-.18a3.359 3.359 0 0 1-.396.6c-.168.2-.392.368-.672.504-.272.136-.612.204-1.02.204-.56 0-1.012-.16-1.356-.48-.344-.32-.516-.772-.516-1.356 0-.68.24-1.18.72-1.5.48-.32 1.156-.48 2.028-.48h1.164v-.516c0-.432-.112-.74-.336-.924-.224-.184-.608-.276-1.152-.276Zm1.488 3.012v-.456h-1.056c-.632 0-1.092.092-1.38.276-.28.184-.42.452-.42.804 0 .28.084.508.252.684.176.176.44.264.792.264.328 0 .608-.064.84-.192.232-.136.42-.296.564-.48.144-.192.248-.372.312-.54.064-.168.096-.288.096-.36Zm5.668-3.012c-.48 0-.872.112-1.176.336a2.455 2.455 0 0 0-.72.84V32h-1.056v-6.228h.996l.036 1.116h.024c.168-.352.432-.644.792-.876.36-.24.816-.36 1.368-.36.616 0 1.104.164 1.464.492.368.328.552.824.552 1.488V32h-1.056v-4.26c0-.424-.112-.72-.336-.888-.216-.176-.512-.264-.888-.264Zm6.062 0c-.664 0-1.336.204-2.016.612v-.948a3.804 3.804 0 0 1 1.02-.432 4.142 4.142 0 0 1 1.14-.168c.784 0 1.38.164 1.788.492.408.328.612.828.612 1.5v3.348c0 .136.004.312.012.528.016.208.032.368.048.48h-.96a5.482 5.482 0 0 1-.072-.468 7.173 7.173 0 0 1-.024-.54l-.012-.18a3.359 3.359 0 0 1-.396.6c-.168.2-.392.368-.672.504-.272.136-.612.204-1.02.204-.56 0-1.012-.16-1.356-.48-.344-.32-.516-.772-.516-1.356 0-.68.24-1.18.72-1.5.48-.32 1.156-.48 2.028-.48h1.164v-.516c0-.432-.112-.74-.336-.924-.224-.184-.608-.276-1.152-.276Zm1.488 3.012v-.456h-1.056c-.632 0-1.092.092-1.38.276-.28.184-.42.452-.42.804 0 .28.084.508.252.684.176.176.44.264.792.264.328 0 .608-.064.84-.192.232-.136.42-.296.564-.48.144-.192.248-.372.312-.54.064-.168.096-.288.096-.36Zm2.789 4.032v-.948c.336.184.672.316 1.008.396.336.08.72.12 1.152.12.768 0 1.304-.148 1.608-.444.304-.288.456-.712.456-1.272v-.96a2.265 2.265 0 0 1-.78.888c-.328.224-.736.336-1.224.336s-.944-.112-1.368-.336a2.63 2.63 0 0 1-1.008-1.02c-.248-.448-.372-1.008-.372-1.68 0-.68.124-1.244.372-1.692.256-.456.592-.796 1.008-1.02a2.853 2.853 0 0 1 1.392-.348c.496 0 .912.112 1.248.336.344.224.612.528.804.912l.012-.132c0-.144.008-.316.024-.516.016-.208.032-.368.048-.48h.96a6.754 6.754 0 0 0-.048.48c-.008.208-.012.38-.012.516v4.704c0 .536-.108 1.004-.324 1.404-.208.4-.54.712-.996.936-.456.224-1.06.336-1.812.336-.912 0-1.628-.172-2.148-.516Zm4.236-4.92c0-.712-.176-1.244-.528-1.596-.344-.352-.78-.528-1.308-.528s-.972.176-1.332.528c-.352.352-.528.884-.528 1.596 0 .696.176 1.22.528 1.572.36.344.808.516 1.344.516.52 0 .952-.172 1.296-.516.352-.344.528-.868.528-1.572Zm5.518 3.408c-1.04 0-1.836-.284-2.388-.852-.544-.576-.816-1.372-.816-2.388 0-.68.128-1.26.384-1.74s.608-.848 1.056-1.104a2.993 2.993 0 0 1 1.512-.384c.952 0 1.652.316 2.1.948.448.624.592 1.48.432 2.568h-4.392c.088 1.336.824 2.004 2.208 2.004.76 0 1.46-.216 2.1-.648v.948c-.288.2-.624.36-1.008.48-.384.112-.78.168-1.188.168Zm-.276-5.532c-.456 0-.848.14-1.176.42-.328.28-.536.704-.624 1.272h3.348c.024-.536-.1-.952-.372-1.248-.272-.296-.664-.444-1.176-.444Zm6.964.24c-.496.04-.92.164-1.272.372a1.87 1.87 0 0 0-.756.84V32h-1.056v-6.228h.924l.108 1.356h.024c.2-.416.472-.752.816-1.008a2.553 2.553 0 0 1 1.212-.468v1.176Zm1.148 5.244a.789.789 0 0 1-.564-.216.759.759 0 0 1-.216-.54c0-.224.072-.408.216-.552a.789.789 0 0 1 .564-.216c.224 0 .408.072.552.216a.748.748 0 0 1 .216.552.759.759 0 0 1-.216.54.748.748 0 0 1-.552.216ZM233.681 46.12c-.968 0-1.732-.284-2.292-.852-.56-.576-.84-1.372-.84-2.388 0-1.016.284-1.808.852-2.376.568-.568 1.344-.852 2.328-.852.376 0 .728.044 1.056.132.328.08.592.2.792.36v.948a3.423 3.423 0 0 0-1.836-.504c-.72 0-1.252.192-1.596.576-.344.376-.516.948-.516 1.716s.164 1.344.492 1.728c.336.376.856.564 1.56.564.68 0 1.312-.164 1.896-.492v.948c-.52.328-1.152.492-1.896.492Zm3.183-8.724h1.056V46h-1.056v-8.604Zm5.333 8.724c-.568 0-1.08-.124-1.536-.372a2.784 2.784 0 0 1-1.068-1.104c-.264-.488-.396-1.076-.396-1.764s.132-1.272.396-1.752.62-.844 1.068-1.092a3.083 3.083 0 0 1 1.536-.384c.576 0 1.092.128 1.548.384a2.68 2.68 0 0 1 1.08 1.092c.264.48.396 1.064.396 1.752s-.132 1.276-.396 1.764a2.76 2.76 0 0 1-1.08 1.104 3.187 3.187 0 0 1-1.548.372Zm0-.948c.56 0 1.024-.184 1.392-.552.368-.376.552-.956.552-1.74s-.184-1.36-.552-1.728c-.368-.376-.832-.564-1.392-.564-.552 0-1.012.188-1.38.564-.36.368-.54.944-.54 1.728s.18 1.364.54 1.74c.368.368.828.552 1.38.552Zm8.308-.288a2.257 2.257 0 0 1-.78.876c-.344.24-.796.36-1.356.36-.576 0-1.044-.164-1.404-.492-.352-.328-.528-.828-.528-1.5v-4.356h1.068v4.356c0 .408.112.684.336.828.224.144.5.216.828.216.464 0 .836-.104 1.116-.312.28-.208.52-.492.72-.852v-4.236h1.056V46h-.936l-.096-1.116h-.024Zm2.345-2.004c0-.728.128-1.328.384-1.8.256-.48.596-.836 1.02-1.068.432-.24.9-.36 1.404-.36.472 0 .88.1 1.224.3.344.192.62.468.828.828v-3.384h1.056V46h-.924l-.084-1.224a2.46 2.46 0 0 1-.816.984c-.344.24-.776.36-1.296.36-.496 0-.96-.116-1.392-.348-.424-.24-.764-.6-1.02-1.08-.256-.48-.384-1.084-.384-1.812Zm4.872 0c0-.776-.184-1.352-.552-1.728a1.838 1.838 0 0 0-1.368-.564c-.544 0-.992.196-1.344.588-.352.384-.528.952-.528 1.704 0 .76.176 1.332.528 1.716.352.384.8.576 1.344.576s1-.188 1.368-.564c.368-.376.552-.952.552-1.728Zm4.759 3.24c-.456 0-.892-.064-1.308-.192-.408-.136-.74-.316-.996-.54v-.948c.248.24.58.432.996.576.424.144.856.216 1.296.216.976 0 1.464-.316 1.464-.948a.698.698 0 0 0-.132-.444c-.08-.12-.232-.22-.456-.3a5.694 5.694 0 0 0-.972-.252c-.808-.16-1.372-.376-1.692-.648-.32-.28-.48-.676-.48-1.188 0-.568.22-1.008.66-1.32.44-.32 1.048-.48 1.824-.48.368 0 .728.04 1.08.12.36.072.652.172.876.3v.948c-.464-.32-1.104-.48-1.92-.48-.504 0-.876.072-1.116.216-.232.144-.348.368-.348.672 0 .16.036.292.108.396.072.104.216.196.432.276.216.08.54.164.972.252.552.112.988.248 1.308.408.328.152.56.348.696.588.144.24.216.544.216.912 0 .584-.22 1.04-.66 1.368-.44.328-1.056.492-1.848.492Zm4.385-.048a.789.789 0 0 1-.564-.216.759.759 0 0 1-.216-.54c0-.224.072-.408.216-.552a.789.789 0 0 1 .564-.216c.224 0 .408.072.552.216a.748.748 0 0 1 .216.552.759.759 0 0 1-.216.54.748.748 0 0 1-.552.216Zm4.617.048c-.568 0-1.08-.124-1.536-.372a2.784 2.784 0 0 1-1.068-1.104c-.264-.488-.396-1.076-.396-1.764s.132-1.272.396-1.752.62-.844 1.068-1.092a3.083 3.083 0 0 1 1.536-.384c.576 0 1.092.128 1.548.384a2.68 2.68 0 0 1 1.08 1.092c.264.48.396 1.064.396 1.752s-.132 1.276-.396 1.764a2.76 2.76 0 0 1-1.08 1.104 3.187 3.187 0 0 1-1.548.372Zm0-.948c.56 0 1.024-.184 1.392-.552.368-.376.552-.956.552-1.74s-.184-1.36-.552-1.728c-.368-.376-.832-.564-1.392-.564-.552 0-1.012.188-1.38.564-.36.368-.541.944-.541 1.728s.181 1.364.541 1.74c.368.368.828.552 1.38.552Zm12.39-5.4L282.457 46h-1.62l-1.32-4.812L278.161 46h-1.572l-1.416-6.228h1.116l1.188 5.436 1.512-5.436h1.188l1.476 5.376 1.176-5.376h1.044Zm4.177.816c-.48 0-.872.112-1.176.336a2.455 2.455 0 0 0-.72.84V46h-1.056v-6.228h.996l.036 1.116h.024c.168-.352.432-.644.792-.876.36-.24.816-.36 1.368-.36.616 0 1.104.164 1.464.492.368.328.552.824.552 1.488V46h-1.056v-4.26c0-.424-.112-.72-.336-.888-.216-.176-.512-.264-.888-.264Zm6.711 5.532c-1.04 0-1.836-.284-2.388-.852-.544-.576-.816-1.372-.816-2.388 0-.68.128-1.26.384-1.74s.608-.848 1.056-1.104a2.993 2.993 0 0 1 1.512-.384c.952 0 1.652.316 2.1.948.448.624.592 1.48.432 2.568h-4.392c.088 1.336.824 2.004 2.208 2.004.76 0 1.46-.216 2.1-.648v.948c-.288.2-.624.36-1.008.48-.384.112-.78.168-1.188.168Zm-.276-5.532c-.456 0-.848.14-1.176.42-.328.28-.536.704-.624 1.272h3.348c.024-.536-.1-.952-.372-1.248-.272-.296-.664-.444-1.176-.444Zm6.963.24c-.496.04-.92.164-1.272.372a1.87 1.87 0 0 0-.756.84V46h-1.056v-6.228h.924l.108 1.356h.024c.2-.416.472-.752.816-1.008a2.553 2.553 0 0 1 1.212-.468v1.176Z"/>
    <path fill="#4E496B" d="m84 330-5.773 10h11.546L84 330Zm-1 9v31h2v-31h-2Zm183-99 5.774 10h-11.548L266 240Zm1 9v31h-2v-31h2Z"/>
    <path stroke="#4E496B" stroke-width="2" d="M266 340v30"/>
    <path fill="#4E496B" d="m84 240-5.773 10h11.546L84 240Zm-1 9v30h2v-30h-2Z"/>
    <rect width="148" height="48" x="10" y="461" fill="#fff" stroke="#5282FF" stroke-width="2" rx="7"/>
    <path fill="#18123D" d="M48.8 482.772h1.14l1.896 5.664 1.884-5.664h1.056L52.64 489h-1.704l-2.136-6.228Zm7.495-.912c-.216 0-.388-.064-.516-.192a.692.692 0 0 1-.192-.492.675.675 0 0 1 .708-.696c.208 0 .372.068.492.204.12.136.18.3.18.492s-.06.356-.18.492c-.12.128-.284.192-.492.192Zm-.54.912h1.056V489h-1.056v-6.228Zm2.333 3.108c0-.728.128-1.328.384-1.8.256-.48.596-.836 1.02-1.068.432-.24.9-.36 1.404-.36.472 0 .88.1 1.224.3.344.192.62.468.828.828v-3.384h1.056V489h-.924l-.084-1.224a2.46 2.46 0 0 1-.816.984c-.344.24-.776.36-1.296.36-.496 0-.96-.116-1.392-.348-.424-.24-.764-.6-1.02-1.08-.256-.48-.384-1.084-.384-1.812Zm4.872 0c0-.776-.184-1.352-.552-1.728a1.838 1.838 0 0 0-1.368-.564c-.544 0-.992.196-1.344.588-.352.384-.528.952-.528 1.704 0 .76.176 1.332.528 1.716.352.384.8.576 1.344.576s1-.188 1.368-.564c.368-.376.552-.952.552-1.728Zm5.527 3.24c-1.04 0-1.836-.284-2.388-.852-.544-.576-.816-1.372-.816-2.388 0-.68.128-1.26.384-1.74s.608-.848 1.056-1.104a2.993 2.993 0 0 1 1.512-.384c.952 0 1.652.316 2.1.948.448.624.592 1.48.432 2.568h-4.392c.088 1.336.824 2.004 2.208 2.004.76 0 1.46-.216 2.1-.648v.948c-.288.2-.624.36-1.008.48-.384.112-.78.168-1.188.168Zm-.276-5.532c-.456 0-.848.14-1.176.42-.328.28-.536.704-.624 1.272h3.348c.024-.536-.1-.952-.372-1.248-.272-.296-.664-.444-1.176-.444Zm6.436 5.532c-.568 0-1.08-.124-1.536-.372a2.784 2.784 0 0 1-1.068-1.104c-.264-.488-.396-1.076-.396-1.764s.132-1.272.396-1.752.62-.844 1.068-1.092a3.083 3.083 0 0 1 1.536-.384c.576 0 1.092.128 1.548.384a2.68 2.68 0 0 1 1.08 1.092c.264.48.396 1.064.396 1.752s-.132 1.276-.396 1.764a2.76 2.76 0 0 1-1.08 1.104 3.187 3.187 0 0 1-1.548.372Zm0-.948c.56 0 1.024-.184 1.392-.552.368-.376.552-.956.552-1.74s-.184-1.36-.552-1.728c-.368-.376-.832-.564-1.392-.564-.552 0-1.012.188-1.38.564-.36.368-.54.944-.54 1.728s.18 1.364.54 1.74c.368.368.828.552 1.38.552Zm4.652.9a.789.789 0 0 1-.564-.216.759.759 0 0 1-.216-.54c0-.224.072-.408.216-.552a.789.789 0 0 1 .564-.216c.224 0 .408.072.552.216a.748.748 0 0 1 .216.552.759.759 0 0 1-.216.54.748.748 0 0 1-.552.216Zm4.407-5.484c-.663 0-1.335.204-2.016.612v-.948a3.804 3.804 0 0 1 1.02-.432 4.142 4.142 0 0 1 1.14-.168c.785 0 1.38.164 1.788.492.408.328.612.828.612 1.5v3.348c0 .136.004.312.013.528.015.208.031.368.047.48h-.96a5.482 5.482 0 0 1-.072-.468 7.173 7.173 0 0 1-.024-.54l-.011-.18a3.359 3.359 0 0 1-.396.6c-.168.2-.392.368-.672.504-.272.136-.612.204-1.02.204-.56 0-1.013-.16-1.356-.48-.345-.32-.517-.772-.517-1.356 0-.68.24-1.18.72-1.5.48-.32 1.157-.48 2.029-.48h1.163v-.516c0-.432-.112-.74-.335-.924-.224-.184-.608-.276-1.152-.276Zm1.489 3.012v-.456h-1.056c-.632 0-1.093.092-1.38.276-.28.184-.42.452-.42.804 0 .28.084.508.252.684.175.176.44.264.791.264.328 0 .608-.064.84-.192.233-.136.42-.296.565-.48a2.29 2.29 0 0 0 .311-.54c.064-.168.097-.288.097-.36Zm6.712 1.284a2.257 2.257 0 0 1-.78.876c-.344.24-.796.36-1.356.36-.576 0-1.044-.164-1.404-.492-.352-.328-.528-.828-.528-1.5v-4.356h1.068v4.356c0 .408.112.684.336.828.224.144.5.216.828.216.464 0 .836-.104 1.116-.312.28-.208.52-.492.72-.852v-4.236h1.056V489h-.936l-.096-1.116h-.024Zm2.345-2.004c0-.728.128-1.328.384-1.8.256-.48.596-.836 1.02-1.068.432-.24.9-.36 1.404-.36.472 0 .88.1 1.224.3.344.192.62.468.828.828v-3.384h1.056V489h-.924l-.084-1.224a2.46 2.46 0 0 1-.816.984c-.344.24-.776.36-1.296.36-.496 0-.96-.116-1.392-.348-.424-.24-.764-.6-1.02-1.08-.256-.48-.384-1.084-.384-1.812Zm4.872 0c0-.776-.184-1.352-.552-1.728a1.838 1.838 0 0 0-1.368-.564c-.544 0-.992.196-1.344.588-.352.384-.528.952-.528 1.704 0 .76.176 1.332.528 1.716.352.384.8.576 1.344.576s1-.188 1.368-.564c.368-.376.552-.952.552-1.728Zm3.307-4.02c-.216 0-.388-.064-.516-.192a.692.692 0 0 1-.192-.492.675.675 0 0 1 .708-.696c.208 0 .372.068.492.204.12.136.18.3.18.492s-.06.356-.18.492c-.12.128-.284.192-.492.192Zm-.54.912h1.056V489h-1.056v-6.228Zm2.274.9v-.9h.744v-1.308h1.056v1.308h1.812v.9h-1.812v3.744c0 .264.068.456.204.576.136.12.368.18.696.18.312 0 .596-.088.852-.264v.96a1.48 1.48 0 0 1-.504.18 2.767 2.767 0 0 1-.624.072c-.4 0-.724-.076-.972-.228a1.36 1.36 0 0 1-.54-.588 1.767 1.767 0 0 1-.168-.756v-3.876h-.744Zm7.337 5.448c-.568 0-1.08-.124-1.536-.372a2.784 2.784 0 0 1-1.068-1.104c-.264-.488-.396-1.076-.396-1.764s.132-1.272.396-1.752.62-.844 1.068-1.092a3.083 3.083 0 0 1 1.536-.384c.576 0 1.092.128 1.548.384a2.68 2.68 0 0 1 1.08 1.092c.264.48.396 1.064.396 1.752s-.132 1.276-.396 1.764a2.76 2.76 0 0 1-1.08 1.104 3.187 3.187 0 0 1-1.548.372Zm0-.948c.56 0 1.024-.184 1.392-.552.368-.376.552-.956.552-1.74s-.184-1.36-.552-1.728c-.368-.376-.832-.564-1.392-.564-.552 0-1.012.188-1.38.564-.36.368-.54.944-.54 1.728s.18 1.364.54 1.74c.368.368.828.552 1.38.552Zm7.395-4.344c-.496.04-.92.164-1.272.372a1.87 1.87 0 0 0-.756.84V489h-1.056v-6.228h.924l.108 1.356h.024c.2-.416.472-.752.816-1.008a2.553 2.553 0 0 1 1.212-.468v1.176Z"/>
    <path fill="#4E496B" d="m84 420-5.773 10h11.546L84 420Zm-1 9v31h2v-31h-2Z"/>
    <rect width="148" height="48" x="192" y="281" fill="#fff" stroke="#5282FF" stroke-width="2" rx="7"/>
    <path fill="#18123D" d="M248.425 302.772h1.14l1.896 5.664 1.884-5.664h1.056L252.265 309h-1.704l-2.136-6.228Zm7.495-.912c-.216 0-.388-.064-.516-.192a.692.692 0 0 1-.192-.492.675.675 0 0 1 .708-.696c.208 0 .372.068.492.204.12.136.18.3.18.492s-.06.356-.18.492c-.12.128-.284.192-.492.192Zm-.54.912h1.056V309h-1.056v-6.228Zm5.537 6.348c-1.04 0-1.836-.284-2.388-.852-.544-.576-.816-1.372-.816-2.388 0-.68.128-1.26.384-1.74s.608-.848 1.056-1.104a2.993 2.993 0 0 1 1.512-.384c.952 0 1.652.316 2.1.948.448.624.592 1.48.432 2.568h-4.392c.088 1.336.824 2.004 2.208 2.004.76 0 1.46-.216 2.1-.648v.948c-.288.2-.624.36-1.008.48-.384.112-.78.168-1.188.168Zm-.276-5.532c-.456 0-.848.14-1.176.42-.328.28-.536.704-.624 1.272h3.348c.024-.536-.1-.952-.372-1.248-.272-.296-.664-.444-1.176-.444Zm12.075-.816L271.3 309h-1.62l-1.32-4.812-1.356 4.812h-1.572l-1.416-6.228h1.116l1.188 5.436 1.512-5.436h1.188l1.476 5.376 1.176-5.376h1.044Zm3.869 6.348c-1.04 0-1.836-.284-2.388-.852-.544-.576-.816-1.372-.816-2.388 0-.68.128-1.26.384-1.74s.608-.848 1.056-1.104a2.993 2.993 0 0 1 1.512-.384c.952 0 1.652.316 2.1.948.448.624.592 1.48.432 2.568h-4.392c.088 1.336.824 2.004 2.208 2.004.76 0 1.46-.216 2.1-.648v.948c-.288.2-.624.36-1.008.48-.384.112-.78.168-1.188.168Zm-.276-5.532c-.456 0-.848.14-1.176.42-.328.28-.536.704-.624 1.272h3.348c.024-.536-.1-.952-.372-1.248-.272-.296-.664-.444-1.176-.444Zm6.963.24c-.496.04-.92.164-1.272.372a1.87 1.87 0 0 0-.756.84V309h-1.056v-6.228h.924l.108 1.356h.024c.2-.416.472-.752.816-1.008a2.553 2.553 0 0 1 1.212-.468v1.176Z"/>
    <rect width="148" height="48" x="192" y="371" fill="#fff" stroke="#5282FF" stroke-width="2" rx="7"/>
    <path fill="#18123D" d="M249.681 393.588c-.664 0-1.336.204-2.016.612v-.948a3.804 3.804 0 0 1 1.02-.432 4.142 4.142 0 0 1 1.14-.168c.784 0 1.38.164 1.788.492.408.328.612.828.612 1.5v3.348c0 .136.004.312.012.528.016.208.032.368.048.48h-.96a5.482 5.482 0 0 1-.072-.468 7.173 7.173 0 0 1-.024-.54l-.012-.18a3.359 3.359 0 0 1-.396.6c-.168.2-.392.368-.672.504-.272.136-.612.204-1.02.204-.56 0-1.012-.16-1.356-.48-.344-.32-.516-.772-.516-1.356 0-.68.24-1.18.72-1.5.48-.32 1.156-.48 2.028-.48h1.164v-.516c0-.432-.112-.74-.336-.924-.224-.184-.608-.276-1.152-.276Zm1.488 3.012v-.456h-1.056c-.632 0-1.092.092-1.38.276-.28.184-.42.452-.42.804 0 .28.084.508.252.684.176.176.44.264.792.264.328 0 .608-.064.84-.192.232-.136.42-.296.564-.48.144-.192.248-.372.312-.54.064-.168.096-.288.096-.36Zm6.712 1.284a2.257 2.257 0 0 1-.78.876c-.344.24-.796.36-1.356.36-.576 0-1.044-.164-1.404-.492-.352-.328-.528-.828-.528-1.5v-4.356h1.068v4.356c0 .408.112.684.336.828.224.144.5.216.828.216.464 0 .836-.104 1.116-.312.28-.208.52-.492.72-.852v-4.236h1.056V399h-.936l-.096-1.116h-.024Zm2.346-2.004c0-.728.128-1.328.384-1.8.256-.48.596-.836 1.02-1.068.432-.24.9-.36 1.404-.36.472 0 .88.1 1.224.3.344.192.62.468.828.828v-3.384h1.056V399h-.924l-.084-1.224a2.46 2.46 0 0 1-.816.984c-.344.24-.776.36-1.296.36-.496 0-.96-.116-1.392-.348-.424-.24-.764-.6-1.02-1.08-.256-.48-.384-1.084-.384-1.812Zm4.872 0c0-.776-.184-1.352-.552-1.728a1.838 1.838 0 0 0-1.368-.564c-.544 0-.992.196-1.344.588-.352.384-.528.952-.528 1.704 0 .76.176 1.332.528 1.716.352.384.8.576 1.344.576s1-.188 1.368-.564c.368-.376.552-.952.552-1.728Zm3.307-4.02c-.216 0-.388-.064-.516-.192a.692.692 0 0 1-.192-.492.675.675 0 0 1 .708-.696c.208 0 .372.068.492.204.12.136.18.3.18.492s-.06.356-.18.492c-.12.128-.284.192-.492.192Zm-.54.912h1.056V399h-1.056v-6.228Zm2.273.9v-.9h.744v-1.308h1.056v1.308h1.812v.9h-1.812v3.744c0 .264.068.456.204.576.136.12.368.18.696.18.312 0 .596-.088.852-.264v.96a1.48 1.48 0 0 1-.504.18 2.767 2.767 0 0 1-.624.072c-.4 0-.724-.076-.972-.228a1.36 1.36 0 0 1-.54-.588 1.767 1.767 0 0 1-.168-.756v-3.876h-.744Zm7.338 5.448c-.568 0-1.08-.124-1.536-.372a2.784 2.784 0 0 1-1.068-1.104c-.264-.488-.396-1.076-.396-1.764s.132-1.272.396-1.752.62-.844 1.068-1.092a3.083 3.083 0 0 1 1.536-.384c.576 0 1.092.128 1.548.384a2.68 2.68 0 0 1 1.08 1.092c.264.48.396 1.064.396 1.752s-.132 1.276-.396 1.764a2.76 2.76 0 0 1-1.08 1.104 3.187 3.187 0 0 1-1.548.372Zm0-.948c.56 0 1.024-.184 1.392-.552.368-.376.552-.956.552-1.74s-.184-1.36-.552-1.728c-.368-.376-.832-.564-1.392-.564-.552 0-1.012.188-1.38.564-.36.368-.54.944-.54 1.728s.18 1.364.54 1.74c.368.368.828.552 1.38.552Zm7.395-4.344c-.496.04-.92.164-1.272.372a1.87 1.87 0 0 0-.756.84V399h-1.056v-6.228h.924l.108 1.356h.024c.2-.416.472-.752.816-1.008a2.553 2.553 0 0 1 1.212-.468v1.176Z"/>
    <rect width="148" height="48" x="10" y="371" fill="#fff" stroke="#5282FF" stroke-width="2" rx="7"/>
    <path fill="#18123D" d="M50.727 392.772h1.14l1.896 5.664 1.884-5.664h1.056L54.567 399h-1.704l-2.136-6.228Zm7.495-.912c-.216 0-.388-.064-.516-.192a.692.692 0 0 1-.192-.492.675.675 0 0 1 .708-.696c.208 0 .372.068.492.204.12.136.18.3.18.492s-.06.356-.18.492c-.12.128-.284.192-.492.192Zm-.54.912h1.056V399h-1.056v-6.228Zm2.334 3.108c0-.728.128-1.328.384-1.8.256-.48.596-.836 1.02-1.068.432-.24.9-.36 1.404-.36.472 0 .88.1 1.224.3.344.192.62.468.828.828v-3.384h1.056V399h-.924l-.084-1.224a2.46 2.46 0 0 1-.816.984c-.344.24-.776.36-1.296.36-.496 0-.96-.116-1.392-.348-.424-.24-.764-.6-1.02-1.08-.256-.48-.384-1.084-.384-1.812Zm4.872 0c0-.776-.184-1.352-.552-1.728a1.838 1.838 0 0 0-1.368-.564c-.544 0-.992.196-1.344.588-.352.384-.528.952-.528 1.704 0 .76.176 1.332.528 1.716.352.384.8.576 1.344.576s1-.188 1.368-.564c.368-.376.552-.952.552-1.728Zm5.527 3.24c-1.04 0-1.836-.284-2.388-.852-.544-.576-.816-1.372-.816-2.388 0-.68.128-1.26.384-1.74s.608-.848 1.056-1.104a2.993 2.993 0 0 1 1.512-.384c.952 0 1.652.316 2.1.948.448.624.592 1.48.432 2.568h-4.392c.088 1.336.824 2.004 2.208 2.004.76 0 1.46-.216 2.1-.648v.948c-.288.2-.624.36-1.008.48-.384.112-.78.168-1.188.168Zm-.276-5.532c-.456 0-.848.14-1.176.42-.328.28-.536.704-.624 1.272h3.348c.024-.536-.1-.952-.372-1.248-.272-.296-.664-.444-1.176-.444Zm6.435 5.532c-.568 0-1.08-.124-1.536-.372a2.784 2.784 0 0 1-1.068-1.104c-.264-.488-.396-1.076-.396-1.764s.132-1.272.396-1.752.62-.844 1.068-1.092a3.083 3.083 0 0 1 1.536-.384c.576 0 1.092.128 1.548.384a2.68 2.68 0 0 1 1.08 1.092c.264.48.396 1.064.396 1.752s-.132 1.276-.396 1.764a2.76 2.76 0 0 1-1.08 1.104 3.187 3.187 0 0 1-1.548.372Zm0-.948c.56 0 1.024-.184 1.392-.552.368-.376.552-.956.552-1.74s-.184-1.36-.552-1.728c-.368-.376-.832-.564-1.392-.564-.552 0-1.012.188-1.38.564-.36.368-.54.944-.54 1.728s.18 1.364.54 1.74c.368.368.828.552 1.38.552Zm4.653.9a.789.789 0 0 1-.564-.216.759.759 0 0 1-.216-.54c0-.224.072-.408.216-.552a.789.789 0 0 1 .564-.216c.224 0 .408.072.552.216a.748.748 0 0 1 .216.552.759.759 0 0 1-.216.54.748.748 0 0 1-.552.216Zm.895-6.3h1.14l1.896 5.664 1.884-5.664h1.056L85.962 399h-1.704l-2.136-6.228Zm7.495-.912c-.216 0-.388-.064-.516-.192a.692.692 0 0 1-.192-.492.675.675 0 0 1 .708-.696c.208 0 .372.068.492.204.12.136.18.3.18.492s-.06.356-.18.492c-.12.128-.284.192-.492.192Zm-.54.912h1.056V399h-1.056v-6.228Zm5.537 6.348c-1.04 0-1.836-.284-2.388-.852-.544-.576-.816-1.372-.816-2.388 0-.68.128-1.26.384-1.74s.608-.848 1.056-1.104a2.993 2.993 0 0 1 1.512-.384c.952 0 1.652.316 2.1.948.448.624.592 1.48.432 2.568h-4.392c.088 1.336.824 2.004 2.208 2.004.76 0 1.46-.216 2.1-.648v.948c-.288.2-.624.36-1.008.48-.384.112-.78.168-1.188.168Zm-.276-5.532c-.456 0-.848.14-1.176.42-.328.28-.536.704-.624 1.272h3.348c.024-.536-.1-.952-.372-1.248-.272-.296-.664-.444-1.176-.444Zm12.076-.816L104.998 399h-1.62l-1.32-4.812-1.356 4.812h-1.573l-1.416-6.228h1.117l1.188 5.436 1.512-5.436h1.188l1.476 5.376 1.176-5.376h1.044Zm3.868 6.348c-1.04 0-1.836-.284-2.388-.852-.544-.576-.816-1.372-.816-2.388 0-.68.128-1.26.384-1.74s.608-.848 1.056-1.104a2.993 2.993 0 0 1 1.512-.384c.952 0 1.652.316 2.1.948.448.624.592 1.48.432 2.568h-4.392c.088 1.336.824 2.004 2.208 2.004.76 0 1.46-.216 2.1-.648v.948c-.288.2-.624.36-1.008.48-.384.112-.78.168-1.188.168Zm-.276-5.532c-.456 0-.848.14-1.176.42-.328.28-.536.704-.624 1.272h3.348c.024-.536-.1-.952-.372-1.248-.272-.296-.664-.444-1.176-.444Zm6.963.24c-.496.04-.92.164-1.272.372a1.87 1.87 0 0 0-.756.84V399h-1.056v-6.228h.924l.108 1.356h.024c.2-.416.472-.752.816-1.008a2.553 2.553 0 0 1 1.212-.468v1.176Z"/>
    <path stroke="#4E496B" stroke-width="2" d="M84 370v-12.007A7.994 7.994 0 0 1 92 350h148"/>
    <path fill="#4E496B" d="m266 330-5.774 10h11.548L266 330Zm-1 9v3.007h2V339h-2Zm-7 10H127v2h131v-2Zm7-6.993a6.994 6.994 0 0 1-7 6.993v2c4.969 0 9-4.021 9-8.993h-2Z"/>
    <path stroke="#4E496B" stroke-width="2" d="M84 460v-12.007A7.994 7.994 0 0 1 92 440h148"/>
    <path fill="#4E496B" d="m266 420-5.774 10h11.548L266 420Zm-1 9v3.007h2V429h-2Zm-7 10H127v2h131v-2Zm7-6.993a6.994 6.994 0 0 1-7 6.993v2c4.969 0 9-4.021 9-8.993h-2Z"/>
    <path stroke="#4E496B" stroke-width="2" d="M84 280v-12.007A7.994 7.994 0 0 1 92 260h148"/>
    <path fill="#4E496B" d="m266 240-5.774 10h11.548L266 240Zm-1 9v3.007h2V249h-2Zm-7 10H127v2h131v-2Zm7-6.993a6.994 6.994 0 0 1-7 6.993v2c4.969 0 9-4.021 9-8.993h-2ZM266 150l5.774 10h-11.548L266 150Zm1 9v31h-2v-31h2Z"/>
    <path stroke="#4E496B" stroke-width="2" d="M84 190v-12.007A7.994 7.994 0 0 1 92 170h148"/>
    <path fill="#4E496B" d="m266 150-5.774 10h11.548L266 150Zm-1 9v3.007h2V159h-2Zm-7 10H127v2h131v-2Zm7-6.993a6.994 6.994 0 0 1-7 6.993v2c4.969 0 9-4.021 9-8.993h-2Z"/>
    <rect width="148" height="48" x="10" y="101" fill="#fff" stroke="#5282FF" stroke-width="2" rx="7"/>
    <path fill="#18123D" d="M37.651 116.828c-.496.04-.92.164-1.272.372a1.87 1.87 0 0 0-.756.84V122h-1.056v-6.228h.924l.108 1.356h.024c.2-.416.472-.752.816-1.008a2.553 2.553 0 0 1 1.212-.468v1.176Zm3.742 5.292c-1.04 0-1.836-.284-2.388-.852-.544-.576-.816-1.372-.816-2.388 0-.68.129-1.26.385-1.74s.608-.848 1.056-1.104a2.993 2.993 0 0 1 1.511-.384c.953 0 1.653.316 2.1.948.449.624.593 1.48.432 2.568h-4.392c.089 1.336.825 2.004 2.209 2.004.76 0 1.46-.216 2.1-.648v.948c-.289.2-.625.36-1.009.48-.384.112-.78.168-1.188.168Zm-.276-5.532c-.456 0-.847.14-1.175.42-.328.28-.536.704-.624 1.272h3.348c.024-.536-.1-.952-.372-1.248-.272-.296-.664-.444-1.176-.444Zm5.872 5.532c-.456 0-.892-.064-1.308-.192-.408-.136-.74-.316-.996-.54v-.948c.248.24.58.432.996.576.424.144.856.216 1.296.216.976 0 1.464-.316 1.464-.948a.698.698 0 0 0-.132-.444c-.08-.12-.232-.22-.456-.3a5.694 5.694 0 0 0-.972-.252c-.808-.16-1.372-.376-1.692-.648-.32-.28-.48-.676-.48-1.188 0-.568.22-1.008.66-1.32.44-.32 1.048-.48 1.824-.48.368 0 .728.04 1.08.12.36.072.652.172.876.3v.948c-.464-.32-1.104-.48-1.92-.48-.504 0-.876.072-1.116.216-.232.144-.348.368-.348.672 0 .16.036.292.108.396.072.104.216.196.432.276.216.08.54.164.972.252.552.112.988.248 1.308.408.328.152.56.348.696.588.144.24.216.544.216.912 0 .584-.22 1.04-.66 1.368-.44.328-1.056.492-1.848.492Zm6.365 0c-.568 0-1.08-.124-1.536-.372a2.784 2.784 0 0 1-1.068-1.104c-.264-.488-.396-1.076-.396-1.764s.132-1.272.396-1.752.62-.844 1.068-1.092a3.083 3.083 0 0 1 1.536-.384c.576 0 1.092.128 1.548.384a2.68 2.68 0 0 1 1.08 1.092c.264.48.396 1.064.396 1.752s-.132 1.276-.396 1.764a2.76 2.76 0 0 1-1.08 1.104 3.187 3.187 0 0 1-1.548.372Zm0-.948c.56 0 1.024-.184 1.392-.552.368-.376.552-.956.552-1.74s-.184-1.36-.552-1.728c-.368-.376-.832-.564-1.392-.564-.552 0-1.012.188-1.38.564-.36.368-.54.944-.54 1.728s.18 1.364.54 1.74c.368.368.828.552 1.38.552Zm8.307-.288a2.257 2.257 0 0 1-.78.876c-.344.24-.796.36-1.356.36-.576 0-1.044-.164-1.404-.492-.352-.328-.528-.828-.528-1.5v-4.356h1.068v4.356c0 .408.112.684.336.828.224.144.5.216.828.216.464 0 .836-.104 1.116-.312.28-.208.52-.492.72-.852v-4.236h1.056V122h-.936l-.096-1.116h-.024Zm5.873-4.056c-.496.04-.92.164-1.272.372a1.87 1.87 0 0 0-.756.84V122H64.45v-6.228h.924l.108 1.356h.024c.2-.416.472-.752.816-1.008a2.553 2.553 0 0 1 1.212-.468v1.176Zm3.67 5.292c-.968 0-1.732-.284-2.292-.852-.56-.576-.84-1.372-.84-2.388 0-1.016.284-1.808.852-2.376.568-.568 1.344-.852 2.328-.852.376 0 .728.044 1.056.132.328.08.592.2.792.36v.948a3.423 3.423 0 0 0-1.836-.504c-.72 0-1.252.192-1.596.576-.344.376-.516.948-.516 1.716s.164 1.344.492 1.728c.336.376.856.564 1.56.564.68 0 1.312-.164 1.896-.492v.948c-.52.328-1.152.492-1.896.492Zm5.943 0c-1.04 0-1.836-.284-2.388-.852-.544-.576-.816-1.372-.816-2.388 0-.68.128-1.26.384-1.74s.608-.848 1.056-1.104a2.993 2.993 0 0 1 1.512-.384c.952 0 1.652.316 2.1.948.448.624.592 1.48.432 2.568h-4.392c.088 1.336.824 2.004 2.208 2.004.76 0 1.46-.216 2.1-.648v.948c-.288.2-.624.36-1.008.48-.384.112-.78.168-1.188.168Zm-.276-5.532c-.456 0-.848.14-1.176.42-.328.28-.536.704-.624 1.272h3.348c.024-.536-.1-.952-.372-1.248-.272-.296-.664-.444-1.176-.444Zm3.736 2.232v-.96h2.88v.96h-2.88Zm8.404-1.176c0-.4-.1-.676-.3-.828-.2-.152-.472-.228-.816-.228-.448 0-.804.112-1.068.336-.264.216-.496.5-.696.852V122h-1.056v-6.228h.924l.108 1.116h.024a2.21 2.21 0 0 1 .756-.876c.344-.24.784-.36 1.32-.36.472 0 .864.116 1.176.348.312.224.52.564.624 1.02.176-.424.444-.756.804-.996.368-.248.812-.372 1.332-.372.568 0 1.02.164 1.356.492.344.328.516.824.516 1.488V122h-1.068v-4.236c0-.408-.1-.704-.3-.888-.2-.192-.472-.288-.816-.288-.456 0-.816.132-1.08.396a3.78 3.78 0 0 0-.684.912V122H89.01v-4.356Zm8.77-1.056c-.664 0-1.336.204-2.016.612v-.948a3.804 3.804 0 0 1 1.02-.432 4.142 4.142 0 0 1 1.14-.168c.784 0 1.38.164 1.788.492.408.328.612.828.612 1.5v3.348c0 .136.004.312.012.528.016.208.032.368.048.48h-.96a5.482 5.482 0 0 1-.072-.468 7.173 7.173 0 0 1-.024-.54l-.012-.18a3.359 3.359 0 0 1-.396.6c-.168.2-.392.368-.672.504-.272.136-.612.204-1.02.204-.56 0-1.012-.16-1.356-.48-.344-.32-.516-.772-.516-1.356 0-.68.24-1.18.72-1.5.48-.32 1.156-.48 2.028-.48h1.164v-.516c0-.432-.112-.74-.336-.924-.224-.184-.608-.276-1.152-.276Zm1.488 3.012v-.456h-1.056c-.632 0-1.092.092-1.38.276-.28.184-.42.452-.42.804 0 .28.084.508.252.684.176.176.44.264.792.264.328 0 .608-.064.84-.192.232-.136.42-.296.564-.48.144-.192.248-.372.312-.54.064-.168.096-.288.096-.36Zm5.668-3.012c-.48 0-.872.112-1.176.336a2.455 2.455 0 0 0-.72.84V122h-1.056v-6.228h.996l.036 1.116h.024c.168-.352.432-.644.792-.876.36-.24.816-.36 1.368-.36.616 0 1.104.164 1.464.492.368.328.552.824.552 1.488V122h-1.056v-4.26c0-.424-.112-.72-.336-.888-.216-.176-.512-.264-.888-.264Zm6.062 0c-.664 0-1.336.204-2.016.612v-.948a3.804 3.804 0 0 1 1.02-.432 4.142 4.142 0 0 1 1.14-.168c.784 0 1.38.164 1.788.492.408.328.612.828.612 1.5v3.348c0 .136.004.312.012.528.016.208.032.368.048.48h-.96a5.482 5.482 0 0 1-.072-.468 7.173 7.173 0 0 1-.024-.54l-.012-.18a3.359 3.359 0 0 1-.396.6c-.168.2-.392.368-.672.504-.272.136-.612.204-1.02.204-.56 0-1.012-.16-1.356-.48-.344-.32-.516-.772-.516-1.356 0-.68.24-1.18.72-1.5.48-.32 1.156-.48 2.028-.48h1.164v-.516c0-.432-.112-.74-.336-.924-.224-.184-.608-.276-1.152-.276Zm1.488 3.012v-.456h-1.056c-.632 0-1.092.092-1.38.276-.28.184-.42.452-.42.804 0 .28.084.508.252.684.176.176.44.264.792.264.328 0 .608-.064.84-.192.232-.136.42-.296.564-.48.144-.192.248-.372.312-.54.064-.168.096-.288.096-.36Zm2.789 4.032v-.948c.336.184.672.316 1.008.396.336.08.72.12 1.152.12.768 0 1.304-.148 1.608-.444.304-.288.456-.712.456-1.272v-.96a2.265 2.265 0 0 1-.78.888c-.328.224-.736.336-1.224.336s-.944-.112-1.368-.336a2.63 2.63 0 0 1-1.008-1.02c-.248-.448-.372-1.008-.372-1.68 0-.68.124-1.244.372-1.692.256-.456.592-.796 1.008-1.02a2.853 2.853 0 0 1 1.392-.348c.496 0 .912.112 1.248.336.344.224.612.528.804.912l.012-.132c0-.144.008-.316.024-.516.016-.208.032-.368.048-.48h.96a6.754 6.754 0 0 0-.048.48c-.008.208-.012.38-.012.516v4.704c0 .536-.108 1.004-.324 1.404-.208.4-.54.712-.996.936-.456.224-1.06.336-1.812.336-.912 0-1.628-.172-2.148-.516Zm4.236-4.92c0-.712-.176-1.244-.528-1.596-.344-.352-.78-.528-1.308-.528s-.972.176-1.332.528c-.352.352-.528.884-.528 1.596 0 .696.176 1.22.528 1.572.36.344.808.516 1.344.516.52 0 .952-.172 1.296-.516.352-.344.528-.868.528-1.572Zm5.518 3.408c-1.04 0-1.836-.284-2.388-.852-.544-.576-.816-1.372-.816-2.388 0-.68.128-1.26.384-1.74s.608-.848 1.056-1.104a2.993 2.993 0 0 1 1.512-.384c.952 0 1.652.316 2.1.948.448.624.592 1.48.432 2.568h-4.392c.088 1.336.824 2.004 2.208 2.004.76 0 1.46-.216 2.1-.648v.948c-.288.2-.624.36-1.008.48-.384.112-.78.168-1.188.168Zm-.276-5.532c-.456 0-.848.14-1.176.42-.328.28-.536.704-.624 1.272h3.348c.024-.536-.1-.952-.372-1.248-.272-.296-.664-.444-1.176-.444Zm6.964.24c-.496.04-.92.164-1.272.372a1.87 1.87 0 0 0-.756.84V122h-1.056v-6.228h.924l.108 1.356h.024c.2-.416.472-.752.816-1.008a2.553 2.553 0 0 1 1.212-.468v1.176Zm1.148 5.244a.789.789 0 0 1-.564-.216.759.759 0 0 1-.216-.54c0-.224.072-.408.216-.552a.789.789 0 0 1 .564-.216c.224 0 .408.072.552.216a.748.748 0 0 1 .216.552.759.759 0 0 1-.216.54.748.748 0 0 1-.552.216ZM45.728 136.12c-.968 0-1.732-.284-2.292-.852-.56-.576-.84-1.372-.84-2.388 0-1.016.284-1.808.852-2.376.568-.568 1.344-.852 2.328-.852.376 0 .728.044 1.056.132.328.08.592.2.792.36v.948a3.423 3.423 0 0 0-1.836-.504c-.72 0-1.252.192-1.596.576-.344.376-.516.948-.516 1.716s.164 1.344.492 1.728c.336.376.856.564 1.56.564.68 0 1.312-.164 1.896-.492v.948c-.52.328-1.152.492-1.896.492Zm3.183-8.724h1.056V136H48.91v-8.604Zm5.333 8.724c-.568 0-1.08-.124-1.536-.372a2.784 2.784 0 0 1-1.068-1.104c-.264-.488-.396-1.076-.396-1.764s.132-1.272.396-1.752.62-.844 1.068-1.092a3.083 3.083 0 0 1 1.536-.384c.576 0 1.092.128 1.548.384a2.68 2.68 0 0 1 1.08 1.092c.264.48.396 1.064.396 1.752s-.132 1.276-.396 1.764a2.76 2.76 0 0 1-1.08 1.104 3.187 3.187 0 0 1-1.548.372Zm0-.948c.56 0 1.024-.184 1.392-.552.368-.376.552-.956.552-1.74s-.184-1.36-.552-1.728c-.368-.376-.832-.564-1.392-.564-.552 0-1.012.188-1.38.564-.36.368-.54.944-.54 1.728s.18 1.364.54 1.74c.368.368.828.552 1.38.552Zm8.307-.288a2.257 2.257 0 0 1-.78.876c-.344.24-.796.36-1.356.36-.576 0-1.044-.164-1.404-.492-.352-.328-.528-.828-.528-1.5v-4.356h1.068v4.356c0 .408.112.684.336.828.224.144.5.216.828.216.464 0 .836-.104 1.116-.312.28-.208.52-.492.72-.852v-4.236h1.056V136h-.936l-.096-1.116h-.024Zm2.346-2.004c0-.728.128-1.328.384-1.8.256-.48.596-.836 1.02-1.068.432-.24.9-.36 1.404-.36.472 0 .88.1 1.224.3.344.192.62.468.828.828v-3.384h1.056V136h-.924l-.084-1.224a2.46 2.46 0 0 1-.816.984c-.344.24-.776.36-1.296.36-.496 0-.96-.116-1.392-.348-.424-.24-.764-.6-1.02-1.08-.256-.48-.384-1.084-.384-1.812Zm4.872 0c0-.776-.184-1.352-.552-1.728a1.838 1.838 0 0 0-1.368-.564c-.544 0-.992.196-1.344.588-.352.384-.528.952-.528 1.704 0 .76.176 1.332.528 1.716.352.384.8.576 1.344.576s1-.188 1.368-.564c.368-.376.552-.952.552-1.728Zm4.759 3.24c-.456 0-.892-.064-1.308-.192-.408-.136-.74-.316-.996-.54v-.948c.248.24.58.432.996.576.424.144.856.216 1.296.216.976 0 1.464-.316 1.464-.948a.698.698 0 0 0-.132-.444c-.08-.12-.232-.22-.456-.3a5.694 5.694 0 0 0-.972-.252c-.808-.16-1.372-.376-1.692-.648-.32-.28-.48-.676-.48-1.188 0-.568.22-1.008.66-1.32.44-.32 1.048-.48 1.824-.48.368 0 .728.04 1.08.12.36.072.652.172.876.3v.948c-.464-.32-1.104-.48-1.92-.48-.504 0-.876.072-1.116.216-.232.144-.348.368-.348.672 0 .16.036.292.108.396.072.104.216.196.432.276.216.08.54.164.972.252.552.112.988.248 1.308.408.328.152.56.348.696.588.144.24.216.544.216.912 0 .584-.22 1.04-.66 1.368-.44.328-1.056.492-1.848.492Zm4.385-.048a.789.789 0 0 1-.564-.216.759.759 0 0 1-.216-.54c0-.224.072-.408.216-.552a.789.789 0 0 1 .564-.216c.224 0 .408.072.552.216a.748.748 0 0 1 .216.552.759.759 0 0 1-.216.54.748.748 0 0 1-.552.216Zm6.23-4.428c0-.4-.1-.676-.3-.828-.2-.152-.471-.228-.815-.228-.448 0-.804.112-1.068.336-.264.216-.496.5-.696.852V136h-1.056v-6.228h.924l.108 1.116h.024a2.21 2.21 0 0 1 .756-.876c.344-.24.784-.36 1.32-.36.472 0 .864.116 1.176.348.312.224.52.564.624 1.02.176-.424.444-.756.804-.996.368-.248.812-.372 1.332-.372.568 0 1.02.164 1.356.492.344.328.516.824.516 1.488V136H89.08v-4.236c0-.408-.1-.704-.3-.888-.2-.192-.472-.288-.816-.288-.456 0-.816.132-1.08.396a3.78 3.78 0 0 0-.684.912V136h-1.056v-4.356Zm9.418 4.476c-1.04 0-1.836-.284-2.388-.852-.544-.576-.816-1.372-.816-2.388 0-.68.129-1.26.385-1.74.255-.48.608-.848 1.055-1.104a2.993 2.993 0 0 1 1.513-.384c.951 0 1.651.316 2.1.948.448.624.591 1.48.431 2.568H92.45c.087 1.336.823 2.004 2.207 2.004.76 0 1.46-.216 2.1-.648v.948c-.288.2-.624.36-1.008.48-.383.112-.78.168-1.188.168Zm-.276-5.532c-.456 0-.847.14-1.175.42-.329.28-.537.704-.624 1.272h3.347c.025-.536-.1-.952-.371-1.248-.273-.296-.665-.444-1.177-.444Zm7.816 1.056c0-.4-.1-.676-.3-.828-.2-.152-.472-.228-.816-.228-.448 0-.804.112-1.068.336-.264.216-.496.5-.696.852V136h-1.056v-6.228h.924l.108 1.116h.024a2.21 2.21 0 0 1 .756-.876c.344-.24.784-.36 1.32-.36.472 0 .864.116 1.176.348.312.224.52.564.624 1.02.176-.424.444-.756.804-.996.368-.248.812-.372 1.332-.372.568 0 1.02.164 1.356.492.344.328.516.824.516 1.488V136h-1.068v-4.236c0-.408-.1-.704-.3-.888-.2-.192-.472-.288-.816-.288-.456 0-.816.132-1.08.396a3.78 3.78 0 0 0-.684.912V136h-1.056v-4.356Zm6.658-4.248h1.056l-.024 3.588c.208-.4.488-.72.84-.96.352-.248.788-.372 1.308-.372.488 0 .936.12 1.344.36.416.232.752.588 1.008 1.068.256.472.384 1.072.384 1.8s-.132 1.332-.396 1.812c-.256.48-.596.84-1.02 1.08a2.761 2.761 0 0 1-1.368.348c-.48 0-.9-.116-1.26-.348a2.48 2.48 0 0 1-.84-.948l-.036 1.176h-.996v-8.604Zm4.824 5.484c0-.752-.172-1.32-.516-1.704-.344-.392-.788-.588-1.332-.588s-1.004.192-1.38.576c-.368.376-.552.948-.552 1.716 0 .776.184 1.352.552 1.728.376.376.836.564 1.38.564.544 0 .988-.192 1.332-.576.344-.384.516-.956.516-1.716Zm5.131 3.24c-1.04 0-1.836-.284-2.388-.852-.544-.576-.816-1.372-.816-2.388 0-.68.128-1.26.384-1.74s.608-.848 1.056-1.104a2.993 2.993 0 0 1 1.512-.384c.952 0 1.652.316 2.1.948.448.624.592 1.48.432 2.568h-4.392c.088 1.336.824 2.004 2.208 2.004.76 0 1.46-.216 2.1-.648v.948c-.288.2-.624.36-1.008.48-.384.112-.78.168-1.188.168Zm-.276-5.532c-.456 0-.848.14-1.176.42-.328.28-.536.704-.624 1.272h3.348c.024-.536-.1-.952-.372-1.248-.272-.296-.664-.444-1.176-.444Zm6.963.24c-.496.04-.92.164-1.272.372a1.87 1.87 0 0 0-.756.84V136h-1.056v-6.228h.924l.108 1.356h.024c.2-.416.472-.752.816-1.008a2.553 2.553 0 0 1 1.212-.468v1.176Z"/>
    <path stroke="#4E496B" stroke-width="2" d="M84 100V87.993C84 83.574 87.582 80 92 80h148"/>
    <path fill="#4E496B" d="m266 60-5.774 10h11.548L266 60Zm-1 9v3.007h2V69h-2Zm-7 10H127v2h131v-2Zm7-6.993A6.994 6.994 0 0 1 258 79v2c4.969 0 9-4.02 9-8.993h-2Z"/>
    <path stroke="#4E496B" stroke-width="2" d="M266 70v30"/>
</svg>
