<svg xmlns="http://www.w3.org/2000/svg" width="24" height="24" fill="none"><path fill="#D8D8D8" d="M0 0h24v24H0z" opacity=".01"/><path fill="#1E88E5" fill-rule="evenodd" d="M5 0a2 2 0 0 0-2 2v18a2 2 0 0 0 2 2h14a2 2 0 0 0 2-2V6l-6-6H5Z" clip-rule="evenodd"/><path fill="#fff" fill-rule="evenodd" d="M17 12a5 5 0 1 1-5-5v5h5Z" clip-rule="evenodd" opacity=".9"/><path fill="#fff" fill-rule="evenodd" d="M17.9 10.1H14V6.2a5.006 5.006 0 0 1 3.9 3.9Z" clip-rule="evenodd" opacity=".9"/><path fill="#105FCC" fill-rule="evenodd" d="M17 6h4l-6-6v4a2 2 0 0 0 2 2Z" clip-rule="evenodd"/></svg>