<svg xmlns="http://www.w3.org/2000/svg" width="580" height="760" fill="none" viewBox="0 0 580 760">
    <path fill="#fff" d="M0 0h580v760H0z"/>
    <rect width="139" height="89" x="20.5" y="40.5" fill="#fff" stroke="#67B0F8" rx="4.5"/>
    <path fill="#18123D" d="M68.87 90.14c-.747 0-1.424-.117-2.03-.35a4.443 4.443 0 0 1-1.568-1.008 4.62 4.62 0 0 1-.994-1.624c-.234-.644-.35-1.367-.35-2.17 0-.812.107-1.535.322-2.17a4.267 4.267 0 0 1 .952-1.61c.42-.448.933-.789 1.54-1.022.616-.233 1.316-.35 2.1-.35.681 0 1.279.075 1.792.224.513.14.933.308 1.26.504v1.26a4.643 4.643 0 0 0-1.456-.602 6.84 6.84 0 0 0-1.61-.196c-1.186 0-2.063.331-2.632.994-.56.653-.84 1.643-.84 2.968 0 1.335.303 2.329.91 2.982.616.653 1.521.98 2.716.98.513 0 1.013-.07 1.498-.21.495-.14.966-.378 1.414-.714v1.26c-.27.215-.668.41-1.19.588-.513.177-1.125.266-1.834.266Zm7.784 0a3.77 3.77 0 0 1-1.386-.252 3.228 3.228 0 0 1-1.12-.728 3.547 3.547 0 0 1-.728-1.19c-.177-.467-.266-1.003-.266-1.61 0-.597.089-1.13.266-1.596a3.37 3.37 0 0 1 .728-1.19c.317-.317.69-.56 1.12-.728a3.77 3.77 0 0 1 1.386-.252c.504 0 .97.084 1.4.252.43.168.798.41 1.106.728.317.317.565.714.742 1.19.187.467.28.999.28 1.596 0 .607-.093 1.143-.28 1.61a3.435 3.435 0 0 1-.742 1.19c-.308.317-.677.56-1.106.728-.43.168-.896.252-1.4.252Zm0-1.106a2.5 2.5 0 0 0 .896-.154 2.04 2.04 0 0 0 .728-.49 2.3 2.3 0 0 0 .476-.84c.112-.336.168-.733.168-1.19 0-.457-.056-.854-.168-1.19a2.165 2.165 0 0 0-.476-.826 1.83 1.83 0 0 0-.728-.49 2.322 2.322 0 0 0-.896-.168c-.327 0-.625.056-.896.168a1.85 1.85 0 0 0-.714.49c-.196.215-.35.49-.462.826a3.774 3.774 0 0 0-.168 1.19c0 .457.056.854.168 1.19.112.336.266.616.462.84.205.215.443.378.714.49.27.103.57.154.896.154Zm10.113-1.148c0 .41-.084.76-.252 1.05-.158.28-.378.513-.658.7-.28.177-.606.303-.98.378a5.091 5.091 0 0 1-1.148.126 5.39 5.39 0 0 1-1.414-.168c-.4-.112-.718-.247-.952-.406V88.46c.29.177.635.317 1.036.42.402.103.836.154 1.302.154.532 0 .976-.084 1.33-.252.364-.177.546-.476.546-.896 0-.41-.154-.7-.462-.868-.298-.168-.76-.252-1.386-.252h-.966v-.994h1.008c.514 0 .906-.093 1.176-.28.271-.187.406-.457.406-.812a.735.735 0 0 0-.14-.462.866.866 0 0 0-.35-.308 1.486 1.486 0 0 0-.532-.168 3.37 3.37 0 0 0-.63-.056c-.429 0-.83.051-1.204.154a3.821 3.821 0 0 0-.994.434v-1.106c.243-.159.556-.294.938-.406a4.959 4.959 0 0 1 1.358-.168c.887 0 1.554.168 2.002.504.458.336.686.821.686 1.456 0 .476-.13.85-.392 1.12-.252.27-.61.457-1.078.56.58.075 1.013.257 1.302.546.3.29.448.658.448 1.106Zm1.415 1.064c.262-.159.467-.406.616-.742.15-.336.266-.76.35-1.274a15.2 15.2 0 0 0 .168-1.82c.038-.7.07-1.493.098-2.38h4.998v6.216h1.092v3.122h-1.078L94.272 90h-5.404l-.126 2.072h-1.106V88.95h.546Zm4.998 0v-5.166h-2.66c-.046 1.372-.135 2.473-.266 3.304-.12.821-.336 1.442-.644 1.862h3.57Zm7.799-.336a4.219 4.219 0 0 1-.322.532 2.444 2.444 0 0 1-1.19.854 2.75 2.75 0 0 1-.924.14c-.654 0-1.18-.182-1.582-.546-.401-.373-.602-.905-.602-1.596 0-.793.275-1.377.826-1.75.56-.373 1.353-.56 2.38-.56h1.358v-.602c0-.504-.131-.863-.392-1.078-.261-.215-.71-.322-1.344-.322a3.63 3.63 0 0 0-1.274.224c-.401.14-.76.303-1.078.49v-1.106a5.442 5.442 0 0 1 1.05-.462 4.374 4.374 0 0 1 1.47-.238c.915 0 1.61.191 2.086.574.476.373.714.957.714 1.75v4.2c.009.103.014.21.014.322l.028.322c.009.093.019.173.028.238h-1.12a6.4 6.4 0 0 1-.084-.546 8.197 8.197 0 0 1-.028-.63l-.014-.21Zm-2.17.42c.383 0 .71-.08.98-.238.271-.159.49-.34.658-.546.168-.215.289-.42.364-.616.075-.205.112-.35.112-.434v-.532h-1.232c-.737 0-1.274.107-1.61.322-.327.205-.49.518-.49.938 0 .327.098.593.294.798.196.205.504.308.924.308Zm8.141-5.25V90h-1.232v-6.216h-2.282v-1.05h5.838v1.05h-2.324Zm9.15 3.794c0 .42-.075.784-.224 1.092a2 2 0 0 1-.63.756c-.271.196-.593.34-.966.434-.374.093-.78.14-1.218.14h-2.408v-7.266h1.232v2.534h1.26c.924 0 1.647.182 2.17.546.522.364.784.952.784 1.764Zm-4.214-1.26v2.632h1.176c.532 0 .961-.098 1.288-.294.336-.205.504-.541.504-1.008 0-.476-.15-.817-.448-1.022-.299-.205-.719-.308-1.26-.308h-1.26Z"/>
    <ellipse cx="290" cy="85" fill="#FFF5CC" rx="70" ry="45"/>
    <path fill="#000" d="M241.95 79.962h3.206c1.139 0 2.021.238 2.646.714.635.467.952 1.2.952 2.198 0 .57-.093 1.06-.28 1.47a2.584 2.584 0 0 1-.756.994 3.138 3.138 0 0 1-1.176.574 5.728 5.728 0 0 1-1.498.182h-1.778V90h-1.316V79.962Zm1.316 1.204v3.738h1.778c.355 0 .677-.037.966-.112.29-.075.537-.191.742-.35.215-.159.378-.364.49-.616.122-.261.182-.574.182-.938 0-.607-.196-1.045-.588-1.316-.392-.27-.952-.406-1.68-.406h-1.89Zm7.229-1.204h3.36c1.186 0 2.086.233 2.702.7.626.457.938 1.18.938 2.17 0 .877-.214 1.55-.644 2.016-.42.467-.975.775-1.666.924l2.73 4.228h-1.484l-2.618-4.074h-2.002V90h-1.316V79.962Zm1.316 1.204v3.57h1.918c.355 0 .677-.033.966-.098a1.99 1.99 0 0 0 .756-.322c.215-.15.378-.345.49-.588.122-.252.182-.56.182-.924 0-.597-.196-1.017-.588-1.26-.392-.252-.952-.378-1.68-.378h-2.044Zm11.881 8.974a5.264 5.264 0 0 1-1.89-.336 4.353 4.353 0 0 1-1.526-1.008c-.43-.439-.77-.98-1.022-1.624-.243-.644-.364-1.386-.364-2.226 0-.84.121-1.577.364-2.212.252-.644.592-1.176 1.022-1.596.429-.43.938-.751 1.526-.966a5.264 5.264 0 0 1 1.89-.336c.681 0 1.316.112 1.904.336a4.14 4.14 0 0 1 1.526.966c.429.43.765.966 1.008 1.61.242.635.364 1.372.364 2.212 0 .83-.122 1.568-.364 2.212a4.619 4.619 0 0 1-1.008 1.624c-.43.439-.938.775-1.526 1.008a5.305 5.305 0 0 1-1.904.336Zm0-1.19c.485 0 .933-.07 1.344-.21.41-.15.765-.378 1.064-.686.308-.317.546-.728.714-1.232.177-.504.266-1.115.266-1.834 0-.719-.089-1.33-.266-1.834-.168-.504-.406-.91-.714-1.218a2.593 2.593 0 0 0-1.064-.686 3.909 3.909 0 0 0-1.344-.224 3.9 3.9 0 0 0-1.344.224c-.411.14-.77.369-1.078.686-.299.308-.537.714-.714 1.218-.168.504-.252 1.115-.252 1.834 0 .719.084 1.33.252 1.834.177.504.415.915.714 1.232.308.308.667.537 1.078.686.41.14.858.21 1.344.21ZM274.419 90h-2.058l-3.5-10.038h1.372l3.206 9.24 3.206-9.24h1.26L274.419 90Zm6.185-10.038V90h-1.316V79.962h1.316Zm5.135 10.178a7.04 7.04 0 0 1-1.232-.098 5.918 5.918 0 0 1-.966-.224 4.961 4.961 0 0 1-.7-.322 2.76 2.76 0 0 1-.448-.35v-1.26c.14.121.322.247.546.378.224.121.48.233.77.336.298.103.616.187.952.252a5.81 5.81 0 0 0 1.078.098c.728 0 1.306-.135 1.736-.406.429-.28.644-.7.644-1.26 0-.28-.052-.509-.154-.686a1.25 1.25 0 0 0-.448-.462 2.617 2.617 0 0 0-.742-.322 20.18 20.18 0 0 0-1.022-.294c-.392-.103-.784-.22-1.176-.35a4.327 4.327 0 0 1-1.064-.518 2.622 2.622 0 0 1-.756-.812c-.187-.327-.28-.742-.28-1.246 0-.868.303-1.545.91-2.03.606-.485 1.535-.728 2.786-.728.364 0 .686.023.966.07.289.037.541.089.756.154.224.056.415.121.574.196.168.075.317.145.448.21v1.26a3.933 3.933 0 0 0-1.274-.532 6.055 6.055 0 0 0-1.47-.168c-.448 0-.826.037-1.134.112a2.004 2.004 0 0 0-.728.294c-.187.13-.322.29-.406.476a1.52 1.52 0 0 0-.126.63c0 .28.06.513.182.7.13.187.298.345.504.476.214.121.457.224.728.308.27.084.555.159.854.224.392.093.793.2 1.204.322.41.121.779.29 1.106.504.326.215.592.495.798.84.214.336.322.775.322 1.316 0 .532-.108.985-.322 1.358a2.63 2.63 0 0 1-.826.896 3.506 3.506 0 0 1-1.19.504 6.25 6.25 0 0 1-1.4.154Zm6.719-10.178V90h-1.316V79.962h1.316Zm6.548 10.178a5.264 5.264 0 0 1-1.89-.336 4.362 4.362 0 0 1-1.526-1.008 4.78 4.78 0 0 1-1.022-1.624c-.242-.644-.364-1.386-.364-2.226 0-.84.122-1.577.364-2.212.252-.644.593-1.176 1.022-1.596a4.14 4.14 0 0 1 1.526-.966 5.264 5.264 0 0 1 1.89-.336c.682 0 1.316.112 1.904.336a4.132 4.132 0 0 1 1.526.966c.43.43.766.966 1.008 1.61.243.635.364 1.372.364 2.212 0 .83-.121 1.568-.364 2.212a4.59 4.59 0 0 1-1.008 1.624 4.353 4.353 0 0 1-1.526 1.008 5.301 5.301 0 0 1-1.904.336Zm0-1.19c.486 0 .934-.07 1.344-.21a2.79 2.79 0 0 0 1.064-.686c.308-.317.546-.728.714-1.232.178-.504.266-1.115.266-1.834 0-.719-.088-1.33-.266-1.834-.168-.504-.406-.91-.714-1.218a2.58 2.58 0 0 0-1.064-.686 3.9 3.9 0 0 0-1.344-.224c-.485 0-.933.075-1.344.224-.41.14-.77.369-1.078.686-.298.308-.536.714-.714 1.218-.168.504-.252 1.115-.252 1.834 0 .719.084 1.33.252 1.834.178.504.416.915.714 1.232a2.92 2.92 0 0 0 1.078.686c.411.14.859.21 1.344.21ZM313.644 90h-1.792l-5.04-8.428V90h-1.246V79.962h1.778l5.04 8.428v-8.428h1.26V90Zm3.656-10.038V90h-1.316V79.962h1.316ZM327.712 90h-1.792l-5.04-8.428V90h-1.246V79.962h1.778l5.04 8.428v-8.428h1.26V90Zm10.824-3.934c0 .588-.089 1.13-.266 1.624a3.371 3.371 0 0 1-.784 1.288 3.656 3.656 0 0 1-1.344.854c-.532.205-1.162.308-1.89.308a5.054 5.054 0 0 1-1.946-.364 4.446 4.446 0 0 1-1.512-1.05 4.72 4.72 0 0 1-.98-1.624c-.233-.635-.35-1.34-.35-2.114 0-.775.112-1.48.336-2.114a4.458 4.458 0 0 1 .98-1.624 4.42 4.42 0 0 1 1.624-1.036c.644-.252 1.386-.378 2.226-.378.429 0 .812.028 1.148.084.345.056.649.126.91.21.261.084.485.177.672.28.196.103.364.2.504.294v1.26a9.698 9.698 0 0 0-.686-.364 4.552 4.552 0 0 0-.756-.308 5.463 5.463 0 0 0-.854-.196 6.362 6.362 0 0 0-.98-.07c-.635 0-1.185.089-1.652.266-.457.177-.84.439-1.148.784a3.256 3.256 0 0 0-.672 1.246c-.149.485-.224 1.04-.224 1.666 0 1.25.294 2.226.882 2.926.597.69 1.423 1.036 2.478 1.036.523 0 .971-.065 1.344-.196.373-.14.677-.327.91-.56.233-.243.401-.527.504-.854.112-.336.168-.7.168-1.092v-.28h-3.234v-1.19h4.592v1.288Z"/>
    <ellipse cx="460" cy="85" fill="#FFF5CC" rx="70" ry="45"/>
    <path fill="#000" d="M430.473 90.14a7.02 7.02 0 0 1-1.232-.098 5.918 5.918 0 0 1-.966-.224 4.961 4.961 0 0 1-.7-.322 2.76 2.76 0 0 1-.448-.35v-1.26c.14.121.322.247.546.378.224.121.481.233.77.336.299.103.616.187.952.252.345.065.705.098 1.078.098.728 0 1.307-.135 1.736-.406.429-.28.644-.7.644-1.26 0-.28-.051-.509-.154-.686a1.25 1.25 0 0 0-.448-.462 2.604 2.604 0 0 0-.742-.322c-.289-.093-.63-.191-1.022-.294-.392-.103-.784-.22-1.176-.35a4.327 4.327 0 0 1-1.064-.518 2.622 2.622 0 0 1-.756-.812c-.187-.327-.28-.742-.28-1.246 0-.868.303-1.545.91-2.03.607-.485 1.535-.728 2.786-.728.364 0 .686.023.966.07.289.037.541.089.756.154.224.056.415.121.574.196.168.075.317.145.448.21v1.26a3.933 3.933 0 0 0-1.274-.532 6.055 6.055 0 0 0-1.47-.168c-.448 0-.826.037-1.134.112a2.011 2.011 0 0 0-.728.294c-.187.13-.322.29-.406.476a1.52 1.52 0 0 0-.126.63c0 .28.061.513.182.7.131.187.299.345.504.476.215.121.457.224.728.308.271.084.555.159.854.224.392.093.793.2 1.204.322.411.121.779.29 1.106.504.327.215.593.495.798.84.215.336.322.775.322 1.316 0 .532-.107.985-.322 1.358a2.62 2.62 0 0 1-.826.896 3.498 3.498 0 0 1-1.19.504 6.25 6.25 0 0 1-1.4.154Zm9.071-8.96V90h-1.33v-8.82h-3.094v-1.218h7.518v1.218h-3.094Zm6.403-1.218h1.96L451.505 90h-1.4l-1.036-2.87h-4.438L443.609 90h-1.232l3.57-10.038Zm2.702 5.978-1.792-4.998-1.792 4.998h3.584Zm4.317-5.978h3.36c1.185 0 2.086.233 2.702.7.625.457.938 1.18.938 2.17 0 .877-.215 1.55-.644 2.016-.42.467-.975.775-1.666.924l2.73 4.228h-1.484l-2.618-4.074h-2.002V90h-1.316V79.962Zm1.316 1.204v3.57h1.918c.355 0 .677-.033.966-.098a1.99 1.99 0 0 0 .756-.322c.215-.15.378-.345.49-.588.121-.252.182-.56.182-.924 0-.597-.196-1.017-.588-1.26-.392-.252-.952-.378-1.68-.378h-2.044Zm11.266.014V90h-1.33v-8.82h-3.094v-1.218h7.518v1.218h-3.094Zm6.029-1.218V90h-1.316V79.962h1.316ZM481.989 90h-1.792l-5.04-8.428V90h-1.246V79.962h1.778l5.04 8.428v-8.428h1.26V90Zm10.824-3.934c0 .588-.088 1.13-.266 1.624a3.371 3.371 0 0 1-.784 1.288 3.64 3.64 0 0 1-1.344.854c-.532.205-1.162.308-1.89.308a5.054 5.054 0 0 1-1.946-.364 4.446 4.446 0 0 1-1.512-1.05 4.735 4.735 0 0 1-.98-1.624c-.233-.635-.35-1.34-.35-2.114 0-.775.112-1.48.336-2.114a4.458 4.458 0 0 1 .98-1.624 4.42 4.42 0 0 1 1.624-1.036c.644-.252 1.386-.378 2.226-.378.43 0 .812.028 1.148.084.346.056.649.126.91.21.262.084.486.177.672.28.196.103.364.2.504.294v1.26a9.484 9.484 0 0 0-.686-.364 4.552 4.552 0 0 0-.756-.308 5.463 5.463 0 0 0-.854-.196 6.353 6.353 0 0 0-.98-.07c-.634 0-1.185.089-1.652.266-.457.177-.84.439-1.148.784a3.284 3.284 0 0 0-.672 1.246c-.149.485-.224 1.04-.224 1.666 0 1.25.294 2.226.882 2.926.598.69 1.424 1.036 2.478 1.036.523 0 .971-.065 1.344-.196.374-.14.677-.327.91-.56.234-.243.402-.527.504-.854.112-.336.168-.7.168-1.092v-.28h-3.234v-1.19h4.592v1.288Z"/>
    <ellipse cx="460" cy="445" fill="#FFF5CC" rx="70" ry="45"/>
    <path fill="#000" d="M418.964 439.962h3.36c1.185 0 2.086.233 2.702.7.625.457.938 1.181.938 2.17 0 .877-.215 1.549-.644 2.016-.42.467-.975.775-1.666.924l2.73 4.228H424.9l-2.618-4.074h-2.002V450h-1.316v-10.038Zm1.316 1.204v3.57h1.918c.355 0 .677-.033.966-.098a1.99 1.99 0 0 0 .756-.322c.215-.149.378-.345.49-.588.121-.252.182-.56.182-.924 0-.597-.196-1.017-.588-1.26-.392-.252-.952-.378-1.68-.378h-2.044Zm7.803-1.204h6.216v1.204h-4.9v3.038h4.158v1.19h-4.158v3.416h4.97V450h-6.286v-10.038Zm11.099 10.178c-.457 0-.868-.033-1.232-.098a5.95 5.95 0 0 1-.966-.224 4.995 4.995 0 0 1-.7-.322 2.744 2.744 0 0 1-.448-.35v-1.26c.14.121.322.247.546.378.224.121.481.233.77.336.299.103.616.187.952.252.345.065.705.098 1.078.098.728 0 1.307-.135 1.736-.406.429-.28.644-.7.644-1.26 0-.28-.051-.509-.154-.686a1.245 1.245 0 0 0-.448-.462 2.596 2.596 0 0 0-.742-.322c-.289-.093-.63-.191-1.022-.294a18.704 18.704 0 0 1-1.176-.35 4.327 4.327 0 0 1-1.064-.518 2.622 2.622 0 0 1-.756-.812c-.187-.327-.28-.742-.28-1.246 0-.868.303-1.545.91-2.03.607-.485 1.535-.728 2.786-.728.364 0 .686.023.966.07.289.037.541.089.756.154.224.056.415.121.574.196.168.075.317.145.448.21v1.26a3.94 3.94 0 0 0-1.274-.532 6.055 6.055 0 0 0-1.47-.168c-.448 0-.826.037-1.134.112a2 2 0 0 0-.728.294 1.158 1.158 0 0 0-.406.476 1.521 1.521 0 0 0-.126.63c0 .28.061.513.182.7.131.187.299.345.504.476.215.121.457.224.728.308.271.084.555.159.854.224.392.093.793.201 1.204.322.411.121.779.289 1.106.504.327.215.593.495.798.84.215.336.322.775.322 1.316 0 .532-.107.985-.322 1.358a2.618 2.618 0 0 1-.826.896 3.51 3.51 0 0 1-1.19.504 6.232 6.232 0 0 1-1.4.154Zm9.071-8.96V450h-1.33v-8.82h-3.094v-1.218h7.518v1.218h-3.094Zm6.403-1.218h1.96L460.214 450h-1.4l-1.036-2.87h-4.438l-1.022 2.87h-1.232l3.57-10.038Zm2.702 5.978-1.792-4.998-1.792 4.998h3.584Zm4.317-5.978h3.36c1.185 0 2.086.233 2.702.7.625.457.938 1.181.938 2.17 0 .877-.215 1.549-.644 2.016-.42.467-.975.775-1.666.924l2.73 4.228h-1.484l-2.618-4.074h-2.002V450h-1.316v-10.038Zm1.316 1.204v3.57h1.918c.355 0 .677-.033.966-.098a1.99 1.99 0 0 0 .756-.322c.215-.149.378-.345.49-.588.121-.252.182-.56.182-.924 0-.597-.196-1.017-.588-1.26-.392-.252-.952-.378-1.68-.378h-2.044Zm11.266.014V450h-1.33v-8.82h-3.094v-1.218h7.518v1.218h-3.094Zm6.029-1.218V450h-1.316v-10.038h1.316ZM490.698 450h-1.792l-5.04-8.428V450h-1.246v-10.038h1.778l5.04 8.428v-8.428h1.26V450Zm10.824-3.934c0 .588-.088 1.129-.266 1.624a3.369 3.369 0 0 1-.784 1.288 3.636 3.636 0 0 1-1.344.854c-.532.205-1.162.308-1.89.308a5.049 5.049 0 0 1-1.946-.364 4.446 4.446 0 0 1-1.512-1.05 4.732 4.732 0 0 1-.98-1.624c-.233-.635-.35-1.339-.35-2.114 0-.775.112-1.479.336-2.114a4.456 4.456 0 0 1 .98-1.624 4.42 4.42 0 0 1 1.624-1.036c.644-.252 1.386-.378 2.226-.378.43 0 .812.028 1.148.084.346.056.649.126.91.21.262.084.486.177.672.28.196.103.364.201.504.294v1.26a9.367 9.367 0 0 0-.686-.364 4.578 4.578 0 0 0-.756-.308 5.498 5.498 0 0 0-.854-.196 6.315 6.315 0 0 0-.98-.07c-.634 0-1.185.089-1.652.266-.457.177-.84.439-1.148.784a3.281 3.281 0 0 0-.672 1.246c-.149.485-.224 1.041-.224 1.666 0 1.251.294 2.226.882 2.926.598.691 1.424 1.036 2.478 1.036.523 0 .971-.065 1.344-.196.374-.14.677-.327.91-.56.234-.243.402-.527.504-.854.112-.336.168-.7.168-1.092v-.28h-3.234v-1.19h4.592v1.288Z"/>
    <ellipse cx="460" cy="205" fill="#DDF2E1" rx="70" ry="45"/>
    <path fill="#000" d="M429.211 199.962h3.36c1.185 0 2.086.233 2.702.7.625.457.938 1.181.938 2.17 0 .877-.215 1.549-.644 2.016-.42.467-.975.775-1.666.924l2.73 4.228h-1.484l-2.618-4.074h-2.002V210h-1.316v-10.038Zm1.316 1.204v3.57h1.918c.355 0 .677-.033.966-.098a1.99 1.99 0 0 0 .756-.322c.215-.149.378-.345.49-.588.121-.252.182-.56.182-.924 0-.597-.196-1.017-.588-1.26-.392-.252-.952-.378-1.68-.378h-2.044Zm7.429-1.204h1.33v6.608c0 .812.228 1.414.686 1.806.466.392 1.101.588 1.904.588a3.93 3.93 0 0 0 1.078-.14 2.56 2.56 0 0 0 .868-.448 2.06 2.06 0 0 0 .56-.756c.14-.299.21-.649.21-1.05v-6.608h1.26v6.566c0 .579-.103 1.092-.308 1.54-.206.448-.49.826-.854 1.134a3.616 3.616 0 0 1-1.26.7 5.059 5.059 0 0 1-1.582.238 5.128 5.128 0 0 1-1.54-.224 3.552 3.552 0 0 1-1.246-.672 3.117 3.117 0 0 1-.812-1.106c-.196-.448-.294-.966-.294-1.554v-6.622ZM455.965 210h-1.792l-5.04-8.428V210h-1.246v-10.038h1.778l5.04 8.428v-8.428h1.26V210Zm10.418 0h-1.792l-5.04-8.428V210h-1.246v-10.038h1.778l5.04 8.428v-8.428h1.26V210Zm3.656-10.038V210h-1.316v-10.038h1.316ZM480.451 210h-1.792l-5.04-8.428V210h-1.246v-10.038h1.778l5.04 8.428v-8.428h1.26V210Zm10.824-3.934c0 .588-.088 1.129-.266 1.624a3.369 3.369 0 0 1-.784 1.288 3.636 3.636 0 0 1-1.344.854c-.532.205-1.162.308-1.89.308a5.049 5.049 0 0 1-1.946-.364 4.446 4.446 0 0 1-1.512-1.05 4.732 4.732 0 0 1-.98-1.624c-.233-.635-.35-1.339-.35-2.114 0-.775.112-1.479.336-2.114a4.456 4.456 0 0 1 .98-1.624 4.42 4.42 0 0 1 1.624-1.036c.644-.252 1.386-.378 2.226-.378.43 0 .812.028 1.148.084.346.056.649.126.91.21.262.084.486.177.672.28.196.103.364.201.504.294v1.26a9.367 9.367 0 0 0-.686-.364 4.578 4.578 0 0 0-.756-.308 5.498 5.498 0 0 0-.854-.196 6.315 6.315 0 0 0-.98-.07c-.634 0-1.185.089-1.652.266-.457.177-.84.439-1.148.784a3.281 3.281 0 0 0-.672 1.246c-.149.485-.224 1.041-.224 1.666 0 1.251.294 2.226.882 2.926.598.691 1.424 1.036 2.478 1.036.523 0 .971-.065 1.344-.196.374-.14.677-.327.91-.56.234-.243.402-.527.504-.854.112-.336.168-.7.168-1.092v-.28h-3.234v-1.19h4.592v1.288Z"/>
    <rect width="139" height="89" x="390.5" y="280.5" fill="#fff" stroke="#67B0F8" rx="4.5"/>
    <path fill="#18123D" d="M411.896 319.962h7.546V330h-1.33v-8.834h-4.9V330h-1.316v-10.038Zm15.498 9.422a3.685 3.685 0 0 1-.378.238 4.34 4.34 0 0 1-.546.252 4.576 4.576 0 0 1-.728.182c-.27.056-.574.084-.91.084-1.222 0-2.151-.331-2.786-.994-.634-.663-.952-1.591-.952-2.786 0-.588.084-1.115.252-1.582.178-.467.42-.859.728-1.176a3.024 3.024 0 0 1 1.092-.742 3.5 3.5 0 0 1 1.372-.266c.523 0 .99.089 1.4.266.411.177.747.439 1.008.784.271.345.453.775.546 1.288.103.504.103 1.092 0 1.764h-5.124c.047.784.28 1.372.7 1.764.42.383 1.046.574 1.876.574.56 0 1.041-.079 1.442-.238a5.015 5.015 0 0 0 1.008-.518v1.106Zm-2.884-5.698c-.532 0-.989.163-1.372.49-.382.327-.625.821-.728 1.484h3.906c.038-.672-.116-1.167-.462-1.484-.345-.327-.793-.49-1.344-.49Zm8.29 6.454c-.56 0-1.046-.131-1.456-.392a2.84 2.84 0 0 1-.966-1.078v3.808h-1.232v-9.744h1.078l.126 1.414c.242-.476.569-.854.98-1.134.41-.28.919-.42 1.526-.42.42 0 .821.079 1.204.238.392.149.732.383 1.022.7.298.308.532.7.7 1.176.177.467.266 1.017.266 1.652 0 .644-.089 1.204-.266 1.68a3.526 3.526 0 0 1-.714 1.176 3.002 3.002 0 0 1-1.036.7 3.44 3.44 0 0 1-1.232.224Zm-.182-1.106c.644 0 1.162-.219 1.554-.658.401-.448.602-1.12.602-2.016 0-.877-.201-1.54-.602-1.988-.392-.457-.91-.686-1.554-.686-.318 0-.616.056-.896.168a1.99 1.99 0 0 0-.714.504c-.196.215-.355.49-.476.826a3.723 3.723 0 0 0-.168 1.176c0 .448.056.84.168 1.176.121.336.28.616.476.84.205.224.443.392.714.504.28.103.578.154.896.154Zm10.704.35a3.685 3.685 0 0 1-.378.238 4.34 4.34 0 0 1-.546.252 4.576 4.576 0 0 1-.728.182c-.27.056-.574.084-.91.084-1.222 0-2.151-.331-2.786-.994-.634-.663-.952-1.591-.952-2.786 0-.588.084-1.115.252-1.582.178-.467.42-.859.728-1.176a3.024 3.024 0 0 1 1.092-.742 3.5 3.5 0 0 1 1.372-.266c.523 0 .99.089 1.4.266.411.177.747.439 1.008.784.271.345.453.775.546 1.288.103.504.103 1.092 0 1.764h-5.124c.047.784.28 1.372.7 1.764.42.383 1.046.574 1.876.574.56 0 1.041-.079 1.442-.238a5.015 5.015 0 0 0 1.008-.518v1.106Zm-2.884-5.698c-.532 0-.989.163-1.372.49-.382.327-.625.821-.728 1.484h3.906c.038-.672-.116-1.167-.462-1.484-.345-.327-.793-.49-1.344-.49Zm9.787 4.2c0 .411-.084.761-.252 1.05-.158.28-.378.513-.658.7-.28.177-.606.303-.98.378a5.087 5.087 0 0 1-1.148.126 5.392 5.392 0 0 1-1.414-.168c-.401-.112-.718-.247-.952-.406v-1.106c.29.177.635.317 1.036.42.402.103.836.154 1.302.154.532 0 .976-.084 1.33-.252.364-.177.546-.476.546-.896 0-.411-.154-.7-.462-.868-.298-.168-.76-.252-1.386-.252h-.966v-.994h1.008c.514 0 .906-.093 1.176-.28.271-.187.406-.457.406-.812a.73.73 0 0 0-.14-.462.862.862 0 0 0-.35-.308 1.48 1.48 0 0 0-.532-.168 3.395 3.395 0 0 0-.63-.056c-.429 0-.83.051-1.204.154a3.826 3.826 0 0 0-.994.434v-1.106c.243-.159.556-.294.938-.406a4.96 4.96 0 0 1 1.358-.168c.887 0 1.554.168 2.002.504.458.336.686.821.686 1.456 0 .476-.13.849-.392 1.12-.252.271-.611.457-1.078.56.579.075 1.013.257 1.302.546.299.289.448.658.448 1.106Zm6.063.728a4.24 4.24 0 0 1-.322.532 2.419 2.419 0 0 1-1.19.854c-.261.093-.569.14-.924.14-.653 0-1.18-.182-1.582-.546-.401-.373-.602-.905-.602-1.596 0-.793.276-1.377.826-1.75.56-.373 1.354-.56 2.38-.56h1.358v-.602c0-.504-.13-.863-.392-1.078-.261-.215-.709-.322-1.344-.322-.448 0-.872.075-1.274.224-.401.14-.76.303-1.078.49v-1.106a5.438 5.438 0 0 1 1.05-.462 4.367 4.367 0 0 1 1.47-.238c.915 0 1.61.191 2.086.574.476.373.714.957.714 1.75v4.2c.01.103.014.21.014.322l.028.322c.01.093.019.173.028.238h-1.12a6.439 6.439 0 0 1-.084-.546 8.754 8.754 0 0 1-.028-.63l-.014-.21Zm-2.17.42c.383 0 .71-.079.98-.238.271-.159.49-.341.658-.546.168-.215.29-.42.364-.616.075-.205.112-.35.112-.434v-.532H455c-.737 0-1.274.107-1.61.322-.326.205-.49.518-.49.938 0 .327.098.593.294.798.196.205.504.308.924.308Zm5.284-6.3h5.824V330h-1.232v-6.216h-3.36V330h-1.232v-7.266Zm11.404 7.182a8.4 8.4 0 0 1-.532 1.148 3.837 3.837 0 0 1-.63.854 2.266 2.266 0 0 1-.784.518c-.29.121-.621.182-.994.182-.187 0-.36-.014-.518-.042a1.561 1.561 0 0 1-.434-.112v-1.19c.102.075.233.131.392.168.158.047.331.07.518.07.345 0 .63-.084.854-.252.224-.159.438-.415.644-.77l-2.954-7.756h1.358l2.31 6.132 2.296-6.132h1.19l-2.716 7.182Zm6.935.224c-.56 0-1.069-.084-1.526-.252a3.335 3.335 0 0 1-1.148-.742 3.263 3.263 0 0 1-.728-1.19c-.168-.467-.252-.999-.252-1.596 0-.588.084-1.115.252-1.582.177-.467.424-.859.742-1.176a3.057 3.057 0 0 1 1.162-.742 4.277 4.277 0 0 1 1.554-.266c.448 0 .858.051 1.232.154.373.093.681.233.924.42v1.106a3.263 3.263 0 0 0-1.008-.434 4.145 4.145 0 0 0-1.134-.154c-.85 0-1.475.219-1.876.658-.392.439-.588 1.111-.588 2.016s.191 1.577.574 2.016c.382.439.989.658 1.82.658.438 0 .84-.051 1.204-.154a4.969 4.969 0 0 0 1.008-.42v1.106a4.29 4.29 0 0 1-2.212.574Zm6.79-6.356V330h-1.232v-6.216h-2.282v-1.05h5.838v1.05h-2.324Zm4.978 4.536 3.878-5.586h1.246V330h-1.232v-5.572L489.537 330h-1.26v-7.266h1.232v5.586Zm10.061-4.536V330h-1.232v-6.216h-2.282v-1.05h5.838v1.05h-2.324Zm9.15 3.794c0 .42-.075.784-.224 1.092a2 2 0 0 1-.63.756 2.776 2.776 0 0 1-.966.434c-.374.093-.78.14-1.218.14h-2.408v-7.266h1.232v2.534h1.26c.924 0 1.647.182 2.17.546.522.364.784.952.784 1.764Zm-4.214-1.26v2.632h1.176c.532 0 .961-.098 1.288-.294.336-.205.504-.541.504-1.008 0-.476-.15-.817-.448-1.022-.299-.205-.719-.308-1.26-.308h-1.26Z"/>
    <rect width="139" height="89" x="220.5" y="280.5" fill="#fff" stroke="#67B0F8" rx="4.5"/>
    <path fill="#18123D" d="M256.781 330.14a5.264 5.264 0 0 1-1.89-.336 4.344 4.344 0 0 1-1.526-1.008c-.43-.439-.77-.98-1.022-1.624-.243-.644-.364-1.386-.364-2.226 0-.84.121-1.577.364-2.212.252-.644.592-1.176 1.022-1.596a4.14 4.14 0 0 1 1.526-.966 5.264 5.264 0 0 1 1.89-.336c.681 0 1.316.112 1.904.336a4.147 4.147 0 0 1 1.526.966c.429.429.765.966 1.008 1.61.242.635.364 1.372.364 2.212 0 .831-.122 1.568-.364 2.212a4.622 4.622 0 0 1-1.008 1.624c-.43.439-.938.775-1.526 1.008a5.305 5.305 0 0 1-1.904.336Zm0-1.19c.485 0 .933-.07 1.344-.21.41-.149.765-.378 1.064-.686.308-.317.546-.728.714-1.232.177-.504.266-1.115.266-1.834 0-.719-.089-1.33-.266-1.834-.168-.504-.406-.91-.714-1.218a2.596 2.596 0 0 0-1.064-.686 3.916 3.916 0 0 0-1.344-.224c-.486 0-.934.075-1.344.224-.411.14-.77.369-1.078.686-.299.308-.537.714-.714 1.218-.168.504-.252 1.115-.252 1.834 0 .719.084 1.33.252 1.834.177.504.415.915.714 1.232.308.308.667.537 1.078.686.41.14.858.21 1.344.21Zm9.595 1.19c-.56 0-1.068-.084-1.526-.252a3.345 3.345 0 0 1-1.148-.742 3.277 3.277 0 0 1-.728-1.19c-.168-.467-.252-.999-.252-1.596 0-.588.084-1.115.252-1.582.178-.467.425-.859.742-1.176a3.073 3.073 0 0 1 1.162-.742 4.284 4.284 0 0 1 1.554-.266c.448 0 .859.051 1.232.154.374.093.682.233.924.42v1.106a3.243 3.243 0 0 0-1.008-.434 4.145 4.145 0 0 0-1.134-.154c-.849 0-1.474.219-1.876.658-.392.439-.588 1.111-.588 2.016s.192 1.577.574 2.016c.383.439.99.658 1.82.658.439 0 .84-.051 1.204-.154.374-.112.71-.252 1.008-.42v1.106a4.29 4.29 0 0 1-2.212.574Zm6.79-6.356V330h-1.232v-6.216h-2.282v-1.05h5.838v1.05h-2.324Zm7.797 4.83a4.24 4.24 0 0 1-.322.532 2.419 2.419 0 0 1-1.19.854c-.261.093-.569.14-.924.14-.653 0-1.18-.182-1.582-.546-.401-.373-.602-.905-.602-1.596 0-.793.276-1.377.826-1.75.56-.373 1.354-.56 2.38-.56h1.358v-.602c0-.504-.13-.863-.392-1.078-.261-.215-.709-.322-1.344-.322-.448 0-.872.075-1.274.224-.401.14-.76.303-1.078.49v-1.106a5.438 5.438 0 0 1 1.05-.462 4.367 4.367 0 0 1 1.47-.238c.915 0 1.61.191 2.086.574.476.373.714.957.714 1.75v4.2c.01.103.014.21.014.322l.028.322c.01.093.019.173.028.238h-1.12a6.439 6.439 0 0 1-.084-.546 8.754 8.754 0 0 1-.028-.63l-.014-.21Zm-2.17.42c.383 0 .71-.079.98-.238.271-.159.49-.341.658-.546.168-.215.29-.42.364-.616.075-.205.112-.35.112-.434v-.532h-1.232c-.737 0-1.274.107-1.61.322-.326.205-.49.518-.49.938 0 .327.098.593.294.798.196.205.504.308.924.308Zm10.029-2.254h-3.514V330h-1.232v-7.266h1.232v2.996h3.514v-2.996h1.232V330h-1.232v-3.22Zm6.234 3.36c-.494 0-.956-.084-1.386-.252a3.242 3.242 0 0 1-1.12-.728 3.558 3.558 0 0 1-.728-1.19c-.177-.467-.266-1.003-.266-1.61 0-.597.089-1.129.266-1.596.178-.476.42-.873.728-1.19.318-.317.691-.56 1.12-.728.43-.168.892-.252 1.386-.252.504 0 .971.084 1.4.252.43.168.798.411 1.106.728.318.317.565.714.742 1.19.187.467.28.999.28 1.596 0 .607-.093 1.143-.28 1.61a3.418 3.418 0 0 1-.742 1.19c-.308.317-.676.56-1.106.728a3.807 3.807 0 0 1-1.4.252Zm0-1.106c.327 0 .626-.051.896-.154a2.04 2.04 0 0 0 .728-.49 2.29 2.29 0 0 0 .476-.84c.112-.336.168-.733.168-1.19 0-.457-.056-.854-.168-1.19a2.158 2.158 0 0 0-.476-.826 1.831 1.831 0 0 0-.728-.49 2.318 2.318 0 0 0-.896-.168c-.326 0-.625.056-.896.168-.27.103-.508.266-.714.49-.196.215-.35.49-.462.826a3.775 3.775 0 0 0-.168 1.19c0 .457.056.854.168 1.19.112.336.266.616.462.84.206.215.444.378.714.49.271.103.57.154.896.154Zm5.03-6.3h2.716c.877 0 1.54.154 1.988.462.448.299.672.77.672 1.414 0 .429-.112.775-.336 1.036-.215.252-.523.434-.924.546 1.036.168 1.554.742 1.554 1.722 0 .373-.075.695-.224.966a1.85 1.85 0 0 1-.616.644 2.746 2.746 0 0 1-.952.364 5.904 5.904 0 0 1-1.19.112h-2.688v-7.266Zm1.232 1.05v1.974h1.372c.467 0 .84-.084 1.12-.252.289-.168.434-.411.434-.728 0-.383-.126-.644-.378-.784s-.611-.21-1.078-.21h-1.47Zm0 2.954v2.212h1.442c.261 0 .495-.014.7-.042.215-.037.397-.098.546-.182a.906.906 0 0 0 .364-.336.991.991 0 0 0 .126-.518c0-.42-.145-.714-.434-.882-.289-.168-.723-.252-1.302-.252h-1.442Zm7.52 1.582 3.878-5.586h1.246V330h-1.232v-5.572L308.866 330h-1.26v-7.266h1.232v5.586Zm10.061-4.536V330h-1.232v-6.216h-2.282v-1.05h5.838v1.05h-2.324Zm9.15 3.794c0 .42-.075.784-.224 1.092a2 2 0 0 1-.63.756 2.776 2.776 0 0 1-.966.434c-.374.093-.78.14-1.218.14h-2.408v-7.266h1.232v2.534h1.26c.924 0 1.647.182 2.17.546.522.364.784.952.784 1.764Zm-4.214-1.26v2.632h1.176c.532 0 .961-.098 1.288-.294.336-.205.504-.541.504-1.008 0-.476-.15-.817-.448-1.022-.299-.205-.719-.308-1.26-.308h-1.26Z"/>
    <rect width="139" height="89" x="220.5" y="641.5" fill="#fff" stroke="#67B0F8" rx="4.5"/>
    <path fill="#18123D" d="M259.14 686.408v-1.12h1.414c.7 0 1.232-.149 1.596-.448.364-.308.546-.728.546-1.26 0-.569-.192-.971-.574-1.204-.383-.243-.887-.364-1.512-.364a6.601 6.601 0 0 0-3.094.728v-1.246a6.578 6.578 0 0 1 1.204-.448c.504-.14 1.138-.21 1.904-.21 1.045 0 1.876.219 2.492.658.616.429.924 1.097.924 2.002 0 .588-.178 1.073-.532 1.456-.346.383-.854.653-1.526.812.793.103 1.39.345 1.792.728.41.373.616.91.616 1.61 0 .532-.103.994-.308 1.386a2.633 2.633 0 0 1-.84.938 3.712 3.712 0 0 1-1.232.546c-.476.112-.98.168-1.512.168-.756 0-1.405-.089-1.946-.266-.542-.187-.938-.387-1.19-.602v-1.26c.868.625 1.899.938 3.094.938.345 0 .672-.028.98-.084.308-.065.578-.168.812-.308.233-.14.415-.327.546-.56.14-.233.21-.523.21-.868 0-.635-.206-1.078-.616-1.33-.402-.261-1.004-.392-1.806-.392h-1.442Zm11.234 3.206a4.24 4.24 0 0 1-.322.532 2.419 2.419 0 0 1-1.19.854c-.261.093-.569.14-.924.14-.653 0-1.18-.182-1.582-.546-.401-.373-.602-.905-.602-1.596 0-.793.276-1.377.826-1.75.56-.373 1.354-.56 2.38-.56h1.358v-.602c0-.504-.13-.863-.392-1.078-.261-.215-.709-.322-1.344-.322-.448 0-.872.075-1.274.224-.401.14-.76.303-1.078.49v-1.106a5.438 5.438 0 0 1 1.05-.462 4.367 4.367 0 0 1 1.47-.238c.915 0 1.61.191 2.086.574.476.373.714.957.714 1.75v4.2c.01.103.014.21.014.322l.028.322c.01.093.019.173.028.238h-1.12a6.439 6.439 0 0 1-.084-.546 8.754 8.754 0 0 1-.028-.63l-.014-.21Zm-2.17.42c.383 0 .71-.079.98-.238.271-.159.49-.341.658-.546.168-.215.29-.42.364-.616.075-.205.112-.35.112-.434v-.532h-1.232c-.737 0-1.274.107-1.61.322-.326.205-.49.518-.49.938 0 .327.098.593.294.798.196.205.504.308.924.308Zm5.283-6.3h5.824V691h-1.232v-6.216h-3.36V691h-1.232v-7.266Zm11.404 7.182a8.282 8.282 0 0 1-.532 1.148 3.776 3.776 0 0 1-.63.854 2.248 2.248 0 0 1-.784.518c-.289.121-.62.182-.994.182-.186 0-.359-.014-.518-.042a1.58 1.58 0 0 1-.434-.112v-1.19c.103.075.234.131.392.168.159.047.332.07.518.07.346 0 .63-.084.854-.252.224-.159.439-.415.644-.77l-2.954-7.756h1.358l2.31 6.132 2.296-6.132h1.19l-2.716 7.182Zm6.936.224c-.56 0-1.069-.084-1.526-.252a3.335 3.335 0 0 1-1.148-.742 3.263 3.263 0 0 1-.728-1.19c-.168-.467-.252-.999-.252-1.596 0-.588.084-1.115.252-1.582.177-.467.424-.859.742-1.176a3.057 3.057 0 0 1 1.162-.742 4.277 4.277 0 0 1 1.554-.266c.448 0 .858.051 1.232.154.373.093.681.233.924.42v1.106a3.263 3.263 0 0 0-1.008-.434 4.145 4.145 0 0 0-1.134-.154c-.85 0-1.475.219-1.876.658-.392.439-.588 1.111-.588 2.016s.191 1.577.574 2.016c.382.439.989.658 1.82.658.438 0 .84-.051 1.204-.154a4.969 4.969 0 0 0 1.008-.42v1.106a4.29 4.29 0 0 1-2.212.574Zm6.79-6.356V691h-1.232v-6.216h-2.282v-1.05h5.838v1.05h-2.324Zm4.977 4.536 3.878-5.586h1.246V691h-1.232v-5.572L303.622 691h-1.26v-7.266h1.232v5.586Zm10.062-4.536V691h-1.232v-6.216h-2.282v-1.05h5.838v1.05h-2.324Zm9.15 3.794c0 .42-.075.784-.224 1.092a2 2 0 0 1-.63.756 2.776 2.776 0 0 1-.966.434c-.374.093-.78.14-1.218.14h-2.408v-7.266h1.232v2.534h1.26c.924 0 1.647.182 2.17.546.522.364.784.952.784 1.764Zm-4.214-1.26v2.632h1.176c.532 0 .961-.098 1.288-.294.336-.205.504-.541.504-1.008 0-.476-.15-.817-.448-1.022-.299-.205-.719-.308-1.26-.308h-1.26Z"/>
    <ellipse cx="290" cy="445" fill="#FFDADA" rx="70" ry="45"/>
    <path fill="#000" d="M259.789 450.14c-.457 0-.868-.033-1.232-.098a5.95 5.95 0 0 1-.966-.224 5.05 5.05 0 0 1-.7-.322 2.788 2.788 0 0 1-.448-.35v-1.26c.14.121.322.247.546.378.224.121.481.233.77.336.299.103.616.187.952.252.346.065.705.098 1.078.098.728 0 1.307-.135 1.736-.406.43-.28.644-.7.644-1.26 0-.28-.051-.509-.154-.686a1.238 1.238 0 0 0-.448-.462 2.596 2.596 0 0 0-.742-.322c-.289-.093-.63-.191-1.022-.294a18.704 18.704 0 0 1-1.176-.35 4.344 4.344 0 0 1-1.064-.518 2.622 2.622 0 0 1-.756-.812c-.186-.327-.28-.742-.28-1.246 0-.868.304-1.545.91-2.03.607-.485 1.536-.728 2.786-.728.364 0 .686.023.966.07.29.037.542.089.756.154.224.056.416.121.574.196.168.075.318.145.448.21v1.26a3.93 3.93 0 0 0-1.274-.532 6.055 6.055 0 0 0-1.47-.168c-.448 0-.826.037-1.134.112a2.008 2.008 0 0 0-.728.294 1.166 1.166 0 0 0-.406.476 1.521 1.521 0 0 0-.126.63c0 .28.061.513.182.7.131.187.299.345.504.476.215.121.458.224.728.308.271.084.556.159.854.224.392.093.794.201 1.204.322.411.121.78.289 1.106.504.327.215.593.495.798.84.215.336.322.775.322 1.316 0 .532-.107.985-.322 1.358-.205.364-.48.663-.826.896a3.51 3.51 0 0 1-1.19.504 6.225 6.225 0 0 1-1.4.154Zm9.072-8.96V450h-1.33v-8.82h-3.094v-1.218h7.518v1.218h-3.094Zm8.434 8.96a5.264 5.264 0 0 1-1.89-.336 4.354 4.354 0 0 1-1.526-1.008 4.783 4.783 0 0 1-1.022-1.624c-.242-.644-.364-1.386-.364-2.226 0-.84.122-1.577.364-2.212.252-.644.593-1.176 1.022-1.596.43-.429.938-.751 1.526-.966a5.264 5.264 0 0 1 1.89-.336c.682 0 1.316.112 1.904.336a4.14 4.14 0 0 1 1.526.966c.43.429.766.966 1.008 1.61.243.635.364 1.372.364 2.212 0 .831-.121 1.568-.364 2.212a4.593 4.593 0 0 1-1.008 1.624 4.344 4.344 0 0 1-1.526 1.008 5.301 5.301 0 0 1-1.904.336Zm0-1.19c.486 0 .934-.07 1.344-.21a2.778 2.778 0 0 0 1.064-.686c.308-.317.546-.728.714-1.232.178-.504.266-1.115.266-1.834 0-.719-.088-1.33-.266-1.834-.168-.504-.406-.91-.714-1.218a2.583 2.583 0 0 0-1.064-.686 3.908 3.908 0 0 0-1.344-.224c-.485 0-.933.075-1.344.224-.41.14-.77.369-1.078.686-.298.308-.536.714-.714 1.218-.168.504-.252 1.115-.252 1.834 0 .719.084 1.33.252 1.834.178.504.416.915.714 1.232.308.308.668.537 1.078.686.411.14.859.21 1.344.21Zm6.56-8.988h3.206c1.138 0 2.02.238 2.646.714.634.467.952 1.199.952 2.198 0 .569-.094 1.059-.28 1.47-.178.401-.43.733-.756.994a3.153 3.153 0 0 1-1.176.574 5.746 5.746 0 0 1-1.498.182h-1.778V450h-1.316v-10.038Zm1.316 1.204v3.738h1.778c.354 0 .676-.037.966-.112.289-.075.536-.191.742-.35.214-.159.378-.364.49-.616.121-.261.182-.574.182-.938 0-.607-.196-1.045-.588-1.316-.392-.271-.952-.406-1.68-.406h-1.89Zm7.229-1.204h3.206c1.138 0 2.02.238 2.646.714.634.467.952 1.199.952 2.198 0 .569-.094 1.059-.28 1.47-.178.401-.43.733-.756.994a3.153 3.153 0 0 1-1.176.574 5.746 5.746 0 0 1-1.498.182h-1.778V450H292.4v-10.038Zm1.316 1.204v3.738h1.778c.354 0 .676-.037.966-.112.289-.075.536-.191.742-.35.214-.159.378-.364.49-.616.121-.261.182-.574.182-.938 0-.607-.196-1.045-.588-1.316-.392-.271-.952-.406-1.68-.406h-1.89Zm8.545-1.204V450h-1.316v-10.038h1.316ZM312.673 450h-1.792l-5.04-8.428V450h-1.246v-10.038h1.778l5.04 8.428v-8.428h1.26V450Zm10.824-3.934a4.79 4.79 0 0 1-.266 1.624 3.369 3.369 0 0 1-.784 1.288 3.653 3.653 0 0 1-1.344.854c-.532.205-1.162.308-1.89.308a5.049 5.049 0 0 1-1.946-.364 4.446 4.446 0 0 1-1.512-1.05 4.717 4.717 0 0 1-.98-1.624c-.233-.635-.35-1.339-.35-2.114 0-.775.112-1.479.336-2.114a4.456 4.456 0 0 1 .98-1.624 4.42 4.42 0 0 1 1.624-1.036c.644-.252 1.386-.378 2.226-.378.429 0 .812.028 1.148.084.345.056.649.126.91.21.261.084.485.177.672.28.196.103.364.201.504.294v1.26a9.576 9.576 0 0 0-.686-.364 4.578 4.578 0 0 0-.756-.308 5.498 5.498 0 0 0-.854-.196 6.325 6.325 0 0 0-.98-.07c-.635 0-1.185.089-1.652.266-.457.177-.84.439-1.148.784a3.254 3.254 0 0 0-.672 1.246c-.149.485-.224 1.041-.224 1.666 0 1.251.294 2.226.882 2.926.597.691 1.423 1.036 2.478 1.036.523 0 .971-.065 1.344-.196.373-.14.677-.327.91-.56.233-.243.401-.527.504-.854.112-.336.168-.7.168-1.092v-.28h-3.234v-1.19h4.592v1.288Z"/>
    <ellipse cx="290" cy="565" fill="#FFDADA" rx="70" ry="45"/>
    <path fill="#000" d="M262.872 570.14c-.457 0-.868-.033-1.232-.098a5.95 5.95 0 0 1-.966-.224 5.05 5.05 0 0 1-.7-.322 2.788 2.788 0 0 1-.448-.35v-1.26c.14.121.322.247.546.378.224.121.481.233.77.336.299.103.616.187.952.252.346.065.705.098 1.078.098.728 0 1.307-.135 1.736-.406.43-.28.644-.7.644-1.26 0-.28-.051-.509-.154-.686a1.238 1.238 0 0 0-.448-.462 2.596 2.596 0 0 0-.742-.322c-.289-.093-.63-.191-1.022-.294a18.704 18.704 0 0 1-1.176-.35 4.344 4.344 0 0 1-1.064-.518 2.622 2.622 0 0 1-.756-.812c-.186-.327-.28-.742-.28-1.246 0-.868.304-1.545.91-2.03.607-.485 1.536-.728 2.786-.728.364 0 .686.023.966.07.29.037.542.089.756.154.224.056.416.121.574.196.168.075.318.145.448.21v1.26a3.93 3.93 0 0 0-1.274-.532 6.055 6.055 0 0 0-1.47-.168c-.448 0-.826.037-1.134.112a2.008 2.008 0 0 0-.728.294 1.166 1.166 0 0 0-.406.476 1.521 1.521 0 0 0-.126.63c0 .28.061.513.182.7.131.187.299.345.504.476.215.121.458.224.728.308.271.084.556.159.854.224.392.093.794.201 1.204.322.411.121.78.289 1.106.504.327.215.593.495.798.84.215.336.322.775.322 1.316 0 .532-.107.985-.322 1.358-.205.364-.48.663-.826.896a3.51 3.51 0 0 1-1.19.504 6.225 6.225 0 0 1-1.4.154Zm9.072-8.96V570h-1.33v-8.82h-3.094v-1.218h7.518v1.218h-3.094Zm8.434 8.96a5.264 5.264 0 0 1-1.89-.336 4.354 4.354 0 0 1-1.526-1.008 4.783 4.783 0 0 1-1.022-1.624c-.242-.644-.364-1.386-.364-2.226 0-.84.122-1.577.364-2.212.252-.644.593-1.176 1.022-1.596.43-.429.938-.751 1.526-.966a5.264 5.264 0 0 1 1.89-.336c.682 0 1.316.112 1.904.336a4.14 4.14 0 0 1 1.526.966c.43.429.766.966 1.008 1.61.243.635.364 1.372.364 2.212 0 .831-.121 1.568-.364 2.212a4.593 4.593 0 0 1-1.008 1.624 4.344 4.344 0 0 1-1.526 1.008 5.301 5.301 0 0 1-1.904.336Zm0-1.19c.486 0 .934-.07 1.344-.21a2.778 2.778 0 0 0 1.064-.686c.308-.317.546-.728.714-1.232.178-.504.266-1.115.266-1.834 0-.719-.088-1.33-.266-1.834-.168-.504-.406-.91-.714-1.218a2.583 2.583 0 0 0-1.064-.686 3.908 3.908 0 0 0-1.344-.224c-.485 0-.933.075-1.344.224-.41.14-.77.369-1.078.686-.298.308-.536.714-.714 1.218-.168.504-.252 1.115-.252 1.834 0 .719.084 1.33.252 1.834.178.504.416.915.714 1.232.308.308.668.537 1.078.686.411.14.859.21 1.344.21Zm6.56-8.988h3.206c1.138 0 2.02.238 2.646.714.634.467.952 1.199.952 2.198 0 .569-.094 1.059-.28 1.47-.178.401-.43.733-.756.994a3.153 3.153 0 0 1-1.176.574 5.746 5.746 0 0 1-1.498.182h-1.778V570h-1.316v-10.038Zm1.316 1.204v3.738h1.778c.354 0 .676-.037.966-.112.289-.075.536-.191.742-.35.214-.159.378-.364.49-.616.121-.261.182-.574.182-.938 0-.607-.196-1.045-.588-1.316-.392-.271-.952-.406-1.68-.406h-1.89Zm7.229-1.204h3.206c1.138 0 2.02.238 2.646.714.634.467.952 1.199.952 2.198 0 .569-.094 1.059-.28 1.47-.178.401-.43.733-.756.994a3.153 3.153 0 0 1-1.176.574 5.746 5.746 0 0 1-1.498.182h-1.778V570h-1.316v-10.038Zm1.316 1.204v3.738h1.778c.354 0 .676-.037.966-.112.289-.075.536-.191.742-.35.214-.159.378-.364.49-.616.121-.261.182-.574.182-.938 0-.607-.196-1.045-.588-1.316-.392-.271-.952-.406-1.68-.406h-1.89Zm7.229-1.204h6.216v1.204h-4.9v3.038h4.158v1.19h-4.158v3.416h4.97V570h-6.286v-10.038Zm8.367 0h3.374c.672 0 1.297.079 1.876.238.578.159 1.082.42 1.512.784.429.364.765.845 1.008 1.442.242.597.364 1.335.364 2.212 0 .887-.126 1.666-.378 2.338-.243.663-.584 1.218-1.022 1.666-.43.448-.948.789-1.554 1.022a5.544 5.544 0 0 1-1.96.336h-3.22v-10.038Zm1.316 1.204v7.644h1.904c.513 0 .984-.079 1.414-.238a2.864 2.864 0 0 0 1.106-.728c.308-.336.546-.761.714-1.274.168-.513.252-1.125.252-1.834 0-.7-.084-1.279-.252-1.736-.168-.467-.402-.835-.7-1.106a2.344 2.344 0 0 0-1.05-.56 5.041 5.041 0 0 0-1.33-.168h-2.058Z"/>
    <path fill="#18123D" fill-opacity=".7" d="m219.969 91-5-2.887v5.774l5-2.887ZM160 91.5h55.469v-1H160v1ZM389.985 90l-5-2.887v5.774l5-2.887ZM360 90.5h25.484v-1H360v1Zm99 69.485 2.887-5h-5.774l2.887 5ZM458.5 130v25.484h1V130h-1Zm.5 269.985 2.887-5h-5.774l2.887 5ZM458.5 370v25.484h1V370h-1ZM289 399.985l2.887-5h-5.774l2.887 5ZM288.5 370v25.484h1V370h-1Zm.5 149.985 2.887-5h-5.774l2.887 5ZM288.5 490v25.484h1V490h-1Zm.5 150.985 2.887-5h-5.774l2.887 5ZM288.5 611v25.484h1V611h-1ZM459 279.985l2.887-5h-5.774l2.887 5ZM458.5 250v25.484h1V250h-1ZM290 280l2.887-5h-5.774l2.887 5Zm.5-4.5V210h-1v65.5h1Zm4.5-70h95v-1h-95v1Zm-4.5 4.5a4.5 4.5 0 0 1 4.5-4.5v-1a5.5 5.5 0 0 0-5.5 5.5h1Z"/>
    <path stroke="#18123D" stroke-opacity=".7" d="M290 731v23a5 5 0 0 1-5 5h-90a5 5 0 0 1-5-5V96a5 5 0 0 1 5-5"/>
    <path fill="#18123D" fill-opacity=".7" d="m530 205 5 2.887v-5.774L530 205Zm4.501.5h19.506v-1h-19.506v1Zm23.993 4.5v225h1V210h-1Zm-4.5 229.5H530v1h23.994v-1Zm4.5-4.5a4.5 4.5 0 0 1-4.5 4.5v1a5.5 5.5 0 0 0 5.5-5.5h-1Zm-4.487-229.5a4.489 4.489 0 0 1 4.487 4.5h1c0-3.036-2.448-5.5-5.487-5.5v1Z"/>
</svg>
