<svg xmlns="http://www.w3.org/2000/svg" width="700" height="475" fill="none" viewBox="0 0 700 475">
    <rect width="520" height="50" x="90" y="376" fill="#fff" rx="10"/>
    <rect width="238" height="298" x="91" y="63" fill="#fff" stroke="#5282FF" stroke-width="2" rx="9"/>
    <rect width="238" height="298" x="371" y="63" fill="#fff" stroke="#5282FF" stroke-width="2" rx="9"/>
    <path fill="#FFDEDE" d="M293 411a10 10 0 1 0 0-19.999A10 10 0 0 0 293 411Z"/>
    <path fill="#CCF0D2" d="M458 411a10 10 0 1 0 0-19.999A10 10 0 0 0 458 411Z"/>
    <path fill="#FFF2BF" d="M128 411a10 10 0 1 0 0-19.999A10 10 0 0 0 128 411Z"/>
    <path fill="#000" d="M168.214 92.14c-.896 0-1.708-.2-2.436-.602-.728-.401-1.306-.985-1.736-1.75-.42-.775-.63-1.722-.63-2.842s.21-2.058.63-2.814c.43-.765 1.008-1.34 1.736-1.722.728-.383 1.54-.574 2.436-.574.915 0 1.732.196 2.45.588.728.383 1.302.952 1.722 1.708.42.756.63 1.699.63 2.828 0 1.11-.21 2.053-.63 2.828a4.32 4.32 0 0 1-1.722 1.75c-.718.401-1.535.602-2.45.602Zm0-1.19c.644 0 1.223-.13 1.736-.392.514-.261.915-.681 1.204-1.26.299-.588.448-1.358.448-2.31 0-.961-.149-1.731-.448-2.31-.289-.579-.69-.999-1.204-1.26-.513-.261-1.092-.392-1.736-.392-.644 0-1.222.13-1.736.392-.504.261-.905.681-1.204 1.26-.298.579-.448 1.349-.448 2.31 0 .952.15 1.722.448 2.31.299.579.7.999 1.204 1.26.514.261 1.092.392 1.736.392Zm9.682-6.314c.616 0 1.166.145 1.652.434.494.29.886.714 1.176 1.274.289.55.434 1.223.434 2.016 0 .803-.154 1.489-.462 2.058a3.22 3.22 0 0 1-1.26 1.288c-.532.29-1.134.434-1.806.434-.682 0-1.288-.154-1.82-.462-.523-.317-.934-.793-1.232-1.428-.299-.635-.448-1.442-.448-2.422 0-1.064.06-1.95.182-2.66.13-.71.331-1.288.602-1.736a3.05 3.05 0 0 1 1.092-1.092 3.32 3.32 0 0 1 .7-.308c.242-.075.546-.13.91-.168.373-.047.849-.08 1.428-.098.364-.028.672-.075.924-.14.252-.065.48-.154.686-.266v1.12a2.43 2.43 0 0 1-.588.266 6.092 6.092 0 0 1-.896.14c-.551.056-.99.093-1.316.112a6.227 6.227 0 0 0-.77.084 1.902 1.902 0 0 0-.588.224 2.13 2.13 0 0 0-.91 1.008c-.206.439-.346 1.092-.42 1.96.485-1.092 1.395-1.638 2.73-1.638Zm-.266 6.398c.653 0 1.194-.215 1.624-.644.429-.439.644-1.115.644-2.03 0-.915-.215-1.587-.644-2.016-.43-.439-.971-.658-1.624-.658-.644 0-1.181.215-1.61.644-.42.43-.63 1.092-.63 1.988 0 .933.21 1.62.63 2.058.429.439.966.658 1.61.658Zm6.301-6.3v2.45h1.26c.924 0 1.648.187 2.17.56.523.364.784.961.784 1.792 0 .579-.13 1.05-.392 1.414-.261.355-.62.62-1.078.798-.457.168-.98.252-1.568.252h-2.408v-7.266h1.232Zm6.496 0V92h-1.232v-7.266h1.232Zm-5.32 6.216c.523 0 .952-.103 1.288-.308.336-.215.504-.56.504-1.036 0-.485-.149-.835-.448-1.05-.298-.215-.718-.322-1.26-.322h-1.26v2.716h1.176Zm9.876-2.548c.317 0 .63-.047.938-.14a2.55 2.55 0 0 0 .854-.434v-3.094h1.232V92h-1.232v-3.192c-.523.41-1.19.616-2.002.616-.821 0-1.451-.205-1.89-.616-.429-.41-.644-1.06-.644-1.946v-2.128h1.246v2.142c0 .57.131.966.392 1.19.261.224.63.336 1.106.336Zm6.271-3.668v2.996h3.514v-2.996H206V92h-1.232v-3.22h-3.514V92h-1.232v-7.266h1.232Zm7.998 0v2.45h1.26c.924 0 1.647.187 2.17.56.522.364.784.961.784 1.792 0 .579-.131 1.05-.392 1.414-.262.355-.621.62-1.078.798-.458.168-.98.252-1.568.252h-2.408v-7.266h1.232Zm6.496 0V92h-1.232v-7.266h1.232Zm-5.32 6.216c.522 0 .952-.103 1.288-.308.336-.215.504-.56.504-1.036 0-.485-.15-.835-.448-1.05-.299-.215-.719-.322-1.26-.322h-1.26v2.716h1.176Zm10.407-7.182c-.737 0-1.288-.182-1.652-.546a1.873 1.873 0 0 1-.546-1.358h1.232c0 .355.084.611.252.77.178.159.416.238.714.238.299 0 .532-.08.7-.238.168-.159.252-.415.252-.77h1.232c0 .532-.182.985-.546 1.358-.354.364-.9.546-1.638.546Zm-1.904.966v5.558l3.738-5.558h1.246V92h-1.232v-5.544L218.959 92h-1.26v-7.266h1.232Zm9.312 0h1.428l1.736 2.562 1.75-2.562h1.274l-2.408 3.472L234.557 92h-1.428l-1.946-2.884-1.96 2.884h-1.288l2.632-3.766-2.324-3.5Zm10.239 7.406c-.662 0-1.26-.145-1.792-.434a3.253 3.253 0 0 1-1.246-1.288c-.308-.57-.462-1.255-.462-2.058 0-.803.154-1.484.462-2.044.308-.56.724-.985 1.246-1.274a3.598 3.598 0 0 1 1.792-.448c.672 0 1.274.15 1.806.448.532.29.952.714 1.26 1.274.308.56.462 1.241.462 2.044 0 .803-.154 1.489-.462 2.058a3.22 3.22 0 0 1-1.26 1.288c-.532.29-1.134.434-1.806.434Zm0-1.106c.654 0 1.195-.215 1.624-.644.43-.439.644-1.115.644-2.03 0-.915-.214-1.587-.644-2.016-.429-.439-.97-.658-1.624-.658-.644 0-1.18.22-1.61.658-.42.43-.63 1.101-.63 2.016s.21 1.591.63 2.03c.43.43.966.644 1.61.644Zm8.166 1.106c-1.129 0-2.021-.331-2.674-.994-.653-.672-.98-1.6-.98-2.786 0-1.185.331-2.11.994-2.772.663-.663 1.568-.994 2.716-.994.439 0 .849.051 1.232.154.383.093.691.233.924.42v1.106a3.995 3.995 0 0 0-2.142-.588c-.84 0-1.461.224-1.862.672-.401.439-.602 1.106-.602 2.002 0 .896.191 1.568.574 2.016.392.439.999.658 1.82.658a4.44 4.44 0 0 0 2.212-.574v1.106c-.607.383-1.344.574-2.212.574Zm3.276-7.406h5.838v1.05h-2.324V92h-1.232v-6.216h-2.282v-1.05Z"/>
    <rect width="60" height="90" x="110" y="112" fill="#FFF2BF" rx="10"/>
    <rect width="60" height="200" x="110" y="272" fill="#E3EBFF" rx="10" transform="rotate(-90 110 272)"/>
    <path fill="#000" d="M126.684 151.962h3.402c1.101 0 1.936.187 2.506.56.578.373.868 1.003.868 1.89 0 .719-.182 1.265-.546 1.638-.364.364-.85.611-1.456.742.774.093 1.362.322 1.764.686.401.355.602.896.602 1.624 0 .691-.164 1.251-.49 1.68-.327.429-.775.742-1.344.938-.57.187-1.214.28-1.932.28h-3.374v-10.038Zm3.304 4.284c.634 0 1.148-.14 1.54-.42.401-.289.602-.737.602-1.344 0-.513-.178-.859-.532-1.036-.355-.187-.859-.28-1.512-.28H128v3.08h1.988Zm.07 4.564c.709 0 1.283-.121 1.722-.364.438-.243.658-.681.658-1.316s-.206-1.073-.616-1.316c-.402-.252-1.041-.378-1.918-.378H128v3.374h2.058Zm10.507-.336h-.588l.014-.014-3.038-6.65V162h-1.246v-10.038h1.834l3.122 7.042 3.262-7.042h1.708V162h-1.33v-8.078l-3.08 6.538-.658.014ZM152.003 162h-1.274v-8.456l-2.772 2.128v-1.414l2.982-2.296h1.064V162Z"/>
    <rect width="60" height="90" x="180" y="112" fill="#FFDEDE" rx="10"/>
    <rect width="60" height="40" x="250" y="112" fill="#FFDEDE" rx="10"/>
    <rect width="60" height="40" x="250" y="162" fill="#CCF0D2" rx="10"/>
    <path fill="#000" d="M196.684 151.962h3.402c1.101 0 1.936.187 2.506.56.578.373.868 1.003.868 1.89 0 .719-.182 1.265-.546 1.638-.364.364-.85.611-1.456.742.774.093 1.362.322 1.764.686.401.355.602.896.602 1.624 0 .691-.164 1.251-.49 1.68-.327.429-.775.742-1.344.938-.57.187-1.214.28-1.932.28h-3.374v-10.038Zm3.304 4.284c.634 0 1.148-.14 1.54-.42.401-.289.602-.737.602-1.344 0-.513-.178-.859-.532-1.036-.355-.187-.859-.28-1.512-.28H198v3.08h1.988Zm.07 4.564c.709 0 1.283-.121 1.722-.364.438-.243.658-.681.658-1.316s-.206-1.073-.616-1.316c-.402-.252-1.041-.378-1.918-.378H198v3.374h2.058Zm10.507-.336h-.588l.014-.014-3.038-6.65V162h-1.246v-10.038h1.834l3.122 7.042 3.262-7.042h1.708V162h-1.33v-8.078l-3.08 6.538-.658.014ZM223.879 162h-6.398v-1.33a61.49 61.49 0 0 0 2.45-2.058c.644-.569 1.143-1.064 1.498-1.484.364-.429.616-.826.756-1.19.149-.364.224-.733.224-1.106 0-.579-.173-1.031-.518-1.358-.345-.327-.821-.49-1.428-.49-.971 0-1.876.462-2.716 1.386v-1.414c.775-.756 1.694-1.134 2.758-1.134 1.008 0 1.801.261 2.38.784.588.513.882 1.213.882 2.1 0 .457-.075.896-.224 1.316-.14.411-.392.845-.756 1.302-.355.448-.845.952-1.47 1.512a45.385 45.385 0 0 1-2.38 1.96h4.942V162Zm42.805-35.038h3.402c1.101 0 1.936.187 2.506.56.578.373.868 1.003.868 1.89 0 .719-.182 1.265-.546 1.638-.364.364-.85.611-1.456.742.774.093 1.362.322 1.764.686.401.355.602.896.602 1.624 0 .691-.164 1.251-.49 1.68-.327.429-.775.742-1.344.938-.57.187-1.214.28-1.932.28h-3.374v-10.038Zm3.304 4.284c.634 0 1.148-.14 1.54-.42.401-.289.602-.737.602-1.344 0-.513-.178-.859-.532-1.036-.355-.187-.859-.28-1.512-.28H268v3.08h1.988Zm.07 4.564c.709 0 1.283-.121 1.722-.364.438-.243.658-.681.658-1.316s-.206-1.073-.616-1.316c-.402-.252-1.041-.378-1.918-.378H268v3.374h2.058Zm10.507-.336h-.588l.014-.014-3.038-6.65V137h-1.246v-10.038h1.834l3.122 7.042 3.262-7.042h1.708V137h-1.33v-8.078l-3.08 6.538-.658.014Zm8.554-3.122v-1.19h1.344c.523 0 .947-.14 1.274-.42.336-.289.504-.695.504-1.218 0-.476-.154-.849-.462-1.12-.308-.28-.751-.42-1.33-.42-.485 0-.943.089-1.372.266-.42.177-.859.462-1.316.854v-1.372c.747-.607 1.647-.91 2.702-.91.961 0 1.713.243 2.254.728.551.485.826 1.12.826 1.904 0 .635-.177 1.139-.532 1.512a2.487 2.487 0 0 1-1.246.742c.392.056.751.191 1.078.406.336.205.607.476.812.812.205.336.308.728.308 1.176 0 .616-.154 1.153-.462 1.61a3.05 3.05 0 0 1-1.274 1.064c-.532.243-1.153.364-1.862.364-1.232 0-2.184-.285-2.856-.854v-1.4c.355.345.784.616 1.288.812a4.325 4.325 0 0 0 1.582.294c.691 0 1.232-.163 1.624-.49.401-.336.602-.793.602-1.372 0-.56-.182-.994-.546-1.302-.355-.317-.905-.476-1.652-.476h-1.288Zm-22.435 44.61h3.402c1.101 0 1.936.187 2.506.56.578.373.868 1.003.868 1.89 0 .719-.182 1.265-.546 1.638-.364.364-.85.611-1.456.742.774.093 1.362.322 1.764.686.401.355.602.896.602 1.624 0 .691-.164 1.251-.49 1.68-.327.429-.775.742-1.344.938-.57.187-1.214.28-1.932.28h-3.374v-10.038Zm3.304 4.284c.634 0 1.148-.14 1.54-.42.401-.289.602-.737.602-1.344 0-.513-.178-.859-.532-1.036-.355-.187-.859-.28-1.512-.28H268v3.08h1.988Zm.07 4.564c.709 0 1.283-.121 1.722-.364.438-.243.658-.681.658-1.316s-.206-1.073-.616-1.316c-.402-.252-1.041-.378-1.918-.378H268v3.374h2.058Zm10.507-.336h-.588l.014-.014-3.038-6.65V187h-1.246v-10.038h1.834l3.122 7.042 3.262-7.042h1.708V187h-1.33v-8.078l-3.08 6.538-.658.014Zm12.18 1.526h-1.232v-2.38h-4.34v-.868l3.92-6.79h1.652v6.594h1.358v1.064h-1.358V187Zm-4.298-3.444h3.066v-5.222l-3.066 5.222Zm-116.284 53.406h5.852v1.204h-4.536V247h-1.316v-10.038Zm7.846 2.772v5.558l3.738-5.558h1.246V247h-1.232v-5.544L180.037 247h-1.26v-7.266h1.232Zm6.998 7.266v-7.266h5.824V247h-1.232v-6.216h-3.36V247h-1.232Zm11.054.14c-1.213 0-2.142-.331-2.786-.994-.635-.672-.952-1.601-.952-2.786 0-.793.149-1.47.448-2.03.299-.56.709-.989 1.232-1.288a3.49 3.49 0 0 1 1.764-.448c1.111 0 1.927.369 2.45 1.106.523.728.691 1.727.504 2.996h-5.124c.103 1.559.961 2.338 2.576 2.338.887 0 1.703-.252 2.45-.756v1.106a4.3 4.3 0 0 1-1.176.56c-.448.131-.91.196-1.386.196Zm-.322-6.454c-.532 0-.989.163-1.372.49-.383.327-.625.821-.728 1.484h3.906c.028-.625-.117-1.111-.434-1.456s-.775-.518-1.372-.518Zm4.635-.952h1.078l.126 1.414c.234-.467.556-.84.966-1.12.42-.289.934-.434 1.54-.434.57 0 1.092.14 1.568.42.486.271.878.686 1.176 1.246.299.551.448 1.251.448 2.1 0 .849-.154 1.554-.462 2.114-.298.56-.695.98-1.19 1.26a3.216 3.216 0 0 1-1.596.406c-.55 0-1.031-.131-1.442-.392a2.817 2.817 0 0 1-.98-1.078v3.808h-1.232v-9.744Zm5.628 3.626c0-.877-.2-1.54-.602-1.988-.401-.457-.919-.686-1.554-.686-.634 0-1.171.224-1.61.672-.429.439-.644 1.106-.644 2.002 0 .905.215 1.577.644 2.016a2.19 2.19 0 0 0 1.61.658c.635 0 1.153-.224 1.554-.672.402-.448.602-1.115.602-2.002Zm5.595 3.64h-2.828v-7.266h2.856c.868 0 1.526.154 1.974.462.457.299.686.77.686 1.414 0 .42-.112.761-.336 1.022-.215.261-.523.448-.924.56 1.036.168 1.554.742 1.554 1.722 0 .495-.131.896-.392 1.204-.252.308-.602.532-1.05.672-.448.14-.962.21-1.54.21Zm.014-6.216h-1.61v1.974h1.512c.466 0 .84-.084 1.12-.252.289-.168.434-.411.434-.728 0-.383-.126-.644-.378-.784s-.612-.21-1.078-.21Zm-.028 2.954h-1.582v2.212h1.582c.522 0 .942-.075 1.26-.224.317-.159.476-.443.476-.854s-.145-.7-.434-.868c-.29-.177-.724-.266-1.302-.266Zm6.074-4.004v5.558l3.738-5.558h1.246V247h-1.232v-5.544L219.685 247h-1.26v-7.266h1.232Zm9.112 7.406c-.457 0-.9-.051-1.33-.154-.42-.103-.765-.243-1.036-.42v-1.106a3.99 3.99 0 0 0 1.064.42c.411.103.836.154 1.274.154.532 0 .976-.084 1.33-.252.364-.177.546-.476.546-.896 0-.411-.154-.7-.462-.868-.298-.168-.76-.252-1.386-.252h-.966v-.994h1.008c.514 0 .906-.093 1.176-.28.271-.187.406-.457.406-.812 0-.373-.163-.63-.49-.77-.317-.149-.704-.224-1.162-.224-.821 0-1.554.196-2.198.588v-1.106c.28-.187.621-.327 1.022-.42a5.223 5.223 0 0 1 1.274-.154c.887 0 1.554.168 2.002.504.458.336.686.821.686 1.456 0 .476-.13.854-.392 1.134-.261.271-.62.453-1.078.546.57.075 1.004.257 1.302.546.299.289.448.658.448 1.106 0 .541-.144.98-.434 1.316-.28.327-.648.565-1.106.714a4.807 4.807 0 0 1-1.498.224Zm7.827 0c-.662 0-1.26-.145-1.792-.434a3.255 3.255 0 0 1-1.246-1.288c-.308-.569-.462-1.255-.462-2.058 0-.803.154-1.484.462-2.044.308-.56.724-.985 1.246-1.274a3.595 3.595 0 0 1 1.792-.448c.672 0 1.274.149 1.806.448.532.289.952.714 1.26 1.274.308.56.462 1.241.462 2.044 0 .803-.154 1.489-.462 2.058-.308.56-.728.989-1.26 1.288-.532.289-1.134.434-1.806.434Zm0-1.106c.654 0 1.195-.215 1.624-.644.43-.439.644-1.115.644-2.03 0-.915-.214-1.587-.644-2.016-.429-.439-.97-.658-1.624-.658-.644 0-1.18.219-1.61.658-.42.429-.63 1.101-.63 2.016s.21 1.591.63 2.03c.43.429.966.644 1.61.644Zm5.03-6.3h1.078l.126 1.414c.233-.467.555-.84.966-1.12.42-.289.933-.434 1.54-.434.569 0 1.092.14 1.568.42.485.271.877.686 1.176 1.246.299.551.448 1.251.448 2.1 0 .849-.154 1.554-.462 2.114-.299.56-.695.98-1.19 1.26a3.216 3.216 0 0 1-1.596.406c-.551 0-1.031-.131-1.442-.392a2.81 2.81 0 0 1-.98-1.078v3.808h-1.232v-9.744Zm5.628 3.626c0-.877-.201-1.54-.602-1.988-.401-.457-.919-.686-1.554-.686s-1.171.224-1.61.672c-.429.439-.644 1.106-.644 2.002 0 .905.215 1.577.644 2.016.439.439.975.658 1.61.658.635 0 1.153-.224 1.554-.672.401-.448.602-1.115.602-2.002Z"/>
    <rect width="60" height="200" x="110" y="342" fill="#D6E1FF" rx="10" transform="rotate(-90 110 342)"/>
    <rect width="60" height="200" x="110" y="342" fill="#E3EBFF" rx="10" transform="rotate(-90 110 342)"/>
    <path fill="#000" d="M180.122 309h-1.4l-1.036-2.87h-4.438l-1.022 2.87h-1.232l3.57-10.038h1.96L180.122 309Zm-6.44-4.06h3.584l-1.792-4.998-1.792 4.998Zm7.733 4.06v-7.266h5.824V309h-1.232v-6.216h-3.36V309h-1.232Zm7.834 0v-7.266h5.824V309h-1.232v-6.216h-3.36V309h-1.232Zm10.298-6.314c-.774 0-1.558.238-2.352.714v-1.106a4.425 4.425 0 0 1 1.19-.504 4.825 4.825 0 0 1 1.33-.196c.915 0 1.61.191 2.086.574.476.383.714.966.714 1.75v3.906c0 .159.005.364.014.616.019.243.038.429.056.56h-1.12a6.439 6.439 0 0 1-.084-.546 8.754 8.754 0 0 1-.028-.63l-.014-.21a3.93 3.93 0 0 1-.462.7 2.344 2.344 0 0 1-.784.588c-.317.159-.714.238-1.19.238-.653 0-1.18-.187-1.582-.56-.401-.373-.602-.901-.602-1.582 0-.793.28-1.377.84-1.75.56-.373 1.349-.56 2.366-.56h1.358v-.602c0-.504-.13-.863-.392-1.078-.261-.215-.709-.322-1.344-.322Zm1.736 3.514v-.532h-1.232c-.737 0-1.274.107-1.61.322-.326.215-.49.527-.49.938 0 .327.098.593.294.798.206.205.514.308.924.308.383 0 .71-.075.98-.224.271-.159.49-.345.658-.56.168-.224.29-.434.364-.63.075-.196.112-.336.112-.42Zm3.169-4.466h1.078l.126 1.414c.234-.467.556-.84.966-1.12.42-.289.934-.434 1.54-.434.57 0 1.092.14 1.568.42.486.271.878.686 1.176 1.246.299.551.448 1.251.448 2.1 0 .849-.154 1.554-.462 2.114-.298.56-.695.98-1.19 1.26a3.216 3.216 0 0 1-1.596.406c-.55 0-1.031-.131-1.442-.392a2.817 2.817 0 0 1-.98-1.078v3.808h-1.232v-9.744Zm5.628 3.626c0-.877-.2-1.54-.602-1.988-.401-.457-.919-.686-1.554-.686-.634 0-1.171.224-1.61.672-.429.439-.644 1.106-.644 2.002 0 .905.215 1.577.644 2.016a2.19 2.19 0 0 0 1.61.658c.635 0 1.153-.224 1.554-.672.402-.448.602-1.115.602-2.002Zm5.163-2.674c-.775 0-1.559.238-2.352.714v-1.106a4.412 4.412 0 0 1 1.19-.504c.457-.131.9-.196 1.33-.196.914 0 1.61.191 2.086.574.476.383.714.966.714 1.75v3.906c0 .159.004.364.014.616.018.243.037.429.056.56h-1.12a6.439 6.439 0 0 1-.084-.546 8.21 8.21 0 0 1-.028-.63l-.014-.21a3.93 3.93 0 0 1-.462.7 2.354 2.354 0 0 1-.784.588c-.318.159-.714.238-1.19.238-.654 0-1.181-.187-1.582-.56-.402-.373-.602-.901-.602-1.582 0-.793.28-1.377.84-1.75.56-.373 1.348-.56 2.366-.56h1.358v-.602c0-.504-.131-.863-.392-1.078-.262-.215-.71-.322-1.344-.322Zm1.736 3.514v-.532h-1.232c-.738 0-1.274.107-1.61.322-.327.215-.49.527-.49.938 0 .327.098.593.294.798.205.205.513.308.924.308.382 0 .709-.075.98-.224.27-.159.49-.345.658-.56.168-.224.289-.434.364-.63.074-.196.112-.336.112-.42Zm2.512-4.466h5.838v1.05h-2.324V309h-1.232v-6.216h-2.282v-1.05Zm8.492 0v2.996h3.514v-2.996h1.232V309h-1.232v-3.22h-3.514V309h-1.232v-7.266h1.232Zm9.748 7.406c-.662 0-1.26-.145-1.792-.434a3.255 3.255 0 0 1-1.246-1.288c-.308-.569-.462-1.255-.462-2.058 0-.803.154-1.484.462-2.044.308-.56.724-.985 1.246-1.274a3.595 3.595 0 0 1 1.792-.448c.672 0 1.274.149 1.806.448.532.289.952.714 1.26 1.274.308.56.462 1.241.462 2.044 0 .803-.154 1.489-.462 2.058-.308.56-.728.989-1.26 1.288-.532.289-1.134.434-1.806.434Zm0-1.106c.654 0 1.195-.215 1.624-.644.43-.439.644-1.115.644-2.03 0-.915-.214-1.587-.644-2.016-.429-.439-.97-.658-1.624-.658-.644 0-1.18.219-1.61.658-.42.429-.63 1.101-.63 2.016s.21 1.591.63 2.03c.43.429.966.644 1.61.644Zm8.25 1.106c-1.213 0-2.142-.331-2.786-.994-.635-.672-.952-1.601-.952-2.786 0-.793.149-1.47.448-2.03.299-.56.709-.989 1.232-1.288a3.49 3.49 0 0 1 1.764-.448c1.111 0 1.927.369 2.45 1.106.523.728.691 1.727.504 2.996h-5.124c.103 1.559.961 2.338 2.576 2.338.887 0 1.703-.252 2.45-.756v1.106a4.3 4.3 0 0 1-1.176.56c-.448.131-.91.196-1.386.196Zm-.322-6.454c-.532 0-.989.163-1.372.49-.383.327-.625.821-.728 1.484h3.906c.028-.625-.117-1.111-.434-1.456s-.775-.518-1.372-.518Zm-78.905 22.454c-.663 0-1.26-.145-1.792-.434a3.248 3.248 0 0 1-1.246-1.288c-.308-.569-.462-1.255-.462-2.058 0-.803.154-1.484.462-2.044.308-.56.723-.985 1.246-1.274a3.592 3.592 0 0 1 1.792-.448c.672 0 1.274.149 1.806.448.532.289.952.714 1.26 1.274.308.56.462 1.241.462 2.044 0 .803-.154 1.489-.462 2.058-.308.56-.728.989-1.26 1.288-.532.289-1.134.434-1.806.434Zm0-1.106c.653 0 1.194-.215 1.624-.644.429-.439.644-1.115.644-2.03 0-.915-.215-1.587-.644-2.016-.43-.439-.971-.658-1.624-.658-.644 0-1.181.219-1.61.658-.42.429-.63 1.101-.63 2.016s.21 1.591.63 2.03c.429.429.966.644 1.61.644Zm8.319-6.398c.616 0 1.167.145 1.652.434.495.289.887.714 1.176 1.274.29.551.434 1.223.434 2.016 0 .803-.154 1.489-.462 2.058-.308.56-.728.989-1.26 1.288-.532.289-1.134.434-1.806.434-.681 0-1.288-.154-1.82-.462-.522-.317-.933-.793-1.232-1.428-.298-.635-.448-1.442-.448-2.422 0-1.064.061-1.951.182-2.66.131-.709.332-1.288.602-1.736a3.072 3.072 0 0 1 1.092-1.092c.224-.131.458-.233.7-.308.243-.075.546-.131.91-.168.374-.047.85-.079 1.428-.098.364-.028.672-.075.924-.14.252-.065.481-.154.686-.266v1.12a2.384 2.384 0 0 1-.588.266 6.007 6.007 0 0 1-.896.14c-.55.056-.989.093-1.316.112a6.37 6.37 0 0 0-.77.084 2.14 2.14 0 0 0-1.498 1.232c-.205.439-.345 1.092-.42 1.96.486-1.092 1.396-1.638 2.73-1.638Zm-.266 6.398c.654 0 1.195-.215 1.624-.644.43-.439.644-1.115.644-2.03 0-.915-.214-1.587-.644-2.016-.429-.439-.97-.658-1.624-.658-.644 0-1.18.215-1.61.644-.42.429-.63 1.092-.63 1.988 0 .933.21 1.619.63 2.058.43.439.966.658 1.61.658Zm8.052 1.106c-.663 0-1.26-.145-1.792-.434a3.248 3.248 0 0 1-1.246-1.288c-.308-.569-.462-1.255-.462-2.058 0-.803.154-1.484.462-2.044.308-.56.723-.985 1.246-1.274a3.592 3.592 0 0 1 1.792-.448c.672 0 1.274.149 1.806.448.532.289.952.714 1.26 1.274.308.56.462 1.241.462 2.044 0 .803-.154 1.489-.462 2.058-.308.56-.728.989-1.26 1.288-.532.289-1.134.434-1.806.434Zm0-1.106c.653 0 1.195-.215 1.624-.644.429-.439.644-1.115.644-2.03 0-.915-.215-1.587-.644-2.016-.429-.439-.971-.658-1.624-.658-.644 0-1.181.219-1.61.658-.42.429-.63 1.101-.63 2.016s.21 1.591.63 2.03c.429.429.966.644 1.61.644Zm5.03-6.3h1.078l.126 1.414c.233-.467.555-.84.966-1.12.42-.289.933-.434 1.54-.434.569 0 1.092.14 1.568.42.485.271.877.686 1.176 1.246.299.551.448 1.251.448 2.1 0 .849-.154 1.554-.462 2.114-.299.56-.695.98-1.19 1.26a3.216 3.216 0 0 1-1.596.406c-.551 0-1.031-.131-1.442-.392a2.81 2.81 0 0 1-.98-1.078v3.808h-1.232v-9.744Zm5.628 3.626c0-.877-.201-1.54-.602-1.988-.401-.457-.919-.686-1.554-.686s-1.171.224-1.61.672c-.429.439-.644 1.106-.644 2.002 0 .905.215 1.577.644 2.016.439.439.975.658 1.61.658.635 0 1.153-.224 1.554-.672.401-.448.602-1.115.602-2.002Zm3.328 6.258c-.383 0-.7-.051-.952-.154v-1.19c.187.159.49.238.91.238.327 0 .602-.079.826-.238.233-.149.457-.411.672-.784l-2.954-7.756h1.358l2.31 6.132 2.296-6.132h1.19l-2.716 7.182c-.373.961-.789 1.652-1.246 2.072-.457.42-1.022.63-1.694.63Zm6.62-.546h-1.106v-3.122h.686c.299-.299.509-.719.63-1.26.131-.541.21-1.218.238-2.03a87.51 87.51 0 0 0 .042-2.926h5.25v6.216h1.092v3.122h-1.078l-.154-2.072h-5.474l-.126 2.072Zm4.508-8.288h-2.87c-.009 1.325-.056 2.399-.14 3.22-.075.812-.266 1.461-.574 1.946h3.584v-5.166Zm6.455 6.356c-.663 0-1.26-.145-1.792-.434a3.248 3.248 0 0 1-1.246-1.288c-.308-.569-.462-1.255-.462-2.058 0-.803.154-1.484.462-2.044.308-.56.723-.985 1.246-1.274a3.592 3.592 0 0 1 1.792-.448c.672 0 1.274.149 1.806.448.532.289.952.714 1.26 1.274.308.56.462 1.241.462 2.044 0 .803-.154 1.489-.462 2.058-.308.56-.728.989-1.26 1.288-.532.289-1.134.434-1.806.434Zm0-1.106c.653 0 1.194-.215 1.624-.644.429-.439.644-1.115.644-2.03 0-.915-.215-1.587-.644-2.016-.43-.439-.971-.658-1.624-.658-.644 0-1.181.219-1.61.658-.42.429-.63 1.101-.63 2.016s.21 1.591.63 2.03c.429.429.966.644 1.61.644Zm7.857.966h-2.828v-7.266h2.856c.868 0 1.526.154 1.974.462.458.299.686.77.686 1.414 0 .42-.112.761-.336 1.022-.214.261-.522.448-.924.56 1.036.168 1.554.742 1.554 1.722 0 .495-.13.896-.392 1.204-.252.308-.602.532-1.05.672-.448.14-.961.21-1.54.21Zm.014-6.216h-1.61v1.974h1.512c.467 0 .84-.084 1.12-.252.29-.168.434-.411.434-.728 0-.383-.126-.644-.378-.784s-.611-.21-1.078-.21Zm-.028 2.954h-1.582v2.212h1.582c.523 0 .943-.075 1.26-.224.318-.159.476-.443.476-.854s-.144-.7-.434-.868c-.289-.177-.723-.266-1.302-.266Zm7.306-3.052c-.774 0-1.558.238-2.352.714v-1.106a4.425 4.425 0 0 1 1.19-.504 4.825 4.825 0 0 1 1.33-.196c.915 0 1.61.191 2.086.574.476.383.714.966.714 1.75v3.906c0 .159.005.364.014.616.019.243.038.429.056.56h-1.12a6.439 6.439 0 0 1-.084-.546 8.754 8.754 0 0 1-.028-.63l-.014-.21a3.93 3.93 0 0 1-.462.7 2.344 2.344 0 0 1-.784.588c-.317.159-.714.238-1.19.238-.653 0-1.18-.187-1.582-.56-.401-.373-.602-.901-.602-1.582 0-.793.28-1.377.84-1.75.56-.373 1.349-.56 2.366-.56h1.358v-.602c0-.504-.13-.863-.392-1.078-.261-.215-.709-.322-1.344-.322Zm1.736 3.514v-.532h-1.232c-.737 0-1.274.107-1.61.322-.326.215-.49.527-.49.938 0 .327.098.593.294.798.206.205.514.308.924.308.383 0 .71-.075.98-.224.271-.159.49-.345.658-.56.168-.224.29-.434.364-.63.075-.196.112-.336.112-.42Zm4.402-4.466v2.996h3.514v-2.996h1.232V325h-1.232v-3.22h-3.514V325h-1.232v-7.266h1.232Zm7.998 0v5.558l3.738-5.558h1.246V325h-1.232v-5.544L243.741 325h-1.26v-7.266h1.232Zm10.218 7.406c-1.213 0-2.142-.331-2.786-.994-.635-.672-.952-1.601-.952-2.786 0-.793.149-1.47.448-2.03.299-.56.709-.989 1.232-1.288a3.49 3.49 0 0 1 1.764-.448c1.111 0 1.927.369 2.45 1.106.523.728.691 1.727.504 2.996h-5.124c.103 1.559.961 2.338 2.576 2.338.887 0 1.703-.252 2.45-.756v1.106a4.3 4.3 0 0 1-1.176.56c-.448.131-.91.196-1.386.196Zm-.322-6.454c-.532 0-.989.163-1.372.49-.383.327-.625.821-.728 1.484h3.906c.028-.625-.117-1.111-.434-1.456s-.775-.518-1.372-.518Zm-108.436 77.276h7.546V406h-1.33v-8.834h-4.9V406h-1.316v-10.038Zm12.699 10.178c-.663 0-1.26-.145-1.792-.434a3.248 3.248 0 0 1-1.246-1.288c-.308-.569-.462-1.255-.462-2.058 0-.803.154-1.484.462-2.044.308-.56.723-.985 1.246-1.274a3.592 3.592 0 0 1 1.792-.448c.672 0 1.274.149 1.806.448.532.289.952.714 1.26 1.274.308.56.462 1.241.462 2.044 0 .803-.154 1.489-.462 2.058-.308.56-.728.989-1.26 1.288-.532.289-1.134.434-1.806.434Zm0-1.106c.653 0 1.195-.215 1.624-.644.429-.439.644-1.115.644-2.03 0-.915-.215-1.587-.644-2.016-.429-.439-.971-.658-1.624-.658-.644 0-1.181.219-1.61.658-.42.429-.63 1.101-.63 2.016s.21 1.591.63 2.03c.429.429.966.644 1.61.644Zm4.236-.238c.56.084.943-.266 1.148-1.05.075-.28.136-.63.182-1.05.047-.429.08-.961.098-1.596.019-.644.028-1.433.028-2.366h5.026V406h-1.246v-6.216h-2.618a37.3 37.3 0 0 1-.098 2.674 9.798 9.798 0 0 1-.238 1.666c-.177.7-.448 1.199-.812 1.498-.364.299-.854.429-1.47.392v-1.218Zm9.681-6.062v2.45h1.33c.924 0 1.647.187 2.17.56.522.364.784.961.784 1.792 0 .569-.131 1.036-.392 1.4a2.325 2.325 0 0 1-1.078.812c-.458.168-.98.252-1.568.252h-2.478v-7.266h1.232Zm1.246 6.216c.532 0 .961-.103 1.288-.308.336-.215.504-.56.504-1.036 0-.485-.15-.835-.448-1.05-.299-.215-.719-.322-1.26-.322h-1.33v2.716h1.246Zm6.719 1.19c-.457 0-.901-.051-1.33-.154-.42-.103-.765-.243-1.036-.42v-1.106c.299.177.653.317 1.064.42.411.103.835.154 1.274.154.532 0 .975-.084 1.33-.252.364-.177.546-.476.546-.896 0-.411-.154-.7-.462-.868-.299-.168-.761-.252-1.386-.252h-.966v-.994h1.008c.513 0 .905-.093 1.176-.28.271-.187.406-.457.406-.812 0-.373-.163-.63-.49-.77-.317-.149-.705-.224-1.162-.224-.821 0-1.554.196-2.198.588v-1.106c.28-.187.621-.327 1.022-.42a5.217 5.217 0 0 1 1.274-.154c.887 0 1.554.168 2.002.504.457.336.686.821.686 1.456 0 .476-.131.854-.392 1.134-.261.271-.621.453-1.078.546.569.075 1.003.257 1.302.546.299.289.448.658.448 1.106 0 .541-.145.98-.434 1.316-.28.327-.649.565-1.106.714a4.812 4.812 0 0 1-1.498.224Zm7.827 0c-.663 0-1.26-.145-1.792-.434a3.248 3.248 0 0 1-1.246-1.288c-.308-.569-.462-1.255-.462-2.058 0-.803.154-1.484.462-2.044.308-.56.723-.985 1.246-1.274a3.592 3.592 0 0 1 1.792-.448c.672 0 1.274.149 1.806.448.532.289.952.714 1.26 1.274.308.56.462 1.241.462 2.044 0 .803-.154 1.489-.462 2.058-.308.56-.728.989-1.26 1.288-.532.289-1.134.434-1.806.434Zm0-1.106c.653 0 1.194-.215 1.624-.644.429-.439.644-1.115.644-2.03 0-.915-.215-1.587-.644-2.016-.43-.439-.971-.658-1.624-.658-.644 0-1.181.219-1.61.658-.42.429-.63 1.101-.63 2.016s.21 1.591.63 2.03c.429.429.966.644 1.61.644Zm7.858.966h-2.828v-7.266h2.856c.868 0 1.526.154 1.974.462.457.299.686.77.686 1.414 0 .42-.112.761-.336 1.022-.215.261-.523.448-.924.56 1.036.168 1.554.742 1.554 1.722 0 .495-.131.896-.392 1.204-.252.308-.602.532-1.05.672-.448.14-.962.21-1.54.21Zm.014-6.216h-1.61v1.974h1.512c.466 0 .84-.084 1.12-.252.289-.168.434-.411.434-.728 0-.383-.126-.644-.378-.784s-.612-.21-1.078-.21Zm-.028 2.954h-1.582v2.212h1.582c.522 0 .942-.075 1.26-.224.317-.159.476-.443.476-.854s-.145-.7-.434-.868c-.29-.177-.724-.266-1.302-.266Zm7.306-3.052c-.775 0-1.559.238-2.352.714v-1.106a4.412 4.412 0 0 1 1.19-.504c.457-.131.9-.196 1.33-.196.914 0 1.61.191 2.086.574.476.383.714.966.714 1.75v3.906c0 .159.004.364.014.616.018.243.037.429.056.56h-1.12a6.439 6.439 0 0 1-.084-.546 8.21 8.21 0 0 1-.028-.63l-.014-.21a3.93 3.93 0 0 1-.462.7 2.354 2.354 0 0 1-.784.588c-.318.159-.714.238-1.19.238-.654 0-1.181-.187-1.582-.56-.402-.373-.602-.901-.602-1.582 0-.793.28-1.377.84-1.75.56-.373 1.348-.56 2.366-.56h1.358v-.602c0-.504-.131-.863-.392-1.078-.262-.215-.71-.322-1.344-.322Zm1.736 3.514v-.532h-1.232c-.738 0-1.274.107-1.61.322-.327.215-.49.527-.49.938 0 .327.098.593.294.798.205.205.513.308.924.308.382 0 .709-.075.98-.224.27-.159.49-.345.658-.56.168-.224.289-.434.364-.63.074-.196.112-.336.112-.42Zm2.513-4.466h5.838v1.05h-2.324V406h-1.232v-6.216h-2.282v-1.05Zm10.274 7.406c-1.213 0-2.142-.331-2.786-.994-.634-.672-.952-1.601-.952-2.786 0-.793.15-1.47.448-2.03.299-.56.71-.989 1.232-1.288a3.49 3.49 0 0 1 1.764-.448c1.111 0 1.928.369 2.45 1.106.523.728.691 1.727.504 2.996h-5.124c.103 1.559.962 2.338 2.576 2.338.887 0 1.704-.252 2.45-.756v1.106a4.3 4.3 0 0 1-1.176.56c-.448.131-.91.196-1.386.196Zm-.322-6.454c-.532 0-.989.163-1.372.49-.382.327-.625.821-.728 1.484h3.906c.028-.625-.116-1.111-.434-1.456-.317-.345-.774-.518-1.372-.518Zm4.048 5.11c.56.084.942-.266 1.148-1.05.074-.28.135-.63.182-1.05.046-.429.079-.961.098-1.596.018-.644.028-1.433.028-2.366h5.026V406h-1.246v-6.216h-2.618a37.9 37.9 0 0 1-.098 2.674c-.047.663-.126 1.218-.238 1.666-.178.7-.448 1.199-.812 1.498-.364.299-.854.429-1.47.392v-1.218Zm9.68-6.062v2.45h1.33c.924 0 1.647.187 2.17.56.523.364.784.961.784 1.792 0 .569-.131 1.036-.392 1.4a2.32 2.32 0 0 1-1.078.812c-.457.168-.98.252-1.568.252h-2.478v-7.266h1.232Zm1.246 6.216c.532 0 .961-.103 1.288-.308.336-.215.504-.56.504-1.036 0-.485-.149-.835-.448-1.05-.299-.215-.719-.322-1.26-.322h-1.33v2.716h1.246Zm11.608 1.05h-1.274v-8.456l-2.772 2.128v-1.414l2.982-2.296h1.064V406Zm66.659-10.038h7.546V406h-1.33v-8.834h-4.9V406h-1.316v-10.038Zm12.699 10.178c-.663 0-1.26-.145-1.792-.434a3.248 3.248 0 0 1-1.246-1.288c-.308-.569-.462-1.255-.462-2.058 0-.803.154-1.484.462-2.044.308-.56.723-.985 1.246-1.274a3.592 3.592 0 0 1 1.792-.448c.672 0 1.274.149 1.806.448.532.289.952.714 1.26 1.274.308.56.462 1.241.462 2.044 0 .803-.154 1.489-.462 2.058-.308.56-.728.989-1.26 1.288-.532.289-1.134.434-1.806.434Zm0-1.106c.653 0 1.195-.215 1.624-.644.429-.439.644-1.115.644-2.03 0-.915-.215-1.587-.644-2.016-.429-.439-.971-.658-1.624-.658-.644 0-1.181.219-1.61.658-.42.429-.63 1.101-.63 2.016s.21 1.591.63 2.03c.429.429.966.644 1.61.644Zm4.236-.238c.56.084.943-.266 1.148-1.05.075-.28.136-.63.182-1.05.047-.429.08-.961.098-1.596.019-.644.028-1.433.028-2.366h5.026V406h-1.246v-6.216h-2.618a37.3 37.3 0 0 1-.098 2.674 9.798 9.798 0 0 1-.238 1.666c-.177.7-.448 1.199-.812 1.498-.364.299-.854.429-1.47.392v-1.218Zm9.681-6.062v2.45h1.33c.924 0 1.647.187 2.17.56.522.364.784.961.784 1.792 0 .569-.131 1.036-.392 1.4a2.325 2.325 0 0 1-1.078.812c-.458.168-.98.252-1.568.252h-2.478v-7.266h1.232Zm1.246 6.216c.532 0 .961-.103 1.288-.308.336-.215.504-.56.504-1.036 0-.485-.15-.835-.448-1.05-.299-.215-.719-.322-1.26-.322h-1.33v2.716h1.246Zm6.719 1.19c-.457 0-.901-.051-1.33-.154-.42-.103-.765-.243-1.036-.42v-1.106c.299.177.653.317 1.064.42.411.103.835.154 1.274.154.532 0 .975-.084 1.33-.252.364-.177.546-.476.546-.896 0-.411-.154-.7-.462-.868-.299-.168-.761-.252-1.386-.252h-.966v-.994h1.008c.513 0 .905-.093 1.176-.28.271-.187.406-.457.406-.812 0-.373-.163-.63-.49-.77-.317-.149-.705-.224-1.162-.224-.821 0-1.554.196-2.198.588v-1.106c.28-.187.621-.327 1.022-.42a5.217 5.217 0 0 1 1.274-.154c.887 0 1.554.168 2.002.504.457.336.686.821.686 1.456 0 .476-.131.854-.392 1.134-.261.271-.621.453-1.078.546.569.075 1.003.257 1.302.546.299.289.448.658.448 1.106 0 .541-.145.98-.434 1.316-.28.327-.649.565-1.106.714a4.812 4.812 0 0 1-1.498.224Zm7.827 0c-.663 0-1.26-.145-1.792-.434a3.248 3.248 0 0 1-1.246-1.288c-.308-.569-.462-1.255-.462-2.058 0-.803.154-1.484.462-2.044.308-.56.723-.985 1.246-1.274a3.592 3.592 0 0 1 1.792-.448c.672 0 1.274.149 1.806.448.532.289.952.714 1.26 1.274.308.56.462 1.241.462 2.044 0 .803-.154 1.489-.462 2.058-.308.56-.728.989-1.26 1.288-.532.289-1.134.434-1.806.434Zm0-1.106c.653 0 1.194-.215 1.624-.644.429-.439.644-1.115.644-2.03 0-.915-.215-1.587-.644-2.016-.43-.439-.971-.658-1.624-.658-.644 0-1.181.219-1.61.658-.42.429-.63 1.101-.63 2.016s.21 1.591.63 2.03c.429.429.966.644 1.61.644Zm7.858.966h-2.828v-7.266h2.856c.868 0 1.526.154 1.974.462.457.299.686.77.686 1.414 0 .42-.112.761-.336 1.022-.215.261-.523.448-.924.56 1.036.168 1.554.742 1.554 1.722 0 .495-.131.896-.392 1.204-.252.308-.602.532-1.05.672-.448.14-.962.21-1.54.21Zm.014-6.216h-1.61v1.974h1.512c.466 0 .84-.084 1.12-.252.289-.168.434-.411.434-.728 0-.383-.126-.644-.378-.784s-.612-.21-1.078-.21Zm-.028 2.954h-1.582v2.212h1.582c.522 0 .942-.075 1.26-.224.317-.159.476-.443.476-.854s-.145-.7-.434-.868c-.29-.177-.724-.266-1.302-.266Zm7.306-3.052c-.775 0-1.559.238-2.352.714v-1.106a4.412 4.412 0 0 1 1.19-.504c.457-.131.9-.196 1.33-.196.914 0 1.61.191 2.086.574.476.383.714.966.714 1.75v3.906c0 .159.004.364.014.616.018.243.037.429.056.56h-1.12a6.439 6.439 0 0 1-.084-.546 8.21 8.21 0 0 1-.028-.63l-.014-.21a3.93 3.93 0 0 1-.462.7 2.354 2.354 0 0 1-.784.588c-.318.159-.714.238-1.19.238-.654 0-1.181-.187-1.582-.56-.402-.373-.602-.901-.602-1.582 0-.793.28-1.377.84-1.75.56-.373 1.348-.56 2.366-.56h1.358v-.602c0-.504-.131-.863-.392-1.078-.262-.215-.71-.322-1.344-.322Zm1.736 3.514v-.532h-1.232c-.738 0-1.274.107-1.61.322-.327.215-.49.527-.49.938 0 .327.098.593.294.798.205.205.513.308.924.308.382 0 .709-.075.98-.224.27-.159.49-.345.658-.56.168-.224.289-.434.364-.63.074-.196.112-.336.112-.42Zm2.513-4.466h5.838v1.05h-2.324V406h-1.232v-6.216h-2.282v-1.05Zm10.274 7.406c-1.213 0-2.142-.331-2.786-.994-.634-.672-.952-1.601-.952-2.786 0-.793.15-1.47.448-2.03.299-.56.71-.989 1.232-1.288a3.49 3.49 0 0 1 1.764-.448c1.111 0 1.928.369 2.45 1.106.523.728.691 1.727.504 2.996h-5.124c.103 1.559.962 2.338 2.576 2.338.887 0 1.704-.252 2.45-.756v1.106a4.3 4.3 0 0 1-1.176.56c-.448.131-.91.196-1.386.196Zm-.322-6.454c-.532 0-.989.163-1.372.49-.382.327-.625.821-.728 1.484h3.906c.028-.625-.116-1.111-.434-1.456-.317-.345-.774-.518-1.372-.518Zm4.048 5.11c.56.084.942-.266 1.148-1.05.074-.28.135-.63.182-1.05.046-.429.079-.961.098-1.596.018-.644.028-1.433.028-2.366h5.026V406h-1.246v-6.216h-2.618a37.9 37.9 0 0 1-.098 2.674c-.047.663-.126 1.218-.238 1.666-.178.7-.448 1.199-.812 1.498-.364.299-.854.429-1.47.392v-1.218Zm9.68-6.062v2.45h1.33c.924 0 1.647.187 2.17.56.523.364.784.961.784 1.792 0 .569-.131 1.036-.392 1.4a2.32 2.32 0 0 1-1.078.812c-.457.168-.98.252-1.568.252h-2.478v-7.266h1.232Zm1.246 6.216c.532 0 .961-.103 1.288-.308.336-.215.504-.56.504-1.036 0-.485-.149-.835-.448-1.05-.299-.215-.719-.322-1.26-.322h-1.33v2.716h1.246ZM410.39 406h-6.398v-1.33a62.22 62.22 0 0 0 2.45-2.058c.644-.569 1.143-1.064 1.498-1.484.364-.429.616-.826.756-1.19.149-.364.224-.733.224-1.106 0-.579-.173-1.031-.518-1.358-.346-.327-.822-.49-1.428-.49-.971 0-1.876.462-2.716 1.386v-1.414c.774-.756 1.694-1.134 2.758-1.134 1.008 0 1.801.261 2.38.784.588.513.882 1.213.882 2.1 0 .457-.075.896-.224 1.316-.14.411-.392.845-.756 1.302-.355.448-.845.952-1.47 1.512a45.807 45.807 0 0 1-2.38 1.96h4.942V406Zm64.783-10.038h7.546V406h-1.33v-8.834h-4.9V406h-1.316v-10.038Zm12.699 10.178c-.663 0-1.26-.145-1.792-.434a3.248 3.248 0 0 1-1.246-1.288c-.308-.569-.462-1.255-.462-2.058 0-.803.154-1.484.462-2.044.308-.56.723-.985 1.246-1.274a3.592 3.592 0 0 1 1.792-.448c.672 0 1.274.149 1.806.448.532.289.952.714 1.26 1.274.308.56.462 1.241.462 2.044 0 .803-.154 1.489-.462 2.058-.308.56-.728.989-1.26 1.288-.532.289-1.134.434-1.806.434Zm0-1.106c.653 0 1.195-.215 1.624-.644.429-.439.644-1.115.644-2.03 0-.915-.215-1.587-.644-2.016-.429-.439-.971-.658-1.624-.658-.644 0-1.181.219-1.61.658-.42.429-.63 1.101-.63 2.016s.21 1.591.63 2.03c.429.429.966.644 1.61.644Zm4.236-.238c.56.084.943-.266 1.148-1.05.075-.28.136-.63.182-1.05.047-.429.08-.961.098-1.596.019-.644.028-1.433.028-2.366h5.026V406h-1.246v-6.216h-2.618a37.3 37.3 0 0 1-.098 2.674 9.798 9.798 0 0 1-.238 1.666c-.177.7-.448 1.199-.812 1.498-.364.299-.854.429-1.47.392v-1.218Zm9.681-6.062v2.45h1.33c.924 0 1.647.187 2.17.56.522.364.784.961.784 1.792 0 .569-.131 1.036-.392 1.4a2.325 2.325 0 0 1-1.078.812c-.458.168-.98.252-1.568.252h-2.478v-7.266h1.232Zm1.246 6.216c.532 0 .961-.103 1.288-.308.336-.215.504-.56.504-1.036 0-.485-.15-.835-.448-1.05-.299-.215-.719-.322-1.26-.322h-1.33v2.716h1.246Zm6.719 1.19c-.457 0-.901-.051-1.33-.154-.42-.103-.765-.243-1.036-.42v-1.106c.299.177.653.317 1.064.42.411.103.835.154 1.274.154.532 0 .975-.084 1.33-.252.364-.177.546-.476.546-.896 0-.411-.154-.7-.462-.868-.299-.168-.761-.252-1.386-.252h-.966v-.994h1.008c.513 0 .905-.093 1.176-.28.271-.187.406-.457.406-.812 0-.373-.163-.63-.49-.77-.317-.149-.705-.224-1.162-.224-.821 0-1.554.196-2.198.588v-1.106c.28-.187.621-.327 1.022-.42a5.217 5.217 0 0 1 1.274-.154c.887 0 1.554.168 2.002.504.457.336.686.821.686 1.456 0 .476-.131.854-.392 1.134-.261.271-.621.453-1.078.546.569.075 1.003.257 1.302.546.299.289.448.658.448 1.106 0 .541-.145.98-.434 1.316-.28.327-.649.565-1.106.714a4.812 4.812 0 0 1-1.498.224Zm7.827 0c-.663 0-1.26-.145-1.792-.434a3.248 3.248 0 0 1-1.246-1.288c-.308-.569-.462-1.255-.462-2.058 0-.803.154-1.484.462-2.044.308-.56.723-.985 1.246-1.274a3.592 3.592 0 0 1 1.792-.448c.672 0 1.274.149 1.806.448.532.289.952.714 1.26 1.274.308.56.462 1.241.462 2.044 0 .803-.154 1.489-.462 2.058-.308.56-.728.989-1.26 1.288-.532.289-1.134.434-1.806.434Zm0-1.106c.653 0 1.194-.215 1.624-.644.429-.439.644-1.115.644-2.03 0-.915-.215-1.587-.644-2.016-.43-.439-.971-.658-1.624-.658-.644 0-1.181.219-1.61.658-.42.429-.63 1.101-.63 2.016s.21 1.591.63 2.03c.429.429.966.644 1.61.644Zm7.858.966h-2.828v-7.266h2.856c.868 0 1.526.154 1.974.462.457.299.686.77.686 1.414 0 .42-.112.761-.336 1.022-.215.261-.523.448-.924.56 1.036.168 1.554.742 1.554 1.722 0 .495-.131.896-.392 1.204-.252.308-.602.532-1.05.672-.448.14-.962.21-1.54.21Zm.014-6.216h-1.61v1.974h1.512c.466 0 .84-.084 1.12-.252.289-.168.434-.411.434-.728 0-.383-.126-.644-.378-.784s-.612-.21-1.078-.21Zm-.028 2.954h-1.582v2.212h1.582c.522 0 .942-.075 1.26-.224.317-.159.476-.443.476-.854s-.145-.7-.434-.868c-.29-.177-.724-.266-1.302-.266Zm7.306-3.052c-.775 0-1.559.238-2.352.714v-1.106a4.412 4.412 0 0 1 1.19-.504c.457-.131.9-.196 1.33-.196.914 0 1.61.191 2.086.574.476.383.714.966.714 1.75v3.906c0 .159.004.364.014.616.018.243.037.429.056.56h-1.12a6.439 6.439 0 0 1-.084-.546 8.21 8.21 0 0 1-.028-.63l-.014-.21a3.93 3.93 0 0 1-.462.7 2.354 2.354 0 0 1-.784.588c-.318.159-.714.238-1.19.238-.654 0-1.181-.187-1.582-.56-.402-.373-.602-.901-.602-1.582 0-.793.28-1.377.84-1.75.56-.373 1.348-.56 2.366-.56h1.358v-.602c0-.504-.131-.863-.392-1.078-.262-.215-.71-.322-1.344-.322Zm1.736 3.514v-.532h-1.232c-.738 0-1.274.107-1.61.322-.327.215-.49.527-.49.938 0 .327.098.593.294.798.205.205.513.308.924.308.382 0 .709-.075.98-.224.27-.159.49-.345.658-.56.168-.224.289-.434.364-.63.074-.196.112-.336.112-.42Zm2.513-4.466h5.838v1.05h-2.324V406h-1.232v-6.216h-2.282v-1.05Zm10.274 7.406c-1.213 0-2.142-.331-2.786-.994-.634-.672-.952-1.601-.952-2.786 0-.793.15-1.47.448-2.03.299-.56.71-.989 1.232-1.288a3.49 3.49 0 0 1 1.764-.448c1.111 0 1.928.369 2.45 1.106.523.728.691 1.727.504 2.996h-5.124c.103 1.559.962 2.338 2.576 2.338.887 0 1.704-.252 2.45-.756v1.106a4.3 4.3 0 0 1-1.176.56c-.448.131-.91.196-1.386.196Zm-.322-6.454c-.532 0-.989.163-1.372.49-.382.327-.625.821-.728 1.484h3.906c.028-.625-.116-1.111-.434-1.456-.317-.345-.774-.518-1.372-.518Zm4.048 5.11c.56.084.942-.266 1.148-1.05.074-.28.135-.63.182-1.05.046-.429.079-.961.098-1.596.018-.644.028-1.433.028-2.366h5.026V406h-1.246v-6.216h-2.618a37.9 37.9 0 0 1-.098 2.674c-.047.663-.126 1.218-.238 1.666-.178.7-.448 1.199-.812 1.498-.364.299-.854.429-1.47.392v-1.218Zm9.68-6.062v2.45h1.33c.924 0 1.647.187 2.17.56.523.364.784.961.784 1.792 0 .569-.131 1.036-.392 1.4a2.32 2.32 0 0 1-1.078.812c-.457.168-.98.252-1.568.252h-2.478v-7.266h1.232Zm1.246 6.216c.532 0 .961-.103 1.288-.308.336-.215.504-.56.504-1.036 0-.485-.149-.835-.448-1.05-.299-.215-.719-.322-1.26-.322h-1.33v2.716h1.246Zm8.724-3.598v-1.19h1.344c.522 0 .947-.14 1.274-.42.336-.289.504-.695.504-1.218 0-.476-.154-.849-.462-1.12-.308-.28-.752-.42-1.33-.42a3.56 3.56 0 0 0-1.372.266c-.42.177-.859.462-1.316.854v-1.372c.746-.607 1.647-.91 2.702-.91.961 0 1.712.243 2.254.728.55.485.826 1.12.826 1.904 0 .635-.178 1.139-.532 1.512a2.491 2.491 0 0 1-1.246.742c.392.056.751.191 1.078.406.336.205.606.476.812.812.205.336.308.728.308 1.176 0 .616-.154 1.153-.462 1.61a3.05 3.05 0 0 1-1.274 1.064c-.532.243-1.153.364-1.862.364-1.232 0-2.184-.285-2.856-.854v-1.4c.354.345.784.616 1.288.812a4.325 4.325 0 0 0 1.582.294c.69 0 1.232-.163 1.624-.49.401-.336.602-.793.602-1.372 0-.56-.182-.994-.546-1.302-.355-.317-.906-.476-1.652-.476h-1.288Z"/>
    <rect width="60" height="90" x="390" y="112" fill="#FFF2BF" rx="10"/>
    <rect width="60" height="200" x="390" y="272" fill="#E3EBFF" rx="10" transform="rotate(-90 390 272)"/>
    <path fill="#000" d="M406.684 151.962h3.402c1.101 0 1.936.187 2.506.56.578.373.868 1.003.868 1.89 0 .719-.182 1.265-.546 1.638-.364.364-.85.611-1.456.742.774.093 1.362.322 1.764.686.401.355.602.896.602 1.624 0 .691-.164 1.251-.49 1.68-.327.429-.775.742-1.344.938-.57.187-1.214.28-1.932.28h-3.374v-10.038Zm3.304 4.284c.634 0 1.148-.14 1.54-.42.401-.289.602-.737.602-1.344 0-.513-.178-.859-.532-1.036-.355-.187-.859-.28-1.512-.28H408v3.08h1.988Zm.07 4.564c.709 0 1.283-.121 1.722-.364.438-.243.658-.681.658-1.316s-.206-1.073-.616-1.316c-.402-.252-1.041-.378-1.918-.378H408v3.374h2.058Zm10.507-.336h-.588l.014-.014-3.038-6.65V162h-1.246v-10.038h1.834l3.122 7.042 3.262-7.042h1.708V162h-1.33v-8.078l-3.08 6.538-.658.014ZM432.003 162h-1.274v-8.456l-2.772 2.128v-1.414l2.982-2.296h1.064V162Z"/>
    <rect width="60" height="90" x="460" y="112" fill="#FFF2BF" rx="10"/>
    <rect width="60" height="40" x="530" y="112" fill="#FFF2BF" rx="10"/>
    <rect width="60" height="40" x="530" y="162" fill="#FFF2BF" rx="10"/>
    <path fill="#000" d="M476.684 151.962h3.402c1.101 0 1.936.187 2.506.56.578.373.868 1.003.868 1.89 0 .719-.182 1.265-.546 1.638-.364.364-.85.611-1.456.742.774.093 1.362.322 1.764.686.401.355.602.896.602 1.624 0 .691-.164 1.251-.49 1.68-.327.429-.775.742-1.344.938-.57.187-1.214.28-1.932.28h-3.374v-10.038Zm3.304 4.284c.634 0 1.148-.14 1.54-.42.401-.289.602-.737.602-1.344 0-.513-.178-.859-.532-1.036-.355-.187-.859-.28-1.512-.28H478v3.08h1.988Zm.07 4.564c.709 0 1.283-.121 1.722-.364.438-.243.658-.681.658-1.316s-.206-1.073-.616-1.316c-.402-.252-1.041-.378-1.918-.378H478v3.374h2.058Zm10.507-.336h-.588l.014-.014-3.038-6.65V162h-1.246v-10.038h1.834l3.122 7.042 3.262-7.042h1.708V162h-1.33v-8.078l-3.08 6.538-.658.014ZM503.879 162h-6.398v-1.33a61.49 61.49 0 0 0 2.45-2.058c.644-.569 1.143-1.064 1.498-1.484.364-.429.616-.826.756-1.19.149-.364.224-.733.224-1.106 0-.579-.173-1.031-.518-1.358-.345-.327-.821-.49-1.428-.49-.971 0-1.876.462-2.716 1.386v-1.414c.775-.756 1.694-1.134 2.758-1.134 1.008 0 1.801.261 2.38.784.588.513.882 1.213.882 2.1 0 .457-.075.896-.224 1.316-.14.411-.392.845-.756 1.302-.355.448-.845.952-1.47 1.512a45.385 45.385 0 0 1-2.38 1.96h4.942V162Zm42.805-35.038h3.402c1.101 0 1.936.187 2.506.56.578.373.868 1.003.868 1.89 0 .719-.182 1.265-.546 1.638-.364.364-.85.611-1.456.742.774.093 1.362.322 1.764.686.401.355.602.896.602 1.624 0 .691-.164 1.251-.49 1.68-.327.429-.775.742-1.344.938-.57.187-1.214.28-1.932.28h-3.374v-10.038Zm3.304 4.284c.634 0 1.148-.14 1.54-.42.401-.289.602-.737.602-1.344 0-.513-.178-.859-.532-1.036-.355-.187-.859-.28-1.512-.28H548v3.08h1.988Zm.07 4.564c.709 0 1.283-.121 1.722-.364.438-.243.658-.681.658-1.316s-.206-1.073-.616-1.316c-.402-.252-1.041-.378-1.918-.378H548v3.374h2.058Zm10.507-.336h-.588l.014-.014-3.038-6.65V137h-1.246v-10.038h1.834l3.122 7.042 3.262-7.042h1.708V137h-1.33v-8.078l-3.08 6.538-.658.014Zm8.554-3.122v-1.19h1.344c.523 0 .947-.14 1.274-.42.336-.289.504-.695.504-1.218 0-.476-.154-.849-.462-1.12-.308-.28-.751-.42-1.33-.42-.485 0-.943.089-1.372.266-.42.177-.859.462-1.316.854v-1.372c.747-.607 1.647-.91 2.702-.91.961 0 1.713.243 2.254.728.551.485.826 1.12.826 1.904 0 .635-.177 1.139-.532 1.512a2.487 2.487 0 0 1-1.246.742c.392.056.751.191 1.078.406.336.205.607.476.812.812.205.336.308.728.308 1.176 0 .616-.154 1.153-.462 1.61a3.05 3.05 0 0 1-1.274 1.064c-.532.243-1.153.364-1.862.364-1.232 0-2.184-.285-2.856-.854v-1.4c.355.345.784.616 1.288.812a4.325 4.325 0 0 0 1.582.294c.691 0 1.232-.163 1.624-.49.401-.336.602-.793.602-1.372 0-.56-.182-.994-.546-1.302-.355-.317-.905-.476-1.652-.476h-1.288Zm-22.435 44.61h3.402c1.101 0 1.936.187 2.506.56.578.373.868 1.003.868 1.89 0 .719-.182 1.265-.546 1.638-.364.364-.85.611-1.456.742.774.093 1.362.322 1.764.686.401.355.602.896.602 1.624 0 .691-.164 1.251-.49 1.68-.327.429-.775.742-1.344.938-.57.187-1.214.28-1.932.28h-3.374v-10.038Zm3.304 4.284c.634 0 1.148-.14 1.54-.42.401-.289.602-.737.602-1.344 0-.513-.178-.859-.532-1.036-.355-.187-.859-.28-1.512-.28H548v3.08h1.988Zm.07 4.564c.709 0 1.283-.121 1.722-.364.438-.243.658-.681.658-1.316s-.206-1.073-.616-1.316c-.402-.252-1.041-.378-1.918-.378H548v3.374h2.058Zm10.507-.336h-.588l.014-.014-3.038-6.65V187h-1.246v-10.038h1.834l3.122 7.042 3.262-7.042h1.708V187h-1.33v-8.078l-3.08 6.538-.658.014Zm12.18 1.526h-1.232v-2.38h-4.34v-.868l3.92-6.79h1.652v6.594h1.358v1.064h-1.358V187Zm-4.298-3.444h3.066v-5.222l-3.066 5.222Zm-116.284 53.406h5.852v1.204h-4.536V247h-1.316v-10.038Zm7.846 2.772v5.558l3.738-5.558h1.246V247h-1.232v-5.544L460.037 247h-1.26v-7.266h1.232Zm6.998 7.266v-7.266h5.824V247h-1.232v-6.216h-3.36V247h-1.232Zm11.054.14c-1.213 0-2.142-.331-2.786-.994-.635-.672-.952-1.601-.952-2.786 0-.793.149-1.47.448-2.03.299-.56.709-.989 1.232-1.288a3.49 3.49 0 0 1 1.764-.448c1.111 0 1.927.369 2.45 1.106.523.728.691 1.727.504 2.996h-5.124c.103 1.559.961 2.338 2.576 2.338.887 0 1.703-.252 2.45-.756v1.106a4.3 4.3 0 0 1-1.176.56c-.448.131-.91.196-1.386.196Zm-.322-6.454c-.532 0-.989.163-1.372.49-.383.327-.625.821-.728 1.484h3.906c.028-.625-.117-1.111-.434-1.456s-.775-.518-1.372-.518Zm4.635-.952h1.078l.126 1.414c.234-.467.556-.84.966-1.12.42-.289.934-.434 1.54-.434.57 0 1.092.14 1.568.42.486.271.878.686 1.176 1.246.299.551.448 1.251.448 2.1 0 .849-.154 1.554-.462 2.114-.298.56-.695.98-1.19 1.26a3.216 3.216 0 0 1-1.596.406c-.55 0-1.031-.131-1.442-.392a2.817 2.817 0 0 1-.98-1.078v3.808h-1.232v-9.744Zm5.628 3.626c0-.877-.2-1.54-.602-1.988-.401-.457-.919-.686-1.554-.686-.634 0-1.171.224-1.61.672-.429.439-.644 1.106-.644 2.002 0 .905.215 1.577.644 2.016a2.19 2.19 0 0 0 1.61.658c.635 0 1.153-.224 1.554-.672.402-.448.602-1.115.602-2.002Zm5.595 3.64h-2.828v-7.266h2.856c.868 0 1.526.154 1.974.462.457.299.686.77.686 1.414 0 .42-.112.761-.336 1.022-.215.261-.523.448-.924.56 1.036.168 1.554.742 1.554 1.722 0 .495-.131.896-.392 1.204-.252.308-.602.532-1.05.672-.448.14-.962.21-1.54.21Zm.014-6.216h-1.61v1.974h1.512c.466 0 .84-.084 1.12-.252.289-.168.434-.411.434-.728 0-.383-.126-.644-.378-.784s-.612-.21-1.078-.21Zm-.028 2.954h-1.582v2.212h1.582c.522 0 .942-.075 1.26-.224.317-.159.476-.443.476-.854s-.145-.7-.434-.868c-.29-.177-.724-.266-1.302-.266Zm6.074-4.004v5.558l3.738-5.558h1.246V247h-1.232v-5.544L499.685 247h-1.26v-7.266h1.232Zm9.112 7.406c-.457 0-.9-.051-1.33-.154-.42-.103-.765-.243-1.036-.42v-1.106a3.99 3.99 0 0 0 1.064.42c.411.103.836.154 1.274.154.532 0 .976-.084 1.33-.252.364-.177.546-.476.546-.896 0-.411-.154-.7-.462-.868-.298-.168-.76-.252-1.386-.252h-.966v-.994h1.008c.514 0 .906-.093 1.176-.28.271-.187.406-.457.406-.812 0-.373-.163-.63-.49-.77-.317-.149-.704-.224-1.162-.224-.821 0-1.554.196-2.198.588v-1.106c.28-.187.621-.327 1.022-.42a5.223 5.223 0 0 1 1.274-.154c.887 0 1.554.168 2.002.504.458.336.686.821.686 1.456 0 .476-.13.854-.392 1.134-.261.271-.62.453-1.078.546.57.075 1.004.257 1.302.546.299.289.448.658.448 1.106 0 .541-.144.98-.434 1.316-.28.327-.648.565-1.106.714a4.807 4.807 0 0 1-1.498.224Zm7.827 0c-.662 0-1.26-.145-1.792-.434a3.255 3.255 0 0 1-1.246-1.288c-.308-.569-.462-1.255-.462-2.058 0-.803.154-1.484.462-2.044.308-.56.724-.985 1.246-1.274a3.595 3.595 0 0 1 1.792-.448c.672 0 1.274.149 1.806.448.532.289.952.714 1.26 1.274.308.56.462 1.241.462 2.044 0 .803-.154 1.489-.462 2.058-.308.56-.728.989-1.26 1.288-.532.289-1.134.434-1.806.434Zm0-1.106c.654 0 1.195-.215 1.624-.644.43-.439.644-1.115.644-2.03 0-.915-.214-1.587-.644-2.016-.429-.439-.97-.658-1.624-.658-.644 0-1.18.219-1.61.658-.42.429-.63 1.101-.63 2.016s.21 1.591.63 2.03c.43.429.966.644 1.61.644Zm5.03-6.3h1.078l.126 1.414c.233-.467.555-.84.966-1.12.42-.289.933-.434 1.54-.434.569 0 1.092.14 1.568.42.485.271.877.686 1.176 1.246.299.551.448 1.251.448 2.1 0 .849-.154 1.554-.462 2.114-.299.56-.695.98-1.19 1.26a3.216 3.216 0 0 1-1.596.406c-.551 0-1.031-.131-1.442-.392a2.81 2.81 0 0 1-.98-1.078v3.808h-1.232v-9.744Zm5.628 3.626c0-.877-.201-1.54-.602-1.988-.401-.457-.919-.686-1.554-.686s-1.171.224-1.61.672c-.429.439-.644 1.106-.644 2.002 0 .905.215 1.577.644 2.016.439.439.975.658 1.61.658.635 0 1.153-.224 1.554-.672.401-.448.602-1.115.602-2.002Z"/>
    <rect width="60" height="200" x="390" y="342" fill="#D6E1FF" rx="10" transform="rotate(-90 390 342)"/>
    <rect width="60" height="200" x="390" y="342" fill="#E3EBFF" rx="10" transform="rotate(-90 390 342)"/>
    <path fill="#000" d="M460.122 309h-1.4l-1.036-2.87h-4.438l-1.022 2.87h-1.232l3.57-10.038h1.96L460.122 309Zm-6.44-4.06h3.584l-1.792-4.998-1.792 4.998Zm7.733 4.06v-7.266h5.824V309h-1.232v-6.216h-3.36V309h-1.232Zm7.834 0v-7.266h5.824V309h-1.232v-6.216h-3.36V309h-1.232Zm10.298-6.314c-.774 0-1.558.238-2.352.714v-1.106a4.425 4.425 0 0 1 1.19-.504 4.825 4.825 0 0 1 1.33-.196c.915 0 1.61.191 2.086.574.476.383.714.966.714 1.75v3.906c0 .159.005.364.014.616.019.243.038.429.056.56h-1.12a6.439 6.439 0 0 1-.084-.546 8.754 8.754 0 0 1-.028-.63l-.014-.21a3.93 3.93 0 0 1-.462.7 2.344 2.344 0 0 1-.784.588c-.317.159-.714.238-1.19.238-.653 0-1.18-.187-1.582-.56-.401-.373-.602-.901-.602-1.582 0-.793.28-1.377.84-1.75.56-.373 1.349-.56 2.366-.56h1.358v-.602c0-.504-.13-.863-.392-1.078-.261-.215-.709-.322-1.344-.322Zm1.736 3.514v-.532h-1.232c-.737 0-1.274.107-1.61.322-.326.215-.49.527-.49.938 0 .327.098.593.294.798.206.205.514.308.924.308.383 0 .71-.075.98-.224.271-.159.49-.345.658-.56.168-.224.29-.434.364-.63.075-.196.112-.336.112-.42Zm3.169-4.466h1.078l.126 1.414c.234-.467.556-.84.966-1.12.42-.289.934-.434 1.54-.434.57 0 1.092.14 1.568.42.486.271.878.686 1.176 1.246.299.551.448 1.251.448 2.1 0 .849-.154 1.554-.462 2.114-.298.56-.695.98-1.19 1.26a3.216 3.216 0 0 1-1.596.406c-.55 0-1.031-.131-1.442-.392a2.817 2.817 0 0 1-.98-1.078v3.808h-1.232v-9.744Zm5.628 3.626c0-.877-.2-1.54-.602-1.988-.401-.457-.919-.686-1.554-.686-.634 0-1.171.224-1.61.672-.429.439-.644 1.106-.644 2.002 0 .905.215 1.577.644 2.016a2.19 2.19 0 0 0 1.61.658c.635 0 1.153-.224 1.554-.672.402-.448.602-1.115.602-2.002Zm5.163-2.674c-.775 0-1.559.238-2.352.714v-1.106a4.412 4.412 0 0 1 1.19-.504c.457-.131.9-.196 1.33-.196.914 0 1.61.191 2.086.574.476.383.714.966.714 1.75v3.906c0 .159.004.364.014.616.018.243.037.429.056.56h-1.12a6.439 6.439 0 0 1-.084-.546 8.21 8.21 0 0 1-.028-.63l-.014-.21a3.93 3.93 0 0 1-.462.7 2.354 2.354 0 0 1-.784.588c-.318.159-.714.238-1.19.238-.654 0-1.181-.187-1.582-.56-.402-.373-.602-.901-.602-1.582 0-.793.28-1.377.84-1.75.56-.373 1.348-.56 2.366-.56h1.358v-.602c0-.504-.131-.863-.392-1.078-.262-.215-.71-.322-1.344-.322Zm1.736 3.514v-.532h-1.232c-.738 0-1.274.107-1.61.322-.327.215-.49.527-.49.938 0 .327.098.593.294.798.205.205.513.308.924.308.382 0 .709-.075.98-.224.27-.159.49-.345.658-.56.168-.224.289-.434.364-.63.074-.196.112-.336.112-.42Zm2.512-4.466h5.838v1.05h-2.324V309h-1.232v-6.216h-2.282v-1.05Zm8.492 0v2.996h3.514v-2.996h1.232V309h-1.232v-3.22h-3.514V309h-1.232v-7.266h1.232Zm9.748 7.406c-.662 0-1.26-.145-1.792-.434a3.255 3.255 0 0 1-1.246-1.288c-.308-.569-.462-1.255-.462-2.058 0-.803.154-1.484.462-2.044.308-.56.724-.985 1.246-1.274a3.595 3.595 0 0 1 1.792-.448c.672 0 1.274.149 1.806.448.532.289.952.714 1.26 1.274.308.56.462 1.241.462 2.044 0 .803-.154 1.489-.462 2.058-.308.56-.728.989-1.26 1.288-.532.289-1.134.434-1.806.434Zm0-1.106c.654 0 1.195-.215 1.624-.644.43-.439.644-1.115.644-2.03 0-.915-.214-1.587-.644-2.016-.429-.439-.97-.658-1.624-.658-.644 0-1.18.219-1.61.658-.42.429-.63 1.101-.63 2.016s.21 1.591.63 2.03c.43.429.966.644 1.61.644Zm8.25 1.106c-1.213 0-2.142-.331-2.786-.994-.635-.672-.952-1.601-.952-2.786 0-.793.149-1.47.448-2.03.299-.56.709-.989 1.232-1.288a3.49 3.49 0 0 1 1.764-.448c1.111 0 1.927.369 2.45 1.106.523.728.691 1.727.504 2.996h-5.124c.103 1.559.961 2.338 2.576 2.338.887 0 1.703-.252 2.45-.756v1.106a4.3 4.3 0 0 1-1.176.56c-.448.131-.91.196-1.386.196Zm-.322-6.454c-.532 0-.989.163-1.372.49-.383.327-.625.821-.728 1.484h3.906c.028-.625-.117-1.111-.434-1.456s-.775-.518-1.372-.518Zm-78.905 22.454c-.663 0-1.26-.145-1.792-.434a3.248 3.248 0 0 1-1.246-1.288c-.308-.569-.462-1.255-.462-2.058 0-.803.154-1.484.462-2.044.308-.56.723-.985 1.246-1.274a3.592 3.592 0 0 1 1.792-.448c.672 0 1.274.149 1.806.448.532.289.952.714 1.26 1.274.308.56.462 1.241.462 2.044 0 .803-.154 1.489-.462 2.058-.308.56-.728.989-1.26 1.288-.532.289-1.134.434-1.806.434Zm0-1.106c.653 0 1.194-.215 1.624-.644.429-.439.644-1.115.644-2.03 0-.915-.215-1.587-.644-2.016-.43-.439-.971-.658-1.624-.658-.644 0-1.181.219-1.61.658-.42.429-.63 1.101-.63 2.016s.21 1.591.63 2.03c.429.429.966.644 1.61.644Zm8.319-6.398c.616 0 1.167.145 1.652.434.495.289.887.714 1.176 1.274.29.551.434 1.223.434 2.016 0 .803-.154 1.489-.462 2.058-.308.56-.728.989-1.26 1.288-.532.289-1.134.434-1.806.434-.681 0-1.288-.154-1.82-.462-.522-.317-.933-.793-1.232-1.428-.298-.635-.448-1.442-.448-2.422 0-1.064.061-1.951.182-2.66.131-.709.332-1.288.602-1.736a3.072 3.072 0 0 1 1.092-1.092c.224-.131.458-.233.7-.308.243-.075.546-.131.91-.168.374-.047.85-.079 1.428-.098.364-.028.672-.075.924-.14.252-.065.481-.154.686-.266v1.12a2.384 2.384 0 0 1-.588.266 6.007 6.007 0 0 1-.896.14c-.55.056-.989.093-1.316.112a6.37 6.37 0 0 0-.77.084 2.14 2.14 0 0 0-1.498 1.232c-.205.439-.345 1.092-.42 1.96.486-1.092 1.396-1.638 2.73-1.638Zm-.266 6.398c.654 0 1.195-.215 1.624-.644.43-.439.644-1.115.644-2.03 0-.915-.214-1.587-.644-2.016-.429-.439-.97-.658-1.624-.658-.644 0-1.18.215-1.61.644-.42.429-.63 1.092-.63 1.988 0 .933.21 1.619.63 2.058.43.439.966.658 1.61.658Zm8.052 1.106c-.663 0-1.26-.145-1.792-.434a3.248 3.248 0 0 1-1.246-1.288c-.308-.569-.462-1.255-.462-2.058 0-.803.154-1.484.462-2.044.308-.56.723-.985 1.246-1.274a3.592 3.592 0 0 1 1.792-.448c.672 0 1.274.149 1.806.448.532.289.952.714 1.26 1.274.308.56.462 1.241.462 2.044 0 .803-.154 1.489-.462 2.058-.308.56-.728.989-1.26 1.288-.532.289-1.134.434-1.806.434Zm0-1.106c.653 0 1.195-.215 1.624-.644.429-.439.644-1.115.644-2.03 0-.915-.215-1.587-.644-2.016-.429-.439-.971-.658-1.624-.658-.644 0-1.181.219-1.61.658-.42.429-.63 1.101-.63 2.016s.21 1.591.63 2.03c.429.429.966.644 1.61.644Zm5.03-6.3h1.078l.126 1.414c.233-.467.555-.84.966-1.12.42-.289.933-.434 1.54-.434.569 0 1.092.14 1.568.42.485.271.877.686 1.176 1.246.299.551.448 1.251.448 2.1 0 .849-.154 1.554-.462 2.114-.299.56-.695.98-1.19 1.26a3.216 3.216 0 0 1-1.596.406c-.551 0-1.031-.131-1.442-.392a2.81 2.81 0 0 1-.98-1.078v3.808h-1.232v-9.744Zm5.628 3.626c0-.877-.201-1.54-.602-1.988-.401-.457-.919-.686-1.554-.686s-1.171.224-1.61.672c-.429.439-.644 1.106-.644 2.002 0 .905.215 1.577.644 2.016.439.439.975.658 1.61.658.635 0 1.153-.224 1.554-.672.401-.448.602-1.115.602-2.002Zm3.328 6.258c-.383 0-.7-.051-.952-.154v-1.19c.187.159.49.238.91.238.327 0 .602-.079.826-.238.233-.149.457-.411.672-.784l-2.954-7.756h1.358l2.31 6.132 2.296-6.132h1.19l-2.716 7.182c-.373.961-.789 1.652-1.246 2.072-.457.42-1.022.63-1.694.63Zm6.62-.546h-1.106v-3.122h.686c.299-.299.509-.719.63-1.26.131-.541.21-1.218.238-2.03a87.51 87.51 0 0 0 .042-2.926h5.25v6.216h1.092v3.122h-1.078l-.154-2.072h-5.474l-.126 2.072Zm4.508-8.288h-2.87c-.009 1.325-.056 2.399-.14 3.22-.075.812-.266 1.461-.574 1.946h3.584v-5.166Zm6.455 6.356c-.663 0-1.26-.145-1.792-.434a3.248 3.248 0 0 1-1.246-1.288c-.308-.569-.462-1.255-.462-2.058 0-.803.154-1.484.462-2.044.308-.56.723-.985 1.246-1.274a3.592 3.592 0 0 1 1.792-.448c.672 0 1.274.149 1.806.448.532.289.952.714 1.26 1.274.308.56.462 1.241.462 2.044 0 .803-.154 1.489-.462 2.058-.308.56-.728.989-1.26 1.288-.532.289-1.134.434-1.806.434Zm0-1.106c.653 0 1.194-.215 1.624-.644.429-.439.644-1.115.644-2.03 0-.915-.215-1.587-.644-2.016-.43-.439-.971-.658-1.624-.658-.644 0-1.181.219-1.61.658-.42.429-.63 1.101-.63 2.016s.21 1.591.63 2.03c.429.429.966.644 1.61.644Zm7.857.966h-2.828v-7.266h2.856c.868 0 1.526.154 1.974.462.458.299.686.77.686 1.414 0 .42-.112.761-.336 1.022-.214.261-.522.448-.924.56 1.036.168 1.554.742 1.554 1.722 0 .495-.13.896-.392 1.204-.252.308-.602.532-1.05.672-.448.14-.961.21-1.54.21Zm.014-6.216h-1.61v1.974h1.512c.467 0 .84-.084 1.12-.252.29-.168.434-.411.434-.728 0-.383-.126-.644-.378-.784s-.611-.21-1.078-.21Zm-.028 2.954h-1.582v2.212h1.582c.523 0 .943-.075 1.26-.224.318-.159.476-.443.476-.854s-.144-.7-.434-.868c-.289-.177-.723-.266-1.302-.266Zm7.306-3.052c-.774 0-1.558.238-2.352.714v-1.106a4.425 4.425 0 0 1 1.19-.504 4.825 4.825 0 0 1 1.33-.196c.915 0 1.61.191 2.086.574.476.383.714.966.714 1.75v3.906c0 .159.005.364.014.616.019.243.038.429.056.56h-1.12a6.439 6.439 0 0 1-.084-.546 8.754 8.754 0 0 1-.028-.63l-.014-.21a3.93 3.93 0 0 1-.462.7 2.344 2.344 0 0 1-.784.588c-.317.159-.714.238-1.19.238-.653 0-1.18-.187-1.582-.56-.401-.373-.602-.901-.602-1.582 0-.793.28-1.377.84-1.75.56-.373 1.349-.56 2.366-.56h1.358v-.602c0-.504-.13-.863-.392-1.078-.261-.215-.709-.322-1.344-.322Zm1.736 3.514v-.532h-1.232c-.737 0-1.274.107-1.61.322-.326.215-.49.527-.49.938 0 .327.098.593.294.798.206.205.514.308.924.308.383 0 .71-.075.98-.224.271-.159.49-.345.658-.56.168-.224.29-.434.364-.63.075-.196.112-.336.112-.42Zm4.402-4.466v2.996h3.514v-2.996h1.232V325h-1.232v-3.22h-3.514V325h-1.232v-7.266h1.232Zm7.998 0v5.558l3.738-5.558h1.246V325h-1.232v-5.544L523.741 325h-1.26v-7.266h1.232Zm10.218 7.406c-1.213 0-2.142-.331-2.786-.994-.635-.672-.952-1.601-.952-2.786 0-.793.149-1.47.448-2.03.299-.56.709-.989 1.232-1.288a3.49 3.49 0 0 1 1.764-.448c1.111 0 1.927.369 2.45 1.106.523.728.691 1.727.504 2.996h-5.124c.103 1.559.961 2.338 2.576 2.338.887 0 1.703-.252 2.45-.756v1.106a4.3 4.3 0 0 1-1.176.56c-.448.131-.91.196-1.386.196Zm-.322-6.454c-.532 0-.989.163-1.372.49-.383.327-.625.821-.728 1.484h3.906c.028-.625-.117-1.111-.434-1.456s-.775-.518-1.372-.518ZM433.186 81.962h3.402c1.101 0 1.936.187 2.506.56.578.373.868 1.003.868 1.89 0 .719-.182 1.265-.546 1.638-.364.364-.85.611-1.456.742.774.093 1.362.322 1.764.686.401.355.602.896.602 1.624 0 .69-.164 1.25-.49 1.68-.327.43-.775.742-1.344.938-.57.187-1.214.28-1.932.28h-3.374V81.962Zm3.304 4.284c.634 0 1.148-.14 1.54-.42.401-.29.602-.737.602-1.344 0-.513-.178-.859-.532-1.036-.355-.187-.859-.28-1.512-.28h-2.086v3.08h1.988Zm.07 4.564c.709 0 1.283-.121 1.722-.364.438-.243.658-.681.658-1.316s-.206-1.073-.616-1.316c-.402-.252-1.041-.378-1.918-.378h-1.904v3.374h2.058Zm6.713-6.076v2.45h1.26c.924 0 1.648.187 2.17.56.523.364.784.961.784 1.792 0 .579-.13 1.05-.392 1.414-.261.355-.62.62-1.078.798-.457.168-.98.252-1.568.252h-2.408v-7.266h1.232Zm6.496 0V92h-1.232v-7.266h1.232Zm-5.32 6.216c.523 0 .952-.103 1.288-.308.336-.215.504-.56.504-1.036 0-.485-.149-.835-.448-1.05-.298-.215-.718-.322-1.26-.322h-1.26v2.716h1.176Zm7.44 3.122h-1.106V90.95h.686c.299-.299.509-.719.63-1.26.131-.541.21-1.218.238-2.03a87.51 87.51 0 0 0 .042-2.926h5.25v6.216h1.092v3.122h-1.078L457.489 92h-5.474l-.126 2.072Zm4.508-8.288h-2.87c-.009 1.325-.056 2.399-.14 3.22-.075.812-.266 1.46-.574 1.946h3.584v-5.166Zm6.692 6.356c-1.213 0-2.142-.331-2.786-.994-.634-.672-.952-1.6-.952-2.786 0-.793.15-1.47.448-2.03.299-.56.71-.99 1.232-1.288a3.493 3.493 0 0 1 1.764-.448c1.111 0 1.928.369 2.45 1.106.523.728.691 1.727.504 2.996h-5.124c.103 1.559.962 2.338 2.576 2.338.887 0 1.704-.252 2.45-.756v1.106a4.3 4.3 0 0 1-1.176.56c-.448.13-.91.196-1.386.196Zm-.322-6.454c-.532 0-.989.163-1.372.49-.382.327-.625.821-.728 1.484h3.906c.028-.625-.116-1.11-.434-1.456-.317-.345-.774-.518-1.372-.518Zm4.048 5.11c.56.084.942-.266 1.148-1.05.074-.28.135-.63.182-1.05.046-.43.079-.961.098-1.596a86.39 86.39 0 0 0 .028-2.366h5.026V92h-1.246v-6.216h-2.618a37.907 37.907 0 0 1-.098 2.674c-.047.663-.126 1.218-.238 1.666-.178.7-.448 1.2-.812 1.498-.364.299-.854.43-1.47.392v-1.218Zm11.71 1.344c-1.213 0-2.142-.331-2.786-.994-.635-.672-.952-1.6-.952-2.786 0-.793.149-1.47.448-2.03.299-.56.709-.99 1.232-1.288a3.493 3.493 0 0 1 1.764-.448c1.111 0 1.927.369 2.45 1.106.523.728.691 1.727.504 2.996h-5.124c.103 1.559.961 2.338 2.576 2.338.887 0 1.703-.252 2.45-.756v1.106a4.3 4.3 0 0 1-1.176.56c-.448.13-.91.196-1.386.196Zm-.322-6.454c-.532 0-.989.163-1.372.49-.383.327-.625.821-.728 1.484h3.906c.028-.625-.117-1.11-.434-1.456-.317-.345-.775-.518-1.372-.518Zm5.867-.952v2.996h3.514v-2.996h1.232V92h-1.232v-3.22h-3.514V92h-1.232v-7.266h1.232Zm7.998 0v2.996h3.514v-2.996h1.232V92h-1.232v-3.22h-3.514V92h-1.232v-7.266h1.232Zm7.998 0v2.45h1.26c.924 0 1.648.187 2.17.56.523.364.784.961.784 1.792 0 .579-.13 1.05-.392 1.414-.261.355-.62.62-1.078.798-.457.168-.98.252-1.568.252h-2.408v-7.266h1.232Zm6.496 0V92h-1.232v-7.266h1.232Zm-5.32 6.216c.523 0 .952-.103 1.288-.308.336-.215.504-.56.504-1.036 0-.485-.149-.835-.448-1.05-.298-.215-.718-.322-1.26-.322h-1.26v2.716h1.176Zm10.408-7.182c-.737 0-1.288-.182-1.652-.546a1.873 1.873 0 0 1-.546-1.358h1.232c0 .355.084.611.252.77.177.159.415.238.714.238s.532-.08.7-.238c.168-.159.252-.415.252-.77h1.232c0 .532-.182.985-.546 1.358-.355.364-.901.546-1.638.546Zm-1.904.966v5.558l3.738-5.558h1.246V92h-1.232v-5.544L509.774 92h-1.26v-7.266h1.232Zm9.311 0h1.428l1.736 2.562 1.75-2.562h1.274l-2.408 3.472L525.371 92h-1.428l-1.946-2.884-1.96 2.884h-1.288l2.632-3.766-2.324-3.5Zm10.24 7.406c-.663 0-1.26-.145-1.792-.434a3.246 3.246 0 0 1-1.246-1.288c-.308-.57-.462-1.255-.462-2.058 0-.803.154-1.484.462-2.044a3.15 3.15 0 0 1 1.246-1.274 3.596 3.596 0 0 1 1.792-.448c.672 0 1.274.15 1.806.448.532.29.952.714 1.26 1.274.308.56.462 1.241.462 2.044 0 .803-.154 1.489-.462 2.058a3.22 3.22 0 0 1-1.26 1.288c-.532.29-1.134.434-1.806.434Zm0-1.106c.653 0 1.194-.215 1.624-.644.429-.439.644-1.115.644-2.03 0-.915-.215-1.587-.644-2.016-.43-.439-.971-.658-1.624-.658-.644 0-1.181.22-1.61.658-.42.43-.63 1.101-.63 2.016s.21 1.591.63 2.03c.429.43.966.644 1.61.644Zm8.165 1.106c-1.129 0-2.02-.331-2.674-.994-.653-.672-.98-1.6-.98-2.786 0-1.185.332-2.11.994-2.772.663-.663 1.568-.994 2.716-.994.439 0 .85.051 1.232.154.383.093.691.233.924.42v1.106c-.634-.392-1.348-.588-2.142-.588-.84 0-1.46.224-1.862.672-.401.439-.602 1.106-.602 2.002 0 .896.192 1.568.574 2.016.392.439.999.658 1.82.658a4.44 4.44 0 0 0 2.212-.574v1.106c-.606.383-1.344.574-2.212.574Zm3.276-7.406h5.838v1.05h-2.324V92h-1.232v-6.216h-2.282v-1.05Z"/>
</svg>
