<svg xmlns="http://www.w3.org/2000/svg" width="700" height="246" fill="none" viewBox="0 0 700 246">
    <rect width="234" height="20" x="233" y="223" fill="#fff" rx="5"/>
    <rect width="694" height="172" x="3" y="3" fill="#fff" stroke="#5282FF" stroke-width="2" rx="9"/>
    <path fill="#4E496B" d="m486 136-5.774 10h11.548L486 136Zm-1 9v63h2v-63h-2Zm-7 70H262v2h216v-2Zm7-7a7 7 0 0 1-7 7v2a9 9 0 0 0 9-9h-2Z"/>
    <path fill="#4E496B" d="m622 136-5.774 10h11.548L622 136Zm-1 9v63h2v-63h-2Zm-7 70H262v2h352v-2Zm7-7a7 7 0 0 1-7 7v2a9 9 0 0 0 9-9h-2Z"/>
    <path fill="#4E496B" d="m211 136 5.774 10h-11.548L211 136Zm1 9v63h-2v-63h2Zm7 70h219v2H219v-2Zm-7-7a7 7 0 0 0 7 7v2a9 9 0 0 1-9-9h2Z"/>
    <path fill="#4E496B" d="m78 136 5.773 10H72.227L78 136Zm1 9v63h-2v-63h2Zm7 70h352v2H86v-2Zm-7-7a7 7 0 0 0 7 7v2a9 9 0 0 1-9-9h2Z"/>
    <path fill="#4E496B" d="m350 136-5.774 10h11.548L350 136Zm-1 9v71h2v-71h-2Z"/>
    <rect width="94" height="92" x="303" y="43" fill="#fff" stroke="#5282FF" stroke-width="2" rx="9"/>
    <path fill="#000" fill-opacity=".85" d="M330.342 66.12c-.848 0-1.592-.176-2.232-.528a3.683 3.683 0 0 1-1.476-1.512c-.352-.664-.528-1.456-.528-2.376 0-1.384.364-2.464 1.092-3.24.728-.784 1.768-1.176 3.12-1.176.504 0 .984.056 1.44.168a3.76 3.76 0 0 1 1.176.456v1.08a4.28 4.28 0 0 0-1.212-.504 5.54 5.54 0 0 0-1.416-.18c-1.008 0-1.756.284-2.244.852-.488.568-.732 1.416-.732 2.544 0 1.136.264 1.988.792 2.556.528.56 1.3.84 2.316.84.96 0 1.792-.264 2.496-.792v1.08c-.28.224-.652.404-1.116.54a5.528 5.528 0 0 1-1.476.192Zm3.553-6.348h5.004v.9h-1.992V66h-1.056v-5.328h-1.956v-.9Zm8.603 6.348c-.568 0-1.08-.124-1.536-.372a2.784 2.784 0 0 1-1.068-1.104c-.264-.488-.396-1.076-.396-1.764s.132-1.272.396-1.752.62-.844 1.068-1.092a3.083 3.083 0 0 1 1.536-.384c.576 0 1.092.128 1.548.384a2.68 2.68 0 0 1 1.08 1.092c.264.48.396 1.064.396 1.752s-.132 1.276-.396 1.764a2.76 2.76 0 0 1-1.08 1.104 3.187 3.187 0 0 1-1.548.372Zm0-.948c.56 0 1.024-.184 1.392-.552.368-.376.552-.956.552-1.74s-.184-1.36-.552-1.728c-.368-.376-.832-.564-1.392-.564-.552 0-1.012.188-1.38.564-.36.368-.54.944-.54 1.728s.18 1.364.54 1.74c.368.368.828.552 1.38.552Zm6.999-6.228c-.632 0-1.104-.156-1.416-.468a1.606 1.606 0 0 1-.468-1.164h1.056c0 .304.072.524.216.66.152.136.356.204.612.204s.456-.068.6-.204c.144-.136.216-.356.216-.66h1.056c0 .456-.156.844-.468 1.164-.304.312-.772.468-1.404.468Zm-1.632.828v4.764l3.204-4.764h1.068V66h-1.056v-4.752L347.889 66h-1.08v-6.228h1.056ZM358.952 66h-1.284l-2.196-2.652h-.552V66h-1.056v-6.228h1.056v2.676h.6l2.184-2.676h1.2l-2.556 3.072L358.952 66Zm3.106-5.412c-.664 0-1.336.204-2.016.612v-.948a3.804 3.804 0 0 1 1.02-.432 4.142 4.142 0 0 1 1.14-.168c.784 0 1.38.164 1.788.492.408.328.612.828.612 1.5v3.348c0 .136.004.312.012.528.016.208.032.368.048.48h-.96a5.482 5.482 0 0 1-.072-.468 7.173 7.173 0 0 1-.024-.54l-.012-.18a3.359 3.359 0 0 1-.396.6c-.168.2-.392.368-.672.504-.272.136-.612.204-1.02.204-.56 0-1.012-.16-1.356-.48-.344-.32-.516-.772-.516-1.356 0-.68.24-1.18.72-1.5.48-.32 1.156-.48 2.028-.48h1.164v-.516c0-.432-.112-.74-.336-.924-.224-.184-.608-.276-1.152-.276Zm1.488 3.012v-.456h-1.056c-.632 0-1.092.092-1.38.276-.28.184-.42.452-.42.804 0 .28.084.508.252.684.176.176.44.264.792.264.328 0 .608-.064.84-.192.232-.136.42-.296.564-.48.144-.192.248-.372.312-.54.064-.168.096-.288.096-.36Zm6.247-1.584v-1.02h1.152c.448 0 .812-.12 1.092-.36.288-.248.432-.596.432-1.044 0-.408-.132-.728-.396-.96-.264-.24-.644-.36-1.14-.36a3.05 3.05 0 0 0-1.176.228c-.36.152-.736.396-1.128.732v-1.176c.64-.52 1.412-.78 2.316-.78.824 0 1.468.208 1.932.624.472.416.708.96.708 1.632 0 .544-.152.976-.456 1.296-.296.32-.652.532-1.068.636.336.048.644.164.924.348.288.176.52.408.696.696.176.288.264.624.264 1.008 0 .528-.132.988-.396 1.38a2.611 2.611 0 0 1-1.092.912c-.456.208-.988.312-1.596.312-1.056 0-1.872-.244-2.448-.732v-1.2c.304.296.672.528 1.104.696.432.168.884.252 1.356.252.592 0 1.056-.14 1.392-.42.344-.288.516-.68.516-1.176 0-.48-.156-.852-.468-1.116-.304-.272-.776-.408-1.416-.408h-1.104Z"/>
    <rect width="70" height="40" x="315" y="82" fill="#E3EBFF" rx="10"/>
    <path fill="#000" fill-opacity=".85" d="M337.385 97.396h2.916c.944 0 1.66.16 2.148.48.496.32.744.86.744 1.62 0 .616-.156 1.084-.468 1.404-.312.312-.728.524-1.248.636.664.08 1.168.276 1.512.588.344.304.516.768.516 1.392 0 .592-.14 1.072-.42 1.44-.28.368-.664.636-1.152.804-.488.16-1.04.24-1.656.24h-2.892v-8.604Zm2.832 3.672c.544 0 .984-.12 1.32-.36.344-.248.516-.632.516-1.152 0-.44-.152-.736-.456-.888-.304-.16-.736-.24-1.296-.24h-1.788v2.64h1.704Zm.06 3.912c.608 0 1.1-.104 1.476-.312.376-.208.564-.584.564-1.128 0-.544-.176-.92-.528-1.128-.344-.216-.892-.324-1.644-.324h-1.632v2.892h1.764Zm9.006-.288h-.504l.012-.012-2.604-5.7V106h-1.068v-8.604h1.572l2.676 6.036 2.796-6.036h1.464V106h-1.14v-6.924l-2.64 5.604-.564.012Zm9.734-2.676v-1.02h1.152c.448 0 .812-.12 1.092-.36.288-.248.432-.596.432-1.044 0-.408-.132-.728-.396-.96-.264-.24-.644-.36-1.14-.36a3.05 3.05 0 0 0-1.176.228c-.36.152-.736.396-1.128.732v-1.176c.64-.52 1.412-.78 2.316-.78.824 0 1.468.208 1.932.624.472.416.708.96.708 1.632 0 .544-.152.976-.456 1.296-.296.32-.652.532-1.068.636.336.048.644.164.924.348.288.176.52.408.696.696.176.288.264.624.264 1.008 0 .528-.132.988-.396 1.38a2.611 2.611 0 0 1-1.092.912c-.456.208-.988.312-1.596.312-1.056 0-1.872-.244-2.448-.732v-1.2c.304.296.672.528 1.104.696.432.168.884.252 1.356.252.592 0 1.056-.14 1.392-.42.344-.288.516-.68.516-1.176 0-.48-.156-.852-.468-1.116-.304-.272-.776-.408-1.416-.408h-1.104Z"/>
    <rect width="94" height="92" x="167" y="43" fill="#fff" stroke="#5282FF" stroke-width="2" rx="9"/>
    <path fill="#000" fill-opacity=".85" d="M194.342 66.12c-.848 0-1.592-.176-2.232-.528a3.683 3.683 0 0 1-1.476-1.512c-.352-.664-.528-1.456-.528-2.376 0-1.384.364-2.464 1.092-3.24.728-.784 1.768-1.176 3.12-1.176.504 0 .984.056 1.44.168a3.76 3.76 0 0 1 1.176.456v1.08a4.28 4.28 0 0 0-1.212-.504 5.54 5.54 0 0 0-1.416-.18c-1.008 0-1.756.284-2.244.852-.488.568-.732 1.416-.732 2.544 0 1.136.264 1.988.792 2.556.528.56 1.3.84 2.316.84.96 0 1.792-.264 2.496-.792v1.08c-.28.224-.652.404-1.116.54a5.528 5.528 0 0 1-1.476.192Zm3.553-6.348h5.004v.9h-1.992V66h-1.056v-5.328h-1.956v-.9Zm8.603 6.348c-.568 0-1.08-.124-1.536-.372a2.784 2.784 0 0 1-1.068-1.104c-.264-.488-.396-1.076-.396-1.764s.132-1.272.396-1.752.62-.844 1.068-1.092a3.083 3.083 0 0 1 1.536-.384c.576 0 1.092.128 1.548.384a2.68 2.68 0 0 1 1.08 1.092c.264.48.396 1.064.396 1.752s-.132 1.276-.396 1.764a2.76 2.76 0 0 1-1.08 1.104 3.187 3.187 0 0 1-1.548.372Zm0-.948c.56 0 1.024-.184 1.392-.552.368-.376.552-.956.552-1.74s-.184-1.36-.552-1.728c-.368-.376-.832-.564-1.392-.564-.552 0-1.012.188-1.38.564-.36.368-.54.944-.54 1.728s.18 1.364.54 1.74c.368.368.828.552 1.38.552Zm6.999-6.228c-.632 0-1.104-.156-1.416-.468a1.606 1.606 0 0 1-.468-1.164h1.056c0 .304.072.524.216.66.152.136.356.204.612.204s.456-.068.6-.204c.144-.136.216-.356.216-.66h1.056c0 .456-.156.844-.468 1.164-.304.312-.772.468-1.404.468Zm-1.632.828v4.764l3.204-4.764h1.068V66h-1.056v-4.752L211.889 66h-1.08v-6.228h1.056ZM222.952 66h-1.284l-2.196-2.652h-.552V66h-1.056v-6.228h1.056v2.676h.6l2.184-2.676h1.2l-2.556 3.072L222.952 66Zm3.106-5.412c-.664 0-1.336.204-2.016.612v-.948a3.804 3.804 0 0 1 1.02-.432 4.142 4.142 0 0 1 1.14-.168c.784 0 1.38.164 1.788.492.408.328.612.828.612 1.5v3.348c0 .136.004.312.012.528.016.208.032.368.048.48h-.96a5.482 5.482 0 0 1-.072-.468 7.173 7.173 0 0 1-.024-.54l-.012-.18a3.359 3.359 0 0 1-.396.6c-.168.2-.392.368-.672.504-.272.136-.612.204-1.02.204-.56 0-1.012-.16-1.356-.48-.344-.32-.516-.772-.516-1.356 0-.68.24-1.18.72-1.5.48-.32 1.156-.48 2.028-.48h1.164v-.516c0-.432-.112-.74-.336-.924-.224-.184-.608-.276-1.152-.276Zm1.488 3.012v-.456h-1.056c-.632 0-1.092.092-1.38.276-.28.184-.42.452-.42.804 0 .28.084.508.252.684.176.176.44.264.792.264.328 0 .608-.064.84-.192.232-.136.42-.296.564-.48.144-.192.248-.372.312-.54.064-.168.096-.288.096-.36Zm10.327 2.4h-5.484v-1.14a52.221 52.221 0 0 0 2.1-1.764c.552-.488.98-.912 1.284-1.272.312-.368.528-.708.648-1.02.128-.312.192-.628.192-.948 0-.496-.148-.884-.444-1.164-.296-.28-.704-.42-1.224-.42-.832 0-1.608.396-2.328 1.188v-1.212c.664-.648 1.452-.972 2.364-.972.864 0 1.544.224 2.04.672.504.44.756 1.04.756 1.8 0 .392-.064.768-.192 1.128-.12.352-.336.724-.648 1.116-.304.384-.724.816-1.26 1.296-.536.48-1.216 1.04-2.04 1.68h4.236V66Z"/>
    <rect width="70" height="40" x="179" y="82" fill="#E3EBFF" rx="10"/>
    <path fill="#000" fill-opacity=".85" d="M201.385 97.396h2.916c.944 0 1.66.16 2.148.48.496.32.744.86.744 1.62 0 .616-.156 1.084-.468 1.404-.312.312-.728.524-1.248.636.664.08 1.168.276 1.512.588.344.304.516.768.516 1.392 0 .592-.14 1.072-.42 1.44-.28.368-.664.636-1.152.804-.488.16-1.04.24-1.656.24h-2.892v-8.604Zm2.832 3.672c.544 0 .984-.12 1.32-.36.344-.248.516-.632.516-1.152 0-.44-.152-.736-.456-.888-.304-.16-.736-.24-1.296-.24h-1.788v2.64h1.704Zm.06 3.912c.608 0 1.1-.104 1.476-.312.376-.208.564-.584.564-1.128 0-.544-.176-.92-.528-1.128-.344-.216-.892-.324-1.644-.324h-1.632v2.892h1.764Zm9.006-.288h-.504l.012-.012-2.604-5.7V106h-1.068v-8.604h1.572l2.676 6.036 2.796-6.036h1.464V106h-1.14v-6.924l-2.64 5.604-.564.012ZM227.097 106h-5.484v-1.14a52.221 52.221 0 0 0 2.1-1.764c.552-.488.98-.912 1.284-1.272.312-.368.528-.708.648-1.02.128-.312.192-.628.192-.948 0-.496-.148-.884-.444-1.164-.296-.28-.704-.42-1.224-.42-.832 0-1.608.396-2.328 1.188v-1.212c.664-.648 1.452-.972 2.364-.972.864 0 1.544.224 2.04.672.504.44.756 1.04.756 1.8 0 .392-.064.768-.192 1.128-.12.352-.336.724-.648 1.116-.304.384-.724.816-1.26 1.296-.536.48-1.216 1.04-2.04 1.68h4.236V106Zm75.666-79.88a5.828 5.828 0 0 1-1.548-.204c-.488-.136-.868-.316-1.14-.54v-1.08c.752.536 1.636.804 2.652.804.4 0 .764-.048 1.092-.144.328-.096.592-.256.792-.48.2-.232.3-.544.3-.936 0-.544-.176-.924-.528-1.14-.344-.224-.86-.336-1.548-.336h-1.236v-.96h1.212c.6 0 1.056-.128 1.368-.384.312-.264.468-.624.468-1.08 0-.496-.164-.844-.492-1.044-.328-.2-.76-.3-1.296-.3-.96 0-1.844.208-2.652.624v-1.068c.712-.376 1.6-.564 2.664-.564.896 0 1.608.184 2.136.552.528.368.792.944.792 1.728 0 .504-.152.924-.456 1.26-.296.328-.732.556-1.308.684.672.088 1.184.296 1.536.624.352.328.528.788.528 1.38 0 .608-.152 1.104-.456 1.488-.296.384-.696.668-1.2.852a5.07 5.07 0 0 1-1.68.264Zm7.374 0c-.568 0-1.08-.124-1.536-.372a2.784 2.784 0 0 1-1.068-1.104c-.264-.488-.396-1.076-.396-1.764s.132-1.272.396-1.752.62-.844 1.068-1.092a3.083 3.083 0 0 1 1.536-.384c.576 0 1.092.128 1.548.384a2.68 2.68 0 0 1 1.08 1.092c.264.48.396 1.064.396 1.752s-.132 1.276-.396 1.764a2.76 2.76 0 0 1-1.08 1.104 3.187 3.187 0 0 1-1.548.372Zm0-.948c.56 0 1.024-.184 1.392-.552.368-.376.552-.956.552-1.74s-.184-1.36-.552-1.728c-.368-.376-.832-.564-1.392-.564-.552 0-1.012.188-1.38.564-.36.368-.54.944-.54 1.728s.18 1.364.54 1.74c.368.368.828.552 1.38.552Zm5.367-5.4v2.568h3.012v-2.568h1.056V26h-1.056v-2.76h-3.012V26h-1.056v-6.228h1.056Zm7.911.816c-.664 0-1.336.204-2.016.612v-.948a3.804 3.804 0 0 1 1.02-.432 4.142 4.142 0 0 1 1.14-.168c.784 0 1.38.164 1.788.492.408.328.612.828.612 1.5v3.348c0 .136.004.312.012.528.016.208.032.368.048.48h-.96a5.482 5.482 0 0 1-.072-.468 7.173 7.173 0 0 1-.024-.54l-.012-.18a3.359 3.359 0 0 1-.396.6c-.168.2-.392.368-.672.504-.272.136-.612.204-1.02.204-.56 0-1.012-.16-1.356-.48-.344-.32-.516-.772-.516-1.356 0-.68.24-1.18.72-1.5.48-.32 1.156-.48 2.028-.48h1.164v-.516c0-.432-.112-.74-.336-.924-.224-.184-.608-.276-1.152-.276Zm1.488 3.012v-.456h-1.056c-.632 0-1.092.092-1.38.276-.28.184-.42.452-.42.804 0 .28.084.508.252.684.176.176.44.264.792.264.328 0 .608-.064.84-.192.232-.136.42-.296.564-.48.144-.192.248-.372.312-.54.064-.168.096-.288.096-.36Zm5.263 4.176h-.948V25.1h.588c.256-.256.436-.616.54-1.08.112-.464.18-1.044.204-1.74.024-.704.036-1.54.036-2.508h4.5V25.1h.936v2.676h-.924L334.966 26h-4.692l-.108 1.776Zm3.864-7.104h-2.46c-.008 1.136-.048 2.056-.12 2.76-.064.696-.228 1.252-.492 1.668h3.072v-4.428Zm5.533 5.448c-.568 0-1.08-.124-1.536-.372a2.784 2.784 0 0 1-1.068-1.104c-.264-.488-.396-1.076-.396-1.764s.132-1.272.396-1.752.62-.844 1.068-1.092a3.083 3.083 0 0 1 1.536-.384c.576 0 1.092.128 1.548.384a2.68 2.68 0 0 1 1.08 1.092c.264.48.396 1.064.396 1.752s-.132 1.276-.396 1.764a2.76 2.76 0 0 1-1.08 1.104 3.187 3.187 0 0 1-1.548.372Zm0-.948c.56 0 1.024-.184 1.392-.552.368-.376.552-.956.552-1.74s-.184-1.36-.552-1.728c-.368-.376-.832-.564-1.392-.564-.552 0-1.012.188-1.38.564-.36.368-.54.944-.54 1.728s.18 1.364.54 1.74c.368.368.828.552 1.38.552Zm6.999.948c-.968 0-1.732-.284-2.292-.852-.56-.576-.84-1.372-.84-2.388 0-1.016.284-1.808.852-2.376.568-.568 1.344-.852 2.328-.852.376 0 .728.044 1.056.132.328.08.592.2.792.36v.948a3.423 3.423 0 0 0-1.836-.504c-.72 0-1.252.192-1.596.576-.344.376-.516.948-.516 1.716s.164 1.344.492 1.728c.336.376.856.564 1.56.564.68 0 1.312-.164 1.896-.492v.948c-.52.328-1.152.492-1.896.492Zm2.808-6.348h5.004v.9h-1.992V26h-1.056v-5.328h-1.956v-.9Zm6.938 8.472c-.328 0-.6-.044-.816-.132v-1.02c.16.136.42.204.78.204.28 0 .516-.068.708-.204.2-.128.392-.352.576-.672l-2.532-6.648h1.164l1.98 5.256 1.968-5.256h1.02l-2.328 6.156c-.32.824-.676 1.416-1.068 1.776-.392.36-.876.54-1.452.54ZM362.202 26v-6.228h4.992V26h-1.056v-5.328h-2.88V26h-1.056Zm7.771-6.228v2.568h3.012v-2.568h1.056V26h-1.056v-2.76h-3.012V26h-1.056v-6.228h1.056Zm8.355 6.348c-.568 0-1.08-.124-1.536-.372a2.784 2.784 0 0 1-1.068-1.104c-.264-.488-.396-1.076-.396-1.764s.132-1.272.396-1.752.62-.844 1.068-1.092a3.083 3.083 0 0 1 1.536-.384c.576 0 1.092.128 1.548.384a2.68 2.68 0 0 1 1.08 1.092c.264.48.396 1.064.396 1.752s-.132 1.276-.396 1.764a2.76 2.76 0 0 1-1.08 1.104 3.187 3.187 0 0 1-1.548.372Zm0-.948c.56 0 1.024-.184 1.392-.552.368-.376.552-.956.552-1.74s-.184-1.36-.552-1.728c-.368-.376-.832-.564-1.392-.564-.552 0-1.012.188-1.38.564-.36.368-.54.944-.54 1.728s.18 1.364.54 1.74c.368.368.828.552 1.38.552Zm6.999.948c-.968 0-1.732-.284-2.292-.852-.56-.576-.84-1.372-.84-2.388 0-1.016.284-1.808.852-2.376.568-.568 1.344-.852 2.328-.852.376 0 .728.044 1.056.132.328.08.592.2.792.36v.948a3.423 3.423 0 0 0-1.836-.504c-.72 0-1.252.192-1.596.576-.344.376-.516.948-.516 1.716s.164 1.344.492 1.728c.336.376.856.564 1.56.564.68 0 1.312-.164 1.896-.492v.948c-.52.328-1.152.492-1.896.492Zm2.808-6.348h5.004v.9h-1.992V26h-1.056v-5.328h-1.956v-.9Zm7.279 0v4.764l3.204-4.764h1.068V26h-1.056v-4.752L395.438 26h-1.08v-6.228h1.056ZM236.328 228.396h5.016v1.032h-3.888V237h-1.128v-8.604Zm5.669 2.376h.924l.108 1.212c.2-.4.476-.72.828-.96.36-.248.8-.372 1.32-.372.488 0 .936.12 1.344.36.416.232.752.588 1.008 1.068.256.472.384 1.072.384 1.8s-.132 1.332-.396 1.812c-.256.48-.596.84-1.02 1.08a2.761 2.761 0 0 1-1.368.348c-.472 0-.884-.112-1.236-.336a2.408 2.408 0 0 1-.84-.924v3.264h-1.056v-8.352Zm4.824 3.108c0-.752-.172-1.32-.516-1.704-.344-.392-.788-.588-1.332-.588s-1.004.192-1.38.576c-.368.376-.552.948-.552 1.716 0 .776.184 1.352.552 1.728.376.376.836.564 1.38.564.544 0 .988-.192 1.332-.576.344-.384.516-.956.516-1.716Zm2.853 5.364c-.328 0-.6-.044-.816-.132v-1.02c.16.136.42.204.78.204.28 0 .516-.068.708-.204.2-.128.392-.352.576-.672l-2.532-6.648h1.164l1.98 5.256 1.968-5.256h1.02l-2.328 6.156c-.32.824-.676 1.416-1.068 1.776-.392.36-.876.54-1.452.54Zm5.893-2.244v-6.228h4.992V237h-1.056v-5.328h-2.88V237h-1.056Zm6.715 0v-6.228h4.992V237h-1.056v-5.328h-2.88V237h-1.056Zm8.827-5.412c-.664 0-1.336.204-2.016.612v-.948a3.804 3.804 0 0 1 1.02-.432 4.142 4.142 0 0 1 1.14-.168c.784 0 1.38.164 1.788.492.408.328.612.828.612 1.5v3.348c0 .136.004.312.012.528.016.208.032.368.048.48h-.96a5.482 5.482 0 0 1-.072-.468 7.173 7.173 0 0 1-.024-.54l-.012-.18a3.359 3.359 0 0 1-.396.6c-.168.2-.392.368-.672.504-.272.136-.612.204-1.02.204-.56 0-1.012-.16-1.356-.48-.344-.32-.516-.772-.516-1.356 0-.68.24-1.18.72-1.5.48-.32 1.156-.48 2.028-.48h1.164v-.516c0-.432-.112-.74-.336-.924-.224-.184-.608-.276-1.152-.276Zm1.488 3.012v-.456h-1.056c-.632 0-1.092.092-1.38.276-.28.184-.42.452-.42.804 0 .28.084.508.252.684.176.176.44.264.792.264.328 0 .608-.064.84-.192.232-.136.42-.296.564-.48.144-.192.248-.372.312-.54.064-.168.096-.288.096-.36Zm7.807 2.52c-.968 0-1.732-.284-2.292-.852-.56-.576-.84-1.372-.84-2.388 0-1.016.284-1.808.852-2.376.568-.568 1.344-.852 2.328-.852.376 0 .728.044 1.056.132.328.08.592.2.792.36v.948a3.423 3.423 0 0 0-1.836-.504c-.72 0-1.252.192-1.596.576-.344.376-.516.948-.516 1.716s.164 1.344.492 1.728c.336.376.856.564 1.56.564.68 0 1.312-.164 1.896-.492v.948c-.52.328-1.152.492-1.896.492Zm5.714-6.348h.924l.108 1.212c.2-.4.476-.72.828-.96.36-.248.8-.372 1.32-.372.488 0 .936.12 1.344.36.416.232.752.588 1.008 1.068.256.472.384 1.072.384 1.8s-.132 1.332-.396 1.812c-.256.48-.596.84-1.02 1.08a2.761 2.761 0 0 1-1.368.348c-.472 0-.884-.112-1.236-.336a2.408 2.408 0 0 1-.84-.924v3.264h-1.056v-8.352Zm4.824 3.108c0-.752-.172-1.32-.516-1.704-.344-.392-.788-.588-1.332-.588s-1.004.192-1.38.576c-.368.376-.552.948-.552 1.716 0 .776.184 1.352.552 1.728.376.376.836.564 1.38.564.544 0 .988-.192 1.332-.576.344-.384.516-.956.516-1.716Zm4.425-2.292c-.664 0-1.336.204-2.016.612v-.948a3.804 3.804 0 0 1 1.02-.432 4.142 4.142 0 0 1 1.14-.168c.784 0 1.38.164 1.788.492.408.328.612.828.612 1.5v3.348c0 .136.004.312.012.528.016.208.032.368.048.48h-.96a5.482 5.482 0 0 1-.072-.468 7.173 7.173 0 0 1-.024-.54l-.012-.18a3.359 3.359 0 0 1-.396.6c-.168.2-.392.368-.672.504-.272.136-.612.204-1.02.204-.56 0-1.012-.16-1.356-.48-.344-.32-.516-.772-.516-1.356 0-.68.24-1.18.72-1.5.48-.32 1.156-.48 2.028-.48h1.164v-.516c0-.432-.112-.74-.336-.924-.224-.184-.608-.276-1.152-.276Zm1.488 3.012v-.456h-1.056c-.632 0-1.092.092-1.38.276-.28.184-.42.452-.42.804 0 .28.084.508.252.684.176.176.44.264.792.264.328 0 .608-.064.84-.192.232-.136.42-.296.564-.48.144-.192.248-.372.312-.54.064-.168.096-.288.096-.36Zm5.404 2.52c-.968 0-1.732-.284-2.292-.852-.56-.576-.84-1.372-.84-2.388 0-1.016.284-1.808.852-2.376.568-.568 1.344-.852 2.328-.852.376 0 .728.044 1.056.132.328.08.592.2.792.36v.948a3.423 3.423 0 0 0-1.836-.504c-.72 0-1.252.192-1.596.576-.344.376-.516.948-.516 1.716s.164 1.344.492 1.728c.336.376.856.564 1.56.564.68 0 1.312-.164 1.896-.492v.948c-.52.328-1.152.492-1.896.492Zm3.312-.12v-6.228h4.992V237h-1.056v-5.328h-2.88V237h-1.056Zm6.715-6.228h.924l.108 1.212c.2-.4.476-.72.828-.96.36-.248.8-.372 1.32-.372.488 0 .936.12 1.344.36.416.232.752.588 1.008 1.068.256.472.384 1.072.384 1.8s-.132 1.332-.396 1.812c-.256.48-.596.84-1.02 1.08a2.761 2.761 0 0 1-1.368.348c-.472 0-.884-.112-1.236-.336a2.408 2.408 0 0 1-.84-.924v3.264h-1.056v-8.352Zm4.824 3.108c0-.752-.172-1.32-.516-1.704-.344-.392-.788-.588-1.332-.588s-1.004.192-1.38.576c-.368.376-.552.948-.552 1.716 0 .776.184 1.352.552 1.728.376.376.836.564 1.38.564.544 0 .988-.192 1.332-.576.344-.384.516-.956.516-1.716Zm5.131 3.24c-1.04 0-1.836-.284-2.388-.852-.544-.576-.816-1.372-.816-2.388 0-.68.128-1.26.384-1.74s.608-.848 1.056-1.104a2.993 2.993 0 0 1 1.512-.384c.952 0 1.652.316 2.1.948.448.624.592 1.48.432 2.568h-4.392c.088 1.336.824 2.004 2.208 2.004.76 0 1.46-.216 2.1-.648v.948c-.288.2-.624.36-1.008.48-.384.112-.78.168-1.188.168Zm-.276-5.532c-.456 0-.848.14-1.176.42-.328.28-.536.704-.624 1.272h3.348c.024-.536-.1-.952-.372-1.248-.272-.296-.664-.444-1.176-.444Zm4.117 7.188h-.948V236.1h.588c.256-.256.436-.616.54-1.08.112-.464.18-1.044.204-1.74.024-.704.036-1.54.036-2.508h4.5v5.328h.936v2.676h-.924l-.132-1.776h-4.692l-.108 1.776Zm3.864-7.104h-2.46c-.008 1.136-.048 2.056-.12 2.76-.064.696-.228 1.252-.492 1.668h3.072v-4.428Zm5.737 5.448c-1.04 0-1.836-.284-2.388-.852-.544-.576-.816-1.372-.816-2.388 0-.68.128-1.26.384-1.74s.608-.848 1.056-1.104a2.993 2.993 0 0 1 1.512-.384c.952 0 1.652.316 2.1.948.448.624.592 1.48.432 2.568h-4.392c.088 1.336.824 2.004 2.208 2.004.76 0 1.46-.216 2.1-.648v.948c-.288.2-.624.36-1.008.48-.384.112-.78.168-1.188.168Zm-.276-5.532c-.456 0-.848.14-1.176.42-.328.28-.536.704-.624 1.272h3.348c.024-.536-.1-.952-.372-1.248-.272-.296-.664-.444-1.176-.444Zm3.469 4.38c.48.072.808-.228.984-.9.064-.24.116-.54.156-.9.04-.368.068-.824.084-1.368.016-.552.024-1.228.024-2.028h4.308V237h-1.068v-5.328h-2.244a32.147 32.147 0 0 1-.084 2.292 8.46 8.46 0 0 1-.204 1.428c-.152.6-.384 1.028-.696 1.284-.312.256-.732.368-1.26.336v-1.044Zm10.037 1.152c-1.04 0-1.836-.284-2.388-.852-.544-.576-.816-1.372-.816-2.388 0-.68.128-1.26.384-1.74s.608-.848 1.056-1.104a2.993 2.993 0 0 1 1.512-.384c.952 0 1.652.316 2.1.948.448.624.592 1.48.432 2.568h-4.392c.088 1.336.824 2.004 2.208 2.004.76 0 1.46-.216 2.1-.648v.948c-.288.2-.624.36-1.008.48-.384.112-.78.168-1.188.168Zm-.276-5.532c-.456 0-.848.14-1.176.42-.328.28-.536.704-.624 1.272h3.348c.024-.536-.1-.952-.372-1.248-.272-.296-.664-.444-1.176-.444Zm5.029-.816v2.568h3.012v-2.568h1.056V237h-1.056v-2.76h-3.012V237h-1.056v-6.228h1.056Zm6.856 0v2.568h3.012v-2.568h1.056V237h-1.056v-2.76h-3.012V237h-1.056v-6.228h1.056Zm6.855 0v2.1h1.08c.792 0 1.412.16 1.86.48.448.312.672.824.672 1.536 0 .496-.112.9-.336 1.212a2.023 2.023 0 0 1-.924.684c-.392.144-.84.216-1.344.216h-2.064v-6.228h1.056Zm5.568 0V237h-1.056v-6.228h1.056Zm-4.56 5.328c.448 0 .816-.088 1.104-.264.288-.184.432-.48.432-.888 0-.416-.128-.716-.384-.9-.256-.184-.616-.276-1.08-.276h-1.08v2.328h1.008Zm6.233-5.328h1.572l1.908 4.176 2.04-4.176h1.464V237h-1.044v-5.004l-2.112 4.308h-.84l-1.992-4.332V237h-.996v-6.228Zm11.109 0h.924l.108 1.212c.2-.4.476-.72.828-.96.36-.248.8-.372 1.32-.372.488 0 .936.12 1.344.36.416.232.752.588 1.008 1.068.256.472.384 1.072.384 1.8s-.132 1.332-.396 1.812c-.256.48-.596.84-1.02 1.08a2.761 2.761 0 0 1-1.368.348c-.472 0-.884-.112-1.236-.336a2.408 2.408 0 0 1-.84-.924v3.264h-1.056v-8.352Zm4.824 3.108c0-.752-.172-1.32-.516-1.704-.344-.392-.788-.588-1.332-.588s-1.004.192-1.38.576c-.368.376-.552.948-.552 1.716 0 .776.184 1.352.552 1.728.376.376.836.564 1.38.564.544 0 .988-.192 1.332-.576.344-.384.516-.956.516-1.716Zm4.425-2.292c-.664 0-1.336.204-2.016.612v-.948a3.804 3.804 0 0 1 1.02-.432 4.142 4.142 0 0 1 1.14-.168c.784 0 1.38.164 1.788.492.408.328.612.828.612 1.5v3.348c0 .136.004.312.012.528.016.208.032.368.048.48h-.96a5.482 5.482 0 0 1-.072-.468 7.173 7.173 0 0 1-.024-.54l-.012-.18a3.359 3.359 0 0 1-.396.6c-.168.2-.392.368-.672.504-.272.136-.612.204-1.02.204-.56 0-1.012-.16-1.356-.48-.344-.32-.516-.772-.516-1.356 0-.68.24-1.18.72-1.5.48-.32 1.156-.48 2.028-.48h1.164v-.516c0-.432-.112-.74-.336-.924-.224-.184-.608-.276-1.152-.276Zm1.488 3.012v-.456h-1.056c-.632 0-1.092.092-1.38.276-.28.184-.42.452-.42.804 0 .28.084.508.252.684.176.176.44.264.792.264.328 0 .608-.064.84-.192.232-.136.42-.296.564-.48.144-.192.248-.372.312-.54.064-.168.096-.288.096-.36Zm4.528 2.52c-.392 0-.772-.044-1.14-.132a2.854 2.854 0 0 1-.888-.36v-.948c.256.152.56.272.912.36.352.088.716.132 1.092.132.456 0 .836-.072 1.14-.216.312-.152.468-.408.468-.768 0-.352-.132-.6-.396-.744-.256-.144-.652-.216-1.188-.216h-.828v-.852h.864c.44 0 .776-.08 1.008-.24.232-.16.348-.392.348-.696 0-.32-.14-.54-.42-.66-.272-.128-.604-.192-.996-.192-.704 0-1.332.168-1.884.504v-.948c.24-.16.532-.28.876-.36a4.485 4.485 0 0 1 1.092-.132c.76 0 1.332.144 1.716.432.392.288.588.704.588 1.248 0 .408-.112.732-.336.972-.224.232-.532.388-.924.468.488.064.86.22 1.116.468.256.248.384.564.384.948 0 .464-.124.84-.372 1.128-.24.28-.556.484-.948.612-.392.128-.82.192-1.284.192Zm4.153-6.348h1.572l1.908 4.176 2.04-4.176h1.464V237h-1.044v-5.004l-2.112 4.308h-.84l-1.992-4.332V237h-.996v-6.228Zm11.467 6.348c-1.04 0-1.836-.284-2.388-.852-.544-.576-.816-1.372-.816-2.388 0-.68.128-1.26.384-1.74s.608-.848 1.056-1.104a2.993 2.993 0 0 1 1.512-.384c.952 0 1.652.316 2.1.948.448.624.592 1.48.432 2.568H414.5c.088 1.336.824 2.004 2.208 2.004.76 0 1.46-.216 2.1-.648v.948c-.288.2-.624.36-1.008.48-.384.112-.78.168-1.188.168Zm-.276-5.532c-.456 0-.848.14-1.176.42-.328.28-.536.704-.624 1.272h3.348c.024-.536-.1-.952-.372-1.248-.272-.296-.664-.444-1.176-.444Zm11.785 7.188-.132-1.776h-7.68v-6.228h1.056v5.328h2.304v-5.328h1.056v5.328h2.304v-5.328h1.056v5.328h.936v2.676h-.9Zm4.651-1.656c-1.04 0-1.836-.284-2.388-.852-.544-.576-.816-1.372-.816-2.388 0-.68.128-1.26.384-1.74s.608-.848 1.056-1.104a2.993 2.993 0 0 1 1.512-.384c.952 0 1.652.316 2.1.948.448.624.592 1.48.432 2.568h-4.392c.088 1.336.824 2.004 2.208 2.004.76 0 1.46-.216 2.1-.648v.948c-.288.2-.624.36-1.008.48-.384.112-.78.168-1.188.168Zm-.276-5.532c-.456 0-.848.14-1.176.42-.328.28-.536.704-.624 1.272h3.348c.024-.536-.1-.952-.372-1.248-.272-.296-.664-.444-1.176-.444Zm5.029-.816v2.568h3.012v-2.568h1.056V237h-1.056v-2.76h-3.012V237h-1.056v-6.228h1.056Zm6.856 0v4.764l3.204-4.764h1.068V237h-1.056v-4.752L444.405 237h-1.08v-6.228h1.056Zm8.759 6.348c-1.04 0-1.836-.284-2.388-.852-.544-.576-.816-1.372-.816-2.388 0-.68.128-1.26.384-1.74s.608-.848 1.056-1.104a2.993 2.993 0 0 1 1.512-.384c.952 0 1.652.316 2.1.948.448.624.592 1.48.432 2.568h-4.392c.088 1.336.824 2.004 2.208 2.004.76 0 1.46-.216 2.1-.648v.948c-.288.2-.624.36-1.008.48-.384.112-.78.168-1.188.168Zm-.276-5.532c-.456 0-.848.14-1.176.42-.328.28-.536.704-.624 1.272h3.348c.024-.536-.1-.952-.372-1.248-.272-.296-.664-.444-1.176-.444Zm3.973-.816h1.572l1.908 4.176 2.04-4.176h1.464V237h-1.044v-5.004l-2.112 4.308h-.84l-1.992-4.332V237h-.996v-6.228Z"/>
    <rect width="94" height="92" x="575" y="43" fill="#fff" stroke="#5282FF" stroke-width="2" rx="9"/>
    <path fill="#000" fill-opacity=".85" d="M602.342 66.12c-.848 0-1.592-.176-2.232-.528a3.683 3.683 0 0 1-1.476-1.512c-.352-.664-.528-1.456-.528-2.376 0-1.384.364-2.464 1.092-3.24.728-.784 1.768-1.176 3.12-1.176.504 0 .984.056 1.44.168a3.76 3.76 0 0 1 1.176.456v1.08a4.28 4.28 0 0 0-1.212-.504 5.54 5.54 0 0 0-1.416-.18c-1.008 0-1.756.284-2.244.852-.488.568-.732 1.416-.732 2.544 0 1.136.264 1.988.792 2.556.528.56 1.3.84 2.316.84.96 0 1.792-.264 2.496-.792v1.08c-.28.224-.652.404-1.116.54a5.528 5.528 0 0 1-1.476.192Zm3.553-6.348h5.004v.9h-1.992V66h-1.056v-5.328h-1.956v-.9Zm8.603 6.348c-.568 0-1.08-.124-1.536-.372a2.784 2.784 0 0 1-1.068-1.104c-.264-.488-.396-1.076-.396-1.764s.132-1.272.396-1.752.62-.844 1.068-1.092a3.083 3.083 0 0 1 1.536-.384c.576 0 1.092.128 1.548.384a2.68 2.68 0 0 1 1.08 1.092c.264.48.396 1.064.396 1.752s-.132 1.276-.396 1.764a2.76 2.76 0 0 1-1.08 1.104 3.187 3.187 0 0 1-1.548.372Zm0-.948c.56 0 1.024-.184 1.392-.552.368-.376.552-.956.552-1.74s-.184-1.36-.552-1.728c-.368-.376-.832-.564-1.392-.564-.552 0-1.012.188-1.38.564-.36.368-.54.944-.54 1.728s.18 1.364.54 1.74c.368.368.828.552 1.38.552Zm6.999-6.228c-.632 0-1.104-.156-1.416-.468a1.606 1.606 0 0 1-.468-1.164h1.056c0 .304.072.524.216.66.152.136.356.204.612.204s.456-.068.6-.204c.144-.136.216-.356.216-.66h1.056c0 .456-.156.844-.468 1.164-.304.312-.772.468-1.404.468Zm-1.632.828v4.764l3.204-4.764h1.068V66h-1.056v-4.752L619.889 66h-1.08v-6.228h1.056ZM630.952 66h-1.284l-2.196-2.652h-.552V66h-1.056v-6.228h1.056v2.676h.6l2.184-2.676h1.2l-2.556 3.072L630.952 66Zm3.106-5.412c-.664 0-1.336.204-2.016.612v-.948a3.804 3.804 0 0 1 1.02-.432 4.142 4.142 0 0 1 1.14-.168c.784 0 1.38.164 1.788.492.408.328.612.828.612 1.5v3.348c0 .136.004.312.012.528.016.208.032.368.048.48h-.96a5.482 5.482 0 0 1-.072-.468 7.173 7.173 0 0 1-.024-.54l-.012-.18a3.359 3.359 0 0 1-.396.6c-.168.2-.392.368-.672.504-.272.136-.612.204-1.02.204-.56 0-1.012-.16-1.356-.48-.344-.32-.516-.772-.516-1.356 0-.68.24-1.18.72-1.5.48-.32 1.156-.48 2.028-.48h1.164v-.516c0-.432-.112-.74-.336-.924-.224-.184-.608-.276-1.152-.276Zm1.488 3.012v-.456h-1.056c-.632 0-1.092.092-1.38.276-.28.184-.42.452-.42.804 0 .28.084.508.252.684.176.176.44.264.792.264.328 0 .608-.064.84-.192.232-.136.42-.296.564-.48.144-.192.248-.372.312-.54.064-.168.096-.288.096-.36Zm7.183 2.52c-.96 0-1.724-.204-2.292-.612v-1.176c.336.272.688.476 1.056.612.368.128.78.192 1.236.192.592 0 1.048-.18 1.368-.54.328-.36.492-.832.492-1.416 0-.624-.16-1.08-.48-1.368-.32-.288-.724-.432-1.212-.432-.352 0-.636.06-.852.18-.216.112-.38.232-.492.36h-.876v-4.524h4.656v1.032h-3.672v2.46c.16-.12.356-.224.588-.312a2.16 2.16 0 0 1 .828-.144c.496 0 .944.104 1.344.312.4.2.716.504.948.912.24.4.36.9.36 1.5 0 .592-.124 1.112-.372 1.56-.24.448-.584.796-1.032 1.044-.448.24-.98.36-1.596.36Z"/>
    <rect width="70" height="40" x="587" y="82" fill="#E3EBFF" rx="10"/>
    <path fill="#000" fill-opacity=".85" d="M609.385 97.396h2.916c.944 0 1.66.16 2.148.48.496.32.744.86.744 1.62 0 .616-.156 1.084-.468 1.404-.312.312-.728.524-1.248.636.664.08 1.168.276 1.512.588.344.304.516.768.516 1.392 0 .592-.14 1.072-.42 1.44-.28.368-.664.636-1.152.804-.488.16-1.04.24-1.656.24h-2.892v-8.604Zm2.832 3.672c.544 0 .984-.12 1.32-.36.344-.248.516-.632.516-1.152 0-.44-.152-.736-.456-.888-.304-.16-.736-.24-1.296-.24h-1.788v2.64h1.704Zm.06 3.912c.608 0 1.1-.104 1.476-.312.376-.208.564-.584.564-1.128 0-.544-.176-.92-.528-1.128-.344-.216-.892-.324-1.644-.324h-1.632v2.892h1.764Zm9.006-.288h-.504l.012-.012-2.604-5.7V106h-1.068v-8.604h1.572l2.676 6.036 2.796-6.036h1.464V106h-1.14v-6.924l-2.64 5.604-.564.012Zm10.67 1.428c-.96 0-1.724-.204-2.292-.612v-1.176c.336.272.688.476 1.056.612.368.128.78.192 1.236.192.592 0 1.048-.18 1.368-.54.328-.36.492-.832.492-1.416 0-.624-.16-1.08-.48-1.368-.32-.288-.724-.432-1.212-.432-.352 0-.636.06-.852.18-.216.112-.38.232-.492.36h-.876v-4.524h4.656v1.032h-3.672v2.46c.16-.12.356-.224.588-.312a2.16 2.16 0 0 1 .828-.144c.496 0 .944.104 1.344.312.4.2.716.504.948.912.24.4.36.9.36 1.5 0 .592-.124 1.112-.372 1.56-.24.448-.584.796-1.032 1.044-.448.24-.98.36-1.596.36Z"/>
    <rect width="94" height="92" x="31" y="43" fill="#fff" stroke="#5282FF" stroke-width="2" rx="9"/>
    <path fill="#000" fill-opacity=".85" d="M58.342 66.12c-.848 0-1.592-.176-2.232-.528a3.683 3.683 0 0 1-1.476-1.512c-.352-.664-.528-1.456-.528-2.376 0-1.384.364-2.464 1.092-3.24.728-.784 1.768-1.176 3.12-1.176.504 0 .984.056 1.44.168a3.76 3.76 0 0 1 1.176.456v1.08a4.28 4.28 0 0 0-1.212-.504 5.54 5.54 0 0 0-1.416-.18c-1.008 0-1.756.284-2.244.852-.488.568-.732 1.416-.732 2.544 0 1.136.264 1.988.792 2.556.528.56 1.3.84 2.316.84.96 0 1.792-.264 2.496-.792v1.08c-.28.224-.652.404-1.116.54a5.528 5.528 0 0 1-1.476.192Zm3.553-6.348H66.9v.9h-1.992V66h-1.056v-5.328h-1.956v-.9Zm8.603 6.348c-.568 0-1.08-.124-1.536-.372a2.784 2.784 0 0 1-1.068-1.104c-.264-.488-.396-1.076-.396-1.764s.132-1.272.396-1.752.62-.844 1.068-1.092a3.083 3.083 0 0 1 1.536-.384c.576 0 1.092.128 1.548.384a2.68 2.68 0 0 1 1.08 1.092c.264.48.396 1.064.396 1.752s-.132 1.276-.396 1.764a2.76 2.76 0 0 1-1.08 1.104 3.187 3.187 0 0 1-1.548.372Zm0-.948c.56 0 1.024-.184 1.392-.552.368-.376.552-.956.552-1.74s-.184-1.36-.552-1.728c-.368-.376-.832-.564-1.392-.564-.552 0-1.012.188-1.38.564-.36.368-.54.944-.54 1.728s.18 1.364.54 1.74c.368.368.828.552 1.38.552Zm7-6.228c-.633 0-1.105-.156-1.417-.468a1.606 1.606 0 0 1-.468-1.164h1.056c0 .304.072.524.216.66.152.136.356.204.612.204s.456-.068.6-.204c.144-.136.216-.356.216-.66h1.056c0 .456-.156.844-.468 1.164-.304.312-.772.468-1.404.468Zm-1.633.828v4.764l3.204-4.764h1.068V66h-1.056v-4.752L75.89 66h-1.08v-6.228h1.056ZM86.952 66h-1.284l-2.196-2.652h-.552V66h-1.056v-6.228h1.056v2.676h.6l2.184-2.676h1.2l-2.556 3.072L86.952 66Zm3.106-5.412c-.664 0-1.336.204-2.016.612v-.948a3.804 3.804 0 0 1 1.02-.432 4.142 4.142 0 0 1 1.14-.168c.784 0 1.38.164 1.788.492.408.328.612.828.612 1.5v3.348c0 .136.004.312.012.528.016.208.032.368.048.48h-.96a5.482 5.482 0 0 1-.072-.468 7.173 7.173 0 0 1-.024-.54l-.012-.18a3.359 3.359 0 0 1-.396.6c-.168.2-.392.368-.672.504-.272.136-.612.204-1.02.204-.56 0-1.012-.16-1.356-.48-.344-.32-.516-.772-.516-1.356 0-.68.24-1.18.72-1.5.48-.32 1.156-.48 2.028-.48h1.164v-.516c0-.432-.112-.74-.336-.924-.224-.184-.608-.276-1.152-.276Zm1.488 3.012v-.456H90.49c-.632 0-1.092.092-1.38.276-.28.184-.42.452-.42.804 0 .28.084.508.252.684.176.176.44.264.792.264.328 0 .608-.064.84-.192.232-.136.42-.296.564-.48.144-.192.248-.372.312-.54.064-.168.096-.288.096-.36Zm8.719 2.4h-1.092v-7.248l-2.376 1.824v-1.212l2.556-1.968h.912V66Z"/>
    <rect width="70" height="40" x="43" y="82" fill="#E3EBFF" rx="10"/>
    <path fill="#000" fill-opacity=".85" d="M65.385 97.396h2.916c.944 0 1.66.16 2.148.48.496.32.744.86.744 1.62 0 .616-.156 1.084-.468 1.404-.312.312-.728.524-1.248.636.664.08 1.168.276 1.512.588.344.304.516.768.516 1.392 0 .592-.14 1.072-.42 1.44-.28.368-.664.636-1.152.804-.488.16-1.04.24-1.656.24h-2.892v-8.604Zm2.832 3.672c.544 0 .984-.12 1.32-.36.344-.248.516-.632.516-1.152 0-.44-.152-.736-.456-.888-.304-.16-.736-.24-1.296-.24h-1.788v2.64h1.704Zm.06 3.912c.608 0 1.1-.104 1.476-.312.376-.208.564-.584.564-1.128 0-.544-.176-.92-.528-1.128-.344-.216-.892-.324-1.644-.324h-1.632v2.892h1.764Zm9.006-.288h-.504l.012-.012-2.604-5.7V106H73.12v-8.604h1.572l2.676 6.036 2.796-6.036h1.464V106h-1.14v-6.924l-2.64 5.604-.564.012ZM89.49 106h-1.092v-7.248l-2.376 1.824v-1.212l2.556-1.968h.912V106Z"/>
    <rect width="94" height="92" x="439" y="43" fill="#fff" stroke="#5282FF" stroke-width="2" rx="9"/>
    <path fill="#000" fill-opacity=".85" d="M466.342 66.12c-.848 0-1.592-.176-2.232-.528a3.683 3.683 0 0 1-1.476-1.512c-.352-.664-.528-1.456-.528-2.376 0-1.384.364-2.464 1.092-3.24.728-.784 1.768-1.176 3.12-1.176.504 0 .984.056 1.44.168a3.76 3.76 0 0 1 1.176.456v1.08a4.28 4.28 0 0 0-1.212-.504 5.54 5.54 0 0 0-1.416-.18c-1.008 0-1.756.284-2.244.852-.488.568-.732 1.416-.732 2.544 0 1.136.264 1.988.792 2.556.528.56 1.3.84 2.316.84.96 0 1.792-.264 2.496-.792v1.08c-.28.224-.652.404-1.116.54a5.528 5.528 0 0 1-1.476.192Zm3.553-6.348h5.004v.9h-1.992V66h-1.056v-5.328h-1.956v-.9Zm8.603 6.348c-.568 0-1.08-.124-1.536-.372a2.784 2.784 0 0 1-1.068-1.104c-.264-.488-.396-1.076-.396-1.764s.132-1.272.396-1.752.62-.844 1.068-1.092a3.083 3.083 0 0 1 1.536-.384c.576 0 1.092.128 1.548.384a2.68 2.68 0 0 1 1.08 1.092c.264.48.396 1.064.396 1.752s-.132 1.276-.396 1.764a2.76 2.76 0 0 1-1.08 1.104 3.187 3.187 0 0 1-1.548.372Zm0-.948c.56 0 1.024-.184 1.392-.552.368-.376.552-.956.552-1.74s-.184-1.36-.552-1.728c-.368-.376-.832-.564-1.392-.564-.552 0-1.012.188-1.38.564-.36.368-.54.944-.54 1.728s.18 1.364.54 1.74c.368.368.828.552 1.38.552Zm6.999-6.228c-.632 0-1.104-.156-1.416-.468a1.606 1.606 0 0 1-.468-1.164h1.056c0 .304.072.524.216.66.152.136.356.204.612.204s.456-.068.6-.204c.144-.136.216-.356.216-.66h1.056c0 .456-.156.844-.468 1.164-.304.312-.772.468-1.404.468Zm-1.632.828v4.764l3.204-4.764h1.068V66h-1.056v-4.752L483.889 66h-1.08v-6.228h1.056ZM494.952 66h-1.284l-2.196-2.652h-.552V66h-1.056v-6.228h1.056v2.676h.6l2.184-2.676h1.2l-2.556 3.072L494.952 66Zm3.106-5.412c-.664 0-1.336.204-2.016.612v-.948a3.804 3.804 0 0 1 1.02-.432 4.142 4.142 0 0 1 1.14-.168c.784 0 1.38.164 1.788.492.408.328.612.828.612 1.5v3.348c0 .136.004.312.012.528.016.208.032.368.048.48h-.96a5.482 5.482 0 0 1-.072-.468 7.173 7.173 0 0 1-.024-.54l-.012-.18a3.359 3.359 0 0 1-.396.6c-.168.2-.392.368-.672.504-.272.136-.612.204-1.02.204-.56 0-1.012-.16-1.356-.48-.344-.32-.516-.772-.516-1.356 0-.68.24-1.18.72-1.5.48-.32 1.156-.48 2.028-.48h1.164v-.516c0-.432-.112-.74-.336-.924-.224-.184-.608-.276-1.152-.276Zm1.488 3.012v-.456h-1.056c-.632 0-1.092.092-1.38.276-.28.184-.42.452-.42.804 0 .28.084.508.252.684.176.176.44.264.792.264.328 0 .608-.064.84-.192.232-.136.42-.296.564-.48.144-.192.248-.372.312-.54.064-.168.096-.288.096-.36Zm9.355 2.4h-1.056v-2.04h-3.72v-.744l3.36-5.82h1.416v5.652h1.164v.912h-1.164V66Zm-3.684-2.952h2.628v-4.476l-2.628 4.476Z"/>
    <rect width="70" height="40" x="451" y="82" fill="#E3EBFF" rx="10"/>
    <path fill="#000" fill-opacity=".85" d="M473.385 97.396h2.916c.944 0 1.66.16 2.148.48.496.32.744.86.744 1.62 0 .616-.156 1.084-.468 1.404-.312.312-.728.524-1.248.636.664.08 1.168.276 1.512.588.344.304.516.768.516 1.392 0 .592-.14 1.072-.42 1.44-.28.368-.664.636-1.152.804-.488.16-1.04.24-1.656.24h-2.892v-8.604Zm2.832 3.672c.544 0 .984-.12 1.32-.36.344-.248.516-.632.516-1.152 0-.44-.152-.736-.456-.888-.304-.16-.736-.24-1.296-.24h-1.788v2.64h1.704Zm.06 3.912c.608 0 1.1-.104 1.476-.312.376-.208.564-.584.564-1.128 0-.544-.176-.92-.528-1.128-.344-.216-.892-.324-1.644-.324h-1.632v2.892h1.764Zm9.006-.288h-.504l.012-.012-2.604-5.7V106h-1.068v-8.604h1.572l2.676 6.036 2.796-6.036h1.464V106h-1.14v-6.924l-2.64 5.604-.564.012ZM498.125 106h-1.056v-2.04h-3.72v-.744l3.36-5.82h1.416v5.652h1.164v.912h-1.164V106Zm-3.684-2.952h2.628v-4.476l-2.628 4.476Z"/>
</svg>
