<svg xmlns="http://www.w3.org/2000/svg" width="700" height="400" fill="none" viewBox="0 0 700 400">
    <rect width="200" height="20" x="250" y="377" fill="#fff" rx="5"/>
    <rect width="694" height="326" x="3" y="3" fill="#fff" stroke="#5282FF" stroke-width="2" rx="9"/>
    <path fill="#4E496B" d="m554 290-5.774 10h11.548L554 290Zm-1 9v63h2v-63h-2Zm-7 70H262v2h284v-2Zm7-7a7 7 0 0 1-7 7v2a9 9 0 0 0 9-9h-2Z"/>
    <path fill="#4E496B" d="m146 290 5.774 10h-11.548L146 290Zm1 9v63h-2v-63h2Zm7 70h284v2H154v-2Zm-7-7a7 7 0 0 0 7 7v2a9 9 0 0 1-9-9h2Z"/>
    <path fill="#4E496B" d="m350 290-5.774 10h11.548L350 290Zm-1 9v71h2v-71h-2Z"/>
    <g filter="url(#filter0_d_1_177)">
        <rect width="260" height="248" x="16" y="42" fill="#fff" rx="10"/>
    </g>
    <g filter="url(#filter1_d_1_177)">
        <rect width="124" height="248" x="288" y="42" fill="#fff" rx="10"/>
    </g>
    <rect width="94" height="92" x="303" y="83" fill="#fff" stroke="#5282FF" stroke-width="2" rx="9"/>
    <path fill="#000" fill-opacity=".85" d="M330.342 106.12c-.848 0-1.592-.176-2.232-.528a3.683 3.683 0 0 1-1.476-1.512c-.352-.664-.528-1.456-.528-2.376 0-1.384.364-2.464 1.092-3.24.728-.784 1.768-1.176 3.12-1.176.504 0 .984.056 1.44.168a3.76 3.76 0 0 1 1.176.456v1.08a4.28 4.28 0 0 0-1.212-.504 5.54 5.54 0 0 0-1.416-.18c-1.008 0-1.756.284-2.244.852-.488.568-.732 1.416-.732 2.544 0 1.136.264 1.988.792 2.556.528.56 1.3.84 2.316.84.96 0 1.792-.264 2.496-.792v1.08c-.28.224-.652.404-1.116.54a5.528 5.528 0 0 1-1.476.192Zm3.553-6.348h5.004v.9h-1.992V106h-1.056v-5.328h-1.956v-.9Zm8.603 6.348c-.568 0-1.08-.124-1.536-.372a2.784 2.784 0 0 1-1.068-1.104c-.264-.488-.396-1.076-.396-1.764s.132-1.272.396-1.752.62-.844 1.068-1.092a3.083 3.083 0 0 1 1.536-.384c.576 0 1.092.128 1.548.384a2.68 2.68 0 0 1 1.08 1.092c.264.48.396 1.064.396 1.752s-.132 1.276-.396 1.764a2.76 2.76 0 0 1-1.08 1.104 3.187 3.187 0 0 1-1.548.372Zm0-.948c.56 0 1.024-.184 1.392-.552.368-.376.552-.956.552-1.74s-.184-1.36-.552-1.728c-.368-.376-.832-.564-1.392-.564-.552 0-1.012.188-1.38.564-.36.368-.54.944-.54 1.728s.18 1.364.54 1.74c.368.368.828.552 1.38.552Zm6.999-6.228c-.632 0-1.104-.156-1.416-.468a1.606 1.606 0 0 1-.468-1.164h1.056c0 .304.072.524.216.66.152.136.356.204.612.204s.456-.068.6-.204c.144-.136.216-.356.216-.66h1.056c0 .456-.156.844-.468 1.164-.304.312-.772.468-1.404.468Zm-1.632.828v4.764l3.204-4.764h1.068V106h-1.056v-4.752L347.889 106h-1.08v-6.228h1.056ZM358.952 106h-1.284l-2.196-2.652h-.552V106h-1.056v-6.228h1.056v2.676h.6l2.184-2.676h1.2l-2.556 3.072 2.604 3.156Zm3.106-5.412c-.664 0-1.336.204-2.016.612v-.948a3.804 3.804 0 0 1 1.02-.432 4.142 4.142 0 0 1 1.14-.168c.784 0 1.38.164 1.788.492.408.328.612.828.612 1.5v3.348c0 .136.004.312.012.528.016.208.032.368.048.48h-.96a5.482 5.482 0 0 1-.072-.468 7.173 7.173 0 0 1-.024-.54l-.012-.18a3.359 3.359 0 0 1-.396.6c-.168.2-.392.368-.672.504-.272.136-.612.204-1.02.204-.56 0-1.012-.16-1.356-.48-.344-.32-.516-.772-.516-1.356 0-.68.24-1.18.72-1.5.48-.32 1.156-.48 2.028-.48h1.164v-.516c0-.432-.112-.74-.336-.924-.224-.184-.608-.276-1.152-.276Zm1.488 3.012v-.456h-1.056c-.632 0-1.092.092-1.38.276-.28.184-.42.452-.42.804 0 .28.084.508.252.684.176.176.44.264.792.264.328 0 .608-.064.84-.192.232-.136.42-.296.564-.48.144-.192.248-.372.312-.54.064-.168.096-.288.096-.36Zm6.247-1.584v-1.02h1.152c.448 0 .812-.12 1.092-.36.288-.248.432-.596.432-1.044 0-.408-.132-.728-.396-.96-.264-.24-.644-.36-1.14-.36a3.05 3.05 0 0 0-1.176.228c-.36.152-.736.396-1.128.732v-1.176c.64-.52 1.412-.78 2.316-.78.824 0 1.468.208 1.932.624.472.416.708.96.708 1.632 0 .544-.152.976-.456 1.296-.296.32-.652.532-1.068.636.336.048.644.164.924.348.288.176.52.408.696.696.176.288.264.624.264 1.008 0 .528-.132.988-.396 1.38a2.611 2.611 0 0 1-1.092.912c-.456.208-.988.312-1.596.312-1.056 0-1.872-.244-2.448-.732v-1.2c.304.296.672.528 1.104.696.432.168.884.252 1.356.252.592 0 1.056-.14 1.392-.42.344-.288.516-.68.516-1.176 0-.48-.156-.852-.468-1.116-.304-.272-.776-.408-1.416-.408h-1.104Z"/>
    <rect width="70" height="40" x="315" y="122" fill="#E3EBFF" rx="10"/>
    <path fill="#000" fill-opacity=".85" d="M337.385 137.396h2.916c.944 0 1.66.16 2.148.48.496.32.744.86.744 1.62 0 .616-.156 1.084-.468 1.404-.312.312-.728.524-1.248.636.664.08 1.168.276 1.512.588.344.304.516.768.516 1.392 0 .592-.14 1.072-.42 1.44-.28.368-.664.636-1.152.804-.488.16-1.04.24-1.656.24h-2.892v-8.604Zm2.832 3.672c.544 0 .984-.12 1.32-.36.344-.248.516-.632.516-1.152 0-.44-.152-.736-.456-.888-.304-.16-.736-.24-1.296-.24h-1.788v2.64h1.704Zm.06 3.912c.608 0 1.1-.104 1.476-.312.376-.208.564-.584.564-1.128 0-.544-.176-.92-.528-1.128-.344-.216-.892-.324-1.644-.324h-1.632v2.892h1.764Zm9.006-.288h-.504l.012-.012-2.604-5.7V146h-1.068v-8.604h1.572l2.676 6.036 2.796-6.036h1.464V146h-1.14v-6.924l-2.64 5.604-.564.012Zm14.006-1.512c0 .584-.128 1.1-.384 1.548a2.69 2.69 0 0 1-1.02 1.032c-.432.24-.916.36-1.452.36-.72 0-1.3-.16-1.74-.48-.44-.32-.764-.764-.972-1.332-.2-.568-.3-1.22-.3-1.956 0-1.008.12-1.892.36-2.652.248-.76.624-1.352 1.128-1.776.512-.432 1.168-.648 1.968-.648.688 0 1.292.148 1.812.444v1.068c-.52-.352-1.124-.528-1.812-.528-.496 0-.912.136-1.248.408-.336.272-.6.644-.792 1.116a5.215 5.215 0 0 0-.336 1.572c.264-.36.568-.628.912-.804a2.44 2.44 0 0 1 1.128-.264c.52 0 .984.112 1.392.336.416.224.744.552.984.984.248.424.372.948.372 1.572Zm-2.892 1.98c.312 0 .6-.072.864-.216.264-.152.476-.372.636-.66.168-.288.252-.648.252-1.08 0-.432-.08-.796-.24-1.092a1.637 1.637 0 0 0-.612-.66 1.47 1.47 0 0 0-.78-.228c-.528 0-.972.172-1.332.516-.352.336-.528.832-.528 1.488 0 .576.156 1.044.468 1.404.312.352.736.528 1.272.528Z"/>
    <rect width="94" height="142" x="167" y="83" fill="#fff" stroke="#5282FF" stroke-width="2" rx="9"/>
    <path fill="#000" fill-opacity=".85" d="M194.342 106.12c-.848 0-1.592-.176-2.232-.528a3.683 3.683 0 0 1-1.476-1.512c-.352-.664-.528-1.456-.528-2.376 0-1.384.364-2.464 1.092-3.24.728-.784 1.768-1.176 3.12-1.176.504 0 .984.056 1.44.168a3.76 3.76 0 0 1 1.176.456v1.08a4.28 4.28 0 0 0-1.212-.504 5.54 5.54 0 0 0-1.416-.18c-1.008 0-1.756.284-2.244.852-.488.568-.732 1.416-.732 2.544 0 1.136.264 1.988.792 2.556.528.56 1.3.84 2.316.84.96 0 1.792-.264 2.496-.792v1.08c-.28.224-.652.404-1.116.54a5.528 5.528 0 0 1-1.476.192Zm3.553-6.348h5.004v.9h-1.992V106h-1.056v-5.328h-1.956v-.9Zm8.603 6.348c-.568 0-1.08-.124-1.536-.372a2.784 2.784 0 0 1-1.068-1.104c-.264-.488-.396-1.076-.396-1.764s.132-1.272.396-1.752.62-.844 1.068-1.092a3.083 3.083 0 0 1 1.536-.384c.576 0 1.092.128 1.548.384a2.68 2.68 0 0 1 1.08 1.092c.264.48.396 1.064.396 1.752s-.132 1.276-.396 1.764a2.76 2.76 0 0 1-1.08 1.104 3.187 3.187 0 0 1-1.548.372Zm0-.948c.56 0 1.024-.184 1.392-.552.368-.376.552-.956.552-1.74s-.184-1.36-.552-1.728c-.368-.376-.832-.564-1.392-.564-.552 0-1.012.188-1.38.564-.36.368-.54.944-.54 1.728s.18 1.364.54 1.74c.368.368.828.552 1.38.552Zm6.999-6.228c-.632 0-1.104-.156-1.416-.468a1.606 1.606 0 0 1-.468-1.164h1.056c0 .304.072.524.216.66.152.136.356.204.612.204s.456-.068.6-.204c.144-.136.216-.356.216-.66h1.056c0 .456-.156.844-.468 1.164-.304.312-.772.468-1.404.468Zm-1.632.828v4.764l3.204-4.764h1.068V106h-1.056v-4.752L211.889 106h-1.08v-6.228h1.056ZM222.952 106h-1.284l-2.196-2.652h-.552V106h-1.056v-6.228h1.056v2.676h.6l2.184-2.676h1.2l-2.556 3.072 2.604 3.156Zm3.106-5.412c-.664 0-1.336.204-2.016.612v-.948a3.804 3.804 0 0 1 1.02-.432 4.142 4.142 0 0 1 1.14-.168c.784 0 1.38.164 1.788.492.408.328.612.828.612 1.5v3.348c0 .136.004.312.012.528.016.208.032.368.048.48h-.96a5.482 5.482 0 0 1-.072-.468 7.173 7.173 0 0 1-.024-.54l-.012-.18a3.359 3.359 0 0 1-.396.6c-.168.2-.392.368-.672.504-.272.136-.612.204-1.02.204-.56 0-1.012-.16-1.356-.48-.344-.32-.516-.772-.516-1.356 0-.68.24-1.18.72-1.5.48-.32 1.156-.48 2.028-.48h1.164v-.516c0-.432-.112-.74-.336-.924-.224-.184-.608-.276-1.152-.276Zm1.488 3.012v-.456h-1.056c-.632 0-1.092.092-1.38.276-.28.184-.42.452-.42.804 0 .28.084.508.252.684.176.176.44.264.792.264.328 0 .608-.064.84-.192.232-.136.42-.296.564-.48.144-.192.248-.372.312-.54.064-.168.096-.288.096-.36Zm10.327 2.4h-5.484v-1.14a52.221 52.221 0 0 0 2.1-1.764c.552-.488.98-.912 1.284-1.272.312-.368.528-.708.648-1.02.128-.312.192-.628.192-.948 0-.496-.148-.884-.444-1.164-.296-.28-.704-.42-1.224-.42-.832 0-1.608.396-2.328 1.188v-1.212c.664-.648 1.452-.972 2.364-.972.864 0 1.544.224 2.04.672.504.44.756 1.04.756 1.8 0 .392-.064.768-.192 1.128-.12.352-.336.724-.648 1.116-.304.384-.724.816-1.26 1.296-.536.48-1.216 1.04-2.04 1.68h4.236V106Z"/>
    <rect width="70" height="40" x="179" y="122" fill="#E3EBFF" rx="10"/>
    <path fill="#000" fill-opacity=".85" d="M201.385 137.396h2.916c.944 0 1.66.16 2.148.48.496.32.744.86.744 1.62 0 .616-.156 1.084-.468 1.404-.312.312-.728.524-1.248.636.664.08 1.168.276 1.512.588.344.304.516.768.516 1.392 0 .592-.14 1.072-.42 1.44-.28.368-.664.636-1.152.804-.488.16-1.04.24-1.656.24h-2.892v-8.604Zm2.832 3.672c.544 0 .984-.12 1.32-.36.344-.248.516-.632.516-1.152 0-.44-.152-.736-.456-.888-.304-.16-.736-.24-1.296-.24h-1.788v2.64h1.704Zm.06 3.912c.608 0 1.1-.104 1.476-.312.376-.208.564-.584.564-1.128 0-.544-.176-.92-.528-1.128-.344-.216-.892-.324-1.644-.324h-1.632v2.892h1.764Zm9.006-.288h-.504l.012-.012-2.604-5.7V146h-1.068v-8.604h1.572l2.676 6.036 2.796-6.036h1.464V146h-1.14v-6.924l-2.64 5.604-.564.012ZM226.125 146h-1.056v-2.04h-3.72v-.744l3.36-5.82h1.416v5.652h1.164v.912h-1.164V146Zm-3.684-2.952h2.628v-4.476l-2.628 4.476Z"/>
    <rect width="70" height="40" x="179" y="172" fill="#E3EBFF" rx="10"/>
    <path fill="#000" fill-opacity=".85" d="M201.385 187.396h2.916c.944 0 1.66.16 2.148.48.496.32.744.86.744 1.62 0 .616-.156 1.084-.468 1.404-.312.312-.728.524-1.248.636.664.08 1.168.276 1.512.588.344.304.516.768.516 1.392 0 .592-.14 1.072-.42 1.44-.28.368-.664.636-1.152.804-.488.16-1.04.24-1.656.24h-2.892v-8.604Zm2.832 3.672c.544 0 .984-.12 1.32-.36.344-.248.516-.632.516-1.152 0-.44-.152-.736-.456-.888-.304-.16-.736-.24-1.296-.24h-1.788v2.64h1.704Zm.06 3.912c.608 0 1.1-.104 1.476-.312.376-.208.564-.584.564-1.128 0-.544-.176-.92-.528-1.128-.344-.216-.892-.324-1.644-.324h-1.632v2.892h1.764Zm9.006-.288h-.504l.012-.012-2.604-5.7V196h-1.068v-8.604h1.572l2.676 6.036 2.796-6.036h1.464V196h-1.14v-6.924l-2.64 5.604-.564.012Zm10.67 1.428c-.96 0-1.724-.204-2.292-.612v-1.176c.336.272.688.476 1.056.612.368.128.78.192 1.236.192.592 0 1.048-.18 1.368-.54.328-.36.492-.832.492-1.416 0-.624-.16-1.08-.48-1.368-.32-.288-.724-.432-1.212-.432-.352 0-.636.06-.852.18-.216.112-.38.232-.492.36h-.876v-4.524h4.656v1.032h-3.672v2.46c.16-.12.356-.224.588-.312a2.16 2.16 0 0 1 .828-.144c.496 0 .944.104 1.344.312.4.2.716.504.948.912.24.4.36.9.36 1.5 0 .592-.124 1.112-.372 1.56-.24.448-.584.796-1.032 1.044-.448.24-.98.36-1.596.36ZM122.75 57.396h2.748c.976 0 1.732.204 2.268.612.544.4.816 1.028.816 1.884 0 .648-.136 1.176-.408 1.584a2.312 2.312 0 0 1-1.116.9c-.472.184-1.024.276-1.656.276h-1.524V66h-1.128v-8.604Zm2.652 4.236c.608 0 1.1-.132 1.476-.396.376-.264.564-.708.564-1.332 0-.52-.168-.896-.504-1.128-.336-.232-.816-.348-1.44-.348h-1.62v3.204h1.524Zm6.336-1.044c-.664 0-1.336.204-2.016.612v-.948a3.804 3.804 0 0 1 1.02-.432 4.142 4.142 0 0 1 1.14-.168c.784 0 1.38.164 1.788.492.408.328.612.828.612 1.5v3.348c0 .136.004.312.012.528.016.208.032.368.048.48h-.96a5.482 5.482 0 0 1-.072-.468 7.173 7.173 0 0 1-.024-.54l-.012-.18a3.359 3.359 0 0 1-.396.6c-.168.2-.392.368-.672.504-.272.136-.612.204-1.02.204-.56 0-1.012-.16-1.356-.48-.344-.32-.516-.772-.516-1.356 0-.68.24-1.18.72-1.5.48-.32 1.156-.48 2.028-.48h1.164v-.516c0-.432-.112-.74-.336-.924-.224-.184-.608-.276-1.152-.276Zm1.488 3.012v-.456h-1.056c-.632 0-1.092.092-1.38.276-.28.184-.42.452-.42.804 0 .28.084.508.252.684.176.176.44.264.792.264.328 0 .608-.064.84-.192.232-.136.42-.296.564-.48.144-.192.248-.372.312-.54.064-.168.096-.288.096-.36Zm4.528 2.52c-.392 0-.772-.044-1.14-.132a2.854 2.854 0 0 1-.888-.36v-.948c.256.152.56.272.912.36.352.088.716.132 1.092.132.456 0 .836-.072 1.14-.216.312-.152.468-.408.468-.768 0-.352-.132-.6-.396-.744-.256-.144-.652-.216-1.188-.216h-.828v-.852h.864c.44 0 .776-.08 1.008-.24.232-.16.348-.392.348-.696 0-.32-.14-.54-.42-.66-.272-.128-.604-.192-.996-.192-.704 0-1.332.168-1.884.504v-.948c.24-.16.532-.28.876-.36a4.485 4.485 0 0 1 1.092-.132c.76 0 1.332.144 1.716.432.392.288.588.704.588 1.248 0 .408-.112.732-.336.972-.224.232-.532.388-.924.468.488.064.86.22 1.116.468.256.248.384.564.384.948 0 .464-.124.84-.372 1.128-.24.28-.556.484-.948.612-.392.128-.82.192-1.284.192Zm4.297 1.656h-.948V65.1h.588c.256-.256.436-.616.54-1.08.112-.464.18-1.044.204-1.74.024-.704.036-1.54.036-2.508h4.5V65.1h.936v2.676h-.924L146.851 66h-4.692l-.108 1.776Zm3.864-7.104h-2.46c-.008 1.136-.048 2.056-.12 2.76-.064.696-.228 1.252-.492 1.668h3.072v-4.428Zm5.736 5.448c-1.04 0-1.836-.284-2.388-.852-.544-.576-.816-1.372-.816-2.388 0-.68.128-1.26.384-1.74s.608-.848 1.056-1.104a2.993 2.993 0 0 1 1.512-.384c.952 0 1.652.316 2.1.948.448.624.592 1.48.432 2.568h-4.392c.088 1.336.824 2.004 2.208 2.004.76 0 1.46-.216 2.1-.648v.948c-.288.2-.624.36-1.008.48-.384.112-.78.168-1.188.168Zm-.276-5.532c-.456 0-.848.14-1.176.42-.328.28-.536.704-.624 1.272h3.348c.024-.536-.1-.952-.372-1.248-.272-.296-.664-.444-1.176-.444Zm3.469 4.38c.48.072.808-.228.984-.9.064-.24.116-.54.156-.9.04-.368.068-.824.084-1.368.016-.552.024-1.228.024-2.028h4.308V66h-1.068v-5.328h-2.244a32.147 32.147 0 0 1-.084 2.292 8.46 8.46 0 0 1-.204 1.428c-.152.6-.384 1.028-.696 1.284-.312.256-.732.368-1.26.336v-1.044ZM168.124 66h-1.092v-7.248l-2.376 1.824v-1.212l2.556-1.968h.912V66Z"/>
    <g filter="url(#filter2_d_1_177)">
        <rect width="260" height="248" x="424" y="42" fill="#fff" rx="10"/>
    </g>
    <path fill="#000" fill-opacity=".85" d="M530.75 57.396h2.748c.976 0 1.732.204 2.268.612.544.4.816 1.028.816 1.884 0 .648-.136 1.176-.408 1.584a2.312 2.312 0 0 1-1.116.9c-.472.184-1.024.276-1.656.276h-1.524V66h-1.128v-8.604Zm2.652 4.236c.608 0 1.1-.132 1.476-.396.376-.264.564-.708.564-1.332 0-.52-.168-.896-.504-1.128-.336-.232-.816-.348-1.44-.348h-1.62v3.204h1.524Zm6.336-1.044c-.664 0-1.336.204-2.016.612v-.948a3.804 3.804 0 0 1 1.02-.432 4.142 4.142 0 0 1 1.14-.168c.784 0 1.38.164 1.788.492.408.328.612.828.612 1.5v3.348c0 .136.004.312.012.528.016.208.032.368.048.48h-.96a5.482 5.482 0 0 1-.072-.468 7.173 7.173 0 0 1-.024-.54l-.012-.18a3.359 3.359 0 0 1-.396.6c-.168.2-.392.368-.672.504-.272.136-.612.204-1.02.204-.56 0-1.012-.16-1.356-.48-.344-.32-.516-.772-.516-1.356 0-.68.24-1.18.72-1.5.48-.32 1.156-.48 2.028-.48h1.164v-.516c0-.432-.112-.74-.336-.924-.224-.184-.608-.276-1.152-.276Zm1.488 3.012v-.456h-1.056c-.632 0-1.092.092-1.38.276-.28.184-.42.452-.42.804 0 .28.084.508.252.684.176.176.44.264.792.264.328 0 .608-.064.84-.192.232-.136.42-.296.564-.48.144-.192.248-.372.312-.54.064-.168.096-.288.096-.36Zm4.528 2.52c-.392 0-.772-.044-1.14-.132a2.854 2.854 0 0 1-.888-.36v-.948c.256.152.56.272.912.36.352.088.716.132 1.092.132.456 0 .836-.072 1.14-.216.312-.152.468-.408.468-.768 0-.352-.132-.6-.396-.744-.256-.144-.652-.216-1.188-.216h-.828v-.852h.864c.44 0 .776-.08 1.008-.24.232-.16.348-.392.348-.696 0-.32-.14-.54-.42-.66-.272-.128-.604-.192-.996-.192-.704 0-1.332.168-1.884.504v-.948c.24-.16.532-.28.876-.36a4.485 4.485 0 0 1 1.092-.132c.76 0 1.332.144 1.716.432.392.288.588.704.588 1.248 0 .408-.112.732-.336.972-.224.232-.532.388-.924.468.488.064.86.22 1.116.468.256.248.384.564.384.948 0 .464-.124.84-.372 1.128-.24.28-.556.484-.948.612-.392.128-.82.192-1.284.192Zm4.297 1.656h-.948V65.1h.588c.256-.256.436-.616.54-1.08.112-.464.18-1.044.204-1.74.024-.704.036-1.54.036-2.508h4.5V65.1h.936v2.676h-.924L554.851 66h-4.692l-.108 1.776Zm3.864-7.104h-2.46c-.008 1.136-.048 2.056-.12 2.76-.064.696-.228 1.252-.492 1.668h3.072v-4.428Zm5.736 5.448c-1.04 0-1.836-.284-2.388-.852-.544-.576-.816-1.372-.816-2.388 0-.68.128-1.26.384-1.74s.608-.848 1.056-1.104a2.993 2.993 0 0 1 1.512-.384c.952 0 1.652.316 2.1.948.448.624.592 1.48.432 2.568h-4.392c.088 1.336.824 2.004 2.208 2.004.76 0 1.46-.216 2.1-.648v.948c-.288.2-.624.36-1.008.48-.384.112-.78.168-1.188.168Zm-.276-5.532c-.456 0-.848.14-1.176.42-.328.28-.536.704-.624 1.272h3.348c.024-.536-.1-.952-.372-1.248-.272-.296-.664-.444-1.176-.444Zm3.469 4.38c.48.072.808-.228.984-.9.064-.24.116-.54.156-.9.04-.368.068-.824.084-1.368.016-.552.024-1.228.024-2.028h4.308V66h-1.068v-5.328h-2.244a32.147 32.147 0 0 1-.084 2.292 8.46 8.46 0 0 1-.204 1.428c-.152.6-.384 1.028-.696 1.284-.312.256-.732.368-1.26.336v-1.044Zm10.808-2.952v-1.02h1.152c.448 0 .812-.12 1.092-.36.288-.248.432-.596.432-1.044 0-.408-.132-.728-.396-.96-.264-.24-.644-.36-1.14-.36a3.05 3.05 0 0 0-1.176.228c-.36.152-.736.396-1.128.732v-1.176c.64-.52 1.412-.78 2.316-.78.824 0 1.468.208 1.932.624.472.416.708.96.708 1.632 0 .544-.152.976-.456 1.296-.296.32-.652.532-1.068.636.336.048.644.164.924.348.288.176.52.408.696.696.176.288.264.624.264 1.008 0 .528-.132.988-.396 1.38a2.611 2.611 0 0 1-1.092.912c-.456.208-.988.312-1.596.312-1.056 0-1.872-.244-2.448-.732v-1.2c.304.296.672.528 1.104.696.432.168.884.252 1.356.252.592 0 1.056-.14 1.392-.42.344-.288.516-.68.516-1.176 0-.48-.156-.852-.468-1.116-.304-.272-.776-.408-1.416-.408h-1.104Zm-246.902-4.62h2.748c.976 0 1.732.204 2.268.612.544.4.816 1.028.816 1.884 0 .648-.136 1.176-.408 1.584a2.312 2.312 0 0 1-1.116.9c-.472.184-1.024.276-1.656.276h-1.524V66h-1.128v-8.604Zm2.652 4.236c.608 0 1.1-.132 1.476-.396.376-.264.564-.708.564-1.332 0-.52-.168-.896-.504-1.128-.336-.232-.816-.348-1.44-.348h-1.62v3.204h1.524Zm6.336-1.044c-.664 0-1.336.204-2.016.612v-.948a3.804 3.804 0 0 1 1.02-.432 4.142 4.142 0 0 1 1.14-.168c.784 0 1.38.164 1.788.492.408.328.612.828.612 1.5v3.348c0 .136.004.312.012.528.016.208.032.368.048.48h-.96a5.482 5.482 0 0 1-.072-.468 7.173 7.173 0 0 1-.024-.54l-.012-.18a3.359 3.359 0 0 1-.396.6c-.168.2-.392.368-.672.504-.272.136-.612.204-1.02.204-.56 0-1.012-.16-1.356-.48-.344-.32-.516-.772-.516-1.356 0-.68.24-1.18.72-1.5.48-.32 1.156-.48 2.028-.48h1.164v-.516c0-.432-.112-.74-.336-.924-.224-.184-.608-.276-1.152-.276Zm1.488 3.012v-.456h-1.056c-.632 0-1.092.092-1.38.276-.28.184-.42.452-.42.804 0 .28.084.508.252.684.176.176.44.264.792.264.328 0 .608-.064.84-.192.232-.136.42-.296.564-.48.144-.192.248-.372.312-.54.064-.168.096-.288.096-.36Zm4.528 2.52c-.392 0-.772-.044-1.14-.132a2.854 2.854 0 0 1-.888-.36v-.948c.256.152.56.272.912.36.352.088.716.132 1.092.132.456 0 .836-.072 1.14-.216.312-.152.468-.408.468-.768 0-.352-.132-.6-.396-.744-.256-.144-.652-.216-1.188-.216h-.828v-.852h.864c.44 0 .776-.08 1.008-.24.232-.16.348-.392.348-.696 0-.32-.14-.54-.42-.66-.272-.128-.604-.192-.996-.192-.704 0-1.332.168-1.884.504v-.948c.24-.16.532-.28.876-.36a4.485 4.485 0 0 1 1.092-.132c.76 0 1.332.144 1.716.432.392.288.588.704.588 1.248 0 .408-.112.732-.336.972-.224.232-.532.388-.924.468.488.064.86.22 1.116.468.256.248.384.564.384.948 0 .464-.124.84-.372 1.128-.24.28-.556.484-.948.612-.392.128-.82.192-1.284.192Zm4.297 1.656h-.948V65.1h.588c.256-.256.436-.616.54-1.08.112-.464.18-1.044.204-1.74.024-.704.036-1.54.036-2.508h4.5V65.1h.936v2.676h-.924L350.851 66h-4.692l-.108 1.776Zm3.864-7.104h-2.46c-.008 1.136-.048 2.056-.12 2.76-.064.696-.228 1.252-.492 1.668h3.072v-4.428Zm5.736 5.448c-1.04 0-1.836-.284-2.388-.852-.544-.576-.816-1.372-.816-2.388 0-.68.128-1.26.384-1.74s.608-.848 1.056-1.104a2.993 2.993 0 0 1 1.512-.384c.952 0 1.652.316 2.1.948.448.624.592 1.48.432 2.568h-4.392c.088 1.336.824 2.004 2.208 2.004.76 0 1.46-.216 2.1-.648v.948c-.288.2-.624.36-1.008.48-.384.112-.78.168-1.188.168Zm-.276-5.532c-.456 0-.848.14-1.176.42-.328.28-.536.704-.624 1.272h3.348c.024-.536-.1-.952-.372-1.248-.272-.296-.664-.444-1.176-.444Zm3.469 4.38c.48.072.808-.228.984-.9.064-.24.116-.54.156-.9.04-.368.068-.824.084-1.368.016-.552.024-1.228.024-2.028h4.308V66h-1.068v-5.328h-2.244a32.147 32.147 0 0 1-.084 2.292 8.46 8.46 0 0 1-.204 1.428c-.152.6-.384 1.028-.696 1.284-.312.256-.732.368-1.26.336v-1.044ZM373.732 66h-5.484v-1.14a52.221 52.221 0 0 0 2.1-1.764c.552-.488.98-.912 1.284-1.272.312-.368.528-.708.648-1.02.128-.312.192-.628.192-.948 0-.496-.148-.884-.444-1.164-.296-.28-.704-.42-1.224-.42-.832 0-1.608.396-2.328 1.188v-1.212c.664-.648 1.452-.972 2.364-.972.864 0 1.544.224 2.04.672.504.44.756 1.04.756 1.8 0 .392-.064.768-.192 1.128-.12.352-.336.724-.648 1.116-.304.384-.724.816-1.26 1.296-.536.48-1.216 1.04-2.04 1.68h4.236V66Zm-70.969-39.88a5.828 5.828 0 0 1-1.548-.204c-.488-.136-.868-.316-1.14-.54v-1.08c.752.536 1.636.804 2.652.804.4 0 .764-.048 1.092-.144.328-.096.592-.256.792-.48.2-.232.3-.544.3-.936 0-.544-.176-.924-.528-1.14-.344-.224-.86-.336-1.548-.336h-1.236v-.96h1.212c.6 0 1.056-.128 1.368-.384.312-.264.468-.624.468-1.08 0-.496-.164-.844-.492-1.044-.328-.2-.76-.3-1.296-.3-.96 0-1.844.208-2.652.624v-1.068c.712-.376 1.6-.564 2.664-.564.896 0 1.608.184 2.136.552.528.368.792.944.792 1.728 0 .504-.152.924-.456 1.26-.296.328-.732.556-1.308.684.672.088 1.184.296 1.536.624.352.328.528.788.528 1.38 0 .608-.152 1.104-.456 1.488-.296.384-.696.668-1.2.852a5.07 5.07 0 0 1-1.68.264Zm7.374 0c-.568 0-1.08-.124-1.536-.372a2.784 2.784 0 0 1-1.068-1.104c-.264-.488-.396-1.076-.396-1.764s.132-1.272.396-1.752.62-.844 1.068-1.092a3.083 3.083 0 0 1 1.536-.384c.576 0 1.092.128 1.548.384a2.68 2.68 0 0 1 1.08 1.092c.264.48.396 1.064.396 1.752s-.132 1.276-.396 1.764a2.76 2.76 0 0 1-1.08 1.104 3.187 3.187 0 0 1-1.548.372Zm0-.948c.56 0 1.024-.184 1.392-.552.368-.376.552-.956.552-1.74s-.184-1.36-.552-1.728c-.368-.376-.832-.564-1.392-.564-.552 0-1.012.188-1.38.564-.36.368-.54.944-.54 1.728s.18 1.364.54 1.74c.368.368.828.552 1.38.552Zm5.367-5.4v2.568h3.012v-2.568h1.056V26h-1.056v-2.76h-3.012V26h-1.056v-6.228h1.056Zm7.911.816c-.664 0-1.336.204-2.016.612v-.948a3.804 3.804 0 0 1 1.02-.432 4.142 4.142 0 0 1 1.14-.168c.784 0 1.38.164 1.788.492.408.328.612.828.612 1.5v3.348c0 .136.004.312.012.528.016.208.032.368.048.48h-.96a5.482 5.482 0 0 1-.072-.468 7.173 7.173 0 0 1-.024-.54l-.012-.18a3.359 3.359 0 0 1-.396.6c-.168.2-.392.368-.672.504-.272.136-.612.204-1.02.204-.56 0-1.012-.16-1.356-.48-.344-.32-.516-.772-.516-1.356 0-.68.24-1.18.72-1.5.48-.32 1.156-.48 2.028-.48h1.164v-.516c0-.432-.112-.74-.336-.924-.224-.184-.608-.276-1.152-.276Zm1.488 3.012v-.456h-1.056c-.632 0-1.092.092-1.38.276-.28.184-.42.452-.42.804 0 .28.084.508.252.684.176.176.44.264.792.264.328 0 .608-.064.84-.192.232-.136.42-.296.564-.48.144-.192.248-.372.312-.54.064-.168.096-.288.096-.36Zm5.263 4.176h-.948V25.1h.588c.256-.256.436-.616.54-1.08.112-.464.18-1.044.204-1.74.024-.704.036-1.54.036-2.508h4.5V25.1h.936v2.676h-.924L334.966 26h-4.692l-.108 1.776Zm3.864-7.104h-2.46c-.008 1.136-.048 2.056-.12 2.76-.064.696-.228 1.252-.492 1.668h3.072v-4.428Zm5.533 5.448c-.568 0-1.08-.124-1.536-.372a2.784 2.784 0 0 1-1.068-1.104c-.264-.488-.396-1.076-.396-1.764s.132-1.272.396-1.752.62-.844 1.068-1.092a3.083 3.083 0 0 1 1.536-.384c.576 0 1.092.128 1.548.384a2.68 2.68 0 0 1 1.08 1.092c.264.48.396 1.064.396 1.752s-.132 1.276-.396 1.764a2.76 2.76 0 0 1-1.08 1.104 3.187 3.187 0 0 1-1.548.372Zm0-.948c.56 0 1.024-.184 1.392-.552.368-.376.552-.956.552-1.74s-.184-1.36-.552-1.728c-.368-.376-.832-.564-1.392-.564-.552 0-1.012.188-1.38.564-.36.368-.54.944-.54 1.728s.18 1.364.54 1.74c.368.368.828.552 1.38.552Zm6.999.948c-.968 0-1.732-.284-2.292-.852-.56-.576-.84-1.372-.84-2.388 0-1.016.284-1.808.852-2.376.568-.568 1.344-.852 2.328-.852.376 0 .728.044 1.056.132.328.08.592.2.792.36v.948a3.423 3.423 0 0 0-1.836-.504c-.72 0-1.252.192-1.596.576-.344.376-.516.948-.516 1.716s.164 1.344.492 1.728c.336.376.856.564 1.56.564.68 0 1.312-.164 1.896-.492v.948c-.52.328-1.152.492-1.896.492Zm2.808-6.348h5.004v.9h-1.992V26h-1.056v-5.328h-1.956v-.9Zm6.938 8.472c-.328 0-.6-.044-.816-.132v-1.02c.16.136.42.204.78.204.28 0 .516-.068.708-.204.2-.128.392-.352.576-.672l-2.532-6.648h1.164l1.98 5.256 1.968-5.256h1.02l-2.328 6.156c-.32.824-.676 1.416-1.068 1.776-.392.36-.876.54-1.452.54ZM362.202 26v-6.228h4.992V26h-1.056v-5.328h-2.88V26h-1.056Zm7.771-6.228v2.568h3.012v-2.568h1.056V26h-1.056v-2.76h-3.012V26h-1.056v-6.228h1.056Zm8.355 6.348c-.568 0-1.08-.124-1.536-.372a2.784 2.784 0 0 1-1.068-1.104c-.264-.488-.396-1.076-.396-1.764s.132-1.272.396-1.752.62-.844 1.068-1.092a3.083 3.083 0 0 1 1.536-.384c.576 0 1.092.128 1.548.384a2.68 2.68 0 0 1 1.08 1.092c.264.48.396 1.064.396 1.752s-.132 1.276-.396 1.764a2.76 2.76 0 0 1-1.08 1.104 3.187 3.187 0 0 1-1.548.372Zm0-.948c.56 0 1.024-.184 1.392-.552.368-.376.552-.956.552-1.74s-.184-1.36-.552-1.728c-.368-.376-.832-.564-1.392-.564-.552 0-1.012.188-1.38.564-.36.368-.54.944-.54 1.728s.18 1.364.54 1.74c.368.368.828.552 1.38.552Zm6.999.948c-.968 0-1.732-.284-2.292-.852-.56-.576-.84-1.372-.84-2.388 0-1.016.284-1.808.852-2.376.568-.568 1.344-.852 2.328-.852.376 0 .728.044 1.056.132.328.08.592.2.792.36v.948a3.423 3.423 0 0 0-1.836-.504c-.72 0-1.252.192-1.596.576-.344.376-.516.948-.516 1.716s.164 1.344.492 1.728c.336.376.856.564 1.56.564.68 0 1.312-.164 1.896-.492v.948c-.52.328-1.152.492-1.896.492Zm2.808-6.348h5.004v.9h-1.992V26h-1.056v-5.328h-1.956v-.9Zm7.279 0v4.764l3.204-4.764h1.068V26h-1.056v-4.752L395.438 26h-1.08v-6.228h1.056ZM254.076 382.396h5.016v1.032h-3.888V391h-1.128v-8.604Zm5.669 2.376h.924l.108 1.212c.2-.4.476-.72.828-.96.36-.248.8-.372 1.32-.372.488 0 .936.12 1.344.36.416.232.752.588 1.008 1.068.256.472.384 1.072.384 1.8s-.132 1.332-.396 1.812c-.256.48-.596.84-1.02 1.08a2.761 2.761 0 0 1-1.368.348c-.472 0-.884-.112-1.236-.336a2.408 2.408 0 0 1-.84-.924v3.264h-1.056v-8.352Zm4.824 3.108c0-.752-.172-1.32-.516-1.704-.344-.392-.788-.588-1.332-.588s-1.004.192-1.38.576c-.368.376-.552.948-.552 1.716 0 .776.184 1.352.552 1.728.376.376.836.564 1.38.564.544 0 .988-.192 1.332-.576.344-.384.516-.956.516-1.716Zm2.853 5.364c-.328 0-.6-.044-.816-.132v-1.02c.16.136.42.204.78.204.28 0 .516-.068.708-.204.2-.128.392-.352.576-.672l-2.532-6.648h1.164l1.98 5.256 1.968-5.256h1.02l-2.328 6.156c-.32.824-.676 1.416-1.068 1.776-.392.36-.876.54-1.452.54Zm5.893-2.244v-6.228h4.992V391h-1.056v-5.328h-2.88V391h-1.056Zm6.715 0v-6.228h4.992V391h-1.056v-5.328h-2.88V391h-1.056Zm8.827-5.412c-.664 0-1.336.204-2.016.612v-.948a3.804 3.804 0 0 1 1.02-.432 4.142 4.142 0 0 1 1.14-.168c.784 0 1.38.164 1.788.492.408.328.612.828.612 1.5v3.348c0 .136.004.312.012.528.016.208.032.368.048.48h-.96a5.482 5.482 0 0 1-.072-.468 7.173 7.173 0 0 1-.024-.54l-.012-.18a3.359 3.359 0 0 1-.396.6c-.168.2-.392.368-.672.504-.272.136-.612.204-1.02.204-.56 0-1.012-.16-1.356-.48-.344-.32-.516-.772-.516-1.356 0-.68.24-1.18.72-1.5.48-.32 1.156-.48 2.028-.48h1.164v-.516c0-.432-.112-.74-.336-.924-.224-.184-.608-.276-1.152-.276Zm1.488 3.012v-.456h-1.056c-.632 0-1.092.092-1.38.276-.28.184-.42.452-.42.804 0 .28.084.508.252.684.176.176.44.264.792.264.328 0 .608-.064.84-.192.232-.136.42-.296.564-.48.144-.192.248-.372.312-.54.064-.168.096-.288.096-.36Zm7.807 2.52c-.968 0-1.732-.284-2.292-.852-.56-.576-.84-1.372-.84-2.388 0-1.016.284-1.808.852-2.376.568-.568 1.344-.852 2.328-.852.376 0 .728.044 1.056.132.328.08.592.2.792.36v.948a3.423 3.423 0 0 0-1.836-.504c-.72 0-1.252.192-1.596.576-.344.376-.516.948-.516 1.716s.164 1.344.492 1.728c.336.376.856.564 1.56.564.68 0 1.312-.164 1.896-.492v.948c-.52.328-1.152.492-1.896.492Zm5.714-6.348h.924l.108 1.212c.2-.4.476-.72.828-.96.36-.248.8-.372 1.32-.372.488 0 .936.12 1.344.36.416.232.752.588 1.008 1.068.256.472.384 1.072.384 1.8s-.132 1.332-.396 1.812c-.256.48-.596.84-1.02 1.08a2.761 2.761 0 0 1-1.368.348c-.472 0-.884-.112-1.236-.336a2.408 2.408 0 0 1-.84-.924v3.264h-1.056v-8.352Zm4.824 3.108c0-.752-.172-1.32-.516-1.704-.344-.392-.788-.588-1.332-.588s-1.004.192-1.38.576c-.368.376-.552.948-.552 1.716 0 .776.184 1.352.552 1.728.376.376.836.564 1.38.564.544 0 .988-.192 1.332-.576.344-.384.516-.956.516-1.716Zm4.425-2.292c-.664 0-1.336.204-2.016.612v-.948a3.804 3.804 0 0 1 1.02-.432 4.142 4.142 0 0 1 1.14-.168c.784 0 1.38.164 1.788.492.408.328.612.828.612 1.5v3.348c0 .136.004.312.012.528.016.208.032.368.048.48h-.96a5.482 5.482 0 0 1-.072-.468 7.173 7.173 0 0 1-.024-.54l-.012-.18a3.359 3.359 0 0 1-.396.6c-.168.2-.392.368-.672.504-.272.136-.612.204-1.02.204-.56 0-1.012-.16-1.356-.48-.344-.32-.516-.772-.516-1.356 0-.68.24-1.18.72-1.5.48-.32 1.156-.48 2.028-.48h1.164v-.516c0-.432-.112-.74-.336-.924-.224-.184-.608-.276-1.152-.276Zm1.488 3.012v-.456h-1.056c-.632 0-1.092.092-1.38.276-.28.184-.42.452-.42.804 0 .28.084.508.252.684.176.176.44.264.792.264.328 0 .608-.064.84-.192.232-.136.42-.296.564-.48.144-.192.248-.372.312-.54.064-.168.096-.288.096-.36Zm4.528 2.52c-.392 0-.772-.044-1.14-.132a2.854 2.854 0 0 1-.888-.36v-.948c.256.152.56.272.912.36.352.088.716.132 1.092.132.456 0 .836-.072 1.14-.216.312-.152.468-.408.468-.768 0-.352-.132-.6-.396-.744-.256-.144-.652-.216-1.188-.216h-.828v-.852h.864c.44 0 .776-.08 1.008-.24.232-.16.348-.392.348-.696 0-.32-.14-.54-.42-.66-.272-.128-.604-.192-.996-.192-.704 0-1.332.168-1.884.504v-.948c.24-.16.532-.28.876-.36a4.485 4.485 0 0 1 1.092-.132c.76 0 1.332.144 1.716.432.392.288.588.704.588 1.248 0 .408-.112.732-.336.972-.224.232-.532.388-.924.468.488.064.86.22 1.116.468.256.248.384.564.384.948 0 .464-.124.84-.372 1.128-.24.28-.556.484-.948.612-.392.128-.82.192-1.284.192Zm4.153-6.348h1.572l1.908 4.176 2.04-4.176h1.464V391h-1.044v-5.004l-2.112 4.308h-.84l-1.992-4.332V391h-.996v-6.228Zm11.467 6.348c-1.04 0-1.836-.284-2.388-.852-.544-.576-.816-1.372-.816-2.388 0-.68.128-1.26.384-1.74s.608-.848 1.056-1.104a2.993 2.993 0 0 1 1.512-.384c.952 0 1.652.316 2.1.948.448.624.592 1.48.432 2.568h-4.392c.088 1.336.824 2.004 2.208 2.004.76 0 1.46-.216 2.1-.648v.948c-.288.2-.624.36-1.008.48-.384.112-.78.168-1.188.168Zm-.276-5.532c-.456 0-.848.14-1.176.42-.328.28-.536.704-.624 1.272h3.348c.024-.536-.1-.952-.372-1.248-.272-.296-.664-.444-1.176-.444Zm11.785 7.188-.132-1.776h-7.68v-6.228h1.056v5.328h2.304v-5.328h1.056v5.328h2.304v-5.328h1.056v5.328h.936v2.676h-.9Zm4.651-1.656c-1.04 0-1.836-.284-2.388-.852-.544-.576-.816-1.372-.816-2.388 0-.68.128-1.26.384-1.74s.608-.848 1.056-1.104a2.993 2.993 0 0 1 1.512-.384c.952 0 1.652.316 2.1.948.448.624.592 1.48.432 2.568h-4.392c.088 1.336.824 2.004 2.208 2.004.76 0 1.46-.216 2.1-.648v.948c-.288.2-.624.36-1.008.48-.384.112-.78.168-1.188.168Zm-.276-5.532c-.456 0-.848.14-1.176.42-.328.28-.536.704-.624 1.272h3.348c.024-.536-.1-.952-.372-1.248-.272-.296-.664-.444-1.176-.444Zm5.029-.816v2.568h3.012v-2.568h1.056V391h-1.056v-2.76h-3.012V391h-1.056v-6.228h1.056Zm6.856 0v4.764l3.204-4.764h1.068V391h-1.056v-4.752L362.544 391h-1.08v-6.228h1.056Zm8.758 6.348c-1.04 0-1.836-.284-2.388-.852-.544-.576-.816-1.372-.816-2.388 0-.68.128-1.26.384-1.74s.608-.848 1.056-1.104a2.993 2.993 0 0 1 1.512-.384c.952 0 1.652.316 2.1.948.448.624.592 1.48.432 2.568h-4.392c.088 1.336.824 2.004 2.208 2.004.76 0 1.46-.216 2.1-.648v.948c-.288.2-.624.36-1.008.48-.384.112-.78.168-1.188.168Zm-.276-5.532c-.456 0-.848.14-1.176.42-.328.28-.536.704-.624 1.272h3.348c.024-.536-.1-.952-.372-1.248-.272-.296-.664-.444-1.176-.444Zm3.973-.816h1.572l1.908 4.176 2.04-4.176h1.464V391h-1.044v-5.004l-2.112 4.308h-.84l-1.992-4.332V391h-.996v-6.228Zm11.11 0h.924l.108 1.212c.2-.4.476-.72.828-.96.36-.248.8-.372 1.32-.372.488 0 .936.12 1.344.36.416.232.752.588 1.008 1.068.256.472.384 1.072.384 1.8s-.132 1.332-.396 1.812c-.256.48-.596.84-1.02 1.08a2.761 2.761 0 0 1-1.368.348c-.472 0-.884-.112-1.236-.336a2.408 2.408 0 0 1-.84-.924v3.264h-1.056v-8.352Zm4.824 3.108c0-.752-.172-1.32-.516-1.704-.344-.392-.788-.588-1.332-.588s-1.004.192-1.38.576c-.368.376-.552.948-.552 1.716 0 .776.184 1.352.552 1.728.376.376.836.564 1.38.564.544 0 .988-.192 1.332-.576.344-.384.516-.956.516-1.716Zm4.424-2.292c-.664 0-1.336.204-2.016.612v-.948a3.804 3.804 0 0 1 1.02-.432 4.142 4.142 0 0 1 1.14-.168c.784 0 1.38.164 1.788.492.408.328.612.828.612 1.5v3.348c0 .136.004.312.012.528.016.208.032.368.048.48h-.96a5.482 5.482 0 0 1-.072-.468 7.173 7.173 0 0 1-.024-.54l-.012-.18a3.359 3.359 0 0 1-.396.6c-.168.2-.392.368-.672.504-.272.136-.612.204-1.02.204-.56 0-1.012-.16-1.356-.48-.344-.32-.516-.772-.516-1.356 0-.68.24-1.18.72-1.5.48-.32 1.156-.48 2.028-.48h1.164v-.516c0-.432-.112-.74-.336-.924-.224-.184-.608-.276-1.152-.276Zm1.488 3.012v-.456h-1.056c-.632 0-1.092.092-1.38.276-.28.184-.42.452-.42.804 0 .28.084.508.252.684.176.176.44.264.792.264.328 0 .608-.064.84-.192.232-.136.42-.296.564-.48.144-.192.248-.372.312-.54.064-.168.096-.288.096-.36Zm4.529 2.52c-.392 0-.772-.044-1.14-.132a2.854 2.854 0 0 1-.888-.36v-.948c.256.152.56.272.912.36.352.088.716.132 1.092.132.456 0 .836-.072 1.14-.216.312-.152.468-.408.468-.768 0-.352-.132-.6-.396-.744-.256-.144-.652-.216-1.188-.216h-.828v-.852h.864c.44 0 .776-.08 1.008-.24.232-.16.348-.392.348-.696 0-.32-.14-.54-.42-.66-.272-.128-.604-.192-.996-.192-.704 0-1.332.168-1.884.504v-.948c.24-.16.532-.28.876-.36a4.485 4.485 0 0 1 1.092-.132c.76 0 1.332.144 1.716.432.392.288.588.704.588 1.248 0 .408-.112.732-.336.972-.224.232-.532.388-.924.468.488.064.86.22 1.116.468.256.248.384.564.384.948 0 .464-.124.84-.372 1.128-.24.28-.556.484-.948.612-.392.128-.82.192-1.284.192Zm4.297 1.656h-.948V390.1h.588c.256-.256.436-.616.54-1.08.112-.464.18-1.044.204-1.74.024-.704.036-1.54.036-2.508h4.5v5.328h.936v2.676h-.924l-.132-1.776h-4.692l-.108 1.776Zm3.864-7.104h-2.46c-.008 1.136-.048 2.056-.12 2.76-.064.696-.228 1.252-.492 1.668h3.072v-4.428Zm5.736 5.448c-1.04 0-1.836-.284-2.388-.852-.544-.576-.816-1.372-.816-2.388 0-.68.128-1.26.384-1.74s.608-.848 1.056-1.104a2.993 2.993 0 0 1 1.512-.384c.952 0 1.652.316 2.1.948.448.624.592 1.48.432 2.568h-4.392c.088 1.336.824 2.004 2.208 2.004.76 0 1.46-.216 2.1-.648v.948c-.288.2-.624.36-1.008.48-.384.112-.78.168-1.188.168Zm-.276-5.532c-.456 0-.848.14-1.176.42-.328.28-.536.704-.624 1.272h3.348c.024-.536-.1-.952-.372-1.248-.272-.296-.664-.444-1.176-.444Zm3.469 4.38c.48.072.808-.228.984-.9.064-.24.116-.54.156-.9.04-.368.068-.824.084-1.368.016-.552.024-1.228.024-2.028h4.308V391h-1.068v-5.328h-2.244a32.147 32.147 0 0 1-.084 2.292 8.46 8.46 0 0 1-.204 1.428c-.152.6-.384 1.028-.696 1.284-.312.256-.732.368-1.26.336v-1.044Zm9.39-4.38c-.664 0-1.336.204-2.016.612v-.948a3.804 3.804 0 0 1 1.02-.432 4.142 4.142 0 0 1 1.14-.168c.784 0 1.38.164 1.788.492.408.328.612.828.612 1.5v3.348c0 .136.004.312.012.528.016.208.032.368.048.48h-.96a5.482 5.482 0 0 1-.072-.468 7.173 7.173 0 0 1-.024-.54l-.012-.18a3.359 3.359 0 0 1-.396.6c-.168.2-.392.368-.672.504-.272.136-.612.204-1.02.204-.56 0-1.012-.16-1.356-.48-.344-.32-.516-.772-.516-1.356 0-.68.24-1.18.72-1.5.48-.32 1.156-.48 2.028-.48h1.164v-.516c0-.432-.112-.74-.336-.924-.224-.184-.608-.276-1.152-.276Zm1.488 3.012v-.456h-1.056c-.632 0-1.092.092-1.38.276-.28.184-.42.452-.42.804 0 .28.084.508.252.684.176.176.44.264.792.264.328 0 .608-.064.84-.192.232-.136.42-.296.564-.48.144-.192.248-.372.312-.54.064-.168.096-.288.096-.36Zm2.716-3.828h1.572l1.908 4.176 2.04-4.176h1.464V391h-1.044v-5.004l-2.112 4.308h-.84l-1.992-4.332V391h-.996v-6.228Zm9.763 0v4.764l3.204-4.764h1.068V391h-1.056v-4.752L441.821 391h-1.08v-6.228h1.056Z"/>
    <rect width="94" height="142" x="575" y="83" fill="#fff" stroke="#5282FF" stroke-width="2" rx="9"/>
    <path fill="#000" fill-opacity=".85" d="M602.342 106.12c-.848 0-1.592-.176-2.232-.528a3.683 3.683 0 0 1-1.476-1.512c-.352-.664-.528-1.456-.528-2.376 0-1.384.364-2.464 1.092-3.24.728-.784 1.768-1.176 3.12-1.176.504 0 .984.056 1.44.168a3.76 3.76 0 0 1 1.176.456v1.08a4.28 4.28 0 0 0-1.212-.504 5.54 5.54 0 0 0-1.416-.18c-1.008 0-1.756.284-2.244.852-.488.568-.732 1.416-.732 2.544 0 1.136.264 1.988.792 2.556.528.56 1.3.84 2.316.84.96 0 1.792-.264 2.496-.792v1.08c-.28.224-.652.404-1.116.54a5.528 5.528 0 0 1-1.476.192Zm3.553-6.348h5.004v.9h-1.992V106h-1.056v-5.328h-1.956v-.9Zm8.603 6.348c-.568 0-1.08-.124-1.536-.372a2.784 2.784 0 0 1-1.068-1.104c-.264-.488-.396-1.076-.396-1.764s.132-1.272.396-1.752.62-.844 1.068-1.092a3.083 3.083 0 0 1 1.536-.384c.576 0 1.092.128 1.548.384a2.68 2.68 0 0 1 1.08 1.092c.264.48.396 1.064.396 1.752s-.132 1.276-.396 1.764a2.76 2.76 0 0 1-1.08 1.104 3.187 3.187 0 0 1-1.548.372Zm0-.948c.56 0 1.024-.184 1.392-.552.368-.376.552-.956.552-1.74s-.184-1.36-.552-1.728c-.368-.376-.832-.564-1.392-.564-.552 0-1.012.188-1.38.564-.36.368-.54.944-.54 1.728s.18 1.364.54 1.74c.368.368.828.552 1.38.552Zm6.999-6.228c-.632 0-1.104-.156-1.416-.468a1.606 1.606 0 0 1-.468-1.164h1.056c0 .304.072.524.216.66.152.136.356.204.612.204s.456-.068.6-.204c.144-.136.216-.356.216-.66h1.056c0 .456-.156.844-.468 1.164-.304.312-.772.468-1.404.468Zm-1.632.828v4.764l3.204-4.764h1.068V106h-1.056v-4.752L619.889 106h-1.08v-6.228h1.056ZM630.952 106h-1.284l-2.196-2.652h-.552V106h-1.056v-6.228h1.056v2.676h.6l2.184-2.676h1.2l-2.556 3.072 2.604 3.156Zm3.106-5.412c-.664 0-1.336.204-2.016.612v-.948a3.804 3.804 0 0 1 1.02-.432 4.142 4.142 0 0 1 1.14-.168c.784 0 1.38.164 1.788.492.408.328.612.828.612 1.5v3.348c0 .136.004.312.012.528.016.208.032.368.048.48h-.96a5.482 5.482 0 0 1-.072-.468 7.173 7.173 0 0 1-.024-.54l-.012-.18a3.359 3.359 0 0 1-.396.6c-.168.2-.392.368-.672.504-.272.136-.612.204-1.02.204-.56 0-1.012-.16-1.356-.48-.344-.32-.516-.772-.516-1.356 0-.68.24-1.18.72-1.5.48-.32 1.156-.48 2.028-.48h1.164v-.516c0-.432-.112-.74-.336-.924-.224-.184-.608-.276-1.152-.276Zm1.488 3.012v-.456h-1.056c-.632 0-1.092.092-1.38.276-.28.184-.42.452-.42.804 0 .28.084.508.252.684.176.176.44.264.792.264.328 0 .608-.064.84-.192.232-.136.42-.296.564-.48.144-.192.248-.372.312-.54.064-.168.096-.288.096-.36Zm7.183 2.52c-.96 0-1.724-.204-2.292-.612v-1.176c.336.272.688.476 1.056.612.368.128.78.192 1.236.192.592 0 1.048-.18 1.368-.54.328-.36.492-.832.492-1.416 0-.624-.16-1.08-.48-1.368-.32-.288-.724-.432-1.212-.432-.352 0-.636.06-.852.18-.216.112-.38.232-.492.36h-.876v-4.524h4.656v1.032h-3.672v2.46c.16-.12.356-.224.588-.312a2.16 2.16 0 0 1 .828-.144c.496 0 .944.104 1.344.312.4.2.716.504.948.912.24.4.36.9.36 1.5 0 .592-.124 1.112-.372 1.56-.24.448-.584.796-1.032 1.044-.448.24-.98.36-1.596.36Z"/>
    <rect width="70" height="40" x="587" y="122" fill="#E3EBFF" rx="10"/>
    <path fill="#000" fill-opacity=".85" d="M606.086 137.396h2.916c.944 0 1.66.16 2.148.48.496.32.744.86.744 1.62 0 .616-.156 1.084-.468 1.404-.312.312-.728.524-1.248.636.664.08 1.168.276 1.512.588.344.304.516.768.516 1.392 0 .592-.14 1.072-.42 1.44-.28.368-.664.636-1.152.804-.488.16-1.04.24-1.656.24h-2.892v-8.604Zm2.832 3.672c.544 0 .984-.12 1.32-.36.344-.248.516-.632.516-1.152 0-.44-.152-.736-.456-.888-.304-.16-.736-.24-1.296-.24h-1.788v2.64h1.704Zm.06 3.912c.608 0 1.1-.104 1.476-.312.376-.208.564-.584.564-1.128 0-.544-.176-.92-.528-1.128-.344-.216-.892-.324-1.644-.324h-1.632v2.892h1.764Zm9.007-.288h-.504l.012-.012-2.604-5.7V146h-1.068v-8.604h1.572l2.676 6.036 2.796-6.036h1.464V146h-1.14v-6.924l-2.64 5.604-.564.012ZM630.191 146h-1.092v-7.248l-2.376 1.824v-1.212l2.556-1.968h.912V146Zm5.457.12a2.439 2.439 0 0 1-1.464-.468c-.432-.312-.772-.792-1.02-1.44-.24-.656-.36-1.496-.36-2.52 0-1.032.12-1.872.36-2.52.248-.648.588-1.124 1.02-1.428.432-.304.92-.456 1.464-.456a2.43 2.43 0 0 1 1.452.456c.424.304.756.78.996 1.428.24.64.36 1.472.36 2.496 0 1.016-.12 1.856-.36 2.52-.24.656-.572 1.144-.996 1.464a2.387 2.387 0 0 1-1.452.468Zm-.012-.948c.36 0 .664-.108.912-.324.256-.224.448-.588.576-1.092.136-.512.204-1.196.204-2.052 0-.856-.064-1.536-.192-2.04-.128-.512-.32-.876-.576-1.092a1.311 1.311 0 0 0-.912-.336c-.36 0-.668.112-.924.336-.256.216-.452.58-.588 1.092-.136.504-.204 1.184-.204 2.04 0 .856.064 1.54.192 2.052.136.504.332.868.588 1.092.256.216.564.324.924.324Z"/>
    <rect width="70" height="40" x="587" y="172" fill="#E3EBFF" rx="10"/>
    <path fill="#000" fill-opacity=".85" d="M606.086 187.396h2.916c.944 0 1.66.16 2.148.48.496.32.744.86.744 1.62 0 .616-.156 1.084-.468 1.404-.312.312-.728.524-1.248.636.664.08 1.168.276 1.512.588.344.304.516.768.516 1.392 0 .592-.14 1.072-.42 1.44-.28.368-.664.636-1.152.804-.488.16-1.04.24-1.656.24h-2.892v-8.604Zm2.832 3.672c.544 0 .984-.12 1.32-.36.344-.248.516-.632.516-1.152 0-.44-.152-.736-.456-.888-.304-.16-.736-.24-1.296-.24h-1.788v2.64h1.704Zm.06 3.912c.608 0 1.1-.104 1.476-.312.376-.208.564-.584.564-1.128 0-.544-.176-.92-.528-1.128-.344-.216-.892-.324-1.644-.324h-1.632v2.892h1.764Zm9.007-.288h-.504l.012-.012-2.604-5.7V196h-1.068v-8.604h1.572l2.676 6.036 2.796-6.036h1.464V196h-1.14v-6.924l-2.64 5.604-.564.012ZM630.191 196h-1.092v-7.248l-2.376 1.824v-1.212l2.556-1.968h.912V196Zm6.597 0h-1.092v-7.248l-2.376 1.824v-1.212l2.556-1.968h.912V196Z"/>
    <rect width="94" height="192" x="31" y="83" fill="#fff" stroke="#5282FF" stroke-width="2" rx="9"/>
    <path fill="#000" fill-opacity=".85" d="M58.342 106.12c-.848 0-1.592-.176-2.232-.528a3.683 3.683 0 0 1-1.476-1.512c-.352-.664-.528-1.456-.528-2.376 0-1.384.364-2.464 1.092-3.24.728-.784 1.768-1.176 3.12-1.176.504 0 .984.056 1.44.168a3.76 3.76 0 0 1 1.176.456v1.08a4.28 4.28 0 0 0-1.212-.504 5.54 5.54 0 0 0-1.416-.18c-1.008 0-1.756.284-2.244.852-.488.568-.732 1.416-.732 2.544 0 1.136.264 1.988.792 2.556.528.56 1.3.84 2.316.84.96 0 1.792-.264 2.496-.792v1.08c-.28.224-.652.404-1.116.54a5.528 5.528 0 0 1-1.476.192Zm3.553-6.348H66.9v.9h-1.992V106h-1.056v-5.328h-1.956v-.9Zm8.603 6.348c-.568 0-1.08-.124-1.536-.372a2.784 2.784 0 0 1-1.068-1.104c-.264-.488-.396-1.076-.396-1.764s.132-1.272.396-1.752.62-.844 1.068-1.092a3.083 3.083 0 0 1 1.536-.384c.576 0 1.092.128 1.548.384a2.68 2.68 0 0 1 1.08 1.092c.264.48.396 1.064.396 1.752s-.132 1.276-.396 1.764a2.76 2.76 0 0 1-1.08 1.104 3.187 3.187 0 0 1-1.548.372Zm0-.948c.56 0 1.024-.184 1.392-.552.368-.376.552-.956.552-1.74s-.184-1.36-.552-1.728c-.368-.376-.832-.564-1.392-.564-.552 0-1.012.188-1.38.564-.36.368-.54.944-.54 1.728s.18 1.364.54 1.74c.368.368.828.552 1.38.552Zm7-6.228c-.633 0-1.105-.156-1.417-.468a1.606 1.606 0 0 1-.468-1.164h1.056c0 .304.072.524.216.66.152.136.356.204.612.204s.456-.068.6-.204c.144-.136.216-.356.216-.66h1.056c0 .456-.156.844-.468 1.164-.304.312-.772.468-1.404.468Zm-1.633.828v4.764l3.204-4.764h1.068V106h-1.056v-4.752L75.89 106h-1.08v-6.228h1.056ZM86.952 106h-1.284l-2.196-2.652h-.552V106h-1.056v-6.228h1.056v2.676h.6l2.184-2.676h1.2l-2.556 3.072L86.952 106Zm3.106-5.412c-.664 0-1.336.204-2.016.612v-.948a3.804 3.804 0 0 1 1.02-.432 4.142 4.142 0 0 1 1.14-.168c.784 0 1.38.164 1.788.492.408.328.612.828.612 1.5v3.348c0 .136.004.312.012.528.016.208.032.368.048.48h-.96a5.482 5.482 0 0 1-.072-.468 7.173 7.173 0 0 1-.024-.54l-.012-.18a3.359 3.359 0 0 1-.396.6c-.168.2-.392.368-.672.504-.272.136-.612.204-1.02.204-.56 0-1.012-.16-1.356-.48-.344-.32-.516-.772-.516-1.356 0-.68.24-1.18.72-1.5.48-.32 1.156-.48 2.028-.48h1.164v-.516c0-.432-.112-.74-.336-.924-.224-.184-.608-.276-1.152-.276Zm1.488 3.012v-.456H90.49c-.632 0-1.092.092-1.38.276-.28.184-.42.452-.42.804 0 .28.084.508.252.684.176.176.44.264.792.264.328 0 .608-.064.84-.192.232-.136.42-.296.564-.48.144-.192.248-.372.312-.54.064-.168.096-.288.096-.36Zm8.719 2.4h-1.092v-7.248l-2.376 1.824v-1.212l2.556-1.968h.912V106Z"/>
    <rect width="70" height="40" x="43" y="122" fill="#E3EBFF" rx="10"/>
    <path fill="#000" fill-opacity=".85" d="M65.385 137.396h2.916c.944 0 1.66.16 2.148.48.496.32.744.86.744 1.62 0 .616-.156 1.084-.468 1.404-.312.312-.728.524-1.248.636.664.08 1.168.276 1.512.588.344.304.516.768.516 1.392 0 .592-.14 1.072-.42 1.44-.28.368-.664.636-1.152.804-.488.16-1.04.24-1.656.24h-2.892v-8.604Zm2.832 3.672c.544 0 .984-.12 1.32-.36.344-.248.516-.632.516-1.152 0-.44-.152-.736-.456-.888-.304-.16-.736-.24-1.296-.24h-1.788v2.64h1.704Zm.06 3.912c.608 0 1.1-.104 1.476-.312.376-.208.564-.584.564-1.128 0-.544-.176-.92-.528-1.128-.344-.216-.892-.324-1.644-.324h-1.632v2.892h1.764Zm9.006-.288h-.504l.012-.012-2.604-5.7V146H73.12v-8.604h1.572l2.676 6.036 2.796-6.036h1.464V146h-1.14v-6.924l-2.64 5.604-.564.012ZM89.49 146h-1.092v-7.248l-2.376 1.824v-1.212l2.556-1.968h.912V146Z"/>
    <rect width="70" height="40" x="43" y="172" fill="#E3EBFF" rx="10"/>
    <path fill="#000" fill-opacity=".85" d="M65.385 187.396h2.916c.944 0 1.66.16 2.148.48.496.32.744.86.744 1.62 0 .616-.156 1.084-.468 1.404-.312.312-.728.524-1.248.636.664.08 1.168.276 1.512.588.344.304.516.768.516 1.392 0 .592-.14 1.072-.42 1.44-.28.368-.664.636-1.152.804-.488.16-1.04.24-1.656.24h-2.892v-8.604Zm2.832 3.672c.544 0 .984-.12 1.32-.36.344-.248.516-.632.516-1.152 0-.44-.152-.736-.456-.888-.304-.16-.736-.24-1.296-.24h-1.788v2.64h1.704Zm.06 3.912c.608 0 1.1-.104 1.476-.312.376-.208.564-.584.564-1.128 0-.544-.176-.92-.528-1.128-.344-.216-.892-.324-1.644-.324h-1.632v2.892h1.764Zm9.006-.288h-.504l.012-.012-2.604-5.7V196H73.12v-8.604h1.572l2.676 6.036 2.796-6.036h1.464V196h-1.14v-6.924l-2.64 5.604-.564.012ZM91.097 196h-5.484v-1.14a52.221 52.221 0 0 0 2.1-1.764c.552-.488.98-.912 1.284-1.272.312-.368.528-.708.648-1.02.128-.312.192-.628.192-.948 0-.496-.148-.884-.444-1.164-.296-.28-.704-.42-1.224-.42-.832 0-1.608.396-2.328 1.188v-1.212c.664-.648 1.452-.972 2.364-.972.864 0 1.544.224 2.04.672.504.44.756 1.04.756 1.8 0 .392-.064.768-.192 1.128-.12.352-.336.724-.648 1.116-.304.384-.724.816-1.26 1.296-.536.48-1.216 1.04-2.04 1.68h4.236V196Z"/>
    <rect width="70" height="40" x="43" y="222" fill="#E3EBFF" rx="10"/>
    <path fill="#000" fill-opacity=".85" d="M65.385 237.396h2.916c.944 0 1.66.16 2.148.48.496.32.744.86.744 1.62 0 .616-.156 1.084-.468 1.404-.312.312-.728.524-1.248.636.664.08 1.168.276 1.512.588.344.304.516.768.516 1.392 0 .592-.14 1.072-.42 1.44-.28.368-.664.636-1.152.804-.488.16-1.04.24-1.656.24h-2.892v-8.604Zm2.832 3.672c.544 0 .984-.12 1.32-.36.344-.248.516-.632.516-1.152 0-.44-.152-.736-.456-.888-.304-.16-.736-.24-1.296-.24h-1.788v2.64h1.704Zm.06 3.912c.608 0 1.1-.104 1.476-.312.376-.208.564-.584.564-1.128 0-.544-.176-.92-.528-1.128-.344-.216-.892-.324-1.644-.324h-1.632v2.892h1.764Zm9.006-.288h-.504l.012-.012-2.604-5.7V246H73.12v-8.604h1.572l2.676 6.036 2.796-6.036h1.464V246h-1.14v-6.924l-2.64 5.604-.564.012Zm9.734-2.676v-1.02h1.152c.448 0 .812-.12 1.092-.36.288-.248.432-.596.432-1.044 0-.408-.132-.728-.396-.96-.264-.24-.644-.36-1.14-.36a3.05 3.05 0 0 0-1.176.228c-.36.152-.736.396-1.128.732v-1.176c.64-.52 1.412-.78 2.316-.78.824 0 1.468.208 1.932.624.472.416.708.96.708 1.632 0 .544-.152.976-.456 1.296-.296.32-.652.532-1.068.636.336.048.644.164.924.348.288.176.52.408.696.696.176.288.264.624.264 1.008 0 .528-.132.988-.396 1.38a2.611 2.611 0 0 1-1.092.912c-.456.208-.988.312-1.596.312-1.056 0-1.872-.244-2.448-.732v-1.2c.304.296.672.528 1.104.696.432.168.884.252 1.356.252.592 0 1.056-.14 1.392-.42.344-.288.516-.68.516-1.176 0-.48-.156-.852-.468-1.116-.304-.272-.776-.408-1.416-.408h-1.104Z"/>
    <rect width="94" height="192" x="439" y="83" fill="#fff" stroke="#5282FF" stroke-width="2" rx="9"/>
    <path fill="#000" fill-opacity=".85" d="M466.342 106.12c-.848 0-1.592-.176-2.232-.528a3.683 3.683 0 0 1-1.476-1.512c-.352-.664-.528-1.456-.528-2.376 0-1.384.364-2.464 1.092-3.24.728-.784 1.768-1.176 3.12-1.176.504 0 .984.056 1.44.168a3.76 3.76 0 0 1 1.176.456v1.08a4.28 4.28 0 0 0-1.212-.504 5.54 5.54 0 0 0-1.416-.18c-1.008 0-1.756.284-2.244.852-.488.568-.732 1.416-.732 2.544 0 1.136.264 1.988.792 2.556.528.56 1.3.84 2.316.84.96 0 1.792-.264 2.496-.792v1.08c-.28.224-.652.404-1.116.54a5.528 5.528 0 0 1-1.476.192Zm3.553-6.348h5.004v.9h-1.992V106h-1.056v-5.328h-1.956v-.9Zm8.603 6.348c-.568 0-1.08-.124-1.536-.372a2.784 2.784 0 0 1-1.068-1.104c-.264-.488-.396-1.076-.396-1.764s.132-1.272.396-1.752.62-.844 1.068-1.092a3.083 3.083 0 0 1 1.536-.384c.576 0 1.092.128 1.548.384a2.68 2.68 0 0 1 1.08 1.092c.264.48.396 1.064.396 1.752s-.132 1.276-.396 1.764a2.76 2.76 0 0 1-1.08 1.104 3.187 3.187 0 0 1-1.548.372Zm0-.948c.56 0 1.024-.184 1.392-.552.368-.376.552-.956.552-1.74s-.184-1.36-.552-1.728c-.368-.376-.832-.564-1.392-.564-.552 0-1.012.188-1.38.564-.36.368-.54.944-.54 1.728s.18 1.364.54 1.74c.368.368.828.552 1.38.552Zm6.999-6.228c-.632 0-1.104-.156-1.416-.468a1.606 1.606 0 0 1-.468-1.164h1.056c0 .304.072.524.216.66.152.136.356.204.612.204s.456-.068.6-.204c.144-.136.216-.356.216-.66h1.056c0 .456-.156.844-.468 1.164-.304.312-.772.468-1.404.468Zm-1.632.828v4.764l3.204-4.764h1.068V106h-1.056v-4.752L483.889 106h-1.08v-6.228h1.056ZM494.952 106h-1.284l-2.196-2.652h-.552V106h-1.056v-6.228h1.056v2.676h.6l2.184-2.676h1.2l-2.556 3.072 2.604 3.156Zm3.106-5.412c-.664 0-1.336.204-2.016.612v-.948a3.804 3.804 0 0 1 1.02-.432 4.142 4.142 0 0 1 1.14-.168c.784 0 1.38.164 1.788.492.408.328.612.828.612 1.5v3.348c0 .136.004.312.012.528.016.208.032.368.048.48h-.96a5.482 5.482 0 0 1-.072-.468 7.173 7.173 0 0 1-.024-.54l-.012-.18a3.359 3.359 0 0 1-.396.6c-.168.2-.392.368-.672.504-.272.136-.612.204-1.02.204-.56 0-1.012-.16-1.356-.48-.344-.32-.516-.772-.516-1.356 0-.68.24-1.18.72-1.5.48-.32 1.156-.48 2.028-.48h1.164v-.516c0-.432-.112-.74-.336-.924-.224-.184-.608-.276-1.152-.276Zm1.488 3.012v-.456h-1.056c-.632 0-1.092.092-1.38.276-.28.184-.42.452-.42.804 0 .28.084.508.252.684.176.176.44.264.792.264.328 0 .608-.064.84-.192.232-.136.42-.296.564-.48.144-.192.248-.372.312-.54.064-.168.096-.288.096-.36Zm9.355 2.4h-1.056v-2.04h-3.72v-.744l3.36-5.82h1.416v5.652h1.164v.912h-1.164V106Zm-3.684-2.952h2.628v-4.476l-2.628 4.476Z"/>
    <rect width="70" height="40" x="451" y="122" fill="#E3EBFF" rx="10"/>
    <path fill="#000" fill-opacity=".85" d="M473.385 137.396h2.916c.944 0 1.66.16 2.148.48.496.32.744.86.744 1.62 0 .616-.156 1.084-.468 1.404-.312.312-.728.524-1.248.636.664.08 1.168.276 1.512.588.344.304.516.768.516 1.392 0 .592-.14 1.072-.42 1.44-.28.368-.664.636-1.152.804-.488.16-1.04.24-1.656.24h-2.892v-8.604Zm2.832 3.672c.544 0 .984-.12 1.32-.36.344-.248.516-.632.516-1.152 0-.44-.152-.736-.456-.888-.304-.16-.736-.24-1.296-.24h-1.788v2.64h1.704Zm.06 3.912c.608 0 1.1-.104 1.476-.312.376-.208.564-.584.564-1.128 0-.544-.176-.92-.528-1.128-.344-.216-.892-.324-1.644-.324h-1.632v2.892h1.764Zm9.006-.288h-.504l.012-.012-2.604-5.7V146h-1.068v-8.604h1.572l2.676 6.036 2.796-6.036h1.464V146h-1.14v-6.924l-2.64 5.604-.564.012Zm13.814-6.324L495.449 146h-1.176l3.672-7.572h-4.38v-1.032h5.532v.972Z"/>
    <rect width="70" height="40" x="451" y="172" fill="#E3EBFF" rx="10"/>
    <path fill="#000" fill-opacity=".85" d="M473.385 187.396h2.916c.944 0 1.66.16 2.148.48.496.32.744.86.744 1.62 0 .616-.156 1.084-.468 1.404-.312.312-.728.524-1.248.636.664.08 1.168.276 1.512.588.344.304.516.768.516 1.392 0 .592-.14 1.072-.42 1.44-.28.368-.664.636-1.152.804-.488.16-1.04.24-1.656.24h-2.892v-8.604Zm2.832 3.672c.544 0 .984-.12 1.32-.36.344-.248.516-.632.516-1.152 0-.44-.152-.736-.456-.888-.304-.16-.736-.24-1.296-.24h-1.788v2.64h1.704Zm.06 3.912c.608 0 1.1-.104 1.476-.312.376-.208.564-.584.564-1.128 0-.544-.176-.92-.528-1.128-.344-.216-.892-.324-1.644-.324h-1.632v2.892h1.764Zm9.006-.288h-.504l.012-.012-2.604-5.7V196h-1.068v-8.604h1.572l2.676 6.036 2.796-6.036h1.464V196h-1.14v-6.924l-2.64 5.604-.564.012Zm11.078 1.428c-.56 0-1.06-.096-1.5-.288a2.38 2.38 0 0 1-1.02-.828c-.248-.368-.372-.808-.372-1.32 0-.552.144-1.02.432-1.404a2.493 2.493 0 0 1 1.188-.852 2.15 2.15 0 0 1-.96-.732c-.232-.328-.348-.732-.348-1.212 0-.472.112-.872.336-1.2.224-.328.532-.576.924-.744a3.32 3.32 0 0 1 1.32-.252c.48 0 .912.084 1.296.252.384.16.688.4.912.72.232.32.348.72.348 1.2 0 .488-.12.896-.36 1.224-.24.328-.556.576-.948.744.48.168.864.44 1.152.816.296.376.444.844.444 1.404 0 .512-.124.956-.372 1.332a2.43 2.43 0 0 1-1.02.852c-.424.192-.908.288-1.452.288Zm0-5.124c.424 0 .772-.12 1.044-.36.28-.248.42-.588.42-1.02 0-.432-.14-.768-.42-1.008-.272-.248-.62-.372-1.044-.372-.424 0-.78.124-1.068.372-.28.24-.42.576-.42 1.008 0 .432.14.772.42 1.02.288.24.644.36 1.068.36Zm0 4.176c.496 0 .908-.144 1.236-.432.336-.296.504-.708.504-1.236s-.168-.936-.504-1.224c-.328-.296-.74-.444-1.236-.444-.512 0-.94.148-1.284.444-.336.288-.504.696-.504 1.224s.168.94.504 1.236c.344.288.772.432 1.284.432Z"/>
    <rect width="70" height="40" x="451" y="222" fill="#E3EBFF" rx="10"/>
    <path fill="#000" fill-opacity=".85" d="M473.385 237.396h2.916c.944 0 1.66.16 2.148.48.496.32.744.86.744 1.62 0 .616-.156 1.084-.468 1.404-.312.312-.728.524-1.248.636.664.08 1.168.276 1.512.588.344.304.516.768.516 1.392 0 .592-.14 1.072-.42 1.44-.28.368-.664.636-1.152.804-.488.16-1.04.24-1.656.24h-2.892v-8.604Zm2.832 3.672c.544 0 .984-.12 1.32-.36.344-.248.516-.632.516-1.152 0-.44-.152-.736-.456-.888-.304-.16-.736-.24-1.296-.24h-1.788v2.64h1.704Zm.06 3.912c.608 0 1.1-.104 1.476-.312.376-.208.564-.584.564-1.128 0-.544-.176-.92-.528-1.128-.344-.216-.892-.324-1.644-.324h-1.632v2.892h1.764Zm9.006-.288h-.504l.012-.012-2.604-5.7V246h-1.068v-8.604h1.572l2.676 6.036 2.796-6.036h1.464V246h-1.14v-6.924l-2.64 5.604-.564.012Zm8.138-4.536c0-.576.124-1.08.372-1.512.256-.432.6-.768 1.032-1.008.432-.24.916-.36 1.452-.36.72 0 1.3.156 1.74.468.448.304.772.732.972 1.284.2.544.3 1.176.3 1.896 0 1.08-.124 2.008-.372 2.784-.248.776-.632 1.372-1.152 1.788-.512.416-1.168.624-1.968.624-.72 0-1.336-.148-1.848-.444v-1.056c.544.352 1.16.528 1.848.528.496 0 .912-.136 1.248-.408.336-.272.596-.64.78-1.104.192-.464.308-.984.348-1.56a2.326 2.326 0 0 1-.888.696 2.86 2.86 0 0 1-1.116.216c-.512 0-.976-.108-1.392-.324a2.444 2.444 0 0 1-.996-.96c-.24-.424-.36-.94-.36-1.548Zm2.892-1.908a1.82 1.82 0 0 0-.864.216c-.264.136-.48.344-.648.624-.16.272-.24.62-.24 1.044 0 .416.08.768.24 1.056.16.288.364.504.612.648.248.144.508.216.78.216.528 0 .968-.164 1.32-.492.36-.336.54-.82.54-1.452 0-.56-.156-1.008-.468-1.344-.312-.344-.736-.516-1.272-.516Z"/>
    <defs>
        <filter id="filter0_d_1_177" width="276" height="264" x="8" y="34" color-interpolation-filters="sRGB" filterUnits="userSpaceOnUse">
            <feFlood flood-opacity="0" result="BackgroundImageFix"/>
            <feColorMatrix in="SourceAlpha" result="hardAlpha" values="0 0 0 0 0 0 0 0 0 0 0 0 0 0 0 0 0 0 127 0"/>
            <feOffset/>
            <feGaussianBlur stdDeviation="4"/>
            <feColorMatrix values="0 0 0 0 0.321569 0 0 0 0 0.509804 0 0 0 0 1 0 0 0 0.2 0"/>
            <feBlend in2="BackgroundImageFix" result="effect1_dropShadow_1_177"/>
            <feBlend in="SourceGraphic" in2="effect1_dropShadow_1_177" result="shape"/>
        </filter>
        <filter id="filter1_d_1_177" width="140" height="264" x="280" y="34" color-interpolation-filters="sRGB" filterUnits="userSpaceOnUse">
            <feFlood flood-opacity="0" result="BackgroundImageFix"/>
            <feColorMatrix in="SourceAlpha" result="hardAlpha" values="0 0 0 0 0 0 0 0 0 0 0 0 0 0 0 0 0 0 127 0"/>
            <feOffset/>
            <feGaussianBlur stdDeviation="4"/>
            <feColorMatrix values="0 0 0 0 0.321569 0 0 0 0 0.509804 0 0 0 0 1 0 0 0 0.2 0"/>
            <feBlend in2="BackgroundImageFix" result="effect1_dropShadow_1_177"/>
            <feBlend in="SourceGraphic" in2="effect1_dropShadow_1_177" result="shape"/>
        </filter>
        <filter id="filter2_d_1_177" width="276" height="264" x="416" y="34" color-interpolation-filters="sRGB" filterUnits="userSpaceOnUse">
            <feFlood flood-opacity="0" result="BackgroundImageFix"/>
            <feColorMatrix in="SourceAlpha" result="hardAlpha" values="0 0 0 0 0 0 0 0 0 0 0 0 0 0 0 0 0 0 127 0"/>
            <feOffset/>
            <feGaussianBlur stdDeviation="4"/>
            <feColorMatrix values="0 0 0 0 0.321569 0 0 0 0 0.509804 0 0 0 0 1 0 0 0 0.2 0"/>
            <feBlend in2="BackgroundImageFix" result="effect1_dropShadow_1_177"/>
            <feBlend in="SourceGraphic" in2="effect1_dropShadow_1_177" result="shape"/>
        </filter>
    </defs>
</svg>
