<svg width="665" height="200" viewBox="0 0 665 200" fill="none" xmlns="http://www.w3.org/2000/svg">
<g clip-path="url(#clip0)">
<rect width="665" height="200" fill="white"/>
<g filter="url(#filter0_d)">
<ellipse cx="327.5" cy="70" rx="312.5" ry="60" fill="white"/>
<ellipse cx="318.571" cy="68.6667" rx="156.25" ry="46.6667" fill="white"/>
<rect x="15" y="10" width="625" height="120" rx="15" fill="white"/>
</g>
<path d="M139.5 83C139.5 92.996 133.368 102.109 123.322 108.746C113.281 115.38 99.3799 119.5 84 119.5C68.6201 119.5 54.719 115.38 44.6776 108.746C34.6324 102.109 28.5 92.996 28.5 83C28.5 73.004 34.6324 63.8912 44.6776 57.2542C54.719 50.6198 68.6201 46.5 84 46.5C99.3799 46.5 113.281 50.6198 123.322 57.2542C133.368 63.8912 139.5 73.004 139.5 83Z" fill="white" stroke="#67B0F8"/>
<path d="M109.9 82.1778C109.9 97.8082 97.575 110.456 82.4 110.456C67.225 110.456 54.9 97.8082 54.9 82.1778C54.9 66.5474 67.225 53.9 82.4 53.9C97.575 53.9 109.9 66.5474 109.9 82.1778Z" fill="white" stroke="#67B0F8"/>
<rect x="28.5" y="46.5" width="111" height="73" rx="9.5" fill="white" stroke="#67B0F8"/>
<path d="M68.783 61.12C68.143 61.12 67.563 61.02 67.043 60.82C66.523 60.62 66.075 60.332 65.699 59.956C65.331 59.572 65.047 59.108 64.847 58.564C64.647 58.012 64.547 57.392 64.547 56.704C64.547 56.008 64.639 55.388 64.823 54.844C65.007 54.3 65.279 53.84 65.639 53.464C65.999 53.08 66.439 52.788 66.959 52.588C67.487 52.388 68.087 52.288 68.759 52.288C69.343 52.288 69.855 52.352 70.295 52.48C70.735 52.6 71.095 52.744 71.375 52.912V53.992C71.015 53.76 70.599 53.588 70.127 53.476C69.663 53.364 69.203 53.308 68.747 53.308C67.731 53.308 66.979 53.592 66.491 54.16C66.011 54.72 65.771 55.568 65.771 56.704C65.771 57.848 66.031 58.7 66.551 59.26C67.079 59.82 67.855 60.1 68.879 60.1C69.319 60.1 69.747 60.04 70.163 59.92C70.587 59.8 70.991 59.596 71.375 59.308V60.388C71.143 60.572 70.803 60.74 70.355 60.892C69.915 61.044 69.391 61.12 68.783 61.12ZM75.3486 55.672V61H74.2926V55.672H72.3366V54.772H77.3406V55.672H75.3486ZM80.9395 61.12C80.5155 61.12 80.1195 61.048 79.7515 60.904C79.3835 60.76 79.0635 60.552 78.7915 60.28C78.5275 60 78.3195 59.66 78.1675 59.26C78.0155 58.86 77.9395 58.4 77.9395 57.88C77.9395 57.368 78.0155 56.912 78.1675 56.512C78.3195 56.104 78.5275 55.764 78.7915 55.492C79.0635 55.22 79.3835 55.012 79.7515 54.868C80.1195 54.724 80.5155 54.652 80.9395 54.652C81.3715 54.652 81.7715 54.724 82.1395 54.868C82.5075 55.012 82.8235 55.22 83.0875 55.492C83.3595 55.764 83.5715 56.104 83.7235 56.512C83.8835 56.912 83.9635 57.368 83.9635 57.88C83.9635 58.4 83.8835 58.86 83.7235 59.26C83.5715 59.66 83.3595 60 83.0875 60.28C82.8235 60.552 82.5075 60.76 82.1395 60.904C81.7715 61.048 81.3715 61.12 80.9395 61.12ZM80.9395 60.172C81.2195 60.172 81.4755 60.128 81.7075 60.04C81.9475 59.944 82.1555 59.804 82.3315 59.62C82.5075 59.428 82.6435 59.188 82.7395 58.9C82.8355 58.612 82.8835 58.272 82.8835 57.88C82.8835 57.488 82.8355 57.148 82.7395 56.86C82.6435 56.572 82.5075 56.336 82.3315 56.152C82.1555 55.96 81.9475 55.82 81.7075 55.732C81.4755 55.636 81.2195 55.588 80.9395 55.588C80.6595 55.588 80.4035 55.636 80.1715 55.732C79.9395 55.82 79.7355 55.96 79.5595 56.152C79.3915 56.336 79.2595 56.572 79.1635 56.86C79.0675 57.148 79.0195 57.488 79.0195 57.88C79.0195 58.272 79.0675 58.612 79.1635 58.9C79.2595 59.188 79.3915 59.428 79.5595 59.62C79.7355 59.804 79.9395 59.944 80.1715 60.04C80.4035 60.128 80.6595 60.172 80.9395 60.172ZM87.9987 53.944C87.6787 53.944 87.3987 53.904 87.1587 53.824C86.9267 53.736 86.7307 53.62 86.5707 53.476C86.4187 53.324 86.3027 53.152 86.2227 52.96C86.1507 52.76 86.1147 52.544 86.1147 52.312H87.1707C87.1707 52.616 87.2427 52.836 87.3867 52.972C87.5387 53.108 87.7427 53.176 87.9987 53.176C88.2547 53.176 88.4547 53.108 88.5987 52.972C88.7427 52.836 88.8147 52.616 88.8147 52.312H89.8707C89.8707 52.768 89.7147 53.156 89.4027 53.476C89.0987 53.788 88.6307 53.944 87.9987 53.944ZM86.3067 59.56L89.6307 54.772H90.6987V61H89.6427V56.224L86.3307 61H85.2507V54.772H86.3067V59.56ZM94.0306 58.348H93.4786V61H92.4226V54.772H93.4786V57.448H94.0786L96.2626 54.772H97.4626L94.9066 57.844L97.5106 61H96.2266L94.0306 58.348ZM102.153 59.812C102.081 59.956 101.989 60.108 101.877 60.268C101.765 60.42 101.625 60.56 101.457 60.688C101.289 60.816 101.089 60.92 100.857 61C100.633 61.08 100.369 61.12 100.065 61.12C99.5046 61.12 99.0526 60.964 98.7086 60.652C98.3646 60.332 98.1926 59.876 98.1926 59.284C98.1926 58.604 98.4286 58.104 98.9006 57.784C99.3806 57.464 100.061 57.304 100.941 57.304H102.105V56.788C102.105 56.356 101.993 56.048 101.769 55.864C101.545 55.68 101.161 55.588 100.617 55.588C100.233 55.588 99.8686 55.652 99.5246 55.78C99.1806 55.9 98.8726 56.04 98.6006 56.2V55.252C98.8246 55.116 99.1246 54.984 99.5006 54.856C99.8846 54.72 100.305 54.652 100.761 54.652C101.545 54.652 102.141 54.816 102.549 55.144C102.957 55.464 103.161 55.964 103.161 56.644V59.992C103.161 60.064 103.161 60.148 103.161 60.244C103.169 60.332 103.173 60.424 103.173 60.52C103.181 60.616 103.189 60.708 103.197 60.796C103.205 60.876 103.213 60.944 103.221 61H102.261C102.237 60.888 102.213 60.732 102.189 60.532C102.173 60.324 102.165 60.144 102.165 59.992L102.153 59.812ZM100.293 60.172C100.621 60.172 100.901 60.104 101.133 59.968C101.365 59.832 101.553 59.676 101.697 59.5C101.841 59.316 101.945 59.14 102.009 58.972C102.073 58.796 102.105 58.672 102.105 58.6V58.144H101.049C100.417 58.144 99.9566 58.236 99.6686 58.42C99.3886 58.596 99.2486 58.864 99.2486 59.224C99.2486 59.504 99.3326 59.732 99.5006 59.908C99.6686 60.084 99.9326 60.172 100.293 60.172Z" fill="#322A65"/>
<rect x="40" y="70" width="90" height="36" rx="10" fill="#D5FAF3"/>
<path d="M75.5324 82.962H78.9344C80.0358 82.962 80.8711 83.1487 81.4404 83.522C82.0191 83.8953 82.3084 84.5253 82.3084 85.412C82.3084 85.776 82.2571 86.0933 82.1544 86.364C82.0611 86.6253 81.9258 86.854 81.7484 87.05C81.5804 87.2367 81.3704 87.3907 81.1184 87.512C80.8758 87.6333 80.6051 87.7267 80.3064 87.792C81.0904 87.8853 81.6784 88.114 82.0704 88.478C82.4718 88.8327 82.6724 89.374 82.6724 90.102C82.6724 90.6247 82.5744 91.0727 82.3784 91.446C82.1918 91.81 81.9304 92.1087 81.5944 92.342C81.2584 92.566 80.8618 92.734 80.4044 92.846C79.9471 92.9487 79.4478 93 78.9064 93H75.5324V82.962ZM76.8484 84.166V87.246H78.8364C79.1538 87.246 79.4431 87.2133 79.7044 87.148C79.9658 87.0733 80.1898 86.966 80.3764 86.826C80.5631 86.6767 80.7078 86.4947 80.8104 86.28C80.9224 86.056 80.9784 85.79 80.9784 85.482C80.9784 84.9687 80.8011 84.6233 80.4464 84.446C80.0918 84.2593 79.5878 84.166 78.9344 84.166H76.8484ZM76.8484 88.436V91.81H78.9064C79.2611 91.81 79.5831 91.782 79.8724 91.726C80.1618 91.67 80.4091 91.5767 80.6144 91.446C80.8291 91.3153 80.9924 91.1427 81.1044 90.928C81.2258 90.7133 81.2864 90.4473 81.2864 90.13C81.2864 89.4953 81.0811 89.0567 80.6704 88.814C80.2691 88.562 79.6298 88.436 78.7524 88.436H76.8484ZM89.5119 90.004L92.7739 82.962H94.4819V93H93.1519V84.922L90.0719 91.46L89.4139 91.474H88.8259L88.8399 91.46L85.8019 84.81V93H84.5559V82.962H86.3899L89.5119 90.004Z" fill="#322A65"/>
<path d="M261.5 83C261.5 92.996 255.368 102.109 245.322 108.746C235.281 115.38 221.38 119.5 206 119.5C190.62 119.5 176.719 115.38 166.678 108.746C156.632 102.109 150.5 92.996 150.5 83C150.5 73.004 156.632 63.8912 166.678 57.2542C176.719 50.6198 190.62 46.5 206 46.5C221.38 46.5 235.281 50.6198 245.322 57.2542C255.368 63.8912 261.5 73.004 261.5 83Z" fill="white" stroke="#67B0F8"/>
<path d="M231.9 82.1778C231.9 97.8082 219.575 110.456 204.4 110.456C189.225 110.456 176.9 97.8082 176.9 82.1778C176.9 66.5474 189.225 53.9 204.4 53.9C219.575 53.9 231.9 66.5474 231.9 82.1778Z" fill="white" stroke="#67B0F8"/>
<rect x="150.5" y="46.5" width="111" height="73" rx="9.5" fill="white" stroke="#67B0F8"/>
<path d="M190.783 61.12C190.143 61.12 189.563 61.02 189.043 60.82C188.523 60.62 188.075 60.332 187.699 59.956C187.331 59.572 187.047 59.108 186.847 58.564C186.647 58.012 186.547 57.392 186.547 56.704C186.547 56.008 186.639 55.388 186.823 54.844C187.007 54.3 187.279 53.84 187.639 53.464C187.999 53.08 188.439 52.788 188.959 52.588C189.487 52.388 190.087 52.288 190.759 52.288C191.343 52.288 191.855 52.352 192.295 52.48C192.735 52.6 193.095 52.744 193.375 52.912V53.992C193.015 53.76 192.599 53.588 192.127 53.476C191.663 53.364 191.203 53.308 190.747 53.308C189.731 53.308 188.979 53.592 188.491 54.16C188.011 54.72 187.771 55.568 187.771 56.704C187.771 57.848 188.031 58.7 188.551 59.26C189.079 59.82 189.855 60.1 190.879 60.1C191.319 60.1 191.747 60.04 192.163 59.92C192.587 59.8 192.991 59.596 193.375 59.308V60.388C193.143 60.572 192.803 60.74 192.355 60.892C191.915 61.044 191.391 61.12 190.783 61.12ZM197.349 55.672V61H196.293V55.672H194.337V54.772H199.341V55.672H197.349ZM202.94 61.12C202.516 61.12 202.12 61.048 201.752 60.904C201.384 60.76 201.064 60.552 200.792 60.28C200.528 60 200.32 59.66 200.168 59.26C200.016 58.86 199.94 58.4 199.94 57.88C199.94 57.368 200.016 56.912 200.168 56.512C200.32 56.104 200.528 55.764 200.792 55.492C201.064 55.22 201.384 55.012 201.752 54.868C202.12 54.724 202.516 54.652 202.94 54.652C203.372 54.652 203.772 54.724 204.14 54.868C204.508 55.012 204.824 55.22 205.088 55.492C205.36 55.764 205.572 56.104 205.724 56.512C205.884 56.912 205.964 57.368 205.964 57.88C205.964 58.4 205.884 58.86 205.724 59.26C205.572 59.66 205.36 60 205.088 60.28C204.824 60.552 204.508 60.76 204.14 60.904C203.772 61.048 203.372 61.12 202.94 61.12ZM202.94 60.172C203.22 60.172 203.476 60.128 203.708 60.04C203.948 59.944 204.156 59.804 204.332 59.62C204.508 59.428 204.644 59.188 204.74 58.9C204.836 58.612 204.884 58.272 204.884 57.88C204.884 57.488 204.836 57.148 204.74 56.86C204.644 56.572 204.508 56.336 204.332 56.152C204.156 55.96 203.948 55.82 203.708 55.732C203.476 55.636 203.22 55.588 202.94 55.588C202.66 55.588 202.404 55.636 202.172 55.732C201.94 55.82 201.736 55.96 201.56 56.152C201.392 56.336 201.26 56.572 201.164 56.86C201.068 57.148 201.02 57.488 201.02 57.88C201.02 58.272 201.068 58.612 201.164 58.9C201.26 59.188 201.392 59.428 201.56 59.62C201.736 59.804 201.94 59.944 202.172 60.04C202.404 60.128 202.66 60.172 202.94 60.172ZM209.999 53.944C209.679 53.944 209.399 53.904 209.159 53.824C208.927 53.736 208.731 53.62 208.571 53.476C208.419 53.324 208.303 53.152 208.223 52.96C208.151 52.76 208.115 52.544 208.115 52.312H209.171C209.171 52.616 209.243 52.836 209.387 52.972C209.539 53.108 209.743 53.176 209.999 53.176C210.255 53.176 210.455 53.108 210.599 52.972C210.743 52.836 210.815 52.616 210.815 52.312H211.871C211.871 52.768 211.715 53.156 211.403 53.476C211.099 53.788 210.631 53.944 209.999 53.944ZM208.307 59.56L211.631 54.772H212.699V61H211.643V56.224L208.331 61H207.251V54.772H208.307V59.56ZM216.031 58.348H215.479V61H214.423V54.772H215.479V57.448H216.079L218.263 54.772H219.463L216.907 57.844L219.511 61H218.227L216.031 58.348ZM224.153 59.812C224.081 59.956 223.989 60.108 223.877 60.268C223.765 60.42 223.625 60.56 223.457 60.688C223.289 60.816 223.089 60.92 222.857 61C222.633 61.08 222.369 61.12 222.065 61.12C221.505 61.12 221.053 60.964 220.709 60.652C220.365 60.332 220.193 59.876 220.193 59.284C220.193 58.604 220.429 58.104 220.901 57.784C221.381 57.464 222.061 57.304 222.941 57.304H224.105V56.788C224.105 56.356 223.993 56.048 223.769 55.864C223.545 55.68 223.161 55.588 222.617 55.588C222.233 55.588 221.869 55.652 221.525 55.78C221.181 55.9 220.873 56.04 220.601 56.2V55.252C220.825 55.116 221.125 54.984 221.501 54.856C221.885 54.72 222.305 54.652 222.761 54.652C223.545 54.652 224.141 54.816 224.549 55.144C224.957 55.464 225.161 55.964 225.161 56.644V59.992C225.161 60.064 225.161 60.148 225.161 60.244C225.169 60.332 225.173 60.424 225.173 60.52C225.181 60.616 225.189 60.708 225.197 60.796C225.205 60.876 225.213 60.944 225.221 61H224.261C224.237 60.888 224.213 60.732 224.189 60.532C224.173 60.324 224.165 60.144 224.165 59.992L224.153 59.812ZM222.293 60.172C222.621 60.172 222.901 60.104 223.133 59.968C223.365 59.832 223.553 59.676 223.697 59.5C223.841 59.316 223.945 59.14 224.009 58.972C224.073 58.796 224.105 58.672 224.105 58.6V58.144H223.049C222.417 58.144 221.957 58.236 221.669 58.42C221.389 58.596 221.249 58.864 221.249 59.224C221.249 59.504 221.333 59.732 221.501 59.908C221.669 60.084 221.933 60.172 222.293 60.172Z" fill="#322A65"/>
<rect x="162" y="70" width="90" height="36" rx="10" fill="#D5FAF3"/>
<path d="M197.532 82.962H200.934C202.036 82.962 202.871 83.1487 203.44 83.522C204.019 83.8953 204.308 84.5253 204.308 85.412C204.308 85.776 204.257 86.0933 204.154 86.364C204.061 86.6253 203.926 86.854 203.748 87.05C203.58 87.2367 203.37 87.3907 203.118 87.512C202.876 87.6333 202.605 87.7267 202.306 87.792C203.09 87.8853 203.678 88.114 204.07 88.478C204.472 88.8327 204.672 89.374 204.672 90.102C204.672 90.6247 204.574 91.0727 204.378 91.446C204.192 91.81 203.93 92.1087 203.594 92.342C203.258 92.566 202.862 92.734 202.404 92.846C201.947 92.9487 201.448 93 200.906 93H197.532V82.962ZM198.848 84.166V87.246H200.836C201.154 87.246 201.443 87.2133 201.704 87.148C201.966 87.0733 202.19 86.966 202.376 86.826C202.563 86.6767 202.708 86.4947 202.81 86.28C202.922 86.056 202.978 85.79 202.978 85.482C202.978 84.9687 202.801 84.6233 202.446 84.446C202.092 84.2593 201.588 84.166 200.934 84.166H198.848ZM198.848 88.436V91.81H200.906C201.261 91.81 201.583 91.782 201.872 91.726C202.162 91.67 202.409 91.5767 202.614 91.446C202.829 91.3153 202.992 91.1427 203.104 90.928C203.226 90.7133 203.286 90.4473 203.286 90.13C203.286 89.4953 203.081 89.0567 202.67 88.814C202.269 88.562 201.63 88.436 200.752 88.436H198.848ZM211.512 90.004L214.774 82.962H216.482V93H215.152V84.922L212.072 91.46L211.414 91.474H210.826L210.84 91.46L207.802 84.81V93H206.556V82.962H208.39L211.512 90.004Z" fill="#322A65"/>
<path d="M383.5 82C383.5 91.996 377.368 101.109 367.322 107.746C357.281 114.38 343.38 118.5 328 118.5C312.62 118.5 298.719 114.38 288.678 107.746C278.632 101.109 272.5 91.996 272.5 82C272.5 72.004 278.632 62.8912 288.678 56.2542C298.719 49.6198 312.62 45.5 328 45.5C343.38 45.5 357.281 49.6198 367.322 56.2542C377.368 62.8912 383.5 72.004 383.5 82Z" fill="white" stroke="#67B0F8"/>
<path d="M353.9 81.1778C353.9 96.8082 341.575 109.456 326.4 109.456C311.225 109.456 298.9 96.8082 298.9 81.1778C298.9 65.5474 311.225 52.9 326.4 52.9C341.575 52.9 353.9 65.5474 353.9 81.1778Z" fill="white" stroke="#67B0F8"/>
<rect x="272.5" y="45.5" width="111" height="73" rx="9.5" fill="white" stroke="#67B0F8"/>
<path d="M312.783 60.12C312.143 60.12 311.563 60.02 311.043 59.82C310.523 59.62 310.075 59.332 309.699 58.956C309.331 58.572 309.047 58.108 308.847 57.564C308.647 57.012 308.547 56.392 308.547 55.704C308.547 55.008 308.639 54.388 308.823 53.844C309.007 53.3 309.279 52.84 309.639 52.464C309.999 52.08 310.439 51.788 310.959 51.588C311.487 51.388 312.087 51.288 312.759 51.288C313.343 51.288 313.855 51.352 314.295 51.48C314.735 51.6 315.095 51.744 315.375 51.912V52.992C315.015 52.76 314.599 52.588 314.127 52.476C313.663 52.364 313.203 52.308 312.747 52.308C311.731 52.308 310.979 52.592 310.491 53.16C310.011 53.72 309.771 54.568 309.771 55.704C309.771 56.848 310.031 57.7 310.551 58.26C311.079 58.82 311.855 59.1 312.879 59.1C313.319 59.1 313.747 59.04 314.163 58.92C314.587 58.8 314.991 58.596 315.375 58.308V59.388C315.143 59.572 314.803 59.74 314.355 59.892C313.915 60.044 313.391 60.12 312.783 60.12ZM319.349 54.672V60H318.293V54.672H316.337V53.772H321.341V54.672H319.349ZM324.94 60.12C324.516 60.12 324.12 60.048 323.752 59.904C323.384 59.76 323.064 59.552 322.792 59.28C322.528 59 322.32 58.66 322.168 58.26C322.016 57.86 321.94 57.4 321.94 56.88C321.94 56.368 322.016 55.912 322.168 55.512C322.32 55.104 322.528 54.764 322.792 54.492C323.064 54.22 323.384 54.012 323.752 53.868C324.12 53.724 324.516 53.652 324.94 53.652C325.372 53.652 325.772 53.724 326.14 53.868C326.508 54.012 326.824 54.22 327.088 54.492C327.36 54.764 327.572 55.104 327.724 55.512C327.884 55.912 327.964 56.368 327.964 56.88C327.964 57.4 327.884 57.86 327.724 58.26C327.572 58.66 327.36 59 327.088 59.28C326.824 59.552 326.508 59.76 326.14 59.904C325.772 60.048 325.372 60.12 324.94 60.12ZM324.94 59.172C325.22 59.172 325.476 59.128 325.708 59.04C325.948 58.944 326.156 58.804 326.332 58.62C326.508 58.428 326.644 58.188 326.74 57.9C326.836 57.612 326.884 57.272 326.884 56.88C326.884 56.488 326.836 56.148 326.74 55.86C326.644 55.572 326.508 55.336 326.332 55.152C326.156 54.96 325.948 54.82 325.708 54.732C325.476 54.636 325.22 54.588 324.94 54.588C324.66 54.588 324.404 54.636 324.172 54.732C323.94 54.82 323.736 54.96 323.56 55.152C323.392 55.336 323.26 55.572 323.164 55.86C323.068 56.148 323.02 56.488 323.02 56.88C323.02 57.272 323.068 57.612 323.164 57.9C323.26 58.188 323.392 58.428 323.56 58.62C323.736 58.804 323.94 58.944 324.172 59.04C324.404 59.128 324.66 59.172 324.94 59.172ZM331.999 52.944C331.679 52.944 331.399 52.904 331.159 52.824C330.927 52.736 330.731 52.62 330.571 52.476C330.419 52.324 330.303 52.152 330.223 51.96C330.151 51.76 330.115 51.544 330.115 51.312H331.171C331.171 51.616 331.243 51.836 331.387 51.972C331.539 52.108 331.743 52.176 331.999 52.176C332.255 52.176 332.455 52.108 332.599 51.972C332.743 51.836 332.815 51.616 332.815 51.312H333.871C333.871 51.768 333.715 52.156 333.403 52.476C333.099 52.788 332.631 52.944 331.999 52.944ZM330.307 58.56L333.631 53.772H334.699V60H333.643V55.224L330.331 60H329.251V53.772H330.307V58.56ZM338.031 57.348H337.479V60H336.423V53.772H337.479V56.448H338.079L340.263 53.772H341.463L338.907 56.844L341.511 60H340.227L338.031 57.348ZM346.153 58.812C346.081 58.956 345.989 59.108 345.877 59.268C345.765 59.42 345.625 59.56 345.457 59.688C345.289 59.816 345.089 59.92 344.857 60C344.633 60.08 344.369 60.12 344.065 60.12C343.505 60.12 343.053 59.964 342.709 59.652C342.365 59.332 342.193 58.876 342.193 58.284C342.193 57.604 342.429 57.104 342.901 56.784C343.381 56.464 344.061 56.304 344.941 56.304H346.105V55.788C346.105 55.356 345.993 55.048 345.769 54.864C345.545 54.68 345.161 54.588 344.617 54.588C344.233 54.588 343.869 54.652 343.525 54.78C343.181 54.9 342.873 55.04 342.601 55.2V54.252C342.825 54.116 343.125 53.984 343.501 53.856C343.885 53.72 344.305 53.652 344.761 53.652C345.545 53.652 346.141 53.816 346.549 54.144C346.957 54.464 347.161 54.964 347.161 55.644V58.992C347.161 59.064 347.161 59.148 347.161 59.244C347.169 59.332 347.173 59.424 347.173 59.52C347.181 59.616 347.189 59.708 347.197 59.796C347.205 59.876 347.213 59.944 347.221 60H346.261C346.237 59.888 346.213 59.732 346.189 59.532C346.173 59.324 346.165 59.144 346.165 58.992L346.153 58.812ZM344.293 59.172C344.621 59.172 344.901 59.104 345.133 58.968C345.365 58.832 345.553 58.676 345.697 58.5C345.841 58.316 345.945 58.14 346.009 57.972C346.073 57.796 346.105 57.672 346.105 57.6V57.144H345.049C344.417 57.144 343.957 57.236 343.669 57.42C343.389 57.596 343.249 57.864 343.249 58.224C343.249 58.504 343.333 58.732 343.501 58.908C343.669 59.084 343.933 59.172 344.293 59.172Z" fill="#322A65"/>
<rect x="284" y="69" width="90" height="36" rx="10" fill="#D5FAF3"/>
<path d="M319.532 81.962H322.934C324.036 81.962 324.871 82.1487 325.44 82.522C326.019 82.8953 326.308 83.5253 326.308 84.412C326.308 84.776 326.257 85.0933 326.154 85.364C326.061 85.6253 325.926 85.854 325.748 86.05C325.58 86.2367 325.37 86.3907 325.118 86.512C324.876 86.6333 324.605 86.7267 324.306 86.792C325.09 86.8853 325.678 87.114 326.07 87.478C326.472 87.8327 326.672 88.374 326.672 89.102C326.672 89.6247 326.574 90.0727 326.378 90.446C326.192 90.81 325.93 91.1087 325.594 91.342C325.258 91.566 324.862 91.734 324.404 91.846C323.947 91.9487 323.448 92 322.906 92H319.532V81.962ZM320.848 83.166V86.246H322.836C323.154 86.246 323.443 86.2133 323.704 86.148C323.966 86.0733 324.19 85.966 324.376 85.826C324.563 85.6767 324.708 85.4947 324.81 85.28C324.922 85.056 324.978 84.79 324.978 84.482C324.978 83.9687 324.801 83.6233 324.446 83.446C324.092 83.2593 323.588 83.166 322.934 83.166H320.848ZM320.848 87.436V90.81H322.906C323.261 90.81 323.583 90.782 323.872 90.726C324.162 90.67 324.409 90.5767 324.614 90.446C324.829 90.3153 324.992 90.1427 325.104 89.928C325.226 89.7133 325.286 89.4473 325.286 89.13C325.286 88.4953 325.081 88.0567 324.67 87.814C324.269 87.562 323.63 87.436 322.752 87.436H320.848ZM333.512 89.004L336.774 81.962H338.482V92H337.152V83.922L334.072 90.46L333.414 90.474H332.826L332.84 90.46L329.802 83.81V92H328.556V81.962H330.39L333.512 89.004Z" fill="#322A65"/>
<path d="M505.5 82C505.5 91.996 499.368 101.109 489.322 107.746C479.281 114.38 465.38 118.5 450 118.5C434.62 118.5 420.719 114.38 410.678 107.746C400.632 101.109 394.5 91.996 394.5 82C394.5 72.004 400.632 62.8912 410.678 56.2542C420.719 49.6198 434.62 45.5 450 45.5C465.38 45.5 479.281 49.6198 489.322 56.2542C499.368 62.8912 505.5 72.004 505.5 82Z" fill="white" stroke="#67B0F8"/>
<path d="M475.9 81.1778C475.9 96.8082 463.575 109.456 448.4 109.456C433.225 109.456 420.9 96.8082 420.9 81.1778C420.9 65.5474 433.225 52.9 448.4 52.9C463.575 52.9 475.9 65.5474 475.9 81.1778Z" fill="white" stroke="#67B0F8"/>
<rect x="394.5" y="45.5" width="111" height="73" rx="9.5" fill="white" stroke="#67B0F8"/>
<path d="M434.783 60.12C434.143 60.12 433.563 60.02 433.043 59.82C432.523 59.62 432.075 59.332 431.699 58.956C431.331 58.572 431.047 58.108 430.847 57.564C430.647 57.012 430.547 56.392 430.547 55.704C430.547 55.008 430.639 54.388 430.823 53.844C431.007 53.3 431.279 52.84 431.639 52.464C431.999 52.08 432.439 51.788 432.959 51.588C433.487 51.388 434.087 51.288 434.759 51.288C435.343 51.288 435.855 51.352 436.295 51.48C436.735 51.6 437.095 51.744 437.375 51.912V52.992C437.015 52.76 436.599 52.588 436.127 52.476C435.663 52.364 435.203 52.308 434.747 52.308C433.731 52.308 432.979 52.592 432.491 53.16C432.011 53.72 431.771 54.568 431.771 55.704C431.771 56.848 432.031 57.7 432.551 58.26C433.079 58.82 433.855 59.1 434.879 59.1C435.319 59.1 435.747 59.04 436.163 58.92C436.587 58.8 436.991 58.596 437.375 58.308V59.388C437.143 59.572 436.803 59.74 436.355 59.892C435.915 60.044 435.391 60.12 434.783 60.12ZM441.349 54.672V60H440.293V54.672H438.337V53.772H443.341V54.672H441.349ZM446.94 60.12C446.516 60.12 446.12 60.048 445.752 59.904C445.384 59.76 445.064 59.552 444.792 59.28C444.528 59 444.32 58.66 444.168 58.26C444.016 57.86 443.94 57.4 443.94 56.88C443.94 56.368 444.016 55.912 444.168 55.512C444.32 55.104 444.528 54.764 444.792 54.492C445.064 54.22 445.384 54.012 445.752 53.868C446.12 53.724 446.516 53.652 446.94 53.652C447.372 53.652 447.772 53.724 448.14 53.868C448.508 54.012 448.824 54.22 449.088 54.492C449.36 54.764 449.572 55.104 449.724 55.512C449.884 55.912 449.964 56.368 449.964 56.88C449.964 57.4 449.884 57.86 449.724 58.26C449.572 58.66 449.36 59 449.088 59.28C448.824 59.552 448.508 59.76 448.14 59.904C447.772 60.048 447.372 60.12 446.94 60.12ZM446.94 59.172C447.22 59.172 447.476 59.128 447.708 59.04C447.948 58.944 448.156 58.804 448.332 58.62C448.508 58.428 448.644 58.188 448.74 57.9C448.836 57.612 448.884 57.272 448.884 56.88C448.884 56.488 448.836 56.148 448.74 55.86C448.644 55.572 448.508 55.336 448.332 55.152C448.156 54.96 447.948 54.82 447.708 54.732C447.476 54.636 447.22 54.588 446.94 54.588C446.66 54.588 446.404 54.636 446.172 54.732C445.94 54.82 445.736 54.96 445.56 55.152C445.392 55.336 445.26 55.572 445.164 55.86C445.068 56.148 445.02 56.488 445.02 56.88C445.02 57.272 445.068 57.612 445.164 57.9C445.26 58.188 445.392 58.428 445.56 58.62C445.736 58.804 445.94 58.944 446.172 59.04C446.404 59.128 446.66 59.172 446.94 59.172ZM453.999 52.944C453.679 52.944 453.399 52.904 453.159 52.824C452.927 52.736 452.731 52.62 452.571 52.476C452.419 52.324 452.303 52.152 452.223 51.96C452.151 51.76 452.115 51.544 452.115 51.312H453.171C453.171 51.616 453.243 51.836 453.387 51.972C453.539 52.108 453.743 52.176 453.999 52.176C454.255 52.176 454.455 52.108 454.599 51.972C454.743 51.836 454.815 51.616 454.815 51.312H455.871C455.871 51.768 455.715 52.156 455.403 52.476C455.099 52.788 454.631 52.944 453.999 52.944ZM452.307 58.56L455.631 53.772H456.699V60H455.643V55.224L452.331 60H451.251V53.772H452.307V58.56ZM460.031 57.348H459.479V60H458.423V53.772H459.479V56.448H460.079L462.263 53.772H463.463L460.907 56.844L463.511 60H462.227L460.031 57.348ZM468.153 58.812C468.081 58.956 467.989 59.108 467.877 59.268C467.765 59.42 467.625 59.56 467.457 59.688C467.289 59.816 467.089 59.92 466.857 60C466.633 60.08 466.369 60.12 466.065 60.12C465.505 60.12 465.053 59.964 464.709 59.652C464.365 59.332 464.193 58.876 464.193 58.284C464.193 57.604 464.429 57.104 464.901 56.784C465.381 56.464 466.061 56.304 466.941 56.304H468.105V55.788C468.105 55.356 467.993 55.048 467.769 54.864C467.545 54.68 467.161 54.588 466.617 54.588C466.233 54.588 465.869 54.652 465.525 54.78C465.181 54.9 464.873 55.04 464.601 55.2V54.252C464.825 54.116 465.125 53.984 465.501 53.856C465.885 53.72 466.305 53.652 466.761 53.652C467.545 53.652 468.141 53.816 468.549 54.144C468.957 54.464 469.161 54.964 469.161 55.644V58.992C469.161 59.064 469.161 59.148 469.161 59.244C469.169 59.332 469.173 59.424 469.173 59.52C469.181 59.616 469.189 59.708 469.197 59.796C469.205 59.876 469.213 59.944 469.221 60H468.261C468.237 59.888 468.213 59.732 468.189 59.532C468.173 59.324 468.165 59.144 468.165 58.992L468.153 58.812ZM466.293 59.172C466.621 59.172 466.901 59.104 467.133 58.968C467.365 58.832 467.553 58.676 467.697 58.5C467.841 58.316 467.945 58.14 468.009 57.972C468.073 57.796 468.105 57.672 468.105 57.6V57.144H467.049C466.417 57.144 465.957 57.236 465.669 57.42C465.389 57.596 465.249 57.864 465.249 58.224C465.249 58.504 465.333 58.732 465.501 58.908C465.669 59.084 465.933 59.172 466.293 59.172Z" fill="#322A65"/>
<rect x="406" y="69" width="90" height="36" rx="10" fill="#D5FAF3"/>
<path d="M441.532 81.962H444.934C446.036 81.962 446.871 82.1487 447.44 82.522C448.019 82.8953 448.308 83.5253 448.308 84.412C448.308 84.776 448.257 85.0933 448.154 85.364C448.061 85.6253 447.926 85.854 447.748 86.05C447.58 86.2367 447.37 86.3907 447.118 86.512C446.876 86.6333 446.605 86.7267 446.306 86.792C447.09 86.8853 447.678 87.114 448.07 87.478C448.472 87.8327 448.672 88.374 448.672 89.102C448.672 89.6247 448.574 90.0727 448.378 90.446C448.192 90.81 447.93 91.1087 447.594 91.342C447.258 91.566 446.862 91.734 446.404 91.846C445.947 91.9487 445.448 92 444.906 92H441.532V81.962ZM442.848 83.166V86.246H444.836C445.154 86.246 445.443 86.2133 445.704 86.148C445.966 86.0733 446.19 85.966 446.376 85.826C446.563 85.6767 446.708 85.4947 446.81 85.28C446.922 85.056 446.978 84.79 446.978 84.482C446.978 83.9687 446.801 83.6233 446.446 83.446C446.092 83.2593 445.588 83.166 444.934 83.166H442.848ZM442.848 87.436V90.81H444.906C445.261 90.81 445.583 90.782 445.872 90.726C446.162 90.67 446.409 90.5767 446.614 90.446C446.829 90.3153 446.992 90.1427 447.104 89.928C447.226 89.7133 447.286 89.4473 447.286 89.13C447.286 88.4953 447.081 88.0567 446.67 87.814C446.269 87.562 445.63 87.436 444.752 87.436H442.848ZM455.512 89.004L458.774 81.962H460.482V92H459.152V83.922L456.072 90.46L455.414 90.474H454.826L454.84 90.46L451.802 83.81V92H450.556V81.962H452.39L455.512 89.004Z" fill="#322A65"/>
<path d="M627.5 81C627.5 90.996 621.368 100.109 611.322 106.746C601.281 113.38 587.38 117.5 572 117.5C556.62 117.5 542.719 113.38 532.678 106.746C522.632 100.109 516.5 90.996 516.5 81C516.5 71.004 522.632 61.8912 532.678 55.2542C542.719 48.6198 556.62 44.5 572 44.5C587.38 44.5 601.281 48.6198 611.322 55.2542C621.368 61.8912 627.5 71.004 627.5 81Z" fill="white" stroke="#67B0F8"/>
<path d="M597.9 80.1778C597.9 95.8082 585.575 108.456 570.4 108.456C555.225 108.456 542.9 95.8082 542.9 80.1778C542.9 64.5474 555.225 51.9 570.4 51.9C585.575 51.9 597.9 64.5474 597.9 80.1778Z" fill="white" stroke="#67B0F8"/>
<rect x="516.5" y="44.5" width="111" height="73" rx="9.5" fill="white" stroke="#67B0F8"/>
<path d="M556.783 59.12C556.143 59.12 555.563 59.02 555.043 58.82C554.523 58.62 554.075 58.332 553.699 57.956C553.331 57.572 553.047 57.108 552.847 56.564C552.647 56.012 552.547 55.392 552.547 54.704C552.547 54.008 552.639 53.388 552.823 52.844C553.007 52.3 553.279 51.84 553.639 51.464C553.999 51.08 554.439 50.788 554.959 50.588C555.487 50.388 556.087 50.288 556.759 50.288C557.343 50.288 557.855 50.352 558.295 50.48C558.735 50.6 559.095 50.744 559.375 50.912V51.992C559.015 51.76 558.599 51.588 558.127 51.476C557.663 51.364 557.203 51.308 556.747 51.308C555.731 51.308 554.979 51.592 554.491 52.16C554.011 52.72 553.771 53.568 553.771 54.704C553.771 55.848 554.031 56.7 554.551 57.26C555.079 57.82 555.855 58.1 556.879 58.1C557.319 58.1 557.747 58.04 558.163 57.92C558.587 57.8 558.991 57.596 559.375 57.308V58.388C559.143 58.572 558.803 58.74 558.355 58.892C557.915 59.044 557.391 59.12 556.783 59.12ZM563.349 53.672V59H562.293V53.672H560.337V52.772H565.341V53.672H563.349ZM568.94 59.12C568.516 59.12 568.12 59.048 567.752 58.904C567.384 58.76 567.064 58.552 566.792 58.28C566.528 58 566.32 57.66 566.168 57.26C566.016 56.86 565.94 56.4 565.94 55.88C565.94 55.368 566.016 54.912 566.168 54.512C566.32 54.104 566.528 53.764 566.792 53.492C567.064 53.22 567.384 53.012 567.752 52.868C568.12 52.724 568.516 52.652 568.94 52.652C569.372 52.652 569.772 52.724 570.14 52.868C570.508 53.012 570.824 53.22 571.088 53.492C571.36 53.764 571.572 54.104 571.724 54.512C571.884 54.912 571.964 55.368 571.964 55.88C571.964 56.4 571.884 56.86 571.724 57.26C571.572 57.66 571.36 58 571.088 58.28C570.824 58.552 570.508 58.76 570.14 58.904C569.772 59.048 569.372 59.12 568.94 59.12ZM568.94 58.172C569.22 58.172 569.476 58.128 569.708 58.04C569.948 57.944 570.156 57.804 570.332 57.62C570.508 57.428 570.644 57.188 570.74 56.9C570.836 56.612 570.884 56.272 570.884 55.88C570.884 55.488 570.836 55.148 570.74 54.86C570.644 54.572 570.508 54.336 570.332 54.152C570.156 53.96 569.948 53.82 569.708 53.732C569.476 53.636 569.22 53.588 568.94 53.588C568.66 53.588 568.404 53.636 568.172 53.732C567.94 53.82 567.736 53.96 567.56 54.152C567.392 54.336 567.26 54.572 567.164 54.86C567.068 55.148 567.02 55.488 567.02 55.88C567.02 56.272 567.068 56.612 567.164 56.9C567.26 57.188 567.392 57.428 567.56 57.62C567.736 57.804 567.94 57.944 568.172 58.04C568.404 58.128 568.66 58.172 568.94 58.172ZM575.999 51.944C575.679 51.944 575.399 51.904 575.159 51.824C574.927 51.736 574.731 51.62 574.571 51.476C574.419 51.324 574.303 51.152 574.223 50.96C574.151 50.76 574.115 50.544 574.115 50.312H575.171C575.171 50.616 575.243 50.836 575.387 50.972C575.539 51.108 575.743 51.176 575.999 51.176C576.255 51.176 576.455 51.108 576.599 50.972C576.743 50.836 576.815 50.616 576.815 50.312H577.871C577.871 50.768 577.715 51.156 577.403 51.476C577.099 51.788 576.631 51.944 575.999 51.944ZM574.307 57.56L577.631 52.772H578.699V59H577.643V54.224L574.331 59H573.251V52.772H574.307V57.56ZM582.031 56.348H581.479V59H580.423V52.772H581.479V55.448H582.079L584.263 52.772H585.463L582.907 55.844L585.511 59H584.227L582.031 56.348ZM590.153 57.812C590.081 57.956 589.989 58.108 589.877 58.268C589.765 58.42 589.625 58.56 589.457 58.688C589.289 58.816 589.089 58.92 588.857 59C588.633 59.08 588.369 59.12 588.065 59.12C587.505 59.12 587.053 58.964 586.709 58.652C586.365 58.332 586.193 57.876 586.193 57.284C586.193 56.604 586.429 56.104 586.901 55.784C587.381 55.464 588.061 55.304 588.941 55.304H590.105V54.788C590.105 54.356 589.993 54.048 589.769 53.864C589.545 53.68 589.161 53.588 588.617 53.588C588.233 53.588 587.869 53.652 587.525 53.78C587.181 53.9 586.873 54.04 586.601 54.2V53.252C586.825 53.116 587.125 52.984 587.501 52.856C587.885 52.72 588.305 52.652 588.761 52.652C589.545 52.652 590.141 52.816 590.549 53.144C590.957 53.464 591.161 53.964 591.161 54.644V57.992C591.161 58.064 591.161 58.148 591.161 58.244C591.169 58.332 591.173 58.424 591.173 58.52C591.181 58.616 591.189 58.708 591.197 58.796C591.205 58.876 591.213 58.944 591.221 59H590.261C590.237 58.888 590.213 58.732 590.189 58.532C590.173 58.324 590.165 58.144 590.165 57.992L590.153 57.812ZM588.293 58.172C588.621 58.172 588.901 58.104 589.133 57.968C589.365 57.832 589.553 57.676 589.697 57.5C589.841 57.316 589.945 57.14 590.009 56.972C590.073 56.796 590.105 56.672 590.105 56.6V56.144H589.049C588.417 56.144 587.957 56.236 587.669 56.42C587.389 56.596 587.249 56.864 587.249 57.224C587.249 57.504 587.333 57.732 587.501 57.908C587.669 58.084 587.933 58.172 588.293 58.172Z" fill="#322A65"/>
<rect x="528" y="68" width="90" height="36" rx="10" fill="#D5FAF3"/>
<path d="M563.532 80.962H566.934C568.036 80.962 568.871 81.1487 569.44 81.522C570.019 81.8953 570.308 82.5253 570.308 83.412C570.308 83.776 570.257 84.0933 570.154 84.364C570.061 84.6253 569.926 84.854 569.748 85.05C569.58 85.2367 569.37 85.3907 569.118 85.512C568.876 85.6333 568.605 85.7267 568.306 85.792C569.09 85.8853 569.678 86.114 570.07 86.478C570.472 86.8327 570.672 87.374 570.672 88.102C570.672 88.6247 570.574 89.0727 570.378 89.446C570.192 89.81 569.93 90.1087 569.594 90.342C569.258 90.566 568.862 90.734 568.404 90.846C567.947 90.9487 567.448 91 566.906 91H563.532V80.962ZM564.848 82.166V85.246H566.836C567.154 85.246 567.443 85.2133 567.704 85.148C567.966 85.0733 568.19 84.966 568.376 84.826C568.563 84.6767 568.708 84.4947 568.81 84.28C568.922 84.056 568.978 83.79 568.978 83.482C568.978 82.9687 568.801 82.6233 568.446 82.446C568.092 82.2593 567.588 82.166 566.934 82.166H564.848ZM564.848 86.436V89.81H566.906C567.261 89.81 567.583 89.782 567.872 89.726C568.162 89.67 568.409 89.5767 568.614 89.446C568.829 89.3153 568.992 89.1427 569.104 88.928C569.226 88.7133 569.286 88.4473 569.286 88.13C569.286 87.4953 569.081 87.0567 568.67 86.814C568.269 86.562 567.63 86.436 566.752 86.436H564.848ZM577.512 88.004L580.774 80.962H582.482V91H581.152V82.922L578.072 89.46L577.414 89.474H576.826L576.84 89.46L573.802 82.81V91H572.556V80.962H574.39L577.512 88.004Z" fill="#322A65"/>
<path d="M37.3615 28.408V27.288H38.7755C39.4755 27.288 40.0075 27.1387 40.3715 26.84C40.7355 26.532 40.9175 26.112 40.9175 25.58C40.9175 25.0107 40.7261 24.6093 40.3435 24.376C39.9608 24.1333 39.4568 24.012 38.8315 24.012C38.1875 24.012 37.6088 24.082 37.0955 24.222C36.5821 24.362 36.1295 24.5347 35.7375 24.74V23.494C36.0455 23.3353 36.4468 23.186 36.9415 23.046C37.4455 22.906 38.0801 22.836 38.8455 22.836C39.8908 22.836 40.7215 23.0553 41.3375 23.494C41.9535 23.9233 42.2615 24.5907 42.2615 25.496C42.2615 26.084 42.0841 26.5693 41.7295 26.952C41.3841 27.3347 40.8755 27.6053 40.2035 27.764C40.9968 27.8667 41.5941 28.1093 41.9955 28.492C42.4061 28.8653 42.6115 29.402 42.6115 30.102C42.6115 30.634 42.5088 31.096 42.3035 31.488C42.0981 31.8707 41.8181 32.1833 41.4635 32.426C41.1181 32.6687 40.7075 32.8507 40.2315 32.972C39.7555 33.084 39.2515 33.14 38.7195 33.14C37.9635 33.14 37.3148 33.0513 36.7735 32.874C36.2321 32.6873 35.8355 32.4867 35.5835 32.272V31.012C36.4515 31.6373 37.4828 31.95 38.6775 31.95C39.0228 31.95 39.3495 31.922 39.6575 31.866C39.9655 31.8007 40.2361 31.698 40.4695 31.558C40.7028 31.418 40.8848 31.2313 41.0155 30.998C41.1555 30.7647 41.2255 30.4753 41.2255 30.13C41.2255 29.4953 41.0201 29.052 40.6095 28.8C40.2081 28.5387 39.6061 28.408 38.8035 28.408H37.3615ZM47.322 33.14C46.8274 33.14 46.3654 33.056 45.936 32.888C45.5067 32.72 45.1334 32.4773 44.816 32.16C44.508 31.8333 44.2654 31.4367 44.088 30.97C43.9107 30.5033 43.822 29.9667 43.822 29.36C43.822 28.7627 43.9107 28.2307 44.088 27.764C44.2654 27.288 44.508 26.8913 44.816 26.574C45.1334 26.2567 45.5067 26.014 45.936 25.846C46.3654 25.678 46.8274 25.594 47.322 25.594C47.826 25.594 48.2927 25.678 48.722 25.846C49.1514 26.014 49.52 26.2567 49.828 26.574C50.1454 26.8913 50.3927 27.288 50.57 27.764C50.7567 28.2307 50.85 28.7627 50.85 29.36C50.85 29.9667 50.7567 30.5033 50.57 30.97C50.3927 31.4367 50.1454 31.8333 49.828 32.16C49.52 32.4773 49.1514 32.72 48.722 32.888C48.2927 33.056 47.826 33.14 47.322 33.14ZM47.322 32.034C47.6487 32.034 47.9474 31.9827 48.218 31.88C48.498 31.768 48.7407 31.6047 48.946 31.39C49.1514 31.166 49.31 30.886 49.422 30.55C49.534 30.214 49.59 29.8173 49.59 29.36C49.59 28.9027 49.534 28.506 49.422 28.17C49.31 27.834 49.1514 27.5587 48.946 27.344C48.7407 27.12 48.498 26.9567 48.218 26.854C47.9474 26.742 47.6487 26.686 47.322 26.686C46.9954 26.686 46.6967 26.742 46.426 26.854C46.1554 26.9567 45.9174 27.12 45.712 27.344C45.516 27.5587 45.362 27.834 45.25 28.17C45.138 28.506 45.082 28.9027 45.082 29.36C45.082 29.8173 45.138 30.214 45.25 30.55C45.362 30.886 45.516 31.166 45.712 31.39C45.9174 31.6047 46.1554 31.768 46.426 31.88C46.6967 31.9827 46.9954 32.034 47.322 32.034ZM57.0978 29.78H53.5838V33H52.3518V25.734H53.5838V28.73H57.0978V25.734H58.3298V33H57.0978V29.78ZM64.6058 31.614C64.5218 31.782 64.4145 31.9593 64.2838 32.146C64.1531 32.3233 63.9898 32.4867 63.7938 32.636C63.5978 32.7853 63.3645 32.9067 63.0938 33C62.8325 33.0933 62.5245 33.14 62.1698 33.14C61.5165 33.14 60.9891 32.958 60.5878 32.594C60.1865 32.2207 59.9858 31.6887 59.9858 30.998C59.9858 30.2047 60.2611 29.6213 60.8118 29.248C61.3718 28.8747 62.1651 28.688 63.1918 28.688H64.5498V28.086C64.5498 27.582 64.4191 27.2227 64.1578 27.008C63.8965 26.7933 63.4485 26.686 62.8138 26.686C62.3658 26.686 61.9411 26.7607 61.5398 26.91C61.1385 27.05 60.7791 27.2133 60.4618 27.4V26.294C60.7231 26.1353 61.0731 25.9813 61.5118 25.832C61.9598 25.6733 62.4498 25.594 62.9818 25.594C63.8965 25.594 64.5918 25.7853 65.0678 26.168C65.5438 26.5413 65.7818 27.1247 65.7818 27.918V31.824C65.7818 31.908 65.7818 32.006 65.7818 32.118C65.7911 32.2207 65.7958 32.328 65.7958 32.44C65.8051 32.552 65.8145 32.6593 65.8238 32.762C65.8331 32.8553 65.8425 32.9347 65.8518 33H64.7318C64.7038 32.8693 64.6758 32.6873 64.6478 32.454C64.6291 32.2113 64.6198 32.0013 64.6198 31.824L64.6058 31.614ZM62.4358 32.034C62.8185 32.034 63.1451 31.9547 63.4158 31.796C63.6865 31.6373 63.9058 31.4553 64.0738 31.25C64.2418 31.0353 64.3631 30.83 64.4378 30.634C64.5125 30.4287 64.5498 30.284 64.5498 30.2V29.668H63.3178C62.5805 29.668 62.0438 29.7753 61.7078 29.99C61.3811 30.1953 61.2178 30.508 61.2178 30.928C61.2178 31.2547 61.3158 31.5207 61.5118 31.726C61.7078 31.9313 62.0158 32.034 62.4358 32.034ZM70.4031 31.95C70.6644 31.7913 70.8698 31.544 71.0191 31.208C71.1684 30.872 71.2851 30.4473 71.3691 29.934C71.4531 29.4207 71.5091 28.814 71.5371 28.114C71.5744 27.414 71.6071 26.6207 71.6351 25.734H76.6331V31.95H77.7251V35.072H76.6471L76.4931 33H71.0891L70.9631 35.072H69.8571V31.95H70.4031ZM75.4011 31.95V26.784H72.7411C72.6944 28.156 72.6058 29.2573 72.4751 30.088C72.3538 30.9093 72.1391 31.53 71.8311 31.95H75.4011ZM81.8572 33.14C81.3625 33.14 80.9005 33.056 80.4712 32.888C80.0419 32.72 79.6685 32.4773 79.3512 32.16C79.0432 31.8333 78.8005 31.4367 78.6232 30.97C78.4459 30.5033 78.3572 29.9667 78.3572 29.36C78.3572 28.7627 78.4459 28.2307 78.6232 27.764C78.8005 27.288 79.0432 26.8913 79.3512 26.574C79.6685 26.2567 80.0419 26.014 80.4712 25.846C80.9005 25.678 81.3625 25.594 81.8572 25.594C82.3612 25.594 82.8279 25.678 83.2572 25.846C83.6865 26.014 84.0552 26.2567 84.3632 26.574C84.6805 26.8913 84.9279 27.288 85.1052 27.764C85.2919 28.2307 85.3852 28.7627 85.3852 29.36C85.3852 29.9667 85.2919 30.5033 85.1052 30.97C84.9279 31.4367 84.6805 31.8333 84.3632 32.16C84.0552 32.4773 83.6865 32.72 83.2572 32.888C82.8279 33.056 82.3612 33.14 81.8572 33.14ZM81.8572 32.034C82.1839 32.034 82.4825 31.9827 82.7532 31.88C83.0332 31.768 83.2759 31.6047 83.4812 31.39C83.6865 31.166 83.8452 30.886 83.9572 30.55C84.0692 30.214 84.1252 29.8173 84.1252 29.36C84.1252 28.9027 84.0692 28.506 83.9572 28.17C83.8452 27.834 83.6865 27.5587 83.4812 27.344C83.2759 27.12 83.0332 26.9567 82.7532 26.854C82.4825 26.742 82.1839 26.686 81.8572 26.686C81.5305 26.686 81.2319 26.742 80.9612 26.854C80.6905 26.9567 80.4525 27.12 80.2472 27.344C80.0512 27.5587 79.8972 27.834 79.7852 28.17C79.6732 28.506 79.6172 28.9027 79.6172 29.36C79.6172 29.8173 79.6732 30.214 79.7852 30.55C79.8972 30.886 80.0512 31.166 80.2472 31.39C80.4525 31.6047 80.6905 31.768 80.9612 31.88C81.2319 31.9827 81.5305 32.034 81.8572 32.034ZM90.0229 33.14C89.4629 33.14 88.9542 33.056 88.4969 32.888C88.0489 32.7107 87.6662 32.4633 87.3489 32.146C87.0316 31.8193 86.7889 31.4227 86.6209 30.956C86.4529 30.4893 86.3689 29.9573 86.3689 29.36C86.3689 28.772 86.4529 28.2447 86.6209 27.778C86.7982 27.3113 87.0456 26.9193 87.3629 26.602C87.6802 26.2753 88.0676 26.028 88.5249 25.86C88.9822 25.6827 89.5002 25.594 90.0789 25.594C90.5269 25.594 90.9376 25.6453 91.3109 25.748C91.6842 25.8413 91.9922 25.9813 92.2349 26.168V27.274C91.9362 27.078 91.6002 26.9333 91.2269 26.84C90.8629 26.7373 90.4849 26.686 90.0929 26.686C89.2436 26.686 88.6182 26.9053 88.2169 27.344C87.8249 27.7827 87.6289 28.4547 87.6289 29.36C87.6289 30.2653 87.8202 30.9373 88.2029 31.376C88.5856 31.8147 89.1922 32.034 90.0229 32.034C90.4616 32.034 90.8629 31.9827 91.2269 31.88C91.6002 31.768 91.9362 31.628 92.2349 31.46V32.566C91.9736 32.7247 91.6562 32.86 91.2829 32.972C90.9189 33.084 90.4989 33.14 90.0229 33.14ZM96.8129 26.784V33H95.5809V26.784H93.2989V25.734H99.1369V26.784H96.8129ZM104.334 32.916C104.166 33.3547 103.989 33.7373 103.802 34.064C103.615 34.4 103.405 34.6847 103.172 34.918C102.939 35.1513 102.677 35.324 102.388 35.436C102.099 35.5573 101.767 35.618 101.394 35.618C101.207 35.618 101.035 35.604 100.876 35.576C100.717 35.5573 100.573 35.52 100.442 35.464V34.274C100.545 34.3487 100.675 34.4047 100.834 34.442C100.993 34.4887 101.165 34.512 101.352 34.512C101.697 34.512 101.982 34.428 102.206 34.26C102.43 34.1013 102.645 33.8447 102.85 33.49L99.8959 25.734H101.254L103.564 31.866L105.86 25.734H107.05L104.334 32.916ZM108.27 25.734H114.094V33H112.862V26.784H109.502V33H108.27V25.734ZM120.85 29.78H117.336V33H116.104V25.734H117.336V28.73H120.85V25.734H122.082V33H120.85V29.78ZM127.084 33.14C126.589 33.14 126.127 33.056 125.698 32.888C125.268 32.72 124.895 32.4773 124.578 32.16C124.27 31.8333 124.027 31.4367 123.85 30.97C123.672 30.5033 123.584 29.9667 123.584 29.36C123.584 28.7627 123.672 28.2307 123.85 27.764C124.027 27.288 124.27 26.8913 124.578 26.574C124.895 26.2567 125.268 26.014 125.698 25.846C126.127 25.678 126.589 25.594 127.084 25.594C127.588 25.594 128.054 25.678 128.484 25.846C128.913 26.014 129.282 26.2567 129.59 26.574C129.907 26.8913 130.154 27.288 130.332 27.764C130.518 28.2307 130.612 28.7627 130.612 29.36C130.612 29.9667 130.518 30.5033 130.332 30.97C130.154 31.4367 129.907 31.8333 129.59 32.16C129.282 32.4773 128.913 32.72 128.484 32.888C128.054 33.056 127.588 33.14 127.084 33.14ZM127.084 32.034C127.41 32.034 127.709 31.9827 127.98 31.88C128.26 31.768 128.502 31.6047 128.708 31.39C128.913 31.166 129.072 30.886 129.184 30.55C129.296 30.214 129.352 29.8173 129.352 29.36C129.352 28.9027 129.296 28.506 129.184 28.17C129.072 27.834 128.913 27.5587 128.708 27.344C128.502 27.12 128.26 26.9567 127.98 26.854C127.709 26.742 127.41 26.686 127.084 26.686C126.757 26.686 126.458 26.742 126.188 26.854C125.917 26.9567 125.679 27.12 125.474 27.344C125.278 27.5587 125.124 27.834 125.012 28.17C124.9 28.506 124.844 28.9027 124.844 29.36C124.844 29.8173 124.9 30.214 125.012 30.55C125.124 30.886 125.278 31.166 125.474 31.39C125.679 31.6047 125.917 31.768 126.188 31.88C126.458 31.9827 126.757 32.034 127.084 32.034ZM135.249 33.14C134.689 33.14 134.181 33.056 133.723 32.888C133.275 32.7107 132.893 32.4633 132.575 32.146C132.258 31.8193 132.015 31.4227 131.847 30.956C131.679 30.4893 131.595 29.9573 131.595 29.36C131.595 28.772 131.679 28.2447 131.847 27.778C132.025 27.3113 132.272 26.9193 132.589 26.602C132.907 26.2753 133.294 26.028 133.751 25.86C134.209 25.6827 134.727 25.594 135.305 25.594C135.753 25.594 136.164 25.6453 136.537 25.748C136.911 25.8413 137.219 25.9813 137.461 26.168V27.274C137.163 27.078 136.827 26.9333 136.453 26.84C136.089 26.7373 135.711 26.686 135.319 26.686C134.47 26.686 133.845 26.9053 133.443 27.344C133.051 27.7827 132.855 28.4547 132.855 29.36C132.855 30.2653 133.047 30.9373 133.429 31.376C133.812 31.8147 134.419 32.034 135.249 32.034C135.688 32.034 136.089 31.9827 136.453 31.88C136.827 31.768 137.163 31.628 137.461 31.46V32.566C137.2 32.7247 136.883 32.86 136.509 32.972C136.145 33.084 135.725 33.14 135.249 33.14ZM142.039 26.784V33H140.807V26.784H138.525V25.734H144.363V26.784H142.039ZM147.017 31.32L150.895 25.734H152.141V33H150.909V27.428L147.045 33H145.785V25.734H147.017V31.32Z" fill="#322A65"/>
<path d="M266.332 160.962H272.184V162.166H267.648V171H266.332V160.962ZM276.6 171.14C276.04 171.14 275.554 171.009 275.144 170.748C274.742 170.487 274.42 170.127 274.178 169.67V173.478H272.946V163.734H274.024L274.15 165.148C274.392 164.672 274.719 164.294 275.13 164.014C275.54 163.734 276.049 163.594 276.656 163.594C277.076 163.594 277.477 163.673 277.86 163.832C278.252 163.981 278.592 164.215 278.882 164.532C279.18 164.84 279.413 165.232 279.582 165.708C279.759 166.175 279.847 166.725 279.847 167.36C279.847 168.004 279.759 168.564 279.582 169.04C279.404 169.507 279.166 169.899 278.868 170.216C278.569 170.524 278.224 170.757 277.832 170.916C277.44 171.065 277.029 171.14 276.6 171.14ZM276.418 170.034C277.062 170.034 277.58 169.815 277.972 169.376C278.373 168.928 278.574 168.256 278.574 167.36C278.574 166.483 278.373 165.82 277.972 165.372C277.58 164.915 277.062 164.686 276.418 164.686C276.1 164.686 275.802 164.742 275.522 164.854C275.251 164.966 275.013 165.134 274.808 165.358C274.612 165.573 274.453 165.848 274.332 166.184C274.22 166.52 274.164 166.912 274.164 167.36C274.164 167.808 274.22 168.2 274.332 168.536C274.453 168.872 274.612 169.152 274.808 169.376C275.013 169.6 275.251 169.768 275.522 169.88C275.802 169.983 276.1 170.034 276.418 170.034ZM284.842 170.916C284.674 171.355 284.496 171.737 284.31 172.064C284.123 172.4 283.913 172.685 283.68 172.918C283.446 173.151 283.185 173.324 282.896 173.436C282.606 173.557 282.275 173.618 281.902 173.618C281.715 173.618 281.542 173.604 281.384 173.576C281.225 173.557 281.08 173.52 280.95 173.464V172.274C281.052 172.349 281.183 172.405 281.342 172.442C281.5 172.489 281.673 172.512 281.86 172.512C282.205 172.512 282.49 172.428 282.714 172.26C282.938 172.101 283.152 171.845 283.358 171.49L280.404 163.734H281.762L284.072 169.866L286.368 163.734H287.558L284.842 170.916ZM288.778 163.734H294.602V171H293.37V164.784H290.01V171H288.778V163.734ZM296.612 163.734H302.436V171H301.204V164.784H297.844V171H296.612V163.734ZM308.702 169.614C308.618 169.782 308.51 169.959 308.38 170.146C308.249 170.323 308.086 170.487 307.89 170.636C307.694 170.785 307.46 170.907 307.19 171C306.928 171.093 306.62 171.14 306.266 171.14C305.612 171.14 305.085 170.958 304.684 170.594C304.282 170.221 304.082 169.689 304.082 168.998C304.082 168.205 304.357 167.621 304.908 167.248C305.468 166.875 306.261 166.688 307.288 166.688H308.646V166.086C308.646 165.582 308.515 165.223 308.254 165.008C307.992 164.793 307.544 164.686 306.91 164.686C306.462 164.686 306.037 164.761 305.636 164.91C305.234 165.05 304.875 165.213 304.558 165.4V164.294C304.819 164.135 305.169 163.981 305.608 163.832C306.056 163.673 306.546 163.594 307.078 163.594C307.992 163.594 308.688 163.785 309.164 164.168C309.64 164.541 309.878 165.125 309.878 165.918V169.824C309.878 169.908 309.878 170.006 309.878 170.118C309.887 170.221 309.892 170.328 309.892 170.44C309.901 170.552 309.91 170.659 309.92 170.762C309.929 170.855 309.938 170.935 309.948 171H308.828C308.8 170.869 308.772 170.687 308.744 170.454C308.725 170.211 308.716 170.001 308.716 169.824L308.702 169.614ZM306.532 170.034C306.914 170.034 307.241 169.955 307.512 169.796C307.782 169.637 308.002 169.455 308.17 169.25C308.338 169.035 308.459 168.83 308.534 168.634C308.608 168.429 308.646 168.284 308.646 168.2V167.668H307.414C306.676 167.668 306.14 167.775 305.804 167.99C305.477 168.195 305.314 168.508 305.314 168.928C305.314 169.255 305.412 169.521 305.608 169.726C305.804 169.931 306.112 170.034 306.532 170.034ZM318.545 171.14C317.985 171.14 317.499 171.009 317.089 170.748C316.687 170.487 316.365 170.127 316.123 169.67V173.478H314.891V163.734H315.969L316.095 165.148C316.337 164.672 316.664 164.294 317.075 164.014C317.485 163.734 317.994 163.594 318.601 163.594C319.021 163.594 319.422 163.673 319.805 163.832C320.197 163.981 320.537 164.215 320.827 164.532C321.125 164.84 321.359 165.232 321.527 165.708C321.704 166.175 321.793 166.725 321.793 167.36C321.793 168.004 321.704 168.564 321.527 169.04C321.349 169.507 321.111 169.899 320.813 170.216C320.514 170.524 320.169 170.757 319.777 170.916C319.385 171.065 318.974 171.14 318.545 171.14ZM318.363 170.034C319.007 170.034 319.525 169.815 319.917 169.376C320.318 168.928 320.519 168.256 320.519 167.36C320.519 166.483 320.318 165.82 319.917 165.372C319.525 164.915 319.007 164.686 318.363 164.686C318.045 164.686 317.747 164.742 317.467 164.854C317.196 164.966 316.958 165.134 316.753 165.358C316.557 165.573 316.398 165.848 316.277 166.184C316.165 166.52 316.109 166.912 316.109 167.36C316.109 167.808 316.165 168.2 316.277 168.536C316.398 168.872 316.557 169.152 316.753 169.376C316.958 169.6 317.196 169.768 317.467 169.88C317.747 169.983 318.045 170.034 318.363 170.034ZM327.473 169.614C327.389 169.782 327.282 169.959 327.151 170.146C327.02 170.323 326.857 170.487 326.661 170.636C326.465 170.785 326.232 170.907 325.961 171C325.7 171.093 325.392 171.14 325.037 171.14C324.384 171.14 323.856 170.958 323.455 170.594C323.054 170.221 322.853 169.689 322.853 168.998C322.853 168.205 323.128 167.621 323.679 167.248C324.239 166.875 325.032 166.688 326.059 166.688H327.417V166.086C327.417 165.582 327.286 165.223 327.025 165.008C326.764 164.793 326.316 164.686 325.681 164.686C325.233 164.686 324.808 164.761 324.407 164.91C324.006 165.05 323.646 165.213 323.329 165.4V164.294C323.59 164.135 323.94 163.981 324.379 163.832C324.827 163.673 325.317 163.594 325.849 163.594C326.764 163.594 327.459 163.785 327.935 164.168C328.411 164.541 328.649 165.125 328.649 165.918V169.824C328.649 169.908 328.649 170.006 328.649 170.118C328.658 170.221 328.663 170.328 328.663 170.44C328.672 170.552 328.682 170.659 328.691 170.762C328.7 170.855 328.71 170.935 328.719 171H327.599C327.571 170.869 327.543 170.687 327.515 170.454C327.496 170.211 327.487 170.001 327.487 169.824L327.473 169.614ZM325.303 170.034C325.686 170.034 326.012 169.955 326.283 169.796C326.554 169.637 326.773 169.455 326.941 169.25C327.109 169.035 327.23 168.83 327.305 168.634C327.38 168.429 327.417 168.284 327.417 168.2V167.668H326.185C325.448 167.668 324.911 167.775 324.575 167.99C324.248 168.195 324.085 168.508 324.085 168.928C324.085 169.255 324.183 169.521 324.379 169.726C324.575 169.931 324.883 170.034 325.303 170.034ZM335.738 168.886C335.738 169.297 335.654 169.647 335.486 169.936C335.327 170.216 335.108 170.449 334.828 170.636C334.548 170.813 334.221 170.939 333.848 171.014C333.484 171.098 333.101 171.14 332.7 171.14C332.168 171.14 331.697 171.084 331.286 170.972C330.885 170.86 330.567 170.725 330.334 170.566V169.46C330.623 169.637 330.969 169.777 331.37 169.88C331.771 169.983 332.205 170.034 332.672 170.034C333.204 170.034 333.647 169.95 334.002 169.782C334.366 169.605 334.548 169.306 334.548 168.886C334.548 168.475 334.394 168.186 334.086 168.018C333.787 167.85 333.325 167.766 332.7 167.766H331.734V166.772H332.742C333.255 166.772 333.647 166.679 333.918 166.492C334.189 166.305 334.324 166.035 334.324 165.68C334.324 165.493 334.277 165.339 334.184 165.218C334.1 165.087 333.983 164.985 333.834 164.91C333.685 164.826 333.507 164.77 333.302 164.742C333.106 164.705 332.896 164.686 332.672 164.686C332.243 164.686 331.841 164.737 331.468 164.84C331.104 164.943 330.773 165.087 330.474 165.274V164.168C330.717 164.009 331.029 163.874 331.412 163.762C331.804 163.65 332.257 163.594 332.77 163.594C333.657 163.594 334.324 163.762 334.772 164.098C335.229 164.434 335.458 164.919 335.458 165.554C335.458 166.03 335.327 166.403 335.066 166.674C334.814 166.945 334.455 167.131 333.988 167.234C334.567 167.309 335.001 167.491 335.29 167.78C335.589 168.069 335.738 168.438 335.738 168.886ZM344.475 165.162L342.011 170.188H341.031L338.707 165.134V171H337.545V163.734H339.379L341.605 168.606L343.985 163.734H345.693V171H344.475V165.162ZM353.485 170.384C353.383 170.459 353.257 170.538 353.107 170.622C352.958 170.706 352.776 170.79 352.561 170.874C352.347 170.949 352.104 171.009 351.833 171.056C351.563 171.112 351.259 171.14 350.923 171.14C349.701 171.14 348.772 170.809 348.137 170.146C347.503 169.483 347.185 168.555 347.185 167.36C347.185 166.772 347.269 166.245 347.437 165.778C347.615 165.311 347.857 164.919 348.165 164.602C348.473 164.275 348.837 164.028 349.257 163.86C349.677 163.683 350.135 163.594 350.629 163.594C351.152 163.594 351.619 163.683 352.029 163.86C352.44 164.037 352.776 164.299 353.037 164.644C353.308 164.989 353.49 165.419 353.583 165.932C353.686 166.436 353.686 167.024 353.583 167.696H348.459C348.506 168.48 348.739 169.068 349.159 169.46C349.579 169.843 350.205 170.034 351.035 170.034C351.595 170.034 352.076 169.955 352.477 169.796C352.879 169.637 353.215 169.465 353.485 169.278V170.384ZM350.601 164.686C350.069 164.686 349.612 164.849 349.229 165.176C348.847 165.503 348.604 165.997 348.501 166.66H352.407C352.445 165.988 352.291 165.493 351.945 165.176C351.6 164.849 351.152 164.686 350.601 164.686ZM364.309 169.95H365.401V173.072H364.351L364.197 171H355.237V163.734H356.469V169.95H359.157V163.734H360.389V169.95H363.077V163.734H364.309V169.95ZM372.339 170.384C372.236 170.459 372.11 170.538 371.961 170.622C371.811 170.706 371.629 170.79 371.415 170.874C371.2 170.949 370.957 171.009 370.687 171.056C370.416 171.112 370.113 171.14 369.777 171.14C368.554 171.14 367.625 170.809 366.991 170.146C366.356 169.483 366.039 168.555 366.039 167.36C366.039 166.772 366.123 166.245 366.291 165.778C366.468 165.311 366.711 164.919 367.019 164.602C367.327 164.275 367.691 164.028 368.111 163.86C368.531 163.683 368.988 163.594 369.483 163.594C370.005 163.594 370.472 163.683 370.883 163.86C371.293 164.037 371.629 164.299 371.891 164.644C372.161 164.989 372.343 165.419 372.437 165.932C372.539 166.436 372.539 167.024 372.437 167.696H367.313C367.359 168.48 367.593 169.068 368.013 169.46C368.433 169.843 369.058 170.034 369.889 170.034C370.449 170.034 370.929 169.955 371.331 169.796C371.732 169.637 372.068 169.465 372.339 169.278V170.384ZM369.455 164.686C368.923 164.686 368.465 164.849 368.083 165.176C367.7 165.503 367.457 165.997 367.355 166.66H371.261C371.298 165.988 371.144 165.493 370.799 165.176C370.453 164.849 370.005 164.686 369.455 164.686ZM378.836 167.78H375.322V171H374.09V163.734H375.322V166.73H378.836V163.734H380.068V171H378.836V167.78ZM383.32 169.32L387.198 163.734H388.444V171H387.212V165.428L383.348 171H382.088V163.734H383.32V169.32ZM390.455 166.086C390.455 165.675 390.53 165.325 390.679 165.036C390.829 164.737 391.039 164.495 391.309 164.308C391.58 164.112 391.902 163.967 392.275 163.874C392.649 163.781 393.055 163.734 393.493 163.734H395.831V171H394.599V168.368H393.269L391.407 171H389.937L392.037 168.06C391.533 167.911 391.141 167.682 390.861 167.374C390.591 167.066 390.455 166.637 390.455 166.086ZM394.599 167.318V164.784H393.493C392.971 164.784 392.541 164.882 392.205 165.078C391.869 165.274 391.701 165.591 391.701 166.03C391.701 166.487 391.851 166.819 392.149 167.024C392.448 167.22 392.873 167.318 393.423 167.318H394.599Z" fill="#322A65"/>
<path d="M575.099 106L572.212 111L577.986 111L575.099 106ZM85 106L82.1132 111L87.8867 111L85 106ZM574.599 110.5L574.599 148L575.599 148L575.599 110.5L574.599 110.5ZM567.099 155.5L93 155.5L93 156.5L567.099 156.5L567.099 155.5ZM85.5 148L85.5 110.5L84.5 110.5L84.5 148L85.5 148ZM93 155.5C88.8578 155.5 85.5 152.142 85.5 148L84.5 148C84.5 152.694 88.3056 156.5 93 156.5L93 155.5ZM574.599 148C574.599 152.142 571.241 155.5 567.099 155.5L567.099 156.5C571.793 156.5 575.599 152.694 575.599 148L574.599 148Z" fill="black" fill-opacity="0.7"/>
<path d="M452.574 106L449.687 111L455.461 111L452.574 106ZM210 106L207.113 111L212.887 111L210 106ZM452.074 110.5L452.074 148L453.074 148L453.074 110.5L452.074 110.5ZM444.574 155.5L218 155.5L218 156.5L444.574 156.5L444.574 155.5ZM210.5 148L210.5 110.5L209.5 110.5L209.5 148L210.5 148ZM218 155.5C213.858 155.5 210.5 152.142 210.5 148L209.5 148C209.5 152.694 213.306 156.5 218 156.5L218 155.5ZM452.074 148C452.074 152.142 448.716 155.5 444.574 155.5L444.574 156.5C449.269 156.5 453.074 152.694 453.074 148L452.074 148Z" fill="black" fill-opacity="0.7"/>
<path d="M330 105.026L332.887 110.026L327.113 110.026L330 105.026ZM329.5 156C329.5 155.948 329.5 155.896 329.5 155.844C329.5 155.792 329.5 155.739 329.5 155.688C329.5 155.636 329.5 155.584 329.5 155.532C329.5 155.48 329.5 155.428 329.5 155.376C329.5 155.324 329.5 155.273 329.5 155.221C329.5 155.169 329.5 155.118 329.5 155.066C329.5 155.015 329.5 154.963 329.5 154.912C329.5 154.86 329.5 154.809 329.5 154.757C329.5 154.706 329.5 154.655 329.5 154.603C329.5 154.552 329.5 154.501 329.5 154.45C329.5 154.398 329.5 154.347 329.5 154.296C329.5 154.245 329.5 154.194 329.5 154.143C329.5 154.092 329.5 154.041 329.5 153.99C329.5 153.939 329.5 153.889 329.5 153.838C329.5 153.787 329.5 153.736 329.5 153.686C329.5 153.635 329.5 153.584 329.5 153.534C329.5 153.483 329.5 153.433 329.5 153.382C329.5 153.332 329.5 153.281 329.5 153.231C329.5 153.18 329.5 153.13 329.5 153.08C329.5 153.029 329.5 152.979 329.5 152.929C329.5 152.879 329.5 152.829 329.5 152.779C329.5 152.728 329.5 152.678 329.5 152.628C329.5 152.578 329.5 152.528 329.5 152.479C329.5 152.429 329.5 152.379 329.5 152.329C329.5 152.279 329.5 152.23 329.5 152.18C329.5 152.13 329.5 152.08 329.5 152.031C329.5 151.981 329.5 151.932 329.5 151.882C329.5 151.833 329.5 151.783 329.5 151.734C329.5 151.684 329.5 151.635 329.5 151.586C329.5 151.536 329.5 151.487 329.5 151.438C329.5 151.389 329.5 151.34 329.5 151.291C329.5 151.241 329.5 151.192 329.5 151.143C329.5 151.094 329.5 151.045 329.5 150.996C329.5 150.948 329.5 150.899 329.5 150.85C329.5 150.801 329.5 150.752 329.5 150.704C329.5 150.655 329.5 150.606 329.5 150.558C329.5 150.509 329.5 150.46 329.5 150.412C329.5 150.363 329.5 150.315 329.5 150.266C329.5 150.218 329.5 150.17 329.5 150.121C329.5 150.073 329.5 150.025 329.5 149.976C329.5 149.928 329.5 149.88 329.5 149.832C329.5 149.784 329.5 149.736 329.5 149.688C329.5 149.64 329.5 149.592 329.5 149.544C329.5 149.496 329.5 149.448 329.5 149.4C329.5 149.352 329.5 149.304 329.5 149.256C329.5 149.209 329.5 149.161 329.5 149.113C329.5 149.066 329.5 149.018 329.5 148.971C329.5 148.923 329.5 148.875 329.5 148.828C329.5 148.781 329.5 148.733 329.5 148.686C329.5 148.638 329.5 148.591 329.5 148.544C329.5 148.497 329.5 148.449 329.5 148.402C329.5 148.355 329.5 148.308 329.5 148.261C329.5 148.214 329.5 148.167 329.5 148.12C329.5 148.073 329.5 148.026 329.5 147.979C329.5 147.932 329.5 147.885 329.5 147.838C329.5 147.792 329.5 147.745 329.5 147.698C329.5 147.651 329.5 147.605 329.5 147.558C329.5 147.512 329.5 147.465 329.5 147.419C329.5 147.372 329.5 147.326 329.5 147.279C329.5 147.233 329.5 147.186 329.5 147.14C329.5 147.094 329.5 147.048 329.5 147.001C329.5 146.955 329.5 146.909 329.5 146.863C329.5 146.817 329.5 146.771 329.5 146.725C329.5 146.679 329.5 146.633 329.5 146.587C329.5 146.541 329.5 146.495 329.5 146.449C329.5 146.403 329.5 146.357 329.5 146.312C329.5 146.266 329.5 146.22 329.5 146.175C329.5 146.129 329.5 146.083 329.5 146.038C329.5 145.992 329.5 145.947 329.5 145.901C329.5 145.856 329.5 145.81 329.5 145.765C329.5 145.72 329.5 145.674 329.5 145.629C329.5 145.584 329.5 145.539 329.5 145.493C329.5 145.448 329.5 145.403 329.5 145.358C329.5 145.313 329.5 145.268 329.5 145.223C329.5 145.178 329.5 145.133 329.5 145.088C329.5 145.043 329.5 144.998 329.5 144.953C329.5 144.909 329.5 144.864 329.5 144.819C329.5 144.775 329.5 144.73 329.5 144.685C329.5 144.641 329.5 144.596 329.5 144.552C329.5 144.507 329.5 144.463 329.5 144.418C329.5 144.374 329.5 144.329 329.5 144.285C329.5 144.241 329.5 144.196 329.5 144.152C329.5 144.108 329.5 144.064 329.5 144.02C329.5 143.975 329.5 143.931 329.5 143.887C329.5 143.843 329.5 143.799 329.5 143.755C329.5 143.711 329.5 143.667 329.5 143.623C329.5 143.58 329.5 143.536 329.5 143.492C329.5 143.448 329.5 143.405 329.5 143.361C329.5 143.317 329.5 143.274 329.5 143.23C329.5 143.186 329.5 143.143 329.5 143.099C329.5 143.056 329.5 143.012 329.5 142.969C329.5 142.926 329.5 142.882 329.5 142.839C329.5 142.796 329.5 142.752 329.5 142.709C329.5 142.666 329.5 142.623 329.5 142.58C329.5 142.536 329.5 142.493 329.5 142.45C329.5 142.407 329.5 142.364 329.5 142.321C329.5 142.278 329.5 142.236 329.5 142.193C329.5 142.15 329.5 142.107 329.5 142.064C329.5 142.022 329.5 141.979 329.5 141.936C329.5 141.894 329.5 141.851 329.5 141.808C329.5 141.766 329.5 141.723 329.5 141.681C329.5 141.638 329.5 141.596 329.5 141.553C329.5 141.511 329.5 141.469 329.5 141.426C329.5 141.384 329.5 141.342 329.5 141.3C329.5 141.257 329.5 141.215 329.5 141.173C329.5 141.131 329.5 141.089 329.5 141.047C329.5 141.005 329.5 140.963 329.5 140.921C329.5 140.879 329.5 140.837 329.5 140.795C329.5 140.753 329.5 140.712 329.5 140.67C329.5 140.628 329.5 140.586 329.5 140.545C329.5 140.503 329.5 140.462 329.5 140.42C329.5 140.378 329.5 140.337 329.5 140.295C329.5 140.254 329.5 140.213 329.5 140.171C329.5 140.13 329.5 140.088 329.5 140.047C329.5 140.006 329.5 139.965 329.5 139.923C329.5 139.882 329.5 139.841 329.5 139.8C329.5 139.759 329.5 139.718 329.5 139.677C329.5 139.636 329.5 139.595 329.5 139.554C329.5 139.513 329.5 139.472 329.5 139.431C329.5 139.39 329.5 139.349 329.5 139.309C329.5 139.268 329.5 139.227 329.5 139.186C329.5 139.146 329.5 139.105 329.5 139.065C329.5 139.024 329.5 138.984 329.5 138.943C329.5 138.903 329.5 138.862 329.5 138.822C329.5 138.781 329.5 138.741 329.5 138.701C329.5 138.66 329.5 138.62 329.5 138.58C329.5 138.54 329.5 138.499 329.5 138.459C329.5 138.419 329.5 138.379 329.5 138.339C329.5 138.299 329.5 138.259 329.5 138.219C329.5 138.179 329.5 138.139 329.5 138.099C329.5 138.06 329.5 138.02 329.5 137.98C329.5 137.94 329.5 137.9 329.5 137.861C329.5 137.821 329.5 137.781 329.5 137.742C329.5 137.702 329.5 137.663 329.5 137.623C329.5 137.584 329.5 137.544 329.5 137.505C329.5 137.465 329.5 137.426 329.5 137.387C329.5 137.347 329.5 137.308 329.5 137.269C329.5 137.23 329.5 137.19 329.5 137.151C329.5 137.112 329.5 137.073 329.5 137.034C329.5 136.995 329.5 136.956 329.5 136.917C329.5 136.878 329.5 136.839 329.5 136.8C329.5 136.761 329.5 136.722 329.5 136.684C329.5 136.645 329.5 136.606 329.5 136.567C329.5 136.529 329.5 136.49 329.5 136.451C329.5 136.413 329.5 136.374 329.5 136.336C329.5 136.297 329.5 136.259 329.5 136.22C329.5 136.182 329.5 136.143 329.5 136.105C329.5 136.067 329.5 136.028 329.5 135.99C329.5 135.952 329.5 135.914 329.5 135.875C329.5 135.837 329.5 135.799 329.5 135.761C329.5 135.723 329.5 135.685 329.5 135.647C329.5 135.609 329.5 135.571 329.5 135.533C329.5 135.495 329.5 135.457 329.5 135.419C329.5 135.381 329.5 135.344 329.5 135.306C329.5 135.268 329.5 135.231 329.5 135.193C329.5 135.155 329.5 135.118 329.5 135.08C329.5 135.042 329.5 135.005 329.5 134.967C329.5 134.93 329.5 134.892 329.5 134.855C329.5 134.818 329.5 134.78 329.5 134.743C329.5 134.706 329.5 134.668 329.5 134.631C329.5 134.594 329.5 134.557 329.5 134.52C329.5 134.483 329.5 134.445 329.5 134.408C329.5 134.371 329.5 134.334 329.5 134.297C329.5 134.26 329.5 134.224 329.5 134.187C329.5 134.15 329.5 134.113 329.5 134.076C329.5 134.039 329.5 134.003 329.5 133.966C329.5 133.929 329.5 133.893 329.5 133.856C329.5 133.819 329.5 133.783 329.5 133.746C329.5 133.71 329.5 133.673 329.5 133.637C329.5 133.6 329.5 133.564 329.5 133.527C329.5 133.491 329.5 133.455 329.5 133.419C329.5 133.382 329.5 133.346 329.5 133.31C329.5 133.274 329.5 133.237 329.5 133.201C329.5 133.165 329.5 133.129 329.5 133.093C329.5 133.057 329.5 133.021 329.5 132.985C329.5 132.949 329.5 132.913 329.5 132.878C329.5 132.842 329.5 132.806 329.5 132.77C329.5 132.734 329.5 132.699 329.5 132.663C329.5 132.627 329.5 132.592 329.5 132.556C329.5 132.52 329.5 132.485 329.5 132.449C329.5 132.414 329.5 132.378 329.5 132.343C329.5 132.308 329.5 132.272 329.5 132.237C329.5 132.202 329.5 132.166 329.5 132.131C329.5 132.096 329.5 132.06 329.5 132.025C329.5 131.99 329.5 131.955 329.5 131.92C329.5 131.885 329.5 131.85 329.5 131.815C329.5 131.78 329.5 131.745 329.5 131.71C329.5 131.675 329.5 131.64 329.5 131.605C329.5 131.57 329.5 131.536 329.5 131.501C329.5 131.466 329.5 131.431 329.5 131.397C329.5 131.362 329.5 131.328 329.5 131.293C329.5 131.258 329.5 131.224 329.5 131.189C329.5 131.155 329.5 131.12 329.5 131.086C329.5 131.052 329.5 131.017 329.5 130.983C329.5 130.948 329.5 130.914 329.5 130.88C329.5 130.846 329.5 130.812 329.5 130.777C329.5 130.743 329.5 130.709 329.5 130.675C329.5 130.641 329.5 130.607 329.5 130.573C329.5 130.539 329.5 130.505 329.5 130.471C329.5 130.437 329.5 130.403 329.5 130.369C329.5 130.336 329.5 130.302 329.5 130.268C329.5 130.234 329.5 130.201 329.5 130.167C329.5 130.133 329.5 130.1 329.5 130.066C329.5 130.032 329.5 129.999 329.5 129.965C329.5 129.932 329.5 129.898 329.5 129.865C329.5 129.832 329.5 129.798 329.5 129.765C329.5 129.732 329.5 129.698 329.5 129.665C329.5 129.632 329.5 129.599 329.5 129.565C329.5 129.532 329.5 129.499 329.5 129.466C329.5 129.433 329.5 129.4 329.5 129.367C329.5 129.334 329.5 129.301 329.5 129.268C329.5 129.235 329.5 129.202 329.5 129.169C329.5 129.137 329.5 129.104 329.5 129.071C329.5 129.038 329.5 129.006 329.5 128.973C329.5 128.94 329.5 128.908 329.5 128.875C329.5 128.842 329.5 128.81 329.5 128.777C329.5 128.745 329.5 128.712 329.5 128.68C329.5 128.647 329.5 128.615 329.5 128.583C329.5 128.55 329.5 128.518 329.5 128.486C329.5 128.454 329.5 128.421 329.5 128.389C329.5 128.357 329.5 128.325 329.5 128.293C329.5 128.261 329.5 128.228 329.5 128.196C329.5 128.164 329.5 128.132 329.5 128.101C329.5 128.069 329.5 128.037 329.5 128.005C329.5 127.973 329.5 127.941 329.5 127.909C329.5 127.878 329.5 127.846 329.5 127.814C329.5 127.782 329.5 127.751 329.5 127.719C329.5 127.688 329.5 127.656 329.5 127.624C329.5 127.593 329.5 127.561 329.5 127.53C329.5 127.498 329.5 127.467 329.5 127.436C329.5 127.404 329.5 127.373 329.5 127.342C329.5 127.31 329.5 127.279 329.5 127.248C329.5 127.217 329.5 127.186 329.5 127.154C329.5 127.123 329.5 127.092 329.5 127.061C329.5 127.03 329.5 126.999 329.5 126.968C329.5 126.937 329.5 126.906 329.5 126.875C329.5 126.844 329.5 126.814 329.5 126.783C329.5 126.752 329.5 126.721 329.5 126.69C329.5 126.66 329.5 126.629 329.5 126.598C329.5 126.568 329.5 126.537 329.5 126.506C329.5 126.476 329.5 126.445 329.5 126.415C329.5 126.384 329.5 126.354 329.5 126.323C329.5 126.293 329.5 126.263 329.5 126.232C329.5 126.202 329.5 126.172 329.5 126.141C329.5 126.111 329.5 126.081 329.5 126.051C329.5 126.021 329.5 125.99 329.5 125.96C329.5 125.93 329.5 125.9 329.5 125.87C329.5 125.84 329.5 125.81 329.5 125.78C329.5 125.75 329.5 125.72 329.5 125.691C329.5 125.661 329.5 125.631 329.5 125.601C329.5 125.571 329.5 125.542 329.5 125.512C329.5 125.482 329.5 125.452 329.5 125.423C329.5 125.393 329.5 125.364 329.5 125.334C329.5 125.305 329.5 125.275 329.5 125.246C329.5 125.216 329.5 125.187 329.5 125.157C329.5 125.128 329.5 125.099 329.5 125.069C329.5 125.04 329.5 125.011 329.5 124.981C329.5 124.952 329.5 124.923 329.5 124.894C329.5 124.865 329.5 124.836 329.5 124.806C329.5 124.777 329.5 124.748 329.5 124.719C329.5 124.69 329.5 124.661 329.5 124.633C329.5 124.604 329.5 124.575 329.5 124.546C329.5 124.517 329.5 124.488 329.5 124.459C329.5 124.431 329.5 124.402 329.5 124.373C329.5 124.345 329.5 124.316 329.5 124.287C329.5 124.259 329.5 124.23 329.5 124.202C329.5 124.173 329.5 124.145 329.5 124.116C329.5 124.088 329.5 124.059 329.5 124.031C329.5 124.002 329.5 123.974 329.5 123.946C329.5 123.918 329.5 123.889 329.5 123.861C329.5 123.833 329.5 123.805 329.5 123.776C329.5 123.748 329.5 123.72 329.5 123.692C329.5 123.664 329.5 123.636 329.5 123.608C329.5 123.58 329.5 123.552 329.5 123.524C329.5 123.496 329.5 123.468 329.5 123.441C329.5 123.413 329.5 123.385 329.5 123.357C329.5 123.329 329.5 123.302 329.5 123.274C329.5 123.246 329.5 123.219 329.5 123.191C329.5 123.163 329.5 123.136 329.5 123.108C329.5 123.081 329.5 123.053 329.5 123.026C329.5 122.998 329.5 122.971 329.5 122.944C329.5 122.916 329.5 122.889 329.5 122.862C329.5 122.834 329.5 122.807 329.5 122.78C329.5 122.752 329.5 122.725 329.5 122.698C329.5 122.671 329.5 122.644 329.5 122.617C329.5 122.59 329.5 122.563 329.5 122.536C329.5 122.509 329.5 122.482 329.5 122.455C329.5 122.428 329.5 122.401 329.5 122.374C329.5 122.347 329.5 122.32 329.5 122.294C329.5 122.267 329.5 122.24 329.5 122.213C329.5 122.187 329.5 122.16 329.5 122.133C329.5 122.107 329.5 122.08 329.5 122.054C329.5 122.027 329.5 122.001 329.5 121.974C329.5 121.948 329.5 121.921 329.5 121.895C329.5 121.868 329.5 121.842 329.5 121.816C329.5 121.789 329.5 121.763 329.5 121.737C329.5 121.711 329.5 121.684 329.5 121.658C329.5 121.632 329.5 121.606 329.5 121.58C329.5 121.554 329.5 121.528 329.5 121.502C329.5 121.476 329.5 121.45 329.5 121.424C329.5 121.398 329.5 121.372 329.5 121.346C329.5 121.32 329.5 121.294 329.5 121.268C329.5 121.243 329.5 121.217 329.5 121.191C329.5 121.165 329.5 121.14 329.5 121.114C329.5 121.088 329.5 121.063 329.5 121.037C329.5 121.012 329.5 120.986 329.5 120.961C329.5 120.935 329.5 120.91 329.5 120.884C329.5 120.859 329.5 120.833 329.5 120.808C329.5 120.783 329.5 120.757 329.5 120.732C329.5 120.707 329.5 120.681 329.5 120.656C329.5 120.631 329.5 120.606 329.5 120.581C329.5 120.556 329.5 120.53 329.5 120.505C329.5 120.48 329.5 120.455 329.5 120.43C329.5 120.405 329.5 120.38 329.5 120.355C329.5 120.331 329.5 120.306 329.5 120.281C329.5 120.256 329.5 120.231 329.5 120.206C329.5 120.182 329.5 120.157 329.5 120.132C329.5 120.107 329.5 120.083 329.5 120.058C329.5 120.034 329.5 120.009 329.5 119.984C329.5 119.96 329.5 119.935 329.5 119.911C329.5 119.886 329.5 119.862 329.5 119.838C329.5 119.813 329.5 119.789 329.5 119.764C329.5 119.74 329.5 119.716 329.5 119.692C329.5 119.667 329.5 119.643 329.5 119.619C329.5 119.595 329.5 119.571 329.5 119.546C329.5 119.522 329.5 119.498 329.5 119.474C329.5 119.45 329.5 119.426 329.5 119.402C329.5 119.378 329.5 119.354 329.5 119.33C329.5 119.306 329.5 119.283 329.5 119.259C329.5 119.235 329.5 119.211 329.5 119.187C329.5 119.164 329.5 119.14 329.5 119.116C329.5 119.092 329.5 119.069 329.5 119.045C329.5 119.022 329.5 118.998 329.5 118.975C329.5 118.951 329.5 118.927 329.5 118.904C329.5 118.881 329.5 118.857 329.5 118.834C329.5 118.81 329.5 118.787 329.5 118.764C329.5 118.74 329.5 118.717 329.5 118.694C329.5 118.67 329.5 118.647 329.5 118.624C329.5 118.601 329.5 118.578 329.5 118.555C329.5 118.531 329.5 118.508 329.5 118.485C329.5 118.462 329.5 118.439 329.5 118.416C329.5 118.393 329.5 118.37 329.5 118.348C329.5 118.325 329.5 118.302 329.5 118.279C329.5 118.256 329.5 118.233 329.5 118.211C329.5 118.188 329.5 118.165 329.5 118.142C329.5 118.12 329.5 118.097 329.5 118.074C329.5 118.052 329.5 118.029 329.5 118.007C329.5 117.984 329.5 117.962 329.5 117.939C329.5 117.917 329.5 117.894 329.5 117.872C329.5 117.849 329.5 117.827 329.5 117.805C329.5 117.782 329.5 117.76 329.5 117.738C329.5 117.716 329.5 117.693 329.5 117.671C329.5 117.649 329.5 117.627 329.5 117.605C329.5 117.582 329.5 117.56 329.5 117.538C329.5 117.516 329.5 117.494 329.5 117.472C329.5 117.45 329.5 117.428 329.5 117.406C329.5 117.384 329.5 117.363 329.5 117.341C329.5 117.319 329.5 117.297 329.5 117.275C329.5 117.254 329.5 117.232 329.5 117.21C329.5 117.188 329.5 117.167 329.5 117.145C329.5 117.123 329.5 117.102 329.5 117.08C329.5 117.059 329.5 117.037 329.5 117.016C329.5 116.994 329.5 116.973 329.5 116.951C329.5 116.93 329.5 116.908 329.5 116.887C329.5 116.866 329.5 116.844 329.5 116.823C329.5 116.802 329.5 116.78 329.5 116.759C329.5 116.738 329.5 116.717 329.5 116.696C329.5 116.675 329.5 116.653 329.5 116.632C329.5 116.611 329.5 116.59 329.5 116.569C329.5 116.548 329.5 116.527 329.5 116.506C329.5 116.485 329.5 116.464 329.5 116.443C329.5 116.423 329.5 116.402 329.5 116.381C329.5 116.36 329.5 116.339 329.5 116.319C329.5 116.298 329.5 116.277 329.5 116.256C329.5 116.236 329.5 116.215 329.5 116.194C329.5 116.174 329.5 116.153 329.5 116.133C329.5 116.112 329.5 116.092 329.5 116.071C329.5 116.051 329.5 116.03 329.5 116.01C329.5 115.989 329.5 115.969 329.5 115.949C329.5 115.928 329.5 115.908 329.5 115.888C329.5 115.868 329.5 115.847 329.5 115.827C329.5 115.807 329.5 115.787 329.5 115.767C329.5 115.746 329.5 115.726 329.5 115.706C329.5 115.686 329.5 115.666 329.5 115.646C329.5 115.626 329.5 115.606 329.5 115.586C329.5 115.566 329.5 115.546 329.5 115.527C329.5 115.507 329.5 115.487 329.5 115.467C329.5 115.447 329.5 115.427 329.5 115.408C329.5 115.388 329.5 115.368 329.5 115.349C329.5 115.329 329.5 115.309 329.5 115.29C329.5 115.27 329.5 115.251 329.5 115.231C329.5 115.212 329.5 115.192 329.5 115.173C329.5 115.153 329.5 115.134 329.5 115.114C329.5 115.095 329.5 115.075 329.5 115.056C329.5 115.037 329.5 115.017 329.5 114.998C329.5 114.979 329.5 114.96 329.5 114.941C329.5 114.921 329.5 114.902 329.5 114.883C329.5 114.864 329.5 114.845 329.5 114.826C329.5 114.807 329.5 114.788 329.5 114.769C329.5 114.75 329.5 114.731 329.5 114.712C329.5 114.693 329.5 114.674 329.5 114.655C329.5 114.636 329.5 114.617 329.5 114.598C329.5 114.58 329.5 114.561 329.5 114.542C329.5 114.523 329.5 114.505 329.5 114.486C329.5 114.467 329.5 114.449 329.5 114.43C329.5 114.411 329.5 114.393 329.5 114.374C329.5 114.356 329.5 114.337 329.5 114.319C329.5 114.3 329.5 114.282 329.5 114.263C329.5 114.245 329.5 114.227 329.5 114.208C329.5 114.19 329.5 114.172 329.5 114.153C329.5 114.135 329.5 114.117 329.5 114.099C329.5 114.08 329.5 114.062 329.5 114.044C329.5 114.026 329.5 114.008 329.5 113.99C329.5 113.972 329.5 113.953 329.5 113.935C329.5 113.917 329.5 113.899 329.5 113.881C329.5 113.864 329.5 113.846 329.5 113.828C329.5 113.81 329.5 113.792 329.5 113.774C329.5 113.756 329.5 113.738 329.5 113.721C329.5 113.703 329.5 113.685 329.5 113.667C329.5 113.65 329.5 113.632 329.5 113.614C329.5 113.597 329.5 113.579 329.5 113.562C329.5 113.544 329.5 113.527 329.5 113.509C329.5 113.492 329.5 113.474 329.5 113.457C329.5 113.439 329.5 113.422 329.5 113.404C329.5 113.387 329.5 113.37 329.5 113.352C329.5 113.335 329.5 113.318 329.5 113.3C329.5 113.283 329.5 113.266 329.5 113.249C329.5 113.232 329.5 113.214 329.5 113.197C329.5 113.18 329.5 113.163 329.5 113.146C329.5 113.129 329.5 113.112 329.5 113.095C329.5 113.078 329.5 113.061 329.5 113.044C329.5 113.027 329.5 113.01 329.5 112.993C329.5 112.976 329.5 112.959 329.5 112.943C329.5 112.926 329.5 112.909 329.5 112.892C329.5 112.876 329.5 112.859 329.5 112.842C329.5 112.825 329.5 112.809 329.5 112.792C329.5 112.776 329.5 112.759 329.5 112.742C329.5 112.726 329.5 112.709 329.5 112.693C329.5 112.676 329.5 112.66 329.5 112.643C329.5 112.627 329.5 112.611 329.5 112.594C329.5 112.578 329.5 112.561 329.5 112.545C329.5 112.529 329.5 112.513 329.5 112.496C329.5 112.48 329.5 112.464 329.5 112.448C329.5 112.431 329.5 112.415 329.5 112.399C329.5 112.383 329.5 112.367 329.5 112.351C329.5 112.335 329.5 112.319 329.5 112.303C329.5 112.287 329.5 112.271 329.5 112.255C329.5 112.239 329.5 112.223 329.5 112.207C329.5 112.191 329.5 112.175 329.5 112.16C329.5 112.144 329.5 112.128 329.5 112.112C329.5 112.096 329.5 112.081 329.5 112.065C329.5 112.049 329.5 112.034 329.5 112.018C329.5 112.002 329.5 111.987 329.5 111.971C329.5 111.956 329.5 111.94 329.5 111.925C329.5 111.909 329.5 111.894 329.5 111.878C329.5 111.863 329.5 111.847 329.5 111.832C329.5 111.817 329.5 111.801 329.5 111.786C329.5 111.77 329.5 111.755 329.5 111.74C329.5 111.725 329.5 111.709 329.5 111.694C329.5 111.679 329.5 111.664 329.5 111.649C329.5 111.634 329.5 111.618 329.5 111.603C329.5 111.588 329.5 111.573 329.5 111.558C329.5 111.543 329.5 111.528 329.5 111.513C329.5 111.498 329.5 111.483 329.5 111.468C329.5 111.453 329.5 111.439 329.5 111.424C329.5 111.409 329.5 111.394 329.5 111.379C329.5 111.365 329.5 111.35 329.5 111.335C329.5 111.32 329.5 111.306 329.5 111.291C329.5 111.276 329.5 111.262 329.5 111.247C329.5 111.232 329.5 111.218 329.5 111.203C329.5 111.189 329.5 111.174 329.5 111.16C329.5 111.145 329.5 111.131 329.5 111.116C329.5 111.102 329.5 111.088 329.5 111.073C329.5 111.059 329.5 111.045 329.5 111.03C329.5 111.016 329.5 111.002 329.5 110.987C329.5 110.973 329.5 110.959 329.5 110.945C329.5 110.931 329.5 110.916 329.5 110.902C329.5 110.888 329.5 110.874 329.5 110.86C329.5 110.846 329.5 110.832 329.5 110.818C329.5 110.804 329.5 110.79 329.5 110.776C329.5 110.762 329.5 110.748 329.5 110.734C329.5 110.72 329.5 110.706 329.5 110.693C329.5 110.679 329.5 110.665 329.5 110.651C329.5 110.637 329.5 110.624 329.5 110.61C329.5 110.596 329.5 110.583 329.5 110.569C329.5 110.555 329.5 110.542 329.5 110.528C329.5 110.514 329.5 110.501 329.5 110.487C329.5 110.474 329.5 110.46 329.5 110.447C329.5 110.433 329.5 110.42 329.5 110.406C329.5 110.393 329.5 110.38 329.5 110.366C329.5 110.353 329.5 110.339 329.5 110.326C329.5 110.313 329.5 110.3 329.5 110.286C329.5 110.273 329.5 110.26 329.5 110.247C329.5 110.233 329.5 110.22 329.5 110.207C329.5 110.194 329.5 110.181 329.5 110.168C329.5 110.155 329.5 110.142 329.5 110.129C329.5 110.116 329.5 110.103 329.5 110.09C329.5 110.077 329.5 110.064 329.5 110.051C329.5 110.038 329.5 110.025 329.5 110.012C329.5 109.999 329.5 109.987 329.5 109.974C329.5 109.961 329.5 109.948 329.5 109.936C329.5 109.923 329.5 109.91 329.5 109.897C329.5 109.885 329.5 109.872 329.5 109.859C329.5 109.847 329.5 109.834 329.5 109.822C329.5 109.809 329.5 109.797 329.5 109.784C329.5 109.772 329.5 109.759 329.5 109.747C329.5 109.734 329.5 109.722 329.5 109.709C329.5 109.697 329.5 109.685 329.5 109.672C329.5 109.66 329.5 109.648 329.5 109.635C329.5 109.623 329.5 109.611 329.5 109.599C329.5 109.586 329.5 109.574 329.5 109.562C329.5 109.55 329.5 109.538 329.5 109.526L330.5 109.526C330.5 109.538 330.5 109.55 330.5 109.562C330.5 109.574 330.5 109.586 330.5 109.599C330.5 109.611 330.5 109.623 330.5 109.635C330.5 109.648 330.5 109.66 330.5 109.672C330.5 109.685 330.5 109.697 330.5 109.709C330.5 109.722 330.5 109.734 330.5 109.747C330.5 109.759 330.5 109.772 330.5 109.784C330.5 109.797 330.5 109.809 330.5 109.822C330.5 109.834 330.5 109.847 330.5 109.859C330.5 109.872 330.5 109.885 330.5 109.897C330.5 109.91 330.5 109.923 330.5 109.936C330.5 109.948 330.5 109.961 330.5 109.974C330.5 109.987 330.5 109.999 330.5 110.012C330.5 110.025 330.5 110.038 330.5 110.051C330.5 110.064 330.5 110.077 330.5 110.09C330.5 110.103 330.5 110.116 330.5 110.129C330.5 110.142 330.5 110.155 330.5 110.168C330.5 110.181 330.5 110.194 330.5 110.207C330.5 110.22 330.5 110.233 330.5 110.247C330.5 110.26 330.5 110.273 330.5 110.286C330.5 110.3 330.5 110.313 330.5 110.326C330.5 110.339 330.5 110.353 330.5 110.366C330.5 110.38 330.5 110.393 330.5 110.406C330.5 110.42 330.5 110.433 330.5 110.447C330.5 110.46 330.5 110.474 330.5 110.487C330.5 110.501 330.5 110.514 330.5 110.528C330.5 110.542 330.5 110.555 330.5 110.569C330.5 110.583 330.5 110.596 330.5 110.61C330.5 110.624 330.5 110.637 330.5 110.651C330.5 110.665 330.5 110.679 330.5 110.693C330.5 110.706 330.5 110.72 330.5 110.734C330.5 110.748 330.5 110.762 330.5 110.776C330.5 110.79 330.5 110.804 330.5 110.818C330.5 110.832 330.5 110.846 330.5 110.86C330.5 110.874 330.5 110.888 330.5 110.902C330.5 110.916 330.5 110.931 330.5 110.945C330.5 110.959 330.5 110.973 330.5 110.987C330.5 111.002 330.5 111.016 330.5 111.03C330.5 111.045 330.5 111.059 330.5 111.073C330.5 111.088 330.5 111.102 330.5 111.116C330.5 111.131 330.5 111.145 330.5 111.16C330.5 111.174 330.5 111.189 330.5 111.203C330.5 111.218 330.5 111.232 330.5 111.247C330.5 111.262 330.5 111.276 330.5 111.291C330.5 111.306 330.5 111.32 330.5 111.335C330.5 111.35 330.5 111.365 330.5 111.379C330.5 111.394 330.5 111.409 330.5 111.424C330.5 111.439 330.5 111.453 330.5 111.468C330.5 111.483 330.5 111.498 330.5 111.513C330.5 111.528 330.5 111.543 330.5 111.558C330.5 111.573 330.5 111.588 330.5 111.603C330.5 111.618 330.5 111.634 330.5 111.649C330.5 111.664 330.5 111.679 330.5 111.694C330.5 111.709 330.5 111.725 330.5 111.74C330.5 111.755 330.5 111.77 330.5 111.786C330.5 111.801 330.5 111.817 330.5 111.832C330.5 111.847 330.5 111.863 330.5 111.878C330.5 111.894 330.5 111.909 330.5 111.925C330.5 111.94 330.5 111.956 330.5 111.971C330.5 111.987 330.5 112.002 330.5 112.018C330.5 112.034 330.5 112.049 330.5 112.065C330.5 112.081 330.5 112.096 330.5 112.112C330.5 112.128 330.5 112.144 330.5 112.16C330.5 112.175 330.5 112.191 330.5 112.207C330.5 112.223 330.5 112.239 330.5 112.255C330.5 112.271 330.5 112.287 330.5 112.303C330.5 112.319 330.5 112.335 330.5 112.351C330.5 112.367 330.5 112.383 330.5 112.399C330.5 112.415 330.5 112.431 330.5 112.448C330.5 112.464 330.5 112.48 330.5 112.496C330.5 112.513 330.5 112.529 330.5 112.545C330.5 112.561 330.5 112.578 330.5 112.594C330.5 112.611 330.5 112.627 330.5 112.643C330.5 112.66 330.5 112.676 330.5 112.693C330.5 112.709 330.5 112.726 330.5 112.742C330.5 112.759 330.5 112.776 330.5 112.792C330.5 112.809 330.5 112.825 330.5 112.842C330.5 112.859 330.5 112.876 330.5 112.892C330.5 112.909 330.5 112.926 330.5 112.943C330.5 112.959 330.5 112.976 330.5 112.993C330.5 113.01 330.5 113.027 330.5 113.044C330.5 113.061 330.5 113.078 330.5 113.095C330.5 113.112 330.5 113.129 330.5 113.146C330.5 113.163 330.5 113.18 330.5 113.197C330.5 113.214 330.5 113.232 330.5 113.249C330.5 113.266 330.5 113.283 330.5 113.3C330.5 113.318 330.5 113.335 330.5 113.352C330.5 113.37 330.5 113.387 330.5 113.404C330.5 113.422 330.5 113.439 330.5 113.457C330.5 113.474 330.5 113.492 330.5 113.509C330.5 113.527 330.5 113.544 330.5 113.562C330.5 113.579 330.5 113.597 330.5 113.614C330.5 113.632 330.5 113.65 330.5 113.667C330.5 113.685 330.5 113.703 330.5 113.721C330.5 113.738 330.5 113.756 330.5 113.774C330.5 113.792 330.5 113.81 330.5 113.828C330.5 113.846 330.5 113.864 330.5 113.881C330.5 113.899 330.5 113.917 330.5 113.935C330.5 113.953 330.5 113.972 330.5 113.99C330.5 114.008 330.5 114.026 330.5 114.044C330.5 114.062 330.5 114.08 330.5 114.099C330.5 114.117 330.5 114.135 330.5 114.153C330.5 114.172 330.5 114.19 330.5 114.208C330.5 114.227 330.5 114.245 330.5 114.263C330.5 114.282 330.5 114.3 330.5 114.319C330.5 114.337 330.5 114.356 330.5 114.374C330.5 114.393 330.5 114.411 330.5 114.43C330.5 114.449 330.5 114.467 330.5 114.486C330.5 114.505 330.5 114.523 330.5 114.542C330.5 114.561 330.5 114.58 330.5 114.598C330.5 114.617 330.5 114.636 330.5 114.655C330.5 114.674 330.5 114.693 330.5 114.712C330.5 114.731 330.5 114.75 330.5 114.769C330.5 114.788 330.5 114.807 330.5 114.826C330.5 114.845 330.5 114.864 330.5 114.883C330.5 114.902 330.5 114.921 330.5 114.941C330.5 114.96 330.5 114.979 330.5 114.998C330.5 115.017 330.5 115.037 330.5 115.056C330.5 115.075 330.5 115.095 330.5 115.114C330.5 115.134 330.5 115.153 330.5 115.173C330.5 115.192 330.5 115.212 330.5 115.231C330.5 115.251 330.5 115.27 330.5 115.29C330.5 115.309 330.5 115.329 330.5 115.349C330.5 115.368 330.5 115.388 330.5 115.408C330.5 115.427 330.5 115.447 330.5 115.467C330.5 115.487 330.5 115.507 330.5 115.527C330.5 115.546 330.5 115.566 330.5 115.586C330.5 115.606 330.5 115.626 330.5 115.646C330.5 115.666 330.5 115.686 330.5 115.706C330.5 115.726 330.5 115.746 330.5 115.767C330.5 115.787 330.5 115.807 330.5 115.827C330.5 115.847 330.5 115.868 330.5 115.888C330.5 115.908 330.5 115.928 330.5 115.949C330.5 115.969 330.5 115.989 330.5 116.01C330.5 116.03 330.5 116.051 330.5 116.071C330.5 116.092 330.5 116.112 330.5 116.133C330.5 116.153 330.5 116.174 330.5 116.194C330.5 116.215 330.5 116.236 330.5 116.256C330.5 116.277 330.5 116.298 330.5 116.319C330.5 116.339 330.5 116.36 330.5 116.381C330.5 116.402 330.5 116.423 330.5 116.443C330.5 116.464 330.5 116.485 330.5 116.506C330.5 116.527 330.5 116.548 330.5 116.569C330.5 116.59 330.5 116.611 330.5 116.632C330.5 116.653 330.5 116.675 330.5 116.696C330.5 116.717 330.5 116.738 330.5 116.759C330.5 116.78 330.5 116.802 330.5 116.823C330.5 116.844 330.5 116.866 330.5 116.887C330.5 116.908 330.5 116.93 330.5 116.951C330.5 116.973 330.5 116.994 330.5 117.016C330.5 117.037 330.5 117.059 330.5 117.08C330.5 117.102 330.5 117.123 330.5 117.145C330.5 117.167 330.5 117.188 330.5 117.21C330.5 117.232 330.5 117.254 330.5 117.275C330.5 117.297 330.5 117.319 330.5 117.341C330.5 117.363 330.5 117.384 330.5 117.406C330.5 117.428 330.5 117.45 330.5 117.472C330.5 117.494 330.5 117.516 330.5 117.538C330.5 117.56 330.5 117.582 330.5 117.605C330.5 117.627 330.5 117.649 330.5 117.671C330.5 117.693 330.5 117.716 330.5 117.738C330.5 117.76 330.5 117.782 330.5 117.805C330.5 117.827 330.5 117.849 330.5 117.872C330.5 117.894 330.5 117.917 330.5 117.939C330.5 117.962 330.5 117.984 330.5 118.007C330.5 118.029 330.5 118.052 330.5 118.074C330.5 118.097 330.5 118.12 330.5 118.142C330.5 118.165 330.5 118.188 330.5 118.211C330.5 118.233 330.5 118.256 330.5 118.279C330.5 118.302 330.5 118.325 330.5 118.348C330.5 118.37 330.5 118.393 330.5 118.416C330.5 118.439 330.5 118.462 330.5 118.485C330.5 118.508 330.5 118.531 330.5 118.555C330.5 118.578 330.5 118.601 330.5 118.624C330.5 118.647 330.5 118.67 330.5 118.694C330.5 118.717 330.5 118.74 330.5 118.764C330.5 118.787 330.5 118.81 330.5 118.834C330.5 118.857 330.5 118.881 330.5 118.904C330.5 118.927 330.5 118.951 330.5 118.975C330.5 118.998 330.5 119.022 330.5 119.045C330.5 119.069 330.5 119.092 330.5 119.116C330.5 119.14 330.5 119.164 330.5 119.187C330.5 119.211 330.5 119.235 330.5 119.259C330.5 119.283 330.5 119.306 330.5 119.33C330.5 119.354 330.5 119.378 330.5 119.402C330.5 119.426 330.5 119.45 330.5 119.474C330.5 119.498 330.5 119.522 330.5 119.546C330.5 119.571 330.5 119.595 330.5 119.619C330.5 119.643 330.5 119.667 330.5 119.692C330.5 119.716 330.5 119.74 330.5 119.764C330.5 119.789 330.5 119.813 330.5 119.838C330.5 119.862 330.5 119.886 330.5 119.911C330.5 119.935 330.5 119.96 330.5 119.984C330.5 120.009 330.5 120.034 330.5 120.058C330.5 120.083 330.5 120.107 330.5 120.132C330.5 120.157 330.5 120.182 330.5 120.206C330.5 120.231 330.5 120.256 330.5 120.281C330.5 120.306 330.5 120.331 330.5 120.355C330.5 120.38 330.5 120.405 330.5 120.43C330.5 120.455 330.5 120.48 330.5 120.505C330.5 120.53 330.5 120.556 330.5 120.581C330.5 120.606 330.5 120.631 330.5 120.656C330.5 120.681 330.5 120.707 330.5 120.732C330.5 120.757 330.5 120.783 330.5 120.808C330.5 120.833 330.5 120.859 330.5 120.884C330.5 120.91 330.5 120.935 330.5 120.961C330.5 120.986 330.5 121.012 330.5 121.037C330.5 121.063 330.5 121.088 330.5 121.114C330.5 121.14 330.5 121.165 330.5 121.191C330.5 121.217 330.5 121.243 330.5 121.268C330.5 121.294 330.5 121.32 330.5 121.346C330.5 121.372 330.5 121.398 330.5 121.424C330.5 121.45 330.5 121.476 330.5 121.502C330.5 121.528 330.5 121.554 330.5 121.58C330.5 121.606 330.5 121.632 330.5 121.658C330.5 121.684 330.5 121.711 330.5 121.737C330.5 121.763 330.5 121.789 330.5 121.816C330.5 121.842 330.5 121.868 330.5 121.895C330.5 121.921 330.5 121.948 330.5 121.974C330.5 122.001 330.5 122.027 330.5 122.054C330.5 122.08 330.5 122.107 330.5 122.133C330.5 122.16 330.5 122.187 330.5 122.213C330.5 122.24 330.5 122.267 330.5 122.294C330.5 122.32 330.5 122.347 330.5 122.374C330.5 122.401 330.5 122.428 330.5 122.455C330.5 122.482 330.5 122.509 330.5 122.536C330.5 122.563 330.5 122.59 330.5 122.617C330.5 122.644 330.5 122.671 330.5 122.698C330.5 122.725 330.5 122.752 330.5 122.78C330.5 122.807 330.5 122.834 330.5 122.862C330.5 122.889 330.5 122.916 330.5 122.944C330.5 122.971 330.5 122.998 330.5 123.026C330.5 123.053 330.5 123.081 330.5 123.108C330.5 123.136 330.5 123.163 330.5 123.191C330.5 123.219 330.5 123.246 330.5 123.274C330.5 123.302 330.5 123.329 330.5 123.357C330.5 123.385 330.5 123.413 330.5 123.441C330.5 123.468 330.5 123.496 330.5 123.524C330.5 123.552 330.5 123.58 330.5 123.608C330.5 123.636 330.5 123.664 330.5 123.692C330.5 123.72 330.5 123.748 330.5 123.776C330.5 123.805 330.5 123.833 330.5 123.861C330.5 123.889 330.5 123.918 330.5 123.946C330.5 123.974 330.5 124.002 330.5 124.031C330.5 124.059 330.5 124.088 330.5 124.116C330.5 124.145 330.5 124.173 330.5 124.202C330.5 124.23 330.5 124.259 330.5 124.287C330.5 124.316 330.5 124.345 330.5 124.373C330.5 124.402 330.5 124.431 330.5 124.459C330.5 124.488 330.5 124.517 330.5 124.546C330.5 124.575 330.5 124.604 330.5 124.633C330.5 124.661 330.5 124.69 330.5 124.719C330.5 124.748 330.5 124.777 330.5 124.806C330.5 124.836 330.5 124.865 330.5 124.894C330.5 124.923 330.5 124.952 330.5 124.981C330.5 125.011 330.5 125.04 330.5 125.069C330.5 125.099 330.5 125.128 330.5 125.157C330.5 125.187 330.5 125.216 330.5 125.246C330.5 125.275 330.5 125.305 330.5 125.334C330.5 125.364 330.5 125.393 330.5 125.423C330.5 125.452 330.5 125.482 330.5 125.512C330.5 125.542 330.5 125.571 330.5 125.601C330.5 125.631 330.5 125.661 330.5 125.691C330.5 125.72 330.5 125.75 330.5 125.78C330.5 125.81 330.5 125.84 330.5 125.87C330.5 125.9 330.5 125.93 330.5 125.96C330.5 125.99 330.5 126.021 330.5 126.051C330.5 126.081 330.5 126.111 330.5 126.141C330.5 126.172 330.5 126.202 330.5 126.232C330.5 126.263 330.5 126.293 330.5 126.323C330.5 126.354 330.5 126.384 330.5 126.415C330.5 126.445 330.5 126.476 330.5 126.506C330.5 126.537 330.5 126.568 330.5 126.598C330.5 126.629 330.5 126.66 330.5 126.69C330.5 126.721 330.5 126.752 330.5 126.783C330.5 126.814 330.5 126.844 330.5 126.875C330.5 126.906 330.5 126.937 330.5 126.968C330.5 126.999 330.5 127.03 330.5 127.061C330.5 127.092 330.5 127.123 330.5 127.154C330.5 127.186 330.5 127.217 330.5 127.248C330.5 127.279 330.5 127.31 330.5 127.342C330.5 127.373 330.5 127.404 330.5 127.436C330.5 127.467 330.5 127.498 330.5 127.53C330.5 127.561 330.5 127.593 330.5 127.624C330.5 127.656 330.5 127.688 330.5 127.719C330.5 127.751 330.5 127.782 330.5 127.814C330.5 127.846 330.5 127.878 330.5 127.909C330.5 127.941 330.5 127.973 330.5 128.005C330.5 128.037 330.5 128.069 330.5 128.101C330.5 128.132 330.5 128.164 330.5 128.196C330.5 128.228 330.5 128.261 330.5 128.293C330.5 128.325 330.5 128.357 330.5 128.389C330.5 128.421 330.5 128.453 330.5 128.486C330.5 128.518 330.5 128.55 330.5 128.583C330.5 128.615 330.5 128.647 330.5 128.68C330.5 128.712 330.5 128.745 330.5 128.777C330.5 128.81 330.5 128.842 330.5 128.875C330.5 128.908 330.5 128.94 330.5 128.973C330.5 129.006 330.5 129.038 330.5 129.071C330.5 129.104 330.5 129.137 330.5 129.169C330.5 129.202 330.5 129.235 330.5 129.268C330.5 129.301 330.5 129.334 330.5 129.367C330.5 129.4 330.5 129.433 330.5 129.466C330.5 129.499 330.5 129.532 330.5 129.565C330.5 129.599 330.5 129.632 330.5 129.665C330.5 129.698 330.5 129.732 330.5 129.765C330.5 129.798 330.5 129.832 330.5 129.865C330.5 129.898 330.5 129.932 330.5 129.965C330.5 129.999 330.5 130.032 330.5 130.066C330.5 130.1 330.5 130.133 330.5 130.167C330.5 130.201 330.5 130.234 330.5 130.268C330.5 130.302 330.5 130.336 330.5 130.369C330.5 130.403 330.5 130.437 330.5 130.471C330.5 130.505 330.5 130.539 330.5 130.573C330.5 130.607 330.5 130.641 330.5 130.675C330.5 130.709 330.5 130.743 330.5 130.777C330.5 130.812 330.5 130.846 330.5 130.88C330.5 130.914 330.5 130.948 330.5 130.983C330.5 131.017 330.5 131.052 330.5 131.086C330.5 131.12 330.5 131.155 330.5 131.189C330.5 131.224 330.5 131.258 330.5 131.293C330.5 131.328 330.5 131.362 330.5 131.397C330.5 131.431 330.5 131.466 330.5 131.501C330.5 131.536 330.5 131.57 330.5 131.605C330.5 131.64 330.5 131.675 330.5 131.71C330.5 131.745 330.5 131.78 330.5 131.815C330.5 131.85 330.5 131.885 330.5 131.92C330.5 131.955 330.5 131.99 330.5 132.025C330.5 132.06 330.5 132.096 330.5 132.131C330.5 132.166 330.5 132.202 330.5 132.237C330.5 132.272 330.5 132.308 330.5 132.343C330.5 132.378 330.5 132.414 330.5 132.449C330.5 132.485 330.5 132.52 330.5 132.556C330.5 132.592 330.5 132.627 330.5 132.663C330.5 132.699 330.5 132.734 330.5 132.77C330.5 132.806 330.5 132.842 330.5 132.878C330.5 132.913 330.5 132.949 330.5 132.985C330.5 133.021 330.5 133.057 330.5 133.093C330.5 133.129 330.5 133.165 330.5 133.201C330.5 133.237 330.5 133.274 330.5 133.31C330.5 133.346 330.5 133.382 330.5 133.419C330.5 133.455 330.5 133.491 330.5 133.527C330.5 133.564 330.5 133.6 330.5 133.637C330.5 133.673 330.5 133.71 330.5 133.746C330.5 133.783 330.5 133.819 330.5 133.856C330.5 133.893 330.5 133.929 330.5 133.966C330.5 134.003 330.5 134.039 330.5 134.076C330.5 134.113 330.5 134.15 330.5 134.187C330.5 134.224 330.5 134.26 330.5 134.297C330.5 134.334 330.5 134.371 330.5 134.408C330.5 134.445 330.5 134.483 330.5 134.52C330.5 134.557 330.5 134.594 330.5 134.631C330.5 134.668 330.5 134.706 330.5 134.743C330.5 134.78 330.5 134.818 330.5 134.855C330.5 134.892 330.5 134.93 330.5 134.967C330.5 135.005 330.5 135.042 330.5 135.08C330.5 135.118 330.5 135.155 330.5 135.193C330.5 135.231 330.5 135.268 330.5 135.306C330.5 135.344 330.5 135.381 330.5 135.419C330.5 135.457 330.5 135.495 330.5 135.533C330.5 135.571 330.5 135.609 330.5 135.647C330.5 135.685 330.5 135.723 330.5 135.761C330.5 135.799 330.5 135.837 330.5 135.875C330.5 135.914 330.5 135.952 330.5 135.99C330.5 136.028 330.5 136.067 330.5 136.105C330.5 136.143 330.5 136.182 330.5 136.22C330.5 136.259 330.5 136.297 330.5 136.336C330.5 136.374 330.5 136.413 330.5 136.451C330.5 136.49 330.5 136.529 330.5 136.567C330.5 136.606 330.5 136.645 330.5 136.684C330.5 136.722 330.5 136.761 330.5 136.8C330.5 136.839 330.5 136.878 330.5 136.917C330.5 136.956 330.5 136.995 330.5 137.034C330.5 137.073 330.5 137.112 330.5 137.151C330.5 137.19 330.5 137.23 330.5 137.269C330.5 137.308 330.5 137.347 330.5 137.387C330.5 137.426 330.5 137.465 330.5 137.505C330.5 137.544 330.5 137.584 330.5 137.623C330.5 137.663 330.5 137.702 330.5 137.742C330.5 137.781 330.5 137.821 330.5 137.861C330.5 137.9 330.5 137.94 330.5 137.98C330.5 138.02 330.5 138.06 330.5 138.099C330.5 138.139 330.5 138.179 330.5 138.219C330.5 138.259 330.5 138.299 330.5 138.339C330.5 138.379 330.5 138.419 330.5 138.459C330.5 138.499 330.5 138.54 330.5 138.58C330.5 138.62 330.5 138.66 330.5 138.701C330.5 138.741 330.5 138.781 330.5 138.822C330.5 138.862 330.5 138.903 330.5 138.943C330.5 138.984 330.5 139.024 330.5 139.065C330.5 139.105 330.5 139.146 330.5 139.186C330.5 139.227 330.5 139.268 330.5 139.309C330.5 139.349 330.5 139.39 330.5 139.431C330.5 139.472 330.5 139.513 330.5 139.554C330.5 139.595 330.5 139.636 330.5 139.677C330.5 139.718 330.5 139.759 330.5 139.8C330.5 139.841 330.5 139.882 330.5 139.923C330.5 139.965 330.5 140.006 330.5 140.047C330.5 140.088 330.5 140.13 330.5 140.171C330.5 140.213 330.5 140.254 330.5 140.295C330.5 140.337 330.5 140.378 330.5 140.42C330.5 140.462 330.5 140.503 330.5 140.545C330.5 140.586 330.5 140.628 330.5 140.67C330.5 140.712 330.5 140.753 330.5 140.795C330.5 140.837 330.5 140.879 330.5 140.921C330.5 140.963 330.5 141.005 330.5 141.047C330.5 141.089 330.5 141.131 330.5 141.173C330.5 141.215 330.5 141.257 330.5 141.3C330.5 141.342 330.5 141.384 330.5 141.426C330.5 141.469 330.5 141.511 330.5 141.553C330.5 141.596 330.5 141.638 330.5 141.681C330.5 141.723 330.5 141.766 330.5 141.808C330.5 141.851 330.5 141.894 330.5 141.936C330.5 141.979 330.5 142.022 330.5 142.064C330.5 142.107 330.5 142.15 330.5 142.193C330.5 142.236 330.5 142.278 330.5 142.321C330.5 142.364 330.5 142.407 330.5 142.45C330.5 142.493 330.5 142.536 330.5 142.58C330.5 142.623 330.5 142.666 330.5 142.709C330.5 142.752 330.5 142.796 330.5 142.839C330.5 142.882 330.5 142.926 330.5 142.969C330.5 143.012 330.5 143.056 330.5 143.099C330.5 143.143 330.5 143.186 330.5 143.23C330.5 143.274 330.5 143.317 330.5 143.361C330.5 143.405 330.5 143.448 330.5 143.492C330.5 143.536 330.5 143.58 330.5 143.623C330.5 143.667 330.5 143.711 330.5 143.755C330.5 143.799 330.5 143.843 330.5 143.887C330.5 143.931 330.5 143.975 330.5 144.02C330.5 144.064 330.5 144.108 330.5 144.152C330.5 144.196 330.5 144.241 330.5 144.285C330.5 144.329 330.5 144.374 330.5 144.418C330.5 144.463 330.5 144.507 330.5 144.552C330.5 144.596 330.5 144.641 330.5 144.685C330.5 144.73 330.5 144.775 330.5 144.819C330.5 144.864 330.5 144.909 330.5 144.953C330.5 144.998 330.5 145.043 330.5 145.088C330.5 145.133 330.5 145.178 330.5 145.223C330.5 145.268 330.5 145.313 330.5 145.358C330.5 145.403 330.5 145.448 330.5 145.493C330.5 145.539 330.5 145.584 330.5 145.629C330.5 145.674 330.5 145.72 330.5 145.765C330.5 145.81 330.5 145.856 330.5 145.901C330.5 145.947 330.5 145.992 330.5 146.038C330.5 146.083 330.5 146.129 330.5 146.175C330.5 146.22 330.5 146.266 330.5 146.312C330.5 146.357 330.5 146.403 330.5 146.449C330.5 146.495 330.5 146.541 330.5 146.587C330.5 146.633 330.5 146.679 330.5 146.725C330.5 146.771 330.5 146.817 330.5 146.863C330.5 146.909 330.5 146.955 330.5 147.001C330.5 147.048 330.5 147.094 330.5 147.14C330.5 147.186 330.5 147.233 330.5 147.279C330.5 147.326 330.5 147.372 330.5 147.419C330.5 147.465 330.5 147.512 330.5 147.558C330.5 147.605 330.5 147.651 330.5 147.698C330.5 147.745 330.5 147.792 330.5 147.838C330.5 147.885 330.5 147.932 330.5 147.979C330.5 148.026 330.5 148.073 330.5 148.12C330.5 148.167 330.5 148.214 330.5 148.261C330.5 148.308 330.5 148.355 330.5 148.402C330.5 148.449 330.5 148.497 330.5 148.544C330.5 148.591 330.5 148.638 330.5 148.686C330.5 148.733 330.5 148.781 330.5 148.828C330.5 148.875 330.5 148.923 330.5 148.971C330.5 149.018 330.5 149.066 330.5 149.113C330.5 149.161 330.5 149.209 330.5 149.256C330.5 149.304 330.5 149.352 330.5 149.4C330.5 149.448 330.5 149.496 330.5 149.544C330.5 149.592 330.5 149.64 330.5 149.688C330.5 149.736 330.5 149.784 330.5 149.832C330.5 149.88 330.5 149.928 330.5 149.976C330.5 150.025 330.5 150.073 330.5 150.121C330.5 150.17 330.5 150.218 330.5 150.266C330.5 150.315 330.5 150.363 330.5 150.412C330.5 150.46 330.5 150.509 330.5 150.558C330.5 150.606 330.5 150.655 330.5 150.704C330.5 150.752 330.5 150.801 330.5 150.85C330.5 150.899 330.5 150.948 330.5 150.996C330.5 151.045 330.5 151.094 330.5 151.143C330.5 151.192 330.5 151.241 330.5 151.291C330.5 151.34 330.5 151.389 330.5 151.438C330.5 151.487 330.5 151.536 330.5 151.586C330.5 151.635 330.5 151.684 330.5 151.734C330.5 151.783 330.5 151.833 330.5 151.882C330.5 151.932 330.5 151.981 330.5 152.031C330.5 152.08 330.5 152.13 330.5 152.18C330.5 152.23 330.5 152.279 330.5 152.329C330.5 152.379 330.5 152.429 330.5 152.479C330.5 152.528 330.5 152.578 330.5 152.628C330.5 152.678 330.5 152.728 330.5 152.779C330.5 152.829 330.5 152.879 330.5 152.929C330.5 152.979 330.5 153.029 330.5 153.08C330.5 153.13 330.5 153.18 330.5 153.231C330.5 153.281 330.5 153.332 330.5 153.382C330.5 153.433 330.5 153.483 330.5 153.534C330.5 153.584 330.5 153.635 330.5 153.686C330.5 153.736 330.5 153.787 330.5 153.838C330.5 153.889 330.5 153.939 330.5 153.99C330.5 154.041 330.5 154.092 330.5 154.143C330.5 154.194 330.5 154.245 330.5 154.296C330.5 154.347 330.5 154.398 330.5 154.45C330.5 154.501 330.5 154.552 330.5 154.603C330.5 154.655 330.5 154.706 330.5 154.757C330.5 154.809 330.5 154.86 330.5 154.912C330.5 154.963 330.5 155.015 330.5 155.066C330.5 155.118 330.5 155.169 330.5 155.221C330.5 155.273 330.5 155.324 330.5 155.376C330.5 155.428 330.5 155.48 330.5 155.532C330.5 155.584 330.5 155.636 330.5 155.688C330.5 155.739 330.5 155.792 330.5 155.844C330.5 155.896 330.5 155.948 330.5 156L329.5 156Z" fill="black" fill-opacity="0.7"/>
</g>
<defs>
<filter id="filter0_d" x="0" y="-5" width="655" height="150" filterUnits="userSpaceOnUse" color-interpolation-filters="sRGB">
<feFlood flood-opacity="0" result="BackgroundImageFix"/>
<feColorMatrix in="SourceAlpha" type="matrix" values="0 0 0 0 0 0 0 0 0 0 0 0 0 0 0 0 0 0 127 0"/>
<feOffset/>
<feGaussianBlur stdDeviation="7.5"/>
<feColorMatrix type="matrix" values="0 0 0 0 0.592157 0 0 0 0 0.74902 0 0 0 0 0.905882 0 0 0 0.4 0"/>
<feBlend mode="normal" in2="BackgroundImageFix" result="effect1_dropShadow"/>
<feBlend mode="normal" in="SourceGraphic" in2="effect1_dropShadow" result="shape"/>
</filter>
<clipPath id="clip0">
<rect width="665" height="200" fill="white"/>
</clipPath>
</defs>
</svg>
