<svg width="700" height="400" viewBox="0 0 700 400" fill="none" xmlns="http://www.w3.org/2000/svg">
<rect x="250" y="377" width="200" height="20" rx="5" fill="white"/>
<rect x="3" y="3" width="694" height="326" rx="9" fill="white" stroke="#5282FF" stroke-width="2"/>
<path d="M554 290L548.226 300L559.774 300L554 290ZM553 299L553 362L555 362L555 299L553 299ZM546 369L262 369L262 371L546 371L546 369ZM553 362C553 365.866 549.866 369 546 369L546 371C550.971 371 555 366.971 555 362L553 362Z" fill="#4E496B"/>
<path d="M146 290L151.774 300L140.226 300L146 290ZM147 299L147 362L145 362L145 299L147 299ZM154 369L438 369L438 371L154 371L154 369ZM147 362C147 365.866 150.134 369 154 369L154 371C149.029 371 145 366.971 145 362L147 362Z" fill="#4E496B"/>
<path d="M350 290L344.226 300L355.774 300L350 290ZM349 299L349 370L351 370L351 299L349 299Z" fill="#4E496B"/>
<g filter="url(#filter0_d_1_681)">
<rect x="16" y="42" width="260" height="248" rx="10" fill="white"/>
</g>
<g filter="url(#filter1_d_1_681)">
<rect x="288" y="42" width="124" height="248" rx="10" fill="white"/>
</g>
<rect x="303" y="83" width="94" height="92" rx="9" fill="white" stroke="#5282FF" stroke-width="2"/>
<path d="M330.342 106.12C329.494 106.12 328.75 105.944 328.11 105.592C327.478 105.24 326.986 104.736 326.634 104.08C326.282 103.416 326.106 102.624 326.106 101.704C326.106 100.32 326.47 99.24 327.198 98.464C327.926 97.68 328.966 97.288 330.318 97.288C330.822 97.288 331.302 97.344 331.758 97.456C332.222 97.56 332.614 97.712 332.934 97.912V98.992C332.59 98.776 332.186 98.608 331.722 98.488C331.266 98.368 330.794 98.308 330.306 98.308C329.298 98.308 328.55 98.592 328.062 99.16C327.574 99.728 327.33 100.576 327.33 101.704C327.33 102.84 327.594 103.692 328.122 104.26C328.65 104.82 329.422 105.1 330.438 105.1C331.398 105.1 332.23 104.836 332.934 104.308V105.388C332.654 105.612 332.282 105.792 331.818 105.928C331.354 106.056 330.862 106.12 330.342 106.12ZM333.895 99.772H338.899V100.672H336.907V106H335.851V100.672H333.895V99.772ZM342.498 106.12C341.93 106.12 341.418 105.996 340.962 105.748C340.514 105.492 340.158 105.124 339.894 104.644C339.63 104.156 339.498 103.568 339.498 102.88C339.498 102.192 339.63 101.608 339.894 101.128C340.158 100.648 340.514 100.284 340.962 100.036C341.418 99.78 341.93 99.652 342.498 99.652C343.074 99.652 343.59 99.78 344.046 100.036C344.502 100.284 344.862 100.648 345.126 101.128C345.39 101.608 345.522 102.192 345.522 102.88C345.522 103.568 345.39 104.156 345.126 104.644C344.862 105.124 344.502 105.492 344.046 105.748C343.59 105.996 343.074 106.12 342.498 106.12ZM342.498 105.172C343.058 105.172 343.522 104.988 343.89 104.62C344.258 104.244 344.442 103.664 344.442 102.88C344.442 102.096 344.258 101.52 343.89 101.152C343.522 100.776 343.058 100.588 342.498 100.588C341.946 100.588 341.486 100.776 341.118 101.152C340.758 101.52 340.578 102.096 340.578 102.88C340.578 103.664 340.758 104.244 341.118 104.62C341.486 104.988 341.946 105.172 342.498 105.172ZM349.497 98.944C348.865 98.944 348.393 98.788 348.081 98.476C347.769 98.156 347.613 97.768 347.613 97.312H348.669C348.669 97.616 348.741 97.836 348.885 97.972C349.037 98.108 349.241 98.176 349.497 98.176C349.753 98.176 349.953 98.108 350.097 97.972C350.241 97.836 350.313 97.616 350.313 97.312H351.369C351.369 97.768 351.213 98.156 350.901 98.476C350.597 98.788 350.129 98.944 349.497 98.944ZM347.865 99.772V104.536L351.069 99.772H352.137V106H351.081V101.248L347.889 106H346.809V99.772H347.865ZM358.952 106H357.668L355.472 103.348H354.92V106H353.864V99.772H354.92V102.448H355.52L357.704 99.772H358.904L356.348 102.844L358.952 106ZM362.058 100.588C361.394 100.588 360.722 100.792 360.042 101.2V100.252C360.338 100.068 360.678 99.924 361.062 99.82C361.454 99.708 361.834 99.652 362.202 99.652C362.986 99.652 363.582 99.816 363.99 100.144C364.398 100.472 364.602 100.972 364.602 101.644V104.992C364.602 105.128 364.606 105.304 364.614 105.52C364.63 105.728 364.646 105.888 364.662 106H363.702C363.678 105.888 363.654 105.732 363.63 105.532C363.614 105.324 363.606 105.144 363.606 104.992L363.594 104.812C363.498 105.004 363.366 105.204 363.198 105.412C363.03 105.612 362.806 105.78 362.526 105.916C362.254 106.052 361.914 106.12 361.506 106.12C360.946 106.12 360.494 105.96 360.15 105.64C359.806 105.32 359.634 104.868 359.634 104.284C359.634 103.604 359.874 103.104 360.354 102.784C360.834 102.464 361.51 102.304 362.382 102.304H363.546V101.788C363.546 101.356 363.434 101.048 363.21 100.864C362.986 100.68 362.602 100.588 362.058 100.588ZM363.546 103.6V103.144H362.49C361.858 103.144 361.398 103.236 361.11 103.42C360.83 103.604 360.69 103.872 360.69 104.224C360.69 104.504 360.774 104.732 360.942 104.908C361.118 105.084 361.382 105.172 361.734 105.172C362.062 105.172 362.342 105.108 362.574 104.98C362.806 104.844 362.994 104.684 363.138 104.5C363.282 104.308 363.386 104.128 363.45 103.96C363.514 103.792 363.546 103.672 363.546 103.6ZM369.793 102.016V100.996H370.945C371.393 100.996 371.757 100.876 372.037 100.636C372.325 100.388 372.469 100.04 372.469 99.592C372.469 99.184 372.337 98.864 372.073 98.632C371.809 98.392 371.429 98.272 370.933 98.272C370.517 98.272 370.125 98.348 369.757 98.5C369.397 98.652 369.021 98.896 368.629 99.232V98.056C369.269 97.536 370.041 97.276 370.945 97.276C371.769 97.276 372.413 97.484 372.877 97.9C373.349 98.316 373.585 98.86 373.585 99.532C373.585 100.076 373.433 100.508 373.129 100.828C372.833 101.148 372.477 101.36 372.061 101.464C372.397 101.512 372.705 101.628 372.985 101.812C373.273 101.988 373.505 102.22 373.681 102.508C373.857 102.796 373.945 103.132 373.945 103.516C373.945 104.044 373.813 104.504 373.549 104.896C373.285 105.288 372.921 105.592 372.457 105.808C372.001 106.016 371.469 106.12 370.861 106.12C369.805 106.12 368.989 105.876 368.413 105.388V104.188C368.717 104.484 369.085 104.716 369.517 104.884C369.949 105.052 370.401 105.136 370.873 105.136C371.465 105.136 371.929 104.996 372.265 104.716C372.609 104.428 372.781 104.036 372.781 103.54C372.781 103.06 372.625 102.688 372.313 102.424C372.009 102.152 371.537 102.016 370.897 102.016H369.793Z" fill="black" fill-opacity="0.85"/>
<rect x="315" y="122" width="70" height="40" rx="10" fill="#E3EBFF"/>
<path d="M331.477 144.98H332.065C332.433 144.644 332.705 144.156 332.881 143.516C333.057 142.876 333.177 142.056 333.241 141.056C333.305 140.048 333.353 138.828 333.385 137.396H338.869V144.98H339.973V148.04H338.929L338.809 146H332.629L332.497 148.04H331.477V144.98ZM333.373 144.98H337.729V138.428H334.441C334.417 139.644 334.365 140.676 334.285 141.524C334.213 142.372 334.101 143.076 333.949 143.636C333.805 144.188 333.613 144.636 333.373 144.98ZM342.369 139.772V144.536L345.573 139.772H346.641V146H345.585V141.248L342.393 146H341.313V139.772H342.369ZM351.056 146.12C350.088 146.12 349.324 145.836 348.764 145.268C348.204 144.692 347.924 143.896 347.924 142.88C347.924 141.864 348.208 141.072 348.776 140.504C349.344 139.936 350.12 139.652 351.104 139.652C351.48 139.652 351.832 139.696 352.16 139.784C352.488 139.864 352.752 139.984 352.952 140.144V141.092C352.408 140.756 351.796 140.588 351.116 140.588C350.396 140.588 349.864 140.78 349.52 141.164C349.176 141.54 349.004 142.112 349.004 142.88C349.004 143.648 349.168 144.224 349.496 144.608C349.832 144.984 350.352 145.172 351.056 145.172C351.736 145.172 352.368 145.008 352.952 144.68V145.628C352.432 145.956 351.8 146.12 351.056 146.12ZM359.456 146H358.172L355.976 143.348H355.424V146H354.368V139.772H355.424V142.448H356.024L358.208 139.772H359.408L356.852 142.844L359.456 146ZM368.369 143.18C368.369 143.764 368.241 144.28 367.985 144.728C367.737 145.168 367.397 145.512 366.965 145.76C366.533 146 366.049 146.12 365.513 146.12C364.793 146.12 364.213 145.96 363.773 145.64C363.333 145.32 363.009 144.876 362.801 144.308C362.601 143.74 362.501 143.088 362.501 142.352C362.501 141.344 362.621 140.46 362.861 139.7C363.109 138.94 363.485 138.348 363.989 137.924C364.501 137.492 365.157 137.276 365.957 137.276C366.645 137.276 367.249 137.424 367.769 137.72V138.788C367.249 138.436 366.645 138.26 365.957 138.26C365.461 138.26 365.045 138.396 364.709 138.668C364.373 138.94 364.109 139.312 363.917 139.784C363.733 140.248 363.621 140.772 363.581 141.356C363.845 140.996 364.149 140.728 364.493 140.552C364.837 140.376 365.213 140.288 365.621 140.288C366.141 140.288 366.605 140.4 367.013 140.624C367.429 140.848 367.757 141.176 367.997 141.608C368.245 142.032 368.369 142.556 368.369 143.18ZM365.477 145.16C365.789 145.16 366.077 145.088 366.341 144.944C366.605 144.792 366.817 144.572 366.977 144.284C367.145 143.996 367.229 143.636 367.229 143.204C367.229 142.772 367.149 142.408 366.989 142.112C366.829 141.816 366.625 141.596 366.377 141.452C366.129 141.3 365.869 141.224 365.597 141.224C365.069 141.224 364.625 141.396 364.265 141.74C363.913 142.076 363.737 142.572 363.737 143.228C363.737 143.804 363.893 144.272 364.205 144.632C364.517 144.984 364.941 145.16 365.477 145.16Z" fill="black" fill-opacity="0.85"/>
<rect x="167" y="83" width="94" height="142" rx="9" fill="white" stroke="#5282FF" stroke-width="2"/>
<path d="M194.342 106.12C193.494 106.12 192.75 105.944 192.11 105.592C191.478 105.24 190.986 104.736 190.634 104.08C190.282 103.416 190.106 102.624 190.106 101.704C190.106 100.32 190.47 99.24 191.198 98.464C191.926 97.68 192.966 97.288 194.318 97.288C194.822 97.288 195.302 97.344 195.758 97.456C196.222 97.56 196.614 97.712 196.934 97.912V98.992C196.59 98.776 196.186 98.608 195.722 98.488C195.266 98.368 194.794 98.308 194.306 98.308C193.298 98.308 192.55 98.592 192.062 99.16C191.574 99.728 191.33 100.576 191.33 101.704C191.33 102.84 191.594 103.692 192.122 104.26C192.65 104.82 193.422 105.1 194.438 105.1C195.398 105.1 196.23 104.836 196.934 104.308V105.388C196.654 105.612 196.282 105.792 195.818 105.928C195.354 106.056 194.862 106.12 194.342 106.12ZM197.895 99.772H202.899V100.672H200.907V106H199.851V100.672H197.895V99.772ZM206.498 106.12C205.93 106.12 205.418 105.996 204.962 105.748C204.514 105.492 204.158 105.124 203.894 104.644C203.63 104.156 203.498 103.568 203.498 102.88C203.498 102.192 203.63 101.608 203.894 101.128C204.158 100.648 204.514 100.284 204.962 100.036C205.418 99.78 205.93 99.652 206.498 99.652C207.074 99.652 207.59 99.78 208.046 100.036C208.502 100.284 208.862 100.648 209.126 101.128C209.39 101.608 209.522 102.192 209.522 102.88C209.522 103.568 209.39 104.156 209.126 104.644C208.862 105.124 208.502 105.492 208.046 105.748C207.59 105.996 207.074 106.12 206.498 106.12ZM206.498 105.172C207.058 105.172 207.522 104.988 207.89 104.62C208.258 104.244 208.442 103.664 208.442 102.88C208.442 102.096 208.258 101.52 207.89 101.152C207.522 100.776 207.058 100.588 206.498 100.588C205.946 100.588 205.486 100.776 205.118 101.152C204.758 101.52 204.578 102.096 204.578 102.88C204.578 103.664 204.758 104.244 205.118 104.62C205.486 104.988 205.946 105.172 206.498 105.172ZM213.497 98.944C212.865 98.944 212.393 98.788 212.081 98.476C211.769 98.156 211.613 97.768 211.613 97.312H212.669C212.669 97.616 212.741 97.836 212.885 97.972C213.037 98.108 213.241 98.176 213.497 98.176C213.753 98.176 213.953 98.108 214.097 97.972C214.241 97.836 214.313 97.616 214.313 97.312H215.369C215.369 97.768 215.213 98.156 214.901 98.476C214.597 98.788 214.129 98.944 213.497 98.944ZM211.865 99.772V104.536L215.069 99.772H216.137V106H215.081V101.248L211.889 106H210.809V99.772H211.865ZM222.952 106H221.668L219.472 103.348H218.92V106H217.864V99.772H218.92V102.448H219.52L221.704 99.772H222.904L220.348 102.844L222.952 106ZM226.058 100.588C225.394 100.588 224.722 100.792 224.042 101.2V100.252C224.338 100.068 224.678 99.924 225.062 99.82C225.454 99.708 225.834 99.652 226.202 99.652C226.986 99.652 227.582 99.816 227.99 100.144C228.398 100.472 228.602 100.972 228.602 101.644V104.992C228.602 105.128 228.606 105.304 228.614 105.52C228.63 105.728 228.646 105.888 228.662 106H227.702C227.678 105.888 227.654 105.732 227.63 105.532C227.614 105.324 227.606 105.144 227.606 104.992L227.594 104.812C227.498 105.004 227.366 105.204 227.198 105.412C227.03 105.612 226.806 105.78 226.526 105.916C226.254 106.052 225.914 106.12 225.506 106.12C224.946 106.12 224.494 105.96 224.15 105.64C223.806 105.32 223.634 104.868 223.634 104.284C223.634 103.604 223.874 103.104 224.354 102.784C224.834 102.464 225.51 102.304 226.382 102.304H227.546V101.788C227.546 101.356 227.434 101.048 227.21 100.864C226.986 100.68 226.602 100.588 226.058 100.588ZM227.546 103.6V103.144H226.49C225.858 103.144 225.398 103.236 225.11 103.42C224.83 103.604 224.69 103.872 224.69 104.224C224.69 104.504 224.774 104.732 224.942 104.908C225.118 105.084 225.382 105.172 225.734 105.172C226.062 105.172 226.342 105.108 226.574 104.98C226.806 104.844 226.994 104.684 227.138 104.5C227.282 104.308 227.386 104.128 227.45 103.96C227.514 103.792 227.546 103.672 227.546 103.6ZM237.873 106H232.389V104.86C233.245 104.172 233.945 103.584 234.489 103.096C235.041 102.608 235.469 102.184 235.773 101.824C236.085 101.456 236.301 101.116 236.421 100.804C236.549 100.492 236.613 100.176 236.613 99.856C236.613 99.36 236.465 98.972 236.169 98.692C235.873 98.412 235.465 98.272 234.945 98.272C234.113 98.272 233.337 98.668 232.617 99.46V98.248C233.281 97.6 234.069 97.276 234.981 97.276C235.845 97.276 236.525 97.5 237.021 97.948C237.525 98.388 237.777 98.988 237.777 99.748C237.777 100.14 237.713 100.516 237.585 100.876C237.465 101.228 237.249 101.6 236.937 101.992C236.633 102.376 236.213 102.808 235.677 103.288C235.141 103.768 234.461 104.328 233.637 104.968H237.873V106Z" fill="black" fill-opacity="0.85"/>
<rect x="179" y="122" width="70" height="40" rx="10" fill="#E3EBFF"/>
<path d="M195.477 144.98H196.065C196.433 144.644 196.705 144.156 196.881 143.516C197.057 142.876 197.177 142.056 197.241 141.056C197.305 140.048 197.353 138.828 197.385 137.396H202.869V144.98H203.973V148.04H202.929L202.809 146H196.629L196.497 148.04H195.477V144.98ZM197.373 144.98H201.729V138.428H198.441C198.417 139.644 198.365 140.676 198.285 141.524C198.213 142.372 198.101 143.076 197.949 143.636C197.805 144.188 197.613 144.636 197.373 144.98ZM206.369 139.772V144.536L209.573 139.772H210.641V146H209.585V141.248L206.393 146H205.313V139.772H206.369ZM215.056 146.12C214.088 146.12 213.324 145.836 212.764 145.268C212.204 144.692 211.924 143.896 211.924 142.88C211.924 141.864 212.208 141.072 212.776 140.504C213.344 139.936 214.12 139.652 215.104 139.652C215.48 139.652 215.832 139.696 216.16 139.784C216.488 139.864 216.752 139.984 216.952 140.144V141.092C216.408 140.756 215.796 140.588 215.116 140.588C214.396 140.588 213.864 140.78 213.52 141.164C213.176 141.54 213.004 142.112 213.004 142.88C213.004 143.648 213.168 144.224 213.496 144.608C213.832 144.984 214.352 145.172 215.056 145.172C215.736 145.172 216.368 145.008 216.952 144.68V145.628C216.432 145.956 215.8 146.12 215.056 146.12ZM223.456 146H222.172L219.976 143.348H219.424V146H218.368V139.772H219.424V142.448H220.024L222.208 139.772H223.408L220.852 142.844L223.456 146ZM231.205 146H230.149V143.96H226.429V143.216L229.789 137.396H231.205V143.048H232.369V143.96H231.205V146ZM227.521 143.048H230.149V138.572L227.521 143.048Z" fill="black" fill-opacity="0.85"/>
<rect x="179" y="172" width="70" height="40" rx="10" fill="#E3EBFF"/>
<path d="M195.477 194.98H196.065C196.433 194.644 196.705 194.156 196.881 193.516C197.057 192.876 197.177 192.056 197.241 191.056C197.305 190.048 197.353 188.828 197.385 187.396H202.869V194.98H203.973V198.04H202.929L202.809 196H196.629L196.497 198.04H195.477V194.98ZM197.373 194.98H201.729V188.428H198.441C198.417 189.644 198.365 190.676 198.285 191.524C198.213 192.372 198.101 193.076 197.949 193.636C197.805 194.188 197.613 194.636 197.373 194.98ZM206.369 189.772V194.536L209.573 189.772H210.641V196H209.585V191.248L206.393 196H205.313V189.772H206.369ZM215.056 196.12C214.088 196.12 213.324 195.836 212.764 195.268C212.204 194.692 211.924 193.896 211.924 192.88C211.924 191.864 212.208 191.072 212.776 190.504C213.344 189.936 214.12 189.652 215.104 189.652C215.48 189.652 215.832 189.696 216.16 189.784C216.488 189.864 216.752 189.984 216.952 190.144V191.092C216.408 190.756 215.796 190.588 215.116 190.588C214.396 190.588 213.864 190.78 213.52 191.164C213.176 191.54 213.004 192.112 213.004 192.88C213.004 193.648 213.168 194.224 213.496 194.608C213.832 194.984 214.352 195.172 215.056 195.172C215.736 195.172 216.368 195.008 216.952 194.68V195.628C216.432 195.956 215.8 196.12 215.056 196.12ZM223.456 196H222.172L219.976 193.348H219.424V196H218.368V189.772H219.424V192.448H220.024L222.208 189.772H223.408L220.852 192.844L223.456 196ZM229.033 196.12C228.073 196.12 227.309 195.916 226.741 195.508V194.332C227.077 194.604 227.429 194.808 227.797 194.944C228.165 195.072 228.577 195.136 229.033 195.136C229.625 195.136 230.081 194.956 230.401 194.596C230.729 194.236 230.893 193.764 230.893 193.18C230.893 192.556 230.733 192.1 230.413 191.812C230.093 191.524 229.689 191.38 229.201 191.38C228.849 191.38 228.565 191.44 228.349 191.56C228.133 191.672 227.969 191.792 227.857 191.92H226.981V187.396H231.637V188.428H227.965V190.888C228.125 190.768 228.321 190.664 228.553 190.576C228.785 190.48 229.061 190.432 229.381 190.432C229.877 190.432 230.325 190.536 230.725 190.744C231.125 190.944 231.441 191.248 231.673 191.656C231.913 192.056 232.033 192.556 232.033 193.156C232.033 193.748 231.909 194.268 231.661 194.716C231.421 195.164 231.077 195.512 230.629 195.76C230.181 196 229.649 196.12 229.033 196.12Z" fill="black" fill-opacity="0.85"/>
<path d="M122.75 57.396H125.498C126.474 57.396 127.23 57.6 127.766 58.008C128.31 58.408 128.582 59.036 128.582 59.892C128.582 60.54 128.446 61.068 128.174 61.476C127.91 61.884 127.538 62.184 127.058 62.376C126.586 62.56 126.034 62.652 125.402 62.652H123.878V66H122.75V57.396ZM125.402 61.632C126.01 61.632 126.502 61.5 126.878 61.236C127.254 60.972 127.442 60.528 127.442 59.904C127.442 59.384 127.274 59.008 126.938 58.776C126.602 58.544 126.122 58.428 125.498 58.428H123.878V61.632H125.402ZM131.738 60.588C131.074 60.588 130.402 60.792 129.722 61.2V60.252C130.018 60.068 130.358 59.924 130.742 59.82C131.134 59.708 131.514 59.652 131.882 59.652C132.666 59.652 133.262 59.816 133.67 60.144C134.078 60.472 134.282 60.972 134.282 61.644V64.992C134.282 65.128 134.286 65.304 134.294 65.52C134.31 65.728 134.326 65.888 134.342 66H133.382C133.358 65.888 133.334 65.732 133.31 65.532C133.294 65.324 133.286 65.144 133.286 64.992L133.274 64.812C133.178 65.004 133.046 65.204 132.878 65.412C132.71 65.612 132.486 65.78 132.206 65.916C131.934 66.052 131.594 66.12 131.186 66.12C130.626 66.12 130.174 65.96 129.83 65.64C129.486 65.32 129.314 64.868 129.314 64.284C129.314 63.604 129.554 63.104 130.034 62.784C130.514 62.464 131.19 62.304 132.062 62.304H133.226V61.788C133.226 61.356 133.114 61.048 132.89 60.864C132.666 60.68 132.282 60.588 131.738 60.588ZM133.226 63.6V63.144H132.17C131.538 63.144 131.078 63.236 130.79 63.42C130.51 63.604 130.37 63.872 130.37 64.224C130.37 64.504 130.454 64.732 130.622 64.908C130.798 65.084 131.062 65.172 131.414 65.172C131.742 65.172 132.022 65.108 132.254 64.98C132.486 64.844 132.674 64.684 132.818 64.5C132.962 64.308 133.066 64.128 133.13 63.96C133.194 63.792 133.226 63.672 133.226 63.6ZM137.754 66.12C137.362 66.12 136.982 66.076 136.614 65.988C136.254 65.9 135.958 65.78 135.726 65.628V64.68C135.982 64.832 136.286 64.952 136.638 65.04C136.99 65.128 137.354 65.172 137.73 65.172C138.186 65.172 138.566 65.1 138.87 64.956C139.182 64.804 139.338 64.548 139.338 64.188C139.338 63.836 139.206 63.588 138.942 63.444C138.686 63.3 138.29 63.228 137.754 63.228H136.926V62.376H137.79C138.23 62.376 138.566 62.296 138.798 62.136C139.03 61.976 139.146 61.744 139.146 61.44C139.146 61.12 139.006 60.9 138.726 60.78C138.454 60.652 138.122 60.588 137.73 60.588C137.026 60.588 136.398 60.756 135.846 61.092V60.144C136.086 59.984 136.378 59.864 136.722 59.784C137.074 59.696 137.438 59.652 137.814 59.652C138.574 59.652 139.146 59.796 139.53 60.084C139.922 60.372 140.118 60.788 140.118 61.332C140.118 61.74 140.006 62.064 139.782 62.304C139.558 62.536 139.25 62.692 138.858 62.772C139.346 62.836 139.718 62.992 139.974 63.24C140.23 63.488 140.358 63.804 140.358 64.188C140.358 64.652 140.234 65.028 139.986 65.316C139.746 65.596 139.43 65.8 139.038 65.928C138.646 66.056 138.218 66.12 137.754 66.12ZM142.051 67.776H141.103V65.1H141.691C141.947 64.844 142.127 64.484 142.231 64.02C142.343 63.556 142.411 62.976 142.435 62.28C142.459 61.576 142.471 60.74 142.471 59.772H146.971V65.1H147.907V67.776H146.983L146.851 66H142.159L142.051 67.776ZM145.915 60.672H143.455C143.447 61.808 143.407 62.728 143.335 63.432C143.271 64.128 143.107 64.684 142.843 65.1H145.915V60.672ZM151.651 66.12C150.611 66.12 149.815 65.836 149.263 65.268C148.719 64.692 148.447 63.896 148.447 62.88C148.447 62.2 148.575 61.62 148.831 61.14C149.087 60.66 149.439 60.292 149.887 60.036C150.335 59.78 150.839 59.652 151.399 59.652C152.351 59.652 153.051 59.968 153.499 60.6C153.947 61.224 154.091 62.08 153.931 63.168H149.539C149.627 64.504 150.363 65.172 151.747 65.172C152.507 65.172 153.207 64.956 153.847 64.524V65.472C153.559 65.672 153.223 65.832 152.839 65.952C152.455 66.064 152.059 66.12 151.651 66.12ZM151.375 60.588C150.919 60.588 150.527 60.728 150.199 61.008C149.871 61.288 149.663 61.712 149.575 62.28H152.923C152.947 61.744 152.823 61.328 152.551 61.032C152.279 60.736 151.887 60.588 151.375 60.588ZM154.844 64.968C155.324 65.04 155.652 64.74 155.828 64.068C155.892 63.828 155.944 63.528 155.984 63.168C156.024 62.8 156.052 62.344 156.068 61.8C156.084 61.248 156.092 60.572 156.092 59.772H160.4V66H159.332V60.672H157.088C157.08 61.624 157.052 62.388 157.004 62.964C156.964 63.532 156.896 64.008 156.8 64.392C156.648 64.992 156.416 65.42 156.104 65.676C155.792 65.932 155.372 66.044 154.844 66.012V64.968ZM168.124 66H167.032V58.752L164.656 60.576V59.364L167.212 57.396H168.124V66Z" fill="black" fill-opacity="0.85"/>
<g filter="url(#filter2_d_1_681)">
<rect x="424" y="42" width="260" height="248" rx="10" fill="white"/>
</g>
<path d="M530.75 57.396H533.498C534.474 57.396 535.23 57.6 535.766 58.008C536.31 58.408 536.582 59.036 536.582 59.892C536.582 60.54 536.446 61.068 536.174 61.476C535.91 61.884 535.538 62.184 535.058 62.376C534.586 62.56 534.034 62.652 533.402 62.652H531.878V66H530.75V57.396ZM533.402 61.632C534.01 61.632 534.502 61.5 534.878 61.236C535.254 60.972 535.442 60.528 535.442 59.904C535.442 59.384 535.274 59.008 534.938 58.776C534.602 58.544 534.122 58.428 533.498 58.428H531.878V61.632H533.402ZM539.738 60.588C539.074 60.588 538.402 60.792 537.722 61.2V60.252C538.018 60.068 538.358 59.924 538.742 59.82C539.134 59.708 539.514 59.652 539.882 59.652C540.666 59.652 541.262 59.816 541.67 60.144C542.078 60.472 542.282 60.972 542.282 61.644V64.992C542.282 65.128 542.286 65.304 542.294 65.52C542.31 65.728 542.326 65.888 542.342 66H541.382C541.358 65.888 541.334 65.732 541.31 65.532C541.294 65.324 541.286 65.144 541.286 64.992L541.274 64.812C541.178 65.004 541.046 65.204 540.878 65.412C540.71 65.612 540.486 65.78 540.206 65.916C539.934 66.052 539.594 66.12 539.186 66.12C538.626 66.12 538.174 65.96 537.83 65.64C537.486 65.32 537.314 64.868 537.314 64.284C537.314 63.604 537.554 63.104 538.034 62.784C538.514 62.464 539.19 62.304 540.062 62.304H541.226V61.788C541.226 61.356 541.114 61.048 540.89 60.864C540.666 60.68 540.282 60.588 539.738 60.588ZM541.226 63.6V63.144H540.17C539.538 63.144 539.078 63.236 538.79 63.42C538.51 63.604 538.37 63.872 538.37 64.224C538.37 64.504 538.454 64.732 538.622 64.908C538.798 65.084 539.062 65.172 539.414 65.172C539.742 65.172 540.022 65.108 540.254 64.98C540.486 64.844 540.674 64.684 540.818 64.5C540.962 64.308 541.066 64.128 541.13 63.96C541.194 63.792 541.226 63.672 541.226 63.6ZM545.754 66.12C545.362 66.12 544.982 66.076 544.614 65.988C544.254 65.9 543.958 65.78 543.726 65.628V64.68C543.982 64.832 544.286 64.952 544.638 65.04C544.99 65.128 545.354 65.172 545.73 65.172C546.186 65.172 546.566 65.1 546.87 64.956C547.182 64.804 547.338 64.548 547.338 64.188C547.338 63.836 547.206 63.588 546.942 63.444C546.686 63.3 546.29 63.228 545.754 63.228H544.926V62.376H545.79C546.23 62.376 546.566 62.296 546.798 62.136C547.03 61.976 547.146 61.744 547.146 61.44C547.146 61.12 547.006 60.9 546.726 60.78C546.454 60.652 546.122 60.588 545.73 60.588C545.026 60.588 544.398 60.756 543.846 61.092V60.144C544.086 59.984 544.378 59.864 544.722 59.784C545.074 59.696 545.438 59.652 545.814 59.652C546.574 59.652 547.146 59.796 547.53 60.084C547.922 60.372 548.118 60.788 548.118 61.332C548.118 61.74 548.006 62.064 547.782 62.304C547.558 62.536 547.25 62.692 546.858 62.772C547.346 62.836 547.718 62.992 547.974 63.24C548.23 63.488 548.358 63.804 548.358 64.188C548.358 64.652 548.234 65.028 547.986 65.316C547.746 65.596 547.43 65.8 547.038 65.928C546.646 66.056 546.218 66.12 545.754 66.12ZM550.051 67.776H549.103V65.1H549.691C549.947 64.844 550.127 64.484 550.231 64.02C550.343 63.556 550.411 62.976 550.435 62.28C550.459 61.576 550.471 60.74 550.471 59.772H554.971V65.1H555.907V67.776H554.983L554.851 66H550.159L550.051 67.776ZM553.915 60.672H551.455C551.447 61.808 551.407 62.728 551.335 63.432C551.271 64.128 551.107 64.684 550.843 65.1H553.915V60.672ZM559.651 66.12C558.611 66.12 557.815 65.836 557.263 65.268C556.719 64.692 556.447 63.896 556.447 62.88C556.447 62.2 556.575 61.62 556.831 61.14C557.087 60.66 557.439 60.292 557.887 60.036C558.335 59.78 558.839 59.652 559.399 59.652C560.351 59.652 561.051 59.968 561.499 60.6C561.947 61.224 562.091 62.08 561.931 63.168H557.539C557.627 64.504 558.363 65.172 559.747 65.172C560.507 65.172 561.207 64.956 561.847 64.524V65.472C561.559 65.672 561.223 65.832 560.839 65.952C560.455 66.064 560.059 66.12 559.651 66.12ZM559.375 60.588C558.919 60.588 558.527 60.728 558.199 61.008C557.871 61.288 557.663 61.712 557.575 62.28H560.923C560.947 61.744 560.823 61.328 560.551 61.032C560.279 60.736 559.887 60.588 559.375 60.588ZM562.844 64.968C563.324 65.04 563.652 64.74 563.828 64.068C563.892 63.828 563.944 63.528 563.984 63.168C564.024 62.8 564.052 62.344 564.068 61.8C564.084 61.248 564.092 60.572 564.092 59.772H568.4V66H567.332V60.672H565.088C565.08 61.624 565.052 62.388 565.004 62.964C564.964 63.532 564.896 64.008 564.8 64.392C564.648 64.992 564.416 65.42 564.104 65.676C563.792 65.932 563.372 66.044 562.844 66.012V64.968ZM573.652 62.016V60.996H574.804C575.252 60.996 575.616 60.876 575.896 60.636C576.184 60.388 576.328 60.04 576.328 59.592C576.328 59.184 576.196 58.864 575.932 58.632C575.668 58.392 575.288 58.272 574.792 58.272C574.376 58.272 573.984 58.348 573.616 58.5C573.256 58.652 572.88 58.896 572.488 59.232V58.056C573.128 57.536 573.9 57.276 574.804 57.276C575.628 57.276 576.272 57.484 576.736 57.9C577.208 58.316 577.444 58.86 577.444 59.532C577.444 60.076 577.292 60.508 576.988 60.828C576.692 61.148 576.336 61.36 575.92 61.464C576.256 61.512 576.564 61.628 576.844 61.812C577.132 61.988 577.364 62.22 577.54 62.508C577.716 62.796 577.804 63.132 577.804 63.516C577.804 64.044 577.672 64.504 577.408 64.896C577.144 65.288 576.78 65.592 576.316 65.808C575.86 66.016 575.328 66.12 574.72 66.12C573.664 66.12 572.848 65.876 572.272 65.388V64.188C572.576 64.484 572.944 64.716 573.376 64.884C573.808 65.052 574.26 65.136 574.732 65.136C575.324 65.136 575.788 64.996 576.124 64.716C576.468 64.428 576.64 64.036 576.64 63.54C576.64 63.06 576.484 62.688 576.172 62.424C575.868 62.152 575.396 62.016 574.756 62.016H573.652Z" fill="black" fill-opacity="0.85"/>
<path d="M326.75 57.396H329.498C330.474 57.396 331.23 57.6 331.766 58.008C332.31 58.408 332.582 59.036 332.582 59.892C332.582 60.54 332.446 61.068 332.174 61.476C331.91 61.884 331.538 62.184 331.058 62.376C330.586 62.56 330.034 62.652 329.402 62.652H327.878V66H326.75V57.396ZM329.402 61.632C330.01 61.632 330.502 61.5 330.878 61.236C331.254 60.972 331.442 60.528 331.442 59.904C331.442 59.384 331.274 59.008 330.938 58.776C330.602 58.544 330.122 58.428 329.498 58.428H327.878V61.632H329.402ZM335.738 60.588C335.074 60.588 334.402 60.792 333.722 61.2V60.252C334.018 60.068 334.358 59.924 334.742 59.82C335.134 59.708 335.514 59.652 335.882 59.652C336.666 59.652 337.262 59.816 337.67 60.144C338.078 60.472 338.282 60.972 338.282 61.644V64.992C338.282 65.128 338.286 65.304 338.294 65.52C338.31 65.728 338.326 65.888 338.342 66H337.382C337.358 65.888 337.334 65.732 337.31 65.532C337.294 65.324 337.286 65.144 337.286 64.992L337.274 64.812C337.178 65.004 337.046 65.204 336.878 65.412C336.71 65.612 336.486 65.78 336.206 65.916C335.934 66.052 335.594 66.12 335.186 66.12C334.626 66.12 334.174 65.96 333.83 65.64C333.486 65.32 333.314 64.868 333.314 64.284C333.314 63.604 333.554 63.104 334.034 62.784C334.514 62.464 335.19 62.304 336.062 62.304H337.226V61.788C337.226 61.356 337.114 61.048 336.89 60.864C336.666 60.68 336.282 60.588 335.738 60.588ZM337.226 63.6V63.144H336.17C335.538 63.144 335.078 63.236 334.79 63.42C334.51 63.604 334.37 63.872 334.37 64.224C334.37 64.504 334.454 64.732 334.622 64.908C334.798 65.084 335.062 65.172 335.414 65.172C335.742 65.172 336.022 65.108 336.254 64.98C336.486 64.844 336.674 64.684 336.818 64.5C336.962 64.308 337.066 64.128 337.13 63.96C337.194 63.792 337.226 63.672 337.226 63.6ZM341.754 66.12C341.362 66.12 340.982 66.076 340.614 65.988C340.254 65.9 339.958 65.78 339.726 65.628V64.68C339.982 64.832 340.286 64.952 340.638 65.04C340.99 65.128 341.354 65.172 341.73 65.172C342.186 65.172 342.566 65.1 342.87 64.956C343.182 64.804 343.338 64.548 343.338 64.188C343.338 63.836 343.206 63.588 342.942 63.444C342.686 63.3 342.29 63.228 341.754 63.228H340.926V62.376H341.79C342.23 62.376 342.566 62.296 342.798 62.136C343.03 61.976 343.146 61.744 343.146 61.44C343.146 61.12 343.006 60.9 342.726 60.78C342.454 60.652 342.122 60.588 341.73 60.588C341.026 60.588 340.398 60.756 339.846 61.092V60.144C340.086 59.984 340.378 59.864 340.722 59.784C341.074 59.696 341.438 59.652 341.814 59.652C342.574 59.652 343.146 59.796 343.53 60.084C343.922 60.372 344.118 60.788 344.118 61.332C344.118 61.74 344.006 62.064 343.782 62.304C343.558 62.536 343.25 62.692 342.858 62.772C343.346 62.836 343.718 62.992 343.974 63.24C344.23 63.488 344.358 63.804 344.358 64.188C344.358 64.652 344.234 65.028 343.986 65.316C343.746 65.596 343.43 65.8 343.038 65.928C342.646 66.056 342.218 66.12 341.754 66.12ZM346.051 67.776H345.103V65.1H345.691C345.947 64.844 346.127 64.484 346.231 64.02C346.343 63.556 346.411 62.976 346.435 62.28C346.459 61.576 346.471 60.74 346.471 59.772H350.971V65.1H351.907V67.776H350.983L350.851 66H346.159L346.051 67.776ZM349.915 60.672H347.455C347.447 61.808 347.407 62.728 347.335 63.432C347.271 64.128 347.107 64.684 346.843 65.1H349.915V60.672ZM355.651 66.12C354.611 66.12 353.815 65.836 353.263 65.268C352.719 64.692 352.447 63.896 352.447 62.88C352.447 62.2 352.575 61.62 352.831 61.14C353.087 60.66 353.439 60.292 353.887 60.036C354.335 59.78 354.839 59.652 355.399 59.652C356.351 59.652 357.051 59.968 357.499 60.6C357.947 61.224 358.091 62.08 357.931 63.168H353.539C353.627 64.504 354.363 65.172 355.747 65.172C356.507 65.172 357.207 64.956 357.847 64.524V65.472C357.559 65.672 357.223 65.832 356.839 65.952C356.455 66.064 356.059 66.12 355.651 66.12ZM355.375 60.588C354.919 60.588 354.527 60.728 354.199 61.008C353.871 61.288 353.663 61.712 353.575 62.28H356.923C356.947 61.744 356.823 61.328 356.551 61.032C356.279 60.736 355.887 60.588 355.375 60.588ZM358.844 64.968C359.324 65.04 359.652 64.74 359.828 64.068C359.892 63.828 359.944 63.528 359.984 63.168C360.024 62.8 360.052 62.344 360.068 61.8C360.084 61.248 360.092 60.572 360.092 59.772H364.4V66H363.332V60.672H361.088C361.08 61.624 361.052 62.388 361.004 62.964C360.964 63.532 360.896 64.008 360.8 64.392C360.648 64.992 360.416 65.42 360.104 65.676C359.792 65.932 359.372 66.044 358.844 66.012V64.968ZM373.732 66H368.248V64.86C369.104 64.172 369.804 63.584 370.348 63.096C370.9 62.608 371.328 62.184 371.632 61.824C371.944 61.456 372.16 61.116 372.28 60.804C372.408 60.492 372.472 60.176 372.472 59.856C372.472 59.36 372.324 58.972 372.028 58.692C371.732 58.412 371.324 58.272 370.804 58.272C369.972 58.272 369.196 58.668 368.476 59.46V58.248C369.14 57.6 369.928 57.276 370.84 57.276C371.704 57.276 372.384 57.5 372.88 57.948C373.384 58.388 373.636 58.988 373.636 59.748C373.636 60.14 373.572 60.516 373.444 60.876C373.324 61.228 373.108 61.6 372.796 61.992C372.492 62.376 372.072 62.808 371.536 63.288C371 63.768 370.32 64.328 369.496 64.968H373.732V66Z" fill="black" fill-opacity="0.85"/>
<path d="M302.763 26.12C302.227 26.12 301.711 26.052 301.215 25.916C300.727 25.78 300.347 25.6 300.075 25.376V24.296C300.827 24.832 301.711 25.1 302.727 25.1C303.127 25.1 303.491 25.052 303.819 24.956C304.147 24.86 304.411 24.7 304.611 24.476C304.811 24.244 304.911 23.932 304.911 23.54C304.911 22.996 304.735 22.616 304.383 22.4C304.039 22.176 303.523 22.064 302.835 22.064H301.599V21.104H302.811C303.411 21.104 303.867 20.976 304.179 20.72C304.491 20.456 304.647 20.096 304.647 19.64C304.647 19.144 304.483 18.796 304.155 18.596C303.827 18.396 303.395 18.296 302.859 18.296C301.899 18.296 301.015 18.504 300.207 18.92V17.852C300.919 17.476 301.807 17.288 302.871 17.288C303.767 17.288 304.479 17.472 305.007 17.84C305.535 18.208 305.799 18.784 305.799 19.568C305.799 20.072 305.647 20.492 305.343 20.828C305.047 21.156 304.611 21.384 304.035 21.512C304.707 21.6 305.219 21.808 305.571 22.136C305.923 22.464 306.099 22.924 306.099 23.516C306.099 24.124 305.947 24.62 305.643 25.004C305.347 25.388 304.947 25.672 304.443 25.856C303.939 26.032 303.379 26.12 302.763 26.12ZM310.137 26.12C309.569 26.12 309.057 25.996 308.601 25.748C308.153 25.492 307.797 25.124 307.533 24.644C307.269 24.156 307.137 23.568 307.137 22.88C307.137 22.192 307.269 21.608 307.533 21.128C307.797 20.648 308.153 20.284 308.601 20.036C309.057 19.78 309.569 19.652 310.137 19.652C310.713 19.652 311.229 19.78 311.685 20.036C312.141 20.284 312.501 20.648 312.765 21.128C313.029 21.608 313.161 22.192 313.161 22.88C313.161 23.568 313.029 24.156 312.765 24.644C312.501 25.124 312.141 25.492 311.685 25.748C311.229 25.996 310.713 26.12 310.137 26.12ZM310.137 25.172C310.697 25.172 311.161 24.988 311.529 24.62C311.897 24.244 312.081 23.664 312.081 22.88C312.081 22.096 311.897 21.52 311.529 21.152C311.161 20.776 310.697 20.588 310.137 20.588C309.585 20.588 309.125 20.776 308.757 21.152C308.397 21.52 308.217 22.096 308.217 22.88C308.217 23.664 308.397 24.244 308.757 24.62C309.125 24.988 309.585 25.172 310.137 25.172ZM315.504 19.772V22.34H318.516V19.772H319.572V26H318.516V23.24H315.504V26H314.448V19.772H315.504ZM323.415 20.588C322.751 20.588 322.079 20.792 321.399 21.2V20.252C321.695 20.068 322.035 19.924 322.419 19.82C322.811 19.708 323.191 19.652 323.559 19.652C324.343 19.652 324.939 19.816 325.347 20.144C325.755 20.472 325.959 20.972 325.959 21.644V24.992C325.959 25.128 325.963 25.304 325.971 25.52C325.987 25.728 326.003 25.888 326.019 26H325.059C325.035 25.888 325.011 25.732 324.987 25.532C324.971 25.324 324.963 25.144 324.963 24.992L324.951 24.812C324.855 25.004 324.723 25.204 324.555 25.412C324.387 25.612 324.163 25.78 323.883 25.916C323.611 26.052 323.271 26.12 322.863 26.12C322.303 26.12 321.851 25.96 321.507 25.64C321.163 25.32 320.991 24.868 320.991 24.284C320.991 23.604 321.231 23.104 321.711 22.784C322.191 22.464 322.867 22.304 323.739 22.304H324.903V21.788C324.903 21.356 324.791 21.048 324.567 20.864C324.343 20.68 323.959 20.588 323.415 20.588ZM324.903 23.6V23.144H323.847C323.215 23.144 322.755 23.236 322.467 23.42C322.187 23.604 322.047 23.872 322.047 24.224C322.047 24.504 322.131 24.732 322.299 24.908C322.475 25.084 322.739 25.172 323.091 25.172C323.419 25.172 323.699 25.108 323.931 24.98C324.163 24.844 324.351 24.684 324.495 24.5C324.639 24.308 324.743 24.128 324.807 23.96C324.871 23.792 324.903 23.672 324.903 23.6ZM330.166 27.776H329.218V25.1H329.806C330.062 24.844 330.242 24.484 330.346 24.02C330.458 23.556 330.526 22.976 330.55 22.28C330.574 21.576 330.586 20.74 330.586 19.772H335.086V25.1H336.022V27.776H335.098L334.966 26H330.274L330.166 27.776ZM334.03 20.672H331.57C331.562 21.808 331.522 22.728 331.45 23.432C331.386 24.128 331.222 24.684 330.958 25.1H334.03V20.672ZM339.563 26.12C338.995 26.12 338.483 25.996 338.027 25.748C337.579 25.492 337.223 25.124 336.959 24.644C336.695 24.156 336.563 23.568 336.563 22.88C336.563 22.192 336.695 21.608 336.959 21.128C337.223 20.648 337.579 20.284 338.027 20.036C338.483 19.78 338.995 19.652 339.563 19.652C340.139 19.652 340.655 19.78 341.111 20.036C341.567 20.284 341.927 20.648 342.191 21.128C342.455 21.608 342.587 22.192 342.587 22.88C342.587 23.568 342.455 24.156 342.191 24.644C341.927 25.124 341.567 25.492 341.111 25.748C340.655 25.996 340.139 26.12 339.563 26.12ZM339.563 25.172C340.123 25.172 340.587 24.988 340.955 24.62C341.323 24.244 341.507 23.664 341.507 22.88C341.507 22.096 341.323 21.52 340.955 21.152C340.587 20.776 340.123 20.588 339.563 20.588C339.011 20.588 338.551 20.776 338.183 21.152C337.823 21.52 337.643 22.096 337.643 22.88C337.643 23.664 337.823 24.244 338.183 24.62C338.551 24.988 339.011 25.172 339.563 25.172ZM346.562 26.12C345.594 26.12 344.83 25.836 344.27 25.268C343.71 24.692 343.43 23.896 343.43 22.88C343.43 21.864 343.714 21.072 344.282 20.504C344.85 19.936 345.626 19.652 346.61 19.652C346.986 19.652 347.338 19.696 347.666 19.784C347.994 19.864 348.258 19.984 348.458 20.144V21.092C347.914 20.756 347.302 20.588 346.622 20.588C345.902 20.588 345.37 20.78 345.026 21.164C344.682 21.54 344.51 22.112 344.51 22.88C344.51 23.648 344.674 24.224 345.002 24.608C345.338 24.984 345.858 25.172 346.562 25.172C347.242 25.172 347.874 25.008 348.458 24.68V25.628C347.938 25.956 347.306 26.12 346.562 26.12ZM349.37 19.772H354.374V20.672H352.382V26H351.326V20.672H349.37V19.772ZM356.308 28.244C355.98 28.244 355.708 28.2 355.492 28.112V27.092C355.652 27.228 355.912 27.296 356.272 27.296C356.552 27.296 356.788 27.228 356.98 27.092C357.18 26.964 357.372 26.74 357.556 26.42L355.024 19.772H356.188L358.168 25.028L360.136 19.772H361.156L358.828 25.928C358.508 26.752 358.152 27.344 357.76 27.704C357.368 28.064 356.884 28.244 356.308 28.244ZM362.202 26V19.772H367.194V26H366.138V20.672H363.258V26H362.202ZM369.973 19.772V22.34H372.985V19.772H374.041V26H372.985V23.24H369.973V26H368.917V19.772H369.973ZM378.328 26.12C377.76 26.12 377.248 25.996 376.792 25.748C376.344 25.492 375.988 25.124 375.724 24.644C375.46 24.156 375.328 23.568 375.328 22.88C375.328 22.192 375.46 21.608 375.724 21.128C375.988 20.648 376.344 20.284 376.792 20.036C377.248 19.78 377.76 19.652 378.328 19.652C378.904 19.652 379.42 19.78 379.876 20.036C380.332 20.284 380.692 20.648 380.956 21.128C381.22 21.608 381.352 22.192 381.352 22.88C381.352 23.568 381.22 24.156 380.956 24.644C380.692 25.124 380.332 25.492 379.876 25.748C379.42 25.996 378.904 26.12 378.328 26.12ZM378.328 25.172C378.888 25.172 379.352 24.988 379.72 24.62C380.088 24.244 380.272 23.664 380.272 22.88C380.272 22.096 380.088 21.52 379.72 21.152C379.352 20.776 378.888 20.588 378.328 20.588C377.776 20.588 377.316 20.776 376.948 21.152C376.588 21.52 376.408 22.096 376.408 22.88C376.408 23.664 376.588 24.244 376.948 24.62C377.316 24.988 377.776 25.172 378.328 25.172ZM385.327 26.12C384.359 26.12 383.595 25.836 383.035 25.268C382.475 24.692 382.195 23.896 382.195 22.88C382.195 21.864 382.479 21.072 383.047 20.504C383.615 19.936 384.391 19.652 385.375 19.652C385.751 19.652 386.103 19.696 386.431 19.784C386.759 19.864 387.023 19.984 387.223 20.144V21.092C386.679 20.756 386.067 20.588 385.387 20.588C384.667 20.588 384.135 20.78 383.791 21.164C383.447 21.54 383.275 22.112 383.275 22.88C383.275 23.648 383.439 24.224 383.767 24.608C384.103 24.984 384.623 25.172 385.327 25.172C386.007 25.172 386.639 25.008 387.223 24.68V25.628C386.703 25.956 386.071 26.12 385.327 26.12ZM388.135 19.772H393.139V20.672H391.147V26H390.091V20.672H388.135V19.772ZM395.414 19.772V24.536L398.618 19.772H399.686V26H398.63V21.248L395.438 26H394.358V19.772H395.414Z" fill="black" fill-opacity="0.85"/>
<path d="M254.076 382.396H259.092V383.428H255.204V391H254.076V382.396ZM259.745 384.772H260.669L260.777 385.984C260.977 385.584 261.253 385.264 261.605 385.024C261.965 384.776 262.405 384.652 262.925 384.652C263.413 384.652 263.861 384.772 264.269 385.012C264.685 385.244 265.021 385.6 265.277 386.08C265.533 386.552 265.661 387.152 265.661 387.88C265.661 388.608 265.529 389.212 265.265 389.692C265.009 390.172 264.669 390.532 264.245 390.772C263.829 391.004 263.373 391.12 262.877 391.12C262.405 391.12 261.993 391.008 261.641 390.784C261.289 390.56 261.009 390.252 260.801 389.86V393.124H259.745V384.772ZM264.569 387.88C264.569 387.128 264.397 386.56 264.053 386.176C263.709 385.784 263.265 385.588 262.721 385.588C262.177 385.588 261.717 385.78 261.341 386.164C260.973 386.54 260.789 387.112 260.789 387.88C260.789 388.656 260.973 389.232 261.341 389.608C261.717 389.984 262.177 390.172 262.721 390.172C263.265 390.172 263.709 389.98 264.053 389.596C264.397 389.212 264.569 388.64 264.569 387.88ZM267.422 393.244C267.094 393.244 266.822 393.2 266.606 393.112V392.092C266.766 392.228 267.026 392.296 267.386 392.296C267.666 392.296 267.902 392.228 268.094 392.092C268.294 391.964 268.486 391.74 268.67 391.42L266.138 384.772H267.302L269.282 390.028L271.25 384.772H272.27L269.942 390.928C269.622 391.752 269.266 392.344 268.874 392.704C268.482 393.064 267.998 393.244 267.422 393.244ZM273.315 391V384.772H278.307V391H277.251V385.672H274.371V391H273.315ZM280.03 391V384.772H285.022V391H283.966V385.672H281.086V391H280.03ZM288.857 385.588C288.193 385.588 287.521 385.792 286.841 386.2V385.252C287.137 385.068 287.477 384.924 287.861 384.82C288.253 384.708 288.633 384.652 289.001 384.652C289.785 384.652 290.381 384.816 290.789 385.144C291.197 385.472 291.401 385.972 291.401 386.644V389.992C291.401 390.128 291.405 390.304 291.413 390.52C291.429 390.728 291.445 390.888 291.461 391H290.501C290.477 390.888 290.453 390.732 290.429 390.532C290.413 390.324 290.405 390.144 290.405 389.992L290.393 389.812C290.297 390.004 290.165 390.204 289.997 390.412C289.829 390.612 289.605 390.78 289.325 390.916C289.053 391.052 288.713 391.12 288.305 391.12C287.745 391.12 287.293 390.96 286.949 390.64C286.605 390.32 286.433 389.868 286.433 389.284C286.433 388.604 286.673 388.104 287.153 387.784C287.633 387.464 288.309 387.304 289.181 387.304H290.345V386.788C290.345 386.356 290.233 386.048 290.009 385.864C289.785 385.68 289.401 385.588 288.857 385.588ZM290.345 388.6V388.144H289.289C288.657 388.144 288.197 388.236 287.909 388.42C287.629 388.604 287.489 388.872 287.489 389.224C287.489 389.504 287.573 389.732 287.741 389.908C287.917 390.084 288.181 390.172 288.533 390.172C288.861 390.172 289.141 390.108 289.373 389.98C289.605 389.844 289.793 389.684 289.937 389.5C290.081 389.308 290.185 389.128 290.249 388.96C290.313 388.792 290.345 388.672 290.345 388.6ZM298.152 391.12C297.184 391.12 296.42 390.836 295.86 390.268C295.3 389.692 295.02 388.896 295.02 387.88C295.02 386.864 295.304 386.072 295.872 385.504C296.44 384.936 297.216 384.652 298.2 384.652C298.576 384.652 298.928 384.696 299.256 384.784C299.584 384.864 299.848 384.984 300.048 385.144V386.092C299.504 385.756 298.892 385.588 298.212 385.588C297.492 385.588 296.96 385.78 296.616 386.164C296.272 386.54 296.1 387.112 296.1 387.88C296.1 388.648 296.264 389.224 296.592 389.608C296.928 389.984 297.448 390.172 298.152 390.172C298.832 390.172 299.464 390.008 300.048 389.68V390.628C299.528 390.956 298.896 391.12 298.152 391.12ZM303.866 384.772H304.79L304.898 385.984C305.098 385.584 305.374 385.264 305.726 385.024C306.086 384.776 306.526 384.652 307.046 384.652C307.534 384.652 307.982 384.772 308.39 385.012C308.806 385.244 309.142 385.6 309.398 386.08C309.654 386.552 309.782 387.152 309.782 387.88C309.782 388.608 309.65 389.212 309.386 389.692C309.13 390.172 308.79 390.532 308.366 390.772C307.95 391.004 307.494 391.12 306.998 391.12C306.526 391.12 306.114 391.008 305.762 390.784C305.41 390.56 305.13 390.252 304.922 389.86V393.124H303.866V384.772ZM308.69 387.88C308.69 387.128 308.518 386.56 308.174 386.176C307.83 385.784 307.386 385.588 306.842 385.588C306.298 385.588 305.838 385.78 305.462 386.164C305.094 386.54 304.91 387.112 304.91 387.88C304.91 388.656 305.094 389.232 305.462 389.608C305.838 389.984 306.298 390.172 306.842 390.172C307.386 390.172 307.83 389.98 308.174 389.596C308.518 389.212 308.69 388.64 308.69 387.88ZM313.115 385.588C312.451 385.588 311.779 385.792 311.099 386.2V385.252C311.395 385.068 311.735 384.924 312.119 384.82C312.511 384.708 312.891 384.652 313.259 384.652C314.043 384.652 314.639 384.816 315.047 385.144C315.455 385.472 315.659 385.972 315.659 386.644V389.992C315.659 390.128 315.663 390.304 315.671 390.52C315.687 390.728 315.703 390.888 315.719 391H314.759C314.735 390.888 314.711 390.732 314.687 390.532C314.671 390.324 314.663 390.144 314.663 389.992L314.651 389.812C314.555 390.004 314.423 390.204 314.255 390.412C314.087 390.612 313.863 390.78 313.583 390.916C313.311 391.052 312.971 391.12 312.563 391.12C312.003 391.12 311.551 390.96 311.207 390.64C310.863 390.32 310.691 389.868 310.691 389.284C310.691 388.604 310.931 388.104 311.411 387.784C311.891 387.464 312.567 387.304 313.439 387.304H314.603V386.788C314.603 386.356 314.491 386.048 314.267 385.864C314.043 385.68 313.659 385.588 313.115 385.588ZM314.603 388.6V388.144H313.547C312.915 388.144 312.455 388.236 312.167 388.42C311.887 388.604 311.747 388.872 311.747 389.224C311.747 389.504 311.831 389.732 311.999 389.908C312.175 390.084 312.439 390.172 312.791 390.172C313.119 390.172 313.399 390.108 313.631 389.98C313.863 389.844 314.051 389.684 314.195 389.5C314.339 389.308 314.443 389.128 314.507 388.96C314.571 388.792 314.603 388.672 314.603 388.6ZM319.131 391.12C318.739 391.12 318.359 391.076 317.991 390.988C317.631 390.9 317.335 390.78 317.103 390.628V389.68C317.359 389.832 317.663 389.952 318.015 390.04C318.367 390.128 318.731 390.172 319.107 390.172C319.563 390.172 319.943 390.1 320.247 389.956C320.559 389.804 320.715 389.548 320.715 389.188C320.715 388.836 320.583 388.588 320.319 388.444C320.063 388.3 319.667 388.228 319.131 388.228H318.303V387.376H319.167C319.607 387.376 319.943 387.296 320.175 387.136C320.407 386.976 320.523 386.744 320.523 386.44C320.523 386.12 320.383 385.9 320.103 385.78C319.831 385.652 319.499 385.588 319.107 385.588C318.403 385.588 317.775 385.756 317.223 386.092V385.144C317.463 384.984 317.755 384.864 318.099 384.784C318.451 384.696 318.815 384.652 319.191 384.652C319.951 384.652 320.523 384.796 320.907 385.084C321.299 385.372 321.495 385.788 321.495 386.332C321.495 386.74 321.383 387.064 321.159 387.304C320.935 387.536 320.627 387.692 320.235 387.772C320.723 387.836 321.095 387.992 321.351 388.24C321.607 388.488 321.735 388.804 321.735 389.188C321.735 389.652 321.611 390.028 321.363 390.316C321.123 390.596 320.807 390.8 320.415 390.928C320.023 391.056 319.595 391.12 319.131 391.12ZM323.284 384.772H324.856L326.764 388.948L328.804 384.772H330.268V391H329.224V385.996L327.112 390.304H326.272L324.28 385.972V391H323.284V384.772ZM334.751 391.12C333.711 391.12 332.915 390.836 332.363 390.268C331.819 389.692 331.547 388.896 331.547 387.88C331.547 387.2 331.675 386.62 331.931 386.14C332.187 385.66 332.539 385.292 332.987 385.036C333.435 384.78 333.939 384.652 334.499 384.652C335.451 384.652 336.151 384.968 336.599 385.6C337.047 386.224 337.191 387.08 337.031 388.168H332.639C332.727 389.504 333.463 390.172 334.847 390.172C335.607 390.172 336.307 389.956 336.947 389.524V390.472C336.659 390.672 336.323 390.832 335.939 390.952C335.555 391.064 335.159 391.12 334.751 391.12ZM334.475 385.588C334.019 385.588 333.627 385.728 333.299 386.008C332.971 386.288 332.763 386.712 332.675 387.28H336.023C336.047 386.744 335.923 386.328 335.651 386.032C335.379 385.736 334.987 385.588 334.475 385.588ZM346.26 392.776L346.128 391H338.448V384.772H339.504V390.1H341.808V384.772H342.864V390.1H345.168V384.772H346.224V390.1H347.16V392.776H346.26ZM350.911 391.12C349.871 391.12 349.075 390.836 348.523 390.268C347.979 389.692 347.707 388.896 347.707 387.88C347.707 387.2 347.835 386.62 348.091 386.14C348.347 385.66 348.699 385.292 349.147 385.036C349.595 384.78 350.099 384.652 350.659 384.652C351.611 384.652 352.311 384.968 352.759 385.6C353.207 386.224 353.351 387.08 353.191 388.168H348.799C348.887 389.504 349.623 390.172 351.007 390.172C351.767 390.172 352.467 389.956 353.107 389.524V390.472C352.819 390.672 352.483 390.832 352.099 390.952C351.715 391.064 351.319 391.12 350.911 391.12ZM350.635 385.588C350.179 385.588 349.787 385.728 349.459 386.008C349.131 386.288 348.923 386.712 348.835 387.28H352.183C352.207 386.744 352.083 386.328 351.811 386.032C351.539 385.736 351.147 385.588 350.635 385.588ZM355.664 384.772V387.34H358.676V384.772H359.732V391H358.676V388.24H355.664V391H354.608V384.772H355.664ZM362.52 384.772V389.536L365.724 384.772H366.792V391H365.736V386.248L362.544 391H361.464V384.772H362.52ZM371.278 391.12C370.238 391.12 369.442 390.836 368.89 390.268C368.346 389.692 368.074 388.896 368.074 387.88C368.074 387.2 368.202 386.62 368.458 386.14C368.714 385.66 369.066 385.292 369.514 385.036C369.962 384.78 370.466 384.652 371.026 384.652C371.978 384.652 372.678 384.968 373.126 385.6C373.574 386.224 373.718 387.08 373.558 388.168H369.166C369.254 389.504 369.99 390.172 371.374 390.172C372.134 390.172 372.834 389.956 373.474 389.524V390.472C373.186 390.672 372.85 390.832 372.466 390.952C372.082 391.064 371.686 391.12 371.278 391.12ZM371.002 385.588C370.546 385.588 370.154 385.728 369.826 386.008C369.498 386.288 369.29 386.712 369.202 387.28H372.55C372.574 386.744 372.45 386.328 372.178 386.032C371.906 385.736 371.514 385.588 371.002 385.588ZM374.975 384.772H376.547L378.455 388.948L380.495 384.772H381.959V391H380.915V385.996L378.803 390.304H377.963L375.971 385.972V391H374.975V384.772ZM386.085 384.772H387.009L387.117 385.984C387.317 385.584 387.593 385.264 387.945 385.024C388.305 384.776 388.745 384.652 389.265 384.652C389.753 384.652 390.201 384.772 390.609 385.012C391.025 385.244 391.361 385.6 391.617 386.08C391.873 386.552 392.001 387.152 392.001 387.88C392.001 388.608 391.869 389.212 391.605 389.692C391.349 390.172 391.009 390.532 390.585 390.772C390.169 391.004 389.713 391.12 389.217 391.12C388.745 391.12 388.333 391.008 387.981 390.784C387.629 390.56 387.349 390.252 387.141 389.86V393.124H386.085V384.772ZM390.909 387.88C390.909 387.128 390.737 386.56 390.393 386.176C390.049 385.784 389.605 385.588 389.061 385.588C388.517 385.588 388.057 385.78 387.681 386.164C387.313 386.54 387.129 387.112 387.129 387.88C387.129 388.656 387.313 389.232 387.681 389.608C388.057 389.984 388.517 390.172 389.061 390.172C389.605 390.172 390.049 389.98 390.393 389.596C390.737 389.212 390.909 388.64 390.909 387.88ZM395.333 385.588C394.669 385.588 393.997 385.792 393.317 386.2V385.252C393.613 385.068 393.953 384.924 394.337 384.82C394.729 384.708 395.109 384.652 395.477 384.652C396.261 384.652 396.857 384.816 397.265 385.144C397.673 385.472 397.877 385.972 397.877 386.644V389.992C397.877 390.128 397.881 390.304 397.889 390.52C397.905 390.728 397.921 390.888 397.937 391H396.977C396.953 390.888 396.929 390.732 396.905 390.532C396.889 390.324 396.881 390.144 396.881 389.992L396.869 389.812C396.773 390.004 396.641 390.204 396.473 390.412C396.305 390.612 396.081 390.78 395.801 390.916C395.529 391.052 395.189 391.12 394.781 391.12C394.221 391.12 393.769 390.96 393.425 390.64C393.081 390.32 392.909 389.868 392.909 389.284C392.909 388.604 393.149 388.104 393.629 387.784C394.109 387.464 394.785 387.304 395.657 387.304H396.821V386.788C396.821 386.356 396.709 386.048 396.485 385.864C396.261 385.68 395.877 385.588 395.333 385.588ZM396.821 388.6V388.144H395.765C395.133 388.144 394.673 388.236 394.385 388.42C394.105 388.604 393.965 388.872 393.965 389.224C393.965 389.504 394.049 389.732 394.217 389.908C394.393 390.084 394.657 390.172 395.009 390.172C395.337 390.172 395.617 390.108 395.849 389.98C396.081 389.844 396.269 389.684 396.413 389.5C396.557 389.308 396.661 389.128 396.725 388.96C396.789 388.792 396.821 388.672 396.821 388.6ZM401.35 391.12C400.958 391.12 400.578 391.076 400.21 390.988C399.85 390.9 399.554 390.78 399.322 390.628V389.68C399.578 389.832 399.882 389.952 400.234 390.04C400.586 390.128 400.95 390.172 401.326 390.172C401.782 390.172 402.162 390.1 402.466 389.956C402.778 389.804 402.934 389.548 402.934 389.188C402.934 388.836 402.802 388.588 402.538 388.444C402.282 388.3 401.886 388.228 401.35 388.228H400.522V387.376H401.386C401.826 387.376 402.162 387.296 402.394 387.136C402.626 386.976 402.742 386.744 402.742 386.44C402.742 386.12 402.602 385.9 402.322 385.78C402.05 385.652 401.718 385.588 401.326 385.588C400.622 385.588 399.994 385.756 399.442 386.092V385.144C399.682 384.984 399.974 384.864 400.318 384.784C400.67 384.696 401.034 384.652 401.41 384.652C402.17 384.652 402.742 384.796 403.126 385.084C403.518 385.372 403.714 385.788 403.714 386.332C403.714 386.74 403.602 387.064 403.378 387.304C403.154 387.536 402.846 387.692 402.454 387.772C402.942 387.836 403.314 387.992 403.57 388.24C403.826 388.488 403.954 388.804 403.954 389.188C403.954 389.652 403.83 390.028 403.582 390.316C403.342 390.596 403.026 390.8 402.634 390.928C402.242 391.056 401.814 391.12 401.35 391.12ZM405.647 392.776H404.699V390.1H405.287C405.543 389.844 405.723 389.484 405.827 389.02C405.939 388.556 406.007 387.976 406.031 387.28C406.055 386.576 406.067 385.74 406.067 384.772H410.567V390.1H411.503V392.776H410.579L410.447 391H405.755L405.647 392.776ZM409.511 385.672H407.051C407.043 386.808 407.003 387.728 406.931 388.432C406.867 389.128 406.703 389.684 406.439 390.1H409.511V385.672ZM415.247 391.12C414.207 391.12 413.411 390.836 412.859 390.268C412.315 389.692 412.043 388.896 412.043 387.88C412.043 387.2 412.171 386.62 412.427 386.14C412.683 385.66 413.035 385.292 413.483 385.036C413.931 384.78 414.435 384.652 414.995 384.652C415.947 384.652 416.647 384.968 417.095 385.6C417.543 386.224 417.687 387.08 417.527 388.168H413.135C413.223 389.504 413.959 390.172 415.343 390.172C416.103 390.172 416.803 389.956 417.443 389.524V390.472C417.155 390.672 416.819 390.832 416.435 390.952C416.051 391.064 415.655 391.12 415.247 391.12ZM414.971 385.588C414.515 385.588 414.123 385.728 413.795 386.008C413.467 386.288 413.259 386.712 413.171 387.28H416.519C416.543 386.744 416.419 386.328 416.147 386.032C415.875 385.736 415.483 385.588 414.971 385.588ZM418.44 389.968C418.92 390.04 419.248 389.74 419.424 389.068C419.488 388.828 419.54 388.528 419.58 388.168C419.62 387.8 419.648 387.344 419.664 386.8C419.68 386.248 419.688 385.572 419.688 384.772H423.996V391H422.928V385.672H420.684C420.676 386.624 420.648 387.388 420.6 387.964C420.56 388.532 420.492 389.008 420.396 389.392C420.244 389.992 420.012 390.42 419.7 390.676C419.388 390.932 418.968 391.044 418.44 391.012V389.968ZM427.83 385.588C427.166 385.588 426.494 385.792 425.814 386.2V385.252C426.11 385.068 426.45 384.924 426.834 384.82C427.226 384.708 427.606 384.652 427.974 384.652C428.758 384.652 429.354 384.816 429.762 385.144C430.17 385.472 430.374 385.972 430.374 386.644V389.992C430.374 390.128 430.378 390.304 430.386 390.52C430.402 390.728 430.418 390.888 430.434 391H429.474C429.45 390.888 429.426 390.732 429.402 390.532C429.386 390.324 429.378 390.144 429.378 389.992L429.366 389.812C429.27 390.004 429.138 390.204 428.97 390.412C428.802 390.612 428.578 390.78 428.298 390.916C428.026 391.052 427.686 391.12 427.278 391.12C426.718 391.12 426.266 390.96 425.922 390.64C425.578 390.32 425.406 389.868 425.406 389.284C425.406 388.604 425.646 388.104 426.126 387.784C426.606 387.464 427.282 387.304 428.154 387.304H429.318V386.788C429.318 386.356 429.206 386.048 428.982 385.864C428.758 385.68 428.374 385.588 427.83 385.588ZM429.318 388.6V388.144H428.262C427.63 388.144 427.17 388.236 426.882 388.42C426.602 388.604 426.462 388.872 426.462 389.224C426.462 389.504 426.546 389.732 426.714 389.908C426.89 390.084 427.154 390.172 427.506 390.172C427.834 390.172 428.114 390.108 428.346 389.98C428.578 389.844 428.766 389.684 428.91 389.5C429.054 389.308 429.158 389.128 429.222 388.96C429.286 388.792 429.318 388.672 429.318 388.6ZM432.034 384.772H433.606L435.514 388.948L437.554 384.772H439.018V391H437.974V385.996L435.862 390.304H435.022L433.03 385.972V391H432.034V384.772ZM441.797 384.772V389.536L445.001 384.772H446.069V391H445.013V386.248L441.821 391H440.741V384.772H441.797Z" fill="black" fill-opacity="0.85"/>
<rect x="575" y="83" width="94" height="142" rx="9" fill="white" stroke="#5282FF" stroke-width="2"/>
<path d="M602.342 106.12C601.494 106.12 600.75 105.944 600.11 105.592C599.478 105.24 598.986 104.736 598.634 104.08C598.282 103.416 598.106 102.624 598.106 101.704C598.106 100.32 598.47 99.24 599.198 98.464C599.926 97.68 600.966 97.288 602.318 97.288C602.822 97.288 603.302 97.344 603.758 97.456C604.222 97.56 604.614 97.712 604.934 97.912V98.992C604.59 98.776 604.186 98.608 603.722 98.488C603.266 98.368 602.794 98.308 602.306 98.308C601.298 98.308 600.55 98.592 600.062 99.16C599.574 99.728 599.33 100.576 599.33 101.704C599.33 102.84 599.594 103.692 600.122 104.26C600.65 104.82 601.422 105.1 602.438 105.1C603.398 105.1 604.23 104.836 604.934 104.308V105.388C604.654 105.612 604.282 105.792 603.818 105.928C603.354 106.056 602.862 106.12 602.342 106.12ZM605.895 99.772H610.899V100.672H608.907V106H607.851V100.672H605.895V99.772ZM614.498 106.12C613.93 106.12 613.418 105.996 612.962 105.748C612.514 105.492 612.158 105.124 611.894 104.644C611.63 104.156 611.498 103.568 611.498 102.88C611.498 102.192 611.63 101.608 611.894 101.128C612.158 100.648 612.514 100.284 612.962 100.036C613.418 99.78 613.93 99.652 614.498 99.652C615.074 99.652 615.59 99.78 616.046 100.036C616.502 100.284 616.862 100.648 617.126 101.128C617.39 101.608 617.522 102.192 617.522 102.88C617.522 103.568 617.39 104.156 617.126 104.644C616.862 105.124 616.502 105.492 616.046 105.748C615.59 105.996 615.074 106.12 614.498 106.12ZM614.498 105.172C615.058 105.172 615.522 104.988 615.89 104.62C616.258 104.244 616.442 103.664 616.442 102.88C616.442 102.096 616.258 101.52 615.89 101.152C615.522 100.776 615.058 100.588 614.498 100.588C613.946 100.588 613.486 100.776 613.118 101.152C612.758 101.52 612.578 102.096 612.578 102.88C612.578 103.664 612.758 104.244 613.118 104.62C613.486 104.988 613.946 105.172 614.498 105.172ZM621.497 98.944C620.865 98.944 620.393 98.788 620.081 98.476C619.769 98.156 619.613 97.768 619.613 97.312H620.669C620.669 97.616 620.741 97.836 620.885 97.972C621.037 98.108 621.241 98.176 621.497 98.176C621.753 98.176 621.953 98.108 622.097 97.972C622.241 97.836 622.313 97.616 622.313 97.312H623.369C623.369 97.768 623.213 98.156 622.901 98.476C622.597 98.788 622.129 98.944 621.497 98.944ZM619.865 99.772V104.536L623.069 99.772H624.137V106H623.081V101.248L619.889 106H618.809V99.772H619.865ZM630.952 106H629.668L627.472 103.348H626.92V106H625.864V99.772H626.92V102.448H627.52L629.704 99.772H630.904L628.348 102.844L630.952 106ZM634.058 100.588C633.394 100.588 632.722 100.792 632.042 101.2V100.252C632.338 100.068 632.678 99.924 633.062 99.82C633.454 99.708 633.834 99.652 634.202 99.652C634.986 99.652 635.582 99.816 635.99 100.144C636.398 100.472 636.602 100.972 636.602 101.644V104.992C636.602 105.128 636.606 105.304 636.614 105.52C636.63 105.728 636.646 105.888 636.662 106H635.702C635.678 105.888 635.654 105.732 635.63 105.532C635.614 105.324 635.606 105.144 635.606 104.992L635.594 104.812C635.498 105.004 635.366 105.204 635.198 105.412C635.03 105.612 634.806 105.78 634.526 105.916C634.254 106.052 633.914 106.12 633.506 106.12C632.946 106.12 632.494 105.96 632.15 105.64C631.806 105.32 631.634 104.868 631.634 104.284C631.634 103.604 631.874 103.104 632.354 102.784C632.834 102.464 633.51 102.304 634.382 102.304H635.546V101.788C635.546 101.356 635.434 101.048 635.21 100.864C634.986 100.68 634.602 100.588 634.058 100.588ZM635.546 103.6V103.144H634.49C633.858 103.144 633.398 103.236 633.11 103.42C632.83 103.604 632.69 103.872 632.69 104.224C632.69 104.504 632.774 104.732 632.942 104.908C633.118 105.084 633.382 105.172 633.734 105.172C634.062 105.172 634.342 105.108 634.574 104.98C634.806 104.844 634.994 104.684 635.138 104.5C635.282 104.308 635.386 104.128 635.45 103.96C635.514 103.792 635.546 103.672 635.546 103.6ZM642.729 106.12C641.769 106.12 641.005 105.916 640.437 105.508V104.332C640.773 104.604 641.125 104.808 641.493 104.944C641.861 105.072 642.273 105.136 642.729 105.136C643.321 105.136 643.777 104.956 644.097 104.596C644.425 104.236 644.589 103.764 644.589 103.18C644.589 102.556 644.429 102.1 644.109 101.812C643.789 101.524 643.385 101.38 642.897 101.38C642.545 101.38 642.261 101.44 642.045 101.56C641.829 101.672 641.665 101.792 641.553 101.92H640.677V97.396H645.333V98.428H641.661V100.888C641.821 100.768 642.017 100.664 642.249 100.576C642.481 100.48 642.757 100.432 643.077 100.432C643.573 100.432 644.021 100.536 644.421 100.744C644.821 100.944 645.137 101.248 645.369 101.656C645.609 102.056 645.729 102.556 645.729 103.156C645.729 103.748 645.605 104.268 645.357 104.716C645.117 105.164 644.773 105.512 644.325 105.76C643.877 106 643.345 106.12 642.729 106.12Z" fill="black" fill-opacity="0.85"/>
<rect x="587" y="122" width="70" height="40" rx="10" fill="#E3EBFF"/>
<path d="M600.178 144.98H600.766C601.134 144.644 601.406 144.156 601.582 143.516C601.758 142.876 601.878 142.056 601.942 141.056C602.006 140.048 602.054 138.828 602.086 137.396H607.57V144.98H608.674V148.04H607.63L607.51 146H601.33L601.198 148.04H600.178V144.98ZM602.074 144.98H606.43V138.428H603.142C603.118 139.644 603.066 140.676 602.986 141.524C602.914 142.372 602.802 143.076 602.65 143.636C602.506 144.188 602.314 144.636 602.074 144.98ZM611.07 139.772V144.536L614.274 139.772H615.342V146H614.286V141.248L611.094 146H610.014V139.772H611.07ZM619.757 146.12C618.789 146.12 618.025 145.836 617.465 145.268C616.905 144.692 616.625 143.896 616.625 142.88C616.625 141.864 616.909 141.072 617.477 140.504C618.045 139.936 618.821 139.652 619.805 139.652C620.181 139.652 620.533 139.696 620.861 139.784C621.189 139.864 621.453 139.984 621.653 140.144V141.092C621.109 140.756 620.497 140.588 619.817 140.588C619.097 140.588 618.565 140.78 618.221 141.164C617.877 141.54 617.705 142.112 617.705 142.88C617.705 143.648 617.869 144.224 618.197 144.608C618.533 144.984 619.053 145.172 619.757 145.172C620.437 145.172 621.069 145.008 621.653 144.68V145.628C621.133 145.956 620.501 146.12 619.757 146.12ZM628.157 146H626.873L624.677 143.348H624.125V146H623.069V139.772H624.125V142.448H624.725L626.909 139.772H628.109L625.553 142.844L628.157 146ZM635.271 146H634.179V138.752L631.803 140.576V139.364L634.359 137.396H635.271V146ZM640.728 146.12C640.184 146.12 639.696 145.964 639.264 145.652C638.832 145.34 638.492 144.86 638.244 144.212C638.004 143.556 637.884 142.716 637.884 141.692C637.884 140.66 638.004 139.82 638.244 139.172C638.492 138.524 638.832 138.048 639.264 137.744C639.696 137.44 640.184 137.288 640.728 137.288C641.272 137.288 641.756 137.44 642.18 137.744C642.604 138.048 642.936 138.524 643.176 139.172C643.416 139.812 643.536 140.644 643.536 141.668C643.536 142.684 643.416 143.524 643.176 144.188C642.936 144.844 642.604 145.332 642.18 145.652C641.756 145.964 641.272 146.12 640.728 146.12ZM640.716 145.172C641.076 145.172 641.38 145.064 641.628 144.848C641.884 144.624 642.076 144.26 642.204 143.756C642.34 143.244 642.408 142.56 642.408 141.704C642.408 140.848 642.344 140.168 642.216 139.664C642.088 139.152 641.896 138.788 641.64 138.572C641.392 138.348 641.088 138.236 640.728 138.236C640.368 138.236 640.06 138.348 639.804 138.572C639.548 138.788 639.352 139.152 639.216 139.664C639.08 140.168 639.012 140.848 639.012 141.704C639.012 142.56 639.076 143.244 639.204 143.756C639.34 144.26 639.536 144.624 639.792 144.848C640.048 145.064 640.356 145.172 640.716 145.172Z" fill="black" fill-opacity="0.85"/>
<rect x="587" y="172" width="70" height="40" rx="10" fill="#E3EBFF"/>
<path d="M600.178 194.98H600.766C601.134 194.644 601.406 194.156 601.582 193.516C601.758 192.876 601.878 192.056 601.942 191.056C602.006 190.048 602.054 188.828 602.086 187.396H607.57V194.98H608.674V198.04H607.63L607.51 196H601.33L601.198 198.04H600.178V194.98ZM602.074 194.98H606.43V188.428H603.142C603.118 189.644 603.066 190.676 602.986 191.524C602.914 192.372 602.802 193.076 602.65 193.636C602.506 194.188 602.314 194.636 602.074 194.98ZM611.07 189.772V194.536L614.274 189.772H615.342V196H614.286V191.248L611.094 196H610.014V189.772H611.07ZM619.757 196.12C618.789 196.12 618.025 195.836 617.465 195.268C616.905 194.692 616.625 193.896 616.625 192.88C616.625 191.864 616.909 191.072 617.477 190.504C618.045 189.936 618.821 189.652 619.805 189.652C620.181 189.652 620.533 189.696 620.861 189.784C621.189 189.864 621.453 189.984 621.653 190.144V191.092C621.109 190.756 620.497 190.588 619.817 190.588C619.097 190.588 618.565 190.78 618.221 191.164C617.877 191.54 617.705 192.112 617.705 192.88C617.705 193.648 617.869 194.224 618.197 194.608C618.533 194.984 619.053 195.172 619.757 195.172C620.437 195.172 621.069 195.008 621.653 194.68V195.628C621.133 195.956 620.501 196.12 619.757 196.12ZM628.157 196H626.873L624.677 193.348H624.125V196H623.069V189.772H624.125V192.448H624.725L626.909 189.772H628.109L625.553 192.844L628.157 196ZM635.271 196H634.179V188.752L631.803 190.576V189.364L634.359 187.396H635.271V196ZM641.868 196H640.776V188.752L638.4 190.576V189.364L640.956 187.396H641.868V196Z" fill="black" fill-opacity="0.85"/>
<rect x="31" y="83" width="94" height="192" rx="9" fill="white" stroke="#5282FF" stroke-width="2"/>
<path d="M58.3416 106.12C57.4936 106.12 56.7496 105.944 56.1096 105.592C55.4776 105.24 54.9856 104.736 54.6336 104.08C54.2816 103.416 54.1056 102.624 54.1056 101.704C54.1056 100.32 54.4696 99.24 55.1976 98.464C55.9256 97.68 56.9656 97.288 58.3176 97.288C58.8216 97.288 59.3016 97.344 59.7576 97.456C60.2216 97.56 60.6136 97.712 60.9336 97.912V98.992C60.5896 98.776 60.1856 98.608 59.7216 98.488C59.2656 98.368 58.7936 98.308 58.3056 98.308C57.2976 98.308 56.5496 98.592 56.0616 99.16C55.5736 99.728 55.3296 100.576 55.3296 101.704C55.3296 102.84 55.5936 103.692 56.1216 104.26C56.6496 104.82 57.4216 105.1 58.4376 105.1C59.3976 105.1 60.2296 104.836 60.9336 104.308V105.388C60.6536 105.612 60.2816 105.792 59.8176 105.928C59.3536 106.056 58.8616 106.12 58.3416 106.12ZM61.8952 99.772H66.8992V100.672H64.9072V106H63.8512V100.672H61.8952V99.772ZM70.4981 106.12C69.9301 106.12 69.4181 105.996 68.9621 105.748C68.5141 105.492 68.1581 105.124 67.8941 104.644C67.6301 104.156 67.4981 103.568 67.4981 102.88C67.4981 102.192 67.6301 101.608 67.8941 101.128C68.1581 100.648 68.5141 100.284 68.9621 100.036C69.4181 99.78 69.9301 99.652 70.4981 99.652C71.0741 99.652 71.5901 99.78 72.0461 100.036C72.5021 100.284 72.8621 100.648 73.1261 101.128C73.3901 101.608 73.5221 102.192 73.5221 102.88C73.5221 103.568 73.3901 104.156 73.1261 104.644C72.8621 105.124 72.5021 105.492 72.0461 105.748C71.5901 105.996 71.0741 106.12 70.4981 106.12ZM70.4981 105.172C71.0581 105.172 71.5221 104.988 71.8901 104.62C72.2581 104.244 72.4421 103.664 72.4421 102.88C72.4421 102.096 72.2581 101.52 71.8901 101.152C71.5221 100.776 71.0581 100.588 70.4981 100.588C69.9461 100.588 69.4861 100.776 69.1181 101.152C68.7581 101.52 68.5781 102.096 68.5781 102.88C68.5781 103.664 68.7581 104.244 69.1181 104.62C69.4861 104.988 69.9461 105.172 70.4981 105.172ZM77.4973 98.944C76.8653 98.944 76.3933 98.788 76.0813 98.476C75.7693 98.156 75.6133 97.768 75.6133 97.312H76.6693C76.6693 97.616 76.7413 97.836 76.8853 97.972C77.0373 98.108 77.2413 98.176 77.4973 98.176C77.7533 98.176 77.9533 98.108 78.0973 97.972C78.2413 97.836 78.3133 97.616 78.3133 97.312H79.3693C79.3693 97.768 79.2133 98.156 78.9013 98.476C78.5973 98.788 78.1293 98.944 77.4973 98.944ZM75.8653 99.772V104.536L79.0693 99.772H80.1373V106H79.0813V101.248L75.8893 106H74.8093V99.772H75.8653ZM86.952 106H85.668L83.472 103.348H82.92V106H81.864V99.772H82.92V102.448H83.52L85.704 99.772H86.904L84.348 102.844L86.952 106ZM90.058 100.588C89.394 100.588 88.722 100.792 88.042 101.2V100.252C88.338 100.068 88.678 99.924 89.062 99.82C89.454 99.708 89.834 99.652 90.202 99.652C90.986 99.652 91.582 99.816 91.99 100.144C92.398 100.472 92.602 100.972 92.602 101.644V104.992C92.602 105.128 92.606 105.304 92.614 105.52C92.63 105.728 92.646 105.888 92.662 106H91.702C91.678 105.888 91.654 105.732 91.63 105.532C91.614 105.324 91.606 105.144 91.606 104.992L91.594 104.812C91.498 105.004 91.366 105.204 91.198 105.412C91.03 105.612 90.806 105.78 90.526 105.916C90.254 106.052 89.914 106.12 89.506 106.12C88.946 106.12 88.494 105.96 88.15 105.64C87.806 105.32 87.634 104.868 87.634 104.284C87.634 103.604 87.874 103.104 88.354 102.784C88.834 102.464 89.51 102.304 90.382 102.304H91.546V101.788C91.546 101.356 91.434 101.048 91.21 100.864C90.986 100.68 90.602 100.588 90.058 100.588ZM91.546 103.6V103.144H90.49C89.858 103.144 89.398 103.236 89.11 103.42C88.83 103.604 88.69 103.872 88.69 104.224C88.69 104.504 88.774 104.732 88.942 104.908C89.118 105.084 89.382 105.172 89.734 105.172C90.062 105.172 90.342 105.108 90.574 104.98C90.806 104.844 90.994 104.684 91.138 104.5C91.282 104.308 91.386 104.128 91.45 103.96C91.514 103.792 91.546 103.672 91.546 103.6ZM100.265 106H99.1728V98.752L96.7968 100.576V99.364L99.3528 97.396H100.265V106Z" fill="black" fill-opacity="0.85"/>
<rect x="43" y="122" width="70" height="40" rx="10" fill="#E3EBFF"/>
<path d="M59.4769 144.98H60.0649C60.4329 144.644 60.7049 144.156 60.8809 143.516C61.0569 142.876 61.1769 142.056 61.2409 141.056C61.3049 140.048 61.3529 138.828 61.3849 137.396H66.8689V144.98H67.9729V148.04H66.9289L66.8089 146H60.6289L60.4969 148.04H59.4769V144.98ZM61.3729 144.98H65.7289V138.428H62.4409C62.4169 139.644 62.3649 140.676 62.2849 141.524C62.2129 142.372 62.1009 143.076 61.9489 143.636C61.8049 144.188 61.6129 144.636 61.3729 144.98ZM70.3692 139.772V144.536L73.5732 139.772H74.6412V146H73.5852V141.248L70.3932 146H69.3132V139.772H70.3692ZM79.0559 146.12C78.0879 146.12 77.3239 145.836 76.7639 145.268C76.2039 144.692 75.9239 143.896 75.9239 142.88C75.9239 141.864 76.2079 141.072 76.7759 140.504C77.3439 139.936 78.1199 139.652 79.1039 139.652C79.4799 139.652 79.8319 139.696 80.1599 139.784C80.4879 139.864 80.7519 139.984 80.9519 140.144V141.092C80.4079 140.756 79.7959 140.588 79.1159 140.588C78.3959 140.588 77.8639 140.78 77.5199 141.164C77.1759 141.54 77.0039 142.112 77.0039 142.88C77.0039 143.648 77.1679 144.224 77.4959 144.608C77.8319 144.984 78.3519 145.172 79.0559 145.172C79.7359 145.172 80.3679 145.008 80.9519 144.68V145.628C80.4319 145.956 79.7999 146.12 79.0559 146.12ZM87.4559 146H86.1719L83.9759 143.348H83.4239V146H82.3679V139.772H83.4239V142.448H84.0239L86.2079 139.772H87.4079L84.8519 142.844L87.4559 146ZM94.5695 146H93.4775V138.752L91.1015 140.576V139.364L93.6575 137.396H94.5695V146Z" fill="black" fill-opacity="0.85"/>
<rect x="43" y="172" width="70" height="40" rx="10" fill="#E3EBFF"/>
<path d="M59.4769 194.98H60.0649C60.4329 194.644 60.7049 194.156 60.8809 193.516C61.0569 192.876 61.1769 192.056 61.2409 191.056C61.3049 190.048 61.3529 188.828 61.3849 187.396H66.8689V194.98H67.9729V198.04H66.9289L66.8089 196H60.6289L60.4969 198.04H59.4769V194.98ZM61.3729 194.98H65.7289V188.428H62.4409C62.4169 189.644 62.3649 190.676 62.2849 191.524C62.2129 192.372 62.1009 193.076 61.9489 193.636C61.8049 194.188 61.6129 194.636 61.3729 194.98ZM70.3692 189.772V194.536L73.5732 189.772H74.6412V196H73.5852V191.248L70.3932 196H69.3132V189.772H70.3692ZM79.0559 196.12C78.0879 196.12 77.3239 195.836 76.7639 195.268C76.2039 194.692 75.9239 193.896 75.9239 192.88C75.9239 191.864 76.2079 191.072 76.7759 190.504C77.3439 189.936 78.1199 189.652 79.1039 189.652C79.4799 189.652 79.8319 189.696 80.1599 189.784C80.4879 189.864 80.7519 189.984 80.9519 190.144V191.092C80.4079 190.756 79.7959 190.588 79.1159 190.588C78.3959 190.588 77.8639 190.78 77.5199 191.164C77.1759 191.54 77.0039 192.112 77.0039 192.88C77.0039 193.648 77.1679 194.224 77.4959 194.608C77.8319 194.984 78.3519 195.172 79.0559 195.172C79.7359 195.172 80.3679 195.008 80.9519 194.68V195.628C80.4319 195.956 79.7999 196.12 79.0559 196.12ZM87.4559 196H86.1719L83.9759 193.348H83.4239V196H82.3679V189.772H83.4239V192.448H84.0239L86.2079 189.772H87.4079L84.8519 192.844L87.4559 196ZM96.1775 196H90.6935V194.86C91.5495 194.172 92.2495 193.584 92.7935 193.096C93.3455 192.608 93.7735 192.184 94.0775 191.824C94.3895 191.456 94.6055 191.116 94.7255 190.804C94.8535 190.492 94.9175 190.176 94.9175 189.856C94.9175 189.36 94.7695 188.972 94.4735 188.692C94.1775 188.412 93.7695 188.272 93.2495 188.272C92.4175 188.272 91.6415 188.668 90.9215 189.46V188.248C91.5855 187.6 92.3735 187.276 93.2855 187.276C94.1495 187.276 94.8295 187.5 95.3255 187.948C95.8295 188.388 96.0815 188.988 96.0815 189.748C96.0815 190.14 96.0175 190.516 95.8895 190.876C95.7695 191.228 95.5535 191.6 95.2415 191.992C94.9375 192.376 94.5175 192.808 93.9815 193.288C93.4455 193.768 92.7655 194.328 91.9415 194.968H96.1775V196Z" fill="black" fill-opacity="0.85"/>
<rect x="43" y="222" width="70" height="40" rx="10" fill="#E3EBFF"/>
<path d="M59.4769 244.98H60.0649C60.4329 244.644 60.7049 244.156 60.8809 243.516C61.0569 242.876 61.1769 242.056 61.2409 241.056C61.3049 240.048 61.3529 238.828 61.3849 237.396H66.8689V244.98H67.9729V248.04H66.9289L66.8089 246H60.6289L60.4969 248.04H59.4769V244.98ZM61.3729 244.98H65.7289V238.428H62.4409C62.4169 239.644 62.3649 240.676 62.2849 241.524C62.2129 242.372 62.1009 243.076 61.9489 243.636C61.8049 244.188 61.6129 244.636 61.3729 244.98ZM70.3692 239.772V244.536L73.5732 239.772H74.6412V246H73.5852V241.248L70.3932 246H69.3132V239.772H70.3692ZM79.0559 246.12C78.0879 246.12 77.3239 245.836 76.7639 245.268C76.2039 244.692 75.9239 243.896 75.9239 242.88C75.9239 241.864 76.2079 241.072 76.7759 240.504C77.3439 239.936 78.1199 239.652 79.1039 239.652C79.4799 239.652 79.8319 239.696 80.1599 239.784C80.4879 239.864 80.7519 239.984 80.9519 240.144V241.092C80.4079 240.756 79.7959 240.588 79.1159 240.588C78.3959 240.588 77.8639 240.78 77.5199 241.164C77.1759 241.54 77.0039 242.112 77.0039 242.88C77.0039 243.648 77.1679 244.224 77.4959 244.608C77.8319 244.984 78.3519 245.172 79.0559 245.172C79.7359 245.172 80.3679 245.008 80.9519 244.68V245.628C80.4319 245.956 79.7999 246.12 79.0559 246.12ZM87.4559 246H86.1719L83.9759 243.348H83.4239V246H82.3679V239.772H83.4239V242.448H84.0239L86.2079 239.772H87.4079L84.8519 242.844L87.4559 246ZM92.0975 242.016V240.996H93.2495C93.6975 240.996 94.0615 240.876 94.3415 240.636C94.6295 240.388 94.7735 240.04 94.7735 239.592C94.7735 239.184 94.6415 238.864 94.3775 238.632C94.1135 238.392 93.7335 238.272 93.2375 238.272C92.8215 238.272 92.4295 238.348 92.0615 238.5C91.7015 238.652 91.3255 238.896 90.9335 239.232V238.056C91.5735 237.536 92.3455 237.276 93.2495 237.276C94.0735 237.276 94.7175 237.484 95.1815 237.9C95.6535 238.316 95.8895 238.86 95.8895 239.532C95.8895 240.076 95.7375 240.508 95.4335 240.828C95.1375 241.148 94.7815 241.36 94.3655 241.464C94.7015 241.512 95.0095 241.628 95.2895 241.812C95.5775 241.988 95.8095 242.22 95.9855 242.508C96.1615 242.796 96.2495 243.132 96.2495 243.516C96.2495 244.044 96.1175 244.504 95.8535 244.896C95.5895 245.288 95.2255 245.592 94.7615 245.808C94.3055 246.016 93.7735 246.12 93.1655 246.12C92.1095 246.12 91.2935 245.876 90.7175 245.388V244.188C91.0215 244.484 91.3895 244.716 91.8215 244.884C92.2535 245.052 92.7055 245.136 93.1775 245.136C93.7695 245.136 94.2335 244.996 94.5695 244.716C94.9135 244.428 95.0855 244.036 95.0855 243.54C95.0855 243.06 94.9295 242.688 94.6175 242.424C94.3135 242.152 93.8415 242.016 93.2015 242.016H92.0975Z" fill="black" fill-opacity="0.85"/>
<rect x="439" y="83" width="94" height="192" rx="9" fill="white" stroke="#5282FF" stroke-width="2"/>
<path d="M466.342 106.12C465.494 106.12 464.75 105.944 464.11 105.592C463.478 105.24 462.986 104.736 462.634 104.08C462.282 103.416 462.106 102.624 462.106 101.704C462.106 100.32 462.47 99.24 463.198 98.464C463.926 97.68 464.966 97.288 466.318 97.288C466.822 97.288 467.302 97.344 467.758 97.456C468.222 97.56 468.614 97.712 468.934 97.912V98.992C468.59 98.776 468.186 98.608 467.722 98.488C467.266 98.368 466.794 98.308 466.306 98.308C465.298 98.308 464.55 98.592 464.062 99.16C463.574 99.728 463.33 100.576 463.33 101.704C463.33 102.84 463.594 103.692 464.122 104.26C464.65 104.82 465.422 105.1 466.438 105.1C467.398 105.1 468.23 104.836 468.934 104.308V105.388C468.654 105.612 468.282 105.792 467.818 105.928C467.354 106.056 466.862 106.12 466.342 106.12ZM469.895 99.772H474.899V100.672H472.907V106H471.851V100.672H469.895V99.772ZM478.498 106.12C477.93 106.12 477.418 105.996 476.962 105.748C476.514 105.492 476.158 105.124 475.894 104.644C475.63 104.156 475.498 103.568 475.498 102.88C475.498 102.192 475.63 101.608 475.894 101.128C476.158 100.648 476.514 100.284 476.962 100.036C477.418 99.78 477.93 99.652 478.498 99.652C479.074 99.652 479.59 99.78 480.046 100.036C480.502 100.284 480.862 100.648 481.126 101.128C481.39 101.608 481.522 102.192 481.522 102.88C481.522 103.568 481.39 104.156 481.126 104.644C480.862 105.124 480.502 105.492 480.046 105.748C479.59 105.996 479.074 106.12 478.498 106.12ZM478.498 105.172C479.058 105.172 479.522 104.988 479.89 104.62C480.258 104.244 480.442 103.664 480.442 102.88C480.442 102.096 480.258 101.52 479.89 101.152C479.522 100.776 479.058 100.588 478.498 100.588C477.946 100.588 477.486 100.776 477.118 101.152C476.758 101.52 476.578 102.096 476.578 102.88C476.578 103.664 476.758 104.244 477.118 104.62C477.486 104.988 477.946 105.172 478.498 105.172ZM485.497 98.944C484.865 98.944 484.393 98.788 484.081 98.476C483.769 98.156 483.613 97.768 483.613 97.312H484.669C484.669 97.616 484.741 97.836 484.885 97.972C485.037 98.108 485.241 98.176 485.497 98.176C485.753 98.176 485.953 98.108 486.097 97.972C486.241 97.836 486.313 97.616 486.313 97.312H487.369C487.369 97.768 487.213 98.156 486.901 98.476C486.597 98.788 486.129 98.944 485.497 98.944ZM483.865 99.772V104.536L487.069 99.772H488.137V106H487.081V101.248L483.889 106H482.809V99.772H483.865ZM494.952 106H493.668L491.472 103.348H490.92V106H489.864V99.772H490.92V102.448H491.52L493.704 99.772H494.904L492.348 102.844L494.952 106ZM498.058 100.588C497.394 100.588 496.722 100.792 496.042 101.2V100.252C496.338 100.068 496.678 99.924 497.062 99.82C497.454 99.708 497.834 99.652 498.202 99.652C498.986 99.652 499.582 99.816 499.99 100.144C500.398 100.472 500.602 100.972 500.602 101.644V104.992C500.602 105.128 500.606 105.304 500.614 105.52C500.63 105.728 500.646 105.888 500.662 106H499.702C499.678 105.888 499.654 105.732 499.63 105.532C499.614 105.324 499.606 105.144 499.606 104.992L499.594 104.812C499.498 105.004 499.366 105.204 499.198 105.412C499.03 105.612 498.806 105.78 498.526 105.916C498.254 106.052 497.914 106.12 497.506 106.12C496.946 106.12 496.494 105.96 496.15 105.64C495.806 105.32 495.634 104.868 495.634 104.284C495.634 103.604 495.874 103.104 496.354 102.784C496.834 102.464 497.51 102.304 498.382 102.304H499.546V101.788C499.546 101.356 499.434 101.048 499.21 100.864C498.986 100.68 498.602 100.588 498.058 100.588ZM499.546 103.6V103.144H498.49C497.858 103.144 497.398 103.236 497.11 103.42C496.83 103.604 496.69 103.872 496.69 104.224C496.69 104.504 496.774 104.732 496.942 104.908C497.118 105.084 497.382 105.172 497.734 105.172C498.062 105.172 498.342 105.108 498.574 104.98C498.806 104.844 498.994 104.684 499.138 104.5C499.282 104.308 499.386 104.128 499.45 103.96C499.514 103.792 499.546 103.672 499.546 103.6ZM508.901 106H507.845V103.96H504.125V103.216L507.485 97.396H508.901V103.048H510.065V103.96H508.901V106ZM505.217 103.048H507.845V98.572L505.217 103.048Z" fill="black" fill-opacity="0.85"/>
<rect x="451" y="122" width="70" height="40" rx="10" fill="#E3EBFF"/>
<path d="M467.477 144.98H468.065C468.433 144.644 468.705 144.156 468.881 143.516C469.057 142.876 469.177 142.056 469.241 141.056C469.305 140.048 469.353 138.828 469.385 137.396H474.869V144.98H475.973V148.04H474.929L474.809 146H468.629L468.497 148.04H467.477V144.98ZM469.373 144.98H473.729V138.428H470.441C470.417 139.644 470.365 140.676 470.285 141.524C470.213 142.372 470.101 143.076 469.949 143.636C469.805 144.188 469.613 144.636 469.373 144.98ZM478.369 139.772V144.536L481.573 139.772H482.641V146H481.585V141.248L478.393 146H477.313V139.772H478.369ZM487.056 146.12C486.088 146.12 485.324 145.836 484.764 145.268C484.204 144.692 483.924 143.896 483.924 142.88C483.924 141.864 484.208 141.072 484.776 140.504C485.344 139.936 486.12 139.652 487.104 139.652C487.48 139.652 487.832 139.696 488.16 139.784C488.488 139.864 488.752 139.984 488.952 140.144V141.092C488.408 140.756 487.796 140.588 487.116 140.588C486.396 140.588 485.864 140.78 485.52 141.164C485.176 141.54 485.004 142.112 485.004 142.88C485.004 143.648 485.168 144.224 485.496 144.608C485.832 144.984 486.352 145.172 487.056 145.172C487.736 145.172 488.368 145.008 488.952 144.68V145.628C488.432 145.956 487.8 146.12 487.056 146.12ZM495.456 146H494.172L491.976 143.348H491.424V146H490.368V139.772H491.424V142.448H492.024L494.208 139.772H495.408L492.852 142.844L495.456 146ZM504.177 138.368L500.529 146H499.353L503.025 138.428H498.645V137.396H504.177V138.368Z" fill="black" fill-opacity="0.85"/>
<rect x="451" y="172" width="70" height="40" rx="10" fill="#E3EBFF"/>
<path d="M467.477 194.98H468.065C468.433 194.644 468.705 194.156 468.881 193.516C469.057 192.876 469.177 192.056 469.241 191.056C469.305 190.048 469.353 188.828 469.385 187.396H474.869V194.98H475.973V198.04H474.929L474.809 196H468.629L468.497 198.04H467.477V194.98ZM469.373 194.98H473.729V188.428H470.441C470.417 189.644 470.365 190.676 470.285 191.524C470.213 192.372 470.101 193.076 469.949 193.636C469.805 194.188 469.613 194.636 469.373 194.98ZM478.369 189.772V194.536L481.573 189.772H482.641V196H481.585V191.248L478.393 196H477.313V189.772H478.369ZM487.056 196.12C486.088 196.12 485.324 195.836 484.764 195.268C484.204 194.692 483.924 193.896 483.924 192.88C483.924 191.864 484.208 191.072 484.776 190.504C485.344 189.936 486.12 189.652 487.104 189.652C487.48 189.652 487.832 189.696 488.16 189.784C488.488 189.864 488.752 189.984 488.952 190.144V191.092C488.408 190.756 487.796 190.588 487.116 190.588C486.396 190.588 485.864 190.78 485.52 191.164C485.176 191.54 485.004 192.112 485.004 192.88C485.004 193.648 485.168 194.224 485.496 194.608C485.832 194.984 486.352 195.172 487.056 195.172C487.736 195.172 488.368 195.008 488.952 194.68V195.628C488.432 195.956 487.8 196.12 487.056 196.12ZM495.456 196H494.172L491.976 193.348H491.424V196H490.368V189.772H491.424V192.448H492.024L494.208 189.772H495.408L492.852 192.844L495.456 196ZM501.441 196.12C500.881 196.12 500.381 196.024 499.941 195.832C499.509 195.64 499.169 195.364 498.921 195.004C498.673 194.636 498.549 194.196 498.549 193.684C498.549 193.132 498.693 192.664 498.981 192.28C499.277 191.888 499.673 191.604 500.169 191.428C499.769 191.268 499.449 191.024 499.209 190.696C498.977 190.368 498.861 189.964 498.861 189.484C498.861 189.012 498.973 188.612 499.197 188.284C499.421 187.956 499.729 187.708 500.121 187.54C500.513 187.372 500.953 187.288 501.441 187.288C501.921 187.288 502.353 187.372 502.737 187.54C503.121 187.7 503.425 187.94 503.649 188.26C503.881 188.58 503.997 188.98 503.997 189.46C503.997 189.948 503.877 190.356 503.637 190.684C503.397 191.012 503.081 191.26 502.689 191.428C503.169 191.596 503.553 191.868 503.841 192.244C504.137 192.62 504.285 193.088 504.285 193.648C504.285 194.16 504.161 194.604 503.913 194.98C503.665 195.348 503.325 195.632 502.893 195.832C502.469 196.024 501.985 196.12 501.441 196.12ZM501.441 190.996C501.865 190.996 502.213 190.876 502.485 190.636C502.765 190.388 502.905 190.048 502.905 189.616C502.905 189.184 502.765 188.848 502.485 188.608C502.213 188.36 501.865 188.236 501.441 188.236C501.017 188.236 500.661 188.36 500.373 188.608C500.093 188.848 499.953 189.184 499.953 189.616C499.953 190.048 500.093 190.388 500.373 190.636C500.661 190.876 501.017 190.996 501.441 190.996ZM501.441 195.172C501.937 195.172 502.349 195.028 502.677 194.74C503.013 194.444 503.181 194.032 503.181 193.504C503.181 192.976 503.013 192.568 502.677 192.28C502.349 191.984 501.937 191.836 501.441 191.836C500.929 191.836 500.501 191.984 500.157 192.28C499.821 192.568 499.653 192.976 499.653 193.504C499.653 194.032 499.821 194.444 500.157 194.74C500.501 195.028 500.929 195.172 501.441 195.172Z" fill="black" fill-opacity="0.85"/>
<rect x="451" y="222" width="70" height="40" rx="10" fill="#E3EBFF"/>
<path d="M467.477 244.98H468.065C468.433 244.644 468.705 244.156 468.881 243.516C469.057 242.876 469.177 242.056 469.241 241.056C469.305 240.048 469.353 238.828 469.385 237.396H474.869V244.98H475.973V248.04H474.929L474.809 246H468.629L468.497 248.04H467.477V244.98ZM469.373 244.98H473.729V238.428H470.441C470.417 239.644 470.365 240.676 470.285 241.524C470.213 242.372 470.101 243.076 469.949 243.636C469.805 244.188 469.613 244.636 469.373 244.98ZM478.369 239.772V244.536L481.573 239.772H482.641V246H481.585V241.248L478.393 246H477.313V239.772H478.369ZM487.056 246.12C486.088 246.12 485.324 245.836 484.764 245.268C484.204 244.692 483.924 243.896 483.924 242.88C483.924 241.864 484.208 241.072 484.776 240.504C485.344 239.936 486.12 239.652 487.104 239.652C487.48 239.652 487.832 239.696 488.16 239.784C488.488 239.864 488.752 239.984 488.952 240.144V241.092C488.408 240.756 487.796 240.588 487.116 240.588C486.396 240.588 485.864 240.78 485.52 241.164C485.176 241.54 485.004 242.112 485.004 242.88C485.004 243.648 485.168 244.224 485.496 244.608C485.832 244.984 486.352 245.172 487.056 245.172C487.736 245.172 488.368 245.008 488.952 244.68V245.628C488.432 245.956 487.8 246.12 487.056 246.12ZM495.456 246H494.172L491.976 243.348H491.424V246H490.368V239.772H491.424V242.448H492.024L494.208 239.772H495.408L492.852 242.844L495.456 246ZM498.501 240.156C498.501 239.58 498.625 239.076 498.873 238.644C499.129 238.212 499.473 237.876 499.905 237.636C500.337 237.396 500.821 237.276 501.357 237.276C502.077 237.276 502.657 237.432 503.097 237.744C503.545 238.048 503.869 238.476 504.069 239.028C504.269 239.572 504.369 240.204 504.369 240.924C504.369 242.004 504.245 242.932 503.997 243.708C503.749 244.484 503.365 245.08 502.845 245.496C502.333 245.912 501.677 246.12 500.877 246.12C500.157 246.12 499.541 245.972 499.029 245.676V244.62C499.573 244.972 500.189 245.148 500.877 245.148C501.373 245.148 501.789 245.012 502.125 244.74C502.461 244.468 502.721 244.1 502.905 243.636C503.097 243.172 503.213 242.652 503.253 242.076C503.005 242.388 502.709 242.62 502.365 242.772C502.021 242.916 501.649 242.988 501.249 242.988C500.737 242.988 500.273 242.88 499.857 242.664C499.441 242.448 499.109 242.128 498.861 241.704C498.621 241.28 498.501 240.764 498.501 240.156ZM501.393 238.248C501.089 238.248 500.801 238.32 500.529 238.464C500.265 238.6 500.049 238.808 499.881 239.088C499.721 239.36 499.641 239.708 499.641 240.132C499.641 240.548 499.721 240.9 499.881 241.188C500.041 241.476 500.245 241.692 500.493 241.836C500.741 241.98 501.001 242.052 501.273 242.052C501.801 242.052 502.241 241.888 502.593 241.56C502.953 241.224 503.133 240.74 503.133 240.108C503.133 239.548 502.977 239.1 502.665 238.764C502.353 238.42 501.929 238.248 501.393 238.248Z" fill="black" fill-opacity="0.85"/>
<defs>
<filter id="filter0_d_1_681" x="8" y="34" width="276" height="264" filterUnits="userSpaceOnUse" color-interpolation-filters="sRGB">
<feFlood flood-opacity="0" result="BackgroundImageFix"/>
<feColorMatrix in="SourceAlpha" type="matrix" values="0 0 0 0 0 0 0 0 0 0 0 0 0 0 0 0 0 0 127 0" result="hardAlpha"/>
<feOffset/>
<feGaussianBlur stdDeviation="4"/>
<feColorMatrix type="matrix" values="0 0 0 0 0.321569 0 0 0 0 0.509804 0 0 0 0 1 0 0 0 0.2 0"/>
<feBlend mode="normal" in2="BackgroundImageFix" result="effect1_dropShadow_1_681"/>
<feBlend mode="normal" in="SourceGraphic" in2="effect1_dropShadow_1_681" result="shape"/>
</filter>
<filter id="filter1_d_1_681" x="280" y="34" width="140" height="264" filterUnits="userSpaceOnUse" color-interpolation-filters="sRGB">
<feFlood flood-opacity="0" result="BackgroundImageFix"/>
<feColorMatrix in="SourceAlpha" type="matrix" values="0 0 0 0 0 0 0 0 0 0 0 0 0 0 0 0 0 0 127 0" result="hardAlpha"/>
<feOffset/>
<feGaussianBlur stdDeviation="4"/>
<feColorMatrix type="matrix" values="0 0 0 0 0.321569 0 0 0 0 0.509804 0 0 0 0 1 0 0 0 0.2 0"/>
<feBlend mode="normal" in2="BackgroundImageFix" result="effect1_dropShadow_1_681"/>
<feBlend mode="normal" in="SourceGraphic" in2="effect1_dropShadow_1_681" result="shape"/>
</filter>
<filter id="filter2_d_1_681" x="416" y="34" width="276" height="264" filterUnits="userSpaceOnUse" color-interpolation-filters="sRGB">
<feFlood flood-opacity="0" result="BackgroundImageFix"/>
<feColorMatrix in="SourceAlpha" type="matrix" values="0 0 0 0 0 0 0 0 0 0 0 0 0 0 0 0 0 0 127 0" result="hardAlpha"/>
<feOffset/>
<feGaussianBlur stdDeviation="4"/>
<feColorMatrix type="matrix" values="0 0 0 0 0.321569 0 0 0 0 0.509804 0 0 0 0 1 0 0 0 0.2 0"/>
<feBlend mode="normal" in2="BackgroundImageFix" result="effect1_dropShadow_1_681"/>
<feBlend mode="normal" in="SourceGraphic" in2="effect1_dropShadow_1_681" result="shape"/>
</filter>
</defs>
</svg>
