<svg xmlns="http://www.w3.org/2000/svg" width="700" height="295" fill="none" viewBox="0 0 700 295">
    <g filter="url(#filter0_d_4_44)">
        <rect width="660" height="267" x="20" y="20" fill="#fff" rx="10"/>
    </g>
    <path fill="#000" d="M145.834 272.81h1.288v3.57h-1.218l-.14-2.38h-7.21l-.154 2.38h-1.19v-3.57h.686c.317-.289.569-.677.756-1.162.196-.495.345-1.101.448-1.82.103-.719.177-1.563.224-2.534.047-.971.084-2.081.112-3.332h6.398v8.848Zm-1.33 0v-7.644h-3.836a68.59 68.59 0 0 1-.126 2.828 20.248 20.248 0 0 1-.224 2.142 9.286 9.286 0 0 1-.364 1.582c-.14.429-.317.793-.532 1.092h5.082Zm7.095 1.33c-.494 0-.956-.084-1.386-.252a3.242 3.242 0 0 1-1.12-.728 3.558 3.558 0 0 1-.728-1.19c-.177-.467-.266-1.003-.266-1.61 0-.597.089-1.129.266-1.596.178-.476.42-.873.728-1.19.318-.317.691-.56 1.12-.728.43-.168.892-.252 1.386-.252.504 0 .971.084 1.4.252.43.168.798.411 1.106.728.318.317.565.714.742 1.19.187.467.28.999.28 1.596 0 .607-.093 1.143-.28 1.61a3.418 3.418 0 0 1-.742 1.19c-.308.317-.676.56-1.106.728a3.807 3.807 0 0 1-1.4.252Zm0-1.106c.327 0 .626-.051.896-.154a2.04 2.04 0 0 0 .728-.49 2.29 2.29 0 0 0 .476-.84c.112-.336.168-.733.168-1.19 0-.457-.056-.854-.168-1.19a2.158 2.158 0 0 0-.476-.826 1.831 1.831 0 0 0-.728-.49 2.318 2.318 0 0 0-.896-.168c-.326 0-.625.056-.896.168-.27.103-.508.266-.714.49-.196.215-.35.49-.462.826a3.775 3.775 0 0 0-.168 1.19c0 .457.056.854.168 1.19.112.336.266.616.462.84.206.215.444.378.714.49.271.103.57.154.896.154Zm8.166 1.106c-.56 0-1.069-.084-1.526-.252a3.335 3.335 0 0 1-1.148-.742 3.277 3.277 0 0 1-.728-1.19c-.168-.467-.252-.999-.252-1.596 0-.588.084-1.115.252-1.582.177-.467.425-.859.742-1.176a3.065 3.065 0 0 1 1.162-.742 4.277 4.277 0 0 1 1.554-.266c.448 0 .859.051 1.232.154.373.093.681.233.924.42v1.106a3.263 3.263 0 0 0-1.008-.434 4.145 4.145 0 0 0-1.134-.154c-.849 0-1.475.219-1.876.658-.392.439-.588 1.111-.588 2.016s.191 1.577.574 2.016c.383.439.989.658 1.82.658.439 0 .84-.051 1.204-.154a4.969 4.969 0 0 0 1.008-.42v1.106a4.29 4.29 0 0 1-2.212.574Zm6.79-6.356V274h-1.232v-6.216h-2.282v-1.05h5.838v1.05h-2.324Zm7.521 6.132a8.282 8.282 0 0 1-.532 1.148 3.837 3.837 0 0 1-.63.854 2.257 2.257 0 0 1-.784.518 2.557 2.557 0 0 1-.994.182c-.187 0-.359-.014-.518-.042a1.57 1.57 0 0 1-.434-.112v-1.19c.103.075.233.131.392.168.159.047.331.07.518.07.345 0 .63-.084.854-.252.224-.159.439-.415.644-.77l-2.954-7.756h1.358l2.31 6.132 2.296-6.132h1.19l-2.716 7.182Zm3.936-7.182h5.824V274h-1.232v-6.216h-3.36V274h-1.232v-7.266Zm12.58 4.046h-3.514V274h-1.232v-7.266h1.232v2.996h3.514v-2.996h1.232V274h-1.232v-3.22Zm6.234 3.36c-.495 0-.957-.084-1.386-.252a3.233 3.233 0 0 1-1.12-.728 3.542 3.542 0 0 1-.728-1.19c-.177-.467-.266-1.003-.266-1.61 0-.597.089-1.129.266-1.596.177-.476.42-.873.728-1.19.317-.317.691-.56 1.12-.728a3.767 3.767 0 0 1 1.386-.252c.504 0 .971.084 1.4.252.429.168.798.411 1.106.728.317.317.565.714.742 1.19.187.467.28.999.28 1.596 0 .607-.093 1.143-.28 1.61a3.433 3.433 0 0 1-.742 1.19c-.308.317-.677.56-1.106.728a3.807 3.807 0 0 1-1.4.252Zm0-1.106a2.5 2.5 0 0 0 .896-.154 2.04 2.04 0 0 0 .728-.49c.205-.224.364-.504.476-.84.112-.336.168-.733.168-1.19 0-.457-.056-.854-.168-1.19a2.17 2.17 0 0 0-.476-.826 1.831 1.831 0 0 0-.728-.49 2.322 2.322 0 0 0-.896-.168c-.327 0-.625.056-.896.168a1.849 1.849 0 0 0-.714.49c-.196.215-.35.49-.462.826a3.775 3.775 0 0 0-.168 1.19c0 .457.056.854.168 1.19.112.336.266.616.462.84.205.215.443.378.714.49a2.5 2.5 0 0 0 .896.154Zm8.106-6.3h5.824V274h-1.232v-6.216h-3.36V274h-1.232v-7.266Zm10.816 7.406c-.495 0-.957-.084-1.386-.252a3.224 3.224 0 0 1-1.12-.728 3.542 3.542 0 0 1-.728-1.19c-.178-.467-.266-1.003-.266-1.61 0-.597.088-1.129.266-1.596.177-.476.42-.873.728-1.19.317-.317.69-.56 1.12-.728a3.767 3.767 0 0 1 1.386-.252c.504 0 .97.084 1.4.252.429.168.798.411 1.106.728.317.317.564.714.742 1.19.186.467.28.999.28 1.596 0 .607-.094 1.143-.28 1.61a3.448 3.448 0 0 1-.742 1.19c-.308.317-.677.56-1.106.728-.43.168-.896.252-1.4.252Zm0-1.106c.326 0 .625-.051.896-.154.28-.112.522-.275.728-.49.205-.224.364-.504.476-.84.112-.336.168-.733.168-1.19 0-.457-.056-.854-.168-1.19a2.17 2.17 0 0 0-.476-.826 1.838 1.838 0 0 0-.728-.49 2.325 2.325 0 0 0-.896-.168c-.327 0-.626.056-.896.168a1.849 1.849 0 0 0-.714.49c-.196.215-.35.49-.462.826a3.775 3.775 0 0 0-.168 1.19c0 .457.056.854.168 1.19.112.336.266.616.462.84.205.215.443.378.714.49.27.103.569.154.896.154Zm5.384-1.288c.131-.476.215-1.12.252-1.932.038-.812.056-1.839.056-3.08h4.886V274h-1.246v-6.216h-2.478a42.616 42.616 0 0 1-.098 2.66c-.046.775-.154 1.428-.322 1.96-.158.532-.396.938-.714 1.218-.308.271-.723.406-1.246.406h-.112a.682.682 0 0 1-.126-.014v-1.218a.996.996 0 0 0 .182.014c.476 0 .798-.355.966-1.064Zm12.596-.168c0 .42-.074.784-.224 1.092-.149.308-.359.56-.63.756a2.76 2.76 0 0 1-.966.434c-.373.093-.779.14-1.218.14h-2.408v-7.266h1.232v2.534h1.26c.924 0 1.648.182 2.17.546.523.364.784.952.784 1.764Zm-4.214-1.26v2.632h1.176c.532 0 .962-.098 1.288-.294.336-.205.504-.541.504-1.008 0-.476-.149-.817-.448-1.022-.298-.205-.718-.308-1.26-.308h-1.26Zm10.935 1.568c0 .411-.084.761-.252 1.05-.159.28-.378.513-.658.7a2.88 2.88 0 0 1-.98.378 5.094 5.094 0 0 1-1.148.126 5.392 5.392 0 0 1-1.414-.168c-.401-.112-.719-.247-.952-.406v-1.106c.289.177.635.317 1.036.42.401.103.835.154 1.302.154.532 0 .975-.084 1.33-.252.364-.177.546-.476.546-.896 0-.411-.154-.7-.462-.868-.299-.168-.761-.252-1.386-.252h-.966v-.994h1.008c.513 0 .905-.093 1.176-.28.271-.187.406-.457.406-.812a.736.736 0 0 0-.14-.462.868.868 0 0 0-.35-.308 1.486 1.486 0 0 0-.532-.168 3.395 3.395 0 0 0-.63-.056c-.429 0-.831.051-1.204.154a3.826 3.826 0 0 0-.994.434v-1.106c.243-.159.555-.294.938-.406a4.96 4.96 0 0 1 1.358-.168c.887 0 1.554.168 2.002.504.457.336.686.821.686 1.456 0 .476-.131.849-.392 1.12-.252.271-.611.457-1.078.56.579.075 1.013.257 1.302.546.299.289.448.658.448 1.106Zm4.789 2.254c-.495 0-.957-.084-1.386-.252a3.233 3.233 0 0 1-1.12-.728 3.542 3.542 0 0 1-.728-1.19c-.177-.467-.266-1.003-.266-1.61 0-.597.089-1.129.266-1.596.177-.476.42-.873.728-1.19.317-.317.691-.56 1.12-.728a3.767 3.767 0 0 1 1.386-.252c.504 0 .971.084 1.4.252.429.168.798.411 1.106.728.317.317.565.714.742 1.19.187.467.28.999.28 1.596 0 .607-.093 1.143-.28 1.61a3.433 3.433 0 0 1-.742 1.19c-.308.317-.677.56-1.106.728a3.807 3.807 0 0 1-1.4.252Zm0-1.106a2.5 2.5 0 0 0 .896-.154 2.04 2.04 0 0 0 .728-.49c.205-.224.364-.504.476-.84.112-.336.168-.733.168-1.19 0-.457-.056-.854-.168-1.19a2.17 2.17 0 0 0-.476-.826 1.831 1.831 0 0 0-.728-.49 2.322 2.322 0 0 0-.896-.168c-.327 0-.625.056-.896.168a1.849 1.849 0 0 0-.714.49c-.196.215-.35.49-.462.826a3.775 3.775 0 0 0-.168 1.19c0 .457.056.854.168 1.19.112.336.266.616.462.84.205.215.443.378.714.49a2.5 2.5 0 0 0 .896.154Zm5.03-6.3h2.716c.877 0 1.54.154 1.988.462.448.299.672.77.672 1.414 0 .429-.112.775-.336 1.036-.215.252-.523.434-.924.546 1.036.168 1.554.742 1.554 1.722 0 .373-.075.695-.224.966a1.86 1.86 0 0 1-.616.644 2.754 2.754 0 0 1-.952.364 5.904 5.904 0 0 1-1.19.112h-2.688v-7.266Zm1.232 1.05v1.974h1.372c.466 0 .84-.084 1.12-.252.289-.168.434-.411.434-.728 0-.383-.126-.644-.378-.784s-.612-.21-1.078-.21h-1.47Zm0 2.954v2.212h1.442c.261 0 .494-.014.7-.042a1.71 1.71 0 0 0 .546-.182.912.912 0 0 0 .364-.336.991.991 0 0 0 .126-.518c0-.42-.145-.714-.434-.882-.29-.168-.724-.252-1.302-.252H251.5Zm10.543 1.876a4.24 4.24 0 0 1-.322.532 2.419 2.419 0 0 1-1.19.854c-.261.093-.569.14-.924.14-.653 0-1.18-.182-1.582-.546-.401-.373-.602-.905-.602-1.596 0-.793.276-1.377.826-1.75.56-.373 1.354-.56 2.38-.56h1.358v-.602c0-.504-.13-.863-.392-1.078-.261-.215-.709-.322-1.344-.322-.448 0-.872.075-1.274.224-.401.14-.76.303-1.078.49v-1.106a5.438 5.438 0 0 1 1.05-.462 4.367 4.367 0 0 1 1.47-.238c.915 0 1.61.191 2.086.574.476.373.714.957.714 1.75v4.2c.01.103.014.21.014.322l.028.322c.01.093.019.173.028.238h-1.12a6.439 6.439 0 0 1-.084-.546 8.754 8.754 0 0 1-.028-.63l-.014-.21Zm-2.17.42c.383 0 .71-.079.98-.238.271-.159.49-.341.658-.546.168-.215.29-.42.364-.616.075-.205.112-.35.112-.434v-.532h-1.232c-.737 0-1.274.107-1.61.322-.326.205-.49.518-.49.938 0 .327.098.593.294.798.196.205.504.308.924.308Zm8.141-5.25V274h-1.232v-6.216H264.5v-1.05h5.838v1.05h-2.324Zm9.323 5.6a3.919 3.919 0 0 1-.378.238 4.34 4.34 0 0 1-.546.252 4.604 4.604 0 0 1-.728.182 4.51 4.51 0 0 1-.91.084c-1.223 0-2.151-.331-2.786-.994-.635-.663-.952-1.591-.952-2.786 0-.588.084-1.115.252-1.582.177-.467.42-.859.728-1.176a3.024 3.024 0 0 1 1.092-.742c.42-.177.877-.266 1.372-.266.523 0 .989.089 1.4.266.411.177.747.439 1.008.784.271.345.453.775.546 1.288.103.504.103 1.092 0 1.764h-5.124c.047.784.28 1.372.7 1.764.42.383 1.045.574 1.876.574.56 0 1.041-.079 1.442-.238a5.07 5.07 0 0 0 1.008-.518v1.106Zm-2.884-5.698c-.532 0-.989.163-1.372.49-.383.327-.625.821-.728 1.484h3.906c.037-.672-.117-1.167-.462-1.484-.345-.327-.793-.49-1.344-.49Zm5.195 4.06c.131-.476.215-1.12.252-1.932a69.86 69.86 0 0 0 .056-3.08h4.886V274h-1.246v-6.216h-2.478a42.616 42.616 0 0 1-.098 2.66c-.047.775-.154 1.428-.322 1.96-.159.532-.397.938-.714 1.218-.308.271-.723.406-1.246.406h-.112a.682.682 0 0 1-.126-.014v-1.218a.988.988 0 0 0 .182.014c.476 0 .798-.355.966-1.064Zm16.362-1.386c0 .607-.089 1.143-.266 1.61a3.376 3.376 0 0 1-.714 1.19 3.01 3.01 0 0 1-1.064.728 3.518 3.518 0 0 1-1.344.252c-.448 0-.868-.075-1.26-.224a3.123 3.123 0 0 1-1.036-.644 3.497 3.497 0 0 1-.714-1.064 4.205 4.205 0 0 1-.336-1.428h-1.204V274h-1.232v-7.266h1.232v2.996h1.232c.056-.504.177-.947.364-1.33.187-.392.425-.719.714-.98a3.122 3.122 0 0 1 1.008-.616c.383-.14.793-.21 1.232-.21.485 0 .933.084 1.344.252a3.01 3.01 0 0 1 1.064.728c.308.317.546.714.714 1.19.177.467.266.999.266 1.596Zm-3.388 2.674a2.2 2.2 0 0 0 .84-.154c.261-.112.485-.275.672-.49.187-.224.331-.504.434-.84.112-.336.168-.733.168-1.19 0-.457-.056-.854-.168-1.19a2.24 2.24 0 0 0-.434-.826 1.657 1.657 0 0 0-.672-.49 2.046 2.046 0 0 0-.84-.168c-.299 0-.579.056-.84.168a1.676 1.676 0 0 0-.658.49c-.187.215-.336.49-.448.826a4.083 4.083 0 0 0-.154 1.19c0 .457.051.854.154 1.19.112.336.261.616.448.84.187.215.406.378.658.49.261.103.541.154.84.154Z"/>
    <path fill="#FFF2BF" d="M117 279a10 10 0 1 0 0-19.999A10 10 0 0 0 117 279Z"/>
    <path fill="#000" d="M138.176 232.962h7.546V243h-1.33v-8.834h-4.9V243h-1.316v-10.038Zm12.699 10.178c-.495 0-.957-.084-1.386-.252a3.224 3.224 0 0 1-1.12-.728 3.542 3.542 0 0 1-.728-1.19c-.178-.467-.266-1.003-.266-1.61 0-.597.088-1.129.266-1.596.177-.476.42-.873.728-1.19.317-.317.69-.56 1.12-.728a3.767 3.767 0 0 1 1.386-.252c.504 0 .97.084 1.4.252.429.168.798.411 1.106.728.317.317.564.714.742 1.19.186.467.28.999.28 1.596 0 .607-.094 1.143-.28 1.61a3.448 3.448 0 0 1-.742 1.19c-.308.317-.677.56-1.106.728-.43.168-.896.252-1.4.252Zm0-1.106c.326 0 .625-.051.896-.154.28-.112.522-.275.728-.49.205-.224.364-.504.476-.84.112-.336.168-.733.168-1.19 0-.457-.056-.854-.168-1.19a2.17 2.17 0 0 0-.476-.826 1.838 1.838 0 0 0-.728-.49 2.325 2.325 0 0 0-.896-.168c-.327 0-.626.056-.896.168a1.849 1.849 0 0 0-.714.49c-.196.215-.35.49-.462.826a3.775 3.775 0 0 0-.168 1.19c0 .457.056.854.168 1.19.112.336.266.616.462.84.205.215.443.378.714.49.27.103.569.154.896.154Zm7.75-5.25V243h-1.232v-6.216h-2.282v-1.05h5.838v1.05h-2.324Zm7.4 6.356c-.56 0-1.045-.131-1.456-.392a2.856 2.856 0 0 1-.966-1.078v3.808h-1.232v-9.744h1.078l.126 1.414c.243-.476.57-.854.98-1.134.411-.28.92-.42 1.526-.42.42 0 .822.079 1.204.238.392.149.733.383 1.022.7.299.308.532.7.7 1.176.178.467.266 1.017.266 1.652 0 .644-.088 1.204-.266 1.68a3.494 3.494 0 0 1-.714 1.176 2.992 2.992 0 0 1-1.036.7 3.436 3.436 0 0 1-1.232.224Zm-.182-1.106c.644 0 1.162-.219 1.554-.658.402-.448.602-1.12.602-2.016 0-.877-.2-1.54-.602-1.988-.392-.457-.91-.686-1.554-.686-.317 0-.616.056-.896.168-.27.112-.508.28-.714.504a2.45 2.45 0 0 0-.476.826 3.723 3.723 0 0 0-.168 1.176c0 .448.056.84.168 1.176.122.336.28.616.476.84.206.224.444.392.714.504.28.103.579.154.896.154Zm10.705.35a3.919 3.919 0 0 1-.378.238c-.15.084-.332.168-.546.252a4.632 4.632 0 0 1-.728.182 4.51 4.51 0 0 1-.91.084c-1.223 0-2.152-.331-2.786-.994-.635-.663-.952-1.591-.952-2.786 0-.588.084-1.115.252-1.582.177-.467.42-.859.728-1.176a3.024 3.024 0 0 1 1.092-.742c.42-.177.877-.266 1.372-.266.522 0 .989.089 1.4.266.41.177.746.439 1.008.784.27.345.452.775.546 1.288.102.504.102 1.092 0 1.764h-5.124c.046.784.28 1.372.7 1.764.42.383 1.045.574 1.876.574.56 0 1.04-.079 1.442-.238a5.07 5.07 0 0 0 1.008-.518v1.106Zm-2.884-5.698c-.532 0-.99.163-1.372.49-.383.327-.626.821-.728 1.484h3.906c.037-.672-.117-1.167-.462-1.484-.346-.327-.794-.49-1.344-.49Zm11.187 2.674c0 .607-.093 1.143-.28 1.61a3.433 3.433 0 0 1-.742 1.19c-.308.317-.677.56-1.106.728a3.807 3.807 0 0 1-1.4.252c-.513 0-.985-.084-1.414-.252a2.922 2.922 0 0 1-1.106-.798c-.308-.355-.551-.803-.728-1.344-.168-.541-.252-1.181-.252-1.918 0-.607.019-1.185.056-1.736a7.504 7.504 0 0 1 .252-1.526c.131-.476.317-.901.56-1.274.252-.383.588-.7 1.008-.952.233-.14.476-.243.728-.308.252-.075.504-.131.756-.168a7.41 7.41 0 0 1 .784-.07l.77-.028c.373-.028.686-.075.938-.14.252-.065.476-.154.672-.266v1.12a2.146 2.146 0 0 1-.658.28 9.086 9.086 0 0 1-.826.126 57.56 57.56 0 0 1-1.47.112c-.439.019-.84.121-1.204.308a2.172 2.172 0 0 0-.994 1.176c-.187.513-.303 1.125-.35 1.834.485-1.12 1.4-1.68 2.744-1.68.457 0 .882.084 1.274.252.401.159.747.397 1.036.714.299.317.532.709.7 1.176.168.457.252.985.252 1.582Zm-3.528 2.674a2.5 2.5 0 0 0 .896-.154 2.04 2.04 0 0 0 .728-.49c.205-.224.364-.504.476-.84.112-.336.168-.733.168-1.19 0-.457-.056-.854-.168-1.19a2.17 2.17 0 0 0-.476-.826 1.831 1.831 0 0 0-.728-.49 2.322 2.322 0 0 0-.896-.168c-.644 0-1.181.215-1.61.644-.42.429-.63 1.092-.63 1.988 0 .467.056.873.168 1.218.112.336.266.616.462.84.205.224.443.392.714.504a2.5 2.5 0 0 0 .896.154Zm5.425-1.288c.13-.476.214-1.12.252-1.932a69.86 69.86 0 0 0 .056-3.08h4.886V243h-1.246v-6.216h-2.478c-.01.999-.042 1.885-.098 2.66-.047.775-.154 1.428-.322 1.96-.159.532-.397.938-.714 1.218-.308.271-.724.406-1.246.406h-.112a.664.664 0 0 1-.126-.014v-1.218a.98.98 0 0 0 .182.014c.476 0 .798-.355.966-1.064Zm7.192-2.66c0-.411.074-.761.224-1.05.149-.299.359-.541.63-.728a2.76 2.76 0 0 1 .966-.434c.373-.093.779-.14 1.218-.14h2.338V243h-1.232v-2.632h-1.33L194.892 243h-1.47l2.1-2.94c-.504-.149-.896-.378-1.176-.686-.271-.308-.406-.737-.406-1.288Zm4.144 1.232v-2.534h-1.106c-.523 0-.952.098-1.288.294-.336.196-.504.513-.504.952 0 .457.149.789.448.994.298.196.723.294 1.274.294h1.176Zm9.034 3.066a3.919 3.919 0 0 1-.378.238 4.34 4.34 0 0 1-.546.252 4.604 4.604 0 0 1-.728.182 4.51 4.51 0 0 1-.91.084c-1.223 0-2.151-.331-2.786-.994-.635-.663-.952-1.591-.952-2.786 0-.588.084-1.115.252-1.582.177-.467.42-.859.728-1.176a3.024 3.024 0 0 1 1.092-.742c.42-.177.877-.266 1.372-.266.523 0 .989.089 1.4.266.411.177.747.439 1.008.784.271.345.453.775.546 1.288.103.504.103 1.092 0 1.764h-5.124c.047.784.28 1.372.7 1.764.42.383 1.045.574 1.876.574.56 0 1.041-.079 1.442-.238a5.07 5.07 0 0 0 1.008-.518v1.106Zm-2.884-5.698c-.532 0-.989.163-1.372.49-.383.327-.625.821-.728 1.484h3.906c.037-.672-.117-1.167-.462-1.484-.345-.327-.793-.49-1.344-.49Zm7.493.098V243h-1.232v-6.216h-2.282v-1.05h5.838v1.05h-2.324Zm6.677 6.356c-.56 0-1.069-.084-1.526-.252a3.335 3.335 0 0 1-1.148-.742 3.263 3.263 0 0 1-.728-1.19c-.168-.467-.252-.999-.252-1.596 0-.588.084-1.115.252-1.582.177-.467.424-.859.742-1.176a3.057 3.057 0 0 1 1.162-.742 4.277 4.277 0 0 1 1.554-.266c.448 0 .858.051 1.232.154.373.093.681.233.924.42v1.106a3.263 3.263 0 0 0-1.008-.434 4.145 4.145 0 0 0-1.134-.154c-.85 0-1.475.219-1.876.658-.392.439-.588 1.111-.588 2.016s.191 1.577.574 2.016c.382.439.989.658 1.82.658.438 0 .84-.051 1.204-.154a4.969 4.969 0 0 0 1.008-.42v1.106a4.29 4.29 0 0 1-2.212.574Zm3.864-5.054c0-.411.074-.761.224-1.05.149-.299.359-.541.63-.728a2.76 2.76 0 0 1 .966-.434c.373-.093.779-.14 1.218-.14h2.338V243h-1.232v-2.632h-1.33L223.22 243h-1.47l2.1-2.94c-.504-.149-.896-.378-1.176-.686-.271-.308-.406-.737-.406-1.288Zm4.144 1.232v-2.534h-1.106c-.523 0-.952.098-1.288.294-.336.196-.504.513-.504.952 0 .457.149.789.448.994.298.196.723.294 1.274.294h1.176Zm9.464 3.822c-.56 0-1.068-.084-1.526-.252a3.345 3.345 0 0 1-1.148-.742 3.277 3.277 0 0 1-.728-1.19c-.168-.467-.252-.999-.252-1.596 0-.588.084-1.115.252-1.582.178-.467.425-.859.742-1.176a3.073 3.073 0 0 1 1.162-.742 4.284 4.284 0 0 1 1.554-.266c.448 0 .859.051 1.232.154.374.093.682.233.924.42v1.106a3.243 3.243 0 0 0-1.008-.434 4.145 4.145 0 0 0-1.134-.154c-.849 0-1.474.219-1.876.658-.392.439-.588 1.111-.588 2.016s.192 1.577.574 2.016c.383.439.99.658 1.82.658.439 0 .84-.051 1.204-.154.374-.112.71-.252 1.008-.42v1.106a4.29 4.29 0 0 1-2.212.574Zm5.096-1.82 3.878-5.586h1.246V243h-1.232v-5.572L241 243h-1.26v-7.266h1.232v5.586Zm10.272 1.82c-.56 0-1.069-.084-1.526-.252a3.335 3.335 0 0 1-1.148-.742 3.263 3.263 0 0 1-.728-1.19c-.168-.467-.252-.999-.252-1.596 0-.588.084-1.115.252-1.582.177-.467.424-.859.742-1.176a3.057 3.057 0 0 1 1.162-.742 4.277 4.277 0 0 1 1.554-.266c.448 0 .858.051 1.232.154.373.093.681.233.924.42v1.106a3.263 3.263 0 0 0-1.008-.434 4.145 4.145 0 0 0-1.134-.154c-.85 0-1.475.219-1.876.658-.392.439-.588 1.111-.588 2.016s.191 1.577.574 2.016c.382.439.989.658 1.82.658.438 0 .84-.051 1.204-.154a4.969 4.969 0 0 0 1.008-.42v1.106a4.29 4.29 0 0 1-2.212.574Zm6.79-6.356V243h-1.232v-6.216h-2.282v-1.05h5.838v1.05h-2.324Zm9.322 5.6a3.685 3.685 0 0 1-.378.238 4.34 4.34 0 0 1-.546.252 4.576 4.576 0 0 1-.728.182c-.27.056-.574.084-.91.084-1.222 0-2.151-.331-2.786-.994-.634-.663-.952-1.591-.952-2.786 0-.588.084-1.115.252-1.582.178-.467.42-.859.728-1.176a3.024 3.024 0 0 1 1.092-.742 3.5 3.5 0 0 1 1.372-.266c.523 0 .99.089 1.4.266.411.177.747.439 1.008.784.271.345.453.775.546 1.288.103.504.103 1.092 0 1.764h-5.124c.047.784.28 1.372.7 1.764.42.383 1.046.574 1.876.574.56 0 1.041-.079 1.442-.238a5.015 5.015 0 0 0 1.008-.518v1.106Zm-2.884-5.698c-.532 0-.989.163-1.372.49-.382.327-.625.821-.728 1.484h3.906c.038-.672-.116-1.167-.462-1.484-.345-.327-.793-.49-1.344-.49Zm11.566.476-2.464 5.026h-.98l-2.324-5.054V243h-1.162v-7.266h1.834l2.226 4.872 2.38-4.872h1.708V243h-1.218v-5.838Zm6.21 5.978c-.495 0-.957-.084-1.386-.252a3.224 3.224 0 0 1-1.12-.728 3.542 3.542 0 0 1-.728-1.19c-.178-.467-.266-1.003-.266-1.61 0-.597.088-1.129.266-1.596.177-.476.42-.873.728-1.19.317-.317.69-.56 1.12-.728a3.767 3.767 0 0 1 1.386-.252c.504 0 .97.084 1.4.252.429.168.798.411 1.106.728.317.317.564.714.742 1.19.186.467.28.999.28 1.596 0 .607-.094 1.143-.28 1.61a3.448 3.448 0 0 1-.742 1.19c-.308.317-.677.56-1.106.728-.43.168-.896.252-1.4.252Zm0-1.106c.326 0 .625-.051.896-.154.28-.112.522-.275.728-.49.205-.224.364-.504.476-.84.112-.336.168-.733.168-1.19 0-.457-.056-.854-.168-1.19a2.17 2.17 0 0 0-.476-.826 1.838 1.838 0 0 0-.728-.49 2.325 2.325 0 0 0-.896-.168c-.327 0-.626.056-.896.168a1.849 1.849 0 0 0-.714.49c-.196.215-.35.49-.462.826a3.775 3.775 0 0 0-.168 1.19c0 .457.056.854.168 1.19.112.336.266.616.462.84.205.215.443.378.714.49.27.103.569.154.896.154Zm8.236-7.266c-.374 0-.7-.047-.98-.14a2.15 2.15 0 0 1-.686-.406 1.834 1.834 0 0 1-.406-.602 2.213 2.213 0 0 1-.126-.756h1.232c0 .355.084.611.252.77.177.159.415.238.714.238.298 0 .532-.079.7-.238.168-.159.252-.415.252-.77h1.232c0 .532-.182.985-.546 1.358-.355.364-.901.546-1.638.546Zm-1.974 6.552 3.878-5.586h1.246V243h-1.232v-5.572L288.538 243h-1.26v-7.266h1.232v5.586Z"/>
    <path fill="#E3EBFF" d="M117 248a10 10 0 1 0 0-19.999A10 10 0 0 0 117 248Z"/>
    <path fill="#FFF2BF" stroke="#fff" d="M596.5 139.5h69v59h-69z"/>
    <path fill="#7F7AA1" d="M633.101 171.62V174h-1.232v-2.38h-4.34v-.868l3.92-6.79h1.652v6.594h1.358v1.064h-1.358Zm-1.232-1.064v-5.222l-3.066 5.222h3.066Z"/>
    <path fill="#FFF2BF" stroke="#fff" d="M491.5 139.5h104v59h-104v-59Z"/>
    <path fill="#7F7AA1" d="M546.459 170.71c0 .513-.088.98-.266 1.4-.168.42-.401.784-.7 1.092a3.184 3.184 0 0 1-1.064.7 3.5 3.5 0 0 1-1.302.238c-.634 0-1.176-.107-1.624-.322a2.888 2.888 0 0 1-1.078-.896 4.002 4.002 0 0 1-.616-1.4 7.607 7.607 0 0 1-.196-1.778c0-.877.08-1.68.238-2.408.159-.728.402-1.349.728-1.862a3.53 3.53 0 0 1 1.246-1.218c.514-.289 1.12-.434 1.82-.434.504 0 .92.051 1.246.154.327.103.616.224.868.364v1.246c-.606-.411-1.311-.616-2.114-.616-.438 0-.821.093-1.148.28a2.648 2.648 0 0 0-.84.77c-.224.317-.401.7-.532 1.148-.13.439-.214.91-.252 1.414.308-.42.663-.733 1.064-.938.402-.205.84-.308 1.316-.308.448 0 .868.075 1.26.224.392.14.733.355 1.022.644.29.289.514.644.672 1.064.168.42.252.901.252 1.442Zm-3.374 2.31c.271 0 .528-.047.77-.14.252-.103.472-.247.658-.434.187-.187.336-.42.448-.7a2.78 2.78 0 0 0 .168-1.008 2.74 2.74 0 0 0-.168-.994 2.006 2.006 0 0 0-.434-.728 1.639 1.639 0 0 0-.616-.434 1.624 1.624 0 0 0-.686-.154 2.42 2.42 0 0 0-.868.154c-.261.103-.49.252-.686.448a2.198 2.198 0 0 0-.448.728 2.78 2.78 0 0 0-.168 1.008c0 .672.182 1.218.546 1.638.364.411.859.616 1.484.616Z"/>
    <path fill="#FFF2BF" stroke="#fff" d="M386.5 139.5h104v59h-104v-59Z"/>
    <path fill="#7F7AA1" d="M441.459 170.71c0 .513-.088.98-.266 1.4-.168.42-.401.784-.7 1.092a3.184 3.184 0 0 1-1.064.7 3.5 3.5 0 0 1-1.302.238c-.634 0-1.176-.107-1.624-.322a2.888 2.888 0 0 1-1.078-.896 4.002 4.002 0 0 1-.616-1.4 7.607 7.607 0 0 1-.196-1.778c0-.877.08-1.68.238-2.408.159-.728.402-1.349.728-1.862a3.53 3.53 0 0 1 1.246-1.218c.514-.289 1.12-.434 1.82-.434.504 0 .92.051 1.246.154.327.103.616.224.868.364v1.246c-.606-.411-1.311-.616-2.114-.616-.438 0-.821.093-1.148.28a2.648 2.648 0 0 0-.84.77c-.224.317-.401.7-.532 1.148-.13.439-.214.91-.252 1.414.308-.42.663-.733 1.064-.938.402-.205.84-.308 1.316-.308.448 0 .868.075 1.26.224.392.14.733.355 1.022.644.29.289.514.644.672 1.064.168.42.252.901.252 1.442Zm-3.374 2.31c.271 0 .528-.047.77-.14.252-.103.472-.247.658-.434.187-.187.336-.42.448-.7a2.78 2.78 0 0 0 .168-1.008 2.74 2.74 0 0 0-.168-.994 2.006 2.006 0 0 0-.434-.728 1.639 1.639 0 0 0-.616-.434 1.624 1.624 0 0 0-.686-.154 2.42 2.42 0 0 0-.868.154c-.261.103-.49.252-.686.448a2.198 2.198 0 0 0-.448.728 2.78 2.78 0 0 0-.168 1.008c0 .672.182 1.218.546 1.638.364.411.859.616 1.484.616Z"/>
    <path fill="#FFF2BF" stroke="#fff" d="M281.5 139.5h104v59h-104z"/>
    <path fill="#7F7AA1" d="M336.459 170.71c0 .513-.088.98-.266 1.4-.168.42-.401.784-.7 1.092a3.184 3.184 0 0 1-1.064.7 3.5 3.5 0 0 1-1.302.238c-.634 0-1.176-.107-1.624-.322a2.888 2.888 0 0 1-1.078-.896 4.002 4.002 0 0 1-.616-1.4 7.607 7.607 0 0 1-.196-1.778c0-.877.08-1.68.238-2.408.159-.728.402-1.349.728-1.862a3.53 3.53 0 0 1 1.246-1.218c.514-.289 1.12-.434 1.82-.434.504 0 .92.051 1.246.154.327.103.616.224.868.364v1.246c-.606-.411-1.311-.616-2.114-.616-.438 0-.821.093-1.148.28a2.648 2.648 0 0 0-.84.77c-.224.317-.401.7-.532 1.148-.13.439-.214.91-.252 1.414.308-.42.663-.733 1.064-.938.402-.205.84-.308 1.316-.308.448 0 .868.075 1.26.224.392.14.733.355 1.022.644.29.289.514.644.672 1.064.168.42.252.901.252 1.442Zm-3.374 2.31c.271 0 .528-.047.77-.14.252-.103.472-.247.658-.434.187-.187.336-.42.448-.7a2.78 2.78 0 0 0 .168-1.008 2.74 2.74 0 0 0-.168-.994 2.006 2.006 0 0 0-.434-.728 1.639 1.639 0 0 0-.616-.434 1.624 1.624 0 0 0-.686-.154 2.42 2.42 0 0 0-.868.154c-.261.103-.49.252-.686.448a2.198 2.198 0 0 0-.448.728 2.78 2.78 0 0 0-.168 1.008c0 .672.182 1.218.546 1.638.364.411.859.616 1.484.616Z"/>
    <path fill="#FFF2BF" stroke="#fff" d="M176.5 139.5h104v59h-104z"/>
    <path fill="#7F7AA1" d="M231.459 170.71c0 .513-.088.98-.266 1.4-.168.42-.401.784-.7 1.092a3.184 3.184 0 0 1-1.064.7 3.5 3.5 0 0 1-1.302.238c-.634 0-1.176-.107-1.624-.322a2.888 2.888 0 0 1-1.078-.896 4.002 4.002 0 0 1-.616-1.4 7.607 7.607 0 0 1-.196-1.778c0-.877.08-1.68.238-2.408.159-.728.402-1.349.728-1.862a3.53 3.53 0 0 1 1.246-1.218c.514-.289 1.12-.434 1.82-.434.504 0 .92.051 1.246.154.327.103.616.224.868.364v1.246c-.606-.411-1.311-.616-2.114-.616-.438 0-.821.093-1.148.28a2.648 2.648 0 0 0-.84.77c-.224.317-.401.7-.532 1.148-.13.439-.214.91-.252 1.414.308-.42.663-.733 1.064-.938.402-.205.84-.308 1.316-.308.448 0 .868.075 1.26.224.392.14.733.355 1.022.644.29.289.514.644.672 1.064.168.42.252.901.252 1.442Zm-3.374 2.31c.271 0 .528-.047.77-.14.252-.103.472-.247.658-.434.187-.187.336-.42.448-.7a2.78 2.78 0 0 0 .168-1.008 2.74 2.74 0 0 0-.168-.994 2.006 2.006 0 0 0-.434-.728 1.639 1.639 0 0 0-.616-.434 1.624 1.624 0 0 0-.686-.154 2.42 2.42 0 0 0-.868.154c-.261.103-.49.252-.686.448a2.198 2.198 0 0 0-.448.728 2.78 2.78 0 0 0-.168 1.008c0 .672.182 1.218.546 1.638.364.411.859.616 1.484.616Z"/>
    <path fill="#E3EBFF" stroke="#fff" d="M106.5 139.5h69v59h-69z"/>
    <path fill="#7F7AA1" d="M143.101 171.62V174h-1.232v-2.38h-4.34v-.868l3.92-6.79h1.652v6.594h1.358v1.064h-1.358Zm-1.232-1.064v-5.222l-3.066 5.222h3.066Z"/>
    <path fill="#000" d="M81.36 174h-1.275v-8.456l-2.772 2.128v-1.414l2.982-2.296h1.064V174Z"/>
    <path fill="#000" fill-rule="evenodd" d="M48.897 152.241a1.241 1.241 0 0 0-2.483 0v3.104h-.62a7.448 7.448 0 0 0-7.45 7.448v.621h-3.103a1.241 1.241 0 0 0 0 2.483h3.104v6.206H35.24a1.242 1.242 0 0 0 0 2.483h3.104v.621a7.448 7.448 0 0 0 7.448 7.448h.62v3.104a1.241 1.241 0 0 0 2.484 0v-3.104h6.206v3.104a1.241 1.241 0 0 0 2.483 0v-3.104h.62a7.448 7.448 0 0 0 7.45-7.448v-.621h3.103a1.241 1.241 0 0 0 0-2.483h-3.104v-6.206h3.104a1.242 1.242 0 0 0 0-2.483h-3.104v-.621a7.448 7.448 0 0 0-7.448-7.448h-.62v-3.104a1.241 1.241 0 0 0-2.484 0v3.104h-6.206v-3.104Zm-8.07 21.103v-10.551a4.965 4.965 0 0 1 4.966-4.965h12.414a4.965 4.965 0 0 1 4.965 4.965v12.414a4.965 4.965 0 0 1-4.965 4.965H45.793a4.965 4.965 0 0 1-4.965-4.965v-1.863Zm16.76-8.689c0-.686-.557-1.242-1.242-1.242h-8.69c-.685 0-1.241.556-1.241 1.242v8.69a1.243 1.243 0 0 0 1.241 1.241h8.69c.685 0 1.241-.556 1.241-1.241v-8.69Zm-8.69 1.241h6.206v6.207h-6.206v-6.207Z" clip-rule="evenodd"/>
    <path fill="#7F7AA1" d="M420.387 233h-6.398v-1.33a79.815 79.815 0 0 0 2.198-1.82 16.13 16.13 0 0 0 1.54-1.47c.401-.448.7-.873.896-1.274.196-.411.294-.835.294-1.274 0-.551-.168-.994-.504-1.33-.327-.345-.808-.518-1.442-.518-.532 0-1.027.131-1.484.392a5.004 5.004 0 0 0-1.232.994v-1.414a4.246 4.246 0 0 1 1.204-.826c.448-.205.966-.308 1.554-.308.522 0 .984.07 1.386.21.41.14.751.336 1.022.588.28.252.49.555.63.91.149.355.224.747.224 1.176a3.68 3.68 0 0 1-.322 1.526 5.65 5.65 0 0 1-.924 1.428c-.411.476-.92.971-1.526 1.484a61.477 61.477 0 0 1-2.058 1.652h4.942V233Zm7.823-2.744c0 .448-.084.854-.252 1.218a2.668 2.668 0 0 1-.7.91 3.24 3.24 0 0 1-1.05.56c-.401.131-.84.196-1.316.196-.495 0-.947-.061-1.358-.182a3.211 3.211 0 0 1-1.064-.56 2.715 2.715 0 0 1-.7-.896 2.78 2.78 0 0 1-.252-1.204c0-.653.168-1.199.504-1.638.345-.448.807-.779 1.386-.994a2.506 2.506 0 0 1-1.12-.854c-.271-.383-.406-.854-.406-1.414 0-.411.075-.775.224-1.092.159-.317.369-.583.63-.798a2.74 2.74 0 0 1 .952-.504 4.171 4.171 0 0 1 1.204-.168c.42 0 .807.056 1.162.168.364.103.681.261.952.476.271.215.481.481.63.798.159.308.238.672.238 1.092 0 .569-.14 1.05-.42 1.442a2.52 2.52 0 0 1-1.106.854 2.82 2.82 0 0 1 1.344.952c.345.439.518.985.518 1.638Zm-3.318-3.094c.504 0 .915-.14 1.232-.42.317-.289.476-.686.476-1.19 0-.504-.159-.896-.476-1.176-.317-.289-.728-.434-1.232-.434s-.919.145-1.246.434c-.327.28-.49.672-.49 1.176 0 .504.163.901.49 1.19.327.28.742.42 1.246.42Zm0 4.872c.289 0 .555-.042.798-.126.252-.093.467-.219.644-.378.187-.168.331-.373.434-.616.103-.243.154-.518.154-.826 0-.308-.051-.583-.154-.826a1.587 1.587 0 0 0-.434-.602 1.703 1.703 0 0 0-.644-.378 2.215 2.215 0 0 0-.798-.14c-.299 0-.579.047-.84.14-.252.084-.471.21-.658.378a1.587 1.587 0 0 0-.434.602 2.097 2.097 0 0 0-.154.826c0 .308.051.583.154.826.103.243.247.448.434.616.187.159.406.285.658.378.261.084.541.126.84.126Z"/>
    <path stroke="#7F7AA1" d="M665 201a9.243 9.243 0 0 1-9.243 9.243h-225A9.757 9.757 0 0 0 421 220m-244-19a9.243 9.243 0 0 0 9.243 9.243h225A9.757 9.757 0 0 1 421 220"/>
    <path fill="#FFF2BF" stroke="#fff" d="M596.5 60.5h69v59h-69z"/>
    <path fill="#7F7AA1" d="M633.101 92.62V95h-1.232v-2.38h-4.34v-.868l3.92-6.79h1.652v6.594h1.358v1.064h-1.358Zm-1.232-1.064v-5.222l-3.066 5.222h3.066Z"/>
    <path fill="#FFF2BF" stroke="#fff" d="M491.5 60.5h104v59h-104v-59Z"/>
    <path fill="#7F7AA1" d="M546.459 91.71c0 .513-.088.98-.266 1.4-.168.42-.401.784-.7 1.092a3.188 3.188 0 0 1-1.064.7 3.506 3.506 0 0 1-1.302.238c-.634 0-1.176-.107-1.624-.322a2.888 2.888 0 0 1-1.078-.896 4 4 0 0 1-.616-1.4 7.609 7.609 0 0 1-.196-1.778c0-.877.08-1.68.238-2.408.159-.728.402-1.349.728-1.862a3.536 3.536 0 0 1 1.246-1.218c.514-.29 1.12-.434 1.82-.434.504 0 .92.051 1.246.154.327.103.616.224.868.364v1.246c-.606-.41-1.311-.616-2.114-.616-.438 0-.821.093-1.148.28a2.648 2.648 0 0 0-.84.77c-.224.317-.401.7-.532 1.148-.13.439-.214.91-.252 1.414.308-.42.663-.733 1.064-.938a2.85 2.85 0 0 1 1.316-.308c.448 0 .868.075 1.26.224.392.14.733.355 1.022.644.29.29.514.644.672 1.064.168.42.252.9.252 1.442Zm-3.374 2.31c.271 0 .528-.047.77-.14.252-.103.472-.247.658-.434.187-.187.336-.42.448-.7.112-.29.168-.625.168-1.008a2.74 2.74 0 0 0-.168-.994 2.003 2.003 0 0 0-.434-.728 1.642 1.642 0 0 0-.616-.434 1.628 1.628 0 0 0-.686-.154 2.42 2.42 0 0 0-.868.154 1.99 1.99 0 0 0-.686.448 2.194 2.194 0 0 0-.448.728c-.112.29-.168.625-.168 1.008 0 .672.182 1.218.546 1.638.364.41.859.616 1.484.616Z"/>
    <path fill="#FFF2BF" stroke="#fff" d="M386.5 60.5h104v59h-104v-59Z"/>
    <path fill="#7F7AA1" d="M441.459 91.71c0 .513-.088.98-.266 1.4-.168.42-.401.784-.7 1.092a3.188 3.188 0 0 1-1.064.7 3.506 3.506 0 0 1-1.302.238c-.634 0-1.176-.107-1.624-.322a2.888 2.888 0 0 1-1.078-.896 4 4 0 0 1-.616-1.4 7.609 7.609 0 0 1-.196-1.778c0-.877.08-1.68.238-2.408.159-.728.402-1.349.728-1.862a3.536 3.536 0 0 1 1.246-1.218c.514-.29 1.12-.434 1.82-.434.504 0 .92.051 1.246.154.327.103.616.224.868.364v1.246c-.606-.41-1.311-.616-2.114-.616-.438 0-.821.093-1.148.28a2.648 2.648 0 0 0-.84.77c-.224.317-.401.7-.532 1.148-.13.439-.214.91-.252 1.414.308-.42.663-.733 1.064-.938a2.85 2.85 0 0 1 1.316-.308c.448 0 .868.075 1.26.224.392.14.733.355 1.022.644.29.29.514.644.672 1.064.168.42.252.9.252 1.442Zm-3.374 2.31c.271 0 .528-.047.77-.14.252-.103.472-.247.658-.434.187-.187.336-.42.448-.7.112-.29.168-.625.168-1.008a2.74 2.74 0 0 0-.168-.994 2.003 2.003 0 0 0-.434-.728 1.642 1.642 0 0 0-.616-.434 1.628 1.628 0 0 0-.686-.154 2.42 2.42 0 0 0-.868.154 1.99 1.99 0 0 0-.686.448 2.194 2.194 0 0 0-.448.728c-.112.29-.168.625-.168 1.008 0 .672.182 1.218.546 1.638.364.41.859.616 1.484.616Z"/>
    <path fill="#FFF2BF" stroke="#fff" d="M281.5 60.5h104v59h-104z"/>
    <path fill="#7F7AA1" d="M336.459 91.71c0 .513-.088.98-.266 1.4-.168.42-.401.784-.7 1.092a3.188 3.188 0 0 1-1.064.7 3.506 3.506 0 0 1-1.302.238c-.634 0-1.176-.107-1.624-.322a2.888 2.888 0 0 1-1.078-.896 4 4 0 0 1-.616-1.4 7.609 7.609 0 0 1-.196-1.778c0-.877.08-1.68.238-2.408.159-.728.402-1.349.728-1.862a3.536 3.536 0 0 1 1.246-1.218c.514-.29 1.12-.434 1.82-.434.504 0 .92.051 1.246.154.327.103.616.224.868.364v1.246c-.606-.41-1.311-.616-2.114-.616-.438 0-.821.093-1.148.28a2.648 2.648 0 0 0-.84.77c-.224.317-.401.7-.532 1.148-.13.439-.214.91-.252 1.414.308-.42.663-.733 1.064-.938a2.85 2.85 0 0 1 1.316-.308c.448 0 .868.075 1.26.224.392.14.733.355 1.022.644.29.29.514.644.672 1.064.168.42.252.9.252 1.442Zm-3.374 2.31c.271 0 .528-.047.77-.14.252-.103.472-.247.658-.434.187-.187.336-.42.448-.7.112-.29.168-.625.168-1.008a2.74 2.74 0 0 0-.168-.994 2.003 2.003 0 0 0-.434-.728 1.642 1.642 0 0 0-.616-.434 1.628 1.628 0 0 0-.686-.154 2.42 2.42 0 0 0-.868.154 1.99 1.99 0 0 0-.686.448 2.194 2.194 0 0 0-.448.728c-.112.29-.168.625-.168 1.008 0 .672.182 1.218.546 1.638.364.41.859.616 1.484.616Z"/>
    <path fill="#FFF2BF" stroke="#fff" d="M176.5 60.5h104v59h-104z"/>
    <path fill="#7F7AA1" d="M231.459 91.71c0 .513-.088.98-.266 1.4-.168.42-.401.784-.7 1.092a3.188 3.188 0 0 1-1.064.7 3.506 3.506 0 0 1-1.302.238c-.634 0-1.176-.107-1.624-.322a2.888 2.888 0 0 1-1.078-.896 4 4 0 0 1-.616-1.4 7.609 7.609 0 0 1-.196-1.778c0-.877.08-1.68.238-2.408.159-.728.402-1.349.728-1.862a3.536 3.536 0 0 1 1.246-1.218c.514-.29 1.12-.434 1.82-.434.504 0 .92.051 1.246.154.327.103.616.224.868.364v1.246c-.606-.41-1.311-.616-2.114-.616-.438 0-.821.093-1.148.28a2.648 2.648 0 0 0-.84.77c-.224.317-.401.7-.532 1.148-.13.439-.214.91-.252 1.414.308-.42.663-.733 1.064-.938a2.85 2.85 0 0 1 1.316-.308c.448 0 .868.075 1.26.224.392.14.733.355 1.022.644.29.29.514.644.672 1.064.168.42.252.9.252 1.442Zm-3.374 2.31c.271 0 .528-.047.77-.14.252-.103.472-.247.658-.434.187-.187.336-.42.448-.7.112-.29.168-.625.168-1.008a2.74 2.74 0 0 0-.168-.994 2.003 2.003 0 0 0-.434-.728 1.642 1.642 0 0 0-.616-.434 1.628 1.628 0 0 0-.686-.154 2.42 2.42 0 0 0-.868.154 1.99 1.99 0 0 0-.686.448 2.194 2.194 0 0 0-.448.728c-.112.29-.168.625-.168 1.008 0 .672.182 1.218.546 1.638.364.41.859.616 1.484.616Z"/>
    <path fill="#E3EBFF" stroke="#fff" d="M106.5 60.5h69v59h-69z"/>
    <path fill="#7F7AA1" d="M143.101 92.62V95h-1.232v-2.38h-4.34v-.868l3.92-6.79h1.652v6.594h1.358v1.064h-1.358Zm-1.232-1.064v-5.222l-3.066 5.222h3.066Z"/>
    <path fill="#000" d="M80.03 95.14c-.477 0-.92-.098-1.33-.294-.402-.205-.752-.518-1.05-.938-.29-.43-.519-.966-.687-1.61-.168-.653-.252-1.428-.252-2.324 0-.896.084-1.666.252-2.31.168-.653.397-1.19.686-1.61.299-.42.649-.728 1.05-.924a3.049 3.049 0 0 1 1.33-.294c.476 0 .915.098 1.316.294.402.196.747.504 1.036.924.29.41.514.938.672 1.582.168.644.252 1.414.252 2.31 0 .896-.084 1.67-.252 2.324-.158.644-.382 1.18-.672 1.61-.289.43-.634.747-1.036.952a2.85 2.85 0 0 1-1.316.308Zm-.015-1.106c.318 0 .598-.07.84-.21.243-.14.448-.369.616-.686.168-.317.294-.733.378-1.246.094-.523.14-1.157.14-1.904 0-.747-.042-1.377-.126-1.89-.084-.523-.21-.943-.378-1.26-.168-.317-.373-.546-.616-.686a1.65 1.65 0 0 0-.84-.21c-.317 0-.602.07-.854.21-.242.14-.452.369-.63.686-.168.317-.298.737-.392 1.26-.084.513-.126 1.143-.126 1.89 0 .747.042 1.381.126 1.904.094.513.224.929.392 1.246.168.317.374.546.616.686.252.14.537.21.854.21Z"/>
    <path fill="#000" fill-rule="evenodd" d="M48.897 73.241a1.241 1.241 0 0 0-2.483 0v3.104h-.62a7.448 7.448 0 0 0-7.45 7.448v.62h-3.103a1.241 1.241 0 0 0 0 2.484h3.104v6.206H35.24a1.241 1.241 0 0 0 0 2.483h3.104v.62a7.448 7.448 0 0 0 7.448 7.449h.62v3.104a1.241 1.241 0 0 0 2.484 0v-3.104h6.206v3.104a1.241 1.241 0 0 0 2.483 0v-3.104h.62a7.448 7.448 0 0 0 7.45-7.448v-.62h3.103a1.241 1.241 0 0 0 0-2.484h-3.104v-6.206h3.104a1.241 1.241 0 0 0 0-2.483h-3.104v-.62a7.448 7.448 0 0 0-7.448-7.45h-.62v-3.103a1.241 1.241 0 0 0-2.484 0v3.104h-6.206V73.24Zm-8.07 21.103V83.793a4.965 4.965 0 0 1 4.966-4.965h12.414a4.965 4.965 0 0 1 4.965 4.965v12.414a4.965 4.965 0 0 1-4.965 4.965H45.793a4.965 4.965 0 0 1-4.965-4.965v-1.863Zm16.76-8.69c0-.685-.557-1.24-1.242-1.24h-8.69a1.24 1.24 0 0 0-1.241 1.24v8.69a1.241 1.241 0 0 0 1.241 1.242h8.69c.685 0 1.241-.556 1.241-1.241v-8.69Zm-8.69 1.242h6.206v6.207h-6.206v-6.207Z" clip-rule="evenodd"/>
    <path stroke="#7F7AA1" d="M665 59a9.243 9.243 0 0 0-9.243-9.243h-260A9.757 9.757 0 0 1 386 40"/>
    <path fill="#7F7AA1" d="M385.471 34.102c0 .467-.089.887-.266 1.26a2.896 2.896 0 0 1-.742.966 3.39 3.39 0 0 1-1.134.602c-.439.14-.924.21-1.456.21-.654 0-1.218-.08-1.694-.238-.476-.159-.864-.364-1.162-.616v-1.4c.298.299.69.56 1.176.784.485.215 1.05.322 1.694.322.69 0 1.232-.163 1.624-.49.401-.327.602-.784.602-1.372 0-.56-.178-.994-.532-1.302-.355-.317-.91-.476-1.666-.476h-1.288v-1.19h1.344c.532 0 .961-.14 1.288-.42.326-.28.49-.686.49-1.218 0-.476-.154-.85-.462-1.12-.308-.28-.752-.42-1.33-.42-.598 0-1.111.112-1.54.336a6.2 6.2 0 0 0-1.148.784v-1.372a4 4 0 0 1 1.162-.658c.448-.168.961-.252 1.54-.252.476 0 .905.065 1.288.196.382.121.704.299.966.532.27.233.476.513.616.84.14.317.21.672.21 1.064 0 .317-.047.602-.14.854a2.034 2.034 0 0 1-.392.658 2.315 2.315 0 0 1-.56.476c-.215.121-.444.21-.686.266.289.047.564.135.826.266.27.13.508.299.714.504.205.196.364.434.476.714.121.27.182.574.182.91ZM393.084 37h-6.398v-1.33a80.363 80.363 0 0 0 2.198-1.82 16.01 16.01 0 0 0 1.54-1.47c.401-.448.7-.873.896-1.274.196-.41.294-.835.294-1.274 0-.55-.168-.994-.504-1.33-.327-.345-.807-.518-1.442-.518a2.94 2.94 0 0 0-1.484.392 5.022 5.022 0 0 0-1.232.994v-1.414a4.26 4.26 0 0 1 1.204-.826c.448-.205.966-.308 1.554-.308.523 0 .985.07 1.386.21.411.14.751.336 1.022.588.28.252.49.555.63.91.149.355.224.747.224 1.176 0 .541-.107 1.05-.322 1.526a5.595 5.595 0 0 1-.924 1.428c-.411.476-.919.97-1.526 1.484a59.856 59.856 0 0 1-2.058 1.652h4.942V37Z"/>
    <path stroke="#7F7AA1" d="M107 59a9.243 9.243 0 0 1 9.243-9.243h260A9.757 9.757 0 0 0 386 40"/>
    <defs>
        <filter id="filter0_d_4_44" width="676" height="283" x="12" y="12" color-interpolation-filters="sRGB" filterUnits="userSpaceOnUse">
            <feFlood flood-opacity="0" result="BackgroundImageFix"/>
            <feColorMatrix in="SourceAlpha" result="hardAlpha" values="0 0 0 0 0 0 0 0 0 0 0 0 0 0 0 0 0 0 127 0"/>
            <feOffset/>
            <feGaussianBlur stdDeviation="4"/>
            <feColorMatrix values="0 0 0 0 0.321569 0 0 0 0 0.509804 0 0 0 0 1 0 0 0 0.2 0"/>
            <feBlend in2="BackgroundImageFix" result="effect1_dropShadow_4_44"/>
            <feBlend in="SourceGraphic" in2="effect1_dropShadow_4_44" result="shape"/>
        </filter>
    </defs>
</svg>
