<svg xmlns="http://www.w3.org/2000/svg" width="840" height="388" fill="none" viewBox="0 0 840 388">
    <path fill="#4E496B" d="m109 145-10 5.774v-11.547L109 145Zm-56 8v38h-2v-38h2Zm7-9h40v2H60v-2Zm-9 9a9 9 0 0 1 9-9v2a7 7 0 0 0-7 7h-2Zm58 126-10-5.774v11.547L109 279Zm-56-8v-38h-2v38h2Zm7 9h40v-2H60v2Zm-9-9a9 9 0 0 0 9 9v-2a7 7 0 0 1-7-7h-2Z"/>
    <g filter="url(#filter0_d_8_2)">
        <rect width="684" height="346" x="137" y="21" fill="#fff" rx="8"/>
    </g>
    <rect width="90" height="38" x="426" y="193" fill="#D6E1FF" rx="8"/>
    <path fill="#000" d="M464.202 216h-1.764l-3-8.604h1.176l2.748 7.92 2.748-7.92h1.08L464.202 216Zm4.173-8.604h2.748c.976 0 1.732.204 2.268.612.544.4.816 1.028.816 1.884 0 .488-.08.908-.24 1.26a2.22 2.22 0 0 1-.648.852c-.28.224-.616.388-1.008.492a4.91 4.91 0 0 1-1.284.156h-1.524V216h-1.128v-8.604Zm1.128 1.032v3.204h1.524c.304 0 .58-.032.828-.096s.46-.164.636-.3a1.3 1.3 0 0 0 .42-.528c.104-.224.156-.492.156-.804 0-.52-.168-.896-.504-1.128-.336-.232-.816-.348-1.44-.348h-1.62Zm9.928 7.692c-.64 0-1.22-.1-1.74-.3-.52-.2-.968-.488-1.344-.864a3.955 3.955 0 0 1-.852-1.392c-.2-.552-.3-1.172-.3-1.86 0-.696.092-1.316.276-1.86a3.657 3.657 0 0 1 .816-1.38c.36-.384.8-.676 1.32-.876.528-.2 1.128-.3 1.8-.3.584 0 1.096.064 1.536.192.44.12.8.264 1.08.432v1.08a3.98 3.98 0 0 0-1.248-.516 5.865 5.865 0 0 0-1.38-.168c-1.016 0-1.768.284-2.256.852-.48.56-.72 1.408-.72 2.544 0 1.144.26 1.996.78 2.556.528.56 1.304.84 2.328.84.44 0 .868-.06 1.284-.18.424-.12.828-.324 1.212-.612v1.08c-.232.184-.572.352-1.02.504-.44.152-.964.228-1.572.228Z"/>
    <rect width="222" height="282" x="160" y="71" stroke="#5282FF" stroke-width="2" rx="8"/>
    <rect width="90" height="38" x="7" y="193" fill="#D6E1FF" rx="8"/>
    <path fill="#000" d="M32.697 207.396V216h-1.129v-8.604h1.128Zm4.808 3.192c-.48 0-.872.112-1.175.336a2.455 2.455 0 0 0-.72.84V216h-1.056v-6.228h.995l.037 1.116h.023c.169-.36.432-.656.792-.888.36-.232.816-.348 1.368-.348.617 0 1.105.164 1.465.492.367.32.551.816.551 1.488V216H38.73v-4.26c0-.432-.108-.732-.324-.9-.216-.168-.517-.252-.9-.252Zm6.999 5.28a1.93 1.93 0 0 1-.492.18c-.2.048-.412.072-.636.072-.304 0-.564-.044-.78-.132a1.504 1.504 0 0 1-.516-.348 1.48 1.48 0 0 1-.3-.504 2.09 2.09 0 0 1-.084-.588v-3.876h-.744v-.9h.744v-1.308h1.056v1.308h1.812v.9h-1.812v3.744c0 .264.064.456.192.576.136.12.372.18.708.18.312 0 .596-.088.852-.264v.96Zm6.302-.396a3.344 3.344 0 0 1-.324.204 3.758 3.758 0 0 1-.468.216 3.946 3.946 0 0 1-.624.156 3.864 3.864 0 0 1-.78.072c-1.048 0-1.844-.284-2.388-.852-.544-.568-.816-1.364-.816-2.388 0-.504.072-.956.216-1.356.152-.4.36-.736.624-1.008.264-.28.576-.492.936-.636.36-.152.752-.228 1.176-.228a3 3 0 0 1 1.2.228c.352.152.64.376.864.672.232.296.388.664.468 1.104.088.432.088.936 0 1.512h-4.392c.04.672.24 1.176.6 1.512.36.328.896.492 1.608.492.48 0 .892-.068 1.236-.204a4.33 4.33 0 0 0 .864-.444v.948Zm-2.472-4.884c-.456 0-.848.14-1.176.42-.328.28-.536.704-.624 1.272h3.348c.032-.576-.1-1-.396-1.272-.296-.28-.68-.42-1.152-.42Zm6.964.24c-.448.04-.856.156-1.224.348-.36.184-.628.472-.804.864V216h-1.056v-6.228h.924l.108 1.356h.024c.176-.368.428-.688.756-.96.336-.28.76-.452 1.272-.516v1.176Zm4.239-.24c-.48 0-.872.112-1.176.336a2.455 2.455 0 0 0-.72.84V216h-1.056v-6.228h.996l.036 1.116h.024c.168-.36.432-.656.792-.888.36-.232.816-.348 1.368-.348.616 0 1.104.164 1.464.492.368.32.552.816.552 1.488V216H60.76v-4.26c0-.432-.108-.732-.324-.9-.216-.168-.516-.252-.9-.252Zm8.906 4.884a3.344 3.344 0 0 1-.324.204 3.758 3.758 0 0 1-.468.216 3.946 3.946 0 0 1-.624.156 3.864 3.864 0 0 1-.78.072c-1.048 0-1.844-.284-2.388-.852-.544-.568-.816-1.364-.816-2.388 0-.504.072-.956.216-1.356.152-.4.36-.736.624-1.008.264-.28.576-.492.936-.636.36-.152.752-.228 1.176-.228a3 3 0 0 1 1.2.228c.352.152.64.376.864.672.232.296.388.664.468 1.104.088.432.088.936 0 1.512h-4.392c.04.672.24 1.176.6 1.512.36.328.896.492 1.608.492.48 0 .892-.068 1.236-.204a4.33 4.33 0 0 0 .864-.444v.948Zm-2.472-4.884c-.456 0-.848.14-1.176.42-.328.28-.536.704-.624 1.272h3.348c.032-.576-.1-1-.396-1.272-.296-.28-.68-.42-1.152-.42Zm6.927 5.28a1.93 1.93 0 0 1-.492.18c-.2.048-.412.072-.636.072-.304 0-.564-.044-.78-.132a1.504 1.504 0 0 1-.516-.348 1.48 1.48 0 0 1-.3-.504 2.09 2.09 0 0 1-.084-.588v-3.876h-.744v-.9h.744v-1.308h1.056v1.308h1.812v.9h-1.812v3.744c0 .264.064.456.192.576.136.12.372.18.708.18.312 0 .596-.088.852-.264v.96Z"/>
    <rect width="90" height="38" x="278" y="145" fill="#D6E1FF" rx="8"/>
    <path fill="#000" d="M293.135 166.812a3.648 3.648 0 0 1-.276.456 2.088 2.088 0 0 1-1.02.732c-.224.08-.488.12-.792.12-.56 0-1.012-.156-1.356-.468-.344-.32-.516-.776-.516-1.368 0-.68.236-1.18.708-1.5.48-.32 1.16-.48 2.04-.48h1.164v-.516c0-.432-.112-.74-.336-.924-.224-.184-.608-.276-1.152-.276-.384 0-.748.064-1.092.192-.344.12-.652.26-.924.42v-.948c.224-.136.524-.268.9-.396a3.75 3.75 0 0 1 1.26-.204c.784 0 1.38.164 1.788.492.408.32.612.82.612 1.5v3.6c.008.088.012.18.012.276l.024.276c.008.08.016.148.024.204h-.96a5.482 5.482 0 0 1-.072-.468 7.173 7.173 0 0 1-.024-.54l-.012-.18Zm-1.86.36c.328 0 .608-.068.84-.204.232-.136.42-.292.564-.468.144-.184.248-.36.312-.528.064-.176.096-.3.096-.372v-.456h-1.056c-.632 0-1.092.092-1.38.276-.28.176-.42.444-.42.804 0 .28.084.508.252.684.168.176.432.264.792.264Zm5.584-7.776V168h-1.056v-8.604h1.056Zm7.638 5.484c0 .552-.076 1.032-.228 1.44a3.01 3.01 0 0 1-.612 1.008 2.566 2.566 0 0 1-.888.6 2.941 2.941 0 0 1-1.056.192c-.48 0-.9-.112-1.26-.336a2.46 2.46 0 0 1-.84-.96l-.036 1.176h-.996v-8.604h1.056l-.024 3.588c.208-.408.488-.732.84-.972s.788-.36 1.308-.36c.36 0 .704.068 1.032.204.336.128.628.328.876.6.256.264.456.6.6 1.008.152.4.228.872.228 1.416Zm-2.94 2.292c.552 0 .996-.188 1.332-.564.344-.384.516-.96.516-1.728 0-.752-.172-1.32-.516-1.704-.336-.392-.78-.588-1.332-.588-.272 0-.528.048-.768.144a1.71 1.71 0 0 0-.612.432c-.168.184-.304.42-.408.708a3.191 3.191 0 0 0-.144 1.008c0 .384.048.72.144 1.008.104.288.24.528.408.72.176.192.38.336.612.432.24.088.496.132.768.132Zm4.192-3.312h2.88v.96h-2.88v-.96Zm6.461 4.26c-.328 0-.62-.028-.876-.084a4.113 4.113 0 0 1-.66-.18c-.184-.08-.34-.16-.468-.24a3.161 3.161 0 0 1-.3-.228v-.948c.08.08.188.168.324.264.136.088.3.172.492.252.192.08.408.148.648.204.248.048.524.072.828.072.448 0 .804-.072 1.068-.216.264-.144.396-.388.396-.732a.698.698 0 0 0-.132-.444.801.801 0 0 0-.336-.264 2.07 2.07 0 0 0-.504-.168c-.184-.04-.38-.08-.588-.12a22.265 22.265 0 0 1-.78-.18 2.73 2.73 0 0 1-.696-.3 1.633 1.633 0 0 1-.504-.516c-.128-.216-.192-.496-.192-.84 0-.56.216-1 .648-1.32.44-.32 1.052-.48 1.836-.48.44 0 .828.044 1.164.132.344.088.608.184.792.288v.948a2.824 2.824 0 0 0-.78-.336c-.304-.096-.684-.144-1.14-.144-.472 0-.836.064-1.092.192-.248.128-.372.36-.372.696 0 .168.036.304.108.408a.856.856 0 0 0 .288.24c.128.056.272.1.432.132.16.032.328.068.504.108.272.056.552.116.84.18.288.064.544.164.768.3.232.136.42.32.564.552.152.224.228.528.228.912 0 .36-.072.66-.216.9-.144.24-.336.432-.576.576-.232.136-.5.232-.804.288-.296.064-.6.096-.912.096Zm7.804-1.236a2.233 2.233 0 0 1-.78.888c-.344.232-.796.348-1.356.348-.576 0-1.044-.16-1.404-.48-.352-.328-.528-.832-.528-1.512v-4.356h1.068v4.356c0 .208.028.38.084.516a.886.886 0 0 0 .612.48c.144.032.3.048.468.048.464 0 .836-.104 1.116-.312.28-.208.52-.492.72-.852v-4.236h1.056V168h-.936l-.096-1.116h-.024Zm8.705-2.004c0 .552-.076 1.032-.228 1.44a3.01 3.01 0 0 1-.612 1.008 2.566 2.566 0 0 1-.888.6 2.941 2.941 0 0 1-1.056.192c-.48 0-.9-.112-1.26-.336a2.46 2.46 0 0 1-.84-.96l-.036 1.176h-.996v-8.604h1.056l-.024 3.588c.208-.408.488-.732.84-.972s.788-.36 1.308-.36c.36 0 .704.068 1.032.204.336.128.628.328.876.6.256.264.456.6.6 1.008.152.4.228.872.228 1.416Zm-2.94 2.292c.552 0 .996-.188 1.332-.564.344-.384.516-.96.516-1.728 0-.752-.172-1.32-.516-1.704-.336-.392-.78-.588-1.332-.588-.272 0-.528.048-.768.144a1.71 1.71 0 0 0-.612.432c-.168.184-.304.42-.408.708a3.191 3.191 0 0 0-.144 1.008c0 .384.048.72.144 1.008.104.288.24.528.408.72.176.192.38.336.612.432.24.088.496.132.768.132Zm7.172-4.584c-.48 0-.872.112-1.176.336a2.455 2.455 0 0 0-.72.84V168h-1.056v-6.228h.996l.036 1.116h.024c.168-.36.432-.656.792-.888.36-.232.816-.348 1.368-.348.616 0 1.104.164 1.464.492.368.32.552.816.552 1.488V168h-1.056v-4.26c0-.432-.108-.732-.324-.9-.216-.168-.516-.252-.9-.252Zm8.906 4.884a3.344 3.344 0 0 1-.324.204 3.758 3.758 0 0 1-.468.216 3.946 3.946 0 0 1-.624.156 3.864 3.864 0 0 1-.78.072c-1.048 0-1.844-.284-2.388-.852-.544-.568-.816-1.364-.816-2.388 0-.504.072-.956.216-1.356.152-.4.36-.736.624-1.008.264-.28.576-.492.936-.636.36-.152.752-.228 1.176-.228a3 3 0 0 1 1.2.228c.352.152.64.376.864.672.232.296.388.664.468 1.104.088.432.088.936 0 1.512h-4.392c.04.672.24 1.176.6 1.512.36.328.896.492 1.608.492.48 0 .892-.068 1.236-.204a4.33 4.33 0 0 0 .864-.444v.948Zm-2.472-4.884c-.456 0-.848.14-1.176.42-.328.28-.536.704-.624 1.272h3.348c.032-.576-.1-1-.396-1.272-.296-.28-.68-.42-1.152-.42Zm6.927 5.28a1.93 1.93 0 0 1-.492.18c-.2.048-.412.072-.636.072-.304 0-.564-.044-.78-.132a1.504 1.504 0 0 1-.516-.348 1.48 1.48 0 0 1-.3-.504 2.09 2.09 0 0 1-.084-.588v-3.876h-.744v-.9h.744v-1.308h1.056v1.308h1.812v.9h-1.812v3.744c0 .264.064.456.192.576.136.12.372.18.708.18.312 0 .596-.088.852-.264v.96Zm1.144-4.008h2.88v.96h-2.88v-.96Zm8.117 2.952a3.648 3.648 0 0 1-.276.456 2.088 2.088 0 0 1-1.02.732c-.224.08-.488.12-.792.12-.56 0-1.012-.156-1.356-.468-.344-.32-.516-.776-.516-1.368 0-.68.236-1.18.708-1.5.48-.32 1.16-.48 2.04-.48h1.164v-.516c0-.432-.112-.74-.336-.924-.224-.184-.608-.276-1.152-.276-.384 0-.748.064-1.092.192-.344.12-.652.26-.924.42v-.948c.224-.136.524-.268.9-.396a3.75 3.75 0 0 1 1.26-.204c.784 0 1.38.164 1.788.492.408.32.612.82.612 1.5v3.6c.008.088.012.18.012.276l.024.276c.008.08.016.148.024.204h-.96a5.482 5.482 0 0 1-.072-.468 7.173 7.173 0 0 1-.024-.54l-.012-.18Zm-1.86.36c.328 0 .608-.068.84-.204.232-.136.42-.292.564-.468.144-.184.248-.36.312-.528.064-.176.096-.3.096-.372v-.456h-1.056c-.632 0-1.092.092-1.38.276-.28.176-.42.444-.42.804 0 .28.084.508.252.684.168.176.432.264.792.264Z"/>
    <rect width="90" height="46" x="174" y="122" fill="#D6E1FF" rx="8"/>
    <path fill="#000" d="M210.845 133.396h1.68l3.084 8.604h-1.2l-.888-2.46h-3.804l-.876 2.46h-1.056l3.06-8.604Zm2.316 5.124-1.536-4.284-1.536 4.284h3.072Zm9.017 3.48h-5.316v-8.604h1.128v7.584h4.188V142Zm1.551-8.604h2.916c.944 0 1.66.16 2.148.48.496.32.744.86.744 1.62 0 .312-.044.584-.132.816-.08.224-.196.42-.348.588-.144.16-.324.292-.54.396a2.97 2.97 0 0 1-.696.24c.672.08 1.176.276 1.512.588.344.304.516.768.516 1.392 0 .448-.084.832-.252 1.152-.16.312-.384.568-.672.768a3.191 3.191 0 0 1-1.02.432c-.392.088-.82.132-1.284.132h-2.892v-8.604Zm1.128 1.032v2.64h1.704c.272 0 .52-.028.744-.084.224-.064.416-.156.576-.276.16-.128.284-.284.372-.468.096-.192.144-.42.144-.684 0-.44-.152-.736-.456-.888-.304-.16-.736-.24-1.296-.24h-1.788Zm0 3.66v2.892h1.764c.304 0 .58-.024.828-.072.248-.048.46-.128.636-.24a1.12 1.12 0 0 0 .42-.444c.104-.184.156-.412.156-.684 0-.544-.176-.92-.528-1.128-.344-.216-.892-.324-1.644-.324h-1.632Zm-15.158 18.032c-.392 0-.744-.028-1.056-.084a5.07 5.07 0 0 1-.828-.192 4.264 4.264 0 0 1-.6-.276 2.38 2.38 0 0 1-.384-.3v-1.08c.12.104.276.212.468.324.192.104.412.2.66.288.256.088.528.16.816.216.296.056.604.084.924.084.624 0 1.12-.116 1.488-.348.368-.24.552-.6.552-1.08 0-.24-.044-.436-.132-.588a1.07 1.07 0 0 0-.384-.396 2.236 2.236 0 0 0-.636-.276c-.248-.08-.54-.164-.876-.252a16.032 16.032 0 0 1-1.008-.3 3.714 3.714 0 0 1-.912-.444 2.247 2.247 0 0 1-.648-.696c-.16-.28-.24-.636-.24-1.068 0-.744.26-1.324.78-1.74.52-.416 1.316-.624 2.388-.624.312 0 .588.02.828.06.248.032.464.076.648.132.192.048.356.104.492.168.144.064.272.124.384.18v1.08a3.368 3.368 0 0 0-1.092-.456 5.19 5.19 0 0 0-1.26-.144c-.384 0-.708.032-.972.096-.256.056-.464.14-.624.252a.995.995 0 0 0-.348.408c-.072.16-.108.34-.108.54 0 .24.052.44.156.6.112.16.256.296.432.408.184.104.392.192.624.264.232.072.476.136.732.192.336.08.68.172 1.032.276.352.104.668.248.948.432.28.184.508.424.684.72.184.288.276.664.276 1.128 0 .456-.092.844-.276 1.164a2.247 2.247 0 0 1-.708.768 3 3 0 0 1-1.02.432 5.356 5.356 0 0 1-1.2.132Zm12.829-.12h-1.656l-1.896-6.648-1.908 6.648H215.4l-1.896-8.604h1.176l1.632 7.632 2.208-7.632h1.032l2.16 7.488 1.62-7.488h1.092L222.528 156Zm5.558.12c-.392 0-.744-.028-1.056-.084a5.07 5.07 0 0 1-.828-.192 4.264 4.264 0 0 1-.6-.276 2.38 2.38 0 0 1-.384-.3v-1.08c.12.104.276.212.468.324.192.104.412.2.66.288.256.088.528.16.816.216.296.056.604.084.924.084.624 0 1.12-.116 1.488-.348.368-.24.552-.6.552-1.08 0-.24-.044-.436-.132-.588a1.07 1.07 0 0 0-.384-.396 2.236 2.236 0 0 0-.636-.276c-.248-.08-.54-.164-.876-.252a16.032 16.032 0 0 1-1.008-.3 3.714 3.714 0 0 1-.912-.444 2.247 2.247 0 0 1-.648-.696c-.16-.28-.24-.636-.24-1.068 0-.744.26-1.324.78-1.74.52-.416 1.316-.624 2.388-.624.312 0 .588.02.828.06.248.032.464.076.648.132.192.048.356.104.492.168.144.064.272.124.384.18v1.08a3.368 3.368 0 0 0-1.092-.456 5.19 5.19 0 0 0-1.26-.144c-.384 0-.708.032-.972.096-.256.056-.464.14-.624.252a.995.995 0 0 0-.348.408c-.072.16-.108.34-.108.54 0 .24.052.44.156.6.112.16.256.296.432.408.184.104.392.192.624.264.232.072.476.136.732.192.336.08.68.172 1.032.276.352.104.668.248.948.432.28.184.508.424.684.72.184.288.276.664.276 1.128 0 .456-.092.844-.276 1.164a2.247 2.247 0 0 1-.708.768 3 3 0 0 1-1.02.432 5.356 5.356 0 0 1-1.2.132Z"/>
    <rect width="90" height="46" x="174" y="256" fill="#D6E1FF" rx="8"/>
    <path fill="#000" d="M210.845 267.396h1.68l3.084 8.604h-1.2l-.888-2.46h-3.804l-.876 2.46h-1.056l3.06-8.604Zm2.316 5.124-1.536-4.284-1.536 4.284h3.072Zm9.017 3.48h-5.316v-8.604h1.128v7.584h4.188V276Zm1.551-8.604h2.916c.944 0 1.66.16 2.148.48.496.32.744.86.744 1.62 0 .312-.044.584-.132.816-.08.224-.196.42-.348.588-.144.16-.324.292-.54.396a2.97 2.97 0 0 1-.696.24c.672.08 1.176.276 1.512.588.344.304.516.768.516 1.392 0 .448-.084.832-.252 1.152-.16.312-.384.568-.672.768a3.191 3.191 0 0 1-1.02.432c-.392.088-.82.132-1.284.132h-2.892v-8.604Zm1.128 1.032v2.64h1.704c.272 0 .52-.028.744-.084.224-.064.416-.156.576-.276.16-.128.284-.284.372-.468.096-.192.144-.42.144-.684 0-.44-.152-.736-.456-.888-.304-.16-.736-.24-1.296-.24h-1.788Zm0 3.66v2.892h1.764c.304 0 .58-.024.828-.072.248-.048.46-.128.636-.24a1.12 1.12 0 0 0 .42-.444c.104-.184.156-.412.156-.684 0-.544-.176-.92-.528-1.128-.344-.216-.892-.324-1.644-.324h-1.632Zm-15.158 18.032c-.392 0-.744-.028-1.056-.084a5.07 5.07 0 0 1-.828-.192 4.264 4.264 0 0 1-.6-.276 2.38 2.38 0 0 1-.384-.3v-1.08c.12.104.276.212.468.324.192.104.412.2.66.288.256.088.528.16.816.216.296.056.604.084.924.084.624 0 1.12-.116 1.488-.348.368-.24.552-.6.552-1.08 0-.24-.044-.436-.132-.588a1.07 1.07 0 0 0-.384-.396 2.236 2.236 0 0 0-.636-.276c-.248-.08-.54-.164-.876-.252a16.032 16.032 0 0 1-1.008-.3 3.714 3.714 0 0 1-.912-.444 2.247 2.247 0 0 1-.648-.696c-.16-.28-.24-.636-.24-1.068 0-.744.26-1.324.78-1.74.52-.416 1.316-.624 2.388-.624.312 0 .588.02.828.06.248.032.464.076.648.132.192.048.356.104.492.168.144.064.272.124.384.18v1.08a3.368 3.368 0 0 0-1.092-.456 5.19 5.19 0 0 0-1.26-.144c-.384 0-.708.032-.972.096-.256.056-.464.14-.624.252a.995.995 0 0 0-.348.408c-.072.16-.108.34-.108.54 0 .24.052.44.156.6.112.16.256.296.432.408.184.104.392.192.624.264.232.072.476.136.732.192.336.08.68.172 1.032.276.352.104.668.248.948.432.28.184.508.424.684.72.184.288.276.664.276 1.128 0 .456-.092.844-.276 1.164a2.247 2.247 0 0 1-.708.768 3 3 0 0 1-1.02.432 5.356 5.356 0 0 1-1.2.132Zm12.829-.12h-1.656l-1.896-6.648-1.908 6.648H215.4l-1.896-8.604h1.176l1.632 7.632 2.208-7.632h1.032l2.16 7.488 1.62-7.488h1.092L222.528 290Zm5.558.12c-.392 0-.744-.028-1.056-.084a5.07 5.07 0 0 1-.828-.192 4.264 4.264 0 0 1-.6-.276 2.38 2.38 0 0 1-.384-.3v-1.08c.12.104.276.212.468.324.192.104.412.2.66.288.256.088.528.16.816.216.296.056.604.084.924.084.624 0 1.12-.116 1.488-.348.368-.24.552-.6.552-1.08 0-.24-.044-.436-.132-.588a1.07 1.07 0 0 0-.384-.396 2.236 2.236 0 0 0-.636-.276c-.248-.08-.54-.164-.876-.252a16.032 16.032 0 0 1-1.008-.3 3.714 3.714 0 0 1-.912-.444 2.247 2.247 0 0 1-.648-.696c-.16-.28-.24-.636-.24-1.068 0-.744.26-1.324.78-1.74.52-.416 1.316-.624 2.388-.624.312 0 .588.02.828.06.248.032.464.076.648.132.192.048.356.104.492.168.144.064.272.124.384.18v1.08a3.368 3.368 0 0 0-1.092-.456 5.19 5.19 0 0 0-1.26-.144c-.384 0-.708.032-.972.096-.256.056-.464.14-.624.252a.995.995 0 0 0-.348.408c-.072.16-.108.34-.108.54 0 .24.052.44.156.6.112.16.256.296.432.408.184.104.392.192.624.264.232.072.476.136.732.192.336.08.68.172 1.032.276.352.104.668.248.948.432.28.184.508.424.684.72.184.288.276.664.276 1.128 0 .456-.092.844-.276 1.164a2.247 2.247 0 0 1-.708.768 3 3 0 0 1-1.02.432 5.356 5.356 0 0 1-1.2.132Z"/>
    <rect width="90" height="38" x="278" y="193" fill="#D6E1FF" rx="8"/>
    <path fill="#000" d="M292.696 214.812a3.648 3.648 0 0 1-.276.456 2.088 2.088 0 0 1-1.02.732c-.224.08-.488.12-.792.12-.56 0-1.012-.156-1.356-.468-.344-.32-.516-.776-.516-1.368 0-.68.236-1.18.708-1.5.48-.32 1.16-.48 2.04-.48h1.164v-.516c0-.432-.112-.74-.336-.924-.224-.184-.608-.276-1.152-.276-.384 0-.748.064-1.092.192-.344.12-.652.26-.924.42v-.948c.224-.136.524-.268.9-.396a3.75 3.75 0 0 1 1.26-.204c.784 0 1.38.164 1.788.492.408.32.612.82.612 1.5v3.6c.008.088.012.18.012.276l.024.276c.008.08.016.148.024.204h-.96a5.482 5.482 0 0 1-.072-.468 7.173 7.173 0 0 1-.024-.54l-.012-.18Zm-1.86.36c.328 0 .608-.068.84-.204.232-.136.42-.292.564-.468.144-.184.248-.36.312-.528.064-.176.096-.3.096-.372v-.456h-1.056c-.632 0-1.092.092-1.38.276-.28.176-.42.444-.42.804 0 .28.084.508.252.684.168.176.432.264.792.264Zm5.584-7.776V216h-1.056v-8.604h1.056Zm7.637 5.484c0 .552-.076 1.032-.228 1.44a3.01 3.01 0 0 1-.612 1.008 2.566 2.566 0 0 1-.888.6 2.941 2.941 0 0 1-1.056.192c-.48 0-.9-.112-1.26-.336a2.46 2.46 0 0 1-.84-.96l-.036 1.176h-.996v-8.604h1.056l-.024 3.588c.208-.408.488-.732.84-.972s.788-.36 1.308-.36c.36 0 .704.068 1.032.204.336.128.628.328.876.6.256.264.456.6.6 1.008.152.4.228.872.228 1.416Zm-2.94 2.292c.552 0 .996-.188 1.332-.564.344-.384.516-.96.516-1.728 0-.752-.172-1.32-.516-1.704-.336-.392-.78-.588-1.332-.588-.272 0-.528.048-.768.144a1.71 1.71 0 0 0-.612.432c-.168.184-.304.42-.408.708a3.191 3.191 0 0 0-.144 1.008c0 .384.048.72.144 1.008.104.288.24.528.408.72.176.192.38.336.612.432.24.088.496.132.768.132Zm4.193-3.312h2.88v.96h-2.88v-.96Zm6.46 4.26c-.328 0-.62-.028-.876-.084a4.113 4.113 0 0 1-.66-.18c-.184-.08-.34-.16-.468-.24a3.161 3.161 0 0 1-.3-.228v-.948c.08.08.188.168.324.264.136.088.3.172.492.252.192.08.408.148.648.204.248.048.524.072.828.072.448 0 .804-.072 1.068-.216.264-.144.396-.388.396-.732a.698.698 0 0 0-.132-.444.801.801 0 0 0-.336-.264 2.07 2.07 0 0 0-.504-.168c-.184-.04-.38-.08-.588-.12a22.265 22.265 0 0 1-.78-.18 2.73 2.73 0 0 1-.696-.3 1.633 1.633 0 0 1-.504-.516c-.128-.216-.192-.496-.192-.84 0-.56.216-1 .648-1.32.44-.32 1.052-.48 1.836-.48.44 0 .828.044 1.164.132.344.088.608.184.792.288v.948a2.824 2.824 0 0 0-.78-.336c-.304-.096-.684-.144-1.14-.144-.472 0-.836.064-1.092.192-.248.128-.372.36-.372.696 0 .168.036.304.108.408a.856.856 0 0 0 .288.24c.128.056.272.1.432.132.16.032.328.068.504.108.272.056.552.116.84.18.288.064.544.164.768.3.232.136.42.32.564.552.152.224.228.528.228.912 0 .36-.072.66-.216.9-.144.24-.336.432-.576.576-.232.136-.5.232-.804.288-.296.064-.6.096-.912.096Zm7.805-1.236a2.233 2.233 0 0 1-.78.888c-.344.232-.796.348-1.356.348-.576 0-1.044-.16-1.404-.48-.352-.328-.528-.832-.528-1.512v-4.356h1.068v4.356c0 .208.028.38.084.516a.886.886 0 0 0 .612.48c.144.032.3.048.468.048.464 0 .836-.104 1.116-.312.28-.208.52-.492.72-.852v-4.236h1.056V216h-.936l-.096-1.116h-.024Zm8.705-2.004c0 .552-.076 1.032-.228 1.44a3.01 3.01 0 0 1-.612 1.008 2.566 2.566 0 0 1-.888.6 2.941 2.941 0 0 1-1.056.192c-.48 0-.9-.112-1.26-.336a2.46 2.46 0 0 1-.84-.96L323.36 216h-.996v-8.604h1.056l-.024 3.588c.208-.408.488-.732.84-.972s.788-.36 1.308-.36c.36 0 .704.068 1.032.204.336.128.628.328.876.6.256.264.456.6.6 1.008.152.4.228.872.228 1.416Zm-2.94 2.292c.552 0 .996-.188 1.332-.564.344-.384.516-.96.516-1.728 0-.752-.172-1.32-.516-1.704-.336-.392-.78-.588-1.332-.588-.272 0-.528.048-.768.144a1.71 1.71 0 0 0-.612.432c-.168.184-.304.42-.408.708a3.191 3.191 0 0 0-.144 1.008c0 .384.048.72.144 1.008.104.288.24.528.408.72.176.192.38.336.612.432.24.088.496.132.768.132Zm7.171-4.584c-.48 0-.872.112-1.176.336a2.455 2.455 0 0 0-.72.84V216h-1.056v-6.228h.996l.036 1.116h.024c.168-.36.432-.656.792-.888.36-.232.816-.348 1.368-.348.616 0 1.104.164 1.464.492.368.32.552.816.552 1.488V216h-1.056v-4.26c0-.432-.108-.732-.324-.9-.216-.168-.516-.252-.9-.252Zm8.907 4.884a3.344 3.344 0 0 1-.324.204 3.758 3.758 0 0 1-.468.216 3.946 3.946 0 0 1-.624.156 3.864 3.864 0 0 1-.78.072c-1.048 0-1.844-.284-2.388-.852-.544-.568-.816-1.364-.816-2.388 0-.504.072-.956.216-1.356.152-.4.36-.736.624-1.008.264-.28.576-.492.936-.636.36-.152.752-.228 1.176-.228a3 3 0 0 1 1.2.228c.352.152.64.376.864.672.232.296.388.664.468 1.104.088.432.088.936 0 1.512h-4.392c.04.672.24 1.176.6 1.512.36.328.896.492 1.608.492.48 0 .892-.068 1.236-.204a4.33 4.33 0 0 0 .864-.444v.948Zm-2.472-4.884c-.456 0-.848.14-1.176.42-.328.28-.536.704-.624 1.272h3.348c.032-.576-.1-1-.396-1.272-.296-.28-.68-.42-1.152-.42Zm6.927 5.28a1.93 1.93 0 0 1-.492.18c-.2.048-.412.072-.636.072-.304 0-.564-.044-.78-.132a1.504 1.504 0 0 1-.516-.348 1.48 1.48 0 0 1-.3-.504 2.09 2.09 0 0 1-.084-.588v-3.876h-.744v-.9h.744v-1.308h1.056v1.308h1.812v.9h-1.812v3.744c0 .264.064.456.192.576.136.12.372.18.708.18.312 0 .596-.088.852-.264v.96Zm1.144-4.008h2.88v.96h-2.88v-.96Zm10.384 1.02c0 .552-.076 1.032-.228 1.44a3.01 3.01 0 0 1-.612 1.008 2.566 2.566 0 0 1-.888.6 2.941 2.941 0 0 1-1.056.192c-.48 0-.9-.112-1.26-.336a2.46 2.46 0 0 1-.84-.96l-.036 1.176h-.996v-8.604h1.056l-.024 3.588c.208-.408.488-.732.84-.972s.788-.36 1.308-.36c.36 0 .704.068 1.032.204.336.128.628.328.876.6.256.264.456.6.6 1.008.152.4.228.872.228 1.416Zm-2.94 2.292c.552 0 .996-.188 1.332-.564.344-.384.516-.96.516-1.728 0-.752-.172-1.32-.516-1.704-.336-.392-.78-.588-1.332-.588-.272 0-.528.048-.768.144a1.71 1.71 0 0 0-.612.432c-.168.184-.304.42-.408.708a3.191 3.191 0 0 0-.144 1.008c0 .384.048.72.144 1.008.104.288.24.528.408.72.176.192.38.336.612.432.24.088.496.132.768.132Z"/>
    <rect width="90" height="38" x="278" y="241" fill="#D6E1FF" rx="8"/>
    <path fill="#000" d="M292.637 262.812a3.648 3.648 0 0 1-.276.456 2.088 2.088 0 0 1-1.02.732c-.224.08-.488.12-.792.12-.56 0-1.012-.156-1.356-.468-.344-.32-.516-.776-.516-1.368 0-.68.236-1.18.708-1.5.48-.32 1.16-.48 2.04-.48h1.164v-.516c0-.432-.112-.74-.336-.924-.224-.184-.608-.276-1.152-.276-.384 0-.748.064-1.092.192-.344.12-.652.26-.924.42v-.948c.224-.136.524-.268.9-.396a3.75 3.75 0 0 1 1.26-.204c.784 0 1.38.164 1.788.492.408.32.612.82.612 1.5v3.6c.008.088.012.18.012.276l.024.276c.008.08.016.148.024.204h-.96a5.482 5.482 0 0 1-.072-.468 7.173 7.173 0 0 1-.024-.54l-.012-.18Zm-1.86.36c.328 0 .608-.068.84-.204.232-.136.42-.292.564-.468.144-.184.248-.36.312-.528.064-.176.096-.3.096-.372v-.456h-1.056c-.632 0-1.092.092-1.38.276-.28.176-.42.444-.42.804 0 .28.084.508.252.684.168.176.432.264.792.264Zm5.584-7.776V264h-1.056v-8.604h1.056Zm7.638 5.484c0 .552-.076 1.032-.228 1.44a3.01 3.01 0 0 1-.612 1.008 2.566 2.566 0 0 1-.888.6 2.941 2.941 0 0 1-1.056.192c-.48 0-.9-.112-1.26-.336a2.46 2.46 0 0 1-.84-.96l-.036 1.176h-.996v-8.604h1.056l-.024 3.588c.208-.408.488-.732.84-.972s.788-.36 1.308-.36c.36 0 .704.068 1.032.204.336.128.628.328.876.6.256.264.456.6.6 1.008.152.4.228.872.228 1.416Zm-2.94 2.292c.552 0 .996-.188 1.332-.564.344-.384.516-.96.516-1.728 0-.752-.172-1.32-.516-1.704-.336-.392-.78-.588-1.332-.588-.272 0-.528.048-.768.144a1.71 1.71 0 0 0-.612.432c-.168.184-.304.42-.408.708a3.191 3.191 0 0 0-.144 1.008c0 .384.048.72.144 1.008.104.288.24.528.408.72.176.192.38.336.612.432.24.088.496.132.768.132Zm4.192-3.312h2.88v.96h-2.88v-.96Zm6.46 4.26c-.328 0-.62-.028-.876-.084a4.113 4.113 0 0 1-.66-.18c-.184-.08-.34-.16-.468-.24a3.161 3.161 0 0 1-.3-.228v-.948c.08.08.188.168.324.264.136.088.3.172.492.252.192.08.408.148.648.204.248.048.524.072.828.072.448 0 .804-.072 1.068-.216.264-.144.396-.388.396-.732a.698.698 0 0 0-.132-.444.801.801 0 0 0-.336-.264 2.07 2.07 0 0 0-.504-.168c-.184-.04-.38-.08-.588-.12a22.265 22.265 0 0 1-.78-.18 2.73 2.73 0 0 1-.696-.3 1.633 1.633 0 0 1-.504-.516c-.128-.216-.192-.496-.192-.84 0-.56.216-1 .648-1.32.44-.32 1.052-.48 1.836-.48.44 0 .828.044 1.164.132.344.088.608.184.792.288v.948a2.824 2.824 0 0 0-.78-.336c-.304-.096-.684-.144-1.14-.144-.472 0-.836.064-1.092.192-.248.128-.372.36-.372.696 0 .168.036.304.108.408a.856.856 0 0 0 .288.24c.128.056.272.1.432.132.16.032.328.068.504.108.272.056.552.116.84.18.288.064.544.164.768.3.232.136.42.32.564.552.152.224.228.528.228.912 0 .36-.072.66-.216.9-.144.24-.336.432-.576.576-.232.136-.5.232-.804.288-.296.064-.6.096-.912.096Zm7.805-1.236a2.233 2.233 0 0 1-.78.888c-.344.232-.796.348-1.356.348-.576 0-1.044-.16-1.404-.48-.352-.328-.528-.832-.528-1.512v-4.356h1.068v4.356c0 .208.028.38.084.516a.886.886 0 0 0 .612.48c.144.032.3.048.468.048.464 0 .836-.104 1.116-.312.28-.208.52-.492.72-.852v-4.236h1.056V264h-.936l-.096-1.116h-.024Zm8.705-2.004c0 .552-.076 1.032-.228 1.44a3.01 3.01 0 0 1-.612 1.008 2.566 2.566 0 0 1-.888.6 2.941 2.941 0 0 1-1.056.192c-.48 0-.9-.112-1.26-.336a2.46 2.46 0 0 1-.84-.96l-.036 1.176h-.996v-8.604h1.056l-.024 3.588c.208-.408.488-.732.84-.972s.788-.36 1.308-.36c.36 0 .704.068 1.032.204.336.128.628.328.876.6.256.264.456.6.6 1.008.152.4.228.872.228 1.416Zm-2.94 2.292c.552 0 .996-.188 1.332-.564.344-.384.516-.96.516-1.728 0-.752-.172-1.32-.516-1.704-.336-.392-.78-.588-1.332-.588-.272 0-.528.048-.768.144a1.71 1.71 0 0 0-.612.432c-.168.184-.304.42-.408.708a3.191 3.191 0 0 0-.144 1.008c0 .384.048.72.144 1.008.104.288.24.528.408.72.176.192.38.336.612.432.24.088.496.132.768.132Zm7.172-4.584c-.48 0-.872.112-1.176.336a2.455 2.455 0 0 0-.72.84V264h-1.056v-6.228h.996l.036 1.116h.024c.168-.36.432-.656.792-.888.36-.232.816-.348 1.368-.348.616 0 1.104.164 1.464.492.368.32.552.816.552 1.488V264h-1.056v-4.26c0-.432-.108-.732-.324-.9-.216-.168-.516-.252-.9-.252Zm8.906 4.884a3.344 3.344 0 0 1-.324.204 3.758 3.758 0 0 1-.468.216 3.946 3.946 0 0 1-.624.156 3.864 3.864 0 0 1-.78.072c-1.048 0-1.844-.284-2.388-.852-.544-.568-.816-1.364-.816-2.388 0-.504.072-.956.216-1.356.152-.4.36-.736.624-1.008.264-.28.576-.492.936-.636.36-.152.752-.228 1.176-.228a3 3 0 0 1 1.2.228c.352.152.64.376.864.672.232.296.388.664.468 1.104.088.432.088.936 0 1.512h-4.392c.04.672.24 1.176.6 1.512.36.328.896.492 1.608.492.48 0 .892-.068 1.236-.204a4.33 4.33 0 0 0 .864-.444v.948Zm-2.472-4.884c-.456 0-.848.14-1.176.42-.328.28-.536.704-.624 1.272h3.348c.032-.576-.1-1-.396-1.272-.296-.28-.68-.42-1.152-.42Zm6.927 5.28a1.93 1.93 0 0 1-.492.18c-.2.048-.412.072-.636.072-.304 0-.564-.044-.78-.132a1.504 1.504 0 0 1-.516-.348 1.48 1.48 0 0 1-.3-.504 2.09 2.09 0 0 1-.084-.588v-3.876h-.744v-.9h.744v-1.308h1.056v1.308h1.812v.9h-1.812v3.744c0 .264.064.456.192.576.136.12.372.18.708.18.312 0 .596-.088.852-.264v.96Zm1.144-4.008h2.88v.96h-2.88v-.96Zm9.05 2.916c-.192.408-.46.736-.804.984-.344.24-.78.36-1.308.36-.376 0-.732-.064-1.068-.192a2.566 2.566 0 0 1-.888-.6 3.01 3.01 0 0 1-.612-1.008c-.152-.408-.228-.888-.228-1.44 0-.544.076-1.016.228-1.416.152-.408.356-.744.612-1.008.256-.272.552-.472.888-.6a2.911 2.911 0 0 1 1.08-.204c.472 0 .88.1 1.224.3.344.192.62.468.828.828v-3.384h1.056V264h-.924l-.084-1.224Zm-1.956.396c.272 0 .524-.044.756-.132.232-.096.432-.24.6-.432.176-.192.312-.432.408-.72.104-.288.156-.624.156-1.008s-.052-.72-.156-1.008a1.971 1.971 0 0 0-.408-.72 1.49 1.49 0 0 0-.6-.42 1.958 1.958 0 0 0-.756-.144c-.552 0-1.004.196-1.356.588-.344.384-.516.952-.516 1.704 0 .76.176 1.332.528 1.716.352.384.8.576 1.344.576Z"/>
    <rect width="80" height="38" x="111" y="126" fill="#FFF2BF" rx="10"/>
    <path fill="#000" d="M129.098 133.396h2.748c.976 0 1.732.204 2.268.612.544.4.816 1.028.816 1.884 0 .488-.08.908-.24 1.26a2.22 2.22 0 0 1-.648.852c-.28.224-.616.388-1.008.492a4.91 4.91 0 0 1-1.284.156h-1.524V142h-1.128v-8.604Zm1.128 1.032v3.204h1.524c.304 0 .58-.032.828-.096s.46-.164.636-.3a1.3 1.3 0 0 0 .42-.528c.104-.224.156-.492.156-.804 0-.52-.168-.896-.504-1.128-.336-.232-.816-.348-1.44-.348h-1.62Zm10.048 6.456a2.233 2.233 0 0 1-.78.888c-.344.232-.796.348-1.356.348-.576 0-1.044-.16-1.404-.48-.352-.328-.528-.832-.528-1.512v-4.356h1.068v4.356c0 .208.028.38.084.516a.886.886 0 0 0 .612.48c.144.032.3.048.468.048.464 0 .836-.104 1.116-.312.28-.208.52-.492.72-.852v-4.236h1.056V142h-.936l-.096-1.116h-.024Zm8.705-2.004c0 .552-.076 1.032-.228 1.44a3.01 3.01 0 0 1-.612 1.008 2.566 2.566 0 0 1-.888.6 2.941 2.941 0 0 1-1.056.192c-.48 0-.9-.112-1.26-.336a2.46 2.46 0 0 1-.84-.96l-.036 1.176h-.996v-8.604h1.056l-.024 3.588c.208-.408.488-.732.84-.972s.788-.36 1.308-.36c.36 0 .704.068 1.032.204.336.128.628.328.876.6.256.264.456.6.6 1.008.152.4.228.872.228 1.416Zm-2.94 2.292c.552 0 .996-.188 1.332-.564.344-.384.516-.96.516-1.728 0-.752-.172-1.32-.516-1.704-.336-.392-.78-.588-1.332-.588-.272 0-.528.048-.768.144a1.71 1.71 0 0 0-.612.432c-.168.184-.304.42-.408.708a3.191 3.191 0 0 0-.144 1.008c0 .384.048.72.144 1.008.104.288.24.528.408.72.176.192.38.336.612.432.24.088.496.132.768.132Zm5.275-7.776V142h-1.056v-8.604h1.056Zm2.262 1.464c-.216 0-.388-.064-.516-.192a.692.692 0 0 1-.192-.492.675.675 0 0 1 .708-.696c.208 0 .372.068.492.204.12.136.18.3.18.492s-.06.356-.18.492c-.12.128-.284.192-.492.192Zm.516.912V142h-1.056v-6.228h1.056Zm4.409 6.348a3.77 3.77 0 0 1-1.308-.216 2.861 2.861 0 0 1-.984-.636c-.272-.28-.48-.62-.624-1.02a4.024 4.024 0 0 1-.216-1.368c0-.504.072-.956.216-1.356.152-.4.364-.736.636-1.008a2.63 2.63 0 0 1 .996-.636 3.662 3.662 0 0 1 1.332-.228c.384 0 .736.044 1.056.132.32.08.584.2.792.36v.948a2.798 2.798 0 0 0-.864-.372 3.563 3.563 0 0 0-.972-.132c-.728 0-1.264.188-1.608.564-.336.376-.504.952-.504 1.728s.164 1.352.492 1.728c.328.376.848.564 1.56.564.376 0 .72-.044 1.032-.132.32-.096.608-.216.864-.36v.948a3.678 3.678 0 0 1-1.896.492Zm7.092-8.724V142h-1.128v-8.604h1.128Zm2.001 0h2.748c.976 0 1.732.204 2.268.612.544.4.816 1.028.816 1.884 0 .488-.08.908-.24 1.26a2.22 2.22 0 0 1-.648.852c-.28.224-.616.388-1.008.492a4.91 4.91 0 0 1-1.284.156h-1.524V142h-1.128v-8.604Zm1.128 1.032v3.204h1.524c.304 0 .58-.032.828-.096s.46-.164.636-.3a1.3 1.3 0 0 0 .42-.528c.104-.224.156-.492.156-.804 0-.52-.168-.896-.504-1.128-.336-.232-.816-.348-1.44-.348h-1.62Zm-34.644 20.384a3.648 3.648 0 0 1-.276.456 2.088 2.088 0 0 1-1.02.732c-.224.08-.488.12-.792.12-.56 0-1.012-.156-1.356-.468-.344-.32-.516-.776-.516-1.368 0-.68.236-1.18.708-1.5.48-.32 1.16-.48 2.04-.48h1.164v-.516c0-.432-.112-.74-.336-.924-.224-.184-.608-.276-1.152-.276-.384 0-.748.064-1.092.192-.344.12-.652.26-.924.42v-.948c.224-.136.524-.268.9-.396a3.75 3.75 0 0 1 1.26-.204c.784 0 1.38.164 1.788.492.408.32.612.82.612 1.5v3.6c.008.088.012.18.012.276l.024.276c.008.08.016.148.024.204h-.96a5.482 5.482 0 0 1-.072-.468 7.173 7.173 0 0 1-.024-.54l-.012-.18Zm-1.86.36c.328 0 .608-.068.84-.204.232-.136.42-.292.564-.468.144-.184.248-.36.312-.528.064-.176.096-.3.096-.372v-.456h-1.056c-.632 0-1.092.092-1.38.276-.28.176-.42.444-.42.804 0 .28.084.508.252.684.168.176.432.264.792.264Zm8.993-.396c-.192.408-.46.736-.804.984-.344.24-.78.36-1.308.36-.376 0-.732-.064-1.068-.192a2.566 2.566 0 0 1-.888-.6 3.01 3.01 0 0 1-.612-1.008c-.152-.408-.228-.888-.228-1.44 0-.544.076-1.016.228-1.416.152-.408.356-.744.612-1.008.256-.272.552-.472.888-.6a2.911 2.911 0 0 1 1.08-.204c.472 0 .88.1 1.224.3.344.192.62.468.828.828v-3.384h1.056V156h-.924l-.084-1.224Zm-1.956.396c.272 0 .524-.044.756-.132.232-.096.432-.24.6-.432.176-.192.312-.432.408-.72.104-.288.156-.624.156-1.008s-.052-.72-.156-1.008a1.971 1.971 0 0 0-.408-.72 1.49 1.49 0 0 0-.6-.42 1.958 1.958 0 0 0-.756-.144c-.552 0-1.004.196-1.356.588-.344.384-.516.952-.516 1.704 0 .76.176 1.332.528 1.716.352.384.8.576 1.344.576Zm9.151-.396c-.192.408-.46.736-.804.984-.344.24-.78.36-1.308.36-.376 0-.732-.064-1.068-.192a2.566 2.566 0 0 1-.888-.6 3.01 3.01 0 0 1-.612-1.008c-.152-.408-.228-.888-.228-1.44 0-.544.076-1.016.228-1.416.152-.408.356-.744.612-1.008.256-.272.552-.472.888-.6a2.911 2.911 0 0 1 1.08-.204c.472 0 .88.1 1.224.3.344.192.62.468.828.828v-3.384h1.056V156h-.924l-.084-1.224Zm-1.956.396c.272 0 .524-.044.756-.132.232-.096.432-.24.6-.432.176-.192.312-.432.408-.72.104-.288.156-.624.156-1.008s-.052-.72-.156-1.008a1.971 1.971 0 0 0-.408-.72 1.49 1.49 0 0 0-.6-.42 1.958 1.958 0 0 0-.756-.144c-.552 0-1.004.196-1.356.588-.344.384-.516.952-.516 1.704 0 .76.176 1.332.528 1.716.352.384.8.576 1.344.576Zm7.771-4.344c-.448.04-.856.156-1.224.348-.36.184-.628.472-.804.864V156h-1.056v-6.228h.924l.108 1.356h.024c.176-.368.428-.688.756-.96.336-.28.76-.452 1.272-.516v1.176Zm6.068 4.644a3.344 3.344 0 0 1-.324.204 3.758 3.758 0 0 1-.468.216 3.946 3.946 0 0 1-.624.156 3.864 3.864 0 0 1-.78.072c-1.048 0-1.844-.284-2.388-.852-.544-.568-.816-1.364-.816-2.388 0-.504.072-.956.216-1.356.152-.4.36-.736.624-1.008.264-.28.576-.492.936-.636.36-.152.752-.228 1.176-.228a3 3 0 0 1 1.2.228c.352.152.64.376.864.672.232.296.388.664.468 1.104.088.432.088.936 0 1.512h-4.392c.04.672.24 1.176.6 1.512.36.328.896.492 1.608.492.48 0 .892-.068 1.236-.204a4.33 4.33 0 0 0 .864-.444v.948Zm-2.472-4.884c-.456 0-.848.14-1.176.42-.328.28-.536.704-.624 1.272h3.348c.032-.576-.1-1-.396-1.272-.296-.28-.68-.42-1.152-.42Zm5.871 5.532c-.328 0-.62-.028-.876-.084a4.113 4.113 0 0 1-.66-.18c-.184-.08-.34-.16-.468-.24a3.161 3.161 0 0 1-.3-.228v-.948c.08.08.188.168.324.264.136.088.3.172.492.252.192.08.408.148.648.204.248.048.524.072.828.072.448 0 .804-.072 1.068-.216.264-.144.396-.388.396-.732a.698.698 0 0 0-.132-.444.801.801 0 0 0-.336-.264 2.07 2.07 0 0 0-.504-.168c-.184-.04-.38-.08-.588-.12a22.265 22.265 0 0 1-.78-.18 2.73 2.73 0 0 1-.696-.3 1.633 1.633 0 0 1-.504-.516c-.128-.216-.192-.496-.192-.84 0-.56.216-1 .648-1.32.44-.32 1.052-.48 1.836-.48.44 0 .828.044 1.164.132.344.088.608.184.792.288v.948a2.824 2.824 0 0 0-.78-.336c-.304-.096-.684-.144-1.14-.144-.472 0-.836.064-1.092.192-.248.128-.372.36-.372.696 0 .168.036.304.108.408a.856.856 0 0 0 .288.24c.128.056.272.1.432.132.16.032.328.068.504.108.272.056.552.116.84.18.288.064.544.164.768.3.232.136.42.32.564.552.152.224.228.528.228.912 0 .36-.072.66-.216.9-.144.24-.336.432-.576.576-.232.136-.5.232-.804.288-.296.064-.6.096-.912.096Zm5.801 0c-.328 0-.62-.028-.876-.084a4.113 4.113 0 0 1-.66-.18c-.184-.08-.34-.16-.468-.24a3.161 3.161 0 0 1-.3-.228v-.948c.08.08.188.168.324.264.136.088.3.172.492.252.192.08.408.148.648.204.248.048.524.072.828.072.448 0 .804-.072 1.068-.216.264-.144.396-.388.396-.732a.698.698 0 0 0-.132-.444.801.801 0 0 0-.336-.264 2.07 2.07 0 0 0-.504-.168c-.184-.04-.38-.08-.588-.12a22.265 22.265 0 0 1-.78-.18 2.73 2.73 0 0 1-.696-.3 1.633 1.633 0 0 1-.504-.516c-.128-.216-.192-.496-.192-.84 0-.56.216-1 .648-1.32.44-.32 1.052-.48 1.836-.48.44 0 .828.044 1.164.132.344.088.608.184.792.288v.948a2.824 2.824 0 0 0-.78-.336c-.304-.096-.684-.144-1.14-.144-.472 0-.836.064-1.092.192-.248.128-.372.36-.372.696 0 .168.036.304.108.408a.856.856 0 0 0 .288.24c.128.056.272.1.432.132.16.032.328.068.504.108.272.056.552.116.84.18.288.064.544.164.768.3.232.136.42.32.564.552.152.224.228.528.228.912 0 .36-.072.66-.216.9-.144.24-.336.432-.576.576-.232.136-.5.232-.804.288-.296.064-.6.096-.912.096Z"/>
    <rect width="80" height="38" x="111" y="260" fill="#FFF2BF" rx="10"/>
    <path fill="#000" d="M129.098 267.396h2.748c.976 0 1.732.204 2.268.612.544.4.816 1.028.816 1.884 0 .488-.08.908-.24 1.26a2.22 2.22 0 0 1-.648.852c-.28.224-.616.388-1.008.492a4.91 4.91 0 0 1-1.284.156h-1.524V276h-1.128v-8.604Zm1.128 1.032v3.204h1.524c.304 0 .58-.032.828-.096s.46-.164.636-.3a1.3 1.3 0 0 0 .42-.528c.104-.224.156-.492.156-.804 0-.52-.168-.896-.504-1.128-.336-.232-.816-.348-1.44-.348h-1.62Zm10.048 6.456a2.233 2.233 0 0 1-.78.888c-.344.232-.796.348-1.356.348-.576 0-1.044-.16-1.404-.48-.352-.328-.528-.832-.528-1.512v-4.356h1.068v4.356c0 .208.028.38.084.516a.886.886 0 0 0 .612.48c.144.032.3.048.468.048.464 0 .836-.104 1.116-.312.28-.208.52-.492.72-.852v-4.236h1.056V276h-.936l-.096-1.116h-.024Zm8.705-2.004c0 .552-.076 1.032-.228 1.44a3.01 3.01 0 0 1-.612 1.008 2.566 2.566 0 0 1-.888.6 2.941 2.941 0 0 1-1.056.192c-.48 0-.9-.112-1.26-.336a2.46 2.46 0 0 1-.84-.96l-.036 1.176h-.996v-8.604h1.056l-.024 3.588c.208-.408.488-.732.84-.972s.788-.36 1.308-.36c.36 0 .704.068 1.032.204.336.128.628.328.876.6.256.264.456.6.6 1.008.152.4.228.872.228 1.416Zm-2.94 2.292c.552 0 .996-.188 1.332-.564.344-.384.516-.96.516-1.728 0-.752-.172-1.32-.516-1.704-.336-.392-.78-.588-1.332-.588-.272 0-.528.048-.768.144a1.71 1.71 0 0 0-.612.432c-.168.184-.304.42-.408.708a3.191 3.191 0 0 0-.144 1.008c0 .384.048.72.144 1.008.104.288.24.528.408.72.176.192.38.336.612.432.24.088.496.132.768.132Zm5.275-7.776V276h-1.056v-8.604h1.056Zm2.262 1.464c-.216 0-.388-.064-.516-.192a.692.692 0 0 1-.192-.492.675.675 0 0 1 .708-.696c.208 0 .372.068.492.204.12.136.18.3.18.492s-.06.356-.18.492c-.12.128-.284.192-.492.192Zm.516.912V276h-1.056v-6.228h1.056Zm4.409 6.348a3.77 3.77 0 0 1-1.308-.216 2.861 2.861 0 0 1-.984-.636c-.272-.28-.48-.62-.624-1.02a4.024 4.024 0 0 1-.216-1.368c0-.504.072-.956.216-1.356.152-.4.364-.736.636-1.008a2.63 2.63 0 0 1 .996-.636 3.662 3.662 0 0 1 1.332-.228c.384 0 .736.044 1.056.132.32.08.584.2.792.36v.948a2.798 2.798 0 0 0-.864-.372 3.563 3.563 0 0 0-.972-.132c-.728 0-1.264.188-1.608.564-.336.376-.504.952-.504 1.728s.164 1.352.492 1.728c.328.376.848.564 1.56.564.376 0 .72-.044 1.032-.132.32-.096.608-.216.864-.36v.948a3.678 3.678 0 0 1-1.896.492Zm7.092-8.724V276h-1.128v-8.604h1.128Zm2.001 0h2.748c.976 0 1.732.204 2.268.612.544.4.816 1.028.816 1.884 0 .488-.08.908-.24 1.26a2.22 2.22 0 0 1-.648.852c-.28.224-.616.388-1.008.492a4.91 4.91 0 0 1-1.284.156h-1.524V276h-1.128v-8.604Zm1.128 1.032v3.204h1.524c.304 0 .58-.032.828-.096s.46-.164.636-.3a1.3 1.3 0 0 0 .42-.528c.104-.224.156-.492.156-.804 0-.52-.168-.896-.504-1.128-.336-.232-.816-.348-1.44-.348h-1.62Zm-34.644 20.384a3.648 3.648 0 0 1-.276.456 2.088 2.088 0 0 1-1.02.732c-.224.08-.488.12-.792.12-.56 0-1.012-.156-1.356-.468-.344-.32-.516-.776-.516-1.368 0-.68.236-1.18.708-1.5.48-.32 1.16-.48 2.04-.48h1.164v-.516c0-.432-.112-.74-.336-.924-.224-.184-.608-.276-1.152-.276-.384 0-.748.064-1.092.192-.344.12-.652.26-.924.42v-.948c.224-.136.524-.268.9-.396a3.75 3.75 0 0 1 1.26-.204c.784 0 1.38.164 1.788.492.408.32.612.82.612 1.5v3.6c.008.088.012.18.012.276l.024.276c.008.08.016.148.024.204h-.96a5.482 5.482 0 0 1-.072-.468 7.173 7.173 0 0 1-.024-.54l-.012-.18Zm-1.86.36c.328 0 .608-.068.84-.204.232-.136.42-.292.564-.468.144-.184.248-.36.312-.528.064-.176.096-.3.096-.372v-.456h-1.056c-.632 0-1.092.092-1.38.276-.28.176-.42.444-.42.804 0 .28.084.508.252.684.168.176.432.264.792.264Zm8.993-.396c-.192.408-.46.736-.804.984-.344.24-.78.36-1.308.36-.376 0-.732-.064-1.068-.192a2.566 2.566 0 0 1-.888-.6 3.01 3.01 0 0 1-.612-1.008c-.152-.408-.228-.888-.228-1.44 0-.544.076-1.016.228-1.416.152-.408.356-.744.612-1.008.256-.272.552-.472.888-.6a2.911 2.911 0 0 1 1.08-.204c.472 0 .88.1 1.224.3.344.192.62.468.828.828v-3.384h1.056V290h-.924l-.084-1.224Zm-1.956.396c.272 0 .524-.044.756-.132.232-.096.432-.24.6-.432.176-.192.312-.432.408-.72.104-.288.156-.624.156-1.008s-.052-.72-.156-1.008a1.971 1.971 0 0 0-.408-.72 1.49 1.49 0 0 0-.6-.42 1.958 1.958 0 0 0-.756-.144c-.552 0-1.004.196-1.356.588-.344.384-.516.952-.516 1.704 0 .76.176 1.332.528 1.716.352.384.8.576 1.344.576Zm9.151-.396c-.192.408-.46.736-.804.984-.344.24-.78.36-1.308.36-.376 0-.732-.064-1.068-.192a2.566 2.566 0 0 1-.888-.6 3.01 3.01 0 0 1-.612-1.008c-.152-.408-.228-.888-.228-1.44 0-.544.076-1.016.228-1.416.152-.408.356-.744.612-1.008.256-.272.552-.472.888-.6a2.911 2.911 0 0 1 1.08-.204c.472 0 .88.1 1.224.3.344.192.62.468.828.828v-3.384h1.056V290h-.924l-.084-1.224Zm-1.956.396c.272 0 .524-.044.756-.132.232-.096.432-.24.6-.432.176-.192.312-.432.408-.72.104-.288.156-.624.156-1.008s-.052-.72-.156-1.008a1.971 1.971 0 0 0-.408-.72 1.49 1.49 0 0 0-.6-.42 1.958 1.958 0 0 0-.756-.144c-.552 0-1.004.196-1.356.588-.344.384-.516.952-.516 1.704 0 .76.176 1.332.528 1.716.352.384.8.576 1.344.576Zm7.771-4.344c-.448.04-.856.156-1.224.348-.36.184-.628.472-.804.864V290h-1.056v-6.228h.924l.108 1.356h.024c.176-.368.428-.688.756-.96.336-.28.76-.452 1.272-.516v1.176Zm6.068 4.644a3.344 3.344 0 0 1-.324.204 3.758 3.758 0 0 1-.468.216 3.946 3.946 0 0 1-.624.156 3.864 3.864 0 0 1-.78.072c-1.048 0-1.844-.284-2.388-.852-.544-.568-.816-1.364-.816-2.388 0-.504.072-.956.216-1.356.152-.4.36-.736.624-1.008.264-.28.576-.492.936-.636.36-.152.752-.228 1.176-.228a3 3 0 0 1 1.2.228c.352.152.64.376.864.672.232.296.388.664.468 1.104.088.432.088.936 0 1.512h-4.392c.04.672.24 1.176.6 1.512.36.328.896.492 1.608.492.48 0 .892-.068 1.236-.204a4.33 4.33 0 0 0 .864-.444v.948Zm-2.472-4.884c-.456 0-.848.14-1.176.42-.328.28-.536.704-.624 1.272h3.348c.032-.576-.1-1-.396-1.272-.296-.28-.68-.42-1.152-.42Zm5.871 5.532c-.328 0-.62-.028-.876-.084a4.113 4.113 0 0 1-.66-.18c-.184-.08-.34-.16-.468-.24a3.161 3.161 0 0 1-.3-.228v-.948c.08.08.188.168.324.264.136.088.3.172.492.252.192.08.408.148.648.204.248.048.524.072.828.072.448 0 .804-.072 1.068-.216.264-.144.396-.388.396-.732a.698.698 0 0 0-.132-.444.801.801 0 0 0-.336-.264 2.07 2.07 0 0 0-.504-.168c-.184-.04-.38-.08-.588-.12a22.265 22.265 0 0 1-.78-.18 2.73 2.73 0 0 1-.696-.3 1.633 1.633 0 0 1-.504-.516c-.128-.216-.192-.496-.192-.84 0-.56.216-1 .648-1.32.44-.32 1.052-.48 1.836-.48.44 0 .828.044 1.164.132.344.088.608.184.792.288v.948a2.824 2.824 0 0 0-.78-.336c-.304-.096-.684-.144-1.14-.144-.472 0-.836.064-1.092.192-.248.128-.372.36-.372.696 0 .168.036.304.108.408a.856.856 0 0 0 .288.24c.128.056.272.1.432.132.16.032.328.068.504.108.272.056.552.116.84.18.288.064.544.164.768.3.232.136.42.32.564.552.152.224.228.528.228.912 0 .36-.072.66-.216.9-.144.24-.336.432-.576.576-.232.136-.5.232-.804.288-.296.064-.6.096-.912.096Zm5.801 0c-.328 0-.62-.028-.876-.084a4.113 4.113 0 0 1-.66-.18c-.184-.08-.34-.16-.468-.24a3.161 3.161 0 0 1-.3-.228v-.948c.08.08.188.168.324.264.136.088.3.172.492.252.192.08.408.148.648.204.248.048.524.072.828.072.448 0 .804-.072 1.068-.216.264-.144.396-.388.396-.732a.698.698 0 0 0-.132-.444.801.801 0 0 0-.336-.264 2.07 2.07 0 0 0-.504-.168c-.184-.04-.38-.08-.588-.12a22.265 22.265 0 0 1-.78-.18 2.73 2.73 0 0 1-.696-.3 1.633 1.633 0 0 1-.504-.516c-.128-.216-.192-.496-.192-.84 0-.56.216-1 .648-1.32.44-.32 1.052-.48 1.836-.48.44 0 .828.044 1.164.132.344.088.608.184.792.288v.948a2.824 2.824 0 0 0-.78-.336c-.304-.096-.684-.144-1.14-.144-.472 0-.836.064-1.092.192-.248.128-.372.36-.372.696 0 .168.036.304.108.408a.856.856 0 0 0 .288.24c.128.056.272.1.432.132.16.032.328.068.504.108.272.056.552.116.84.18.288.064.544.164.768.3.232.136.42.32.564.552.152.224.228.528.228.912 0 .36-.072.66-.216.9-.144.24-.336.432-.576.576-.232.136-.5.232-.804.288-.296.064-.6.096-.912.096Z"/>
    <rect width="90" height="38" x="574" y="127" fill="#D6E1FF" rx="8"/>
    <path fill="#000" d="M582.698 150.12c-.328 0-.62-.028-.876-.084a4.113 4.113 0 0 1-.66-.18c-.184-.08-.34-.16-.468-.24a3.161 3.161 0 0 1-.3-.228v-.948c.08.08.188.168.324.264.136.088.3.172.492.252.192.08.408.148.648.204.248.048.524.072.828.072.448 0 .804-.072 1.068-.216.264-.144.396-.388.396-.732a.698.698 0 0 0-.132-.444.801.801 0 0 0-.336-.264 2.07 2.07 0 0 0-.504-.168c-.184-.04-.38-.08-.588-.12a22.265 22.265 0 0 1-.78-.18 2.73 2.73 0 0 1-.696-.3 1.633 1.633 0 0 1-.504-.516c-.128-.216-.192-.496-.192-.84 0-.56.216-1 .648-1.32.44-.32 1.052-.48 1.836-.48.44 0 .828.044 1.164.132.344.088.608.184.792.288v.948a2.824 2.824 0 0 0-.78-.336c-.304-.096-.684-.144-1.14-.144-.472 0-.836.064-1.092.192-.248.128-.372.36-.372.696 0 .168.036.304.108.408a.856.856 0 0 0 .288.24c.128.056.272.1.432.132.16.032.328.068.504.108.272.056.552.116.84.18.288.064.544.164.768.3.232.136.42.32.564.552.152.224.228.528.228.912 0 .36-.072.66-.216.9-.144.24-.336.432-.576.576-.232.136-.5.232-.804.288-.296.064-.6.096-.912.096Zm7.805-1.236a2.233 2.233 0 0 1-.78.888c-.344.232-.796.348-1.356.348-.576 0-1.044-.16-1.404-.48-.352-.328-.528-.832-.528-1.512v-4.356h1.068v4.356c0 .208.028.38.084.516a.886.886 0 0 0 .612.48c.144.032.3.048.468.048.464 0 .836-.104 1.116-.312.28-.208.52-.492.72-.852v-4.236h1.056V150h-.936l-.096-1.116h-.024Zm8.705-2.004c0 .552-.076 1.032-.228 1.44a3.01 3.01 0 0 1-.612 1.008 2.566 2.566 0 0 1-.888.6 2.941 2.941 0 0 1-1.056.192c-.48 0-.9-.112-1.26-.336a2.46 2.46 0 0 1-.84-.96l-.036 1.176h-.996v-8.604h1.056l-.024 3.588c.208-.408.488-.732.84-.972s.788-.36 1.308-.36c.36 0 .704.068 1.032.204.336.128.628.328.876.6.256.264.456.6.6 1.008.152.4.228.872.228 1.416Zm-2.94 2.292c.552 0 .996-.188 1.332-.564.344-.384.516-.96.516-1.728 0-.752-.172-1.32-.516-1.704-.336-.392-.78-.588-1.332-.588-.272 0-.528.048-.768.144a1.71 1.71 0 0 0-.612.432c-.168.184-.304.42-.408.708a3.191 3.191 0 0 0-.144 1.008c0 .384.048.72.144 1.008.104.288.24.528.408.72.176.192.38.336.612.432.24.088.496.132.768.132Zm7.171-4.584c-.48 0-.872.112-1.176.336a2.455 2.455 0 0 0-.72.84V150h-1.056v-6.228h.996l.036 1.116h.024c.168-.36.432-.656.792-.888.36-.232.816-.348 1.368-.348.616 0 1.104.164 1.464.492.368.32.552.816.552 1.488V150h-1.056v-4.26c0-.432-.108-.732-.324-.9-.216-.168-.516-.252-.9-.252Zm8.906 4.884a3.344 3.344 0 0 1-.324.204 3.758 3.758 0 0 1-.468.216 3.946 3.946 0 0 1-.624.156 3.864 3.864 0 0 1-.78.072c-1.048 0-1.844-.284-2.388-.852-.544-.568-.816-1.364-.816-2.388 0-.504.072-.956.216-1.356.152-.4.36-.736.624-1.008.264-.28.576-.492.936-.636.36-.152.752-.228 1.176-.228a3 3 0 0 1 1.2.228c.352.152.64.376.864.672.232.296.388.664.468 1.104.088.432.088.936 0 1.512h-4.392c.04.672.24 1.176.6 1.512.36.328.896.492 1.608.492.48 0 .892-.068 1.236-.204a4.33 4.33 0 0 0 .864-.444v.948Zm-2.472-4.884c-.456 0-.848.14-1.176.42-.328.28-.536.704-.624 1.272h3.348c.032-.576-.1-1-.396-1.272-.296-.28-.68-.42-1.152-.42Zm6.928 5.28a1.93 1.93 0 0 1-.492.18c-.2.048-.412.072-.636.072-.304 0-.564-.044-.78-.132a1.504 1.504 0 0 1-.516-.348 1.48 1.48 0 0 1-.3-.504 2.09 2.09 0 0 1-.084-.588v-3.876h-.744v-.9h.744v-1.308h1.056v1.308h1.812v.9h-1.812v3.744c0 .264.064.456.192.576.136.12.372.18.708.18.312 0 .596-.088.852-.264v.96Zm1.144-4.008h2.88v.96h-2.88v-.96Zm7.516 4.008a1.93 1.93 0 0 1-.492.18c-.2.048-.412.072-.636.072-.304 0-.564-.044-.78-.132a1.504 1.504 0 0 1-.516-.348 1.48 1.48 0 0 1-.3-.504 2.09 2.09 0 0 1-.084-.588v-3.876h-.744v-.9h.744v-1.308h1.056v1.308h1.812v.9h-1.812v3.744c0 .264.064.456.192.576.136.12.372.18.708.18.312 0 .596-.088.852-.264v.96Zm6.302-.396a3.344 3.344 0 0 1-.324.204 3.758 3.758 0 0 1-.468.216 3.946 3.946 0 0 1-.624.156 3.864 3.864 0 0 1-.78.072c-1.048 0-1.844-.284-2.388-.852-.544-.568-.816-1.364-.816-2.388 0-.504.072-.956.216-1.356.152-.4.36-.736.624-1.008.264-.28.576-.492.936-.636.36-.152.752-.228 1.176-.228a3 3 0 0 1 1.2.228c.352.152.64.376.864.672.232.296.388.664.468 1.104.088.432.088.936 0 1.512h-4.392c.04.672.24 1.176.6 1.512.36.328.896.492 1.608.492.48 0 .892-.068 1.236-.204a4.33 4.33 0 0 0 .864-.444v.948Zm-2.472-4.884c-.456 0-.848.14-1.176.42-.328.28-.536.704-.624 1.272h3.348c.032-.576-.1-1-.396-1.272-.296-.28-.68-.42-1.152-.42Zm7.528 4.224a3.648 3.648 0 0 1-.276.456 2.088 2.088 0 0 1-1.02.732c-.224.08-.488.12-.792.12-.56 0-1.012-.156-1.356-.468-.344-.32-.516-.776-.516-1.368 0-.68.236-1.18.708-1.5.48-.32 1.16-.48 2.04-.48h1.164v-.516c0-.432-.112-.74-.336-.924-.224-.184-.608-.276-1.152-.276-.384 0-.748.064-1.092.192-.344.12-.652.26-.924.42v-.948c.224-.136.524-.268.9-.396a3.75 3.75 0 0 1 1.26-.204c.784 0 1.38.164 1.788.492.408.32.612.82.612 1.5v3.6c.008.088.012.18.012.276l.024.276c.008.08.016.148.024.204h-.96a5.482 5.482 0 0 1-.072-.468 7.173 7.173 0 0 1-.024-.54l-.012-.18Zm-1.86.36c.328 0 .608-.068.84-.204.232-.136.42-.292.564-.468.144-.184.248-.36.312-.528.064-.176.096-.3.096-.372v-.456h-1.056c-.632 0-1.092.092-1.38.276-.28.176-.42.444-.42.804 0 .28.084.508.252.684.168.176.432.264.792.264Zm5.584.828h-1.056v-6.228h.924l.108 1.116h.024a2.21 2.21 0 0 1 .756-.876c.336-.24.776-.36 1.32-.36.48 0 .872.116 1.176.348.312.224.52.564.624 1.02.176-.424.444-.756.804-.996.368-.248.812-.372 1.332-.372.576 0 1.032.164 1.368.492.336.32.504.816.504 1.488V150h-1.068v-4.236c0-.408-.1-.704-.3-.888-.2-.192-.472-.288-.816-.288-.232 0-.436.036-.612.108a1.448 1.448 0 0 0-.468.276c-.136.12-.26.26-.372.42-.112.16-.216.328-.312.504V150h-1.056v-4.356c0-.4-.1-.676-.3-.828-.2-.152-.472-.228-.816-.228-.224 0-.424.028-.6.084a1.688 1.688 0 0 0-.48.24 1.89 1.89 0 0 0-.372.384 3.545 3.545 0 0 0-.312.48V150Zm9.394-4.14h2.88v.96h-2.88v-.96Zm6.991 4.14h-1.104v-7.2L654 144.576v-1.212l2.028-1.968h.9V150Z"/>
    <rect width="54" height="38" x="675" y="155" fill="#D6E1FF" rx="8"/>
    <path fill="#000" d="M697.633 178h-1.764l-3-8.604h1.176l2.748 7.92 2.748-7.92h1.08L697.633 178Zm8.422-2.568 2.796-6.036h1.464V178h-1.14v-6.924l-2.64 5.604-.564.012h-.504l.012-.012-2.604-5.7V178h-1.068v-8.604h1.572l2.676 6.036Z"/>
    <rect width="54" height="38" x="739" y="155" fill="#D6E1FF" rx="8"/>
    <path fill="#000" d="M761.633 178h-1.764l-3-8.604h1.176l2.748 7.92 2.748-7.92h1.08L761.633 178Zm8.422-2.568 2.796-6.036h1.464V178h-1.14v-6.924l-2.64 5.604-.564.012h-.504l.012-.012-2.604-5.7V178h-1.068v-8.604h1.572l2.676 6.036Z"/>
    <rect width="64" height="46" x="702" y="99" fill="#D6E1FF" rx="8"/>
    <path fill="#000" d="M730.166 126h-1.536l-4.32-7.224V126h-1.068v-8.604h1.524l4.32 7.224v-7.224h1.08V126Zm7.322 0h-5.316v-8.604h1.128v7.584h4.188V126Zm1.551-8.604h2.916c.944 0 1.66.16 2.148.48.496.32.744.86.744 1.62 0 .312-.044.584-.132.816-.08.224-.196.42-.348.588-.144.16-.324.292-.54.396a2.97 2.97 0 0 1-.696.24c.672.08 1.176.276 1.512.588.344.304.516.768.516 1.392 0 .448-.084.832-.252 1.152-.16.312-.384.568-.672.768a3.191 3.191 0 0 1-1.02.432c-.392.088-.82.132-1.284.132h-2.892v-8.604Zm1.128 1.032v2.64h1.704c.272 0 .52-.028.744-.084.224-.064.416-.156.576-.276.16-.128.284-.284.372-.468.096-.192.144-.42.144-.684 0-.44-.152-.736-.456-.888-.304-.16-.736-.24-1.296-.24h-1.788Zm0 3.66v2.892h1.764c.304 0 .58-.024.828-.072.248-.048.46-.128.636-.24a1.12 1.12 0 0 0 .42-.444c.104-.184.156-.412.156-.684 0-.544-.176-.92-.528-1.128-.344-.216-.892-.324-1.644-.324h-1.632Z"/>
    <rect width="247" height="136" x="560" y="71" stroke="#5282FF" stroke-width="2" rx="8"/>
    <path fill="#000" d="M668.513 81.656V89h-1.464v-7.344h-2.616v-1.26h6.684v1.26h-2.604Zm8.077 6.888c-.088.056-.196.12-.324.192-.128.064-.28.124-.456.18a4.628 4.628 0 0 1-1.404.204c-1.144 0-2-.284-2.568-.852-.56-.568-.84-1.364-.84-2.388 0-.504.076-.956.228-1.356.152-.4.364-.736.636-1.008.272-.28.596-.492.972-.636a3.268 3.268 0 0 1 1.236-.228c.464 0 .88.076 1.248.228.376.152.684.38.924.684.24.304.404.68.492 1.128.096.448.1.972.012 1.572h-4.308c.056.568.244.996.564 1.284.32.28.82.42 1.5.42.496 0 .908-.06 1.236-.18.336-.128.62-.26.852-.396v1.152Zm-2.52-4.788c-.408 0-.752.124-1.032.372s-.464.616-.552 1.104h2.928c.016-.504-.096-.876-.336-1.116-.24-.24-.576-.36-1.008-.36Zm7.497 4.152a2.09 2.09 0 0 1-.264.432 1.857 1.857 0 0 1-.396.396 1.98 1.98 0 0 1-.552.276 2.393 2.393 0 0 1-.756.108c-.272 0-.524-.04-.756-.12a1.692 1.692 0 0 1-.612-.336 1.734 1.734 0 0 1-.408-.564 2.056 2.056 0 0 1-.144-.792c0-.68.252-1.188.756-1.524.504-.344 1.216-.516 2.136-.516h.948v-.384c0-.408-.104-.688-.312-.84-.208-.16-.552-.24-1.032-.24-.408 0-.792.06-1.152.18a5.066 5.066 0 0 0-.936.396v-1.164a5.05 5.05 0 0 1 .984-.384c.408-.12.852-.18 1.332-.18.8 0 1.416.168 1.848.504.44.328.66.856.66 1.584v3.504c.008.088.012.18.012.276l.024.276c.008.08.016.148.024.204h-1.284a5.482 5.482 0 0 1-.072-.468c-.016-.2-.028-.38-.036-.54l-.012-.084Zm-1.584.132c.296 0 .54-.06.732-.18.2-.128.36-.272.48-.432.12-.168.204-.332.252-.492.048-.16.072-.272.072-.336v-.42h-.864c-.552 0-.956.088-1.212.264a.81.81 0 0 0-.384.72c0 .272.076.488.228.648.16.152.392.228.696.228Zm5.822.96h-1.392v-6.228h1.272l.096 1.02h.024c.168-.328.412-.6.732-.816.328-.216.744-.324 1.248-.324.456 0 .844.108 1.164.324.32.216.536.544.648.984.176-.4.44-.716.792-.948.352-.24.78-.36 1.284-.36.28 0 .536.04.768.12.24.08.444.204.612.372.168.16.3.364.396.612.096.248.144.54.144.876V89h-1.404v-4.176c0-.36-.088-.62-.264-.78-.176-.16-.416-.24-.72-.24-.368 0-.672.1-.912.3-.232.2-.428.44-.588.72V89h-1.404v-4.272c0-.36-.088-.604-.264-.732-.176-.128-.412-.192-.708-.192-.384 0-.692.088-.924.264a2.28 2.28 0 0 0-.6.66V89Zm14.884 0h-1.416v-6.96l-1.8 1.764v-1.44l1.992-1.968h1.224V89Zm-501.03-40.604V57h-1.452v-8.604h1.452Zm4.745 3.408c-.408 0-.744.088-1.008.264-.264.168-.48.388-.648.66V57h-1.392v-6.228h1.32l.048 1.02h.024c.168-.328.42-.6.756-.816.344-.216.78-.324 1.308-.324.608 0 1.104.164 1.488.492.392.328.588.828.588 1.5V57h-1.404v-4.212c0-.36-.096-.612-.288-.756-.192-.152-.456-.228-.792-.228Zm5.784.096V57h-1.38v-5.1h-.744v-1.128h.744v-.108c0-.752.216-1.336.648-1.752.432-.416 1.008-.624 1.728-.624.208 0 .38.008.516.024s.26.044.372.084v1.176a1.406 1.406 0 0 0-.312-.084 2.054 2.054 0 0 0-.468-.048c-.336 0-.604.1-.804.3-.2.2-.3.508-.3.924v.108h1.752V51.9h-1.752Zm5.388 5.22c-.44 0-.848-.072-1.224-.216a2.867 2.867 0 0 1-.984-.624 3.091 3.091 0 0 1-.648-1.02c-.152-.4-.228-.86-.228-1.38 0-.52.076-.98.228-1.38.16-.4.376-.736.648-1.008.28-.28.608-.488.984-.624a3.394 3.394 0 0 1 1.224-.216c.44 0 .848.072 1.224.216.376.136.704.344.984.624.28.272.5.608.66 1.008.16.4.24.86.24 1.38 0 .52-.08.98-.24 1.38-.16.4-.38.74-.66 1.02-.28.272-.608.48-.984.624a3.394 3.394 0 0 1-1.224.216Zm0-1.164c.48 0 .876-.168 1.188-.504.32-.336.48-.86.48-1.572 0-.704-.16-1.224-.48-1.56a1.534 1.534 0 0 0-1.188-.516c-.472 0-.868.172-1.188.516-.312.336-.468.856-.468 1.56 0 .712.156 1.236.468 1.572.32.336.716.504 1.188.504Zm7.74-3.84a3.066 3.066 0 0 0-1.236.216 1.69 1.69 0 0 0-.84.72V57h-1.392v-6.228h1.272l.096 1.296h.024c.2-.384.472-.704.816-.96a2.517 2.517 0 0 1 1.26-.456v1.464Zm2.53 4.884h-1.392v-6.228h1.272l.096 1.02h.024c.168-.328.412-.6.732-.816.328-.216.744-.324 1.248-.324.456 0 .844.108 1.164.324.32.216.536.544.648.984.176-.4.44-.716.792-.948.352-.24.78-.36 1.284-.36.28 0 .536.04.768.12.24.08.444.204.612.372.168.16.3.364.396.612.096.248.144.54.144.876V57h-1.404v-4.176c0-.36-.088-.62-.264-.78-.176-.16-.416-.24-.72-.24-.368 0-.672.1-.912.3-.232.2-.428.44-.588.72V57h-1.404v-4.272c0-.36-.088-.604-.264-.732-.176-.128-.412-.192-.708-.192-.384 0-.692.088-.924.264a2.28 2.28 0 0 0-.6.66V57Zm12.872-1.092a2.09 2.09 0 0 1-.264.432 1.857 1.857 0 0 1-.396.396 1.98 1.98 0 0 1-.552.276 2.393 2.393 0 0 1-.756.108c-.272 0-.524-.04-.756-.12a1.692 1.692 0 0 1-.612-.336 1.734 1.734 0 0 1-.408-.564 2.056 2.056 0 0 1-.144-.792c0-.68.252-1.188.756-1.524.504-.344 1.216-.516 2.136-.516h.948v-.384c0-.408-.104-.688-.312-.84-.208-.16-.552-.24-1.032-.24-.408 0-.792.06-1.152.18a5.066 5.066 0 0 0-.936.396v-1.164a5.05 5.05 0 0 1 .984-.384c.408-.12.852-.18 1.332-.18.8 0 1.416.168 1.848.504.44.328.66.856.66 1.584v3.504c.008.088.012.18.012.276l.024.276c.008.08.016.148.024.204h-1.284a5.482 5.482 0 0 1-.072-.468c-.016-.2-.028-.38-.036-.54l-.012-.084Zm-1.584.132c.296 0 .54-.06.732-.18.2-.128.36-.272.48-.432.12-.168.204-.332.252-.492.048-.16.072-.272.072-.336v-.42h-.864c-.552 0-.956.088-1.212.264a.81.81 0 0 0-.384.72c0 .272.076.488.228.648.16.152.392.228.696.228Zm7.777.768c-.144.088-.324.16-.54.216a2.623 2.623 0 0 1-.744.096c-.336 0-.62-.044-.852-.132a1.551 1.551 0 0 1-.552-.384 1.454 1.454 0 0 1-.312-.552 2.396 2.396 0 0 1-.096-.684V51.9h-.744v-1.128h.744v-1.308h1.392v1.308h1.788V51.9h-1.788v3.312c0 .256.06.444.18.564.128.12.336.18.624.18.192 0 .36-.028.504-.084.144-.056.276-.132.396-.228v1.164Zm2.001-6.828a.862.862 0 0 1-.636-.252.84.84 0 0 1-.24-.6.84.84 0 0 1 .24-.6.862.862 0 0 1 .636-.252c.248 0 .452.084.612.252a.82.82 0 0 1 .252.6.82.82 0 0 1-.252.6.808.808 0 0 1-.612.252Zm.696.792V57h-1.392v-6.228h1.392Zm4.261 6.348c-.44 0-.848-.072-1.224-.216a2.867 2.867 0 0 1-.984-.624 3.091 3.091 0 0 1-.648-1.02c-.152-.4-.228-.86-.228-1.38 0-.52.076-.98.228-1.38.16-.4.376-.736.648-1.008.28-.28.608-.488.984-.624a3.394 3.394 0 0 1 1.224-.216c.44 0 .848.072 1.224.216.376.136.704.344.984.624.28.272.5.608.66 1.008.16.4.24.86.24 1.38 0 .52-.08.98-.24 1.38-.16.4-.38.74-.66 1.02-.28.272-.608.48-.984.624a3.394 3.394 0 0 1-1.224.216Zm0-1.164c.48 0 .876-.168 1.188-.504.32-.336.48-.86.48-1.572 0-.704-.16-1.224-.48-1.56a1.534 1.534 0 0 0-1.188-.516c-.472 0-.868.172-1.188.516-.312.336-.468.856-.468 1.56 0 .712.156 1.236.468 1.572.32.336.716.504 1.188.504Zm7.32-4.152c-.408 0-.744.088-1.008.264-.264.168-.48.388-.648.66V57h-1.392v-6.228h1.32l.048 1.02h.024c.168-.328.42-.6.756-.816.344-.216.78-.324 1.308-.324.608 0 1.104.164 1.488.492.392.328.588.828.588 1.5V57h-1.404v-4.212c0-.36-.096-.612-.288-.756-.192-.152-.456-.228-.792-.228Zm8.661 5.316c-.312 0-.596-.028-.852-.084a4.113 4.113 0 0 1-.66-.18 3.174 3.174 0 0 1-.492-.228 3.36 3.36 0 0 1-.312-.216v-1.104c.08.072.188.152.324.24.144.08.308.16.492.24a4.114 4.114 0 0 0 1.452.252c.44 0 .76-.064.96-.192a.66.66 0 0 0 .312-.588.6.6 0 0 0-.12-.396.816.816 0 0 0-.324-.228 1.913 1.913 0 0 0-.48-.12c-.176-.032-.36-.068-.552-.108a8.377 8.377 0 0 1-.744-.18c-.24-.08-.46-.188-.66-.324a1.696 1.696 0 0 1-.48-.528c-.12-.216-.18-.492-.18-.828 0-.592.22-1.056.66-1.392.44-.336 1.068-.504 1.884-.504.464 0 .864.048 1.2.144.344.096.596.196.756.3V52.2a2.946 2.946 0 0 0-.744-.336c-.304-.096-.688-.144-1.152-.144-.456 0-.788.06-.996.18-.208.12-.312.308-.312.564 0 .144.036.26.108.348.08.08.18.144.3.192.128.048.272.088.432.12a9.368 9.368 0 0 1 1.272.264c.264.064.5.168.708.312.216.136.392.32.528.552.136.232.204.532.204.9 0 .376-.072.692-.216.948a1.724 1.724 0 0 1-.576.6c-.24.152-.512.26-.816.324a4.473 4.473 0 0 1-.924.096Zm8.898-.576c-.088.056-.196.12-.324.192-.128.064-.28.124-.456.18a4.628 4.628 0 0 1-1.404.204c-1.144 0-2-.284-2.568-.852-.56-.568-.84-1.364-.84-2.388 0-.504.076-.956.228-1.356.152-.4.364-.736.636-1.008.272-.28.596-.492.972-.636a3.268 3.268 0 0 1 1.236-.228c.464 0 .88.076 1.248.228.376.152.684.38.924.684.24.304.404.68.492 1.128.096.448.1.972.012 1.572h-4.308c.056.568.244.996.564 1.284.32.28.82.42 1.5.42.496 0 .908-.06 1.236-.18.336-.128.62-.26.852-.396v1.152Zm-2.52-4.788c-.408 0-.752.124-1.032.372s-.464.616-.552 1.104h2.928c.016-.504-.096-.876-.336-1.116-.24-.24-.576-.36-1.008-.36Zm6.777 5.364c-.504 0-.956-.072-1.356-.216-.4-.152-.74-.364-1.02-.636-.28-.28-.496-.62-.648-1.02a3.832 3.832 0 0 1-.228-1.368c0-.504.076-.956.228-1.356a2.71 2.71 0 0 1 1.68-1.644 3.895 3.895 0 0 1 1.368-.228c.432 0 .808.048 1.128.144.328.096.588.216.78.36v1.152a3.154 3.154 0 0 0-.816-.372 3.46 3.46 0 0 0-1.008-.132c-1.288 0-1.932.692-1.932 2.076 0 1.384.632 2.076 1.896 2.076.408 0 .756-.044 1.044-.132a4.2 4.2 0 0 0 .816-.36v1.152a3.384 3.384 0 0 1-.78.36c-.312.096-.696.144-1.152.144Zm7.104-1.14c-.168.32-.42.592-.756.816-.328.216-.76.324-1.296.324-.584 0-1.06-.168-1.428-.504-.368-.336-.552-.848-.552-1.536v-4.308h1.404v4.272c0 .36.1.604.3.732.2.12.444.18.732.18.392 0 .712-.08.96-.24a2.23 2.23 0 0 0 .636-.672v-4.272h1.38V57h-1.272l-.084-1.02h-.024Zm6.422-3.864a3.066 3.066 0 0 0-1.236.216 1.69 1.69 0 0 0-.84.72V57h-1.392v-6.228h1.272l.096 1.296h.024c.2-.384.472-.704.816-.96a2.517 2.517 0 0 1 1.26-.456v1.464Zm1.846-2.136a.862.862 0 0 1-.636-.252.84.84 0 0 1-.24-.6.84.84 0 0 1 .24-.6.862.862 0 0 1 .636-.252c.248 0 .452.084.612.252a.82.82 0 0 1 .252.6.82.82 0 0 1-.252.6.808.808 0 0 1-.612.252Zm.696.792V57h-1.392v-6.228h1.392Zm4.909 6.036c-.144.088-.324.16-.54.216a2.623 2.623 0 0 1-.744.096c-.336 0-.62-.044-.852-.132a1.551 1.551 0 0 1-.552-.384 1.454 1.454 0 0 1-.312-.552 2.396 2.396 0 0 1-.096-.684V51.9h-.744v-1.128h.744v-1.308h1.392v1.308h1.788V51.9h-1.788v3.312c0 .256.06.444.18.564.128.12.336.18.624.18.192 0 .36-.028.504-.084.144-.056.276-.132.396-.228v1.164Zm4.711.12a6.858 6.858 0 0 1-.444.996 2.653 2.653 0 0 1-.54.72c-.2.2-.436.348-.708.444a2.549 2.549 0 0 1-.936.156c-.392 0-.728-.064-1.008-.192v-1.248c.112.088.252.156.42.204.168.048.352.072.552.072.272 0 .496-.06.672-.18.176-.112.336-.284.48-.516l-2.508-6.612h1.5l1.74 4.836 1.728-4.836h1.296l-2.244 6.156Zm7.616-5.028V57h-1.38v-5.1h-.744v-1.128h.744v-.108c0-.752.216-1.336.648-1.752.432-.416 1.008-.624 1.728-.624.208 0 .38.008.516.024s.26.044.372.084v1.176a1.406 1.406 0 0 0-.312-.084 2.054 2.054 0 0 0-.468-.048c-.336 0-.604.1-.804.3-.2.2-.3.508-.3.924v.108h1.752V51.9h-1.752Zm5.388 5.22c-.44 0-.848-.072-1.224-.216a2.867 2.867 0 0 1-.984-.624 3.091 3.091 0 0 1-.648-1.02c-.152-.4-.228-.86-.228-1.38 0-.52.076-.98.228-1.38.16-.4.376-.736.648-1.008.28-.28.608-.488.984-.624a3.394 3.394 0 0 1 1.224-.216c.44 0 .848.072 1.224.216.376.136.704.344.984.624.28.272.5.608.66 1.008.16.4.24.86.24 1.38 0 .52-.08.98-.24 1.38-.16.4-.38.74-.66 1.02-.28.272-.608.48-.984.624a3.394 3.394 0 0 1-1.224.216Zm0-1.164c.48 0 .876-.168 1.188-.504.32-.336.48-.86.48-1.572 0-.704-.16-1.224-.48-1.56a1.534 1.534 0 0 0-1.188-.516c-.472 0-.868.172-1.188.516-.312.336-.468.856-.468 1.56 0 .712.156 1.236.468 1.572.32.336.716.504 1.188.504Zm5.664-7.56V57h-1.392v-8.604h1.392Zm6.026 7.44c-.2.392-.468.704-.804.936-.336.232-.756.348-1.26.348-.368 0-.72-.064-1.056-.192a2.566 2.566 0 0 1-.888-.6 3.01 3.01 0 0 1-.612-1.008c-.152-.408-.228-.888-.228-1.44 0-.544.076-1.016.228-1.416.152-.408.356-.744.612-1.008a2.47 2.47 0 0 1 .9-.6 2.788 2.788 0 0 1 1.056-.204c.464 0 .86.092 1.188.276.336.184.608.444.816.78v-3.312h1.38V57h-1.26l-.072-1.164Zm-1.74.12c.24 0 .46-.04.66-.12.208-.088.388-.216.54-.384.16-.176.284-.392.372-.648.088-.264.132-.572.132-.924 0-.352-.044-.656-.132-.912a1.8 1.8 0 0 0-.36-.648 1.343 1.343 0 0 0-.54-.384 1.707 1.707 0 0 0-.672-.132c-.488 0-.892.176-1.212.528-.312.352-.468.868-.468 1.548 0 .696.156 1.216.468 1.56.312.344.716.516 1.212.516Zm9.855.588c-.088.056-.196.12-.324.192-.128.064-.28.124-.456.18a4.628 4.628 0 0 1-1.404.204c-1.144 0-2-.284-2.568-.852-.56-.568-.84-1.364-.84-2.388 0-.504.076-.956.228-1.356.152-.4.364-.736.636-1.008.272-.28.596-.492.972-.636a3.268 3.268 0 0 1 1.236-.228c.464 0 .88.076 1.248.228.376.152.684.38.924.684.24.304.404.68.492 1.128.096.448.1.972.012 1.572h-4.308c.056.568.244.996.564 1.284.32.28.82.42 1.5.42.496 0 .908-.06 1.236-.18.336-.128.62-.26.852-.396v1.152Zm-2.52-4.788c-.408 0-.752.124-1.032.372s-.464.616-.552 1.104h2.928c.016-.504-.096-.876-.336-1.116-.24-.24-.576-.36-1.008-.36Zm7.377.36a3.066 3.066 0 0 0-1.236.216 1.69 1.69 0 0 0-.84.72V57h-1.392v-6.228h1.272l.096 1.296h.024c.2-.384.472-.704.816-.96a2.517 2.517 0 0 1 1.26-.456v1.464Zm307.238-2.46V57h-1.464v-7.344h-2.616v-1.26h6.684v1.26h-2.604Zm8.077 6.888c-.088.056-.196.12-.324.192-.128.064-.28.124-.456.18a4.628 4.628 0 0 1-1.404.204c-1.144 0-2-.284-2.568-.852-.56-.568-.84-1.364-.84-2.388 0-.504.076-.956.228-1.356.152-.4.364-.736.636-1.008.272-.28.596-.492.972-.636a3.268 3.268 0 0 1 1.236-.228c.464 0 .88.076 1.248.228.376.152.684.38.924.684.24.304.404.68.492 1.128.096.448.1.972.012 1.572h-4.308c.056.568.244.996.564 1.284.32.28.82.42 1.5.42.496 0 .908-.06 1.236-.18.336-.128.62-.26.852-.396v1.152Zm-2.52-4.788c-.408 0-.752.124-1.032.372s-.464.616-.552 1.104h2.928c.016-.504-.096-.876-.336-1.116-.24-.24-.576-.36-1.008-.36Zm7.497 4.152a2.09 2.09 0 0 1-.264.432 1.857 1.857 0 0 1-.396.396 1.98 1.98 0 0 1-.552.276 2.393 2.393 0 0 1-.756.108c-.272 0-.524-.04-.756-.12a1.692 1.692 0 0 1-.612-.336 1.734 1.734 0 0 1-.408-.564 2.056 2.056 0 0 1-.144-.792c0-.68.252-1.188.756-1.524.504-.344 1.216-.516 2.136-.516h.948v-.384c0-.408-.104-.688-.312-.84-.208-.16-.552-.24-1.032-.24-.408 0-.792.06-1.152.18a5.066 5.066 0 0 0-.936.396v-1.164a5.05 5.05 0 0 1 .984-.384c.408-.12.852-.18 1.332-.18.8 0 1.416.168 1.848.504.44.328.66.856.66 1.584v3.504c.008.088.012.18.012.276l.024.276c.008.08.016.148.024.204h-1.284a5.482 5.482 0 0 1-.072-.468c-.016-.2-.028-.38-.036-.54l-.012-.084Zm-1.584.132c.296 0 .54-.06.732-.18.2-.128.36-.272.48-.432.12-.168.204-.332.252-.492.048-.16.072-.272.072-.336v-.42h-.864c-.552 0-.956.088-1.212.264a.81.81 0 0 0-.384.72c0 .272.076.488.228.648.16.152.392.228.696.228Zm5.822.96h-1.392v-6.228h1.272l.096 1.02h.024c.168-.328.412-.6.732-.816.328-.216.744-.324 1.248-.324.456 0 .844.108 1.164.324.32.216.536.544.648.984.176-.4.44-.716.792-.948.352-.24.78-.36 1.284-.36.28 0 .536.04.768.12.24.08.444.204.612.372.168.16.3.364.396.612.096.248.144.54.144.876V57h-1.404v-4.176c0-.36-.088-.62-.264-.78-.176-.16-.416-.24-.72-.24-.368 0-.672.1-.912.3-.232.2-.428.44-.588.72V57h-1.404v-4.272c0-.36-.088-.604-.264-.732-.176-.128-.412-.192-.708-.192-.384 0-.692.088-.924.264a2.28 2.28 0 0 0-.6.66V57Zm13.732-5.1V57h-1.38v-5.1h-.744v-1.128h.744v-.108c0-.752.216-1.336.648-1.752.432-.416 1.008-.624 1.728-.624.208 0 .38.008.516.024s.26.044.372.084v1.176a1.406 1.406 0 0 0-.312-.084 2.054 2.054 0 0 0-.468-.048c-.336 0-.604.1-.804.3-.2.2-.3.508-.3.924v.108h1.752V51.9h-1.752Zm5.388 5.22c-.44 0-.848-.072-1.224-.216a2.867 2.867 0 0 1-.984-.624 3.091 3.091 0 0 1-.648-1.02c-.152-.4-.228-.86-.228-1.38 0-.52.076-.98.228-1.38.16-.4.376-.736.648-1.008.28-.28.608-.488.984-.624a3.394 3.394 0 0 1 1.224-.216c.44 0 .848.072 1.224.216.376.136.704.344.984.624.28.272.5.608.66 1.008.16.4.24.86.24 1.38 0 .52-.08.98-.24 1.38-.16.4-.38.74-.66 1.02-.28.272-.608.48-.984.624a3.394 3.394 0 0 1-1.224.216Zm0-1.164c.48 0 .876-.168 1.188-.504.32-.336.48-.86.48-1.572 0-.704-.16-1.224-.48-1.56a1.534 1.534 0 0 0-1.188-.516c-.472 0-.868.172-1.188.516-.312.336-.468.856-.468 1.56 0 .712.156 1.236.468 1.572.32.336.716.504 1.188.504Zm5.665-7.56V57h-1.392v-8.604h1.392Zm6.025 7.44c-.2.392-.468.704-.804.936-.336.232-.756.348-1.26.348-.368 0-.72-.064-1.056-.192a2.566 2.566 0 0 1-.888-.6 3.01 3.01 0 0 1-.612-1.008c-.152-.408-.228-.888-.228-1.44 0-.544.076-1.016.228-1.416.152-.408.356-.744.612-1.008a2.47 2.47 0 0 1 .9-.6 2.788 2.788 0 0 1 1.056-.204c.464 0 .86.092 1.188.276.336.184.608.444.816.78v-3.312h1.38V57h-1.26l-.072-1.164Zm-1.74.12c.24 0 .46-.04.66-.12.208-.088.388-.216.54-.384.16-.176.284-.392.372-.648.088-.264.132-.572.132-.924 0-.352-.044-.656-.132-.912a1.8 1.8 0 0 0-.36-.648 1.343 1.343 0 0 0-.54-.384 1.707 1.707 0 0 0-.672-.132c-.488 0-.892.176-1.212.528-.312.352-.468.868-.468 1.548 0 .696.156 1.216.468 1.56.312.344.716.516 1.212.516Zm9.855.588c-.088.056-.196.12-.324.192-.128.064-.28.124-.456.18a4.628 4.628 0 0 1-1.404.204c-1.144 0-2-.284-2.568-.852-.56-.568-.84-1.364-.84-2.388 0-.504.076-.956.228-1.356.152-.4.364-.736.636-1.008.272-.28.596-.492.972-.636a3.268 3.268 0 0 1 1.236-.228c.464 0 .88.076 1.248.228.376.152.684.38.924.684.24.304.404.68.492 1.128.096.448.1.972.012 1.572h-4.308c.056.568.244.996.564 1.284.32.28.82.42 1.5.42.496 0 .908-.06 1.236-.18.336-.128.62-.26.852-.396v1.152Zm-2.52-4.788c-.408 0-.752.124-1.032.372s-.464.616-.552 1.104h2.928c.016-.504-.096-.876-.336-1.116-.24-.24-.576-.36-1.008-.36Zm7.378.36a3.066 3.066 0 0 0-1.236.216 1.69 1.69 0 0 0-.84.72V57h-1.392v-6.228h1.272l.096 1.296h.024c.2-.384.472-.704.816-.96a2.517 2.517 0 0 1 1.26-.456v1.464Zm3.189 5.004c-.312 0-.596-.028-.852-.084a4.113 4.113 0 0 1-.66-.18 3.174 3.174 0 0 1-.492-.228 3.36 3.36 0 0 1-.312-.216v-1.104c.08.072.188.152.324.24.144.08.308.16.492.24a4.114 4.114 0 0 0 1.452.252c.44 0 .76-.064.96-.192a.66.66 0 0 0 .312-.588.6.6 0 0 0-.12-.396.816.816 0 0 0-.324-.228 1.913 1.913 0 0 0-.48-.12c-.176-.032-.36-.068-.552-.108a8.377 8.377 0 0 1-.744-.18c-.24-.08-.46-.188-.66-.324a1.696 1.696 0 0 1-.48-.528c-.12-.216-.18-.492-.18-.828 0-.592.22-1.056.66-1.392.44-.336 1.068-.504 1.884-.504.464 0 .864.048 1.2.144.344.096.596.196.756.3V52.2a2.946 2.946 0 0 0-.744-.336c-.304-.096-.688-.144-1.152-.144-.456 0-.788.06-.996.18-.208.12-.312.308-.312.564 0 .144.036.26.108.348.08.08.18.144.3.192.128.048.272.088.432.12a9.368 9.368 0 0 1 1.272.264c.264.064.5.168.708.312.216.136.392.32.528.552.136.232.204.532.204.9 0 .376-.072.692-.216.948a1.724 1.724 0 0 1-.576.6c-.24.152-.512.26-.816.324a4.473 4.473 0 0 1-.924.096Zm-256.127-14c-.664 0-1.264-.1-1.8-.3a3.887 3.887 0 0 1-1.38-.864 4.006 4.006 0 0 1-.876-1.392c-.2-.552-.3-1.172-.3-1.86 0-.696.096-1.316.288-1.86.2-.544.484-1.004.852-1.38a3.69 3.69 0 0 1 1.368-.876c.536-.2 1.148-.3 1.836-.3.592 0 1.096.06 1.512.18.424.112.76.244 1.008.396v1.296a3.619 3.619 0 0 0-1.128-.456 5.334 5.334 0 0 0-1.344-.168c-.968 0-1.688.264-2.16.792-.464.52-.696 1.312-.696 2.376 0 2.112.976 3.168 2.928 3.168.456 0 .884-.056 1.284-.168.408-.112.78-.288 1.116-.528v1.284c-.224.168-.548.32-.972.456-.424.136-.936.204-1.536.204Zm5.305-8.724V43h-1.392v-8.604h1.392Zm4.261 8.724c-.44 0-.848-.072-1.224-.216a2.867 2.867 0 0 1-.984-.624 3.091 3.091 0 0 1-.648-1.02c-.152-.4-.228-.86-.228-1.38 0-.52.076-.98.228-1.38.16-.4.376-.736.648-1.008.28-.28.608-.488.984-.624a3.394 3.394 0 0 1 1.224-.216c.44 0 .848.072 1.224.216.376.136.704.344.984.624.28.272.5.608.66 1.008.16.4.24.86.24 1.38 0 .52-.08.98-.24 1.38-.16.4-.38.74-.66 1.02-.28.272-.608.48-.984.624a3.394 3.394 0 0 1-1.224.216Zm0-1.164c.48 0 .876-.168 1.188-.504.32-.336.48-.86.48-1.572 0-.704-.16-1.224-.48-1.56a1.534 1.534 0 0 0-1.188-.516c-.472 0-.868.172-1.188.516-.312.336-.468.856-.468 1.56 0 .712.156 1.236.468 1.572.32.336.716.504 1.188.504Zm8.245.024c-.168.32-.42.592-.756.816-.328.216-.76.324-1.296.324-.584 0-1.06-.168-1.428-.504-.368-.336-.552-.848-.552-1.536v-4.308h1.404v4.272c0 .36.1.604.3.732.2.12.444.18.732.18.392 0 .712-.08.96-.24a2.23 2.23 0 0 0 .636-.672v-4.272h1.38V43h-1.272l-.084-1.02h-.024Zm7.418-.144c-.2.392-.468.704-.804.936-.336.232-.756.348-1.26.348-.368 0-.72-.064-1.056-.192a2.566 2.566 0 0 1-.888-.6 3.01 3.01 0 0 1-.612-1.008c-.152-.408-.228-.888-.228-1.44 0-.544.076-1.016.228-1.416.152-.408.356-.744.612-1.008a2.47 2.47 0 0 1 .9-.6 2.788 2.788 0 0 1 1.056-.204c.464 0 .86.092 1.188.276.336.184.608.444.816.78v-3.312h1.38V43h-1.26l-.072-1.164Zm-1.74.12c.24 0 .46-.04.66-.12.208-.088.388-.216.54-.384.16-.176.284-.392.372-.648.088-.264.132-.572.132-.924 0-.352-.044-.656-.132-.912a1.8 1.8 0 0 0-.36-.648 1.343 1.343 0 0 0-.54-.384 1.707 1.707 0 0 0-.672-.132c-.488 0-.892.176-1.212.528-.312.352-.468.868-.468 1.548 0 .696.156 1.216.468 1.56.312.344.716.516 1.212.516Z"/>
    <rect width="90" height="38" x="574" y="273" fill="#D6E1FF" rx="8"/>
    <path fill="#000" d="M581.795 296.12c-.328 0-.62-.028-.876-.084a4.113 4.113 0 0 1-.66-.18c-.184-.08-.34-.16-.468-.24a3.161 3.161 0 0 1-.3-.228v-.948c.08.08.188.168.324.264.136.088.3.172.492.252.192.08.408.148.648.204.248.048.524.072.828.072.448 0 .804-.072 1.068-.216.264-.144.396-.388.396-.732a.698.698 0 0 0-.132-.444.801.801 0 0 0-.336-.264 2.07 2.07 0 0 0-.504-.168c-.184-.04-.38-.08-.588-.12a22.265 22.265 0 0 1-.78-.18 2.73 2.73 0 0 1-.696-.3 1.633 1.633 0 0 1-.504-.516c-.128-.216-.192-.496-.192-.84 0-.56.216-1 .648-1.32.44-.32 1.052-.48 1.836-.48.44 0 .828.044 1.164.132.344.088.608.184.792.288v.948a2.824 2.824 0 0 0-.78-.336c-.304-.096-.684-.144-1.14-.144-.472 0-.836.064-1.092.192-.248.128-.372.36-.372.696 0 .168.036.304.108.408a.856.856 0 0 0 .288.24c.128.056.272.1.432.132.16.032.328.068.504.108.272.056.552.116.84.18.288.064.544.164.768.3.232.136.42.32.564.552.152.224.228.528.228.912 0 .36-.072.66-.216.9-.144.24-.336.432-.576.576-.232.136-.5.232-.804.288-.296.064-.6.096-.912.096Zm7.805-1.236a2.233 2.233 0 0 1-.78.888c-.344.232-.796.348-1.356.348-.576 0-1.044-.16-1.404-.48-.352-.328-.528-.832-.528-1.512v-4.356h1.068v4.356c0 .208.028.38.084.516a.886.886 0 0 0 .612.48c.144.032.3.048.468.048.464 0 .836-.104 1.116-.312.28-.208.52-.492.72-.852v-4.236h1.056V296h-.936l-.096-1.116h-.024Zm8.705-2.004c0 .552-.076 1.032-.228 1.44a3.01 3.01 0 0 1-.612 1.008 2.566 2.566 0 0 1-.888.6 2.941 2.941 0 0 1-1.056.192c-.48 0-.9-.112-1.26-.336a2.46 2.46 0 0 1-.84-.96l-.036 1.176h-.996v-8.604h1.056l-.024 3.588c.208-.408.488-.732.84-.972s.788-.36 1.308-.36c.36 0 .704.068 1.032.204.336.128.628.328.876.6.256.264.456.6.6 1.008.152.4.228.872.228 1.416Zm-2.94 2.292c.552 0 .996-.188 1.332-.564.344-.384.516-.96.516-1.728 0-.752-.172-1.32-.516-1.704-.336-.392-.78-.588-1.332-.588-.272 0-.528.048-.768.144a1.71 1.71 0 0 0-.612.432c-.168.184-.304.42-.408.708a3.191 3.191 0 0 0-.144 1.008c0 .384.048.72.144 1.008.104.288.24.528.408.72.176.192.38.336.612.432.24.088.496.132.768.132Zm7.172-4.584c-.48 0-.872.112-1.176.336a2.455 2.455 0 0 0-.72.84V296h-1.056v-6.228h.996l.036 1.116h.024c.168-.36.432-.656.792-.888.36-.232.816-.348 1.368-.348.616 0 1.104.164 1.464.492.368.32.552.816.552 1.488V296h-1.056v-4.26c0-.432-.108-.732-.324-.9-.216-.168-.516-.252-.9-.252Zm8.906 4.884a3.344 3.344 0 0 1-.324.204 3.758 3.758 0 0 1-.468.216 3.946 3.946 0 0 1-.624.156 3.864 3.864 0 0 1-.78.072c-1.048 0-1.844-.284-2.388-.852-.544-.568-.816-1.364-.816-2.388 0-.504.072-.956.216-1.356.152-.4.36-.736.624-1.008.264-.28.576-.492.936-.636.36-.152.752-.228 1.176-.228a3 3 0 0 1 1.2.228c.352.152.64.376.864.672.232.296.388.664.468 1.104.088.432.088.936 0 1.512h-4.392c.04.672.24 1.176.6 1.512.36.328.896.492 1.608.492.48 0 .892-.068 1.236-.204a4.33 4.33 0 0 0 .864-.444v.948Zm-2.472-4.884c-.456 0-.848.14-1.176.42-.328.28-.536.704-.624 1.272h3.348c.032-.576-.1-1-.396-1.272-.296-.28-.68-.42-1.152-.42Zm6.927 5.28a1.93 1.93 0 0 1-.492.18c-.2.048-.412.072-.636.072-.304 0-.564-.044-.78-.132a1.504 1.504 0 0 1-.516-.348 1.48 1.48 0 0 1-.3-.504 2.09 2.09 0 0 1-.084-.588v-3.876h-.744v-.9h.744v-1.308h1.056v1.308h1.812v.9h-1.812v3.744c0 .264.064.456.192.576.136.12.372.18.708.18.312 0 .596-.088.852-.264v.96Zm1.144-4.008h2.88v.96h-2.88v-.96Zm7.516 4.008a1.93 1.93 0 0 1-.492.18c-.2.048-.412.072-.636.072-.304 0-.564-.044-.78-.132a1.504 1.504 0 0 1-.516-.348 1.48 1.48 0 0 1-.3-.504 2.09 2.09 0 0 1-.084-.588v-3.876h-.744v-.9h.744v-1.308h1.056v1.308h1.812v.9h-1.812v3.744c0 .264.064.456.192.576.136.12.372.18.708.18.312 0 .596-.088.852-.264v.96Zm6.303-.396a3.344 3.344 0 0 1-.324.204 3.758 3.758 0 0 1-.468.216 3.946 3.946 0 0 1-.624.156 3.864 3.864 0 0 1-.78.072c-1.048 0-1.844-.284-2.388-.852-.544-.568-.816-1.364-.816-2.388 0-.504.072-.956.216-1.356.152-.4.36-.736.624-1.008.264-.28.576-.492.936-.636.36-.152.752-.228 1.176-.228a3 3 0 0 1 1.2.228c.352.152.64.376.864.672.232.296.388.664.468 1.104.088.432.088.936 0 1.512h-4.392c.04.672.24 1.176.6 1.512.36.328.896.492 1.608.492.48 0 .892-.068 1.236-.204a4.33 4.33 0 0 0 .864-.444v.948Zm-2.472-4.884c-.456 0-.848.14-1.176.42-.328.28-.536.704-.624 1.272h3.348c.032-.576-.1-1-.396-1.272-.296-.28-.68-.42-1.152-.42Zm7.527 4.224a3.648 3.648 0 0 1-.276.456 2.088 2.088 0 0 1-1.02.732c-.224.08-.488.12-.792.12-.56 0-1.012-.156-1.356-.468-.344-.32-.516-.776-.516-1.368 0-.68.236-1.18.708-1.5.48-.32 1.16-.48 2.04-.48h1.164v-.516c0-.432-.112-.74-.336-.924-.224-.184-.608-.276-1.152-.276-.384 0-.748.064-1.092.192-.344.12-.652.26-.924.42v-.948c.224-.136.524-.268.9-.396a3.75 3.75 0 0 1 1.26-.204c.784 0 1.38.164 1.788.492.408.32.612.82.612 1.5v3.6c.008.088.012.18.012.276l.024.276c.008.08.016.148.024.204h-.96a5.482 5.482 0 0 1-.072-.468 7.173 7.173 0 0 1-.024-.54l-.012-.18Zm-1.86.36c.328 0 .608-.068.84-.204.232-.136.42-.292.564-.468.144-.184.248-.36.312-.528.064-.176.096-.3.096-.372v-.456h-1.056c-.632 0-1.092.092-1.38.276-.28.176-.42.444-.42.804 0 .28.084.508.252.684.168.176.432.264.792.264Zm5.585.828h-1.056v-6.228h.924l.108 1.116h.024a2.21 2.21 0 0 1 .756-.876c.336-.24.776-.36 1.32-.36.48 0 .872.116 1.176.348.312.224.52.564.624 1.02.176-.424.444-.756.804-.996.368-.248.812-.372 1.332-.372.576 0 1.032.164 1.368.492.336.32.504.816.504 1.488V296h-1.068v-4.236c0-.408-.1-.704-.3-.888-.2-.192-.472-.288-.816-.288-.232 0-.436.036-.612.108a1.448 1.448 0 0 0-.468.276c-.136.12-.26.26-.372.42-.112.16-.216.328-.312.504V296h-1.056v-4.356c0-.4-.1-.676-.3-.828-.2-.152-.472-.228-.816-.228-.224 0-.424.028-.6.084a1.688 1.688 0 0 0-.48.24 1.89 1.89 0 0 0-.372.384 3.545 3.545 0 0 0-.312.48V296Zm9.393-4.14h2.88v.96h-2.88v-.96Zm9.528 4.14h-5.604v-1.14a91.231 91.231 0 0 0 1.908-1.572c.544-.456.992-.876 1.344-1.26.36-.384.624-.748.792-1.092a2.34 2.34 0 0 0 .264-1.08c0-.472-.144-.852-.432-1.14-.288-.296-.708-.444-1.26-.444-.472 0-.908.112-1.308.336-.4.216-.76.5-1.08.852v-1.212c.304-.304.652-.54 1.044-.708.392-.176.852-.264 1.38-.264.448 0 .848.06 1.2.18s.648.288.888.504c.24.216.42.476.54.78.128.304.192.64.192 1.008 0 .464-.096.9-.288 1.308a4.941 4.941 0 0 1-.816 1.224c-.36.4-.804.82-1.332 1.26-.52.432-1.116.908-1.788 1.428h4.356V296Z"/>
    <rect width="54" height="38" x="675" y="301" fill="#D6E1FF" rx="8"/>
    <path fill="#000" d="M697.633 324h-1.764l-3-8.604h1.176l2.748 7.92 2.748-7.92h1.08L697.633 324Zm8.422-2.568 2.796-6.036h1.464V324h-1.14v-6.924l-2.64 5.604-.564.012h-.504l.012-.012-2.604-5.7V324h-1.068v-8.604h1.572l2.676 6.036Z"/>
    <rect width="54" height="38" x="739" y="301" fill="#D6E1FF" rx="8"/>
    <path fill="#000" d="M761.633 324h-1.764l-3-8.604h1.176l2.748 7.92 2.748-7.92h1.08L761.633 324Zm8.422-2.568 2.796-6.036h1.464V324h-1.14v-6.924l-2.64 5.604-.564.012h-.504l.012-.012-2.604-5.7V324h-1.068v-8.604h1.572l2.676 6.036Z"/>
    <rect width="64" height="46" x="702" y="245" fill="#D6E1FF" rx="8"/>
    <path fill="#000" d="M730.166 272h-1.536l-4.32-7.224V272h-1.068v-8.604h1.524l4.32 7.224v-7.224h1.08V272Zm7.322 0h-5.316v-8.604h1.128v7.584h4.188V272Zm1.551-8.604h2.916c.944 0 1.66.16 2.148.48.496.32.744.86.744 1.62 0 .312-.044.584-.132.816-.08.224-.196.42-.348.588-.144.16-.324.292-.54.396a2.97 2.97 0 0 1-.696.24c.672.08 1.176.276 1.512.588.344.304.516.768.516 1.392 0 .448-.084.832-.252 1.152-.16.312-.384.568-.672.768a3.191 3.191 0 0 1-1.02.432c-.392.088-.82.132-1.284.132h-2.892v-8.604Zm1.128 1.032v2.64h1.704c.272 0 .52-.028.744-.084.224-.064.416-.156.576-.276.16-.128.284-.284.372-.468.096-.192.144-.42.144-.684 0-.44-.152-.736-.456-.888-.304-.16-.736-.24-1.296-.24h-1.788Zm0 3.66v2.892h1.764c.304 0 .58-.024.828-.072.248-.048.46-.128.636-.24a1.12 1.12 0 0 0 .42-.444c.104-.184.156-.412.156-.684 0-.544-.176-.92-.528-1.128-.344-.216-.892-.324-1.644-.324h-1.632Z"/>
    <rect width="247" height="136" x="560" y="217" stroke="#5282FF" stroke-width="2" rx="8"/>
    <path fill="#000" d="M667.604 227.656V235h-1.464v-7.344h-2.616v-1.26h6.684v1.26h-2.604Zm8.077 6.888c-.088.056-.196.12-.324.192-.128.064-.28.124-.456.18a4.628 4.628 0 0 1-1.404.204c-1.144 0-2-.284-2.568-.852-.56-.568-.84-1.364-.84-2.388 0-.504.076-.956.228-1.356.152-.4.364-.736.636-1.008.272-.28.596-.492.972-.636a3.268 3.268 0 0 1 1.236-.228c.464 0 .88.076 1.248.228.376.152.684.38.924.684.24.304.404.68.492 1.128.096.448.1.972.012 1.572h-4.308c.056.568.244.996.564 1.284.32.28.82.42 1.5.42.496 0 .908-.06 1.236-.18.336-.128.62-.26.852-.396v1.152Zm-2.52-4.788c-.408 0-.752.124-1.032.372s-.464.616-.552 1.104h2.928c.016-.504-.096-.876-.336-1.116-.24-.24-.576-.36-1.008-.36Zm7.498 4.152a2.09 2.09 0 0 1-.264.432 1.857 1.857 0 0 1-.396.396 1.98 1.98 0 0 1-.552.276 2.393 2.393 0 0 1-.756.108c-.272 0-.524-.04-.756-.12a1.692 1.692 0 0 1-.612-.336 1.734 1.734 0 0 1-.408-.564 2.056 2.056 0 0 1-.144-.792c0-.68.252-1.188.756-1.524.504-.344 1.216-.516 2.136-.516h.948v-.384c0-.408-.104-.688-.312-.84-.208-.16-.552-.24-1.032-.24-.408 0-.792.06-1.152.18a5.066 5.066 0 0 0-.936.396v-1.164a5.05 5.05 0 0 1 .984-.384c.408-.12.852-.18 1.332-.18.8 0 1.416.168 1.848.504.44.328.66.856.66 1.584v3.504c.008.088.012.18.012.276l.024.276c.008.08.016.148.024.204h-1.284a5.482 5.482 0 0 1-.072-.468c-.016-.2-.028-.38-.036-.54l-.012-.084Zm-1.584.132c.296 0 .54-.06.732-.18.2-.128.36-.272.48-.432.12-.168.204-.332.252-.492.048-.16.072-.272.072-.336v-.42h-.864c-.552 0-.956.088-1.212.264a.81.81 0 0 0-.384.72c0 .272.076.488.228.648.16.152.392.228.696.228Zm5.822.96h-1.392v-6.228h1.272l.096 1.02h.024c.168-.328.412-.6.732-.816.328-.216.744-.324 1.248-.324.456 0 .844.108 1.164.324.32.216.536.544.648.984.176-.4.44-.716.792-.948.352-.24.78-.36 1.284-.36.28 0 .536.04.768.12.24.08.444.204.612.372.168.16.3.364.396.612.096.248.144.54.144.876V235h-1.404v-4.176c0-.36-.088-.62-.264-.78-.176-.16-.416-.24-.72-.24-.368 0-.672.1-.912.3-.232.2-.428.44-.588.72V235h-1.404v-4.272c0-.36-.088-.604-.264-.732-.176-.128-.412-.192-.708-.192-.384 0-.692.088-.924.264a2.28 2.28 0 0 0-.6.66V235Zm17.344 0h-5.652v-1.38a68.265 68.265 0 0 0 1.884-1.5c.52-.432.944-.828 1.272-1.188.336-.368.58-.712.732-1.032.152-.32.228-.656.228-1.008 0-.432-.132-.776-.396-1.032-.256-.256-.624-.384-1.104-.384-.456 0-.884.1-1.284.3-.392.2-.756.464-1.092.792v-1.38c.32-.28.68-.5 1.08-.66.4-.168.88-.252 1.44-.252.44 0 .832.06 1.176.18.352.12.652.292.9.516.248.216.436.484.564.804.136.312.204.664.204 1.056 0 .44-.088.852-.264 1.236a4.652 4.652 0 0 1-.78 1.152c-.336.384-.76.784-1.272 1.2-.504.408-1.088.86-1.752 1.356h4.116V235Z"/>
    <path fill="#fff" d="M557 138h6v14h-6zm0 147h6v14h-6zm-178-31h6v14h-6zm0-49h6v14h-6zm0-49h6v14h-6z"/>
    <path fill="#4E496B" d="m471 191-5.774-10h11.548L471 191Zm101-46-10 5.774v-11.547L572 145Zm-100 8v29h-2v-29h2Zm7-9h84v2h-84v-2Zm-9 9a9 9 0 0 1 9-9v2a7 7 0 0 0-7 7h-2Zm-100 10 10-5.774v11.547L370 163Zm54 49-10 5.774v-11.548L424 212Zm-38.115-48H379v-2h6.885v2Zm9 7v33h-2v-33h2Zm7 40H415v2h-13.115v-2Zm-7-7a7 7 0 0 0 7 7v2a9 9 0 0 1-9-9h2Zm-9-42a9 9 0 0 1 9 9h-2a7 7 0 0 0-7-7v-2Z"/>
    <path fill="#4E496B" d="m370 261 10 5.774v-11.547L370 261Zm54-49-10-5.774v11.548L424 212Zm-38.115 48H379v2h6.885v-2Zm9-7v-33h-2v33h2Zm7-40H415v-2h-13.115v2Zm-7 7a7 7 0 0 1 7-7v-2a9 9 0 0 0-9 9h2Zm-9 42a9 9 0 0 0 9-9h-2a7 7 0 0 1-7 7v2ZM471 233l-5.774 10h11.548L471 233Zm101 59-10-5.774v11.547L572 292Zm-100-8v-42h-2v42h2Zm7 9h84v-2h-84v2Zm-9-9a9 9 0 0 0 9 9v-2a7 7 0 0 1-7-7h-2Z"/>
    <path fill="#4E496B" d="m370 212 10 5.774v-11.548L370 212Zm54 0-10-5.773v11.547L424 212Zm-45 1h36v-2h-36v2Z"/>
    <defs>
        <filter id="filter0_d_8_2" width="696" height="358" x="131" y="15" color-interpolation-filters="sRGB" filterUnits="userSpaceOnUse">
            <feFlood flood-opacity="0" result="BackgroundImageFix"/>
            <feColorMatrix in="SourceAlpha" result="hardAlpha" values="0 0 0 0 0 0 0 0 0 0 0 0 0 0 0 0 0 0 127 0"/>
            <feOffset/>
            <feGaussianBlur stdDeviation="3"/>
            <feColorMatrix values="0 0 0 0 0.321569 0 0 0 0 0.509804 0 0 0 0 1 0 0 0 0.2 0"/>
            <feBlend in2="BackgroundImageFix" result="effect1_dropShadow_8_2"/>
            <feBlend in="SourceGraphic" in2="effect1_dropShadow_8_2" result="shape"/>
        </filter>
    </defs>
</svg>
