<svg xmlns="http://www.w3.org/2000/svg" xmlns:xlink="http://www.w3.org/1999/xlink" width="18" height="18" class="g-icon gn-composite-bar-item__icon" fill="currentColor" stroke="none" aria-hidden="true"><svg xmlns="http://www.w3.org/2000/svg" fill="none" viewBox="0 0 17 17"><path fill="currentColor" d="M7.944 2.068a2.4 2.4 0 0 1 2.115-.02l4.577 2.198c.34.163.557.507.557.885v.86a9.25 9.25 0 0 1-4.264 7.792l-.927.593c-.32.205-.692.314-1.071.314-.317 0-.602-.074-.833-.213a14 14 0 0 1-2.109-1.551c-.782-.707-1.474-1.536-1.83-2.427a.844.844 0 0 0-1.567.627c.49 1.227 1.39 2.26 2.265 3.052a15.6 15.6 0 0 0 2.37 1.745c.534.32 1.13.454 1.704.454.702 0 1.39-.2 1.98-.58l.928-.593a10.94 10.94 0 0 0 5.042-9.213v-.86a2.67 2.67 0 0 0-1.514-2.407L10.79.528A4.09 4.09 0 0 0 7.187.56L2.813 2.755a2.55 2.55 0 0 0-1.407 2.28v.715a.844.844 0 0 0 1.688 0v-.714c0-.327.184-.626.476-.772z"></path><path fill="currentColor" d="M12.128 7.403c.33.33.33.864 0 1.194l-2.813 2.812a.844.844 0 0 1-1.193-1.193L9.49 8.848H1.688a.844.844 0 0 1 0-1.687h7.81L8.123 5.784a.844.844 0 1 1 1.193-1.193z"></path></svg></svg>