<svg xmlns="http://www.w3.org/2000/svg" width="18" height="18" fill="currentColor" aria-hidden="true" class="g-icon gn-composite-bar-item__icon">
    <svg xmlns="http://www.w3.org/2000/svg" fill="none" viewBox="0 0 16 16">
        <path fill="currentColor" fill-rule="evenodd" d="M14 3.27v3.053a.92.92 0 0 1-.64.895q-.273.084-.649.183.076.259.105.537l.441 4.228a2.52 2.52 0 0 1-2.039 2.746l-.713.13a13.9 13.9 0 0 1-5.01 0l-.713-.13a2.52 2.52 0 0 1-2.04-2.746l.442-4.228q.03-.277.105-.537-.376-.099-.65-.183A.92.92 0 0 1 2 6.323V3.271a1.5 1.5 0 0 1 1.747-1.48l.783.13c.3.05.566.222.734.475A.55.55 0 0 0 6.26 2.2l.038-.188A1.26 1.26 0 0 1 7.53 1h.938c.6 0 1.116.423 1.233 1.011l.038.188a.55.55 0 0 0 .996.197c.168-.253.434-.424.734-.474l.783-.13A1.5 1.5 0 0 1 14 3.27M4.764 7.72a1.5 1.5 0 0 0-.088.376l-.441 4.229c-.055.525.3 1.004.815 1.098l.172.031.49-2.837a2.005 2.005 0 0 1 1.97-1.671h.636c.972 0 1.803.705 1.97 1.671l.49 2.838.172-.032c.515-.095.87-.573.816-1.098l-.442-4.23a1.5 1.5 0 0 0-.088-.376C10.322 7.88 9.222 8 8 8a19 19 0 0 1-3.236-.28M3.495 5.91V3.264l.631.108c.245.318.76.773 1.586.773A2.03 2.03 0 0 0 7.727 2.5h.546c.207 1.148 1.258 1.645 2.004 1.645.79 0 1.262-.364 1.602-.774.27-.039.627-.101.627-.101v2.636S10.537 6.5 8 6.5s-4.505-.59-4.505-.59m4.187 4.549h.636a.5.5 0 0 1 .492.418l.467 2.708a8.2 8.2 0 0 1-2.555 0l.467-2.709a.5.5 0 0 1 .493-.417" clip-rule="evenodd"/>
    </svg>
</svg>
