<svg xmlns="http://www.w3.org/2000/svg" width="700" height="346" fill="none" viewBox="0 0 700 346">
    <g clip-path="url(#clip0_17_129)">
        <g filter="url(#filter0_d_17_129)">
            <rect width="83" height="326" x="155" y="10" fill="#fff" rx="5"/>
        </g>
        <g filter="url(#filter1_d_17_129)">
            <rect width="154" height="326" x="539" y="10" fill="#fff" rx="5"/>
        </g>
        <path fill="#000" d="M577.276 30.962h3.374c.672 0 1.297.08 1.876.238.578.159 1.082.42 1.512.784.429.364.765.845 1.008 1.442.242.597.364 1.335.364 2.212 0 .887-.126 1.666-.378 2.338-.243.663-.584 1.218-1.022 1.666-.43.448-.948.789-1.554 1.022a5.544 5.544 0 0 1-1.96.336h-3.22V30.962Zm1.316 1.204v7.644h1.904c.513 0 .984-.08 1.414-.238a2.864 2.864 0 0 0 1.106-.728c.308-.336.546-.76.714-1.274.168-.513.252-1.125.252-1.834 0-.7-.084-1.279-.252-1.736-.168-.467-.402-.835-.7-1.106-.29-.27-.64-.457-1.05-.56a5.041 5.041 0 0 0-1.33-.168h-2.058Zm12.656 7.448a4.219 4.219 0 0 1-.322.532 2.419 2.419 0 0 1-1.19.854c-.261.093-.569.14-.924.14-.653 0-1.18-.182-1.582-.546-.401-.373-.602-.905-.602-1.596 0-.793.276-1.377.826-1.75.56-.373 1.354-.56 2.38-.56h1.358v-.602c0-.504-.13-.863-.392-1.078-.261-.215-.709-.322-1.344-.322-.448 0-.872.075-1.274.224-.401.14-.76.303-1.078.49v-1.106a5.475 5.475 0 0 1 1.05-.462 4.374 4.374 0 0 1 1.47-.238c.915 0 1.61.191 2.086.574.476.373.714.957.714 1.75v4.2c.01.103.014.21.014.322l.028.322c.01.093.019.173.028.238h-1.12a6.4 6.4 0 0 1-.084-.546 8.74 8.74 0 0 1-.028-.63l-.014-.21Zm-2.17.42c.383 0 .71-.08.98-.238.271-.159.49-.34.658-.546.168-.215.29-.42.364-.616.075-.205.112-.35.112-.434v-.532h-1.232c-.737 0-1.274.107-1.61.322-.326.205-.49.518-.49.938 0 .327.098.593.294.798.196.205.504.308.924.308Zm8.84.812c-.15.084-.341.154-.574.21a3.177 3.177 0 0 1-.742.084c-.355 0-.658-.051-.91-.154a1.746 1.746 0 0 1-.602-.406 1.71 1.71 0 0 1-.35-.588 2.414 2.414 0 0 1-.098-.686v-4.522h-.868v-1.05h.868v-1.526h1.232v1.526h2.114v1.05h-2.114v4.368c0 .308.074.532.224.672.158.14.434.21.826.21.364 0 .695-.103.994-.308v1.12Zm5.895-1.232a4.34 4.34 0 0 1-.322.532 2.444 2.444 0 0 1-1.19.854c-.262.093-.57.14-.924.14-.654 0-1.181-.182-1.582-.546-.402-.373-.602-.905-.602-1.596 0-.793.275-1.377.826-1.75.56-.373 1.353-.56 2.38-.56h1.358v-.602c0-.504-.131-.863-.392-1.078-.262-.215-.71-.322-1.344-.322a3.63 3.63 0 0 0-1.274.224c-.402.14-.761.303-1.078.49v-1.106a5.42 5.42 0 0 1 1.05-.462 4.374 4.374 0 0 1 1.47-.238c.914 0 1.61.191 2.086.574.476.373.714.957.714 1.75v4.2c.009.103.014.21.014.322.009.112.018.22.028.322.009.093.018.173.028.238h-1.12a6.4 6.4 0 0 1-.084-.546 8.197 8.197 0 0 1-.028-.63l-.014-.21Zm-2.17.42c.382 0 .709-.08.98-.238.27-.159.49-.34.658-.546.168-.215.289-.42.364-.616.074-.205.112-.35.112-.434v-.532h-1.232c-.738 0-1.274.107-1.61.322-.327.205-.49.518-.49.938 0 .327.098.593.294.798.196.205.504.308.924.308Zm10.683 1.106a4.81 4.81 0 0 1-1.022-.098 4.808 4.808 0 0 1-.77-.21 4.152 4.152 0 0 1-.546-.28 3.732 3.732 0 0 1-.35-.266V39.18c.093.093.219.196.378.308.159.103.35.2.574.294.224.093.476.173.756.238.289.056.611.084.966.084.523 0 .938-.084 1.246-.252.308-.168.462-.453.462-.854 0-.215-.051-.387-.154-.518a.932.932 0 0 0-.392-.308 2.416 2.416 0 0 0-.588-.196 29.16 29.16 0 0 0-.686-.14 26 26 0 0 1-.91-.21 3.187 3.187 0 0 1-.812-.35 1.898 1.898 0 0 1-.588-.602c-.149-.252-.224-.579-.224-.98 0-.653.252-1.167.756-1.54.513-.373 1.227-.56 2.142-.56.513 0 .966.051 1.358.154.401.103.709.215.924.336v1.106a3.3 3.3 0 0 0-.91-.392c-.355-.112-.798-.168-1.33-.168-.551 0-.975.075-1.274.224-.289.15-.434.42-.434.812a.82.82 0 0 0 .126.476 1 1 0 0 0 .336.28c.149.065.317.117.504.154.187.037.383.08.588.126.317.065.644.135.98.21.336.075.635.191.896.35.271.159.49.373.658.644.177.261.266.616.266 1.064 0 .42-.084.77-.252 1.05a1.93 1.93 0 0 1-.672.672c-.271.159-.583.27-.938.336-.345.075-.7.112-1.064.112Zm8-.294c-.15.084-.341.154-.574.21a3.177 3.177 0 0 1-.742.084c-.355 0-.658-.051-.91-.154a1.746 1.746 0 0 1-.602-.406 1.71 1.71 0 0 1-.35-.588 2.414 2.414 0 0 1-.098-.686v-4.522h-.868v-1.05h.868v-1.526h1.232v1.526h2.114v1.05h-2.114v4.368c0 .308.074.532.224.672.158.14.434.21.826.21.364 0 .695-.103.994-.308v1.12Zm4.553.294c-.495 0-.957-.084-1.386-.252a3.22 3.22 0 0 1-1.12-.728 3.542 3.542 0 0 1-.728-1.19c-.178-.467-.266-1.003-.266-1.61 0-.597.088-1.13.266-1.596.177-.476.42-.873.728-1.19a3.22 3.22 0 0 1 1.12-.728 3.767 3.767 0 0 1 1.386-.252c.504 0 .97.084 1.4.252.429.168.798.41 1.106.728.317.317.564.714.742 1.19.186.467.28.999.28 1.596 0 .607-.094 1.143-.28 1.61a3.448 3.448 0 0 1-.742 1.19c-.308.317-.677.56-1.106.728-.43.168-.896.252-1.4.252Zm0-1.106c.326 0 .625-.051.896-.154.28-.112.522-.275.728-.49.205-.224.364-.504.476-.84.112-.336.168-.733.168-1.19 0-.457-.056-.854-.168-1.19a2.168 2.168 0 0 0-.476-.826 1.835 1.835 0 0 0-.728-.49 2.325 2.325 0 0 0-.896-.168c-.327 0-.626.056-.896.168a1.845 1.845 0 0 0-.714.49c-.196.215-.35.49-.462.826a3.774 3.774 0 0 0-.168 1.19c0 .457.056.854.168 1.19.112.336.266.616.462.84.205.215.443.378.714.49.27.103.569.154.896.154Zm8.627-5.068a3.79 3.79 0 0 0-1.428.406c-.42.215-.732.55-.938 1.008V41h-1.232v-7.266h1.078l.126 1.582h.028c.206-.43.5-.803.882-1.12.392-.327.887-.527 1.484-.602v1.372Zm5.621 4.648a4.219 4.219 0 0 1-.322.532 2.419 2.419 0 0 1-1.19.854c-.261.093-.569.14-.924.14-.653 0-1.18-.182-1.582-.546-.401-.373-.602-.905-.602-1.596 0-.793.276-1.377.826-1.75.56-.373 1.354-.56 2.38-.56h1.358v-.602c0-.504-.13-.863-.392-1.078-.261-.215-.709-.322-1.344-.322-.448 0-.872.075-1.274.224-.401.14-.76.303-1.078.49v-1.106a5.475 5.475 0 0 1 1.05-.462 4.374 4.374 0 0 1 1.47-.238c.915 0 1.61.191 2.086.574.476.373.714.957.714 1.75v4.2c.01.103.014.21.014.322l.028.322c.01.093.019.173.028.238h-1.12a6.4 6.4 0 0 1-.084-.546 8.74 8.74 0 0 1-.028-.63l-.014-.21Zm-2.17.42c.383 0 .71-.08.98-.238.271-.159.49-.34.658-.546.168-.215.29-.42.364-.616.075-.205.112-.35.112-.434v-.532h-1.232c-.737 0-1.274.107-1.61.322-.326.205-.49.518-.49.938 0 .327.098.593.294.798.196.205.504.308.924.308Zm11.527.35c0 .467-.07.891-.21 1.274a2.29 2.29 0 0 1-.644.994c-.289.27-.667.48-1.134.63-.457.15-1.012.224-1.666.224-.354 0-.667-.019-.938-.056a4.345 4.345 0 0 1-.714-.154 2.58 2.58 0 0 1-.504-.196 2.377 2.377 0 0 1-.35-.196v-1.106c.15.084.304.159.462.224a4.137 4.137 0 0 0 1.204.322c.252.037.537.056.854.056.896 0 1.522-.168 1.876-.504.355-.336.532-.835.532-1.498v-1.12a2.63 2.63 0 0 1-.91 1.036c-.382.261-.858.392-1.428.392a3.44 3.44 0 0 1-1.232-.224 3.058 3.058 0 0 1-1.022-.658 3.414 3.414 0 0 1-.7-1.106c-.168-.448-.252-.966-.252-1.554 0-.597.084-1.115.252-1.554.178-.448.411-.821.7-1.12a2.922 2.922 0 0 1 1.036-.672c.392-.15.808-.224 1.246-.224.579 0 1.064.13 1.456.392.402.261.714.616.938 1.064l.014-.154c0-.168.01-.369.028-.602.019-.243.038-.43.056-.56h1.12c-.018.13-.037.317-.056.56a16.97 16.97 0 0 0-.014.602v5.488Zm-3.346-.784c.308 0 .588-.047.84-.14.262-.103.486-.257.672-.462.196-.205.346-.457.448-.756a3.15 3.15 0 0 0 .168-1.078c0-.83-.205-1.451-.616-1.862-.401-.41-.91-.616-1.526-.616a2.42 2.42 0 0 0-.868.154 1.9 1.9 0 0 0-.686.462 2.285 2.285 0 0 0-.448.784 3.15 3.15 0 0 0-.168 1.078c0 .41.056.77.168 1.078.112.299.266.55.462.756.196.196.425.345.686.448.271.103.56.154.868.154Zm11.129.784a3.979 3.979 0 0 1-.924.49 4.632 4.632 0 0 1-.728.182 4.51 4.51 0 0 1-.91.084c-1.223 0-2.152-.331-2.786-.994-.635-.663-.952-1.591-.952-2.786 0-.588.084-1.115.252-1.582.177-.467.42-.859.728-1.176a3.028 3.028 0 0 1 1.092-.742 3.49 3.49 0 0 1 1.372-.266c.522 0 .989.089 1.4.266.41.177.746.439 1.008.784.27.345.452.775.546 1.288.102.504.102 1.092 0 1.764h-5.124c.046.784.28 1.372.7 1.764.42.383 1.045.574 1.876.574.56 0 1.04-.08 1.442-.238a5.07 5.07 0 0 0 1.008-.518v1.106Zm-2.884-5.698c-.532 0-.99.163-1.372.49-.383.327-.626.821-.728 1.484h3.906c.037-.672-.117-1.167-.462-1.484-.346-.327-.794-.49-1.344-.49ZM593.507 57.14c-.383 0-.724-.033-1.022-.098a4.78 4.78 0 0 1-.77-.21 4.152 4.152 0 0 1-.546-.28 3.603 3.603 0 0 1-.35-.266V55.18c.093.093.219.196.378.308.158.103.35.2.574.294.224.093.476.173.756.238.289.056.611.084.966.084.522 0 .938-.084 1.246-.252.308-.168.462-.453.462-.854 0-.215-.052-.387-.154-.518a.939.939 0 0 0-.392-.308 2.416 2.416 0 0 0-.588-.196 30.242 30.242 0 0 0-.686-.14 25.487 25.487 0 0 1-.91-.21c-.299-.084-.57-.2-.812-.35a1.898 1.898 0 0 1-.588-.602c-.15-.252-.224-.579-.224-.98 0-.653.252-1.167.756-1.54.513-.373 1.227-.56 2.142-.56.513 0 .966.051 1.358.154.401.103.709.215.924.336v1.106a3.3 3.3 0 0 0-.91-.392c-.355-.112-.798-.168-1.33-.168-.551 0-.976.075-1.274.224-.29.15-.434.42-.434.812a.82.82 0 0 0 .126.476 1 1 0 0 0 .336.28c.149.065.317.117.504.154.186.037.382.08.588.126.317.065.644.135.98.21.336.075.634.191.896.35.27.159.49.373.658.644.177.261.266.616.266 1.064 0 .42-.084.77-.252 1.05a1.93 1.93 0 0 1-.672.672c-.271.159-.584.27-.938.336-.346.075-.7.112-1.064.112Zm8.013-.224a8.282 8.282 0 0 1-.532 1.148c-.186.336-.396.62-.63.854a2.244 2.244 0 0 1-.784.518c-.289.121-.62.182-.994.182-.186 0-.359-.014-.518-.042a1.57 1.57 0 0 1-.434-.112v-1.19c.103.075.234.13.392.168.159.047.332.07.518.07.346 0 .63-.084.854-.252.224-.159.439-.415.644-.77l-2.954-7.756h1.358l2.31 6.132 2.296-6.132h1.19l-2.716 7.182Zm6.192.224a4.81 4.81 0 0 1-1.022-.098 4.808 4.808 0 0 1-.77-.21 4.152 4.152 0 0 1-.546-.28 3.732 3.732 0 0 1-.35-.266V55.18c.093.093.219.196.378.308.159.103.35.2.574.294.224.093.476.173.756.238.289.056.611.084.966.084.523 0 .938-.084 1.246-.252.308-.168.462-.453.462-.854 0-.215-.051-.387-.154-.518a.932.932 0 0 0-.392-.308 2.416 2.416 0 0 0-.588-.196 29.16 29.16 0 0 0-.686-.14 26 26 0 0 1-.91-.21 3.187 3.187 0 0 1-.812-.35 1.898 1.898 0 0 1-.588-.602c-.149-.252-.224-.579-.224-.98 0-.653.252-1.167.756-1.54.513-.373 1.227-.56 2.142-.56.513 0 .966.051 1.358.154.401.103.709.215.924.336v1.106a3.3 3.3 0 0 0-.91-.392c-.355-.112-.798-.168-1.33-.168-.551 0-.975.075-1.274.224-.289.15-.434.42-.434.812a.82.82 0 0 0 .126.476 1 1 0 0 0 .336.28c.149.065.317.117.504.154.187.037.383.08.588.126.317.065.644.135.98.21.336.075.635.191.896.35.271.159.49.373.658.644.177.261.266.616.266 1.064 0 .42-.084.77-.252 1.05a1.93 1.93 0 0 1-.672.672c-.271.159-.583.27-.938.336-.345.075-.7.112-1.064.112Zm7.999-.294c-.149.084-.34.154-.574.21-.233.056-.48.084-.742.084-.354 0-.658-.051-.91-.154a1.765 1.765 0 0 1-.602-.406 1.742 1.742 0 0 1-.35-.588 2.45 2.45 0 0 1-.098-.686v-4.522h-.868v-1.05h.868v-1.526h1.232v1.526h2.114v1.05h-2.114v4.368c0 .308.075.532.224.672.159.14.434.21.826.21.364 0 .696-.103.994-.308v1.12Zm7.353-.462a3.738 3.738 0 0 1-.378.238 4.34 4.34 0 0 1-.546.252 4.576 4.576 0 0 1-.728.182c-.27.056-.574.084-.91.084-1.222 0-2.151-.331-2.786-.994-.634-.663-.952-1.591-.952-2.786 0-.588.084-1.115.252-1.582.178-.467.42-.859.728-1.176a3.028 3.028 0 0 1 1.092-.742 3.5 3.5 0 0 1 1.372-.266c.523 0 .99.089 1.4.266.411.177.747.439 1.008.784.271.345.453.775.546 1.288.103.504.103 1.092 0 1.764h-5.124c.047.784.28 1.372.7 1.764.42.383 1.046.574 1.876.574.56 0 1.041-.08 1.442-.238a5.015 5.015 0 0 0 1.008-.518v1.106Zm-2.884-5.698c-.532 0-.989.163-1.372.49-.382.327-.625.821-.728 1.484h3.906c.038-.672-.116-1.167-.462-1.484-.345-.327-.793-.49-1.344-.49ZM625.938 57h-1.232v-7.266h1.078l.126 1.302h.028c.196-.41.49-.751.882-1.022.392-.28.906-.42 1.54-.42.56 0 1.018.135 1.372.406.364.261.607.658.728 1.19a2.52 2.52 0 0 1 .938-1.162c.43-.29.948-.434 1.554-.434.672 0 1.204.191 1.596.574.392.373.588.952.588 1.736V57h-1.246v-4.942c0-.476-.116-.821-.35-1.036-.233-.224-.55-.336-.952-.336-.27 0-.508.042-.714.126a1.697 1.697 0 0 0-.546.322 2.8 2.8 0 0 0-.434.49c-.13.187-.252.383-.364.588V57h-1.232v-5.082c0-.467-.116-.789-.35-.966-.233-.177-.55-.266-.952-.266-.261 0-.494.033-.7.098a1.973 1.973 0 0 0-.56.28c-.158.121-.303.27-.434.448-.13.168-.252.355-.364.56V57Zm13.452.14c-.383 0-.724-.033-1.022-.098a4.78 4.78 0 0 1-.77-.21 4.152 4.152 0 0 1-.546-.28 3.603 3.603 0 0 1-.35-.266V55.18c.093.093.219.196.378.308.158.103.35.2.574.294.224.093.476.173.756.238.289.056.611.084.966.084.522 0 .938-.084 1.246-.252.308-.168.462-.453.462-.854 0-.215-.052-.387-.154-.518a.939.939 0 0 0-.392-.308 2.416 2.416 0 0 0-.588-.196 30.242 30.242 0 0 0-.686-.14 25.487 25.487 0 0 1-.91-.21c-.299-.084-.57-.2-.812-.35a1.898 1.898 0 0 1-.588-.602c-.15-.252-.224-.579-.224-.98 0-.653.252-1.167.756-1.54.513-.373 1.227-.56 2.142-.56.513 0 .966.051 1.358.154.401.103.709.215.924.336v1.106a3.3 3.3 0 0 0-.91-.392c-.355-.112-.798-.168-1.33-.168-.551 0-.976.075-1.274.224-.29.15-.434.42-.434.812a.82.82 0 0 0 .126.476 1 1 0 0 0 .336.28c.149.065.317.117.504.154.186.037.382.08.588.126.317.065.644.135.98.21.336.075.634.191.896.35.27.159.49.373.658.644.177.261.266.616.266 1.064 0 .42-.084.77-.252 1.05a1.93 1.93 0 0 1-.672.672c-.271.159-.584.27-.938.336-.346.075-.7.112-1.064.112Z"/>
        <rect width="113" height="42" x="559" y="81" fill="#fff" stroke="#67B0F8" stroke-width="2" rx="4"/>
        <path fill="#18123D" d="M587.11 107.029c-.747 0-1.423-.117-2.03-.35a4.434 4.434 0 0 1-1.568-1.008 4.611 4.611 0 0 1-.994-1.624c-.233-.644-.35-1.367-.35-2.17 0-.812.107-1.535.322-2.17a4.27 4.27 0 0 1 .952-1.61c.42-.448.933-.789 1.54-1.022.616-.233 1.316-.35 2.1-.35.681 0 1.279.075 1.792.224.513.14.933.308 1.26.504v1.26a4.64 4.64 0 0 0-1.456-.602 6.839 6.839 0 0 0-1.61-.196c-1.185 0-2.063.331-2.632.994-.56.653-.84 1.643-.84 2.968 0 1.335.303 2.329.91 2.982.616.653 1.521.98 2.716.98.513 0 1.013-.07 1.498-.21.495-.14.966-.378 1.414-.714v1.26c-.271.215-.667.411-1.19.588-.513.177-1.125.266-1.834.266Zm6.103-10.178v10.038h-1.232V96.851h1.232Zm2.638 1.708c-.252 0-.453-.075-.602-.224a.809.809 0 0 1-.224-.574.81.81 0 0 1 .224-.574c.149-.159.35-.238.602-.238.243 0 .434.08.574.238.14.159.21.35.21.574 0 .224-.07.415-.21.574-.14.15-.331.224-.574.224Zm.602 1.064v7.266h-1.232v-7.266h1.232Zm5.144 7.406c-.56 0-1.068-.084-1.526-.252a3.345 3.345 0 0 1-1.148-.742 3.277 3.277 0 0 1-.728-1.19c-.168-.467-.252-.999-.252-1.596 0-.588.084-1.115.252-1.582.178-.467.425-.859.742-1.176a3.073 3.073 0 0 1 1.162-.742 4.278 4.278 0 0 1 1.554-.266c.448 0 .859.051 1.232.154.374.093.682.233.924.42v1.106a3.243 3.243 0 0 0-1.008-.434 4.145 4.145 0 0 0-1.134-.154c-.849 0-1.474.219-1.876.658-.392.439-.588 1.111-.588 2.016s.192 1.577.574 2.016c.383.439.99.658 1.82.658.439 0 .84-.051 1.204-.154.374-.112.71-.252 1.008-.42v1.106a4.29 4.29 0 0 1-2.212.574Zm5.59-3.234h-.644v3.094h-1.232V96.851h1.232v5.894h.7l2.548-3.122h1.4l-2.982 3.584 3.038 3.682h-1.498l-2.562-3.094Zm8.513-3.22c-.56 0-1.017.131-1.372.392a2.874 2.874 0 0 0-.84.98v4.942h-1.232V96.851h1.232v2.772l-.028 1.302h.028a2.48 2.48 0 0 1 .924-1.022c.42-.28.952-.42 1.596-.42.719 0 1.288.191 1.708.574.429.373.644.952.644 1.736v5.096h-1.232v-4.97c0-.504-.126-.854-.378-1.05-.252-.196-.602-.294-1.05-.294Zm7.591 6.454c-.495 0-.957-.084-1.386-.252a3.233 3.233 0 0 1-1.12-.728 3.542 3.542 0 0 1-.728-1.19c-.177-.467-.266-1.003-.266-1.61 0-.597.089-1.129.266-1.596.177-.476.42-.873.728-1.19.317-.317.691-.56 1.12-.728a3.767 3.767 0 0 1 1.386-.252c.504 0 .971.084 1.4.252.429.168.798.411 1.106.728.317.317.565.714.742 1.19.187.467.28.999.28 1.596 0 .607-.093 1.143-.28 1.61a3.433 3.433 0 0 1-.742 1.19c-.308.317-.677.56-1.106.728a3.807 3.807 0 0 1-1.4.252Zm0-1.106a2.5 2.5 0 0 0 .896-.154 2.04 2.04 0 0 0 .728-.49c.205-.224.364-.504.476-.84.112-.336.168-.733.168-1.19 0-.457-.056-.854-.168-1.19a2.17 2.17 0 0 0-.476-.826 1.831 1.831 0 0 0-.728-.49 2.322 2.322 0 0 0-.896-.168c-.327 0-.625.056-.896.168a1.849 1.849 0 0 0-.714.49c-.196.215-.35.49-.462.826a3.775 3.775 0 0 0-.168 1.19c0 .457.056.854.168 1.19.112.336.266.616.462.84.205.215.443.378.714.49a2.5 2.5 0 0 0 .896.154Zm9.692-.336c-.196.411-.5.756-.91 1.036-.402.271-.929.406-1.582.406-.672 0-1.218-.187-1.638-.56-.411-.383-.616-.971-.616-1.764v-5.082h1.246v5.082c0 .243.032.443.098.602.074.149.172.271.294.364.121.093.261.159.42.196.168.037.35.056.546.056.541 0 .975-.121 1.302-.364.326-.243.606-.574.84-.994v-4.942h1.232v7.266h-1.092l-.112-1.302h-.028Zm5.578 1.442c-.383 0-.724-.033-1.022-.098a4.78 4.78 0 0 1-.77-.21 4.152 4.152 0 0 1-.546-.28 3.603 3.603 0 0 1-.35-.266v-1.106c.093.093.219.196.378.308.158.103.35.201.574.294.224.093.476.173.756.238.289.056.611.084.966.084.522 0 .938-.084 1.246-.252.308-.168.462-.453.462-.854 0-.215-.052-.387-.154-.518a.939.939 0 0 0-.392-.308 2.429 2.429 0 0 0-.588-.196 30.242 30.242 0 0 0-.686-.14 24.244 24.244 0 0 1-.91-.21 3.182 3.182 0 0 1-.812-.35 1.898 1.898 0 0 1-.588-.602c-.15-.252-.224-.579-.224-.98 0-.653.252-1.167.756-1.54.513-.373 1.227-.56 2.142-.56.513 0 .966.051 1.358.154.401.103.709.215.924.336v1.106a3.3 3.3 0 0 0-.91-.392c-.355-.112-.798-.168-1.33-.168-.551 0-.976.075-1.274.224-.29.149-.434.42-.434.812a.82.82 0 0 0 .126.476c.084.112.196.205.336.28.149.065.317.117.504.154.186.037.382.079.588.126.317.065.644.135.98.21.336.075.634.191.896.35.27.159.49.373.658.644.177.261.266.616.266 1.064 0 .42-.084.77-.252 1.05a1.93 1.93 0 0 1-.672.672 2.86 2.86 0 0 1-.938.336c-.346.075-.7.112-1.064.112Zm10.225-.756a3.919 3.919 0 0 1-.378.238 4.34 4.34 0 0 1-.546.252 4.604 4.604 0 0 1-.728.182 4.51 4.51 0 0 1-.91.084c-1.223 0-2.151-.331-2.786-.994-.635-.663-.952-1.591-.952-2.786 0-.588.084-1.115.252-1.582.177-.467.42-.859.728-1.176a3.025 3.025 0 0 1 1.092-.742 3.49 3.49 0 0 1 1.372-.266 3.5 3.5 0 0 1 1.4.266c.411.177.747.439 1.008.784.271.345.453.775.546 1.288.103.504.103 1.092 0 1.764h-5.124c.047.784.28 1.372.7 1.764.42.383 1.045.574 1.876.574.56 0 1.041-.079 1.442-.238a5.07 5.07 0 0 0 1.008-.518v1.106Zm-2.884-5.698c-.532 0-.989.163-1.372.49-.383.327-.625.821-.728 1.484h3.906c.037-.672-.117-1.167-.462-1.484-.345-.327-.793-.49-1.344-.49Z"/>
        <rect width="113" height="42" x="559" y="276" fill="#fff" stroke="#67B0F8" stroke-width="2" rx="4"/>
        <path fill="#18123D" d="M612.156 301.973c-.271 0-.49-.084-.658-.252a.884.884 0 0 1-.252-.63c0-.261.084-.476.252-.644.168-.168.387-.252.658-.252.261 0 .476.084.644.252a.873.873 0 0 1 .252.644.884.884 0 0 1-.252.63.873.873 0 0 1-.644.252Zm3.349 0c-.27 0-.49-.084-.658-.252a.884.884 0 0 1-.252-.63c0-.261.084-.476.252-.644.168-.168.388-.252.658-.252.262 0 .476.084.644.252a.873.873 0 0 1 .252.644.884.884 0 0 1-.252.63.871.871 0 0 1-.644.252Zm3.35 0c-.271 0-.49-.084-.658-.252a.884.884 0 0 1-.252-.63c0-.261.084-.476.252-.644.168-.168.387-.252.658-.252.261 0 .476.084.644.252a.873.873 0 0 1 .252.644.884.884 0 0 1-.252.63.873.873 0 0 1-.644.252Z"/>
        <rect width="113" height="42" x="559" y="211" fill="#fff" stroke="#67B0F8" stroke-width="2" rx="4"/>
        <path fill="#18123D" d="M573.654 237.029a5.264 5.264 0 0 1-1.89-.336 4.344 4.344 0 0 1-1.526-1.008c-.43-.439-.77-.98-1.022-1.624-.243-.644-.364-1.386-.364-2.226 0-.84.121-1.577.364-2.212.252-.644.592-1.176 1.022-1.596a4.14 4.14 0 0 1 1.526-.966 5.264 5.264 0 0 1 1.89-.336c.681 0 1.316.112 1.904.336a4.147 4.147 0 0 1 1.526.966c.429.429.765.966 1.008 1.61.242.635.364 1.372.364 2.212 0 .831-.122 1.568-.364 2.212a4.622 4.622 0 0 1-1.008 1.624c-.43.439-.938.775-1.526 1.008a5.305 5.305 0 0 1-1.904.336Zm0-1.19c.485 0 .933-.07 1.344-.21.41-.149.765-.378 1.064-.686.308-.317.546-.728.714-1.232.177-.504.266-1.115.266-1.834 0-.719-.089-1.33-.266-1.834-.168-.504-.406-.91-.714-1.218a2.596 2.596 0 0 0-1.064-.686 3.916 3.916 0 0 0-1.344-.224c-.486 0-.934.075-1.344.224-.411.14-.77.369-1.078.686-.299.308-.537.714-.714 1.218-.168.504-.252 1.115-.252 1.834 0 .719.084 1.33.252 1.834.177.504.415.915.714 1.232.308.308.667.537 1.078.686.41.14.858.21 1.344.21Zm13.293-2.59c0 .644-.088 1.204-.266 1.68a3.494 3.494 0 0 1-.714 1.176 2.992 2.992 0 0 1-1.036.7 3.436 3.436 0 0 1-1.232.224c-.56 0-1.05-.131-1.47-.392a2.88 2.88 0 0 1-.98-1.12l-.042 1.372h-1.162v-10.038h1.232l-.028 4.186c.243-.476.57-.854.98-1.134.411-.28.92-.42 1.526-.42.42 0 .822.079 1.204.238.392.149.733.383 1.022.7.299.308.532.7.7 1.176.178.467.266 1.017.266 1.652Zm-3.43 2.674c.644 0 1.162-.219 1.554-.658.402-.448.602-1.12.602-2.016 0-.877-.2-1.54-.602-1.988-.392-.457-.91-.686-1.554-.686-.317 0-.616.056-.896.168-.27.112-.508.28-.714.504a2.45 2.45 0 0 0-.476.826 3.723 3.723 0 0 0-.168 1.176c0 .448.056.84.168 1.176.122.336.28.616.476.84.206.224.444.392.714.504.28.103.579.154.896.154Zm5.651-7.364a.795.795 0 0 1-.588-.224.805.805 0 0 1-.224-.574c0-.224.074-.415.224-.574a.768.768 0 0 1 .588-.238c.242 0 .434.079.574.238a.81.81 0 0 1 .224.574.81.81 0 0 1-.224.574c-.14.149-.332.224-.574.224Zm.616 8.946c0 .271-.038.527-.112.77a1.575 1.575 0 0 1-.364.63 1.57 1.57 0 0 1-.616.434 2.194 2.194 0 0 1-.896.168c-.187 0-.392-.023-.616-.07a2.183 2.183 0 0 1-.658-.224v-1.19c.13.103.284.191.462.266.177.075.378.112.602.112.354 0 .602-.084.742-.252a.895.895 0 0 0 .224-.616v-7.91h1.232v7.882Zm7.787-1.232a3.685 3.685 0 0 1-.378.238 4.34 4.34 0 0 1-.546.252 4.576 4.576 0 0 1-.728.182c-.27.056-.574.084-.91.084-1.222 0-2.151-.331-2.786-.994-.634-.663-.952-1.591-.952-2.786 0-.588.084-1.115.252-1.582.178-.467.42-.859.728-1.176a3.024 3.024 0 0 1 1.092-.742 3.5 3.5 0 0 1 1.372-.266c.523 0 .99.089 1.4.266.411.177.747.439 1.008.784.271.345.453.775.546 1.288.103.504.103 1.092 0 1.764h-5.124c.047.784.28 1.372.7 1.764.42.383 1.046.574 1.876.574.56 0 1.041-.079 1.442-.238a5.015 5.015 0 0 0 1.008-.518v1.106Zm-2.884-5.698c-.532 0-.989.163-1.372.49-.382.327-.625.821-.728 1.484h3.906c.038-.672-.116-1.167-.462-1.484-.345-.327-.793-.49-1.344-.49Zm7.662 6.454c-.56 0-1.069-.084-1.526-.252a3.335 3.335 0 0 1-1.148-.742 3.277 3.277 0 0 1-.728-1.19c-.168-.467-.252-.999-.252-1.596 0-.588.084-1.115.252-1.582.177-.467.425-.859.742-1.176a3.065 3.065 0 0 1 1.162-.742 4.277 4.277 0 0 1 1.554-.266c.448 0 .859.051 1.232.154.373.093.681.233.924.42v1.106a3.263 3.263 0 0 0-1.008-.434 4.145 4.145 0 0 0-1.134-.154c-.849 0-1.475.219-1.876.658-.392.439-.588 1.111-.588 2.016s.191 1.577.574 2.016c.383.439.989.658 1.82.658.439 0 .84-.051 1.204-.154a4.969 4.969 0 0 0 1.008-.42v1.106a4.29 4.29 0 0 1-2.212.574Zm7.338-.294a2.252 2.252 0 0 1-.574.21 3.171 3.171 0 0 1-.742.084c-.355 0-.658-.051-.91-.154a1.76 1.76 0 0 1-.602-.406 1.72 1.72 0 0 1-.35-.588 2.452 2.452 0 0 1-.098-.686v-4.522h-.868v-1.05h.868v-1.526h1.232v1.526h2.114v1.05h-2.114v4.368c0 .308.075.532.224.672.159.14.434.21.826.21.364 0 .695-.103.994-.308v1.12Zm7.684.294a7.04 7.04 0 0 1-1.232-.098 5.95 5.95 0 0 1-.966-.224 4.995 4.995 0 0 1-.7-.322 2.744 2.744 0 0 1-.448-.35v-1.26c.14.121.322.247.546.378.224.121.48.233.77.336.298.103.616.187.952.252a5.81 5.81 0 0 0 1.078.098c.728 0 1.306-.135 1.736-.406.429-.28.644-.7.644-1.26 0-.28-.052-.509-.154-.686a1.245 1.245 0 0 0-.448-.462 2.608 2.608 0 0 0-.742-.322 20.18 20.18 0 0 0-1.022-.294 18.704 18.704 0 0 1-1.176-.35 4.327 4.327 0 0 1-1.064-.518 2.622 2.622 0 0 1-.756-.812c-.187-.327-.28-.742-.28-1.246 0-.868.303-1.545.91-2.03.606-.485 1.535-.728 2.786-.728.364 0 .686.023.966.07.289.037.541.089.756.154.224.056.415.121.574.196.168.075.317.145.448.21v1.26a3.94 3.94 0 0 0-1.274-.532 6.055 6.055 0 0 0-1.47-.168c-.448 0-.826.037-1.134.112a1.993 1.993 0 0 0-.728.294 1.158 1.158 0 0 0-.406.476 1.521 1.521 0 0 0-.126.63c0 .28.06.513.182.7.13.187.298.345.504.476.214.121.457.224.728.308.27.084.555.159.854.224.392.093.793.201 1.204.322.41.121.779.289 1.106.504.326.215.592.495.798.84.214.336.322.775.322 1.316 0 .532-.108.985-.322 1.358a2.628 2.628 0 0 1-.826.896 3.518 3.518 0 0 1-1.19.504 6.232 6.232 0 0 1-1.4.154Zm8.791-.294c-.15.084-.341.154-.574.21a3.177 3.177 0 0 1-.742.084c-.355 0-.658-.051-.91-.154a1.75 1.75 0 0 1-.602-.406 1.705 1.705 0 0 1-.35-.588 2.416 2.416 0 0 1-.098-.686v-4.522h-.868v-1.05h.868v-1.526h1.232v1.526h2.114v1.05h-2.114v4.368c0 .308.074.532.224.672.158.14.434.21.826.21.364 0 .695-.103.994-.308v1.12Zm4.553.294c-.495 0-.957-.084-1.386-.252a3.224 3.224 0 0 1-1.12-.728 3.542 3.542 0 0 1-.728-1.19c-.178-.467-.266-1.003-.266-1.61 0-.597.088-1.129.266-1.596.177-.476.42-.873.728-1.19.317-.317.69-.56 1.12-.728a3.767 3.767 0 0 1 1.386-.252c.504 0 .97.084 1.4.252.429.168.798.411 1.106.728.317.317.564.714.742 1.19.186.467.28.999.28 1.596 0 .607-.094 1.143-.28 1.61a3.448 3.448 0 0 1-.742 1.19c-.308.317-.677.56-1.106.728-.43.168-.896.252-1.4.252Zm0-1.106c.326 0 .625-.051.896-.154.28-.112.522-.275.728-.49.205-.224.364-.504.476-.84.112-.336.168-.733.168-1.19 0-.457-.056-.854-.168-1.19a2.17 2.17 0 0 0-.476-.826 1.838 1.838 0 0 0-.728-.49 2.325 2.325 0 0 0-.896-.168c-.327 0-.626.056-.896.168a1.849 1.849 0 0 0-.714.49c-.196.215-.35.49-.462.826a3.775 3.775 0 0 0-.168 1.19c0 .457.056.854.168 1.19.112.336.266.616.462.84.205.215.443.378.714.49.27.103.569.154.896.154Zm8.627-5.068a3.795 3.795 0 0 0-1.428.406c-.42.215-.732.551-.938 1.008v4.62h-1.232v-7.266h1.078l.126 1.582h.028c.206-.429.5-.803.882-1.12.392-.327.887-.527 1.484-.602v1.372Zm5.621 4.648a4.24 4.24 0 0 1-.322.532 2.419 2.419 0 0 1-1.19.854c-.261.093-.569.14-.924.14-.653 0-1.18-.182-1.582-.546-.401-.373-.602-.905-.602-1.596 0-.793.276-1.377.826-1.75.56-.373 1.354-.56 2.38-.56h1.358v-.602c0-.504-.13-.863-.392-1.078-.261-.215-.709-.322-1.344-.322-.448 0-.872.075-1.274.224-.401.14-.76.303-1.078.49v-1.106a5.438 5.438 0 0 1 1.05-.462 4.367 4.367 0 0 1 1.47-.238c.915 0 1.61.191 2.086.574.476.373.714.957.714 1.75v4.2c.01.103.014.21.014.322l.028.322c.01.093.019.173.028.238h-1.12a6.439 6.439 0 0 1-.084-.546 8.754 8.754 0 0 1-.028-.63l-.014-.21Zm-2.17.42c.383 0 .71-.079.98-.238.271-.159.49-.341.658-.546.168-.215.29-.42.364-.616.075-.205.112-.35.112-.434v-.532h-1.232c-.737 0-1.274.107-1.61.322-.326.205-.49.518-.49.938 0 .327.098.593.294.798.196.205.504.308.924.308Zm11.527.35c0 .467-.07.891-.21 1.274a2.29 2.29 0 0 1-.644.994c-.289.271-.667.481-1.134.63-.457.149-1.012.224-1.666.224-.354 0-.667-.019-.938-.056a4.345 4.345 0 0 1-.714-.154 2.562 2.562 0 0 1-.504-.196 2.377 2.377 0 0 1-.35-.196v-1.106c.15.084.304.159.462.224a4.105 4.105 0 0 0 1.204.322c.252.037.537.056.854.056.896 0 1.522-.168 1.876-.504.355-.336.532-.835.532-1.498v-1.12a2.637 2.637 0 0 1-.91 1.036c-.382.261-.858.392-1.428.392a3.44 3.44 0 0 1-1.232-.224 3.058 3.058 0 0 1-1.022-.658 3.414 3.414 0 0 1-.7-1.106c-.168-.448-.252-.966-.252-1.554 0-.597.084-1.115.252-1.554.178-.448.411-.821.7-1.12a2.914 2.914 0 0 1 1.036-.672 3.48 3.48 0 0 1 1.246-.224c.579 0 1.064.131 1.456.392.402.261.714.616.938 1.064l.014-.154c0-.168.01-.369.028-.602.019-.243.038-.429.056-.56h1.12c-.018.131-.037.317-.056.56a16.97 16.97 0 0 0-.014.602v5.488Zm-3.346-.784c.308 0 .588-.047.84-.14.262-.103.486-.257.672-.462.196-.205.346-.457.448-.756a3.15 3.15 0 0 0 .168-1.078c0-.831-.205-1.451-.616-1.862-.401-.411-.91-.616-1.526-.616a2.42 2.42 0 0 0-.868.154c-.261.103-.49.257-.686.462a2.285 2.285 0 0 0-.448.784 3.15 3.15 0 0 0-.168 1.078c0 .411.056.77.168 1.078.112.299.266.551.462.756.196.196.425.345.686.448.271.103.56.154.868.154Zm11.129.784a3.919 3.919 0 0 1-.378.238c-.15.084-.332.168-.546.252a4.632 4.632 0 0 1-.728.182 4.51 4.51 0 0 1-.91.084c-1.223 0-2.152-.331-2.786-.994-.635-.663-.952-1.591-.952-2.786 0-.588.084-1.115.252-1.582.177-.467.42-.859.728-1.176a3.024 3.024 0 0 1 1.092-.742c.42-.177.877-.266 1.372-.266.522 0 .989.089 1.4.266.41.177.746.439 1.008.784.27.345.452.775.546 1.288.102.504.102 1.092 0 1.764h-5.124c.046.784.28 1.372.7 1.764.42.383 1.045.574 1.876.574.56 0 1.04-.079 1.442-.238a5.07 5.07 0 0 0 1.008-.518v1.106Zm-2.884-5.698c-.532 0-.99.163-1.372.49-.383.327-.626.821-.728 1.484h3.906c.037-.672-.117-1.167-.462-1.484-.346-.327-.794-.49-1.344-.49Z"/>
        <rect width="113" height="42" x="559" y="146" fill="#fff" stroke="#67B0F8" stroke-width="2" rx="4"/>
        <path fill="#18123D" d="M606.732 167.535v4.354h-1.344v-4.312l-3.43-5.726h1.512l2.632 4.564 2.688-4.564h1.344l-3.402 5.684Zm4.858-5.684h3.374c.672 0 1.297.079 1.876.238.579.159 1.083.42 1.512.784.429.364.765.845 1.008 1.442s.364 1.335.364 2.212c0 .887-.126 1.666-.378 2.338-.243.663-.583 1.218-1.022 1.666a4.208 4.208 0 0 1-1.554 1.022 5.54 5.54 0 0 1-1.96.336h-3.22v-10.038Zm1.316 1.204v7.644h1.904c.513 0 .985-.079 1.414-.238a2.864 2.864 0 0 0 1.106-.728c.308-.336.546-.761.714-1.274.168-.513.252-1.125.252-1.834 0-.7-.084-1.279-.252-1.736-.168-.467-.401-.835-.7-1.106a2.333 2.333 0 0 0-1.05-.56 5.041 5.041 0 0 0-1.33-.168h-2.058Zm8.569-1.204h3.402c1.101 0 1.937.187 2.506.56.579.373.868 1.003.868 1.89 0 .364-.051.681-.154.952a2.03 2.03 0 0 1-.406.686 1.995 1.995 0 0 1-.63.462 3.464 3.464 0 0 1-.812.28c.784.093 1.372.322 1.764.686.401.355.602.896.602 1.624 0 .523-.098.971-.294 1.344a2.419 2.419 0 0 1-.784.896 3.726 3.726 0 0 1-1.19.504 6.819 6.819 0 0 1-1.498.154h-3.374v-10.038Zm1.316 1.204v3.08h1.988c.317 0 .607-.033.868-.098.261-.075.485-.182.672-.322.187-.149.331-.331.434-.546.112-.224.168-.49.168-.798 0-.513-.177-.859-.532-1.036-.355-.187-.859-.28-1.512-.28h-2.086Zm0 4.27v3.374h2.058c.355 0 .677-.028.966-.084.289-.056.537-.149.742-.28.215-.131.378-.303.49-.518.121-.215.182-.481.182-.798 0-.635-.205-1.073-.616-1.316-.401-.252-1.041-.378-1.918-.378h-1.904Z"/>
        <rect width="113" height="91" x="401" y="11" fill="#fff" stroke="#67B0F8" stroke-width="2" rx="4"/>
        <path fill="#18123D" d="M444.552 53.473c-.746 0-1.423-.116-2.03-.35a4.454 4.454 0 0 1-1.568-1.008 4.63 4.63 0 0 1-.994-1.624c-.233-.644-.35-1.367-.35-2.17 0-.812.108-1.535.322-2.17a4.27 4.27 0 0 1 .952-1.61c.42-.448.934-.788 1.54-1.022.616-.233 1.316-.35 2.1-.35.682 0 1.279.075 1.792.224.514.14.934.308 1.26.504v1.26a4.638 4.638 0 0 0-1.456-.602 6.839 6.839 0 0 0-1.61-.196c-1.185 0-2.062.332-2.632.994-.56.654-.84 1.643-.84 2.968 0 1.335.304 2.329.91 2.982.616.654 1.522.98 2.716.98.514 0 1.013-.07 1.498-.21.495-.14.966-.378 1.414-.714v1.26c-.27.215-.667.411-1.19.588-.513.178-1.124.266-1.834.266Zm6.103-10.178v10.038h-1.232V43.295h1.232Zm4.99 10.178c-.494 0-.956-.084-1.386-.252a3.238 3.238 0 0 1-1.12-.728 3.56 3.56 0 0 1-.728-1.19c-.177-.466-.266-1.003-.266-1.61 0-.597.089-1.129.266-1.596a3.38 3.38 0 0 1 .728-1.19c.318-.317.691-.56 1.12-.728.43-.168.892-.252 1.386-.252.504 0 .971.084 1.4.252.43.168.798.411 1.106.728.318.318.565.714.742 1.19.187.467.28.999.28 1.596 0 .607-.093 1.144-.28 1.61a3.42 3.42 0 0 1-.742 1.19c-.308.318-.676.56-1.106.728a3.807 3.807 0 0 1-1.4.252Zm0-1.106c.327 0 .626-.051.896-.154a2.04 2.04 0 0 0 .728-.49 2.29 2.29 0 0 0 .476-.84 3.77 3.77 0 0 0 .168-1.19c0-.457-.056-.854-.168-1.19a2.155 2.155 0 0 0-.476-.826 1.827 1.827 0 0 0-.728-.49 2.318 2.318 0 0 0-.896-.168c-.326 0-.625.056-.896.168-.27.103-.508.266-.714.49-.196.215-.35.49-.462.826a3.773 3.773 0 0 0-.168 1.19c0 .458.056.854.168 1.19.112.336.266.616.462.84.206.215.444.378.714.49.271.103.57.154.896.154Zm9.692-.336a2.6 2.6 0 0 1-.91 1.036c-.401.271-.929.406-1.582.406-.672 0-1.218-.186-1.638-.56-.411-.382-.616-.97-.616-1.764v-5.082h1.246v5.082c0 .243.033.444.098.602a1.032 1.032 0 0 0 .714.56c.168.038.35.056.546.056.541 0 .975-.121 1.302-.364a3.06 3.06 0 0 0 .84-.994v-4.942h1.232v7.266h-1.092l-.112-1.302h-.028Zm8.462-.126a2.918 2.918 0 0 1-.938 1.148c-.401.28-.91.42-1.526.42a3.47 3.47 0 0 1-1.246-.224 2.997 2.997 0 0 1-1.036-.7 3.502 3.502 0 0 1-.714-1.176c-.177-.476-.266-1.036-.266-1.68 0-.634.089-1.185.266-1.652.177-.476.415-.868.714-1.176.299-.317.644-.55 1.036-.7a3.393 3.393 0 0 1 1.26-.238c.551 0 1.027.117 1.428.35.401.224.723.546.966.966v-3.948h1.232v10.038h-1.078l-.098-1.428Zm-2.282.462c.317 0 .611-.051.882-.154.271-.112.504-.28.7-.504.205-.224.364-.504.476-.84.121-.336.182-.728.182-1.176 0-.448-.061-.84-.182-1.176a2.305 2.305 0 0 0-.476-.84 1.735 1.735 0 0 0-.7-.49 2.287 2.287 0 0 0-.882-.168c-.644 0-1.171.229-1.582.686-.401.448-.602 1.111-.602 1.988 0 .887.205 1.554.616 2.002.411.448.933.672 1.568.672Zm-43.794 6.928h6.132V60.5h-4.816v3.332h4.088v1.19h-4.088v4.312h-1.316V59.295Zm12.246 8.736c-.196.411-.5.756-.91 1.036-.402.271-.929.406-1.582.406-.672 0-1.218-.186-1.638-.56-.411-.382-.616-.97-.616-1.764v-5.082h1.246v5.082c0 .243.032.444.098.602.074.15.172.271.294.364.121.094.261.159.42.196.168.038.35.056.546.056.541 0 .975-.121 1.302-.364.326-.242.606-.574.84-.994v-4.942h1.232v7.266h-1.092l-.112-1.302h-.028Zm6.698-5.012c-.56 0-1.018.131-1.372.392a2.849 2.849 0 0 0-.84.98v4.942h-1.232v-7.266h1.162l.042 1.302h.028a2.46 2.46 0 0 1 .924-1.036c.42-.27.952-.406 1.596-.406.718 0 1.288.192 1.708.574.429.374.644.952.644 1.736v5.096h-1.232v-4.97c0-.504-.126-.854-.378-1.05-.252-.196-.602-.294-1.05-.294Zm7.745 6.454c-.56 0-1.069-.084-1.526-.252a3.337 3.337 0 0 1-1.148-.742 3.264 3.264 0 0 1-.728-1.19c-.168-.466-.252-.998-.252-1.596 0-.588.084-1.115.252-1.582.177-.466.424-.858.742-1.176a3.06 3.06 0 0 1 1.162-.742 4.268 4.268 0 0 1 1.554-.266c.448 0 .858.052 1.232.154.373.094.681.234.924.42v1.106a3.27 3.27 0 0 0-1.008-.434 4.156 4.156 0 0 0-1.134-.154c-.85 0-1.475.22-1.876.658-.392.439-.588 1.111-.588 2.016 0 .906.191 1.578.574 2.016.382.439.989.658 1.82.658.438 0 .84-.051 1.204-.154a4.969 4.969 0 0 0 1.008-.42V68.9a4.29 4.29 0 0 1-2.212.574Zm7.337-.294c-.149.084-.34.154-.574.21-.233.056-.48.084-.742.084-.354 0-.658-.051-.91-.154a1.765 1.765 0 0 1-.602-.406 1.744 1.744 0 0 1-.35-.588 2.45 2.45 0 0 1-.098-.686v-4.522h-.868v-1.05h.868v-1.526h1.232v1.526h2.114v1.05h-2.114v4.368c0 .308.075.532.224.672.159.14.434.21.826.21.364 0 .696-.102.994-.308v1.12Zm2.27-8.176c-.252 0-.453-.074-.602-.224a.805.805 0 0 1-.224-.574c0-.224.074-.415.224-.574.149-.158.35-.238.602-.238.242 0 .434.08.574.238.14.159.21.35.21.574 0 .224-.07.416-.21.574-.14.15-.332.224-.574.224Zm.602 1.064v7.266h-1.232v-7.266h1.232Zm4.99 7.406c-.495 0-.957-.084-1.386-.252a3.229 3.229 0 0 1-1.12-.728 3.543 3.543 0 0 1-.728-1.19c-.177-.466-.266-1.003-.266-1.61 0-.597.089-1.129.266-1.596.177-.476.42-.872.728-1.19.317-.317.691-.56 1.12-.728a3.767 3.767 0 0 1 1.386-.252c.504 0 .971.084 1.4.252.429.168.798.411 1.106.728.317.318.565.714.742 1.19.187.467.28.999.28 1.596 0 .607-.093 1.144-.28 1.61a3.434 3.434 0 0 1-.742 1.19c-.308.318-.677.56-1.106.728a3.807 3.807 0 0 1-1.4.252Zm0-1.106a2.5 2.5 0 0 0 .896-.154 2.04 2.04 0 0 0 .728-.49c.205-.224.364-.504.476-.84a3.77 3.77 0 0 0 .168-1.19c0-.457-.056-.854-.168-1.19a2.168 2.168 0 0 0-.476-.826 1.827 1.827 0 0 0-.728-.49 2.322 2.322 0 0 0-.896-.168c-.327 0-.625.056-.896.168a1.844 1.844 0 0 0-.714.49c-.196.215-.35.49-.462.826a3.773 3.773 0 0 0-.168 1.19c0 .458.056.854.168 1.19.112.336.266.616.462.84.205.215.443.378.714.49a2.5 2.5 0 0 0 .896.154Zm8.474-5.348c-.56 0-1.018.131-1.372.392a2.849 2.849 0 0 0-.84.98v4.942h-1.232v-7.266h1.162l.042 1.302h.028a2.46 2.46 0 0 1 .924-1.036c.42-.27.952-.406 1.596-.406.718 0 1.288.192 1.708.574.429.374.644.952.644 1.736v5.096h-1.232v-4.97c0-.504-.126-.854-.378-1.05-.252-.196-.602-.294-1.05-.294Zm6.932 6.454c-.382 0-.723-.032-1.022-.098a4.808 4.808 0 0 1-.77-.21 4.295 4.295 0 0 1-.546-.28 3.75 3.75 0 0 1-.35-.266v-1.106c.094.094.22.196.378.308.159.103.35.201.574.294.224.094.476.173.756.238.29.056.612.084.966.084.523 0 .938-.084 1.246-.252.308-.168.462-.452.462-.854 0-.214-.051-.387-.154-.518a.932.932 0 0 0-.392-.308 2.412 2.412 0 0 0-.588-.196 27.685 27.685 0 0 0-.686-.14 26.46 26.46 0 0 1-.91-.21 3.202 3.202 0 0 1-.812-.35 1.92 1.92 0 0 1-.588-.602c-.149-.252-.224-.578-.224-.98 0-.653.252-1.166.756-1.54.514-.373 1.228-.56 2.142-.56.514 0 .966.052 1.358.154.402.103.71.215.924.336v1.106a3.283 3.283 0 0 0-.91-.392c-.354-.112-.798-.168-1.33-.168-.55 0-.975.075-1.274.224-.289.15-.434.42-.434.812a.82.82 0 0 0 .126.476 1 1 0 0 0 .336.28c.15.066.318.117.504.154.187.038.383.08.588.126.318.066.644.136.98.21.336.075.635.192.896.35.271.159.49.374.658.644.178.262.266.616.266 1.064 0 .42-.084.77-.252 1.05a1.93 1.93 0 0 1-.672.672 2.86 2.86 0 0 1-.938.336c-.345.075-.7.112-1.064.112Z"/>
        <rect width="113" height="91" x="401" y="244" fill="#fff" stroke="#67B0F8" stroke-width="2" rx="4"/>
        <path fill="#18123D" d="M425.509 284.295h1.96l3.598 10.038h-1.4l-1.036-2.87h-4.438l-1.022 2.87h-1.232l3.57-10.038Zm2.702 5.978-1.792-4.998-1.792 4.998h3.584Zm7.803 4.2c-.56 0-1.045-.13-1.456-.392a2.849 2.849 0 0 1-.966-1.078v3.808h-1.232v-9.744h1.078l.126 1.414c.243-.476.57-.854.98-1.134.411-.28.92-.42 1.526-.42.42 0 .822.08 1.204.238.392.15.733.383 1.022.7.299.308.532.7.7 1.176.178.467.266 1.018.266 1.652 0 .644-.088 1.204-.266 1.68a3.494 3.494 0 0 1-.714 1.176 2.979 2.979 0 0 1-1.036.7c-.392.15-.802.224-1.232.224Zm-.182-1.106c.644 0 1.162-.219 1.554-.658.402-.448.602-1.12.602-2.016 0-.877-.2-1.54-.602-1.988-.392-.457-.91-.686-1.554-.686-.317 0-.616.056-.896.168-.27.112-.508.28-.714.504a2.45 2.45 0 0 0-.476.826 3.723 3.723 0 0 0-.168 1.176c0 .448.056.84.168 1.176.122.336.28.616.476.84.206.224.444.392.714.504.28.103.579.154.896.154Zm8.577 1.106c-.56 0-1.045-.13-1.456-.392a2.849 2.849 0 0 1-.966-1.078v3.808h-1.232v-9.744h1.078l.126 1.414a2.98 2.98 0 0 1 .98-1.134c.411-.28.919-.42 1.526-.42.42 0 .821.08 1.204.238.392.15.733.383 1.022.7.299.308.532.7.7 1.176.177.467.266 1.018.266 1.652 0 .644-.089 1.204-.266 1.68a3.494 3.494 0 0 1-.714 1.176 2.988 2.988 0 0 1-1.036.7c-.392.15-.803.224-1.232.224Zm-.182-1.106c.644 0 1.162-.219 1.554-.658.401-.448.602-1.12.602-2.016 0-.877-.201-1.54-.602-1.988-.392-.457-.91-.686-1.554-.686-.317 0-.616.056-.896.168a1.99 1.99 0 0 0-.714.504c-.196.215-.355.49-.476.826a3.723 3.723 0 0 0-.168 1.176c0 .448.056.84.168 1.176.121.336.28.616.476.84.205.224.443.392.714.504.28.103.579.154.896.154Zm6.155-9.072v10.038h-1.232v-10.038h1.232Zm2.638 1.708c-.252 0-.453-.074-.602-.224a.804.804 0 0 1-.224-.574c0-.224.074-.415.224-.574.149-.158.35-.238.602-.238.242 0 .434.08.574.238.14.159.21.35.21.574 0 .224-.07.416-.21.574-.14.15-.332.224-.574.224Zm.602 1.064v7.266h-1.232v-7.266h1.232Zm5.144 7.406c-.56 0-1.069-.084-1.526-.252a3.32 3.32 0 0 1-1.148-.742 3.268 3.268 0 0 1-.728-1.19c-.168-.466-.252-.998-.252-1.596 0-.588.084-1.115.252-1.582a3.3 3.3 0 0 1 .742-1.176 3.077 3.077 0 0 1 1.162-.742 4.277 4.277 0 0 1 1.554-.266c.448 0 .859.052 1.232.154.373.094.681.234.924.42v1.106a3.287 3.287 0 0 0-1.008-.434 4.183 4.183 0 0 0-1.134-.154c-.849 0-1.475.22-1.876.658-.392.439-.588 1.111-.588 2.016 0 .906.191 1.578.574 2.016.383.439.989.658 1.82.658.439 0 .84-.051 1.204-.154a4.969 4.969 0 0 0 1.008-.42v1.106a4.29 4.29 0 0 1-2.212.574Zm7.97-1.526a4.288 4.288 0 0 1-.322.532 2.419 2.419 0 0 1-1.19.854c-.262.094-.57.14-.924.14-.654 0-1.181-.182-1.582-.546-.402-.373-.602-.905-.602-1.596 0-.793.275-1.376.826-1.75.56-.373 1.353-.56 2.38-.56h1.358v-.602c0-.504-.131-.863-.392-1.078-.262-.214-.71-.322-1.344-.322a3.63 3.63 0 0 0-1.274.224c-.402.14-.761.304-1.078.49v-1.106a5.506 5.506 0 0 1 1.05-.462 4.392 4.392 0 0 1 1.47-.238c.914 0 1.61.192 2.086.574.476.374.714.957.714 1.75v4.2c.009.103.014.21.014.322.009.112.018.22.028.322.009.094.018.173.028.238h-1.12a6.31 6.31 0 0 1-.084-.546 8.168 8.168 0 0 1-.028-.63l-.014-.21Zm-2.17.42c.382 0 .709-.079.98-.238.27-.158.49-.34.658-.546a2.41 2.41 0 0 0 .364-.616c.074-.205.112-.35.112-.434v-.532h-1.232c-.738 0-1.274.108-1.61.322-.327.206-.49.518-.49.938 0 .327.098.593.294.798.196.206.504.308.924.308Zm8.839.812c-.15.084-.341.154-.574.21a3.177 3.177 0 0 1-.742.084c-.355 0-.658-.051-.91-.154a1.736 1.736 0 0 1-.602-.406 1.705 1.705 0 0 1-.35-.588 2.41 2.41 0 0 1-.098-.686v-4.522h-.868v-1.05h.868v-1.526h1.232v1.526h2.114v1.05h-2.114v4.368c0 .308.074.532.224.672.158.14.434.21.826.21.364 0 .695-.102.994-.308v1.12Zm2.269-8.176c-.252 0-.453-.074-.602-.224a.808.808 0 0 1-.224-.574.81.81 0 0 1 .224-.574c.149-.158.35-.238.602-.238.243 0 .434.08.574.238.14.159.21.35.21.574 0 .224-.07.416-.21.574-.14.15-.331.224-.574.224Zm.602 1.064v7.266h-1.232v-7.266h1.232Zm4.99 7.406c-.494 0-.956-.084-1.386-.252a3.228 3.228 0 0 1-1.12-.728 3.548 3.548 0 0 1-.728-1.19c-.177-.466-.266-1.003-.266-1.61 0-.597.089-1.129.266-1.596.178-.476.42-.872.728-1.19.318-.317.691-.56 1.12-.728.43-.168.892-.252 1.386-.252.504 0 .971.084 1.4.252.43.168.798.411 1.106.728.318.318.565.714.742 1.19.187.467.28.999.28 1.596 0 .607-.093 1.144-.28 1.61a3.41 3.41 0 0 1-.742 1.19c-.308.318-.676.56-1.106.728a3.807 3.807 0 0 1-1.4.252Zm0-1.106c.327 0 .626-.051.896-.154a2.04 2.04 0 0 0 .728-.49 2.29 2.29 0 0 0 .476-.84 3.77 3.77 0 0 0 .168-1.19c0-.457-.056-.854-.168-1.19a2.158 2.158 0 0 0-.476-.826 1.831 1.831 0 0 0-.728-.49 2.318 2.318 0 0 0-.896-.168c-.326 0-.625.056-.896.168-.27.103-.508.266-.714.49-.196.215-.35.49-.462.826a3.775 3.775 0 0 0-.168 1.19c0 .458.056.854.168 1.19.112.336.266.616.462.84.206.215.444.378.714.49.271.103.57.154.896.154Zm8.474-5.348c-.56 0-1.017.131-1.372.392a2.874 2.874 0 0 0-.84.98v4.942h-1.232v-7.266h1.162l.042 1.302h.028a2.46 2.46 0 0 1 .924-1.036c.42-.27.952-.406 1.596-.406.719 0 1.288.192 1.708.574.429.374.644.952.644 1.736v5.096h-1.232v-4.97c0-.504-.126-.854-.378-1.05-.252-.196-.602-.294-1.05-.294Z"/>
        <rect width="113" height="91" x="401" y="127" fill="#fff" stroke="#67B0F8" stroke-width="2" rx="4"/>
        <path fill="#18123D" d="M423.015 164.979v4.354h-1.344v-4.312l-3.43-5.726h1.512l2.632 4.564 2.688-4.564h1.344l-3.402 5.684Zm8.181 2.968a4.288 4.288 0 0 1-.322.532 2.419 2.419 0 0 1-1.19.854c-.262.094-.57.14-.924.14-.654 0-1.181-.182-1.582-.546-.402-.373-.602-.905-.602-1.596 0-.793.275-1.376.826-1.75.56-.373 1.353-.56 2.38-.56h1.358v-.602c0-.504-.131-.863-.392-1.078-.262-.214-.71-.322-1.344-.322a3.63 3.63 0 0 0-1.274.224c-.402.14-.761.304-1.078.49v-1.106a5.506 5.506 0 0 1 1.05-.462 4.392 4.392 0 0 1 1.47-.238c.914 0 1.61.192 2.086.574.476.374.714.957.714 1.75v4.2c.009.103.014.21.014.322.009.112.018.22.028.322.009.094.018.173.028.238h-1.12a6.31 6.31 0 0 1-.084-.546 8.168 8.168 0 0 1-.028-.63l-.014-.21Zm-2.17.42c.382 0 .709-.079.98-.238.27-.158.49-.34.658-.546a2.41 2.41 0 0 0 .364-.616c.074-.205.112-.35.112-.434v-.532h-1.232c-.738 0-1.274.108-1.61.322-.327.206-.49.518-.49.938 0 .327.098.593.294.798.196.206.504.308.924.308Zm8.727-5.348c-.56 0-1.018.131-1.372.392a2.853 2.853 0 0 0-.84.98v4.942h-1.232v-7.266h1.162l.042 1.302h.028a2.46 2.46 0 0 1 .924-1.036c.42-.27.952-.406 1.596-.406.718 0 1.288.192 1.708.574.429.374.644.952.644 1.736v5.096h-1.232v-4.97c0-.504-.126-.854-.378-1.05-.252-.196-.602-.294-1.05-.294Zm9.816 4.886a2.907 2.907 0 0 1-.938 1.148c-.401.28-.91.42-1.526.42-.438 0-.854-.074-1.246-.224a2.988 2.988 0 0 1-1.036-.7 3.526 3.526 0 0 1-.714-1.176c-.177-.476-.266-1.036-.266-1.68 0-.634.089-1.185.266-1.652.178-.476.416-.868.714-1.176.299-.317.644-.55 1.036-.7a3.415 3.415 0 0 1 1.26-.238c.551 0 1.027.117 1.428.35.402.224.724.546.966.966v-3.948h1.232v10.038h-1.078l-.098-1.428Zm-2.282.462c.318 0 .612-.051.882-.154.271-.112.504-.28.7-.504a2.29 2.29 0 0 0 .476-.84c.122-.336.182-.728.182-1.176 0-.448-.06-.84-.182-1.176a2.29 2.29 0 0 0-.476-.84 1.739 1.739 0 0 0-.7-.49 2.28 2.28 0 0 0-.882-.168c-.644 0-1.171.229-1.582.686-.401.448-.602 1.111-.602 1.988 0 .887.206 1.554.616 2.002.411.448.934.672 1.568.672Zm11.251.35a3.919 3.919 0 0 1-.378.238 4.34 4.34 0 0 1-.546.252 4.497 4.497 0 0 1-.728.182 4.51 4.51 0 0 1-.91.084c-1.223 0-2.151-.331-2.786-.994-.635-.662-.952-1.591-.952-2.786 0-.588.084-1.115.252-1.582.177-.466.42-.858.728-1.176a3.037 3.037 0 0 1 1.092-.742c.42-.177.877-.266 1.372-.266.523 0 .989.089 1.4.266a2.47 2.47 0 0 1 1.008.784c.271.346.453.775.546 1.288.103.504.103 1.092 0 1.764h-5.124c.047.784.28 1.372.7 1.764.42.383 1.045.574 1.876.574.56 0 1.041-.079 1.442-.238a5.017 5.017 0 0 0 1.008-.518v1.106Zm-2.884-5.698c-.532 0-.989.164-1.372.49-.383.327-.625.822-.728 1.484h3.906c.037-.672-.117-1.166-.462-1.484-.345-.326-.793-.49-1.344-.49Zm6.907 3.43-1.96 2.884h-1.288l2.632-3.766-2.324-3.5h1.428l1.736 2.562 1.75-2.562h1.274l-2.408 3.472 2.534 3.794h-1.428l-1.946-2.884Zm7.836-7.154h3.374c.672 0 1.297.08 1.876.238.578.159 1.082.42 1.512.784.429.364.765.845 1.008 1.442.242.598.364 1.335.364 2.212 0 .887-.126 1.666-.378 2.338-.243.663-.584 1.218-1.022 1.666-.43.448-.948.789-1.554 1.022a5.544 5.544 0 0 1-1.96.336h-3.22v-10.038Zm1.316 1.204v7.644h1.904c.513 0 .984-.079 1.414-.238a2.853 2.853 0 0 0 1.106-.728c.308-.336.546-.76.714-1.274.168-.513.252-1.124.252-1.834 0-.7-.084-1.278-.252-1.736-.168-.466-.402-.835-.7-1.106-.29-.27-.64-.457-1.05-.56a5.041 5.041 0 0 0-1.33-.168h-2.058Zm12.656 7.448a4.17 4.17 0 0 1-.322.532 2.449 2.449 0 0 1-1.19.854 2.73 2.73 0 0 1-.924.14c-.653 0-1.18-.182-1.582-.546-.401-.373-.602-.905-.602-1.596 0-.793.276-1.376.826-1.75.56-.373 1.354-.56 2.38-.56h1.358v-.602c0-.504-.13-.863-.392-1.078-.261-.214-.709-.322-1.344-.322-.448 0-.872.075-1.274.224-.401.14-.76.304-1.078.49v-1.106a5.564 5.564 0 0 1 1.05-.462 4.392 4.392 0 0 1 1.47-.238c.915 0 1.61.192 2.086.574.476.374.714.957.714 1.75v4.2c.01.103.014.21.014.322l.028.322c.01.094.019.173.028.238h-1.12a6.31 6.31 0 0 1-.084-.546 8.706 8.706 0 0 1-.028-.63l-.014-.21Zm-2.17.42c.383 0 .71-.079.98-.238.271-.158.49-.34.658-.546.168-.214.29-.42.364-.616.075-.205.112-.35.112-.434v-.532h-1.232c-.737 0-1.274.108-1.61.322-.326.206-.49.518-.49.938 0 .327.098.593.294.798.196.206.504.308.924.308Zm8.84.812c-.15.084-.341.154-.574.21a3.177 3.177 0 0 1-.742.084c-.355 0-.658-.051-.91-.154a1.736 1.736 0 0 1-.602-.406 1.705 1.705 0 0 1-.35-.588 2.41 2.41 0 0 1-.098-.686v-4.522h-.868v-1.05h.868v-1.526h1.232v1.526h2.114v1.05h-2.114v4.368c0 .308.074.532.224.672.158.14.434.21.826.21.364 0 .695-.102.994-.308v1.12Zm5.895-1.232a4.17 4.17 0 0 1-.322.532 2.419 2.419 0 0 1-1.19.854 2.73 2.73 0 0 1-.924.14c-.653 0-1.181-.182-1.582-.546-.401-.373-.602-.905-.602-1.596 0-.793.275-1.376.826-1.75.56-.373 1.353-.56 2.38-.56h1.358v-.602c0-.504-.131-.863-.392-1.078-.261-.214-.709-.322-1.344-.322a3.63 3.63 0 0 0-1.274.224c-.401.14-.761.304-1.078.49v-1.106a5.506 5.506 0 0 1 1.05-.462 4.392 4.392 0 0 1 1.47-.238c.915 0 1.61.192 2.086.574.476.374.714.957.714 1.75v4.2c.009.103.014.21.014.322l.028.322c.009.094.019.173.028.238h-1.12a6.31 6.31 0 0 1-.084-.546 8.168 8.168 0 0 1-.028-.63l-.014-.21Zm-2.17.42c.383 0 .709-.079.98-.238.271-.158.49-.34.658-.546a2.41 2.41 0 0 0 .364-.616c.075-.205.112-.35.112-.434v-.532h-1.232c-.737 0-1.274.108-1.61.322-.327.206-.49.518-.49.938 0 .327.098.593.294.798.196.206.504.308.924.308Zm-56.499 8.146v8.82h-1.33v-8.82h-3.094v-1.218h7.518v1.218h-3.094Zm7.309 2.786a3.784 3.784 0 0 0-1.428.406c-.42.215-.733.551-.938 1.008v4.62h-1.232v-7.266h1.078l.126 1.582h.028c.205-.429.499-.802.882-1.12.392-.326.886-.527 1.484-.602v1.372Zm5.621 4.648a4.288 4.288 0 0 1-.322.532 2.419 2.419 0 0 1-1.19.854c-.262.094-.57.14-.924.14-.654 0-1.181-.182-1.582-.546-.402-.373-.602-.905-.602-1.596 0-.793.275-1.376.826-1.75.56-.373 1.353-.56 2.38-.56h1.358v-.602c0-.504-.131-.863-.392-1.078-.262-.214-.71-.322-1.344-.322a3.63 3.63 0 0 0-1.274.224c-.402.14-.761.304-1.078.49v-1.106a5.506 5.506 0 0 1 1.05-.462 4.392 4.392 0 0 1 1.47-.238c.914 0 1.61.192 2.086.574.476.374.714.957.714 1.75v4.2c.009.103.014.21.014.322.009.112.018.22.028.322.009.094.018.173.028.238h-1.12a6.31 6.31 0 0 1-.084-.546 8.168 8.168 0 0 1-.028-.63l-.014-.21Zm-2.17.42c.382 0 .709-.079.98-.238.27-.158.49-.34.658-.546a2.41 2.41 0 0 0 .364-.616c.074-.205.112-.35.112-.434v-.532h-1.232c-.738 0-1.274.108-1.61.322-.327.206-.49.518-.49.938 0 .327.098.593.294.798.196.206.504.308.924.308Zm8.727-5.348c-.56 0-1.018.131-1.372.392a2.853 2.853 0 0 0-.84.98v4.942h-1.232v-7.266h1.162l.042 1.302h.028a2.46 2.46 0 0 1 .924-1.036c.42-.27.952-.406 1.596-.406.718 0 1.288.192 1.708.574.429.374.644.952.644 1.736v5.096h-1.232v-4.97c0-.504-.126-.854-.378-1.05-.252-.196-.602-.294-1.05-.294Zm6.932 6.454c-.382 0-.723-.032-1.022-.098a4.808 4.808 0 0 1-.77-.21 4.156 4.156 0 0 1-.546-.28 3.567 3.567 0 0 1-.35-.266v-1.106c.094.094.22.196.378.308.159.103.35.201.574.294.224.094.476.173.756.238.29.056.612.084.966.084.523 0 .938-.084 1.246-.252.308-.168.462-.452.462-.854 0-.214-.051-.387-.154-.518a.94.94 0 0 0-.392-.308 2.429 2.429 0 0 0-.588-.196 33.876 33.876 0 0 0-.686-.14 24.708 24.708 0 0 1-.91-.21 3.178 3.178 0 0 1-.812-.35 1.909 1.909 0 0 1-.588-.602c-.149-.252-.224-.578-.224-.98 0-.653.252-1.166.756-1.54.514-.373 1.228-.56 2.142-.56.514 0 .966.052 1.358.154.402.103.71.215.924.336v1.106a3.316 3.316 0 0 0-.91-.392c-.354-.112-.798-.168-1.33-.168-.55 0-.975.075-1.274.224-.289.15-.434.42-.434.812a.82.82 0 0 0 .126.476.992.992 0 0 0 .336.28c.15.066.318.117.504.154.187.038.383.08.588.126.318.066.644.136.98.21.336.075.635.192.896.35.271.159.49.374.658.644.178.262.266.616.266 1.064 0 .42-.084.77-.252 1.05a1.93 1.93 0 0 1-.672.672c-.27.159-.583.271-.938.336-.345.075-.7.112-1.064.112Zm6.11-6.356v6.216h-1.232v-6.216h-.882v-1.05h.882v-.182c0-.858.229-1.526.686-2.002.457-.476 1.083-.714 1.876-.714.345 0 .653.042.924.126v1.12a1.653 1.653 0 0 0-.364-.098 2.904 2.904 0 0 0-.504-.042c-.429 0-.77.131-1.022.392-.243.262-.364.668-.364 1.218v.182h2.1v1.05h-2.1Zm9.052 5.6a3.919 3.919 0 0 1-.378.238c-.15.084-.332.168-.546.252a4.524 4.524 0 0 1-.728.182 4.51 4.51 0 0 1-.91.084c-1.223 0-2.152-.331-2.786-.994-.635-.662-.952-1.591-.952-2.786 0-.588.084-1.115.252-1.582.177-.466.42-.858.728-1.176a3.037 3.037 0 0 1 1.092-.742c.42-.177.877-.266 1.372-.266.522 0 .989.089 1.4.266.41.178.746.439 1.008.784.27.346.452.775.546 1.288.102.504.102 1.092 0 1.764h-5.124c.046.784.28 1.372.7 1.764.42.383 1.045.574 1.876.574.56 0 1.04-.079 1.442-.238a5.017 5.017 0 0 0 1.008-.518v1.106Zm-2.884-5.698c-.532 0-.99.164-1.372.49-.383.327-.626.822-.728 1.484h3.906c.037-.672-.117-1.166-.462-1.484-.346-.326-.794-.49-1.344-.49Zm8.123.28a3.795 3.795 0 0 0-1.428.406c-.42.215-.732.551-.938 1.008v4.62h-1.232v-7.266h1.078l.126 1.582h.028c.206-.429.5-.802.882-1.12.392-.326.887-.527 1.484-.602v1.372Z"/>
        <rect width="113" height="324" x="263" y="11" fill="#fff" stroke="#67B0F8" stroke-width="2" rx="4"/>
        <path fill="#18123D" d="M285.015 164.868v4.354h-1.344v-4.312l-3.43-5.726h1.512l2.632 4.564 2.688-4.564h1.344l-3.402 5.684Zm8.181 2.968a4.288 4.288 0 0 1-.322.532 2.419 2.419 0 0 1-1.19.854c-.262.094-.57.14-.924.14-.654 0-1.181-.182-1.582-.546-.402-.373-.602-.905-.602-1.596 0-.793.275-1.376.826-1.75.56-.373 1.353-.56 2.38-.56h1.358v-.602c0-.504-.131-.863-.392-1.078-.262-.214-.71-.322-1.344-.322a3.63 3.63 0 0 0-1.274.224c-.402.14-.761.304-1.078.49v-1.106a5.506 5.506 0 0 1 1.05-.462 4.392 4.392 0 0 1 1.47-.238c.914 0 1.61.192 2.086.574.476.374.714.957.714 1.75v4.2c.009.103.014.21.014.322.009.112.018.22.028.322.009.094.018.173.028.238h-1.12a6.31 6.31 0 0 1-.084-.546 8.168 8.168 0 0 1-.028-.63l-.014-.21Zm-2.17.42c.382 0 .709-.079.98-.238.27-.158.49-.34.658-.546a2.41 2.41 0 0 0 .364-.616c.074-.205.112-.35.112-.434v-.532h-1.232c-.738 0-1.274.108-1.61.322-.327.206-.49.518-.49.938 0 .327.098.593.294.798.196.206.504.308.924.308Zm8.727-5.348c-.56 0-1.018.131-1.372.392a2.853 2.853 0 0 0-.84.98v4.942h-1.232v-7.266h1.162l.042 1.302h.028a2.46 2.46 0 0 1 .924-1.036c.42-.27.952-.406 1.596-.406.718 0 1.288.192 1.708.574.429.374.644.952.644 1.736v5.096h-1.232v-4.97c0-.504-.126-.854-.378-1.05-.252-.196-.602-.294-1.05-.294Zm9.816 4.886a2.907 2.907 0 0 1-.938 1.148c-.401.28-.91.42-1.526.42-.438 0-.854-.074-1.246-.224a2.988 2.988 0 0 1-1.036-.7 3.526 3.526 0 0 1-.714-1.176c-.177-.476-.266-1.036-.266-1.68 0-.634.089-1.185.266-1.652.178-.476.416-.868.714-1.176.299-.317.644-.55 1.036-.7a3.415 3.415 0 0 1 1.26-.238c.551 0 1.027.117 1.428.35.402.224.724.546.966.966v-3.948h1.232v10.038h-1.078l-.098-1.428Zm-2.282.462c.318 0 .612-.051.882-.154.271-.112.504-.28.7-.504a2.29 2.29 0 0 0 .476-.84c.122-.336.182-.728.182-1.176 0-.448-.06-.84-.182-1.176a2.29 2.29 0 0 0-.476-.84 1.739 1.739 0 0 0-.7-.49 2.28 2.28 0 0 0-.882-.168c-.644 0-1.171.229-1.582.686-.401.448-.602 1.111-.602 1.988 0 .887.206 1.554.616 2.002.411.448.934.672 1.568.672Zm11.251.35a3.919 3.919 0 0 1-.378.238 4.34 4.34 0 0 1-.546.252 4.497 4.497 0 0 1-.728.182 4.51 4.51 0 0 1-.91.084c-1.223 0-2.151-.331-2.786-.994-.635-.662-.952-1.591-.952-2.786 0-.588.084-1.115.252-1.582.177-.466.42-.858.728-1.176a3.037 3.037 0 0 1 1.092-.742c.42-.177.877-.266 1.372-.266.523 0 .989.089 1.4.266a2.47 2.47 0 0 1 1.008.784c.271.346.453.775.546 1.288.103.504.103 1.092 0 1.764h-5.124c.047.784.28 1.372.7 1.764.42.383 1.045.574 1.876.574.56 0 1.041-.079 1.442-.238a5.017 5.017 0 0 0 1.008-.518v1.106Zm-2.884-5.698c-.532 0-.989.164-1.372.49-.383.327-.625.822-.728 1.484h3.906c.037-.672-.117-1.166-.462-1.484-.345-.326-.793-.49-1.344-.49Zm6.907 3.43-1.96 2.884h-1.288l2.632-3.766-2.324-3.5h1.428l1.736 2.562 1.75-2.562h1.274l-2.408 3.472 2.534 3.794h-1.428l-1.946-2.884Zm7.836-7.154h3.374c.672 0 1.297.08 1.876.238.578.159 1.082.42 1.512.784.429.364.765.845 1.008 1.442.242.598.364 1.335.364 2.212 0 .887-.126 1.666-.378 2.338-.243.663-.584 1.218-1.022 1.666-.43.448-.948.789-1.554 1.022a5.544 5.544 0 0 1-1.96.336h-3.22v-10.038Zm1.316 1.204v7.644h1.904c.513 0 .984-.079 1.414-.238a2.853 2.853 0 0 0 1.106-.728c.308-.336.546-.76.714-1.274.168-.513.252-1.124.252-1.834 0-.7-.084-1.278-.252-1.736-.168-.466-.402-.835-.7-1.106-.29-.27-.64-.457-1.05-.56a5.041 5.041 0 0 0-1.33-.168h-2.058Zm12.656 7.448a4.17 4.17 0 0 1-.322.532 2.449 2.449 0 0 1-1.19.854 2.73 2.73 0 0 1-.924.14c-.653 0-1.18-.182-1.582-.546-.401-.373-.602-.905-.602-1.596 0-.793.276-1.376.826-1.75.56-.373 1.354-.56 2.38-.56h1.358v-.602c0-.504-.13-.863-.392-1.078-.261-.214-.709-.322-1.344-.322-.448 0-.872.075-1.274.224-.401.14-.76.304-1.078.49v-1.106a5.564 5.564 0 0 1 1.05-.462 4.392 4.392 0 0 1 1.47-.238c.915 0 1.61.192 2.086.574.476.374.714.957.714 1.75v4.2c.01.103.014.21.014.322l.028.322c.01.094.019.173.028.238h-1.12a6.31 6.31 0 0 1-.084-.546 8.706 8.706 0 0 1-.028-.63l-.014-.21Zm-2.17.42c.383 0 .71-.079.98-.238.271-.158.49-.34.658-.546.168-.214.29-.42.364-.616.075-.205.112-.35.112-.434v-.532h-1.232c-.737 0-1.274.108-1.61.322-.326.206-.49.518-.49.938 0 .327.098.593.294.798.196.206.504.308.924.308Zm8.84.812c-.15.084-.341.154-.574.21a3.177 3.177 0 0 1-.742.084c-.355 0-.658-.051-.91-.154a1.736 1.736 0 0 1-.602-.406 1.705 1.705 0 0 1-.35-.588 2.41 2.41 0 0 1-.098-.686v-4.522h-.868v-1.05h.868v-1.526h1.232v1.526h2.114v1.05h-2.114v4.368c0 .308.074.532.224.672.158.14.434.21.826.21.364 0 .695-.102.994-.308v1.12Zm5.895-1.232a4.17 4.17 0 0 1-.322.532 2.419 2.419 0 0 1-1.19.854 2.73 2.73 0 0 1-.924.14c-.653 0-1.181-.182-1.582-.546-.401-.373-.602-.905-.602-1.596 0-.793.275-1.376.826-1.75.56-.373 1.353-.56 2.38-.56h1.358v-.602c0-.504-.131-.863-.392-1.078-.261-.214-.709-.322-1.344-.322a3.63 3.63 0 0 0-1.274.224c-.401.14-.761.304-1.078.49v-1.106a5.506 5.506 0 0 1 1.05-.462 4.392 4.392 0 0 1 1.47-.238c.915 0 1.61.192 2.086.574.476.374.714.957.714 1.75v4.2c.009.103.014.21.014.322l.028.322c.009.094.019.173.028.238h-1.12a6.31 6.31 0 0 1-.084-.546 8.168 8.168 0 0 1-.028-.63l-.014-.21Zm-2.17.42c.383 0 .709-.079.98-.238.271-.158.49-.34.658-.546a2.41 2.41 0 0 0 .364-.616c.075-.205.112-.35.112-.434v-.532h-1.232c-.737 0-1.274.108-1.61.322-.327.206-.49.518-.49.938 0 .327.098.593.294.798.196.206.504.308.924.308Zm-57.394 18.106c-.458 0-.868-.032-1.232-.098a5.847 5.847 0 0 1-.966-.224 4.884 4.884 0 0 1-.7-.322 2.744 2.744 0 0 1-.448-.35v-1.26c.14.122.322.248.546.378.224.122.48.234.77.336.298.103.616.187.952.252.345.066.704.098 1.078.098.728 0 1.306-.135 1.736-.406.429-.28.644-.7.644-1.26 0-.28-.052-.508-.154-.686a1.26 1.26 0 0 0-.448-.462 2.637 2.637 0 0 0-.742-.322 20.18 20.18 0 0 0-1.022-.294 18.06 18.06 0 0 1-1.176-.35 4.292 4.292 0 0 1-1.064-.518 2.61 2.61 0 0 1-.756-.812c-.187-.326-.28-.742-.28-1.246 0-.868.303-1.544.91-2.03.606-.485 1.535-.728 2.786-.728.364 0 .686.024.966.07a4.8 4.8 0 0 1 .756.154c.224.056.415.122.574.196.168.075.317.145.448.21v1.26a3.94 3.94 0 0 0-1.274-.532 6.055 6.055 0 0 0-1.47-.168c-.448 0-.826.038-1.134.112a2.028 2.028 0 0 0-.728.294c-.187.131-.322.29-.406.476a1.521 1.521 0 0 0-.126.63c0 .28.06.514.182.7.13.187.298.346.504.476.214.122.457.224.728.308.27.084.555.159.854.224.392.094.793.201 1.204.322.41.122.779.29 1.106.504.326.215.592.495.798.84.214.336.322.775.322 1.316 0 .532-.108.985-.322 1.358a2.628 2.628 0 0 1-.826.896 3.479 3.479 0 0 1-1.19.504 6.232 6.232 0 0 1-1.4.154Zm8.791-.294c-.15.084-.341.154-.574.21a3.177 3.177 0 0 1-.742.084c-.355 0-.658-.051-.91-.154a1.736 1.736 0 0 1-.602-.406 1.705 1.705 0 0 1-.35-.588 2.41 2.41 0 0 1-.098-.686v-4.522h-.868v-1.05h.868v-1.526h1.232v1.526h2.114v1.05h-2.114v4.368c0 .308.074.532.224.672.158.14.434.21.826.21.364 0 .695-.102.994-.308v1.12Zm5.237-5.88a3.784 3.784 0 0 0-1.428.406c-.42.215-.733.551-.938 1.008v4.62H307.8v-7.266h1.078l.126 1.582h.028c.205-.429.499-.802.882-1.12.392-.326.887-.527 1.484-.602v1.372Zm7.078 5.418a3.685 3.685 0 0 1-.378.238 4.34 4.34 0 0 1-.546.252 4.471 4.471 0 0 1-.728.182c-.27.056-.574.084-.91.084-1.222 0-2.151-.331-2.786-.994-.634-.662-.952-1.591-.952-2.786 0-.588.084-1.115.252-1.582.178-.466.42-.858.728-1.176a3.037 3.037 0 0 1 1.092-.742 3.5 3.5 0 0 1 1.372-.266c.523 0 .99.089 1.4.266a2.47 2.47 0 0 1 1.008.784c.271.346.453.775.546 1.288.103.504.103 1.092 0 1.764h-5.124c.047.784.28 1.372.7 1.764.42.383 1.046.574 1.876.574.56 0 1.041-.079 1.442-.238a4.964 4.964 0 0 0 1.008-.518v1.106Zm-2.884-5.698c-.532 0-.989.164-1.372.49-.382.327-.625.822-.728 1.484h3.906c.038-.672-.116-1.166-.462-1.484-.345-.326-.793-.49-1.344-.49Zm8.782 4.928a4.17 4.17 0 0 1-.322.532 2.449 2.449 0 0 1-1.19.854 2.73 2.73 0 0 1-.924.14c-.653 0-1.18-.182-1.582-.546-.401-.373-.602-.905-.602-1.596 0-.793.276-1.376.826-1.75.56-.373 1.354-.56 2.38-.56h1.358v-.602c0-.504-.13-.863-.392-1.078-.261-.214-.709-.322-1.344-.322-.448 0-.872.075-1.274.224-.401.14-.76.304-1.078.49v-1.106a5.564 5.564 0 0 1 1.05-.462 4.392 4.392 0 0 1 1.47-.238c.915 0 1.61.192 2.086.574.476.374.714.957.714 1.75v4.2c.01.103.014.21.014.322l.028.322c.01.094.019.173.028.238h-1.12a6.31 6.31 0 0 1-.084-.546 8.706 8.706 0 0 1-.028-.63l-.014-.21Zm-2.17.42c.383 0 .71-.079.98-.238.271-.158.49-.34.658-.546.168-.214.29-.42.364-.616.075-.205.112-.35.112-.434v-.532h-1.232c-.737 0-1.274.108-1.61.322-.326.206-.49.518-.49.938 0 .327.098.593.294.798.196.206.504.308.924.308Zm6.515.966h-1.232v-7.266h1.078l.126 1.302h.028c.196-.41.49-.751.882-1.022.392-.28.906-.42 1.54-.42.56 0 1.018.136 1.372.406.364.262.607.658.728 1.19.206-.494.518-.882.938-1.162.43-.289.948-.434 1.554-.434.672 0 1.204.192 1.596.574.392.374.588.952.588 1.736v5.096h-1.246v-4.942c0-.476-.116-.821-.35-1.036-.233-.224-.55-.336-.952-.336-.27 0-.508.042-.714.126a1.703 1.703 0 0 0-.546.322c-.158.14-.303.304-.434.49-.13.187-.252.383-.364.588v4.788h-1.232v-5.082c0-.466-.116-.788-.35-.966-.233-.177-.55-.266-.952-.266-.261 0-.494.033-.7.098a2 2 0 0 0-.56.28 2.259 2.259 0 0 0-.434.448c-.13.168-.252.355-.364.56v4.928Zm13.452.14c-.383 0-.724-.032-1.022-.098a4.78 4.78 0 0 1-.77-.21 4.033 4.033 0 0 1-.546-.28 3.449 3.449 0 0 1-.35-.266v-1.106c.093.094.219.196.378.308.158.103.35.201.574.294.224.094.476.173.756.238.289.056.611.084.966.084.522 0 .938-.084 1.246-.252.308-.168.462-.452.462-.854 0-.214-.052-.387-.154-.518a.947.947 0 0 0-.392-.308 2.429 2.429 0 0 0-.588-.196 36.946 36.946 0 0 0-.686-.14 24.244 24.244 0 0 1-.91-.21c-.299-.084-.57-.2-.812-.35a1.888 1.888 0 0 1-.588-.602c-.15-.252-.224-.578-.224-.98 0-.653.252-1.166.756-1.54.513-.373 1.227-.56 2.142-.56.513 0 .966.052 1.358.154.401.103.709.215.924.336v1.106a3.33 3.33 0 0 0-.91-.392c-.355-.112-.798-.168-1.33-.168-.551 0-.976.075-1.274.224-.29.15-.434.42-.434.812a.82.82 0 0 0 .126.476.992.992 0 0 0 .336.28c.149.066.317.117.504.154.186.038.382.08.588.126.317.066.644.136.98.21.336.075.634.192.896.35.27.159.49.374.658.644.177.262.266.616.266 1.064 0 .42-.084.77-.252 1.05a1.93 1.93 0 0 1-.672.672 2.86 2.86 0 0 1-.938.336c-.346.075-.7.112-1.064.112Z"/>
        <path fill="#000" fill-opacity=".7" d="m538.988 173-10-5.774v11.548l10-5.774ZM515 174h14.987v-2H515v2ZM399.988 290l-10-5.774v11.548l10-5.774ZM376 291h14.987v-2H376v2ZM261.988 173l-10-5.774v11.548l10-5.774ZM238 174h14.987v-2H238v2Zm202-70.988-5.774 10h11.548l-5.774-10ZM441 126v-13.989h-2V126h2Zm28-.012 5.774-10h-11.548l5.774 10ZM468 103v13.989h2V103h-2Zm-68.012 70-10-5.774v11.548l10-5.774ZM377 174h13.989v-2H377v2Z"/>
        <path fill="#18123D" d="M188.906 278.962h1.96L194.464 289h-1.4l-1.036-2.87h-4.438l-1.022 2.87h-1.232l3.57-10.038Zm2.702 5.978-1.792-4.998-1.792 4.998h3.584Zm4.317-5.978h3.206c1.139 0 2.021.238 2.646.714.635.467.952 1.199.952 2.198 0 .569-.093 1.059-.28 1.47a2.584 2.584 0 0 1-.756.994 3.153 3.153 0 0 1-1.176.574 5.741 5.741 0 0 1-1.498.182h-1.778V289h-1.316v-10.038Zm1.316 1.204v3.738h1.778c.355 0 .677-.037.966-.112.289-.075.537-.191.742-.35.215-.159.378-.364.49-.616.121-.261.182-.574.182-.938 0-.607-.196-1.045-.588-1.316-.392-.271-.952-.406-1.68-.406h-1.89Zm8.545-1.204V289h-1.316v-10.038h1.316Zm-28.126 23.104a4.79 4.79 0 0 1-.266 1.624 3.369 3.369 0 0 1-.784 1.288 3.653 3.653 0 0 1-1.344.854c-.532.205-1.162.308-1.89.308a5.049 5.049 0 0 1-1.946-.364 4.446 4.446 0 0 1-1.512-1.05 4.717 4.717 0 0 1-.98-1.624c-.233-.635-.35-1.339-.35-2.114 0-.775.112-1.479.336-2.114a4.456 4.456 0 0 1 .98-1.624 4.42 4.42 0 0 1 1.624-1.036c.644-.252 1.386-.378 2.226-.378.429 0 .812.028 1.148.084.345.056.649.126.91.21.261.084.485.177.672.28.196.103.364.201.504.294v1.26a9.576 9.576 0 0 0-.686-.364 4.578 4.578 0 0 0-.756-.308 5.498 5.498 0 0 0-.854-.196 6.325 6.325 0 0 0-.98-.07c-.635 0-1.185.089-1.652.266-.457.177-.84.439-1.148.784a3.254 3.254 0 0 0-.672 1.246c-.149.485-.224 1.041-.224 1.666 0 1.251.294 2.226.882 2.926.597.691 1.423 1.036 2.478 1.036.523 0 .971-.065 1.344-.196.373-.14.677-.327.91-.56.233-.243.401-.527.504-.854.112-.336.168-.7.168-1.092v-.28h-3.234v-1.19h4.592v1.288Zm5.954 2.548a4.363 4.363 0 0 1-.322.532 2.444 2.444 0 0 1-1.19.854c-.262.093-.57.14-.924.14-.654 0-1.181-.182-1.582-.546-.402-.373-.602-.905-.602-1.596 0-.793.275-1.377.826-1.75.56-.373 1.353-.56 2.38-.56h1.358v-.602c0-.504-.131-.863-.392-1.078-.262-.215-.71-.322-1.344-.322a3.63 3.63 0 0 0-1.274.224c-.402.14-.761.303-1.078.49v-1.106a5.383 5.383 0 0 1 1.05-.462 4.367 4.367 0 0 1 1.47-.238c.914 0 1.61.191 2.086.574.476.373.714.957.714 1.75v4.2c.009.103.014.21.014.322.009.112.018.219.028.322.009.093.018.173.028.238h-1.12a6.439 6.439 0 0 1-.084-.546 8.21 8.21 0 0 1-.028-.63l-.014-.21Zm-2.17.42c.382 0 .709-.079.98-.238.27-.159.49-.341.658-.546.168-.215.289-.42.364-.616.074-.205.112-.35.112-.434v-.532h-1.232c-.738 0-1.274.107-1.61.322-.327.205-.49.518-.49.938 0 .327.098.593.294.798.196.205.504.308.924.308Zm8.839.812c-.15.084-.341.154-.574.21a3.177 3.177 0 0 1-.742.084c-.355 0-.658-.051-.91-.154a1.75 1.75 0 0 1-.602-.406 1.705 1.705 0 0 1-.35-.588 2.416 2.416 0 0 1-.098-.686v-4.522h-.868v-1.05h.868v-1.526h1.232v1.526h2.114v1.05h-2.114v4.368c0 .308.074.532.224.672.158.14.434.21.826.21.364 0 .695-.103.994-.308v1.12Zm7.353-.462a3.919 3.919 0 0 1-.378.238c-.15.084-.332.168-.546.252a4.632 4.632 0 0 1-.728.182 4.51 4.51 0 0 1-.91.084c-1.223 0-2.152-.331-2.786-.994-.635-.663-.952-1.591-.952-2.786 0-.588.084-1.115.252-1.582.177-.467.42-.859.728-1.176a3.024 3.024 0 0 1 1.092-.742c.42-.177.877-.266 1.372-.266.522 0 .989.089 1.4.266.41.177.746.439 1.008.784.27.345.452.775.546 1.288.102.504.102 1.092 0 1.764h-5.124c.046.784.28 1.372.7 1.764.42.383 1.045.574 1.876.574.56 0 1.04-.079 1.442-.238a5.07 5.07 0 0 0 1.008-.518v1.106Zm-2.884-5.698c-.532 0-.99.163-1.372.49-.383.327-.626.821-.728 1.484h3.906c.037-.672-.117-1.167-.462-1.484-.346-.327-.794-.49-1.344-.49ZM207.188 306h-1.89l-1.54-5.614-1.582 5.614h-1.834l-1.652-7.266h1.302l1.386 6.342 1.764-6.342h1.386l1.722 6.272 1.372-6.272h1.218L207.188 306Zm7.269-1.386a4.24 4.24 0 0 1-.322.532 2.419 2.419 0 0 1-1.19.854c-.261.093-.569.14-.924.14-.653 0-1.18-.182-1.582-.546-.401-.373-.602-.905-.602-1.596 0-.793.276-1.377.826-1.75.56-.373 1.354-.56 2.38-.56h1.358v-.602c0-.504-.13-.863-.392-1.078-.261-.215-.709-.322-1.344-.322-.448 0-.872.075-1.274.224-.401.14-.76.303-1.078.49v-1.106a5.438 5.438 0 0 1 1.05-.462 4.367 4.367 0 0 1 1.47-.238c.915 0 1.61.191 2.086.574.476.373.714.957.714 1.75v4.2c.01.103.014.21.014.322l.028.322c.01.093.019.173.028.238h-1.12a6.439 6.439 0 0 1-.084-.546 8.754 8.754 0 0 1-.028-.63l-.014-.21Zm-2.17.42c.383 0 .71-.079.98-.238.271-.159.49-.341.658-.546.168-.215.29-.42.364-.616.075-.205.112-.35.112-.434v-.532h-1.232c-.737 0-1.274.107-1.61.322-.326.205-.49.518-.49.938 0 .327.098.593.294.798.196.205.504.308.924.308Zm8.854.882a8.4 8.4 0 0 1-.532 1.148 3.837 3.837 0 0 1-.63.854 2.266 2.266 0 0 1-.784.518c-.29.121-.621.182-.994.182-.187 0-.36-.014-.518-.042a1.561 1.561 0 0 1-.434-.112v-1.19c.102.075.233.131.392.168.158.047.331.07.518.07.345 0 .63-.084.854-.252.224-.159.438-.415.644-.77l-2.954-7.756h1.358l2.31 6.132 2.296-6.132h1.19l-2.716 7.182Z"/>
        <circle cx="197" cy="247" r="25" fill="#5282FF"/>
        <path fill="#fff" d="M189.123 241.962h2.226L194.905 252h-1.75l-.924-2.632h-4.228l-.924 2.632h-1.498l3.542-10.038Zm2.59 5.95-1.596-4.522-1.596 4.522h3.192Zm4.498-5.95h3.276c1.213 0 2.156.243 2.828.728.672.485 1.008 1.255 1.008 2.31 0 .579-.094 1.078-.28 1.498-.187.42-.453.765-.798 1.036a3.309 3.309 0 0 1-1.232.602 6.483 6.483 0 0 1-1.596.182h-1.512V252h-1.694v-10.038Zm1.694 1.47v3.43h1.512c.681 0 1.218-.135 1.61-.406.392-.271.588-.737.588-1.4 0-.569-.182-.98-.546-1.232-.355-.261-.882-.392-1.582-.392h-1.582Zm8.668-1.47V252h-1.694v-10.038h1.694Z"/>
        <circle cx="197" cy="99" r="25" fill="#5282FF"/>
        <path fill="#fff" d="M185.943 99.744h-4.704V104h-1.694V93.962h1.694v4.326h4.704v-4.326h1.708V104h-1.708v-4.256Zm7.874-4.312V104h-1.708v-8.568h-3.052v-1.47h7.798v1.47h-3.038Zm8.64 0V104h-1.708v-8.568h-3.052v-1.47h7.798v1.47h-3.038Zm4.486-1.47h3.276c1.214 0 2.156.243 2.828.728.672.485 1.008 1.255 1.008 2.31 0 .579-.093 1.078-.28 1.498a2.66 2.66 0 0 1-.798 1.036c-.336.27-.746.471-1.232.602a6.483 6.483 0 0 1-1.596.182h-1.512V104h-1.694V93.962Zm1.694 1.47v3.43h1.512c.682 0 1.218-.135 1.61-.406.392-.27.588-.737.588-1.4 0-.57-.182-.98-.546-1.232-.354-.261-.882-.392-1.582-.392h-1.582Z"/>
        <path fill="#000" fill-opacity=".7" d="m155 48-10-5.773v11.547L155 48Zm-9-1H63v2h83v-2Zm-92 9v10h2V56h-2Zm9-9a9 9 0 0 0-9 9h2a7 7 0 0 1 7-7v-2Z"/>
        <rect width="74" height="29" x="66" y="10" fill="#fff" rx="5"/>
        <rect width="72" height="27" x="67" y="11" stroke="#000" stroke-opacity=".7" stroke-width="2" rx="4"/>
        <path fill="#18123D" d="M89.267 18.962h3.374c.672 0 1.297.08 1.876.238.579.159 1.083.42 1.512.784.43.364.765.845 1.008 1.442.242.597.364 1.335.364 2.212 0 .887-.126 1.666-.378 2.338-.243.663-.584 1.218-1.022 1.666-.43.448-.948.789-1.554 1.022a5.54 5.54 0 0 1-1.96.336h-3.22V18.962Zm1.316 1.204v7.644h1.904c.513 0 .985-.08 1.414-.238a2.86 2.86 0 0 0 1.106-.728c.308-.336.546-.76.714-1.274.168-.513.252-1.125.252-1.834 0-.7-.084-1.279-.252-1.736-.168-.467-.401-.835-.7-1.106-.29-.27-.64-.457-1.05-.56a5.04 5.04 0 0 0-1.33-.168h-2.058Zm12.657 7.448a4.34 4.34 0 0 1-.322.532 2.444 2.444 0 0 1-1.19.854c-.262.093-.57.14-.924.14-.654 0-1.181-.182-1.582-.546-.402-.373-.602-.905-.602-1.596 0-.793.275-1.377.826-1.75.56-.373 1.353-.56 2.38-.56h1.358v-.602c0-.504-.131-.863-.392-1.078-.262-.215-.71-.322-1.344-.322a3.63 3.63 0 0 0-1.274.224c-.402.14-.761.303-1.078.49v-1.106a5.43 5.43 0 0 1 1.05-.462 4.374 4.374 0 0 1 1.47-.238c.914 0 1.61.191 2.086.574.476.373.714.957.714 1.75v4.2c.009.103.014.21.014.322.009.112.018.22.028.322.009.093.018.173.028.238h-1.12a6.4 6.4 0 0 1-.084-.546 8.197 8.197 0 0 1-.028-.63l-.014-.21Zm-2.17.42c.382 0 .709-.08.98-.238.27-.159.49-.34.658-.546.168-.215.289-.42.364-.616.074-.205.112-.35.112-.434v-.532h-1.232c-.738 0-1.274.107-1.61.322-.327.205-.49.518-.49.938 0 .327.098.593.294.798.196.205.504.308.924.308Zm8.839.812c-.15.084-.341.154-.574.21a3.177 3.177 0 0 1-.742.084c-.355 0-.658-.051-.91-.154a1.746 1.746 0 0 1-.602-.406 1.71 1.71 0 0 1-.35-.588 2.414 2.414 0 0 1-.098-.686v-4.522h-.868v-1.05h.868v-1.526h1.232v1.526h2.114v1.05h-2.114v4.368c0 .308.074.532.224.672.158.14.434.21.826.21.364 0 .695-.103.994-.308v1.12Zm5.895-1.232a4.219 4.219 0 0 1-.322.532 2.444 2.444 0 0 1-1.19.854c-.261.093-.569.14-.924.14-.653 0-1.181-.182-1.582-.546-.401-.373-.602-.905-.602-1.596 0-.793.275-1.377.826-1.75.56-.373 1.353-.56 2.38-.56h1.358v-.602c0-.504-.131-.863-.392-1.078-.261-.215-.709-.322-1.344-.322a3.63 3.63 0 0 0-1.274.224c-.401.14-.761.303-1.078.49v-1.106a5.42 5.42 0 0 1 1.05-.462 4.374 4.374 0 0 1 1.47-.238c.915 0 1.61.191 2.086.574.476.373.714.957.714 1.75v4.2c.009.103.014.21.014.322l.028.322c.009.093.019.173.028.238h-1.12a6.4 6.4 0 0 1-.084-.546 8.197 8.197 0 0 1-.028-.63l-.014-.21Zm-2.17.42c.383 0 .709-.08.98-.238.271-.159.49-.34.658-.546.168-.215.289-.42.364-.616.075-.205.112-.35.112-.434v-.532h-1.232c-.737 0-1.274.107-1.61.322-.327.205-.49.518-.49.938 0 .327.098.593.294.798.196.205.504.308.924.308Z"/>
        <path fill="#000" fill-opacity=".7" d="m155 298-10 5.774v-11.548L155 298Zm-9 1H63v-2h83v2Zm-92-9v-10h2v10h-2Zm9 9a9 9 0 0 1-9-9h2a7 7 0 0 0 7 7v2Z"/>
        <rect width="74" height="29" x="66" y="307" fill="#fff" rx="5"/>
        <rect width="72" height="27" x="67" y="308" stroke="#000" stroke-opacity=".7" stroke-width="2" rx="4"/>
        <path fill="#18123D" d="M89.267 315.962h3.374c.672 0 1.297.079 1.876.238.579.159 1.083.42 1.512.784.43.364.765.845 1.008 1.442.242.597.364 1.335.364 2.212 0 .887-.126 1.666-.378 2.338-.243.663-.584 1.218-1.022 1.666-.43.448-.948.789-1.554 1.022a5.54 5.54 0 0 1-1.96.336h-3.22v-10.038Zm1.316 1.204v7.644h1.904c.513 0 .985-.079 1.414-.238a2.86 2.86 0 0 0 1.106-.728c.308-.336.546-.761.714-1.274.168-.513.252-1.125.252-1.834 0-.7-.084-1.279-.252-1.736-.168-.467-.401-.835-.7-1.106a2.336 2.336 0 0 0-1.05-.56 5.04 5.04 0 0 0-1.33-.168h-2.058Zm12.657 7.448a4.363 4.363 0 0 1-.322.532 2.444 2.444 0 0 1-1.19.854c-.262.093-.57.14-.924.14-.654 0-1.181-.182-1.582-.546-.402-.373-.602-.905-.602-1.596 0-.793.275-1.377.826-1.75.56-.373 1.353-.56 2.38-.56h1.358v-.602c0-.504-.131-.863-.392-1.078-.262-.215-.71-.322-1.344-.322a3.63 3.63 0 0 0-1.274.224c-.402.14-.761.303-1.078.49v-1.106a5.393 5.393 0 0 1 1.05-.462 4.367 4.367 0 0 1 1.47-.238c.914 0 1.61.191 2.086.574.476.373.714.957.714 1.75v4.2c.009.103.014.21.014.322.009.112.018.219.028.322.009.093.018.173.028.238h-1.12a6.439 6.439 0 0 1-.084-.546 8.21 8.21 0 0 1-.028-.63l-.014-.21Zm-2.17.42c.382 0 .709-.079.98-.238.27-.159.49-.341.658-.546.168-.215.289-.42.364-.616.074-.205.112-.35.112-.434v-.532h-1.232c-.738 0-1.274.107-1.61.322-.327.205-.49.518-.49.938 0 .327.098.593.294.798.196.205.504.308.924.308Zm8.839.812c-.15.084-.341.154-.574.21a3.177 3.177 0 0 1-.742.084c-.355 0-.658-.051-.91-.154a1.75 1.75 0 0 1-.602-.406 1.705 1.705 0 0 1-.35-.588 2.416 2.416 0 0 1-.098-.686v-4.522h-.868v-1.05h.868v-1.526h1.232v1.526h2.114v1.05h-2.114v4.368c0 .308.074.532.224.672.158.14.434.21.826.21.364 0 .695-.103.994-.308v1.12Zm5.895-1.232a4.24 4.24 0 0 1-.322.532 2.444 2.444 0 0 1-1.19.854c-.261.093-.569.14-.924.14-.653 0-1.181-.182-1.582-.546-.401-.373-.602-.905-.602-1.596 0-.793.275-1.377.826-1.75.56-.373 1.353-.56 2.38-.56h1.358v-.602c0-.504-.131-.863-.392-1.078-.261-.215-.709-.322-1.344-.322a3.63 3.63 0 0 0-1.274.224c-.401.14-.761.303-1.078.49v-1.106a5.383 5.383 0 0 1 1.05-.462 4.367 4.367 0 0 1 1.47-.238c.915 0 1.61.191 2.086.574.476.373.714.957.714 1.75v4.2c.009.103.014.21.014.322l.028.322c.009.093.019.173.028.238h-1.12a6.439 6.439 0 0 1-.084-.546 8.21 8.21 0 0 1-.028-.63l-.014-.21Zm-2.17.42c.383 0 .709-.079.98-.238.271-.159.49-.341.658-.546.168-.215.289-.42.364-.616.075-.205.112-.35.112-.434v-.532h-1.232c-.737 0-1.274.107-1.61.322-.327.205-.49.518-.49.938 0 .327.098.593.294.798.196.205.504.308.924.308Z"/>
        <rect width="88" height="100" x="11" y="179" fill="#fff" stroke="#67B0F8" stroke-width="2" rx="4"/>
        <path fill="#5282FF" fill-rule="evenodd" d="M55 221c13.799 0 25 11.2 25 25s-11.201 25-25 25-25-11.2-25-25 11.201-25 25-25Z" clip-rule="evenodd"/>
        <path fill="#fff" fill-rule="evenodd" d="M47.188 257.158v-22.313a1.344 1.344 0 0 1 1.343-1.344h12.936c.742 0 1.346.602 1.346 1.344v22.313c0 .742-.604 1.343-1.346 1.343H48.53a1.343 1.343 0 0 1-1.344-1.343h.002Zm9.376-1a1.567 1.567 0 0 0-3.128 0 1.565 1.565 0 0 0 3.128 0Zm4.688-3.438v-15.004c0-.604-.493-1.094-1.094-1.094H49.84c-.602 0-1.094.49-1.094 1.094v15.003c0 .601.492 1.093 1.094 1.093h10.315c.603 0 1.094-.492 1.094-1.093l.002.001Z" clip-rule="evenodd"/>
        <path fill="#000" d="M32.224 194.962h3.374a7.06 7.06 0 0 1 1.876.238c.579.159 1.083.42 1.512.784.43.364.765.845 1.008 1.442.242.597.364 1.335.364 2.212 0 .887-.126 1.666-.378 2.338-.243.663-.583 1.218-1.022 1.666-.43.448-.947.789-1.554 1.022a5.54 5.54 0 0 1-1.96.336h-3.22v-10.038Zm1.316 1.204v7.644h1.904c.513 0 .984-.079 1.414-.238.43-.159.798-.401 1.106-.728.308-.336.546-.761.714-1.274.168-.513.252-1.125.252-1.834 0-.7-.084-1.279-.252-1.736-.168-.467-.401-.835-.7-1.106a2.337 2.337 0 0 0-1.05-.56 5.04 5.04 0 0 0-1.33-.168H33.54Zm14.251 8.218a3.846 3.846 0 0 1-.378.238c-.15.084-.331.168-.546.252a4.607 4.607 0 0 1-.728.182c-.27.056-.574.084-.91.084-1.223 0-2.151-.331-2.786-.994-.635-.663-.952-1.591-.952-2.786 0-.588.084-1.115.252-1.582.177-.467.42-.859.728-1.176a3.024 3.024 0 0 1 1.092-.742c.42-.177.877-.266 1.372-.266.523 0 .99.089 1.4.266.41.177.747.439 1.008.784.27.345.453.775.546 1.288.103.504.103 1.092 0 1.764h-5.124c.047.784.28 1.372.7 1.764.42.383 1.045.574 1.876.574.56 0 1.04-.079 1.442-.238a5.053 5.053 0 0 0 1.008-.518v1.106Zm-2.884-5.698c-.532 0-.99.163-1.372.49-.383.327-.625.821-.728 1.484h3.906c.037-.672-.117-1.167-.462-1.484-.345-.327-.793-.49-1.344-.49ZM53.045 205h-1.988l-2.492-7.266h1.33l2.212 6.608 2.198-6.608h1.232L53.045 205Zm4.264-8.33c-.252 0-.453-.075-.602-.224a.808.808 0 0 1-.224-.574.81.81 0 0 1 .224-.574c.15-.159.35-.238.602-.238.243 0 .434.079.574.238.14.159.21.35.21.574 0 .224-.07.415-.21.574-.14.149-.331.224-.574.224Zm.602 1.064V205h-1.232v-7.266h1.232Zm5.144 7.406c-.56 0-1.069-.084-1.526-.252a3.339 3.339 0 0 1-1.148-.742 3.273 3.273 0 0 1-.728-1.19c-.168-.467-.252-.999-.252-1.596 0-.588.084-1.115.252-1.582.178-.467.425-.859.742-1.176a3.066 3.066 0 0 1 1.162-.742 4.28 4.28 0 0 1 1.554-.266c.448 0 .859.051 1.232.154.373.093.681.233.924.42v1.106a3.255 3.255 0 0 0-1.008-.434 4.145 4.145 0 0 0-1.134-.154c-.85 0-1.474.219-1.876.658-.392.439-.588 1.111-.588 2.016s.191 1.577.574 2.016c.383.439.99.658 1.82.658.439 0 .84-.051 1.204-.154a4.95 4.95 0 0 0 1.008-.42v1.106a4.29 4.29 0 0 1-2.212.574Zm9.496-.756a3.822 3.822 0 0 1-.378.238 4.38 4.38 0 0 1-.546.252 4.601 4.601 0 0 1-.728.182c-.27.056-.574.084-.91.084-1.223 0-2.152-.331-2.786-.994-.635-.663-.952-1.591-.952-2.786 0-.588.084-1.115.252-1.582.177-.467.42-.859.728-1.176a3.024 3.024 0 0 1 1.092-.742c.42-.177.877-.266 1.372-.266.522 0 .99.089 1.4.266.41.177.746.439 1.008.784.27.345.452.775.546 1.288.102.504.102 1.092 0 1.764h-5.124c.046.784.28 1.372.7 1.764.42.383 1.045.574 1.876.574.56 0 1.04-.079 1.442-.238a5.048 5.048 0 0 0 1.008-.518v1.106Zm-2.884-5.698c-.532 0-.99.163-1.372.49-.383.327-.626.821-.728 1.484h3.906c.037-.672-.117-1.167-.462-1.484-.346-.327-.794-.49-1.344-.49Zm6.85 6.454a4.83 4.83 0 0 1-1.022-.098 4.797 4.797 0 0 1-.77-.21 4.19 4.19 0 0 1-.546-.28 3.68 3.68 0 0 1-.35-.266v-1.106c.093.093.219.196.378.308.158.103.35.201.574.294.224.093.476.173.756.238a5.1 5.1 0 0 0 .966.084c.522 0 .938-.084 1.246-.252.308-.168.462-.453.462-.854 0-.215-.052-.387-.154-.518a.935.935 0 0 0-.392-.308 2.429 2.429 0 0 0-.588-.196 29.265 29.265 0 0 0-.686-.14 24.52 24.52 0 0 1-.91-.21 3.196 3.196 0 0 1-.812-.35 1.904 1.904 0 0 1-.588-.602c-.15-.252-.224-.579-.224-.98 0-.653.252-1.167.756-1.54.513-.373 1.227-.56 2.142-.56.513 0 .966.051 1.358.154.4.103.709.215.924.336v1.106a3.295 3.295 0 0 0-.91-.392c-.355-.112-.798-.168-1.33-.168-.551 0-.976.075-1.274.224-.29.149-.434.42-.434.812a.82.82 0 0 0 .126.476c.084.112.196.205.336.28.149.065.317.117.504.154.186.037.382.079.588.126.317.065.644.135.98.21.336.075.634.191.896.35.27.159.49.373.658.644.177.261.266.616.266 1.064 0 .42-.084.77-.252 1.05a1.93 1.93 0 0 1-.672.672 2.86 2.86 0 0 1-.938.336 5 5 0 0 1-1.064.112Z"/>
        <rect width="88" height="100" x="11" y="67" fill="#fff" stroke="#67B0F8" stroke-width="2" rx="4"/>
        <path fill="#000" d="M41.767 76.962h3.374c.672 0 1.297.08 1.876.238.578.159 1.082.42 1.512.784.43.364.765.845 1.008 1.442.242.597.364 1.335.364 2.212 0 .887-.126 1.666-.378 2.338-.243.663-.584 1.218-1.022 1.666-.43.448-.947.789-1.554 1.022a5.54 5.54 0 0 1-1.96.336h-3.22V76.962Zm1.316 1.204v7.644h1.904c.513 0 .984-.08 1.414-.238a2.86 2.86 0 0 0 1.106-.728c.308-.336.546-.76.714-1.274.168-.513.252-1.125.252-1.834 0-.7-.084-1.279-.252-1.736-.168-.467-.401-.835-.7-1.106-.29-.27-.64-.457-1.05-.56a5.04 5.04 0 0 0-1.33-.168h-2.058Zm12.657 7.448a4.254 4.254 0 0 1-.322.532 2.437 2.437 0 0 1-1.19.854 2.75 2.75 0 0 1-.924.14c-.654 0-1.181-.182-1.582-.546-.402-.373-.602-.905-.602-1.596 0-.793.275-1.377.826-1.75.56-.373 1.353-.56 2.38-.56h1.358v-.602c0-.504-.131-.863-.392-1.078-.262-.215-.71-.322-1.344-.322a3.63 3.63 0 0 0-1.274.224c-.402.14-.761.303-1.078.49v-1.106a5.436 5.436 0 0 1 1.05-.462 4.374 4.374 0 0 1 1.47-.238c.914 0 1.61.191 2.086.574.476.373.714.957.714 1.75v4.2c.009.103.014.21.014.322.009.112.018.22.028.322.009.093.018.173.028.238h-1.12a6.4 6.4 0 0 1-.084-.546 8.353 8.353 0 0 1-.028-.63l-.014-.21Zm-2.17.42c.382 0 .709-.08.98-.238.27-.159.49-.34.658-.546.168-.215.289-.42.364-.616.074-.205.112-.35.112-.434v-.532h-1.232c-.738 0-1.274.107-1.61.322-.327.205-.49.518-.49.938 0 .327.098.593.294.798.196.205.504.308.924.308Zm8.839.812a2.25 2.25 0 0 1-.574.21 3.17 3.17 0 0 1-.742.084 2.41 2.41 0 0 1-.91-.154 1.756 1.756 0 0 1-.602-.406 1.728 1.728 0 0 1-.35-.588 2.44 2.44 0 0 1-.098-.686v-4.522h-.868v-1.05h.868v-1.526h1.232v1.526h2.114v1.05h-2.114v4.368c0 .308.074.532.224.672.158.14.434.21.826.21.364 0 .695-.103.994-.308v1.12Zm5.895-1.232a4.254 4.254 0 0 1-.322.532 2.434 2.434 0 0 1-1.19.854 2.75 2.75 0 0 1-.924.14c-.653 0-1.18-.182-1.582-.546-.401-.373-.602-.905-.602-1.596 0-.793.275-1.377.826-1.75.56-.373 1.353-.56 2.38-.56h1.358v-.602c0-.504-.13-.863-.392-1.078-.261-.215-.71-.322-1.344-.322a3.63 3.63 0 0 0-1.274.224c-.401.14-.76.303-1.078.49v-1.106a5.442 5.442 0 0 1 1.05-.462 4.374 4.374 0 0 1 1.47-.238c.915 0 1.61.191 2.086.574.476.373.714.957.714 1.75v4.2c.01.103.014.21.014.322l.028.322c.01.093.019.173.028.238h-1.12a6.4 6.4 0 0 1-.084-.546 8.406 8.406 0 0 1-.028-.63l-.014-.21Zm-2.17.42c.383 0 .71-.08.98-.238.27-.159.49-.34.658-.546.168-.215.29-.42.364-.616.075-.205.112-.35.112-.434v-.532h-1.232c-.737 0-1.274.107-1.61.322-.327.205-.49.518-.49.938 0 .327.098.593.294.798.196.205.504.308.924.308ZM34.517 103.14a4.83 4.83 0 0 1-1.022-.098 4.797 4.797 0 0 1-.77-.21 4.19 4.19 0 0 1-.546-.28 3.68 3.68 0 0 1-.35-.266v-1.106c.093.093.219.196.378.308.158.103.35.201.574.294.224.093.476.173.756.238a5.1 5.1 0 0 0 .966.084c.522 0 .938-.084 1.246-.252.308-.168.462-.453.462-.854 0-.215-.052-.387-.154-.518a.935.935 0 0 0-.392-.308 2.429 2.429 0 0 0-.588-.196 29.265 29.265 0 0 0-.686-.14 25.792 25.792 0 0 1-.91-.21c-.3-.084-.57-.2-.812-.35a1.904 1.904 0 0 1-.588-.602c-.15-.252-.224-.579-.224-.98 0-.653.252-1.167.756-1.54.513-.373 1.227-.56 2.142-.56.513 0 .966.051 1.358.154.4.103.709.215.924.336v1.106a3.295 3.295 0 0 0-.91-.392c-.355-.112-.798-.168-1.33-.168-.551 0-.976.075-1.274.224-.29.15-.434.42-.434.812a.82.82 0 0 0 .126.476 1 1 0 0 0 .336.28c.149.065.317.117.504.154.186.037.382.08.588.126.317.065.644.135.98.21.336.075.634.191.896.35.27.159.49.373.658.644.177.261.266.616.266 1.064 0 .42-.084.77-.252 1.05a1.93 1.93 0 0 1-.672.672 2.86 2.86 0 0 1-.938.336 5 5 0 0 1-1.064.112Zm7.425 0a3.77 3.77 0 0 1-1.386-.252 3.234 3.234 0 0 1-1.12-.728 3.549 3.549 0 0 1-.728-1.19c-.177-.467-.266-1.003-.266-1.61 0-.597.089-1.13.266-1.596.178-.476.42-.873.728-1.19a3.23 3.23 0 0 1 1.12-.728 3.77 3.77 0 0 1 1.386-.252c.504 0 .97.084 1.4.252.43.168.798.41 1.106.728.318.317.565.714.742 1.19.187.467.28.999.28 1.596 0 .607-.093 1.143-.28 1.61a3.432 3.432 0 0 1-.742 1.19c-.308.317-.676.56-1.106.728-.43.168-.896.252-1.4.252Zm0-1.106a2.5 2.5 0 0 0 .896-.154 2.04 2.04 0 0 0 .728-.49 2.29 2.29 0 0 0 .476-.84c.112-.336.168-.733.168-1.19 0-.457-.056-.854-.168-1.19a2.163 2.163 0 0 0-.476-.826 1.83 1.83 0 0 0-.728-.49 2.321 2.321 0 0 0-.896-.168c-.327 0-.625.056-.896.168-.27.103-.508.266-.714.49-.196.215-.35.49-.462.826a3.774 3.774 0 0 0-.168 1.19c0 .457.056.854.168 1.19.112.336.266.616.462.84.206.215.444.378.714.49.27.103.57.154.896.154Zm9.692-.336c-.196.411-.5.756-.91 1.036-.401.271-.929.406-1.582.406-.672 0-1.218-.187-1.638-.56-.41-.383-.616-.971-.616-1.764v-5.082h1.246v5.082c0 .243.032.443.098.602a1.032 1.032 0 0 0 .714.56c.168.037.35.056.546.056.541 0 .975-.121 1.302-.364.327-.243.607-.574.84-.994v-4.942h1.232V103h-1.092l-.112-1.302h-.028Zm6.852-4.732a3.782 3.782 0 0 0-1.428.406 2.02 2.02 0 0 0-.938 1.008V103h-1.232v-7.266h1.078l.126 1.582h.028c.205-.43.5-.803.882-1.12.392-.327.886-.527 1.484-.602v1.372Zm4.432 6.174c-.56 0-1.068-.084-1.526-.252a3.338 3.338 0 0 1-1.148-.742 3.273 3.273 0 0 1-.728-1.19c-.168-.467-.252-.999-.252-1.596 0-.588.084-1.115.252-1.582.178-.467.425-.859.742-1.176a3.068 3.068 0 0 1 1.162-.742 4.273 4.273 0 0 1 1.554-.266c.448 0 .86.051 1.232.154.374.093.682.233.924.42v1.106a3.264 3.264 0 0 0-1.008-.434 4.156 4.156 0 0 0-1.134-.154c-.849 0-1.474.22-1.876.658-.392.439-.588 1.11-.588 2.016 0 .905.192 1.577.574 2.016.383.439.99.658 1.82.658.44 0 .84-.051 1.204-.154.374-.112.71-.252 1.008-.42v1.106a4.29 4.29 0 0 1-2.212.574Zm9.496-.756a3.822 3.822 0 0 1-.378.238 4.38 4.38 0 0 1-.546.252 4.601 4.601 0 0 1-.728.182c-.27.056-.574.084-.91.084-1.223 0-2.151-.331-2.786-.994-.635-.663-.952-1.591-.952-2.786 0-.588.084-1.115.252-1.582.177-.467.42-.859.728-1.176a3.028 3.028 0 0 1 1.092-.742c.42-.177.877-.266 1.372-.266a3.5 3.5 0 0 1 1.4.266c.41.177.747.439 1.008.784.27.345.453.775.546 1.288.103.504.103 1.092 0 1.764h-5.124c.047.784.28 1.372.7 1.764.42.383 1.045.574 1.876.574.56 0 1.04-.079 1.442-.238a5.048 5.048 0 0 0 1.008-.518v1.106Zm-2.884-5.698c-.532 0-.99.163-1.372.49-.383.327-.625.821-.728 1.484h3.906c.037-.672-.117-1.167-.462-1.484-.345-.327-.793-.49-1.344-.49Zm6.85 6.454a4.83 4.83 0 0 1-1.022-.098 4.797 4.797 0 0 1-.77-.21 4.19 4.19 0 0 1-.546-.28 3.68 3.68 0 0 1-.35-.266v-1.106c.093.093.22.196.378.308.159.103.35.201.574.294.224.093.476.173.756.238a5.1 5.1 0 0 0 .966.084c.522 0 .938-.084 1.246-.252.308-.168.462-.453.462-.854 0-.215-.052-.387-.154-.518a.935.935 0 0 0-.392-.308 2.429 2.429 0 0 0-.588-.196 29.265 29.265 0 0 0-.686-.14 25.792 25.792 0 0 1-.91-.21c-.299-.084-.57-.2-.812-.35a1.904 1.904 0 0 1-.588-.602c-.15-.252-.224-.579-.224-.98 0-.653.252-1.167.756-1.54.513-.373 1.227-.56 2.142-.56.513 0 .966.051 1.358.154.401.103.71.215.924.336v1.106a3.295 3.295 0 0 0-.91-.392c-.355-.112-.798-.168-1.33-.168-.55 0-.975.075-1.274.224-.29.15-.434.42-.434.812a.82.82 0 0 0 .126.476 1 1 0 0 0 .336.28c.15.065.317.117.504.154.186.037.382.08.588.126.317.065.644.135.98.21.336.075.635.191.896.35.27.159.49.373.658.644.177.261.266.616.266 1.064 0 .42-.084.77-.252 1.05a1.93 1.93 0 0 1-.672.672c-.27.159-.584.271-.938.336a5 5 0 0 1-1.064.112Z"/>
        <path fill="#5282FF" fill-rule="evenodd" d="M55 110c13.799 0 25 11.2 25 25s-11.201 25-25 25-25-11.2-25-25 11.201-25 25-25Z" clip-rule="evenodd"/>
        <path fill="#fff" fill-rule="evenodd" d="M47.183 145.939h1.553l.012-.001c1.428 0 2.495-1.011 3.029-1.747.231-.397.368-.769.456-1.377h-7.529a2.211 2.211 0 0 1-2.209-2.209v-15.9a2.21 2.21 0 0 1 2.208-2.21h20.584a2.21 2.21 0 0 1 2.208 2.21v15.9a2.21 2.21 0 0 1-2.208 2.209H57.76c.094.633.237 1.027.456 1.377.548.75 1.843 1.747 3.03 1.747l.01.001h1.55c.927 0 1.561.484 1.561 1.561H45.621c-.027-1.036.556-1.561 1.562-1.561Z" clip-rule="evenodd"/>
        <rect width="22" height="17" x="44" y="124" fill="#5282FF" rx="1"/>
    </g>
    <defs>
        <filter id="filter0_d_17_129" width="97.34" height="340.34" x="147.83" y="2.83" color-interpolation-filters="sRGB" filterUnits="userSpaceOnUse">
            <feFlood flood-opacity="0" result="BackgroundImageFix"/>
            <feColorMatrix in="SourceAlpha" result="hardAlpha" values="0 0 0 0 0 0 0 0 0 0 0 0 0 0 0 0 0 0 127 0"/>
            <feOffset/>
            <feGaussianBlur stdDeviation="3.585"/>
            <feComposite in2="hardAlpha" operator="out"/>
            <feColorMatrix values="0 0 0 0 0.592157 0 0 0 0 0.74902 0 0 0 0 0.905882 0 0 0 0.4 0"/>
            <feBlend in2="BackgroundImageFix" result="effect1_dropShadow_17_129"/>
            <feBlend in="SourceGraphic" in2="effect1_dropShadow_17_129" result="shape"/>
        </filter>
        <filter id="filter1_d_17_129" width="168.34" height="340.34" x="531.83" y="2.83" color-interpolation-filters="sRGB" filterUnits="userSpaceOnUse">
            <feFlood flood-opacity="0" result="BackgroundImageFix"/>
            <feColorMatrix in="SourceAlpha" result="hardAlpha" values="0 0 0 0 0 0 0 0 0 0 0 0 0 0 0 0 0 0 127 0"/>
            <feOffset/>
            <feGaussianBlur stdDeviation="3.585"/>
            <feComposite in2="hardAlpha" operator="out"/>
            <feColorMatrix values="0 0 0 0 0.592157 0 0 0 0 0.74902 0 0 0 0 0.905882 0 0 0 0.4 0"/>
            <feBlend in2="BackgroundImageFix" result="effect1_dropShadow_17_129"/>
            <feBlend in="SourceGraphic" in2="effect1_dropShadow_17_129" result="shape"/>
        </filter>
        <clipPath id="clip0_17_129">
            <path fill="#fff" d="M0 0h700v346H0z"/>
        </clipPath>
    </defs>
</svg>
