<svg width="16" height="16" viewBox="0 0 16 16" fill="none" xmlns="http://www.w3.org/2000/svg">
    <path fill-rule="evenodd" clip-rule="evenodd" d="m7.101 13.398-1.334-.395a.269.269 0 0 1-.18-.332L8.573 2.193A.262.262 0 0 1 8.9 2.01l1.334.395c.14.04.219.19.18.332L7.427 13.215a.261.261 0 0 1-.326.183Zm-2.494-2.5.952-1.035a.27.27 0 0 0-.018-.383L3.56 7.704 5.54 5.928c.112-.1.12-.274.018-.383L4.607 4.51a.26.26 0 0 0-.371-.012L1.084 7.508a.269.269 0 0 0 0 .39l3.152 3.01a.257.257 0 0 0 .371-.01ZM14.917 7.9l-3.153 3.01a.26.26 0 0 1-.371-.013l-.952-1.034a.269.269 0 0 1 .018-.383l1.981-1.776-1.981-1.778a.271.271 0 0 1-.018-.384l.951-1.034a.261.261 0 0 1 .372-.01l3.152 3.012a.27.27 0 0 1 0 .39Z" fill="currentColor"></path>
</svg>