<svg xmlns="http://www.w3.org/2000/svg" width="20" height="20" fill="currentColor" viewBox="0 0 20 20">
    <path fill-rule="evenodd" d="M10 17a7 7 0 1 0 0-14 7 7 0 0 0 0 14Zm0 1.5a8.5 8.5 0 1 0 0-17 8.5 8.5 0 0 0 0 17ZM8.16 6.166A2.947 2.947 0 0 1 10 5.5c1.451 0 2.75.97 2.75 2.5 0 .445-.092.871-.345 1.283-.243.393-.603.722-1.048 1.033-.579.406-.607.581-.607.684a.75.75 0 0 1-1.5 0c0-.897.61-1.466 1.247-1.912.362-.255.539-.444.63-.593.082-.13.123-.272.123-.495 0-.508-.42-1-1.25-1-.305 0-.638.12-.888.325-.245.202-.362.44-.362.675a.75.75 0 0 1-1.5 0c0-.777.398-1.413.91-1.834ZM10 14.5a1 1 0 1 0 0-2 1 1 0 0 0 0 2Z" clip-rule="evenodd"/>
</svg>
