<svg width="800" height="280" viewBox="0 0 800 280" fill="none" xmlns="http://www.w3.org/2000/svg">
<path fill-rule="evenodd" clip-rule="evenodd" d="M245 144C245 158.359 256.641 170 271 170H343C355.15 170 365 160.15 365 148C365 136.524 356.213 127.1 345 126.09L345 126C345 106.118 328.882 90 309 90C291.812 90 277.437 102.045 273.857 118.155C272.919 118.053 271.966 118 271 118C256.641 118 245 129.641 245 144Z" fill="white" stroke="#5282FF" stroke-width="2" stroke-linecap="round" stroke-linejoin="round"/>
<path d="M281.232 133.962H282.548V144H281.232V133.962ZM288.158 137.686C287.598 137.686 287.141 137.817 286.786 138.078C286.441 138.33 286.161 138.657 285.946 139.058V144H284.714V136.734H285.876L285.918 138.036H285.946C286.142 137.625 286.45 137.285 286.87 137.014C287.29 136.734 287.822 136.594 288.466 136.594C289.185 136.594 289.754 136.785 290.174 137.168C290.603 137.551 290.818 138.129 290.818 138.904V144H289.586V139.03C289.586 138.535 289.455 138.19 289.194 137.994C288.942 137.789 288.597 137.686 288.158 137.686ZM292.179 137.784V136.734H293.047V135.208H294.279V136.734H296.393V137.784H294.279V142.152C294.279 142.46 294.358 142.684 294.517 142.824C294.675 142.964 294.946 143.034 295.329 143.034C295.693 143.034 296.024 142.931 296.323 142.726V143.846C296.173 143.939 295.977 144.009 295.735 144.056C295.492 144.112 295.249 144.14 295.007 144.14C294.54 144.14 294.162 144.051 293.873 143.874C293.583 143.697 293.373 143.468 293.243 143.188C293.112 142.908 293.047 142.614 293.047 142.306V137.784H292.179ZM300.977 144.14C299.764 144.14 298.835 143.809 298.191 143.146C297.556 142.474 297.239 141.545 297.239 140.36C297.239 139.567 297.388 138.89 297.687 138.33C297.986 137.77 298.396 137.341 298.919 137.042C299.442 136.743 300.03 136.594 300.683 136.594C301.794 136.594 302.61 136.963 303.133 137.7C303.656 138.428 303.824 139.427 303.637 140.696H298.513C298.616 142.255 299.474 143.034 301.089 143.034C301.976 143.034 302.792 142.782 303.539 142.278V143.384C303.203 143.617 302.811 143.804 302.363 143.944C301.915 144.075 301.453 144.14 300.977 144.14ZM300.655 137.686C300.123 137.686 299.666 137.849 299.283 138.176C298.9 138.503 298.658 138.997 298.555 139.66H302.461C302.489 139.035 302.344 138.549 302.027 138.204C301.71 137.859 301.252 137.686 300.655 137.686ZM308.779 137.966C308.2 138.013 307.706 138.157 307.295 138.4C306.894 138.643 306.6 138.969 306.413 139.38V144H305.181V136.734H306.259L306.385 138.316H306.413C306.646 137.831 306.964 137.439 307.365 137.14C307.776 136.841 308.247 136.659 308.779 136.594V137.966ZM313.724 137.686C313.164 137.686 312.707 137.817 312.352 138.078C312.007 138.33 311.727 138.657 311.512 139.058V144H310.28V136.734H311.442L311.484 138.036H311.512C311.708 137.625 312.016 137.285 312.436 137.014C312.856 136.734 313.388 136.594 314.032 136.594C314.751 136.594 315.32 136.785 315.74 137.168C316.17 137.551 316.384 138.129 316.384 138.904V144H315.152V139.03C315.152 138.535 315.022 138.19 314.76 137.994C314.508 137.789 314.163 137.686 313.724 137.686ZM321.553 144.14C320.34 144.14 319.411 143.809 318.767 143.146C318.133 142.474 317.815 141.545 317.815 140.36C317.815 139.567 317.965 138.89 318.263 138.33C318.562 137.77 318.973 137.341 319.495 137.042C320.018 136.743 320.606 136.594 321.259 136.594C322.37 136.594 323.187 136.963 323.709 137.7C324.232 138.428 324.4 139.427 324.213 140.696H319.089C319.192 142.255 320.051 143.034 321.665 143.034C322.552 143.034 323.369 142.782 324.115 142.278V143.384C323.779 143.617 323.387 143.804 322.939 143.944C322.491 144.075 322.029 144.14 321.553 144.14ZM321.231 137.686C320.699 137.686 320.242 137.849 319.859 138.176C319.477 138.503 319.234 138.997 319.131 139.66H323.037C323.065 139.035 322.921 138.549 322.603 138.204C322.286 137.859 321.829 137.686 321.231 137.686ZM325.169 137.784V136.734H326.037V135.208H327.269V136.734H329.383V137.784H327.269V142.152C327.269 142.46 327.348 142.684 327.507 142.824C327.666 142.964 327.936 143.034 328.319 143.034C328.683 143.034 329.014 142.931 329.313 142.726V143.846C329.164 143.939 328.968 144.009 328.725 144.056C328.482 144.112 328.24 144.14 327.997 144.14C327.53 144.14 327.152 144.051 326.863 143.874C326.574 143.697 326.364 143.468 326.233 143.188C326.102 142.908 326.037 142.614 326.037 142.306V137.784H325.169Z" fill="black"/>
<rect x="625" y="21" width="140" height="238" rx="10" fill="white"/>
<rect x="625" y="21" width="140" height="238" rx="10" stroke="#5282FF" stroke-width="2"/>
<path d="M671.475 88.474H670.901H670.887L670.901 88.46L667.863 81.81V90H666.617V79.962H668.451L671.573 87.004L674.835 79.962H676.543V90H675.213V81.922L672.133 88.46L671.475 88.474ZM681.177 83.686C680.402 83.686 679.618 83.924 678.825 84.4V83.294C679.17 83.0793 679.567 82.9113 680.015 82.79C680.472 82.6593 680.916 82.594 681.345 82.594C682.26 82.594 682.955 82.7853 683.431 83.168C683.907 83.5507 684.145 84.134 684.145 84.918V88.824C684.145 88.9827 684.15 89.188 684.159 89.44C684.178 89.6827 684.196 89.8693 684.215 90H683.095C683.067 89.8693 683.039 89.6873 683.011 89.454C682.992 89.2113 682.983 89.0013 682.983 88.824L682.969 88.614C682.857 88.838 682.703 89.0713 682.507 89.314C682.311 89.5473 682.05 89.7433 681.723 89.902C681.406 90.0607 681.009 90.14 680.533 90.14C679.88 90.14 679.352 89.9533 678.951 89.58C678.55 89.2067 678.349 88.6793 678.349 87.998C678.349 87.2047 678.629 86.6213 679.189 86.248C679.749 85.8747 680.538 85.688 681.555 85.688H682.913V85.086C682.913 84.582 682.782 84.2227 682.521 84.008C682.26 83.7933 681.812 83.686 681.177 83.686ZM682.913 87.2V86.668H681.681C680.944 86.668 680.407 86.7753 680.071 86.99C679.744 87.2047 679.581 87.5173 679.581 87.928C679.581 88.2547 679.679 88.5207 679.875 88.726C680.08 88.9313 680.388 89.034 680.799 89.034C681.182 89.034 681.508 88.9593 681.779 88.81C682.05 88.6513 682.269 88.4647 682.437 88.25C682.605 88.026 682.726 87.816 682.801 87.62C682.876 87.424 682.913 87.284 682.913 87.2ZM689.526 83.686C688.966 83.686 688.509 83.8167 688.154 84.078C687.809 84.33 687.529 84.6567 687.314 85.058V90H686.082V82.734H687.244L687.286 84.036H687.314C687.51 83.6253 687.818 83.2847 688.238 83.014C688.658 82.734 689.19 82.594 689.834 82.594C690.553 82.594 691.122 82.7853 691.542 83.168C691.972 83.5507 692.186 84.1293 692.186 84.904V90H690.954V85.03C690.954 84.5353 690.824 84.19 690.562 83.994C690.31 83.7887 689.965 83.686 689.526 83.686ZM696.599 83.686C695.824 83.686 695.04 83.924 694.247 84.4V83.294C694.592 83.0793 694.989 82.9113 695.437 82.79C695.894 82.6593 696.338 82.594 696.767 82.594C697.682 82.594 698.377 82.7853 698.853 83.168C699.329 83.5507 699.567 84.134 699.567 84.918V88.824C699.567 88.9827 699.572 89.188 699.581 89.44C699.6 89.6827 699.618 89.8693 699.637 90H698.517C698.489 89.8693 698.461 89.6873 698.433 89.454C698.414 89.2113 698.405 89.0013 698.405 88.824L698.391 88.614C698.279 88.838 698.125 89.0713 697.929 89.314C697.733 89.5473 697.472 89.7433 697.145 89.902C696.828 90.0607 696.431 90.14 695.955 90.14C695.302 90.14 694.774 89.9533 694.373 89.58C693.972 89.2067 693.771 88.6793 693.771 87.998C693.771 87.2047 694.051 86.6213 694.611 86.248C695.171 85.8747 695.96 85.688 696.977 85.688H698.335V85.086C698.335 84.582 698.204 84.2227 697.943 84.008C697.682 83.7933 697.234 83.686 696.599 83.686ZM698.335 87.2V86.668H697.103C696.366 86.668 695.829 86.7753 695.493 86.99C695.166 87.2047 695.003 87.5173 695.003 87.928C695.003 88.2547 695.101 88.5207 695.297 88.726C695.502 88.9313 695.81 89.034 696.221 89.034C696.604 89.034 696.93 88.9593 697.201 88.81C697.472 88.6513 697.691 88.4647 697.859 88.25C698.027 88.026 698.148 87.816 698.223 87.62C698.298 87.424 698.335 87.284 698.335 87.2ZM701.588 91.904V90.798C701.98 91.0127 702.372 91.1667 702.764 91.26C703.156 91.3533 703.604 91.4 704.108 91.4C705.004 91.4 705.629 91.2273 705.984 90.882C706.339 90.546 706.516 90.0513 706.516 89.398V88.278C706.301 88.7073 705.998 89.0527 705.606 89.314C705.223 89.5753 704.747 89.706 704.178 89.706C703.609 89.706 703.077 89.5753 702.582 89.314C702.097 89.0433 701.705 88.6467 701.406 88.124C701.117 87.6013 700.972 86.948 700.972 86.164C700.972 85.3707 701.117 84.7127 701.406 84.19C701.705 83.658 702.097 83.2613 702.582 83C703.077 82.7293 703.618 82.594 704.206 82.594C704.785 82.594 705.27 82.7247 705.662 82.986C706.063 83.2473 706.376 83.602 706.6 84.05L706.614 83.896C706.614 83.728 706.623 83.5273 706.642 83.294C706.661 83.0513 706.679 82.8647 706.698 82.734H707.818C707.799 82.8553 707.781 83.042 707.762 83.294C707.753 83.5367 707.748 83.7373 707.748 83.896V89.384C707.748 90.0093 707.622 90.5553 707.37 91.022C707.127 91.4887 706.74 91.8527 706.208 92.114C705.676 92.3753 704.971 92.506 704.094 92.506C703.03 92.506 702.195 92.3053 701.588 91.904ZM706.53 86.164C706.53 85.3333 706.325 84.7127 705.914 84.302C705.513 83.8913 705.004 83.686 704.388 83.686C703.772 83.686 703.254 83.8913 702.834 84.302C702.423 84.7127 702.218 85.3333 702.218 86.164C702.218 86.976 702.423 87.5873 702.834 87.998C703.254 88.3993 703.777 88.6 704.402 88.6C705.009 88.6 705.513 88.3993 705.914 87.998C706.325 87.5967 706.53 86.9853 706.53 86.164ZM712.968 90.14C711.755 90.14 710.826 89.8087 710.182 89.146C709.548 88.474 709.23 87.5453 709.23 86.36C709.23 85.5667 709.38 84.89 709.678 84.33C709.977 83.77 710.388 83.3407 710.91 83.042C711.433 82.7433 712.021 82.594 712.674 82.594C713.785 82.594 714.602 82.9627 715.124 83.7C715.647 84.428 715.815 85.4267 715.628 86.696H710.504C710.607 88.2547 711.466 89.034 713.08 89.034C713.967 89.034 714.784 88.782 715.53 88.278V89.384C715.194 89.6173 714.802 89.804 714.354 89.944C713.906 90.0747 713.444 90.14 712.968 90.14ZM712.646 83.686C712.114 83.686 711.657 83.8493 711.274 84.176C710.892 84.5027 710.649 84.9973 710.546 85.66H714.452C714.48 85.0347 714.336 84.5493 714.018 84.204C713.701 83.8587 713.244 83.686 712.646 83.686ZM716.654 86.36C716.654 85.5107 716.803 84.8107 717.102 84.26C717.401 83.7 717.797 83.2847 718.292 83.014C718.796 82.734 719.342 82.594 719.93 82.594C720.481 82.594 720.957 82.7107 721.358 82.944C721.759 83.168 722.081 83.49 722.324 83.91V79.962H723.556V90H722.478L722.38 88.572C722.156 89.048 721.839 89.4307 721.428 89.72C721.027 90 720.523 90.14 719.916 90.14C719.337 90.14 718.796 90.0047 718.292 89.734C717.797 89.454 717.401 89.034 717.102 88.474C716.803 87.914 716.654 87.2093 716.654 86.36ZM722.338 86.36C722.338 85.4547 722.123 84.7827 721.694 84.344C721.265 83.9053 720.733 83.686 720.098 83.686C719.463 83.686 718.941 83.9147 718.53 84.372C718.119 84.82 717.914 85.4827 717.914 86.36C717.914 87.2467 718.119 87.914 718.53 88.362C718.941 88.81 719.463 89.034 720.098 89.034C720.733 89.034 721.265 88.8147 721.694 88.376C722.123 87.9373 722.338 87.2653 722.338 86.36ZM665.712 107.14C665.003 107.14 664.345 107.051 663.738 106.874C663.141 106.687 662.684 106.445 662.366 106.146V104.886C662.6 105.091 662.898 105.273 663.262 105.432C663.636 105.591 664.037 105.717 664.466 105.81C664.896 105.903 665.311 105.95 665.712 105.95C666.468 105.95 667.052 105.805 667.462 105.516C667.882 105.227 668.092 104.816 668.092 104.284C668.092 103.967 668.027 103.71 667.896 103.514C667.775 103.309 667.542 103.131 667.196 102.982C666.86 102.833 666.37 102.679 665.726 102.52C664.886 102.305 664.228 102.067 663.752 101.806C663.276 101.545 662.94 101.237 662.744 100.882C662.548 100.518 662.45 100.089 662.45 99.594C662.45 98.698 662.768 98.0167 663.402 97.55C664.037 97.074 664.952 96.836 666.146 96.836C666.669 96.836 667.15 96.8873 667.588 96.99C668.027 97.0927 668.461 97.2513 668.89 97.466V98.726C668.19 98.2593 667.276 98.026 666.146 98.026C664.55 98.026 663.752 98.53 663.752 99.538C663.752 99.9767 663.916 100.322 664.242 100.574C664.578 100.826 665.171 101.05 666.02 101.246C666.898 101.442 667.584 101.671 668.078 101.932C668.573 102.193 668.923 102.511 669.128 102.884C669.343 103.248 669.45 103.696 669.45 104.228C669.45 105.133 669.119 105.847 668.456 106.37C667.794 106.883 666.879 107.14 665.712 107.14ZM674.304 107.14C673.091 107.14 672.162 106.809 671.518 106.146C670.884 105.474 670.566 104.545 670.566 103.36C670.566 102.567 670.716 101.89 671.014 101.33C671.313 100.77 671.724 100.341 672.246 100.042C672.769 99.7433 673.357 99.594 674.01 99.594C675.121 99.594 675.938 99.9627 676.46 100.7C676.983 101.428 677.151 102.427 676.964 103.696H671.84C671.943 105.255 672.802 106.034 674.416 106.034C675.303 106.034 676.12 105.782 676.866 105.278V106.384C676.53 106.617 676.138 106.804 675.69 106.944C675.242 107.075 674.78 107.14 674.304 107.14ZM673.982 100.686C673.45 100.686 672.993 100.849 672.61 101.176C672.228 101.503 671.985 101.997 671.882 102.66H675.788C675.816 102.035 675.672 101.549 675.354 101.204C675.037 100.859 674.58 100.686 673.982 100.686ZM682.106 100.966C681.527 101.013 681.033 101.157 680.622 101.4C680.221 101.643 679.927 101.969 679.74 102.38V107H678.508V99.734H679.586L679.712 101.316H679.74C679.973 100.831 680.291 100.439 680.692 100.14C681.103 99.8413 681.574 99.6593 682.106 99.594V100.966ZM682.945 99.734H684.275L686.487 106.342L688.685 99.734H689.917L687.425 107H685.437L682.945 99.734ZM691.689 98.67C691.437 98.67 691.236 98.5953 691.087 98.446C690.937 98.2873 690.863 98.096 690.863 97.872C690.863 97.648 690.937 97.4567 691.087 97.298C691.236 97.1393 691.437 97.06 691.689 97.06C691.931 97.06 692.123 97.1393 692.263 97.298C692.403 97.4567 692.473 97.648 692.473 97.872C692.473 98.096 692.403 98.2873 692.263 98.446C692.123 98.5953 691.931 98.67 691.689 98.67ZM691.059 99.734H692.291V107H691.059V99.734ZM697.435 107.14C696.306 107.14 695.414 106.809 694.761 106.146C694.108 105.474 693.781 104.545 693.781 103.36C693.781 102.175 694.112 101.251 694.775 100.588C695.438 99.9253 696.343 99.594 697.491 99.594C697.93 99.594 698.34 99.6453 698.723 99.748C699.106 99.8413 699.414 99.9813 699.647 100.168V101.274C699.012 100.882 698.298 100.686 697.505 100.686C696.665 100.686 696.044 100.91 695.643 101.358C695.242 101.797 695.041 102.464 695.041 103.36C695.041 104.256 695.232 104.928 695.615 105.376C696.007 105.815 696.614 106.034 697.435 106.034C698.228 106.034 698.966 105.843 699.647 105.46V106.566C699.04 106.949 698.303 107.14 697.435 107.14ZM704.369 107.14C703.155 107.14 702.227 106.809 701.583 106.146C700.948 105.474 700.631 104.545 700.631 103.36C700.631 102.567 700.78 101.89 701.079 101.33C701.377 100.77 701.788 100.341 702.311 100.042C702.833 99.7433 703.421 99.594 704.075 99.594C705.185 99.594 706.002 99.9627 706.525 100.7C707.047 101.428 707.215 102.427 707.029 103.696H701.905C702.007 105.255 702.866 106.034 704.481 106.034C705.367 106.034 706.184 105.782 706.931 105.278V106.384C706.595 106.617 706.203 106.804 705.755 106.944C705.307 107.075 704.845 107.14 704.369 107.14ZM704.047 100.686C703.515 100.686 703.057 100.849 702.675 101.176C702.292 101.503 702.049 101.997 701.947 102.66H705.853C705.881 102.035 705.736 101.549 705.419 101.204C705.101 100.859 704.644 100.686 704.047 100.686ZM711.809 107V100.784H710.927V99.734H711.809V99.552C711.809 98.6933 712.038 98.026 712.495 97.55C712.953 97.074 713.578 96.836 714.371 96.836C714.726 96.836 715.034 96.878 715.295 96.962V98.082C715.211 98.0447 715.09 98.012 714.931 97.984C714.773 97.956 714.605 97.942 714.427 97.942C713.998 97.942 713.657 98.0727 713.405 98.334C713.163 98.5953 713.041 99.0013 713.041 99.552V99.734H715.141V100.784H713.041V107H711.809ZM719.142 107.14C718.48 107.14 717.882 106.995 717.35 106.706C716.828 106.407 716.412 105.978 716.104 105.418C715.796 104.849 715.642 104.163 715.642 103.36C715.642 102.557 715.796 101.876 716.104 101.316C716.412 100.756 716.828 100.331 717.35 100.042C717.882 99.7433 718.48 99.594 719.142 99.594C719.814 99.594 720.416 99.7433 720.948 100.042C721.48 100.331 721.9 100.756 722.208 101.316C722.516 101.876 722.67 102.557 722.67 103.36C722.67 104.163 722.516 104.849 722.208 105.418C721.9 105.978 721.48 106.407 720.948 106.706C720.416 106.995 719.814 107.14 719.142 107.14ZM719.142 106.034C719.796 106.034 720.337 105.819 720.766 105.39C721.196 104.951 721.41 104.275 721.41 103.36C721.41 102.445 721.196 101.773 720.766 101.344C720.337 100.905 719.796 100.686 719.142 100.686C718.498 100.686 717.962 100.905 717.532 101.344C717.112 101.773 716.902 102.445 716.902 103.36C716.902 104.275 717.112 104.951 717.532 105.39C717.962 105.819 718.498 106.034 719.142 106.034ZM727.77 100.966C727.191 101.013 726.697 101.157 726.286 101.4C725.885 101.643 725.591 101.969 725.404 102.38V107H724.172V99.734H725.25L725.376 101.316H725.404C725.637 100.831 725.955 100.439 726.356 100.14C726.767 99.8413 727.238 99.6593 727.77 99.594V100.966ZM667.641 124H666.003L662.503 119.702H661.439V124H660.123V113.962H661.439V118.512H662.419L666.003 113.962H667.487L663.525 118.974L667.641 124ZM673.231 122.698C673.035 123.099 672.731 123.44 672.321 123.72C671.919 124 671.392 124.14 670.739 124.14C670.067 124.14 669.521 123.949 669.101 123.566C668.69 123.183 668.485 122.6 668.485 121.816V116.734H669.731V121.816C669.731 122.292 669.861 122.614 670.123 122.782C670.384 122.95 670.706 123.034 671.089 123.034C671.63 123.034 672.064 122.913 672.391 122.67C672.717 122.427 672.997 122.096 673.231 121.676V116.734H674.463V124H673.371L673.259 122.698H673.231ZM676.485 113.962H677.717L677.689 118.148C677.931 117.681 678.258 117.308 678.669 117.028C679.079 116.739 679.588 116.594 680.195 116.594C680.764 116.594 681.287 116.734 681.763 117.014C682.248 117.285 682.64 117.7 682.939 118.26C683.237 118.811 683.387 119.511 683.387 120.36C683.387 121.209 683.233 121.914 682.925 122.474C682.626 123.034 682.229 123.454 681.735 123.734C681.249 124.005 680.717 124.14 680.139 124.14C679.579 124.14 679.089 124.005 678.669 123.734C678.258 123.463 677.931 123.095 677.689 122.628L677.647 124H676.485V113.962ZM682.113 120.36C682.113 119.483 681.912 118.82 681.511 118.372C681.109 117.915 680.591 117.686 679.957 117.686C679.322 117.686 678.785 117.91 678.347 118.358C677.917 118.797 677.703 119.464 677.703 120.36C677.703 121.265 677.917 121.937 678.347 122.376C678.785 122.815 679.322 123.034 679.957 123.034C680.591 123.034 681.109 122.81 681.511 122.362C681.912 121.914 682.113 121.247 682.113 120.36ZM688.099 124.14C686.886 124.14 685.957 123.809 685.313 123.146C684.678 122.474 684.361 121.545 684.361 120.36C684.361 119.567 684.51 118.89 684.809 118.33C685.108 117.77 685.518 117.341 686.041 117.042C686.564 116.743 687.152 116.594 687.805 116.594C688.916 116.594 689.732 116.963 690.255 117.7C690.778 118.428 690.946 119.427 690.759 120.696H685.635C685.738 122.255 686.596 123.034 688.211 123.034C689.098 123.034 689.914 122.782 690.661 122.278V123.384C690.325 123.617 689.933 123.804 689.485 123.944C689.037 124.075 688.575 124.14 688.099 124.14ZM687.777 117.686C687.245 117.686 686.788 117.849 686.405 118.176C686.022 118.503 685.78 118.997 685.677 119.66H689.583C689.611 119.035 689.466 118.549 689.149 118.204C688.832 117.859 688.374 117.686 687.777 117.686ZM695.901 117.966C695.322 118.013 694.828 118.157 694.417 118.4C694.016 118.643 693.722 118.969 693.535 119.38V124H692.303V116.734H693.381L693.507 118.316H693.535C693.768 117.831 694.086 117.439 694.487 117.14C694.898 116.841 695.369 116.659 695.901 116.594V117.966ZM700.847 117.686C700.287 117.686 699.829 117.817 699.475 118.078C699.129 118.33 698.849 118.657 698.635 119.058V124H697.403V116.734H698.565L698.607 118.036H698.635C698.831 117.625 699.139 117.285 699.559 117.014C699.979 116.734 700.511 116.594 701.155 116.594C701.873 116.594 702.443 116.785 702.863 117.168C703.292 117.551 703.507 118.129 703.507 118.904V124H702.275V119.03C702.275 118.535 702.144 118.19 701.883 117.994C701.631 117.789 701.285 117.686 700.847 117.686ZM708.675 124.14C707.462 124.14 706.533 123.809 705.889 123.146C705.255 122.474 704.937 121.545 704.937 120.36C704.937 119.567 705.087 118.89 705.385 118.33C705.684 117.77 706.095 117.341 706.617 117.042C707.14 116.743 707.728 116.594 708.381 116.594C709.492 116.594 710.309 116.963 710.831 117.7C711.354 118.428 711.522 119.427 711.335 120.696H706.211C706.314 122.255 707.173 123.034 708.787 123.034C709.674 123.034 710.491 122.782 711.237 122.278V123.384C710.901 123.617 710.509 123.804 710.061 123.944C709.613 124.075 709.151 124.14 708.675 124.14ZM708.353 117.686C707.821 117.686 707.364 117.849 706.981 118.176C706.599 118.503 706.356 118.997 706.253 119.66H710.159C710.187 119.035 710.043 118.549 709.725 118.204C709.408 117.859 708.951 117.686 708.353 117.686ZM712.291 117.784V116.734H713.159V115.208H714.391V116.734H716.505V117.784H714.391V122.152C714.391 122.46 714.47 122.684 714.629 122.824C714.788 122.964 715.058 123.034 715.441 123.034C715.805 123.034 716.136 122.931 716.435 122.726V123.846C716.286 123.939 716.09 124.009 715.847 124.056C715.604 124.112 715.362 124.14 715.119 124.14C714.652 124.14 714.274 124.051 713.985 123.874C713.696 123.697 713.486 123.468 713.355 123.188C713.224 122.908 713.159 122.614 713.159 122.306V117.784H712.291ZM721.089 124.14C719.876 124.14 718.947 123.809 718.303 123.146C717.669 122.474 717.351 121.545 717.351 120.36C717.351 119.567 717.501 118.89 717.799 118.33C718.098 117.77 718.509 117.341 719.031 117.042C719.554 116.743 720.142 116.594 720.795 116.594C721.906 116.594 722.723 116.963 723.245 117.7C723.768 118.428 723.936 119.427 723.749 120.696H718.625C718.728 122.255 719.587 123.034 721.201 123.034C722.088 123.034 722.905 122.782 723.651 122.278V123.384C723.315 123.617 722.923 123.804 722.475 123.944C722.027 124.075 721.565 124.14 721.089 124.14ZM720.767 117.686C720.235 117.686 719.778 117.849 719.395 118.176C719.013 118.503 718.77 118.997 718.667 119.66H722.573C722.601 119.035 722.457 118.549 722.139 118.204C721.822 117.859 721.365 117.686 720.767 117.686ZM727.617 124.14C727.085 124.14 726.576 124.065 726.091 123.916C725.615 123.757 725.228 123.547 724.929 123.286V122.18C725.218 122.46 725.606 122.684 726.091 122.852C726.586 123.02 727.09 123.104 727.603 123.104C728.742 123.104 729.311 122.735 729.311 121.998C729.311 121.783 729.26 121.611 729.157 121.48C729.064 121.34 728.886 121.223 728.625 121.13C728.364 121.027 727.986 120.929 727.491 120.836C726.548 120.649 725.89 120.397 725.517 120.08C725.144 119.753 724.957 119.291 724.957 118.694C724.957 118.031 725.214 117.518 725.727 117.154C726.24 116.781 726.95 116.594 727.855 116.594C728.284 116.594 728.704 116.641 729.115 116.734C729.535 116.818 729.876 116.935 730.137 117.084V118.19C729.596 117.817 728.849 117.63 727.897 117.63C727.309 117.63 726.875 117.714 726.595 117.882C726.324 118.05 726.189 118.311 726.189 118.666C726.189 118.853 726.231 119.007 726.315 119.128C726.399 119.249 726.567 119.357 726.819 119.45C727.071 119.543 727.449 119.641 727.953 119.744C728.597 119.875 729.106 120.033 729.479 120.22C729.862 120.397 730.132 120.626 730.291 120.906C730.459 121.186 730.543 121.541 730.543 121.97C730.543 122.651 730.286 123.183 729.773 123.566C729.26 123.949 728.541 124.14 727.617 124.14Z" fill="black"/>
<path d="M643.321 173.962H646.527C647.665 173.962 648.547 174.2 649.173 174.676C649.807 175.143 650.125 175.875 650.125 176.874C650.125 177.63 649.966 178.246 649.649 178.722C649.341 179.198 648.907 179.548 648.347 179.772C647.796 179.987 647.152 180.094 646.415 180.094H644.637V184H643.321V173.962ZM646.415 178.904C647.124 178.904 647.698 178.75 648.137 178.442C648.575 178.134 648.795 177.616 648.795 176.888C648.795 176.281 648.599 175.843 648.207 175.572C647.815 175.301 647.255 175.166 646.527 175.166H644.637V178.904H646.415ZM654.324 184.14C653.661 184.14 653.064 183.995 652.532 183.706C652.009 183.407 651.594 182.978 651.286 182.418C650.978 181.849 650.824 181.163 650.824 180.36C650.824 179.557 650.978 178.876 651.286 178.316C651.594 177.756 652.009 177.331 652.532 177.042C653.064 176.743 653.661 176.594 654.324 176.594C654.996 176.594 655.598 176.743 656.13 177.042C656.662 177.331 657.082 177.756 657.39 178.316C657.698 178.876 657.852 179.557 657.852 180.36C657.852 181.163 657.698 181.849 657.39 182.418C657.082 182.978 656.662 183.407 656.13 183.706C655.598 183.995 654.996 184.14 654.324 184.14ZM654.324 183.034C654.977 183.034 655.519 182.819 655.948 182.39C656.377 181.951 656.592 181.275 656.592 180.36C656.592 179.445 656.377 178.773 655.948 178.344C655.519 177.905 654.977 177.686 654.324 177.686C653.68 177.686 653.143 177.905 652.714 178.344C652.294 178.773 652.084 179.445 652.084 180.36C652.084 181.275 652.294 181.951 652.714 182.39C653.143 182.819 653.68 183.034 654.324 183.034ZM658.836 180.36C658.836 179.511 658.985 178.811 659.284 178.26C659.582 177.7 659.979 177.285 660.474 177.014C660.978 176.734 661.524 176.594 662.112 176.594C662.662 176.594 663.138 176.711 663.54 176.944C663.941 177.168 664.263 177.49 664.506 177.91V173.962H665.738V184H664.66L664.562 182.572C664.338 183.048 664.02 183.431 663.61 183.72C663.208 184 662.704 184.14 662.098 184.14C661.519 184.14 660.978 184.005 660.474 183.734C659.979 183.454 659.582 183.034 659.284 182.474C658.985 181.914 658.836 181.209 658.836 180.36ZM664.52 180.36C664.52 179.455 664.305 178.783 663.876 178.344C663.446 177.905 662.914 177.686 662.28 177.686C661.645 177.686 661.122 177.915 660.712 178.372C660.301 178.82 660.096 179.483 660.096 180.36C660.096 181.247 660.301 181.914 660.712 182.362C661.122 182.81 661.645 183.034 662.28 183.034C662.914 183.034 663.446 182.815 663.876 182.376C664.305 181.937 664.52 181.265 664.52 180.36ZM680.113 176.734L678.461 184H676.571L675.031 178.386L673.449 184H671.615L669.963 176.734H671.265L672.651 183.076L674.415 176.734H675.801L677.523 183.006L678.895 176.734H680.113ZM682.173 175.67C681.921 175.67 681.72 175.595 681.571 175.446C681.422 175.287 681.347 175.096 681.347 174.872C681.347 174.648 681.422 174.457 681.571 174.298C681.72 174.139 681.921 174.06 682.173 174.06C682.416 174.06 682.607 174.139 682.747 174.298C682.887 174.457 682.957 174.648 682.957 174.872C682.957 175.096 682.887 175.287 682.747 175.446C682.607 175.595 682.416 175.67 682.173 175.67ZM681.543 176.734H682.775V184H681.543V176.734ZM684.195 177.784V176.734H685.063V175.208H686.295V176.734H688.409V177.784H686.295V182.152C686.295 182.46 686.375 182.684 686.533 182.824C686.692 182.964 686.963 183.034 687.345 183.034C687.709 183.034 688.041 182.931 688.339 182.726V183.846C688.19 183.939 687.994 184.009 687.751 184.056C687.509 184.112 687.266 184.14 687.023 184.14C686.557 184.14 686.179 184.051 685.889 183.874C685.6 183.697 685.39 183.468 685.259 183.188C685.129 182.908 685.063 182.614 685.063 182.306V177.784H684.195ZM693.423 177.686C692.863 177.686 692.405 177.817 692.051 178.078C691.705 178.33 691.425 178.657 691.211 179.058V184H689.979V173.962H691.211V176.734L691.183 178.036H691.211C691.407 177.625 691.715 177.285 692.135 177.014C692.555 176.734 693.087 176.594 693.731 176.594C694.449 176.594 695.019 176.785 695.439 177.168C695.868 177.551 696.083 178.129 696.083 178.904V184H694.851V179.03C694.851 178.535 694.72 178.19 694.459 177.994C694.207 177.789 693.861 177.686 693.423 177.686ZM701.002 173.962H702.318V184H701.002V173.962ZM707.929 177.686C707.369 177.686 706.911 177.817 706.557 178.078C706.211 178.33 705.931 178.657 705.717 179.058V184H704.485V176.734H705.647L705.689 178.036H705.717C705.913 177.625 706.221 177.285 706.641 177.014C707.061 176.734 707.593 176.594 708.237 176.594C708.955 176.594 709.525 176.785 709.945 177.168C710.374 177.551 710.589 178.129 710.589 178.904V184H709.357V179.03C709.357 178.535 709.226 178.19 708.965 177.994C708.713 177.789 708.367 177.686 707.929 177.686ZM712.621 185.904V184.798C713.013 185.013 713.405 185.167 713.797 185.26C714.189 185.353 714.637 185.4 715.141 185.4C716.037 185.4 716.663 185.227 717.017 184.882C717.372 184.546 717.549 184.051 717.549 183.398V182.278C717.335 182.707 717.031 183.053 716.639 183.314C716.257 183.575 715.781 183.706 715.211 183.706C714.642 183.706 714.11 183.575 713.615 183.314C713.13 183.043 712.738 182.647 712.439 182.124C712.15 181.601 712.005 180.948 712.005 180.164C712.005 179.371 712.15 178.713 712.439 178.19C712.738 177.658 713.13 177.261 713.615 177C714.11 176.729 714.651 176.594 715.239 176.594C715.818 176.594 716.303 176.725 716.695 176.986C717.097 177.247 717.409 177.602 717.633 178.05L717.647 177.896C717.647 177.728 717.657 177.527 717.675 177.294C717.694 177.051 717.713 176.865 717.731 176.734H718.851C718.833 176.855 718.814 177.042 718.795 177.294C718.786 177.537 718.781 177.737 718.781 177.896V183.384C718.781 184.009 718.655 184.555 718.403 185.022C718.161 185.489 717.773 185.853 717.241 186.114C716.709 186.375 716.005 186.506 715.127 186.506C714.063 186.506 713.228 186.305 712.621 185.904ZM717.563 180.164C717.563 179.333 717.358 178.713 716.947 178.302C716.546 177.891 716.037 177.686 715.421 177.686C714.805 177.686 714.287 177.891 713.867 178.302C713.457 178.713 713.251 179.333 713.251 180.164C713.251 180.976 713.457 181.587 713.867 181.998C714.287 182.399 714.81 182.6 715.435 182.6C716.042 182.6 716.546 182.399 716.947 181.998C717.358 181.597 717.563 180.985 717.563 180.164ZM724.379 177.966C723.801 178.013 723.306 178.157 722.895 178.4C722.494 178.643 722.2 178.969 722.013 179.38V184H720.781V176.734H721.859L721.985 178.316H722.013C722.247 177.831 722.564 177.439 722.965 177.14C723.376 176.841 723.847 176.659 724.379 176.594V177.966ZM728.746 184.14C727.532 184.14 726.604 183.809 725.96 183.146C725.325 182.474 725.008 181.545 725.008 180.36C725.008 179.567 725.157 178.89 725.456 178.33C725.754 177.77 726.165 177.341 726.688 177.042C727.21 176.743 727.798 176.594 728.452 176.594C729.562 176.594 730.379 176.963 730.902 177.7C731.424 178.428 731.592 179.427 731.406 180.696H726.282C726.384 182.255 727.243 183.034 728.858 183.034C729.744 183.034 730.561 182.782 731.308 182.278V183.384C730.972 183.617 730.58 183.804 730.132 183.944C729.684 184.075 729.222 184.14 728.746 184.14ZM728.424 177.686C727.892 177.686 727.434 177.849 727.052 178.176C726.669 178.503 726.426 178.997 726.324 179.66H730.23C730.258 179.035 730.113 178.549 729.796 178.204C729.478 177.859 729.021 177.686 728.424 177.686ZM735.273 184.14C734.741 184.14 734.233 184.065 733.747 183.916C733.271 183.757 732.884 183.547 732.585 183.286V182.18C732.875 182.46 733.262 182.684 733.747 182.852C734.242 183.02 734.746 183.104 735.259 183.104C736.398 183.104 736.967 182.735 736.967 181.998C736.967 181.783 736.916 181.611 736.813 181.48C736.72 181.34 736.543 181.223 736.281 181.13C736.02 181.027 735.642 180.929 735.147 180.836C734.205 180.649 733.547 180.397 733.173 180.08C732.8 179.753 732.613 179.291 732.613 178.694C732.613 178.031 732.87 177.518 733.383 177.154C733.897 176.781 734.606 176.594 735.511 176.594C735.941 176.594 736.361 176.641 736.771 176.734C737.191 176.818 737.532 176.935 737.793 177.084V178.19C737.252 177.817 736.505 177.63 735.553 177.63C734.965 177.63 734.531 177.714 734.251 177.882C733.981 178.05 733.845 178.311 733.845 178.666C733.845 178.853 733.887 179.007 733.971 179.128C734.055 179.249 734.223 179.357 734.475 179.45C734.727 179.543 735.105 179.641 735.609 179.744C736.253 179.875 736.762 180.033 737.135 180.22C737.518 180.397 737.789 180.626 737.947 180.906C738.115 181.186 738.199 181.541 738.199 181.97C738.199 182.651 737.943 183.183 737.429 183.566C736.916 183.949 736.197 184.14 735.273 184.14ZM742.041 184.14C741.509 184.14 741 184.065 740.515 183.916C740.039 183.757 739.652 183.547 739.353 183.286V182.18C739.642 182.46 740.03 182.684 740.515 182.852C741.01 183.02 741.514 183.104 742.027 183.104C743.166 183.104 743.735 182.735 743.735 181.998C743.735 181.783 743.684 181.611 743.581 181.48C743.488 181.34 743.31 181.223 743.049 181.13C742.788 181.027 742.41 180.929 741.915 180.836C740.972 180.649 740.314 180.397 739.941 180.08C739.568 179.753 739.381 179.291 739.381 178.694C739.381 178.031 739.638 177.518 740.151 177.154C740.664 176.781 741.374 176.594 742.279 176.594C742.708 176.594 743.128 176.641 743.539 176.734C743.959 176.818 744.3 176.935 744.561 177.084V178.19C744.02 177.817 743.273 177.63 742.321 177.63C741.733 177.63 741.299 177.714 741.019 177.882C740.748 178.05 740.613 178.311 740.613 178.666C740.613 178.853 740.655 179.007 740.739 179.128C740.823 179.249 740.991 179.357 741.243 179.45C741.495 179.543 741.873 179.641 742.377 179.744C743.021 179.875 743.53 180.033 743.903 180.22C744.286 180.397 744.556 180.626 744.715 180.906C744.883 181.186 744.967 181.541 744.967 181.97C744.967 182.651 744.71 183.183 744.197 183.566C743.684 183.949 742.965 184.14 742.041 184.14ZM746.317 180.29V179.17H749.677V180.29H746.317ZM669.209 201.14C668.08 201.14 667.189 200.809 666.535 200.146C665.882 199.474 665.555 198.545 665.555 197.36C665.555 196.175 665.887 195.251 666.549 194.588C667.212 193.925 668.117 193.594 669.265 193.594C669.704 193.594 670.115 193.645 670.497 193.748C670.88 193.841 671.188 193.981 671.421 194.168V195.274C670.787 194.882 670.073 194.686 669.279 194.686C668.439 194.686 667.819 194.91 667.417 195.358C667.016 195.797 666.815 196.464 666.815 197.36C666.815 198.256 667.007 198.928 667.389 199.376C667.781 199.815 668.388 200.034 669.209 200.034C670.003 200.034 670.74 199.843 671.421 199.46V200.566C670.815 200.949 670.077 201.14 669.209 201.14ZM675.905 201.14C675.242 201.14 674.645 200.995 674.113 200.706C673.59 200.407 673.175 199.978 672.867 199.418C672.559 198.849 672.405 198.163 672.405 197.36C672.405 196.557 672.559 195.876 672.867 195.316C673.175 194.756 673.59 194.331 674.113 194.042C674.645 193.743 675.242 193.594 675.905 193.594C676.577 193.594 677.179 193.743 677.711 194.042C678.243 194.331 678.663 194.756 678.971 195.316C679.279 195.876 679.433 196.557 679.433 197.36C679.433 198.163 679.279 198.849 678.971 199.418C678.663 199.978 678.243 200.407 677.711 200.706C677.179 200.995 676.577 201.14 675.905 201.14ZM675.905 200.034C676.558 200.034 677.1 199.819 677.529 199.39C677.958 198.951 678.173 198.275 678.173 197.36C678.173 196.445 677.958 195.773 677.529 195.344C677.1 194.905 676.558 194.686 675.905 194.686C675.261 194.686 674.724 194.905 674.295 195.344C673.875 195.773 673.665 196.445 673.665 197.36C673.665 198.275 673.875 198.951 674.295 199.39C674.724 199.819 675.261 200.034 675.905 200.034ZM684.379 194.686C683.819 194.686 683.361 194.817 683.007 195.078C682.661 195.33 682.381 195.657 682.167 196.058V201H680.935V193.734H682.097L682.139 195.036H682.167C682.363 194.625 682.671 194.285 683.091 194.014C683.511 193.734 684.043 193.594 684.687 193.594C685.405 193.594 685.975 193.785 686.395 194.168C686.824 194.551 687.039 195.129 687.039 195.904V201H685.807V196.03C685.807 195.535 685.676 195.19 685.415 194.994C685.163 194.789 684.817 194.686 684.379 194.686ZM688.399 194.784V193.734H689.267V192.208H690.499V193.734H692.613V194.784H690.499V199.152C690.499 199.46 690.579 199.684 690.737 199.824C690.896 199.964 691.167 200.034 691.549 200.034C691.913 200.034 692.245 199.931 692.543 199.726V200.846C692.394 200.939 692.198 201.009 691.955 201.056C691.713 201.112 691.47 201.14 691.227 201.14C690.761 201.14 690.383 201.051 690.093 200.874C689.804 200.697 689.594 200.468 689.463 200.188C689.333 199.908 689.267 199.614 689.267 199.306V194.784H688.399ZM697.781 194.966C697.202 195.013 696.707 195.157 696.297 195.4C695.895 195.643 695.601 195.969 695.415 196.38V201H694.183V193.734H695.261L695.387 195.316H695.415C695.648 194.831 695.965 194.439 696.367 194.14C696.777 193.841 697.249 193.659 697.781 193.594V194.966ZM701.909 201.14C701.246 201.14 700.649 200.995 700.117 200.706C699.594 200.407 699.179 199.978 698.871 199.418C698.563 198.849 698.409 198.163 698.409 197.36C698.409 196.557 698.563 195.876 698.871 195.316C699.179 194.756 699.594 194.331 700.117 194.042C700.649 193.743 701.246 193.594 701.909 193.594C702.581 193.594 703.183 193.743 703.715 194.042C704.247 194.331 704.667 194.756 704.975 195.316C705.283 195.876 705.437 196.557 705.437 197.36C705.437 198.163 705.283 198.849 704.975 199.418C704.667 199.978 704.247 200.407 703.715 200.706C703.183 200.995 702.581 201.14 701.909 201.14ZM701.909 200.034C702.562 200.034 703.104 199.819 703.533 199.39C703.962 198.951 704.177 198.275 704.177 197.36C704.177 196.445 703.962 195.773 703.533 195.344C703.104 194.905 702.562 194.686 701.909 194.686C701.265 194.686 700.728 194.905 700.299 195.344C699.879 195.773 699.669 196.445 699.669 197.36C699.669 198.275 699.879 198.951 700.299 199.39C700.728 199.819 701.265 200.034 701.909 200.034ZM706.939 190.962H708.171V201H706.939V190.962ZM710.179 190.962H711.411V201H710.179V190.962ZM716.639 201.14C715.426 201.14 714.497 200.809 713.853 200.146C713.218 199.474 712.901 198.545 712.901 197.36C712.901 196.567 713.05 195.89 713.349 195.33C713.648 194.77 714.058 194.341 714.581 194.042C715.104 193.743 715.692 193.594 716.345 193.594C717.456 193.594 718.272 193.963 718.795 194.7C719.318 195.428 719.486 196.427 719.299 197.696H714.175C714.278 199.255 715.136 200.034 716.751 200.034C717.638 200.034 718.454 199.782 719.201 199.278V200.384C718.865 200.617 718.473 200.804 718.025 200.944C717.577 201.075 717.115 201.14 716.639 201.14ZM716.317 194.686C715.785 194.686 715.328 194.849 714.945 195.176C714.562 195.503 714.32 195.997 714.217 196.66H718.123C718.151 196.035 718.006 195.549 717.689 195.204C717.372 194.859 716.914 194.686 716.317 194.686ZM724.441 194.966C723.862 195.013 723.368 195.157 722.957 195.4C722.556 195.643 722.262 195.969 722.075 196.38V201H720.843V193.734H721.921L722.047 195.316H722.075C722.308 194.831 722.626 194.439 723.027 194.14C723.438 193.841 723.909 193.659 724.441 193.594V194.966ZM668.636 218H667.236L666.2 215.13H661.762L660.74 218H659.508L663.078 207.962H665.038L668.636 218ZM662.196 213.94H665.78L663.988 208.942L662.196 213.94ZM669.792 210.734H670.87L670.996 212.148C671.23 211.681 671.552 211.308 671.962 211.028C672.382 210.739 672.896 210.594 673.502 210.594C674.072 210.594 674.594 210.734 675.07 211.014C675.556 211.285 675.948 211.7 676.246 212.26C676.545 212.811 676.694 213.511 676.694 214.36C676.694 215.209 676.54 215.914 676.232 216.474C675.934 217.034 675.537 217.454 675.042 217.734C674.557 218.005 674.025 218.14 673.446 218.14C672.896 218.14 672.415 218.009 672.004 217.748C671.594 217.487 671.267 217.127 671.024 216.67V220.478H669.792V210.734ZM675.42 214.36C675.42 213.483 675.22 212.82 674.818 212.372C674.417 211.915 673.899 211.686 673.264 211.686C672.63 211.686 672.093 211.91 671.654 212.358C671.225 212.797 671.01 213.464 671.01 214.36C671.01 215.265 671.225 215.937 671.654 216.376C672.093 216.815 672.63 217.034 673.264 217.034C673.899 217.034 674.417 216.81 674.818 216.362C675.22 215.914 675.42 215.247 675.42 214.36ZM678.187 210.734H679.265L679.391 212.148C679.624 211.681 679.946 211.308 680.357 211.028C680.777 210.739 681.29 210.594 681.897 210.594C682.466 210.594 682.989 210.734 683.465 211.014C683.95 211.285 684.342 211.7 684.641 212.26C684.939 212.811 685.089 213.511 685.089 214.36C685.089 215.209 684.935 215.914 684.627 216.474C684.328 217.034 683.931 217.454 683.437 217.734C682.951 218.005 682.419 218.14 681.841 218.14C681.29 218.14 680.809 218.009 680.399 217.748C679.988 217.487 679.661 217.127 679.419 216.67V220.478H678.187V210.734ZM683.815 214.36C683.815 213.483 683.614 212.82 683.213 212.372C682.811 211.915 682.293 211.686 681.659 211.686C681.024 211.686 680.487 211.91 680.049 212.358C679.619 212.797 679.405 213.464 679.405 214.36C679.405 215.265 679.619 215.937 680.049 216.376C680.487 216.815 681.024 217.034 681.659 217.034C682.293 217.034 682.811 216.81 683.213 216.362C683.614 215.914 683.815 215.247 683.815 214.36ZM686.581 207.962H687.813V218H686.581V207.962ZM690.451 209.67C690.199 209.67 689.999 209.595 689.849 209.446C689.7 209.287 689.625 209.096 689.625 208.872C689.625 208.648 689.7 208.457 689.849 208.298C689.999 208.139 690.199 208.06 690.451 208.06C690.694 208.06 690.885 208.139 691.025 208.298C691.165 208.457 691.235 208.648 691.235 208.872C691.235 209.096 691.165 209.287 691.025 209.446C690.885 209.595 690.694 209.67 690.451 209.67ZM689.821 210.734H691.053V218H689.821V210.734ZM696.198 218.14C695.068 218.14 694.177 217.809 693.524 217.146C692.87 216.474 692.544 215.545 692.544 214.36C692.544 213.175 692.875 212.251 693.538 211.588C694.2 210.925 695.106 210.594 696.254 210.594C696.692 210.594 697.103 210.645 697.486 210.748C697.868 210.841 698.176 210.981 698.41 211.168V212.274C697.775 211.882 697.061 211.686 696.268 211.686C695.428 211.686 694.807 211.91 694.406 212.358C694.004 212.797 693.804 213.464 693.804 214.36C693.804 215.256 693.995 215.928 694.378 216.376C694.77 216.815 695.376 217.034 696.198 217.034C696.991 217.034 697.728 216.843 698.41 216.46V217.566C697.803 217.949 697.066 218.14 696.198 218.14ZM702.375 211.686C701.601 211.686 700.817 211.924 700.023 212.4V211.294C700.369 211.079 700.765 210.911 701.213 210.79C701.671 210.659 702.114 210.594 702.543 210.594C703.458 210.594 704.153 210.785 704.629 211.168C705.105 211.551 705.343 212.134 705.343 212.918V216.824C705.343 216.983 705.348 217.188 705.357 217.44C705.376 217.683 705.395 217.869 705.413 218H704.293C704.265 217.869 704.237 217.687 704.209 217.454C704.191 217.211 704.181 217.001 704.181 216.824L704.167 216.614C704.055 216.838 703.901 217.071 703.705 217.314C703.509 217.547 703.248 217.743 702.921 217.902C702.604 218.061 702.207 218.14 701.731 218.14C701.078 218.14 700.551 217.953 700.149 217.58C699.748 217.207 699.547 216.679 699.547 215.998C699.547 215.205 699.827 214.621 700.387 214.248C700.947 213.875 701.736 213.688 702.753 213.688H704.111V213.086C704.111 212.582 703.981 212.223 703.719 212.008C703.458 211.793 703.01 211.686 702.375 211.686ZM704.111 215.2V214.668H702.879C702.142 214.668 701.605 214.775 701.269 214.99C700.943 215.205 700.779 215.517 700.779 215.928C700.779 216.255 700.877 216.521 701.073 216.726C701.279 216.931 701.587 217.034 701.997 217.034C702.38 217.034 702.707 216.959 702.977 216.81C703.248 216.651 703.467 216.465 703.635 216.25C703.803 216.026 703.925 215.816 703.999 215.62C704.074 215.424 704.111 215.284 704.111 215.2ZM706.692 211.784V210.734H707.56V209.208H708.792V210.734H710.906V211.784H708.792V216.152C708.792 216.46 708.872 216.684 709.03 216.824C709.189 216.964 709.46 217.034 709.842 217.034C710.206 217.034 710.538 216.931 710.836 216.726V217.846C710.687 217.939 710.491 218.009 710.248 218.056C710.006 218.112 709.763 218.14 709.52 218.14C709.054 218.14 708.676 218.051 708.386 217.874C708.097 217.697 707.887 217.468 707.756 217.188C707.626 216.908 707.56 216.614 707.56 216.306V211.784H706.692ZM713.106 209.67C712.854 209.67 712.653 209.595 712.504 209.446C712.354 209.287 712.28 209.096 712.28 208.872C712.28 208.648 712.354 208.457 712.504 208.298C712.653 208.139 712.854 208.06 713.106 208.06C713.348 208.06 713.54 208.139 713.68 208.298C713.82 208.457 713.89 208.648 713.89 208.872C713.89 209.096 713.82 209.287 713.68 209.446C713.54 209.595 713.348 209.67 713.106 209.67ZM712.476 210.734H713.708V218H712.476V210.734ZM718.698 218.14C718.035 218.14 717.438 217.995 716.906 217.706C716.383 217.407 715.968 216.978 715.66 216.418C715.352 215.849 715.198 215.163 715.198 214.36C715.198 213.557 715.352 212.876 715.66 212.316C715.968 211.756 716.383 211.331 716.906 211.042C717.438 210.743 718.035 210.594 718.698 210.594C719.37 210.594 719.972 210.743 720.504 211.042C721.036 211.331 721.456 211.756 721.764 212.316C722.072 212.876 722.226 213.557 722.226 214.36C722.226 215.163 722.072 215.849 721.764 216.418C721.456 216.978 721.036 217.407 720.504 217.706C719.972 217.995 719.37 218.14 718.698 218.14ZM718.698 217.034C719.351 217.034 719.893 216.819 720.322 216.39C720.751 215.951 720.966 215.275 720.966 214.36C720.966 213.445 720.751 212.773 720.322 212.344C719.893 211.905 719.351 211.686 718.698 211.686C718.054 211.686 717.517 211.905 717.088 212.344C716.668 212.773 716.458 213.445 716.458 214.36C716.458 215.275 716.668 215.951 717.088 216.39C717.517 216.819 718.054 217.034 718.698 217.034ZM727.172 211.686C726.612 211.686 726.154 211.817 725.8 212.078C725.454 212.33 725.174 212.657 724.96 213.058V218H723.728V210.734H724.89L724.932 212.036H724.96C725.156 211.625 725.464 211.285 725.884 211.014C726.304 210.734 726.836 210.594 727.48 210.594C728.198 210.594 728.768 210.785 729.188 211.168C729.617 211.551 729.832 212.129 729.832 212.904V218H728.6V213.03C728.6 212.535 728.469 212.19 728.208 211.994C727.956 211.789 727.61 211.686 727.172 211.686ZM651.906 224.962H653.222V233.81H658.108V235H651.906V224.962ZM662.459 235.14C661.796 235.14 661.199 234.995 660.667 234.706C660.144 234.407 659.729 233.978 659.421 233.418C659.113 232.849 658.959 232.163 658.959 231.36C658.959 230.557 659.113 229.876 659.421 229.316C659.729 228.756 660.144 228.331 660.667 228.042C661.199 227.743 661.796 227.594 662.459 227.594C663.131 227.594 663.733 227.743 664.265 228.042C664.797 228.331 665.217 228.756 665.525 229.316C665.833 229.876 665.987 230.557 665.987 231.36C665.987 232.163 665.833 232.849 665.525 233.418C665.217 233.978 664.797 234.407 664.265 234.706C663.733 234.995 663.131 235.14 662.459 235.14ZM662.459 234.034C663.112 234.034 663.653 233.819 664.083 233.39C664.512 232.951 664.727 232.275 664.727 231.36C664.727 230.445 664.512 229.773 664.083 229.344C663.653 228.905 663.112 228.686 662.459 228.686C661.815 228.686 661.278 228.905 660.849 229.344C660.429 229.773 660.219 230.445 660.219 231.36C660.219 232.275 660.429 232.951 660.849 233.39C661.278 233.819 661.815 234.034 662.459 234.034ZM669.816 228.686C669.041 228.686 668.257 228.924 667.464 229.4V228.294C667.809 228.079 668.206 227.911 668.654 227.79C669.111 227.659 669.554 227.594 669.984 227.594C670.898 227.594 671.594 227.785 672.07 228.168C672.546 228.551 672.784 229.134 672.784 229.918V233.824C672.784 233.983 672.788 234.188 672.798 234.44C672.816 234.683 672.835 234.869 672.854 235H671.734C671.706 234.869 671.678 234.687 671.65 234.454C671.631 234.211 671.622 234.001 671.622 233.824L671.608 233.614C671.496 233.838 671.342 234.071 671.146 234.314C670.95 234.547 670.688 234.743 670.362 234.902C670.044 235.061 669.648 235.14 669.172 235.14C668.518 235.14 667.991 234.953 667.59 234.58C667.188 234.207 666.988 233.679 666.988 232.998C666.988 232.205 667.268 231.621 667.828 231.248C668.388 230.875 669.176 230.688 670.194 230.688H671.552V230.086C671.552 229.582 671.421 229.223 671.16 229.008C670.898 228.793 670.45 228.686 669.816 228.686ZM671.552 232.2V231.668H670.32C669.582 231.668 669.046 231.775 668.71 231.99C668.383 232.205 668.22 232.517 668.22 232.928C668.22 233.255 668.318 233.521 668.514 233.726C668.719 233.931 669.027 234.034 669.438 234.034C669.82 234.034 670.147 233.959 670.418 233.81C670.688 233.651 670.908 233.465 671.076 233.25C671.244 233.026 671.365 232.816 671.44 232.62C671.514 232.424 671.552 232.284 671.552 232.2ZM674.203 231.36C674.203 230.511 674.352 229.811 674.651 229.26C674.95 228.7 675.346 228.285 675.841 228.014C676.345 227.734 676.891 227.594 677.479 227.594C678.03 227.594 678.506 227.711 678.907 227.944C679.308 228.168 679.63 228.49 679.873 228.91V224.962H681.105V235H680.027L679.929 233.572C679.705 234.048 679.388 234.431 678.977 234.72C678.576 235 678.072 235.14 677.465 235.14C676.886 235.14 676.345 235.005 675.841 234.734C675.346 234.454 674.95 234.034 674.651 233.474C674.352 232.914 674.203 232.209 674.203 231.36ZM679.887 231.36C679.887 230.455 679.672 229.783 679.243 229.344C678.814 228.905 678.282 228.686 677.647 228.686C677.012 228.686 676.49 228.915 676.079 229.372C675.668 229.82 675.463 230.483 675.463 231.36C675.463 232.247 675.668 232.914 676.079 233.362C676.49 233.81 677.012 234.034 677.647 234.034C678.282 234.034 678.814 233.815 679.243 233.376C679.672 232.937 679.887 232.265 679.887 231.36ZM686.086 224.962H689.488C690.589 224.962 691.425 225.149 691.994 225.522C692.573 225.895 692.862 226.525 692.862 227.412C692.862 228.131 692.68 228.677 692.316 229.05C691.952 229.414 691.467 229.661 690.86 229.792C691.635 229.885 692.223 230.114 692.624 230.478C693.025 230.833 693.226 231.374 693.226 232.102C693.226 232.793 693.063 233.353 692.736 233.782C692.409 234.211 691.961 234.524 691.392 234.72C690.823 234.907 690.179 235 689.46 235H686.086V224.962ZM689.39 229.246C690.025 229.246 690.538 229.106 690.93 228.826C691.331 228.537 691.532 228.089 691.532 227.482C691.532 226.969 691.355 226.623 691 226.446C690.645 226.259 690.141 226.166 689.488 226.166H687.402V229.246H689.39ZM689.46 233.81C690.169 233.81 690.743 233.689 691.182 233.446C691.621 233.203 691.84 232.765 691.84 232.13C691.84 231.495 691.635 231.057 691.224 230.814C690.823 230.562 690.183 230.436 689.306 230.436H687.402V233.81H689.46ZM697.337 228.686C696.563 228.686 695.779 228.924 694.985 229.4V228.294C695.331 228.079 695.727 227.911 696.175 227.79C696.633 227.659 697.076 227.594 697.505 227.594C698.42 227.594 699.115 227.785 699.591 228.168C700.067 228.551 700.305 229.134 700.305 229.918V233.824C700.305 233.983 700.31 234.188 700.319 234.44C700.338 234.683 700.357 234.869 700.375 235H699.255C699.227 234.869 699.199 234.687 699.171 234.454C699.153 234.211 699.143 234.001 699.143 233.824L699.129 233.614C699.017 233.838 698.863 234.071 698.667 234.314C698.471 234.547 698.21 234.743 697.883 234.902C697.566 235.061 697.169 235.14 696.693 235.14C696.04 235.14 695.513 234.953 695.111 234.58C694.71 234.207 694.509 233.679 694.509 232.998C694.509 232.205 694.789 231.621 695.349 231.248C695.909 230.875 696.698 230.688 697.715 230.688H699.073V230.086C699.073 229.582 698.943 229.223 698.681 229.008C698.42 228.793 697.972 228.686 697.337 228.686ZM699.073 232.2V231.668H697.841C697.104 231.668 696.567 231.775 696.231 231.99C695.905 232.205 695.741 232.517 695.741 232.928C695.741 233.255 695.839 233.521 696.035 233.726C696.241 233.931 696.549 234.034 696.959 234.034C697.342 234.034 697.669 233.959 697.939 233.81C698.21 233.651 698.429 233.465 698.597 233.25C698.765 233.026 698.887 232.816 698.961 232.62C699.036 232.424 699.073 232.284 699.073 232.2ZM702.242 224.962H703.474V235H702.242V224.962ZM707.947 228.686C707.172 228.686 706.388 228.924 705.595 229.4V228.294C705.94 228.079 706.337 227.911 706.785 227.79C707.242 227.659 707.685 227.594 708.115 227.594C709.029 227.594 709.725 227.785 710.201 228.168C710.677 228.551 710.915 229.134 710.915 229.918V233.824C710.915 233.983 710.919 234.188 710.929 234.44C710.947 234.683 710.966 234.869 710.985 235H709.865C709.837 234.869 709.809 234.687 709.781 234.454C709.762 234.211 709.753 234.001 709.753 233.824L709.739 233.614C709.627 233.838 709.473 234.071 709.277 234.314C709.081 234.547 708.819 234.743 708.493 234.902C708.175 235.061 707.779 235.14 707.303 235.14C706.649 235.14 706.122 234.953 705.721 234.58C705.319 234.207 705.119 233.679 705.119 232.998C705.119 232.205 705.399 231.621 705.959 231.248C706.519 230.875 707.307 230.688 708.325 230.688H709.683V230.086C709.683 229.582 709.552 229.223 709.291 229.008C709.029 228.793 708.581 228.686 707.947 228.686ZM709.683 232.2V231.668H708.451C707.713 231.668 707.177 231.775 706.841 231.99C706.514 232.205 706.351 232.517 706.351 232.928C706.351 233.255 706.449 233.521 706.645 233.726C706.85 233.931 707.158 234.034 707.569 234.034C707.951 234.034 708.278 233.959 708.549 233.81C708.819 233.651 709.039 233.465 709.207 233.25C709.375 233.026 709.496 232.816 709.571 232.62C709.645 232.424 709.683 232.284 709.683 232.2ZM716.296 228.686C715.736 228.686 715.278 228.817 714.924 229.078C714.578 229.33 714.298 229.657 714.084 230.058V235H712.852V227.734H714.014L714.056 229.036H714.084C714.28 228.625 714.588 228.285 715.008 228.014C715.428 227.734 715.96 227.594 716.604 227.594C717.322 227.594 717.892 227.785 718.312 228.168C718.741 228.551 718.956 229.129 718.956 229.904V235H717.724V230.03C717.724 229.535 717.593 229.19 717.332 228.994C717.08 228.789 716.734 228.686 716.296 228.686ZM724.04 235.14C722.911 235.14 722.02 234.809 721.366 234.146C720.713 233.474 720.386 232.545 720.386 231.36C720.386 230.175 720.718 229.251 721.38 228.588C722.043 227.925 722.948 227.594 724.096 227.594C724.535 227.594 724.946 227.645 725.328 227.748C725.711 227.841 726.019 227.981 726.252 228.168V229.274C725.618 228.882 724.904 228.686 724.11 228.686C723.27 228.686 722.65 228.91 722.248 229.358C721.847 229.797 721.646 230.464 721.646 231.36C721.646 232.256 721.838 232.928 722.22 233.376C722.612 233.815 723.219 234.034 724.04 234.034C724.834 234.034 725.571 233.843 726.252 233.46V234.566C725.646 234.949 724.908 235.14 724.04 235.14ZM730.974 235.14C729.761 235.14 728.832 234.809 728.188 234.146C727.553 233.474 727.236 232.545 727.236 231.36C727.236 230.567 727.385 229.89 727.684 229.33C727.983 228.77 728.393 228.341 728.916 228.042C729.439 227.743 730.027 227.594 730.68 227.594C731.791 227.594 732.607 227.963 733.13 228.7C733.653 229.428 733.821 230.427 733.634 231.696H728.51C728.613 233.255 729.471 234.034 731.086 234.034C731.973 234.034 732.789 233.782 733.536 233.278V234.384C733.2 234.617 732.808 234.804 732.36 234.944C731.912 235.075 731.45 235.14 730.974 235.14ZM730.652 228.686C730.12 228.686 729.663 228.849 729.28 229.176C728.897 229.503 728.655 229.997 728.552 230.66H732.458C732.486 230.035 732.341 229.549 732.024 229.204C731.707 228.859 731.249 228.686 730.652 228.686ZM738.776 228.966C738.197 229.013 737.703 229.157 737.292 229.4C736.891 229.643 736.597 229.969 736.41 230.38V235H735.178V227.734H736.256L736.382 229.316H736.41C736.643 228.831 736.961 228.439 737.362 228.14C737.773 227.841 738.244 227.659 738.776 227.594V228.966Z" fill="black"/>
<rect x="642" y="133" width="32" height="32" rx="16" fill="#5282FF"/>
<path d="M663.827 145.396L657.912 142L652 145.396V152.646L657.914 156.048L663.827 152.646V145.396Z" stroke="white" stroke-linejoin="round"/>
<path d="M662.034 146.431H662.023L657.912 144.07L653.802 146.429L657.914 148.801L662.034 146.431Z" fill="white"/>
<rect x="679" y="133" width="32" height="32" rx="16" fill="#5282FF"/>
<path d="M700.827 145.396L694.912 142L689 145.396V152.646L694.914 156.048L700.827 152.646V145.396Z" stroke="white" stroke-linejoin="round"/>
<path d="M699.034 146.431H699.023L694.912 144.07L690.802 146.429L694.914 148.801L699.034 146.431Z" fill="white"/>
<rect x="716" y="133" width="32" height="32" rx="16" fill="#5282FF"/>
<path d="M737.827 145.396L731.912 142L726 145.396V152.646L731.914 156.048L737.827 152.646V145.396Z" stroke="white" stroke-linejoin="round"/>
<path d="M736.034 146.431H736.023L731.912 144.07L727.802 146.429L731.914 148.801L736.034 146.431Z" fill="white"/>
<rect x="679" y="40" width="32" height="32" rx="16" fill="#5282FF"/>
<path d="M691.44 63.5991L687 58.0322L688.583 51.0883L695 48L701.417 51.0892L703 58.0331L698.56 63.5991H691.44ZM698.556 53.9944L694.999 51.9524L691.444 53.9944V58.354L695 60.3996L698.556 58.354V53.9944ZM697.471 54.6167H697.478L695 56.0418L692.523 54.6158H692.528L694.999 53.197L697.471 54.6167Z" fill="white"/>
<rect x="35" y="85" width="140" height="110" rx="10" fill="white"/>
<rect x="35" y="85" width="140" height="110" rx="10" stroke="#5282FF" stroke-width="2"/>
<path d="M65.5705 101.962H68.9445C69.6165 101.962 70.2419 102.041 70.8205 102.2C71.3992 102.359 71.9032 102.62 72.3325 102.984C72.7619 103.339 73.0979 103.815 73.3405 104.412C73.5832 105.009 73.7045 105.751 73.7045 106.638C73.7045 107.814 73.4899 108.803 73.0605 109.606C72.6405 110.399 72.0619 110.997 71.3245 111.398C70.5872 111.799 69.7425 112 68.7905 112H65.5705V101.962ZM68.7905 110.81C69.4812 110.81 70.0879 110.67 70.6105 110.39C71.1332 110.101 71.5392 109.657 71.8285 109.06C72.1272 108.453 72.2765 107.679 72.2765 106.736C72.2765 105.793 72.1319 105.065 71.8425 104.552C71.5532 104.039 71.1565 103.679 70.6525 103.474C70.1579 103.269 69.5885 103.166 68.9445 103.166H66.8865V110.81H68.7905ZM75.4553 101.962H78.8293C79.5013 101.962 80.1266 102.041 80.7053 102.2C81.284 102.359 81.788 102.62 82.2173 102.984C82.6466 103.339 82.9826 103.815 83.2253 104.412C83.468 105.009 83.5893 105.751 83.5893 106.638C83.5893 107.814 83.3746 108.803 82.9453 109.606C82.5253 110.399 81.9466 110.997 81.2093 111.398C80.472 111.799 79.6273 112 78.6753 112H75.4553V101.962ZM78.6753 110.81C79.366 110.81 79.9726 110.67 80.4953 110.39C81.018 110.101 81.424 109.657 81.7133 109.06C82.012 108.453 82.1613 107.679 82.1613 106.736C82.1613 105.793 82.0166 105.065 81.7273 104.552C81.438 104.039 81.0413 103.679 80.5373 103.474C80.0426 103.269 79.4733 103.166 78.8293 103.166H76.7713V110.81H78.6753ZM88.2224 112.14C87.5598 112.14 86.9624 111.995 86.4304 111.706C85.9078 111.407 85.4924 110.978 85.1844 110.418C84.8764 109.849 84.7224 109.163 84.7224 108.36C84.7224 107.557 84.8764 106.876 85.1844 106.316C85.4924 105.756 85.9078 105.331 86.4304 105.042C86.9624 104.743 87.5598 104.594 88.2224 104.594C88.8944 104.594 89.4964 104.743 90.0284 105.042C90.5604 105.331 90.9804 105.756 91.2884 106.316C91.5964 106.876 91.7504 107.557 91.7504 108.36C91.7504 109.163 91.5964 109.849 91.2884 110.418C90.9804 110.978 90.5604 111.407 90.0284 111.706C89.4964 111.995 88.8944 112.14 88.2224 112.14ZM88.2224 111.034C88.8758 111.034 89.4171 110.819 89.8464 110.39C90.2758 109.951 90.4904 109.275 90.4904 108.36C90.4904 107.445 90.2758 106.773 89.8464 106.344C89.4171 105.905 88.8758 105.686 88.2224 105.686C87.5784 105.686 87.0418 105.905 86.6124 106.344C86.1924 106.773 85.9824 107.445 85.9824 108.36C85.9824 109.275 86.1924 109.951 86.6124 110.39C87.0418 110.819 87.5784 111.034 88.2224 111.034ZM96.2201 112.14C95.5108 112.14 94.8528 112.051 94.2461 111.874C93.6488 111.687 93.1915 111.445 92.8741 111.146V109.886C93.1075 110.091 93.4061 110.273 93.7701 110.432C94.1435 110.591 94.5448 110.717 94.9741 110.81C95.4035 110.903 95.8188 110.95 96.2201 110.95C96.9761 110.95 97.5595 110.805 97.9701 110.516C98.3901 110.227 98.6001 109.816 98.6001 109.284C98.6001 108.967 98.5348 108.71 98.4041 108.514C98.2828 108.309 98.0495 108.131 97.7041 107.982C97.3681 107.833 96.8781 107.679 96.2341 107.52C95.3941 107.305 94.7361 107.067 94.2601 106.806C93.7841 106.545 93.4481 106.237 93.2521 105.882C93.0561 105.518 92.9581 105.089 92.9581 104.594C92.9581 103.698 93.2755 103.017 93.9101 102.55C94.5448 102.074 95.4595 101.836 96.6541 101.836C97.1768 101.836 97.6575 101.887 98.0961 101.99C98.5348 102.093 98.9688 102.251 99.3981 102.466V103.726C98.6981 103.259 97.7835 103.026 96.6541 103.026C95.0581 103.026 94.2601 103.53 94.2601 104.538C94.2601 104.977 94.4235 105.322 94.7501 105.574C95.0861 105.826 95.6788 106.05 96.5281 106.246C97.4055 106.442 98.0915 106.671 98.5861 106.932C99.0808 107.193 99.4308 107.511 99.6361 107.884C99.8508 108.248 99.9581 108.696 99.9581 109.228C99.9581 110.133 99.6268 110.847 98.9641 111.37C98.3015 111.883 97.3868 112.14 96.2201 112.14ZM112.686 112.126C112.294 112.126 111.921 112.037 111.566 111.86C111.211 111.683 110.852 111.445 110.488 111.146C110.087 111.445 109.625 111.687 109.102 111.874C108.579 112.051 107.991 112.14 107.338 112.14C106.554 112.14 105.901 112.014 105.378 111.762C104.855 111.51 104.463 111.169 104.202 110.74C103.941 110.311 103.81 109.825 103.81 109.284C103.81 108.593 103.992 108.043 104.356 107.632C104.72 107.221 105.177 106.895 105.728 106.652C105.028 105.877 104.678 105.093 104.678 104.3C104.678 103.852 104.785 103.441 105 103.068C105.215 102.695 105.527 102.396 105.938 102.172C106.358 101.948 106.867 101.836 107.464 101.836C108.071 101.836 108.584 101.948 109.004 102.172C109.424 102.387 109.741 102.681 109.956 103.054C110.18 103.418 110.292 103.829 110.292 104.286C110.292 104.809 110.175 105.238 109.942 105.574C109.709 105.91 109.405 106.19 109.032 106.414C108.659 106.629 108.267 106.82 107.856 106.988L109.648 108.696C109.807 108.845 109.961 108.995 110.11 109.144C110.259 109.284 110.404 109.424 110.544 109.564C110.843 109.191 111.081 108.789 111.258 108.36C111.445 107.921 111.571 107.492 111.636 107.072L112.742 107.38C112.639 107.875 112.476 108.379 112.252 108.892C112.028 109.405 111.729 109.886 111.356 110.334C111.599 110.539 111.846 110.707 112.098 110.838C112.35 110.959 112.621 111.02 112.91 111.02C113.143 111.02 113.344 110.997 113.512 110.95C113.68 110.903 113.764 110.88 113.764 110.88V111.916C113.4 112.056 113.041 112.126 112.686 112.126ZM105.952 104.3C105.952 104.673 106.064 105.019 106.288 105.336C106.512 105.644 106.769 105.938 107.058 106.218C107.627 105.985 108.099 105.723 108.472 105.434C108.855 105.145 109.046 104.762 109.046 104.286C109.046 103.866 108.906 103.539 108.626 103.306C108.346 103.063 107.963 102.942 107.478 102.942C106.993 102.942 106.615 103.068 106.344 103.32C106.083 103.563 105.952 103.889 105.952 104.3ZM105.056 109.242C105.056 109.783 105.252 110.217 105.644 110.544C106.045 110.871 106.629 111.034 107.394 111.034C107.842 111.034 108.253 110.978 108.626 110.866C108.999 110.745 109.335 110.586 109.634 110.39C109.457 110.222 109.27 110.045 109.074 109.858C108.878 109.671 108.677 109.485 108.472 109.298L106.498 107.408C106.059 107.595 105.709 107.833 105.448 108.122C105.187 108.411 105.056 108.785 105.056 109.242ZM121.264 112H119.318L117.106 101.962H118.478L120.382 110.866L122.958 101.962H124.162L126.682 110.698L128.572 101.962H129.846L127.634 112H125.702L123.49 104.244L121.264 112ZM134.015 112.14C132.802 112.14 131.873 111.809 131.229 111.146C130.594 110.474 130.277 109.545 130.277 108.36C130.277 107.567 130.426 106.89 130.725 106.33C131.024 105.77 131.434 105.341 131.957 105.042C132.48 104.743 133.068 104.594 133.721 104.594C134.832 104.594 135.648 104.963 136.171 105.7C136.694 106.428 136.862 107.427 136.675 108.696H131.551C131.654 110.255 132.512 111.034 134.127 111.034C135.014 111.034 135.83 110.782 136.577 110.278V111.384C136.241 111.617 135.849 111.804 135.401 111.944C134.953 112.075 134.491 112.14 134.015 112.14ZM133.693 105.686C133.161 105.686 132.704 105.849 132.321 106.176C131.938 106.503 131.696 106.997 131.593 107.66H135.499C135.527 107.035 135.382 106.549 135.065 106.204C134.748 105.859 134.29 105.686 133.693 105.686ZM138.219 101.962H139.451L139.423 106.148C139.666 105.681 139.992 105.308 140.403 105.028C140.814 104.739 141.322 104.594 141.929 104.594C142.498 104.594 143.021 104.734 143.497 105.014C143.982 105.285 144.374 105.7 144.673 106.26C144.972 106.811 145.121 107.511 145.121 108.36C145.121 109.209 144.967 109.914 144.659 110.474C144.36 111.034 143.964 111.454 143.469 111.734C142.984 112.005 142.452 112.14 141.873 112.14C141.313 112.14 140.823 112.005 140.403 111.734C139.992 111.463 139.666 111.095 139.423 110.628L139.381 112H138.219V101.962ZM143.847 108.36C143.847 107.483 143.646 106.82 143.245 106.372C142.844 105.915 142.326 105.686 141.691 105.686C141.056 105.686 140.52 105.91 140.081 106.358C139.652 106.797 139.437 107.464 139.437 108.36C139.437 109.265 139.652 109.937 140.081 110.376C140.52 110.815 141.056 111.034 141.691 111.034C142.326 111.034 142.844 110.81 143.245 110.362C143.646 109.914 143.847 109.247 143.847 108.36ZM85.6605 122.686C84.8858 122.686 84.1018 122.924 83.3085 123.4V122.294C83.6538 122.079 84.0505 121.911 84.4985 121.79C84.9558 121.659 85.3991 121.594 85.8285 121.594C86.7431 121.594 87.4385 121.785 87.9145 122.168C88.3905 122.551 88.6285 123.134 88.6285 123.918V127.824C88.6285 127.983 88.6331 128.188 88.6425 128.44C88.6611 128.683 88.6798 128.869 88.6985 129H87.5785C87.5505 128.869 87.5225 128.687 87.4945 128.454C87.4758 128.211 87.4665 128.001 87.4665 127.824L87.4525 127.614C87.3405 127.838 87.1865 128.071 86.9905 128.314C86.7945 128.547 86.5331 128.743 86.2065 128.902C85.8891 129.061 85.4925 129.14 85.0165 129.14C84.3631 129.14 83.8358 128.953 83.4345 128.58C83.0331 128.207 82.8325 127.679 82.8325 126.998C82.8325 126.205 83.1125 125.621 83.6725 125.248C84.2325 124.875 85.0211 124.688 86.0385 124.688H87.3965V124.086C87.3965 123.582 87.2658 123.223 87.0045 123.008C86.7431 122.793 86.2951 122.686 85.6605 122.686ZM87.3965 126.2V125.668H86.1645C85.4271 125.668 84.8905 125.775 84.5545 125.99C84.2278 126.205 84.0645 126.517 84.0645 126.928C84.0645 127.255 84.1625 127.521 84.3585 127.726C84.5638 127.931 84.8718 128.034 85.2825 128.034C85.6651 128.034 85.9918 127.959 86.2625 127.81C86.5331 127.651 86.7525 127.465 86.9205 127.25C87.0885 127.026 87.2098 126.816 87.2845 126.62C87.3591 126.424 87.3965 126.284 87.3965 126.2ZM89.9776 122.784V121.734H90.8456V120.208H92.0776V121.734H94.1916V122.784H92.0776V127.152C92.0776 127.46 92.157 127.684 92.3156 127.824C92.4743 127.964 92.745 128.034 93.1276 128.034C93.4916 128.034 93.823 127.931 94.1216 127.726V128.846C93.9723 128.939 93.7763 129.009 93.5336 129.056C93.291 129.112 93.0483 129.14 92.8056 129.14C92.339 129.14 91.961 129.051 91.6716 128.874C91.3823 128.697 91.1723 128.468 91.0416 128.188C90.911 127.908 90.8456 127.614 90.8456 127.306V122.784H89.9776ZM95.1729 122.784V121.734H96.0409V120.208H97.2729V121.734H99.3869V122.784H97.2729V127.152C97.2729 127.46 97.3523 127.684 97.5109 127.824C97.6696 127.964 97.9403 128.034 98.3229 128.034C98.6869 128.034 99.0183 127.931 99.3169 127.726V128.846C99.1676 128.939 98.9716 129.009 98.7289 129.056C98.4863 129.112 98.2436 129.14 98.0009 129.14C97.5343 129.14 97.1563 129.051 96.8669 128.874C96.5776 128.697 96.3676 128.468 96.2369 128.188C96.1063 127.908 96.0409 127.614 96.0409 127.306V122.784H95.1729ZM103.42 122.686C102.646 122.686 101.862 122.924 101.068 123.4V122.294C101.414 122.079 101.81 121.911 102.258 121.79C102.716 121.659 103.159 121.594 103.588 121.594C104.503 121.594 105.198 121.785 105.674 122.168C106.15 122.551 106.388 123.134 106.388 123.918V127.824C106.388 127.983 106.393 128.188 106.402 128.44C106.421 128.683 106.44 128.869 106.458 129H105.338C105.31 128.869 105.282 128.687 105.254 128.454C105.236 128.211 105.226 128.001 105.226 127.824L105.212 127.614C105.1 127.838 104.946 128.071 104.75 128.314C104.554 128.547 104.293 128.743 103.966 128.902C103.649 129.061 103.252 129.14 102.776 129.14C102.123 129.14 101.596 128.953 101.194 128.58C100.793 128.207 100.592 127.679 100.592 126.998C100.592 126.205 100.872 125.621 101.432 125.248C101.992 124.875 102.781 124.688 103.798 124.688H105.156V124.086C105.156 123.582 105.026 123.223 104.764 123.008C104.503 122.793 104.055 122.686 103.42 122.686ZM105.156 126.2V125.668H103.924C103.187 125.668 102.65 125.775 102.314 125.99C101.988 126.205 101.824 126.517 101.824 126.928C101.824 127.255 101.922 127.521 102.118 127.726C102.324 127.931 102.632 128.034 103.042 128.034C103.425 128.034 103.752 127.959 104.022 127.81C104.293 127.651 104.512 127.465 104.68 127.25C104.848 127.026 104.97 126.816 105.044 126.62C105.119 126.424 105.156 126.284 105.156 126.2ZM111.461 129.14C110.332 129.14 109.441 128.809 108.787 128.146C108.134 127.474 107.807 126.545 107.807 125.36C107.807 124.175 108.139 123.251 108.801 122.588C109.464 121.925 110.369 121.594 111.517 121.594C111.956 121.594 112.367 121.645 112.749 121.748C113.132 121.841 113.44 121.981 113.673 122.168V123.274C113.039 122.882 112.325 122.686 111.531 122.686C110.691 122.686 110.071 122.91 109.669 123.358C109.268 123.797 109.067 124.464 109.067 125.36C109.067 126.256 109.259 126.928 109.641 127.376C110.033 127.815 110.64 128.034 111.461 128.034C112.255 128.034 112.992 127.843 113.673 127.46V128.566C113.067 128.949 112.329 129.14 111.461 129.14ZM121.111 129H119.613L117.051 125.906H116.407V129H115.175V118.962H116.407V124.856H117.107L119.655 121.734H121.055L118.073 125.318L121.111 129ZM124.376 129.14C123.844 129.14 123.335 129.065 122.85 128.916C122.374 128.757 121.987 128.547 121.688 128.286V127.18C121.977 127.46 122.365 127.684 122.85 127.852C123.345 128.02 123.849 128.104 124.362 128.104C125.501 128.104 126.07 127.735 126.07 126.998C126.07 126.783 126.019 126.611 125.916 126.48C125.823 126.34 125.645 126.223 125.384 126.13C125.123 126.027 124.745 125.929 124.25 125.836C123.307 125.649 122.649 125.397 122.276 125.08C121.903 124.753 121.716 124.291 121.716 123.694C121.716 123.031 121.973 122.518 122.486 122.154C122.999 121.781 123.709 121.594 124.614 121.594C125.043 121.594 125.463 121.641 125.874 121.734C126.294 121.818 126.635 121.935 126.896 122.084V123.19C126.355 122.817 125.608 122.63 124.656 122.63C124.068 122.63 123.634 122.714 123.354 122.882C123.083 123.05 122.948 123.311 122.948 123.666C122.948 123.853 122.99 124.007 123.074 124.128C123.158 124.249 123.326 124.357 123.578 124.45C123.83 124.543 124.208 124.641 124.712 124.744C125.356 124.875 125.865 125.033 126.238 125.22C126.621 125.397 126.891 125.626 127.05 125.906C127.218 126.186 127.302 126.541 127.302 126.97C127.302 127.651 127.045 128.183 126.532 128.566C126.019 128.949 125.3 129.14 124.376 129.14Z" fill="black"/>
<rect x="52" y="145" width="32" height="32" rx="16" fill="#FF5958"/>
<path d="M74 154V163.236C74 164.744 73.155 166.042 71.923 166.723L68 169L64.077 166.724C62.845 166.042 62 164.744 62 163.236V154H74Z" fill="white"/>
<path d="M75 154.5L60 169.5" stroke="#FF5958"/>
<rect x="126" y="145" width="32" height="32" rx="16" fill="#FF5958"/>
<path d="M148 154V163.236C148 164.744 147.155 166.042 145.923 166.723L142 169L138.077 166.724C136.845 166.042 136 164.744 136 163.236V154H148Z" fill="white"/>
<path d="M149 154.5L134 169.5" stroke="#FF5958"/>
<rect x="89" y="145" width="32" height="32" rx="16" fill="#FF5958"/>
<path d="M111 154V163.236C111 164.744 110.155 166.042 108.923 166.723L105 169L101.077 166.724C99.845 166.042 99 164.744 99 163.236V154H111Z" fill="white"/>
<path d="M112 154.5L97 169.5" stroke="#FF5958"/>
<path d="M240 140L230 134.226L230 145.774L240 140ZM180 141H231L231 139H180L180 141Z" fill="#4E496B"/>
<path d="M430 140L420 134.226L420 145.774L430 140ZM370 141H421L421 139H370L370 141Z" fill="#4E496B"/>
<path d="M620 140L610 134.226L610 145.774L620 140ZM560 141H611L611 139H560L560 141Z" fill="#4E496B"/>
<rect x="435" y="40" width="120" height="200" rx="10" fill="white"/>
<rect x="435" y="40" width="120" height="200" rx="10" stroke="#5282FF" stroke-width="2"/>
<path d="M468.636 114H467.236L466.2 111.13H461.762L460.74 114H459.508L463.078 103.962H465.038L468.636 114ZM462.196 109.94H465.78L463.988 104.942L462.196 109.94ZM469.792 106.734H470.87L470.996 108.148C471.23 107.681 471.552 107.308 471.962 107.028C472.382 106.739 472.896 106.594 473.502 106.594C474.072 106.594 474.594 106.734 475.07 107.014C475.556 107.285 475.948 107.7 476.246 108.26C476.545 108.811 476.694 109.511 476.694 110.36C476.694 111.209 476.54 111.914 476.232 112.474C475.934 113.034 475.537 113.454 475.042 113.734C474.557 114.005 474.025 114.14 473.446 114.14C472.896 114.14 472.415 114.009 472.004 113.748C471.594 113.487 471.267 113.127 471.024 112.67V116.478H469.792V106.734ZM475.42 110.36C475.42 109.483 475.22 108.82 474.818 108.372C474.417 107.915 473.899 107.686 473.264 107.686C472.63 107.686 472.093 107.91 471.654 108.358C471.225 108.797 471.01 109.464 471.01 110.36C471.01 111.265 471.225 111.937 471.654 112.376C472.093 112.815 472.63 113.034 473.264 113.034C473.899 113.034 474.417 112.81 474.818 112.362C475.22 111.914 475.42 111.247 475.42 110.36ZM478.187 106.734H479.265L479.391 108.148C479.624 107.681 479.946 107.308 480.357 107.028C480.777 106.739 481.29 106.594 481.897 106.594C482.466 106.594 482.989 106.734 483.465 107.014C483.95 107.285 484.342 107.7 484.641 108.26C484.939 108.811 485.089 109.511 485.089 110.36C485.089 111.209 484.935 111.914 484.627 112.474C484.328 113.034 483.931 113.454 483.437 113.734C482.951 114.005 482.419 114.14 481.841 114.14C481.29 114.14 480.809 114.009 480.399 113.748C479.988 113.487 479.661 113.127 479.419 112.67V116.478H478.187V106.734ZM483.815 110.36C483.815 109.483 483.614 108.82 483.213 108.372C482.811 107.915 482.293 107.686 481.659 107.686C481.024 107.686 480.487 107.91 480.049 108.358C479.619 108.797 479.405 109.464 479.405 110.36C479.405 111.265 479.619 111.937 480.049 112.376C480.487 112.815 481.024 113.034 481.659 113.034C482.293 113.034 482.811 112.81 483.213 112.362C483.614 111.914 483.815 111.247 483.815 110.36ZM486.581 103.962H487.813V114H486.581V103.962ZM490.451 105.67C490.199 105.67 489.999 105.595 489.849 105.446C489.7 105.287 489.625 105.096 489.625 104.872C489.625 104.648 489.7 104.457 489.849 104.298C489.999 104.139 490.199 104.06 490.451 104.06C490.694 104.06 490.885 104.139 491.025 104.298C491.165 104.457 491.235 104.648 491.235 104.872C491.235 105.096 491.165 105.287 491.025 105.446C490.885 105.595 490.694 105.67 490.451 105.67ZM489.821 106.734H491.053V114H489.821V106.734ZM496.198 114.14C495.068 114.14 494.177 113.809 493.524 113.146C492.87 112.474 492.544 111.545 492.544 110.36C492.544 109.175 492.875 108.251 493.538 107.588C494.2 106.925 495.106 106.594 496.254 106.594C496.692 106.594 497.103 106.645 497.486 106.748C497.868 106.841 498.176 106.981 498.41 107.168V108.274C497.775 107.882 497.061 107.686 496.268 107.686C495.428 107.686 494.807 107.91 494.406 108.358C494.004 108.797 493.804 109.464 493.804 110.36C493.804 111.256 493.995 111.928 494.378 112.376C494.77 112.815 495.376 113.034 496.198 113.034C496.991 113.034 497.728 112.843 498.41 112.46V113.566C497.803 113.949 497.066 114.14 496.198 114.14ZM502.375 107.686C501.601 107.686 500.817 107.924 500.023 108.4V107.294C500.369 107.079 500.765 106.911 501.213 106.79C501.671 106.659 502.114 106.594 502.543 106.594C503.458 106.594 504.153 106.785 504.629 107.168C505.105 107.551 505.343 108.134 505.343 108.918V112.824C505.343 112.983 505.348 113.188 505.357 113.44C505.376 113.683 505.395 113.869 505.413 114H504.293C504.265 113.869 504.237 113.687 504.209 113.454C504.191 113.211 504.181 113.001 504.181 112.824L504.167 112.614C504.055 112.838 503.901 113.071 503.705 113.314C503.509 113.547 503.248 113.743 502.921 113.902C502.604 114.061 502.207 114.14 501.731 114.14C501.078 114.14 500.551 113.953 500.149 113.58C499.748 113.207 499.547 112.679 499.547 111.998C499.547 111.205 499.827 110.621 500.387 110.248C500.947 109.875 501.736 109.688 502.753 109.688H504.111V109.086C504.111 108.582 503.981 108.223 503.719 108.008C503.458 107.793 503.01 107.686 502.375 107.686ZM504.111 111.2V110.668H502.879C502.142 110.668 501.605 110.775 501.269 110.99C500.943 111.205 500.779 111.517 500.779 111.928C500.779 112.255 500.877 112.521 501.073 112.726C501.279 112.931 501.587 113.034 501.997 113.034C502.38 113.034 502.707 112.959 502.977 112.81C503.248 112.651 503.467 112.465 503.635 112.25C503.803 112.026 503.925 111.816 503.999 111.62C504.074 111.424 504.111 111.284 504.111 111.2ZM506.692 107.784V106.734H507.56V105.208H508.792V106.734H510.906V107.784H508.792V112.152C508.792 112.46 508.872 112.684 509.03 112.824C509.189 112.964 509.46 113.034 509.842 113.034C510.206 113.034 510.538 112.931 510.836 112.726V113.846C510.687 113.939 510.491 114.009 510.248 114.056C510.006 114.112 509.763 114.14 509.52 114.14C509.054 114.14 508.676 114.051 508.386 113.874C508.097 113.697 507.887 113.468 507.756 113.188C507.626 112.908 507.56 112.614 507.56 112.306V107.784H506.692ZM513.106 105.67C512.854 105.67 512.653 105.595 512.504 105.446C512.354 105.287 512.28 105.096 512.28 104.872C512.28 104.648 512.354 104.457 512.504 104.298C512.653 104.139 512.854 104.06 513.106 104.06C513.348 104.06 513.54 104.139 513.68 104.298C513.82 104.457 513.89 104.648 513.89 104.872C513.89 105.096 513.82 105.287 513.68 105.446C513.54 105.595 513.348 105.67 513.106 105.67ZM512.476 106.734H513.708V114H512.476V106.734ZM518.698 114.14C518.035 114.14 517.438 113.995 516.906 113.706C516.383 113.407 515.968 112.978 515.66 112.418C515.352 111.849 515.198 111.163 515.198 110.36C515.198 109.557 515.352 108.876 515.66 108.316C515.968 107.756 516.383 107.331 516.906 107.042C517.438 106.743 518.035 106.594 518.698 106.594C519.37 106.594 519.972 106.743 520.504 107.042C521.036 107.331 521.456 107.756 521.764 108.316C522.072 108.876 522.226 109.557 522.226 110.36C522.226 111.163 522.072 111.849 521.764 112.418C521.456 112.978 521.036 113.407 520.504 113.706C519.972 113.995 519.37 114.14 518.698 114.14ZM518.698 113.034C519.351 113.034 519.893 112.819 520.322 112.39C520.751 111.951 520.966 111.275 520.966 110.36C520.966 109.445 520.751 108.773 520.322 108.344C519.893 107.905 519.351 107.686 518.698 107.686C518.054 107.686 517.517 107.905 517.088 108.344C516.668 108.773 516.458 109.445 516.458 110.36C516.458 111.275 516.668 111.951 517.088 112.39C517.517 112.819 518.054 113.034 518.698 113.034ZM527.172 107.686C526.612 107.686 526.154 107.817 525.8 108.078C525.454 108.33 525.174 108.657 524.96 109.058V114H523.728V106.734H524.89L524.932 108.036H524.96C525.156 107.625 525.464 107.285 525.884 107.014C526.304 106.734 526.836 106.594 527.48 106.594C528.198 106.594 528.768 106.785 529.188 107.168C529.617 107.551 529.832 108.129 529.832 108.904V114H528.6V109.03C528.6 108.535 528.469 108.19 528.208 107.994C527.956 107.789 527.61 107.686 527.172 107.686ZM451.906 117.962H453.222V126.81H458.108V128H451.906V117.962ZM462.459 128.14C461.796 128.14 461.199 127.995 460.667 127.706C460.144 127.407 459.729 126.978 459.421 126.418C459.113 125.849 458.959 125.163 458.959 124.36C458.959 123.557 459.113 122.876 459.421 122.316C459.729 121.756 460.144 121.331 460.667 121.042C461.199 120.743 461.796 120.594 462.459 120.594C463.131 120.594 463.733 120.743 464.265 121.042C464.797 121.331 465.217 121.756 465.525 122.316C465.833 122.876 465.987 123.557 465.987 124.36C465.987 125.163 465.833 125.849 465.525 126.418C465.217 126.978 464.797 127.407 464.265 127.706C463.733 127.995 463.131 128.14 462.459 128.14ZM462.459 127.034C463.112 127.034 463.653 126.819 464.083 126.39C464.512 125.951 464.727 125.275 464.727 124.36C464.727 123.445 464.512 122.773 464.083 122.344C463.653 121.905 463.112 121.686 462.459 121.686C461.815 121.686 461.278 121.905 460.849 122.344C460.429 122.773 460.219 123.445 460.219 124.36C460.219 125.275 460.429 125.951 460.849 126.39C461.278 126.819 461.815 127.034 462.459 127.034ZM469.816 121.686C469.041 121.686 468.257 121.924 467.464 122.4V121.294C467.809 121.079 468.206 120.911 468.654 120.79C469.111 120.659 469.554 120.594 469.984 120.594C470.898 120.594 471.594 120.785 472.07 121.168C472.546 121.551 472.784 122.134 472.784 122.918V126.824C472.784 126.983 472.788 127.188 472.798 127.44C472.816 127.683 472.835 127.869 472.854 128H471.734C471.706 127.869 471.678 127.687 471.65 127.454C471.631 127.211 471.622 127.001 471.622 126.824L471.608 126.614C471.496 126.838 471.342 127.071 471.146 127.314C470.95 127.547 470.688 127.743 470.362 127.902C470.044 128.061 469.648 128.14 469.172 128.14C468.518 128.14 467.991 127.953 467.59 127.58C467.188 127.207 466.988 126.679 466.988 125.998C466.988 125.205 467.268 124.621 467.828 124.248C468.388 123.875 469.176 123.688 470.194 123.688H471.552V123.086C471.552 122.582 471.421 122.223 471.16 122.008C470.898 121.793 470.45 121.686 469.816 121.686ZM471.552 125.2V124.668H470.32C469.582 124.668 469.046 124.775 468.71 124.99C468.383 125.205 468.22 125.517 468.22 125.928C468.22 126.255 468.318 126.521 468.514 126.726C468.719 126.931 469.027 127.034 469.438 127.034C469.82 127.034 470.147 126.959 470.418 126.81C470.688 126.651 470.908 126.465 471.076 126.25C471.244 126.026 471.365 125.816 471.44 125.62C471.514 125.424 471.552 125.284 471.552 125.2ZM474.203 124.36C474.203 123.511 474.352 122.811 474.651 122.26C474.95 121.7 475.346 121.285 475.841 121.014C476.345 120.734 476.891 120.594 477.479 120.594C478.03 120.594 478.506 120.711 478.907 120.944C479.308 121.168 479.63 121.49 479.873 121.91V117.962H481.105V128H480.027L479.929 126.572C479.705 127.048 479.388 127.431 478.977 127.72C478.576 128 478.072 128.14 477.465 128.14C476.886 128.14 476.345 128.005 475.841 127.734C475.346 127.454 474.95 127.034 474.651 126.474C474.352 125.914 474.203 125.209 474.203 124.36ZM479.887 124.36C479.887 123.455 479.672 122.783 479.243 122.344C478.814 121.905 478.282 121.686 477.647 121.686C477.012 121.686 476.49 121.915 476.079 122.372C475.668 122.82 475.463 123.483 475.463 124.36C475.463 125.247 475.668 125.914 476.079 126.362C476.49 126.81 477.012 127.034 477.647 127.034C478.282 127.034 478.814 126.815 479.243 126.376C479.672 125.937 479.887 125.265 479.887 124.36ZM486.086 117.962H489.488C490.589 117.962 491.425 118.149 491.994 118.522C492.573 118.895 492.862 119.525 492.862 120.412C492.862 121.131 492.68 121.677 492.316 122.05C491.952 122.414 491.467 122.661 490.86 122.792C491.635 122.885 492.223 123.114 492.624 123.478C493.025 123.833 493.226 124.374 493.226 125.102C493.226 125.793 493.063 126.353 492.736 126.782C492.409 127.211 491.961 127.524 491.392 127.72C490.823 127.907 490.179 128 489.46 128H486.086V117.962ZM489.39 122.246C490.025 122.246 490.538 122.106 490.93 121.826C491.331 121.537 491.532 121.089 491.532 120.482C491.532 119.969 491.355 119.623 491 119.446C490.645 119.259 490.141 119.166 489.488 119.166H487.402V122.246H489.39ZM489.46 126.81C490.169 126.81 490.743 126.689 491.182 126.446C491.621 126.203 491.84 125.765 491.84 125.13C491.84 124.495 491.635 124.057 491.224 123.814C490.823 123.562 490.183 123.436 489.306 123.436H487.402V126.81H489.46ZM497.337 121.686C496.563 121.686 495.779 121.924 494.985 122.4V121.294C495.331 121.079 495.727 120.911 496.175 120.79C496.633 120.659 497.076 120.594 497.505 120.594C498.42 120.594 499.115 120.785 499.591 121.168C500.067 121.551 500.305 122.134 500.305 122.918V126.824C500.305 126.983 500.31 127.188 500.319 127.44C500.338 127.683 500.357 127.869 500.375 128H499.255C499.227 127.869 499.199 127.687 499.171 127.454C499.153 127.211 499.143 127.001 499.143 126.824L499.129 126.614C499.017 126.838 498.863 127.071 498.667 127.314C498.471 127.547 498.21 127.743 497.883 127.902C497.566 128.061 497.169 128.14 496.693 128.14C496.04 128.14 495.513 127.953 495.111 127.58C494.71 127.207 494.509 126.679 494.509 125.998C494.509 125.205 494.789 124.621 495.349 124.248C495.909 123.875 496.698 123.688 497.715 123.688H499.073V123.086C499.073 122.582 498.943 122.223 498.681 122.008C498.42 121.793 497.972 121.686 497.337 121.686ZM499.073 125.2V124.668H497.841C497.104 124.668 496.567 124.775 496.231 124.99C495.905 125.205 495.741 125.517 495.741 125.928C495.741 126.255 495.839 126.521 496.035 126.726C496.241 126.931 496.549 127.034 496.959 127.034C497.342 127.034 497.669 126.959 497.939 126.81C498.21 126.651 498.429 126.465 498.597 126.25C498.765 126.026 498.887 125.816 498.961 125.62C499.036 125.424 499.073 125.284 499.073 125.2ZM502.242 117.962H503.474V128H502.242V117.962ZM507.947 121.686C507.172 121.686 506.388 121.924 505.595 122.4V121.294C505.94 121.079 506.337 120.911 506.785 120.79C507.242 120.659 507.685 120.594 508.115 120.594C509.029 120.594 509.725 120.785 510.201 121.168C510.677 121.551 510.915 122.134 510.915 122.918V126.824C510.915 126.983 510.919 127.188 510.929 127.44C510.947 127.683 510.966 127.869 510.985 128H509.865C509.837 127.869 509.809 127.687 509.781 127.454C509.762 127.211 509.753 127.001 509.753 126.824L509.739 126.614C509.627 126.838 509.473 127.071 509.277 127.314C509.081 127.547 508.819 127.743 508.493 127.902C508.175 128.061 507.779 128.14 507.303 128.14C506.649 128.14 506.122 127.953 505.721 127.58C505.319 127.207 505.119 126.679 505.119 125.998C505.119 125.205 505.399 124.621 505.959 124.248C506.519 123.875 507.307 123.688 508.325 123.688H509.683V123.086C509.683 122.582 509.552 122.223 509.291 122.008C509.029 121.793 508.581 121.686 507.947 121.686ZM509.683 125.2V124.668H508.451C507.713 124.668 507.177 124.775 506.841 124.99C506.514 125.205 506.351 125.517 506.351 125.928C506.351 126.255 506.449 126.521 506.645 126.726C506.85 126.931 507.158 127.034 507.569 127.034C507.951 127.034 508.278 126.959 508.549 126.81C508.819 126.651 509.039 126.465 509.207 126.25C509.375 126.026 509.496 125.816 509.571 125.62C509.645 125.424 509.683 125.284 509.683 125.2ZM516.296 121.686C515.736 121.686 515.278 121.817 514.924 122.078C514.578 122.33 514.298 122.657 514.084 123.058V128H512.852V120.734H514.014L514.056 122.036H514.084C514.28 121.625 514.588 121.285 515.008 121.014C515.428 120.734 515.96 120.594 516.604 120.594C517.322 120.594 517.892 120.785 518.312 121.168C518.741 121.551 518.956 122.129 518.956 122.904V128H517.724V123.03C517.724 122.535 517.593 122.19 517.332 121.994C517.08 121.789 516.734 121.686 516.296 121.686ZM524.04 128.14C522.911 128.14 522.02 127.809 521.366 127.146C520.713 126.474 520.386 125.545 520.386 124.36C520.386 123.175 520.718 122.251 521.38 121.588C522.043 120.925 522.948 120.594 524.096 120.594C524.535 120.594 524.946 120.645 525.328 120.748C525.711 120.841 526.019 120.981 526.252 121.168V122.274C525.618 121.882 524.904 121.686 524.11 121.686C523.27 121.686 522.65 121.91 522.248 122.358C521.847 122.797 521.646 123.464 521.646 124.36C521.646 125.256 521.838 125.928 522.22 126.376C522.612 126.815 523.219 127.034 524.04 127.034C524.834 127.034 525.571 126.843 526.252 126.46V127.566C525.646 127.949 524.908 128.14 524.04 128.14ZM530.974 128.14C529.761 128.14 528.832 127.809 528.188 127.146C527.553 126.474 527.236 125.545 527.236 124.36C527.236 123.567 527.385 122.89 527.684 122.33C527.983 121.77 528.393 121.341 528.916 121.042C529.439 120.743 530.027 120.594 530.68 120.594C531.791 120.594 532.607 120.963 533.13 121.7C533.653 122.428 533.821 123.427 533.634 124.696H528.51C528.613 126.255 529.471 127.034 531.086 127.034C531.973 127.034 532.789 126.782 533.536 126.278V127.384C533.2 127.617 532.808 127.804 532.36 127.944C531.912 128.075 531.45 128.14 530.974 128.14ZM530.652 121.686C530.12 121.686 529.663 121.849 529.28 122.176C528.897 122.503 528.655 122.997 528.552 123.66H532.458C532.486 123.035 532.341 122.549 532.024 122.204C531.707 121.859 531.249 121.686 530.652 121.686ZM538.776 121.966C538.197 122.013 537.703 122.157 537.292 122.4C536.891 122.643 536.597 122.969 536.41 123.38V128H535.178V120.734H536.256L536.382 122.316H536.41C536.643 121.831 536.961 121.439 537.362 121.14C537.773 120.841 538.244 120.659 538.776 120.594V121.966Z" fill="black"/>
<path d="M464.038 197.14C463.328 197.14 462.67 197.051 462.064 196.874C461.466 196.687 461.009 196.445 460.692 196.146V194.886C460.925 195.091 461.224 195.273 461.588 195.432C461.961 195.591 462.362 195.717 462.792 195.81C463.221 195.903 463.636 195.95 464.038 195.95C464.794 195.95 465.377 195.805 465.788 195.516C466.208 195.227 466.418 194.816 466.418 194.284C466.418 193.967 466.352 193.71 466.222 193.514C466.1 193.309 465.867 193.131 465.522 192.982C465.186 192.833 464.696 192.679 464.052 192.52C463.212 192.305 462.554 192.067 462.078 191.806C461.602 191.545 461.266 191.237 461.07 190.882C460.874 190.518 460.776 190.089 460.776 189.594C460.776 188.698 461.093 188.017 461.728 187.55C462.362 187.074 463.277 186.836 464.472 186.836C464.994 186.836 465.475 186.887 465.914 186.99C466.352 187.093 466.786 187.251 467.216 187.466V188.726C466.516 188.259 465.601 188.026 464.472 188.026C462.876 188.026 462.078 188.53 462.078 189.538C462.078 189.977 462.241 190.322 462.568 190.574C462.904 190.826 463.496 191.05 464.346 191.246C465.223 191.442 465.909 191.671 466.404 191.932C466.898 192.193 467.248 192.511 467.454 192.884C467.668 193.248 467.776 193.696 467.776 194.228C467.776 195.133 467.444 195.847 466.782 196.37C466.119 196.883 465.204 197.14 464.038 197.14ZM473.865 191.918C473.865 191.451 473.748 191.129 473.515 190.952C473.281 190.775 472.964 190.686 472.563 190.686C472.04 190.686 471.625 190.817 471.317 191.078C471.009 191.33 470.738 191.661 470.505 192.072V197H469.273V189.734H470.351L470.477 191.036H470.505C470.701 190.625 470.995 190.285 471.387 190.014C471.788 189.734 472.301 189.594 472.927 189.594C473.477 189.594 473.935 189.729 474.299 190C474.663 190.261 474.905 190.658 475.027 191.19C475.232 190.695 475.545 190.308 475.965 190.028C476.394 189.739 476.912 189.594 477.519 189.594C478.181 189.594 478.709 189.785 479.101 190.168C479.502 190.551 479.703 191.129 479.703 191.904V197H478.457V192.058C478.457 191.582 478.34 191.237 478.107 191.022C477.873 190.798 477.556 190.686 477.155 190.686C476.623 190.686 476.203 190.84 475.895 191.148C475.587 191.447 475.321 191.801 475.097 192.212V197H473.865V191.918ZM484.096 190.686C483.321 190.686 482.537 190.924 481.744 191.4V190.294C482.089 190.079 482.486 189.911 482.934 189.79C483.391 189.659 483.835 189.594 484.264 189.594C485.179 189.594 485.874 189.785 486.35 190.168C486.826 190.551 487.064 191.134 487.064 191.918V195.824C487.064 195.983 487.069 196.188 487.078 196.44C487.097 196.683 487.115 196.869 487.134 197H486.014C485.986 196.869 485.958 196.687 485.93 196.454C485.911 196.211 485.902 196.001 485.902 195.824L485.888 195.614C485.776 195.838 485.622 196.071 485.426 196.314C485.23 196.547 484.969 196.743 484.642 196.902C484.325 197.061 483.928 197.14 483.452 197.14C482.799 197.14 482.271 196.953 481.87 196.58C481.469 196.207 481.268 195.679 481.268 194.998C481.268 194.205 481.548 193.621 482.108 193.248C482.668 192.875 483.457 192.688 484.474 192.688H485.832V192.086C485.832 191.582 485.701 191.223 485.44 191.008C485.179 190.793 484.731 190.686 484.096 190.686ZM485.832 194.2V193.668H484.6C483.863 193.668 483.326 193.775 482.99 193.99C482.663 194.205 482.5 194.517 482.5 194.928C482.5 195.255 482.598 195.521 482.794 195.726C482.999 195.931 483.307 196.034 483.718 196.034C484.101 196.034 484.427 195.959 484.698 195.81C484.969 195.651 485.188 195.465 485.356 195.25C485.524 195.026 485.645 194.816 485.72 194.62C485.795 194.424 485.832 194.284 485.832 194.2ZM492.599 190.966C492.02 191.013 491.526 191.157 491.115 191.4C490.714 191.643 490.42 191.969 490.233 192.38V197H489.001V189.734H490.079L490.205 191.316H490.233C490.466 190.831 490.784 190.439 491.185 190.14C491.596 189.841 492.067 189.659 492.599 189.594V190.966ZM493.581 190.784V189.734H494.449V188.208H495.681V189.734H497.795V190.784H495.681V195.152C495.681 195.46 495.76 195.684 495.919 195.824C496.078 195.964 496.348 196.034 496.731 196.034C497.095 196.034 497.426 195.931 497.725 195.726V196.846C497.576 196.939 497.38 197.009 497.137 197.056C496.894 197.112 496.652 197.14 496.409 197.14C495.942 197.14 495.564 197.051 495.275 196.874C494.986 196.697 494.776 196.468 494.645 196.188C494.514 195.908 494.449 195.614 494.449 195.306V190.784H493.581ZM505.597 197H503.651L501.439 186.962H502.811L504.715 195.866L507.291 186.962H508.495L511.015 195.698L512.905 186.962H514.179L511.967 197H510.035L507.823 189.244L505.597 197ZM518.348 197.14C517.135 197.14 516.206 196.809 515.562 196.146C514.927 195.474 514.61 194.545 514.61 193.36C514.61 192.567 514.759 191.89 515.058 191.33C515.357 190.77 515.767 190.341 516.29 190.042C516.813 189.743 517.401 189.594 518.054 189.594C519.165 189.594 519.981 189.963 520.504 190.7C521.027 191.428 521.195 192.427 521.008 193.696H515.884C515.987 195.255 516.845 196.034 518.46 196.034C519.347 196.034 520.163 195.782 520.91 195.278V196.384C520.574 196.617 520.182 196.804 519.734 196.944C519.286 197.075 518.824 197.14 518.348 197.14ZM518.026 190.686C517.494 190.686 517.037 190.849 516.654 191.176C516.271 191.503 516.029 191.997 515.926 192.66H519.832C519.86 192.035 519.715 191.549 519.398 191.204C519.081 190.859 518.623 190.686 518.026 190.686ZM522.552 186.962H523.784L523.756 191.148C523.999 190.681 524.325 190.308 524.736 190.028C525.147 189.739 525.655 189.594 526.262 189.594C526.831 189.594 527.354 189.734 527.83 190.014C528.315 190.285 528.707 190.7 529.006 191.26C529.305 191.811 529.454 192.511 529.454 193.36C529.454 194.209 529.3 194.914 528.992 195.474C528.693 196.034 528.297 196.454 527.802 196.734C527.317 197.005 526.785 197.14 526.206 197.14C525.646 197.14 525.156 197.005 524.736 196.734C524.325 196.463 523.999 196.095 523.756 195.628L523.714 197H522.552V186.962ZM528.18 193.36C528.18 192.483 527.979 191.82 527.578 191.372C527.177 190.915 526.659 190.686 526.024 190.686C525.389 190.686 524.853 190.91 524.414 191.358C523.985 191.797 523.77 192.464 523.77 193.36C523.77 194.265 523.985 194.937 524.414 195.376C524.853 195.815 525.389 196.034 526.024 196.034C526.659 196.034 527.177 195.81 527.578 195.362C527.979 194.914 528.18 194.247 528.18 193.36ZM473.191 211.14C472.482 211.14 471.824 211.051 471.217 210.874C470.62 210.687 470.162 210.445 469.845 210.146V208.886C470.078 209.091 470.377 209.273 470.741 209.432C471.114 209.591 471.516 209.717 471.945 209.81C472.374 209.903 472.79 209.95 473.191 209.95C473.947 209.95 474.53 209.805 474.941 209.516C475.361 209.227 475.571 208.816 475.571 208.284C475.571 207.967 475.506 207.71 475.375 207.514C475.254 207.309 475.02 207.131 474.675 206.982C474.339 206.833 473.849 206.679 473.205 206.52C472.365 206.305 471.707 206.067 471.231 205.806C470.755 205.545 470.419 205.237 470.223 204.882C470.027 204.518 469.929 204.089 469.929 203.594C469.929 202.698 470.246 202.017 470.881 201.55C471.516 201.074 472.43 200.836 473.625 200.836C474.148 200.836 474.628 200.887 475.067 200.99C475.506 201.093 475.94 201.251 476.369 201.466V202.726C475.669 202.259 474.754 202.026 473.625 202.026C472.029 202.026 471.231 202.53 471.231 203.538C471.231 203.977 471.394 204.322 471.721 204.574C472.057 204.826 472.65 205.05 473.499 205.246C474.376 205.442 475.062 205.671 475.557 205.932C476.052 206.193 476.402 206.511 476.607 206.884C476.822 207.248 476.929 207.696 476.929 208.228C476.929 209.133 476.598 209.847 475.935 210.37C475.272 210.883 474.358 211.14 473.191 211.14ZM481.783 211.14C480.569 211.14 479.641 210.809 478.997 210.146C478.362 209.474 478.045 208.545 478.045 207.36C478.045 206.567 478.194 205.89 478.493 205.33C478.791 204.77 479.202 204.341 479.725 204.042C480.247 203.743 480.835 203.594 481.489 203.594C482.599 203.594 483.416 203.963 483.939 204.7C484.461 205.428 484.629 206.427 484.443 207.696H479.319C479.421 209.255 480.28 210.034 481.895 210.034C482.781 210.034 483.598 209.782 484.345 209.278V210.384C484.009 210.617 483.617 210.804 483.169 210.944C482.721 211.075 482.259 211.14 481.783 211.14ZM481.461 204.686C480.929 204.686 480.471 204.849 480.089 205.176C479.706 205.503 479.463 205.997 479.361 206.66H483.267C483.295 206.035 483.15 205.549 482.833 205.204C482.515 204.859 482.058 204.686 481.461 204.686ZM489.123 211.14C487.993 211.14 487.102 210.809 486.449 210.146C485.795 209.474 485.469 208.545 485.469 207.36C485.469 206.175 485.8 205.251 486.463 204.588C487.125 203.925 488.031 203.594 489.179 203.594C489.617 203.594 490.028 203.645 490.411 203.748C490.793 203.841 491.101 203.981 491.335 204.168V205.274C490.7 204.882 489.986 204.686 489.193 204.686C488.353 204.686 487.732 204.91 487.331 205.358C486.929 205.797 486.729 206.464 486.729 207.36C486.729 208.256 486.92 208.928 487.303 209.376C487.695 209.815 488.301 210.034 489.123 210.034C489.916 210.034 490.653 209.843 491.335 209.46V210.566C490.728 210.949 489.991 211.14 489.123 211.14ZM497.498 209.698C497.302 210.099 496.999 210.44 496.588 210.72C496.187 211 495.659 211.14 495.006 211.14C494.334 211.14 493.788 210.949 493.368 210.566C492.957 210.183 492.752 209.6 492.752 208.816V203.734H493.998V208.816C493.998 209.292 494.129 209.614 494.39 209.782C494.651 209.95 494.973 210.034 495.356 210.034C495.897 210.034 496.331 209.913 496.658 209.67C496.985 209.427 497.265 209.096 497.498 208.676V203.734H498.73V211H497.638L497.526 209.698H497.498ZM504.35 204.966C503.771 205.013 503.277 205.157 502.866 205.4C502.465 205.643 502.171 205.969 501.984 206.38V211H500.752V203.734H501.83L501.956 205.316H501.984C502.217 204.831 502.535 204.439 502.936 204.14C503.347 203.841 503.818 203.659 504.35 203.594V204.966ZM506.482 202.67C506.23 202.67 506.029 202.595 505.88 202.446C505.73 202.287 505.656 202.096 505.656 201.872C505.656 201.648 505.73 201.457 505.88 201.298C506.029 201.139 506.23 201.06 506.482 201.06C506.724 201.06 506.916 201.139 507.056 201.298C507.196 201.457 507.266 201.648 507.266 201.872C507.266 202.096 507.196 202.287 507.056 202.446C506.916 202.595 506.724 202.67 506.482 202.67ZM505.852 203.734H507.084V211H505.852V203.734ZM508.504 204.784V203.734H509.372V202.208H510.604V203.734H512.718V204.784H510.604V209.152C510.604 209.46 510.683 209.684 510.842 209.824C511.001 209.964 511.271 210.034 511.654 210.034C512.018 210.034 512.349 209.931 512.648 209.726V210.846C512.499 210.939 512.303 211.009 512.06 211.056C511.817 211.112 511.575 211.14 511.332 211.14C510.865 211.14 510.487 211.051 510.198 210.874C509.909 210.697 509.699 210.468 509.568 210.188C509.437 209.908 509.372 209.614 509.372 209.306V204.784H508.504ZM514.986 213.618C514.603 213.618 514.286 213.567 514.034 213.464V212.274C514.22 212.433 514.524 212.512 514.944 212.512C515.27 212.512 515.546 212.433 515.77 212.274C516.003 212.125 516.227 211.863 516.442 211.49L513.488 203.734H514.846L517.156 209.866L519.452 203.734H520.642L517.926 210.916C517.552 211.877 517.137 212.568 516.68 212.988C516.222 213.408 515.658 213.618 514.986 213.618Z" fill="black"/>
<rect x="479" y="61" width="32" height="32" rx="16" fill="#5282FF"/>
<path fill-rule="evenodd" clip-rule="evenodd" d="M502.246 84.9985V81.0544L500.878 82.1452L498.222 78.7548C498.591 78.2565 498.809 77.64 498.809 76.9726C498.809 76.8455 498.801 76.7202 498.786 76.5972L500.381 75.9782L501.013 77.6231L502.999 74.2297L499.252 73.0368L499.88 74.6713L498.291 75.2875C497.751 74.494 496.841 73.9728 495.809 73.9728C495.767 73.9728 495.726 73.9737 495.685 73.9753L494.937 71.7075L496.62 71.1606L493.335 68.9995L491.948 72.6786L493.605 72.1401L494.337 74.3581C493.627 74.7589 493.096 75.4409 492.896 76.253L492.896 76.2518L490.871 76.2515C490.587 75.4932 489.856 74.9534 488.998 74.9534C487.895 74.9534 487 75.8481 487 76.9517C487 78.0553 487.895 78.95 488.998 78.95C489.856 78.95 490.587 78.4099 490.871 77.6514L492.886 77.6518C493.04 78.3179 493.416 78.8986 493.932 79.3128L493.931 79.3121L493.029 81.0799L491.473 80.2847L492.263 84.1366L495.848 82.5208L494.275 81.7171L495.198 79.9101L495.196 79.9099C495.394 79.9509 495.599 79.9724 495.809 79.9724C496.291 79.9724 496.747 79.8587 497.15 79.6566L499.784 83.0182L498.405 84.1179L502.246 84.9985ZM495.809 75.3727C496.693 75.3727 497.409 76.089 497.409 76.9726C497.409 77.8562 496.693 78.5725 495.809 78.5725C494.925 78.5725 494.209 77.8562 494.209 76.9726C494.209 76.089 494.925 75.3727 495.809 75.3727Z" fill="white"/>
<path d="M511 160C511 151.163 503.837 144 495 144C486.163 144 479 151.163 479 160C479 168.837 486.163 176 495 176C503.837 176 511 168.837 511 160Z" fill="#5282FF"/>
<path fill-rule="evenodd" clip-rule="evenodd" d="M487.978 155.297L493.388 152.404C493.883 152.139 494.437 152 495 152C495.563 152 496.117 152.139 496.612 152.404L502.023 155.297C502.624 155.619 503 156.245 503 156.925V158.112C503 162.041 500.996 165.702 497.68 167.83L496.578 168.538C496.107 168.839 495.56 169 495 169C494.44 169 493.893 168.839 493.422 168.538L492.32 167.83C489.004 165.702 487 162.041 487 158.112V156.925C487 156.245 487.376 155.619 487.978 155.297ZM490.498 160.766H492.343C492.387 161.9 492.569 162.951 492.863 163.781C492.929 163.968 493.004 164.153 493.09 164.331C491.694 163.684 490.684 162.35 490.498 160.766ZM496.589 160.766H493.411C493.504 163.009 494.18 164.75 495 164.75C495.82 164.75 496.496 163.009 496.589 160.766ZM493.411 159.703H496.589C496.496 157.46 495.82 155.719 495 155.719C494.18 155.719 493.504 157.46 493.411 159.703ZM497.137 163.781C497.431 162.951 497.613 161.9 497.657 160.766H499.502C499.316 162.35 498.306 163.684 496.91 164.331C496.996 164.153 497.071 163.968 497.137 163.781ZM499.533 160.234V160.252V160.217V160.234ZM497.657 159.703H499.502C499.316 158.119 498.306 156.785 496.91 156.138C496.996 156.316 497.071 156.5 497.137 156.688C497.431 157.517 497.613 158.569 497.657 159.703ZM490.498 159.703H492.343C492.387 158.569 492.569 157.517 492.863 156.688C492.929 156.5 493.004 156.316 493.09 156.138C491.694 156.785 490.684 158.119 490.498 159.703Z" fill="white"/>
</svg>
