<svg xmlns="http://www.w3.org/2000/svg" width="800" height="280" fill="none" viewBox="0 0 800 280">
    <rect width="61" height="60" x="537" y="140" fill="#fff" rx="5"/>
    <path fill="#fff" fill-rule="evenodd" stroke="#5282FF" stroke-linecap="round" stroke-linejoin="round" stroke-width="2" d="M191 144c0 14.359 11.641 26 26 26h72c12.15 0 22-9.85 22-22 0-11.476-8.787-20.9-20-21.91V126c0-19.882-16.118-36-36-36-17.188 0-31.563 12.045-35.143 28.155A26.418 26.418 0 0 0 217 118c-14.359 0-26 11.641-26 26Z" clip-rule="evenodd"/>
    <path fill="#000" d="M227.232 133.962h1.316V144h-1.316v-10.038Zm6.926 3.724c-.56 0-1.017.131-1.372.392a2.874 2.874 0 0 0-.84.98V144h-1.232v-7.266h1.162l.042 1.302h.028a2.48 2.48 0 0 1 .924-1.022c.42-.28.952-.42 1.596-.42.719 0 1.288.191 1.708.574.429.383.644.961.644 1.736V144h-1.232v-4.97c0-.495-.131-.84-.392-1.036-.252-.205-.597-.308-1.036-.308Zm4.021.098v-1.05h.868v-1.526h1.232v1.526h2.114v1.05h-2.114v4.368c0 .308.079.532.238.672.158.14.429.21.812.21.364 0 .695-.103.994-.308v1.12c-.15.093-.346.163-.588.21a3.235 3.235 0 0 1-.728.084c-.467 0-.845-.089-1.134-.266-.29-.177-.5-.406-.63-.686a2.057 2.057 0 0 1-.196-.882v-4.522h-.868Zm8.798 6.356c-1.213 0-2.142-.331-2.786-.994-.635-.672-.952-1.601-.952-2.786 0-.793.149-1.47.448-2.03.299-.56.709-.989 1.232-1.288a3.49 3.49 0 0 1 1.764-.448c1.111 0 1.927.369 2.45 1.106.523.728.691 1.727.504 2.996h-5.124c.103 1.559.961 2.338 2.576 2.338.887 0 1.703-.252 2.45-.756v1.106a4.3 4.3 0 0 1-1.176.56c-.448.131-.91.196-1.386.196Zm-.322-6.454c-.532 0-.989.163-1.372.49-.383.327-.625.821-.728 1.484h3.906c.028-.625-.117-1.111-.434-1.456s-.775-.518-1.372-.518Zm8.124.28c-.579.047-1.073.191-1.484.434a2.185 2.185 0 0 0-.882.98V144h-1.232v-7.266h1.078l.126 1.582h.028c.233-.485.551-.877.952-1.176a2.973 2.973 0 0 1 1.414-.546v1.372Zm4.945-.28c-.56 0-1.017.131-1.372.392a2.874 2.874 0 0 0-.84.98V144h-1.232v-7.266h1.162l.042 1.302h.028a2.48 2.48 0 0 1 .924-1.022c.42-.28.952-.42 1.596-.42.719 0 1.288.191 1.708.574.43.383.644.961.644 1.736V144h-1.232v-4.97c0-.495-.13-.84-.392-1.036-.252-.205-.597-.308-1.036-.308Zm7.829 6.454c-1.213 0-2.142-.331-2.786-.994-.634-.672-.952-1.601-.952-2.786 0-.793.15-1.47.448-2.03.299-.56.71-.989 1.232-1.288a3.49 3.49 0 0 1 1.764-.448c1.111 0 1.928.369 2.45 1.106.523.728.691 1.727.504 2.996h-5.124c.103 1.559.962 2.338 2.576 2.338.887 0 1.704-.252 2.45-.756v1.106a4.3 4.3 0 0 1-1.176.56c-.448.131-.91.196-1.386.196Zm-.322-6.454c-.532 0-.989.163-1.372.49-.382.327-.625.821-.728 1.484h3.906c.028-.625-.116-1.111-.434-1.456-.317-.345-.774-.518-1.372-.518Zm3.938.098v-1.05h.868v-1.526h1.232v1.526h2.114v1.05h-2.114v4.368c0 .308.079.532.238.672.159.14.429.21.812.21.364 0 .695-.103.994-.308v1.12a1.735 1.735 0 0 1-.588.21 3.228 3.228 0 0 1-.728.084c-.467 0-.845-.089-1.134-.266a1.588 1.588 0 0 1-.63-.686 2.057 2.057 0 0 1-.196-.882v-4.522h-.868Z"/>
    <rect width="140" height="110" x="3" y="85" fill="#fff" rx="10"/>
    <rect width="140" height="110" x="3" y="85" stroke="#5282FF" stroke-width="2" rx="10"/>
    <path fill="#000" d="M33.57 101.962h3.374c.672 0 1.298.079 1.877.238.578.159 1.082.42 1.512.784.429.355.765.831 1.008 1.428.242.597.364 1.339.364 2.226 0 1.176-.215 2.165-.645 2.968-.42.793-.998 1.391-1.736 1.792-.737.401-1.581.602-2.533.602h-3.22v-10.038Zm3.22 8.848c.691 0 1.298-.14 1.82-.42.523-.289.93-.733 1.218-1.33.3-.607.448-1.381.448-2.324 0-.943-.144-1.671-.434-2.184-.289-.513-.685-.873-1.19-1.078-.494-.205-1.063-.308-1.708-.308h-2.058v7.644h1.904Zm6.665-8.848h3.374a7.06 7.06 0 0 1 1.876.238c.579.159 1.083.42 1.512.784.43.355.766.831 1.008 1.428.243.597.364 1.339.364 2.226 0 1.176-.214 2.165-.644 2.968-.42.793-.998 1.391-1.736 1.792-.737.401-1.582.602-2.534.602h-3.22v-10.038Zm3.22 8.848c.691 0 1.298-.14 1.82-.42.523-.289.929-.733 1.218-1.33.299-.607.448-1.381.448-2.324 0-.943-.144-1.671-.434-2.184-.289-.513-.686-.873-1.19-1.078-.494-.205-1.064-.308-1.708-.308h-2.058v7.644h1.904Zm9.547 1.33c-.662 0-1.26-.145-1.792-.434a3.25 3.25 0 0 1-1.246-1.288c-.308-.569-.462-1.255-.462-2.058 0-.803.154-1.484.462-2.044a3.15 3.15 0 0 1 1.246-1.274 3.594 3.594 0 0 1 1.792-.448c.672 0 1.274.149 1.806.448.532.289.952.714 1.26 1.274.308.56.462 1.241.462 2.044 0 .803-.154 1.489-.462 2.058-.308.56-.728.989-1.26 1.288-.532.289-1.134.434-1.806.434Zm0-1.106c.654 0 1.195-.215 1.624-.644.43-.439.644-1.115.644-2.03 0-.915-.214-1.587-.644-2.016-.429-.439-.97-.658-1.624-.658-.644 0-1.18.219-1.61.658-.42.429-.63 1.101-.63 2.016s.21 1.591.63 2.03c.43.429.966.644 1.61.644Zm7.998 1.106a7.02 7.02 0 0 1-1.974-.266c-.597-.187-1.055-.429-1.372-.728v-1.26c.233.205.532.387.896.546.373.159.775.285 1.204.378.43.093.845.14 1.246.14.756 0 1.34-.145 1.75-.434.42-.289.63-.7.63-1.232 0-.317-.065-.574-.196-.77-.121-.205-.355-.383-.7-.532-.336-.149-.826-.303-1.47-.462-.84-.215-1.498-.453-1.974-.714-.476-.261-.812-.569-1.008-.924-.196-.364-.294-.793-.294-1.288 0-.896.318-1.577.952-2.044.635-.476 1.55-.714 2.744-.714.523 0 1.004.051 1.442.154.439.103.873.261 1.302.476v1.26c-.7-.467-1.614-.7-2.744-.7-1.596 0-2.394.504-2.394 1.512 0 .439.163.784.49 1.036.336.252.929.476 1.778.672.877.196 1.563.425 2.058.686.495.261.845.579 1.05.952.215.364.322.812.322 1.344 0 .905-.331 1.619-.994 2.142-.662.513-1.577.77-2.744.77Zm16.466-.014c-.392 0-.765-.089-1.12-.266a5.778 5.778 0 0 1-1.078-.714 5.276 5.276 0 0 1-1.386.728 5.48 5.48 0 0 1-1.764.266c-.784 0-1.437-.126-1.96-.378-.523-.252-.915-.593-1.176-1.022a2.745 2.745 0 0 1-.392-1.456c0-.691.182-1.241.546-1.652a3.908 3.908 0 0 1 1.372-.98c-.7-.775-1.05-1.559-1.05-2.352a2.351 2.351 0 0 1 1.26-2.128c.42-.224.929-.336 1.526-.336.607 0 1.12.112 1.54.336.42.215.737.509.952.882.224.364.336.775.336 1.232 0 .523-.117.952-.35 1.288a2.917 2.917 0 0 1-.91.84 9.744 9.744 0 0 1-1.176.574l1.792 1.708c.159.149.313.299.462.448.15.14.294.28.434.42.299-.373.537-.775.714-1.204a5.42 5.42 0 0 0 .378-1.288l1.106.308a7.682 7.682 0 0 1-.49 1.512 5.992 5.992 0 0 1-.896 1.442c.243.205.49.373.742.504.252.121.523.182.812.182.233 0 .434-.023.602-.07l.252-.07v1.036c-.364.14-.723.21-1.078.21Zm-6.734-7.826c0 .373.112.719.336 1.036.224.308.48.602.77.882.57-.233 1.04-.495 1.414-.784a1.37 1.37 0 0 0 .574-1.148c0-.42-.14-.747-.42-.98-.28-.243-.663-.364-1.148-.364-.485 0-.863.126-1.134.378-.261.243-.392.569-.392.98Zm-.896 4.942c0 .541.196.975.588 1.302.401.327.985.49 1.75.49.448 0 .859-.056 1.232-.168.373-.121.71-.28 1.008-.476l-.56-.532a35.574 35.574 0 0 0-.602-.56l-1.974-1.89c-.439.187-.789.425-1.05.714s-.392.663-.392 1.12ZM89.264 112h-1.946l-2.212-10.038h1.372l1.904 8.904 2.576-8.904h1.204l2.52 8.736 1.89-8.736h1.274L95.634 112h-1.932l-2.212-7.756L89.264 112Zm12.751.14c-1.213 0-2.142-.331-2.786-.994-.635-.672-.952-1.601-.952-2.786 0-.793.15-1.47.448-2.03.299-.56.71-.989 1.232-1.288a3.49 3.49 0 0 1 1.764-.448c1.111 0 1.927.369 2.45 1.106.523.728.691 1.727.504 2.996h-5.124c.103 1.559.961 2.338 2.576 2.338.887 0 1.703-.252 2.45-.756v1.106a4.3 4.3 0 0 1-1.176.56c-.448.131-.91.196-1.386.196Zm-.322-6.454c-.532 0-.989.163-1.372.49-.383.327-.625.821-.728 1.484h3.906c.028-.625-.117-1.111-.434-1.456s-.775-.518-1.372-.518Zm4.526-3.724h1.232l-.028 4.186c.243-.467.569-.84.98-1.12.411-.289.919-.434 1.526-.434.569 0 1.092.14 1.568.42.485.271.877.686 1.176 1.246.299.551.448 1.251.448 2.1 0 .849-.154 1.554-.462 2.114-.299.56-.695.98-1.19 1.26a3.216 3.216 0 0 1-1.596.406c-.56 0-1.05-.135-1.47-.406a2.893 2.893 0 0 1-.98-1.106l-.042 1.372h-1.162v-10.038Zm5.628 6.398c0-.877-.201-1.54-.602-1.988-.401-.457-.919-.686-1.554-.686s-1.171.224-1.61.672c-.429.439-.644 1.106-.644 2.002 0 .905.215 1.577.644 2.016.439.439.975.658 1.61.658.635 0 1.153-.224 1.554-.672.401-.448.602-1.115.602-2.002Zm-58.186 14.326c-.775 0-1.56.238-2.352.714v-1.106a4.416 4.416 0 0 1 1.19-.504 4.82 4.82 0 0 1 1.33-.196c.914 0 1.61.191 2.085.574.477.383.715.966.715 1.75v3.906c0 .159.004.364.014.616.018.243.037.429.056.56h-1.12a6.439 6.439 0 0 1-.084-.546 8.366 8.366 0 0 1-.028-.63l-.014-.21a3.93 3.93 0 0 1-.463.7 2.348 2.348 0 0 1-.784.588c-.317.159-.714.238-1.19.238-.653 0-1.18-.187-1.581-.56-.402-.373-.602-.901-.602-1.582 0-.793.28-1.377.84-1.75.56-.373 1.348-.56 2.365-.56h1.359v-.602c0-.504-.131-.863-.392-1.078-.262-.215-.71-.322-1.345-.322Zm1.736 3.514v-.532h-1.233c-.737 0-1.273.107-1.61.322-.326.215-.49.527-.49.938 0 .327.099.593.294.798.206.205.514.308.925.308.382 0 .709-.075.98-.224.27-.159.49-.345.657-.56.169-.224.29-.434.364-.63.075-.196.113-.336.113-.42Zm2.58-3.416v-1.05h.869v-1.526h1.232v1.526h2.114v1.05h-2.114v4.368c0 .308.079.532.238.672.158.14.429.21.812.21.364 0 .695-.103.994-.308v1.12a1.74 1.74 0 0 1-.588.21 3.228 3.228 0 0 1-.728.084c-.467 0-.845-.089-1.134-.266-.29-.177-.5-.406-.63-.686a2.062 2.062 0 0 1-.196-.882v-4.522h-.868Zm5.196 0v-1.05h.868v-1.526h1.232v1.526h2.114v1.05h-2.114v4.368c0 .308.08.532.238.672.159.14.43.21.812.21.364 0 .695-.103.994-.308v1.12a1.74 1.74 0 0 1-.588.21 3.228 3.228 0 0 1-.728.084c-.467 0-.845-.089-1.134-.266-.29-.177-.5-.406-.63-.686a2.062 2.062 0 0 1-.196-.882v-4.522h-.868Zm8.247-.098c-.774 0-1.558.238-2.352.714v-1.106a4.417 4.417 0 0 1 1.19-.504 4.82 4.82 0 0 1 1.33-.196c.915 0 1.61.191 2.086.574.476.383.714.966.714 1.75v3.906c0 .159.005.364.014.616.019.243.038.429.056.56h-1.12a6.439 6.439 0 0 1-.084-.546 8.42 8.42 0 0 1-.028-.63l-.014-.21a3.93 3.93 0 0 1-.462.7 2.347 2.347 0 0 1-.784.588c-.317.159-.714.238-1.19.238-.653 0-1.18-.187-1.582-.56-.401-.373-.602-.901-.602-1.582 0-.793.28-1.377.84-1.75.56-.373 1.349-.56 2.366-.56h1.358v-.602c0-.504-.13-.863-.392-1.078-.261-.215-.71-.322-1.344-.322Zm1.736 3.514v-.532h-1.232c-.737 0-1.274.107-1.61.322-.326.215-.49.527-.49.938 0 .327.098.593.294.798.206.205.514.308.924.308.383 0 .71-.075.98-.224.27-.159.49-.345.658-.56.168-.224.29-.434.364-.63.075-.196.112-.336.112-.42Zm6.305 2.94c-1.129 0-2.02-.331-2.674-.994-.653-.672-.98-1.601-.98-2.786s.332-2.109.994-2.772c.663-.663 1.568-.994 2.716-.994.439 0 .85.051 1.232.154.383.093.691.233.924.42v1.106c-.634-.392-1.348-.588-2.142-.588-.84 0-1.46.224-1.862.672-.401.439-.602 1.106-.602 2.002 0 .896.192 1.568.574 2.016.392.439.999.658 1.82.658a4.44 4.44 0 0 0 2.212-.574v1.106c-.606.383-1.344.574-2.212.574Zm9.65-.14h-1.498l-2.562-3.094h-.644V129h-1.232v-10.038h1.232v5.894h.7l2.548-3.122h1.4l-2.982 3.584L89.111 129Zm3.265.14a5.17 5.17 0 0 1-1.526-.224c-.476-.159-.863-.369-1.162-.63v-1.106c.29.28.677.504 1.162.672.495.168.999.252 1.512.252 1.139 0 1.708-.369 1.708-1.106 0-.215-.051-.387-.154-.518-.093-.14-.27-.257-.532-.35-.261-.103-.64-.201-1.134-.294-.943-.187-1.6-.439-1.974-.756-.373-.327-.56-.789-.56-1.386 0-.663.257-1.176.77-1.54.513-.373 1.223-.56 2.128-.56.43 0 .85.047 1.26.14.42.084.76.201 1.022.35v1.106c-.541-.373-1.288-.56-2.24-.56-.588 0-1.022.084-1.302.252-.27.168-.406.429-.406.784 0 .187.042.341.126.462.084.121.252.229.504.322s.63.191 1.134.294c.644.131 1.153.289 1.526.476.383.177.653.406.812.686.168.28.252.635.252 1.064 0 .681-.257 1.213-.77 1.596s-1.232.574-2.156.574Z"/>
    <rect width="32" height="32" x="20" y="145" fill="#FF5958" rx="16"/>
    <path fill="#fff" d="M42 154v9.236c0 1.508-.845 2.806-2.077 3.487L36 169l-3.923-2.276c-1.232-.682-2.077-1.98-2.077-3.488V154h12Z"/>
    <path stroke="#FF5958" d="m43 154.5-15 15"/>
    <rect width="32" height="32" x="94" y="145" fill="#FF5958" rx="16"/>
    <path fill="#fff" d="M116 154v9.236c0 1.508-.845 2.806-2.077 3.487L110 169l-3.923-2.276c-1.232-.682-2.077-1.98-2.077-3.488V154h12Z"/>
    <path stroke="#FF5958" d="m117 154.5-15 15"/>
    <rect width="32" height="32" x="57" y="145" fill="#FF5958" rx="16"/>
    <path fill="#fff" d="M79 154v9.236c0 1.508-.845 2.806-2.077 3.487L73 169l-3.923-2.276c-1.232-.682-2.077-1.98-2.077-3.488V154h12Z"/>
    <path stroke="#FF5958" d="m80 154.5-15 15"/>
    <path fill="#4E496B" d="m186 140-10-5.774v11.548L186 140Zm-38 1h29v-2h-29v2Zm206-1-10-5.774v11.548L354 140Zm-38 1h29v-2h-29v2Zm206-1-10-5.774v11.548L522 140Zm-38 1h29v-2h-29v2Zm168-1-10-5.774v11.548L652 140Zm-38 1h29v-2h-29v2Z"/>
    <path fill="#000" d="M545.237 143.962h1.316V154h-1.316v-10.038Zm6.926 3.724c-.56 0-1.017.131-1.372.392a2.874 2.874 0 0 0-.84.98V154h-1.232v-7.266h1.162l.042 1.302h.028a2.48 2.48 0 0 1 .924-1.022c.42-.28.952-.42 1.596-.42.719 0 1.288.191 1.708.574.429.383.644.961.644 1.736V154h-1.232v-4.97c0-.495-.131-.84-.392-1.036-.252-.205-.597-.308-1.036-.308Zm4.021.098v-1.05h.868v-1.526h1.232v1.526h2.114v1.05h-2.114v4.368c0 .308.079.532.238.672.158.14.429.21.812.21.364 0 .695-.103.994-.308v1.12c-.15.093-.346.163-.588.21a3.235 3.235 0 0 1-.728.084c-.467 0-.845-.089-1.134-.266-.29-.177-.5-.406-.63-.686a2.057 2.057 0 0 1-.196-.882v-4.522h-.868Zm8.798 6.356c-1.213 0-2.142-.331-2.786-.994-.635-.672-.952-1.601-.952-2.786 0-.793.149-1.47.448-2.03.299-.56.709-.989 1.232-1.288a3.49 3.49 0 0 1 1.764-.448c1.111 0 1.927.369 2.45 1.106.523.728.691 1.727.504 2.996h-5.124c.103 1.559.961 2.338 2.576 2.338.887 0 1.703-.252 2.45-.756v1.106a4.3 4.3 0 0 1-1.176.56c-.448.131-.91.196-1.386.196Zm-.322-6.454c-.532 0-.989.163-1.372.49-.383.327-.625.821-.728 1.484h3.906c.028-.625-.117-1.111-.434-1.456s-.775-.518-1.372-.518Zm8.124.28c-.579.047-1.074.191-1.484.434a2.174 2.174 0 0 0-.882.98V154h-1.232v-7.266h1.078l.126 1.582h.028c.233-.485.55-.877.952-1.176.41-.299.882-.481 1.414-.546v1.372Zm4.945-.28c-.56 0-1.017.131-1.372.392a2.874 2.874 0 0 0-.84.98V154h-1.232v-7.266h1.162l.042 1.302h.028a2.48 2.48 0 0 1 .924-1.022c.42-.28.952-.42 1.596-.42.719 0 1.288.191 1.708.574.43.383.644.961.644 1.736V154h-1.232v-4.97c0-.495-.13-.84-.392-1.036-.252-.205-.597-.308-1.036-.308Zm7.073 0c-.775 0-1.559.238-2.352.714v-1.106a4.412 4.412 0 0 1 1.19-.504 4.82 4.82 0 0 1 1.33-.196c.915 0 1.61.191 2.086.574.476.383.714.966.714 1.75v3.906c0 .159.005.364.014.616.019.243.037.429.056.56h-1.12a6.439 6.439 0 0 1-.084-.546 8.21 8.21 0 0 1-.028-.63l-.014-.21a3.93 3.93 0 0 1-.462.7 2.344 2.344 0 0 1-.784.588c-.317.159-.714.238-1.19.238-.653 0-1.181-.187-1.582-.56-.401-.373-.602-.901-.602-1.582 0-.793.28-1.377.84-1.75.56-.373 1.349-.56 2.366-.56h1.358v-.602c0-.504-.131-.863-.392-1.078-.261-.215-.709-.322-1.344-.322Zm1.736 3.514v-.532h-1.232c-.737 0-1.274.107-1.61.322-.327.215-.49.527-.49.938 0 .327.098.593.294.798.205.205.513.308.924.308.383 0 .709-.075.98-.224.271-.159.49-.345.658-.56.168-.224.289-.434.364-.63.075-.196.112-.336.112-.42Zm3.169-7.238h1.232V154h-1.232v-10.038Zm-47.437 14h1.778l5.04 8.428v-8.428h1.26V168h-1.792l-5.04-8.414V168h-1.246v-10.038Zm13.47 10.178c-1.214 0-2.142-.331-2.786-.994-.635-.672-.952-1.601-.952-2.786 0-.793.149-1.47.448-2.03a3.15 3.15 0 0 1 1.232-1.288 3.485 3.485 0 0 1 1.764-.448c1.11 0 1.927.369 2.45 1.106.522.728.69 1.727.504 2.996h-5.124c.102 1.559.961 2.338 2.576 2.338.886 0 1.703-.252 2.45-.756v1.106a4.3 4.3 0 0 1-1.176.56c-.448.131-.91.196-1.386.196Zm-.322-6.454c-.532 0-.99.163-1.372.49-.383.327-.626.821-.728 1.484h3.906c.028-.625-.117-1.111-.434-1.456-.318-.345-.775-.518-1.372-.518Zm3.938.098v-1.05h.868v-1.526h1.232v1.526h2.114v1.05h-2.114v4.368c0 .308.079.532.238.672.158.14.429.21.812.21.364 0 .695-.103.994-.308v1.12c-.15.093-.346.163-.588.21a3.235 3.235 0 0 1-.728.084c-.467 0-.845-.089-1.134-.266-.29-.177-.5-.406-.63-.686a2.057 2.057 0 0 1-.196-.882v-4.522h-.868Zm15.345-1.05L573.049 168h-1.89l-1.54-5.614-1.582 5.614h-1.834l-1.652-7.266h1.302l1.386 6.342 1.764-6.342h1.386l1.722 6.272 1.372-6.272h1.218Zm4.275 7.406c-.662 0-1.26-.145-1.792-.434a3.255 3.255 0 0 1-1.246-1.288c-.308-.569-.462-1.255-.462-2.058 0-.803.154-1.484.462-2.044.308-.56.724-.985 1.246-1.274a3.595 3.595 0 0 1 1.792-.448c.672 0 1.274.149 1.806.448.532.289.952.714 1.26 1.274.308.56.462 1.241.462 2.044 0 .803-.154 1.489-.462 2.058-.308.56-.728.989-1.26 1.288-.532.289-1.134.434-1.806.434Zm0-1.106c.654 0 1.195-.215 1.624-.644.43-.439.644-1.115.644-2.03 0-.915-.214-1.587-.644-2.016-.429-.439-.97-.658-1.624-.658-.644 0-1.18.219-1.61.658-.42.429-.63 1.101-.63 2.016s.21 1.591.63 2.03c.43.429.966.644 1.61.644Zm8.628-5.068c-.579.047-1.073.191-1.484.434a2.185 2.185 0 0 0-.882.98V168h-1.232v-7.266h1.078l.126 1.582h.028c.233-.485.551-.877.952-1.176a2.973 2.973 0 0 1 1.414-.546v1.372Zm7.301 6.034h-1.498l-2.562-3.094h-.644V168h-1.232v-10.038h1.232v5.894h.7l2.548-3.122h1.4l-2.982 3.584 3.038 3.682Zm-41.417 3.962h1.316v8.848h4.886V182h-6.202v-10.038Zm10.552 10.178c-.663 0-1.26-.145-1.792-.434a3.248 3.248 0 0 1-1.246-1.288c-.308-.569-.462-1.255-.462-2.058 0-.803.154-1.484.462-2.044.308-.56.723-.985 1.246-1.274a3.592 3.592 0 0 1 1.792-.448c.672 0 1.274.149 1.806.448.532.289.952.714 1.26 1.274.308.56.462 1.241.462 2.044 0 .803-.154 1.489-.462 2.058-.308.56-.728.989-1.26 1.288-.532.289-1.134.434-1.806.434Zm0-1.106c.653 0 1.194-.215 1.624-.644.429-.439.644-1.115.644-2.03 0-.915-.215-1.587-.644-2.016-.43-.439-.971-.658-1.624-.658-.644 0-1.181.219-1.61.658-.42.429-.63 1.101-.63 2.016s.21 1.591.63 2.03c.429.429.966.644 1.61.644Zm7.357-5.348c-.775 0-1.559.238-2.352.714v-1.106a4.412 4.412 0 0 1 1.19-.504c.457-.131.9-.196 1.33-.196.914 0 1.61.191 2.086.574.476.383.714.966.714 1.75v3.906c0 .159.004.364.014.616.018.243.037.429.056.56h-1.12a6.439 6.439 0 0 1-.084-.546 8.21 8.21 0 0 1-.028-.63l-.014-.21a3.93 3.93 0 0 1-.462.7 2.354 2.354 0 0 1-.784.588c-.318.159-.714.238-1.19.238-.654 0-1.181-.187-1.582-.56-.402-.373-.602-.901-.602-1.582 0-.793.28-1.377.84-1.75.56-.373 1.348-.56 2.366-.56h1.358v-.602c0-.504-.131-.863-.392-1.078-.262-.215-.71-.322-1.344-.322Zm1.736 3.514v-.532h-1.232c-.738 0-1.274.107-1.61.322-.327.215-.49.527-.49.938 0 .327.098.593.294.798.205.205.513.308.924.308.382 0 .709-.075.98-.224.27-.159.49-.345.658-.56.168-.224.289-.434.364-.63.074-.196.112-.336.112-.42Zm2.651-.84c0-.849.149-1.549.448-2.1.299-.56.695-.975 1.19-1.246.504-.28 1.05-.42 1.638-.42.551 0 1.027.117 1.428.35.401.224.723.546.966.966v-3.948h1.232V182h-1.078l-.098-1.428a2.865 2.865 0 0 1-.952 1.148c-.401.28-.905.42-1.512.42-.579 0-1.12-.135-1.624-.406-.495-.28-.891-.7-1.19-1.26-.299-.56-.448-1.265-.448-2.114Zm5.684 0c0-.905-.215-1.577-.644-2.016-.429-.439-.961-.658-1.596-.658-.635 0-1.157.229-1.568.686-.411.448-.616 1.111-.616 1.988 0 .887.205 1.554.616 2.002.411.448.933.672 1.568.672s1.167-.219 1.596-.658c.429-.439.644-1.111.644-2.016Zm-39.472 7.602h3.402c1.102 0 1.937.187 2.506.56.579.373.868 1.003.868 1.89 0 .719-.182 1.265-.546 1.638-.364.364-.849.611-1.456.742.775.093 1.363.322 1.764.686.402.355.602.896.602 1.624 0 .691-.163 1.251-.49 1.68-.326.429-.774.742-1.344.938-.569.187-1.213.28-1.932.28h-3.374v-10.038Zm3.304 4.284c.635 0 1.148-.14 1.54-.42.402-.289.602-.737.602-1.344 0-.513-.177-.859-.532-1.036-.354-.187-.858-.28-1.512-.28h-2.086v3.08h1.988Zm.07 4.564c.71 0 1.284-.121 1.722-.364.439-.243.658-.681.658-1.316s-.205-1.073-.616-1.316c-.401-.252-1.04-.378-1.918-.378h-1.904v3.374h2.058Zm7.877-5.124c-.774 0-1.558.238-2.352.714v-1.106a4.425 4.425 0 0 1 1.19-.504 4.825 4.825 0 0 1 1.33-.196c.915 0 1.61.191 2.086.574.476.383.714.966.714 1.75v3.906c0 .159.005.364.014.616.019.243.038.429.056.56h-1.12a6.439 6.439 0 0 1-.084-.546 8.754 8.754 0 0 1-.028-.63l-.014-.21a3.93 3.93 0 0 1-.462.7 2.344 2.344 0 0 1-.784.588c-.317.159-.714.238-1.19.238-.653 0-1.18-.187-1.582-.56-.401-.373-.602-.901-.602-1.582 0-.793.28-1.377.84-1.75.56-.373 1.349-.56 2.366-.56h1.358v-.602c0-.504-.13-.863-.392-1.078-.261-.215-.709-.322-1.344-.322Zm1.736 3.514v-.532h-1.232c-.737 0-1.274.107-1.61.322-.326.215-.49.527-.49.938 0 .327.098.593.294.798.206.205.514.308.924.308.383 0 .71-.075.98-.224.271-.159.49-.345.658-.56.168-.224.29-.434.364-.63.075-.196.112-.336.112-.42Zm3.17-7.238h1.232V196h-1.232v-10.038Zm5.704 3.724c-.775 0-1.559.238-2.352.714v-1.106a4.412 4.412 0 0 1 1.19-.504c.457-.131.9-.196 1.33-.196.914 0 1.61.191 2.086.574.476.383.714.966.714 1.75v3.906c0 .159.004.364.014.616.018.243.037.429.056.56h-1.12a6.439 6.439 0 0 1-.084-.546 8.21 8.21 0 0 1-.028-.63l-.014-.21a3.93 3.93 0 0 1-.462.7 2.354 2.354 0 0 1-.784.588c-.318.159-.714.238-1.19.238-.654 0-1.181-.187-1.582-.56-.402-.373-.602-.901-.602-1.582 0-.793.28-1.377.84-1.75.56-.373 1.348-.56 2.366-.56h1.358v-.602c0-.504-.131-.863-.392-1.078-.262-.215-.71-.322-1.344-.322Zm1.736 3.514v-.532h-1.232c-.738 0-1.274.107-1.61.322-.327.215-.49.527-.49.938 0 .327.098.593.294.798.205.205.513.308.924.308.382 0 .709-.075.98-.224.27-.159.49-.345.658-.56.168-.224.289-.434.364-.63.074-.196.112-.336.112-.42Zm6.613-3.514c-.56 0-1.017.131-1.372.392a2.874 2.874 0 0 0-.84.98V196h-1.232v-7.266h1.162l.042 1.302h.028a2.48 2.48 0 0 1 .924-1.022c.42-.28.952-.42 1.596-.42.719 0 1.288.191 1.708.574.429.383.644.961.644 1.736V196h-1.232v-4.97c0-.495-.131-.84-.392-1.036-.252-.205-.597-.308-1.036-.308Zm7.745 6.454c-1.13 0-2.021-.331-2.674-.994-.654-.672-.98-1.601-.98-2.786s.331-2.109.994-2.772c.662-.663 1.568-.994 2.716-.994.438 0 .849.051 1.232.154.382.093.69.233.924.42v1.106a3.995 3.995 0 0 0-2.142-.588c-.84 0-1.461.224-1.862.672-.402.439-.602 1.106-.602 2.002 0 .896.191 1.568.574 2.016.392.439.998.658 1.82.658.793 0 1.53-.191 2.212-.574v1.106c-.607.383-1.344.574-2.212.574Zm6.933 0c-1.213 0-2.142-.331-2.786-.994-.634-.672-.952-1.601-.952-2.786 0-.793.15-1.47.448-2.03.299-.56.71-.989 1.232-1.288a3.49 3.49 0 0 1 1.764-.448c1.111 0 1.928.369 2.45 1.106.523.728.691 1.727.504 2.996h-5.124c.103 1.559.962 2.338 2.576 2.338.887 0 1.704-.252 2.45-.756v1.106a4.3 4.3 0 0 1-1.176.56c-.448.131-.91.196-1.386.196Zm-.322-6.454c-.532 0-.989.163-1.372.49-.382.327-.625.821-.728 1.484h3.906c.028-.625-.116-1.111-.434-1.456-.317-.345-.774-.518-1.372-.518Zm8.124.28c-.579.047-1.073.191-1.484.434a2.185 2.185 0 0 0-.882.98V196h-1.232v-7.266h1.078l.126 1.582h.028c.233-.485.551-.877.952-1.176a2.973 2.973 0 0 1 1.414-.546v1.372Z"/>
    <rect width="32" height="32" x="552" y="105" fill="#5282FF" rx="16"/>
    <path fill="#fff" d="M569 122h2.3c.4.6 1 1 1.7 1 1.1 0 2-.9 2-2s-.9-2-2-2c-.7 0-1.4.4-1.7 1H569v-4h2.3c.4.6 1 1 1.7 1 1.1 0 2-.9 2-2s-.9-2-2-2c-.7 0-1.4.4-1.7 1H569c-1.1 0-2 .9-2 2v4.3l-5-3.3v3h-3v2h3v3l5-3.3v4.3c0 1.1.9 2 2 2h2.3c.4.6 1 1 1.7 1 1.1 0 2-.9 2-2s-.9-2-2-2c-.7 0-1.4.4-1.7 1H569v-4Z"/>
    <rect width="120" height="200" x="359" y="40" fill="#fff" rx="10"/>
    <rect width="120" height="200" x="359" y="40" stroke="#5282FF" stroke-width="2" rx="10"/>
    <path fill="#000" d="M392.636 114h-1.4l-1.036-2.87h-4.438L384.74 114h-1.232l3.57-10.038h1.96L392.636 114Zm-6.44-4.06h3.584l-1.792-4.998-1.792 4.998Zm7.596-3.206h1.078l.126 1.414c.234-.467.556-.84.966-1.12.42-.289.934-.434 1.54-.434.57 0 1.092.14 1.568.42.486.271.878.686 1.176 1.246.299.551.448 1.251.448 2.1 0 .849-.154 1.554-.462 2.114-.298.56-.695.98-1.19 1.26a3.216 3.216 0 0 1-1.596.406c-.55 0-1.031-.131-1.442-.392a2.817 2.817 0 0 1-.98-1.078v3.808h-1.232v-9.744Zm5.628 3.626c0-.877-.2-1.54-.602-1.988-.401-.457-.919-.686-1.554-.686-.634 0-1.171.224-1.61.672-.429.439-.644 1.106-.644 2.002 0 .905.215 1.577.644 2.016a2.19 2.19 0 0 0 1.61.658c.635 0 1.153-.224 1.554-.672.402-.448.602-1.115.602-2.002Zm2.767-3.626h1.078l.126 1.414c.233-.467.555-.84.966-1.12.42-.289.933-.434 1.54-.434.569 0 1.092.14 1.568.42.485.271.877.686 1.176 1.246.298.551.448 1.251.448 2.1 0 .849-.154 1.554-.462 2.114-.299.56-.696.98-1.19 1.26a3.222 3.222 0 0 1-1.596.406c-.551 0-1.032-.131-1.442-.392a2.802 2.802 0 0 1-.98-1.078v3.808h-1.232v-9.744Zm5.628 3.626c0-.877-.201-1.54-.602-1.988-.402-.457-.92-.686-1.554-.686-.635 0-1.172.224-1.61.672-.43.439-.644 1.106-.644 2.002 0 .905.214 1.577.644 2.016.438.439.975.658 1.61.658.634 0 1.152-.224 1.554-.672.401-.448.602-1.115.602-2.002Zm2.766-6.398h1.232V114h-1.232v-10.038Zm3.87 1.708c-.252 0-.452-.075-.602-.224a.81.81 0 0 1-.224-.574.81.81 0 0 1 .224-.574c.15-.159.35-.238.602-.238.243 0 .434.079.574.238.14.159.21.35.21.574 0 .224-.07.415-.21.574-.14.149-.331.224-.574.224Zm-.63 1.064h1.232V114h-1.232v-7.266Zm6.377 7.406c-1.13 0-2.021-.331-2.674-.994-.654-.672-.98-1.601-.98-2.786s.331-2.109.994-2.772c.662-.663 1.568-.994 2.716-.994.438 0 .849.051 1.232.154.382.093.69.233.924.42v1.106a3.995 3.995 0 0 0-2.142-.588c-.84 0-1.461.224-1.862.672-.402.439-.602 1.106-.602 2.002 0 .896.191 1.568.574 2.016.392.439.998.658 1.82.658.793 0 1.53-.191 2.212-.574v1.106c-.607.383-1.344.574-2.212.574Zm6.177-6.454c-.774 0-1.558.238-2.352.714v-1.106a4.425 4.425 0 0 1 1.19-.504 4.825 4.825 0 0 1 1.33-.196c.915 0 1.61.191 2.086.574.476.383.714.966.714 1.75v3.906c0 .159.005.364.014.616.019.243.038.429.056.56h-1.12a6.439 6.439 0 0 1-.084-.546 8.754 8.754 0 0 1-.028-.63l-.014-.21a3.93 3.93 0 0 1-.462.7 2.344 2.344 0 0 1-.784.588c-.317.159-.714.238-1.19.238-.653 0-1.18-.187-1.582-.56-.401-.373-.602-.901-.602-1.582 0-.793.28-1.377.84-1.75.56-.373 1.349-.56 2.366-.56h1.358v-.602c0-.504-.13-.863-.392-1.078-.261-.215-.709-.322-1.344-.322Zm1.736 3.514v-.532h-1.232c-.737 0-1.274.107-1.61.322-.326.215-.49.527-.49.938 0 .327.098.593.294.798.206.205.514.308.924.308.383 0 .71-.075.98-.224.271-.159.49-.345.658-.56.168-.224.29-.434.364-.63.075-.196.112-.336.112-.42Zm2.581-3.416v-1.05h.868v-1.526h1.232v1.526h2.114v1.05h-2.114v4.368c0 .308.08.532.238.672.159.14.43.21.812.21.364 0 .696-.103.994-.308v1.12a1.735 1.735 0 0 1-.588.21 3.222 3.222 0 0 1-.728.084c-.466 0-.844-.089-1.134-.266a1.588 1.588 0 0 1-.63-.686 2.071 2.071 0 0 1-.196-.882v-4.522h-.868Zm6.414-2.114c-.252 0-.453-.075-.602-.224a.805.805 0 0 1-.224-.574c0-.224.074-.415.224-.574.149-.159.35-.238.602-.238.242 0 .434.079.574.238.14.159.21.35.21.574 0 .224-.07.415-.21.574-.14.149-.332.224-.574.224Zm-.63 1.064h1.232V114h-1.232v-7.266Zm6.222 7.406c-.663 0-1.26-.145-1.792-.434a3.248 3.248 0 0 1-1.246-1.288c-.308-.569-.462-1.255-.462-2.058 0-.803.154-1.484.462-2.044.308-.56.723-.985 1.246-1.274a3.592 3.592 0 0 1 1.792-.448c.672 0 1.274.149 1.806.448.532.289.952.714 1.26 1.274.308.56.462 1.241.462 2.044 0 .803-.154 1.489-.462 2.058-.308.56-.728.989-1.26 1.288-.532.289-1.134.434-1.806.434Zm0-1.106c.653 0 1.195-.215 1.624-.644.429-.439.644-1.115.644-2.03 0-.915-.215-1.587-.644-2.016-.429-.439-.971-.658-1.624-.658-.644 0-1.181.219-1.61.658-.42.429-.63 1.101-.63 2.016s.21 1.591.63 2.03c.429.429.966.644 1.61.644Zm8.474-5.348c-.56 0-1.018.131-1.372.392a2.853 2.853 0 0 0-.84.98V114h-1.232v-7.266h1.162l.042 1.302h.028a2.48 2.48 0 0 1 .924-1.022c.42-.28.952-.42 1.596-.42.718 0 1.288.191 1.708.574.429.383.644.961.644 1.736V114H452.6v-4.97c0-.495-.131-.84-.392-1.036-.252-.205-.598-.308-1.036-.308Zm-75.266 10.276h1.316v8.848h4.886V128h-6.202v-10.038Zm10.553 10.178c-.663 0-1.26-.145-1.792-.434a3.248 3.248 0 0 1-1.246-1.288c-.308-.569-.462-1.255-.462-2.058 0-.803.154-1.484.462-2.044.308-.56.723-.985 1.246-1.274a3.592 3.592 0 0 1 1.792-.448c.672 0 1.274.149 1.806.448.532.289.952.714 1.26 1.274.308.56.462 1.241.462 2.044 0 .803-.154 1.489-.462 2.058-.308.56-.728.989-1.26 1.288-.532.289-1.134.434-1.806.434Zm0-1.106c.653 0 1.194-.215 1.624-.644.429-.439.644-1.115.644-2.03 0-.915-.215-1.587-.644-2.016-.43-.439-.971-.658-1.624-.658-.644 0-1.181.219-1.61.658-.42.429-.63 1.101-.63 2.016s.21 1.591.63 2.03c.429.429.966.644 1.61.644Zm7.357-5.348c-.775 0-1.559.238-2.352.714v-1.106a4.412 4.412 0 0 1 1.19-.504c.457-.131.9-.196 1.33-.196.914 0 1.61.191 2.086.574.476.383.714.966.714 1.75v3.906c0 .159.004.364.014.616.018.243.037.429.056.56h-1.12a6.439 6.439 0 0 1-.084-.546 8.21 8.21 0 0 1-.028-.63l-.014-.21a3.93 3.93 0 0 1-.462.7 2.354 2.354 0 0 1-.784.588c-.318.159-.714.238-1.19.238-.654 0-1.181-.187-1.582-.56-.402-.373-.602-.901-.602-1.582 0-.793.28-1.377.84-1.75.56-.373 1.348-.56 2.366-.56h1.358v-.602c0-.504-.131-.863-.392-1.078-.262-.215-.71-.322-1.344-.322Zm1.736 3.514v-.532h-1.232c-.738 0-1.274.107-1.61.322-.327.215-.49.527-.49.938 0 .327.098.593.294.798.205.205.513.308.924.308.382 0 .709-.075.98-.224.27-.159.49-.345.658-.56.168-.224.289-.434.364-.63.074-.196.112-.336.112-.42Zm2.651-.84c0-.849.149-1.549.448-2.1.299-.56.695-.975 1.19-1.246.504-.28 1.05-.42 1.638-.42.551 0 1.027.117 1.428.35.401.224.723.546.966.966v-3.948h1.232V128h-1.078l-.098-1.428a2.865 2.865 0 0 1-.952 1.148c-.401.28-.905.42-1.512.42-.579 0-1.12-.135-1.624-.406-.495-.28-.891-.7-1.19-1.26-.299-.56-.448-1.265-.448-2.114Zm5.684 0c0-.905-.215-1.577-.644-2.016-.429-.439-.961-.658-1.596-.658-.635 0-1.157.229-1.568.686-.411.448-.616 1.111-.616 1.988 0 .887.205 1.554.616 2.002.411.448.933.672 1.568.672s1.167-.219 1.596-.658c.429-.439.644-1.111.644-2.016Zm6.199-6.398h3.402c1.101 0 1.937.187 2.506.56.579.373.868 1.003.868 1.89 0 .719-.182 1.265-.546 1.638-.364.364-.849.611-1.456.742.775.093 1.363.322 1.764.686.401.355.602.896.602 1.624 0 .691-.163 1.251-.49 1.68-.327.429-.775.742-1.344.938-.569.187-1.213.28-1.932.28h-3.374v-10.038Zm3.304 4.284c.635 0 1.148-.14 1.54-.42.401-.289.602-.737.602-1.344 0-.513-.177-.859-.532-1.036-.355-.187-.859-.28-1.512-.28h-2.086v3.08h1.988Zm.07 4.564c.709 0 1.283-.121 1.722-.364.439-.243.658-.681.658-1.316s-.205-1.073-.616-1.316c-.401-.252-1.041-.378-1.918-.378h-1.904v3.374h2.058Zm7.877-5.124c-.774 0-1.558.238-2.352.714v-1.106a4.425 4.425 0 0 1 1.19-.504 4.825 4.825 0 0 1 1.33-.196c.915 0 1.61.191 2.086.574.476.383.714.966.714 1.75v3.906c0 .159.005.364.014.616.019.243.038.429.056.56h-1.12a6.439 6.439 0 0 1-.084-.546 8.754 8.754 0 0 1-.028-.63l-.014-.21a3.93 3.93 0 0 1-.462.7 2.344 2.344 0 0 1-.784.588c-.317.159-.714.238-1.19.238-.653 0-1.18-.187-1.582-.56-.401-.373-.602-.901-.602-1.582 0-.793.28-1.377.84-1.75.56-.373 1.349-.56 2.366-.56h1.358v-.602c0-.504-.13-.863-.392-1.078-.261-.215-.709-.322-1.344-.322Zm1.736 3.514v-.532h-1.232c-.737 0-1.274.107-1.61.322-.326.215-.49.527-.49.938 0 .327.098.593.294.798.206.205.514.308.924.308.383 0 .71-.075.98-.224.271-.159.49-.345.658-.56.168-.224.29-.434.364-.63.075-.196.112-.336.112-.42Zm3.169-7.238h1.232V128h-1.232v-10.038Zm5.705 3.724c-.775 0-1.559.238-2.352.714v-1.106a4.412 4.412 0 0 1 1.19-.504c.457-.131.9-.196 1.33-.196.914 0 1.61.191 2.086.574.476.383.714.966.714 1.75v3.906c0 .159.004.364.014.616.018.243.037.429.056.56h-1.12a6.439 6.439 0 0 1-.084-.546 8.21 8.21 0 0 1-.028-.63l-.014-.21a3.93 3.93 0 0 1-.462.7 2.354 2.354 0 0 1-.784.588c-.318.159-.714.238-1.19.238-.654 0-1.181-.187-1.582-.56-.402-.373-.602-.901-.602-1.582 0-.793.28-1.377.84-1.75.56-.373 1.348-.56 2.366-.56h1.358v-.602c0-.504-.131-.863-.392-1.078-.262-.215-.71-.322-1.344-.322Zm1.736 3.514v-.532h-1.232c-.738 0-1.274.107-1.61.322-.327.215-.49.527-.49.938 0 .327.098.593.294.798.205.205.513.308.924.308.382 0 .709-.075.98-.224.27-.159.49-.345.658-.56.168-.224.289-.434.364-.63.074-.196.112-.336.112-.42Zm6.613-3.514c-.56 0-1.018.131-1.372.392a2.853 2.853 0 0 0-.84.98V128h-1.232v-7.266h1.162l.042 1.302h.028a2.48 2.48 0 0 1 .924-1.022c.42-.28.952-.42 1.596-.42.718 0 1.288.191 1.708.574.429.383.644.961.644 1.736V128h-1.232v-4.97c0-.495-.131-.84-.392-1.036-.252-.205-.598-.308-1.036-.308Zm7.744 6.454c-1.129 0-2.02-.331-2.674-.994-.653-.672-.98-1.601-.98-2.786s.332-2.109.994-2.772c.663-.663 1.568-.994 2.716-.994.439 0 .85.051 1.232.154.383.093.691.233.924.42v1.106c-.634-.392-1.348-.588-2.142-.588-.84 0-1.46.224-1.862.672-.401.439-.602 1.106-.602 2.002 0 .896.192 1.568.574 2.016.392.439.999.658 1.82.658.794 0 1.531-.191 2.212-.574v1.106c-.606.383-1.344.574-2.212.574Zm6.934 0c-1.213 0-2.142-.331-2.786-.994-.635-.672-.952-1.601-.952-2.786 0-.793.149-1.47.448-2.03.299-.56.709-.989 1.232-1.288a3.49 3.49 0 0 1 1.764-.448c1.111 0 1.927.369 2.45 1.106.523.728.691 1.727.504 2.996h-5.124c.103 1.559.961 2.338 2.576 2.338.887 0 1.703-.252 2.45-.756v1.106a4.3 4.3 0 0 1-1.176.56c-.448.131-.91.196-1.386.196Zm-.322-6.454c-.532 0-.989.163-1.372.49-.383.327-.625.821-.728 1.484h3.906c.028-.625-.117-1.111-.434-1.456s-.775-.518-1.372-.518Zm8.124.28c-.579.047-1.073.191-1.484.434a2.185 2.185 0 0 0-.882.98V128h-1.232v-7.266h1.078l.126 1.582h.028c.233-.485.551-.877.952-1.176a2.973 2.973 0 0 1 1.414-.546v1.372Zm-74.738 75.174c-.71 0-1.368-.089-1.974-.266-.598-.187-1.055-.429-1.372-.728v-1.26c.233.205.532.387.896.546.373.159.774.285 1.204.378.429.093.844.14 1.246.14.756 0 1.339-.145 1.75-.434.42-.289.63-.7.63-1.232 0-.317-.066-.574-.196-.77-.122-.205-.355-.383-.7-.532-.336-.149-.826-.303-1.47-.462-.84-.215-1.498-.453-1.974-.714-.476-.261-.812-.569-1.008-.924-.196-.364-.294-.793-.294-1.288 0-.896.317-1.577.952-2.044.634-.476 1.549-.714 2.744-.714.522 0 1.003.051 1.442.154.438.103.872.261 1.302.476v1.26c-.7-.467-1.615-.7-2.744-.7-1.596 0-2.394.504-2.394 1.512 0 .439.163.784.49 1.036.336.252.928.476 1.778.672.877.196 1.563.425 2.058.686.494.261.844.579 1.05.952.214.364.322.812.322 1.344 0 .905-.332 1.619-.994 2.142-.663.513-1.578.77-2.744.77Zm9.827-5.222c0-.467-.117-.789-.35-.966-.234-.177-.551-.266-.952-.266-.523 0-.938.131-1.246.392a3.484 3.484 0 0 0-.812.994V197h-1.232v-7.266h1.078l.126 1.302h.028c.196-.411.49-.751.882-1.022.401-.28.914-.42 1.54-.42.55 0 1.008.135 1.372.406.364.261.606.658.728 1.19.205-.495.518-.882.938-1.162.429-.289.947-.434 1.554-.434.662 0 1.19.191 1.582.574.401.383.602.961.602 1.736V197h-1.246v-4.942c0-.476-.117-.821-.35-1.036-.234-.224-.551-.336-.952-.336-.532 0-.952.154-1.26.462a4.41 4.41 0 0 0-.798 1.064V197h-1.232v-5.082Zm10.231-1.232c-.775 0-1.559.238-2.352.714v-1.106a4.412 4.412 0 0 1 1.19-.504 4.82 4.82 0 0 1 1.33-.196c.915 0 1.61.191 2.086.574.476.383.714.966.714 1.75v3.906c0 .159.005.364.014.616.019.243.037.429.056.56h-1.12a6.439 6.439 0 0 1-.084-.546 8.21 8.21 0 0 1-.028-.63l-.014-.21a3.93 3.93 0 0 1-.462.7 2.344 2.344 0 0 1-.784.588c-.317.159-.714.238-1.19.238-.653 0-1.181-.187-1.582-.56-.401-.373-.602-.901-.602-1.582 0-.793.28-1.377.84-1.75.56-.373 1.349-.56 2.366-.56h1.358v-.602c0-.504-.131-.863-.392-1.078-.261-.215-.709-.322-1.344-.322Zm1.736 3.514v-.532H408.6c-.737 0-1.274.107-1.61.322-.327.215-.49.527-.49.938 0 .327.098.593.294.798.205.205.513.308.924.308.383 0 .709-.075.98-.224.271-.159.49-.345.658-.56.168-.224.289-.434.364-.63.075-.196.112-.336.112-.42Zm6.767-3.234c-.579.047-1.073.191-1.484.434a2.185 2.185 0 0 0-.882.98V197h-1.232v-7.266h1.078l.126 1.582h.028c.233-.485.551-.877.952-1.176a2.973 2.973 0 0 1 1.414-.546v1.372Zm.982-.182v-1.05h.868v-1.526h1.232v1.526h2.114v1.05h-2.114v4.368c0 .308.079.532.238.672.159.14.429.21.812.21.364 0 .695-.103.994-.308v1.12a1.735 1.735 0 0 1-.588.21 3.228 3.228 0 0 1-.728.084c-.467 0-.845-.089-1.134-.266a1.588 1.588 0 0 1-.63-.686 2.057 2.057 0 0 1-.196-.882v-4.522h-.868ZM429.597 197h-1.946l-2.212-10.038h1.372l1.904 8.904 2.576-8.904h1.204l2.52 8.736 1.89-8.736h1.274L435.967 197h-1.932l-2.212-7.756-2.226 7.756Zm12.751.14c-1.213 0-2.142-.331-2.786-.994-.635-.672-.952-1.601-.952-2.786 0-.793.149-1.47.448-2.03.299-.56.709-.989 1.232-1.288a3.49 3.49 0 0 1 1.764-.448c1.111 0 1.927.369 2.45 1.106.523.728.691 1.727.504 2.996h-5.124c.103 1.559.961 2.338 2.576 2.338.887 0 1.703-.252 2.45-.756v1.106a4.3 4.3 0 0 1-1.176.56c-.448.131-.91.196-1.386.196Zm-.322-6.454c-.532 0-.989.163-1.372.49-.383.327-.625.821-.728 1.484h3.906c.028-.625-.117-1.111-.434-1.456s-.775-.518-1.372-.518Zm4.526-3.724h1.232l-.028 4.186c.243-.467.569-.84.98-1.12.411-.289.919-.434 1.526-.434.569 0 1.092.14 1.568.42.485.271.877.686 1.176 1.246.299.551.448 1.251.448 2.1 0 .849-.154 1.554-.462 2.114-.299.56-.695.98-1.19 1.26a3.216 3.216 0 0 1-1.596.406c-.56 0-1.05-.135-1.47-.406a2.893 2.893 0 0 1-.98-1.106l-.042 1.372h-1.162v-10.038Zm5.628 6.398c0-.877-.201-1.54-.602-1.988-.401-.457-.919-.686-1.554-.686s-1.171.224-1.61.672c-.429.439-.644 1.106-.644 2.002 0 .905.215 1.577.644 2.016.439.439.975.658 1.61.658.635 0 1.153-.224 1.554-.672.401-.448.602-1.115.602-2.002Zm-54.989 17.78a7.025 7.025 0 0 1-1.974-.266c-.597-.187-1.055-.429-1.372-.728v-1.26c.233.205.532.387.896.546.373.159.775.285 1.204.378.429.093.845.14 1.246.14.756 0 1.339-.145 1.75-.434.42-.289.63-.7.63-1.232 0-.317-.065-.574-.196-.77-.121-.205-.355-.383-.7-.532-.336-.149-.826-.303-1.47-.462-.84-.215-1.498-.453-1.974-.714-.476-.261-.812-.569-1.008-.924-.196-.364-.294-.793-.294-1.288 0-.896.317-1.577.952-2.044.635-.476 1.549-.714 2.744-.714.523 0 1.003.051 1.442.154.439.103.873.261 1.302.476v1.26c-.7-.467-1.615-.7-2.744-.7-1.596 0-2.394.504-2.394 1.512 0 .439.163.784.49 1.036.336.252.929.476 1.778.672.877.196 1.563.425 2.058.686.495.261.845.579 1.05.952.215.364.322.812.322 1.344 0 .905-.331 1.619-.994 2.142-.663.513-1.577.77-2.744.77Zm8.592 0c-1.214 0-2.142-.331-2.786-.994-.635-.672-.952-1.601-.952-2.786 0-.793.149-1.47.448-2.03a3.15 3.15 0 0 1 1.232-1.288 3.485 3.485 0 0 1 1.764-.448c1.11 0 1.927.369 2.45 1.106.522.728.69 1.727.504 2.996h-5.124c.102 1.559.961 2.338 2.576 2.338.886 0 1.703-.252 2.45-.756v1.106a4.3 4.3 0 0 1-1.176.56c-.448.131-.91.196-1.386.196Zm-.322-6.454c-.532 0-.99.163-1.372.49-.383.327-.626.821-.728 1.484h3.906c.028-.625-.117-1.111-.434-1.456-.318-.345-.775-.518-1.372-.518Zm7.662 6.454c-1.13 0-2.021-.331-2.674-.994-.654-.672-.98-1.601-.98-2.786s.331-2.109.994-2.772c.662-.663 1.568-.994 2.716-.994.438 0 .849.051 1.232.154.382.093.69.233.924.42v1.106a3.995 3.995 0 0 0-2.142-.588c-.84 0-1.461.224-1.862.672-.402.439-.602 1.106-.602 2.002 0 .896.191 1.568.574 2.016.392.439.998.658 1.82.658.793 0 1.53-.191 2.212-.574v1.106c-.607.383-1.344.574-2.212.574Zm8.375-1.442a2.633 2.633 0 0 1-.91 1.022c-.401.28-.929.42-1.582.42-.672 0-1.218-.191-1.638-.574-.411-.383-.616-.966-.616-1.75v-5.082h1.246v5.082c0 .476.131.798.392.966.261.168.583.252.966.252.541 0 .975-.121 1.302-.364.327-.243.607-.574.84-.994v-4.942h1.232V211h-1.092l-.112-1.302h-.028Zm6.852-4.732c-.579.047-1.073.191-1.484.434a2.185 2.185 0 0 0-.882.98V211h-1.232v-7.266h1.078l.126 1.582h.028c.233-.485.551-.877.952-1.176a2.973 2.973 0 0 1 1.414-.546v1.372Zm2.132-2.296c-.252 0-.453-.075-.602-.224a.805.805 0 0 1-.224-.574c0-.224.074-.415.224-.574.149-.159.35-.238.602-.238.242 0 .434.079.574.238.14.159.21.35.21.574 0 .224-.07.415-.21.574-.14.149-.332.224-.574.224Zm-.63 1.064h1.232V211h-1.232v-7.266Zm2.652 1.05v-1.05h.868v-1.526h1.232v1.526h2.114v1.05h-2.114v4.368c0 .308.079.532.238.672.159.14.429.21.812.21.364 0 .695-.103.994-.308v1.12a1.735 1.735 0 0 1-.588.21 3.228 3.228 0 0 1-.728.084c-.467 0-.845-.089-1.134-.266a1.588 1.588 0 0 1-.63-.686 2.057 2.057 0 0 1-.196-.882v-4.522h-.868Zm6.482 8.834c-.383 0-.7-.051-.952-.154v-1.19c.186.159.49.238.91.238.326 0 .602-.079.826-.238.233-.149.457-.411.672-.784l-2.954-7.756h1.358l2.31 6.132 2.296-6.132h1.19l-2.716 7.182c-.374.961-.789 1.652-1.246 2.072-.458.42-1.022.63-1.694.63Z"/>
    <rect width="32" height="32" x="403" y="61" fill="#5282FF" rx="16"/>
    <path fill="#fff" fill-rule="evenodd" d="M426.246 84.999v-3.945l-1.368 1.091-2.656-3.39a2.984 2.984 0 0 0 .564-2.158l1.595-.619.632 1.645 1.986-3.393-3.747-1.193.628 1.634-1.589.616a2.997 2.997 0 0 0-2.606-1.312l-.748-2.267 1.683-.547-3.285-2.162-1.387 3.68 1.657-.539.732 2.218a3.007 3.007 0 0 0-1.441 1.895v-.001h-2.025a2 2 0 0 0-3.871.7 1.998 1.998 0 0 0 3.871.7h2.015c.154.666.53 1.247 1.046 1.66h-.001l-.902 1.768-1.556-.795.79 3.852 3.585-1.616-1.573-.804.923-1.807h-.002a3.02 3.02 0 0 0 1.954-.253l2.634 3.361-1.379 1.1 3.841.88Zm-6.437-9.626a1.6 1.6 0 1 1 0 3.2 1.6 1.6 0 0 1 0-3.2Z" clip-rule="evenodd"/>
    <path fill="#5282FF" d="M435 160c0-8.837-7.163-16-16-16s-16 7.163-16 16 7.163 16 16 16 16-7.163 16-16Z"/>
    <path fill="#fff" fill-rule="evenodd" d="m411.978 155.297 5.41-2.893a3.416 3.416 0 0 1 3.224 0l5.411 2.893c.601.322.977.948.977 1.628v1.187a11.55 11.55 0 0 1-5.32 9.718l-1.102.708a2.93 2.93 0 0 1-3.156 0l-1.102-.708a11.55 11.55 0 0 1-5.32-9.718v-1.187c0-.68.376-1.306.978-1.628Zm2.52 5.469h1.845c.044 1.134.226 2.185.52 3.015.066.187.141.372.227.55a4.52 4.52 0 0 1-2.592-3.565Zm6.091 0h-3.178c.093 2.243.769 3.984 1.589 3.984s1.496-1.741 1.589-3.984Zm-3.178-1.063h3.178c-.093-2.243-.769-3.984-1.589-3.984s-1.496 1.741-1.589 3.984Zm3.726 4.078c.294-.83.476-1.881.52-3.015h1.845a4.52 4.52 0 0 1-2.592 3.565c.086-.178.161-.363.227-.55Zm2.396-3.547v.018-.035.017Zm-1.876-.531h1.845a4.52 4.52 0 0 0-2.592-3.565c.086.178.161.362.227.55.294.829.476 1.881.52 3.015Zm-7.159 0h1.845c.044-1.134.226-2.186.52-3.015.066-.188.141-.372.227-.55a4.52 4.52 0 0 0-2.592 3.565Z" clip-rule="evenodd"/>
    <rect width="140" height="228" x="657" y="26" fill="#fff" rx="10"/>
    <rect width="140" height="228" x="657" y="26" stroke="#5282FF" stroke-width="2" rx="10"/>
    <path fill="#000" d="M703.475 95.474h-.588l.014-.014-3.038-6.65V97h-1.246V86.962h1.834l3.122 7.042 3.262-7.042h1.708V97h-1.33v-8.078l-3.08 6.538-.658.014Zm9.702-4.788c-.775 0-1.559.238-2.352.714v-1.106a4.43 4.43 0 0 1 1.19-.504c.457-.13.901-.196 1.33-.196.915 0 1.61.191 2.086.574.476.383.714.966.714 1.75v3.906c0 .159.005.364.014.616.019.243.037.43.056.56h-1.12a6.4 6.4 0 0 1-.084-.546 8.197 8.197 0 0 1-.028-.63l-.014-.21a3.92 3.92 0 0 1-.462.7c-.196.233-.457.43-.784.588-.317.159-.714.238-1.19.238-.653 0-1.181-.187-1.582-.56-.401-.373-.602-.9-.602-1.582 0-.793.28-1.377.84-1.75.56-.373 1.349-.56 2.366-.56h1.358v-.602c0-.504-.131-.863-.392-1.078-.261-.215-.709-.322-1.344-.322Zm1.736 3.514v-.532h-1.232c-.737 0-1.274.107-1.61.322-.327.215-.49.527-.49.938 0 .327.098.593.294.798.205.205.513.308.924.308.383 0 .709-.075.98-.224.271-.159.49-.345.658-.56.168-.224.289-.434.364-.63.075-.196.112-.336.112-.42Zm6.613-3.514c-.56 0-1.017.13-1.372.392a2.871 2.871 0 0 0-.84.98V97h-1.232v-7.266h1.162l.042 1.302h.028a2.48 2.48 0 0 1 .924-1.022c.42-.28.952-.42 1.596-.42.719 0 1.288.191 1.708.574.43.383.644.961.644 1.736V97h-1.232v-4.97c0-.495-.13-.84-.392-1.036-.252-.205-.597-.308-1.036-.308Zm7.073 0c-.775 0-1.559.238-2.352.714v-1.106a4.43 4.43 0 0 1 1.19-.504c.457-.13.901-.196 1.33-.196.915 0 1.61.191 2.086.574.476.383.714.966.714 1.75v3.906c0 .159.005.364.014.616.019.243.037.43.056.56h-1.12a6.4 6.4 0 0 1-.084-.546 8.197 8.197 0 0 1-.028-.63l-.014-.21a3.92 3.92 0 0 1-.462.7c-.196.233-.457.43-.784.588-.317.159-.714.238-1.19.238-.653 0-1.181-.187-1.582-.56-.401-.373-.602-.9-.602-1.582 0-.793.28-1.377.84-1.75.56-.373 1.349-.56 2.366-.56h1.358v-.602c0-.504-.131-.863-.392-1.078-.261-.215-.709-.322-1.344-.322Zm1.736 3.514v-.532h-1.232c-.737 0-1.274.107-1.61.322-.327.215-.49.527-.49.938 0 .327.098.593.294.798.205.205.513.308.924.308.383 0 .709-.075.98-.224.271-.159.49-.345.658-.56.168-.224.289-.434.364-.63.075-.196.112-.336.112-.42Zm3.253 4.704v-1.106c.392.215.784.369 1.176.462.392.093.84.14 1.344.14.896 0 1.521-.173 1.876-.518.355-.336.532-.83.532-1.484v-1.12c-.215.43-.518.775-.91 1.036-.383.261-.859.392-1.428.392s-1.101-.13-1.596-.392a3.072 3.072 0 0 1-1.176-1.19c-.289-.523-.434-1.176-.434-1.96 0-.793.145-1.451.434-1.974.299-.532.691-.929 1.176-1.19a3.329 3.329 0 0 1 1.624-.406c.579 0 1.064.13 1.456.392.401.261.714.616.938 1.064l.014-.154c0-.168.009-.369.028-.602.019-.243.037-.43.056-.56h1.12a7.877 7.877 0 0 0-.056.56 16.97 16.97 0 0 0-.014.602v5.488c0 .625-.126 1.171-.378 1.638-.243.467-.63.83-1.162 1.092-.532.261-1.237.392-2.114.392-1.064 0-1.899-.2-2.506-.602Zm4.942-5.74c0-.83-.205-1.451-.616-1.862-.401-.41-.91-.616-1.526-.616s-1.134.205-1.554.616c-.411.41-.616 1.031-.616 1.862 0 .812.205 1.423.616 1.834.42.401.943.602 1.568.602.607 0 1.111-.2 1.512-.602.411-.401.616-1.013.616-1.834Zm6.438 3.976c-1.213 0-2.142-.331-2.786-.994-.634-.672-.952-1.6-.952-2.786 0-.793.15-1.47.448-2.03.299-.56.71-.99 1.232-1.288a3.493 3.493 0 0 1 1.764-.448c1.111 0 1.928.369 2.45 1.106.523.728.691 1.727.504 2.996h-5.124c.103 1.559.962 2.338 2.576 2.338.887 0 1.704-.252 2.45-.756v1.106a4.3 4.3 0 0 1-1.176.56c-.448.13-.91.196-1.386.196Zm-.322-6.454c-.532 0-.989.163-1.372.49-.382.327-.625.821-.728 1.484h3.906c.028-.625-.116-1.11-.434-1.456-.317-.345-.774-.518-1.372-.518Zm4.008 2.674c0-.85.149-1.55.448-2.1.299-.56.695-.975 1.19-1.246.504-.28 1.05-.42 1.638-.42.551 0 1.027.117 1.428.35.401.224.723.546.966.966v-3.948h1.232V97h-1.078l-.098-1.428a2.867 2.867 0 0 1-.952 1.148c-.401.28-.905.42-1.512.42-.579 0-1.12-.135-1.624-.406-.495-.28-.891-.7-1.19-1.26-.299-.56-.448-1.265-.448-2.114Zm5.684 0c0-.905-.215-1.577-.644-2.016-.429-.439-.961-.658-1.596-.658-.635 0-1.157.229-1.568.686-.411.448-.616 1.11-.616 1.988 0 .887.205 1.554.616 2.002.411.448.933.672 1.568.672s1.167-.22 1.596-.658c.429-.439.644-1.11.644-2.016Zm-56.626 20.78a7.025 7.025 0 0 1-1.974-.266c-.597-.187-1.054-.429-1.372-.728v-1.26c.234.205.532.387.896.546.374.159.775.285 1.204.378.43.093.845.14 1.246.14.756 0 1.34-.145 1.75-.434.42-.289.63-.7.63-1.232 0-.317-.065-.574-.196-.77-.121-.205-.354-.383-.7-.532-.336-.149-.826-.303-1.47-.462-.84-.215-1.498-.453-1.974-.714-.476-.261-.812-.569-1.008-.924-.196-.364-.294-.793-.294-1.288 0-.896.318-1.577.952-2.044.635-.476 1.55-.714 2.744-.714.523 0 1.004.051 1.442.154.439.103.873.261 1.302.476v1.26c-.7-.467-1.614-.7-2.744-.7-1.596 0-2.394.504-2.394 1.512 0 .439.164.784.49 1.036.336.252.929.476 1.778.672.878.196 1.564.425 2.058.686.495.261.845.579 1.05.952.215.364.322.812.322 1.344 0 .905-.331 1.619-.994 2.142-.662.513-1.577.77-2.744.77Zm8.592 0c-1.213 0-2.142-.331-2.786-.994-.634-.672-.952-1.601-.952-2.786 0-.793.15-1.47.448-2.03.299-.56.71-.989 1.232-1.288a3.49 3.49 0 0 1 1.764-.448c1.111 0 1.928.369 2.45 1.106.523.728.691 1.727.504 2.996h-5.124c.103 1.559.962 2.338 2.576 2.338.887 0 1.704-.252 2.45-.756v1.106a4.3 4.3 0 0 1-1.176.56c-.448.131-.91.196-1.386.196Zm-.322-6.454c-.532 0-.989.163-1.372.49-.382.327-.625.821-.728 1.484h3.906c.028-.625-.116-1.111-.434-1.456-.317-.345-.774-.518-1.372-.518Zm8.124.28c-.579.047-1.073.191-1.484.434a2.185 2.185 0 0 0-.882.98V114h-1.232v-7.266h1.078l.126 1.582h.028c.233-.485.551-.877.952-1.176a2.973 2.973 0 0 1 1.414-.546v1.372Zm.839-1.232h1.33l2.212 6.608 2.198-6.608h1.232L719.425 114h-1.988l-2.492-7.266Zm8.744-1.064c-.252 0-.453-.075-.602-.224a.805.805 0 0 1-.224-.574c0-.224.074-.415.224-.574.149-.159.35-.238.602-.238.242 0 .434.079.574.238.14.159.21.35.21.574 0 .224-.07.415-.21.574-.14.149-.332.224-.574.224Zm-.63 1.064h1.232V114h-1.232v-7.266Zm6.376 7.406c-1.129 0-2.021-.331-2.674-.994-.653-.672-.98-1.601-.98-2.786s.331-2.109.994-2.772c.663-.663 1.568-.994 2.716-.994.439 0 .849.051 1.232.154.383.093.691.233.924.42v1.106a3.995 3.995 0 0 0-2.142-.588c-.84 0-1.461.224-1.862.672-.401.439-.602 1.106-.602 2.002 0 .896.191 1.568.574 2.016.392.439.999.658 1.82.658a4.44 4.44 0 0 0 2.212-.574v1.106c-.607.383-1.344.574-2.212.574Zm6.934 0c-1.214 0-2.142-.331-2.786-.994-.635-.672-.952-1.601-.952-2.786 0-.793.149-1.47.448-2.03a3.15 3.15 0 0 1 1.232-1.288 3.485 3.485 0 0 1 1.764-.448c1.11 0 1.927.369 2.45 1.106.522.728.69 1.727.504 2.996h-5.124c.102 1.559.961 2.338 2.576 2.338.886 0 1.703-.252 2.45-.756v1.106a4.3 4.3 0 0 1-1.176.56c-.448.131-.91.196-1.386.196Zm-.322-6.454c-.532 0-.99.163-1.372.49-.383.327-.626.821-.728 1.484h3.906c.028-.625-.117-1.111-.434-1.456-.318-.345-.775-.518-1.372-.518Zm7.762 6.314v-6.216h-.882v-1.05h.882v-.182c0-.859.229-1.526.686-2.002.458-.476 1.083-.714 1.876-.714.355 0 .663.042.924.126v1.12a1.653 1.653 0 0 0-.364-.098 2.887 2.887 0 0 0-.504-.042c-.429 0-.77.131-1.022.392-.242.261-.364.667-.364 1.218v.182h2.1v1.05h-2.1V114h-1.232Zm7.333.14c-.662 0-1.26-.145-1.792-.434a3.255 3.255 0 0 1-1.246-1.288c-.308-.569-.462-1.255-.462-2.058 0-.803.154-1.484.462-2.044.308-.56.724-.985 1.246-1.274a3.595 3.595 0 0 1 1.792-.448c.672 0 1.274.149 1.806.448.532.289.952.714 1.26 1.274.308.56.462 1.241.462 2.044 0 .803-.154 1.489-.462 2.058-.308.56-.728.989-1.26 1.288-.532.289-1.134.434-1.806.434Zm0-1.106c.654 0 1.195-.215 1.624-.644.43-.439.644-1.115.644-2.03 0-.915-.214-1.587-.644-2.016-.429-.439-.97-.658-1.624-.658-.644 0-1.18.219-1.61.658-.42.429-.63 1.101-.63 2.016s.21 1.591.63 2.03c.43.429.966.644 1.61.644Zm8.628-5.068c-.579.047-1.073.191-1.484.434a2.185 2.185 0 0 0-.882.98V114h-1.232v-7.266h1.078l.126 1.582h.028c.233-.485.551-.877.952-1.176a2.973 2.973 0 0 1 1.414-.546v1.372ZM699.641 131h-1.638l-3.5-4.298h-1.064V131h-1.316v-10.038h1.316v4.55h.98l3.584-4.55h1.484l-3.962 5.012 4.116 5.026Zm5.59-1.302a2.64 2.64 0 0 1-.91 1.022c-.402.28-.929.42-1.582.42-.672 0-1.218-.191-1.638-.574-.411-.383-.616-.966-.616-1.75v-5.082h1.246v5.082c0 .476.13.798.392.966.261.168.583.252.966.252.541 0 .975-.121 1.302-.364.326-.243.606-.574.84-.994v-4.942h1.232V131h-1.092l-.112-1.302h-.028Zm3.254-8.736h1.232l-.028 4.186c.242-.467.569-.84.98-1.12.41-.289.919-.434 1.526-.434.569 0 1.092.14 1.568.42.485.271.877.686 1.176 1.246.298.551.448 1.251.448 2.1 0 .849-.154 1.554-.462 2.114-.299.56-.696.98-1.19 1.26a3.222 3.222 0 0 1-1.596.406c-.56 0-1.05-.135-1.47-.406a2.885 2.885 0 0 1-.98-1.106l-.042 1.372h-1.162v-10.038Zm5.628 6.398c0-.877-.201-1.54-.602-1.988-.402-.457-.92-.686-1.554-.686-.635 0-1.172.224-1.61.672-.43.439-.644 1.106-.644 2.002 0 .905.214 1.577.644 2.016.438.439.975.658 1.61.658.634 0 1.152-.224 1.554-.672.401-.448.602-1.115.602-2.002Zm5.986 3.78c-1.213 0-2.142-.331-2.786-.994-.635-.672-.952-1.601-.952-2.786 0-.793.149-1.47.448-2.03.299-.56.709-.989 1.232-1.288a3.49 3.49 0 0 1 1.764-.448c1.111 0 1.927.369 2.45 1.106.523.728.691 1.727.504 2.996h-5.124c.103 1.559.961 2.338 2.576 2.338.887 0 1.703-.252 2.45-.756v1.106a4.3 4.3 0 0 1-1.176.56c-.448.131-.91.196-1.386.196Zm-.322-6.454c-.532 0-.989.163-1.372.49-.383.327-.625.821-.728 1.484h3.906c.028-.625-.117-1.111-.434-1.456s-.775-.518-1.372-.518Zm8.124.28c-.579.047-1.073.191-1.484.434a2.185 2.185 0 0 0-.882.98V131h-1.232v-7.266h1.078l.126 1.582h.028c.233-.485.551-.877.952-1.176a2.973 2.973 0 0 1 1.414-.546v1.372Zm4.946-.28c-.56 0-1.018.131-1.372.392a2.853 2.853 0 0 0-.84.98V131h-1.232v-7.266h1.162l.042 1.302h.028a2.48 2.48 0 0 1 .924-1.022c.42-.28.952-.42 1.596-.42.718 0 1.288.191 1.708.574.429.383.644.961.644 1.736V131h-1.232v-4.97c0-.495-.131-.84-.392-1.036-.252-.205-.598-.308-1.036-.308Zm7.828 6.454c-1.213 0-2.142-.331-2.786-.994-.634-.672-.952-1.601-.952-2.786 0-.793.15-1.47.448-2.03.299-.56.71-.989 1.232-1.288a3.49 3.49 0 0 1 1.764-.448c1.111 0 1.928.369 2.45 1.106.523.728.691 1.727.504 2.996h-5.124c.103 1.559.962 2.338 2.576 2.338.887 0 1.704-.252 2.45-.756v1.106a4.3 4.3 0 0 1-1.176.56c-.448.131-.91.196-1.386.196Zm-.322-6.454c-.532 0-.989.163-1.372.49-.382.327-.625.821-.728 1.484h3.906c.028-.625-.116-1.111-.434-1.456-.317-.345-.774-.518-1.372-.518Zm3.938.098v-1.05h.868v-1.526h1.232v1.526h2.114v1.05h-2.114v4.368c0 .308.079.532.238.672.159.14.429.21.812.21.364 0 .695-.103.994-.308v1.12a1.735 1.735 0 0 1-.588.21 3.228 3.228 0 0 1-.728.084c-.467 0-.845-.089-1.134-.266a1.588 1.588 0 0 1-.63-.686 2.057 2.057 0 0 1-.196-.882v-4.522h-.868Zm8.798 6.356c-1.213 0-2.142-.331-2.786-.994-.634-.672-.952-1.601-.952-2.786 0-.793.15-1.47.448-2.03.299-.56.71-.989 1.232-1.288a3.49 3.49 0 0 1 1.764-.448c1.111 0 1.928.369 2.45 1.106.523.728.691 1.727.504 2.996h-5.124c.103 1.559.962 2.338 2.576 2.338.887 0 1.704-.252 2.45-.756v1.106a4.3 4.3 0 0 1-1.176.56c-.448.131-.91.196-1.386.196Zm-.322-6.454c-.532 0-.989.163-1.372.49-.382.327-.625.821-.728 1.484h3.906c.028-.625-.116-1.111-.434-1.456-.317-.345-.774-.518-1.372-.518Zm6.85 6.454a5.169 5.169 0 0 1-1.526-.224c-.476-.159-.863-.369-1.162-.63v-1.106c.289.28.677.504 1.162.672.495.168.999.252 1.512.252 1.139 0 1.708-.369 1.708-1.106 0-.215-.051-.387-.154-.518-.093-.14-.271-.257-.532-.35-.261-.103-.639-.201-1.134-.294-.943-.187-1.601-.439-1.974-.756-.373-.327-.56-.789-.56-1.386 0-.663.257-1.176.77-1.54.513-.373 1.223-.56 2.128-.56.429 0 .849.047 1.26.14.42.084.761.201 1.022.35v1.106c-.541-.373-1.288-.56-2.24-.56-.588 0-1.022.084-1.302.252-.271.168-.406.429-.406.784 0 .187.042.341.126.462.084.121.252.229.504.322s.63.191 1.134.294c.644.131 1.153.289 1.526.476.383.177.653.406.812.686.168.28.252.635.252 1.064 0 .681-.257 1.213-.77 1.596s-1.232.574-2.156.574Zm-63.666 52.822h3.206c1.139 0 2.021.238 2.646.714.635.467.952 1.199.952 2.198 0 .756-.158 1.372-.476 1.848a2.697 2.697 0 0 1-1.302 1.05c-.55.215-1.194.322-1.932.322h-1.778V194h-1.316v-10.038Zm3.094 4.942c.71 0 1.284-.154 1.722-.462.439-.308.658-.826.658-1.554 0-.607-.196-1.045-.588-1.316-.392-.271-.952-.406-1.68-.406h-1.89v3.738h1.778Zm7.91 5.236c-.663 0-1.26-.145-1.792-.434a3.248 3.248 0 0 1-1.246-1.288c-.308-.569-.462-1.255-.462-2.058 0-.803.154-1.484.462-2.044.308-.56.723-.985 1.246-1.274a3.592 3.592 0 0 1 1.792-.448c.672 0 1.274.149 1.806.448.532.289.952.714 1.26 1.274.308.56.462 1.241.462 2.044 0 .803-.154 1.489-.462 2.058-.308.56-.728.989-1.26 1.288-.532.289-1.134.434-1.806.434Zm0-1.106c.653 0 1.195-.215 1.624-.644.429-.439.644-1.115.644-2.03 0-.915-.215-1.587-.644-2.016-.429-.439-.971-.658-1.624-.658-.644 0-1.181.219-1.61.658-.42.429-.63 1.101-.63 2.016s.21 1.591.63 2.03c.429.429.966.644 1.61.644Zm4.512-2.674c0-.849.149-1.549.448-2.1.298-.56.695-.975 1.19-1.246.504-.28 1.05-.42 1.638-.42.55 0 1.026.117 1.428.35.401.224.723.546.966.966v-3.948h1.232V194h-1.078l-.098-1.428a2.873 2.873 0 0 1-.952 1.148c-.402.28-.906.42-1.512.42-.579 0-1.12-.135-1.624-.406-.495-.28-.892-.7-1.19-1.26-.299-.56-.448-1.265-.448-2.114Zm5.684 0c0-.905-.215-1.577-.644-2.016-.43-.439-.962-.658-1.596-.658-.635 0-1.158.229-1.568.686-.411.448-.616 1.111-.616 1.988 0 .887.205 1.554.616 2.002.41.448.933.672 1.568.672.634 0 1.166-.219 1.596-.658.429-.439.644-1.111.644-2.016Zm5.552 3.78a5.169 5.169 0 0 1-1.526-.224c-.476-.159-.863-.369-1.162-.63v-1.106c.289.28.677.504 1.162.672.495.168.999.252 1.512.252 1.139 0 1.708-.369 1.708-1.106 0-.215-.051-.387-.154-.518-.093-.14-.271-.257-.532-.35-.261-.103-.639-.201-1.134-.294-.943-.187-1.601-.439-1.974-.756-.373-.327-.56-.789-.56-1.386 0-.663.257-1.176.77-1.54.513-.373 1.223-.56 2.128-.56.429 0 .849.047 1.26.14.42.084.761.201 1.022.35v1.106c-.541-.373-1.288-.56-2.24-.56-.588 0-1.022.084-1.302.252-.271.168-.406.429-.406.784 0 .187.042.341.126.462.084.121.252.229.504.322s.63.191 1.134.294c.644.131 1.153.289 1.526.476.383.177.653.406.812.686.168.28.252.635.252 1.064 0 .681-.257 1.213-.77 1.596s-1.232.574-2.156.574Zm16.808-7.406L737.859 194h-1.89l-1.54-5.614-1.582 5.614h-1.834l-1.652-7.266h1.302l1.386 6.342 1.764-6.342h1.386l1.722 6.272 1.372-6.272h1.218Zm2.061-1.064c-.252 0-.453-.075-.602-.224a.805.805 0 0 1-.224-.574c0-.224.074-.415.224-.574.149-.159.35-.238.602-.238.242 0 .434.079.574.238.14.159.21.35.21.574 0 .224-.07.415-.21.574-.14.149-.332.224-.574.224Zm-.63 1.064h1.232V194h-1.232v-7.266Zm2.652 1.05v-1.05h.868v-1.526h1.232v1.526h2.114v1.05h-2.114v4.368c0 .308.079.532.238.672.158.14.429.21.812.21.364 0 .695-.103.994-.308v1.12c-.15.093-.346.163-.588.21a3.235 3.235 0 0 1-.728.084c-.467 0-.845-.089-1.134-.266-.29-.177-.5-.406-.63-.686a2.057 2.057 0 0 1-.196-.882v-4.522h-.868Zm9.227-.098c-.56 0-1.017.131-1.372.392a2.874 2.874 0 0 0-.84.98V194h-1.232v-10.038h1.232v2.772l-.028 1.302h.028a2.48 2.48 0 0 1 .924-1.022c.42-.28.952-.42 1.596-.42.719 0 1.288.191 1.708.574.429.383.644.961.644 1.736V194h-1.232v-4.97c0-.495-.131-.84-.392-1.036-.252-.205-.597-.308-1.036-.308Zm-79.996 13.276h1.316V211h-1.316v-10.038Zm6.927 3.724c-.56 0-1.018.131-1.372.392a2.853 2.853 0 0 0-.84.98V211h-1.232v-7.266h1.162l.042 1.302h.028a2.48 2.48 0 0 1 .924-1.022c.42-.28.952-.42 1.596-.42.718 0 1.288.191 1.708.574.429.383.644.961.644 1.736V211h-1.232v-4.97c0-.495-.131-.84-.392-1.036-.252-.205-.598-.308-1.036-.308Zm4.693 8.218v-1.106c.392.215.784.369 1.176.462.392.093.84.14 1.344.14.896 0 1.521-.173 1.876-.518.354-.336.532-.831.532-1.484v-1.12a2.645 2.645 0 0 1-.91 1.036c-.383.261-.859.392-1.428.392-.57 0-1.102-.131-1.596-.392a3.058 3.058 0 0 1-1.176-1.19c-.29-.523-.434-1.176-.434-1.96 0-.793.144-1.451.434-1.974.298-.532.69-.929 1.176-1.19a3.322 3.322 0 0 1 1.624-.406c.578 0 1.064.131 1.456.392.401.261.714.616.938 1.064l.014-.154c0-.168.009-.369.028-.602.018-.243.037-.429.056-.56h1.12a7.301 7.301 0 0 0-.07 1.162v5.488c0 .625-.126 1.171-.378 1.638-.243.467-.63.831-1.162 1.092-.532.261-1.237.392-2.114.392-1.064 0-1.9-.201-2.506-.602Zm4.942-5.74c0-.831-.206-1.451-.616-1.862-.402-.411-.91-.616-1.526-.616s-1.134.205-1.554.616c-.411.411-.616 1.031-.616 1.862 0 .812.205 1.423.616 1.834.42.401.942.602 1.568.602.606 0 1.11-.201 1.512-.602.41-.401.616-1.013.616-1.834Zm6.816-2.198c-.579.047-1.074.191-1.484.434a2.174 2.174 0 0 0-.882.98V211h-1.232v-7.266h1.078l.126 1.582h.028c.233-.485.55-.877.952-1.176.41-.299.882-.481 1.414-.546v1.372Zm4.366 6.174c-1.214 0-2.142-.331-2.786-.994-.635-.672-.952-1.601-.952-2.786 0-.793.149-1.47.448-2.03a3.15 3.15 0 0 1 1.232-1.288 3.485 3.485 0 0 1 1.764-.448c1.11 0 1.927.369 2.45 1.106.522.728.69 1.727.504 2.996h-5.124c.102 1.559.961 2.338 2.576 2.338.886 0 1.703-.252 2.45-.756v1.106a4.3 4.3 0 0 1-1.176.56c-.448.131-.91.196-1.386.196Zm-.322-6.454c-.532 0-.99.163-1.372.49-.383.327-.626.821-.728 1.484h3.906c.028-.625-.117-1.111-.434-1.456-.318-.345-.775-.518-1.372-.518Zm6.85 6.454a5.169 5.169 0 0 1-1.526-.224c-.476-.159-.864-.369-1.162-.63v-1.106c.289.28.676.504 1.162.672.494.168.998.252 1.512.252 1.138 0 1.708-.369 1.708-1.106 0-.215-.052-.387-.154-.518-.094-.14-.271-.257-.532-.35-.262-.103-.64-.201-1.134-.294-.943-.187-1.601-.439-1.974-.756-.374-.327-.56-.789-.56-1.386 0-.663.256-1.176.77-1.54.513-.373 1.222-.56 2.128-.56.429 0 .849.047 1.26.14.42.084.76.201 1.022.35v1.106c-.542-.373-1.288-.56-2.24-.56-.588 0-1.022.084-1.302.252-.271.168-.406.429-.406.784 0 .187.042.341.126.462.084.121.252.229.504.322s.63.191 1.134.294c.644.131 1.152.289 1.526.476.382.177.653.406.812.686.168.28.252.635.252 1.064 0 .681-.257 1.213-.77 1.596-.514.383-1.232.574-2.156.574Zm6.767 0c-.532 0-1.04-.075-1.526-.224-.476-.159-.863-.369-1.162-.63v-1.106c.29.28.677.504 1.162.672.495.168.999.252 1.512.252 1.139 0 1.708-.369 1.708-1.106 0-.215-.051-.387-.154-.518-.093-.14-.27-.257-.532-.35-.261-.103-.639-.201-1.134-.294-.942-.187-1.6-.439-1.974-.756-.373-.327-.56-.789-.56-1.386 0-.663.257-1.176.77-1.54.514-.373 1.223-.56 2.128-.56.43 0 .85.047 1.26.14.42.084.761.201 1.022.35v1.106c-.541-.373-1.288-.56-2.24-.56-.588 0-1.022.084-1.302.252-.27.168-.406.429-.406.784 0 .187.042.341.126.462.084.121.252.229.504.322s.63.191 1.134.294c.644.131 1.153.289 1.526.476.383.177.654.406.812.686.168.28.252.635.252 1.064 0 .681-.256 1.213-.77 1.596-.513.383-1.232.574-2.156.574Zm4.276-3.85v-1.12h3.36v1.12h-3.36Zm8.485 3.85c-1.129 0-2.02-.331-2.674-.994-.653-.672-.98-1.601-.98-2.786s.332-2.109.994-2.772c.663-.663 1.568-.994 2.716-.994.439 0 .85.051 1.232.154.383.093.691.233.924.42v1.106c-.634-.392-1.348-.588-2.142-.588-.84 0-1.46.224-1.862.672-.401.439-.602 1.106-.602 2.002 0 .896.192 1.568.574 2.016.392.439.999.658 1.82.658.794 0 1.531-.191 2.212-.574v1.106c-.606.383-1.344.574-2.212.574Zm6.696 0c-.663 0-1.26-.145-1.792-.434a3.248 3.248 0 0 1-1.246-1.288c-.308-.569-.462-1.255-.462-2.058 0-.803.154-1.484.462-2.044.308-.56.723-.985 1.246-1.274a3.592 3.592 0 0 1 1.792-.448c.672 0 1.274.149 1.806.448.532.289.952.714 1.26 1.274.308.56.462 1.241.462 2.044 0 .803-.154 1.489-.462 2.058-.308.56-.728.989-1.26 1.288-.532.289-1.134.434-1.806.434Zm0-1.106c.653 0 1.195-.215 1.624-.644.429-.439.644-1.115.644-2.03 0-.915-.215-1.587-.644-2.016-.429-.439-.971-.658-1.624-.658-.644 0-1.181.219-1.61.658-.42.429-.63 1.101-.63 2.016s.21 1.591.63 2.03c.429.429.966.644 1.61.644Zm8.474-5.348c-.56 0-1.018.131-1.372.392a2.853 2.853 0 0 0-.84.98V211h-1.232v-7.266h1.162l.042 1.302h.028a2.48 2.48 0 0 1 .924-1.022c.42-.28.952-.42 1.596-.42.718 0 1.288.191 1.708.574.429.383.644.961.644 1.736V211h-1.232v-4.97c0-.495-.131-.84-.392-1.036-.252-.205-.598-.308-1.036-.308Zm4.021.098v-1.05h.868v-1.526h1.232v1.526h2.114v1.05h-2.114v4.368c0 .308.079.532.238.672.158.14.429.21.812.21.364 0 .695-.103.994-.308v1.12c-.15.093-.346.163-.588.21a3.235 3.235 0 0 1-.728.084c-.467 0-.845-.089-1.134-.266-.29-.177-.5-.406-.63-.686a2.057 2.057 0 0 1-.196-.882v-4.522h-.868Zm9.381.182c-.579.047-1.074.191-1.484.434a2.174 2.174 0 0 0-.882.98V211h-1.232v-7.266h1.078l.126 1.582h.028c.233-.485.55-.877.952-1.176.41-.299.882-.481 1.414-.546v1.372Zm4.128 6.174c-.663 0-1.26-.145-1.792-.434a3.248 3.248 0 0 1-1.246-1.288c-.308-.569-.462-1.255-.462-2.058 0-.803.154-1.484.462-2.044.308-.56.723-.985 1.246-1.274a3.592 3.592 0 0 1 1.792-.448c.672 0 1.274.149 1.806.448.532.289.952.714 1.26 1.274.308.56.462 1.241.462 2.044 0 .803-.154 1.489-.462 2.058-.308.56-.728.989-1.26 1.288-.532.289-1.134.434-1.806.434Zm0-1.106c.653 0 1.195-.215 1.624-.644.429-.439.644-1.115.644-2.03 0-.915-.215-1.587-.644-2.016-.429-.439-.971-.658-1.624-.658-.644 0-1.181.219-1.61.658-.42.429-.63 1.101-.63 2.016s.21 1.591.63 2.03c.429.429.966.644 1.61.644Zm5.03-9.072h1.232V211h-1.232v-10.038Zm3.24 0h1.232V211h-1.232v-10.038Zm6.46 10.178c-1.213 0-2.142-.331-2.786-.994-.635-.672-.952-1.601-.952-2.786 0-.793.149-1.47.448-2.03.299-.56.709-.989 1.232-1.288a3.49 3.49 0 0 1 1.764-.448c1.111 0 1.927.369 2.45 1.106.523.728.691 1.727.504 2.996h-5.124c.103 1.559.961 2.338 2.576 2.338.887 0 1.703-.252 2.45-.756v1.106a4.3 4.3 0 0 1-1.176.56c-.448.131-.91.196-1.386.196Zm-.322-6.454c-.532 0-.989.163-1.372.49-.383.327-.625.821-.728 1.484h3.906c.028-.625-.117-1.111-.434-1.456s-.775-.518-1.372-.518Zm8.124.28c-.579.047-1.073.191-1.484.434a2.185 2.185 0 0 0-.882.98V211h-1.232v-7.266h1.078l.126 1.582h.028c.233-.485.551-.877.952-1.176a2.973 2.973 0 0 1 1.414-.546v1.372Zm-75.577 12.996h1.778l5.04 8.428v-8.428h1.26V228h-1.792l-5.04-8.414V228h-1.246v-10.038Zm14.618 8.988c.7 0 1.265-.117 1.694-.35.43-.233.742-.551.938-.952.196-.411.294-.877.294-1.4v-.28h-3.234v-1.19h4.592v1.288c0 .775-.154 1.47-.462 2.086a3.375 3.375 0 0 1-1.414 1.456c-.634.355-1.437.532-2.408.532-.942 0-1.778-.215-2.506-.644a4.455 4.455 0 0 1-1.68-1.792c-.401-.775-.602-1.68-.602-2.716 0-1.036.196-1.937.588-2.702a4.207 4.207 0 0 1 1.736-1.806c.775-.429 1.722-.644 2.842-.644 1.298 0 2.376.289 3.234.868v1.26a6.83 6.83 0 0 0-1.61-.714 5.949 5.949 0 0 0-1.666-.224c-1.269 0-2.202.35-2.8 1.05-.597.691-.896 1.661-.896 2.912 0 1.241.299 2.212.896 2.912.598.7 1.419 1.05 2.464 1.05Zm6.15-8.988h1.316V228h-1.316v-10.038Zm3.65 0h1.778l5.04 8.428v-8.428h1.26V228h-1.792l-5.04-8.414V228h-1.246v-10.038Zm9.788 0h1.582l2.548 3.836 2.52-3.836h1.4l-3.248 4.746L748.83 228h-1.568l-2.898-4.326L741.41 228h-1.4l3.668-5.278-3.192-4.76Z"/>
    <rect width="32" height="32" x="674" y="140" fill="#5282FF" rx="16"/>
    <path stroke="#fff" stroke-linejoin="round" d="M695.827 152.396 689.912 149 684 152.396v7.25l5.914 3.402 5.913-3.402v-7.25Z"/>
    <path fill="#fff" d="M694.034 153.431h-.011l-4.111-2.361-4.11 2.359 4.112 2.372 4.12-2.37Z"/>
    <rect width="32" height="32" x="711" y="140" fill="#5282FF" rx="16"/>
    <path stroke="#fff" stroke-linejoin="round" d="M732.827 152.396 726.912 149 721 152.396v7.25l5.914 3.402 5.913-3.402v-7.25Z"/>
    <path fill="#fff" d="M731.034 153.431h-.011l-4.111-2.361-4.11 2.359 4.112 2.372 4.12-2.37Z"/>
    <rect width="32" height="32" x="748" y="140" fill="#5282FF" rx="16"/>
    <path stroke="#fff" stroke-linejoin="round" d="M769.827 152.396 763.912 149 758 152.396v7.25l5.914 3.402 5.913-3.402v-7.25Z"/>
    <path fill="#fff" d="M768.034 153.431h-.011l-4.111-2.361-4.11 2.359 4.111 2.372 4.121-2.37Z"/>
    <rect width="32" height="32" x="711" y="47" fill="#5282FF" rx="16"/>
    <path fill="#fff" d="M723.44 70.6 719 65.031l1.583-6.944L727 55l6.417 3.09L735 65.032l-4.44 5.566h-7.12Zm7.116-9.606-3.557-2.042-3.555 2.042v4.36L727 67.4l3.556-2.046v-4.36Zm-1.085.623h.007L727 63.042l-2.477-1.426h.005l2.471-1.419 2.472 1.42Z"/>
</svg>
