<svg xmlns="http://www.w3.org/2000/svg" width="540" height="400" fill="none" viewBox="0 0 540 400">
    <rect width="148" height="42" x="105" y="179" fill="#fff" stroke="#67B0F8" stroke-width="2" rx="4"/>
    <path fill="#18123D" d="M146.898 190.575c-.775 0-1.559.238-2.352.714v-1.106a4.412 4.412 0 0 1 1.19-.504c.457-.131.9-.196 1.33-.196.914 0 1.61.191 2.086.574.476.383.714.966.714 1.75v3.906c0 .159.004.364.014.616.018.243.037.429.056.56h-1.12a6.439 6.439 0 0 1-.084-.546 8.21 8.21 0 0 1-.028-.63l-.014-.21a3.93 3.93 0 0 1-.462.7 2.354 2.354 0 0 1-.784.588c-.318.159-.714.238-1.19.238-.654 0-1.181-.187-1.582-.56-.402-.373-.602-.901-.602-1.582 0-.793.28-1.377.84-1.75.56-.373 1.348-.56 2.366-.56h1.358v-.602c0-.504-.131-.863-.392-1.078-.262-.215-.71-.322-1.344-.322Zm1.736 3.514v-.532h-1.232c-.738 0-1.274.107-1.61.322-.327.215-.49.527-.49.938 0 .327.098.593.294.798.205.205.513.308.924.308.382 0 .709-.075.98-.224.27-.159.49-.345.658-.56.168-.224.289-.434.364-.63.074-.196.112-.336.112-.42Zm7.831 1.498a2.633 2.633 0 0 1-.91 1.022c-.401.28-.929.42-1.582.42-.672 0-1.218-.191-1.638-.574-.411-.383-.616-.966-.616-1.75v-5.082h1.246v5.082c0 .476.131.798.392.966.261.168.583.252.966.252.541 0 .975-.121 1.302-.364.327-.243.607-.574.84-.994v-4.942h1.232v7.266h-1.092l-.112-1.302h-.028Zm2.736-2.338c0-.849.149-1.549.448-2.1.299-.56.695-.975 1.19-1.246.504-.28 1.05-.42 1.638-.42.551 0 1.027.117 1.428.35.401.224.723.546.966.966v-3.948h1.232v10.038h-1.078l-.098-1.428a2.865 2.865 0 0 1-.952 1.148c-.401.28-.905.42-1.512.42-.579 0-1.12-.135-1.624-.406-.495-.28-.891-.7-1.19-1.26-.299-.56-.448-1.265-.448-2.114Zm5.684 0c0-.905-.215-1.577-.644-2.016-.429-.439-.961-.658-1.596-.658-.635 0-1.157.229-1.568.686-.411.448-.616 1.111-.616 1.988 0 .887.205 1.554.616 2.002.411.448.933.672 1.568.672s1.167-.219 1.596-.658c.429-.439.644-1.111.644-2.016Zm3.858-4.69c-.252 0-.452-.075-.602-.224a.81.81 0 0 1-.224-.574.81.81 0 0 1 .224-.574c.15-.159.35-.238.602-.238.243 0 .434.079.574.238.14.159.21.35.21.574 0 .224-.07.415-.21.574-.14.149-.331.224-.574.224Zm-.63 1.064h1.232v7.266h-1.232v-7.266Zm2.653 1.05v-1.05h.868v-1.526h1.232v1.526h2.114v1.05h-2.114v4.368c0 .308.079.532.238.672.158.14.429.21.812.21.364 0 .695-.103.994-.308v1.12c-.15.093-.346.163-.588.21a3.235 3.235 0 0 1-.728.084c-.467 0-.845-.089-1.134-.266-.29-.177-.5-.406-.63-.686a2.057 2.057 0 0 1-.196-.882v-4.522h-.868Zm5.478 2.506v-1.12h3.36v1.12h-3.36Zm4.625-2.506v-1.05h.868v-1.526h1.232v1.526h2.114v1.05h-2.114v4.368c0 .308.08.532.238.672.159.14.43.21.812.21.364 0 .696-.103.994-.308v1.12a1.735 1.735 0 0 1-.588.21 3.222 3.222 0 0 1-.728.084c-.466 0-.844-.089-1.134-.266a1.588 1.588 0 0 1-.63-.686 2.071 2.071 0 0 1-.196-.882v-4.522h-.868Zm9.381.182c-.578.047-1.073.191-1.484.434a2.185 2.185 0 0 0-.882.98v4.62h-1.232v-7.266h1.078l.126 1.582h.028c.234-.485.551-.877.952-1.176a2.973 2.973 0 0 1 1.414-.546v1.372Zm3.829-.28c-.774 0-1.558.238-2.352.714v-1.106a4.425 4.425 0 0 1 1.19-.504 4.825 4.825 0 0 1 1.33-.196c.915 0 1.61.191 2.086.574.476.383.714.966.714 1.75v3.906c0 .159.005.364.014.616.019.243.038.429.056.56h-1.12a6.439 6.439 0 0 1-.084-.546 8.754 8.754 0 0 1-.028-.63l-.014-.21a3.93 3.93 0 0 1-.462.7 2.344 2.344 0 0 1-.784.588c-.317.159-.714.238-1.19.238-.653 0-1.18-.187-1.582-.56-.401-.373-.602-.901-.602-1.582 0-.793.28-1.377.84-1.75.56-.373 1.349-.56 2.366-.56h1.358v-.602c0-.504-.13-.863-.392-1.078-.261-.215-.709-.322-1.344-.322Zm1.736 3.514v-.532h-1.232c-.737 0-1.274.107-1.61.322-.326.215-.49.527-.49.938 0 .327.098.593.294.798.206.205.514.308.924.308.383 0 .71-.075.98-.224.271-.159.49-.345.658-.56.168-.224.29-.434.364-.63.075-.196.112-.336.112-.42Zm3.8-5.53c-.252 0-.453-.075-.602-.224a.805.805 0 0 1-.224-.574c0-.224.074-.415.224-.574.149-.159.35-.238.602-.238.242 0 .434.079.574.238.14.159.21.35.21.574 0 .224-.07.415-.21.574-.14.149-.332.224-.574.224Zm-.63 1.064h1.232v7.266h-1.232v-7.266Zm3.24-2.772h1.232v10.038h-1.232v-10.038Zm5.564 10.178a5.169 5.169 0 0 1-1.526-.224c-.476-.159-.863-.369-1.162-.63v-1.106c.289.28.677.504 1.162.672.495.168.999.252 1.512.252 1.139 0 1.708-.369 1.708-1.106 0-.215-.051-.387-.154-.518-.093-.14-.271-.257-.532-.35-.261-.103-.639-.201-1.134-.294-.943-.187-1.601-.439-1.974-.756-.373-.327-.56-.789-.56-1.386 0-.663.257-1.176.77-1.54.513-.373 1.223-.56 2.128-.56.429 0 .849.047 1.26.14.42.084.761.201 1.022.35v1.106c-.541-.373-1.288-.56-2.24-.56-.588 0-1.022.084-1.302.252-.271.168-.406.429-.406.784 0 .187.042.341.126.462.084.121.252.229.504.322s.63.191 1.134.294c.644.131 1.153.289 1.526.476.383.177.653.406.812.686.168.28.252.635.252 1.064 0 .681-.257 1.213-.77 1.596s-1.232.574-2.156.574Zm5.116-.056a.918.918 0 0 1-.658-.252.884.884 0 0 1-.252-.63c0-.261.084-.476.252-.644a.918.918 0 0 1 .658-.252c.261 0 .476.084.644.252a.873.873 0 0 1 .252.644.884.884 0 0 1-.252.63.873.873 0 0 1-.644.252Zm-48.257 16.056c-1.213 0-2.142-.331-2.786-.994-.635-.672-.952-1.601-.952-2.786 0-.793.149-1.47.448-2.03.299-.56.709-.989 1.232-1.288a3.49 3.49 0 0 1 1.764-.448c1.111 0 1.927.369 2.45 1.106.523.728.691 1.727.504 2.996h-5.124c.103 1.559.961 2.338 2.576 2.338.887 0 1.703-.252 2.45-.756v1.106a4.3 4.3 0 0 1-1.176.56c-.448.131-.91.196-1.386.196Zm-.322-6.454c-.532 0-.989.163-1.372.49-.383.327-.625.821-.728 1.484h3.906c.028-.625-.117-1.111-.434-1.456s-.775-.518-1.372-.518Zm4.008 2.674c0-.849.149-1.549.448-2.1.298-.56.695-.975 1.19-1.246.504-.28 1.05-.42 1.638-.42.55 0 1.026.117 1.428.35.401.224.723.546.966.966v-3.948h1.232v10.038h-1.078l-.098-1.428a2.873 2.873 0 0 1-.952 1.148c-.402.28-.906.42-1.512.42-.579 0-1.12-.135-1.624-.406-.495-.28-.892-.7-1.19-1.26-.299-.56-.448-1.265-.448-2.114Zm5.684 0c0-.905-.215-1.577-.644-2.016-.43-.439-.962-.658-1.596-.658-.635 0-1.158.229-1.568.686-.411.448-.616 1.111-.616 1.988 0 .887.205 1.554.616 2.002.41.448.933.672 1.568.672.634 0 1.166-.219 1.596-.658.429-.439.644-1.111.644-2.016Zm3.858-4.69c-.252 0-.452-.075-.602-.224a.81.81 0 0 1-.224-.574.81.81 0 0 1 .224-.574c.15-.159.35-.238.602-.238.243 0 .434.079.574.238.14.159.21.35.21.574 0 .224-.07.415-.21.574-.14.149-.331.224-.574.224Zm-.63 1.064h1.232v7.266h-1.232v-7.266Zm2.652 1.05v-1.05h.868v-1.526h1.232v1.526h2.114v1.05h-2.114v4.368c0 .308.08.532.238.672.159.14.43.21.812.21.364 0 .696-.103.994-.308v1.12a1.735 1.735 0 0 1-.588.21 3.222 3.222 0 0 1-.728.084c-.466 0-.844-.089-1.134-.266a1.588 1.588 0 0 1-.63-.686 2.071 2.071 0 0 1-.196-.882v-4.522h-.868Zm8.561 6.356c-.663 0-1.26-.145-1.792-.434a3.248 3.248 0 0 1-1.246-1.288c-.308-.569-.462-1.255-.462-2.058 0-.803.154-1.484.462-2.044.308-.56.723-.985 1.246-1.274a3.592 3.592 0 0 1 1.792-.448c.672 0 1.274.149 1.806.448.532.289.952.714 1.26 1.274.308.56.462 1.241.462 2.044 0 .803-.154 1.489-.462 2.058-.308.56-.728.989-1.26 1.288-.532.289-1.134.434-1.806.434Zm0-1.106c.653 0 1.194-.215 1.624-.644.429-.439.644-1.115.644-2.03 0-.915-.215-1.587-.644-2.016-.43-.439-.971-.658-1.624-.658-.644 0-1.181.219-1.61.658-.42.429-.63 1.101-.63 2.016s.21 1.591.63 2.03c.429.429.966.644 1.61.644Zm8.627-5.068c-.578.047-1.073.191-1.484.434a2.185 2.185 0 0 0-.882.98v4.62h-1.232v-7.266h1.078l.126 1.582h.028c.234-.485.551-.877.952-1.176a2.973 2.973 0 0 1 1.414-.546v1.372Z"/>
    <rect width="148" height="42" x="105" y="95" fill="#fff" stroke="#67B0F8" stroke-width="2" rx="4"/>
    <path fill="#18123D" d="M146.898 106.575c-.775 0-1.559.238-2.352.714v-1.106a4.412 4.412 0 0 1 1.19-.504c.457-.131.9-.196 1.33-.196.914 0 1.61.191 2.086.574.476.383.714.966.714 1.75v3.906c0 .159.004.364.014.616.018.243.037.429.056.56h-1.12a6.439 6.439 0 0 1-.084-.546 8.21 8.21 0 0 1-.028-.63l-.014-.21a3.93 3.93 0 0 1-.462.7 2.354 2.354 0 0 1-.784.588c-.318.159-.714.238-1.19.238-.654 0-1.181-.187-1.582-.56-.402-.373-.602-.901-.602-1.582 0-.793.28-1.377.84-1.75.56-.373 1.348-.56 2.366-.56h1.358v-.602c0-.504-.131-.863-.392-1.078-.262-.215-.71-.322-1.344-.322Zm1.736 3.514v-.532h-1.232c-.738 0-1.274.107-1.61.322-.327.215-.49.527-.49.938 0 .327.098.593.294.798.205.205.513.308.924.308.382 0 .709-.075.98-.224.27-.159.49-.345.658-.56.168-.224.289-.434.364-.63.074-.196.112-.336.112-.42Zm7.831 1.498a2.633 2.633 0 0 1-.91 1.022c-.401.28-.929.42-1.582.42-.672 0-1.218-.191-1.638-.574-.411-.383-.616-.966-.616-1.75v-5.082h1.246v5.082c0 .476.131.798.392.966.261.168.583.252.966.252.541 0 .975-.121 1.302-.364.327-.243.607-.574.84-.994v-4.942h1.232v7.266h-1.092l-.112-1.302h-.028Zm2.736-2.338c0-.849.149-1.549.448-2.1.299-.56.695-.975 1.19-1.246.504-.28 1.05-.42 1.638-.42.551 0 1.027.117 1.428.35.401.224.723.546.966.966v-3.948h1.232v10.038h-1.078l-.098-1.428a2.865 2.865 0 0 1-.952 1.148c-.401.28-.905.42-1.512.42-.579 0-1.12-.135-1.624-.406-.495-.28-.891-.7-1.19-1.26-.299-.56-.448-1.265-.448-2.114Zm5.684 0c0-.905-.215-1.577-.644-2.016-.429-.439-.961-.658-1.596-.658-.635 0-1.157.229-1.568.686-.411.448-.616 1.111-.616 1.988 0 .887.205 1.554.616 2.002.411.448.933.672 1.568.672s1.167-.219 1.596-.658c.429-.439.644-1.111.644-2.016Zm3.858-4.69c-.252 0-.452-.075-.602-.224a.81.81 0 0 1-.224-.574.81.81 0 0 1 .224-.574c.15-.159.35-.238.602-.238.243 0 .434.079.574.238.14.159.21.35.21.574 0 .224-.07.415-.21.574-.14.149-.331.224-.574.224Zm-.63 1.064h1.232v7.266h-1.232v-7.266Zm2.653 1.05v-1.05h.868v-1.526h1.232v1.526h2.114v1.05h-2.114v4.368c0 .308.079.532.238.672.158.14.429.21.812.21.364 0 .695-.103.994-.308v1.12c-.15.093-.346.163-.588.21a3.235 3.235 0 0 1-.728.084c-.467 0-.845-.089-1.134-.266-.29-.177-.5-.406-.63-.686a2.057 2.057 0 0 1-.196-.882v-4.522h-.868Zm5.478 2.506v-1.12h3.36v1.12h-3.36Zm4.625-2.506v-1.05h.868v-1.526h1.232v1.526h2.114v1.05h-2.114v4.368c0 .308.08.532.238.672.159.14.43.21.812.21.364 0 .696-.103.994-.308v1.12a1.735 1.735 0 0 1-.588.21 3.222 3.222 0 0 1-.728.084c-.466 0-.844-.089-1.134-.266a1.588 1.588 0 0 1-.63-.686 2.071 2.071 0 0 1-.196-.882v-4.522h-.868Zm9.381.182c-.578.047-1.073.191-1.484.434a2.185 2.185 0 0 0-.882.98v4.62h-1.232v-7.266h1.078l.126 1.582h.028c.234-.485.551-.877.952-1.176a2.973 2.973 0 0 1 1.414-.546v1.372Zm3.829-.28c-.774 0-1.558.238-2.352.714v-1.106a4.425 4.425 0 0 1 1.19-.504 4.825 4.825 0 0 1 1.33-.196c.915 0 1.61.191 2.086.574.476.383.714.966.714 1.75v3.906c0 .159.005.364.014.616.019.243.038.429.056.56h-1.12a6.439 6.439 0 0 1-.084-.546 8.754 8.754 0 0 1-.028-.63l-.014-.21a3.93 3.93 0 0 1-.462.7 2.344 2.344 0 0 1-.784.588c-.317.159-.714.238-1.19.238-.653 0-1.18-.187-1.582-.56-.401-.373-.602-.901-.602-1.582 0-.793.28-1.377.84-1.75.56-.373 1.349-.56 2.366-.56h1.358v-.602c0-.504-.13-.863-.392-1.078-.261-.215-.709-.322-1.344-.322Zm1.736 3.514v-.532h-1.232c-.737 0-1.274.107-1.61.322-.326.215-.49.527-.49.938 0 .327.098.593.294.798.206.205.514.308.924.308.383 0 .71-.075.98-.224.271-.159.49-.345.658-.56.168-.224.29-.434.364-.63.075-.196.112-.336.112-.42Zm3.8-5.53c-.252 0-.453-.075-.602-.224a.805.805 0 0 1-.224-.574c0-.224.074-.415.224-.574.149-.159.35-.238.602-.238.242 0 .434.079.574.238.14.159.21.35.21.574 0 .224-.07.415-.21.574-.14.149-.332.224-.574.224Zm-.63 1.064h1.232v7.266h-1.232v-7.266Zm3.24-2.772h1.232v10.038h-1.232v-10.038Zm5.564 10.178a5.169 5.169 0 0 1-1.526-.224c-.476-.159-.863-.369-1.162-.63v-1.106c.289.28.677.504 1.162.672.495.168.999.252 1.512.252 1.139 0 1.708-.369 1.708-1.106 0-.215-.051-.387-.154-.518-.093-.14-.271-.257-.532-.35-.261-.103-.639-.201-1.134-.294-.943-.187-1.601-.439-1.974-.756-.373-.327-.56-.789-.56-1.386 0-.663.257-1.176.77-1.54.513-.373 1.223-.56 2.128-.56.429 0 .849.047 1.26.14.42.084.761.201 1.022.35v1.106c-.541-.373-1.288-.56-2.24-.56-.588 0-1.022.084-1.302.252-.271.168-.406.429-.406.784 0 .187.042.341.126.462.084.121.252.229.504.322s.63.191 1.134.294c.644.131 1.153.289 1.526.476.383.177.653.406.812.686.168.28.252.635.252 1.064 0 .681-.257 1.213-.77 1.596s-1.232.574-2.156.574Zm5.116-.056a.918.918 0 0 1-.658-.252.884.884 0 0 1-.252-.63c0-.261.084-.476.252-.644a.918.918 0 0 1 .658-.252c.261 0 .476.084.644.252a.873.873 0 0 1 .252.644.884.884 0 0 1-.252.63.873.873 0 0 1-.644.252Zm-50.141 9.602c-.775 0-1.559.238-2.352.714v-1.106a4.412 4.412 0 0 1 1.19-.504 4.82 4.82 0 0 1 1.33-.196c.915 0 1.61.191 2.086.574.476.383.714.966.714 1.75v3.906c0 .159.005.364.014.616.019.243.037.429.056.56h-1.12a6.439 6.439 0 0 1-.084-.546 8.21 8.21 0 0 1-.028-.63l-.014-.21a3.93 3.93 0 0 1-.462.7 2.344 2.344 0 0 1-.784.588c-.317.159-.714.238-1.19.238-.653 0-1.181-.187-1.582-.56-.401-.373-.602-.901-.602-1.582 0-.793.28-1.377.84-1.75.56-.373 1.349-.56 2.366-.56h1.358v-.602c0-.504-.131-.863-.392-1.078-.261-.215-.709-.322-1.344-.322Zm1.736 3.514v-.532h-1.232c-.737 0-1.274.107-1.61.322-.327.215-.49.527-.49.938 0 .327.098.593.294.798.205.205.513.308.924.308.383 0 .709-.075.98-.224.271-.159.49-.345.658-.56.168-.224.289-.434.364-.63.075-.196.112-.336.112-.42Zm2.651-.84c0-.849.149-1.549.448-2.1.299-.56.695-.975 1.19-1.246.504-.28 1.05-.42 1.638-.42.551 0 1.027.117 1.428.35.401.224.723.546.966.966v-3.948h1.232v10.038h-1.078l-.098-1.428a2.865 2.865 0 0 1-.952 1.148c-.401.28-.905.42-1.512.42-.579 0-1.12-.135-1.624-.406-.495-.28-.891-.7-1.19-1.26-.299-.56-.448-1.265-.448-2.114Zm5.684 0c0-.905-.215-1.577-.644-2.016-.429-.439-.961-.658-1.596-.658-.635 0-1.157.229-1.568.686-.411.448-.616 1.111-.616 1.988 0 .887.205 1.554.616 2.002.411.448.933.672 1.568.672s1.167-.219 1.596-.658c.429-.439.644-1.111.644-2.016Zm7.821-1.442c0-.467-.117-.789-.35-.966-.234-.177-.551-.266-.952-.266-.523 0-.938.131-1.246.392a3.484 3.484 0 0 0-.812.994v4.928h-1.232v-7.266h1.078l.126 1.302h.028c.196-.411.49-.751.882-1.022.401-.28.914-.42 1.54-.42.55 0 1.008.135 1.372.406.364.261.606.658.728 1.19.205-.495.518-.882.938-1.162.429-.289.947-.434 1.554-.434.662 0 1.19.191 1.582.574.401.383.602.961.602 1.736v5.096h-1.246v-4.942c0-.476-.117-.821-.35-1.036-.234-.224-.551-.336-.952-.336-.532 0-.952.154-1.26.462a4.41 4.41 0 0 0-.798 1.064v4.788h-1.232v-5.082Zm8.397-3.248c-.252 0-.453-.075-.602-.224a.81.81 0 0 1-.224-.574.81.81 0 0 1 .224-.574c.149-.159.35-.238.602-.238.243 0 .434.079.574.238.14.159.21.35.21.574 0 .224-.07.415-.21.574-.14.149-.331.224-.574.224Zm-.63 1.064h1.232v7.266h-1.232v-7.266Zm6.684.952c-.56 0-1.017.131-1.372.392a2.874 2.874 0 0 0-.84.98v4.942h-1.232v-7.266h1.162l.042 1.302h.028a2.48 2.48 0 0 1 .924-1.022c.42-.28.952-.42 1.596-.42.719 0 1.288.191 1.708.574.43.383.644.961.644 1.736v5.096h-1.232v-4.97c0-.495-.13-.84-.392-1.036-.252-.205-.597-.308-1.036-.308Z"/>
    <rect width="148" height="42" x="287" y="95" fill="#fff" stroke="#67B0F8" stroke-width="2" rx="4"/>
    <path fill="#18123D" d="M346.648 121.029c-1.213 0-2.142-.331-2.786-.994-.635-.672-.952-1.601-.952-2.786 0-.793.149-1.47.448-2.03.299-.56.709-.989 1.232-1.288a3.49 3.49 0 0 1 1.764-.448c1.111 0 1.927.369 2.45 1.106.523.728.691 1.727.504 2.996h-5.124c.103 1.559.961 2.338 2.576 2.338.887 0 1.703-.252 2.45-.756v1.106a4.3 4.3 0 0 1-1.176.56c-.448.131-.91.196-1.386.196Zm-.322-6.454c-.532 0-.989.163-1.372.49-.383.327-.625.821-.728 1.484h3.906c.028-.625-.117-1.111-.434-1.456s-.775-.518-1.372-.518Zm4.008 2.674c0-.849.149-1.549.448-2.1.298-.56.695-.975 1.19-1.246.504-.28 1.05-.42 1.638-.42.55 0 1.026.117 1.428.35.401.224.723.546.966.966v-3.948h1.232v10.038h-1.078l-.098-1.428a2.873 2.873 0 0 1-.952 1.148c-.402.28-.906.42-1.512.42-.579 0-1.12-.135-1.624-.406-.495-.28-.892-.7-1.19-1.26-.299-.56-.448-1.265-.448-2.114Zm5.684 0c0-.905-.215-1.577-.644-2.016-.43-.439-.962-.658-1.596-.658-.635 0-1.158.229-1.568.686-.411.448-.616 1.111-.616 1.988 0 .887.205 1.554.616 2.002.41.448.933.672 1.568.672.634 0 1.166-.219 1.596-.658.429-.439.644-1.111.644-2.016Zm3.858-4.69c-.252 0-.452-.075-.602-.224a.81.81 0 0 1-.224-.574.81.81 0 0 1 .224-.574c.15-.159.35-.238.602-.238.243 0 .434.079.574.238.14.159.21.35.21.574 0 .224-.07.415-.21.574-.14.149-.331.224-.574.224Zm-.63 1.064h1.232v7.266h-1.232v-7.266Zm2.652 1.05v-1.05h.868v-1.526h1.232v1.526h2.114v1.05h-2.114v4.368c0 .308.08.532.238.672.159.14.43.21.812.21.364 0 .696-.103.994-.308v1.12a1.735 1.735 0 0 1-.588.21 3.222 3.222 0 0 1-.728.084c-.466 0-.844-.089-1.134-.266a1.588 1.588 0 0 1-.63-.686 2.071 2.071 0 0 1-.196-.882v-4.522h-.868Zm8.561 6.356c-.663 0-1.26-.145-1.792-.434a3.248 3.248 0 0 1-1.246-1.288c-.308-.569-.462-1.255-.462-2.058 0-.803.154-1.484.462-2.044.308-.56.723-.985 1.246-1.274a3.592 3.592 0 0 1 1.792-.448c.672 0 1.274.149 1.806.448.532.289.952.714 1.26 1.274.308.56.462 1.241.462 2.044 0 .803-.154 1.489-.462 2.058-.308.56-.728.989-1.26 1.288-.532.289-1.134.434-1.806.434Zm0-1.106c.653 0 1.194-.215 1.624-.644.429-.439.644-1.115.644-2.03 0-.915-.215-1.587-.644-2.016-.43-.439-.971-.658-1.624-.658-.644 0-1.181.219-1.61.658-.42.429-.63 1.101-.63 2.016s.21 1.591.63 2.03c.429.429.966.644 1.61.644Zm8.627-5.068c-.578.047-1.073.191-1.484.434a2.185 2.185 0 0 0-.882.98v4.62h-1.232v-7.266h1.078l.126 1.582h.028c.234-.485.551-.877.952-1.176a2.973 2.973 0 0 1 1.414-.546v1.372Z"/>
    <rect width="148" height="42" x="287" y="11" fill="#fff" stroke="#67B0F8" stroke-width="2" rx="4"/>
    <path fill="#18123D" d="M344.764 30.575c-.775 0-1.559.238-2.352.714v-1.106a4.43 4.43 0 0 1 1.19-.504c.457-.13.901-.196 1.33-.196.915 0 1.61.191 2.086.574.476.383.714.966.714 1.75v3.906c0 .159.005.364.014.616.019.243.037.43.056.56h-1.12a6.4 6.4 0 0 1-.084-.546 8.197 8.197 0 0 1-.028-.63l-.014-.21a3.92 3.92 0 0 1-.462.7c-.196.233-.457.43-.784.588-.317.159-.714.238-1.19.238-.653 0-1.181-.187-1.582-.56-.401-.373-.602-.9-.602-1.582 0-.793.28-1.377.84-1.75.56-.373 1.349-.56 2.366-.56h1.358v-.602c0-.504-.131-.863-.392-1.078-.261-.215-.709-.322-1.344-.322Zm1.736 3.514v-.532h-1.232c-.737 0-1.274.107-1.61.322-.327.215-.49.527-.49.938 0 .327.098.593.294.798.205.205.513.308.924.308.383 0 .709-.075.98-.224.271-.159.49-.345.658-.56.168-.224.289-.434.364-.63.075-.196.112-.336.112-.42Zm2.651-.84c0-.85.149-1.55.448-2.1.299-.56.695-.975 1.19-1.246.504-.28 1.05-.42 1.638-.42.551 0 1.027.117 1.428.35.401.224.723.546.966.966V26.85h1.232v10.038h-1.078l-.098-1.428a2.867 2.867 0 0 1-.952 1.148c-.401.28-.905.42-1.512.42-.579 0-1.12-.135-1.624-.406-.495-.28-.891-.7-1.19-1.26-.299-.56-.448-1.265-.448-2.114Zm5.684 0c0-.905-.215-1.577-.644-2.016-.429-.439-.961-.658-1.596-.658-.635 0-1.157.229-1.568.686-.411.448-.616 1.11-.616 1.988 0 .887.205 1.554.616 2.002.411.448.933.672 1.568.672s1.167-.22 1.596-.658c.429-.439.644-1.11.644-2.016Zm7.821-1.442c0-.467-.117-.789-.35-.966-.234-.177-.551-.266-.952-.266-.523 0-.938.13-1.246.392a3.488 3.488 0 0 0-.812.994v4.928h-1.232v-7.266h1.078l.126 1.302h.028c.196-.41.49-.751.882-1.022.401-.28.914-.42 1.54-.42.55 0 1.008.135 1.372.406.364.261.606.658.728 1.19.205-.495.518-.882.938-1.162.429-.29.947-.434 1.554-.434.662 0 1.19.191 1.582.574.401.383.602.961.602 1.736v5.096h-1.246v-4.942c0-.476-.117-.821-.35-1.036-.234-.224-.551-.336-.952-.336-.532 0-.952.154-1.26.462a4.41 4.41 0 0 0-.798 1.064v4.788h-1.232v-5.082Zm8.397-3.248c-.252 0-.453-.075-.602-.224a.809.809 0 0 1-.224-.574.81.81 0 0 1 .224-.574c.149-.159.35-.238.602-.238.243 0 .434.08.574.238.14.159.21.35.21.574 0 .224-.07.415-.21.574-.14.15-.331.224-.574.224Zm-.63 1.064h1.232v7.266h-1.232v-7.266Zm6.684.952c-.56 0-1.017.13-1.372.392a2.871 2.871 0 0 0-.84.98v4.942h-1.232v-7.266h1.162l.042 1.302h.028a2.48 2.48 0 0 1 .924-1.022c.42-.28.952-.42 1.596-.42.719 0 1.288.191 1.708.574.43.383.644.961.644 1.736v5.096h-1.232v-4.97c0-.495-.13-.84-.392-1.036-.252-.205-.597-.308-1.036-.308Z"/>
    <path fill="#4E496B" d="m179 222-5.774 10h11.548L179 222Zm-1 9v31h2v-31h-2Zm183-93 5.774 10h-11.548L361 138Zm1 9v31h-2v-31h2Z"/>
    <path stroke="#4E496B" stroke-width="2" d="M361 232v30"/>
    <path fill="#4E496B" d="m179 138-5.774 10h11.548L179 138Zm-1 9v30h2v-30h-2Z"/>
    <rect width="148" height="42" x="105" y="347" fill="#fff" stroke="#67B0F8" stroke-width="2" rx="4"/>
    <path fill="#18123D" d="M146.898 358.575c-.775 0-1.559.238-2.352.714v-1.106a4.412 4.412 0 0 1 1.19-.504c.457-.131.9-.196 1.33-.196.914 0 1.61.191 2.086.574.476.383.714.966.714 1.75v3.906c0 .159.004.364.014.616.018.243.037.429.056.56h-1.12a6.439 6.439 0 0 1-.084-.546 8.21 8.21 0 0 1-.028-.63l-.014-.21a3.93 3.93 0 0 1-.462.7 2.354 2.354 0 0 1-.784.588c-.318.159-.714.238-1.19.238-.654 0-1.181-.187-1.582-.56-.402-.373-.602-.901-.602-1.582 0-.793.28-1.377.84-1.75.56-.373 1.348-.56 2.366-.56h1.358v-.602c0-.504-.131-.863-.392-1.078-.262-.215-.71-.322-1.344-.322Zm1.736 3.514v-.532h-1.232c-.738 0-1.274.107-1.61.322-.327.215-.49.527-.49.938 0 .327.098.593.294.798.205.205.513.308.924.308.382 0 .709-.075.98-.224.27-.159.49-.345.658-.56.168-.224.289-.434.364-.63.074-.196.112-.336.112-.42Zm7.831 1.498a2.633 2.633 0 0 1-.91 1.022c-.401.28-.929.42-1.582.42-.672 0-1.218-.191-1.638-.574-.411-.383-.616-.966-.616-1.75v-5.082h1.246v5.082c0 .476.131.798.392.966.261.168.583.252.966.252.541 0 .975-.121 1.302-.364.327-.243.607-.574.84-.994v-4.942h1.232v7.266h-1.092l-.112-1.302h-.028Zm2.736-2.338c0-.849.149-1.549.448-2.1.299-.56.695-.975 1.19-1.246.504-.28 1.05-.42 1.638-.42.551 0 1.027.117 1.428.35.401.224.723.546.966.966v-3.948h1.232v10.038h-1.078l-.098-1.428a2.865 2.865 0 0 1-.952 1.148c-.401.28-.905.42-1.512.42-.579 0-1.12-.135-1.624-.406-.495-.28-.891-.7-1.19-1.26-.299-.56-.448-1.265-.448-2.114Zm5.684 0c0-.905-.215-1.577-.644-2.016-.429-.439-.961-.658-1.596-.658-.635 0-1.157.229-1.568.686-.411.448-.616 1.111-.616 1.988 0 .887.205 1.554.616 2.002.411.448.933.672 1.568.672s1.167-.219 1.596-.658c.429-.439.644-1.111.644-2.016Zm3.858-4.69c-.252 0-.452-.075-.602-.224a.81.81 0 0 1-.224-.574.81.81 0 0 1 .224-.574c.15-.159.35-.238.602-.238.243 0 .434.079.574.238.14.159.21.35.21.574 0 .224-.07.415-.21.574-.14.149-.331.224-.574.224Zm-.63 1.064h1.232v7.266h-1.232v-7.266Zm2.653 1.05v-1.05h.868v-1.526h1.232v1.526h2.114v1.05h-2.114v4.368c0 .308.079.532.238.672.158.14.429.21.812.21.364 0 .695-.103.994-.308v1.12c-.15.093-.346.163-.588.21a3.235 3.235 0 0 1-.728.084c-.467 0-.845-.089-1.134-.266-.29-.177-.5-.406-.63-.686a2.057 2.057 0 0 1-.196-.882v-4.522h-.868Zm5.478 2.506v-1.12h3.36v1.12h-3.36Zm4.625-2.506v-1.05h.868v-1.526h1.232v1.526h2.114v1.05h-2.114v4.368c0 .308.08.532.238.672.159.14.43.21.812.21.364 0 .696-.103.994-.308v1.12a1.735 1.735 0 0 1-.588.21 3.222 3.222 0 0 1-.728.084c-.466 0-.844-.089-1.134-.266a1.588 1.588 0 0 1-.63-.686 2.071 2.071 0 0 1-.196-.882v-4.522h-.868Zm9.381.182c-.578.047-1.073.191-1.484.434a2.185 2.185 0 0 0-.882.98v4.62h-1.232v-7.266h1.078l.126 1.582h.028c.234-.485.551-.877.952-1.176a2.973 2.973 0 0 1 1.414-.546v1.372Zm3.829-.28c-.774 0-1.558.238-2.352.714v-1.106a4.425 4.425 0 0 1 1.19-.504 4.825 4.825 0 0 1 1.33-.196c.915 0 1.61.191 2.086.574.476.383.714.966.714 1.75v3.906c0 .159.005.364.014.616.019.243.038.429.056.56h-1.12a6.439 6.439 0 0 1-.084-.546 8.754 8.754 0 0 1-.028-.63l-.014-.21a3.93 3.93 0 0 1-.462.7 2.344 2.344 0 0 1-.784.588c-.317.159-.714.238-1.19.238-.653 0-1.18-.187-1.582-.56-.401-.373-.602-.901-.602-1.582 0-.793.28-1.377.84-1.75.56-.373 1.349-.56 2.366-.56h1.358v-.602c0-.504-.13-.863-.392-1.078-.261-.215-.709-.322-1.344-.322Zm1.736 3.514v-.532h-1.232c-.737 0-1.274.107-1.61.322-.326.215-.49.527-.49.938 0 .327.098.593.294.798.206.205.514.308.924.308.383 0 .71-.075.98-.224.271-.159.49-.345.658-.56.168-.224.29-.434.364-.63.075-.196.112-.336.112-.42Zm3.8-5.53c-.252 0-.453-.075-.602-.224a.805.805 0 0 1-.224-.574c0-.224.074-.415.224-.574.149-.159.35-.238.602-.238.242 0 .434.079.574.238.14.159.21.35.21.574 0 .224-.07.415-.21.574-.14.149-.332.224-.574.224Zm-.63 1.064h1.232v7.266h-1.232v-7.266Zm3.24-2.772h1.232v10.038h-1.232v-10.038Zm5.564 10.178a5.169 5.169 0 0 1-1.526-.224c-.476-.159-.863-.369-1.162-.63v-1.106c.289.28.677.504 1.162.672.495.168.999.252 1.512.252 1.139 0 1.708-.369 1.708-1.106 0-.215-.051-.387-.154-.518-.093-.14-.271-.257-.532-.35-.261-.103-.639-.201-1.134-.294-.943-.187-1.601-.439-1.974-.756-.373-.327-.56-.789-.56-1.386 0-.663.257-1.176.77-1.54.513-.373 1.223-.56 2.128-.56.429 0 .849.047 1.26.14.42.084.761.201 1.022.35v1.106c-.541-.373-1.288-.56-2.24-.56-.588 0-1.022.084-1.302.252-.271.168-.406.429-.406.784 0 .187.042.341.126.462.084.121.252.229.504.322s.63.191 1.134.294c.644.131 1.153.289 1.526.476.383.177.653.406.812.686.168.28.252.635.252 1.064 0 .681-.257 1.213-.77 1.596s-1.232.574-2.156.574Zm5.116-.056a.918.918 0 0 1-.658-.252.884.884 0 0 1-.252-.63c0-.261.084-.476.252-.644a.918.918 0 0 1 .658-.252c.261 0 .476.084.644.252a.873.873 0 0 1 .252.644.884.884 0 0 1-.252.63.873.873 0 0 1-.644.252Zm-71.317 16.056c-1.129 0-2.02-.331-2.674-.994-.653-.672-.98-1.601-.98-2.786s.332-2.109.994-2.772c.663-.663 1.568-.994 2.716-.994.439 0 .85.051 1.232.154.383.093.691.233.924.42v1.106c-.634-.392-1.348-.588-2.142-.588-.84 0-1.46.224-1.862.672-.401.439-.602 1.106-.602 2.002 0 .896.192 1.568.574 2.016.392.439.999.658 1.82.658.794 0 1.531-.191 2.212-.574v1.106c-.606.383-1.344.574-2.212.574Zm6.696 0c-.663 0-1.26-.145-1.792-.434a3.248 3.248 0 0 1-1.246-1.288c-.308-.569-.462-1.255-.462-2.058 0-.803.154-1.484.462-2.044.308-.56.723-.985 1.246-1.274a3.592 3.592 0 0 1 1.792-.448c.672 0 1.274.149 1.806.448.532.289.952.714 1.26 1.274.308.56.462 1.241.462 2.044 0 .803-.154 1.489-.462 2.058-.308.56-.728.989-1.26 1.288-.532.289-1.134.434-1.806.434Zm0-1.106c.653 0 1.195-.215 1.624-.644.429-.439.644-1.115.644-2.03 0-.915-.215-1.587-.644-2.016-.429-.439-.971-.658-1.624-.658-.644 0-1.181.219-1.61.658-.42.429-.63 1.101-.63 2.016s.21 1.591.63 2.03c.429.429.966.644 1.61.644Zm8.474-5.348c-.56 0-1.018.131-1.372.392a2.853 2.853 0 0 0-.84.98v4.942h-1.232v-7.266h1.162l.042 1.302h.028a2.48 2.48 0 0 1 .924-1.022c.42-.28.952-.42 1.596-.42.718 0 1.288.191 1.708.574.429.383.644.961.644 1.736v5.096h-1.232v-4.97c0-.495-.131-.84-.392-1.036-.252-.205-.598-.308-1.036-.308Zm5.042 6.314v-6.216h-.882v-1.05h.882v-.182c0-.859.229-1.526.686-2.002.458-.476 1.083-.714 1.876-.714.355 0 .663.042.924.126v1.12a1.653 1.653 0 0 0-.364-.098 2.887 2.887 0 0 0-.504-.042c-.429 0-.77.131-1.022.392-.242.261-.364.667-.364 1.218v.182h2.1v1.05h-2.1v6.216H161.8Zm5.405-8.33c-.252 0-.452-.075-.602-.224a.81.81 0 0 1-.224-.574.81.81 0 0 1 .224-.574c.15-.159.35-.238.602-.238.243 0 .434.079.574.238.14.159.21.35.21.574 0 .224-.07.415-.21.574-.14.149-.331.224-.574.224Zm-.63 1.064h1.232v7.266h-1.232v-7.266Zm3.325 9.17v-1.106c.392.215.784.369 1.176.462.392.093.84.14 1.344.14.896 0 1.521-.173 1.876-.518.354-.336.532-.831.532-1.484v-1.12a2.645 2.645 0 0 1-.91 1.036c-.383.261-.859.392-1.428.392-.57 0-1.102-.131-1.596-.392a3.058 3.058 0 0 1-1.176-1.19c-.29-.523-.434-1.176-.434-1.96 0-.793.144-1.451.434-1.974.298-.532.69-.929 1.176-1.19a3.322 3.322 0 0 1 1.624-.406c.578 0 1.064.131 1.456.392.401.261.714.616.938 1.064l.014-.154c0-.168.009-.369.028-.602.018-.243.037-.429.056-.56h1.12a7.301 7.301 0 0 0-.07 1.162v5.488c0 .625-.126 1.171-.378 1.638-.243.467-.63.831-1.162 1.092-.532.261-1.237.392-2.114.392-1.064 0-1.9-.201-2.506-.602Zm4.942-5.74c0-.831-.206-1.451-.616-1.862-.402-.411-.91-.616-1.526-.616s-1.134.205-1.554.616c-.411.411-.616 1.031-.616 1.862 0 .812.205 1.423.616 1.834.42.401.942.602 1.568.602.606 0 1.11-.201 1.512-.602.41-.401.616-1.013.616-1.834Zm5.92 3.836-3.5-10.038h1.372l3.206 9.24 3.206-9.24h1.26l-3.486 10.038h-2.058Zm7.389-8.33c-.252 0-.453-.075-.602-.224a.805.805 0 0 1-.224-.574c0-.224.074-.415.224-.574.149-.159.35-.238.602-.238.242 0 .434.079.574.238.14.159.21.35.21.574 0 .224-.07.415-.21.574-.14.149-.332.224-.574.224Zm-.63 1.064h1.232v7.266h-1.232v-7.266Zm6.46 7.406c-1.213 0-2.142-.331-2.786-.994-.635-.672-.952-1.601-.952-2.786 0-.793.149-1.47.448-2.03.299-.56.709-.989 1.232-1.288a3.49 3.49 0 0 1 1.764-.448c1.111 0 1.927.369 2.45 1.106.523.728.691 1.727.504 2.996h-5.124c.103 1.559.961 2.338 2.576 2.338.887 0 1.703-.252 2.45-.756v1.106a4.3 4.3 0 0 1-1.176.56c-.448.131-.91.196-1.386.196Zm-.322-6.454c-.532 0-.989.163-1.372.49-.383.327-.625.821-.728 1.484h3.906c.028-.625-.117-1.111-.434-1.456s-.775-.518-1.372-.518Zm14.088-.952-1.652 7.266h-1.89l-1.54-5.614-1.582 5.614h-1.834l-1.652-7.266h1.302l1.386 6.342 1.764-6.342h1.386l1.722 6.272 1.372-6.272h1.218Zm4.513 7.406c-1.213 0-2.142-.331-2.786-.994-.634-.672-.952-1.601-.952-2.786 0-.793.15-1.47.448-2.03.299-.56.71-.989 1.232-1.288a3.49 3.49 0 0 1 1.764-.448c1.111 0 1.928.369 2.45 1.106.523.728.691 1.727.504 2.996h-5.124c.103 1.559.962 2.338 2.576 2.338.887 0 1.704-.252 2.45-.756v1.106a4.3 4.3 0 0 1-1.176.56c-.448.131-.91.196-1.386.196Zm-.322-6.454c-.532 0-.989.163-1.372.49-.382.327-.625.821-.728 1.484h3.906c.028-.625-.116-1.111-.434-1.456-.317-.345-.774-.518-1.372-.518Zm8.124.28c-.579.047-1.073.191-1.484.434a2.185 2.185 0 0 0-.882.98v4.62h-1.232v-7.266h1.078l.126 1.582h.028c.233-.485.551-.877.952-1.176a2.973 2.973 0 0 1 1.414-.546v1.372Z"/>
    <path fill="#4E496B" d="m179 306-5.774 10h11.548L179 306Zm-1 9v30h2v-30h-2Z"/>
    <rect width="148" height="42" x="287" y="179" fill="#fff" stroke="#67B0F8" stroke-width="2" rx="4"/>
    <path fill="#18123D" d="M340.495 197.623h1.33l2.212 6.608 2.198-6.608h1.232l-2.492 7.266h-1.988l-2.492-7.266Zm8.745-1.064c-.252 0-.453-.075-.602-.224a.805.805 0 0 1-.224-.574c0-.224.074-.415.224-.574.149-.159.35-.238.602-.238.242 0 .434.079.574.238.14.159.21.35.21.574 0 .224-.07.415-.21.574-.14.149-.332.224-.574.224Zm-.63 1.064h1.232v7.266h-1.232v-7.266Zm6.46 7.406c-1.214 0-2.142-.331-2.786-.994-.635-.672-.952-1.601-.952-2.786 0-.793.149-1.47.448-2.03a3.15 3.15 0 0 1 1.232-1.288 3.485 3.485 0 0 1 1.764-.448c1.11 0 1.927.369 2.45 1.106.522.728.69 1.727.504 2.996h-5.124c.102 1.559.961 2.338 2.576 2.338.886 0 1.703-.252 2.45-.756v1.106a4.3 4.3 0 0 1-1.176.56c-.448.131-.91.196-1.386.196Zm-.322-6.454c-.532 0-.99.163-1.372.49-.383.327-.626.821-.728 1.484h3.906c.028-.625-.117-1.111-.434-1.456-.318-.345-.775-.518-1.372-.518Zm14.088-.952-1.652 7.266h-1.89l-1.54-5.614-1.582 5.614h-1.834l-1.652-7.266h1.302l1.386 6.342 1.764-6.342h1.386l1.722 6.272 1.372-6.272h1.218Zm4.513 7.406c-1.213 0-2.142-.331-2.786-.994-.635-.672-.952-1.601-.952-2.786 0-.793.149-1.47.448-2.03.299-.56.709-.989 1.232-1.288a3.49 3.49 0 0 1 1.764-.448c1.111 0 1.927.369 2.45 1.106.523.728.691 1.727.504 2.996h-5.124c.103 1.559.961 2.338 2.576 2.338.887 0 1.703-.252 2.45-.756v1.106a4.3 4.3 0 0 1-1.176.56c-.448.131-.91.196-1.386.196Zm-.322-6.454c-.532 0-.989.163-1.372.49-.383.327-.625.821-.728 1.484h3.906c.028-.625-.117-1.111-.434-1.456s-.775-.518-1.372-.518Zm8.124.28c-.579.047-1.073.191-1.484.434a2.185 2.185 0 0 0-.882.98v4.62h-1.232v-7.266h1.078l.126 1.582h.028c.233-.485.551-.877.952-1.176a2.973 2.973 0 0 1 1.414-.546v1.372Z"/>
    <rect width="148" height="42" x="287" y="263" fill="#fff" stroke="#67B0F8" stroke-width="2" rx="4"/>
    <path fill="#18123D" d="M341.961 282.575c-.774 0-1.558.238-2.352.714v-1.106a4.425 4.425 0 0 1 1.19-.504 4.825 4.825 0 0 1 1.33-.196c.915 0 1.61.191 2.086.574.476.383.714.966.714 1.75v3.906c0 .159.005.364.014.616.019.243.038.429.056.56h-1.12a6.439 6.439 0 0 1-.084-.546 8.754 8.754 0 0 1-.028-.63l-.014-.21a3.93 3.93 0 0 1-.462.7 2.344 2.344 0 0 1-.784.588c-.317.159-.714.238-1.19.238-.653 0-1.18-.187-1.582-.56-.401-.373-.602-.901-.602-1.582 0-.793.28-1.377.84-1.75.56-.373 1.349-.56 2.366-.56h1.358v-.602c0-.504-.13-.863-.392-1.078-.261-.215-.709-.322-1.344-.322Zm1.736 3.514v-.532h-1.232c-.737 0-1.274.107-1.61.322-.326.215-.49.527-.49.938 0 .327.098.593.294.798.206.205.514.308.924.308.383 0 .71-.075.98-.224.271-.159.49-.345.658-.56.168-.224.29-.434.364-.63.075-.196.112-.336.112-.42Zm7.831 1.498a2.633 2.633 0 0 1-.91 1.022c-.401.28-.928.42-1.582.42-.672 0-1.218-.191-1.638-.574-.41-.383-.616-.966-.616-1.75v-5.082h1.246v5.082c0 .476.131.798.392.966.262.168.584.252.966.252.542 0 .976-.121 1.302-.364.327-.243.607-.574.84-.994v-4.942h1.232v7.266h-1.092l-.112-1.302h-.028Zm2.736-2.338c0-.849.15-1.549.448-2.1.299-.56.696-.975 1.19-1.246.504-.28 1.05-.42 1.638-.42.551 0 1.027.117 1.428.35.402.224.724.546.966.966v-3.948h1.232v10.038h-1.078l-.098-1.428a2.865 2.865 0 0 1-.952 1.148c-.401.28-.905.42-1.512.42-.578 0-1.12-.135-1.624-.406-.494-.28-.891-.7-1.19-1.26-.298-.56-.448-1.265-.448-2.114Zm5.684 0c0-.905-.214-1.577-.644-2.016-.429-.439-.961-.658-1.596-.658-.634 0-1.157.229-1.568.686-.41.448-.616 1.111-.616 1.988 0 .887.206 1.554.616 2.002.411.448.934.672 1.568.672.635 0 1.167-.219 1.596-.658.43-.439.644-1.111.644-2.016Zm3.859-4.69c-.252 0-.453-.075-.602-.224a.81.81 0 0 1-.224-.574.81.81 0 0 1 .224-.574c.149-.159.35-.238.602-.238.243 0 .434.079.574.238.14.159.21.35.21.574 0 .224-.07.415-.21.574-.14.149-.331.224-.574.224Zm-.63 1.064h1.232v7.266h-1.232v-7.266Zm2.652 1.05v-1.05h.868v-1.526h1.232v1.526h2.114v1.05h-2.114v4.368c0 .308.079.532.238.672.159.14.429.21.812.21.364 0 .695-.103.994-.308v1.12a1.735 1.735 0 0 1-.588.21 3.228 3.228 0 0 1-.728.084c-.467 0-.845-.089-1.134-.266a1.588 1.588 0 0 1-.63-.686 2.057 2.057 0 0 1-.196-.882v-4.522h-.868Zm8.56 6.356c-.662 0-1.26-.145-1.792-.434a3.255 3.255 0 0 1-1.246-1.288c-.308-.569-.462-1.255-.462-2.058 0-.803.154-1.484.462-2.044.308-.56.724-.985 1.246-1.274a3.595 3.595 0 0 1 1.792-.448c.672 0 1.274.149 1.806.448.532.289.952.714 1.26 1.274.308.56.462 1.241.462 2.044 0 .803-.154 1.489-.462 2.058-.308.56-.728.989-1.26 1.288-.532.289-1.134.434-1.806.434Zm0-1.106c.654 0 1.195-.215 1.624-.644.43-.439.644-1.115.644-2.03 0-.915-.214-1.587-.644-2.016-.429-.439-.97-.658-1.624-.658-.644 0-1.18.219-1.61.658-.42.429-.63 1.101-.63 2.016s.21 1.591.63 2.03c.43.429.966.644 1.61.644Zm8.628-5.068c-.579.047-1.073.191-1.484.434a2.185 2.185 0 0 0-.882.98v4.62h-1.232v-7.266h1.078l.126 1.582h.028c.233-.485.551-.877.952-1.176a2.973 2.973 0 0 1 1.414-.546v1.372Z"/>
    <rect width="148" height="42" x="105" y="263" fill="#fff" stroke="#67B0F8" stroke-width="2" rx="4"/>
    <path fill="#18123D" d="M146.898 274.575c-.775 0-1.559.238-2.352.714v-1.106a4.412 4.412 0 0 1 1.19-.504c.457-.131.9-.196 1.33-.196.914 0 1.61.191 2.086.574.476.383.714.966.714 1.75v3.906c0 .159.004.364.014.616.018.243.037.429.056.56h-1.12a6.439 6.439 0 0 1-.084-.546 8.21 8.21 0 0 1-.028-.63l-.014-.21a3.93 3.93 0 0 1-.462.7 2.354 2.354 0 0 1-.784.588c-.318.159-.714.238-1.19.238-.654 0-1.181-.187-1.582-.56-.402-.373-.602-.901-.602-1.582 0-.793.28-1.377.84-1.75.56-.373 1.348-.56 2.366-.56h1.358v-.602c0-.504-.131-.863-.392-1.078-.262-.215-.71-.322-1.344-.322Zm1.736 3.514v-.532h-1.232c-.738 0-1.274.107-1.61.322-.327.215-.49.527-.49.938 0 .327.098.593.294.798.205.205.513.308.924.308.382 0 .709-.075.98-.224.27-.159.49-.345.658-.56.168-.224.289-.434.364-.63.074-.196.112-.336.112-.42Zm7.831 1.498a2.633 2.633 0 0 1-.91 1.022c-.401.28-.929.42-1.582.42-.672 0-1.218-.191-1.638-.574-.411-.383-.616-.966-.616-1.75v-5.082h1.246v5.082c0 .476.131.798.392.966.261.168.583.252.966.252.541 0 .975-.121 1.302-.364.327-.243.607-.574.84-.994v-4.942h1.232v7.266h-1.092l-.112-1.302h-.028Zm2.736-2.338c0-.849.149-1.549.448-2.1.299-.56.695-.975 1.19-1.246.504-.28 1.05-.42 1.638-.42.551 0 1.027.117 1.428.35.401.224.723.546.966.966v-3.948h1.232v10.038h-1.078l-.098-1.428a2.865 2.865 0 0 1-.952 1.148c-.401.28-.905.42-1.512.42-.579 0-1.12-.135-1.624-.406-.495-.28-.891-.7-1.19-1.26-.299-.56-.448-1.265-.448-2.114Zm5.684 0c0-.905-.215-1.577-.644-2.016-.429-.439-.961-.658-1.596-.658-.635 0-1.157.229-1.568.686-.411.448-.616 1.111-.616 1.988 0 .887.205 1.554.616 2.002.411.448.933.672 1.568.672s1.167-.219 1.596-.658c.429-.439.644-1.111.644-2.016Zm3.858-4.69c-.252 0-.452-.075-.602-.224a.81.81 0 0 1-.224-.574.81.81 0 0 1 .224-.574c.15-.159.35-.238.602-.238.243 0 .434.079.574.238.14.159.21.35.21.574 0 .224-.07.415-.21.574-.14.149-.331.224-.574.224Zm-.63 1.064h1.232v7.266h-1.232v-7.266Zm2.653 1.05v-1.05h.868v-1.526h1.232v1.526h2.114v1.05h-2.114v4.368c0 .308.079.532.238.672.158.14.429.21.812.21.364 0 .695-.103.994-.308v1.12c-.15.093-.346.163-.588.21a3.235 3.235 0 0 1-.728.084c-.467 0-.845-.089-1.134-.266-.29-.177-.5-.406-.63-.686a2.057 2.057 0 0 1-.196-.882v-4.522h-.868Zm5.478 2.506v-1.12h3.36v1.12h-3.36Zm4.625-2.506v-1.05h.868v-1.526h1.232v1.526h2.114v1.05h-2.114v4.368c0 .308.08.532.238.672.159.14.43.21.812.21.364 0 .696-.103.994-.308v1.12a1.735 1.735 0 0 1-.588.21 3.222 3.222 0 0 1-.728.084c-.466 0-.844-.089-1.134-.266a1.588 1.588 0 0 1-.63-.686 2.071 2.071 0 0 1-.196-.882v-4.522h-.868Zm9.381.182c-.578.047-1.073.191-1.484.434a2.185 2.185 0 0 0-.882.98v4.62h-1.232v-7.266h1.078l.126 1.582h.028c.234-.485.551-.877.952-1.176a2.973 2.973 0 0 1 1.414-.546v1.372Zm3.829-.28c-.774 0-1.558.238-2.352.714v-1.106a4.425 4.425 0 0 1 1.19-.504 4.825 4.825 0 0 1 1.33-.196c.915 0 1.61.191 2.086.574.476.383.714.966.714 1.75v3.906c0 .159.005.364.014.616.019.243.038.429.056.56h-1.12a6.439 6.439 0 0 1-.084-.546 8.754 8.754 0 0 1-.028-.63l-.014-.21a3.93 3.93 0 0 1-.462.7 2.344 2.344 0 0 1-.784.588c-.317.159-.714.238-1.19.238-.653 0-1.18-.187-1.582-.56-.401-.373-.602-.901-.602-1.582 0-.793.28-1.377.84-1.75.56-.373 1.349-.56 2.366-.56h1.358v-.602c0-.504-.13-.863-.392-1.078-.261-.215-.709-.322-1.344-.322Zm1.736 3.514v-.532h-1.232c-.737 0-1.274.107-1.61.322-.326.215-.49.527-.49.938 0 .327.098.593.294.798.206.205.514.308.924.308.383 0 .71-.075.98-.224.271-.159.49-.345.658-.56.168-.224.29-.434.364-.63.075-.196.112-.336.112-.42Zm3.8-5.53c-.252 0-.453-.075-.602-.224a.805.805 0 0 1-.224-.574c0-.224.074-.415.224-.574.149-.159.35-.238.602-.238.242 0 .434.079.574.238.14.159.21.35.21.574 0 .224-.07.415-.21.574-.14.149-.332.224-.574.224Zm-.63 1.064h1.232v7.266h-1.232v-7.266Zm3.24-2.772h1.232v10.038h-1.232v-10.038Zm5.564 10.178a5.169 5.169 0 0 1-1.526-.224c-.476-.159-.863-.369-1.162-.63v-1.106c.289.28.677.504 1.162.672.495.168.999.252 1.512.252 1.139 0 1.708-.369 1.708-1.106 0-.215-.051-.387-.154-.518-.093-.14-.271-.257-.532-.35-.261-.103-.639-.201-1.134-.294-.943-.187-1.601-.439-1.974-.756-.373-.327-.56-.789-.56-1.386 0-.663.257-1.176.77-1.54.513-.373 1.223-.56 2.128-.56.429 0 .849.047 1.26.14.42.084.761.201 1.022.35v1.106c-.541-.373-1.288-.56-2.24-.56-.588 0-1.022.084-1.302.252-.271.168-.406.429-.406.784 0 .187.042.341.126.462.084.121.252.229.504.322s.63.191 1.134.294c.644.131 1.153.289 1.526.476.383.177.653.406.812.686.168.28.252.635.252 1.064 0 .681-.257 1.213-.77 1.596s-1.232.574-2.156.574Zm5.116-.056a.918.918 0 0 1-.658-.252.884.884 0 0 1-.252-.63c0-.261.084-.476.252-.644a.918.918 0 0 1 .658-.252c.261 0 .476.084.644.252a.873.873 0 0 1 .252.644.884.884 0 0 1-.252.63.873.873 0 0 1-.644.252Zm-54.41 8.65h1.33l2.212 6.608 2.198-6.608h1.232l-2.492 7.266h-1.988l-2.492-7.266Zm8.745-1.064c-.252 0-.453-.075-.602-.224a.805.805 0 0 1-.224-.574c0-.224.074-.415.224-.574.149-.159.35-.238.602-.238.242 0 .434.079.574.238.14.159.21.35.21.574 0 .224-.07.415-.21.574-.14.149-.332.224-.574.224Zm-.63 1.064h1.232v7.266h-1.232v-7.266Zm6.46 7.406c-1.214 0-2.142-.331-2.786-.994-.635-.672-.952-1.601-.952-2.786 0-.793.149-1.47.448-2.03a3.15 3.15 0 0 1 1.232-1.288 3.485 3.485 0 0 1 1.764-.448c1.11 0 1.927.369 2.45 1.106.522.728.69 1.727.504 2.996h-5.124c.102 1.559.961 2.338 2.576 2.338.886 0 1.703-.252 2.45-.756v1.106a4.3 4.3 0 0 1-1.176.56c-.448.131-.91.196-1.386.196Zm-.322-6.454c-.532 0-.99.163-1.372.49-.383.327-.626.821-.728 1.484h3.906c.028-.625-.117-1.111-.434-1.456-.318-.345-.775-.518-1.372-.518Zm14.088-.952-1.652 7.266h-1.89l-1.54-5.614-1.582 5.614h-1.834l-1.652-7.266h1.302l1.386 6.342 1.764-6.342h1.386l1.722 6.272 1.372-6.272h1.218Zm4.513 7.406c-1.213 0-2.142-.331-2.786-.994-.635-.672-.952-1.601-.952-2.786 0-.793.149-1.47.448-2.03.299-.56.709-.989 1.232-1.288a3.49 3.49 0 0 1 1.764-.448c1.111 0 1.927.369 2.45 1.106.523.728.691 1.727.504 2.996h-5.124c.103 1.559.961 2.338 2.576 2.338.887 0 1.703-.252 2.45-.756v1.106a4.3 4.3 0 0 1-1.176.56c-.448.131-.91.196-1.386.196Zm-.322-6.454c-.532 0-.989.163-1.372.49-.383.327-.625.821-.728 1.484h3.906c.028-.625-.117-1.111-.434-1.456s-.775-.518-1.372-.518Zm8.124.28c-.579.047-1.073.191-1.484.434a2.185 2.185 0 0 0-.882.98v4.62h-1.232v-7.266h1.078l.126 1.582h.028c.233-.485.551-.877.952-1.176a2.973 2.973 0 0 1 1.414-.546v1.372Z"/>
    <path stroke="#4E496B" stroke-width="2" d="M179 262v-15.007a4.995 4.995 0 0 1 5-4.993h151"/>
    <path fill="#4E496B" d="m361 222-5.774 10h11.548L361 222Zm-5 20v-1 1Zm4-11v6.007h2V231h-2Zm-4 10H222v2h134v-2Zm4-3.993a3.994 3.994 0 0 1-4 3.993v2c3.312 0 6-2.677 6-5.993h-2Z"/>
    <path stroke="#4E496B" stroke-width="2" d="M179 178v-15.007a4.995 4.995 0 0 1 5-4.993h151"/>
    <path fill="#4E496B" d="m361 138-5.774 10h11.548L361 138Zm-5 20v-1 1Zm4-11v6.007h2V147h-2Zm-4 10H222v2h134v-2Zm4-3.993a3.994 3.994 0 0 1-4 3.993v2c3.312 0 6-2.677 6-5.993h-2ZM361 54l5.774 10h-11.548L361 54Zm1 9v31h-2V63h2Z"/>
    <path stroke="#4E496B" stroke-width="2" d="M179 94V78.993A4.994 4.994 0 0 1 184 74h151"/>
    <path fill="#4E496B" d="m361 54-5.774 10h11.548L361 54Zm-5 20v-1 1Zm4-11v6.007h2V63h-2Zm-4 10H222v2h134v-2Zm4-3.993A3.994 3.994 0 0 1 356 73v2c3.312 0 6-2.677 6-5.993h-2Z"/>
</svg>
