<svg width="540" height="400" viewBox="0 0 540 400" fill="none" xmlns="http://www.w3.org/2000/svg">
<rect x="105" y="179" width="148" height="42" rx="4" fill="white" stroke="#67B0F8" stroke-width="2"/>
<path d="M146.898 190.575C146.123 190.575 145.339 190.813 144.546 191.289V190.183C144.891 189.968 145.288 189.8 145.736 189.679C146.193 189.548 146.636 189.483 147.066 189.483C147.98 189.483 148.676 189.674 149.152 190.057C149.628 190.44 149.866 191.023 149.866 191.807V195.713C149.866 195.872 149.87 196.077 149.88 196.329C149.898 196.572 149.917 196.758 149.936 196.889H148.816C148.788 196.758 148.76 196.576 148.732 196.343C148.713 196.1 148.704 195.89 148.704 195.713L148.69 195.503C148.578 195.727 148.424 195.96 148.228 196.203C148.032 196.436 147.77 196.632 147.444 196.791C147.126 196.95 146.73 197.029 146.254 197.029C145.6 197.029 145.073 196.842 144.672 196.469C144.27 196.096 144.07 195.568 144.07 194.887C144.07 194.094 144.35 193.51 144.91 193.137C145.47 192.764 146.258 192.577 147.276 192.577H148.634V191.975C148.634 191.471 148.503 191.112 148.242 190.897C147.98 190.682 147.532 190.575 146.898 190.575ZM148.634 194.089V193.557H147.402C146.664 193.557 146.128 193.664 145.792 193.879C145.465 194.094 145.302 194.406 145.302 194.817C145.302 195.144 145.4 195.41 145.596 195.615C145.801 195.82 146.109 195.923 146.52 195.923C146.902 195.923 147.229 195.848 147.5 195.699C147.77 195.54 147.99 195.354 148.158 195.139C148.326 194.915 148.447 194.705 148.522 194.509C148.596 194.313 148.634 194.173 148.634 194.089ZM156.465 195.587C156.269 195.988 155.966 196.329 155.555 196.609C155.154 196.889 154.626 197.029 153.973 197.029C153.301 197.029 152.755 196.838 152.335 196.455C151.924 196.072 151.719 195.489 151.719 194.705V189.623H152.965V194.705C152.965 195.181 153.096 195.503 153.357 195.671C153.618 195.839 153.94 195.923 154.323 195.923C154.864 195.923 155.298 195.802 155.625 195.559C155.952 195.316 156.232 194.985 156.465 194.565V189.623H157.697V196.889H156.605L156.493 195.587H156.465ZM159.201 193.249C159.201 192.4 159.35 191.7 159.649 191.149C159.948 190.589 160.344 190.174 160.839 189.903C161.343 189.623 161.889 189.483 162.477 189.483C163.028 189.483 163.504 189.6 163.905 189.833C164.306 190.057 164.628 190.379 164.871 190.799V186.851H166.103V196.889H165.025L164.927 195.461C164.703 195.937 164.386 196.32 163.975 196.609C163.574 196.889 163.07 197.029 162.463 197.029C161.884 197.029 161.343 196.894 160.839 196.623C160.344 196.343 159.948 195.923 159.649 195.363C159.35 194.803 159.201 194.098 159.201 193.249ZM164.885 193.249C164.885 192.344 164.67 191.672 164.241 191.233C163.812 190.794 163.28 190.575 162.645 190.575C162.01 190.575 161.488 190.804 161.077 191.261C160.666 191.709 160.461 192.372 160.461 193.249C160.461 194.136 160.666 194.803 161.077 195.251C161.488 195.699 162.01 195.923 162.645 195.923C163.28 195.923 163.812 195.704 164.241 195.265C164.67 194.826 164.885 194.154 164.885 193.249ZM168.743 188.559C168.491 188.559 168.291 188.484 168.141 188.335C167.992 188.176 167.917 187.985 167.917 187.761C167.917 187.537 167.992 187.346 168.141 187.187C168.291 187.028 168.491 186.949 168.743 186.949C168.986 186.949 169.177 187.028 169.317 187.187C169.457 187.346 169.527 187.537 169.527 187.761C169.527 187.985 169.457 188.176 169.317 188.335C169.177 188.484 168.986 188.559 168.743 188.559ZM168.113 189.623H169.345V196.889H168.113V189.623ZM170.766 190.673V189.623H171.634V188.097H172.866V189.623H174.98V190.673H172.866V195.041C172.866 195.349 172.945 195.573 173.104 195.713C173.262 195.853 173.533 195.923 173.916 195.923C174.28 195.923 174.611 195.82 174.91 195.615V196.735C174.76 196.828 174.564 196.898 174.322 196.945C174.079 197.001 173.836 197.029 173.594 197.029C173.127 197.029 172.749 196.94 172.46 196.763C172.17 196.586 171.96 196.357 171.83 196.077C171.699 195.797 171.634 195.503 171.634 195.195V190.673H170.766ZM176.244 193.179V192.059H179.604V193.179H176.244ZM180.869 190.673V189.623H181.737V188.097H182.969V189.623H185.083V190.673H182.969V195.041C182.969 195.349 183.049 195.573 183.207 195.713C183.366 195.853 183.637 195.923 184.019 195.923C184.383 195.923 184.715 195.82 185.013 195.615V196.735C184.864 196.828 184.668 196.898 184.425 196.945C184.183 197.001 183.94 197.029 183.697 197.029C183.231 197.029 182.853 196.94 182.563 196.763C182.274 196.586 182.064 196.357 181.933 196.077C181.803 195.797 181.737 195.503 181.737 195.195V190.673H180.869ZM190.25 190.855C189.672 190.902 189.177 191.046 188.766 191.289C188.365 191.532 188.071 191.858 187.884 192.269V196.889H186.652V189.623H187.73L187.856 191.205H187.884C188.118 190.72 188.435 190.328 188.836 190.029C189.247 189.73 189.718 189.548 190.25 189.483V190.855ZM194.079 190.575C193.305 190.575 192.521 190.813 191.727 191.289V190.183C192.073 189.968 192.469 189.8 192.917 189.679C193.375 189.548 193.818 189.483 194.247 189.483C195.162 189.483 195.857 189.674 196.333 190.057C196.809 190.44 197.047 191.023 197.047 191.807V195.713C197.047 195.872 197.052 196.077 197.061 196.329C197.08 196.572 197.099 196.758 197.117 196.889H195.997C195.969 196.758 195.941 196.576 195.913 196.343C195.895 196.1 195.885 195.89 195.885 195.713L195.871 195.503C195.759 195.727 195.605 195.96 195.409 196.203C195.213 196.436 194.952 196.632 194.625 196.791C194.308 196.95 193.911 197.029 193.435 197.029C192.782 197.029 192.255 196.842 191.853 196.469C191.452 196.096 191.251 195.568 191.251 194.887C191.251 194.094 191.531 193.51 192.091 193.137C192.651 192.764 193.44 192.577 194.457 192.577H195.815V191.975C195.815 191.471 195.685 191.112 195.423 190.897C195.162 190.682 194.714 190.575 194.079 190.575ZM195.815 194.089V193.557H194.583C193.846 193.557 193.309 193.664 192.973 193.879C192.647 194.094 192.483 194.406 192.483 194.817C192.483 195.144 192.581 195.41 192.777 195.615C192.983 195.82 193.291 195.923 193.701 195.923C194.084 195.923 194.411 195.848 194.681 195.699C194.952 195.54 195.171 195.354 195.339 195.139C195.507 194.915 195.629 194.705 195.703 194.509C195.778 194.313 195.815 194.173 195.815 194.089ZM199.615 188.559C199.363 188.559 199.162 188.484 199.013 188.335C198.863 188.176 198.789 187.985 198.789 187.761C198.789 187.537 198.863 187.346 199.013 187.187C199.162 187.028 199.363 186.949 199.615 186.949C199.857 186.949 200.049 187.028 200.189 187.187C200.329 187.346 200.399 187.537 200.399 187.761C200.399 187.985 200.329 188.176 200.189 188.335C200.049 188.484 199.857 188.559 199.615 188.559ZM198.985 189.623H200.217V196.889H198.985V189.623ZM202.225 186.851H203.457V196.889H202.225V186.851ZM207.789 197.029C207.257 197.029 206.748 196.954 206.263 196.805C205.787 196.646 205.4 196.436 205.101 196.175V195.069C205.39 195.349 205.778 195.573 206.263 195.741C206.758 195.909 207.262 195.993 207.775 195.993C208.914 195.993 209.483 195.624 209.483 194.887C209.483 194.672 209.432 194.5 209.329 194.369C209.236 194.229 209.058 194.112 208.797 194.019C208.536 193.916 208.158 193.818 207.663 193.725C206.72 193.538 206.062 193.286 205.689 192.969C205.316 192.642 205.129 192.18 205.129 191.583C205.129 190.92 205.386 190.407 205.899 190.043C206.412 189.67 207.122 189.483 208.027 189.483C208.456 189.483 208.876 189.53 209.287 189.623C209.707 189.707 210.048 189.824 210.309 189.973V191.079C209.768 190.706 209.021 190.519 208.069 190.519C207.481 190.519 207.047 190.603 206.767 190.771C206.496 190.939 206.361 191.2 206.361 191.555C206.361 191.742 206.403 191.896 206.487 192.017C206.571 192.138 206.739 192.246 206.991 192.339C207.243 192.432 207.621 192.53 208.125 192.633C208.769 192.764 209.278 192.922 209.651 193.109C210.034 193.286 210.304 193.515 210.463 193.795C210.631 194.075 210.715 194.43 210.715 194.859C210.715 195.54 210.458 196.072 209.945 196.455C209.432 196.838 208.713 197.029 207.789 197.029ZM212.905 196.973C212.643 196.973 212.424 196.889 212.247 196.721C212.079 196.544 211.995 196.334 211.995 196.091C211.995 195.83 212.079 195.615 212.247 195.447C212.424 195.279 212.643 195.195 212.905 195.195C213.166 195.195 213.381 195.279 213.549 195.447C213.717 195.615 213.801 195.83 213.801 196.091C213.801 196.334 213.717 196.544 213.549 196.721C213.381 196.889 213.166 196.973 212.905 196.973ZM164.648 213.029C163.435 213.029 162.506 212.698 161.862 212.035C161.227 211.363 160.91 210.434 160.91 209.249C160.91 208.456 161.059 207.779 161.358 207.219C161.657 206.659 162.067 206.23 162.59 205.931C163.113 205.632 163.701 205.483 164.354 205.483C165.465 205.483 166.281 205.852 166.804 206.589C167.327 207.317 167.495 208.316 167.308 209.585H162.184C162.287 211.144 163.145 211.923 164.76 211.923C165.647 211.923 166.463 211.671 167.21 211.167V212.273C166.874 212.506 166.482 212.693 166.034 212.833C165.586 212.964 165.124 213.029 164.648 213.029ZM164.326 206.575C163.794 206.575 163.337 206.738 162.954 207.065C162.571 207.392 162.329 207.886 162.226 208.549H166.132C166.16 207.924 166.015 207.438 165.698 207.093C165.381 206.748 164.923 206.575 164.326 206.575ZM168.334 209.249C168.334 208.4 168.483 207.7 168.782 207.149C169.08 206.589 169.477 206.174 169.972 205.903C170.476 205.623 171.022 205.483 171.61 205.483C172.16 205.483 172.636 205.6 173.038 205.833C173.439 206.057 173.761 206.379 174.004 206.799V202.851H175.236V212.889H174.158L174.06 211.461C173.836 211.937 173.518 212.32 173.108 212.609C172.706 212.889 172.202 213.029 171.596 213.029C171.017 213.029 170.476 212.894 169.972 212.623C169.477 212.343 169.08 211.923 168.782 211.363C168.483 210.803 168.334 210.098 168.334 209.249ZM174.018 209.249C174.018 208.344 173.803 207.672 173.374 207.233C172.944 206.794 172.412 206.575 171.778 206.575C171.143 206.575 170.62 206.804 170.21 207.261C169.799 207.709 169.594 208.372 169.594 209.249C169.594 210.136 169.799 210.803 170.21 211.251C170.62 211.699 171.143 211.923 171.778 211.923C172.412 211.923 172.944 211.704 173.374 211.265C173.803 210.826 174.018 210.154 174.018 209.249ZM177.876 204.559C177.624 204.559 177.424 204.484 177.274 204.335C177.125 204.176 177.05 203.985 177.05 203.761C177.05 203.537 177.125 203.346 177.274 203.187C177.424 203.028 177.624 202.949 177.876 202.949C178.119 202.949 178.31 203.028 178.45 203.187C178.59 203.346 178.66 203.537 178.66 203.761C178.66 203.985 178.59 204.176 178.45 204.335C178.31 204.484 178.119 204.559 177.876 204.559ZM177.246 205.623H178.478V212.889H177.246V205.623ZM179.898 206.673V205.623H180.766V204.097H181.998V205.623H184.112V206.673H181.998V211.041C181.998 211.349 182.078 211.573 182.236 211.713C182.395 211.853 182.666 211.923 183.048 211.923C183.412 211.923 183.744 211.82 184.042 211.615V212.735C183.893 212.828 183.697 212.898 183.454 212.945C183.212 213.001 182.969 213.029 182.726 213.029C182.26 213.029 181.882 212.94 181.592 212.763C181.303 212.586 181.093 212.357 180.962 212.077C180.832 211.797 180.766 211.503 180.766 211.195V206.673H179.898ZM188.459 213.029C187.796 213.029 187.199 212.884 186.667 212.595C186.144 212.296 185.729 211.867 185.421 211.307C185.113 210.738 184.959 210.052 184.959 209.249C184.959 208.446 185.113 207.765 185.421 207.205C185.729 206.645 186.144 206.22 186.667 205.931C187.199 205.632 187.796 205.483 188.459 205.483C189.131 205.483 189.733 205.632 190.265 205.931C190.797 206.22 191.217 206.645 191.525 207.205C191.833 207.765 191.987 208.446 191.987 209.249C191.987 210.052 191.833 210.738 191.525 211.307C191.217 211.867 190.797 212.296 190.265 212.595C189.733 212.884 189.131 213.029 188.459 213.029ZM188.459 211.923C189.112 211.923 189.653 211.708 190.083 211.279C190.512 210.84 190.727 210.164 190.727 209.249C190.727 208.334 190.512 207.662 190.083 207.233C189.653 206.794 189.112 206.575 188.459 206.575C187.815 206.575 187.278 206.794 186.849 207.233C186.429 207.662 186.219 208.334 186.219 209.249C186.219 210.164 186.429 210.84 186.849 211.279C187.278 211.708 187.815 211.923 188.459 211.923ZM197.086 206.855C196.508 206.902 196.013 207.046 195.602 207.289C195.201 207.532 194.907 207.858 194.72 208.269V212.889H193.488V205.623H194.566L194.692 207.205H194.72C194.954 206.72 195.271 206.328 195.672 206.029C196.083 205.73 196.554 205.548 197.086 205.483V206.855Z" fill="#18123D"/>
<rect x="105" y="95" width="148" height="42" rx="4" fill="white" stroke="#67B0F8" stroke-width="2"/>
<path d="M146.898 106.575C146.123 106.575 145.339 106.813 144.546 107.289V106.183C144.891 105.968 145.288 105.8 145.736 105.679C146.193 105.548 146.636 105.483 147.066 105.483C147.98 105.483 148.676 105.674 149.152 106.057C149.628 106.44 149.866 107.023 149.866 107.807V111.713C149.866 111.872 149.87 112.077 149.88 112.329C149.898 112.572 149.917 112.758 149.936 112.889H148.816C148.788 112.758 148.76 112.576 148.732 112.343C148.713 112.1 148.704 111.89 148.704 111.713L148.69 111.503C148.578 111.727 148.424 111.96 148.228 112.203C148.032 112.436 147.77 112.632 147.444 112.791C147.126 112.95 146.73 113.029 146.254 113.029C145.6 113.029 145.073 112.842 144.672 112.469C144.27 112.096 144.07 111.568 144.07 110.887C144.07 110.094 144.35 109.51 144.91 109.137C145.47 108.764 146.258 108.577 147.276 108.577H148.634V107.975C148.634 107.471 148.503 107.112 148.242 106.897C147.98 106.682 147.532 106.575 146.898 106.575ZM148.634 110.089V109.557H147.402C146.664 109.557 146.128 109.664 145.792 109.879C145.465 110.094 145.302 110.406 145.302 110.817C145.302 111.144 145.4 111.41 145.596 111.615C145.801 111.82 146.109 111.923 146.52 111.923C146.902 111.923 147.229 111.848 147.5 111.699C147.77 111.54 147.99 111.354 148.158 111.139C148.326 110.915 148.447 110.705 148.522 110.509C148.596 110.313 148.634 110.173 148.634 110.089ZM156.465 111.587C156.269 111.988 155.966 112.329 155.555 112.609C155.154 112.889 154.626 113.029 153.973 113.029C153.301 113.029 152.755 112.838 152.335 112.455C151.924 112.072 151.719 111.489 151.719 110.705V105.623H152.965V110.705C152.965 111.181 153.096 111.503 153.357 111.671C153.618 111.839 153.94 111.923 154.323 111.923C154.864 111.923 155.298 111.802 155.625 111.559C155.952 111.316 156.232 110.985 156.465 110.565V105.623H157.697V112.889H156.605L156.493 111.587H156.465ZM159.201 109.249C159.201 108.4 159.35 107.7 159.649 107.149C159.948 106.589 160.344 106.174 160.839 105.903C161.343 105.623 161.889 105.483 162.477 105.483C163.028 105.483 163.504 105.6 163.905 105.833C164.306 106.057 164.628 106.379 164.871 106.799V102.851H166.103V112.889H165.025L164.927 111.461C164.703 111.937 164.386 112.32 163.975 112.609C163.574 112.889 163.07 113.029 162.463 113.029C161.884 113.029 161.343 112.894 160.839 112.623C160.344 112.343 159.948 111.923 159.649 111.363C159.35 110.803 159.201 110.098 159.201 109.249ZM164.885 109.249C164.885 108.344 164.67 107.672 164.241 107.233C163.812 106.794 163.28 106.575 162.645 106.575C162.01 106.575 161.488 106.804 161.077 107.261C160.666 107.709 160.461 108.372 160.461 109.249C160.461 110.136 160.666 110.803 161.077 111.251C161.488 111.699 162.01 111.923 162.645 111.923C163.28 111.923 163.812 111.704 164.241 111.265C164.67 110.826 164.885 110.154 164.885 109.249ZM168.743 104.559C168.491 104.559 168.291 104.484 168.141 104.335C167.992 104.176 167.917 103.985 167.917 103.761C167.917 103.537 167.992 103.346 168.141 103.187C168.291 103.028 168.491 102.949 168.743 102.949C168.986 102.949 169.177 103.028 169.317 103.187C169.457 103.346 169.527 103.537 169.527 103.761C169.527 103.985 169.457 104.176 169.317 104.335C169.177 104.484 168.986 104.559 168.743 104.559ZM168.113 105.623H169.345V112.889H168.113V105.623ZM170.766 106.673V105.623H171.634V104.097H172.866V105.623H174.98V106.673H172.866V111.041C172.866 111.349 172.945 111.573 173.104 111.713C173.262 111.853 173.533 111.923 173.916 111.923C174.28 111.923 174.611 111.82 174.91 111.615V112.735C174.76 112.828 174.564 112.898 174.322 112.945C174.079 113.001 173.836 113.029 173.594 113.029C173.127 113.029 172.749 112.94 172.46 112.763C172.17 112.586 171.96 112.357 171.83 112.077C171.699 111.797 171.634 111.503 171.634 111.195V106.673H170.766ZM176.244 109.179V108.059H179.604V109.179H176.244ZM180.869 106.673V105.623H181.737V104.097H182.969V105.623H185.083V106.673H182.969V111.041C182.969 111.349 183.049 111.573 183.207 111.713C183.366 111.853 183.637 111.923 184.019 111.923C184.383 111.923 184.715 111.82 185.013 111.615V112.735C184.864 112.828 184.668 112.898 184.425 112.945C184.183 113.001 183.94 113.029 183.697 113.029C183.231 113.029 182.853 112.94 182.563 112.763C182.274 112.586 182.064 112.357 181.933 112.077C181.803 111.797 181.737 111.503 181.737 111.195V106.673H180.869ZM190.25 106.855C189.672 106.902 189.177 107.046 188.766 107.289C188.365 107.532 188.071 107.858 187.884 108.269V112.889H186.652V105.623H187.73L187.856 107.205H187.884C188.118 106.72 188.435 106.328 188.836 106.029C189.247 105.73 189.718 105.548 190.25 105.483V106.855ZM194.079 106.575C193.305 106.575 192.521 106.813 191.727 107.289V106.183C192.073 105.968 192.469 105.8 192.917 105.679C193.375 105.548 193.818 105.483 194.247 105.483C195.162 105.483 195.857 105.674 196.333 106.057C196.809 106.44 197.047 107.023 197.047 107.807V111.713C197.047 111.872 197.052 112.077 197.061 112.329C197.08 112.572 197.099 112.758 197.117 112.889H195.997C195.969 112.758 195.941 112.576 195.913 112.343C195.895 112.1 195.885 111.89 195.885 111.713L195.871 111.503C195.759 111.727 195.605 111.96 195.409 112.203C195.213 112.436 194.952 112.632 194.625 112.791C194.308 112.95 193.911 113.029 193.435 113.029C192.782 113.029 192.255 112.842 191.853 112.469C191.452 112.096 191.251 111.568 191.251 110.887C191.251 110.094 191.531 109.51 192.091 109.137C192.651 108.764 193.44 108.577 194.457 108.577H195.815V107.975C195.815 107.471 195.685 107.112 195.423 106.897C195.162 106.682 194.714 106.575 194.079 106.575ZM195.815 110.089V109.557H194.583C193.846 109.557 193.309 109.664 192.973 109.879C192.647 110.094 192.483 110.406 192.483 110.817C192.483 111.144 192.581 111.41 192.777 111.615C192.983 111.82 193.291 111.923 193.701 111.923C194.084 111.923 194.411 111.848 194.681 111.699C194.952 111.54 195.171 111.354 195.339 111.139C195.507 110.915 195.629 110.705 195.703 110.509C195.778 110.313 195.815 110.173 195.815 110.089ZM199.615 104.559C199.363 104.559 199.162 104.484 199.013 104.335C198.863 104.176 198.789 103.985 198.789 103.761C198.789 103.537 198.863 103.346 199.013 103.187C199.162 103.028 199.363 102.949 199.615 102.949C199.857 102.949 200.049 103.028 200.189 103.187C200.329 103.346 200.399 103.537 200.399 103.761C200.399 103.985 200.329 104.176 200.189 104.335C200.049 104.484 199.857 104.559 199.615 104.559ZM198.985 105.623H200.217V112.889H198.985V105.623ZM202.225 102.851H203.457V112.889H202.225V102.851ZM207.789 113.029C207.257 113.029 206.748 112.954 206.263 112.805C205.787 112.646 205.4 112.436 205.101 112.175V111.069C205.39 111.349 205.778 111.573 206.263 111.741C206.758 111.909 207.262 111.993 207.775 111.993C208.914 111.993 209.483 111.624 209.483 110.887C209.483 110.672 209.432 110.5 209.329 110.369C209.236 110.229 209.058 110.112 208.797 110.019C208.536 109.916 208.158 109.818 207.663 109.725C206.72 109.538 206.062 109.286 205.689 108.969C205.316 108.642 205.129 108.18 205.129 107.583C205.129 106.92 205.386 106.407 205.899 106.043C206.412 105.67 207.122 105.483 208.027 105.483C208.456 105.483 208.876 105.53 209.287 105.623C209.707 105.707 210.048 105.824 210.309 105.973V107.079C209.768 106.706 209.021 106.519 208.069 106.519C207.481 106.519 207.047 106.603 206.767 106.771C206.496 106.939 206.361 107.2 206.361 107.555C206.361 107.742 206.403 107.896 206.487 108.017C206.571 108.138 206.739 108.246 206.991 108.339C207.243 108.432 207.621 108.53 208.125 108.633C208.769 108.764 209.278 108.922 209.651 109.109C210.034 109.286 210.304 109.515 210.463 109.795C210.631 110.075 210.715 110.43 210.715 110.859C210.715 111.54 210.458 112.072 209.945 112.455C209.432 112.838 208.713 113.029 207.789 113.029ZM212.905 112.973C212.643 112.973 212.424 112.889 212.247 112.721C212.079 112.544 211.995 112.334 211.995 112.091C211.995 111.83 212.079 111.615 212.247 111.447C212.424 111.279 212.643 111.195 212.905 111.195C213.166 111.195 213.381 111.279 213.549 111.447C213.717 111.615 213.801 111.83 213.801 112.091C213.801 112.334 213.717 112.544 213.549 112.721C213.381 112.889 213.166 112.973 212.905 112.973ZM162.764 122.575C161.989 122.575 161.205 122.813 160.412 123.289V122.183C160.757 121.968 161.154 121.8 161.602 121.679C162.059 121.548 162.503 121.483 162.932 121.483C163.847 121.483 164.542 121.674 165.018 122.057C165.494 122.44 165.732 123.023 165.732 123.807V127.713C165.732 127.872 165.737 128.077 165.746 128.329C165.765 128.572 165.783 128.758 165.802 128.889H164.682C164.654 128.758 164.626 128.576 164.598 128.343C164.579 128.1 164.57 127.89 164.57 127.713L164.556 127.503C164.444 127.727 164.29 127.96 164.094 128.203C163.898 128.436 163.637 128.632 163.31 128.791C162.993 128.95 162.596 129.029 162.12 129.029C161.467 129.029 160.939 128.842 160.538 128.469C160.137 128.096 159.936 127.568 159.936 126.887C159.936 126.094 160.216 125.51 160.776 125.137C161.336 124.764 162.125 124.577 163.142 124.577H164.5V123.975C164.5 123.471 164.369 123.112 164.108 122.897C163.847 122.682 163.399 122.575 162.764 122.575ZM164.5 126.089V125.557H163.268C162.531 125.557 161.994 125.664 161.658 125.879C161.331 126.094 161.168 126.406 161.168 126.817C161.168 127.144 161.266 127.41 161.462 127.615C161.667 127.82 161.975 127.923 162.386 127.923C162.769 127.923 163.095 127.848 163.366 127.699C163.637 127.54 163.856 127.354 164.024 127.139C164.192 126.915 164.313 126.705 164.388 126.509C164.463 126.313 164.5 126.173 164.5 126.089ZM167.151 125.249C167.151 124.4 167.3 123.7 167.599 123.149C167.898 122.589 168.294 122.174 168.789 121.903C169.293 121.623 169.839 121.483 170.427 121.483C170.978 121.483 171.454 121.6 171.855 121.833C172.256 122.057 172.578 122.379 172.821 122.799V118.851H174.053V128.889H172.975L172.877 127.461C172.653 127.937 172.336 128.32 171.925 128.609C171.524 128.889 171.02 129.029 170.413 129.029C169.834 129.029 169.293 128.894 168.789 128.623C168.294 128.343 167.898 127.923 167.599 127.363C167.3 126.803 167.151 126.098 167.151 125.249ZM172.835 125.249C172.835 124.344 172.62 123.672 172.191 123.233C171.762 122.794 171.23 122.575 170.595 122.575C169.96 122.575 169.438 122.804 169.027 123.261C168.616 123.709 168.411 124.372 168.411 125.249C168.411 126.136 168.616 126.803 169.027 127.251C169.438 127.699 169.96 127.923 170.595 127.923C171.23 127.923 171.762 127.704 172.191 127.265C172.62 126.826 172.835 126.154 172.835 125.249ZM180.656 123.807C180.656 123.34 180.539 123.018 180.306 122.841C180.072 122.664 179.755 122.575 179.354 122.575C178.831 122.575 178.416 122.706 178.108 122.967C177.8 123.219 177.529 123.55 177.296 123.961V128.889H176.064V121.623H177.142L177.268 122.925H177.296C177.492 122.514 177.786 122.174 178.178 121.903C178.579 121.623 179.092 121.483 179.718 121.483C180.268 121.483 180.726 121.618 181.09 121.889C181.454 122.15 181.696 122.547 181.818 123.079C182.023 122.584 182.336 122.197 182.756 121.917C183.185 121.628 183.703 121.483 184.31 121.483C184.972 121.483 185.5 121.674 185.892 122.057C186.293 122.44 186.494 123.018 186.494 123.793V128.889H185.248V123.947C185.248 123.471 185.131 123.126 184.898 122.911C184.664 122.687 184.347 122.575 183.946 122.575C183.414 122.575 182.994 122.729 182.686 123.037C182.378 123.336 182.112 123.69 181.888 124.101V128.889H180.656V123.807ZM189.053 120.559C188.801 120.559 188.6 120.484 188.451 120.335C188.302 120.176 188.227 119.985 188.227 119.761C188.227 119.537 188.302 119.346 188.451 119.187C188.6 119.028 188.801 118.949 189.053 118.949C189.296 118.949 189.487 119.028 189.627 119.187C189.767 119.346 189.837 119.537 189.837 119.761C189.837 119.985 189.767 120.176 189.627 120.335C189.487 120.484 189.296 120.559 189.053 120.559ZM188.423 121.623H189.655V128.889H188.423V121.623ZM195.107 122.575C194.547 122.575 194.09 122.706 193.735 122.967C193.39 123.219 193.11 123.546 192.895 123.947V128.889H191.663V121.623H192.825L192.867 122.925H192.895C193.091 122.514 193.399 122.174 193.819 121.903C194.239 121.623 194.771 121.483 195.415 121.483C196.134 121.483 196.703 121.674 197.123 122.057C197.553 122.44 197.767 123.018 197.767 123.793V128.889H196.535V123.919C196.535 123.424 196.405 123.079 196.143 122.883C195.891 122.678 195.546 122.575 195.107 122.575Z" fill="#18123D"/>
<rect x="287" y="95" width="148" height="42" rx="4" fill="white" stroke="#67B0F8" stroke-width="2"/>
<path d="M346.648 121.029C345.435 121.029 344.506 120.698 343.862 120.035C343.227 119.363 342.91 118.434 342.91 117.249C342.91 116.456 343.059 115.779 343.358 115.219C343.657 114.659 344.067 114.23 344.59 113.931C345.113 113.632 345.701 113.483 346.354 113.483C347.465 113.483 348.281 113.852 348.804 114.589C349.327 115.317 349.495 116.316 349.308 117.585H344.184C344.287 119.144 345.145 119.923 346.76 119.923C347.647 119.923 348.463 119.671 349.21 119.167V120.273C348.874 120.506 348.482 120.693 348.034 120.833C347.586 120.964 347.124 121.029 346.648 121.029ZM346.326 114.575C345.794 114.575 345.337 114.738 344.954 115.065C344.571 115.392 344.329 115.886 344.226 116.549H348.132C348.16 115.924 348.015 115.438 347.698 115.093C347.381 114.748 346.923 114.575 346.326 114.575ZM350.334 117.249C350.334 116.4 350.483 115.7 350.782 115.149C351.08 114.589 351.477 114.174 351.972 113.903C352.476 113.623 353.022 113.483 353.61 113.483C354.16 113.483 354.636 113.6 355.038 113.833C355.439 114.057 355.761 114.379 356.004 114.799V110.851H357.236V120.889H356.158L356.06 119.461C355.836 119.937 355.518 120.32 355.108 120.609C354.706 120.889 354.202 121.029 353.596 121.029C353.017 121.029 352.476 120.894 351.972 120.623C351.477 120.343 351.08 119.923 350.782 119.363C350.483 118.803 350.334 118.098 350.334 117.249ZM356.018 117.249C356.018 116.344 355.803 115.672 355.374 115.233C354.944 114.794 354.412 114.575 353.778 114.575C353.143 114.575 352.62 114.804 352.21 115.261C351.799 115.709 351.594 116.372 351.594 117.249C351.594 118.136 351.799 118.803 352.21 119.251C352.62 119.699 353.143 119.923 353.778 119.923C354.412 119.923 354.944 119.704 355.374 119.265C355.803 118.826 356.018 118.154 356.018 117.249ZM359.876 112.559C359.624 112.559 359.424 112.484 359.274 112.335C359.125 112.176 359.05 111.985 359.05 111.761C359.05 111.537 359.125 111.346 359.274 111.187C359.424 111.028 359.624 110.949 359.876 110.949C360.119 110.949 360.31 111.028 360.45 111.187C360.59 111.346 360.66 111.537 360.66 111.761C360.66 111.985 360.59 112.176 360.45 112.335C360.31 112.484 360.119 112.559 359.876 112.559ZM359.246 113.623H360.478V120.889H359.246V113.623ZM361.898 114.673V113.623H362.766V112.097H363.998V113.623H366.112V114.673H363.998V119.041C363.998 119.349 364.078 119.573 364.236 119.713C364.395 119.853 364.666 119.923 365.048 119.923C365.412 119.923 365.744 119.82 366.042 119.615V120.735C365.893 120.828 365.697 120.898 365.454 120.945C365.212 121.001 364.969 121.029 364.726 121.029C364.26 121.029 363.882 120.94 363.592 120.763C363.303 120.586 363.093 120.357 362.962 120.077C362.832 119.797 362.766 119.503 362.766 119.195V114.673H361.898ZM370.459 121.029C369.796 121.029 369.199 120.884 368.667 120.595C368.144 120.296 367.729 119.867 367.421 119.307C367.113 118.738 366.959 118.052 366.959 117.249C366.959 116.446 367.113 115.765 367.421 115.205C367.729 114.645 368.144 114.22 368.667 113.931C369.199 113.632 369.796 113.483 370.459 113.483C371.131 113.483 371.733 113.632 372.265 113.931C372.797 114.22 373.217 114.645 373.525 115.205C373.833 115.765 373.987 116.446 373.987 117.249C373.987 118.052 373.833 118.738 373.525 119.307C373.217 119.867 372.797 120.296 372.265 120.595C371.733 120.884 371.131 121.029 370.459 121.029ZM370.459 119.923C371.112 119.923 371.653 119.708 372.083 119.279C372.512 118.84 372.727 118.164 372.727 117.249C372.727 116.334 372.512 115.662 372.083 115.233C371.653 114.794 371.112 114.575 370.459 114.575C369.815 114.575 369.278 114.794 368.849 115.233C368.429 115.662 368.219 116.334 368.219 117.249C368.219 118.164 368.429 118.84 368.849 119.279C369.278 119.708 369.815 119.923 370.459 119.923ZM379.086 114.855C378.508 114.902 378.013 115.046 377.602 115.289C377.201 115.532 376.907 115.858 376.72 116.269V120.889H375.488V113.623H376.566L376.692 115.205H376.72C376.954 114.72 377.271 114.328 377.672 114.029C378.083 113.73 378.554 113.548 379.086 113.483V114.855Z" fill="#18123D"/>
<rect x="287" y="11" width="148" height="42" rx="4" fill="white" stroke="#67B0F8" stroke-width="2"/>
<path d="M344.764 30.5749C343.989 30.5749 343.205 30.8129 342.412 31.2889V30.1829C342.757 29.9682 343.154 29.8002 343.602 29.6789C344.059 29.5482 344.503 29.4829 344.932 29.4829C345.847 29.4829 346.542 29.6742 347.018 30.0569C347.494 30.4396 347.732 31.0229 347.732 31.8069V35.7129C347.732 35.8716 347.737 36.0769 347.746 36.3289C347.765 36.5716 347.783 36.7582 347.802 36.8889H346.682C346.654 36.7582 346.626 36.5762 346.598 36.3429C346.579 36.1002 346.57 35.8902 346.57 35.7129L346.556 35.5029C346.444 35.7269 346.29 35.9602 346.094 36.2029C345.898 36.4362 345.637 36.6322 345.31 36.7909C344.993 36.9496 344.596 37.0289 344.12 37.0289C343.467 37.0289 342.939 36.8422 342.538 36.4689C342.137 36.0956 341.936 35.5682 341.936 34.8869C341.936 34.0936 342.216 33.5102 342.776 33.1369C343.336 32.7636 344.125 32.5769 345.142 32.5769H346.5V31.9749C346.5 31.4709 346.369 31.1116 346.108 30.8969C345.847 30.6822 345.399 30.5749 344.764 30.5749ZM346.5 34.0889V33.5569H345.268C344.531 33.5569 343.994 33.6642 343.658 33.8789C343.331 34.0936 343.168 34.4062 343.168 34.8169C343.168 35.1436 343.266 35.4096 343.462 35.6149C343.667 35.8202 343.975 35.9229 344.386 35.9229C344.769 35.9229 345.095 35.8482 345.366 35.6989C345.637 35.5402 345.856 35.3536 346.024 35.1389C346.192 34.9149 346.313 34.7049 346.388 34.5089C346.463 34.3129 346.5 34.1729 346.5 34.0889ZM349.151 33.2489C349.151 32.3996 349.3 31.6996 349.599 31.1489C349.898 30.5889 350.294 30.1736 350.789 29.9029C351.293 29.6229 351.839 29.4829 352.427 29.4829C352.978 29.4829 353.454 29.5996 353.855 29.8329C354.256 30.0569 354.578 30.3789 354.821 30.7989V26.8509H356.053V36.8889H354.975L354.877 35.4609C354.653 35.9369 354.336 36.3196 353.925 36.6089C353.524 36.8889 353.02 37.0289 352.413 37.0289C351.834 37.0289 351.293 36.8936 350.789 36.6229C350.294 36.3429 349.898 35.9229 349.599 35.3629C349.3 34.8029 349.151 34.0982 349.151 33.2489ZM354.835 33.2489C354.835 32.3436 354.62 31.6716 354.191 31.2329C353.762 30.7942 353.23 30.5749 352.595 30.5749C351.96 30.5749 351.438 30.8036 351.027 31.2609C350.616 31.7089 350.411 32.3716 350.411 33.2489C350.411 34.1356 350.616 34.8029 351.027 35.2509C351.438 35.6989 351.96 35.9229 352.595 35.9229C353.23 35.9229 353.762 35.7036 354.191 35.2649C354.62 34.8262 354.835 34.1542 354.835 33.2489ZM362.656 31.8069C362.656 31.3402 362.539 31.0182 362.306 30.8409C362.072 30.6636 361.755 30.5749 361.354 30.5749C360.831 30.5749 360.416 30.7056 360.108 30.9669C359.8 31.2189 359.529 31.5502 359.296 31.9609V36.8889H358.064V29.6229H359.142L359.268 30.9249H359.296C359.492 30.5142 359.786 30.1736 360.178 29.9029C360.579 29.6229 361.092 29.4829 361.718 29.4829C362.268 29.4829 362.726 29.6182 363.09 29.8889C363.454 30.1502 363.696 30.5469 363.818 31.0789C364.023 30.5842 364.336 30.1969 364.756 29.9169C365.185 29.6276 365.703 29.4829 366.31 29.4829C366.972 29.4829 367.5 29.6742 367.892 30.0569C368.293 30.4396 368.494 31.0182 368.494 31.7929V36.8889H367.248V31.9469C367.248 31.4709 367.131 31.1256 366.898 30.9109C366.664 30.6869 366.347 30.5749 365.946 30.5749C365.414 30.5749 364.994 30.7289 364.686 31.0369C364.378 31.3356 364.112 31.6902 363.888 32.1009V36.8889H362.656V31.8069ZM371.053 28.5589C370.801 28.5589 370.6 28.4842 370.451 28.3349C370.302 28.1762 370.227 27.9849 370.227 27.7609C370.227 27.5369 370.302 27.3456 370.451 27.1869C370.6 27.0282 370.801 26.9489 371.053 26.9489C371.296 26.9489 371.487 27.0282 371.627 27.1869C371.767 27.3456 371.837 27.5369 371.837 27.7609C371.837 27.9849 371.767 28.1762 371.627 28.3349C371.487 28.4842 371.296 28.5589 371.053 28.5589ZM370.423 29.6229H371.655V36.8889H370.423V29.6229ZM377.107 30.5749C376.547 30.5749 376.09 30.7056 375.735 30.9669C375.39 31.2189 375.11 31.5456 374.895 31.9469V36.8889H373.663V29.6229H374.825L374.867 30.9249H374.895C375.091 30.5142 375.399 30.1736 375.819 29.9029C376.239 29.6229 376.771 29.4829 377.415 29.4829C378.134 29.4829 378.703 29.6742 379.123 30.0569C379.553 30.4396 379.767 31.0182 379.767 31.7929V36.8889H378.535V31.9189C378.535 31.4242 378.405 31.0789 378.143 30.8829C377.891 30.6776 377.546 30.5749 377.107 30.5749Z" fill="#18123D"/>
<path d="M179 222L173.226 232L184.774 232L179 222ZM178 231L178 262L180 262L180 231L178 231Z" fill="#4E496B"/>
<path d="M361 138L366.774 148L355.226 148L361 138ZM362 147L362 178L360 178L360 147L362 147Z" fill="#4E496B"/>
<path d="M361 232L361 262" stroke="#4E496B" stroke-width="2"/>
<path d="M179 138L173.226 148L184.774 148L179 138ZM178 147L178 177L180 177L180 147L178 147Z" fill="#4E496B"/>
<rect x="105" y="347" width="148" height="42" rx="4" fill="white" stroke="#67B0F8" stroke-width="2"/>
<path d="M146.898 358.575C146.123 358.575 145.339 358.813 144.546 359.289V358.183C144.891 357.968 145.288 357.8 145.736 357.679C146.193 357.548 146.636 357.483 147.066 357.483C147.98 357.483 148.676 357.674 149.152 358.057C149.628 358.44 149.866 359.023 149.866 359.807V363.713C149.866 363.872 149.87 364.077 149.88 364.329C149.898 364.572 149.917 364.758 149.936 364.889H148.816C148.788 364.758 148.76 364.576 148.732 364.343C148.713 364.1 148.704 363.89 148.704 363.713L148.69 363.503C148.578 363.727 148.424 363.96 148.228 364.203C148.032 364.436 147.77 364.632 147.444 364.791C147.126 364.95 146.73 365.029 146.254 365.029C145.6 365.029 145.073 364.842 144.672 364.469C144.27 364.096 144.07 363.568 144.07 362.887C144.07 362.094 144.35 361.51 144.91 361.137C145.47 360.764 146.258 360.577 147.276 360.577H148.634V359.975C148.634 359.471 148.503 359.112 148.242 358.897C147.98 358.682 147.532 358.575 146.898 358.575ZM148.634 362.089V361.557H147.402C146.664 361.557 146.128 361.664 145.792 361.879C145.465 362.094 145.302 362.406 145.302 362.817C145.302 363.144 145.4 363.41 145.596 363.615C145.801 363.82 146.109 363.923 146.52 363.923C146.902 363.923 147.229 363.848 147.5 363.699C147.77 363.54 147.99 363.354 148.158 363.139C148.326 362.915 148.447 362.705 148.522 362.509C148.596 362.313 148.634 362.173 148.634 362.089ZM156.465 363.587C156.269 363.988 155.966 364.329 155.555 364.609C155.154 364.889 154.626 365.029 153.973 365.029C153.301 365.029 152.755 364.838 152.335 364.455C151.924 364.072 151.719 363.489 151.719 362.705V357.623H152.965V362.705C152.965 363.181 153.096 363.503 153.357 363.671C153.618 363.839 153.94 363.923 154.323 363.923C154.864 363.923 155.298 363.802 155.625 363.559C155.952 363.316 156.232 362.985 156.465 362.565V357.623H157.697V364.889H156.605L156.493 363.587H156.465ZM159.201 361.249C159.201 360.4 159.35 359.7 159.649 359.149C159.948 358.589 160.344 358.174 160.839 357.903C161.343 357.623 161.889 357.483 162.477 357.483C163.028 357.483 163.504 357.6 163.905 357.833C164.306 358.057 164.628 358.379 164.871 358.799V354.851H166.103V364.889H165.025L164.927 363.461C164.703 363.937 164.386 364.32 163.975 364.609C163.574 364.889 163.07 365.029 162.463 365.029C161.884 365.029 161.343 364.894 160.839 364.623C160.344 364.343 159.948 363.923 159.649 363.363C159.35 362.803 159.201 362.098 159.201 361.249ZM164.885 361.249C164.885 360.344 164.67 359.672 164.241 359.233C163.812 358.794 163.28 358.575 162.645 358.575C162.01 358.575 161.488 358.804 161.077 359.261C160.666 359.709 160.461 360.372 160.461 361.249C160.461 362.136 160.666 362.803 161.077 363.251C161.488 363.699 162.01 363.923 162.645 363.923C163.28 363.923 163.812 363.704 164.241 363.265C164.67 362.826 164.885 362.154 164.885 361.249ZM168.743 356.559C168.491 356.559 168.291 356.484 168.141 356.335C167.992 356.176 167.917 355.985 167.917 355.761C167.917 355.537 167.992 355.346 168.141 355.187C168.291 355.028 168.491 354.949 168.743 354.949C168.986 354.949 169.177 355.028 169.317 355.187C169.457 355.346 169.527 355.537 169.527 355.761C169.527 355.985 169.457 356.176 169.317 356.335C169.177 356.484 168.986 356.559 168.743 356.559ZM168.113 357.623H169.345V364.889H168.113V357.623ZM170.766 358.673V357.623H171.634V356.097H172.866V357.623H174.98V358.673H172.866V363.041C172.866 363.349 172.945 363.573 173.104 363.713C173.262 363.853 173.533 363.923 173.916 363.923C174.28 363.923 174.611 363.82 174.91 363.615V364.735C174.76 364.828 174.564 364.898 174.322 364.945C174.079 365.001 173.836 365.029 173.594 365.029C173.127 365.029 172.749 364.94 172.46 364.763C172.17 364.586 171.96 364.357 171.83 364.077C171.699 363.797 171.634 363.503 171.634 363.195V358.673H170.766ZM176.244 361.179V360.059H179.604V361.179H176.244ZM180.869 358.673V357.623H181.737V356.097H182.969V357.623H185.083V358.673H182.969V363.041C182.969 363.349 183.049 363.573 183.207 363.713C183.366 363.853 183.637 363.923 184.019 363.923C184.383 363.923 184.715 363.82 185.013 363.615V364.735C184.864 364.828 184.668 364.898 184.425 364.945C184.183 365.001 183.94 365.029 183.697 365.029C183.231 365.029 182.853 364.94 182.563 364.763C182.274 364.586 182.064 364.357 181.933 364.077C181.803 363.797 181.737 363.503 181.737 363.195V358.673H180.869ZM190.25 358.855C189.672 358.902 189.177 359.046 188.766 359.289C188.365 359.532 188.071 359.858 187.884 360.269V364.889H186.652V357.623H187.73L187.856 359.205H187.884C188.118 358.72 188.435 358.328 188.836 358.029C189.247 357.73 189.718 357.548 190.25 357.483V358.855ZM194.079 358.575C193.305 358.575 192.521 358.813 191.727 359.289V358.183C192.073 357.968 192.469 357.8 192.917 357.679C193.375 357.548 193.818 357.483 194.247 357.483C195.162 357.483 195.857 357.674 196.333 358.057C196.809 358.44 197.047 359.023 197.047 359.807V363.713C197.047 363.872 197.052 364.077 197.061 364.329C197.08 364.572 197.099 364.758 197.117 364.889H195.997C195.969 364.758 195.941 364.576 195.913 364.343C195.895 364.1 195.885 363.89 195.885 363.713L195.871 363.503C195.759 363.727 195.605 363.96 195.409 364.203C195.213 364.436 194.952 364.632 194.625 364.791C194.308 364.95 193.911 365.029 193.435 365.029C192.782 365.029 192.255 364.842 191.853 364.469C191.452 364.096 191.251 363.568 191.251 362.887C191.251 362.094 191.531 361.51 192.091 361.137C192.651 360.764 193.44 360.577 194.457 360.577H195.815V359.975C195.815 359.471 195.685 359.112 195.423 358.897C195.162 358.682 194.714 358.575 194.079 358.575ZM195.815 362.089V361.557H194.583C193.846 361.557 193.309 361.664 192.973 361.879C192.647 362.094 192.483 362.406 192.483 362.817C192.483 363.144 192.581 363.41 192.777 363.615C192.983 363.82 193.291 363.923 193.701 363.923C194.084 363.923 194.411 363.848 194.681 363.699C194.952 363.54 195.171 363.354 195.339 363.139C195.507 362.915 195.629 362.705 195.703 362.509C195.778 362.313 195.815 362.173 195.815 362.089ZM199.615 356.559C199.363 356.559 199.162 356.484 199.013 356.335C198.863 356.176 198.789 355.985 198.789 355.761C198.789 355.537 198.863 355.346 199.013 355.187C199.162 355.028 199.363 354.949 199.615 354.949C199.857 354.949 200.049 355.028 200.189 355.187C200.329 355.346 200.399 355.537 200.399 355.761C200.399 355.985 200.329 356.176 200.189 356.335C200.049 356.484 199.857 356.559 199.615 356.559ZM198.985 357.623H200.217V364.889H198.985V357.623ZM202.225 354.851H203.457V364.889H202.225V354.851ZM207.789 365.029C207.257 365.029 206.748 364.954 206.263 364.805C205.787 364.646 205.4 364.436 205.101 364.175V363.069C205.39 363.349 205.778 363.573 206.263 363.741C206.758 363.909 207.262 363.993 207.775 363.993C208.914 363.993 209.483 363.624 209.483 362.887C209.483 362.672 209.432 362.5 209.329 362.369C209.236 362.229 209.058 362.112 208.797 362.019C208.536 361.916 208.158 361.818 207.663 361.725C206.72 361.538 206.062 361.286 205.689 360.969C205.316 360.642 205.129 360.18 205.129 359.583C205.129 358.92 205.386 358.407 205.899 358.043C206.412 357.67 207.122 357.483 208.027 357.483C208.456 357.483 208.876 357.53 209.287 357.623C209.707 357.707 210.048 357.824 210.309 357.973V359.079C209.768 358.706 209.021 358.519 208.069 358.519C207.481 358.519 207.047 358.603 206.767 358.771C206.496 358.939 206.361 359.2 206.361 359.555C206.361 359.742 206.403 359.896 206.487 360.017C206.571 360.138 206.739 360.246 206.991 360.339C207.243 360.432 207.621 360.53 208.125 360.633C208.769 360.764 209.278 360.922 209.651 361.109C210.034 361.286 210.304 361.515 210.463 361.795C210.631 362.075 210.715 362.43 210.715 362.859C210.715 363.54 210.458 364.072 209.945 364.455C209.432 364.838 208.713 365.029 207.789 365.029ZM212.905 364.973C212.643 364.973 212.424 364.889 212.247 364.721C212.079 364.544 211.995 364.334 211.995 364.091C211.995 363.83 212.079 363.615 212.247 363.447C212.424 363.279 212.643 363.195 212.905 363.195C213.166 363.195 213.381 363.279 213.549 363.447C213.717 363.615 213.801 363.83 213.801 364.091C213.801 364.334 213.717 364.544 213.549 364.721C213.381 364.889 213.166 364.973 212.905 364.973ZM141.588 381.029C140.459 381.029 139.568 380.698 138.914 380.035C138.261 379.363 137.934 378.434 137.934 377.249C137.934 376.064 138.266 375.14 138.928 374.477C139.591 373.814 140.496 373.483 141.644 373.483C142.083 373.483 142.494 373.534 142.876 373.637C143.259 373.73 143.567 373.87 143.8 374.057V375.163C143.166 374.771 142.452 374.575 141.658 374.575C140.818 374.575 140.198 374.799 139.796 375.247C139.395 375.686 139.194 376.353 139.194 377.249C139.194 378.145 139.386 378.817 139.768 379.265C140.16 379.704 140.767 379.923 141.588 379.923C142.382 379.923 143.119 379.732 143.8 379.349V380.455C143.194 380.838 142.456 381.029 141.588 381.029ZM148.284 381.029C147.621 381.029 147.024 380.884 146.492 380.595C145.969 380.296 145.554 379.867 145.246 379.307C144.938 378.738 144.784 378.052 144.784 377.249C144.784 376.446 144.938 375.765 145.246 375.205C145.554 374.645 145.969 374.22 146.492 373.931C147.024 373.632 147.621 373.483 148.284 373.483C148.956 373.483 149.558 373.632 150.09 373.931C150.622 374.22 151.042 374.645 151.35 375.205C151.658 375.765 151.812 376.446 151.812 377.249C151.812 378.052 151.658 378.738 151.35 379.307C151.042 379.867 150.622 380.296 150.09 380.595C149.558 380.884 148.956 381.029 148.284 381.029ZM148.284 379.923C148.937 379.923 149.479 379.708 149.908 379.279C150.337 378.84 150.552 378.164 150.552 377.249C150.552 376.334 150.337 375.662 149.908 375.233C149.479 374.794 148.937 374.575 148.284 374.575C147.64 374.575 147.103 374.794 146.674 375.233C146.254 375.662 146.044 376.334 146.044 377.249C146.044 378.164 146.254 378.84 146.674 379.279C147.103 379.708 147.64 379.923 148.284 379.923ZM156.758 374.575C156.198 374.575 155.74 374.706 155.386 374.967C155.04 375.219 154.76 375.546 154.546 375.947V380.889H153.314V373.623H154.476L154.518 374.925H154.546C154.742 374.514 155.05 374.174 155.47 373.903C155.89 373.623 156.422 373.483 157.066 373.483C157.784 373.483 158.354 373.674 158.774 374.057C159.203 374.44 159.418 375.018 159.418 375.793V380.889H158.186V375.919C158.186 375.424 158.055 375.079 157.794 374.883C157.542 374.678 157.196 374.575 156.758 374.575ZM161.8 380.889V374.673H160.918V373.623H161.8V373.441C161.8 372.582 162.029 371.915 162.486 371.439C162.944 370.963 163.569 370.725 164.362 370.725C164.717 370.725 165.025 370.767 165.286 370.851V371.971C165.202 371.934 165.081 371.901 164.922 371.873C164.764 371.845 164.596 371.831 164.418 371.831C163.989 371.831 163.648 371.962 163.396 372.223C163.154 372.484 163.032 372.89 163.032 373.441V373.623H165.132V374.673H163.032V380.889H161.8ZM167.205 372.559C166.953 372.559 166.753 372.484 166.603 372.335C166.454 372.176 166.379 371.985 166.379 371.761C166.379 371.537 166.454 371.346 166.603 371.187C166.753 371.028 166.953 370.949 167.205 370.949C167.448 370.949 167.639 371.028 167.779 371.187C167.919 371.346 167.989 371.537 167.989 371.761C167.989 371.985 167.919 372.176 167.779 372.335C167.639 372.484 167.448 372.559 167.205 372.559ZM166.575 373.623H167.807V380.889H166.575V373.623ZM169.9 382.793V381.687C170.292 381.902 170.684 382.056 171.076 382.149C171.468 382.242 171.916 382.289 172.42 382.289C173.316 382.289 173.941 382.116 174.296 381.771C174.65 381.435 174.828 380.94 174.828 380.287V379.167C174.613 379.596 174.31 379.942 173.918 380.203C173.535 380.464 173.059 380.595 172.49 380.595C171.92 380.595 171.388 380.464 170.894 380.203C170.408 379.932 170.016 379.536 169.718 379.013C169.428 378.49 169.284 377.837 169.284 377.053C169.284 376.26 169.428 375.602 169.718 375.079C170.016 374.547 170.408 374.15 170.894 373.889C171.388 373.618 171.93 373.483 172.518 373.483C173.096 373.483 173.582 373.614 173.974 373.875C174.375 374.136 174.688 374.491 174.912 374.939L174.926 374.785C174.926 374.617 174.935 374.416 174.954 374.183C174.972 373.94 174.991 373.754 175.01 373.623H176.13C176.111 373.744 176.092 373.931 176.074 374.183C176.064 374.426 176.06 374.626 176.06 374.785V380.273C176.06 380.898 175.934 381.444 175.682 381.911C175.439 382.378 175.052 382.742 174.52 383.003C173.988 383.264 173.283 383.395 172.406 383.395C171.342 383.395 170.506 383.194 169.9 382.793ZM174.842 377.053C174.842 376.222 174.636 375.602 174.226 375.191C173.824 374.78 173.316 374.575 172.7 374.575C172.084 374.575 171.566 374.78 171.146 375.191C170.735 375.602 170.53 376.222 170.53 377.053C170.53 377.865 170.735 378.476 171.146 378.887C171.566 379.288 172.088 379.489 172.714 379.489C173.32 379.489 173.824 379.288 174.226 378.887C174.636 378.486 174.842 377.874 174.842 377.053ZM180.762 380.889L177.262 370.851H178.634L181.84 380.091L185.046 370.851H186.306L182.82 380.889H180.762ZM188.151 372.559C187.899 372.559 187.698 372.484 187.549 372.335C187.399 372.176 187.325 371.985 187.325 371.761C187.325 371.537 187.399 371.346 187.549 371.187C187.698 371.028 187.899 370.949 188.151 370.949C188.393 370.949 188.585 371.028 188.725 371.187C188.865 371.346 188.935 371.537 188.935 371.761C188.935 371.985 188.865 372.176 188.725 372.335C188.585 372.484 188.393 372.559 188.151 372.559ZM187.521 373.623H188.753V380.889H187.521V373.623ZM193.981 381.029C192.768 381.029 191.839 380.698 191.195 380.035C190.56 379.363 190.243 378.434 190.243 377.249C190.243 376.456 190.392 375.779 190.691 375.219C190.99 374.659 191.4 374.23 191.923 373.931C192.446 373.632 193.034 373.483 193.687 373.483C194.798 373.483 195.614 373.852 196.137 374.589C196.66 375.317 196.828 376.316 196.641 377.585H191.517C191.62 379.144 192.478 379.923 194.093 379.923C194.98 379.923 195.796 379.671 196.543 379.167V380.273C196.207 380.506 195.815 380.693 195.367 380.833C194.919 380.964 194.457 381.029 193.981 381.029ZM193.659 374.575C193.127 374.575 192.67 374.738 192.287 375.065C191.904 375.392 191.662 375.886 191.559 376.549H195.465C195.493 375.924 195.348 375.438 195.031 375.093C194.714 374.748 194.256 374.575 193.659 374.575ZM207.747 373.623L206.095 380.889H204.205L202.665 375.275L201.083 380.889H199.249L197.597 373.623H198.899L200.285 379.965L202.049 373.623H203.435L205.157 379.895L206.529 373.623H207.747ZM212.26 381.029C211.047 381.029 210.118 380.698 209.474 380.035C208.84 379.363 208.522 378.434 208.522 377.249C208.522 376.456 208.672 375.779 208.97 375.219C209.269 374.659 209.68 374.23 210.202 373.931C210.725 373.632 211.313 373.483 211.966 373.483C213.077 373.483 213.894 373.852 214.416 374.589C214.939 375.317 215.107 376.316 214.92 377.585H209.796C209.899 379.144 210.758 379.923 212.372 379.923C213.259 379.923 214.076 379.671 214.822 379.167V380.273C214.486 380.506 214.094 380.693 213.646 380.833C213.198 380.964 212.736 381.029 212.26 381.029ZM211.938 374.575C211.406 374.575 210.949 374.738 210.566 375.065C210.184 375.392 209.941 375.886 209.838 376.549H213.744C213.772 375.924 213.628 375.438 213.31 375.093C212.993 374.748 212.536 374.575 211.938 374.575ZM220.062 374.855C219.483 374.902 218.989 375.046 218.578 375.289C218.177 375.532 217.883 375.858 217.696 376.269V380.889H216.464V373.623H217.542L217.668 375.205H217.696C217.929 374.72 218.247 374.328 218.648 374.029C219.059 373.73 219.53 373.548 220.062 373.483V374.855Z" fill="#18123D"/>
<path d="M179 306L173.226 316L184.774 316L179 306ZM178 315L178 345L180 345L180 315L178 315Z" fill="#4E496B"/>
<rect x="287" y="179" width="148" height="42" rx="4" fill="white" stroke="#67B0F8" stroke-width="2"/>
<path d="M340.495 197.623H341.825L344.037 204.231L346.235 197.623H347.467L344.975 204.889H342.987L340.495 197.623ZM349.24 196.559C348.988 196.559 348.787 196.484 348.638 196.335C348.488 196.176 348.414 195.985 348.414 195.761C348.414 195.537 348.488 195.346 348.638 195.187C348.787 195.028 348.988 194.949 349.24 194.949C349.482 194.949 349.674 195.028 349.814 195.187C349.954 195.346 350.024 195.537 350.024 195.761C350.024 195.985 349.954 196.176 349.814 196.335C349.674 196.484 349.482 196.559 349.24 196.559ZM348.61 197.623H349.842V204.889H348.61V197.623ZM355.07 205.029C353.856 205.029 352.928 204.698 352.284 204.035C351.649 203.363 351.332 202.434 351.332 201.249C351.332 200.456 351.481 199.779 351.78 199.219C352.078 198.659 352.489 198.23 353.012 197.931C353.534 197.632 354.122 197.483 354.776 197.483C355.886 197.483 356.703 197.852 357.226 198.589C357.748 199.317 357.916 200.316 357.73 201.585H352.606C352.708 203.144 353.567 203.923 355.182 203.923C356.068 203.923 356.885 203.671 357.632 203.167V204.273C357.296 204.506 356.904 204.693 356.456 204.833C356.008 204.964 355.546 205.029 355.07 205.029ZM354.748 198.575C354.216 198.575 353.758 198.738 353.376 199.065C352.993 199.392 352.75 199.886 352.648 200.549H356.554C356.582 199.924 356.437 199.438 356.12 199.093C355.802 198.748 355.345 198.575 354.748 198.575ZM368.836 197.623L367.184 204.889H365.294L363.754 199.275L362.172 204.889H360.338L358.686 197.623H359.988L361.374 203.965L363.138 197.623H364.524L366.246 203.895L367.618 197.623H368.836ZM373.349 205.029C372.136 205.029 371.207 204.698 370.563 204.035C369.928 203.363 369.611 202.434 369.611 201.249C369.611 200.456 369.76 199.779 370.059 199.219C370.358 198.659 370.768 198.23 371.291 197.931C371.814 197.632 372.402 197.483 373.055 197.483C374.166 197.483 374.982 197.852 375.505 198.589C376.028 199.317 376.196 200.316 376.009 201.585H370.885C370.988 203.144 371.846 203.923 373.461 203.923C374.348 203.923 375.164 203.671 375.911 203.167V204.273C375.575 204.506 375.183 204.693 374.735 204.833C374.287 204.964 373.825 205.029 373.349 205.029ZM373.027 198.575C372.495 198.575 372.038 198.738 371.655 199.065C371.272 199.392 371.03 199.886 370.927 200.549H374.833C374.861 199.924 374.716 199.438 374.399 199.093C374.082 198.748 373.624 198.575 373.027 198.575ZM381.151 198.855C380.572 198.902 380.078 199.046 379.667 199.289C379.266 199.532 378.972 199.858 378.785 200.269V204.889H377.553V197.623H378.631L378.757 199.205H378.785C379.018 198.72 379.336 198.328 379.737 198.029C380.148 197.73 380.619 197.548 381.151 197.483V198.855Z" fill="#18123D"/>
<rect x="287" y="263" width="148" height="42" rx="4" fill="white" stroke="#67B0F8" stroke-width="2"/>
<path d="M341.961 282.575C341.187 282.575 340.403 282.813 339.609 283.289V282.183C339.955 281.968 340.351 281.8 340.799 281.679C341.257 281.548 341.7 281.483 342.129 281.483C343.044 281.483 343.739 281.674 344.215 282.057C344.691 282.44 344.929 283.023 344.929 283.807V287.713C344.929 287.872 344.934 288.077 344.943 288.329C344.962 288.572 344.981 288.758 344.999 288.889H343.879C343.851 288.758 343.823 288.576 343.795 288.343C343.777 288.1 343.767 287.89 343.767 287.713L343.753 287.503C343.641 287.727 343.487 287.96 343.291 288.203C343.095 288.436 342.834 288.632 342.507 288.791C342.19 288.95 341.793 289.029 341.317 289.029C340.664 289.029 340.137 288.842 339.735 288.469C339.334 288.096 339.133 287.568 339.133 286.887C339.133 286.094 339.413 285.51 339.973 285.137C340.533 284.764 341.322 284.577 342.339 284.577H343.697V283.975C343.697 283.471 343.567 283.112 343.305 282.897C343.044 282.682 342.596 282.575 341.961 282.575ZM343.697 286.089V285.557H342.465C341.728 285.557 341.191 285.664 340.855 285.879C340.529 286.094 340.365 286.406 340.365 286.817C340.365 287.144 340.463 287.41 340.659 287.615C340.865 287.82 341.173 287.923 341.583 287.923C341.966 287.923 342.293 287.848 342.563 287.699C342.834 287.54 343.053 287.354 343.221 287.139C343.389 286.915 343.511 286.705 343.585 286.509C343.66 286.313 343.697 286.173 343.697 286.089ZM351.528 287.587C351.332 287.988 351.029 288.329 350.618 288.609C350.217 288.889 349.69 289.029 349.036 289.029C348.364 289.029 347.818 288.838 347.398 288.455C346.988 288.072 346.782 287.489 346.782 286.705V281.623H348.028V286.705C348.028 287.181 348.159 287.503 348.42 287.671C348.682 287.839 349.004 287.923 349.386 287.923C349.928 287.923 350.362 287.802 350.688 287.559C351.015 287.316 351.295 286.985 351.528 286.565V281.623H352.76V288.889H351.668L351.556 287.587H351.528ZM354.264 285.249C354.264 284.4 354.414 283.7 354.712 283.149C355.011 282.589 355.408 282.174 355.902 281.903C356.406 281.623 356.952 281.483 357.54 281.483C358.091 281.483 358.567 281.6 358.968 281.833C359.37 282.057 359.692 282.379 359.934 282.799V278.851H361.166V288.889H360.088L359.99 287.461C359.766 287.937 359.449 288.32 359.038 288.609C358.637 288.889 358.133 289.029 357.526 289.029C356.948 289.029 356.406 288.894 355.902 288.623C355.408 288.343 355.011 287.923 354.712 287.363C354.414 286.803 354.264 286.098 354.264 285.249ZM359.948 285.249C359.948 284.344 359.734 283.672 359.304 283.233C358.875 282.794 358.343 282.575 357.708 282.575C357.074 282.575 356.551 282.804 356.14 283.261C355.73 283.709 355.524 284.372 355.524 285.249C355.524 286.136 355.73 286.803 356.14 287.251C356.551 287.699 357.074 287.923 357.708 287.923C358.343 287.923 358.875 287.704 359.304 287.265C359.734 286.826 359.948 286.154 359.948 285.249ZM363.807 280.559C363.555 280.559 363.354 280.484 363.205 280.335C363.056 280.176 362.981 279.985 362.981 279.761C362.981 279.537 363.056 279.346 363.205 279.187C363.354 279.028 363.555 278.949 363.807 278.949C364.05 278.949 364.241 279.028 364.381 279.187C364.521 279.346 364.591 279.537 364.591 279.761C364.591 279.985 364.521 280.176 364.381 280.335C364.241 280.484 364.05 280.559 363.807 280.559ZM363.177 281.623H364.409V288.889H363.177V281.623ZM365.829 282.673V281.623H366.697V280.097H367.929V281.623H370.043V282.673H367.929V287.041C367.929 287.349 368.008 287.573 368.167 287.713C368.326 287.853 368.596 287.923 368.979 287.923C369.343 287.923 369.674 287.82 369.973 287.615V288.735C369.824 288.828 369.628 288.898 369.385 288.945C369.142 289.001 368.9 289.029 368.657 289.029C368.19 289.029 367.812 288.94 367.523 288.763C367.234 288.586 367.024 288.357 366.893 288.077C366.762 287.797 366.697 287.503 366.697 287.195V282.673H365.829ZM374.389 289.029C373.727 289.029 373.129 288.884 372.597 288.595C372.075 288.296 371.659 287.867 371.351 287.307C371.043 286.738 370.889 286.052 370.889 285.249C370.889 284.446 371.043 283.765 371.351 283.205C371.659 282.645 372.075 282.22 372.597 281.931C373.129 281.632 373.727 281.483 374.389 281.483C375.061 281.483 375.663 281.632 376.195 281.931C376.727 282.22 377.147 282.645 377.455 283.205C377.763 283.765 377.917 284.446 377.917 285.249C377.917 286.052 377.763 286.738 377.455 287.307C377.147 287.867 376.727 288.296 376.195 288.595C375.663 288.884 375.061 289.029 374.389 289.029ZM374.389 287.923C375.043 287.923 375.584 287.708 376.013 287.279C376.443 286.84 376.657 286.164 376.657 285.249C376.657 284.334 376.443 283.662 376.013 283.233C375.584 282.794 375.043 282.575 374.389 282.575C373.745 282.575 373.209 282.794 372.779 283.233C372.359 283.662 372.149 284.334 372.149 285.249C372.149 286.164 372.359 286.84 372.779 287.279C373.209 287.708 373.745 287.923 374.389 287.923ZM383.017 282.855C382.438 282.902 381.944 283.046 381.533 283.289C381.132 283.532 380.838 283.858 380.651 284.269V288.889H379.419V281.623H380.497L380.623 283.205H380.651C380.884 282.72 381.202 282.328 381.603 282.029C382.014 281.73 382.485 281.548 383.017 281.483V282.855Z" fill="#18123D"/>
<rect x="105" y="263" width="148" height="42" rx="4" fill="white" stroke="#67B0F8" stroke-width="2"/>
<path d="M146.898 274.575C146.123 274.575 145.339 274.813 144.546 275.289V274.183C144.891 273.968 145.288 273.8 145.736 273.679C146.193 273.548 146.636 273.483 147.066 273.483C147.98 273.483 148.676 273.674 149.152 274.057C149.628 274.44 149.866 275.023 149.866 275.807V279.713C149.866 279.872 149.87 280.077 149.88 280.329C149.898 280.572 149.917 280.758 149.936 280.889H148.816C148.788 280.758 148.76 280.576 148.732 280.343C148.713 280.1 148.704 279.89 148.704 279.713L148.69 279.503C148.578 279.727 148.424 279.96 148.228 280.203C148.032 280.436 147.77 280.632 147.444 280.791C147.126 280.95 146.73 281.029 146.254 281.029C145.6 281.029 145.073 280.842 144.672 280.469C144.27 280.096 144.07 279.568 144.07 278.887C144.07 278.094 144.35 277.51 144.91 277.137C145.47 276.764 146.258 276.577 147.276 276.577H148.634V275.975C148.634 275.471 148.503 275.112 148.242 274.897C147.98 274.682 147.532 274.575 146.898 274.575ZM148.634 278.089V277.557H147.402C146.664 277.557 146.128 277.664 145.792 277.879C145.465 278.094 145.302 278.406 145.302 278.817C145.302 279.144 145.4 279.41 145.596 279.615C145.801 279.82 146.109 279.923 146.52 279.923C146.902 279.923 147.229 279.848 147.5 279.699C147.77 279.54 147.99 279.354 148.158 279.139C148.326 278.915 148.447 278.705 148.522 278.509C148.596 278.313 148.634 278.173 148.634 278.089ZM156.465 279.587C156.269 279.988 155.966 280.329 155.555 280.609C155.154 280.889 154.626 281.029 153.973 281.029C153.301 281.029 152.755 280.838 152.335 280.455C151.924 280.072 151.719 279.489 151.719 278.705V273.623H152.965V278.705C152.965 279.181 153.096 279.503 153.357 279.671C153.618 279.839 153.94 279.923 154.323 279.923C154.864 279.923 155.298 279.802 155.625 279.559C155.952 279.316 156.232 278.985 156.465 278.565V273.623H157.697V280.889H156.605L156.493 279.587H156.465ZM159.201 277.249C159.201 276.4 159.35 275.7 159.649 275.149C159.948 274.589 160.344 274.174 160.839 273.903C161.343 273.623 161.889 273.483 162.477 273.483C163.028 273.483 163.504 273.6 163.905 273.833C164.306 274.057 164.628 274.379 164.871 274.799V270.851H166.103V280.889H165.025L164.927 279.461C164.703 279.937 164.386 280.32 163.975 280.609C163.574 280.889 163.07 281.029 162.463 281.029C161.884 281.029 161.343 280.894 160.839 280.623C160.344 280.343 159.948 279.923 159.649 279.363C159.35 278.803 159.201 278.098 159.201 277.249ZM164.885 277.249C164.885 276.344 164.67 275.672 164.241 275.233C163.812 274.794 163.28 274.575 162.645 274.575C162.01 274.575 161.488 274.804 161.077 275.261C160.666 275.709 160.461 276.372 160.461 277.249C160.461 278.136 160.666 278.803 161.077 279.251C161.488 279.699 162.01 279.923 162.645 279.923C163.28 279.923 163.812 279.704 164.241 279.265C164.67 278.826 164.885 278.154 164.885 277.249ZM168.743 272.559C168.491 272.559 168.291 272.484 168.141 272.335C167.992 272.176 167.917 271.985 167.917 271.761C167.917 271.537 167.992 271.346 168.141 271.187C168.291 271.028 168.491 270.949 168.743 270.949C168.986 270.949 169.177 271.028 169.317 271.187C169.457 271.346 169.527 271.537 169.527 271.761C169.527 271.985 169.457 272.176 169.317 272.335C169.177 272.484 168.986 272.559 168.743 272.559ZM168.113 273.623H169.345V280.889H168.113V273.623ZM170.766 274.673V273.623H171.634V272.097H172.866V273.623H174.98V274.673H172.866V279.041C172.866 279.349 172.945 279.573 173.104 279.713C173.262 279.853 173.533 279.923 173.916 279.923C174.28 279.923 174.611 279.82 174.91 279.615V280.735C174.76 280.828 174.564 280.898 174.322 280.945C174.079 281.001 173.836 281.029 173.594 281.029C173.127 281.029 172.749 280.94 172.46 280.763C172.17 280.586 171.96 280.357 171.83 280.077C171.699 279.797 171.634 279.503 171.634 279.195V274.673H170.766ZM176.244 277.179V276.059H179.604V277.179H176.244ZM180.869 274.673V273.623H181.737V272.097H182.969V273.623H185.083V274.673H182.969V279.041C182.969 279.349 183.049 279.573 183.207 279.713C183.366 279.853 183.637 279.923 184.019 279.923C184.383 279.923 184.715 279.82 185.013 279.615V280.735C184.864 280.828 184.668 280.898 184.425 280.945C184.183 281.001 183.94 281.029 183.697 281.029C183.231 281.029 182.853 280.94 182.563 280.763C182.274 280.586 182.064 280.357 181.933 280.077C181.803 279.797 181.737 279.503 181.737 279.195V274.673H180.869ZM190.25 274.855C189.672 274.902 189.177 275.046 188.766 275.289C188.365 275.532 188.071 275.858 187.884 276.269V280.889H186.652V273.623H187.73L187.856 275.205H187.884C188.118 274.72 188.435 274.328 188.836 274.029C189.247 273.73 189.718 273.548 190.25 273.483V274.855ZM194.079 274.575C193.305 274.575 192.521 274.813 191.727 275.289V274.183C192.073 273.968 192.469 273.8 192.917 273.679C193.375 273.548 193.818 273.483 194.247 273.483C195.162 273.483 195.857 273.674 196.333 274.057C196.809 274.44 197.047 275.023 197.047 275.807V279.713C197.047 279.872 197.052 280.077 197.061 280.329C197.08 280.572 197.099 280.758 197.117 280.889H195.997C195.969 280.758 195.941 280.576 195.913 280.343C195.895 280.1 195.885 279.89 195.885 279.713L195.871 279.503C195.759 279.727 195.605 279.96 195.409 280.203C195.213 280.436 194.952 280.632 194.625 280.791C194.308 280.95 193.911 281.029 193.435 281.029C192.782 281.029 192.255 280.842 191.853 280.469C191.452 280.096 191.251 279.568 191.251 278.887C191.251 278.094 191.531 277.51 192.091 277.137C192.651 276.764 193.44 276.577 194.457 276.577H195.815V275.975C195.815 275.471 195.685 275.112 195.423 274.897C195.162 274.682 194.714 274.575 194.079 274.575ZM195.815 278.089V277.557H194.583C193.846 277.557 193.309 277.664 192.973 277.879C192.647 278.094 192.483 278.406 192.483 278.817C192.483 279.144 192.581 279.41 192.777 279.615C192.983 279.82 193.291 279.923 193.701 279.923C194.084 279.923 194.411 279.848 194.681 279.699C194.952 279.54 195.171 279.354 195.339 279.139C195.507 278.915 195.629 278.705 195.703 278.509C195.778 278.313 195.815 278.173 195.815 278.089ZM199.615 272.559C199.363 272.559 199.162 272.484 199.013 272.335C198.863 272.176 198.789 271.985 198.789 271.761C198.789 271.537 198.863 271.346 199.013 271.187C199.162 271.028 199.363 270.949 199.615 270.949C199.857 270.949 200.049 271.028 200.189 271.187C200.329 271.346 200.399 271.537 200.399 271.761C200.399 271.985 200.329 272.176 200.189 272.335C200.049 272.484 199.857 272.559 199.615 272.559ZM198.985 273.623H200.217V280.889H198.985V273.623ZM202.225 270.851H203.457V280.889H202.225V270.851ZM207.789 281.029C207.257 281.029 206.748 280.954 206.263 280.805C205.787 280.646 205.4 280.436 205.101 280.175V279.069C205.39 279.349 205.778 279.573 206.263 279.741C206.758 279.909 207.262 279.993 207.775 279.993C208.914 279.993 209.483 279.624 209.483 278.887C209.483 278.672 209.432 278.5 209.329 278.369C209.236 278.229 209.058 278.112 208.797 278.019C208.536 277.916 208.158 277.818 207.663 277.725C206.72 277.538 206.062 277.286 205.689 276.969C205.316 276.642 205.129 276.18 205.129 275.583C205.129 274.92 205.386 274.407 205.899 274.043C206.412 273.67 207.122 273.483 208.027 273.483C208.456 273.483 208.876 273.53 209.287 273.623C209.707 273.707 210.048 273.824 210.309 273.973V275.079C209.768 274.706 209.021 274.519 208.069 274.519C207.481 274.519 207.047 274.603 206.767 274.771C206.496 274.939 206.361 275.2 206.361 275.555C206.361 275.742 206.403 275.896 206.487 276.017C206.571 276.138 206.739 276.246 206.991 276.339C207.243 276.432 207.621 276.53 208.125 276.633C208.769 276.764 209.278 276.922 209.651 277.109C210.034 277.286 210.304 277.515 210.463 277.795C210.631 278.075 210.715 278.43 210.715 278.859C210.715 279.54 210.458 280.072 209.945 280.455C209.432 280.838 208.713 281.029 207.789 281.029ZM212.905 280.973C212.643 280.973 212.424 280.889 212.247 280.721C212.079 280.544 211.995 280.334 211.995 280.091C211.995 279.83 212.079 279.615 212.247 279.447C212.424 279.279 212.643 279.195 212.905 279.195C213.166 279.195 213.381 279.279 213.549 279.447C213.717 279.615 213.801 279.83 213.801 280.091C213.801 280.334 213.717 280.544 213.549 280.721C213.381 280.889 213.166 280.973 212.905 280.973ZM158.495 289.623H159.825L162.037 296.231L164.235 289.623H165.467L162.975 296.889H160.987L158.495 289.623ZM167.24 288.559C166.988 288.559 166.787 288.484 166.638 288.335C166.488 288.176 166.414 287.985 166.414 287.761C166.414 287.537 166.488 287.346 166.638 287.187C166.787 287.028 166.988 286.949 167.24 286.949C167.482 286.949 167.674 287.028 167.814 287.187C167.954 287.346 168.024 287.537 168.024 287.761C168.024 287.985 167.954 288.176 167.814 288.335C167.674 288.484 167.482 288.559 167.24 288.559ZM166.61 289.623H167.842V296.889H166.61V289.623ZM173.07 297.029C171.856 297.029 170.928 296.698 170.284 296.035C169.649 295.363 169.332 294.434 169.332 293.249C169.332 292.456 169.481 291.779 169.78 291.219C170.078 290.659 170.489 290.23 171.012 289.931C171.534 289.632 172.122 289.483 172.776 289.483C173.886 289.483 174.703 289.852 175.226 290.589C175.748 291.317 175.916 292.316 175.73 293.585H170.606C170.708 295.144 171.567 295.923 173.182 295.923C174.068 295.923 174.885 295.671 175.632 295.167V296.273C175.296 296.506 174.904 296.693 174.456 296.833C174.008 296.964 173.546 297.029 173.07 297.029ZM172.748 290.575C172.216 290.575 171.758 290.738 171.376 291.065C170.993 291.392 170.75 291.886 170.648 292.549H174.554C174.582 291.924 174.437 291.438 174.12 291.093C173.802 290.748 173.345 290.575 172.748 290.575ZM186.836 289.623L185.184 296.889H183.294L181.754 291.275L180.172 296.889H178.338L176.686 289.623H177.988L179.374 295.965L181.138 289.623H182.524L184.246 295.895L185.618 289.623H186.836ZM191.349 297.029C190.136 297.029 189.207 296.698 188.563 296.035C187.928 295.363 187.611 294.434 187.611 293.249C187.611 292.456 187.76 291.779 188.059 291.219C188.358 290.659 188.768 290.23 189.291 289.931C189.814 289.632 190.402 289.483 191.055 289.483C192.166 289.483 192.982 289.852 193.505 290.589C194.028 291.317 194.196 292.316 194.009 293.585H188.885C188.988 295.144 189.846 295.923 191.461 295.923C192.348 295.923 193.164 295.671 193.911 295.167V296.273C193.575 296.506 193.183 296.693 192.735 296.833C192.287 296.964 191.825 297.029 191.349 297.029ZM191.027 290.575C190.495 290.575 190.038 290.738 189.655 291.065C189.272 291.392 189.03 291.886 188.927 292.549H192.833C192.861 291.924 192.716 291.438 192.399 291.093C192.082 290.748 191.624 290.575 191.027 290.575ZM199.151 290.855C198.572 290.902 198.078 291.046 197.667 291.289C197.266 291.532 196.972 291.858 196.785 292.269V296.889H195.553V289.623H196.631L196.757 291.205H196.785C197.018 290.72 197.336 290.328 197.737 290.029C198.148 289.73 198.619 289.548 199.151 289.483V290.855Z" fill="#18123D"/>
<path d="M179 262C179 254.689 179 249.986 179 246.993C179 244.232 181.239 242 184 242L335 242" stroke="#4E496B" stroke-width="2"/>
<path d="M361 222L355.226 232L366.774 232L361 222ZM356 242L356 241L356 242ZM360 231C360 233.523 360 235.486 360 237.007L362 237.007C362 235.486 362 233.523 362 231L360 231ZM356 241L222 241L222 243L356 243L356 241ZM360 237.007C360 239.214 358.211 241 356 241L356 243C359.312 243 362 240.323 362 237.007L360 237.007Z" fill="#4E496B"/>
<path d="M179 178C179 170.689 179 165.986 179 162.993C179 160.232 181.239 158 184 158L335 158" stroke="#4E496B" stroke-width="2"/>
<path d="M361 138L355.226 148L366.774 148L361 138ZM356 158L356 157L356 158ZM360 147C360 149.523 360 151.486 360 153.007L362 153.007C362 151.486 362 149.523 362 147L360 147ZM356 157L222 157L222 159L356 159L356 157ZM360 153.007C360 155.214 358.211 157 356 157L356 159C359.312 159 362 156.323 362 153.007L360 153.007Z" fill="#4E496B"/>
<path d="M361 54L366.774 64L355.226 64L361 54ZM362 63L362 94L360 94L360 63L362 63Z" fill="#4E496B"/>
<path d="M179 94C179 86.6888 179 81.9864 179 78.993C179 76.2316 181.239 74 184 74L335 74" stroke="#4E496B" stroke-width="2"/>
<path d="M361 54L355.226 64L366.774 64L361 54ZM356 74L356 73L356 74ZM360 63.0003C360 65.5228 360 67.4856 360 69.007L362 69.007C362 67.4856 362 65.5228 362 63.0003L360 63.0003ZM356 73L222 73L222 75L356 75L356 73ZM360 69.007C360 71.2143 358.211 73 356 73L356 75C359.312 75 362 72.3226 362 69.007L360 69.007Z" fill="#4E496B"/>
</svg>
