<svg width="16" height="4" viewBox="0 0 16 4" fill="none" xmlns="http://www.w3.org/2000/svg">
<path fill-rule="evenodd" clip-rule="evenodd" d="M0 1.875C0 0.839 0.839 0 1.875 0C2.911 0 3.75 0.839 3.75 1.875C3.75 2.911 2.911 3.75 1.875 3.75C0.839 3.75 0 2.911 0 1.875ZM7.9687 0C6.9327 0 6.0937 0.839 6.0937 1.875C6.0937 2.911 6.9327 3.75 7.9687 3.75C9.0047 3.75 9.8437 2.911 9.8437 1.875C9.8437 0.839 9.0047 0 7.9687 0ZM13.875 0C12.839 0 12 0.839 12 1.875C12 2.911 12.839 3.75 13.875 3.75C14.911 3.75 15.75 2.911 15.75 1.875C15.75 0.839 14.911 0 13.875 0Z" fill="currentColor"/>
</svg>
