<svg xmlns="http://www.w3.org/2000/svg" xmlns:xlink="http://www.w3.org/1999/xlink" width="16" height="16" class="yc-icon" fill="currentColor" stroke="none" aria-hidden="true"><svg xmlns="http://www.w3.org/2000/svg" fill="none" viewBox="0 0 16 16"><path fill="#027BF3" d="M7.477 12.773c-.451.374-1.012.56-1.682.56-.35 0-.6-.027-.747-.081v-1.297c.06.015.17.033.326.052.157.02.296.03.42.03.329 0 .566-.092.714-.275.148-.183.248-.458.304-.824l.654-3.844H6.6l.245-1.214h.83l.14-.842c.132-.834.425-1.437.876-1.81.452-.375 1.024-.561 1.718-.561.164 0 .306.008.426.023.121.016.212.03.274.047v1.32a1.395 1.395 0 0 0-.326-.058 4.182 4.182 0 0 0-.421-.024c-.327 0-.563.088-.708.263-.144.175-.246.443-.31.8l-.14.842h1.403l-.245 1.214H8.996l-.643 3.868c-.13.834-.425 1.437-.876 1.811ZM4.7 15.983c.167-.014.35-.039.554-.075l.072-.013v-1.148l-.105.02c-.348.07-.646.104-.881.104-.568 0-.96-.133-1.167-.395-.21-.273-.315-.618-.315-1.03 0-.27.02-.525.066-.795l.241-1.382c.042-.244.063-.525.063-.833 0-.252-.024-.5-.072-.731a1.99 1.99 0 0 0-.287-.682 2.602 2.602 0 0 0-.565-.6 3.25 3.25 0 0 0-.715-.416c.281-.122.524-.262.723-.416.24-.188.432-.397.568-.624.132-.221.225-.46.276-.707.048-.239.072-.488.072-.74 0-.298-.02-.573-.063-.819l-.247-1.4a4.366 4.366 0 0 1-.06-.745c0-.434.108-.787.322-1.048.212-.253.608-.382 1.177-.382.127 0 .262.008.406.026.145.018.564.075.564.075V.097L4.702.027A5.09 5.09 0 0 0 4.198 0C3.27 0 2.581.236 2.15.698c-.432.462-.65 1.076-.65 1.824 0 .294.025.563.072.802.047.241.097.48.15.717.053.235.103.475.15.722.047.242.07.51.07.795a3.2 3.2 0 0 1-.069.678 1.245 1.245 0 0 1-.265.544 1.57 1.57 0 0 1-.56.41c-.24.111-.565.186-.968.22L0 7.418v1.167l.08.006c.423.035.76.115 1 .238.24.124.426.273.552.441.126.171.209.37.248.589.04.234.06.479.06.726 0 .274-.022.529-.068.76-.048.232-.098.464-.151.693-.053.231-.103.463-.15.699a3.825 3.825 0 0 0-.071.775c0 .74.214 1.344.64 1.798.426.457 1.12.69 2.058.69.166.001.333-.005.502-.017Zm7.1.017c.94 0 1.633-.233 2.06-.689.425-.455.64-1.059.64-1.798a3.83 3.83 0 0 0-.072-.775 21.585 21.585 0 0 0-.15-.699c-.053-.23-.103-.462-.15-.694a3.895 3.895 0 0 1-.07-.76c0-.246.02-.492.061-.725.04-.22.123-.418.248-.589.126-.168.312-.317.552-.44.241-.124.577-.204 1-.239L16 8.584V7.417l-.08-.007c-.403-.035-.728-.11-.967-.222a1.577 1.577 0 0 1-.561-.408 1.26 1.26 0 0 1-.265-.545 3.195 3.195 0 0 1-.068-.678c0-.284.022-.552.069-.795.047-.246.097-.487.15-.722.054-.236.103-.475.15-.716.048-.24.072-.509.072-.803 0-.748-.218-1.362-.65-1.824C13.418.236 12.729 0 11.8 0a5.06 5.06 0 0 0-.502.026l-.625.072v1.13l.564-.074c.144-.019.28-.026.406-.026.57 0 .965.129 1.177.382.214.26.322.613.322 1.047 0 .26-.02.51-.06.745l-.247 1.401a4.92 4.92 0 0 0-.063.819c0 .252.024.501.072.74.051.247.143.486.276.707.135.227.326.435.568.624.2.154.442.294.723.416a3.27 3.27 0 0 0-.715.415 2.6 2.6 0 0 0-.565.6c-.14.214-.237.444-.287.683-.048.233-.072.479-.072.731 0 .308.02.588.063.833l.24 1.381c.048.27.067.526.067.795 0 .413-.106.758-.315 1.03-.207.263-.6.396-1.167.396-.236 0-.534-.035-.881-.104l-.105-.02v1.149l.072.012c.203.037.388.062.554.075.168.009.336.015.5.015Z"></path></svg></svg>