<svg xmlns="http://www.w3.org/2000/svg" viewBox="0 0 3.175 4.234" height="16" width="12"><path d="M1.454 0a2.145 2.289 0 00-.273.049 1.582 1.582 0 00-1.18 1.453c-.025.429.291 1.07.981 1.989.16.213.485.614.57.705l.035.038.035-.038c.086-.091.41-.492.57-.705.687-.914 1.007-1.56.981-1.984A1.578 1.578 0 001.861.02a2.602 2.776 0 00-.407-.02M1.762.5a1.088 1.088 0 01.685 1.753c-.588.745-1.8.424-1.944-.517A1.096 1.096 0 011.762.5m-.354.388c-.64.167-.728 1.036-.135 1.326a.715.715 0 001.03-.637.715.715 0 00-.895-.689" fill-rule="evenodd"/></svg>