<?xml version="1.0" encoding="UTF-8" standalone="no"?>
<svg
   xmlns:dc="http://purl.org/dc/elements/1.1/"
   xmlns:cc="http://creativecommons.org/ns#"
   xmlns:rdf="http://www.w3.org/1999/02/22-rdf-syntax-ns#"
   xmlns:svg="http://www.w3.org/2000/svg"
   xmlns="http://www.w3.org/2000/svg"
   version="1.1"
   id="svg46"
   width="14.4"
   height="14.4"
   viewBox="0 0 14.4 14.4">
  <metadata
     id="metadata52">
    <rdf:RDF>
      <cc:Work
         rdf:about="">
        <dc:format>image/svg+xml</dc:format>
        <dc:type
           rdf:resource="http://purl.org/dc/dcmitype/StillImage" />
        <dc:title></dc:title>
      </cc:Work>
    </rdf:RDF>
  </metadata>
  <defs
     id="defs50" />
  <g
     id="g54">
    <path
       style="fill:#424242;fill-opacity:0.939271;stroke-width:0.32"
       d="M 5.4790213,12.911375 C 2.426412,11.339019 0.68514106,8.3990047 0.68514106,4.8172428 V 2.9498092 L 1.885141,2.6258951 c 0.66,-0.1781527 2.1109395,-0.6812897 3.2243104,-1.1180824 L 7.1337618,0.71364452 8.7894514,1.373539 c 0.9106291,0.3629419 2.3238266,0.8613965 3.1404386,1.1076767 1.297949,0.3914456 1.509712,0.5808513 1.68317,1.5054603 0.216912,1.1562394 -0.227539,4.0087546 -0.78768,5.055389 -0.716179,1.338192 -2.701846,3.234187 -4.1621292,3.974169 L 7.160749,13.777609 Z M 8.9794972,11.584089 C 11.400842,9.977719 12.723825,7.4310181 12.469779,4.8654028 12.36981,3.8558159 12.248678,3.7666866 9.7552444,2.8680541 L 7.1453477,1.9274481 4.4752444,2.8746272 1.805141,3.8218063 1.8654539,5.5876319 c 0.093994,2.7519225 1.586305,5.0839931 4.0996871,6.4066781 1.2929805,0.68044 1.3903264,0.667193 3.0143562,-0.410221 z M 5.2153362,8.4204508 C 4.3054556,7.6656444 4.2153948,7.4749957 4.6128792,7.1451132 4.9840978,6.837029 5.1628399,6.8567919 5.4818661,7.2411951 6.1182671,8.0080114 6.5908901,7.8257525 8.0385125,6.2552677 8.9621759,5.2532111 9.4975951,4.8895951 9.7207919,5.1127919 9.9439887,5.3359887 9.5104677,6.0584213 8.3586757,7.3826652 7.4294431,8.4510268 6.582757,9.321267 6.4771516,9.316533 6.3715458,9.311797 5.8037288,8.908561 5.2153362,8.4204508 Z"
       id="path58" />
  </g>
</svg>
