<svg xmlns="http://www.w3.org/2000/svg" width="700" height="600" fill="none"><g filter="url(#a)"><rect width="656" height="449" x="22" y="130" fill="#fff" rx="10"/></g><path fill="#000" fill-opacity=".85" d="M513.816 462.588c-.48 0-.872.112-1.176.336a2.455 2.455 0 0 0-.72.84V468h-1.056v-8.604h1.056v2.376l-.024 1.116h.024c.168-.352.432-.644.792-.876.36-.24.816-.36 1.368-.36.616 0 1.104.164 1.464.492.368.32.552.816.552 1.488V468h-1.056v-4.26c0-.432-.108-.732-.324-.9-.216-.168-.516-.252-.9-.252Zm8.906 4.884a3.344 3.344 0 0 1-.324.204 3.758 3.758 0 0 1-.468.216 3.946 3.946 0 0 1-.624.156 3.864 3.864 0 0 1-.78.072c-1.048 0-1.844-.284-2.388-.852-.544-.568-.816-1.364-.816-2.388 0-.504.072-.956.216-1.356.152-.4.36-.736.624-1.008.264-.28.576-.492.936-.636.36-.152.752-.228 1.176-.228a3 3 0 0 1 1.2.228c.352.152.64.376.864.672.232.296.388.664.468 1.104.088.432.088.936 0 1.512h-4.392c.04.672.24 1.176.6 1.512.36.328.896.492 1.608.492.48 0 .892-.068 1.236-.204a4.33 4.33 0 0 0 .864-.444v.948Zm-2.472-4.884c-.456 0-.848.14-1.176.42-.328.28-.536.704-.624 1.272h3.348c.032-.576-.1-1-.396-1.272-.296-.28-.68-.42-1.152-.42Zm7.528 4.224a3.648 3.648 0 0 1-.276.456 2.088 2.088 0 0 1-1.02.732c-.224.08-.488.12-.792.12-.56 0-1.012-.156-1.356-.468-.344-.32-.516-.776-.516-1.368 0-.68.236-1.18.708-1.5.48-.32 1.16-.48 2.04-.48h1.164v-.516c0-.432-.112-.74-.336-.924-.224-.184-.608-.276-1.152-.276-.384 0-.748.064-1.092.192-.344.12-.652.26-.924.42v-.948c.224-.136.524-.268.9-.396a3.75 3.75 0 0 1 1.26-.204c.784 0 1.38.164 1.788.492.408.32.612.82.612 1.5V467.244c.008.088.012.18.012.276l.024.276c.008.08.016.148.024.204h-.96a5.482 5.482 0 0 1-.072-.468 7.173 7.173 0 0 1-.024-.54l-.012-.18Zm-1.86.36c.328 0 .608-.068.84-.204.232-.136.42-.292.564-.468.144-.184.248-.36.312-.528.064-.176.096-.3.096-.372v-.456h-1.056c-.632 0-1.092.092-1.38.276-.28.176-.42.444-.42.804 0 .28.084.508.252.684.168.176.432.264.792.264Zm5.584-7.776V468h-1.056v-8.604h1.056Zm4.769 8.472a1.93 1.93 0 0 1-.492.18c-.2.048-.412.072-.636.072-.304 0-.564-.044-.78-.132a1.504 1.504 0 0 1-.516-.348 1.48 1.48 0 0 1-.3-.504 2.09 2.09 0 0 1-.084-.588v-3.876h-.744v-.9h.744v-1.308h1.056v1.308h1.812v.9h-1.812v3.744c0 .264.064.456.192.576.136.12.372.18.708.18.312 0 .596-.088.852-.264v.96Zm4.358-5.28c-.48 0-.872.112-1.176.336a2.455 2.455 0 0 0-.72.84V468h-1.056v-8.604h1.056v2.376l-.024 1.116h.024c.168-.352.432-.644.792-.876.36-.24.816-.36 1.368-.36.616 0 1.104.164 1.464.492.368.32.552.816.552 1.488V468h-1.056v-4.26c0-.432-.108-.732-.324-.9-.216-.168-.516-.252-.9-.252Zm6.638 5.532a3.77 3.77 0 0 1-1.308-.216 2.861 2.861 0 0 1-.984-.636c-.272-.28-.48-.62-.624-1.02a4.024 4.024 0 0 1-.216-1.368c0-.504.072-.956.216-1.356.152-.4.364-.736.636-1.008a2.63 2.63 0 0 1 .996-.636 3.662 3.662 0 0 1 1.332-.228c.384 0 .736.044 1.056.132.32.08.584.2.792.36v.948a2.798 2.798 0 0 0-.864-.372 3.563 3.563 0 0 0-.972-.132c-.728 0-1.264.188-1.608.564-.336.376-.504.952-.504 1.728s.164 1.352.492 1.728c.328.376.848.564 1.56.564.376 0 .72-.044 1.032-.132.32-.096.608-.216.864-.36v.948a3.678 3.678 0 0 1-1.896.492Zm6.135-5.532c-.48 0-.872.112-1.176.336a2.455 2.455 0 0 0-.72.84V468h-1.056v-8.604h1.056v2.376l-.024 1.116h.024c.168-.352.432-.644.792-.876.36-.24.816-.36 1.368-.36.616 0 1.104.164 1.464.492.368.32.552.816.552 1.488V468h-1.056v-4.26c0-.432-.108-.732-.324-.9-.216-.168-.516-.252-.9-.252Zm8.906 4.884a3.344 3.344 0 0 1-.324.204 3.758 3.758 0 0 1-.468.216 3.946 3.946 0 0 1-.624.156 3.864 3.864 0 0 1-.78.072c-1.048 0-1.844-.284-2.388-.852-.544-.568-.816-1.364-.816-2.388 0-.504.072-.956.216-1.356.152-.4.36-.736.624-1.008.264-.28.576-.492.936-.636.36-.152.752-.228 1.176-.228a3 3 0 0 1 1.2.228c.352.152.64.376.864.672.232.296.388.664.468 1.104.088.432.088.936 0 1.512H558c.04.672.24 1.176.6 1.512.36.328.896.492 1.608.492.48 0 .892-.068 1.236-.204a4.33 4.33 0 0 0 .864-.444v.948Zm-2.472-4.884c-.456 0-.848.14-1.176.42-.328.28-.536.704-.624 1.272h3.348c.032-.576-.1-1-.396-1.272-.296-.28-.68-.42-1.152-.42Zm6.568 5.532a3.77 3.77 0 0 1-1.308-.216 2.861 2.861 0 0 1-.984-.636c-.272-.28-.48-.62-.624-1.02a4.024 4.024 0 0 1-.216-1.368c0-.504.072-.956.216-1.356.152-.4.364-.736.636-1.008a2.63 2.63 0 0 1 .996-.636 3.662 3.662 0 0 1 1.332-.228c.384 0 .736.044 1.056.132.32.08.584.2.792.36v.948a2.798 2.798 0 0 0-.864-.372 3.563 3.563 0 0 0-.972-.132c-.728 0-1.264.188-1.608.564-.336.376-.504.952-.504 1.728s.164 1.352.492 1.728c.328.376.848.564 1.56.564.376 0 .72-.044 1.032-.132.32-.096.608-.216.864-.36v.948a3.678 3.678 0 0 1-1.896.492Zm4.791-2.772h-.552V468h-1.056v-8.604h1.056v5.052h.6l2.184-2.676h1.2l-2.556 3.072 2.604 3.156h-1.284l-2.196-2.652ZM511.92 491.56l3.324-4.788h1.068V493h-1.056v-4.776L511.944 493h-1.08v-6.228h1.056v4.788Zm8.804 1.56a3.77 3.77 0 0 1-1.308-.216 2.861 2.861 0 0 1-.984-.636c-.272-.28-.48-.62-.624-1.02a4.024 4.024 0 0 1-.216-1.368c0-.504.072-.956.216-1.356.152-.4.364-.736.636-1.008a2.63 2.63 0 0 1 .996-.636 3.662 3.662 0 0 1 1.332-.228c.384 0 .736.044 1.056.132.32.08.584.2.792.36v.948a2.798 2.798 0 0 0-.864-.372 3.563 3.563 0 0 0-.972-.132c-.728 0-1.264.188-1.608.564-.336.376-.504.952-.504 1.728s.164 1.352.492 1.728c.328.376.848.564 1.56.564.376 0 .72-.044 1.032-.132.32-.096.608-.216.864-.36v.948a3.678 3.678 0 0 1-1.896.492Zm5.47-2.592-1.68 2.472h-1.104l2.256-3.228-1.992-3h1.224l1.488 2.196 1.5-2.196h1.092l-2.064 2.976 2.172 3.252h-1.224l-1.668-2.472Zm6.257 2.592c-.424 0-.82-.072-1.188-.216a2.767 2.767 0 0 1-.96-.624 3.04 3.04 0 0 1-.624-1.02c-.152-.4-.228-.86-.228-1.38 0-.512.076-.968.228-1.368a2.89 2.89 0 0 1 .624-1.02c.272-.272.592-.48.96-.624a3.231 3.231 0 0 1 1.188-.216c.432 0 .832.072 1.2.216.368.144.684.352.948.624.272.272.484.612.636 1.02.16.4.24.856.24 1.368 0 .52-.08.98-.24 1.38-.152.4-.364.74-.636 1.02-.264.272-.58.48-.948.624a3.265 3.265 0 0 1-1.2.216Zm0-.948c.28 0 .536-.044.768-.132.24-.096.448-.236.624-.42.176-.192.312-.432.408-.72.096-.288.144-.628.144-1.02s-.048-.732-.144-1.02a1.855 1.855 0 0 0-.408-.708 1.569 1.569 0 0 0-.624-.42 1.99 1.99 0 0 0-.768-.144c-.28 0-.536.048-.768.144a1.586 1.586 0 0 0-.612.42c-.168.184-.3.42-.396.708a3.234 3.234 0 0 0-.144 1.02c0 .392.048.732.144 1.02.096.288.228.528.396.72.176.184.38.324.612.42.232.088.488.132.768.132Zm3.917-.072c.224-.136.4-.348.528-.636.128-.288.228-.652.3-1.092.072-.44.12-.96.144-1.56.032-.6.06-1.28.084-2.04h4.284v5.328h.936v2.676h-.924l-.132-1.776h-4.632l-.108 1.776h-.948V492.1h.468Zm4.284 0v-4.428h-2.28c-.04 1.176-.116 2.12-.228 2.832-.104.704-.288 1.236-.552 1.596h3.06Zm3.095-3.312c0-.352.064-.652.192-.9.128-.256.308-.464.54-.624a2.38 2.38 0 0 1 .828-.372c.32-.08.668-.12 1.044-.12h2.004V493h-1.056v-2.256h-1.14L544.563 493h-1.26l1.8-2.52c-.432-.128-.768-.324-1.008-.588-.232-.264-.348-.632-.348-1.104Zm3.552 1.056v-2.172h-.948c-.448 0-.816.084-1.104.252-.288.168-.432.44-.432.816 0 .392.128.676.384.852.256.168.62.252 1.092.252h1.008Zm10.564 2.256h.936v2.676h-.9l-.132-1.776h-7.68v-6.228h1.056v5.328h2.304v-5.328h1.056v5.328h2.304v-5.328h1.056v5.328Zm3.1-.54 3.324-4.788h1.068V493h-1.056v-4.776L560.987 493h-1.08v-6.228h1.056v4.788Zm8.864-5.616c-.32 0-.6-.04-.84-.12a1.847 1.847 0 0 1-.588-.348 1.589 1.589 0 0 1-.348-.516 1.9 1.9 0 0 1-.108-.648h1.056c0 .304.072.524.216.66.152.136.356.204.612.204s.456-.068.6-.204c.144-.136.216-.356.216-.66h1.056c0 .456-.156.844-.468 1.164-.304.312-.772.468-1.404.468Zm-1.692 5.616 3.324-4.788h1.068V493h-1.056v-4.776L568.159 493h-1.08v-6.228h1.056v4.788Zm11.26-3.888V493h-1.056v-5.328h-1.956v-.9h5.004v.9h-1.992Zm6.343 5.448c-.48 0-.896-.112-1.248-.336a2.444 2.444 0 0 1-.828-.924v3.264h-1.056v-8.352h.924l.108 1.212c.208-.408.488-.732.84-.972s.788-.36 1.308-.36c.36 0 .704.068 1.032.204.336.128.628.328.876.6.256.264.456.6.6 1.008.152.4.228.872.228 1.416 0 .552-.076 1.032-.228 1.44a3.01 3.01 0 0 1-.612 1.008 2.566 2.566 0 0 1-.888.6 2.941 2.941 0 0 1-1.056.192Zm-.156-.948c.552 0 .996-.188 1.332-.564.344-.384.516-.96.516-1.728 0-.752-.172-1.32-.516-1.704-.336-.392-.78-.588-1.332-.588-.272 0-.528.048-.768.144a1.71 1.71 0 0 0-.612.432c-.168.184-.304.42-.408.708a3.191 3.191 0 0 0-.144 1.008c0 .384.048.72.144 1.008.104.288.24.528.408.72.176.192.38.336.612.432.24.088.496.132.768.132Zm7.809-.36a3.648 3.648 0 0 1-.276.456 2.088 2.088 0 0 1-1.02.732c-.224.08-.488.12-.792.12-.56 0-1.012-.156-1.356-.468-.344-.32-.516-.776-.516-1.368 0-.68.236-1.18.708-1.5.48-.32 1.16-.48 2.04-.48h1.164v-.516c0-.432-.112-.74-.336-.924-.224-.184-.608-.276-1.152-.276-.384 0-.748.064-1.092.192-.344.12-.652.26-.924.42v-.948c.224-.136.524-.268.9-.396a3.75 3.75 0 0 1 1.26-.204c.784 0 1.38.164 1.788.492.408.32.612.82.612 1.5V492.244c.008.088.012.18.012.276l.024.276c.008.08.016.148.024.204h-.96a5.482 5.482 0 0 1-.072-.468 7.173 7.173 0 0 1-.024-.54l-.012-.18Zm-1.86.36c.328 0 .608-.068.84-.204.232-.136.42-.292.564-.468.144-.184.248-.36.312-.528.064-.176.096-.3.096-.372v-.456h-1.056c-.632 0-1.092.092-1.38.276-.28.176-.42.444-.42.804 0 .28.084.508.252.684.168.176.432.264.792.264Zm11.824-2.292c0 .52-.088.976-.264 1.368a2.925 2.925 0 0 1-.72.996 3.03 3.03 0 0 1-1.056.624c-.408.136-.84.212-1.296.228v2.028h-1.056v-2.028a4.39 4.39 0 0 1-1.32-.24 3.296 3.296 0 0 1-1.056-.612 2.925 2.925 0 0 1-.72-.996c-.168-.392-.252-.848-.252-1.368 0-.512.088-.964.264-1.356.176-.4.416-.732.72-.996a3.026 3.026 0 0 1 1.056-.612 4.358 4.358 0 0 1 1.308-.24v-2.4h1.056v2.4c.464.016.896.096 1.296.24.408.144.76.352 1.056.624.304.264.544.592.72.984.176.392.264.844.264 1.356Zm-1.08 0c0-.384-.06-.716-.18-.996a1.809 1.809 0 0 0-.48-.696 2.03 2.03 0 0 0-.708-.42 2.873 2.873 0 0 0-.888-.18v4.584c.32-.016.616-.072.888-.168.28-.104.52-.248.72-.432.2-.184.356-.416.468-.696.12-.28.18-.612.18-.996Zm-5.58 0c0 .384.056.716.168.996.12.28.28.516.48.708.208.184.448.324.72.42.28.096.58.152.9.168v-4.584a3.028 3.028 0 0 0-.912.18 2 2 0 0 0-1.188 1.128 2.64 2.64 0 0 0-.168.984Zm9.01 1.68 3.324-4.788h1.068V493h-1.056v-4.776L605.729 493h-1.08v-6.228h1.056v4.788Zm7.724-1.212h-.552V493h-1.056v-6.228h1.056v2.676h.6l2.184-2.676h1.2l-2.556 3.072 2.604 3.156h-1.284l-2.196-2.652ZM510.864 512.772h4.992V519H514.8v-5.328h-2.88V519h-1.056v-6.228Zm9.775 6.156a7.132 7.132 0 0 1-.456.984c-.16.288-.34.532-.54.732-.2.2-.424.348-.672.444a2.187 2.187 0 0 1-.852.156c-.16 0-.308-.012-.444-.036a1.336 1.336 0 0 1-.372-.096v-1.02c.088.064.2.112.336.144.136.04.284.06.444.06.296 0 .54-.072.732-.216.192-.136.376-.356.552-.66l-2.532-6.648h1.164l1.98 5.256 1.968-5.256h1.02l-2.328 6.156Zm8.989-3.048c0 .52-.08.98-.24 1.38-.152.4-.364.74-.636 1.02-.264.272-.58.48-.948.624a3.265 3.265 0 0 1-1.2.216c-.44 0-.844-.072-1.212-.216a2.509 2.509 0 0 1-.948-.684c-.264-.304-.472-.688-.624-1.152-.144-.464-.216-1.012-.216-1.644 0-.52.016-1.016.048-1.488s.104-.908.216-1.308c.112-.408.272-.772.48-1.092a2.644 2.644 0 0 1 1.488-1.08c.216-.064.432-.112.648-.144.224-.032.448-.052.672-.06l.66-.024c.32-.024.588-.064.804-.12a2.34 2.34 0 0 0 .576-.228v.96a1.847 1.847 0 0 1-.564.24c-.192.04-.428.076-.708.108-.456.04-.876.072-1.26.096-.376.016-.72.104-1.032.264-.4.224-.684.56-.852 1.008-.16.44-.26.964-.3 1.572.416-.96 1.2-1.44 2.352-1.44.392 0 .756.072 1.092.216.344.136.64.34.888.612.256.272.456.608.6 1.008.144.392.216.844.216 1.356Zm-3.024 2.292c.28 0 .536-.044.768-.132.24-.096.448-.236.624-.42.176-.192.312-.432.408-.72.096-.288.144-.628.144-1.02s-.048-.732-.144-1.02a1.855 1.855 0 0 0-.408-.708 1.569 1.569 0 0 0-.624-.42 1.99 1.99 0 0 0-.768-.144c-.552 0-1.012.184-1.38.552-.36.368-.54.936-.54 1.704 0 .4.048.748.144 1.044.096.288.228.528.396.72.176.192.38.336.612.432.232.088.488.132.768.132Zm4.65-1.104c.112-.408.184-.96.216-1.656s.048-1.576.048-2.64h4.188V519h-1.068v-5.328h-2.124a36.75 36.75 0 0 1-.084 2.28c-.04.664-.132 1.224-.276 1.68-.136.456-.34.804-.612 1.044-.264.232-.62.348-1.068.348h-.096a.556.556 0 0 1-.108-.012v-1.044c.04.008.092.012.156.012.408 0 .684-.304.828-.912Zm7.221.492 3.324-4.788h1.068V519h-1.056v-4.776L538.499 519h-1.08v-6.228h1.056v4.788Zm10.94 1.44h-1.056v-2.736c-.216.168-.468.3-.756.396-.28.088-.6.132-.96.132-.704 0-1.244-.172-1.62-.516-.368-.352-.552-.912-.552-1.68v-1.824h1.068v1.836c0 .488.112.828.336 1.02.224.192.54.288.948.288.28 0 .552-.04.816-.12.264-.08.504-.204.72-.372v-2.652h1.056V519Zm5.794-2.76h-3.012V519h-1.056v-6.228h1.056v2.568h3.012v-2.568h1.056V519h-1.056v-2.76Zm7.396.684c0 .36-.064.672-.192.936s-.308.48-.54.648a2.38 2.38 0 0 1-.828.372c-.32.08-.668.12-1.044.12h-2.004v-6.228h1.056v2.172h1.02c.792 0 1.412.156 1.86.468.448.312.672.816.672 1.512Zm1.956 2.076h-1.056v-6.228h1.056V519Zm-5.508-3.156v2.256h.948c.456 0 .824-.084 1.104-.252.288-.176.432-.464.432-.864 0-.408-.128-.7-.384-.876-.256-.176-.616-.264-1.08-.264h-1.02Zm9.989-3.9c-.32 0-.6-.04-.84-.12a1.847 1.847 0 0 1-.588-.348 1.589 1.589 0 0 1-.348-.516 1.9 1.9 0 0 1-.108-.648h1.056c0 .304.072.524.216.66.152.136.356.204.612.204s.456-.068.6-.204c.144-.136.216-.356.216-.66h1.056c0 .456-.156.844-.468 1.164-.304.312-.772.468-1.404.468Zm-1.692 5.616 3.324-4.788h1.068V519h-1.056v-4.776L567.374 519h-1.08v-6.228h1.056v4.788Zm10.024-7.164V519h-1.128v-8.604h1.128Zm2.001 0h2.748c.976 0 1.732.204 2.268.612.544.4.816 1.028.816 1.884 0 .488-.08.908-.24 1.26a2.22 2.22 0 0 1-.648.852c-.28.224-.616.388-1.008.492a4.91 4.91 0 0 1-1.284.156h-1.524V519h-1.128v-8.604Zm1.128 1.032v3.204h1.524c.304 0 .58-.032.828-.096s.46-.164.636-.3a1.3 1.3 0 0 0 .42-.528c.104-.224.156-.492.156-.804 0-.52-.168-.896-.504-1.128-.336-.232-.816-.348-1.44-.348h-1.62Zm5.733 3.432h2.88v.96h-2.88v-.96Zm8.116 2.952a3.648 3.648 0 0 1-.276.456 2.088 2.088 0 0 1-1.02.732c-.224.08-.488.12-.792.12-.56 0-1.012-.156-1.356-.468-.344-.32-.516-.776-.516-1.368 0-.68.236-1.18.708-1.5.48-.32 1.16-.48 2.04-.48h1.164v-.516c0-.432-.112-.74-.336-.924-.224-.184-.608-.276-1.152-.276-.384 0-.748.064-1.092.192-.344.12-.652.26-.924.42v-.948c.224-.136.524-.268.9-.396a3.75 3.75 0 0 1 1.26-.204c.784 0 1.38.164 1.788.492.408.32.612.82.612 1.5V518.244c.008.088.012.18.012.276l.024.276c.008.08.016.148.024.204h-.96a5.482 5.482 0 0 1-.072-.468 7.173 7.173 0 0 1-.024-.54l-.012-.18Zm-1.86.36c.328 0 .608-.068.84-.204.232-.136.42-.292.564-.468.144-.184.248-.36.312-.528.064-.176.096-.3.096-.372v-.456h-1.056c-.632 0-1.092.092-1.38.276-.28.176-.42.444-.42.804 0 .28.084.508.252.684.168.176.432.264.792.264Zm4.251-.072c.224-.136.4-.348.528-.636.128-.288.228-.652.3-1.092.072-.44.12-.96.144-1.56.032-.6.06-1.28.084-2.04h4.284v5.328h.936v2.676h-.924l-.132-1.776h-4.632l-.108 1.776h-.948V518.1h.468Zm4.284 0v-4.428h-2.28c-.04 1.176-.116 2.12-.228 2.832-.104.704-.288 1.236-.552 1.596h3.06Zm6.344 1.02c-.48 0-.896-.112-1.248-.336a2.444 2.444 0 0 1-.828-.924v3.264h-1.056v-8.352h.924l.108 1.212c.208-.408.488-.732.84-.972s.788-.36 1.308-.36c.36 0 .704.068 1.032.204.336.128.628.328.876.6.256.264.456.6.6 1.008.152.4.228.872.228 1.416 0 .552-.076 1.032-.228 1.44a3.01 3.01 0 0 1-.612 1.008 2.566 2.566 0 0 1-.888.6 2.941 2.941 0 0 1-1.056.192Zm-.156-.948c.552 0 .996-.188 1.332-.564.344-.384.516-.96.516-1.728 0-.752-.172-1.32-.516-1.704-.336-.392-.78-.588-1.332-.588-.272 0-.528.048-.768.144a1.71 1.71 0 0 0-.612.432c-.168.184-.304.42-.408.708a3.191 3.191 0 0 0-.144 1.008c0 .384.048.72.144 1.008.104.288.24.528.408.72.176.192.38.336.612.432.24.088.496.132.768.132Zm9.175.3a3.344 3.344 0 0 1-.324.204 3.758 3.758 0 0 1-.468.216 3.946 3.946 0 0 1-.624.156 3.864 3.864 0 0 1-.78.072c-1.048 0-1.844-.284-2.388-.852-.544-.568-.816-1.364-.816-2.388 0-.504.072-.956.216-1.356.152-.4.36-.736.624-1.008.264-.28.576-.492.936-.636.36-.152.752-.228 1.176-.228a3 3 0 0 1 1.2.228c.352.152.64.376.864.672.232.296.388.664.468 1.104.088.432.088.936 0 1.512h-4.392c.04.672.24 1.176.6 1.512.36.328.896.492 1.608.492.48 0 .892-.068 1.236-.204a4.33 4.33 0 0 0 .864-.444v.948Zm-2.472-4.884c-.456 0-.848.14-1.176.42-.328.28-.536.704-.624 1.272h3.348c.032-.576-.1-1-.396-1.272-.296-.28-.68-.42-1.152-.42Zm6.661 5.532a3.77 3.77 0 0 1-1.308-.216 2.861 2.861 0 0 1-.984-.636c-.272-.28-.48-.62-.624-1.02a4.024 4.024 0 0 1-.216-1.368c0-.504.072-.956.216-1.356.152-.4.364-.736.636-1.008a2.63 2.63 0 0 1 .996-.636 3.662 3.662 0 0 1 1.332-.228c.384 0 .736.044 1.056.132.32.08.584.2.792.36v.948a2.798 2.798 0 0 0-.864-.372 3.563 3.563 0 0 0-.972-.132c-.728 0-1.264.188-1.608.564-.336.376-.504.952-.504 1.728s.164 1.352.492 1.728c.328.376.848.564 1.56.564.376 0 .72-.044 1.032-.132.32-.096.608-.216.864-.36v.948a3.678 3.678 0 0 1-1.896.492Z"/><path fill="#929292" d="m495 464-10-5.774v11.548L495 464Zm-9-1h-51v2h51v-2Z"/><path fill="#4E496B" d="m495 489-10-5.774v11.548L495 489Zm-9-1h-51v2h51v-2Z"/><path fill="#000" fill-opacity=".85" d="M445.933 519.12c-.472 0-.88-.104-1.224-.312a2.489 2.489 0 0 1-.816-.864v3.18h-1.392v-8.352h1.272l.096 1.104c.208-.376.484-.672.828-.888.344-.224.764-.336 1.26-.336.368 0 .716.068 1.044.204.336.128.628.328.876.6.248.264.444.6.588 1.008.152.4.228.872.228 1.416 0 .552-.076 1.032-.228 1.44-.144.4-.344.736-.6 1.008-.248.264-.54.464-.876.6a2.941 2.941 0 0 1-1.056.192Zm-.336-1.164c.496 0 .896-.168 1.2-.504.312-.344.468-.868.468-1.572 0-.696-.156-1.216-.468-1.56-.304-.344-.7-.516-1.188-.516-.248 0-.476.044-.684.132-.208.08-.392.208-.552.384a1.93 1.93 0 0 0-.36.66 2.771 2.771 0 0 0-.132.9c0 .352.044.66.132.924.088.256.208.472.36.648.152.168.332.296.54.384.216.08.444.12.684.12Zm8.247.024c-.168.32-.42.592-.756.816-.328.216-.76.324-1.296.324-.584 0-1.06-.168-1.428-.504-.368-.336-.552-.848-.552-1.536v-4.308h1.404v4.272c0 .36.1.604.3.732.2.12.444.18.732.18.392 0 .712-.08.96-.24a2.23 2.23 0 0 0 .636-.672v-4.272h1.38V519h-1.272l-.084-1.02h-.024Zm9.146-2.1c0 .552-.076 1.032-.228 1.44-.144.4-.344.736-.6 1.008-.248.264-.54.464-.876.6a2.941 2.941 0 0 1-1.056.192c-.48 0-.896-.108-1.248-.324a2.467 2.467 0 0 1-.828-.912l-.036 1.116h-1.32v-8.604h1.392l-.012 3.468c.208-.376.484-.672.828-.888.344-.216.76-.324 1.248-.324.368 0 .716.068 1.044.204.336.128.628.328.876.6.248.264.444.6.588 1.008.152.4.228.872.228 1.416Zm-3.096 2.076c.496 0 .896-.168 1.2-.504.312-.344.468-.868.468-1.572 0-.696-.156-1.216-.468-1.56-.304-.344-.7-.516-1.188-.516-.248 0-.476.044-.684.132-.208.08-.392.208-.552.384a1.93 1.93 0 0 0-.36.66 2.771 2.771 0 0 0-.132.9c0 .352.044.66.132.924.088.256.208.472.36.648.152.168.332.296.54.384.216.08.444.12.684.12Zm5.667-7.56V519h-1.392v-8.604h1.392Zm2.269 1.584a.862.862 0 0 1-.636-.252.84.84 0 0 1-.24-.6.84.84 0 0 1 .24-.6.862.862 0 0 1 .636-.252c.248 0 .452.084.612.252a.82.82 0 0 1 .252.6.82.82 0 0 1-.252.6.808.808 0 0 1-.612.252Zm.696.792V519h-1.392v-6.228h1.392Zm4.429 6.348c-.504 0-.956-.072-1.356-.216-.4-.152-.74-.364-1.02-.636-.28-.28-.496-.62-.648-1.02a3.832 3.832 0 0 1-.228-1.368c0-.504.076-.956.228-1.356a2.71 2.71 0 0 1 1.68-1.644 3.895 3.895 0 0 1 1.368-.228c.432 0 .808.048 1.128.144.328.096.588.216.78.36v1.152a3.154 3.154 0 0 0-.816-.372 3.46 3.46 0 0 0-1.008-.132c-1.288 0-1.932.692-1.932 2.076 0 1.384.632 2.076 1.896 2.076.408 0 .756-.044 1.044-.132a4.2 4.2 0 0 0 .816-.36v1.152a3.384 3.384 0 0 1-.78.36c-.312.096-.696.144-1.152.144Zm6.476-7.14a.862.862 0 0 1-.636-.252.84.84 0 0 1-.24-.6.84.84 0 0 1 .24-.6.862.862 0 0 1 .636-.252c.248 0 .452.084.612.252a.82.82 0 0 1 .252.6.82.82 0 0 1-.252.6.808.808 0 0 1-.612.252Zm.696.792V519h-1.392v-6.228h1.392Zm4.993 6.348c-.472 0-.88-.104-1.224-.312a2.489 2.489 0 0 1-.816-.864v3.18h-1.392v-8.352h1.272l.096 1.104c.208-.376.484-.672.828-.888.344-.224.764-.336 1.26-.336.368 0 .716.068 1.044.204.336.128.628.328.876.6.248.264.444.6.588 1.008.152.4.228.872.228 1.416 0 .552-.076 1.032-.228 1.44-.144.4-.344.736-.6 1.008-.248.264-.54.464-.876.6a2.941 2.941 0 0 1-1.056.192Zm-.336-1.164c.496 0 .896-.168 1.2-.504.312-.344.468-.868.468-1.572 0-.696-.156-1.216-.468-1.56-.304-.344-.7-.516-1.188-.516-.248 0-.476.044-.684.132-.208.08-.392.208-.552.384a1.93 1.93 0 0 0-.36.66 2.771 2.771 0 0 0-.132.9c0 .352.044.66.132.924.088.256.208.472.36.648.152.168.332.296.54.384.216.08.444.12.684.12Z"/><rect width="210" height="87" x="423.5" y="445.5" stroke="#5282FF" stroke-dasharray="6 2" rx="9.5"/><g filter="url(#b)"><rect width="149" height="74" x="68" y="317" fill="#fff" rx="10"/></g><path fill="#000" fill-opacity=".85" d="M123.314 336.98v7.56h-1.14v-7.56h-2.652v-1.044h6.444v1.044h-2.652Zm6.677 6.372a3.648 3.648 0 0 1-.276.456 2.088 2.088 0 0 1-1.02.732c-.224.08-.488.12-.792.12-.56 0-1.012-.156-1.356-.468-.344-.32-.516-.776-.516-1.368 0-.68.236-1.18.708-1.5.48-.32 1.16-.48 2.04-.48h1.164v-.516c0-.432-.112-.74-.336-.924-.224-.184-.608-.276-1.152-.276-.384 0-.748.064-1.092.192-.344.12-.652.26-.924.42v-.948c.224-.136.524-.268.9-.396a3.75 3.75 0 0 1 1.26-.204c.784 0 1.38.164 1.788.492.408.32.612.82.612 1.5V343.784c.008.088.012.18.012.276l.024.276c.008.08.016.148.024.204h-.96a5.482 5.482 0 0 1-.072-.468 7.173 7.173 0 0 1-.024-.54l-.012-.18Zm-1.86.36c.328 0 .608-.068.84-.204.232-.136.42-.292.564-.468.144-.184.248-.36.312-.528.064-.176.096-.3.096-.372v-.456h-1.056c-.632 0-1.092.092-1.38.276-.28.176-.42.444-.42.804 0 .28.084.508.252.684.168.176.432.264.792.264Zm10.144-2.292c0 .52-.08.98-.24 1.38-.152.4-.364.74-.636 1.02-.264.272-.58.48-.948.624a3.265 3.265 0 0 1-1.2.216c-.44 0-.844-.072-1.212-.216a2.509 2.509 0 0 1-.948-.684c-.264-.304-.472-.688-.624-1.152-.144-.464-.216-1.012-.216-1.644 0-.52.016-1.016.048-1.488s.104-.908.216-1.308c.112-.408.272-.772.48-1.092a2.644 2.644 0 0 1 1.488-1.08c.216-.064.432-.112.648-.144.224-.032.448-.052.672-.06l.66-.024c.32-.024.588-.064.804-.12a2.34 2.34 0 0 0 .576-.228v.96a1.847 1.847 0 0 1-.564.24c-.192.04-.428.076-.708.108-.456.04-.876.072-1.26.096-.376.016-.72.104-1.032.264-.4.224-.684.56-.852 1.008-.16.44-.26.964-.3 1.572.416-.96 1.2-1.44 2.352-1.44.392 0 .756.072 1.092.216.344.136.64.34.888.612.256.272.456.608.6 1.008.144.392.216.844.216 1.356Zm-3.024 2.292c.28 0 .536-.044.768-.132.24-.096.448-.236.624-.42.176-.192.312-.432.408-.72.096-.288.144-.628.144-1.02s-.048-.732-.144-1.02a1.855 1.855 0 0 0-.408-.708 1.569 1.569 0 0 0-.624-.42 1.99 1.99 0 0 0-.768-.144c-.552 0-1.012.184-1.38.552-.36.368-.54.936-.54 1.704 0 .4.048.748.144 1.044.096.288.228.528.396.72.176.192.38.336.612.432.232.088.488.132.768.132Zm4.65-1.104c.112-.408.184-.96.216-1.656s.048-1.576.048-2.64h4.188v6.228h-1.068v-5.328h-2.124a36.75 36.75 0 0 1-.084 2.28c-.04.664-.132 1.224-.276 1.68-.136.456-.34.804-.612 1.044-.264.232-.62.348-1.068.348h-.096a.556.556 0 0 1-.108-.012v-1.044c.04.008.092.012.156.012.408 0 .684-.304.828-.912Zm7.22.492 3.324-4.788h1.068v6.228h-1.056v-4.776l-3.312 4.776h-1.08v-6.228h1.056v4.788Zm11.192 1.44h-5.076v-6.228h1.056v5.328h3.06v-5.328h1.056v5.328h.936v2.676h-.9l-.132-1.776Zm5.72-1.188a3.648 3.648 0 0 1-.276.456 2.088 2.088 0 0 1-1.02.732c-.224.08-.488.12-.792.12-.56 0-1.012-.156-1.356-.468-.344-.32-.516-.776-.516-1.368 0-.68.236-1.18.708-1.5.48-.32 1.16-.48 2.04-.48h1.164v-.516c0-.432-.112-.74-.336-.924-.224-.184-.608-.276-1.152-.276-.384 0-.748.064-1.092.192-.344.12-.652.26-.924.42v-.948c.224-.136.524-.268.9-.396a3.75 3.75 0 0 1 1.26-.204c.784 0 1.38.164 1.788.492.408.32.612.82.612 1.5V343.784c.008.088.012.18.012.276l.024.276c.008.08.016.148.024.204h-.96a5.482 5.482 0 0 1-.072-.468 7.173 7.173 0 0 1-.024-.54l-.012-.18Zm-1.86.36c.328 0 .608-.068.84-.204.232-.136.42-.292.564-.468.144-.184.248-.36.312-.528.064-.176.096-.3.096-.372v-.456h-1.056c-.632 0-1.092.092-1.38.276-.28.176-.42.444-.42.804 0 .28.084.508.252.684.168.176.432.264.792.264Zm-58.906 9.824-2.112 4.308h-.84l-1.992-4.332v5.028h-.996v-6.228h1.572l1.908 4.176 2.04-4.176h1.464v6.228h-1.044v-5.004Zm6.415 3.816a3.648 3.648 0 0 1-.276.456 2.088 2.088 0 0 1-1.02.732c-.224.08-.488.12-.792.12-.56 0-1.012-.156-1.356-.468-.344-.32-.516-.776-.516-1.368 0-.68.236-1.18.708-1.5.48-.32 1.16-.48 2.04-.48h1.164v-.516c0-.432-.112-.74-.336-.924-.224-.184-.608-.276-1.152-.276-.384 0-.748.064-1.092.192-.344.12-.652.26-.924.42v-.948c.224-.136.524-.268.9-.396a3.75 3.75 0 0 1 1.26-.204c.784 0 1.38.164 1.788.492.408.32.612.82.612 1.5V357.784c.008.088.012.18.012.276l.024.276c.008.08.016.148.024.204h-.96a5.482 5.482 0 0 1-.072-.468 7.173 7.173 0 0 1-.024-.54l-.012-.18Zm-1.86.36c.328 0 .608-.068.84-.204.232-.136.42-.292.564-.468.144-.184.248-.36.312-.528.064-.176.096-.3.096-.372v-.456h-1.056c-.632 0-1.092.092-1.38.276-.28.176-.42.444-.42.804 0 .28.084.508.252.684.168.176.432.264.792.264Zm7.66.948c-.48 0-.896-.112-1.248-.336a2.444 2.444 0 0 1-.828-.924v3.264h-1.056v-8.352h.924l.108 1.212c.208-.408.488-.732.84-.972s.788-.36 1.308-.36c.36 0 .704.068 1.032.204.336.128.628.328.876.6.256.264.456.6.6 1.008.152.4.228.872.228 1.416 0 .552-.076 1.032-.228 1.44a3.01 3.01 0 0 1-.612 1.008 2.566 2.566 0 0 1-.888.6 2.941 2.941 0 0 1-1.056.192Zm-.156-.948c.552 0 .996-.188 1.332-.564.344-.384.516-.96.516-1.728 0-.752-.172-1.32-.516-1.704-.336-.392-.78-.588-1.332-.588-.272 0-.528.048-.768.144a1.71 1.71 0 0 0-.612.432c-.168.184-.304.42-.408.708a3.191 3.191 0 0 0-.144 1.008c0 .384.048.72.144 1.008.104.288.24.528.408.72.176.192.38.336.612.432.24.088.496.132.768.132Zm11.996.828h-7.776v-6.228h1.056v5.328h2.304v-5.328h1.056v5.328h2.304v-5.328h1.056v6.228Zm4.86.12c-.48 0-.896-.112-1.248-.336a2.444 2.444 0 0 1-.828-.924v3.264h-1.056v-8.352h.924l.108 1.212c.208-.408.488-.732.84-.972s.788-.36 1.308-.36c.36 0 .704.068 1.032.204.336.128.628.328.876.6.256.264.456.6.6 1.008.152.4.228.872.228 1.416 0 .552-.076 1.032-.228 1.44a3.01 3.01 0 0 1-.612 1.008 2.566 2.566 0 0 1-.888.6 2.941 2.941 0 0 1-1.056.192Zm-.156-.948c.552 0 .996-.188 1.332-.564.344-.384.516-.96.516-1.728 0-.752-.172-1.32-.516-1.704-.336-.392-.78-.588-1.332-.588-.272 0-.528.048-.768.144a1.71 1.71 0 0 0-.612.432c-.168.184-.304.42-.408.708a3.191 3.191 0 0 0-.144 1.008c0 .384.048.72.144 1.008.104.288.24.528.408.72.176.192.38.336.612.432.24.088.496.132.768.132Zm7.22.756a7.132 7.132 0 0 1-.456.984c-.16.288-.34.532-.54.732-.2.2-.424.348-.672.444a2.187 2.187 0 0 1-.852.156c-.16 0-.308-.012-.444-.036a1.336 1.336 0 0 1-.372-.096v-1.02c.088.064.2.112.336.144.136.04.284.06.444.06.296 0 .54-.072.732-.216.192-.136.376-.356.552-.66l-2.532-6.648h1.164l1.98 5.256 1.968-5.256h1.02l-2.328 6.156Zm5.94-5.256v5.328h-1.056v-5.328h-1.956v-.9h5.004v.9h-1.992Zm4.267 3.888 3.324-4.788h1.068v6.228h-1.056v-4.776l-3.312 4.776h-1.08v-6.228h1.056v4.788Zm10.532-.372c0 .352-.072.652-.216.9-.136.24-.324.44-.564.6-.24.152-.52.26-.84.324-.312.072-.64.108-.984.108a4.62 4.62 0 0 1-1.212-.144c-.344-.096-.616-.212-.816-.348v-.948c.248.152.544.272.888.36.344.088.716.132 1.116.132.456 0 .836-.072 1.14-.216.312-.152.468-.408.468-.768 0-.352-.132-.6-.396-.744-.256-.144-.652-.216-1.188-.216h-.828v-.852h.864c.44 0 .776-.08 1.008-.24.232-.16.348-.392.348-.696a.63.63 0 0 0-.12-.396.742.742 0 0 0-.3-.264 1.274 1.274 0 0 0-.456-.144 2.885 2.885 0 0 0-.54-.048c-.368 0-.712.044-1.032.132a3.275 3.275 0 0 0-.852.372v-.948c.208-.136.476-.252.804-.348a4.25 4.25 0 0 1 1.164-.144c.76 0 1.332.144 1.716.432.392.288.588.704.588 1.248 0 .408-.112.728-.336.96-.216.232-.524.392-.924.48.496.064.868.22 1.116.468.256.248.384.564.384.948Zm5.197.624a3.648 3.648 0 0 1-.276.456 2.088 2.088 0 0 1-1.02.732c-.224.08-.488.12-.792.12-.56 0-1.012-.156-1.356-.468-.344-.32-.516-.776-.516-1.368 0-.68.236-1.18.708-1.5.48-.32 1.16-.48 2.04-.48h1.164v-.516c0-.432-.112-.74-.336-.924-.224-.184-.608-.276-1.152-.276-.384 0-.748.064-1.092.192-.344.12-.652.26-.924.42v-.948c.224-.136.524-.268.9-.396a3.75 3.75 0 0 1 1.26-.204c.784 0 1.38.164 1.788.492.408.32.612.82.612 1.5V357.784c.008.088.012.18.012.276l.024.276c.008.08.016.148.024.204h-.96a5.482 5.482 0 0 1-.072-.468 7.173 7.173 0 0 1-.024-.54l-.012-.18Zm-1.86.36c.328 0 .608-.068.84-.204.232-.136.42-.292.564-.468.144-.184.248-.36.312-.528.064-.176.096-.3.096-.372v-.456h-1.056c-.632 0-1.092.092-1.38.276-.28.176-.42.444-.42.804 0 .28.084.508.252.684.168.176.432.264.792.264Zm9.604.828h-5.076v-6.228h1.056v5.328h3.06v-5.328h1.056v5.328h.936v2.676h-.9l-.132-1.776Zm3.187-1.44 3.324-4.788h1.068v6.228h-1.056v-4.776l-3.312 4.776h-1.08v-6.228h1.056v4.788Zm7.172 0 3.324-4.788h1.068v6.228h-1.056v-4.776l-3.312 4.776h-1.08v-6.228h1.056v4.788Zm-81.418 10.244c-.408 0-.744.088-1.008.264-.264.168-.48.388-.648.66v4.272h-1.392v-6.228h1.32l.048 1.02h.024c.168-.328.42-.6.756-.816.344-.216.78-.324 1.308-.324.608 0 1.104.164 1.488.492.392.328.588.828.588 1.5v4.356h-1.404v-4.212c0-.36-.096-.612-.288-.756-.192-.152-.456-.228-.792-.228Zm9.18 4.74c-.088.056-.196.12-.324.192-.128.064-.28.124-.456.18a4.628 4.628 0 0 1-1.404.204c-1.144 0-2-.284-2.568-.852-.56-.568-.84-1.364-.84-2.388 0-.504.076-.956.228-1.356.152-.4.364-.736.636-1.008.272-.28.596-.492.972-.636a3.268 3.268 0 0 1 1.236-.228c.464 0 .88.076 1.248.228.376.152.684.38.924.684.24.304.404.68.492 1.128.096.448.1.972.012 1.572h-4.308c.056.568.244.996.564 1.284.32.28.82.42 1.5.42.496 0 .908-.06 1.236-.18.336-.128.62-.26.852-.396v1.152Zm-2.52-4.788c-.408 0-.752.124-1.032.372s-.464.616-.552 1.104h2.928c.016-.504-.096-.876-.336-1.116-.24-.24-.576-.36-1.008-.36Zm6.012 2.952-1.512 2.292h-1.368l2.196-3.24-1.98-2.988h1.584l1.368 2.052 1.332-2.052h1.368l-2.016 3.012 2.136 3.216h-1.584l-1.524-2.292Zm7.374 2.1c-.144.088-.324.16-.54.216a2.623 2.623 0 0 1-.744.096c-.336 0-.62-.044-.852-.132a1.551 1.551 0 0 1-.552-.384 1.454 1.454 0 0 1-.312-.552 2.396 2.396 0 0 1-.096-.684v-3.468h-.744v-1.128h.744v-1.308h1.392v1.308h1.788v1.128h-1.788v3.312c0 .256.06.444.18.564.128.12.336.18.624.18.192 0 .36-.028.504-.084.144-.056.276-.132.396-.228v1.164Zm1.056-4.08h2.94v1.188h-2.94v-1.188Zm7.445-.924c-.408 0-.744.088-1.008.264-.264.168-.48.388-.648.66v4.272h-1.392v-8.604h1.392v2.304l-.012 1.092h.012c.176-.32.432-.588.768-.804.336-.224.768-.336 1.296-.336.608 0 1.104.164 1.488.492.392.328.588.828.588 1.5v4.356h-1.404v-4.212c0-.36-.096-.612-.288-.756-.192-.152-.456-.228-.792-.228Zm6.671 5.316c-.44 0-.848-.072-1.224-.216a2.867 2.867 0 0 1-.984-.624 3.091 3.091 0 0 1-.648-1.02c-.152-.4-.228-.86-.228-1.38 0-.52.076-.98.228-1.38.16-.4.376-.736.648-1.008.28-.28.608-.488.984-.624a3.394 3.394 0 0 1 1.224-.216c.44 0 .848.072 1.224.216.376.136.704.344.984.624.28.272.5.608.66 1.008.16.4.24.86.24 1.38 0 .52-.08.98-.24 1.38-.16.4-.38.74-.66 1.02-.28.272-.608.48-.984.624a3.394 3.394 0 0 1-1.224.216Zm0-1.164c.48 0 .876-.168 1.188-.504.32-.336.48-.86.48-1.572 0-.704-.16-1.224-.48-1.56a1.534 1.534 0 0 0-1.188-.516c-.472 0-.868.172-1.188.516-.312.336-.468.856-.468 1.56 0 .712.156 1.236.468 1.572.32.336.716.504 1.188.504Zm7.705 1.164c-.472 0-.88-.104-1.224-.312a2.489 2.489 0 0 1-.816-.864v3.18h-1.392v-8.352h1.272l.096 1.104c.208-.376.484-.672.828-.888.344-.224.764-.336 1.26-.336.368 0 .716.068 1.044.204.336.128.628.328.876.6.248.264.444.6.588 1.008.152.4.228.872.228 1.416 0 .552-.076 1.032-.228 1.44-.144.4-.344.736-.6 1.008-.248.264-.54.464-.876.6a2.941 2.941 0 0 1-1.056.192Zm-.336-1.164c.496 0 .896-.168 1.2-.504.312-.344.468-.868.468-1.572 0-.696-.156-1.216-.468-1.56-.304-.344-.7-.516-1.188-.516-.248 0-.476.044-.684.132-.208.08-.392.208-.552.384a1.93 1.93 0 0 0-.36.66 2.771 2.771 0 0 0-.132.9c0 .352.044.66.132.924.088.256.208.472.36.648.152.168.332.296.54.384.216.08.444.12.684.12Zm14.112 1.044h-1.884l-3.852-6.816v6.816h-1.32v-8.604h1.896l3.84 6.804v-6.804h1.32v8.604Zm4.142-8.604h1.908l3.048 8.604h-1.5l-.792-2.256h-3.624l-.792 2.256h-1.284l3.036-8.604Zm2.22 5.1-1.368-3.876-1.368 3.876h2.736Zm6.456-3.84v7.344h-1.464v-7.344h-2.616v-1.26h6.684v1.26h-2.604Zm3.581 2.46h2.94v1.188h-2.94v-1.188Zm6.845-3.72h1.908l3.048 8.604h-1.5l-.792-2.256h-3.624l-.792 2.256h-1.284l3.036-8.604Zm2.22 5.1-1.368-3.876-1.368 3.876h2.736Z"/><rect width="147" height="101" x="68" y="432" fill="#fff" stroke="#FF5958" stroke-width="2" rx="9"/><path fill="#5282FF" fill-rule="evenodd" d="M141.052 448.646a2.003 2.003 0 0 1 1.896 0l9.943 5.354L142 459.864l-8.463-4.557a1 1 0 0 0-.949 1.761l8.412 4.529v9.715a1 1 0 1 0 2 0v-9.715l10.997-5.921c.002.038.003.077.003.116v11.416a2 2 0 0 1-1.052 1.761l-10 5.385a2.003 2.003 0 0 1-1.896 0l-10-5.385a2 2 0 0 1-1.052-1.761v-11.416a2 2 0 0 1 1.052-1.761l10-5.385Zm2.844-1.761a4.001 4.001 0 0 0-3.792 0l-10 5.385a4 4 0 0 0-2.104 3.522v11.416a4 4 0 0 0 2.104 3.522l10 5.385a4.001 4.001 0 0 0 3.792 0l10-5.385a4 4 0 0 0 2.104-3.522v-11.416a4 4 0 0 0-2.104-3.522l-10-5.385Z" clip-rule="evenodd"/><path fill="#000" fill-opacity=".85" d="M109.539 486.44V494h-1.14v-7.56h-2.652v-1.044h6.444v1.044h-2.652Zm8.043 7.032a3.344 3.344 0 0 1-.324.204 3.758 3.758 0 0 1-.468.216 3.946 3.946 0 0 1-.624.156 3.864 3.864 0 0 1-.78.072c-1.048 0-1.844-.284-2.388-.852-.544-.568-.816-1.364-.816-2.388 0-.504.072-.956.216-1.356.152-.4.36-.736.624-1.008.264-.28.576-.492.936-.636.36-.152.752-.228 1.176-.228a3 3 0 0 1 1.2.228c.352.152.64.376.864.672.232.296.388.664.468 1.104.088.432.088.936 0 1.512h-4.392c.04.672.24 1.176.6 1.512.36.328.896.492 1.608.492.48 0 .892-.068 1.236-.204a4.33 4.33 0 0 0 .864-.444v.948Zm-2.472-4.884c-.456 0-.848.14-1.176.42-.328.28-.536.704-.624 1.272h3.348c.032-.576-.1-1-.396-1.272-.296-.28-.68-.42-1.152-.42Zm6.661 5.532a3.77 3.77 0 0 1-1.308-.216 2.861 2.861 0 0 1-.984-.636c-.272-.28-.48-.62-.624-1.02a4.024 4.024 0 0 1-.216-1.368c0-.504.072-.956.216-1.356.152-.4.364-.736.636-1.008a2.63 2.63 0 0 1 .996-.636 3.662 3.662 0 0 1 1.332-.228c.384 0 .736.044 1.056.132.32.08.584.2.792.36v.948a2.798 2.798 0 0 0-.864-.372 3.563 3.563 0 0 0-.972-.132c-.728 0-1.264.188-1.608.564-.336.376-.504.952-.504 1.728s.164 1.352.492 1.728c.328.376.848.564 1.56.564.376 0 .72-.044 1.032-.132.32-.096.608-.216.864-.36v.948a3.678 3.678 0 0 1-1.896.492Zm5.82-5.448V494h-1.056v-5.328h-1.956v-.9h5.004v.9h-1.992Zm5.591 5.448c-.424 0-.82-.072-1.188-.216a2.767 2.767 0 0 1-.96-.624 3.04 3.04 0 0 1-.624-1.02c-.152-.4-.228-.86-.228-1.38 0-.512.076-.968.228-1.368a2.89 2.89 0 0 1 .624-1.02c.272-.272.592-.48.96-.624a3.231 3.231 0 0 1 1.188-.216c.432 0 .832.072 1.2.216.368.144.684.352.948.624.272.272.484.612.636 1.02.16.4.24.856.24 1.368 0 .52-.08.98-.24 1.38-.152.4-.364.74-.636 1.02-.264.272-.58.48-.948.624a3.265 3.265 0 0 1-1.2.216Zm0-.948c.28 0 .536-.044.768-.132.24-.096.448-.236.624-.42.176-.192.312-.432.408-.72.096-.288.144-.628.144-1.02s-.048-.732-.144-1.02a1.855 1.855 0 0 0-.408-.708 1.569 1.569 0 0 0-.624-.42 1.99 1.99 0 0 0-.768-.144c-.28 0-.536.048-.768.144a1.586 1.586 0 0 0-.612.42c-.168.184-.3.42-.396.708a3.234 3.234 0 0 0-.144 1.02c0 .392.048.732.144 1.02.096.288.228.528.396.72.176.184.38.324.612.42.232.088.488.132.768.132Zm4.311-5.4h2.328c.752 0 1.32.132 1.704.396.384.256.576.66.576 1.212 0 .368-.096.664-.288.888-.184.216-.448.372-.792.468.888.144 1.332.636 1.332 1.476 0 .32-.064.596-.192.828a1.583 1.583 0 0 1-.528.552 2.348 2.348 0 0 1-.816.312 5.08 5.08 0 0 1-1.02.096h-2.304v-6.228Zm1.056.9v1.692h1.176c.4 0 .72-.072.96-.216.248-.144.372-.352.372-.624 0-.328-.108-.552-.324-.672-.216-.12-.524-.18-.924-.18h-1.26Zm0 2.532v1.896h1.236c.224 0 .424-.012.6-.036.184-.032.34-.084.468-.156a.778.778 0 0 0 .312-.288.85.85 0 0 0 .108-.444c0-.36-.124-.612-.372-.756-.248-.144-.62-.216-1.116-.216h-1.236Zm9.037 1.608a3.648 3.648 0 0 1-.276.456 2.088 2.088 0 0 1-1.02.732c-.224.08-.488.12-.792.12-.56 0-1.012-.156-1.356-.468-.344-.32-.516-.776-.516-1.368 0-.68.236-1.18.708-1.5.48-.32 1.16-.48 2.04-.48h1.164v-.516c0-.432-.112-.74-.336-.924-.224-.184-.608-.276-1.152-.276-.384 0-.748.064-1.092.192-.344.12-.652.26-.924.42v-.948c.224-.136.524-.268.9-.396a3.75 3.75 0 0 1 1.26-.204c.784 0 1.38.164 1.788.492.408.32.612.82.612 1.5V493.244c.008.088.012.18.012.276l.024.276c.008.08.016.148.024.204h-.96a5.482 5.482 0 0 1-.072-.468 7.173 7.173 0 0 1-.024-.54l-.012-.18Zm-1.86.36c.328 0 .608-.068.84-.204.232-.136.42-.292.564-.468.144-.184.248-.36.312-.528.064-.176.096-.3.096-.372v-.456h-1.056c-.632 0-1.092.092-1.38.276-.28.176-.42.444-.42.804 0 .28.084.508.252.684.168.176.432.264.792.264Zm4.529-3.384c0-.352.064-.652.192-.9.128-.256.308-.464.54-.624a2.38 2.38 0 0 1 .828-.372c.32-.08.668-.12 1.044-.12h2.004V494h-1.056v-2.256h-1.14L151.071 494h-1.26l1.8-2.52c-.432-.128-.768-.324-1.008-.588-.232-.264-.348-.632-.348-1.104Zm3.552 1.056v-2.172h-.948c-.448 0-.816.084-1.104.252-.288.168-.432.44-.432.816 0 .392.128.676.384.852.256.168.62.252 1.092.252h1.008Zm5.568-5.448h2.916c.944 0 1.66.16 2.148.48.496.32.744.86.744 1.62 0 .312-.044.584-.132.816-.08.224-.196.42-.348.588-.144.16-.324.292-.54.396a2.97 2.97 0 0 1-.696.24c.672.08 1.176.276 1.512.588.344.304.516.768.516 1.392 0 .448-.084.832-.252 1.152-.16.312-.384.568-.672.768a3.191 3.191 0 0 1-1.02.432c-.392.088-.82.132-1.284.132h-2.892v-8.604Zm1.128 1.032v2.64h1.704c.272 0 .52-.028.744-.084.224-.064.416-.156.576-.276.16-.128.284-.284.372-.468.096-.192.144-.42.144-.684 0-.44-.152-.736-.456-.888-.304-.16-.736-.24-1.296-.24h-1.788Zm0 3.66v2.892h1.764c.304 0 .58-.024.828-.072.248-.048.46-.128.636-.24a1.12 1.12 0 0 0 .42-.444c.104-.184.156-.412.156-.684 0-.544-.176-.92-.528-1.128-.344-.216-.892-.324-1.644-.324h-1.632Zm10.855 1.344 2.796-6.036h1.464V494h-1.14v-6.924l-2.64 5.604-.564.012h-.504l.012-.012-2.604-5.7V494h-1.068v-8.604h1.572l2.676 6.036Z"/><rect width="147" height="101" x="69" y="175" fill="#fff" stroke="#FFDB4D" stroke-width="2" rx="9"/><path fill="#000" fill-opacity=".85" d="M324.131 155h-1.956l-3.024-8.604h1.512l2.556 7.38 2.592-7.38h1.344L324.131 155Zm4.039-8.604h2.808c1.04 0 1.848.208 2.424.624.576.416.864 1.076.864 1.98 0 .496-.08.924-.24 1.284-.16.36-.388.656-.684.888-.288.232-.64.404-1.056.516a5.543 5.543 0 0 1-1.368.156h-1.296V155h-1.452v-8.604Zm1.452 1.26v2.94h1.296c.584 0 1.044-.116 1.38-.348.336-.232.504-.632.504-1.2 0-.488-.156-.84-.468-1.056-.304-.224-.756-.336-1.356-.336h-1.356Zm9.878 7.464c-.664 0-1.264-.1-1.8-.3a3.887 3.887 0 0 1-1.38-.864 4.006 4.006 0 0 1-.876-1.392c-.2-.552-.3-1.172-.3-1.86 0-.696.096-1.316.288-1.86.2-.544.484-1.004.852-1.38a3.69 3.69 0 0 1 1.368-.876c.536-.2 1.148-.3 1.836-.3.592 0 1.096.06 1.512.18.424.112.76.244 1.008.396v1.296a3.619 3.619 0 0 0-1.128-.456 5.334 5.334 0 0 0-1.344-.168c-.968 0-1.688.264-2.16.792-.464.52-.696 1.312-.696 2.376 0 2.112.976 3.168 2.928 3.168.456 0 .884-.056 1.284-.168.408-.112.78-.288 1.116-.528v1.284c-.224.168-.548.32-.972.456-.424.136-.936.204-1.536.204Zm4.669-.048a.951.951 0 0 1-.684-.264.921.921 0 0 1-.264-.66c0-.264.088-.484.264-.66a.929.929 0 0 1 .684-.276c.272 0 .5.092.684.276a.876.876 0 0 1 .276.66.9.9 0 0 1-.276.66.951.951 0 0 1-.684.264Zm0-4.248a.951.951 0 0 1-.684-.264.921.921 0 0 1-.264-.66c0-.264.088-.484.264-.66a.929.929 0 0 1 .684-.276c.272 0 .5.092.684.276a.876.876 0 0 1 .276.66.9.9 0 0 1-.276.66.951.951 0 0 1-.684.264Zm9.415 3.012c-.2.392-.468.704-.804.936-.336.232-.756.348-1.26.348-.368 0-.72-.064-1.056-.192a2.566 2.566 0 0 1-.888-.6 3.01 3.01 0 0 1-.612-1.008c-.152-.408-.228-.888-.228-1.44 0-.544.076-1.016.228-1.416.152-.408.356-.744.612-1.008a2.47 2.47 0 0 1 .9-.6 2.788 2.788 0 0 1 1.056-.204c.464 0 .86.092 1.188.276.336.184.608.444.816.78v-3.312h1.38V155h-1.26l-.072-1.164Zm-1.74.12c.24 0 .46-.04.66-.12.208-.088.388-.216.54-.384.16-.176.284-.392.372-.648.088-.264.132-.572.132-.924 0-.352-.044-.656-.132-.912a1.8 1.8 0 0 0-.36-.648 1.343 1.343 0 0 0-.54-.384 1.707 1.707 0 0 0-.672-.132c-.488 0-.892.176-1.212.528-.312.352-.468.868-.468 1.548 0 .696.156 1.216.468 1.56.312.344.716.516 1.212.516Zm9.855.588c-.088.056-.196.12-.324.192-.128.064-.28.124-.456.18a4.628 4.628 0 0 1-1.404.204c-1.144 0-2-.284-2.568-.852-.56-.568-.84-1.364-.84-2.388 0-.504.076-.956.228-1.356.152-.4.364-.736.636-1.008.272-.28.596-.492.972-.636a3.268 3.268 0 0 1 1.236-.228c.464 0 .88.076 1.248.228.376.152.684.38.924.684.24.304.404.68.492 1.128.096.448.1.972.012 1.572h-4.308c.056.568.244.996.564 1.284.32.28.82.42 1.5.42.496 0 .908-.06 1.236-.18.336-.128.62-.26.852-.396v1.152Zm-2.52-4.788c-.408 0-.752.124-1.032.372s-.464.616-.552 1.104h2.928c.016-.504-.096-.876-.336-1.116-.24-.24-.576-.36-1.008-.36Zm5.302 5.244h-1.392v-6.228h1.272l.096 1.02h.024c.168-.328.412-.6.732-.816.328-.216.744-.324 1.248-.324.456 0 .844.108 1.164.324.32.216.536.544.648.984.176-.4.44-.716.792-.948.352-.24.78-.36 1.284-.36.28 0 .536.04.768.12.24.08.444.204.612.372.168.16.3.364.396.612.096.248.144.54.144.876V155h-1.404v-4.176c0-.36-.088-.62-.264-.78-.176-.16-.416-.24-.72-.24-.368 0-.672.1-.912.3-.232.2-.428.44-.588.72V155h-1.404v-4.272c0-.36-.088-.604-.264-.732-.176-.128-.412-.192-.708-.192-.384 0-.692.088-.924.264a2.28 2.28 0 0 0-.6.66V155Zm11.983.12c-.44 0-.848-.072-1.224-.216a2.867 2.867 0 0 1-.984-.624 3.091 3.091 0 0 1-.648-1.02c-.152-.4-.228-.86-.228-1.38 0-.52.076-.98.228-1.38.16-.4.376-.736.648-1.008.28-.28.608-.488.984-.624a3.394 3.394 0 0 1 1.224-.216c.44 0 .848.072 1.224.216.376.136.704.344.984.624.28.272.5.608.66 1.008.16.4.24.86.24 1.38 0 .52-.08.98-.24 1.38-.16.4-.38.74-.66 1.02-.28.272-.608.48-.984.624a3.394 3.394 0 0 1-1.224.216Zm0-1.164c.48 0 .876-.168 1.188-.504.32-.336.48-.86.48-1.572 0-.704-.16-1.224-.48-1.56a1.534 1.534 0 0 0-1.188-.516c-.472 0-.868.172-1.188.516-.312.336-.468.856-.468 1.56 0 .712.156 1.236.468 1.572.32.336.716.504 1.188.504Z"/><path fill="#4E496B" d="m280 55-10-5.773v11.547L280 55ZM143 175V63h-2v112h2Zm7-119h121v-2H150v2Zm-7 7a7 7 0 0 1 7-7v-2a9 9 0 0 0-9 9h2Z"/><path fill="#929292" d="m164 226 10 5.774v-11.548L164 226Zm9 1h153v-2H173v2Z"/><path fill="#4E496B" d="m142 277-5.774 10h11.548L142 277Zm-1 9v31h2v-31h-2ZM142 391l-5.774 10h11.548L142 391Zm-1 9v31h2v-31h-2Z"/><path fill="#000" fill-opacity=".85" d="M345.166 258h-1.536l-4.32-7.224V258h-1.068v-8.604h1.524l4.32 7.224v-7.224h1.08V258Zm7.322 0h-5.316v-8.604h1.128v7.584h4.188V258Zm1.551-8.604h2.916c.944 0 1.66.16 2.148.48.496.32.744.86.744 1.62 0 .312-.044.584-.132.816-.08.224-.196.42-.348.588-.144.16-.324.292-.54.396a2.97 2.97 0 0 1-.696.24c.672.08 1.176.276 1.512.588.344.304.516.768.516 1.392 0 .448-.084.832-.252 1.152-.16.312-.384.568-.672.768a3.191 3.191 0 0 1-1.02.432c-.392.088-.82.132-1.284.132h-2.892v-8.604Zm1.128 1.032v2.64h1.704c.272 0 .52-.028.744-.084.224-.064.416-.156.576-.276.16-.128.284-.284.372-.468.096-.192.144-.42.144-.684 0-.44-.152-.736-.456-.888-.304-.16-.736-.24-1.296-.24h-1.788Zm0 3.66v2.892h1.764c.304 0 .58-.024.828-.072.248-.048.46-.128.636-.24a1.12 1.12 0 0 0 .42-.444c.104-.184.156-.412.156-.684 0-.544-.176-.92-.528-1.128-.344-.216-.892-.324-1.644-.324h-1.632Z"/><path fill="#5282FF" fill-rule="evenodd" d="M356.126 215H352a2 2 0 0 0-2 2v8h6.126a4.002 4.002 0 0 1 7.874 1 4 4 0 0 1-7.874 1H350v8a2 2 0 0 0 2 2h4.126a4.002 4.002 0 0 1 7.874 1 4 4 0 0 1-7.874 1H352a4 4 0 0 1-4-4v-18a4 4 0 0 1 4-4h4.126a4.002 4.002 0 0 1 7.874 1 4 4 0 0 1-7.874 1ZM358 238a2 2 0 1 0 3.999.001A2 2 0 0 0 358 238Zm2-10a2 2 0 1 1-.001-3.999A2 2 0 0 1 360 228Zm-2-14a2 2 0 1 0 3.999.001A2 2 0 0 0 358 214Zm-23 11a1 1 0 0 0 0 2h7.586l-2.293 2.293a.999.999 0 1 0 1.414 1.414l4-4a.999.999 0 0 0 0-1.414l-4-4a.999.999 0 1 0-1.414 1.414l2.293 2.293H335Z" clip-rule="evenodd"/><rect width="138" height="68" x="281" y="21" fill="#fff" stroke="#5282FF" stroke-width="2" rx="9"/><path fill="#000" fill-opacity=".85" d="m325.083 57.5 4.728-7.104h1.224V59h-1.152v-7.068L325.179 59h-1.224v-8.604h1.128V57.5Zm11.878-1.26h-3.012V59h-1.056v-6.228h1.056v2.568h3.012v-2.568h1.056V59h-1.056v-2.76Zm5.296-2.568V59h-1.056v-5.328h-1.956v-.9h5.004v.9h-1.992Zm7.991 4.8a3.344 3.344 0 0 1-.324.204 3.758 3.758 0 0 1-.468.216 3.946 3.946 0 0 1-.624.156 3.864 3.864 0 0 1-.78.072c-1.048 0-1.844-.284-2.388-.852-.544-.568-.816-1.364-.816-2.388 0-.504.072-.956.216-1.356.152-.4.36-.736.624-1.008.264-.28.576-.492.936-.636.36-.152.752-.228 1.176-.228a3 3 0 0 1 1.2.228c.352.152.64.376.864.672.232.296.388.664.468 1.104.088.432.088.936 0 1.512h-4.392c.04.672.24 1.176.6 1.512.36.328.896.492 1.608.492.48 0 .892-.068 1.236-.204a4.33 4.33 0 0 0 .864-.444v.948Zm-2.472-4.884c-.456 0-.848.14-1.176.42-.328.28-.536.704-.624 1.272h3.348c.032-.576-.1-1-.396-1.272-.296-.28-.68-.42-1.152-.42Zm7.105 5.532c-.48 0-.896-.112-1.248-.336a2.444 2.444 0 0 1-.828-.924v3.264h-1.056v-8.352h.924l.108 1.212c.208-.408.488-.732.84-.972s.788-.36 1.308-.36c.36 0 .704.068 1.032.204.336.128.628.328.876.6.256.264.456.6.6 1.008.152.4.228.872.228 1.416 0 .552-.076 1.032-.228 1.44a3.01 3.01 0 0 1-.612 1.008 2.566 2.566 0 0 1-.888.6 2.941 2.941 0 0 1-1.056.192Zm-.156-.948c.552 0 .996-.188 1.332-.564.344-.384.516-.96.516-1.728 0-.752-.172-1.32-.516-1.704-.336-.392-.78-.588-1.332-.588-.272 0-.528.048-.768.144a1.71 1.71 0 0 0-.612.432c-.168.184-.304.42-.408.708a3.191 3.191 0 0 0-.144 1.008c0 .384.048.72.144 1.008.104.288.24.528.408.72.176.192.38.336.612.432.24.088.496.132.768.132Zm8.287-1.932H360V59h-1.056v-6.228H360v2.568h3.012v-2.568h1.056V59h-1.056v-2.76Zm7.744 2.232a3.344 3.344 0 0 1-.324.204 3.758 3.758 0 0 1-.468.216 3.946 3.946 0 0 1-.624.156 3.864 3.864 0 0 1-.78.072c-1.048 0-1.844-.284-2.388-.852-.544-.568-.816-1.364-.816-2.388 0-.504.072-.956.216-1.356.152-.4.36-.736.624-1.008.264-.28.576-.492.936-.636.36-.152.752-.228 1.176-.228a3 3 0 0 1 1.2.228c.352.152.64.376.864.672.232.296.388.664.468 1.104.088.432.088.936 0 1.512h-4.392c.04.672.24 1.176.6 1.512.36.328.896.492 1.608.492.48 0 .892-.068 1.236-.204a4.33 4.33 0 0 0 .864-.444v.948Zm-2.472-4.884c-.456 0-.848.14-1.176.42-.328.28-.536.704-.624 1.272h3.348c.032-.576-.1-1-.396-1.272-.296-.28-.68-.42-1.152-.42Zm6.422.084V59h-1.056v-5.328h-1.956v-.9h5.004v.9h-1.992Z"/><path fill="#5282FF" fill-rule="evenodd" d="M143 214a4 4 0 0 0-4-4h-1a1 1 0 0 0 0 2h1a2 2 0 0 1 2 2v24a2 2 0 0 1-2 2h-1a1 1 0 0 0 0 2h1a4 4 0 0 0 4-4v-11h10.586l-2.293 2.293a.999.999 0 1 0 1.414 1.414l4-4a.999.999 0 0 0 0-1.414l-4-4a.999.999 0 1 0-1.414 1.414l2.293 2.293H143v-11Zm-16 12a1 1 0 0 1 1-1h7.586l-1.293-1.293a.999.999 0 1 1 1.414-1.414l3 3a.999.999 0 0 1 0 1.414l-3 3a.999.999 0 1 1-1.414-1.414l1.293-1.293H128a1 1 0 0 1-1-1Zm0-9a1 1 0 0 1 1-1h7.586l-1.293-1.293a.999.999 0 1 1 1.414-1.414l3 3a.999.999 0 0 1 0 1.414l-3 3a.999.999 0 1 1-1.414-1.414l1.293-1.293H128a1 1 0 0 1-1-1Zm1 17a1 1 0 0 0 0 2h7.586l-1.293 1.293a.999.999 0 1 0 1.414 1.414l3-3a.999.999 0 0 0 0-1.414l-3-3a.999.999 0 1 0-1.414 1.414l1.293 1.293H128Z" clip-rule="evenodd"/><path fill="#000" fill-opacity=".85" d="M87.826 230h-1.535l-4.32-7.224V230h-1.069v-8.604h1.525l4.32 7.224v-7.224h1.08V230Zm4.298-8.604h1.68L96.888 230h-1.2l-.888-2.46h-3.804L90.12 230h-1.056l3.06-8.604Zm2.316 5.124-1.536-4.284-1.536 4.284h3.072Zm6.001-4.08V230h-1.14v-7.56H96.65v-1.044h6.444v1.044h-2.652Zm3.752 2.808h2.88v.96h-2.88v-.96Zm6.904-3.852h1.68l3.084 8.604h-1.2l-.888-2.46h-3.804l-.876 2.46h-1.056l3.06-8.604Zm2.316 5.124-1.536-4.284-1.536 4.284h3.072ZM118.398 190.12c-.472 0-.88-.104-1.224-.312a2.489 2.489 0 0 1-.816-.864v3.18h-1.392v-8.352h1.272l.096 1.104c.208-.376.484-.672.828-.888.344-.224.764-.336 1.26-.336.368 0 .716.068 1.044.204.336.128.628.328.876.6.248.264.444.6.588 1.008.152.4.228.872.228 1.416 0 .552-.076 1.032-.228 1.44-.144.4-.344.736-.6 1.008-.248.264-.54.464-.876.6a2.941 2.941 0 0 1-1.056.192Zm-.336-1.164c.496 0 .896-.168 1.2-.504.312-.344.468-.868.468-1.572 0-.696-.156-1.216-.468-1.56-.304-.344-.7-.516-1.188-.516-.248 0-.476.044-.684.132-.208.08-.392.208-.552.384a1.93 1.93 0 0 0-.36.66 2.771 2.771 0 0 0-.132.9c0 .352.044.66.132.924.088.256.208.472.36.648.152.168.332.296.54.384.216.08.444.12.684.12Zm8.247.024c-.168.32-.42.592-.756.816-.328.216-.76.324-1.296.324-.584 0-1.06-.168-1.428-.504-.368-.336-.552-.848-.552-1.536v-4.308h1.404v4.272c0 .36.1.604.3.732.2.12.444.18.732.18.392 0 .712-.08.96-.24a2.23 2.23 0 0 0 .636-.672v-4.272h1.38V190h-1.272l-.084-1.02h-.024Zm9.145-2.1c0 .552-.076 1.032-.228 1.44-.144.4-.344.736-.6 1.008-.248.264-.54.464-.876.6a2.941 2.941 0 0 1-1.056.192c-.48 0-.896-.108-1.248-.324a2.467 2.467 0 0 1-.828-.912l-.036 1.116h-1.32v-8.604h1.392l-.012 3.468c.208-.376.484-.672.828-.888.344-.216.76-.324 1.248-.324.368 0 .716.068 1.044.204.336.128.628.328.876.6.248.264.444.6.588 1.008.152.4.228.872.228 1.416Zm-3.096 2.076c.496 0 .896-.168 1.2-.504.312-.344.468-.868.468-1.572 0-.696-.156-1.216-.468-1.56-.304-.344-.7-.516-1.188-.516-.248 0-.476.044-.684.132-.208.08-.392.208-.552.384a1.93 1.93 0 0 0-.36.66 2.771 2.771 0 0 0-.132.9c0 .352.044.66.132.924.088.256.208.472.36.648.152.168.332.296.54.384.216.08.444.12.684.12Zm5.668-7.56V190h-1.392v-8.604h1.392Zm2.269 1.584a.862.862 0 0 1-.636-.252.84.84 0 0 1-.24-.6.84.84 0 0 1 .24-.6.862.862 0 0 1 .636-.252c.248 0 .452.084.612.252a.82.82 0 0 1 .252.6.82.82 0 0 1-.252.6.808.808 0 0 1-.612.252Zm.696.792V190h-1.392v-6.228h1.392Zm4.428 6.348c-.504 0-.956-.072-1.356-.216-.4-.152-.74-.364-1.02-.636-.28-.28-.496-.62-.648-1.02a3.832 3.832 0 0 1-.228-1.368c0-.504.076-.956.228-1.356a2.71 2.71 0 0 1 1.68-1.644 3.895 3.895 0 0 1 1.368-.228c.432 0 .808.048 1.128.144.328.096.588.216.78.36v1.152a3.154 3.154 0 0 0-.816-.372 3.46 3.46 0 0 0-1.008-.132c-1.288 0-1.932.692-1.932 2.076 0 1.384.632 2.076 1.896 2.076.408 0 .756-.044 1.044-.132a4.2 4.2 0 0 0 .816-.36v1.152a3.384 3.384 0 0 1-.78.36c-.312.096-.696.144-1.152.144Zm6.477-7.14a.862.862 0 0 1-.636-.252.84.84 0 0 1-.24-.6.84.84 0 0 1 .24-.6.862.862 0 0 1 .636-.252c.248 0 .452.084.612.252a.82.82 0 0 1 .252.6.82.82 0 0 1-.252.6.808.808 0 0 1-.612.252Zm.696.792V190H151.2v-6.228h1.392Zm4.993 6.348c-.472 0-.88-.104-1.224-.312a2.489 2.489 0 0 1-.816-.864v3.18h-1.392v-8.352h1.272l.096 1.104c.208-.376.484-.672.828-.888.344-.224.764-.336 1.26-.336.368 0 .716.068 1.044.204.336.128.628.328.876.6.248.264.444.6.588 1.008.152.4.228.872.228 1.416 0 .552-.076 1.032-.228 1.44-.144.4-.344.736-.6 1.008-.248.264-.54.464-.876.6a2.941 2.941 0 0 1-1.056.192Zm-.336-1.164c.496 0 .896-.168 1.2-.504.312-.344.468-.868.468-1.572 0-.696-.156-1.216-.468-1.56-.304-.344-.7-.516-1.188-.516-.248 0-.476.044-.684.132-.208.08-.392.208-.552.384a1.93 1.93 0 0 0-.36.66 2.771 2.771 0 0 0-.132.9c0 .352.044.66.132.924.088.256.208.472.36.648.152.168.332.296.54.384.216.08.444.12.684.12Zm10.5-.048a2.09 2.09 0 0 1-.264.432 1.857 1.857 0 0 1-.396.396 1.98 1.98 0 0 1-.552.276 2.393 2.393 0 0 1-.756.108c-.272 0-.524-.04-.756-.12a1.692 1.692 0 0 1-.612-.336 1.734 1.734 0 0 1-.408-.564 2.056 2.056 0 0 1-.144-.792c0-.68.252-1.188.756-1.524.504-.344 1.216-.516 2.136-.516h.948v-.384c0-.408-.104-.688-.312-.84-.208-.16-.552-.24-1.032-.24-.408 0-.792.06-1.152.18a5.066 5.066 0 0 0-.936.396v-1.164a5.05 5.05 0 0 1 .984-.384c.408-.12.852-.18 1.332-.18.8 0 1.416.168 1.848.504.44.328.66.856.66 1.584V189.244c.008.088.012.18.012.276l.024.276c.008.08.016.148.024.204h-1.284a5.482 5.482 0 0 1-.072-.468c-.016-.2-.028-.38-.036-.54l-.012-.084Zm-1.584.132c.296 0 .54-.06.732-.18.2-.128.36-.272.48-.432.12-.168.204-.332.252-.492.048-.16.072-.272.072-.336v-.42h-.864c-.552 0-.956.088-1.212.264a.81.81 0 0 0-.384.72c0 .272.076.488.228.648.16.152.392.228.696.228Z"/><path fill="#FF5958" d="M92.733 519.772h4.992V526H96.67v-5.328h-2.88V526h-1.056v-6.228Zm9.271 6.348c-.424 0-.82-.072-1.188-.216a2.767 2.767 0 0 1-.96-.624 3.04 3.04 0 0 1-.624-1.02c-.152-.4-.228-.86-.228-1.38 0-.512.076-.968.228-1.368a2.89 2.89 0 0 1 .624-1.02c.272-.272.592-.48.96-.624a3.231 3.231 0 0 1 1.188-.216c.432 0 .832.072 1.2.216.368.144.684.352.948.624.272.272.484.612.636 1.02.16.4.24.856.24 1.368 0 .52-.08.98-.24 1.38-.152.4-.364.74-.636 1.02-.264.272-.58.48-.948.624a3.265 3.265 0 0 1-1.2.216Zm0-.948c.28 0 .536-.044.768-.132.24-.096.448-.236.624-.42.176-.192.312-.432.408-.72.096-.288.144-.628.144-1.02s-.048-.732-.144-1.02a1.855 1.855 0 0 0-.408-.708 1.569 1.569 0 0 0-.624-.42 1.99 1.99 0 0 0-.768-.144c-.28 0-.536.048-.768.144a1.586 1.586 0 0 0-.612.42c-.168.184-.3.42-.396.708a3.234 3.234 0 0 0-.144 1.02c0 .392.048.732.144 1.02.096.288.228.528.396.72.176.184.38.324.612.42.232.088.488.132.768.132Zm3.917-.072c.224-.136.4-.348.528-.636.128-.288.228-.652.3-1.092.072-.44.12-.96.144-1.56.032-.6.06-1.28.084-2.04h4.284v5.328h.936v2.676h-.924l-.132-1.776h-4.632l-.108 1.776h-.948V525.1h.468Zm4.284 0v-4.428h-2.28c-.04 1.176-.116 2.12-.228 2.832-.104.704-.288 1.236-.552 1.596h3.06Zm5.665 1.02a3.77 3.77 0 0 1-1.308-.216 2.861 2.861 0 0 1-.984-.636c-.272-.28-.48-.62-.624-1.02a4.024 4.024 0 0 1-.216-1.368c0-.504.072-.956.216-1.356.152-.4.364-.736.636-1.008a2.63 2.63 0 0 1 .996-.636 3.662 3.662 0 0 1 1.332-.228c.384 0 .736.044 1.056.132.32.08.584.2.792.36v.948a2.798 2.798 0 0 0-.864-.372 3.563 3.563 0 0 0-.972-.132c-.728 0-1.264.188-1.608.564-.336.376-.504.952-.504 1.728s.164 1.352.492 1.728c.328.376.848.564 1.56.564.376 0 .72-.044 1.032-.132.32-.096.608-.216.864-.36v.948a3.678 3.678 0 0 1-1.896.492Zm8.268-.648a3.344 3.344 0 0 1-.324.204 3.758 3.758 0 0 1-.468.216 3.946 3.946 0 0 1-.624.156 3.864 3.864 0 0 1-.78.072c-1.048 0-1.844-.284-2.388-.852-.544-.568-.816-1.364-.816-2.388 0-.504.072-.956.216-1.356.152-.4.36-.736.624-1.008.264-.28.576-.492.936-.636.36-.152.752-.228 1.176-.228a3 3 0 0 1 1.2.228c.352.152.64.376.864.672.232.296.388.664.468 1.104.088.432.088.936 0 1.512h-4.392c.04.672.24 1.176.6 1.512.36.328.896.492 1.608.492.48 0 .892-.068 1.236-.204a4.33 4.33 0 0 0 .864-.444v.948Zm-2.472-4.884c-.456 0-.848.14-1.176.42-.328.28-.536.704-.624 1.272h3.348c.032-.576-.1-1-.396-1.272-.296-.28-.68-.42-1.152-.42Zm6.423.084V526h-1.056v-5.328h-1.956v-.9h5.004v.9h-1.992Zm7.843 3.252c0 .36-.064.672-.192.936s-.308.48-.54.648a2.38 2.38 0 0 1-.828.372c-.32.08-.668.12-1.044.12h-2.064v-6.228h1.056v2.172h1.08c.792 0 1.412.156 1.86.468.448.312.672.816.672 1.512Zm-3.612-1.08v2.256h1.008c.456 0 .824-.084 1.104-.252.288-.176.432-.464.432-.864 0-.408-.128-.7-.384-.876-.256-.176-.616-.264-1.08-.264h-1.08Zm5.532 3.228a.763.763 0 0 1-.564-.216.759.759 0 0 1-.216-.54c0-.224.072-.408.216-.552a.763.763 0 0 1 .564-.216c.224 0 .408.072.552.216a.748.748 0 0 1 .216.552.759.759 0 0 1-.216.54.748.748 0 0 1-.552.216Zm0-4.596a.763.763 0 0 1-.564-.216.759.759 0 0 1-.216-.54c0-.224.072-.408.216-.552a.763.763 0 0 1 .564-.216c.224 0 .408.072.552.216a.748.748 0 0 1 .216.552.759.759 0 0 1-.216.54.748.748 0 0 1-.552.216Zm8.064 4.644c-.48 0-.896-.112-1.248-.336a2.444 2.444 0 0 1-.828-.924v3.264h-1.056v-8.352h.924l.108 1.212c.208-.408.488-.732.84-.972s.788-.36 1.308-.36c.36 0 .704.068 1.032.204.336.128.628.328.876.6.256.264.456.6.6 1.008.152.4.228.872.228 1.416 0 .552-.076 1.032-.228 1.44a3.01 3.01 0 0 1-.612 1.008 2.566 2.566 0 0 1-.888.6 2.941 2.941 0 0 1-1.056.192Zm-.156-.948c.552 0 .996-.188 1.332-.564.344-.384.516-.96.516-1.728 0-.752-.172-1.32-.516-1.704-.336-.392-.78-.588-1.332-.588-.272 0-.528.048-.768.144a1.71 1.71 0 0 0-.612.432c-.168.184-.304.42-.408.708a3.191 3.191 0 0 0-.144 1.008c0 .384.048.72.144 1.008.104.288.24.528.408.72.176.192.38.336.612.432.24.088.496.132.768.132Zm7.303-4.344c-.448.04-.856.156-1.224.348-.36.184-.628.472-.804.864V526h-1.056v-6.228h.924l.108 1.356h.024c.176-.368.428-.688.756-.96.336-.28.76-.452 1.272-.516v1.176Zm1.827-1.968c-.216 0-.388-.064-.516-.192a.692.692 0 0 1-.192-.492.675.675 0 0 1 .708-.696c.208 0 .372.068.492.204.12.136.18.3.18.492s-.06.356-.18.492c-.12.128-.284.192-.492.192Zm.516.912V526h-1.056v-6.228h1.056Zm4.818 6.228h-1.704l-2.136-6.228h1.14l1.896 5.664 1.884-5.664h1.056L160.224 526Zm6.704-1.188a3.648 3.648 0 0 1-.276.456 2.088 2.088 0 0 1-1.02.732c-.224.08-.488.12-.792.12-.56 0-1.012-.156-1.356-.468-.344-.32-.516-.776-.516-1.368 0-.68.236-1.18.708-1.5.48-.32 1.16-.48 2.04-.48h1.164v-.516c0-.432-.112-.74-.336-.924-.224-.184-.608-.276-1.152-.276-.384 0-.748.064-1.092.192-.344.12-.652.26-.924.42v-.948c.224-.136.524-.268.9-.396a3.75 3.75 0 0 1 1.26-.204c.784 0 1.38.164 1.788.492.408.32.612.82.612 1.5V525.244c.008.088.012.18.012.276l.024.276c.008.08.016.148.024.204h-.96a5.482 5.482 0 0 1-.072-.468 7.173 7.173 0 0 1-.024-.54l-.012-.18Zm-1.86.36c.328 0 .608-.068.84-.204.232-.136.42-.292.564-.468.144-.184.248-.36.312-.528.064-.176.096-.3.096-.372v-.456h-1.056c-.632 0-1.092.092-1.38.276-.28.176-.42.444-.42.804 0 .28.084.508.252.684.168.176.432.264.792.264Zm7.576.696a1.93 1.93 0 0 1-.492.18c-.2.048-.412.072-.636.072-.304 0-.564-.044-.78-.132a1.504 1.504 0 0 1-.516-.348 1.48 1.48 0 0 1-.3-.504 2.09 2.09 0 0 1-.084-.588v-3.876h-.744v-.9h.744v-1.308h1.056v1.308h1.812v.9h-1.812v3.744c0 .264.064.456.192.576.136.12.372.18.708.18.312 0 .596-.088.852-.264v.96Zm6.303-.396a3.344 3.344 0 0 1-.324.204 3.758 3.758 0 0 1-.468.216 3.946 3.946 0 0 1-.624.156 3.864 3.864 0 0 1-.78.072c-1.048 0-1.844-.284-2.388-.852-.544-.568-.816-1.364-.816-2.388 0-.504.072-.956.216-1.356.152-.4.36-.736.624-1.008.264-.28.576-.492.936-.636.36-.152.752-.228 1.176-.228a3 3 0 0 1 1.2.228c.352.152.64.376.864.672.232.296.388.664.468 1.104.088.432.088.936 0 1.512h-4.392c.04.672.24 1.176.6 1.512.36.328.896.492 1.608.492.48 0 .892-.068 1.236-.204a4.33 4.33 0 0 0 .864-.444v.948Zm-2.472-4.884c-.456 0-.848.14-1.176.42-.328.28-.536.704-.624 1.272h3.348c.032-.576-.1-1-.396-1.272-.296-.28-.68-.42-1.152-.42Zm3.735 1.272h2.88v.96h-2.88v-.96Zm8.116 2.952a3.648 3.648 0 0 1-.276.456 2.088 2.088 0 0 1-1.02.732c-.224.08-.488.12-.792.12-.56 0-1.012-.156-1.356-.468-.344-.32-.516-.776-.516-1.368 0-.68.236-1.18.708-1.5.48-.32 1.16-.48 2.04-.48h1.164v-.516c0-.432-.112-.74-.336-.924-.224-.184-.608-.276-1.152-.276-.384 0-.748.064-1.092.192-.344.12-.652.26-.924.42v-.948c.224-.136.524-.268.9-.396a3.75 3.75 0 0 1 1.26-.204c.784 0 1.38.164 1.788.492.408.32.612.82.612 1.5V525.244c.008.088.012.18.012.276l.024.276c.008.08.016.148.024.204h-.96a5.482 5.482 0 0 1-.072-.468 7.173 7.173 0 0 1-.024-.54l-.012-.18Zm-1.86.36c.328 0 .608-.068.84-.204.232-.136.42-.292.564-.468.144-.184.248-.36.312-.528.064-.176.096-.3.096-.372v-.456h-1.056c-.632 0-1.092.092-1.38.276-.28.176-.42.444-.42.804 0 .28.084.508.252.684.168.176.432.264.792.264Z"/><path fill="#FFDB4D" d="M96.218 262.772h4.992V269h-1.056v-5.328h-2.88V269h-1.056v-6.228Zm9.27 6.348c-.424 0-.82-.072-1.188-.216a2.767 2.767 0 0 1-.96-.624 3.04 3.04 0 0 1-.624-1.02c-.152-.4-.228-.86-.228-1.38 0-.512.076-.968.228-1.368a2.89 2.89 0 0 1 .624-1.02c.272-.272.592-.48.96-.624a3.231 3.231 0 0 1 1.188-.216c.432 0 .832.072 1.2.216.368.144.684.352.948.624.272.272.484.612.636 1.02.16.4.24.856.24 1.368 0 .52-.08.98-.24 1.38-.152.4-.364.74-.636 1.02-.264.272-.58.48-.948.624a3.265 3.265 0 0 1-1.2.216Zm0-.948c.28 0 .536-.044.768-.132.24-.096.448-.236.624-.42.176-.192.312-.432.408-.72.096-.288.144-.628.144-1.02s-.048-.732-.144-1.02a1.855 1.855 0 0 0-.408-.708 1.569 1.569 0 0 0-.624-.42 1.99 1.99 0 0 0-.768-.144c-.28 0-.536.048-.768.144a1.586 1.586 0 0 0-.612.42c-.168.184-.3.42-.396.708a3.234 3.234 0 0 0-.144 1.02c0 .392.048.732.144 1.02.096.288.228.528.396.72.176.184.38.324.612.42.232.088.488.132.768.132Zm3.917-.072c.224-.136.4-.348.528-.636.128-.288.228-.652.3-1.092.072-.44.12-.96.144-1.56.032-.6.06-1.28.084-2.04h4.284v5.328h.936v2.676h-.924l-.132-1.776h-4.632l-.108 1.776h-.948V268.1h.468Zm4.284 0v-4.428h-2.28c-.04 1.176-.116 2.12-.228 2.832-.104.704-.288 1.236-.552 1.596h3.06Zm5.666 1.02a3.77 3.77 0 0 1-1.308-.216 2.861 2.861 0 0 1-.984-.636c-.272-.28-.48-.62-.624-1.02a4.024 4.024 0 0 1-.216-1.368c0-.504.072-.956.216-1.356.152-.4.364-.736.636-1.008a2.63 2.63 0 0 1 .996-.636 3.662 3.662 0 0 1 1.332-.228c.384 0 .736.044 1.056.132.32.08.584.2.792.36v.948a2.798 2.798 0 0 0-.864-.372 3.563 3.563 0 0 0-.972-.132c-.728 0-1.264.188-1.608.564-.336.376-.504.952-.504 1.728s.164 1.352.492 1.728c.328.376.848.564 1.56.564.376 0 .72-.044 1.032-.132.32-.096.608-.216.864-.36v.948a3.678 3.678 0 0 1-1.896.492Zm8.268-.648a3.344 3.344 0 0 1-.324.204 3.758 3.758 0 0 1-.468.216 3.946 3.946 0 0 1-.624.156 3.864 3.864 0 0 1-.78.072c-1.048 0-1.844-.284-2.388-.852-.544-.568-.816-1.364-.816-2.388 0-.504.072-.956.216-1.356.152-.4.36-.736.624-1.008.264-.28.576-.492.936-.636.36-.152.752-.228 1.176-.228a3 3 0 0 1 1.2.228c.352.152.64.376.864.672.232.296.388.664.468 1.104.088.432.088.936 0 1.512h-4.392c.04.672.24 1.176.6 1.512.36.328.896.492 1.608.492.48 0 .892-.068 1.236-.204a4.33 4.33 0 0 0 .864-.444v.948Zm-2.472-4.884c-.456 0-.848.14-1.176.42-.328.28-.536.704-.624 1.272h3.348c.032-.576-.1-1-.396-1.272-.296-.28-.68-.42-1.152-.42Zm6.422.084V269h-1.056v-5.328h-1.956v-.9h5.004v.9h-1.992Zm7.843 3.252c0 .36-.064.672-.192.936s-.308.48-.54.648a2.38 2.38 0 0 1-.828.372c-.32.08-.668.12-1.044.12h-2.064v-6.228h1.056v2.172h1.08c.792 0 1.412.156 1.86.468.448.312.672.816.672 1.512Zm-3.612-1.08v2.256h1.008c.456 0 .824-.084 1.104-.252.288-.176.432-.464.432-.864 0-.408-.128-.7-.384-.876-.256-.176-.616-.264-1.08-.264h-1.08Zm5.532 3.228a.763.763 0 0 1-.564-.216.759.759 0 0 1-.216-.54c0-.224.072-.408.216-.552a.763.763 0 0 1 .564-.216c.224 0 .408.072.552.216a.748.748 0 0 1 .216.552.759.759 0 0 1-.216.54.748.748 0 0 1-.552.216Zm0-4.596a.763.763 0 0 1-.564-.216.759.759 0 0 1-.216-.54c0-.224.072-.408.216-.552a.763.763 0 0 1 .564-.216c.224 0 .408.072.552.216a.748.748 0 0 1 .216.552.759.759 0 0 1-.216.54.748.748 0 0 1-.552.216Zm8.064 4.644c-.48 0-.896-.112-1.248-.336a2.444 2.444 0 0 1-.828-.924v3.264h-1.056v-8.352h.924l.108 1.212c.208-.408.488-.732.84-.972s.788-.36 1.308-.36c.36 0 .704.068 1.032.204.336.128.628.328.876.6.256.264.456.6.6 1.008.152.4.228.872.228 1.416 0 .552-.076 1.032-.228 1.44a3.01 3.01 0 0 1-.612 1.008 2.566 2.566 0 0 1-.888.6 2.941 2.941 0 0 1-1.056.192Zm-.156-.948c.552 0 .996-.188 1.332-.564.344-.384.516-.96.516-1.728 0-.752-.172-1.32-.516-1.704-.336-.392-.78-.588-1.332-.588-.272 0-.528.048-.768.144a1.71 1.71 0 0 0-.612.432c-.168.184-.304.42-.408.708a3.191 3.191 0 0 0-.144 1.008c0 .384.048.72.144 1.008.104.288.24.528.408.72.176.192.38.336.612.432.24.088.496.132.768.132Zm8.216-.288a2.233 2.233 0 0 1-.78.888c-.344.232-.796.348-1.356.348-.576 0-1.044-.16-1.404-.48-.352-.328-.528-.832-.528-1.512v-4.356h1.068v4.356c0 .208.028.38.084.516a.886.886 0 0 0 .612.48c.144.032.3.048.468.048.464 0 .836-.104 1.116-.312.28-.208.52-.492.72-.852v-4.236h1.056V269h-.936l-.096-1.116h-.024Zm8.705-2.004c0 .552-.076 1.032-.228 1.44a3.01 3.01 0 0 1-.612 1.008 2.566 2.566 0 0 1-.888.6 2.941 2.941 0 0 1-1.056.192c-.48 0-.9-.112-1.26-.336a2.46 2.46 0 0 1-.84-.96l-.036 1.176h-.996v-8.604h1.056l-.024 3.588c.208-.408.488-.732.84-.972s.788-.36 1.308-.36c.36 0 .704.068 1.032.204.336.128.628.328.876.6.256.264.456.6.6 1.008.152.4.228.872.228 1.416Zm-2.94 2.292c.552 0 .996-.188 1.332-.564.344-.384.516-.96.516-1.728 0-.752-.172-1.32-.516-1.704-.336-.392-.78-.588-1.332-.588-.272 0-.528.048-.768.144a1.71 1.71 0 0 0-.612.432c-.168.184-.304.42-.408.708a3.191 3.191 0 0 0-.144 1.008c0 .384.048.72.144 1.008.104.288.24.528.408.72.176.192.38.336.612.432.24.088.496.132.768.132Zm5.275-7.776V269h-1.056v-8.604h1.056Zm2.261 1.464c-.216 0-.388-.064-.516-.192a.692.692 0 0 1-.192-.492.675.675 0 0 1 .708-.696c.208 0 .372.068.492.204.12.136.18.3.18.492s-.06.356-.18.492c-.12.128-.284.192-.492.192Zm.516.912V269h-1.056v-6.228h1.056Zm4.41 6.348a3.77 3.77 0 0 1-1.308-.216 2.861 2.861 0 0 1-.984-.636c-.272-.28-.48-.62-.624-1.02a4.024 4.024 0 0 1-.216-1.368c0-.504.072-.956.216-1.356.152-.4.364-.736.636-1.008a2.63 2.63 0 0 1 .996-.636 3.662 3.662 0 0 1 1.332-.228c.384 0 .736.044 1.056.132.32.08.584.2.792.36v.948a2.798 2.798 0 0 0-.864-.372 3.563 3.563 0 0 0-.972-.132c-.728 0-1.264.188-1.608.564-.336.376-.504.952-.504 1.728s.164 1.352.492 1.728c.328.376.848.564 1.56.564.376 0 .72-.044 1.032-.132.32-.096.608-.216.864-.36v.948a3.678 3.678 0 0 1-1.896.492Zm3.039-4.26h2.88v.96h-2.88v-.96Zm8.116 2.952a3.648 3.648 0 0 1-.276.456 2.088 2.088 0 0 1-1.02.732c-.224.08-.488.12-.792.12-.56 0-1.012-.156-1.356-.468-.344-.32-.516-.776-.516-1.368 0-.68.236-1.18.708-1.5.48-.32 1.16-.48 2.04-.48h1.164v-.516c0-.432-.112-.74-.336-.924-.224-.184-.608-.276-1.152-.276-.384 0-.748.064-1.092.192-.344.12-.652.26-.924.42v-.948c.224-.136.524-.268.9-.396a3.75 3.75 0 0 1 1.26-.204c.784 0 1.38.164 1.788.492.408.32.612.82.612 1.5V268.244c.008.088.012.18.012.276l.024.276c.008.08.016.148.024.204h-.96a5.482 5.482 0 0 1-.072-.468 7.173 7.173 0 0 1-.024-.54l-.012-.18Zm-1.86.36c.328 0 .608-.068.84-.204.232-.136.42-.292.564-.468.144-.184.248-.36.312-.528.064-.176.096-.3.096-.372v-.456h-1.056c-.632 0-1.092.092-1.38.276-.28.176-.42.444-.42.804 0 .28.084.508.252.684.168.176.432.264.792.264Z"/><rect width="147" height="101" x="-1" y="1" fill="#fff" stroke="#FFDB4D" stroke-width="2" rx="9" transform="matrix(-1 0 0 1 632 174)"/><path fill="#5282FF" fill-rule="evenodd" d="M561 214a4 4 0 0 0-4-4h-1a1 1 0 0 0 0 2h1a2 2 0 0 1 2 2v24a2 2 0 0 1-2 2h-1a1 1 0 0 0 0 2h1a4 4 0 0 0 4-4v-11h10.586l-2.293 2.293a.999.999 0 1 0 1.414 1.414l4-4a.999.999 0 0 0 0-1.414l-4-4a.999.999 0 1 0-1.414 1.414l2.293 2.293H561v-11Zm-16 12a1 1 0 0 1 1-1h7.586l-1.293-1.293a.999.999 0 1 1 1.414-1.414l3 3a.999.999 0 0 1 0 1.414l-3 3a.999.999 0 1 1-1.414-1.414l1.293-1.293H546a1 1 0 0 1-1-1Zm0-9a1 1 0 0 1 1-1h7.586l-1.293-1.293a.999.999 0 1 1 1.414-1.414l3 3a.999.999 0 0 1 0 1.414l-3 3a.999.999 0 1 1-1.414-1.414l1.293-1.293H546a1 1 0 0 1-1-1Zm1 17a1 1 0 0 0 0 2h7.586l-1.293 1.293a.999.999 0 1 0 1.414 1.414l3-3a.999.999 0 0 0 0-1.414l-3-3a.999.999 0 1 0-1.414 1.414l1.293 1.293H546Z" clip-rule="evenodd"/><path fill="#000" fill-opacity=".85" d="M594.114 230h-1.536l-4.32-7.224V230h-1.068v-8.604h1.524l4.32 7.224v-7.224h1.08V230Zm4.297-8.604h1.68l3.084 8.604h-1.2l-.888-2.46h-3.804l-.876 2.46h-1.056l3.06-8.604Zm2.316 5.124-1.536-4.284-1.536 4.284h3.072Zm6.001-4.08V230h-1.14v-7.56h-2.652v-1.044h6.444v1.044h-2.652Zm3.752 2.808h2.88v.96h-2.88v-.96Zm4.612-3.852h2.916c.944 0 1.66.16 2.148.48.496.32.744.86.744 1.62 0 .312-.044.584-.132.816-.08.224-.196.42-.348.588-.144.16-.324.292-.54.396a2.97 2.97 0 0 1-.696.24c.672.08 1.176.276 1.512.588.344.304.516.768.516 1.392 0 .448-.084.832-.252 1.152-.16.312-.384.568-.672.768a3.191 3.191 0 0 1-1.02.432c-.392.088-.82.132-1.284.132h-2.892v-8.604Zm1.128 1.032v2.64h1.704c.272 0 .52-.028.744-.084.224-.064.416-.156.576-.276.16-.128.284-.284.372-.468.096-.192.144-.42.144-.684 0-.44-.152-.736-.456-.888-.304-.16-.736-.24-1.296-.24h-1.788Zm0 3.66v2.892h1.764c.304 0 .58-.024.828-.072.248-.048.46-.128.636-.24a1.12 1.12 0 0 0 .42-.444c.104-.184.156-.412.156-.684 0-.544-.176-.92-.528-1.128-.344-.216-.892-.324-1.644-.324h-1.632ZM534.929 190.12c-.472 0-.88-.104-1.224-.312a2.489 2.489 0 0 1-.816-.864v3.18h-1.392v-8.352h1.272l.096 1.104c.208-.376.484-.672.828-.888.344-.224.764-.336 1.26-.336.368 0 .716.068 1.044.204.336.128.628.328.876.6.248.264.444.6.588 1.008.152.4.228.872.228 1.416 0 .552-.076 1.032-.228 1.44-.144.4-.344.736-.6 1.008-.248.264-.54.464-.876.6a2.941 2.941 0 0 1-1.056.192Zm-.336-1.164c.496 0 .896-.168 1.2-.504.312-.344.468-.868.468-1.572 0-.696-.156-1.216-.468-1.56-.304-.344-.7-.516-1.188-.516-.248 0-.476.044-.684.132-.208.08-.392.208-.552.384a1.93 1.93 0 0 0-.36.66 2.771 2.771 0 0 0-.132.9c0 .352.044.66.132.924.088.256.208.472.36.648.152.168.332.296.54.384.216.08.444.12.684.12Zm8.247.024c-.168.32-.42.592-.756.816-.328.216-.76.324-1.296.324-.584 0-1.06-.168-1.428-.504-.368-.336-.552-.848-.552-1.536v-4.308h1.404v4.272c0 .36.1.604.3.732.2.12.444.18.732.18.392 0 .712-.08.96-.24a2.23 2.23 0 0 0 .636-.672v-4.272h1.38V190h-1.272l-.084-1.02h-.024Zm9.146-2.1c0 .552-.076 1.032-.228 1.44-.144.4-.344.736-.6 1.008-.248.264-.54.464-.876.6a2.941 2.941 0 0 1-1.056.192c-.48 0-.896-.108-1.248-.324a2.467 2.467 0 0 1-.828-.912l-.036 1.116h-1.32v-8.604h1.392l-.012 3.468c.208-.376.484-.672.828-.888.344-.216.76-.324 1.248-.324.368 0 .716.068 1.044.204.336.128.628.328.876.6.248.264.444.6.588 1.008.152.4.228.872.228 1.416Zm-3.096 2.076c.496 0 .896-.168 1.2-.504.312-.344.468-.868.468-1.572 0-.696-.156-1.216-.468-1.56-.304-.344-.7-.516-1.188-.516-.248 0-.476.044-.684.132-.208.08-.392.208-.552.384a1.93 1.93 0 0 0-.36.66 2.771 2.771 0 0 0-.132.9c0 .352.044.66.132.924.088.256.208.472.36.648.152.168.332.296.54.384.216.08.444.12.684.12Zm5.667-7.56V190h-1.392v-8.604h1.392Zm2.269 1.584a.862.862 0 0 1-.636-.252.84.84 0 0 1-.24-.6.84.84 0 0 1 .24-.6.862.862 0 0 1 .636-.252c.248 0 .452.084.612.252a.82.82 0 0 1 .252.6.82.82 0 0 1-.252.6.808.808 0 0 1-.612.252Zm.696.792V190h-1.392v-6.228h1.392Zm4.429 6.348c-.504 0-.956-.072-1.356-.216-.4-.152-.74-.364-1.02-.636-.28-.28-.496-.62-.648-1.02a3.832 3.832 0 0 1-.228-1.368c0-.504.076-.956.228-1.356a2.71 2.71 0 0 1 1.68-1.644 3.895 3.895 0 0 1 1.368-.228c.432 0 .808.048 1.128.144.328.096.588.216.78.36v1.152a3.154 3.154 0 0 0-.816-.372 3.46 3.46 0 0 0-1.008-.132c-1.288 0-1.932.692-1.932 2.076 0 1.384.632 2.076 1.896 2.076.408 0 .756-.044 1.044-.132a4.2 4.2 0 0 0 .816-.36v1.152a3.384 3.384 0 0 1-.78.36c-.312.096-.696.144-1.152.144Zm6.476-7.14a.862.862 0 0 1-.636-.252.84.84 0 0 1-.24-.6.84.84 0 0 1 .24-.6.862.862 0 0 1 .636-.252c.248 0 .452.084.612.252a.82.82 0 0 1 .252.6.82.82 0 0 1-.252.6.808.808 0 0 1-.612.252Zm.696.792V190h-1.392v-6.228h1.392Zm4.993 6.348c-.472 0-.88-.104-1.224-.312a2.489 2.489 0 0 1-.816-.864v3.18h-1.392v-8.352h1.272l.096 1.104c.208-.376.484-.672.828-.888.344-.224.764-.336 1.26-.336.368 0 .716.068 1.044.204.336.128.628.328.876.6.248.264.444.6.588 1.008.152.4.228.872.228 1.416 0 .552-.076 1.032-.228 1.44-.144.4-.344.736-.6 1.008-.248.264-.54.464-.876.6a2.941 2.941 0 0 1-1.056.192Zm-.336-1.164c.496 0 .896-.168 1.2-.504.312-.344.468-.868.468-1.572 0-.696-.156-1.216-.468-1.56-.304-.344-.7-.516-1.188-.516-.248 0-.476.044-.684.132-.208.08-.392.208-.552.384a1.93 1.93 0 0 0-.36.66 2.771 2.771 0 0 0-.132.9c0 .352.044.66.132.924.088.256.208.472.36.648.152.168.332.296.54.384.216.08.444.12.684.12Zm13.104-2.076c0 .552-.076 1.032-.228 1.44-.144.4-.344.736-.6 1.008-.248.264-.54.464-.876.6a2.941 2.941 0 0 1-1.056.192c-.48 0-.896-.108-1.248-.324a2.467 2.467 0 0 1-.828-.912l-.036 1.116h-1.32v-8.604h1.392l-.012 3.468c.208-.376.484-.672.828-.888.344-.216.76-.324 1.248-.324.368 0 .716.068 1.044.204.336.128.628.328.876.6.248.264.444.6.588 1.008.152.4.228.872.228 1.416Zm-3.096 2.076c.496 0 .896-.168 1.2-.504.312-.344.468-.868.468-1.572 0-.696-.156-1.216-.468-1.56-.304-.344-.7-.516-1.188-.516-.248 0-.476.044-.684.132-.208.08-.392.208-.552.384a1.93 1.93 0 0 0-.36.66 2.771 2.771 0 0 0-.132.9c0 .352.044.66.132.924.088.256.208.472.36.648.152.168.332.296.54.384.216.08.444.12.684.12Z"/><path fill="#FFDB4D" d="M512.778 262.772h4.992V269h-1.056v-5.328h-2.88V269h-1.056v-6.228Zm9.271 6.348c-.424 0-.82-.072-1.188-.216a2.767 2.767 0 0 1-.96-.624 3.04 3.04 0 0 1-.624-1.02c-.152-.4-.228-.86-.228-1.38 0-.512.076-.968.228-1.368a2.89 2.89 0 0 1 .624-1.02c.272-.272.592-.48.96-.624a3.231 3.231 0 0 1 1.188-.216c.432 0 .832.072 1.2.216.368.144.684.352.948.624.272.272.484.612.636 1.02.16.4.24.856.24 1.368 0 .52-.08.98-.24 1.38-.152.4-.364.74-.636 1.02-.264.272-.58.48-.948.624a3.265 3.265 0 0 1-1.2.216Zm0-.948c.28 0 .536-.044.768-.132.24-.096.448-.236.624-.42.176-.192.312-.432.408-.72.096-.288.144-.628.144-1.02s-.048-.732-.144-1.02a1.855 1.855 0 0 0-.408-.708 1.569 1.569 0 0 0-.624-.42 1.99 1.99 0 0 0-.768-.144c-.28 0-.536.048-.768.144a1.586 1.586 0 0 0-.612.42c-.168.184-.3.42-.396.708a3.234 3.234 0 0 0-.144 1.02c0 .392.048.732.144 1.02.096.288.228.528.396.72.176.184.38.324.612.42.232.088.488.132.768.132Zm3.917-.072c.224-.136.4-.348.528-.636.128-.288.228-.652.3-1.092.072-.44.12-.96.144-1.56.032-.6.06-1.28.083-2.04h4.285v5.328h.936v2.676h-.924l-.132-1.776h-4.632l-.108 1.776h-.948V268.1h.468Zm4.284 0v-4.428h-2.28c-.04 1.176-.116 2.12-.228 2.832-.104.704-.288 1.236-.552 1.596h3.06Zm5.665 1.02a3.77 3.77 0 0 1-1.308-.216 2.861 2.861 0 0 1-.984-.636c-.272-.28-.48-.62-.624-1.02a4.024 4.024 0 0 1-.216-1.368c0-.504.072-.956.216-1.356.152-.4.364-.736.636-1.008a2.63 2.63 0 0 1 .996-.636 3.662 3.662 0 0 1 1.332-.228c.384 0 .736.044 1.056.132.32.08.584.2.792.36v.948a2.798 2.798 0 0 0-.864-.372 3.563 3.563 0 0 0-.972-.132c-.728 0-1.264.188-1.608.564-.336.376-.504.952-.504 1.728s.164 1.352.492 1.728c.328.376.848.564 1.56.564.376 0 .72-.044 1.032-.132.32-.096.608-.216.864-.36v.948a3.678 3.678 0 0 1-1.896.492Zm8.268-.648a3.344 3.344 0 0 1-.324.204 3.758 3.758 0 0 1-.468.216 3.946 3.946 0 0 1-.624.156 3.864 3.864 0 0 1-.78.072c-1.048 0-1.844-.284-2.388-.852-.544-.568-.816-1.364-.816-2.388 0-.504.072-.956.216-1.356.152-.4.36-.736.624-1.008.264-.28.576-.492.936-.636.36-.152.752-.228 1.176-.228a3 3 0 0 1 1.2.228c.352.152.64.376.864.672.232.296.388.664.468 1.104.088.432.088.936 0 1.512h-4.392c.04.672.24 1.176.6 1.512.36.328.896.492 1.608.492.48 0 .892-.068 1.236-.204a4.33 4.33 0 0 0 .864-.444v.948Zm-2.472-4.884c-.456 0-.848.14-1.176.42-.328.28-.536.704-.624 1.272h3.348c.032-.576-.1-1-.396-1.272-.296-.28-.68-.42-1.152-.42Zm6.423.084V269h-1.056v-5.328h-1.956v-.9h5.004v.9h-1.992Zm7.842 3.252c0 .36-.064.672-.192.936s-.308.48-.54.648a2.38 2.38 0 0 1-.828.372c-.32.08-.668.12-1.044.12h-2.064v-6.228h1.056v2.172h1.08c.792 0 1.412.156 1.86.468.448.312.672.816.672 1.512Zm-3.612-1.08v2.256h1.008c.456 0 .824-.084 1.104-.252.288-.176.432-.464.432-.864 0-.408-.128-.7-.384-.876-.256-.176-.616-.264-1.08-.264h-1.08Zm5.533 3.228a.763.763 0 0 1-.564-.216.759.759 0 0 1-.216-.54c0-.224.072-.408.216-.552a.763.763 0 0 1 .564-.216c.224 0 .408.072.552.216a.748.748 0 0 1 .216.552.759.759 0 0 1-.216.54.748.748 0 0 1-.552.216Zm0-4.596a.763.763 0 0 1-.564-.216.759.759 0 0 1-.216-.54c0-.224.072-.408.216-.552a.763.763 0 0 1 .564-.216c.224 0 .408.072.552.216a.748.748 0 0 1 .216.552.759.759 0 0 1-.216.54.748.748 0 0 1-.552.216Zm8.064 4.644c-.48 0-.896-.112-1.248-.336a2.444 2.444 0 0 1-.828-.924v3.264h-1.056v-8.352h.924l.108 1.212c.208-.408.488-.732.84-.972s.788-.36 1.308-.36c.36 0 .704.068 1.032.204.336.128.628.328.876.6.256.264.456.6.6 1.008.152.4.228.872.228 1.416 0 .552-.076 1.032-.228 1.44a3.01 3.01 0 0 1-.612 1.008 2.566 2.566 0 0 1-.888.6 2.941 2.941 0 0 1-1.056.192Zm-.156-.948c.552 0 .996-.188 1.332-.564.344-.384.516-.96.516-1.728 0-.752-.172-1.32-.516-1.704-.336-.392-.78-.588-1.332-.588-.272 0-.528.048-.768.144a1.71 1.71 0 0 0-.612.432c-.168.184-.304.42-.408.708a3.191 3.191 0 0 0-.144 1.008c0 .384.048.72.144 1.008.104.288.24.528.408.72.176.192.38.336.612.432.24.088.496.132.768.132Zm8.215-.288a2.233 2.233 0 0 1-.78.888c-.344.232-.796.348-1.356.348-.576 0-1.044-.16-1.404-.48-.352-.328-.528-.832-.528-1.512v-4.356h1.068v4.356c0 .208.028.38.084.516a.886.886 0 0 0 .612.48c.144.032.3.048.468.048.464 0 .836-.104 1.116-.312.28-.208.52-.492.72-.852v-4.236h1.056V269h-.936l-.096-1.116h-.024Zm8.705-2.004c0 .552-.076 1.032-.228 1.44a3.01 3.01 0 0 1-.612 1.008 2.566 2.566 0 0 1-.888.6 2.941 2.941 0 0 1-1.056.192c-.48 0-.9-.112-1.26-.336a2.46 2.46 0 0 1-.84-.96l-.036 1.176h-.996v-8.604h1.056l-.024 3.588c.208-.408.488-.732.84-.972s.788-.36 1.308-.36c.36 0 .704.068 1.032.204.336.128.628.328.876.6.256.264.456.6.6 1.008.152.4.228.872.228 1.416Zm-2.94 2.292c.552 0 .996-.188 1.332-.564.344-.384.516-.96.516-1.728 0-.752-.172-1.32-.516-1.704-.336-.392-.78-.588-1.332-.588-.272 0-.528.048-.768.144a1.71 1.71 0 0 0-.612.432c-.168.184-.304.42-.408.708a3.191 3.191 0 0 0-.144 1.008c0 .384.048.72.144 1.008.104.288.24.528.408.72.176.192.38.336.612.432.24.088.496.132.768.132Zm5.276-7.776V269h-1.056v-8.604h1.056Zm2.261 1.464c-.216 0-.388-.064-.516-.192a.692.692 0 0 1-.192-.492.675.675 0 0 1 .708-.696c.208 0 .372.068.492.204.12.136.18.3.18.492s-.06.356-.18.492c-.12.128-.284.192-.492.192Zm.516.912V269h-1.056v-6.228h1.056Zm4.409 6.348a3.77 3.77 0 0 1-1.308-.216 2.861 2.861 0 0 1-.984-.636c-.272-.28-.48-.62-.624-1.02a4.024 4.024 0 0 1-.216-1.368c0-.504.072-.956.216-1.356.152-.4.364-.736.636-1.008a2.63 2.63 0 0 1 .996-.636 3.662 3.662 0 0 1 1.332-.228c.384 0 .736.044 1.056.132.32.08.584.2.792.36v.948a2.798 2.798 0 0 0-.864-.372 3.563 3.563 0 0 0-.972-.132c-.728 0-1.264.188-1.608.564-.336.376-.504.952-.504 1.728s.164 1.352.492 1.728c.328.376.848.564 1.56.564.376 0 .72-.044 1.032-.132.32-.096.608-.216.864-.36v.948a3.678 3.678 0 0 1-1.896.492Zm3.039-4.26h2.88v.96h-2.88v-.96Zm10.385 1.02c0 .552-.076 1.032-.228 1.44a3.01 3.01 0 0 1-.612 1.008 2.566 2.566 0 0 1-.888.6 2.941 2.941 0 0 1-1.056.192c-.48 0-.9-.112-1.26-.336a2.46 2.46 0 0 1-.84-.96l-.036 1.176h-.996v-8.604h1.056l-.024 3.588c.208-.408.488-.732.84-.972s.788-.36 1.308-.36c.36 0 .704.068 1.032.204.336.128.628.328.876.6.256.264.456.6.6 1.008.152.4.228.872.228 1.416Zm-2.94 2.292c.552 0 .996-.188 1.332-.564.344-.384.516-.96.516-1.728 0-.752-.172-1.32-.516-1.704-.336-.392-.78-.588-1.332-.588-.272 0-.528.048-.768.144a1.71 1.71 0 0 0-.612.432c-.168.184-.304.42-.408.708a3.191 3.191 0 0 0-.144 1.008c0 .384.048.72.144 1.008.104.288.24.528.408.72.176.192.38.336.612.432.24.088.496.132.768.132Z"/><path fill="#929292" d="m538 226-10-5.774v11.548L538 226Zm-9-1H374v2h155v-2Z"/><defs><filter id="a" width="672" height="465" x="14" y="122" color-interpolation-filters="sRGB" filterUnits="userSpaceOnUse"><feFlood flood-opacity="0" result="BackgroundImageFix"/><feColorMatrix in="SourceAlpha" result="hardAlpha" values="0 0 0 0 0 0 0 0 0 0 0 0 0 0 0 0 0 0 127 0"/><feOffset/><feGaussianBlur stdDeviation="4"/><feColorMatrix values="0 0 0 0 0.321569 0 0 0 0 0.509804 0 0 0 0 1 0 0 0 0.2 0"/><feBlend in2="BackgroundImageFix" result="effect1_dropShadow_1_131"/><feBlend in="SourceGraphic" in2="effect1_dropShadow_1_131" result="shape"/></filter><filter id="b" width="165" height="90" x="60" y="309" color-interpolation-filters="sRGB" filterUnits="userSpaceOnUse"><feFlood flood-opacity="0" result="BackgroundImageFix"/><feColorMatrix in="SourceAlpha" result="hardAlpha" values="0 0 0 0 0 0 0 0 0 0 0 0 0 0 0 0 0 0 127 0"/><feOffset/><feGaussianBlur stdDeviation="4"/><feColorMatrix values="0 0 0 0 0.321569 0 0 0 0 0.509804 0 0 0 0 1 0 0 0 0.2 0"/><feBlend in2="BackgroundImageFix" result="effect1_dropShadow_1_131"/><feBlend in="SourceGraphic" in2="effect1_dropShadow_1_131" result="shape"/></filter></defs></svg>