<?xml version="1.0" encoding="UTF-8"?>
<svg xmlns="http://www.w3.org/2000/svg" xmlns:xlink="http://www.w3.org/1999/xlink" width="70px" height="70px" viewBox="0 0 70 70" version="1.1">
<g id="surface1">
<path style="fill-rule:nonzero;fill:rgb(27.843139%,40.784314%,76.078433%);fill-opacity:1;stroke-width:1;stroke-linecap:butt;stroke-linejoin:miter;stroke:rgb(100%,100%,100%);stroke-opacity:1;stroke-miterlimit:4;" d="M 19.25 10 C 19.25 4.891741 15.108259 0.75 10 0.75 C 4.891741 0.75 0.75 4.891741 0.75 10 C 0.75 15.108259 4.891741 19.25 10 19.25 C 15.108259 19.25 19.25 15.108259 19.25 10 Z M 19.25 10 " transform="matrix(3.5,0,0,3.5,0,0)"/>
<path style="fill:none;stroke-width:1;stroke-linecap:round;stroke-linejoin:round;stroke:rgb(100%,100%,100%);stroke-opacity:1;stroke-miterlimit:4;" d="M 6.5 14.5 L 3.5 11.5 " transform="matrix(3.5,0,0,3.5,0,0)"/>
<path style="fill-rule:nonzero;fill:rgb(100%,100%,100%);fill-opacity:1;stroke-width:0.5;stroke-linecap:round;stroke-linejoin:round;stroke:rgb(100%,100%,100%);stroke-opacity:1;stroke-miterlimit:4;" d="M 10.910714 3.439732 L 10.450893 4.320312 L 9.529018 4.320312 L 9.06808 3.439732 C 9.06808 3.439732 9.06808 3 9.989955 3 C 10.910714 3 10.910714 3.439732 10.910714 3.439732 Z M 10.910714 3.439732 " transform="matrix(3.5,0,0,3.5,0,0)"/>
<path style="fill-rule:nonzero;fill:rgb(100%,100%,100%);fill-opacity:1;stroke-width:0.5;stroke-linecap:round;stroke-linejoin:round;stroke:rgb(100%,100%,100%);stroke-opacity:1;stroke-miterlimit:4;" d="M 11.5 12.247768 L 13 13.247768 L 10.449777 13.247768 L 12 15.247768 C 11.733259 15.470982 10.959821 16.247768 10 16.247768 C 9.040179 16.247768 8.266741 15.470982 8 15.247768 L 9.529018 13.247768 L 7 13.247768 L 8.5 12.247768 L 9 11.247768 C 9 10.368304 8 10.247768 7.5 11.247768 C 4.735491 11.248884 2.5 7.747768 4.5 5.247768 L 7.5 8.247768 C 7.5 10.007812 9 9.304688 9 8.247768 C 9 7.276786 8.5 6.747768 8.5 6.747768 L 8 6.247768 L 7 6.247768 L 7.5 5.747768 C 7.5 4.868304 8.146205 5.007812 8.607143 5.007812 L 8.5 5.747768 L 10 7.247768 L 11.5 5.747768 L 11.371652 5.007812 C 11.832589 5.007812 12.5 4.868304 12.5 5.747768 L 13 6.247768 L 12 6.247768 L 11.5 6.747768 C 11.5 6.747768 11 7.247768 11 8.247768 C 11 9.247768 12.5 10.050223 12.5 8.247768 C 13.5 7.247768 14.5 6.247768 15.5 5.247768 C 17.5 7.747768 15.264509 11.248884 12.5 11.247768 C 12 10.247768 11 10.368304 11 11.247768 Z M 11.5 12.247768 " transform="matrix(3.5,0,0,3.5,0,0)"/>
<path style=" stroke:none;fill-rule:nonzero;fill:rgb(100%,100%,100%);fill-opacity:1;" d="M 54.25 49 C 54.25 47.066406 52.683594 45.5 50.75 45.5 C 48.816406 45.5 47.25 47.066406 47.25 49 C 47.25 50.933594 48.816406 52.5 50.75 52.5 C 52.683594 52.5 54.25 50.933594 54.25 49 Z M 54.25 49 "/>
</g>
</svg>
