<?xml version="1.0" encoding="UTF-8"?>
<svg xmlns="http://www.w3.org/2000/svg" xmlns:xlink="http://www.w3.org/1999/xlink" width="70px" height="70px" viewBox="0 0 70 70" version="1.1">
<g id="surface1">
<path style="fill-rule:nonzero;fill:rgb(3.137255%,51.372552%,75.686276%);fill-opacity:1;stroke-width:1;stroke-linecap:butt;stroke-linejoin:miter;stroke:rgb(100%,100%,100%);stroke-opacity:1;stroke-miterlimit:4;" d="M 19.25 10 C 19.25 4.891741 15.108259 0.75 10 0.75 C 4.891741 0.75 0.75 4.891741 0.75 10 C 0.75 15.108259 4.891741 19.25 10 19.25 C 15.108259 19.25 19.25 15.108259 19.25 10 Z M 19.25 10 " transform="matrix(3.5,0,0,3.5,0,0)"/>
<path style="fill-rule:nonzero;fill:rgb(100%,100%,100%);fill-opacity:1;stroke-width:0.2;stroke-linecap:butt;stroke-linejoin:miter;stroke:rgb(100%,100%,100%);stroke-opacity:1;stroke-miterlimit:4;" d="M 6.618304 6.99442 C 6.935268 6.99442 7.233259 7.03125 7.513393 7.107143 L 7.514509 7.107143 C 7.793527 7.176339 8.061384 7.28125 8.316964 7.420759 L 8.368304 7.448661 L 8.36942 7.50558 L 8.402902 8.614955 L 8.407366 8.71875 L 8.014509 8.71875 L 7.985491 8.666295 L 7.63058 7.996652 L 7.629464 7.99442 C 7.575893 7.886161 7.516741 7.789062 7.453125 7.704241 L 7.449777 7.700893 C 7.399554 7.627232 7.333705 7.575893 7.251116 7.543527 L 7.243304 7.540179 C 7.118304 7.479911 6.967634 7.448661 6.78683 7.448661 C 6.472098 7.448661 6.185268 7.527902 5.924107 7.6875 L 5.922991 7.686384 C 5.675223 7.841518 5.469866 8.106027 5.3125 8.487723 L 5.3125 8.488839 C 5.15625 8.860491 5.073661 9.379464 5.073661 10.051339 C 5.073661 10.716518 5.149554 11.235491 5.295759 11.614955 L 5.354911 11.752232 C 5.498884 12.061384 5.679688 12.279018 5.891741 12.414062 C 6.139509 12.566964 6.420759 12.645089 6.735491 12.645089 C 6.883929 12.645089 7 12.633929 7.085938 12.613839 C 7.176339 12.592634 7.267857 12.563616 7.359375 12.52567 L 7.360491 12.524554 C 7.458705 12.485491 7.529018 12.430804 7.579241 12.363839 C 7.635045 12.280134 7.685268 12.186384 7.727679 12.080357 L 7.727679 12.079241 L 8.050223 11.308036 L 8.075893 11.247768 L 8.47433 11.247768 L 8.470982 11.34933 L 8.4375 12.569196 L 8.435268 12.626116 L 8.386161 12.654018 C 8.135045 12.794643 7.858259 12.901786 7.555804 12.976562 C 7.253348 13.052455 6.926339 13.090402 6.574777 13.090402 C 6.013393 13.090402 5.502232 12.97433 5.046875 12.739955 C 4.58817 12.50558 4.22433 12.158482 3.955357 11.702009 L 3.955357 11.700893 C 3.690848 11.242188 3.561384 10.6875 3.561384 10.042411 C 3.561384 9.55692 3.639509 9.122768 3.797991 8.741071 L 3.797991 8.739955 C 3.960938 8.361607 4.183036 8.041295 4.465402 7.782366 C 4.752232 7.518973 5.079241 7.323661 5.447545 7.194196 C 5.815848 7.060268 6.205357 6.99442 6.618304 6.99442 Z M 14.079241 6.99442 C 14.387277 6.99442 14.676339 7.034598 14.946429 7.116071 C 15.219866 7.197545 15.460938 7.310268 15.668527 7.452009 L 15.715402 7.483259 L 15.712054 7.540179 L 15.652902 8.591518 L 15.647321 8.685268 L 15.24442 8.685268 L 15.217634 8.629464 L 14.904018 7.993304 C 14.815848 7.810268 14.734375 7.690848 14.662946 7.623884 L 14.657366 7.61942 C 14.594866 7.551339 14.515625 7.507812 14.418527 7.488839 L 14.418527 7.489955 C 14.351562 7.478795 14.294643 7.469866 14.245536 7.464286 L 14.24442 7.464286 C 14.205357 7.458705 14.147321 7.456473 14.070312 7.456473 C 13.878348 7.456473 13.707589 7.498884 13.55692 7.582589 L 13.412946 7.679688 C 13.242188 7.816964 13.154018 8.006696 13.154018 8.263393 C 13.154018 8.514509 13.22433 8.708705 13.357143 8.857143 C 13.496652 9.012277 13.703125 9.154018 13.982143 9.280134 L 14.362723 9.441964 L 14.363839 9.441964 C 14.917411 9.680804 15.325893 9.94308 15.577009 10.229911 L 15.666295 10.341518 C 15.862723 10.609375 15.957589 10.938616 15.957589 11.321429 C 15.957589 11.848214 15.75558 12.280134 15.353795 12.610491 L 15.352679 12.610491 C 14.956473 12.935268 14.402902 13.090402 13.705357 13.090402 C 13.386161 13.090402 13.0625 13.050223 12.733259 12.96875 L 12.733259 12.967634 C 12.410714 12.892857 12.136161 12.791295 11.910714 12.66183 L 11.858259 12.63058 L 11.860491 12.570312 L 11.91183 11.393973 L 11.915179 11.297991 L 12.321429 11.297991 L 12.348214 11.357143 L 12.610491 11.938616 C 12.686384 12.098214 12.765625 12.227679 12.844866 12.327009 C 12.917411 12.419643 13.014509 12.491071 13.141741 12.541295 L 13.141741 12.542411 C 13.232143 12.579241 13.315848 12.604911 13.391741 12.620536 C 13.476562 12.63058 13.570312 12.636161 13.672991 12.636161 C 14 12.636161 14.24442 12.552455 14.418527 12.398438 C 14.598214 12.238839 14.689732 12.030134 14.689732 11.762277 C 14.689732 11.514509 14.625 11.332589 14.50558 11.203125 L 14.503348 11.200893 C 14.381696 11.063616 14.176339 10.925223 13.877232 10.78683 L 13.530134 10.633929 C 13.047991 10.421875 12.660714 10.171875 12.372768 9.883929 L 12.372768 9.882812 C 12.080357 9.583705 11.9375 9.190848 11.9375 8.712054 C 11.9375 8.356027 12.026786 8.046875 12.209821 7.790179 L 12.210938 7.789062 C 12.397321 7.530134 12.652902 7.332589 12.972098 7.196429 C 13.292411 7.060268 13.66183 6.99442 14.079241 6.99442 Z M 11.305804 12.946429 L 8.988839 12.946429 L 8.988839 12.59375 L 9.060268 12.572545 L 9.228795 12.521205 C 9.330357 12.485491 9.373884 12.446429 9.390625 12.417411 L 9.391741 12.414062 C 9.419643 12.367188 9.4375 12.294643 9.4375 12.185268 L 9.4375 7.907366 C 9.4375 7.796875 9.418527 7.728795 9.393973 7.689732 L 9.388393 7.680804 L 9.388393 7.679688 C 9.370536 7.646205 9.325893 7.604911 9.225446 7.569196 L 9.225446 7.56808 L 9.060268 7.520089 L 8.988839 7.498884 L 8.988839 7.146205 L 11.305804 7.146205 L 11.305804 7.498884 L 11.235491 7.520089 L 11.070312 7.56808 C 10.975446 7.603795 10.926339 7.646205 10.902902 7.686384 L 10.90067 7.689732 C 10.876116 7.728795 10.857143 7.796875 10.857143 7.907366 L 10.857143 12.185268 C 10.857143 12.293527 10.876116 12.366071 10.901786 12.41183 C 10.925223 12.447545 10.97433 12.487723 11.070312 12.522321 L 11.235491 12.572545 L 11.305804 12.59375 Z M 11.305804 12.946429 " transform="matrix(3.5,0,0,3.5,0,0)"/>
</g>
</svg>
