<svg xmlns="http://www.w3.org/2000/svg" width="700" height="380" fill="none" viewBox="0 0 700 380">
    <path stroke="#CDCBD9" stroke-width="2" d="M351 297v8a5 5 0 0 1-5 5H202"/>
    <rect width="188" height="38" x="16" y="331" fill="#fff" stroke="#D1E8FF" stroke-width="2" rx="4"/>
    <path fill="#18123D" d="M35.093 353.614a4.288 4.288 0 0 1-.322.532 2.437 2.437 0 0 1-1.19.854c-.261.093-.57.14-.924.14-.653 0-1.18-.182-1.582-.546-.401-.373-.602-.905-.602-1.596 0-.793.275-1.377.826-1.75.56-.373 1.353-.56 2.38-.56h1.358v-.602c0-.504-.13-.863-.392-1.078-.261-.215-.71-.322-1.344-.322a3.63 3.63 0 0 0-1.274.224 6.03 6.03 0 0 0-1.078.49v-1.106a5.4 5.4 0 0 1 1.05-.462 4.367 4.367 0 0 1 1.47-.238c.915 0 1.61.191 2.086.574.476.373.714.957.714 1.75v4.2c.01.103.014.21.014.322l.028.322c.01.093.019.173.028.238h-1.12a6.439 6.439 0 0 1-.084-.546 8.366 8.366 0 0 1-.028-.63l-.014-.21Zm-2.17.42c.383 0 .71-.079.98-.238.27-.159.49-.341.658-.546.168-.215.29-.42.364-.616.075-.205.112-.35.112-.434v-.532h-1.232c-.737 0-1.274.107-1.61.322-.327.205-.49.518-.49.938 0 .327.098.593.294.798.196.205.504.308.924.308Zm9.945-.336c-.196.411-.5.756-.91 1.036-.401.271-.929.406-1.582.406-.672 0-1.218-.187-1.638-.56-.41-.383-.616-.971-.616-1.764v-5.082h1.246v5.082c0 .243.033.443.098.602a1.034 1.034 0 0 0 .714.56c.168.037.35.056.546.056.541 0 .975-.121 1.302-.364.327-.243.607-.574.84-.994v-4.942H44.1V355h-1.092l-.112-1.302h-.028Zm8.462-.126a2.912 2.912 0 0 1-.938 1.148c-.401.28-.91.42-1.526.42a3.48 3.48 0 0 1-1.246-.224 2.999 2.999 0 0 1-1.036-.7 3.507 3.507 0 0 1-.714-1.176c-.177-.476-.266-1.036-.266-1.68 0-.635.089-1.185.266-1.652.178-.476.416-.868.714-1.176a2.758 2.758 0 0 1 1.036-.7 3.39 3.39 0 0 1 1.26-.238c.55 0 1.027.117 1.428.35.401.224.724.546.966.966v-3.948h1.232V355h-1.078l-.098-1.428Zm-2.282.462c.317 0 .611-.051.882-.154.27-.112.504-.28.7-.504a2.29 2.29 0 0 0 .476-.84c.121-.336.182-.728.182-1.176 0-.448-.06-.84-.182-1.176a2.299 2.299 0 0 0-.476-.84 1.74 1.74 0 0 0-.7-.49 2.284 2.284 0 0 0-.882-.168c-.644 0-1.171.229-1.582.686-.401.448-.602 1.111-.602 1.988 0 .887.206 1.554.616 2.002.41.448.934.672 1.568.672Zm6.099-7.364c-.252 0-.453-.075-.602-.224a.808.808 0 0 1-.224-.574c0-.224.074-.415.224-.574.149-.159.35-.238.602-.238.242 0 .434.079.574.238.14.159.21.35.21.574 0 .224-.07.415-.21.574-.14.149-.332.224-.574.224Zm.602 1.064V355h-1.232v-7.266h1.232Zm5.564 7.112c-.15.084-.34.154-.574.21-.233.056-.48.084-.742.084-.355 0-.658-.051-.91-.154a1.76 1.76 0 0 1-.602-.406 1.72 1.72 0 0 1-.35-.588 2.44 2.44 0 0 1-.098-.686v-4.522h-.868v-1.05h.868v-1.526h1.232v1.526h2.114v1.05h-2.114v4.368c0 .308.075.532.224.672.159.14.434.21.826.21.364 0 .695-.103.994-.308v1.12Zm1.334-4.676h3.36v1.12h-3.36v-1.12Zm8.77 4.676a2.26 2.26 0 0 1-.575.21c-.233.056-.48.084-.742.084-.354 0-.658-.051-.91-.154a1.76 1.76 0 0 1-.602-.406 1.72 1.72 0 0 1-.35-.588 2.44 2.44 0 0 1-.098-.686v-4.522h-.868v-1.05h.868v-1.526h1.232v1.526h2.114v1.05h-2.114v4.368c0 .308.075.532.224.672.16.14.434.21.826.21.364 0 .696-.103.994-.308v1.12Zm5.237-5.88a3.787 3.787 0 0 0-1.428.406c-.42.215-.733.551-.938 1.008V355h-1.232v-7.266h1.078l.126 1.582h.028c.205-.429.499-.803.882-1.12.392-.327.886-.527 1.484-.602v1.372Zm5.62 4.648a4.276 4.276 0 0 1-.321.532 2.437 2.437 0 0 1-1.19.854c-.262.093-.57.14-.924.14-.654 0-1.181-.182-1.582-.546-.402-.373-.602-.905-.602-1.596 0-.793.275-1.377.826-1.75.56-.373 1.353-.56 2.38-.56h1.358v-.602c0-.504-.131-.863-.392-1.078-.262-.215-.71-.322-1.344-.322a3.63 3.63 0 0 0-1.274.224c-.402.14-.761.303-1.078.49v-1.106a5.4 5.4 0 0 1 1.05-.462 4.367 4.367 0 0 1 1.47-.238c.914 0 1.61.191 2.086.574.476.373.714.957.714 1.75v4.2c.009.103.014.21.014.322.009.112.018.219.028.322.009.093.018.173.028.238H82.4a6.439 6.439 0 0 1-.084-.546 8.366 8.366 0 0 1-.028-.63l-.014-.21Zm-2.17.42c.383 0 .71-.079.98-.238.271-.159.49-.341.659-.546.168-.215.289-.42.364-.616.074-.205.112-.35.112-.434v-.532h-1.232c-.738 0-1.274.107-1.61.322-.327.205-.49.518-.49.938 0 .327.098.593.294.798.196.205.504.308.924.308Zm5.914-7.364c-.252 0-.453-.075-.602-.224a.808.808 0 0 1-.224-.574c0-.224.074-.415.224-.574.15-.159.35-.238.602-.238.242 0 .434.079.574.238.14.159.21.35.21.574 0 .224-.07.415-.21.574-.14.149-.332.224-.574.224Zm.602 1.064V355h-1.232v-7.266h1.232Zm3.24-2.772V355h-1.232v-10.038h1.232Zm4.332 10.178a4.83 4.83 0 0 1-1.022-.098 4.8 4.8 0 0 1-.77-.21 4.19 4.19 0 0 1-.546-.28 3.693 3.693 0 0 1-.35-.266v-1.106c.093.093.22.196.378.308.159.103.35.201.574.294.224.093.476.173.756.238a5.1 5.1 0 0 0 .966.084c.523 0 .938-.084 1.246-.252.308-.168.462-.453.462-.854 0-.215-.051-.387-.154-.518a.934.934 0 0 0-.392-.308 2.429 2.429 0 0 0-.588-.196 29.16 29.16 0 0 0-.686-.14 24.567 24.567 0 0 1-.91-.21 3.198 3.198 0 0 1-.812-.35 1.904 1.904 0 0 1-.588-.602c-.15-.252-.224-.579-.224-.98 0-.653.252-1.167.756-1.54.514-.373 1.228-.56 2.142-.56.513 0 .966.051 1.358.154.401.103.71.215.924.336v1.106a3.295 3.295 0 0 0-.91-.392c-.355-.112-.798-.168-1.33-.168-.55 0-.975.075-1.274.224-.29.149-.434.42-.434.812a.82.82 0 0 0 .126.476c.084.112.196.205.336.28.15.065.317.117.504.154.187.037.383.079.588.126.317.065.644.135.98.21.336.075.635.191.896.35.27.159.49.373.658.644.177.261.266.616.266 1.064 0 .42-.084.77-.252 1.05a1.93 1.93 0 0 1-.672.672c-.27.159-.583.271-.938.336-.345.075-.7.112-1.064.112Zm5.116-.056c-.27 0-.49-.084-.658-.252a.884.884 0 0 1-.252-.63c0-.261.084-.476.252-.644.168-.168.387-.252.658-.252.261 0 .476.084.644.252a.872.872 0 0 1 .252.644.883.883 0 0 1-.252.63.872.872 0 0 1-.644.252Zm5.54.056c-.56 0-1.069-.084-1.526-.252a3.335 3.335 0 0 1-1.148-.742 3.277 3.277 0 0 1-.728-1.19c-.168-.467-.252-.999-.252-1.596 0-.588.084-1.115.252-1.582.177-.467.425-.859.742-1.176a3.065 3.065 0 0 1 1.162-.742 4.277 4.277 0 0 1 1.554-.266c.448 0 .859.051 1.232.154.373.093.681.233.924.42v1.106a3.263 3.263 0 0 0-1.008-.434 4.145 4.145 0 0 0-1.134-.154c-.849 0-1.475.219-1.876.658-.392.439-.588 1.111-.588 2.016s.191 1.577.574 2.016c.383.439.989.658 1.82.658.439 0 .84-.051 1.204-.154a4.969 4.969 0 0 0 1.008-.42v1.106a4.29 4.29 0 0 1-2.212.574Zm6.696 0c-.495 0-.957-.084-1.386-.252a3.224 3.224 0 0 1-1.12-.728 3.542 3.542 0 0 1-.728-1.19c-.178-.467-.266-1.003-.266-1.61 0-.597.088-1.129.266-1.596.177-.476.42-.873.728-1.19.317-.317.69-.56 1.12-.728a3.767 3.767 0 0 1 1.386-.252c.504 0 .97.084 1.4.252.429.168.798.411 1.106.728.317.317.564.714.742 1.19.186.467.28.999.28 1.596 0 .607-.094 1.143-.28 1.61a3.448 3.448 0 0 1-.742 1.19c-.308.317-.677.56-1.106.728-.43.168-.896.252-1.4.252Zm0-1.106c.326 0 .625-.051.896-.154.28-.112.522-.275.728-.49.205-.224.364-.504.476-.84.112-.336.168-.733.168-1.19 0-.457-.056-.854-.168-1.19a2.17 2.17 0 0 0-.476-.826 1.838 1.838 0 0 0-.728-.49 2.325 2.325 0 0 0-.896-.168c-.327 0-.626.056-.896.168a1.849 1.849 0 0 0-.714.49c-.196.215-.35.49-.462.826a3.775 3.775 0 0 0-.168 1.19c0 .457.056.854.168 1.19.112.336.266.616.462.84.205.215.443.378.714.49.27.103.569.154.896.154Zm8.473-5.348c-.56 0-1.017.131-1.372.392a2.874 2.874 0 0 0-.84.98V355h-1.232v-7.266h1.162l.042 1.302h.028a2.46 2.46 0 0 1 .924-1.036c.42-.271.952-.406 1.596-.406.719 0 1.288.191 1.708.574.43.373.644.952.644 1.736V355h-1.232v-4.97c0-.504-.126-.854-.378-1.05-.252-.196-.602-.294-1.05-.294Zm6.275.098V355h-1.232v-6.216h-.882v-1.05h.882v-.182c0-.859.229-1.526.686-2.002.457-.476 1.083-.714 1.876-.714.345 0 .653.042.924.126v1.12a1.653 1.653 0 0 0-.364-.098 2.904 2.904 0 0 0-.504-.042c-.429 0-.77.131-1.022.392-.243.261-.364.667-.364 1.218v.182h2.1v1.05h-2.1Zm4.173-2.114c-.252 0-.453-.075-.602-.224a.81.81 0 0 1-.224-.574.81.81 0 0 1 .224-.574c.149-.159.35-.238.602-.238.243 0 .434.079.574.238.14.159.21.35.21.574 0 .224-.07.415-.21.574-.14.149-.331.224-.574.224Zm.602 1.064V355h-1.232v-7.266h1.232Zm8.252 6.65c0 .467-.07.891-.21 1.274a2.29 2.29 0 0 1-.644.994c-.289.271-.667.481-1.134.63-.457.149-1.012.224-1.666.224-.354 0-.667-.019-.938-.056a4.345 4.345 0 0 1-.714-.154 2.562 2.562 0 0 1-.504-.196 2.377 2.377 0 0 1-.35-.196v-1.106c.15.084.304.159.462.224a4.105 4.105 0 0 0 1.204.322c.252.037.537.056.854.056.896 0 1.522-.168 1.876-.504.355-.336.532-.835.532-1.498v-1.12a2.637 2.637 0 0 1-.91 1.036c-.382.261-.858.392-1.428.392a3.44 3.44 0 0 1-1.232-.224 3.058 3.058 0 0 1-1.022-.658 3.414 3.414 0 0 1-.7-1.106c-.168-.448-.252-.966-.252-1.554 0-.597.084-1.115.252-1.554.178-.448.411-.821.7-1.12a2.914 2.914 0 0 1 1.036-.672 3.48 3.48 0 0 1 1.246-.224c.579 0 1.064.131 1.456.392.402.261.714.616.938 1.064l.014-.154c0-.168.01-.369.028-.602.019-.243.038-.429.056-.56h1.12c-.018.131-.037.317-.056.56a16.97 16.97 0 0 0-.014.602v5.488Zm-3.346-.784c.308 0 .588-.047.84-.14.262-.103.486-.257.672-.462.196-.205.346-.457.448-.756a3.15 3.15 0 0 0 .168-1.078c0-.831-.205-1.451-.616-1.862-.401-.411-.91-.616-1.526-.616a2.42 2.42 0 0 0-.868.154c-.261.103-.49.257-.686.462a2.285 2.285 0 0 0-.448.784 3.15 3.15 0 0 0-.168 1.078c0 .411.056.77.168 1.078.112.299.266.551.462.756.196.196.425.345.686.448.271.103.56.154.868.154Zm10.106 1.4h-2.058l-3.5-10.038h1.372l3.206 9.24 3.206-9.24h1.26L146.079 355Zm5.331-8.33c-.252 0-.452-.075-.602-.224a.81.81 0 0 1-.224-.574.81.81 0 0 1 .224-.574c.15-.159.35-.238.602-.238.243 0 .434.079.574.238.14.159.21.35.21.574 0 .224-.07.415-.21.574-.14.149-.331.224-.574.224Zm.602 1.064V355h-1.232v-7.266h1.232Zm7.791 6.65a3.919 3.919 0 0 1-.378.238c-.15.084-.332.168-.546.252a4.632 4.632 0 0 1-.728.182 4.51 4.51 0 0 1-.91.084c-1.223 0-2.152-.331-2.786-.994-.635-.663-.952-1.591-.952-2.786 0-.588.084-1.115.252-1.582.177-.467.42-.859.728-1.176a3.024 3.024 0 0 1 1.092-.742c.42-.177.877-.266 1.372-.266.522 0 .989.089 1.4.266.41.177.746.439 1.008.784.27.345.452.775.546 1.288.102.504.102 1.092 0 1.764h-5.124c.046.784.28 1.372.7 1.764.42.383 1.045.574 1.876.574.56 0 1.04-.079 1.442-.238a5.07 5.07 0 0 0 1.008-.518v1.106Zm-2.884-5.698c-.532 0-.99.163-1.372.49-.383.327-.626.821-.728 1.484h3.906c.037-.672-.117-1.167-.462-1.484-.346-.327-.794-.49-1.344-.49ZM169.354 355h-1.89l-1.54-5.614-1.582 5.614h-1.834l-1.652-7.266h1.302l1.386 6.342 1.764-6.342h1.386l1.722 6.272 1.372-6.272h1.218L169.354 355Zm8.796-.616a3.685 3.685 0 0 1-.378.238 4.34 4.34 0 0 1-.546.252 4.576 4.576 0 0 1-.728.182c-.27.056-.574.084-.91.084-1.222 0-2.151-.331-2.786-.994-.634-.663-.952-1.591-.952-2.786 0-.588.084-1.115.252-1.582.178-.467.42-.859.728-1.176a3.024 3.024 0 0 1 1.092-.742 3.5 3.5 0 0 1 1.372-.266c.523 0 .99.089 1.4.266.411.177.747.439 1.008.784.271.345.453.775.546 1.288.103.504.103 1.092 0 1.764h-5.124c.047.784.28 1.372.7 1.764.42.383 1.046.574 1.876.574.56 0 1.041-.079 1.442-.238a5.015 5.015 0 0 0 1.008-.518v1.106Zm-2.884-5.698c-.532 0-.989.163-1.372.49-.382.327-.625.821-.728 1.484h3.906c.038-.672-.116-1.167-.462-1.484-.345-.327-.793-.49-1.344-.49Zm8.124.28a3.784 3.784 0 0 0-1.428.406c-.42.215-.733.551-.938 1.008V355h-1.232v-7.266h1.078l.126 1.582h.028c.205-.429.499-.803.882-1.12.392-.327.887-.527 1.484-.602v1.372Zm4.61.868-1.008-1.75-.994 1.75-.938-.686 1.358-1.484-1.974-.42.35-1.092 1.834.826-.21-2.016h1.148l-.21 2.016 1.82-.826.364 1.092-1.974.42 1.358 1.484-.924.686Z" opacity=".7"/>
    <rect width="188" height="38" x="256" y="331" fill="#fff" stroke="#67B0F8" stroke-width="2" rx="4"/>
    <path fill="#18123D" d="M297.077 353.614a4.24 4.24 0 0 1-.322.532 2.419 2.419 0 0 1-1.19.854c-.261.093-.569.14-.924.14-.653 0-1.18-.182-1.582-.546-.401-.373-.602-.905-.602-1.596 0-.793.276-1.377.826-1.75.56-.373 1.354-.56 2.38-.56h1.358v-.602c0-.504-.13-.863-.392-1.078-.261-.215-.709-.322-1.344-.322-.448 0-.872.075-1.274.224-.401.14-.76.303-1.078.49v-1.106a5.438 5.438 0 0 1 1.05-.462 4.367 4.367 0 0 1 1.47-.238c.915 0 1.61.191 2.086.574.476.373.714.957.714 1.75v4.2c.01.103.014.21.014.322l.028.322c.01.093.019.173.028.238h-1.12a6.439 6.439 0 0 1-.084-.546 8.754 8.754 0 0 1-.028-.63l-.014-.21Zm-2.17.42c.383 0 .71-.079.98-.238.271-.159.49-.341.658-.546.168-.215.29-.42.364-.616.075-.205.112-.35.112-.434v-.532h-1.232c-.737 0-1.274.107-1.61.322-.326.205-.49.518-.49.938 0 .327.098.593.294.798.196.205.504.308.924.308Zm9.946-.336c-.196.411-.5.756-.91 1.036-.402.271-.929.406-1.582.406-.672 0-1.218-.187-1.638-.56-.411-.383-.616-.971-.616-1.764v-5.082h1.246v5.082c0 .243.032.443.098.602.074.149.172.271.294.364.121.093.261.159.42.196.168.037.35.056.546.056.541 0 .975-.121 1.302-.364.326-.243.606-.574.84-.994v-4.942h1.232V355h-1.092l-.112-1.302h-.028Zm8.462-.126a2.916 2.916 0 0 1-.938 1.148c-.402.28-.91.42-1.526.42-.439 0-.854-.075-1.246-.224a2.992 2.992 0 0 1-1.036-.7 3.494 3.494 0 0 1-.714-1.176c-.178-.476-.266-1.036-.266-1.68 0-.635.088-1.185.266-1.652.177-.476.415-.868.714-1.176a2.752 2.752 0 0 1 1.036-.7 3.387 3.387 0 0 1 1.26-.238c.55 0 1.026.117 1.428.35.401.224.723.546.966.966v-3.948h1.232V355h-1.078l-.098-1.428Zm-2.282.462c.317 0 .611-.051.882-.154.27-.112.504-.28.7-.504.205-.224.364-.504.476-.84.121-.336.182-.728.182-1.176 0-.448-.061-.84-.182-1.176a2.305 2.305 0 0 0-.476-.84 1.746 1.746 0 0 0-.7-.49 2.287 2.287 0 0 0-.882-.168c-.644 0-1.172.229-1.582.686-.402.448-.602 1.111-.602 1.988 0 .887.205 1.554.616 2.002.41.448.933.672 1.568.672Zm6.098-7.364c-.252 0-.453-.075-.602-.224a.81.81 0 0 1-.224-.574.81.81 0 0 1 .224-.574c.149-.159.35-.238.602-.238.243 0 .434.079.574.238.14.159.21.35.21.574 0 .224-.07.415-.21.574-.14.149-.331.224-.574.224Zm.602 1.064V355h-1.232v-7.266h1.232Zm5.564 7.112c-.149.084-.34.154-.574.21-.233.056-.48.084-.742.084-.354 0-.658-.051-.91-.154a1.77 1.77 0 0 1-.602-.406 1.737 1.737 0 0 1-.35-.588 2.452 2.452 0 0 1-.098-.686v-4.522h-.868v-1.05h.868v-1.526h1.232v1.526h2.114v1.05h-2.114v4.368c0 .308.075.532.224.672.159.14.434.21.826.21.364 0 .696-.103.994-.308v1.12Zm1.335-4.676h3.36v1.12h-3.36v-1.12Zm8.769 4.676c-.15.084-.341.154-.574.21a3.177 3.177 0 0 1-.742.084c-.355 0-.658-.051-.91-.154a1.75 1.75 0 0 1-.602-.406 1.705 1.705 0 0 1-.35-.588 2.416 2.416 0 0 1-.098-.686v-4.522h-.868v-1.05h.868v-1.526h1.232v1.526h2.114v1.05h-2.114v4.368c0 .308.074.532.224.672.158.14.434.21.826.21.364 0 .695-.103.994-.308v1.12Zm5.237-5.88a3.784 3.784 0 0 0-1.428.406c-.42.215-.733.551-.938 1.008V355h-1.232v-7.266h1.078l.126 1.582h.028c.205-.429.499-.803.882-1.12.392-.327.887-.527 1.484-.602v1.372Zm5.621 4.648a4.24 4.24 0 0 1-.322.532 2.444 2.444 0 0 1-1.19.854c-.261.093-.569.14-.924.14-.653 0-1.181-.182-1.582-.546-.401-.373-.602-.905-.602-1.596 0-.793.275-1.377.826-1.75.56-.373 1.353-.56 2.38-.56h1.358v-.602c0-.504-.131-.863-.392-1.078-.261-.215-.709-.322-1.344-.322a3.63 3.63 0 0 0-1.274.224c-.401.14-.761.303-1.078.49v-1.106a5.383 5.383 0 0 1 1.05-.462 4.367 4.367 0 0 1 1.47-.238c.915 0 1.61.191 2.086.574.476.373.714.957.714 1.75v4.2c.009.103.014.21.014.322l.028.322c.009.093.019.173.028.238h-1.12a6.439 6.439 0 0 1-.084-.546 8.21 8.21 0 0 1-.028-.63l-.014-.21Zm-2.17.42c.383 0 .709-.079.98-.238.271-.159.49-.341.658-.546.168-.215.289-.42.364-.616.075-.205.112-.35.112-.434v-.532h-1.232c-.737 0-1.274.107-1.61.322-.327.205-.49.518-.49.938 0 .327.098.593.294.798.196.205.504.308.924.308Zm5.913-7.364c-.252 0-.453-.075-.602-.224a.81.81 0 0 1-.224-.574.81.81 0 0 1 .224-.574c.149-.159.35-.238.602-.238.243 0 .434.079.574.238.14.159.21.35.21.574 0 .224-.07.415-.21.574-.14.149-.331.224-.574.224Zm.602 1.064V355h-1.232v-7.266h1.232Zm3.24-2.772V355h-1.232v-10.038h1.232Zm4.333 10.178c-.383 0-.724-.033-1.022-.098a4.78 4.78 0 0 1-.77-.21 4.152 4.152 0 0 1-.546-.28 3.603 3.603 0 0 1-.35-.266v-1.106c.093.093.219.196.378.308.158.103.35.201.574.294.224.093.476.173.756.238.289.056.611.084.966.084.522 0 .938-.084 1.246-.252.308-.168.462-.453.462-.854 0-.215-.052-.387-.154-.518a.939.939 0 0 0-.392-.308 2.429 2.429 0 0 0-.588-.196 30.242 30.242 0 0 0-.686-.14 24.244 24.244 0 0 1-.91-.21 3.182 3.182 0 0 1-.812-.35 1.898 1.898 0 0 1-.588-.602c-.15-.252-.224-.579-.224-.98 0-.653.252-1.167.756-1.54.513-.373 1.227-.56 2.142-.56.513 0 .966.051 1.358.154.401.103.709.215.924.336v1.106a3.3 3.3 0 0 0-.91-.392c-.355-.112-.798-.168-1.33-.168-.551 0-.976.075-1.274.224-.29.149-.434.42-.434.812a.82.82 0 0 0 .126.476c.084.112.196.205.336.28.149.065.317.117.504.154.186.037.382.079.588.126.317.065.644.135.98.21.336.075.634.191.896.35.27.159.49.373.658.644.177.261.266.616.266 1.064 0 .42-.084.77-.252 1.05a1.93 1.93 0 0 1-.672.672 2.86 2.86 0 0 1-.938.336c-.346.075-.7.112-1.064.112Zm5.115-.056c-.27 0-.49-.084-.658-.252a.884.884 0 0 1-.252-.63c0-.261.084-.476.252-.644.168-.168.388-.252.658-.252.262 0 .476.084.644.252a.873.873 0 0 1 .252.644.884.884 0 0 1-.252.63.871.871 0 0 1-.644.252Zm6.934-1.47a4.363 4.363 0 0 1-.322.532 2.444 2.444 0 0 1-1.19.854c-.262.093-.57.14-.924.14-.654 0-1.181-.182-1.582-.546-.402-.373-.602-.905-.602-1.596 0-.793.275-1.377.826-1.75.56-.373 1.353-.56 2.38-.56h1.358v-.602c0-.504-.131-.863-.392-1.078-.262-.215-.71-.322-1.344-.322a3.63 3.63 0 0 0-1.274.224c-.402.14-.761.303-1.078.49v-1.106a5.383 5.383 0 0 1 1.05-.462 4.367 4.367 0 0 1 1.47-.238c.914 0 1.61.191 2.086.574.476.373.714.957.714 1.75v4.2c.009.103.014.21.014.322.009.112.018.219.028.322.009.093.018.173.028.238h-1.12a6.439 6.439 0 0 1-.084-.546 8.21 8.21 0 0 1-.028-.63l-.014-.21Zm-2.17.42c.382 0 .709-.079.98-.238.27-.159.49-.341.658-.546.168-.215.289-.42.364-.616.074-.205.112-.35.112-.434v-.532h-1.232c-.738 0-1.274.107-1.61.322-.327.205-.49.518-.49.938 0 .327.098.593.294.798.196.205.504.308.924.308Zm9.945-.336a2.6 2.6 0 0 1-.91 1.036c-.401.271-.929.406-1.582.406-.672 0-1.218-.187-1.638-.56-.411-.383-.616-.971-.616-1.764v-5.082h1.246v5.082c0 .243.033.443.098.602a1.041 1.041 0 0 0 .714.56c.168.037.35.056.546.056.541 0 .975-.121 1.302-.364.327-.243.607-.574.84-.994v-4.942h1.232V355h-1.092l-.112-1.302h-.028Zm8.462-.126a2.916 2.916 0 0 1-.938 1.148c-.401.28-.91.42-1.526.42-.439 0-.854-.075-1.246-.224a3.002 3.002 0 0 1-1.036-.7 3.494 3.494 0 0 1-.714-1.176c-.177-.476-.266-1.036-.266-1.68 0-.635.089-1.185.266-1.652.177-.476.415-.868.714-1.176a2.76 2.76 0 0 1 1.036-.7 3.387 3.387 0 0 1 1.26-.238c.551 0 1.027.117 1.428.35.401.224.723.546.966.966v-3.948h1.232V355h-1.078l-.098-1.428Zm-2.282.462c.317 0 .611-.051.882-.154.271-.112.504-.28.7-.504.205-.224.364-.504.476-.84.121-.336.182-.728.182-1.176 0-.448-.061-.84-.182-1.176a2.305 2.305 0 0 0-.476-.84 1.739 1.739 0 0 0-.7-.49 2.287 2.287 0 0 0-.882-.168c-.644 0-1.171.229-1.582.686-.401.448-.602 1.111-.602 1.988 0 .887.205 1.554.616 2.002.411.448.933.672 1.568.672Zm6.098-7.364c-.252 0-.452-.075-.602-.224a.81.81 0 0 1-.224-.574.81.81 0 0 1 .224-.574c.15-.159.35-.238.602-.238.243 0 .434.079.574.238.14.159.21.35.21.574 0 .224-.07.415-.21.574-.14.149-.331.224-.574.224Zm.602 1.064V355h-1.232v-7.266h1.232Zm5.565 7.112c-.15.084-.341.154-.574.21a3.177 3.177 0 0 1-.742.084c-.355 0-.658-.051-.91-.154a1.75 1.75 0 0 1-.602-.406 1.705 1.705 0 0 1-.35-.588 2.416 2.416 0 0 1-.098-.686v-4.522h-.868v-1.05h.868v-1.526h1.232v1.526h2.114v1.05h-2.114v4.368c0 .308.074.532.224.672.158.14.434.21.826.21.364 0 .695-.103.994-.308v1.12Zm4.553.294c-.495 0-.957-.084-1.386-.252a3.224 3.224 0 0 1-1.12-.728 3.542 3.542 0 0 1-.728-1.19c-.178-.467-.266-1.003-.266-1.61 0-.597.088-1.129.266-1.596.177-.476.42-.873.728-1.19.317-.317.69-.56 1.12-.728a3.767 3.767 0 0 1 1.386-.252c.504 0 .97.084 1.4.252.429.168.798.411 1.106.728.317.317.564.714.742 1.19.186.467.28.999.28 1.596 0 .607-.094 1.143-.28 1.61a3.448 3.448 0 0 1-.742 1.19c-.308.317-.677.56-1.106.728-.43.168-.896.252-1.4.252Zm0-1.106c.326 0 .625-.051.896-.154.28-.112.522-.275.728-.49.205-.224.364-.504.476-.84.112-.336.168-.733.168-1.19 0-.457-.056-.854-.168-1.19a2.17 2.17 0 0 0-.476-.826 1.838 1.838 0 0 0-.728-.49 2.325 2.325 0 0 0-.896-.168c-.327 0-.626.056-.896.168a1.849 1.849 0 0 0-.714.49c-.196.215-.35.49-.462.826a3.775 3.775 0 0 0-.168 1.19c0 .457.056.854.168 1.19.112.336.266.616.462.84.205.215.443.378.714.49.27.103.569.154.896.154Zm8.627-5.068a3.795 3.795 0 0 0-1.428.406c-.42.215-.732.551-.938 1.008V355h-1.232v-7.266h1.078l.126 1.582h.028c.206-.429.5-.803.882-1.12.392-.327.887-.527 1.484-.602v1.372Z"/>
    <rect width="188" height="38" x="256" y="251" fill="#fff" stroke="#67B0F8" stroke-width="2" rx="4"/>
    <path fill="#18123D" d="M299.361 273.614a4.363 4.363 0 0 1-.322.532 2.444 2.444 0 0 1-1.19.854c-.262.093-.57.14-.924.14-.654 0-1.181-.182-1.582-.546-.402-.373-.602-.905-.602-1.596 0-.793.275-1.377.826-1.75.56-.373 1.353-.56 2.38-.56h1.358v-.602c0-.504-.131-.863-.392-1.078-.262-.215-.71-.322-1.344-.322a3.63 3.63 0 0 0-1.274.224c-.402.14-.761.303-1.078.49v-1.106a5.383 5.383 0 0 1 1.05-.462 4.367 4.367 0 0 1 1.47-.238c.914 0 1.61.191 2.086.574.476.373.714.957.714 1.75v4.2c.009.103.014.21.014.322.009.112.018.219.028.322.009.093.018.173.028.238h-1.12a6.439 6.439 0 0 1-.084-.546 8.21 8.21 0 0 1-.028-.63l-.014-.21Zm-2.17.42c.382 0 .709-.079.98-.238.27-.159.49-.341.658-.546.168-.215.289-.42.364-.616.074-.205.112-.35.112-.434v-.532h-1.232c-.738 0-1.274.107-1.61.322-.327.205-.49.518-.49.938 0 .327.098.593.294.798.196.205.504.308.924.308Zm9.945-.336c-.196.411-.5.756-.91 1.036-.402.271-.929.406-1.582.406-.672 0-1.218-.187-1.638-.56-.411-.383-.616-.971-.616-1.764v-5.082h1.246v5.082c0 .243.032.443.098.602.074.149.172.271.294.364.121.093.261.159.42.196.168.037.35.056.546.056.541 0 .975-.121 1.302-.364.326-.243.606-.574.84-.994v-4.942h1.232V275h-1.092l-.112-1.302h-.028Zm8.462-.126a2.916 2.916 0 0 1-.938 1.148c-.402.28-.91.42-1.526.42-.439 0-.854-.075-1.246-.224a2.992 2.992 0 0 1-1.036-.7 3.494 3.494 0 0 1-.714-1.176c-.178-.476-.266-1.036-.266-1.68 0-.635.088-1.185.266-1.652.177-.476.415-.868.714-1.176a2.752 2.752 0 0 1 1.036-.7 3.387 3.387 0 0 1 1.26-.238c.55 0 1.026.117 1.428.35.401.224.723.546.966.966v-3.948h1.232V275h-1.078l-.098-1.428Zm-2.282.462c.317 0 .611-.051.882-.154.27-.112.504-.28.7-.504.205-.224.364-.504.476-.84.121-.336.182-.728.182-1.176 0-.448-.061-.84-.182-1.176a2.305 2.305 0 0 0-.476-.84 1.746 1.746 0 0 0-.7-.49 2.287 2.287 0 0 0-.882-.168c-.644 0-1.172.229-1.582.686-.402.448-.602 1.111-.602 1.988 0 .887.205 1.554.616 2.002.41.448.933.672 1.568.672Zm6.098-7.364c-.252 0-.452-.075-.602-.224a.81.81 0 0 1-.224-.574.81.81 0 0 1 .224-.574c.15-.159.35-.238.602-.238.243 0 .434.079.574.238.14.159.21.35.21.574 0 .224-.07.415-.21.574-.14.149-.331.224-.574.224Zm.602 1.064V275h-1.232v-7.266h1.232Zm5.564 7.112c-.149.084-.34.154-.574.21-.233.056-.48.084-.742.084-.354 0-.658-.051-.91-.154a1.77 1.77 0 0 1-.602-.406 1.737 1.737 0 0 1-.35-.588 2.452 2.452 0 0 1-.098-.686v-4.522h-.868v-1.05h.868v-1.526h1.232v1.526h2.114v1.05h-2.114v4.368c0 .308.075.532.224.672.159.14.434.21.826.21.364 0 .696-.103.994-.308v1.12Zm1.335-4.676h3.36v1.12h-3.36v-1.12Zm8.769 4.676a2.252 2.252 0 0 1-.574.21 3.171 3.171 0 0 1-.742.084c-.355 0-.658-.051-.91-.154a1.76 1.76 0 0 1-.602-.406 1.72 1.72 0 0 1-.35-.588 2.452 2.452 0 0 1-.098-.686v-4.522h-.868v-1.05h.868v-1.526h1.232v1.526h2.114v1.05h-2.114v4.368c0 .308.075.532.224.672.159.14.434.21.826.21.364 0 .695-.103.994-.308v1.12Zm5.237-5.88a3.795 3.795 0 0 0-1.428.406c-.42.215-.732.551-.938 1.008V275h-1.232v-7.266h1.078l.126 1.582h.028c.206-.429.5-.803.882-1.12.392-.327.887-.527 1.484-.602v1.372Zm5.621 4.648a4.24 4.24 0 0 1-.322.532 2.419 2.419 0 0 1-1.19.854c-.261.093-.569.14-.924.14-.653 0-1.18-.182-1.582-.546-.401-.373-.602-.905-.602-1.596 0-.793.276-1.377.826-1.75.56-.373 1.354-.56 2.38-.56h1.358v-.602c0-.504-.13-.863-.392-1.078-.261-.215-.709-.322-1.344-.322-.448 0-.872.075-1.274.224-.401.14-.76.303-1.078.49v-1.106a5.438 5.438 0 0 1 1.05-.462 4.367 4.367 0 0 1 1.47-.238c.915 0 1.61.191 2.086.574.476.373.714.957.714 1.75v4.2c.01.103.014.21.014.322l.028.322c.01.093.019.173.028.238h-1.12a6.439 6.439 0 0 1-.084-.546 8.754 8.754 0 0 1-.028-.63l-.014-.21Zm-2.17.42c.383 0 .71-.079.98-.238.271-.159.49-.341.658-.546.168-.215.29-.42.364-.616.075-.205.112-.35.112-.434v-.532h-1.232c-.737 0-1.274.107-1.61.322-.326.205-.49.518-.49.938 0 .327.098.593.294.798.196.205.504.308.924.308Zm5.913-7.364c-.252 0-.452-.075-.602-.224a.81.81 0 0 1-.224-.574.81.81 0 0 1 .224-.574c.15-.159.35-.238.602-.238.243 0 .434.079.574.238.14.159.21.35.21.574 0 .224-.07.415-.21.574-.14.149-.331.224-.574.224Zm.602 1.064V275h-1.232v-7.266h1.232Zm3.241-2.772V275h-1.232v-10.038h1.232Zm4.332 10.178c-.383 0-.724-.033-1.022-.098a4.78 4.78 0 0 1-.77-.21 4.152 4.152 0 0 1-.546-.28 3.603 3.603 0 0 1-.35-.266v-1.106c.093.093.219.196.378.308.158.103.35.201.574.294.224.093.476.173.756.238.289.056.611.084.966.084.522 0 .938-.084 1.246-.252.308-.168.462-.453.462-.854 0-.215-.052-.387-.154-.518a.939.939 0 0 0-.392-.308 2.429 2.429 0 0 0-.588-.196 30.242 30.242 0 0 0-.686-.14 24.244 24.244 0 0 1-.91-.21 3.182 3.182 0 0 1-.812-.35 1.898 1.898 0 0 1-.588-.602c-.15-.252-.224-.579-.224-.98 0-.653.252-1.167.756-1.54.513-.373 1.227-.56 2.142-.56.513 0 .966.051 1.358.154.401.103.709.215.924.336v1.106a3.3 3.3 0 0 0-.91-.392c-.355-.112-.798-.168-1.33-.168-.551 0-.976.075-1.274.224-.29.149-.434.42-.434.812a.82.82 0 0 0 .126.476c.084.112.196.205.336.28.149.065.317.117.504.154.186.037.382.079.588.126.317.065.644.135.98.21.336.075.634.191.896.35.27.159.49.373.658.644.177.261.266.616.266 1.064 0 .42-.084.77-.252 1.05a1.93 1.93 0 0 1-.672.672 2.86 2.86 0 0 1-.938.336c-.346.075-.7.112-1.064.112Zm5.115-.056c-.27 0-.49-.084-.658-.252a.884.884 0 0 1-.252-.63c0-.261.084-.476.252-.644.168-.168.388-.252.658-.252.262 0 .476.084.644.252a.873.873 0 0 1 .252.644.884.884 0 0 1-.252.63.871.871 0 0 1-.644.252Zm5.524-.084h-1.988l-2.492-7.266h1.33l2.212 6.608 2.198-6.608h1.232L369.099 275Zm4.264-8.33c-.252 0-.452-.075-.602-.224a.81.81 0 0 1-.224-.574.81.81 0 0 1 .224-.574c.15-.159.35-.238.602-.238.243 0 .434.079.574.238.14.159.21.35.21.574 0 .224-.07.415-.21.574-.14.149-.331.224-.574.224Zm.602 1.064V275h-1.232v-7.266h1.232Zm7.791 6.65a3.919 3.919 0 0 1-.378.238c-.15.084-.332.168-.546.252a4.632 4.632 0 0 1-.728.182 4.51 4.51 0 0 1-.91.084c-1.223 0-2.152-.331-2.786-.994-.635-.663-.952-1.591-.952-2.786 0-.588.084-1.115.252-1.582.177-.467.42-.859.728-1.176a3.024 3.024 0 0 1 1.092-.742c.42-.177.877-.266 1.372-.266.522 0 .989.089 1.4.266.41.177.746.439 1.008.784.27.345.452.775.546 1.288.102.504.102 1.092 0 1.764h-5.124c.046.784.28 1.372.7 1.764.42.383 1.045.574 1.876.574.56 0 1.04-.079 1.442-.238a5.07 5.07 0 0 0 1.008-.518v1.106Zm-2.884-5.698c-.532 0-.99.163-1.372.49-.383.327-.626.821-.728 1.484h3.906c.037-.672-.117-1.167-.462-1.484-.346-.327-.794-.49-1.344-.49ZM391.308 275h-1.89l-1.54-5.614-1.582 5.614h-1.834l-1.652-7.266h1.302l1.386 6.342 1.764-6.342h1.386l1.722 6.272 1.372-6.272h1.218L391.308 275Zm8.795-.616a3.685 3.685 0 0 1-.378.238 4.34 4.34 0 0 1-.546.252 4.576 4.576 0 0 1-.728.182c-.27.056-.574.084-.91.084-1.222 0-2.151-.331-2.786-.994-.634-.663-.952-1.591-.952-2.786 0-.588.084-1.115.252-1.582.178-.467.42-.859.728-1.176a3.024 3.024 0 0 1 1.092-.742 3.5 3.5 0 0 1 1.372-.266c.523 0 .99.089 1.4.266.411.177.747.439 1.008.784.271.345.453.775.546 1.288.103.504.103 1.092 0 1.764h-5.124c.047.784.28 1.372.7 1.764.42.383 1.046.574 1.876.574.56 0 1.041-.079 1.442-.238a5.015 5.015 0 0 0 1.008-.518v1.106Zm-2.884-5.698c-.532 0-.989.163-1.372.49-.382.327-.625.821-.728 1.484h3.906c.038-.672-.116-1.167-.462-1.484-.345-.327-.793-.49-1.344-.49Zm8.124.28a3.795 3.795 0 0 0-1.428.406c-.42.215-.732.551-.938 1.008V275h-1.232v-7.266h1.078l.126 1.582h.028c.206-.429.5-.803.882-1.12.392-.327.887-.527 1.484-.602v1.372Z"/>
    <rect width="188" height="38" x="496" y="171" fill="#fff" stroke="#67B0F8" stroke-width="2" rx="4"/>
    <path fill="#18123D" d="M573.908 195h-1.988l-2.492-7.266h1.33l2.212 6.608 2.198-6.608h1.232L573.908 195Zm4.264-8.33c-.252 0-.453-.075-.602-.224a.81.81 0 0 1-.224-.574.81.81 0 0 1 .224-.574c.149-.159.35-.238.602-.238.243 0 .434.079.574.238.14.159.21.35.21.574 0 .224-.07.415-.21.574-.14.149-.331.224-.574.224Zm.602 1.064V195h-1.232v-7.266h1.232Zm7.79 6.65a3.685 3.685 0 0 1-.378.238 4.34 4.34 0 0 1-.546.252 4.576 4.576 0 0 1-.728.182c-.27.056-.574.084-.91.084-1.222 0-2.151-.331-2.786-.994-.634-.663-.952-1.591-.952-2.786 0-.588.084-1.115.252-1.582.178-.467.42-.859.728-1.176a3.024 3.024 0 0 1 1.092-.742 3.5 3.5 0 0 1 1.372-.266c.523 0 .99.089 1.4.266.411.177.747.439 1.008.784.271.345.453.775.546 1.288.103.504.103 1.092 0 1.764h-5.124c.047.784.28 1.372.7 1.764.42.383 1.046.574 1.876.574.56 0 1.041-.079 1.442-.238a5.015 5.015 0 0 0 1.008-.518v1.106Zm-2.884-5.698c-.532 0-.989.163-1.372.49-.382.327-.625.821-.728 1.484h3.906c.038-.672-.116-1.167-.462-1.484-.345-.327-.793-.49-1.344-.49ZM596.116 195h-1.89l-1.54-5.614-1.582 5.614h-1.834l-1.652-7.266h1.302l1.386 6.342 1.764-6.342h1.386l1.722 6.272 1.372-6.272h1.218L596.116 195Zm8.796-.616a3.919 3.919 0 0 1-.378.238 4.34 4.34 0 0 1-.546.252 4.604 4.604 0 0 1-.728.182 4.51 4.51 0 0 1-.91.084c-1.223 0-2.151-.331-2.786-.994-.635-.663-.952-1.591-.952-2.786 0-.588.084-1.115.252-1.582.177-.467.42-.859.728-1.176a3.024 3.024 0 0 1 1.092-.742c.42-.177.877-.266 1.372-.266.523 0 .989.089 1.4.266.411.177.747.439 1.008.784.271.345.453.775.546 1.288.103.504.103 1.092 0 1.764h-5.124c.047.784.28 1.372.7 1.764.42.383 1.045.574 1.876.574.56 0 1.041-.079 1.442-.238a5.07 5.07 0 0 0 1.008-.518v1.106Zm-2.884-5.698c-.532 0-.989.163-1.372.49-.383.327-.625.821-.728 1.484h3.906c.037-.672-.117-1.167-.462-1.484-.345-.327-.793-.49-1.344-.49Zm8.124.28a3.784 3.784 0 0 0-1.428.406c-.42.215-.733.551-.938 1.008V195h-1.232v-7.266h1.078l.126 1.582h.028c.205-.429.499-.803.882-1.12.392-.327.886-.527 1.484-.602v1.372Z"/>
    <rect width="188" height="38" x="496" y="251" fill="#fff" stroke="#67B0F8" stroke-width="2" rx="4"/>
    <path fill="#18123D" d="M572.652 273.614a4.363 4.363 0 0 1-.322.532 2.444 2.444 0 0 1-1.19.854c-.262.093-.57.14-.924.14-.654 0-1.181-.182-1.582-.546-.402-.373-.602-.905-.602-1.596 0-.793.275-1.377.826-1.75.56-.373 1.353-.56 2.38-.56h1.358v-.602c0-.504-.131-.863-.392-1.078-.262-.215-.71-.322-1.344-.322a3.63 3.63 0 0 0-1.274.224c-.402.14-.761.303-1.078.49v-1.106a5.383 5.383 0 0 1 1.05-.462 4.367 4.367 0 0 1 1.47-.238c.914 0 1.61.191 2.086.574.476.373.714.957.714 1.75v4.2c.009.103.014.21.014.322.009.112.018.219.028.322.009.093.018.173.028.238h-1.12a6.439 6.439 0 0 1-.084-.546 8.21 8.21 0 0 1-.028-.63l-.014-.21Zm-2.17.42c.382 0 .709-.079.98-.238.27-.159.49-.341.658-.546.168-.215.289-.42.364-.616.074-.205.112-.35.112-.434v-.532h-1.232c-.738 0-1.274.107-1.61.322-.327.205-.49.518-.49.938 0 .327.098.593.294.798.196.205.504.308.924.308Zm9.945-.336c-.196.411-.5.756-.91 1.036-.402.271-.929.406-1.582.406-.672 0-1.218-.187-1.638-.56-.411-.383-.616-.971-.616-1.764v-5.082h1.246v5.082c0 .243.032.443.098.602.074.149.172.271.294.364.121.093.261.159.42.196.168.037.35.056.546.056.541 0 .975-.121 1.302-.364.326-.243.606-.574.84-.994v-4.942h1.232V275h-1.092l-.112-1.302h-.028Zm8.462-.126a2.916 2.916 0 0 1-.938 1.148c-.402.28-.91.42-1.526.42-.439 0-.854-.075-1.246-.224a2.992 2.992 0 0 1-1.036-.7 3.494 3.494 0 0 1-.714-1.176c-.178-.476-.266-1.036-.266-1.68 0-.635.088-1.185.266-1.652.177-.476.415-.868.714-1.176a2.752 2.752 0 0 1 1.036-.7 3.387 3.387 0 0 1 1.26-.238c.55 0 1.026.117 1.428.35.401.224.723.546.966.966v-3.948h1.232V275h-1.078l-.098-1.428Zm-2.282.462c.317 0 .611-.051.882-.154.27-.112.504-.28.7-.504.205-.224.364-.504.476-.84.121-.336.182-.728.182-1.176 0-.448-.061-.84-.182-1.176a2.305 2.305 0 0 0-.476-.84 1.746 1.746 0 0 0-.7-.49 2.287 2.287 0 0 0-.882-.168c-.644 0-1.172.229-1.582.686-.402.448-.602 1.111-.602 1.988 0 .887.205 1.554.616 2.002.41.448.933.672 1.568.672Zm6.098-7.364c-.252 0-.452-.075-.602-.224a.81.81 0 0 1-.224-.574.81.81 0 0 1 .224-.574c.15-.159.35-.238.602-.238.243 0 .434.079.574.238.14.159.21.35.21.574 0 .224-.07.415-.21.574-.14.149-.331.224-.574.224Zm.602 1.064V275h-1.232v-7.266h1.232Zm5.564 7.112c-.149.084-.34.154-.574.21-.233.056-.48.084-.742.084-.354 0-.658-.051-.91-.154a1.77 1.77 0 0 1-.602-.406 1.737 1.737 0 0 1-.35-.588 2.452 2.452 0 0 1-.098-.686v-4.522h-.868v-1.05h.868v-1.526h1.232v1.526h2.114v1.05h-2.114v4.368c0 .308.075.532.224.672.159.14.434.21.826.21.364 0 .696-.103.994-.308v1.12Zm4.553.294c-.494 0-.956-.084-1.386-.252a3.242 3.242 0 0 1-1.12-.728 3.558 3.558 0 0 1-.728-1.19c-.177-.467-.266-1.003-.266-1.61 0-.597.089-1.129.266-1.596.178-.476.42-.873.728-1.19.318-.317.691-.56 1.12-.728.43-.168.892-.252 1.386-.252.504 0 .971.084 1.4.252.43.168.798.411 1.106.728.318.317.565.714.742 1.19.187.467.28.999.28 1.596 0 .607-.093 1.143-.28 1.61a3.418 3.418 0 0 1-.742 1.19c-.308.317-.676.56-1.106.728a3.807 3.807 0 0 1-1.4.252Zm0-1.106c.327 0 .626-.051.896-.154a2.04 2.04 0 0 0 .728-.49 2.29 2.29 0 0 0 .476-.84c.112-.336.168-.733.168-1.19 0-.457-.056-.854-.168-1.19a2.158 2.158 0 0 0-.476-.826 1.831 1.831 0 0 0-.728-.49 2.318 2.318 0 0 0-.896-.168c-.326 0-.625.056-.896.168-.27.103-.508.266-.714.49-.196.215-.35.49-.462.826a3.775 3.775 0 0 0-.168 1.19c0 .457.056.854.168 1.19.112.336.266.616.462.84.206.215.444.378.714.49.271.103.57.154.896.154Zm8.628-5.068a3.784 3.784 0 0 0-1.428.406c-.42.215-.733.551-.938 1.008V275h-1.232v-7.266h1.078l.126 1.582h.028c.205-.429.499-.803.882-1.12.392-.327.887-.527 1.484-.602v1.372Z"/>
    <rect width="188" height="38" x="496" y="91" fill="#fff" stroke="#67B0F8" stroke-width="2" rx="4"/>
    <path fill="#18123D" d="M578.108 114.384a3.685 3.685 0 0 1-.378.238 4.34 4.34 0 0 1-.546.252 4.576 4.576 0 0 1-.728.182c-.27.056-.574.084-.91.084-1.222 0-2.151-.331-2.786-.994-.634-.663-.952-1.591-.952-2.786 0-.588.084-1.115.252-1.582.178-.467.42-.859.728-1.176a3.024 3.024 0 0 1 1.092-.742 3.5 3.5 0 0 1 1.372-.266c.523 0 .99.089 1.4.266.411.177.747.439 1.008.784.271.345.453.775.546 1.288.103.504.103 1.092 0 1.764h-5.124c.047.784.28 1.372.7 1.764.42.383 1.046.574 1.876.574.56 0 1.041-.079 1.442-.238a5.015 5.015 0 0 0 1.008-.518v1.106Zm-2.884-5.698c-.532 0-.989.163-1.372.49-.382.327-.625.821-.728 1.484h3.906c.038-.672-.116-1.167-.462-1.484-.345-.327-.793-.49-1.344-.49Zm9.734 4.886a2.916 2.916 0 0 1-.938 1.148c-.401.28-.91.42-1.526.42-.439 0-.854-.075-1.246-.224a3.002 3.002 0 0 1-1.036-.7 3.494 3.494 0 0 1-.714-1.176c-.177-.476-.266-1.036-.266-1.68 0-.635.089-1.185.266-1.652.177-.476.415-.868.714-1.176a2.76 2.76 0 0 1 1.036-.7 3.387 3.387 0 0 1 1.26-.238c.551 0 1.027.117 1.428.35.401.224.723.546.966.966v-3.948h1.232V115h-1.078l-.098-1.428Zm-2.282.462c.317 0 .611-.051.882-.154.271-.112.504-.28.7-.504.205-.224.364-.504.476-.84.121-.336.182-.728.182-1.176 0-.448-.061-.84-.182-1.176a2.305 2.305 0 0 0-.476-.84 1.739 1.739 0 0 0-.7-.49 2.287 2.287 0 0 0-.882-.168c-.644 0-1.171.229-1.582.686-.401.448-.602 1.111-.602 1.988 0 .887.205 1.554.616 2.002.411.448.933.672 1.568.672Zm6.099-7.364c-.252 0-.453-.075-.602-.224a.805.805 0 0 1-.224-.574c0-.224.074-.415.224-.574.149-.159.35-.238.602-.238.242 0 .434.079.574.238.14.159.21.35.21.574 0 .224-.07.415-.21.574-.14.149-.332.224-.574.224Zm.602 1.064V115h-1.232v-7.266h1.232Zm5.564 7.112c-.15.084-.341.154-.574.21a3.177 3.177 0 0 1-.742.084c-.355 0-.658-.051-.91-.154a1.75 1.75 0 0 1-.602-.406 1.705 1.705 0 0 1-.35-.588 2.416 2.416 0 0 1-.098-.686v-4.522h-.868v-1.05h.868v-1.526h1.232v1.526h2.114v1.05h-2.114v4.368c0 .308.074.532.224.672.158.14.434.21.826.21.364 0 .695-.103.994-.308v1.12Zm4.553.294c-.495 0-.957-.084-1.386-.252a3.224 3.224 0 0 1-1.12-.728 3.542 3.542 0 0 1-.728-1.19c-.178-.467-.266-1.003-.266-1.61 0-.597.088-1.129.266-1.596.177-.476.42-.873.728-1.19.317-.317.69-.56 1.12-.728a3.767 3.767 0 0 1 1.386-.252c.504 0 .97.084 1.4.252.429.168.798.411 1.106.728.317.317.564.714.742 1.19.186.467.28.999.28 1.596 0 .607-.094 1.143-.28 1.61a3.448 3.448 0 0 1-.742 1.19c-.308.317-.677.56-1.106.728-.43.168-.896.252-1.4.252Zm0-1.106c.326 0 .625-.051.896-.154.28-.112.522-.275.728-.49.205-.224.364-.504.476-.84.112-.336.168-.733.168-1.19 0-.457-.056-.854-.168-1.19a2.17 2.17 0 0 0-.476-.826 1.838 1.838 0 0 0-.728-.49 2.325 2.325 0 0 0-.896-.168c-.327 0-.626.056-.896.168a1.849 1.849 0 0 0-.714.49c-.196.215-.35.49-.462.826a3.775 3.775 0 0 0-.168 1.19c0 .457.056.854.168 1.19.112.336.266.616.462.84.205.215.443.378.714.49.27.103.569.154.896.154Zm8.627-5.068a3.795 3.795 0 0 0-1.428.406c-.42.215-.732.551-.938 1.008V115h-1.232v-7.266h1.078l.126 1.582h.028c.206-.429.5-.803.882-1.12.392-.327.887-.527 1.484-.602v1.372Z"/>
    <rect width="188" height="38" x="496" y="11" fill="#fff" stroke="#67B0F8" stroke-width="2" rx="4"/>
    <path fill="#18123D" d="M575.523 33.614a4.34 4.34 0 0 1-.322.532 2.444 2.444 0 0 1-1.19.854c-.262.093-.57.14-.924.14-.654 0-1.181-.182-1.582-.546-.402-.373-.602-.905-.602-1.596 0-.793.275-1.377.826-1.75.56-.373 1.353-.56 2.38-.56h1.358v-.602c0-.504-.131-.863-.392-1.078-.262-.215-.71-.322-1.344-.322a3.63 3.63 0 0 0-1.274.224c-.402.14-.761.303-1.078.49v-1.106a5.42 5.42 0 0 1 1.05-.462 4.374 4.374 0 0 1 1.47-.238c.914 0 1.61.191 2.086.574.476.373.714.957.714 1.75v4.2c.009.103.014.21.014.322.009.112.018.22.028.322.009.093.018.173.028.238h-1.12a6.4 6.4 0 0 1-.084-.546 8.197 8.197 0 0 1-.028-.63l-.014-.21Zm-2.17.42c.382 0 .709-.08.98-.238.27-.159.49-.34.658-.546.168-.215.289-.42.364-.616.074-.205.112-.35.112-.434v-.532h-1.232c-.738 0-1.274.107-1.61.322-.327.205-.49.518-.49.938 0 .327.098.593.294.798.196.205.504.308.924.308Zm10.491-.462a2.918 2.918 0 0 1-.938 1.148c-.402.28-.91.42-1.526.42a3.47 3.47 0 0 1-1.246-.224 2.988 2.988 0 0 1-1.036-.7 3.5 3.5 0 0 1-.714-1.176c-.178-.476-.266-1.036-.266-1.68 0-.635.088-1.185.266-1.652.177-.476.415-.868.714-1.176.298-.317.644-.55 1.036-.7a3.393 3.393 0 0 1 1.26-.238c.55 0 1.026.117 1.428.35.401.224.723.546.966.966v-3.948h1.232V35h-1.078l-.098-1.428Zm-2.282.462c.317 0 .611-.051.882-.154.27-.112.504-.28.7-.504.205-.224.364-.504.476-.84.121-.336.182-.728.182-1.176 0-.448-.061-.84-.182-1.176a2.305 2.305 0 0 0-.476-.84 1.743 1.743 0 0 0-.7-.49 2.287 2.287 0 0 0-.882-.168c-.644 0-1.172.229-1.582.686-.402.448-.602 1.11-.602 1.988 0 .887.205 1.554.616 2.002.41.448.933.672 1.568.672Zm6.7.966h-1.232v-7.266h1.078l.126 1.302h.028c.196-.41.49-.751.882-1.022.392-.28.906-.42 1.54-.42.56 0 1.018.135 1.372.406.364.261.607.658.728 1.19a2.52 2.52 0 0 1 .938-1.162c.43-.29.948-.434 1.554-.434.672 0 1.204.191 1.596.574.392.373.588.952.588 1.736V35h-1.246v-4.942c0-.476-.116-.821-.35-1.036-.233-.224-.55-.336-.952-.336-.27 0-.508.042-.714.126a1.697 1.697 0 0 0-.546.322 2.8 2.8 0 0 0-.434.49c-.13.187-.252.383-.364.588V35h-1.232v-5.082c0-.467-.116-.789-.35-.966-.233-.177-.55-.266-.952-.266-.261 0-.494.033-.7.098a1.973 1.973 0 0 0-.56.28c-.158.121-.303.27-.434.448-.13.168-.252.355-.364.56V35Zm11.758-8.33c-.252 0-.453-.075-.602-.224a.805.805 0 0 1-.224-.574c0-.224.074-.415.224-.574.149-.159.35-.238.602-.238.242 0 .434.08.574.238.14.159.21.35.21.574 0 .224-.07.415-.21.574-.14.15-.332.224-.574.224Zm.602 1.064V35h-1.232v-7.266h1.232Zm5.452.952c-.56 0-1.017.13-1.372.392a2.871 2.871 0 0 0-.84.98V35h-1.232v-7.266h1.162l.042 1.302h.028a2.46 2.46 0 0 1 .924-1.036c.42-.27.952-.406 1.596-.406.719 0 1.288.191 1.708.574.429.373.644.952.644 1.736V35h-1.232v-4.97c0-.504-.126-.854-.378-1.05-.252-.196-.602-.294-1.05-.294Z"/>
    <rect width="188" height="38" x="256" y="171" fill="#fff" stroke="#67B0F8" stroke-width="2" rx="4"/>
    <path fill="#18123D" d="M301.145 193.614a4.363 4.363 0 0 1-.322.532 2.444 2.444 0 0 1-1.19.854c-.262.093-.57.14-.924.14-.654 0-1.181-.182-1.582-.546-.402-.373-.602-.905-.602-1.596 0-.793.275-1.377.826-1.75.56-.373 1.353-.56 2.38-.56h1.358v-.602c0-.504-.131-.863-.392-1.078-.262-.215-.71-.322-1.344-.322a3.63 3.63 0 0 0-1.274.224c-.402.14-.761.303-1.078.49v-1.106a5.383 5.383 0 0 1 1.05-.462 4.367 4.367 0 0 1 1.47-.238c.914 0 1.61.191 2.086.574.476.373.714.957.714 1.75v4.2c.009.103.014.21.014.322.009.112.018.219.028.322.009.093.018.173.028.238h-1.12a6.439 6.439 0 0 1-.084-.546 8.21 8.21 0 0 1-.028-.63l-.014-.21Zm-2.17.42c.382 0 .709-.079.98-.238.27-.159.49-.341.658-.546.168-.215.289-.42.364-.616.074-.205.112-.35.112-.434v-.532h-1.232c-.738 0-1.274.107-1.61.322-.327.205-.49.518-.49.938 0 .327.098.593.294.798.196.205.504.308.924.308Zm9.945-.336a2.6 2.6 0 0 1-.91 1.036c-.401.271-.929.406-1.582.406-.672 0-1.218-.187-1.638-.56-.411-.383-.616-.971-.616-1.764v-5.082h1.246v5.082c0 .243.033.443.098.602a1.041 1.041 0 0 0 .714.56c.168.037.35.056.546.056.541 0 .975-.121 1.302-.364.327-.243.607-.574.84-.994v-4.942h1.232V195h-1.092l-.112-1.302h-.028Zm8.462-.126a2.916 2.916 0 0 1-.938 1.148c-.401.28-.91.42-1.526.42-.439 0-.854-.075-1.246-.224a3.002 3.002 0 0 1-1.036-.7 3.494 3.494 0 0 1-.714-1.176c-.177-.476-.266-1.036-.266-1.68 0-.635.089-1.185.266-1.652.177-.476.415-.868.714-1.176a2.76 2.76 0 0 1 1.036-.7 3.387 3.387 0 0 1 1.26-.238c.551 0 1.027.117 1.428.35.401.224.723.546.966.966v-3.948h1.232V195h-1.078l-.098-1.428Zm-2.282.462c.317 0 .611-.051.882-.154.271-.112.504-.28.7-.504.205-.224.364-.504.476-.84.121-.336.182-.728.182-1.176 0-.448-.061-.84-.182-1.176a2.305 2.305 0 0 0-.476-.84 1.739 1.739 0 0 0-.7-.49 2.287 2.287 0 0 0-.882-.168c-.644 0-1.171.229-1.582.686-.401.448-.602 1.111-.602 1.988 0 .887.205 1.554.616 2.002.411.448.933.672 1.568.672Zm6.098-7.364c-.252 0-.452-.075-.602-.224a.81.81 0 0 1-.224-.574.81.81 0 0 1 .224-.574c.15-.159.35-.238.602-.238.243 0 .434.079.574.238.14.159.21.35.21.574 0 .224-.07.415-.21.574-.14.149-.331.224-.574.224Zm.602 1.064V195h-1.232v-7.266h1.232Zm5.565 7.112c-.15.084-.341.154-.574.21a3.177 3.177 0 0 1-.742.084c-.355 0-.658-.051-.91-.154a1.75 1.75 0 0 1-.602-.406 1.705 1.705 0 0 1-.35-.588 2.416 2.416 0 0 1-.098-.686v-4.522h-.868v-1.05h.868v-1.526h1.232v1.526h2.114v1.05h-2.114v4.368c0 .308.074.532.224.672.158.14.434.21.826.21.364 0 .695-.103.994-.308v1.12Zm1.334-4.676h3.36v1.12h-3.36v-1.12Zm8.769 4.676c-.149.084-.34.154-.574.21-.233.056-.48.084-.742.084-.354 0-.658-.051-.91-.154a1.77 1.77 0 0 1-.602-.406 1.737 1.737 0 0 1-.35-.588 2.452 2.452 0 0 1-.098-.686v-4.522h-.868v-1.05h.868v-1.526h1.232v1.526h2.114v1.05h-2.114v4.368c0 .308.075.532.224.672.159.14.434.21.826.21.364 0 .696-.103.994-.308v1.12Zm5.238-5.88a3.784 3.784 0 0 0-1.428.406c-.42.215-.733.551-.938 1.008V195h-1.232v-7.266h1.078l.126 1.582h.028c.205-.429.499-.803.882-1.12.392-.327.886-.527 1.484-.602v1.372Zm5.62 4.648a4.24 4.24 0 0 1-.322.532 2.419 2.419 0 0 1-1.19.854c-.261.093-.569.14-.924.14-.653 0-1.18-.182-1.582-.546-.401-.373-.602-.905-.602-1.596 0-.793.276-1.377.826-1.75.56-.373 1.354-.56 2.38-.56h1.358v-.602c0-.504-.13-.863-.392-1.078-.261-.215-.709-.322-1.344-.322-.448 0-.872.075-1.274.224-.401.14-.76.303-1.078.49v-1.106a5.438 5.438 0 0 1 1.05-.462 4.367 4.367 0 0 1 1.47-.238c.915 0 1.61.191 2.086.574.476.373.714.957.714 1.75v4.2c.01.103.014.21.014.322l.028.322c.01.093.019.173.028.238h-1.12a6.439 6.439 0 0 1-.084-.546 8.754 8.754 0 0 1-.028-.63l-.014-.21Zm-2.17.42c.383 0 .71-.079.98-.238.271-.159.49-.341.658-.546.168-.215.29-.42.364-.616.075-.205.112-.35.112-.434v-.532h-1.232c-.737 0-1.274.107-1.61.322-.326.205-.49.518-.49.938 0 .327.098.593.294.798.196.205.504.308.924.308Zm5.914-7.364c-.252 0-.453-.075-.602-.224a.805.805 0 0 1-.224-.574c0-.224.074-.415.224-.574.149-.159.35-.238.602-.238.242 0 .434.079.574.238.14.159.21.35.21.574 0 .224-.07.415-.21.574-.14.149-.332.224-.574.224Zm.602 1.064V195h-1.232v-7.266h1.232Zm3.24-2.772V195h-1.232v-10.038h1.232Zm4.332 10.178a4.83 4.83 0 0 1-1.022-.098 4.808 4.808 0 0 1-.77-.21 4.152 4.152 0 0 1-.546-.28 3.732 3.732 0 0 1-.35-.266v-1.106c.093.093.219.196.378.308.159.103.35.201.574.294.224.093.476.173.756.238.289.056.611.084.966.084.523 0 .938-.084 1.246-.252.308-.168.462-.453.462-.854 0-.215-.051-.387-.154-.518a.932.932 0 0 0-.392-.308 2.429 2.429 0 0 0-.588-.196 29.16 29.16 0 0 0-.686-.14 24.708 24.708 0 0 1-.91-.21 3.198 3.198 0 0 1-.812-.35 1.898 1.898 0 0 1-.588-.602c-.149-.252-.224-.579-.224-.98 0-.653.252-1.167.756-1.54.513-.373 1.227-.56 2.142-.56.513 0 .966.051 1.358.154.401.103.709.215.924.336v1.106a3.3 3.3 0 0 0-.91-.392c-.355-.112-.798-.168-1.33-.168-.551 0-.975.075-1.274.224-.289.149-.434.42-.434.812a.82.82 0 0 0 .126.476c.084.112.196.205.336.28.149.065.317.117.504.154.187.037.383.079.588.126.317.065.644.135.98.21.336.075.635.191.896.35.271.159.49.373.658.644.177.261.266.616.266 1.064 0 .42-.084.77-.252 1.05a1.93 1.93 0 0 1-.672.672 2.851 2.851 0 0 1-.938.336c-.345.075-.7.112-1.064.112Zm5.116-.056c-.271 0-.49-.084-.658-.252a.884.884 0 0 1-.252-.63c0-.261.084-.476.252-.644.168-.168.387-.252.658-.252.261 0 .476.084.644.252a.873.873 0 0 1 .252.644.884.884 0 0 1-.252.63.873.873 0 0 1-.644.252Zm8.186-.7a3.919 3.919 0 0 1-.378.238c-.15.084-.332.168-.546.252a4.632 4.632 0 0 1-.728.182 4.51 4.51 0 0 1-.91.084c-1.223 0-2.152-.331-2.786-.994-.635-.663-.952-1.591-.952-2.786 0-.588.084-1.115.252-1.582.177-.467.42-.859.728-1.176a3.024 3.024 0 0 1 1.092-.742c.42-.177.877-.266 1.372-.266.522 0 .989.089 1.4.266.41.177.746.439 1.008.784.27.345.452.775.546 1.288.102.504.102 1.092 0 1.764h-5.124c.046.784.28 1.372.7 1.764.42.383 1.045.574 1.876.574.56 0 1.04-.079 1.442-.238a5.07 5.07 0 0 0 1.008-.518v1.106Zm-2.884-5.698c-.532 0-.99.163-1.372.49-.383.327-.626.821-.728 1.484h3.906c.037-.672-.117-1.167-.462-1.484-.346-.327-.794-.49-1.344-.49Zm9.734 4.886a2.916 2.916 0 0 1-.938 1.148c-.402.28-.91.42-1.526.42-.439 0-.854-.075-1.246-.224a2.992 2.992 0 0 1-1.036-.7 3.494 3.494 0 0 1-.714-1.176c-.178-.476-.266-1.036-.266-1.68 0-.635.088-1.185.266-1.652.177-.476.415-.868.714-1.176a2.752 2.752 0 0 1 1.036-.7 3.387 3.387 0 0 1 1.26-.238c.55 0 1.026.117 1.428.35.401.224.723.546.966.966v-3.948h1.232V195h-1.078l-.098-1.428Zm-2.282.462c.317 0 .611-.051.882-.154.27-.112.504-.28.7-.504.205-.224.364-.504.476-.84.121-.336.182-.728.182-1.176 0-.448-.061-.84-.182-1.176a2.305 2.305 0 0 0-.476-.84 1.746 1.746 0 0 0-.7-.49 2.287 2.287 0 0 0-.882-.168c-.644 0-1.172.229-1.582.686-.402.448-.602 1.111-.602 1.988 0 .887.205 1.554.616 2.002.41.448.933.672 1.568.672Zm6.098-7.364c-.252 0-.453-.075-.602-.224a.81.81 0 0 1-.224-.574.81.81 0 0 1 .224-.574c.149-.159.35-.238.602-.238.243 0 .434.079.574.238.14.159.21.35.21.574 0 .224-.07.415-.21.574-.14.149-.331.224-.574.224Zm.602 1.064V195h-1.232v-7.266h1.232Zm5.564 7.112c-.149.084-.34.154-.574.21-.233.056-.48.084-.742.084-.354 0-.658-.051-.91-.154a1.77 1.77 0 0 1-.602-.406 1.737 1.737 0 0 1-.35-.588 2.452 2.452 0 0 1-.098-.686v-4.522h-.868v-1.05h.868v-1.526h1.232v1.526h2.114v1.05h-2.114v4.368c0 .308.075.532.224.672.159.14.434.21.826.21.364 0 .696-.103.994-.308v1.12Zm4.553.294c-.494 0-.956-.084-1.386-.252a3.242 3.242 0 0 1-1.12-.728 3.558 3.558 0 0 1-.728-1.19c-.177-.467-.266-1.003-.266-1.61 0-.597.089-1.129.266-1.596.178-.476.42-.873.728-1.19.318-.317.691-.56 1.12-.728.43-.168.892-.252 1.386-.252.504 0 .971.084 1.4.252.43.168.798.411 1.106.728.318.317.565.714.742 1.19.187.467.28.999.28 1.596 0 .607-.093 1.143-.28 1.61a3.418 3.418 0 0 1-.742 1.19c-.308.317-.676.56-1.106.728a3.807 3.807 0 0 1-1.4.252Zm0-1.106c.327 0 .626-.051.896-.154a2.04 2.04 0 0 0 .728-.49 2.29 2.29 0 0 0 .476-.84c.112-.336.168-.733.168-1.19 0-.457-.056-.854-.168-1.19a2.158 2.158 0 0 0-.476-.826 1.831 1.831 0 0 0-.728-.49 2.318 2.318 0 0 0-.896-.168c-.326 0-.625.056-.896.168-.27.103-.508.266-.714.49-.196.215-.35.49-.462.826a3.775 3.775 0 0 0-.168 1.19c0 .457.056.854.168 1.19.112.336.266.616.462.84.206.215.444.378.714.49.271.103.57.154.896.154Zm8.628-5.068a3.784 3.784 0 0 0-1.428.406c-.42.215-.733.551-.938 1.008V195h-1.232v-7.266h1.078l.126 1.582h.028c.205-.429.499-.803.882-1.12.392-.327.887-.527 1.484-.602v1.372Z"/>
    <rect width="188" height="38" x="256" y="91" fill="#fff" stroke="#67B0F8" stroke-width="2" rx="4"/>
    <path fill="#18123D" d="M299.948 113.614a4.24 4.24 0 0 1-.322.532 2.419 2.419 0 0 1-1.19.854c-.261.093-.569.14-.924.14-.653 0-1.18-.182-1.582-.546-.401-.373-.602-.905-.602-1.596 0-.793.276-1.377.826-1.75.56-.373 1.354-.56 2.38-.56h1.358v-.602c0-.504-.13-.863-.392-1.078-.261-.215-.709-.322-1.344-.322-.448 0-.872.075-1.274.224-.401.14-.76.303-1.078.49v-1.106a5.438 5.438 0 0 1 1.05-.462 4.367 4.367 0 0 1 1.47-.238c.915 0 1.61.191 2.086.574.476.373.714.957.714 1.75v4.2c.01.103.014.21.014.322l.028.322c.01.093.019.173.028.238h-1.12a6.439 6.439 0 0 1-.084-.546 8.754 8.754 0 0 1-.028-.63l-.014-.21Zm-2.17.42c.383 0 .71-.079.98-.238.271-.159.49-.341.658-.546.168-.215.29-.42.364-.616.075-.205.112-.35.112-.434v-.532h-1.232c-.737 0-1.274.107-1.61.322-.326.205-.49.518-.49.938 0 .327.098.593.294.798.196.205.504.308.924.308Zm9.946-.336c-.196.411-.5.756-.91 1.036-.402.271-.929.406-1.582.406-.672 0-1.218-.187-1.638-.56-.411-.383-.616-.971-.616-1.764v-5.082h1.246v5.082c0 .243.032.443.098.602.074.149.172.271.294.364.121.093.261.159.42.196.168.037.35.056.546.056.541 0 .975-.121 1.302-.364.326-.243.606-.574.84-.994v-4.942h1.232V115h-1.092l-.112-1.302h-.028Zm8.462-.126a2.916 2.916 0 0 1-.938 1.148c-.402.28-.91.42-1.526.42-.439 0-.854-.075-1.246-.224a2.992 2.992 0 0 1-1.036-.7 3.494 3.494 0 0 1-.714-1.176c-.178-.476-.266-1.036-.266-1.68 0-.635.088-1.185.266-1.652.177-.476.415-.868.714-1.176a2.752 2.752 0 0 1 1.036-.7 3.387 3.387 0 0 1 1.26-.238c.55 0 1.026.117 1.428.35.401.224.723.546.966.966v-3.948h1.232V115h-1.078l-.098-1.428Zm-2.282.462c.317 0 .611-.051.882-.154.27-.112.504-.28.7-.504.205-.224.364-.504.476-.84.121-.336.182-.728.182-1.176 0-.448-.061-.84-.182-1.176a2.305 2.305 0 0 0-.476-.84 1.746 1.746 0 0 0-.7-.49 2.287 2.287 0 0 0-.882-.168c-.644 0-1.172.229-1.582.686-.402.448-.602 1.111-.602 1.988 0 .887.205 1.554.616 2.002.41.448.933.672 1.568.672Zm6.098-7.364c-.252 0-.453-.075-.602-.224a.81.81 0 0 1-.224-.574.81.81 0 0 1 .224-.574c.149-.159.35-.238.602-.238.243 0 .434.079.574.238.14.159.21.35.21.574 0 .224-.07.415-.21.574-.14.149-.331.224-.574.224Zm.602 1.064V115h-1.232v-7.266h1.232Zm5.564 7.112c-.149.084-.34.154-.574.21-.233.056-.48.084-.742.084-.354 0-.658-.051-.91-.154a1.77 1.77 0 0 1-.602-.406 1.737 1.737 0 0 1-.35-.588 2.452 2.452 0 0 1-.098-.686v-4.522h-.868v-1.05h.868v-1.526h1.232v1.526h2.114v1.05h-2.114v4.368c0 .308.075.532.224.672.159.14.434.21.826.21.364 0 .696-.103.994-.308v1.12Zm1.335-4.676h3.36v1.12h-3.36v-1.12Zm8.769 4.676a2.252 2.252 0 0 1-.574.21 3.171 3.171 0 0 1-.742.084c-.355 0-.658-.051-.91-.154a1.76 1.76 0 0 1-.602-.406 1.72 1.72 0 0 1-.35-.588 2.452 2.452 0 0 1-.098-.686v-4.522h-.868v-1.05h.868v-1.526h1.232v1.526h2.114v1.05h-2.114v4.368c0 .308.075.532.224.672.159.14.434.21.826.21.364 0 .695-.103.994-.308v1.12Zm5.237-5.88a3.795 3.795 0 0 0-1.428.406c-.42.215-.732.551-.938 1.008V115h-1.232v-7.266h1.078l.126 1.582h.028c.206-.429.5-.803.882-1.12.392-.327.887-.527 1.484-.602v1.372Zm5.621 4.648a4.24 4.24 0 0 1-.322.532 2.444 2.444 0 0 1-1.19.854c-.261.093-.569.14-.924.14-.653 0-1.181-.182-1.582-.546-.401-.373-.602-.905-.602-1.596 0-.793.275-1.377.826-1.75.56-.373 1.353-.56 2.38-.56h1.358v-.602c0-.504-.131-.863-.392-1.078-.261-.215-.709-.322-1.344-.322a3.63 3.63 0 0 0-1.274.224c-.401.14-.761.303-1.078.49v-1.106a5.383 5.383 0 0 1 1.05-.462 4.367 4.367 0 0 1 1.47-.238c.915 0 1.61.191 2.086.574.476.373.714.957.714 1.75v4.2c.009.103.014.21.014.322l.028.322c.009.093.019.173.028.238h-1.12a6.439 6.439 0 0 1-.084-.546 8.21 8.21 0 0 1-.028-.63l-.014-.21Zm-2.17.42c.383 0 .709-.079.98-.238.271-.159.49-.341.658-.546.168-.215.289-.42.364-.616.075-.205.112-.35.112-.434v-.532h-1.232c-.737 0-1.274.107-1.61.322-.327.205-.49.518-.49.938 0 .327.098.593.294.798.196.205.504.308.924.308Zm5.913-7.364c-.252 0-.452-.075-.602-.224a.81.81 0 0 1-.224-.574.81.81 0 0 1 .224-.574c.15-.159.35-.238.602-.238.243 0 .434.079.574.238.14.159.21.35.21.574 0 .224-.07.415-.21.574-.14.149-.331.224-.574.224Zm.602 1.064V115h-1.232v-7.266h1.232Zm3.24-2.772V115h-1.232v-10.038h1.232Zm4.333 10.178c-.383 0-.724-.033-1.022-.098a4.78 4.78 0 0 1-.77-.21 4.152 4.152 0 0 1-.546-.28 3.603 3.603 0 0 1-.35-.266v-1.106c.093.093.219.196.378.308.158.103.35.201.574.294.224.093.476.173.756.238.289.056.611.084.966.084.522 0 .938-.084 1.246-.252.308-.168.462-.453.462-.854 0-.215-.052-.387-.154-.518a.939.939 0 0 0-.392-.308 2.429 2.429 0 0 0-.588-.196 30.242 30.242 0 0 0-.686-.14 24.244 24.244 0 0 1-.91-.21 3.182 3.182 0 0 1-.812-.35 1.898 1.898 0 0 1-.588-.602c-.15-.252-.224-.579-.224-.98 0-.653.252-1.167.756-1.54.513-.373 1.227-.56 2.142-.56.513 0 .966.051 1.358.154.401.103.709.215.924.336v1.106a3.3 3.3 0 0 0-.91-.392c-.355-.112-.798-.168-1.33-.168-.551 0-.976.075-1.274.224-.29.149-.434.42-.434.812a.82.82 0 0 0 .126.476c.084.112.196.205.336.28.149.065.317.117.504.154.186.037.382.079.588.126.317.065.644.135.98.21.336.075.634.191.896.35.27.159.49.373.658.644.177.261.266.616.266 1.064 0 .42-.084.77-.252 1.05a1.93 1.93 0 0 1-.672.672 2.86 2.86 0 0 1-.938.336c-.346.075-.7.112-1.064.112Zm5.115-.056c-.27 0-.49-.084-.658-.252a.884.884 0 0 1-.252-.63c0-.261.084-.476.252-.644.168-.168.388-.252.658-.252.262 0 .476.084.644.252a.873.873 0 0 1 .252.644.884.884 0 0 1-.252.63.871.871 0 0 1-.644.252Zm6.934-1.47a4.24 4.24 0 0 1-.322.532 2.444 2.444 0 0 1-1.19.854c-.261.093-.569.14-.924.14-.653 0-1.181-.182-1.582-.546-.401-.373-.602-.905-.602-1.596 0-.793.275-1.377.826-1.75.56-.373 1.353-.56 2.38-.56h1.358v-.602c0-.504-.131-.863-.392-1.078-.261-.215-.709-.322-1.344-.322a3.63 3.63 0 0 0-1.274.224c-.401.14-.761.303-1.078.49v-1.106a5.383 5.383 0 0 1 1.05-.462 4.367 4.367 0 0 1 1.47-.238c.915 0 1.61.191 2.086.574.476.373.714.957.714 1.75v4.2c.009.103.014.21.014.322l.028.322c.009.093.019.173.028.238h-1.12a6.439 6.439 0 0 1-.084-.546 8.21 8.21 0 0 1-.028-.63l-.014-.21Zm-2.17.42c.383 0 .709-.079.98-.238.271-.159.49-.341.658-.546.168-.215.289-.42.364-.616.075-.205.112-.35.112-.434v-.532h-1.232c-.737 0-1.274.107-1.61.322-.327.205-.49.518-.49.938 0 .327.098.593.294.798.196.205.504.308.924.308Zm10.491-.462a2.916 2.916 0 0 1-.938 1.148c-.401.28-.91.42-1.526.42-.439 0-.854-.075-1.246-.224a3.002 3.002 0 0 1-1.036-.7 3.494 3.494 0 0 1-.714-1.176c-.177-.476-.266-1.036-.266-1.68 0-.635.089-1.185.266-1.652.177-.476.415-.868.714-1.176a2.76 2.76 0 0 1 1.036-.7 3.387 3.387 0 0 1 1.26-.238c.551 0 1.027.117 1.428.35.401.224.723.546.966.966v-3.948h1.232V115h-1.078l-.098-1.428Zm-2.282.462c.317 0 .611-.051.882-.154.271-.112.504-.28.7-.504.205-.224.364-.504.476-.84.121-.336.182-.728.182-1.176 0-.448-.061-.84-.182-1.176a2.305 2.305 0 0 0-.476-.84 1.739 1.739 0 0 0-.7-.49 2.287 2.287 0 0 0-.882-.168c-.644 0-1.171.229-1.582.686-.401.448-.602 1.111-.602 1.988 0 .887.205 1.554.616 2.002.411.448.933.672 1.568.672Zm6.701.966h-1.232v-7.266h1.078l.126 1.302h.028c.196-.411.49-.751.882-1.022.392-.28.905-.42 1.54-.42.56 0 1.017.135 1.372.406.364.261.606.658.728 1.19.205-.495.518-.882.938-1.162.429-.289.947-.434 1.554-.434.672 0 1.204.191 1.596.574.392.373.588.952.588 1.736V115h-1.246v-4.942c0-.476-.117-.821-.35-1.036-.234-.224-.551-.336-.952-.336-.271 0-.509.042-.714.126a1.681 1.681 0 0 0-.546.322 2.71 2.71 0 0 0-.434.49 6.225 6.225 0 0 0-.364.588V115h-1.232v-5.082c0-.467-.117-.789-.35-.966-.234-.177-.551-.266-.952-.266-.262 0-.495.033-.7.098a1.96 1.96 0 0 0-.56.28 2.179 2.179 0 0 0-.434.448 4.124 4.124 0 0 0-.364.56V115Zm11.757-8.33c-.252 0-.453-.075-.602-.224a.81.81 0 0 1-.224-.574.81.81 0 0 1 .224-.574c.149-.159.35-.238.602-.238.243 0 .434.079.574.238.14.159.21.35.21.574 0 .224-.07.415-.21.574-.14.149-.331.224-.574.224Zm.602 1.064V115h-1.232v-7.266h1.232Zm5.452.952c-.56 0-1.017.131-1.372.392a2.874 2.874 0 0 0-.84.98V115h-1.232v-7.266h1.162l.042 1.302h.028a2.46 2.46 0 0 1 .924-1.036c.42-.271.952-.406 1.596-.406.719 0 1.288.191 1.708.574.43.373.644.952.644 1.736V115h-1.232v-4.97c0-.504-.126-.854-.378-1.05-.252-.196-.602-.294-1.05-.294Z"/>
    <path fill="#4E496B" d="m351 290-5.774 10h11.548L351 290Zm-1 9v31h2v-31h-2Zm0-89-5.774 10h11.548L350 210Zm-1 9v31h2v-31h-2Zm0-89-5.774 10h11.548L349 130Zm-1 9v31h2v-31h-2Z"/>
    <path stroke="#CDCBD9" stroke-width="2" d="M110 330v-15.007a4.995 4.995 0 0 1 5-4.993h200"/>
    <path stroke="#4E496B" stroke-width="2" d="M350 250v-15.007a4.995 4.995 0 0 1 5-4.993h153"/>
    <path fill="#4E496B" d="m590 130-5.774 10h11.548L590 130Zm-1 9v31h2v-31h-2Z"/>
    <path stroke="#4E496B" stroke-width="2" d="M590 220v30m-241-80v-15.007a4.995 4.995 0 0 1 5-4.993h200"/>
    <path stroke="#4E496B" stroke-width="2" d="M590 137v8a5 5 0 0 1-5 5H441"/>
    <path fill="#4E496B" d="m590 50-5.774 10h11.548L590 50Zm-1 9v31h2V59h-2Z"/>
    <path stroke="#4E496B" stroke-width="2" d="M349 90V74.993A4.994 4.994 0 0 1 354 70h200"/>
    <path stroke="#4E496B" stroke-width="2" d="M590 57v8a5 5 0 0 1-5 5H441"/>
    <path fill="#4E496B" d="m590 210-5.774 10h11.548L590 210Zm0 15.003h-1 1ZM585 230v-1 1Zm4-10.999v6.002h2v-6.002h-2ZM585 229H441v2h144v-2Zm4-3.997a3.998 3.998 0 0 1-4 3.997v2c3.313 0 6-2.683 6-5.997h-2Z"/>
</svg>
