<svg xmlns="http://www.w3.org/2000/svg" width="16" height="16" fill="none" viewBox="0 0 16 16">
    <path fill="currentColor" fill-rule="evenodd" d="M11 13.5H5A1.5 1.5 0 0 1 3.5 12V4A1.5 1.5 0 0 1 5 2.5h.5v.75c0 .414.336.75.75.75H7v2h-.75a.75.75 0 0 0-.75.75v.5c0 .414.336.75.75.75H7v2h-.75a.75.75 0 0 0-.75.75v.5c0 .414.336.75.75.75H7v-2h.75a.75.75 0 0 0 .75-.75v-.5A.75.75 0 0 0 7.75 8H7V6h.75a.75.75 0 0 0 .75-.75v-.5A.75.75 0 0 0 7.75 4H7V2.5h.757a1.5 1.5 0 0 1 1.061.44l3.243 3.242a1.5 1.5 0 0 1 .439 1.06V12a1.5 1.5 0 0 1-1.5 1.5m2.121-8.379A3 3 0 0 1 14 7.243V12a3 3 0 0 1-3 3H5a3 3 0 0 1-3-3V4a3 3 0 0 1 3-3h2.757a3 3 0 0 1 2.122.879z" clip-rule="evenodd"/>
</svg>
