<svg xmlns="http://www.w3.org/2000/svg" width="470" height="260" fill="none"><rect width="470" height="260" fill="#fff" rx="10"/><g fill="#fff" filter="url(#a)"><path d="M235 125c121.503 0 220-24.624 220-55s-98.497-55-220-55S15 39.624 15 70s98.497 55 220 55Z"/><path d="M228.714 111.556c60.751 0 110-19.153 110-42.778 0-23.626-49.249-42.778-110-42.778s-110 19.152-110 42.778c0 23.625 49.249 42.778 110 42.778Z"/><path d="M440 15H30c-8.284 0-15 6.716-15 15v80c0 8.284 6.716 15 15 15h410c8.284 0 15-6.716 15-15V30c0-8.284-6.716-15-15-15Z"/></g><g fill="#fff" filter="url(#b)"><path d="M235 245c121.503 0 220-24.624 220-55s-98.497-55-220-55-220 24.624-220 55 98.497 55 220 55Z"/><path d="M228.714 231.556c60.751 0 110-19.152 110-42.778 0-23.626-49.249-42.778-110-42.778s-110 19.152-110 42.778c0 23.626 49.249 42.778 110 42.778Z"/><path d="M440 135H30c-8.284 0-15 6.716-15 15v80c0 8.284 6.716 15 15 15h410c8.284 0 15-6.716 15-15v-80c0-8.284-6.716-15-15-15Z"/></g><path fill="#000" fill-opacity=".7" d="m205 70.99 5 2.887v-5.774l-5 2.887Zm59.969 0-5-2.887v5.774l5-2.887Zm-55.474.5H260.469v-1H209.495v1ZM265.969 190l-5 2.887v-5.774l5 2.887ZM206 189.5H261.469v1H206v-1Z"/><path fill="#DAEEF9" d="M196 146H36c-5.523 0-10 4.477-10 10v70c0 5.523 4.477 10 10 10h160c5.523 0 10-4.477 10-10v-70c0-5.523-4.477-10-10-10Z"/><path fill="#322A65" d="M79.493 196.14a5.264 5.264 0 0 1-1.89-.336 4.348 4.348 0 0 1-1.526-1.008c-.43-.439-.77-.98-1.022-1.624-.243-.644-.364-1.386-.364-2.226 0-.84.121-1.577.364-2.212.252-.644.592-1.176 1.022-1.596.429-.429.938-.751 1.526-.966a5.264 5.264 0 0 1 1.89-.336c.681 0 1.316.112 1.904.336a4.142 4.142 0 0 1 1.526.966c.429.429.765.966 1.007 1.61.243.635.365 1.372.365 2.212 0 .831-.122 1.568-.365 2.212a4.61 4.61 0 0 1-1.007 1.624c-.43.439-.938.775-1.526 1.008a5.304 5.304 0 0 1-1.904.336Zm0-1.19c.485 0 .933-.07 1.344-.21.41-.149.765-.378 1.064-.686.308-.317.546-.728.714-1.232.177-.504.266-1.115.266-1.834 0-.719-.089-1.33-.266-1.834-.168-.504-.406-.91-.714-1.218a2.59 2.59 0 0 0-1.064-.686 3.913 3.913 0 0 0-1.344-.224c-.486 0-.934.075-1.344.224a2.7 2.7 0 0 0-1.078.686c-.299.308-.537.714-.714 1.218-.168.504-.252 1.115-.252 1.834 0 .719.084 1.33.252 1.834.177.504.415.915.714 1.232.308.308.667.537 1.078.686.41.14.858.21 1.344.21Zm5.726 0c.261-.159.466-.406.616-.742.149-.336.266-.761.35-1.274.084-.513.14-1.12.168-1.82.037-.7.07-1.493.098-2.38h4.998v6.216h1.092v3.122h-1.078L91.309 196h-5.404l-.126 2.072h-1.106v-3.122h.546Zm4.998 0v-5.166h-2.66c-.047 1.372-.136 2.473-.266 3.304-.122.821-.336 1.442-.644 1.862h3.57Zm8.356-2.17H95.06V196h-1.232v-7.266h1.232v2.996h3.514v-2.996h1.232V196h-1.232v-3.22Zm6.234 3.36c-.494 0-.956-.084-1.386-.252a3.242 3.242 0 0 1-1.12-.728 3.558 3.558 0 0 1-.728-1.19c-.177-.467-.266-1.003-.266-1.61 0-.597.089-1.129.266-1.596.178-.476.42-.873.728-1.19.318-.317.691-.56 1.12-.728.43-.168.892-.252 1.386-.252.504 0 .971.084 1.4.252.43.168.798.411 1.106.728.318.317.565.714.742 1.19.187.467.28.999.28 1.596 0 .607-.093 1.143-.28 1.61a3.418 3.418 0 0 1-.742 1.19c-.308.317-.676.56-1.106.728a3.807 3.807 0 0 1-1.4.252Zm0-1.106c.327 0 .626-.051.896-.154a2.04 2.04 0 0 0 .728-.49 2.29 2.29 0 0 0 .476-.84c.112-.336.168-.733.168-1.19 0-.457-.056-.854-.168-1.19a2.158 2.158 0 0 0-.476-.826 1.831 1.831 0 0 0-.728-.49 2.318 2.318 0 0 0-.896-.168c-.326 0-.625.056-.896.168-.27.103-.508.266-.714.49-.196.215-.35.49-.462.826a3.775 3.775 0 0 0-.168 1.19c0 .457.056.854.168 1.19.112.336.266.616.462.84.206.215.444.378.714.49.271.103.57.154.896.154Zm11.088 1.106c-.494 0-.956-.084-1.386-.252a3.242 3.242 0 0 1-1.12-.728 3.558 3.558 0 0 1-.728-1.19c-.177-.467-.266-1.003-.266-1.61 0-.597.089-1.129.266-1.596.178-.476.42-.873.728-1.19.318-.317.691-.56 1.12-.728.43-.168.892-.252 1.386-.252.504 0 .971.084 1.4.252.43.168.798.411 1.106.728.318.317.565.714.742 1.19.187.467.28.999.28 1.596 0 .607-.093 1.143-.28 1.61a3.418 3.418 0 0 1-.742 1.19c-.308.317-.676.56-1.106.728a3.807 3.807 0 0 1-1.4.252Zm0-1.106c.327 0 .626-.051.896-.154a2.04 2.04 0 0 0 .728-.49 2.29 2.29 0 0 0 .476-.84c.112-.336.168-.733.168-1.19 0-.457-.056-.854-.168-1.19a2.158 2.158 0 0 0-.476-.826 1.831 1.831 0 0 0-.728-.49 2.318 2.318 0 0 0-.896-.168c-.326 0-.625.056-.896.168-.27.103-.508.266-.714.49-.196.215-.35.49-.462.826a3.775 3.775 0 0 0-.168 1.19c0 .457.056.854.168 1.19.112.336.266.616.462.84.206.215.444.378.714.49.271.103.57.154.896.154Zm11.582-2.674c0 .607-.093 1.143-.28 1.61a3.433 3.433 0 0 1-.742 1.19c-.308.317-.677.56-1.106.728a3.807 3.807 0 0 1-1.4.252c-.513 0-.985-.084-1.414-.252a2.922 2.922 0 0 1-1.106-.798c-.308-.355-.551-.803-.728-1.344-.168-.541-.252-1.181-.252-1.918 0-.607.019-1.185.056-1.736a7.504 7.504 0 0 1 .252-1.526c.131-.476.317-.901.56-1.274.252-.383.588-.7 1.008-.952.233-.14.476-.243.728-.308.252-.075.504-.131.756-.168a7.41 7.41 0 0 1 .784-.07l.77-.028c.373-.028.686-.075.938-.14.252-.065.476-.154.672-.266v1.12a2.146 2.146 0 0 1-.658.28 9.086 9.086 0 0 1-.826.126 57.56 57.56 0 0 1-1.47.112c-.439.019-.84.121-1.204.308a2.172 2.172 0 0 0-.994 1.176c-.187.513-.303 1.125-.35 1.834.485-1.12 1.4-1.68 2.744-1.68.457 0 .882.084 1.274.252.401.159.747.397 1.036.714.299.317.532.709.7 1.176.168.457.252.985.252 1.582Zm-3.528 2.674a2.5 2.5 0 0 0 .896-.154 2.04 2.04 0 0 0 .728-.49c.205-.224.364-.504.476-.84.112-.336.168-.733.168-1.19 0-.457-.056-.854-.168-1.19a2.17 2.17 0 0 0-.476-.826 1.831 1.831 0 0 0-.728-.49 2.322 2.322 0 0 0-.896-.168c-.644 0-1.181.215-1.61.644-.42.429-.63 1.092-.63 1.988 0 .467.056.873.168 1.218.112.336.266.616.462.84.205.224.443.392.714.504a2.5 2.5 0 0 0 .896.154Zm5.425-1.288c.13-.476.214-1.12.252-1.932a69.86 69.86 0 0 0 .056-3.08h4.886V196h-1.246v-6.216h-2.478c-.01.999-.042 1.885-.098 2.66-.047.775-.154 1.428-.322 1.96-.159.532-.397.938-.714 1.218-.308.271-.724.406-1.246.406h-.112a.664.664 0 0 1-.126-.014v-1.218a.98.98 0 0 0 .182.014c.476 0 .798-.355.966-1.064Zm11.448.868a4.363 4.363 0 0 1-.322.532 2.444 2.444 0 0 1-1.19.854c-.262.093-.57.14-.924.14-.654 0-1.181-.182-1.582-.546-.402-.373-.602-.905-.602-1.596 0-.793.275-1.377.826-1.75.56-.373 1.353-.56 2.38-.56h1.358v-.602c0-.504-.131-.863-.392-1.078-.262-.215-.71-.322-1.344-.322a3.63 3.63 0 0 0-1.274.224c-.402.14-.761.303-1.078.49v-1.106a5.383 5.383 0 0 1 1.05-.462 4.367 4.367 0 0 1 1.47-.238c.914 0 1.61.191 2.086.574.476.373.714.957.714 1.75v4.2c.009.103.014.21.014.322.009.112.018.219.028.322.009.093.018.173.028.238h-1.12a6.439 6.439 0 0 1-.084-.546 8.21 8.21 0 0 1-.028-.63l-.014-.21Zm-2.17.42c.382 0 .709-.079.98-.238.27-.159.49-.341.658-.546.168-.215.289-.42.364-.616.074-.205.112-.35.112-.434v-.532h-1.232c-.738 0-1.274.107-1.61.322-.327.205-.49.518-.49.938 0 .327.098.593.294.798.196.205.504.308.924.308Zm7.159-2.128h-.644V196h-1.232v-7.266h1.232v3.122h.7l2.548-3.122h1.4l-2.982 3.584 3.038 3.682h-1.498l-2.562-3.094Zm8.065 3.234c-.495 0-.957-.084-1.386-.252a3.224 3.224 0 0 1-1.12-.728 3.542 3.542 0 0 1-.728-1.19c-.178-.467-.266-1.003-.266-1.61 0-.597.088-1.129.266-1.596.177-.476.42-.873.728-1.19.317-.317.69-.56 1.12-.728a3.767 3.767 0 0 1 1.386-.252c.504 0 .97.084 1.4.252.429.168.798.411 1.106.728.317.317.564.714.742 1.19.186.467.28.999.28 1.596 0 .607-.094 1.143-.28 1.61a3.448 3.448 0 0 1-.742 1.19c-.308.317-.677.56-1.106.728-.43.168-.896.252-1.4.252Zm0-1.106c.326 0 .625-.051.896-.154.28-.112.522-.275.728-.49.205-.224.364-.504.476-.84.112-.336.168-.733.168-1.19 0-.457-.056-.854-.168-1.19a2.17 2.17 0 0 0-.476-.826 1.838 1.838 0 0 0-.728-.49 2.325 2.325 0 0 0-.896-.168c-.327 0-.626.056-.896.168a1.849 1.849 0 0 0-.714.49c-.196.215-.35.49-.462.826a3.775 3.775 0 0 0-.168 1.19c0 .457.056.854.168 1.19.112.336.266.616.462.84.205.215.443.378.714.49.27.103.569.154.896.154Z"/><path fill="#DDF2E1" d="M436 146H276c-5.523 0-10 4.477-10 10v70c0 5.523 4.477 10 10 10h160c5.523 0 10-4.477 10-10v-70c0-5.523-4.477-10-10-10Z"/><path fill="#322A65" d="M342.311 180.14a5.264 5.264 0 0 1-1.89-.336 4.344 4.344 0 0 1-1.526-1.008 4.783 4.783 0 0 1-1.022-1.624c-.243-.644-.364-1.386-.364-2.226 0-.84.121-1.577.364-2.212.252-.644.593-1.176 1.022-1.596a4.14 4.14 0 0 1 1.526-.966 5.264 5.264 0 0 1 1.89-.336c.681 0 1.316.112 1.904.336a4.14 4.14 0 0 1 1.526.966c.429.429.765.966 1.008 1.61.243.635.364 1.372.364 2.212 0 .831-.121 1.568-.364 2.212a4.622 4.622 0 0 1-1.008 1.624 4.344 4.344 0 0 1-1.526 1.008 5.305 5.305 0 0 1-1.904.336Zm0-1.19c.485 0 .933-.07 1.344-.21a2.786 2.786 0 0 0 1.064-.686c.308-.317.546-.728.714-1.232.177-.504.266-1.115.266-1.834 0-.719-.089-1.33-.266-1.834-.168-.504-.406-.91-.714-1.218a2.59 2.59 0 0 0-1.064-.686 3.916 3.916 0 0 0-1.344-.224c-.485 0-.933.075-1.344.224-.411.14-.77.369-1.078.686-.299.308-.537.714-.714 1.218-.168.504-.252 1.115-.252 1.834 0 .719.084 1.33.252 1.834.177.504.415.915.714 1.232.308.308.667.537 1.078.686.411.14.859.21 1.344.21Zm5.726 0c.261-.159.467-.406.616-.742.149-.336.266-.761.35-1.274.084-.513.14-1.12.168-1.82.037-.7.07-1.493.098-2.38h4.998v6.216h1.092v3.122h-1.078l-.154-2.072h-5.404l-.126 2.072h-1.106v-3.122h.546Zm4.998 0v-5.166h-2.66c-.047 1.372-.135 2.473-.266 3.304-.121.821-.336 1.442-.644 1.862h3.57Zm4.843-.63 3.878-5.586h1.246V180h-1.232v-5.572L357.906 180h-1.26v-7.266h1.232v5.586Zm11.881-1.54h-3.514V180h-1.232v-7.266h1.232v2.996h3.514v-2.996h1.232V180h-1.232v-3.22Zm-51.053 11.954h5.824V196h-1.232v-6.216h-3.36V196h-1.232v-7.266Zm8.394 5.012c.131-.476.215-1.12.252-1.932.038-.812.056-1.839.056-3.08h4.886V196h-1.246v-6.216h-2.478a42.616 42.616 0 0 1-.098 2.66c-.046.775-.154 1.428-.322 1.96-.158.532-.396.938-.714 1.218-.308.271-.723.406-1.246.406h-.112a.682.682 0 0 1-.126-.014v-1.218a.996.996 0 0 0 .182.014c.476 0 .798-.355.966-1.064Zm11.448.868a4.24 4.24 0 0 1-.322.532 2.419 2.419 0 0 1-1.19.854c-.261.093-.569.14-.924.14-.653 0-1.18-.182-1.582-.546-.401-.373-.602-.905-.602-1.596 0-.793.276-1.377.826-1.75.56-.373 1.354-.56 2.38-.56h1.358v-.602c0-.504-.13-.863-.392-1.078-.261-.215-.709-.322-1.344-.322-.448 0-.872.075-1.274.224-.401.14-.76.303-1.078.49v-1.106a5.438 5.438 0 0 1 1.05-.462 4.367 4.367 0 0 1 1.47-.238c.915 0 1.61.191 2.086.574.476.373.714.957.714 1.75v4.2c.01.103.014.21.014.322l.028.322c.01.093.019.173.028.238h-1.12a6.439 6.439 0 0 1-.084-.546 8.754 8.754 0 0 1-.028-.63l-.014-.21Zm-2.17.42c.383 0 .71-.079.98-.238.271-.159.49-.341.658-.546.168-.215.29-.42.364-.616.075-.205.112-.35.112-.434v-.532h-1.232c-.737 0-1.274.107-1.61.322-.326.205-.49.518-.49.938 0 .327.098.593.294.798.196.205.504.308.924.308Zm8.141-5.25V196h-1.232v-6.216h-2.282v-1.05h5.838v1.05h-2.324Zm9.323 5.6a3.919 3.919 0 0 1-.378.238c-.15.084-.332.168-.546.252a4.632 4.632 0 0 1-.728.182 4.51 4.51 0 0 1-.91.084c-1.223 0-2.152-.331-2.786-.994-.635-.663-.952-1.591-.952-2.786 0-.588.084-1.115.252-1.582.177-.467.42-.859.728-1.176a3.024 3.024 0 0 1 1.092-.742c.42-.177.877-.266 1.372-.266.522 0 .989.089 1.4.266.41.177.746.439 1.008.784.27.345.452.775.546 1.288.102.504.102 1.092 0 1.764h-5.124c.046.784.28 1.372.7 1.764.42.383 1.045.574 1.876.574.56 0 1.04-.079 1.442-.238a5.07 5.07 0 0 0 1.008-.518v1.106Zm-2.884-5.698c-.532 0-.99.163-1.372.49-.383.327-.626.821-.728 1.484h3.906c.037-.672-.117-1.167-.462-1.484-.346-.327-.794-.49-1.344-.49Zm9.509-.952v3.122h.658l2.31-3.122h1.358l-2.702 3.556 2.8 3.71h-1.498l-2.324-3.094h-.602V196h-1.232v-3.094h-.616L356.267 196h-1.456l2.8-3.668-2.702-3.598h1.414l2.268 3.122h.644v-3.122h1.232Zm10.468 4.046h-3.514V196h-1.232v-7.266h1.232v2.996h3.514v-2.996h1.232V196h-1.232v-3.22Zm8.628.798c0 .42-.075.784-.224 1.092a2 2 0 0 1-.63.756 2.776 2.776 0 0 1-.966.434c-.374.093-.78.14-1.218.14h-2.338v-7.266h1.232v2.534h1.19c.924 0 1.647.182 2.17.546.522.364.784.952.784 1.764Zm2.282 2.422h-1.232v-7.266h1.232V196Zm-6.426-3.682v2.632h1.106c.532 0 .961-.098 1.288-.294.336-.205.504-.541.504-1.008 0-.476-.15-.817-.448-1.022-.299-.205-.719-.308-1.26-.308h-1.19Zm11.653-4.55c-.373 0-.7-.047-.98-.14a2.172 2.172 0 0 1-.686-.406 1.866 1.866 0 0 1-.406-.602 2.213 2.213 0 0 1-.126-.756h1.232c0 .355.084.611.252.77.178.159.416.238.714.238.299 0 .532-.079.7-.238.168-.159.252-.415.252-.77h1.232c0 .532-.182.985-.546 1.358-.354.364-.9.546-1.638.546Zm-1.974 6.552 3.878-5.586h1.246V196h-1.232v-5.572L385.126 196h-1.26v-7.266h1.232v5.586Zm-49.455 16.294a4.24 4.24 0 0 1-.322.532 2.444 2.444 0 0 1-1.19.854c-.261.093-.569.14-.924.14-.653 0-1.181-.182-1.582-.546-.401-.373-.602-.905-.602-1.596 0-.793.275-1.377.826-1.75.56-.373 1.353-.56 2.38-.56h1.358v-.602c0-.504-.131-.863-.392-1.078-.261-.215-.709-.322-1.344-.322a3.63 3.63 0 0 0-1.274.224c-.401.14-.761.303-1.078.49v-1.106a5.383 5.383 0 0 1 1.05-.462 4.367 4.367 0 0 1 1.47-.238c.915 0 1.61.191 2.086.574.476.373.714.957.714 1.75v4.2c.009.103.014.21.014.322l.028.322c.009.093.019.173.028.238h-1.12a6.439 6.439 0 0 1-.084-.546 8.21 8.21 0 0 1-.028-.63l-.014-.21Zm-2.17.42c.383 0 .709-.079.98-.238.271-.159.49-.341.658-.546.168-.215.289-.42.364-.616.075-.205.112-.35.112-.434v-.532h-1.232c-.737 0-1.274.107-1.61.322-.327.205-.49.518-.49.938 0 .327.098.593.294.798.196.205.504.308.924.308Zm7.159-2.128h-.644V212h-1.232v-7.266h1.232v3.122h.7l2.548-3.122h1.4l-2.982 3.584 3.038 3.682h-1.498l-2.562-3.094Zm7.232 0h-.644V212h-1.232v-7.266h1.232v3.122h.7l2.548-3.122h1.4l-2.982 3.584 3.038 3.682h-1.498l-2.562-3.094Zm9.476 1.708a4.24 4.24 0 0 1-.322.532 2.419 2.419 0 0 1-1.19.854c-.261.093-.569.14-.924.14-.653 0-1.18-.182-1.582-.546-.401-.373-.602-.905-.602-1.596 0-.793.276-1.377.826-1.75.56-.373 1.354-.56 2.38-.56h1.358v-.602c0-.504-.13-.863-.392-1.078-.261-.215-.709-.322-1.344-.322-.448 0-.872.075-1.274.224-.401.14-.76.303-1.078.49v-1.106a5.438 5.438 0 0 1 1.05-.462 4.367 4.367 0 0 1 1.47-.238c.915 0 1.61.191 2.086.574.476.373.714.957.714 1.75v4.2c.01.103.014.21.014.322l.028.322c.01.093.019.173.028.238h-1.12a6.439 6.439 0 0 1-.084-.546 8.754 8.754 0 0 1-.028-.63l-.014-.21Zm-2.17.42c.383 0 .71-.079.98-.238.271-.159.49-.341.658-.546.168-.215.29-.42.364-.616.075-.205.112-.35.112-.434v-.532h-1.232c-.737 0-1.274.107-1.61.322-.326.205-.49.518-.49.938 0 .327.098.593.294.798.196.205.504.308.924.308Zm8.853.882a8.282 8.282 0 0 1-.532 1.148 3.776 3.776 0 0 1-.63.854 2.248 2.248 0 0 1-.784.518c-.289.121-.62.182-.994.182-.186 0-.359-.014-.518-.042a1.58 1.58 0 0 1-.434-.112v-1.19c.103.075.234.131.392.168.159.047.332.07.518.07.346 0 .63-.084.854-.252.224-.159.439-.415.644-.77l-2.954-7.756h1.358l2.31 6.132 2.296-6.132h1.19l-2.716 7.182Zm8.682-3.136h-3.514V212h-1.232v-7.266h1.232v2.996h3.514v-2.996h1.232V212h-1.232v-3.22Zm6.178-2.996V212h-1.232v-6.216h-2.282v-1.05h5.838v1.05h-2.324Z"/><path fill="#DDF2E1" d="M195 25H35c-5.523 0-10 4.477-10 10v70c0 5.523 4.477 10 10 10h160c5.523 0 10-4.477 10-10V35c0-5.523-4.477-10-10-10Z"/><path fill="#322A65" d="M101.311 59.14a5.265 5.265 0 0 1-1.89-.336 4.355 4.355 0 0 1-1.526-1.008c-.43-.439-.77-.98-1.022-1.624-.243-.644-.364-1.386-.364-2.226 0-.84.121-1.577.364-2.212.252-.644.593-1.176 1.022-1.596.43-.43.938-.751 1.526-.966a5.265 5.265 0 0 1 1.89-.336c.681 0 1.316.112 1.904.336a4.132 4.132 0 0 1 1.526.966c.429.43.765.966 1.008 1.61.243.635.364 1.372.364 2.212 0 .83-.121 1.568-.364 2.212a4.619 4.619 0 0 1-1.008 1.624 4.353 4.353 0 0 1-1.526 1.008 5.305 5.305 0 0 1-1.904.336Zm0-1.19c.485 0 .933-.07 1.344-.21a2.79 2.79 0 0 0 1.064-.686c.308-.317.546-.728.714-1.232.177-.504.266-1.115.266-1.834 0-.719-.089-1.33-.266-1.834-.168-.504-.406-.91-.714-1.218a2.587 2.587 0 0 0-1.064-.686 3.909 3.909 0 0 0-1.344-.224 3.91 3.91 0 0 0-1.344.224c-.41.14-.77.369-1.078.686-.299.308-.537.714-.714 1.218-.168.504-.252 1.115-.252 1.834 0 .719.084 1.33.252 1.834.177.504.415.915.714 1.232.308.308.667.537 1.078.686.411.14.859.21 1.344.21Zm5.726 0c.261-.159.467-.406.616-.742.149-.336.266-.76.35-1.274a15.2 15.2 0 0 0 .168-1.82c.037-.7.07-1.493.098-2.38h4.998v6.216h1.092v3.122h-1.078L113.127 59h-5.404l-.126 2.072h-1.106V57.95h.546Zm4.998 0v-5.166h-2.66c-.047 1.372-.135 2.473-.266 3.304-.121.821-.336 1.442-.644 1.862h3.57Zm4.843-.63 3.878-5.586h1.246V59h-1.232v-5.572L116.906 59h-1.26v-7.266h1.232v5.586Zm11.881-1.54h-3.514V59h-1.232v-7.266h1.232v2.996h3.514v-2.996h1.232V59h-1.232v-3.22ZM77.706 67.734h5.824V75h-1.232v-6.216h-3.36V75h-1.232v-7.266Zm8.394 5.012c.13-.476.215-1.12.252-1.932.038-.812.056-1.839.056-3.08h4.886V75h-1.246v-6.216H87.57c-.01.999-.042 1.885-.098 2.66-.046.775-.154 1.428-.322 1.96-.158.532-.396.938-.714 1.218-.308.27-.723.406-1.246.406h-.112a.652.652 0 0 1-.126-.014v-1.218c.047.01.108.014.182.014.476 0 .798-.355.966-1.064Zm11.448.868a4.266 4.266 0 0 1-.322.532 2.437 2.437 0 0 1-1.19.854 2.75 2.75 0 0 1-.924.14c-.653 0-1.18-.182-1.582-.546-.401-.373-.602-.905-.602-1.596 0-.793.276-1.377.826-1.75.56-.373 1.353-.56 2.38-.56h1.358v-.602c0-.504-.13-.863-.392-1.078-.261-.215-.71-.322-1.344-.322-.448 0-.873.075-1.274.224-.401.14-.76.303-1.078.49v-1.106a5.436 5.436 0 0 1 1.05-.462 4.374 4.374 0 0 1 1.47-.238c.915 0 1.61.191 2.086.574.476.373.714.957.714 1.75v4.2c.01.103.014.21.014.322l.028.322c.01.093.019.173.028.238h-1.12a6.4 6.4 0 0 1-.084-.546 8.353 8.353 0 0 1-.028-.63l-.014-.21Zm-2.17.42c.383 0 .71-.08.98-.238.27-.159.49-.34.658-.546.168-.215.29-.42.364-.616.075-.205.112-.35.112-.434v-.532H96.26c-.737 0-1.274.107-1.61.322-.327.205-.49.518-.49.938 0 .327.098.593.294.798.196.205.504.308.924.308Zm8.141-5.25V75h-1.232v-6.216h-2.282v-1.05h5.838v1.05h-2.324Zm9.323 5.6a3.979 3.979 0 0 1-.924.49 4.632 4.632 0 0 1-.728.182 4.51 4.51 0 0 1-.91.084c-1.223 0-2.152-.331-2.786-.994-.635-.663-.952-1.591-.952-2.786 0-.588.084-1.115.252-1.582.177-.467.42-.859.728-1.176a3.028 3.028 0 0 1 1.092-.742 3.49 3.49 0 0 1 1.372-.266c.522 0 .989.089 1.4.266.41.177.746.439 1.008.784.27.345.452.775.546 1.288.102.504.102 1.092 0 1.764h-5.124c.046.784.28 1.372.7 1.764.42.383 1.045.574 1.876.574.56 0 1.04-.08 1.442-.238a5.07 5.07 0 0 0 1.008-.518v1.106Zm-2.884-5.698c-.532 0-.99.163-1.372.49-.383.327-.626.821-.728 1.484h3.906c.037-.672-.117-1.167-.462-1.484-.346-.327-.794-.49-1.344-.49Zm9.509-.952v3.122h.658l2.31-3.122h1.358l-2.702 3.556 2.8 3.71h-1.498l-2.324-3.094h-.602V75h-1.232v-3.094h-.616L115.267 75h-1.456l2.8-3.668-2.702-3.598h1.414l2.268 3.122h.644v-3.122h1.232Zm10.468 4.046h-3.514V75h-1.232v-7.266h1.232v2.996h3.514v-2.996h1.232V75h-1.232v-3.22Zm8.628.798c0 .42-.075.784-.224 1.092a2 2 0 0 1-.63.756c-.271.196-.593.34-.966.434-.374.093-.78.14-1.218.14h-2.338v-7.266h1.232v2.534h1.19c.924 0 1.647.182 2.17.546.522.364.784.952.784 1.764ZM140.845 75h-1.232v-7.266h1.232V75Zm-6.426-3.682v2.632h1.106c.532 0 .961-.098 1.288-.294.336-.205.504-.541.504-1.008 0-.476-.15-.817-.448-1.022-.299-.205-.719-.308-1.26-.308h-1.19Zm11.653-4.55c-.373 0-.7-.047-.98-.14a2.167 2.167 0 0 1-.686-.406 1.87 1.87 0 0 1-.406-.602 2.215 2.215 0 0 1-.126-.756h1.232c0 .355.084.611.252.77.178.159.416.238.714.238.299 0 .532-.08.7-.238.168-.159.252-.415.252-.77h1.232c0 .532-.182.985-.546 1.358-.354.364-.9.546-1.638.546Zm-1.974 6.552 3.878-5.586h1.246V75h-1.232v-5.572L144.126 75h-1.26v-7.266h1.232v5.586ZM94.643 89.614a4.254 4.254 0 0 1-.322.532 2.437 2.437 0 0 1-1.19.854 2.75 2.75 0 0 1-.924.14c-.653 0-1.18-.182-1.582-.546-.401-.373-.602-.905-.602-1.596 0-.793.275-1.377.826-1.75.56-.373 1.353-.56 2.38-.56h1.358v-.602c0-.504-.13-.863-.392-1.078-.261-.215-.71-.322-1.344-.322-.448 0-.873.075-1.274.224-.401.14-.76.303-1.078.49v-1.106a5.436 5.436 0 0 1 1.05-.462 4.374 4.374 0 0 1 1.47-.238c.915 0 1.61.191 2.086.574.476.373.714.957.714 1.75v4.2c.01.103.014.21.014.322l.028.322c.01.093.019.173.028.238h-1.12a6.4 6.4 0 0 1-.084-.546 8.353 8.353 0 0 1-.028-.63l-.014-.21Zm-2.17.42c.383 0 .71-.08.98-.238.27-.159.49-.34.658-.546.168-.215.29-.42.364-.616.075-.205.112-.35.112-.434v-.532h-1.232c-.737 0-1.274.107-1.61.322-.327.205-.49.518-.49.938 0 .327.098.593.294.798.196.205.504.308.924.308Zm7.159-2.128h-.644V91h-1.232v-7.266h1.232v3.122h.7l2.548-3.122h1.4l-2.982 3.584L103.692 91h-1.498l-2.562-3.094Zm7.232 0h-.644V91h-1.232v-7.266h1.232v3.122h.7l2.548-3.122h1.4l-2.982 3.584L110.924 91h-1.498l-2.562-3.094Zm9.476 1.708a4.219 4.219 0 0 1-.322.532 2.419 2.419 0 0 1-1.19.854c-.261.093-.569.14-.924.14-.653 0-1.18-.182-1.582-.546-.401-.373-.602-.905-.602-1.596 0-.793.276-1.377.826-1.75.56-.373 1.354-.56 2.38-.56h1.358v-.602c0-.504-.13-.863-.392-1.078-.261-.215-.709-.322-1.344-.322-.448 0-.872.075-1.274.224-.401.14-.76.303-1.078.49v-1.106a5.475 5.475 0 0 1 1.05-.462 4.374 4.374 0 0 1 1.47-.238c.915 0 1.61.191 2.086.574.476.373.714.957.714 1.75v4.2c.01.103.014.21.014.322l.028.322c.01.093.019.173.028.238h-1.12a6.4 6.4 0 0 1-.084-.546 8.74 8.74 0 0 1-.028-.63l-.014-.21Zm-2.17.42c.383 0 .71-.08.98-.238.271-.159.49-.34.658-.546.168-.215.29-.42.364-.616.075-.205.112-.35.112-.434v-.532h-1.232c-.737 0-1.274.107-1.61.322-.326.205-.49.518-.49.938 0 .327.098.593.294.798.196.205.504.308.924.308Zm8.853.882a8.282 8.282 0 0 1-.532 1.148c-.186.336-.396.62-.63.854a2.244 2.244 0 0 1-.784.518c-.289.121-.62.182-.994.182-.186 0-.359-.014-.518-.042a1.57 1.57 0 0 1-.434-.112v-1.19c.103.075.234.13.392.168.159.047.332.07.518.07.346 0 .63-.084.854-.252.224-.159.439-.415.644-.77l-2.954-7.756h1.358l2.31 6.132 2.296-6.132h1.19l-2.716 7.182Zm8.682-3.136h-3.514V91h-1.232v-7.266h1.232v2.996h3.514v-2.996h1.232V91h-1.232v-3.22Zm6.178-2.996V91h-1.232v-6.216h-2.282v-1.05h5.838v1.05h-2.324Z"/><path fill="#DAEEF9" d="M435 25H275c-5.523 0-10 4.477-10 10v70c0 5.523 4.477 10 10 10h160c5.523 0 10-4.477 10-10V35c0-5.523-4.477-10-10-10Z"/><path fill="#322A65" d="M326.536 62.618h-5.152V67h-1.316V56.962h1.316v4.466h5.152v-4.466h1.33V67h-1.33v-4.382Zm9.277 3.766a3.738 3.738 0 0 1-.378.238 4.34 4.34 0 0 1-.546.252 4.576 4.576 0 0 1-.728.182c-.27.056-.574.084-.91.084-1.222 0-2.151-.331-2.786-.994-.634-.663-.952-1.591-.952-2.786 0-.588.084-1.115.252-1.582.178-.467.42-.859.728-1.176a3.028 3.028 0 0 1 1.092-.742c.42-.177.878-.266 1.372-.266.523 0 .99.089 1.4.266.411.177.747.439 1.008.784.271.345.453.775.546 1.288.103.504.103 1.092 0 1.764h-5.124c.047.784.28 1.372.7 1.764.42.383 1.046.574 1.876.574.56 0 1.041-.08 1.442-.238a5.015 5.015 0 0 0 1.008-.518v1.106Zm-2.884-5.698c-.532 0-.989.163-1.372.49-.382.327-.625.821-.728 1.484h3.906c.038-.672-.116-1.167-.462-1.484-.345-.327-.793-.49-1.344-.49Zm7.772 6.454c-.56 0-1.069-.084-1.526-.252a3.335 3.335 0 0 1-1.148-.742 3.263 3.263 0 0 1-.728-1.19c-.168-.467-.252-.999-.252-1.596 0-.588.084-1.115.252-1.582.177-.467.424-.859.742-1.176a3.06 3.06 0 0 1 1.162-.742 4.27 4.27 0 0 1 1.554-.266c.448 0 .858.051 1.232.154.373.093.681.233.924.42v1.106a3.27 3.27 0 0 0-1.008-.434 4.156 4.156 0 0 0-1.134-.154c-.85 0-1.475.22-1.876.658-.392.439-.588 1.11-.588 2.016 0 .905.191 1.577.574 2.016.382.439.989.658 1.82.658.438 0 .84-.051 1.204-.154a4.969 4.969 0 0 0 1.008-.42v1.106a4.29 4.29 0 0 1-2.212.574Zm5.74-3.234h-.644V67h-1.232v-7.266h1.232v3.122h.7l2.548-3.122h1.4l-2.982 3.584L350.501 67h-1.498l-2.562-3.094Zm8.065 3.234c-.495 0-.957-.084-1.386-.252a3.22 3.22 0 0 1-1.12-.728 3.542 3.542 0 0 1-.728-1.19c-.178-.467-.266-1.003-.266-1.61 0-.597.088-1.13.266-1.596.177-.476.42-.873.728-1.19a3.22 3.22 0 0 1 1.12-.728 3.767 3.767 0 0 1 1.386-.252c.504 0 .97.084 1.4.252.429.168.798.41 1.106.728.317.317.564.714.742 1.19.186.467.28.999.28 1.596 0 .607-.094 1.143-.28 1.61a3.448 3.448 0 0 1-.742 1.19c-.308.317-.677.56-1.106.728-.43.168-.896.252-1.4.252Zm0-1.106c.326 0 .625-.051.896-.154.28-.112.522-.275.728-.49.205-.224.364-.504.476-.84.112-.336.168-.733.168-1.19 0-.457-.056-.854-.168-1.19a2.168 2.168 0 0 0-.476-.826 1.835 1.835 0 0 0-.728-.49 2.325 2.325 0 0 0-.896-.168c-.327 0-.626.056-.896.168a1.845 1.845 0 0 0-.714.49c-.196.215-.35.49-.462.826a3.774 3.774 0 0 0-.168 1.19c0 .457.056.854.168 1.19.112.336.266.616.462.84.205.215.443.378.714.49.27.103.569.154.896.154Zm5.384-1.288c.131-.476.215-1.12.252-1.932.038-.812.056-1.839.056-3.08h4.886V67h-1.246v-6.216h-2.478a42.616 42.616 0 0 1-.098 2.66c-.046.775-.154 1.428-.322 1.96-.158.532-.396.938-.714 1.218-.308.27-.723.406-1.246.406h-.112a.657.657 0 0 1-.126-.014v-1.218a.97.97 0 0 0 .182.014c.476 0 .798-.355.966-1.064Zm12.596-.168c0 .42-.074.784-.224 1.092-.149.308-.359.56-.63.756-.27.196-.592.34-.966.434-.373.093-.779.14-1.218.14h-2.408v-7.266h1.232v2.534h1.26c.924 0 1.648.182 2.17.546.523.364.784.952.784 1.764Zm-4.214-1.26v2.632h1.176c.532 0 .962-.098 1.288-.294.336-.205.504-.541.504-1.008 0-.476-.149-.817-.448-1.022-.298-.205-.718-.308-1.26-.308h-1.26Zm7.659.588h-.644V67h-1.232v-7.266h1.232v3.122h.7l2.548-3.122h1.4l-2.982 3.584L379.991 67h-1.498l-2.562-3.094Zm8.065 3.234c-.495 0-.957-.084-1.386-.252a3.229 3.229 0 0 1-1.12-.728 3.542 3.542 0 0 1-.728-1.19c-.177-.467-.266-1.003-.266-1.61 0-.597.089-1.13.266-1.596.177-.476.42-.873.728-1.19.317-.317.691-.56 1.12-.728a3.767 3.767 0 0 1 1.386-.252c.504 0 .971.084 1.4.252.429.168.798.41 1.106.728.317.317.565.714.742 1.19.187.467.28.999.28 1.596 0 .607-.093 1.143-.28 1.61a3.433 3.433 0 0 1-.742 1.19c-.308.317-.677.56-1.106.728a3.807 3.807 0 0 1-1.4.252Zm0-1.106c.327 0 .625-.051.896-.154.28-.112.523-.275.728-.49.205-.224.364-.504.476-.84.112-.336.168-.733.168-1.19 0-.457-.056-.854-.168-1.19a2.168 2.168 0 0 0-.476-.826 1.828 1.828 0 0 0-.728-.49 2.322 2.322 0 0 0-.896-.168c-.327 0-.625.056-.896.168a1.845 1.845 0 0 0-.714.49c-.196.215-.35.49-.462.826a3.774 3.774 0 0 0-.168 1.19c0 .457.056.854.168 1.19.112.336.266.616.462.84.205.215.443.378.714.49.271.103.569.154.896.154ZM332.234 83.14c-.495 0-.957-.084-1.386-.252a3.229 3.229 0 0 1-1.12-.728 3.542 3.542 0 0 1-.728-1.19c-.177-.467-.266-1.003-.266-1.61 0-.597.089-1.13.266-1.596.177-.476.42-.873.728-1.19.317-.317.691-.56 1.12-.728a3.767 3.767 0 0 1 1.386-.252c.504 0 .971.084 1.4.252.429.168.798.41 1.106.728.317.317.565.714.742 1.19.187.467.28.999.28 1.596 0 .607-.093 1.143-.28 1.61a3.433 3.433 0 0 1-.742 1.19c-.308.317-.677.56-1.106.728a3.807 3.807 0 0 1-1.4.252Zm0-1.106c.327 0 .625-.051.896-.154.28-.112.523-.275.728-.49.205-.224.364-.504.476-.84.112-.336.168-.733.168-1.19 0-.457-.056-.854-.168-1.19a2.168 2.168 0 0 0-.476-.826 1.828 1.828 0 0 0-.728-.49 2.322 2.322 0 0 0-.896-.168c-.327 0-.625.056-.896.168a1.845 1.845 0 0 0-.714.49c-.196.215-.35.49-.462.826a3.774 3.774 0 0 0-.168 1.19c0 .457.056.854.168 1.19.112.336.266.616.462.84.205.215.443.378.714.49.271.103.569.154.896.154Zm11.582-2.674c0 .607-.093 1.143-.28 1.61a3.433 3.433 0 0 1-.742 1.19c-.308.317-.677.56-1.106.728a3.807 3.807 0 0 1-1.4.252c-.513 0-.985-.084-1.414-.252a2.929 2.929 0 0 1-1.106-.798c-.308-.355-.551-.803-.728-1.344-.168-.541-.252-1.18-.252-1.918 0-.607.019-1.185.056-1.736.037-.55.121-1.06.252-1.526.131-.476.317-.9.56-1.274.252-.383.588-.7 1.008-.952.233-.14.476-.243.728-.308.252-.075.504-.13.756-.168a7.41 7.41 0 0 1 .784-.07l.77-.028c.373-.028.686-.075.938-.14.252-.065.476-.154.672-.266v1.12c-.205.13-.425.224-.658.28a9.303 9.303 0 0 1-.826.126c-.532.047-1.022.084-1.47.112-.439.019-.84.121-1.204.308a2.174 2.174 0 0 0-.994 1.176c-.187.513-.303 1.125-.35 1.834.485-1.12 1.4-1.68 2.744-1.68.457 0 .882.084 1.274.252.401.159.747.397 1.036.714.299.317.532.71.7 1.176.168.457.252.985.252 1.582Zm-3.528 2.674c.327 0 .625-.051.896-.154.28-.112.523-.275.728-.49.205-.224.364-.504.476-.84.112-.336.168-.733.168-1.19 0-.457-.056-.854-.168-1.19a2.168 2.168 0 0 0-.476-.826 1.828 1.828 0 0 0-.728-.49 2.322 2.322 0 0 0-.896-.168c-.644 0-1.181.215-1.61.644-.42.43-.63 1.092-.63 1.988 0 .467.056.873.168 1.218.112.336.266.616.462.84.205.224.443.392.714.504.271.103.569.154.896.154Zm5.425-1.288c.13-.476.214-1.12.252-1.932a69.85 69.85 0 0 0 .056-3.08h4.886V83h-1.246v-6.216h-2.478c-.01.999-.042 1.885-.098 2.66-.047.775-.154 1.428-.322 1.96-.159.532-.397.938-.714 1.218-.308.27-.724.406-1.246.406h-.112a.64.64 0 0 1-.126-.014v-1.218c.046.01.107.014.182.014.476 0 .798-.355.966-1.064Zm11.447.868a4.219 4.219 0 0 1-.322.532 2.419 2.419 0 0 1-1.19.854c-.261.093-.569.14-.924.14-.653 0-1.18-.182-1.582-.546-.401-.373-.602-.905-.602-1.596 0-.793.276-1.377.826-1.75.56-.373 1.354-.56 2.38-.56h1.358v-.602c0-.504-.13-.863-.392-1.078-.261-.215-.709-.322-1.344-.322-.448 0-.872.075-1.274.224-.401.14-.76.303-1.078.49v-1.106a5.475 5.475 0 0 1 1.05-.462 4.374 4.374 0 0 1 1.47-.238c.915 0 1.61.191 2.086.574.476.373.714.957.714 1.75v4.2c.01.103.014.21.014.322l.028.322c.01.093.019.173.028.238h-1.12a6.4 6.4 0 0 1-.084-.546 8.74 8.74 0 0 1-.028-.63l-.014-.21Zm-2.17.42c.383 0 .71-.08.98-.238.271-.159.49-.34.658-.546.168-.215.29-.42.364-.616.075-.205.112-.35.112-.434v-.532h-1.232c-.737 0-1.274.107-1.61.322-.326.205-.49.518-.49.938 0 .327.098.593.294.798.196.205.504.308.924.308Zm7.16-2.128h-.644V83h-1.232v-7.266h1.232v3.122h.7l2.548-3.122h1.4l-2.982 3.584L366.21 83h-1.498l-2.562-3.094Zm8.065 3.234c-.495 0-.957-.084-1.386-.252a3.22 3.22 0 0 1-1.12-.728 3.542 3.542 0 0 1-.728-1.19c-.178-.467-.266-1.003-.266-1.61 0-.597.088-1.13.266-1.596.177-.476.42-.873.728-1.19a3.22 3.22 0 0 1 1.12-.728 3.767 3.767 0 0 1 1.386-.252c.504 0 .97.084 1.4.252.429.168.798.41 1.106.728.317.317.564.714.742 1.19.186.467.28.999.28 1.596 0 .607-.094 1.143-.28 1.61a3.448 3.448 0 0 1-.742 1.19c-.308.317-.677.56-1.106.728-.43.168-.896.252-1.4.252Zm0-1.106c.326 0 .625-.051.896-.154.28-.112.522-.275.728-.49.205-.224.364-.504.476-.84.112-.336.168-.733.168-1.19 0-.457-.056-.854-.168-1.19a2.168 2.168 0 0 0-.476-.826 1.835 1.835 0 0 0-.728-.49 2.325 2.325 0 0 0-.896-.168c-.327 0-.626.056-.896.168a1.845 1.845 0 0 0-.714.49c-.196.215-.35.49-.462.826a3.774 3.774 0 0 0-.168 1.19c0 .457.056.854.168 1.19.112.336.266.616.462.84.205.215.443.378.714.49.27.103.569.154.896.154Zm5.029-6.3h2.716c.878 0 1.54.154 1.988.462.448.299.672.77.672 1.414 0 .43-.112.775-.336 1.036-.214.252-.522.434-.924.546 1.036.168 1.554.742 1.554 1.722 0 .373-.074.695-.224.966a1.839 1.839 0 0 1-.616.644c-.261.168-.578.29-.952.364-.364.075-.76.112-1.19.112h-2.688v-7.266Zm1.232 1.05v1.974h1.372c.467 0 .84-.084 1.12-.252.29-.168.434-.41.434-.728 0-.383-.126-.644-.378-.784s-.611-.21-1.078-.21h-1.47Zm0 2.954v2.212h1.442c.262 0 .495-.014.7-.042a1.7 1.7 0 0 0 .546-.182.906.906 0 0 0 .364-.336.99.99 0 0 0 .126-.518c0-.42-.144-.714-.434-.882-.289-.168-.723-.252-1.302-.252h-1.442Z"/><defs><filter id="a" width="470" height="140" x="0" y="0" color-interpolation-filters="sRGB" filterUnits="userSpaceOnUse"><feFlood flood-opacity="0" result="BackgroundImageFix"/><feColorMatrix in="SourceAlpha" values="0 0 0 0 0 0 0 0 0 0 0 0 0 0 0 0 0 0 127 0"/><feOffset/><feGaussianBlur stdDeviation="7.5"/><feColorMatrix values="0 0 0 0 0.592157 0 0 0 0 0.74902 0 0 0 0 0.905882 0 0 0 0.4 0"/><feBlend in2="BackgroundImageFix" result="effect1_dropShadow"/><feBlend in="SourceGraphic" in2="effect1_dropShadow" result="shape"/></filter><filter id="b" width="470" height="140" x="0" y="120" color-interpolation-filters="sRGB" filterUnits="userSpaceOnUse"><feFlood flood-opacity="0" result="BackgroundImageFix"/><feColorMatrix in="SourceAlpha" values="0 0 0 0 0 0 0 0 0 0 0 0 0 0 0 0 0 0 127 0"/><feOffset/><feGaussianBlur stdDeviation="7.5"/><feColorMatrix values="0 0 0 0 0.592157 0 0 0 0 0.74902 0 0 0 0 0.905882 0 0 0 0.4 0"/><feBlend in2="BackgroundImageFix" result="effect1_dropShadow"/><feBlend in="SourceGraphic" in2="effect1_dropShadow" result="shape"/></filter></defs></svg>