<svg xmlns="http://www.w3.org/2000/svg" xmlns:xlink="http://www.w3.org/1999/xlink" width="36" height="36" class="yc-icon" fill="currentColor" stroke="none" aria-hidden="true"><svg xmlns="http://www.w3.org/2000/svg" viewBox="0 0 20 19"><g fill="none"><path fill="#1A82E3" d="M0 17.139V16l4.777-6.513a1 1 0 011.546-.082l.802.882a1 1 0 001.58-.13l3.557-5.514a1 1 0 011.609-.098l.82.984a1 1 0 001.568-.04L20 .5v5.812l-4.81 5.108-.926-.489a2.5 2.5 0 00-2.678.218l-3.874 2.937-1.276-.403a2.5 2.5 0 00-2.233.369L0 17.139z"></path><path fill="#FC4F51" d="M0 19h20V8.5l-3.978 4.226a1 1 0 01-1.195.199l-1.264-.668a1 1 0 00-1.07.088l-4.08 3.093a1 1 0 01-.906.156l-1.523-.481a1 1 0 00-.893.148L0 19z"></path></g></svg></svg>