<svg xmlns="http://www.w3.org/2000/svg" width="36" height="36" fill="currentColor" aria-hidden="true" class="yc-icon"><svg xmlns="http://www.w3.org/2000/svg" viewBox="0 0 16 17"><g fill="none"><path fill="#1A82E3" d="m0 14.923 8.785 1.267H0v-1.267zm0-3.25V.809h16v2.1l-3.848 4.136-.741-.396a1.98 1.98 0 0 0-2.142.177l-3.1 2.377-1.02-.326a1.98 1.98 0 0 0-1.787.299L0 11.674z"/><path fill="#FC4F51" d="M0 13.492v2.712l16-.014V4.992l-3.183 3.421a.793.793 0 0 1-.956.161l-1.01-.54a.792.792 0 0 0-.857.07L6.73 10.61a.792.792 0 0 1-.725.126l-1.218-.39a.792.792 0 0 0-.714.12L0 13.492z"/></g></svg></svg>