<svg xmlns="http://www.w3.org/2000/svg" width="700" height="501" fill="none" viewBox="0 0 700 501">
    <rect width="113" height="82" x="414" y="34.5" fill="#fff" rx="8"/>
    <rect width="113" height="82" x="414" y="34.5" stroke="#FF5958" stroke-width="2" rx="8"/>
    <rect width="113" height="82" x="149.789" y="34.28" fill="#fff" rx="8"/>
    <rect width="113" height="82" x="149.789" y="34.28" stroke="#5282FF" stroke-width="2" rx="8"/>
    <rect width="408.379" height="303.7" x="6.126" y="163.407" fill="#fff" stroke="#5282FF" stroke-width="2" rx="11"/>
    <path fill="#4E496B" d="m205.925 161.575 5.774-10h-11.547l5.773 10Zm0-44.15-5.773 10h11.547l-5.774-10Zm0 35.15h1v-26.15h-2v26.15h1Z"/>
    <path fill="#FF5958" d="m411.183 163.429 11.153-2.988-8.165-8.165-2.988 11.153Zm43.946-43.946-11.154 2.988 8.165 8.165 2.989-11.153Zm-37.582 37.582.707.707 31.218-31.218-.707-.707-.707-.707-31.219 31.218.708.707Zm112.317 7.123-11.154-2.989 8.165-8.165 2.989 11.154Zm-6.364-6.364-.707.707-37.583-37.583.707-.707.707-.707 37.583 37.583-.707.707Z"/>
    <path fill="#5282FF" d="m416.376 312.263 10 5.773v-11.547l-10 5.774Zm9 0v1h99.149v-2h-99.149v1Z"/>
    <g filter="url(#filter0_d_5054_9167)">
        <rect width="383.486" height="206.911" x="18.796" y="245.638" fill="#fff" rx="12"/>
    </g>
    <path fill="#FF5958" d="m152.643 304.763 10 5.773v-11.547l-10 5.774Zm9 0v1h45.149v-2h-45.149v1Zm46.882 93.619-10-5.774v11.547l10-5.773Zm-54.149 0v1h45.149v-2h-45.149v1Z"/>
    <path fill="#4E496B" d="m114.819 304.763-10-5.774v11.547l10-5.773Zm-54.15 0v1h45.15v-2h-45.15v1Z"/>
    <rect width="181" height="81" x="209.45" y="264.338" fill="#D6E1FF" rx="9"/>
    <rect width="181" height="81" x="209.45" y="357.957" fill="#D6E1FF" rx="9"/>
    <rect width="32" height="32" x="190.289" y="180.098" fill="#5282FF" rx="16"/>
    <path fill="#fff" d="M213.289 196.098c.5 0 1 .4 1 1v6c0 .6-.4 1-1 1h-14c-.6 0-1-.4-1-1v-6c0-.6.4-1 1-1h14Zm-9 3c-.6 0-1 .4-1 1s.4 1 1 1h4c.5 0 1-.5 1-1 0-.6-.4-1-1-1h-4Zm8-7c.6 0 1 .4 1 1v2h-14v-2c0-.6.4-1 1-1h12Zm-1-4c.6 0 1 .4 1 1v2h-12v-2c0-.6.4-1 1-1h10Z"/>
    <path fill="#000" d="M164.442 228.713a5.264 5.264 0 0 1-1.89-.336 4.381 4.381 0 0 1-1.526-1.008 4.783 4.783 0 0 1-1.022-1.624c-.242-.644-.364-1.386-.364-2.226 0-.84.122-1.578.364-2.212.252-.644.593-1.176 1.022-1.596.43-.43.938-.752 1.526-.966a5.264 5.264 0 0 1 1.89-.336c.682 0 1.316.112 1.904.336a4.114 4.114 0 0 1 1.526.966c.43.429.766.966 1.008 1.61.243.634.364 1.372.364 2.212 0 .83-.121 1.568-.364 2.212a4.593 4.593 0 0 1-1.008 1.624 4.372 4.372 0 0 1-1.526 1.008 5.301 5.301 0 0 1-1.904.336Zm0-1.19c.486 0 .934-.07 1.344-.21a2.79 2.79 0 0 0 1.064-.686c.308-.318.546-.728.714-1.232.178-.504.266-1.116.266-1.834 0-.719-.088-1.33-.266-1.834-.168-.504-.406-.91-.714-1.218a2.573 2.573 0 0 0-1.064-.686 3.884 3.884 0 0 0-1.344-.224c-.485 0-.933.074-1.344.224-.41.14-.77.368-1.078.686-.298.308-.536.714-.714 1.218-.168.504-.252 1.115-.252 1.834 0 .718.084 1.33.252 1.834.178.504.416.914.714 1.232a2.93 2.93 0 0 0 1.078.686c.411.14.859.21 1.344.21Zm13.294-2.59c0 .644-.089 1.204-.266 1.68a3.547 3.547 0 0 1-.714 1.176 3.002 3.002 0 0 1-1.036.7 3.44 3.44 0 0 1-1.232.224c-.56 0-1.05-.131-1.47-.392a2.864 2.864 0 0 1-.98-1.12l-.042 1.372h-1.162v-10.038h1.232l-.028 4.186c.242-.476.569-.854.98-1.134.41-.28.919-.42 1.526-.42.42 0 .821.079 1.204.238.392.149.732.382 1.022.7.298.308.532.7.7 1.176.177.466.266 1.017.266 1.652Zm-3.43 2.674c.644 0 1.162-.22 1.554-.658.401-.448.602-1.12.602-2.016 0-.878-.201-1.54-.602-1.988-.392-.458-.91-.686-1.554-.686-.318 0-.616.056-.896.168a1.99 1.99 0 0 0-.714.504c-.196.214-.355.49-.476.826a3.723 3.723 0 0 0-.168 1.176c0 .448.056.84.168 1.176.121.336.28.616.476.84.205.224.443.392.714.504.28.102.578.154.896.154Zm5.65-7.364a.795.795 0 0 1-.588-.224.81.81 0 0 1-.224-.574c0-.224.075-.416.224-.574a.768.768 0 0 1 .588-.238c.243 0 .434.079.574.238.149.158.224.35.224.574a.81.81 0 0 1-.224.574c-.14.149-.331.224-.574.224Zm.616 8.946c0 .27-.037.527-.112.77a1.589 1.589 0 0 1-.364.63 1.58 1.58 0 0 1-.616.434 2.194 2.194 0 0 1-.896.168c-.187 0-.392-.024-.616-.07a2.22 2.22 0 0 1-.658-.224v-1.19c.131.102.285.191.462.266.177.074.378.112.602.112.355 0 .602-.084.742-.252a.897.897 0 0 0 .224-.616v-7.91h1.232v7.882Zm7.788-1.232a4.125 4.125 0 0 1-.924.49 4.745 4.745 0 0 1-.728.182 4.51 4.51 0 0 1-.91.084c-1.223 0-2.152-.332-2.786-.994-.635-.663-.952-1.592-.952-2.786 0-.588.084-1.116.252-1.582.177-.467.42-.859.728-1.176a3.024 3.024 0 0 1 1.092-.742c.42-.178.877-.266 1.372-.266.522 0 .989.088 1.4.266.41.177.746.438 1.008.784.27.345.452.774.546 1.288.102.504.102 1.092 0 1.764h-5.124c.046.784.28 1.372.7 1.764.42.382 1.045.574 1.876.574.56 0 1.04-.08 1.442-.238a5.123 5.123 0 0 0 1.008-.518v1.106Zm-2.884-5.698c-.532 0-.99.163-1.372.49-.383.326-.626.821-.728 1.484h3.906c.037-.672-.117-1.167-.462-1.484-.346-.327-.794-.49-1.344-.49Zm7.662 6.454c-.56 0-1.069-.084-1.526-.252a3.35 3.35 0 0 1-1.148-.742 3.272 3.272 0 0 1-.728-1.19c-.168-.467-.252-.999-.252-1.596 0-.588.084-1.116.252-1.582.177-.467.424-.859.742-1.176a3.057 3.057 0 0 1 1.162-.742c.457-.178.975-.266 1.554-.266.448 0 .858.051 1.232.154.373.093.681.233.924.42v1.106a3.263 3.263 0 0 0-1.008-.434 4.145 4.145 0 0 0-1.134-.154c-.85 0-1.475.219-1.876.658-.392.438-.588 1.11-.588 2.016 0 .905.191 1.577.574 2.016.382.438.989.658 1.82.658.438 0 .84-.052 1.204-.154a4.969 4.969 0 0 0 1.008-.42v1.106a4.29 4.29 0 0 1-2.212.574Zm7.338-.294c-.15.084-.341.154-.574.21a3.177 3.177 0 0 1-.742.084c-.355 0-.658-.052-.91-.154a1.75 1.75 0 0 1-.602-.406 1.724 1.724 0 0 1-.35-.588 2.416 2.416 0 0 1-.098-.686v-4.522h-.868v-1.05h.868v-1.526h1.232v1.526h2.114v1.05h-2.114v4.368c0 .308.074.532.224.672.158.14.434.21.826.21.364 0 .695-.103.994-.308v1.12Zm7.683.294c-.457 0-.868-.033-1.232-.098a5.95 5.95 0 0 1-.966-.224 4.995 4.995 0 0 1-.7-.322 2.8 2.8 0 0 1-.448-.35v-1.26c.14.121.322.247.546.378.224.121.481.233.77.336.299.102.616.186.952.252.345.065.705.098 1.078.098.728 0 1.307-.136 1.736-.406.429-.28.644-.7.644-1.26 0-.28-.051-.509-.154-.686a1.245 1.245 0 0 0-.448-.462 2.596 2.596 0 0 0-.742-.322c-.289-.094-.63-.192-1.022-.294-.392-.103-.784-.22-1.176-.35a4.363 4.363 0 0 1-1.064-.518 2.633 2.633 0 0 1-.756-.812c-.187-.327-.28-.742-.28-1.246 0-.868.303-1.545.91-2.03.607-.486 1.535-.728 2.786-.728.364 0 .686.023.966.07.289.037.541.088.756.154.224.056.415.121.574.196.168.074.317.144.448.21v1.26a3.918 3.918 0 0 0-1.274-.532 6.055 6.055 0 0 0-1.47-.168c-.448 0-.826.037-1.134.112a2 2 0 0 0-.728.294c-.187.13-.322.289-.406.476a1.514 1.514 0 0 0-.126.63c0 .28.061.513.182.7.131.186.299.345.504.476.215.121.457.224.728.308.271.084.555.158.854.224.392.093.793.2 1.204.322.411.121.779.289 1.106.504.327.214.593.494.798.84.215.336.322.774.322 1.316 0 .532-.107.984-.322 1.358a2.627 2.627 0 0 1-.826.896 3.51 3.51 0 0 1-1.19.504 6.29 6.29 0 0 1-1.4.154Zm8.791-.294a2.252 2.252 0 0 1-.574.21 3.171 3.171 0 0 1-.742.084c-.355 0-.658-.052-.91-.154a1.76 1.76 0 0 1-.602-.406 1.74 1.74 0 0 1-.35-.588 2.452 2.452 0 0 1-.098-.686v-4.522h-.868v-1.05h.868v-1.526h1.232v1.526h2.114v1.05h-2.114v4.368c0 .308.075.532.224.672.159.14.434.21.826.21.364 0 .695-.103.994-.308v1.12Zm4.553.294c-.495 0-.957-.084-1.386-.252a3.233 3.233 0 0 1-1.12-.728 3.552 3.552 0 0 1-.728-1.19c-.177-.467-.266-1.004-.266-1.61 0-.598.089-1.13.266-1.596.177-.476.42-.873.728-1.19.317-.318.691-.56 1.12-.728a3.767 3.767 0 0 1 1.386-.252c.504 0 .971.084 1.4.252.429.168.798.41 1.106.728.317.317.565.714.742 1.19.187.466.28.998.28 1.596 0 .606-.093 1.143-.28 1.61a3.442 3.442 0 0 1-.742 1.19c-.308.317-.677.56-1.106.728a3.807 3.807 0 0 1-1.4.252Zm0-1.106c.327 0 .625-.052.896-.154.28-.112.523-.276.728-.49.205-.224.364-.504.476-.84.112-.336.168-.733.168-1.19a3.77 3.77 0 0 0-.168-1.19 2.163 2.163 0 0 0-.476-.826 1.82 1.82 0 0 0-.728-.49 2.322 2.322 0 0 0-.896-.168c-.327 0-.625.056-.896.168a1.838 1.838 0 0 0-.714.49c-.196.214-.35.49-.462.826a3.77 3.77 0 0 0-.168 1.19c0 .457.056.854.168 1.19.112.336.266.616.462.84.205.214.443.378.714.49.271.102.569.154.896.154Zm8.628-5.068a3.766 3.766 0 0 0-1.428.406c-.42.214-.733.55-.938 1.008v4.62h-1.232v-7.266h1.078l.126 1.582h.028c.205-.43.499-.803.882-1.12.392-.327.886-.528 1.484-.602v1.372Zm5.621 4.648a4.363 4.363 0 0 1-.322.532 2.47 2.47 0 0 1-.49.49c-.196.149-.43.27-.7.364-.262.093-.57.14-.924.14-.654 0-1.181-.182-1.582-.546-.402-.374-.602-.906-.602-1.596 0-.794.275-1.377.826-1.75.56-.374 1.353-.56 2.38-.56h1.358v-.602c0-.504-.131-.864-.392-1.078-.262-.215-.71-.322-1.344-.322-.448 0-.873.074-1.274.224-.402.14-.761.303-1.078.49v-1.106a5.383 5.383 0 0 1 1.05-.462 4.367 4.367 0 0 1 1.47-.238c.914 0 1.61.191 2.086.574.476.373.714.956.714 1.75v4.2c.009.102.014.21.014.322.009.112.018.219.028.322.009.093.018.172.028.238h-1.12a6.439 6.439 0 0 1-.084-.546 8.21 8.21 0 0 1-.028-.63l-.014-.21Zm-2.17.42c.382 0 .709-.08.98-.238.27-.159.49-.341.658-.546.168-.215.289-.42.364-.616.074-.206.112-.35.112-.434v-.532h-1.232c-.738 0-1.274.107-1.61.322-.327.205-.49.518-.49.938 0 .326.098.592.294.798.196.205.504.308.924.308Zm11.527.35c0 .466-.07.891-.21 1.274a2.3 2.3 0 0 1-.644.994c-.289.27-.667.48-1.134.63-.457.149-1.013.224-1.666.224-.355 0-.667-.019-.938-.056a4.403 4.403 0 0 1-.714-.154 2.626 2.626 0 0 1-.504-.196 2.418 2.418 0 0 1-.35-.196v-1.106c.149.084.303.158.462.224a4.115 4.115 0 0 0 1.204.322c.252.037.537.056.854.056.896 0 1.521-.168 1.876-.504.355-.336.532-.836.532-1.498v-1.12a2.652 2.652 0 0 1-.91 1.036c-.383.261-.859.392-1.428.392a3.44 3.44 0 0 1-1.232-.224 3.064 3.064 0 0 1-1.022-.658 3.408 3.408 0 0 1-.7-1.106c-.168-.448-.252-.966-.252-1.554 0-.598.084-1.116.252-1.554a3.36 3.36 0 0 1 .7-1.12 2.914 2.914 0 0 1 1.036-.672c.392-.15.807-.224 1.246-.224.579 0 1.064.13 1.456.392.401.261.714.616.938 1.064l.014-.154c0-.168.009-.369.028-.602.019-.243.037-.43.056-.56h1.12c-.019.13-.037.317-.056.56-.009.242-.014.443-.014.602v5.488Zm-3.346-.784c.308 0 .588-.047.84-.14.261-.103.485-.257.672-.462a2.05 2.05 0 0 0 .448-.756c.112-.308.168-.668.168-1.078 0-.831-.205-1.452-.616-1.862-.401-.411-.91-.616-1.526-.616a2.42 2.42 0 0 0-.868.154c-.261.102-.49.256-.686.462a2.26 2.26 0 0 0-.448.784 3.15 3.15 0 0 0-.168 1.078c0 .41.056.77.168 1.078.112.298.266.55.462.756.196.196.425.345.686.448.271.102.56.154.868.154Zm11.128.784a4.125 4.125 0 0 1-.924.49 4.716 4.716 0 0 1-.728.182 4.51 4.51 0 0 1-.91.084c-1.223 0-2.151-.332-2.786-.994-.635-.663-.952-1.592-.952-2.786 0-.588.084-1.116.252-1.582.177-.467.42-.859.728-1.176a3.024 3.024 0 0 1 1.092-.742c.42-.178.877-.266 1.372-.266.523 0 .989.088 1.4.266.411.177.747.438 1.008.784.271.345.453.774.546 1.288.103.504.103 1.092 0 1.764h-5.124c.047.784.28 1.372.7 1.764.42.382 1.045.574 1.876.574.56 0 1.041-.08 1.442-.238a5.123 5.123 0 0 0 1.008-.518v1.106Zm-2.884-5.698c-.532 0-.989.163-1.372.49-.383.326-.625.821-.728 1.484h3.906c.037-.672-.117-1.167-.462-1.484-.345-.327-.793-.49-1.344-.49Zm-203.94 66.703c6.34.121 11.383 2.119 11.383 5.995l-.01.748a28.311 28.311 0 0 1-.619 5.185l-2.37 11.067c-.005.022-1.02 5-9 5l-.73-.015c-7.327-.293-8.27-4.979-8.27-4.985l-.282-1.312c-1.315-.191-2.45-.676-3.352-1.414-1.676-1.371-2.4-3.486-2.074-5.701.267-1.812 1.228-3.67 2.896-5.316a28.272 28.272 0 0 1-.18-2.509l-.009-.748c0-4 5.373-6 12-6l.617.005Zm9.105 9.806c-2.18 1.457-5.722 2.189-9.722 2.189l-.617-.006c-3.645-.07-6.86-.762-8.935-2.072l-.136.112c.076.495.167.989.272 1.48l1.77 8.26a9.677 9.677 0 0 0 1.652-.22c2.506-.547 5.672-2.132 9.34-5.31l.08-.063a1 1 0 0 1 1.23 1.574l-.715.605c-3.548 2.936-6.76 4.547-9.508 5.147a11.73 11.73 0 0 1-1.656.244l.177.821.013.043c.02.061.058.174.127.32.136.293.386.716.82 1.15.825.825 2.54 1.914 6.086 1.915 3.545 0 5.261-1.09 6.086-1.915a4.05 4.05 0 0 0 .82-1.15 2.68 2.68 0 0 0 .127-.32c.007-.02.01-.035.012-.043l2.371-11.058.137-.681c.063-.34.119-.681.169-1.022ZM38.41 311.561h.001l-.001-.002-.001-.006v-.002l.001.01Zm14.081-.008v.003l.001-.005.001-.007-.002.009Zm-18.437-10.781c-.767 1.037-1.19 2.086-1.333 3.049-.235 1.596.289 2.982 1.363 3.861.43.352.972.639 1.627.825l-1.632-7.617-.025-.118Zm11.396-9.815c-3.155 0-5.836.481-7.648 1.316-1.809.833-2.352 1.785-2.352 2.684 0 .898.543 1.85 2.352 2.683 1.812.835 4.493 1.317 7.648 1.317 3.155 0 5.836-.482 7.648-1.317 1.81-.833 2.352-1.784 2.352-2.683 0-.899-.543-1.851-2.352-2.684-1.812-.834-4.493-1.316-7.648-1.316Zm-17.454 31.396h2.916c.944 0 1.66.16 2.148.48.496.32.744.86.744 1.62 0 .312-.044.584-.132.816-.08.224-.196.42-.348.588-.144.16-.324.292-.54.396a2.97 2.97 0 0 1-.696.24c.672.08 1.176.276 1.512.588.344.304.516.768.516 1.392 0 .448-.084.832-.252 1.152-.16.312-.384.568-.672.768a3.191 3.191 0 0 1-1.02.432c-.392.088-.82.132-1.284.132h-2.892v-8.604Zm1.128 1.032v2.64h1.704c.272 0 .52-.028.744-.084.224-.064.416-.156.576-.276.16-.128.284-.284.372-.468.096-.192.144-.42.144-.684 0-.44-.152-.736-.456-.888-.304-.16-.736-.24-1.296-.24h-1.788Zm0 3.66v2.892h1.764c.304 0 .58-.024.828-.072.248-.048.46-.128.636-.24a1.12 1.12 0 0 0 .42-.444c.104-.184.156-.412.156-.684 0-.544-.176-.92-.528-1.128-.344-.216-.892-.324-1.644-.324h-1.632Zm10.458 2.796a2.233 2.233 0 0 1-.78.888c-.344.232-.796.348-1.356.348-.576 0-1.044-.16-1.404-.48-.352-.328-.528-.832-.528-1.512v-4.356h1.068v4.356c0 .208.028.38.084.516a.886.886 0 0 0 .612.48c.144.032.3.048.468.048.464 0 .836-.104 1.116-.312.28-.208.52-.492.72-.852v-4.236h1.056v6.228h-.936l-.096-1.116h-.024Zm5.477 1.236a3.77 3.77 0 0 1-1.308-.216 2.861 2.861 0 0 1-.984-.636c-.272-.28-.48-.62-.624-1.02a4.024 4.024 0 0 1-.216-1.368c0-.504.072-.956.216-1.356.152-.4.364-.736.636-1.008a2.63 2.63 0 0 1 .996-.636 3.662 3.662 0 0 1 1.332-.228c.384 0 .736.044 1.056.132.32.08.584.2.792.36v.948a2.798 2.798 0 0 0-.864-.372 3.563 3.563 0 0 0-.972-.132c-.728 0-1.264.188-1.608.564-.336.376-.504.952-.504 1.728s.164 1.352.492 1.728c.328.376.848.564 1.56.564.376 0 .72-.044 1.032-.132.32-.096.608-.216.864-.36v.948a3.678 3.678 0 0 1-1.896.492Zm4.791-2.772h-.552v2.652h-1.056v-8.604h1.056v5.052h.6l2.184-2.676h1.2l-2.556 3.072 2.604 3.156h-1.284l-2.196-2.652Zm9.067 2.124a3.344 3.344 0 0 1-.324.204 3.758 3.758 0 0 1-.468.216 3.946 3.946 0 0 1-.624.156 3.864 3.864 0 0 1-.78.072c-1.048 0-1.844-.284-2.388-.852-.544-.568-.816-1.364-.816-2.388 0-.504.072-.956.216-1.356.152-.4.36-.736.624-1.008.264-.28.576-.492.936-.636.36-.152.752-.228 1.176-.228a3 3 0 0 1 1.2.228c.352.152.64.376.864.672.232.296.388.664.468 1.104.088.432.088.936 0 1.512h-4.392c.04.672.24 1.176.6 1.512.36.328.896.492 1.608.492.48 0 .892-.068 1.236-.204a4.33 4.33 0 0 0 .864-.444v.948Zm-2.472-4.884c-.456 0-.848.14-1.176.42-.328.28-.536.704-.624 1.272h3.348c.032-.576-.1-1-.396-1.272-.296-.28-.68-.42-1.152-.42Zm6.927 5.28a1.93 1.93 0 0 1-.492.18c-.2.048-.412.072-.636.072-.304 0-.564-.044-.78-.132a1.504 1.504 0 0 1-.516-.348 1.48 1.48 0 0 1-.3-.504 2.09 2.09 0 0 1-.084-.588v-3.876h-.744v-.9h.744v-1.308h1.056v1.308h1.812v.9H61.62v3.744c0 .264.064.456.192.576.136.12.372.18.708.18.312 0 .596-.088.852-.264v.96Zm198.129 45.516c1.492 0 2.927.555 4.027 1.552l.216.206 6.485 6.484a6.009 6.009 0 0 1 1.75 3.946l.007.297v9.515l-.007.309a6 6 0 0 1-5.993 5.691h-12l-.308-.008a6 6 0 0 1-5.684-5.683l-.008-.309v-16l.008-.309a6 6 0 0 1 5.684-5.683l.308-.008h5.515Zm.485 8a4 4 0 0 0 4 4h5.969a3.993 3.993 0 0 0-1.004-2.199l-.137-.144-6.485-6.485a4 4 0 0 0-2.343-1.142v5.97Zm-10 14a4 4 0 0 0 4 4h12a4 4 0 0 0 3.995-3.794l.005-.206v-8h-6a6 6 0 0 1-6-6v-6h-4a4 4 0 0 0-4 4v16Zm-14.604 10.928h3.336v.9h-2.316v8.94h2.316v.9h-3.336v-10.74Zm5.873 3.744v5.328h-1.056v-5.328h-.756v-.9h.756v-.156c0-.736.196-1.308.588-1.716.392-.408.928-.612 1.608-.612.296 0 .56.036.792.108v.96a1.406 1.406 0 0 0-.312-.084 2.484 2.484 0 0 0-.432-.036c-.368 0-.66.112-.876.336-.208.224-.312.572-.312 1.044v.156h1.8v.9h-1.8Zm3.577-1.812c-.216 0-.388-.064-.516-.192a.692.692 0 0 1-.192-.492.675.675 0 0 1 .708-.696c.208 0 .372.068.492.204.12.136.18.3.18.492s-.06.356-.18.492c-.12.128-.284.192-.492.192Zm.516.912v6.228h-1.056v-6.228h1.056Zm2.777-2.376v8.604h-1.056v-8.604h1.056Zm6.677 8.076a3.344 3.344 0 0 1-.324.204 3.758 3.758 0 0 1-.468.216 3.946 3.946 0 0 1-.624.156 3.864 3.864 0 0 1-.78.072c-1.048 0-1.844-.284-2.388-.852-.544-.568-.816-1.364-.816-2.388 0-.504.072-.956.216-1.356.152-.4.36-.736.624-1.008.264-.28.576-.492.936-.636.36-.152.752-.228 1.176-.228a3 3 0 0 1 1.2.228c.352.152.64.376.864.672.232.296.388.664.468 1.104.088.432.088.936 0 1.512h-4.392c.04.672.24 1.176.6 1.512.36.328.896.492 1.608.492.48 0 .892-.068 1.236-.204a4.33 4.33 0 0 0 .864-.444v.948Zm-2.472-4.884c-.456 0-.848.14-1.176.42-.328.28-.536.704-.624 1.272h3.348c.032-.576-.1-1-.396-1.272-.296-.28-.68-.42-1.152-.42Zm6.712-3.66v10.74h-3.336v-.9h2.316v-8.94h-2.316v-.9h3.336Zm2.642 9.144a.763.763 0 0 1-.564-.216.759.759 0 0 1-.216-.54c0-.224.072-.408.216-.552a.763.763 0 0 1 .564-.216c.224 0 .408.072.552.216a.748.748 0 0 1 .216.552.759.759 0 0 1-.216.54.748.748 0 0 1-.552.216Zm3.154-7.212a.681.681 0 0 1-.504-.192.692.692 0 0 1-.192-.492c0-.192.064-.356.192-.492a.66.66 0 0 1 .504-.204c.208 0 .372.068.492.204.128.136.192.3.192.492a.692.692 0 0 1-.192.492c-.12.128-.284.192-.492.192Zm.528 7.668c0 .232-.032.452-.096.66a1.35 1.35 0 0 1-.312.54c-.136.16-.312.284-.528.372a1.88 1.88 0 0 1-.768.144c-.16 0-.336-.02-.528-.06a1.885 1.885 0 0 1-.564-.192v-1.02c.112.088.244.164.396.228.152.064.324.096.516.096.304 0 .516-.072.636-.216a.766.766 0 0 0 .192-.528v-6.78h1.056v6.756Zm3.711-.408c-.328 0-.62-.028-.876-.084a4.113 4.113 0 0 1-.66-.18c-.184-.08-.34-.16-.468-.24a3.161 3.161 0 0 1-.3-.228v-.948c.08.08.188.168.324.264.136.088.3.172.492.252.192.08.408.148.648.204.248.048.524.072.828.072.448 0 .804-.072 1.068-.216.264-.144.396-.388.396-.732a.698.698 0 0 0-.132-.444.801.801 0 0 0-.336-.264 2.07 2.07 0 0 0-.504-.168c-.184-.04-.38-.08-.588-.12a22.265 22.265 0 0 1-.78-.18 2.73 2.73 0 0 1-.696-.3 1.633 1.633 0 0 1-.504-.516c-.128-.216-.192-.496-.192-.84 0-.56.216-1 .648-1.32.44-.32 1.052-.48 1.836-.48.44 0 .828.044 1.164.132.344.088.608.184.792.288v.948a2.824 2.824 0 0 0-.78-.336c-.304-.096-.684-.144-1.14-.144-.472 0-.836.064-1.092.192-.248.128-.372.36-.372.696 0 .168.036.304.108.408a.856.856 0 0 0 .288.24c.128.056.272.1.432.132.16.032.328.068.504.108.272.056.552.116.84.18.288.064.544.164.768.3.232.136.42.32.564.552.152.224.228.528.228.912 0 .36-.072.66-.216.9-.144.24-.336.432-.576.576-.232.136-.5.232-.804.288-.296.064-.6.096-.912.096Zm6.364 0c-.424 0-.82-.072-1.188-.216a2.767 2.767 0 0 1-.96-.624 3.04 3.04 0 0 1-.624-1.02c-.152-.4-.228-.86-.228-1.38 0-.512.076-.968.228-1.368a2.89 2.89 0 0 1 .624-1.02c.272-.272.592-.48.96-.624a3.231 3.231 0 0 1 1.188-.216c.432 0 .832.072 1.2.216.368.144.684.352.948.624.272.272.484.612.636 1.02.16.4.24.856.24 1.368 0 .52-.08.98-.24 1.38-.152.4-.364.74-.636 1.02-.264.272-.58.48-.948.624a3.265 3.265 0 0 1-1.2.216Zm0-.948c.28 0 .536-.044.768-.132.24-.096.448-.236.624-.42.176-.192.312-.432.408-.72.096-.288.144-.628.144-1.02s-.048-.732-.144-1.02a1.855 1.855 0 0 0-.408-.708 1.569 1.569 0 0 0-.624-.42 1.99 1.99 0 0 0-.768-.144c-.28 0-.536.048-.768.144a1.586 1.586 0 0 0-.612.42c-.168.184-.3.42-.396.708a3.234 3.234 0 0 0-.144 1.02c0 .392.048.732.144 1.02.096.288.228.528.396.72.176.184.38.324.612.42.232.088.488.132.768.132Zm7.264-4.584c-.48 0-.872.112-1.176.336a2.455 2.455 0 0 0-.72.84v4.236h-1.056v-6.228h.996l.036 1.116h.024c.168-.36.432-.656.792-.888.36-.232.816-.348 1.368-.348.616 0 1.104.164 1.464.492.368.32.552.816.552 1.488v4.368h-1.056v-4.26c0-.432-.108-.732-.324-.9-.216-.168-.516-.252-.9-.252Zm53.26-36.588c1.492 0 2.927.555 4.027 1.552l.216.206 6.485 6.484a6.009 6.009 0 0 1 1.75 3.946l.007.297v9.515l-.007.309a6 6 0 0 1-5.993 5.691h-12l-.308-.008a6 6 0 0 1-5.684-5.683l-.008-.309v-16l.008-.309a6 6 0 0 1 5.684-5.683l.308-.008h5.515Zm.485 8a4 4 0 0 0 4 4h5.969a3.993 3.993 0 0 0-1.004-2.199l-.136-.144-6.486-6.485a4 4 0 0 0-2.343-1.142v5.97Zm-10 14a4 4 0 0 0 4 4h12c2.14 0 3.888-1.68 3.996-3.794l.004-.206v-8h-6a6 6 0 0 1-6-6v-6h-4a4 4 0 0 0-4 4v16Zm-10.555 10.928h3.336v.9h-2.316v8.94h2.316v.9h-3.336v-10.74Zm5.873 3.744v5.328h-1.056v-5.328h-.756v-.9h.756v-.156c0-.736.196-1.308.588-1.716.392-.408.928-.612 1.608-.612.296 0 .56.036.792.108v.96a1.406 1.406 0 0 0-.312-.084 2.484 2.484 0 0 0-.432-.036c-.368 0-.66.112-.876.336-.208.224-.312.572-.312 1.044v.156h1.8v.9h-1.8Zm3.577-1.812c-.216 0-.388-.064-.516-.192a.692.692 0 0 1-.192-.492.675.675 0 0 1 .708-.696c.208 0 .372.068.492.204.12.136.18.3.18.492s-.06.356-.18.492c-.12.128-.284.192-.492.192Zm.516.912v6.228h-1.056v-6.228h1.056Zm2.777-2.376v8.604h-1.056v-8.604h1.056Zm6.677 8.076a3.344 3.344 0 0 1-.324.204 3.758 3.758 0 0 1-.468.216 3.946 3.946 0 0 1-.624.156 3.864 3.864 0 0 1-.78.072c-1.048 0-1.844-.284-2.388-.852-.544-.568-.816-1.364-.816-2.388 0-.504.072-.956.216-1.356.152-.4.36-.736.624-1.008.264-.28.576-.492.936-.636.36-.152.752-.228 1.176-.228a3 3 0 0 1 1.2.228c.352.152.64.376.864.672.232.296.388.664.468 1.104.088.432.088.936 0 1.512h-4.392c.04.672.24 1.176.6 1.512.36.328.896.492 1.608.492.48 0 .892-.068 1.236-.204a4.33 4.33 0 0 0 .864-.444v.948Zm-2.472-4.884c-.456 0-.848.14-1.176.42-.328.28-.536.704-.624 1.272h3.348c.032-.576-.1-1-.396-1.272-.296-.28-.68-.42-1.152-.42Zm6.712-3.66v10.74h-3.336v-.9h2.316v-8.94h-2.316v-.9h3.336Zm2.642 9.144a.763.763 0 0 1-.564-.216.759.759 0 0 1-.216-.54c0-.224.072-.408.216-.552a.763.763 0 0 1 .564-.216c.224 0 .408.072.552.216a.748.748 0 0 1 .216.552.759.759 0 0 1-.216.54.748.748 0 0 1-.552.216Zm4.98-.204a1.93 1.93 0 0 1-.492.18c-.2.048-.412.072-.636.072-.304 0-.564-.044-.78-.132a1.504 1.504 0 0 1-.516-.348 1.48 1.48 0 0 1-.3-.504 2.09 2.09 0 0 1-.084-.588v-3.876h-.744v-.9h.744v-1.308h1.056v1.308h1.812v.9h-1.812v3.744c0 .264.064.456.192.576.136.12.372.18.708.18.312 0 .596-.088.852-.264v.96Zm3.505-2.34-1.68 2.472h-1.104l2.256-3.228-1.992-3h1.224l1.488 2.196 1.5-2.196h1.092l-2.064 2.976 2.172 3.252h-1.224l-1.668-2.472Zm6.983 2.34a1.93 1.93 0 0 1-.492.18c-.2.048-.412.072-.636.072-.304 0-.564-.044-.78-.132a1.504 1.504 0 0 1-.516-.348 1.48 1.48 0 0 1-.3-.504 2.09 2.09 0 0 1-.084-.588v-3.876h-.744v-.9h.744v-1.308h1.056v1.308h1.812v.9h-1.812v3.744c0 .264.064.456.192.576.136.12.372.18.708.18.312 0 .596-.088.852-.264v.96Zm-237.017-95.856v8.604h-1.128v-8.604h1.128Zm4.808 3.192c-.48 0-.872.112-1.176.336a2.455 2.455 0 0 0-.72.84v4.236h-1.056v-6.228h.996l.036 1.116h.024c.168-.36.432-.656.792-.888.36-.232.816-.348 1.368-.348.616 0 1.104.164 1.464.492.368.32.552.816.552 1.488v4.368h-1.056v-4.26c0-.432-.108-.732-.324-.9-.216-.168-.516-.252-.9-.252Zm7.083 5.532c-.48 0-.896-.112-1.248-.336a2.444 2.444 0 0 1-.828-.924v3.264h-1.056v-8.352h.924l.108 1.212c.208-.408.488-.732.84-.972s.788-.36 1.308-.36c.36 0 .704.068 1.032.204.336.128.628.328.876.6.256.264.456.6.6 1.008.152.4.228.872.228 1.416 0 .552-.076 1.032-.228 1.44a3.01 3.01 0 0 1-.612 1.008 2.566 2.566 0 0 1-.888.6 2.941 2.941 0 0 1-1.056.192Zm-.156-.948c.552 0 .996-.188 1.332-.564.344-.384.516-.96.516-1.728 0-.752-.172-1.32-.516-1.704-.336-.392-.78-.588-1.332-.588-.272 0-.528.048-.768.144a1.71 1.71 0 0 0-.612.432c-.168.184-.304.42-.408.708a3.191 3.191 0 0 0-.144 1.008c0 .384.048.72.144 1.008.104.288.24.528.408.72.176.192.38.336.612.432.24.088.496.132.768.132Zm8.215-.288a2.233 2.233 0 0 1-.78.888c-.344.232-.796.348-1.356.348-.576 0-1.044-.16-1.404-.48-.352-.328-.528-.832-.528-1.512v-4.356h1.068v4.356c0 .208.028.38.084.516a.886.886 0 0 0 .612.48c.144.032.3.048.468.048.464 0 .836-.104 1.116-.312.28-.208.52-.492.72-.852v-4.236h1.056v6.228h-.936l-.096-1.116h-.024Zm5.837.984a1.93 1.93 0 0 1-.492.18c-.2.048-.412.072-.636.072-.304 0-.564-.044-.78-.132a1.504 1.504 0 0 1-.516-.348 1.48 1.48 0 0 1-.3-.504 2.09 2.09 0 0 1-.084-.588v-3.876h-.744v-.9h.744v-1.308h1.056v1.308h1.812v.9h-1.812v3.744c0 .264.064.456.192.576.136.12.372.18.708.18.312 0 .596-.088.852-.264v.96Z"/>
    <rect width="32" height="32" x="118.744" y="286.957" fill="#5282FF" rx="16"/>
    <path fill="#fff" d="M132.943 294.957h-5.199a1 1 0 0 0-1 1v1h6.732l-.533-2Zm-6.199 3v12c0 .55.45 1 1 1h14c.55 0 1-.45 1-1v-12h-16Zm7 10h-5v-3h5v3Zm0-4h-5v-3h5v3Zm6 0h-5v-3h5v3Z"/>
    <path fill="#000" d="M118.842 414.737h2.88c1.016 0 1.788.2 2.316.6.536.392.804 1.012.804 1.86 0 .752-.184 1.328-.552 1.728-.36.4-.836.664-1.428.792l2.34 3.624h-1.272l-2.244-3.492h-1.716v3.492h-1.128v-8.604Zm1.128 1.032v3.06h1.644c.304 0 .58-.028.828-.084.256-.056.472-.148.648-.276a1.23 1.23 0 0 0 .42-.504c.104-.216.156-.48.156-.792 0-.512-.168-.872-.504-1.08-.336-.216-.816-.324-1.44-.324h-1.752Zm11.324 7.044a3.344 3.344 0 0 1-.324.204 3.758 3.758 0 0 1-.468.216 3.946 3.946 0 0 1-.624.156 3.864 3.864 0 0 1-.78.072c-1.048 0-1.844-.284-2.388-.852-.544-.568-.816-1.364-.816-2.388 0-.504.072-.956.216-1.356.152-.4.36-.736.624-1.008.264-.28.576-.492.936-.636.36-.152.752-.228 1.176-.228a3 3 0 0 1 1.2.228c.352.152.64.376.864.672.232.296.388.664.468 1.104.088.432.088.936 0 1.512h-4.392c.04.672.24 1.176.6 1.512.36.328.896.492 1.608.492.48 0 .892-.068 1.236-.204a4.33 4.33 0 0 0 .864-.444v.948Zm-2.472-4.884c-.456 0-.848.14-1.176.42-.328.28-.536.704-.624 1.272h3.348c.032-.576-.1-1-.396-1.272-.296-.28-.68-.42-1.152-.42Zm5.871 5.532c-.328 0-.62-.028-.876-.084a4.113 4.113 0 0 1-.66-.18c-.184-.08-.34-.16-.468-.24a3.161 3.161 0 0 1-.3-.228v-.948c.08.08.188.168.324.264.136.088.3.172.492.252.192.08.408.148.648.204.248.048.524.072.828.072.448 0 .804-.072 1.068-.216.264-.144.396-.388.396-.732a.698.698 0 0 0-.132-.444.801.801 0 0 0-.336-.264 2.07 2.07 0 0 0-.504-.168c-.184-.04-.38-.08-.588-.12a22.265 22.265 0 0 1-.78-.18 2.73 2.73 0 0 1-.696-.3 1.633 1.633 0 0 1-.504-.516c-.128-.216-.192-.496-.192-.84 0-.56.216-1 .648-1.32.44-.32 1.052-.48 1.836-.48.44 0 .828.044 1.164.132.344.088.608.184.792.288v.948a2.824 2.824 0 0 0-.78-.336c-.304-.096-.684-.144-1.14-.144-.472 0-.836.064-1.092.192-.248.128-.372.36-.372.696 0 .168.036.304.108.408a.856.856 0 0 0 .288.24c.128.056.272.1.432.132.16.032.328.068.504.108.272.056.552.116.84.18.288.064.544.164.768.3.232.136.42.32.564.552.152.224.228.528.228.912 0 .36-.072.66-.216.9-.144.24-.336.432-.576.576-.232.136-.5.232-.804.288-.296.064-.6.096-.912.096Zm7.805-1.236a2.233 2.233 0 0 1-.78.888c-.344.232-.796.348-1.356.348-.576 0-1.044-.16-1.404-.48-.352-.328-.528-.832-.528-1.512v-4.356h1.068v4.356c0 .208.028.38.084.516a.886.886 0 0 0 .612.48c.144.032.3.048.468.048.464 0 .836-.104 1.116-.312.28-.208.52-.492.72-.852v-4.236h1.056v6.228h-.936l-.096-1.116h-.024Zm3.845-7.488v8.604h-1.056v-8.604h1.056Zm4.77 8.472a1.93 1.93 0 0 1-.492.18c-.2.048-.412.072-.636.072-.304 0-.564-.044-.78-.132a1.504 1.504 0 0 1-.516-.348 1.48 1.48 0 0 1-.3-.504 2.09 2.09 0 0 1-.084-.588v-3.876h-.744v-.9h.744v-1.308h1.056v1.308h1.812v.9h-1.812v3.744c0 .264.064.456.192.576.136.12.372.18.708.18.312 0 .596-.088.852-.264v.96Z"/>
    <rect width="32" height="32" x="118.744" y="379.341" fill="#5282FF" rx="16"/>
    <path fill="#fff" d="M132.943 387.341h-5.199a1 1 0 0 0-1 1v1h6.732l-.533-2Zm-6.199 3v12c0 .55.45 1 1 1h14c.55 0 1-.45 1-1v-12h-16Zm7 10h-5v-3h5v3Zm0-4h-5v-3h5v3Zm6 0h-5v-3h5v3Z"/>
    <path fill="#000" d="m227.729 321.529-.864-1.5-.852 1.5-.804-.588 1.164-1.272-1.692-.36.3-.936 1.572.708-.18-1.728h.984l-.18 1.728 1.56-.708.312.936-1.692.36 1.164 1.272-.792.588Zm3.244 4.5a.763.763 0 0 1-.564-.216.759.759 0 0 1-.216-.54c0-.224.072-.408.216-.552a.763.763 0 0 1 .564-.216c.224 0 .408.072.552.216a.748.748 0 0 1 .216.552.759.759 0 0 1-.216.54.748.748 0 0 1-.552.216Zm3.154-7.212a.681.681 0 0 1-.504-.192.692.692 0 0 1-.192-.492c0-.192.064-.356.192-.492a.66.66 0 0 1 .504-.204c.208 0 .372.068.492.204.128.136.192.3.192.492a.692.692 0 0 1-.192.492c-.12.128-.284.192-.492.192Zm.528 7.668c0 .232-.032.452-.096.66a1.35 1.35 0 0 1-.312.54c-.136.16-.312.284-.528.372a1.88 1.88 0 0 1-.768.144c-.16 0-.336-.02-.528-.06a1.885 1.885 0 0 1-.564-.192v-1.02c.112.088.244.164.396.228.152.064.324.096.516.096.304 0 .516-.072.636-.216a.766.766 0 0 0 .192-.528v-6.78h1.056v6.756Zm4.851-.408c-.48 0-.896-.112-1.248-.336a2.444 2.444 0 0 1-.828-.924v3.264h-1.056v-8.352h.924l.108 1.212c.208-.408.488-.732.84-.972s.788-.36 1.308-.36c.36 0 .704.068 1.032.204.336.128.628.328.876.6.256.264.456.6.6 1.008.152.4.228.872.228 1.416 0 .552-.076 1.032-.228 1.44a3.01 3.01 0 0 1-.612 1.008 2.566 2.566 0 0 1-.888.6 2.941 2.941 0 0 1-1.056.192Zm-.156-.948c.552 0 .996-.188 1.332-.564.344-.384.516-.96.516-1.728 0-.752-.172-1.32-.516-1.704-.336-.392-.78-.588-1.332-.588-.272 0-.528.048-.768.144a1.71 1.71 0 0 0-.612.432c-.168.184-.304.42-.408.708a3.191 3.191 0 0 0-.144 1.008c0 .384.048.72.144 1.008.104.288.24.528.408.72.176.192.38.336.612.432.24.088.496.132.768.132Zm9.571.3c0 .4-.06.764-.18 1.092a1.97 1.97 0 0 1-.552.852c-.248.232-.572.412-.972.54-.392.128-.868.192-1.428.192a5.95 5.95 0 0 1-.804-.048 3.698 3.698 0 0 1-.612-.132 2.214 2.214 0 0 1-.432-.168 2.008 2.008 0 0 1-.3-.168v-.948c.128.072.26.136.396.192a3.534 3.534 0 0 0 1.032.276c.216.032.46.048.732.048.768 0 1.304-.144 1.608-.432.304-.288.456-.716.456-1.284v-.96a2.265 2.265 0 0 1-.78.888c-.328.224-.736.336-1.224.336-.368 0-.72-.064-1.056-.192a2.613 2.613 0 0 1-.876-.564 2.912 2.912 0 0 1-.6-.948c-.144-.384-.216-.828-.216-1.332 0-.512.072-.956.216-1.332.152-.384.352-.704.6-.96.256-.256.552-.448.888-.576a2.974 2.974 0 0 1 1.068-.192c.496 0 .912.112 1.248.336.344.224.612.528.804.912l.012-.132c0-.144.008-.316.024-.516.016-.208.032-.368.048-.48h.96a7.943 7.943 0 0 0-.048.48c-.008.208-.012.38-.012.516v4.704Zm-2.868-.672c.264 0 .504-.04.72-.12.224-.088.416-.22.576-.396.168-.176.296-.392.384-.648a2.7 2.7 0 0 0 .144-.924c0-.712-.176-1.244-.528-1.596-.344-.352-.78-.528-1.308-.528a2.08 2.08 0 0 0-.744.132c-.224.088-.42.22-.588.396-.16.176-.288.4-.384.672a2.7 2.7 0 0 0-.144.924c0 .352.048.66.144.924.096.256.228.472.396.648.168.168.364.296.588.384.232.088.48.132.744.132Zm-1.758-39.793a6 6 0 0 1 5.691 5.993v14l-.007.308a6.002 6.002 0 0 1-5.684 5.684l-.309.008h-14l-.308-.008a6.002 6.002 0 0 1-5.684-5.684l-.008-.308v-14a6 6 0 0 1 5.692-5.993l.308-.007h14l.309.007Zm-1.68 13.934a1 1 0 0 0-1.255-.082l-.074.058-5.649 4.841-.609.523-.641-.482-2.819-2.113a1 1 0 0 0-1.188-.009l-4.306 3.131c-.028.021-.058.039-.088.057v.135a4 4 0 0 0 4 4h14a4 4 0 0 0 4-4v-1.135a1.053 1.053 0 0 1-.099-.065l-.079-.066-5.193-4.793Zm-12.629-11.941a4 4 0 0 0-3.995 3.793l-.005.207v11.399l3.217-2.339.204-.137a3.003 3.003 0 0 1 3.361.162l2.176 1.633 5.04-4.32.224-.174a3.002 3.002 0 0 1 3.764.247l4.014 3.705v-10.176a4 4 0 0 0-4-4h-14Zm3.155 4.003a3 3 0 0 1 2.845 2.997l-.004.154a3 3 0 0 1-2.996 2.846l-.154-.004a3.001 3.001 0 0 1-2.842-2.842l-.004-.154a3 3 0 0 1 3-3l.155.003Zm-.155 1.997a1 1 0 1 0 0 2 1 1 0 0 0 0-2Zm33.562 28.572-.864-1.5-.852 1.5-.804-.588 1.164-1.272-1.692-.36.3-.936 1.572.708-.18-1.728h.984l-.18 1.728 1.56-.708.312.936-1.692.36 1.164 1.272-.792.588Zm3.244 4.5a.763.763 0 0 1-.564-.216.759.759 0 0 1-.216-.54c0-.224.072-.408.216-.552a.763.763 0 0 1 .564-.216c.224 0 .408.072.552.216a.748.748 0 0 1 .216.552.759.759 0 0 1-.216.54.748.748 0 0 1-.552.216Zm3.153-7.212a.681.681 0 0 1-.504-.192.692.692 0 0 1-.192-.492c0-.192.064-.356.192-.492a.66.66 0 0 1 .504-.204c.208 0 .372.068.492.204.128.136.192.3.192.492a.692.692 0 0 1-.192.492c-.12.128-.284.192-.492.192Zm.528 7.668c0 .232-.032.452-.096.66a1.35 1.35 0 0 1-.312.54c-.136.16-.312.284-.528.372a1.88 1.88 0 0 1-.768.144c-.16 0-.336-.02-.528-.06a1.885 1.885 0 0 1-.564-.192v-1.02c.112.088.244.164.396.228.152.064.324.096.516.096.304 0 .516-.072.636-.216a.766.766 0 0 0 .192-.528v-6.78h1.056v6.756Zm4.851-.408c-.48 0-.896-.112-1.248-.336a2.444 2.444 0 0 1-.828-.924v3.264h-1.056v-8.352h.924l.108 1.212c.208-.408.488-.732.84-.972s.788-.36 1.308-.36c.36 0 .704.068 1.032.204.336.128.628.328.876.6.256.264.456.6.6 1.008.152.4.228.872.228 1.416 0 .552-.076 1.032-.228 1.44a3.01 3.01 0 0 1-.612 1.008 2.566 2.566 0 0 1-.888.6 2.941 2.941 0 0 1-1.056.192Zm-.156-.948c.552 0 .996-.188 1.332-.564.344-.384.516-.96.516-1.728 0-.752-.172-1.32-.516-1.704-.336-.392-.78-.588-1.332-.588-.272 0-.528.048-.768.144a1.71 1.71 0 0 0-.612.432c-.168.184-.304.42-.408.708a3.191 3.191 0 0 0-.144 1.008c0 .384.048.72.144 1.008.104.288.24.528.408.72.176.192.38.336.612.432.24.088.496.132.768.132Zm9.175.3a3.344 3.344 0 0 1-.324.204 3.758 3.758 0 0 1-.468.216 3.946 3.946 0 0 1-.624.156 3.864 3.864 0 0 1-.78.072c-1.048 0-1.844-.284-2.388-.852-.544-.568-.816-1.364-.816-2.388 0-.504.072-.956.216-1.356.152-.4.36-.736.624-1.008.264-.28.576-.492.936-.636.36-.152.752-.228 1.176-.228a3 3 0 0 1 1.2.228c.352.152.64.376.864.672.232.296.388.664.468 1.104.088.432.088.936 0 1.512h-4.392c.04.672.24 1.176.6 1.512.36.328.896.492 1.608.492.48 0 .892-.068 1.236-.204a4.33 4.33 0 0 0 .864-.444v.948Zm-2.472-4.884c-.456 0-.848.14-1.176.42-.328.28-.536.704-.624 1.272h3.348c.032-.576-.1-1-.396-1.272-.296-.28-.68-.42-1.152-.42Zm9.232 4.884c0 .4-.06.764-.18 1.092a1.97 1.97 0 0 1-.552.852c-.248.232-.572.412-.972.54-.392.128-.868.192-1.428.192a5.95 5.95 0 0 1-.804-.048 3.698 3.698 0 0 1-.612-.132 2.214 2.214 0 0 1-.432-.168 2.008 2.008 0 0 1-.3-.168v-.948c.128.072.26.136.396.192a3.534 3.534 0 0 0 1.032.276c.216.032.46.048.732.048.768 0 1.304-.144 1.608-.432.304-.288.456-.716.456-1.284v-.96a2.265 2.265 0 0 1-.78.888c-.328.224-.736.336-1.224.336-.368 0-.72-.064-1.056-.192a2.613 2.613 0 0 1-.876-.564 2.912 2.912 0 0 1-.6-.948c-.144-.384-.216-.828-.216-1.332 0-.512.072-.956.216-1.332.152-.384.352-.704.6-.96.256-.256.552-.448.888-.576a2.974 2.974 0 0 1 1.068-.192c.496 0 .912.112 1.248.336.344.224.612.528.804.912l.012-.132c0-.144.008-.316.024-.516.016-.208.032-.368.048-.48h.96a7.943 7.943 0 0 0-.048.48c-.008.208-.012.38-.012.516v4.704Zm-2.868-.672c.264 0 .504-.04.72-.12.224-.088.416-.22.576-.396.168-.176.296-.392.384-.648a2.7 2.7 0 0 0 .144-.924c0-.712-.176-1.244-.528-1.596-.344-.352-.78-.528-1.308-.528a2.08 2.08 0 0 0-.744.132c-.224.088-.42.22-.588.396-.16.176-.288.4-.384.672a2.7 2.7 0 0 0-.144.924c0 .352.048.66.144.924.096.256.228.472.396.648.168.168.364.296.588.384.232.088.48.132.744.132Zm-4.94-40.412a6 6 0 0 1 5.691 5.993v14l-.007.308a6.002 6.002 0 0 1-5.684 5.684l-.309.008h-14l-.308-.008a6.002 6.002 0 0 1-5.684-5.684l-.008-.308v-14a6 6 0 0 1 5.692-5.993l.308-.007h14l.309.007Zm-1.68 13.934a1 1 0 0 0-1.255-.082l-.074.058-5.649 4.841-.609.523-.641-.482-2.819-2.113a1 1 0 0 0-1.188-.009l-4.306 3.131a.825.825 0 0 1-.088.057v.135a4 4 0 0 0 4 4h14a4 4 0 0 0 4-4v-1.135a1.053 1.053 0 0 1-.099-.065l-.079-.066-5.193-4.793Zm-12.629-11.941a4 4 0 0 0-3.995 3.794l-.005.206v11.399l3.217-2.339.204-.137a3.001 3.001 0 0 1 3.361.163l2.176 1.632 5.04-4.32.224-.174a3.002 3.002 0 0 1 3.764.247l4.014 3.705v-10.176a4 4 0 0 0-4-4h-14Zm3.155 4.004a3 3 0 0 1 2.845 2.996l-.004.154a3 3 0 0 1-2.996 2.846l-.154-.004a3.001 3.001 0 0 1-2.842-2.842l-.004-.154a3 3 0 0 1 3-3l.155.004Zm-.155 1.996a1 1 0 1 0 0 2 1 1 0 0 0 0-2Zm34.845 29.191-.864-1.5-.852 1.5-.804-.588 1.164-1.272-1.692-.36.3-.936 1.572.708-.18-1.728h.984l-.18 1.728 1.56-.708.312.936-1.692.36 1.164 1.272-.792.588Zm3.244 4.5a.763.763 0 0 1-.564-.216.759.759 0 0 1-.216-.54c0-.224.072-.408.216-.552a.763.763 0 0 1 .564-.216c.224 0 .408.072.552.216a.748.748 0 0 1 .216.552.759.759 0 0 1-.216.54.748.748 0 0 1-.552.216Zm5.427.048c-.48 0-.896-.112-1.248-.336a2.444 2.444 0 0 1-.828-.924v3.264h-1.056v-8.352h.924l.108 1.212c.208-.408.488-.732.84-.972s.788-.36 1.308-.36c.36 0 .704.068 1.032.204.336.128.628.328.876.6.256.264.456.6.6 1.008.152.4.228.872.228 1.416 0 .552-.076 1.032-.228 1.44a3.01 3.01 0 0 1-.612 1.008 2.566 2.566 0 0 1-.888.6 2.941 2.941 0 0 1-1.056.192Zm-.156-.948c.552 0 .996-.188 1.332-.564.344-.384.516-.96.516-1.728 0-.752-.172-1.32-.516-1.704-.336-.392-.78-.588-1.332-.588-.272 0-.528.048-.768.144a1.71 1.71 0 0 0-.612.432c-.168.184-.304.42-.408.708a3.191 3.191 0 0 0-.144 1.008c0 .384.048.72.144 1.008.104.288.24.528.408.72.176.192.38.336.612.432.24.088.496.132.768.132Zm7.171-4.584c-.48 0-.872.112-1.176.336a2.455 2.455 0 0 0-.72.84v4.236h-1.056v-6.228h.996l.036 1.116h.024c.168-.36.432-.656.792-.888.36-.232.816-.348 1.368-.348.616 0 1.104.164 1.464.492.368.32.552.816.552 1.488v4.368h-1.056v-4.26c0-.432-.108-.732-.324-.9-.216-.168-.516-.252-.9-.252Zm9.303 4.884c0 .4-.06.764-.18 1.092a1.97 1.97 0 0 1-.552.852c-.248.232-.572.412-.972.54-.392.128-.868.192-1.428.192a5.95 5.95 0 0 1-.804-.048 3.698 3.698 0 0 1-.612-.132 2.214 2.214 0 0 1-.432-.168 2.008 2.008 0 0 1-.3-.168v-.948c.128.072.26.136.396.192a3.534 3.534 0 0 0 1.032.276c.216.032.46.048.732.048.768 0 1.304-.144 1.608-.432.304-.288.456-.716.456-1.284v-.96a2.265 2.265 0 0 1-.78.888c-.328.224-.736.336-1.224.336-.368 0-.72-.064-1.056-.192a2.613 2.613 0 0 1-.876-.564 2.912 2.912 0 0 1-.6-.948c-.144-.384-.216-.828-.216-1.332 0-.512.072-.956.216-1.332.152-.384.352-.704.6-.96.256-.256.552-.448.888-.576a2.974 2.974 0 0 1 1.068-.192c.496 0 .912.112 1.248.336.344.224.612.528.804.912l.012-.132c0-.144.008-.316.024-.516.016-.208.032-.368.048-.48h.96a7.943 7.943 0 0 0-.048.48c-.008.208-.012.38-.012.516v4.704Zm-2.868-.672c.264 0 .504-.04.72-.12.224-.088.416-.22.576-.396.168-.176.296-.392.384-.648a2.7 2.7 0 0 0 .144-.924c0-.712-.176-1.244-.528-1.596-.344-.352-.78-.528-1.308-.528a2.08 2.08 0 0 0-.744.132c-.224.088-.42.22-.588.396-.16.176-.288.4-.384.672a2.7 2.7 0 0 0-.144.924c0 .352.048.66.144.924.096.256.228.472.396.648.168.168.364.296.588.384.232.088.48.132.744.132Zm-3.657-40.412a6 6 0 0 1 5.691 5.993v14l-.007.308a6.002 6.002 0 0 1-5.684 5.684l-.309.008h-14l-.308-.008a6.002 6.002 0 0 1-5.684-5.684l-.008-.308v-14a6 6 0 0 1 5.692-5.993l.308-.007h14l.309.007Zm-1.68 13.934a1 1 0 0 0-1.255-.082l-.074.058-5.649 4.841-.609.523-.641-.482-2.819-2.113a1 1 0 0 0-1.188-.009l-4.306 3.131a.825.825 0 0 1-.088.057v.135a4 4 0 0 0 4 4h14a4 4 0 0 0 4-4v-1.135a1.053 1.053 0 0 1-.099-.065l-.079-.066-5.193-4.793Zm-12.629-11.941a4 4 0 0 0-3.995 3.794l-.005.206v11.399l3.217-2.339.204-.137a3.001 3.001 0 0 1 3.361.163l2.176 1.632 5.04-4.32.224-.174a3.002 3.002 0 0 1 3.764.247l4.014 3.705v-10.176a4 4 0 0 0-4-4h-14Zm3.155 4.004a3 3 0 0 1 2.845 2.996l-.004.154a3 3 0 0 1-2.996 2.846l-.154-.004a3.001 3.001 0 0 1-2.842-2.842l-.004-.154a3 3 0 0 1 3-3l.155.004Zm-.155 1.996a1 1 0 1 0 0 2 1 1 0 0 0 0-2Zm35.999 29.191-.864-1.5-.852 1.5-.804-.588 1.164-1.272-1.692-.36.3-.936 1.572.708-.18-1.728h.984l-.18 1.728 1.56-.708.312.936-1.692.36 1.164 1.272-.792.588Zm3.244 4.5a.763.763 0 0 1-.564-.216.759.759 0 0 1-.216-.54c0-.224.072-.408.216-.552a.763.763 0 0 1 .564-.216c.224 0 .408.072.552.216a.748.748 0 0 1 .216.552.759.759 0 0 1-.216.54.748.748 0 0 1-.552.216Zm5.427.048c-.48 0-.896-.112-1.248-.336a2.444 2.444 0 0 1-.828-.924v3.264h-1.056v-8.352h.924l.108 1.212c.208-.408.488-.732.84-.972s.788-.36 1.308-.36c.36 0 .704.068 1.032.204.336.128.628.328.876.6.256.264.456.6.6 1.008.152.4.228.872.228 1.416 0 .552-.076 1.032-.228 1.44a3.01 3.01 0 0 1-.612 1.008 2.566 2.566 0 0 1-.888.6 2.941 2.941 0 0 1-1.056.192Zm-.156-.948c.552 0 .996-.188 1.332-.564.344-.384.516-.96.516-1.728 0-.752-.172-1.32-.516-1.704-.336-.392-.78-.588-1.332-.588-.272 0-.528.048-.768.144a1.71 1.71 0 0 0-.612.432c-.168.184-.304.42-.408.708a3.191 3.191 0 0 0-.144 1.008c0 .384.048.72.144 1.008.104.288.24.528.408.72.176.192.38.336.612.432.24.088.496.132.768.132Zm8.683-.396c-.192.408-.46.736-.804.984-.344.24-.78.36-1.308.36-.376 0-.732-.064-1.068-.192a2.566 2.566 0 0 1-.888-.6 3.01 3.01 0 0 1-.612-1.008c-.152-.408-.228-.888-.228-1.44 0-.544.076-1.016.228-1.416.152-.408.356-.744.612-1.008.256-.272.552-.472.888-.6a2.911 2.911 0 0 1 1.08-.204c.472 0 .88.1 1.224.3.344.192.62.468.828.828v-3.384h1.056v8.604h-.924l-.084-1.224Zm-1.956.396c.272 0 .524-.044.756-.132.232-.096.432-.24.6-.432.176-.192.312-.432.408-.72.104-.288.156-.624.156-1.008s-.052-.72-.156-1.008a1.971 1.971 0 0 0-.408-.72 1.49 1.49 0 0 0-.6-.42 1.958 1.958 0 0 0-.756-.144c-.552 0-1.004.196-1.356.588-.344.384-.516.952-.516 1.704 0 .76.176 1.332.528 1.716.352.384.8.576 1.344.576Zm6.116-4.5v5.328h-1.056v-5.328h-.756v-.9h.756v-.156c0-.736.196-1.308.588-1.716.392-.408.928-.612 1.608-.612.296 0 .56.036.792.108v.96a1.406 1.406 0 0 0-.312-.084 2.484 2.484 0 0 0-.432-.036c-.368 0-.66.112-.876.336-.208.224-.312.572-.312 1.044v.156h1.8v.9h-1.8Zm-4.048-35.665a6 6 0 0 1 5.691 5.993v14l-.007.308a6.002 6.002 0 0 1-5.684 5.684l-.309.008h-14l-.308-.008a6.002 6.002 0 0 1-5.684-5.684l-.008-.308v-14a6 6 0 0 1 5.692-5.993l.308-.007h14l.309.007Zm-1.68 13.934a1 1 0 0 0-1.255-.082l-.074.058-5.649 4.841-.609.523-.641-.482-2.819-2.113a1 1 0 0 0-1.188-.009l-4.306 3.131c-.028.021-.058.039-.088.057v.135a4 4 0 0 0 4 4h14a4 4 0 0 0 4-4v-1.135a1.053 1.053 0 0 1-.099-.065l-.079-.066-5.193-4.793Zm-12.629-11.941a4 4 0 0 0-3.995 3.793l-.005.207v11.399l3.217-2.339.204-.137a3.003 3.003 0 0 1 3.361.162l2.176 1.633 5.04-4.32.224-.174a3.002 3.002 0 0 1 3.764.247l4.014 3.705v-10.176a4 4 0 0 0-4-4h-14Zm3.155 4.003a3 3 0 0 1 2.845 2.997l-.004.154a3 3 0 0 1-2.996 2.846l-.154-.004a3.001 3.001 0 0 1-2.842-2.842l-.004-.154a3 3 0 0 1 3-3l.155.003Zm-.155 1.997a1 1 0 1 0 0 2 1 1 0 0 0 0-2ZM442.01 91.895a7.01 7.01 0 0 1-1.232-.098 5.908 5.908 0 0 1-.966-.224 5.003 5.003 0 0 1-.7-.322 2.805 2.805 0 0 1-.448-.35v-1.26c.14.121.322.247.546.378.224.121.481.233.77.336.299.103.616.187.952.252a5.74 5.74 0 0 0 1.078.098c.728 0 1.307-.135 1.736-.406.43-.28.644-.7.644-1.26 0-.28-.051-.508-.154-.686a1.244 1.244 0 0 0-.448-.462 2.607 2.607 0 0 0-.742-.322c-.289-.093-.63-.191-1.022-.294-.392-.103-.784-.22-1.176-.35a4.34 4.34 0 0 1-1.064-.518 2.62 2.62 0 0 1-.756-.812c-.186-.326-.28-.742-.28-1.246 0-.868.304-1.544.91-2.03.607-.485 1.536-.728 2.786-.728.364 0 .686.024.966.07.29.037.542.089.756.154.224.056.416.121.574.196.168.075.318.145.448.21v1.26a3.924 3.924 0 0 0-1.274-.532 6.055 6.055 0 0 0-1.47-.168c-.448 0-.826.037-1.134.112a2.022 2.022 0 0 0-.728.294c-.186.13-.322.29-.406.476a1.52 1.52 0 0 0-.126.63c0 .28.061.513.182.7.131.187.299.346.504.476.215.122.458.224.728.308.271.084.556.159.854.224.392.093.794.2 1.204.322.411.122.78.29 1.106.504.327.215.593.495.798.84.215.336.322.775.322 1.316 0 .532-.107.985-.322 1.358a2.61 2.61 0 0 1-.826.896 3.494 3.494 0 0 1-1.19.504 6.243 6.243 0 0 1-1.4.154Zm11.086-.756a3.979 3.979 0 0 1-.924.49 4.593 4.593 0 0 1-.728.182 4.51 4.51 0 0 1-.91.084c-1.223 0-2.151-.331-2.786-.994-.635-.662-.952-1.591-.952-2.786 0-.588.084-1.115.252-1.582a3.39 3.39 0 0 1 .728-1.176 3.03 3.03 0 0 1 1.092-.742 3.49 3.49 0 0 1 1.372-.266 3.5 3.5 0 0 1 1.4.266 2.47 2.47 0 0 1 1.008.784c.271.346.453.775.546 1.288.103.504.103 1.092 0 1.764h-5.124c.047.784.28 1.372.7 1.764.42.383 1.045.574 1.876.574.56 0 1.041-.08 1.442-.238a5.064 5.064 0 0 0 1.008-.518v1.106Zm-2.884-5.698c-.532 0-.989.163-1.372.49-.383.327-.625.822-.728 1.484h3.906c.037-.672-.117-1.166-.462-1.484-.345-.326-.793-.49-1.344-.49Zm8.124.28a3.779 3.779 0 0 0-1.428.406c-.42.215-.733.55-.938 1.008v4.62h-1.232V84.49h1.078l.126 1.582h.028c.205-.43.499-.802.882-1.12.392-.326.886-.527 1.484-.602v1.372Zm5.318 6.034h-1.988l-2.492-7.266h1.33l2.212 6.608 2.198-6.608h1.232l-2.492 7.266Zm9.28-.616a3.979 3.979 0 0 1-.924.49 4.62 4.62 0 0 1-.728.182 4.51 4.51 0 0 1-.91.084c-1.223 0-2.152-.331-2.786-.994-.635-.662-.952-1.591-.952-2.786 0-.588.084-1.115.252-1.582a3.39 3.39 0 0 1 .728-1.176 3.03 3.03 0 0 1 1.092-.742 3.49 3.49 0 0 1 1.372-.266c.522 0 .989.089 1.4.266.41.178.746.439 1.008.784.27.346.452.775.546 1.288.102.504.102 1.092 0 1.764h-5.124c.046.784.28 1.372.7 1.764.42.383 1.045.574 1.876.574.56 0 1.04-.08 1.442-.238a5.064 5.064 0 0 0 1.008-.518v1.106Zm-2.884-5.698c-.532 0-.99.163-1.372.49-.383.327-.626.822-.728 1.484h3.906c.037-.672-.117-1.166-.462-1.484-.346-.326-.794-.49-1.344-.49Zm8.124.28a3.779 3.779 0 0 0-1.428.406c-.42.215-.733.55-.938 1.008v4.62h-1.232V84.49h1.078l.126 1.582h.028c.205-.43.499-.802.882-1.12.392-.326.886-.527 1.484-.602v1.372Zm2.733-4.004v10.038h-1.232V81.717h1.232Zm7.79 9.422a3.738 3.738 0 0 1-.378.238 4.34 4.34 0 0 1-.546.252 4.566 4.566 0 0 1-.728.182c-.27.056-.574.084-.91.084-1.222 0-2.151-.331-2.786-.994-.634-.662-.952-1.591-.952-2.786 0-.588.084-1.115.252-1.582.178-.466.42-.859.728-1.176a3.03 3.03 0 0 1 1.092-.742 3.5 3.5 0 0 1 1.372-.266c.523 0 .99.089 1.4.266a2.47 2.47 0 0 1 1.008.784c.271.346.453.775.546 1.288.103.504.103 1.092 0 1.764h-5.124c.047.784.28 1.372.7 1.764.42.383 1.046.574 1.876.574.56 0 1.041-.08 1.442-.238a5.01 5.01 0 0 0 1.008-.518v1.106Zm-2.884-5.698c-.532 0-.989.163-1.372.49-.382.327-.625.822-.728 1.484h3.906c.038-.672-.116-1.166-.462-1.484-.345-.326-.793-.49-1.344-.49Zm6.85 6.454a4.81 4.81 0 0 1-1.022-.098 4.808 4.808 0 0 1-.77-.21 4.27 4.27 0 0 1-.546-.28 3.715 3.715 0 0 1-.35-.266v-1.106c.094.093.22.196.378.308.159.103.35.2.574.294a4.8 4.8 0 0 0 .756.238c.29.056.612.084.966.084.523 0 .938-.084 1.246-.252.308-.168.462-.453.462-.854 0-.215-.051-.387-.154-.518a.933.933 0 0 0-.392-.308 2.416 2.416 0 0 0-.588-.196 28.637 28.637 0 0 0-.686-.14 26 26 0 0 1-.91-.21 3.199 3.199 0 0 1-.812-.35 1.918 1.918 0 0 1-.588-.602c-.149-.252-.224-.579-.224-.98 0-.653.252-1.166.756-1.54.514-.373 1.228-.56 2.142-.56.514 0 .966.051 1.358.154.402.103.71.215.924.336v1.106a3.29 3.29 0 0 0-.91-.392c-.354-.112-.798-.168-1.33-.168-.55 0-.975.075-1.274.224-.289.15-.434.42-.434.812a.82.82 0 0 0 .126.476.998.998 0 0 0 .336.28c.15.066.318.117.504.154.187.037.383.08.588.126.318.066.644.136.98.21.336.075.635.192.896.35.271.159.49.374.658.644.178.261.266.616.266 1.064 0 .42-.084.77-.252 1.05a1.93 1.93 0 0 1-.672.672c-.27.159-.583.27-.938.336-.345.075-.7.112-1.064.112Zm6.768 0c-.383 0-.724-.032-1.022-.098a4.78 4.78 0 0 1-.77-.21 4.14 4.14 0 0 1-.546-.28 3.587 3.587 0 0 1-.35-.266v-1.106c.093.093.219.196.378.308.158.103.35.2.574.294a4.8 4.8 0 0 0 .756.238c.289.056.611.084.966.084.522 0 .938-.084 1.246-.252.308-.168.462-.453.462-.854 0-.215-.052-.387-.154-.518a.94.94 0 0 0-.392-.308 2.416 2.416 0 0 0-.588-.196 30.8 30.8 0 0 0-.686-.14 25.487 25.487 0 0 1-.91-.21c-.299-.084-.57-.2-.812-.35a1.897 1.897 0 0 1-.588-.602c-.15-.252-.224-.579-.224-.98 0-.653.252-1.166.756-1.54.513-.373 1.227-.56 2.142-.56.513 0 .966.051 1.358.154.401.103.709.215.924.336v1.106a3.302 3.302 0 0 0-.91-.392c-.355-.112-.798-.168-1.33-.168-.551 0-.976.075-1.274.224-.29.15-.434.42-.434.812a.82.82 0 0 0 .126.476.998.998 0 0 0 .336.28c.149.066.317.117.504.154.186.037.382.08.588.126.317.066.644.136.98.21.336.075.634.192.896.35.27.159.49.374.658.644.177.261.266.616.266 1.064 0 .42-.084.77-.252 1.05a1.93 1.93 0 0 1-.672.672c-.271.159-.584.27-.938.336-.346.075-.7.112-1.064.112Zm-54.335 16c-.747 0-1.424-.117-2.03-.35a4.425 4.425 0 0 1-1.568-1.008 4.597 4.597 0 0 1-.994-1.624c-.234-.644-.35-1.367-.35-2.17 0-.812.107-1.535.322-2.17a4.259 4.259 0 0 1 .952-1.61c.42-.448.933-.788 1.54-1.022.616-.233 1.316-.35 2.1-.35.681 0 1.278.075 1.792.224.513.14.933.308 1.26.504v1.26a4.653 4.653 0 0 0-1.456-.602 6.85 6.85 0 0 0-1.61-.196c-1.186 0-2.063.331-2.632.994-.56.653-.84 1.643-.84 2.968 0 1.335.303 2.329.91 2.982.616.653 1.521.98 2.716.98.513 0 1.012-.07 1.498-.21.494-.14.966-.378 1.414-.714v1.26c-.271.215-.668.411-1.19.588-.514.177-1.125.266-1.834.266Zm7.784 0c-.495 0-.957-.084-1.386-.252a3.233 3.233 0 0 1-1.12-.728 3.542 3.542 0 0 1-.728-1.19c-.177-.467-.266-1.003-.266-1.61 0-.597.089-1.129.266-1.596.177-.476.42-.873.728-1.19.317-.317.691-.56 1.12-.728a3.767 3.767 0 0 1 1.386-.252c.504 0 .971.084 1.4.252.429.168.798.411 1.106.728.317.317.565.714.742 1.19.187.467.28.999.28 1.596 0 .607-.093 1.143-.28 1.61a3.433 3.433 0 0 1-.742 1.19c-.308.317-.677.56-1.106.728a3.807 3.807 0 0 1-1.4.252Zm0-1.106a2.5 2.5 0 0 0 .896-.154 2.04 2.04 0 0 0 .728-.49c.205-.224.364-.504.476-.84.112-.336.168-.733.168-1.19 0-.457-.056-.854-.168-1.19a2.17 2.17 0 0 0-.476-.826 1.831 1.831 0 0 0-.728-.49 2.322 2.322 0 0 0-.896-.168c-.327 0-.625.056-.896.168a1.849 1.849 0 0 0-.714.49c-.196.215-.35.49-.462.826a3.775 3.775 0 0 0-.168 1.19c0 .457.056.854.168 1.19.112.336.266.616.462.84.205.215.443.378.714.49a2.5 2.5 0 0 0 .896.154Zm8.474-5.348c-.56 0-1.018.131-1.372.392a2.853 2.853 0 0 0-.84.98v4.942h-1.232v-7.266h1.162l.042 1.302h.028a2.46 2.46 0 0 1 .924-1.036c.42-.271.952-.406 1.596-.406.718 0 1.288.191 1.708.574.429.373.644.952.644 1.736v5.096h-1.232v-4.97c0-.504-.126-.854-.378-1.05-.252-.196-.602-.294-1.05-.294Zm8.164 6.16c-.149.084-.34.154-.574.21-.233.056-.48.084-.742.084-.354 0-.658-.051-.91-.154a1.77 1.77 0 0 1-.602-.406 1.737 1.737 0 0 1-.35-.588 2.452 2.452 0 0 1-.098-.686v-4.522h-.868v-1.05h.868v-1.526h1.232v1.526h2.114v1.05h-2.114v4.368c0 .308.075.532.224.672.159.14.434.21.826.21.364 0 .696-.103.994-.308v1.12Zm5.896-1.232a4.363 4.363 0 0 1-.322.532 2.444 2.444 0 0 1-1.19.854c-.262.093-.57.14-.924.14-.654 0-1.181-.182-1.582-.546-.402-.373-.602-.905-.602-1.596 0-.793.275-1.377.826-1.75.56-.373 1.353-.56 2.38-.56h1.358v-.602c0-.504-.131-.863-.392-1.078-.262-.215-.71-.322-1.344-.322a3.63 3.63 0 0 0-1.274.224c-.402.14-.761.303-1.078.49v-1.106a5.383 5.383 0 0 1 1.05-.462 4.367 4.367 0 0 1 1.47-.238c.914 0 1.61.191 2.086.574.476.373.714.957.714 1.75v4.2c.009.103.014.21.014.322.009.112.018.219.028.322.009.093.018.173.028.238h-1.12a6.439 6.439 0 0 1-.084-.546 8.21 8.21 0 0 1-.028-.63l-.014-.21Zm-2.17.42c.382 0 .709-.079.98-.238.27-.159.49-.341.658-.546.168-.215.289-.42.364-.616.074-.205.112-.35.112-.434v-.532h-1.232c-.738 0-1.274.107-1.61.322-.327.205-.49.518-.49.938 0 .327.098.593.294.798.196.205.504.308.924.308Zm5.913-7.364c-.252 0-.453-.075-.602-.224a.805.805 0 0 1-.224-.574c0-.224.074-.415.224-.574.149-.159.35-.238.602-.238.242 0 .434.08.574.238.14.159.21.35.21.574 0 .224-.07.416-.21.574-.14.15-.332.224-.574.224Zm.602 1.064v7.266h-1.232v-7.266h1.232Zm5.452.952c-.56 0-1.017.131-1.372.392a2.874 2.874 0 0 0-.84.98v4.942h-1.232v-7.266h1.162l.042 1.302h.028a2.46 2.46 0 0 1 .924-1.036c.42-.271.952-.406 1.596-.406.719 0 1.288.191 1.708.574.429.373.644.952.644 1.736v5.096h-1.232v-4.97c0-.504-.126-.854-.378-1.05-.252-.196-.602-.294-1.05-.294Zm10.391 5.698a3.919 3.919 0 0 1-.378.238c-.15.084-.332.168-.546.252a4.632 4.632 0 0 1-.728.182 4.51 4.51 0 0 1-.91.084c-1.223 0-2.152-.331-2.786-.994-.635-.663-.952-1.591-.952-2.786 0-.588.084-1.115.252-1.582.177-.467.42-.859.728-1.176a3.024 3.024 0 0 1 1.092-.742c.42-.177.877-.266 1.372-.266.522 0 .989.089 1.4.266.41.177.746.439 1.008.784.27.345.452.775.546 1.288.102.504.102 1.092 0 1.764h-5.124c.046.784.28 1.372.7 1.764.42.383 1.045.574 1.876.574.56 0 1.04-.079 1.442-.238a5.07 5.07 0 0 0 1.008-.518v1.106Zm-2.884-5.698c-.532 0-.99.163-1.372.49-.383.327-.626.821-.728 1.484h3.906c.037-.672-.117-1.167-.462-1.484-.346-.327-.794-.49-1.344-.49Zm8.124.28a3.784 3.784 0 0 0-1.428.406c-.42.215-.733.551-.938 1.008v4.62h-1.232v-7.266h1.078l.126 1.582h.028c.205-.429.499-.803.882-1.12.392-.327.886-.527 1.484-.602v1.372Z"/>
    <rect width="32" height="32" x="454.45" y="43.28" fill="#5282FF" rx="16"/>
    <path fill="#fff" fill-rule="evenodd" d="M462.45 61.28c0-1.653 1.345-3 3-3 .073 0 .145 0 .217.014a3.749 3.749 0 0 1 3.533-5.014c.082 0 1.165 0 1.247.013V64.28h-4.996a3.005 3.005 0 0 1-3.001-3Zm8.998 3v-3h3v3h-3Zm4 0v-3h3v3h-3Zm-3.998-4v-3h3v3h-3Zm4 0v-3h3v3h-3Zm-4.003-4v-2.998h3v3l-3-.002Z" clip-rule="evenodd"/>
    <path fill="#000" d="M192.254 89.717h1.33v6.608c0 .812.229 1.414.686 1.806.467.392 1.101.588 1.904.588.392 0 .751-.046 1.078-.14.336-.102.625-.252.868-.448.243-.205.429-.457.56-.756.14-.299.21-.648.21-1.05v-6.608h1.26v6.566c0 .579-.103 1.092-.308 1.54a3.22 3.22 0 0 1-.854 1.134 3.61 3.61 0 0 1-1.26.7 5.063 5.063 0 0 1-1.582.238 5.115 5.115 0 0 1-1.54-.224A3.57 3.57 0 0 1 193.36 99a3.129 3.129 0 0 1-.812-1.106c-.196-.448-.294-.966-.294-1.554v-6.622Zm12.087 10.178a4.81 4.81 0 0 1-1.022-.098 4.808 4.808 0 0 1-.77-.21 4.27 4.27 0 0 1-.546-.28 3.715 3.715 0 0 1-.35-.266v-1.106c.094.093.22.196.378.308.159.103.35.2.574.294a4.8 4.8 0 0 0 .756.238c.29.056.612.084.966.084.523 0 .938-.084 1.246-.252.308-.168.462-.453.462-.854 0-.215-.051-.387-.154-.518a.933.933 0 0 0-.392-.308 2.416 2.416 0 0 0-.588-.196 28.637 28.637 0 0 0-.686-.14 26 26 0 0 1-.91-.21 3.199 3.199 0 0 1-.812-.35 1.918 1.918 0 0 1-.588-.602c-.149-.252-.224-.579-.224-.98 0-.653.252-1.166.756-1.54.514-.373 1.228-.56 2.142-.56.514 0 .966.051 1.358.154.402.103.71.215.924.336v1.106a3.29 3.29 0 0 0-.91-.392c-.354-.112-.798-.168-1.33-.168-.55 0-.975.075-1.274.224-.289.15-.434.42-.434.812a.82.82 0 0 0 .126.476.998.998 0 0 0 .336.28c.15.066.318.117.504.154.187.037.383.08.588.126.318.066.644.136.98.21.336.075.635.192.896.35.271.159.49.374.658.644.178.261.266.616.266 1.064 0 .42-.084.77-.252 1.05a1.93 1.93 0 0 1-.672.672c-.27.159-.583.27-.938.336-.345.075-.7.112-1.064.112Zm10.226-.756a3.979 3.979 0 0 1-.924.49 4.593 4.593 0 0 1-.728.182 4.51 4.51 0 0 1-.91.084c-1.223 0-2.151-.331-2.786-.994-.635-.662-.952-1.591-.952-2.786 0-.588.084-1.115.252-1.582a3.39 3.39 0 0 1 .728-1.176 3.03 3.03 0 0 1 1.092-.742 3.49 3.49 0 0 1 1.372-.266 3.5 3.5 0 0 1 1.4.266 2.47 2.47 0 0 1 1.008.784c.271.346.453.775.546 1.288.103.504.103 1.092 0 1.764h-5.124c.047.784.28 1.372.7 1.764.42.383 1.045.574 1.876.574.56 0 1.041-.08 1.442-.238a5.064 5.064 0 0 0 1.008-.518v1.106Zm-2.884-5.698c-.532 0-.989.163-1.372.49-.383.327-.625.822-.728 1.484h3.906c.037-.672-.117-1.166-.462-1.484-.345-.326-.793-.49-1.344-.49Zm8.124.28a3.779 3.779 0 0 0-1.428.406c-.42.215-.733.55-.938 1.008v4.62h-1.232V92.49h1.078l.126 1.582h.028c.205-.43.499-.802.882-1.12.392-.326.886-.527 1.484-.602v1.372Zm-13.281-25.429c7.37.238 13.282 4.113 13.282 7.988l-.006.257a5 5 0 0 1-4.994 4.743h-18l-.256-.007a5 5 0 0 1-4.737-4.736l-.007-.257c0-4 6.3-8 14-8l.718.012Zm-.718 1.988c-3.523 0-6.667.92-8.87 2.222-2.311 1.366-3.13 2.839-3.13 3.778a3 3 0 0 0 3 3h18a3 3 0 0 0 3-3c0-.94-.818-2.412-3.13-3.778-2.203-1.302-5.346-2.222-8.87-2.222Zm.361-16.99a7 7 0 0 1 6.639 6.99l-.008.36a7.002 7.002 0 0 1-6.992 6.64l-.36-.008a7.002 7.002 0 0 1-6.631-6.631l-.009-.36a7 7 0 0 1 7-7l.361.008Zm-.361 1.99a5 5 0 1 0 0 10 5 5 0 0 0 0-10Z"/>
    <rect width="166.989" height="303.7" x="526.885" y="163.407" fill="#fff" stroke="#5282FF" stroke-width="2" rx="11"/>
    <g filter="url(#filter1_d_5054_9167)">
        <rect width="138.528" height="203.16" x="541.115" y="249.39" fill="#fff" rx="12"/>
    </g>
    <path fill="#000" d="M588.007 367.579h-1.764l-3-8.604h1.176l2.748 7.92 2.748-7.92h1.08l-2.988 8.604Zm4.569-7.14c-.216 0-.388-.064-.516-.192a.692.692 0 0 1-.192-.492.675.675 0 0 1 .708-.696c.208 0 .372.068.492.204.12.136.18.3.18.492s-.06.356-.18.492c-.12.128-.284.192-.492.192Zm.516.912v6.228h-1.056v-6.228h1.056Zm3.714 6.348c-.328 0-.62-.028-.876-.084a4.113 4.113 0 0 1-.66-.18c-.184-.08-.34-.16-.468-.24a3.161 3.161 0 0 1-.3-.228v-.948c.08.08.188.168.324.264.136.088.3.172.492.252.192.08.408.148.648.204.248.048.524.072.828.072.448 0 .804-.072 1.068-.216.264-.144.396-.388.396-.732a.698.698 0 0 0-.132-.444.801.801 0 0 0-.336-.264 2.07 2.07 0 0 0-.504-.168c-.184-.04-.38-.08-.588-.12a22.265 22.265 0 0 1-.78-.18 2.73 2.73 0 0 1-.696-.3 1.633 1.633 0 0 1-.504-.516c-.128-.216-.192-.496-.192-.84 0-.56.216-1 .648-1.32.44-.32 1.052-.48 1.836-.48.44 0 .828.044 1.164.132.344.088.608.184.792.288v.948a2.824 2.824 0 0 0-.78-.336c-.304-.096-.684-.144-1.14-.144-.472 0-.836.064-1.092.192-.248.128-.372.36-.372.696 0 .168.036.304.108.408a.856.856 0 0 0 .288.24c.128.056.272.1.432.132.16.032.328.068.504.108.272.056.552.116.84.18.288.064.544.164.768.3.232.136.42.32.564.552.152.224.228.528.228.912 0 .36-.072.66-.216.9-.144.24-.336.432-.576.576-.232.136-.5.232-.804.288-.296.064-.6.096-.912.096Zm4.348-7.26c-.216 0-.388-.064-.516-.192a.692.692 0 0 1-.192-.492.675.675 0 0 1 .708-.696c.208 0 .372.068.492.204.12.136.18.3.18.492s-.06.356-.18.492c-.12.128-.284.192-.492.192Zm.516.912v6.228h-1.056v-6.228h1.056Zm4.278 6.348c-.424 0-.82-.072-1.188-.216a2.767 2.767 0 0 1-.96-.624 3.04 3.04 0 0 1-.624-1.02c-.152-.4-.228-.86-.228-1.38 0-.512.076-.968.228-1.368a2.89 2.89 0 0 1 .624-1.02c.272-.272.592-.48.96-.624a3.231 3.231 0 0 1 1.188-.216c.432 0 .832.072 1.2.216.368.144.684.352.948.624.272.272.484.612.636 1.02.16.4.24.856.24 1.368 0 .52-.08.98-.24 1.38-.152.4-.364.74-.636 1.02-.264.272-.58.48-.948.624a3.265 3.265 0 0 1-1.2.216Zm0-.948c.28 0 .536-.044.768-.132.24-.096.448-.236.624-.42.176-.192.312-.432.408-.72.096-.288.144-.628.144-1.02s-.048-.732-.144-1.02a1.855 1.855 0 0 0-.408-.708 1.569 1.569 0 0 0-.624-.42 1.99 1.99 0 0 0-.768-.144c-.28 0-.536.048-.768.144a1.586 1.586 0 0 0-.612.42c-.168.184-.3.42-.396.708a3.234 3.234 0 0 0-.144 1.02c0 .392.048.732.144 1.02.096.288.228.528.396.72.176.184.38.324.612.42.232.088.488.132.768.132Zm7.263-4.584c-.48 0-.872.112-1.176.336a2.455 2.455 0 0 0-.72.84v4.236h-1.056v-6.228h.996l.036 1.116h.024c.168-.36.432-.656.792-.888.36-.232.816-.348 1.368-.348.616 0 1.104.164 1.464.492.368.32.552.816.552 1.488v4.368h-1.056v-4.26c0-.432-.108-.732-.324-.9-.216-.168-.516-.252-.9-.252Zm9.023-3.192h1.68l3.084 8.604h-1.2l-.888-2.46h-3.804l-.876 2.46h-1.056l3.06-8.604Zm2.316 5.124-1.536-4.284-1.536 4.284h3.072Zm3.701-5.124h2.748c.976 0 1.732.204 2.268.612.544.4.816 1.028.816 1.884 0 .488-.08.908-.24 1.26a2.22 2.22 0 0 1-.648.852c-.28.224-.616.388-1.008.492a4.91 4.91 0 0 1-1.284.156h-1.524v3.348h-1.128v-8.604Zm1.128 1.032v3.204h1.524c.304 0 .58-.032.828-.096s.46-.164.636-.3a1.3 1.3 0 0 0 .42-.528c.104-.224.156-.492.156-.804 0-.52-.168-.896-.504-1.128-.336-.232-.816-.348-1.44-.348h-1.62Zm7.324-1.032v8.604h-1.128v-8.604h1.128Z"/>
    <rect width="32" height="32" x="594.379" y="319.104" fill="#5282FF" rx="16"/>
    <path fill="#fff" d="m602.435 339.104 2.084-9.002h2.207l2.077 9.001h-1.816l-.363-1.945h-1.995l-.377 1.945h-.904l-.913.001Zm3.203-7.318-.76 4.031h1.505l-.744-4.03-.001-.001Zm4.1 7.318v-9.002h2.252c1.044 0 1.788.204 2.233.612.445.408.668 1.09.668 2.048 0 1.084-.224 1.815-.675 2.191-.449.376-1.321.564-2.616.564h-.253v3.587h-1.609Zm3.224-5.214c.177-.182.266-.55.266-1.102 0-.516-.092-.866-.276-1.053-.185-.188-.533-.28-1.046-.28h-.559v2.71h.559c.526 0 .878-.09 1.056-.275Zm3.417 5.214v-9.002h1.792v9.001h-.892l-.9.001Z"/>
    <path fill="#000" d="M596.761 228.573h-2.058l-3.5-10.038h1.372l3.206 9.24 3.206-9.24h1.26l-3.486 10.038Zm5.33-8.33c-.252 0-.452-.075-.602-.224a.81.81 0 0 1-.224-.574c0-.224.075-.416.224-.574.15-.159.35-.238.602-.238.243 0 .434.079.574.238.14.158.21.35.21.574 0 .224-.07.415-.21.574-.14.149-.331.224-.574.224Zm.602 1.064v7.266h-1.232v-7.266h1.232Zm4.333 7.406c-.383 0-.724-.033-1.022-.098a4.78 4.78 0 0 1-.77-.21 4.277 4.277 0 0 1-.546-.28 3.772 3.772 0 0 1-.35-.266v-1.106c.093.093.219.196.378.308.158.102.35.2.574.294.224.093.476.172.756.238.289.056.611.084.966.084.522 0 .938-.084 1.246-.252.308-.168.462-.453.462-.854 0-.215-.052-.388-.154-.518a.93.93 0 0 0-.392-.308 2.386 2.386 0 0 0-.588-.196 25.597 25.597 0 0 0-.686-.14 28.947 28.947 0 0 1-.91-.21 3.182 3.182 0 0 1-.812-.35 1.908 1.908 0 0 1-.588-.602c-.15-.252-.224-.579-.224-.98 0-.654.252-1.167.756-1.54.513-.374 1.227-.56 2.142-.56.513 0 .966.051 1.358.154.401.102.709.214.924.336v1.106a3.27 3.27 0 0 0-.91-.392c-.355-.112-.798-.168-1.33-.168-.551 0-.976.074-1.274.224-.29.149-.434.42-.434.812 0 .196.042.354.126.476.084.112.196.205.336.28.149.065.317.116.504.154.186.037.382.079.588.126.317.065.644.135.98.21.336.074.634.191.896.35.27.158.49.373.658.644.177.261.266.616.266 1.064 0 .42-.084.77-.252 1.05a1.93 1.93 0 0 1-.672.672c-.271.158-.584.27-.938.336-.346.074-.7.112-1.064.112Zm5.073-8.47c-.252 0-.452-.075-.602-.224a.81.81 0 0 1-.224-.574c0-.224.075-.416.224-.574.15-.159.35-.238.602-.238.243 0 .434.079.574.238.14.158.21.35.21.574 0 .224-.07.415-.21.574-.14.149-.331.224-.574.224Zm.602 1.064v7.266h-1.232v-7.266h1.232Zm4.99 7.406c-.494 0-.956-.084-1.386-.252a3.242 3.242 0 0 1-1.12-.728 3.568 3.568 0 0 1-.728-1.19c-.177-.467-.266-1.004-.266-1.61 0-.598.089-1.13.266-1.596.178-.476.42-.873.728-1.19.318-.318.691-.56 1.12-.728.43-.168.892-.252 1.386-.252.504 0 .971.084 1.4.252.43.168.798.41 1.106.728.318.317.565.714.742 1.19.187.466.28.998.28 1.596 0 .606-.093 1.143-.28 1.61a3.428 3.428 0 0 1-.742 1.19c-.308.317-.676.56-1.106.728a3.807 3.807 0 0 1-1.4.252Zm0-1.106c.327 0 .626-.052.896-.154.28-.112.523-.276.728-.49a2.29 2.29 0 0 0 .476-.84c.112-.336.168-.733.168-1.19a3.77 3.77 0 0 0-.168-1.19 2.15 2.15 0 0 0-.476-.826 1.82 1.82 0 0 0-.728-.49 2.318 2.318 0 0 0-.896-.168c-.326 0-.625.056-.896.168-.27.102-.508.266-.714.49-.196.214-.35.49-.462.826a3.77 3.77 0 0 0-.168 1.19c0 .457.056.854.168 1.19.112.336.266.616.462.84a2.1 2.1 0 0 0 .714.49c.271.102.57.154.896.154Zm8.474-5.348c-.56 0-1.017.13-1.372.392a2.865 2.865 0 0 0-.84.98v4.942h-1.232v-7.266h1.162l.042 1.302h.028c.196-.42.504-.766.924-1.036.42-.271.952-.406 1.596-.406.719 0 1.288.191 1.708.574.43.373.644.952.644 1.736v5.096h-1.232v-4.97c0-.504-.126-.854-.378-1.05-.252-.196-.602-.294-1.05-.294Z"/>
    <rect width="32" height="32" x="594.379" y="180.098" fill="#5282FF" rx="16"/>
    <path fill="#fff" d="m618.089 195.391-3.497-3.527a5.902 5.902 0 0 0-4.213-1.766 5.902 5.902 0 0 0-4.213 1.766l-3.497 3.527a1.006 1.006 0 0 0 0 1.414l3.505 3.536a5.905 5.905 0 0 0 4.205 1.757 5.905 5.905 0 0 0 4.205-1.757l3.505-3.536a1.006 1.006 0 0 0 0-1.414Zm-7.71 4.707c-2.206 0-4-1.794-4-4s1.794-4 4-4 4 1.794 4 4-1.794 4-4 4Zm2-3.999-2 2-2-2 2-2 2 2Z"/>
    <path fill="#4E496B" d="m114.45 398.338-10 5.773v-11.547l10 5.774Zm-25 0v-1h16v2h-16v-1Zm-9-9h-1v-85h2v85h-1Zm9 9v1c-5.522 0-10-4.478-10-10h2a8 8 0 0 0 8 8v1Z"/>
    <circle cx="645.545" cy="279.372" r="11.086" fill="#FF5958"/>
    <circle cx="470.45" cy="291.226" r="11.086" fill="#5282FF"/>
    <path fill="#fff" d="M471.928 293.697v2.38h-1.232v-2.38h-4.34v-.868l3.92-6.79h1.652v6.594h1.358v1.064h-1.358Zm-1.232-1.064v-5.222l-3.066 5.222h3.066Z"/>
    <circle cx="181.45" cy="379.341" r="11.086" fill="#FF5958"/>
    <path fill="#fff" d="M182.928 381.812v2.38h-1.232v-2.38h-4.34v-.868l3.92-6.79h1.652v6.594h1.358v1.064h-1.358Zm-1.232-1.064v-5.222l-3.066 5.222h3.066Zm467.168-98.95c0 .467-.089.887-.266 1.26a2.889 2.889 0 0 1-.742.966 3.377 3.377 0 0 1-1.134.602c-.439.14-.924.21-1.456.21-.653 0-1.218-.079-1.694-.238-.476-.159-.863-.364-1.162-.616v-1.4c.299.299.691.56 1.176.784.485.215 1.05.322 1.694.322.691 0 1.232-.163 1.624-.49.401-.327.602-.784.602-1.372 0-.56-.177-.994-.532-1.302-.355-.317-.91-.476-1.666-.476h-1.288v-1.19h1.344c.532 0 .961-.14 1.288-.42.327-.28.49-.686.49-1.218 0-.476-.154-.849-.462-1.12-.308-.28-.751-.42-1.33-.42-.597 0-1.111.112-1.54.336a6.2 6.2 0 0 0-1.148.784v-1.372c.327-.271.714-.49 1.162-.658.448-.168.961-.252 1.54-.252.476 0 .905.065 1.288.196.383.121.705.299.966.532.271.233.476.513.616.84.14.317.21.672.21 1.064 0 .317-.047.602-.14.854a2.02 2.02 0 0 1-.392.658 2.296 2.296 0 0 1-.56.476c-.215.121-.443.21-.686.266.289.047.565.135.826.266.271.131.509.299.714.504.205.196.364.434.476.714.121.271.182.574.182.91Z"/>
    <circle cx="526.885" cy="136.013" r="11.086" fill="#FF5958"/>
    <path fill="#fff" d="M530.12 140.632h-6.398v-1.33a79.815 79.815 0 0 0 2.198-1.82 16.01 16.01 0 0 0 1.54-1.47c.401-.448.7-.873.896-1.274.196-.411.294-.835.294-1.274 0-.551-.168-.994-.504-1.33-.327-.345-.807-.518-1.442-.518-.532 0-1.027.131-1.484.392a5.022 5.022 0 0 0-1.232.994v-1.414a4.26 4.26 0 0 1 1.204-.826c.448-.205.966-.308 1.554-.308.523 0 .985.07 1.386.21.411.14.751.336 1.022.588.28.252.49.555.63.91.149.355.224.747.224 1.176 0 .541-.107 1.05-.322 1.526a5.595 5.595 0 0 1-.924 1.428c-.411.476-.919.971-1.526 1.484a59.496 59.496 0 0 1-2.058 1.652h4.942v1.204Z"/>
    <circle cx="413.302" cy="136.013" r="11.086" fill="#FF5958"/>
    <path fill="#fff" d="M416.538 140.632h-6.398v-1.33a79.815 79.815 0 0 0 2.198-1.82 16.13 16.13 0 0 0 1.54-1.47c.401-.448.7-.873.896-1.274.196-.411.294-.835.294-1.274 0-.551-.168-.994-.504-1.33-.327-.345-.808-.518-1.442-.518-.532 0-1.027.131-1.484.392a5.004 5.004 0 0 0-1.232.994v-1.414a4.246 4.246 0 0 1 1.204-.826c.448-.205.966-.308 1.554-.308.522 0 .984.07 1.386.21.41.14.751.336 1.022.588.28.252.49.555.63.91.149.355.224.747.224 1.176a3.68 3.68 0 0 1-.322 1.526 5.65 5.65 0 0 1-.924 1.428c-.411.476-.92.971-1.526 1.484a61.477 61.477 0 0 1-2.058 1.652h4.942v1.204Z"/>
    <circle cx="181.45" cy="284.991" r="11.086" fill="#FF5958"/>
    <path fill="#fff" d="M184.686 289.61h-6.398v-1.33a79.815 79.815 0 0 0 2.198-1.82 16.13 16.13 0 0 0 1.54-1.47c.401-.448.7-.873.896-1.274.196-.411.294-.835.294-1.274 0-.551-.168-.994-.504-1.33-.327-.345-.808-.518-1.442-.518-.532 0-1.027.131-1.484.392a5.004 5.004 0 0 0-1.232.994v-1.414a4.246 4.246 0 0 1 1.204-.826c.448-.205.966-.308 1.554-.308.522 0 .984.07 1.386.21.41.14.751.336 1.022.588.28.252.49.555.63.91.149.355.224.747.224 1.176a3.68 3.68 0 0 1-.322 1.526 5.65 5.65 0 0 1-.924 1.428c-.411.476-.92.971-1.526 1.484a61.477 61.477 0 0 1-2.058 1.652h4.942v1.204Z"/>
    <circle cx="228.344" cy="137.013" r="11.086" fill="#FF5958"/>
    <path fill="#fff" d="M229.704 141.632h-1.274v-8.456l-2.772 2.128v-1.414l2.982-2.296h1.064v10.038Z"/>
    <defs>
        <filter id="filter0_d_5054_9167" width="403.486" height="226.911" x="8.796" y="236.638" color-interpolation-filters="sRGB" filterUnits="userSpaceOnUse">
            <feFlood flood-opacity="0" result="BackgroundImageFix"/>
            <feColorMatrix in="SourceAlpha" result="hardAlpha" values="0 0 0 0 0 0 0 0 0 0 0 0 0 0 0 0 0 0 127 0"/>
            <feMorphology in="SourceAlpha" operator="dilate" radius="3" result="effect1_dropShadow_5054_9167"/>
            <feOffset dy="1"/>
            <feGaussianBlur stdDeviation="3.5"/>
            <feComposite in2="hardAlpha" operator="out"/>
            <feColorMatrix values="0 0 0 0 0.321569 0 0 0 0 0.509804 0 0 0 0 1 0 0 0 0.2 0"/>
            <feBlend in2="BackgroundImageFix" result="effect1_dropShadow_5054_9167"/>
            <feBlend in="SourceGraphic" in2="effect1_dropShadow_5054_9167" result="shape"/>
        </filter>
        <filter id="filter1_d_5054_9167" width="158.528" height="223.16" x="531.115" y="240.39" color-interpolation-filters="sRGB" filterUnits="userSpaceOnUse">
            <feFlood flood-opacity="0" result="BackgroundImageFix"/>
            <feColorMatrix in="SourceAlpha" result="hardAlpha" values="0 0 0 0 0 0 0 0 0 0 0 0 0 0 0 0 0 0 127 0"/>
            <feMorphology in="SourceAlpha" operator="dilate" radius="3" result="effect1_dropShadow_5054_9167"/>
            <feOffset dy="1"/>
            <feGaussianBlur stdDeviation="3.5"/>
            <feComposite in2="hardAlpha" operator="out"/>
            <feColorMatrix values="0 0 0 0 0.321569 0 0 0 0 0.509804 0 0 0 0 1 0 0 0 0.2 0"/>
            <feBlend in2="BackgroundImageFix" result="effect1_dropShadow_5054_9167"/>
            <feBlend in="SourceGraphic" in2="effect1_dropShadow_5054_9167" result="shape"/>
        </filter>
    </defs>
</svg>
