<svg xmlns="http://www.w3.org/2000/svg" width="12" height="16" viewBox="0 0 3.175 4.234">
    <path fill-rule="evenodd" d="M1.454 0a2.145 2.289 0 0 0-.273.049 1.582 1.582 0 0 0-1.18 1.453c-.025.429.291 1.07.981 1.989.16.213.485.614.57.705l.035.038.035-.038c.086-.091.41-.492.57-.705.687-.914 1.007-1.56.981-1.984A1.578 1.578 0 0 0 1.861.02 2.602 2.776 0 0 0 1.454 0m.308.5a1.088 1.088 0 0 1 .685 1.753c-.588.745-1.8.424-1.944-.517A1.096 1.096 0 0 1 1.762.5m-.354.388c-.64.167-.728 1.036-.135 1.326a.715.715 0 0 0 1.03-.637.715.715 0 0 0-.895-.689"/>
</svg>
