<svg xmlns="http://www.w3.org/2000/svg" width="16" viewBox="0 0 20 20">
    <path fill="#616161" d="M19.6 9.1 10.9.4c-.5-.5-1.3-.5-1.8 0L7.3 2.2l2.3 2.3c.5-.2 1.1-.1 1.6.4.4.4.5 1 .4 1.6l2.2 2.2c.5-.2 1.2-.1 1.6.4.6.6.6 1.6 0 2.2-.6.6-1.6.6-2.2 0-.5-.6-.6-1.2-.4-1.8l-2.1-2.1v5.4c.1.1.3.2.4.3.6.6.6 1.6 0 2.2-.6.6-1.6.6-2.2 0-.6-.6-.6-1.6 0-2.2.1-.1.3-.3.5-.3V7.4c-.1-.1-.3-.2-.4-.4-.5-.4-.6-1.1-.4-1.7L6.4 3.1l-6 6c-.5.5-.5 1.3 0 1.8l8.7 8.7c.5.5 1.3.5 1.8 0l8.7-8.7c.5-.5.5-1.3 0-1.8" class="jp-icon3 jp-icon-selectable" style="stroke-width:.02"/>
</svg>
