<svg xmlns="http://www.w3.org/2000/svg" xmlns:xlink="http://www.w3.org/1999/xlink" width="18" height="18" class="g-icon standard-icon" fill="currentColor" stroke="none" aria-hidden="true"><svg xmlns="http://www.w3.org/2000/svg" fill="none" viewBox="0 0 18 18"><circle cx="9" cy="9" r="9" fill="#4768c2"></circle><g clip-path="url(#Standard=Default,_Enabled=Yes_svg__a)"><path fill="#fff" fill-rule="evenodd" d="M4.628 6.115 8.32 4.342a1.57 1.57 0 0 1 1.36 0l3.693 1.773c.268.129.44.4.44.699v.436a7.48 7.48 0 0 1-3.449 6.301l-.863.552a.93.93 0 0 1-1.002 0l-.863-.552A7.48 7.48 0 0 1 4.188 7.25v-.436c0-.298.17-.57.44-.7m3.124-2.956L4.06 4.931a2.09 2.09 0 0 0-1.185 1.883v.436a8.8 8.8 0 0 0 4.053 7.407l.863.552a2.24 2.24 0 0 0 2.418 0l.863-.552a8.8 8.8 0 0 0 4.053-7.407v-.436c0-.803-.46-1.535-1.185-1.883L10.248 3.16a2.88 2.88 0 0 0-2.496 0m3.96 4.485a.656.656 0 1 0-1.05-.788l-2.17 2.895-1.215-1.215a.656.656 0 0 0-.929.928l1.75 1.75a.656.656 0 0 0 .99-.07z" clip-rule="evenodd"></path></g><defs><clipPath id="Standard=Default,_Enabled=Yes_svg__a"><path fill="#fff" d="M2 2h14v14H2z"></path></clipPath></defs></svg></svg>