<svg xmlns="http://www.w3.org/2000/svg" width="18" height="18" fill="currentColor" aria-hidden="true" class="g-icon gn-composite-bar-item__icon">
    <svg xmlns="http://www.w3.org/2000/svg" fill="none" viewBox="0 0 14 14">
        <path fill="currentColor" fill-rule="evenodd" d="M7.003 0c.251 0 .46.196.474.447l.074 1.332a5.23 5.23 0 0 1 3.19 1.538l1.09-.77a.474.474 0 0 1 .589.74l-.995.888a5.2 5.2 0 0 1 .81 2.437 4.7 4.7 0 0 0-1.384-.443 4 4 0 0 0-.42-1.106L8.949 6.388c-.516.213-.97.545-1.327.962a.76.76 0 0 1 .187-.535.76.76 0 0 1-.448-.561.76.76 0 0 1-.719 0 .76.76 0 0 1-.448.561.76.76 0 0 1 .16.7.76.76 0 0 1 .647.313.76.76 0 0 1 .478-.3 3.5 3.5 0 0 0-.65 1.521l-.953 1.723c.354.106.73.164 1.119.165.138.443.34.88.591 1.278a5.24 5.24 0 0 1-2.358-.274l-.645 1.167a.474.474 0 0 1-.852-.41l.51-1.232A5.26 5.26 0 0 1 2.03 8.694l-1.314.223a.474.474 0 0 1-.21-.922l1.281-.37a5.22 5.22 0 0 1 .79-3.453l-.994-.89a.474.474 0 0 1 .59-.739l1.088.772a5.23 5.23 0 0 1 3.192-1.537L6.53.447A.474.474 0 0 1 7.003 0M3.351 8.47a3.95 3.95 0 0 0 1.4 1.758l.888-2.144-2.288.387Zm.224-3.405a3.9 3.9 0 0 0-.5 2.188l2.228-.642zm2.802-1.953a3.93 3.93 0 0 0-2.023.976L6.245 5.43zm1.38 2.318 1.896-1.344a3.93 3.93 0 0 0-2.028-.975l.131 2.32Z" clip-rule="evenodd"/>
        <path fill="currentColor" fill-rule="evenodd" d="M10.416 7.003a2.625 2.625 0 0 1 2.49 2.622l-.003.135a2.6 2.6 0 0 1-.362 1.198l1.267 1.266.045.05a.657.657 0 0 1-.924.924l-.05-.046-1.267-1.268c-.39.23-.844.366-1.33.366l-.136-.003A2.625 2.625 0 0 1 7.66 9.76l-.004-.135A2.625 2.625 0 0 1 10.281 7zm-.135 1.31a1.313 1.313 0 1 0 0 2.625 1.313 1.313 0 0 0 0-2.626Z" clip-rule="evenodd"/>
    </svg>
</svg>
