<svg width="9" height="9" viewBox="0 0 9 9" fill="none" xmlns="http://www.w3.org/2000/svg">
<path fill-rule="evenodd" clip-rule="evenodd" d="M0.192211 0.192211C0.448493 -0.0640704 0.864007 -0.0640704 1.12029 0.192211L4.15625 3.22817L7.19221 0.192211C7.44849 -0.0640704 7.86401 -0.0640704 8.12029 0.192211C8.37657 0.448493 8.37657 0.864007 8.12029 1.12029L5.08433 4.15625L8.12029 7.19221C8.37657 7.44849 8.37657 7.86401 8.12029 8.12029C7.86401 8.37657 7.44849 8.37657 7.19221 8.12029L4.15625 5.08433L1.12029 8.12029C0.864007 8.37657 0.448493 8.37657 0.192211 8.12029C-0.0640704 7.86401 -0.0640704 7.44849 0.192211 7.19221L3.22817 4.15625L0.192211 1.12029C-0.0640704 0.864007 -0.0640704 0.448493 0.192211 0.192211Z" fill="black" fill-opacity="0.3"/>
</svg>
