<svg xmlns="http://www.w3.org/2000/svg" xmlns:xlink="http://www.w3.org/1999/xlink" width="14" height="14" class="g-icon" fill="currentColor" stroke="none" aria-hidden="true"><svg xmlns="http://www.w3.org/2000/svg" fill="none" viewBox="0 0 16 16"><g clip-path="url(#360_svg__a)"><path fill="currentColor" fill-rule="evenodd" d="M16 8A8 8 0 1 1 0 8a8 8 0 0 1 16 0m-5.28 0c0 2.563-1.218 4.64-2.72 4.64S5.28 10.563 5.28 8 6.498 3.36 8 3.36 10.72 5.437 10.72 8M2.9 4.32C2.094 4.278 1.12 5.968 1.12 8c0 2.03.973 3.72 1.78 3.678.801-.041 1.26-1.647 1.26-3.679S3.702 4.362 2.9 4.32M14.88 8c0 2.03-.972 3.72-1.78 3.678-.8-.041-1.26-1.647-1.26-3.679s.46-3.637 1.26-3.679c.808-.042 1.78 1.648 1.78 3.68" clip-rule="evenodd"></path></g><defs><clipPath id="360_svg__a"><path fill="#fff" d="M0 0h16v16H0z"></path></clipPath></defs></svg></svg>