<svg xmlns="http://www.w3.org/2000/svg" width="555" height="109" fill="none" viewBox="0 0 555 109">
    <rect width="16" height="19" x="132" fill="#fff" rx="5"/>
    <path fill="#000" d="M143.315 9.056c0 .752-.072 1.44-.216 2.064-.144.616-.364 1.148-.66 1.596-.296.44-.672.784-1.128 1.032-.456.248-1 .372-1.632.372a4.96 4.96 0 0 1-1.164-.12 3.119 3.119 0 0 1-.84-.324V12.62c.28.184.588.32.924.408.344.08.704.12 1.08.12.4 0 .752-.08 1.056-.24.304-.16.56-.376.768-.648.216-.28.384-.608.504-.984.12-.384.196-.792.228-1.224-.28.368-.612.64-.996.816a2.966 2.966 0 0 1-1.224.252c-.408 0-.792-.064-1.152-.192a2.736 2.736 0 0 1-.936-.552 2.643 2.643 0 0 1-.624-.912 3.153 3.153 0 0 1-.228-1.236c0-.44.076-.84.228-1.2a2.8 2.8 0 0 1 .648-.936c.28-.264.604-.464.972-.6a3.36 3.36 0 0 1 1.212-.216c.568 0 1.052.092 1.452.276.408.184.74.444.996.78.256.328.44.724.552 1.188.12.464.18.976.18 1.536Zm-3.18-2.808c-.248 0-.488.04-.72.12-.232.08-.436.204-.612.372-.176.16-.32.364-.432.612-.104.24-.156.52-.156.84 0 .328.052.616.156.864.104.248.24.456.408.624.176.16.372.284.588.372.216.08.44.12.672.12.288 0 .556-.04.804-.12.248-.088.464-.216.648-.384s.328-.376.432-.624c.104-.256.156-.548.156-.876 0-.288-.048-.548-.144-.78a1.66 1.66 0 0 0-.384-.612 1.66 1.66 0 0 0-.612-.384 2.148 2.148 0 0 0-.804-.144Z"/>
    <rect width="23" height="19" x="315" fill="#fff" rx="5"/>
    <path fill="#000" d="M325.427 14h-5.604v-1.14a91.231 91.231 0 0 0 1.908-1.572c.544-.456.992-.876 1.344-1.26.36-.384.624-.748.792-1.092a2.34 2.34 0 0 0 .264-1.08c0-.472-.144-.852-.432-1.14-.288-.296-.708-.444-1.26-.444-.472 0-.908.112-1.308.336-.4.216-.76.5-1.08.852V6.248c.304-.304.652-.54 1.044-.708.392-.176.852-.264 1.38-.264.448 0 .848.06 1.2.18s.648.288.888.504c.24.216.42.476.54.78.128.304.192.64.192 1.008 0 .464-.096.9-.288 1.308a4.941 4.941 0 0 1-.816 1.224c-.36.4-.804.82-1.332 1.26-.52.432-1.116.908-1.788 1.428h4.356V14Zm4.486.12a3.37 3.37 0 0 1-1.356-.276 3.108 3.108 0 0 1-1.116-.828c-.312-.368-.56-.828-.744-1.38-.184-.56-.276-1.208-.276-1.944s.092-1.38.276-1.932c.184-.552.432-1.008.744-1.368.32-.368.692-.644 1.116-.828a3.37 3.37 0 0 1 1.356-.276c.48 0 .932.092 1.356.276.424.176.792.448 1.104.816.32.36.568.816.744 1.368.184.544.276 1.184.276 1.92s-.092 1.38-.276 1.932c-.176.552-.424 1.016-.744 1.392-.312.376-.68.66-1.104.852a3.37 3.37 0 0 1-1.356.276Zm-.012-.948c.328 0 .636-.06.924-.18.288-.12.536-.316.744-.588.216-.28.384-.64.504-1.08.128-.44.192-.98.192-1.62 0-.64-.064-1.18-.192-1.62-.12-.44-.288-.796-.504-1.068a1.774 1.774 0 0 0-.744-.6 2.29 2.29 0 0 0-.912-.18c-.328 0-.636.06-.924.18-.288.12-.54.32-.756.6-.216.272-.388.628-.516 1.068-.12.44-.18.98-.18 1.62 0 .64.06 1.18.18 1.62.128.44.296.8.504 1.08.216.272.468.468.756.588.288.12.596.18.924.18Z"/>
    <rect width="29" height="19" x="525" fill="#fff" rx="5"/>
    <path fill="#000" d="M532.387 14h-1.104V6.8l-1.824 1.776V7.364l2.028-1.968h.9V14Zm5.334.12a3.37 3.37 0 0 1-1.356-.276 3.108 3.108 0 0 1-1.116-.828c-.312-.368-.56-.828-.744-1.38-.184-.56-.276-1.208-.276-1.944s.092-1.38.276-1.932c.184-.552.432-1.008.744-1.368.32-.368.692-.644 1.116-.828a3.37 3.37 0 0 1 1.356-.276c.48 0 .932.092 1.356.276.424.176.792.448 1.104.816.32.36.568.816.744 1.368.184.544.276 1.184.276 1.92s-.092 1.38-.276 1.932c-.176.552-.424 1.016-.744 1.392-.312.376-.68.66-1.104.852a3.37 3.37 0 0 1-1.356.276Zm-.012-.948c.328 0 .636-.06.924-.18.288-.12.536-.316.744-.588.216-.28.384-.64.504-1.08.128-.44.192-.98.192-1.62 0-.64-.064-1.18-.192-1.62-.12-.44-.288-.796-.504-1.068a1.774 1.774 0 0 0-.744-.6 2.29 2.29 0 0 0-.912-.18c-.328 0-.636.06-.924.18-.288.12-.54.32-.756.6-.216.272-.388.628-.516 1.068-.12.44-.18.98-.18 1.62 0 .64.06 1.18.18 1.62.128.44.296.8.504 1.08.216.272.468.468.756.588.288.12.596.18.924.18Zm8.204.948a3.37 3.37 0 0 1-1.356-.276 3.108 3.108 0 0 1-1.116-.828c-.312-.368-.56-.828-.744-1.38-.184-.56-.276-1.208-.276-1.944s.092-1.38.276-1.932c.184-.552.432-1.008.744-1.368.32-.368.692-.644 1.116-.828a3.37 3.37 0 0 1 1.356-.276c.48 0 .932.092 1.356.276.424.176.792.448 1.104.816.32.36.568.816.744 1.368.184.544.276 1.184.276 1.92s-.092 1.38-.276 1.932c-.176.552-.424 1.016-.744 1.392-.312.376-.68.66-1.104.852a3.37 3.37 0 0 1-1.356.276Zm-.012-.948c.328 0 .636-.06.924-.18.288-.12.536-.316.744-.588.216-.28.384-.64.504-1.08.128-.44.192-.98.192-1.62 0-.64-.064-1.18-.192-1.62-.12-.44-.288-.796-.504-1.068a1.774 1.774 0 0 0-.744-.6 2.29 2.29 0 0 0-.912-.18c-.328 0-.636.06-.924.18-.288.12-.54.32-.756.6-.216.272-.388.628-.516 1.068-.12.44-.18.98-.18 1.62 0 .64.06 1.18.18 1.62.128.44.296.8.504 1.08.216.272.468.468.756.588.288.12.596.18.924.18Z"/>
    <path fill="#fff" stroke="#5282FF" stroke-dasharray="4 4" stroke-width="2" d="M247.829 29H549a5 5 0 0 1 5 5v23a5 5 0 0 1-5 5H247.829V29Z"/>
    <rect width="337" height="33" x="1" y="29" fill="#fff" stroke="#5282FF" stroke-width="2" rx="5"/>
    <rect width="147" height="33" x="1" y="29" fill="#5282FF" stroke="#5282FF" stroke-width="2" rx="5"/>
    <rect width="72" height="30" x="266" y="79" fill="#fff" rx="5"/>
    <path fill="#000" d="M278.749 92.62c-.64-.128-1.22-.268-1.74-.42-.512-.144-.98-.292-1.404-.444-.424-.152-.816-.3-1.176-.444a50.848 50.848 0 0 0-.996-.396 4.8 4.8 0 0 1-1.056-.576 3.697 3.697 0 0 1-.828-.864 3.974 3.974 0 0 1-.54-1.176 5.782 5.782 0 0 1-.192-1.56c0-.72.104-1.356.312-1.908a3.95 3.95 0 0 1 .864-1.392c.368-.376.8-.66 1.296-.852.504-.2 1.048-.3 1.632-.3.576 0 1.116.096 1.62.288.504.184.94.46 1.308.828.376.36.668.816.876 1.368.216.544.324 1.176.324 1.896 0 .52-.056 1.008-.168 1.464-.104.448-.28.856-.528 1.224a3.57 3.57 0 0 1-.96.936c-.392.264-.876.468-1.452.612a17.958 17.958 0 0 0 3.216.66l-.408 1.056Zm-3.816-2.52c.416 0 .8-.06 1.152-.18.352-.128.656-.324.912-.588.264-.272.468-.624.612-1.056.152-.432.228-.956.228-1.572 0-.616-.076-1.14-.228-1.572-.144-.432-.348-.78-.612-1.044a2.217 2.217 0 0 0-.912-.588 3.347 3.347 0 0 0-1.152-.192c-.416 0-.8.064-1.152.192-.352.12-.66.316-.924.588-.256.264-.46.612-.612 1.044-.144.432-.216.956-.216 1.572 0 .616.072 1.14.216 1.572.152.432.356.784.612 1.056.264.264.572.46.924.588.352.12.736.18 1.152.18Zm9.474-.216a2.233 2.233 0 0 1-.78.888c-.344.232-.796.348-1.356.348-.576 0-1.044-.16-1.404-.48-.352-.328-.528-.832-.528-1.512v-4.356h1.068v4.356c0 .208.028.38.084.516a.886.886 0 0 0 .612.48c.144.032.3.048.468.048.464 0 .836-.104 1.116-.312.28-.208.52-.492.72-.852v-4.236h1.056V91h-.936l-.096-1.116h-.024Zm5.345 1.236c-.424 0-.82-.072-1.188-.216a2.767 2.767 0 0 1-.96-.624 3.04 3.04 0 0 1-.624-1.02c-.152-.4-.228-.86-.228-1.38 0-.512.076-.968.228-1.368a2.89 2.89 0 0 1 .624-1.02c.272-.272.592-.48.96-.624a3.231 3.231 0 0 1 1.188-.216c.432 0 .832.072 1.2.216.368.144.684.352.948.624.272.272.484.612.636 1.02.16.4.24.856.24 1.368 0 .52-.08.98-.24 1.38-.152.4-.364.74-.636 1.02-.264.272-.58.48-.948.624a3.265 3.265 0 0 1-1.2.216Zm0-.948c.28 0 .536-.044.768-.132.24-.096.448-.236.624-.42.176-.192.312-.432.408-.72.096-.288.144-.628.144-1.02s-.048-.732-.144-1.02a1.855 1.855 0 0 0-.408-.708 1.569 1.569 0 0 0-.624-.42 1.99 1.99 0 0 0-.768-.144c-.28 0-.536.048-.768.144a1.586 1.586 0 0 0-.612.42c-.168.184-.3.42-.396.708a3.234 3.234 0 0 0-.144 1.02c0 .392.048.732.144 1.02.096.288.228.528.396.72.176.184.38.324.612.42.232.088.488.132.768.132Zm7.359.696a1.93 1.93 0 0 1-.492.18c-.2.048-.412.072-.636.072-.304 0-.564-.044-.78-.132a1.504 1.504 0 0 1-.516-.348 1.48 1.48 0 0 1-.3-.504 2.09 2.09 0 0 1-.084-.588v-3.876h-.744v-.9h.744v-1.308h1.056v1.308h1.812v.9h-1.812v3.744c0 .264.064.456.192.576.136.12.372.18.708.18.312 0 .596-.088.852-.264v.96Zm5.053-1.056a3.648 3.648 0 0 1-.276.456 2.088 2.088 0 0 1-1.02.732c-.224.08-.488.12-.792.12-.56 0-1.012-.156-1.356-.468-.344-.32-.516-.776-.516-1.368 0-.68.236-1.18.708-1.5.48-.32 1.16-.48 2.04-.48h1.164v-.516c0-.432-.112-.74-.336-.924-.224-.184-.608-.276-1.152-.276-.384 0-.748.064-1.092.192-.344.12-.652.26-.924.42v-.948c.224-.136.524-.268.9-.396a3.75 3.75 0 0 1 1.26-.204c.784 0 1.38.164 1.788.492.408.32.612.82.612 1.5v3.6c.008.088.012.18.012.276l.024.276c.008.08.016.148.024.204h-.96a5.482 5.482 0 0 1-.072-.468 7.173 7.173 0 0 1-.024-.54l-.012-.18Zm-1.86.36c.328 0 .608-.068.84-.204.232-.136.42-.292.564-.468.144-.184.248-.36.312-.528.064-.176.096-.3.096-.372v-.456h-1.056c-.632 0-1.092.092-1.38.276-.28.176-.42.444-.42.804 0 .28.084.508.252.684.168.176.432.264.792.264Zm10.261.828h-1.704l-2.136-6.228h1.14l1.896 5.664 1.884-5.664h1.056L310.565 91Zm6.705-1.188a3.648 3.648 0 0 1-.276.456 2.088 2.088 0 0 1-1.02.732c-.224.08-.488.12-.792.12-.56 0-1.012-.156-1.356-.468-.344-.32-.516-.776-.516-1.368 0-.68.236-1.18.708-1.5.48-.32 1.16-.48 2.04-.48h1.164v-.516c0-.432-.112-.74-.336-.924-.224-.184-.608-.276-1.152-.276-.384 0-.748.064-1.092.192-.344.12-.652.26-.924.42v-.948c.224-.136.524-.268.9-.396a3.75 3.75 0 0 1 1.26-.204c.784 0 1.38.164 1.788.492.408.32.612.82.612 1.5v3.6c.008.088.012.18.012.276l.024.276c.008.08.016.148.024.204h-.96a5.482 5.482 0 0 1-.072-.468 7.173 7.173 0 0 1-.024-.54l-.012-.18Zm-1.86.36c.328 0 .608-.068.84-.204.232-.136.42-.292.564-.468.144-.184.248-.36.312-.528.064-.176.096-.3.096-.372v-.456h-1.056c-.632 0-1.092.092-1.38.276-.28.176-.42.444-.42.804 0 .28.084.508.252.684.168.176.432.264.792.264Zm5.584-7.776V91h-1.056v-8.604h1.056Zm5.718 7.488a2.233 2.233 0 0 1-.78.888c-.344.232-.796.348-1.356.348-.576 0-1.044-.16-1.404-.48-.352-.328-.528-.832-.528-1.512v-4.356h1.068v4.356c0 .208.028.38.084.516a.886.886 0 0 0 .612.48c.144.032.3.048.468.048.464 0 .836-.104 1.116-.312.28-.208.52-.492.72-.852v-4.236h1.056V91h-.936l-.096-1.116h-.024Zm7.745.588a3.344 3.344 0 0 1-.324.204 3.758 3.758 0 0 1-.468.216 3.946 3.946 0 0 1-.624.156 3.864 3.864 0 0 1-.78.072c-1.048 0-1.844-.284-2.388-.852-.544-.568-.816-1.364-.816-2.388 0-.504.072-.956.216-1.356.152-.4.36-.736.624-1.008.264-.28.576-.492.936-.636.36-.152.752-.228 1.176-.228a3 3 0 0 1 1.2.228c.352.152.64.376.864.672.232.296.388.664.468 1.104.088.432.088.936 0 1.512h-4.392c.04.672.24 1.176.6 1.512.36.328.896.492 1.608.492.48 0 .892-.068 1.236-.204a4.33 4.33 0 0 0 .864-.444v.948Zm-2.472-4.884c-.456 0-.848.14-1.176.42-.328.28-.536.704-.624 1.272h3.348c.032-.576-.1-1-.396-1.272-.296-.28-.68-.42-1.152-.42Zm-26.04 22.08a7.03 7.03 0 0 1-1.392-2.436 9.234 9.234 0 0 1-.456-2.916c0-.504.036-1.008.108-1.512a9.38 9.38 0 0 1 .348-1.452 8.22 8.22 0 0 1 .576-1.32c.232-.408.504-.776.816-1.104h1.044a4.657 4.657 0 0 0-.84 1.08 7.75 7.75 0 0 0-.588 1.308 8.53 8.53 0 0 0-.336 1.452 10.679 10.679 0 0 0-.108 1.512c0 1.024.148 1.996.444 2.916a6.97 6.97 0 0 0 1.428 2.472h-1.044Zm3.354-10.272V106h-1.056v-8.604h1.056Zm2.261 1.464c-.216 0-.388-.064-.516-.192a.692.692 0 0 1-.192-.492.675.675 0 0 1 .708-.696c.208 0 .372.068.492.204.12.136.18.3.18.492s-.06.356-.18.492c-.12.128-.284.192-.492.192Zm.516.912V106h-1.056v-6.228h1.056Zm2.778 6.228h-1.056v-6.228h.924l.108 1.116h.024a2.21 2.21 0 0 1 .756-.876c.336-.24.776-.36 1.32-.36.48 0 .872.116 1.176.348.312.224.52.564.624 1.02.176-.424.444-.756.804-.996.368-.248.812-.372 1.332-.372.576 0 1.032.164 1.368.492.336.32.504.816.504 1.488V106h-1.068v-4.236c0-.408-.1-.704-.3-.888-.2-.192-.472-.288-.816-.288-.232 0-.436.036-.612.108a1.448 1.448 0 0 0-.468.276c-.136.12-.26.26-.372.42-.112.16-.216.328-.312.504V106h-1.056v-4.356c0-.4-.1-.676-.3-.828-.2-.152-.472-.228-.816-.228-.224 0-.424.028-.6.084a1.688 1.688 0 0 0-.48.24 1.89 1.89 0 0 0-.372.384 3.545 3.545 0 0 0-.312.48V106Zm10.077-7.14c-.216 0-.388-.064-.516-.192a.692.692 0 0 1-.192-.492.675.675 0 0 1 .708-.696c.208 0 .372.068.492.204.12.136.18.3.18.492s-.06.356-.18.492c-.12.128-.284.192-.492.192Zm.516.912V106h-1.056v-6.228h1.056Zm4.77 6.096a1.93 1.93 0 0 1-.492.18c-.2.048-.412.072-.636.072-.304 0-.564-.044-.78-.132a1.504 1.504 0 0 1-.516-.348 1.48 1.48 0 0 1-.3-.504 2.09 2.09 0 0 1-.084-.588v-3.876h-.744v-.9h.744v-1.308h1.056v1.308h1.812v.9h-1.812v3.744c0 .264.064.456.192.576.136.12.372.18.708.18.312 0 .596-.088.852-.264v.96Zm1.981 1.8h-1.044a6.824 6.824 0 0 0 1.416-2.472c.304-.92.456-1.892.456-2.916 0-.504-.036-1.008-.108-1.512a7.848 7.848 0 0 0-.348-1.452 7.126 7.126 0 0 0-.576-1.308 4.657 4.657 0 0 0-.84-1.08h1.044c.312.328.58.696.804 1.104.232.408.424.848.576 1.32.16.464.276.948.348 1.452.08.504.12 1.008.12 1.512a9.234 9.234 0 0 1-.456 2.916 7.03 7.03 0 0 1-1.392 2.436Z"/>
    <rect width="75.626" height="19.714" x="1.374" y="77.286" fill="#fff" rx="5"/>
    <path fill="#000" d="M13.87 92.62c-.64-.128-1.22-.268-1.74-.42-.512-.144-.98-.292-1.404-.444-.424-.152-.816-.3-1.176-.444a50.848 50.848 0 0 0-.996-.396 4.8 4.8 0 0 1-1.056-.576 3.697 3.697 0 0 1-.828-.864 3.974 3.974 0 0 1-.54-1.176 5.782 5.782 0 0 1-.192-1.56c0-.72.104-1.356.312-1.908a3.95 3.95 0 0 1 .864-1.392c.368-.376.8-.66 1.296-.852.504-.2 1.048-.3 1.632-.3.576 0 1.116.096 1.62.288.504.184.94.46 1.308.828.376.36.668.816.876 1.368.216.544.324 1.176.324 1.896 0 .52-.056 1.008-.168 1.464-.104.448-.28.856-.528 1.224a3.57 3.57 0 0 1-.96.936c-.392.264-.876.468-1.452.612a17.958 17.958 0 0 0 3.216.66l-.408 1.056Zm-3.816-2.52c.416 0 .8-.06 1.152-.18.352-.128.656-.324.912-.588.264-.272.468-.624.612-1.056.152-.432.228-.956.228-1.572 0-.616-.076-1.14-.228-1.572-.144-.432-.348-.78-.612-1.044a2.217 2.217 0 0 0-.912-.588 3.347 3.347 0 0 0-1.152-.192c-.416 0-.8.064-1.152.192-.352.12-.66.316-.924.588-.256.264-.46.612-.612 1.044-.144.432-.216.956-.216 1.572 0 .616.072 1.14.216 1.572.152.432.356.784.612 1.056.264.264.572.46.924.588.352.12.736.18 1.152.18Zm9.474-.216a2.233 2.233 0 0 1-.78.888c-.344.232-.796.348-1.356.348-.576 0-1.044-.16-1.404-.48-.352-.328-.528-.832-.528-1.512v-4.356h1.068v4.356c0 .208.028.38.084.516a.886.886 0 0 0 .612.48c.144.032.3.048.468.048.464 0 .836-.104 1.116-.312.28-.208.52-.492.72-.852v-4.236h1.056V91h-.936l-.096-1.116h-.024Zm5.345 1.236c-.424 0-.82-.072-1.188-.216a2.767 2.767 0 0 1-.96-.624 3.04 3.04 0 0 1-.624-1.02c-.152-.4-.228-.86-.228-1.38 0-.512.076-.968.228-1.368a2.89 2.89 0 0 1 .624-1.02c.272-.272.592-.48.96-.624a3.231 3.231 0 0 1 1.188-.216c.432 0 .832.072 1.2.216.368.144.684.352.948.624.272.272.484.612.636 1.02.16.4.24.856.24 1.368 0 .52-.08.98-.24 1.38-.152.4-.364.74-.636 1.02-.264.272-.58.48-.948.624a3.265 3.265 0 0 1-1.2.216Zm0-.948c.28 0 .536-.044.768-.132.24-.096.448-.236.624-.42.176-.192.312-.432.408-.72.096-.288.144-.628.144-1.02s-.048-.732-.144-1.02a1.855 1.855 0 0 0-.408-.708 1.569 1.569 0 0 0-.624-.42 1.99 1.99 0 0 0-.768-.144c-.28 0-.536.048-.768.144a1.586 1.586 0 0 0-.612.42c-.168.184-.3.42-.396.708a3.234 3.234 0 0 0-.144 1.02c0 .392.048.732.144 1.02.096.288.228.528.396.72.176.184.38.324.612.42.232.088.488.132.768.132Zm7.36.696a1.93 1.93 0 0 1-.493.18c-.2.048-.412.072-.636.072-.304 0-.564-.044-.78-.132a1.504 1.504 0 0 1-.516-.348 1.48 1.48 0 0 1-.3-.504 2.09 2.09 0 0 1-.084-.588v-3.876h-.744v-.9h.744v-1.308h1.056v1.308h1.812v.9H30.48v3.744c0 .264.064.456.192.576.136.12.372.18.708.18.312 0 .596-.088.852-.264v.96Zm5.052-1.056a3.648 3.648 0 0 1-.276.456 2.088 2.088 0 0 1-1.02.732c-.224.08-.488.12-.792.12-.56 0-1.012-.156-1.356-.468-.344-.32-.516-.776-.516-1.368 0-.68.236-1.18.708-1.5.48-.32 1.16-.48 2.04-.48h1.164v-.516c0-.432-.112-.74-.336-.924-.224-.184-.608-.276-1.152-.276-.384 0-.748.064-1.092.192-.344.12-.652.26-.924.42v-.948c.224-.136.524-.268.9-.396a3.75 3.75 0 0 1 1.26-.204c.784 0 1.38.164 1.788.492.408.32.612.82.612 1.5v3.6c.008.088.012.18.012.276l.024.276c.008.08.016.148.024.204h-.96a5.482 5.482 0 0 1-.072-.468 7.173 7.173 0 0 1-.024-.54l-.012-.18Zm-1.86.36c.328 0 .608-.068.84-.204.232-.136.42-.292.564-.468.144-.184.248-.36.312-.528.064-.176.096-.3.096-.372v-.456h-1.056c-.632 0-1.092.092-1.38.276-.28.176-.42.444-.42.804 0 .28.084.508.252.684.168.176.432.264.792.264Zm11.162-.288a2.233 2.233 0 0 1-.78.888c-.344.232-.796.348-1.356.348-.576 0-1.044-.16-1.404-.48-.352-.328-.528-.832-.528-1.512v-4.356h1.068v4.356c0 .208.028.38.084.516a.886.886 0 0 0 .612.48c.144.032.3.048.468.048.464 0 .836-.104 1.116-.312.28-.208.52-.492.72-.852v-4.236h1.056V91h-.936l-.096-1.116h-.024Zm4.78 1.236c-.327 0-.62-.028-.875-.084a4.113 4.113 0 0 1-.66-.18c-.184-.08-.34-.16-.468-.24a3.161 3.161 0 0 1-.3-.228v-.948c.08.08.188.168.324.264.136.088.3.172.492.252.192.08.408.148.648.204.248.048.524.072.828.072.448 0 .804-.072 1.068-.216.264-.144.396-.388.396-.732a.698.698 0 0 0-.132-.444.801.801 0 0 0-.336-.264 2.07 2.07 0 0 0-.504-.168c-.184-.04-.38-.08-.588-.12a22.265 22.265 0 0 1-.78-.18 2.73 2.73 0 0 1-.696-.3 1.633 1.633 0 0 1-.504-.516c-.128-.216-.192-.496-.192-.84 0-.56.216-1 .648-1.32.44-.32 1.052-.48 1.836-.48.44 0 .828.044 1.164.132.344.088.608.184.792.288v.948a2.824 2.824 0 0 0-.78-.336c-.304-.096-.684-.144-1.14-.144-.472 0-.836.064-1.092.192-.248.128-.372.36-.372.696 0 .168.036.304.108.408a.856.856 0 0 0 .288.24c.128.056.272.1.432.132.16.032.328.068.504.108.272.056.552.116.84.18.288.064.544.164.768.3.232.136.42.32.564.552.152.224.228.528.228.912 0 .36-.072.66-.216.9-.144.24-.336.432-.576.576-.232.136-.5.232-.804.288-.296.064-.6.096-.912.096Zm7.399-1.308a3.648 3.648 0 0 1-.276.456 2.088 2.088 0 0 1-1.02.732c-.224.08-.488.12-.792.12-.56 0-1.012-.156-1.356-.468-.344-.32-.516-.776-.516-1.368 0-.68.236-1.18.708-1.5.48-.32 1.16-.48 2.04-.48h1.164v-.516c0-.432-.112-.74-.336-.924-.224-.184-.608-.276-1.152-.276-.384 0-.748.064-1.092.192-.344.12-.652.26-.924.42v-.948c.224-.136.524-.268.9-.396a3.75 3.75 0 0 1 1.26-.204c.784 0 1.38.164 1.788.492.408.32.612.82.612 1.5v3.6c.008.088.012.18.012.276l.024.276c.008.08.016.148.024.204h-.96a5.482 5.482 0 0 1-.072-.468 7.173 7.173 0 0 1-.024-.54l-.012-.18Zm-1.86.36c.328 0 .608-.068.84-.204.232-.136.42-.292.564-.468.144-.184.248-.36.312-.528.064-.176.096-.3.096-.372v-.456h-1.056c-.632 0-1.092.092-1.38.276-.28.176-.42.444-.42.804 0 .28.084.508.252.684.168.176.432.264.792.264Zm9.88.3c0 .4-.06.764-.18 1.092a1.97 1.97 0 0 1-.552.852c-.248.232-.572.412-.972.54-.392.128-.868.192-1.428.192a5.95 5.95 0 0 1-.804-.048 3.698 3.698 0 0 1-.612-.132 2.214 2.214 0 0 1-.432-.168 2.008 2.008 0 0 1-.3-.168v-.948c.128.072.26.136.396.192a3.534 3.534 0 0 0 1.032.276c.216.032.46.048.732.048.768 0 1.304-.144 1.608-.432.304-.288.456-.716.456-1.284v-.96a2.265 2.265 0 0 1-.78.888c-.328.224-.736.336-1.224.336-.368 0-.72-.064-1.056-.192a2.613 2.613 0 0 1-.876-.564 2.912 2.912 0 0 1-.6-.948c-.144-.384-.216-.828-.216-1.332 0-.512.072-.956.216-1.332.152-.384.352-.704.6-.96.256-.256.552-.448.888-.576a2.974 2.974 0 0 1 1.068-.192c.496 0 .912.112 1.248.336.344.224.612.528.804.912l.012-.132c0-.144.008-.316.024-.516.016-.208.032-.368.048-.48h.96a7.943 7.943 0 0 0-.048.48c-.008.208-.012.38-.012.516v4.704Zm-2.868-.672c.264 0 .504-.04.72-.12.224-.088.416-.22.576-.396.168-.176.296-.392.384-.648a2.7 2.7 0 0 0 .144-.924c0-.712-.176-1.244-.528-1.596-.344-.352-.78-.528-1.308-.528a2.08 2.08 0 0 0-.744.132c-.224.088-.42.22-.588.396-.16.176-.288.4-.384.672a2.7 2.7 0 0 0-.144.924c0 .352.048.66.144.924.096.256.228.472.396.648.168.168.364.296.588.384.232.088.48.132.744.132Zm9.539.672a3.344 3.344 0 0 1-.324.204 3.758 3.758 0 0 1-.468.216 3.946 3.946 0 0 1-.624.156 3.864 3.864 0 0 1-.78.072c-1.048 0-1.844-.284-2.388-.852-.544-.568-.816-1.364-.816-2.388 0-.504.072-.956.216-1.356.152-.4.36-.736.624-1.008.264-.28.576-.492.936-.636.36-.152.752-.228 1.176-.228a3 3 0 0 1 1.2.228c.352.152.64.376.864.672.232.296.388.664.468 1.104.088.432.088.936 0 1.512h-4.392c.04.672.24 1.176.6 1.512.36.328.896.492 1.608.492.48 0 .892-.068 1.236-.204a4.33 4.33 0 0 0 .864-.444v.948Zm-2.472-4.884c-.456 0-.848.14-1.176.42-.328.28-.536.704-.624 1.272h3.348c.032-.576-.1-1-.396-1.272-.296-.28-.68-.42-1.152-.42Z"/>
    <rect width="84" height="20" x="471" y="77" fill="#fff" rx="5"/>
    <path fill="#000" d="M479.957 83.44V91h-1.14v-7.56h-2.652v-1.044h6.444v1.044h-2.652Zm8.066 7.032a3.344 3.344 0 0 1-.324.204 3.758 3.758 0 0 1-.468.216 3.946 3.946 0 0 1-.624.156 3.864 3.864 0 0 1-.78.072c-1.048 0-1.844-.284-2.388-.852-.544-.568-.816-1.364-.816-2.388 0-.504.072-.956.216-1.356.152-.4.36-.736.624-1.008.264-.28.576-.492.936-.636.36-.152.752-.228 1.176-.228a3 3 0 0 1 1.2.228c.352.152.64.376.864.672.232.296.388.664.468 1.104.088.432.088.936 0 1.512h-4.392c.04.672.24 1.176.6 1.512.36.328.896.492 1.608.492.48 0 .892-.068 1.236-.204a4.33 4.33 0 0 0 .864-.444v.948Zm-2.472-4.884c-.456 0-.848.14-1.176.42-.328.28-.536.704-.624 1.272h3.348c.032-.576-.1-1-.396-1.272-.296-.28-.68-.42-1.152-.42Zm6.567 5.532a3.77 3.77 0 0 1-1.308-.216 2.861 2.861 0 0 1-.984-.636c-.272-.28-.48-.62-.624-1.02a4.024 4.024 0 0 1-.216-1.368c0-.504.072-.956.216-1.356.152-.4.364-.736.636-1.008a2.63 2.63 0 0 1 .996-.636 3.662 3.662 0 0 1 1.332-.228c.384 0 .736.044 1.056.132.32.08.584.2.792.36v.948a2.798 2.798 0 0 0-.864-.372 3.563 3.563 0 0 0-.972-.132c-.728 0-1.264.188-1.608.564-.336.376-.504.952-.504 1.728s.164 1.352.492 1.728c.328.376.848.564 1.56.564.376 0 .72-.044 1.032-.132.32-.096.608-.216.864-.36v.948a3.678 3.678 0 0 1-1.896.492Zm6.136-5.532c-.48 0-.872.112-1.176.336a2.455 2.455 0 0 0-.72.84V91h-1.056v-8.604h1.056v2.376l-.024 1.116h.024c.168-.352.432-.644.792-.876.36-.24.816-.36 1.368-.36.616 0 1.104.164 1.464.492.368.32.552.816.552 1.488V91h-1.056v-4.26c0-.432-.108-.732-.324-.9-.216-.168-.516-.252-.9-.252Zm6.902 0c-.48 0-.872.112-1.176.336a2.455 2.455 0 0 0-.72.84V91h-1.056v-6.228h.996l.036 1.116h.024c.168-.36.432-.656.792-.888.36-.232.816-.348 1.368-.348.616 0 1.104.164 1.464.492.368.32.552.816.552 1.488V91h-1.056v-4.26c0-.432-.108-.732-.324-.9-.216-.168-.516-.252-.9-.252Zm4.49-1.728c-.216 0-.388-.064-.516-.192a.692.692 0 0 1-.192-.492.675.675 0 0 1 .708-.696c.208 0 .372.068.492.204.12.136.18.3.18.492s-.06.356-.18.492c-.12.128-.284.192-.492.192Zm.516.912V91h-1.056v-6.228h1.056Zm4.41 6.348a3.77 3.77 0 0 1-1.308-.216 2.861 2.861 0 0 1-.984-.636c-.272-.28-.48-.62-.624-1.02a4.024 4.024 0 0 1-.216-1.368c0-.504.072-.956.216-1.356.152-.4.364-.736.636-1.008a2.63 2.63 0 0 1 .996-.636 3.662 3.662 0 0 1 1.332-.228c.384 0 .736.044 1.056.132.32.08.584.2.792.36v.948a2.798 2.798 0 0 0-.864-.372 3.563 3.563 0 0 0-.972-.132c-.728 0-1.264.188-1.608.564-.336.376-.504.952-.504 1.728s.164 1.352.492 1.728c.328.376.848.564 1.56.564.376 0 .72-.044 1.032-.132.32-.096.608-.216.864-.36v.948a3.678 3.678 0 0 1-1.896.492Zm6.831-1.308a3.648 3.648 0 0 1-.276.456 2.088 2.088 0 0 1-1.02.732c-.224.08-.488.12-.792.12-.56 0-1.012-.156-1.356-.468-.344-.32-.516-.776-.516-1.368 0-.68.236-1.18.708-1.5.48-.32 1.16-.48 2.04-.48h1.164v-.516c0-.432-.112-.74-.336-.924-.224-.184-.608-.276-1.152-.276-.384 0-.748.064-1.092.192-.344.12-.652.26-.924.42v-.948c.224-.136.524-.268.9-.396a3.75 3.75 0 0 1 1.26-.204c.784 0 1.38.164 1.788.492.408.32.612.82.612 1.5v3.6c.008.088.012.18.012.276l.024.276c.008.08.016.148.024.204h-.96a5.482 5.482 0 0 1-.072-.468 7.173 7.173 0 0 1-.024-.54l-.012-.18Zm-1.86.36c.328 0 .608-.068.84-.204.232-.136.42-.292.564-.468.144-.184.248-.36.312-.528.064-.176.096-.3.096-.372v-.456h-1.056c-.632 0-1.092.092-1.38.276-.28.176-.42.444-.42.804 0 .28.084.508.252.684.168.176.432.264.792.264Zm5.584-7.776V91h-1.056v-8.604h1.056Zm5.414 0V91h-1.056v-8.604h1.056Zm2.261 1.464c-.216 0-.388-.064-.516-.192a.692.692 0 0 1-.192-.492.675.675 0 0 1 .708-.696c.208 0 .372.068.492.204.12.136.18.3.18.492s-.06.356-.18.492c-.12.128-.284.192-.492.192Zm.516.912V91h-1.056v-6.228h1.056ZM536.096 91h-1.056v-6.228h.924l.108 1.116h.024a2.21 2.21 0 0 1 .756-.876c.336-.24.776-.36 1.32-.36.48 0 .872.116 1.176.348.312.224.52.564.624 1.02.176-.424.444-.756.804-.996.368-.248.812-.372 1.332-.372.576 0 1.032.164 1.368.492.336.32.504.816.504 1.488V91h-1.068v-4.236c0-.408-.1-.704-.3-.888-.2-.192-.472-.288-.816-.288-.232 0-.436.036-.612.108a1.448 1.448 0 0 0-.468.276c-.136.12-.26.26-.372.42-.112.16-.216.328-.312.504V91h-1.056v-4.356c0-.4-.1-.676-.3-.828-.2-.152-.472-.228-.816-.228-.224 0-.424.028-.6.084a1.688 1.688 0 0 0-.48.24 1.89 1.89 0 0 0-.372.384 3.545 3.545 0 0 0-.312.48V91Zm10.078-7.14c-.216 0-.388-.064-.516-.192a.692.692 0 0 1-.192-.492.675.675 0 0 1 .708-.696c.208 0 .372.068.492.204.12.136.18.3.18.492s-.06.356-.18.492c-.12.128-.284.192-.492.192Zm.516.912V91h-1.056v-6.228h1.056Zm4.769 6.096a1.93 1.93 0 0 1-.492.18c-.2.048-.412.072-.636.072-.304 0-.564-.044-.78-.132a1.504 1.504 0 0 1-.516-.348 1.48 1.48 0 0 1-.3-.504 2.09 2.09 0 0 1-.084-.588v-3.876h-.744v-.9h.744v-1.308h1.056v1.308h1.812v.9h-1.812v3.744c0 .264.064.456.192.576.136.12.372.18.708.18.312 0 .596-.088.852-.264v.96Z"/>
</svg>
