<svg width="700" height="740" viewBox="0 0 700 740" fill="none" xmlns="http://www.w3.org/2000/svg">
<rect x="264" y="684" width="150" height="44" rx="5" fill="#DDF2E1"/>
<path d="M309.68 711.029C308.934 711.029 308.257 710.912 307.65 710.679C307.044 710.446 306.521 710.11 306.082 709.671C305.653 709.223 305.322 708.682 305.088 708.047C304.855 707.403 304.738 706.68 304.738 705.877C304.738 705.065 304.846 704.342 305.06 703.707C305.275 703.072 305.592 702.536 306.012 702.097C306.432 701.649 306.946 701.308 307.552 701.075C308.168 700.842 308.868 700.725 309.652 700.725C310.334 700.725 310.931 700.8 311.444 700.949C311.958 701.089 312.378 701.257 312.704 701.453V702.713C312.284 702.442 311.799 702.242 311.248 702.111C310.707 701.98 310.17 701.915 309.638 701.915C308.453 701.915 307.576 702.246 307.006 702.909C306.446 703.562 306.166 704.552 306.166 705.877C306.166 707.212 306.47 708.206 307.076 708.859C307.692 709.512 308.598 709.839 309.792 709.839C310.306 709.839 310.805 709.769 311.29 709.629C311.785 709.489 312.256 709.251 312.704 708.915V710.175C312.434 710.39 312.037 710.586 311.514 710.763C311.001 710.94 310.39 711.029 309.68 711.029ZM317.465 711.029C316.97 711.029 316.508 710.945 316.079 710.777C315.649 710.609 315.276 710.366 314.959 710.049C314.651 709.722 314.408 709.326 314.231 708.859C314.053 708.392 313.965 707.856 313.965 707.249C313.965 706.652 314.053 706.12 314.231 705.653C314.408 705.177 314.651 704.78 314.959 704.463C315.276 704.146 315.649 703.903 316.079 703.735C316.508 703.567 316.97 703.483 317.465 703.483C317.969 703.483 318.435 703.567 318.865 703.735C319.294 703.903 319.663 704.146 319.971 704.463C320.288 704.78 320.535 705.177 320.713 705.653C320.899 706.12 320.993 706.652 320.993 707.249C320.993 707.856 320.899 708.392 320.713 708.859C320.535 709.326 320.288 709.722 319.971 710.049C319.663 710.366 319.294 710.609 318.865 710.777C318.435 710.945 317.969 711.029 317.465 711.029ZM317.465 709.923C317.791 709.923 318.09 709.872 318.361 709.769C318.641 709.657 318.883 709.494 319.089 709.279C319.294 709.055 319.453 708.775 319.565 708.439C319.677 708.103 319.733 707.706 319.733 707.249C319.733 706.792 319.677 706.395 319.565 706.059C319.453 705.723 319.294 705.448 319.089 705.233C318.883 705.009 318.641 704.846 318.361 704.743C318.09 704.631 317.791 704.575 317.465 704.575C317.138 704.575 316.839 704.631 316.569 704.743C316.298 704.846 316.06 705.009 315.855 705.233C315.659 705.448 315.505 705.723 315.393 706.059C315.281 706.395 315.225 706.792 315.225 707.249C315.225 707.706 315.281 708.103 315.393 708.439C315.505 708.775 315.659 709.055 315.855 709.279C316.06 709.494 316.298 709.657 316.569 709.769C316.839 709.872 317.138 709.923 317.465 709.923ZM323.726 710.889H322.494V703.623H323.572L323.698 704.925H323.726C323.922 704.514 324.216 704.174 324.608 703.903C325 703.623 325.514 703.483 326.148 703.483C326.708 703.483 327.166 703.618 327.52 703.889C327.884 704.15 328.127 704.547 328.248 705.079C328.454 704.584 328.766 704.197 329.186 703.917C329.616 703.628 330.134 703.483 330.74 703.483C331.412 703.483 331.944 703.674 332.336 704.057C332.728 704.43 332.924 705.009 332.924 705.793V710.889H331.678V705.947C331.678 705.471 331.562 705.126 331.328 704.911C331.095 704.687 330.778 704.575 330.376 704.575C330.106 704.575 329.868 704.617 329.662 704.701C329.457 704.776 329.275 704.883 329.116 705.023C328.958 705.163 328.813 705.326 328.682 705.513C328.552 705.7 328.43 705.896 328.318 706.101V710.889H327.086V705.807C327.086 705.34 326.97 705.018 326.736 704.841C326.503 704.664 326.186 704.575 325.784 704.575C325.523 704.575 325.29 704.608 325.084 704.673C324.879 704.738 324.692 704.832 324.524 704.953C324.366 705.074 324.221 705.224 324.09 705.401C323.96 705.569 323.838 705.756 323.726 705.961V710.889ZM338.508 711.029C337.948 711.029 337.462 710.898 337.052 710.637C336.65 710.376 336.328 710.016 336.086 709.559V713.367H334.854V703.623H335.932L336.058 705.037C336.3 704.561 336.627 704.183 337.038 703.903C337.448 703.623 337.957 703.483 338.564 703.483C338.984 703.483 339.385 703.562 339.768 703.721C340.16 703.87 340.5 704.104 340.79 704.421C341.088 704.729 341.322 705.121 341.49 705.597C341.667 706.064 341.756 706.614 341.756 707.249C341.756 707.893 341.667 708.453 341.49 708.929C341.312 709.396 341.074 709.788 340.776 710.105C340.477 710.413 340.132 710.646 339.74 710.805C339.348 710.954 338.937 711.029 338.508 711.029ZM338.326 709.923C338.97 709.923 339.488 709.704 339.88 709.265C340.281 708.817 340.482 708.145 340.482 707.249C340.482 706.372 340.281 705.709 339.88 705.261C339.488 704.804 338.97 704.575 338.326 704.575C338.008 704.575 337.71 704.631 337.43 704.743C337.159 704.855 336.921 705.023 336.716 705.247C336.52 705.462 336.361 705.737 336.24 706.073C336.128 706.409 336.072 706.801 336.072 707.249C336.072 707.697 336.128 708.089 336.24 708.425C336.361 708.761 336.52 709.041 336.716 709.265C336.921 709.489 337.159 709.657 337.43 709.769C337.71 709.872 338.008 709.923 338.326 709.923ZM344.48 700.851V710.889H343.248V700.851H344.48ZM352.27 710.273C352.168 710.348 352.042 710.427 351.892 710.511C351.743 710.595 351.561 710.679 351.346 710.763C351.132 710.838 350.889 710.898 350.618 710.945C350.348 711.001 350.044 711.029 349.708 711.029C348.486 711.029 347.557 710.698 346.922 710.035C346.288 709.372 345.97 708.444 345.97 707.249C345.97 706.661 346.054 706.134 346.222 705.667C346.4 705.2 346.642 704.808 346.95 704.491C347.258 704.164 347.622 703.917 348.042 703.749C348.462 703.572 348.92 703.483 349.414 703.483C349.937 703.483 350.404 703.572 350.814 703.749C351.225 703.926 351.561 704.188 351.822 704.533C352.093 704.878 352.275 705.308 352.368 705.821C352.471 706.325 352.471 706.913 352.368 707.585H347.244C347.291 708.369 347.524 708.957 347.944 709.349C348.364 709.732 348.99 709.923 349.82 709.923C350.38 709.923 350.861 709.844 351.262 709.685C351.664 709.526 352 709.354 352.27 709.167V710.273ZM349.386 704.575C348.854 704.575 348.397 704.738 348.014 705.065C347.632 705.392 347.389 705.886 347.286 706.549H351.192C351.23 705.877 351.076 705.382 350.73 705.065C350.385 704.738 349.937 704.575 349.386 704.575ZM357.468 710.735C357.319 710.819 357.128 710.889 356.894 710.945C356.661 711.001 356.414 711.029 356.152 711.029C355.798 711.029 355.494 710.978 355.242 710.875C355 710.772 354.799 710.637 354.64 710.469C354.482 710.292 354.365 710.096 354.29 709.881C354.225 709.657 354.192 709.428 354.192 709.195V704.673H353.324V703.623H354.192V702.097H355.424V703.623H357.538V704.673H355.424V709.041C355.424 709.349 355.499 709.573 355.648 709.713C355.807 709.853 356.082 709.923 356.474 709.923C356.838 709.923 357.17 709.82 357.468 709.615V710.735ZM364.821 710.273C364.719 710.348 364.593 710.427 364.443 710.511C364.294 710.595 364.112 710.679 363.897 710.763C363.683 710.838 363.44 710.898 363.169 710.945C362.899 711.001 362.595 711.029 362.259 711.029C361.037 711.029 360.108 710.698 359.473 710.035C358.839 709.372 358.521 708.444 358.521 707.249C358.521 706.661 358.605 706.134 358.773 705.667C358.951 705.2 359.193 704.808 359.501 704.491C359.809 704.164 360.173 703.917 360.593 703.749C361.013 703.572 361.471 703.483 361.965 703.483C362.488 703.483 362.955 703.572 363.365 703.749C363.776 703.926 364.112 704.188 364.373 704.533C364.644 704.878 364.826 705.308 364.919 705.821C365.022 706.325 365.022 706.913 364.919 707.585H359.795C359.842 708.369 360.075 708.957 360.495 709.349C360.915 709.732 361.541 709.923 362.371 709.923C362.931 709.923 363.412 709.844 363.813 709.685C364.215 709.526 364.551 709.354 364.821 709.167V710.273ZM361.937 704.575C361.405 704.575 360.948 704.738 360.565 705.065C360.183 705.392 359.94 705.886 359.837 706.549H363.743C363.781 705.877 363.627 705.382 363.281 705.065C362.936 704.738 362.488 704.575 361.937 704.575ZM371.671 709.461C371.447 709.937 371.134 710.32 370.733 710.609C370.332 710.889 369.823 711.029 369.207 711.029C368.768 711.029 368.353 710.954 367.961 710.805C367.569 710.646 367.224 710.413 366.925 710.105C366.626 709.788 366.388 709.396 366.211 708.929C366.034 708.453 365.945 707.893 365.945 707.249C365.945 706.614 366.034 706.064 366.211 705.597C366.388 705.121 366.626 704.729 366.925 704.421C367.224 704.104 367.569 703.87 367.961 703.721C368.362 703.562 368.782 703.483 369.221 703.483C369.772 703.483 370.248 703.6 370.649 703.833C371.05 704.057 371.372 704.379 371.615 704.799V700.851H372.847V710.889H371.769L371.671 709.461ZM369.389 709.923C369.706 709.923 370 709.872 370.271 709.769C370.542 709.657 370.775 709.489 370.971 709.265C371.176 709.041 371.335 708.761 371.447 708.425C371.568 708.089 371.629 707.697 371.629 707.249C371.629 706.801 371.568 706.409 371.447 706.073C371.335 705.737 371.176 705.457 370.971 705.233C370.775 705.009 370.542 704.846 370.271 704.743C370 704.631 369.706 704.575 369.389 704.575C368.745 704.575 368.218 704.804 367.807 705.261C367.406 705.709 367.205 706.372 367.205 707.249C367.205 708.136 367.41 708.803 367.821 709.251C368.232 709.699 368.754 709.923 369.389 709.923Z" fill="#18123D"/>
<rect x="83" y="349" width="148" height="42" rx="4" fill="white" stroke="#67B0F8" stroke-width="2"/>
<path d="M135.159 364.851H138.519C139.705 364.851 140.605 365.084 141.221 365.551C141.847 366.008 142.159 366.732 142.159 367.721C142.159 368.598 141.945 369.27 141.515 369.737C141.095 370.204 140.54 370.512 139.849 370.661L142.579 374.889H141.095L138.477 370.815H136.475V374.889H135.159V364.851ZM136.475 366.055V369.625H138.393C138.748 369.625 139.07 369.592 139.359 369.527C139.658 369.462 139.91 369.354 140.115 369.205C140.33 369.056 140.493 368.86 140.605 368.617C140.727 368.365 140.787 368.057 140.787 367.693C140.787 367.096 140.591 366.676 140.199 366.433C139.807 366.181 139.247 366.055 138.519 366.055H136.475ZM149.687 374.273C149.585 374.348 149.459 374.427 149.309 374.511C149.16 374.595 148.978 374.679 148.763 374.763C148.549 374.838 148.306 374.898 148.035 374.945C147.765 375.001 147.461 375.029 147.125 375.029C145.903 375.029 144.974 374.698 144.339 374.035C143.705 373.372 143.387 372.444 143.387 371.249C143.387 370.661 143.471 370.134 143.639 369.667C143.817 369.2 144.059 368.808 144.367 368.491C144.675 368.164 145.039 367.917 145.459 367.749C145.879 367.572 146.337 367.483 146.831 367.483C147.354 367.483 147.821 367.572 148.231 367.749C148.642 367.926 148.978 368.188 149.239 368.533C149.51 368.878 149.692 369.308 149.785 369.821C149.888 370.325 149.888 370.913 149.785 371.585H144.661C144.708 372.369 144.941 372.957 145.361 373.349C145.781 373.732 146.407 373.923 147.237 373.923C147.797 373.923 148.278 373.844 148.679 373.685C149.081 373.526 149.417 373.354 149.687 373.167V374.273ZM146.803 368.575C146.271 368.575 145.814 368.738 145.431 369.065C145.049 369.392 144.806 369.886 144.703 370.549H148.609C148.647 369.877 148.493 369.382 148.147 369.065C147.802 368.738 147.354 368.575 146.803 368.575ZM153.653 375.029C153.271 375.029 152.93 374.996 152.631 374.931C152.342 374.875 152.085 374.805 151.861 374.721C151.647 374.628 151.465 374.534 151.315 374.441C151.166 374.338 151.049 374.25 150.965 374.175V373.069C151.059 373.162 151.185 373.265 151.343 373.377C151.502 373.48 151.693 373.578 151.917 373.671C152.141 373.764 152.393 373.844 152.673 373.909C152.963 373.965 153.285 373.993 153.639 373.993C154.162 373.993 154.577 373.909 154.885 373.741C155.193 373.573 155.347 373.288 155.347 372.887C155.347 372.672 155.296 372.5 155.193 372.369C155.1 372.238 154.969 372.136 154.801 372.061C154.633 371.977 154.437 371.912 154.213 371.865C153.999 371.818 153.77 371.772 153.527 371.725C153.219 371.66 152.916 371.59 152.617 371.515C152.319 371.431 152.048 371.314 151.805 371.165C151.563 371.006 151.367 370.806 151.217 370.563C151.068 370.311 150.993 369.984 150.993 369.583C150.993 368.93 151.245 368.416 151.749 368.043C152.263 367.67 152.977 367.483 153.891 367.483C154.405 367.483 154.857 367.534 155.249 367.637C155.651 367.74 155.959 367.852 156.173 367.973V369.079C155.931 368.92 155.627 368.79 155.263 368.687C154.909 368.575 154.465 368.519 153.933 368.519C153.383 368.519 152.958 368.594 152.659 368.743C152.37 368.892 152.225 369.163 152.225 369.555C152.225 369.751 152.267 369.91 152.351 370.031C152.435 370.143 152.547 370.236 152.687 370.311C152.837 370.376 153.005 370.428 153.191 370.465C153.378 370.502 153.574 370.544 153.779 370.591C154.097 370.656 154.423 370.726 154.759 370.801C155.095 370.876 155.394 370.992 155.655 371.151C155.926 371.31 156.145 371.524 156.313 371.795C156.491 372.056 156.579 372.411 156.579 372.859C156.579 373.279 156.495 373.629 156.327 373.909C156.159 374.189 155.935 374.413 155.655 374.581C155.385 374.74 155.072 374.852 154.717 374.917C154.372 374.992 154.017 375.029 153.653 375.029ZM161.653 374.735C161.504 374.819 161.312 374.889 161.079 374.945C160.846 375.001 160.598 375.029 160.337 375.029C159.982 375.029 159.679 374.978 159.427 374.875C159.184 374.772 158.984 374.637 158.825 374.469C158.666 374.292 158.55 374.096 158.475 373.881C158.41 373.657 158.377 373.428 158.377 373.195V368.673H157.509V367.623H158.377V366.097H159.609V367.623H161.723V368.673H159.609V373.041C159.609 373.349 159.684 373.573 159.833 373.713C159.992 373.853 160.267 373.923 160.659 373.923C161.023 373.923 161.354 373.82 161.653 373.615V374.735ZM167.548 373.503C167.464 373.671 167.357 373.848 167.226 374.035C167.096 374.212 166.932 374.376 166.736 374.525C166.54 374.674 166.307 374.796 166.036 374.889C165.775 374.982 165.467 375.029 165.112 375.029C164.459 375.029 163.932 374.847 163.53 374.483C163.129 374.11 162.928 373.578 162.928 372.887C162.928 372.094 163.204 371.51 163.754 371.137C164.314 370.764 165.108 370.577 166.134 370.577H167.492V369.975C167.492 369.471 167.362 369.112 167.1 368.897C166.839 368.682 166.391 368.575 165.756 368.575C165.308 368.575 164.884 368.65 164.482 368.799C164.081 368.939 163.722 369.102 163.404 369.289V368.183C163.666 368.024 164.016 367.87 164.454 367.721C164.902 367.562 165.392 367.483 165.924 367.483C166.839 367.483 167.534 367.674 168.01 368.057C168.486 368.43 168.724 369.014 168.724 369.807V373.713C168.724 373.797 168.724 373.895 168.724 374.007C168.734 374.11 168.738 374.217 168.738 374.329C168.748 374.441 168.757 374.548 168.766 374.651C168.776 374.744 168.785 374.824 168.794 374.889H167.674C167.646 374.758 167.618 374.576 167.59 374.343C167.572 374.1 167.562 373.89 167.562 373.713L167.548 373.503ZM165.378 373.923C165.761 373.923 166.088 373.844 166.358 373.685C166.629 373.526 166.848 373.344 167.016 373.139C167.184 372.924 167.306 372.719 167.38 372.523C167.455 372.318 167.492 372.173 167.492 372.089V371.557H166.26C165.523 371.557 164.986 371.664 164.65 371.879C164.324 372.084 164.16 372.397 164.16 372.817C164.16 373.144 164.258 373.41 164.454 373.615C164.65 373.82 164.958 373.923 165.378 373.923ZM174.259 368.855C173.737 368.902 173.261 369.037 172.831 369.261C172.411 369.476 172.099 369.812 171.893 370.269V374.889H170.661V367.623H171.739L171.865 369.205H171.893C172.099 368.776 172.393 368.402 172.775 368.085C173.167 367.758 173.662 367.558 174.259 367.483V368.855ZM179.385 374.735C179.236 374.819 179.045 374.889 178.811 374.945C178.578 375.001 178.331 375.029 178.069 375.029C177.715 375.029 177.411 374.978 177.159 374.875C176.917 374.772 176.716 374.637 176.557 374.469C176.399 374.292 176.282 374.096 176.207 373.881C176.142 373.657 176.109 373.428 176.109 373.195V368.673H175.241V367.623H176.109V366.097H177.341V367.623H179.455V368.673H177.341V373.041C177.341 373.349 177.416 373.573 177.565 373.713C177.724 373.853 177.999 373.923 178.391 373.923C178.755 373.923 179.087 373.82 179.385 373.615V374.735Z" fill="#18123D"/>
<rect x="265" y="433" width="148" height="42" rx="4" fill="white" stroke="#67B0F8" stroke-width="2"/>
<path d="M306.577 448.851H309.951C310.623 448.851 311.249 448.93 311.827 449.089C312.406 449.248 312.91 449.509 313.339 449.873C313.769 450.237 314.105 450.718 314.347 451.315C314.59 451.912 314.711 452.65 314.711 453.527C314.711 454.414 314.585 455.193 314.333 455.865C314.091 456.528 313.75 457.083 313.311 457.531C312.882 457.979 312.364 458.32 311.757 458.553C311.16 458.777 310.507 458.889 309.797 458.889H306.577V448.851ZM307.893 450.055V457.699H309.797C310.311 457.699 310.782 457.62 311.211 457.461C311.641 457.302 312.009 457.06 312.317 456.733C312.625 456.397 312.863 455.972 313.031 455.459C313.199 454.946 313.283 454.334 313.283 453.625C313.283 452.925 313.199 452.346 313.031 451.889C312.863 451.422 312.63 451.054 312.331 450.783C312.042 450.512 311.692 450.326 311.281 450.223C310.871 450.111 310.427 450.055 309.951 450.055H307.893ZM322.145 458.273C322.042 458.348 321.916 458.427 321.767 458.511C321.617 458.595 321.435 458.679 321.221 458.763C321.006 458.838 320.763 458.898 320.493 458.945C320.222 459.001 319.919 459.029 319.583 459.029C318.36 459.029 317.431 458.698 316.796 458.035C316.162 457.372 315.844 456.444 315.844 455.249C315.844 454.661 315.928 454.134 316.096 453.667C316.274 453.2 316.516 452.808 316.824 452.491C317.132 452.164 317.496 451.917 317.917 451.749C318.337 451.572 318.794 451.483 319.289 451.483C319.811 451.483 320.278 451.572 320.688 451.749C321.099 451.926 321.435 452.188 321.696 452.533C321.967 452.878 322.149 453.308 322.243 453.821C322.345 454.325 322.345 454.913 322.243 455.585H317.118C317.165 456.369 317.398 456.957 317.819 457.349C318.239 457.732 318.864 457.923 319.694 457.923C320.254 457.923 320.735 457.844 321.137 457.685C321.538 457.526 321.874 457.354 322.145 457.167V458.273ZM319.261 452.575C318.729 452.575 318.271 452.738 317.888 453.065C317.506 453.392 317.263 453.886 317.16 454.549H321.067C321.104 453.877 320.95 453.382 320.605 453.065C320.259 452.738 319.811 452.575 319.261 452.575ZM328.042 457.503C327.958 457.671 327.851 457.848 327.72 458.035C327.59 458.212 327.426 458.376 327.23 458.525C327.034 458.674 326.801 458.796 326.53 458.889C326.269 458.982 325.961 459.029 325.606 459.029C324.953 459.029 324.426 458.847 324.024 458.483C323.623 458.11 323.422 457.578 323.422 456.887C323.422 456.094 323.698 455.51 324.248 455.137C324.808 454.764 325.602 454.577 326.628 454.577H327.986V453.975C327.986 453.471 327.856 453.112 327.594 452.897C327.333 452.682 326.885 452.575 326.25 452.575C325.802 452.575 325.378 452.65 324.976 452.799C324.575 452.939 324.216 453.102 323.898 453.289V452.183C324.16 452.024 324.51 451.87 324.948 451.721C325.396 451.562 325.886 451.483 326.418 451.483C327.333 451.483 328.028 451.674 328.504 452.057C328.98 452.43 329.218 453.014 329.218 453.807V457.713C329.218 457.797 329.218 457.895 329.218 458.007C329.228 458.11 329.232 458.217 329.232 458.329C329.242 458.441 329.251 458.548 329.26 458.651C329.27 458.744 329.279 458.824 329.288 458.889H328.168C328.14 458.758 328.112 458.576 328.084 458.343C328.066 458.1 328.056 457.89 328.056 457.713L328.042 457.503ZM325.872 457.923C326.255 457.923 326.582 457.844 326.852 457.685C327.123 457.526 327.342 457.344 327.51 457.139C327.678 456.924 327.8 456.719 327.874 456.523C327.949 456.318 327.986 456.173 327.986 456.089V455.557H326.754C326.017 455.557 325.48 455.664 325.144 455.879C324.818 456.084 324.654 456.397 324.654 456.817C324.654 457.144 324.752 457.41 324.948 457.615C325.144 457.82 325.452 457.923 325.872 457.923ZM334.291 459.029C333.731 459.029 333.223 458.945 332.765 458.777C332.317 458.6 331.935 458.352 331.617 458.035C331.3 457.708 331.057 457.312 330.889 456.845C330.721 456.378 330.637 455.846 330.637 455.249C330.637 454.661 330.721 454.134 330.889 453.667C331.067 453.2 331.314 452.808 331.631 452.491C331.949 452.164 332.336 451.917 332.793 451.749C333.251 451.572 333.769 451.483 334.347 451.483C334.795 451.483 335.206 451.534 335.579 451.637C335.953 451.73 336.261 451.87 336.503 452.057V453.163C336.205 452.967 335.869 452.822 335.495 452.729C335.131 452.626 334.753 452.575 334.361 452.575C333.512 452.575 332.887 452.794 332.485 453.233C332.093 453.672 331.897 454.344 331.897 455.249C331.897 456.154 332.089 456.826 332.471 457.265C332.854 457.704 333.461 457.923 334.291 457.923C334.73 457.923 335.131 457.872 335.495 457.769C335.869 457.657 336.205 457.517 336.503 457.349V458.455C336.242 458.614 335.925 458.749 335.551 458.861C335.187 458.973 334.767 459.029 334.291 459.029ZM341.629 458.735C341.48 458.819 341.289 458.889 341.055 458.945C340.822 459.001 340.575 459.029 340.313 459.029C339.959 459.029 339.655 458.978 339.403 458.875C339.161 458.772 338.96 458.637 338.801 458.469C338.643 458.292 338.526 458.096 338.451 457.881C338.386 457.657 338.353 457.428 338.353 457.195V452.673H337.485V451.623H338.353V450.097H339.585V451.623H341.699V452.673H339.585V457.041C339.585 457.349 339.66 457.573 339.809 457.713C339.968 457.853 340.243 457.923 340.635 457.923C340.999 457.923 341.331 457.82 341.629 457.615V458.735ZM343.899 450.559C343.647 450.559 343.446 450.484 343.297 450.335C343.147 450.176 343.073 449.985 343.073 449.761C343.073 449.537 343.147 449.346 343.297 449.187C343.446 449.028 343.647 448.949 343.899 448.949C344.141 448.949 344.333 449.028 344.473 449.187C344.613 449.346 344.683 449.537 344.683 449.761C344.683 449.985 344.613 450.176 344.473 450.335C344.333 450.484 344.141 450.559 343.899 450.559ZM344.501 451.623V458.889H343.269V451.623H344.501ZM350.121 458.889H348.133L345.641 451.623H346.971L349.183 458.231L351.381 451.623H352.613L350.121 458.889ZM357.943 457.503C357.859 457.671 357.751 457.848 357.621 458.035C357.49 458.212 357.327 458.376 357.131 458.525C356.935 458.674 356.701 458.796 356.431 458.889C356.169 458.982 355.861 459.029 355.507 459.029C354.853 459.029 354.326 458.847 353.925 458.483C353.523 458.11 353.323 457.578 353.323 456.887C353.323 456.094 353.598 455.51 354.149 455.137C354.709 454.764 355.502 454.577 356.529 454.577H357.887V453.975C357.887 453.471 357.756 453.112 357.495 452.897C357.233 452.682 356.785 452.575 356.151 452.575C355.703 452.575 355.278 452.65 354.877 452.799C354.475 452.939 354.116 453.102 353.799 453.289V452.183C354.06 452.024 354.41 451.87 354.849 451.721C355.297 451.562 355.787 451.483 356.319 451.483C357.233 451.483 357.929 451.674 358.405 452.057C358.881 452.43 359.119 453.014 359.119 453.807V457.713C359.119 457.797 359.119 457.895 359.119 458.007C359.128 458.11 359.133 458.217 359.133 458.329C359.142 458.441 359.151 458.548 359.161 458.651C359.17 458.744 359.179 458.824 359.189 458.889H358.069C358.041 458.758 358.013 458.576 357.985 458.343C357.966 458.1 357.957 457.89 357.957 457.713L357.943 457.503ZM355.773 457.923C356.155 457.923 356.482 457.844 356.753 457.685C357.023 457.526 357.243 457.344 357.411 457.139C357.579 456.924 357.7 456.719 357.775 456.523C357.849 456.318 357.887 456.173 357.887 456.089V455.557H356.655C355.917 455.557 355.381 455.664 355.045 455.879C354.718 456.084 354.555 456.397 354.555 456.817C354.555 457.144 354.653 457.41 354.849 457.615C355.045 457.82 355.353 457.923 355.773 457.923ZM364.612 458.735C364.463 458.819 364.271 458.889 364.038 458.945C363.805 459.001 363.557 459.029 363.296 459.029C362.941 459.029 362.638 458.978 362.386 458.875C362.143 458.772 361.943 458.637 361.784 458.469C361.625 458.292 361.509 458.096 361.434 457.881C361.369 457.657 361.336 457.428 361.336 457.195V452.673H360.468V451.623H361.336V450.097H362.568V451.623H364.682V452.673H362.568V457.041C362.568 457.349 362.643 457.573 362.792 457.713C362.951 457.853 363.226 457.923 363.618 457.923C363.982 457.923 364.313 457.82 364.612 457.615V458.735ZM371.965 458.273C371.862 458.348 371.736 458.427 371.587 458.511C371.437 458.595 371.255 458.679 371.041 458.763C370.826 458.838 370.583 458.898 370.313 458.945C370.042 459.001 369.739 459.029 369.403 459.029C368.18 459.029 367.251 458.698 366.617 458.035C365.982 457.372 365.665 456.444 365.665 455.249C365.665 454.661 365.749 454.134 365.917 453.667C366.094 453.2 366.337 452.808 366.645 452.491C366.953 452.164 367.317 451.917 367.737 451.749C368.157 451.572 368.614 451.483 369.109 451.483C369.631 451.483 370.098 451.572 370.509 451.749C370.919 451.926 371.255 452.188 371.517 452.533C371.787 452.878 371.969 453.308 372.063 453.821C372.165 454.325 372.165 454.913 372.063 455.585H366.939C366.985 456.369 367.219 456.957 367.639 457.349C368.059 457.732 368.684 457.923 369.515 457.923C370.075 457.923 370.555 457.844 370.957 457.685C371.358 457.526 371.694 457.354 371.965 457.167V458.273ZM369.081 452.575C368.549 452.575 368.091 452.738 367.709 453.065C367.326 453.392 367.083 453.886 366.981 454.549H370.887C370.924 453.877 370.77 453.382 370.425 453.065C370.079 452.738 369.631 452.575 369.081 452.575Z" fill="#18123D"/>
<rect x="446" y="180" width="150" height="44" rx="5" fill="#FFDADA"/>
<path d="M506.44 196.851H512.656V198.055H507.756V201.093H511.914V202.283H507.756V205.699H512.726V206.889H506.44V196.851ZM518.237 200.855C517.714 200.902 517.238 201.037 516.809 201.261C516.389 201.476 516.076 201.812 515.871 202.269V206.889H514.639V199.623H515.717L515.843 201.205H515.871C516.076 200.776 516.37 200.402 516.753 200.085C517.145 199.758 517.64 199.558 518.237 199.483V200.855ZM523.336 200.855C522.814 200.902 522.338 201.037 521.908 201.261C521.488 201.476 521.176 201.812 520.97 202.269V206.889H519.738V199.623H520.816L520.942 201.205H520.97C521.176 200.776 521.47 200.402 521.852 200.085C522.244 199.758 522.739 199.558 523.336 199.483V200.855ZM527.615 207.029C527.12 207.029 526.658 206.945 526.229 206.777C525.8 206.609 525.426 206.366 525.109 206.049C524.801 205.722 524.558 205.326 524.381 204.859C524.204 204.392 524.115 203.856 524.115 203.249C524.115 202.652 524.204 202.12 524.381 201.653C524.558 201.177 524.801 200.78 525.109 200.463C525.426 200.146 525.8 199.903 526.229 199.735C526.658 199.567 527.12 199.483 527.615 199.483C528.119 199.483 528.586 199.567 529.015 199.735C529.444 199.903 529.813 200.146 530.121 200.463C530.438 200.78 530.686 201.177 530.863 201.653C531.05 202.12 531.143 202.652 531.143 203.249C531.143 203.856 531.05 204.392 530.863 204.859C530.686 205.326 530.438 205.722 530.121 206.049C529.813 206.366 529.444 206.609 529.015 206.777C528.586 206.945 528.119 207.029 527.615 207.029ZM527.615 205.923C527.942 205.923 528.24 205.872 528.511 205.769C528.791 205.657 529.034 205.494 529.239 205.279C529.444 205.055 529.603 204.775 529.715 204.439C529.827 204.103 529.883 203.706 529.883 203.249C529.883 202.792 529.827 202.395 529.715 202.059C529.603 201.723 529.444 201.448 529.239 201.233C529.034 201.009 528.791 200.846 528.511 200.743C528.24 200.631 527.942 200.575 527.615 200.575C527.288 200.575 526.99 200.631 526.719 200.743C526.448 200.846 526.21 201.009 526.005 201.233C525.809 201.448 525.655 201.723 525.543 202.059C525.431 202.395 525.375 202.792 525.375 203.249C525.375 203.706 525.431 204.103 525.543 204.439C525.655 204.775 525.809 205.055 526.005 205.279C526.21 205.494 526.448 205.657 526.719 205.769C526.99 205.872 527.288 205.923 527.615 205.923ZM536.243 200.855C535.72 200.902 535.244 201.037 534.815 201.261C534.395 201.476 534.082 201.812 533.877 202.269V206.889H532.645V199.623H533.723L533.849 201.205H533.877C534.082 200.776 534.376 200.402 534.759 200.085C535.151 199.758 535.645 199.558 536.243 199.483V200.855Z" fill="#18123D"/>
<rect x="264" y="180" width="150" height="44" rx="5" fill="#D3E3FC"/>
<path d="M317.624 207.029C316.877 207.029 316.2 206.912 315.594 206.679C314.987 206.446 314.464 206.11 314.026 205.671C313.596 205.223 313.265 204.682 313.032 204.047C312.798 203.403 312.682 202.68 312.682 201.877C312.682 201.065 312.789 200.342 313.004 199.707C313.218 199.072 313.536 198.536 313.956 198.097C314.376 197.649 314.889 197.308 315.496 197.075C316.112 196.842 316.812 196.725 317.596 196.725C318.277 196.725 318.874 196.8 319.388 196.949C319.901 197.089 320.321 197.257 320.648 197.453V198.713C320.228 198.442 319.742 198.242 319.192 198.111C318.65 197.98 318.114 197.915 317.582 197.915C316.396 197.915 315.519 198.246 314.95 198.909C314.39 199.562 314.11 200.552 314.11 201.877C314.11 203.212 314.413 204.206 315.02 204.859C315.636 205.512 316.541 205.839 317.736 205.839C318.249 205.839 318.748 205.769 319.234 205.629C319.728 205.489 320.2 205.251 320.648 204.915V206.175C320.377 206.39 319.98 206.586 319.458 206.763C318.944 206.94 318.333 207.029 317.624 207.029ZM326.092 200.855C325.57 200.902 325.094 201.037 324.664 201.261C324.244 201.476 323.932 201.812 323.726 202.269V206.889H322.494V199.623H323.572L323.698 201.205H323.726C323.932 200.776 324.226 200.402 324.608 200.085C325 199.758 325.495 199.558 326.092 199.483V200.855ZM333.171 206.273C333.068 206.348 332.942 206.427 332.793 206.511C332.644 206.595 332.462 206.679 332.247 206.763C332.032 206.838 331.79 206.898 331.519 206.945C331.248 207.001 330.945 207.029 330.609 207.029C329.386 207.029 328.458 206.698 327.823 206.035C327.188 205.372 326.871 204.444 326.871 203.249C326.871 202.661 326.955 202.134 327.123 201.667C327.3 201.2 327.543 200.808 327.851 200.491C328.159 200.164 328.523 199.917 328.943 199.749C329.363 199.572 329.82 199.483 330.315 199.483C330.838 199.483 331.304 199.572 331.715 199.749C332.126 199.926 332.462 200.188 332.723 200.533C332.994 200.878 333.176 201.308 333.269 201.821C333.372 202.325 333.372 202.913 333.269 203.585H328.145C328.192 204.369 328.425 204.957 328.845 205.349C329.265 205.732 329.89 205.923 330.721 205.923C331.281 205.923 331.762 205.844 332.163 205.685C332.564 205.526 332.9 205.354 333.171 205.167V206.273ZM330.287 200.575C329.755 200.575 329.298 200.738 328.915 201.065C328.532 201.392 328.29 201.886 328.187 202.549H332.093C332.13 201.877 331.976 201.382 331.631 201.065C331.286 200.738 330.838 200.575 330.287 200.575ZM339.069 205.503C338.985 205.671 338.877 205.848 338.747 206.035C338.616 206.212 338.453 206.376 338.257 206.525C338.061 206.674 337.827 206.796 337.557 206.889C337.295 206.982 336.987 207.029 336.633 207.029C335.979 207.029 335.452 206.847 335.051 206.483C334.649 206.11 334.449 205.578 334.449 204.887C334.449 204.094 334.724 203.51 335.275 203.137C335.835 202.764 336.628 202.577 337.655 202.577H339.013V201.975C339.013 201.471 338.882 201.112 338.621 200.897C338.359 200.682 337.911 200.575 337.277 200.575C336.829 200.575 336.404 200.65 336.003 200.799C335.601 200.939 335.242 201.102 334.925 201.289V200.183C335.186 200.024 335.536 199.87 335.975 199.721C336.423 199.562 336.913 199.483 337.445 199.483C338.359 199.483 339.055 199.674 339.531 200.057C340.007 200.43 340.245 201.014 340.245 201.807V205.713C340.245 205.797 340.245 205.895 340.245 206.007C340.254 206.11 340.259 206.217 340.259 206.329C340.268 206.441 340.277 206.548 340.287 206.651C340.296 206.744 340.305 206.824 340.315 206.889H339.195C339.167 206.758 339.139 206.576 339.111 206.343C339.092 206.1 339.083 205.89 339.083 205.713L339.069 205.503ZM336.899 205.923C337.281 205.923 337.608 205.844 337.879 205.685C338.149 205.526 338.369 205.344 338.537 205.139C338.705 204.924 338.826 204.719 338.901 204.523C338.975 204.318 339.013 204.173 339.013 204.089V203.557H337.781C337.043 203.557 336.507 203.664 336.171 203.879C335.844 204.084 335.681 204.397 335.681 204.817C335.681 205.144 335.779 205.41 335.975 205.615C336.171 205.82 336.479 205.923 336.899 205.923ZM345.738 206.735C345.589 206.819 345.397 206.889 345.164 206.945C344.931 207.001 344.683 207.029 344.422 207.029C344.067 207.029 343.764 206.978 343.512 206.875C343.269 206.772 343.069 206.637 342.91 206.469C342.751 206.292 342.635 206.096 342.56 205.881C342.495 205.657 342.462 205.428 342.462 205.195V200.673H341.594V199.623H342.462V198.097H343.694V199.623H345.808V200.673H343.694V205.041C343.694 205.349 343.769 205.573 343.918 205.713C344.077 205.853 344.352 205.923 344.744 205.923C345.108 205.923 345.439 205.82 345.738 205.615V206.735ZM348.007 198.559C347.755 198.559 347.554 198.484 347.405 198.335C347.256 198.176 347.181 197.985 347.181 197.761C347.181 197.537 347.256 197.346 347.405 197.187C347.554 197.028 347.755 196.949 348.007 196.949C348.25 196.949 348.441 197.028 348.581 197.187C348.721 197.346 348.791 197.537 348.791 197.761C348.791 197.985 348.721 198.176 348.581 198.335C348.441 198.484 348.25 198.559 348.007 198.559ZM348.609 199.623V206.889H347.377V199.623H348.609ZM354.061 200.575C353.501 200.575 353.044 200.706 352.689 200.967C352.344 201.219 352.064 201.546 351.849 201.947V206.889H350.617V199.623H351.779L351.821 200.925H351.849C352.045 200.505 352.353 200.16 352.773 199.889C353.193 199.618 353.725 199.483 354.369 199.483C355.088 199.483 355.657 199.674 356.077 200.057C356.507 200.43 356.721 201.009 356.721 201.793V206.889H355.489V201.919C355.489 201.415 355.363 201.065 355.111 200.869C354.859 200.673 354.509 200.575 354.061 200.575ZM364.914 206.273C364.914 206.74 364.844 207.164 364.704 207.547C364.573 207.939 364.359 208.27 364.06 208.541C363.771 208.812 363.393 209.022 362.926 209.171C362.469 209.32 361.913 209.395 361.26 209.395C360.905 209.395 360.593 209.376 360.322 209.339C360.051 209.302 359.813 209.25 359.608 209.185C359.412 209.129 359.244 209.064 359.104 208.989C358.964 208.924 358.847 208.858 358.754 208.793V207.687C358.903 207.771 359.057 207.846 359.216 207.911C359.384 207.986 359.566 208.051 359.762 208.107C359.958 208.163 360.177 208.205 360.42 208.233C360.672 208.27 360.957 208.289 361.274 208.289C362.17 208.289 362.795 208.121 363.15 207.785C363.505 207.449 363.682 206.95 363.682 206.287V205.167C363.467 205.596 363.164 205.942 362.772 206.203C362.389 206.464 361.913 206.595 361.344 206.595C360.915 206.595 360.504 206.52 360.112 206.371C359.729 206.222 359.389 206.002 359.09 205.713C358.801 205.414 358.567 205.046 358.39 204.607C358.222 204.159 358.138 203.641 358.138 203.053C358.138 202.456 358.222 201.938 358.39 201.499C358.567 201.051 358.801 200.678 359.09 200.379C359.389 200.08 359.734 199.856 360.126 199.707C360.518 199.558 360.933 199.483 361.372 199.483C361.951 199.483 362.436 199.614 362.828 199.875C363.229 200.136 363.542 200.491 363.766 200.939L363.78 200.785C363.78 200.617 363.789 200.416 363.808 200.183C363.827 199.94 363.845 199.754 363.864 199.623H364.984C364.965 199.754 364.947 199.94 364.928 200.183C364.919 200.426 364.914 200.626 364.914 200.785V206.273ZM361.568 205.489C361.876 205.489 362.156 205.442 362.408 205.349C362.669 205.246 362.893 205.092 363.08 204.887C363.276 204.682 363.425 204.43 363.528 204.131C363.64 203.823 363.696 203.464 363.696 203.053C363.696 202.222 363.491 201.602 363.08 201.191C362.679 200.78 362.17 200.575 361.554 200.575C361.246 200.575 360.957 200.626 360.686 200.729C360.425 200.832 360.196 200.986 360 201.191C359.813 201.396 359.664 201.658 359.552 201.975C359.44 202.283 359.384 202.642 359.384 203.053C359.384 203.464 359.44 203.823 359.552 204.131C359.664 204.43 359.818 204.682 360.014 204.887C360.21 205.083 360.439 205.232 360.7 205.335C360.971 205.438 361.26 205.489 361.568 205.489Z" fill="#18123D"/>
<rect x="265" y="97" width="148" height="42" rx="4" fill="white" stroke="#67B0F8" stroke-width="2"/>
<path d="M316.846 112.851H318.806L322.404 122.889H321.004L319.968 120.019H315.53L314.508 122.889H313.276L316.846 112.851ZM319.548 118.829L317.756 113.831L315.964 118.829H319.548ZM326.697 123.029C326.137 123.029 325.628 122.945 325.171 122.777C324.723 122.6 324.34 122.352 324.023 122.035C323.705 121.708 323.463 121.312 323.295 120.845C323.127 120.378 323.043 119.846 323.043 119.249C323.043 118.661 323.127 118.134 323.295 117.667C323.472 117.2 323.719 116.808 324.037 116.491C324.354 116.164 324.741 115.917 325.199 115.749C325.656 115.572 326.174 115.483 326.753 115.483C327.201 115.483 327.611 115.534 327.985 115.637C328.358 115.73 328.666 115.87 328.909 116.057V117.163C328.61 116.967 328.274 116.822 327.901 116.729C327.537 116.626 327.159 116.575 326.767 116.575C325.917 116.575 325.292 116.794 324.891 117.233C324.499 117.672 324.303 118.344 324.303 119.249C324.303 120.154 324.494 120.826 324.877 121.265C325.259 121.704 325.866 121.923 326.697 121.923C327.135 121.923 327.537 121.872 327.901 121.769C328.274 121.657 328.61 121.517 328.909 121.349V122.455C328.647 122.614 328.33 122.749 327.957 122.861C327.593 122.973 327.173 123.029 326.697 123.029ZM334.035 122.735C333.885 122.819 333.694 122.889 333.461 122.945C333.227 123.001 332.98 123.029 332.719 123.029C332.364 123.029 332.061 122.978 331.809 122.875C331.566 122.772 331.365 122.637 331.207 122.469C331.048 122.292 330.931 122.096 330.857 121.881C330.791 121.657 330.759 121.428 330.759 121.195V116.673H329.891V115.623H330.759V114.097H331.991V115.623H334.105V116.673H331.991V121.041C331.991 121.349 332.065 121.573 332.215 121.713C332.373 121.853 332.649 121.923 333.041 121.923C333.405 121.923 333.736 121.82 334.035 121.615V122.735ZM336.304 114.559C336.052 114.559 335.851 114.484 335.702 114.335C335.553 114.176 335.478 113.985 335.478 113.761C335.478 113.537 335.553 113.346 335.702 113.187C335.851 113.028 336.052 112.949 336.304 112.949C336.547 112.949 336.738 113.028 336.878 113.187C337.018 113.346 337.088 113.537 337.088 113.761C337.088 113.985 337.018 114.176 336.878 114.335C336.738 114.484 336.547 114.559 336.304 114.559ZM336.906 115.623V122.889H335.674V115.623H336.906ZM342.526 122.889H340.538L338.046 115.623H339.376L341.588 122.231L343.786 115.623H345.018L342.526 122.889ZM350.348 121.503C350.264 121.671 350.157 121.848 350.026 122.035C349.895 122.212 349.732 122.376 349.536 122.525C349.34 122.674 349.107 122.796 348.836 122.889C348.575 122.982 348.267 123.029 347.912 123.029C347.259 123.029 346.731 122.847 346.33 122.483C345.929 122.11 345.728 121.578 345.728 120.887C345.728 120.094 346.003 119.51 346.554 119.137C347.114 118.764 347.907 118.577 348.934 118.577H350.292V117.975C350.292 117.471 350.161 117.112 349.9 116.897C349.639 116.682 349.191 116.575 348.556 116.575C348.108 116.575 347.683 116.65 347.282 116.799C346.881 116.939 346.521 117.102 346.204 117.289V116.183C346.465 116.024 346.815 115.87 347.254 115.721C347.702 115.562 348.192 115.483 348.724 115.483C349.639 115.483 350.334 115.674 350.81 116.057C351.286 116.43 351.524 117.014 351.524 117.807V121.713C351.524 121.797 351.524 121.895 351.524 122.007C351.533 122.11 351.538 122.217 351.538 122.329C351.547 122.441 351.557 122.548 351.566 122.651C351.575 122.744 351.585 122.824 351.594 122.889H350.474C350.446 122.758 350.418 122.576 350.39 122.343C350.371 122.1 350.362 121.89 350.362 121.713L350.348 121.503ZM348.178 121.923C348.561 121.923 348.887 121.844 349.158 121.685C349.429 121.526 349.648 121.344 349.816 121.139C349.984 120.924 350.105 120.719 350.18 120.523C350.255 120.318 350.292 120.173 350.292 120.089V119.557H349.06C348.323 119.557 347.786 119.664 347.45 119.879C347.123 120.084 346.96 120.397 346.96 120.817C346.96 121.144 347.058 121.41 347.254 121.615C347.45 121.82 347.758 121.923 348.178 121.923ZM357.017 122.735C356.868 122.819 356.676 122.889 356.443 122.945C356.21 123.001 355.962 123.029 355.701 123.029C355.346 123.029 355.043 122.978 354.791 122.875C354.548 122.772 354.348 122.637 354.189 122.469C354.03 122.292 353.914 122.096 353.839 121.881C353.774 121.657 353.741 121.428 353.741 121.195V116.673H352.873V115.623H353.741V114.097H354.973V115.623H357.087V116.673H354.973V121.041C354.973 121.349 355.048 121.573 355.197 121.713C355.356 121.853 355.631 121.923 356.023 121.923C356.387 121.923 356.718 121.82 357.017 121.615V122.735ZM364.37 122.273C364.267 122.348 364.141 122.427 363.992 122.511C363.843 122.595 363.661 122.679 363.446 122.763C363.231 122.838 362.989 122.898 362.718 122.945C362.447 123.001 362.144 123.029 361.808 123.029C360.585 123.029 359.657 122.698 359.022 122.035C358.387 121.372 358.07 120.444 358.07 119.249C358.07 118.661 358.154 118.134 358.322 117.667C358.499 117.2 358.742 116.808 359.05 116.491C359.358 116.164 359.722 115.917 360.142 115.749C360.562 115.572 361.019 115.483 361.514 115.483C362.037 115.483 362.503 115.572 362.914 115.749C363.325 115.926 363.661 116.188 363.922 116.533C364.193 116.878 364.375 117.308 364.468 117.821C364.571 118.325 364.571 118.913 364.468 119.585H359.344C359.391 120.369 359.624 120.957 360.044 121.349C360.464 121.732 361.089 121.923 361.92 121.923C362.48 121.923 362.961 121.844 363.362 121.685C363.763 121.526 364.099 121.354 364.37 121.167V122.273ZM361.486 116.575C360.954 116.575 360.497 116.738 360.114 117.065C359.731 117.392 359.489 117.886 359.386 118.549H363.292C363.329 117.877 363.175 117.382 362.83 117.065C362.485 116.738 362.037 116.575 361.486 116.575Z" fill="#18123D"/>
<rect x="264" y="12" width="150" height="44" rx="5" fill="#D3E3FC"/>
<path d="M319.517 39.0289C318.771 39.0289 318.094 38.9122 317.487 38.6789C316.881 38.4456 316.358 38.1096 315.919 37.6709C315.49 37.2229 315.159 36.6816 314.925 36.0469C314.692 35.4029 314.575 34.6796 314.575 33.8769C314.575 33.0649 314.683 32.3416 314.897 31.7069C315.112 31.0722 315.429 30.5356 315.849 30.0969C316.269 29.6489 316.783 29.3082 317.389 29.0749C318.005 28.8416 318.705 28.7249 319.489 28.7249C320.171 28.7249 320.768 28.7996 321.281 28.9489C321.795 29.0889 322.215 29.2569 322.541 29.4529V30.7129C322.121 30.4422 321.636 30.2416 321.085 30.1109C320.544 29.9802 320.007 29.9149 319.475 29.9149C318.29 29.9149 317.413 30.2462 316.843 30.9089C316.283 31.5622 316.003 32.5516 316.003 33.8769C316.003 35.2116 316.307 36.2056 316.913 36.8589C317.529 37.5122 318.435 37.8389 319.629 37.8389C320.143 37.8389 320.642 37.7689 321.127 37.6289C321.622 37.4889 322.093 37.2509 322.541 36.9149V38.1749C322.271 38.3896 321.874 38.5856 321.351 38.7629C320.838 38.9402 320.227 39.0289 319.517 39.0289ZM327.986 32.8549C327.463 32.9016 326.987 33.0369 326.558 33.2609C326.138 33.4756 325.825 33.8116 325.62 34.2689V38.8889H324.388V31.6229H325.466L325.592 33.2049H325.62C325.825 32.7756 326.119 32.4022 326.502 32.0849C326.894 31.7582 327.389 31.5576 327.986 31.4829V32.8549ZM335.064 38.2729C334.962 38.3476 334.836 38.4269 334.686 38.5109C334.537 38.5949 334.355 38.6789 334.14 38.7629C333.926 38.8376 333.683 38.8982 333.412 38.9449C333.142 39.0009 332.838 39.0289 332.502 39.0289C331.28 39.0289 330.351 38.6976 329.716 38.0349C329.082 37.3722 328.764 36.4436 328.764 35.2489C328.764 34.6609 328.848 34.1336 329.016 33.6669C329.194 33.2002 329.436 32.8082 329.744 32.4909C330.052 32.1642 330.416 31.9169 330.836 31.7489C331.256 31.5716 331.714 31.4829 332.208 31.4829C332.731 31.4829 333.198 31.5716 333.608 31.7489C334.019 31.9262 334.355 32.1876 334.616 32.5329C334.887 32.8782 335.069 33.3076 335.162 33.8209C335.265 34.3249 335.265 34.9129 335.162 35.5849H330.038C330.085 36.3689 330.318 36.9569 330.738 37.3489C331.158 37.7316 331.784 37.9229 332.614 37.9229C333.174 37.9229 333.655 37.8436 334.056 37.6849C334.458 37.5262 334.794 37.3536 335.064 37.1669V38.2729ZM332.18 32.5749C331.648 32.5749 331.191 32.7382 330.808 33.0649C330.426 33.3916 330.183 33.8862 330.08 34.5489H333.986C334.024 33.8769 333.87 33.3822 333.524 33.0649C333.179 32.7382 332.731 32.5749 332.18 32.5749ZM340.962 37.5029C340.878 37.6709 340.771 37.8482 340.64 38.0349C340.51 38.2122 340.346 38.3756 340.15 38.5249C339.954 38.6742 339.721 38.7956 339.45 38.8889C339.189 38.9822 338.881 39.0289 338.526 39.0289C337.873 39.0289 337.346 38.8469 336.944 38.4829C336.543 38.1096 336.342 37.5776 336.342 36.8869C336.342 36.0936 336.618 35.5102 337.168 35.1369C337.728 34.7636 338.522 34.5769 339.548 34.5769H340.906V33.9749C340.906 33.4709 340.776 33.1116 340.514 32.8969C340.253 32.6822 339.805 32.5749 339.17 32.5749C338.722 32.5749 338.298 32.6496 337.896 32.7989C337.495 32.9389 337.136 33.1022 336.818 33.2889V32.1829C337.08 32.0242 337.43 31.8702 337.868 31.7209C338.316 31.5622 338.806 31.4829 339.338 31.4829C340.253 31.4829 340.948 31.6742 341.424 32.0569C341.9 32.4302 342.138 33.0136 342.138 33.8069V37.7129C342.138 37.7969 342.138 37.8949 342.138 38.0069C342.148 38.1096 342.152 38.2169 342.152 38.3289C342.162 38.4409 342.171 38.5482 342.18 38.6509C342.19 38.7442 342.199 38.8236 342.208 38.8889H341.088C341.06 38.7582 341.032 38.5762 341.004 38.3429C340.986 38.1002 340.976 37.8902 340.976 37.7129L340.962 37.5029ZM338.792 37.9229C339.175 37.9229 339.502 37.8436 339.772 37.6849C340.043 37.5262 340.262 37.3442 340.43 37.1389C340.598 36.9242 340.72 36.7189 340.794 36.5229C340.869 36.3176 340.906 36.1729 340.906 36.0889V35.5569H339.674C338.937 35.5569 338.4 35.6642 338.064 35.8789C337.738 36.0842 337.574 36.3969 337.574 36.8169C337.574 37.1436 337.672 37.4096 337.868 37.6149C338.064 37.8202 338.372 37.9229 338.792 37.9229ZM347.631 38.7349C347.482 38.8189 347.291 38.8889 347.057 38.9449C346.824 39.0009 346.577 39.0289 346.315 39.0289C345.961 39.0289 345.657 38.9776 345.405 38.8749C345.163 38.7722 344.962 38.6369 344.803 38.4689C344.645 38.2916 344.528 38.0956 344.453 37.8809C344.388 37.6569 344.355 37.4282 344.355 37.1949V32.6729H343.487V31.6229H344.355V30.0969H345.587V31.6229H347.701V32.6729H345.587V37.0409C345.587 37.3489 345.662 37.5729 345.811 37.7129C345.97 37.8529 346.245 37.9229 346.637 37.9229C347.001 37.9229 347.333 37.8202 347.631 37.6149V38.7349ZM354.984 38.2729C354.882 38.3476 354.756 38.4269 354.606 38.5109C354.457 38.5949 354.275 38.6789 354.06 38.7629C353.846 38.8376 353.603 38.8982 353.332 38.9449C353.062 39.0009 352.758 39.0289 352.422 39.0289C351.2 39.0289 350.271 38.6976 349.636 38.0349C349.002 37.3722 348.684 36.4436 348.684 35.2489C348.684 34.6609 348.768 34.1336 348.936 33.6669C349.114 33.2002 349.356 32.8082 349.664 32.4909C349.972 32.1642 350.336 31.9169 350.756 31.7489C351.176 31.5716 351.634 31.4829 352.128 31.4829C352.651 31.4829 353.118 31.5716 353.528 31.7489C353.939 31.9262 354.275 32.1876 354.536 32.5329C354.807 32.8782 354.989 33.3076 355.082 33.8209C355.185 34.3249 355.185 34.9129 355.082 35.5849H349.958C350.005 36.3689 350.238 36.9569 350.658 37.3489C351.078 37.7316 351.704 37.9229 352.534 37.9229C353.094 37.9229 353.575 37.8436 353.976 37.6849C354.378 37.5262 354.714 37.3536 354.984 37.1669V38.2729ZM352.1 32.5749C351.568 32.5749 351.111 32.7382 350.728 33.0649C350.346 33.3916 350.103 33.8862 350 34.5489H353.906C353.944 33.8769 353.79 33.3822 353.444 33.0649C353.099 32.7382 352.651 32.5749 352.1 32.5749ZM361.834 37.4609C361.61 37.9369 361.298 38.3196 360.896 38.6089C360.495 38.8889 359.986 39.0289 359.37 39.0289C358.932 39.0289 358.516 38.9542 358.124 38.8049C357.732 38.6462 357.387 38.4129 357.088 38.1049C356.79 37.7876 356.552 37.3956 356.374 36.9289C356.197 36.4529 356.108 35.8929 356.108 35.2489C356.108 34.6142 356.197 34.0636 356.374 33.5969C356.552 33.1209 356.79 32.7289 357.088 32.4209C357.387 32.1036 357.732 31.8702 358.124 31.7209C358.526 31.5622 358.946 31.4829 359.384 31.4829C359.935 31.4829 360.411 31.5996 360.812 31.8329C361.214 32.0569 361.536 32.3789 361.778 32.7989V28.8509H363.01V38.8889H361.932L361.834 37.4609ZM359.552 37.9229C359.87 37.9229 360.164 37.8716 360.434 37.7689C360.705 37.6569 360.938 37.4889 361.134 37.2649C361.34 37.0409 361.498 36.7609 361.61 36.4249C361.732 36.0889 361.792 35.6969 361.792 35.2489C361.792 34.8009 361.732 34.4089 361.61 34.0729C361.498 33.7369 361.34 33.4569 361.134 33.2329C360.938 33.0089 360.705 32.8456 360.434 32.7429C360.164 32.6309 359.87 32.5749 359.552 32.5749C358.908 32.5749 358.381 32.8036 357.97 33.2609C357.569 33.7089 357.368 34.3716 357.368 35.2489C357.368 36.1356 357.574 36.8029 357.984 37.2509C358.395 37.6989 358.918 37.9229 359.552 37.9229Z" fill="#18123D"/>
<path d="M339 264L333.226 254L344.774 254L339 264ZM338 255L338 224L340 224L340 255L338 255Z" fill="#4E496B"/>
<path d="M339 348L333.226 338L344.774 338L339 348ZM338 339L338 308L340 308L340 339L338 339Z" fill="#4E496B"/>
<path d="M232 370L242 375.774L242 364.226L232 370ZM241 371L264 371L264 369L241 369L241 371Z" fill="#4E496B"/>
<path d="M339 432L333.226 422L344.774 422L339 432ZM338 423L338 392L340 392L340 423L338 423Z" fill="#4E496B"/>
<path d="M339 516L333.226 506L344.774 506L339 516ZM338 507L338 476L340 476L340 507L338 507Z" fill="#4E496B"/>
<path d="M339 600L333.226 590L344.774 590L339 600ZM338 591L338 560L340 560L340 591L338 591Z" fill="#4E496B"/>
<path d="M339 684L333.226 674L344.774 674L339 684ZM338 675L338 644L340 644L340 675L338 675Z" fill="#4E496B"/>
<rect x="264" y="264" width="150" height="44" rx="5" fill="#D3E3FC"/>
<path d="M318.212 291.029C317.465 291.029 316.788 290.912 316.182 290.679C315.575 290.446 315.052 290.11 314.614 289.671C314.184 289.223 313.853 288.682 313.62 288.047C313.386 287.403 313.27 286.68 313.27 285.877C313.27 285.065 313.377 284.342 313.592 283.707C313.806 283.072 314.124 282.536 314.544 282.097C314.964 281.649 315.477 281.308 316.084 281.075C316.7 280.842 317.4 280.725 318.184 280.725C318.865 280.725 319.462 280.8 319.976 280.949C320.489 281.089 320.909 281.257 321.236 281.453V282.713C320.816 282.442 320.33 282.242 319.78 282.111C319.238 281.98 318.702 281.915 318.17 281.915C316.984 281.915 316.107 282.246 315.538 282.909C314.978 283.562 314.698 284.552 314.698 285.877C314.698 287.212 315.001 288.206 315.608 288.859C316.224 289.512 317.129 289.839 318.324 289.839C318.837 289.839 319.336 289.769 319.822 289.629C320.316 289.489 320.788 289.251 321.236 288.915V290.175C320.965 290.39 320.568 290.586 320.046 290.763C319.532 290.94 318.921 291.029 318.212 291.029ZM325.996 291.029C325.501 291.029 325.039 290.945 324.61 290.777C324.181 290.609 323.807 290.366 323.49 290.049C323.182 289.722 322.939 289.326 322.762 288.859C322.585 288.392 322.496 287.856 322.496 287.249C322.496 286.652 322.585 286.12 322.762 285.653C322.939 285.177 323.182 284.78 323.49 284.463C323.807 284.146 324.181 283.903 324.61 283.735C325.039 283.567 325.501 283.483 325.996 283.483C326.5 283.483 326.967 283.567 327.396 283.735C327.825 283.903 328.194 284.146 328.502 284.463C328.819 284.78 329.067 285.177 329.244 285.653C329.431 286.12 329.524 286.652 329.524 287.249C329.524 287.856 329.431 288.392 329.244 288.859C329.067 289.326 328.819 289.722 328.502 290.049C328.194 290.366 327.825 290.609 327.396 290.777C326.967 290.945 326.5 291.029 325.996 291.029ZM325.996 289.923C326.323 289.923 326.621 289.872 326.892 289.769C327.172 289.657 327.415 289.494 327.62 289.279C327.825 289.055 327.984 288.775 328.096 288.439C328.208 288.103 328.264 287.706 328.264 287.249C328.264 286.792 328.208 286.395 328.096 286.059C327.984 285.723 327.825 285.448 327.62 285.233C327.415 285.009 327.172 284.846 326.892 284.743C326.621 284.631 326.323 284.575 325.996 284.575C325.669 284.575 325.371 284.631 325.1 284.743C324.829 284.846 324.591 285.009 324.386 285.233C324.19 285.448 324.036 285.723 323.924 286.059C323.812 286.395 323.756 286.792 323.756 287.249C323.756 287.706 323.812 288.103 323.924 288.439C324.036 288.775 324.19 289.055 324.386 289.279C324.591 289.494 324.829 289.657 325.1 289.769C325.371 289.872 325.669 289.923 325.996 289.923ZM334.68 291.029C334.12 291.029 333.634 290.898 333.224 290.637C332.822 290.376 332.5 290.016 332.258 289.559V293.367H331.026V283.623H332.104L332.23 285.037C332.472 284.561 332.799 284.183 333.21 283.903C333.62 283.623 334.129 283.483 334.736 283.483C335.156 283.483 335.557 283.562 335.94 283.721C336.332 283.87 336.672 284.104 336.962 284.421C337.26 284.729 337.494 285.121 337.662 285.597C337.839 286.064 337.928 286.614 337.928 287.249C337.928 287.893 337.839 288.453 337.662 288.929C337.484 289.396 337.246 289.788 336.948 290.105C336.649 290.413 336.304 290.646 335.912 290.805C335.52 290.954 335.109 291.029 334.68 291.029ZM334.498 289.923C335.142 289.923 335.66 289.704 336.052 289.265C336.453 288.817 336.654 288.145 336.654 287.249C336.654 286.372 336.453 285.709 336.052 285.261C335.66 284.804 335.142 284.575 334.498 284.575C334.18 284.575 333.882 284.631 333.602 284.743C333.331 284.855 333.093 285.023 332.888 285.247C332.692 285.462 332.533 285.737 332.412 286.073C332.3 286.409 332.244 286.801 332.244 287.249C332.244 287.697 332.3 288.089 332.412 288.425C332.533 288.761 332.692 289.041 332.888 289.265C333.093 289.489 333.331 289.657 333.602 289.769C333.882 289.872 334.18 289.923 334.498 289.923ZM342.922 290.805C342.754 291.244 342.576 291.626 342.39 291.953C342.203 292.289 341.993 292.574 341.76 292.807C341.526 293.04 341.265 293.213 340.976 293.325C340.686 293.446 340.355 293.507 339.982 293.507C339.795 293.507 339.622 293.493 339.464 293.465C339.305 293.446 339.16 293.409 339.03 293.353V292.163C339.132 292.238 339.263 292.294 339.422 292.331C339.58 292.378 339.753 292.401 339.94 292.401C340.285 292.401 340.57 292.317 340.794 292.149C341.018 291.99 341.232 291.734 341.438 291.379L338.484 283.623H339.842L342.152 289.755L344.448 283.623H345.638L342.922 290.805ZM347.419 282.559C347.167 282.559 346.967 282.484 346.817 282.335C346.668 282.176 346.593 281.985 346.593 281.761C346.593 281.537 346.668 281.346 346.817 281.187C346.967 281.028 347.167 280.949 347.419 280.949C347.662 280.949 347.853 281.028 347.993 281.187C348.133 281.346 348.203 281.537 348.203 281.761C348.203 281.985 348.133 282.176 347.993 282.335C347.853 282.484 347.662 282.559 347.419 282.559ZM348.021 283.623V290.889H346.789V283.623H348.021ZM353.473 284.575C352.913 284.575 352.456 284.706 352.101 284.967C351.756 285.219 351.476 285.546 351.261 285.947V290.889H350.029V283.623H351.191L351.233 284.925H351.261C351.457 284.505 351.765 284.16 352.185 283.889C352.605 283.618 353.137 283.483 353.781 283.483C354.5 283.483 355.069 283.674 355.489 284.057C355.919 284.43 356.133 285.009 356.133 285.793V290.889H354.901V285.919C354.901 285.415 354.775 285.065 354.523 284.869C354.271 284.673 353.921 284.575 353.473 284.575ZM364.326 290.273C364.326 290.74 364.256 291.164 364.116 291.547C363.986 291.939 363.771 292.27 363.472 292.541C363.183 292.812 362.805 293.022 362.338 293.171C361.881 293.32 361.326 293.395 360.672 293.395C360.318 293.395 360.005 293.376 359.734 293.339C359.464 293.302 359.226 293.25 359.02 293.185C358.824 293.129 358.656 293.064 358.516 292.989C358.376 292.924 358.26 292.858 358.166 292.793V291.687C358.316 291.771 358.47 291.846 358.628 291.911C358.796 291.986 358.978 292.051 359.174 292.107C359.37 292.163 359.59 292.205 359.832 292.233C360.084 292.27 360.369 292.289 360.686 292.289C361.582 292.289 362.208 292.121 362.562 291.785C362.917 291.449 363.094 290.95 363.094 290.287V289.167C362.88 289.596 362.576 289.942 362.184 290.203C361.802 290.464 361.326 290.595 360.756 290.595C360.327 290.595 359.916 290.52 359.524 290.371C359.142 290.222 358.801 290.002 358.502 289.713C358.213 289.414 357.98 289.046 357.802 288.607C357.634 288.159 357.55 287.641 357.55 287.053C357.55 286.456 357.634 285.938 357.802 285.499C357.98 285.051 358.213 284.678 358.502 284.379C358.801 284.08 359.146 283.856 359.538 283.707C359.93 283.558 360.346 283.483 360.784 283.483C361.363 283.483 361.848 283.614 362.24 283.875C362.642 284.136 362.954 284.491 363.178 284.939L363.192 284.785C363.192 284.617 363.202 284.416 363.22 284.183C363.239 283.94 363.258 283.754 363.276 283.623H364.396C364.378 283.754 364.359 283.94 364.34 284.183C364.331 284.426 364.326 284.626 364.326 284.785V290.273ZM360.98 289.489C361.288 289.489 361.568 289.442 361.82 289.349C362.082 289.246 362.306 289.092 362.492 288.887C362.688 288.682 362.838 288.43 362.94 288.131C363.052 287.823 363.108 287.464 363.108 287.053C363.108 286.222 362.903 285.602 362.492 285.191C362.091 284.78 361.582 284.575 360.966 284.575C360.658 284.575 360.369 284.626 360.098 284.729C359.837 284.832 359.608 284.986 359.412 285.191C359.226 285.396 359.076 285.658 358.964 285.975C358.852 286.283 358.796 286.642 358.796 287.053C358.796 287.464 358.852 287.823 358.964 288.131C359.076 288.43 359.23 288.682 359.426 288.887C359.622 289.083 359.851 289.232 360.112 289.335C360.383 289.438 360.672 289.489 360.98 289.489Z" fill="#18123D"/>
<rect x="264" y="516" width="150" height="44" rx="5" fill="#D3E3FC"/>
<path d="M314.142 543.029C313.685 543.029 313.274 542.996 312.91 542.931C312.546 542.875 312.224 542.8 311.944 542.707C311.673 542.604 311.44 542.497 311.244 542.385C311.057 542.264 310.908 542.147 310.796 542.035V540.775C310.936 540.896 311.118 541.022 311.342 541.153C311.566 541.274 311.823 541.386 312.112 541.489C312.411 541.592 312.728 541.676 313.064 541.741C313.409 541.806 313.769 541.839 314.142 541.839C314.87 541.839 315.449 541.704 315.878 541.433C316.307 541.153 316.522 540.733 316.522 540.173C316.522 539.893 316.471 539.664 316.368 539.487C316.265 539.3 316.116 539.146 315.92 539.025C315.724 538.894 315.477 538.787 315.178 538.703C314.889 538.61 314.548 538.512 314.156 538.409C313.764 538.306 313.372 538.19 312.98 538.059C312.588 537.928 312.233 537.756 311.916 537.541C311.608 537.326 311.356 537.056 311.16 536.729C310.973 536.402 310.88 535.987 310.88 535.483C310.88 534.615 311.183 533.938 311.79 533.453C312.397 532.968 313.325 532.725 314.576 532.725C314.94 532.725 315.262 532.748 315.542 532.795C315.831 532.832 316.083 532.884 316.298 532.949C316.522 533.005 316.713 533.07 316.872 533.145C317.04 533.22 317.189 533.29 317.32 533.355V534.615C316.928 534.363 316.503 534.186 316.046 534.083C315.598 533.971 315.108 533.915 314.576 533.915C314.128 533.915 313.75 533.952 313.442 534.027C313.143 534.092 312.901 534.19 312.714 534.321C312.527 534.452 312.392 534.61 312.308 534.797C312.224 534.984 312.182 535.194 312.182 535.427C312.182 535.707 312.243 535.94 312.364 536.127C312.495 536.314 312.663 536.472 312.868 536.603C313.083 536.724 313.325 536.827 313.596 536.911C313.867 536.995 314.151 537.07 314.45 537.135C314.842 537.228 315.243 537.336 315.654 537.457C316.065 537.578 316.433 537.746 316.76 537.961C317.087 538.176 317.353 538.456 317.558 538.801C317.773 539.137 317.88 539.576 317.88 540.117C317.88 540.649 317.773 541.102 317.558 541.475C317.353 541.839 317.077 542.138 316.732 542.371C316.387 542.604 315.99 542.772 315.542 542.875C315.094 542.978 314.627 543.029 314.142 543.029ZM322.933 542.735C322.784 542.819 322.592 542.889 322.359 542.945C322.126 543.001 321.878 543.029 321.617 543.029C321.262 543.029 320.959 542.978 320.707 542.875C320.464 542.772 320.264 542.637 320.105 542.469C319.946 542.292 319.83 542.096 319.755 541.881C319.69 541.657 319.657 541.428 319.657 541.195V536.673H318.789V535.623H319.657V534.097H320.889V535.623H323.003V536.673H320.889V541.041C320.889 541.349 320.964 541.573 321.113 541.713C321.272 541.853 321.547 541.923 321.939 541.923C322.303 541.923 322.634 541.82 322.933 541.615V542.735ZM327.486 543.029C326.991 543.029 326.529 542.945 326.1 542.777C325.671 542.609 325.297 542.366 324.98 542.049C324.672 541.722 324.429 541.326 324.252 540.859C324.075 540.392 323.986 539.856 323.986 539.249C323.986 538.652 324.075 538.12 324.252 537.653C324.429 537.177 324.672 536.78 324.98 536.463C325.297 536.146 325.671 535.903 326.1 535.735C326.529 535.567 326.991 535.483 327.486 535.483C327.99 535.483 328.457 535.567 328.886 535.735C329.315 535.903 329.684 536.146 329.992 536.463C330.309 536.78 330.557 537.177 330.734 537.653C330.921 538.12 331.014 538.652 331.014 539.249C331.014 539.856 330.921 540.392 330.734 540.859C330.557 541.326 330.309 541.722 329.992 542.049C329.684 542.366 329.315 542.609 328.886 542.777C328.457 542.945 327.99 543.029 327.486 543.029ZM327.486 541.923C327.813 541.923 328.111 541.872 328.382 541.769C328.662 541.657 328.905 541.494 329.11 541.279C329.315 541.055 329.474 540.775 329.586 540.439C329.698 540.103 329.754 539.706 329.754 539.249C329.754 538.792 329.698 538.395 329.586 538.059C329.474 537.723 329.315 537.448 329.11 537.233C328.905 537.009 328.662 536.846 328.382 536.743C328.111 536.631 327.813 536.575 327.486 536.575C327.159 536.575 326.861 536.631 326.59 536.743C326.319 536.846 326.081 537.009 325.876 537.233C325.68 537.448 325.526 537.723 325.414 538.059C325.302 538.395 325.246 538.792 325.246 539.249C325.246 539.706 325.302 540.103 325.414 540.439C325.526 540.775 325.68 541.055 325.876 541.279C326.081 541.494 326.319 541.657 326.59 541.769C326.861 541.872 327.159 541.923 327.486 541.923ZM336.17 543.029C335.61 543.029 335.124 542.898 334.714 542.637C334.312 542.376 333.99 542.016 333.748 541.559V545.367H332.516V535.623H333.594L333.72 537.037C333.962 536.561 334.289 536.183 334.7 535.903C335.11 535.623 335.619 535.483 336.226 535.483C336.646 535.483 337.047 535.562 337.43 535.721C337.822 535.87 338.162 536.104 338.452 536.421C338.75 536.729 338.984 537.121 339.152 537.597C339.329 538.064 339.418 538.614 339.418 539.249C339.418 539.893 339.329 540.453 339.152 540.929C338.974 541.396 338.736 541.788 338.438 542.105C338.139 542.413 337.794 542.646 337.402 542.805C337.01 542.954 336.599 543.029 336.17 543.029ZM335.988 541.923C336.632 541.923 337.15 541.704 337.542 541.265C337.943 540.817 338.144 540.145 338.144 539.249C338.144 538.372 337.943 537.709 337.542 537.261C337.15 536.804 336.632 536.575 335.988 536.575C335.67 536.575 335.372 536.631 335.092 536.743C334.821 536.855 334.583 537.023 334.378 537.247C334.182 537.462 334.023 537.737 333.902 538.073C333.79 538.409 333.734 538.801 333.734 539.249C333.734 539.697 333.79 540.089 333.902 540.425C334.023 540.761 334.182 541.041 334.378 541.265C334.583 541.489 334.821 541.657 335.092 541.769C335.372 541.872 335.67 541.923 335.988 541.923ZM344.564 543.029C344.004 543.029 343.519 542.898 343.108 542.637C342.707 542.376 342.385 542.016 342.142 541.559V545.367H340.91V535.623H341.988L342.114 537.037C342.357 536.561 342.684 536.183 343.094 535.903C343.505 535.623 344.014 535.483 344.62 535.483C345.04 535.483 345.442 535.562 345.824 535.721C346.216 535.87 346.557 536.104 346.846 536.421C347.145 536.729 347.378 537.121 347.546 537.597C347.724 538.064 347.812 538.614 347.812 539.249C347.812 539.893 347.724 540.453 347.546 540.929C347.369 541.396 347.131 541.788 346.832 542.105C346.534 542.413 346.188 542.646 345.796 542.805C345.404 542.954 344.994 543.029 344.564 543.029ZM344.382 541.923C345.026 541.923 345.544 541.704 345.936 541.265C346.338 540.817 346.538 540.145 346.538 539.249C346.538 538.372 346.338 537.709 345.936 537.261C345.544 536.804 345.026 536.575 344.382 536.575C344.065 536.575 343.766 536.631 343.486 536.743C343.216 536.855 342.978 537.023 342.772 537.247C342.576 537.462 342.418 537.737 342.296 538.073C342.184 538.409 342.128 538.801 342.128 539.249C342.128 539.697 342.184 540.089 342.296 540.425C342.418 540.761 342.576 541.041 342.772 541.265C342.978 541.489 343.216 541.657 343.486 541.769C343.766 541.872 344.065 541.923 344.382 541.923ZM349.935 534.559C349.683 534.559 349.482 534.484 349.333 534.335C349.184 534.176 349.109 533.985 349.109 533.761C349.109 533.537 349.184 533.346 349.333 533.187C349.482 533.028 349.683 532.949 349.935 532.949C350.178 532.949 350.369 533.028 350.509 533.187C350.649 533.346 350.719 533.537 350.719 533.761C350.719 533.985 350.649 534.176 350.509 534.335C350.369 534.484 350.178 534.559 349.935 534.559ZM350.537 535.623V542.889H349.305V535.623H350.537ZM355.989 536.575C355.429 536.575 354.972 536.706 354.617 536.967C354.272 537.219 353.992 537.546 353.777 537.947V542.889H352.545V535.623H353.707L353.749 536.925H353.777C353.973 536.505 354.281 536.16 354.701 535.889C355.121 535.618 355.653 535.483 356.297 535.483C357.016 535.483 357.585 535.674 358.005 536.057C358.434 536.43 358.649 537.009 358.649 537.793V542.889H357.417V537.919C357.417 537.415 357.291 537.065 357.039 536.869C356.787 536.673 356.437 536.575 355.989 536.575ZM366.842 542.273C366.842 542.74 366.772 543.164 366.632 543.547C366.501 543.939 366.287 544.27 365.988 544.541C365.699 544.812 365.321 545.022 364.854 545.171C364.397 545.32 363.841 545.395 363.188 545.395C362.833 545.395 362.521 545.376 362.25 545.339C361.979 545.302 361.741 545.25 361.536 545.185C361.34 545.129 361.172 545.064 361.032 544.989C360.892 544.924 360.775 544.858 360.682 544.793V543.687C360.831 543.771 360.985 543.846 361.144 543.911C361.312 543.986 361.494 544.051 361.69 544.107C361.886 544.163 362.105 544.205 362.348 544.233C362.6 544.27 362.885 544.289 363.202 544.289C364.098 544.289 364.723 544.121 365.078 543.785C365.433 543.449 365.61 542.95 365.61 542.287V541.167C365.395 541.596 365.092 541.942 364.7 542.203C364.317 542.464 363.841 542.595 363.272 542.595C362.843 542.595 362.432 542.52 362.04 542.371C361.657 542.222 361.317 542.002 361.018 541.713C360.729 541.414 360.495 541.046 360.318 540.607C360.15 540.159 360.066 539.641 360.066 539.053C360.066 538.456 360.15 537.938 360.318 537.499C360.495 537.051 360.729 536.678 361.018 536.379C361.317 536.08 361.662 535.856 362.054 535.707C362.446 535.558 362.861 535.483 363.3 535.483C363.879 535.483 364.364 535.614 364.756 535.875C365.157 536.136 365.47 536.491 365.694 536.939L365.708 536.785C365.708 536.617 365.717 536.416 365.736 536.183C365.755 535.94 365.773 535.754 365.792 535.623H366.912C366.893 535.754 366.875 535.94 366.856 536.183C366.847 536.426 366.842 536.626 366.842 536.785V542.273ZM363.496 541.489C363.804 541.489 364.084 541.442 364.336 541.349C364.597 541.246 364.821 541.092 365.008 540.887C365.204 540.682 365.353 540.43 365.456 540.131C365.568 539.823 365.624 539.464 365.624 539.053C365.624 538.222 365.419 537.602 365.008 537.191C364.607 536.78 364.098 536.575 363.482 536.575C363.174 536.575 362.885 536.626 362.614 536.729C362.353 536.832 362.124 536.986 361.928 537.191C361.741 537.396 361.592 537.658 361.48 537.975C361.368 538.283 361.312 538.642 361.312 539.053C361.312 539.464 361.368 539.823 361.48 540.131C361.592 540.43 361.746 540.682 361.942 540.887C362.138 541.083 362.367 541.232 362.628 541.335C362.899 541.438 363.188 541.489 363.496 541.489Z" fill="#18123D"/>
<rect x="264" y="348" width="150" height="44" rx="5" fill="#D3E3FC"/>
<path d="M305.094 364.851H308.454C309.639 364.851 310.54 365.084 311.156 365.551C311.781 366.008 312.094 366.732 312.094 367.721C312.094 368.598 311.879 369.27 311.45 369.737C311.03 370.204 310.475 370.512 309.784 370.661L312.514 374.889H311.03L308.412 370.815H306.41V374.889H305.094V364.851ZM306.41 366.055V369.625H308.328C308.683 369.625 309.005 369.592 309.294 369.527C309.593 369.462 309.845 369.354 310.05 369.205C310.265 369.056 310.428 368.86 310.54 368.617C310.661 368.365 310.722 368.057 310.722 367.693C310.722 367.096 310.526 366.676 310.134 366.433C309.742 366.181 309.182 366.055 308.454 366.055H306.41ZM319.622 374.273C319.519 374.348 319.393 374.427 319.244 374.511C319.095 374.595 318.913 374.679 318.698 374.763C318.483 374.838 318.241 374.898 317.97 374.945C317.699 375.001 317.396 375.029 317.06 375.029C315.837 375.029 314.909 374.698 314.274 374.035C313.639 373.372 313.322 372.444 313.322 371.249C313.322 370.661 313.406 370.134 313.574 369.667C313.751 369.2 313.994 368.808 314.302 368.491C314.61 368.164 314.974 367.917 315.394 367.749C315.814 367.572 316.271 367.483 316.766 367.483C317.289 367.483 317.755 367.572 318.166 367.749C318.577 367.926 318.913 368.188 319.174 368.533C319.445 368.878 319.627 369.308 319.72 369.821C319.823 370.325 319.823 370.913 319.72 371.585H314.596C314.643 372.369 314.876 372.957 315.296 373.349C315.716 373.732 316.341 373.923 317.172 373.923C317.732 373.923 318.213 373.844 318.614 373.685C319.015 373.526 319.351 373.354 319.622 373.167V374.273ZM316.738 368.575C316.206 368.575 315.749 368.738 315.366 369.065C314.983 369.392 314.741 369.886 314.638 370.549H318.544C318.581 369.877 318.427 369.382 318.082 369.065C317.737 368.738 317.289 368.575 316.738 368.575ZM324.918 375.029C324.358 375.029 323.873 374.898 323.462 374.637C323.061 374.376 322.739 374.016 322.496 373.559V377.367H321.264V367.623H322.342L322.468 369.037C322.711 368.561 323.037 368.183 323.448 367.903C323.859 367.623 324.367 367.483 324.974 367.483C325.394 367.483 325.795 367.562 326.178 367.721C326.57 367.87 326.911 368.104 327.2 368.421C327.499 368.729 327.732 369.121 327.9 369.597C328.077 370.064 328.166 370.614 328.166 371.249C328.166 371.893 328.077 372.453 327.9 372.929C327.723 373.396 327.485 373.788 327.186 374.105C326.887 374.413 326.542 374.646 326.15 374.805C325.758 374.954 325.347 375.029 324.918 375.029ZM324.736 373.923C325.38 373.923 325.898 373.704 326.29 373.265C326.691 372.817 326.892 372.145 326.892 371.249C326.892 370.372 326.691 369.709 326.29 369.261C325.898 368.804 325.38 368.575 324.736 368.575C324.419 368.575 324.12 368.631 323.84 368.743C323.569 368.855 323.331 369.023 323.126 369.247C322.93 369.462 322.771 369.737 322.65 370.073C322.538 370.409 322.482 370.801 322.482 371.249C322.482 371.697 322.538 372.089 322.65 372.425C322.771 372.761 322.93 373.041 323.126 373.265C323.331 373.489 323.569 373.657 323.84 373.769C324.12 373.872 324.419 373.923 324.736 373.923ZM330.89 364.851V374.889H329.658V364.851H330.89ZM333.529 366.559C333.277 366.559 333.076 366.484 332.927 366.335C332.777 366.176 332.703 365.985 332.703 365.761C332.703 365.537 332.777 365.346 332.927 365.187C333.076 365.028 333.277 364.949 333.529 364.949C333.771 364.949 333.963 365.028 334.103 365.187C334.243 365.346 334.313 365.537 334.313 365.761C334.313 365.985 334.243 366.176 334.103 366.335C333.963 366.484 333.771 366.559 333.529 366.559ZM334.131 367.623V374.889H332.899V367.623H334.131ZM339.275 375.029C338.715 375.029 338.206 374.945 337.749 374.777C337.301 374.6 336.918 374.352 336.601 374.035C336.284 373.708 336.041 373.312 335.873 372.845C335.705 372.378 335.621 371.846 335.621 371.249C335.621 370.661 335.705 370.134 335.873 369.667C336.05 369.2 336.298 368.808 336.615 368.491C336.932 368.164 337.32 367.917 337.777 367.749C338.234 367.572 338.752 367.483 339.331 367.483C339.779 367.483 340.19 367.534 340.563 367.637C340.936 367.73 341.244 367.87 341.487 368.057V369.163C341.188 368.967 340.852 368.822 340.479 368.729C340.115 368.626 339.737 368.575 339.345 368.575C338.496 368.575 337.87 368.794 337.469 369.233C337.077 369.672 336.881 370.344 336.881 371.249C336.881 372.154 337.072 372.826 337.455 373.265C337.838 373.704 338.444 373.923 339.275 373.923C339.714 373.923 340.115 373.872 340.479 373.769C340.852 373.657 341.188 373.517 341.487 373.349V374.455C341.226 374.614 340.908 374.749 340.535 374.861C340.171 374.973 339.751 375.029 339.275 375.029ZM347.244 373.503C347.16 373.671 347.053 373.848 346.922 374.035C346.792 374.212 346.628 374.376 346.432 374.525C346.236 374.674 346.003 374.796 345.732 374.889C345.471 374.982 345.163 375.029 344.808 375.029C344.155 375.029 343.628 374.847 343.226 374.483C342.825 374.11 342.624 373.578 342.624 372.887C342.624 372.094 342.9 371.51 343.45 371.137C344.01 370.764 344.804 370.577 345.83 370.577H347.188V369.975C347.188 369.471 347.058 369.112 346.796 368.897C346.535 368.682 346.087 368.575 345.452 368.575C345.004 368.575 344.58 368.65 344.178 368.799C343.777 368.939 343.418 369.102 343.1 369.289V368.183C343.362 368.024 343.712 367.87 344.15 367.721C344.598 367.562 345.088 367.483 345.62 367.483C346.535 367.483 347.23 367.674 347.706 368.057C348.182 368.43 348.42 369.014 348.42 369.807V373.713C348.42 373.797 348.42 373.895 348.42 374.007C348.43 374.11 348.434 374.217 348.434 374.329C348.444 374.441 348.453 374.548 348.462 374.651C348.472 374.744 348.481 374.824 348.49 374.889H347.37C347.342 374.758 347.314 374.576 347.286 374.343C347.268 374.1 347.258 373.89 347.258 373.713L347.244 373.503ZM345.074 373.923C345.457 373.923 345.784 373.844 346.054 373.685C346.325 373.526 346.544 373.344 346.712 373.139C346.88 372.924 347.002 372.719 347.076 372.523C347.151 372.318 347.188 372.173 347.188 372.089V371.557H345.956C345.219 371.557 344.682 371.664 344.346 371.879C344.02 372.084 343.856 372.397 343.856 372.817C343.856 373.144 343.954 373.41 344.15 373.615C344.346 373.82 344.654 373.923 345.074 373.923ZM353.914 374.735C353.764 374.819 353.573 374.889 353.34 374.945C353.106 375.001 352.859 375.029 352.598 375.029C352.243 375.029 351.94 374.978 351.688 374.875C351.445 374.772 351.244 374.637 351.086 374.469C350.927 374.292 350.81 374.096 350.736 373.881C350.67 373.657 350.638 373.428 350.638 373.195V368.673H349.77V367.623H350.638V366.097H351.87V367.623H353.984V368.673H351.87V373.041C351.87 373.349 351.944 373.573 352.094 373.713C352.252 373.853 352.528 373.923 352.92 373.923C353.284 373.923 353.615 373.82 353.914 373.615V374.735ZM356.183 366.559C355.931 366.559 355.73 366.484 355.581 366.335C355.432 366.176 355.357 365.985 355.357 365.761C355.357 365.537 355.432 365.346 355.581 365.187C355.73 365.028 355.931 364.949 356.183 364.949C356.426 364.949 356.617 365.028 356.757 365.187C356.897 365.346 356.967 365.537 356.967 365.761C356.967 365.985 356.897 366.176 356.757 366.335C356.617 366.484 356.426 366.559 356.183 366.559ZM356.785 367.623V374.889H355.553V367.623H356.785ZM362.237 368.575C361.677 368.575 361.22 368.706 360.865 368.967C360.52 369.219 360.24 369.546 360.025 369.947V374.889H358.793V367.623H359.955L359.997 368.925H360.025C360.221 368.505 360.529 368.16 360.949 367.889C361.369 367.618 361.901 367.483 362.545 367.483C363.264 367.483 363.833 367.674 364.253 368.057C364.682 368.43 364.897 369.009 364.897 369.793V374.889H363.665V369.919C363.665 369.415 363.539 369.065 363.287 368.869C363.035 368.673 362.685 368.575 362.237 368.575ZM373.09 374.273C373.09 374.74 373.02 375.164 372.88 375.547C372.749 375.939 372.535 376.27 372.236 376.541C371.947 376.812 371.569 377.022 371.102 377.171C370.645 377.32 370.089 377.395 369.436 377.395C369.081 377.395 368.769 377.376 368.498 377.339C368.227 377.302 367.989 377.25 367.784 377.185C367.588 377.129 367.42 377.064 367.28 376.989C367.14 376.924 367.023 376.858 366.93 376.793V375.687C367.079 375.771 367.233 375.846 367.392 375.911C367.56 375.986 367.742 376.051 367.938 376.107C368.134 376.163 368.353 376.205 368.596 376.233C368.848 376.27 369.133 376.289 369.45 376.289C370.346 376.289 370.971 376.121 371.326 375.785C371.681 375.449 371.858 374.95 371.858 374.287V373.167C371.643 373.596 371.34 373.942 370.948 374.203C370.565 374.464 370.089 374.595 369.52 374.595C369.091 374.595 368.68 374.52 368.288 374.371C367.905 374.222 367.565 374.002 367.266 373.713C366.977 373.414 366.743 373.046 366.566 372.607C366.398 372.159 366.314 371.641 366.314 371.053C366.314 370.456 366.398 369.938 366.566 369.499C366.743 369.051 366.977 368.678 367.266 368.379C367.565 368.08 367.91 367.856 368.302 367.707C368.694 367.558 369.109 367.483 369.548 367.483C370.127 367.483 370.612 367.614 371.004 367.875C371.405 368.136 371.718 368.491 371.942 368.939L371.956 368.785C371.956 368.617 371.965 368.416 371.984 368.183C372.003 367.94 372.021 367.754 372.04 367.623H373.16C373.141 367.754 373.123 367.94 373.104 368.183C373.095 368.426 373.09 368.626 373.09 368.785V374.273ZM369.744 373.489C370.052 373.489 370.332 373.442 370.584 373.349C370.845 373.246 371.069 373.092 371.256 372.887C371.452 372.682 371.601 372.43 371.704 372.131C371.816 371.823 371.872 371.464 371.872 371.053C371.872 370.222 371.667 369.602 371.256 369.191C370.855 368.78 370.346 368.575 369.73 368.575C369.422 368.575 369.133 368.626 368.862 368.729C368.601 368.832 368.372 368.986 368.176 369.191C367.989 369.396 367.84 369.658 367.728 369.975C367.616 370.283 367.56 370.642 367.56 371.053C367.56 371.464 367.616 371.823 367.728 372.131C367.84 372.43 367.994 372.682 368.19 372.887C368.386 373.083 368.615 373.232 368.876 373.335C369.147 373.438 369.436 373.489 369.744 373.489Z" fill="#18123D"/>
<rect x="264" y="600" width="150" height="44" rx="5" fill="#FFF5CC"/>
<path d="M316.001 627.029C315.544 627.029 315.133 626.996 314.769 626.931C314.405 626.875 314.083 626.8 313.803 626.707C313.533 626.604 313.299 626.497 313.103 626.385C312.917 626.264 312.767 626.147 312.655 626.035V624.775C312.795 624.896 312.977 625.022 313.201 625.153C313.425 625.274 313.682 625.386 313.971 625.489C314.27 625.592 314.587 625.676 314.923 625.741C315.269 625.806 315.628 625.839 316.001 625.839C316.729 625.839 317.308 625.704 317.737 625.433C318.167 625.153 318.381 624.733 318.381 624.173C318.381 623.893 318.33 623.664 318.227 623.487C318.125 623.3 317.975 623.146 317.779 623.025C317.583 622.894 317.336 622.787 317.037 622.703C316.748 622.61 316.407 622.512 316.015 622.409C315.623 622.306 315.231 622.19 314.839 622.059C314.447 621.928 314.093 621.756 313.775 621.541C313.467 621.326 313.215 621.056 313.019 620.729C312.833 620.402 312.739 619.987 312.739 619.483C312.739 618.615 313.043 617.938 313.649 617.453C314.256 616.968 315.185 616.725 316.435 616.725C316.799 616.725 317.121 616.748 317.401 616.795C317.691 616.832 317.943 616.884 318.157 616.949C318.381 617.005 318.573 617.07 318.731 617.145C318.899 617.22 319.049 617.29 319.179 617.355V618.615C318.787 618.363 318.363 618.186 317.905 618.083C317.457 617.971 316.967 617.915 316.435 617.915C315.987 617.915 315.609 617.952 315.301 618.027C315.003 618.092 314.76 618.19 314.573 618.321C314.387 618.452 314.251 618.61 314.167 618.797C314.083 618.984 314.041 619.194 314.041 619.427C314.041 619.707 314.102 619.94 314.223 620.127C314.354 620.314 314.522 620.472 314.727 620.603C314.942 620.724 315.185 620.827 315.455 620.911C315.726 620.995 316.011 621.07 316.309 621.135C316.701 621.228 317.103 621.336 317.513 621.457C317.924 621.578 318.293 621.746 318.619 621.961C318.946 622.176 319.212 622.456 319.417 622.801C319.632 623.137 319.739 623.576 319.739 624.117C319.739 624.649 319.632 625.102 319.417 625.475C319.212 625.839 318.937 626.138 318.591 626.371C318.246 626.604 317.849 626.772 317.401 626.875C316.953 626.978 316.487 627.029 316.001 627.029ZM324.793 626.735C324.643 626.819 324.452 626.889 324.219 626.945C323.985 627.001 323.738 627.029 323.477 627.029C323.122 627.029 322.819 626.978 322.567 626.875C322.324 626.772 322.123 626.637 321.965 626.469C321.806 626.292 321.689 626.096 321.615 625.881C321.549 625.657 321.517 625.428 321.517 625.195V620.673H320.649V619.623H321.517V618.097H322.749V619.623H324.863V620.673H322.749V625.041C322.749 625.349 322.823 625.573 322.973 625.713C323.131 625.853 323.407 625.923 323.799 625.923C324.163 625.923 324.494 625.82 324.793 625.615V626.735ZM329.345 627.029C328.851 627.029 328.389 626.945 327.959 626.777C327.53 626.609 327.157 626.366 326.839 626.049C326.531 625.722 326.289 625.326 326.111 624.859C325.934 624.392 325.845 623.856 325.845 623.249C325.845 622.652 325.934 622.12 326.111 621.653C326.289 621.177 326.531 620.78 326.839 620.463C327.157 620.146 327.53 619.903 327.959 619.735C328.389 619.567 328.851 619.483 329.345 619.483C329.849 619.483 330.316 619.567 330.745 619.735C331.175 619.903 331.543 620.146 331.851 620.463C332.169 620.78 332.416 621.177 332.593 621.653C332.78 622.12 332.873 622.652 332.873 623.249C332.873 623.856 332.78 624.392 332.593 624.859C332.416 625.326 332.169 625.722 331.851 626.049C331.543 626.366 331.175 626.609 330.745 626.777C330.316 626.945 329.849 627.029 329.345 627.029ZM329.345 625.923C329.672 625.923 329.971 625.872 330.241 625.769C330.521 625.657 330.764 625.494 330.969 625.279C331.175 625.055 331.333 624.775 331.445 624.439C331.557 624.103 331.613 623.706 331.613 623.249C331.613 622.792 331.557 622.395 331.445 622.059C331.333 621.723 331.175 621.448 330.969 621.233C330.764 621.009 330.521 620.846 330.241 620.743C329.971 620.631 329.672 620.575 329.345 620.575C329.019 620.575 328.72 620.631 328.449 620.743C328.179 620.846 327.941 621.009 327.735 621.233C327.539 621.448 327.385 621.723 327.273 622.059C327.161 622.395 327.105 622.792 327.105 623.249C327.105 623.706 327.161 624.103 327.273 624.439C327.385 624.775 327.539 625.055 327.735 625.279C327.941 625.494 328.179 625.657 328.449 625.769C328.72 625.872 329.019 625.923 329.345 625.923ZM338.029 627.029C337.469 627.029 336.984 626.898 336.573 626.637C336.172 626.376 335.85 626.016 335.607 625.559V629.367H334.375V619.623H335.453L335.579 621.037C335.822 620.561 336.149 620.183 336.559 619.903C336.97 619.623 337.479 619.483 338.085 619.483C338.505 619.483 338.907 619.562 339.289 619.721C339.681 619.87 340.022 620.104 340.311 620.421C340.61 620.729 340.843 621.121 341.011 621.597C341.189 622.064 341.277 622.614 341.277 623.249C341.277 623.893 341.189 624.453 341.011 624.929C340.834 625.396 340.596 625.788 340.297 626.105C339.999 626.413 339.653 626.646 339.261 626.805C338.869 626.954 338.459 627.029 338.029 627.029ZM337.847 625.923C338.491 625.923 339.009 625.704 339.401 625.265C339.803 624.817 340.003 624.145 340.003 623.249C340.003 622.372 339.803 621.709 339.401 621.261C339.009 620.804 338.491 620.575 337.847 620.575C337.53 620.575 337.231 620.631 336.951 620.743C336.681 620.855 336.443 621.023 336.237 621.247C336.041 621.462 335.883 621.737 335.761 622.073C335.649 622.409 335.593 622.801 335.593 623.249C335.593 623.697 335.649 624.089 335.761 624.425C335.883 624.761 336.041 625.041 336.237 625.265C336.443 625.489 336.681 625.657 336.951 625.769C337.231 625.872 337.53 625.923 337.847 625.923ZM346.424 627.029C345.864 627.029 345.378 626.898 344.968 626.637C344.566 626.376 344.244 626.016 344.002 625.559V629.367H342.77V619.623H343.848L343.974 621.037C344.216 620.561 344.543 620.183 344.954 619.903C345.364 619.623 345.873 619.483 346.48 619.483C346.9 619.483 347.301 619.562 347.684 619.721C348.076 619.87 348.416 620.104 348.706 620.421C349.004 620.729 349.238 621.121 349.406 621.597C349.583 622.064 349.672 622.614 349.672 623.249C349.672 623.893 349.583 624.453 349.406 624.929C349.228 625.396 348.99 625.788 348.692 626.105C348.393 626.413 348.048 626.646 347.656 626.805C347.264 626.954 346.853 627.029 346.424 627.029ZM346.242 625.923C346.886 625.923 347.404 625.704 347.796 625.265C348.197 624.817 348.398 624.145 348.398 623.249C348.398 622.372 348.197 621.709 347.796 621.261C347.404 620.804 346.886 620.575 346.242 620.575C345.924 620.575 345.626 620.631 345.346 620.743C345.075 620.855 344.837 621.023 344.632 621.247C344.436 621.462 344.277 621.737 344.156 622.073C344.044 622.409 343.988 622.801 343.988 623.249C343.988 623.697 344.044 624.089 344.156 624.425C344.277 624.761 344.436 625.041 344.632 625.265C344.837 625.489 345.075 625.657 345.346 625.769C345.626 625.872 345.924 625.923 346.242 625.923ZM356.946 626.273C356.844 626.348 356.718 626.427 356.568 626.511C356.419 626.595 356.237 626.679 356.022 626.763C355.808 626.838 355.565 626.898 355.294 626.945C355.024 627.001 354.72 627.029 354.384 627.029C353.162 627.029 352.233 626.698 351.598 626.035C350.964 625.372 350.646 624.444 350.646 623.249C350.646 622.661 350.73 622.134 350.898 621.667C351.076 621.2 351.318 620.808 351.626 620.491C351.934 620.164 352.298 619.917 352.718 619.749C353.138 619.572 353.596 619.483 354.09 619.483C354.613 619.483 355.08 619.572 355.49 619.749C355.901 619.926 356.237 620.188 356.498 620.533C356.769 620.878 356.951 621.308 357.044 621.821C357.147 622.325 357.147 622.913 357.044 623.585H351.92C351.967 624.369 352.2 624.957 352.62 625.349C353.04 625.732 353.666 625.923 354.496 625.923C355.056 625.923 355.537 625.844 355.938 625.685C356.34 625.526 356.676 625.354 356.946 625.167V626.273ZM354.062 620.575C353.53 620.575 353.073 620.738 352.69 621.065C352.308 621.392 352.065 621.886 351.962 622.549H355.868C355.906 621.877 355.752 621.382 355.406 621.065C355.061 620.738 354.613 620.575 354.062 620.575ZM363.796 625.461C363.572 625.937 363.259 626.32 362.858 626.609C362.457 626.889 361.948 627.029 361.332 627.029C360.893 627.029 360.478 626.954 360.086 626.805C359.694 626.646 359.349 626.413 359.05 626.105C358.751 625.788 358.513 625.396 358.336 624.929C358.159 624.453 358.07 623.893 358.07 623.249C358.07 622.614 358.159 622.064 358.336 621.597C358.513 621.121 358.751 620.729 359.05 620.421C359.349 620.104 359.694 619.87 360.086 619.721C360.487 619.562 360.907 619.483 361.346 619.483C361.897 619.483 362.373 619.6 362.774 619.833C363.175 620.057 363.497 620.379 363.74 620.799V616.851H364.972V626.889H363.894L363.796 625.461ZM361.514 625.923C361.831 625.923 362.125 625.872 362.396 625.769C362.667 625.657 362.9 625.489 363.096 625.265C363.301 625.041 363.46 624.761 363.572 624.425C363.693 624.089 363.754 623.697 363.754 623.249C363.754 622.801 363.693 622.409 363.572 622.073C363.46 621.737 363.301 621.457 363.096 621.233C362.9 621.009 362.667 620.846 362.396 620.743C362.125 620.631 361.831 620.575 361.514 620.575C360.87 620.575 360.343 620.804 359.932 621.261C359.531 621.709 359.33 622.372 359.33 623.249C359.33 624.136 359.535 624.803 359.946 625.251C360.357 625.699 360.879 625.923 361.514 625.923Z" fill="#18123D"/>
<path d="M339 160L329 154.227L329 165.774L339 160ZM66 160L66 161L66 160ZM62 180C62 172.689 62 167.986 62 164.993L60 164.993C60 167.986 60 172.689 60 180L62 180ZM66 161L330 161L330 159L66 159L66 161ZM62 164.993C62 162.786 63.789 161 66 161L66 159C62.6881 159 60 161.677 60 164.993L62 164.993Z" fill="#4E496B"/>
<path d="M82 370C74.1199 370 69.126 370 65.9966 370C63.2352 370 61 367.761 61 365L61 180" stroke="#4E496B" stroke-width="2"/>
<path d="M596 202C603.88 202 608.874 202 612.003 202C614.765 202 617 204.239 617 207L617 396" stroke="#4E496B" stroke-width="2"/>
<path d="M414 118L424 112.227L424 123.774L414 118ZM520 146C520 133.966 520 126.98 520 122.996L522 122.996C522 126.98 522 133.966 522 146L520 146ZM516 119L423 119L423 117L516 117L516 119ZM520 122.996C520 120.788 518.21 119 516 119L516 117C519.313 117 522 119.681 522 122.996L520 122.996Z" fill="#4E496B"/>
<path d="M414 622C568.148 622 618.755 622 633.041 622C635.802 622 638 619.761 638 617L638 168" stroke="#4E496B" stroke-width="2"/>
<path d="M638 212C638 155.148 638 131.858 638 122.98C638 120.219 635.761 118 633 118L474 118" stroke="#4E496B" stroke-width="2"/>
<path d="M414 454L424 448.226L424 459.774L414 454ZM617 449L618 449L617 449ZM422.983 453C554.016 453 598.722 453 612.016 453L612.016 455C598.722 455 554.016 455 422.983 455L422.983 453ZM616 449L616 222L618 222L618 449L616 449ZM612.016 453C614.221 453 616 451.213 616 449L618 449C618 452.31 615.333 455 612.016 455L612.016 453Z" fill="#4E496B"/>
<path d="M521 224L515.226 234L526.774 234L521 224ZM516 286L516 285L516 286ZM520 232.996C520 261.147 520 274.735 520 281.016L522 281.016C522 274.735 522 261.147 522 232.996L520 232.996ZM516 285L414 285L414 287L516 287L516 285ZM520 281.016C520 283.221 518.213 285 516 285L516 287C519.31 287 522 284.334 522 281.016L520 281.016Z" fill="#4E496B"/>
<path d="M521 264C521 328.781 521 354.551 521 364.015C521 366.777 518.761 369 516 369L414 369" stroke="#4E496B" stroke-width="2"/>
<path d="M264 202C258.909 202 255.399 202 252.996 202C250.234 202 248 204.239 248 207L248 397" stroke="#4E496B" stroke-width="2"/>
<path d="M264 286C258.909 286 255.399 286 252.996 286C250.234 286 248 288.239 248 291L248 397" stroke="#4E496B" stroke-width="2"/>
<path d="M264 454L254 448.226L254 459.774L264 454ZM255 453C254.259 453 253.593 453 252.996 453L252.996 455C253.593 455 254.259 455 255 455L255 453ZM249 449L249 397L247 397L247 449L249 449ZM252.996 453C250.788 453 249 451.21 249 449L247 449C247 452.313 249.681 455 252.996 455L252.996 453Z" fill="#4E496B"/>
<path d="M339 180L333.226 170L344.774 170L339 180ZM338 171L338 140L340 140L340 171L338 171Z" fill="#4E496B"/>
<path d="M521 180V140" stroke="#4E496B" stroke-width="2"/>
<path d="M339 96L344.774 86L333.226 86L339 96ZM340 87L340 56L338 56L338 87L340 87Z" fill="#4E496B"/>
<path d="M446 202L436 196.226L436 207.774L446 202ZM437 201L414 201L414 203L437 203L437 201Z" fill="#4E496B"/>
</svg>
