<svg xmlns="http://www.w3.org/2000/svg" width="700" height="740" fill="none" viewBox="0 0 700 740">
    <rect width="150" height="44" x="264" y="684" fill="#DDF2E1" rx="5"/>
    <path fill="#18123D" d="M309.68 711.029c-.746 0-1.423-.117-2.03-.35a4.443 4.443 0 0 1-1.568-1.008 4.626 4.626 0 0 1-.994-1.624c-.233-.644-.35-1.367-.35-2.17 0-.812.108-1.535.322-2.17a4.27 4.27 0 0 1 .952-1.61 4.09 4.09 0 0 1 1.54-1.022c.616-.233 1.316-.35 2.1-.35.682 0 1.279.075 1.792.224.514.14.934.308 1.26.504v1.26a4.64 4.64 0 0 0-1.456-.602 6.823 6.823 0 0 0-1.61-.196c-1.185 0-2.062.331-2.632.994-.56.653-.84 1.643-.84 2.968 0 1.335.304 2.329.91 2.982.616.653 1.522.98 2.716.98.514 0 1.013-.07 1.498-.21.495-.14.966-.378 1.414-.714v1.26c-.27.215-.667.411-1.19.588-.513.177-1.124.266-1.834.266Zm7.785 0c-.495 0-.957-.084-1.386-.252a3.224 3.224 0 0 1-1.12-.728 3.542 3.542 0 0 1-.728-1.19c-.178-.467-.266-1.003-.266-1.61 0-.597.088-1.129.266-1.596.177-.476.42-.873.728-1.19.317-.317.69-.56 1.12-.728a3.767 3.767 0 0 1 1.386-.252c.504 0 .97.084 1.4.252.429.168.798.411 1.106.728.317.317.564.714.742 1.19.186.467.28.999.28 1.596 0 .607-.094 1.143-.28 1.61a3.448 3.448 0 0 1-.742 1.19c-.308.317-.677.56-1.106.728-.43.168-.896.252-1.4.252Zm0-1.106c.326 0 .625-.051.896-.154.28-.112.522-.275.728-.49.205-.224.364-.504.476-.84.112-.336.168-.733.168-1.19 0-.457-.056-.854-.168-1.19a2.17 2.17 0 0 0-.476-.826 1.838 1.838 0 0 0-.728-.49 2.325 2.325 0 0 0-.896-.168c-.327 0-.626.056-.896.168a1.849 1.849 0 0 0-.714.49c-.196.215-.35.49-.462.826a3.775 3.775 0 0 0-.168 1.19c0 .457.056.854.168 1.19.112.336.266.616.462.84.205.215.443.378.714.49.27.103.569.154.896.154Zm6.261.966h-1.232v-7.266h1.078l.126 1.302h.028c.196-.411.49-.751.882-1.022.392-.28.906-.42 1.54-.42.56 0 1.018.135 1.372.406.364.261.607.658.728 1.19a2.52 2.52 0 0 1 .938-1.162c.43-.289.948-.434 1.554-.434.672 0 1.204.191 1.596.574.392.373.588.952.588 1.736v5.096h-1.246v-4.942c0-.476-.116-.821-.35-1.036-.233-.224-.55-.336-.952-.336-.27 0-.508.042-.714.126a1.703 1.703 0 0 0-.546.322c-.158.14-.303.303-.434.49-.13.187-.252.383-.364.588v4.788h-1.232v-5.082c0-.467-.116-.789-.35-.966-.233-.177-.55-.266-.952-.266-.261 0-.494.033-.7.098a1.973 1.973 0 0 0-.56.28 2.232 2.232 0 0 0-.434.448c-.13.168-.252.355-.364.56v4.928Zm14.782.14c-.56 0-1.046-.131-1.456-.392a2.84 2.84 0 0 1-.966-1.078v3.808h-1.232v-9.744h1.078l.126 1.414c.242-.476.569-.854.98-1.134.41-.28.919-.42 1.526-.42.42 0 .821.079 1.204.238.392.149.732.383 1.022.7.298.308.532.7.7 1.176.177.467.266 1.017.266 1.652 0 .644-.089 1.204-.266 1.68a3.526 3.526 0 0 1-.714 1.176 3.002 3.002 0 0 1-1.036.7 3.44 3.44 0 0 1-1.232.224Zm-.182-1.106c.644 0 1.162-.219 1.554-.658.401-.448.602-1.12.602-2.016 0-.877-.201-1.54-.602-1.988-.392-.457-.91-.686-1.554-.686-.318 0-.616.056-.896.168a1.99 1.99 0 0 0-.714.504c-.196.215-.355.49-.476.826a3.723 3.723 0 0 0-.168 1.176c0 .448.056.84.168 1.176.121.336.28.616.476.84.205.224.443.392.714.504.28.103.578.154.896.154Zm6.154-9.072v10.038h-1.232v-10.038h1.232Zm7.79 9.422a3.685 3.685 0 0 1-.378.238 4.34 4.34 0 0 1-.546.252 4.576 4.576 0 0 1-.728.182c-.27.056-.574.084-.91.084-1.222 0-2.151-.331-2.786-.994-.634-.663-.952-1.591-.952-2.786 0-.588.084-1.115.252-1.582.178-.467.42-.859.728-1.176a3.024 3.024 0 0 1 1.092-.742 3.5 3.5 0 0 1 1.372-.266c.523 0 .99.089 1.4.266.411.177.747.439 1.008.784.271.345.453.775.546 1.288.103.504.103 1.092 0 1.764h-5.124c.047.784.28 1.372.7 1.764.42.383 1.046.574 1.876.574.56 0 1.041-.079 1.442-.238a5.015 5.015 0 0 0 1.008-.518v1.106Zm-2.884-5.698c-.532 0-.989.163-1.372.49-.382.327-.625.821-.728 1.484h3.906c.038-.672-.116-1.167-.462-1.484-.345-.327-.793-.49-1.344-.49Zm8.082 6.16c-.149.084-.34.154-.574.21-.233.056-.48.084-.742.084-.354 0-.658-.051-.91-.154a1.77 1.77 0 0 1-.602-.406 1.737 1.737 0 0 1-.35-.588 2.452 2.452 0 0 1-.098-.686v-4.522h-.868v-1.05h.868v-1.526h1.232v1.526h2.114v1.05h-2.114v4.368c0 .308.075.532.224.672.159.14.434.21.826.21.364 0 .696-.103.994-.308v1.12Zm7.353-.462a3.685 3.685 0 0 1-.378.238 4.34 4.34 0 0 1-.546.252 4.576 4.576 0 0 1-.728.182c-.27.056-.574.084-.91.084-1.222 0-2.151-.331-2.786-.994-.634-.663-.952-1.591-.952-2.786 0-.588.084-1.115.252-1.582.178-.467.42-.859.728-1.176a3.024 3.024 0 0 1 1.092-.742 3.5 3.5 0 0 1 1.372-.266c.523 0 .99.089 1.4.266.411.177.747.439 1.008.784.271.345.453.775.546 1.288.103.504.103 1.092 0 1.764h-5.124c.047.784.28 1.372.7 1.764.42.383 1.046.574 1.876.574.56 0 1.041-.079 1.442-.238a5.015 5.015 0 0 0 1.008-.518v1.106Zm-2.884-5.698c-.532 0-.989.163-1.372.49-.382.327-.625.821-.728 1.484h3.906c.038-.672-.116-1.167-.462-1.484-.345-.327-.793-.49-1.344-.49Zm9.734 4.886a2.916 2.916 0 0 1-.938 1.148c-.401.28-.91.42-1.526.42-.439 0-.854-.075-1.246-.224a3.002 3.002 0 0 1-1.036-.7 3.494 3.494 0 0 1-.714-1.176c-.177-.476-.266-1.036-.266-1.68 0-.635.089-1.185.266-1.652.177-.476.415-.868.714-1.176a2.76 2.76 0 0 1 1.036-.7 3.387 3.387 0 0 1 1.26-.238c.551 0 1.027.117 1.428.35.401.224.723.546.966.966v-3.948h1.232v10.038h-1.078l-.098-1.428Zm-2.282.462c.317 0 .611-.051.882-.154.271-.112.504-.28.7-.504.205-.224.364-.504.476-.84.121-.336.182-.728.182-1.176 0-.448-.061-.84-.182-1.176a2.305 2.305 0 0 0-.476-.84 1.739 1.739 0 0 0-.7-.49 2.287 2.287 0 0 0-.882-.168c-.644 0-1.171.229-1.582.686-.401.448-.602 1.111-.602 1.988 0 .887.205 1.554.616 2.002.411.448.933.672 1.568.672Z"/>
    <rect width="148" height="42" x="83" y="349" fill="#fff" stroke="#67B0F8" stroke-width="2" rx="4"/>
    <path fill="#18123D" d="M135.159 364.851h3.36c1.186 0 2.086.233 2.702.7.626.457.938 1.181.938 2.17 0 .877-.214 1.549-.644 2.016-.42.467-.975.775-1.666.924l2.73 4.228h-1.484l-2.618-4.074h-2.002v4.074h-1.316v-10.038Zm1.316 1.204v3.57h1.918c.355 0 .677-.033.966-.098a1.99 1.99 0 0 0 .756-.322c.215-.149.378-.345.49-.588.122-.252.182-.56.182-.924 0-.597-.196-1.017-.588-1.26-.392-.252-.952-.378-1.68-.378h-2.044Zm13.212 8.218a3.685 3.685 0 0 1-.378.238 4.34 4.34 0 0 1-.546.252 4.576 4.576 0 0 1-.728.182c-.27.056-.574.084-.91.084-1.222 0-2.151-.331-2.786-.994-.634-.663-.952-1.591-.952-2.786 0-.588.084-1.115.252-1.582.178-.467.42-.859.728-1.176a3.024 3.024 0 0 1 1.092-.742 3.5 3.5 0 0 1 1.372-.266c.523 0 .99.089 1.4.266.411.177.747.439 1.008.784.271.345.453.775.546 1.288.103.504.103 1.092 0 1.764h-5.124c.047.784.28 1.372.7 1.764.42.383 1.046.574 1.876.574.56 0 1.041-.079 1.442-.238a5.015 5.015 0 0 0 1.008-.518v1.106Zm-2.884-5.698c-.532 0-.989.163-1.372.49-.382.327-.625.821-.728 1.484h3.906c.038-.672-.116-1.167-.462-1.484-.345-.327-.793-.49-1.344-.49Zm6.85 6.454c-.382 0-.723-.033-1.022-.098a4.808 4.808 0 0 1-.77-.21 4.282 4.282 0 0 1-.546-.28 3.732 3.732 0 0 1-.35-.266v-1.106c.094.093.22.196.378.308.159.103.35.201.574.294.224.093.476.173.756.238.29.056.612.084.966.084.523 0 .938-.084 1.246-.252.308-.168.462-.453.462-.854 0-.215-.051-.387-.154-.518a.932.932 0 0 0-.392-.308 2.429 2.429 0 0 0-.588-.196 28.153 28.153 0 0 0-.686-.14 24.708 24.708 0 0 1-.91-.21 3.213 3.213 0 0 1-.812-.35 1.92 1.92 0 0 1-.588-.602c-.149-.252-.224-.579-.224-.98 0-.653.252-1.167.756-1.54.514-.373 1.228-.56 2.142-.56.514 0 .966.051 1.358.154.402.103.71.215.924.336v1.106a3.286 3.286 0 0 0-.91-.392c-.354-.112-.798-.168-1.33-.168-.55 0-.975.075-1.274.224-.289.149-.434.42-.434.812a.82.82 0 0 0 .126.476c.084.112.196.205.336.28.15.065.318.117.504.154.187.037.383.079.588.126.318.065.644.135.98.21.336.075.635.191.896.35.271.159.49.373.658.644.178.261.266.616.266 1.064 0 .42-.084.77-.252 1.05a1.93 1.93 0 0 1-.672.672c-.27.159-.583.271-.938.336-.345.075-.7.112-1.064.112Zm8-.294a2.252 2.252 0 0 1-.574.21 3.171 3.171 0 0 1-.742.084c-.355 0-.658-.051-.91-.154a1.76 1.76 0 0 1-.602-.406 1.72 1.72 0 0 1-.35-.588 2.452 2.452 0 0 1-.098-.686v-4.522h-.868v-1.05h.868v-1.526h1.232v1.526h2.114v1.05h-2.114v4.368c0 .308.075.532.224.672.159.14.434.21.826.21.364 0 .695-.103.994-.308v1.12Zm5.895-1.232a4.24 4.24 0 0 1-.322.532 2.419 2.419 0 0 1-1.19.854c-.261.093-.569.14-.924.14-.653 0-1.18-.182-1.582-.546-.401-.373-.602-.905-.602-1.596 0-.793.276-1.377.826-1.75.56-.373 1.354-.56 2.38-.56h1.358v-.602c0-.504-.13-.863-.392-1.078-.261-.215-.709-.322-1.344-.322-.448 0-.872.075-1.274.224-.401.14-.76.303-1.078.49v-1.106a5.438 5.438 0 0 1 1.05-.462 4.367 4.367 0 0 1 1.47-.238c.915 0 1.61.191 2.086.574.476.373.714.957.714 1.75v4.2c.01.103.014.21.014.322l.028.322c.01.093.019.173.028.238h-1.12a6.439 6.439 0 0 1-.084-.546 8.754 8.754 0 0 1-.028-.63l-.014-.21Zm-2.17.42c.383 0 .71-.079.98-.238.271-.159.49-.341.658-.546.168-.215.29-.42.364-.616.075-.205.112-.35.112-.434v-.532h-1.232c-.737 0-1.274.107-1.61.322-.326.205-.49.518-.49.938 0 .327.098.593.294.798.196.205.504.308.924.308Zm8.881-5.068a3.795 3.795 0 0 0-1.428.406c-.42.215-.732.551-.938 1.008v4.62h-1.232v-7.266h1.078l.126 1.582h.028c.206-.429.5-.803.882-1.12.392-.327.887-.527 1.484-.602v1.372Zm5.126 5.88c-.149.084-.34.154-.574.21-.233.056-.48.084-.742.084-.354 0-.658-.051-.91-.154a1.77 1.77 0 0 1-.602-.406 1.737 1.737 0 0 1-.35-.588 2.452 2.452 0 0 1-.098-.686v-4.522h-.868v-1.05h.868v-1.526h1.232v1.526h2.114v1.05h-2.114v4.368c0 .308.075.532.224.672.159.14.434.21.826.21.364 0 .696-.103.994-.308v1.12Z"/>
    <rect width="148" height="42" x="265" y="433" fill="#fff" stroke="#67B0F8" stroke-width="2" rx="4"/>
    <path fill="#18123D" d="M306.577 448.851h3.374c.672 0 1.298.079 1.876.238.579.159 1.083.42 1.512.784.43.364.766.845 1.008 1.442.243.597.364 1.335.364 2.212 0 .887-.126 1.666-.378 2.338-.242.663-.583 1.218-1.022 1.666a4.208 4.208 0 0 1-1.554 1.022 5.536 5.536 0 0 1-1.96.336h-3.22v-10.038Zm1.316 1.204v7.644h1.904c.514 0 .985-.079 1.414-.238.43-.159.798-.401 1.106-.728.308-.336.546-.761.714-1.274.168-.513.252-1.125.252-1.834 0-.7-.084-1.279-.252-1.736-.168-.467-.401-.835-.7-1.106a2.333 2.333 0 0 0-1.05-.56 5.036 5.036 0 0 0-1.33-.168h-2.058Zm14.252 8.218a3.919 3.919 0 0 1-.378.238c-.15.084-.332.168-.546.252a4.632 4.632 0 0 1-.728.182 4.51 4.51 0 0 1-.91.084c-1.223 0-2.152-.331-2.787-.994-.634-.663-.952-1.591-.952-2.786 0-.588.084-1.115.252-1.582.178-.467.42-.859.728-1.176a3.02 3.02 0 0 1 1.093-.742c.42-.177.877-.266 1.372-.266.522 0 .989.089 1.399.266.411.177.747.439 1.008.784.271.345.453.775.547 1.288.102.504.102 1.092 0 1.764h-5.125c.047.784.28 1.372.701 1.764.42.383 1.045.574 1.875.574.56 0 1.041-.079 1.443-.238a5.07 5.07 0 0 0 1.008-.518v1.106Zm-2.884-5.698c-.532 0-.99.163-1.373.49-.382.327-.625.821-.728 1.484h3.907c.037-.672-.117-1.167-.462-1.484-.346-.327-.794-.49-1.344-.49Zm8.781 4.928a4.24 4.24 0 0 1-.322.532 2.419 2.419 0 0 1-1.19.854c-.261.093-.569.14-.924.14-.653 0-1.18-.182-1.582-.546-.401-.373-.602-.905-.602-1.596 0-.793.276-1.377.826-1.75.56-.373 1.354-.56 2.38-.56h1.358v-.602c0-.504-.13-.863-.392-1.078-.261-.215-.709-.322-1.344-.322-.448 0-.872.075-1.274.224-.401.14-.76.303-1.078.49v-1.106a5.438 5.438 0 0 1 1.05-.462 4.367 4.367 0 0 1 1.47-.238c.915 0 1.61.191 2.086.574.476.373.714.957.714 1.75v4.2c.01.103.014.21.014.322l.028.322c.01.093.019.173.028.238h-1.12a6.439 6.439 0 0 1-.084-.546 8.754 8.754 0 0 1-.028-.63l-.014-.21Zm-2.17.42c.383 0 .71-.079.98-.238.271-.159.49-.341.658-.546.168-.215.29-.42.364-.616.075-.205.112-.35.112-.434v-.532h-1.232c-.737 0-1.274.107-1.61.322-.326.205-.49.518-.49.938 0 .327.098.593.294.798.196.205.504.308.924.308Zm8.419 1.106c-.56 0-1.068-.084-1.526-.252a3.345 3.345 0 0 1-1.148-.742 3.277 3.277 0 0 1-.728-1.19c-.168-.467-.252-.999-.252-1.596 0-.588.084-1.115.252-1.582.178-.467.425-.859.742-1.176a3.073 3.073 0 0 1 1.162-.742 4.284 4.284 0 0 1 1.554-.266c.448 0 .859.051 1.232.154.374.093.682.233.924.42v1.106a3.243 3.243 0 0 0-1.008-.434 4.145 4.145 0 0 0-1.134-.154c-.849 0-1.474.219-1.876.658-.392.439-.588 1.111-.588 2.016s.192 1.577.574 2.016c.383.439.99.658 1.82.658.439 0 .84-.051 1.204-.154.374-.112.71-.252 1.008-.42v1.106a4.29 4.29 0 0 1-2.212.574Zm7.338-.294c-.149.084-.34.154-.574.21-.233.056-.48.084-.742.084-.354 0-.658-.051-.91-.154a1.77 1.77 0 0 1-.602-.406 1.737 1.737 0 0 1-.35-.588 2.452 2.452 0 0 1-.098-.686v-4.522h-.868v-1.05h.868v-1.526h1.232v1.526h2.114v1.05h-2.114v4.368c0 .308.075.532.224.672.159.14.434.21.826.21.364 0 .696-.103.994-.308v1.12Zm2.27-8.176c-.252 0-.453-.075-.602-.224a.805.805 0 0 1-.224-.574c0-.224.074-.415.224-.574.149-.159.35-.238.602-.238.242 0 .434.079.574.238.14.159.21.35.21.574 0 .224-.07.415-.21.574-.14.149-.332.224-.574.224Zm.602 1.064v7.266h-1.232v-7.266h1.232Zm5.62 7.266h-1.988l-2.492-7.266h1.33l2.212 6.608 2.198-6.608h1.232l-2.492 7.266Zm7.822-1.386a4.363 4.363 0 0 1-.322.532 2.444 2.444 0 0 1-1.19.854c-.262.093-.57.14-.924.14-.654 0-1.181-.182-1.582-.546-.402-.373-.602-.905-.602-1.596 0-.793.275-1.377.826-1.75.56-.373 1.353-.56 2.38-.56h1.358v-.602c0-.504-.131-.863-.392-1.078-.262-.215-.71-.322-1.344-.322a3.63 3.63 0 0 0-1.274.224c-.402.14-.761.303-1.078.49v-1.106a5.383 5.383 0 0 1 1.05-.462 4.367 4.367 0 0 1 1.47-.238c.914 0 1.61.191 2.086.574.476.373.714.957.714 1.75v4.2c.009.103.014.21.014.322.009.112.018.219.028.322.009.093.018.173.028.238h-1.12a6.439 6.439 0 0 1-.084-.546 8.21 8.21 0 0 1-.028-.63l-.014-.21Zm-2.17.42c.382 0 .709-.079.98-.238.27-.159.49-.341.658-.546.168-.215.289-.42.364-.616.074-.205.112-.35.112-.434v-.532h-1.232c-.738 0-1.274.107-1.61.322-.327.205-.49.518-.49.938 0 .327.098.593.294.798.196.205.504.308.924.308Zm8.839.812a2.252 2.252 0 0 1-.574.21 3.171 3.171 0 0 1-.742.084c-.355 0-.658-.051-.91-.154a1.76 1.76 0 0 1-.602-.406 1.72 1.72 0 0 1-.35-.588 2.452 2.452 0 0 1-.098-.686v-4.522h-.868v-1.05h.868v-1.526h1.232v1.526h2.114v1.05h-2.114v4.368c0 .308.075.532.224.672.159.14.434.21.826.21.364 0 .695-.103.994-.308v1.12Zm7.353-.462a3.919 3.919 0 0 1-.378.238c-.15.084-.332.168-.546.252a4.632 4.632 0 0 1-.728.182 4.51 4.51 0 0 1-.91.084c-1.223 0-2.152-.331-2.786-.994-.635-.663-.952-1.591-.952-2.786 0-.588.084-1.115.252-1.582.177-.467.42-.859.728-1.176a3.024 3.024 0 0 1 1.092-.742c.42-.177.877-.266 1.372-.266.522 0 .989.089 1.4.266.41.177.746.439 1.008.784.27.345.452.775.546 1.288.102.504.102 1.092 0 1.764h-5.124c.046.784.28 1.372.7 1.764.42.383 1.045.574 1.876.574.56 0 1.04-.079 1.442-.238a5.07 5.07 0 0 0 1.008-.518v1.106Zm-2.884-5.698c-.532 0-.99.163-1.372.49-.383.327-.626.821-.728 1.484h3.906c.037-.672-.117-1.167-.462-1.484-.346-.327-.794-.49-1.344-.49Z"/>
    <rect width="150" height="44" x="446" y="180" fill="#FFDADA" rx="5"/>
    <path fill="#18123D" d="M506.44 196.851h6.216v1.204h-4.9v3.038h4.158v1.19h-4.158v3.416h4.97v1.19h-6.286v-10.038Zm11.797 4.004a3.784 3.784 0 0 0-1.428.406c-.42.215-.733.551-.938 1.008v4.62h-1.232v-7.266h1.078l.126 1.582h.028c.205-.429.499-.803.882-1.12.392-.327.887-.527 1.484-.602v1.372Zm5.099 0a3.795 3.795 0 0 0-1.428.406c-.42.215-.732.551-.938 1.008v4.62h-1.232v-7.266h1.078l.126 1.582h.028c.206-.429.5-.803.882-1.12.392-.327.887-.527 1.484-.602v1.372Zm4.279 6.174c-.495 0-.957-.084-1.386-.252a3.233 3.233 0 0 1-1.12-.728 3.542 3.542 0 0 1-.728-1.19c-.177-.467-.266-1.003-.266-1.61 0-.597.089-1.129.266-1.596.177-.476.42-.873.728-1.19.317-.317.691-.56 1.12-.728a3.767 3.767 0 0 1 1.386-.252c.504 0 .971.084 1.4.252.429.168.798.411 1.106.728.317.317.565.714.742 1.19.187.467.28.999.28 1.596 0 .607-.093 1.143-.28 1.61a3.433 3.433 0 0 1-.742 1.19c-.308.317-.677.56-1.106.728a3.807 3.807 0 0 1-1.4.252Zm0-1.106a2.5 2.5 0 0 0 .896-.154 2.04 2.04 0 0 0 .728-.49c.205-.224.364-.504.476-.84.112-.336.168-.733.168-1.19 0-.457-.056-.854-.168-1.19a2.17 2.17 0 0 0-.476-.826 1.831 1.831 0 0 0-.728-.49 2.322 2.322 0 0 0-.896-.168c-.327 0-.625.056-.896.168a1.849 1.849 0 0 0-.714.49c-.196.215-.35.49-.462.826a3.775 3.775 0 0 0-.168 1.19c0 .457.056.854.168 1.19.112.336.266.616.462.84.205.215.443.378.714.49a2.5 2.5 0 0 0 .896.154Zm8.628-5.068a3.784 3.784 0 0 0-1.428.406c-.42.215-.733.551-.938 1.008v4.62h-1.232v-7.266h1.078l.126 1.582h.028c.205-.429.499-.803.882-1.12.392-.327.886-.527 1.484-.602v1.372Z"/>
    <rect width="150" height="44" x="264" y="180" fill="#D3E3FC" rx="5"/>
    <path fill="#18123D" d="M317.624 207.029c-.747 0-1.424-.117-2.03-.35a4.425 4.425 0 0 1-1.568-1.008 4.597 4.597 0 0 1-.994-1.624c-.234-.644-.35-1.367-.35-2.17 0-.812.107-1.535.322-2.17a4.258 4.258 0 0 1 .952-1.61c.42-.448.933-.789 1.54-1.022.616-.233 1.316-.35 2.1-.35.681 0 1.278.075 1.792.224.513.14.933.308 1.26.504v1.26a4.65 4.65 0 0 0-1.456-.602 6.83 6.83 0 0 0-1.61-.196c-1.186 0-2.063.331-2.632.994-.56.653-.84 1.643-.84 2.968 0 1.335.303 2.329.91 2.982.616.653 1.521.98 2.716.98.513 0 1.012-.07 1.498-.21.494-.14.966-.378 1.414-.714v1.26c-.271.215-.668.411-1.19.588-.514.177-1.125.266-1.834.266Zm8.468-6.174a3.795 3.795 0 0 0-1.428.406c-.42.215-.732.551-.938 1.008v4.62h-1.232v-7.266h1.078l.126 1.582h.028c.206-.429.5-.803.882-1.12.392-.327.887-.527 1.484-.602v1.372Zm7.079 5.418a3.919 3.919 0 0 1-.378.238 4.34 4.34 0 0 1-.546.252 4.604 4.604 0 0 1-.728.182 4.51 4.51 0 0 1-.91.084c-1.223 0-2.151-.331-2.786-.994-.635-.663-.952-1.591-.952-2.786 0-.588.084-1.115.252-1.582.177-.467.42-.859.728-1.176a3.024 3.024 0 0 1 1.092-.742c.42-.177.877-.266 1.372-.266.523 0 .989.089 1.4.266.411.177.747.439 1.008.784.271.345.453.775.546 1.288.103.504.103 1.092 0 1.764h-5.124c.047.784.28 1.372.7 1.764.42.383 1.045.574 1.876.574.56 0 1.041-.079 1.442-.238a5.07 5.07 0 0 0 1.008-.518v1.106Zm-2.884-5.698c-.532 0-.989.163-1.372.49-.383.327-.625.821-.728 1.484h3.906c.037-.672-.117-1.167-.462-1.484-.345-.327-.793-.49-1.344-.49Zm8.782 4.928a4.363 4.363 0 0 1-.322.532 2.444 2.444 0 0 1-1.19.854c-.262.093-.57.14-.924.14-.654 0-1.181-.182-1.582-.546-.402-.373-.602-.905-.602-1.596 0-.793.275-1.377.826-1.75.56-.373 1.353-.56 2.38-.56h1.358v-.602c0-.504-.131-.863-.392-1.078-.262-.215-.71-.322-1.344-.322a3.63 3.63 0 0 0-1.274.224c-.402.14-.761.303-1.078.49v-1.106a5.383 5.383 0 0 1 1.05-.462 4.367 4.367 0 0 1 1.47-.238c.914 0 1.61.191 2.086.574.476.373.714.957.714 1.75v4.2c.009.103.014.21.014.322.009.112.018.219.028.322.009.093.018.173.028.238h-1.12a6.439 6.439 0 0 1-.084-.546 8.21 8.21 0 0 1-.028-.63l-.014-.21Zm-2.17.42c.382 0 .709-.079.98-.238.27-.159.49-.341.658-.546.168-.215.289-.42.364-.616.074-.205.112-.35.112-.434v-.532h-1.232c-.738 0-1.274.107-1.61.322-.327.205-.49.518-.49.938 0 .327.098.593.294.798.196.205.504.308.924.308Zm8.839.812a2.252 2.252 0 0 1-.574.21 3.171 3.171 0 0 1-.742.084c-.355 0-.658-.051-.91-.154a1.76 1.76 0 0 1-.602-.406 1.72 1.72 0 0 1-.35-.588 2.452 2.452 0 0 1-.098-.686v-4.522h-.868v-1.05h.868v-1.526h1.232v1.526h2.114v1.05h-2.114v4.368c0 .308.075.532.224.672.159.14.434.21.826.21.364 0 .695-.103.994-.308v1.12Zm2.269-8.176c-.252 0-.453-.075-.602-.224a.81.81 0 0 1-.224-.574.81.81 0 0 1 .224-.574c.149-.159.35-.238.602-.238.243 0 .434.079.574.238.14.159.21.35.21.574 0 .224-.07.415-.21.574-.14.149-.331.224-.574.224Zm.602 1.064v7.266h-1.232v-7.266h1.232Zm5.452.952c-.56 0-1.017.131-1.372.392a2.874 2.874 0 0 0-.84.98v4.942h-1.232v-7.266h1.162l.042 1.302h.028a2.46 2.46 0 0 1 .924-1.036c.42-.271.952-.406 1.596-.406.719 0 1.288.191 1.708.574.43.373.644.952.644 1.736v5.096h-1.232v-4.97c0-.504-.126-.854-.378-1.05-.252-.196-.602-.294-1.05-.294Zm10.853 5.698c0 .467-.07.891-.21 1.274a2.3 2.3 0 0 1-.644.994c-.289.271-.667.481-1.134.63-.457.149-1.013.224-1.666.224-.355 0-.667-.019-.938-.056a4.3 4.3 0 0 1-.714-.154 2.562 2.562 0 0 1-.504-.196 2.326 2.326 0 0 1-.35-.196v-1.106c.149.084.303.159.462.224a4.105 4.105 0 0 0 1.204.322c.252.037.537.056.854.056.896 0 1.521-.168 1.876-.504.355-.336.532-.835.532-1.498v-1.12a2.645 2.645 0 0 1-.91 1.036c-.383.261-.859.392-1.428.392a3.44 3.44 0 0 1-1.232-.224 3.049 3.049 0 0 1-1.022-.658 3.397 3.397 0 0 1-.7-1.106c-.168-.448-.252-.966-.252-1.554 0-.597.084-1.115.252-1.554a3.37 3.37 0 0 1 .7-1.12 2.914 2.914 0 0 1 1.036-.672 3.476 3.476 0 0 1 1.246-.224c.579 0 1.064.131 1.456.392.401.261.714.616.938 1.064l.014-.154c0-.168.009-.369.028-.602.019-.243.037-.429.056-.56h1.12a9.267 9.267 0 0 0-.056.56 16.97 16.97 0 0 0-.014.602v5.488Zm-3.346-.784c.308 0 .588-.047.84-.14.261-.103.485-.257.672-.462.196-.205.345-.457.448-.756a3.15 3.15 0 0 0 .168-1.078c0-.831-.205-1.451-.616-1.862-.401-.411-.91-.616-1.526-.616a2.42 2.42 0 0 0-.868.154c-.261.103-.49.257-.686.462a2.27 2.27 0 0 0-.448.784 3.15 3.15 0 0 0-.168 1.078c0 .411.056.77.168 1.078.112.299.266.551.462.756.196.196.425.345.686.448.271.103.56.154.868.154Z"/>
    <rect width="148" height="42" x="265" y="97" fill="#fff" stroke="#67B0F8" stroke-width="2" rx="4"/>
    <path fill="#18123D" d="M316.846 112.851h1.96l3.598 10.038h-1.4l-1.036-2.87h-4.438l-1.022 2.87h-1.232l3.57-10.038Zm2.702 5.978-1.792-4.998-1.792 4.998h3.584Zm7.149 4.2c-.56 0-1.069-.084-1.526-.252a3.335 3.335 0 0 1-1.148-.742 3.263 3.263 0 0 1-.728-1.19c-.168-.467-.252-.999-.252-1.596 0-.588.084-1.115.252-1.582.177-.467.424-.859.742-1.176a3.057 3.057 0 0 1 1.162-.742 4.277 4.277 0 0 1 1.554-.266c.448 0 .858.051 1.232.154.373.093.681.233.924.42v1.106a3.263 3.263 0 0 0-1.008-.434 4.145 4.145 0 0 0-1.134-.154c-.85 0-1.475.219-1.876.658-.392.439-.588 1.111-.588 2.016s.191 1.577.574 2.016c.382.439.989.658 1.82.658.438 0 .84-.051 1.204-.154a4.969 4.969 0 0 0 1.008-.42v1.106a4.29 4.29 0 0 1-2.212.574Zm7.338-.294c-.15.084-.341.154-.574.21a3.177 3.177 0 0 1-.742.084c-.355 0-.658-.051-.91-.154a1.75 1.75 0 0 1-.602-.406 1.705 1.705 0 0 1-.35-.588 2.416 2.416 0 0 1-.098-.686v-4.522h-.868v-1.05h.868v-1.526h1.232v1.526h2.114v1.05h-2.114v4.368c0 .308.074.532.224.672.158.14.434.21.826.21.364 0 .695-.103.994-.308v1.12Zm2.269-8.176c-.252 0-.453-.075-.602-.224a.81.81 0 0 1-.224-.574.81.81 0 0 1 .224-.574c.149-.159.35-.238.602-.238.243 0 .434.079.574.238.14.159.21.35.21.574 0 .224-.07.415-.21.574-.14.149-.331.224-.574.224Zm.602 1.064v7.266h-1.232v-7.266h1.232Zm5.62 7.266h-1.988l-2.492-7.266h1.33l2.212 6.608 2.198-6.608h1.232l-2.492 7.266Zm7.822-1.386a4.24 4.24 0 0 1-.322.532 2.444 2.444 0 0 1-1.19.854c-.261.093-.569.14-.924.14-.653 0-1.181-.182-1.582-.546-.401-.373-.602-.905-.602-1.596 0-.793.275-1.377.826-1.75.56-.373 1.353-.56 2.38-.56h1.358v-.602c0-.504-.131-.863-.392-1.078-.261-.215-.709-.322-1.344-.322a3.63 3.63 0 0 0-1.274.224c-.401.14-.761.303-1.078.49v-1.106a5.383 5.383 0 0 1 1.05-.462 4.367 4.367 0 0 1 1.47-.238c.915 0 1.61.191 2.086.574.476.373.714.957.714 1.75v4.2c.009.103.014.21.014.322l.028.322c.009.093.019.173.028.238h-1.12a6.439 6.439 0 0 1-.084-.546 8.21 8.21 0 0 1-.028-.63l-.014-.21Zm-2.17.42c.383 0 .709-.079.98-.238.271-.159.49-.341.658-.546.168-.215.289-.42.364-.616.075-.205.112-.35.112-.434v-.532h-1.232c-.737 0-1.274.107-1.61.322-.327.205-.49.518-.49.938 0 .327.098.593.294.798.196.205.504.308.924.308Zm8.839.812a2.252 2.252 0 0 1-.574.21 3.171 3.171 0 0 1-.742.084c-.355 0-.658-.051-.91-.154a1.76 1.76 0 0 1-.602-.406 1.72 1.72 0 0 1-.35-.588 2.452 2.452 0 0 1-.098-.686v-4.522h-.868v-1.05h.868v-1.526h1.232v1.526h2.114v1.05h-2.114v4.368c0 .308.075.532.224.672.159.14.434.21.826.21.364 0 .695-.103.994-.308v1.12Zm7.353-.462a3.919 3.919 0 0 1-.378.238 4.34 4.34 0 0 1-.546.252 4.604 4.604 0 0 1-.728.182 4.51 4.51 0 0 1-.91.084c-1.223 0-2.151-.331-2.786-.994-.635-.663-.952-1.591-.952-2.786 0-.588.084-1.115.252-1.582.177-.467.42-.859.728-1.176a3.024 3.024 0 0 1 1.092-.742c.42-.177.877-.266 1.372-.266.523 0 .989.089 1.4.266.411.177.747.439 1.008.784.271.345.453.775.546 1.288.103.504.103 1.092 0 1.764h-5.124c.047.784.28 1.372.7 1.764.42.383 1.045.574 1.876.574.56 0 1.041-.079 1.442-.238a5.07 5.07 0 0 0 1.008-.518v1.106Zm-2.884-5.698c-.532 0-.989.163-1.372.49-.383.327-.625.821-.728 1.484h3.906c.037-.672-.117-1.167-.462-1.484-.345-.327-.793-.49-1.344-.49Z"/>
    <rect width="150" height="44" x="264" y="12" fill="#D3E3FC" rx="5"/>
    <path fill="#18123D" d="M319.517 39.029c-.746 0-1.423-.117-2.03-.35a4.451 4.451 0 0 1-1.568-1.008 4.628 4.628 0 0 1-.994-1.624c-.233-.644-.35-1.367-.35-2.17 0-.812.108-1.535.322-2.17a4.27 4.27 0 0 1 .952-1.61 4.09 4.09 0 0 1 1.54-1.022c.616-.233 1.316-.35 2.1-.35.682 0 1.279.075 1.792.224.514.14.934.308 1.26.504v1.26a4.64 4.64 0 0 0-1.456-.602 6.839 6.839 0 0 0-1.61-.196c-1.185 0-2.062.331-2.632.994-.56.653-.84 1.643-.84 2.968 0 1.335.304 2.329.91 2.982.616.653 1.522.98 2.716.98.514 0 1.013-.07 1.498-.21.495-.14.966-.378 1.414-.714v1.26c-.27.215-.667.41-1.19.588-.513.177-1.124.266-1.834.266Zm8.469-6.174a3.779 3.779 0 0 0-1.428.406c-.42.215-.733.55-.938 1.008v4.62h-1.232v-7.266h1.078l.126 1.582h.028c.205-.43.499-.803.882-1.12.392-.327.887-.527 1.484-.602v1.372Zm7.078 5.418a3.738 3.738 0 0 1-.378.238 4.34 4.34 0 0 1-.546.252 4.576 4.576 0 0 1-.728.182c-.27.056-.574.084-.91.084-1.222 0-2.151-.331-2.786-.994-.634-.663-.952-1.591-.952-2.786 0-.588.084-1.115.252-1.582.178-.467.42-.859.728-1.176a3.028 3.028 0 0 1 1.092-.742 3.5 3.5 0 0 1 1.372-.266c.523 0 .99.089 1.4.266.411.177.747.439 1.008.784.271.345.453.775.546 1.288.103.504.103 1.092 0 1.764h-5.124c.047.784.28 1.372.7 1.764.42.383 1.046.574 1.876.574.56 0 1.041-.08 1.442-.238a5.015 5.015 0 0 0 1.008-.518v1.106Zm-2.884-5.698c-.532 0-.989.163-1.372.49-.382.327-.625.821-.728 1.484h3.906c.038-.672-.116-1.167-.462-1.484-.345-.327-.793-.49-1.344-.49Zm8.782 4.928a4.219 4.219 0 0 1-.322.532 2.419 2.419 0 0 1-1.19.854c-.261.093-.569.14-.924.14-.653 0-1.18-.182-1.582-.546-.401-.373-.602-.905-.602-1.596 0-.793.276-1.377.826-1.75.56-.373 1.354-.56 2.38-.56h1.358v-.602c0-.504-.13-.863-.392-1.078-.261-.215-.709-.322-1.344-.322-.448 0-.872.075-1.274.224-.401.14-.76.303-1.078.49v-1.106a5.475 5.475 0 0 1 1.05-.462 4.374 4.374 0 0 1 1.47-.238c.915 0 1.61.191 2.086.574.476.373.714.957.714 1.75v4.2c.01.103.014.21.014.322l.028.322c.01.093.019.173.028.238h-1.12a6.4 6.4 0 0 1-.084-.546 8.74 8.74 0 0 1-.028-.63l-.014-.21Zm-2.17.42c.383 0 .71-.08.98-.238.271-.159.49-.34.658-.546.168-.215.29-.42.364-.616.075-.205.112-.35.112-.434v-.532h-1.232c-.737 0-1.274.107-1.61.322-.326.205-.49.518-.49.938 0 .327.098.593.294.798.196.205.504.308.924.308Zm8.839.812c-.149.084-.34.154-.574.21-.233.056-.48.084-.742.084-.354 0-.658-.051-.91-.154a1.765 1.765 0 0 1-.602-.406 1.742 1.742 0 0 1-.35-.588 2.45 2.45 0 0 1-.098-.686v-4.522h-.868v-1.05h.868v-1.526h1.232v1.526h2.114v1.05h-2.114v4.368c0 .308.075.532.224.672.159.14.434.21.826.21.364 0 .696-.103.994-.308v1.12Zm7.353-.462a3.738 3.738 0 0 1-.378.238 4.34 4.34 0 0 1-.546.252 4.576 4.576 0 0 1-.728.182c-.27.056-.574.084-.91.084-1.222 0-2.151-.331-2.786-.994-.634-.663-.952-1.591-.952-2.786 0-.588.084-1.115.252-1.582.178-.467.42-.859.728-1.176a3.028 3.028 0 0 1 1.092-.742 3.5 3.5 0 0 1 1.372-.266c.523 0 .99.089 1.4.266.411.177.747.439 1.008.784.271.345.453.775.546 1.288.103.504.103 1.092 0 1.764h-5.124c.047.784.28 1.372.7 1.764.42.383 1.046.574 1.876.574.56 0 1.041-.08 1.442-.238a5.015 5.015 0 0 0 1.008-.518v1.106Zm-2.884-5.698c-.532 0-.989.163-1.372.49-.382.327-.625.821-.728 1.484h3.906c.038-.672-.116-1.167-.462-1.484-.345-.327-.793-.49-1.344-.49Zm9.734 4.886a2.91 2.91 0 0 1-.938 1.148c-.401.28-.91.42-1.526.42a3.48 3.48 0 0 1-1.246-.224 2.997 2.997 0 0 1-1.036-.7 3.532 3.532 0 0 1-.714-1.176c-.177-.476-.266-1.036-.266-1.68 0-.635.089-1.185.266-1.652.178-.476.416-.868.714-1.176a2.76 2.76 0 0 1 1.036-.7 3.4 3.4 0 0 1 1.26-.238c.551 0 1.027.117 1.428.35.402.224.724.546.966.966V28.85h1.232v10.038h-1.078l-.098-1.428Zm-2.282.462c.318 0 .612-.051.882-.154.271-.112.504-.28.7-.504a2.29 2.29 0 0 0 .476-.84c.122-.336.182-.728.182-1.176 0-.448-.06-.84-.182-1.176a2.29 2.29 0 0 0-.476-.84 1.736 1.736 0 0 0-.7-.49 2.28 2.28 0 0 0-.882-.168c-.644 0-1.171.229-1.582.686-.401.448-.602 1.11-.602 1.988 0 .887.206 1.554.616 2.002.411.448.934.672 1.568.672Z"/>
    <path fill="#4E496B" d="m339 264-5.774-10h11.548L339 264Zm-1-9v-31h2v31h-2Zm1 93-5.774-10h11.548L339 348Zm-1-9v-31h2v31h-2Zm-106 31 10 5.774v-11.548L232 370Zm9 1h23v-2h-23v2Zm98 61-5.774-10h11.548L339 432Zm-1-9v-31h2v31h-2Zm1 93-5.774-10h11.548L339 516Zm-1-9v-31h2v31h-2Zm1 93-5.774-10h11.548L339 600Zm-1-9v-31h2v31h-2Zm1 93-5.774-10h11.548L339 684Zm-1-9v-31h2v31h-2Z"/>
    <rect width="150" height="44" x="264" y="264" fill="#D3E3FC" rx="5"/>
    <path fill="#18123D" d="M318.212 291.029c-.747 0-1.424-.117-2.03-.35a4.425 4.425 0 0 1-1.568-1.008 4.597 4.597 0 0 1-.994-1.624c-.234-.644-.35-1.367-.35-2.17 0-.812.107-1.535.322-2.17a4.258 4.258 0 0 1 .952-1.61c.42-.448.933-.789 1.54-1.022.616-.233 1.316-.35 2.1-.35.681 0 1.278.075 1.792.224.513.14.933.308 1.26.504v1.26a4.65 4.65 0 0 0-1.456-.602 6.83 6.83 0 0 0-1.61-.196c-1.186 0-2.063.331-2.632.994-.56.653-.84 1.643-.84 2.968 0 1.335.303 2.329.91 2.982.616.653 1.521.98 2.716.98.513 0 1.012-.07 1.498-.21.494-.14.966-.378 1.414-.714v1.26c-.271.215-.668.411-1.19.588-.514.177-1.125.266-1.834.266Zm7.784 0c-.495 0-.957-.084-1.386-.252a3.233 3.233 0 0 1-1.12-.728 3.542 3.542 0 0 1-.728-1.19c-.177-.467-.266-1.003-.266-1.61 0-.597.089-1.129.266-1.596.177-.476.42-.873.728-1.19.317-.317.691-.56 1.12-.728a3.767 3.767 0 0 1 1.386-.252c.504 0 .971.084 1.4.252.429.168.798.411 1.106.728.317.317.565.714.742 1.19.187.467.28.999.28 1.596 0 .607-.093 1.143-.28 1.61a3.433 3.433 0 0 1-.742 1.19c-.308.317-.677.56-1.106.728a3.807 3.807 0 0 1-1.4.252Zm0-1.106a2.5 2.5 0 0 0 .896-.154 2.04 2.04 0 0 0 .728-.49c.205-.224.364-.504.476-.84.112-.336.168-.733.168-1.19 0-.457-.056-.854-.168-1.19a2.17 2.17 0 0 0-.476-.826 1.831 1.831 0 0 0-.728-.49 2.322 2.322 0 0 0-.896-.168c-.327 0-.625.056-.896.168a1.849 1.849 0 0 0-.714.49c-.196.215-.35.49-.462.826a3.775 3.775 0 0 0-.168 1.19c0 .457.056.854.168 1.19.112.336.266.616.462.84.205.215.443.378.714.49a2.5 2.5 0 0 0 .896.154Zm8.684 1.106c-.56 0-1.046-.131-1.456-.392a2.84 2.84 0 0 1-.966-1.078v3.808h-1.232v-9.744h1.078l.126 1.414c.242-.476.569-.854.98-1.134.41-.28.919-.42 1.526-.42.42 0 .821.079 1.204.238.392.149.732.383 1.022.7.298.308.532.7.7 1.176.177.467.266 1.017.266 1.652 0 .644-.089 1.204-.266 1.68a3.526 3.526 0 0 1-.714 1.176 3.002 3.002 0 0 1-1.036.7 3.44 3.44 0 0 1-1.232.224Zm-.182-1.106c.644 0 1.162-.219 1.554-.658.401-.448.602-1.12.602-2.016 0-.877-.201-1.54-.602-1.988-.392-.457-.91-.686-1.554-.686-.318 0-.616.056-.896.168a1.99 1.99 0 0 0-.714.504c-.196.215-.355.49-.476.826a3.723 3.723 0 0 0-.168 1.176c0 .448.056.84.168 1.176.121.336.28.616.476.84.205.224.443.392.714.504.28.103.578.154.896.154Zm8.424.882a8.4 8.4 0 0 1-.532 1.148 3.837 3.837 0 0 1-.63.854 2.266 2.266 0 0 1-.784.518c-.29.121-.621.182-.994.182-.187 0-.36-.014-.518-.042a1.561 1.561 0 0 1-.434-.112v-1.19c.102.075.233.131.392.168.158.047.331.07.518.07.345 0 .63-.084.854-.252.224-.159.438-.415.644-.77l-2.954-7.756h1.358l2.31 6.132 2.296-6.132h1.19l-2.716 7.182Zm4.497-8.246c-.252 0-.452-.075-.602-.224a.81.81 0 0 1-.224-.574.81.81 0 0 1 .224-.574c.15-.159.35-.238.602-.238.243 0 .434.079.574.238.14.159.21.35.21.574 0 .224-.07.415-.21.574-.14.149-.331.224-.574.224Zm.602 1.064v7.266h-1.232v-7.266h1.232Zm5.452.952c-.56 0-1.017.131-1.372.392a2.874 2.874 0 0 0-.84.98v4.942h-1.232v-7.266h1.162l.042 1.302h.028a2.46 2.46 0 0 1 .924-1.036c.42-.271.952-.406 1.596-.406.719 0 1.288.191 1.708.574.43.373.644.952.644 1.736v5.096h-1.232v-4.97c0-.504-.126-.854-.378-1.05-.252-.196-.602-.294-1.05-.294Zm10.853 5.698c0 .467-.07.891-.21 1.274a2.29 2.29 0 0 1-.644.994c-.289.271-.667.481-1.134.63-.457.149-1.012.224-1.666.224-.354 0-.667-.019-.938-.056a4.345 4.345 0 0 1-.714-.154 2.562 2.562 0 0 1-.504-.196 2.377 2.377 0 0 1-.35-.196v-1.106c.15.084.304.159.462.224a4.105 4.105 0 0 0 1.204.322c.252.037.537.056.854.056.896 0 1.522-.168 1.876-.504.355-.336.532-.835.532-1.498v-1.12a2.637 2.637 0 0 1-.91 1.036c-.382.261-.858.392-1.428.392a3.44 3.44 0 0 1-1.232-.224 3.058 3.058 0 0 1-1.022-.658 3.414 3.414 0 0 1-.7-1.106c-.168-.448-.252-.966-.252-1.554 0-.597.084-1.115.252-1.554.178-.448.411-.821.7-1.12a2.914 2.914 0 0 1 1.036-.672 3.48 3.48 0 0 1 1.246-.224c.579 0 1.064.131 1.456.392.402.261.714.616.938 1.064l.014-.154c0-.168.01-.369.028-.602.019-.243.038-.429.056-.56h1.12c-.018.131-.037.317-.056.56a16.97 16.97 0 0 0-.014.602v5.488Zm-3.346-.784c.308 0 .588-.047.84-.14.262-.103.486-.257.672-.462.196-.205.346-.457.448-.756a3.15 3.15 0 0 0 .168-1.078c0-.831-.205-1.451-.616-1.862-.401-.411-.91-.616-1.526-.616a2.42 2.42 0 0 0-.868.154c-.261.103-.49.257-.686.462a2.285 2.285 0 0 0-.448.784 3.15 3.15 0 0 0-.168 1.078c0 .411.056.77.168 1.078.112.299.266.551.462.756.196.196.425.345.686.448.271.103.56.154.868.154Z"/>
    <rect width="150" height="44" x="264" y="516" fill="#D3E3FC" rx="5"/>
    <path fill="#18123D" d="M314.142 543.029c-.457 0-.868-.033-1.232-.098a5.95 5.95 0 0 1-.966-.224 4.995 4.995 0 0 1-.7-.322 2.744 2.744 0 0 1-.448-.35v-1.26c.14.121.322.247.546.378.224.121.481.233.77.336.299.103.616.187.952.252.345.065.705.098 1.078.098.728 0 1.307-.135 1.736-.406.429-.28.644-.7.644-1.26 0-.28-.051-.509-.154-.686a1.245 1.245 0 0 0-.448-.462 2.596 2.596 0 0 0-.742-.322c-.289-.093-.63-.191-1.022-.294a18.704 18.704 0 0 1-1.176-.35 4.327 4.327 0 0 1-1.064-.518 2.622 2.622 0 0 1-.756-.812c-.187-.327-.28-.742-.28-1.246 0-.868.303-1.545.91-2.03.607-.485 1.535-.728 2.786-.728.364 0 .686.023.966.07.289.037.541.089.756.154.224.056.415.121.574.196.168.075.317.145.448.21v1.26a3.94 3.94 0 0 0-1.274-.532 6.055 6.055 0 0 0-1.47-.168c-.448 0-.826.037-1.134.112a2 2 0 0 0-.728.294 1.158 1.158 0 0 0-.406.476 1.521 1.521 0 0 0-.126.63c0 .28.061.513.182.7.131.187.299.345.504.476.215.121.457.224.728.308.271.084.555.159.854.224.392.093.793.201 1.204.322.411.121.779.289 1.106.504.327.215.593.495.798.84.215.336.322.775.322 1.316 0 .532-.107.985-.322 1.358a2.618 2.618 0 0 1-.826.896 3.51 3.51 0 0 1-1.19.504 6.232 6.232 0 0 1-1.4.154Zm8.791-.294a2.252 2.252 0 0 1-.574.21 3.171 3.171 0 0 1-.742.084c-.355 0-.658-.051-.91-.154a1.76 1.76 0 0 1-.602-.406 1.72 1.72 0 0 1-.35-.588 2.452 2.452 0 0 1-.098-.686v-4.522h-.868v-1.05h.868v-1.526h1.232v1.526h2.114v1.05h-2.114v4.368c0 .308.075.532.224.672.159.14.434.21.826.21.364 0 .695-.103.994-.308v1.12Zm4.553.294c-.495 0-.957-.084-1.386-.252a3.233 3.233 0 0 1-1.12-.728 3.542 3.542 0 0 1-.728-1.19c-.177-.467-.266-1.003-.266-1.61 0-.597.089-1.129.266-1.596.177-.476.42-.873.728-1.19.317-.317.691-.56 1.12-.728a3.767 3.767 0 0 1 1.386-.252c.504 0 .971.084 1.4.252.429.168.798.411 1.106.728.317.317.565.714.742 1.19.187.467.28.999.28 1.596 0 .607-.093 1.143-.28 1.61a3.433 3.433 0 0 1-.742 1.19c-.308.317-.677.56-1.106.728a3.807 3.807 0 0 1-1.4.252Zm0-1.106a2.5 2.5 0 0 0 .896-.154 2.04 2.04 0 0 0 .728-.49c.205-.224.364-.504.476-.84.112-.336.168-.733.168-1.19 0-.457-.056-.854-.168-1.19a2.17 2.17 0 0 0-.476-.826 1.831 1.831 0 0 0-.728-.49 2.322 2.322 0 0 0-.896-.168c-.327 0-.625.056-.896.168a1.849 1.849 0 0 0-.714.49c-.196.215-.35.49-.462.826a3.775 3.775 0 0 0-.168 1.19c0 .457.056.854.168 1.19.112.336.266.616.462.84.205.215.443.378.714.49a2.5 2.5 0 0 0 .896.154Zm8.684 1.106c-.56 0-1.046-.131-1.456-.392a2.84 2.84 0 0 1-.966-1.078v3.808h-1.232v-9.744h1.078l.126 1.414c.242-.476.569-.854.98-1.134.41-.28.919-.42 1.526-.42.42 0 .821.079 1.204.238.392.149.732.383 1.022.7.298.308.532.7.7 1.176.177.467.266 1.017.266 1.652 0 .644-.089 1.204-.266 1.68a3.526 3.526 0 0 1-.714 1.176 3.002 3.002 0 0 1-1.036.7 3.44 3.44 0 0 1-1.232.224Zm-.182-1.106c.644 0 1.162-.219 1.554-.658.401-.448.602-1.12.602-2.016 0-.877-.201-1.54-.602-1.988-.392-.457-.91-.686-1.554-.686-.318 0-.616.056-.896.168a1.99 1.99 0 0 0-.714.504c-.196.215-.355.49-.476.826a3.723 3.723 0 0 0-.168 1.176c0 .448.056.84.168 1.176.121.336.28.616.476.84.205.224.443.392.714.504.28.103.578.154.896.154Zm8.576 1.106c-.56 0-1.045-.131-1.456-.392a2.856 2.856 0 0 1-.966-1.078v3.808h-1.232v-9.744h1.078l.126 1.414c.243-.476.57-.854.98-1.134.411-.28.92-.42 1.526-.42.42 0 .822.079 1.204.238.392.149.733.383 1.022.7.299.308.532.7.7 1.176.178.467.266 1.017.266 1.652 0 .644-.088 1.204-.266 1.68a3.494 3.494 0 0 1-.714 1.176 2.992 2.992 0 0 1-1.036.7 3.436 3.436 0 0 1-1.232.224Zm-.182-1.106c.644 0 1.162-.219 1.554-.658.402-.448.602-1.12.602-2.016 0-.877-.2-1.54-.602-1.988-.392-.457-.91-.686-1.554-.686-.317 0-.616.056-.896.168-.27.112-.508.28-.714.504a2.45 2.45 0 0 0-.476.826 3.723 3.723 0 0 0-.168 1.176c0 .448.056.84.168 1.176.122.336.28.616.476.84.206.224.444.392.714.504.28.103.579.154.896.154Zm5.553-7.364c-.252 0-.453-.075-.602-.224a.81.81 0 0 1-.224-.574.81.81 0 0 1 .224-.574c.149-.159.35-.238.602-.238.243 0 .434.079.574.238.14.159.21.35.21.574 0 .224-.07.415-.21.574-.14.149-.331.224-.574.224Zm.602 1.064v7.266h-1.232v-7.266h1.232Zm5.452.952c-.56 0-1.017.131-1.372.392a2.874 2.874 0 0 0-.84.98v4.942h-1.232v-7.266h1.162l.042 1.302h.028a2.46 2.46 0 0 1 .924-1.036c.42-.271.952-.406 1.596-.406.719 0 1.288.191 1.708.574.429.373.644.952.644 1.736v5.096h-1.232v-4.97c0-.504-.126-.854-.378-1.05-.252-.196-.602-.294-1.05-.294Zm10.853 5.698c0 .467-.07.891-.21 1.274a2.3 2.3 0 0 1-.644.994c-.289.271-.667.481-1.134.63-.457.149-1.013.224-1.666.224-.355 0-.667-.019-.938-.056a4.3 4.3 0 0 1-.714-.154 2.562 2.562 0 0 1-.504-.196 2.326 2.326 0 0 1-.35-.196v-1.106c.149.084.303.159.462.224a4.105 4.105 0 0 0 1.204.322c.252.037.537.056.854.056.896 0 1.521-.168 1.876-.504.355-.336.532-.835.532-1.498v-1.12a2.645 2.645 0 0 1-.91 1.036c-.383.261-.859.392-1.428.392a3.44 3.44 0 0 1-1.232-.224 3.049 3.049 0 0 1-1.022-.658 3.397 3.397 0 0 1-.7-1.106c-.168-.448-.252-.966-.252-1.554 0-.597.084-1.115.252-1.554a3.37 3.37 0 0 1 .7-1.12 2.914 2.914 0 0 1 1.036-.672 3.476 3.476 0 0 1 1.246-.224c.579 0 1.064.131 1.456.392.401.261.714.616.938 1.064l.014-.154c0-.168.009-.369.028-.602.019-.243.037-.429.056-.56h1.12a9.267 9.267 0 0 0-.056.56 16.97 16.97 0 0 0-.014.602v5.488Zm-3.346-.784c.308 0 .588-.047.84-.14.261-.103.485-.257.672-.462.196-.205.345-.457.448-.756a3.15 3.15 0 0 0 .168-1.078c0-.831-.205-1.451-.616-1.862-.401-.411-.91-.616-1.526-.616a2.42 2.42 0 0 0-.868.154c-.261.103-.49.257-.686.462a2.27 2.27 0 0 0-.448.784 3.15 3.15 0 0 0-.168 1.078c0 .411.056.77.168 1.078.112.299.266.551.462.756.196.196.425.345.686.448.271.103.56.154.868.154Z"/>
    <rect width="150" height="44" x="264" y="348" fill="#D3E3FC" rx="5"/>
    <path fill="#18123D" d="M305.094 364.851h3.36c1.185 0 2.086.233 2.702.7.625.457.938 1.181.938 2.17 0 .877-.215 1.549-.644 2.016-.42.467-.975.775-1.666.924l2.73 4.228h-1.484l-2.618-4.074h-2.002v4.074h-1.316v-10.038Zm1.316 1.204v3.57h1.918c.355 0 .677-.033.966-.098a1.99 1.99 0 0 0 .756-.322c.215-.149.378-.345.49-.588.121-.252.182-.56.182-.924 0-.597-.196-1.017-.588-1.26-.392-.252-.952-.378-1.68-.378h-2.044Zm13.212 8.218a3.919 3.919 0 0 1-.378.238 4.34 4.34 0 0 1-.546.252 4.604 4.604 0 0 1-.728.182 4.51 4.51 0 0 1-.91.084c-1.223 0-2.151-.331-2.786-.994-.635-.663-.952-1.591-.952-2.786 0-.588.084-1.115.252-1.582.177-.467.42-.859.728-1.176a3.024 3.024 0 0 1 1.092-.742c.42-.177.877-.266 1.372-.266.523 0 .989.089 1.4.266.411.177.747.439 1.008.784.271.345.453.775.546 1.288.103.504.103 1.092 0 1.764h-5.124c.047.784.28 1.372.7 1.764.42.383 1.045.574 1.876.574.56 0 1.041-.079 1.442-.238a5.07 5.07 0 0 0 1.008-.518v1.106Zm-2.884-5.698c-.532 0-.989.163-1.372.49-.383.327-.625.821-.728 1.484h3.906c.037-.672-.117-1.167-.462-1.484-.345-.327-.793-.49-1.344-.49Zm8.18 6.454c-.56 0-1.045-.131-1.456-.392a2.856 2.856 0 0 1-.966-1.078v3.808h-1.232v-9.744h1.078l.126 1.414a2.98 2.98 0 0 1 .98-1.134c.411-.28.919-.42 1.526-.42.42 0 .821.079 1.204.238.392.149.733.383 1.022.7.299.308.532.7.7 1.176.177.467.266 1.017.266 1.652 0 .644-.089 1.204-.266 1.68a3.494 3.494 0 0 1-.714 1.176 3.002 3.002 0 0 1-1.036.7 3.44 3.44 0 0 1-1.232.224Zm-.182-1.106c.644 0 1.162-.219 1.554-.658.401-.448.602-1.12.602-2.016 0-.877-.201-1.54-.602-1.988-.392-.457-.91-.686-1.554-.686-.317 0-.616.056-.896.168a1.99 1.99 0 0 0-.714.504c-.196.215-.355.49-.476.826a3.723 3.723 0 0 0-.168 1.176c0 .448.056.84.168 1.176.121.336.28.616.476.84.205.224.443.392.714.504.28.103.579.154.896.154Zm6.154-9.072v10.038h-1.232v-10.038h1.232Zm2.639 1.708c-.252 0-.453-.075-.602-.224a.805.805 0 0 1-.224-.574c0-.224.074-.415.224-.574.149-.159.35-.238.602-.238.242 0 .434.079.574.238.14.159.21.35.21.574 0 .224-.07.415-.21.574-.14.149-.332.224-.574.224Zm.602 1.064v7.266h-1.232v-7.266h1.232Zm5.144 7.406c-.56 0-1.069-.084-1.526-.252a3.335 3.335 0 0 1-1.148-.742 3.277 3.277 0 0 1-.728-1.19c-.168-.467-.252-.999-.252-1.596 0-.588.084-1.115.252-1.582.177-.467.425-.859.742-1.176a3.065 3.065 0 0 1 1.162-.742 4.277 4.277 0 0 1 1.554-.266c.448 0 .859.051 1.232.154.373.093.681.233.924.42v1.106a3.263 3.263 0 0 0-1.008-.434 4.145 4.145 0 0 0-1.134-.154c-.849 0-1.475.219-1.876.658-.392.439-.588 1.111-.588 2.016s.191 1.577.574 2.016c.383.439.989.658 1.82.658.439 0 .84-.051 1.204-.154a4.969 4.969 0 0 0 1.008-.42v1.106a4.29 4.29 0 0 1-2.212.574Zm7.969-1.526a4.24 4.24 0 0 1-.322.532 2.419 2.419 0 0 1-1.19.854c-.261.093-.569.14-.924.14-.653 0-1.18-.182-1.582-.546-.401-.373-.602-.905-.602-1.596 0-.793.276-1.377.826-1.75.56-.373 1.354-.56 2.38-.56h1.358v-.602c0-.504-.13-.863-.392-1.078-.261-.215-.709-.322-1.344-.322-.448 0-.872.075-1.274.224-.401.14-.76.303-1.078.49v-1.106a5.438 5.438 0 0 1 1.05-.462 4.367 4.367 0 0 1 1.47-.238c.915 0 1.61.191 2.086.574.476.373.714.957.714 1.75v4.2c.01.103.014.21.014.322l.028.322c.01.093.019.173.028.238h-1.12a6.439 6.439 0 0 1-.084-.546 8.754 8.754 0 0 1-.028-.63l-.014-.21Zm-2.17.42c.383 0 .71-.079.98-.238.271-.159.49-.341.658-.546.168-.215.29-.42.364-.616.075-.205.112-.35.112-.434v-.532h-1.232c-.737 0-1.274.107-1.61.322-.326.205-.49.518-.49.938 0 .327.098.593.294.798.196.205.504.308.924.308Zm8.84.812c-.15.084-.341.154-.574.21a3.177 3.177 0 0 1-.742.084c-.355 0-.658-.051-.91-.154a1.75 1.75 0 0 1-.602-.406 1.705 1.705 0 0 1-.35-.588 2.416 2.416 0 0 1-.098-.686v-4.522h-.868v-1.05h.868v-1.526h1.232v1.526h2.114v1.05h-2.114v4.368c0 .308.074.532.224.672.158.14.434.21.826.21.364 0 .695-.103.994-.308v1.12Zm2.269-8.176c-.252 0-.453-.075-.602-.224a.81.81 0 0 1-.224-.574.81.81 0 0 1 .224-.574c.149-.159.35-.238.602-.238.243 0 .434.079.574.238.14.159.21.35.21.574 0 .224-.07.415-.21.574-.14.149-.331.224-.574.224Zm.602 1.064v7.266h-1.232v-7.266h1.232Zm5.452.952c-.56 0-1.017.131-1.372.392a2.874 2.874 0 0 0-.84.98v4.942h-1.232v-7.266h1.162l.042 1.302h.028a2.46 2.46 0 0 1 .924-1.036c.42-.271.952-.406 1.596-.406.719 0 1.288.191 1.708.574.429.373.644.952.644 1.736v5.096h-1.232v-4.97c0-.504-.126-.854-.378-1.05-.252-.196-.602-.294-1.05-.294Zm10.853 5.698c0 .467-.07.891-.21 1.274a2.3 2.3 0 0 1-.644.994c-.289.271-.667.481-1.134.63-.457.149-1.013.224-1.666.224-.355 0-.667-.019-.938-.056a4.3 4.3 0 0 1-.714-.154 2.562 2.562 0 0 1-.504-.196 2.326 2.326 0 0 1-.35-.196v-1.106c.149.084.303.159.462.224a4.105 4.105 0 0 0 1.204.322c.252.037.537.056.854.056.896 0 1.521-.168 1.876-.504.355-.336.532-.835.532-1.498v-1.12a2.645 2.645 0 0 1-.91 1.036c-.383.261-.859.392-1.428.392a3.44 3.44 0 0 1-1.232-.224 3.049 3.049 0 0 1-1.022-.658 3.397 3.397 0 0 1-.7-1.106c-.168-.448-.252-.966-.252-1.554 0-.597.084-1.115.252-1.554a3.37 3.37 0 0 1 .7-1.12 2.914 2.914 0 0 1 1.036-.672 3.476 3.476 0 0 1 1.246-.224c.579 0 1.064.131 1.456.392.401.261.714.616.938 1.064l.014-.154c0-.168.009-.369.028-.602.019-.243.037-.429.056-.56h1.12a9.267 9.267 0 0 0-.056.56 16.97 16.97 0 0 0-.014.602v5.488Zm-3.346-.784c.308 0 .588-.047.84-.14.261-.103.485-.257.672-.462.196-.205.345-.457.448-.756a3.15 3.15 0 0 0 .168-1.078c0-.831-.205-1.451-.616-1.862-.401-.411-.91-.616-1.526-.616a2.42 2.42 0 0 0-.868.154c-.261.103-.49.257-.686.462a2.27 2.27 0 0 0-.448.784 3.15 3.15 0 0 0-.168 1.078c0 .411.056.77.168 1.078.112.299.266.551.462.756.196.196.425.345.686.448.271.103.56.154.868.154Z"/>
    <rect width="150" height="44" x="264" y="600" fill="#FFF5CC" rx="5"/>
    <path fill="#18123D" d="M316.001 627.029c-.457 0-.868-.033-1.232-.098a5.95 5.95 0 0 1-.966-.224 5.05 5.05 0 0 1-.7-.322 2.788 2.788 0 0 1-.448-.35v-1.26c.14.121.322.247.546.378.224.121.481.233.77.336.299.103.616.187.952.252.346.065.705.098 1.078.098.728 0 1.307-.135 1.736-.406.43-.28.644-.7.644-1.26 0-.28-.051-.509-.154-.686a1.238 1.238 0 0 0-.448-.462 2.596 2.596 0 0 0-.742-.322c-.289-.093-.63-.191-1.022-.294a18.704 18.704 0 0 1-1.176-.35 4.344 4.344 0 0 1-1.064-.518 2.622 2.622 0 0 1-.756-.812c-.186-.327-.28-.742-.28-1.246 0-.868.304-1.545.91-2.03.607-.485 1.536-.728 2.786-.728.364 0 .686.023.966.07.29.037.542.089.756.154.224.056.416.121.574.196.168.075.318.145.448.21v1.26a3.93 3.93 0 0 0-1.274-.532 6.055 6.055 0 0 0-1.47-.168c-.448 0-.826.037-1.134.112a2.008 2.008 0 0 0-.728.294 1.166 1.166 0 0 0-.406.476 1.521 1.521 0 0 0-.126.63c0 .28.061.513.182.7.131.187.299.345.504.476.215.121.458.224.728.308.271.084.556.159.854.224.392.093.794.201 1.204.322.411.121.78.289 1.106.504.327.215.593.495.798.84.215.336.322.775.322 1.316 0 .532-.107.985-.322 1.358-.205.364-.48.663-.826.896a3.51 3.51 0 0 1-1.19.504 6.225 6.225 0 0 1-1.4.154Zm8.792-.294c-.15.084-.341.154-.574.21a3.177 3.177 0 0 1-.742.084c-.355 0-.658-.051-.91-.154a1.75 1.75 0 0 1-.602-.406 1.705 1.705 0 0 1-.35-.588 2.416 2.416 0 0 1-.098-.686v-4.522h-.868v-1.05h.868v-1.526h1.232v1.526h2.114v1.05h-2.114v4.368c0 .308.074.532.224.672.158.14.434.21.826.21.364 0 .695-.103.994-.308v1.12Zm4.552.294c-.494 0-.956-.084-1.386-.252a3.242 3.242 0 0 1-1.12-.728 3.558 3.558 0 0 1-.728-1.19c-.177-.467-.266-1.003-.266-1.61 0-.597.089-1.129.266-1.596.178-.476.42-.873.728-1.19.318-.317.691-.56 1.12-.728.43-.168.892-.252 1.386-.252.504 0 .971.084 1.4.252.43.168.798.411 1.106.728.318.317.565.714.742 1.19.187.467.28.999.28 1.596 0 .607-.093 1.143-.28 1.61a3.418 3.418 0 0 1-.742 1.19c-.308.317-.676.56-1.106.728a3.807 3.807 0 0 1-1.4.252Zm0-1.106c.327 0 .626-.051.896-.154a2.04 2.04 0 0 0 .728-.49 2.29 2.29 0 0 0 .476-.84c.112-.336.168-.733.168-1.19 0-.457-.056-.854-.168-1.19a2.158 2.158 0 0 0-.476-.826 1.831 1.831 0 0 0-.728-.49 2.318 2.318 0 0 0-.896-.168c-.326 0-.625.056-.896.168-.27.103-.508.266-.714.49-.196.215-.35.49-.462.826a3.775 3.775 0 0 0-.168 1.19c0 .457.056.854.168 1.19.112.336.266.616.462.84.206.215.444.378.714.49.271.103.57.154.896.154Zm8.684 1.106c-.56 0-1.045-.131-1.456-.392a2.856 2.856 0 0 1-.966-1.078v3.808h-1.232v-9.744h1.078l.126 1.414c.243-.476.57-.854.98-1.134.411-.28.92-.42 1.526-.42.42 0 .822.079 1.204.238.392.149.733.383 1.022.7.299.308.532.7.7 1.176.178.467.266 1.017.266 1.652 0 .644-.088 1.204-.266 1.68a3.494 3.494 0 0 1-.714 1.176 2.992 2.992 0 0 1-1.036.7 3.436 3.436 0 0 1-1.232.224Zm-.182-1.106c.644 0 1.162-.219 1.554-.658.402-.448.602-1.12.602-2.016 0-.877-.2-1.54-.602-1.988-.392-.457-.91-.686-1.554-.686-.317 0-.616.056-.896.168-.27.112-.508.28-.714.504a2.45 2.45 0 0 0-.476.826 3.723 3.723 0 0 0-.168 1.176c0 .448.056.84.168 1.176.122.336.28.616.476.84.206.224.444.392.714.504.28.103.579.154.896.154Zm8.577 1.106c-.56 0-1.046-.131-1.456-.392a2.84 2.84 0 0 1-.966-1.078v3.808h-1.232v-9.744h1.078l.126 1.414c.242-.476.569-.854.98-1.134.41-.28.919-.42 1.526-.42.42 0 .821.079 1.204.238.392.149.732.383 1.022.7.298.308.532.7.7 1.176.177.467.266 1.017.266 1.652 0 .644-.089 1.204-.266 1.68a3.526 3.526 0 0 1-.714 1.176 3.002 3.002 0 0 1-1.036.7 3.44 3.44 0 0 1-1.232.224Zm-.182-1.106c.644 0 1.162-.219 1.554-.658.401-.448.602-1.12.602-2.016 0-.877-.201-1.54-.602-1.988-.392-.457-.91-.686-1.554-.686-.318 0-.616.056-.896.168a1.99 1.99 0 0 0-.714.504c-.196.215-.355.49-.476.826a3.723 3.723 0 0 0-.168 1.176c0 .448.056.84.168 1.176.121.336.28.616.476.84.205.224.443.392.714.504.28.103.578.154.896.154Zm10.704.35a3.685 3.685 0 0 1-.378.238 4.34 4.34 0 0 1-.546.252 4.576 4.576 0 0 1-.728.182c-.27.056-.574.084-.91.084-1.222 0-2.151-.331-2.786-.994-.634-.663-.952-1.591-.952-2.786 0-.588.084-1.115.252-1.582.178-.467.42-.859.728-1.176a3.024 3.024 0 0 1 1.092-.742 3.5 3.5 0 0 1 1.372-.266c.523 0 .99.089 1.4.266.411.177.747.439 1.008.784.271.345.453.775.546 1.288.103.504.103 1.092 0 1.764h-5.124c.047.784.28 1.372.7 1.764.42.383 1.046.574 1.876.574.56 0 1.041-.079 1.442-.238a5.015 5.015 0 0 0 1.008-.518v1.106Zm-2.884-5.698c-.532 0-.989.163-1.372.49-.382.327-.625.821-.728 1.484h3.906c.038-.672-.116-1.167-.462-1.484-.345-.327-.793-.49-1.344-.49Zm9.734 4.886a2.916 2.916 0 0 1-.938 1.148c-.401.28-.91.42-1.526.42-.439 0-.854-.075-1.246-.224a3.002 3.002 0 0 1-1.036-.7 3.494 3.494 0 0 1-.714-1.176c-.177-.476-.266-1.036-.266-1.68 0-.635.089-1.185.266-1.652.177-.476.415-.868.714-1.176a2.76 2.76 0 0 1 1.036-.7 3.387 3.387 0 0 1 1.26-.238c.551 0 1.027.117 1.428.35.401.224.723.546.966.966v-3.948h1.232v10.038h-1.078l-.098-1.428Zm-2.282.462c.317 0 .611-.051.882-.154.271-.112.504-.28.7-.504.205-.224.364-.504.476-.84.121-.336.182-.728.182-1.176 0-.448-.061-.84-.182-1.176a2.305 2.305 0 0 0-.476-.84 1.739 1.739 0 0 0-.7-.49 2.287 2.287 0 0 0-.882-.168c-.644 0-1.171.229-1.582.686-.401.448-.602 1.111-.602 1.988 0 .887.205 1.554.616 2.002.411.448.933.672 1.568.672Z"/>
    <path fill="#4E496B" d="m339 160-10-5.773v11.547L339 160Zm-273 0v1-1Zm-4 20v-15.007h-2V180h2Zm4-19h264v-2H66v2Zm-4 3.993A3.994 3.994 0 0 1 66 161v-2c-3.312 0-6 2.677-6 5.993h2Z"/>
    <path stroke="#4E496B" stroke-width="2" d="M82 370H65.997A4.997 4.997 0 0 1 61 365V180m535 22h16.003a4.997 4.997 0 0 1 4.997 5v189"/>
    <path fill="#4E496B" d="m414 118 10-5.773v11.547L414 118Zm106 28v-23.004h2V146h-2Zm-4-27h-93v-2h93v2Zm4 3.996a3.997 3.997 0 0 0-4-3.996v-2c3.313 0 6 2.681 6 5.996h-2Z"/>
    <path stroke="#4E496B" stroke-width="2" d="M414 622h219.041c2.761 0 4.959-2.239 4.959-5V168"/>
    <path stroke="#4E496B" stroke-width="2" d="M638 212v-89.02c0-2.761-2.239-4.98-5-4.98H474"/>
    <path fill="#4E496B" d="m414 454 10-5.774v11.548L414 454Zm203-5h1-1Zm-194.017 4h189.033v2H422.983v-2ZM616 449V222h2v227h-2Zm-3.984 4a3.987 3.987 0 0 0 3.984-4h2c0 3.31-2.667 6-5.984 6v-2ZM521 224l-5.774 10h11.548L521 224Zm-5 62v-1 1Zm4-53.004v48.02h2v-48.02h-2ZM516 285H414v2h102v-2Zm4-3.984a3.987 3.987 0 0 1-4 3.984v2c3.31 0 6-2.666 6-5.984h-2Z"/>
    <path stroke="#4E496B" stroke-width="2" d="M521 264v100.015a4.987 4.987 0 0 1-5 4.985H414M264 202h-11.004a4.996 4.996 0 0 0-4.996 5v190"/>
    <path stroke="#4E496B" stroke-width="2" d="M264 286h-11.004a4.996 4.996 0 0 0-4.996 5v106"/>
    <path fill="#4E496B" d="m264 454-10-5.774v11.548L264 454Zm-9-1h-2.004v2H255v-2Zm-6-4v-52h-2v52h2Zm3.996 4a3.997 3.997 0 0 1-3.996-4h-2c0 3.313 2.681 6 5.996 6v-2ZM339 180l-5.774-10h11.548L339 180Zm-1-9v-31h2v31h-2Z"/>
    <path stroke="#4E496B" stroke-width="2" d="M521 180v-40"/>
    <path fill="#4E496B" d="m339 96 5.774-10h-11.548L339 96Zm1-9V56h-2v31h2Zm106 115-10-5.774v11.548L446 202Zm-9-1h-23v2h23v-2Z"/>
</svg>
