<svg width="500" height="650" viewBox="0 0 500 650" fill="none" xmlns="http://www.w3.org/2000/svg">
<rect x="85" y="346" width="148" height="42" rx="4" fill="white" stroke="#67B0F8" stroke-width="2"/>
<path d="M126.577 361.851H129.951C130.623 361.851 131.249 361.93 131.827 362.089C132.406 362.248 132.91 362.509 133.339 362.873C133.769 363.237 134.105 363.718 134.347 364.315C134.59 364.912 134.711 365.65 134.711 366.527C134.711 367.414 134.585 368.193 134.333 368.865C134.091 369.528 133.75 370.083 133.311 370.531C132.882 370.979 132.364 371.32 131.757 371.553C131.16 371.777 130.507 371.889 129.797 371.889H126.577V361.851ZM127.893 363.055V370.699H129.797C130.311 370.699 130.782 370.62 131.211 370.461C131.641 370.302 132.009 370.06 132.317 369.733C132.625 369.397 132.863 368.972 133.031 368.459C133.199 367.946 133.283 367.334 133.283 366.625C133.283 365.925 133.199 365.346 133.031 364.889C132.863 364.422 132.63 364.054 132.331 363.783C132.042 363.512 131.692 363.326 131.281 363.223C130.871 363.111 130.427 363.055 129.951 363.055H127.893ZM142.145 371.273C142.042 371.348 141.916 371.427 141.767 371.511C141.617 371.595 141.435 371.679 141.221 371.763C141.006 371.838 140.763 371.898 140.493 371.945C140.222 372.001 139.919 372.029 139.583 372.029C138.36 372.029 137.431 371.698 136.797 371.035C136.162 370.372 135.845 369.444 135.845 368.249C135.845 367.661 135.929 367.134 136.097 366.667C136.274 366.2 136.517 365.808 136.825 365.491C137.133 365.164 137.497 364.917 137.917 364.749C138.337 364.572 138.794 364.483 139.289 364.483C139.811 364.483 140.278 364.572 140.689 364.749C141.099 364.926 141.435 365.188 141.697 365.533C141.967 365.878 142.149 366.308 142.243 366.821C142.345 367.325 142.345 367.913 142.243 368.585H137.119C137.165 369.369 137.399 369.957 137.819 370.349C138.239 370.732 138.864 370.923 139.695 370.923C140.255 370.923 140.735 370.844 141.137 370.685C141.538 370.526 141.874 370.354 142.145 370.167V371.273ZM139.261 365.575C138.729 365.575 138.271 365.738 137.889 366.065C137.506 366.392 137.263 366.886 137.161 367.549H141.067C141.104 366.877 140.95 366.382 140.605 366.065C140.259 365.738 139.811 365.575 139.261 365.575ZM148.042 370.503C147.958 370.671 147.851 370.848 147.72 371.035C147.59 371.212 147.426 371.376 147.23 371.525C147.034 371.674 146.801 371.796 146.53 371.889C146.269 371.982 145.961 372.029 145.606 372.029C144.953 372.029 144.426 371.847 144.024 371.483C143.623 371.11 143.422 370.578 143.422 369.887C143.422 369.094 143.698 368.51 144.248 368.137C144.808 367.764 145.602 367.577 146.628 367.577H147.986V366.975C147.986 366.471 147.856 366.112 147.594 365.897C147.333 365.682 146.885 365.575 146.25 365.575C145.802 365.575 145.378 365.65 144.976 365.799C144.575 365.939 144.216 366.102 143.898 366.289V365.183C144.16 365.024 144.51 364.87 144.948 364.721C145.396 364.562 145.886 364.483 146.418 364.483C147.333 364.483 148.028 364.674 148.504 365.057C148.98 365.43 149.218 366.014 149.218 366.807V370.713C149.218 370.797 149.218 370.895 149.218 371.007C149.228 371.11 149.232 371.217 149.232 371.329C149.242 371.441 149.251 371.548 149.26 371.651C149.27 371.744 149.279 371.824 149.288 371.889H148.168C148.14 371.758 148.112 371.576 148.084 371.343C148.066 371.1 148.056 370.89 148.056 370.713L148.042 370.503ZM145.872 370.923C146.255 370.923 146.582 370.844 146.852 370.685C147.123 370.526 147.342 370.344 147.51 370.139C147.678 369.924 147.8 369.719 147.874 369.523C147.949 369.318 147.986 369.173 147.986 369.089V368.557H146.754C146.017 368.557 145.48 368.664 145.144 368.879C144.818 369.084 144.654 369.397 144.654 369.817C144.654 370.144 144.752 370.41 144.948 370.615C145.144 370.82 145.452 370.923 145.872 370.923ZM154.291 372.029C153.731 372.029 153.223 371.945 152.765 371.777C152.317 371.6 151.935 371.352 151.617 371.035C151.3 370.708 151.057 370.312 150.889 369.845C150.721 369.378 150.637 368.846 150.637 368.249C150.637 367.661 150.721 367.134 150.889 366.667C151.067 366.2 151.314 365.808 151.631 365.491C151.949 365.164 152.336 364.917 152.793 364.749C153.251 364.572 153.769 364.483 154.347 364.483C154.795 364.483 155.206 364.534 155.579 364.637C155.953 364.73 156.261 364.87 156.503 365.057V366.163C156.205 365.967 155.869 365.822 155.495 365.729C155.131 365.626 154.753 365.575 154.361 365.575C153.512 365.575 152.887 365.794 152.485 366.233C152.093 366.672 151.897 367.344 151.897 368.249C151.897 369.154 152.089 369.826 152.471 370.265C152.854 370.704 153.461 370.923 154.291 370.923C154.73 370.923 155.131 370.872 155.495 370.769C155.869 370.657 156.205 370.517 156.503 370.349V371.455C156.242 371.614 155.925 371.749 155.551 371.861C155.187 371.973 154.767 372.029 154.291 372.029ZM161.629 371.735C161.48 371.819 161.289 371.889 161.055 371.945C160.822 372.001 160.575 372.029 160.313 372.029C159.959 372.029 159.655 371.978 159.403 371.875C159.161 371.772 158.96 371.637 158.801 371.469C158.643 371.292 158.526 371.096 158.451 370.881C158.386 370.657 158.353 370.428 158.353 370.195V365.673H157.485V364.623H158.353V363.097H159.585V364.623H161.699V365.673H159.585V370.041C159.585 370.349 159.66 370.573 159.809 370.713C159.968 370.853 160.243 370.923 160.635 370.923C160.999 370.923 161.331 370.82 161.629 370.615V371.735ZM163.899 363.559C163.647 363.559 163.446 363.484 163.297 363.335C163.147 363.176 163.073 362.985 163.073 362.761C163.073 362.537 163.147 362.346 163.297 362.187C163.446 362.028 163.647 361.949 163.899 361.949C164.141 361.949 164.333 362.028 164.473 362.187C164.613 362.346 164.683 362.537 164.683 362.761C164.683 362.985 164.613 363.176 164.473 363.335C164.333 363.484 164.141 363.559 163.899 363.559ZM164.501 364.623V371.889H163.269V364.623H164.501ZM170.121 371.889H168.133L165.641 364.623H166.971L169.183 371.231L171.381 364.623H172.613L170.121 371.889ZM177.943 370.503C177.859 370.671 177.751 370.848 177.621 371.035C177.49 371.212 177.327 371.376 177.131 371.525C176.935 371.674 176.701 371.796 176.431 371.889C176.169 371.982 175.861 372.029 175.507 372.029C174.853 372.029 174.326 371.847 173.925 371.483C173.523 371.11 173.323 370.578 173.323 369.887C173.323 369.094 173.598 368.51 174.149 368.137C174.709 367.764 175.502 367.577 176.529 367.577H177.887V366.975C177.887 366.471 177.756 366.112 177.495 365.897C177.233 365.682 176.785 365.575 176.151 365.575C175.703 365.575 175.278 365.65 174.877 365.799C174.475 365.939 174.116 366.102 173.799 366.289V365.183C174.06 365.024 174.41 364.87 174.849 364.721C175.297 364.562 175.787 364.483 176.319 364.483C177.233 364.483 177.929 364.674 178.405 365.057C178.881 365.43 179.119 366.014 179.119 366.807V370.713C179.119 370.797 179.119 370.895 179.119 371.007C179.128 371.11 179.133 371.217 179.133 371.329C179.142 371.441 179.151 371.548 179.161 371.651C179.17 371.744 179.179 371.824 179.189 371.889H178.069C178.041 371.758 178.013 371.576 177.985 371.343C177.966 371.1 177.957 370.89 177.957 370.713L177.943 370.503ZM175.773 370.923C176.155 370.923 176.482 370.844 176.753 370.685C177.023 370.526 177.243 370.344 177.411 370.139C177.579 369.924 177.7 369.719 177.775 369.523C177.849 369.318 177.887 369.173 177.887 369.089V368.557H176.655C175.917 368.557 175.381 368.664 175.045 368.879C174.718 369.084 174.555 369.397 174.555 369.817C174.555 370.144 174.653 370.41 174.849 370.615C175.045 370.82 175.353 370.923 175.773 370.923ZM184.612 371.735C184.463 371.819 184.271 371.889 184.038 371.945C183.805 372.001 183.557 372.029 183.296 372.029C182.941 372.029 182.638 371.978 182.386 371.875C182.143 371.772 181.943 371.637 181.784 371.469C181.625 371.292 181.509 371.096 181.434 370.881C181.369 370.657 181.336 370.428 181.336 370.195V365.673H180.468V364.623H181.336V363.097H182.568V364.623H184.682V365.673H182.568V370.041C182.568 370.349 182.643 370.573 182.792 370.713C182.951 370.853 183.226 370.923 183.618 370.923C183.982 370.923 184.313 370.82 184.612 370.615V371.735ZM191.965 371.273C191.862 371.348 191.736 371.427 191.587 371.511C191.437 371.595 191.255 371.679 191.041 371.763C190.826 371.838 190.583 371.898 190.313 371.945C190.042 372.001 189.739 372.029 189.403 372.029C188.18 372.029 187.251 371.698 186.617 371.035C185.982 370.372 185.665 369.444 185.665 368.249C185.665 367.661 185.749 367.134 185.917 366.667C186.094 366.2 186.337 365.808 186.645 365.491C186.953 365.164 187.317 364.917 187.737 364.749C188.157 364.572 188.614 364.483 189.109 364.483C189.631 364.483 190.098 364.572 190.509 364.749C190.919 364.926 191.255 365.188 191.517 365.533C191.787 365.878 191.969 366.308 192.063 366.821C192.165 367.325 192.165 367.913 192.063 368.585H186.939C186.985 369.369 187.219 369.957 187.639 370.349C188.059 370.732 188.684 370.923 189.515 370.923C190.075 370.923 190.555 370.844 190.957 370.685C191.358 370.526 191.694 370.354 191.965 370.167V371.273ZM189.081 365.575C188.549 365.575 188.091 365.738 187.709 366.065C187.326 366.392 187.083 366.886 186.981 367.549H190.887C190.924 366.877 190.77 366.382 190.425 366.065C190.079 365.738 189.631 365.575 189.081 365.575Z" fill="#18123D"/>
<rect x="266" y="261" width="150" height="44" rx="5" fill="#FFDADA"/>
<path d="M326.44 277.851H332.656V279.055H327.756V282.093H331.914V283.283H327.756V286.699H332.726V287.889H326.44V277.851ZM338.237 281.855C337.714 281.902 337.238 282.037 336.809 282.261C336.389 282.476 336.076 282.812 335.871 283.269V287.889H334.639V280.623H335.717L335.843 282.205H335.871C336.076 281.776 336.37 281.402 336.753 281.085C337.145 280.758 337.64 280.558 338.237 280.483V281.855ZM343.336 281.855C342.814 281.902 342.338 282.037 341.908 282.261C341.488 282.476 341.176 282.812 340.97 283.269V287.889H339.738V280.623H340.816L340.942 282.205H340.97C341.176 281.776 341.47 281.402 341.852 281.085C342.244 280.758 342.739 280.558 343.336 280.483V281.855ZM347.615 288.029C347.12 288.029 346.658 287.945 346.229 287.777C345.8 287.609 345.426 287.366 345.109 287.049C344.801 286.722 344.558 286.326 344.381 285.859C344.204 285.392 344.115 284.856 344.115 284.249C344.115 283.652 344.204 283.12 344.381 282.653C344.558 282.177 344.801 281.78 345.109 281.463C345.426 281.146 345.8 280.903 346.229 280.735C346.658 280.567 347.12 280.483 347.615 280.483C348.119 280.483 348.586 280.567 349.015 280.735C349.444 280.903 349.813 281.146 350.121 281.463C350.438 281.78 350.686 282.177 350.863 282.653C351.05 283.12 351.143 283.652 351.143 284.249C351.143 284.856 351.05 285.392 350.863 285.859C350.686 286.326 350.438 286.722 350.121 287.049C349.813 287.366 349.444 287.609 349.015 287.777C348.586 287.945 348.119 288.029 347.615 288.029ZM347.615 286.923C347.942 286.923 348.24 286.872 348.511 286.769C348.791 286.657 349.034 286.494 349.239 286.279C349.444 286.055 349.603 285.775 349.715 285.439C349.827 285.103 349.883 284.706 349.883 284.249C349.883 283.792 349.827 283.395 349.715 283.059C349.603 282.723 349.444 282.448 349.239 282.233C349.034 282.009 348.791 281.846 348.511 281.743C348.24 281.631 347.942 281.575 347.615 281.575C347.288 281.575 346.99 281.631 346.719 281.743C346.448 281.846 346.21 282.009 346.005 282.233C345.809 282.448 345.655 282.723 345.543 283.059C345.431 283.395 345.375 283.792 345.375 284.249C345.375 284.706 345.431 285.103 345.543 285.439C345.655 285.775 345.809 286.055 346.005 286.279C346.21 286.494 346.448 286.657 346.719 286.769C346.99 286.872 347.288 286.923 347.615 286.923ZM356.243 281.855C355.72 281.902 355.244 282.037 354.815 282.261C354.395 282.476 354.082 282.812 353.877 283.269V287.889H352.645V280.623H353.723L353.849 282.205H353.877C354.082 281.776 354.376 281.402 354.759 281.085C355.151 280.758 355.645 280.558 356.243 280.483V281.855Z" fill="#18123D"/>
<rect x="84" y="177" width="150" height="44" rx="5" fill="#D3E3FC"/>
<path d="M137.624 204.029C136.877 204.029 136.2 203.912 135.594 203.679C134.987 203.446 134.464 203.11 134.026 202.671C133.596 202.223 133.265 201.682 133.032 201.047C132.798 200.403 132.682 199.68 132.682 198.877C132.682 198.065 132.789 197.342 133.004 196.707C133.218 196.072 133.536 195.536 133.956 195.097C134.376 194.649 134.889 194.308 135.496 194.075C136.112 193.842 136.812 193.725 137.596 193.725C138.277 193.725 138.874 193.8 139.388 193.949C139.901 194.089 140.321 194.257 140.648 194.453V195.713C140.228 195.442 139.742 195.242 139.192 195.111C138.65 194.98 138.114 194.915 137.582 194.915C136.396 194.915 135.519 195.246 134.95 195.909C134.39 196.562 134.11 197.552 134.11 198.877C134.11 200.212 134.413 201.206 135.02 201.859C135.636 202.512 136.541 202.839 137.736 202.839C138.249 202.839 138.748 202.769 139.234 202.629C139.728 202.489 140.2 202.251 140.648 201.915V203.175C140.377 203.39 139.98 203.586 139.458 203.763C138.944 203.94 138.333 204.029 137.624 204.029ZM146.092 197.855C145.57 197.902 145.094 198.037 144.664 198.261C144.244 198.476 143.932 198.812 143.726 199.269V203.889H142.494V196.623H143.572L143.698 198.205H143.726C143.932 197.776 144.226 197.402 144.608 197.085C145 196.758 145.495 196.558 146.092 196.483V197.855ZM153.171 203.273C153.068 203.348 152.942 203.427 152.793 203.511C152.644 203.595 152.462 203.679 152.247 203.763C152.032 203.838 151.79 203.898 151.519 203.945C151.248 204.001 150.945 204.029 150.609 204.029C149.386 204.029 148.458 203.698 147.823 203.035C147.188 202.372 146.871 201.444 146.871 200.249C146.871 199.661 146.955 199.134 147.123 198.667C147.3 198.2 147.543 197.808 147.851 197.491C148.159 197.164 148.523 196.917 148.943 196.749C149.363 196.572 149.82 196.483 150.315 196.483C150.838 196.483 151.304 196.572 151.715 196.749C152.126 196.926 152.462 197.188 152.723 197.533C152.994 197.878 153.176 198.308 153.269 198.821C153.372 199.325 153.372 199.913 153.269 200.585H148.145C148.192 201.369 148.425 201.957 148.845 202.349C149.265 202.732 149.89 202.923 150.721 202.923C151.281 202.923 151.762 202.844 152.163 202.685C152.564 202.526 152.9 202.354 153.171 202.167V203.273ZM150.287 197.575C149.755 197.575 149.298 197.738 148.915 198.065C148.532 198.392 148.29 198.886 148.187 199.549H152.093C152.13 198.877 151.976 198.382 151.631 198.065C151.286 197.738 150.838 197.575 150.287 197.575ZM159.069 202.503C158.985 202.671 158.877 202.848 158.747 203.035C158.616 203.212 158.453 203.376 158.257 203.525C158.061 203.674 157.827 203.796 157.557 203.889C157.295 203.982 156.987 204.029 156.633 204.029C155.979 204.029 155.452 203.847 155.051 203.483C154.649 203.11 154.449 202.578 154.449 201.887C154.449 201.094 154.724 200.51 155.275 200.137C155.835 199.764 156.628 199.577 157.655 199.577H159.013V198.975C159.013 198.471 158.882 198.112 158.621 197.897C158.359 197.682 157.911 197.575 157.277 197.575C156.829 197.575 156.404 197.65 156.003 197.799C155.601 197.939 155.242 198.102 154.925 198.289V197.183C155.186 197.024 155.536 196.87 155.975 196.721C156.423 196.562 156.913 196.483 157.445 196.483C158.359 196.483 159.055 196.674 159.531 197.057C160.007 197.43 160.245 198.014 160.245 198.807V202.713C160.245 202.797 160.245 202.895 160.245 203.007C160.254 203.11 160.259 203.217 160.259 203.329C160.268 203.441 160.277 203.548 160.287 203.651C160.296 203.744 160.305 203.824 160.315 203.889H159.195C159.167 203.758 159.139 203.576 159.111 203.343C159.092 203.1 159.083 202.89 159.083 202.713L159.069 202.503ZM156.899 202.923C157.281 202.923 157.608 202.844 157.879 202.685C158.149 202.526 158.369 202.344 158.537 202.139C158.705 201.924 158.826 201.719 158.901 201.523C158.975 201.318 159.013 201.173 159.013 201.089V200.557H157.781C157.043 200.557 156.507 200.664 156.171 200.879C155.844 201.084 155.681 201.397 155.681 201.817C155.681 202.144 155.779 202.41 155.975 202.615C156.171 202.82 156.479 202.923 156.899 202.923ZM165.738 203.735C165.589 203.819 165.397 203.889 165.164 203.945C164.931 204.001 164.683 204.029 164.422 204.029C164.067 204.029 163.764 203.978 163.512 203.875C163.269 203.772 163.069 203.637 162.91 203.469C162.751 203.292 162.635 203.096 162.56 202.881C162.495 202.657 162.462 202.428 162.462 202.195V197.673H161.594V196.623H162.462V195.097H163.694V196.623H165.808V197.673H163.694V202.041C163.694 202.349 163.769 202.573 163.918 202.713C164.077 202.853 164.352 202.923 164.744 202.923C165.108 202.923 165.439 202.82 165.738 202.615V203.735ZM168.007 195.559C167.755 195.559 167.554 195.484 167.405 195.335C167.256 195.176 167.181 194.985 167.181 194.761C167.181 194.537 167.256 194.346 167.405 194.187C167.554 194.028 167.755 193.949 168.007 193.949C168.25 193.949 168.441 194.028 168.581 194.187C168.721 194.346 168.791 194.537 168.791 194.761C168.791 194.985 168.721 195.176 168.581 195.335C168.441 195.484 168.25 195.559 168.007 195.559ZM168.609 196.623V203.889H167.377V196.623H168.609ZM174.061 197.575C173.501 197.575 173.044 197.706 172.689 197.967C172.344 198.219 172.064 198.546 171.849 198.947V203.889H170.617V196.623H171.779L171.821 197.925H171.849C172.045 197.505 172.353 197.16 172.773 196.889C173.193 196.618 173.725 196.483 174.369 196.483C175.088 196.483 175.657 196.674 176.077 197.057C176.507 197.43 176.721 198.009 176.721 198.793V203.889H175.489V198.919C175.489 198.415 175.363 198.065 175.111 197.869C174.859 197.673 174.509 197.575 174.061 197.575ZM184.914 203.273C184.914 203.74 184.844 204.164 184.704 204.547C184.573 204.939 184.359 205.27 184.06 205.541C183.771 205.812 183.393 206.022 182.926 206.171C182.469 206.32 181.913 206.395 181.26 206.395C180.905 206.395 180.593 206.376 180.322 206.339C180.051 206.302 179.813 206.25 179.608 206.185C179.412 206.129 179.244 206.064 179.104 205.989C178.964 205.924 178.847 205.858 178.754 205.793V204.687C178.903 204.771 179.057 204.846 179.216 204.911C179.384 204.986 179.566 205.051 179.762 205.107C179.958 205.163 180.177 205.205 180.42 205.233C180.672 205.27 180.957 205.289 181.274 205.289C182.17 205.289 182.795 205.121 183.15 204.785C183.505 204.449 183.682 203.95 183.682 203.287V202.167C183.467 202.596 183.164 202.942 182.772 203.203C182.389 203.464 181.913 203.595 181.344 203.595C180.915 203.595 180.504 203.52 180.112 203.371C179.729 203.222 179.389 203.002 179.09 202.713C178.801 202.414 178.567 202.046 178.39 201.607C178.222 201.159 178.138 200.641 178.138 200.053C178.138 199.456 178.222 198.938 178.39 198.499C178.567 198.051 178.801 197.678 179.09 197.379C179.389 197.08 179.734 196.856 180.126 196.707C180.518 196.558 180.933 196.483 181.372 196.483C181.951 196.483 182.436 196.614 182.828 196.875C183.229 197.136 183.542 197.491 183.766 197.939L183.78 197.785C183.78 197.617 183.789 197.416 183.808 197.183C183.827 196.94 183.845 196.754 183.864 196.623H184.984C184.965 196.754 184.947 196.94 184.928 197.183C184.919 197.426 184.914 197.626 184.914 197.785V203.273ZM181.568 202.489C181.876 202.489 182.156 202.442 182.408 202.349C182.669 202.246 182.893 202.092 183.08 201.887C183.276 201.682 183.425 201.43 183.528 201.131C183.64 200.823 183.696 200.464 183.696 200.053C183.696 199.222 183.491 198.602 183.08 198.191C182.679 197.78 182.17 197.575 181.554 197.575C181.246 197.575 180.957 197.626 180.686 197.729C180.425 197.832 180.196 197.986 180 198.191C179.813 198.396 179.664 198.658 179.552 198.975C179.44 199.283 179.384 199.642 179.384 200.053C179.384 200.464 179.44 200.823 179.552 201.131C179.664 201.43 179.818 201.682 180.014 201.887C180.21 202.083 180.439 202.232 180.7 202.335C180.971 202.438 181.26 202.489 181.568 202.489Z" fill="#18123D"/>
<rect x="85" y="94" width="148" height="42" rx="4" fill="white" stroke="#67B0F8" stroke-width="2"/>
<path d="M136.846 109.851H138.806L142.404 119.889H141.004L139.968 117.019H135.53L134.508 119.889H133.276L136.846 109.851ZM139.548 115.829L137.756 110.831L135.964 115.829H139.548ZM146.697 120.029C146.137 120.029 145.628 119.945 145.171 119.777C144.723 119.6 144.34 119.352 144.023 119.035C143.705 118.708 143.463 118.312 143.295 117.845C143.127 117.378 143.043 116.846 143.043 116.249C143.043 115.661 143.127 115.134 143.295 114.667C143.472 114.2 143.719 113.808 144.037 113.491C144.354 113.164 144.741 112.917 145.199 112.749C145.656 112.572 146.174 112.483 146.753 112.483C147.201 112.483 147.611 112.534 147.985 112.637C148.358 112.73 148.666 112.87 148.909 113.057V114.163C148.61 113.967 148.274 113.822 147.901 113.729C147.537 113.626 147.159 113.575 146.767 113.575C145.917 113.575 145.292 113.794 144.891 114.233C144.499 114.672 144.303 115.344 144.303 116.249C144.303 117.154 144.494 117.826 144.877 118.265C145.259 118.704 145.866 118.923 146.697 118.923C147.135 118.923 147.537 118.872 147.901 118.769C148.274 118.657 148.61 118.517 148.909 118.349V119.455C148.647 119.614 148.33 119.749 147.957 119.861C147.593 119.973 147.173 120.029 146.697 120.029ZM154.035 119.735C153.885 119.819 153.694 119.889 153.461 119.945C153.227 120.001 152.98 120.029 152.719 120.029C152.364 120.029 152.061 119.978 151.809 119.875C151.566 119.772 151.365 119.637 151.207 119.469C151.048 119.292 150.931 119.096 150.857 118.881C150.791 118.657 150.759 118.428 150.759 118.195V113.673H149.891V112.623H150.759V111.097H151.991V112.623H154.105V113.673H151.991V118.041C151.991 118.349 152.065 118.573 152.215 118.713C152.373 118.853 152.649 118.923 153.041 118.923C153.405 118.923 153.736 118.82 154.035 118.615V119.735ZM156.304 111.559C156.052 111.559 155.851 111.484 155.702 111.335C155.553 111.176 155.478 110.985 155.478 110.761C155.478 110.537 155.553 110.346 155.702 110.187C155.851 110.028 156.052 109.949 156.304 109.949C156.547 109.949 156.738 110.028 156.878 110.187C157.018 110.346 157.088 110.537 157.088 110.761C157.088 110.985 157.018 111.176 156.878 111.335C156.738 111.484 156.547 111.559 156.304 111.559ZM156.906 112.623V119.889H155.674V112.623H156.906ZM162.526 119.889H160.538L158.046 112.623H159.376L161.588 119.231L163.786 112.623H165.018L162.526 119.889ZM170.348 118.503C170.264 118.671 170.157 118.848 170.026 119.035C169.895 119.212 169.732 119.376 169.536 119.525C169.34 119.674 169.107 119.796 168.836 119.889C168.575 119.982 168.267 120.029 167.912 120.029C167.259 120.029 166.731 119.847 166.33 119.483C165.929 119.11 165.728 118.578 165.728 117.887C165.728 117.094 166.003 116.51 166.554 116.137C167.114 115.764 167.907 115.577 168.934 115.577H170.292V114.975C170.292 114.471 170.161 114.112 169.9 113.897C169.639 113.682 169.191 113.575 168.556 113.575C168.108 113.575 167.683 113.65 167.282 113.799C166.881 113.939 166.521 114.102 166.204 114.289V113.183C166.465 113.024 166.815 112.87 167.254 112.721C167.702 112.562 168.192 112.483 168.724 112.483C169.639 112.483 170.334 112.674 170.81 113.057C171.286 113.43 171.524 114.014 171.524 114.807V118.713C171.524 118.797 171.524 118.895 171.524 119.007C171.533 119.11 171.538 119.217 171.538 119.329C171.547 119.441 171.557 119.548 171.566 119.651C171.575 119.744 171.585 119.824 171.594 119.889H170.474C170.446 119.758 170.418 119.576 170.39 119.343C170.371 119.1 170.362 118.89 170.362 118.713L170.348 118.503ZM168.178 118.923C168.561 118.923 168.887 118.844 169.158 118.685C169.429 118.526 169.648 118.344 169.816 118.139C169.984 117.924 170.105 117.719 170.18 117.523C170.255 117.318 170.292 117.173 170.292 117.089V116.557H169.06C168.323 116.557 167.786 116.664 167.45 116.879C167.123 117.084 166.96 117.397 166.96 117.817C166.96 118.144 167.058 118.41 167.254 118.615C167.45 118.82 167.758 118.923 168.178 118.923ZM177.017 119.735C176.868 119.819 176.676 119.889 176.443 119.945C176.21 120.001 175.962 120.029 175.701 120.029C175.346 120.029 175.043 119.978 174.791 119.875C174.548 119.772 174.348 119.637 174.189 119.469C174.03 119.292 173.914 119.096 173.839 118.881C173.774 118.657 173.741 118.428 173.741 118.195V113.673H172.873V112.623H173.741V111.097H174.973V112.623H177.087V113.673H174.973V118.041C174.973 118.349 175.048 118.573 175.197 118.713C175.356 118.853 175.631 118.923 176.023 118.923C176.387 118.923 176.718 118.82 177.017 118.615V119.735ZM184.37 119.273C184.267 119.348 184.141 119.427 183.992 119.511C183.843 119.595 183.661 119.679 183.446 119.763C183.231 119.838 182.989 119.898 182.718 119.945C182.447 120.001 182.144 120.029 181.808 120.029C180.585 120.029 179.657 119.698 179.022 119.035C178.387 118.372 178.07 117.444 178.07 116.249C178.07 115.661 178.154 115.134 178.322 114.667C178.499 114.2 178.742 113.808 179.05 113.491C179.358 113.164 179.722 112.917 180.142 112.749C180.562 112.572 181.019 112.483 181.514 112.483C182.037 112.483 182.503 112.572 182.914 112.749C183.325 112.926 183.661 113.188 183.922 113.533C184.193 113.878 184.375 114.308 184.468 114.821C184.571 115.325 184.571 115.913 184.468 116.585H179.344C179.391 117.369 179.624 117.957 180.044 118.349C180.464 118.732 181.089 118.923 181.92 118.923C182.48 118.923 182.961 118.844 183.362 118.685C183.763 118.526 184.099 118.354 184.37 118.167V119.273ZM181.486 113.575C180.954 113.575 180.497 113.738 180.114 114.065C179.731 114.392 179.489 114.886 179.386 115.549H183.292C183.329 114.877 183.175 114.382 182.83 114.065C182.485 113.738 182.037 113.575 181.486 113.575Z" fill="#18123D"/>
<rect x="84" y="9" width="150" height="44" rx="5" fill="#D3E3FC"/>
<path d="M139.517 36.0289C138.771 36.0289 138.094 35.9122 137.487 35.6789C136.881 35.4456 136.358 35.1096 135.919 34.6709C135.49 34.2229 135.159 33.6816 134.925 33.0469C134.692 32.4029 134.575 31.6796 134.575 30.8769C134.575 30.0649 134.683 29.3416 134.897 28.7069C135.112 28.0722 135.429 27.5356 135.849 27.0969C136.269 26.6489 136.783 26.3082 137.389 26.0749C138.005 25.8416 138.705 25.7249 139.489 25.7249C140.171 25.7249 140.768 25.7996 141.281 25.9489C141.795 26.0889 142.215 26.2569 142.541 26.4529V27.7129C142.121 27.4422 141.636 27.2416 141.085 27.1109C140.544 26.9802 140.007 26.9149 139.475 26.9149C138.29 26.9149 137.413 27.2462 136.843 27.9089C136.283 28.5622 136.003 29.5516 136.003 30.8769C136.003 32.2116 136.307 33.2056 136.913 33.8589C137.529 34.5122 138.435 34.8389 139.629 34.8389C140.143 34.8389 140.642 34.7689 141.127 34.6289C141.622 34.4889 142.093 34.2509 142.541 33.9149V35.1749C142.271 35.3896 141.874 35.5856 141.351 35.7629C140.838 35.9402 140.227 36.0289 139.517 36.0289ZM147.986 29.8549C147.463 29.9016 146.987 30.0369 146.558 30.2609C146.138 30.4756 145.825 30.8116 145.62 31.2689V35.8889H144.388V28.6229H145.466L145.592 30.2049H145.62C145.825 29.7756 146.119 29.4022 146.502 29.0849C146.894 28.7582 147.389 28.5576 147.986 28.4829V29.8549ZM155.064 35.2729C154.962 35.3476 154.836 35.4269 154.686 35.5109C154.537 35.5949 154.355 35.6789 154.14 35.7629C153.926 35.8376 153.683 35.8982 153.412 35.9449C153.142 36.0009 152.838 36.0289 152.502 36.0289C151.28 36.0289 150.351 35.6976 149.716 35.0349C149.082 34.3722 148.764 33.4436 148.764 32.2489C148.764 31.6609 148.848 31.1336 149.016 30.6669C149.194 30.2002 149.436 29.8082 149.744 29.4909C150.052 29.1642 150.416 28.9169 150.836 28.7489C151.256 28.5716 151.714 28.4829 152.208 28.4829C152.731 28.4829 153.198 28.5716 153.608 28.7489C154.019 28.9262 154.355 29.1876 154.616 29.5329C154.887 29.8782 155.069 30.3076 155.162 30.8209C155.265 31.3249 155.265 31.9129 155.162 32.5849H150.038C150.085 33.3689 150.318 33.9569 150.738 34.3489C151.158 34.7316 151.784 34.9229 152.614 34.9229C153.174 34.9229 153.655 34.8436 154.056 34.6849C154.458 34.5262 154.794 34.3536 155.064 34.1669V35.2729ZM152.18 29.5749C151.648 29.5749 151.191 29.7382 150.808 30.0649C150.426 30.3916 150.183 30.8862 150.08 31.5489H153.986C154.024 30.8769 153.87 30.3822 153.524 30.0649C153.179 29.7382 152.731 29.5749 152.18 29.5749ZM160.962 34.5029C160.878 34.6709 160.771 34.8482 160.64 35.0349C160.51 35.2122 160.346 35.3756 160.15 35.5249C159.954 35.6742 159.721 35.7956 159.45 35.8889C159.189 35.9822 158.881 36.0289 158.526 36.0289C157.873 36.0289 157.346 35.8469 156.944 35.4829C156.543 35.1096 156.342 34.5776 156.342 33.8869C156.342 33.0936 156.618 32.5102 157.168 32.1369C157.728 31.7636 158.522 31.5769 159.548 31.5769H160.906V30.9749C160.906 30.4709 160.776 30.1116 160.514 29.8969C160.253 29.6822 159.805 29.5749 159.17 29.5749C158.722 29.5749 158.298 29.6496 157.896 29.7989C157.495 29.9389 157.136 30.1022 156.818 30.2889V29.1829C157.08 29.0242 157.43 28.8702 157.868 28.7209C158.316 28.5622 158.806 28.4829 159.338 28.4829C160.253 28.4829 160.948 28.6742 161.424 29.0569C161.9 29.4302 162.138 30.0136 162.138 30.8069V34.7129C162.138 34.7969 162.138 34.8949 162.138 35.0069C162.148 35.1096 162.152 35.2169 162.152 35.3289C162.162 35.4409 162.171 35.5482 162.18 35.6509C162.19 35.7442 162.199 35.8236 162.208 35.8889H161.088C161.06 35.7582 161.032 35.5762 161.004 35.3429C160.986 35.1002 160.976 34.8902 160.976 34.7129L160.962 34.5029ZM158.792 34.9229C159.175 34.9229 159.502 34.8436 159.772 34.6849C160.043 34.5262 160.262 34.3442 160.43 34.1389C160.598 33.9242 160.72 33.7189 160.794 33.5229C160.869 33.3176 160.906 33.1729 160.906 33.0889V32.5569H159.674C158.937 32.5569 158.4 32.6642 158.064 32.8789C157.738 33.0842 157.574 33.3969 157.574 33.8169C157.574 34.1436 157.672 34.4096 157.868 34.6149C158.064 34.8202 158.372 34.9229 158.792 34.9229ZM167.631 35.7349C167.482 35.8189 167.291 35.8889 167.057 35.9449C166.824 36.0009 166.577 36.0289 166.315 36.0289C165.961 36.0289 165.657 35.9776 165.405 35.8749C165.163 35.7722 164.962 35.6369 164.803 35.4689C164.645 35.2916 164.528 35.0956 164.453 34.8809C164.388 34.6569 164.355 34.4282 164.355 34.1949V29.6729H163.487V28.6229H164.355V27.0969H165.587V28.6229H167.701V29.6729H165.587V34.0409C165.587 34.3489 165.662 34.5729 165.811 34.7129C165.97 34.8529 166.245 34.9229 166.637 34.9229C167.001 34.9229 167.333 34.8202 167.631 34.6149V35.7349ZM174.984 35.2729C174.882 35.3476 174.756 35.4269 174.606 35.5109C174.457 35.5949 174.275 35.6789 174.06 35.7629C173.846 35.8376 173.603 35.8982 173.332 35.9449C173.062 36.0009 172.758 36.0289 172.422 36.0289C171.2 36.0289 170.271 35.6976 169.636 35.0349C169.002 34.3722 168.684 33.4436 168.684 32.2489C168.684 31.6609 168.768 31.1336 168.936 30.6669C169.114 30.2002 169.356 29.8082 169.664 29.4909C169.972 29.1642 170.336 28.9169 170.756 28.7489C171.176 28.5716 171.634 28.4829 172.128 28.4829C172.651 28.4829 173.118 28.5716 173.528 28.7489C173.939 28.9262 174.275 29.1876 174.536 29.5329C174.807 29.8782 174.989 30.3076 175.082 30.8209C175.185 31.3249 175.185 31.9129 175.082 32.5849H169.958C170.005 33.3689 170.238 33.9569 170.658 34.3489C171.078 34.7316 171.704 34.9229 172.534 34.9229C173.094 34.9229 173.575 34.8436 173.976 34.6849C174.378 34.5262 174.714 34.3536 174.984 34.1669V35.2729ZM172.1 29.5749C171.568 29.5749 171.111 29.7382 170.728 30.0649C170.346 30.3916 170.103 30.8862 170 31.5489H173.906C173.944 30.8769 173.79 30.3822 173.444 30.0649C173.099 29.7382 172.651 29.5749 172.1 29.5749ZM181.834 34.4609C181.61 34.9369 181.298 35.3196 180.896 35.6089C180.495 35.8889 179.986 36.0289 179.37 36.0289C178.932 36.0289 178.516 35.9542 178.124 35.8049C177.732 35.6462 177.387 35.4129 177.088 35.1049C176.79 34.7876 176.552 34.3956 176.374 33.9289C176.197 33.4529 176.108 32.8929 176.108 32.2489C176.108 31.6142 176.197 31.0636 176.374 30.5969C176.552 30.1209 176.79 29.7289 177.088 29.4209C177.387 29.1036 177.732 28.8702 178.124 28.7209C178.526 28.5622 178.946 28.4829 179.384 28.4829C179.935 28.4829 180.411 28.5996 180.812 28.8329C181.214 29.0569 181.536 29.3789 181.778 29.7989V25.8509H183.01V35.8889H181.932L181.834 34.4609ZM179.552 34.9229C179.87 34.9229 180.164 34.8716 180.434 34.7689C180.705 34.6569 180.938 34.4889 181.134 34.2649C181.34 34.0409 181.498 33.7609 181.61 33.4249C181.732 33.0889 181.792 32.6969 181.792 32.2489C181.792 31.8009 181.732 31.4089 181.61 31.0729C181.498 30.7369 181.34 30.4569 181.134 30.2329C180.938 30.0089 180.705 29.8456 180.434 29.7429C180.164 29.6309 179.87 29.5749 179.552 29.5749C178.908 29.5749 178.381 29.8036 177.97 30.2609C177.569 30.7089 177.368 31.3716 177.368 32.2489C177.368 33.1356 177.574 33.8029 177.984 34.2509C178.395 34.6989 178.918 34.9229 179.552 34.9229Z" fill="#18123D"/>
<path d="M159 261L153.226 251L164.774 251L159 261ZM159 252L158 252L158 221L159 221L160 221L160 252L159 252Z" fill="#4E496B"/>
<path d="M159 345L153.226 335L164.774 335L159 345ZM159 336L158 336L158 305L159 305L160 305L160 336L159 336Z" fill="#4E496B"/>
<path d="M159 429L153.226 419L164.774 419L159 429ZM159 420L158 420L158 389L159 389L160 389L160 420L159 420Z" fill="#4E496B"/>
<path d="M159 513L153.226 503L164.774 503L159 513ZM159 504L158 504L158 473L159 473L160 473L160 504L159 504Z" fill="#4E496B"/>
<path d="M159 597L153.226 587L164.774 587L159 597ZM159 588L158 588L158 557L159 557L160 557L160 588L159 588Z" fill="#4E496B"/>
<rect x="84" y="261" width="150" height="44" rx="5" fill="#D3E3FC"/>
<path d="M125.094 277.851H128.454C129.639 277.851 130.54 278.084 131.156 278.551C131.781 279.008 132.094 279.732 132.094 280.721C132.094 281.598 131.879 282.27 131.45 282.737C131.03 283.204 130.475 283.512 129.784 283.661L132.514 287.889H131.03L128.412 283.815H126.41V287.889H125.094V277.851ZM126.41 279.055V282.625H128.328C128.683 282.625 129.005 282.592 129.294 282.527C129.593 282.462 129.845 282.354 130.05 282.205C130.265 282.056 130.428 281.86 130.54 281.617C130.661 281.365 130.722 281.057 130.722 280.693C130.722 280.096 130.526 279.676 130.134 279.433C129.742 279.181 129.182 279.055 128.454 279.055H126.41ZM139.622 287.273C139.519 287.348 139.393 287.427 139.244 287.511C139.095 287.595 138.913 287.679 138.698 287.763C138.483 287.838 138.241 287.898 137.97 287.945C137.699 288.001 137.396 288.029 137.06 288.029C135.837 288.029 134.909 287.698 134.274 287.035C133.639 286.372 133.322 285.444 133.322 284.249C133.322 283.661 133.406 283.134 133.574 282.667C133.751 282.2 133.994 281.808 134.302 281.491C134.61 281.164 134.974 280.917 135.394 280.749C135.814 280.572 136.271 280.483 136.766 280.483C137.289 280.483 137.755 280.572 138.166 280.749C138.577 280.926 138.913 281.188 139.174 281.533C139.445 281.878 139.627 282.308 139.72 282.821C139.823 283.325 139.823 283.913 139.72 284.585H134.596C134.643 285.369 134.876 285.957 135.296 286.349C135.716 286.732 136.341 286.923 137.172 286.923C137.732 286.923 138.213 286.844 138.614 286.685C139.015 286.526 139.351 286.354 139.622 286.167V287.273ZM136.738 281.575C136.206 281.575 135.749 281.738 135.366 282.065C134.983 282.392 134.741 282.886 134.638 283.549H138.544C138.581 282.877 138.427 282.382 138.082 282.065C137.737 281.738 137.289 281.575 136.738 281.575ZM144.918 288.029C144.358 288.029 143.873 287.898 143.462 287.637C143.061 287.376 142.739 287.016 142.496 286.559V290.367H141.264V280.623H142.342L142.468 282.037C142.711 281.561 143.037 281.183 143.448 280.903C143.859 280.623 144.367 280.483 144.974 280.483C145.394 280.483 145.795 280.562 146.178 280.721C146.57 280.87 146.911 281.104 147.2 281.421C147.499 281.729 147.732 282.121 147.9 282.597C148.077 283.064 148.166 283.614 148.166 284.249C148.166 284.893 148.077 285.453 147.9 285.929C147.723 286.396 147.485 286.788 147.186 287.105C146.887 287.413 146.542 287.646 146.15 287.805C145.758 287.954 145.347 288.029 144.918 288.029ZM144.736 286.923C145.38 286.923 145.898 286.704 146.29 286.265C146.691 285.817 146.892 285.145 146.892 284.249C146.892 283.372 146.691 282.709 146.29 282.261C145.898 281.804 145.38 281.575 144.736 281.575C144.419 281.575 144.12 281.631 143.84 281.743C143.569 281.855 143.331 282.023 143.126 282.247C142.93 282.462 142.771 282.737 142.65 283.073C142.538 283.409 142.482 283.801 142.482 284.249C142.482 284.697 142.538 285.089 142.65 285.425C142.771 285.761 142.93 286.041 143.126 286.265C143.331 286.489 143.569 286.657 143.84 286.769C144.12 286.872 144.419 286.923 144.736 286.923ZM150.89 277.851V287.889H149.658V277.851H150.89ZM153.529 279.559C153.277 279.559 153.076 279.484 152.927 279.335C152.777 279.176 152.703 278.985 152.703 278.761C152.703 278.537 152.777 278.346 152.927 278.187C153.076 278.028 153.277 277.949 153.529 277.949C153.771 277.949 153.963 278.028 154.103 278.187C154.243 278.346 154.313 278.537 154.313 278.761C154.313 278.985 154.243 279.176 154.103 279.335C153.963 279.484 153.771 279.559 153.529 279.559ZM154.131 280.623V287.889H152.899V280.623H154.131ZM159.275 288.029C158.715 288.029 158.206 287.945 157.749 287.777C157.301 287.6 156.918 287.352 156.601 287.035C156.284 286.708 156.041 286.312 155.873 285.845C155.705 285.378 155.621 284.846 155.621 284.249C155.621 283.661 155.705 283.134 155.873 282.667C156.05 282.2 156.298 281.808 156.615 281.491C156.932 281.164 157.32 280.917 157.777 280.749C158.234 280.572 158.752 280.483 159.331 280.483C159.779 280.483 160.19 280.534 160.563 280.637C160.936 280.73 161.244 280.87 161.487 281.057V282.163C161.188 281.967 160.852 281.822 160.479 281.729C160.115 281.626 159.737 281.575 159.345 281.575C158.496 281.575 157.87 281.794 157.469 282.233C157.077 282.672 156.881 283.344 156.881 284.249C156.881 285.154 157.072 285.826 157.455 286.265C157.838 286.704 158.444 286.923 159.275 286.923C159.714 286.923 160.115 286.872 160.479 286.769C160.852 286.657 161.188 286.517 161.487 286.349V287.455C161.226 287.614 160.908 287.749 160.535 287.861C160.171 287.973 159.751 288.029 159.275 288.029ZM167.244 286.503C167.16 286.671 167.053 286.848 166.922 287.035C166.792 287.212 166.628 287.376 166.432 287.525C166.236 287.674 166.003 287.796 165.732 287.889C165.471 287.982 165.163 288.029 164.808 288.029C164.155 288.029 163.628 287.847 163.226 287.483C162.825 287.11 162.624 286.578 162.624 285.887C162.624 285.094 162.9 284.51 163.45 284.137C164.01 283.764 164.804 283.577 165.83 283.577H167.188V282.975C167.188 282.471 167.058 282.112 166.796 281.897C166.535 281.682 166.087 281.575 165.452 281.575C165.004 281.575 164.58 281.65 164.178 281.799C163.777 281.939 163.418 282.102 163.1 282.289V281.183C163.362 281.024 163.712 280.87 164.15 280.721C164.598 280.562 165.088 280.483 165.62 280.483C166.535 280.483 167.23 280.674 167.706 281.057C168.182 281.43 168.42 282.014 168.42 282.807V286.713C168.42 286.797 168.42 286.895 168.42 287.007C168.43 287.11 168.434 287.217 168.434 287.329C168.444 287.441 168.453 287.548 168.462 287.651C168.472 287.744 168.481 287.824 168.49 287.889H167.37C167.342 287.758 167.314 287.576 167.286 287.343C167.268 287.1 167.258 286.89 167.258 286.713L167.244 286.503ZM165.074 286.923C165.457 286.923 165.784 286.844 166.054 286.685C166.325 286.526 166.544 286.344 166.712 286.139C166.88 285.924 167.002 285.719 167.076 285.523C167.151 285.318 167.188 285.173 167.188 285.089V284.557H165.956C165.219 284.557 164.682 284.664 164.346 284.879C164.02 285.084 163.856 285.397 163.856 285.817C163.856 286.144 163.954 286.41 164.15 286.615C164.346 286.82 164.654 286.923 165.074 286.923ZM173.914 287.735C173.764 287.819 173.573 287.889 173.34 287.945C173.106 288.001 172.859 288.029 172.598 288.029C172.243 288.029 171.94 287.978 171.688 287.875C171.445 287.772 171.244 287.637 171.086 287.469C170.927 287.292 170.81 287.096 170.736 286.881C170.67 286.657 170.638 286.428 170.638 286.195V281.673H169.77V280.623H170.638V279.097H171.87V280.623H173.984V281.673H171.87V286.041C171.87 286.349 171.944 286.573 172.094 286.713C172.252 286.853 172.528 286.923 172.92 286.923C173.284 286.923 173.615 286.82 173.914 286.615V287.735ZM176.183 279.559C175.931 279.559 175.73 279.484 175.581 279.335C175.432 279.176 175.357 278.985 175.357 278.761C175.357 278.537 175.432 278.346 175.581 278.187C175.73 278.028 175.931 277.949 176.183 277.949C176.426 277.949 176.617 278.028 176.757 278.187C176.897 278.346 176.967 278.537 176.967 278.761C176.967 278.985 176.897 279.176 176.757 279.335C176.617 279.484 176.426 279.559 176.183 279.559ZM176.785 280.623V287.889H175.553V280.623H176.785ZM182.237 281.575C181.677 281.575 181.22 281.706 180.865 281.967C180.52 282.219 180.24 282.546 180.025 282.947V287.889H178.793V280.623H179.955L179.997 281.925H180.025C180.221 281.505 180.529 281.16 180.949 280.889C181.369 280.618 181.901 280.483 182.545 280.483C183.264 280.483 183.833 280.674 184.253 281.057C184.683 281.43 184.897 282.009 184.897 282.793V287.889H183.665V282.919C183.665 282.415 183.539 282.065 183.287 281.869C183.035 281.673 182.685 281.575 182.237 281.575ZM193.09 287.273C193.09 287.74 193.02 288.164 192.88 288.547C192.749 288.939 192.535 289.27 192.236 289.541C191.947 289.812 191.569 290.022 191.102 290.171C190.645 290.32 190.089 290.395 189.436 290.395C189.081 290.395 188.769 290.376 188.498 290.339C188.227 290.302 187.989 290.25 187.784 290.185C187.588 290.129 187.42 290.064 187.28 289.989C187.14 289.924 187.023 289.858 186.93 289.793V288.687C187.079 288.771 187.233 288.846 187.392 288.911C187.56 288.986 187.742 289.051 187.938 289.107C188.134 289.163 188.353 289.205 188.596 289.233C188.848 289.27 189.133 289.289 189.45 289.289C190.346 289.289 190.971 289.121 191.326 288.785C191.681 288.449 191.858 287.95 191.858 287.287V286.167C191.643 286.596 191.34 286.942 190.948 287.203C190.565 287.464 190.089 287.595 189.52 287.595C189.091 287.595 188.68 287.52 188.288 287.371C187.905 287.222 187.565 287.002 187.266 286.713C186.977 286.414 186.743 286.046 186.566 285.607C186.398 285.159 186.314 284.641 186.314 284.053C186.314 283.456 186.398 282.938 186.566 282.499C186.743 282.051 186.977 281.678 187.266 281.379C187.565 281.08 187.91 280.856 188.302 280.707C188.694 280.558 189.109 280.483 189.548 280.483C190.127 280.483 190.612 280.614 191.004 280.875C191.405 281.136 191.718 281.491 191.942 281.939L191.956 281.785C191.956 281.617 191.965 281.416 191.984 281.183C192.003 280.94 192.021 280.754 192.04 280.623H193.16C193.141 280.754 193.123 280.94 193.104 281.183C193.095 281.426 193.09 281.626 193.09 281.785V287.273ZM189.744 286.489C190.052 286.489 190.332 286.442 190.584 286.349C190.845 286.246 191.069 286.092 191.256 285.887C191.452 285.682 191.601 285.43 191.704 285.131C191.816 284.823 191.872 284.464 191.872 284.053C191.872 283.222 191.667 282.602 191.256 282.191C190.855 281.78 190.346 281.575 189.73 281.575C189.422 281.575 189.133 281.626 188.862 281.729C188.601 281.832 188.372 281.986 188.176 282.191C187.989 282.396 187.84 282.658 187.728 282.975C187.616 283.283 187.56 283.642 187.56 284.053C187.56 284.464 187.616 284.823 187.728 285.131C187.84 285.43 187.994 285.682 188.19 285.887C188.386 286.083 188.615 286.232 188.876 286.335C189.147 286.438 189.436 286.489 189.744 286.489Z" fill="#18123D"/>
<rect x="84" y="429" width="150" height="44" rx="5" fill="#D3E3FC"/>
<path d="M134.142 456.029C133.685 456.029 133.274 455.996 132.91 455.931C132.546 455.875 132.224 455.8 131.944 455.707C131.673 455.604 131.44 455.497 131.244 455.385C131.057 455.264 130.908 455.147 130.796 455.035V453.775C130.936 453.896 131.118 454.022 131.342 454.153C131.566 454.274 131.823 454.386 132.112 454.489C132.411 454.592 132.728 454.676 133.064 454.741C133.409 454.806 133.769 454.839 134.142 454.839C134.87 454.839 135.449 454.704 135.878 454.433C136.307 454.153 136.522 453.733 136.522 453.173C136.522 452.893 136.471 452.664 136.368 452.487C136.265 452.3 136.116 452.146 135.92 452.025C135.724 451.894 135.477 451.787 135.178 451.703C134.889 451.61 134.548 451.512 134.156 451.409C133.764 451.306 133.372 451.19 132.98 451.059C132.588 450.928 132.233 450.756 131.916 450.541C131.608 450.326 131.356 450.056 131.16 449.729C130.973 449.402 130.88 448.987 130.88 448.483C130.88 447.615 131.183 446.938 131.79 446.453C132.397 445.968 133.325 445.725 134.576 445.725C134.94 445.725 135.262 445.748 135.542 445.795C135.831 445.832 136.083 445.884 136.298 445.949C136.522 446.005 136.713 446.07 136.872 446.145C137.04 446.22 137.189 446.29 137.32 446.355V447.615C136.928 447.363 136.503 447.186 136.046 447.083C135.598 446.971 135.108 446.915 134.576 446.915C134.128 446.915 133.75 446.952 133.442 447.027C133.143 447.092 132.901 447.19 132.714 447.321C132.527 447.452 132.392 447.61 132.308 447.797C132.224 447.984 132.182 448.194 132.182 448.427C132.182 448.707 132.243 448.94 132.364 449.127C132.495 449.314 132.663 449.472 132.868 449.603C133.083 449.724 133.325 449.827 133.596 449.911C133.867 449.995 134.151 450.07 134.45 450.135C134.842 450.228 135.243 450.336 135.654 450.457C136.065 450.578 136.433 450.746 136.76 450.961C137.087 451.176 137.353 451.456 137.558 451.801C137.773 452.137 137.88 452.576 137.88 453.117C137.88 453.649 137.773 454.102 137.558 454.475C137.353 454.839 137.077 455.138 136.732 455.371C136.387 455.604 135.99 455.772 135.542 455.875C135.094 455.978 134.627 456.029 134.142 456.029ZM142.933 455.735C142.784 455.819 142.592 455.889 142.359 455.945C142.126 456.001 141.878 456.029 141.617 456.029C141.262 456.029 140.959 455.978 140.707 455.875C140.464 455.772 140.264 455.637 140.105 455.469C139.946 455.292 139.83 455.096 139.755 454.881C139.69 454.657 139.657 454.428 139.657 454.195V449.673H138.789V448.623H139.657V447.097H140.889V448.623H143.003V449.673H140.889V454.041C140.889 454.349 140.964 454.573 141.113 454.713C141.272 454.853 141.547 454.923 141.939 454.923C142.303 454.923 142.634 454.82 142.933 454.615V455.735ZM147.486 456.029C146.991 456.029 146.529 455.945 146.1 455.777C145.671 455.609 145.297 455.366 144.98 455.049C144.672 454.722 144.429 454.326 144.252 453.859C144.075 453.392 143.986 452.856 143.986 452.249C143.986 451.652 144.075 451.12 144.252 450.653C144.429 450.177 144.672 449.78 144.98 449.463C145.297 449.146 145.671 448.903 146.1 448.735C146.529 448.567 146.991 448.483 147.486 448.483C147.99 448.483 148.457 448.567 148.886 448.735C149.315 448.903 149.684 449.146 149.992 449.463C150.309 449.78 150.557 450.177 150.734 450.653C150.921 451.12 151.014 451.652 151.014 452.249C151.014 452.856 150.921 453.392 150.734 453.859C150.557 454.326 150.309 454.722 149.992 455.049C149.684 455.366 149.315 455.609 148.886 455.777C148.457 455.945 147.99 456.029 147.486 456.029ZM147.486 454.923C147.813 454.923 148.111 454.872 148.382 454.769C148.662 454.657 148.905 454.494 149.11 454.279C149.315 454.055 149.474 453.775 149.586 453.439C149.698 453.103 149.754 452.706 149.754 452.249C149.754 451.792 149.698 451.395 149.586 451.059C149.474 450.723 149.315 450.448 149.11 450.233C148.905 450.009 148.662 449.846 148.382 449.743C148.111 449.631 147.813 449.575 147.486 449.575C147.159 449.575 146.861 449.631 146.59 449.743C146.319 449.846 146.081 450.009 145.876 450.233C145.68 450.448 145.526 450.723 145.414 451.059C145.302 451.395 145.246 451.792 145.246 452.249C145.246 452.706 145.302 453.103 145.414 453.439C145.526 453.775 145.68 454.055 145.876 454.279C146.081 454.494 146.319 454.657 146.59 454.769C146.861 454.872 147.159 454.923 147.486 454.923ZM156.17 456.029C155.61 456.029 155.124 455.898 154.714 455.637C154.312 455.376 153.99 455.016 153.748 454.559V458.367H152.516V448.623H153.594L153.72 450.037C153.962 449.561 154.289 449.183 154.7 448.903C155.11 448.623 155.619 448.483 156.226 448.483C156.646 448.483 157.047 448.562 157.43 448.721C157.822 448.87 158.162 449.104 158.452 449.421C158.75 449.729 158.984 450.121 159.152 450.597C159.329 451.064 159.418 451.614 159.418 452.249C159.418 452.893 159.329 453.453 159.152 453.929C158.974 454.396 158.736 454.788 158.438 455.105C158.139 455.413 157.794 455.646 157.402 455.805C157.01 455.954 156.599 456.029 156.17 456.029ZM155.988 454.923C156.632 454.923 157.15 454.704 157.542 454.265C157.943 453.817 158.144 453.145 158.144 452.249C158.144 451.372 157.943 450.709 157.542 450.261C157.15 449.804 156.632 449.575 155.988 449.575C155.67 449.575 155.372 449.631 155.092 449.743C154.821 449.855 154.583 450.023 154.378 450.247C154.182 450.462 154.023 450.737 153.902 451.073C153.79 451.409 153.734 451.801 153.734 452.249C153.734 452.697 153.79 453.089 153.902 453.425C154.023 453.761 154.182 454.041 154.378 454.265C154.583 454.489 154.821 454.657 155.092 454.769C155.372 454.872 155.67 454.923 155.988 454.923ZM164.564 456.029C164.004 456.029 163.519 455.898 163.108 455.637C162.707 455.376 162.385 455.016 162.142 454.559V458.367H160.91V448.623H161.988L162.114 450.037C162.357 449.561 162.684 449.183 163.094 448.903C163.505 448.623 164.014 448.483 164.62 448.483C165.04 448.483 165.442 448.562 165.824 448.721C166.216 448.87 166.557 449.104 166.846 449.421C167.145 449.729 167.378 450.121 167.546 450.597C167.724 451.064 167.812 451.614 167.812 452.249C167.812 452.893 167.724 453.453 167.546 453.929C167.369 454.396 167.131 454.788 166.832 455.105C166.534 455.413 166.188 455.646 165.796 455.805C165.404 455.954 164.994 456.029 164.564 456.029ZM164.382 454.923C165.026 454.923 165.544 454.704 165.936 454.265C166.338 453.817 166.538 453.145 166.538 452.249C166.538 451.372 166.338 450.709 165.936 450.261C165.544 449.804 165.026 449.575 164.382 449.575C164.065 449.575 163.766 449.631 163.486 449.743C163.216 449.855 162.978 450.023 162.772 450.247C162.576 450.462 162.418 450.737 162.296 451.073C162.184 451.409 162.128 451.801 162.128 452.249C162.128 452.697 162.184 453.089 162.296 453.425C162.418 453.761 162.576 454.041 162.772 454.265C162.978 454.489 163.216 454.657 163.486 454.769C163.766 454.872 164.065 454.923 164.382 454.923ZM169.935 447.559C169.683 447.559 169.482 447.484 169.333 447.335C169.184 447.176 169.109 446.985 169.109 446.761C169.109 446.537 169.184 446.346 169.333 446.187C169.482 446.028 169.683 445.949 169.935 445.949C170.178 445.949 170.369 446.028 170.509 446.187C170.649 446.346 170.719 446.537 170.719 446.761C170.719 446.985 170.649 447.176 170.509 447.335C170.369 447.484 170.178 447.559 169.935 447.559ZM170.537 448.623V455.889H169.305V448.623H170.537ZM175.989 449.575C175.429 449.575 174.972 449.706 174.617 449.967C174.272 450.219 173.992 450.546 173.777 450.947V455.889H172.545V448.623H173.707L173.749 449.925H173.777C173.973 449.505 174.281 449.16 174.701 448.889C175.121 448.618 175.653 448.483 176.297 448.483C177.016 448.483 177.585 448.674 178.005 449.057C178.434 449.43 178.649 450.009 178.649 450.793V455.889H177.417V450.919C177.417 450.415 177.291 450.065 177.039 449.869C176.787 449.673 176.437 449.575 175.989 449.575ZM186.842 455.273C186.842 455.74 186.772 456.164 186.632 456.547C186.501 456.939 186.287 457.27 185.988 457.541C185.699 457.812 185.321 458.022 184.854 458.171C184.397 458.32 183.841 458.395 183.188 458.395C182.833 458.395 182.521 458.376 182.25 458.339C181.979 458.302 181.741 458.25 181.536 458.185C181.34 458.129 181.172 458.064 181.032 457.989C180.892 457.924 180.775 457.858 180.682 457.793V456.687C180.831 456.771 180.985 456.846 181.144 456.911C181.312 456.986 181.494 457.051 181.69 457.107C181.886 457.163 182.105 457.205 182.348 457.233C182.6 457.27 182.885 457.289 183.202 457.289C184.098 457.289 184.723 457.121 185.078 456.785C185.433 456.449 185.61 455.95 185.61 455.287V454.167C185.395 454.596 185.092 454.942 184.7 455.203C184.317 455.464 183.841 455.595 183.272 455.595C182.843 455.595 182.432 455.52 182.04 455.371C181.657 455.222 181.317 455.002 181.018 454.713C180.729 454.414 180.495 454.046 180.318 453.607C180.15 453.159 180.066 452.641 180.066 452.053C180.066 451.456 180.15 450.938 180.318 450.499C180.495 450.051 180.729 449.678 181.018 449.379C181.317 449.08 181.662 448.856 182.054 448.707C182.446 448.558 182.861 448.483 183.3 448.483C183.879 448.483 184.364 448.614 184.756 448.875C185.157 449.136 185.47 449.491 185.694 449.939L185.708 449.785C185.708 449.617 185.717 449.416 185.736 449.183C185.755 448.94 185.773 448.754 185.792 448.623H186.912C186.893 448.754 186.875 448.94 186.856 449.183C186.847 449.426 186.842 449.626 186.842 449.785V455.273ZM183.496 454.489C183.804 454.489 184.084 454.442 184.336 454.349C184.597 454.246 184.821 454.092 185.008 453.887C185.204 453.682 185.353 453.43 185.456 453.131C185.568 452.823 185.624 452.464 185.624 452.053C185.624 451.222 185.419 450.602 185.008 450.191C184.607 449.78 184.098 449.575 183.482 449.575C183.174 449.575 182.885 449.626 182.614 449.729C182.353 449.832 182.124 449.986 181.928 450.191C181.741 450.396 181.592 450.658 181.48 450.975C181.368 451.283 181.312 451.642 181.312 452.053C181.312 452.464 181.368 452.823 181.48 453.131C181.592 453.43 181.746 453.682 181.942 453.887C182.138 454.083 182.367 454.232 182.628 454.335C182.899 454.438 183.188 454.489 183.496 454.489Z" fill="#18123D"/>
<rect x="84" y="513" width="150" height="44" rx="5" fill="#FFF5CC"/>
<path d="M136.001 540.029C135.544 540.029 135.133 539.996 134.769 539.931C134.405 539.875 134.083 539.8 133.803 539.707C133.533 539.604 133.299 539.497 133.103 539.385C132.917 539.264 132.767 539.147 132.655 539.035V537.775C132.795 537.896 132.977 538.022 133.201 538.153C133.425 538.274 133.682 538.386 133.971 538.489C134.27 538.592 134.587 538.676 134.923 538.741C135.269 538.806 135.628 538.839 136.001 538.839C136.729 538.839 137.308 538.704 137.737 538.433C138.167 538.153 138.381 537.733 138.381 537.173C138.381 536.893 138.33 536.664 138.227 536.487C138.125 536.3 137.975 536.146 137.779 536.025C137.583 535.894 137.336 535.787 137.037 535.703C136.748 535.61 136.407 535.512 136.015 535.409C135.623 535.306 135.231 535.19 134.839 535.059C134.447 534.928 134.093 534.756 133.775 534.541C133.467 534.326 133.215 534.056 133.019 533.729C132.833 533.402 132.739 532.987 132.739 532.483C132.739 531.615 133.043 530.938 133.649 530.453C134.256 529.968 135.185 529.725 136.435 529.725C136.799 529.725 137.121 529.748 137.401 529.795C137.691 529.832 137.943 529.884 138.157 529.949C138.381 530.005 138.573 530.07 138.731 530.145C138.899 530.22 139.049 530.29 139.179 530.355V531.615C138.787 531.363 138.363 531.186 137.905 531.083C137.457 530.971 136.967 530.915 136.435 530.915C135.987 530.915 135.609 530.952 135.301 531.027C135.003 531.092 134.76 531.19 134.573 531.321C134.387 531.452 134.251 531.61 134.167 531.797C134.083 531.984 134.041 532.194 134.041 532.427C134.041 532.707 134.102 532.94 134.223 533.127C134.354 533.314 134.522 533.472 134.727 533.603C134.942 533.724 135.185 533.827 135.455 533.911C135.726 533.995 136.011 534.07 136.309 534.135C136.701 534.228 137.103 534.336 137.513 534.457C137.924 534.578 138.293 534.746 138.619 534.961C138.946 535.176 139.212 535.456 139.417 535.801C139.632 536.137 139.739 536.576 139.739 537.117C139.739 537.649 139.632 538.102 139.417 538.475C139.212 538.839 138.937 539.138 138.591 539.371C138.246 539.604 137.849 539.772 137.401 539.875C136.953 539.978 136.487 540.029 136.001 540.029ZM144.793 539.735C144.643 539.819 144.452 539.889 144.219 539.945C143.985 540.001 143.738 540.029 143.477 540.029C143.122 540.029 142.819 539.978 142.567 539.875C142.324 539.772 142.123 539.637 141.965 539.469C141.806 539.292 141.689 539.096 141.615 538.881C141.549 538.657 141.517 538.428 141.517 538.195V533.673H140.649V532.623H141.517V531.097H142.749V532.623H144.863V533.673H142.749V538.041C142.749 538.349 142.823 538.573 142.973 538.713C143.131 538.853 143.407 538.923 143.799 538.923C144.163 538.923 144.494 538.82 144.793 538.615V539.735ZM149.345 540.029C148.851 540.029 148.389 539.945 147.959 539.777C147.53 539.609 147.157 539.366 146.839 539.049C146.531 538.722 146.289 538.326 146.111 537.859C145.934 537.392 145.845 536.856 145.845 536.249C145.845 535.652 145.934 535.12 146.111 534.653C146.289 534.177 146.531 533.78 146.839 533.463C147.157 533.146 147.53 532.903 147.959 532.735C148.389 532.567 148.851 532.483 149.345 532.483C149.849 532.483 150.316 532.567 150.745 532.735C151.175 532.903 151.543 533.146 151.851 533.463C152.169 533.78 152.416 534.177 152.593 534.653C152.78 535.12 152.873 535.652 152.873 536.249C152.873 536.856 152.78 537.392 152.593 537.859C152.416 538.326 152.169 538.722 151.851 539.049C151.543 539.366 151.175 539.609 150.745 539.777C150.316 539.945 149.849 540.029 149.345 540.029ZM149.345 538.923C149.672 538.923 149.971 538.872 150.241 538.769C150.521 538.657 150.764 538.494 150.969 538.279C151.175 538.055 151.333 537.775 151.445 537.439C151.557 537.103 151.613 536.706 151.613 536.249C151.613 535.792 151.557 535.395 151.445 535.059C151.333 534.723 151.175 534.448 150.969 534.233C150.764 534.009 150.521 533.846 150.241 533.743C149.971 533.631 149.672 533.575 149.345 533.575C149.019 533.575 148.72 533.631 148.449 533.743C148.179 533.846 147.941 534.009 147.735 534.233C147.539 534.448 147.385 534.723 147.273 535.059C147.161 535.395 147.105 535.792 147.105 536.249C147.105 536.706 147.161 537.103 147.273 537.439C147.385 537.775 147.539 538.055 147.735 538.279C147.941 538.494 148.179 538.657 148.449 538.769C148.72 538.872 149.019 538.923 149.345 538.923ZM158.029 540.029C157.469 540.029 156.984 539.898 156.573 539.637C156.172 539.376 155.85 539.016 155.607 538.559V542.367H154.375V532.623H155.453L155.579 534.037C155.822 533.561 156.149 533.183 156.559 532.903C156.97 532.623 157.479 532.483 158.085 532.483C158.505 532.483 158.907 532.562 159.289 532.721C159.681 532.87 160.022 533.104 160.311 533.421C160.61 533.729 160.843 534.121 161.011 534.597C161.189 535.064 161.277 535.614 161.277 536.249C161.277 536.893 161.189 537.453 161.011 537.929C160.834 538.396 160.596 538.788 160.297 539.105C159.999 539.413 159.653 539.646 159.261 539.805C158.869 539.954 158.459 540.029 158.029 540.029ZM157.847 538.923C158.491 538.923 159.009 538.704 159.401 538.265C159.803 537.817 160.003 537.145 160.003 536.249C160.003 535.372 159.803 534.709 159.401 534.261C159.009 533.804 158.491 533.575 157.847 533.575C157.53 533.575 157.231 533.631 156.951 533.743C156.681 533.855 156.443 534.023 156.237 534.247C156.041 534.462 155.883 534.737 155.761 535.073C155.649 535.409 155.593 535.801 155.593 536.249C155.593 536.697 155.649 537.089 155.761 537.425C155.883 537.761 156.041 538.041 156.237 538.265C156.443 538.489 156.681 538.657 156.951 538.769C157.231 538.872 157.53 538.923 157.847 538.923ZM166.424 540.029C165.864 540.029 165.378 539.898 164.968 539.637C164.566 539.376 164.244 539.016 164.002 538.559V542.367H162.77V532.623H163.848L163.974 534.037C164.216 533.561 164.543 533.183 164.954 532.903C165.364 532.623 165.873 532.483 166.48 532.483C166.9 532.483 167.301 532.562 167.684 532.721C168.076 532.87 168.416 533.104 168.706 533.421C169.004 533.729 169.238 534.121 169.406 534.597C169.583 535.064 169.672 535.614 169.672 536.249C169.672 536.893 169.583 537.453 169.406 537.929C169.228 538.396 168.99 538.788 168.692 539.105C168.393 539.413 168.048 539.646 167.656 539.805C167.264 539.954 166.853 540.029 166.424 540.029ZM166.242 538.923C166.886 538.923 167.404 538.704 167.796 538.265C168.197 537.817 168.398 537.145 168.398 536.249C168.398 535.372 168.197 534.709 167.796 534.261C167.404 533.804 166.886 533.575 166.242 533.575C165.924 533.575 165.626 533.631 165.346 533.743C165.075 533.855 164.837 534.023 164.632 534.247C164.436 534.462 164.277 534.737 164.156 535.073C164.044 535.409 163.988 535.801 163.988 536.249C163.988 536.697 164.044 537.089 164.156 537.425C164.277 537.761 164.436 538.041 164.632 538.265C164.837 538.489 165.075 538.657 165.346 538.769C165.626 538.872 165.924 538.923 166.242 538.923ZM176.946 539.273C176.844 539.348 176.718 539.427 176.568 539.511C176.419 539.595 176.237 539.679 176.022 539.763C175.808 539.838 175.565 539.898 175.294 539.945C175.024 540.001 174.72 540.029 174.384 540.029C173.162 540.029 172.233 539.698 171.598 539.035C170.964 538.372 170.646 537.444 170.646 536.249C170.646 535.661 170.73 535.134 170.898 534.667C171.076 534.2 171.318 533.808 171.626 533.491C171.934 533.164 172.298 532.917 172.718 532.749C173.138 532.572 173.596 532.483 174.09 532.483C174.613 532.483 175.08 532.572 175.49 532.749C175.901 532.926 176.237 533.188 176.498 533.533C176.769 533.878 176.951 534.308 177.044 534.821C177.147 535.325 177.147 535.913 177.044 536.585H171.92C171.967 537.369 172.2 537.957 172.62 538.349C173.04 538.732 173.666 538.923 174.496 538.923C175.056 538.923 175.537 538.844 175.938 538.685C176.34 538.526 176.676 538.354 176.946 538.167V539.273ZM174.062 533.575C173.53 533.575 173.073 533.738 172.69 534.065C172.308 534.392 172.065 534.886 171.962 535.549H175.868C175.906 534.877 175.752 534.382 175.406 534.065C175.061 533.738 174.613 533.575 174.062 533.575ZM183.796 538.461C183.572 538.937 183.259 539.32 182.858 539.609C182.457 539.889 181.948 540.029 181.332 540.029C180.893 540.029 180.478 539.954 180.086 539.805C179.694 539.646 179.349 539.413 179.05 539.105C178.751 538.788 178.513 538.396 178.336 537.929C178.159 537.453 178.07 536.893 178.07 536.249C178.07 535.614 178.159 535.064 178.336 534.597C178.513 534.121 178.751 533.729 179.05 533.421C179.349 533.104 179.694 532.87 180.086 532.721C180.487 532.562 180.907 532.483 181.346 532.483C181.897 532.483 182.373 532.6 182.774 532.833C183.175 533.057 183.497 533.379 183.74 533.799V529.851H184.972V539.889H183.894L183.796 538.461ZM181.514 538.923C181.831 538.923 182.125 538.872 182.396 538.769C182.667 538.657 182.9 538.489 183.096 538.265C183.301 538.041 183.46 537.761 183.572 537.425C183.693 537.089 183.754 536.697 183.754 536.249C183.754 535.801 183.693 535.409 183.572 535.073C183.46 534.737 183.301 534.457 183.096 534.233C182.9 534.009 182.667 533.846 182.396 533.743C182.125 533.631 181.831 533.575 181.514 533.575C180.87 533.575 180.343 533.804 179.932 534.261C179.531 534.709 179.33 535.372 179.33 536.249C179.33 537.136 179.535 537.803 179.946 538.251C180.357 538.699 180.879 538.923 181.514 538.923Z" fill="#18123D"/>
<path d="M234 115L244 109.227L244 120.774L234 115ZM432 115L432 116L432 115ZM437 135L436 135C436 127.689 436 122.986 436 119.993L437 119.993L438 119.993C438 122.986 438 127.689 438 135L437 135ZM432 115L432 116L243 116L243 115L243 114L432 114L432 115ZM437 119.993L436 119.993C436 117.786 434.211 116 432 116L432 115L432 114C435.312 114 438 116.677 438 119.993L437 119.993Z" fill="#4E496B"/>
<path d="M416 283C423.88 283 428.874 283 432.003 283C434.765 283 437 280.761 437 278L437 135" stroke="#4E496B" stroke-width="2"/>
<path d="M159 221C159 228.311 159 233.014 159 236.007C159 238.768 161.239 241 164 241L298 241" stroke="#4E496B" stroke-width="2"/>
<path d="M159 177L153.226 167L164.774 167L159 177ZM159 168L158 168L158 137L159 137L160 137L160 168L159 168Z" fill="#4E496B"/>
<path d="M159 93L164.774 83L153.226 83L159 93ZM159 84L160 84L160 53L159 53L158 53L158 84L159 84Z" fill="#4E496B"/>
<path d="M266 283L256 277.226L256 288.774L266 283ZM257 283L257 282L234 282L234 283L234 284L257 284L257 283Z" fill="#4E496B"/>
<path d="M84 199C78.9088 199 75.3989 199 72.9956 199C70.2341 199 68 201.239 68 204L68 309" stroke="#4E496B" stroke-width="2"/>
<path d="M84 367L74 361.226L74 372.774L84 367ZM68 362L69 362L68 362ZM75.0003 367L75.0003 366C74.2588 366 73.593 366 72.9956 366L72.9956 367L72.9956 368C73.593 368 74.2588 368 75.0003 368L75.0003 367ZM68 362L69 362L69 309L68 309L67 309L67 362L68 362ZM72.9956 367L72.9956 366C70.7876 366 69 364.21 69 362L68 362L67 362C67 365.313 69.6807 368 72.9956 368L72.9956 367Z" fill="#4E496B"/>
<path d="M341 261L335.226 251L346.774 251L341 261ZM341 252L340 252C340 249.477 340 247.514 340 245.993L341 245.993L342 245.993C342 247.514 342 249.477 342 252L341 252ZM336 241L336 242L185 242L185 241L185 240L336 240L336 241ZM341 245.993L340 245.993C340 243.786 338.211 242 336 242L336 241L336 240C339.312 240 342 242.677 342 245.993L341 245.993Z" fill="#4E496B"/>
<path d="M234 535C371.987 535 418.422 535 432.016 535C434.777 535 437 532.761 437 530L437 135" stroke="#4E496B" stroke-width="2"/>
<rect x="84" y="597" width="150" height="44" rx="5" fill="#DDF2E1"/>
<path d="M129.68 624.029C128.934 624.029 128.257 623.912 127.65 623.679C127.044 623.446 126.521 623.11 126.082 622.671C125.653 622.223 125.322 621.682 125.088 621.047C124.855 620.403 124.738 619.68 124.738 618.877C124.738 618.065 124.846 617.342 125.06 616.707C125.275 616.072 125.592 615.536 126.012 615.097C126.432 614.649 126.946 614.308 127.552 614.075C128.168 613.842 128.868 613.725 129.652 613.725C130.334 613.725 130.931 613.8 131.444 613.949C131.958 614.089 132.378 614.257 132.704 614.453V615.713C132.284 615.442 131.799 615.242 131.248 615.111C130.707 614.98 130.17 614.915 129.638 614.915C128.453 614.915 127.576 615.246 127.006 615.909C126.446 616.562 126.166 617.552 126.166 618.877C126.166 620.212 126.47 621.206 127.076 621.859C127.692 622.512 128.598 622.839 129.792 622.839C130.306 622.839 130.805 622.769 131.29 622.629C131.785 622.489 132.256 622.251 132.704 621.915V623.175C132.434 623.39 132.037 623.586 131.514 623.763C131.001 623.94 130.39 624.029 129.68 624.029ZM137.465 624.029C136.97 624.029 136.508 623.945 136.079 623.777C135.649 623.609 135.276 623.366 134.959 623.049C134.651 622.722 134.408 622.326 134.231 621.859C134.053 621.392 133.965 620.856 133.965 620.249C133.965 619.652 134.053 619.12 134.231 618.653C134.408 618.177 134.651 617.78 134.959 617.463C135.276 617.146 135.649 616.903 136.079 616.735C136.508 616.567 136.97 616.483 137.465 616.483C137.969 616.483 138.435 616.567 138.865 616.735C139.294 616.903 139.663 617.146 139.971 617.463C140.288 617.78 140.535 618.177 140.713 618.653C140.899 619.12 140.993 619.652 140.993 620.249C140.993 620.856 140.899 621.392 140.713 621.859C140.535 622.326 140.288 622.722 139.971 623.049C139.663 623.366 139.294 623.609 138.865 623.777C138.435 623.945 137.969 624.029 137.465 624.029ZM137.465 622.923C137.791 622.923 138.09 622.872 138.361 622.769C138.641 622.657 138.883 622.494 139.089 622.279C139.294 622.055 139.453 621.775 139.565 621.439C139.677 621.103 139.733 620.706 139.733 620.249C139.733 619.792 139.677 619.395 139.565 619.059C139.453 618.723 139.294 618.448 139.089 618.233C138.883 618.009 138.641 617.846 138.361 617.743C138.09 617.631 137.791 617.575 137.465 617.575C137.138 617.575 136.839 617.631 136.569 617.743C136.298 617.846 136.06 618.009 135.855 618.233C135.659 618.448 135.505 618.723 135.393 619.059C135.281 619.395 135.225 619.792 135.225 620.249C135.225 620.706 135.281 621.103 135.393 621.439C135.505 621.775 135.659 622.055 135.855 622.279C136.06 622.494 136.298 622.657 136.569 622.769C136.839 622.872 137.138 622.923 137.465 622.923ZM143.726 623.889H142.494V616.623H143.572L143.698 617.925H143.726C143.922 617.514 144.216 617.174 144.608 616.903C145 616.623 145.514 616.483 146.148 616.483C146.708 616.483 147.166 616.618 147.52 616.889C147.884 617.15 148.127 617.547 148.248 618.079C148.454 617.584 148.766 617.197 149.186 616.917C149.616 616.628 150.134 616.483 150.74 616.483C151.412 616.483 151.944 616.674 152.336 617.057C152.728 617.43 152.924 618.009 152.924 618.793V623.889H151.678V618.947C151.678 618.471 151.562 618.126 151.328 617.911C151.095 617.687 150.778 617.575 150.376 617.575C150.106 617.575 149.868 617.617 149.662 617.701C149.457 617.776 149.275 617.883 149.116 618.023C148.958 618.163 148.813 618.326 148.682 618.513C148.552 618.7 148.43 618.896 148.318 619.101V623.889H147.086V618.807C147.086 618.34 146.97 618.018 146.736 617.841C146.503 617.664 146.186 617.575 145.784 617.575C145.523 617.575 145.29 617.608 145.084 617.673C144.879 617.738 144.692 617.832 144.524 617.953C144.366 618.074 144.221 618.224 144.09 618.401C143.96 618.569 143.838 618.756 143.726 618.961V623.889ZM158.508 624.029C157.948 624.029 157.462 623.898 157.052 623.637C156.65 623.376 156.328 623.016 156.086 622.559V626.367H154.854V616.623H155.932L156.058 618.037C156.3 617.561 156.627 617.183 157.038 616.903C157.448 616.623 157.957 616.483 158.564 616.483C158.984 616.483 159.385 616.562 159.768 616.721C160.16 616.87 160.5 617.104 160.79 617.421C161.088 617.729 161.322 618.121 161.49 618.597C161.667 619.064 161.756 619.614 161.756 620.249C161.756 620.893 161.667 621.453 161.49 621.929C161.312 622.396 161.074 622.788 160.776 623.105C160.477 623.413 160.132 623.646 159.74 623.805C159.348 623.954 158.937 624.029 158.508 624.029ZM158.326 622.923C158.97 622.923 159.488 622.704 159.88 622.265C160.281 621.817 160.482 621.145 160.482 620.249C160.482 619.372 160.281 618.709 159.88 618.261C159.488 617.804 158.97 617.575 158.326 617.575C158.008 617.575 157.71 617.631 157.43 617.743C157.159 617.855 156.921 618.023 156.716 618.247C156.52 618.462 156.361 618.737 156.24 619.073C156.128 619.409 156.072 619.801 156.072 620.249C156.072 620.697 156.128 621.089 156.24 621.425C156.361 621.761 156.52 622.041 156.716 622.265C156.921 622.489 157.159 622.657 157.43 622.769C157.71 622.872 158.008 622.923 158.326 622.923ZM164.48 613.851V623.889H163.248V613.851H164.48ZM172.27 623.273C172.168 623.348 172.042 623.427 171.892 623.511C171.743 623.595 171.561 623.679 171.346 623.763C171.132 623.838 170.889 623.898 170.618 623.945C170.348 624.001 170.044 624.029 169.708 624.029C168.486 624.029 167.557 623.698 166.922 623.035C166.288 622.372 165.97 621.444 165.97 620.249C165.97 619.661 166.054 619.134 166.222 618.667C166.4 618.2 166.642 617.808 166.95 617.491C167.258 617.164 167.622 616.917 168.042 616.749C168.462 616.572 168.92 616.483 169.414 616.483C169.937 616.483 170.404 616.572 170.814 616.749C171.225 616.926 171.561 617.188 171.822 617.533C172.093 617.878 172.275 618.308 172.368 618.821C172.471 619.325 172.471 619.913 172.368 620.585H167.244C167.291 621.369 167.524 621.957 167.944 622.349C168.364 622.732 168.99 622.923 169.82 622.923C170.38 622.923 170.861 622.844 171.262 622.685C171.664 622.526 172 622.354 172.27 622.167V623.273ZM169.386 617.575C168.854 617.575 168.397 617.738 168.014 618.065C167.632 618.392 167.389 618.886 167.286 619.549H171.192C171.23 618.877 171.076 618.382 170.73 618.065C170.385 617.738 169.937 617.575 169.386 617.575ZM177.468 623.735C177.319 623.819 177.128 623.889 176.894 623.945C176.661 624.001 176.414 624.029 176.152 624.029C175.798 624.029 175.494 623.978 175.242 623.875C175 623.772 174.799 623.637 174.64 623.469C174.482 623.292 174.365 623.096 174.29 622.881C174.225 622.657 174.192 622.428 174.192 622.195V617.673H173.324V616.623H174.192V615.097H175.424V616.623H177.538V617.673H175.424V622.041C175.424 622.349 175.499 622.573 175.648 622.713C175.807 622.853 176.082 622.923 176.474 622.923C176.838 622.923 177.17 622.82 177.468 622.615V623.735ZM184.821 623.273C184.719 623.348 184.593 623.427 184.443 623.511C184.294 623.595 184.112 623.679 183.897 623.763C183.683 623.838 183.44 623.898 183.169 623.945C182.899 624.001 182.595 624.029 182.259 624.029C181.037 624.029 180.108 623.698 179.473 623.035C178.839 622.372 178.521 621.444 178.521 620.249C178.521 619.661 178.605 619.134 178.773 618.667C178.951 618.2 179.193 617.808 179.501 617.491C179.809 617.164 180.173 616.917 180.593 616.749C181.013 616.572 181.471 616.483 181.965 616.483C182.488 616.483 182.955 616.572 183.365 616.749C183.776 616.926 184.112 617.188 184.373 617.533C184.644 617.878 184.826 618.308 184.919 618.821C185.022 619.325 185.022 619.913 184.919 620.585H179.795C179.842 621.369 180.075 621.957 180.495 622.349C180.915 622.732 181.541 622.923 182.371 622.923C182.931 622.923 183.412 622.844 183.813 622.685C184.215 622.526 184.551 622.354 184.821 622.167V623.273ZM181.937 617.575C181.405 617.575 180.948 617.738 180.565 618.065C180.183 618.392 179.94 618.886 179.837 619.549H183.743C183.781 618.877 183.627 618.382 183.281 618.065C182.936 617.738 182.488 617.575 181.937 617.575ZM191.671 622.461C191.447 622.937 191.134 623.32 190.733 623.609C190.332 623.889 189.823 624.029 189.207 624.029C188.768 624.029 188.353 623.954 187.961 623.805C187.569 623.646 187.224 623.413 186.925 623.105C186.626 622.788 186.388 622.396 186.211 621.929C186.034 621.453 185.945 620.893 185.945 620.249C185.945 619.614 186.034 619.064 186.211 618.597C186.388 618.121 186.626 617.729 186.925 617.421C187.224 617.104 187.569 616.87 187.961 616.721C188.362 616.562 188.782 616.483 189.221 616.483C189.772 616.483 190.248 616.6 190.649 616.833C191.05 617.057 191.372 617.379 191.615 617.799V613.851H192.847V623.889H191.769L191.671 622.461ZM189.389 622.923C189.706 622.923 190 622.872 190.271 622.769C190.542 622.657 190.775 622.489 190.971 622.265C191.176 622.041 191.335 621.761 191.447 621.425C191.568 621.089 191.629 620.697 191.629 620.249C191.629 619.801 191.568 619.409 191.447 619.073C191.335 618.737 191.176 618.457 190.971 618.233C190.775 618.009 190.542 617.846 190.271 617.743C190 617.631 189.706 617.575 189.389 617.575C188.745 617.575 188.218 617.804 187.807 618.261C187.406 618.709 187.205 619.372 187.205 620.249C187.205 621.136 187.41 621.803 187.821 622.251C188.232 622.699 188.754 622.923 189.389 622.923Z" fill="#18123D"/>
</svg>
