<svg xmlns="http://www.w3.org/2000/svg" width="700" height="346" fill="none" viewBox="0 0 700 346">
    <g clip-path="url(#clip0_35_187)">
        <g filter="url(#filter0_d_35_187)">
            <rect width="83" height="326" x="155" y="10" fill="#fff" rx="5"/>
        </g>
        <g filter="url(#filter1_d_35_187)">
            <rect width="154" height="326" x="539" y="10" fill="#fff" rx="5"/>
        </g>
        <path fill="#000" d="M559.678 41.14c-.746 0-1.423-.117-2.03-.35a4.451 4.451 0 0 1-1.568-1.008 4.628 4.628 0 0 1-.994-1.624c-.233-.644-.35-1.367-.35-2.17 0-.812.108-1.535.322-2.17a4.27 4.27 0 0 1 .952-1.61 4.09 4.09 0 0 1 1.54-1.022c.616-.233 1.316-.35 2.1-.35.682 0 1.279.075 1.792.224.514.14.934.308 1.26.504v1.26a4.64 4.64 0 0 0-1.456-.602 6.839 6.839 0 0 0-1.61-.196c-1.185 0-2.062.331-2.632.994-.56.653-.84 1.643-.84 2.968 0 1.335.304 2.329.91 2.982.616.653 1.522.98 2.716.98.514 0 1.013-.07 1.498-.21.495-.14.966-.378 1.414-.714v1.26c-.27.215-.667.41-1.19.588-.513.177-1.124.266-1.834.266Zm6.103-1.82 3.878-5.586h1.246V41h-1.232v-5.572L565.809 41h-1.26v-7.266h1.232v5.586Zm10.271 1.82c-.56 0-1.068-.084-1.526-.252a3.345 3.345 0 0 1-1.148-.742 3.277 3.277 0 0 1-.728-1.19c-.168-.467-.252-.999-.252-1.596 0-.588.084-1.115.252-1.582.178-.467.425-.859.742-1.176a3.076 3.076 0 0 1 1.162-.742 4.278 4.278 0 0 1 1.554-.266c.448 0 .859.051 1.232.154.374.093.682.233.924.42v1.106a3.25 3.25 0 0 0-1.008-.434 4.156 4.156 0 0 0-1.134-.154c-.849 0-1.474.22-1.876.658-.392.439-.588 1.11-.588 2.016 0 .905.192 1.577.574 2.016.383.439.99.658 1.82.658.439 0 .84-.051 1.204-.154.374-.112.71-.252 1.008-.42v1.106a4.29 4.29 0 0 1-2.212.574Zm6.79-6.356V41h-1.232v-6.216h-2.282v-1.05h5.838v1.05h-2.324Zm9.323 5.6a3.979 3.979 0 0 1-.924.49 4.604 4.604 0 0 1-.728.182 4.51 4.51 0 0 1-.91.084c-1.223 0-2.151-.331-2.786-.994-.635-.663-.952-1.591-.952-2.786 0-.588.084-1.115.252-1.582.177-.467.42-.859.728-1.176a3.028 3.028 0 0 1 1.092-.742 3.49 3.49 0 0 1 1.372-.266 3.5 3.5 0 0 1 1.4.266c.411.177.747.439 1.008.784.271.345.453.775.546 1.288.103.504.103 1.092 0 1.764h-5.124c.047.784.28 1.372.7 1.764.42.383 1.045.574 1.876.574.56 0 1.041-.08 1.442-.238a5.07 5.07 0 0 0 1.008-.518v1.106Zm-2.884-5.698c-.532 0-.989.163-1.372.49-.383.327-.625.821-.728 1.484h3.906c.037-.672-.117-1.167-.462-1.484-.345-.327-.793-.49-1.344-.49Zm11.565.476-2.464 5.026h-.98l-2.324-5.054V41h-1.162v-7.266h1.834l2.226 4.872 2.38-4.872h1.708V41h-1.218v-5.838Zm8.604 3.416c0 .42-.074.784-.224 1.092-.149.308-.359.56-.63.756-.27.196-.592.34-.966.434-.373.093-.779.14-1.218.14h-2.338v-7.266h1.232v2.534h1.19c.924 0 1.648.182 2.17.546.523.364.784.952.784 1.764ZM611.732 41H610.5v-7.266h1.232V41Zm-6.426-3.682v2.632h1.106c.532 0 .962-.098 1.288-.294.336-.205.504-.541.504-1.008 0-.476-.149-.817-.448-1.022-.298-.205-.718-.308-1.26-.308h-1.19Zm13.974.798L617.32 41h-1.288l2.632-3.766-2.324-3.5h1.428l1.736 2.562 1.75-2.562h1.274l-2.408 3.472L622.654 41h-1.428l-1.946-2.884Zm8.245 3.024c-.56 0-1.045-.13-1.456-.392a2.856 2.856 0 0 1-.966-1.078v3.808h-1.232v-9.744h1.078l.126 1.414c.243-.476.57-.854.98-1.134.411-.28.92-.42 1.526-.42.42 0 .822.08 1.204.238.392.15.733.383 1.022.7.299.308.532.7.7 1.176.178.467.266 1.017.266 1.652 0 .644-.088 1.204-.266 1.68a3.5 3.5 0 0 1-.714 1.176 2.988 2.988 0 0 1-1.036.7 3.43 3.43 0 0 1-1.232.224Zm-.182-1.106c.644 0 1.162-.22 1.554-.658.402-.448.602-1.12.602-2.016 0-.877-.2-1.54-.602-1.988-.392-.457-.91-.686-1.554-.686-.317 0-.616.056-.896.168-.27.112-.508.28-.714.504a2.45 2.45 0 0 0-.476.826 3.723 3.723 0 0 0-.168 1.176c0 .448.056.84.168 1.176.122.336.28.616.476.84.206.224.444.392.714.504.28.103.579.154.896.154Zm9.11-.42a4.219 4.219 0 0 1-.322.532 2.419 2.419 0 0 1-1.19.854c-.261.093-.569.14-.924.14-.653 0-1.18-.182-1.582-.546-.401-.373-.602-.905-.602-1.596 0-.793.276-1.377.826-1.75.56-.373 1.354-.56 2.38-.56h1.358v-.602c0-.504-.13-.863-.392-1.078-.261-.215-.709-.322-1.344-.322-.448 0-.872.075-1.274.224-.401.14-.76.303-1.078.49v-1.106a5.475 5.475 0 0 1 1.05-.462 4.374 4.374 0 0 1 1.47-.238c.915 0 1.61.191 2.086.574.476.373.714.957.714 1.75v4.2c.01.103.014.21.014.322l.028.322c.01.093.019.173.028.238h-1.12a6.4 6.4 0 0 1-.084-.546 8.74 8.74 0 0 1-.028-.63l-.014-.21Zm-2.17.42c.383 0 .71-.08.98-.238.271-.159.49-.34.658-.546.168-.215.29-.42.364-.616.075-.205.112-.35.112-.434v-.532h-1.232c-.737 0-1.274.107-1.61.322-.326.205-.49.518-.49.938 0 .327.098.593.294.798.196.205.504.308.924.308Zm10.03-2.254h-3.514V41h-1.232v-7.266h1.232v2.996h3.514v-2.996h1.232V41h-1.232v-3.22Zm9.034 2.604a3.979 3.979 0 0 1-.924.49 4.632 4.632 0 0 1-.728.182 4.51 4.51 0 0 1-.91.084c-1.223 0-2.152-.331-2.786-.994-.635-.663-.952-1.591-.952-2.786 0-.588.084-1.115.252-1.582.177-.467.42-.859.728-1.176a3.028 3.028 0 0 1 1.092-.742 3.49 3.49 0 0 1 1.372-.266c.522 0 .989.089 1.4.266.41.177.746.439 1.008.784.27.345.452.775.546 1.288.102.504.102 1.092 0 1.764h-5.124c.046.784.28 1.372.7 1.764.42.383 1.045.574 1.876.574.56 0 1.04-.08 1.442-.238a5.07 5.07 0 0 0 1.008-.518v1.106Zm-2.884-5.698c-.532 0-.99.163-1.372.49-.383.327-.626.821-.728 1.484h3.906c.037-.672-.117-1.167-.462-1.484-.346-.327-.794-.49-1.344-.49Zm9.381 3.094h-3.514V41h-1.232v-7.266h1.232v2.996h3.514v-2.996h1.232V41h-1.232v-3.22Zm4.484 1.54 3.878-5.586h1.246V41h-1.232v-5.572L664.356 41h-1.26v-7.266h1.232v5.586Zm7.135-3.234c0-.41.075-.76.224-1.05.149-.299.359-.541.63-.728.271-.196.593-.34.966-.434.373-.093.779-.14 1.218-.14h2.338V41h-1.232v-2.632h-1.33L672.415 41h-1.47l2.1-2.94c-.504-.15-.896-.378-1.176-.686-.271-.308-.406-.737-.406-1.288Zm4.144 1.232v-2.534h-1.106c-.523 0-.952.098-1.288.294-.336.196-.504.513-.504.952 0 .457.149.789.448.994.299.196.723.294 1.274.294h1.176ZM592.499 55.95c.261-.159.466-.406.616-.742.149-.336.266-.76.35-1.274a15.2 15.2 0 0 0 .168-1.82c.037-.7.07-1.493.098-2.38h4.998v6.216h1.092v3.122h-1.078L598.589 57h-5.404l-.126 2.072h-1.106V55.95h.546Zm4.998 0v-5.166h-2.66c-.047 1.372-.136 2.473-.266 3.304-.122.821-.336 1.442-.644 1.862h3.57Zm7.798-.336a4.219 4.219 0 0 1-.322.532 2.419 2.419 0 0 1-1.19.854c-.261.093-.569.14-.924.14-.653 0-1.18-.182-1.582-.546-.401-.373-.602-.905-.602-1.596 0-.793.276-1.377.826-1.75.56-.373 1.354-.56 2.38-.56h1.358v-.602c0-.504-.13-.863-.392-1.078-.261-.215-.709-.322-1.344-.322-.448 0-.872.075-1.274.224-.401.14-.76.303-1.078.49v-1.106a5.475 5.475 0 0 1 1.05-.462 4.374 4.374 0 0 1 1.47-.238c.915 0 1.61.191 2.086.574.476.373.714.957.714 1.75v4.2c.01.103.014.21.014.322l.028.322c.01.093.019.173.028.238h-1.12a6.4 6.4 0 0 1-.084-.546 8.74 8.74 0 0 1-.028-.63l-.014-.21Zm-2.17.42c.383 0 .71-.08.98-.238.271-.159.49-.34.658-.546.168-.215.29-.42.364-.616.075-.205.112-.35.112-.434v-.532h-1.232c-.737 0-1.274.107-1.61.322-.326.205-.49.518-.49.938 0 .327.098.593.294.798.196.205.504.308.924.308Zm10.029-2.254h-3.514V57h-1.232v-7.266h1.232v2.996h3.514v-2.996h1.232V57h-1.232v-3.22Zm7.998 0h-3.514V57h-1.232v-7.266h1.232v2.996h3.514v-2.996h1.232V57h-1.232v-3.22Zm8.628.798c0 .42-.074.784-.224 1.092-.149.308-.359.56-.63.756-.27.196-.592.34-.966.434-.373.093-.779.14-1.218.14h-2.338v-7.266h1.232v2.534h1.19c.924 0 1.648.182 2.17.546.523.364.784.952.784 1.764ZM632.062 57h-1.232v-7.266h1.232V57Zm-6.426-3.682v2.632h1.106c.532 0 .962-.098 1.288-.294.336-.205.504-.541.504-1.008 0-.476-.149-.817-.448-1.022-.298-.205-.718-.308-1.26-.308h-1.19Zm10.898.798L634.574 57h-1.288l2.632-3.766-2.324-3.5h1.428l1.736 2.562 1.75-2.562h1.274l-2.408 3.472L639.908 57h-1.428l-1.946-2.884Z"/>
        <rect width="113" height="42" x="559" y="81" fill="#fff" stroke="#67B0F8" stroke-width="2" rx="4"/>
        <path fill="#18123D" d="M587.11 107.029c-.747 0-1.423-.117-2.03-.35a4.434 4.434 0 0 1-1.568-1.008 4.611 4.611 0 0 1-.994-1.624c-.233-.644-.35-1.367-.35-2.17 0-.812.107-1.535.322-2.17a4.27 4.27 0 0 1 .952-1.61c.42-.448.933-.789 1.54-1.022.616-.233 1.316-.35 2.1-.35.681 0 1.279.075 1.792.224.513.14.933.308 1.26.504v1.26a4.64 4.64 0 0 0-1.456-.602 6.839 6.839 0 0 0-1.61-.196c-1.185 0-2.063.331-2.632.994-.56.653-.84 1.643-.84 2.968 0 1.335.303 2.329.91 2.982.616.653 1.521.98 2.716.98.513 0 1.013-.07 1.498-.21.495-.14.966-.378 1.414-.714v1.26c-.271.215-.667.411-1.19.588-.513.177-1.125.266-1.834.266Zm6.103-10.178v10.038h-1.232V96.851h1.232Zm2.638 1.708c-.252 0-.453-.075-.602-.224a.809.809 0 0 1-.224-.574.81.81 0 0 1 .224-.574c.149-.159.35-.238.602-.238.243 0 .434.08.574.238.14.159.21.35.21.574 0 .224-.07.415-.21.574-.14.15-.331.224-.574.224Zm.602 1.064v7.266h-1.232v-7.266h1.232Zm5.144 7.406c-.56 0-1.069-.084-1.526-.252a3.335 3.335 0 0 1-1.148-.742 3.277 3.277 0 0 1-.728-1.19c-.168-.467-.252-.999-.252-1.596 0-.588.084-1.115.252-1.582.177-.467.425-.859.742-1.176a3.065 3.065 0 0 1 1.162-.742 4.27 4.27 0 0 1 1.554-.266c.448 0 .859.051 1.232.154.373.093.681.233.924.42v1.106a3.263 3.263 0 0 0-1.008-.434 4.145 4.145 0 0 0-1.134-.154c-.849 0-1.475.219-1.876.658-.392.439-.588 1.111-.588 2.016s.191 1.577.574 2.016c.383.439.989.658 1.82.658.439 0 .84-.051 1.204-.154a4.969 4.969 0 0 0 1.008-.42v1.106a4.29 4.29 0 0 1-2.212.574Zm5.59-3.234h-.644v3.094h-1.232V96.851h1.232v5.894h.7l2.548-3.122h1.4l-2.982 3.584 3.038 3.682h-1.498l-2.562-3.094Zm8.513-3.22c-.56 0-1.017.131-1.372.392a2.874 2.874 0 0 0-.84.98v4.942h-1.232V96.851h1.232v2.772l-.028 1.302h.028a2.48 2.48 0 0 1 .924-1.022c.42-.28.952-.42 1.596-.42.719 0 1.288.191 1.708.574.429.373.644.952.644 1.736v5.096h-1.232v-4.97c0-.504-.126-.854-.378-1.05-.252-.196-.602-.294-1.05-.294Zm7.591 6.454c-.495 0-.957-.084-1.386-.252a3.224 3.224 0 0 1-1.12-.728 3.542 3.542 0 0 1-.728-1.19c-.178-.467-.266-1.003-.266-1.61 0-.597.088-1.129.266-1.596.177-.476.42-.873.728-1.19.317-.317.69-.56 1.12-.728a3.767 3.767 0 0 1 1.386-.252c.504 0 .97.084 1.4.252.429.168.798.411 1.106.728.317.317.564.714.742 1.19.186.467.28.999.28 1.596 0 .607-.094 1.143-.28 1.61a3.448 3.448 0 0 1-.742 1.19c-.308.317-.677.56-1.106.728-.43.168-.896.252-1.4.252Zm0-1.106c.326 0 .625-.051.896-.154.28-.112.522-.275.728-.49.205-.224.364-.504.476-.84.112-.336.168-.733.168-1.19 0-.457-.056-.854-.168-1.19a2.17 2.17 0 0 0-.476-.826 1.838 1.838 0 0 0-.728-.49 2.325 2.325 0 0 0-.896-.168c-.327 0-.626.056-.896.168a1.849 1.849 0 0 0-.714.49c-.196.215-.35.49-.462.826a3.775 3.775 0 0 0-.168 1.19c0 .457.056.854.168 1.19.112.336.266.616.462.84.205.215.443.378.714.49.27.103.569.154.896.154Zm9.691-.336a2.6 2.6 0 0 1-.91 1.036c-.401.271-.928.406-1.582.406-.672 0-1.218-.187-1.638-.56-.41-.383-.616-.971-.616-1.764v-5.082h1.246v5.082c0 .243.033.443.098.602.075.149.173.271.294.364.122.093.262.159.42.196.168.037.35.056.546.056.542 0 .976-.121 1.302-.364.327-.243.607-.574.84-.994v-4.942h1.232v7.266h-1.092l-.112-1.302h-.028Zm5.578 1.442c-.382 0-.723-.033-1.022-.098a4.808 4.808 0 0 1-.77-.21 4.282 4.282 0 0 1-.546-.28 3.732 3.732 0 0 1-.35-.266v-1.106c.094.093.22.196.378.308.159.103.35.201.574.294.224.093.476.173.756.238.29.056.612.084.966.084.523 0 .938-.084 1.246-.252.308-.168.462-.453.462-.854 0-.215-.051-.387-.154-.518a.932.932 0 0 0-.392-.308 2.429 2.429 0 0 0-.588-.196 28.153 28.153 0 0 0-.686-.14 24.708 24.708 0 0 1-.91-.21 3.213 3.213 0 0 1-.812-.35 1.92 1.92 0 0 1-.588-.602c-.149-.252-.224-.579-.224-.98 0-.653.252-1.167.756-1.54.514-.373 1.228-.56 2.142-.56.514 0 .966.051 1.358.154.402.103.71.215.924.336v1.106a3.286 3.286 0 0 0-.91-.392c-.354-.112-.798-.168-1.33-.168-.55 0-.975.075-1.274.224-.289.149-.434.42-.434.812a.82.82 0 0 0 .126.476c.084.112.196.205.336.28.15.065.318.117.504.154.187.037.383.079.588.126.318.065.644.135.98.21.336.075.635.191.896.35.271.159.49.373.658.644.178.261.266.616.266 1.064 0 .42-.084.77-.252 1.05a1.93 1.93 0 0 1-.672.672c-.27.159-.583.271-.938.336-.345.075-.7.112-1.064.112Zm10.226-.756a3.919 3.919 0 0 1-.378.238 4.34 4.34 0 0 1-.546.252 4.604 4.604 0 0 1-.728.182 4.51 4.51 0 0 1-.91.084c-1.223 0-2.151-.331-2.786-.994-.635-.663-.952-1.591-.952-2.786 0-.588.084-1.115.252-1.582.177-.467.42-.859.728-1.176a3.025 3.025 0 0 1 1.092-.742 3.49 3.49 0 0 1 1.372-.266 3.5 3.5 0 0 1 1.4.266c.411.177.747.439 1.008.784.271.345.453.775.546 1.288.103.504.103 1.092 0 1.764h-5.124c.047.784.28 1.372.7 1.764.42.383 1.045.574 1.876.574.56 0 1.041-.079 1.442-.238a5.07 5.07 0 0 0 1.008-.518v1.106Zm-2.884-5.698c-.532 0-.989.163-1.372.49-.383.327-.625.821-.728 1.484h3.906c.037-.672-.117-1.167-.462-1.484-.345-.327-.793-.49-1.344-.49Z"/>
        <rect width="113" height="42" x="559" y="276" fill="#fff" stroke="#67B0F8" stroke-width="2" rx="4"/>
        <path fill="#18123D" d="M612.156 301.973c-.271 0-.49-.084-.658-.252a.884.884 0 0 1-.252-.63c0-.261.084-.476.252-.644.168-.168.387-.252.658-.252.261 0 .476.084.644.252a.873.873 0 0 1 .252.644.884.884 0 0 1-.252.63.873.873 0 0 1-.644.252Zm3.349 0c-.271 0-.49-.084-.658-.252a.884.884 0 0 1-.252-.63c0-.261.084-.476.252-.644.168-.168.387-.252.658-.252.261 0 .476.084.644.252a.873.873 0 0 1 .252.644.884.884 0 0 1-.252.63.873.873 0 0 1-.644.252Zm3.35 0c-.271 0-.49-.084-.658-.252a.884.884 0 0 1-.252-.63c0-.261.084-.476.252-.644.168-.168.387-.252.658-.252.261 0 .476.084.644.252a.873.873 0 0 1 .252.644.884.884 0 0 1-.252.63.873.873 0 0 1-.644.252Z"/>
        <rect width="113" height="42" x="559" y="211" fill="#fff" stroke="#67B0F8" stroke-width="2" rx="4"/>
        <path fill="#18123D" d="M573.654 237.029a5.264 5.264 0 0 1-1.89-.336 4.344 4.344 0 0 1-1.526-1.008c-.43-.439-.77-.98-1.022-1.624-.243-.644-.364-1.386-.364-2.226 0-.84.121-1.577.364-2.212.252-.644.592-1.176 1.022-1.596a4.14 4.14 0 0 1 1.526-.966 5.264 5.264 0 0 1 1.89-.336c.681 0 1.316.112 1.904.336a4.147 4.147 0 0 1 1.526.966c.429.429.765.966 1.008 1.61.242.635.364 1.372.364 2.212 0 .831-.122 1.568-.364 2.212a4.622 4.622 0 0 1-1.008 1.624c-.43.439-.938.775-1.526 1.008a5.305 5.305 0 0 1-1.904.336Zm0-1.19c.485 0 .933-.07 1.344-.21.41-.149.765-.378 1.064-.686.308-.317.546-.728.714-1.232.177-.504.266-1.115.266-1.834 0-.719-.089-1.33-.266-1.834-.168-.504-.406-.91-.714-1.218a2.596 2.596 0 0 0-1.064-.686 3.916 3.916 0 0 0-1.344-.224c-.486 0-.934.075-1.344.224-.411.14-.77.369-1.078.686-.299.308-.537.714-.714 1.218-.168.504-.252 1.115-.252 1.834 0 .719.084 1.33.252 1.834.177.504.415.915.714 1.232.308.308.667.537 1.078.686.41.14.858.21 1.344.21Zm13.293-2.59c0 .644-.089 1.204-.266 1.68a3.494 3.494 0 0 1-.714 1.176 3.002 3.002 0 0 1-1.036.7 3.44 3.44 0 0 1-1.232.224c-.56 0-1.05-.131-1.47-.392a2.872 2.872 0 0 1-.98-1.12l-.042 1.372h-1.162v-10.038h1.232l-.028 4.186a2.98 2.98 0 0 1 .98-1.134c.411-.28.919-.42 1.526-.42.42 0 .821.079 1.204.238.392.149.733.383 1.022.7.299.308.532.7.7 1.176.177.467.266 1.017.266 1.652Zm-3.43 2.674c.644 0 1.162-.219 1.554-.658.401-.448.602-1.12.602-2.016 0-.877-.201-1.54-.602-1.988-.392-.457-.91-.686-1.554-.686-.317 0-.616.056-.896.168a1.99 1.99 0 0 0-.714.504c-.196.215-.355.49-.476.826a3.723 3.723 0 0 0-.168 1.176c0 .448.056.84.168 1.176.121.336.28.616.476.84.205.224.443.392.714.504.28.103.579.154.896.154Zm5.651-7.364a.795.795 0 0 1-.588-.224.805.805 0 0 1-.224-.574c0-.224.074-.415.224-.574a.768.768 0 0 1 .588-.238c.242 0 .434.079.574.238a.81.81 0 0 1 .224.574.81.81 0 0 1-.224.574c-.14.149-.332.224-.574.224Zm.616 8.946c0 .271-.038.527-.112.77a1.575 1.575 0 0 1-.364.63 1.57 1.57 0 0 1-.616.434 2.194 2.194 0 0 1-.896.168c-.187 0-.392-.023-.616-.07a2.183 2.183 0 0 1-.658-.224v-1.19c.13.103.284.191.462.266.177.075.378.112.602.112.354 0 .602-.084.742-.252a.895.895 0 0 0 .224-.616v-7.91h1.232v7.882Zm7.787-1.232a3.685 3.685 0 0 1-.378.238 4.34 4.34 0 0 1-.546.252 4.576 4.576 0 0 1-.728.182c-.27.056-.574.084-.91.084-1.222 0-2.151-.331-2.786-.994-.634-.663-.952-1.591-.952-2.786 0-.588.084-1.115.252-1.582.178-.467.42-.859.728-1.176a3.024 3.024 0 0 1 1.092-.742 3.5 3.5 0 0 1 1.372-.266c.523 0 .99.089 1.4.266.411.177.747.439 1.008.784.271.345.453.775.546 1.288.103.504.103 1.092 0 1.764h-5.124c.047.784.28 1.372.7 1.764.42.383 1.046.574 1.876.574.56 0 1.041-.079 1.442-.238a5.015 5.015 0 0 0 1.008-.518v1.106Zm-2.884-5.698c-.532 0-.989.163-1.372.49-.382.327-.625.821-.728 1.484h3.906c.038-.672-.116-1.167-.462-1.484-.345-.327-.793-.49-1.344-.49Zm7.662 6.454c-.56 0-1.069-.084-1.526-.252a3.335 3.335 0 0 1-1.148-.742 3.277 3.277 0 0 1-.728-1.19c-.168-.467-.252-.999-.252-1.596 0-.588.084-1.115.252-1.582.177-.467.425-.859.742-1.176a3.065 3.065 0 0 1 1.162-.742 4.277 4.277 0 0 1 1.554-.266c.448 0 .859.051 1.232.154.373.093.681.233.924.42v1.106a3.263 3.263 0 0 0-1.008-.434 4.145 4.145 0 0 0-1.134-.154c-.849 0-1.475.219-1.876.658-.392.439-.588 1.111-.588 2.016s.191 1.577.574 2.016c.383.439.989.658 1.82.658.439 0 .84-.051 1.204-.154a4.969 4.969 0 0 0 1.008-.42v1.106a4.29 4.29 0 0 1-2.212.574Zm7.338-.294a2.252 2.252 0 0 1-.574.21 3.171 3.171 0 0 1-.742.084c-.355 0-.658-.051-.91-.154a1.76 1.76 0 0 1-.602-.406 1.72 1.72 0 0 1-.35-.588 2.452 2.452 0 0 1-.098-.686v-4.522h-.868v-1.05h.868v-1.526h1.232v1.526h2.114v1.05h-2.114v4.368c0 .308.075.532.224.672.159.14.434.21.826.21.364 0 .695-.103.994-.308v1.12Zm7.683.294c-.457 0-.868-.033-1.232-.098a5.95 5.95 0 0 1-.966-.224 5.05 5.05 0 0 1-.7-.322 2.788 2.788 0 0 1-.448-.35v-1.26c.14.121.322.247.546.378.224.121.481.233.77.336.299.103.616.187.952.252.346.065.705.098 1.078.098.728 0 1.307-.135 1.736-.406.43-.28.644-.7.644-1.26 0-.28-.051-.509-.154-.686a1.238 1.238 0 0 0-.448-.462 2.596 2.596 0 0 0-.742-.322c-.289-.093-.63-.191-1.022-.294a18.704 18.704 0 0 1-1.176-.35 4.344 4.344 0 0 1-1.064-.518 2.622 2.622 0 0 1-.756-.812c-.186-.327-.28-.742-.28-1.246 0-.868.304-1.545.91-2.03.607-.485 1.536-.728 2.786-.728.364 0 .686.023.966.07.29.037.542.089.756.154.224.056.416.121.574.196.168.075.318.145.448.21v1.26a3.93 3.93 0 0 0-1.274-.532 6.055 6.055 0 0 0-1.47-.168c-.448 0-.826.037-1.134.112a2.008 2.008 0 0 0-.728.294 1.166 1.166 0 0 0-.406.476 1.521 1.521 0 0 0-.126.63c0 .28.061.513.182.7.131.187.299.345.504.476.215.121.458.224.728.308.271.084.556.159.854.224.392.093.794.201 1.204.322.411.121.78.289 1.106.504.327.215.593.495.798.84.215.336.322.775.322 1.316 0 .532-.107.985-.322 1.358-.205.364-.48.663-.826.896a3.51 3.51 0 0 1-1.19.504 6.225 6.225 0 0 1-1.4.154Zm8.792-.294c-.15.084-.341.154-.574.21a3.177 3.177 0 0 1-.742.084c-.355 0-.658-.051-.91-.154a1.75 1.75 0 0 1-.602-.406 1.705 1.705 0 0 1-.35-.588 2.416 2.416 0 0 1-.098-.686v-4.522h-.868v-1.05h.868v-1.526h1.232v1.526h2.114v1.05h-2.114v4.368c0 .308.074.532.224.672.158.14.434.21.826.21.364 0 .695-.103.994-.308v1.12Zm4.553.294c-.495 0-.957-.084-1.386-.252a3.224 3.224 0 0 1-1.12-.728 3.542 3.542 0 0 1-.728-1.19c-.178-.467-.266-1.003-.266-1.61 0-.597.088-1.129.266-1.596.177-.476.42-.873.728-1.19.317-.317.69-.56 1.12-.728a3.767 3.767 0 0 1 1.386-.252c.504 0 .97.084 1.4.252.429.168.798.411 1.106.728.317.317.564.714.742 1.19.186.467.28.999.28 1.596 0 .607-.094 1.143-.28 1.61a3.448 3.448 0 0 1-.742 1.19c-.308.317-.677.56-1.106.728-.43.168-.896.252-1.4.252Zm0-1.106c.326 0 .625-.051.896-.154.28-.112.522-.275.728-.49.205-.224.364-.504.476-.84.112-.336.168-.733.168-1.19 0-.457-.056-.854-.168-1.19a2.17 2.17 0 0 0-.476-.826 1.838 1.838 0 0 0-.728-.49 2.325 2.325 0 0 0-.896-.168c-.327 0-.626.056-.896.168a1.849 1.849 0 0 0-.714.49c-.196.215-.35.49-.462.826a3.775 3.775 0 0 0-.168 1.19c0 .457.056.854.168 1.19.112.336.266.616.462.84.205.215.443.378.714.49.27.103.569.154.896.154Zm8.627-5.068a3.795 3.795 0 0 0-1.428.406c-.42.215-.732.551-.938 1.008v4.62h-1.232v-7.266h1.078l.126 1.582h.028c.206-.429.5-.803.882-1.12.392-.327.887-.527 1.484-.602v1.372Zm5.621 4.648a4.24 4.24 0 0 1-.322.532 2.444 2.444 0 0 1-1.19.854c-.261.093-.569.14-.924.14-.653 0-1.181-.182-1.582-.546-.401-.373-.602-.905-.602-1.596 0-.793.275-1.377.826-1.75.56-.373 1.353-.56 2.38-.56h1.358v-.602c0-.504-.131-.863-.392-1.078-.261-.215-.709-.322-1.344-.322a3.63 3.63 0 0 0-1.274.224c-.401.14-.761.303-1.078.49v-1.106a5.383 5.383 0 0 1 1.05-.462 4.367 4.367 0 0 1 1.47-.238c.915 0 1.61.191 2.086.574.476.373.714.957.714 1.75v4.2c.009.103.014.21.014.322l.028.322c.009.093.019.173.028.238h-1.12a6.439 6.439 0 0 1-.084-.546 8.21 8.21 0 0 1-.028-.63l-.014-.21Zm-2.17.42c.383 0 .709-.079.98-.238.271-.159.49-.341.658-.546.168-.215.289-.42.364-.616.075-.205.112-.35.112-.434v-.532h-1.232c-.737 0-1.274.107-1.61.322-.327.205-.49.518-.49.938 0 .327.098.593.294.798.196.205.504.308.924.308Zm11.527.35c0 .467-.07.891-.21 1.274a2.29 2.29 0 0 1-.644.994c-.289.271-.667.481-1.134.63-.457.149-1.012.224-1.666.224-.354 0-.667-.019-.938-.056a4.345 4.345 0 0 1-.714-.154 2.562 2.562 0 0 1-.504-.196 2.377 2.377 0 0 1-.35-.196v-1.106c.15.084.304.159.462.224a4.105 4.105 0 0 0 1.204.322c.252.037.537.056.854.056.896 0 1.522-.168 1.876-.504.355-.336.532-.835.532-1.498v-1.12a2.637 2.637 0 0 1-.91 1.036c-.382.261-.858.392-1.428.392a3.44 3.44 0 0 1-1.232-.224 3.058 3.058 0 0 1-1.022-.658 3.414 3.414 0 0 1-.7-1.106c-.168-.448-.252-.966-.252-1.554 0-.597.084-1.115.252-1.554.178-.448.411-.821.7-1.12a2.914 2.914 0 0 1 1.036-.672 3.48 3.48 0 0 1 1.246-.224c.579 0 1.064.131 1.456.392.402.261.714.616.938 1.064l.014-.154c0-.168.01-.369.028-.602.019-.243.038-.429.056-.56h1.12c-.018.131-.037.317-.056.56a16.97 16.97 0 0 0-.014.602v5.488Zm-3.346-.784c.308 0 .588-.047.84-.14.262-.103.486-.257.672-.462.196-.205.346-.457.448-.756a3.15 3.15 0 0 0 .168-1.078c0-.831-.205-1.451-.616-1.862-.401-.411-.91-.616-1.526-.616a2.42 2.42 0 0 0-.868.154c-.261.103-.49.257-.686.462a2.285 2.285 0 0 0-.448.784 3.15 3.15 0 0 0-.168 1.078c0 .411.056.77.168 1.078.112.299.266.551.462.756.196.196.425.345.686.448.271.103.56.154.868.154Zm11.128.784a3.685 3.685 0 0 1-.378.238 4.34 4.34 0 0 1-.546.252 4.576 4.576 0 0 1-.728.182c-.27.056-.574.084-.91.084-1.222 0-2.151-.331-2.786-.994-.634-.663-.952-1.591-.952-2.786 0-.588.084-1.115.252-1.582.178-.467.42-.859.728-1.176a3.024 3.024 0 0 1 1.092-.742 3.5 3.5 0 0 1 1.372-.266c.523 0 .99.089 1.4.266.411.177.747.439 1.008.784.271.345.453.775.546 1.288.103.504.103 1.092 0 1.764h-5.124c.047.784.28 1.372.7 1.764.42.383 1.046.574 1.876.574.56 0 1.041-.079 1.442-.238a5.015 5.015 0 0 0 1.008-.518v1.106Zm-2.884-5.698c-.532 0-.989.163-1.372.49-.382.327-.625.821-.728 1.484h3.906c.038-.672-.116-1.167-.462-1.484-.345-.327-.793-.49-1.344-.49Z"/>
        <rect width="113" height="42" x="559" y="146" fill="#fff" stroke="#67B0F8" stroke-width="2" rx="4"/>
        <path fill="#18123D" d="M606.732 167.535v4.354h-1.344v-4.312l-3.43-5.726h1.512l2.632 4.564 2.688-4.564h1.344l-3.402 5.684Zm4.858-5.684h3.374c.672 0 1.297.079 1.876.238.579.159 1.083.42 1.512.784.429.364.765.845 1.008 1.442s.364 1.335.364 2.212c0 .887-.126 1.666-.378 2.338-.243.663-.583 1.218-1.022 1.666a4.208 4.208 0 0 1-1.554 1.022 5.54 5.54 0 0 1-1.96.336h-3.22v-10.038Zm1.316 1.204v7.644h1.904c.513 0 .985-.079 1.414-.238a2.864 2.864 0 0 0 1.106-.728c.308-.336.546-.761.714-1.274.168-.513.252-1.125.252-1.834 0-.7-.084-1.279-.252-1.736-.168-.467-.401-.835-.7-1.106a2.333 2.333 0 0 0-1.05-.56 5.041 5.041 0 0 0-1.33-.168h-2.058Zm8.569-1.204h3.402c1.101 0 1.936.187 2.506.56.578.373.868 1.003.868 1.89 0 .364-.052.681-.154.952-.094.261-.229.49-.406.686a1.995 1.995 0 0 1-.63.462 3.48 3.48 0 0 1-.812.28c.784.093 1.372.322 1.764.686.401.355.602.896.602 1.624 0 .523-.098.971-.294 1.344a2.419 2.419 0 0 1-.784.896 3.726 3.726 0 0 1-1.19.504 6.825 6.825 0 0 1-1.498.154h-3.374v-10.038Zm1.316 1.204v3.08h1.988c.317 0 .606-.033.868-.098.261-.075.485-.182.672-.322a1.55 1.55 0 0 0 .434-.546c.112-.224.168-.49.168-.798 0-.513-.178-.859-.532-1.036-.355-.187-.859-.28-1.512-.28h-2.086Zm0 4.27v3.374h2.058c.354 0 .676-.028.966-.084.289-.056.536-.149.742-.28a1.31 1.31 0 0 0 .49-.518c.121-.215.182-.481.182-.798 0-.635-.206-1.073-.616-1.316-.402-.252-1.041-.378-1.918-.378h-1.904Z"/>
        <rect width="113" height="91" x="401" y="11" fill="#fff" stroke="#67B0F8" stroke-width="2" rx="4"/>
        <path fill="#18123D" d="M444.552 53.473c-.746 0-1.423-.116-2.03-.35a4.454 4.454 0 0 1-1.568-1.008 4.63 4.63 0 0 1-.994-1.624c-.233-.644-.35-1.367-.35-2.17 0-.812.108-1.535.322-2.17a4.27 4.27 0 0 1 .952-1.61c.42-.448.934-.788 1.54-1.022.616-.233 1.316-.35 2.1-.35.682 0 1.279.075 1.792.224.514.14.934.308 1.26.504v1.26a4.638 4.638 0 0 0-1.456-.602 6.839 6.839 0 0 0-1.61-.196c-1.185 0-2.062.332-2.632.994-.56.654-.84 1.643-.84 2.968 0 1.335.304 2.329.91 2.982.616.654 1.522.98 2.716.98.514 0 1.013-.07 1.498-.21.495-.14.966-.378 1.414-.714v1.26c-.27.215-.667.411-1.19.588-.513.178-1.124.266-1.834.266Zm6.103-10.178v10.038h-1.232V43.295h1.232Zm4.99 10.178c-.494 0-.956-.084-1.386-.252a3.238 3.238 0 0 1-1.12-.728 3.56 3.56 0 0 1-.728-1.19c-.177-.466-.266-1.003-.266-1.61 0-.597.089-1.129.266-1.596a3.38 3.38 0 0 1 .728-1.19c.318-.317.691-.56 1.12-.728.43-.168.892-.252 1.386-.252.504 0 .971.084 1.4.252.43.168.798.411 1.106.728.318.318.565.714.742 1.19.187.467.28.999.28 1.596 0 .607-.093 1.144-.28 1.61a3.42 3.42 0 0 1-.742 1.19c-.308.318-.676.56-1.106.728a3.807 3.807 0 0 1-1.4.252Zm0-1.106c.327 0 .626-.051.896-.154a2.04 2.04 0 0 0 .728-.49 2.29 2.29 0 0 0 .476-.84 3.77 3.77 0 0 0 .168-1.19c0-.457-.056-.854-.168-1.19a2.155 2.155 0 0 0-.476-.826 1.827 1.827 0 0 0-.728-.49 2.318 2.318 0 0 0-.896-.168c-.326 0-.625.056-.896.168-.27.103-.508.266-.714.49-.196.215-.35.49-.462.826a3.773 3.773 0 0 0-.168 1.19c0 .458.056.854.168 1.19.112.336.266.616.462.84.206.215.444.378.714.49.271.103.57.154.896.154Zm9.692-.336a2.6 2.6 0 0 1-.91 1.036c-.401.271-.929.406-1.582.406-.672 0-1.218-.186-1.638-.56-.411-.382-.616-.97-.616-1.764v-5.082h1.246v5.082c0 .243.033.444.098.602a1.032 1.032 0 0 0 .714.56c.168.038.35.056.546.056.541 0 .975-.121 1.302-.364a3.06 3.06 0 0 0 .84-.994v-4.942h1.232v7.266h-1.092l-.112-1.302h-.028Zm8.462-.126a2.918 2.918 0 0 1-.938 1.148c-.401.28-.91.42-1.526.42a3.47 3.47 0 0 1-1.246-.224 2.997 2.997 0 0 1-1.036-.7 3.502 3.502 0 0 1-.714-1.176c-.177-.476-.266-1.036-.266-1.68 0-.634.089-1.185.266-1.652.177-.476.415-.868.714-1.176.299-.317.644-.55 1.036-.7a3.393 3.393 0 0 1 1.26-.238c.551 0 1.027.117 1.428.35.401.224.723.546.966.966v-3.948h1.232v10.038h-1.078l-.098-1.428Zm-2.282.462c.317 0 .611-.051.882-.154.271-.112.504-.28.7-.504.205-.224.364-.504.476-.84.121-.336.182-.728.182-1.176 0-.448-.061-.84-.182-1.176a2.305 2.305 0 0 0-.476-.84 1.735 1.735 0 0 0-.7-.49 2.287 2.287 0 0 0-.882-.168c-.644 0-1.171.229-1.582.686-.401.448-.602 1.111-.602 1.988 0 .887.205 1.554.616 2.002.411.448.933.672 1.568.672Zm-43.794 6.928h6.132V60.5h-4.816v3.332h4.088v1.19h-4.088v4.312h-1.316V59.295Zm12.246 8.736c-.196.411-.5.756-.91 1.036-.402.271-.929.406-1.582.406-.672 0-1.218-.186-1.638-.56-.411-.382-.616-.97-.616-1.764v-5.082h1.246v5.082c0 .243.032.444.098.602.074.15.172.271.294.364.121.094.261.159.42.196.168.038.35.056.546.056.541 0 .975-.121 1.302-.364.326-.242.606-.574.84-.994v-4.942h1.232v7.266h-1.092l-.112-1.302h-.028Zm6.698-5.012c-.56 0-1.018.131-1.372.392a2.849 2.849 0 0 0-.84.98v4.942h-1.232v-7.266h1.162l.042 1.302h.028a2.46 2.46 0 0 1 .924-1.036c.42-.27.952-.406 1.596-.406.718 0 1.288.192 1.708.574.429.374.644.952.644 1.736v5.096h-1.232v-4.97c0-.504-.126-.854-.378-1.05-.252-.196-.602-.294-1.05-.294Zm7.745 6.454c-.56 0-1.069-.084-1.526-.252a3.337 3.337 0 0 1-1.148-.742 3.264 3.264 0 0 1-.728-1.19c-.168-.466-.252-.998-.252-1.596 0-.588.084-1.115.252-1.582.177-.466.424-.858.742-1.176a3.06 3.06 0 0 1 1.162-.742 4.268 4.268 0 0 1 1.554-.266c.448 0 .858.052 1.232.154.373.094.681.234.924.42v1.106a3.27 3.27 0 0 0-1.008-.434 4.156 4.156 0 0 0-1.134-.154c-.85 0-1.475.22-1.876.658-.392.439-.588 1.111-.588 2.016 0 .906.191 1.578.574 2.016.382.439.989.658 1.82.658.438 0 .84-.051 1.204-.154a4.969 4.969 0 0 0 1.008-.42V68.9a4.29 4.29 0 0 1-2.212.574Zm7.337-.294c-.149.084-.34.154-.574.21-.233.056-.48.084-.742.084-.354 0-.658-.051-.91-.154a1.765 1.765 0 0 1-.602-.406 1.744 1.744 0 0 1-.35-.588 2.45 2.45 0 0 1-.098-.686v-4.522h-.868v-1.05h.868v-1.526h1.232v1.526h2.114v1.05h-2.114v4.368c0 .308.075.532.224.672.159.14.434.21.826.21.364 0 .696-.102.994-.308v1.12Zm2.27-8.176c-.252 0-.453-.074-.602-.224a.805.805 0 0 1-.224-.574c0-.224.074-.415.224-.574.149-.158.35-.238.602-.238.242 0 .434.08.574.238.14.159.21.35.21.574 0 .224-.07.416-.21.574-.14.15-.332.224-.574.224Zm.602 1.064v7.266h-1.232v-7.266h1.232Zm4.99 7.406c-.495 0-.957-.084-1.386-.252a3.229 3.229 0 0 1-1.12-.728 3.543 3.543 0 0 1-.728-1.19c-.177-.466-.266-1.003-.266-1.61 0-.597.089-1.129.266-1.596.177-.476.42-.872.728-1.19.317-.317.691-.56 1.12-.728a3.767 3.767 0 0 1 1.386-.252c.504 0 .971.084 1.4.252.429.168.798.411 1.106.728.317.318.565.714.742 1.19.187.467.28.999.28 1.596 0 .607-.093 1.144-.28 1.61a3.434 3.434 0 0 1-.742 1.19c-.308.318-.677.56-1.106.728a3.807 3.807 0 0 1-1.4.252Zm0-1.106a2.5 2.5 0 0 0 .896-.154 2.04 2.04 0 0 0 .728-.49c.205-.224.364-.504.476-.84a3.77 3.77 0 0 0 .168-1.19c0-.457-.056-.854-.168-1.19a2.168 2.168 0 0 0-.476-.826 1.827 1.827 0 0 0-.728-.49 2.322 2.322 0 0 0-.896-.168c-.327 0-.625.056-.896.168a1.844 1.844 0 0 0-.714.49c-.196.215-.35.49-.462.826a3.773 3.773 0 0 0-.168 1.19c0 .458.056.854.168 1.19.112.336.266.616.462.84.205.215.443.378.714.49a2.5 2.5 0 0 0 .896.154Zm8.474-5.348c-.56 0-1.018.131-1.372.392a2.849 2.849 0 0 0-.84.98v4.942h-1.232v-7.266h1.162l.042 1.302h.028a2.46 2.46 0 0 1 .924-1.036c.42-.27.952-.406 1.596-.406.718 0 1.288.192 1.708.574.429.374.644.952.644 1.736v5.096h-1.232v-4.97c0-.504-.126-.854-.378-1.05-.252-.196-.602-.294-1.05-.294Zm6.932 6.454c-.382 0-.723-.032-1.022-.098a4.808 4.808 0 0 1-.77-.21 4.295 4.295 0 0 1-.546-.28 3.75 3.75 0 0 1-.35-.266v-1.106c.094.094.22.196.378.308.159.103.35.201.574.294.224.094.476.173.756.238.29.056.612.084.966.084.523 0 .938-.084 1.246-.252.308-.168.462-.452.462-.854 0-.214-.051-.387-.154-.518a.932.932 0 0 0-.392-.308 2.412 2.412 0 0 0-.588-.196 27.685 27.685 0 0 0-.686-.14 26.46 26.46 0 0 1-.91-.21 3.202 3.202 0 0 1-.812-.35 1.92 1.92 0 0 1-.588-.602c-.149-.252-.224-.578-.224-.98 0-.653.252-1.166.756-1.54.514-.373 1.228-.56 2.142-.56.514 0 .966.052 1.358.154.402.103.71.215.924.336v1.106a3.283 3.283 0 0 0-.91-.392c-.354-.112-.798-.168-1.33-.168-.55 0-.975.075-1.274.224-.289.15-.434.42-.434.812a.82.82 0 0 0 .126.476 1 1 0 0 0 .336.28c.15.066.318.117.504.154.187.038.383.08.588.126.318.066.644.136.98.21.336.075.635.192.896.35.271.159.49.374.658.644.178.262.266.616.266 1.064 0 .42-.084.77-.252 1.05a1.93 1.93 0 0 1-.672.672 2.86 2.86 0 0 1-.938.336c-.345.075-.7.112-1.064.112Z"/>
        <rect width="113" height="91" x="401" y="244" fill="#fff" stroke="#67B0F8" stroke-width="2" rx="4"/>
        <path fill="#18123D" d="M416.696 284.295h7.546v10.038h-1.33v-8.834h-4.9v8.834h-1.316v-10.038Zm13.371 10.178c-.56 0-1.045-.13-1.456-.392a2.849 2.849 0 0 1-.966-1.078v3.808h-1.232v-9.744h1.078l.126 1.414c.243-.476.57-.854.98-1.134.411-.28.92-.42 1.526-.42.42 0 .822.08 1.204.238.392.15.733.383 1.022.7.299.308.532.7.7 1.176.178.467.266 1.018.266 1.652 0 .644-.088 1.204-.266 1.68a3.494 3.494 0 0 1-.714 1.176 2.979 2.979 0 0 1-1.036.7c-.392.15-.802.224-1.232.224Zm-.182-1.106c.644 0 1.162-.219 1.554-.658.402-.448.602-1.12.602-2.016 0-.877-.2-1.54-.602-1.988-.392-.457-.91-.686-1.554-.686-.317 0-.616.056-.896.168-.27.112-.508.28-.714.504a2.45 2.45 0 0 0-.476.826 3.723 3.723 0 0 0-.168 1.176c0 .448.056.84.168 1.176.122.336.28.616.476.84.206.224.444.392.714.504.28.103.579.154.896.154Zm6.155-.714 3.878-5.586h1.246v7.266h-1.232v-5.572l-3.864 5.572h-1.26v-7.266h1.232v5.586Zm7.695-.574c.131-.476.215-1.12.252-1.932.037-.812.056-1.838.056-3.08h4.886v7.266h-1.246v-6.216h-2.478a42.586 42.586 0 0 1-.098 2.66c-.047.775-.154 1.428-.322 1.96-.159.532-.397.938-.714 1.218-.308.271-.723.406-1.246.406h-.112a.605.605 0 0 1-.126-.014v-1.218c.047.01.107.014.182.014.476 0 .798-.354.966-1.064Zm10.174 2.394c-.495 0-.957-.084-1.386-.252a3.219 3.219 0 0 1-1.12-.728 3.532 3.532 0 0 1-.728-1.19c-.177-.466-.266-1.003-.266-1.61 0-.597.089-1.129.266-1.596.177-.476.42-.872.728-1.19.317-.317.691-.56 1.12-.728a3.767 3.767 0 0 1 1.386-.252c.504 0 .971.084 1.4.252.429.168.798.411 1.106.728.317.318.565.714.742 1.19.187.467.28.999.28 1.596 0 .607-.093 1.144-.28 1.61a3.424 3.424 0 0 1-.742 1.19c-.308.318-.677.56-1.106.728a3.807 3.807 0 0 1-1.4.252Zm0-1.106a2.5 2.5 0 0 0 .896-.154 2.04 2.04 0 0 0 .728-.49c.205-.224.364-.504.476-.84a3.77 3.77 0 0 0 .168-1.19c0-.457-.056-.854-.168-1.19a2.17 2.17 0 0 0-.476-.826 1.831 1.831 0 0 0-.728-.49 2.322 2.322 0 0 0-.896-.168c-.327 0-.625.056-.896.168a1.849 1.849 0 0 0-.714.49c-.196.215-.35.49-.462.826a3.775 3.775 0 0 0-.168 1.19c0 .458.056.854.168 1.19.112.336.266.616.462.84.205.215.443.378.714.49a2.5 2.5 0 0 0 .896.154Zm9.698-6.3v3.122h.658l2.31-3.122h1.358l-2.702 3.556 2.8 3.71h-1.498l-2.324-3.094h-.602v3.094h-1.232v-3.094h-.616l-2.352 3.094h-1.456l2.8-3.668-2.702-3.598h1.414l2.268 3.122h.644v-3.122h1.232Zm11.231 6.65a3.919 3.919 0 0 1-.378.238c-.15.084-.332.168-.546.252a4.524 4.524 0 0 1-.728.182 4.51 4.51 0 0 1-.91.084c-1.223 0-2.152-.331-2.786-.994-.635-.662-.952-1.591-.952-2.786 0-.588.084-1.115.252-1.582.177-.466.42-.858.728-1.176a3.037 3.037 0 0 1 1.092-.742c.42-.177.877-.266 1.372-.266.522 0 .989.089 1.4.266.41.178.746.439 1.008.784.27.346.452.775.546 1.288.102.504.102 1.092 0 1.764h-5.124c.046.784.28 1.372.7 1.764.42.383 1.045.574 1.876.574.56 0 1.04-.079 1.442-.238a5.017 5.017 0 0 0 1.008-.518v1.106Zm-2.884-5.698c-.532 0-.99.164-1.372.49-.383.327-.626.822-.728 1.484h3.906c.037-.672-.117-1.166-.462-1.484-.346-.326-.794-.49-1.344-.49Zm9.381 3.094h-3.514v3.22h-1.232v-7.266h1.232v2.996h3.514v-2.996h1.232v7.266h-1.232v-3.22Zm4.484 1.54 3.878-5.586h1.246v7.266h-1.232v-5.572l-3.864 5.572h-1.26v-7.266h1.232v5.586Zm12.917 1.064a3.685 3.685 0 0 1-.378.238 4.34 4.34 0 0 1-.546.252 4.471 4.471 0 0 1-.728.182c-.27.056-.574.084-.91.084-1.222 0-2.151-.331-2.786-.994-.634-.662-.952-1.591-.952-2.786 0-.588.084-1.115.252-1.582.178-.466.42-.858.728-1.176a3.037 3.037 0 0 1 1.092-.742 3.5 3.5 0 0 1 1.372-.266c.523 0 .99.089 1.4.266a2.47 2.47 0 0 1 1.008.784c.271.346.453.775.546 1.288.103.504.103 1.092 0 1.764h-5.124c.047.784.28 1.372.7 1.764.42.383 1.046.574 1.876.574.56 0 1.041-.079 1.442-.238a4.964 4.964 0 0 0 1.008-.518v1.106Zm-2.884-5.698c-.532 0-.989.164-1.372.49-.382.327-.625.822-.728 1.484h3.906c.038-.672-.116-1.166-.462-1.484-.345-.326-.793-.49-1.344-.49Z"/>
        <rect width="113" height="91" x="401" y="127" fill="#fff" stroke="#67B0F8" stroke-width="2" rx="4"/>
        <path fill="#18123D" d="M423.015 164.979v4.354h-1.344v-4.312l-3.43-5.726h1.512l2.632 4.564 2.688-4.564h1.344l-3.402 5.684Zm8.181 2.968a4.288 4.288 0 0 1-.322.532 2.419 2.419 0 0 1-1.19.854c-.262.094-.57.14-.924.14-.654 0-1.181-.182-1.582-.546-.402-.373-.602-.905-.602-1.596 0-.793.275-1.376.826-1.75.56-.373 1.353-.56 2.38-.56h1.358v-.602c0-.504-.131-.863-.392-1.078-.262-.214-.71-.322-1.344-.322a3.63 3.63 0 0 0-1.274.224c-.402.14-.761.304-1.078.49v-1.106a5.506 5.506 0 0 1 1.05-.462 4.392 4.392 0 0 1 1.47-.238c.914 0 1.61.192 2.086.574.476.374.714.957.714 1.75v4.2c.009.103.014.21.014.322.009.112.018.22.028.322.009.094.018.173.028.238h-1.12a6.31 6.31 0 0 1-.084-.546 8.168 8.168 0 0 1-.028-.63l-.014-.21Zm-2.17.42c.382 0 .709-.079.98-.238.27-.158.49-.34.658-.546a2.41 2.41 0 0 0 .364-.616c.074-.205.112-.35.112-.434v-.532h-1.232c-.738 0-1.274.108-1.61.322-.327.206-.49.518-.49.938 0 .327.098.593.294.798.196.206.504.308.924.308Zm8.727-5.348c-.56 0-1.018.131-1.372.392a2.853 2.853 0 0 0-.84.98v4.942h-1.232v-7.266h1.162l.042 1.302h.028a2.46 2.46 0 0 1 .924-1.036c.42-.27.952-.406 1.596-.406.718 0 1.288.192 1.708.574.429.374.644.952.644 1.736v5.096h-1.232v-4.97c0-.504-.126-.854-.378-1.05-.252-.196-.602-.294-1.05-.294Zm9.816 4.886a2.907 2.907 0 0 1-.938 1.148c-.401.28-.91.42-1.526.42-.438 0-.854-.074-1.246-.224a2.988 2.988 0 0 1-1.036-.7 3.526 3.526 0 0 1-.714-1.176c-.177-.476-.266-1.036-.266-1.68 0-.634.089-1.185.266-1.652.178-.476.416-.868.714-1.176.299-.317.644-.55 1.036-.7a3.415 3.415 0 0 1 1.26-.238c.551 0 1.027.117 1.428.35.402.224.724.546.966.966v-3.948h1.232v10.038h-1.078l-.098-1.428Zm-2.282.462c.318 0 .612-.051.882-.154.271-.112.504-.28.7-.504a2.29 2.29 0 0 0 .476-.84c.122-.336.182-.728.182-1.176 0-.448-.06-.84-.182-1.176a2.29 2.29 0 0 0-.476-.84 1.739 1.739 0 0 0-.7-.49 2.28 2.28 0 0 0-.882-.168c-.644 0-1.171.229-1.582.686-.401.448-.602 1.111-.602 1.988 0 .887.206 1.554.616 2.002.411.448.934.672 1.568.672Zm11.251.35a3.919 3.919 0 0 1-.378.238 4.34 4.34 0 0 1-.546.252 4.497 4.497 0 0 1-.728.182 4.51 4.51 0 0 1-.91.084c-1.223 0-2.151-.331-2.786-.994-.635-.662-.952-1.591-.952-2.786 0-.588.084-1.115.252-1.582.177-.466.42-.858.728-1.176a3.037 3.037 0 0 1 1.092-.742c.42-.177.877-.266 1.372-.266.523 0 .989.089 1.4.266a2.47 2.47 0 0 1 1.008.784c.271.346.453.775.546 1.288.103.504.103 1.092 0 1.764h-5.124c.047.784.28 1.372.7 1.764.42.383 1.045.574 1.876.574.56 0 1.041-.079 1.442-.238a5.017 5.017 0 0 0 1.008-.518v1.106Zm-2.884-5.698c-.532 0-.989.164-1.372.49-.383.327-.625.822-.728 1.484h3.906c.037-.672-.117-1.166-.462-1.484-.345-.326-.793-.49-1.344-.49Zm6.907 3.43-1.96 2.884h-1.288l2.632-3.766-2.324-3.5h1.428l1.736 2.562 1.75-2.562h1.274l-2.408 3.472 2.534 3.794h-1.428l-1.946-2.884Zm7.836-7.154h3.374c.672 0 1.297.08 1.876.238.578.159 1.082.42 1.512.784.429.364.765.845 1.008 1.442.242.598.364 1.335.364 2.212 0 .887-.126 1.666-.378 2.338-.243.663-.584 1.218-1.022 1.666-.43.448-.948.789-1.554 1.022a5.544 5.544 0 0 1-1.96.336h-3.22v-10.038Zm1.316 1.204v7.644h1.904c.513 0 .984-.079 1.414-.238a2.853 2.853 0 0 0 1.106-.728c.308-.336.546-.76.714-1.274.168-.513.252-1.124.252-1.834 0-.7-.084-1.278-.252-1.736-.168-.466-.402-.835-.7-1.106-.29-.27-.64-.457-1.05-.56a5.041 5.041 0 0 0-1.33-.168h-2.058Zm12.656 7.448a4.17 4.17 0 0 1-.322.532 2.449 2.449 0 0 1-1.19.854 2.73 2.73 0 0 1-.924.14c-.653 0-1.18-.182-1.582-.546-.401-.373-.602-.905-.602-1.596 0-.793.276-1.376.826-1.75.56-.373 1.354-.56 2.38-.56h1.358v-.602c0-.504-.13-.863-.392-1.078-.261-.214-.709-.322-1.344-.322-.448 0-.872.075-1.274.224-.401.14-.76.304-1.078.49v-1.106a5.564 5.564 0 0 1 1.05-.462 4.392 4.392 0 0 1 1.47-.238c.915 0 1.61.192 2.086.574.476.374.714.957.714 1.75v4.2c.01.103.014.21.014.322l.028.322c.01.094.019.173.028.238h-1.12a6.31 6.31 0 0 1-.084-.546 8.706 8.706 0 0 1-.028-.63l-.014-.21Zm-2.17.42c.383 0 .71-.079.98-.238.271-.158.49-.34.658-.546.168-.214.29-.42.364-.616.075-.205.112-.35.112-.434v-.532h-1.232c-.737 0-1.274.108-1.61.322-.326.206-.49.518-.49.938 0 .327.098.593.294.798.196.206.504.308.924.308Zm8.84.812c-.15.084-.341.154-.574.21a3.177 3.177 0 0 1-.742.084c-.355 0-.658-.051-.91-.154a1.736 1.736 0 0 1-.602-.406 1.705 1.705 0 0 1-.35-.588 2.41 2.41 0 0 1-.098-.686v-4.522h-.868v-1.05h.868v-1.526h1.232v1.526h2.114v1.05h-2.114v4.368c0 .308.074.532.224.672.158.14.434.21.826.21.364 0 .695-.102.994-.308v1.12Zm5.895-1.232a4.17 4.17 0 0 1-.322.532 2.419 2.419 0 0 1-1.19.854 2.73 2.73 0 0 1-.924.14c-.653 0-1.181-.182-1.582-.546-.401-.373-.602-.905-.602-1.596 0-.793.275-1.376.826-1.75.56-.373 1.353-.56 2.38-.56h1.358v-.602c0-.504-.131-.863-.392-1.078-.261-.214-.709-.322-1.344-.322a3.63 3.63 0 0 0-1.274.224c-.401.14-.761.304-1.078.49v-1.106a5.506 5.506 0 0 1 1.05-.462 4.392 4.392 0 0 1 1.47-.238c.915 0 1.61.192 2.086.574.476.374.714.957.714 1.75v4.2c.009.103.014.21.014.322l.028.322c.009.094.019.173.028.238h-1.12a6.31 6.31 0 0 1-.084-.546 8.168 8.168 0 0 1-.028-.63l-.014-.21Zm-2.17.42c.383 0 .709-.079.98-.238.271-.158.49-.34.658-.546a2.41 2.41 0 0 0 .364-.616c.075-.205.112-.35.112-.434v-.532h-1.232c-.737 0-1.274.108-1.61.322-.327.206-.49.518-.49.938 0 .327.098.593.294.798.196.206.504.308.924.308Zm-56.499 8.146v8.82h-1.33v-8.82h-3.094v-1.218h7.518v1.218h-3.094Zm7.309 2.786a3.784 3.784 0 0 0-1.428.406c-.42.215-.733.551-.938 1.008v4.62h-1.232v-7.266h1.078l.126 1.582h.028c.205-.429.499-.802.882-1.12.392-.326.886-.527 1.484-.602v1.372Zm5.621 4.648a4.288 4.288 0 0 1-.322.532 2.419 2.419 0 0 1-1.19.854c-.262.094-.57.14-.924.14-.654 0-1.181-.182-1.582-.546-.402-.373-.602-.905-.602-1.596 0-.793.275-1.376.826-1.75.56-.373 1.353-.56 2.38-.56h1.358v-.602c0-.504-.131-.863-.392-1.078-.262-.214-.71-.322-1.344-.322a3.63 3.63 0 0 0-1.274.224c-.402.14-.761.304-1.078.49v-1.106a5.506 5.506 0 0 1 1.05-.462 4.392 4.392 0 0 1 1.47-.238c.914 0 1.61.192 2.086.574.476.374.714.957.714 1.75v4.2c.009.103.014.21.014.322.009.112.018.22.028.322.009.094.018.173.028.238h-1.12a6.31 6.31 0 0 1-.084-.546 8.168 8.168 0 0 1-.028-.63l-.014-.21Zm-2.17.42c.382 0 .709-.079.98-.238.27-.158.49-.34.658-.546a2.41 2.41 0 0 0 .364-.616c.074-.205.112-.35.112-.434v-.532h-1.232c-.738 0-1.274.108-1.61.322-.327.206-.49.518-.49.938 0 .327.098.593.294.798.196.206.504.308.924.308Zm8.727-5.348c-.56 0-1.018.131-1.372.392a2.853 2.853 0 0 0-.84.98v4.942h-1.232v-7.266h1.162l.042 1.302h.028a2.46 2.46 0 0 1 .924-1.036c.42-.27.952-.406 1.596-.406.718 0 1.288.192 1.708.574.429.374.644.952.644 1.736v5.096h-1.232v-4.97c0-.504-.126-.854-.378-1.05-.252-.196-.602-.294-1.05-.294Zm6.932 6.454c-.382 0-.723-.032-1.022-.098a4.808 4.808 0 0 1-.77-.21 4.156 4.156 0 0 1-.546-.28 3.567 3.567 0 0 1-.35-.266v-1.106c.094.094.22.196.378.308.159.103.35.201.574.294.224.094.476.173.756.238.29.056.612.084.966.084.523 0 .938-.084 1.246-.252.308-.168.462-.452.462-.854 0-.214-.051-.387-.154-.518a.94.94 0 0 0-.392-.308 2.429 2.429 0 0 0-.588-.196 33.876 33.876 0 0 0-.686-.14 24.708 24.708 0 0 1-.91-.21 3.178 3.178 0 0 1-.812-.35 1.909 1.909 0 0 1-.588-.602c-.149-.252-.224-.578-.224-.98 0-.653.252-1.166.756-1.54.514-.373 1.228-.56 2.142-.56.514 0 .966.052 1.358.154.402.103.71.215.924.336v1.106a3.316 3.316 0 0 0-.91-.392c-.354-.112-.798-.168-1.33-.168-.55 0-.975.075-1.274.224-.289.15-.434.42-.434.812a.82.82 0 0 0 .126.476.992.992 0 0 0 .336.28c.15.066.318.117.504.154.187.038.383.08.588.126.318.066.644.136.98.21.336.075.635.192.896.35.271.159.49.374.658.644.178.262.266.616.266 1.064 0 .42-.084.77-.252 1.05a1.93 1.93 0 0 1-.672.672c-.27.159-.583.271-.938.336-.345.075-.7.112-1.064.112Zm6.11-6.356v6.216h-1.232v-6.216h-.882v-1.05h.882v-.182c0-.858.229-1.526.686-2.002.457-.476 1.083-.714 1.876-.714.345 0 .653.042.924.126v1.12a1.653 1.653 0 0 0-.364-.098 2.904 2.904 0 0 0-.504-.042c-.429 0-.77.131-1.022.392-.243.262-.364.668-.364 1.218v.182h2.1v1.05h-2.1Zm9.052 5.6a3.919 3.919 0 0 1-.378.238c-.15.084-.332.168-.546.252a4.524 4.524 0 0 1-.728.182 4.51 4.51 0 0 1-.91.084c-1.223 0-2.152-.331-2.786-.994-.635-.662-.952-1.591-.952-2.786 0-.588.084-1.115.252-1.582.177-.466.42-.858.728-1.176a3.037 3.037 0 0 1 1.092-.742c.42-.177.877-.266 1.372-.266.522 0 .989.089 1.4.266.41.178.746.439 1.008.784.27.346.452.775.546 1.288.102.504.102 1.092 0 1.764h-5.124c.046.784.28 1.372.7 1.764.42.383 1.045.574 1.876.574.56 0 1.04-.079 1.442-.238a5.017 5.017 0 0 0 1.008-.518v1.106Zm-2.884-5.698c-.532 0-.99.164-1.372.49-.383.327-.626.822-.728 1.484h3.906c.037-.672-.117-1.166-.462-1.484-.346-.326-.794-.49-1.344-.49Zm8.123.28a3.795 3.795 0 0 0-1.428.406c-.42.215-.732.551-.938 1.008v4.62h-1.232v-7.266h1.078l.126 1.582h.028c.206-.429.5-.802.882-1.12.392-.326.887-.527 1.484-.602v1.372Z"/>
        <rect width="113" height="324" x="263" y="11" fill="#fff" stroke="#67B0F8" stroke-width="2" rx="4"/>
        <path fill="#18123D" d="M285.015 164.868v4.354h-1.344v-4.312l-3.43-5.726h1.512l2.632 4.564 2.688-4.564h1.344l-3.402 5.684Zm8.181 2.968a4.288 4.288 0 0 1-.322.532 2.419 2.419 0 0 1-1.19.854c-.262.094-.57.14-.924.14-.654 0-1.181-.182-1.582-.546-.402-.373-.602-.905-.602-1.596 0-.793.275-1.376.826-1.75.56-.373 1.353-.56 2.38-.56h1.358v-.602c0-.504-.131-.863-.392-1.078-.262-.214-.71-.322-1.344-.322a3.63 3.63 0 0 0-1.274.224c-.402.14-.761.304-1.078.49v-1.106a5.506 5.506 0 0 1 1.05-.462 4.392 4.392 0 0 1 1.47-.238c.914 0 1.61.192 2.086.574.476.374.714.957.714 1.75v4.2c.009.103.014.21.014.322.009.112.018.22.028.322.009.094.018.173.028.238h-1.12a6.31 6.31 0 0 1-.084-.546 8.168 8.168 0 0 1-.028-.63l-.014-.21Zm-2.17.42c.382 0 .709-.079.98-.238.27-.158.49-.34.658-.546a2.41 2.41 0 0 0 .364-.616c.074-.205.112-.35.112-.434v-.532h-1.232c-.738 0-1.274.108-1.61.322-.327.206-.49.518-.49.938 0 .327.098.593.294.798.196.206.504.308.924.308Zm8.727-5.348c-.56 0-1.018.131-1.372.392a2.853 2.853 0 0 0-.84.98v4.942h-1.232v-7.266h1.162l.042 1.302h.028a2.46 2.46 0 0 1 .924-1.036c.42-.27.952-.406 1.596-.406.718 0 1.288.192 1.708.574.429.374.644.952.644 1.736v5.096h-1.232v-4.97c0-.504-.126-.854-.378-1.05-.252-.196-.602-.294-1.05-.294Zm9.817 4.886a2.916 2.916 0 0 1-.938 1.148c-.402.28-.91.42-1.526.42-.439 0-.854-.074-1.246-.224a2.979 2.979 0 0 1-1.036-.7 3.494 3.494 0 0 1-.714-1.176c-.178-.476-.266-1.036-.266-1.68 0-.634.088-1.185.266-1.652.177-.476.415-.868.714-1.176.298-.317.644-.55 1.036-.7a3.407 3.407 0 0 1 1.26-.238c.55 0 1.026.117 1.428.35.401.224.723.546.966.966v-3.948h1.232v10.038h-1.078l-.098-1.428Zm-2.282.462c.317 0 .611-.051.882-.154.27-.112.504-.28.7-.504.205-.224.364-.504.476-.84.121-.336.182-.728.182-1.176 0-.448-.061-.84-.182-1.176a2.305 2.305 0 0 0-.476-.84 1.746 1.746 0 0 0-.7-.49 2.287 2.287 0 0 0-.882-.168c-.644 0-1.172.229-1.582.686-.402.448-.602 1.111-.602 1.988 0 .887.205 1.554.616 2.002.41.448.933.672 1.568.672Zm11.25.35a3.919 3.919 0 0 1-.378.238 4.34 4.34 0 0 1-.546.252 4.497 4.497 0 0 1-.728.182 4.51 4.51 0 0 1-.91.084c-1.223 0-2.151-.331-2.786-.994-.635-.662-.952-1.591-.952-2.786 0-.588.084-1.115.252-1.582.177-.466.42-.858.728-1.176a3.037 3.037 0 0 1 1.092-.742c.42-.177.877-.266 1.372-.266.523 0 .989.089 1.4.266a2.47 2.47 0 0 1 1.008.784c.271.346.453.775.546 1.288.103.504.103 1.092 0 1.764h-5.124c.047.784.28 1.372.7 1.764.42.383 1.045.574 1.876.574.56 0 1.041-.079 1.442-.238a5.017 5.017 0 0 0 1.008-.518v1.106Zm-2.884-5.698c-.532 0-.989.164-1.372.49-.383.327-.625.822-.728 1.484h3.906c.037-.672-.117-1.166-.462-1.484-.345-.326-.793-.49-1.344-.49Zm6.908 3.43-1.96 2.884h-1.288l2.632-3.766-2.324-3.5h1.428l1.736 2.562 1.75-2.562h1.274l-2.408 3.472 2.534 3.794h-1.428l-1.946-2.884Zm7.835-7.154h3.374c.672 0 1.297.08 1.876.238.578.159 1.082.42 1.512.784.429.364.765.845 1.008 1.442.242.598.364 1.335.364 2.212 0 .887-.126 1.666-.378 2.338-.243.663-.584 1.218-1.022 1.666-.43.448-.948.789-1.554 1.022a5.544 5.544 0 0 1-1.96.336h-3.22v-10.038Zm1.316 1.204v7.644h1.904c.513 0 .984-.079 1.414-.238a2.853 2.853 0 0 0 1.106-.728c.308-.336.546-.76.714-1.274.168-.513.252-1.124.252-1.834 0-.7-.084-1.278-.252-1.736-.168-.466-.402-.835-.7-1.106-.29-.27-.64-.457-1.05-.56a5.041 5.041 0 0 0-1.33-.168h-2.058Zm12.656 7.448a4.17 4.17 0 0 1-.322.532 2.449 2.449 0 0 1-1.19.854 2.73 2.73 0 0 1-.924.14c-.653 0-1.18-.182-1.582-.546-.401-.373-.602-.905-.602-1.596 0-.793.276-1.376.826-1.75.56-.373 1.354-.56 2.38-.56h1.358v-.602c0-.504-.13-.863-.392-1.078-.261-.214-.709-.322-1.344-.322-.448 0-.872.075-1.274.224-.401.14-.76.304-1.078.49v-1.106a5.564 5.564 0 0 1 1.05-.462 4.392 4.392 0 0 1 1.47-.238c.915 0 1.61.192 2.086.574.476.374.714.957.714 1.75v4.2c.01.103.014.21.014.322l.028.322c.01.094.019.173.028.238h-1.12a6.31 6.31 0 0 1-.084-.546 8.706 8.706 0 0 1-.028-.63l-.014-.21Zm-2.17.42c.383 0 .71-.079.98-.238.271-.158.49-.34.658-.546.168-.214.29-.42.364-.616.075-.205.112-.35.112-.434v-.532h-1.232c-.737 0-1.274.108-1.61.322-.326.206-.49.518-.49.938 0 .327.098.593.294.798.196.206.504.308.924.308Zm8.84.812c-.15.084-.341.154-.574.21a3.177 3.177 0 0 1-.742.084c-.355 0-.658-.051-.91-.154a1.736 1.736 0 0 1-.602-.406 1.705 1.705 0 0 1-.35-.588 2.41 2.41 0 0 1-.098-.686v-4.522h-.868v-1.05h.868v-1.526h1.232v1.526h2.114v1.05h-2.114v4.368c0 .308.074.532.224.672.158.14.434.21.826.21.364 0 .695-.102.994-.308v1.12Zm5.895-1.232a4.17 4.17 0 0 1-.322.532 2.419 2.419 0 0 1-1.19.854 2.73 2.73 0 0 1-.924.14c-.653 0-1.181-.182-1.582-.546-.401-.373-.602-.905-.602-1.596 0-.793.275-1.376.826-1.75.56-.373 1.353-.56 2.38-.56h1.358v-.602c0-.504-.131-.863-.392-1.078-.261-.214-.709-.322-1.344-.322a3.63 3.63 0 0 0-1.274.224c-.401.14-.761.304-1.078.49v-1.106a5.506 5.506 0 0 1 1.05-.462 4.392 4.392 0 0 1 1.47-.238c.915 0 1.61.192 2.086.574.476.374.714.957.714 1.75v4.2c.009.103.014.21.014.322l.028.322c.009.094.019.173.028.238h-1.12a6.31 6.31 0 0 1-.084-.546 8.168 8.168 0 0 1-.028-.63l-.014-.21Zm-2.17.42c.383 0 .709-.079.98-.238.271-.158.49-.34.658-.546a2.41 2.41 0 0 0 .364-.616c.075-.205.112-.35.112-.434v-.532h-1.232c-.737 0-1.274.108-1.61.322-.327.206-.49.518-.49.938 0 .327.098.593.294.798.196.206.504.308.924.308Zm-57.394 18.106c-.458 0-.868-.032-1.232-.098a5.847 5.847 0 0 1-.966-.224 4.884 4.884 0 0 1-.7-.322 2.744 2.744 0 0 1-.448-.35v-1.26c.14.122.322.248.546.378.224.122.48.234.77.336.298.103.616.187.952.252.345.066.704.098 1.078.098.728 0 1.306-.135 1.736-.406.429-.28.644-.7.644-1.26 0-.28-.052-.508-.154-.686a1.26 1.26 0 0 0-.448-.462 2.637 2.637 0 0 0-.742-.322 20.18 20.18 0 0 0-1.022-.294 18.06 18.06 0 0 1-1.176-.35 4.292 4.292 0 0 1-1.064-.518 2.61 2.61 0 0 1-.756-.812c-.187-.326-.28-.742-.28-1.246 0-.868.303-1.544.91-2.03.606-.485 1.535-.728 2.786-.728.364 0 .686.024.966.07a4.8 4.8 0 0 1 .756.154c.224.056.415.122.574.196.168.075.317.145.448.21v1.26a3.94 3.94 0 0 0-1.274-.532 6.055 6.055 0 0 0-1.47-.168c-.448 0-.826.038-1.134.112a2.028 2.028 0 0 0-.728.294c-.187.131-.322.29-.406.476a1.521 1.521 0 0 0-.126.63c0 .28.06.514.182.7.13.187.298.346.504.476.214.122.457.224.728.308.27.084.555.159.854.224.392.094.793.201 1.204.322.41.122.779.29 1.106.504.326.215.592.495.798.84.214.336.322.775.322 1.316 0 .532-.108.985-.322 1.358a2.628 2.628 0 0 1-.826.896 3.479 3.479 0 0 1-1.19.504 6.232 6.232 0 0 1-1.4.154Zm8.791-.294c-.15.084-.341.154-.574.21a3.177 3.177 0 0 1-.742.084c-.355 0-.658-.051-.91-.154a1.736 1.736 0 0 1-.602-.406 1.705 1.705 0 0 1-.35-.588 2.41 2.41 0 0 1-.098-.686v-4.522h-.868v-1.05h.868v-1.526h1.232v1.526h2.114v1.05h-2.114v4.368c0 .308.074.532.224.672.158.14.434.21.826.21.364 0 .695-.102.994-.308v1.12Zm5.237-5.88a3.784 3.784 0 0 0-1.428.406c-.42.215-.733.551-.938 1.008v4.62H307.8v-7.266h1.078l.126 1.582h.028c.205-.429.499-.802.882-1.12.392-.326.887-.527 1.484-.602v1.372Zm7.079 5.418a3.919 3.919 0 0 1-.378.238c-.15.084-.332.168-.546.252a4.524 4.524 0 0 1-.728.182 4.51 4.51 0 0 1-.91.084c-1.223 0-2.152-.331-2.786-.994-.635-.662-.952-1.591-.952-2.786 0-.588.084-1.115.252-1.582.177-.466.42-.858.728-1.176a3.037 3.037 0 0 1 1.092-.742c.42-.177.877-.266 1.372-.266.522 0 .989.089 1.4.266.41.178.746.439 1.008.784.27.346.452.775.546 1.288.102.504.102 1.092 0 1.764h-5.124c.046.784.28 1.372.7 1.764.42.383 1.045.574 1.876.574.56 0 1.04-.079 1.442-.238a5.017 5.017 0 0 0 1.008-.518v1.106Zm-2.884-5.698c-.532 0-.99.164-1.372.49-.383.327-.626.822-.728 1.484h3.906c.037-.672-.117-1.166-.462-1.484-.346-.326-.794-.49-1.344-.49Zm8.781 4.928a4.17 4.17 0 0 1-.322.532 2.449 2.449 0 0 1-1.19.854 2.73 2.73 0 0 1-.924.14c-.653 0-1.18-.182-1.582-.546-.401-.373-.602-.905-.602-1.596 0-.793.276-1.376.826-1.75.56-.373 1.354-.56 2.38-.56h1.358v-.602c0-.504-.13-.863-.392-1.078-.261-.214-.709-.322-1.344-.322-.448 0-.872.075-1.274.224-.401.14-.76.304-1.078.49v-1.106a5.564 5.564 0 0 1 1.05-.462 4.392 4.392 0 0 1 1.47-.238c.915 0 1.61.192 2.086.574.476.374.714.957.714 1.75v4.2c.01.103.014.21.014.322l.028.322c.01.094.019.173.028.238h-1.12a6.31 6.31 0 0 1-.084-.546 8.706 8.706 0 0 1-.028-.63l-.014-.21Zm-2.17.42c.383 0 .71-.079.98-.238.271-.158.49-.34.658-.546.168-.214.29-.42.364-.616.075-.205.112-.35.112-.434v-.532h-1.232c-.737 0-1.274.108-1.61.322-.326.206-.49.518-.49.938 0 .327.098.593.294.798.196.206.504.308.924.308Zm6.515.966h-1.232v-7.266h1.078l.126 1.302h.028c.196-.41.49-.751.882-1.022.392-.28.906-.42 1.54-.42.56 0 1.018.136 1.373.406.364.262.606.658.727 1.19.206-.494.518-.882.938-1.162.43-.289.948-.434 1.555-.434.672 0 1.204.192 1.596.574.392.374.588.952.588 1.736v5.096h-1.246v-4.942c0-.476-.117-.821-.351-1.036-.233-.224-.55-.336-.951-.336-.271 0-.509.042-.714.126a1.681 1.681 0 0 0-.546.322c-.159.14-.304.304-.435.49-.13.187-.252.383-.363.588v4.788h-1.233v-5.082c0-.466-.116-.788-.349-.966-.234-.177-.551-.266-.953-.266-.261 0-.494.033-.7.098a2 2 0 0 0-.56.28 2.259 2.259 0 0 0-.434.448c-.13.168-.252.355-.364.56v4.928Zm13.452.14c-.383 0-.723-.032-1.022-.098a4.808 4.808 0 0 1-.77-.21 4.033 4.033 0 0 1-.546-.28 3.567 3.567 0 0 1-.35-.266v-1.106c.093.094.219.196.378.308.159.103.35.201.574.294.224.094.476.173.756.238.289.056.611.084.966.084.523 0 .938-.084 1.246-.252.308-.168.462-.452.462-.854 0-.214-.051-.387-.154-.518a.94.94 0 0 0-.392-.308 2.429 2.429 0 0 0-.588-.196 35.345 35.345 0 0 0-.686-.14 24.708 24.708 0 0 1-.91-.21 3.163 3.163 0 0 1-.812-.35 1.888 1.888 0 0 1-.588-.602c-.149-.252-.224-.578-.224-.98 0-.653.252-1.166.756-1.54.513-.373 1.227-.56 2.142-.56.513 0 .966.052 1.358.154.401.103.709.215.924.336v1.106a3.33 3.33 0 0 0-.91-.392c-.355-.112-.798-.168-1.33-.168-.551 0-.975.075-1.274.224-.289.15-.434.42-.434.812a.82.82 0 0 0 .126.476.992.992 0 0 0 .336.28c.149.066.317.117.504.154.187.038.383.08.588.126.317.066.644.136.98.21.336.075.635.192.896.35.271.159.49.374.658.644.177.262.266.616.266 1.064 0 .42-.084.77-.252 1.05a1.93 1.93 0 0 1-.672.672 2.851 2.851 0 0 1-.938.336c-.345.075-.7.112-1.064.112Z"/>
        <path fill="#000" fill-opacity=".7" d="m538.988 173-10-5.774v11.548l10-5.774ZM515 174h14.987v-2H515v2ZM399.988 290l-10-5.774v11.548l10-5.774ZM376 291h14.987v-2H376v2ZM261.988 173l-10-5.774v11.548l10-5.774ZM238 174h14.987v-2H238v2Zm202-70.988-5.774 10h11.548l-5.774-10ZM441 126v-13.989h-2V126h2Zm28-.012 5.774-10h-11.548l5.774 10ZM468 103v13.989h2V103h-2Zm-68.012 70-10-5.774v11.548l10-5.774ZM377 174h13.989v-2H377v2Z"/>
        <path fill="#18123D" d="M188.906 278.962h1.96L194.464 289h-1.4l-1.036-2.87h-4.438l-1.022 2.87h-1.232l3.57-10.038Zm2.702 5.978-1.792-4.998-1.792 4.998h3.584Zm4.317-5.978h3.206c1.139 0 2.021.238 2.646.714.635.467.952 1.199.952 2.198 0 .569-.093 1.059-.28 1.47a2.584 2.584 0 0 1-.756.994 3.153 3.153 0 0 1-1.176.574 5.741 5.741 0 0 1-1.498.182h-1.778V289h-1.316v-10.038Zm1.316 1.204v3.738h1.778c.355 0 .677-.037.966-.112.289-.075.537-.191.742-.35.215-.159.378-.364.49-.616.121-.261.182-.574.182-.938 0-.607-.196-1.045-.588-1.316-.392-.271-.952-.406-1.68-.406h-1.89Zm8.545-1.204V289h-1.316v-10.038h1.316Zm-28.126 23.104a4.79 4.79 0 0 1-.266 1.624 3.369 3.369 0 0 1-.784 1.288 3.653 3.653 0 0 1-1.344.854c-.532.205-1.162.308-1.89.308a5.049 5.049 0 0 1-1.946-.364 4.446 4.446 0 0 1-1.512-1.05 4.717 4.717 0 0 1-.98-1.624c-.233-.635-.35-1.339-.35-2.114 0-.775.112-1.479.336-2.114a4.456 4.456 0 0 1 .98-1.624 4.42 4.42 0 0 1 1.624-1.036c.644-.252 1.386-.378 2.226-.378.429 0 .812.028 1.148.084.345.056.649.126.91.21.261.084.485.177.672.28.196.103.364.201.504.294v1.26a9.576 9.576 0 0 0-.686-.364 4.578 4.578 0 0 0-.756-.308 5.498 5.498 0 0 0-.854-.196 6.325 6.325 0 0 0-.98-.07c-.635 0-1.185.089-1.652.266-.457.177-.84.439-1.148.784a3.254 3.254 0 0 0-.672 1.246c-.149.485-.224 1.041-.224 1.666 0 1.251.294 2.226.882 2.926.597.691 1.423 1.036 2.478 1.036.523 0 .971-.065 1.344-.196.373-.14.677-.327.91-.56.233-.243.401-.527.504-.854.112-.336.168-.7.168-1.092v-.28h-3.234v-1.19h4.592v1.288Zm5.954 2.548a4.363 4.363 0 0 1-.322.532 2.444 2.444 0 0 1-1.19.854c-.262.093-.57.14-.924.14-.654 0-1.181-.182-1.582-.546-.402-.373-.602-.905-.602-1.596 0-.793.275-1.377.826-1.75.56-.373 1.353-.56 2.38-.56h1.358v-.602c0-.504-.131-.863-.392-1.078-.262-.215-.71-.322-1.344-.322a3.63 3.63 0 0 0-1.274.224c-.402.14-.761.303-1.078.49v-1.106a5.383 5.383 0 0 1 1.05-.462 4.367 4.367 0 0 1 1.47-.238c.914 0 1.61.191 2.086.574.476.373.714.957.714 1.75v4.2c.009.103.014.21.014.322.009.112.018.219.028.322.009.093.018.173.028.238h-1.12a6.439 6.439 0 0 1-.084-.546 8.21 8.21 0 0 1-.028-.63l-.014-.21Zm-2.17.42c.382 0 .709-.079.98-.238.27-.159.49-.341.658-.546.168-.215.289-.42.364-.616.074-.205.112-.35.112-.434v-.532h-1.232c-.738 0-1.274.107-1.61.322-.327.205-.49.518-.49.938 0 .327.098.593.294.798.196.205.504.308.924.308Zm8.839.812c-.15.084-.341.154-.574.21a3.177 3.177 0 0 1-.742.084c-.355 0-.658-.051-.91-.154a1.75 1.75 0 0 1-.602-.406 1.705 1.705 0 0 1-.35-.588 2.416 2.416 0 0 1-.098-.686v-4.522h-.868v-1.05h.868v-1.526h1.232v1.526h2.114v1.05h-2.114v4.368c0 .308.074.532.224.672.158.14.434.21.826.21.364 0 .695-.103.994-.308v1.12Zm7.353-.462a3.919 3.919 0 0 1-.378.238c-.15.084-.332.168-.546.252a4.632 4.632 0 0 1-.728.182 4.51 4.51 0 0 1-.91.084c-1.223 0-2.152-.331-2.786-.994-.635-.663-.952-1.591-.952-2.786 0-.588.084-1.115.252-1.582.177-.467.42-.859.728-1.176a3.024 3.024 0 0 1 1.092-.742c.42-.177.877-.266 1.372-.266.522 0 .989.089 1.4.266.41.177.746.439 1.008.784.27.345.452.775.546 1.288.102.504.102 1.092 0 1.764h-5.124c.046.784.28 1.372.7 1.764.42.383 1.045.574 1.876.574.56 0 1.04-.079 1.442-.238a5.07 5.07 0 0 0 1.008-.518v1.106Zm-2.884-5.698c-.532 0-.99.163-1.372.49-.383.327-.626.821-.728 1.484h3.906c.037-.672-.117-1.167-.462-1.484-.346-.327-.794-.49-1.344-.49ZM207.188 306h-1.89l-1.54-5.614-1.582 5.614h-1.834l-1.652-7.266h1.302l1.386 6.342 1.764-6.342h1.386l1.722 6.272 1.372-6.272h1.218L207.188 306Zm7.269-1.386a4.24 4.24 0 0 1-.322.532 2.419 2.419 0 0 1-1.19.854c-.261.093-.569.14-.924.14-.653 0-1.18-.182-1.582-.546-.401-.373-.602-.905-.602-1.596 0-.793.276-1.377.826-1.75.56-.373 1.354-.56 2.38-.56h1.358v-.602c0-.504-.13-.863-.392-1.078-.261-.215-.709-.322-1.344-.322-.448 0-.872.075-1.274.224-.401.14-.76.303-1.078.49v-1.106a5.438 5.438 0 0 1 1.05-.462 4.367 4.367 0 0 1 1.47-.238c.915 0 1.61.191 2.086.574.476.373.714.957.714 1.75v4.2c.01.103.014.21.014.322l.028.322c.01.093.019.173.028.238h-1.12a6.439 6.439 0 0 1-.084-.546 8.754 8.754 0 0 1-.028-.63l-.014-.21Zm-2.17.42c.383 0 .71-.079.98-.238.271-.159.49-.341.658-.546.168-.215.29-.42.364-.616.075-.205.112-.35.112-.434v-.532h-1.232c-.737 0-1.274.107-1.61.322-.326.205-.49.518-.49.938 0 .327.098.593.294.798.196.205.504.308.924.308Zm8.854.882a8.4 8.4 0 0 1-.532 1.148 3.837 3.837 0 0 1-.63.854 2.266 2.266 0 0 1-.784.518c-.29.121-.621.182-.994.182-.187 0-.36-.014-.518-.042a1.561 1.561 0 0 1-.434-.112v-1.19c.102.075.233.131.392.168.158.047.331.07.518.07.345 0 .63-.084.854-.252.224-.159.438-.415.644-.77l-2.954-7.756h1.358l2.31 6.132 2.296-6.132h1.19l-2.716 7.182Z"/>
        <circle cx="197" cy="247" r="25" fill="#5282FF"/>
        <path fill="#fff" d="M189.123 241.962h2.226L194.905 252h-1.75l-.924-2.632h-4.228l-.924 2.632h-1.498l3.542-10.038Zm2.59 5.95-1.596-4.522-1.596 4.522h3.192Zm4.498-5.95h3.276c1.213 0 2.156.243 2.828.728.672.485 1.008 1.255 1.008 2.31 0 .579-.094 1.078-.28 1.498-.187.42-.453.765-.798 1.036a3.309 3.309 0 0 1-1.232.602 6.483 6.483 0 0 1-1.596.182h-1.512V252h-1.694v-10.038Zm1.694 1.47v3.43h1.512c.681 0 1.218-.135 1.61-.406.392-.271.588-.737.588-1.4 0-.569-.182-.98-.546-1.232-.355-.261-.882-.392-1.582-.392h-1.582Zm8.668-1.47V252h-1.694v-10.038h1.694Z"/>
        <circle cx="197" cy="99" r="25" fill="#5282FF"/>
        <path fill="#fff" d="M185.943 99.744h-4.704V104h-1.694V93.962h1.694v4.326h4.704v-4.326h1.708V104h-1.708v-4.256Zm7.874-4.312V104h-1.708v-8.568h-3.052v-1.47h7.798v1.47h-3.038Zm8.64 0V104h-1.708v-8.568h-3.052v-1.47h7.798v1.47h-3.038Zm4.486-1.47h3.276c1.214 0 2.156.243 2.828.728.672.485 1.008 1.255 1.008 2.31 0 .579-.093 1.078-.28 1.498a2.66 2.66 0 0 1-.798 1.036c-.336.27-.746.471-1.232.602a6.483 6.483 0 0 1-1.596.182h-1.512V104h-1.694V93.962Zm1.694 1.47v3.43h1.512c.682 0 1.218-.135 1.61-.406.392-.27.588-.737.588-1.4 0-.57-.182-.98-.546-1.232-.354-.261-.882-.392-1.582-.392h-1.582Z"/>
        <path fill="#000" fill-opacity=".7" d="m155 48-10-5.773v11.547L155 48Zm-9-1H63v2h83v-2Zm-92 9v10h2V56h-2Zm9-9a9 9 0 0 0-9 9h2a7 7 0 0 1 7-7v-2Z"/>
        <rect width="74" height="29" x="66" y="10" fill="#fff" rx="5"/>
        <rect width="72" height="27" x="67" y="11" stroke="#000" stroke-opacity=".7" stroke-width="2" rx="4"/>
        <path fill="#18123D" d="M86.206 27.81h1.288v3.57h-1.218l-.14-2.38h-7.21l-.154 2.38h-1.19v-3.57h.686c.317-.29.57-.677.756-1.162.196-.495.345-1.101.448-1.82a27.57 27.57 0 0 0 .224-2.534c.047-.97.084-2.081.112-3.332h6.398v8.848Zm-1.33 0v-7.644H81.04a68.615 68.615 0 0 1-.126 2.828 20.274 20.274 0 0 1-.224 2.142 9.288 9.288 0 0 1-.364 1.582 3.97 3.97 0 0 1-.532 1.092h5.082Zm8.438-.196a4.254 4.254 0 0 1-.322.532 2.437 2.437 0 0 1-1.19.854 2.75 2.75 0 0 1-.924.14c-.653 0-1.18-.182-1.582-.546-.402-.373-.602-.905-.602-1.596 0-.793.275-1.377.826-1.75.56-.373 1.353-.56 2.38-.56h1.358v-.602c0-.504-.13-.863-.392-1.078-.261-.215-.71-.322-1.344-.322a3.63 3.63 0 0 0-1.274.224c-.401.14-.76.303-1.078.49v-1.106a5.436 5.436 0 0 1 1.05-.462 4.374 4.374 0 0 1 1.47-.238c.915 0 1.61.191 2.086.574.476.373.714.957.714 1.75v4.2c.01.103.014.21.014.322.01.112.018.22.028.322.01.093.019.173.028.238h-1.12a6.4 6.4 0 0 1-.084-.546 8.353 8.353 0 0 1-.028-.63l-.014-.21Zm-2.17.42c.382 0 .71-.08.98-.238.27-.159.49-.34.658-.546.168-.215.29-.42.364-.616.075-.205.112-.35.112-.434v-.532h-1.232c-.737 0-1.274.107-1.61.322-.327.205-.49.518-.49.938 0 .327.098.593.294.798.196.205.504.308.924.308Zm10.029-2.254h-3.514V29h-1.232v-7.266h1.232v2.996h3.514v-2.996h1.232V29h-1.232v-3.22Zm7.998 0h-3.514V29h-1.232v-7.266h1.232v2.996h3.514v-2.996h1.232V29h-1.232v-3.22Zm8.628.798c0 .42-.075.784-.224 1.092-.149.308-.359.56-.63.756-.271.196-.593.34-.966.434-.373.093-.779.14-1.218.14h-2.338v-7.266h1.232v2.534h1.19c.924 0 1.647.182 2.17.546.523.364.784.952.784 1.764ZM120.081 29h-1.232v-7.266h1.232V29Zm-6.426-3.682v2.632h1.106c.532 0 .961-.098 1.288-.294.336-.205.504-.541.504-1.008 0-.476-.149-.817-.448-1.022-.299-.205-.719-.308-1.26-.308h-1.19Zm14.23 3.066a3.979 3.979 0 0 1-.924.49 4.632 4.632 0 0 1-.728.182 4.51 4.51 0 0 1-.91.084c-1.223 0-2.152-.331-2.786-.994-.635-.663-.952-1.591-.952-2.786 0-.588.084-1.115.252-1.582.177-.467.42-.859.728-1.176a3.028 3.028 0 0 1 1.092-.742 3.49 3.49 0 0 1 1.372-.266c.522 0 .989.089 1.4.266.41.177.746.439 1.008.784.27.345.452.775.546 1.288.102.504.102 1.092 0 1.764h-5.124c.046.784.28 1.372.7 1.764.42.383 1.045.574 1.876.574.56 0 1.04-.08 1.442-.238a5.07 5.07 0 0 0 1.008-.518v1.106Zm-2.884-5.698c-.532 0-.99.163-1.372.49-.383.327-.626.821-.728 1.484h3.906c.037-.672-.117-1.167-.462-1.484-.346-.327-.794-.49-1.344-.49Z"/>
        <path fill="#000" fill-opacity=".7" d="m155 298-10 5.774v-11.548L155 298Zm-9 1H63v-2h83v2Zm-92-9v-10h2v10h-2Zm9 9a9 9 0 0 1-9-9h2a7 7 0 0 0 7 7v2Z"/>
        <rect width="74" height="29" x="66" y="307" fill="#fff" rx="5"/>
        <rect width="72" height="27" x="67" y="308" stroke="#000" stroke-opacity=".7" stroke-width="2" rx="4"/>
        <path fill="#18123D" d="M86.206 324.81h1.288v3.57h-1.218l-.14-2.38h-7.21l-.154 2.38h-1.19v-3.57h.686c.317-.289.57-.677.756-1.162.196-.495.345-1.101.448-1.82a27.57 27.57 0 0 0 .224-2.534c.047-.971.084-2.081.112-3.332h6.398v8.848Zm-1.33 0v-7.644H81.04a68.59 68.59 0 0 1-.126 2.828 20.274 20.274 0 0 1-.224 2.142 9.295 9.295 0 0 1-.364 1.582c-.14.429-.317.793-.532 1.092h5.082Zm8.438-.196a4.276 4.276 0 0 1-.322.532 2.437 2.437 0 0 1-1.19.854c-.262.093-.57.14-.924.14-.653 0-1.18-.182-1.582-.546-.402-.373-.602-.905-.602-1.596 0-.793.275-1.377.826-1.75.56-.373 1.353-.56 2.38-.56h1.358v-.602c0-.504-.13-.863-.392-1.078-.261-.215-.71-.322-1.344-.322a3.63 3.63 0 0 0-1.274.224c-.401.14-.76.303-1.078.49v-1.106a5.4 5.4 0 0 1 1.05-.462 4.367 4.367 0 0 1 1.47-.238c.915 0 1.61.191 2.086.574.476.373.714.957.714 1.75v4.2c.01.103.014.21.014.322.01.112.018.219.028.322.01.093.019.173.028.238h-1.12a6.439 6.439 0 0 1-.084-.546 8.366 8.366 0 0 1-.028-.63l-.014-.21Zm-2.17.42c.382 0 .71-.079.98-.238.27-.159.49-.341.658-.546.168-.215.29-.42.364-.616.075-.205.112-.35.112-.434v-.532h-1.232c-.737 0-1.274.107-1.61.322-.327.205-.49.518-.49.938 0 .327.098.593.294.798.196.205.504.308.924.308Zm10.029-2.254h-3.514V326h-1.232v-7.266h1.232v2.996h3.514v-2.996h1.232V326h-1.232v-3.22Zm7.998 0h-3.514V326h-1.232v-7.266h1.232v2.996h3.514v-2.996h1.232V326h-1.232v-3.22Zm8.628.798c0 .42-.075.784-.224 1.092-.149.308-.359.56-.63.756a2.776 2.776 0 0 1-.966.434c-.373.093-.779.14-1.218.14h-2.338v-7.266h1.232v2.534h1.19c.924 0 1.647.182 2.17.546.523.364.784.952.784 1.764Zm2.282 2.422h-1.232v-7.266h1.232V326Zm-6.426-3.682v2.632h1.106c.532 0 .961-.098 1.288-.294.336-.205.504-.541.504-1.008 0-.476-.149-.817-.448-1.022-.299-.205-.719-.308-1.26-.308h-1.19Zm14.23 3.066a3.919 3.919 0 0 1-.378.238c-.15.084-.332.168-.546.252a4.632 4.632 0 0 1-.728.182 4.51 4.51 0 0 1-.91.084c-1.223 0-2.152-.331-2.786-.994-.635-.663-.952-1.591-.952-2.786 0-.588.084-1.115.252-1.582.177-.467.42-.859.728-1.176a3.024 3.024 0 0 1 1.092-.742c.42-.177.877-.266 1.372-.266.522 0 .989.089 1.4.266.41.177.746.439 1.008.784.27.345.452.775.546 1.288.102.504.102 1.092 0 1.764h-5.124c.046.784.28 1.372.7 1.764.42.383 1.045.574 1.876.574.56 0 1.04-.079 1.442-.238a5.07 5.07 0 0 0 1.008-.518v1.106Zm-2.884-5.698c-.532 0-.99.163-1.372.49-.383.327-.626.821-.728 1.484h3.906c.037-.672-.117-1.167-.462-1.484-.346-.327-.794-.49-1.344-.49Z"/>
        <rect width="88" height="100" x="11" y="179" fill="#fff" stroke="#67B0F8" stroke-width="2" rx="4"/>
        <path fill="#5282FF" fill-rule="evenodd" d="M55 221c13.799 0 25 11.2 25 25s-11.201 25-25 25-25-11.2-25-25 11.201-25 25-25Z" clip-rule="evenodd"/>
        <path fill="#fff" fill-rule="evenodd" d="M47.188 257.158v-22.313a1.344 1.344 0 0 1 1.343-1.344h12.936c.742 0 1.346.602 1.346 1.344v22.313c0 .742-.604 1.343-1.346 1.343H48.53a1.343 1.343 0 0 1-1.344-1.343h.002Zm9.376-1a1.567 1.567 0 0 0-3.128 0 1.565 1.565 0 0 0 3.128 0Zm4.688-3.438v-15.004c0-.604-.493-1.094-1.094-1.094H49.84c-.602 0-1.094.49-1.094 1.094v15.003c0 .601.492 1.093 1.094 1.093h10.315c.603 0 1.094-.492 1.094-1.093l.002.001Z" clip-rule="evenodd"/>
        <path fill="#000" d="M23.52 202.284a9.784 9.784 0 0 1-.589 1.176 3.978 3.978 0 0 1-.686.854 2.593 2.593 0 0 1-.868.532 3.32 3.32 0 0 1-1.106.168h-.14a.74.74 0 0 1-.14-.014v-1.316a.74.74 0 0 0 .14.014h.154c.495 0 .882-.112 1.162-.336.29-.224.528-.504.714-.84l-3.724-7.56h1.498l2.898 6.048 2.506-6.048h1.358l-3.178 7.322Zm6.545 2.856c-.56 0-1.069-.084-1.526-.252a3.338 3.338 0 0 1-1.148-.742 3.273 3.273 0 0 1-.728-1.19c-.168-.467-.252-.999-.252-1.596 0-.588.084-1.115.252-1.582.177-.467.425-.859.742-1.176a3.065 3.065 0 0 1 1.162-.742 4.28 4.28 0 0 1 1.554-.266c.448 0 .859.051 1.232.154.373.093.681.233.924.42v1.106a3.257 3.257 0 0 0-1.008-.434 4.145 4.145 0 0 0-1.134-.154c-.85 0-1.475.219-1.876.658-.392.439-.588 1.111-.588 2.016s.191 1.577.574 2.016c.383.439.99.658 1.82.658.439 0 .84-.051 1.204-.154.373-.112.71-.252 1.008-.42v1.106a4.29 4.29 0 0 1-2.212.574Zm6.79-6.356V205h-1.232v-6.216H33.34v-1.05h5.838v1.05h-2.324Zm7.4 6.356c-.56 0-1.046-.131-1.456-.392a2.85 2.85 0 0 1-.966-1.078v3.808H40.6v-9.744h1.078l.126 1.414a2.98 2.98 0 0 1 .98-1.134c.41-.28.92-.42 1.526-.42.42 0 .821.079 1.204.238.392.149.732.383 1.022.7.298.308.532.7.7 1.176.177.467.266 1.017.266 1.652 0 .644-.089 1.204-.266 1.68a3.507 3.507 0 0 1-.714 1.176 2.999 2.999 0 0 1-1.036.7 3.439 3.439 0 0 1-1.232.224Zm-.182-1.106c.644 0 1.162-.219 1.554-.658.401-.448.602-1.12.602-2.016 0-.877-.2-1.54-.602-1.988-.392-.457-.91-.686-1.554-.686a2.39 2.39 0 0 0-.896.168c-.27.112-.509.28-.714.504-.196.215-.355.49-.476.826a3.723 3.723 0 0 0-.168 1.176c0 .448.056.84.168 1.176.121.336.28.616.476.84.205.224.443.392.714.504.28.103.578.154.896.154Zm7.904 1.106a3.77 3.77 0 0 1-1.386-.252 3.233 3.233 0 0 1-1.12-.728 3.547 3.547 0 0 1-.728-1.19c-.177-.467-.266-1.003-.266-1.61 0-.597.089-1.129.266-1.596.178-.476.42-.873.728-1.19.318-.317.691-.56 1.12-.728a3.77 3.77 0 0 1 1.386-.252c.504 0 .971.084 1.4.252.43.168.798.411 1.106.728.318.317.565.714.742 1.19.187.467.28.999.28 1.596 0 .607-.093 1.143-.28 1.61a3.433 3.433 0 0 1-.742 1.19c-.308.317-.676.56-1.106.728a3.807 3.807 0 0 1-1.4.252Zm0-1.106a2.5 2.5 0 0 0 .896-.154 2.04 2.04 0 0 0 .728-.49 2.3 2.3 0 0 0 .476-.84c.112-.336.168-.733.168-1.19 0-.457-.056-.854-.168-1.19a2.167 2.167 0 0 0-.476-.826 1.833 1.833 0 0 0-.728-.49 2.322 2.322 0 0 0-.896-.168c-.326 0-.625.056-.896.168-.27.103-.508.266-.714.49-.196.215-.35.49-.462.826a3.775 3.775 0 0 0-.168 1.19c0 .457.056.854.168 1.19.112.336.266.616.462.84.206.215.444.378.714.49.271.103.57.154.896.154Zm8.236-7.266c-.373 0-.7-.047-.98-.14-.27-.103-.5-.238-.686-.406a1.852 1.852 0 0 1-.406-.602 2.213 2.213 0 0 1-.126-.756h1.232c0 .355.084.611.252.77.177.159.415.238.714.238s.532-.079.7-.238c.168-.159.252-.415.252-.77h1.232c0 .532-.182.985-.546 1.358-.355.364-.9.546-1.638.546Zm-1.974 6.552 3.878-5.586h1.246V205h-1.232v-5.572L58.267 205h-1.26v-7.266h1.232v5.586Zm10.271 1.82c-.56 0-1.069-.084-1.526-.252a3.338 3.338 0 0 1-1.148-.742 3.273 3.273 0 0 1-.728-1.19c-.168-.467-.252-.999-.252-1.596 0-.588.084-1.115.252-1.582.177-.467.425-.859.742-1.176a3.065 3.065 0 0 1 1.162-.742 4.28 4.28 0 0 1 1.554-.266c.448 0 .859.051 1.232.154.373.093.681.233.924.42v1.106a3.257 3.257 0 0 0-1.008-.434 4.145 4.145 0 0 0-1.134-.154c-.85 0-1.474.219-1.876.658-.392.439-.588 1.111-.588 2.016s.192 1.577.574 2.016c.383.439.99.658 1.82.658.439 0 .84-.051 1.204-.154.374-.112.71-.252 1.008-.42v1.106a4.29 4.29 0 0 1-2.212.574Zm6.79-6.356V205h-1.232v-6.216h-2.282v-1.05h5.838v1.05H75.3Zm3.746-1.05h2.716c.877 0 1.54.154 1.988.462.448.299.672.77.672 1.414 0 .429-.112.775-.336 1.036-.215.252-.523.434-.924.546 1.036.168 1.554.742 1.554 1.722 0 .373-.075.695-.224.966a1.85 1.85 0 0 1-.616.644 2.746 2.746 0 0 1-.952.364c-.364.075-.76.112-1.19.112h-2.688v-7.266Zm1.232 1.05v1.974h1.372c.467 0 .84-.084 1.12-.252.29-.168.434-.411.434-.728 0-.383-.126-.644-.378-.784s-.611-.21-1.078-.21h-1.47Zm0 2.954v2.212h1.442c.261 0 .495-.014.7-.042.215-.037.397-.098.546-.182a.908.908 0 0 0 .364-.336.991.991 0 0 0 .126-.518c0-.42-.145-.714-.434-.882-.29-.168-.723-.252-1.302-.252h-1.442Zm10.544 1.876a4.276 4.276 0 0 1-.322.532 2.434 2.434 0 0 1-1.19.854c-.262.093-.57.14-.924.14-.654 0-1.181-.182-1.582-.546-.402-.373-.602-.905-.602-1.596 0-.793.275-1.377.826-1.75.56-.373 1.353-.56 2.38-.56h1.358v-.602c0-.504-.131-.863-.392-1.078-.262-.215-.71-.322-1.344-.322a3.63 3.63 0 0 0-1.274.224c-.402.14-.761.303-1.078.49v-1.106a5.405 5.405 0 0 1 1.05-.462 4.367 4.367 0 0 1 1.47-.238c.914 0 1.61.191 2.086.574.476.373.714.957.714 1.75v4.2c.009.103.014.21.014.322.009.112.018.219.028.322.009.093.018.173.028.238h-1.12a6.439 6.439 0 0 1-.084-.546 8.42 8.42 0 0 1-.028-.63l-.014-.21Zm-2.17.42c.382 0 .709-.079.98-.238.27-.159.49-.341.658-.546.168-.215.289-.42.364-.616.074-.205.112-.35.112-.434v-.532h-1.232c-.738 0-1.274.107-1.61.322-.327.205-.49.518-.49.938 0 .327.098.593.294.798.196.205.504.308.924.308Z"/>
        <rect width="88" height="100" x="11" y="67" fill="#fff" stroke="#67B0F8" stroke-width="2" rx="4"/>
        <path fill="#000" d="m21.754 85.25 5.516-8.288h1.428V87h-1.344v-8.246L21.866 87h-1.428V76.962h1.316v8.288ZM34 87.14c-.56 0-1.068-.084-1.526-.252a3.339 3.339 0 0 1-1.148-.742 3.273 3.273 0 0 1-.728-1.19c-.168-.467-.252-.999-.252-1.596 0-.588.084-1.115.252-1.582a3.29 3.29 0 0 1 .742-1.176 3.07 3.07 0 0 1 1.162-.742 4.274 4.274 0 0 1 1.554-.266c.448 0 .86.051 1.232.154.374.093.682.233.924.42v1.106a3.262 3.262 0 0 0-1.008-.434 4.156 4.156 0 0 0-1.134-.154c-.849 0-1.474.22-1.876.658-.392.439-.588 1.11-.588 2.016 0 .905.192 1.577.574 2.016.383.439.99.658 1.82.658.44 0 .84-.051 1.204-.154a4.95 4.95 0 0 0 1.008-.42v1.106A4.29 4.29 0 0 1 34 87.14Zm6.79-6.356V87h-1.23v-6.216h-2.282v-1.05h5.838v1.05h-2.324Zm6.523 6.356a3.77 3.77 0 0 1-1.386-.252 3.23 3.23 0 0 1-1.12-.728 3.549 3.549 0 0 1-.728-1.19c-.177-.467-.266-1.003-.266-1.61 0-.597.089-1.13.266-1.596.178-.476.42-.873.728-1.19a3.23 3.23 0 0 1 1.12-.728 3.77 3.77 0 0 1 1.386-.252c.504 0 .97.084 1.4.252.43.168.798.41 1.106.728.318.317.565.714.742 1.19.187.467.28.999.28 1.596 0 .607-.093 1.143-.28 1.61a3.432 3.432 0 0 1-.742 1.19c-.308.317-.676.56-1.106.728-.43.168-.896.252-1.4.252Zm0-1.106c.327 0 .626-.051.896-.154a2.04 2.04 0 0 0 .728-.49 2.29 2.29 0 0 0 .476-.84c.112-.336.168-.733.168-1.19 0-.457-.056-.854-.168-1.19a2.163 2.163 0 0 0-.476-.826 1.83 1.83 0 0 0-.728-.49 2.321 2.321 0 0 0-.896-.168c-.326 0-.625.056-.896.168-.27.103-.508.266-.714.49-.196.215-.35.49-.462.826a3.774 3.774 0 0 0-.168 1.19c0 .457.056.854.168 1.19.112.336.266.616.462.84.206.215.444.378.714.49.27.103.57.154.896.154ZM57.767 87h-1.232v-3.192c-.252.196-.546.35-.882.462-.327.103-.7.154-1.12.154-.822 0-1.452-.2-1.89-.602-.43-.41-.644-1.064-.644-1.96v-2.128h1.246v2.142c0 .57.13.966.392 1.19.261.224.63.336 1.106.336.326 0 .644-.047.952-.14a2.57 2.57 0 0 0 .84-.434v-3.094h1.232V87Zm6.76-3.22h-3.514V87h-1.232v-7.266h1.232v2.996h3.514v-2.996h1.232V87h-1.232v-3.22Zm4.484 1.54 3.879-5.586h1.245V87h-1.232v-5.572L69.04 87h-1.26v-7.266h1.233v5.586Zm9.012-1.414h-.644V87h-1.232v-7.266h1.232v3.122h.7l2.548-3.122h1.4l-2.982 3.584L82.083 87h-1.498l-2.562-3.094Zm6.588 1.414 3.878-5.586h1.246V87h-1.232v-5.572L84.64 87h-1.26v-7.266h1.232v5.586ZM31.5 101.95c.261-.159.466-.406.616-.742.15-.336.266-.761.35-1.274a15.2 15.2 0 0 0 .168-1.82c.037-.7.07-1.493.098-2.38h4.998v6.216h1.092v3.122h-1.078L37.589 103h-5.404l-.126 2.072h-1.106v-3.122h.546Zm4.998 0v-5.166h-2.66c-.047 1.372-.136 2.473-.266 3.304-.121.821-.336 1.442-.644 1.862h3.57Zm7.798-.336a4.288 4.288 0 0 1-.322.532 2.437 2.437 0 0 1-1.19.854c-.261.093-.57.14-.924.14-.653 0-1.18-.182-1.582-.546-.401-.373-.602-.905-.602-1.596 0-.793.276-1.377.826-1.75.56-.373 1.354-.56 2.38-.56h1.358v-.602c0-.504-.13-.863-.392-1.078-.261-.215-.71-.322-1.344-.322-.448 0-.872.075-1.274.224-.401.14-.76.303-1.078.49v-1.106a5.436 5.436 0 0 1 1.05-.462 4.374 4.374 0 0 1 1.47-.238c.915 0 1.61.191 2.086.574.476.373.714.957.714 1.75v4.2c.01.103.014.21.014.322l.028.322c.01.093.019.173.028.238h-1.12a6.439 6.439 0 0 1-.084-.546 8.366 8.366 0 0 1-.028-.63l-.014-.21Zm-2.17.42c.383 0 .71-.079.98-.238.27-.159.49-.341.658-.546.168-.215.29-.42.364-.616.075-.205.112-.35.112-.434v-.532h-1.232c-.737 0-1.274.107-1.61.322-.326.205-.49.518-.49.938 0 .327.098.593.294.798.196.205.504.308.924.308Zm10.03-2.254H48.64V103h-1.232v-7.266h1.232v2.996h3.514v-2.996h1.232V103h-1.232v-3.22Zm7.997 0h-3.514V103h-1.232v-7.266h1.232v2.996h3.514v-2.996h1.232V103h-1.232v-3.22Zm8.629.798c0 .42-.075.784-.225 1.092-.149.308-.359.56-.63.756a2.77 2.77 0 0 1-.966.434 5.03 5.03 0 0 1-1.217.14h-2.338v-7.266h1.231v2.534h1.19c.925 0 1.648.182 2.17.546.523.364.785.952.785 1.764Zm2.28 2.422h-1.231v-7.266h1.231V103Zm-6.425-3.682v2.632h1.106c.532 0 .96-.098 1.288-.294.335-.205.503-.541.503-1.008 0-.476-.149-.817-.448-1.022-.298-.205-.718-.308-1.26-.308h-1.19Zm10.897.798L73.574 103h-1.288l2.632-3.766-2.324-3.5h1.428l1.736 2.562 1.75-2.562h1.274l-2.408 3.472L78.908 103H77.48l-1.946-2.884Z"/>
        <path fill="#5282FF" fill-rule="evenodd" d="M55 110c13.799 0 25 11.2 25 25s-11.201 25-25 25-25-11.2-25-25 11.201-25 25-25Z" clip-rule="evenodd"/>
        <path fill="#fff" fill-rule="evenodd" d="M47.183 145.939h1.553l.012-.001c1.428 0 2.495-1.011 3.029-1.747.231-.397.368-.769.456-1.377h-7.529a2.211 2.211 0 0 1-2.209-2.209v-15.9a2.21 2.21 0 0 1 2.207-2.21h20.585a2.21 2.21 0 0 1 2.208 2.21v15.9a2.21 2.21 0 0 1-2.208 2.209H57.76c.094.633.237 1.027.456 1.377.548.75 1.843 1.747 3.03 1.747l.01.001h1.55c.927 0 1.561.484 1.561 1.561H45.621c-.027-1.036.556-1.561 1.562-1.561Z" clip-rule="evenodd"/>
        <rect width="22" height="17" x="44" y="124" fill="#5282FF" rx="1"/>
    </g>
    <defs>
        <filter id="filter0_d_35_187" width="97.34" height="340.34" x="147.83" y="2.83" color-interpolation-filters="sRGB" filterUnits="userSpaceOnUse">
            <feFlood flood-opacity="0" result="BackgroundImageFix"/>
            <feColorMatrix in="SourceAlpha" result="hardAlpha" values="0 0 0 0 0 0 0 0 0 0 0 0 0 0 0 0 0 0 127 0"/>
            <feOffset/>
            <feGaussianBlur stdDeviation="3.585"/>
            <feComposite in2="hardAlpha" operator="out"/>
            <feColorMatrix values="0 0 0 0 0.592157 0 0 0 0 0.74902 0 0 0 0 0.905882 0 0 0 0.4 0"/>
            <feBlend in2="BackgroundImageFix" result="effect1_dropShadow_35_187"/>
            <feBlend in="SourceGraphic" in2="effect1_dropShadow_35_187" result="shape"/>
        </filter>
        <filter id="filter1_d_35_187" width="168.34" height="340.34" x="531.83" y="2.83" color-interpolation-filters="sRGB" filterUnits="userSpaceOnUse">
            <feFlood flood-opacity="0" result="BackgroundImageFix"/>
            <feColorMatrix in="SourceAlpha" result="hardAlpha" values="0 0 0 0 0 0 0 0 0 0 0 0 0 0 0 0 0 0 127 0"/>
            <feOffset/>
            <feGaussianBlur stdDeviation="3.585"/>
            <feComposite in2="hardAlpha" operator="out"/>
            <feColorMatrix values="0 0 0 0 0.592157 0 0 0 0 0.74902 0 0 0 0 0.905882 0 0 0 0.4 0"/>
            <feBlend in2="BackgroundImageFix" result="effect1_dropShadow_35_187"/>
            <feBlend in="SourceGraphic" in2="effect1_dropShadow_35_187" result="shape"/>
        </filter>
        <clipPath id="clip0_35_187">
            <path fill="#fff" d="M0 0h700v346H0z"/>
        </clipPath>
    </defs>
</svg>
