<svg xmlns="http://www.w3.org/2000/svg" width="701" height="199" fill="none" viewBox="0 0 701 199">
    <g clip-path="url(#clip0_1_8)">
        <g filter="url(#filter0_d_1_8)">
            <path fill="#fff" d="M519.293 191H180.707c-5.913 0-10.707-4.794-10.707-10.707V11.943A4.943 4.943 0 0 1 174.943 7h344.35C525.206 7 530 11.794 530 17.707v162.586c0 5.913-4.794 10.707-10.707 10.707Z"/>
        </g>
        <rect width="118" height="66" x="6" y="66" fill="#fff" stroke="#67B0F8" stroke-width="2" rx="4"/>
        <path fill="#18123D" d="M43.434 96.12c-.64 0-1.22-.1-1.74-.3-.52-.2-.968-.488-1.344-.864a3.955 3.955 0 0 1-.852-1.392c-.2-.552-.3-1.172-.3-1.86 0-.696.092-1.316.276-1.86a3.657 3.657 0 0 1 .816-1.38c.36-.384.8-.676 1.32-.876.528-.2 1.128-.3 1.8-.3.584 0 1.096.064 1.536.192.44.12.8.264 1.08.432v1.08a3.98 3.98 0 0 0-1.248-.516 5.865 5.865 0 0 0-1.38-.168c-1.016 0-1.768.284-2.256.852-.48.56-.72 1.408-.72 2.544 0 1.144.26 1.996.78 2.556.528.56 1.304.84 2.328.84.44 0 .868-.06 1.284-.18.424-.12.828-.324 1.212-.612v1.08c-.232.184-.572.352-1.02.504-.44.152-.964.228-1.572.228ZM52.2 96h-1.056v-2.736a2.52 2.52 0 0 1-.757.396c-.28.088-.6.132-.96.132-.704 0-1.244-.172-1.62-.516-.367-.352-.551-.912-.551-1.68v-1.824h1.067v1.836c0 .488.112.828.336 1.02.224.192.54.288.948.288.28 0 .552-.04.816-.12.265-.08.505-.204.72-.372v-2.652h1.056V96Zm6.682-.528a3.344 3.344 0 0 1-.324.204 3.758 3.758 0 0 1-.468.216 3.946 3.946 0 0 1-.624.156 3.864 3.864 0 0 1-.78.072c-1.048 0-1.844-.284-2.388-.852-.544-.568-.816-1.364-.816-2.388 0-.504.072-.956.216-1.356.152-.4.36-.736.624-1.008.264-.28.576-.492.936-.636.36-.152.752-.228 1.176-.228a3 3 0 0 1 1.2.228c.352.152.64.376.864.672.232.296.388.664.468 1.104.088.432.088.936 0 1.512h-4.392c.04.672.24 1.176.6 1.512.36.328.896.492 1.608.492.48 0 .892-.068 1.236-.204a4.33 4.33 0 0 0 .864-.444v.948Zm-2.472-4.884c-.456 0-.848.14-1.176.42-.328.28-.536.704-.624 1.272h3.348c.032-.576-.1-1-.396-1.272-.296-.28-.68-.42-1.152-.42Zm6.423.084V96h-1.056v-5.328H59.82v-.9h5.004v.9h-1.992ZM80.5 89.484c0 .312-.056.604-.168.876a2.104 2.104 0 0 1-1.164 1.152 2.337 2.337 0 0 1-.864.156c-.312 0-.6-.052-.864-.156a2.282 2.282 0 0 1-.696-.456 2.282 2.282 0 0 1-.456-.696 2.432 2.432 0 0 1-.156-.876c0-.32.052-.612.156-.876.112-.272.264-.504.456-.696.2-.192.432-.34.696-.444a2.19 2.19 0 0 1 .864-.168c.312 0 .6.056.864.168.272.104.504.252.696.444.2.192.356.424.468.696.112.264.168.556.168.876ZM75.171 96H73.72l-3.828-7.068V96h-1.068v-8.604h1.452l3.828 7.068v-7.068h1.068V96Zm1.884-6.516c0 .408.112.744.336 1.008.224.264.528.396.912.396s.688-.132.912-.396c.232-.264.348-.6.348-1.008 0-.408-.116-.744-.348-1.008-.224-.264-.528-.396-.912-.396s-.688.132-.912.396c-.224.264-.336.6-.336 1.008ZM87.024 96H81.54v-1.14a68.501 68.501 0 0 0 1.884-1.56c.536-.456.976-.876 1.32-1.26.344-.384.6-.748.768-1.092.168-.352.252-.716.252-1.092 0-.472-.144-.852-.432-1.14-.28-.296-.692-.444-1.236-.444-.456 0-.88.112-1.272.336a4.3 4.3 0 0 0-1.056.852v-1.212a3.647 3.647 0 0 1 1.032-.708c.384-.176.828-.264 1.332-.264a3.6 3.6 0 0 1 1.188.18c.352.12.644.288.876.504.24.216.42.476.54.78.128.304.192.64.192 1.008 0 .464-.092.9-.276 1.308a4.81 4.81 0 0 1-.792 1.224c-.352.408-.788.832-1.308 1.272a51.9 51.9 0 0 1-1.764 1.416h4.236V96Zm1.174 1.284c.072-.08.144-.176.216-.288a2.95 2.95 0 0 0 .192-.348c.064-.112.112-.224.144-.336a1.73 1.73 0 0 0 .084-.276.727.727 0 0 1-.408-.252.7.7 0 0 1-.156-.456c0-.208.064-.38.192-.516a.708.708 0 0 1 .54-.216.69.69 0 0 1 .54.228c.144.152.216.356.216.612 0 .168-.024.344-.072.528a3.94 3.94 0 0 1-.18.516c-.072.168-.156.32-.252.456-.088.144-.176.26-.264.348h-.792ZM27.252 110.12a3.77 3.77 0 0 1-1.308-.216 2.861 2.861 0 0 1-.984-.636c-.272-.28-.48-.62-.624-1.02a4.024 4.024 0 0 1-.216-1.368c0-.504.072-.956.216-1.356.152-.4.364-.736.636-1.008a2.63 2.63 0 0 1 .996-.636 3.662 3.662 0 0 1 1.332-.228c.384 0 .736.044 1.056.132.32.08.584.2.792.36v.948a2.798 2.798 0 0 0-.864-.372 3.563 3.563 0 0 0-.972-.132c-.728 0-1.264.188-1.608.564-.336.376-.504.952-.504 1.728s.164 1.352.492 1.728c.328.376.848.564 1.56.564.376 0 .72-.044 1.032-.132.32-.096.608-.216.864-.36v.948a3.678 3.678 0 0 1-1.896.492Zm3.312-6.348h4.992V110H34.5v-5.328h-2.88V110h-1.056v-6.228Zm7.77 4.788 3.325-4.788h1.068V110H41.67v-4.776L38.359 110h-1.08v-6.228h1.056v4.788Zm8.805 1.56a3.77 3.77 0 0 1-1.308-.216 2.861 2.861 0 0 1-.984-.636c-.272-.28-.48-.62-.624-1.02a4.024 4.024 0 0 1-.216-1.368c0-.504.072-.956.216-1.356.152-.4.364-.736.636-1.008a2.63 2.63 0 0 1 .996-.636 3.662 3.662 0 0 1 1.332-.228c.384 0 .736.044 1.056.132.32.08.584.2.792.36v.948a2.798 2.798 0 0 0-.864-.372 3.563 3.563 0 0 0-.972-.132c-.728 0-1.264.188-1.608.564-.336.376-.504.952-.504 1.728s.164 1.352.492 1.728c.328.376.848.564 1.56.564.376 0 .72-.044 1.032-.132.32-.096.608-.216.864-.36v.948a3.678 3.678 0 0 1-1.896.492Zm6.96-1.308a3.648 3.648 0 0 1-.276.456 2.088 2.088 0 0 1-1.02.732c-.224.08-.488.12-.792.12-.56 0-1.012-.156-1.356-.468-.344-.32-.516-.776-.516-1.368 0-.68.236-1.18.708-1.5.48-.32 1.16-.48 2.04-.48h1.164v-.516c0-.432-.112-.74-.336-.924-.224-.184-.608-.276-1.152-.276-.384 0-.748.064-1.092.192-.344.12-.652.26-.924.42v-.948c.224-.136.524-.268.9-.396a3.75 3.75 0 0 1 1.26-.204c.784 0 1.38.164 1.788.492.408.32.612.82.612 1.5v3.6c.008.088.012.18.012.276l.024.276c.008.08.016.148.024.204h-.96a5.482 5.482 0 0 1-.072-.468 7.173 7.173 0 0 1-.024-.54l-.012-.18Zm-1.86.36c.328 0 .608-.068.84-.204.232-.136.42-.292.564-.468.144-.184.248-.36.312-.528.064-.176.096-.3.096-.372v-.456h-1.056c-.632 0-1.092.092-1.38.276-.28.176-.42.444-.42.804 0 .28.084.508.252.684.168.176.432.264.792.264Zm8.596-1.932h-3.012V110h-1.056v-6.228h1.056v2.568h3.012v-2.568h1.056V110h-1.056v-2.76Zm3.844 1.32 3.324-4.788h1.068V110h-1.056v-4.776L64.703 110h-1.08v-6.228h1.056v4.788Zm11.071.912a3.344 3.344 0 0 1-.324.204 3.758 3.758 0 0 1-.468.216 3.946 3.946 0 0 1-.624.156 3.864 3.864 0 0 1-.78.072c-1.048 0-1.844-.284-2.388-.852-.544-.568-.816-1.364-.816-2.388 0-.504.072-.956.216-1.356.152-.4.36-.736.624-1.008.264-.28.576-.492.936-.636.36-.152.752-.228 1.176-.228a3 3 0 0 1 1.2.228c.352.152.64.376.864.672.232.296.388.664.468 1.104.088.432.088.936 0 1.512h-4.392c.04.672.24 1.176.6 1.512.36.328.896.492 1.608.492.48 0 .892-.068 1.236-.204a4.33 4.33 0 0 0 .864-.444v.948Zm-2.472-4.884c-.456 0-.848.14-1.176.42-.328.28-.536.704-.624 1.272h3.348c.032-.576-.1-1-.396-1.272-.296-.28-.68-.42-1.152-.42ZM83.488 110h-1.092v-7.248l-2.376 1.824v-1.212l2.556-1.968h.912V110Zm5.458.12c-.408 0-.788-.084-1.14-.252a2.513 2.513 0 0 1-.9-.804c-.248-.368-.444-.828-.588-1.38-.144-.56-.216-1.224-.216-1.992s.072-1.428.216-1.98c.144-.56.34-1.02.588-1.38.256-.36.556-.624.9-.792a2.612 2.612 0 0 1 1.14-.252c.408 0 .784.084 1.128.252.344.168.64.432.888.792.248.352.44.804.576 1.356.144.552.216 1.212.216 1.98s-.072 1.432-.216 1.992c-.136.552-.328 1.012-.576 1.38-.248.368-.544.64-.888.816a2.44 2.44 0 0 1-1.128.264Zm-.012-.948c.272 0 .512-.06.72-.18.208-.12.384-.316.528-.588.144-.272.252-.628.324-1.068.08-.448.12-.992.12-1.632 0-.64-.036-1.18-.108-1.62-.072-.448-.18-.808-.324-1.08-.144-.272-.32-.468-.528-.588a1.415 1.415 0 0 0-.72-.18c-.272 0-.516.06-.732.18-.208.12-.388.316-.54.588-.144.272-.256.632-.336 1.08-.072.44-.108.98-.108 1.62 0 .64.036 1.184.108 1.632.08.44.192.796.336 1.068.144.272.32.468.528.588.216.12.46.18.732.18Zm6.61.948a2.61 2.61 0 0 1-1.14-.252 2.513 2.513 0 0 1-.9-.804c-.249-.368-.445-.828-.589-1.38-.144-.56-.216-1.224-.216-1.992s.073-1.428.216-1.98c.144-.56.34-1.02.588-1.38.257-.36.556-.624.9-.792a2.612 2.612 0 0 1 1.14-.252c.408 0 .784.084 1.128.252.344.168.64.432.888.792.249.352.44.804.576 1.356.144.552.216 1.212.216 1.98s-.072 1.432-.216 1.992c-.136.552-.328 1.012-.576 1.38-.248.368-.543.64-.888.816a2.44 2.44 0 0 1-1.128.264Zm-.013-.948c.272 0 .512-.06.72-.18.209-.12.384-.316.528-.588.145-.272.252-.628.325-1.068.08-.448.12-.992.12-1.632 0-.64-.037-1.18-.109-1.62-.072-.448-.18-.808-.323-1.08-.145-.272-.32-.468-.529-.588a1.415 1.415 0 0 0-.72-.18c-.272 0-.516.06-.732.18-.208.12-.388.316-.54.588-.144.272-.255.632-.335 1.08-.073.44-.109.98-.109 1.62 0 .64.037 1.184.109 1.632.08.44.191.796.335 1.068.144.272.32.468.528.588.216.12.46.18.732.18Zm4.642-3.912v-3.864h2.028c.896 0 1.592.196 2.088.588.504.392.756.984.756 1.776 0 .408-.072.76-.216 1.056-.136.296-.336.54-.6.732a2.806 2.806 0 0 1-.924.42c-.36.088-.76.132-1.2.132h-.804v1.02h2.508v.84h-2.508V110h-1.128v-2.04h-.984v-.84h.984v-1.02h-.984v-.84h.984Zm1.128-2.892v2.892h.804c.584 0 1.028-.12 1.332-.36.312-.248.468-.628.468-1.14 0-.472-.136-.82-.408-1.044-.264-.232-.696-.348-1.296-.348h-.9Z"/>
        <rect width="118" height="66" x="211" y="84" fill="#fff" stroke="#67B0F8" stroke-width="2" rx="4"/>
        <path fill="#18123D" d="M248.434 114.12c-.64 0-1.22-.1-1.74-.3-.52-.2-.968-.488-1.344-.864a3.955 3.955 0 0 1-.852-1.392c-.2-.552-.3-1.172-.3-1.86 0-.696.092-1.316.276-1.86a3.657 3.657 0 0 1 .816-1.38c.36-.384.8-.676 1.32-.876.528-.2 1.128-.3 1.8-.3.584 0 1.096.064 1.536.192.44.12.8.264 1.08.432v1.08a3.98 3.98 0 0 0-1.248-.516 5.865 5.865 0 0 0-1.38-.168c-1.016 0-1.768.284-2.256.852-.48.56-.72 1.408-.72 2.544 0 1.144.26 1.996.78 2.556.528.56 1.304.84 2.328.84.44 0 .868-.06 1.284-.18.424-.12.828-.324 1.212-.612v1.08c-.232.184-.572.352-1.02.504-.44.152-.964.228-1.572.228Zm8.765-.12h-1.056v-2.736c-.216.168-.468.3-.756.396-.28.088-.6.132-.96.132-.704 0-1.244-.172-1.62-.516-.368-.352-.552-.912-.552-1.68v-1.824h1.068v1.836c0 .488.112.828.336 1.02.224.192.54.288.948.288.28 0 .552-.04.816-.12.264-.08.504-.204.72-.372v-2.652h1.056V114Zm6.682-.528a3.344 3.344 0 0 1-.324.204 3.758 3.758 0 0 1-.468.216 3.946 3.946 0 0 1-.624.156 3.864 3.864 0 0 1-.78.072c-1.048 0-1.844-.284-2.388-.852-.544-.568-.816-1.364-.816-2.388 0-.504.072-.956.216-1.356.152-.4.36-.736.624-1.008.264-.28.576-.492.936-.636.36-.152.752-.228 1.176-.228a3 3 0 0 1 1.2.228c.352.152.64.376.864.672.232.296.388.664.468 1.104.088.432.088.936 0 1.512h-4.392c.04.672.24 1.176.6 1.512.36.328.896.492 1.608.492.48 0 .892-.068 1.236-.204a4.33 4.33 0 0 0 .864-.444v.948Zm-2.472-4.884c-.456 0-.848.14-1.176.42-.328.28-.536.704-.624 1.272h3.348c.032-.576-.1-1-.396-1.272-.296-.28-.68-.42-1.152-.42Zm6.423.084V114h-1.056v-5.328h-1.956v-.9h5.004v.9h-1.992Zm17.667-1.188c0 .312-.056.604-.168.876a2.104 2.104 0 0 1-1.164 1.152 2.337 2.337 0 0 1-.864.156c-.312 0-.6-.052-.864-.156a2.282 2.282 0 0 1-.696-.456 2.282 2.282 0 0 1-.456-.696 2.432 2.432 0 0 1-.156-.876c0-.32.052-.612.156-.876.112-.272.264-.504.456-.696.2-.192.432-.34.696-.444a2.19 2.19 0 0 1 .864-.168c.312 0 .6.056.864.168.272.104.504.252.696.444.2.192.356.424.468.696.112.264.168.556.168.876ZM280.171 114h-1.452l-3.828-7.068V114h-1.068v-8.604h1.452l3.828 7.068v-7.068h1.068V114Zm1.884-6.516c0 .408.112.744.336 1.008.224.264.528.396.912.396s.688-.132.912-.396c.232-.264.348-.6.348-1.008 0-.408-.116-.744-.348-1.008-.224-.264-.528-.396-.912-.396s-.688.132-.912.396c-.224.264-.336.6-.336 1.008Zm9.969 6.516h-5.484v-1.14a68.501 68.501 0 0 0 1.884-1.56c.536-.456.976-.876 1.32-1.26.344-.384.6-.748.768-1.092.168-.352.252-.716.252-1.092 0-.472-.144-.852-.432-1.14-.28-.296-.692-.444-1.236-.444-.456 0-.88.112-1.272.336a4.3 4.3 0 0 0-1.056.852v-1.212a3.647 3.647 0 0 1 1.032-.708c.384-.176.828-.264 1.332-.264a3.6 3.6 0 0 1 1.188.18c.352.12.644.288.876.504.24.216.42.476.54.78.128.304.192.64.192 1.008 0 .464-.092.9-.276 1.308a4.81 4.81 0 0 1-.792 1.224c-.352.408-.788.832-1.308 1.272a51.9 51.9 0 0 1-1.764 1.416h4.236V114Zm1.174 1.284c.072-.08.144-.176.216-.288a2.95 2.95 0 0 0 .192-.348c.064-.112.112-.224.144-.336a1.73 1.73 0 0 0 .084-.276.727.727 0 0 1-.408-.252.7.7 0 0 1-.156-.456c0-.208.064-.38.192-.516a.708.708 0 0 1 .54-.216.69.69 0 0 1 .54.228c.144.152.216.356.216.612 0 .168-.024.344-.072.528a3.94 3.94 0 0 1-.18.516c-.072.168-.156.32-.252.456-.088.144-.176.26-.264.348h-.792Zm-56.685 6.488h4.992V128h-1.056v-5.328h-2.88V128h-1.056v-6.228Zm9.271 6.348c-.424 0-.82-.072-1.188-.216a2.767 2.767 0 0 1-.96-.624 3.04 3.04 0 0 1-.624-1.02c-.152-.4-.228-.86-.228-1.38 0-.512.076-.968.228-1.368a2.89 2.89 0 0 1 .624-1.02c.272-.272.592-.48.96-.624a3.231 3.231 0 0 1 1.188-.216c.432 0 .832.072 1.2.216.368.144.684.352.948.624.272.272.484.612.636 1.02.16.4.24.856.24 1.368 0 .52-.08.98-.24 1.38-.152.4-.364.74-.636 1.02-.264.272-.58.48-.948.624a3.265 3.265 0 0 1-1.2.216Zm0-.948c.28 0 .536-.044.768-.132.24-.096.448-.236.624-.42.176-.192.312-.432.408-.72.096-.288.144-.628.144-1.02s-.048-.732-.144-1.02a1.855 1.855 0 0 0-.408-.708 1.569 1.569 0 0 0-.624-.42 1.99 1.99 0 0 0-.768-.144c-.28 0-.536.048-.768.144a1.586 1.586 0 0 0-.612.42c-.168.184-.3.42-.396.708a3.234 3.234 0 0 0-.144 1.02c0 .392.048.732.144 1.02.096.288.228.528.396.72.176.184.38.324.612.42.232.088.488.132.768.132Zm5.919-1.824h-.552V128h-1.056v-6.228h1.056v2.676h.6l2.184-2.676h1.2l-2.556 3.072 2.604 3.156h-1.284l-2.196-2.652Zm7.71 2.58a7.132 7.132 0 0 1-.456.984c-.16.288-.34.532-.54.732-.2.2-.424.348-.672.444a2.187 2.187 0 0 1-.852.156c-.16 0-.308-.012-.444-.036a1.336 1.336 0 0 1-.372-.096v-1.02c.088.064.2.112.336.144.136.04.284.06.444.06.296 0 .54-.072.732-.216.192-.136.376-.356.552-.66l-2.532-6.648h1.164l1.98 5.256 1.968-5.256h1.02l-2.328 6.156Zm3.374-6.156h4.992V128h-1.056v-5.328h-2.88V128h-1.056v-6.228Zm8.322 3.576h-.552V128h-1.056v-6.228h1.056v2.676h.6l2.184-2.676h1.2l-2.556 3.072 2.604 3.156h-1.284l-2.196-2.652Zm8.122 1.464a3.648 3.648 0 0 1-.276.456 2.088 2.088 0 0 1-1.02.732c-.224.08-.488.12-.792.12-.56 0-1.012-.156-1.356-.468-.344-.32-.516-.776-.516-1.368 0-.68.236-1.18.708-1.5.48-.32 1.16-.48 2.04-.48h1.164v-.516c0-.432-.112-.74-.336-.924-.224-.184-.608-.276-1.152-.276-.384 0-.748.064-1.092.192-.344.12-.652.26-.924.42v-.948c.224-.136.524-.268.9-.396a3.75 3.75 0 0 1 1.26-.204c.784 0 1.38.164 1.788.492.408.32.612.82.612 1.5v3.6c.008.088.012.18.012.276l.024.276c.008.08.016.148.024.204h-.96a5.482 5.482 0 0 1-.072-.468 7.173 7.173 0 0 1-.024-.54l-.012-.18Zm-1.86.36c.328 0 .608-.068.84-.204.232-.136.42-.292.564-.468.144-.184.248-.36.312-.528.064-.176.096-.3.096-.372v-.456h-1.056c-.632 0-1.092.092-1.38.276-.28.176-.42.444-.42.804 0 .28.084.508.252.684.168.176.432.264.792.264Zm12.446-1.656c0 .4-.076.76-.228 1.08a2.47 2.47 0 0 1-.636.828 2.895 2.895 0 0 1-.972.516 4.09 4.09 0 0 1-1.248.18c-.56 0-1.044-.068-1.452-.204-.408-.136-.74-.312-.996-.528v-1.2c.256.256.592.48 1.008.672.416.184.9.276 1.452.276.592 0 1.056-.14 1.392-.42.344-.28.516-.672.516-1.176 0-.48-.152-.852-.456-1.116-.304-.272-.78-.408-1.428-.408h-1.104v-1.02h1.152c.456 0 .824-.12 1.104-.36.28-.24.42-.588.42-1.044 0-.408-.132-.728-.396-.96-.264-.24-.644-.36-1.14-.36-.512 0-.952.096-1.32.288-.36.192-.688.416-.984.672v-1.176c.28-.232.612-.42.996-.564a3.744 3.744 0 0 1 1.32-.216c.408 0 .776.056 1.104.168.328.104.604.256.828.456.232.2.408.44.528.72.12.272.18.576.18.912 0 .272-.04.516-.12.732-.08.216-.192.404-.336.564-.136.16-.296.296-.48.408-.184.104-.38.18-.588.228.248.04.484.116.708.228.232.112.436.256.612.432.176.168.312.372.408.612.104.232.156.492.156.78Zm3.777 2.604c-.408 0-.788-.084-1.14-.252a2.513 2.513 0 0 1-.9-.804c-.248-.368-.444-.828-.588-1.38-.144-.56-.216-1.224-.216-1.992s.072-1.428.216-1.98c.144-.56.34-1.02.588-1.38.256-.36.556-.624.9-.792a2.612 2.612 0 0 1 1.14-.252c.408 0 .784.084 1.128.252.344.168.64.432.888.792.248.352.44.804.576 1.356.144.552.216 1.212.216 1.98s-.072 1.432-.216 1.992c-.136.552-.328 1.012-.576 1.38-.248.368-.544.64-.888.816a2.44 2.44 0 0 1-1.128.264Zm-.012-.948c.272 0 .512-.06.72-.18.208-.12.384-.316.528-.588.144-.272.252-.628.324-1.068.08-.448.12-.992.12-1.632 0-.64-.036-1.18-.108-1.62-.072-.448-.18-.808-.324-1.08-.144-.272-.32-.468-.528-.588a1.415 1.415 0 0 0-.72-.18c-.272 0-.516.06-.732.18-.208.12-.388.316-.54.588-.144.272-.256.632-.336 1.08-.072.44-.108.98-.108 1.62 0 .64.036 1.184.108 1.632.08.44.192.796.336 1.068.144.272.32.468.528.588.216.12.46.18.732.18Zm4.642-3.912v-3.864h2.028c.896 0 1.592.196 2.088.588.504.392.756.984.756 1.776 0 .408-.072.76-.216 1.056-.136.296-.336.54-.6.732a2.806 2.806 0 0 1-.924.42c-.36.088-.76.132-1.2.132h-.804v1.02h2.508v.84h-2.508V128h-1.128v-2.04h-.984v-.84h.984v-1.02h-.984v-.84h.984Zm1.128-2.892v2.892h.804c.584 0 1.028-.12 1.332-.36.312-.248.468-.628.468-1.14 0-.472-.136-.82-.408-1.044-.264-.232-.696-.348-1.296-.348h-.9ZM279.105 49.16a6.016 6.016 0 0 1-2.16-.384 4.983 4.983 0 0 1-1.744-1.152c-.49-.501-.88-1.12-1.168-1.856-.277-.736-.416-1.584-.416-2.544s.139-1.803.416-2.528c.288-.736.678-1.344 1.168-1.824a4.726 4.726 0 0 1 1.744-1.104 6.016 6.016 0 0 1 2.16-.384 6.06 6.06 0 0 1 2.176.384 4.718 4.718 0 0 1 1.744 1.104c.491.49.875 1.104 1.152 1.84.278.725.416 1.568.416 2.528 0 .95-.138 1.792-.416 2.528-.277.736-.661 1.355-1.152 1.856a4.974 4.974 0 0 1-1.744 1.152 6.06 6.06 0 0 1-2.176.384Zm0-1.36a4.73 4.73 0 0 0 1.536-.24 3.18 3.18 0 0 0 1.216-.784c.352-.363.624-.832.816-1.408.203-.576.304-1.275.304-2.096 0-.821-.101-1.52-.304-2.096-.192-.576-.464-1.04-.816-1.392a2.95 2.95 0 0 0-1.216-.784 4.46 4.46 0 0 0-1.536-.256 4.46 4.46 0 0 0-1.536.256 3.08 3.08 0 0 0-1.232.784c-.341.352-.613.816-.816 1.392-.192.576-.288 1.275-.288 2.096 0 .821.096 1.52.288 2.096.203.576.475 1.045.816 1.408.352.352.763.613 1.232.784.47.16.982.24 1.536.24Zm13.737 1.2h-1.408v-3.648c-.288.224-.624.4-1.008.528-.374.117-.8.176-1.28.176-.939 0-1.659-.23-2.16-.688-.491-.47-.736-1.216-.736-2.24v-2.432h1.424v2.448c0 .65.149 1.104.448 1.36.298.256.72.384 1.264.384.373 0 .736-.053 1.088-.16.352-.107.672-.272.96-.496v-3.536h1.408V49Zm8.91-.704a4.384 4.384 0 0 1-.432.272c-.17.096-.378.192-.624.288a5.234 5.234 0 0 1-.832.208 5.15 5.15 0 0 1-1.04.096c-1.397 0-2.458-.379-3.184-1.136-.725-.757-1.088-1.819-1.088-3.184 0-.672.096-1.275.288-1.808a3.89 3.89 0 0 1 .832-1.344 3.462 3.462 0 0 1 1.248-.848 3.99 3.99 0 0 1 1.568-.304c.598 0 1.131.101 1.6.304.47.203.854.501 1.152.896.31.395.518.885.624 1.472.118.576.118 1.248 0 2.016h-5.856c.054.896.32 1.568.8 2.016.48.437 1.195.656 2.144.656.64 0 1.19-.09 1.648-.272a5.755 5.755 0 0 0 1.152-.592v1.264Zm-3.296-6.512c-.608 0-1.13.187-1.568.56-.437.373-.714.939-.832 1.696h4.464c.043-.768-.133-1.333-.528-1.696-.394-.373-.906-.56-1.536-.56Zm9.474 7.376c-.64 0-1.195-.15-1.664-.448a3.253 3.253 0 0 1-1.104-1.232v4.352h-1.408V40.696h1.232l.144 1.616c.277-.544.65-.976 1.12-1.296.469-.32 1.05-.48 1.744-.48.48 0 .938.09 1.376.272.448.17.837.437 1.168.8.341.352.608.8.8 1.344.202.533.304 1.163.304 1.888 0 .736-.102 1.376-.304 1.92a4.024 4.024 0 0 1-.816 1.344 3.427 3.427 0 0 1-1.184.8c-.448.17-.918.256-1.408.256Zm-.208-1.264c.736 0 1.328-.25 1.776-.752.458-.512.688-1.28.688-2.304 0-1.003-.23-1.76-.688-2.272-.448-.523-1.04-.784-1.776-.784a2.73 2.73 0 0 0-1.024.192c-.31.128-.582.32-.816.576-.224.245-.406.56-.544.944-.128.384-.192.832-.192 1.344 0 .512.064.96.192 1.344.138.384.32.704.544.96.234.256.506.448.816.576.32.117.661.176 1.024.176Zm12.233.4a4.384 4.384 0 0 1-.432.272c-.17.096-.378.192-.624.288a5.234 5.234 0 0 1-.832.208 5.15 5.15 0 0 1-1.04.096c-1.397 0-2.458-.379-3.184-1.136-.725-.757-1.088-1.819-1.088-3.184 0-.672.096-1.275.288-1.808a3.89 3.89 0 0 1 .832-1.344 3.462 3.462 0 0 1 1.248-.848 3.99 3.99 0 0 1 1.568-.304c.598 0 1.131.101 1.6.304.47.203.854.501 1.152.896.31.395.518.885.624 1.472.118.576.118 1.248 0 2.016h-5.856c.054.896.32 1.568.8 2.016.48.437 1.195.656 2.144.656.64 0 1.19-.09 1.648-.272a5.755 5.755 0 0 0 1.152-.592v1.264Zm-3.296-6.512c-.608 0-1.13.187-1.568.56-.437.373-.714.939-.832 1.696h4.464c.043-.768-.133-1.333-.528-1.696-.394-.373-.906-.56-1.536-.56Zm4.85 6.016c.298-.181.533-.464.704-.848.17-.384.304-.87.4-1.456.096-.587.16-1.28.192-2.08.042-.8.08-1.707.112-2.72h5.712V47.8h1.248v3.568h-1.232L328.469 49h-6.176l-.144 2.368h-1.264V47.8h.624Zm5.712 0v-5.904h-3.04c-.054 1.568-.155 2.827-.304 3.776-.139.939-.384 1.648-.736 2.128h4.08Zm10.302-1.568c0 .48-.085.896-.256 1.248-.17.352-.41.64-.72.864-.309.224-.677.39-1.104.496-.426.107-.89.16-1.392.16h-2.752v-8.304h1.408v2.896h1.44c1.056 0 1.883.208 2.48.624.598.416.896 1.088.896 2.016Zm-4.816-1.44V47.8h1.344c.608 0 1.099-.112 1.472-.336.384-.235.576-.619.576-1.152 0-.544-.17-.933-.512-1.168-.341-.235-.821-.352-1.44-.352h-1.44Zm13.709 4.368c-.64 0-1.222-.096-1.744-.288a3.809 3.809 0 0 1-1.312-.848 3.735 3.735 0 0 1-.832-1.36c-.192-.533-.288-1.141-.288-1.824 0-.672.096-1.275.288-1.808a3.75 3.75 0 0 1 .848-1.344 3.5 3.5 0 0 1 1.328-.848c.522-.203 1.114-.304 1.776-.304.512 0 .981.059 1.408.176.426.107.778.267 1.056.48v1.264a3.745 3.745 0 0 0-1.152-.496 4.753 4.753 0 0 0-1.296-.176c-.971 0-1.686.25-2.144.752-.448.501-.672 1.27-.672 2.304 0 1.035.218 1.803.656 2.304.437.501 1.13.752 2.08.752.501 0 .96-.059 1.376-.176.426-.128.81-.288 1.152-.48v1.264a4.904 4.904 0 0 1-2.528.656Zm7.824 0a4.303 4.303 0 0 1-1.584-.288 3.68 3.68 0 0 1-1.28-.832 4.044 4.044 0 0 1-.832-1.36c-.203-.533-.304-1.147-.304-1.84 0-.683.101-1.29.304-1.824.202-.544.48-.997.832-1.36a3.68 3.68 0 0 1 1.28-.832 4.303 4.303 0 0 1 1.584-.288c.576 0 1.109.096 1.6.288.49.192.912.47 1.264.832.362.363.645.816.848 1.36.213.533.32 1.141.32 1.824 0 .693-.107 1.307-.32 1.84a3.938 3.938 0 0 1-.848 1.36 3.53 3.53 0 0 1-1.264.832 4.354 4.354 0 0 1-1.6.288Zm0-1.264a2.87 2.87 0 0 0 1.024-.176c.32-.128.597-.315.832-.56.234-.256.416-.576.544-.96.128-.384.192-.837.192-1.36 0-.523-.064-.976-.192-1.36a2.481 2.481 0 0 0-.544-.944 2.093 2.093 0 0 0-.832-.56 2.657 2.657 0 0 0-1.024-.192 2.65 2.65 0 0 0-1.024.192 2.1 2.1 0 0 0-.816.56c-.224.245-.4.56-.528.944-.128.384-.192.837-.192 1.36 0 .523.064.976.192 1.36.128.384.304.704.528.96.234.245.506.432.816.56.309.117.65.176 1.024.176Zm9.156 1.264a4.31 4.31 0 0 1-1.584-.288 3.69 3.69 0 0 1-1.28-.832 4.06 4.06 0 0 1-.832-1.36c-.203-.533-.304-1.147-.304-1.84 0-.683.101-1.29.304-1.824a3.86 3.86 0 0 1 .832-1.36 3.69 3.69 0 0 1 1.28-.832 4.31 4.31 0 0 1 1.584-.288c.576 0 1.109.096 1.6.288.491.192.912.47 1.264.832.363.363.645.816.848 1.36.213.533.32 1.141.32 1.824 0 .693-.107 1.307-.32 1.84a3.924 3.924 0 0 1-.848 1.36c-.352.363-.773.64-1.264.832a4.354 4.354 0 0 1-1.6.288Zm0-1.264c.373 0 .715-.059 1.024-.176.32-.128.597-.315.832-.56.235-.256.416-.576.544-.96.128-.384.192-.837.192-1.36 0-.523-.064-.976-.192-1.36a2.468 2.468 0 0 0-.544-.944 2.093 2.093 0 0 0-.832-.56 2.653 2.653 0 0 0-1.024-.192c-.373 0-.715.064-1.024.192a2.119 2.119 0 0 0-.816.56c-.224.245-.4.56-.528.944-.128.384-.192.837-.192 1.36 0 .523.064.976.192 1.36.128.384.304.704.528.96.235.245.507.432.816.56.309.117.651.176 1.024.176Zm13.236-3.056c0 .693-.106 1.307-.32 1.84a3.909 3.909 0 0 1-.848 1.36c-.352.363-.773.64-1.264.832a4.35 4.35 0 0 1-1.6.288 4.402 4.402 0 0 1-1.616-.288 3.35 3.35 0 0 1-1.264-.912c-.352-.405-.629-.917-.832-1.536-.192-.619-.288-1.35-.288-2.192 0-.693.022-1.355.064-1.984.043-.63.139-1.21.288-1.744.15-.544.363-1.03.64-1.456.288-.437.672-.8 1.152-1.088.267-.16.544-.277.832-.352.288-.085.576-.15.864-.192.299-.043.598-.07.896-.08l.88-.032a6.201 6.201 0 0 0 1.072-.16 3.12 3.12 0 0 0 .768-.304v1.28c-.234.15-.485.256-.752.32-.256.053-.57.101-.944.144a67.73 67.73 0 0 1-1.68.128c-.501.021-.96.139-1.376.352a2.488 2.488 0 0 0-1.136 1.344c-.213.587-.346 1.285-.4 2.096.555-1.28 1.6-1.92 3.136-1.92.523 0 1.008.096 1.456.288.459.181.854.453 1.184.816.342.363.608.81.8 1.344.192.523.288 1.125.288 1.808Zm-4.032 3.056a2.87 2.87 0 0 0 1.024-.176c.32-.128.598-.315.832-.56.235-.256.416-.576.544-.96.128-.384.192-.837.192-1.36 0-.523-.064-.976-.192-1.36a2.468 2.468 0 0 0-.544-.944 2.086 2.086 0 0 0-.832-.56 2.65 2.65 0 0 0-1.024-.192c-.736 0-1.349.245-1.84.736-.48.49-.72 1.248-.72 2.272 0 .533.064.997.192 1.392.128.384.304.704.528.96.235.256.507.448.816.576.31.117.651.176 1.024.176Zm16.162-.096h1.248v3.568h-1.2L388.634 49h-10.24v-8.304h1.408V47.8h3.072v-7.104h1.408V47.8h3.072v-7.104h1.408V47.8Zm9.178.496a4.636 4.636 0 0 1-1.056.56 5.29 5.29 0 0 1-.832.208c-.31.064-.656.096-1.04.096-1.398 0-2.459-.379-3.184-1.136-.726-.757-1.088-1.819-1.088-3.184 0-.672.096-1.275.288-1.808a3.87 3.87 0 0 1 .832-1.344 3.462 3.462 0 0 1 1.248-.848 3.987 3.987 0 0 1 1.568-.304c.597 0 1.13.101 1.6.304.469.203.853.501 1.152.896.309.395.517.885.624 1.472.117.576.117 1.248 0 2.016h-5.856c.053.896.32 1.568.8 2.016.48.437 1.194.656 2.144.656.64 0 1.189-.09 1.648-.272a5.81 5.81 0 0 0 1.152-.592v1.264Zm-3.296-6.512c-.608 0-1.131.187-1.568.56-.438.373-.715.939-.832 1.696h4.464c.042-.768-.134-1.333-.528-1.696-.395-.373-.907-.56-1.536-.56Zm10.721 3.536h-4.016V49h-1.408v-8.304h1.408v3.424h4.016v-3.424h1.408V49h-1.408v-3.68Zm5.125 1.76 4.432-6.384h1.424V49h-1.408v-6.368L410.522 49h-1.44v-8.304h1.408v6.384Zm11.818-7.488c-.426 0-.8-.053-1.12-.16a2.473 2.473 0 0 1-.784-.464 2.135 2.135 0 0 1-.464-.688 2.533 2.533 0 0 1-.144-.864h1.408c0 .405.096.699.288.88.203.181.475.272.816.272.342 0 .608-.09.8-.272.192-.181.288-.475.288-.88h1.408c0 .608-.208 1.125-.624 1.552-.405.416-1.029.624-1.872.624Zm-2.256 7.488 4.432-6.384h1.424V49H424.5v-6.368L420.084 49h-1.44v-8.304h1.408v6.384Z"/>
        <rect width="118" height="66" x="371" y="84" fill="#fff" stroke="#67B0F8" stroke-width="2" rx="4"/>
        <path fill="#18123D" d="M408.071 114.12c-.64 0-1.22-.1-1.74-.3-.52-.2-.968-.488-1.344-.864a3.955 3.955 0 0 1-.852-1.392c-.2-.552-.3-1.172-.3-1.86 0-.696.092-1.316.276-1.86a3.657 3.657 0 0 1 .816-1.38c.36-.384.8-.676 1.32-.876.528-.2 1.128-.3 1.8-.3.584 0 1.096.064 1.536.192.44.12.8.264 1.08.432v1.08a3.98 3.98 0 0 0-1.248-.516 5.865 5.865 0 0 0-1.38-.168c-1.016 0-1.768.284-2.256.852-.48.56-.72 1.408-.72 2.544 0 1.144.26 1.996.78 2.556.528.56 1.304.84 2.328.84.44 0 .868-.06 1.284-.18.424-.12.828-.324 1.212-.612v1.08c-.232.184-.572.352-1.02.504-.44.152-.964.228-1.572.228Zm8.764-.12h-1.056v-2.736c-.216.168-.468.3-.756.396-.28.088-.6.132-.96.132-.704 0-1.244-.172-1.62-.516-.368-.352-.552-.912-.552-1.68v-1.824h1.068v1.836c0 .488.112.828.336 1.02.224.192.54.288.948.288.28 0 .552-.04.816-.12.264-.08.504-.204.72-.372v-2.652h1.056V114Zm6.683-.528a3.344 3.344 0 0 1-.324.204 3.758 3.758 0 0 1-.468.216 3.946 3.946 0 0 1-.624.156 3.864 3.864 0 0 1-.78.072c-1.048 0-1.844-.284-2.388-.852-.544-.568-.816-1.364-.816-2.388 0-.504.072-.956.216-1.356.152-.4.36-.736.624-1.008.264-.28.576-.492.936-.636.36-.152.752-.228 1.176-.228a3 3 0 0 1 1.2.228c.352.152.64.376.864.672.232.296.388.664.468 1.104.088.432.088.936 0 1.512h-4.392c.04.672.24 1.176.6 1.512.36.328.896.492 1.608.492.48 0 .892-.068 1.236-.204a4.33 4.33 0 0 0 .864-.444v.948Zm-2.472-4.884c-.456 0-.848.14-1.176.42-.328.28-.536.704-.624 1.272h3.348c.032-.576-.1-1-.396-1.272-.296-.28-.68-.42-1.152-.42Zm6.422.084V114h-1.056v-5.328h-1.956v-.9h5.004v.9h-1.992Zm17.668-1.188c0 .312-.056.604-.168.876a2.104 2.104 0 0 1-1.164 1.152 2.337 2.337 0 0 1-.864.156c-.312 0-.6-.052-.864-.156a2.282 2.282 0 0 1-.696-.456 2.282 2.282 0 0 1-.456-.696 2.432 2.432 0 0 1-.156-.876c0-.32.052-.612.156-.876.112-.272.264-.504.456-.696.2-.192.432-.34.696-.444a2.19 2.19 0 0 1 .864-.168c.312 0 .6.056.864.168.272.104.504.252.696.444.2.192.356.424.468.696.112.264.168.556.168.876ZM439.808 114h-1.452l-3.828-7.068V114h-1.068v-8.604h1.452l3.828 7.068v-7.068h1.068V114Zm1.884-6.516c0 .408.112.744.336 1.008.224.264.528.396.912.396s.688-.132.912-.396c.232-.264.348-.6.348-1.008 0-.408-.116-.744-.348-1.008-.224-.264-.528-.396-.912-.396s-.688.132-.912.396c-.224.264-.336.6-.336 1.008Zm8.361 6.516h-1.092v-7.248l-2.376 1.824v-1.212l2.556-1.968h.912V114Zm3.165 1.284c.072-.08.144-.176.216-.288a2.95 2.95 0 0 0 .192-.348c.064-.112.112-.224.144-.336a1.73 1.73 0 0 0 .084-.276.727.727 0 0 1-.408-.252.7.7 0 0 1-.156-.456c0-.208.064-.38.192-.516a.708.708 0 0 1 .54-.216.69.69 0 0 1 .54.228c.144.152.216.356.216.612 0 .168-.024.344-.072.528a3.94 3.94 0 0 1-.18.516c-.072.168-.156.32-.252.456-.088.144-.176.26-.264.348h-.792Zm-67.726 6.488h4.992V128h-1.056v-5.328h-2.88V128h-1.056v-6.228Zm9.271 6.348c-.424 0-.82-.072-1.188-.216a2.767 2.767 0 0 1-.96-.624 3.04 3.04 0 0 1-.624-1.02c-.152-.4-.228-.86-.228-1.38 0-.512.076-.968.228-1.368a2.89 2.89 0 0 1 .624-1.02c.272-.272.592-.48.96-.624a3.231 3.231 0 0 1 1.188-.216c.432 0 .832.072 1.2.216.368.144.684.352.948.624.272.272.484.612.636 1.02.16.4.24.856.24 1.368 0 .52-.08.98-.24 1.38-.152.4-.364.74-.636 1.02-.264.272-.58.48-.948.624a3.265 3.265 0 0 1-1.2.216Zm0-.948c.28 0 .536-.044.768-.132.24-.096.448-.236.624-.42.176-.192.312-.432.408-.72.096-.288.144-.628.144-1.02s-.048-.732-.144-1.02a1.855 1.855 0 0 0-.408-.708 1.569 1.569 0 0 0-.624-.42 1.99 1.99 0 0 0-.768-.144c-.28 0-.536.048-.768.144a1.586 1.586 0 0 0-.612.42c-.168.184-.3.42-.396.708a3.234 3.234 0 0 0-.144 1.02c0 .392.048.732.144 1.02.096.288.228.528.396.72.176.184.38.324.612.42.232.088.488.132.768.132Zm4.311-5.4h4.992V128h-1.056v-5.328h-2.88V128h-1.056v-6.228Zm9.271 6.348c-.424 0-.82-.072-1.188-.216a2.767 2.767 0 0 1-.96-.624 3.04 3.04 0 0 1-.624-1.02c-.152-.4-.228-.86-.228-1.38 0-.512.076-.968.228-1.368a2.89 2.89 0 0 1 .624-1.02c.272-.272.592-.48.96-.624a3.231 3.231 0 0 1 1.188-.216c.432 0 .832.072 1.2.216.368.144.684.352.948.624.272.272.484.612.636 1.02.16.4.24.856.24 1.368 0 .52-.08.98-.24 1.38-.152.4-.364.74-.636 1.02-.264.272-.58.48-.948.624a3.265 3.265 0 0 1-1.2.216Zm0-.948c.28 0 .536-.044.768-.132.24-.096.448-.236.624-.42.176-.192.312-.432.408-.72.096-.288.144-.628.144-1.02s-.048-.732-.144-1.02a1.855 1.855 0 0 0-.408-.708 1.569 1.569 0 0 0-.624-.42 1.99 1.99 0 0 0-.768-.144c-.28 0-.536.048-.768.144a1.586 1.586 0 0 0-.612.42c-.168.184-.3.42-.396.708a3.234 3.234 0 0 0-.144 1.02c0 .392.048.732.144 1.02.096.288.228.528.396.72.176.184.38.324.612.42.232.088.488.132.768.132Zm4.615-1.104c.112-.408.184-.96.216-1.656s.048-1.576.048-2.64h4.188V128h-1.068v-5.328h-2.124a36.75 36.75 0 0 1-.084 2.28c-.04.664-.132 1.224-.276 1.68-.136.456-.34.804-.612 1.044-.264.232-.62.348-1.068.348h-.096a.556.556 0 0 1-.108-.012v-1.044c.04.008.092.012.156.012.408 0 .684-.304.828-.912Zm10.233-.828h-3.012V128h-1.056v-6.228h1.056v2.568h3.012v-2.568h1.056V128h-1.056v-2.76Zm7.743 2.232a3.344 3.344 0 0 1-.324.204 3.758 3.758 0 0 1-.468.216 3.946 3.946 0 0 1-.624.156 3.864 3.864 0 0 1-.78.072c-1.048 0-1.844-.284-2.388-.852-.544-.568-.816-1.364-.816-2.388 0-.504.072-.956.216-1.356.152-.4.36-.736.624-1.008.264-.28.576-.492.936-.636.36-.152.752-.228 1.176-.228a3 3 0 0 1 1.2.228c.352.152.64.376.864.672.232.296.388.664.468 1.104.088.432.088.936 0 1.512h-4.392c.04.672.24 1.176.6 1.512.36.328.896.492 1.608.492.48 0 .892-.068 1.236-.204a4.33 4.33 0 0 0 .864-.444v.948Zm-2.472-4.884c-.456 0-.848.14-1.176.42-.328.28-.536.704-.624 1.272h3.348c.032-.576-.1-1-.396-1.272-.296-.28-.68-.42-1.152-.42Zm8.041 2.652h-3.012V128h-1.056v-6.228h1.056v2.568h3.012v-2.568h1.056V128h-1.056v-2.76Zm3.843 1.32 3.324-4.788h1.068V128h-1.056v-4.776L440.372 128h-1.08v-6.228h1.056v4.788Zm11.072.912a3.344 3.344 0 0 1-.324.204 3.758 3.758 0 0 1-.468.216 3.946 3.946 0 0 1-.624.156 3.864 3.864 0 0 1-.78.072c-1.048 0-1.844-.284-2.388-.852-.544-.568-.816-1.364-.816-2.388 0-.504.072-.956.216-1.356.152-.4.36-.736.624-1.008.264-.28.576-.492.936-.636.36-.152.752-.228 1.176-.228a3 3 0 0 1 1.2.228c.352.152.64.376.864.672.232.296.388.664.468 1.104.088.432.088.936 0 1.512h-4.392c.04.672.24 1.176.6 1.512.36.328.896.492 1.608.492.48 0 .892-.068 1.236-.204a4.33 4.33 0 0 0 .864-.444v.948Zm-2.472-4.884c-.456 0-.848.14-1.176.42-.328.28-.536.704-.624 1.272h3.348c.032-.576-.1-1-.396-1.272-.296-.28-.68-.42-1.152-.42Zm10.21 5.412h-1.092v-7.248l-2.376 1.824v-1.212l2.556-1.968h.912V128Zm5.458.12c-.408 0-.788-.084-1.14-.252a2.513 2.513 0 0 1-.9-.804c-.248-.368-.444-.828-.588-1.38-.144-.56-.216-1.224-.216-1.992s.072-1.428.216-1.98c.144-.56.34-1.02.588-1.38.256-.36.556-.624.9-.792a2.612 2.612 0 0 1 1.14-.252c.408 0 .784.084 1.128.252.344.168.64.432.888.792.248.352.44.804.576 1.356.144.552.216 1.212.216 1.98s-.072 1.432-.216 1.992c-.136.552-.328 1.012-.576 1.38-.248.368-.544.64-.888.816a2.44 2.44 0 0 1-1.128.264Zm-.012-.948c.272 0 .512-.06.72-.18.208-.12.384-.316.528-.588.144-.272.252-.628.324-1.068.08-.448.12-.992.12-1.632 0-.64-.036-1.18-.108-1.62-.072-.448-.18-.808-.324-1.08-.144-.272-.32-.468-.528-.588a1.415 1.415 0 0 0-.72-.18c-.272 0-.516.06-.732.18-.208.12-.388.316-.54.588-.144.272-.256.632-.336 1.08-.072.44-.108.98-.108 1.62 0 .64.036 1.184.108 1.632.08.44.192.796.336 1.068.144.272.32.468.528.588.216.12.46.18.732.18Zm4.641-3.912v-3.864h2.028c.896 0 1.592.196 2.088.588.504.392.756.984.756 1.776 0 .408-.072.76-.216 1.056-.136.296-.336.54-.6.732a2.806 2.806 0 0 1-.924.42c-.36.088-.76.132-1.2.132h-.804v1.02h2.508v.84h-2.508V128h-1.128v-2.04h-.984v-.84h.984v-1.02h-.984v-.84h.984Zm1.128-2.892v2.892h.804c.584 0 1.028-.12 1.332-.36.312-.248.468-.628.468-1.14 0-.472-.136-.82-.408-1.044-.264-.232-.696-.348-1.296-.348h-.9Z"/>
        <g filter="url(#filter1_d_1_8)">
            <path fill="#fff" d="M691.431 173H578.569a3.57 3.57 0 0 1-3.569-3.569V28.976A3.976 3.976 0 0 1 578.976 25h112.455A3.57 3.57 0 0 1 695 28.57v140.86a3.57 3.57 0 0 1-3.569 3.569Z"/>
        </g>
        <path fill="#18123D" d="M599.583 94.396h6.468V103h-1.14v-7.572h-4.2V103h-1.128v-8.604Zm11.461 8.724c-.48 0-.896-.112-1.248-.336a2.444 2.444 0 0 1-.828-.924v3.264h-1.056v-8.352h.924l.108 1.212c.208-.408.488-.732.84-.972s.788-.36 1.308-.36c.36 0 .704.068 1.032.204.336.128.628.328.876.6.256.264.456.6.6 1.008.152.4.228.872.228 1.416 0 .552-.076 1.032-.228 1.44a3.01 3.01 0 0 1-.612 1.008 2.566 2.566 0 0 1-.888.6 2.941 2.941 0 0 1-1.056.192Zm-.156-.948c.552 0 .996-.188 1.332-.564.344-.384.516-.96.516-1.728 0-.752-.172-1.32-.516-1.704-.336-.392-.78-.588-1.332-.588-.272 0-.528.048-.768.144a1.71 1.71 0 0 0-.612.432c-.168.184-.304.42-.408.708a3.191 3.191 0 0 0-.144 1.008c0 .384.048.72.144 1.008.104.288.24.528.408.72.176.192.38.336.612.432.24.088.496.132.768.132Zm5.275-.612 3.324-4.788h1.068V103h-1.056v-4.776L616.187 103h-1.08v-6.228h1.056v4.788Zm6.596-.492c.112-.408.184-.96.216-1.656s.048-1.576.048-2.64h4.188V103h-1.068v-5.328h-2.124a36.75 36.75 0 0 1-.084 2.28c-.04.664-.132 1.224-.276 1.68-.136.456-.34.804-.612 1.044-.264.232-.62.348-1.068.348h-.096a.556.556 0 0 1-.108-.012v-1.044c.04.008.092.012.156.012.408 0 .684-.304.828-.912Zm8.72 2.052c-.424 0-.82-.072-1.188-.216a2.767 2.767 0 0 1-.96-.624 3.04 3.04 0 0 1-.624-1.02c-.152-.4-.228-.86-.228-1.38 0-.512.076-.968.228-1.368a2.89 2.89 0 0 1 .624-1.02c.272-.272.592-.48.96-.624a3.231 3.231 0 0 1 1.188-.216c.432 0 .832.072 1.2.216.368.144.684.352.948.624.272.272.484.612.636 1.02.16.4.24.856.24 1.368 0 .52-.08.98-.24 1.38-.152.4-.364.74-.636 1.02-.264.272-.58.48-.948.624a3.265 3.265 0 0 1-1.2.216Zm0-.948c.28 0 .536-.044.768-.132.24-.096.448-.236.624-.42.176-.192.312-.432.408-.72.096-.288.144-.628.144-1.02s-.048-.732-.144-1.02a1.855 1.855 0 0 0-.408-.708 1.569 1.569 0 0 0-.624-.42 1.99 1.99 0 0 0-.768-.144c-.28 0-.536.048-.768.144a1.586 1.586 0 0 0-.612.42c-.168.184-.3.42-.396.708a3.234 3.234 0 0 0-.144 1.02c0 .392.048.732.144 1.02.096.288.228.528.396.72.176.184.38.324.612.42.232.088.488.132.768.132Zm8.313-5.4v2.676h.564l1.98-2.676h1.164l-2.316 3.048 2.4 3.18H642.3l-1.992-2.652h-.516V103h-1.056v-2.652h-.528L636.192 103h-1.248l2.4-3.144-2.316-3.084h1.212l1.944 2.676h.552v-2.676h1.056Zm9.626 5.7a3.344 3.344 0 0 1-.324.204 3.758 3.758 0 0 1-.468.216 3.946 3.946 0 0 1-.624.156 3.864 3.864 0 0 1-.78.072c-1.048 0-1.844-.284-2.388-.852-.544-.568-.816-1.364-.816-2.388 0-.504.072-.956.216-1.356.152-.4.36-.736.624-1.008.264-.28.576-.492.936-.636.36-.152.752-.228 1.176-.228a3 3 0 0 1 1.2.228c.352.152.64.376.864.672.232.296.388.664.468 1.104.088.432.088.936 0 1.512h-4.392c.04.672.24 1.176.6 1.512.36.328.896.492 1.608.492.48 0 .892-.068 1.236-.204a4.33 4.33 0 0 0 .864-.444v.948Zm-2.472-4.884c-.456 0-.848.14-1.176.42-.328.28-.536.704-.624 1.272h3.348c.032-.576-.1-1-.396-1.272-.296-.28-.68-.42-1.152-.42Zm8.041 2.652h-3.012V103h-1.056v-6.228h1.056v2.568h3.012v-2.568h1.056V103h-1.056v-2.76Zm3.844 1.32 3.324-4.788h1.068V103h-1.056v-4.776L658.855 103h-1.08v-6.228h1.056v4.788Zm11.072.912a3.344 3.344 0 0 1-.324.204 3.758 3.758 0 0 1-.468.216 3.946 3.946 0 0 1-.624.156 3.864 3.864 0 0 1-.78.072c-1.048 0-1.844-.284-2.388-.852-.544-.568-.816-1.364-.816-2.388 0-.504.072-.956.216-1.356.152-.4.36-.736.624-1.008.264-.28.576-.492.936-.636.36-.152.752-.228 1.176-.228a3 3 0 0 1 1.2.228c.352.152.64.376.864.672.232.296.388.664.468 1.104.088.432.088.936 0 1.512h-4.392c.04.672.24 1.176.6 1.512.36.328.896.492 1.608.492.48 0 .892-.068 1.236-.204a4.33 4.33 0 0 0 .864-.444v.948Zm-2.472-4.884c-.456 0-.848.14-1.176.42-.328.28-.536.704-.624 1.272h3.348c.032-.576-.1-1-.396-1.272-.296-.28-.68-.42-1.152-.42Z"/>
        <path fill="#4E496B" d="m170 99-10-5.773v11.547L170 99Zm-9-1h-36v2h36v-2Zm414 1-10-5.773v11.547L575 99Zm-9-1h-36v2h36v-2Z"/>
    </g>
    <defs>
        <filter id="filter0_d_1_8" width="374.336" height="198.336" x="162.832" y="-.168" color-interpolation-filters="sRGB" filterUnits="userSpaceOnUse">
            <feFlood flood-opacity="0" result="BackgroundImageFix"/>
            <feColorMatrix in="SourceAlpha" result="hardAlpha" values="0 0 0 0 0 0 0 0 0 0 0 0 0 0 0 0 0 0 127 0"/>
            <feOffset/>
            <feGaussianBlur stdDeviation="3.584"/>
            <feColorMatrix values="0 0 0 0 0.592157 0 0 0 0 0.74902 0 0 0 0 0.905882 0 0 0 0.4 0"/>
            <feBlend in2="BackgroundImageFix" result="effect1_dropShadow_1_8"/>
            <feBlend in="SourceGraphic" in2="effect1_dropShadow_1_8" result="shape"/>
        </filter>
        <filter id="filter1_d_1_8" width="134.336" height="162.336" x="567.832" y="17.832" color-interpolation-filters="sRGB" filterUnits="userSpaceOnUse">
            <feFlood flood-opacity="0" result="BackgroundImageFix"/>
            <feColorMatrix in="SourceAlpha" result="hardAlpha" values="0 0 0 0 0 0 0 0 0 0 0 0 0 0 0 0 0 0 127 0"/>
            <feOffset/>
            <feGaussianBlur stdDeviation="3.584"/>
            <feColorMatrix values="0 0 0 0 0.592157 0 0 0 0 0.74902 0 0 0 0 0.905882 0 0 0 0.4 0"/>
            <feBlend in2="BackgroundImageFix" result="effect1_dropShadow_1_8"/>
            <feBlend in="SourceGraphic" in2="effect1_dropShadow_1_8" result="shape"/>
        </filter>
        <clipPath id="clip0_1_8">
            <path fill="#fff" d="M0 0h701v199H0z"/>
        </clipPath>
    </defs>
</svg>
