<svg xmlns="http://www.w3.org/2000/svg" width="700" height="442" fill="none" viewBox="0 0 700 442">
    <path fill="#000" fill-opacity=".7" d="m349.921 227-10-5.773v11.547l10-5.774ZM196 228h144.922v-2H196v2Zm-82-23.021 5.774-10h-11.548l5.774 10ZM113 165v30.978h2V165h-2Zm236.921 146-10-5.773v11.547l10-5.774ZM196 312h144.922v-2H196v2Zm153.921 83-10-5.773v11.547l10-5.774ZM196 396h144.922v-2H196v2Zm472.921-175-10-5.773v11.547l10-5.774ZM515 222h144.922v-2H515v2Z"/>
    <rect width="163" height="42" x="32" y="206" fill="#fff" stroke="#67B0F8" stroke-width="2" rx="4"/>
    <path fill="#18123D" d="M77.856 226.863c0 .504.08.933.238 1.288.159.345.373.63.644.854.28.215.606.373.98.476.382.103.793.163 1.232.182v-5.586a5.17 5.17 0 0 0-1.232.196c-.374.103-.7.261-.98.476-.27.215-.486.495-.644.84-.159.345-.238.77-.238 1.274Zm7.518.028c0-.504-.08-.929-.238-1.274a2.166 2.166 0 0 0-.658-.854 2.554 2.554 0 0 0-.98-.49 5.463 5.463 0 0 0-1.218-.182v5.586a5.463 5.463 0 0 0 1.218-.182c.382-.103.71-.261.98-.476.28-.224.5-.509.658-.854.159-.345.238-.77.238-1.274Zm-3.094-5.152v1.288a6.597 6.597 0 0 1 1.764.28 4.13 4.13 0 0 1 1.428.714c.401.317.714.714.938 1.19.233.467.35 1.013.35 1.638s-.117 1.176-.35 1.652a3.397 3.397 0 0 1-.938 1.204c-.401.317-.877.56-1.428.728a6.597 6.597 0 0 1-1.764.28v1.316h-1.33v-1.316a6.378 6.378 0 0 1-1.778-.266 4.48 4.48 0 0 1-1.414-.714 3.435 3.435 0 0 1-.952-1.176c-.224-.476-.336-1.027-.336-1.652s.112-1.176.336-1.652a3.39 3.39 0 0 1 .952-1.19 4.167 4.167 0 0 1 1.414-.742 6.412 6.412 0 0 1 1.778-.294v-1.288h1.33Zm10.337 8.764a4.276 4.276 0 0 1-.323.532 2.434 2.434 0 0 1-1.19.854 2.75 2.75 0 0 1-.924.14c-.653 0-1.18-.182-1.582-.546-.4-.373-.602-.905-.602-1.596 0-.793.276-1.377.827-1.75.56-.373 1.353-.56 2.38-.56h1.358v-.602c0-.504-.131-.863-.393-1.078-.26-.215-.709-.322-1.344-.322-.448 0-.872.075-1.273.224-.402.14-.761.303-1.079.49v-1.106a5.405 5.405 0 0 1 1.05-.462 4.367 4.367 0 0 1 1.47-.238c.915 0 1.61.191 2.087.574.476.373.714.957.714 1.75v4.2a3.7 3.7 0 0 1 .013.322l.029.322c.009.093.018.173.028.238h-1.12a6.439 6.439 0 0 1-.084-.546 8.42 8.42 0 0 1-.029-.63l-.013-.21Zm-2.17.42c.382 0 .709-.079.98-.238.27-.159.49-.341.657-.546.168-.215.29-.42.364-.616.075-.205.113-.35.113-.434v-.532h-1.233c-.737 0-1.273.107-1.61.322-.326.205-.49.518-.49.938 0 .327.099.593.294.798.197.205.504.308.924.308Zm8.489-7.266c-.374 0-.7-.047-.98-.14a2.16 2.16 0 0 1-.686-.406 1.848 1.848 0 0 1-.406-.602 2.213 2.213 0 0 1-.126-.756h1.232c0 .355.084.611.252.77.177.159.415.238.714.238.298 0 .532-.079.7-.238.168-.159.252-.415.252-.77h1.232c0 .532-.182.985-.546 1.358-.355.364-.901.546-1.638.546Zm-1.974 6.552 3.878-5.586h1.246v7.266h-1.232v-5.572l-3.864 5.572h-1.26v-7.266h1.232v5.586Zm7.695-.574c.131-.476.215-1.12.252-1.932a69.86 69.86 0 0 0 .056-3.08h4.886v7.266h-1.246v-6.216h-2.478a42.616 42.616 0 0 1-.098 2.66c-.047.775-.154 1.428-.322 1.96-.159.532-.397.938-.714 1.218-.308.271-.723.406-1.246.406h-.112a.682.682 0 0 1-.126-.014v-1.218a.988.988 0 0 0 .182.014c.476 0 .798-.355.966-1.064Zm10.828 0c.131-.476.215-1.12.252-1.932a69.86 69.86 0 0 0 .056-3.08h4.886v7.266h-1.246v-6.216h-2.478a42.616 42.616 0 0 1-.098 2.66c-.047.775-.154 1.428-.322 1.96-.159.532-.397.938-.714 1.218-.308.271-.723.406-1.246.406h-.112a.682.682 0 0 1-.126-.014v-1.218a.988.988 0 0 0 .182.014c.476 0 .798-.355.966-1.064Zm10.174 2.394c-.495 0-.957-.084-1.386-.252a3.233 3.233 0 0 1-1.12-.728 3.542 3.542 0 0 1-.728-1.19c-.177-.467-.266-1.003-.266-1.61 0-.597.089-1.129.266-1.596.177-.476.42-.873.728-1.19.317-.317.691-.56 1.12-.728a3.767 3.767 0 0 1 1.386-.252c.504 0 .971.084 1.4.252.429.168.798.411 1.106.728.317.317.565.714.742 1.19.187.467.28.999.28 1.596 0 .607-.093 1.143-.28 1.61a3.433 3.433 0 0 1-.742 1.19c-.308.317-.677.56-1.106.728a3.807 3.807 0 0 1-1.4.252Zm0-1.106a2.5 2.5 0 0 0 .896-.154 2.04 2.04 0 0 0 .728-.49c.205-.224.364-.504.476-.84.112-.336.168-.733.168-1.19 0-.457-.056-.854-.168-1.19a2.17 2.17 0 0 0-.476-.826 1.831 1.831 0 0 0-.728-.49 2.322 2.322 0 0 0-.896-.168c-.327 0-.625.056-.896.168a1.849 1.849 0 0 0-.714.49c-.196.215-.35.49-.462.826a3.775 3.775 0 0 0-.168 1.19c0 .457.056.854.168 1.19.112.336.266.616.462.84.205.215.443.378.714.49a2.5 2.5 0 0 0 .896.154Zm5.03-6.3h4.62v1.05h-3.388v6.216h-1.232v-7.266Zm8.888 7.406c-.495 0-.957-.084-1.386-.252a3.233 3.233 0 0 1-1.12-.728 3.542 3.542 0 0 1-.728-1.19c-.177-.467-.266-1.003-.266-1.61 0-.597.089-1.129.266-1.596.177-.476.42-.873.728-1.19.317-.317.691-.56 1.12-.728a3.767 3.767 0 0 1 1.386-.252c.504 0 .971.084 1.4.252.429.168.798.411 1.106.728.317.317.565.714.742 1.19.187.467.28.999.28 1.596 0 .607-.093 1.143-.28 1.61a3.433 3.433 0 0 1-.742 1.19c-.308.317-.677.56-1.106.728a3.807 3.807 0 0 1-1.4.252Zm0-1.106a2.5 2.5 0 0 0 .896-.154 2.04 2.04 0 0 0 .728-.49c.205-.224.364-.504.476-.84.112-.336.168-.733.168-1.19 0-.457-.056-.854-.168-1.19a2.17 2.17 0 0 0-.476-.826 1.831 1.831 0 0 0-.728-.49 2.322 2.322 0 0 0-.896-.168c-.327 0-.625.056-.896.168a1.849 1.849 0 0 0-.714.49c-.196.215-.35.49-.462.826a3.775 3.775 0 0 0-.168 1.19c0 .457.056.854.168 1.19.112.336.266.616.462.84.205.215.443.378.714.49a2.5 2.5 0 0 0 .896.154Zm5.03-6.3h2.716c.877 0 1.54.154 1.988.462.448.299.672.77.672 1.414 0 .429-.112.775-.336 1.036-.215.252-.523.434-.924.546 1.036.168 1.554.742 1.554 1.722 0 .373-.075.695-.224.966a1.86 1.86 0 0 1-.616.644 2.754 2.754 0 0 1-.952.364 5.904 5.904 0 0 1-1.19.112h-2.688v-7.266Zm1.232 1.05v1.974h1.372c.466 0 .84-.084 1.12-.252.289-.168.434-.411.434-.728 0-.383-.126-.644-.378-.784s-.612-.21-1.078-.21h-1.47Zm0 2.954v2.212h1.442c.261 0 .494-.014.7-.042a1.71 1.71 0 0 0 .546-.182.912.912 0 0 0 .364-.336.991.991 0 0 0 .126-.518c0-.42-.145-.714-.434-.882-.29-.168-.724-.252-1.302-.252h-1.442Z"/>
    <rect width="163" height="138" x="32" y="26" fill="#fff" stroke="#67B0F8" stroke-width="2" rx="4"/>
    <path fill="#18123D" d="M72.697 89.517h7.546v10.038h-1.33v-8.834h-4.9v8.834h-1.317V89.517Zm13.37 10.178c-.56 0-1.045-.13-1.456-.391a2.849 2.849 0 0 1-.966-1.079v3.809h-1.232v-9.745h1.078l.126 1.415a2.98 2.98 0 0 1 .98-1.134c.41-.28.92-.42 1.526-.42.42 0 .822.079 1.204.237.392.15.733.383 1.022.7.299.308.532.7.7 1.176.178.467.266 1.018.266 1.652 0 .644-.088 1.204-.266 1.68a3.513 3.513 0 0 1-.714 1.177 2.993 2.993 0 0 1-1.036.7 3.43 3.43 0 0 1-1.232.224Zm-.182-1.105c.644 0 1.162-.22 1.554-.659.402-.447.602-1.12.602-2.016 0-.877-.2-1.54-.602-1.988-.392-.457-.91-.686-1.554-.686a2.39 2.39 0 0 0-.896.168c-.27.112-.508.28-.714.504-.196.215-.354.49-.476.827a3.723 3.723 0 0 0-.168 1.175c0 .448.056.84.168 1.176.122.337.28.617.476.84.206.225.444.392.714.505.28.102.579.153.896.153Zm6.155-.715 3.878-5.585h1.246v7.265h-1.232v-5.572l-3.864 5.572h-1.26V92.29h1.232v5.587Zm7.695-.573c.13-.477.215-1.12.252-1.933.037-.811.056-1.838.056-3.08h4.886v7.266h-1.246V93.34h-2.478a42.613 42.613 0 0 1-.098 2.66c-.047.775-.154 1.428-.322 1.96-.159.532-.397.938-.714 1.218-.308.271-.723.406-1.246.406h-.112a.643.643 0 0 1-.126-.013v-1.218a1 1 0 0 0 .182.013c.476 0 .798-.354.966-1.063Zm10.174 2.393c-.495 0-.957-.083-1.386-.251a3.227 3.227 0 0 1-1.12-.728 3.541 3.541 0 0 1-.728-1.19c-.177-.467-.266-1.004-.266-1.61 0-.598.089-1.13.266-1.596.177-.476.42-.873.728-1.19.317-.318.691-.56 1.12-.728a3.767 3.767 0 0 1 1.386-.252c.504 0 .971.084 1.4.251.429.169.798.411 1.106.728.317.318.565.715.742 1.19.187.467.28 1 .28 1.596 0 .607-.093 1.144-.28 1.61a3.432 3.432 0 0 1-.742 1.19 3.09 3.09 0 0 1-1.106.728 3.807 3.807 0 0 1-1.4.252Zm0-1.105c.327 0 .625-.052.896-.154.28-.113.523-.276.728-.49.205-.224.364-.504.476-.84a3.78 3.78 0 0 0 .168-1.19c0-.458-.056-.855-.168-1.19a2.168 2.168 0 0 0-.476-.826 1.828 1.828 0 0 0-.728-.49 2.322 2.322 0 0 0-.896-.168c-.327 0-.625.055-.896.167a1.845 1.845 0 0 0-.714.49c-.196.215-.35.49-.462.826a3.774 3.774 0 0 0-.168 1.19c0 .458.056.854.168 1.19.112.337.266.617.462.84.205.215.443.379.714.49a2.5 2.5 0 0 0 .896.154Zm9.698-6.3v3.121h.658l2.31-3.121h1.358l-2.702 3.555 2.8 3.71h-1.498l-2.324-3.094h-.602v3.094h-1.232v-3.094h-.616l-2.352 3.094h-1.456l2.8-3.668-2.702-3.597h1.414l2.268 3.121h.644V92.29h1.232Zm11.231 6.65a3.979 3.979 0 0 1-.924.49 4.593 4.593 0 0 1-.728.181 4.51 4.51 0 0 1-.91.084c-1.223 0-2.151-.33-2.786-.993-.635-.663-.952-1.592-.952-2.787 0-.588.084-1.115.252-1.582a3.39 3.39 0 0 1 .728-1.175 3.03 3.03 0 0 1 1.092-.743 3.49 3.49 0 0 1 1.372-.266 3.5 3.5 0 0 1 1.4.266c.411.178.747.44 1.008.784.271.346.453.775.546 1.288.103.505.103 1.093 0 1.764h-5.124c.047.784.28 1.373.7 1.764.42.383 1.045.575 1.876.575.56 0 1.041-.08 1.442-.239a5.064 5.064 0 0 0 1.008-.517v1.105Zm-2.884-5.698c-.532 0-.989.163-1.372.49-.383.326-.625.82-.728 1.484h3.906c.037-.672-.117-1.167-.462-1.484-.345-.327-.793-.49-1.344-.49Zm9.381 3.093h-3.514v3.22h-1.232V92.29h1.232v2.996h3.514V92.29h1.232v7.265h-1.232v-3.22Zm4.484 1.54 3.878-5.585h1.246v7.265h-1.232v-5.572l-3.864 5.572h-1.26V92.29h1.232v5.587Zm12.917 1.064a3.738 3.738 0 0 1-.378.239 4.34 4.34 0 0 1-.546.252 4.566 4.566 0 0 1-.728.181c-.27.056-.574.084-.91.084-1.222 0-2.151-.33-2.786-.993-.634-.663-.952-1.592-.952-2.787 0-.588.084-1.115.252-1.582.178-.466.42-.858.728-1.175a3.03 3.03 0 0 1 1.092-.743 3.5 3.5 0 0 1 1.372-.266c.523 0 .99.09 1.4.266.411.178.747.44 1.008.784.271.346.453.775.546 1.288.103.505.103 1.093 0 1.764h-5.124c.047.784.28 1.373.7 1.764.42.383 1.046.575 1.876.575.56 0 1.041-.08 1.442-.239a5.01 5.01 0 0 0 1.008-.517v1.105Zm-2.884-5.697c-.532 0-.989.163-1.372.49-.382.326-.625.82-.728 1.484h3.906c.038-.672-.116-1.167-.462-1.484-.345-.327-.793-.49-1.344-.49Z"/>
    <rect width="163" height="390" x="351" y="26" fill="#fff" stroke="#67B0F8" stroke-width="2" rx="4"/>
    <path fill="#18123D" d="M397.445 206.084h2.544l4.064 11.472h-2l-1.056-3.008h-4.832l-1.056 3.008h-1.712l4.048-11.472Zm2.96 6.8-1.824-5.168-1.824 5.168h3.648Zm4.947-3.632h5.472v1.504h-3.616v6.8h-1.856v-8.304Zm11.561 8.464c-.629 0-1.173-.139-1.632-.416a3.315 3.315 0 0 1-1.088-1.152v4.24h-1.856v-11.136h1.696l.128 1.472a3.182 3.182 0 0 1 1.104-1.184c.459-.299 1.019-.448 1.68-.448.491 0 .955.09 1.392.272.448.17.837.437 1.168.8.331.352.592.8.784 1.344.203.533.304 1.162.304 1.888 0 .736-.101 1.376-.304 1.92a3.83 3.83 0 0 1-.8 1.344c-.331.352-.72.618-1.168.8-.448.17-.917.256-1.408.256Zm-.448-1.552c.661 0 1.195-.224 1.6-.672.416-.459.624-1.158.624-2.096 0-.928-.208-1.622-.624-2.08-.405-.459-.933-.688-1.584-.688-.331 0-.635.058-.912.176a1.907 1.907 0 0 0-.736.512 2.557 2.557 0 0 0-.48.88 3.7 3.7 0 0 0-.176 1.2c0 .469.059.88.176 1.232.117.341.277.629.48.864.203.224.443.394.72.512.288.106.592.16.912.16Zm12.644.784a9.7 9.7 0 0 1-.432.256 4.33 4.33 0 0 1-.608.24 6.416 6.416 0 0 1-.816.192 6.29 6.29 0 0 1-1.056.08c-1.525 0-2.667-.379-3.424-1.136-.747-.758-1.12-1.819-1.12-3.184 0-.672.101-1.275.304-1.808.203-.534.485-.982.848-1.344a3.552 3.552 0 0 1 1.296-.848 4.35 4.35 0 0 1 1.648-.304c.619 0 1.173.101 1.664.304.501.202.912.506 1.232.912.32.405.539.906.656 1.504.128.597.133 1.296.016 2.096h-5.744c.075.757.325 1.328.752 1.712.427.373 1.093.56 2 .56.661 0 1.211-.08 1.648-.24a7.703 7.703 0 0 0 1.136-.528v1.536Zm-3.36-6.384c-.544 0-1.003.165-1.376.496-.373.33-.619.821-.736 1.472h3.904c.021-.672-.128-1.168-.448-1.488-.32-.32-.768-.48-1.344-.48Zm5.291-1.312h5.472v1.504h-3.616v6.8h-1.856v-8.304Zm11.565 6.848a2.745 2.745 0 0 1-.352.576 2.446 2.446 0 0 1-.528.528 2.639 2.639 0 0 1-.736.368 3.191 3.191 0 0 1-1.008.144c-.362 0-.698-.054-1.008-.16a2.271 2.271 0 0 1-.816-.448 2.328 2.328 0 0 1-.544-.752 2.746 2.746 0 0 1-.192-1.056c0-.907.336-1.584 1.008-2.032.672-.459 1.622-.688 2.848-.688h1.264v-.512c0-.544-.138-.918-.416-1.12-.277-.214-.736-.32-1.376-.32-.544 0-1.056.08-1.536.24a6.729 6.729 0 0 0-1.248.528v-1.552c.331-.182.768-.352 1.312-.512a6.272 6.272 0 0 1 1.776-.24c1.067 0 1.888.224 2.464.672.587.437.88 1.141.88 2.112v4.672c.011.117.016.24.016.368l.032.368c.011.106.022.197.032.272h-1.712a7.396 7.396 0 0 1-.096-.624 27.094 27.094 0 0 1-.048-.72l-.016-.112Zm-2.112.176c.395 0 .72-.08.976-.24.267-.171.48-.363.64-.576a2.26 2.26 0 0 0 .336-.656c.064-.214.096-.363.096-.448v-.56h-1.152c-.736 0-1.274.117-1.616.352a1.082 1.082 0 0 0-.512.96c0 .362.102.65.304.864.214.202.523.304.928.304Zm9.509-5.52v6.8h-1.856v-6.8h-2.512v-1.504h6.928v1.504h-2.56Zm7.372 6.96a4.53 4.53 0 0 1-1.632-.288 3.842 3.842 0 0 1-1.312-.832 4.154 4.154 0 0 1-.864-1.36c-.202-.534-.304-1.147-.304-1.84 0-.694.102-1.307.304-1.84a3.95 3.95 0 0 1 .864-1.344 3.526 3.526 0 0 1 1.312-.832 4.53 4.53 0 0 1 1.632-.288c.587 0 1.131.096 1.632.288a3.51 3.51 0 0 1 1.312.832c.374.362.667.81.88 1.344.214.533.32 1.146.32 1.84 0 .693-.106 1.306-.32 1.84a3.988 3.988 0 0 1-.88 1.36c-.373.362-.81.64-1.312.832a4.523 4.523 0 0 1-1.632.288Zm0-1.552c.64 0 1.168-.224 1.584-.672.427-.448.64-1.147.64-2.096 0-.939-.213-1.632-.64-2.08-.416-.459-.944-.688-1.584-.688-.629 0-1.157.229-1.584.688-.416.448-.624 1.141-.624 2.08 0 .949.208 1.648.624 2.096a2.1 2.1 0 0 0 1.584.672Zm10.273 1.552c-.629 0-1.173-.139-1.632-.416a3.324 3.324 0 0 1-1.088-1.152v4.24h-1.856v-11.136h1.696l.128 1.472a3.198 3.198 0 0 1 1.104-1.184c.459-.299 1.019-.448 1.68-.448.491 0 .955.09 1.392.272a3 3 0 0 1 1.168.8c.331.352.592.8.784 1.344.203.533.304 1.162.304 1.888 0 .736-.101 1.376-.304 1.92a3.814 3.814 0 0 1-.8 1.344c-.33.352-.72.618-1.168.8-.448.17-.917.256-1.408.256Zm-.448-1.552c.662 0 1.195-.224 1.6-.672.416-.459.624-1.158.624-2.096 0-.928-.208-1.622-.624-2.08-.405-.459-.933-.688-1.584-.688-.33 0-.634.058-.912.176a1.915 1.915 0 0 0-.736.512 2.59 2.59 0 0 0-.48.88 3.7 3.7 0 0 0-.176 1.2c0 .469.059.88.176 1.232.118.341.278.629.48.864.203.224.443.394.72.512.288.106.592.16.912.16Zm-54.517 16.448c.117-.544.192-1.248.224-2.112.043-.875.064-1.958.064-3.248h5.968v8.304h-1.856v-6.8h-2.416a52.083 52.083 0 0 1-.128 2.912c-.064.842-.197 1.557-.4 2.144-.192.576-.475 1.018-.848 1.328-.363.309-.853.464-1.472.464a2.2 2.2 0 0 1-.256-.016 2.07 2.07 0 0 1-.24-.016v-1.728c.107.021.187.032.24.032a.856.856 0 0 0 .688-.304c.181-.214.325-.534.432-.96Zm11.958 3.104a4.523 4.523 0 0 1-1.632-.288 3.832 3.832 0 0 1-1.312-.832 4.122 4.122 0 0 1-.864-1.36c-.203-.534-.304-1.147-.304-1.84 0-.694.101-1.307.304-1.84a3.92 3.92 0 0 1 .864-1.344 3.518 3.518 0 0 1 1.312-.832 4.523 4.523 0 0 1 1.632-.288c.587 0 1.131.096 1.632.288.501.181.939.458 1.312.832.373.362.667.81.88 1.344.213.533.32 1.146.32 1.84 0 .693-.107 1.306-.32 1.84a4.003 4.003 0 0 1-.88 1.36c-.373.362-.811.64-1.312.832a4.523 4.523 0 0 1-1.632.288Zm0-1.552c.64 0 1.168-.224 1.584-.672.427-.448.64-1.147.64-2.096 0-.939-.213-1.632-.64-2.08-.416-.459-.944-.688-1.584-.688-.629 0-1.157.229-1.584.688-.416.448-.624 1.141-.624 2.08 0 .949.208 1.648.624 2.096a2.1 2.1 0 0 0 1.584.672Zm5.697-6.912h5.472v1.504h-3.616v6.8h-1.856v-8.304Zm10.381 8.464a4.523 4.523 0 0 1-1.632-.288 3.832 3.832 0 0 1-1.312-.832 4.122 4.122 0 0 1-.864-1.36c-.203-.534-.304-1.147-.304-1.84 0-.694.101-1.307.304-1.84a3.92 3.92 0 0 1 .864-1.344 3.518 3.518 0 0 1 1.312-.832 4.523 4.523 0 0 1 1.632-.288c.587 0 1.131.096 1.632.288.501.181.939.458 1.312.832.373.362.667.81.88 1.344.213.533.32 1.146.32 1.84 0 .693-.107 1.306-.32 1.84a4.003 4.003 0 0 1-.88 1.36c-.373.362-.811.64-1.312.832a4.523 4.523 0 0 1-1.632.288Zm0-1.552c.64 0 1.168-.224 1.584-.672.427-.448.64-1.147.64-2.096 0-.939-.213-1.632-.64-2.08-.416-.459-.944-.688-1.584-.688-.629 0-1.157.229-1.584.688-.416.448-.624 1.141-.624 2.08 0 .949.208 1.648.624 2.096a2.1 2.1 0 0 0 1.584.672Zm5.697-6.912h3.392c2.101 0 3.152.693 3.152 2.08 0 .512-.144.917-.432 1.216-.277.288-.688.506-1.232.656.672.096 1.173.304 1.504.624.331.32.496.773.496 1.36 0 .405-.085.757-.256 1.056a2.077 2.077 0 0 1-.72.736 3.368 3.368 0 0 1-1.104.432 6.717 6.717 0 0 1-1.44.144h-3.36v-8.304Zm1.84 1.424v1.968h1.36c.448 0 .811-.08 1.088-.24a.817.817 0 0 0 .416-.736c0-.374-.123-.63-.368-.768-.235-.15-.581-.224-1.04-.224h-1.456Zm0 3.28v2.176h1.424c.512 0 .923-.075 1.232-.224.32-.15.48-.427.48-.832 0-.406-.144-.694-.432-.864-.277-.171-.72-.256-1.328-.256h-1.376Z"/>
    <rect width="163" height="42" x="32" y="290" fill="#fff" stroke="#67B0F8" stroke-width="2" rx="4"/>
    <path fill="#18123D" d="M96.524 316.029c-.457 0-.868-.033-1.232-.098a5.95 5.95 0 0 1-.966-.224 5.017 5.017 0 0 1-.7-.322 2.762 2.762 0 0 1-.448-.35v-1.26c.14.121.322.247.546.378.224.121.48.233.77.336.299.103.616.187.952.252a5.81 5.81 0 0 0 1.078.098c.728 0 1.306-.135 1.736-.406.43-.28.644-.7.644-1.26 0-.28-.051-.509-.154-.686a1.242 1.242 0 0 0-.448-.462 2.6 2.6 0 0 0-.742-.322 20.18 20.18 0 0 0-1.022-.294 18.704 18.704 0 0 1-1.176-.35 4.334 4.334 0 0 1-1.064-.518 2.622 2.622 0 0 1-.756-.812c-.187-.327-.28-.742-.28-1.246 0-.868.303-1.545.91-2.03.606-.485 1.535-.728 2.786-.728.364 0 .686.023.966.07.29.037.541.089.756.154.224.056.415.121.574.196.168.075.317.145.448.21v1.26a3.936 3.936 0 0 0-1.274-.532 6.055 6.055 0 0 0-1.47-.168c-.448 0-.826.037-1.134.112a2.001 2.001 0 0 0-.728.294 1.161 1.161 0 0 0-.406.476 1.521 1.521 0 0 0-.126.63c0 .28.06.513.182.7.13.187.299.345.504.476.215.121.457.224.728.308.27.084.555.159.854.224.392.093.793.201 1.204.322.41.121.78.289 1.106.504.327.215.593.495.798.84.215.336.322.775.322 1.316 0 .532-.107.985-.322 1.358-.206.364-.48.663-.826.896a3.512 3.512 0 0 1-1.19.504 6.23 6.23 0 0 1-1.4.154Zm8.805-.224a8.282 8.282 0 0 1-.532 1.148 3.837 3.837 0 0 1-.63.854 2.257 2.257 0 0 1-.784.518 2.557 2.557 0 0 1-.994.182c-.187 0-.359-.014-.518-.042a1.57 1.57 0 0 1-.434-.112v-1.19c.103.075.233.131.392.168.159.047.331.07.518.07.345 0 .63-.084.854-.252.224-.159.439-.415.644-.77l-2.954-7.756h1.358l2.31 6.132 2.296-6.132h1.19l-2.716 7.182Zm6.191.224c-.382 0-.723-.033-1.022-.098a4.808 4.808 0 0 1-.77-.21 4.282 4.282 0 0 1-.546-.28 3.732 3.732 0 0 1-.35-.266v-1.106c.094.093.22.196.378.308.159.103.35.201.574.294.224.093.476.173.756.238.29.056.612.084.966.084.523 0 .938-.084 1.246-.252.308-.168.462-.453.462-.854 0-.215-.051-.387-.154-.518a.932.932 0 0 0-.392-.308 2.429 2.429 0 0 0-.588-.196 28.153 28.153 0 0 0-.686-.14 24.708 24.708 0 0 1-.91-.21 3.213 3.213 0 0 1-.812-.35 1.92 1.92 0 0 1-.588-.602c-.149-.252-.224-.579-.224-.98 0-.653.252-1.167.756-1.54.514-.373 1.228-.56 2.142-.56.514 0 .966.051 1.358.154.402.103.71.215.924.336v1.106a3.286 3.286 0 0 0-.91-.392c-.354-.112-.798-.168-1.33-.168-.55 0-.975.075-1.274.224-.289.149-.434.42-.434.812a.82.82 0 0 0 .126.476c.084.112.196.205.336.28.15.065.318.117.504.154.187.037.383.079.588.126.318.065.644.135.98.21.336.075.635.191.896.35.271.159.49.373.658.644.178.261.266.616.266 1.064 0 .42-.084.77-.252 1.05a1.93 1.93 0 0 1-.672.672c-.27.159-.583.271-.938.336-.345.075-.7.112-1.064.112Zm5.676-10.178v10.038h-1.232v-10.038h1.232Zm4.99 10.178c-.494 0-.956-.084-1.386-.252a3.242 3.242 0 0 1-1.12-.728 3.558 3.558 0 0 1-.728-1.19c-.177-.467-.266-1.003-.266-1.61 0-.597.089-1.129.266-1.596.178-.476.42-.873.728-1.19.318-.317.691-.56 1.12-.728.43-.168.892-.252 1.386-.252.504 0 .971.084 1.4.252.43.168.798.411 1.106.728.318.317.565.714.742 1.19.187.467.28.999.28 1.596 0 .607-.093 1.143-.28 1.61a3.418 3.418 0 0 1-.742 1.19c-.308.317-.676.56-1.106.728a3.807 3.807 0 0 1-1.4.252Zm0-1.106c.327 0 .626-.051.896-.154a2.04 2.04 0 0 0 .728-.49 2.29 2.29 0 0 0 .476-.84c.112-.336.168-.733.168-1.19 0-.457-.056-.854-.168-1.19a2.158 2.158 0 0 0-.476-.826 1.831 1.831 0 0 0-.728-.49 2.318 2.318 0 0 0-.896-.168c-.326 0-.625.056-.896.168-.27.103-.508.266-.714.49-.196.215-.35.49-.462.826a3.775 3.775 0 0 0-.168 1.19c0 .457.056.854.168 1.19.112.336.266.616.462.84.206.215.444.378.714.49.271.103.57.154.896.154Zm11.274.35c0 .467-.07.891-.21 1.274a2.3 2.3 0 0 1-.644.994c-.289.271-.667.481-1.134.63-.457.149-1.013.224-1.666.224-.355 0-.667-.019-.938-.056a4.3 4.3 0 0 1-.714-.154 2.562 2.562 0 0 1-.504-.196 2.326 2.326 0 0 1-.35-.196v-1.106c.149.084.303.159.462.224a4.105 4.105 0 0 0 1.204.322c.252.037.537.056.854.056.896 0 1.521-.168 1.876-.504.355-.336.532-.835.532-1.498v-1.12a2.645 2.645 0 0 1-.91 1.036c-.383.261-.859.392-1.428.392a3.44 3.44 0 0 1-1.232-.224 3.049 3.049 0 0 1-1.022-.658 3.397 3.397 0 0 1-.7-1.106c-.168-.448-.252-.966-.252-1.554 0-.597.084-1.115.252-1.554a3.37 3.37 0 0 1 .7-1.12 2.914 2.914 0 0 1 1.036-.672 3.476 3.476 0 0 1 1.246-.224c.579 0 1.064.131 1.456.392.401.261.714.616.938 1.064l.014-.154c0-.168.009-.369.028-.602.019-.243.037-.429.056-.56h1.12a9.267 9.267 0 0 0-.056.56 16.97 16.97 0 0 0-.014.602v5.488Zm-3.346-.784c.308 0 .588-.047.84-.14.261-.103.485-.257.672-.462.196-.205.345-.457.448-.756a3.15 3.15 0 0 0 .168-1.078c0-.831-.205-1.451-.616-1.862-.401-.411-.91-.616-1.526-.616a2.42 2.42 0 0 0-.868.154c-.261.103-.49.257-.686.462a2.27 2.27 0 0 0-.448.784 3.15 3.15 0 0 0-.168 1.078c0 .411.056.77.168 1.078.112.299.266.551.462.756.196.196.425.345.686.448.271.103.56.154.868.154Z"/>
    <rect width="163" height="42" x="32" y="374" fill="#fff" stroke="#67B0F8" stroke-width="2" rx="4"/>
    <path fill="#18123D" d="M110.156 399.973c-.271 0-.49-.084-.658-.252a.884.884 0 0 1-.252-.63c0-.261.084-.476.252-.644.168-.168.387-.252.658-.252.261 0 .476.084.644.252a.873.873 0 0 1 .252.644.884.884 0 0 1-.252.63.873.873 0 0 1-.644.252Zm3.349 0c-.27 0-.49-.084-.658-.252a.884.884 0 0 1-.252-.63c0-.261.084-.476.252-.644.168-.168.388-.252.658-.252.262 0 .476.084.644.252a.873.873 0 0 1 .252.644.884.884 0 0 1-.252.63.871.871 0 0 1-.644.252Zm3.35 0c-.271 0-.49-.084-.658-.252a.884.884 0 0 1-.252-.63c0-.261.084-.476.252-.644.168-.168.387-.252.658-.252.261 0 .476.084.644.252a.873.873 0 0 1 .252.644.884.884 0 0 1-.252.63.873.873 0 0 1-.644.252Z"/>
    <g filter="url(#filter0_d_35_172)">
        <rect width="184" height="44" x="181" y="43" fill="#fff" rx="5"/>
    </g>
    <g filter="url(#filter1_d_35_172)">
        <rect width="184" height="44" x="181" y="105" fill="#fff" rx="5"/>
    </g>
    <path fill="#000" d="M257.41 70.14a4.81 4.81 0 0 1-1.022-.098 4.808 4.808 0 0 1-.77-.21 4.152 4.152 0 0 1-.546-.28 3.732 3.732 0 0 1-.35-.266V68.18c.093.093.219.196.378.308.159.103.35.2.574.294.224.093.476.173.756.238.289.056.611.084.966.084.523 0 .938-.084 1.246-.252.308-.168.462-.453.462-.854 0-.215-.051-.387-.154-.518a.932.932 0 0 0-.392-.308 2.416 2.416 0 0 0-.588-.196 29.16 29.16 0 0 0-.686-.14 26 26 0 0 1-.91-.21 3.187 3.187 0 0 1-.812-.35 1.898 1.898 0 0 1-.588-.602c-.149-.252-.224-.579-.224-.98 0-.653.252-1.167.756-1.54.513-.373 1.227-.56 2.142-.56.513 0 .966.051 1.358.154.401.103.709.215.924.336v1.106a3.3 3.3 0 0 0-.91-.392c-.355-.112-.798-.168-1.33-.168-.551 0-.975.075-1.274.224-.289.15-.434.42-.434.812a.82.82 0 0 0 .126.476 1 1 0 0 0 .336.28c.149.065.317.117.504.154.187.037.383.08.588.126.317.065.644.135.98.21.336.075.635.191.896.35.271.159.49.373.658.644.177.261.266.616.266 1.064 0 .42-.084.77-.252 1.05a1.93 1.93 0 0 1-.672.672c-.271.159-.583.27-.938.336-.345.075-.7.112-1.064.112Zm8-.294c-.15.084-.341.154-.574.21a3.177 3.177 0 0 1-.742.084c-.355 0-.658-.051-.91-.154a1.746 1.746 0 0 1-.602-.406 1.71 1.71 0 0 1-.35-.588 2.414 2.414 0 0 1-.098-.686v-4.522h-.868v-1.05h.868v-1.526h1.232v1.526h2.114v1.05h-2.114v4.368c0 .308.074.532.224.672.158.14.434.21.826.21.364 0 .695-.103.994-.308v1.12Zm6.71-1.274a2.91 2.91 0 0 1-.938 1.148c-.401.28-.91.42-1.526.42a3.48 3.48 0 0 1-1.246-.224 2.997 2.997 0 0 1-1.036-.7 3.532 3.532 0 0 1-.714-1.176c-.177-.476-.266-1.036-.266-1.68 0-.635.089-1.185.266-1.652.178-.476.416-.868.714-1.176a2.76 2.76 0 0 1 1.036-.7 3.4 3.4 0 0 1 1.26-.238c.551 0 1.027.117 1.428.35.402.224.724.546.966.966v-3.948h1.232V70h-1.078l-.098-1.428Zm-2.282.462c.318 0 .612-.051.882-.154.271-.112.504-.28.7-.504a2.29 2.29 0 0 0 .476-.84c.122-.336.182-.728.182-1.176 0-.448-.06-.84-.182-1.176a2.29 2.29 0 0 0-.476-.84 1.736 1.736 0 0 0-.7-.49 2.28 2.28 0 0 0-.882-.168c-.644 0-1.171.229-1.582.686-.401.448-.602 1.11-.602 1.988 0 .887.206 1.554.616 2.002.411.448.934.672 1.568.672Zm11.251.35a3.979 3.979 0 0 1-.924.49 4.632 4.632 0 0 1-.728.182 4.51 4.51 0 0 1-.91.084c-1.223 0-2.152-.331-2.786-.994-.635-.663-.952-1.591-.952-2.786 0-.588.084-1.115.252-1.582.177-.467.42-.859.728-1.176a3.028 3.028 0 0 1 1.092-.742 3.49 3.49 0 0 1 1.372-.266c.522 0 .989.089 1.4.266.41.177.746.439 1.008.784.27.345.452.775.546 1.288.102.504.102 1.092 0 1.764h-5.124c.046.784.28 1.372.7 1.764.42.383 1.045.574 1.876.574.56 0 1.04-.08 1.442-.238a5.07 5.07 0 0 0 1.008-.518v1.106Zm-2.884-5.698c-.532 0-.99.163-1.372.49-.383.327-.626.821-.728 1.484h3.906c.037-.672-.117-1.167-.462-1.484-.346-.327-.794-.49-1.344-.49Zm8.124.28a3.779 3.779 0 0 0-1.428.406c-.42.215-.733.55-.938 1.008V70h-1.232v-7.266h1.078l.126 1.582h.028c.205-.43.499-.803.882-1.12.392-.327.886-.527 1.484-.602v1.372Zm5.099 0a3.79 3.79 0 0 0-1.428.406c-.42.215-.732.55-.938 1.008V70h-1.232v-7.266h1.078l.126 1.582h.028c.206-.43.5-.803.882-1.12.392-.327.887-.527 1.484-.602v1.372ZM255.66 132.14a4.83 4.83 0 0 1-1.022-.098 4.808 4.808 0 0 1-.77-.21 4.152 4.152 0 0 1-.546-.28 3.732 3.732 0 0 1-.35-.266v-1.106c.093.093.219.196.378.308.159.103.35.201.574.294.224.093.476.173.756.238.289.056.611.084.966.084.523 0 .938-.084 1.246-.252.308-.168.462-.453.462-.854 0-.215-.051-.387-.154-.518a.932.932 0 0 0-.392-.308 2.429 2.429 0 0 0-.588-.196 29.16 29.16 0 0 0-.686-.14 24.708 24.708 0 0 1-.91-.21 3.198 3.198 0 0 1-.812-.35 1.898 1.898 0 0 1-.588-.602c-.149-.252-.224-.579-.224-.98 0-.653.252-1.167.756-1.54.513-.373 1.227-.56 2.142-.56.513 0 .966.051 1.358.154.401.103.709.215.924.336v1.106a3.3 3.3 0 0 0-.91-.392c-.355-.112-.798-.168-1.33-.168-.551 0-.975.075-1.274.224-.289.149-.434.42-.434.812a.82.82 0 0 0 .126.476c.084.112.196.205.336.28.149.065.317.117.504.154.187.037.383.079.588.126.317.065.644.135.98.21.336.075.635.191.896.35.271.159.49.373.658.644.177.261.266.616.266 1.064 0 .42-.084.77-.252 1.05a1.93 1.93 0 0 1-.672.672 2.851 2.851 0 0 1-.938.336c-.345.075-.7.112-1.064.112Zm8-.294c-.15.084-.341.154-.574.21a3.177 3.177 0 0 1-.742.084c-.355 0-.658-.051-.91-.154a1.75 1.75 0 0 1-.602-.406 1.705 1.705 0 0 1-.35-.588 2.416 2.416 0 0 1-.098-.686v-4.522h-.868v-1.05h.868v-1.526h1.232v1.526h2.114v1.05h-2.114v4.368c0 .308.074.532.224.672.158.14.434.21.826.21.364 0 .695-.103.994-.308v1.12Zm6.71-1.274a2.907 2.907 0 0 1-.938 1.148c-.401.28-.91.42-1.526.42a3.48 3.48 0 0 1-1.246-.224 3.002 3.002 0 0 1-1.036-.7 3.526 3.526 0 0 1-.714-1.176c-.177-.476-.266-1.036-.266-1.68 0-.635.089-1.185.266-1.652.178-.476.416-.868.714-1.176a2.76 2.76 0 0 1 1.036-.7 3.395 3.395 0 0 1 1.26-.238c.551 0 1.027.117 1.428.35.402.224.724.546.966.966v-3.948h1.232V132h-1.078l-.098-1.428Zm-2.282.462c.318 0 .612-.051.882-.154.271-.112.504-.28.7-.504a2.29 2.29 0 0 0 .476-.84c.122-.336.182-.728.182-1.176 0-.448-.06-.84-.182-1.176a2.29 2.29 0 0 0-.476-.84 1.739 1.739 0 0 0-.7-.49 2.28 2.28 0 0 0-.882-.168c-.644 0-1.171.229-1.582.686-.401.448-.602 1.111-.602 1.988 0 .887.206 1.554.616 2.002.411.448.934.672 1.568.672Zm8.451 1.106c-.495 0-.957-.084-1.386-.252a3.224 3.224 0 0 1-1.12-.728 3.542 3.542 0 0 1-.728-1.19c-.178-.467-.266-1.003-.266-1.61 0-.597.088-1.129.266-1.596.177-.476.42-.873.728-1.19.317-.317.69-.56 1.12-.728a3.767 3.767 0 0 1 1.386-.252c.504 0 .97.084 1.4.252.429.168.798.411 1.106.728.317.317.564.714.742 1.19.186.467.28.999.28 1.596 0 .607-.094 1.143-.28 1.61a3.448 3.448 0 0 1-.742 1.19c-.308.317-.677.56-1.106.728-.43.168-.896.252-1.4.252Zm0-1.106c.326 0 .625-.051.896-.154.28-.112.522-.275.728-.49.205-.224.364-.504.476-.84.112-.336.168-.733.168-1.19 0-.457-.056-.854-.168-1.19a2.17 2.17 0 0 0-.476-.826 1.838 1.838 0 0 0-.728-.49 2.325 2.325 0 0 0-.896-.168c-.327 0-.626.056-.896.168a1.849 1.849 0 0 0-.714.49c-.196.215-.35.49-.462.826a3.775 3.775 0 0 0-.168 1.19c0 .457.056.854.168 1.19.112.336.266.616.462.84.205.215.443.378.714.49.27.103.569.154.896.154Zm9.692-.336c-.196.411-.5.756-.91 1.036-.402.271-.929.406-1.582.406-.672 0-1.218-.187-1.638-.56-.411-.383-.616-.971-.616-1.764v-5.082h1.246v5.082c0 .243.032.443.098.602.074.149.172.271.294.364.121.093.261.159.42.196.168.037.35.056.546.056.541 0 .975-.121 1.302-.364.326-.243.606-.574.84-.994v-4.942h1.232V132h-1.092l-.112-1.302h-.028Zm6.81 1.148c-.15.084-.341.154-.574.21a3.177 3.177 0 0 1-.742.084c-.355 0-.658-.051-.91-.154a1.75 1.75 0 0 1-.602-.406 1.705 1.705 0 0 1-.35-.588 2.416 2.416 0 0 1-.098-.686v-4.522h-.868v-1.05h.868v-1.526h1.232v1.526h2.114v1.05h-2.114v4.368c0 .308.074.532.224.672.158.14.434.21.826.21.364 0 .695-.103.994-.308v1.12Z"/>
    <defs>
        <filter id="filter0_d_35_172" width="200" height="60" x="173" y="35" color-interpolation-filters="sRGB" filterUnits="userSpaceOnUse">
            <feFlood flood-opacity="0" result="BackgroundImageFix"/>
            <feColorMatrix in="SourceAlpha" result="hardAlpha" values="0 0 0 0 0 0 0 0 0 0 0 0 0 0 0 0 0 0 127 0"/>
            <feOffset/>
            <feGaussianBlur stdDeviation="4"/>
            <feColorMatrix values="0 0 0 0 0.321569 0 0 0 0 0.509804 0 0 0 0 1 0 0 0 0.2 0"/>
            <feBlend in2="BackgroundImageFix" result="effect1_dropShadow_35_172"/>
            <feBlend in="SourceGraphic" in2="effect1_dropShadow_35_172" result="shape"/>
        </filter>
        <filter id="filter1_d_35_172" width="200" height="60" x="173" y="97" color-interpolation-filters="sRGB" filterUnits="userSpaceOnUse">
            <feFlood flood-opacity="0" result="BackgroundImageFix"/>
            <feColorMatrix in="SourceAlpha" result="hardAlpha" values="0 0 0 0 0 0 0 0 0 0 0 0 0 0 0 0 0 0 127 0"/>
            <feOffset/>
            <feGaussianBlur stdDeviation="4"/>
            <feColorMatrix values="0 0 0 0 0.321569 0 0 0 0 0.509804 0 0 0 0 1 0 0 0 0.2 0"/>
            <feBlend in2="BackgroundImageFix" result="effect1_dropShadow_35_172"/>
            <feBlend in="SourceGraphic" in2="effect1_dropShadow_35_172" result="shape"/>
        </filter>
    </defs>
</svg>
