<svg xmlns="http://www.w3.org/2000/svg" width="16" height="16" fill="currentColor" aria-hidden="true" class="g-icon">
    <svg xmlns="http://www.w3.org/2000/svg" viewBox="0 0 16 16">
        <path fill-rule="evenodd" d="m13.035 4.17-1.222-1.223c-.728-.73-1.998-.73-2.727 0L7.864 4.171a1.93 1.93 0 0 0-.118 2.586l1.003-1.004a.53.53 0 0 1 .105-.59l1.222-1.224a.527.527 0 0 1 .747 0l1.222 1.223a.53.53 0 0 1 0 .75l-1.222 1.223a.54.54 0 0 1-.587.103L9.231 8.245a1.9 1.9 0 0 0 1.219.447c.515 0 .999-.2 1.363-.565l1.222-1.225a1.936 1.936 0 0 0 0-2.731m-3.01 2.783a.701.701 0 0 0-.989-.991l-.066.066-.99.991-.951.953-.99.991-.066.066a.701.701 0 0 0 .99.992l.066-.066.99-.992.951-.953.99-.991zm-2.88 3.866a.53.53 0 0 0 .105-.59l1.003-1.005a1.93 1.93 0 0 1-.118 2.587l-1.222 1.223a1.91 1.91 0 0 1-1.364.566c-.515 0-.999-.2-1.363-.566l-1.222-1.223a1.937 1.937 0 0 1 0-2.732l1.222-1.224c.683-.685 1.839-.718 2.581-.117L5.766 8.741a.52.52 0 0 0-.59.106L3.954 10.07a.53.53 0 0 0 0 .749l1.221 1.223c.2.198.55.198.748 0z" clip-rule="evenodd"/>
    </svg>
</svg>
