<svg xmlns="http://www.w3.org/2000/svg" width="616" height="250" fill="none"><rect width="616" height="250" fill="#fff" rx="10"/><path fill="#D1D0D8" d="M50 165c22.091 0 40-17.909 40-40S72.091 85 50 85s-40 17.909-40 40 17.909 40 40 40Z"/><path fill="#000" d="M13.045 119.962h3.374a7.06 7.06 0 0 1 1.876.238c.579.159 1.083.42 1.512.784.43.364.766.845 1.008 1.442.243.597.364 1.335.364 2.212 0 .887-.126 1.666-.378 2.338-.242.663-.583 1.218-1.022 1.666-.43.448-.947.789-1.554 1.022a5.54 5.54 0 0 1-1.96.336h-3.22v-10.038Zm1.316 1.204v7.644h1.904c.514 0 .985-.079 1.414-.238.43-.159.798-.401 1.106-.728.308-.336.546-.761.714-1.274.168-.513.252-1.125.252-1.834 0-.7-.084-1.279-.252-1.736-.168-.467-.401-.835-.7-1.106a2.337 2.337 0 0 0-1.05-.56 5.04 5.04 0 0 0-1.33-.168h-2.058Zm12.657 7.448a4.276 4.276 0 0 1-.322.532 2.437 2.437 0 0 1-1.19.854c-.261.093-.57.14-.924.14-.653 0-1.18-.182-1.582-.546-.401-.373-.602-.905-.602-1.596 0-.793.275-1.377.826-1.75.56-.373 1.353-.56 2.38-.56h1.358v-.602c0-.504-.13-.863-.392-1.078-.261-.215-.71-.322-1.344-.322a3.63 3.63 0 0 0-1.274.224c-.401.14-.76.303-1.078.49v-1.106a5.4 5.4 0 0 1 1.05-.462 4.367 4.367 0 0 1 1.47-.238c.915 0 1.61.191 2.086.574.476.373.714.957.714 1.75v4.2c.01.103.014.21.014.322l.028.322c.01.093.019.173.028.238h-1.12a6.439 6.439 0 0 1-.084-.546 8.366 8.366 0 0 1-.028-.63l-.014-.21Zm-2.17.42c.383 0 .71-.079.98-.238.27-.159.49-.341.658-.546.168-.215.29-.42.364-.616.075-.205.112-.35.112-.434v-.532H25.73c-.737 0-1.274.107-1.61.322-.327.205-.49.518-.49.938 0 .327.098.593.294.798.196.205.504.308.924.308Zm8.839.812a2.25 2.25 0 0 1-.574.21 3.17 3.17 0 0 1-.742.084c-.355 0-.658-.051-.91-.154a1.76 1.76 0 0 1-.602-.406 1.722 1.722 0 0 1-.35-.588 2.44 2.44 0 0 1-.098-.686v-4.522h-.868v-1.05h.868v-1.526h1.232v1.526h2.114v1.05h-2.114v4.368c0 .308.075.532.224.672.159.14.434.21.826.21.364 0 .695-.103.994-.308v1.12Zm5.895-1.232a4.288 4.288 0 0 1-.322.532 2.437 2.437 0 0 1-1.19.854c-.261.093-.569.14-.924.14-.653 0-1.18-.182-1.582-.546-.401-.373-.602-.905-.602-1.596 0-.793.276-1.377.826-1.75.56-.373 1.354-.56 2.38-.56h1.358v-.602c0-.504-.13-.863-.392-1.078-.261-.215-.709-.322-1.344-.322a3.63 3.63 0 0 0-1.274.224 6.03 6.03 0 0 0-1.078.49v-1.106a5.4 5.4 0 0 1 1.05-.462 4.367 4.367 0 0 1 1.47-.238c.915 0 1.61.191 2.086.574.476.373.714.957.714 1.75v4.2c.01.103.014.21.014.322l.028.322c.01.093.019.173.028.238h-1.12a6.439 6.439 0 0 1-.084-.546 8.366 8.366 0 0 1-.028-.63l-.014-.21Zm-2.17.42c.383 0 .71-.079.98-.238.271-.159.49-.341.658-.546.168-.215.29-.42.364-.616.075-.205.112-.35.112-.434v-.532h-1.232c-.737 0-1.274.107-1.61.322-.326.205-.49.518-.49.938 0 .327.098.593.294.798.196.205.504.308.924.308Zm11.328 1.106c-.458 0-.868-.033-1.232-.098a5.95 5.95 0 0 1-.966-.224 5.011 5.011 0 0 1-.7-.322 2.757 2.757 0 0 1-.448-.35v-1.26c.14.121.322.247.546.378.224.121.48.233.77.336.298.103.616.187.952.252.345.065.704.098 1.078.098.728 0 1.306-.135 1.736-.406.429-.28.644-.7.644-1.26 0-.28-.052-.509-.154-.686a1.243 1.243 0 0 0-.448-.462 2.6 2.6 0 0 0-.742-.322c-.29-.093-.63-.191-1.022-.294a18.704 18.704 0 0 1-1.176-.35 4.332 4.332 0 0 1-1.064-.518 2.622 2.622 0 0 1-.756-.812c-.187-.327-.28-.742-.28-1.246 0-.868.303-1.545.91-2.03.606-.485 1.535-.728 2.786-.728.364 0 .686.023.966.07.289.037.541.089.756.154.224.056.415.121.574.196.168.075.317.145.448.21v1.26a3.937 3.937 0 0 0-1.274-.532 6.055 6.055 0 0 0-1.47-.168c-.448 0-.826.037-1.134.112a2 2 0 0 0-.728.294 1.16 1.16 0 0 0-.406.476 1.521 1.521 0 0 0-.126.63c0 .28.06.513.182.7.13.187.298.345.504.476.214.121.457.224.728.308.27.084.555.159.854.224.392.093.793.201 1.204.322.41.121.779.289 1.106.504.326.215.592.495.798.84.214.336.322.775.322 1.316 0 .532-.108.985-.322 1.358-.206.364-.481.663-.826.896a3.513 3.513 0 0 1-1.19.504 6.23 6.23 0 0 1-1.4.154Zm8.285 0a3.77 3.77 0 0 1-1.386-.252 3.232 3.232 0 0 1-1.12-.728 3.547 3.547 0 0 1-.728-1.19c-.177-.467-.266-1.003-.266-1.61 0-.597.089-1.129.266-1.596.178-.476.42-.873.728-1.19.318-.317.69-.56 1.12-.728a3.77 3.77 0 0 1 1.386-.252c.504 0 .97.084 1.4.252.43.168.798.411 1.106.728.318.317.565.714.742 1.19.187.467.28.999.28 1.596 0 .607-.093 1.143-.28 1.61a3.435 3.435 0 0 1-.742 1.19c-.308.317-.676.56-1.106.728-.43.168-.896.252-1.4.252Zm0-1.106c.327 0 .626-.051.896-.154.28-.112.523-.275.728-.49a2.3 2.3 0 0 0 .476-.84c.112-.336.168-.733.168-1.19 0-.457-.056-.854-.168-1.19a2.167 2.167 0 0 0-.476-.826 1.834 1.834 0 0 0-.728-.49 2.322 2.322 0 0 0-.896-.168c-.326 0-.625.056-.896.168-.27.103-.508.266-.714.49-.196.215-.35.49-.462.826a3.775 3.775 0 0 0-.168 1.19c0 .457.056.854.168 1.19.112.336.266.616.462.84.206.215.444.378.714.49.27.103.57.154.896.154Zm9.692-.336c-.196.411-.5.756-.91 1.036-.401.271-.929.406-1.582.406-.672 0-1.218-.187-1.638-.56-.41-.383-.616-.971-.616-1.764v-5.082h1.246v5.082c0 .243.032.443.098.602a1.032 1.032 0 0 0 .714.56c.168.037.35.056.546.056.541 0 .975-.121 1.302-.364.327-.243.607-.574.84-.994v-4.942h1.232V130h-1.092l-.112-1.302h-.028Zm6.852-4.732a3.787 3.787 0 0 0-1.428.406c-.42.215-.733.551-.938 1.008V130H69.97v-7.266h1.078l.126 1.582h.028c.205-.429.5-.803.882-1.12.392-.327.887-.527 1.484-.602v1.372ZM78 130.14c-.56 0-1.068-.084-1.526-.252a3.339 3.339 0 0 1-1.148-.742 3.273 3.273 0 0 1-.728-1.19c-.168-.467-.252-.999-.252-1.596 0-.588.084-1.115.252-1.582.178-.467.425-.859.742-1.176a3.066 3.066 0 0 1 1.162-.742 4.28 4.28 0 0 1 1.554-.266c.448 0 .86.051 1.232.154.374.093.682.233.924.42v1.106a3.255 3.255 0 0 0-1.008-.434 4.145 4.145 0 0 0-1.134-.154c-.849 0-1.474.219-1.876.658-.392.439-.588 1.111-.588 2.016s.192 1.577.574 2.016c.383.439.99.658 1.82.658.44 0 .84-.051 1.204-.154a4.95 4.95 0 0 0 1.008-.42v1.106a4.29 4.29 0 0 1-2.212.574Zm9.496-.756a3.822 3.822 0 0 1-.378.238 4.38 4.38 0 0 1-.546.252 4.601 4.601 0 0 1-.728.182c-.27.056-.574.084-.91.084-1.223 0-2.151-.331-2.786-.994-.635-.663-.952-1.591-.952-2.786 0-.588.084-1.115.252-1.582.177-.467.42-.859.728-1.176a3.024 3.024 0 0 1 1.092-.742c.42-.177.877-.266 1.372-.266.523 0 .99.089 1.4.266.41.177.747.439 1.008.784.27.345.453.775.546 1.288.103.504.103 1.092 0 1.764h-5.124c.047.784.28 1.372.7 1.764.42.383 1.045.574 1.876.574.56 0 1.04-.079 1.442-.238a5.048 5.048 0 0 0 1.008-.518v1.106Zm-2.884-5.698c-.532 0-.99.163-1.372.49-.383.327-.625.821-.728 1.484h3.906c.037-.672-.117-1.167-.462-1.484-.345-.327-.793-.49-1.344-.49Z"/><g filter="url(#a)"><path fill="#fff" d="M576 25H136c-8.284 0-15 6.716-15 15v170c0 8.284 6.716 15 15 15h440c8.284 0 15-6.716 15-15V40c0-8.284-6.716-15-15-15Z"/></g><path fill="#18123D" d="M327.207 44.116h3.374c.672 0 1.298.08 1.876.238.579.159 1.083.42 1.512.784.43.364.766.845 1.008 1.442.243.597.364 1.334.364 2.212 0 .886-.126 1.666-.378 2.338-.242.662-.583 1.218-1.022 1.666a4.213 4.213 0 0 1-1.554 1.022 5.536 5.536 0 0 1-1.96.336h-3.22V44.116Zm1.316 1.204v7.644h1.904c.514 0 .985-.08 1.414-.238.43-.159.798-.401 1.106-.728.308-.336.546-.76.714-1.274.168-.513.252-1.125.252-1.834 0-.7-.084-1.279-.252-1.736-.168-.467-.401-.836-.7-1.106a2.332 2.332 0 0 0-1.05-.56 5.036 5.036 0 0 0-1.33-.168h-2.058Zm12.657 7.448a4.219 4.219 0 0 1-.322.532 2.447 2.447 0 0 1-1.19.854c-.261.093-.569.14-.924.14-.653 0-1.181-.182-1.582-.546-.401-.373-.602-.905-.602-1.596 0-.794.275-1.377.826-1.75.56-.373 1.353-.56 2.38-.56h1.358v-.602c0-.504-.131-.864-.392-1.078-.261-.215-.709-.322-1.344-.322a3.62 3.62 0 0 0-1.274.224c-.401.14-.761.303-1.078.49v-1.106a5.42 5.42 0 0 1 1.05-.462 4.374 4.374 0 0 1 1.47-.238c.915 0 1.61.191 2.086.574.476.373.714.956.714 1.75v4.2c.009.102.014.21.014.322l.028.322c.009.093.019.173.028.238h-1.12a6.4 6.4 0 0 1-.084-.546 8.197 8.197 0 0 1-.028-.63l-.014-.21Zm-2.17.42c.383 0 .709-.08.98-.238.271-.159.49-.34.658-.546.168-.215.289-.42.364-.616.075-.205.112-.35.112-.434v-.532h-1.232c-.737 0-1.274.107-1.61.322-.327.205-.49.518-.49.938 0 .326.098.593.294.798.196.205.504.308.924.308Zm8.839.812a2.252 2.252 0 0 1-.574.21 3.171 3.171 0 0 1-.742.084 2.41 2.41 0 0 1-.91-.154 1.755 1.755 0 0 1-.602-.406 1.728 1.728 0 0 1-.35-.588 2.45 2.45 0 0 1-.098-.686v-4.522h-.868v-1.05h.868v-1.526h1.232v1.526h2.114v1.05h-2.114v4.368c0 .308.075.532.224.672.159.14.434.21.826.21.364 0 .695-.103.994-.308V54Zm5.895-1.232a4.219 4.219 0 0 1-.322.532 2.421 2.421 0 0 1-1.19.854c-.261.093-.569.14-.924.14-.653 0-1.18-.182-1.582-.546-.401-.373-.602-.905-.602-1.596 0-.794.276-1.377.826-1.75.56-.373 1.354-.56 2.38-.56h1.358v-.602c0-.504-.13-.864-.392-1.078-.261-.215-.709-.322-1.344-.322-.448 0-.872.074-1.274.224-.401.14-.76.303-1.078.49v-1.106a5.475 5.475 0 0 1 1.05-.462 4.374 4.374 0 0 1 1.47-.238c.915 0 1.61.191 2.086.574.476.373.714.956.714 1.75v4.2c.01.102.014.21.014.322l.028.322c.01.093.019.173.028.238h-1.12a6.4 6.4 0 0 1-.084-.546 8.74 8.74 0 0 1-.028-.63l-.014-.21Zm-2.17.42c.383 0 .71-.08.98-.238.271-.159.49-.34.658-.546.168-.215.29-.42.364-.616.075-.205.112-.35.112-.434v-.532h-1.232c-.737 0-1.274.107-1.61.322-.326.205-.49.518-.49.938 0 .326.098.593.294.798.196.205.504.308.924.308Zm11.654.966h-6.202V44.116h1.316v8.848h4.886v1.19Zm7.287-.616a3.999 3.999 0 0 1-.924.49 4.643 4.643 0 0 1-.728.182 4.51 4.51 0 0 1-.91.084c-1.223 0-2.152-.331-2.786-.994-.635-.663-.952-1.591-.952-2.786 0-.588.084-1.116.252-1.582.177-.467.42-.859.728-1.176a3.028 3.028 0 0 1 1.092-.742c.42-.178.877-.266 1.372-.266.522 0 .989.089 1.4.266.41.177.746.438 1.008.784.27.345.452.774.546 1.288.102.504.102 1.092 0 1.764h-5.124c.046.784.28 1.372.7 1.764.42.383 1.045.574 1.876.574.56 0 1.04-.08 1.442-.238a5.075 5.075 0 0 0 1.008-.518v1.106Zm-2.884-5.698c-.532 0-.99.163-1.372.49-.383.327-.626.821-.728 1.484h3.906c.037-.672-.117-1.167-.462-1.484-.346-.327-.794-.49-1.344-.49Zm7.969 0c-.56 0-1.017.13-1.372.392a2.87 2.87 0 0 0-.84.98v4.942h-1.232v-7.266h1.162l.042 1.302h.028c.196-.42.504-.765.924-1.036.42-.27.952-.406 1.596-.406.719 0 1.288.191 1.708.574.43.373.644.952.644 1.736v5.096h-1.232v-4.97c0-.504-.126-.854-.378-1.05-.252-.196-.602-.294-1.05-.294Zm6.933 6.454c-.382 0-.723-.033-1.022-.098a4.808 4.808 0 0 1-.77-.21 4.295 4.295 0 0 1-.546-.28 3.75 3.75 0 0 1-.35-.266v-1.106c.094.093.22.196.378.308.159.102.35.2.574.294.224.093.476.172.756.238.29.056.612.084.966.084.523 0 .938-.084 1.246-.252.308-.168.462-.453.462-.854 0-.215-.051-.388-.154-.518a.932.932 0 0 0-.392-.308 2.412 2.412 0 0 0-.588-.196 27.685 27.685 0 0 0-.686-.14 26.46 26.46 0 0 1-.91-.21 3.202 3.202 0 0 1-.812-.35 1.92 1.92 0 0 1-.588-.602c-.149-.252-.224-.579-.224-.98 0-.654.252-1.167.756-1.54.514-.373 1.228-.56 2.142-.56.514 0 .966.051 1.358.154.402.102.71.215.924.336v1.106a3.283 3.283 0 0 0-.91-.392c-.354-.112-.798-.168-1.33-.168-.55 0-.975.075-1.274.224-.289.15-.434.42-.434.812a.82.82 0 0 0 .126.476 1 1 0 0 0 .336.28c.15.065.318.117.504.154.187.037.383.08.588.126.318.065.644.135.98.21.336.075.635.191.896.35.271.159.49.373.658.644.178.261.266.616.266 1.064 0 .42-.084.77-.252 1.05a1.93 1.93 0 0 1-.672.672 2.86 2.86 0 0 1-.938.336c-.345.075-.7.112-1.064.112Z"/><path fill="#DAEEF9" d="M152 90a5 5 0 0 1 5-5h70a5 5 0 0 1 5 5v70a5 5 0 0 1-5 5h-70a5 5 0 0 1-5-5V90Z"/><path fill="#D8D8D8" d="M208 109h-32v32h32v-32Z" opacity=".01"/><path fill="#9A32A6" d="M189.675 128.679a1 1 0 0 0-.254-1.32l-4.073-3.054a1 1 0 0 1 .013-1.609L198.706 113l-5.213 9.735a1 1 0 0 0 .282 1.272l4.071 3.053c.55.413.529 1.245-.041 1.63L184 138l5.675-9.321Z"/><path fill="#DAEEF9" d="M261 90a5 5 0 0 1 5-5h70a5 5 0 0 1 5 5v70a5 5 0 0 1-5 5h-70a5 5 0 0 1-5-5V90ZM371 91a5 5 0 0 1 5-5h70a5 5 0 0 1 5 5v70a5 5 0 0 1-5 5h-70a5 5 0 0 1-5-5V91ZM481 90a5 5 0 0 1 5-5h70a5 5 0 0 1 5 5v70a5 5 0 0 1-5 5h-70a5 5 0 0 1-5-5V90Z"/><path fill="#18123D" fill-opacity=".7" d="m120.985 125-5-2.887v5.774l5-2.887ZM91 125.5H116.484v-1H91v1ZM260.985 125l-5-2.887v5.774l5-2.887Zm-29.985.5H256.484v-1H231v1ZM370.985 125l-5-2.887v5.774l5-2.887Zm-29.985.5H366.484v-1H341v1ZM480.985 125l-5-2.887v5.774l5-2.887Zm-29.985.5H476.484v-1H451v1Z"/><path fill="#D8D8D8" d="M313 113h-24v24h24v-24Z" opacity=".01"/><path fill="#43A047" fill-rule="evenodd" d="M304 113h-12v22h18v-16l-6-6Z" clip-rule="evenodd"/><path fill="#fff" d="M307 128h-2v2h2v-2ZM303 128h-2v2h2v-2ZM299 128h-4v2h4v-2ZM307 124h-2v2h2v-2ZM303 124h-2v2h2v-2ZM299 124h-4v2h4v-2ZM307 120h-2v2h2v-2ZM303 120h-2v2h2v-2ZM299 120h-4v2h4v-2Z"/><path fill="#207A40" fill-rule="evenodd" d="M306 119h4l-6-6v4a2 2 0 0 0 2 2Z" clip-rule="evenodd" opacity=".75"/><path fill="#D8D8D8" d="M423 113h-24v24h24v-24Z" opacity=".01"/><path fill="#1E88E5" fill-rule="evenodd" d="M414 113h-12v22h18v-16l-6-6Z" clip-rule="evenodd"/><path fill="#fff" fill-rule="evenodd" d="M416 125a5 5 0 1 1-5-5v5h5Z" clip-rule="evenodd" opacity=".9"/><path fill="#fff" fill-rule="evenodd" d="M416.9 123.099H413v-3.9a5.007 5.007 0 0 1 3.9 3.9Z" clip-rule="evenodd" opacity=".9"/><path fill="#105FCC" fill-rule="evenodd" d="M416 119h4l-6-6v4a2 2 0 0 0 2 2Z" clip-rule="evenodd"/><path fill="#D8D8D8" d="M533 113h-24v24h24v-24Z" opacity=".01"/><path fill="#FDD835" fill-rule="evenodd" d="M524 113h-12v22h18v-16l-6-6Z" clip-rule="evenodd"/><path fill="#D1461F" fill-rule="evenodd" d="M520 118h-5v-2h5v2Zm5 3v-1h-10v1h10Zm-4 10v-3h2v3h-2Zm-3 0h2v-2h-2v2Zm-3 0h2v-1h-2v1Zm0-9h7v1h-7v-1Zm9 9h2v-4h-2v4Z" clip-rule="evenodd"/><g fill-rule="evenodd" clip-rule="evenodd" opacity=".5"><path fill="#FDD835" d="M526 119h4l-6-6v4a2 2 0 0 0 2 2Z" opacity=".5"/><path fill="#D1883F" d="M526 119h4l-6-6v4a2 2 0 0 0 2 2Z" opacity=".5"/></g><path fill="#18123D" d="M160.888 182.14c-.746 0-1.423-.117-2.03-.35a4.443 4.443 0 0 1-1.568-1.008 4.626 4.626 0 0 1-.994-1.624c-.233-.644-.35-1.367-.35-2.17 0-.812.108-1.535.322-2.17a4.27 4.27 0 0 1 .952-1.61 4.09 4.09 0 0 1 1.54-1.022c.616-.233 1.316-.35 2.1-.35.682 0 1.279.075 1.792.224.514.14.934.308 1.26.504v1.26a4.64 4.64 0 0 0-1.456-.602 6.823 6.823 0 0 0-1.61-.196c-1.185 0-2.062.331-2.632.994-.56.653-.84 1.643-.84 2.968 0 1.335.304 2.329.91 2.982.616.653 1.522.98 2.716.98.514 0 1.013-.07 1.498-.21.495-.14.966-.378 1.414-.714v1.26c-.27.215-.667.411-1.19.588-.513.177-1.124.266-1.834.266Zm7.785 0c-.495 0-.957-.084-1.386-.252a3.224 3.224 0 0 1-1.12-.728 3.542 3.542 0 0 1-.728-1.19c-.178-.467-.266-1.003-.266-1.61 0-.597.088-1.129.266-1.596.177-.476.42-.873.728-1.19.317-.317.69-.56 1.12-.728a3.767 3.767 0 0 1 1.386-.252c.504 0 .97.084 1.4.252.429.168.798.411 1.106.728.317.317.564.714.742 1.19.186.467.28.999.28 1.596 0 .607-.094 1.143-.28 1.61a3.448 3.448 0 0 1-.742 1.19c-.308.317-.677.56-1.106.728-.43.168-.896.252-1.4.252Zm0-1.106c.326 0 .625-.051.896-.154.28-.112.522-.275.728-.49.205-.224.364-.504.476-.84.112-.336.168-.733.168-1.19 0-.457-.056-.854-.168-1.19a2.17 2.17 0 0 0-.476-.826 1.838 1.838 0 0 0-.728-.49 2.325 2.325 0 0 0-.896-.168c-.327 0-.626.056-.896.168a1.849 1.849 0 0 0-.714.49c-.196.215-.35.49-.462.826a3.775 3.775 0 0 0-.168 1.19c0 .457.056.854.168 1.19.112.336.266.616.462.84.205.215.443.378.714.49.27.103.569.154.896.154Zm8.473-5.348c-.56 0-1.017.131-1.372.392a2.874 2.874 0 0 0-.84.98V182h-1.232v-7.266h1.162l.042 1.302h.028a2.46 2.46 0 0 1 .924-1.036c.42-.271.952-.406 1.596-.406.719 0 1.288.191 1.708.574.43.373.644.952.644 1.736V182h-1.232v-4.97c0-.504-.126-.854-.378-1.05-.252-.196-.602-.294-1.05-.294Zm8.053 0c-.56 0-1.017.131-1.372.392a2.874 2.874 0 0 0-.84.98V182h-1.232v-7.266h1.162l.042 1.302h.028a2.46 2.46 0 0 1 .924-1.036c.42-.271.952-.406 1.596-.406.719 0 1.288.191 1.708.574.429.373.644.952.644 1.736V182h-1.232v-4.97c0-.504-.126-.854-.378-1.05-.252-.196-.602-.294-1.05-.294Zm10.391 5.698a3.919 3.919 0 0 1-.378.238c-.15.084-.332.168-.546.252a4.632 4.632 0 0 1-.728.182 4.51 4.51 0 0 1-.91.084c-1.223 0-2.152-.331-2.786-.994-.635-.663-.952-1.591-.952-2.786 0-.588.084-1.115.252-1.582.177-.467.42-.859.728-1.176a3.024 3.024 0 0 1 1.092-.742c.42-.177.877-.266 1.372-.266.522 0 .989.089 1.4.266.41.177.746.439 1.008.784.27.345.452.775.546 1.288.102.504.102 1.092 0 1.764h-5.124c.046.784.28 1.372.7 1.764.42.383 1.045.574 1.876.574.56 0 1.04-.079 1.442-.238a5.07 5.07 0 0 0 1.008-.518v1.106Zm-2.884-5.698c-.532 0-.99.163-1.372.49-.383.327-.626.821-.728 1.484h3.906c.037-.672-.117-1.167-.462-1.484-.346-.327-.794-.49-1.344-.49Zm7.662 6.454c-.56 0-1.069-.084-1.526-.252a3.335 3.335 0 0 1-1.148-.742 3.263 3.263 0 0 1-.728-1.19c-.168-.467-.252-.999-.252-1.596 0-.588.084-1.115.252-1.582.177-.467.424-.859.742-1.176a3.057 3.057 0 0 1 1.162-.742 4.277 4.277 0 0 1 1.554-.266c.448 0 .858.051 1.232.154.373.093.681.233.924.42v1.106a3.263 3.263 0 0 0-1.008-.434 4.145 4.145 0 0 0-1.134-.154c-.85 0-1.475.219-1.876.658-.392.439-.588 1.111-.588 2.016s.191 1.577.574 2.016c.382.439.989.658 1.82.658.438 0 .84-.051 1.204-.154a4.969 4.969 0 0 0 1.008-.42v1.106a4.29 4.29 0 0 1-2.212.574Zm7.338-.294c-.15.084-.341.154-.574.21a3.177 3.177 0 0 1-.742.084c-.355 0-.658-.051-.91-.154a1.75 1.75 0 0 1-.602-.406 1.705 1.705 0 0 1-.35-.588 2.416 2.416 0 0 1-.098-.686v-4.522h-.868v-1.05h.868v-1.526h1.232v1.526h2.114v1.05h-2.114v4.368c0 .308.074.532.224.672.158.14.434.21.826.21.364 0 .695-.103.994-.308v1.12Zm2.269-8.176c-.252 0-.453-.075-.602-.224a.81.81 0 0 1-.224-.574.81.81 0 0 1 .224-.574c.149-.159.35-.238.602-.238.243 0 .434.079.574.238.14.159.21.35.21.574 0 .224-.07.415-.21.574-.14.149-.331.224-.574.224Zm.602 1.064V182h-1.232v-7.266h1.232Zm4.99 7.406c-.495 0-.957-.084-1.386-.252a3.233 3.233 0 0 1-1.12-.728 3.542 3.542 0 0 1-.728-1.19c-.177-.467-.266-1.003-.266-1.61 0-.597.089-1.129.266-1.596.177-.476.42-.873.728-1.19.317-.317.691-.56 1.12-.728a3.767 3.767 0 0 1 1.386-.252c.504 0 .971.084 1.4.252.429.168.798.411 1.106.728.317.317.565.714.742 1.19.187.467.28.999.28 1.596 0 .607-.093 1.143-.28 1.61a3.433 3.433 0 0 1-.742 1.19c-.308.317-.677.56-1.106.728a3.807 3.807 0 0 1-1.4.252Zm0-1.106a2.5 2.5 0 0 0 .896-.154 2.04 2.04 0 0 0 .728-.49c.205-.224.364-.504.476-.84.112-.336.168-.733.168-1.19 0-.457-.056-.854-.168-1.19a2.17 2.17 0 0 0-.476-.826 1.831 1.831 0 0 0-.728-.49 2.322 2.322 0 0 0-.896-.168c-.327 0-.625.056-.896.168a1.849 1.849 0 0 0-.714.49c-.196.215-.35.49-.462.826a3.775 3.775 0 0 0-.168 1.19c0 .457.056.854.168 1.19.112.336.266.616.462.84.205.215.443.378.714.49a2.5 2.5 0 0 0 .896.154Zm8.474-5.348c-.56 0-1.017.131-1.372.392a2.874 2.874 0 0 0-.84.98V182h-1.232v-7.266h1.162l.042 1.302h.028a2.46 2.46 0 0 1 .924-1.036c.42-.271.952-.406 1.596-.406.719 0 1.288.191 1.708.574.429.373.644.952.644 1.736V182h-1.232v-4.97c0-.504-.126-.854-.378-1.05-.252-.196-.602-.294-1.05-.294ZM278.073 171.962h3.374c.672 0 1.298.079 1.876.238.579.159 1.083.42 1.512.784.43.364.766.845 1.008 1.442.243.597.364 1.335.364 2.212 0 .887-.126 1.666-.378 2.338-.242.663-.583 1.218-1.022 1.666a4.208 4.208 0 0 1-1.554 1.022 5.536 5.536 0 0 1-1.96.336h-3.22v-10.038Zm1.316 1.204v7.644h1.904c.514 0 .985-.079 1.414-.238.43-.159.798-.401 1.106-.728.308-.336.546-.761.714-1.274.168-.513.252-1.125.252-1.834 0-.7-.084-1.279-.252-1.736-.168-.467-.401-.835-.7-1.106a2.333 2.333 0 0 0-1.05-.56 5.036 5.036 0 0 0-1.33-.168h-2.058Zm12.657 7.448a4.24 4.24 0 0 1-.322.532 2.419 2.419 0 0 1-1.19.854c-.261.093-.569.14-.924.14-.653 0-1.18-.182-1.582-.546-.401-.373-.602-.905-.602-1.596 0-.793.276-1.377.826-1.75.56-.373 1.354-.56 2.38-.56h1.358v-.602c0-.504-.13-.863-.392-1.078-.261-.215-.709-.322-1.344-.322-.448 0-.872.075-1.274.224-.401.14-.76.303-1.078.49v-1.106a5.438 5.438 0 0 1 1.05-.462 4.367 4.367 0 0 1 1.47-.238c.915 0 1.61.191 2.086.574.476.373.714.957.714 1.75v4.2c.01.103.014.21.014.322l.028.322c.01.093.019.173.028.238h-1.12a6.439 6.439 0 0 1-.084-.546 8.754 8.754 0 0 1-.028-.63l-.014-.21Zm-2.17.42c.383 0 .71-.079.98-.238.271-.159.49-.341.658-.546.168-.215.29-.42.364-.616.075-.205.112-.35.112-.434v-.532h-1.232c-.737 0-1.274.107-1.61.322-.326.205-.49.518-.49.938 0 .327.098.593.294.798.196.205.504.308.924.308Zm8.839.812c-.149.084-.34.154-.574.21-.233.056-.48.084-.742.084-.354 0-.658-.051-.91-.154a1.77 1.77 0 0 1-.602-.406 1.737 1.737 0 0 1-.35-.588 2.452 2.452 0 0 1-.098-.686v-4.522h-.868v-1.05h.868v-1.526h1.232v1.526h2.114v1.05h-2.114v4.368c0 .308.075.532.224.672.159.14.434.21.826.21.364 0 .696-.103.994-.308v1.12Zm5.896-1.232a4.363 4.363 0 0 1-.322.532 2.444 2.444 0 0 1-1.19.854c-.262.093-.57.14-.924.14-.654 0-1.181-.182-1.582-.546-.402-.373-.602-.905-.602-1.596 0-.793.275-1.377.826-1.75.56-.373 1.353-.56 2.38-.56h1.358v-.602c0-.504-.131-.863-.392-1.078-.262-.215-.71-.322-1.344-.322a3.63 3.63 0 0 0-1.274.224c-.402.14-.761.303-1.078.49v-1.106a5.383 5.383 0 0 1 1.05-.462 4.367 4.367 0 0 1 1.47-.238c.914 0 1.61.191 2.086.574.476.373.714.957.714 1.75v4.2c.009.103.014.21.014.322.009.112.018.219.028.322.009.093.018.173.028.238h-1.12a6.439 6.439 0 0 1-.084-.546 8.21 8.21 0 0 1-.028-.63l-.014-.21Zm-2.17.42c.382 0 .709-.079.98-.238.27-.159.49-.341.658-.546.168-.215.289-.42.364-.616.074-.205.112-.35.112-.434v-.532h-1.232c-.738 0-1.274.107-1.61.322-.327.205-.49.518-.49.938 0 .327.098.593.294.798.196.205.504.308.924.308Zm7.607 1.106c-.383 0-.724-.033-1.022-.098a4.78 4.78 0 0 1-.77-.21 4.152 4.152 0 0 1-.546-.28 3.603 3.603 0 0 1-.35-.266v-1.106c.093.093.219.196.378.308.158.103.35.201.574.294.224.093.476.173.756.238.289.056.611.084.966.084.522 0 .938-.084 1.246-.252.308-.168.462-.453.462-.854 0-.215-.052-.387-.154-.518a.939.939 0 0 0-.392-.308 2.429 2.429 0 0 0-.588-.196 30.242 30.242 0 0 0-.686-.14 24.244 24.244 0 0 1-.91-.21 3.182 3.182 0 0 1-.812-.35 1.898 1.898 0 0 1-.588-.602c-.15-.252-.224-.579-.224-.98 0-.653.252-1.167.756-1.54.513-.373 1.227-.56 2.142-.56.513 0 .966.051 1.358.154.401.103.709.215.924.336v1.106a3.3 3.3 0 0 0-.91-.392c-.355-.112-.798-.168-1.33-.168-.551 0-.976.075-1.274.224-.29.149-.434.42-.434.812a.82.82 0 0 0 .126.476c.084.112.196.205.336.28.149.065.317.117.504.154.186.037.382.079.588.126.317.065.644.135.98.21.336.075.634.191.896.35.27.159.49.373.658.644.177.261.266.616.266 1.064 0 .42-.084.77-.252 1.05a1.93 1.93 0 0 1-.672.672 2.86 2.86 0 0 1-.938.336c-.346.075-.7.112-1.064.112Zm10.225-.756a3.685 3.685 0 0 1-.378.238 4.34 4.34 0 0 1-.546.252 4.576 4.576 0 0 1-.728.182c-.27.056-.574.084-.91.084-1.222 0-2.151-.331-2.786-.994-.634-.663-.952-1.591-.952-2.786 0-.588.084-1.115.252-1.582.178-.467.42-.859.728-1.176a3.024 3.024 0 0 1 1.092-.742 3.5 3.5 0 0 1 1.372-.266c.523 0 .99.089 1.4.266.411.177.747.439 1.008.784.271.345.453.775.546 1.288.103.504.103 1.092 0 1.764h-5.124c.047.784.28 1.372.7 1.764.42.383 1.046.574 1.876.574.56 0 1.041-.079 1.442-.238a5.015 5.015 0 0 0 1.008-.518v1.106Zm-2.884-5.698c-.532 0-.989.163-1.372.49-.382.327-.625.821-.728 1.484h3.906c.038-.672-.116-1.167-.462-1.484-.345-.327-.793-.49-1.344-.49Zm8.082 6.16c-.149.084-.34.154-.574.21-.233.056-.48.084-.742.084-.354 0-.658-.051-.91-.154a1.77 1.77 0 0 1-.602-.406 1.737 1.737 0 0 1-.35-.588 2.452 2.452 0 0 1-.098-.686v-4.522h-.868v-1.05h.868v-1.526h1.232v1.526h2.114v1.05h-2.114v4.368c0 .308.075.532.224.672.159.14.434.21.826.21.364 0 .696-.103.994-.308v1.12ZM399.441 182.14c-.747 0-1.423-.117-2.03-.35a4.434 4.434 0 0 1-1.568-1.008 4.611 4.611 0 0 1-.994-1.624c-.233-.644-.35-1.367-.35-2.17 0-.812.107-1.535.322-2.17a4.27 4.27 0 0 1 .952-1.61c.42-.448.933-.789 1.54-1.022.616-.233 1.316-.35 2.1-.35.681 0 1.279.075 1.792.224.513.14.933.308 1.26.504v1.26a4.64 4.64 0 0 0-1.456-.602 6.823 6.823 0 0 0-1.61-.196c-1.185 0-2.063.331-2.632.994-.56.653-.84 1.643-.84 2.968 0 1.335.303 2.329.91 2.982.616.653 1.521.98 2.716.98.513 0 1.013-.07 1.498-.21.495-.14.966-.378 1.414-.714v1.26c-.271.215-.667.411-1.19.588-.513.177-1.125.266-1.834.266Zm8.315-6.454c-.56 0-1.018.131-1.372.392a2.853 2.853 0 0 0-.84.98V182h-1.232v-10.038h1.232v2.772l-.028 1.302h.028a2.48 2.48 0 0 1 .924-1.022c.42-.28.952-.42 1.596-.42.718 0 1.288.191 1.708.574.429.373.644.952.644 1.736V182h-1.232v-4.97c0-.504-.126-.854-.378-1.05-.252-.196-.602-.294-1.05-.294Zm8.864 4.928a4.24 4.24 0 0 1-.322.532 2.419 2.419 0 0 1-1.19.854c-.261.093-.569.14-.924.14-.653 0-1.18-.182-1.582-.546-.401-.373-.602-.905-.602-1.596 0-.793.276-1.377.826-1.75.56-.373 1.354-.56 2.38-.56h1.358v-.602c0-.504-.13-.863-.392-1.078-.261-.215-.709-.322-1.344-.322-.448 0-.872.075-1.274.224-.401.14-.76.303-1.078.49v-1.106a5.438 5.438 0 0 1 1.05-.462 4.367 4.367 0 0 1 1.47-.238c.915 0 1.61.191 2.086.574.476.373.714.957.714 1.75v4.2c.01.103.014.21.014.322l.028.322c.01.093.019.173.028.238h-1.12a6.439 6.439 0 0 1-.084-.546 8.754 8.754 0 0 1-.028-.63l-.014-.21Zm-2.17.42c.383 0 .71-.079.98-.238.271-.159.49-.341.658-.546.168-.215.29-.42.364-.616.075-.205.112-.35.112-.434v-.532h-1.232c-.737 0-1.274.107-1.61.322-.326.205-.49.518-.49.938 0 .327.098.593.294.798.196.205.504.308.924.308Zm8.882-5.068a3.784 3.784 0 0 0-1.428.406c-.42.215-.733.551-.938 1.008V182h-1.232v-7.266h1.078l.126 1.582h.028c.205-.429.499-.803.882-1.12.392-.327.886-.527 1.484-.602v1.372Zm5.126 5.88c-.15.084-.341.154-.574.21a3.177 3.177 0 0 1-.742.084c-.355 0-.658-.051-.91-.154a1.75 1.75 0 0 1-.602-.406 1.705 1.705 0 0 1-.35-.588 2.416 2.416 0 0 1-.098-.686v-4.522h-.868v-1.05h.868v-1.526h1.232v1.526h2.114v1.05h-2.114v4.368c0 .308.074.532.224.672.158.14.434.21.826.21.364 0 .695-.103.994-.308v1.12ZM488.107 171.962h3.374c.672 0 1.297.079 1.876.238.578.159 1.082.42 1.512.784.429.364.765.845 1.008 1.442.242.597.364 1.335.364 2.212 0 .887-.126 1.666-.378 2.338-.243.663-.584 1.218-1.022 1.666-.43.448-.948.789-1.554 1.022a5.544 5.544 0 0 1-1.96.336h-3.22v-10.038Zm1.316 1.204v7.644h1.904c.513 0 .984-.079 1.414-.238a2.864 2.864 0 0 0 1.106-.728c.308-.336.546-.761.714-1.274.168-.513.252-1.125.252-1.834 0-.7-.084-1.279-.252-1.736-.168-.467-.402-.835-.7-1.106a2.344 2.344 0 0 0-1.05-.56 5.041 5.041 0 0 0-1.33-.168h-2.058Zm12.656 7.448a4.24 4.24 0 0 1-.322.532 2.419 2.419 0 0 1-1.19.854c-.261.093-.569.14-.924.14-.653 0-1.18-.182-1.582-.546-.401-.373-.602-.905-.602-1.596 0-.793.276-1.377.826-1.75.56-.373 1.354-.56 2.38-.56h1.358v-.602c0-.504-.13-.863-.392-1.078-.261-.215-.709-.322-1.344-.322-.448 0-.872.075-1.274.224-.401.14-.76.303-1.078.49v-1.106a5.438 5.438 0 0 1 1.05-.462 4.367 4.367 0 0 1 1.47-.238c.915 0 1.61.191 2.086.574.476.373.714.957.714 1.75v4.2c.01.103.014.21.014.322l.028.322c.01.093.019.173.028.238h-1.12a6.439 6.439 0 0 1-.084-.546 8.754 8.754 0 0 1-.028-.63l-.014-.21Zm-2.17.42c.383 0 .71-.079.98-.238.271-.159.49-.341.658-.546.168-.215.29-.42.364-.616.075-.205.112-.35.112-.434v-.532h-1.232c-.737 0-1.274.107-1.61.322-.326.205-.49.518-.49.938 0 .327.098.593.294.798.196.205.504.308.924.308Zm7.608 1.106c-.383 0-.724-.033-1.022-.098a4.78 4.78 0 0 1-.77-.21 4.152 4.152 0 0 1-.546-.28 3.603 3.603 0 0 1-.35-.266v-1.106c.093.093.219.196.378.308.158.103.35.201.574.294.224.093.476.173.756.238.289.056.611.084.966.084.522 0 .938-.084 1.246-.252.308-.168.462-.453.462-.854 0-.215-.052-.387-.154-.518a.939.939 0 0 0-.392-.308 2.429 2.429 0 0 0-.588-.196 30.242 30.242 0 0 0-.686-.14 24.244 24.244 0 0 1-.91-.21 3.182 3.182 0 0 1-.812-.35 1.898 1.898 0 0 1-.588-.602c-.15-.252-.224-.579-.224-.98 0-.653.252-1.167.756-1.54.513-.373 1.227-.56 2.142-.56.513 0 .966.051 1.358.154.401.103.709.215.924.336v1.106a3.3 3.3 0 0 0-.91-.392c-.355-.112-.798-.168-1.33-.168-.551 0-.976.075-1.274.224-.29.149-.434.42-.434.812a.82.82 0 0 0 .126.476c.084.112.196.205.336.28.149.065.317.117.504.154.186.037.382.079.588.126.317.065.644.135.98.21.336.075.634.191.896.35.27.159.49.373.658.644.177.261.266.616.266 1.064 0 .42-.084.77-.252 1.05a1.93 1.93 0 0 1-.672.672 2.86 2.86 0 0 1-.938.336c-.346.075-.7.112-1.064.112Zm7.887-6.454c-.56 0-1.017.131-1.372.392a2.874 2.874 0 0 0-.84.98V182h-1.232v-10.038h1.232v2.772l-.028 1.302h.028a2.48 2.48 0 0 1 .924-1.022c.42-.28.952-.42 1.596-.42.719 0 1.288.191 1.708.574.429.373.644.952.644 1.736V182h-1.232v-4.97c0-.504-.126-.854-.378-1.05-.252-.196-.602-.294-1.05-.294Zm11.511 2.674c0 .644-.089 1.204-.266 1.68a3.494 3.494 0 0 1-.714 1.176 3.002 3.002 0 0 1-1.036.7 3.44 3.44 0 0 1-1.232.224c-.56 0-1.05-.131-1.47-.392a2.872 2.872 0 0 1-.98-1.12l-.042 1.372h-1.162v-10.038h1.232l-.028 4.186a2.98 2.98 0 0 1 .98-1.134c.411-.28.919-.42 1.526-.42.42 0 .821.079 1.204.238.392.149.733.383 1.022.7.299.308.532.7.7 1.176.177.467.266 1.017.266 1.652Zm-3.43 2.674c.644 0 1.162-.219 1.554-.658.401-.448.602-1.12.602-2.016 0-.877-.201-1.54-.602-1.988-.392-.457-.91-.686-1.554-.686-.317 0-.616.056-.896.168a1.99 1.99 0 0 0-.714.504c-.196.215-.355.49-.476.826a3.723 3.723 0 0 0-.168 1.176c0 .448.056.84.168 1.176.121.336.28.616.476.84.205.224.443.392.714.504.28.103.579.154.896.154Zm7.904 1.106c-.494 0-.956-.084-1.386-.252a3.242 3.242 0 0 1-1.12-.728 3.558 3.558 0 0 1-.728-1.19c-.177-.467-.266-1.003-.266-1.61 0-.597.089-1.129.266-1.596.178-.476.42-.873.728-1.19.318-.317.691-.56 1.12-.728.43-.168.892-.252 1.386-.252.504 0 .971.084 1.4.252.43.168.798.411 1.106.728.318.317.565.714.742 1.19.187.467.28.999.28 1.596 0 .607-.093 1.143-.28 1.61a3.418 3.418 0 0 1-.742 1.19c-.308.317-.676.56-1.106.728a3.807 3.807 0 0 1-1.4.252Zm0-1.106c.327 0 .626-.051.896-.154a2.04 2.04 0 0 0 .728-.49 2.29 2.29 0 0 0 .476-.84c.112-.336.168-.733.168-1.19 0-.457-.056-.854-.168-1.19a2.158 2.158 0 0 0-.476-.826 1.831 1.831 0 0 0-.728-.49 2.318 2.318 0 0 0-.896-.168c-.326 0-.625.056-.896.168-.27.103-.508.266-.714.49-.196.215-.35.49-.462.826a3.775 3.775 0 0 0-.168 1.19c0 .457.056.854.168 1.19.112.336.266.616.462.84.206.215.444.378.714.49.271.103.57.154.896.154Zm9.149-.42a4.24 4.24 0 0 1-.322.532 2.419 2.419 0 0 1-1.19.854c-.261.093-.569.14-.924.14-.653 0-1.18-.182-1.582-.546-.401-.373-.602-.905-.602-1.596 0-.793.276-1.377.826-1.75.56-.373 1.354-.56 2.38-.56h1.358v-.602c0-.504-.13-.863-.392-1.078-.261-.215-.709-.322-1.344-.322-.448 0-.872.075-1.274.224-.401.14-.76.303-1.078.49v-1.106a5.438 5.438 0 0 1 1.05-.462 4.367 4.367 0 0 1 1.47-.238c.915 0 1.61.191 2.086.574.476.373.714.957.714 1.75v4.2c.01.103.014.21.014.322l.028.322c.01.093.019.173.028.238h-1.12a6.439 6.439 0 0 1-.084-.546 8.754 8.754 0 0 1-.028-.63l-.014-.21Zm-2.17.42c.383 0 .71-.079.98-.238.271-.159.49-.341.658-.546.168-.215.29-.42.364-.616.075-.205.112-.35.112-.434v-.532h-1.232c-.737 0-1.274.107-1.61.322-.326.205-.49.518-.49.938 0 .327.098.593.294.798.196.205.504.308.924.308Zm8.882-5.068a3.784 3.784 0 0 0-1.428.406c-.42.215-.733.551-.938 1.008V182h-1.232v-7.266h1.078l.126 1.582h.028c.205-.429.499-.803.882-1.12.392-.327.886-.527 1.484-.602v1.372Zm6.641 4.606a2.916 2.916 0 0 1-.938 1.148c-.402.28-.91.42-1.526.42-.439 0-.854-.075-1.246-.224a2.992 2.992 0 0 1-1.036-.7 3.494 3.494 0 0 1-.714-1.176c-.178-.476-.266-1.036-.266-1.68 0-.635.088-1.185.266-1.652.177-.476.415-.868.714-1.176a2.752 2.752 0 0 1 1.036-.7 3.387 3.387 0 0 1 1.26-.238c.55 0 1.026.117 1.428.35.401.224.723.546.966.966v-3.948h1.232V182h-1.078l-.098-1.428Zm-2.282.462c.317 0 .611-.051.882-.154.27-.112.504-.28.7-.504.205-.224.364-.504.476-.84.121-.336.182-.728.182-1.176 0-.448-.061-.84-.182-1.176a2.305 2.305 0 0 0-.476-.84 1.746 1.746 0 0 0-.7-.49 2.287 2.287 0 0 0-.882-.168c-.644 0-1.172.229-1.582.686-.402.448-.602 1.111-.602 1.988 0 .887.205 1.554.616 2.002.41.448.933.672 1.568.672Z"/><defs><filter id="a" width="500" height="230" x="106" y="10" color-interpolation-filters="sRGB" filterUnits="userSpaceOnUse"><feFlood flood-opacity="0" result="BackgroundImageFix"/><feColorMatrix in="SourceAlpha" values="0 0 0 0 0 0 0 0 0 0 0 0 0 0 0 0 0 0 127 0"/><feOffset/><feGaussianBlur stdDeviation="7.5"/><feColorMatrix values="0 0 0 0 0.592157 0 0 0 0 0.74902 0 0 0 0 0.905882 0 0 0 0.4 0"/><feBlend in2="BackgroundImageFix" result="effect1_dropShadow"/><feBlend in="SourceGraphic" in2="effect1_dropShadow" result="shape"/></filter></defs></svg>