<svg xmlns="http://www.w3.org/2000/svg" width="570" height="546" fill="none" viewBox="0 0 570 546">
    <path fill="#fff" stroke="#67B0F8" stroke-width="2" d="M14.083 9.644H193.46a4.45 4.45 0 0 1 4.447 4.451v31.158a4.449 4.449 0 0 1-4.447 4.45H14.083a4.45 4.45 0 0 1-4.447-4.45V14.095a4.45 4.45 0 0 1 4.447-4.451Z"/>
    <path fill="#000" d="M62.704 28.773c1.06 0 1.691.753 1.691 2h-3.434c0-1.254.656-2 1.743-2Zm1.704 4.24c-.174.573-.797.927-1.627.927-1.106 0-1.82-.76-1.82-1.943v-.316h4.7v-.76c0-1.994-1.112-3.204-2.944-3.204-1.82 0-3.022 1.216-3.022 3.063v1.069c0 1.995 1.125 3.153 3.093 3.153 1.51 0 2.668-.81 2.854-1.989h-1.234Zm6.385-.752 1.652 2.606h1.473l-2.367-3.552 2.347-3.463h-1.44l-1.614 2.58h-.09l-1.627-2.58h-1.504l2.366 3.514-2.353 3.5h1.408l1.659-2.605h.09Zm7.336 2.722c.99 0 1.743-.412 2.077-1.133h.123v1.023h1.228V30.08c0-1.474-.965-2.323-2.656-2.323-1.505 0-2.604.785-2.733 1.943h1.26c.168-.553.701-.875 1.447-.875.9 0 1.402.45 1.402 1.255v.618l-1.84.096c-1.632.097-2.532.83-2.532 2.079 0 1.268.887 2.11 2.224 2.11Zm.4-1.075c-.824 0-1.338-.418-1.338-1.094 0-.682.488-1.068 1.42-1.12l1.666-.084v.74c0 .895-.746 1.558-1.749 1.558Zm11.946-4.286c0-1.242-.495-1.905-1.44-1.905-.695 0-1.235.431-1.403 1.126h-.14c-.149-.714-.605-1.126-1.261-1.126-.669 0-1.164.425-1.33 1.152h-.142v-1.017H83.62v7.015h1.132V30.11c0-.772.354-1.248.92-1.248.534 0 .823.399.823 1.152v4.852h1.125V30.11c0-.772.347-1.248.9-1.248.528 0 .823.405.823 1.158v4.846h1.132v-5.245Zm5.26-1.88c-1.016 0-1.736.426-2.064 1.224h-.123v-1.114h-1.292v9.37h1.325v-3.468h.121c.284.785 1.017 1.229 2.033 1.229 1.613 0 2.642-1.152 2.642-2.98v-1.28c0-1.828-1.029-2.98-2.642-2.98Zm-.43 1.146c1.08 0 1.767.76 1.767 1.963v1.05c0 1.203-.688 1.968-1.768 1.968-1.074 0-1.756-.759-1.756-1.969v-1.049c0-1.203.682-1.963 1.756-1.963Zm11.097 5.979v-1.043h-2.251v-8.707h-3.581v1.05h2.295v7.657h-2.346v1.043h5.883Zm5.144-6.094c1.061 0 1.691.753 1.691 2h-3.434c0-1.254.656-2 1.743-2Zm1.704 4.24c-.174.573-.798.927-1.627.927-1.106 0-1.82-.76-1.82-1.943v-.316h4.7v-.76c0-1.994-1.112-3.204-2.945-3.204-1.819 0-3.022 1.216-3.022 3.063v1.069c0 1.995 1.126 3.153 3.094 3.153 1.51 0 2.668-.81 2.854-1.989h-1.234Zm6.359 1.918c.682 0 1.235-.572 1.235-1.261 0-.695-.553-1.262-1.235-1.262-.681 0-1.234.567-1.234 1.262 0 .688.553 1.261 1.234 1.261Zm11.137-4.82c-.174-1.519-1.235-2.4-2.868-2.4-1.948 0-3.073 1.165-3.073 3.21v.863c0 2.047 1.125 3.218 3.073 3.218 1.633 0 2.694-.882 2.868-2.375h-1.274c-.128.792-.745 1.262-1.607 1.262-1.138 0-1.768-.798-1.768-2.24v-.592c0-1.441.63-2.24 1.768-2.24.855 0 1.486.483 1.607 1.294h1.274Zm5.144 4.891c1.89 0 3.092-1.21 3.092-3.108v-1.062c0-1.905-1.202-3.108-3.092-3.108-1.891 0-3.093 1.203-3.093 3.108v1.062c0 1.898 1.202 3.108 3.093 3.108Zm0-6.184c1.118 0 1.819.804 1.819 2.104v.882c0 1.3-.701 2.104-1.819 2.104-1.119 0-1.82-.804-1.82-2.104v-.882c0-1.3.701-2.104 1.82-2.104Zm11.567.804c0-1.242-.495-1.905-1.44-1.905-.694 0-1.235.431-1.402 1.126h-.141c-.148-.714-.605-1.126-1.261-1.126-.669 0-1.164.425-1.33 1.152h-.142v-1.017h-1.138v7.015h1.131V30.11c0-.772.354-1.248.92-1.248.534 0 .823.399.823 1.152v4.852h1.125V30.11c0-.772.348-1.248.901-1.248.527 0 .822.405.822 1.158v4.846h1.132v-5.245Zm4.713 5.31c.682 0 1.235-.574 1.235-1.262 0-.695-.553-1.262-1.235-1.262-.681 0-1.234.567-1.234 1.262 0 .688.553 1.261 1.234 1.261Z" opacity=".8"/>
    <path fill="#ACACAC" d="M104.142 50.817a.742.742 0 1 0-1.483 0h1.483Zm-1.483 0v277.08h1.483V50.817h-1.483Zm8.895 285.982h40.397v-1.484h-40.397v1.484Zm-8.895-8.902c0 4.916 3.983 8.902 8.895 8.902v-1.484a7.415 7.415 0 0 1-7.412-7.418h-1.483Z"/>
    <path fill="#fff" stroke="#67B0F8" stroke-width="2" d="M156.398 70.475h239.415a4.45 4.45 0 0 1 4.447 4.452v31.157a4.449 4.449 0 0 1-4.447 4.451H156.398a4.448 4.448 0 0 1-4.447-4.451V74.927a4.448 4.448 0 0 1 4.447-4.452Z"/>
    <path fill="#000" fill-opacity=".8" d="M191.405 88.574c-1.016 0-1.737.425-2.064 1.223h-.122v-1.114h-1.293v9.37h1.324v-3.468h.123c.283.786 1.016 1.23 2.032 1.23 1.614 0 2.643-1.153 2.643-2.98v-1.281c0-1.828-1.029-2.98-2.643-2.98Zm-.431 1.146c1.08 0 1.768.76 1.768 1.963v1.049c0 1.203-.688 1.969-1.768 1.969-1.074 0-1.755-.76-1.755-1.97v-1.048c0-1.204.681-1.963 1.755-1.963Zm7.786.753v-1.79h-2.77v.992h1.524v5.032h-1.39v.991h4.772v-.99h-2.129V92.57c0-1.718.881-2.703 2.463-2.703.385 0 .842.083 1.157.2v-1.416c-.231-.097-.611-.148-1.009-.148-1.344 0-2.161.65-2.438 1.969h-.18Zm8.379 5.36c1.89 0 3.092-1.21 3.092-3.108v-1.061c0-1.906-1.202-3.109-3.092-3.109-1.891 0-3.093 1.203-3.093 3.108v1.062c0 1.898 1.202 3.108 3.093 3.108Zm0-6.184c1.119 0 1.82.805 1.82 2.104v.882c0 1.3-.701 2.104-1.82 2.104-1.119 0-1.82-.804-1.82-2.104v-.882c0-1.3.701-2.104 1.82-2.104Zm6.263 2.008c0-1.203.682-1.97 1.762-1.97 1.079 0 1.761.76 1.761 1.97v1.049c0 1.203-.682 1.963-1.761 1.963-1.08 0-1.762-.76-1.762-1.963v-1.05Zm3.523 2.934v1.107h1.292V85.95h-1.324v3.848h-.122c-.283-.785-1.023-1.23-2.032-1.23-1.614 0-2.643 1.153-2.643 2.987v1.274c0 1.834 1.029 2.986 2.643 2.986 1.009 0 1.73-.43 2.064-1.222h.122Zm9.439-5.907h-1.286v4.112c0 1.132-.72 1.885-1.794 1.885-1.034 0-1.517-.566-1.517-1.763v-4.235h-1.293v4.551c0 1.685.824 2.6 2.348 2.6 1.048 0 1.839-.49 2.205-1.352h.09v1.216h1.247v-7.014Zm8.192 2.258c-.173-1.518-1.234-2.4-2.868-2.4-1.948 0-3.073 1.165-3.073 3.211v.863c0 2.046 1.125 3.217 3.073 3.217 1.634 0 2.695-.88 2.868-2.374h-1.273c-.129.791-.746 1.26-1.607 1.26-1.139 0-1.769-.797-1.769-2.238v-.592c0-1.442.63-2.24 1.769-2.24.855 0 1.485.483 1.607 1.293h1.273Zm3.871-4.176v1.957h-1.852v1.061h1.852v3.79c0 1.506.785 2.15 2.578 2.15.27 0 1.287-.026 1.428-.052v-1.054c-.154.019-1.009.031-1.338.031-.893 0-1.376-.38-1.376-1.075v-3.79h2.753v-1.061H239.7v-1.957h-1.273Zm9.529.276c.579 0 .997-.398.997-.951 0-.56-.418-.96-.997-.96-.572 0-.996.4-.996.96 0 .553.424.952.996.952Zm2.958 8.656v-1.042h-2.264v-5.973h-3.568v1.043h2.308v4.93h-2.36v1.042h5.884Zm5.067.135c1.89 0 3.093-1.21 3.093-3.108v-1.061c0-1.906-1.203-3.109-3.093-3.109-1.891 0-3.093 1.203-3.093 3.108v1.062c0 1.898 1.202 3.108 3.093 3.108Zm0-6.184c1.119 0 1.82.805 1.82 2.104v.882c0 1.3-.701 2.104-1.82 2.104-1.119 0-1.82-.804-1.82-2.104v-.882c0-1.3.701-2.104 1.82-2.104Zm5.195 6.05h1.286v-4.113c0-1.132.72-1.885 1.794-1.885 1.036 0 1.517.566 1.517 1.77v4.227h1.293v-4.55c0-1.686-.823-2.6-2.347-2.6-1.048 0-1.839.49-2.205 1.359h-.09v-1.224h-1.248v7.015Zm11.085.064c.682 0 1.235-.573 1.235-1.262 0-.694-.553-1.261-1.235-1.261-.681 0-1.234.567-1.234 1.261 0 .69.553 1.262 1.234 1.262Zm8.218-6.159c1.061 0 1.691.753 1.691 2.002h-3.433c0-1.256.656-2.002 1.742-2.002Zm1.704 4.241c-.174.573-.797.927-1.627.927-1.106 0-1.819-.76-1.819-1.944v-.315h4.7v-.76c0-1.995-1.113-3.205-2.945-3.205-1.82 0-3.022 1.217-3.022 3.064v1.069c0 1.994 1.125 3.152 3.092 3.152 1.512 0 2.669-.81 2.855-1.988h-1.234Zm6.385-.753 1.652 2.606h1.473l-2.366-3.552 2.346-3.463h-1.44l-1.614 2.581h-.09l-1.626-2.58h-1.505l2.366 3.514-2.353 3.5h1.408l1.659-2.606h.09Zm7.336 2.722c.99 0 1.743-.412 2.077-1.133h.122v1.024h1.229v-4.794c0-1.475-.965-2.324-2.656-2.324-1.504 0-2.604.786-2.732 1.944h1.26c.166-.554.7-.876 1.447-.876.899 0 1.401.451 1.401 1.255v.618l-1.839.097c-1.633.096-2.533.83-2.533 2.079 0 1.267.887 2.11 2.224 2.11Zm.399-1.075c-.823 0-1.337-.418-1.337-1.093 0-.683.488-1.069 1.421-1.12l1.665-.084v.74c0 .895-.745 1.557-1.749 1.557Zm11.947-4.285c0-1.242-.495-1.906-1.44-1.906-.695 0-1.235.432-1.402 1.127h-.141c-.149-.715-.605-1.127-1.261-1.127-.668 0-1.163.425-1.331 1.153h-.141v-1.017h-1.138v7.014h1.132v-4.756c0-.772.353-1.248.919-1.248.533 0 .823.399.823 1.152v4.852h1.125v-4.756c0-.772.347-1.248.9-1.248.527 0 .823.406.823 1.159v4.845h1.132v-5.244Zm5.26-1.88c-1.017 0-1.736.425-2.065 1.223h-.121v-1.114h-1.293v9.37h1.325v-3.468h.122c.283.786 1.015 1.23 2.032 1.23 1.613 0 2.642-1.153 2.642-2.98v-1.281c0-1.828-1.029-2.98-2.642-2.98Zm-.431 1.146c1.08 0 1.768.76 1.768 1.963v1.049c0 1.203-.688 1.969-1.768 1.969-1.074 0-1.755-.76-1.755-1.97v-1.048c0-1.204.681-1.963 1.755-1.963Zm11.098 5.978v-1.042h-2.251V85.95h-3.581v1.049h2.295v7.658h-2.347v1.042h5.884Zm5.144-6.094c1.061 0 1.691.753 1.691 2.002h-3.433c0-1.256.655-2.002 1.742-2.002Zm1.704 4.241c-.174.573-.797.927-1.627.927-1.106 0-1.819-.76-1.819-1.944v-.315h4.7v-.76c0-1.995-1.113-3.205-2.945-3.205-1.82 0-3.022 1.217-3.022 3.064v1.069c0 1.994 1.125 3.152 3.092 3.152 1.512 0 2.669-.81 2.856-1.988h-1.235Zm6.359 1.918c.682 0 1.235-.573 1.235-1.262 0-.694-.553-1.261-1.235-1.261-.681 0-1.234.567-1.234 1.261 0 .69.553 1.262 1.234 1.262Zm11.137-4.82c-.174-1.52-1.235-2.4-2.868-2.4-1.948 0-3.073 1.164-3.073 3.21v.863c0 2.046 1.125 3.217 3.073 3.217 1.633 0 2.694-.88 2.868-2.374h-1.273c-.129.791-.747 1.26-1.608 1.26-1.138 0-1.768-.797-1.768-2.238v-.592c0-1.442.63-2.24 1.768-2.24.856 0 1.486.483 1.608 1.293h1.273Zm5.144 4.89c1.89 0 3.093-1.21 3.093-3.108v-1.061c0-1.906-1.203-3.109-3.093-3.109s-3.093 1.203-3.093 3.108v1.062c0 1.898 1.203 3.108 3.093 3.108Zm0-6.184c1.119 0 1.819.805 1.819 2.104v.882c0 1.3-.7 2.104-1.819 2.104s-1.82-.804-1.82-2.104v-.882c0-1.3.701-2.104 1.82-2.104Zm11.567.805c0-1.242-.495-1.906-1.44-1.906-.695 0-1.235.432-1.402 1.127h-.141c-.148-.715-.604-1.127-1.26-1.127-.669 0-1.164.425-1.332 1.153h-.141v-1.017h-1.138v7.014h1.132v-4.756c0-.772.353-1.248.919-1.248.534 0 .823.399.823 1.152v4.852h1.126v-4.756c0-.772.347-1.248.9-1.248.527 0 .822.406.822 1.159v4.845h1.132v-5.244Zm4.714 5.309c.681 0 1.234-.573 1.234-1.262 0-.694-.553-1.261-1.234-1.261-.682 0-1.235.567-1.235 1.261 0 .69.553 1.262 1.235 1.262Z"/>
    <path fill="#fff" stroke="#67B0F8" stroke-width="2" d="M156.398 313.802h239.415a4.449 4.449 0 0 1 4.447 4.451v31.157a4.449 4.449 0 0 1-4.447 4.451H156.398a4.448 4.448 0 0 1-4.447-4.451v-31.157a4.448 4.448 0 0 1 4.447-4.451Z"/>
    <path fill="#000" d="M214.046 330.092v1.957h-1.853v1.061h1.853v3.791c0 1.505.784 2.149 2.578 2.149.27 0 1.286-.026 1.427-.052v-1.054c-.154.019-1.009.031-1.337.031-.894 0-1.376-.379-1.376-1.074v-3.791h2.752v-1.061h-2.772v-1.957h-1.272Zm9.49 2.838c1.061 0 1.691.753 1.691 2.002h-3.433c0-1.256.656-2.002 1.742-2.002Zm1.704 4.241c-.174.573-.797.927-1.627.927-1.105 0-1.819-.76-1.819-1.944v-.315h4.7v-.76c0-1.995-1.113-3.204-2.945-3.204-1.82 0-3.022 1.216-3.022 3.063v1.069c0 1.994 1.125 3.152 3.092 3.152 1.512 0 2.669-.81 2.856-1.988h-1.235Zm3.723-3.224c0 1.023.637 1.666 1.916 1.957l1.048.238c.849.193 1.164.457 1.164.971 0 .612-.566 1.004-1.447 1.004-.849 0-1.427-.341-1.569-.94h-1.298c.115 1.236 1.183 1.976 2.835 1.976 1.711 0 2.81-.85 2.81-2.181 0-1.03-.623-1.622-2.007-1.931l-1.015-.225c-.817-.18-1.158-.457-1.158-.959 0-.58.534-.965 1.357-.965.772 0 1.318.353 1.434.926h1.235c-.116-1.216-1.119-1.949-2.649-1.949-1.608 0-2.656.823-2.656 2.078Zm9.503-3.855v1.957h-1.852v1.061h1.852v3.791c0 1.505.785 2.149 2.579 2.149.27 0 1.286-.026 1.427-.052v-1.054c-.154.019-1.009.031-1.338.031-.893 0-1.375-.379-1.375-1.074v-3.791h2.752v-1.061h-2.772v-1.957h-1.273Zm9.414 8.997c.682 0 1.234-.573 1.234-1.262 0-.694-.552-1.261-1.234-1.261-.682 0-1.235.567-1.235 1.261 0 .689.553 1.262 1.235 1.262Zm8.218-6.159c1.06 0 1.69.753 1.69 2.002h-3.433c0-1.256.656-2.002 1.743-2.002Zm1.704 4.241c-.175.573-.798.927-1.627.927-1.106 0-1.82-.76-1.82-1.944v-.315h4.7v-.76c0-1.995-1.113-3.204-2.945-3.204-1.82 0-3.022 1.216-3.022 3.063v1.069c0 1.994 1.125 3.152 3.093 3.152 1.511 0 2.669-.81 2.855-1.988h-1.234Zm6.384-.753 1.653 2.606h1.472l-2.366-3.552 2.347-3.462h-1.441l-1.613 2.58h-.09l-1.627-2.58h-1.505l2.366 3.514-2.353 3.5h1.408l1.659-2.606h.09Zm7.337 2.722c.99 0 1.743-.412 2.077-1.133h.122v1.024h1.228v-4.794c0-1.474-.965-2.324-2.655-2.324-1.505 0-2.605.786-2.733 1.944h1.26c.167-.554.701-.876 1.447-.876.9 0 1.401.451 1.401 1.256v.618l-1.839.096c-1.632.096-2.533.83-2.533 2.079 0 1.267.887 2.11 2.225 2.11Zm.398-1.075c-.823 0-1.337-.417-1.337-1.093 0-.683.488-1.069 1.421-1.12l1.665-.084v.74c0 .895-.745 1.557-1.749 1.557Zm11.947-4.285c0-1.242-.495-1.905-1.44-1.905-.695 0-1.234.431-1.402 1.126h-.141c-.148-.715-.604-1.126-1.26-1.126-.669 0-1.164.425-1.332 1.152h-.141v-1.017h-1.138v7.014h1.132v-4.756c0-.772.353-1.248.919-1.248.534 0 .824.399.824 1.152v4.852h1.125v-4.756c0-.772.347-1.248.9-1.248.527 0 .822.406.822 1.159v4.845h1.132v-5.244Zm5.26-1.88c-1.016 0-1.736.426-2.064 1.223h-.122v-1.113h-1.293v9.37h1.325v-3.469h.122c.283.786 1.016 1.229 2.032 1.229 1.614 0 2.643-1.152 2.643-2.979v-1.281c0-1.827-1.029-2.98-2.643-2.98Zm-.431 1.146c1.08 0 1.769.76 1.769 1.963v1.049c0 1.203-.689 1.969-1.769 1.969-1.074 0-1.755-.759-1.755-1.969v-1.049c0-1.203.681-1.963 1.755-1.963Zm11.099 5.978v-1.042h-2.251v-8.707h-3.581v1.049h2.295v7.658h-2.347v1.042h5.884Zm5.144-6.094c1.06 0 1.69.753 1.69 2.002h-3.433c0-1.256.656-2.002 1.743-2.002Zm1.703 4.241c-.173.573-.797.927-1.626.927-1.106 0-1.82-.76-1.82-1.944v-.315h4.7v-.76c0-1.995-1.112-3.204-2.945-3.204-1.819 0-3.022 1.216-3.022 3.063v1.069c0 1.994 1.125 3.152 3.093 3.152 1.511 0 2.668-.81 2.855-1.988h-1.235Zm6.36 1.918c.681 0 1.234-.573 1.234-1.262 0-.694-.553-1.261-1.234-1.261-.682 0-1.235.567-1.235 1.261 0 .689.553 1.262 1.235 1.262Zm11.137-4.821c-.175-1.518-1.235-2.399-2.868-2.399-1.949 0-3.074 1.164-3.074 3.21v.863c0 2.046 1.125 3.217 3.074 3.217 1.633 0 2.693-.881 2.868-2.374h-1.274c-.129.791-.746 1.261-1.608 1.261-1.137 0-1.767-.798-1.767-2.239v-.592c0-1.442.63-2.24 1.767-2.24.856 0 1.486.483 1.608 1.293h1.274Zm5.143 4.891c1.891 0 3.093-1.209 3.093-3.108v-1.061c0-1.906-1.202-3.109-3.093-3.109-1.89 0-3.093 1.203-3.093 3.109v1.061c0 1.899 1.203 3.108 3.093 3.108Zm0-6.184c1.119 0 1.82.805 1.82 2.104v.882c0 1.3-.701 2.104-1.82 2.104-1.119 0-1.82-.804-1.82-2.104v-.882c0-1.299.701-2.104 1.82-2.104Zm11.567.805c0-1.242-.495-1.905-1.44-1.905-.694 0-1.234.431-1.401 1.126h-.142c-.148-.715-.604-1.126-1.26-1.126-.669 0-1.164.425-1.331 1.152h-.142v-1.017h-1.138v7.014h1.132v-4.756c0-.772.354-1.248.919-1.248.534 0 .824.399.824 1.152v4.852h1.125v-4.756c0-.772.347-1.248.9-1.248.528 0 .823.406.823 1.159v4.845h1.131v-5.244Zm4.714 5.309c.682 0 1.235-.573 1.235-1.262 0-.694-.553-1.261-1.235-1.261s-1.235.567-1.235 1.261c0 .689.553 1.262 1.235 1.262Z"/>
    <path fill="#fff" stroke="#67B0F8" stroke-width="2" d="M316.502 131.307h239.415a4.45 4.45 0 0 1 4.447 4.451v31.158a4.45 4.45 0 0 1-4.447 4.451H316.502a4.45 4.45 0 0 1-4.447-4.451v-31.158a4.45 4.45 0 0 1 4.447-4.451Z"/>
    <path fill="#000" fill-opacity=".8" d="M329.43 156.646c.99 0 1.742-.412 2.077-1.133h.122v1.024h1.228v-4.795c0-1.474-.964-2.323-2.656-2.323-1.504 0-2.604.785-2.732 1.943h1.26c.167-.553.701-.875 1.447-.875.9 0 1.402.451 1.402 1.255v.618l-1.839.096c-1.634.097-2.534.831-2.534 2.079 0 1.268.887 2.111 2.225 2.111Zm.398-1.075c-.822 0-1.337-.418-1.337-1.094 0-.682.489-1.068 1.421-1.12l1.666-.083v.74c0 .894-.746 1.557-1.75 1.557Zm9.067-6.165c-1.016 0-1.736.425-2.064 1.222h-.123v-1.113h-1.292v9.37h1.325v-3.469h.122c.283.786 1.016 1.23 2.032 1.23 1.614 0 2.642-1.152 2.642-2.98v-1.281c0-1.827-1.028-2.979-2.642-2.979Zm-.431 1.145c1.08 0 1.768.76 1.768 1.963v1.049c0 1.204-.688 1.969-1.768 1.969-1.074 0-1.756-.759-1.756-1.969v-1.049c0-1.203.682-1.963 1.756-1.963Zm8.571-1.145c-1.016 0-1.736.425-2.063 1.222h-.123v-1.113h-1.292v9.37h1.324v-3.469h.122c.284.786 1.016 1.23 2.032 1.23 1.614 0 2.643-1.152 2.643-2.98v-1.281c0-1.827-1.029-2.979-2.643-2.979Zm-.431 1.145c1.08 0 1.768.76 1.768 1.963v1.049c0 1.204-.688 1.969-1.768 1.969-1.074 0-1.755-.759-1.755-1.969v-1.049c0-1.203.681-1.963 1.755-1.963Zm8.025 6.043c.682 0 1.235-.572 1.235-1.261 0-.695-.553-1.262-1.235-1.262-.681 0-1.235.567-1.235 1.262 0 .689.554 1.261 1.235 1.261Zm8.687-7.188c-1.016 0-1.736.425-2.064 1.222h-.123v-1.113h-1.291v9.37h1.324v-3.469h.122c.283.786 1.016 1.23 2.032 1.23 1.614 0 2.643-1.152 2.643-2.98v-1.281c0-1.827-1.029-2.979-2.643-2.979Zm-.431 1.145c1.08 0 1.768.76 1.768 1.963v1.049c0 1.204-.688 1.969-1.768 1.969-1.074 0-1.756-.759-1.756-1.969v-1.049c0-1.203.682-1.963 1.756-1.963Zm7.787.753v-1.789h-2.771v.991h1.523v5.033h-1.389v.991h4.772v-.991h-2.129v-2.137c0-1.718.881-2.702 2.463-2.702.385 0 .842.083 1.157.199v-1.416c-.231-.096-.611-.148-1.01-.148-1.343 0-2.159.65-2.436 1.969h-.18Zm8.378 5.361c1.89 0 3.093-1.21 3.093-3.108v-1.062c0-1.905-1.203-3.108-3.093-3.108s-3.093 1.203-3.093 3.108v1.062c0 1.898 1.203 3.108 3.093 3.108Zm0-6.184c1.119 0 1.82.804 1.82 2.104v.882c0 1.3-.701 2.104-1.82 2.104-1.118 0-1.82-.804-1.82-2.104v-.882c0-1.3.702-2.104 1.82-2.104Zm6.263 2.007c0-1.203.682-1.969 1.761-1.969 1.081 0 1.762.759 1.762 1.969v1.049c0 1.204-.681 1.963-1.762 1.963-1.079 0-1.761-.759-1.761-1.963v-1.049Zm3.523 2.935v1.107h1.293v-9.749h-1.325v3.847h-.122c-.283-.784-1.022-1.229-2.032-1.229-1.614 0-2.643 1.152-2.643 2.986v1.275c0 1.834 1.029 2.986 2.643 2.986 1.01 0 1.73-.431 2.064-1.223h.122Zm9.44-5.908h-1.286v4.113c0 1.132-.721 1.885-1.795 1.885-1.034 0-1.517-.566-1.517-1.764v-4.234h-1.292v4.55c0 1.686.823 2.6 2.347 2.6 1.048 0 1.839-.489 2.205-1.352h.09v1.217h1.248v-7.015Zm8.191 2.259c-.173-1.519-1.234-2.4-2.868-2.4-1.948 0-3.073 1.165-3.073 3.211v.863c0 2.046 1.125 3.217 3.073 3.217 1.634 0 2.695-.881 2.868-2.375h-1.273c-.129.792-.746 1.261-1.607 1.261-1.138 0-1.769-.797-1.769-2.239v-.592c0-1.442.631-2.239 1.769-2.239.855 0 1.485.482 1.607 1.293h1.273Zm3.871-4.177v1.957h-1.852v1.062h1.852v3.79c0 1.506.785 2.15 2.578 2.15.271 0 1.286-.026 1.428-.052v-1.055c-.154.019-1.009.032-1.337.032-.894 0-1.377-.38-1.377-1.075v-3.79h2.753v-1.062h-2.772v-1.957h-1.273Zm9.53.277c.578 0 .996-.398.996-.952 0-.56-.418-.959-.996-.959-.573 0-.997.399-.997.959 0 .554.424.952.997.952Zm2.957 8.656v-1.042h-2.263v-5.973h-3.569v1.043h2.308v4.93h-2.359v1.042h5.883Zm5.067.135c1.89 0 3.092-1.21 3.092-3.108v-1.062c0-1.905-1.202-3.108-3.092-3.108-1.891 0-3.093 1.203-3.093 3.108v1.062c0 1.898 1.202 3.108 3.093 3.108Zm0-6.184c1.119 0 1.82.804 1.82 2.104v.882c0 1.3-.701 2.104-1.82 2.104-1.119 0-1.82-.804-1.82-2.104v-.882c0-1.3.701-2.104 1.82-2.104Zm5.195 6.049h1.286v-4.112c0-1.133.721-1.886 1.794-1.886 1.036 0 1.518.566 1.518 1.77v4.228h1.292v-4.55c0-1.686-.823-2.6-2.347-2.6-1.048 0-1.839.49-2.206 1.358h-.089v-1.223h-1.248v7.015Zm11.085.064c.682 0 1.235-.572 1.235-1.261 0-.695-.553-1.262-1.235-1.262-.681 0-1.234.567-1.234 1.262 0 .689.553 1.261 1.234 1.261Zm8.218-6.158c1.061 0 1.691.753 1.691 2.001h-3.433c0-1.255.656-2.001 1.742-2.001Zm1.704 4.241c-.174.572-.797.926-1.627.926-1.106 0-1.819-.759-1.819-1.943v-.316h4.7v-.759c0-1.995-1.113-3.205-2.945-3.205-1.82 0-3.022 1.217-3.022 3.063v1.069c0 1.995 1.125 3.153 3.093 3.153 1.511 0 2.668-.811 2.854-1.988h-1.234Zm6.385-.753 1.652 2.606h1.473l-2.367-3.552 2.348-3.463h-1.441l-1.614 2.581h-.089l-1.627-2.581h-1.505l2.366 3.514-2.353 3.501h1.408l1.659-2.606h.09Zm7.337 2.722c.99 0 1.742-.412 2.077-1.133h.121v1.024h1.228v-4.795c0-1.474-.964-2.323-2.655-2.323-1.504 0-2.604.785-2.732 1.943h1.26c.167-.553.701-.875 1.446-.875.9 0 1.402.451 1.402 1.255v.618l-1.839.096c-1.633.097-2.533.831-2.533 2.079 0 1.268.887 2.111 2.225 2.111Zm.398-1.075c-.823 0-1.337-.418-1.337-1.094 0-.682.488-1.068 1.421-1.12l1.665-.083v.74c0 .894-.746 1.557-1.749 1.557Zm11.947-4.286c0-1.242-.495-1.905-1.44-1.905-.695 0-1.234.432-1.402 1.126h-.142c-.147-.714-.604-1.126-1.26-1.126-.668 0-1.163.425-1.331 1.152h-.141v-1.017h-1.138v7.015h1.132v-4.756c0-.772.353-1.249.919-1.249.533 0 .823.399.823 1.152v4.853h1.125v-4.756c0-.772.347-1.249.9-1.249.527 0 .824.406.824 1.159v4.846h1.131v-5.245Zm5.26-1.879c-1.016 0-1.736.425-2.064 1.222h-.122v-1.113h-1.293v9.37h1.325v-3.469h.122c.283.786 1.016 1.23 2.032 1.23 1.614 0 2.643-1.152 2.643-2.98v-1.281c0-1.827-1.029-2.979-2.643-2.979Zm-.431 1.145c1.08 0 1.769.76 1.769 1.963v1.049c0 1.204-.689 1.969-1.769 1.969-1.074 0-1.755-.759-1.755-1.969v-1.049c0-1.203.681-1.963 1.755-1.963Zm11.098 5.979v-1.042h-2.25v-8.707h-3.582v1.048h2.296v7.659h-2.348v1.042h5.884Zm5.144-6.094c1.061 0 1.691.753 1.691 2.001h-3.433c0-1.255.656-2.001 1.742-2.001Zm1.704 4.241c-.174.572-.797.926-1.627.926-1.105 0-1.819-.759-1.819-1.943v-.316h4.7v-.759c0-1.995-1.113-3.205-2.945-3.205-1.82 0-3.022 1.217-3.022 3.063v1.069c0 1.995 1.125 3.153 3.092 3.153 1.512 0 2.669-.811 2.856-1.988h-1.235Zm6.359 1.917c.682 0 1.235-.572 1.235-1.261 0-.695-.553-1.262-1.235-1.262s-1.235.567-1.235 1.262c0 .689.553 1.261 1.235 1.261Zm11.137-4.82c-.174-1.519-1.235-2.4-2.868-2.4-1.948 0-3.073 1.165-3.073 3.211v.863c0 2.046 1.125 3.217 3.073 3.217 1.633 0 2.694-.881 2.868-2.375h-1.273c-.129.792-.746 1.261-1.608 1.261-1.138 0-1.768-.797-1.768-2.239v-.592c0-1.442.63-2.239 1.768-2.239.855 0 1.486.482 1.608 1.293h1.273Zm5.144 4.891c1.89 0 3.093-1.21 3.093-3.108v-1.062c0-1.905-1.203-3.108-3.093-3.108-1.891 0-3.093 1.203-3.093 3.108v1.062c0 1.898 1.202 3.108 3.093 3.108Zm0-6.184c1.119 0 1.819.804 1.819 2.104v.882c0 1.3-.7 2.104-1.819 2.104s-1.82-.804-1.82-2.104v-.882c0-1.3.701-2.104 1.82-2.104Zm11.567.804c0-1.242-.495-1.905-1.44-1.905-.695 0-1.234.432-1.402 1.126h-.141c-.148-.714-.604-1.126-1.26-1.126-.669 0-1.164.425-1.332 1.152h-.14v-1.017h-1.139v7.015h1.132v-4.756c0-.772.353-1.249.919-1.249.534 0 .823.399.823 1.152v4.853h1.126v-4.756c0-.772.347-1.249.899-1.249.528 0 .824.406.824 1.159v4.846h1.131v-5.245Zm4.714 5.309c.681 0 1.234-.572 1.234-1.261 0-.695-.553-1.262-1.234-1.262-.682 0-1.235.567-1.235 1.262 0 .689.553 1.261 1.235 1.261Z"/>
    <path fill="#fff" stroke="#67B0F8" stroke-width="2" d="M316.502 252.97h239.415a4.45 4.45 0 0 1 4.447 4.451v31.158a4.45 4.45 0 0 1-4.447 4.451H316.502a4.45 4.45 0 0 1-4.447-4.451v-31.158a4.45 4.45 0 0 1 4.447-4.451Z"/>
    <path fill="#000" fill-opacity=".8" d="M329.929 272.948c0-1.242-.495-1.905-1.44-1.905-.695 0-1.235.432-1.402 1.126h-.141c-.148-.714-.605-1.126-1.261-1.126-.669 0-1.164.425-1.331 1.152h-.141v-1.017h-1.139v7.015h1.132v-4.756c0-.772.354-1.249.92-1.249.534 0 .823.4.823 1.153v4.852h1.125v-4.756c0-.772.348-1.249.901-1.249.527 0 .822.406.822 1.159v4.846h1.132v-5.245Zm3.935 5.361c.991 0 1.743-.412 2.077-1.133h.123v1.024h1.227v-4.795c0-1.474-.964-2.323-2.655-2.323-1.505 0-2.605.785-2.733 1.943h1.26c.168-.553.701-.875 1.447-.875.901 0 1.402.451 1.402 1.255v.618l-1.839.096c-1.633.097-2.534.831-2.534 2.079 0 1.268.887 2.111 2.225 2.111Zm.399-1.075c-.823 0-1.338-.418-1.338-1.094 0-.682.489-1.068 1.421-1.12l1.666-.083v.74c0 .894-.746 1.557-1.749 1.557Zm8.635-7.697c.579 0 .997-.398.997-.952 0-.56-.418-.959-.997-.959-.572 0-.997.399-.997.959 0 .554.425.952.997.952Zm2.958 8.656v-1.042h-2.263v-5.973h-3.569v1.043h2.309v4.93h-2.36v1.042h5.883Zm8.141 0v-1.042h-2.251v-8.707h-3.581v1.049h2.295v7.658h-2.347v1.042h5.884Zm5.066.064c.682 0 1.235-.572 1.235-1.261 0-.695-.553-1.262-1.235-1.262-.681 0-1.234.567-1.234 1.262 0 .689.553 1.261 1.234 1.261Zm8.687-7.188c-1.016 0-1.736.425-2.064 1.223h-.122v-1.114h-1.293v9.37h1.325v-3.469h.122c.283.786 1.016 1.23 2.032 1.23 1.614 0 2.643-1.152 2.643-2.98v-1.281c0-1.827-1.029-2.979-2.643-2.979Zm-.431 1.145c1.08 0 1.768.76 1.768 1.963v1.049c0 1.204-.688 1.969-1.768 1.969-1.074 0-1.755-.759-1.755-1.969v-1.049c0-1.203.681-1.963 1.755-1.963Zm7.787.753v-1.789h-2.771v.991h1.523v5.033h-1.389v.991h4.772v-.991h-2.128v-2.137c0-1.718.88-2.702 2.462-2.702.386 0 .843.083 1.158.199v-1.416c-.232-.096-.612-.148-1.01-.148-1.344 0-2.16.65-2.437 1.969h-.18Zm8.378 5.361c1.891 0 3.093-1.21 3.093-3.108v-1.062c0-1.905-1.202-3.108-3.093-3.108-1.89 0-3.092 1.203-3.092 3.108v1.062c0 1.898 1.202 3.108 3.092 3.108Zm0-6.184c1.119 0 1.82.804 1.82 2.104v.882c0 1.3-.701 2.104-1.82 2.104-1.119 0-1.82-.804-1.82-2.104v-.882c0-1.3.701-2.104 1.82-2.104Zm6.263 2.007c0-1.203.681-1.969 1.761-1.969 1.081 0 1.762.759 1.762 1.969v1.049c0 1.204-.681 1.963-1.762 1.963-1.08 0-1.761-.759-1.761-1.963v-1.049Zm3.523 2.935v1.107h1.293v-9.749h-1.325v3.848h-.122c-.283-.785-1.022-1.23-2.032-1.23-1.613 0-2.642 1.152-2.642 2.986v1.275c0 1.834 1.029 2.986 2.642 2.986 1.01 0 1.73-.431 2.065-1.223h.121Zm9.44-5.908h-1.286v4.113c0 1.132-.721 1.885-1.794 1.885-1.035 0-1.518-.566-1.518-1.764v-4.234h-1.292v4.551c0 1.685.823 2.599 2.347 2.599 1.048 0 1.839-.489 2.206-1.352h.089v1.217h1.248v-7.015Zm8.192 2.259c-.174-1.519-1.235-2.4-2.868-2.4-1.949 0-3.074 1.165-3.074 3.211v.863c0 2.046 1.125 3.217 3.074 3.217 1.633 0 2.694-.881 2.868-2.375h-1.274c-.128.792-.745 1.261-1.607 1.261-1.138 0-1.768-.797-1.768-2.238v-.592c0-1.443.63-2.24 1.768-2.24.855 0 1.485.482 1.607 1.293h1.274Zm3.87-4.177v1.957h-1.851v1.062h1.851v3.79c0 1.506.785 2.15 2.578 2.15.271 0 1.286-.026 1.428-.052v-1.055c-.154.019-1.01.032-1.337.032-.894 0-1.376-.38-1.376-1.075v-3.79h2.752v-1.062h-2.772v-1.957h-1.273Zm9.53.277c.579 0 .997-.398.997-.952 0-.56-.418-.959-.997-.959-.573 0-.997.399-.997.959 0 .554.424.952.997.952Zm2.957 8.656v-1.042h-2.263v-5.973h-3.569v1.043h2.309v4.93h-2.36v1.042h5.883Zm5.067.135c1.89 0 3.093-1.21 3.093-3.108v-1.062c0-1.905-1.203-3.108-3.093-3.108s-3.092 1.203-3.092 3.108v1.062c0 1.898 1.202 3.108 3.092 3.108Zm0-6.184c1.119 0 1.82.804 1.82 2.104v.882c0 1.3-.701 2.104-1.82 2.104-1.118 0-1.82-.804-1.82-2.104v-.882c0-1.3.702-2.104 1.82-2.104Zm5.195 6.049h1.286v-4.112c0-1.133.721-1.886 1.795-1.886 1.035 0 1.517.566 1.517 1.77v4.228h1.292v-4.55c0-1.686-.823-2.6-2.347-2.6-1.048 0-1.839.49-2.205 1.358h-.09v-1.223h-1.248v7.015Zm11.086.064c.681 0 1.234-.572 1.234-1.261 0-.695-.553-1.262-1.234-1.262-.682 0-1.235.567-1.235 1.262 0 .689.553 1.261 1.235 1.261Zm8.217-6.158c1.061 0 1.692.753 1.692 2.001h-3.434c0-1.255.656-2.001 1.742-2.001Zm1.704 4.241c-.173.573-.797.926-1.627.926-1.106 0-1.819-.759-1.819-1.943v-.316h4.7v-.759c0-1.995-1.112-3.205-2.945-3.205-1.82 0-3.022 1.217-3.022 3.063v1.069c0 1.995 1.125 3.153 3.093 3.153 1.511 0 2.668-.811 2.854-1.988h-1.234Zm6.385-.753 1.652 2.606h1.473l-2.366-3.552 2.347-3.463h-1.44l-1.615 2.581h-.089l-1.627-2.581h-1.505l2.367 3.514-2.354 3.501h1.408l1.66-2.606h.089Zm7.337 2.722c.99 0 1.742-.412 2.077-1.133h.122v1.024h1.228v-4.795c0-1.474-.965-2.323-2.656-2.323-1.504 0-2.604.785-2.732 1.943h1.26c.167-.553.701-.875 1.446-.875.901 0 1.402.451 1.402 1.255v.618l-1.839.096c-1.633.097-2.533.831-2.533 2.079 0 1.268.888 2.111 2.225 2.111Zm.399-1.075c-.824 0-1.338-.418-1.338-1.094 0-.682.489-1.068 1.421-1.12l1.665-.083v.74c0 .894-.746 1.557-1.748 1.557Zm11.947-4.286c0-1.242-.496-1.905-1.441-1.905-.694 0-1.234.432-1.402 1.126h-.142c-.147-.714-.604-1.126-1.26-1.126-.668 0-1.163.425-1.33 1.152h-.142v-1.017h-1.138v7.015h1.132v-4.756c0-.772.353-1.249.919-1.249.534 0 .823.4.823 1.153v4.852h1.125v-4.756c0-.772.347-1.249.9-1.249.528 0 .824.406.824 1.159v4.846h1.132v-5.245Zm5.259-1.879c-1.016 0-1.736.425-2.064 1.223h-.122v-1.114h-1.292v9.37h1.324v-3.469h.122c.283.786 1.016 1.23 2.032 1.23 1.614 0 2.643-1.152 2.643-2.98v-1.281c0-1.827-1.029-2.979-2.643-2.979Zm-.431 1.145c1.081 0 1.768.76 1.768 1.963v1.049c0 1.204-.687 1.969-1.768 1.969-1.073 0-1.755-.759-1.755-1.969v-1.049c0-1.203.682-1.963 1.755-1.963Zm11.098 5.979v-1.042h-2.25v-8.707h-3.582v1.049h2.296v7.658h-2.347v1.042h5.883Zm5.144-6.094c1.061 0 1.691.753 1.691 2.001h-3.433c0-1.255.656-2.001 1.742-2.001Zm1.704 4.241c-.173.573-.797.926-1.627.926-1.105 0-1.819-.759-1.819-1.943v-.316h4.7v-.759c0-1.995-1.112-3.205-2.945-3.205-1.82 0-3.022 1.217-3.022 3.063v1.069c0 1.995 1.125 3.153 3.093 3.153 1.511 0 2.668-.811 2.855-1.988h-1.235Zm6.359 1.917c.682 0 1.235-.572 1.235-1.261 0-.695-.553-1.262-1.235-1.262-.681 0-1.234.567-1.234 1.262 0 .689.553 1.261 1.234 1.261Zm11.137-4.82c-.173-1.519-1.235-2.4-2.868-2.4-1.948 0-3.073 1.165-3.073 3.211v.863c0 2.046 1.125 3.217 3.073 3.217 1.633 0 2.695-.881 2.868-2.375h-1.273c-.128.792-.746 1.261-1.607 1.261-1.139 0-1.769-.797-1.769-2.238v-.592c0-1.443.63-2.24 1.769-2.24.854 0 1.484.482 1.607 1.293h1.273Zm5.144 4.891c1.89 0 3.093-1.21 3.093-3.108v-1.062c0-1.905-1.203-3.108-3.093-3.108-1.891 0-3.093 1.203-3.093 3.108v1.062c0 1.898 1.202 3.108 3.093 3.108Zm0-6.184c1.119 0 1.82.804 1.82 2.104v.882c0 1.3-.701 2.104-1.82 2.104-1.119 0-1.819-.804-1.819-2.104v-.882c0-1.3.7-2.104 1.819-2.104Zm11.568.804c0-1.242-.495-1.905-1.44-1.905-.695 0-1.235.432-1.403 1.126h-.141c-.148-.714-.604-1.126-1.26-1.126-.669 0-1.164.425-1.331 1.152h-.141v-1.017h-1.139v7.015h1.132v-4.756c0-.772.353-1.249.92-1.249.533 0 .822.4.822 1.153v4.852h1.126v-4.756c0-.772.347-1.249.9-1.249.527 0 .823.406.823 1.159v4.846h1.132v-5.245Zm4.713 5.309c.681 0 1.234-.572 1.234-1.261 0-.695-.553-1.262-1.234-1.262-.682 0-1.235.567-1.235 1.262 0 .689.553 1.261 1.235 1.261Z"/>
    <path fill="#fff" stroke="#67B0F8" stroke-width="2" d="M316.502 192.139h239.415a4.449 4.449 0 0 1 4.447 4.451v31.157a4.449 4.449 0 0 1-4.447 4.451H316.502a4.449 4.449 0 0 1-4.447-4.451V196.59a4.449 4.449 0 0 1 4.447-4.451Z"/>
    <path fill="#000" fill-opacity=".8" d="M332.778 213.32c0-1.203.682-1.969 1.762-1.969s1.761.759 1.761 1.969v1.049c0 1.203-.681 1.963-1.761 1.963-1.08 0-1.762-.76-1.762-1.963v-1.049Zm3.523 2.935v1.106h1.293v-9.749h-1.324v3.848h-.123c-.283-.785-1.023-1.229-2.032-1.229-1.614 0-2.643 1.152-2.643 2.986v1.274c0 1.834 1.029 2.986 2.643 2.986 1.009 0 1.73-.431 2.064-1.222h.122Zm7.035 1.222c1.614 0 2.642-1.152 2.642-2.986v-1.274c0-1.834-1.028-2.986-2.642-2.986-1.01 0-1.743.444-2.025 1.229h-.129v-3.848h-1.325v9.749h1.299v-1.106h.122c.328.791 1.048 1.222 2.058 1.222Zm-.424-1.145c-1.074 0-1.762-.76-1.762-1.963v-1.049c0-1.21.688-1.969 1.762-1.969 1.08 0 1.761.766 1.761 1.969v1.049c0 1.203-.681 1.963-1.761 1.963Zm8.024 1.094c.681 0 1.234-.573 1.234-1.262 0-.694-.553-1.261-1.234-1.261-.682 0-1.235.567-1.235 1.261 0 .689.553 1.262 1.235 1.262Zm8.687-7.189c-1.016 0-1.736.426-2.064 1.223h-.122v-1.113h-1.293v9.37h1.325v-3.469h.122c.283.786 1.016 1.229 2.032 1.229 1.614 0 2.643-1.152 2.643-2.979v-1.281c0-1.827-1.029-2.98-2.643-2.98Zm-.431 1.146c1.081 0 1.768.76 1.768 1.963v1.049c0 1.203-.687 1.969-1.768 1.969-1.073 0-1.755-.759-1.755-1.969v-1.049c0-1.203.682-1.963 1.755-1.963Zm7.786.753v-1.789h-2.77v.991h1.523v5.032h-1.388v.991h4.77v-.991h-2.128v-2.136c0-1.718.881-2.703 2.463-2.703.386 0 .842.083 1.157.2v-1.416c-.231-.097-.611-.148-1.009-.148-1.344 0-2.161.65-2.437 1.969h-.181Zm8.379 5.36c1.89 0 3.093-1.21 3.093-3.108v-1.061c0-1.906-1.203-3.109-3.093-3.109-1.891 0-3.093 1.203-3.093 3.109v1.061c0 1.898 1.202 3.108 3.093 3.108Zm0-6.184c1.119 0 1.82.805 1.82 2.104v.882c0 1.3-.701 2.104-1.82 2.104-1.119 0-1.819-.804-1.819-2.104v-.882c0-1.299.7-2.104 1.819-2.104Zm6.263 2.008c0-1.203.681-1.969 1.762-1.969 1.08 0 1.762.759 1.762 1.969v1.049c0 1.203-.682 1.963-1.762 1.963-1.081 0-1.762-.76-1.762-1.963v-1.049Zm3.524 2.935v1.106h1.292v-9.749h-1.325v3.848h-.122c-.283-.785-1.022-1.229-2.032-1.229-1.614 0-2.642 1.152-2.642 2.986v1.274c0 1.834 1.028 2.986 2.642 2.986 1.01 0 1.73-.431 2.064-1.222h.123Zm9.438-5.908h-1.286v4.112c0 1.132-.719 1.885-1.793 1.885-1.036 0-1.518-.566-1.518-1.763v-4.234h-1.292v4.55c0 1.685.823 2.599 2.347 2.599 1.048 0 1.839-.488 2.205-1.351h.09v1.216h1.247v-7.014Zm8.192 2.258c-.173-1.518-1.235-2.399-2.867-2.399-1.948 0-3.074 1.164-3.074 3.21v.863c0 2.046 1.126 3.217 3.074 3.217 1.632 0 2.694-.881 2.867-2.374h-1.273c-.128.791-.746 1.261-1.607 1.261-1.139 0-1.769-.798-1.769-2.239v-.592c0-1.442.63-2.24 1.769-2.24.855 0 1.485.483 1.607 1.293h1.273Zm3.871-4.176v1.957h-1.852v1.061h1.852v3.79c0 1.506.785 2.15 2.579 2.15.269 0 1.286-.026 1.427-.052v-1.054c-.155.019-1.009.031-1.338.031-.893 0-1.375-.379-1.375-1.075v-3.79h2.752v-1.061h-2.772v-1.957h-1.273Zm9.529.277c.579 0 .997-.399.997-.952 0-.56-.418-.959-.997-.959-.572 0-.996.399-.996.959 0 .553.424.952.996.952Zm2.958 8.655v-1.042h-2.263v-5.972H413.3v1.043h2.309v4.929h-2.36v1.042h5.883Zm5.067.135c1.89 0 3.093-1.21 3.093-3.108v-1.061c0-1.906-1.203-3.109-3.093-3.109-1.891 0-3.093 1.203-3.093 3.109v1.061c0 1.898 1.202 3.108 3.093 3.108Zm0-6.184c1.119 0 1.819.805 1.819 2.104v.882c0 1.3-.7 2.104-1.819 2.104s-1.819-.804-1.819-2.104v-.882c0-1.299.7-2.104 1.819-2.104Zm5.196 6.049h1.286v-4.112c0-1.132.719-1.885 1.793-1.885 1.036 0 1.518.566 1.518 1.77v4.227h1.292v-4.549c0-1.687-.823-2.601-2.346-2.601-1.048 0-1.839.49-2.206 1.359h-.09v-1.223h-1.247v7.014Zm11.085.065c.681 0 1.234-.573 1.234-1.262 0-.694-.553-1.261-1.234-1.261-.682 0-1.235.567-1.235 1.261 0 .689.553 1.262 1.235 1.262Zm8.217-6.159c1.061 0 1.691.753 1.691 2.002h-3.433c0-1.256.655-2.002 1.742-2.002Zm1.704 4.241c-.174.573-.797.927-1.626.927-1.106 0-1.82-.76-1.82-1.944v-.315h4.7v-.76c0-1.995-1.113-3.205-2.945-3.205-1.82 0-3.022 1.217-3.022 3.064v1.069c0 1.994 1.125 3.152 3.093 3.152 1.511 0 2.668-.81 2.855-1.988h-1.235Zm6.385-.753 1.653 2.606h1.472l-2.366-3.552 2.346-3.462h-1.44l-1.613 2.58h-.091l-1.626-2.58h-1.505l2.366 3.514-2.353 3.5h1.408l1.659-2.606h.09Zm7.336 2.722c.991 0 1.743-.412 2.077-1.133h.123v1.024h1.228v-4.794c0-1.475-.965-2.324-2.656-2.324-1.505 0-2.604.786-2.732 1.944h1.26c.167-.554.7-.876 1.447-.876.9 0 1.401.451 1.401 1.256v.617l-1.839.097c-1.633.096-2.533.83-2.533 2.079 0 1.267.887 2.11 2.224 2.11Zm.399-1.075c-.823 0-1.337-.417-1.337-1.093 0-.683.488-1.069 1.421-1.12l1.665-.084v.74c0 .895-.746 1.557-1.749 1.557Zm11.947-4.285c0-1.242-.495-1.906-1.44-1.906-.695 0-1.235.432-1.402 1.127h-.141c-.149-.715-.605-1.127-1.26-1.127-.67 0-1.165.426-1.332 1.153h-.141v-1.017h-1.138v7.014h1.131v-4.756c0-.772.354-1.248.92-1.248.534 0 .823.399.823 1.152v4.852h1.125v-4.756c0-.772.348-1.248.901-1.248.527 0 .822.406.822 1.159v4.845h1.132v-5.244Zm5.26-1.88c-1.016 0-1.736.426-2.064 1.223h-.122v-1.113h-1.293v9.37h1.325v-3.469h.122c.283.786 1.016 1.229 2.032 1.229 1.613 0 2.642-1.152 2.642-2.979v-1.281c0-1.827-1.029-2.98-2.642-2.98Zm-.431 1.146c1.08 0 1.768.76 1.768 1.963v1.049c0 1.203-.688 1.969-1.768 1.969-1.074 0-1.755-.759-1.755-1.969v-1.049c0-1.203.681-1.963 1.755-1.963Zm11.098 5.978v-1.042h-2.251v-8.707h-3.581v1.049h2.295v7.658h-2.346v1.042h5.883Zm5.144-6.094c1.061 0 1.691.753 1.691 2.002h-3.434c0-1.256.656-2.002 1.743-2.002Zm1.704 4.241c-.174.573-.798.927-1.627.927-1.106 0-1.82-.76-1.82-1.944v-.315h4.701v-.76c0-1.995-1.113-3.205-2.945-3.205-1.82 0-3.022 1.217-3.022 3.064v1.069c0 1.994 1.125 3.152 3.093 3.152 1.511 0 2.668-.81 2.855-1.988h-1.235Zm6.36 1.918c.681 0 1.234-.573 1.234-1.262 0-.694-.553-1.261-1.234-1.261-.682 0-1.235.567-1.235 1.261 0 .689.553 1.262 1.235 1.262Zm11.136-4.821c-.174-1.518-1.234-2.399-2.868-2.399-1.948 0-3.073 1.164-3.073 3.21v.863c0 2.046 1.125 3.217 3.073 3.217 1.634 0 2.694-.881 2.868-2.374h-1.273c-.129.791-.746 1.261-1.608 1.261-1.137 0-1.768-.798-1.768-2.239v-.592c0-1.442.631-2.24 1.768-2.24.856 0 1.486.483 1.608 1.293h1.273Zm5.144 4.891c1.891 0 3.093-1.21 3.093-3.108v-1.061c0-1.906-1.202-3.109-3.093-3.109-1.89 0-3.093 1.203-3.093 3.109v1.061c0 1.898 1.203 3.108 3.093 3.108Zm0-6.184c1.119 0 1.82.805 1.82 2.104v.882c0 1.3-.701 2.104-1.82 2.104-1.119 0-1.82-.804-1.82-2.104v-.882c0-1.299.701-2.104 1.82-2.104Zm11.567.805c0-1.242-.495-1.906-1.44-1.906-.694 0-1.235.432-1.402 1.127h-.141c-.148-.715-.604-1.127-1.26-1.127-.669 0-1.164.426-1.331 1.153h-.142v-1.017h-1.138v7.014h1.132v-4.756c0-.772.354-1.248.919-1.248.534 0 .823.399.823 1.152v4.852h1.125v-4.756c0-.772.348-1.248.901-1.248.527 0 .823.406.823 1.159v4.845h1.131v-5.244Zm4.714 5.309c.681 0 1.234-.573 1.234-1.262 0-.694-.553-1.261-1.234-1.261-.682 0-1.235.567-1.235 1.261 0 .689.553 1.262 1.235 1.262Z"/>
    <path fill="#ACACAC" d="M103.771 89.764a.742.742 0 0 0 0 1.483v-1.483Zm0 1.483h47.438v-1.483h-47.438v1.483Zm171.222 120.18a.741.741 0 0 0 0 1.483v-1.483Zm0 1.483h36.32v-1.483h-36.32v1.483Zm0-62.315a.742.742 0 0 0 0 1.484v-1.484Zm0 1.484h36.32v-1.484h-36.32v1.484Z"/>
    <path fill="#ACACAC" d="M275.735 110.535a.742.742 0 0 0-1.483 0h1.483Zm-1.483 0V264.84h1.483V110.535h-1.483Zm8.895 163.207h28.166v-1.484h-28.166v1.484Zm-8.895-8.902c0 4.916 3.983 8.902 8.895 8.902v-1.484a7.415 7.415 0 0 1-7.412-7.418h-1.483Z"/>
    <path fill="#fff" stroke="#67B0F8" stroke-width="2" d="M316.502 375.375h239.415a4.45 4.45 0 0 1 4.447 4.451v31.158a4.45 4.45 0 0 1-4.447 4.451H316.502a4.45 4.45 0 0 1-4.447-4.451v-31.158a4.45 4.45 0 0 1 4.447-4.451Z"/>
    <path fill="#000" fill-opacity=".8" d="M353.891 400.714c.989 0 1.742-.412 2.076-1.133h.122v1.023h1.228v-4.794c0-1.474-.964-2.324-2.655-2.324-1.504 0-2.604.786-2.733 1.944h1.261c.166-.553.701-.875 1.446-.875.9 0 1.402.451 1.402 1.255v.618l-1.839.096c-1.634.097-2.533.83-2.533 2.079 0 1.268.887 2.111 2.225 2.111Zm.398-1.075c-.823 0-1.337-.418-1.337-1.094 0-.682.488-1.068 1.421-1.12l1.665-.083v.739c0 .895-.746 1.558-1.749 1.558Zm9.066-6.165c-1.016 0-1.736.425-2.064 1.222h-.122v-1.113h-1.292v9.37h1.324v-3.469h.123c.282.786 1.015 1.23 2.031 1.23 1.614 0 2.643-1.153 2.643-2.98v-1.281c0-1.827-1.029-2.979-2.643-2.979Zm-.43 1.145c1.08 0 1.768.76 1.768 1.963v1.049c0 1.203-.688 1.969-1.768 1.969-1.074 0-1.756-.759-1.756-1.969v-1.049c0-1.203.682-1.963 1.756-1.963Zm8.57-1.145c-1.016 0-1.735.425-2.063 1.222h-.122v-1.113h-1.293v9.37h1.324v-3.469h.123c.283.786 1.015 1.23 2.031 1.23 1.614 0 2.643-1.153 2.643-2.98v-1.281c0-1.827-1.029-2.979-2.643-2.979Zm-.43 1.145c1.08 0 1.768.76 1.768 1.963v1.049c0 1.203-.688 1.969-1.768 1.969-1.074 0-1.755-.759-1.755-1.969v-1.049c0-1.203.681-1.963 1.755-1.963Zm8.024 6.043c.682 0 1.235-.572 1.235-1.262 0-.694-.553-1.261-1.235-1.261-.681 0-1.235.567-1.235 1.261 0 .69.554 1.262 1.235 1.262Zm6.868-8.997v1.957h-1.853v1.062h1.853v3.79c0 1.506.784 2.15 2.578 2.15.27 0 1.286-.026 1.427-.052v-1.055c-.154.019-1.009.032-1.337.032-.894 0-1.376-.38-1.376-1.075v-3.79h2.752v-1.062h-2.772v-1.957h-1.272Zm9.49 2.839c1.061 0 1.691.753 1.691 2.001h-3.433c0-1.255.656-2.001 1.742-2.001Zm1.704 4.241c-.174.572-.797.926-1.627.926-1.105 0-1.819-.759-1.819-1.943v-.316h4.7v-.759c0-1.995-1.113-3.205-2.945-3.205-1.82 0-3.022 1.217-3.022 3.063v1.069c0 1.995 1.125 3.153 3.093 3.153 1.511 0 2.669-.811 2.855-1.988h-1.235Zm3.723-3.224c0 1.023.637 1.666 1.916 1.956l1.048.238c.849.193 1.164.457 1.164.972 0 .611-.566 1.004-1.446 1.004-.849 0-1.428-.342-1.57-.94h-1.298c.115 1.236 1.183 1.975 2.835 1.975 1.711 0 2.81-.849 2.81-2.181 0-1.03-.623-1.622-2.006-1.931l-1.016-.225c-.817-.18-1.157-.457-1.157-.959 0-.579.534-.965 1.356-.965.772 0 1.318.354 1.434.927h1.235c-.116-1.216-1.119-1.95-2.649-1.95-1.608 0-2.656.823-2.656 2.079Zm9.504-3.856v1.957h-1.853v1.062h1.853v3.79c0 1.506.784 2.15 2.578 2.15.27 0 1.286-.026 1.427-.052v-1.055c-.154.019-1.009.032-1.337.032-.894 0-1.376-.38-1.376-1.075v-3.79h2.752v-1.062h-2.772v-1.957h-1.272Zm9.413 8.997c.681 0 1.234-.572 1.234-1.262 0-.694-.553-1.261-1.234-1.261-.682 0-1.235.567-1.235 1.261 0 .69.553 1.262 1.235 1.262Zm8.217-6.158c1.061 0 1.691.753 1.691 2.001h-3.433c0-1.255.656-2.001 1.742-2.001Zm1.705 4.241c-.174.572-.798.926-1.627.926-1.106 0-1.82-.759-1.82-1.943v-.316h4.7v-.759c0-1.995-1.112-3.205-2.945-3.205-1.82 0-3.022 1.217-3.022 3.063v1.069c0 1.995 1.125 3.153 3.093 3.153 1.511 0 2.669-.811 2.855-1.988h-1.234Zm6.384-.753 1.653 2.606h1.472l-2.366-3.552 2.347-3.463h-1.44l-1.614 2.581h-.09l-1.627-2.581h-1.505l2.367 3.514-2.353 3.501h1.407l1.659-2.606h.09Zm7.337 2.722c.99 0 1.743-.412 2.077-1.133h.122v1.023h1.228v-4.794c0-1.474-.965-2.324-2.655-2.324-1.505 0-2.604.786-2.733 1.944h1.26c.167-.553.701-.875 1.447-.875.9 0 1.401.451 1.401 1.255v.618l-1.839.096c-1.632.097-2.533.83-2.533 2.079 0 1.268.887 2.111 2.225 2.111Zm.399-1.075c-.824 0-1.338-.418-1.338-1.094 0-.682.489-1.068 1.421-1.12l1.665-.083v.739c0 .895-.745 1.558-1.748 1.558Zm11.946-4.286c0-1.242-.494-1.905-1.44-1.905-.695 0-1.234.432-1.402 1.126h-.141c-.148-.714-.604-1.126-1.26-1.126-.669 0-1.164.425-1.332 1.152h-.14v-1.017h-1.139v7.015h1.132v-4.756c0-.772.353-1.249.919-1.249.534 0 .824.399.824 1.152v4.853h1.125v-4.756c0-.772.347-1.249.9-1.249.527 0 .823.406.823 1.159v4.846h1.131v-5.245Zm5.26-1.879c-1.016 0-1.736.425-2.064 1.222h-.122v-1.113h-1.293v9.37h1.325v-3.469h.122c.283.786 1.016 1.23 2.032 1.23 1.614 0 2.643-1.153 2.643-2.98v-1.281c0-1.827-1.029-2.979-2.643-2.979Zm-.431 1.145c1.081 0 1.769.76 1.769 1.963v1.049c0 1.203-.688 1.969-1.769 1.969-1.073 0-1.755-.759-1.755-1.969v-1.049c0-1.203.682-1.963 1.755-1.963Zm11.099 5.979v-1.042h-2.251v-8.708h-3.581v1.049h2.295v7.659h-2.347v1.042h5.884Zm5.144-6.094c1.06 0 1.69.753 1.69 2.001h-3.433c0-1.255.656-2.001 1.743-2.001Zm1.704 4.241c-.174.572-.798.926-1.627.926-1.106 0-1.82-.759-1.82-1.943v-.316h4.7v-.759c0-1.995-1.112-3.205-2.945-3.205-1.819 0-3.022 1.217-3.022 3.063v1.069c0 1.995 1.125 3.153 3.093 3.153 1.511 0 2.669-.811 2.855-1.988h-1.234Zm6.359 1.917c.682 0 1.235-.572 1.235-1.262 0-.694-.553-1.261-1.235-1.261s-1.235.567-1.235 1.261c0 .69.553 1.262 1.235 1.262Zm11.136-4.82c-.173-1.519-1.234-2.4-2.867-2.4-1.949 0-3.074 1.165-3.074 3.211v.862c0 2.046 1.125 3.218 3.074 3.218 1.633 0 2.694-.881 2.867-2.375h-1.273c-.128.792-.746 1.261-1.608 1.261-1.137 0-1.767-.797-1.767-2.239v-.592c0-1.442.63-2.239 1.767-2.239.856 0 1.486.482 1.608 1.293h1.273Zm5.145 4.891c1.89 0 3.092-1.21 3.092-3.108v-1.062c0-1.905-1.202-3.108-3.092-3.108-1.891 0-3.094 1.203-3.094 3.108v1.062c0 1.898 1.203 3.108 3.094 3.108Zm0-6.184c1.118 0 1.819.804 1.819 2.104v.882c0 1.299-.701 2.104-1.819 2.104-1.12 0-1.82-.805-1.82-2.104v-.882c0-1.3.7-2.104 1.82-2.104Zm11.567.804c0-1.242-.495-1.905-1.441-1.905-.694 0-1.234.432-1.402 1.126h-.141c-.148-.714-.604-1.126-1.26-1.126-.669 0-1.164.425-1.331 1.152h-.141v-1.017h-1.139v7.015h1.132v-4.756c0-.772.354-1.249.92-1.249.534 0 .823.399.823 1.152v4.853h1.125v-4.756c0-.772.347-1.249.9-1.249.527 0 .823.406.823 1.159v4.846h1.132v-5.245Zm4.713 5.309c.682 0 1.235-.572 1.235-1.262 0-.694-.553-1.261-1.235-1.261-.681 0-1.234.567-1.234 1.261 0 .69.553 1.262 1.234 1.262Z"/>
    <path fill="#fff" stroke="#67B0F8" stroke-width="2" d="M316.502 497.038h239.415a4.45 4.45 0 0 1 4.447 4.451v31.158a4.45 4.45 0 0 1-4.447 4.451H316.502a4.45 4.45 0 0 1-4.447-4.451v-31.158a4.45 4.45 0 0 1 4.447-4.451Z"/>
    <path fill="#000" fill-opacity=".8" d="M354.39 517.016c0-1.242-.496-1.905-1.441-1.905-.694 0-1.235.432-1.401 1.126h-.142c-.148-.714-.605-1.126-1.261-1.126-.668 0-1.163.425-1.33 1.152h-.142v-1.017h-1.138v7.015h1.132v-4.756c0-.772.353-1.249.919-1.249.534 0 .823.399.823 1.152v4.853h1.125v-4.756c0-.772.348-1.249.901-1.249.527 0 .823.406.823 1.159v4.846h1.132v-5.245Zm3.935 5.361c.99 0 1.742-.412 2.077-1.133h.122v1.024h1.227v-4.795c0-1.474-.964-2.323-2.655-2.323-1.504 0-2.604.785-2.733 1.943h1.261c.167-.553.701-.875 1.446-.875.901 0 1.402.451 1.402 1.255v.618l-1.839.096c-1.633.097-2.533.83-2.533 2.079 0 1.268.887 2.111 2.225 2.111Zm.398-1.075c-.823 0-1.337-.418-1.337-1.094 0-.682.489-1.068 1.42-1.12l1.666-.083v.739c0 .895-.746 1.558-1.749 1.558Zm8.636-7.697c.579 0 .997-.398.997-.952 0-.56-.418-.959-.997-.959-.573 0-.997.399-.997.959 0 .554.424.952.997.952Zm2.957 8.656v-1.042h-2.263v-5.973h-3.569v1.043h2.309v4.93h-2.36v1.042h5.883Zm8.141 0v-1.042h-2.251v-8.707h-3.581v1.048h2.295v7.659h-2.347v1.042h5.884Zm5.066.064c.682 0 1.235-.572 1.235-1.261 0-.695-.553-1.262-1.235-1.262-.681 0-1.234.567-1.234 1.262 0 .689.553 1.261 1.234 1.261Zm6.868-8.997v1.957h-1.852v1.062h1.852v3.79c0 1.506.784 2.15 2.578 2.15.27 0 1.286-.026 1.427-.052v-1.055c-.154.019-1.009.032-1.337.032-.894 0-1.376-.38-1.376-1.075v-3.79h2.753v-1.062h-2.772v-1.957h-1.273Zm9.49 2.839c1.061 0 1.692.753 1.692 2.001h-3.434c0-1.255.656-2.001 1.742-2.001Zm1.704 4.241c-.173.572-.797.926-1.627.926-1.105 0-1.819-.759-1.819-1.943v-.316h4.7v-.759c0-1.995-1.112-3.205-2.945-3.205-1.82 0-3.022 1.217-3.022 3.063v1.069c0 1.995 1.125 3.153 3.093 3.153 1.511 0 2.668-.811 2.855-1.988h-1.235Zm3.724-3.224c0 1.023.636 1.666 1.916 1.956l1.048.238c.848.193 1.163.457 1.163.972 0 .611-.566 1.004-1.446 1.004-.849 0-1.428-.342-1.57-.94h-1.298c.115 1.236 1.183 1.975 2.836 1.975 1.71 0 2.81-.849 2.81-2.181 0-1.03-.624-1.621-2.007-1.931l-1.016-.225c-.816-.18-1.157-.457-1.157-.959 0-.579.534-.965 1.356-.965.772 0 1.319.354 1.435.927h1.234c-.116-1.216-1.119-1.95-2.649-1.95-1.607 0-2.655.823-2.655 2.079Zm9.503-3.856v1.957h-1.852v1.062h1.852v3.79c0 1.506.784 2.15 2.578 2.15.27 0 1.287-.026 1.427-.052v-1.055c-.154.019-1.009.032-1.337.032-.894 0-1.376-.38-1.376-1.075v-3.79h2.752v-1.062h-2.771v-1.957h-1.273Zm9.413 8.997c.681 0 1.234-.572 1.234-1.261 0-.695-.553-1.262-1.234-1.262-.682 0-1.235.567-1.235 1.262 0 .689.553 1.261 1.235 1.261Zm8.218-6.158c1.061 0 1.691.753 1.691 2.001H430.7c0-1.255.656-2.001 1.743-2.001Zm1.704 4.241c-.174.572-.798.926-1.627.926-1.106 0-1.82-.759-1.82-1.943v-.316h4.701v-.759c0-1.995-1.113-3.205-2.945-3.205-1.82 0-3.023 1.217-3.023 3.063v1.069c0 1.995 1.126 3.153 3.093 3.153 1.512 0 2.669-.811 2.855-1.988h-1.234Zm6.384-.753 1.653 2.606h1.472l-2.366-3.552 2.347-3.463h-1.44l-1.614 2.581h-.09l-1.627-2.581h-1.504l2.366 3.514-2.353 3.501h1.408l1.659-2.606h.089Zm7.337 2.722c.99 0 1.743-.412 2.077-1.133h.122v1.024h1.228v-4.795c0-1.474-.964-2.323-2.655-2.323-1.505 0-2.604.785-2.733 1.943h1.261c.166-.553.7-.875 1.446-.875.9 0 1.402.451 1.402 1.255v.618l-1.839.096c-1.634.097-2.533.83-2.533 2.079 0 1.268.887 2.111 2.224 2.111Zm.399-1.075c-.823 0-1.337-.418-1.337-1.094 0-.682.488-1.068 1.421-1.12l1.665-.083v.739c0 .895-.746 1.558-1.749 1.558Zm11.947-4.286c0-1.242-.495-1.905-1.44-1.905-.695 0-1.235.432-1.402 1.126h-.142c-.148-.714-.604-1.126-1.26-1.126-.669 0-1.164.425-1.331 1.152h-.141v-1.017h-1.139v7.015h1.132v-4.756c0-.772.353-1.249.92-1.249.533 0 .823.399.823 1.152v4.853h1.125v-4.756c0-.772.347-1.249.9-1.249.527 0 .823.406.823 1.159v4.846h1.132v-5.245Zm5.26-1.879c-1.017 0-1.736.425-2.065 1.222h-.122v-1.113h-1.292v9.37h1.325v-3.469h.122c.282.786 1.015 1.23 2.032 1.23 1.613 0 2.642-1.152 2.642-2.98v-1.281c0-1.827-1.029-2.979-2.642-2.979Zm-.431 1.145c1.08 0 1.768.76 1.768 1.963v1.049c0 1.203-.688 1.969-1.768 1.969-1.074 0-1.756-.759-1.756-1.969v-1.049c0-1.203.682-1.963 1.756-1.963Zm11.098 5.979v-1.042h-2.251v-8.707h-3.581v1.048h2.295v7.659h-2.347v1.042h5.884Zm5.144-6.094c1.06 0 1.691.753 1.691 2.001h-3.434c0-1.255.656-2.001 1.743-2.001Zm1.704 4.241c-.174.572-.798.926-1.627.926-1.106 0-1.82-.759-1.82-1.943v-.316h4.701v-.759c0-1.995-1.113-3.205-2.946-3.205-1.82 0-3.022 1.217-3.022 3.063v1.069c0 1.995 1.125 3.153 3.093 3.153 1.511 0 2.669-.811 2.855-1.988h-1.234Zm6.359 1.917c.682 0 1.234-.572 1.234-1.261 0-.695-.552-1.262-1.234-1.262-.682 0-1.235.567-1.235 1.262 0 .689.553 1.261 1.235 1.261Zm11.136-4.82c-.173-1.519-1.234-2.4-2.867-2.4-1.948 0-3.073 1.165-3.073 3.211v.862c0 2.046 1.125 3.218 3.073 3.218 1.633 0 2.694-.881 2.867-2.375h-1.273c-.128.792-.746 1.261-1.607 1.261-1.138 0-1.768-.797-1.768-2.239v-.592c0-1.442.63-2.239 1.768-2.239.855 0 1.485.482 1.607 1.293h1.273Zm5.145 4.891c1.89 0 3.093-1.21 3.093-3.108v-1.062c0-1.905-1.203-3.108-3.093-3.108-1.891 0-3.094 1.203-3.094 3.108v1.062c0 1.898 1.203 3.108 3.094 3.108Zm0-6.184c1.118 0 1.819.804 1.819 2.104v.882c0 1.299-.701 2.104-1.819 2.104-1.119 0-1.82-.805-1.82-2.104v-.882c0-1.3.701-2.104 1.82-2.104Zm11.567.804c0-1.242-.495-1.905-1.44-1.905-.695 0-1.235.432-1.402 1.126h-.141c-.149-.714-.605-1.126-1.26-1.126-.67 0-1.165.425-1.332 1.152h-.141v-1.017h-1.138v7.015h1.131v-4.756c0-.772.354-1.249.92-1.249.534 0 .823.399.823 1.152v4.853h1.125v-4.756c0-.772.348-1.249.9-1.249.527 0 .823.406.823 1.159v4.846h1.132v-5.245Zm4.713 5.309c.682 0 1.235-.572 1.235-1.261 0-.695-.553-1.262-1.235-1.262-.681 0-1.234.567-1.234 1.262 0 .689.553 1.261 1.234 1.261Z"/>
    <path fill="#fff" stroke="#67B0F8" stroke-width="2" d="M316.502 436.207h239.415a4.449 4.449 0 0 1 4.447 4.451v31.157a4.449 4.449 0 0 1-4.447 4.451H316.502a4.449 4.449 0 0 1-4.447-4.451v-31.157a4.449 4.449 0 0 1 4.447-4.451Z"/>
    <path fill="#000" fill-opacity=".8" d="M357.238 457.388c0-1.204.682-1.969 1.762-1.969s1.762.759 1.762 1.969v1.049c0 1.203-.682 1.963-1.762 1.963s-1.762-.76-1.762-1.963v-1.049Zm3.524 2.935v1.106h1.292v-9.749h-1.324v3.848h-.122c-.284-.785-1.023-1.229-2.033-1.229-1.613 0-2.642 1.152-2.642 2.986v1.274c0 1.834 1.029 2.986 2.642 2.986 1.01 0 1.73-.431 2.065-1.222h.122Zm7.034 1.222c1.614 0 2.642-1.152 2.642-2.986v-1.274c0-1.834-1.028-2.986-2.642-2.986-1.01 0-1.743.444-2.025 1.229h-.129v-3.848h-1.325v9.749h1.299v-1.106h.122c.329.791 1.048 1.222 2.058 1.222Zm-.424-1.145c-1.074 0-1.762-.76-1.762-1.963v-1.049c0-1.21.688-1.969 1.762-1.969 1.08 0 1.761.765 1.761 1.969v1.049c0 1.203-.681 1.963-1.761 1.963Zm8.025 1.094c.681 0 1.234-.573 1.234-1.262 0-.694-.553-1.261-1.234-1.261-.682 0-1.235.567-1.235 1.261 0 .689.553 1.262 1.235 1.262Zm6.866-8.997v1.957h-1.851v1.061h1.851v3.79c0 1.506.785 2.15 2.579 2.15.27 0 1.286-.026 1.428-.052v-1.055c-.155.02-1.01.032-1.338.032-.894 0-1.376-.379-1.376-1.075v-3.79h2.752v-1.061h-2.771v-1.957h-1.274Zm9.491 2.838c1.061 0 1.691.753 1.691 2.002h-3.433c0-1.256.655-2.002 1.742-2.002Zm1.704 4.241c-.174.573-.797.927-1.626.927-1.107 0-1.82-.76-1.82-1.944v-.315h4.7v-.76c0-1.995-1.113-3.205-2.945-3.205-1.82 0-3.022 1.217-3.022 3.064v1.069c0 1.994 1.125 3.152 3.093 3.152 1.511 0 2.668-.81 2.855-1.988h-1.235Zm3.723-3.224c0 1.023.637 1.666 1.916 1.956l1.048.239c.849.192 1.164.457 1.164.971 0 .612-.566 1.004-1.447 1.004-.849 0-1.427-.341-1.568-.94h-1.3c.117 1.236 1.184 1.976 2.836 1.976 1.711 0 2.81-.85 2.81-2.181 0-1.03-.624-1.622-2.006-1.931l-1.016-.225c-.817-.18-1.158-.457-1.158-.959 0-.58.534-.966 1.358-.966.771 0 1.317.354 1.433.927h1.235c-.116-1.216-1.119-1.95-2.649-1.95-1.608 0-2.656.824-2.656 2.079Zm9.503-3.855v1.957h-1.851v1.061h1.851v3.79c0 1.506.785 2.15 2.579 2.15.27 0 1.286-.026 1.428-.052v-1.055c-.155.02-1.01.032-1.338.032-.893 0-1.376-.379-1.376-1.075v-3.79h2.752v-1.061h-2.771v-1.957h-1.274Zm9.414 8.997c.682 0 1.235-.573 1.235-1.262 0-.694-.553-1.261-1.235-1.261-.681 0-1.234.567-1.234 1.261 0 .689.553 1.262 1.234 1.262Zm8.218-6.159c1.06 0 1.69.753 1.69 2.002h-3.433c0-1.256.656-2.002 1.743-2.002Zm1.704 4.241c-.174.573-.798.927-1.627.927-1.106 0-1.82-.76-1.82-1.944v-.315h4.7v-.76c0-1.995-1.112-3.205-2.945-3.205-1.819 0-3.022 1.217-3.022 3.064v1.069c0 1.994 1.126 3.152 3.093 3.152 1.511 0 2.668-.81 2.855-1.988h-1.234Zm6.385-.753 1.652 2.606h1.473l-2.367-3.552 2.347-3.463h-1.441l-1.613 2.581h-.09l-1.627-2.581h-1.505l2.366 3.515-2.353 3.5h1.408l1.659-2.606h.091Zm7.336 2.722c.99 0 1.742-.412 2.076-1.133h.123v1.024h1.228v-4.795c0-1.474-.964-2.323-2.655-2.323-1.505 0-2.605.786-2.733 1.944h1.26c.168-.554.701-.876 1.447-.876.9 0 1.402.451 1.402 1.255v.618l-1.839.097c-1.633.096-2.534.83-2.534 2.078 0 1.268.887 2.111 2.225 2.111Zm.398-1.075c-.822 0-1.337-.418-1.337-1.093 0-.683.489-1.069 1.421-1.121l1.666-.083v.74c0 .895-.746 1.557-1.75 1.557Zm11.947-4.286c0-1.241-.495-1.905-1.44-1.905-.694 0-1.235.432-1.401 1.127h-.142c-.148-.715-.604-1.127-1.26-1.127-.669 0-1.164.425-1.331 1.152h-.142v-1.017h-1.138v7.015h1.132v-4.756c0-.772.354-1.248.919-1.248.534 0 .823.399.823 1.152v4.852h1.126v-4.756c0-.772.347-1.248.9-1.248.527 0 .823.406.823 1.159v4.845h1.131v-5.245Zm5.26-1.879c-1.015 0-1.736.425-2.063 1.223h-.123v-1.114h-1.292v9.371h1.324v-3.469h.122c.284.785 1.017 1.229 2.032 1.229 1.614 0 2.643-1.152 2.643-2.979v-1.281c0-1.828-1.029-2.98-2.643-2.98Zm-.431 1.146c1.08 0 1.769.759 1.769 1.963v1.049c0 1.203-.689 1.969-1.769 1.969-1.074 0-1.755-.759-1.755-1.969v-1.049c0-1.204.681-1.963 1.755-1.963Zm11.099 5.978v-1.042h-2.251v-8.707h-3.581v1.049h2.295v7.658h-2.347v1.042h5.884Zm5.144-6.094c1.061 0 1.691.753 1.691 2.002h-3.434c0-1.256.655-2.002 1.743-2.002Zm1.703 4.241c-.173.573-.797.927-1.626.927-1.106 0-1.82-.76-1.82-1.944v-.315h4.7v-.76c0-1.995-1.112-3.205-2.945-3.205-1.819 0-3.022 1.217-3.022 3.064v1.069c0 1.994 1.126 3.152 3.093 3.152 1.511 0 2.668-.81 2.855-1.988h-1.235Zm6.36 1.918c.681 0 1.234-.573 1.234-1.262 0-.694-.553-1.261-1.234-1.261-.682 0-1.235.567-1.235 1.261 0 .689.553 1.262 1.235 1.262Zm11.136-4.821c-.173-1.518-1.234-2.4-2.867-2.4-1.949 0-3.074 1.165-3.074 3.211v.863c0 2.046 1.125 3.217 3.074 3.217 1.633 0 2.694-.881 2.867-2.374h-1.273c-.129.791-.745 1.261-1.607 1.261-1.138 0-1.768-.798-1.768-2.239v-.592c0-1.442.63-2.24 1.768-2.24.855 0 1.485.483 1.607 1.293h1.273Zm5.144 4.891c1.891 0 3.093-1.21 3.093-3.108v-1.062c0-1.905-1.202-3.108-3.093-3.108-1.89 0-3.092 1.203-3.092 3.108v1.062c0 1.898 1.202 3.108 3.092 3.108Zm0-6.184c1.119 0 1.82.804 1.82 2.104v.882c0 1.3-.701 2.104-1.82 2.104-1.118 0-1.82-.804-1.82-2.104v-.882c0-1.3.702-2.104 1.82-2.104Zm11.568.804c0-1.241-.496-1.905-1.441-1.905-.694 0-1.234.432-1.401 1.127h-.142c-.147-.715-.604-1.127-1.26-1.127-.668 0-1.164.425-1.331 1.152h-.142v-1.017h-1.137v7.015h1.131v-4.756c0-.772.354-1.248.919-1.248.534 0 .824.399.824 1.152v4.852h1.125v-4.756c0-.772.347-1.248.9-1.248.527 0 .824.406.824 1.159v4.845h1.131v-5.245Zm4.713 5.31c.681 0 1.234-.573 1.234-1.262 0-.694-.553-1.261-1.234-1.261-.682 0-1.235.567-1.235 1.261 0 .689.553 1.262 1.235 1.262Z"/>
    <path fill="#ACACAC" d="M274.993 455.495a.741.741 0 0 0 0 1.483v-1.483Zm0 1.483h36.32v-1.483h-36.32v1.483Zm0-62.315a.742.742 0 0 0 0 1.484v-1.484Zm0 1.484h36.32v-1.484h-36.32v1.484Z"/>
    <path fill="#ACACAC" d="M275.735 354.603a.742.742 0 0 0-1.483 0h1.483Zm-1.483 0v154.305h1.483V354.603h-1.483Zm8.895 163.207h28.166v-1.484h-28.166v1.484Zm-8.895-8.902c0 4.916 3.983 8.902 8.895 8.902v-1.484a7.415 7.415 0 0 1-7.412-7.418h-1.483Z"/>
</svg>
