<svg xmlns="http://www.w3.org/2000/svg" width="16" height="16" fill="currentColor" aria-hidden="true" class="yc-icon"><svg xmlns="http://www.w3.org/2000/svg" fill="none" viewBox="0 0 16 16"><path fill="currentColor" d="M2.832 13.574a4.06 4.06 0 0 0 5.742 0l5.36-5.36a.315.315 0 0 0 0-.464l-.465-.465a.315.315 0 0 0-.465 0l-5.36 5.36a2.756 2.756 0 0 1-3.882 0 2.756 2.756 0 0 1 0-3.883l6.152-6.153c.711-.71 1.86-.71 2.57 0 .711.711.711 1.86 0 2.57l-5.168 5.169a.908.908 0 0 1-1.285 0c-.328-.329-.328-.903 0-1.258l4.403-4.375a.315.315 0 0 0 0-.465l-.465-.465a.315.315 0 0 0-.465 0L5.129 8.16c-.875.875-.875 2.27 0 3.117a2.147 2.147 0 0 0 3.09 0l5.195-5.168a3.12 3.12 0 0 0 0-4.43 3.12 3.12 0 0 0-4.43 0L2.832 7.833a4.06 4.06 0 0 0 0 5.742Z"/></svg></svg>