<svg xmlns="http://www.w3.org/2000/svg" width="16" height="16" fill="currentColor" aria-hidden="true" class="yc-icon"><path d="M2.852 9.021c.253.254.71.077.71-.304V3.842c0-.356-.457-.533-.71-.28L.414 6a.625.625 0 0 0-.101.28c0 .1.05.228.101.304l2.438 2.437Zm8.43 1.524H.718a.418.418 0 0 0-.406.406v.406c0 .229.177.407.406.407H11.28a.418.418 0 0 0 .406-.407v-.406a.437.437 0 0 0-.406-.406Zm.075-3.25H5.492c-.178 0-.304.152-.304.33v.584c0 .178.126.305.304.305h5.865c.178 0 .33-.127.33-.305v-.584a.336.336 0 0 0-.33-.33Zm-.076-6.5H.72a.418.418 0 0 0-.406.406v.406c0 .229.177.407.406.407H11.28a.418.418 0 0 0 .406-.407v-.406a.437.437 0 0 0-.406-.406Zm.076 3.25H5.492c-.178 0-.304.152-.304.33v.584c0 .178.126.305.304.305h5.865c.178 0 .33-.127.33-.305v-.584a.336.336 0 0 0-.33-.33Z"/></svg>