<svg xmlns="http://www.w3.org/2000/svg" xmlns:xlink="http://www.w3.org/1999/xlink" width="24" height="24" class="yc-icon" fill="currentColor" stroke="none" aria-hidden="true"><svg viewBox="0 0 24 24" fill="none" xmlns="http://www.w3.org/2000/svg"><path fill-rule="evenodd" clip-rule="evenodd" d="M5.5 8.5V15.5H6.5V8.5H5.5ZM11.5 8.5V15.5H17.5V8.5H11.5ZM4 8C4 7.44772 4.44772 7 5 7H7C7.55228 7 8 7.44772 8 8V16C8 16.5523 7.55228 17 7 17H5C4.44772 17 4 16.5523 4 16V8ZM10 8C10 7.44772 10.4477 7 11 7H18C18.5523 7 19 7.44772 19 8V16C19 16.5523 18.5523 17 18 17H11C10.4477 17 10 16.5523 10 16V8Z" fill="currentColor"></path></svg></svg>