<svg xmlns="http://www.w3.org/2000/svg" xmlns:xlink="http://www.w3.org/1999/xlink" width="24" height="24" class="yc-icon" fill="currentColor" stroke="none" aria-hidden="true"><svg viewBox="0 0 24 24" fill="none" xmlns="http://www.w3.org/2000/svg"><path fill-rule="evenodd" clip-rule="evenodd" d="M4.5 8.5V15.5H9.5V8.5H4.5ZM14.5 8.5V15.5H19.5V8.5H14.5ZM3 8C3 7.44772 3.44772 7 4 7H10C10.5523 7 11 7.44772 11 8V16C11 16.5523 10.5523 17 10 17H4C3.44772 17 3 16.5523 3 16V8ZM13 8C13 7.44772 13.4477 7 14 7H20C20.5523 7 21 7.44772 21 8V16C21 16.5523 20.5523 17 20 17H14C13.4477 17 13 16.5523 13 16V8Z" fill="currentColor"></path></svg></svg>