<svg xmlns="http://www.w3.org/2000/svg" width="24" height="24" fill="currentColor" aria-hidden="true" class="yc-icon"><svg xmlns="http://www.w3.org/2000/svg" fill="none" viewBox="0 0 24 24"><path fill="currentColor" fill-rule="evenodd" d="M3.25 7a.75.75 0 0 1 1.5 0v10a.75.75 0 0 1-1.5 0V7Zm5.197 6.493.681-.743H7a.75.75 0 0 1 0-1.5h2.462l-.682-.743a.75.75 0 0 1 1.106-1.014l1.667 1.818a.75.75 0 0 1 0 1.014l-2 2.182a.75.75 0 0 1-1.106-1.014Zm6.773-2.986-.682.743H17a.75.75 0 0 1 0 1.5h-2.128l.68.743a.75.75 0 0 1-1.105 1.014l-2-2.182a.75.75 0 0 1 0-1.014l1.667-1.818a.75.75 0 0 1 1.105 1.014ZM19.25 7a.75.75 0 0 1 1.5 0v10a.75.75 0 0 1-1.5 0V7Z" clip-rule="evenodd"/></svg></svg>