<svg xmlns="http://www.w3.org/2000/svg" width="16" height="16" fill="currentColor" aria-hidden="true" class="yc-icon">
    <svg xmlns="http://www.w3.org/2000/svg" fill="none" viewBox="0 0 16 16">
        <path fill="currentColor" d="M8.26 13.15c-.49 0-.93-.035-1.32-.105-.39-.06-.735-.14-1.035-.24a5.33 5.33 0 0 1-.75-.345c-.2-.13-.36-.255-.48-.375v-1.35c.15.13.345.265.585.405.24.13.515.25.825.36.32.11.66.2 1.02.27.37.07.755.105 1.155.105.78 0 1.4-.145 1.86-.435.46-.3.69-.75.69-1.35 0-.3-.055-.545-.165-.735-.11-.2-.27-.365-.48-.495a2.796 2.796 0 0 0-.795-.345c-.31-.1-.675-.205-1.095-.315-.42-.11-.84-.235-1.26-.375-.42-.14-.8-.325-1.14-.555-.33-.23-.6-.52-.81-.87-.2-.35-.3-.795-.3-1.335 0-.93.325-1.655.975-2.175.65-.52 1.645-.78 2.985-.78.39 0 .735.025 1.035.075.31.04.58.095.81.165.24.06.445.13.615.21.18.08.34.155.48.225v1.35a4.21 4.21 0 0 0-1.365-.57 6.487 6.487 0 0 0-1.575-.18c-.48 0-.885.04-1.215.12-.32.07-.58.175-.78.315-.2.14-.345.31-.435.51-.09.2-.135.425-.135.675 0 .3.065.55.195.75.14.2.32.37.54.51.23.13.49.24.78.33.29.09.595.17.915.24.42.1.85.215 1.29.345.44.13.835.31 1.185.54.35.23.635.53.855.9.23.36.345.83.345 1.41 0 .57-.115 1.055-.345 1.455-.22.39-.515.71-.885.96s-.795.43-1.275.54c-.48.11-.98.165-1.5.165z"/>
        <path fill="currentColor" d="M4 9.25h8.79V10H4v-.75z"/>
    </svg>
</svg>
