<svg xmlns="http://www.w3.org/2000/svg" width="20" height="20" fill="currentColor" aria-hidden="true" class="yc-icon ye-command-menu__item-icon"><svg xmlns="http://www.w3.org/2000/svg" fill="none" viewBox="0 0 16 16"><path fill="currentColor" fill-rule="evenodd" d="M15 3.25a.75.75 0 0 0-.75-.75H1.75a.75.75 0 0 0 0 1.5h12.5a.75.75 0 0 0 .75-.75ZM15 8a.75.75 0 0 0-.75-.75h-8.5a.75.75 0 0 0 0 1.5h8.5A.75.75 0 0 0 15 8Zm-.75 4a.75.75 0 0 1 0 1.5h-2.5a.75.75 0 0 1 0-1.5h2.5Z" clip-rule="evenodd"/></svg></svg>