<svg xmlns="http://www.w3.org/2000/svg" width="16" height="16" fill="currentColor" aria-hidden="true" class="yc-icon"><svg xmlns="http://www.w3.org/2000/svg" fill="none" viewBox="0 0 16 16"><path fill="currentColor" d="M2.719 10.969c-.686 0-1.219.558-1.219 1.219 0 .685.533 1.218 1.219 1.218a1.22 1.22 0 0 0 1.219-1.219c0-.66-.56-1.218-1.22-1.218zm0-4.063A1.22 1.22 0 0 0 1.5 8.125c0 .686.533 1.219 1.219 1.219a1.22 1.22 0 0 0 1.219-1.219c0-.66-.56-1.219-1.22-1.219zm0-4.062c-.686 0-1.219.558-1.219 1.219 0 .685.533 1.218 1.219 1.218.66 0 1.219-.533 1.219-1.218 0-.66-.56-1.22-1.22-1.22zm11.375.61H5.969a.418.418 0 0 0-.407.405v.407c0 .228.178.406.407.406h8.125a.418.418 0 0 0 .406-.406v-.407a.437.437 0 0 0-.406-.406zm0 4.062H5.969a.418.418 0 0 0-.407.406v.406a.4.4 0 0 0 .407.406h8.125a.418.418 0 0 0 .406-.406v-.406a.437.437 0 0 0-.406-.406zm0 4.062H5.969a.418.418 0 0 0-.407.406v.407c0 .228.178.406.407.406h8.125a.418.418 0 0 0 .406-.406v-.407a.437.437 0 0 0-.406-.406z"/></svg></svg>