<svg xmlns="http://www.w3.org/2000/svg" width="700" height="560">
    <path fill="none" d="M-1-1h582v402H-1z"/>
    <rect width="526" height="555" x="87" y="2.5" fill="#fff" stroke="#fff" stroke-width="1.5" rx="10"/>
    <path fill="#262626" d="m514 250 4.33-7.5h-8.66L514 250zm.75-6.75V190h-1.5v53.25h1.5zM186 250l4.33-7.5h-8.66L186 250zm.75-6.75V190h-1.5v53.25h1.5zM350 430l-4.33 7.5h8.66L350 430zm-.75 6.75V490h1.5v-53.25h-1.5zM186 130l-4.33-7.5h8.66L186 130zm82-89.25h-72v-1.5h72v1.5zM186.75 50v73.25h-1.5V50h1.5zm9.25-9.25a9.25 9.25 0 0 0-9.25 9.25h-1.5c0-5.937 4.813-10.75 10.75-10.75v1.5zM514 130l4.33-7.5h-8.66L514 130zm-82-89.25h72v-1.5h-72v1.5zM513.25 50v73.25h1.5V50h-1.5zM504 40.75a9.25 9.25 0 0 1 9.25 9.25h1.5c0-5.937-4.813-10.75-10.75-10.75v1.5zM432 401l7.5 4.33v-8.66L432 401zm72 0v-.75.75zm9.25-82v72h1.5v-72h-1.5zM504 400.25h-65.25v1.5H504v-1.5zm9.25-9.25a9.25 9.25 0 0 1-9.25 9.25v1.5c5.937 0 10.75-4.813 10.75-10.75h-1.5zM268 400l-7.5 4.33v-8.66L268 400zm-72 0v-.75.75zm-9.25-82v72h-1.5v-72h1.5zm9.25 81.25h65.25v1.5H196v-1.5zm-9.25-9.25a9.25 9.25 0 0 0 9.25 9.25v1.5c-5.937 0-10.75-4.813-10.75-10.75h1.5zM226 250l4.33-7.5h-8.66L226 250zm10-30.282v-.75.75zM475.25 190v19.718h1.5V190h-1.5zM466 218.968H236v1.5h230v-1.5zm-240.75 10.75v13.532h1.5v-13.532h-1.5zm10.75-10.75c-5.937 0-10.75 4.813-10.75 10.75h1.5a9.25 9.25 0 0 1 9.25-9.25v-1.5zm239.25-9.25a9.25 9.25 0 0 1-9.25 9.25v1.5c5.937 0 10.75-4.813 10.75-10.75h-1.5z"/>
    <rect width="164" height="60" x="269" y="10" fill="#D6E1FF" rx="10"/>
    <path fill="#262626" d="M338.95 35.396V44h-1.128v-8.604h1.128zm2.001 0h2.748c.976 0 1.732.204 2.268.612.544.4.816 1.028.816 1.884 0 .488-.08.908-.24 1.26a2.22 2.22 0 0 1-.648.852c-.28.224-.616.388-1.008.492a4.91 4.91 0 0 1-1.284.156h-1.524V44h-1.128v-8.604zm1.128 1.032v3.204h1.524c.304 0 .58-.032.828-.096s.46-.164.636-.3a1.3 1.3 0 0 0 .42-.528c.104-.224.156-.492.156-.804 0-.52-.168-.896-.504-1.128-.336-.232-.816-.348-1.44-.348h-1.62zm7.927 7.692c-.328 0-.62-.028-.876-.084a4.113 4.113 0 0 1-.66-.18c-.184-.08-.34-.16-.468-.24a3.161 3.161 0 0 1-.3-.228v-.948c.08.08.188.168.324.264.136.088.3.172.492.252.192.08.408.148.648.204.248.048.524.072.828.072.448 0 .804-.072 1.068-.216.264-.144.396-.388.396-.732a.698.698 0 0 0-.132-.444.801.801 0 0 0-.336-.264 2.07 2.07 0 0 0-.504-.168c-.184-.04-.38-.08-.588-.12a22.265 22.265 0 0 1-.78-.18 2.73 2.73 0 0 1-.696-.3 1.633 1.633 0 0 1-.504-.516c-.128-.216-.192-.496-.192-.84 0-.56.216-1 .648-1.32.44-.32 1.052-.48 1.836-.48.44 0 .828.044 1.164.132.344.088.608.184.792.288v.948a2.824 2.824 0 0 0-.78-.336c-.304-.096-.684-.144-1.14-.144-.472 0-.836.064-1.092.192-.248.128-.372.36-.372.696 0 .168.036.304.108.408a.856.856 0 0 0 .288.24c.128.056.272.1.432.132.16.032.328.068.504.108.272.056.552.116.84.18.288.064.544.164.768.3.232.136.42.32.564.552.152.224.228.528.228.912 0 .36-.072.66-.216.9-.144.24-.336.432-.576.576-.232.136-.5.232-.804.288-.296.064-.6.096-.912.096zm8.765-.648a3.344 3.344 0 0 1-.324.204 3.758 3.758 0 0 1-.468.216 3.946 3.946 0 0 1-.624.156 3.864 3.864 0 0 1-.78.072c-1.048 0-1.844-.284-2.388-.852-.544-.568-.816-1.364-.816-2.388 0-.504.072-.956.216-1.356.152-.4.36-.736.624-1.008.264-.28.576-.492.936-.636.36-.152.752-.228 1.176-.228a3 3 0 0 1 1.2.228c.352.152.64.376.864.672.232.296.388.664.468 1.104.088.432.088.936 0 1.512h-4.392c.04.672.24 1.176.6 1.512.36.328.896.492 1.608.492.48 0 .892-.068 1.236-.204a4.33 4.33 0 0 0 .864-.444v.948zm-2.472-4.884c-.456 0-.848.14-1.176.42-.328.28-.536.704-.624 1.272h3.348c.032-.576-.1-1-.396-1.272-.296-.28-.68-.42-1.152-.42zm6.567 5.532a3.77 3.77 0 0 1-1.308-.216 2.861 2.861 0 0 1-.984-.636c-.272-.28-.48-.62-.624-1.02a4.024 4.024 0 0 1-.216-1.368c0-.504.072-.956.216-1.356.152-.4.364-.736.636-1.008a2.63 2.63 0 0 1 .996-.636 3.662 3.662 0 0 1 1.332-.228c.384 0 .736.044 1.056.132.32.08.584.2.792.36v.948a2.798 2.798 0 0 0-.864-.372 3.563 3.563 0 0 0-.972-.132c-.728 0-1.264.188-1.608.564-.336.376-.504.952-.504 1.728s.164 1.352.492 1.728c.328.376.848.564 1.56.564.376 0 .72-.044 1.032-.132.32-.096.608-.216.864-.36v.948a3.678 3.678 0 0 1-1.896.492z"/>
    <rect width="164" height="60" x="268" y="370" fill="#D6E1FF" rx="10"/>
    <path fill="#262626" d="M340.59 395.396h2.892c.576 0 1.112.068 1.608.204.496.136.928.36 1.296.672.368.312.656.724.864 1.236.208.512.312 1.144.312 1.896 0 .76-.108 1.428-.324 2.004a3.949 3.949 0 0 1-.876 1.428 3.615 3.615 0 0 1-1.332.876 4.749 4.749 0 0 1-1.68.288h-2.76v-8.604zm1.128 1.032v6.552h1.632c.44 0 .844-.068 1.212-.204.368-.136.684-.344.948-.624.264-.288.468-.652.612-1.092.144-.44.216-.964.216-1.572 0-.6-.072-1.096-.216-1.488-.144-.4-.344-.716-.6-.948a2.003 2.003 0 0 0-.9-.48 4.32 4.32 0 0 0-1.14-.144h-1.764zm10.957 7.692a4.512 4.512 0 0 1-1.62-.288c-.504-.2-.94-.488-1.308-.864a4.092 4.092 0 0 1-.876-1.392c-.208-.552-.312-1.188-.312-1.908s.104-1.352.312-1.896c.216-.552.508-1.008.876-1.368a3.543 3.543 0 0 1 1.308-.828 4.512 4.512 0 0 1 1.62-.288c.584 0 1.128.096 1.632.288.504.184.94.46 1.308.828.368.368.656.828.864 1.38.208.544.312 1.176.312 1.896 0 .712-.104 1.344-.312 1.896a3.95 3.95 0 0 1-.864 1.392 3.734 3.734 0 0 1-1.308.864 4.546 4.546 0 0 1-1.632.288zm0-1.02c.416 0 .8-.06 1.152-.18.352-.128.656-.324.912-.588.264-.272.468-.624.612-1.056.152-.432.228-.956.228-1.572 0-.616-.076-1.14-.228-1.572-.144-.432-.348-.78-.612-1.044a2.217 2.217 0 0 0-.912-.588 3.347 3.347 0 0 0-1.152-.192c-.416 0-.8.064-1.152.192-.352.12-.66.316-.924.588-.256.264-.46.612-.612 1.044-.144.432-.216.956-.216 1.572 0 .616.072 1.14.216 1.572.152.432.356.784.612 1.056.264.264.572.46.924.588.352.12.736.18 1.152.18zm6.75-7.704V404h-1.128v-8.604h1.128z"/>
    <rect width="164" height="60" x="268" y="490" fill="#D6E1FF" rx="10"/>
    <path fill="#262626" d="M343.142 515.396V524h-1.128v-8.604h1.128zm4.041 4.92h-.912V524h-1.128v-8.604h1.128v3.9h.84l3.072-3.9h1.272l-3.396 4.296 3.528 4.308h-1.404l-3-3.684zm5.647-4.92h5.328v1.032h-4.2v2.604h3.564v1.02h-3.564v2.928h4.26V524h-5.388v-8.604z"/>
    <rect width="164" height="60" x="104" y="130" fill="#D6E1FF" rx="10"/>
    <path fill="#262626" d="M180.804 155.396h1.68l3.084 8.604h-1.2l-.888-2.46h-3.804L178.8 164h-1.056l3.06-8.604zm2.316 5.124-1.536-4.284-1.536 4.284h3.072zm9.245-.276h-4.416V164h-1.128v-8.604h1.128v3.828h4.416v-3.828h1.14V164h-1.14v-3.756z"/>
    <rect width="164" height="60" x="432" y="130" fill="#D6E1FF" rx="10"/>
    <path fill="#262626" d="M504.274 155.396h5.328v1.032h-4.2v2.604h3.564v1.02h-3.564v2.928h4.26V164h-5.388v-8.604zm9.513 8.724c-.392 0-.744-.028-1.056-.084a5.07 5.07 0 0 1-.828-.192 4.264 4.264 0 0 1-.6-.276 2.38 2.38 0 0 1-.384-.3v-1.08c.12.104.276.212.468.324.192.104.412.2.66.288.256.088.528.16.816.216.296.056.604.084.924.084.624 0 1.12-.116 1.488-.348.368-.24.552-.6.552-1.08 0-.24-.044-.436-.132-.588a1.07 1.07 0 0 0-.384-.396 2.236 2.236 0 0 0-.636-.276c-.248-.08-.54-.164-.876-.252a16.032 16.032 0 0 1-1.008-.3 3.714 3.714 0 0 1-.912-.444 2.247 2.247 0 0 1-.648-.696c-.16-.28-.24-.636-.24-1.068 0-.744.26-1.324.78-1.74.52-.416 1.316-.624 2.388-.624.312 0 .588.02.828.06.248.032.464.076.648.132.192.048.356.104.492.168.144.064.272.124.384.18v1.08a3.368 3.368 0 0 0-1.092-.456 5.19 5.19 0 0 0-1.26-.144c-.384 0-.708.032-.972.096-.256.056-.464.14-.624.252a.995.995 0 0 0-.348.408c-.072.16-.108.34-.108.54 0 .24.052.44.156.6.112.16.256.296.432.408.184.104.392.192.624.264.232.072.476.136.732.192.336.08.68.172 1.032.276.352.104.668.248.948.432.28.184.508.424.684.72.184.288.276.664.276 1.128 0 .456-.092.844-.276 1.164a2.247 2.247 0 0 1-.708.768 3 3 0 0 1-1.02.432 5.356 5.356 0 0 1-1.2.132zm4.631-8.724h2.748c.976 0 1.732.204 2.268.612.544.4.816 1.028.816 1.884 0 .488-.08.908-.24 1.26a2.22 2.22 0 0 1-.648.852c-.28.224-.616.388-1.008.492a4.91 4.91 0 0 1-1.284.156h-1.524V164h-1.128v-8.604zm1.128 1.032v3.204h1.524c.304 0 .58-.032.828-.096s.46-.164.636-.3a1.3 1.3 0 0 0 .42-.528c.104-.224.156-.492.156-.804 0-.52-.168-.896-.504-1.128-.336-.232-.816-.348-1.44-.348h-1.62z"/>
    <rect width="162" height="58" x="442" y="260" fill="#fff" rx="9"/>
    <rect width="162" height="58" x="442" y="260" fill="none" stroke="#5282FF" stroke-width="2" rx="9"/>
    <rect width="162" height="58" x="433" y="251" fill="#fff" rx="9"/>
    <path fill="#262626" d="M485.314 268.396h1.68l3.084 8.604h-1.2l-.888-2.46h-3.804l-.876 2.46h-1.056l3.06-8.604zm2.316 5.124-1.536-4.284-1.536 4.284h3.072zm4.036 1.548c.112-.408.184-.96.216-1.656s.048-1.576.048-2.64h4.188V277h-1.068v-5.328h-2.124a36.75 36.75 0 0 1-.084 2.28c-.04.664-.132 1.224-.276 1.68-.136.456-.34.804-.612 1.044-.264.232-.62.348-1.068.348h-.096a.556.556 0 0 1-.108-.012v-1.044c.04.008.092.012.156.012.408 0 .684-.304.828-.912zm6.165-4.296h3.96v.9h-2.904V277h-1.056v-6.228zm7.618 6.348c-.424 0-.82-.072-1.188-.216a2.767 2.767 0 0 1-.96-.624 3.04 3.04 0 0 1-.624-1.02c-.152-.4-.228-.86-.228-1.38 0-.512.076-.968.228-1.368a2.89 2.89 0 0 1 .624-1.02c.272-.272.592-.48.96-.624a3.231 3.231 0 0 1 1.188-.216c.432 0 .832.072 1.2.216.368.144.684.352.948.624.272.272.484.612.636 1.02.16.4.24.856.24 1.368 0 .52-.08.98-.24 1.38-.152.4-.364.74-.636 1.02-.264.272-.58.48-.948.624a3.265 3.265 0 0 1-1.2.216zm0-.948c.28 0 .536-.044.768-.132.24-.096.448-.236.624-.42.176-.192.312-.432.408-.72.096-.288.144-.628.144-1.02s-.048-.732-.144-1.02a1.855 1.855 0 0 0-.408-.708 1.569 1.569 0 0 0-.624-.42 1.99 1.99 0 0 0-.768-.144c-.28 0-.536.048-.768.144a1.586 1.586 0 0 0-.612.42c-.168.184-.3.42-.396.708a3.234 3.234 0 0 0-.144 1.02c0 .392.048.732.144 1.02.096.288.228.528.396.72.176.184.38.324.612.42.232.088.488.132.768.132zm7.443.948c-.48 0-.896-.112-1.248-.336a2.444 2.444 0 0 1-.828-.924v3.264h-1.056v-8.352h.924l.108 1.212c.208-.408.488-.732.84-.972s.788-.36 1.308-.36c.36 0 .704.068 1.032.204.336.128.628.328.876.6.256.264.456.6.6 1.008.152.4.228.872.228 1.416 0 .552-.076 1.032-.228 1.44a3.01 3.01 0 0 1-.612 1.008 2.566 2.566 0 0 1-.888.6 2.941 2.941 0 0 1-1.056.192zm-.156-.948c.552 0 .996-.188 1.332-.564.344-.384.516-.96.516-1.728 0-.752-.172-1.32-.516-1.704-.336-.392-.78-.588-1.332-.588-.272 0-.528.048-.768.144a1.71 1.71 0 0 0-.612.432c-.168.184-.304.42-.408.708a3.191 3.191 0 0 0-.144 1.008c0 .384.048.72.144 1.008.104.288.24.528.408.72.176.192.38.336.612.432.24.088.496.132.768.132zm5.276-.612 3.324-4.788h1.068V277h-1.056v-4.776L518.036 277h-1.08v-6.228h1.056v4.788zm8.624-3.888V277h-1.056v-5.328h-1.956v-.9h5.004v.9h-1.992zm9.15.324-2.112 4.308h-.84l-1.992-4.332V277h-.996v-6.228h1.572l1.908 4.176 2.04-4.176h1.464V277h-1.044v-5.004zm7.375 2.928c0 .36-.064.672-.192.936s-.308.48-.54.648a2.38 2.38 0 0 1-.828.372c-.32.08-.668.12-1.044.12h-2.004v-6.228h1.056v2.172h1.02c.792 0 1.412.156 1.86.468.448.312.672.816.672 1.512zm1.956 2.076h-1.056v-6.228h1.056V277zm-5.508-3.156v2.256h.948c.456 0 .824-.084 1.104-.252.288-.176.432-.464.432-.864 0-.408-.128-.7-.384-.876-.256-.176-.616-.264-1.08-.264h-1.02zM486.411 291h-7.776v-6.228h1.056v5.328h2.304v-5.328h1.056v5.328h2.304v-5.328h1.056V291zm2.784-1.44 3.324-4.788h1.068V291h-1.056v-4.776L489.219 291h-1.08v-6.228h1.056v4.788zm13.412-1.68c0 .52-.088.976-.264 1.368a2.925 2.925 0 0 1-.72.996 3.03 3.03 0 0 1-1.056.624c-.408.136-.84.212-1.296.228v2.028h-1.056v-2.028a4.39 4.39 0 0 1-1.32-.24 3.296 3.296 0 0 1-1.056-.612 2.925 2.925 0 0 1-.72-.996c-.168-.392-.252-.848-.252-1.368 0-.512.088-.964.264-1.356.176-.4.416-.732.72-.996a3.026 3.026 0 0 1 1.056-.612 4.358 4.358 0 0 1 1.308-.24v-2.4h1.056v2.4c.464.016.896.096 1.296.24.408.144.76.352 1.056.624.304.264.544.592.72.984.176.392.264.844.264 1.356zm-1.08 0c0-.384-.06-.716-.18-.996a1.809 1.809 0 0 0-.48-.696 2.03 2.03 0 0 0-.708-.42 2.873 2.873 0 0 0-.888-.18v4.584c.32-.016.616-.072.888-.168.28-.104.52-.248.72-.432.2-.184.356-.416.468-.696.12-.28.18-.612.18-.996zm-5.58 0c0 .384.056.716.168.996.12.28.28.516.48.708.208.184.448.324.72.42.28.096.58.152.9.168v-4.584a3.028 3.028 0 0 0-.912.18 2 2 0 0 0-1.188 1.128 2.64 2.64 0 0 0-.168.984zm11.086 3.24c-.48 0-.896-.112-1.248-.336a2.444 2.444 0 0 1-.828-.924v3.264h-1.056v-8.352h.924l.108 1.212c.208-.408.488-.732.84-.972s.788-.36 1.308-.36c.36 0 .704.068 1.032.204.336.128.628.328.876.6.256.264.456.6.6 1.008.152.4.228.872.228 1.416 0 .552-.076 1.032-.228 1.44a3.01 3.01 0 0 1-.612 1.008 2.566 2.566 0 0 1-.888.6 2.941 2.941 0 0 1-1.056.192zm-.156-.948c.552 0 .996-.188 1.332-.564.344-.384.516-.96.516-1.728 0-.752-.172-1.32-.516-1.704-.336-.392-.78-.588-1.332-.588-.272 0-.528.048-.768.144a1.71 1.71 0 0 0-.612.432c-.168.184-.304.42-.408.708a3.191 3.191 0 0 0-.144 1.008c0 .384.048.72.144 1.008.104.288.24.528.408.72.176.192.38.336.612.432.24.088.496.132.768.132zm6.775.948c-.424 0-.82-.072-1.188-.216a2.767 2.767 0 0 1-.96-.624 3.04 3.04 0 0 1-.624-1.02c-.152-.4-.228-.86-.228-1.38 0-.512.076-.968.228-1.368a2.89 2.89 0 0 1 .624-1.02c.272-.272.592-.48.96-.624a3.231 3.231 0 0 1 1.188-.216c.432 0 .832.072 1.2.216.368.144.684.352.948.624.272.272.484.612.636 1.02.16.4.24.856.24 1.368 0 .52-.08.98-.24 1.38-.152.4-.364.74-.636 1.02-.264.272-.58.48-.948.624a3.265 3.265 0 0 1-1.2.216zm0-.948c.28 0 .536-.044.768-.132.24-.096.448-.236.624-.42.176-.192.312-.432.408-.72.096-.288.144-.628.144-1.02s-.048-.732-.144-1.02a1.855 1.855 0 0 0-.408-.708 1.569 1.569 0 0 0-.624-.42 1.99 1.99 0 0 0-.768-.144c-.28 0-.536.048-.768.144a1.586 1.586 0 0 0-.612.42c-.168.184-.3.42-.396.708a3.234 3.234 0 0 0-.144 1.02c0 .392.048.732.144 1.02.096.288.228.528.396.72.176.184.38.324.612.42.232.088.488.132.768.132zm4.312-5.4h2.328c.752 0 1.32.132 1.704.396.384.256.576.66.576 1.212 0 .368-.096.664-.288.888-.184.216-.448.372-.792.468.888.144 1.332.636 1.332 1.476 0 .32-.064.596-.192.828a1.583 1.583 0 0 1-.528.552 2.348 2.348 0 0 1-.816.312 5.08 5.08 0 0 1-1.02.096h-2.304v-6.228zm1.056.9v1.692h1.176c.4 0 .72-.072.96-.216.248-.144.372-.352.372-.624 0-.328-.108-.552-.324-.672-.216-.12-.524-.18-.924-.18h-1.26zm0 2.532v1.896h1.236c.224 0 .424-.012.6-.036.184-.032.34-.084.468-.156a.778.778 0 0 0 .312-.288.85.85 0 0 0 .108-.444c0-.36-.124-.612-.372-.756-.248-.144-.62-.216-1.116-.216h-1.236zm9.037 1.608a3.648 3.648 0 0 1-.276.456 2.088 2.088 0 0 1-1.02.732c-.224.08-.488.12-.792.12-.56 0-1.012-.156-1.356-.468-.344-.32-.516-.776-.516-1.368 0-.68.236-1.18.708-1.5.48-.32 1.16-.48 2.04-.48h1.164v-.516c0-.432-.112-.74-.336-.924-.224-.184-.608-.276-1.152-.276-.384 0-.748.064-1.092.192-.344.12-.652.26-.924.42v-.948c.224-.136.524-.268.9-.396a3.75 3.75 0 0 1 1.26-.204c.784 0 1.38.164 1.788.492.408.32.612.82.612 1.5v3.6c.008.088.012.18.012.276l.024.276c.008.08.016.148.024.204h-.96a5.482 5.482 0 0 1-.072-.468 7.173 7.173 0 0 1-.024-.54l-.012-.18zm-1.86.36c.328 0 .608-.068.84-.204.232-.136.42-.292.564-.468.144-.184.248-.36.312-.528.064-.176.096-.3.096-.372v-.456h-1.056c-.632 0-1.092.092-1.38.276-.28.176-.42.444-.42.804 0 .28.084.508.252.684.168.176.432.264.792.264zm8.596-1.932h-3.012V291h-1.056v-6.228h1.056v2.568h3.012v-2.568h1.056V291h-1.056v-2.76zm3.844 1.32 3.324-4.788h1.068V291h-1.056v-4.776L538.661 291h-1.08v-6.228h1.056v4.788zm6.116-2.772c0-.352.064-.652.192-.9.128-.256.308-.464.54-.624a2.38 2.38 0 0 1 .828-.372c.32-.08.668-.12 1.044-.12h2.004V291h-1.056v-2.256h-1.14L545.569 291h-1.26l1.8-2.52c-.432-.128-.768-.324-1.008-.588-.232-.264-.348-.632-.348-1.104zm3.552 1.056v-2.172h-.948c-.448 0-.816.084-1.104.252-.288.168-.432.44-.432.816 0 .392.128.676.384.852.256.168.62.252 1.092.252h1.008z"/>
    <rect width="162" height="58" x="433" y="251" fill="none" stroke="#5282FF" stroke-width="2" rx="9"/>
    <rect width="162" height="58" x="-1" y="1" fill="#fff" rx="9" transform="matrix(-1 0 0 1 257 259)"/>
    <rect width="162" height="58" x="-1" y="1" fill="none" stroke="#5282FF" stroke-width="2" rx="9" transform="matrix(-1 0 0 1 257 259)"/>
    <rect width="162" height="58" x="-1" y="1" fill="#fff" rx="9" transform="matrix(-1 0 0 1 266 250)"/>
    <path fill="#262626" d="M157.314 268.396h1.68l3.084 8.604h-1.2l-.888-2.46h-3.804l-.876 2.46h-1.056l3.06-8.604zm2.316 5.124-1.536-4.284-1.536 4.284h3.072zm4.036 1.548c.112-.408.184-.96.216-1.656s.048-1.576.048-2.64h4.188V277h-1.068v-5.328h-2.124a36.75 36.75 0 0 1-.084 2.28c-.04.664-.132 1.224-.276 1.68-.136.456-.34.804-.612 1.044-.264.232-.62.348-1.068.348h-.096a.556.556 0 0 1-.108-.012v-1.044c.04.008.092.012.156.012.408 0 .684-.304.828-.912zm6.165-4.296h3.96v.9h-2.904V277h-1.056v-6.228zm7.618 6.348c-.424 0-.82-.072-1.188-.216a2.767 2.767 0 0 1-.96-.624 3.04 3.04 0 0 1-.624-1.02c-.152-.4-.228-.86-.228-1.38 0-.512.076-.968.228-1.368a2.89 2.89 0 0 1 .624-1.02c.272-.272.592-.48.96-.624a3.231 3.231 0 0 1 1.188-.216c.432 0 .832.072 1.2.216.368.144.684.352.948.624.272.272.484.612.636 1.02.16.4.24.856.24 1.368 0 .52-.08.98-.24 1.38-.152.4-.364.74-.636 1.02-.264.272-.58.48-.948.624a3.265 3.265 0 0 1-1.2.216zm0-.948c.28 0 .536-.044.768-.132.24-.096.448-.236.624-.42.176-.192.312-.432.408-.72.096-.288.144-.628.144-1.02s-.048-.732-.144-1.02a1.855 1.855 0 0 0-.408-.708 1.569 1.569 0 0 0-.624-.42 1.99 1.99 0 0 0-.768-.144c-.28 0-.536.048-.768.144a1.586 1.586 0 0 0-.612.42c-.168.184-.3.42-.396.708a3.234 3.234 0 0 0-.144 1.02c0 .392.048.732.144 1.02.096.288.228.528.396.72.176.184.38.324.612.42.232.088.488.132.768.132zm7.443.948c-.48 0-.896-.112-1.248-.336a2.444 2.444 0 0 1-.828-.924v3.264h-1.056v-8.352h.924l.108 1.212c.208-.408.488-.732.84-.972s.788-.36 1.308-.36c.36 0 .704.068 1.032.204.336.128.628.328.876.6.256.264.456.6.6 1.008.152.4.228.872.228 1.416 0 .552-.076 1.032-.228 1.44a3.01 3.01 0 0 1-.612 1.008 2.566 2.566 0 0 1-.888.6 2.941 2.941 0 0 1-1.056.192zm-.156-.948c.552 0 .996-.188 1.332-.564.344-.384.516-.96.516-1.728 0-.752-.172-1.32-.516-1.704-.336-.392-.78-.588-1.332-.588-.272 0-.528.048-.768.144a1.71 1.71 0 0 0-.612.432c-.168.184-.304.42-.408.708a3.191 3.191 0 0 0-.144 1.008c0 .384.048.72.144 1.008.104.288.24.528.408.72.176.192.38.336.612.432.24.088.496.132.768.132zm5.276-.612 3.324-4.788h1.068V277h-1.056v-4.776L190.036 277h-1.08v-6.228h1.056v4.788zm8.624-3.888V277h-1.056v-5.328h-1.956v-.9h5.004v.9h-1.992zm9.15.324-2.112 4.308h-.84l-1.992-4.332V277h-.996v-6.228h1.572l1.908 4.176 2.04-4.176h1.464V277h-1.044v-5.004zm7.375 2.928c0 .36-.064.672-.192.936s-.308.48-.54.648a2.38 2.38 0 0 1-.828.372c-.32.08-.668.12-1.044.12h-2.004v-6.228h1.056v2.172h1.02c.792 0 1.412.156 1.86.468.448.312.672.816.672 1.512zm1.956 2.076h-1.056v-6.228h1.056V277zm-5.508-3.156v2.256h.948c.456 0 .824-.084 1.104-.252.288-.176.432-.464.432-.864 0-.408-.128-.7-.384-.876-.256-.176-.616-.264-1.08-.264h-1.02zm-68.23 15.968a3.648 3.648 0 0 1-.276.456 2.088 2.088 0 0 1-1.02.732c-.224.08-.488.12-.792.12-.56 0-1.012-.156-1.356-.468-.344-.32-.516-.776-.516-1.368 0-.68.236-1.18.708-1.5.48-.32 1.16-.48 2.04-.48h1.164v-.516c0-.432-.112-.74-.336-.924-.224-.184-.608-.276-1.152-.276-.384 0-.748.064-1.092.192-.344.12-.652.26-.924.42v-.948c.224-.136.524-.268.9-.396a3.75 3.75 0 0 1 1.26-.204c.784 0 1.38.164 1.788.492.408.32.612.82.612 1.5v3.6c.008.088.012.18.012.276l.024.276c.008.08.016.148.024.204h-.96a5.482 5.482 0 0 1-.072-.468 7.173 7.173 0 0 1-.024-.54l-.012-.18zm-1.86.36c.328 0 .608-.068.84-.204.232-.136.42-.292.564-.468.144-.184.248-.36.312-.528.064-.176.096-.3.096-.372v-.456h-1.056c-.632 0-1.092.092-1.38.276-.28.176-.42.444-.42.804 0 .28.084.508.252.684.168.176.432.264.792.264zm7.589.756a7.132 7.132 0 0 1-.456.984c-.16.288-.34.532-.54.732-.2.2-.424.348-.672.444a2.187 2.187 0 0 1-.852.156c-.16 0-.308-.012-.444-.036a1.336 1.336 0 0 1-.372-.096v-1.02c.088.064.2.112.336.144.136.04.284.06.444.06.296 0 .54-.072.732-.216.192-.136.376-.356.552-.66l-2.532-6.648h1.164l1.98 5.256 1.968-5.256h1.02l-2.328 6.156zm5.94-5.256V291h-1.056v-5.328h-1.956v-.9h5.004v.9h-1.992zm7.991 4.8a3.344 3.344 0 0 1-.324.204 3.758 3.758 0 0 1-.468.216 3.946 3.946 0 0 1-.624.156 3.864 3.864 0 0 1-.78.072c-1.048 0-1.844-.284-2.388-.852-.544-.568-.816-1.364-.816-2.388 0-.504.072-.956.216-1.356.152-.4.36-.736.624-1.008.264-.28.576-.492.936-.636.36-.152.752-.228 1.176-.228a3 3 0 0 1 1.2.228c.352.152.64.376.864.672.232.296.388.664.468 1.104.088.432.088.936 0 1.512h-4.392c.04.672.24 1.176.6 1.512.36.328.896.492 1.608.492.48 0 .892-.068 1.236-.204a4.33 4.33 0 0 0 .864-.444v.948zm-2.472-4.884c-.456 0-.848.14-1.176.42-.328.28-.536.704-.624 1.272h3.348c.032-.576-.1-1-.396-1.272-.296-.28-.68-.42-1.152-.42zm8.041 2.652h-3.012V291h-1.056v-6.228h1.056v2.568h3.012v-2.568h1.056V291h-1.056v-2.76zm5.295-2.568V291h-1.056v-5.328h-1.956v-.9h5.004v.9h-1.992zm4.267 3.888 3.324-4.788h1.068V291h-1.056v-4.776L178.194 291h-1.08v-6.228h1.056v4.788zm13.412-1.68c0 .52-.088.976-.264 1.368a2.925 2.925 0 0 1-.72.996 3.03 3.03 0 0 1-1.056.624c-.408.136-.84.212-1.296.228v2.028h-1.056v-2.028a4.39 4.39 0 0 1-1.32-.24 3.296 3.296 0 0 1-1.056-.612 2.925 2.925 0 0 1-.72-.996c-.168-.392-.252-.848-.252-1.368 0-.512.088-.964.264-1.356.176-.4.416-.732.72-.996a3.026 3.026 0 0 1 1.056-.612 4.358 4.358 0 0 1 1.308-.24v-2.4h1.056v2.4c.464.016.896.096 1.296.24.408.144.76.352 1.056.624.304.264.544.592.72.984.176.392.264.844.264 1.356zm-1.08 0c0-.384-.06-.716-.18-.996a1.809 1.809 0 0 0-.48-.696 2.03 2.03 0 0 0-.708-.42 2.873 2.873 0 0 0-.888-.18v4.584c.32-.016.616-.072.888-.168.28-.104.52-.248.72-.432.2-.184.356-.416.468-.696.12-.28.18-.612.18-.996zm-5.58 0c0 .384.056.716.168.996.12.28.28.516.48.708.208.184.448.324.72.42.28.096.58.152.9.168v-4.584a3.028 3.028 0 0 0-.912.18 2 2 0 0 0-1.188 1.128 2.64 2.64 0 0 0-.168.984zm9.01 1.68 3.324-4.788h1.068V291h-1.056v-4.776L193.956 291h-1.08v-6.228h1.056v4.788zm7.724-1.212h-.552V291h-1.056v-6.228h1.056v2.676h.6l2.184-2.676h1.2l-2.556 3.072 2.604 3.156h-1.284l-2.196-2.652zm8.122 1.464a3.648 3.648 0 0 1-.276.456 2.088 2.088 0 0 1-1.02.732c-.224.08-.488.12-.792.12-.56 0-1.012-.156-1.356-.468-.344-.32-.516-.776-.516-1.368 0-.68.236-1.18.708-1.5.48-.32 1.16-.48 2.04-.48h1.164v-.516c0-.432-.112-.74-.336-.924-.224-.184-.608-.276-1.152-.276-.384 0-.748.064-1.092.192-.344.12-.652.26-.924.42v-.948c.224-.136.524-.268.9-.396a3.75 3.75 0 0 1 1.26-.204c.784 0 1.38.164 1.788.492.408.32.612.82.612 1.5v3.6c.008.088.012.18.012.276l.024.276c.008.08.016.148.024.204h-.96a5.482 5.482 0 0 1-.072-.468 7.173 7.173 0 0 1-.024-.54l-.012-.18zm-1.86.36c.328 0 .608-.068.84-.204.232-.136.42-.292.564-.468.144-.184.248-.36.312-.528.064-.176.096-.3.096-.372v-.456h-1.056c-.632 0-1.092.092-1.38.276-.28.176-.42.444-.42.804 0 .28.084.508.252.684.168.176.432.264.792.264zm9.604.828h-5.076v-6.228h1.056v5.328h3.06v-5.328h1.056v5.328h.936v2.676h-.9l-.132-1.776zm3.187-1.44 3.324-4.788h1.068V291h-1.056v-4.776L220.733 291h-1.08v-6.228h1.056v4.788zm7.172 0 3.324-4.788h1.068V291h-1.056v-4.776L227.905 291h-1.08v-6.228h1.056v4.788z"/>
    <rect width="162" height="58" x="-1" y="1" fill="none" stroke="#5282FF" stroke-width="2" rx="9" transform="matrix(-1 0 0 1 266 250)"/>
</svg>
