<svg width="800" height="400" viewBox="0 0 800 400" fill="none" xmlns="http://www.w3.org/2000/svg">
<rect x="522" y="170" width="200" height="60" rx="10" fill="#D6E1FF"/>
<path d="M569.939 207.2C568.526 207.2 567.286 206.907 566.219 206.32C565.166 205.733 564.346 204.893 563.759 203.8C563.172 202.693 562.879 201.373 562.879 199.84C562.879 197.533 563.486 195.733 564.699 194.44C565.912 193.133 567.646 192.48 569.899 192.48C570.739 192.48 571.539 192.573 572.299 192.76C573.072 192.933 573.726 193.187 574.259 193.52V195.32C573.686 194.96 573.012 194.68 572.239 194.48C571.479 194.28 570.692 194.18 569.879 194.18C568.199 194.18 566.952 194.653 566.139 195.6C565.326 196.547 564.919 197.96 564.919 199.84C564.919 201.733 565.359 203.153 566.239 204.1C567.119 205.033 568.406 205.5 570.099 205.5C571.699 205.5 573.086 205.06 574.259 204.18V205.98C573.792 206.353 573.172 206.653 572.399 206.88C571.626 207.093 570.806 207.2 569.939 207.2ZM580.962 207.2C580.015 207.2 579.162 206.993 578.402 206.58C577.655 206.153 577.062 205.54 576.622 204.74C576.182 203.927 575.962 202.947 575.962 201.8C575.962 200.653 576.182 199.68 576.622 198.88C577.062 198.08 577.655 197.473 578.402 197.06C579.162 196.633 580.015 196.42 580.962 196.42C581.922 196.42 582.782 196.633 583.542 197.06C584.302 197.473 584.902 198.08 585.342 198.88C585.782 199.68 586.002 200.653 586.002 201.8C586.002 202.947 585.782 203.927 585.342 204.74C584.902 205.54 584.302 206.153 583.542 206.58C582.782 206.993 581.922 207.2 580.962 207.2ZM580.962 205.62C581.895 205.62 582.668 205.313 583.282 204.7C583.895 204.073 584.202 203.107 584.202 201.8C584.202 200.493 583.895 199.533 583.282 198.92C582.668 198.293 581.895 197.98 580.962 197.98C580.042 197.98 579.275 198.293 578.662 198.92C578.062 199.533 577.762 200.493 577.762 201.8C577.762 203.107 578.062 204.073 578.662 204.7C579.275 205.313 580.042 205.62 580.962 205.62ZM593.067 197.98C592.267 197.98 591.614 198.167 591.107 198.54C590.614 198.9 590.214 199.367 589.907 199.94V207H588.147V196.62H589.807L589.867 198.48H589.907C590.187 197.893 590.627 197.407 591.227 197.02C591.827 196.62 592.587 196.42 593.507 196.42C594.534 196.42 595.347 196.693 595.947 197.24C596.56 197.787 596.867 198.613 596.867 199.72V207H595.107V199.9C595.107 199.193 594.92 198.7 594.547 198.42C594.187 198.127 593.694 197.98 593.067 197.98ZM598.811 198.12V196.62H600.051V194.44H601.811V196.62H604.831V198.12H601.811V204.36C601.811 204.8 601.924 205.12 602.151 205.32C602.378 205.52 602.764 205.62 603.311 205.62C603.831 205.62 604.304 205.473 604.731 205.18V206.78C604.518 206.913 604.238 207.013 603.891 207.08C603.544 207.16 603.198 207.2 602.851 207.2C602.184 207.2 601.644 207.073 601.231 206.82C600.818 206.567 600.518 206.24 600.331 205.84C600.144 205.44 600.051 205.02 600.051 204.58V198.12H598.811ZM612.213 198.38C611.386 198.447 610.679 198.653 610.093 199C609.519 199.347 609.099 199.813 608.833 200.4V207H607.073V196.62H608.613L608.793 198.88H608.833C609.166 198.187 609.619 197.627 610.193 197.2C610.779 196.773 611.453 196.513 612.213 196.42V198.38ZM618.11 207.2C617.163 207.2 616.31 206.993 615.55 206.58C614.803 206.153 614.21 205.54 613.77 204.74C613.33 203.927 613.11 202.947 613.11 201.8C613.11 200.653 613.33 199.68 613.77 198.88C614.21 198.08 614.803 197.473 615.55 197.06C616.31 196.633 617.163 196.42 618.11 196.42C619.07 196.42 619.93 196.633 620.69 197.06C621.45 197.473 622.05 198.08 622.49 198.88C622.93 199.68 623.15 200.653 623.15 201.8C623.15 202.947 622.93 203.927 622.49 204.74C622.05 205.54 621.45 206.153 620.69 206.58C619.93 206.993 619.07 207.2 618.11 207.2ZM618.11 205.62C619.043 205.62 619.817 205.313 620.43 204.7C621.043 204.073 621.35 203.107 621.35 201.8C621.35 200.493 621.043 199.533 620.43 198.92C619.817 198.293 619.043 197.98 618.11 197.98C617.19 197.98 616.423 198.293 615.81 198.92C615.21 199.533 614.91 200.493 614.91 201.8C614.91 203.107 615.21 204.073 615.81 204.7C616.423 205.313 617.19 205.62 618.11 205.62ZM625.295 192.66H627.055V207H625.295V192.66ZM634.168 192.66H638.748C640.375 192.66 641.635 193 642.528 193.68C643.435 194.347 643.888 195.393 643.888 196.82C643.888 197.9 643.662 198.78 643.208 199.46C642.768 200.14 642.148 200.64 641.348 200.96C640.562 201.267 639.642 201.42 638.588 201.42H636.048V207H634.168V192.66ZM638.588 199.72C639.602 199.72 640.422 199.5 641.048 199.06C641.675 198.62 641.988 197.88 641.988 196.84C641.988 195.973 641.708 195.347 641.148 194.96C640.588 194.573 639.788 194.38 638.748 194.38H636.048V199.72H638.588ZM646.135 192.66H647.895V207H646.135V192.66ZM654.284 197.98C653.178 197.98 652.058 198.32 650.924 199V197.42C651.418 197.113 651.984 196.873 652.624 196.7C653.278 196.513 653.911 196.42 654.524 196.42C655.831 196.42 656.824 196.693 657.504 197.24C658.184 197.787 658.524 198.62 658.524 199.74V205.32C658.524 205.547 658.531 205.84 658.544 206.2C658.571 206.547 658.598 206.813 658.624 207H657.024C656.984 206.813 656.944 206.553 656.904 206.22C656.878 205.873 656.864 205.573 656.864 205.32L656.844 205.02C656.684 205.34 656.464 205.673 656.184 206.02C655.904 206.353 655.531 206.633 655.064 206.86C654.611 207.087 654.044 207.2 653.364 207.2C652.431 207.2 651.678 206.933 651.104 206.4C650.531 205.867 650.244 205.113 650.244 204.14C650.244 203.007 650.644 202.173 651.444 201.64C652.244 201.107 653.371 200.84 654.824 200.84H656.764V199.98C656.764 199.26 656.578 198.747 656.204 198.44C655.831 198.133 655.191 197.98 654.284 197.98ZM656.764 203V202.24H655.004C653.951 202.24 653.184 202.393 652.704 202.7C652.238 203.007 652.004 203.453 652.004 204.04C652.004 204.507 652.144 204.887 652.424 205.18C652.718 205.473 653.158 205.62 653.744 205.62C654.291 205.62 654.758 205.513 655.144 205.3C655.531 205.073 655.844 204.807 656.084 204.5C656.324 204.18 656.498 203.88 656.604 203.6C656.711 203.32 656.764 203.12 656.764 203ZM666.212 197.98C665.412 197.98 664.758 198.167 664.252 198.54C663.758 198.9 663.358 199.367 663.052 199.94V207H661.292V196.62H662.952L663.012 198.48H663.052C663.332 197.893 663.772 197.407 664.372 197.02C664.972 196.62 665.732 196.42 666.652 196.42C667.678 196.42 668.492 196.693 669.092 197.24C669.705 197.787 670.012 198.613 670.012 199.72V207H668.252V199.9C668.252 199.193 668.065 198.7 667.692 198.42C667.332 198.127 666.838 197.98 666.212 197.98ZM677.395 207.2C675.662 207.2 674.335 206.727 673.415 205.78C672.509 204.82 672.055 203.493 672.055 201.8C672.055 200.667 672.269 199.7 672.695 198.9C673.122 198.1 673.709 197.487 674.455 197.06C675.202 196.633 676.042 196.42 676.975 196.42C678.562 196.42 679.729 196.947 680.475 198C681.222 199.04 681.462 200.467 681.195 202.28H673.875C674.022 204.507 675.249 205.62 677.555 205.62C678.822 205.62 679.989 205.26 681.055 204.54V206.12C680.575 206.453 680.015 206.72 679.375 206.92C678.735 207.107 678.075 207.2 677.395 207.2ZM676.935 197.98C676.175 197.98 675.522 198.213 674.975 198.68C674.429 199.147 674.082 199.853 673.935 200.8H679.515C679.555 199.907 679.349 199.213 678.895 198.72C678.442 198.227 677.789 197.98 676.935 197.98Z" fill="black"/>
<rect x="102" y="170" width="200" height="60" rx="10" fill="#FFEA96"/>
<path d="M155.643 192.66H160.463C161.423 192.66 162.316 192.773 163.143 193C163.97 193.227 164.69 193.6 165.303 194.12C165.916 194.627 166.396 195.307 166.743 196.16C167.09 197.013 167.263 198.073 167.263 199.34C167.263 201.02 166.956 202.433 166.343 203.58C165.743 204.713 164.916 205.567 163.863 206.14C162.81 206.713 161.603 207 160.243 207H155.643V192.66ZM160.243 205.3C161.23 205.3 162.096 205.1 162.843 204.7C163.59 204.287 164.17 203.653 164.583 202.8C165.01 201.933 165.223 200.827 165.223 199.48C165.223 198.133 165.016 197.093 164.603 196.36C164.19 195.627 163.623 195.113 162.903 194.82C162.196 194.527 161.383 194.38 160.463 194.38H157.523V205.3H160.243ZM173.044 197.98C171.937 197.98 170.817 198.32 169.684 199V197.42C170.177 197.113 170.744 196.873 171.384 196.7C172.037 196.513 172.671 196.42 173.284 196.42C174.591 196.42 175.584 196.693 176.264 197.24C176.944 197.787 177.284 198.62 177.284 199.74V205.32C177.284 205.547 177.291 205.84 177.304 206.2C177.331 206.547 177.357 206.813 177.384 207H175.784C175.744 206.813 175.704 206.553 175.664 206.22C175.637 205.873 175.624 205.573 175.624 205.32L175.604 205.02C175.444 205.34 175.224 205.673 174.944 206.02C174.664 206.353 174.291 206.633 173.824 206.86C173.371 207.087 172.804 207.2 172.124 207.2C171.191 207.2 170.437 206.933 169.864 206.4C169.291 205.867 169.004 205.113 169.004 204.14C169.004 203.007 169.404 202.173 170.204 201.64C171.004 201.107 172.131 200.84 173.584 200.84H175.524V199.98C175.524 199.26 175.337 198.747 174.964 198.44C174.591 198.133 173.951 197.98 173.044 197.98ZM175.524 203V202.24H173.764C172.711 202.24 171.944 202.393 171.464 202.7C170.997 203.007 170.764 203.453 170.764 204.04C170.764 204.507 170.904 204.887 171.184 205.18C171.477 205.473 171.917 205.62 172.504 205.62C173.051 205.62 173.517 205.513 173.904 205.3C174.291 205.073 174.604 204.807 174.844 204.5C175.084 204.18 175.257 203.88 175.364 203.6C175.471 203.32 175.524 203.12 175.524 203ZM179.211 198.12V196.62H180.451V194.44H182.211V196.62H185.231V198.12H182.211V204.36C182.211 204.8 182.325 205.12 182.551 205.32C182.778 205.52 183.165 205.62 183.711 205.62C184.231 205.62 184.705 205.473 185.131 205.18V206.78C184.918 206.913 184.638 207.013 184.291 207.08C183.945 207.16 183.598 207.2 183.251 207.2C182.585 207.2 182.045 207.073 181.631 206.82C181.218 206.567 180.918 206.24 180.731 205.84C180.545 205.44 180.451 205.02 180.451 204.58V198.12H179.211ZM190.993 197.98C189.887 197.98 188.767 198.32 187.633 199V197.42C188.127 197.113 188.693 196.873 189.333 196.7C189.987 196.513 190.62 196.42 191.233 196.42C192.54 196.42 193.533 196.693 194.213 197.24C194.893 197.787 195.233 198.62 195.233 199.74V205.32C195.233 205.547 195.24 205.84 195.253 206.2C195.28 206.547 195.307 206.813 195.333 207H193.733C193.693 206.813 193.653 206.553 193.613 206.22C193.587 205.873 193.573 205.573 193.573 205.32L193.553 205.02C193.393 205.34 193.173 205.673 192.893 206.02C192.613 206.353 192.24 206.633 191.773 206.86C191.32 207.087 190.753 207.2 190.073 207.2C189.14 207.2 188.387 206.933 187.813 206.4C187.24 205.867 186.953 205.113 186.953 204.14C186.953 203.007 187.353 202.173 188.153 201.64C188.953 201.107 190.08 200.84 191.533 200.84H193.473V199.98C193.473 199.26 193.287 198.747 192.913 198.44C192.54 198.133 191.9 197.98 190.993 197.98ZM193.473 203V202.24H191.713C190.66 202.24 189.893 202.393 189.413 202.7C188.947 203.007 188.713 203.453 188.713 204.04C188.713 204.507 188.853 204.887 189.133 205.18C189.427 205.473 189.867 205.62 190.453 205.62C191 205.62 191.467 205.513 191.853 205.3C192.24 205.073 192.553 204.807 192.793 204.5C193.033 204.18 193.207 203.88 193.313 203.6C193.42 203.32 193.473 203.12 193.473 203ZM202.244 192.66H206.824C208.451 192.66 209.711 193 210.604 193.68C211.511 194.347 211.964 195.393 211.964 196.82C211.964 197.9 211.738 198.78 211.284 199.46C210.844 200.14 210.224 200.64 209.424 200.96C208.638 201.267 207.718 201.42 206.664 201.42H204.124V207H202.244V192.66ZM206.664 199.72C207.678 199.72 208.498 199.5 209.124 199.06C209.751 198.62 210.064 197.88 210.064 196.84C210.064 195.973 209.784 195.347 209.224 194.96C208.664 194.573 207.864 194.38 206.824 194.38H204.124V199.72H206.664ZM214.211 192.66H215.971V207H214.211V192.66ZM222.36 197.98C221.254 197.98 220.134 198.32 219 199V197.42C219.494 197.113 220.06 196.873 220.7 196.7C221.354 196.513 221.987 196.42 222.6 196.42C223.907 196.42 224.9 196.693 225.58 197.24C226.26 197.787 226.6 198.62 226.6 199.74V205.32C226.6 205.547 226.607 205.84 226.62 206.2C226.647 206.547 226.674 206.813 226.7 207H225.1C225.06 206.813 225.02 206.553 224.98 206.22C224.954 205.873 224.94 205.573 224.94 205.32L224.92 205.02C224.76 205.34 224.54 205.673 224.26 206.02C223.98 206.353 223.607 206.633 223.14 206.86C222.687 207.087 222.12 207.2 221.44 207.2C220.507 207.2 219.754 206.933 219.18 206.4C218.607 205.867 218.32 205.113 218.32 204.14C218.32 203.007 218.72 202.173 219.52 201.64C220.32 201.107 221.447 200.84 222.9 200.84H224.84V199.98C224.84 199.26 224.654 198.747 224.28 198.44C223.907 198.133 223.267 197.98 222.36 197.98ZM224.84 203V202.24H223.08C222.027 202.24 221.26 202.393 220.78 202.7C220.314 203.007 220.08 203.453 220.08 204.04C220.08 204.507 220.22 204.887 220.5 205.18C220.794 205.473 221.234 205.62 221.82 205.62C222.367 205.62 222.834 205.513 223.22 205.3C223.607 205.073 223.92 204.807 224.16 204.5C224.4 204.18 224.574 203.88 224.68 203.6C224.787 203.32 224.84 203.12 224.84 203ZM234.288 197.98C233.488 197.98 232.834 198.167 232.328 198.54C231.834 198.9 231.434 199.367 231.128 199.94V207H229.368V196.62H231.028L231.088 198.48H231.128C231.408 197.893 231.848 197.407 232.448 197.02C233.048 196.62 233.808 196.42 234.728 196.42C235.754 196.42 236.568 196.693 237.168 197.24C237.781 197.787 238.088 198.613 238.088 199.72V207H236.328V199.9C236.328 199.193 236.141 198.7 235.768 198.42C235.408 198.127 234.914 197.98 234.288 197.98ZM245.472 207.2C243.738 207.2 242.412 206.727 241.492 205.78C240.585 204.82 240.132 203.493 240.132 201.8C240.132 200.667 240.345 199.7 240.772 198.9C241.198 198.1 241.785 197.487 242.532 197.06C243.278 196.633 244.118 196.42 245.052 196.42C246.638 196.42 247.805 196.947 248.552 198C249.298 199.04 249.538 200.467 249.272 202.28H241.952C242.098 204.507 243.325 205.62 245.632 205.62C246.898 205.62 248.065 205.26 249.132 204.54V206.12C248.652 206.453 248.092 206.72 247.452 206.92C246.812 207.107 246.152 207.2 245.472 207.2ZM245.012 197.98C244.252 197.98 243.598 198.213 243.052 198.68C242.505 199.147 242.158 199.853 242.012 200.8H247.592C247.632 199.907 247.425 199.213 246.972 198.72C246.518 198.227 245.865 197.98 245.012 197.98Z" fill="black"/>
<rect x="102" y="320" width="200" height="60" rx="10" fill="#FFEA96"/>
<path d="M155.643 342.66H160.463C161.423 342.66 162.316 342.773 163.143 343C163.97 343.227 164.69 343.6 165.303 344.12C165.916 344.627 166.396 345.307 166.743 346.16C167.09 347.013 167.263 348.073 167.263 349.34C167.263 351.02 166.956 352.433 166.343 353.58C165.743 354.713 164.916 355.567 163.863 356.14C162.81 356.713 161.603 357 160.243 357H155.643V342.66ZM160.243 355.3C161.23 355.3 162.096 355.1 162.843 354.7C163.59 354.287 164.17 353.653 164.583 352.8C165.01 351.933 165.223 350.827 165.223 349.48C165.223 348.133 165.016 347.093 164.603 346.36C164.19 345.627 163.623 345.113 162.903 344.82C162.196 344.527 161.383 344.38 160.463 344.38H157.523V355.3H160.243ZM173.044 347.98C171.937 347.98 170.817 348.32 169.684 349V347.42C170.177 347.113 170.744 346.873 171.384 346.7C172.037 346.513 172.671 346.42 173.284 346.42C174.591 346.42 175.584 346.693 176.264 347.24C176.944 347.787 177.284 348.62 177.284 349.74V355.32C177.284 355.547 177.291 355.84 177.304 356.2C177.331 356.547 177.357 356.813 177.384 357H175.784C175.744 356.813 175.704 356.553 175.664 356.22C175.637 355.873 175.624 355.573 175.624 355.32L175.604 355.02C175.444 355.34 175.224 355.673 174.944 356.02C174.664 356.353 174.291 356.633 173.824 356.86C173.371 357.087 172.804 357.2 172.124 357.2C171.191 357.2 170.437 356.933 169.864 356.4C169.291 355.867 169.004 355.113 169.004 354.14C169.004 353.007 169.404 352.173 170.204 351.64C171.004 351.107 172.131 350.84 173.584 350.84H175.524V349.98C175.524 349.26 175.337 348.747 174.964 348.44C174.591 348.133 173.951 347.98 173.044 347.98ZM175.524 353V352.24H173.764C172.711 352.24 171.944 352.393 171.464 352.7C170.997 353.007 170.764 353.453 170.764 354.04C170.764 354.507 170.904 354.887 171.184 355.18C171.477 355.473 171.917 355.62 172.504 355.62C173.051 355.62 173.517 355.513 173.904 355.3C174.291 355.073 174.604 354.807 174.844 354.5C175.084 354.18 175.257 353.88 175.364 353.6C175.471 353.32 175.524 353.12 175.524 353ZM179.211 348.12V346.62H180.451V344.44H182.211V346.62H185.231V348.12H182.211V354.36C182.211 354.8 182.325 355.12 182.551 355.32C182.778 355.52 183.165 355.62 183.711 355.62C184.231 355.62 184.705 355.473 185.131 355.18V356.78C184.918 356.913 184.638 357.013 184.291 357.08C183.945 357.16 183.598 357.2 183.251 357.2C182.585 357.2 182.045 357.073 181.631 356.82C181.218 356.567 180.918 356.24 180.731 355.84C180.545 355.44 180.451 355.02 180.451 354.58V348.12H179.211ZM190.993 347.98C189.887 347.98 188.767 348.32 187.633 349V347.42C188.127 347.113 188.693 346.873 189.333 346.7C189.987 346.513 190.62 346.42 191.233 346.42C192.54 346.42 193.533 346.693 194.213 347.24C194.893 347.787 195.233 348.62 195.233 349.74V355.32C195.233 355.547 195.24 355.84 195.253 356.2C195.28 356.547 195.307 356.813 195.333 357H193.733C193.693 356.813 193.653 356.553 193.613 356.22C193.587 355.873 193.573 355.573 193.573 355.32L193.553 355.02C193.393 355.34 193.173 355.673 192.893 356.02C192.613 356.353 192.24 356.633 191.773 356.86C191.32 357.087 190.753 357.2 190.073 357.2C189.14 357.2 188.387 356.933 187.813 356.4C187.24 355.867 186.953 355.113 186.953 354.14C186.953 353.007 187.353 352.173 188.153 351.64C188.953 351.107 190.08 350.84 191.533 350.84H193.473V349.98C193.473 349.26 193.287 348.747 192.913 348.44C192.54 348.133 191.9 347.98 190.993 347.98ZM193.473 353V352.24H191.713C190.66 352.24 189.893 352.393 189.413 352.7C188.947 353.007 188.713 353.453 188.713 354.04C188.713 354.507 188.853 354.887 189.133 355.18C189.427 355.473 189.867 355.62 190.453 355.62C191 355.62 191.467 355.513 191.853 355.3C192.24 355.073 192.553 354.807 192.793 354.5C193.033 354.18 193.207 353.88 193.313 353.6C193.42 353.32 193.473 353.12 193.473 353ZM202.244 342.66H206.824C208.451 342.66 209.711 343 210.604 343.68C211.511 344.347 211.964 345.393 211.964 346.82C211.964 347.9 211.738 348.78 211.284 349.46C210.844 350.14 210.224 350.64 209.424 350.96C208.638 351.267 207.718 351.42 206.664 351.42H204.124V357H202.244V342.66ZM206.664 349.72C207.678 349.72 208.498 349.5 209.124 349.06C209.751 348.62 210.064 347.88 210.064 346.84C210.064 345.973 209.784 345.347 209.224 344.96C208.664 344.573 207.864 344.38 206.824 344.38H204.124V349.72H206.664ZM214.211 342.66H215.971V357H214.211V342.66ZM222.36 347.98C221.254 347.98 220.134 348.32 219 349V347.42C219.494 347.113 220.06 346.873 220.7 346.7C221.354 346.513 221.987 346.42 222.6 346.42C223.907 346.42 224.9 346.693 225.58 347.24C226.26 347.787 226.6 348.62 226.6 349.74V355.32C226.6 355.547 226.607 355.84 226.62 356.2C226.647 356.547 226.674 356.813 226.7 357H225.1C225.06 356.813 225.02 356.553 224.98 356.22C224.954 355.873 224.94 355.573 224.94 355.32L224.92 355.02C224.76 355.34 224.54 355.673 224.26 356.02C223.98 356.353 223.607 356.633 223.14 356.86C222.687 357.087 222.12 357.2 221.44 357.2C220.507 357.2 219.754 356.933 219.18 356.4C218.607 355.867 218.32 355.113 218.32 354.14C218.32 353.007 218.72 352.173 219.52 351.64C220.32 351.107 221.447 350.84 222.9 350.84H224.84V349.98C224.84 349.26 224.654 348.747 224.28 348.44C223.907 348.133 223.267 347.98 222.36 347.98ZM224.84 353V352.24H223.08C222.027 352.24 221.26 352.393 220.78 352.7C220.314 353.007 220.08 353.453 220.08 354.04C220.08 354.507 220.22 354.887 220.5 355.18C220.794 355.473 221.234 355.62 221.82 355.62C222.367 355.62 222.834 355.513 223.22 355.3C223.607 355.073 223.92 354.807 224.16 354.5C224.4 354.18 224.574 353.88 224.68 353.6C224.787 353.32 224.84 353.12 224.84 353ZM234.288 347.98C233.488 347.98 232.834 348.167 232.328 348.54C231.834 348.9 231.434 349.367 231.128 349.94V357H229.368V346.62H231.028L231.088 348.48H231.128C231.408 347.893 231.848 347.407 232.448 347.02C233.048 346.62 233.808 346.42 234.728 346.42C235.754 346.42 236.568 346.693 237.168 347.24C237.781 347.787 238.088 348.613 238.088 349.72V357H236.328V349.9C236.328 349.193 236.141 348.7 235.768 348.42C235.408 348.127 234.914 347.98 234.288 347.98ZM245.472 357.2C243.738 357.2 242.412 356.727 241.492 355.78C240.585 354.82 240.132 353.493 240.132 351.8C240.132 350.667 240.345 349.7 240.772 348.9C241.198 348.1 241.785 347.487 242.532 347.06C243.278 346.633 244.118 346.42 245.052 346.42C246.638 346.42 247.805 346.947 248.552 348C249.298 349.04 249.538 350.467 249.272 352.28H241.952C242.098 354.507 243.325 355.62 245.632 355.62C246.898 355.62 248.065 355.26 249.132 354.54V356.12C248.652 356.453 248.092 356.72 247.452 356.92C246.812 357.107 246.152 357.2 245.472 357.2ZM245.012 347.98C244.252 347.98 243.598 348.213 243.052 348.68C242.505 349.147 242.158 349.853 242.012 350.8H247.592C247.632 349.907 247.425 349.213 246.972 348.72C246.518 348.227 245.865 347.98 245.012 347.98Z" fill="black"/>
<rect x="102" y="20" width="200" height="60" rx="10" fill="#FFEA96"/>
<path d="M155.643 42.66H160.463C161.423 42.66 162.316 42.7733 163.143 43C163.97 43.2267 164.69 43.6 165.303 44.12C165.916 44.6267 166.396 45.3067 166.743 46.16C167.09 47.0133 167.263 48.0733 167.263 49.34C167.263 51.02 166.956 52.4333 166.343 53.58C165.743 54.7133 164.916 55.5667 163.863 56.14C162.81 56.7133 161.603 57 160.243 57H155.643V42.66ZM160.243 55.3C161.23 55.3 162.096 55.1 162.843 54.7C163.59 54.2867 164.17 53.6533 164.583 52.8C165.01 51.9333 165.223 50.8267 165.223 49.48C165.223 48.1333 165.016 47.0933 164.603 46.36C164.19 45.6267 163.623 45.1133 162.903 44.82C162.196 44.5267 161.383 44.38 160.463 44.38H157.523V55.3H160.243ZM173.044 47.98C171.937 47.98 170.817 48.32 169.684 49V47.42C170.177 47.1133 170.744 46.8733 171.384 46.7C172.037 46.5133 172.671 46.42 173.284 46.42C174.591 46.42 175.584 46.6933 176.264 47.24C176.944 47.7867 177.284 48.62 177.284 49.74V55.32C177.284 55.5467 177.291 55.84 177.304 56.2C177.331 56.5467 177.357 56.8133 177.384 57H175.784C175.744 56.8133 175.704 56.5533 175.664 56.22C175.637 55.8733 175.624 55.5733 175.624 55.32L175.604 55.02C175.444 55.34 175.224 55.6733 174.944 56.02C174.664 56.3533 174.291 56.6333 173.824 56.86C173.371 57.0867 172.804 57.2 172.124 57.2C171.191 57.2 170.437 56.9333 169.864 56.4C169.291 55.8667 169.004 55.1133 169.004 54.14C169.004 53.0067 169.404 52.1733 170.204 51.64C171.004 51.1067 172.131 50.84 173.584 50.84H175.524V49.98C175.524 49.26 175.337 48.7467 174.964 48.44C174.591 48.1333 173.951 47.98 173.044 47.98ZM175.524 53V52.24H173.764C172.711 52.24 171.944 52.3933 171.464 52.7C170.997 53.0067 170.764 53.4533 170.764 54.04C170.764 54.5067 170.904 54.8867 171.184 55.18C171.477 55.4733 171.917 55.62 172.504 55.62C173.051 55.62 173.517 55.5133 173.904 55.3C174.291 55.0733 174.604 54.8067 174.844 54.5C175.084 54.18 175.257 53.88 175.364 53.6C175.471 53.32 175.524 53.12 175.524 53ZM179.211 48.12V46.62H180.451V44.44H182.211V46.62H185.231V48.12H182.211V54.36C182.211 54.8 182.325 55.12 182.551 55.32C182.778 55.52 183.165 55.62 183.711 55.62C184.231 55.62 184.705 55.4733 185.131 55.18V56.78C184.918 56.9133 184.638 57.0133 184.291 57.08C183.945 57.16 183.598 57.2 183.251 57.2C182.585 57.2 182.045 57.0733 181.631 56.82C181.218 56.5667 180.918 56.24 180.731 55.84C180.545 55.44 180.451 55.02 180.451 54.58V48.12H179.211ZM190.993 47.98C189.887 47.98 188.767 48.32 187.633 49V47.42C188.127 47.1133 188.693 46.8733 189.333 46.7C189.987 46.5133 190.62 46.42 191.233 46.42C192.54 46.42 193.533 46.6933 194.213 47.24C194.893 47.7867 195.233 48.62 195.233 49.74V55.32C195.233 55.5467 195.24 55.84 195.253 56.2C195.28 56.5467 195.307 56.8133 195.333 57H193.733C193.693 56.8133 193.653 56.5533 193.613 56.22C193.587 55.8733 193.573 55.5733 193.573 55.32L193.553 55.02C193.393 55.34 193.173 55.6733 192.893 56.02C192.613 56.3533 192.24 56.6333 191.773 56.86C191.32 57.0867 190.753 57.2 190.073 57.2C189.14 57.2 188.387 56.9333 187.813 56.4C187.24 55.8667 186.953 55.1133 186.953 54.14C186.953 53.0067 187.353 52.1733 188.153 51.64C188.953 51.1067 190.08 50.84 191.533 50.84H193.473V49.98C193.473 49.26 193.287 48.7467 192.913 48.44C192.54 48.1333 191.9 47.98 190.993 47.98ZM193.473 53V52.24H191.713C190.66 52.24 189.893 52.3933 189.413 52.7C188.947 53.0067 188.713 53.4533 188.713 54.04C188.713 54.5067 188.853 54.8867 189.133 55.18C189.427 55.4733 189.867 55.62 190.453 55.62C191 55.62 191.467 55.5133 191.853 55.3C192.24 55.0733 192.553 54.8067 192.793 54.5C193.033 54.18 193.207 53.88 193.313 53.6C193.42 53.32 193.473 53.12 193.473 53ZM202.244 42.66H206.824C208.451 42.66 209.711 43 210.604 43.68C211.511 44.3467 211.964 45.3933 211.964 46.82C211.964 47.9 211.738 48.78 211.284 49.46C210.844 50.14 210.224 50.64 209.424 50.96C208.638 51.2667 207.718 51.42 206.664 51.42H204.124V57H202.244V42.66ZM206.664 49.72C207.678 49.72 208.498 49.5 209.124 49.06C209.751 48.62 210.064 47.88 210.064 46.84C210.064 45.9733 209.784 45.3467 209.224 44.96C208.664 44.5733 207.864 44.38 206.824 44.38H204.124V49.72H206.664ZM214.211 42.66H215.971V57H214.211V42.66ZM222.36 47.98C221.254 47.98 220.134 48.32 219 49V47.42C219.494 47.1133 220.06 46.8733 220.7 46.7C221.354 46.5133 221.987 46.42 222.6 46.42C223.907 46.42 224.9 46.6933 225.58 47.24C226.26 47.7867 226.6 48.62 226.6 49.74V55.32C226.6 55.5467 226.607 55.84 226.62 56.2C226.647 56.5467 226.674 56.8133 226.7 57H225.1C225.06 56.8133 225.02 56.5533 224.98 56.22C224.954 55.8733 224.94 55.5733 224.94 55.32L224.92 55.02C224.76 55.34 224.54 55.6733 224.26 56.02C223.98 56.3533 223.607 56.6333 223.14 56.86C222.687 57.0867 222.12 57.2 221.44 57.2C220.507 57.2 219.754 56.9333 219.18 56.4C218.607 55.8667 218.32 55.1133 218.32 54.14C218.32 53.0067 218.72 52.1733 219.52 51.64C220.32 51.1067 221.447 50.84 222.9 50.84H224.84V49.98C224.84 49.26 224.654 48.7467 224.28 48.44C223.907 48.1333 223.267 47.98 222.36 47.98ZM224.84 53V52.24H223.08C222.027 52.24 221.26 52.3933 220.78 52.7C220.314 53.0067 220.08 53.4533 220.08 54.04C220.08 54.5067 220.22 54.8867 220.5 55.18C220.794 55.4733 221.234 55.62 221.82 55.62C222.367 55.62 222.834 55.5133 223.22 55.3C223.607 55.0733 223.92 54.8067 224.16 54.5C224.4 54.18 224.574 53.88 224.68 53.6C224.787 53.32 224.84 53.12 224.84 53ZM234.288 47.98C233.488 47.98 232.834 48.1667 232.328 48.54C231.834 48.9 231.434 49.3667 231.128 49.94V57H229.368V46.62H231.028L231.088 48.48H231.128C231.408 47.8933 231.848 47.4067 232.448 47.02C233.048 46.62 233.808 46.42 234.728 46.42C235.754 46.42 236.568 46.6933 237.168 47.24C237.781 47.7867 238.088 48.6133 238.088 49.72V57H236.328V49.9C236.328 49.1933 236.141 48.7 235.768 48.42C235.408 48.1267 234.914 47.98 234.288 47.98ZM245.472 57.2C243.738 57.2 242.412 56.7267 241.492 55.78C240.585 54.82 240.132 53.4933 240.132 51.8C240.132 50.6667 240.345 49.7 240.772 48.9C241.198 48.1 241.785 47.4867 242.532 47.06C243.278 46.6333 244.118 46.42 245.052 46.42C246.638 46.42 247.805 46.9467 248.552 48C249.298 49.04 249.538 50.4667 249.272 52.28H241.952C242.098 54.5067 243.325 55.62 245.632 55.62C246.898 55.62 248.065 55.26 249.132 54.54V56.12C248.652 56.4533 248.092 56.72 247.452 56.92C246.812 57.1067 246.152 57.2 245.472 57.2ZM245.012 47.98C244.252 47.98 243.598 48.2133 243.052 48.68C242.505 49.1467 242.158 49.8533 242.012 50.8H247.592C247.632 49.9067 247.425 49.2133 246.972 48.72C246.518 48.2267 245.865 47.98 245.012 47.98Z" fill="black"/>
<path d="M97 52L87.0099 52C81.4872 52 77.0101 56.4769 77.0099 61.9997L77.0003 340.989C77.0002 346.516 81.484 350.995 87.0112 350.989L96.9795 350.978" stroke="#4E496B" stroke-width="2"/>
<path d="M307.001 350L317.001 355.773L317.001 344.226L307.001 350ZM316.001 351L400.518 351L400.518 349L316.001 349L316.001 351ZM411.518 340.002L411.541 210.998L409.541 210.998L409.518 340.002L411.518 340.002ZM420.541 202L424.5 202L424.5 200L420.541 200L420.541 202ZM411.541 210.998C411.542 206.028 415.571 202 420.541 202L420.541 200C414.467 200 409.542 204.924 409.541 210.998L411.541 210.998ZM400.518 351C406.593 351 411.517 346.076 411.518 340.002L409.518 340.002C409.517 344.972 405.488 349 400.518 349L400.518 351Z" fill="#5282FF"/>
<path d="M307 52L317 46.2265L317 57.7735L307 52ZM316 51L400.517 51L400.517 53L316 53L316 51ZM411.517 61.998L411.54 191.002L409.54 191.002L409.517 61.9984L411.517 61.998ZM420.54 200L424.499 200L424.499 202L420.54 202L420.54 200ZM411.54 191.002C411.541 195.972 415.57 200 420.54 200L420.54 202C414.466 202 409.542 197.076 409.54 191.002L411.54 191.002ZM400.517 51C406.592 51 411.516 55.9237 411.517 61.998L409.517 61.9984C409.517 57.0285 405.487 53 400.517 53L400.517 51Z" fill="#5282FF"/>
<path d="M202.003 85L202 165" stroke="#4E496B" stroke-width="2"/>
<path d="M307 201L317 206.774L317 195.227L307 201ZM517 200.007L316 200L316 202L517 202.007L517 200.007Z" fill="#5282FF"/>
<path d="M202.003 235L202 315" stroke="#4E496B" stroke-width="2"/>
</svg>
