<svg xmlns="http://www.w3.org/2000/svg" width="700" height="100" fill="none" viewBox="0 0 700 100">
    <path fill="#4E496B" d="m403 50 10 5.773V44.227L403 50Zm9 1h29v-2h-29v2Zm173-1-10-5.773v11.547L585 50Zm-9-1h-29v2h29v-2Zm-279 1-10-5.773v11.547L297 50Zm-9-1h-29v2h29v-2Zm-173 1 10 5.773V44.227L115 50Zm9 1h29v-2h-29v2Z"/>
    <rect width="104" height="84" x="154" y="8" fill="#fff" stroke="#FF6565" stroke-width="2" rx="9"/>
    <path fill="#000" fill-opacity=".85" d="M190.72 32h-5.388v-8.604h1.452v7.356h3.936V32Zm1.961-7.02a.862.862 0 0 1-.636-.252.84.84 0 0 1-.24-.6.84.84 0 0 1 .24-.6.862.862 0 0 1 .636-.252c.248 0 .452.084.612.252a.82.82 0 0 1 .252.6.82.82 0 0 1-.252.6.808.808 0 0 1-.612.252Zm.696.792V32h-1.392v-6.228h1.392Zm4.609 1.032c-.408 0-.744.088-1.008.264-.264.168-.48.388-.648.66V32h-1.392v-6.228h1.32l.048 1.02h.024c.168-.328.42-.6.756-.816.344-.216.78-.324 1.308-.324.608 0 1.104.164 1.488.492.392.328.588.828.588 1.5V32h-1.404v-4.212c0-.36-.096-.612-.288-.756-.192-.152-.456-.228-.792-.228Zm5.916 2.664h-.552V32h-1.392v-8.604h1.392v4.944h.588l1.98-2.568h1.464l-2.364 3 2.46 3.228h-1.632l-1.944-2.532ZM214.811 32h-1.44v-7.02l-2.448 1.824v-1.44l2.64-1.968h1.248V32Zm2.566-4.884h2.94v1.188h-2.94v-1.188Zm9.761 2.412c0 .4-.076.76-.228 1.08a2.44 2.44 0 0 1-.648.816 2.866 2.866 0 0 1-.996.516 4.25 4.25 0 0 1-1.272.18c-.576 0-1.064-.068-1.464-.204a3.76 3.76 0 0 1-.984-.504v-1.344a4.5 4.5 0 0 0 .96.6c.392.184.86.276 1.404.276.568 0 1-.128 1.296-.384.304-.256.456-.608.456-1.056 0-.456-.14-.796-.42-1.02-.28-.232-.716-.348-1.308-.348h-1.056v-1.212h1.116c.408 0 .74-.108.996-.324.264-.224.396-.54.396-.948 0-.368-.124-.656-.372-.864-.248-.216-.604-.324-1.068-.324-.488 0-.904.088-1.248.264a5.49 5.49 0 0 0-.96.624V24.02c.28-.208.604-.384.972-.528.376-.144.84-.216 1.392-.216.416 0 .792.056 1.128.168.336.112.62.268.852.468.232.2.412.44.54.72.128.28.192.588.192.924 0 .28-.048.528-.144.744a1.944 1.944 0 0 1-.36.576c-.152.16-.328.292-.528.396a2.296 2.296 0 0 1-.612.204c.264.032.512.104.744.216.24.104.448.244.624.42.184.168.328.372.432.612.112.24.168.508.168.804Zm-56.276 23.868h5.256v1.032h-4.128v2.856h3.504v1.02h-3.504V62h-1.128v-8.604Zm8.86 4.92h-.912V62h-1.128v-8.604h1.128v3.9h.84l3.072-3.9h1.272l-3.396 4.296L184.126 62h-1.404l-3-3.684Zm6.079 3.756a.763.763 0 0 1-.564-.216.759.759 0 0 1-.216-.54c0-.224.072-.408.216-.552a.763.763 0 0 1 .564-.216c.224 0 .408.072.552.216a.748.748 0 0 1 .216.552.759.759 0 0 1-.216.54.748.748 0 0 1-.552.216Zm0-4.596a.763.763 0 0 1-.564-.216.759.759 0 0 1-.216-.54c0-.224.072-.408.216-.552a.763.763 0 0 1 .564-.216c.224 0 .408.072.552.216a.748.748 0 0 1 .216.552.759.759 0 0 1-.216.54.748.748 0 0 1-.552.216Zm6.204-4.08V62h-1.128v-8.604h1.128Zm2.001 0h2.892c.576 0 1.112.068 1.608.204.496.136.928.36 1.296.672.368.312.656.724.864 1.236.208.512.312 1.144.312 1.896 0 .76-.108 1.428-.324 2.004a3.949 3.949 0 0 1-.876 1.428 3.615 3.615 0 0 1-1.332.876 4.749 4.749 0 0 1-1.68.288h-2.76v-8.604Zm1.128 1.032v6.552h1.632c.44 0 .844-.068 1.212-.204.368-.136.684-.344.948-.624.264-.288.468-.652.612-1.092.144-.44.216-.964.216-1.572 0-.6-.072-1.096-.216-1.488-.144-.4-.344-.716-.6-.948a2.003 2.003 0 0 0-.9-.48 4.32 4.32 0 0 0-1.14-.144h-1.764Zm6.217 8.052h4.92v.9h-4.92v-.9Zm11.347-4.236h-4.416V62h-1.128v-8.604h1.128v3.828h4.416v-3.828h1.14V62h-1.14v-3.756Zm2.936-4.848h1.14v5.664c0 .696.196 1.212.588 1.548.4.336.944.504 1.632.504.336 0 .644-.04.924-.12.288-.088.536-.216.744-.384a1.76 1.76 0 0 0 .48-.648c.12-.256.18-.556.18-.9v-5.664h1.08v5.628c0 .496-.088.936-.264 1.32-.176.384-.42.708-.732.972a3.09 3.09 0 0 1-1.08.6 4.34 4.34 0 0 1-1.356.204c-.472 0-.912-.064-1.32-.192a3.058 3.058 0 0 1-1.068-.576 2.679 2.679 0 0 1-.696-.948c-.168-.384-.252-.828-.252-1.332v-5.676Zm8.513 0h2.916c.944 0 1.66.16 2.148.48.496.32.744.86.744 1.62 0 .312-.044.584-.132.816-.08.224-.196.42-.348.588-.144.16-.324.292-.54.396a2.97 2.97 0 0 1-.696.24c.672.08 1.176.276 1.512.588.344.304.516.768.516 1.392 0 .448-.084.832-.252 1.152-.16.312-.384.568-.672.768a3.191 3.191 0 0 1-1.02.432c-.392.088-.82.132-1.284.132h-2.892v-8.604Zm1.128 1.032v2.64h1.704c.272 0 .52-.028.744-.084.224-.064.416-.156.576-.276.16-.128.284-.284.372-.468.096-.192.144-.42.144-.684 0-.44-.152-.736-.456-.888-.304-.16-.736-.24-1.296-.24h-1.788Zm0 3.66v2.892h1.764c.304 0 .58-.024.828-.072.248-.048.46-.128.636-.24a1.12 1.12 0 0 0 .42-.444c.104-.184.156-.412.156-.684 0-.544-.176-.92-.528-1.128-.344-.216-.892-.324-1.644-.324h-1.632Zm5.478 4.392h4.92v.9h-4.92v-.9Zm9.26-.48h-1.092v-7.248l-2.376 1.824v-1.212l2.556-1.968h.912V62Zm-69.151 6.396h5.256v1.032h-4.128v2.856h3.504v1.02h-3.504V77h-1.128v-8.604Zm8.86 4.92h-.912V77h-1.128v-8.604h1.128v3.9h.84l3.072-3.9h1.272l-3.396 4.296L184.126 77h-1.404l-3-3.684Zm6.079 3.756a.763.763 0 0 1-.564-.216.759.759 0 0 1-.216-.54c0-.224.072-.408.216-.552a.763.763 0 0 1 .564-.216c.224 0 .408.072.552.216a.748.748 0 0 1 .216.552.759.759 0 0 1-.216.54.748.748 0 0 1-.552.216Zm0-4.596a.763.763 0 0 1-.564-.216.759.759 0 0 1-.216-.54c0-.224.072-.408.216-.552a.763.763 0 0 1 .564-.216c.224 0 .408.072.552.216a.748.748 0 0 1 .216.552.759.759 0 0 1-.216.54.748.748 0 0 1-.552.216Zm6.204-4.08V77h-1.128v-8.604h1.128Zm2.001 0h2.892c.576 0 1.112.068 1.608.204.496.136.928.36 1.296.672.368.312.656.724.864 1.236.208.512.312 1.144.312 1.896 0 .76-.108 1.428-.324 2.004a3.949 3.949 0 0 1-.876 1.428 3.615 3.615 0 0 1-1.332.876 4.749 4.749 0 0 1-1.68.288h-2.76v-8.604Zm1.128 1.032v6.552h1.632c.44 0 .844-.068 1.212-.204.368-.136.684-.344.948-.624.264-.288.468-.652.612-1.092.144-.44.216-.964.216-1.572 0-.6-.072-1.096-.216-1.488-.144-.4-.344-.716-.6-.948a2.003 2.003 0 0 0-.9-.48 4.32 4.32 0 0 0-1.14-.144h-1.764Zm6.217 8.052h4.92v.9h-4.92v-.9Zm11.347-4.236h-4.416V77h-1.128v-8.604h1.128v3.828h4.416v-3.828h1.14V77h-1.14v-3.756Zm2.936-4.848h1.14v5.664c0 .696.196 1.212.588 1.548.4.336.944.504 1.632.504.336 0 .644-.04.924-.12.288-.088.536-.216.744-.384a1.76 1.76 0 0 0 .48-.648c.12-.256.18-.556.18-.9v-5.664h1.08v5.628c0 .496-.088.936-.264 1.32-.176.384-.42.708-.732.972a3.09 3.09 0 0 1-1.08.6 4.34 4.34 0 0 1-1.356.204c-.472 0-.912-.064-1.32-.192a3.058 3.058 0 0 1-1.068-.576 2.679 2.679 0 0 1-.696-.948c-.168-.384-.252-.828-.252-1.332v-5.676Zm8.513 0h2.916c.944 0 1.66.16 2.148.48.496.32.744.86.744 1.62 0 .312-.044.584-.132.816-.08.224-.196.42-.348.588-.144.16-.324.292-.54.396a2.97 2.97 0 0 1-.696.24c.672.08 1.176.276 1.512.588.344.304.516.768.516 1.392 0 .448-.084.832-.252 1.152-.16.312-.384.568-.672.768a3.191 3.191 0 0 1-1.02.432c-.392.088-.82.132-1.284.132h-2.892v-8.604Zm1.128 1.032v2.64h1.704c.272 0 .52-.028.744-.084.224-.064.416-.156.576-.276.16-.128.284-.284.372-.468.096-.192.144-.42.144-.684 0-.44-.152-.736-.456-.888-.304-.16-.736-.24-1.296-.24h-1.788Zm0 3.66v2.892h1.764c.304 0 .58-.024.828-.072.248-.048.46-.128.636-.24a1.12 1.12 0 0 0 .42-.444c.104-.184.156-.412.156-.684 0-.544-.176-.92-.528-1.128-.344-.216-.892-.324-1.644-.324h-1.632Zm5.478 4.392h4.92v.9h-4.92v-.9Zm10.94-2.964c0 .4-.076.76-.228 1.08a2.47 2.47 0 0 1-.636.828 2.895 2.895 0 0 1-.972.516 4.09 4.09 0 0 1-1.248.18c-.56 0-1.044-.068-1.452-.204-.408-.136-.74-.312-.996-.528v-1.2c.256.256.592.48 1.008.672.416.184.9.276 1.452.276.592 0 1.056-.14 1.392-.42.344-.28.516-.672.516-1.176 0-.48-.152-.852-.456-1.116-.304-.272-.78-.408-1.428-.408h-1.104v-1.02h1.152c.456 0 .824-.12 1.104-.36.28-.24.42-.588.42-1.044 0-.408-.132-.728-.396-.96-.264-.24-.644-.36-1.14-.36-.512 0-.952.096-1.32.288-.36.192-.688.416-.984.672v-1.176c.28-.232.612-.42.996-.564a3.744 3.744 0 0 1 1.32-.216c.408 0 .776.056 1.104.168.328.104.604.256.828.456.232.2.408.44.528.72.12.272.18.576.18.912 0 .272-.04.516-.12.732-.08.216-.192.404-.336.564-.136.16-.296.296-.48.408-.184.104-.38.18-.588.228.248.04.484.116.708.228.232.112.436.256.612.432.176.168.312.372.408.612.104.232.156.492.156.78Z"/>
    <rect width="104" height="84" x="442" y="8" fill="#fff" stroke="#FF6565" stroke-width="2" rx="9"/>
    <path fill="#000" fill-opacity=".85" d="M478.72 32h-5.388v-8.604h1.452v7.356h3.936V32Zm1.961-7.02a.862.862 0 0 1-.636-.252.84.84 0 0 1-.24-.6.84.84 0 0 1 .24-.6.862.862 0 0 1 .636-.252c.248 0 .452.084.612.252a.82.82 0 0 1 .252.6.82.82 0 0 1-.252.6.808.808 0 0 1-.612.252Zm.696.792V32h-1.392v-6.228h1.392Zm4.609 1.032c-.408 0-.744.088-1.008.264-.264.168-.48.388-.648.66V32h-1.392v-6.228h1.32l.048 1.02h.024c.168-.328.42-.6.756-.816.344-.216.78-.324 1.308-.324.608 0 1.104.164 1.488.492.392.328.588.828.588 1.5V32h-1.404v-4.212c0-.36-.096-.612-.288-.756-.192-.152-.456-.228-.792-.228Zm5.916 2.664h-.552V32h-1.392v-8.604h1.392v4.944h.588l1.98-2.568h1.464l-2.364 3 2.46 3.228h-1.632l-1.944-2.532ZM502.811 32h-1.44v-7.02l-2.448 1.824v-1.44l2.64-1.968h1.248V32Zm2.566-4.884h2.94v1.188h-2.94v-1.188ZM515.138 32h-5.556v-1.38c.72-.56 1.336-1.056 1.848-1.488.512-.432.928-.828 1.248-1.188.328-.368.568-.712.72-1.032a2.4 2.4 0 0 0 .228-1.02c0-.432-.132-.776-.396-1.032-.256-.256-.624-.384-1.104-.384-.432 0-.844.104-1.236.312-.384.2-.744.46-1.08.78v-1.38c.32-.272.676-.492 1.068-.66.392-.168.86-.252 1.404-.252.432 0 .824.06 1.176.18s.648.292.888.516c.248.216.436.484.564.804.136.312.204.664.204 1.056 0 .432-.084.84-.252 1.224-.168.376-.42.756-.756 1.14-.328.384-.744.784-1.248 1.2-.496.416-1.08.876-1.752 1.38h4.032V32Zm-56.276 21.396h5.256v1.032h-4.128v2.856h3.504v1.02h-3.504V62h-1.128v-8.604Zm8.86 4.92h-.912V62h-1.128v-8.604h1.128v3.9h.84l3.072-3.9h1.272l-3.396 4.296L472.126 62h-1.404l-3-3.684Zm6.079 3.756a.763.763 0 0 1-.564-.216.759.759 0 0 1-.216-.54c0-.224.072-.408.216-.552a.763.763 0 0 1 .564-.216c.224 0 .408.072.552.216a.748.748 0 0 1 .216.552.759.759 0 0 1-.216.54.748.748 0 0 1-.552.216Zm0-4.596a.763.763 0 0 1-.564-.216.759.759 0 0 1-.216-.54c0-.224.072-.408.216-.552a.763.763 0 0 1 .564-.216c.224 0 .408.072.552.216a.748.748 0 0 1 .216.552.759.759 0 0 1-.216.54.748.748 0 0 1-.552.216Zm6.204-4.08V62h-1.128v-8.604h1.128Zm2.001 0h2.892c.576 0 1.112.068 1.608.204.496.136.928.36 1.296.672.368.312.656.724.864 1.236.208.512.312 1.144.312 1.896 0 .76-.108 1.428-.324 2.004a3.949 3.949 0 0 1-.876 1.428 3.615 3.615 0 0 1-1.332.876 4.749 4.749 0 0 1-1.68.288h-2.76v-8.604Zm1.128 1.032v6.552h1.632c.44 0 .844-.068 1.212-.204.368-.136.684-.344.948-.624.264-.288.468-.652.612-1.092.144-.44.216-.964.216-1.572 0-.6-.072-1.096-.216-1.488-.144-.4-.344-.716-.6-.948a2.003 2.003 0 0 0-.9-.48 4.32 4.32 0 0 0-1.14-.144h-1.764Zm6.217 8.052h4.92v.9h-4.92v-.9Zm11.347-4.236h-4.416V62h-1.128v-8.604h1.128v3.828h4.416v-3.828h1.14V62h-1.14v-3.756Zm2.936-4.848h1.14v5.664c0 .696.196 1.212.588 1.548.4.336.944.504 1.632.504.336 0 .644-.04.924-.12.288-.088.536-.216.744-.384a1.76 1.76 0 0 0 .48-.648c.12-.256.18-.556.18-.9v-5.664h1.08v5.628c0 .496-.088.936-.264 1.32-.176.384-.42.708-.732.972a3.09 3.09 0 0 1-1.08.6 4.34 4.34 0 0 1-1.356.204c-.472 0-.912-.064-1.32-.192a3.058 3.058 0 0 1-1.068-.576 2.679 2.679 0 0 1-.696-.948c-.168-.384-.252-.828-.252-1.332v-5.676Zm8.513 0h2.916c.944 0 1.66.16 2.148.48.496.32.744.86.744 1.62 0 .312-.044.584-.132.816-.08.224-.196.42-.348.588-.144.16-.324.292-.54.396a2.97 2.97 0 0 1-.696.24c.672.08 1.176.276 1.512.588.344.304.516.768.516 1.392 0 .448-.084.832-.252 1.152-.16.312-.384.568-.672.768a3.191 3.191 0 0 1-1.02.432c-.392.088-.82.132-1.284.132h-2.892v-8.604Zm1.128 1.032v2.64h1.704c.272 0 .52-.028.744-.084.224-.064.416-.156.576-.276.16-.128.284-.284.372-.468.096-.192.144-.42.144-.684 0-.44-.152-.736-.456-.888-.304-.16-.736-.24-1.296-.24h-1.788Zm0 3.66v2.892h1.764c.304 0 .58-.024.828-.072.248-.048.46-.128.636-.24a1.12 1.12 0 0 0 .42-.444c.104-.184.156-.412.156-.684 0-.544-.176-.92-.528-1.128-.344-.216-.892-.324-1.644-.324h-1.632Zm5.478 4.392h4.92v.9h-4.92v-.9Zm9.26-.48h-1.092v-7.248l-2.376 1.824v-1.212l2.556-1.968h.912V62Zm-69.151 6.396h5.256v1.032h-4.128v2.856h3.504v1.02h-3.504V77h-1.128v-8.604Zm8.86 4.92h-.912V77h-1.128v-8.604h1.128v3.9h.84l3.072-3.9h1.272l-3.396 4.296L472.126 77h-1.404l-3-3.684Zm6.079 3.756a.763.763 0 0 1-.564-.216.759.759 0 0 1-.216-.54c0-.224.072-.408.216-.552a.763.763 0 0 1 .564-.216c.224 0 .408.072.552.216a.748.748 0 0 1 .216.552.759.759 0 0 1-.216.54.748.748 0 0 1-.552.216Zm0-4.596a.763.763 0 0 1-.564-.216.759.759 0 0 1-.216-.54c0-.224.072-.408.216-.552a.763.763 0 0 1 .564-.216c.224 0 .408.072.552.216a.748.748 0 0 1 .216.552.759.759 0 0 1-.216.54.748.748 0 0 1-.552.216Zm6.204-4.08V77h-1.128v-8.604h1.128Zm2.001 0h2.892c.576 0 1.112.068 1.608.204.496.136.928.36 1.296.672.368.312.656.724.864 1.236.208.512.312 1.144.312 1.896 0 .76-.108 1.428-.324 2.004a3.949 3.949 0 0 1-.876 1.428 3.615 3.615 0 0 1-1.332.876 4.749 4.749 0 0 1-1.68.288h-2.76v-8.604Zm1.128 1.032v6.552h1.632c.44 0 .844-.068 1.212-.204.368-.136.684-.344.948-.624.264-.288.468-.652.612-1.092.144-.44.216-.964.216-1.572 0-.6-.072-1.096-.216-1.488-.144-.4-.344-.716-.6-.948a2.003 2.003 0 0 0-.9-.48 4.32 4.32 0 0 0-1.14-.144h-1.764Zm6.217 8.052h4.92v.9h-4.92v-.9Zm11.347-4.236h-4.416V77h-1.128v-8.604h1.128v3.828h4.416v-3.828h1.14V77h-1.14v-3.756Zm2.936-4.848h1.14v5.664c0 .696.196 1.212.588 1.548.4.336.944.504 1.632.504.336 0 .644-.04.924-.12.288-.088.536-.216.744-.384a1.76 1.76 0 0 0 .48-.648c.12-.256.18-.556.18-.9v-5.664h1.08v5.628c0 .496-.088.936-.264 1.32-.176.384-.42.708-.732.972a3.09 3.09 0 0 1-1.08.6 4.34 4.34 0 0 1-1.356.204c-.472 0-.912-.064-1.32-.192a3.058 3.058 0 0 1-1.068-.576 2.679 2.679 0 0 1-.696-.948c-.168-.384-.252-.828-.252-1.332v-5.676Zm8.513 0h2.916c.944 0 1.66.16 2.148.48.496.32.744.86.744 1.62 0 .312-.044.584-.132.816-.08.224-.196.42-.348.588-.144.16-.324.292-.54.396a2.97 2.97 0 0 1-.696.24c.672.08 1.176.276 1.512.588.344.304.516.768.516 1.392 0 .448-.084.832-.252 1.152-.16.312-.384.568-.672.768a3.191 3.191 0 0 1-1.02.432c-.392.088-.82.132-1.284.132h-2.892v-8.604Zm1.128 1.032v2.64h1.704c.272 0 .52-.028.744-.084.224-.064.416-.156.576-.276.16-.128.284-.284.372-.468.096-.192.144-.42.144-.684 0-.44-.152-.736-.456-.888-.304-.16-.736-.24-1.296-.24h-1.788Zm0 3.66v2.892h1.764c.304 0 .58-.024.828-.072.248-.048.46-.128.636-.24a1.12 1.12 0 0 0 .42-.444c.104-.184.156-.412.156-.684 0-.544-.176-.92-.528-1.128-.344-.216-.892-.324-1.644-.324h-1.632Zm5.478 4.392h4.92v.9h-4.92v-.9Zm10.868-.48h-5.484v-1.14a68.501 68.501 0 0 0 1.884-1.56c.536-.456.976-.876 1.32-1.26.344-.384.6-.748.768-1.092.168-.352.252-.716.252-1.092 0-.472-.144-.852-.432-1.14-.28-.296-.692-.444-1.236-.444-.456 0-.88.112-1.272.336a4.3 4.3 0 0 0-1.056.852v-1.212a3.647 3.647 0 0 1 1.032-.708c.384-.176.828-.264 1.332-.264a3.6 3.6 0 0 1 1.188.18c.352.12.644.288.876.504.24.216.42.476.54.78.128.304.192.64.192 1.008 0 .464-.092.9-.276 1.308a4.81 4.81 0 0 1-.792 1.224c-.352.408-.788.832-1.308 1.272a51.9 51.9 0 0 1-1.764 1.416h4.236V77Z"/>
    <rect width="104" height="84" x="298" y="8" fill="#fff" stroke="#5282FF" stroke-width="2" rx="9"/>
    <path fill="#000" fill-opacity=".85" d="M339.363 28.352h-4.032V32h-1.452v-8.604h1.452v3.708h4.032v-3.708h1.464V32h-1.464v-3.648Zm3.101-4.956h1.464v5.556c0 .648.18 1.132.54 1.452.368.32.86.48 1.476.48.608 0 1.1-.16 1.476-.48.376-.32.564-.804.564-1.452v-5.556h1.32v5.592c0 .504-.084.952-.252 1.344a2.703 2.703 0 0 1-.708.972 3.112 3.112 0 0 1-1.068.612 4.423 4.423 0 0 1-1.38.204c-.488 0-.944-.064-1.368-.192a3.199 3.199 0 0 1-1.08-.588 2.712 2.712 0 0 1-.72-.96 3.25 3.25 0 0 1-.264-1.344v-5.64Zm8.442 0h2.928c1.024 0 1.804.16 2.34.48.536.32.804.86.804 1.62 0 .312-.044.584-.132.816-.088.224-.216.42-.384.588-.16.16-.356.292-.588.396a3.597 3.597 0 0 1-.768.24c.72.088 1.264.284 1.632.588.368.304.552.768.552 1.392 0 .448-.088.832-.264 1.152-.176.312-.42.568-.732.768-.312.192-.68.336-1.104.432a6.792 6.792 0 0 1-1.38.132h-2.904v-8.604Zm1.452 1.26v2.292h1.548c.48 0 .868-.1 1.164-.3.296-.208.444-.532.444-.972 0-.4-.136-.668-.408-.804-.264-.144-.64-.216-1.128-.216h-1.62Zm0 3.54v2.556h1.596c.272 0 .52-.02.744-.06.224-.048.416-.12.576-.216a1.1 1.1 0 0 0 .372-.396c.088-.168.132-.372.132-.612 0-.472-.156-.8-.468-.984-.304-.192-.796-.288-1.476-.288h-1.476ZM365.139 32h-1.44v-7.02l-2.448 1.824v-1.44l2.64-1.968h1.248V32ZM314.61 53.396h2.748c.976 0 1.732.204 2.268.612.544.4.816 1.028.816 1.884 0 .488-.08.908-.24 1.26a2.22 2.22 0 0 1-.648.852c-.28.224-.616.388-1.008.492a4.91 4.91 0 0 1-1.284.156h-1.524V62h-1.128v-8.604Zm1.128 1.032v3.204h1.524c.304 0 .58-.032.828-.096s.46-.164.636-.3a1.3 1.3 0 0 0 .42-.528c.104-.224.156-.492.156-.804 0-.52-.168-.896-.504-1.128-.336-.232-.816-.348-1.44-.348h-1.62Zm8.236 3.888h-.912V62h-1.128v-8.604h1.128v3.9h.84l3.072-3.9h1.272l-3.396 4.296L328.378 62h-1.404l-3-3.684Zm6.079 3.756a.763.763 0 0 1-.564-.216.759.759 0 0 1-.216-.54c0-.224.072-.408.216-.552a.763.763 0 0 1 .564-.216c.224 0 .408.072.552.216a.748.748 0 0 1 .216.552.759.759 0 0 1-.216.54.748.748 0 0 1-.552.216Zm0-4.596a.763.763 0 0 1-.564-.216.759.759 0 0 1-.216-.54c0-.224.072-.408.216-.552a.763.763 0 0 1 .564-.216c.224 0 .408.072.552.216a.748.748 0 0 1 .216.552.759.759 0 0 1-.216.54.748.748 0 0 1-.552.216Zm6.204-4.08V62h-1.128v-8.604h1.128Zm2.001 0h2.892c.576 0 1.112.068 1.608.204.496.136.928.36 1.296.672.368.312.656.724.864 1.236.208.512.312 1.144.312 1.896 0 .76-.108 1.428-.324 2.004a3.949 3.949 0 0 1-.876 1.428 3.615 3.615 0 0 1-1.332.876 4.749 4.749 0 0 1-1.68.288h-2.76v-8.604Zm1.128 1.032v6.552h1.632c.44 0 .844-.068 1.212-.204.368-.136.684-.344.948-.624.264-.288.468-.652.612-1.092.144-.44.216-.964.216-1.572 0-.6-.072-1.096-.216-1.488-.144-.4-.344-.716-.6-.948a2.003 2.003 0 0 0-.9-.48 4.32 4.32 0 0 0-1.14-.144h-1.764Zm6.217 8.052h4.92v.9h-4.92v-.9Zm11.347-4.236h-4.416V62h-1.128v-8.604h1.128v3.828h4.416v-3.828h1.14V62h-1.14v-3.756Zm2.936-4.848h1.14v5.664c0 .696.196 1.212.588 1.548.4.336.944.504 1.632.504.336 0 .644-.04.924-.12.288-.088.536-.216.744-.384a1.76 1.76 0 0 0 .48-.648c.12-.256.18-.556.18-.9v-5.664h1.08v5.628c0 .496-.088.936-.264 1.32-.176.384-.42.708-.732.972a3.09 3.09 0 0 1-1.08.6 4.34 4.34 0 0 1-1.356.204c-.472 0-.912-.064-1.32-.192a3.058 3.058 0 0 1-1.068-.576 2.679 2.679 0 0 1-.696-.948c-.168-.384-.252-.828-.252-1.332v-5.676Zm8.513 0h2.916c.944 0 1.66.16 2.148.48.496.32.744.86.744 1.62 0 .312-.044.584-.132.816-.08.224-.196.42-.348.588-.144.16-.324.292-.54.396a2.97 2.97 0 0 1-.696.24c.672.08 1.176.276 1.512.588.344.304.516.768.516 1.392 0 .448-.084.832-.252 1.152-.16.312-.384.568-.672.768a3.191 3.191 0 0 1-1.02.432c-.392.088-.82.132-1.284.132h-2.892v-8.604Zm1.128 1.032v2.64h1.704c.272 0 .52-.028.744-.084.224-.064.416-.156.576-.276.16-.128.284-.284.372-.468.096-.192.144-.42.144-.684 0-.44-.152-.736-.456-.888-.304-.16-.736-.24-1.296-.24h-1.788Zm0 3.66v2.892h1.764c.304 0 .58-.024.828-.072.248-.048.46-.128.636-.24a1.12 1.12 0 0 0 .42-.444c.104-.184.156-.412.156-.684 0-.544-.176-.92-.528-1.128-.344-.216-.892-.324-1.644-.324h-1.632Zm5.478 4.392h4.92v.9h-4.92v-.9Zm9.26-.48h-1.092v-7.248l-2.376 1.824v-1.212l2.556-1.968h.912V62Z"/>
    <rect width="104" height="84" x="10" y="8" fill="#fff" stroke="#5282FF" stroke-width="2" rx="9"/>
    <path fill="#000" fill-opacity=".85" d="M49.59 27.744h-4.704V32h-1.694V21.962h1.694v4.326h4.704v-4.326h1.708V32H49.59v-4.256Zm3.618-5.782h1.708v6.482c0 .756.21 1.32.63 1.694.43.373 1.004.56 1.722.56.71 0 1.283-.187 1.722-.56.439-.373.658-.938.658-1.694v-6.482h1.54v6.524c0 .588-.098 1.11-.294 1.568a3.154 3.154 0 0 1-.826 1.134c-.345.308-.76.546-1.246.714a5.159 5.159 0 0 1-1.61.238c-.57 0-1.101-.075-1.596-.224a3.73 3.73 0 0 1-1.26-.686 3.163 3.163 0 0 1-.84-1.12c-.205-.457-.308-.98-.308-1.568v-6.58Zm9.85 0h3.416c1.194 0 2.104.187 2.73.56.625.373.938 1.003.938 1.89 0 .364-.052.681-.154.952-.103.261-.252.49-.448.686a2.27 2.27 0 0 1-.687.462c-.27.121-.569.215-.895.28.84.103 1.474.331 1.904.686.429.355.644.896.644 1.624 0 .523-.103.97-.308 1.344-.206.364-.49.663-.854.896a4.218 4.218 0 0 1-1.288.504 7.921 7.921 0 0 1-1.61.154h-3.389V21.962Zm1.693 1.47v2.674h1.806c.56 0 1.013-.117 1.358-.35.346-.243.518-.62.518-1.134 0-.467-.158-.78-.476-.938-.307-.168-.746-.252-1.316-.252h-1.89Zm0 4.13v2.982h1.862c.318 0 .607-.023.868-.07.262-.056.486-.14.672-.252a1.27 1.27 0 0 0 .434-.462c.103-.196.154-.434.154-.714 0-.55-.181-.933-.546-1.148-.354-.224-.928-.336-1.721-.336H64.75Zm16.605 1.554a2.9 2.9 0 0 1-.265 1.26 2.85 2.85 0 0 1-.756.952 3.345 3.345 0 0 1-1.162.602 4.96 4.96 0 0 1-1.484.21c-.672 0-1.242-.08-1.708-.238-.467-.168-.85-.364-1.148-.588v-1.568a5.22 5.22 0 0 0 1.12.7c.457.215 1.003.322 1.638.322.662 0 1.166-.15 1.512-.448.354-.299.532-.71.532-1.232 0-.532-.164-.929-.49-1.19-.327-.27-.836-.406-1.526-.406h-1.233v-1.414h1.303c.476 0 .863-.126 1.162-.378.308-.261.462-.63.462-1.106 0-.43-.145-.765-.434-1.008-.29-.252-.705-.378-1.247-.378-.569 0-1.054.103-1.456.308a6.399 6.399 0 0 0-1.12.728V22.69a4.856 4.856 0 0 1 1.135-.616c.438-.168.98-.252 1.623-.252.486 0 .925.065 1.317.196.391.13.723.313.993.546.271.233.481.513.63.84.15.327.224.686.224 1.078 0 .327-.055.616-.167.868a2.27 2.27 0 0 1-.42.672 2.33 2.33 0 0 1-.617.462 2.68 2.68 0 0 1-.713.238c.307.037.597.121.867.252.28.121.523.285.728.49.215.196.383.434.504.714.131.28.197.593.197.938ZM20.711 51.962h3.206c1.139 0 2.02.238 2.646.714.635.467.952 1.2.952 2.198 0 .57-.093 1.06-.28 1.47-.177.401-.43.733-.756.994a3.149 3.149 0 0 1-1.176.574 5.73 5.73 0 0 1-1.498.182h-1.778V62h-1.316V51.962Zm1.316 1.204v3.738h1.778c.355 0 .677-.037.966-.112.29-.075.537-.191.742-.35.215-.159.378-.364.49-.616.122-.261.182-.574.182-.938 0-.607-.196-1.045-.588-1.316-.392-.27-.952-.406-1.68-.406h-1.89Zm9.61 4.536h-1.065V62h-1.316V51.962h1.316v4.55h.98l3.584-4.55h1.484l-3.962 5.012L36.774 62h-1.638l-3.5-4.298Zm7.092 4.382c-.27 0-.49-.084-.658-.252a.885.885 0 0 1-.252-.63c0-.261.084-.476.252-.644.168-.168.387-.252.658-.252.261 0 .476.084.644.252a.872.872 0 0 1 .252.644.885.885 0 0 1-.252.63.872.872 0 0 1-.644.252Zm0-5.362c-.27 0-.49-.084-.658-.252a.885.885 0 0 1-.252-.63c0-.261.084-.476.252-.644.168-.168.387-.252.658-.252.261 0 .476.084.644.252a.872.872 0 0 1 .252.644.885.885 0 0 1-.252.63.872.872 0 0 1-.644.252Zm7.238-4.76V62H44.65V51.962h1.316Zm2.334 0h3.374c.672 0 1.297.08 1.876.238.579.159 1.083.42 1.512.784.43.364.765.845 1.008 1.442s.364 1.335.364 2.212c0 .887-.126 1.666-.378 2.338-.243.663-.583 1.218-1.022 1.666-.43.448-.947.789-1.554 1.022a5.54 5.54 0 0 1-1.96.336h-3.22V51.962Zm1.316 1.204v7.644h1.904c.513 0 .985-.08 1.414-.238.43-.159.798-.401 1.106-.728.308-.336.546-.76.714-1.274.168-.513.252-1.125.252-1.834 0-.7-.084-1.279-.252-1.736-.168-.467-.401-.835-.7-1.106-.29-.27-.64-.457-1.05-.56a5.04 5.04 0 0 0-1.33-.168h-2.058Zm7.253 9.394h5.74v1.05h-5.74v-1.05Zm13.239-4.942h-5.152V62H63.64V51.962h1.316v4.466h5.152v-4.466h1.33V62h-1.33v-4.382Zm3.425-5.656h1.33v6.608c0 .812.228 1.414.686 1.806.466.392 1.101.588 1.904.588a3.93 3.93 0 0 0 1.078-.14 2.56 2.56 0 0 0 .868-.448 2.06 2.06 0 0 0 .56-.756c.14-.299.21-.649.21-1.05v-6.608h1.26v6.566c0 .579-.103 1.092-.308 1.54-.206.448-.49.826-.854 1.134a3.606 3.606 0 0 1-1.26.7 5.063 5.063 0 0 1-1.582.238 5.12 5.12 0 0 1-1.54-.224 3.567 3.567 0 0 1-1.246-.672 3.126 3.126 0 0 1-.812-1.106c-.196-.448-.294-.966-.294-1.554v-6.622Zm9.931 0h3.402c1.101 0 1.937.187 2.506.56.579.373.868 1.003.868 1.89 0 .364-.051.681-.154.952a2.03 2.03 0 0 1-.406.686 2.01 2.01 0 0 1-.63.462 3.466 3.466 0 0 1-.812.28c.784.093 1.372.322 1.764.686.401.355.602.896.602 1.624 0 .523-.098.97-.294 1.344a2.418 2.418 0 0 1-.784.896 3.723 3.723 0 0 1-1.19.504A6.838 6.838 0 0 1 86.84 62h-3.374V51.962Zm1.316 1.204v3.08h1.988c.317 0 .607-.033.868-.098.261-.075.485-.182.672-.322.187-.15.331-.331.434-.546.112-.224.168-.49.168-.798 0-.513-.177-.859-.532-1.036-.355-.187-.859-.28-1.512-.28h-2.086Zm0 4.27v3.374h2.058c.355 0 .677-.028.966-.084.29-.056.537-.15.742-.28.215-.13.378-.303.49-.518.121-.215.182-.48.182-.798 0-.635-.205-1.073-.616-1.316-.401-.252-1.04-.378-1.918-.378h-1.904Zm6.391 5.124h5.74v1.05h-5.74v-1.05Zm12.764-3.458c0 .467-.089.887-.266 1.26a2.896 2.896 0 0 1-.742.966 3.39 3.39 0 0 1-1.134.602c-.439.14-.924.21-1.456.21-.654 0-1.218-.08-1.694-.238-.476-.159-.864-.364-1.162-.616v-1.4c.298.299.69.56 1.176.784.485.215 1.05.322 1.694.322.69 0 1.232-.163 1.624-.49.401-.327.602-.784.602-1.372 0-.56-.178-.994-.532-1.302-.355-.317-.91-.476-1.666-.476h-1.288v-1.19h1.344c.532 0 .961-.14 1.288-.42.326-.28.49-.686.49-1.218 0-.476-.154-.85-.462-1.12-.308-.28-.752-.42-1.33-.42-.598 0-1.111.112-1.54.336a6.2 6.2 0 0 0-1.148.784v-1.372c.326-.27.714-.49 1.162-.658.448-.168.96-.252 1.54-.252.476 0 .905.065 1.288.196.382.121.704.299.966.532.27.233.476.513.616.84.14.317.21.672.21 1.064 0 .317-.047.602-.14.854a2.034 2.034 0 0 1-.392.658 2.315 2.315 0 0 1-.56.476c-.215.121-.444.21-.686.266.289.047.564.135.826.266.27.13.508.299.714.504.205.196.364.434.476.714.121.27.182.574.182.91Z"/>
    <rect width="104" height="84" x="586" y="8" fill="#fff" stroke="#5282FF" stroke-width="2" rx="9"/>
    <path fill="#000" fill-opacity=".85" d="M625.59 27.744h-4.704V32h-1.694V21.962h1.694v4.326h4.704v-4.326h1.708V32h-1.708v-4.256Zm3.618-5.782h1.708v6.482c0 .756.21 1.32.63 1.694.429.373 1.003.56 1.722.56.709 0 1.283-.187 1.722-.56.439-.373.658-.938.658-1.694v-6.482h1.54v6.524c0 .588-.098 1.11-.294 1.568a3.15 3.15 0 0 1-.826 1.134 3.63 3.63 0 0 1-1.246.714 5.157 5.157 0 0 1-1.61.238 5.501 5.501 0 0 1-1.596-.224 3.739 3.739 0 0 1-1.26-.686 3.156 3.156 0 0 1-.84-1.12c-.205-.457-.308-.98-.308-1.568v-6.58Zm9.849 0h3.416c1.195 0 2.105.187 2.73.56.626.373.938 1.003.938 1.89 0 .364-.051.681-.154.952a1.98 1.98 0 0 1-.448.686c-.186.187-.415.34-.686.462-.27.121-.569.215-.896.28.84.103 1.475.331 1.904.686.43.355.644.896.644 1.624 0 .523-.102.97-.308 1.344-.205.364-.49.663-.854.896a4.215 4.215 0 0 1-1.288.504 7.914 7.914 0 0 1-1.61.154h-3.388V21.962Zm1.694 1.47v2.674h1.806c.56 0 1.013-.117 1.358-.35.346-.243.518-.62.518-1.134 0-.467-.158-.78-.476-.938-.308-.168-.746-.252-1.316-.252h-1.89Zm0 4.13v2.982h1.862c.318 0 .607-.023.868-.07.262-.056.486-.14.672-.252a1.27 1.27 0 0 0 .434-.462c.103-.196.154-.434.154-.714 0-.55-.182-.933-.546-1.148-.354-.224-.928-.336-1.722-.336h-1.722ZM657.356 32h-6.482v-1.61a70.318 70.318 0 0 0 2.156-1.736 14.206 14.206 0 0 0 1.456-1.386c.383-.43.663-.83.84-1.204a2.79 2.79 0 0 0 .266-1.19c0-.504-.154-.905-.462-1.204-.298-.299-.728-.448-1.288-.448-.504 0-.984.121-1.442.364a5.53 5.53 0 0 0-1.26.91v-1.61a4.898 4.898 0 0 1 1.246-.77c.458-.196 1.004-.294 1.638-.294.504 0 .962.07 1.372.21.411.14.756.34 1.036.602a2.4 2.4 0 0 1 .658.938c.159.364.238.775.238 1.232 0 .504-.098.98-.294 1.428-.196.439-.49.882-.882 1.33-.382.448-.868.915-1.456 1.4a48.036 48.036 0 0 1-2.044 1.61h4.704V32Zm-60.645 19.962h3.206c1.139 0 2.021.238 2.646.714.635.467.952 1.2.952 2.198 0 .57-.093 1.06-.28 1.47a2.584 2.584 0 0 1-.756.994 3.153 3.153 0 0 1-1.176.574 5.728 5.728 0 0 1-1.498.182h-1.778V62h-1.316V51.962Zm1.316 1.204v3.738h1.778c.355 0 .677-.037.966-.112.289-.075.537-.191.742-.35.215-.159.378-.364.49-.616.121-.261.182-.574.182-.938 0-.607-.196-1.045-.588-1.316-.392-.27-.952-.406-1.68-.406h-1.89Zm9.609 4.536h-1.064V62h-1.316V51.962h1.316v4.55h.98l3.584-4.55h1.484l-3.962 5.012L612.774 62h-1.638l-3.5-4.298Zm7.093 4.382c-.271 0-.49-.084-.658-.252a.885.885 0 0 1-.252-.63c0-.261.084-.476.252-.644.168-.168.387-.252.658-.252.261 0 .476.084.644.252a.872.872 0 0 1 .252.644.885.885 0 0 1-.252.63.873.873 0 0 1-.644.252Zm0-5.362c-.271 0-.49-.084-.658-.252a.885.885 0 0 1-.252-.63c0-.261.084-.476.252-.644.168-.168.387-.252.658-.252.261 0 .476.084.644.252a.872.872 0 0 1 .252.644.885.885 0 0 1-.252.63.873.873 0 0 1-.644.252Zm7.238-4.76V62h-1.316V51.962h1.316Zm2.334 0h3.374c.672 0 1.297.08 1.876.238.579.159 1.083.42 1.512.784.429.364.765.845 1.008 1.442s.364 1.335.364 2.212c0 .887-.126 1.666-.378 2.338-.243.663-.583 1.218-1.022 1.666a4.211 4.211 0 0 1-1.554 1.022 5.54 5.54 0 0 1-1.96.336h-3.22V51.962Zm1.316 1.204v7.644h1.904c.513 0 .985-.08 1.414-.238a2.864 2.864 0 0 0 1.106-.728c.308-.336.546-.76.714-1.274.168-.513.252-1.125.252-1.834 0-.7-.084-1.279-.252-1.736-.168-.467-.401-.835-.7-1.106a2.333 2.333 0 0 0-1.05-.56 5.041 5.041 0 0 0-1.33-.168h-2.058Zm7.253 9.394h5.74v1.05h-5.74v-1.05Zm13.239-4.942h-5.152V62h-1.316V51.962h1.316v4.466h5.152v-4.466h1.33V62h-1.33v-4.382Zm3.425-5.656h1.33v6.608c0 .812.228 1.414.686 1.806.466.392 1.101.588 1.904.588a3.93 3.93 0 0 0 1.078-.14 2.56 2.56 0 0 0 .868-.448 2.06 2.06 0 0 0 .56-.756c.14-.299.21-.649.21-1.05v-6.608h1.26v6.566c0 .579-.103 1.092-.308 1.54-.206.448-.49.826-.854 1.134a3.611 3.611 0 0 1-1.26.7 5.068 5.068 0 0 1-1.582.238 5.118 5.118 0 0 1-1.54-.224 3.561 3.561 0 0 1-1.246-.672 3.117 3.117 0 0 1-.812-1.106c-.196-.448-.294-.966-.294-1.554v-6.622Zm9.931 0h3.402c1.101 0 1.937.187 2.506.56.579.373.868 1.003.868 1.89 0 .364-.051.681-.154.952a2.03 2.03 0 0 1-.406.686 2.01 2.01 0 0 1-.63.462 3.464 3.464 0 0 1-.812.28c.784.093 1.372.322 1.764.686.401.355.602.896.602 1.624 0 .523-.098.97-.294 1.344a2.421 2.421 0 0 1-.784.896 3.726 3.726 0 0 1-1.19.504 6.837 6.837 0 0 1-1.498.154h-3.374V51.962Zm1.316 1.204v3.08h1.988c.317 0 .607-.033.868-.098.261-.075.485-.182.672-.322.187-.15.331-.331.434-.546.112-.224.168-.49.168-.798 0-.513-.177-.859-.532-1.036-.355-.187-.859-.28-1.512-.28h-2.086Zm0 4.27v3.374h2.058c.355 0 .677-.028.966-.084a2.12 2.12 0 0 0 .742-.28c.215-.13.378-.303.49-.518.121-.215.182-.48.182-.798 0-.635-.205-1.073-.616-1.316-.401-.252-1.041-.378-1.918-.378h-1.904Zm6.391 5.124h5.741v1.05h-5.741v-1.05Zm12.68-.56h-6.398v-1.33a80.363 80.363 0 0 0 2.198-1.82 16.13 16.13 0 0 0 1.54-1.47c.401-.448.7-.873.896-1.274.196-.41.294-.835.294-1.274 0-.55-.168-.994-.504-1.33-.327-.345-.808-.518-1.442-.518a2.94 2.94 0 0 0-1.484.392 5.004 5.004 0 0 0-1.232.994v-1.414c.354-.345.756-.62 1.204-.826.448-.205.966-.308 1.554-.308.522 0 .984.07 1.386.21.41.14.751.336 1.022.588.28.252.49.555.63.91.149.355.224.747.224 1.176a3.68 3.68 0 0 1-.322 1.526 5.65 5.65 0 0 1-.924 1.428c-.411.476-.92.97-1.526 1.484a61.861 61.861 0 0 1-2.058 1.652h4.942V62Z"/>
</svg>
