<svg xmlns="http://www.w3.org/2000/svg" width="700" height="400" fill="none" viewBox="0 0 700 400">
    <g filter="url(#filter0_d_2_798)">
        <rect width="482" height="334" x="184" y="33" fill="#fff" rx="10"/>
    </g>
    <rect width="220" height="300" x="280" y="50" fill="#fff" stroke="#5282FF" stroke-width="2" rx="9"/>
    <rect width="50" height="268" x="380" y="66" fill="#fff" stroke="#FFDB4D" stroke-width="2" rx="9"/>
    <g clip-path="url(#clip0_2_798)">
        <path fill="#000" fill-rule="evenodd" d="M405 136.772c0-2.793 2.789-4.726 5.404-3.745l6.703 2.513a6 6 0 0 1 3.893 5.618v8.07c0 2.793-2.789 4.726-5.404 3.745L413 152v2.228c0 2.793-2.789 4.726-5.404 3.745L405 157v2.228c0 2.793-2.789 4.726-5.404 3.745l-6.703-2.513a6 6 0 0 1-3.893-5.618v-8.07c0-2.793 2.789-4.726 5.404-3.745L397 144v-2.228c0-2.793 2.789-4.726 5.404-3.745L405 139v-2.228Zm-6 7.978 2.107.79a6 6 0 0 1 3.893 5.618v3.706l3.298 1.237a2 2 0 0 0 2.702-1.873v-8.07a3.999 3.999 0 0 0-2.596-3.745l-6.702-2.514a2 2 0 0 0-2.702 1.873v2.978Zm4 11.5v-5.092a3.999 3.999 0 0 0-2.596-3.745l-6.702-2.514a2 2 0 0 0-2.702 1.873v8.07a3.999 3.999 0 0 0 2.596 3.745l6.702 2.514a2 2 0 0 0 2.702-1.873v-2.978Zm13.298-5.149L413 149.864v-3.706a6 6 0 0 0-3.893-5.618l-2.107-.79v-2.978a2 2 0 0 1 2.702-1.873l6.702 2.514a3.999 3.999 0 0 1 2.596 3.745v8.07a2 2 0 0 1-2.702 1.873Z" clip-rule="evenodd"/>
    </g>
    <g clip-path="url(#clip1_2_798)">
        <path fill="#000" fill-rule="evenodd" d="M405 188.772c0-2.793 2.789-4.726 5.404-3.745l6.703 2.513a6 6 0 0 1 3.893 5.618v8.07c0 2.793-2.789 4.726-5.404 3.745L413 204v2.228c0 2.793-2.789 4.726-5.404 3.745L405 209v2.228c0 2.793-2.789 4.726-5.404 3.745l-6.703-2.513a6 6 0 0 1-3.893-5.618v-8.07c0-2.793 2.789-4.726 5.404-3.745L397 196v-2.228c0-2.793 2.789-4.726 5.404-3.745L405 191v-2.228Zm-6 7.978 2.107.79a6 6 0 0 1 3.893 5.618v3.706l3.298 1.237a2 2 0 0 0 2.702-1.873v-8.07a3.999 3.999 0 0 0-2.596-3.745l-6.702-2.514a2 2 0 0 0-2.702 1.873v2.978Zm4 11.5v-5.092a3.999 3.999 0 0 0-2.596-3.745l-6.702-2.514a2 2 0 0 0-2.702 1.873v8.07a3.999 3.999 0 0 0 2.596 3.745l6.702 2.514a2 2 0 0 0 2.702-1.873v-2.978Zm13.298-5.149L413 201.864v-3.706a6 6 0 0 0-3.893-5.618l-2.107-.79v-2.978a2 2 0 0 1 2.702-1.873l6.702 2.514a3.999 3.999 0 0 1 2.596 3.745v8.07a2 2 0 0 1-2.702 1.873Z" clip-rule="evenodd"/>
    </g>
    <g clip-path="url(#clip2_2_798)">
        <path fill="#5282FF" fill-rule="evenodd" d="M405 240.772c0-2.793 2.789-4.726 5.404-3.745l6.703 2.513a6 6 0 0 1 3.893 5.618v8.07c0 2.793-2.789 4.726-5.404 3.745L413 256v2.228c0 2.793-2.789 4.726-5.404 3.745L405 261v2.228c0 2.793-2.789 4.726-5.404 3.745l-6.703-2.513a6 6 0 0 1-3.893-5.618v-8.07c0-2.793 2.789-4.726 5.404-3.745L397 248v-2.228c0-2.793 2.789-4.726 5.404-3.745L405 243v-2.228Zm-6 7.978 2.107.79a6 6 0 0 1 3.893 5.618v3.706l3.298 1.237a2 2 0 0 0 2.702-1.873v-8.07a3.999 3.999 0 0 0-2.596-3.745l-6.702-2.514a2 2 0 0 0-2.702 1.873v2.978Zm4 11.5v-5.092a3.999 3.999 0 0 0-2.596-3.745l-6.702-2.514a2 2 0 0 0-2.702 1.873v8.07a3.999 3.999 0 0 0 2.596 3.745l6.702 2.514a2 2 0 0 0 2.702-1.873v-2.978Zm13.298-5.149L413 253.864v-3.706a6 6 0 0 0-3.893-5.618l-2.107-.79v-2.978a2 2 0 0 1 2.702-1.873l6.702 2.514a3.999 3.999 0 0 1 2.596 3.745v8.07a2 2 0 0 1-2.702 1.873Z" clip-rule="evenodd"/>
    </g>
    <g clip-path="url(#clip3_2_798)">
        <path fill="#5282FF" fill-rule="evenodd" d="M405 292.772c0-2.793 2.789-4.726 5.404-3.745l6.703 2.513a6 6 0 0 1 3.893 5.618v8.07c0 2.793-2.789 4.726-5.404 3.745L413 308v2.228c0 2.793-2.789 4.726-5.404 3.745L405 313v2.228c0 2.793-2.789 4.726-5.404 3.745l-6.703-2.513a6 6 0 0 1-3.893-5.618v-8.07c0-2.793 2.789-4.726 5.404-3.745L397 300v-2.228c0-2.793 2.789-4.726 5.404-3.745L405 295v-2.228Zm-6 7.978 2.107.79a6 6 0 0 1 3.893 5.618v3.706l3.298 1.237a2 2 0 0 0 2.702-1.873v-8.07a3.999 3.999 0 0 0-2.596-3.745l-6.702-2.514a2 2 0 0 0-2.702 1.873v2.978Zm4 11.5v-5.092a3.999 3.999 0 0 0-2.596-3.745l-6.702-2.514a2 2 0 0 0-2.702 1.873v8.07a3.999 3.999 0 0 0 2.596 3.745l6.702 2.514a2 2 0 0 0 2.702-1.873v-2.978Zm13.298-5.149L413 305.864v-3.706a6 6 0 0 0-3.893-5.618l-2.107-.79v-2.978a2 2 0 0 1 2.702-1.873l6.702 2.514a3.999 3.999 0 0 1 2.596 3.745v8.07a2 2 0 0 1-2.702 1.873Z" clip-rule="evenodd"/>
    </g>
    <path fill="#000" fill-rule="evenodd" d="M412 85h-14a4 4 0 0 0-4 4v11.4l3.217-2.34a3 3 0 0 1 3.565.026l2.176 1.633 5.04-4.32a3 3 0 0 1 3.988.073L416 99.178V89a4 4 0 0 0-4-4Zm4 16.866a.97.97 0 0 1-.178-.131l-5.193-4.793a1 1 0 0 0-1.329-.025l-5.649 4.842-.609.522-.642-.481-2.818-2.114a1 1 0 0 0-1.188-.008l-4.306 3.131a.94.94 0 0 1-.088.057V103a4 4 0 0 0 4 4h14a4 4 0 0 0 4-4v-1.134ZM398 83a6 6 0 0 0-6 6v14a6 6 0 0 0 6 6h14a6 6 0 0 0 6-6V89a6 6 0 0 0-6-6h-14Zm3 10a1 1 0 1 0 0-2 1 1 0 0 0 0 2Zm0 2a3 3 0 1 0 0-6 3 3 0 0 0 0 6Z" clip-rule="evenodd"/>
    <rect width="96" height="128" x="552" y="136" fill="#fff" stroke="#5282FF" stroke-width="2" rx="9"/>
    <path stroke="#D4D4D4" stroke-linecap="round" stroke-linejoin="round" d="m600 192 24 27.711L600 248"/>
    <path stroke="#D4D4D4" d="m600 206 24 13.714L600 234m0-14h24m-24-28-24.5 6 24.5 8"/>
    <path stroke="#D4D4D4" d="m600 220-24.5-22 24.5 36m0 14.5L575.5 198m25 50.5-24.5-6 24.5-8"/>
    <path stroke="#D4D4D4" d="m600.5 220.5-24.5 22 24.5-36m0-14.5L576 242.5m24-50.5-24 21 24-7.5"/>
    <path stroke="#D4D4D4" d="m600 220.5-23.5-7.5 23.5 22m0 13.5L576 213m24 35.5-24-21 24 7.5"/>
    <path stroke="#D4D4D4" d="m600 220-23.5 7.5 23.5-22m0-13.5-24 35.5"/>
    <path fill="#FFDB4D" d="M605 220a5 5 0 1 1-10.001-.001A5 5 0 0 1 605 220Zm0 28a5 5 0 1 1-10.001-.001A5 5 0 0 1 605 248Zm0-14a5 5 0 1 1-10.001-.001A5 5 0 0 1 605 234Zm0-28a5 5 0 1 1-10.001-.001A5 5 0 0 1 605 206Zm0-14a5 5 0 1 1-10.001-.001A5 5 0 0 1 605 192Z"/>
    <path fill="#D6E1FF" d="M581 227a5 5 0 1 1-10.001-.001A5 5 0 0 1 581 227Zm0 14a5 5 0 1 1-10.001-.001A5 5 0 0 1 581 241Zm0-28a5 5 0 1 1-10.001-.001A5 5 0 0 1 581 213Zm0-14a5 5 0 1 1-10.001-.001A5 5 0 0 1 581 199Z"/>
    <path fill="#5282FF" d="M629 220a5 5 0 1 1-10.001-.001A5 5 0 0 1 629 220Z"/>
    <path fill="#000" fill-opacity=".85" d="M562.451 157.98h.588c.368-.336.64-.824.816-1.464.176-.64.296-1.46.36-2.46.064-1.008.112-2.228.144-3.66h5.484v7.584h1.104v3.06h-1.044l-.12-2.04h-6.18l-.132 2.04h-1.02v-3.06Zm1.896 0h4.356v-6.552h-3.288a42.705 42.705 0 0 1-.156 3.096c-.072.848-.184 1.552-.336 2.112-.144.552-.336 1-.576 1.344Zm10.438 1.14c-.568 0-1.08-.124-1.536-.372a2.784 2.784 0 0 1-1.068-1.104c-.264-.488-.396-1.076-.396-1.764s.132-1.272.396-1.752.62-.844 1.068-1.092a3.083 3.083 0 0 1 1.536-.384c.576 0 1.092.128 1.548.384a2.68 2.68 0 0 1 1.08 1.092c.264.48.396 1.064.396 1.752s-.132 1.276-.396 1.764a2.76 2.76 0 0 1-1.08 1.104 3.187 3.187 0 0 1-1.548.372Zm0-.948c.56 0 1.024-.184 1.392-.552.368-.376.552-.956.552-1.74s-.184-1.36-.552-1.728c-.368-.376-.832-.564-1.392-.564-.552 0-1.012.188-1.38.564-.36.368-.54.944-.54 1.728s.18 1.364.54 1.74c.368.368.828.552 1.38.552Zm6.867.948c-.568 0-1.08-.124-1.536-.372a2.784 2.784 0 0 1-1.068-1.104c-.264-.488-.396-1.076-.396-1.764s.132-1.272.396-1.752.62-.844 1.068-1.092a3.083 3.083 0 0 1 1.536-.384c.576 0 1.092.128 1.548.384a2.68 2.68 0 0 1 1.08 1.092c.264.48.396 1.064.396 1.752s-.132 1.276-.396 1.764a2.76 2.76 0 0 1-1.08 1.104 3.187 3.187 0 0 1-1.548.372Zm0-.948c.56 0 1.024-.184 1.392-.552.368-.376.552-.956.552-1.74s-.184-1.36-.552-1.728c-.368-.376-.832-.564-1.392-.564-.552 0-1.012.188-1.38.564-.36.368-.54.944-.54 1.728s.18 1.364.54 1.74c.368.368.828.552 1.38.552Zm7.132-5.484c.528 0 1 .124 1.416.372.424.248.76.612 1.008 1.092.248.472.372 1.048.372 1.728 0 .688-.132 1.276-.396 1.764a2.76 2.76 0 0 1-1.08 1.104 3.187 3.187 0 0 1-1.548.372c-.584 0-1.104-.132-1.56-.396-.448-.272-.8-.68-1.056-1.224-.256-.544-.384-1.236-.384-2.076 0-.912.052-1.672.156-2.28.112-.608.284-1.104.516-1.488.232-.392.544-.704.936-.936.192-.112.392-.2.6-.264a4.14 4.14 0 0 1 .78-.144c.32-.04.728-.068 1.224-.084.312-.024.576-.064.792-.12a2.57 2.57 0 0 0 .588-.228v.96c-.152.096-.32.172-.504.228-.184.048-.44.088-.768.12-.472.048-.848.08-1.128.096-.272.016-.492.04-.66.072a1.83 1.83 0 0 0-1.284 1.056c-.176.376-.296.936-.36 1.68.416-.936 1.196-1.404 2.34-1.404Zm-.228 5.484c.56 0 1.024-.184 1.392-.552.368-.376.552-.956.552-1.74s-.184-1.36-.552-1.728c-.368-.376-.832-.564-1.392-.564-.552 0-1.012.184-1.38.552-.36.368-.54.936-.54 1.704 0 .8.18 1.388.54 1.764.368.376.828.564 1.38.564Zm4.768 3.072c-.328 0-.6-.044-.816-.132v-1.02c.16.136.42.204.78.204.28 0 .516-.068.708-.204.2-.128.392-.352.576-.672l-2.532-6.648h1.164l1.98 5.256 1.968-5.256h1.02l-2.328 6.156c-.32.824-.676 1.416-1.068 1.776-.392.36-.876.54-1.452.54Zm8.126-5.328c.272 0 .54-.04.804-.12.272-.08.516-.204.732-.372v-2.652h1.056V159h-1.056v-2.736c-.448.352-1.02.528-1.716.528-.704 0-1.244-.176-1.62-.528-.368-.352-.552-.908-.552-1.668v-1.824h1.068v1.836c0 .488.112.828.336 1.02.224.192.54.288.948.288Zm7.078 3.204c-1.04 0-1.836-.284-2.388-.852-.544-.576-.816-1.372-.816-2.388 0-.68.128-1.26.384-1.74s.608-.848 1.056-1.104a2.993 2.993 0 0 1 1.512-.384c.952 0 1.652.316 2.1.948.448.624.592 1.48.432 2.568h-4.392c.088 1.336.824 2.004 2.208 2.004.76 0 1.46-.216 2.1-.648v.948c-.288.2-.624.36-1.008.48-.384.112-.78.168-1.188.168Zm-.276-5.532c-.456 0-.848.14-1.176.42-.328.28-.536.704-.624 1.272h3.348c.024-.536-.1-.952-.372-1.248-.272-.296-.664-.444-1.176-.444Zm5.029-.816v2.568h3.012v-2.568h1.056V159h-1.056v-2.76h-3.012V159h-1.056v-6.228h1.056Zm6.856 0v2.568h3.012v-2.568h1.056V159h-1.056v-2.76h-3.012V159h-1.056v-6.228h1.056Zm7.911.816c-.664 0-1.336.204-2.016.612v-.948a3.804 3.804 0 0 1 1.02-.432 4.142 4.142 0 0 1 1.14-.168c.784 0 1.38.164 1.788.492.408.328.612.828.612 1.5v3.348c0 .136.004.312.012.528.016.208.032.368.048.48h-.96a5.482 5.482 0 0 1-.072-.468 7.173 7.173 0 0 1-.024-.54l-.012-.18a3.359 3.359 0 0 1-.396.6c-.168.2-.392.368-.672.504-.272.136-.612.204-1.02.204-.56 0-1.012-.16-1.356-.48-.344-.32-.516-.772-.516-1.356 0-.68.24-1.18.72-1.5.48-.32 1.156-.48 2.028-.48h1.164v-.516c0-.432-.112-.74-.336-.924-.224-.184-.608-.276-1.152-.276Zm1.488 3.012v-.456h-1.056c-.632 0-1.092.092-1.38.276-.28.184-.42.452-.42.804 0 .28.084.508.252.684.176.176.44.264.792.264.328 0 .608-.064.84-.192.232-.136.42-.296.564-.48.144-.192.248-.372.312-.54.064-.168.096-.288.096-.36Zm2.273 2.4 1.8-2.52c-.424-.12-.756-.316-.996-.588-.24-.272-.36-.64-.36-1.104 0-.472.112-.856.336-1.152.224-.296.532-.512.924-.648.392-.144.84-.216 1.344-.216h2.004V159h-1.056v-2.256h-1.14L633.069 159h-1.26Zm3.048-5.328c-.448 0-.816.084-1.104.252-.288.168-.432.44-.432.816 0 .392.128.676.384.852.264.168.628.252 1.092.252h1.008v-2.172h-.948Zm-54.876 14.1h1.572l1.908 4.176 2.04-4.176h1.464V174h-1.044v-5.004l-2.112 4.308h-.84l-1.992-4.332V174h-.996v-6.228Zm11.263 6.348c-.568 0-1.08-.124-1.536-.372a2.784 2.784 0 0 1-1.068-1.104c-.264-.488-.396-1.076-.396-1.764s.132-1.272.396-1.752.62-.844 1.068-1.092a3.083 3.083 0 0 1 1.536-.384c.576 0 1.092.128 1.548.384a2.68 2.68 0 0 1 1.08 1.092c.264.48.396 1.064.396 1.752s-.132 1.276-.396 1.764a2.76 2.76 0 0 1-1.08 1.104 3.187 3.187 0 0 1-1.548.372Zm0-.948c.56 0 1.024-.184 1.392-.552.368-.376.552-.956.552-1.74s-.184-1.36-.552-1.728c-.368-.376-.832-.564-1.392-.564-.552 0-1.012.188-1.38.564-.36.368-.54.944-.54 1.728s.18 1.364.54 1.74c.368.368.828.552 1.38.552Zm4.397 2.604h-.948V173.1h.588c.256-.256.436-.616.54-1.08.112-.464.18-1.044.204-1.74.024-.704.036-1.54.036-2.508h4.5v5.328h.936v2.676h-.924l-.132-1.776h-4.692l-.108 1.776Zm3.864-7.104h-2.46c-.008 1.136-.048 2.056-.12 2.76-.064.696-.228 1.252-.492 1.668h3.072v-4.428Zm5.736 5.448c-1.04 0-1.836-.284-2.388-.852-.544-.576-.816-1.372-.816-2.388 0-.68.128-1.26.384-1.74s.608-.848 1.056-1.104a2.993 2.993 0 0 1 1.512-.384c.952 0 1.652.316 2.1.948.448.624.592 1.48.432 2.568h-4.392c.088 1.336.824 2.004 2.208 2.004.76 0 1.46-.216 2.1-.648v.948c-.288.2-.624.36-1.008.48-.384.112-.78.168-1.188.168Zm-.276-5.532c-.456 0-.848.14-1.176.42-.328.28-.536.704-.624 1.272h3.348c.024-.536-.1-.952-.372-1.248-.272-.296-.664-.444-1.176-.444Zm3.469 4.38c.48.072.808-.228.984-.9.064-.24.116-.54.156-.9.04-.368.068-.824.084-1.368.016-.552.024-1.228.024-2.028h4.308V174h-1.068v-5.328h-2.244a32.147 32.147 0 0 1-.084 2.292 8.46 8.46 0 0 1-.204 1.428c-.152.6-.384 1.028-.696 1.284-.312.256-.732.368-1.26.336v-1.044Zm8.298-5.196v2.1h1.14c.792 0 1.412.16 1.86.48.448.312.672.824.672 1.536 0 .488-.112.888-.336 1.2a1.99 1.99 0 0 1-.924.696c-.392.144-.84.216-1.344.216h-2.124v-6.228h1.056Zm1.068 5.328c.456 0 .824-.088 1.104-.264.288-.184.432-.48.432-.888 0-.416-.128-.716-.384-.9-.256-.184-.616-.276-1.08-.276h-1.14v2.328h1.068Zm-316.22 31.02a5.828 5.828 0 0 1-1.548-.204c-.488-.136-.868-.316-1.14-.54v-1.08c.752.536 1.636.804 2.652.804.4 0 .764-.048 1.092-.144.328-.096.592-.256.792-.48.2-.232.3-.544.3-.936 0-.544-.176-.924-.528-1.14-.344-.224-.86-.336-1.548-.336h-1.236v-.96h1.212c.6 0 1.056-.128 1.368-.384.312-.264.468-.624.468-1.08 0-.496-.164-.844-.492-1.044-.328-.2-.76-.3-1.296-.3-.96 0-1.844.208-2.652.624v-1.068c.712-.376 1.6-.564 2.664-.564.896 0 1.608.184 2.136.552.528.368.792.944.792 1.728 0 .504-.152.924-.456 1.26-.296.328-.732.556-1.308.684.672.088 1.184.296 1.536.624.352.328.528.788.528 1.38 0 .608-.152 1.104-.456 1.488-.296.384-.696.668-1.2.852a5.07 5.07 0 0 1-1.68.264Zm6.871-5.532c-.664 0-1.336.204-2.016.612v-.948a3.804 3.804 0 0 1 1.02-.432 4.142 4.142 0 0 1 1.14-.168c.784 0 1.38.164 1.788.492.408.328.612.828.612 1.5v3.348c0 .136.004.312.012.528.016.208.032.368.048.48h-.96a5.482 5.482 0 0 1-.072-.468 7.173 7.173 0 0 1-.024-.54l-.012-.18a3.359 3.359 0 0 1-.396.6c-.168.2-.392.368-.672.504-.272.136-.612.204-1.02.204-.56 0-1.012-.16-1.356-.48-.344-.32-.516-.772-.516-1.356 0-.68.24-1.18.72-1.5.48-.32 1.156-.48 2.028-.48h1.164v-.516c0-.432-.112-.74-.336-.924-.224-.184-.608-.276-1.152-.276Zm1.488 3.012v-.456h-1.056c-.632 0-1.092.092-1.38.276-.28.184-.42.452-.42.804 0 .28.084.508.252.684.176.176.44.264.792.264.328 0 .608-.064.84-.192.232-.136.42-.296.564-.48.144-.192.248-.372.312-.54.064-.168.096-.288.096-.36Zm2.716-3.828h1.572l1.908 4.176 2.04-4.176h1.464V204h-1.044v-5.004l-2.112 4.308h-.84l-1.992-4.332V204h-.996v-6.228Zm11.263 6.348c-.568 0-1.08-.124-1.536-.372a2.784 2.784 0 0 1-1.068-1.104c-.264-.488-.396-1.076-.396-1.764s.132-1.272.396-1.752.62-.844 1.068-1.092a3.083 3.083 0 0 1 1.536-.384c.576 0 1.092.128 1.548.384a2.68 2.68 0 0 1 1.08 1.092c.264.48.396 1.064.396 1.752s-.132 1.276-.396 1.764a2.76 2.76 0 0 1-1.08 1.104 3.187 3.187 0 0 1-1.548.372Zm0-.948c.56 0 1.024-.184 1.392-.552.368-.376.552-.956.552-1.74s-.184-1.36-.552-1.728c-.368-.376-.832-.564-1.392-.564-.552 0-1.012.188-1.38.564-.36.368-.54.944-.54 1.728s.18 1.364.54 1.74c.368.368.828.552 1.38.552Zm4.311-5.4h.924l.108 1.212c.2-.4.476-.72.828-.96.36-.248.8-.372 1.32-.372.488 0 .936.12 1.344.36.416.232.752.588 1.008 1.068.256.472.384 1.072.384 1.8s-.132 1.332-.396 1.812c-.256.48-.596.84-1.02 1.08a2.761 2.761 0 0 1-1.368.348c-.472 0-.884-.112-1.236-.336a2.408 2.408 0 0 1-.84-.924v3.264h-1.056v-8.352Zm4.824 3.108c0-.752-.172-1.32-.516-1.704-.344-.392-.788-.588-1.332-.588s-1.004.192-1.38.576c-.368.376-.552.948-.552 1.716 0 .776.184 1.352.552 1.728.376.376.836.564 1.38.564.544 0 .988-.192 1.332-.576.344-.384.516-.956.516-1.716Zm4.928 3.24c-.568 0-1.08-.124-1.536-.372a2.784 2.784 0 0 1-1.068-1.104c-.264-.488-.396-1.076-.396-1.764s.132-1.272.396-1.752.62-.844 1.068-1.092a3.083 3.083 0 0 1 1.536-.384c.576 0 1.092.128 1.548.384a2.68 2.68 0 0 1 1.08 1.092c.264.48.396 1.064.396 1.752s-.132 1.276-.396 1.764a2.76 2.76 0 0 1-1.08 1.104 3.187 3.187 0 0 1-1.548.372Zm0-.948c.56 0 1.024-.184 1.392-.552.368-.376.552-.956.552-1.74s-.184-1.36-.552-1.728c-.368-.376-.832-.564-1.392-.564-.552 0-1.012.188-1.38.564-.36.368-.54.944-.54 1.728s.18 1.364.54 1.74c.368.368.828.552 1.38.552Zm6.064.948c-.392 0-.772-.044-1.14-.132a2.854 2.854 0 0 1-.888-.36v-.948c.256.152.56.272.912.36.352.088.716.132 1.092.132.456 0 .836-.072 1.14-.216.312-.152.468-.408.468-.768 0-.352-.132-.6-.396-.744-.256-.144-.652-.216-1.188-.216h-.828v-.852h.864c.44 0 .776-.08 1.008-.24.232-.16.348-.392.348-.696 0-.32-.14-.54-.42-.66-.272-.128-.604-.192-.996-.192-.704 0-1.332.168-1.884.504v-.948c.24-.16.532-.28.876-.36a4.485 4.485 0 0 1 1.092-.132c.76 0 1.332.144 1.716.432.392.288.588.704.588 1.248 0 .408-.112.732-.336.972-.224.232-.532.388-.924.468.488.064.86.22 1.116.468.256.248.384.564.384.948 0 .464-.124.84-.372 1.128-.24.28-.556.484-.948.612-.392.128-.82.192-1.284.192Zm9.241-.12h-1.284l-2.196-2.652h-.552V204h-1.056v-6.228h1.056v2.676h.6l2.184-2.676h1.2l-2.556 3.072 2.604 3.156Zm3.106-5.412c-.664 0-1.336.204-2.016.612v-.948a3.804 3.804 0 0 1 1.02-.432 4.142 4.142 0 0 1 1.14-.168c.784 0 1.38.164 1.788.492.408.328.612.828.612 1.5v3.348c0 .136.004.312.012.528.016.208.032.368.048.48h-.96a5.482 5.482 0 0 1-.072-.468 7.173 7.173 0 0 1-.024-.54l-.012-.18a3.359 3.359 0 0 1-.396.6c-.168.2-.392.368-.672.504-.272.136-.612.204-1.02.204-.56 0-1.012-.16-1.356-.48-.344-.32-.516-.772-.516-1.356 0-.68.24-1.18.72-1.5.48-.32 1.156-.48 2.028-.48h1.164v-.516c0-.432-.112-.74-.336-.924-.224-.184-.608-.276-1.152-.276Zm1.488 3.012v-.456h-1.056c-.632 0-1.092.092-1.38.276-.28.184-.42.452-.42.804 0 .28.084.508.252.684.176.176.44.264.792.264.328 0 .608-.064.84-.192.232-.136.42-.296.564-.48.144-.192.248-.372.312-.54.064-.168.096-.288.096-.36Zm-56.3-49.48a5.828 5.828 0 0 1-1.548-.204c-.488-.136-.868-.316-1.14-.54v-1.08c.752.536 1.636.804 2.652.804.4 0 .764-.048 1.092-.144.328-.096.592-.256.792-.48.2-.232.3-.544.3-.936 0-.544-.176-.924-.528-1.14-.344-.224-.86-.336-1.548-.336h-1.236v-.96h1.212c.6 0 1.056-.128 1.368-.384.312-.264.468-.624.468-1.08 0-.496-.164-.844-.492-1.044-.328-.2-.76-.3-1.296-.3-.96 0-1.844.208-2.652.624v-1.068c.712-.376 1.6-.564 2.664-.564.896 0 1.608.184 2.136.552.528.368.792.944.792 1.728 0 .504-.152.924-.456 1.26-.296.328-.732.556-1.308.684.672.088 1.184.296 1.536.624.352.328.528.788.528 1.38 0 .608-.152 1.104-.456 1.488-.296.384-.696.668-1.2.852a5.07 5.07 0 0 1-1.68.264Zm6.871-5.532c-.664 0-1.336.204-2.016.612v-.948a3.804 3.804 0 0 1 1.02-.432 4.142 4.142 0 0 1 1.14-.168c.784 0 1.38.164 1.788.492.408.328.612.828.612 1.5v3.348c0 .136.004.312.012.528.016.208.032.368.048.48h-.96a5.482 5.482 0 0 1-.072-.468 7.173 7.173 0 0 1-.024-.54l-.012-.18a3.359 3.359 0 0 1-.396.6c-.168.2-.392.368-.672.504-.272.136-.612.204-1.02.204-.56 0-1.012-.16-1.356-.48-.344-.32-.516-.772-.516-1.356 0-.68.24-1.18.72-1.5.48-.32 1.156-.48 2.028-.48h1.164v-.516c0-.432-.112-.74-.336-.924-.224-.184-.608-.276-1.152-.276Zm1.488 3.012v-.456h-1.056c-.632 0-1.092.092-1.38.276-.28.184-.42.452-.42.804 0 .28.084.508.252.684.176.176.44.264.792.264.328 0 .608-.064.84-.192.232-.136.42-.296.564-.48.144-.192.248-.372.312-.54.064-.168.096-.288.096-.36Zm2.716-3.828h1.572l1.908 4.176 2.04-4.176h1.464V152h-1.044v-5.004l-2.112 4.308h-.84l-1.992-4.332V152h-.996v-6.228Zm11.263 6.348c-.568 0-1.08-.124-1.536-.372a2.784 2.784 0 0 1-1.068-1.104c-.264-.488-.396-1.076-.396-1.764s.132-1.272.396-1.752.62-.844 1.068-1.092a3.083 3.083 0 0 1 1.536-.384c.576 0 1.092.128 1.548.384a2.68 2.68 0 0 1 1.08 1.092c.264.48.396 1.064.396 1.752s-.132 1.276-.396 1.764a2.76 2.76 0 0 1-1.08 1.104 3.187 3.187 0 0 1-1.548.372Zm0-.948c.56 0 1.024-.184 1.392-.552.368-.376.552-.956.552-1.74s-.184-1.36-.552-1.728c-.368-.376-.832-.564-1.392-.564-.552 0-1.012.188-1.38.564-.36.368-.54.944-.54 1.728s.18 1.364.54 1.74c.368.368.828.552 1.38.552Zm4.311-5.4h.924l.108 1.212c.2-.4.476-.72.828-.96.36-.248.8-.372 1.32-.372.488 0 .936.12 1.344.36.416.232.752.588 1.008 1.068.256.472.384 1.072.384 1.8s-.132 1.332-.396 1.812c-.256.48-.596.84-1.02 1.08a2.761 2.761 0 0 1-1.368.348c-.472 0-.884-.112-1.236-.336a2.408 2.408 0 0 1-.84-.924v3.264h-1.056v-8.352Zm4.824 3.108c0-.752-.172-1.32-.516-1.704-.344-.392-.788-.588-1.332-.588s-1.004.192-1.38.576c-.368.376-.552.948-.552 1.716 0 .776.184 1.352.552 1.728.376.376.836.564 1.38.564.544 0 .988-.192 1.332-.576.344-.384.516-.956.516-1.716Zm4.928 3.24c-.568 0-1.08-.124-1.536-.372a2.784 2.784 0 0 1-1.068-1.104c-.264-.488-.396-1.076-.396-1.764s.132-1.272.396-1.752.62-.844 1.068-1.092a3.083 3.083 0 0 1 1.536-.384c.576 0 1.092.128 1.548.384a2.68 2.68 0 0 1 1.08 1.092c.264.48.396 1.064.396 1.752s-.132 1.276-.396 1.764a2.76 2.76 0 0 1-1.08 1.104 3.187 3.187 0 0 1-1.548.372Zm0-.948c.56 0 1.024-.184 1.392-.552.368-.376.552-.956.552-1.74s-.184-1.36-.552-1.728c-.368-.376-.832-.564-1.392-.564-.552 0-1.012.188-1.38.564-.36.368-.54.944-.54 1.728s.18 1.364.54 1.74c.368.368.828.552 1.38.552Zm6.064.948c-.392 0-.772-.044-1.14-.132a2.854 2.854 0 0 1-.888-.36v-.948c.256.152.56.272.912.36.352.088.716.132 1.092.132.456 0 .836-.072 1.14-.216.312-.152.468-.408.468-.768 0-.352-.132-.6-.396-.744-.256-.144-.652-.216-1.188-.216h-.828v-.852h.864c.44 0 .776-.08 1.008-.24.232-.16.348-.392.348-.696 0-.32-.14-.54-.42-.66-.272-.128-.604-.192-.996-.192-.704 0-1.332.168-1.884.504v-.948c.24-.16.532-.28.876-.36a4.485 4.485 0 0 1 1.092-.132c.76 0 1.332.144 1.716.432.392.288.588.704.588 1.248 0 .408-.112.732-.336.972-.224.232-.532.388-.924.468.488.064.86.22 1.116.468.256.248.384.564.384.948 0 .464-.124.84-.372 1.128-.24.28-.556.484-.948.612-.392.128-.82.192-1.284.192Zm9.241-.12h-1.284l-2.196-2.652h-.552V152h-1.056v-6.228h1.056v2.676h.6l2.184-2.676h1.2l-2.556 3.072 2.604 3.156Zm3.106-5.412c-.664 0-1.336.204-2.016.612v-.948a3.804 3.804 0 0 1 1.02-.432 4.142 4.142 0 0 1 1.14-.168c.784 0 1.38.164 1.788.492.408.328.612.828.612 1.5v3.348c0 .136.004.312.012.528.016.208.032.368.048.48h-.96a5.482 5.482 0 0 1-.072-.468 7.173 7.173 0 0 1-.024-.54l-.012-.18a3.359 3.359 0 0 1-.396.6c-.168.2-.392.368-.672.504-.272.136-.612.204-1.02.204-.56 0-1.012-.16-1.356-.48-.344-.32-.516-.772-.516-1.356 0-.68.24-1.18.72-1.5.48-.32 1.156-.48 2.028-.48h1.164v-.516c0-.432-.112-.74-.336-.924-.224-.184-.608-.276-1.152-.276Zm1.488 3.012v-.456h-1.056c-.632 0-1.092.092-1.38.276-.28.184-.42.452-.42.804 0 .28.084.508.252.684.176.176.44.264.792.264.328 0 .608-.064.84-.192.232-.136.42-.296.564-.48.144-.192.248-.372.312-.54.064-.168.096-.288.096-.36Zm-50.667-57.62h.588c.368-.336.64-.824.816-1.464.176-.64.296-1.46.36-2.46.064-1.008.112-2.228.144-3.66h5.484v7.584h1.104v3.06h-1.044l-.12-2.04h-6.18l-.132 2.04h-1.02v-3.06Zm1.896 0h4.356v-6.552h-3.288a42.705 42.705 0 0 1-.156 3.096c-.072.848-.184 1.552-.336 2.112-.144.552-.336 1-.576 1.344Zm10.053-4.392c-.664 0-1.336.204-2.016.612v-.948a3.804 3.804 0 0 1 1.02-.432 4.142 4.142 0 0 1 1.14-.168c.784 0 1.38.164 1.788.492.408.328.612.828.612 1.5v3.348c0 .136.004.312.012.528.016.208.032.368.048.48h-.96a5.482 5.482 0 0 1-.072-.468 7.173 7.173 0 0 1-.024-.54l-.012-.18a3.359 3.359 0 0 1-.396.6c-.168.2-.392.368-.672.504-.272.136-.612.204-1.02.204-.56 0-1.012-.16-1.356-.48-.344-.32-.516-.772-.516-1.356 0-.68.24-1.18.72-1.5.48-.32 1.156-.48 2.028-.48h1.164v-.516c0-.432-.112-.74-.336-.924-.224-.184-.608-.276-1.152-.276Zm1.488 3.012v-.456h-1.056c-.632 0-1.092.092-1.38.276-.28.184-.42.452-.42.804 0 .28.084.508.252.684.176.176.44.264.792.264.328 0 .608-.064.84-.192.232-.136.42-.296.564-.48.144-.192.248-.372.312-.54.064-.168.096-.288.096-.36Zm3.772-3.828v2.568h3.012v-2.568h1.056V93h-1.056v-2.76h-3.012V93h-1.056v-6.228h1.056Zm6.855 0v2.568h3.012v-2.568h1.056V93h-1.056v-2.76h-3.012V93h-1.056v-6.228h1.056Zm6.856 0v2.1h1.08c.792 0 1.412.16 1.86.48.448.312.672.824.672 1.536 0 .496-.112.9-.336 1.212a2.023 2.023 0 0 1-.924.684c-.392.144-.84.216-1.344.216h-2.064v-6.228h1.056Zm5.568 0V93h-1.056v-6.228h1.056Zm-4.56 5.328c.448 0 .816-.088 1.104-.264.288-.184.432-.48.432-.888 0-.416-.128-.716-.384-.9-.256-.184-.616-.276-1.08-.276h-1.08V92.1h1.008Zm8.993 1.02c-1.04 0-1.836-.284-2.388-.852-.544-.576-.816-1.372-.816-2.388 0-.68.128-1.26.384-1.74s.608-.848 1.056-1.104a2.993 2.993 0 0 1 1.512-.384c.952 0 1.652.316 2.1.948.448.624.592 1.48.432 2.568h-4.392c.088 1.336.824 2.004 2.208 2.004.76 0 1.46-.216 2.1-.648v.948c-.288.2-.624.36-1.008.48-.384.112-.78.168-1.188.168Zm-.276-5.532c-.456 0-.848.14-1.176.42-.328.28-.536.704-.624 1.272h3.348c.024-.536-.1-.952-.372-1.248-.272-.296-.664-.444-1.176-.444Zm-55.848 22.188h-.948V107.1h.588c.256-.256.436-.616.54-1.08.112-.464.18-1.044.204-1.74.024-.704.036-1.54.036-2.508h4.5v5.328h.936v2.676h-.924L296.81 108h-4.692l-.108 1.776Zm3.864-7.104h-2.46c-.008 1.136-.048 2.056-.12 2.76-.064.696-.228 1.252-.492 1.668h3.072v-4.428Zm2.59 4.296c.48.072.808-.228.984-.9.064-.24.116-.54.156-.9.04-.368.068-.824.084-1.368.016-.552.024-1.228.024-2.028h4.308V108h-1.068v-5.328h-2.244a32.147 32.147 0 0 1-.084 2.292 8.46 8.46 0 0 1-.204 1.428c-.152.6-.384 1.028-.696 1.284-.312.256-.732.368-1.26.336v-1.044Zm6.833 1.032 1.8-2.52c-.424-.12-.756-.316-.996-.588-.24-.272-.36-.64-.36-1.104 0-.472.112-.856.336-1.152.224-.296.532-.512.924-.648.392-.144.84-.216 1.344-.216h2.004V108h-1.056v-2.256h-1.14L306.557 108h-1.26Zm3.048-5.328c-.448 0-.816.084-1.104.252-.288.168-.432.44-.432.816 0 .392.128.676.384.852.264.168.628.252 1.092.252h1.008v-2.172h-.948Zm8.694 5.448c-.568 0-1.08-.124-1.536-.372a2.784 2.784 0 0 1-1.068-1.104c-.264-.488-.396-1.076-.396-1.764s.132-1.272.396-1.752.62-.844 1.068-1.092a3.083 3.083 0 0 1 1.536-.384c.576 0 1.092.128 1.548.384a2.68 2.68 0 0 1 1.08 1.092c.264.48.396 1.064.396 1.752s-.132 1.276-.396 1.764a2.76 2.76 0 0 1-1.08 1.104 3.187 3.187 0 0 1-1.548.372Zm0-.948c.56 0 1.024-.184 1.392-.552.368-.376.552-.956.552-1.74s-.184-1.36-.552-1.728c-.368-.376-.832-.564-1.392-.564-.552 0-1.012.188-1.38.564-.36.368-.54.944-.54 1.728s.18 1.364.54 1.74c.368.368.828.552 1.38.552Zm7.131-5.484c.528 0 1 .124 1.416.372.424.248.76.612 1.008 1.092.248.472.372 1.048.372 1.728 0 .688-.132 1.276-.396 1.764a2.76 2.76 0 0 1-1.08 1.104 3.187 3.187 0 0 1-1.548.372c-.584 0-1.104-.132-1.56-.396-.448-.272-.8-.68-1.056-1.224-.256-.544-.384-1.236-.384-2.076 0-.912.052-1.672.156-2.28.112-.608.284-1.104.516-1.488.232-.392.544-.704.936-.936.192-.112.392-.2.6-.264a4.14 4.14 0 0 1 .78-.144c.32-.04.728-.068 1.224-.084.312-.024.576-.064.792-.12a2.57 2.57 0 0 0 .588-.228v.96c-.152.096-.32.172-.504.228-.184.048-.44.088-.768.12-.472.048-.848.08-1.128.096-.272.016-.492.04-.66.072a1.83 1.83 0 0 0-1.284 1.056c-.176.376-.296.936-.36 1.68.416-.936 1.196-1.404 2.34-1.404Zm-.228 5.484c.56 0 1.024-.184 1.392-.552.368-.376.552-.956.552-1.74s-.184-1.36-.552-1.728c-.368-.376-.832-.564-1.392-.564-.552 0-1.012.184-1.38.552-.36.368-.54.936-.54 1.704 0 .8.18 1.388.54 1.764.368.376.828.564 1.38.564Zm4.769 3.072c-.328 0-.6-.044-.816-.132v-1.02c.16.136.42.204.78.204.28 0 .516-.068.708-.204.2-.128.392-.352.576-.672l-2.532-6.648h1.164l1.98 5.256 1.968-5.256h1.02l-2.328 6.156c-.32.824-.676 1.416-1.068 1.776-.392.36-.876.54-1.452.54Zm8.125-5.328c.272 0 .54-.04.804-.12.272-.08.516-.204.732-.372v-2.652h1.056V108h-1.056v-2.736c-.448.352-1.02.528-1.716.528-.704 0-1.244-.176-1.62-.528-.368-.352-.552-.908-.552-1.668v-1.824h1.068v1.836c0 .488.112.828.336 1.02.224.192.54.288.948.288Zm7.079 3.204c-1.04 0-1.836-.284-2.388-.852-.544-.576-.816-1.372-.816-2.388 0-.68.128-1.26.384-1.74s.608-.848 1.056-1.104a2.993 2.993 0 0 1 1.512-.384c.952 0 1.652.316 2.1.948.448.624.592 1.48.432 2.568h-4.392c.088 1.336.824 2.004 2.208 2.004.76 0 1.46-.216 2.1-.648v.948c-.288.2-.624.36-1.008.48-.384.112-.78.168-1.188.168Zm-.276-5.532c-.456 0-.848.14-1.176.42-.328.28-.536.704-.624 1.272h3.348c.024-.536-.1-.952-.372-1.248-.272-.296-.664-.444-1.176-.444Zm5.029-.816v2.568h3.012v-2.568h1.056V108h-1.056v-2.76h-3.012V108h-1.056v-6.228h1.056Zm6.856 0v4.764l3.204-4.764h1.068V108h-1.056v-4.752L355.548 108h-1.08v-6.228h1.056Zm5.554 6.228 1.8-2.52c-.424-.12-.756-.316-.996-.588-.24-.272-.36-.64-.36-1.104 0-.472.112-.856.336-1.152.224-.296.532-.512.924-.648.392-.144.84-.216 1.344-.216h2.004V108h-1.056v-2.256h-1.14L362.338 108h-1.26Zm3.048-5.328c-.448 0-.816.084-1.104.252-.288.168-.432.44-.432.816 0 .392.128.676.384.852.264.168.628.252 1.092.252h1.008v-2.172h-.948ZM305.688 256.12a4.252 4.252 0 0 1-2.088-.516 3.781 3.781 0 0 1-1.488-1.5c-.36-.664-.54-1.476-.54-2.436s.18-1.764.54-2.412c.368-.656.864-1.148 1.488-1.476.624-.328 1.32-.492 2.088-.492.784 0 1.484.168 2.1.504a3.564 3.564 0 0 1 1.476 1.464c.36.648.54 1.456.54 2.424 0 .952-.18 1.76-.54 2.424a3.703 3.703 0 0 1-1.476 1.5c-.616.344-1.316.516-2.1.516Zm0-1.02c.552 0 1.048-.112 1.488-.336.44-.224.784-.584 1.032-1.08.256-.504.384-1.164.384-1.98 0-.824-.128-1.484-.384-1.98-.248-.496-.592-.856-1.032-1.08a3.233 3.233 0 0 0-1.488-.336c-.552 0-1.048.112-1.488.336-.432.224-.776.584-1.032 1.08-.256.496-.384 1.156-.384 1.98 0 .816.128 1.476.384 1.98.256.496.6.856 1.032 1.08.44.224.936.336 1.488.336Zm8.299-5.412c.528 0 1 .124 1.416.372.424.248.76.612 1.008 1.092.248.472.372 1.048.372 1.728 0 .688-.132 1.276-.396 1.764a2.76 2.76 0 0 1-1.08 1.104 3.187 3.187 0 0 1-1.548.372c-.584 0-1.104-.132-1.56-.396-.448-.272-.8-.68-1.056-1.224-.256-.544-.384-1.236-.384-2.076 0-.912.052-1.672.156-2.28.112-.608.284-1.104.516-1.488.232-.392.544-.704.936-.936.192-.112.392-.2.6-.264a4.14 4.14 0 0 1 .78-.144c.32-.04.728-.068 1.224-.084.312-.024.576-.064.792-.12a2.57 2.57 0 0 0 .588-.228v.96c-.152.096-.32.172-.504.228-.184.048-.44.088-.768.12-.472.048-.848.08-1.128.096-.272.016-.492.04-.66.072a1.83 1.83 0 0 0-1.284 1.056c-.176.376-.296.936-.36 1.68.416-.936 1.196-1.404 2.34-1.404Zm-.228 5.484c.56 0 1.024-.184 1.392-.552.368-.376.552-.956.552-1.74s-.184-1.36-.552-1.728c-.368-.376-.832-.564-1.392-.564-.552 0-1.012.184-1.38.552-.36.368-.54.936-.54 1.704 0 .8.18 1.388.54 1.764.368.376.828.564 1.38.564Zm4.768 3.072c-.328 0-.6-.044-.816-.132v-1.02c.16.136.42.204.78.204.28 0 .516-.068.708-.204.2-.128.392-.352.576-.672l-2.532-6.648h1.164l1.98 5.256 1.968-5.256h1.02l-2.328 6.156c-.32.824-.676 1.416-1.068 1.776-.392.36-.876.54-1.452.54Zm8.126-5.328c.272 0 .54-.04.804-.12.272-.08.516-.204.732-.372v-2.652h1.056V256h-1.056v-2.736c-.448.352-1.02.528-1.716.528-.704 0-1.244-.176-1.62-.528-.368-.352-.552-.908-.552-1.668v-1.824h1.068v1.836c0 .488.112.828.336 1.02.224.192.54.288.948.288Zm7.078 3.204c-1.04 0-1.836-.284-2.388-.852-.544-.576-.816-1.372-.816-2.388 0-.68.128-1.26.384-1.74s.608-.848 1.056-1.104a2.993 2.993 0 0 1 1.512-.384c.952 0 1.652.316 2.1.948.448.624.592 1.48.432 2.568h-4.392c.088 1.336.824 2.004 2.208 2.004.76 0 1.46-.216 2.1-.648v.948c-.288.2-.624.36-1.008.48-.384.112-.78.168-1.188.168Zm-.276-5.532c-.456 0-.848.14-1.176.42-.328.28-.536.704-.624 1.272h3.348c.024-.536-.1-.952-.372-1.248-.272-.296-.664-.444-1.176-.444Zm5.029-.816v2.568h3.012v-2.568h1.056V256h-1.056v-2.76h-3.012V256h-1.056v-6.228h1.056Zm6.856 0v4.764l3.204-4.764h1.068V256h-1.056v-4.752L345.364 256h-1.08v-6.228h1.056Zm8.759 6.348c-1.04 0-1.836-.284-2.388-.852-.544-.576-.816-1.372-.816-2.388 0-.68.128-1.26.384-1.74s.608-.848 1.056-1.104a2.993 2.993 0 0 1 1.512-.384c.952 0 1.652.316 2.1.948.448.624.592 1.48.432 2.568h-4.392c.088 1.336.824 2.004 2.208 2.004.76 0 1.46-.216 2.1-.648v.948c-.288.2-.624.36-1.008.48-.384.112-.78.168-1.188.168Zm-.276-5.532c-.456 0-.848.14-1.176.42-.328.28-.536.704-.624 1.272h3.348c.024-.536-.1-.952-.372-1.248-.272-.296-.664-.444-1.176-.444Zm-48.135 57.532a4.252 4.252 0 0 1-2.088-.516 3.781 3.781 0 0 1-1.488-1.5c-.36-.664-.54-1.476-.54-2.436s.18-1.764.54-2.412c.368-.656.864-1.148 1.488-1.476.624-.328 1.32-.492 2.088-.492.784 0 1.484.168 2.1.504a3.564 3.564 0 0 1 1.476 1.464c.36.648.54 1.456.54 2.424 0 .952-.18 1.76-.54 2.424a3.703 3.703 0 0 1-1.476 1.5c-.616.344-1.316.516-2.1.516Zm0-1.02c.552 0 1.048-.112 1.488-.336.44-.224.784-.584 1.032-1.08.256-.504.384-1.164.384-1.98 0-.824-.128-1.484-.384-1.98-.248-.496-.592-.856-1.032-1.08a3.233 3.233 0 0 0-1.488-.336c-.552 0-1.048.112-1.488.336-.432.224-.776.584-1.032 1.08-.256.496-.384 1.156-.384 1.98 0 .816.128 1.476.384 1.98.256.496.6.856 1.032 1.08.44.224.936.336 1.488.336Zm8.299-5.412c.528 0 1 .124 1.416.372.424.248.76.612 1.008 1.092.248.472.372 1.048.372 1.728 0 .688-.132 1.276-.396 1.764a2.76 2.76 0 0 1-1.08 1.104 3.187 3.187 0 0 1-1.548.372c-.584 0-1.104-.132-1.56-.396-.448-.272-.8-.68-1.056-1.224-.256-.544-.384-1.236-.384-2.076 0-.912.052-1.672.156-2.28.112-.608.284-1.104.516-1.488.232-.392.544-.704.936-.936.192-.112.392-.2.6-.264a4.14 4.14 0 0 1 .78-.144c.32-.04.728-.068 1.224-.084.312-.024.576-.064.792-.12a2.57 2.57 0 0 0 .588-.228v.96c-.152.096-.32.172-.504.228-.184.048-.44.088-.768.12-.472.048-.848.08-1.128.096-.272.016-.492.04-.66.072a1.83 1.83 0 0 0-1.284 1.056c-.176.376-.296.936-.36 1.68.416-.936 1.196-1.404 2.34-1.404Zm-.228 5.484c.56 0 1.024-.184 1.392-.552.368-.376.552-.956.552-1.74s-.184-1.36-.552-1.728c-.368-.376-.832-.564-1.392-.564-.552 0-1.012.184-1.38.552-.36.368-.54.936-.54 1.704 0 .8.18 1.388.54 1.764.368.376.828.564 1.38.564Zm4.768 3.072c-.328 0-.6-.044-.816-.132v-1.02c.16.136.42.204.78.204.28 0 .516-.068.708-.204.2-.128.392-.352.576-.672l-2.532-6.648h1.164l1.98 5.256 1.968-5.256h1.02l-2.328 6.156c-.32.824-.676 1.416-1.068 1.776-.392.36-.876.54-1.452.54Zm8.126-5.328c.272 0 .54-.04.804-.12.272-.08.516-.204.732-.372v-2.652h1.056V308h-1.056v-2.736c-.448.352-1.02.528-1.716.528-.704 0-1.244-.176-1.62-.528-.368-.352-.552-.908-.552-1.668v-1.824h1.068v1.836c0 .488.112.828.336 1.02.224.192.54.288.948.288Zm7.078 3.204c-1.04 0-1.836-.284-2.388-.852-.544-.576-.816-1.372-.816-2.388 0-.68.128-1.26.384-1.74s.608-.848 1.056-1.104a2.993 2.993 0 0 1 1.512-.384c.952 0 1.652.316 2.1.948.448.624.592 1.48.432 2.568h-4.392c.088 1.336.824 2.004 2.208 2.004.76 0 1.46-.216 2.1-.648v.948c-.288.2-.624.36-1.008.48-.384.112-.78.168-1.188.168Zm-.276-5.532c-.456 0-.848.14-1.176.42-.328.28-.536.704-.624 1.272h3.348c.024-.536-.1-.952-.372-1.248-.272-.296-.664-.444-1.176-.444Zm5.029-.816v2.568h3.012v-2.568h1.056V308h-1.056v-2.76h-3.012V308h-1.056v-6.228h1.056Zm6.856 0v4.764l3.204-4.764h1.068V308h-1.056v-4.752L345.364 308h-1.08v-6.228h1.056Zm8.759 6.348c-1.04 0-1.836-.284-2.388-.852-.544-.576-.816-1.372-.816-2.388 0-.68.128-1.26.384-1.74s.608-.848 1.056-1.104a2.993 2.993 0 0 1 1.512-.384c.952 0 1.652.316 2.1.948.448.624.592 1.48.432 2.568h-4.392c.088 1.336.824 2.004 2.208 2.004.76 0 1.46-.216 2.1-.648v.948c-.288.2-.624.36-1.008.48-.384.112-.78.168-1.188.168Zm-.276-5.532c-.456 0-.848.14-1.176.42-.328.28-.536.704-.624 1.272h3.348c.024-.536-.1-.952-.372-1.248-.272-.296-.664-.444-1.176-.444Zm98.044-98.468c-.848 0-1.592-.176-2.232-.528a3.683 3.683 0 0 1-1.476-1.512c-.352-.664-.528-1.456-.528-2.376 0-1.384.364-2.464 1.092-3.24.728-.784 1.768-1.176 3.12-1.176.504 0 .984.056 1.44.168a3.76 3.76 0 0 1 1.176.456v1.08a4.28 4.28 0 0 0-1.212-.504 5.54 5.54 0 0 0-1.416-.18c-1.008 0-1.756.284-2.244.852-.488.568-.732 1.416-.732 2.544 0 1.136.264 1.988.792 2.556.528.56 1.3.84 2.316.84.96 0 1.792-.264 2.496-.792v1.08c-.28.224-.652.404-1.116.54a5.528 5.528 0 0 1-1.476.192Zm3.671-1.152c.48.072.808-.228.984-.9.064-.24.116-.54.156-.9.04-.368.068-.824.084-1.368.016-.552.024-1.228.024-2.028h4.308V204h-1.068v-5.328h-2.244a32.147 32.147 0 0 1-.084 2.292 8.46 8.46 0 0 1-.204 1.428c-.152.6-.384 1.028-.696 1.284-.312.256-.732.368-1.26.336v-1.044Zm9.833 1.152c-.568 0-1.08-.124-1.536-.372a2.784 2.784 0 0 1-1.068-1.104c-.264-.488-.396-1.076-.396-1.764s.132-1.272.396-1.752.62-.844 1.068-1.092a3.083 3.083 0 0 1 1.536-.384c.576 0 1.092.128 1.548.384a2.68 2.68 0 0 1 1.08 1.092c.264.48.396 1.064.396 1.752s-.132 1.276-.396 1.764a2.76 2.76 0 0 1-1.08 1.104 3.187 3.187 0 0 1-1.548.372Zm0-.948c.56 0 1.024-.184 1.392-.552.368-.376.552-.956.552-1.74s-.184-1.36-.552-1.728c-.368-.376-.832-.564-1.392-.564-.552 0-1.012.188-1.38.564-.36.368-.54.944-.54 1.728s.18 1.364.54 1.74c.368.368.828.552 1.38.552Zm6.999-6.228c-.632 0-1.104-.156-1.416-.468a1.606 1.606 0 0 1-.468-1.164h1.056c0 .304.072.524.216.66.152.136.356.204.612.204s.456-.068.6-.204c.144-.136.216-.356.216-.66h1.056c0 .456-.156.844-.468 1.164-.304.312-.772.468-1.404.468Zm-1.632.828v4.764l3.204-4.764h1.068V204h-1.056v-4.752L470.762 204h-1.08v-6.228h1.056ZM484.347 204h-5.484v-1.14a52.221 52.221 0 0 0 2.1-1.764c.552-.488.98-.912 1.284-1.272.312-.368.528-.708.648-1.02.128-.312.192-.628.192-.948 0-.496-.148-.884-.444-1.164-.296-.28-.704-.42-1.224-.42-.832 0-1.608.396-2.328 1.188v-1.212c.664-.648 1.452-.972 2.364-.972.864 0 1.544.224 2.04.672.504.44.756 1.04.756 1.8 0 .392-.064.768-.192 1.128-.12.352-.336.724-.648 1.116-.304.384-.724.816-1.26 1.296-.536.48-1.216 1.04-2.04 1.68h4.236V204Zm-32.48-51.88c-.848 0-1.592-.176-2.232-.528a3.683 3.683 0 0 1-1.476-1.512c-.352-.664-.528-1.456-.528-2.376 0-1.384.364-2.464 1.092-3.24.728-.784 1.768-1.176 3.12-1.176.504 0 .984.056 1.44.168a3.76 3.76 0 0 1 1.176.456v1.08a4.28 4.28 0 0 0-1.212-.504 5.54 5.54 0 0 0-1.416-.18c-1.008 0-1.756.284-2.244.852-.488.568-.732 1.416-.732 2.544 0 1.136.264 1.988.792 2.556.528.56 1.3.84 2.316.84.96 0 1.792-.264 2.496-.792v1.08c-.28.224-.652.404-1.116.54a5.528 5.528 0 0 1-1.476.192Zm3.671-1.152c.48.072.808-.228.984-.9.064-.24.116-.54.156-.9.04-.368.068-.824.084-1.368.016-.552.024-1.228.024-2.028h4.308V152h-1.068v-5.328h-2.244a32.147 32.147 0 0 1-.084 2.292 8.46 8.46 0 0 1-.204 1.428c-.152.6-.384 1.028-.696 1.284-.312.256-.732.368-1.26.336v-1.044Zm9.833 1.152c-.568 0-1.08-.124-1.536-.372a2.784 2.784 0 0 1-1.068-1.104c-.264-.488-.396-1.076-.396-1.764s.132-1.272.396-1.752.62-.844 1.068-1.092a3.083 3.083 0 0 1 1.536-.384c.576 0 1.092.128 1.548.384a2.68 2.68 0 0 1 1.08 1.092c.264.48.396 1.064.396 1.752s-.132 1.276-.396 1.764a2.76 2.76 0 0 1-1.08 1.104 3.187 3.187 0 0 1-1.548.372Zm0-.948c.56 0 1.024-.184 1.392-.552.368-.376.552-.956.552-1.74s-.184-1.36-.552-1.728c-.368-.376-.832-.564-1.392-.564-.552 0-1.012.188-1.38.564-.36.368-.54.944-.54 1.728s.18 1.364.54 1.74c.368.368.828.552 1.38.552Zm6.999-6.228c-.632 0-1.104-.156-1.416-.468a1.606 1.606 0 0 1-.468-1.164h1.056c0 .304.072.524.216.66.152.136.356.204.612.204s.456-.068.6-.204c.144-.136.216-.356.216-.66h1.056c0 .456-.156.844-.468 1.164-.304.312-.772.468-1.404.468Zm-1.632.828v4.764l3.204-4.764h1.068V152h-1.056v-4.752L470.762 152h-1.08v-6.228h1.056ZM482.739 152h-1.092v-7.248l-2.376 1.824v-1.212l2.556-1.968h.912V152Zm-30.872 104.12c-.848 0-1.592-.176-2.232-.528a3.683 3.683 0 0 1-1.476-1.512c-.352-.664-.528-1.456-.528-2.376 0-1.384.364-2.464 1.092-3.24.728-.784 1.768-1.176 3.12-1.176.504 0 .984.056 1.44.168a3.76 3.76 0 0 1 1.176.456v1.08a4.28 4.28 0 0 0-1.212-.504 5.54 5.54 0 0 0-1.416-.18c-1.008 0-1.756.284-2.244.852-.488.568-.732 1.416-.732 2.544 0 1.136.264 1.988.792 2.556.528.56 1.3.84 2.316.84.96 0 1.792-.264 2.496-.792v1.08c-.28.224-.652.404-1.116.54a5.528 5.528 0 0 1-1.476.192Zm3.671-1.152c.48.072.808-.228.984-.9.064-.24.116-.54.156-.9.04-.368.068-.824.084-1.368.016-.552.024-1.228.024-2.028h4.308V256h-1.068v-5.328h-2.244a32.147 32.147 0 0 1-.084 2.292 8.46 8.46 0 0 1-.204 1.428c-.152.6-.384 1.028-.696 1.284-.312.256-.732.368-1.26.336v-1.044Zm9.833 1.152c-.568 0-1.08-.124-1.536-.372a2.784 2.784 0 0 1-1.068-1.104c-.264-.488-.396-1.076-.396-1.764s.132-1.272.396-1.752.62-.844 1.068-1.092a3.083 3.083 0 0 1 1.536-.384c.576 0 1.092.128 1.548.384a2.68 2.68 0 0 1 1.08 1.092c.264.48.396 1.064.396 1.752s-.132 1.276-.396 1.764a2.76 2.76 0 0 1-1.08 1.104 3.187 3.187 0 0 1-1.548.372Zm0-.948c.56 0 1.024-.184 1.392-.552.368-.376.552-.956.552-1.74s-.184-1.36-.552-1.728c-.368-.376-.832-.564-1.392-.564-.552 0-1.012.188-1.38.564-.36.368-.54.944-.54 1.728s.18 1.364.54 1.74c.368.368.828.552 1.38.552Zm6.999-6.228c-.632 0-1.104-.156-1.416-.468a1.606 1.606 0 0 1-.468-1.164h1.056c0 .304.072.524.216.66.152.136.356.204.612.204s.456-.068.6-.204c.144-.136.216-.356.216-.66h1.056c0 .456-.156.844-.468 1.164-.304.312-.772.468-1.404.468Zm-1.632.828v4.764l3.204-4.764h1.068V256h-1.056v-4.752L470.762 256h-1.08v-6.228h1.056Zm9.529 2.244v-1.02h1.152c.448 0 .812-.12 1.092-.36.288-.248.432-.596.432-1.044 0-.408-.132-.728-.396-.96-.264-.24-.644-.36-1.14-.36a3.05 3.05 0 0 0-1.176.228c-.36.152-.736.396-1.128.732v-1.176c.64-.52 1.412-.78 2.316-.78.824 0 1.468.208 1.932.624.472.416.708.96.708 1.632 0 .544-.152.976-.456 1.296-.296.32-.652.532-1.068.636.336.048.644.164.924.348.288.176.52.408.696.696.176.288.264.624.264 1.008 0 .528-.132.988-.396 1.38a2.611 2.611 0 0 1-1.092.912c-.456.208-.988.312-1.596.312-1.056 0-1.872-.244-2.448-.732v-1.2c.304.296.672.528 1.104.696.432.168.884.252 1.356.252.592 0 1.056-.14 1.392-.42.344-.288.516-.68.516-1.176 0-.48-.156-.852-.468-1.116-.304-.272-.776-.408-1.416-.408h-1.104Zm-28.4 56.104c-.848 0-1.592-.176-2.232-.528a3.683 3.683 0 0 1-1.476-1.512c-.352-.664-.528-1.456-.528-2.376 0-1.384.364-2.464 1.092-3.24.728-.784 1.768-1.176 3.12-1.176.504 0 .984.056 1.44.168a3.76 3.76 0 0 1 1.176.456v1.08a4.28 4.28 0 0 0-1.212-.504 5.54 5.54 0 0 0-1.416-.18c-1.008 0-1.756.284-2.244.852-.488.568-.732 1.416-.732 2.544 0 1.136.264 1.988.792 2.556.528.56 1.3.84 2.316.84.96 0 1.792-.264 2.496-.792v1.08c-.28.224-.652.404-1.116.54a5.528 5.528 0 0 1-1.476.192Zm3.671-1.152c.48.072.808-.228.984-.9.064-.24.116-.54.156-.9.04-.368.068-.824.084-1.368.016-.552.024-1.228.024-2.028h4.308V308h-1.068v-5.328h-2.244a32.147 32.147 0 0 1-.084 2.292 8.46 8.46 0 0 1-.204 1.428c-.152.6-.384 1.028-.696 1.284-.312.256-.732.368-1.26.336v-1.044Zm9.833 1.152c-.568 0-1.08-.124-1.536-.372a2.784 2.784 0 0 1-1.068-1.104c-.264-.488-.396-1.076-.396-1.764s.132-1.272.396-1.752.62-.844 1.068-1.092a3.083 3.083 0 0 1 1.536-.384c.576 0 1.092.128 1.548.384a2.68 2.68 0 0 1 1.08 1.092c.264.48.396 1.064.396 1.752s-.132 1.276-.396 1.764a2.76 2.76 0 0 1-1.08 1.104 3.187 3.187 0 0 1-1.548.372Zm0-.948c.56 0 1.024-.184 1.392-.552.368-.376.552-.956.552-1.74s-.184-1.36-.552-1.728c-.368-.376-.832-.564-1.392-.564-.552 0-1.012.188-1.38.564-.36.368-.54.944-.54 1.728s.18 1.364.54 1.74c.368.368.828.552 1.38.552Zm6.999-6.228c-.632 0-1.104-.156-1.416-.468a1.606 1.606 0 0 1-.468-1.164h1.056c0 .304.072.524.216.66.152.136.356.204.612.204s.456-.068.6-.204c.144-.136.216-.356.216-.66h1.056c0 .456-.156.844-.468 1.164-.304.312-.772.468-1.404.468Zm-1.632.828v4.764l3.204-4.764h1.068V308h-1.056v-4.752L470.762 308h-1.08v-6.228h1.056ZM483.375 308h-1.056v-2.04h-3.72v-.744l3.36-5.82h1.416v5.652h1.164v.912h-1.164V308Zm-3.684-2.952h2.628v-4.476l-2.628 4.476Z"/>
    <rect width="96" height="128" x="37" y="136" fill="#fff" stroke="#5282FF" stroke-width="2" rx="9"/>
    <path fill="#000" fill-opacity=".85" d="M60.162 159h-1.224v-8.604h1.128v7.068l4.488-7.068h1.224V159h-1.152v-7.032L60.162 159Zm10.18.12c-.969 0-1.733-.284-2.293-.852-.56-.576-.84-1.372-.84-2.388 0-1.016.284-1.808.852-2.376.568-.568 1.344-.852 2.328-.852.376 0 .728.044 1.056.132.328.08.592.2.792.36v.948a3.423 3.423 0 0 0-1.836-.504c-.72 0-1.252.192-1.596.576-.344.376-.516.948-.516 1.716s.164 1.344.492 1.728c.336.376.856.564 1.56.564.68 0 1.312-.164 1.896-.492v.948c-.52.328-1.152.492-1.896.492Zm2.95-6.348h1.224l1.488 2.196 1.5-2.196h1.092l-2.064 2.976L78.704 159H77.48l-1.668-2.472-1.68 2.472h-1.104l2.256-3.228-1.992-3Zm8.776 6.348c-.568 0-1.08-.124-1.536-.372a2.784 2.784 0 0 1-1.068-1.104c-.264-.488-.396-1.076-.396-1.764s.132-1.272.396-1.752.62-.844 1.068-1.092a3.083 3.083 0 0 1 1.536-.384c.576 0 1.092.128 1.548.384a2.68 2.68 0 0 1 1.08 1.092c.264.48.396 1.064.396 1.752s-.132 1.276-.396 1.764a2.76 2.76 0 0 1-1.08 1.104 3.187 3.187 0 0 1-1.548.372Zm0-.948c.56 0 1.024-.184 1.392-.552.368-.376.552-.956.552-1.74s-.184-1.36-.552-1.728c-.368-.376-.832-.564-1.392-.564-.552 0-1.012.188-1.38.564-.36.368-.54.944-.54 1.728s.18 1.364.54 1.74c.368.368.828.552 1.38.552Zm4.397 2.604h-.948V158.1h.588c.256-.256.436-.616.54-1.08.112-.464.18-1.044.204-1.74.024-.704.036-1.54.036-2.508h4.5v5.328h.936v2.676h-.924L91.265 159h-4.692l-.108 1.776Zm3.864-7.104h-2.46c-.008 1.136-.048 2.056-.12 2.76-.064.696-.228 1.252-.492 1.668h3.072v-4.428Zm4.15-.9v2.568h3.012v-2.568h1.056V159H97.49v-2.76h-3.012V159h-1.056v-6.228h1.056Zm7.911.816c-.664 0-1.336.204-2.016.612v-.948a3.804 3.804 0 0 1 1.02-.432 4.142 4.142 0 0 1 1.14-.168c.784 0 1.38.164 1.788.492.408.328.612.828.612 1.5v3.348c0 .136.004.312.012.528.016.208.032.368.048.48h-.96a5.482 5.482 0 0 1-.072-.468 7.173 7.173 0 0 1-.024-.54l-.012-.18a3.359 3.359 0 0 1-.396.6c-.168.2-.392.368-.672.504-.272.136-.612.204-1.02.204-.56 0-1.012-.16-1.356-.48-.344-.32-.516-.772-.516-1.356 0-.68.24-1.18.72-1.5.48-.32 1.156-.48 2.028-.48h1.164v-.516c0-.432-.112-.74-.336-.924-.224-.184-.608-.276-1.152-.276Zm1.488 3.012v-.456h-1.056c-.632 0-1.092.092-1.38.276-.28.184-.42.452-.42.804 0 .28.084.508.252.684.176.176.44.264.792.264.328 0 .608-.064.84-.192.232-.136.42-.296.564-.48.144-.192.248-.372.312-.54.064-.168.096-.288.096-.36Zm2.272 2.4 1.8-2.52c-.424-.12-.756-.316-.996-.588-.24-.272-.36-.64-.36-1.104 0-.472.112-.856.336-1.152.224-.296.532-.512.924-.648.392-.144.84-.216 1.344-.216h2.004V159h-1.056v-2.256h-1.14L107.41 159h-1.26Zm3.048-5.328c-.448 0-.816.084-1.104.252-.288.168-.432.44-.432.816 0 .392.128.676.384.852.264.168.628.252 1.092.252h1.008v-2.172h-.948Zm-44.217 14.1h1.572l1.908 4.176 2.04-4.176h1.464V174h-1.044v-5.004l-2.112 4.308h-.84l-1.992-4.332V174h-.996v-6.228Zm11.263 6.348c-.568 0-1.08-.124-1.536-.372a2.784 2.784 0 0 1-1.068-1.104c-.264-.488-.396-1.076-.396-1.764s.132-1.272.396-1.752.62-.844 1.068-1.092a3.083 3.083 0 0 1 1.536-.384c.576 0 1.092.128 1.548.384a2.68 2.68 0 0 1 1.08 1.092c.264.48.396 1.064.396 1.752s-.132 1.276-.396 1.764a2.76 2.76 0 0 1-1.08 1.104 3.187 3.187 0 0 1-1.548.372Zm0-.948c.56 0 1.024-.184 1.392-.552.368-.376.552-.956.552-1.74s-.184-1.36-.552-1.728c-.368-.376-.832-.564-1.392-.564-.552 0-1.012.188-1.38.564-.36.368-.54.944-.54 1.728s.18 1.364.54 1.74c.368.368.828.552 1.38.552Zm4.397 2.604h-.948V173.1h.588c.256-.256.436-.616.54-1.08.112-.464.18-1.044.204-1.74.024-.704.036-1.54.036-2.508h4.5v5.328h.936v2.676h-.924L85.44 174h-4.692l-.108 1.776Zm3.864-7.104h-2.46c-.008 1.136-.048 2.056-.12 2.76-.064.696-.228 1.252-.492 1.668h3.072v-4.428Zm5.736 5.448c-1.04 0-1.836-.284-2.388-.852-.544-.576-.816-1.372-.816-2.388 0-.68.128-1.26.384-1.74s.608-.848 1.056-1.104a2.993 2.993 0 0 1 1.512-.384c.952 0 1.652.316 2.1.948.448.624.592 1.48.432 2.568H88.13c.088 1.336.824 2.004 2.208 2.004.76 0 1.46-.216 2.1-.648v.948c-.288.2-.624.36-1.008.48-.384.112-.78.168-1.188.168Zm-.276-5.532c-.456 0-.848.14-1.176.42-.328.28-.536.704-.624 1.272h3.348c.024-.536-.1-.952-.372-1.248-.272-.296-.664-.444-1.176-.444Zm3.47 4.38c.48.072.807-.228.983-.9.064-.24.116-.54.156-.9.04-.368.068-.824.084-1.368.016-.552.024-1.228.024-2.028h4.308V174h-1.068v-5.328h-2.244a32.147 32.147 0 0 1-.084 2.292 8.46 8.46 0 0 1-.204 1.428c-.152.6-.384 1.028-.696 1.284-.312.256-.732.368-1.26.336v-1.044Zm8.297-5.196v2.1h1.14c.792 0 1.412.16 1.86.48.448.312.672.824.672 1.536 0 .488-.112.888-.336 1.2a1.99 1.99 0 0 1-.924.696c-.392.144-.84.216-1.344.216h-2.124v-6.228h1.056Zm1.068 5.328c.456 0 .824-.088 1.104-.264.288-.184.432-.48.432-.888 0-.416-.128-.716-.384-.9-.256-.184-.616-.276-1.08-.276h-1.14v2.328h1.068Z"/>
    <path stroke="#D4D4D4" d="m85 192 24 21-24-7"/>
    <path stroke="#D4D4D4" d="m85 220.5 23.5-8L85 234m0 14 24-21-24 7"/>
    <path stroke="#D4D4D4" d="m85 219.5 23.5 8L85 206m0 42.5-24-14h24"/>
    <path stroke="#D4D4D4" d="M85.5 220 61 234.5 85.5 206M61 234.5 85 192m0 0-24 14h24"/>
    <path stroke="#D4D4D4" d="M85.5 220.5 61 206l24.5 28.5M61 206l24 42.5"/>
    <path stroke="#D4D4D4" d="m85 192-24 28 23 28m-23-28h25"/>
    <path fill="#D6E1FF" d="M90 220a5 5 0 1 1-10 0 5 5 0 0 1 10 0Zm0 28a5 5 0 1 1-10 0 5 5 0 0 1 10 0Zm0-14a5 5 0 1 1-10 0 5 5 0 0 1 10 0Zm0-28a5 5 0 1 1-10 0 5 5 0 0 1 10 0Zm0-14a5 5 0 1 1-10 0 5 5 0 0 1 10 0Z"/>
    <path fill="#FFDB4D" d="M66 234a5 5 0 1 1-10 0 5 5 0 0 1 10 0Zm0-14a5 5 0 1 1-10 0 5 5 0 0 1 10 0Z"/>
    <path fill="#5282FF" d="M114 227a5 5 0 1 1-10.001-.001A5 5 0 0 1 114 227Zm0-14a5 5 0 1 1-10.001-.001A5 5 0 0 1 114 213Z"/>
    <path fill="#FFDB4D" d="M66 206a5 5 0 1 1-10 0 5 5 0 0 1 10 0Z"/>
    <path fill="#5282FF" fill-rule="evenodd" d="M220 189h-14a4 4 0 0 0-4 4v14a4 4 0 0 0 4 4h14a4 4 0 0 0 4-4v-14a4 4 0 0 0-4-4Zm-14-2a6 6 0 0 0-6 6v14a6 6 0 0 0 6 6h14a6 6 0 0 0 6-6v-14a6 6 0 0 0-6-6h-14Z" clip-rule="evenodd"/>
    <path fill="#000" fill-rule="evenodd" d="M220 221h-14a4 4 0 0 0-4 4v14a4 4 0 0 0 4 4h14a4 4 0 0 0 4-4v-14a4 4 0 0 0-4-4Zm-14-2a6 6 0 0 0-6 6v14a6 6 0 0 0 6 6h14a6 6 0 0 0 6-6v-14a6 6 0 0 0-6-6h-14Zm14 34h-14a4 4 0 0 0-4 4v14a4 4 0 0 0 4 4h14a4 4 0 0 0 4-4v-14a4 4 0 0 0-4-4Zm-14-2a6 6 0 0 0-6 6v14a6 6 0 0 0 6 6h14a6 6 0 0 0 6-6v-14a6 6 0 0 0-6-6h-14Zm14-94h-14a4 4 0 0 0-4 4v14a4 4 0 0 0 4 4h14a4 4 0 0 0 4-4v-14a4 4 0 0 0-4-4Zm-14-2a6 6 0 0 0-6 6v14a6 6 0 0 0 6 6h14a6 6 0 0 0 6-6v-14a6 6 0 0 0-6-6h-14Zm14-62h-14a4 4 0 0 0-4 4v14a4 4 0 0 0 4 4h14a4 4 0 0 0 4-4V97a4 4 0 0 0-4-4Zm-14-2a6 6 0 0 0-6 6v14a6 6 0 0 0 6 6h14a6 6 0 0 0 6-6V97a6 6 0 0 0-6-6h-14Zm14 34h-14a4 4 0 0 0-4 4v14a4 4 0 0 0 4 4h14a4 4 0 0 0 4-4v-14a4 4 0 0 0-4-4Zm-14-2a6 6 0 0 0-6 6v14a6 6 0 0 0 6 6h14a6 6 0 0 0 6-6v-14a6 6 0 0 0-6-6h-14Z" clip-rule="evenodd"/>
    <path fill="#4E496B" d="m275 200-10 5.774v-11.548L275 200Zm-9 1h-36v-2h36v2Zm281-1-10-5.774v11.548L547 200Zm-9-1h-33v2h33v-2Z"/>
    <path stroke="#4E496B" stroke-width="2" d="M196 200h-58"/>
    <defs>
        <clipPath id="clip0_2_798">
            <path fill="#fff" d="M389 132h32v32h-32z"/>
        </clipPath>
        <clipPath id="clip1_2_798">
            <path fill="#fff" d="M389 184h32v32h-32z"/>
        </clipPath>
        <clipPath id="clip2_2_798">
            <path fill="#fff" d="M389 236h32v32h-32z"/>
        </clipPath>
        <clipPath id="clip3_2_798">
            <path fill="#fff" d="M389 288h32v32h-32z"/>
        </clipPath>
        <filter id="filter0_d_2_798" width="498" height="350" x="176" y="25" color-interpolation-filters="sRGB" filterUnits="userSpaceOnUse">
            <feFlood flood-opacity="0" result="BackgroundImageFix"/>
            <feColorMatrix in="SourceAlpha" result="hardAlpha" values="0 0 0 0 0 0 0 0 0 0 0 0 0 0 0 0 0 0 127 0"/>
            <feOffset/>
            <feGaussianBlur stdDeviation="4"/>
            <feColorMatrix values="0 0 0 0 0.321569 0 0 0 0 0.509804 0 0 0 0 1 0 0 0 0.2 0"/>
            <feBlend in2="BackgroundImageFix" result="effect1_dropShadow_2_798"/>
            <feBlend in="SourceGraphic" in2="effect1_dropShadow_2_798" result="shape"/>
        </filter>
    </defs>
</svg>
