<svg width="700" height="470" viewBox="0 0 700 470" fill="none" xmlns="http://www.w3.org/2000/svg">
<rect x="374" y="39" width="192" height="88" rx="9" fill="white" stroke="#5282FF" stroke-width="2"/>
<path d="M384.097 51.256H383.341V55H382.201V46.408H383.341V50.236H384.049L387.121 46.408H388.393L384.997 50.632L388.513 55H387.121L384.097 51.256ZM391.996 55.12C391.572 55.12 391.176 55.048 390.808 54.904C390.44 54.76 390.12 54.552 389.848 54.28C389.584 54 389.376 53.66 389.224 53.26C389.072 52.86 388.996 52.4 388.996 51.88C388.996 51.368 389.072 50.912 389.224 50.512C389.376 50.104 389.584 49.764 389.848 49.492C390.12 49.22 390.44 49.012 390.808 48.868C391.176 48.724 391.572 48.652 391.996 48.652C392.428 48.652 392.828 48.724 393.196 48.868C393.564 49.012 393.88 49.22 394.144 49.492C394.416 49.764 394.628 50.104 394.78 50.512C394.94 50.912 395.02 51.368 395.02 51.88C395.02 52.4 394.94 52.86 394.78 53.26C394.628 53.66 394.416 54 394.144 54.28C393.88 54.552 393.564 54.76 393.196 54.904C392.828 55.048 392.428 55.12 391.996 55.12ZM391.996 54.172C392.276 54.172 392.536 54.128 392.776 54.04C393.016 53.944 393.22 53.804 393.388 53.62C393.564 53.428 393.7 53.188 393.796 52.9C393.9 52.612 393.952 52.272 393.952 51.88C393.952 51.488 393.9 51.148 393.796 50.86C393.7 50.572 393.564 50.336 393.388 50.152C393.22 49.96 393.016 49.82 392.776 49.732C392.536 49.636 392.276 49.588 391.996 49.588C391.716 49.588 391.46 49.636 391.228 49.732C390.996 49.82 390.792 49.96 390.616 50.152C390.448 50.336 390.316 50.572 390.22 50.86C390.124 51.148 390.076 51.488 390.076 51.88C390.076 52.272 390.124 52.612 390.22 52.9C390.316 53.188 390.448 53.428 390.616 53.62C390.792 53.804 390.996 53.944 391.228 54.04C391.46 54.128 391.716 54.172 391.996 54.172ZM399.4 54.172C399.952 54.172 400.396 53.984 400.732 53.608C401.076 53.224 401.248 52.648 401.248 51.88C401.248 51.128 401.076 50.56 400.732 50.176C400.396 49.784 399.952 49.588 399.4 49.588C399.128 49.588 398.872 49.636 398.632 49.732C398.4 49.828 398.196 49.972 398.02 50.164C397.852 50.348 397.716 50.584 397.612 50.872C397.516 51.16 397.468 51.496 397.468 51.88C397.468 52.264 397.516 52.6 397.612 52.888C397.716 53.176 397.852 53.416 398.02 53.608C398.196 53.8 398.4 53.944 398.632 54.04C398.872 54.128 399.128 54.172 399.4 54.172ZM399.556 55.12C399.076 55.12 398.66 55.008 398.308 54.784C397.964 54.56 397.688 54.252 397.48 53.86V57.124H396.424V48.772H397.36L397.456 49.996C397.664 49.588 397.944 49.264 398.296 49.024C398.648 48.776 399.084 48.652 399.604 48.652C399.964 48.652 400.308 48.72 400.636 48.856C400.972 48.984 401.264 49.184 401.512 49.456C401.768 49.72 401.968 50.056 402.112 50.464C402.264 50.864 402.34 51.336 402.34 51.88C402.34 52.432 402.264 52.912 402.112 53.32C401.96 53.72 401.756 54.056 401.5 54.328C401.244 54.592 400.948 54.792 400.612 54.928C400.276 55.056 399.924 55.12 399.556 55.12ZM407.84 52.24H404.828V55H403.772V48.772H404.828V51.34H407.84V48.772H408.896V55H407.84V52.24ZM413.24 49.588C412.776 49.588 412.38 49.728 412.052 50.008C411.724 50.288 411.516 50.712 411.428 51.28H414.776C414.792 50.992 414.764 50.744 414.692 50.536C414.62 50.32 414.516 50.144 414.38 50.008C414.244 49.864 414.076 49.76 413.876 49.696C413.684 49.624 413.472 49.588 413.24 49.588ZM415.724 54.472C415.636 54.536 415.524 54.604 415.388 54.676C415.26 54.748 415.104 54.82 414.92 54.892C414.736 54.956 414.524 55.008 414.284 55.048C414.052 55.096 413.792 55.12 413.504 55.12C412.456 55.12 411.66 54.836 411.116 54.268C410.572 53.7 410.3 52.904 410.3 51.88C410.3 51.376 410.372 50.924 410.516 50.524C410.668 50.124 410.876 49.788 411.14 49.516C411.404 49.236 411.716 49.024 412.076 48.88C412.444 48.728 412.84 48.652 413.264 48.652C413.704 48.652 414.1 48.728 414.452 48.88C414.804 49.032 415.092 49.256 415.316 49.552C415.548 49.848 415.704 50.216 415.784 50.656C415.872 51.088 415.872 51.592 415.784 52.168H411.392C411.432 52.84 411.636 53.344 412.004 53.68C412.372 54.008 412.892 54.172 413.564 54.172C414.004 54.172 414.376 54.104 414.68 53.968C414.984 53.824 415.24 53.68 415.448 53.536L415.724 54.472ZM418.316 49.672V51.364H419.492C419.892 51.364 420.212 51.292 420.452 51.148C420.7 51.004 420.824 50.796 420.824 50.524C420.824 50.196 420.716 49.972 420.5 49.852C420.284 49.732 419.976 49.672 419.576 49.672H418.316ZM418.316 52.204V54.1H419.552C419.776 54.1 419.976 54.088 420.152 54.064C420.336 54.032 420.492 53.98 420.62 53.908C420.756 53.836 420.86 53.74 420.932 53.62C421.004 53.5 421.04 53.352 421.04 53.176C421.04 52.816 420.916 52.564 420.668 52.42C420.428 52.276 420.056 52.204 419.552 52.204H418.316ZM417.26 48.772H419.588C420.34 48.772 420.908 48.904 421.292 49.168C421.676 49.424 421.868 49.828 421.868 50.38C421.868 50.748 421.776 51.044 421.592 51.268C421.408 51.484 421.14 51.64 420.788 51.736C421.676 51.88 422.12 52.372 422.12 53.212C422.12 53.532 422.056 53.808 421.928 54.04C421.8 54.264 421.624 54.448 421.4 54.592C421.176 54.736 420.904 54.84 420.584 54.904C420.272 54.968 419.932 55 419.564 55H417.26V48.772ZM426.191 55.12C425.767 55.12 425.371 55.048 425.003 54.904C424.635 54.76 424.315 54.552 424.043 54.28C423.779 54 423.571 53.66 423.419 53.26C423.267 52.86 423.191 52.4 423.191 51.88C423.191 51.368 423.267 50.912 423.419 50.512C423.571 50.104 423.779 49.764 424.043 49.492C424.315 49.22 424.635 49.012 425.003 48.868C425.371 48.724 425.767 48.652 426.191 48.652C426.623 48.652 427.023 48.724 427.391 48.868C427.759 49.012 428.075 49.22 428.339 49.492C428.611 49.764 428.823 50.104 428.975 50.512C429.135 50.912 429.215 51.368 429.215 51.88C429.215 52.4 429.135 52.86 428.975 53.26C428.823 53.66 428.611 54 428.339 54.28C428.075 54.552 427.759 54.76 427.391 54.904C427.023 55.048 426.623 55.12 426.191 55.12ZM426.191 54.172C426.471 54.172 426.731 54.128 426.971 54.04C427.211 53.944 427.415 53.804 427.583 53.62C427.759 53.428 427.895 53.188 427.991 52.9C428.095 52.612 428.147 52.272 428.147 51.88C428.147 51.488 428.095 51.148 427.991 50.86C427.895 50.572 427.759 50.336 427.583 50.152C427.415 49.96 427.211 49.82 426.971 49.732C426.731 49.636 426.471 49.588 426.191 49.588C425.911 49.588 425.655 49.636 425.423 49.732C425.191 49.82 424.987 49.96 424.811 50.152C424.643 50.336 424.511 50.572 424.415 50.86C424.319 51.148 424.271 51.488 424.271 51.88C424.271 52.272 424.319 52.612 424.415 52.9C424.511 53.188 424.643 53.428 424.811 53.62C424.987 53.804 425.191 53.944 425.423 54.04C425.655 54.128 425.911 54.172 426.191 54.172ZM433.367 47.944C433.047 47.944 432.767 47.904 432.527 47.824C432.295 47.736 432.099 47.62 431.939 47.476C431.787 47.324 431.671 47.152 431.591 46.96C431.519 46.76 431.483 46.544 431.483 46.312H432.539C432.539 46.616 432.611 46.836 432.755 46.972C432.907 47.108 433.111 47.176 433.367 47.176C433.623 47.176 433.823 47.108 433.967 46.972C434.111 46.836 434.183 46.616 434.183 46.312H435.239C435.239 46.768 435.083 47.156 434.771 47.476C434.467 47.788 433.999 47.944 433.367 47.944ZM430.619 48.772H431.675V53.56L434.999 48.772H436.067V55H435.011V50.224L431.699 55H430.619V48.772ZM444.388 49.672H442.12C442.096 50.264 442.064 50.796 442.024 51.268C441.984 51.74 441.932 52.156 441.868 52.516C441.812 52.876 441.736 53.188 441.64 53.452C441.544 53.708 441.428 53.924 441.292 54.1H444.388V49.672ZM445.324 55H440.692L440.584 56.776H439.636V54.1H440.104C440.328 53.964 440.504 53.752 440.632 53.464C440.76 53.176 440.86 52.812 440.932 52.372C441.004 51.932 441.052 51.412 441.076 50.812C441.108 50.212 441.136 49.532 441.16 48.772H445.444V54.1H446.38V56.776H445.456L445.324 55ZM450.039 55.12C449.615 55.12 449.219 55.048 448.851 54.904C448.483 54.76 448.163 54.552 447.891 54.28C447.627 54 447.419 53.66 447.267 53.26C447.115 52.86 447.039 52.4 447.039 51.88C447.039 51.368 447.115 50.912 447.267 50.512C447.419 50.104 447.627 49.764 447.891 49.492C448.163 49.22 448.483 49.012 448.851 48.868C449.219 48.724 449.615 48.652 450.039 48.652C450.471 48.652 450.871 48.724 451.239 48.868C451.607 49.012 451.923 49.22 452.187 49.492C452.459 49.764 452.671 50.104 452.823 50.512C452.983 50.912 453.063 51.368 453.063 51.88C453.063 52.4 452.983 52.86 452.823 53.26C452.671 53.66 452.459 54 452.187 54.28C451.923 54.552 451.607 54.76 451.239 54.904C450.871 55.048 450.471 55.12 450.039 55.12ZM450.039 54.172C450.319 54.172 450.579 54.128 450.819 54.04C451.059 53.944 451.263 53.804 451.431 53.62C451.607 53.428 451.743 53.188 451.839 52.9C451.943 52.612 451.995 52.272 451.995 51.88C451.995 51.488 451.943 51.148 451.839 50.86C451.743 50.572 451.607 50.336 451.431 50.152C451.263 49.96 451.059 49.82 450.819 49.732C450.579 49.636 450.319 49.588 450.039 49.588C449.759 49.588 449.503 49.636 449.271 49.732C449.039 49.82 448.835 49.96 448.659 50.152C448.491 50.336 448.359 50.572 448.263 50.86C448.167 51.148 448.119 51.488 448.119 51.88C448.119 52.272 448.167 52.612 448.263 52.9C448.359 53.188 448.491 53.428 448.659 53.62C448.835 53.804 449.039 53.944 449.271 54.04C449.503 54.128 449.759 54.172 450.039 54.172ZM455.439 49.792V55H454.467V48.772H456.087L457.959 52.96L459.903 48.772H461.451V55H460.407V49.792L458.295 54.304H457.455L455.439 49.792ZM465.799 49.588C465.335 49.588 464.939 49.728 464.611 50.008C464.283 50.288 464.075 50.712 463.987 51.28H467.335C467.351 50.992 467.323 50.744 467.251 50.536C467.179 50.32 467.075 50.144 466.939 50.008C466.803 49.864 466.635 49.76 466.435 49.696C466.243 49.624 466.031 49.588 465.799 49.588ZM468.283 54.472C468.195 54.536 468.083 54.604 467.947 54.676C467.819 54.748 467.663 54.82 467.479 54.892C467.295 54.956 467.083 55.008 466.843 55.048C466.611 55.096 466.351 55.12 466.063 55.12C465.015 55.12 464.219 54.836 463.675 54.268C463.131 53.7 462.859 52.904 462.859 51.88C462.859 51.376 462.931 50.924 463.075 50.524C463.227 50.124 463.435 49.788 463.699 49.516C463.963 49.236 464.275 49.024 464.635 48.88C465.003 48.728 465.399 48.652 465.823 48.652C466.263 48.652 466.659 48.728 467.011 48.88C467.363 49.032 467.651 49.256 467.875 49.552C468.107 49.848 468.263 50.216 468.343 50.656C468.431 51.088 468.431 51.592 468.343 52.168H463.951C463.991 52.84 464.195 53.344 464.563 53.68C464.931 54.008 465.451 54.172 466.123 54.172C466.563 54.172 466.935 54.104 467.239 53.968C467.543 53.824 467.799 53.68 468.007 53.536L468.283 54.472ZM473.887 52.24H470.875V55H469.819V48.772H470.875V51.34H473.887V48.772H474.943V55H473.887V52.24Z" fill="black"/>
<rect x="453" y="64" width="100" height="50" rx="10" fill="#D6E1FF"/>
<circle cx="503" cy="89" r="4" fill="black"/>
<rect x="159" y="261" width="407" height="88" rx="9" fill="white" stroke="#5282FF" stroke-width="2"/>
<path d="M172.447 268.428H169.399C169.375 269.348 169.339 270.16 169.291 270.864C169.243 271.56 169.175 272.172 169.087 272.7C169.007 273.22 168.899 273.668 168.763 274.044C168.635 274.412 168.479 274.724 168.295 274.98H172.447V268.428ZM173.515 276H167.587L167.455 278.04H166.447V274.98H167.023C167.295 274.732 167.511 274.4 167.671 273.984C167.839 273.56 167.967 273.04 168.055 272.424C168.151 271.808 168.219 271.088 168.259 270.264C168.299 269.432 168.331 268.48 168.355 267.408H173.587V274.98H174.679V278.04H173.647L173.515 276ZM178.615 276.12C178.191 276.12 177.795 276.048 177.427 275.904C177.059 275.76 176.739 275.552 176.467 275.28C176.203 275 175.995 274.66 175.843 274.26C175.691 273.86 175.615 273.4 175.615 272.88C175.615 272.368 175.691 271.912 175.843 271.512C175.995 271.104 176.203 270.764 176.467 270.492C176.739 270.22 177.059 270.012 177.427 269.868C177.795 269.724 178.191 269.652 178.615 269.652C179.047 269.652 179.447 269.724 179.815 269.868C180.183 270.012 180.499 270.22 180.763 270.492C181.035 270.764 181.247 271.104 181.399 271.512C181.559 271.912 181.639 272.368 181.639 272.88C181.639 273.4 181.559 273.86 181.399 274.26C181.247 274.66 181.035 275 180.763 275.28C180.499 275.552 180.183 275.76 179.815 275.904C179.447 276.048 179.047 276.12 178.615 276.12ZM178.615 275.172C178.895 275.172 179.155 275.128 179.395 275.04C179.635 274.944 179.839 274.804 180.007 274.62C180.183 274.428 180.319 274.188 180.415 273.9C180.519 273.612 180.571 273.272 180.571 272.88C180.571 272.488 180.519 272.148 180.415 271.86C180.319 271.572 180.183 271.336 180.007 271.152C179.839 270.96 179.635 270.82 179.395 270.732C179.155 270.636 178.895 270.588 178.615 270.588C178.335 270.588 178.079 270.636 177.847 270.732C177.615 270.82 177.411 270.96 177.235 271.152C177.067 271.336 176.935 271.572 176.839 271.86C176.743 272.148 176.695 272.488 176.695 272.88C176.695 273.272 176.743 273.612 176.839 273.9C176.935 274.188 177.067 274.428 177.235 274.62C177.411 274.804 177.615 274.944 177.847 275.04C178.079 275.128 178.335 275.172 178.615 275.172ZM184.015 270.792V276H183.043V269.772H184.663L186.535 273.96L188.479 269.772H190.027V276H188.983V270.792L186.871 275.304H186.031L184.015 270.792ZM194.375 270.588C193.911 270.588 193.515 270.728 193.187 271.008C192.859 271.288 192.651 271.712 192.563 272.28H195.911C195.927 271.992 195.899 271.744 195.827 271.536C195.755 271.32 195.651 271.144 195.515 271.008C195.379 270.864 195.211 270.76 195.011 270.696C194.819 270.624 194.607 270.588 194.375 270.588ZM196.859 275.472C196.771 275.536 196.659 275.604 196.523 275.676C196.395 275.748 196.239 275.82 196.055 275.892C195.871 275.956 195.659 276.008 195.419 276.048C195.187 276.096 194.927 276.12 194.639 276.12C193.591 276.12 192.795 275.836 192.251 275.268C191.707 274.7 191.435 273.904 191.435 272.88C191.435 272.376 191.507 271.924 191.651 271.524C191.803 271.124 192.011 270.788 192.275 270.516C192.539 270.236 192.851 270.024 193.211 269.88C193.579 269.728 193.975 269.652 194.399 269.652C194.839 269.652 195.235 269.728 195.587 269.88C195.939 270.032 196.227 270.256 196.451 270.552C196.683 270.848 196.839 271.216 196.919 271.656C197.007 272.088 197.007 272.592 196.919 273.168H192.527C192.567 273.84 192.771 274.344 193.139 274.68C193.507 275.008 194.027 275.172 194.699 275.172C195.139 275.172 195.511 275.104 195.815 274.968C196.119 274.824 196.375 274.68 196.583 274.536L196.859 275.472ZM202.463 273.24H199.451V276H198.395V269.772H199.451V272.34H202.463V269.772H203.519V276H202.463V273.24ZM208.943 270.672V272.364H210.119C210.519 272.364 210.839 272.292 211.079 272.148C211.327 272.004 211.451 271.796 211.451 271.524C211.451 271.196 211.343 270.972 211.127 270.852C210.911 270.732 210.603 270.672 210.203 270.672H208.943ZM208.943 273.204V275.1H210.179C210.403 275.1 210.603 275.088 210.779 275.064C210.963 275.032 211.119 274.98 211.247 274.908C211.383 274.836 211.487 274.74 211.559 274.62C211.631 274.5 211.667 274.352 211.667 274.176C211.667 273.816 211.543 273.564 211.295 273.42C211.055 273.276 210.683 273.204 210.179 273.204H208.943ZM207.887 269.772H210.215C210.967 269.772 211.535 269.904 211.919 270.168C212.303 270.424 212.495 270.828 212.495 271.38C212.495 271.748 212.403 272.044 212.219 272.268C212.035 272.484 211.767 272.64 211.415 272.736C212.303 272.88 212.747 273.372 212.747 274.212C212.747 274.532 212.683 274.808 212.555 275.04C212.427 275.264 212.251 275.448 212.027 275.592C211.803 275.736 211.531 275.84 211.211 275.904C210.899 275.968 210.559 276 210.191 276H207.887V269.772ZM216.593 270.672V276H215.537V270.672H213.641V269.772H218.525V270.672H216.593ZM222.244 276.12C221.82 276.12 221.424 276.048 221.056 275.904C220.688 275.76 220.368 275.552 220.096 275.28C219.832 275 219.624 274.66 219.472 274.26C219.32 273.86 219.244 273.4 219.244 272.88C219.244 272.368 219.32 271.912 219.472 271.512C219.624 271.104 219.832 270.764 220.096 270.492C220.368 270.22 220.688 270.012 221.056 269.868C221.424 269.724 221.82 269.652 222.244 269.652C222.676 269.652 223.076 269.724 223.444 269.868C223.812 270.012 224.128 270.22 224.392 270.492C224.664 270.764 224.876 271.104 225.028 271.512C225.188 271.912 225.268 272.368 225.268 272.88C225.268 273.4 225.188 273.86 225.028 274.26C224.876 274.66 224.664 275 224.392 275.28C224.128 275.552 223.812 275.76 223.444 275.904C223.076 276.048 222.676 276.12 222.244 276.12ZM222.244 275.172C222.524 275.172 222.784 275.128 223.024 275.04C223.264 274.944 223.468 274.804 223.636 274.62C223.812 274.428 223.948 274.188 224.044 273.9C224.148 273.612 224.2 273.272 224.2 272.88C224.2 272.488 224.148 272.148 224.044 271.86C223.948 271.572 223.812 271.336 223.636 271.152C223.468 270.96 223.264 270.82 223.024 270.732C222.784 270.636 222.524 270.588 222.244 270.588C221.964 270.588 221.708 270.636 221.476 270.732C221.244 270.82 221.04 270.96 220.864 271.152C220.696 271.336 220.564 271.572 220.468 271.86C220.372 272.148 220.324 272.488 220.324 272.88C220.324 273.272 220.372 273.612 220.468 273.9C220.564 274.188 220.696 274.428 220.864 274.62C221.04 274.804 221.244 274.944 221.476 275.04C221.708 275.128 221.964 275.172 222.244 275.172ZM229.648 275.172C230.2 275.172 230.644 274.984 230.98 274.608C231.324 274.224 231.496 273.648 231.496 272.88C231.496 272.128 231.324 271.56 230.98 271.176C230.644 270.784 230.2 270.588 229.648 270.588C229.376 270.588 229.12 270.636 228.88 270.732C228.648 270.828 228.444 270.972 228.268 271.164C228.1 271.348 227.964 271.584 227.86 271.872C227.764 272.16 227.716 272.496 227.716 272.88C227.716 273.264 227.764 273.6 227.86 273.888C227.964 274.176 228.1 274.416 228.268 274.608C228.444 274.8 228.648 274.944 228.88 275.04C229.12 275.128 229.376 275.172 229.648 275.172ZM229.804 276.12C229.324 276.12 228.908 276.008 228.556 275.784C228.212 275.56 227.936 275.252 227.728 274.86V278.124H226.672V269.772H227.608L227.704 270.996C227.912 270.588 228.192 270.264 228.544 270.024C228.896 269.776 229.332 269.652 229.852 269.652C230.212 269.652 230.556 269.72 230.884 269.856C231.22 269.984 231.512 270.184 231.76 270.456C232.016 270.72 232.216 271.056 232.36 271.464C232.512 271.864 232.588 272.336 232.588 272.88C232.588 273.432 232.512 273.912 232.36 274.32C232.208 274.72 232.004 275.056 231.748 275.328C231.492 275.592 231.196 275.792 230.86 275.928C230.524 276.056 230.172 276.12 229.804 276.12ZM236.576 276.12C236.152 276.12 235.756 276.048 235.388 275.904C235.02 275.76 234.7 275.552 234.428 275.28C234.164 275 233.956 274.66 233.804 274.26C233.652 273.86 233.576 273.4 233.576 272.88C233.576 272.368 233.652 271.912 233.804 271.512C233.956 271.104 234.164 270.764 234.428 270.492C234.7 270.22 235.02 270.012 235.388 269.868C235.756 269.724 236.152 269.652 236.576 269.652C237.008 269.652 237.408 269.724 237.776 269.868C238.144 270.012 238.46 270.22 238.724 270.492C238.996 270.764 239.208 271.104 239.36 271.512C239.52 271.912 239.6 272.368 239.6 272.88C239.6 273.4 239.52 273.86 239.36 274.26C239.208 274.66 238.996 275 238.724 275.28C238.46 275.552 238.144 275.76 237.776 275.904C237.408 276.048 237.008 276.12 236.576 276.12ZM236.576 275.172C236.856 275.172 237.116 275.128 237.356 275.04C237.596 274.944 237.8 274.804 237.968 274.62C238.144 274.428 238.28 274.188 238.376 273.9C238.48 273.612 238.532 273.272 238.532 272.88C238.532 272.488 238.48 272.148 238.376 271.86C238.28 271.572 238.144 271.336 237.968 271.152C237.8 270.96 237.596 270.82 237.356 270.732C237.116 270.636 236.856 270.588 236.576 270.588C236.296 270.588 236.04 270.636 235.808 270.732C235.576 270.82 235.372 270.96 235.196 271.152C235.028 271.336 234.896 271.572 234.8 271.86C234.704 272.148 234.656 272.488 234.656 272.88C234.656 273.272 234.704 273.612 234.8 273.9C234.896 274.188 235.028 274.428 235.196 274.62C235.372 274.804 235.576 274.944 235.808 275.04C236.04 275.128 236.296 275.172 236.576 275.172ZM242.06 270.672V276H241.004V269.772H244.844V270.672H242.06ZM248.623 276.12C248.199 276.12 247.803 276.048 247.435 275.904C247.067 275.76 246.747 275.552 246.475 275.28C246.211 275 246.003 274.66 245.851 274.26C245.699 273.86 245.623 273.4 245.623 272.88C245.623 272.368 245.699 271.912 245.851 271.512C246.003 271.104 246.211 270.764 246.475 270.492C246.747 270.22 247.067 270.012 247.435 269.868C247.803 269.724 248.199 269.652 248.623 269.652C249.055 269.652 249.455 269.724 249.823 269.868C250.191 270.012 250.507 270.22 250.771 270.492C251.043 270.764 251.255 271.104 251.407 271.512C251.567 271.912 251.647 272.368 251.647 272.88C251.647 273.4 251.567 273.86 251.407 274.26C251.255 274.66 251.043 275 250.771 275.28C250.507 275.552 250.191 275.76 249.823 275.904C249.455 276.048 249.055 276.12 248.623 276.12ZM248.623 275.172C248.903 275.172 249.163 275.128 249.403 275.04C249.643 274.944 249.847 274.804 250.015 274.62C250.191 274.428 250.327 274.188 250.423 273.9C250.527 273.612 250.579 273.272 250.579 272.88C250.579 272.488 250.527 272.148 250.423 271.86C250.327 271.572 250.191 271.336 250.015 271.152C249.847 270.96 249.643 270.82 249.403 270.732C249.163 270.636 248.903 270.588 248.623 270.588C248.343 270.588 248.087 270.636 247.855 270.732C247.623 270.82 247.419 270.96 247.243 271.152C247.075 271.336 246.943 271.572 246.847 271.86C246.751 272.148 246.703 272.488 246.703 272.88C246.703 273.272 246.751 273.612 246.847 273.9C246.943 274.188 247.075 274.428 247.243 274.62C247.419 274.804 247.623 274.944 247.855 275.04C248.087 275.128 248.343 275.172 248.623 275.172ZM255.978 278.244C255.842 278.244 255.714 278.236 255.594 278.22C255.482 278.204 255.39 278.18 255.318 278.148L255.45 277.224C255.49 277.24 255.55 277.256 255.63 277.272C255.71 277.288 255.818 277.296 255.954 277.296C256.25 277.296 256.494 277.224 256.686 277.08C256.878 276.944 257.058 276.724 257.226 276.42L254.826 269.772H255.966L257.802 275.052L259.674 269.772H260.706L258.51 275.928C258.238 276.68 257.906 277.252 257.514 277.644C257.13 278.044 256.618 278.244 255.978 278.244ZM264.804 275.172C265.356 275.172 265.8 274.984 266.136 274.608C266.48 274.224 266.652 273.648 266.652 272.88C266.652 272.128 266.48 271.56 266.136 271.176C265.8 270.784 265.356 270.588 264.804 270.588C264.532 270.588 264.276 270.636 264.036 270.732C263.804 270.828 263.6 270.972 263.424 271.164C263.256 271.348 263.12 271.584 263.016 271.872C262.92 272.16 262.872 272.496 262.872 272.88C262.872 273.264 262.92 273.6 263.016 273.888C263.12 274.176 263.256 274.416 263.424 274.608C263.6 274.8 263.804 274.944 264.036 275.04C264.276 275.128 264.532 275.172 264.804 275.172ZM264.96 276.12C264.48 276.12 264.064 276.008 263.712 275.784C263.368 275.56 263.092 275.252 262.884 274.86V278.124H261.828V269.772H262.764L262.86 270.996C263.068 270.588 263.348 270.264 263.7 270.024C264.052 269.776 264.488 269.652 265.008 269.652C265.368 269.652 265.712 269.72 266.04 269.856C266.376 269.984 266.668 270.184 266.916 270.456C267.172 270.72 267.372 271.056 267.516 271.464C267.668 271.864 267.744 272.336 267.744 272.88C267.744 273.432 267.668 273.912 267.516 274.32C267.364 274.72 267.16 275.056 266.904 275.328C266.648 275.592 266.352 275.792 266.016 275.928C265.68 276.056 265.328 276.12 264.96 276.12ZM271.732 276.12C271.308 276.12 270.912 276.048 270.544 275.904C270.176 275.76 269.856 275.552 269.584 275.28C269.32 275 269.112 274.66 268.96 274.26C268.808 273.86 268.732 273.4 268.732 272.88C268.732 272.368 268.808 271.912 268.96 271.512C269.112 271.104 269.32 270.764 269.584 270.492C269.856 270.22 270.176 270.012 270.544 269.868C270.912 269.724 271.308 269.652 271.732 269.652C272.164 269.652 272.564 269.724 272.932 269.868C273.3 270.012 273.616 270.22 273.88 270.492C274.152 270.764 274.364 271.104 274.516 271.512C274.676 271.912 274.756 272.368 274.756 272.88C274.756 273.4 274.676 273.86 274.516 274.26C274.364 274.66 274.152 275 273.88 275.28C273.616 275.552 273.3 275.76 272.932 275.904C272.564 276.048 272.164 276.12 271.732 276.12ZM271.732 275.172C272.012 275.172 272.272 275.128 272.512 275.04C272.752 274.944 272.956 274.804 273.124 274.62C273.3 274.428 273.436 274.188 273.532 273.9C273.636 273.612 273.688 273.272 273.688 272.88C273.688 272.488 273.636 272.148 273.532 271.86C273.436 271.572 273.3 271.336 273.124 271.152C272.956 270.96 272.752 270.82 272.512 270.732C272.272 270.636 272.012 270.588 271.732 270.588C271.452 270.588 271.196 270.636 270.964 270.732C270.732 270.82 270.528 270.96 270.352 271.152C270.184 271.336 270.052 271.572 269.956 271.86C269.86 272.148 269.812 272.488 269.812 272.88C269.812 273.272 269.86 273.612 269.956 273.9C270.052 274.188 270.184 274.428 270.352 274.62C270.528 274.804 270.732 274.944 270.964 275.04C271.196 275.128 271.452 275.172 271.732 275.172ZM277.216 270.672V272.364H278.392C278.792 272.364 279.112 272.292 279.352 272.148C279.6 272.004 279.724 271.796 279.724 271.524C279.724 271.196 279.616 270.972 279.4 270.852C279.184 270.732 278.876 270.672 278.476 270.672H277.216ZM277.216 273.204V275.1H278.452C278.676 275.1 278.876 275.088 279.052 275.064C279.236 275.032 279.392 274.98 279.52 274.908C279.656 274.836 279.76 274.74 279.832 274.62C279.904 274.5 279.94 274.352 279.94 274.176C279.94 273.816 279.816 273.564 279.568 273.42C279.328 273.276 278.956 273.204 278.452 273.204H277.216ZM276.16 269.772H278.488C279.24 269.772 279.808 269.904 280.192 270.168C280.576 270.424 280.768 270.828 280.768 271.38C280.768 271.748 280.676 272.044 280.492 272.268C280.308 272.484 280.04 272.64 279.688 272.736C280.576 272.88 281.02 273.372 281.02 274.212C281.02 274.532 280.956 274.808 280.828 275.04C280.7 275.264 280.524 275.448 280.3 275.592C280.076 275.736 279.804 275.84 279.484 275.904C279.172 275.968 278.832 276 278.464 276H276.16V269.772ZM286.603 273.24H283.591V276H282.535V269.772H283.591V272.34H286.603V269.772H287.659V276H286.603V273.24ZM292.892 272.844V270.672H292.064C291.616 270.672 291.248 270.756 290.96 270.924C290.672 271.092 290.528 271.364 290.528 271.74C290.528 272.132 290.656 272.416 290.912 272.592C291.168 272.76 291.532 272.844 292.004 272.844H292.892ZM292.892 273.744H291.824L290.228 276H289.016L290.816 273.48C290.384 273.352 290.048 273.156 289.808 272.892C289.576 272.628 289.46 272.26 289.46 271.788C289.46 271.436 289.524 271.136 289.652 270.888C289.78 270.632 289.96 270.424 290.192 270.264C290.424 270.096 290.7 269.972 291.02 269.892C291.34 269.812 291.688 269.772 292.064 269.772H293.936V276H292.892V273.744Z" fill="black"/>
<rect x="54" y="373" width="512" height="88" rx="9" fill="white" stroke="#5282FF" stroke-width="2"/>
<path d="M62.2809 380.408H63.4209V387.488L68.1369 380.408H69.3609V389H68.2089V381.944L63.5049 389H62.2809V380.408ZM72.3198 383.792V389H71.3478V382.772H72.9678L74.8398 386.96L76.7838 382.772H78.3318V389H77.2878V383.792L75.1758 388.304H74.3358L72.3198 383.792ZM83.5678 385.844V383.672H82.7398C82.2918 383.672 81.9238 383.756 81.6358 383.924C81.3478 384.092 81.2038 384.364 81.2038 384.74C81.2038 385.132 81.3318 385.416 81.5878 385.592C81.8438 385.76 82.2078 385.844 82.6798 385.844H83.5678ZM83.5678 386.744H82.4998L80.9038 389H79.6918L81.4918 386.48C81.0598 386.352 80.7238 386.156 80.4838 385.892C80.2518 385.628 80.1358 385.26 80.1358 384.788C80.1358 384.436 80.1998 384.136 80.3278 383.888C80.4558 383.632 80.6358 383.424 80.8678 383.264C81.0998 383.096 81.3758 382.972 81.6958 382.892C82.0158 382.812 82.3638 382.772 82.7398 382.772H84.6118V389H83.5678V386.744ZM91.0843 386.54L89.3923 389H88.3243L90.5683 385.772L88.5523 382.772H89.8123L91.3123 384.992L92.7403 382.772H93.8323L91.8163 385.736L93.9883 389H92.7403L91.0843 386.54ZM97.4702 389.12C97.0462 389.12 96.6502 389.048 96.2822 388.904C95.9142 388.76 95.5942 388.552 95.3222 388.28C95.0582 388 94.8502 387.66 94.6982 387.26C94.5462 386.86 94.4702 386.4 94.4702 385.88C94.4702 385.368 94.5462 384.912 94.6982 384.512C94.8502 384.104 95.0582 383.764 95.3222 383.492C95.5942 383.22 95.9142 383.012 96.2822 382.868C96.6502 382.724 97.0462 382.652 97.4702 382.652C97.9022 382.652 98.3022 382.724 98.6702 382.868C99.0382 383.012 99.3542 383.22 99.6182 383.492C99.8902 383.764 100.102 384.104 100.254 384.512C100.414 384.912 100.494 385.368 100.494 385.88C100.494 386.4 100.414 386.86 100.254 387.26C100.102 387.66 99.8902 388 99.6182 388.28C99.3542 388.552 99.0382 388.76 98.6702 388.904C98.3022 389.048 97.9022 389.12 97.4702 389.12ZM97.4702 388.172C97.7502 388.172 98.0102 388.128 98.2502 388.04C98.4902 387.944 98.6942 387.804 98.8622 387.62C99.0382 387.428 99.1742 387.188 99.2702 386.9C99.3742 386.612 99.4262 386.272 99.4262 385.88C99.4262 385.488 99.3742 385.148 99.2702 384.86C99.1742 384.572 99.0382 384.336 98.8622 384.152C98.6942 383.96 98.4902 383.82 98.2502 383.732C98.0102 383.636 97.7502 383.588 97.4702 383.588C97.1902 383.588 96.9342 383.636 96.7022 383.732C96.4702 383.82 96.2662 383.96 96.0902 384.152C95.9222 384.336 95.7902 384.572 95.6942 384.86C95.5982 385.148 95.5502 385.488 95.5502 385.88C95.5502 386.272 95.5982 386.612 95.6942 386.9C95.7902 387.188 95.9222 387.428 96.0902 387.62C96.2662 387.804 96.4702 387.944 96.7022 388.04C96.9342 388.128 97.1902 388.172 97.4702 388.172ZM104.575 389.12C104.119 389.12 103.699 389.048 103.315 388.904C102.931 388.76 102.599 388.552 102.319 388.28C102.047 388 101.835 387.664 101.683 387.272C101.531 386.872 101.455 386.416 101.455 385.904C101.455 385.4 101.531 384.948 101.683 384.548C101.843 384.14 102.063 383.796 102.343 383.516C102.623 383.236 102.951 383.024 103.327 382.88C103.711 382.728 104.127 382.652 104.575 382.652C104.951 382.652 105.299 382.692 105.619 382.772C105.947 382.852 106.219 382.972 106.435 383.132L106.171 384.044C105.971 383.932 105.743 383.828 105.487 383.732C105.231 383.636 104.931 383.588 104.587 383.588C103.963 383.588 103.463 383.78 103.087 384.164C102.719 384.548 102.535 385.128 102.535 385.904C102.535 386.632 102.719 387.192 103.087 387.584C103.455 387.976 103.951 388.172 104.575 388.172C104.879 388.172 105.155 388.132 105.403 388.052C105.651 387.972 105.887 387.868 106.111 387.74L106.363 388.616C106.139 388.776 105.883 388.9 105.595 388.988C105.307 389.076 104.967 389.12 104.575 389.12ZM110.265 383.672V389H109.209V383.672H107.313V382.772H112.197V383.672H110.265ZM115.064 388.172C115.288 388.172 115.492 388.14 115.676 388.076C115.868 388.012 116.036 387.928 116.18 387.824C116.332 387.72 116.464 387.608 116.576 387.488C116.696 387.368 116.796 387.248 116.876 387.128V386.096H116.06C115.308 386.096 114.78 386.196 114.476 386.396C114.172 386.588 114.02 386.864 114.02 387.224C114.02 387.504 114.104 387.732 114.272 387.908C114.44 388.084 114.704 388.172 115.064 388.172ZM116.936 387.968C116.848 388.104 116.74 388.244 116.612 388.388C116.492 388.524 116.344 388.648 116.168 388.76C116 388.864 115.804 388.948 115.58 389.012C115.356 389.084 115.108 389.12 114.836 389.12C114.276 389.12 113.824 388.964 113.48 388.652C113.136 388.332 112.964 387.876 112.964 387.284C112.964 385.932 113.964 385.256 115.964 385.256H116.876V384.788C116.876 384.356 116.76 384.048 116.528 383.864C116.304 383.68 115.928 383.588 115.4 383.588C114.992 383.588 114.628 383.64 114.308 383.744C113.996 383.848 113.724 383.968 113.492 384.104L113.24 383.228C113.456 383.092 113.756 382.964 114.14 382.844C114.524 382.716 114.968 382.652 115.472 382.652C116.272 382.652 116.88 382.816 117.296 383.144C117.72 383.472 117.932 383.976 117.932 384.656V387.992C117.932 388.064 117.932 388.148 117.932 388.244C117.94 388.332 117.944 388.424 117.944 388.52C117.952 388.616 117.96 388.708 117.968 388.796C117.976 388.876 117.984 388.944 117.992 389H117.02C117.004 388.888 116.984 388.732 116.96 388.532C116.944 388.324 116.936 388.144 116.936 387.992V387.968Z" fill="black"/>
<rect x="159" y="149" width="407" height="88" rx="9" fill="white" stroke="#5282FF" stroke-width="2"/>
<rect x="293" y="174" width="100" height="50" rx="10" fill="#D6E1FF"/>
<path d="M334.793 203.12C334.337 203.12 333.917 203.048 333.533 202.904C333.149 202.76 332.817 202.552 332.537 202.28C332.265 202 332.053 201.664 331.901 201.272C331.749 200.872 331.673 200.416 331.673 199.904C331.673 199.4 331.749 198.948 331.901 198.548C332.061 198.14 332.281 197.796 332.561 197.516C332.841 197.236 333.169 197.024 333.545 196.88C333.929 196.728 334.345 196.652 334.793 196.652C335.169 196.652 335.517 196.692 335.837 196.772C336.165 196.852 336.437 196.972 336.653 197.132L336.389 198.044C336.189 197.932 335.961 197.828 335.705 197.732C335.449 197.636 335.149 197.588 334.805 197.588C334.181 197.588 333.681 197.78 333.305 198.164C332.937 198.548 332.753 199.128 332.753 199.904C332.753 200.632 332.937 201.192 333.305 201.584C333.673 201.976 334.169 202.172 334.793 202.172C335.097 202.172 335.373 202.132 335.621 202.052C335.869 201.972 336.105 201.868 336.329 201.74L336.581 202.616C336.357 202.776 336.101 202.9 335.813 202.988C335.525 203.076 335.185 203.12 334.793 203.12ZM340.591 203.12C340.167 203.12 339.771 203.048 339.403 202.904C339.035 202.76 338.715 202.552 338.443 202.28C338.179 202 337.971 201.66 337.819 201.26C337.667 200.86 337.591 200.4 337.591 199.88C337.591 199.368 337.667 198.912 337.819 198.512C337.971 198.104 338.179 197.764 338.443 197.492C338.715 197.22 339.035 197.012 339.403 196.868C339.771 196.724 340.167 196.652 340.591 196.652C341.023 196.652 341.423 196.724 341.791 196.868C342.159 197.012 342.475 197.22 342.739 197.492C343.011 197.764 343.223 198.104 343.375 198.512C343.535 198.912 343.615 199.368 343.615 199.88C343.615 200.4 343.535 200.86 343.375 201.26C343.223 201.66 343.011 202 342.739 202.28C342.475 202.552 342.159 202.76 341.791 202.904C341.423 203.048 341.023 203.12 340.591 203.12ZM340.591 202.172C340.871 202.172 341.131 202.128 341.371 202.04C341.611 201.944 341.815 201.804 341.983 201.62C342.159 201.428 342.295 201.188 342.391 200.9C342.495 200.612 342.547 200.272 342.547 199.88C342.547 199.488 342.495 199.148 342.391 198.86C342.295 198.572 342.159 198.336 341.983 198.152C341.815 197.96 341.611 197.82 341.371 197.732C341.131 197.636 340.871 197.588 340.591 197.588C340.311 197.588 340.055 197.636 339.823 197.732C339.591 197.82 339.387 197.96 339.211 198.152C339.043 198.336 338.911 198.572 338.815 198.86C338.719 199.148 338.671 199.488 338.671 199.88C338.671 200.272 338.719 200.612 338.815 200.9C338.911 201.188 339.043 201.428 339.211 201.62C339.387 201.804 339.591 201.944 339.823 202.04C340.055 202.128 340.311 202.172 340.591 202.172ZM346.076 203H345.02V196.772H345.956L346.052 197.888H346.076C346.244 197.544 346.496 197.252 346.832 197.012C347.168 196.772 347.608 196.652 348.152 196.652C348.624 196.652 349.016 196.764 349.328 196.988C349.648 197.212 349.856 197.556 349.952 198.02C350.128 197.596 350.396 197.264 350.756 197.024C351.124 196.776 351.568 196.652 352.088 196.652C352.664 196.652 353.12 196.816 353.456 197.144C353.792 197.464 353.96 197.96 353.96 198.632V203H352.892V198.764C352.892 198.356 352.792 198.06 352.592 197.876C352.392 197.684 352.12 197.588 351.776 197.588C351.544 197.588 351.34 197.624 351.164 197.696C350.988 197.76 350.832 197.852 350.696 197.972C350.56 198.092 350.436 198.232 350.324 198.392C350.212 198.552 350.108 198.72 350.012 198.896V203H348.956V198.644C348.956 198.244 348.856 197.968 348.656 197.816C348.456 197.664 348.184 197.588 347.84 197.588C347.616 197.588 347.416 197.616 347.24 197.672C347.064 197.728 346.904 197.808 346.76 197.912C346.624 198.016 346.5 198.144 346.388 198.296C346.276 198.44 346.172 198.6 346.076 198.776V203Z" fill="#262626"/>
<rect x="453" y="174" width="100" height="50" rx="10" fill="#D6E1FF"/>
<path d="M501.342 197.828C500.894 197.868 500.486 197.984 500.118 198.176C499.758 198.36 499.49 198.648 499.314 199.04V203H498.258V196.772H499.194L499.29 198.128H499.314C499.49 197.76 499.742 197.44 500.07 197.168C500.406 196.888 500.83 196.716 501.342 196.652V197.828ZM506.684 201.884C506.516 202.236 506.256 202.532 505.904 202.772C505.56 203.004 505.108 203.12 504.548 203.12C503.972 203.12 503.504 202.96 503.144 202.64C502.792 202.312 502.616 201.808 502.616 201.128V196.772H503.684V201.128C503.684 201.336 503.712 201.508 503.768 201.644C503.832 201.772 503.916 201.876 504.02 201.956C504.124 202.036 504.244 202.092 504.38 202.124C504.524 202.156 504.68 202.172 504.848 202.172C505.312 202.172 505.684 202.068 505.964 201.86C506.244 201.652 506.484 201.368 506.684 201.008V196.772H507.74V203H506.816L506.708 201.884H506.684Z" fill="#262626"/>
<rect x="293" y="286" width="100" height="50" rx="10" fill="#D6E1FF"/>
<path d="M325.808 314.172C326.072 314.172 326.32 314.128 326.552 314.04C326.784 313.944 326.984 313.8 327.152 313.608C327.328 313.416 327.464 313.176 327.56 312.888C327.664 312.6 327.716 312.264 327.716 311.88C327.716 311.496 327.664 311.16 327.56 310.872C327.464 310.584 327.328 310.344 327.152 310.152C326.984 309.96 326.784 309.82 326.552 309.732C326.32 309.636 326.072 309.588 325.808 309.588C325.256 309.588 324.804 309.784 324.452 310.176C324.1 310.56 323.924 311.128 323.924 311.88C323.924 312.648 324.1 313.224 324.452 313.608C324.804 313.984 325.256 314.172 325.808 314.172ZM327.752 313.788C327.56 314.188 327.292 314.512 326.948 314.76C326.604 315 326.168 315.12 325.64 315.12C325.264 315.12 324.908 315.056 324.572 314.928C324.236 314.792 323.94 314.592 323.684 314.328C323.428 314.056 323.224 313.72 323.072 313.32C322.92 312.912 322.844 312.432 322.844 311.88C322.844 311.336 322.92 310.864 323.072 310.464C323.224 310.056 323.428 309.72 323.684 309.456C323.94 309.184 324.236 308.984 324.572 308.856C324.916 308.72 325.276 308.652 325.652 308.652C326.124 308.652 326.532 308.752 326.876 308.952C327.22 309.144 327.496 309.42 327.704 309.78V306.408H328.76V315H327.836L327.752 313.788ZM333.168 315.12C332.744 315.12 332.348 315.048 331.98 314.904C331.612 314.76 331.292 314.552 331.02 314.28C330.756 314 330.548 313.66 330.396 313.26C330.244 312.86 330.168 312.4 330.168 311.88C330.168 311.368 330.244 310.912 330.396 310.512C330.548 310.104 330.756 309.764 331.02 309.492C331.292 309.22 331.612 309.012 331.98 308.868C332.348 308.724 332.744 308.652 333.168 308.652C333.6 308.652 334 308.724 334.368 308.868C334.736 309.012 335.052 309.22 335.316 309.492C335.588 309.764 335.8 310.104 335.952 310.512C336.112 310.912 336.192 311.368 336.192 311.88C336.192 312.4 336.112 312.86 335.952 313.26C335.8 313.66 335.588 314 335.316 314.28C335.052 314.552 334.736 314.76 334.368 314.904C334 315.048 333.6 315.12 333.168 315.12ZM333.168 314.172C333.448 314.172 333.708 314.128 333.948 314.04C334.188 313.944 334.392 313.804 334.56 313.62C334.736 313.428 334.872 313.188 334.968 312.9C335.072 312.612 335.124 312.272 335.124 311.88C335.124 311.488 335.072 311.148 334.968 310.86C334.872 310.572 334.736 310.336 334.56 310.152C334.392 309.96 334.188 309.82 333.948 309.732C333.708 309.636 333.448 309.588 333.168 309.588C332.888 309.588 332.632 309.636 332.4 309.732C332.168 309.82 331.964 309.96 331.788 310.152C331.62 310.336 331.488 310.572 331.392 310.86C331.296 311.148 331.248 311.488 331.248 311.88C331.248 312.272 331.296 312.612 331.392 312.9C331.488 313.188 331.62 313.428 331.788 313.62C331.964 313.804 332.168 313.944 332.4 314.04C332.632 314.128 332.888 314.172 333.168 314.172ZM338.652 315H337.596V308.772H338.532L338.628 309.888H338.652C338.82 309.544 339.072 309.252 339.408 309.012C339.744 308.772 340.184 308.652 340.728 308.652C341.2 308.652 341.592 308.764 341.904 308.988C342.224 309.212 342.432 309.556 342.528 310.02C342.704 309.596 342.972 309.264 343.332 309.024C343.7 308.776 344.144 308.652 344.664 308.652C345.24 308.652 345.696 308.816 346.032 309.144C346.368 309.464 346.536 309.96 346.536 310.632V315H345.468V310.764C345.468 310.356 345.368 310.06 345.168 309.876C344.968 309.684 344.696 309.588 344.352 309.588C344.12 309.588 343.916 309.624 343.74 309.696C343.564 309.76 343.408 309.852 343.272 309.972C343.136 310.092 343.012 310.232 342.9 310.392C342.788 310.552 342.684 310.72 342.588 310.896V315H341.532V310.644C341.532 310.244 341.432 309.968 341.232 309.816C341.032 309.664 340.76 309.588 340.416 309.588C340.192 309.588 339.992 309.616 339.816 309.672C339.64 309.728 339.48 309.808 339.336 309.912C339.2 310.016 339.076 310.144 338.964 310.296C338.852 310.44 338.748 310.6 338.652 310.776V315ZM350.011 314.172C350.235 314.172 350.439 314.14 350.623 314.076C350.815 314.012 350.983 313.928 351.127 313.824C351.279 313.72 351.411 313.608 351.523 313.488C351.643 313.368 351.743 313.248 351.823 313.128V312.096H351.007C350.255 312.096 349.727 312.196 349.423 312.396C349.119 312.588 348.967 312.864 348.967 313.224C348.967 313.504 349.051 313.732 349.219 313.908C349.387 314.084 349.651 314.172 350.011 314.172ZM351.883 313.968C351.795 314.104 351.687 314.244 351.559 314.388C351.439 314.524 351.291 314.648 351.115 314.76C350.947 314.864 350.751 314.948 350.527 315.012C350.303 315.084 350.055 315.12 349.783 315.12C349.223 315.12 348.771 314.964 348.427 314.652C348.083 314.332 347.911 313.876 347.911 313.284C347.911 311.932 348.911 311.256 350.911 311.256H351.823V310.788C351.823 310.356 351.707 310.048 351.475 309.864C351.251 309.68 350.875 309.588 350.347 309.588C349.939 309.588 349.575 309.64 349.255 309.744C348.943 309.848 348.671 309.968 348.439 310.104L348.187 309.228C348.403 309.092 348.703 308.964 349.087 308.844C349.471 308.716 349.915 308.652 350.419 308.652C351.219 308.652 351.827 308.816 352.243 309.144C352.667 309.472 352.879 309.976 352.879 310.656V313.992C352.879 314.064 352.879 314.148 352.879 314.244C352.887 314.332 352.891 314.424 352.891 314.52C352.899 314.616 352.907 314.708 352.915 314.796C352.923 314.876 352.931 314.944 352.939 315H351.967C351.951 314.888 351.931 314.732 351.907 314.532C351.891 314.324 351.883 314.144 351.883 313.992V313.968ZM355.198 307.86C354.99 307.86 354.818 307.796 354.682 307.668C354.554 307.532 354.49 307.368 354.49 307.176C354.49 306.992 354.554 306.832 354.682 306.696C354.818 306.552 354.99 306.48 355.198 306.48C355.406 306.48 355.57 306.552 355.69 306.696C355.81 306.832 355.87 306.992 355.87 307.176C355.87 307.368 355.81 307.532 355.69 307.668C355.57 307.796 355.406 307.86 355.198 307.86ZM355.714 308.772V315H354.658V308.772H355.714ZM360.505 309.588C360.025 309.588 359.633 309.7 359.329 309.924C359.033 310.14 358.793 310.42 358.609 310.764V315H357.553V308.772H358.549L358.585 309.888H358.609C358.777 309.528 359.041 309.232 359.401 309C359.761 308.768 360.217 308.652 360.769 308.652C361.385 308.652 361.873 308.816 362.233 309.144C362.601 309.464 362.785 309.96 362.785 310.632V315H361.729V310.74C361.729 310.308 361.621 310.008 361.405 309.84C361.189 309.672 360.889 309.588 360.505 309.588Z" fill="#262626"/>
<rect x="453" y="286" width="100" height="50" rx="10" fill="#D6E1FF"/>
<path d="M483.205 309.588C482.741 309.588 482.345 309.728 482.017 310.008C481.689 310.288 481.481 310.712 481.393 311.28H484.741C484.757 310.992 484.729 310.744 484.657 310.536C484.585 310.32 484.481 310.144 484.345 310.008C484.209 309.864 484.041 309.76 483.841 309.696C483.649 309.624 483.437 309.588 483.205 309.588ZM485.689 314.472C485.601 314.536 485.489 314.604 485.353 314.676C485.225 314.748 485.069 314.82 484.885 314.892C484.701 314.956 484.489 315.008 484.249 315.048C484.017 315.096 483.757 315.12 483.469 315.12C482.421 315.12 481.625 314.836 481.081 314.268C480.537 313.7 480.265 312.904 480.265 311.88C480.265 311.376 480.337 310.924 480.481 310.524C480.633 310.124 480.841 309.788 481.105 309.516C481.369 309.236 481.681 309.024 482.041 308.88C482.409 308.728 482.805 308.652 483.229 308.652C483.669 308.652 484.065 308.728 484.417 308.88C484.769 309.032 485.057 309.256 485.281 309.552C485.513 309.848 485.669 310.216 485.749 310.656C485.837 311.088 485.837 311.592 485.749 312.168H481.357C481.397 312.84 481.601 313.344 481.969 313.68C482.337 314.008 482.857 314.172 483.529 314.172C483.969 314.172 484.341 314.104 484.645 313.968C484.949 313.824 485.205 313.68 485.413 313.536L485.689 314.472ZM489.254 312.54L487.562 315H486.494L488.738 311.772L486.722 308.772H487.982L489.482 310.992L490.91 308.772H492.002L489.986 311.736L492.158 315H490.91L489.254 312.54ZM495.023 314.172C495.247 314.172 495.451 314.14 495.635 314.076C495.827 314.012 495.995 313.928 496.139 313.824C496.291 313.72 496.423 313.608 496.535 313.488C496.655 313.368 496.755 313.248 496.835 313.128V312.096H496.019C495.267 312.096 494.739 312.196 494.435 312.396C494.131 312.588 493.979 312.864 493.979 313.224C493.979 313.504 494.063 313.732 494.231 313.908C494.399 314.084 494.663 314.172 495.023 314.172ZM496.895 313.968C496.807 314.104 496.699 314.244 496.571 314.388C496.451 314.524 496.303 314.648 496.127 314.76C495.959 314.864 495.763 314.948 495.539 315.012C495.315 315.084 495.067 315.12 494.795 315.12C494.235 315.12 493.783 314.964 493.439 314.652C493.095 314.332 492.923 313.876 492.923 313.284C492.923 311.932 493.923 311.256 495.923 311.256H496.835V310.788C496.835 310.356 496.719 310.048 496.487 309.864C496.263 309.68 495.887 309.588 495.359 309.588C494.951 309.588 494.587 309.64 494.267 309.744C493.955 309.848 493.683 309.968 493.451 310.104L493.199 309.228C493.415 309.092 493.715 308.964 494.099 308.844C494.483 308.716 494.927 308.652 495.431 308.652C496.231 308.652 496.839 308.816 497.255 309.144C497.679 309.472 497.891 309.976 497.891 310.656V313.992C497.891 314.064 497.891 314.148 497.891 314.244C497.899 314.332 497.903 314.424 497.903 314.52C497.911 314.616 497.919 314.708 497.927 314.796C497.935 314.876 497.943 314.944 497.951 315H496.979C496.963 314.888 496.943 314.732 496.919 314.532C496.903 314.324 496.895 314.144 496.895 313.992V313.968ZM500.726 315H499.67V308.772H500.606L500.702 309.888H500.726C500.894 309.544 501.146 309.252 501.482 309.012C501.818 308.772 502.258 308.652 502.802 308.652C503.274 308.652 503.666 308.764 503.978 308.988C504.298 309.212 504.506 309.556 504.602 310.02C504.778 309.596 505.046 309.264 505.406 309.024C505.774 308.776 506.218 308.652 506.738 308.652C507.314 308.652 507.77 308.816 508.106 309.144C508.442 309.464 508.61 309.96 508.61 310.632V315H507.542V310.764C507.542 310.356 507.442 310.06 507.242 309.876C507.042 309.684 506.77 309.588 506.426 309.588C506.194 309.588 505.99 309.624 505.814 309.696C505.638 309.76 505.482 309.852 505.346 309.972C505.21 310.092 505.086 310.232 504.974 310.392C504.862 310.552 504.758 310.72 504.662 310.896V315H503.606V310.644C503.606 310.244 503.506 309.968 503.306 309.816C503.106 309.664 502.834 309.588 502.49 309.588C502.266 309.588 502.066 309.616 501.89 309.672C501.714 309.728 501.554 309.808 501.41 309.912C501.274 310.016 501.15 310.144 501.038 310.296C500.926 310.44 500.822 310.6 500.726 310.776V315ZM513.357 314.172C513.909 314.172 514.353 313.984 514.689 313.608C515.033 313.224 515.205 312.648 515.205 311.88C515.205 311.128 515.033 310.56 514.689 310.176C514.353 309.784 513.909 309.588 513.357 309.588C513.085 309.588 512.829 309.636 512.589 309.732C512.357 309.828 512.153 309.972 511.977 310.164C511.809 310.348 511.673 310.584 511.569 310.872C511.473 311.16 511.425 311.496 511.425 311.88C511.425 312.264 511.473 312.6 511.569 312.888C511.673 313.176 511.809 313.416 511.977 313.608C512.153 313.8 512.357 313.944 512.589 314.04C512.829 314.128 513.085 314.172 513.357 314.172ZM513.513 315.12C513.033 315.12 512.617 315.008 512.265 314.784C511.921 314.56 511.645 314.252 511.437 313.86V317.124H510.381V308.772H511.317L511.413 309.996C511.621 309.588 511.901 309.264 512.253 309.024C512.605 308.776 513.041 308.652 513.561 308.652C513.921 308.652 514.265 308.72 514.593 308.856C514.929 308.984 515.221 309.184 515.469 309.456C515.725 309.72 515.925 310.056 516.069 310.464C516.221 310.864 516.297 311.336 516.297 311.88C516.297 312.432 516.221 312.912 516.069 313.32C515.917 313.72 515.713 314.056 515.457 314.328C515.201 314.592 514.905 314.792 514.569 314.928C514.233 315.056 513.881 315.12 513.513 315.12ZM518.785 306.408V315H517.729V306.408H518.785ZM523.119 309.588C522.655 309.588 522.259 309.728 521.931 310.008C521.603 310.288 521.395 310.712 521.307 311.28H524.655C524.671 310.992 524.643 310.744 524.571 310.536C524.499 310.32 524.395 310.144 524.259 310.008C524.123 309.864 523.955 309.76 523.755 309.696C523.563 309.624 523.351 309.588 523.119 309.588ZM525.603 314.472C525.515 314.536 525.403 314.604 525.267 314.676C525.139 314.748 524.983 314.82 524.799 314.892C524.615 314.956 524.403 315.008 524.163 315.048C523.931 315.096 523.671 315.12 523.383 315.12C522.335 315.12 521.539 314.836 520.995 314.268C520.451 313.7 520.179 312.904 520.179 311.88C520.179 311.376 520.251 310.924 520.395 310.524C520.547 310.124 520.755 309.788 521.019 309.516C521.283 309.236 521.595 309.024 521.955 308.88C522.323 308.728 522.719 308.652 523.143 308.652C523.583 308.652 523.979 308.728 524.331 308.88C524.683 309.032 524.971 309.256 525.195 309.552C525.427 309.848 525.583 310.216 525.663 310.656C525.751 311.088 525.751 311.592 525.663 312.168H521.271C521.311 312.84 521.515 313.344 521.883 313.68C522.251 314.008 522.771 314.172 523.443 314.172C523.883 314.172 524.255 314.104 524.559 313.968C524.863 313.824 525.119 313.68 525.327 313.536L525.603 314.472Z" fill="#262626"/>
<rect x="133" y="398" width="100" height="50" rx="10" fill="#D6E1FF"/>
<path d="M173.554 427H172.498V420.772H173.434L173.53 421.888H173.554C173.722 421.544 173.974 421.252 174.31 421.012C174.646 420.772 175.086 420.652 175.63 420.652C176.102 420.652 176.494 420.764 176.806 420.988C177.126 421.212 177.334 421.556 177.43 422.02C177.606 421.596 177.874 421.264 178.234 421.024C178.602 420.776 179.046 420.652 179.566 420.652C180.142 420.652 180.598 420.816 180.934 421.144C181.27 421.464 181.438 421.96 181.438 422.632V427H180.37V422.764C180.37 422.356 180.27 422.06 180.07 421.876C179.87 421.684 179.598 421.588 179.254 421.588C179.022 421.588 178.818 421.624 178.642 421.696C178.466 421.76 178.31 421.852 178.174 421.972C178.038 422.092 177.914 422.232 177.802 422.392C177.69 422.552 177.586 422.72 177.49 422.896V427H176.434V422.644C176.434 422.244 176.334 421.968 176.134 421.816C175.934 421.664 175.662 421.588 175.318 421.588C175.094 421.588 174.894 421.616 174.718 421.672C174.542 421.728 174.382 421.808 174.238 421.912C174.102 422.016 173.978 422.144 173.866 422.296C173.754 422.44 173.65 422.6 173.554 422.776V427ZM184.913 426.172C185.137 426.172 185.341 426.14 185.525 426.076C185.717 426.012 185.885 425.928 186.029 425.824C186.181 425.72 186.313 425.608 186.425 425.488C186.545 425.368 186.645 425.248 186.725 425.128V424.096H185.909C185.157 424.096 184.629 424.196 184.325 424.396C184.021 424.588 183.869 424.864 183.869 425.224C183.869 425.504 183.953 425.732 184.121 425.908C184.289 426.084 184.553 426.172 184.913 426.172ZM186.785 425.968C186.697 426.104 186.589 426.244 186.461 426.388C186.341 426.524 186.193 426.648 186.017 426.76C185.849 426.864 185.653 426.948 185.429 427.012C185.205 427.084 184.957 427.12 184.685 427.12C184.125 427.12 183.673 426.964 183.329 426.652C182.985 426.332 182.813 425.876 182.813 425.284C182.813 423.932 183.813 423.256 185.813 423.256H186.725V422.788C186.725 422.356 186.609 422.048 186.377 421.864C186.153 421.68 185.777 421.588 185.249 421.588C184.841 421.588 184.477 421.64 184.157 421.744C183.845 421.848 183.573 421.968 183.341 422.104L183.089 421.228C183.305 421.092 183.605 420.964 183.989 420.844C184.373 420.716 184.817 420.652 185.321 420.652C186.121 420.652 186.729 420.816 187.145 421.144C187.569 421.472 187.781 421.976 187.781 422.656V425.992C187.781 426.064 187.781 426.148 187.781 426.244C187.789 426.332 187.793 426.424 187.793 426.52C187.801 426.616 187.809 426.708 187.817 426.796C187.825 426.876 187.833 426.944 187.841 427H186.869C186.853 426.888 186.833 426.732 186.809 426.532C186.793 426.324 186.785 426.144 186.785 425.992V425.968ZM190.101 419.86C189.893 419.86 189.721 419.796 189.585 419.668C189.457 419.532 189.393 419.368 189.393 419.176C189.393 418.992 189.457 418.832 189.585 418.696C189.721 418.552 189.893 418.48 190.101 418.48C190.309 418.48 190.473 418.552 190.593 418.696C190.713 418.832 190.773 418.992 190.773 419.176C190.773 419.368 190.713 419.532 190.593 419.668C190.473 419.796 190.309 419.86 190.101 419.86ZM190.617 420.772V427H189.561V420.772H190.617ZM193.511 418.408V427H192.455V418.408H193.511Z" fill="#262626"/>
<rect x="293" y="398" width="100" height="50" rx="10" fill="#D6E1FF"/>
<path d="M337.102 421.672V427H336.046V421.672H335.29V420.772H336.046V420.616C336.046 419.88 336.242 419.308 336.634 418.9C337.026 418.492 337.562 418.288 338.242 418.288C338.578 418.288 338.862 418.328 339.094 418.408L338.902 419.356C338.846 419.332 338.762 419.308 338.65 419.284C338.538 419.252 338.418 419.236 338.29 419.236C337.922 419.236 337.63 419.348 337.414 419.572C337.206 419.796 337.102 420.144 337.102 420.616V420.772H338.902V421.672H337.102ZM343.46 426.832C343.332 426.912 343.148 426.98 342.908 427.036C342.668 427.092 342.432 427.12 342.2 427.12C341.896 427.12 341.636 427.076 341.42 426.988C341.204 426.9 341.028 426.784 340.892 426.64C340.756 426.488 340.656 426.32 340.592 426.136C340.528 425.944 340.496 425.748 340.496 425.548V421.672H339.752V420.772H340.496V419.464H341.564V420.772H343.364V421.672H341.564V425.416C341.564 425.68 341.628 425.872 341.756 425.992C341.892 426.112 342.088 426.172 342.344 426.172C342.504 426.172 342.664 426.152 342.824 426.112C342.992 426.064 343.144 426 343.28 425.92L343.46 426.832ZM347.802 426.172C348.354 426.172 348.798 425.984 349.134 425.608C349.478 425.224 349.65 424.648 349.65 423.88C349.65 423.128 349.478 422.56 349.134 422.176C348.798 421.784 348.354 421.588 347.802 421.588C347.53 421.588 347.274 421.636 347.034 421.732C346.802 421.828 346.598 421.972 346.422 422.164C346.254 422.348 346.118 422.584 346.014 422.872C345.918 423.16 345.87 423.496 345.87 423.88C345.87 424.264 345.918 424.6 346.014 424.888C346.118 425.176 346.254 425.416 346.422 425.608C346.598 425.8 346.802 425.944 347.034 426.04C347.274 426.128 347.53 426.172 347.802 426.172ZM347.958 427.12C347.478 427.12 347.062 427.008 346.71 426.784C346.366 426.56 346.09 426.252 345.882 425.86V429.124H344.826V420.772H345.762L345.858 421.996C346.066 421.588 346.346 421.264 346.698 421.024C347.05 420.776 347.486 420.652 348.006 420.652C348.366 420.652 348.71 420.72 349.038 420.856C349.374 420.984 349.666 421.184 349.914 421.456C350.17 421.72 350.37 422.056 350.514 422.464C350.666 422.864 350.742 423.336 350.742 423.88C350.742 424.432 350.666 424.912 350.514 425.32C350.362 425.72 350.158 426.056 349.902 426.328C349.646 426.592 349.35 426.792 349.014 426.928C348.678 427.056 348.326 427.12 347.958 427.12Z" fill="#262626"/>
<rect x="453" y="398" width="100" height="50" rx="10" fill="#D6E1FF"/>
<path d="M489.481 420.772H490.597L491.725 426.172L493.177 420.772H494.365L495.781 426.112L496.897 420.772H497.929L496.585 427H494.965L493.693 422.224L492.409 427H490.837L489.481 420.772ZM498.774 420.772H499.89L501.018 426.172L502.47 420.772H503.658L505.074 426.112L506.19 420.772H507.222L505.878 427H504.258L502.986 422.224L501.702 427H500.13L498.774 420.772ZM508.066 420.772H509.182L510.31 426.172L511.762 420.772H512.95L514.366 426.112L515.482 420.772H516.514L515.17 427H513.55L512.278 422.224L510.994 427H509.422L508.066 420.772Z" fill="#262626"/>
<path d="M172.154 157.428H169.106C169.082 158.348 169.046 159.16 168.998 159.864C168.95 160.56 168.882 161.172 168.794 161.7C168.714 162.22 168.606 162.668 168.47 163.044C168.342 163.412 168.186 163.724 168.002 163.98H172.154V157.428ZM173.222 165H167.294L167.162 167.04H166.154V163.98H166.73C167.002 163.732 167.218 163.4 167.378 162.984C167.546 162.56 167.674 162.04 167.762 161.424C167.858 160.808 167.926 160.088 167.966 159.264C168.006 158.432 168.038 157.48 168.062 156.408H173.294V163.98H174.386V167.04H173.354L173.222 165ZM178.322 165.12C177.898 165.12 177.502 165.048 177.134 164.904C176.766 164.76 176.446 164.552 176.174 164.28C175.91 164 175.702 163.66 175.55 163.26C175.398 162.86 175.322 162.4 175.322 161.88C175.322 161.368 175.398 160.912 175.55 160.512C175.702 160.104 175.91 159.764 176.174 159.492C176.446 159.22 176.766 159.012 177.134 158.868C177.502 158.724 177.898 158.652 178.322 158.652C178.754 158.652 179.154 158.724 179.522 158.868C179.89 159.012 180.206 159.22 180.47 159.492C180.742 159.764 180.954 160.104 181.106 160.512C181.266 160.912 181.346 161.368 181.346 161.88C181.346 162.4 181.266 162.86 181.106 163.26C180.954 163.66 180.742 164 180.47 164.28C180.206 164.552 179.89 164.76 179.522 164.904C179.154 165.048 178.754 165.12 178.322 165.12ZM178.322 164.172C178.602 164.172 178.862 164.128 179.102 164.04C179.342 163.944 179.546 163.804 179.714 163.62C179.89 163.428 180.026 163.188 180.122 162.9C180.226 162.612 180.278 162.272 180.278 161.88C180.278 161.488 180.226 161.148 180.122 160.86C180.026 160.572 179.89 160.336 179.714 160.152C179.546 159.96 179.342 159.82 179.102 159.732C178.862 159.636 178.602 159.588 178.322 159.588C178.042 159.588 177.786 159.636 177.554 159.732C177.322 159.82 177.118 159.96 176.942 160.152C176.774 160.336 176.642 160.572 176.546 160.86C176.45 161.148 176.402 161.488 176.402 161.88C176.402 162.272 176.45 162.612 176.546 162.9C176.642 163.188 176.774 163.428 176.942 163.62C177.118 163.804 177.322 163.944 177.554 164.04C177.786 164.128 178.042 164.172 178.322 164.172ZM183.722 159.792V165H182.75V158.772H184.37L186.242 162.96L188.186 158.772H189.734V165H188.69V159.792L186.578 164.304H185.738L183.722 159.792ZM194.082 159.588C193.618 159.588 193.222 159.728 192.894 160.008C192.566 160.288 192.358 160.712 192.27 161.28H195.618C195.634 160.992 195.606 160.744 195.534 160.536C195.462 160.32 195.358 160.144 195.222 160.008C195.086 159.864 194.918 159.76 194.718 159.696C194.526 159.624 194.314 159.588 194.082 159.588ZM196.566 164.472C196.478 164.536 196.366 164.604 196.23 164.676C196.102 164.748 195.946 164.82 195.762 164.892C195.578 164.956 195.366 165.008 195.126 165.048C194.894 165.096 194.634 165.12 194.346 165.12C193.298 165.12 192.502 164.836 191.958 164.268C191.414 163.7 191.142 162.904 191.142 161.88C191.142 161.376 191.214 160.924 191.358 160.524C191.51 160.124 191.718 159.788 191.982 159.516C192.246 159.236 192.558 159.024 192.918 158.88C193.286 158.728 193.682 158.652 194.106 158.652C194.546 158.652 194.942 158.728 195.294 158.88C195.646 159.032 195.934 159.256 196.158 159.552C196.39 159.848 196.546 160.216 196.626 160.656C196.714 161.088 196.714 161.592 196.626 162.168H192.234C192.274 162.84 192.478 163.344 192.846 163.68C193.214 164.008 193.734 164.172 194.406 164.172C194.846 164.172 195.218 164.104 195.522 163.968C195.826 163.824 196.082 163.68 196.29 163.536L196.566 164.472ZM202.17 162.24H199.158V165H198.102V158.772H199.158V161.34H202.17V158.772H203.226V165H202.17V162.24ZM208.65 159.672V161.364H209.826C210.226 161.364 210.546 161.292 210.786 161.148C211.034 161.004 211.158 160.796 211.158 160.524C211.158 160.196 211.05 159.972 210.834 159.852C210.618 159.732 210.31 159.672 209.91 159.672H208.65ZM208.65 162.204V164.1H209.886C210.11 164.1 210.31 164.088 210.486 164.064C210.67 164.032 210.826 163.98 210.954 163.908C211.09 163.836 211.194 163.74 211.266 163.62C211.338 163.5 211.374 163.352 211.374 163.176C211.374 162.816 211.25 162.564 211.002 162.42C210.762 162.276 210.39 162.204 209.886 162.204H208.65ZM207.594 158.772H209.922C210.674 158.772 211.242 158.904 211.626 159.168C212.01 159.424 212.202 159.828 212.202 160.38C212.202 160.748 212.11 161.044 211.926 161.268C211.742 161.484 211.474 161.64 211.122 161.736C212.01 161.88 212.454 162.372 212.454 163.212C212.454 163.532 212.39 163.808 212.262 164.04C212.134 164.264 211.958 164.448 211.734 164.592C211.51 164.736 211.238 164.84 210.918 164.904C210.606 164.968 210.266 165 209.898 165H207.594V158.772ZM216.465 159.588C216.001 159.588 215.605 159.728 215.277 160.008C214.949 160.288 214.741 160.712 214.653 161.28H218.001C218.017 160.992 217.989 160.744 217.917 160.536C217.845 160.32 217.741 160.144 217.605 160.008C217.469 159.864 217.301 159.76 217.101 159.696C216.909 159.624 216.697 159.588 216.465 159.588ZM218.949 164.472C218.861 164.536 218.749 164.604 218.613 164.676C218.485 164.748 218.329 164.82 218.145 164.892C217.961 164.956 217.749 165.008 217.509 165.048C217.277 165.096 217.017 165.12 216.729 165.12C215.681 165.12 214.885 164.836 214.341 164.268C213.797 163.7 213.525 162.904 213.525 161.88C213.525 161.376 213.597 160.924 213.741 160.524C213.893 160.124 214.101 159.788 214.365 159.516C214.629 159.236 214.941 159.024 215.301 158.88C215.669 158.728 216.065 158.652 216.489 158.652C216.929 158.652 217.325 158.728 217.677 158.88C218.029 159.032 218.317 159.256 218.541 159.552C218.773 159.848 218.929 160.216 219.009 160.656C219.097 161.088 219.097 161.592 219.009 162.168H214.617C214.657 162.84 214.861 163.344 215.229 163.68C215.597 164.008 216.117 164.172 216.789 164.172C217.229 164.172 217.601 164.104 217.905 163.968C218.209 163.824 218.465 163.68 218.673 163.536L218.949 164.472ZM223.461 164.172C224.013 164.172 224.457 163.984 224.793 163.608C225.137 163.224 225.309 162.648 225.309 161.88C225.309 161.128 225.137 160.56 224.793 160.176C224.457 159.784 224.013 159.588 223.461 159.588C223.189 159.588 222.933 159.636 222.693 159.732C222.461 159.828 222.257 159.972 222.081 160.164C221.913 160.348 221.777 160.584 221.673 160.872C221.577 161.16 221.529 161.496 221.529 161.88C221.529 162.264 221.577 162.6 221.673 162.888C221.777 163.176 221.913 163.416 222.081 163.608C222.257 163.8 222.461 163.944 222.693 164.04C222.933 164.128 223.189 164.172 223.461 164.172ZM223.617 165.12C223.137 165.12 222.721 165.008 222.369 164.784C222.025 164.56 221.749 164.252 221.541 163.86V167.124H220.485V158.772H221.421L221.517 159.996C221.725 159.588 222.005 159.264 222.357 159.024C222.709 158.776 223.145 158.652 223.665 158.652C224.025 158.652 224.369 158.72 224.697 158.856C225.033 158.984 225.325 159.184 225.573 159.456C225.829 159.72 226.029 160.056 226.173 160.464C226.325 160.864 226.401 161.336 226.401 161.88C226.401 162.432 226.325 162.912 226.173 163.32C226.021 163.72 225.817 164.056 225.561 164.328C225.305 164.592 225.009 164.792 224.673 164.928C224.337 165.056 223.985 165.12 223.617 165.12ZM229.744 162.54L228.052 165H226.984L229.228 161.772L227.212 158.772H228.472L229.972 160.992L231.4 158.772H232.492L230.476 161.736L232.648 165H231.4L229.744 162.54ZM237.877 162.24H234.865V165H233.809V158.772H234.865V161.34H237.877V158.772H238.933V165H237.877V162.24ZM243.277 159.588C242.813 159.588 242.417 159.728 242.089 160.008C241.761 160.288 241.553 160.712 241.465 161.28H244.813C244.829 160.992 244.801 160.744 244.729 160.536C244.657 160.32 244.553 160.144 244.417 160.008C244.281 159.864 244.113 159.76 243.913 159.696C243.721 159.624 243.509 159.588 243.277 159.588ZM245.761 164.472C245.673 164.536 245.561 164.604 245.425 164.676C245.297 164.748 245.141 164.82 244.957 164.892C244.773 164.956 244.561 165.008 244.321 165.048C244.089 165.096 243.829 165.12 243.541 165.12C242.493 165.12 241.697 164.836 241.153 164.268C240.609 163.7 240.337 162.904 240.337 161.88C240.337 161.376 240.409 160.924 240.553 160.524C240.705 160.124 240.913 159.788 241.177 159.516C241.441 159.236 241.753 159.024 242.113 158.88C242.481 158.728 242.877 158.652 243.301 158.652C243.741 158.652 244.137 158.728 244.489 158.88C244.841 159.032 245.129 159.256 245.353 159.552C245.585 159.848 245.741 160.216 245.821 160.656C245.909 161.088 245.909 161.592 245.821 162.168H241.429C241.469 162.84 241.673 163.344 242.041 163.68C242.409 164.008 242.929 164.172 243.601 164.172C244.041 164.172 244.413 164.104 244.717 163.968C245.021 163.824 245.277 163.68 245.485 163.536L245.761 164.472ZM248.353 159.672V165H247.297V158.772H251.137V159.672H248.353ZM254.916 165.12C254.492 165.12 254.096 165.048 253.728 164.904C253.36 164.76 253.04 164.552 252.768 164.28C252.504 164 252.296 163.66 252.144 163.26C251.992 162.86 251.916 162.4 251.916 161.88C251.916 161.368 251.992 160.912 252.144 160.512C252.296 160.104 252.504 159.764 252.768 159.492C253.04 159.22 253.36 159.012 253.728 158.868C254.096 158.724 254.492 158.652 254.916 158.652C255.348 158.652 255.748 158.724 256.116 158.868C256.484 159.012 256.8 159.22 257.064 159.492C257.336 159.764 257.548 160.104 257.7 160.512C257.86 160.912 257.94 161.368 257.94 161.88C257.94 162.4 257.86 162.86 257.7 163.26C257.548 163.66 257.336 164 257.064 164.28C256.8 164.552 256.484 164.76 256.116 164.904C255.748 165.048 255.348 165.12 254.916 165.12ZM254.916 164.172C255.196 164.172 255.456 164.128 255.696 164.04C255.936 163.944 256.14 163.804 256.308 163.62C256.484 163.428 256.62 163.188 256.716 162.9C256.82 162.612 256.872 162.272 256.872 161.88C256.872 161.488 256.82 161.148 256.716 160.86C256.62 160.572 256.484 160.336 256.308 160.152C256.14 159.96 255.936 159.82 255.696 159.732C255.456 159.636 255.196 159.588 254.916 159.588C254.636 159.588 254.38 159.636 254.148 159.732C253.916 159.82 253.712 159.96 253.536 160.152C253.368 160.336 253.236 160.572 253.14 160.86C253.044 161.148 252.996 161.488 252.996 161.88C252.996 162.272 253.044 162.612 253.14 162.9C253.236 163.188 253.368 163.428 253.536 163.62C253.712 163.804 253.916 163.944 254.148 164.04C254.38 164.128 254.636 164.172 254.916 164.172ZM262.271 167.244C262.135 167.244 262.007 167.236 261.887 167.22C261.775 167.204 261.683 167.18 261.611 167.148L261.743 166.224C261.783 166.24 261.843 166.256 261.923 166.272C262.003 166.288 262.111 166.296 262.247 166.296C262.543 166.296 262.787 166.224 262.979 166.08C263.171 165.944 263.351 165.724 263.519 165.42L261.119 158.772H262.259L264.095 164.052L265.967 158.772H266.999L264.803 164.928C264.531 165.68 264.199 166.252 263.807 166.644C263.423 167.044 262.911 167.244 262.271 167.244ZM271.097 164.172C271.649 164.172 272.093 163.984 272.429 163.608C272.773 163.224 272.945 162.648 272.945 161.88C272.945 161.128 272.773 160.56 272.429 160.176C272.093 159.784 271.649 159.588 271.097 159.588C270.825 159.588 270.569 159.636 270.329 159.732C270.097 159.828 269.893 159.972 269.717 160.164C269.549 160.348 269.413 160.584 269.309 160.872C269.213 161.16 269.165 161.496 269.165 161.88C269.165 162.264 269.213 162.6 269.309 162.888C269.413 163.176 269.549 163.416 269.717 163.608C269.893 163.8 270.097 163.944 270.329 164.04C270.569 164.128 270.825 164.172 271.097 164.172ZM271.253 165.12C270.773 165.12 270.357 165.008 270.005 164.784C269.661 164.56 269.385 164.252 269.177 163.86V167.124H268.121V158.772H269.057L269.153 159.996C269.361 159.588 269.641 159.264 269.993 159.024C270.345 158.776 270.781 158.652 271.301 158.652C271.661 158.652 272.005 158.72 272.333 158.856C272.669 158.984 272.961 159.184 273.209 159.456C273.465 159.72 273.665 160.056 273.809 160.464C273.961 160.864 274.037 161.336 274.037 161.88C274.037 162.432 273.961 162.912 273.809 163.32C273.657 163.72 273.453 164.056 273.197 164.328C272.941 164.592 272.645 164.792 272.309 164.928C271.973 165.056 271.621 165.12 271.253 165.12ZM278.025 165.12C277.601 165.12 277.205 165.048 276.837 164.904C276.469 164.76 276.149 164.552 275.877 164.28C275.613 164 275.405 163.66 275.253 163.26C275.101 162.86 275.025 162.4 275.025 161.88C275.025 161.368 275.101 160.912 275.253 160.512C275.405 160.104 275.613 159.764 275.877 159.492C276.149 159.22 276.469 159.012 276.837 158.868C277.205 158.724 277.601 158.652 278.025 158.652C278.457 158.652 278.857 158.724 279.225 158.868C279.593 159.012 279.909 159.22 280.173 159.492C280.445 159.764 280.657 160.104 280.809 160.512C280.969 160.912 281.049 161.368 281.049 161.88C281.049 162.4 280.969 162.86 280.809 163.26C280.657 163.66 280.445 164 280.173 164.28C279.909 164.552 279.593 164.76 279.225 164.904C278.857 165.048 278.457 165.12 278.025 165.12ZM278.025 164.172C278.305 164.172 278.565 164.128 278.805 164.04C279.045 163.944 279.249 163.804 279.417 163.62C279.593 163.428 279.729 163.188 279.825 162.9C279.929 162.612 279.981 162.272 279.981 161.88C279.981 161.488 279.929 161.148 279.825 160.86C279.729 160.572 279.593 160.336 279.417 160.152C279.249 159.96 279.045 159.82 278.805 159.732C278.565 159.636 278.305 159.588 278.025 159.588C277.745 159.588 277.489 159.636 277.257 159.732C277.025 159.82 276.821 159.96 276.645 160.152C276.477 160.336 276.345 160.572 276.249 160.86C276.153 161.148 276.105 161.488 276.105 161.88C276.105 162.272 276.153 162.612 276.249 162.9C276.345 163.188 276.477 163.428 276.645 163.62C276.821 163.804 277.025 163.944 277.257 164.04C277.489 164.128 277.745 164.172 278.025 164.172ZM283.509 159.672V161.364H284.685C285.085 161.364 285.405 161.292 285.645 161.148C285.893 161.004 286.017 160.796 286.017 160.524C286.017 160.196 285.909 159.972 285.693 159.852C285.477 159.732 285.169 159.672 284.769 159.672H283.509ZM283.509 162.204V164.1H284.745C284.969 164.1 285.169 164.088 285.345 164.064C285.529 164.032 285.685 163.98 285.813 163.908C285.949 163.836 286.053 163.74 286.125 163.62C286.197 163.5 286.233 163.352 286.233 163.176C286.233 162.816 286.109 162.564 285.861 162.42C285.621 162.276 285.249 162.204 284.745 162.204H283.509ZM282.453 158.772H284.781C285.533 158.772 286.101 158.904 286.485 159.168C286.869 159.424 287.061 159.828 287.061 160.38C287.061 160.748 286.969 161.044 286.785 161.268C286.601 161.484 286.333 161.64 285.981 161.736C286.869 161.88 287.313 162.372 287.313 163.212C287.313 163.532 287.249 163.808 287.121 164.04C286.993 164.264 286.817 164.448 286.593 164.592C286.369 164.736 286.097 164.84 285.777 164.904C285.465 164.968 285.125 165 284.757 165H282.453V158.772ZM292.896 162.24H289.884V165H288.828V158.772H289.884V161.34H292.896V158.772H293.952V165H292.896V162.24ZM299.185 161.844V159.672H298.357C297.909 159.672 297.541 159.756 297.253 159.924C296.965 160.092 296.821 160.364 296.821 160.74C296.821 161.132 296.949 161.416 297.205 161.592C297.461 161.76 297.825 161.844 298.297 161.844H299.185ZM299.185 162.744H298.117L296.521 165H295.309L297.109 162.48C296.677 162.352 296.341 162.156 296.101 161.892C295.869 161.628 295.753 161.26 295.753 160.788C295.753 160.436 295.817 160.136 295.945 159.888C296.073 159.632 296.253 159.424 296.485 159.264C296.717 159.096 296.993 158.972 297.313 158.892C297.633 158.812 297.981 158.772 298.357 158.772H300.229V165H299.185V162.744Z" fill="black"/>
<path d="M343 174L348.774 164L337.226 164L343 174ZM495 137.9L495 136.9L495 137.9ZM502 117C502 124.322 502 129.329 502 132.711L504 132.711C504 129.329 504 124.322 504 117L502 117ZM495 136.9L351 136.9L351 138.9L495 138.9L495 136.9ZM342 145.9L342 165L344 165L344 145.9L342 145.9ZM351 136.9C346.029 136.9 342 140.929 342 145.9L344 145.9C344 142.034 347.134 138.9 351 138.9L351 136.9ZM502 132.711C502 133.68 501.804 134.373 501.508 134.882C501.214 135.385 500.782 135.773 500.199 136.073C498.983 136.699 497.198 136.9 495 136.9L495 138.9C497.22 138.9 499.435 138.716 501.114 137.852C501.979 137.406 502.719 136.773 503.235 135.89C503.748 135.011 504 133.951 504 132.711L502 132.711Z" fill="#4E496B"/>
<path d="M503 174L508.774 164L497.226 164L503 174ZM503 136L504 136L504 135.926L503.989 135.854L503 136ZM502 114C502 129.993 502 135.484 502 136.992C502 137.181 502 137.303 502 137.38C502 137.419 502 137.443 502 137.458C502 137.469 502 137.466 502 137.472C502 137.472 502 137.473 502 137.473C502 137.473 502 137.473 502 137.473C503 138.473 504 137.473 504 137.473C504 137.473 504 137.473 504 137.472C504 137.472 504 137.471 504 137.471C504 137.455 504 137.27 504 137.059C504 136.887 504 136.531 504 136.366C504 136.363 504 136.36 504 136.356C504 136.353 504 136.35 504 136.347C504 136.343 504 136.34 504 136.337C504 136.334 504 136.331 504 136.327C504 136.324 504 136.321 504 136.318C504 136.315 504 136.312 504 136.309C504 136.306 504 136.302 504 136.299C504 136.296 504 136.293 504 136.29C504 136.287 504 136.284 504 136.281C504 136.278 504 136.275 504 136.272C504 136.269 504 136.266 504 136.263C504 136.26 504 136.257 504 136.254C504 136.251 504 136.249 504 136.246C504 136.243 504 136.24 504 136.237C504 136.234 504 136.231 504 136.229C504 136.226 504 136.223 504 136.22C504 136.218 504 136.215 504 136.212C504 136.209 504 136.207 504 136.204C504 136.201 504 136.199 504 136.196C504 136.193 504 136.191 504 136.188C504 136.185 504 136.183 504 136.18C504 136.178 504 136.175 504 136.173C504 136.17 504 136.168 504 136.165C504 136.163 504 136.16 504 136.158C504 136.156 504 136.153 504 136.151C504 136.148 504 136.146 504 136.144C504 136.141 504 136.139 504 136.137C504 136.134 504 136.132 504 136.13C504 136.128 504 136.125 504 136.123C504 136.121 504 136.119 504 136.117C504 136.115 504 136.113 504 136.11C504 136.108 504 136.106 504 136.104C504 136.102 504 136.1 504 136.098C504 136.096 504 136.094 504 136.092C504 136.09 504 136.088 504 136.087C504 136.085 504 136.083 504 136.081C504 136.079 504 136.077 504 136.076C504 136.074 504 136.072 504 136.07C504 136.069 504 136.067 504 136.065C504 136.064 504 136.062 504 136.06C504 136.059 504 136.057 504 136.056C504 136.054 504 136.053 504 136.051C504 136.05 504 136.048 504 136.047C504 136.045 504 136.044 504 136.043C504 136.041 504 136.04 504 136.039C504 136.037 504 136.036 504 136.035C504 136.033 504 136.032 504 136.031C504 136.03 504 136.029 504 136.028C504 136.027 504 136.025 504 136.024C504 136.023 504 136.022 504 136.021C504 136.02 504 136.019 504 136.018C504 136.018 504 136.017 504 136.016C504 136.015 504 136.014 504 136.013C504 136.013 504 136.012 504 136.011C504 136.01 504 136.01 504 136.009C504 136.008 504 136.008 504 136.007C504 136.007 504 136.006 504 136.005C504 136.005 504 136.004 504 136.004C504 136.004 504 136.003 504 136.003C504 136.002 504 136.002 504 136.002C504 136.002 504 136.001 504 136.001C504 136.001 504 136.001 504 136C504 136 504 136 504 136C504 136 504 136 503 136C502 136 502 136 502 136C502 136 502 136 502 136C502 136.001 502 136.001 502 136.001C502 136.001 502 136.002 502 136.002C502 136.002 502 136.002 502 136.003C502 136.003 502 136.004 502 136.004C502 136.004 502 136.005 502 136.005C502 136.006 502 136.007 502 136.007C502 136.008 502 136.008 502 136.009C502 136.01 502 136.01 502 136.011C502 136.012 502 136.013 502 136.013C502 136.014 502 136.015 502 136.016C502 136.017 502 136.018 502 136.018C502 136.019 502 136.02 502 136.021C502 136.022 502 136.023 502 136.024C502 136.025 502 136.027 502 136.028C502 136.029 502 136.03 502 136.031C502 136.032 502 136.033 502 136.035C502 136.036 502 136.037 502 136.039C502 136.04 502 136.041 502 136.043C502 136.044 502 136.045 502 136.047C502 136.048 502 136.05 502 136.051C502 136.053 502 136.054 502 136.056C502 136.057 502 136.059 502 136.06C502 136.062 502 136.064 502 136.065C502 136.067 502 136.069 502 136.07C502 136.072 502 136.074 502 136.076C502 136.077 502 136.079 502 136.081C502 136.083 502 136.085 502 136.087C502 136.088 502 136.09 502 136.092C502 136.094 502 136.096 502 136.098C502 136.1 502 136.102 502 136.104C502 136.106 502 136.108 502 136.11C502 136.113 502 136.115 502 136.117C502 136.119 502 136.121 502 136.123C502 136.125 502 136.128 502 136.13C502 136.132 502 136.134 502 136.137C502 136.139 502 136.141 502 136.144C502 136.146 502 136.148 502 136.151C502 136.153 502 136.156 502 136.158C502 136.16 502 136.163 502 136.165C502 136.168 502 136.17 502 136.173C502 136.175 502 136.178 502 136.18C502 136.183 502 136.185 502 136.188C502 136.191 502 136.193 502 136.196C502 136.199 502 136.201 502 136.204C502 136.207 502 136.209 502 136.212C502 136.215 502 136.218 502 136.22C502 136.223 502 136.226 502 136.229C502 136.231 502 136.234 502 136.237C502 136.24 502 136.243 502 136.246C502 136.249 502 136.251 502 136.254C502 136.257 502 136.26 502 136.263C502 136.266 502 136.269 502 136.272C502 136.275 502 136.278 502 136.281C502 136.284 502 136.287 502 136.29C502 136.293 502 136.296 502 136.299C502 136.302 502 136.306 502 136.309C502 136.312 502 136.315 502 136.318C502 136.321 502 136.324 502 136.327C502 136.331 502 136.334 502 136.337C502 136.34 502 136.343 502 136.347C502 136.35 502 136.353 502 136.356C502 136.36 502 136.363 502 136.366C502 136.593 502 136.825 502 137.059C502 137.285 502 137.44 502 137.471C502 137.473 502 137.472 502 137.473C502 137.473 503 136.473 504 137.473C504 137.473 504 137.473 504 137.473C504 137.473 504 137.472 504 137.472C504 137.47 504 137.465 504 137.458C504 137.451 504 137.41 504 137.38C504 137.303 504 137.181 504 136.992C504 135.484 504 129.993 504 114L502 114ZM502 136L502 165L504 165L504 136L502 136ZM503.989 135.854C503.808 134.628 502 134.761 502 136L504 136C504 137.239 502.192 137.372 502.011 136.146L503.989 135.854ZM503 136C503.989 135.853 503.989 135.854 503.989 135.855C503.989 135.853 503.989 135.854 503.989 135.854C503.989 135.854 503.989 135.854 503.989 135.854C503.989 135.854 503.989 135.854 503.989 135.853C503.989 135.854 503.989 135.854 503.989 135.854C503.989 135.854 503.989 135.854 503.989 135.854C503.989 135.854 503.989 135.854 503.989 135.854C503.989 135.854 503.989 135.854 503.989 135.854C503.989 135.854 503.989 135.854 503.989 135.854C503.989 135.854 503.989 135.854 503.989 135.854C503.989 135.854 503.989 135.854 503.989 135.854C503.989 135.854 503.989 135.854 503.989 135.854C503.989 135.854 503.989 135.854 503.989 135.854C503.989 135.854 503.989 135.854 503.989 135.854C503.989 135.854 503.989 135.854 503.989 135.854C503.989 135.854 503.989 135.854 503.989 135.854L502.011 136.146C502.011 136.146 502.011 136.146 502.011 136.146C502.011 136.146 502.011 136.146 502.011 136.146C502.011 136.146 502.011 136.146 502.011 136.146C502.011 136.146 502.011 136.146 502.011 136.146C502.011 136.146 502.011 136.146 502.011 136.146C502.011 136.146 502.011 136.146 502.011 136.146C502.011 136.146 502.011 136.146 502.011 136.146C502.011 136.146 502.011 136.146 502.011 136.146C502.011 136.146 502.011 136.146 502.011 136.146C502.011 136.146 502.011 136.146 502.011 136.146C502.011 136.146 502.011 136.146 502.011 136.146C502.011 136.146 502.011 136.146 502.011 136.146C502.011 136.146 502.011 136.146 502.011 136.146C502.011 136.146 502.011 136.146 502.011 136.146C502.011 136.146 502.011 136.146 502.011 136.146C502.011 136.146 502.011 136.146 502.011 136.146C502.011 136.146 502.011 136.146 502.011 136.147C502.011 136.146 502.011 136.146 502.011 136.146C502.011 136.146 502.011 136.147 502.011 136.147C502.011 136.146 502.011 136.147 503 136Z" fill="#4E496B"/>
<path d="M343 286L348.774 276L337.226 276L343 286ZM503 242.942L502 242.942L503 242.942ZM502 226C502 234.005 502 239.381 502 242.942L504 242.942C504 239.381 504 234.005 504 226L502 226ZM495 247L351 247L351 249L495 249L495 247ZM342 256L342 277L344 277L344 256L342 256ZM351 247C346.029 247 342 251.029 342 256L344 256C344 252.134 347.134 249 351 249L351 247ZM502 242.942C502 243.912 501.804 244.593 501.512 245.086C501.222 245.573 500.796 245.945 500.215 246.231C498.997 246.83 497.212 247 495 247L495 249C497.207 249 499.421 248.85 501.098 248.025C501.965 247.599 502.711 246.983 503.231 246.107C503.748 245.237 504 244.182 504 242.942L502 242.942Z" fill="#4E496B"/>
<path d="M503 286L508.774 276L497.226 276L503 286ZM503 248L504 248L504 247.926L503.989 247.854L503 248ZM502 224C502 240.055 502 245.922 502 247.992C502 248.5 502 248.735 502 248.838C502 248.862 502 248.875 502 248.881C502 248.888 502 248.876 502 248.883C502 248.883 502 248.883 502 248.884C502 248.884 502 248.884 502 248.884C502 248.884 503 249.884 504 248.884C504 248.884 504 248.884 504 248.883C504 248.881 504 248.88 504 248.874C504 248.854 504 248.81 504 248.747C504 248.672 504 248.387 504 248.28C504 248.253 504 248.082 504 248.082C504 248.08 504 248.079 504 248.077C504 248.076 504 248.074 504 248.073C504 248.071 504 248.07 504 248.068C504 248.067 504 248.065 504 248.064C504 248.062 504 248.061 504 248.06C504 248.058 504 248.057 504 248.055C504 248.054 504 248.053 504 248.051C504 248.05 504 248.049 504 248.048C504 248.046 504 248.045 504 248.044C504 248.043 504 248.042 504 248.04C504 248.039 504 248.038 504 248.037C504 248.036 504 248.035 504 248.034C504 248.033 504 248.032 504 248.031C504 248.029 504 248.028 504 248.027C504 248.027 504 248.026 504 248.025C504 248.024 504 248.023 504 248.022C504 248.021 504 248.02 504 248.019C504 248.019 504 248.018 504 248.017C504 248.016 504 248.015 504 248.015C504 248.014 504 248.013 504 248.013C504 248.012 504 248.011 504 248.011C504 248.01 504 248.009 504 248.009C504 248.008 504 248.008 504 248.007C504 248.007 504 248.006 504 248.006C504 248.005 504 248.005 504 248.004C504 248.004 504 248.004 504 248.003C504 248.003 504 248.003 504 248.002C504 248.002 504 248.002 504 248.001C504 248.001 504 248.001 504 248.001C504 248.001 504 248 504 248C504 248 504 248 504 248C504 248 504 248 503 248C502 248 502 248 502 248C502 248 502 248 502 248C502 248 502 248.001 502 248.001C502 248.001 502 248.001 502 248.001C502 248.002 502 248.002 502 248.002C502 248.003 502 248.003 502 248.003C502 248.004 502 248.004 502 248.004C502 248.005 502 248.005 502 248.006C502 248.006 502 248.007 502 248.007C502 248.008 502 248.008 502 248.009C502 248.009 502 248.01 502 248.011C502 248.011 502 248.012 502 248.013C502 248.013 502 248.014 502 248.015C502 248.015 502 248.016 502 248.017C502 248.018 502 248.019 502 248.019C502 248.02 502 248.021 502 248.022C502 248.023 502 248.024 502 248.025C502 248.026 502 248.027 502 248.027C502 248.028 502 248.029 502 248.031C502 248.032 502 248.033 502 248.034C502 248.035 502 248.036 502 248.037C502 248.038 502 248.039 502 248.04C502 248.042 502 248.043 502 248.044C502 248.045 502 248.046 502 248.048C502 248.049 502 248.05 502 248.051C502 248.053 502 248.054 502 248.055C502 248.057 502 248.058 502 248.06C502 248.061 502 248.062 502 248.064C502 248.065 502 248.067 502 248.068C502 248.07 502 248.071 502 248.073C502 248.074 502 248.076 502 248.077C502 248.079 502 248.08 502 248.082C502 248.083 502 248.085 502 248.087C502 248.088 502 248.09 502 248.091C502 248.093 502 248.095 502 248.097C502 248.098 502 248.1 502 248.102C502 248.103 502 248.105 502 248.107C502 248.109 502 248.11 502 248.112C502 248.114 502 248.116 502 248.118C502 248.12 502 248.121 502 248.123C502 248.125 502 248.127 502 248.129C502 248.131 502 248.133 502 248.135C502 248.137 502 248.138 502 248.14C502 248.142 502 248.144 502 248.146C502 248.148 502 248.15 502 248.152C502 248.154 502 248.156 502 248.158C502 248.16 502 248.163 502 248.165C502 248.167 502 248.169 502 248.171C502 248.173 502 248.175 502 248.177C502 248.179 502 248.181 502 248.184C502 248.186 502 248.188 502 248.19C502 248.192 502 248.194 502 248.197C502 248.199 502 248.201 502 248.203C502 248.205 502 248.208 502 248.21C502 248.212 502 248.214 502 248.217C502 248.219 502 248.221 502 248.224C502 248.226 502 248.228 502 248.23C502 248.233 502 248.235 502 248.237C502 248.24 502 248.242 502 248.244C502 248.247 502 248.249 502 248.252C502 248.254 502 248.256 502 248.259C502 248.261 502 248.263 502 248.266C502 248.268 502 248.271 502 248.273C502 248.275 502 248.278 502 248.28C502 248.431 502 248.371 502 248.525C502 248.643 502 248.649 502 248.747C502 248.806 502 248.859 502 248.874C502 248.877 502 248.879 502 248.88C502 248.884 502 248.88 502 248.883C502 248.883 502 248.884 502 248.884C502 248.884 502 248.884 502 248.884C503 247.884 504 248.884 504 248.884C504 248.884 504 248.884 504 248.884C504 248.883 504 248.883 504 248.881C504 248.875 504 248.862 504 248.838C504 248.745 504 248.49 504 247.992C504 245.999 504 239.979 504 224L502 224ZM502 248L502 277L504 277L504 248L502 248ZM503.989 247.854C503.808 246.628 502 246.761 502 248L504 248C504 249.239 502.192 249.372 502.011 248.146L503.989 247.854ZM503 248C503.989 247.853 503.989 247.854 503.989 247.855C503.989 247.853 503.989 247.854 503.989 247.854C503.989 247.854 503.989 247.854 503.989 247.854C503.989 247.854 503.989 247.854 503.989 247.853C503.989 247.854 503.989 247.854 503.989 247.854C503.989 247.854 503.989 247.854 503.989 247.854C503.989 247.854 503.989 247.854 503.989 247.854C503.989 247.854 503.989 247.854 503.989 247.854C503.989 247.854 503.989 247.854 503.989 247.854C503.989 247.854 503.989 247.854 503.989 247.854C503.989 247.854 503.989 247.854 503.989 247.854C503.989 247.854 503.989 247.854 503.989 247.854C503.989 247.854 503.989 247.854 503.989 247.854C503.989 247.854 503.989 247.854 503.989 247.854C503.989 247.854 503.989 247.854 503.989 247.854C503.989 247.854 503.989 247.854 503.989 247.854C503.989 247.854 503.989 247.854 503.989 247.854C503.989 247.854 503.989 247.854 503.989 247.854C503.989 247.854 503.989 247.854 503.989 247.854C503.989 247.854 503.989 247.854 503.989 247.854C503.989 247.854 503.989 247.854 503.989 247.854C503.989 247.854 503.989 247.854 503.989 247.854C503.989 247.854 503.989 247.854 503.989 247.854C503.989 247.854 503.989 247.854 503.989 247.854C503.989 247.854 503.989 247.854 503.989 247.854C503.989 247.854 503.989 247.854 503.989 247.854L502.011 248.146C502.011 248.146 502.011 248.146 502.011 248.146C502.011 248.146 502.011 248.146 502.011 248.146C502.011 248.146 502.011 248.146 502.011 248.146C502.011 248.146 502.011 248.146 502.011 248.146C502.011 248.146 502.011 248.146 502.011 248.146C502.011 248.146 502.011 248.146 502.011 248.146C502.011 248.146 502.011 248.146 502.011 248.146C502.011 248.146 502.011 248.146 502.011 248.146C502.011 248.146 502.011 248.146 502.011 248.146C502.011 248.146 502.011 248.146 502.011 248.146C502.011 248.146 502.011 248.146 502.011 248.146C502.011 248.146 502.011 248.146 502.011 248.146C502.011 248.146 502.011 248.146 502.011 248.147C502.011 248.146 502.011 248.146 502.011 248.146C502.011 248.146 502.011 248.147 502.011 248.147C502.011 248.146 502.011 248.147 503 248Z" fill="#4E496B"/>
<path d="M183 398L188.774 388L177.226 388L183 398ZM191 359L191 358L191 359ZM503 353.942L502 353.942L503 353.942ZM495 359L495 358L495 359ZM502 337C502 345.005 502 350.381 502 353.942L504 353.942C504 350.381 504 345.005 504 337L502 337ZM495 358L191 358L191 360L495 360L495 358ZM182 367L182 389L184 389L184 367L182 367ZM191 358C186.029 358 182 362.029 182 367L184 367C184 363.134 187.134 360 191 360L191 358ZM502 353.942C502 354.912 501.804 355.593 501.512 356.086C501.222 356.573 500.796 356.945 500.215 357.231C498.997 357.83 497.212 358 495 358L495 360C497.207 360 499.421 359.85 501.098 359.025C501.965 358.599 502.711 357.983 503.231 357.107C503.748 356.237 504 355.182 504 353.942L502 353.942Z" fill="#4E496B"/>
<path d="M343 398L348.774 388L337.226 388L343 398ZM502 337C502 345.005 502 350.381 502 353.942L504 353.942C504 350.381 504 345.005 504 337L502 337ZM495 358L351 358L351 360L495 360L495 358ZM342 367L342 389L344 389L344 367L342 367ZM351 358C346.029 358 342 362.029 342 367L344 367C344 363.134 347.134 360 351 360L351 358ZM502 353.942C502 354.912 501.804 355.593 501.512 356.086C501.222 356.573 500.796 356.945 500.215 357.231C498.997 357.83 497.212 358 495 358L495 360C497.207 360 499.421 359.85 501.098 359.025C501.965 358.599 502.711 357.983 503.231 357.107C503.748 356.237 504 355.182 504 353.942L502 353.942Z" fill="#4E496B"/>
<path d="M503 398L508.774 388L497.226 388L503 398ZM504 389L504 336L502 336L502 389L504 389Z" fill="#4E496B"/>
</svg>
