<svg xmlns="http://www.w3.org/2000/svg" width="700" height="492" fill="none"><g filter="url(#a)"><rect width="671" height="462" x="14" y="15" fill="#fff" rx="10"/></g><rect width="148" height="68" x="35" y="212" fill="#fff" stroke="#5282FF" stroke-width="2" rx="9"/><path fill="#000" fill-opacity=".85" d="M82.516 237.628c0 .504-.076.968-.228 1.392a2.893 2.893 0 0 1-.672 1.104 3.13 3.13 0 0 1-1.152.732c-.456.176-.996.264-1.62.264a4.332 4.332 0 0 1-1.668-.312 3.81 3.81 0 0 1-1.296-.9 4.05 4.05 0 0 1-.84-1.392c-.2-.544-.3-1.148-.3-1.812 0-.664.096-1.268.288-1.812a3.818 3.818 0 0 1 .84-1.392c.376-.384.84-.68 1.392-.888.552-.216 1.188-.324 1.908-.324.368 0 .696.024.984.072.296.048.556.108.78.18.224.072.416.152.576.24.168.088.312.172.432.252v1.08a8.262 8.262 0 0 0-.588-.312 3.92 3.92 0 0 0-.648-.264 4.687 4.687 0 0 0-.732-.168 5.457 5.457 0 0 0-.84-.06c-.544 0-1.016.076-1.416.228-.392.152-.72.376-.984.672a2.8 2.8 0 0 0-.576 1.068 4.858 4.858 0 0 0-.192 1.428c0 1.072.252 1.908.756 2.508.512.592 1.22.888 2.124.888.448 0 .832-.056 1.152-.168.32-.12.58-.28.78-.48.2-.208.344-.452.432-.732.096-.288.144-.6.144-.936v-.24H78.58v-1.02h3.936v1.104Zm1.6-5.232h2.88c1.015 0 1.787.2 2.315.6.536.392.804 1.012.804 1.86 0 .752-.184 1.328-.552 1.728-.36.4-.836.664-1.428.792l2.34 3.624h-1.272l-2.244-3.492h-1.716V241h-1.128v-8.604Zm1.127 1.032v3.06h1.644c.304 0 .58-.028.828-.084.256-.056.472-.148.648-.276a1.23 1.23 0 0 0 .42-.504c.104-.216.156-.48.156-.792 0-.512-.168-.872-.504-1.08-.336-.216-.816-.324-1.44-.324h-1.752Zm6.689-1.032h2.748c.976 0 1.732.204 2.268.612.544.4.816 1.028.816 1.884 0 .488-.08.908-.24 1.26a2.22 2.22 0 0 1-.648.852c-.28.224-.616.388-1.008.492a4.91 4.91 0 0 1-1.284.156H93.06V241h-1.128v-8.604Zm1.128 1.032v3.204h1.524c.304 0 .58-.032.828-.096s.46-.164.636-.3a1.3 1.3 0 0 0 .42-.528c.104-.224.156-.492.156-.804 0-.52-.168-.896-.504-1.128-.336-.232-.816-.348-1.44-.348h-1.62Zm9.928 7.692c-.64 0-1.22-.1-1.74-.3-.52-.2-.968-.488-1.344-.864a3.955 3.955 0 0 1-.852-1.392c-.2-.552-.3-1.172-.3-1.86 0-.696.092-1.316.276-1.86a3.657 3.657 0 0 1 .816-1.38c.36-.384.8-.676 1.32-.876.528-.2 1.128-.3 1.8-.3.584 0 1.096.064 1.536.192.44.12.8.264 1.08.432v1.08a3.98 3.98 0 0 0-1.248-.516 5.865 5.865 0 0 0-1.38-.168c-1.016 0-1.768.284-2.256.852-.48.56-.72 1.408-.72 2.544 0 1.144.26 1.996.78 2.556.528.56 1.304.84 2.328.84.44 0 .868-.06 1.284-.18.424-.12.828-.324 1.212-.612v1.08c-.232.184-.572.352-1.02.504-.44.152-.964.228-1.572.228Zm9.356 0c-.392 0-.744-.028-1.056-.084a5.07 5.07 0 0 1-.828-.192 4.264 4.264 0 0 1-.6-.276 2.38 2.38 0 0 1-.384-.3v-1.08c.12.104.276.212.468.324.192.104.412.2.66.288.256.088.528.16.816.216.296.056.604.084.924.084.624 0 1.12-.116 1.488-.348.368-.24.552-.6.552-1.08 0-.24-.044-.436-.132-.588a1.07 1.07 0 0 0-.384-.396 2.236 2.236 0 0 0-.636-.276c-.248-.08-.54-.164-.876-.252a16.032 16.032 0 0 1-1.008-.3 3.714 3.714 0 0 1-.912-.444 2.247 2.247 0 0 1-.648-.696c-.16-.28-.24-.636-.24-1.068 0-.744.26-1.324.78-1.74.52-.416 1.316-.624 2.388-.624.312 0 .588.02.828.06.248.032.464.076.648.132.192.048.356.104.492.168.144.064.272.124.384.18v1.08a3.368 3.368 0 0 0-1.092-.456 5.19 5.19 0 0 0-1.26-.144c-.384 0-.708.032-.972.096-.256.056-.464.14-.624.252a.995.995 0 0 0-.348.408c-.072.16-.108.34-.108.54 0 .24.052.44.156.6.112.16.256.296.432.408.184.104.392.192.624.264.232.072.476.136.732.192.336.08.68.172 1.032.276.352.104.668.248.948.432.28.184.508.424.684.72.184.288.276.664.276 1.128 0 .456-.092.844-.276 1.164a2.247 2.247 0 0 1-.708.768 3 3 0 0 1-1.02.432 5.356 5.356 0 0 1-1.2.132Zm9.501-.648a3.344 3.344 0 0 1-.324.204 3.758 3.758 0 0 1-.468.216 3.946 3.946 0 0 1-.624.156 3.864 3.864 0 0 1-.78.072c-1.048 0-1.844-.284-2.388-.852-.544-.568-.816-1.364-.816-2.388 0-.504.072-.956.216-1.356.152-.4.36-.736.624-1.008.264-.28.576-.492.936-.636.36-.152.752-.228 1.176-.228a3 3 0 0 1 1.2.228c.352.152.64.376.864.672.232.296.388.664.468 1.104.088.432.088.936 0 1.512h-4.392c.04.672.24 1.176.6 1.512.36.328.896.492 1.608.492.48 0 .892-.068 1.236-.204a4.33 4.33 0 0 0 .864-.444v.948Zm-2.472-4.884c-.456 0-.848.14-1.176.42-.328.28-.536.704-.624 1.272h3.348c.032-.576-.1-1-.396-1.272-.296-.28-.68-.42-1.152-.42Zm6.964.24c-.448.04-.856.156-1.224.348-.36.184-.628.472-.804.864V241h-1.056v-6.228h.924l.108 1.356h.024c.176-.368.428-.688.756-.96.336-.28.76-.452 1.272-.516v1.176Zm4.559 5.172h-1.704l-2.136-6.228h1.14l1.896 5.664 1.884-5.664h1.056L130.896 241Zm7.953-.528a3.344 3.344 0 0 1-.324.204 3.758 3.758 0 0 1-.468.216 3.946 3.946 0 0 1-.624.156 3.864 3.864 0 0 1-.78.072c-1.048 0-1.844-.284-2.388-.852-.544-.568-.816-1.364-.816-2.388 0-.504.072-.956.216-1.356.152-.4.36-.736.624-1.008.264-.28.576-.492.936-.636.36-.152.752-.228 1.176-.228a3 3 0 0 1 1.2.228c.352.152.64.376.864.672.232.296.388.664.468 1.104.088.432.088.936 0 1.512h-4.392c.04.672.24 1.176.6 1.512.36.328.896.492 1.608.492.48 0 .892-.068 1.236-.204a4.33 4.33 0 0 0 .864-.444v.948Zm-2.472-4.884c-.456 0-.848.14-1.176.42-.328.28-.536.704-.624 1.272h3.348c.032-.576-.1-1-.396-1.272-.296-.28-.68-.42-1.152-.42Zm6.964.24c-.448.04-.856.156-1.224.348-.36.184-.628.472-.804.864V241h-1.056v-6.228h.924l.108 1.356h.024c.176-.368.428-.688.756-.96.336-.28.76-.452 1.272-.516v1.176Zm-47.447 24.84a7.03 7.03 0 0 1-1.392-2.436 9.234 9.234 0 0 1-.456-2.916c0-.504.036-1.008.108-1.512a9.38 9.38 0 0 1 .348-1.452 8.22 8.22 0 0 1 .576-1.32c.232-.408.504-.776.816-1.104h1.044a4.657 4.657 0 0 0-.84 1.08 7.75 7.75 0 0 0-.588 1.308 8.53 8.53 0 0 0-.336 1.452 10.679 10.679 0 0 0-.108 1.512c0 1.024.148 1.996.444 2.916a6.97 6.97 0 0 0 1.428 2.472h-1.044ZM105.26 259h-1.536l-4.32-7.224V259h-1.068v-8.604h1.524l4.32 7.224v-7.224h1.08V259Zm2.006-8.604h5.328v1.032h-4.2v2.604h3.564v1.02h-3.564v2.928h4.26V259h-5.388v-8.604Zm10.257 1.044V259h-1.14v-7.56h-2.652v-1.044h6.444v1.044h-2.652Zm4.589 9.228h-1.044a6.824 6.824 0 0 0 1.416-2.472c.304-.92.456-1.892.456-2.916 0-.504-.036-1.008-.108-1.512a7.848 7.848 0 0 0-.348-1.452 7.126 7.126 0 0 0-.576-1.308 4.657 4.657 0 0 0-.84-1.08h1.044c.312.328.58.696.804 1.104.232.408.424.848.576 1.32.16.464.276.948.348 1.452.08.504.12 1.008.12 1.512a9.234 9.234 0 0 1-.456 2.916 7.03 7.03 0 0 1-1.392 2.436Z"/><rect width="148" height="68" x="516" y="124" fill="#fff" stroke="#5282FF" stroke-width="2" rx="9"/><path fill="#000" fill-opacity=".85" d="M562.368 148.628c0 .504-.076.968-.228 1.392a2.893 2.893 0 0 1-.672 1.104 3.13 3.13 0 0 1-1.152.732c-.456.176-.996.264-1.62.264a4.332 4.332 0 0 1-1.668-.312 3.81 3.81 0 0 1-1.296-.9 4.05 4.05 0 0 1-.84-1.392c-.2-.544-.3-1.148-.3-1.812 0-.664.096-1.268.288-1.812a3.818 3.818 0 0 1 .84-1.392c.376-.384.84-.68 1.392-.888.552-.216 1.188-.324 1.908-.324.368 0 .696.024.984.072.296.048.556.108.78.18.224.072.416.152.576.24.168.088.312.172.432.252v1.08a8.262 8.262 0 0 0-.588-.312 3.92 3.92 0 0 0-.648-.264 4.687 4.687 0 0 0-.732-.168 5.457 5.457 0 0 0-.84-.06c-.544 0-1.016.076-1.416.228-.392.152-.72.376-.984.672a2.8 2.8 0 0 0-.576 1.068 4.858 4.858 0 0 0-.192 1.428c0 1.072.252 1.908.756 2.508.512.592 1.22.888 2.124.888.448 0 .832-.056 1.152-.168.32-.12.58-.28.78-.48.2-.208.344-.452.432-.732.096-.288.144-.6.144-.936v-.24h-2.772v-1.02h3.936v1.104Zm1.599-5.232h2.88c1.016 0 1.788.2 2.316.6.536.392.804 1.012.804 1.86 0 .752-.184 1.328-.552 1.728-.36.4-.836.664-1.428.792l2.34 3.624h-1.272l-2.244-3.492h-1.716V152h-1.128v-8.604Zm1.128 1.032v3.06h1.644c.304 0 .58-.028.828-.084.256-.056.472-.148.648-.276a1.23 1.23 0 0 0 .42-.504c.104-.216.156-.48.156-.792 0-.512-.168-.872-.504-1.08-.336-.216-.816-.324-1.44-.324h-1.752Zm6.688-1.032h2.748c.976 0 1.732.204 2.268.612.544.4.816 1.028.816 1.884 0 .488-.08.908-.24 1.26a2.22 2.22 0 0 1-.648.852c-.28.224-.616.388-1.008.492a4.91 4.91 0 0 1-1.284.156h-1.524V152h-1.128v-8.604Zm1.128 1.032v3.204h1.524c.304 0 .58-.032.828-.096s.46-.164.636-.3a1.3 1.3 0 0 0 .42-.528c.104-.224.156-.492.156-.804 0-.52-.168-.896-.504-1.128-.336-.232-.816-.348-1.44-.348h-1.62Zm9.929 7.692c-.64 0-1.22-.1-1.74-.3-.52-.2-.968-.488-1.344-.864a3.955 3.955 0 0 1-.852-1.392c-.2-.552-.3-1.172-.3-1.86 0-.696.092-1.316.276-1.86a3.657 3.657 0 0 1 .816-1.38c.36-.384.8-.676 1.32-.876.528-.2 1.128-.3 1.8-.3.584 0 1.096.064 1.536.192.44.12.8.264 1.08.432v1.08a3.98 3.98 0 0 0-1.248-.516 5.865 5.865 0 0 0-1.38-.168c-1.016 0-1.768.284-2.256.852-.48.56-.72 1.408-.72 2.544 0 1.144.26 1.996.78 2.556.528.56 1.304.84 2.328.84.44 0 .868-.06 1.284-.18.424-.12.828-.324 1.212-.612v1.08c-.232.184-.572.352-1.02.504-.44.152-.964.228-1.572.228Zm10.687 0c-.64 0-1.22-.1-1.74-.3-.52-.2-.968-.488-1.344-.864a3.955 3.955 0 0 1-.852-1.392c-.2-.552-.3-1.172-.3-1.86 0-.696.092-1.316.276-1.86a3.657 3.657 0 0 1 .816-1.38c.36-.384.8-.676 1.32-.876.528-.2 1.128-.3 1.8-.3.584 0 1.096.064 1.536.192.44.12.8.264 1.08.432v1.08a3.98 3.98 0 0 0-1.248-.516 5.865 5.865 0 0 0-1.38-.168c-1.016 0-1.768.284-2.256.852-.48.56-.72 1.408-.72 2.544 0 1.144.26 1.996.78 2.556.528.56 1.304.84 2.328.84.44 0 .868-.06 1.284-.18.424-.12.828-.324 1.212-.612v1.08c-.232.184-.572.352-1.02.504-.44.152-.964.228-1.572.228Zm5.231-8.724V152h-1.056v-8.604h1.056Zm2.261 1.464c-.216 0-.388-.064-.516-.192a.692.692 0 0 1-.192-.492.675.675 0 0 1 .708-.696c.208 0 .372.068.492.204.12.136.18.3.18.492s-.06.356-.18.492c-.12.128-.284.192-.492.192Zm.516.912V152h-1.056v-6.228h1.056Zm6.678 5.7a3.344 3.344 0 0 1-.324.204 3.758 3.758 0 0 1-.468.216 3.946 3.946 0 0 1-.624.156 3.864 3.864 0 0 1-.78.072c-1.048 0-1.844-.284-2.388-.852-.544-.568-.816-1.364-.816-2.388 0-.504.072-.956.216-1.356.152-.4.36-.736.624-1.008.264-.28.576-.492.936-.636.36-.152.752-.228 1.176-.228a3 3 0 0 1 1.2.228c.352.152.64.376.864.672.232.296.388.664.468 1.104.088.432.088.936 0 1.512h-4.392c.04.672.24 1.176.6 1.512.36.328.896.492 1.608.492.48 0 .892-.068 1.236-.204a4.33 4.33 0 0 0 .864-.444v.948Zm-2.472-4.884c-.456 0-.848.14-1.176.42-.328.28-.536.704-.624 1.272h3.348c.032-.576-.1-1-.396-1.272-.296-.28-.68-.42-1.152-.42Zm6.831 0c-.48 0-.872.112-1.176.336a2.455 2.455 0 0 0-.72.84V152h-1.056v-6.228h.996l.036 1.116h.024c.168-.36.432-.656.792-.888.36-.232.816-.348 1.368-.348.616 0 1.104.164 1.464.492.368.32.552.816.552 1.488V152h-1.056v-4.26c0-.432-.108-.732-.324-.9-.216-.168-.516-.252-.9-.252Zm6.998 5.28a1.93 1.93 0 0 1-.492.18c-.2.048-.412.072-.636.072-.304 0-.564-.044-.78-.132a1.504 1.504 0 0 1-.516-.348 1.48 1.48 0 0 1-.3-.504 2.09 2.09 0 0 1-.084-.588v-3.876h-.744v-.9h.744v-1.308h1.056v1.308h1.812v.9h-1.812v3.744c0 .264.064.456.192.576.136.12.372.18.708.18.312 0 .596-.088.852-.264v.96Zm3.397.252c-.328 0-.62-.028-.876-.084a4.113 4.113 0 0 1-.66-.18c-.184-.08-.34-.16-.468-.24a3.161 3.161 0 0 1-.3-.228v-.948c.08.08.188.168.324.264.136.088.3.172.492.252.192.08.408.148.648.204.248.048.524.072.828.072.448 0 .804-.072 1.068-.216.264-.144.396-.388.396-.732a.698.698 0 0 0-.132-.444.801.801 0 0 0-.336-.264 2.07 2.07 0 0 0-.504-.168c-.184-.04-.38-.08-.588-.12a22.265 22.265 0 0 1-.78-.18 2.73 2.73 0 0 1-.696-.3 1.633 1.633 0 0 1-.504-.516c-.128-.216-.192-.496-.192-.84 0-.56.216-1 .648-1.32.44-.32 1.052-.48 1.836-.48.44 0 .828.044 1.164.132.344.088.608.184.792.288v.948a2.824 2.824 0 0 0-.78-.336c-.304-.096-.684-.144-1.14-.144-.472 0-.836.064-1.092.192-.248.128-.372.36-.372.696 0 .168.036.304.108.408a.856.856 0 0 0 .288.24c.128.056.272.1.432.132.16.032.328.068.504.108.272.056.552.116.84.18.288.064.544.164.768.3.232.136.42.32.564.552.152.224.228.528.228.912 0 .36-.072.66-.216.9-.144.24-.336.432-.576.576-.232.136-.5.232-.804.288-.296.064-.6.096-.912.096Zm-48.229 19.548a7.03 7.03 0 0 1-1.392-2.436 9.234 9.234 0 0 1-.456-2.916c0-.504.036-1.008.108-1.512a9.38 9.38 0 0 1 .348-1.452 8.22 8.22 0 0 1 .576-1.32c.232-.408.504-.776.816-1.104h1.044a4.657 4.657 0 0 0-.84 1.08 7.75 7.75 0 0 0-.588 1.308 8.53 8.53 0 0 0-.336 1.452 10.679 10.679 0 0 0-.108 1.512c0 1.024.148 1.996.444 2.916a6.97 6.97 0 0 0 1.428 2.472h-1.044Zm4.95-10.272v7.008c0 .216-.04.428-.12.636-.08.208-.204.392-.372.552-.16.16-.368.288-.624.384a2.46 2.46 0 0 1-.888.144c-.208 0-.42-.02-.636-.06-.208-.032-.4-.08-.576-.144v-.972c.304.104.62.156.948.156.392 0 .676-.08.852-.24.184-.168.276-.432.276-.792v-6.672h1.14Zm4.143 0h1.68l3.084 8.604h-1.2l-.888-2.46h-3.804l-.876 2.46h-1.056l3.06-8.604Zm2.316 5.124-1.536-4.284-1.536 4.284h3.072Zm6.922 3.48h-1.764l-3-8.604h1.176l2.748 7.92 2.748-7.92h1.08L593.069 170Zm5.751-8.604h1.68l3.084 8.604h-1.2l-.888-2.46h-3.804l-.876 2.46h-1.056l3.06-8.604Zm2.316 5.124-1.536-4.284-1.536 4.284h3.072Zm4.132 5.148h-1.044a6.824 6.824 0 0 0 1.416-2.472c.304-.92.456-1.892.456-2.916 0-.504-.036-1.008-.108-1.512a7.848 7.848 0 0 0-.348-1.452 7.126 7.126 0 0 0-.576-1.308 4.657 4.657 0 0 0-.84-1.08h1.044c.312.328.58.696.804 1.104.232.408.424.848.576 1.32.16.464.276.948.348 1.452.08.504.12 1.008.12 1.512a9.234 9.234 0 0 1-.456 2.916 7.03 7.03 0 0 1-1.392 2.436Z"/><rect width="148" height="68" x="516" y="300" fill="#fff" stroke="#5282FF" stroke-width="2" rx="9"/><path fill="#000" fill-opacity=".85" d="M562.368 326.628c0 .504-.076.968-.228 1.392a2.893 2.893 0 0 1-.672 1.104 3.13 3.13 0 0 1-1.152.732c-.456.176-.996.264-1.62.264a4.332 4.332 0 0 1-1.668-.312 3.81 3.81 0 0 1-1.296-.9 4.05 4.05 0 0 1-.84-1.392c-.2-.544-.3-1.148-.3-1.812 0-.664.096-1.268.288-1.812a3.818 3.818 0 0 1 .84-1.392c.376-.384.84-.68 1.392-.888.552-.216 1.188-.324 1.908-.324.368 0 .696.024.984.072.296.048.556.108.78.18.224.072.416.152.576.24.168.088.312.172.432.252v1.08a8.262 8.262 0 0 0-.588-.312 3.92 3.92 0 0 0-.648-.264 4.687 4.687 0 0 0-.732-.168 5.457 5.457 0 0 0-.84-.06c-.544 0-1.016.076-1.416.228-.392.152-.72.376-.984.672a2.8 2.8 0 0 0-.576 1.068 4.858 4.858 0 0 0-.192 1.428c0 1.072.252 1.908.756 2.508.512.592 1.22.888 2.124.888.448 0 .832-.056 1.152-.168.32-.12.58-.28.78-.48.2-.208.344-.452.432-.732.096-.288.144-.6.144-.936v-.24h-2.772v-1.02h3.936v1.104Zm1.599-5.232h2.88c1.016 0 1.788.2 2.316.6.536.392.804 1.012.804 1.86 0 .752-.184 1.328-.552 1.728-.36.4-.836.664-1.428.792l2.34 3.624h-1.272l-2.244-3.492h-1.716V330h-1.128v-8.604Zm1.128 1.032v3.06h1.644c.304 0 .58-.028.828-.084.256-.056.472-.148.648-.276a1.23 1.23 0 0 0 .42-.504c.104-.216.156-.48.156-.792 0-.512-.168-.872-.504-1.08-.336-.216-.816-.324-1.44-.324h-1.752Zm6.688-1.032h2.748c.976 0 1.732.204 2.268.612.544.4.816 1.028.816 1.884 0 .488-.08.908-.24 1.26a2.22 2.22 0 0 1-.648.852c-.28.224-.616.388-1.008.492a4.91 4.91 0 0 1-1.284.156h-1.524V330h-1.128v-8.604Zm1.128 1.032v3.204h1.524c.304 0 .58-.032.828-.096s.46-.164.636-.3a1.3 1.3 0 0 0 .42-.528c.104-.224.156-.492.156-.804 0-.52-.168-.896-.504-1.128-.336-.232-.816-.348-1.44-.348h-1.62Zm9.929 7.692c-.64 0-1.22-.1-1.74-.3-.52-.2-.968-.488-1.344-.864a3.955 3.955 0 0 1-.852-1.392c-.2-.552-.3-1.172-.3-1.86 0-.696.092-1.316.276-1.86a3.657 3.657 0 0 1 .816-1.38c.36-.384.8-.676 1.32-.876.528-.2 1.128-.3 1.8-.3.584 0 1.096.064 1.536.192.44.12.8.264 1.08.432v1.08a3.98 3.98 0 0 0-1.248-.516 5.865 5.865 0 0 0-1.38-.168c-1.016 0-1.768.284-2.256.852-.48.56-.72 1.408-.72 2.544 0 1.144.26 1.996.78 2.556.528.56 1.304.84 2.328.84.44 0 .868-.06 1.284-.18.424-.12.828-.324 1.212-.612v1.08c-.232.184-.572.352-1.02.504-.44.152-.964.228-1.572.228Zm10.687 0c-.64 0-1.22-.1-1.74-.3-.52-.2-.968-.488-1.344-.864a3.955 3.955 0 0 1-.852-1.392c-.2-.552-.3-1.172-.3-1.86 0-.696.092-1.316.276-1.86a3.657 3.657 0 0 1 .816-1.38c.36-.384.8-.676 1.32-.876.528-.2 1.128-.3 1.8-.3.584 0 1.096.064 1.536.192.44.12.8.264 1.08.432v1.08a3.98 3.98 0 0 0-1.248-.516 5.865 5.865 0 0 0-1.38-.168c-1.016 0-1.768.284-2.256.852-.48.56-.72 1.408-.72 2.544 0 1.144.26 1.996.78 2.556.528.56 1.304.84 2.328.84.44 0 .868-.06 1.284-.18.424-.12.828-.324 1.212-.612v1.08c-.232.184-.572.352-1.02.504-.44.152-.964.228-1.572.228Zm5.231-8.724V330h-1.056v-8.604h1.056Zm2.261 1.464c-.216 0-.388-.064-.516-.192a.692.692 0 0 1-.192-.492.675.675 0 0 1 .708-.696c.208 0 .372.068.492.204.12.136.18.3.18.492s-.06.356-.18.492c-.12.128-.284.192-.492.192Zm.516.912V330h-1.056v-6.228h1.056Zm6.678 5.7a3.344 3.344 0 0 1-.324.204 3.758 3.758 0 0 1-.468.216 3.946 3.946 0 0 1-.624.156 3.864 3.864 0 0 1-.78.072c-1.048 0-1.844-.284-2.388-.852-.544-.568-.816-1.364-.816-2.388 0-.504.072-.956.216-1.356.152-.4.36-.736.624-1.008.264-.28.576-.492.936-.636.36-.152.752-.228 1.176-.228a3 3 0 0 1 1.2.228c.352.152.64.376.864.672.232.296.388.664.468 1.104.088.432.088.936 0 1.512h-4.392c.04.672.24 1.176.6 1.512.36.328.896.492 1.608.492.48 0 .892-.068 1.236-.204a4.33 4.33 0 0 0 .864-.444v.948Zm-2.472-4.884c-.456 0-.848.14-1.176.42-.328.28-.536.704-.624 1.272h3.348c.032-.576-.1-1-.396-1.272-.296-.28-.68-.42-1.152-.42Zm6.831 0c-.48 0-.872.112-1.176.336a2.455 2.455 0 0 0-.72.84V330h-1.056v-6.228h.996l.036 1.116h.024c.168-.36.432-.656.792-.888.36-.232.816-.348 1.368-.348.616 0 1.104.164 1.464.492.368.32.552.816.552 1.488V330h-1.056v-4.26c0-.432-.108-.732-.324-.9-.216-.168-.516-.252-.9-.252Zm6.998 5.28a1.93 1.93 0 0 1-.492.18c-.2.048-.412.072-.636.072-.304 0-.564-.044-.78-.132a1.504 1.504 0 0 1-.516-.348 1.48 1.48 0 0 1-.3-.504 2.09 2.09 0 0 1-.084-.588v-3.876h-.744v-.9h.744v-1.308h1.056v1.308h1.812v.9h-1.812v3.744c0 .264.064.456.192.576.136.12.372.18.708.18.312 0 .596-.088.852-.264v.96Zm3.397.252c-.328 0-.62-.028-.876-.084a4.113 4.113 0 0 1-.66-.18c-.184-.08-.34-.16-.468-.24a3.161 3.161 0 0 1-.3-.228v-.948c.08.08.188.168.324.264.136.088.3.172.492.252.192.08.408.148.648.204.248.048.524.072.828.072.448 0 .804-.072 1.068-.216.264-.144.396-.388.396-.732a.698.698 0 0 0-.132-.444.801.801 0 0 0-.336-.264 2.07 2.07 0 0 0-.504-.168c-.184-.04-.38-.08-.588-.12a22.265 22.265 0 0 1-.78-.18 2.73 2.73 0 0 1-.696-.3 1.633 1.633 0 0 1-.504-.516c-.128-.216-.192-.496-.192-.84 0-.56.216-1 .648-1.32.44-.32 1.052-.48 1.836-.48.44 0 .828.044 1.164.132.344.088.608.184.792.288v.948a2.824 2.824 0 0 0-.78-.336c-.304-.096-.684-.144-1.14-.144-.472 0-.836.064-1.092.192-.248.128-.372.36-.372.696 0 .168.036.304.108.408a.856.856 0 0 0 .288.24c.128.056.272.1.432.132.16.032.328.068.504.108.272.056.552.116.84.18.288.064.544.164.768.3.232.136.42.32.564.552.152.224.228.528.228.912 0 .36-.072.66-.216.9-.144.24-.336.432-.576.576-.232.136-.5.232-.804.288-.296.064-.6.096-.912.096Zm-53.872 19.548a7.03 7.03 0 0 1-1.392-2.436 9.234 9.234 0 0 1-.456-2.916c0-.504.036-1.008.108-1.512a9.38 9.38 0 0 1 .348-1.452 8.22 8.22 0 0 1 .576-1.32c.232-.408.504-.776.816-1.104h1.044a4.657 4.657 0 0 0-.84 1.08 7.75 7.75 0 0 0-.588 1.308 8.53 8.53 0 0 0-.336 1.452 10.679 10.679 0 0 0-.108 1.512c0 1.024.148 1.996.444 2.916a6.97 6.97 0 0 0 1.428 2.472h-1.044Zm2.442-10.272h2.748c.976 0 1.732.204 2.268.612.544.4.816 1.028.816 1.884 0 .488-.08.908-.24 1.26a2.22 2.22 0 0 1-.648.852c-.28.224-.616.388-1.008.492a4.91 4.91 0 0 1-1.284.156h-1.524V348h-1.128v-8.604Zm1.128 1.032v3.204h1.524c.304 0 .58-.032.828-.096s.46-.164.636-.3a1.3 1.3 0 0 0 .42-.528c.104-.224.156-.492.156-.804 0-.52-.168-.896-.504-1.128-.336-.232-.816-.348-1.44-.348h-1.62Zm9.171 7.5a7.132 7.132 0 0 1-.456.984c-.16.288-.34.532-.54.732-.2.2-.424.348-.672.444a2.187 2.187 0 0 1-.852.156c-.16 0-.308-.012-.444-.036a1.336 1.336 0 0 1-.372-.096v-1.02c.088.064.2.112.336.144.136.04.284.06.444.06.296 0 .54-.072.732-.216.192-.136.376-.356.552-.66l-2.532-6.648h1.164l1.98 5.256 1.968-5.256h1.02l-2.328 6.156Zm6.422-.06a1.93 1.93 0 0 1-.492.18c-.2.048-.412.072-.636.072-.304 0-.564-.044-.78-.132a1.504 1.504 0 0 1-.516-.348 1.48 1.48 0 0 1-.3-.504 2.09 2.09 0 0 1-.084-.588v-3.876h-.744v-.9h.744v-1.308h1.056v1.308h1.812v.9h-1.812v3.744c0 .264.064.456.192.576.136.12.372.18.708.18.312 0 .596-.088.852-.264v.96Zm4.357-5.28c-.48 0-.872.112-1.176.336a2.455 2.455 0 0 0-.72.84V348h-1.056v-8.604h1.056v2.376l-.024 1.116h.024c.168-.352.432-.644.792-.876.36-.24.816-.36 1.368-.36.616 0 1.104.164 1.464.492.368.32.552.816.552 1.488V348h-1.056v-4.26c0-.432-.108-.732-.324-.9-.216-.168-.516-.252-.9-.252Zm6.506 5.532c-.424 0-.82-.072-1.188-.216a2.767 2.767 0 0 1-.96-.624 3.04 3.04 0 0 1-.624-1.02c-.152-.4-.228-.86-.228-1.38 0-.512.076-.968.228-1.368a2.89 2.89 0 0 1 .624-1.02c.272-.272.592-.48.96-.624a3.231 3.231 0 0 1 1.188-.216c.432 0 .832.072 1.2.216.368.144.684.352.948.624.272.272.484.612.636 1.02.16.4.24.856.24 1.368 0 .52-.08.98-.24 1.38-.152.4-.364.74-.636 1.02-.264.272-.58.48-.948.624a3.265 3.265 0 0 1-1.2.216Zm0-.948c.28 0 .536-.044.768-.132.24-.096.448-.236.624-.42.176-.192.312-.432.408-.72.096-.288.144-.628.144-1.02s-.048-.732-.144-1.02a1.855 1.855 0 0 0-.408-.708 1.569 1.569 0 0 0-.624-.42 1.99 1.99 0 0 0-.768-.144c-.28 0-.536.048-.768.144a1.586 1.586 0 0 0-.612.42c-.168.184-.3.42-.396.708a3.234 3.234 0 0 0-.144 1.02c0 .392.048.732.144 1.02.096.288.228.528.396.72.176.184.38.324.612.42.232.088.488.132.768.132Zm7.263-4.584c-.48 0-.872.112-1.176.336a2.455 2.455 0 0 0-.72.84V348h-1.056v-6.228h.996l.036 1.116h.024c.168-.36.432-.656.792-.888.36-.232.816-.348 1.368-.348.616 0 1.104.164 1.464.492.368.32.552.816.552 1.488V348h-1.056v-4.26c0-.432-.108-.732-.324-.9-.216-.168-.516-.252-.9-.252Zm4.527 7.08h-1.044a6.824 6.824 0 0 0 1.416-2.472c.304-.92.456-1.892.456-2.916 0-.504-.036-1.008-.108-1.512a7.848 7.848 0 0 0-.348-1.452 7.126 7.126 0 0 0-.576-1.308 4.657 4.657 0 0 0-.84-1.08h1.044c.312.328.58.696.804 1.104.232.408.424.848.576 1.32.16.464.276.948.348 1.452.08.504.12 1.008.12 1.512a9.234 9.234 0 0 1-.456 2.916 7.03 7.03 0 0 1-1.392 2.436Z"/><rect width="150" height="70" x="274" y="35" fill="#E3EBFF" rx="10"/><path fill="#000" fill-opacity=".85" d="M329.014 67.12c-.48 0-.896-.112-1.248-.336a2.444 2.444 0 0 1-.828-.924v3.264h-1.056v-8.352h.924l.108 1.212c.208-.408.488-.732.84-.972s.788-.36 1.308-.36c.36 0 .704.068 1.032.204.336.128.628.328.876.6.256.264.456.6.6 1.008.152.4.228.872.228 1.416 0 .552-.076 1.032-.228 1.44a3.01 3.01 0 0 1-.612 1.008 2.566 2.566 0 0 1-.888.6 2.941 2.941 0 0 1-1.056.192Zm-.156-.948c.552 0 .996-.188 1.332-.564.344-.384.516-.96.516-1.728 0-.752-.172-1.32-.516-1.704-.336-.392-.78-.588-1.332-.588-.272 0-.528.048-.768.144a1.71 1.71 0 0 0-.612.432c-.168.184-.304.42-.408.708a3.191 3.191 0 0 0-.144 1.008c0 .384.048.72.144 1.008.104.288.24.528.408.72.176.192.38.336.612.432.24.088.496.132.768.132Zm7.303-4.344c-.448.04-.856.156-1.224.348-.36.184-.628.472-.804.864V67h-1.056v-6.228h.924l.108 1.356h.024c.176-.368.428-.688.756-.96.336-.28.76-.452 1.272-.516v1.176Zm3.667 5.292c-.424 0-.82-.072-1.188-.216a2.767 2.767 0 0 1-.96-.624 3.04 3.04 0 0 1-.624-1.02c-.152-.4-.228-.86-.228-1.38 0-.512.076-.968.228-1.368a2.89 2.89 0 0 1 .624-1.02c.272-.272.592-.48.96-.624a3.231 3.231 0 0 1 1.188-.216c.432 0 .832.072 1.2.216.368.144.684.352.948.624.272.272.484.612.636 1.02.16.4.24.856.24 1.368 0 .52-.08.98-.24 1.38-.152.4-.364.74-.636 1.02-.264.272-.58.48-.948.624a3.265 3.265 0 0 1-1.2.216Zm0-.948c.28 0 .536-.044.768-.132.24-.096.448-.236.624-.42.176-.192.312-.432.408-.72.096-.288.144-.628.144-1.02s-.048-.732-.144-1.02a1.855 1.855 0 0 0-.408-.708 1.569 1.569 0 0 0-.624-.42 1.99 1.99 0 0 0-.768-.144c-.28 0-.536.048-.768.144a1.586 1.586 0 0 0-.612.42c-.168.184-.3.42-.396.708a3.234 3.234 0 0 0-.144 1.02c0 .392.048.732.144 1.02.096.288.228.528.396.72.176.184.38.324.612.42.232.088.488.132.768.132Zm7.359.696a1.93 1.93 0 0 1-.492.18c-.2.048-.412.072-.636.072-.304 0-.564-.044-.78-.132a1.504 1.504 0 0 1-.516-.348 1.48 1.48 0 0 1-.3-.504 2.09 2.09 0 0 1-.084-.588v-3.876h-.744v-.9h.744v-1.308h1.056v1.308h1.812v.9h-1.812v3.744c0 .264.064.456.192.576.136.12.372.18.708.18.312 0 .596-.088.852-.264v.96Zm3.903.252c-.424 0-.82-.072-1.188-.216a2.767 2.767 0 0 1-.96-.624 3.04 3.04 0 0 1-.624-1.02c-.152-.4-.228-.86-.228-1.38 0-.512.076-.968.228-1.368a2.89 2.89 0 0 1 .624-1.02c.272-.272.592-.48.96-.624a3.231 3.231 0 0 1 1.188-.216c.432 0 .832.072 1.2.216.368.144.684.352.948.624.272.272.484.612.636 1.02.16.4.24.856.24 1.368 0 .52-.08.98-.24 1.38-.152.4-.364.74-.636 1.02-.264.272-.58.48-.948.624a3.265 3.265 0 0 1-1.2.216Zm0-.948c.28 0 .536-.044.768-.132.24-.096.448-.236.624-.42.176-.192.312-.432.408-.72.096-.288.144-.628.144-1.02s-.048-.732-.144-1.02a1.855 1.855 0 0 0-.408-.708 1.569 1.569 0 0 0-.624-.42 1.99 1.99 0 0 0-.768-.144c-.28 0-.536.048-.768.144a1.586 1.586 0 0 0-.612.42c-.168.184-.3.42-.396.708a3.234 3.234 0 0 0-.144 1.02c0 .392.048.732.144 1.02.096.288.228.528.396.72.176.184.38.324.612.42.232.088.488.132.768.132Zm10.227-2.292c0 .552-.076 1.032-.228 1.44a3.01 3.01 0 0 1-.612 1.008 2.566 2.566 0 0 1-.888.6 2.941 2.941 0 0 1-1.056.192c-.48 0-.9-.112-1.26-.336a2.46 2.46 0 0 1-.84-.96L356.397 67h-.996v-8.604h1.056l-.024 3.588c.208-.408.488-.732.84-.972s.788-.36 1.308-.36c.36 0 .704.068 1.032.204.336.128.628.328.876.6.256.264.456.6.6 1.008.152.4.228.872.228 1.416Zm-2.94 2.292c.552 0 .996-.188 1.332-.564.344-.384.516-.96.516-1.728 0-.752-.172-1.32-.516-1.704-.336-.392-.78-.588-1.332-.588-.272 0-.528.048-.768.144a1.71 1.71 0 0 0-.612.432c-.168.184-.304.42-.408.708a3.191 3.191 0 0 0-.144 1.008c0 .384.048.72.144 1.008.104.288.24.528.408.72.176.192.38.336.612.432.24.088.496.132.768.132Zm8.215-.288a2.233 2.233 0 0 1-.78.888c-.344.232-.796.348-1.356.348-.576 0-1.044-.16-1.404-.48-.352-.328-.528-.832-.528-1.512v-4.356h1.068v4.356c0 .208.028.38.084.516a.886.886 0 0 0 .612.48c.144.032.3.048.468.048.464 0 .836-.104 1.116-.312.28-.208.52-.492.72-.852v-4.236h1.056V67h-.936l-.096-1.116h-.024Zm4.218-4.212V67h-1.056v-5.328h-.756v-.9h.756v-.156c0-.736.196-1.308.588-1.716.392-.408.928-.612 1.608-.612.296 0 .56.036.792.108v.96a1.406 1.406 0 0 0-.312-.084 2.484 2.484 0 0 0-.432-.036c-.368 0-.66.112-.876.336-.208.224-.312.572-.312 1.044v.156h1.8v.9h-1.8Zm-38.44 15.156c-.448.04-.856.156-1.224.348-.36.184-.628.472-.804.864V82h-1.056v-6.228h.924l.108 1.356h.024c.176-.368.428-.688.756-.96.336-.28.76-.452 1.272-.516v1.176Zm6.067 4.644a3.344 3.344 0 0 1-.324.204 3.758 3.758 0 0 1-.468.216 3.946 3.946 0 0 1-.624.156 3.864 3.864 0 0 1-.78.072c-1.048 0-1.844-.284-2.388-.852-.544-.568-.816-1.364-.816-2.388 0-.504.072-.956.216-1.356.152-.4.36-.736.624-1.008.264-.28.576-.492.936-.636.36-.152.752-.228 1.176-.228a3 3 0 0 1 1.2.228c.352.152.64.376.864.672.232.296.388.664.468 1.104.088.432.088.936 0 1.512h-4.392c.04.672.24 1.176.6 1.512.36.328.896.492 1.608.492.48 0 .892-.068 1.236-.204a4.33 4.33 0 0 0 .864-.444v.948Zm-2.472-4.884c-.456 0-.848.14-1.176.42-.328.28-.536.704-.624 1.272h3.348c.032-.576-.1-1-.396-1.272-.296-.28-.68-.42-1.152-.42Zm9.351 7.536h-1.056v-3.252c-.192.384-.46.688-.804.912-.336.224-.756.336-1.26.336-.376 0-.732-.064-1.068-.192a2.566 2.566 0 0 1-.888-.6 3.01 3.01 0 0 1-.612-1.008c-.152-.408-.228-.888-.228-1.44 0-.544.076-1.016.228-1.416.152-.408.356-.744.612-1.008.256-.272.552-.472.888-.6a2.911 2.911 0 0 1 1.08-.204c.488 0 .908.108 1.26.324.36.216.64.516.84.9l.012-.108c0-.144.008-.316.024-.516a3.85 3.85 0 0 1 .06-.48h.972a7.943 7.943 0 0 0-.048.48c-.008.208-.012.38-.012.516v7.356Zm-2.964-2.952c.272 0 .524-.044.756-.132.232-.096.432-.24.6-.432.176-.192.312-.432.408-.72.104-.288.156-.624.156-1.008s-.052-.72-.156-1.008a1.855 1.855 0 0 0-.408-.708 1.602 1.602 0 0 0-.6-.432 1.958 1.958 0 0 0-.756-.144c-.552 0-1.004.196-1.356.588-.344.384-.516.952-.516 1.704 0 .76.176 1.332.528 1.716.352.384.8.576 1.344.576Zm8.684-.288a2.233 2.233 0 0 1-.78.888c-.344.232-.796.348-1.356.348-.576 0-1.044-.16-1.404-.48-.352-.328-.528-.832-.528-1.512v-4.356h1.068v4.356c0 .208.028.38.084.516a.886.886 0 0 0 .612.48c.144.032.3.048.468.048.464 0 .836-.104 1.116-.312.28-.208.52-.492.72-.852v-4.236h1.056V82h-.936l-.096-1.116h-.024Zm7.745.588a3.344 3.344 0 0 1-.324.204 3.758 3.758 0 0 1-.468.216 3.946 3.946 0 0 1-.624.156 3.864 3.864 0 0 1-.78.072c-1.048 0-1.844-.284-2.388-.852-.544-.568-.816-1.364-.816-2.388 0-.504.072-.956.216-1.356.152-.4.36-.736.624-1.008.264-.28.576-.492.936-.636.36-.152.752-.228 1.176-.228a3 3 0 0 1 1.2.228c.352.152.64.376.864.672.232.296.388.664.468 1.104.088.432.088.936 0 1.512h-4.392c.04.672.24 1.176.6 1.512.36.328.896.492 1.608.492.48 0 .892-.068 1.236-.204a4.33 4.33 0 0 0 .864-.444v.948Zm-2.472-4.884c-.456 0-.848.14-1.176.42-.328.28-.536.704-.624 1.272h3.348c.032-.576-.1-1-.396-1.272-.296-.28-.68-.42-1.152-.42Zm5.871 5.532c-.328 0-.62-.028-.876-.084a4.113 4.113 0 0 1-.66-.18c-.184-.08-.34-.16-.468-.24a3.161 3.161 0 0 1-.3-.228v-.948c.08.08.188.168.324.264.136.088.3.172.492.252.192.08.408.148.648.204.248.048.524.072.828.072.448 0 .804-.072 1.068-.216.264-.144.396-.388.396-.732a.698.698 0 0 0-.132-.444.801.801 0 0 0-.336-.264 2.07 2.07 0 0 0-.504-.168c-.184-.04-.38-.08-.588-.12a22.265 22.265 0 0 1-.78-.18 2.73 2.73 0 0 1-.696-.3 1.633 1.633 0 0 1-.504-.516c-.128-.216-.192-.496-.192-.84 0-.56.216-1 .648-1.32.44-.32 1.052-.48 1.836-.48.44 0 .828.044 1.164.132.344.088.608.184.792.288v.948a2.824 2.824 0 0 0-.78-.336c-.304-.096-.684-.144-1.14-.144-.472 0-.836.064-1.092.192-.248.128-.372.36-.372.696 0 .168.036.304.108.408a.856.856 0 0 0 .288.24c.128.056.272.1.432.132.16.032.328.068.504.108.272.056.552.116.84.18.288.064.544.164.768.3.232.136.42.32.564.552.152.224.228.528.228.912 0 .36-.072.66-.216.9-.144.24-.336.432-.576.576-.232.136-.5.232-.804.288-.296.064-.6.096-.912.096Zm6.857-.252a1.93 1.93 0 0 1-.492.18c-.2.048-.412.072-.636.072-.304 0-.564-.044-.78-.132a1.504 1.504 0 0 1-.516-.348 1.48 1.48 0 0 1-.3-.504 2.09 2.09 0 0 1-.084-.588v-3.876h-.744v-.9h.744v-1.308h1.056v1.308h1.812v.9h-1.812v3.744c0 .264.064.456.192.576.136.12.372.18.708.18.312 0 .596-.088.852-.264v.96Z"/><rect width="150" height="70" x="274" y="387" fill="#E3EBFF" rx="10"/><path fill="#000" fill-opacity=".85" d="M329.014 419.12c-.48 0-.896-.112-1.248-.336a2.444 2.444 0 0 1-.828-.924v3.264h-1.056v-8.352h.924l.108 1.212c.208-.408.488-.732.84-.972s.788-.36 1.308-.36c.36 0 .704.068 1.032.204.336.128.628.328.876.6.256.264.456.6.6 1.008.152.4.228.872.228 1.416 0 .552-.076 1.032-.228 1.44a3.01 3.01 0 0 1-.612 1.008 2.566 2.566 0 0 1-.888.6 2.941 2.941 0 0 1-1.056.192Zm-.156-.948c.552 0 .996-.188 1.332-.564.344-.384.516-.96.516-1.728 0-.752-.172-1.32-.516-1.704-.336-.392-.78-.588-1.332-.588-.272 0-.528.048-.768.144a1.71 1.71 0 0 0-.612.432c-.168.184-.304.42-.408.708a3.191 3.191 0 0 0-.144 1.008c0 .384.048.72.144 1.008.104.288.24.528.408.72.176.192.38.336.612.432.24.088.496.132.768.132Zm7.303-4.344c-.448.04-.856.156-1.224.348-.36.184-.628.472-.804.864V419h-1.056v-6.228h.924l.108 1.356h.024c.176-.368.428-.688.756-.96.336-.28.76-.452 1.272-.516v1.176Zm3.667 5.292c-.424 0-.82-.072-1.188-.216a2.767 2.767 0 0 1-.96-.624 3.04 3.04 0 0 1-.624-1.02c-.152-.4-.228-.86-.228-1.38 0-.512.076-.968.228-1.368a2.89 2.89 0 0 1 .624-1.02c.272-.272.592-.48.96-.624a3.231 3.231 0 0 1 1.188-.216c.432 0 .832.072 1.2.216.368.144.684.352.948.624.272.272.484.612.636 1.02.16.4.24.856.24 1.368 0 .52-.08.98-.24 1.38-.152.4-.364.74-.636 1.02-.264.272-.58.48-.948.624a3.265 3.265 0 0 1-1.2.216Zm0-.948c.28 0 .536-.044.768-.132.24-.096.448-.236.624-.42.176-.192.312-.432.408-.72.096-.288.144-.628.144-1.02s-.048-.732-.144-1.02a1.855 1.855 0 0 0-.408-.708 1.569 1.569 0 0 0-.624-.42 1.99 1.99 0 0 0-.768-.144c-.28 0-.536.048-.768.144a1.586 1.586 0 0 0-.612.42c-.168.184-.3.42-.396.708a3.234 3.234 0 0 0-.144 1.02c0 .392.048.732.144 1.02.096.288.228.528.396.72.176.184.38.324.612.42.232.088.488.132.768.132Zm7.359.696a1.93 1.93 0 0 1-.492.18c-.2.048-.412.072-.636.072-.304 0-.564-.044-.78-.132a1.504 1.504 0 0 1-.516-.348 1.48 1.48 0 0 1-.3-.504 2.09 2.09 0 0 1-.084-.588v-3.876h-.744v-.9h.744v-1.308h1.056v1.308h1.812v.9h-1.812v3.744c0 .264.064.456.192.576.136.12.372.18.708.18.312 0 .596-.088.852-.264v.96Zm3.903.252c-.424 0-.82-.072-1.188-.216a2.767 2.767 0 0 1-.96-.624 3.04 3.04 0 0 1-.624-1.02c-.152-.4-.228-.86-.228-1.38 0-.512.076-.968.228-1.368a2.89 2.89 0 0 1 .624-1.02c.272-.272.592-.48.96-.624a3.231 3.231 0 0 1 1.188-.216c.432 0 .832.072 1.2.216.368.144.684.352.948.624.272.272.484.612.636 1.02.16.4.24.856.24 1.368 0 .52-.08.98-.24 1.38-.152.4-.364.74-.636 1.02-.264.272-.58.48-.948.624a3.265 3.265 0 0 1-1.2.216Zm0-.948c.28 0 .536-.044.768-.132.24-.096.448-.236.624-.42.176-.192.312-.432.408-.72.096-.288.144-.628.144-1.02s-.048-.732-.144-1.02a1.855 1.855 0 0 0-.408-.708 1.569 1.569 0 0 0-.624-.42 1.99 1.99 0 0 0-.768-.144c-.28 0-.536.048-.768.144a1.586 1.586 0 0 0-.612.42c-.168.184-.3.42-.396.708a3.234 3.234 0 0 0-.144 1.02c0 .392.048.732.144 1.02.096.288.228.528.396.72.176.184.38.324.612.42.232.088.488.132.768.132Zm10.227-2.292c0 .552-.076 1.032-.228 1.44a3.01 3.01 0 0 1-.612 1.008 2.566 2.566 0 0 1-.888.6 2.941 2.941 0 0 1-1.056.192c-.48 0-.9-.112-1.26-.336a2.46 2.46 0 0 1-.84-.96l-.036 1.176h-.996v-8.604h1.056l-.024 3.588c.208-.408.488-.732.84-.972s.788-.36 1.308-.36c.36 0 .704.068 1.032.204.336.128.628.328.876.6.256.264.456.6.6 1.008.152.4.228.872.228 1.416Zm-2.94 2.292c.552 0 .996-.188 1.332-.564.344-.384.516-.96.516-1.728 0-.752-.172-1.32-.516-1.704-.336-.392-.78-.588-1.332-.588-.272 0-.528.048-.768.144a1.71 1.71 0 0 0-.612.432c-.168.184-.304.42-.408.708a3.191 3.191 0 0 0-.144 1.008c0 .384.048.72.144 1.008.104.288.24.528.408.72.176.192.38.336.612.432.24.088.496.132.768.132Zm8.215-.288a2.233 2.233 0 0 1-.78.888c-.344.232-.796.348-1.356.348-.576 0-1.044-.16-1.404-.48-.352-.328-.528-.832-.528-1.512v-4.356h1.068v4.356c0 .208.028.38.084.516a.886.886 0 0 0 .612.48c.144.032.3.048.468.048.464 0 .836-.104 1.116-.312.28-.208.52-.492.72-.852v-4.236h1.056V419h-.936l-.096-1.116h-.024Zm4.218-4.212V419h-1.056v-5.328h-.756v-.9h.756v-.156c0-.736.196-1.308.588-1.716.392-.408.928-.612 1.608-.612.296 0 .56.036.792.108v.96a1.406 1.406 0 0 0-.312-.084 2.484 2.484 0 0 0-.432-.036c-.368 0-.66.112-.876.336-.208.224-.312.572-.312 1.044v.156h1.8v.9h-1.8Zm-38.44 15.156c-.448.04-.856.156-1.224.348-.36.184-.628.472-.804.864V434h-1.056v-6.228h.924l.108 1.356h.024c.176-.368.428-.688.756-.96.336-.28.76-.452 1.272-.516v1.176Zm6.067 4.644a3.344 3.344 0 0 1-.324.204 3.758 3.758 0 0 1-.468.216 3.946 3.946 0 0 1-.624.156 3.864 3.864 0 0 1-.78.072c-1.048 0-1.844-.284-2.388-.852-.544-.568-.816-1.364-.816-2.388 0-.504.072-.956.216-1.356.152-.4.36-.736.624-1.008.264-.28.576-.492.936-.636.36-.152.752-.228 1.176-.228a3 3 0 0 1 1.2.228c.352.152.64.376.864.672.232.296.388.664.468 1.104.088.432.088.936 0 1.512h-4.392c.04.672.24 1.176.6 1.512.36.328.896.492 1.608.492.48 0 .892-.068 1.236-.204a4.33 4.33 0 0 0 .864-.444v.948Zm-2.472-4.884c-.456 0-.848.14-1.176.42-.328.28-.536.704-.624 1.272h3.348c.032-.576-.1-1-.396-1.272-.296-.28-.68-.42-1.152-.42Zm9.351 7.536h-1.056v-3.252c-.192.384-.46.688-.804.912-.336.224-.756.336-1.26.336-.376 0-.732-.064-1.068-.192a2.566 2.566 0 0 1-.888-.6 3.01 3.01 0 0 1-.612-1.008c-.152-.408-.228-.888-.228-1.44 0-.544.076-1.016.228-1.416.152-.408.356-.744.612-1.008.256-.272.552-.472.888-.6a2.911 2.911 0 0 1 1.08-.204c.488 0 .908.108 1.26.324.36.216.64.516.84.9l.012-.108c0-.144.008-.316.024-.516a3.85 3.85 0 0 1 .06-.48h.972a7.943 7.943 0 0 0-.048.48c-.008.208-.012.38-.012.516v7.356Zm-2.964-2.952c.272 0 .524-.044.756-.132.232-.096.432-.24.6-.432.176-.192.312-.432.408-.72.104-.288.156-.624.156-1.008s-.052-.72-.156-1.008a1.855 1.855 0 0 0-.408-.708 1.602 1.602 0 0 0-.6-.432 1.958 1.958 0 0 0-.756-.144c-.552 0-1.004.196-1.356.588-.344.384-.516.952-.516 1.704 0 .76.176 1.332.528 1.716.352.384.8.576 1.344.576Zm8.684-.288a2.233 2.233 0 0 1-.78.888c-.344.232-.796.348-1.356.348-.576 0-1.044-.16-1.404-.48-.352-.328-.528-.832-.528-1.512v-4.356h1.068v4.356c0 .208.028.38.084.516a.886.886 0 0 0 .612.48c.144.032.3.048.468.048.464 0 .836-.104 1.116-.312.28-.208.52-.492.72-.852v-4.236h1.056V434h-.936l-.096-1.116h-.024Zm7.745.588a3.344 3.344 0 0 1-.324.204 3.758 3.758 0 0 1-.468.216 3.946 3.946 0 0 1-.624.156 3.864 3.864 0 0 1-.78.072c-1.048 0-1.844-.284-2.388-.852-.544-.568-.816-1.364-.816-2.388 0-.504.072-.956.216-1.356.152-.4.36-.736.624-1.008.264-.28.576-.492.936-.636.36-.152.752-.228 1.176-.228a3 3 0 0 1 1.2.228c.352.152.64.376.864.672.232.296.388.664.468 1.104.088.432.088.936 0 1.512h-4.392c.04.672.24 1.176.6 1.512.36.328.896.492 1.608.492.48 0 .892-.068 1.236-.204a4.33 4.33 0 0 0 .864-.444v.948Zm-2.472-4.884c-.456 0-.848.14-1.176.42-.328.28-.536.704-.624 1.272h3.348c.032-.576-.1-1-.396-1.272-.296-.28-.68-.42-1.152-.42Zm5.871 5.532c-.328 0-.62-.028-.876-.084a4.113 4.113 0 0 1-.66-.18c-.184-.08-.34-.16-.468-.24a3.161 3.161 0 0 1-.3-.228v-.948c.08.08.188.168.324.264.136.088.3.172.492.252.192.08.408.148.648.204.248.048.524.072.828.072.448 0 .804-.072 1.068-.216.264-.144.396-.388.396-.732a.698.698 0 0 0-.132-.444.801.801 0 0 0-.336-.264 2.07 2.07 0 0 0-.504-.168c-.184-.04-.38-.08-.588-.12a22.265 22.265 0 0 1-.78-.18 2.73 2.73 0 0 1-.696-.3 1.633 1.633 0 0 1-.504-.516c-.128-.216-.192-.496-.192-.84 0-.56.216-1 .648-1.32.44-.32 1.052-.48 1.836-.48.44 0 .828.044 1.164.132.344.088.608.184.792.288v.948a2.824 2.824 0 0 0-.78-.336c-.304-.096-.684-.144-1.14-.144-.472 0-.836.064-1.092.192-.248.128-.372.36-.372.696 0 .168.036.304.108.408a.856.856 0 0 0 .288.24c.128.056.272.1.432.132.16.032.328.068.504.108.272.056.552.116.84.18.288.064.544.164.768.3.232.136.42.32.564.552.152.224.228.528.228.912 0 .36-.072.66-.216.9-.144.24-.336.432-.576.576-.232.136-.5.232-.804.288-.296.064-.6.096-.912.096Zm6.857-.252a1.93 1.93 0 0 1-.492.18c-.2.048-.412.072-.636.072-.304 0-.564-.044-.78-.132a1.504 1.504 0 0 1-.516-.348 1.48 1.48 0 0 1-.3-.504 2.09 2.09 0 0 1-.084-.588v-3.876h-.744v-.9h.744v-1.308h1.056v1.308h1.812v.9h-1.812v3.744c0 .264.064.456.192.576.136.12.372.18.708.18.312 0 .596-.088.852-.264v.96Z"/><rect width="150" height="70" x="274" y="211" fill="#E3EBFF" rx="10"/><path fill="#000" fill-opacity=".85" d="M329.014 243.12c-.48 0-.896-.112-1.248-.336a2.444 2.444 0 0 1-.828-.924v3.264h-1.056v-8.352h.924l.108 1.212c.208-.408.488-.732.84-.972s.788-.36 1.308-.36c.36 0 .704.068 1.032.204.336.128.628.328.876.6.256.264.456.6.6 1.008.152.4.228.872.228 1.416 0 .552-.076 1.032-.228 1.44a3.01 3.01 0 0 1-.612 1.008 2.566 2.566 0 0 1-.888.6 2.941 2.941 0 0 1-1.056.192Zm-.156-.948c.552 0 .996-.188 1.332-.564.344-.384.516-.96.516-1.728 0-.752-.172-1.32-.516-1.704-.336-.392-.78-.588-1.332-.588-.272 0-.528.048-.768.144a1.71 1.71 0 0 0-.612.432c-.168.184-.304.42-.408.708a3.191 3.191 0 0 0-.144 1.008c0 .384.048.72.144 1.008.104.288.24.528.408.72.176.192.38.336.612.432.24.088.496.132.768.132Zm7.303-4.344c-.448.04-.856.156-1.224.348-.36.184-.628.472-.804.864V243h-1.056v-6.228h.924l.108 1.356h.024c.176-.368.428-.688.756-.96.336-.28.76-.452 1.272-.516v1.176Zm3.667 5.292c-.424 0-.82-.072-1.188-.216a2.767 2.767 0 0 1-.96-.624 3.04 3.04 0 0 1-.624-1.02c-.152-.4-.228-.86-.228-1.38 0-.512.076-.968.228-1.368a2.89 2.89 0 0 1 .624-1.02c.272-.272.592-.48.96-.624a3.231 3.231 0 0 1 1.188-.216c.432 0 .832.072 1.2.216.368.144.684.352.948.624.272.272.484.612.636 1.02.16.4.24.856.24 1.368 0 .52-.08.98-.24 1.38-.152.4-.364.74-.636 1.02-.264.272-.58.48-.948.624a3.265 3.265 0 0 1-1.2.216Zm0-.948c.28 0 .536-.044.768-.132.24-.096.448-.236.624-.42.176-.192.312-.432.408-.72.096-.288.144-.628.144-1.02s-.048-.732-.144-1.02a1.855 1.855 0 0 0-.408-.708 1.569 1.569 0 0 0-.624-.42 1.99 1.99 0 0 0-.768-.144c-.28 0-.536.048-.768.144a1.586 1.586 0 0 0-.612.42c-.168.184-.3.42-.396.708a3.234 3.234 0 0 0-.144 1.02c0 .392.048.732.144 1.02.096.288.228.528.396.72.176.184.38.324.612.42.232.088.488.132.768.132Zm7.359.696a1.93 1.93 0 0 1-.492.18c-.2.048-.412.072-.636.072-.304 0-.564-.044-.78-.132a1.504 1.504 0 0 1-.516-.348 1.48 1.48 0 0 1-.3-.504 2.09 2.09 0 0 1-.084-.588v-3.876h-.744v-.9h.744v-1.308h1.056v1.308h1.812v.9h-1.812v3.744c0 .264.064.456.192.576.136.12.372.18.708.18.312 0 .596-.088.852-.264v.96Zm3.903.252c-.424 0-.82-.072-1.188-.216a2.767 2.767 0 0 1-.96-.624 3.04 3.04 0 0 1-.624-1.02c-.152-.4-.228-.86-.228-1.38 0-.512.076-.968.228-1.368a2.89 2.89 0 0 1 .624-1.02c.272-.272.592-.48.96-.624a3.231 3.231 0 0 1 1.188-.216c.432 0 .832.072 1.2.216.368.144.684.352.948.624.272.272.484.612.636 1.02.16.4.24.856.24 1.368 0 .52-.08.98-.24 1.38-.152.4-.364.74-.636 1.02-.264.272-.58.48-.948.624a3.265 3.265 0 0 1-1.2.216Zm0-.948c.28 0 .536-.044.768-.132.24-.096.448-.236.624-.42.176-.192.312-.432.408-.72.096-.288.144-.628.144-1.02s-.048-.732-.144-1.02a1.855 1.855 0 0 0-.408-.708 1.569 1.569 0 0 0-.624-.42 1.99 1.99 0 0 0-.768-.144c-.28 0-.536.048-.768.144a1.586 1.586 0 0 0-.612.42c-.168.184-.3.42-.396.708a3.234 3.234 0 0 0-.144 1.02c0 .392.048.732.144 1.02.096.288.228.528.396.72.176.184.38.324.612.42.232.088.488.132.768.132Zm10.227-2.292c0 .552-.076 1.032-.228 1.44a3.01 3.01 0 0 1-.612 1.008 2.566 2.566 0 0 1-.888.6 2.941 2.941 0 0 1-1.056.192c-.48 0-.9-.112-1.26-.336a2.46 2.46 0 0 1-.84-.96l-.036 1.176h-.996v-8.604h1.056l-.024 3.588c.208-.408.488-.732.84-.972s.788-.36 1.308-.36c.36 0 .704.068 1.032.204.336.128.628.328.876.6.256.264.456.6.6 1.008.152.4.228.872.228 1.416Zm-2.94 2.292c.552 0 .996-.188 1.332-.564.344-.384.516-.96.516-1.728 0-.752-.172-1.32-.516-1.704-.336-.392-.78-.588-1.332-.588-.272 0-.528.048-.768.144a1.71 1.71 0 0 0-.612.432c-.168.184-.304.42-.408.708a3.191 3.191 0 0 0-.144 1.008c0 .384.048.72.144 1.008.104.288.24.528.408.72.176.192.38.336.612.432.24.088.496.132.768.132Zm8.215-.288a2.233 2.233 0 0 1-.78.888c-.344.232-.796.348-1.356.348-.576 0-1.044-.16-1.404-.48-.352-.328-.528-.832-.528-1.512v-4.356h1.068v4.356c0 .208.028.38.084.516a.886.886 0 0 0 .612.48c.144.032.3.048.468.048.464 0 .836-.104 1.116-.312.28-.208.52-.492.72-.852v-4.236h1.056V243h-.936l-.096-1.116h-.024Zm4.218-4.212V243h-1.056v-5.328h-.756v-.9h.756v-.156c0-.736.196-1.308.588-1.716.392-.408.928-.612 1.608-.612.296 0 .56.036.792.108v.96a1.406 1.406 0 0 0-.312-.084 2.484 2.484 0 0 0-.432-.036c-.368 0-.66.112-.876.336-.208.224-.312.572-.312 1.044v.156h1.8v.9h-1.8Zm-42.606 15.156c-.448.04-.856.156-1.224.348-.36.184-.628.472-.804.864V258h-1.056v-6.228h.924l.108 1.356h.024c.176-.368.428-.688.756-.96.336-.28.76-.452 1.272-.516v1.176Zm6.067 4.644a3.344 3.344 0 0 1-.324.204 3.758 3.758 0 0 1-.468.216 3.946 3.946 0 0 1-.624.156 3.864 3.864 0 0 1-.78.072c-1.048 0-1.844-.284-2.388-.852-.544-.568-.816-1.364-.816-2.388 0-.504.072-.956.216-1.356.152-.4.36-.736.624-1.008.264-.28.576-.492.936-.636.36-.152.752-.228 1.176-.228a3 3 0 0 1 1.2.228c.352.152.64.376.864.672.232.296.388.664.468 1.104.088.432.088.936 0 1.512h-4.392c.04.672.24 1.176.6 1.512.36.328.896.492 1.608.492.48 0 .892-.068 1.236-.204a4.33 4.33 0 0 0 .864-.444v.948Zm-2.472-4.884c-.456 0-.848.14-1.176.42-.328.28-.536.704-.624 1.272h3.348c.032-.576-.1-1-.396-1.272-.296-.28-.68-.42-1.152-.42Zm5.871 5.532c-.328 0-.62-.028-.876-.084a4.113 4.113 0 0 1-.66-.18c-.184-.08-.34-.16-.468-.24a3.161 3.161 0 0 1-.3-.228v-.948c.08.08.188.168.324.264.136.088.3.172.492.252.192.08.408.148.648.204.248.048.524.072.828.072.448 0 .804-.072 1.068-.216.264-.144.396-.388.396-.732a.698.698 0 0 0-.132-.444.801.801 0 0 0-.336-.264 2.07 2.07 0 0 0-.504-.168c-.184-.04-.38-.08-.588-.12a22.265 22.265 0 0 1-.78-.18 2.73 2.73 0 0 1-.696-.3 1.633 1.633 0 0 1-.504-.516c-.128-.216-.192-.496-.192-.84 0-.56.216-1 .648-1.32.44-.32 1.052-.48 1.836-.48.44 0 .828.044 1.164.132.344.088.608.184.792.288v.948a2.824 2.824 0 0 0-.78-.336c-.304-.096-.684-.144-1.14-.144-.472 0-.836.064-1.092.192-.248.128-.372.36-.372.696 0 .168.036.304.108.408a.856.856 0 0 0 .288.24c.128.056.272.1.432.132.16.032.328.068.504.108.272.056.552.116.84.18.288.064.544.164.768.3.232.136.42.32.564.552.152.224.228.528.228.912 0 .36-.072.66-.216.9-.144.24-.336.432-.576.576-.232.136-.5.232-.804.288-.296.064-.6.096-.912.096Zm6.941 0c-.48 0-.896-.112-1.248-.336a2.444 2.444 0 0 1-.828-.924v3.264h-1.056v-8.352h.924l.108 1.212c.208-.408.488-.732.84-.972s.788-.36 1.308-.36c.36 0 .704.068 1.032.204.336.128.628.328.876.6.256.264.456.6.6 1.008.152.4.228.872.228 1.416 0 .552-.076 1.032-.228 1.44a3.01 3.01 0 0 1-.612 1.008 2.566 2.566 0 0 1-.888.6 2.941 2.941 0 0 1-1.056.192Zm-.156-.948c.552 0 .996-.188 1.332-.564.344-.384.516-.96.516-1.728 0-.752-.172-1.32-.516-1.704-.336-.392-.78-.588-1.332-.588-.272 0-.528.048-.768.144a1.71 1.71 0 0 0-.612.432c-.168.184-.304.42-.408.708a3.191 3.191 0 0 0-.144 1.008c0 .384.048.72.144 1.008.104.288.24.528.408.72.176.192.38.336.612.432.24.088.496.132.768.132Zm6.776.948c-.424 0-.82-.072-1.188-.216a2.767 2.767 0 0 1-.96-.624 3.04 3.04 0 0 1-.624-1.02c-.152-.4-.228-.86-.228-1.38 0-.512.076-.968.228-1.368a2.89 2.89 0 0 1 .624-1.02c.272-.272.592-.48.96-.624a3.231 3.231 0 0 1 1.188-.216c.432 0 .832.072 1.2.216.368.144.684.352.948.624.272.272.484.612.636 1.02.16.4.24.856.24 1.368 0 .52-.08.98-.24 1.38-.152.4-.364.74-.636 1.02-.264.272-.58.48-.948.624a3.265 3.265 0 0 1-1.2.216Zm0-.948c.28 0 .536-.044.768-.132.24-.096.448-.236.624-.42.176-.192.312-.432.408-.72.096-.288.144-.628.144-1.02s-.048-.732-.144-1.02a1.855 1.855 0 0 0-.408-.708 1.569 1.569 0 0 0-.624-.42 1.99 1.99 0 0 0-.768-.144c-.28 0-.536.048-.768.144a1.586 1.586 0 0 0-.612.42c-.168.184-.3.42-.396.708a3.234 3.234 0 0 0-.144 1.02c0 .392.048.732.144 1.02.096.288.228.528.396.72.176.184.38.324.612.42.232.088.488.132.768.132Zm7.263-4.584c-.48 0-.872.112-1.176.336a2.455 2.455 0 0 0-.72.84V258h-1.056v-6.228h.996l.036 1.116h.024c.168-.36.432-.656.792-.888.36-.232.816-.348 1.368-.348.616 0 1.104.164 1.464.492.368.32.552.816.552 1.488V258h-1.056v-4.26c0-.432-.108-.732-.324-.9-.216-.168-.516-.252-.9-.252Zm5.942 5.532c-.328 0-.62-.028-.876-.084a4.113 4.113 0 0 1-.66-.18c-.184-.08-.34-.16-.468-.24a3.161 3.161 0 0 1-.3-.228v-.948c.08.08.188.168.324.264.136.088.3.172.492.252.192.08.408.148.648.204.248.048.524.072.828.072.448 0 .804-.072 1.068-.216.264-.144.396-.388.396-.732a.698.698 0 0 0-.132-.444.801.801 0 0 0-.336-.264 2.07 2.07 0 0 0-.504-.168c-.184-.04-.38-.08-.588-.12a22.265 22.265 0 0 1-.78-.18 2.73 2.73 0 0 1-.696-.3 1.633 1.633 0 0 1-.504-.516c-.128-.216-.192-.496-.192-.84 0-.56.216-1 .648-1.32.44-.32 1.052-.48 1.836-.48.44 0 .828.044 1.164.132.344.088.608.184.792.288v.948a2.824 2.824 0 0 0-.78-.336c-.304-.096-.684-.144-1.14-.144-.472 0-.836.064-1.092.192-.248.128-.372.36-.372.696 0 .168.036.304.108.408a.856.856 0 0 0 .288.24c.128.056.272.1.432.132.16.032.328.068.504.108.272.056.552.116.84.18.288.064.544.164.768.3.232.136.42.32.564.552.152.224.228.528.228.912 0 .36-.072.66-.216.9-.144.24-.336.432-.576.576-.232.136-.5.232-.804.288-.296.064-.6.096-.912.096Zm8.765-.648a3.344 3.344 0 0 1-.324.204 3.758 3.758 0 0 1-.468.216 3.946 3.946 0 0 1-.624.156 3.864 3.864 0 0 1-.78.072c-1.048 0-1.844-.284-2.388-.852-.544-.568-.816-1.364-.816-2.388 0-.504.072-.956.216-1.356.152-.4.36-.736.624-1.008.264-.28.576-.492.936-.636.36-.152.752-.228 1.176-.228a3 3 0 0 1 1.2.228c.352.152.64.376.864.672.232.296.388.664.468 1.104.088.432.088.936 0 1.512h-4.392c.04.672.24 1.176.6 1.512.36.328.896.492 1.608.492.48 0 .892-.068 1.236-.204a4.33 4.33 0 0 0 .864-.444v.948Zm-2.472-4.884c-.456 0-.848.14-1.176.42-.328.28-.536.704-.624 1.272h3.348c.032-.576-.1-1-.396-1.272-.296-.28-.68-.42-1.152-.42Z"/><path fill="#4E496B" d="m108 211 5.774-10h-11.548L108 211Zm1-9V78h-2v124h2Zm7-131h158v-2H116v2Zm-7 7a7 7 0 0 1 7-7v-2a9 9 0 0 0-9 9h2ZM424 70l10 5.773V64.227L424 70Zm9 1h148v-2H433v2Zm155 7v45h2V78h-2Zm-7-7a7 7 0 0 1 7 7h2a9 9 0 0 0-9-9v2ZM589 191l-5.774 10h11.548L589 191Zm-1 9v28h2v-28h-2Zm-7 35H424v2h157v-2Zm7-7a7 7 0 0 1-7 7v2a9 9 0 0 0 9-9h-2ZM108 281l5.774 10h-11.548L108 281Zm1 9v124h-2V290h2Zm7 131h158v2H116v-2Zm-7-7a7 7 0 0 0 7 7v2a9 9 0 0 1-9-9h2ZM424 422l10-5.774v11.548L424 422Zm9-1h148v2H433v-2Zm155-7v-45h2v45h-2Zm-7 7a7 7 0 0 0 7-7h2a9 9 0 0 1-9 9v-2ZM589 301l-5.774-10h11.548L589 301Zm-1-9v-28h2v28h-2Zm-7-35H424v-2h157v2Zm7 7a7 7 0 0 0-7-7v-2a9 9 0 0 1 9 9h-2ZM274 246l-10-5.774v11.548L274 246Zm-9-1h-81v2h81v-2Z"/><defs><filter id="a" width="687" height="478" x="6" y="7" color-interpolation-filters="sRGB" filterUnits="userSpaceOnUse"><feFlood flood-opacity="0" result="BackgroundImageFix"/><feColorMatrix in="SourceAlpha" result="hardAlpha" values="0 0 0 0 0 0 0 0 0 0 0 0 0 0 0 0 0 0 127 0"/><feOffset/><feGaussianBlur stdDeviation="4"/><feColorMatrix values="0 0 0 0 0.321569 0 0 0 0 0.509804 0 0 0 0 1 0 0 0 0.2 0"/><feBlend in2="BackgroundImageFix" result="effect1_dropShadow_19_2"/><feBlend in="SourceGraphic" in2="effect1_dropShadow_19_2" result="shape"/></filter></defs></svg>