<svg width="700" height="310" viewBox="0 0 700 310" fill="none" xmlns="http://www.w3.org/2000/svg">
<g filter="url(#filter0_d_1_297)">
<rect x="37" y="20" width="626" height="270" rx="10" fill="white"/>
</g>
<path d="M280.565 62V51.962H282.259V59.592L287.341 51.962H289.105V62H287.383V54.398L282.329 62H280.565ZM295.765 58.934H292.699V62H291.075V54.734H292.699V57.618H295.765V54.734H297.389V62H295.765V58.934ZM301.464 59.046H300.834V62H299.21V54.734H300.834V57.73H301.52L303.83 54.734H305.538L302.794 58.234L305.65 62H303.732L301.464 59.046ZM310.733 62.14C310.183 62.14 309.707 62.0187 309.305 61.776C308.913 61.524 308.596 61.188 308.353 60.768V64.478H306.729V54.734H308.213L308.325 56.022C308.568 55.5833 308.89 55.238 309.291 54.986C309.693 54.7247 310.183 54.594 310.761 54.594C311.191 54.594 311.597 54.6733 311.979 54.832C312.371 54.9813 312.712 55.2147 313.001 55.532C313.291 55.84 313.519 56.232 313.687 56.708C313.865 57.1747 313.953 57.7253 313.953 58.36C313.953 59.004 313.865 59.564 313.687 60.04C313.519 60.5067 313.286 60.8987 312.987 61.216C312.698 61.524 312.357 61.7573 311.965 61.916C311.573 62.0653 311.163 62.14 310.733 62.14ZM310.341 60.782C310.92 60.782 311.387 60.586 311.741 60.194C312.105 59.7927 312.287 59.1813 312.287 58.36C312.287 57.548 312.105 56.9413 311.741 56.54C311.387 56.1387 310.925 55.938 310.355 55.938C310.066 55.938 309.8 55.9893 309.557 56.092C309.315 56.1853 309.1 56.3347 308.913 56.54C308.736 56.7453 308.596 57.002 308.493 57.31C308.391 57.6087 308.339 57.9587 308.339 58.36C308.339 58.7707 308.391 59.13 308.493 59.438C308.596 59.7367 308.736 59.9887 308.913 60.194C309.091 60.39 309.301 60.5393 309.543 60.642C309.795 60.7353 310.061 60.782 310.341 60.782ZM321.405 61.468C321.302 61.5333 321.176 61.608 321.027 61.692C320.878 61.7667 320.7 61.8367 320.495 61.902C320.29 61.9673 320.052 62.0233 319.781 62.07C319.51 62.1167 319.202 62.14 318.857 62.14C317.522 62.14 316.524 61.8087 315.861 61.146C315.208 60.4833 314.881 59.5547 314.881 58.36C314.881 57.772 314.97 57.2447 315.147 56.778C315.324 56.3113 315.572 55.9193 315.889 55.602C316.206 55.2753 316.584 55.028 317.023 54.86C317.462 54.6827 317.942 54.594 318.465 54.594C319.006 54.594 319.492 54.6827 319.921 54.86C320.36 55.0373 320.719 55.3033 320.999 55.658C321.279 56.0127 321.47 56.4513 321.573 56.974C321.685 57.4967 321.69 58.108 321.587 58.808H316.561C316.626 59.4707 316.846 59.97 317.219 60.306C317.592 60.6327 318.176 60.796 318.969 60.796C319.548 60.796 320.028 60.726 320.411 60.586C320.803 60.4367 321.134 60.2827 321.405 60.124V61.468ZM318.465 55.882C317.989 55.882 317.588 56.0267 317.261 56.316C316.934 56.6053 316.72 57.0347 316.617 57.604H320.033C320.052 57.016 319.921 56.582 319.641 56.302C319.361 56.022 318.969 55.882 318.465 55.882ZM329.913 56.736L327.771 61.3H326.581L324.565 56.694V62H323.095V54.734H325.321L327.309 59.242L329.409 54.734H331.537V62H329.913V56.736ZM339.438 61.468C339.335 61.5333 339.209 61.608 339.06 61.692C338.911 61.7667 338.733 61.8367 338.528 61.902C338.323 61.9673 338.085 62.0233 337.814 62.07C337.543 62.1167 337.235 62.14 336.89 62.14C335.555 62.14 334.557 61.8087 333.894 61.146C333.241 60.4833 332.914 59.5547 332.914 58.36C332.914 57.772 333.003 57.2447 333.18 56.778C333.357 56.3113 333.605 55.9193 333.922 55.602C334.239 55.2753 334.617 55.028 335.056 54.86C335.495 54.6827 335.975 54.594 336.498 54.594C337.039 54.594 337.525 54.6827 337.954 54.86C338.393 55.0373 338.752 55.3033 339.032 55.658C339.312 56.0127 339.503 56.4513 339.606 56.974C339.718 57.4967 339.723 58.108 339.62 58.808H334.594C334.659 59.4707 334.879 59.97 335.252 60.306C335.625 60.6327 336.209 60.796 337.002 60.796C337.581 60.796 338.061 60.726 338.444 60.586C338.836 60.4367 339.167 60.2827 339.438 60.124V61.468ZM336.498 55.882C336.022 55.882 335.621 56.0267 335.294 56.316C334.967 56.6053 334.753 57.0347 334.65 57.604H338.066C338.085 57.016 337.954 56.582 337.674 56.302C337.394 56.022 337.002 55.882 336.498 55.882ZM345.818 58.934H342.752V62H341.128V54.734H342.752V57.618H345.818V54.734H347.442V62H345.818V58.934ZM352.511 56.05V62H350.887V56.05H348.689V54.734H354.751V56.05H352.511ZM360.679 58.934H357.613V62H355.989V54.734H357.613V57.618H360.679V54.734H362.303V62H360.679V58.934ZM368.31 60.726C368.235 60.894 368.133 61.062 368.002 61.23C367.881 61.398 367.727 61.552 367.54 61.692C367.363 61.8227 367.148 61.93 366.896 62.014C366.644 62.098 366.35 62.14 366.014 62.14C365.697 62.14 365.403 62.0933 365.132 62C364.861 61.916 364.623 61.7853 364.418 61.608C364.222 61.4307 364.063 61.2113 363.942 60.95C363.83 60.6793 363.774 60.3713 363.774 60.026C363.774 59.2327 364.068 58.64 364.656 58.248C365.244 57.8467 366.075 57.646 367.148 57.646H368.254V57.198C368.254 56.722 368.133 56.3953 367.89 56.218C367.647 56.0313 367.246 55.938 366.686 55.938C366.21 55.938 365.762 56.008 365.342 56.148C364.931 56.2787 364.567 56.4327 364.25 56.61V55.252C364.539 55.0933 364.922 54.944 365.398 54.804C365.874 54.664 366.392 54.594 366.952 54.594C367.885 54.594 368.604 54.79 369.108 55.182C369.621 55.5647 369.878 56.1807 369.878 57.03V60.824C369.878 60.908 369.878 61.006 369.878 61.118C369.887 61.2207 369.892 61.328 369.892 61.44C369.901 61.552 369.911 61.6593 369.92 61.762C369.929 61.8553 369.939 61.9347 369.948 62H368.45C368.422 61.8693 368.394 61.6873 368.366 61.454C368.347 61.2207 368.333 61.0107 368.324 60.824L368.31 60.726ZM366.462 60.88C366.807 60.88 367.092 60.81 367.316 60.67C367.549 60.5207 367.736 60.3527 367.876 60.166C368.016 59.97 368.114 59.7787 368.17 59.592C368.226 59.4053 368.254 59.2747 368.254 59.2V58.71H367.246C366.602 58.71 366.131 58.8127 365.832 59.018C365.533 59.214 365.384 59.494 365.384 59.858C365.384 60.1753 365.473 60.4273 365.65 60.614C365.837 60.7913 366.107 60.88 366.462 60.88ZM371.546 57.114C371.546 56.722 371.62 56.3767 371.77 56.078C371.919 55.7793 372.124 55.532 372.386 55.336C372.656 55.1307 372.978 54.9813 373.352 54.888C373.734 54.7853 374.154 54.734 374.612 54.734H377.314V62H375.69V59.536H374.654L372.932 62H371.112L373.114 59.186C372.61 59.0367 372.222 58.794 371.952 58.458C371.681 58.122 371.546 57.674 371.546 57.114ZM375.69 58.248V56.022H374.738C374.29 56.022 373.921 56.106 373.632 56.274C373.352 56.442 373.212 56.722 373.212 57.114C373.212 57.5153 373.338 57.8047 373.59 57.982C373.851 58.1593 374.22 58.248 374.696 58.248H375.69ZM384.466 59.046H383.836V62H382.212V54.734H383.836V57.73H384.522L386.832 54.734H388.54L385.796 58.234L388.652 62H386.734L384.466 59.046ZM392.539 62.14C392.026 62.14 391.55 62.056 391.111 61.888C390.673 61.72 390.29 61.4773 389.963 61.16C389.646 60.8333 389.394 60.4367 389.207 59.97C389.03 59.5033 388.941 58.9667 388.941 58.36C388.941 57.7533 389.03 57.2167 389.207 56.75C389.394 56.2833 389.646 55.8913 389.963 55.574C390.29 55.2473 390.673 55.0047 391.111 54.846C391.55 54.678 392.026 54.594 392.539 54.594C393.053 54.594 393.529 54.678 393.967 54.846C394.406 55.0047 394.789 55.2473 395.115 55.574C395.442 55.8913 395.699 56.2833 395.885 56.75C396.072 57.2167 396.165 57.7533 396.165 58.36C396.165 58.9667 396.072 59.5033 395.885 59.97C395.699 60.4367 395.442 60.8333 395.115 61.16C394.789 61.4773 394.406 61.72 393.967 61.888C393.529 62.056 393.053 62.14 392.539 62.14ZM392.539 60.782C393.099 60.782 393.561 60.586 393.925 60.194C394.299 59.802 394.485 59.1907 394.485 58.36C394.485 57.5387 394.299 56.932 393.925 56.54C393.561 56.1387 393.099 55.938 392.539 55.938C391.989 55.938 391.527 56.1387 391.153 56.54C390.789 56.932 390.607 57.5387 390.607 58.36C390.607 59.1907 390.789 59.802 391.153 60.194C391.527 60.586 391.989 60.782 392.539 60.782ZM397.524 54.734H403.698V62H402.074V56.05H399.148V62H397.524V54.734ZM407.132 59.802L410.492 54.734H412.088V62H410.478V56.96L407.146 62H405.522V54.734H407.132V59.802ZM413.833 57.114C413.833 56.722 413.908 56.3767 414.057 56.078C414.206 55.7793 414.412 55.532 414.673 55.336C414.944 55.1307 415.266 54.9813 415.639 54.888C416.022 54.7853 416.442 54.734 416.899 54.734H419.601V62H417.977V59.536H416.941L415.219 62H413.399L415.401 59.186C414.897 59.0367 414.51 58.794 414.239 58.458C413.968 58.122 413.833 57.674 413.833 57.114ZM417.977 58.248V56.022H417.025C416.577 56.022 416.208 56.106 415.919 56.274C415.639 56.442 415.499 56.722 415.499 57.114C415.499 57.5153 415.625 57.8047 415.877 57.982C416.138 58.1593 416.507 58.248 416.983 58.248H417.977Z" fill="black" fill-opacity="0.85"/>
<path d="M284.947 234.929C284.947 243.805 267.951 251 246.986 251C226.02 251 209.024 243.805 209.024 234.929V207.101C208.991 206.715 208.993 206.347 209.024 206V207.101C209.514 212.797 217.549 222.364 247.485 222.364C274.493 222.364 284.161 213.201 284.947 207.472V206C285.017 206.456 285.019 206.95 284.947 207.472V234.929Z" fill="#EEF3FE"/>
<ellipse cx="247" cy="119.5" rx="38" ry="16.5" stroke="#5282FF" stroke-width="2" stroke-linecap="round" stroke-linejoin="round"/>
<path d="M285 119V148.571C285 157.645 267.987 165 247 165C226.013 165 209 157.645 209 148.571V119" stroke="#5282FF" stroke-width="2" stroke-linecap="round" stroke-linejoin="round"/>
<path d="M285 147V176.571C285 185.645 267.987 193 247 193C226.013 193 209 185.645 209 176.571V147" stroke="#5282FF" stroke-width="2" stroke-linecap="round" stroke-linejoin="round"/>
<ellipse cx="353" cy="177" rx="38" ry="16" stroke="#5282FF" stroke-width="2" stroke-linecap="round" stroke-linejoin="round"/>
<path d="M391 177V205.929C391 214.805 373.987 222 353 222C332.013 222 315 214.805 315 205.929V177" stroke="#5282FF" stroke-width="2" stroke-linecap="round" stroke-linejoin="round"/>
<path d="M285 177V205.929C285 214.805 267.987 222 247 222C226.013 222 209 214.805 209 205.929V177" stroke="#5282FF" stroke-width="2" stroke-linecap="round" stroke-linejoin="round"/>
<ellipse cx="459" cy="148.5" rx="38" ry="16.5" stroke="#5282FF" stroke-width="2" stroke-linecap="round" stroke-linejoin="round"/>
<path d="M497 148V176.929C497 185.805 479.987 193 459 193C438.013 193 421 185.805 421 176.929V148" stroke="#5282FF" stroke-width="2" stroke-linecap="round" stroke-linejoin="round"/>
<path d="M285 206V234.929C285 243.805 267.987 251 247 251C226.013 251 209 243.805 209 234.929V206" stroke="#5282FF" stroke-width="2" stroke-linecap="round" stroke-linejoin="round"/>
<path d="M285 206V234.929C285 243.805 267.987 251 247 251C226.013 251 209 243.805 209 234.929V206" stroke="#5282FF" stroke-width="2" stroke-linecap="round" stroke-linejoin="round"/>
<ellipse cx="565" cy="119.5" rx="38" ry="16.5" stroke="#5282FF" stroke-width="2" stroke-linecap="round" stroke-linejoin="round"/>
<path d="M603 119V148.571C603 157.645 585.987 165 565 165C544.013 165 527 157.645 527 148.571V119" stroke="#5282FF" stroke-width="2" stroke-linecap="round" stroke-linejoin="round"/>
<path d="M146.955 136.98H148.059V140.04H147.015L146.895 138H140.715L140.583 140.04H139.563V136.98H140.151C140.423 136.732 140.639 136.4 140.799 135.984C140.967 135.56 141.095 135.04 141.183 134.424C141.271 133.808 141.335 133.084 141.375 132.252C141.415 131.42 141.447 130.468 141.471 129.396H146.955V136.98ZM145.815 136.98V130.428H142.527C142.503 131.34 142.467 132.148 142.419 132.852C142.379 133.548 142.315 134.16 142.227 134.688C142.147 135.216 142.043 135.668 141.915 136.044C141.795 136.412 141.643 136.724 141.459 136.98H145.815ZM154.297 137.472C154.209 137.536 154.101 137.604 153.973 137.676C153.845 137.748 153.689 137.82 153.505 137.892C153.321 137.956 153.113 138.008 152.881 138.048C152.649 138.096 152.389 138.12 152.101 138.12C151.053 138.12 150.257 137.836 149.713 137.268C149.169 136.7 148.897 135.904 148.897 134.88C148.897 134.376 148.969 133.924 149.113 133.524C149.265 133.124 149.473 132.788 149.737 132.516C150.001 132.236 150.313 132.024 150.673 131.88C151.033 131.728 151.425 131.652 151.849 131.652C152.297 131.652 152.697 131.728 153.049 131.88C153.401 132.032 153.689 132.256 153.913 132.552C154.145 132.848 154.301 133.216 154.381 133.656C154.469 134.088 154.469 134.592 154.381 135.168H149.989C150.029 135.84 150.229 136.344 150.589 136.68C150.949 137.008 151.485 137.172 152.197 137.172C152.677 137.172 153.089 137.104 153.433 136.968C153.777 136.832 154.065 136.684 154.297 136.524V137.472ZM151.825 132.588C151.369 132.588 150.977 132.728 150.649 133.008C150.321 133.288 150.113 133.712 150.025 134.28H153.373C153.405 133.704 153.273 133.28 152.977 133.008C152.681 132.728 152.297 132.588 151.825 132.588ZM159.866 135.24H156.854V138H155.798V131.772H156.854V134.34H159.866V131.772H160.922V138H159.866V135.24ZM167.285 135.924C167.285 136.284 167.221 136.596 167.093 136.86C166.965 137.124 166.785 137.34 166.553 137.508C166.321 137.676 166.045 137.8 165.725 137.88C165.405 137.96 165.057 138 164.681 138H162.617V131.772H163.673V133.944H164.753C165.545 133.944 166.165 134.1 166.613 134.412C167.061 134.724 167.285 135.228 167.285 135.924ZM163.673 134.844V137.1H164.681C165.137 137.1 165.505 137.016 165.785 136.848C166.073 136.672 166.217 136.384 166.217 135.984C166.217 135.576 166.089 135.284 165.833 135.108C165.577 134.932 165.217 134.844 164.753 134.844H163.673ZM176.546 135.516C176.546 135.916 176.47 136.276 176.318 136.596C176.166 136.916 175.954 137.192 175.682 137.424C175.41 137.648 175.086 137.82 174.71 137.94C174.334 138.06 173.918 138.12 173.462 138.12C172.902 138.12 172.418 138.052 172.01 137.916C171.602 137.78 171.27 137.604 171.014 137.388V136.188C171.27 136.444 171.606 136.668 172.022 136.86C172.438 137.044 172.922 137.136 173.474 137.136C174.066 137.136 174.53 136.996 174.866 136.716C175.21 136.436 175.382 136.044 175.382 135.54C175.382 135.06 175.23 134.688 174.926 134.424C174.622 134.152 174.146 134.016 173.498 134.016H172.394V132.996H173.546C174.002 132.996 174.37 132.876 174.65 132.636C174.93 132.396 175.07 132.048 175.07 131.592C175.07 131.184 174.938 130.864 174.674 130.632C174.41 130.392 174.03 130.272 173.534 130.272C173.022 130.272 172.582 130.368 172.214 130.56C171.854 130.752 171.526 130.976 171.23 131.232V130.056C171.51 129.824 171.842 129.636 172.226 129.492C172.61 129.348 173.05 129.276 173.546 129.276C173.954 129.276 174.322 129.332 174.65 129.444C174.978 129.548 175.254 129.7 175.478 129.9C175.71 130.1 175.886 130.34 176.006 130.62C176.126 130.892 176.186 131.196 176.186 131.532C176.186 131.804 176.146 132.048 176.066 132.264C175.986 132.48 175.874 132.668 175.73 132.828C175.594 132.988 175.434 133.124 175.25 133.236C175.066 133.34 174.87 133.416 174.662 133.464C174.91 133.504 175.146 133.58 175.37 133.692C175.602 133.804 175.806 133.948 175.982 134.124C176.158 134.292 176.294 134.496 176.39 134.736C176.494 134.968 176.546 135.228 176.546 135.516Z" fill="black" fill-opacity="0.85"/>
<path d="M146.955 168.98H148.059V172.04H147.015L146.895 170H140.715L140.583 172.04H139.563V168.98H140.151C140.423 168.732 140.639 168.4 140.799 167.984C140.967 167.56 141.095 167.04 141.183 166.424C141.271 165.808 141.335 165.084 141.375 164.252C141.415 163.42 141.447 162.468 141.471 161.396H146.955V168.98ZM145.815 168.98V162.428H142.527C142.503 163.34 142.467 164.148 142.419 164.852C142.379 165.548 142.315 166.16 142.227 166.688C142.147 167.216 142.043 167.668 141.915 168.044C141.795 168.412 141.643 168.724 141.459 168.98H145.815ZM154.297 169.472C154.209 169.536 154.101 169.604 153.973 169.676C153.845 169.748 153.689 169.82 153.505 169.892C153.321 169.956 153.113 170.008 152.881 170.048C152.649 170.096 152.389 170.12 152.101 170.12C151.053 170.12 150.257 169.836 149.713 169.268C149.169 168.7 148.897 167.904 148.897 166.88C148.897 166.376 148.969 165.924 149.113 165.524C149.265 165.124 149.473 164.788 149.737 164.516C150.001 164.236 150.313 164.024 150.673 163.88C151.033 163.728 151.425 163.652 151.849 163.652C152.297 163.652 152.697 163.728 153.049 163.88C153.401 164.032 153.689 164.256 153.913 164.552C154.145 164.848 154.301 165.216 154.381 165.656C154.469 166.088 154.469 166.592 154.381 167.168H149.989C150.029 167.84 150.229 168.344 150.589 168.68C150.949 169.008 151.485 169.172 152.197 169.172C152.677 169.172 153.089 169.104 153.433 168.968C153.777 168.832 154.065 168.684 154.297 168.524V169.472ZM151.825 164.588C151.369 164.588 150.977 164.728 150.649 165.008C150.321 165.288 150.113 165.712 150.025 166.28H153.373C153.405 165.704 153.273 165.28 152.977 165.008C152.681 164.728 152.297 164.588 151.825 164.588ZM159.866 167.24H156.854V170H155.798V163.772H156.854V166.34H159.866V163.772H160.922V170H159.866V167.24ZM167.285 167.924C167.285 168.284 167.221 168.596 167.093 168.86C166.965 169.124 166.785 169.34 166.553 169.508C166.321 169.676 166.045 169.8 165.725 169.88C165.405 169.96 165.057 170 164.681 170H162.617V163.772H163.673V165.944H164.753C165.545 165.944 166.165 166.1 166.613 166.412C167.061 166.724 167.285 167.228 167.285 167.924ZM163.673 166.844V169.1H164.681C165.137 169.1 165.505 169.016 165.785 168.848C166.073 168.672 166.217 168.384 166.217 167.984C166.217 167.576 166.089 167.284 165.833 167.108C165.577 166.932 165.217 166.844 164.753 166.844H163.673ZM176.474 170H170.99V168.86C171.718 168.276 172.346 167.756 172.874 167.3C173.41 166.844 173.85 166.424 174.194 166.04C174.538 165.656 174.794 165.292 174.962 164.948C175.13 164.596 175.214 164.232 175.214 163.856C175.214 163.384 175.07 163.004 174.782 162.716C174.502 162.42 174.09 162.272 173.546 162.272C173.09 162.272 172.666 162.384 172.274 162.608C171.882 162.832 171.53 163.116 171.218 163.46V162.248C171.522 161.952 171.866 161.716 172.25 161.54C172.634 161.364 173.078 161.276 173.582 161.276C174.03 161.276 174.426 161.336 174.77 161.456C175.122 161.576 175.414 161.744 175.646 161.96C175.886 162.176 176.066 162.436 176.186 162.74C176.314 163.044 176.378 163.38 176.378 163.748C176.378 164.212 176.286 164.648 176.102 165.056C175.926 165.464 175.662 165.872 175.31 166.28C174.958 166.688 174.522 167.112 174.002 167.552C173.49 167.984 172.902 168.456 172.238 168.968H176.474V170Z" fill="black" fill-opacity="0.85"/>
<path d="M146.955 200.98H148.059V204.04H147.015L146.895 202H140.715L140.583 204.04H139.563V200.98H140.151C140.423 200.732 140.639 200.4 140.799 199.984C140.967 199.56 141.095 199.04 141.183 198.424C141.271 197.808 141.335 197.084 141.375 196.252C141.415 195.42 141.447 194.468 141.471 193.396H146.955V200.98ZM145.815 200.98V194.428H142.527C142.503 195.34 142.467 196.148 142.419 196.852C142.379 197.548 142.315 198.16 142.227 198.688C142.147 199.216 142.043 199.668 141.915 200.044C141.795 200.412 141.643 200.724 141.459 200.98H145.815ZM154.297 201.472C154.209 201.536 154.101 201.604 153.973 201.676C153.845 201.748 153.689 201.82 153.505 201.892C153.321 201.956 153.113 202.008 152.881 202.048C152.649 202.096 152.389 202.12 152.101 202.12C151.053 202.12 150.257 201.836 149.713 201.268C149.169 200.7 148.897 199.904 148.897 198.88C148.897 198.376 148.969 197.924 149.113 197.524C149.265 197.124 149.473 196.788 149.737 196.516C150.001 196.236 150.313 196.024 150.673 195.88C151.033 195.728 151.425 195.652 151.849 195.652C152.297 195.652 152.697 195.728 153.049 195.88C153.401 196.032 153.689 196.256 153.913 196.552C154.145 196.848 154.301 197.216 154.381 197.656C154.469 198.088 154.469 198.592 154.381 199.168H149.989C150.029 199.84 150.229 200.344 150.589 200.68C150.949 201.008 151.485 201.172 152.197 201.172C152.677 201.172 153.089 201.104 153.433 200.968C153.777 200.832 154.065 200.684 154.297 200.524V201.472ZM151.825 196.588C151.369 196.588 150.977 196.728 150.649 197.008C150.321 197.288 150.113 197.712 150.025 198.28H153.373C153.405 197.704 153.273 197.28 152.977 197.008C152.681 196.728 152.297 196.588 151.825 196.588ZM159.866 199.24H156.854V202H155.798V195.772H156.854V198.34H159.866V195.772H160.922V202H159.866V199.24ZM167.285 199.924C167.285 200.284 167.221 200.596 167.093 200.86C166.965 201.124 166.785 201.34 166.553 201.508C166.321 201.676 166.045 201.8 165.725 201.88C165.405 201.96 165.057 202 164.681 202H162.617V195.772H163.673V197.944H164.753C165.545 197.944 166.165 198.1 166.613 198.412C167.061 198.724 167.285 199.228 167.285 199.924ZM163.673 198.844V201.1H164.681C165.137 201.1 165.505 201.016 165.785 200.848C166.073 200.672 166.217 200.384 166.217 199.984C166.217 199.576 166.089 199.284 165.833 199.108C165.577 198.932 165.217 198.844 164.753 198.844H163.673ZM174.866 202H173.774V194.752L171.398 196.576V195.364L173.954 193.396H174.866V202Z" fill="black" fill-opacity="0.85"/>
<path d="M100.992 225.396H107.46V234H106.32V226.428H102.12V234H100.992V225.396ZM111.877 234.12C111.453 234.12 111.057 234.048 110.689 233.904C110.321 233.76 110.001 233.552 109.729 233.28C109.465 233 109.257 232.66 109.105 232.26C108.953 231.86 108.877 231.4 108.877 230.88C108.877 230.368 108.953 229.912 109.105 229.512C109.257 229.104 109.465 228.764 109.729 228.492C110.001 228.22 110.321 228.012 110.689 227.868C111.057 227.724 111.453 227.652 111.877 227.652C112.309 227.652 112.709 227.724 113.077 227.868C113.445 228.012 113.761 228.22 114.025 228.492C114.297 228.764 114.509 229.104 114.661 229.512C114.821 229.912 114.901 230.368 114.901 230.88C114.901 231.4 114.821 231.86 114.661 232.26C114.509 232.66 114.297 233 114.025 233.28C113.761 233.552 113.445 233.76 113.077 233.904C112.709 234.048 112.309 234.12 111.877 234.12ZM111.877 233.172C112.157 233.172 112.413 233.128 112.645 233.04C112.885 232.944 113.093 232.804 113.269 232.62C113.445 232.428 113.581 232.188 113.677 231.9C113.773 231.612 113.821 231.272 113.821 230.88C113.821 230.488 113.773 230.148 113.677 229.86C113.581 229.572 113.445 229.336 113.269 229.152C113.093 228.96 112.885 228.82 112.645 228.732C112.413 228.636 112.157 228.588 111.877 228.588C111.597 228.588 111.341 228.636 111.109 228.732C110.877 228.82 110.673 228.96 110.497 229.152C110.329 229.336 110.197 229.572 110.101 229.86C110.005 230.148 109.957 230.488 109.957 230.88C109.957 231.272 110.005 231.612 110.101 231.9C110.197 232.188 110.329 232.428 110.497 232.62C110.673 232.804 110.877 232.944 111.109 233.04C111.341 233.128 111.597 233.172 111.877 233.172ZM116.492 232.068C116.604 231.66 116.676 231.108 116.708 230.412C116.74 229.716 116.756 228.836 116.756 227.772H120.944V234H119.876V228.672H117.752C117.744 229.528 117.716 230.288 117.668 230.952C117.628 231.616 117.536 232.176 117.392 232.632C117.256 233.088 117.052 233.436 116.78 233.676C116.516 233.908 116.16 234.024 115.712 234.024C115.68 234.024 115.648 234.024 115.616 234.024C115.584 234.024 115.548 234.02 115.508 234.012V232.968C115.548 232.976 115.6 232.98 115.664 232.98C116.072 232.98 116.348 232.676 116.492 232.068ZM126.725 231.24H123.713V234H122.657V227.772H123.713V230.34H126.725V227.772H127.781V234H126.725V231.24ZM133.16 232.812C133.088 232.956 132.996 233.108 132.884 233.268C132.772 233.42 132.632 233.56 132.464 233.688C132.296 233.816 132.096 233.92 131.864 234C131.64 234.08 131.376 234.12 131.072 234.12C130.512 234.12 130.06 233.964 129.716 233.652C129.372 233.332 129.2 232.876 129.2 232.284C129.2 231.604 129.436 231.104 129.908 230.784C130.388 230.464 131.068 230.304 131.948 230.304H133.112V229.788C133.112 229.356 133 229.048 132.776 228.864C132.552 228.68 132.168 228.588 131.624 228.588C131.24 228.588 130.876 228.652 130.532 228.78C130.188 228.9 129.88 229.04 129.608 229.2V228.252C129.832 228.116 130.132 227.984 130.508 227.856C130.892 227.72 131.312 227.652 131.768 227.652C132.552 227.652 133.148 227.816 133.556 228.144C133.964 228.464 134.168 228.964 134.168 229.644V232.992C134.168 233.064 134.168 233.148 134.168 233.244C134.176 233.332 134.18 233.424 134.18 233.52C134.188 233.616 134.196 233.708 134.204 233.796C134.212 233.876 134.22 233.944 134.228 234H133.268C133.244 233.888 133.22 233.732 133.196 233.532C133.18 233.324 133.172 233.144 133.172 232.992L133.16 232.812ZM131.3 233.172C131.628 233.172 131.908 233.104 132.14 232.968C132.372 232.832 132.56 232.676 132.704 232.5C132.848 232.316 132.952 232.14 133.016 231.972C133.08 231.796 133.112 231.672 133.112 231.6V231.144H132.056C131.424 231.144 130.964 231.236 130.676 231.42C130.396 231.596 130.256 231.864 130.256 232.224C130.256 232.504 130.34 232.732 130.508 232.908C130.676 233.084 130.94 233.172 131.3 233.172ZM135.829 229.788C135.829 229.436 135.893 229.136 136.021 228.888C136.149 228.632 136.329 228.424 136.561 228.264C136.793 228.096 137.069 227.972 137.389 227.892C137.709 227.812 138.057 227.772 138.433 227.772H140.437V234H139.381V231.744H138.241L136.645 234H135.385L137.185 231.48C136.753 231.352 136.417 231.156 136.177 230.892C135.945 230.628 135.829 230.26 135.829 229.788ZM139.381 230.844V228.672H138.433C137.985 228.672 137.617 228.756 137.329 228.924C137.041 229.092 136.897 229.364 136.897 229.74C136.897 230.132 137.025 230.416 137.281 230.592C137.537 230.76 137.901 230.844 138.373 230.844H139.381ZM146.413 231.348H145.861V234H144.805V227.772H145.861V230.448H146.461L148.645 227.772H149.845L147.289 230.844L149.893 234H148.609L146.413 231.348ZM153.326 234.12C152.902 234.12 152.506 234.048 152.138 233.904C151.77 233.76 151.45 233.552 151.178 233.28C150.914 233 150.706 232.66 150.554 232.26C150.402 231.86 150.326 231.4 150.326 230.88C150.326 230.368 150.402 229.912 150.554 229.512C150.706 229.104 150.914 228.764 151.178 228.492C151.45 228.22 151.77 228.012 152.138 227.868C152.506 227.724 152.902 227.652 153.326 227.652C153.758 227.652 154.158 227.724 154.526 227.868C154.894 228.012 155.21 228.22 155.474 228.492C155.746 228.764 155.958 229.104 156.11 229.512C156.27 229.912 156.35 230.368 156.35 230.88C156.35 231.4 156.27 231.86 156.11 232.26C155.958 232.66 155.746 233 155.474 233.28C155.21 233.552 154.894 233.76 154.526 233.904C154.158 234.048 153.758 234.12 153.326 234.12ZM153.326 233.172C153.606 233.172 153.862 233.128 154.094 233.04C154.334 232.944 154.542 232.804 154.718 232.62C154.894 232.428 155.03 232.188 155.126 231.9C155.222 231.612 155.27 231.272 155.27 230.88C155.27 230.488 155.222 230.148 155.126 229.86C155.03 229.572 154.894 229.336 154.718 229.152C154.542 228.96 154.334 228.82 154.094 228.732C153.862 228.636 153.606 228.588 153.326 228.588C153.046 228.588 152.79 228.636 152.558 228.732C152.326 228.82 152.122 228.96 151.946 229.152C151.778 229.336 151.646 229.572 151.55 229.86C151.454 230.148 151.406 230.488 151.406 230.88C151.406 231.272 151.454 231.612 151.55 231.9C151.646 232.188 151.778 232.428 151.946 232.62C152.122 232.804 152.326 232.944 152.558 233.04C152.79 233.128 153.046 233.172 153.326 233.172ZM157.637 227.772H162.629V234H161.573V228.672H158.693V234H157.637V227.772ZM165.408 232.56L168.732 227.772H169.8V234H168.744V229.224L165.432 234H164.352V227.772H165.408V232.56ZM171.524 229.788C171.524 229.436 171.588 229.136 171.716 228.888C171.844 228.632 172.024 228.424 172.256 228.264C172.488 228.096 172.764 227.972 173.084 227.892C173.404 227.812 173.752 227.772 174.128 227.772H176.132V234H175.076V231.744H173.936L172.34 234H171.08L172.88 231.48C172.448 231.352 172.112 231.156 171.872 230.892C171.64 230.628 171.524 230.26 171.524 229.788ZM175.076 230.844V228.672H174.128C173.68 228.672 173.312 228.756 173.024 228.924C172.736 229.092 172.592 229.364 172.592 229.74C172.592 230.132 172.72 230.416 172.976 230.592C173.232 230.76 173.596 230.844 174.068 230.844H175.076Z" fill="black" fill-opacity="0.85"/>
<defs>
<filter id="filter0_d_1_297" x="29" y="12" width="642" height="286" filterUnits="userSpaceOnUse" color-interpolation-filters="sRGB">
<feFlood flood-opacity="0" result="BackgroundImageFix"/>
<feColorMatrix in="SourceAlpha" type="matrix" values="0 0 0 0 0 0 0 0 0 0 0 0 0 0 0 0 0 0 127 0" result="hardAlpha"/>
<feOffset/>
<feGaussianBlur stdDeviation="4"/>
<feColorMatrix type="matrix" values="0 0 0 0 0.321569 0 0 0 0 0.509804 0 0 0 0 1 0 0 0 0.2 0"/>
<feBlend mode="normal" in2="BackgroundImageFix" result="effect1_dropShadow_1_297"/>
<feBlend mode="normal" in="SourceGraphic" in2="effect1_dropShadow_1_297" result="shape"/>
</filter>
</defs>
</svg>
