<svg xmlns="http://www.w3.org/2000/svg" width="700" height="170" fill="none"><rect width="614" height="140" x="-1" y="1" fill="#fff" rx="9" transform="matrix(-1 0 0 1 656 14)"/><rect width="614" height="140" x="-1" y="1" stroke="#5282FF" stroke-width="2" rx="9" transform="matrix(-1 0 0 1 656 14)"/><path fill="#262626" d="M325.825 38.962V49h-1.316V38.962h1.316Zm2.334 0h3.206c1.139 0 2.021.238 2.646.714.635.467.952 1.2.952 2.198 0 .57-.093 1.06-.28 1.47a2.584 2.584 0 0 1-.756.994 3.138 3.138 0 0 1-1.176.574 5.728 5.728 0 0 1-1.498.182h-1.778V49h-1.316V38.962Zm1.316 1.204v3.738h1.778c.355 0 .677-.037.966-.112.29-.075.537-.191.742-.35.215-.159.378-.364.49-.616.122-.261.182-.574.182-.938 0-.607-.196-1.045-.588-1.316-.392-.27-.952-.406-1.68-.406h-1.89Zm6.688 4.004h3.36v1.12h-3.36v-1.12Zm5.213-2.436h5.824V49h-1.232v-6.216h-3.36V49h-1.232v-7.266Zm12.09 5.88a4.219 4.219 0 0 1-.322.532 2.444 2.444 0 0 1-1.19.854c-.261.093-.569.14-.924.14-.653 0-1.181-.182-1.582-.546-.401-.373-.602-.905-.602-1.596 0-.793.275-1.377.826-1.75.56-.373 1.353-.56 2.38-.56h1.358v-.602c0-.504-.131-.863-.392-1.078-.261-.215-.709-.322-1.344-.322-.448 0-.873.075-1.274.224-.401.14-.761.303-1.078.49v-1.106a5.42 5.42 0 0 1 1.05-.462 4.374 4.374 0 0 1 1.47-.238c.915 0 1.61.191 2.086.574.476.373.714.957.714 1.75v4.2c.009.103.014.21.014.322l.028.322c.009.093.019.173.028.238h-1.12a6.4 6.4 0 0 1-.084-.546 8.197 8.197 0 0 1-.028-.63l-.014-.21Zm-2.17.42c.383 0 .709-.08.98-.238.271-.159.49-.34.658-.546.168-.215.289-.42.364-.616.075-.205.112-.35.112-.434v-.532h-1.232c-.737 0-1.274.107-1.61.322-.327.205-.49.518-.49.938 0 .327.098.593.294.798.196.205.504.308.924.308Zm7.159-2.128h-.644V49h-1.232v-7.266h1.232v3.122h.7l2.548-3.122h1.4l-2.982 3.584L362.515 49h-1.498l-2.562-3.094Zm10.865 2.478a3.738 3.738 0 0 1-.378.238 4.34 4.34 0 0 1-.546.252 4.576 4.576 0 0 1-.728.182c-.27.056-.574.084-.91.084-1.222 0-2.151-.331-2.786-.994-.634-.663-.952-1.591-.952-2.786 0-.588.084-1.115.252-1.582.178-.467.42-.859.728-1.176a3.028 3.028 0 0 1 1.092-.742c.42-.177.878-.266 1.372-.266.523 0 .99.089 1.4.266.411.177.747.439 1.008.784.271.345.453.775.546 1.288.103.504.103 1.092 0 1.764h-5.124c.047.784.28 1.372.7 1.764.42.383 1.046.574 1.876.574.56 0 1.041-.08 1.442-.238a5.015 5.015 0 0 0 1.008-.518v1.106Zm-2.884-5.698c-.532 0-.989.163-1.372.49-.382.327-.625.821-.728 1.484h3.906c.038-.672-.116-1.167-.462-1.484-.345-.327-.793-.49-1.344-.49Zm7.493.098V49h-1.232v-6.216h-2.282v-1.05h5.838v1.05h-2.324Z"/><rect width="164" height="60" x="64" y="74" fill="#D6E1FF" rx="10"/><path fill="#262626" d="M118.968 104.064v-.96h1.212c.6 0 1.056-.128 1.368-.384.312-.264.468-.624.468-1.08 0-.488-.164-.832-.492-1.032-.328-.208-.76-.312-1.296-.312a5.66 5.66 0 0 0-2.652.624v-1.068a5.667 5.667 0 0 1 1.032-.384c.432-.12.976-.18 1.632-.18.896 0 1.608.188 2.136.564.528.368.792.94.792 1.716 0 .504-.152.92-.456 1.248-.296.328-.732.56-1.308.696.68.088 1.192.296 1.536.624.352.32.528.78.528 1.38 0 .456-.088.852-.264 1.188a2.246 2.246 0 0 1-.72.804 3.188 3.188 0 0 1-1.056.468c-.408.096-.84.144-1.296.144-.648 0-1.204-.076-1.668-.228-.464-.16-.804-.332-1.02-.516v-1.08c.744.536 1.628.804 2.652.804.296 0 .576-.024.84-.072a2.25 2.25 0 0 0 .696-.264c.2-.12.356-.28.468-.48.12-.2.18-.448.18-.744 0-.544-.176-.924-.528-1.14-.344-.224-.86-.336-1.548-.336h-1.236Zm9.63 2.748a3.648 3.648 0 0 1-.276.456 2.088 2.088 0 0 1-1.02.732c-.224.08-.488.12-.792.12-.56 0-1.012-.156-1.356-.468-.344-.32-.516-.776-.516-1.368 0-.68.236-1.18.708-1.5.48-.32 1.16-.48 2.04-.48h1.164v-.516c0-.432-.112-.74-.336-.924-.224-.184-.608-.276-1.152-.276-.384 0-.748.064-1.092.192-.344.12-.652.26-.924.42v-.948c.224-.136.524-.268.9-.396a3.75 3.75 0 0 1 1.26-.204c.784 0 1.38.164 1.788.492.408.32.612.82.612 1.5V107.244c.008.088.012.18.012.276l.024.276c.008.08.016.148.024.204h-.96a5.482 5.482 0 0 1-.072-.468 7.173 7.173 0 0 1-.024-.54l-.012-.18Zm-1.86.36c.328 0 .608-.068.84-.204.232-.136.42-.292.564-.468.144-.184.248-.36.312-.528.064-.176.096-.3.096-.372v-.456h-1.056c-.632 0-1.092.092-1.38.276-.28.176-.42.444-.42.804 0 .28.084.508.252.684.168.176.432.264.792.264Zm4.528-5.4h3.96v.9h-2.904V108h-1.056v-6.228Zm7.619 6.348c-.424 0-.82-.072-1.188-.216a2.767 2.767 0 0 1-.96-.624 3.04 3.04 0 0 1-.624-1.02c-.152-.4-.228-.86-.228-1.38 0-.512.076-.968.228-1.368a2.89 2.89 0 0 1 .624-1.02c.272-.272.592-.48.96-.624a3.231 3.231 0 0 1 1.188-.216c.432 0 .832.072 1.2.216.368.144.684.352.948.624.272.272.484.612.636 1.02.16.4.24.856.24 1.368 0 .52-.08.98-.24 1.38-.152.4-.364.74-.636 1.02-.264.272-.58.48-.948.624a3.265 3.265 0 0 1-1.2.216Zm0-.948c.28 0 .536-.044.768-.132.24-.096.448-.236.624-.42.176-.192.312-.432.408-.72.096-.288.144-.628.144-1.02s-.048-.732-.144-1.02a1.855 1.855 0 0 0-.408-.708 1.569 1.569 0 0 0-.624-.42 1.99 1.99 0 0 0-.768-.144c-.28 0-.536.048-.768.144a1.586 1.586 0 0 0-.612.42c-.168.184-.3.42-.396.708a3.234 3.234 0 0 0-.144 1.02c0 .392.048.732.144 1.02.096.288.228.528.396.72.176.184.38.324.612.42.232.088.488.132.768.132Zm4.615-1.104c.112-.408.184-.96.216-1.656s.048-1.576.048-2.64h4.188V108h-1.068v-5.328h-2.124a36.75 36.75 0 0 1-.084 2.28c-.04.664-.132 1.224-.276 1.68-.136.456-.34.804-.612 1.044-.264.232-.62.348-1.068.348h-.096a.556.556 0 0 1-.108-.012v-1.044c.04.008.092.012.156.012.408 0 .684-.304.828-.912Zm8.721 2.052c-.424 0-.82-.072-1.188-.216a2.767 2.767 0 0 1-.96-.624 3.04 3.04 0 0 1-.624-1.02c-.152-.4-.228-.86-.228-1.38 0-.512.076-.968.228-1.368a2.89 2.89 0 0 1 .624-1.02c.272-.272.592-.48.96-.624a3.231 3.231 0 0 1 1.188-.216c.432 0 .832.072 1.2.216.368.144.684.352.948.624.272.272.484.612.636 1.02.16.4.24.856.24 1.368 0 .52-.08.98-.24 1.38-.152.4-.364.74-.636 1.02-.264.272-.58.48-.948.624a3.265 3.265 0 0 1-1.2.216Zm0-.948c.28 0 .536-.044.768-.132.24-.096.448-.236.624-.42.176-.192.312-.432.408-.72.096-.288.144-.628.144-1.02s-.048-.732-.144-1.02a1.855 1.855 0 0 0-.408-.708 1.569 1.569 0 0 0-.624-.42 1.99 1.99 0 0 0-.768-.144c-.28 0-.536.048-.768.144a1.586 1.586 0 0 0-.612.42c-.168.184-.3.42-.396.708a3.234 3.234 0 0 0-.144 1.02c0 .392.048.732.144 1.02.096.288.228.528.396.72.176.184.38.324.612.42.232.088.488.132.768.132Zm4.311-5.4h2.328c.752 0 1.32.132 1.704.396.384.256.576.66.576 1.212 0 .368-.096.664-.288.888-.184.216-.448.372-.792.468.888.144 1.332.636 1.332 1.476 0 .32-.064.596-.192.828a1.583 1.583 0 0 1-.528.552 2.348 2.348 0 0 1-.816.312 5.08 5.08 0 0 1-1.02.096h-2.304v-6.228Zm1.056.9v1.692h1.176c.4 0 .72-.072.96-.216.248-.144.372-.352.372-.624 0-.328-.108-.552-.324-.672-.216-.12-.524-.18-.924-.18h-1.26Zm0 2.532v1.896h1.236c.224 0 .424-.012.6-.036.184-.032.34-.084.468-.156a.778.778 0 0 0 .312-.288.85.85 0 0 0 .108-.444c0-.36-.124-.612-.372-.756-.248-.144-.62-.216-1.116-.216h-1.236Zm7.945 2.916c-.424 0-.82-.072-1.188-.216a2.767 2.767 0 0 1-.96-.624 3.04 3.04 0 0 1-.624-1.02c-.152-.4-.228-.86-.228-1.38 0-.512.076-.968.228-1.368a2.89 2.89 0 0 1 .624-1.02c.272-.272.592-.48.96-.624a3.231 3.231 0 0 1 1.188-.216c.432 0 .832.072 1.2.216.368.144.684.352.948.624.272.272.484.612.636 1.02.16.4.24.856.24 1.368 0 .52-.08.98-.24 1.38-.152.4-.364.74-.636 1.02-.264.272-.58.48-.948.624a3.265 3.265 0 0 1-1.2.216Zm0-.948c.28 0 .536-.044.768-.132.24-.096.448-.236.624-.42.176-.192.312-.432.408-.72.096-.288.144-.628.144-1.02s-.048-.732-.144-1.02a1.855 1.855 0 0 0-.408-.708 1.569 1.569 0 0 0-.624-.42 1.99 1.99 0 0 0-.768-.144c-.28 0-.536.048-.768.144a1.586 1.586 0 0 0-.612.42c-.168.184-.3.42-.396.708a3.234 3.234 0 0 0-.144 1.02c0 .392.048.732.144 1.02.096.288.228.528.396.72.176.184.38.324.612.42.232.088.488.132.768.132Zm5.919-1.824h-.552V108h-1.056v-6.228h1.056v2.676h.6l2.184-2.676h1.2l-2.556 3.072 2.604 3.156h-1.284l-2.196-2.652Z"/><rect width="164" height="60" x="268" y="74" fill="#D6E1FF" rx="10"/><path fill="#262626" d="M297.647 99.396h6.468V108h-1.14v-7.572h-4.2V108h-1.128v-8.604Zm10.884 8.724c-.424 0-.82-.072-1.188-.216a2.767 2.767 0 0 1-.96-.624 3.04 3.04 0 0 1-.624-1.02c-.152-.4-.228-.86-.228-1.38 0-.512.076-.968.228-1.368a2.89 2.89 0 0 1 .624-1.02c.272-.272.592-.48.96-.624a3.231 3.231 0 0 1 1.188-.216c.432 0 .832.072 1.2.216.368.144.684.352.948.624.272.272.484.612.636 1.02.16.4.24.856.24 1.368 0 .52-.08.98-.24 1.38-.152.4-.364.74-.636 1.02-.264.272-.58.48-.948.624a3.265 3.265 0 0 1-1.2.216Zm0-.948c.28 0 .536-.044.768-.132.24-.096.448-.236.624-.42.176-.192.312-.432.408-.72.096-.288.144-.628.144-1.02s-.048-.732-.144-1.02a1.855 1.855 0 0 0-.408-.708 1.569 1.569 0 0 0-.624-.42 1.99 1.99 0 0 0-.768-.144c-.28 0-.536.048-.768.144a1.586 1.586 0 0 0-.612.42c-.168.184-.3.42-.396.708a3.234 3.234 0 0 0-.144 1.02c0 .392.048.732.144 1.02.096.288.228.528.396.72.176.184.38.324.612.42.232.088.488.132.768.132Zm4.616-1.104c.112-.408.184-.96.216-1.656s.048-1.576.048-2.64h4.188V108h-1.068v-5.328h-2.124a36.75 36.75 0 0 1-.084 2.28c-.04.664-.132 1.224-.276 1.68-.136.456-.34.804-.612 1.044-.264.232-.62.348-1.068.348h-.096a.556.556 0 0 1-.108-.012v-1.044c.04.008.092.012.156.012.408 0 .684-.304.828-.912Zm11.12 1.404a3.344 3.344 0 0 1-.324.204 3.758 3.758 0 0 1-.468.216 3.946 3.946 0 0 1-.624.156 3.864 3.864 0 0 1-.78.072c-1.048 0-1.844-.284-2.388-.852-.544-.568-.816-1.364-.816-2.388 0-.504.072-.956.216-1.356.152-.4.36-.736.624-1.008.264-.28.576-.492.936-.636.36-.152.752-.228 1.176-.228a3 3 0 0 1 1.2.228c.352.152.64.376.864.672.232.296.388.664.468 1.104.088.432.088.936 0 1.512h-4.392c.04.672.24 1.176.6 1.512.36.328.896.492 1.608.492.48 0 .892-.068 1.236-.204a4.33 4.33 0 0 0 .864-.444v.948Zm-2.472-4.884c-.456 0-.848.14-1.176.42-.328.28-.536.704-.624 1.272h3.348c.032-.576-.1-1-.396-1.272-.296-.28-.68-.42-1.152-.42Zm8.389 3.6c0 .352-.072.652-.216.9-.136.24-.324.44-.564.6-.24.152-.52.26-.84.324-.312.072-.64.108-.984.108a4.62 4.62 0 0 1-1.212-.144c-.344-.096-.616-.212-.816-.348v-.948c.248.152.544.272.888.36.344.088.716.132 1.116.132.456 0 .836-.072 1.14-.216.312-.152.468-.408.468-.768 0-.352-.132-.6-.396-.744-.256-.144-.652-.216-1.188-.216h-.828v-.852h.864c.44 0 .776-.08 1.008-.24.232-.16.348-.392.348-.696a.63.63 0 0 0-.12-.396.742.742 0 0 0-.3-.264 1.274 1.274 0 0 0-.456-.144 2.885 2.885 0 0 0-.54-.048c-.368 0-.712.044-1.032.132a3.275 3.275 0 0 0-.852.372v-.948c.208-.136.476-.252.804-.348a4.25 4.25 0 0 1 1.164-.144c.76 0 1.332.144 1.716.432.392.288.588.704.588 1.248 0 .408-.112.728-.336.96-.216.232-.524.392-.924.48.496.064.868.22 1.116.468.256.248.384.564.384.948Zm5.617-.948h-3.012V108h-1.056v-6.228h1.056v2.568h3.012v-2.568h1.056V108h-1.056v-2.76Zm6.436 1.572a3.648 3.648 0 0 1-.276.456 2.088 2.088 0 0 1-1.02.732c-.224.08-.488.12-.792.12-.56 0-1.012-.156-1.356-.468-.344-.32-.516-.776-.516-1.368 0-.68.236-1.18.708-1.5.48-.32 1.16-.48 2.04-.48h1.164v-.516c0-.432-.112-.74-.336-.924-.224-.184-.608-.276-1.152-.276-.384 0-.748.064-1.092.192-.344.12-.652.26-.924.42v-.948c.224-.136.524-.268.9-.396a3.75 3.75 0 0 1 1.26-.204c.784 0 1.38.164 1.788.492.408.32.612.82.612 1.5V107.244c.008.088.012.18.012.276l.024.276c.008.08.016.148.024.204h-.96a5.482 5.482 0 0 1-.072-.468 7.173 7.173 0 0 1-.024-.54l-.012-.18Zm-1.86.36c.328 0 .608-.068.84-.204.232-.136.42-.292.564-.468.144-.184.248-.36.312-.528.064-.176.096-.3.096-.372v-.456h-1.056c-.632 0-1.092.092-1.38.276-.28.176-.42.444-.42.804 0 .28.084.508.252.684.168.176.432.264.792.264Zm4.528-3.384c0-.352.064-.652.192-.9.128-.256.308-.464.54-.624a2.38 2.38 0 0 1 .828-.372c.32-.08.668-.12 1.044-.12h2.004V108h-1.056v-2.256h-1.14L345.721 108h-1.26l1.8-2.52c-.432-.128-.768-.324-1.008-.588-.232-.264-.348-.632-.348-1.104Zm3.552 1.056v-2.172h-.948c-.448 0-.816.084-1.104.252-.288.168-.432.44-.432.816 0 .392.128.676.384.852.256.168.62.252 1.092.252h1.008Zm9.493.396h-3.012V108h-1.056v-6.228h1.056v2.568h3.012v-2.568h1.056V108h-1.056v-2.76Zm6.435 1.572a3.648 3.648 0 0 1-.276.456 2.088 2.088 0 0 1-1.02.732c-.224.08-.488.12-.792.12-.56 0-1.012-.156-1.356-.468-.344-.32-.516-.776-.516-1.368 0-.68.236-1.18.708-1.5.48-.32 1.16-.48 2.04-.48h1.164v-.516c0-.432-.112-.74-.336-.924-.224-.184-.608-.276-1.152-.276-.384 0-.748.064-1.092.192-.344.12-.652.26-.924.42v-.948c.224-.136.524-.268.9-.396a3.75 3.75 0 0 1 1.26-.204c.784 0 1.38.164 1.788.492.408.32.612.82.612 1.5V107.244c.008.088.012.18.012.276l.024.276c.008.08.016.148.024.204h-.96a5.482 5.482 0 0 1-.072-.468 7.173 7.173 0 0 1-.024-.54l-.012-.18Zm-1.86.36c.328 0 .608-.068.84-.204.232-.136.42-.292.564-.468.144-.184.248-.36.312-.528.064-.176.096-.3.096-.372v-.456h-1.056c-.632 0-1.092.092-1.38.276-.28.176-.42.444-.42.804 0 .28.084.508.252.684.168.176.432.264.792.264Zm4.528-5.4h3.96v.9h-2.904V108h-1.056v-6.228Zm8.371 6.348c-.48 0-.896-.112-1.248-.336a2.444 2.444 0 0 1-.828-.924v3.264h-1.056v-8.352h.924l.108 1.212c.208-.408.488-.732.84-.972s.788-.36 1.308-.36c.36 0 .704.068 1.032.204.336.128.628.328.876.6.256.264.456.6.6 1.008.152.4.228.872.228 1.416 0 .552-.076 1.032-.228 1.44a3.01 3.01 0 0 1-.612 1.008 2.566 2.566 0 0 1-.888.6 2.941 2.941 0 0 1-1.056.192Zm-.156-.948c.552 0 .996-.188 1.332-.564.344-.384.516-.96.516-1.728 0-.752-.172-1.32-.516-1.704-.336-.392-.78-.588-1.332-.588-.272 0-.528.048-.768.144a1.71 1.71 0 0 0-.612.432c-.168.184-.304.42-.408.708a3.191 3.191 0 0 0-.144 1.008c0 .384.048.72.144 1.008.104.288.24.528.408.72.176.192.38.336.612.432.24.088.496.132.768.132Zm7.22.756a7.132 7.132 0 0 1-.456.984c-.16.288-.34.532-.54.732-.2.2-.424.348-.672.444a2.187 2.187 0 0 1-.852.156c-.16 0-.308-.012-.444-.036a1.336 1.336 0 0 1-.372-.096v-1.02c.088.064.2.112.336.144.136.04.284.06.444.06.296 0 .54-.072.732-.216.192-.136.376-.356.552-.66l-2.532-6.648h1.164l1.98 5.256 1.968-5.256h1.02l-2.328 6.156Zm7.79-1.74c0 .352-.072.652-.216.9-.136.24-.324.44-.564.6-.24.152-.52.26-.84.324-.312.072-.64.108-.984.108a4.62 4.62 0 0 1-1.212-.144c-.344-.096-.616-.212-.816-.348v-.948c.248.152.544.272.888.36.344.088.716.132 1.116.132.456 0 .836-.072 1.14-.216.312-.152.468-.408.468-.768 0-.352-.132-.6-.396-.744-.256-.144-.652-.216-1.188-.216h-.828v-.852h.864c.44 0 .776-.08 1.008-.24.232-.16.348-.392.348-.696a.63.63 0 0 0-.12-.396.742.742 0 0 0-.3-.264 1.274 1.274 0 0 0-.456-.144 2.885 2.885 0 0 0-.54-.048c-.368 0-.712.044-1.032.132a3.275 3.275 0 0 0-.852.372v-.948c.208-.136.476-.252.804-.348a4.25 4.25 0 0 1 1.164-.144c.76 0 1.332.144 1.716.432.392.288.588.704.588 1.248 0 .408-.112.728-.336.96-.216.232-.524.392-.924.48.496.064.868.22 1.116.468.256.248.384.564.384.948Zm3.157-.84h-.552V108h-1.056v-6.228h1.056v2.676h.6l2.184-2.676h1.2l-2.556 3.072 2.604 3.156h-1.284l-2.196-2.652Zm8.122 1.464a3.648 3.648 0 0 1-.276.456 2.088 2.088 0 0 1-1.02.732c-.224.08-.488.12-.792.12-.56 0-1.012-.156-1.356-.468-.344-.32-.516-.776-.516-1.368 0-.68.236-1.18.708-1.5.48-.32 1.16-.48 2.04-.48h1.164v-.516c0-.432-.112-.74-.336-.924-.224-.184-.608-.276-1.152-.276-.384 0-.748.064-1.092.192-.344.12-.652.26-.924.42v-.948c.224-.136.524-.268.9-.396a3.75 3.75 0 0 1 1.26-.204c.784 0 1.38.164 1.788.492.408.32.612.82.612 1.5V107.244c.008.088.012.18.012.276l.024.276c.008.08.016.148.024.204h-.96a5.482 5.482 0 0 1-.072-.468 7.173 7.173 0 0 1-.024-.54l-.012-.18Zm-1.86.36c.328 0 .608-.068.84-.204.232-.136.42-.292.564-.468.144-.184.248-.36.312-.528.064-.176.096-.3.096-.372v-.456h-1.056c-.632 0-1.092.092-1.38.276-.28.176-.42.444-.42.804 0 .28.084.508.252.684.168.176.432.264.792.264Z"/><rect width="164" height="60" x="472" y="74" fill="#D6E1FF" rx="10"/><path fill="#262626" d="M534.369 100.44V108h-1.14v-7.56h-2.652v-1.044h6.444v1.044h-2.652Zm6.289 7.68c-.48 0-.896-.112-1.248-.336a2.444 2.444 0 0 1-.828-.924v3.264h-1.056v-8.352h.924l.108 1.212c.208-.408.488-.732.84-.972s.788-.36 1.308-.36c.36 0 .704.068 1.032.204.336.128.628.328.876.6.256.264.456.6.6 1.008.152.4.228.872.228 1.416 0 .552-.076 1.032-.228 1.44a3.01 3.01 0 0 1-.612 1.008 2.566 2.566 0 0 1-.888.6 2.941 2.941 0 0 1-1.056.192Zm-.156-.948c.552 0 .996-.188 1.332-.564.344-.384.516-.96.516-1.728 0-.752-.172-1.32-.516-1.704-.336-.392-.78-.588-1.332-.588-.272 0-.528.048-.768.144a1.71 1.71 0 0 0-.612.432c-.168.184-.304.42-.408.708a3.191 3.191 0 0 0-.144 1.008c0 .384.048.72.144 1.008.104.288.24.528.408.72.176.192.38.336.612.432.24.088.496.132.768.132Zm9.175.3a3.344 3.344 0 0 1-.324.204 3.758 3.758 0 0 1-.468.216 3.946 3.946 0 0 1-.624.156 3.864 3.864 0 0 1-.78.072c-1.048 0-1.844-.284-2.388-.852-.544-.568-.816-1.364-.816-2.388 0-.504.072-.956.216-1.356.152-.4.36-.736.624-1.008.264-.28.576-.492.936-.636.36-.152.752-.228 1.176-.228a3 3 0 0 1 1.2.228c.352.152.64.376.864.672.232.296.388.664.468 1.104.088.432.088.936 0 1.512h-4.392c.04.672.24 1.176.6 1.512.36.328.896.492 1.608.492.48 0 .892-.068 1.236-.204a4.33 4.33 0 0 0 .864-.444v.948Zm-2.472-4.884c-.456 0-.848.14-1.176.42-.328.28-.536.704-.624 1.272h3.348c.032-.576-.1-1-.396-1.272-.296-.28-.68-.42-1.152-.42Zm6.721-1.644c-.32 0-.6-.04-.84-.12a1.847 1.847 0 0 1-.588-.348 1.589 1.589 0 0 1-.348-.516 1.9 1.9 0 0 1-.108-.648h1.056c0 .304.072.524.216.66.152.136.356.204.612.204s.456-.068.6-.204c.144-.136.216-.356.216-.66h1.056c0 .456-.156.844-.468 1.164-.304.312-.772.468-1.404.468Zm-1.692 5.616 3.324-4.788h1.068V108h-1.056v-4.776L552.258 108h-1.08v-6.228h1.056v4.788Zm6.596-.492c.112-.408.184-.96.216-1.656s.048-1.576.048-2.64h4.188V108h-1.068v-5.328h-2.124a36.75 36.75 0 0 1-.084 2.28c-.04.664-.132 1.224-.276 1.68-.136.456-.34.804-.612 1.044-.264.232-.62.348-1.068.348h-.096a.556.556 0 0 1-.108-.012v-1.044c.04.008.092.012.156.012.408 0 .684-.304.828-.912Zm11.121 1.404a3.344 3.344 0 0 1-.324.204 3.758 3.758 0 0 1-.468.216 3.946 3.946 0 0 1-.624.156 3.864 3.864 0 0 1-.78.072c-1.048 0-1.844-.284-2.388-.852-.544-.568-.816-1.364-.816-2.388 0-.504.072-.956.216-1.356.152-.4.36-.736.624-1.008.264-.28.576-.492.936-.636.36-.152.752-.228 1.176-.228a3 3 0 0 1 1.2.228c.352.152.64.376.864.672.232.296.388.664.468 1.104.088.432.088.936 0 1.512h-4.392c.04.672.24 1.176.6 1.512.36.328.896.492 1.608.492.48 0 .892-.068 1.236-.204a4.33 4.33 0 0 0 .864-.444v.948Zm-2.472-4.884c-.456 0-.848.14-1.176.42-.328.28-.536.704-.624 1.272h3.348c.032-.576-.1-1-.396-1.272-.296-.28-.68-.42-1.152-.42Zm7.105 5.532c-.48 0-.896-.112-1.248-.336a2.444 2.444 0 0 1-.828-.924v3.264h-1.056v-8.352h.924l.108 1.212c.208-.408.488-.732.84-.972s.788-.36 1.308-.36c.36 0 .704.068 1.032.204.336.128.628.328.876.6.256.264.456.6.6 1.008.152.4.228.872.228 1.416 0 .552-.076 1.032-.228 1.44a3.01 3.01 0 0 1-.612 1.008 2.566 2.566 0 0 1-.888.6 2.941 2.941 0 0 1-1.056.192Zm-.156-.948c.552 0 .996-.188 1.332-.564.344-.384.516-.96.516-1.728 0-.752-.172-1.32-.516-1.704-.336-.392-.78-.588-1.332-.588-.272 0-.528.048-.768.144a1.71 1.71 0 0 0-.612.432c-.168.184-.304.42-.408.708a3.191 3.191 0 0 0-.144 1.008c0 .384.048.72.144 1.008.104.288.24.528.408.72.176.192.38.336.612.432.24.088.496.132.768.132Z"/></svg>