<svg width="298" height="335" viewBox="0 0 298 335" fill="none" xmlns="http://www.w3.org/2000/svg">
<rect x="1" y="59.9425" width="296" height="81.0575" rx="8" fill="white" stroke="#5282FF" stroke-width="2"/>
<path d="M224 58.9186H236.641V61H224V58.9186Z" fill="white"/>
<path d="M62 140H74.6406V142H68.5H62V140Z" fill="white"/>
<path d="M62 58.874H74.6406V61.042L62 61V58.874Z" fill="white"/>
<rect x="111" y="33" width="76" height="14" rx="4" fill="white"/>
<path d="M116.507 36.355H122.26V44H121.248V37.103H117.519V44H116.507V36.355ZM126.023 44.11C125.649 44.11 125.297 44.0477 124.967 43.923C124.644 43.791 124.362 43.604 124.12 43.362C123.885 43.1127 123.698 42.812 123.559 42.46C123.427 42.1007 123.361 41.69 123.361 41.228C123.361 40.766 123.427 40.359 123.559 40.007C123.698 39.6477 123.885 39.347 124.12 39.105C124.362 38.863 124.644 38.6797 124.967 38.555C125.297 38.423 125.649 38.357 126.023 38.357C126.404 38.357 126.76 38.423 127.09 38.555C127.42 38.6797 127.706 38.863 127.948 39.105C128.19 39.347 128.377 39.6477 128.509 40.007C128.648 40.359 128.718 40.766 128.718 41.228C128.718 41.69 128.648 42.1007 128.509 42.46C128.377 42.812 128.19 43.1127 127.948 43.362C127.706 43.604 127.42 43.791 127.09 43.923C126.76 44.0477 126.404 44.11 126.023 44.11ZM126.023 43.439C126.272 43.439 126.503 43.3987 126.716 43.318C126.928 43.2373 127.112 43.109 127.266 42.933C127.42 42.757 127.541 42.5297 127.629 42.251C127.717 41.965 127.761 41.624 127.761 41.228C127.761 40.832 127.717 40.4947 127.629 40.216C127.541 39.9373 127.42 39.71 127.266 39.534C127.112 39.358 126.928 39.2297 126.716 39.149C126.503 39.0683 126.272 39.028 126.023 39.028C125.781 39.028 125.553 39.0683 125.341 39.149C125.135 39.2297 124.956 39.358 124.802 39.534C124.648 39.71 124.527 39.9373 124.439 40.216C124.358 40.4947 124.318 40.832 124.318 41.228C124.318 41.624 124.358 41.965 124.439 42.251C124.527 42.5297 124.648 42.757 124.802 42.933C124.956 43.109 125.135 43.2373 125.341 43.318C125.553 43.3987 125.781 43.439 126.023 43.439ZM129.954 42.284C130.042 41.9173 130.1 41.426 130.13 40.81C130.166 40.1867 130.185 39.4057 130.185 38.467H133.87V44H132.924V39.127H130.977C130.969 39.8603 130.951 40.513 130.922 41.085C130.892 41.657 130.826 42.152 130.724 42.57C130.599 43.0687 130.408 43.4427 130.152 43.692C129.902 43.9413 129.532 44.0477 129.041 44.011V43.241C129.275 43.2777 129.466 43.2153 129.613 43.054C129.759 42.8853 129.873 42.6287 129.954 42.284ZM139.332 42.152C139.332 42.4747 139.273 42.7533 139.156 42.988C139.046 43.2227 138.888 43.417 138.683 43.571C138.478 43.7177 138.232 43.8277 137.946 43.901C137.667 43.967 137.359 44 137.022 44H135.185V38.467H136.12V40.392H137.088C137.792 40.392 138.342 40.5313 138.738 40.81C139.134 41.0887 139.332 41.536 139.332 42.152ZM136.12 41.052V43.34H137.022C137.425 43.34 137.752 43.252 138.001 43.076C138.258 42.9 138.386 42.6103 138.386 42.207C138.386 41.8037 138.272 41.5103 138.045 41.327C137.818 41.1437 137.499 41.052 137.088 41.052H136.12ZM144.137 42.438C144.137 42.7387 144.075 42.9953 143.95 43.208C143.825 43.4133 143.653 43.5857 143.433 43.725C143.22 43.857 142.975 43.9523 142.696 44.011C142.417 44.077 142.124 44.11 141.816 44.11C141.42 44.11 141.061 44.066 140.738 43.978C140.423 43.89 140.181 43.7763 140.012 43.637V42.922C140.232 43.076 140.496 43.197 140.804 43.285C141.112 43.373 141.442 43.417 141.794 43.417C142.205 43.417 142.546 43.34 142.817 43.186C143.088 43.0247 143.224 42.757 143.224 42.383C143.224 42.0823 143.11 41.866 142.883 41.734C142.656 41.5947 142.3 41.525 141.816 41.525H141.079V40.799H141.849C142.245 40.799 142.546 40.7257 142.751 40.579C142.956 40.4323 143.059 40.227 143.059 39.963C143.059 39.8017 143.026 39.6623 142.96 39.545C142.894 39.4277 142.802 39.3323 142.685 39.259C142.568 39.1857 142.432 39.1343 142.278 39.105C142.131 39.0683 141.97 39.05 141.794 39.05C141.464 39.05 141.16 39.094 140.881 39.182C140.61 39.27 140.357 39.391 140.122 39.545V38.83C140.305 38.6833 140.544 38.5697 140.837 38.489C141.13 38.401 141.475 38.357 141.871 38.357C142.546 38.357 143.055 38.489 143.4 38.753C143.745 39.017 143.917 39.3837 143.917 39.853C143.917 40.2417 143.807 40.535 143.587 40.733C143.367 40.9237 143.07 41.0557 142.696 41.129C143.173 41.1877 143.532 41.3233 143.774 41.536C144.016 41.7413 144.137 42.042 144.137 42.438ZM147.625 44.11C147.251 44.11 146.899 44.0477 146.569 43.923C146.247 43.791 145.964 43.604 145.722 43.362C145.488 43.1127 145.301 42.812 145.161 42.46C145.029 42.1007 144.963 41.69 144.963 41.228C144.963 40.766 145.029 40.359 145.161 40.007C145.301 39.6477 145.488 39.347 145.722 39.105C145.964 38.863 146.247 38.6797 146.569 38.555C146.899 38.423 147.251 38.357 147.625 38.357C148.007 38.357 148.362 38.423 148.692 38.555C149.022 38.6797 149.308 38.863 149.55 39.105C149.792 39.347 149.979 39.6477 150.111 40.007C150.251 40.359 150.32 40.766 150.32 41.228C150.32 41.69 150.251 42.1007 150.111 42.46C149.979 42.812 149.792 43.1127 149.55 43.362C149.308 43.604 149.022 43.791 148.692 43.923C148.362 44.0477 148.007 44.11 147.625 44.11ZM147.625 43.439C147.875 43.439 148.106 43.3987 148.318 43.318C148.531 43.2373 148.714 43.109 148.868 42.933C149.022 42.757 149.143 42.5297 149.231 42.251C149.319 41.965 149.363 41.624 149.363 41.228C149.363 40.832 149.319 40.4947 149.231 40.216C149.143 39.9373 149.022 39.71 148.868 39.534C148.714 39.358 148.531 39.2297 148.318 39.149C148.106 39.0683 147.875 39.028 147.625 39.028C147.383 39.028 147.156 39.0683 146.943 39.149C146.738 39.2297 146.558 39.358 146.404 39.534C146.25 39.71 146.129 39.9373 146.041 40.216C145.961 40.4947 145.92 40.832 145.92 41.228C145.92 41.624 145.961 41.965 146.041 42.251C146.129 42.5297 146.25 42.757 146.404 42.933C146.558 43.109 146.738 43.2373 146.943 43.318C147.156 43.3987 147.383 43.439 147.625 43.439ZM151.309 38.467H153.377C154.044 38.467 154.547 38.5807 154.884 38.808C155.229 39.0353 155.401 39.3983 155.401 39.897C155.401 40.2197 155.317 40.48 155.148 40.678C154.987 40.8687 154.752 41.008 154.444 41.096C155.236 41.228 155.632 41.6643 155.632 42.405C155.632 42.691 155.573 42.9367 155.456 43.142C155.346 43.34 155.188 43.505 154.983 43.637C154.785 43.7617 154.547 43.8533 154.268 43.912C153.989 43.9707 153.685 44 153.355 44H151.309V38.467ZM152.244 39.127V40.81H153.289C153.641 40.81 153.927 40.7403 154.147 40.601C154.367 40.4543 154.477 40.26 154.477 40.018C154.477 39.6807 154.378 39.4497 154.18 39.325C153.989 39.193 153.718 39.127 153.366 39.127H152.244ZM152.244 41.47V43.34H153.344C153.74 43.34 154.059 43.274 154.301 43.142C154.543 43.0027 154.664 42.7497 154.664 42.383C154.664 42.0603 154.554 41.8293 154.334 41.69C154.114 41.5433 153.784 41.47 153.344 41.47H152.244ZM159.939 44C159.902 43.89 159.873 43.7543 159.851 43.593C159.829 43.4243 159.814 43.252 159.807 43.076C159.748 43.1933 159.671 43.3143 159.576 43.439C159.481 43.5563 159.36 43.6663 159.213 43.769C159.066 43.8643 158.894 43.945 158.696 44.011C158.498 44.077 158.267 44.11 158.003 44.11C157.497 44.11 157.083 43.9817 156.76 43.725C156.445 43.461 156.287 43.065 156.287 42.537C156.287 41.965 156.518 41.5323 156.98 41.239C157.442 40.9383 158.179 40.788 159.191 40.788H159.763V40.26C159.763 39.864 159.664 39.5743 159.466 39.391C159.268 39.2003 158.927 39.105 158.443 39.105C158.098 39.105 157.765 39.1637 157.442 39.281C157.127 39.391 156.863 39.534 156.65 39.71V38.995C156.826 38.8043 157.086 38.6503 157.431 38.533C157.776 38.4157 158.153 38.357 158.564 38.357C159.261 38.357 159.789 38.5037 160.148 38.797C160.515 39.083 160.698 39.5267 160.698 40.128V43.109C160.698 43.2337 160.705 43.3913 160.72 43.582C160.735 43.7653 160.753 43.9047 160.775 44H159.939ZM158.201 43.428C158.45 43.428 158.67 43.3877 158.861 43.307C159.059 43.219 159.224 43.109 159.356 42.977C159.488 42.845 159.587 42.6983 159.653 42.537C159.726 42.3757 159.763 42.218 159.763 42.064V41.371H159.279C158.883 41.371 158.553 41.393 158.289 41.437C158.032 41.4737 157.823 41.5397 157.662 41.635C157.501 41.723 157.387 41.8367 157.321 41.976C157.255 42.1153 157.222 42.284 157.222 42.482C157.222 42.812 157.31 43.054 157.486 43.208C157.662 43.3547 157.9 43.428 158.201 43.428ZM164.037 39.127V44H163.091V39.127H161.353V38.467H165.808V39.127H164.037ZM170.986 43.494C170.92 43.5527 170.828 43.6187 170.711 43.692C170.594 43.7653 170.454 43.835 170.293 43.901C170.132 43.9597 169.945 44.0073 169.732 44.044C169.527 44.088 169.296 44.11 169.039 44.11C168.108 44.11 167.4 43.8607 166.916 43.362C166.432 42.856 166.19 42.1447 166.19 41.228C166.19 40.7807 166.256 40.381 166.388 40.029C166.52 39.6697 166.703 39.3653 166.938 39.116C167.173 38.8667 167.451 38.6797 167.774 38.555C168.097 38.423 168.445 38.357 168.819 38.357C169.215 38.357 169.567 38.4267 169.875 38.566C170.19 38.698 170.447 38.896 170.645 39.16C170.85 39.424 170.99 39.7503 171.063 40.139C171.136 40.5277 171.136 40.975 171.063 41.481H167.158C167.224 42.735 167.88 43.362 169.127 43.362C169.552 43.362 169.919 43.2997 170.227 43.175C170.535 43.0503 170.788 42.9183 170.986 42.779V43.494ZM168.797 39.028C168.357 39.028 167.99 39.1783 167.697 39.479C167.404 39.7723 167.228 40.2197 167.169 40.821H170.172C170.216 40.205 170.106 39.754 169.842 39.468C169.585 39.1747 169.237 39.028 168.797 39.028ZM172.568 42.284C172.656 41.9173 172.714 41.426 172.744 40.81C172.78 40.1867 172.799 39.4057 172.799 38.467H176.484V44H175.538V39.127H173.591C173.583 39.8603 173.565 40.513 173.536 41.085C173.506 41.657 173.44 42.152 173.338 42.57C173.213 43.0687 173.022 43.4427 172.766 43.692C172.516 43.9413 172.146 44.0477 171.655 44.011V43.241C171.889 43.2777 172.08 43.2153 172.227 43.054C172.373 42.8853 172.487 42.6287 172.568 42.284ZM181.946 42.152C181.946 42.4747 181.887 42.7533 181.77 42.988C181.66 43.2227 181.502 43.417 181.297 43.571C181.092 43.7177 180.846 43.8277 180.56 43.901C180.281 43.967 179.973 44 179.636 44H177.799V38.467H178.734V40.392H179.702C180.406 40.392 180.956 40.5313 181.352 40.81C181.748 41.0887 181.946 41.536 181.946 42.152ZM178.734 41.052V43.34H179.636C180.039 43.34 180.366 43.252 180.615 43.076C180.872 42.9 181 42.6103 181 42.207C181 41.8037 180.886 41.5103 180.659 41.327C180.432 41.1437 180.113 41.052 179.702 41.052H178.734Z" fill="black"/>
<rect x="23" y="81" width="90" height="38" rx="8" fill="#D6E1FF"/>
<path d="M52.385 96.355V104H51.373V96.355H52.385ZM53.672 100.106L57.104 104H55.861L52.55 100.249L55.894 96.355H56.884L53.672 100.106ZM58.3315 102.284C58.4195 101.917 58.4781 101.426 58.5075 100.81C58.5441 100.187 58.5625 99.4057 58.5625 98.467H62.2475V104H61.3015V99.127H59.3545C59.3471 99.8603 59.3288 100.513 59.2995 101.085C59.2701 101.657 59.2041 102.152 59.1015 102.57C58.9768 103.069 58.7861 103.443 58.5295 103.692C58.2801 103.941 57.9098 104.048 57.4185 104.011V103.241C57.6531 103.278 57.8438 103.215 57.9905 103.054C58.1371 102.885 58.2508 102.629 58.3315 102.284ZM64.4978 102.746L67.5448 98.467H68.4028V104H67.4678V99.71L64.4318 104H63.5628V98.467H64.4978V102.746ZM74.1841 103.494C74.1181 103.553 74.0264 103.619 73.9091 103.692C73.7918 103.765 73.6524 103.835 73.4911 103.901C73.3298 103.96 73.1428 104.007 72.9301 104.044C72.7248 104.088 72.4938 104.11 72.2371 104.11C71.3058 104.11 70.5981 103.861 70.1141 103.362C69.6301 102.856 69.3881 102.145 69.3881 101.228C69.3881 100.781 69.4541 100.381 69.5861 100.029C69.7181 99.6697 69.9014 99.3653 70.1361 99.116C70.3708 98.8667 70.6494 98.6797 70.9721 98.555C71.2948 98.423 71.6431 98.357 72.0171 98.357C72.4131 98.357 72.7651 98.4267 73.0731 98.566C73.3884 98.698 73.6451 98.896 73.8431 99.16C74.0484 99.424 74.1878 99.7503 74.2611 100.139C74.3344 100.528 74.3344 100.975 74.2611 101.481H70.3561C70.4221 102.735 71.0784 103.362 72.3251 103.362C72.7504 103.362 73.1171 103.3 73.4251 103.175C73.7331 103.05 73.9861 102.918 74.1841 102.779V103.494ZM71.9951 99.028C71.5551 99.028 71.1884 99.1783 70.8951 99.479C70.6018 99.7723 70.4258 100.22 70.3671 100.821H73.3701C73.4141 100.205 73.3041 99.754 73.0401 99.468C72.7834 99.1747 72.4351 99.028 71.9951 99.028ZM78.923 101.47H76.239V104H75.304V98.467H76.239V100.81H78.923V98.467H79.858V104H78.923V101.47ZM83.413 99.127V104H82.467V99.127H80.729V98.467H85.184V99.127H83.413Z" fill="black"/>
<rect x="185" y="81" width="90" height="38" rx="8" fill="#D6E1FF"/>
<path d="M206.945 101.844L209.497 96.355H210.707V104H209.695V97.851L207.352 102.823L206.846 102.834H206.406L204.096 97.796V104H203.227V96.355H204.426L206.945 101.844ZM214.472 104.11C214.098 104.11 213.746 104.048 213.416 103.923C213.094 103.791 212.811 103.604 212.569 103.362C212.335 103.113 212.148 102.812 212.008 102.46C211.876 102.101 211.81 101.69 211.81 101.228C211.81 100.766 211.876 100.359 212.008 100.007C212.148 99.6477 212.335 99.347 212.569 99.105C212.811 98.863 213.094 98.6797 213.416 98.555C213.746 98.423 214.098 98.357 214.472 98.357C214.854 98.357 215.209 98.423 215.539 98.555C215.869 98.6797 216.155 98.863 216.397 99.105C216.639 99.347 216.826 99.6477 216.958 100.007C217.098 100.359 217.167 100.766 217.167 101.228C217.167 101.69 217.098 102.101 216.958 102.46C216.826 102.812 216.639 103.113 216.397 103.362C216.155 103.604 215.869 103.791 215.539 103.923C215.209 104.048 214.854 104.11 214.472 104.11ZM214.472 103.439C214.722 103.439 214.953 103.399 215.165 103.318C215.378 103.237 215.561 103.109 215.715 102.933C215.869 102.757 215.99 102.53 216.078 102.251C216.166 101.965 216.21 101.624 216.21 101.228C216.21 100.832 216.166 100.495 216.078 100.216C215.99 99.9373 215.869 99.71 215.715 99.534C215.561 99.358 215.378 99.2297 215.165 99.149C214.953 99.0683 214.722 99.028 214.472 99.028C214.23 99.028 214.003 99.0683 213.79 99.149C213.585 99.2297 213.405 99.358 213.251 99.534C213.097 99.71 212.976 99.9373 212.888 100.216C212.808 100.495 212.767 100.832 212.767 101.228C212.767 101.624 212.808 101.965 212.888 102.251C212.976 102.53 213.097 102.757 213.251 102.933C213.405 103.109 213.585 103.237 213.79 103.318C214.003 103.399 214.23 103.439 214.472 103.439ZM218.291 102.669C218.437 102.266 218.533 101.716 218.577 101.019C218.628 100.315 218.665 99.4643 218.687 98.467H222.493V103.34H223.329V105.749H222.614L222.416 104H218.247L218.049 105.749H217.334V103.34H217.818C218.008 103.215 218.166 102.992 218.291 102.669ZM219.072 102.867C218.998 103.043 218.91 103.201 218.808 103.34H221.558V99.127H219.501C219.471 100.044 219.427 100.806 219.369 101.415C219.317 102.016 219.218 102.5 219.072 102.867ZM228.444 103.494C228.378 103.553 228.287 103.619 228.169 103.692C228.052 103.765 227.913 103.835 227.751 103.901C227.59 103.96 227.403 104.007 227.19 104.044C226.985 104.088 226.754 104.11 226.497 104.11C225.566 104.11 224.858 103.861 224.374 103.362C223.89 102.856 223.648 102.145 223.648 101.228C223.648 100.781 223.714 100.381 223.846 100.029C223.978 99.6697 224.162 99.3653 224.396 99.116C224.631 98.8667 224.91 98.6797 225.232 98.555C225.555 98.423 225.903 98.357 226.277 98.357C226.673 98.357 227.025 98.4267 227.333 98.566C227.649 98.698 227.905 98.896 228.103 99.16C228.309 99.424 228.448 99.7503 228.521 100.139C228.595 100.528 228.595 100.975 228.521 101.481H224.616C224.682 102.735 225.339 103.362 226.585 103.362C227.011 103.362 227.377 103.3 227.685 103.175C227.993 103.05 228.246 102.918 228.444 102.779V103.494ZM226.255 99.028C225.815 99.028 225.449 99.1783 225.155 99.479C224.862 99.7723 224.686 100.22 224.627 100.821H227.63C227.674 100.205 227.564 99.754 227.3 99.468C227.044 99.1747 226.695 99.028 226.255 99.028ZM230.026 102.284C230.114 101.917 230.173 101.426 230.202 100.81C230.239 100.187 230.257 99.4057 230.257 98.467H233.942V104H232.996V99.127H231.049C231.042 99.8603 231.024 100.513 230.994 101.085C230.965 101.657 230.899 102.152 230.796 102.57C230.672 103.069 230.481 103.443 230.224 103.692C229.975 103.941 229.605 104.048 229.113 104.011V103.241C229.348 103.278 229.539 103.215 229.685 103.054C229.832 102.885 229.946 102.629 230.026 102.284ZM239.405 102.152C239.405 102.475 239.346 102.753 239.229 102.988C239.119 103.223 238.961 103.417 238.756 103.571C238.55 103.718 238.305 103.828 238.019 103.901C237.74 103.967 237.432 104 237.095 104H235.258V98.467H236.193V100.392H237.161C237.865 100.392 238.415 100.531 238.811 100.81C239.207 101.089 239.405 101.536 239.405 102.152ZM236.193 101.052V103.34H237.095C237.498 103.34 237.824 103.252 238.074 103.076C238.33 102.9 238.459 102.61 238.459 102.207C238.459 101.804 238.345 101.51 238.118 101.327C237.89 101.144 237.571 101.052 237.161 101.052H236.193ZM243.641 102.669L247.953 96.355H248.932V104H247.909V97.697L243.608 104H242.629V96.355H243.641V102.669ZM251.483 102.669L255.795 96.355H256.774V104H255.751V97.697L251.45 104H250.471V96.355H251.483V102.669Z" fill="black"/>
<rect x="23" y="189" width="90" height="38" rx="8" fill="#D6E1FF"/>
<path d="M42.6945 209.844L45.2465 204.355H46.4565V212H45.4445V205.851L43.1015 210.823L42.5955 210.834H42.1555L39.8455 205.796V212H38.9765V204.355H40.1755L42.6945 209.844ZM51.377 212.11C50.8123 212.11 50.299 212.022 49.837 211.846C49.375 211.663 48.979 211.402 48.649 211.065C48.319 210.728 48.0623 210.317 47.879 209.833C47.703 209.349 47.615 208.799 47.615 208.183C47.615 207.567 47.6956 207.017 47.857 206.533C48.0256 206.042 48.2676 205.631 48.583 205.301C48.9056 204.964 49.298 204.707 49.76 204.531C50.222 204.348 50.7536 204.256 51.355 204.256C51.8756 204.256 52.3376 204.311 52.741 204.421C53.1516 204.524 53.467 204.663 53.687 204.839V205.664C53.0343 205.253 52.2826 205.048 51.432 205.048C50.486 205.048 49.793 205.319 49.353 205.862C48.9203 206.397 48.704 207.171 48.704 208.183C48.704 209.195 48.9166 209.972 49.342 210.515C49.7746 211.05 50.4713 211.318 51.432 211.318C51.85 211.318 52.2423 211.267 52.609 211.164C52.983 211.054 53.3423 210.871 53.687 210.614V211.439C53.4743 211.615 53.17 211.773 52.774 211.912C52.3853 212.044 51.9196 212.11 51.377 212.11ZM55.0039 204.355H57.4569C58.3222 204.355 58.9932 204.535 59.4699 204.894C59.9539 205.253 60.1959 205.811 60.1959 206.566C60.1959 206.999 60.1262 207.373 59.9869 207.688C59.8476 207.996 59.6532 208.249 59.4039 208.447C59.1619 208.645 58.8649 208.792 58.5129 208.887C58.1682 208.975 57.7869 209.019 57.3689 209.019H56.0159V212H55.0039V204.355ZM56.0159 205.103V208.271H57.3689C57.6402 208.271 57.8859 208.242 58.1059 208.183C58.3259 208.117 58.5166 208.018 58.6779 207.886C58.8392 207.747 58.9639 207.571 59.0519 207.358C59.1399 207.145 59.1839 206.885 59.1839 206.577C59.1839 206.064 59.0336 205.69 58.7329 205.455C58.4322 205.22 58.0069 205.103 57.4569 205.103H56.0159ZM60.8627 208.359H63.4257V209.129H60.8627V208.359ZM67.0363 212.11C66.6037 212.11 66.215 212.048 65.8703 211.923C65.533 211.791 65.2433 211.6 65.0013 211.351C64.7593 211.102 64.5723 210.801 64.4403 210.449C64.3157 210.09 64.2533 209.683 64.2533 209.228C64.2533 208.319 64.5027 207.615 65.0013 207.116C65.5073 206.61 66.2003 206.357 67.0803 206.357C67.4177 206.357 67.7293 206.397 68.0153 206.478C68.3013 206.559 68.536 206.676 68.7193 206.83V207.545C68.492 207.398 68.239 207.288 67.9603 207.215C67.6817 207.142 67.392 207.105 67.0913 207.105C66.446 207.105 65.9693 207.281 65.6613 207.633C65.3607 207.985 65.2103 208.517 65.2103 209.228C65.2103 209.947 65.357 210.482 65.6503 210.834C65.9437 211.186 66.4057 211.362 67.0363 211.362C67.3663 211.362 67.6707 211.322 67.9493 211.241C68.2353 211.16 68.492 211.05 68.7193 210.911V211.626C68.5213 211.78 68.283 211.901 68.0043 211.989C67.7257 212.07 67.403 212.11 67.0363 212.11ZM74.0445 211.494C73.9785 211.553 73.8868 211.619 73.7695 211.692C73.6521 211.765 73.5128 211.835 73.3515 211.901C73.1901 211.96 73.0031 212.007 72.7905 212.044C72.5851 212.088 72.3541 212.11 72.0975 212.11C71.1661 212.11 70.4585 211.861 69.9745 211.362C69.4905 210.856 69.2485 210.145 69.2485 209.228C69.2485 208.781 69.3145 208.381 69.4465 208.029C69.5785 207.67 69.7618 207.365 69.9965 207.116C70.2311 206.867 70.5098 206.68 70.8325 206.555C71.1551 206.423 71.5035 206.357 71.8775 206.357C72.2735 206.357 72.6255 206.427 72.9335 206.566C73.2488 206.698 73.5055 206.896 73.7035 207.16C73.9088 207.424 74.0481 207.75 74.1215 208.139C74.1948 208.528 74.1948 208.975 74.1215 209.481H70.2165C70.2825 210.735 70.9388 211.362 72.1855 211.362C72.6108 211.362 72.9775 211.3 73.2855 211.175C73.5935 211.05 73.8465 210.918 74.0445 210.779V211.494ZM71.8555 207.028C71.4155 207.028 71.0488 207.178 70.7555 207.479C70.4621 207.772 70.2861 208.22 70.2275 208.821H73.2305C73.2745 208.205 73.1645 207.754 72.9005 207.468C72.6438 207.175 72.2955 207.028 71.8555 207.028ZM77.9474 212.11C77.5294 212.11 77.1627 212.011 76.8474 211.813C76.5394 211.615 76.2901 211.34 76.0994 210.988V214.057H75.1644V206.467H75.9894L76.0774 207.556C76.2607 207.189 76.5101 206.9 76.8254 206.687C77.1407 206.467 77.5294 206.357 77.9914 206.357C78.3141 206.357 78.6221 206.416 78.9154 206.533C79.2087 206.65 79.4654 206.826 79.6854 207.061C79.9127 207.296 80.0924 207.596 80.2244 207.963C80.3564 208.322 80.4224 208.744 80.4224 209.228C80.4224 209.712 80.3527 210.137 80.2134 210.504C80.0814 210.863 79.9017 211.164 79.6744 211.406C79.4471 211.641 79.1831 211.817 78.8824 211.934C78.5891 212.051 78.2774 212.11 77.9474 212.11ZM77.8044 211.439C78.2957 211.439 78.6917 211.267 78.9924 210.922C79.3004 210.57 79.4544 210.005 79.4544 209.228C79.4544 208.473 79.3004 207.919 78.9924 207.567C78.6917 207.208 78.2957 207.028 77.8044 207.028C77.5624 207.028 77.3351 207.072 77.1224 207.16C76.9171 207.241 76.7374 207.373 76.5834 207.556C76.4294 207.732 76.3084 207.959 76.2204 208.238C76.1324 208.517 76.0884 208.847 76.0884 209.228C76.0884 209.624 76.1324 209.961 76.2204 210.24C76.3084 210.519 76.4294 210.746 76.5834 210.922C76.7374 211.098 76.9171 211.23 77.1224 211.318C77.3351 211.399 77.5624 211.439 77.8044 211.439ZM81.4163 206.467H83.4843C84.1517 206.467 84.654 206.581 84.9913 206.808C85.336 207.035 85.5083 207.398 85.5083 207.897C85.5083 208.22 85.424 208.48 85.2553 208.678C85.094 208.869 84.8593 209.008 84.5513 209.096C85.3433 209.228 85.7393 209.664 85.7393 210.405C85.7393 210.691 85.6807 210.937 85.5633 211.142C85.4533 211.34 85.2957 211.505 85.0903 211.637C84.8923 211.762 84.654 211.853 84.3753 211.912C84.0967 211.971 83.7923 212 83.4623 212H81.4163V206.467ZM82.3513 207.127V208.81H83.3963C83.7483 208.81 84.0343 208.74 84.2543 208.601C84.4743 208.454 84.5843 208.26 84.5843 208.018C84.5843 207.681 84.4853 207.45 84.2873 207.325C84.0967 207.193 83.8253 207.127 83.4733 207.127H82.3513ZM82.3513 209.47V211.34H83.4513C83.8473 211.34 84.1663 211.274 84.4083 211.142C84.6503 211.003 84.7713 210.75 84.7713 210.383C84.7713 210.06 84.6613 209.829 84.4413 209.69C84.2213 209.543 83.8913 209.47 83.4513 209.47H82.3513ZM91.0816 211.494C91.0156 211.553 90.9239 211.619 90.8066 211.692C90.6892 211.765 90.5499 211.835 90.3886 211.901C90.2272 211.96 90.0402 212.007 89.8276 212.044C89.6222 212.088 89.3912 212.11 89.1346 212.11C88.2032 212.11 87.4956 211.861 87.0116 211.362C86.5276 210.856 86.2856 210.145 86.2856 209.228C86.2856 208.781 86.3516 208.381 86.4836 208.029C86.6156 207.67 86.7989 207.365 87.0336 207.116C87.2682 206.867 87.5469 206.68 87.8696 206.555C88.1922 206.423 88.5406 206.357 88.9146 206.357C89.3106 206.357 89.6626 206.427 89.9706 206.566C90.2859 206.698 90.5426 206.896 90.7406 207.16C90.9459 207.424 91.0852 207.75 91.1586 208.139C91.2319 208.528 91.2319 208.975 91.1586 209.481H87.2536C87.3196 210.735 87.9759 211.362 89.2226 211.362C89.6479 211.362 90.0146 211.3 90.3226 211.175C90.6306 211.05 90.8836 210.918 91.0816 210.779V211.494ZM88.8926 207.028C88.4526 207.028 88.0859 207.178 87.7926 207.479C87.4992 207.772 87.3232 208.22 87.2646 208.821H90.2676C90.3116 208.205 90.2016 207.754 89.9376 207.468C89.6809 207.175 89.3326 207.028 88.8926 207.028ZM94.9845 212.11C94.5665 212.11 94.1998 212.011 93.8845 211.813C93.5765 211.615 93.3272 211.34 93.1365 210.988V214.057H92.2015V206.467H93.0265L93.1145 207.556C93.2978 207.189 93.5472 206.9 93.8625 206.687C94.1778 206.467 94.5665 206.357 95.0285 206.357C95.3512 206.357 95.6592 206.416 95.9525 206.533C96.2458 206.65 96.5025 206.826 96.7225 207.061C96.9498 207.296 97.1295 207.596 97.2615 207.963C97.3935 208.322 97.4595 208.744 97.4595 209.228C97.4595 209.712 97.3898 210.137 97.2505 210.504C97.1185 210.863 96.9388 211.164 96.7115 211.406C96.4842 211.641 96.2202 211.817 95.9195 211.934C95.6262 212.051 95.3145 212.11 94.9845 212.11ZM94.8415 211.439C95.3328 211.439 95.7288 211.267 96.0295 210.922C96.3375 210.57 96.4915 210.005 96.4915 209.228C96.4915 208.473 96.3375 207.919 96.0295 207.567C95.7288 207.208 95.3328 207.028 94.8415 207.028C94.5995 207.028 94.3722 207.072 94.1595 207.16C93.9542 207.241 93.7745 207.373 93.6205 207.556C93.4665 207.732 93.3455 207.959 93.2575 208.238C93.1695 208.517 93.1255 208.847 93.1255 209.228C93.1255 209.624 93.1695 209.961 93.2575 210.24C93.3455 210.519 93.4665 210.746 93.6205 210.922C93.7745 211.098 93.9542 211.23 94.1595 211.318C94.3722 211.399 94.5995 211.439 94.8415 211.439Z" fill="black"/>
<rect x="23" y="297" width="90" height="38" rx="8" fill="#D6E1FF"/>
<path d="M46.7861 305.355H49.3821C50.2181 305.355 50.8561 305.498 51.2961 305.784C51.7361 306.063 51.9561 306.539 51.9561 307.214C51.9561 307.757 51.8168 308.171 51.5381 308.457C51.2668 308.736 50.9001 308.926 50.4381 309.029C51.0321 309.102 51.4794 309.278 51.7801 309.557C52.0808 309.828 52.2311 310.239 52.2311 310.789C52.2311 311.185 52.1578 311.526 52.0111 311.812C51.8718 312.091 51.6738 312.318 51.4171 312.494C51.1604 312.67 50.8561 312.798 50.5041 312.879C50.1521 312.96 49.7708 313 49.3601 313H46.7861V305.355ZM47.7981 306.103V308.699H49.3051C49.7891 308.699 50.1814 308.585 50.4821 308.358C50.7901 308.131 50.9441 307.768 50.9441 307.269C50.9441 307.042 50.9074 306.855 50.8341 306.708C50.7681 306.554 50.6691 306.433 50.5371 306.345C50.4051 306.257 50.2401 306.195 50.0421 306.158C49.8514 306.121 49.6314 306.103 49.3821 306.103H47.7981ZM47.7981 309.447V312.252H49.3601C49.6314 312.252 49.8771 312.23 50.0971 312.186C50.3171 312.135 50.5078 312.054 50.6691 311.944C50.8304 311.827 50.9551 311.676 51.0431 311.493C51.1311 311.31 51.1751 311.082 51.1751 310.811C51.1751 310.305 51.0211 309.953 50.7131 309.755C50.4051 309.55 49.9174 309.447 49.2501 309.447H47.7981ZM56.9553 310.47H54.2713V313H53.3363V307.467H54.2713V309.81H56.9553V307.467H57.8903V313H56.9553V310.47ZM63.6782 312.494C63.6122 312.553 63.5206 312.619 63.4032 312.692C63.2859 312.765 63.1466 312.835 62.9852 312.901C62.8239 312.96 62.6369 313.007 62.4242 313.044C62.2189 313.088 61.9879 313.11 61.7312 313.11C60.7999 313.11 60.0922 312.861 59.6082 312.362C59.1242 311.856 58.8822 311.145 58.8822 310.228C58.8822 309.781 58.9482 309.381 59.0802 309.029C59.2122 308.67 59.3956 308.365 59.6302 308.116C59.8649 307.867 60.1436 307.68 60.4662 307.555C60.7889 307.423 61.1372 307.357 61.5112 307.357C61.9072 307.357 62.2592 307.427 62.5672 307.566C62.8826 307.698 63.1392 307.896 63.3372 308.16C63.5426 308.424 63.6819 308.75 63.7552 309.139C63.8286 309.528 63.8286 309.975 63.7552 310.481H59.8502C59.9162 311.735 60.5726 312.362 61.8192 312.362C62.2446 312.362 62.6112 312.3 62.9192 312.175C63.2272 312.05 63.4802 311.918 63.6782 311.779V312.494ZM61.4892 308.028C61.0492 308.028 60.6826 308.178 60.3892 308.479C60.0959 308.772 59.9199 309.22 59.8612 309.821H62.8642C62.9082 309.205 62.7982 308.754 62.5342 308.468C62.2776 308.175 61.9292 308.028 61.4892 308.028ZM71.7062 313H64.7982V307.467H65.7332V312.34H67.7792V307.467H68.7252V312.34H70.7712V307.467H71.7062V313ZM76.6457 310.47H73.9617V313H73.0267V307.467H73.9617V309.81H76.6457V307.467H77.5807V313H76.6457V310.47ZM79.8377 311.746L82.8847 307.467H83.7427V313H82.8077V308.71L79.7717 313H78.9027V307.467H79.8377V311.746ZM89.5239 312.494C89.4579 312.553 89.3663 312.619 89.2489 312.692C89.1316 312.765 88.9923 312.835 88.8309 312.901C88.6696 312.96 88.4826 313.007 88.2699 313.044C88.0646 313.088 87.8336 313.11 87.5769 313.11C86.6456 313.11 85.9379 312.861 85.4539 312.362C84.9699 311.856 84.7279 311.145 84.7279 310.228C84.7279 309.781 84.7939 309.381 84.9259 309.029C85.0579 308.67 85.2413 308.365 85.4759 308.116C85.7106 307.867 85.9893 307.68 86.3119 307.555C86.6346 307.423 86.9829 307.357 87.3569 307.357C87.7529 307.357 88.1049 307.427 88.4129 307.566C88.7283 307.698 88.9849 307.896 89.1829 308.16C89.3883 308.424 89.5276 308.75 89.6009 309.139C89.6743 309.528 89.6743 309.975 89.6009 310.481H85.6959C85.7619 311.735 86.4183 312.362 87.6649 312.362C88.0903 312.362 88.4569 312.3 88.7649 312.175C89.0729 312.05 89.3259 311.918 89.5239 311.779V312.494ZM87.3349 308.028C86.8949 308.028 86.5283 308.178 86.2349 308.479C85.9416 308.772 85.7656 309.22 85.7069 309.821H88.7099C88.7539 309.205 88.6439 308.754 88.3799 308.468C88.1233 308.175 87.7749 308.028 87.3349 308.028ZM44.1629 324.746L47.2099 320.467H48.0679V326H47.1329V321.71L44.0969 326H43.2279V320.467H44.1629V324.746ZM51.8361 326.11C51.4035 326.11 51.0148 326.048 50.6701 325.923C50.3328 325.791 50.0431 325.6 49.8011 325.351C49.5591 325.102 49.3721 324.801 49.2401 324.449C49.1155 324.09 49.0531 323.683 49.0531 323.228C49.0531 322.319 49.3025 321.615 49.8011 321.116C50.3071 320.61 51.0001 320.357 51.8801 320.357C52.2175 320.357 52.5291 320.397 52.8151 320.478C53.1011 320.559 53.3358 320.676 53.5191 320.83V321.545C53.2918 321.398 53.0388 321.288 52.7601 321.215C52.4815 321.142 52.1918 321.105 51.8911 321.105C51.2458 321.105 50.7691 321.281 50.4611 321.633C50.1605 321.985 50.0101 322.517 50.0101 323.228C50.0101 323.947 50.1568 324.482 50.4501 324.834C50.7435 325.186 51.2055 325.362 51.8361 325.362C52.1661 325.362 52.4705 325.322 52.7491 325.241C53.0351 325.16 53.2918 325.05 53.5191 324.911V325.626C53.3211 325.78 53.0828 325.901 52.8041 325.989C52.5255 326.07 52.2028 326.11 51.8361 326.11ZM56.6113 321.127V326H55.6653V321.127H53.9273V320.467H58.3823V321.127H56.6113ZM61.4261 326.11C61.0521 326.11 60.7001 326.048 60.3701 325.923C60.0474 325.791 59.7651 325.604 59.5231 325.362C59.2884 325.113 59.1014 324.812 58.9621 324.46C58.8301 324.101 58.7641 323.69 58.7641 323.228C58.7641 322.766 58.8301 322.359 58.9621 322.007C59.1014 321.648 59.2884 321.347 59.5231 321.105C59.7651 320.863 60.0474 320.68 60.3701 320.555C60.7001 320.423 61.0521 320.357 61.4261 320.357C61.8074 320.357 62.1631 320.423 62.4931 320.555C62.8231 320.68 63.1091 320.863 63.3511 321.105C63.5931 321.347 63.7801 321.648 63.9121 322.007C64.0514 322.359 64.1211 322.766 64.1211 323.228C64.1211 323.69 64.0514 324.101 63.9121 324.46C63.7801 324.812 63.5931 325.113 63.3511 325.362C63.1091 325.604 62.8231 325.791 62.4931 325.923C62.1631 326.048 61.8074 326.11 61.4261 326.11ZM61.4261 325.439C61.6754 325.439 61.9064 325.399 62.1191 325.318C62.3317 325.237 62.5151 325.109 62.6691 324.933C62.8231 324.757 62.9441 324.53 63.0321 324.251C63.1201 323.965 63.1641 323.624 63.1641 323.228C63.1641 322.832 63.1201 322.495 63.0321 322.216C62.9441 321.937 62.8231 321.71 62.6691 321.534C62.5151 321.358 62.3317 321.23 62.1191 321.149C61.9064 321.068 61.6754 321.028 61.4261 321.028C61.1841 321.028 60.9567 321.068 60.7441 321.149C60.5387 321.23 60.3591 321.358 60.2051 321.534C60.0511 321.71 59.9301 321.937 59.8421 322.216C59.7614 322.495 59.7211 322.832 59.7211 323.228C59.7211 323.624 59.7614 323.965 59.8421 324.251C59.9301 324.53 60.0511 324.757 60.2051 324.933C60.3591 325.109 60.5387 325.237 60.7441 325.318C60.9567 325.399 61.1841 325.439 61.4261 325.439ZM69.2923 326H68.3463V323.547C68.1556 323.701 67.932 323.822 67.6753 323.91C67.426 323.998 67.129 324.042 66.7843 324.042C66.205 324.042 65.743 323.881 65.3983 323.558C65.061 323.235 64.8923 322.726 64.8923 322.029V320.467H65.8383V322.029C65.8383 322.484 65.941 322.803 66.1463 322.986C66.3516 323.169 66.6633 323.261 67.0813 323.261C67.316 323.261 67.5396 323.235 67.7523 323.184C67.965 323.133 68.163 323.041 68.3463 322.909V320.467H69.2923V326ZM74.2287 323.47H71.5447V326H70.6097V320.467H71.5447V322.81H74.2287V320.467H75.1637V326H74.2287V323.47ZM77.4207 324.746L80.4677 320.467H81.3257V326H80.3907V321.71L77.3547 326H76.4857V320.467H77.4207V324.746ZM83.576 320.467V326H82.641V320.467H83.576ZM84.775 323.14L87.162 326H86.018L83.73 323.272L86.139 320.467H87.118L84.775 323.14ZM88.8719 324.746L91.9189 320.467H92.7769V326H91.8419V321.71L88.8059 326H87.9369V320.467H88.8719V324.746Z" fill="black"/>
<path d="M149 17C153.037 17 156.74 18.0978 159.462 19.9482C162.182 21.7972 164 24.4653 164 27.5664C164 30.0149 162.015 31.9998 159.566 32H138.434C135.985 31.9998 134 30.0149 134 27.5664C134 24.4653 135.818 21.7972 138.538 19.9482C141.26 18.0978 144.963 17 149 17ZM149 19C145.306 19 142.008 20.0083 139.663 21.6025C137.316 23.1983 136 25.3146 136 27.5664C136 28.9104 137.09 29.9998 138.434 30H159.566C160.91 29.9998 162 28.9104 162 27.5664C162 25.3146 160.684 23.1983 158.337 21.6025C155.992 20.0083 152.694 19 149 19ZM149 0C152.917 0 156 3.33887 156 7.33984C156 9.2774 155.4 11.3941 154.252 13.0518C153.094 14.7235 151.317 16 149 16C146.683 16 144.906 14.7235 143.748 13.0518C142.6 11.3941 142 9.2774 142 7.33984C142 3.33887 145.083 0 149 0ZM149 2C146.29 2 144 4.33826 144 7.33984C144 8.90323 144.493 10.6161 145.392 11.9131C146.28 13.1962 147.503 14 149 14C150.497 14 151.72 13.1962 152.608 11.9131C153.507 10.6161 154 8.90323 154 7.33984C154 4.33826 151.71 2 149 2Z" fill="#5282FF"/>
<path d="M15.1491 71.898L13.1471 75H11.8821L14.5111 71.018L12.1461 67.355H13.6861L15.5011 70.149L17.2941 67.355H18.5481L16.1391 71.029L18.7351 75H17.1621L15.1491 71.898ZM21.6662 75.11C21.2702 75.11 20.8999 75.0477 20.5552 74.923C20.2179 74.791 19.9209 74.604 19.6642 74.362C19.4149 74.1127 19.2169 73.8083 19.0702 73.449C18.9309 73.0897 18.8612 72.679 18.8612 72.217C18.8612 71.755 18.9309 71.3443 19.0702 70.985C19.2169 70.6257 19.4149 70.325 19.6642 70.083C19.9209 69.8337 20.2179 69.6467 20.5552 69.522C20.8999 69.3973 21.2702 69.335 21.6662 69.335C22.0622 69.335 22.4326 69.3973 22.7772 69.522C23.1292 69.6467 23.4299 69.8337 23.6792 70.083C23.9359 70.325 24.1376 70.6257 24.2842 70.985C24.4309 71.3443 24.5042 71.755 24.5042 72.217C24.5042 72.679 24.4309 73.0897 24.2842 73.449C24.1376 73.8083 23.9359 74.1127 23.6792 74.362C23.4299 74.604 23.1329 74.791 22.7882 74.923C22.4436 75.0477 22.0696 75.11 21.6662 75.11ZM21.6662 74.241C21.8862 74.241 22.0879 74.2043 22.2712 74.131C22.4619 74.0577 22.6232 73.9403 22.7552 73.779C22.8946 73.6177 23.0009 73.4087 23.0742 73.152C23.1549 72.8953 23.1952 72.5837 23.1952 72.217C23.1952 71.8503 23.1549 71.5387 23.0742 71.282C23.0009 71.0253 22.8946 70.82 22.7552 70.666C22.6232 70.5047 22.4619 70.3873 22.2712 70.314C22.0879 70.2407 21.8862 70.204 21.6662 70.204C21.4536 70.204 21.2556 70.2407 21.0722 70.314C20.8889 70.3873 20.7312 70.5047 20.5992 70.666C20.4672 70.82 20.3609 71.0253 20.2802 71.282C20.2069 71.5387 20.1702 71.8503 20.1702 72.217C20.1702 72.5837 20.2069 72.8953 20.2802 73.152C20.3609 73.4087 20.4672 73.6177 20.5992 73.779C20.7312 73.9403 20.8889 74.0577 21.0722 74.131C21.2556 74.2043 21.4536 74.241 21.6662 74.241ZM28.0279 75.11C27.5806 75.11 27.1773 75.0477 26.8179 74.923C26.4659 74.791 26.1616 74.6003 25.9049 74.351C25.6556 74.1017 25.4613 73.7973 25.3219 73.438C25.1899 73.0787 25.1239 72.6717 25.1239 72.217C25.1239 71.7623 25.1899 71.359 25.3219 71.007C25.4613 70.6477 25.6593 70.3433 25.9159 70.094C26.1726 69.8447 26.4806 69.6577 26.8399 69.533C27.1993 69.401 27.6063 69.335 28.0609 69.335C28.4423 69.335 28.7759 69.379 29.0619 69.467C29.3553 69.555 29.5899 69.6687 29.7659 69.808V70.699C29.3113 70.4057 28.7796 70.259 28.1709 70.259C27.0196 70.259 26.4439 70.9117 26.4439 72.217C26.4439 73.5297 27.0086 74.186 28.1379 74.186C28.4679 74.186 28.7649 74.1457 29.0289 74.065C29.3003 73.9843 29.5459 73.8743 29.7659 73.735V74.626C29.5826 74.7727 29.3479 74.89 29.0619 74.978C28.7759 75.066 28.4313 75.11 28.0279 75.11ZM33.1837 70.336V75H31.8857V70.336H30.1917V69.445H34.8997V70.336H33.1837Z" fill="black"/>
<path d="M68 119L62.2265 129H73.7735L68 119ZM68 189L73.7735 179H62.2265L68 189ZM68 128H67V180H68H69V128H68Z" fill="#4E496B"/>
<path d="M68 227L62.2265 237H73.7735L68 227ZM68 297L73.7735 287H62.2265L68 297ZM68 236H67V288H68H69V236H68Z" fill="#4E496B"/>
<path d="M185 16L195 10.2265L195 21.7735L185 16ZM222 16L222 17L194 17L194 16L194 15L222 15L222 16ZM230 24H231L231 81H230H229L229 24H230ZM222 16L222 15C226.971 15 231 19.0294 231 24H230H229C229 20.134 225.866 17 222 17L222 16Z" fill="#4E496B"/>
<path d="M68 81L73.7735 71H62.2265L68 81ZM76 16L76 17L113 17L113 16L113 15L76 15L76 16ZM68 24H67L67 72H68H69L69 24H68ZM76 16L76 15C71.0294 15 67 19.0294 67 24H68H69C69 20.134 72.134 17 76 17L76 16Z" fill="#4E496B"/>
<path d="M114 100L124 105.774V94.2265L114 100ZM184 100L174 94.2265V105.774L184 100ZM123 100V101H175V100V99H123V100Z" fill="#4E496B"/>
</svg>
