<svg width="905" height="632" viewBox="0 0 905 632" fill="none" xmlns="http://www.w3.org/2000/svg">
<rect width="905" height="632" fill="#CCDAFF"/>
<g filter="url(#filter0_i_47_1095)">
<rect x="82.1608" y="246.27" width="133.543" height="76.3102" rx="15.262" fill="#DEE7FF" fill-opacity="0.9"/>
<rect x="223.335" y="246.27" width="133.543" height="76.3102" rx="15.262" fill="#DEE7FF" fill-opacity="0.9"/>
<rect x="364.508" y="246.27" width="133.543" height="76.3102" rx="15.262" fill="#DEE7FF" fill-opacity="0.9"/>
<rect x="505.682" y="246.27" width="133.543" height="76.3102" rx="15.262" fill="#DEE7FF" fill-opacity="0.9"/>
<rect x="82.1609" y="330.211" width="133.543" height="76.3102" rx="15.262" fill="#DEE7FF" fill-opacity="0.9"/>
<rect x="223.335" y="330.211" width="133.543" height="76.3102" rx="15.262" fill="#DEE7FF" fill-opacity="0.9"/>
<rect x="364.508" y="330.211" width="133.543" height="76.3102" rx="15.262" fill="#DEE7FF" fill-opacity="0.9"/>
<rect x="505.682" y="330.211" width="133.543" height="76.3102" rx="15.262" fill="#DEE7FF" fill-opacity="0.9"/>
<rect x="82.1609" y="414.152" width="133.543" height="76.3102" rx="15.262" fill="#DEE7FF" fill-opacity="0.9"/>
<rect x="223.335" y="414.152" width="133.543" height="76.3102" rx="15.262" fill="#DEE7FF" fill-opacity="0.9"/>
<rect x="364.508" y="414.152" width="133.543" height="76.3102" rx="15.262" fill="#DEE7FF" fill-opacity="0.9"/>
<rect x="505.682" y="414.152" width="133.543" height="76.3102" rx="15.262" fill="#DEE7FF" fill-opacity="0.9"/>
<rect x="82.1609" y="498.094" width="133.543" height="76.3102" rx="15.262" fill="#DEE7FF" fill-opacity="0.9"/>
<rect x="223.335" y="498.094" width="133.543" height="76.3102" rx="15.262" fill="#DEE7FF" fill-opacity="0.9"/>
<rect x="364.508" y="498.094" width="133.543" height="76.3102" rx="15.262" fill="#DEE7FF" fill-opacity="0.9"/>
<rect x="505.682" y="498.094" width="133.543" height="76.3102" rx="15.262" fill="#DEE7FF" fill-opacity="0.9"/>
<path d="M110.117 359.66H112.537V365.84H119.257V359.66H121.697V374H119.257V367.92H112.537V374H110.117V359.66ZM128.264 365.34C127.118 365.34 125.958 365.66 124.784 366.3V364.36C125.291 364.08 125.891 363.853 126.584 363.68C127.278 363.507 127.964 363.42 128.644 363.42C129.978 363.42 131.004 363.7 131.724 364.26C132.458 364.82 132.824 365.7 132.824 366.9V372.32C132.824 372.547 132.831 372.84 132.844 373.2C132.871 373.547 132.898 373.813 132.924 374H130.764C130.724 373.813 130.684 373.553 130.644 373.22C130.618 372.873 130.604 372.573 130.604 372.32L130.584 372.2C130.438 372.52 130.224 372.833 129.944 373.14C129.678 373.447 129.331 373.7 128.904 373.9C128.478 374.1 127.944 374.2 127.304 374.2C126.411 374.2 125.651 373.947 125.024 373.44C124.411 372.92 124.104 372.167 124.104 371.18C124.104 370.06 124.524 369.213 125.364 368.64C126.204 368.067 127.391 367.78 128.924 367.78H130.504V367.14C130.504 366.473 130.331 366.007 129.984 365.74C129.638 365.473 129.064 365.34 128.264 365.34ZM130.504 370V369.3H129.064C128.131 369.3 127.451 369.447 127.024 369.74C126.611 370.02 126.404 370.42 126.404 370.94C126.404 371.393 126.531 371.753 126.784 372.02C127.051 372.273 127.438 372.4 127.944 372.4C128.438 372.4 128.851 372.3 129.184 372.1C129.518 371.887 129.778 371.64 129.964 371.36C130.164 371.08 130.304 370.813 130.384 370.56C130.464 370.293 130.504 370.107 130.504 370ZM135.327 374V363.62H144.147V374H141.827V365.5H137.647V374H135.327ZM149.053 363.62V370.84L153.853 363.62H156.133V374H153.833V366.8L149.073 374H146.753V363.62H149.053ZM157.925 363.62H166.585V365.5H163.365V374H161.065V365.5H157.925V363.62ZM168.354 363.62H170.674V367.92H171.654L174.954 363.62H177.374L173.474 368.64L177.554 374H174.794L171.574 369.78H170.674V374H168.354V363.62ZM181.397 363.62V370.84L186.197 363.62H188.477V374H186.177V366.8L181.417 374H179.097V363.62H181.397Z" fill="black"/>
<path d="M102.186 432.66H113.386V447H110.946V434.76H104.606V447H102.186V432.66ZM116.204 436.62H118.324L118.484 438.48C118.817 437.853 119.271 437.353 119.844 436.98C120.431 436.607 121.137 436.42 121.964 436.42C122.777 436.42 123.531 436.62 124.224 437.02C124.917 437.407 125.471 438 125.884 438.8C126.311 439.587 126.524 440.587 126.524 441.8C126.524 443.013 126.311 444.02 125.884 444.82C125.471 445.62 124.911 446.22 124.204 446.62C123.511 447.007 122.751 447.2 121.924 447.2C121.137 447.2 120.457 447.027 119.884 446.68C119.324 446.32 118.871 445.84 118.524 445.24V450.54H116.204V436.62ZM124.144 441.8C124.144 440.653 123.884 439.793 123.364 439.22C122.857 438.633 122.197 438.34 121.384 438.34C120.571 438.34 119.884 438.627 119.324 439.2C118.777 439.773 118.504 440.64 118.504 441.8C118.504 442.973 118.777 443.847 119.324 444.42C119.884 444.98 120.564 445.26 121.364 445.26C122.177 445.26 122.844 444.973 123.364 444.4C123.884 443.827 124.144 442.96 124.144 441.8ZM132.97 447.2C131.996 447.2 131.116 446.993 130.33 446.58C129.556 446.153 128.943 445.54 128.49 444.74C128.05 443.94 127.83 442.96 127.83 441.8C127.83 440.653 128.05 439.68 128.49 438.88C128.943 438.08 129.556 437.473 130.33 437.06C131.116 436.633 131.996 436.42 132.97 436.42C133.943 436.42 134.816 436.633 135.59 437.06C136.376 437.473 136.996 438.08 137.45 438.88C137.903 439.68 138.13 440.653 138.13 441.8C138.13 442.96 137.903 443.94 137.45 444.74C136.996 445.54 136.376 446.153 135.59 446.58C134.816 446.993 133.943 447.2 132.97 447.2ZM132.97 445.26C133.77 445.26 134.43 444.98 134.95 444.42C135.483 443.86 135.75 442.987 135.75 441.8C135.75 440.627 135.483 439.76 134.95 439.2C134.43 438.627 133.77 438.34 132.97 438.34C132.17 438.34 131.503 438.627 130.97 439.2C130.45 439.76 130.19 440.627 130.19 441.8C130.19 442.987 130.45 443.86 130.97 444.42C131.503 444.98 132.17 445.26 132.97 445.26ZM140.873 449.96H138.833V445.12H139.713C140.126 444.76 140.44 444.16 140.653 443.32C140.84 442.64 140.973 441.773 141.053 440.72C141.133 439.667 141.2 438.3 141.253 436.62H148.853V445.12H150.413V449.96H148.393L148.213 447H141.053L140.873 449.96ZM142.673 443.78C142.54 444.3 142.373 444.747 142.173 445.12H146.533V438.5H143.253C143.213 439.687 143.146 440.707 143.053 441.56C142.96 442.413 142.833 443.153 142.673 443.78ZM153.654 450.74C152.988 450.74 152.428 450.633 151.974 450.42V448.34C152.401 448.647 152.941 448.8 153.594 448.8C154.021 448.8 154.381 448.707 154.674 448.52C154.981 448.347 155.261 448.053 155.514 447.64L151.334 436.62H153.834L156.734 444.68L159.614 436.62H161.774L158.034 446.88C157.688 447.813 157.308 448.56 156.894 449.12C156.494 449.693 156.034 450.107 155.514 450.36C154.994 450.613 154.374 450.74 153.654 450.74ZM163.352 436.62H165.672V440.92H166.652L169.952 436.62H172.372L168.472 441.64L172.552 447H169.792L166.572 442.78H165.672V447H163.352V436.62ZM173.275 436.62H181.935V438.5H178.715V447H176.415V438.5H173.275V436.62ZM186.024 436.62V439.98H187.644C188.991 439.98 190.044 440.267 190.804 440.84C191.564 441.4 191.944 442.26 191.944 443.42C191.944 444.233 191.751 444.907 191.364 445.44C190.991 445.96 190.471 446.353 189.804 446.62C189.151 446.873 188.404 447 187.564 447H183.704V436.62H186.024ZM195.424 436.62V447H193.124V436.62H195.424ZM187.384 445.18C188.024 445.18 188.544 445.053 188.944 444.8C189.357 444.533 189.564 444.107 189.564 443.52C189.564 442.92 189.377 442.487 189.004 442.22C188.644 441.953 188.131 441.82 187.464 441.82H186.024V445.18H187.384ZM111.097 470V459.62H119.917V470H117.597V461.5H113.417V470H111.097ZM124.822 459.62V466.84L129.622 459.62H131.902V470H129.602V462.8L124.842 470H122.522V459.62H124.822ZM133.694 459.62H142.354V461.5H139.134V470H136.834V461.5H133.694V459.62ZM147.491 461.34C146.344 461.34 145.184 461.66 144.011 462.3V460.36C144.518 460.08 145.118 459.853 145.811 459.68C146.504 459.507 147.191 459.42 147.871 459.42C149.204 459.42 150.231 459.7 150.951 460.26C151.684 460.82 152.051 461.7 152.051 462.9V468.32C152.051 468.547 152.058 468.84 152.071 469.2C152.098 469.547 152.124 469.813 152.151 470H149.991C149.951 469.813 149.911 469.553 149.871 469.22C149.844 468.873 149.831 468.573 149.831 468.32L149.811 468.2C149.664 468.52 149.451 468.833 149.171 469.14C148.904 469.447 148.558 469.7 148.131 469.9C147.704 470.1 147.171 470.2 146.531 470.2C145.638 470.2 144.878 469.947 144.251 469.44C143.638 468.92 143.331 468.167 143.331 467.18C143.331 466.06 143.751 465.213 144.591 464.64C145.431 464.067 146.618 463.78 148.151 463.78H149.731V463.14C149.731 462.473 149.558 462.007 149.211 461.74C148.864 461.473 148.291 461.34 147.491 461.34ZM149.731 466V465.3H148.291C147.358 465.3 146.678 465.447 146.251 465.74C145.838 466.02 145.631 466.42 145.631 466.94C145.631 467.393 145.758 467.753 146.011 468.02C146.278 468.273 146.664 468.4 147.171 468.4C147.664 468.4 148.078 468.3 148.411 468.1C148.744 467.887 149.004 467.64 149.191 467.36C149.391 467.08 149.531 466.813 149.611 466.56C149.691 466.293 149.731 466.107 149.731 466ZM156.874 459.62V463.74H161.234V459.62H163.574V470H161.234V465.62H156.874V470H154.554V459.62H156.874ZM168.475 459.62V466.84L173.275 459.62H175.555V470H173.255V462.8L168.495 470H166.175V459.62H168.475ZM177.427 470L180.287 465.98C179.58 465.767 179.027 465.42 178.627 464.94C178.24 464.46 178.047 463.82 178.047 463.02C178.047 461.9 178.447 461.053 179.247 460.48C180.06 459.907 181.12 459.62 182.427 459.62H186.267V470H183.967V466.48H182.467L180.027 470H177.427ZM182.607 461.46C181.967 461.46 181.44 461.587 181.027 461.84C180.627 462.08 180.427 462.473 180.427 463.02C180.427 463.593 180.607 464.007 180.967 464.26C181.34 464.513 181.867 464.64 182.547 464.64H183.967V461.46H182.607Z" fill="black"/>
<path d="M114.188 516.66H125.388V531H122.948V518.76H116.608V531H114.188V516.66ZM128.206 520.62H130.326L130.486 522.48C130.819 521.853 131.273 521.353 131.846 520.98C132.433 520.607 133.139 520.42 133.966 520.42C134.779 520.42 135.533 520.62 136.226 521.02C136.919 521.407 137.473 522 137.886 522.8C138.313 523.587 138.526 524.587 138.526 525.8C138.526 527.013 138.313 528.02 137.886 528.82C137.473 529.62 136.913 530.22 136.206 530.62C135.513 531.007 134.753 531.2 133.926 531.2C133.139 531.2 132.459 531.027 131.886 530.68C131.326 530.32 130.873 529.84 130.526 529.24V534.54H128.206V520.62ZM136.146 525.8C136.146 524.653 135.886 523.793 135.366 523.22C134.859 522.633 134.199 522.34 133.386 522.34C132.573 522.34 131.886 522.627 131.326 523.2C130.779 523.773 130.506 524.64 130.506 525.8C130.506 526.973 130.779 527.847 131.326 528.42C131.886 528.98 132.566 529.26 133.366 529.26C134.179 529.26 134.846 528.973 135.366 528.4C135.886 527.827 136.146 526.96 136.146 525.8ZM144.972 531.2C143.998 531.2 143.118 530.993 142.332 530.58C141.558 530.153 140.945 529.54 140.492 528.74C140.052 527.94 139.832 526.96 139.832 525.8C139.832 524.653 140.052 523.68 140.492 522.88C140.945 522.08 141.558 521.473 142.332 521.06C143.118 520.633 143.998 520.42 144.972 520.42C145.945 520.42 146.818 520.633 147.592 521.06C148.378 521.473 148.998 522.08 149.452 522.88C149.905 523.68 150.132 524.653 150.132 525.8C150.132 526.96 149.905 527.94 149.452 528.74C148.998 529.54 148.378 530.153 147.592 530.58C146.818 530.993 145.945 531.2 144.972 531.2ZM144.972 529.26C145.772 529.26 146.432 528.98 146.952 528.42C147.485 527.86 147.752 526.987 147.752 525.8C147.752 524.627 147.485 523.76 146.952 523.2C146.432 522.627 145.772 522.34 144.972 522.34C144.172 522.34 143.505 522.627 142.972 523.2C142.452 523.76 142.192 524.627 142.192 525.8C142.192 526.987 142.452 527.86 142.972 528.42C143.505 528.98 144.172 529.26 144.972 529.26ZM155.859 525.58C156.259 525.58 156.645 525.527 157.019 525.42C157.405 525.3 157.752 525.127 158.059 524.9V520.62H160.359V531H158.059V526.68C157.712 526.933 157.299 527.133 156.819 527.28C156.352 527.427 155.825 527.5 155.239 527.5C154.065 527.5 153.165 527.187 152.539 526.56C151.912 525.92 151.599 524.953 151.599 523.66V520.62H153.939V523.58C153.939 524.327 154.099 524.847 154.419 525.14C154.752 525.433 155.232 525.58 155.859 525.58ZM165.252 520.62V527.84L170.052 520.62H172.332V531H170.032V523.8L165.272 531H162.952V520.62H165.252ZM179.984 531.2C178.091 531.2 176.671 530.727 175.724 529.78C174.777 528.82 174.304 527.493 174.304 525.8C174.304 524.68 174.524 523.72 174.964 522.92C175.404 522.107 176.011 521.487 176.784 521.06C177.557 520.633 178.437 520.42 179.424 520.42C181.091 520.42 182.317 520.96 183.104 522.04C183.904 523.12 184.164 524.587 183.884 526.44H176.704C176.797 527.387 177.111 528.1 177.644 528.58C178.191 529.047 179.024 529.28 180.144 529.28C181.384 529.28 182.544 528.96 183.624 528.32V530.24C182.611 530.88 181.397 531.2 179.984 531.2ZM179.424 522.26C178.744 522.26 178.164 522.473 177.684 522.9C177.217 523.313 176.911 523.927 176.764 524.74H181.664C181.691 523.94 181.511 523.327 181.124 522.9C180.737 522.473 180.171 522.26 179.424 522.26ZM114.612 543.62H123.272V545.5H120.052V554H117.752V545.5H114.612V543.62ZM129.249 554.2C128.276 554.2 127.396 553.993 126.609 553.58C125.836 553.153 125.222 552.54 124.769 551.74C124.329 550.94 124.109 549.96 124.109 548.8C124.109 547.653 124.329 546.68 124.769 545.88C125.222 545.08 125.836 544.473 126.609 544.06C127.396 543.633 128.276 543.42 129.249 543.42C130.222 543.42 131.096 543.633 131.869 544.06C132.656 544.473 133.276 545.08 133.729 545.88C134.182 546.68 134.409 547.653 134.409 548.8C134.409 549.96 134.182 550.94 133.729 551.74C133.276 552.54 132.656 553.153 131.869 553.58C131.096 553.993 130.222 554.2 129.249 554.2ZM129.249 552.26C130.049 552.26 130.709 551.98 131.229 551.42C131.762 550.86 132.029 549.987 132.029 548.8C132.029 547.627 131.762 546.76 131.229 546.2C130.709 545.627 130.049 545.34 129.249 545.34C128.449 545.34 127.782 545.627 127.249 546.2C126.729 546.76 126.469 547.627 126.469 548.8C126.469 549.987 126.729 550.86 127.249 551.42C127.782 551.98 128.449 552.26 129.249 552.26ZM140.57 554H136.37V543.62H140.61C143.237 543.62 144.55 544.487 144.55 546.22C144.55 546.86 144.37 547.367 144.01 547.74C143.65 548.113 143.13 548.387 142.45 548.56C143.29 548.68 143.917 548.94 144.33 549.34C144.743 549.74 144.95 550.307 144.95 551.04C144.95 552.067 144.55 552.82 143.75 553.3C142.95 553.767 141.89 554 140.57 554ZM140.49 545.4H138.67V547.86H140.37C140.93 547.86 141.383 547.76 141.73 547.56C142.077 547.347 142.25 547.04 142.25 546.64C142.25 546.16 142.097 545.833 141.79 545.66C141.483 545.487 141.05 545.4 140.49 545.4ZM140.39 549.5H138.67V552.22H140.45C141.09 552.22 141.603 552.133 141.99 551.96C142.39 551.773 142.59 551.42 142.59 550.9C142.59 550.393 142.41 550.033 142.05 549.82C141.69 549.607 141.137 549.5 140.39 549.5ZM150.889 545.34C149.743 545.34 148.583 545.66 147.409 546.3V544.36C147.916 544.08 148.516 543.853 149.209 543.68C149.903 543.507 150.589 543.42 151.269 543.42C152.603 543.42 153.629 543.7 154.349 544.26C155.083 544.82 155.449 545.7 155.449 546.9V552.32C155.449 552.547 155.456 552.84 155.469 553.2C155.496 553.547 155.523 553.813 155.549 554H153.389C153.349 553.813 153.309 553.553 153.269 553.22C153.243 552.873 153.229 552.573 153.229 552.32L153.209 552.2C153.063 552.52 152.849 552.833 152.569 553.14C152.303 553.447 151.956 553.7 151.529 553.9C151.103 554.1 150.569 554.2 149.929 554.2C149.036 554.2 148.276 553.947 147.649 553.44C147.036 552.92 146.729 552.167 146.729 551.18C146.729 550.06 147.149 549.213 147.989 548.64C148.829 548.067 150.016 547.78 151.549 547.78H153.129V547.14C153.129 546.473 152.956 546.007 152.609 545.74C152.263 545.473 151.689 545.34 150.889 545.34ZM153.129 550V549.3H151.689C150.756 549.3 150.076 549.447 149.649 549.74C149.236 550.02 149.029 550.42 149.029 550.94C149.029 551.393 149.156 551.753 149.409 552.02C149.676 552.273 150.063 552.4 150.569 552.4C151.063 552.4 151.476 552.3 151.809 552.1C152.143 551.887 152.403 551.64 152.589 551.36C152.789 551.08 152.929 550.813 153.009 550.56C153.089 550.293 153.129 550.107 153.129 550ZM157.952 543.62H160.072L160.232 545.48C160.565 544.853 161.019 544.353 161.592 543.98C162.179 543.607 162.885 543.42 163.712 543.42C164.525 543.42 165.279 543.62 165.972 544.02C166.665 544.407 167.219 545 167.632 545.8C168.059 546.587 168.272 547.587 168.272 548.8C168.272 550.013 168.059 551.02 167.632 551.82C167.219 552.62 166.659 553.22 165.952 553.62C165.259 554.007 164.499 554.2 163.672 554.2C162.885 554.2 162.205 554.027 161.632 553.68C161.072 553.32 160.619 552.84 160.272 552.24V557.54H157.952V543.62ZM165.892 548.8C165.892 547.653 165.632 546.793 165.112 546.22C164.605 545.633 163.945 545.34 163.132 545.34C162.319 545.34 161.632 545.627 161.072 546.2C160.525 546.773 160.252 547.64 160.252 548.8C160.252 549.973 160.525 550.847 161.072 551.42C161.632 551.98 162.312 552.26 163.112 552.26C163.925 552.26 164.592 551.973 165.112 551.4C165.632 550.827 165.892 549.96 165.892 548.8ZM172.538 543.62V546.98H174.158C175.504 546.98 176.558 547.267 177.318 547.84C178.078 548.4 178.458 549.26 178.458 550.42C178.458 551.233 178.264 551.907 177.878 552.44C177.504 552.96 176.984 553.353 176.318 553.62C175.664 553.873 174.918 554 174.078 554H170.218V543.62H172.538ZM181.938 543.62V554H179.638V543.62H181.938ZM173.898 552.18C174.538 552.18 175.058 552.053 175.458 551.8C175.871 551.533 176.078 551.107 176.078 550.52C176.078 549.92 175.891 549.487 175.518 549.22C175.158 548.953 174.644 548.82 173.978 548.82H172.538V552.18H173.898Z" fill="black"/>
<path d="M274.481 290.2C273.001 290.2 271.714 289.907 270.621 289.32C269.541 288.733 268.701 287.893 268.101 286.8C267.514 285.693 267.221 284.373 267.221 282.84C267.221 281.307 267.508 279.993 268.081 278.9C268.654 277.793 269.481 276.947 270.561 276.36C271.641 275.773 272.941 275.48 274.461 275.48C275.301 275.48 276.088 275.567 276.821 275.74C277.568 275.9 278.181 276.133 278.661 276.44V278.62C278.141 278.287 277.521 278.027 276.801 277.84C276.081 277.653 275.321 277.56 274.521 277.56C272.921 277.56 271.728 278 270.941 278.88C270.168 279.76 269.781 281.08 269.781 282.84C269.781 286.373 271.408 288.14 274.661 288.14C276.248 288.14 277.581 287.747 278.661 286.96V289.1C278.208 289.447 277.608 289.72 276.861 289.92C276.128 290.107 275.334 290.2 274.481 290.2ZM281.301 290V275.66H283.721V288.02H288.081V275.66H290.521V288.02H294.881V275.66H297.301V290H281.301ZM312.483 290H309.983L308.663 286.24H302.623L301.303 290H299.163L304.223 275.66H307.403L312.483 290ZM303.363 284.16H307.923L305.643 277.7L303.363 284.16Z" fill="black"/>
<path d="M409.11 290H406.17L401.61 284.06H400.21V290H397.79V275.66H400.21V281.96H401.63L406.29 275.66H408.89L403.57 282.82L409.11 290ZM414.061 281.34C412.914 281.34 411.754 281.66 410.581 282.3V280.36C411.088 280.08 411.688 279.853 412.381 279.68C413.074 279.507 413.761 279.42 414.441 279.42C415.774 279.42 416.801 279.7 417.521 280.26C418.254 280.82 418.621 281.7 418.621 282.9V288.32C418.621 288.547 418.628 288.84 418.641 289.2C418.668 289.547 418.694 289.813 418.721 290H416.561C416.521 289.813 416.481 289.553 416.441 289.22C416.414 288.873 416.401 288.573 416.401 288.32L416.381 288.2C416.234 288.52 416.021 288.833 415.741 289.14C415.474 289.447 415.128 289.7 414.701 289.9C414.274 290.1 413.741 290.2 413.101 290.2C412.208 290.2 411.448 289.947 410.821 289.44C410.208 288.92 409.901 288.167 409.901 287.18C409.901 286.06 410.321 285.213 411.161 284.64C412.001 284.067 413.188 283.78 414.721 283.78H416.301V283.14C416.301 282.473 416.128 282.007 415.781 281.74C415.434 281.473 414.861 281.34 414.061 281.34ZM416.301 286V285.3H414.861C413.928 285.3 413.248 285.447 412.821 285.74C412.408 286.02 412.201 286.42 412.201 286.94C412.201 287.393 412.328 287.753 412.581 288.02C412.848 288.273 413.234 288.4 413.741 288.4C414.234 288.4 414.648 288.3 414.981 288.1C415.314 287.887 415.574 287.64 415.761 287.36C415.961 287.08 416.101 286.813 416.181 286.56C416.261 286.293 416.301 286.107 416.301 286ZM423.444 279.62V283.74H427.804V279.62H430.144V290H427.804V285.62H423.444V290H421.124V279.62H423.444ZM436.405 281.34C435.258 281.34 434.098 281.66 432.925 282.3V280.36C433.431 280.08 434.031 279.853 434.725 279.68C435.418 279.507 436.105 279.42 436.785 279.42C438.118 279.42 439.145 279.7 439.865 280.26C440.598 280.82 440.965 281.7 440.965 282.9V288.32C440.965 288.547 440.971 288.84 440.985 289.2C441.011 289.547 441.038 289.813 441.065 290H438.905C438.865 289.813 438.825 289.553 438.785 289.22C438.758 288.873 438.745 288.573 438.745 288.32L438.725 288.2C438.578 288.52 438.365 288.833 438.085 289.14C437.818 289.447 437.471 289.7 437.045 289.9C436.618 290.1 436.085 290.2 435.445 290.2C434.551 290.2 433.791 289.947 433.165 289.44C432.551 288.92 432.245 288.167 432.245 287.18C432.245 286.06 432.665 285.213 433.505 284.64C434.345 284.067 435.531 283.78 437.065 283.78H438.645V283.14C438.645 282.473 438.471 282.007 438.125 281.74C437.778 281.473 437.205 281.34 436.405 281.34ZM438.645 286V285.3H437.205C436.271 285.3 435.591 285.447 435.165 285.74C434.751 286.02 434.545 286.42 434.545 286.94C434.545 287.393 434.671 287.753 434.925 288.02C435.191 288.273 435.578 288.4 436.085 288.4C436.578 288.4 436.991 288.3 437.325 288.1C437.658 287.887 437.918 287.64 438.105 287.36C438.305 287.08 438.445 286.813 438.525 286.56C438.605 286.293 438.645 286.107 438.645 286ZM444.445 292.96H442.405V288.12H443.285C443.698 287.76 444.012 287.16 444.225 286.32C444.412 285.64 444.545 284.773 444.625 283.72C444.705 282.667 444.772 281.3 444.825 279.62H452.425V288.12H453.985V292.96H451.965L451.785 290H444.625L444.445 292.96ZM446.245 286.78C446.112 287.3 445.945 287.747 445.745 288.12H450.105V281.5H446.825C446.785 282.687 446.718 283.707 446.625 284.56C446.532 285.413 446.405 286.153 446.245 286.78ZM459.374 281.34C458.227 281.34 457.067 281.66 455.894 282.3V280.36C456.4 280.08 457 279.853 457.694 279.68C458.387 279.507 459.074 279.42 459.754 279.42C461.087 279.42 462.114 279.7 462.834 280.26C463.567 280.82 463.934 281.7 463.934 282.9V288.32C463.934 288.547 463.94 288.84 463.954 289.2C463.98 289.547 464.007 289.813 464.034 290H461.874C461.834 289.813 461.794 289.553 461.754 289.22C461.727 288.873 461.714 288.573 461.714 288.32L461.694 288.2C461.547 288.52 461.334 288.833 461.054 289.14C460.787 289.447 460.44 289.7 460.014 289.9C459.587 290.1 459.054 290.2 458.414 290.2C457.52 290.2 456.76 289.947 456.134 289.44C455.52 288.92 455.214 288.167 455.214 287.18C455.214 286.06 455.634 285.213 456.474 284.64C457.314 284.067 458.5 283.78 460.034 283.78H461.614V283.14C461.614 282.473 461.44 282.007 461.094 281.74C460.747 281.473 460.174 281.34 459.374 281.34ZM461.614 286V285.3H460.174C459.24 285.3 458.56 285.447 458.134 285.74C457.72 286.02 457.514 286.42 457.514 286.94C457.514 287.393 457.64 287.753 457.894 288.02C458.16 288.273 458.547 288.4 459.054 288.4C459.547 288.4 459.96 288.3 460.294 288.1C460.627 287.887 460.887 287.64 461.074 287.36C461.274 287.08 461.414 286.813 461.494 286.56C461.574 286.293 461.614 286.107 461.614 286Z" fill="black"/>
<path d="M538.862 287.82H538.002L534.222 279.08V290H532.022V275.66H535.262L539.242 285.2L543.502 275.66H546.502V290H544.042V279.24L540.182 287.8H538.862V287.82ZM554.361 290.2C552.468 290.2 551.048 289.727 550.101 288.78C549.154 287.82 548.681 286.493 548.681 284.8C548.681 283.68 548.901 282.72 549.341 281.92C549.781 281.107 550.388 280.487 551.161 280.06C551.934 279.633 552.814 279.42 553.801 279.42C555.468 279.42 556.694 279.96 557.481 281.04C558.281 282.12 558.541 283.587 558.261 285.44H551.081C551.174 286.387 551.488 287.1 552.021 287.58C552.568 288.047 553.401 288.28 554.521 288.28C555.761 288.28 556.921 287.96 558.001 287.32V289.24C556.988 289.88 555.774 290.2 554.361 290.2ZM553.801 281.26C553.121 281.26 552.541 281.473 552.061 281.9C551.594 282.313 551.288 282.927 551.141 283.74H556.041C556.068 282.94 555.888 282.327 555.501 281.9C555.114 281.473 554.548 281.26 553.801 281.26ZM560.376 279.62H562.696V283.92H563.676L566.976 279.62H569.396L565.496 284.64L569.576 290H566.816L563.596 285.78H562.696V290H560.376V279.62ZM575.566 290.2C573.886 290.2 572.559 289.727 571.586 288.78C570.626 287.82 570.146 286.493 570.146 284.8C570.146 283.12 570.633 281.807 571.606 280.86C572.579 279.9 573.913 279.42 575.606 279.42C576.966 279.42 578.026 279.7 578.786 280.26V282.18C578.319 281.887 577.839 281.673 577.346 281.54C576.866 281.407 576.333 281.34 575.746 281.34C573.586 281.34 572.506 282.493 572.506 284.8C572.506 287.107 573.566 288.26 575.686 288.26C576.806 288.26 577.839 287.987 578.786 287.44V289.36C577.919 289.92 576.846 290.2 575.566 290.2ZM583.203 279.62V286.84L588.003 279.62H590.283V290H587.983V282.8L583.223 290H580.903V279.62H583.203ZM592.895 279.62H595.215V283.92H596.195L599.495 279.62H601.915L598.015 284.64L602.095 290H599.335L596.115 285.78H595.215V290H592.895V279.62ZM607.141 281.34C605.994 281.34 604.834 281.66 603.661 282.3V280.36C604.168 280.08 604.768 279.853 605.461 279.68C606.154 279.507 606.841 279.42 607.521 279.42C608.854 279.42 609.881 279.7 610.601 280.26C611.334 280.82 611.701 281.7 611.701 282.9V288.32C611.701 288.547 611.708 288.84 611.721 289.2C611.748 289.547 611.774 289.813 611.801 290H609.641C609.601 289.813 609.561 289.553 609.521 289.22C609.494 288.873 609.481 288.573 609.481 288.32L609.461 288.2C609.314 288.52 609.101 288.833 608.821 289.14C608.554 289.447 608.208 289.7 607.781 289.9C607.354 290.1 606.821 290.2 606.181 290.2C605.288 290.2 604.528 289.947 603.901 289.44C603.288 288.92 602.981 288.167 602.981 287.18C602.981 286.06 603.401 285.213 604.241 284.64C605.081 284.067 606.268 283.78 607.801 283.78H609.381V283.14C609.381 282.473 609.208 282.007 608.861 281.74C608.514 281.473 607.941 281.34 607.141 281.34ZM609.381 286V285.3H607.941C607.008 285.3 606.328 285.447 605.901 285.74C605.488 286.02 605.281 286.42 605.281 286.94C605.281 287.393 605.408 287.753 605.661 288.02C605.928 288.273 606.314 288.4 606.821 288.4C607.314 288.4 607.728 288.3 608.061 288.1C608.394 287.887 608.654 287.64 608.841 287.36C609.041 287.08 609.181 286.813 609.261 286.56C609.341 286.293 609.381 286.107 609.381 286Z" fill="black"/>
<path d="M270.241 374H267.861V362.3L263.781 365.34V362.94L268.161 359.66H270.241V374ZM279.094 374.2C278.147 374.2 277.307 373.947 276.574 373.44C275.84 372.933 275.26 372.14 274.834 371.06C274.42 369.967 274.214 368.553 274.214 366.82C274.214 365.1 274.42 363.7 274.834 362.62C275.26 361.54 275.84 360.747 276.574 360.24C277.307 359.733 278.147 359.48 279.094 359.48C280.04 359.48 280.874 359.733 281.594 360.24C282.327 360.733 282.894 361.52 283.294 362.6C283.707 363.667 283.914 365.06 283.914 366.78C283.914 368.5 283.707 369.907 283.294 371C282.894 372.093 282.327 372.9 281.594 373.42C280.874 373.94 280.04 374.2 279.094 374.2ZM279.074 372.26C279.607 372.26 280.054 372.093 280.414 371.76C280.774 371.413 281.04 370.847 281.214 370.06C281.4 369.273 281.494 368.2 281.494 366.84C281.494 365.493 281.4 364.427 281.214 363.64C281.04 362.84 280.774 362.273 280.414 361.94C280.067 361.593 279.627 361.42 279.094 361.42C278.56 361.42 278.107 361.593 277.734 361.94C277.374 362.273 277.1 362.84 276.914 363.64C276.727 364.427 276.634 365.493 276.634 366.84C276.634 368.2 276.727 369.273 276.914 370.06C277.1 370.847 277.374 371.413 277.734 371.76C278.094 372.093 278.54 372.26 279.074 372.26ZM290.227 374.2C289.28 374.2 288.44 373.947 287.707 373.44C286.973 372.933 286.393 372.14 285.967 371.06C285.553 369.967 285.347 368.553 285.347 366.82C285.347 365.1 285.553 363.7 285.967 362.62C286.393 361.54 286.973 360.747 287.707 360.24C288.44 359.733 289.28 359.48 290.227 359.48C291.173 359.48 292.007 359.733 292.727 360.24C293.46 360.733 294.027 361.52 294.427 362.6C294.84 363.667 295.047 365.06 295.047 366.78C295.047 368.5 294.84 369.907 294.427 371C294.027 372.093 293.46 372.9 292.727 373.42C292.007 373.94 291.173 374.2 290.227 374.2ZM290.207 372.26C290.74 372.26 291.187 372.093 291.547 371.76C291.907 371.413 292.173 370.847 292.347 370.06C292.533 369.273 292.627 368.2 292.627 366.84C292.627 365.493 292.533 364.427 292.347 363.64C292.173 362.84 291.907 362.273 291.547 361.94C291.2 361.593 290.76 361.42 290.227 361.42C289.693 361.42 289.24 361.593 288.867 361.94C288.507 362.273 288.233 362.84 288.047 363.64C287.86 364.427 287.767 365.493 287.767 366.84C287.767 368.2 287.86 369.273 288.047 370.06C288.233 370.847 288.507 371.413 288.867 371.76C289.227 372.093 289.673 372.26 290.207 372.26ZM301.359 374.2C300.413 374.2 299.573 373.947 298.839 373.44C298.106 372.933 297.526 372.14 297.099 371.06C296.686 369.967 296.479 368.553 296.479 366.82C296.479 365.1 296.686 363.7 297.099 362.62C297.526 361.54 298.106 360.747 298.839 360.24C299.573 359.733 300.413 359.48 301.359 359.48C302.306 359.48 303.139 359.733 303.859 360.24C304.593 360.733 305.159 361.52 305.559 362.6C305.973 363.667 306.179 365.06 306.179 366.78C306.179 368.5 305.973 369.907 305.559 371C305.159 372.093 304.593 372.9 303.859 373.42C303.139 373.94 302.306 374.2 301.359 374.2ZM301.339 372.26C301.873 372.26 302.319 372.093 302.679 371.76C303.039 371.413 303.306 370.847 303.479 370.06C303.666 369.273 303.759 368.2 303.759 366.84C303.759 365.493 303.666 364.427 303.479 363.64C303.306 362.84 303.039 362.273 302.679 361.94C302.333 361.593 301.893 361.42 301.359 361.42C300.826 361.42 300.373 361.593 299.999 361.94C299.639 362.273 299.366 362.84 299.179 363.64C298.993 364.427 298.899 365.493 298.899 366.84C298.899 368.2 298.993 369.273 299.179 370.06C299.366 370.847 299.639 371.413 299.999 371.76C300.359 372.093 300.806 372.26 301.339 372.26ZM312.492 374.2C311.546 374.2 310.706 373.947 309.972 373.44C309.239 372.933 308.659 372.14 308.232 371.06C307.819 369.967 307.612 368.553 307.612 366.82C307.612 365.1 307.819 363.7 308.232 362.62C308.659 361.54 309.239 360.747 309.972 360.24C310.706 359.733 311.546 359.48 312.492 359.48C313.439 359.48 314.272 359.733 314.992 360.24C315.726 360.733 316.292 361.52 316.692 362.6C317.106 363.667 317.312 365.06 317.312 366.78C317.312 368.5 317.106 369.907 316.692 371C316.292 372.093 315.726 372.9 314.992 373.42C314.272 373.94 313.439 374.2 312.492 374.2ZM312.472 372.26C313.006 372.26 313.452 372.093 313.812 371.76C314.172 371.413 314.439 370.847 314.612 370.06C314.799 369.273 314.892 368.2 314.892 366.84C314.892 365.493 314.799 364.427 314.612 363.64C314.439 362.84 314.172 362.273 313.812 361.94C313.466 361.593 313.026 361.42 312.492 361.42C311.959 361.42 311.506 361.593 311.132 361.94C310.772 362.273 310.499 362.84 310.312 363.64C310.126 364.427 310.032 365.493 310.032 366.84C310.032 368.2 310.126 369.273 310.312 370.06C310.499 370.847 310.772 371.413 311.132 371.76C311.492 372.093 311.939 372.26 312.472 372.26Z" fill="black"/>
<path d="M418.727 374H409.467V371.7C410.801 370.66 411.901 369.767 412.767 369.02C413.647 368.26 414.334 367.587 414.827 367C415.334 366.413 415.687 365.873 415.887 365.38C416.101 364.873 416.207 364.353 416.207 363.82C416.207 363.087 415.981 362.513 415.527 362.1C415.087 361.673 414.487 361.46 413.727 361.46C412.381 361.46 411.087 362.067 409.847 363.28V360.98C411.021 359.98 412.394 359.48 413.967 359.48C415.421 359.48 416.567 359.86 417.407 360.62C418.261 361.38 418.687 362.413 418.687 363.72C418.687 364.347 418.581 364.947 418.367 365.52C418.167 366.08 417.814 366.673 417.307 367.3C416.814 367.913 416.134 368.6 415.267 369.36C414.414 370.107 413.334 370.973 412.027 371.96H418.727V374ZM425.16 374.2C424.213 374.2 423.373 373.947 422.64 373.44C421.907 372.933 421.327 372.14 420.9 371.06C420.487 369.967 420.28 368.553 420.28 366.82C420.28 365.1 420.487 363.7 420.9 362.62C421.327 361.54 421.907 360.747 422.64 360.24C423.373 359.733 424.213 359.48 425.16 359.48C426.107 359.48 426.94 359.733 427.66 360.24C428.393 360.733 428.96 361.52 429.36 362.6C429.773 363.667 429.98 365.06 429.98 366.78C429.98 368.5 429.773 369.907 429.36 371C428.96 372.093 428.393 372.9 427.66 373.42C426.94 373.94 426.107 374.2 425.16 374.2ZM425.14 372.26C425.673 372.26 426.12 372.093 426.48 371.76C426.84 371.413 427.107 370.847 427.28 370.06C427.467 369.273 427.56 368.2 427.56 366.84C427.56 365.493 427.467 364.427 427.28 363.64C427.107 362.84 426.84 362.273 426.48 361.94C426.133 361.593 425.693 361.42 425.16 361.42C424.627 361.42 424.173 361.593 423.8 361.94C423.44 362.273 423.167 362.84 422.98 363.64C422.793 364.427 422.7 365.493 422.7 366.84C422.7 368.2 422.793 369.273 422.98 370.06C423.167 370.847 423.44 371.413 423.8 371.76C424.16 372.093 424.607 372.26 425.14 372.26ZM436.293 374.2C435.346 374.2 434.506 373.947 433.773 373.44C433.04 372.933 432.46 372.14 432.033 371.06C431.62 369.967 431.413 368.553 431.413 366.82C431.413 365.1 431.62 363.7 432.033 362.62C432.46 361.54 433.04 360.747 433.773 360.24C434.506 359.733 435.346 359.48 436.293 359.48C437.24 359.48 438.073 359.733 438.793 360.24C439.526 360.733 440.093 361.52 440.493 362.6C440.906 363.667 441.113 365.06 441.113 366.78C441.113 368.5 440.906 369.907 440.493 371C440.093 372.093 439.526 372.9 438.793 373.42C438.073 373.94 437.24 374.2 436.293 374.2ZM436.273 372.26C436.806 372.26 437.253 372.093 437.613 371.76C437.973 371.413 438.24 370.847 438.413 370.06C438.6 369.273 438.693 368.2 438.693 366.84C438.693 365.493 438.6 364.427 438.413 363.64C438.24 362.84 437.973 362.273 437.613 361.94C437.266 361.593 436.826 361.42 436.293 361.42C435.76 361.42 435.306 361.593 434.933 361.94C434.573 362.273 434.3 362.84 434.113 363.64C433.926 364.427 433.833 365.493 433.833 366.84C433.833 368.2 433.926 369.273 434.113 370.06C434.3 370.847 434.573 371.413 434.933 371.76C435.293 372.093 435.74 372.26 436.273 372.26ZM447.426 374.2C446.479 374.2 445.639 373.947 444.906 373.44C444.172 372.933 443.592 372.14 443.166 371.06C442.752 369.967 442.546 368.553 442.546 366.82C442.546 365.1 442.752 363.7 443.166 362.62C443.592 361.54 444.172 360.747 444.906 360.24C445.639 359.733 446.479 359.48 447.426 359.48C448.372 359.48 449.206 359.733 449.926 360.24C450.659 360.733 451.226 361.52 451.626 362.6C452.039 363.667 452.246 365.06 452.246 366.78C452.246 368.5 452.039 369.907 451.626 371C451.226 372.093 450.659 372.9 449.926 373.42C449.206 373.94 448.372 374.2 447.426 374.2ZM447.406 372.26C447.939 372.26 448.386 372.093 448.746 371.76C449.106 371.413 449.372 370.847 449.546 370.06C449.732 369.273 449.826 368.2 449.826 366.84C449.826 365.493 449.732 364.427 449.546 363.64C449.372 362.84 449.106 362.273 448.746 361.94C448.399 361.593 447.959 361.42 447.426 361.42C446.892 361.42 446.439 361.593 446.066 361.94C445.706 362.273 445.432 362.84 445.246 363.64C445.059 364.427 444.966 365.493 444.966 366.84C444.966 368.2 445.059 369.273 445.246 370.06C445.432 370.847 445.706 371.413 446.066 371.76C446.426 372.093 446.872 372.26 447.406 372.26Z" fill="black"/>
<path d="M557.307 374H554.927V362.3L550.847 365.34V362.94L555.227 359.66H557.307V374ZM566.16 374.2C565.213 374.2 564.373 373.947 563.64 373.44C562.907 372.933 562.327 372.14 561.9 371.06C561.487 369.967 561.28 368.553 561.28 366.82C561.28 365.1 561.487 363.7 561.9 362.62C562.327 361.54 562.907 360.747 563.64 360.24C564.373 359.733 565.213 359.48 566.16 359.48C567.107 359.48 567.94 359.733 568.66 360.24C569.393 360.733 569.96 361.52 570.36 362.6C570.773 363.667 570.98 365.06 570.98 366.78C570.98 368.5 570.773 369.907 570.36 371C569.96 372.093 569.393 372.9 568.66 373.42C567.94 373.94 567.107 374.2 566.16 374.2ZM566.14 372.26C566.673 372.26 567.12 372.093 567.48 371.76C567.84 371.413 568.107 370.847 568.28 370.06C568.467 369.273 568.56 368.2 568.56 366.84C568.56 365.493 568.467 364.427 568.28 363.64C568.107 362.84 567.84 362.273 567.48 361.94C567.133 361.593 566.693 361.42 566.16 361.42C565.627 361.42 565.173 361.593 564.8 361.94C564.44 362.273 564.167 362.84 563.98 363.64C563.793 364.427 563.7 365.493 563.7 366.84C563.7 368.2 563.793 369.273 563.98 370.06C564.167 370.847 564.44 371.413 564.8 371.76C565.16 372.093 565.607 372.26 566.14 372.26ZM577.293 374.2C576.346 374.2 575.506 373.947 574.773 373.44C574.04 372.933 573.46 372.14 573.033 371.06C572.62 369.967 572.413 368.553 572.413 366.82C572.413 365.1 572.62 363.7 573.033 362.62C573.46 361.54 574.04 360.747 574.773 360.24C575.506 359.733 576.346 359.48 577.293 359.48C578.24 359.48 579.073 359.733 579.793 360.24C580.526 360.733 581.093 361.52 581.493 362.6C581.906 363.667 582.113 365.06 582.113 366.78C582.113 368.5 581.906 369.907 581.493 371C581.093 372.093 580.526 372.9 579.793 373.42C579.073 373.94 578.24 374.2 577.293 374.2ZM577.273 372.26C577.806 372.26 578.253 372.093 578.613 371.76C578.973 371.413 579.24 370.847 579.413 370.06C579.6 369.273 579.693 368.2 579.693 366.84C579.693 365.493 579.6 364.427 579.413 363.64C579.24 362.84 578.973 362.273 578.613 361.94C578.266 361.593 577.826 361.42 577.293 361.42C576.76 361.42 576.306 361.593 575.933 361.94C575.573 362.273 575.3 362.84 575.113 363.64C574.926 364.427 574.833 365.493 574.833 366.84C574.833 368.2 574.926 369.273 575.113 370.06C575.3 370.847 575.573 371.413 575.933 371.76C576.293 372.093 576.74 372.26 577.273 372.26ZM588.426 374.2C587.479 374.2 586.639 373.947 585.906 373.44C585.172 372.933 584.592 372.14 584.166 371.06C583.752 369.967 583.546 368.553 583.546 366.82C583.546 365.1 583.752 363.7 584.166 362.62C584.592 361.54 585.172 360.747 585.906 360.24C586.639 359.733 587.479 359.48 588.426 359.48C589.372 359.48 590.206 359.733 590.926 360.24C591.659 360.733 592.226 361.52 592.626 362.6C593.039 363.667 593.246 365.06 593.246 366.78C593.246 368.5 593.039 369.907 592.626 371C592.226 372.093 591.659 372.9 590.926 373.42C590.206 373.94 589.372 374.2 588.426 374.2ZM588.406 372.26C588.939 372.26 589.386 372.093 589.746 371.76C590.106 371.413 590.372 370.847 590.546 370.06C590.732 369.273 590.826 368.2 590.826 366.84C590.826 365.493 590.732 364.427 590.546 363.64C590.372 362.84 590.106 362.273 589.746 361.94C589.399 361.593 588.959 361.42 588.426 361.42C587.892 361.42 587.439 361.593 587.066 361.94C586.706 362.273 586.432 362.84 586.246 363.64C586.059 364.427 585.966 365.493 585.966 366.84C585.966 368.2 586.059 369.273 586.246 370.06C586.432 370.847 586.706 371.413 587.066 371.76C587.426 372.093 587.872 372.26 588.406 372.26Z" fill="black"/>
<path d="M272.247 458.2C271.474 458.2 270.767 458.12 270.127 457.96C269.487 457.8 268.907 457.54 268.387 457.18V454.94C269.014 455.407 269.627 455.74 270.227 455.94C270.841 456.14 271.481 456.24 272.147 456.24C273.094 456.24 273.821 455.96 274.327 455.4C274.834 454.84 275.087 454.133 275.087 453.28C275.087 452.387 274.861 451.713 274.407 451.26C273.967 450.793 273.347 450.56 272.547 450.56C272.027 450.56 271.601 450.647 271.267 450.82C270.947 450.993 270.701 451.18 270.527 451.38H268.727V443.66H276.867V445.72H270.827V449.34C271.067 449.153 271.374 448.993 271.747 448.86C272.121 448.713 272.581 448.64 273.127 448.64C274.434 448.64 275.494 449.033 276.307 449.82C277.121 450.607 277.527 451.733 277.527 453.2C277.527 454.187 277.307 455.06 276.867 455.82C276.427 456.567 275.807 457.153 275.007 457.58C274.221 457.993 273.301 458.2 272.247 458.2ZM284.16 458.2C283.214 458.2 282.374 457.947 281.64 457.44C280.907 456.933 280.327 456.14 279.9 455.06C279.487 453.967 279.28 452.553 279.28 450.82C279.28 449.1 279.487 447.7 279.9 446.62C280.327 445.54 280.907 444.747 281.64 444.24C282.374 443.733 283.214 443.48 284.16 443.48C285.107 443.48 285.94 443.733 286.66 444.24C287.394 444.733 287.96 445.52 288.36 446.6C288.774 447.667 288.98 449.06 288.98 450.78C288.98 452.5 288.774 453.907 288.36 455C287.96 456.093 287.394 456.9 286.66 457.42C285.94 457.94 285.107 458.2 284.16 458.2ZM284.14 456.26C284.674 456.26 285.12 456.093 285.48 455.76C285.84 455.413 286.107 454.847 286.28 454.06C286.467 453.273 286.56 452.2 286.56 450.84C286.56 449.493 286.467 448.427 286.28 447.64C286.107 446.84 285.84 446.273 285.48 445.94C285.134 445.593 284.694 445.42 284.16 445.42C283.627 445.42 283.174 445.593 282.8 445.94C282.44 446.273 282.167 446.84 281.98 447.64C281.794 448.427 281.7 449.493 281.7 450.84C281.7 452.2 281.794 453.273 281.98 454.06C282.167 454.847 282.44 455.413 282.8 455.76C283.16 456.093 283.607 456.26 284.14 456.26ZM295.293 458.2C294.346 458.2 293.506 457.947 292.773 457.44C292.04 456.933 291.46 456.14 291.033 455.06C290.62 453.967 290.413 452.553 290.413 450.82C290.413 449.1 290.62 447.7 291.033 446.62C291.46 445.54 292.04 444.747 292.773 444.24C293.506 443.733 294.346 443.48 295.293 443.48C296.24 443.48 297.073 443.733 297.793 444.24C298.526 444.733 299.093 445.52 299.493 446.6C299.906 447.667 300.113 449.06 300.113 450.78C300.113 452.5 299.906 453.907 299.493 455C299.093 456.093 298.526 456.9 297.793 457.42C297.073 457.94 296.24 458.2 295.293 458.2ZM295.273 456.26C295.806 456.26 296.253 456.093 296.613 455.76C296.973 455.413 297.24 454.847 297.413 454.06C297.6 453.273 297.693 452.2 297.693 450.84C297.693 449.493 297.6 448.427 297.413 447.64C297.24 446.84 296.973 446.273 296.613 445.94C296.266 445.593 295.826 445.42 295.293 445.42C294.76 445.42 294.306 445.593 293.933 445.94C293.573 446.273 293.3 446.84 293.113 447.64C292.926 448.427 292.833 449.493 292.833 450.84C292.833 452.2 292.926 453.273 293.113 454.06C293.3 454.847 293.573 455.413 293.933 455.76C294.293 456.093 294.74 456.26 295.273 456.26ZM306.426 458.2C305.479 458.2 304.639 457.947 303.906 457.44C303.172 456.933 302.592 456.14 302.166 455.06C301.752 453.967 301.546 452.553 301.546 450.82C301.546 449.1 301.752 447.7 302.166 446.62C302.592 445.54 303.172 444.747 303.906 444.24C304.639 443.733 305.479 443.48 306.426 443.48C307.372 443.48 308.206 443.733 308.926 444.24C309.659 444.733 310.226 445.52 310.626 446.6C311.039 447.667 311.246 449.06 311.246 450.78C311.246 452.5 311.039 453.907 310.626 455C310.226 456.093 309.659 456.9 308.926 457.42C308.206 457.94 307.372 458.2 306.426 458.2ZM306.406 456.26C306.939 456.26 307.386 456.093 307.746 455.76C308.106 455.413 308.372 454.847 308.546 454.06C308.732 453.273 308.826 452.2 308.826 450.84C308.826 449.493 308.732 448.427 308.546 447.64C308.372 446.84 308.106 446.273 307.746 445.94C307.399 445.593 306.959 445.42 306.426 445.42C305.892 445.42 305.439 445.593 305.066 445.94C304.706 446.273 304.432 446.84 304.246 447.64C304.059 448.427 303.966 449.493 303.966 450.84C303.966 452.2 304.059 453.273 304.246 454.06C304.432 454.847 304.706 455.413 305.066 455.76C305.426 456.093 305.872 456.26 306.406 456.26Z" fill="black"/>
<path d="M419.314 458.2C418.54 458.2 417.834 458.12 417.194 457.96C416.554 457.8 415.974 457.54 415.454 457.18V454.94C416.08 455.407 416.694 455.74 417.294 455.94C417.907 456.14 418.547 456.24 419.214 456.24C420.16 456.24 420.887 455.96 421.394 455.4C421.9 454.84 422.154 454.133 422.154 453.28C422.154 452.387 421.927 451.713 421.474 451.26C421.034 450.793 420.414 450.56 419.614 450.56C419.094 450.56 418.667 450.647 418.334 450.82C418.014 450.993 417.767 451.18 417.594 451.38H415.794V443.66H423.934V445.72H417.894V449.34C418.134 449.153 418.44 448.993 418.814 448.86C419.187 448.713 419.647 448.64 420.194 448.64C421.5 448.64 422.56 449.033 423.374 449.82C424.187 450.607 424.594 451.733 424.594 453.2C424.594 454.187 424.374 455.06 423.934 455.82C423.494 456.567 422.874 457.153 422.074 457.58C421.287 457.993 420.367 458.2 419.314 458.2ZM431.226 458.2C430.28 458.2 429.44 457.947 428.706 457.44C427.973 456.933 427.393 456.14 426.966 455.06C426.553 453.967 426.346 452.553 426.346 450.82C426.346 449.1 426.553 447.7 426.966 446.62C427.393 445.54 427.973 444.747 428.706 444.24C429.44 443.733 430.28 443.48 431.226 443.48C432.173 443.48 433.006 443.733 433.726 444.24C434.46 444.733 435.026 445.52 435.426 446.6C435.84 447.667 436.046 449.06 436.046 450.78C436.046 452.5 435.84 453.907 435.426 455C435.026 456.093 434.46 456.9 433.726 457.42C433.006 457.94 432.173 458.2 431.226 458.2ZM431.206 456.26C431.74 456.26 432.186 456.093 432.546 455.76C432.906 455.413 433.173 454.847 433.346 454.06C433.533 453.273 433.626 452.2 433.626 450.84C433.626 449.493 433.533 448.427 433.346 447.64C433.173 446.84 432.906 446.273 432.546 445.94C432.2 445.593 431.76 445.42 431.226 445.42C430.693 445.42 430.24 445.593 429.866 445.94C429.506 446.273 429.233 446.84 429.046 447.64C428.86 448.427 428.766 449.493 428.766 450.84C428.766 452.2 428.86 453.273 429.046 454.06C429.233 454.847 429.506 455.413 429.866 455.76C430.226 456.093 430.673 456.26 431.206 456.26ZM442.359 458.2C441.413 458.2 440.573 457.947 439.839 457.44C439.106 456.933 438.526 456.14 438.099 455.06C437.686 453.967 437.479 452.553 437.479 450.82C437.479 449.1 437.686 447.7 438.099 446.62C438.526 445.54 439.106 444.747 439.839 444.24C440.573 443.733 441.413 443.48 442.359 443.48C443.306 443.48 444.139 443.733 444.859 444.24C445.593 444.733 446.159 445.52 446.559 446.6C446.973 447.667 447.179 449.06 447.179 450.78C447.179 452.5 446.973 453.907 446.559 455C446.159 456.093 445.593 456.9 444.859 457.42C444.139 457.94 443.306 458.2 442.359 458.2ZM442.339 456.26C442.873 456.26 443.319 456.093 443.679 455.76C444.039 455.413 444.306 454.847 444.479 454.06C444.666 453.273 444.759 452.2 444.759 450.84C444.759 449.493 444.666 448.427 444.479 447.64C444.306 446.84 444.039 446.273 443.679 445.94C443.333 445.593 442.893 445.42 442.359 445.42C441.826 445.42 441.373 445.593 440.999 445.94C440.639 446.273 440.366 446.84 440.179 447.64C439.993 448.427 439.899 449.493 439.899 450.84C439.899 452.2 439.993 453.273 440.179 454.06C440.366 454.847 440.639 455.413 440.999 455.76C441.359 456.093 441.806 456.26 442.339 456.26Z" fill="black"/>
<path d="M565.794 458H556.534V455.7C557.867 454.66 558.967 453.767 559.834 453.02C560.714 452.26 561.4 451.587 561.894 451C562.4 450.413 562.754 449.873 562.954 449.38C563.167 448.873 563.274 448.353 563.274 447.82C563.274 447.087 563.047 446.513 562.594 446.1C562.154 445.673 561.554 445.46 560.794 445.46C559.447 445.46 558.154 446.067 556.914 447.28V444.98C558.087 443.98 559.46 443.48 561.034 443.48C562.487 443.48 563.634 443.86 564.474 444.62C565.327 445.38 565.754 446.413 565.754 447.72C565.754 448.347 565.647 448.947 565.434 449.52C565.234 450.08 564.88 450.673 564.374 451.3C563.88 451.913 563.2 452.6 562.334 453.36C561.48 454.107 560.4 454.973 559.094 455.96H565.794V458ZM571.446 458.2C570.673 458.2 569.966 458.12 569.326 457.96C568.686 457.8 568.106 457.54 567.586 457.18V454.94C568.213 455.407 568.826 455.74 569.426 455.94C570.04 456.14 570.68 456.24 571.346 456.24C572.293 456.24 573.02 455.96 573.526 455.4C574.033 454.84 574.286 454.133 574.286 453.28C574.286 452.387 574.06 451.713 573.606 451.26C573.166 450.793 572.546 450.56 571.746 450.56C571.226 450.56 570.8 450.647 570.466 450.82C570.146 450.993 569.9 451.18 569.726 451.38H567.926V443.66H576.066V445.72H570.026V449.34C570.266 449.153 570.573 448.993 570.946 448.86C571.32 448.713 571.78 448.64 572.326 448.64C573.633 448.64 574.693 449.033 575.506 449.82C576.32 450.607 576.726 451.733 576.726 453.2C576.726 454.187 576.506 455.06 576.066 455.82C575.626 456.567 575.006 457.153 574.206 457.58C573.42 457.993 572.5 458.2 571.446 458.2ZM583.359 458.2C582.413 458.2 581.573 457.947 580.839 457.44C580.106 456.933 579.526 456.14 579.099 455.06C578.686 453.967 578.479 452.553 578.479 450.82C578.479 449.1 578.686 447.7 579.099 446.62C579.526 445.54 580.106 444.747 580.839 444.24C581.573 443.733 582.413 443.48 583.359 443.48C584.306 443.48 585.139 443.733 585.859 444.24C586.593 444.733 587.159 445.52 587.559 446.6C587.973 447.667 588.179 449.06 588.179 450.78C588.179 452.5 587.973 453.907 587.559 455C587.159 456.093 586.593 456.9 585.859 457.42C585.139 457.94 584.306 458.2 583.359 458.2ZM583.339 456.26C583.873 456.26 584.319 456.093 584.679 455.76C585.039 455.413 585.306 454.847 585.479 454.06C585.666 453.273 585.759 452.2 585.759 450.84C585.759 449.493 585.666 448.427 585.479 447.64C585.306 446.84 585.039 446.273 584.679 445.94C584.333 445.593 583.893 445.42 583.359 445.42C582.826 445.42 582.373 445.593 581.999 445.94C581.639 446.273 581.366 446.84 581.179 447.64C580.993 448.427 580.899 449.493 580.899 450.84C580.899 452.2 580.993 453.273 581.179 454.06C581.366 454.847 581.639 455.413 581.999 455.76C582.359 456.093 582.806 456.26 583.339 456.26Z" fill="black"/>
<path d="M272.247 542.2C271.474 542.2 270.767 542.12 270.127 541.96C269.487 541.8 268.907 541.54 268.387 541.18V538.94C269.014 539.407 269.627 539.74 270.227 539.94C270.841 540.14 271.481 540.24 272.147 540.24C273.094 540.24 273.821 539.96 274.327 539.4C274.834 538.84 275.087 538.133 275.087 537.28C275.087 536.387 274.861 535.713 274.407 535.26C273.967 534.793 273.347 534.56 272.547 534.56C272.027 534.56 271.601 534.647 271.267 534.82C270.947 534.993 270.701 535.18 270.527 535.38H268.727V527.66H276.867V529.72H270.827V533.34C271.067 533.153 271.374 532.993 271.747 532.86C272.121 532.713 272.581 532.64 273.127 532.64C274.434 532.64 275.494 533.033 276.307 533.82C277.121 534.607 277.527 535.733 277.527 537.2C277.527 538.187 277.307 539.06 276.867 539.82C276.427 540.567 275.807 541.153 275.007 541.58C274.221 541.993 273.301 542.2 272.247 542.2ZM284.16 542.2C283.214 542.2 282.374 541.947 281.64 541.44C280.907 540.933 280.327 540.14 279.9 539.06C279.487 537.967 279.28 536.553 279.28 534.82C279.28 533.1 279.487 531.7 279.9 530.62C280.327 529.54 280.907 528.747 281.64 528.24C282.374 527.733 283.214 527.48 284.16 527.48C285.107 527.48 285.94 527.733 286.66 528.24C287.394 528.733 287.96 529.52 288.36 530.6C288.774 531.667 288.98 533.06 288.98 534.78C288.98 536.5 288.774 537.907 288.36 539C287.96 540.093 287.394 540.9 286.66 541.42C285.94 541.94 285.107 542.2 284.16 542.2ZM284.14 540.26C284.674 540.26 285.12 540.093 285.48 539.76C285.84 539.413 286.107 538.847 286.28 538.06C286.467 537.273 286.56 536.2 286.56 534.84C286.56 533.493 286.467 532.427 286.28 531.64C286.107 530.84 285.84 530.273 285.48 529.94C285.134 529.593 284.694 529.42 284.16 529.42C283.627 529.42 283.174 529.593 282.8 529.94C282.44 530.273 282.167 530.84 281.98 531.64C281.794 532.427 281.7 533.493 281.7 534.84C281.7 536.2 281.794 537.273 281.98 538.06C282.167 538.847 282.44 539.413 282.8 539.76C283.16 540.093 283.607 540.26 284.14 540.26ZM295.293 542.2C294.346 542.2 293.506 541.947 292.773 541.44C292.04 540.933 291.46 540.14 291.033 539.06C290.62 537.967 290.413 536.553 290.413 534.82C290.413 533.1 290.62 531.7 291.033 530.62C291.46 529.54 292.04 528.747 292.773 528.24C293.506 527.733 294.346 527.48 295.293 527.48C296.24 527.48 297.073 527.733 297.793 528.24C298.526 528.733 299.093 529.52 299.493 530.6C299.906 531.667 300.113 533.06 300.113 534.78C300.113 536.5 299.906 537.907 299.493 539C299.093 540.093 298.526 540.9 297.793 541.42C297.073 541.94 296.24 542.2 295.293 542.2ZM295.273 540.26C295.806 540.26 296.253 540.093 296.613 539.76C296.973 539.413 297.24 538.847 297.413 538.06C297.6 537.273 297.693 536.2 297.693 534.84C297.693 533.493 297.6 532.427 297.413 531.64C297.24 530.84 296.973 530.273 296.613 529.94C296.266 529.593 295.826 529.42 295.293 529.42C294.76 529.42 294.306 529.593 293.933 529.94C293.573 530.273 293.3 530.84 293.113 531.64C292.926 532.427 292.833 533.493 292.833 534.84C292.833 536.2 292.926 537.273 293.113 538.06C293.3 538.847 293.573 539.413 293.933 539.76C294.293 540.093 294.74 540.26 295.273 540.26ZM306.426 542.2C305.479 542.2 304.639 541.947 303.906 541.44C303.172 540.933 302.592 540.14 302.166 539.06C301.752 537.967 301.546 536.553 301.546 534.82C301.546 533.1 301.752 531.7 302.166 530.62C302.592 529.54 303.172 528.747 303.906 528.24C304.639 527.733 305.479 527.48 306.426 527.48C307.372 527.48 308.206 527.733 308.926 528.24C309.659 528.733 310.226 529.52 310.626 530.6C311.039 531.667 311.246 533.06 311.246 534.78C311.246 536.5 311.039 537.907 310.626 539C310.226 540.093 309.659 540.9 308.926 541.42C308.206 541.94 307.372 542.2 306.426 542.2ZM306.406 540.26C306.939 540.26 307.386 540.093 307.746 539.76C308.106 539.413 308.372 538.847 308.546 538.06C308.732 537.273 308.826 536.2 308.826 534.84C308.826 533.493 308.732 532.427 308.546 531.64C308.372 530.84 308.106 530.273 307.746 529.94C307.399 529.593 306.959 529.42 306.426 529.42C305.892 529.42 305.439 529.593 305.066 529.94C304.706 530.273 304.432 530.84 304.246 531.64C304.059 532.427 303.966 533.493 303.966 534.84C303.966 536.2 304.059 537.273 304.246 538.06C304.432 538.847 304.706 539.413 305.066 539.76C305.426 540.093 305.872 540.26 306.406 540.26Z" fill="black"/>
<path d="M419.314 542.2C418.54 542.2 417.834 542.12 417.194 541.96C416.554 541.8 415.974 541.54 415.454 541.18V538.94C416.08 539.407 416.694 539.74 417.294 539.94C417.907 540.14 418.547 540.24 419.214 540.24C420.16 540.24 420.887 539.96 421.394 539.4C421.9 538.84 422.154 538.133 422.154 537.28C422.154 536.387 421.927 535.713 421.474 535.26C421.034 534.793 420.414 534.56 419.614 534.56C419.094 534.56 418.667 534.647 418.334 534.82C418.014 534.993 417.767 535.18 417.594 535.38H415.794V527.66H423.934V529.72H417.894V533.34C418.134 533.153 418.44 532.993 418.814 532.86C419.187 532.713 419.647 532.64 420.194 532.64C421.5 532.64 422.56 533.033 423.374 533.82C424.187 534.607 424.594 535.733 424.594 537.2C424.594 538.187 424.374 539.06 423.934 539.82C423.494 540.567 422.874 541.153 422.074 541.58C421.287 541.993 420.367 542.2 419.314 542.2ZM431.226 542.2C430.28 542.2 429.44 541.947 428.706 541.44C427.973 540.933 427.393 540.14 426.966 539.06C426.553 537.967 426.346 536.553 426.346 534.82C426.346 533.1 426.553 531.7 426.966 530.62C427.393 529.54 427.973 528.747 428.706 528.24C429.44 527.733 430.28 527.48 431.226 527.48C432.173 527.48 433.006 527.733 433.726 528.24C434.46 528.733 435.026 529.52 435.426 530.6C435.84 531.667 436.046 533.06 436.046 534.78C436.046 536.5 435.84 537.907 435.426 539C435.026 540.093 434.46 540.9 433.726 541.42C433.006 541.94 432.173 542.2 431.226 542.2ZM431.206 540.26C431.74 540.26 432.186 540.093 432.546 539.76C432.906 539.413 433.173 538.847 433.346 538.06C433.533 537.273 433.626 536.2 433.626 534.84C433.626 533.493 433.533 532.427 433.346 531.64C433.173 530.84 432.906 530.273 432.546 529.94C432.2 529.593 431.76 529.42 431.226 529.42C430.693 529.42 430.24 529.593 429.866 529.94C429.506 530.273 429.233 530.84 429.046 531.64C428.86 532.427 428.766 533.493 428.766 534.84C428.766 536.2 428.86 537.273 429.046 538.06C429.233 538.847 429.506 539.413 429.866 539.76C430.226 540.093 430.673 540.26 431.206 540.26ZM442.359 542.2C441.413 542.2 440.573 541.947 439.839 541.44C439.106 540.933 438.526 540.14 438.099 539.06C437.686 537.967 437.479 536.553 437.479 534.82C437.479 533.1 437.686 531.7 438.099 530.62C438.526 529.54 439.106 528.747 439.839 528.24C440.573 527.733 441.413 527.48 442.359 527.48C443.306 527.48 444.139 527.733 444.859 528.24C445.593 528.733 446.159 529.52 446.559 530.6C446.973 531.667 447.179 533.06 447.179 534.78C447.179 536.5 446.973 537.907 446.559 539C446.159 540.093 445.593 540.9 444.859 541.42C444.139 541.94 443.306 542.2 442.359 542.2ZM442.339 540.26C442.873 540.26 443.319 540.093 443.679 539.76C444.039 539.413 444.306 538.847 444.479 538.06C444.666 537.273 444.759 536.2 444.759 534.84C444.759 533.493 444.666 532.427 444.479 531.64C444.306 530.84 444.039 530.273 443.679 529.94C443.333 529.593 442.893 529.42 442.359 529.42C441.826 529.42 441.373 529.593 440.999 529.94C440.639 530.273 440.366 530.84 440.179 531.64C439.993 532.427 439.899 533.493 439.899 534.84C439.899 536.2 439.993 537.273 440.179 538.06C440.366 538.847 440.639 539.413 440.999 539.76C441.359 540.093 441.806 540.26 442.339 540.26Z" fill="black"/>
<path d="M565.794 542H556.534V539.7C557.867 538.66 558.967 537.767 559.834 537.02C560.714 536.26 561.4 535.587 561.894 535C562.4 534.413 562.754 533.873 562.954 533.38C563.167 532.873 563.274 532.353 563.274 531.82C563.274 531.087 563.047 530.513 562.594 530.1C562.154 529.673 561.554 529.46 560.794 529.46C559.447 529.46 558.154 530.067 556.914 531.28V528.98C558.087 527.98 559.46 527.48 561.034 527.48C562.487 527.48 563.634 527.86 564.474 528.62C565.327 529.38 565.754 530.413 565.754 531.72C565.754 532.347 565.647 532.947 565.434 533.52C565.234 534.08 564.88 534.673 564.374 535.3C563.88 535.913 563.2 536.6 562.334 537.36C561.48 538.107 560.4 538.973 559.094 539.96H565.794V542ZM571.446 542.2C570.673 542.2 569.966 542.12 569.326 541.96C568.686 541.8 568.106 541.54 567.586 541.18V538.94C568.213 539.407 568.826 539.74 569.426 539.94C570.04 540.14 570.68 540.24 571.346 540.24C572.293 540.24 573.02 539.96 573.526 539.4C574.033 538.84 574.286 538.133 574.286 537.28C574.286 536.387 574.06 535.713 573.606 535.26C573.166 534.793 572.546 534.56 571.746 534.56C571.226 534.56 570.8 534.647 570.466 534.82C570.146 534.993 569.9 535.18 569.726 535.38H567.926V527.66H576.066V529.72H570.026V533.34C570.266 533.153 570.573 532.993 570.946 532.86C571.32 532.713 571.78 532.64 572.326 532.64C573.633 532.64 574.693 533.033 575.506 533.82C576.32 534.607 576.726 535.733 576.726 537.2C576.726 538.187 576.506 539.06 576.066 539.82C575.626 540.567 575.006 541.153 574.206 541.58C573.42 541.993 572.5 542.2 571.446 542.2ZM583.359 542.2C582.413 542.2 581.573 541.947 580.839 541.44C580.106 540.933 579.526 540.14 579.099 539.06C578.686 537.967 578.479 536.553 578.479 534.82C578.479 533.1 578.686 531.7 579.099 530.62C579.526 529.54 580.106 528.747 580.839 528.24C581.573 527.733 582.413 527.48 583.359 527.48C584.306 527.48 585.139 527.733 585.859 528.24C586.593 528.733 587.159 529.52 587.559 530.6C587.973 531.667 588.179 533.06 588.179 534.78C588.179 536.5 587.973 537.907 587.559 539C587.159 540.093 586.593 540.9 585.859 541.42C585.139 541.94 584.306 542.2 583.359 542.2ZM583.339 540.26C583.873 540.26 584.319 540.093 584.679 539.76C585.039 539.413 585.306 538.847 585.479 538.06C585.666 537.273 585.759 536.2 585.759 534.84C585.759 533.493 585.666 532.427 585.479 531.64C585.306 530.84 585.039 530.273 584.679 529.94C584.333 529.593 583.893 529.42 583.359 529.42C582.826 529.42 582.373 529.593 581.999 529.94C581.639 530.273 581.366 530.84 581.179 531.64C580.993 532.427 580.899 533.493 580.899 534.84C580.899 536.2 580.993 537.273 581.179 538.06C581.366 538.847 581.639 539.413 581.999 539.76C582.359 540.093 582.806 540.26 583.339 540.26Z" fill="black"/>
</g>
<g filter="url(#filter1_i_47_1095)">
<rect width="76.31" height="76.3102" rx="15.262" transform="matrix(0.718354 -0.732306 0 1 772.322 117.789)" fill="white" fill-opacity="0.3"/>
<rect width="76.31" height="76.3102" rx="15.262" transform="matrix(0.718354 -0.732306 0 1 711.757 179.53)" fill="white" fill-opacity="0.3"/>
<rect width="76.31" height="76.3102" rx="15.262" transform="matrix(0.718354 -0.732306 0 1 651.193 241.27)" fill="white" fill-opacity="0.3"/>
<rect width="76.31" height="76.3102" rx="15.262" transform="matrix(0.718354 -0.732306 0 1 651.193 325.58)" fill="white" fill-opacity="0.3"/>
<rect width="76.31" height="76.3102" rx="15.262" transform="matrix(0.718354 -0.732306 0 1 711.757 263.84)" fill="white" fill-opacity="0.3"/>
<rect width="76.31" height="76.3102" rx="15.262" transform="matrix(0.718354 -0.732306 0 1 772.322 202.099)" fill="white" fill-opacity="0.3"/>
<rect width="76.31" height="76.3102" rx="15.262" transform="matrix(0.718354 -0.732306 0 1 651.193 409.891)" fill="white" fill-opacity="0.3"/>
<rect width="76.31" height="76.3102" rx="15.262" transform="matrix(0.718354 -0.732306 0 1 711.757 348.15)" fill="white" fill-opacity="0.3"/>
<rect width="76.31" height="76.3102" rx="15.262" transform="matrix(0.718354 -0.732306 0 1 772.322 286.409)" fill="white" fill-opacity="0.3"/>
<rect width="76.31" height="76.3102" rx="15.262" transform="matrix(0.718354 -0.732306 0 1 651.193 494.201)" fill="white" fill-opacity="0.3"/>
<rect width="76.31" height="76.3102" rx="15.262" transform="matrix(0.718354 -0.732306 0 1 711.757 432.46)" fill="white" fill-opacity="0.3"/>
<rect width="76.31" height="76.3102" rx="15.262" transform="matrix(0.718354 -0.732306 0 1 772.322 370.719)" fill="white" fill-opacity="0.3"/>
</g>
<g filter="url(#filter2_i_47_1095)">
<rect width="133.543" height="76.3102" rx="15.262" transform="matrix(1 0 -0.732306 0.718354 539.171 58)" fill="#DEE7FF" fill-opacity="0.9"/>
<rect width="133.543" height="76.3102" rx="15.262" transform="matrix(1 0 -0.732306 0.718354 680.345 58)" fill="#DEE7FF" fill-opacity="0.9"/>
<rect width="133.543" height="76.3102" rx="15.262" transform="matrix(1 0 -0.732306 0.718354 397.997 58)" fill="#DEE7FF" fill-opacity="0.9"/>
<rect width="133.543" height="76.3102" rx="15.262" transform="matrix(1 0 -0.732306 0.718354 256.823 58)" fill="#DEE7FF" fill-opacity="0.9"/>
<rect width="133.543" height="76.3102" rx="15.262" transform="matrix(1 0 -0.732306 0.718354 195.353 118.299)" fill="#DEE7FF" fill-opacity="0.9"/>
<rect width="133.543" height="76.3102" rx="15.262" transform="matrix(1 0 -0.732306 0.718354 336.526 118.299)" fill="#DEE7FF" fill-opacity="0.9"/>
<rect width="133.543" height="76.3102" rx="15.262" transform="matrix(1 0 -0.732306 0.718354 477.7 118.299)" fill="#DEE7FF" fill-opacity="0.9"/>
<rect width="133.543" height="76.3102" rx="15.262" transform="matrix(1 0 -0.732306 0.718354 618.875 118.299)" fill="#DEE7FF" fill-opacity="0.9"/>
<rect width="133.543" height="76.3102" rx="15.262" transform="matrix(1 0 -0.732306 0.718354 275.056 178.599)" fill="#DEE7FF" fill-opacity="0.9"/>
<rect width="133.543" height="76.3102" rx="15.262" transform="matrix(1 0 -0.732306 0.718354 416.23 178.599)" fill="#DEE7FF" fill-opacity="0.9"/>
<rect width="133.543" height="76.3102" rx="15.262" transform="matrix(1 0 -0.732306 0.718354 557.404 178.599)" fill="#DEE7FF" fill-opacity="0.9"/>
<path d="M276.101 88.0416H275.241L277.861 81.7632L269.864 89.6076H267.664L278.166 79.3064H281.406L278.399 86.1595L289.646 79.3064H292.646L282.144 89.6076H279.684L287.564 81.8781L277.435 88.0272H276.115L276.101 88.0416ZM295.043 83.3867C293.897 83.3867 292.502 83.6165 290.86 84.0763L292.281 82.6827C292.993 82.4815 293.759 82.3187 294.579 82.1942C295.399 82.0697 296.149 82.0074 296.829 82.0074C298.163 82.0074 298.984 82.2086 299.294 82.6109C299.617 83.0131 299.34 83.6453 298.461 84.5073L294.492 88.4008C294.326 88.5636 294.118 88.7743 293.867 89.0329C293.64 89.282 293.472 89.4735 293.361 89.6076H291.201C291.298 89.4735 291.449 89.2868 291.653 89.0473C291.88 88.7983 292.086 88.5828 292.272 88.4008L292.34 88.3146C291.959 88.5445 291.516 88.7695 291.011 88.9898C290.52 89.2101 289.988 89.3921 289.415 89.5358C288.842 89.6795 288.235 89.7513 287.595 89.7513C286.702 89.7513 286.127 89.5693 285.872 89.2053C285.639 88.8318 285.884 88.2906 286.607 87.5819C287.427 86.7773 288.467 86.1691 289.727 85.7572C290.986 85.3454 292.383 85.1395 293.916 85.1395H295.496L295.965 84.6797C296.453 84.2008 296.622 83.8656 296.47 83.674C296.319 83.4825 295.843 83.3867 295.043 83.3867ZM293.871 86.7342L294.383 86.2314H292.943C292.01 86.2314 291.223 86.3367 290.581 86.5474C289.963 86.7486 289.463 87.0359 289.082 87.4095C288.75 87.7351 288.613 87.9937 288.671 88.1853C288.753 88.3673 289.046 88.4583 289.553 88.4583C290.046 88.4583 290.533 88.3864 291.013 88.2427C291.502 88.0895 291.943 87.9123 292.335 87.7112C292.74 87.51 293.075 87.3185 293.341 87.1365C293.616 86.9449 293.793 86.8108 293.871 86.7342ZM303.365 82.1511H305.485L304.283 83.4872C305.076 83.0371 305.895 82.6779 306.742 82.4097C307.602 82.1415 308.445 82.0074 309.272 82.0074C310.085 82.0074 310.692 82.1511 311.093 82.4384C311.503 82.7162 311.622 83.1424 311.449 83.7171C311.3 84.2822 310.781 85.0006 309.892 85.8722C309.004 86.7438 308.053 87.4669 307.041 88.0416C306.041 88.6163 305.042 89.0473 304.042 89.3346C303.066 89.6124 302.164 89.7513 301.338 89.7513C300.551 89.7513 299.998 89.6268 299.678 89.3777C299.382 89.1191 299.28 88.7743 299.373 88.3433L295.492 92.1506H293.172L303.365 82.1511ZM307.512 85.8722C308.352 85.0485 308.722 84.4307 308.621 84.0188C308.544 83.5974 308.099 83.3867 307.286 83.3867C306.473 83.3867 305.576 83.5926 304.596 84.0045C303.63 84.4163 302.722 85.0389 301.872 85.8722C301.013 86.715 300.647 87.3424 300.773 87.7543C300.923 88.1565 301.398 88.3577 302.198 88.3577C303.012 88.3577 303.888 88.1518 304.828 87.7399C305.768 87.328 306.663 86.7055 307.512 85.8722ZM314.616 82.1511H323.276L321.899 83.5016H318.679L312.454 89.6076H310.154L316.379 83.5016H313.239L314.616 82.1511Z" fill="black"/>
<path d="M196.603 144.82C195.969 145.443 195.628 145.941 195.58 146.315C195.533 146.688 195.714 146.961 196.125 147.133C196.536 147.306 197.092 147.402 197.792 147.421L203.094 142.22C202.345 142.249 201.589 142.349 200.827 142.522C200.074 142.684 199.341 142.953 198.627 143.326C197.912 143.7 197.238 144.198 196.603 144.82ZM206.689 144.835C207.333 144.203 207.679 143.7 207.727 143.326C207.774 142.953 207.587 142.684 207.167 142.522C206.769 142.349 206.213 142.253 205.5 142.234L200.212 147.421C200.965 147.402 201.716 147.306 202.465 147.133C203.228 146.961 203.961 146.693 204.666 146.329C205.38 145.955 206.054 145.457 206.689 144.835ZM205.833 139.533H208.253L206.876 140.884C208.057 140.903 208.969 141.061 209.613 141.358C210.27 141.655 210.579 142.091 210.54 142.665C210.514 143.24 210.067 143.954 209.198 144.806C208.329 145.658 207.317 146.377 206.161 146.961C205.029 147.536 203.826 147.976 202.554 148.283C201.304 148.58 200.065 148.743 198.836 148.771L197.488 150.093H195.068L196.416 148.771C195.245 148.743 194.331 148.58 193.674 148.283C193.03 147.986 192.716 147.555 192.732 146.99C192.771 146.415 193.225 145.702 194.094 144.849C194.963 143.997 195.964 143.283 197.096 142.708C198.252 142.124 199.459 141.679 200.718 141.372C201.991 141.066 203.237 140.903 204.456 140.884L205.833 139.533ZM210.853 150.093C208.96 150.093 207.886 149.753 207.633 149.073C207.389 148.383 207.888 147.43 209.128 146.214C209.948 145.409 210.871 144.72 211.897 144.145C212.932 143.561 213.993 143.115 215.079 142.809C216.164 142.502 217.201 142.349 218.187 142.349C219.854 142.349 220.685 142.737 220.681 143.513C220.69 144.289 219.876 145.342 218.239 146.674H211.059C210.459 147.354 210.25 147.866 210.432 148.211C210.637 148.546 211.299 148.714 212.419 148.714C213.659 148.714 215.053 148.484 216.602 148.024L215.196 149.403C213.714 149.863 212.266 150.093 210.853 150.093ZM216.84 143.671C216.16 143.671 215.424 143.824 214.631 144.131C213.862 144.428 213.106 144.868 212.364 145.453H217.264C217.876 144.878 218.145 144.437 218.071 144.131C217.997 143.824 217.587 143.671 216.84 143.671ZM221.214 149.949H217.014L224.616 142.493H228.856C231.482 142.493 232.161 143.115 230.892 144.361C230.423 144.82 229.872 145.184 229.238 145.453C228.605 145.721 227.885 145.917 227.078 146.042C227.83 146.128 228.266 146.315 228.387 146.602C228.507 146.889 228.299 147.296 227.762 147.823C227.01 148.561 226.058 149.102 224.907 149.447C223.765 149.782 222.534 149.949 221.214 149.949ZM227.432 143.772H225.612L223.811 145.539H225.511C226.071 145.539 226.597 145.467 227.09 145.323C227.593 145.17 227.991 144.95 228.284 144.662C228.636 144.318 228.721 144.083 228.542 143.958C228.362 143.834 227.992 143.772 227.432 143.772ZM224.33 146.717H222.61L220.618 148.671H222.398C223.038 148.671 223.615 148.608 224.128 148.484C224.665 148.35 225.124 148.096 225.504 147.723C225.875 147.359 225.959 147.1 225.755 146.947C225.552 146.793 225.076 146.717 224.33 146.717ZM235.475 142.493H237.595L236.393 143.829C237.185 143.379 238.005 143.02 238.851 142.752C239.711 142.483 240.555 142.349 241.381 142.349C242.195 142.349 242.802 142.493 243.202 142.78C243.612 143.058 243.731 143.484 243.559 144.059C243.409 144.624 242.89 145.342 242.002 146.214C241.113 147.086 240.163 147.809 239.15 148.383C238.151 148.958 237.151 149.389 236.152 149.676C235.175 149.954 234.274 150.093 233.447 150.093C232.66 150.093 232.107 149.969 231.788 149.72C231.492 149.461 231.39 149.116 231.482 148.685L227.601 152.492H225.281L235.475 142.493ZM239.622 146.214C240.461 145.39 240.831 144.772 240.731 144.361C240.654 143.939 240.209 143.728 239.395 143.728C238.582 143.728 237.685 143.934 236.706 144.346C235.739 144.758 234.831 145.381 233.982 146.214C233.122 147.057 232.756 147.684 232.883 148.096C233.033 148.498 233.508 148.699 234.308 148.699C235.121 148.699 235.998 148.494 236.938 148.082C237.877 147.67 238.772 147.047 239.622 146.214ZM250.043 143.728C248.897 143.728 247.502 143.958 245.86 144.418L247.281 143.024C247.993 142.823 248.759 142.661 249.579 142.536C250.399 142.411 251.149 142.349 251.829 142.349C253.163 142.349 253.984 142.55 254.294 142.953C254.617 143.355 254.34 143.987 253.461 144.849L249.492 148.743C249.326 148.905 249.118 149.116 248.867 149.375C248.64 149.624 248.472 149.815 248.362 149.949H246.202C246.298 149.815 246.449 149.629 246.653 149.389C246.88 149.14 247.086 148.925 247.272 148.743L247.34 148.656C246.959 148.886 246.516 149.111 246.011 149.332C245.52 149.552 244.988 149.734 244.415 149.878C243.842 150.021 243.235 150.093 242.595 150.093C241.702 150.093 241.127 149.911 240.872 149.547C240.639 149.174 240.884 148.632 241.607 147.924C242.427 147.119 243.467 146.511 244.727 146.099C245.987 145.687 247.383 145.481 248.917 145.481H250.497L250.965 145.022C251.453 144.543 251.622 144.207 251.47 144.016C251.319 143.824 250.843 143.728 250.043 143.728ZM248.871 147.076L249.383 146.573H247.943C247.01 146.573 246.223 146.679 245.581 146.889C244.963 147.09 244.463 147.378 244.082 147.751C243.75 148.077 243.614 148.336 243.672 148.527C243.753 148.709 244.047 148.8 244.553 148.8C245.047 148.8 245.533 148.728 246.013 148.585C246.503 148.431 246.943 148.254 247.335 148.053C247.74 147.852 248.075 147.66 248.341 147.478C248.616 147.287 248.793 147.153 248.871 147.076ZM251.531 148.412C251.913 148.47 252.325 148.412 252.767 148.24C253.233 148.058 253.763 147.746 254.359 147.306C254.713 147.038 255.121 146.702 255.584 146.3C256.048 145.898 256.605 145.39 257.257 144.777C257.908 144.164 258.698 143.403 259.626 142.493H267.086L259.484 149.949H257.164L263.389 143.843H260.369C259.356 144.811 258.499 145.606 257.798 146.228C257.096 146.851 256.454 147.382 255.872 147.823C254.756 148.656 253.722 149.245 252.77 149.59C251.842 149.925 250.902 150.05 249.95 149.964L251.531 148.412ZM271.994 142.493L269.533 144.907H271.273C272.62 144.907 273.463 145.112 273.803 145.524C274.153 145.927 273.904 146.544 273.054 147.378C272.458 147.962 271.779 148.446 271.015 148.829C270.261 149.202 269.453 149.485 268.591 149.676C267.752 149.858 266.912 149.949 266.072 149.949H262.072L269.674 142.493H271.994ZM267.225 148.642C267.865 148.642 268.478 148.551 269.063 148.369C269.659 148.177 270.171 147.871 270.601 147.45C271.04 147.019 271.178 146.707 271.013 146.516C270.848 146.324 270.426 146.228 269.746 146.228H268.186L265.725 148.642H267.225Z" fill="black"/>
<rect width="133.543" height="76.3102" rx="15.262" transform="matrix(1 0 -0.732306 0.718354 133.882 178.599)" fill="#DEE7FF" fill-opacity="0.9"/>
<path d="M142.329 203.222C143.061 202.504 143.898 201.906 144.84 201.427C145.795 200.948 146.801 200.589 147.858 200.349C148.929 200.11 150.011 199.99 151.104 199.99H155.784L145.283 210.291H142.843L146.885 206.326H144.645L136.963 210.291H134.143L142.474 206.082C141.643 205.89 141.218 205.555 141.2 205.076C141.191 204.587 141.567 203.97 142.329 203.222ZM145.905 204.875H148.365L151.806 201.498H149.546C148.653 201.498 147.801 201.628 146.991 201.886C146.19 202.135 145.473 202.571 144.838 203.194C144.233 203.788 144.033 204.219 144.24 204.487C144.47 204.745 145.025 204.875 145.905 204.875ZM158.029 202.835L155.012 205.794H159.372L162.389 202.835H164.729L157.128 210.291H154.788L157.995 207.145H153.635L150.428 210.291H148.108L155.709 202.835H158.029ZM163.929 210.291H159.729L167.33 202.835H171.57C174.197 202.835 174.876 203.457 173.606 204.702C173.138 205.162 172.587 205.526 171.953 205.794C171.32 206.062 170.6 206.259 169.793 206.383C170.545 206.469 170.981 206.656 171.102 206.944C171.222 207.231 171.014 207.638 170.477 208.165C169.725 208.902 168.773 209.443 167.622 209.788C166.48 210.123 165.249 210.291 163.929 210.291ZM170.147 204.113H168.327L166.525 205.88H168.225C168.785 205.88 169.312 205.809 169.805 205.665C170.308 205.512 170.706 205.291 170.999 205.004C171.35 204.659 171.436 204.425 171.257 204.3C171.077 204.176 170.707 204.113 170.147 204.113ZM167.044 207.058H165.324L163.333 209.012H165.113C165.753 209.012 166.329 208.95 166.843 208.826C167.38 208.692 167.838 208.438 168.219 208.064C168.59 207.7 168.674 207.442 168.47 207.288C168.266 207.135 167.791 207.058 167.044 207.058ZM180.59 204.07C179.444 204.07 178.049 204.3 176.407 204.76L177.828 203.366C178.54 203.165 179.306 203.002 180.126 202.878C180.946 202.753 181.696 202.691 182.376 202.691C183.71 202.691 184.531 202.892 184.841 203.294C185.164 203.697 184.887 204.329 184.008 205.191L180.039 209.084C179.873 209.247 179.665 209.458 179.414 209.716C179.187 209.965 179.018 210.157 178.908 210.291H176.748C176.845 210.157 176.996 209.97 177.2 209.731C177.427 209.482 177.633 209.266 177.819 209.084L177.887 208.998C177.506 209.228 177.063 209.453 176.558 209.673C176.067 209.894 175.535 210.076 174.962 210.219C174.389 210.363 173.782 210.435 173.142 210.435C172.249 210.435 171.674 210.253 171.419 209.889C171.186 209.515 171.431 208.974 172.154 208.265C172.974 207.461 174.014 206.853 175.274 206.441C176.533 206.029 177.93 205.823 179.463 205.823H181.043L181.512 205.363C182 204.884 182.169 204.549 182.017 204.357C181.866 204.166 181.39 204.07 180.59 204.07ZM179.418 207.418L179.93 206.915H178.49C177.557 206.915 176.77 207.02 176.128 207.231C175.51 207.432 175.01 207.719 174.629 208.093C174.297 208.419 174.16 208.677 174.218 208.869C174.3 209.051 174.593 209.142 175.1 209.142C175.593 209.142 176.08 209.07 176.56 208.926C177.049 208.773 177.49 208.596 177.882 208.395C178.287 208.193 178.622 208.002 178.888 207.82C179.163 207.628 179.34 207.494 179.418 207.418ZM188.912 202.835H191.032L189.83 204.171C190.623 203.721 191.442 203.361 192.289 203.093C193.149 202.825 193.992 202.691 194.819 202.691C195.632 202.691 196.239 202.835 196.64 203.122C197.05 203.4 197.169 203.826 196.996 204.401C196.847 204.966 196.328 205.684 195.439 206.556C194.551 207.427 193.6 208.15 192.588 208.725C191.588 209.3 190.589 209.731 189.589 210.018C188.613 210.296 187.711 210.435 186.885 210.435C186.098 210.435 185.545 210.31 185.225 210.061C184.929 209.803 184.827 209.458 184.92 209.027L181.039 212.834H178.719L188.912 202.835ZM193.059 206.556C193.899 205.732 194.269 205.114 194.168 204.702C194.091 204.281 193.646 204.07 192.833 204.07C192.02 204.07 191.123 204.276 190.143 204.688C189.177 205.1 188.269 205.722 187.419 206.556C186.56 207.399 186.194 208.026 186.32 208.438C186.47 208.84 186.945 209.041 187.745 209.041C188.559 209.041 189.435 208.835 190.375 208.423C191.315 208.012 192.21 207.389 193.059 206.556ZM203.478 202.835L201.018 205.248H202.758C204.104 205.248 204.948 205.454 205.288 205.866C205.638 206.268 205.388 206.886 204.538 207.719C203.943 208.304 203.263 208.787 202.499 209.17C201.745 209.544 200.937 209.827 200.075 210.018C199.236 210.2 198.397 210.291 197.557 210.291H193.557L201.158 202.835H203.478ZM198.71 208.984C199.35 208.984 199.962 208.893 200.548 208.711C201.143 208.519 201.656 208.213 202.085 207.791C202.525 207.36 202.662 207.049 202.497 206.857C202.332 206.666 201.91 206.57 201.23 206.57H199.67L197.21 208.984H198.71Z" fill="black"/>
</g>
<defs>
<filter id="filter0_i_47_1095" x="82.1608" y="246.27" width="557.064" height="328.134" filterUnits="userSpaceOnUse" color-interpolation-filters="sRGB">
<feFlood flood-opacity="0" result="BackgroundImageFix"/>
<feBlend mode="normal" in="SourceGraphic" in2="BackgroundImageFix" result="shape"/>
<feColorMatrix in="SourceAlpha" type="matrix" values="0 0 0 0 0 0 0 0 0 0 0 0 0 0 0 0 0 0 127 0" result="hardAlpha"/>
<feOffset/>
<feGaussianBlur stdDeviation="10"/>
<feComposite in2="hardAlpha" operator="arithmetic" k2="-1" k3="1"/>
<feColorMatrix type="matrix" values="0 0 0 0 1 0 0 0 0 1 0 0 0 0 1 0 0 0 0.8 0"/>
<feBlend mode="normal" in2="shape" result="effect1_innerShadow_47_1095"/>
</filter>
<filter id="filter1_i_47_1095" x="651.193" y="69.427" width="175.947" height="493.563" filterUnits="userSpaceOnUse" color-interpolation-filters="sRGB">
<feFlood flood-opacity="0" result="BackgroundImageFix"/>
<feBlend mode="normal" in="SourceGraphic" in2="BackgroundImageFix" result="shape"/>
<feColorMatrix in="SourceAlpha" type="matrix" values="0 0 0 0 0 0 0 0 0 0 0 0 0 0 0 0 0 0 127 0" result="hardAlpha"/>
<feOffset/>
<feGaussianBlur stdDeviation="10"/>
<feComposite in2="hardAlpha" operator="arithmetic" k2="-1" k3="1"/>
<feColorMatrix type="matrix" values="0 0 0 0 1 0 0 0 0 1 0 0 0 0 1 0 0 0 0.8 0"/>
<feBlend mode="normal" in2="shape" result="effect1_innerShadow_47_1095"/>
</filter>
<filter id="filter2_i_47_1095" x="85.5205" y="58" width="720.847" height="175.417" filterUnits="userSpaceOnUse" color-interpolation-filters="sRGB">
<feFlood flood-opacity="0" result="BackgroundImageFix"/>
<feBlend mode="normal" in="SourceGraphic" in2="BackgroundImageFix" result="shape"/>
<feColorMatrix in="SourceAlpha" type="matrix" values="0 0 0 0 0 0 0 0 0 0 0 0 0 0 0 0 0 0 127 0" result="hardAlpha"/>
<feOffset/>
<feGaussianBlur stdDeviation="10"/>
<feComposite in2="hardAlpha" operator="arithmetic" k2="-1" k3="1"/>
<feColorMatrix type="matrix" values="0 0 0 0 1 0 0 0 0 1 0 0 0 0 1 0 0 0 0.8 0"/>
<feBlend mode="normal" in2="shape" result="effect1_innerShadow_47_1095"/>
</filter>
</defs>
</svg>
