<svg width="700" height="230" viewBox="0 0 700 230" fill="none" xmlns="http://www.w3.org/2000/svg">
<g filter="url(#filter0_d_5_84)">
<rect x="16" y="26" width="668" height="179" rx="5" fill="white"/>
</g>
<rect x="27" y="71" width="38" height="38" rx="4" fill="white" stroke="#67B0F8" stroke-width="2"/>
<path d="M49.3193 91.5465C49.3193 92.0132 49.2307 92.4332 49.0533 92.8065C48.876 93.1798 48.6287 93.5018 48.3113 93.7725C47.994 94.0338 47.616 94.2345 47.1773 94.3745C46.7387 94.5145 46.2533 94.5845 45.7213 94.5845C45.068 94.5845 44.5033 94.5052 44.0273 94.3465C43.5513 94.1878 43.164 93.9825 42.8653 93.7305V92.3305C43.164 92.6292 43.556 92.8905 44.0413 93.1145C44.5267 93.3292 45.0913 93.4365 45.7353 93.4365C46.426 93.4365 46.9673 93.2732 47.3593 92.9465C47.7607 92.6198 47.9613 92.1625 47.9613 91.5745C47.9613 91.0145 47.784 90.5805 47.4293 90.2725C47.0747 89.9552 46.5193 89.7965 45.7633 89.7965H44.4753V88.6065H45.8193C46.3513 88.6065 46.7807 88.4665 47.1073 88.1865C47.434 87.9065 47.5973 87.5005 47.5973 86.9685C47.5973 86.4925 47.4433 86.1192 47.1353 85.8485C46.8273 85.5685 46.384 85.4285 45.8053 85.4285C45.208 85.4285 44.6947 85.5405 44.2653 85.7645C43.8453 85.9885 43.4627 86.2498 43.1173 86.5485V85.1765C43.444 84.9058 43.8313 84.6865 44.2793 84.5185C44.7273 84.3505 45.2407 84.2665 45.8193 84.2665C46.2953 84.2665 46.7247 84.3318 47.1073 84.4625C47.49 84.5838 47.812 84.7612 48.0733 84.9945C48.344 85.2278 48.5493 85.5078 48.6893 85.8345C48.8293 86.1518 48.8993 86.5065 48.8993 86.8985C48.8993 87.2158 48.8527 87.5005 48.7593 87.7525C48.666 88.0045 48.5353 88.2238 48.3673 88.4105C48.2087 88.5972 48.022 88.7558 47.8073 88.8865C47.5927 89.0078 47.364 89.0965 47.1213 89.1525C47.4107 89.1992 47.686 89.2878 47.9473 89.4185C48.218 89.5492 48.456 89.7172 48.6613 89.9225C48.8667 90.1185 49.0253 90.3565 49.1373 90.6365C49.2587 90.9072 49.3193 91.2105 49.3193 91.5465Z" fill="#18123D"/>
<rect x="85" y="71" width="38" height="38" rx="4" fill="white" stroke="#67B0F8" stroke-width="2"/>
<path d="M107.235 94.4445H100.837V93.1145C101.687 92.4332 102.419 91.8265 103.035 91.2945C103.661 90.7625 104.174 90.2725 104.575 89.8245C104.977 89.3765 105.275 88.9518 105.471 88.5505C105.667 88.1398 105.765 87.7152 105.765 87.2765C105.765 86.7258 105.597 86.2825 105.261 85.9465C104.935 85.6012 104.454 85.4285 103.819 85.4285C103.287 85.4285 102.793 85.5592 102.335 85.8205C101.878 86.0818 101.467 86.4132 101.103 86.8145V85.4005C101.458 85.0552 101.859 84.7798 102.307 84.5745C102.755 84.3692 103.273 84.2665 103.861 84.2665C104.384 84.2665 104.846 84.3365 105.247 84.4765C105.658 84.6165 105.999 84.8125 106.269 85.0645C106.549 85.3165 106.759 85.6198 106.899 85.9745C107.049 86.3292 107.123 86.7212 107.123 87.1505C107.123 87.6918 107.016 88.2005 106.801 88.6765C106.596 89.1525 106.288 89.6285 105.877 90.1045C105.467 90.5805 104.958 91.0752 104.351 91.5885C103.754 92.0925 103.068 92.6432 102.293 93.2405H107.235V94.4445Z" fill="#18123D"/>
<rect x="143" y="71" width="38" height="38" rx="4" fill="white" stroke="#67B0F8" stroke-width="2"/>
<path d="M163.359 94.4445H162.085V85.9885L159.313 88.1165V86.7025L162.295 84.4065H163.359V94.4445Z" fill="#18123D"/>
<rect x="26" y="133" width="156" height="60" rx="5" fill="#E3EBFF"/>
<path d="M77.9105 168.14C77.2385 168.14 76.6085 168.028 76.0205 167.804C75.4325 167.571 74.9238 167.235 74.4945 166.796C74.0652 166.357 73.7245 165.816 73.4725 165.172C73.2298 164.528 73.1085 163.786 73.1085 162.946C73.1085 162.106 73.2298 161.369 73.4725 160.734C73.7245 160.09 74.0652 159.558 74.4945 159.138C74.9238 158.709 75.4325 158.387 76.0205 158.172C76.6085 157.948 77.2385 157.836 77.9105 157.836C78.5918 157.836 79.2265 157.948 79.8145 158.172C80.4025 158.387 80.9112 158.709 81.3405 159.138C81.7698 159.567 82.1058 160.104 82.3485 160.748C82.5912 161.383 82.7125 162.12 82.7125 162.96C82.7125 163.791 82.5912 164.528 82.3485 165.172C82.1058 165.816 81.7698 166.357 81.3405 166.796C80.9112 167.235 80.4025 167.571 79.8145 167.804C79.2265 168.028 78.5918 168.14 77.9105 168.14ZM77.9105 166.95C78.3958 166.95 78.8438 166.88 79.2545 166.74C79.6652 166.591 80.0198 166.362 80.3185 166.054C80.6265 165.737 80.8645 165.326 81.0325 164.822C81.2098 164.318 81.2985 163.707 81.2985 162.988C81.2985 162.269 81.2098 161.658 81.0325 161.154C80.8645 160.65 80.6265 160.244 80.3185 159.936C80.0198 159.619 79.6652 159.39 79.2545 159.25C78.8438 159.101 78.3958 159.026 77.9105 159.026C77.4252 159.026 76.9772 159.101 76.5665 159.25C76.1558 159.39 75.7965 159.619 75.4885 159.936C75.1898 160.244 74.9518 160.65 74.7745 161.154C74.6065 161.658 74.5225 162.269 74.5225 162.988C74.5225 163.707 74.6065 164.318 74.7745 164.822C74.9518 165.326 75.1898 165.737 75.4885 166.054C75.7965 166.362 76.1558 166.591 76.5665 166.74C76.9772 166.88 77.4252 166.95 77.9105 166.95ZM87.2279 161.784V168H85.9959V161.784H83.7139V160.734H89.5519V161.784H87.2279ZM90.9738 160.734H96.7978V168H95.5658V161.784H92.2058V168H90.9738V160.734ZM102.462 168.14C101.902 168.14 101.416 168.009 101.006 167.748C100.604 167.487 100.282 167.127 100.04 166.67V170.478H98.8078V160.734H99.8858L100.012 162.148C100.254 161.672 100.581 161.294 100.992 161.014C101.402 160.734 101.911 160.594 102.518 160.594C102.938 160.594 103.339 160.673 103.722 160.832C104.114 160.981 104.454 161.215 104.744 161.532C105.042 161.84 105.276 162.232 105.444 162.708C105.621 163.175 105.71 163.725 105.71 164.36C105.71 165.004 105.621 165.564 105.444 166.04C105.266 166.507 105.028 166.899 104.73 167.216C104.431 167.524 104.086 167.757 103.694 167.916C103.302 168.065 102.891 168.14 102.462 168.14ZM102.28 167.034C102.924 167.034 103.442 166.815 103.834 166.376C104.235 165.928 104.436 165.256 104.436 164.36C104.436 163.483 104.235 162.82 103.834 162.372C103.442 161.915 102.924 161.686 102.28 161.686C101.962 161.686 101.664 161.742 101.384 161.854C101.113 161.966 100.875 162.134 100.67 162.358C100.474 162.573 100.315 162.848 100.194 163.184C100.082 163.52 100.026 163.912 100.026 164.36C100.026 164.808 100.082 165.2 100.194 165.536C100.315 165.872 100.474 166.152 100.67 166.376C100.875 166.6 101.113 166.768 101.384 166.88C101.664 166.983 101.962 167.034 102.28 167.034ZM111.39 166.614C111.306 166.782 111.199 166.959 111.068 167.146C110.937 167.323 110.774 167.487 110.578 167.636C110.382 167.785 110.149 167.907 109.878 168C109.617 168.093 109.309 168.14 108.954 168.14C108.301 168.14 107.773 167.958 107.372 167.594C106.971 167.221 106.77 166.689 106.77 165.998C106.77 165.205 107.045 164.621 107.596 164.248C108.156 163.875 108.949 163.688 109.976 163.688H111.334V163.086C111.334 162.582 111.203 162.223 110.942 162.008C110.681 161.793 110.233 161.686 109.598 161.686C109.15 161.686 108.725 161.761 108.324 161.91C107.923 162.05 107.563 162.213 107.246 162.4V161.294C107.507 161.135 107.857 160.981 108.296 160.832C108.744 160.673 109.234 160.594 109.766 160.594C110.681 160.594 111.376 160.785 111.852 161.168C112.328 161.541 112.566 162.125 112.566 162.918V166.824C112.566 166.908 112.566 167.006 112.566 167.118C112.575 167.221 112.58 167.328 112.58 167.44C112.589 167.552 112.599 167.659 112.608 167.762C112.617 167.855 112.627 167.935 112.636 168H111.516C111.488 167.869 111.46 167.687 111.432 167.454C111.413 167.211 111.404 167.001 111.404 166.824L111.39 166.614ZM109.22 167.034C109.603 167.034 109.929 166.955 110.2 166.796C110.471 166.637 110.69 166.455 110.858 166.25C111.026 166.035 111.147 165.83 111.222 165.634C111.297 165.429 111.334 165.284 111.334 165.2V164.668H110.102C109.365 164.668 108.828 164.775 108.492 164.99C108.165 165.195 108.002 165.508 108.002 165.928C108.002 166.255 108.1 166.521 108.296 166.726C108.492 166.931 108.8 167.034 109.22 167.034ZM114.503 160.734H117.219C118.096 160.734 118.759 160.888 119.207 161.196C119.655 161.495 119.879 161.966 119.879 162.61C119.879 163.039 119.767 163.385 119.543 163.646C119.328 163.898 119.02 164.08 118.619 164.192C119.655 164.36 120.173 164.934 120.173 165.914C120.173 166.287 120.098 166.609 119.949 166.88C119.8 167.141 119.594 167.356 119.333 167.524C119.072 167.692 118.754 167.813 118.381 167.888C118.017 167.963 117.62 168 117.191 168H114.503V160.734ZM115.735 161.784V163.758H117.107C117.574 163.758 117.947 163.674 118.227 163.506C118.516 163.338 118.661 163.095 118.661 162.778C118.661 162.395 118.535 162.134 118.283 161.994C118.031 161.854 117.672 161.784 117.205 161.784H115.735ZM115.735 164.738V166.95H117.177C117.438 166.95 117.672 166.936 117.877 166.908C118.092 166.871 118.274 166.81 118.423 166.726C118.582 166.642 118.703 166.53 118.787 166.39C118.871 166.25 118.913 166.077 118.913 165.872C118.913 165.452 118.768 165.158 118.479 164.99C118.19 164.822 117.756 164.738 117.177 164.738H115.735ZM123.899 164.906H123.255V168H122.023V160.734H123.255V163.856H123.955L126.503 160.734H127.903L124.921 164.318L127.959 168H126.461L123.899 164.906ZM133.374 166.614C133.29 166.782 133.183 166.959 133.052 167.146C132.922 167.323 132.758 167.487 132.562 167.636C132.366 167.785 132.133 167.907 131.862 168C131.601 168.093 131.293 168.14 130.938 168.14C130.285 168.14 129.758 167.958 129.356 167.594C128.955 167.221 128.754 166.689 128.754 165.998C128.754 165.205 129.03 164.621 129.58 164.248C130.14 163.875 130.934 163.688 131.96 163.688H133.318V163.086C133.318 162.582 133.188 162.223 132.926 162.008C132.665 161.793 132.217 161.686 131.582 161.686C131.134 161.686 130.71 161.761 130.308 161.91C129.907 162.05 129.548 162.213 129.23 162.4V161.294C129.492 161.135 129.842 160.981 130.28 160.832C130.728 160.673 131.218 160.594 131.75 160.594C132.665 160.594 133.36 160.785 133.836 161.168C134.312 161.541 134.55 162.125 134.55 162.918V166.824C134.55 166.908 134.55 167.006 134.55 167.118C134.56 167.221 134.564 167.328 134.564 167.44C134.574 167.552 134.583 167.659 134.592 167.762C134.602 167.855 134.611 167.935 134.62 168H133.5C133.472 167.869 133.444 167.687 133.416 167.454C133.398 167.211 133.388 167.001 133.388 166.824L133.374 166.614ZM131.204 167.034C131.587 167.034 131.914 166.955 132.184 166.796C132.455 166.637 132.674 166.455 132.842 166.25C133.01 166.035 133.132 165.83 133.206 165.634C133.281 165.429 133.318 165.284 133.318 165.2V164.668H132.086C131.349 164.668 130.812 164.775 130.476 164.99C130.15 165.195 129.986 165.508 129.986 165.928C129.986 166.255 130.084 166.521 130.28 166.726C130.476 166.931 130.784 167.034 131.204 167.034Z" fill="#18123D"/>
<rect x="430" y="108" width="38" height="38" rx="4" fill="white" stroke="#A6A5B4" stroke-width="2" stroke-dasharray="8 8"/>
<path d="M452.235 131.444H445.837V130.114C446.687 129.433 447.419 128.826 448.035 128.294C448.661 127.762 449.174 127.272 449.575 126.824C449.977 126.376 450.275 125.952 450.471 125.55C450.667 125.14 450.765 124.715 450.765 124.276C450.765 123.726 450.597 123.282 450.261 122.946C449.935 122.601 449.454 122.428 448.819 122.428C448.287 122.428 447.793 122.559 447.335 122.82C446.878 123.082 446.467 123.413 446.103 123.814V122.4C446.458 122.055 446.859 121.78 447.307 121.574C447.755 121.369 448.273 121.266 448.861 121.266C449.384 121.266 449.846 121.336 450.247 121.476C450.658 121.616 450.999 121.812 451.269 122.064C451.549 122.316 451.759 122.62 451.899 122.974C452.049 123.329 452.123 123.721 452.123 124.15C452.123 124.692 452.016 125.2 451.801 125.676C451.596 126.152 451.288 126.628 450.877 127.104C450.467 127.58 449.958 128.075 449.351 128.588C448.754 129.092 448.068 129.643 447.293 130.24H452.235V131.444Z" fill="#18123D"/>
<rect x="577" y="71" width="38" height="38" rx="4" fill="white" stroke="#67B0F8" stroke-width="2"/>
<path d="M599.319 91.5465C599.319 92.0132 599.231 92.4332 599.053 92.8065C598.876 93.1798 598.629 93.5018 598.311 93.7725C597.994 94.0338 597.616 94.2345 597.177 94.3745C596.739 94.5145 596.253 94.5845 595.721 94.5845C595.068 94.5845 594.503 94.5052 594.027 94.3465C593.551 94.1878 593.164 93.9825 592.865 93.7305V92.3305C593.164 92.6292 593.556 92.8905 594.041 93.1145C594.527 93.3292 595.091 93.4365 595.735 93.4365C596.426 93.4365 596.967 93.2732 597.359 92.9465C597.761 92.6198 597.961 92.1625 597.961 91.5745C597.961 91.0145 597.784 90.5805 597.429 90.2725C597.075 89.9552 596.519 89.7965 595.763 89.7965H594.475V88.6065H595.819C596.351 88.6065 596.781 88.4665 597.107 88.1865C597.434 87.9065 597.597 87.5005 597.597 86.9685C597.597 86.4925 597.443 86.1192 597.135 85.8485C596.827 85.5685 596.384 85.4285 595.805 85.4285C595.208 85.4285 594.695 85.5405 594.265 85.7645C593.845 85.9885 593.463 86.2498 593.117 86.5485V85.1765C593.444 84.9058 593.831 84.6865 594.279 84.5185C594.727 84.3505 595.241 84.2665 595.819 84.2665C596.295 84.2665 596.725 84.3318 597.107 84.4625C597.49 84.5838 597.812 84.7612 598.073 84.9945C598.344 85.2278 598.549 85.5078 598.689 85.8345C598.829 86.1518 598.899 86.5065 598.899 86.8985C598.899 87.2158 598.853 87.5005 598.759 87.7525C598.666 88.0045 598.535 88.2238 598.367 88.4105C598.209 88.5972 598.022 88.7558 597.807 88.8865C597.593 89.0078 597.364 89.0965 597.121 89.1525C597.411 89.1992 597.686 89.2878 597.947 89.4185C598.218 89.5492 598.456 89.7172 598.661 89.9225C598.867 90.1185 599.025 90.3565 599.137 90.6365C599.259 90.9072 599.319 91.2105 599.319 91.5465Z" fill="#18123D"/>
<rect x="635" y="71" width="38" height="38" rx="4" fill="white" stroke="#67B0F8" stroke-width="2"/>
<path d="M655.359 94.4445H654.085V85.9885L651.313 88.1165V86.7025L654.295 84.4065H655.359V94.4445Z" fill="#18123D"/>
<rect x="518" y="133" width="156" height="60" rx="5" fill="#E3EBFF"/>
<path d="M575.007 157.962H582.553V168H581.223V159.166H576.323V168H575.007V157.962ZM588.378 168.14C587.818 168.14 587.332 168.009 586.922 167.748C586.52 167.487 586.198 167.127 585.956 166.67V170.478H584.724V160.734H585.802L585.928 162.148C586.17 161.672 586.497 161.294 586.908 161.014C587.318 160.734 587.827 160.594 588.434 160.594C588.854 160.594 589.255 160.673 589.638 160.832C590.03 160.981 590.37 161.215 590.66 161.532C590.958 161.84 591.192 162.232 591.36 162.708C591.537 163.175 591.626 163.725 591.626 164.36C591.626 165.004 591.537 165.564 591.36 166.04C591.182 166.507 590.944 166.899 590.646 167.216C590.347 167.524 590.002 167.757 589.61 167.916C589.218 168.065 588.807 168.14 588.378 168.14ZM588.196 167.034C588.84 167.034 589.358 166.815 589.75 166.376C590.151 165.928 590.352 165.256 590.352 164.36C590.352 163.483 590.151 162.82 589.75 162.372C589.358 161.915 588.84 161.686 588.196 161.686C587.878 161.686 587.58 161.742 587.3 161.854C587.029 161.966 586.791 162.134 586.586 162.358C586.39 162.573 586.231 162.848 586.11 163.184C585.998 163.52 585.942 163.912 585.942 164.36C585.942 164.808 585.998 165.2 586.11 165.536C586.231 165.872 586.39 166.152 586.586 166.376C586.791 166.6 587.029 166.768 587.3 166.88C587.58 166.983 587.878 167.034 588.196 167.034ZM594.35 166.32L598.228 160.734H599.474V168H598.242V162.428L594.378 168H593.118V160.734H594.35V166.32ZM607.268 167.384C607.165 167.459 607.039 167.538 606.89 167.622C606.74 167.706 606.558 167.79 606.344 167.874C606.129 167.949 605.886 168.009 605.616 168.056C605.345 168.112 605.042 168.14 604.706 168.14C603.483 168.14 602.554 167.809 601.92 167.146C601.285 166.483 600.968 165.555 600.968 164.36C600.968 163.772 601.052 163.245 601.22 162.778C601.397 162.311 601.64 161.919 601.948 161.602C602.256 161.275 602.62 161.028 603.04 160.86C603.46 160.683 603.917 160.594 604.412 160.594C604.934 160.594 605.401 160.683 605.812 160.86C606.222 161.037 606.558 161.299 606.82 161.644C607.09 161.989 607.272 162.419 607.366 162.932C607.468 163.436 607.468 164.024 607.366 164.696H602.242C602.288 165.48 602.522 166.068 602.942 166.46C603.362 166.843 603.987 167.034 604.818 167.034C605.378 167.034 605.858 166.955 606.26 166.796C606.661 166.637 606.997 166.465 607.268 166.278V167.384ZM604.384 161.686C603.852 161.686 603.394 161.849 603.012 162.176C602.629 162.503 602.386 162.997 602.284 163.66H606.19C606.227 162.988 606.073 162.493 605.728 162.176C605.382 161.849 604.934 161.686 604.384 161.686ZM615.949 162.162L613.485 167.188H612.505L610.181 162.134V168H609.019V160.734H610.853L613.079 165.606L615.459 160.734H617.167V168H615.949V162.162Z" fill="#18123D"/>
<path d="M674 47L664 41.2265L664 52.7735L674 47ZM665 46L182 46L182 48L665 48L665 46Z" fill="#4E496B"/>
<line x1="181.999" y1="162" x2="518.001" y2="162" stroke="#A6A5B4" stroke-width="2" stroke-dasharray="8 8"/>
<path d="M399.153 79.962H406.699V90H405.369V81.166H400.469V90H399.153V79.962ZM411.851 90.14C411.357 90.14 410.895 90.056 410.465 89.888C410.036 89.72 409.663 89.4773 409.345 89.16C409.037 88.8333 408.795 88.4367 408.617 87.97C408.44 87.5033 408.351 86.9667 408.351 86.36C408.351 85.7627 408.44 85.2307 408.617 84.764C408.795 84.288 409.037 83.8913 409.345 83.574C409.663 83.2567 410.036 83.014 410.465 82.846C410.895 82.678 411.357 82.594 411.851 82.594C412.355 82.594 412.822 82.678 413.251 82.846C413.681 83.014 414.049 83.2567 414.357 83.574C414.675 83.8913 414.922 84.288 415.099 84.764C415.286 85.2307 415.379 85.7627 415.379 86.36C415.379 86.9667 415.286 87.5033 415.099 87.97C414.922 88.4367 414.675 88.8333 414.357 89.16C414.049 89.4773 413.681 89.72 413.251 89.888C412.822 90.056 412.355 90.14 411.851 90.14ZM411.851 89.034C412.178 89.034 412.477 88.9827 412.747 88.88C413.027 88.768 413.27 88.6047 413.475 88.39C413.681 88.166 413.839 87.886 413.951 87.55C414.063 87.214 414.119 86.8173 414.119 86.36C414.119 85.9027 414.063 85.506 413.951 85.17C413.839 84.834 413.681 84.5587 413.475 84.344C413.27 84.12 413.027 83.9567 412.747 83.854C412.477 83.742 412.178 83.686 411.851 83.686C411.525 83.686 411.226 83.742 410.955 83.854C410.685 83.9567 410.447 84.12 410.241 84.344C410.045 84.5587 409.891 84.834 409.779 85.17C409.667 85.506 409.611 85.9027 409.611 86.36C409.611 86.8173 409.667 87.214 409.779 87.55C409.891 87.886 410.045 88.166 410.241 88.39C410.447 88.6047 410.685 88.768 410.955 88.88C411.226 88.9827 411.525 89.034 411.851 89.034ZM419.602 83.784V90H418.37V83.784H416.088V82.734H421.926V83.784H419.602ZM428.925 89.384C428.822 89.4587 428.696 89.538 428.547 89.622C428.397 89.706 428.215 89.79 428.001 89.874C427.786 89.9487 427.543 90.0093 427.273 90.056C427.002 90.112 426.699 90.14 426.363 90.14C425.14 90.14 424.211 89.8087 423.577 89.146C422.942 88.4833 422.625 87.5547 422.625 86.36C422.625 85.772 422.709 85.2447 422.877 84.778C423.054 84.3113 423.297 83.9193 423.605 83.602C423.913 83.2753 424.277 83.028 424.697 82.86C425.117 82.6827 425.574 82.594 426.069 82.594C426.591 82.594 427.058 82.6827 427.469 82.86C427.879 83.0373 428.215 83.2987 428.477 83.644C428.747 83.9893 428.929 84.4187 429.023 84.932C429.125 85.436 429.125 86.024 429.023 86.696H423.899C423.945 87.48 424.179 88.068 424.599 88.46C425.019 88.8427 425.644 89.034 426.475 89.034C427.035 89.034 427.515 88.9547 427.917 88.796C428.318 88.6373 428.654 88.4647 428.925 88.278V89.384ZM426.041 83.686C425.509 83.686 425.051 83.8493 424.669 84.176C424.286 84.5027 424.043 84.9973 423.941 85.66H427.847C427.884 84.988 427.73 84.4933 427.385 84.176C427.039 83.8493 426.591 83.686 426.041 83.686ZM434.33 90.14C433.77 90.14 433.285 90.0093 432.874 89.748C432.473 89.4867 432.151 89.1273 431.908 88.67V92.478H430.676V82.734H431.754L431.88 84.148C432.123 83.672 432.449 83.294 432.86 83.014C433.271 82.734 433.779 82.594 434.386 82.594C434.806 82.594 435.207 82.6733 435.59 82.832C435.982 82.9813 436.323 83.2147 436.612 83.532C436.911 83.84 437.144 84.232 437.312 84.708C437.489 85.1747 437.578 85.7253 437.578 86.36C437.578 87.004 437.489 87.564 437.312 88.04C437.135 88.5067 436.897 88.8987 436.598 89.216C436.299 89.524 435.954 89.7573 435.562 89.916C435.17 90.0653 434.759 90.14 434.33 90.14ZM434.148 89.034C434.792 89.034 435.31 88.8147 435.702 88.376C436.103 87.928 436.304 87.256 436.304 86.36C436.304 85.4827 436.103 84.82 435.702 84.372C435.31 83.9147 434.792 83.686 434.148 83.686C433.831 83.686 433.532 83.742 433.252 83.854C432.981 83.966 432.743 84.134 432.538 84.358C432.342 84.5727 432.183 84.848 432.062 85.184C431.95 85.52 431.894 85.912 431.894 86.36C431.894 86.808 431.95 87.2 432.062 87.536C432.183 87.872 432.342 88.152 432.538 88.376C432.743 88.6 432.981 88.768 433.252 88.88C433.532 88.9827 433.831 89.034 434.148 89.034ZM438.934 85.086C438.934 84.6753 439.008 84.3253 439.158 84.036C439.307 83.7373 439.517 83.4947 439.788 83.308C440.058 83.112 440.38 82.9673 440.754 82.874C441.127 82.7807 441.533 82.734 441.972 82.734H444.31V90H443.078V87.368H441.748L439.886 90H438.416L440.516 87.06C440.012 86.9107 439.62 86.682 439.34 86.374C439.069 86.066 438.934 85.6367 438.934 85.086ZM443.078 86.318V83.784H441.972C441.449 83.784 441.02 83.882 440.684 84.078C440.348 84.274 440.18 84.5913 440.18 85.03C440.18 85.4873 440.329 85.8187 440.628 86.024C440.926 86.22 441.351 86.318 441.902 86.318H443.078ZM449.406 82.734H455.23V90H453.998V83.784H450.638V90H449.406V82.734ZM461.496 88.614C461.412 88.782 461.305 88.9593 461.174 89.146C461.044 89.3233 460.88 89.4867 460.684 89.636C460.488 89.7853 460.255 89.9067 459.984 90C459.723 90.0933 459.415 90.14 459.06 90.14C458.407 90.14 457.88 89.958 457.478 89.594C457.077 89.2207 456.876 88.6887 456.876 87.998C456.876 87.2047 457.152 86.6213 457.702 86.248C458.262 85.8747 459.056 85.688 460.082 85.688H461.44V85.086C461.44 84.582 461.31 84.2227 461.048 84.008C460.787 83.7933 460.339 83.686 459.704 83.686C459.256 83.686 458.832 83.7607 458.43 83.91C458.029 84.05 457.67 84.2133 457.352 84.4V83.294C457.614 83.1353 457.964 82.9813 458.402 82.832C458.85 82.6733 459.34 82.594 459.872 82.594C460.787 82.594 461.482 82.7853 461.958 83.168C462.434 83.5413 462.672 84.1247 462.672 84.918V88.824C462.672 88.908 462.672 89.006 462.672 89.118C462.682 89.2207 462.686 89.328 462.686 89.44C462.696 89.552 462.705 89.6593 462.714 89.762C462.724 89.8553 462.733 89.9347 462.742 90H461.622C461.594 89.8693 461.566 89.6873 461.538 89.454C461.52 89.2113 461.51 89.0013 461.51 88.824L461.496 88.614ZM459.326 89.034C459.709 89.034 460.036 88.9547 460.306 88.796C460.577 88.6373 460.796 88.4553 460.964 88.25C461.132 88.0353 461.254 87.83 461.328 87.634C461.403 87.4287 461.44 87.284 461.44 87.2V86.668H460.208C459.471 86.668 458.934 86.7753 458.598 86.99C458.272 87.1953 458.108 87.508 458.108 87.928C458.108 88.2547 458.206 88.5207 458.402 88.726C458.598 88.9313 458.906 89.034 459.326 89.034ZM466.486 86.906H465.842V90H464.61V82.734H465.842V85.856H466.542L469.09 82.734H470.49L467.508 86.318L470.546 90H469.048L466.486 86.906ZM477.351 89.384C477.248 89.4587 477.122 89.538 476.973 89.622C476.823 89.706 476.641 89.79 476.427 89.874C476.212 89.9487 475.969 90.0093 475.699 90.056C475.428 90.112 475.125 90.14 474.789 90.14C473.566 90.14 472.637 89.8087 472.003 89.146C471.368 88.4833 471.051 87.5547 471.051 86.36C471.051 85.772 471.135 85.2447 471.303 84.778C471.48 84.3113 471.723 83.9193 472.031 83.602C472.339 83.2753 472.703 83.028 473.123 82.86C473.543 82.6827 474 82.594 474.495 82.594C475.017 82.594 475.484 82.6827 475.895 82.86C476.305 83.0373 476.641 83.2987 476.903 83.644C477.173 83.9893 477.355 84.4187 477.449 84.932C477.551 85.436 477.551 86.024 477.449 86.696H472.325C472.371 87.48 472.605 88.068 473.025 88.46C473.445 88.8427 474.07 89.034 474.901 89.034C475.461 89.034 475.941 88.9547 476.343 88.796C476.744 88.6373 477.08 88.4647 477.351 88.278V89.384ZM474.467 83.686C473.935 83.686 473.477 83.8493 473.095 84.176C472.712 84.5027 472.469 84.9973 472.367 85.66H476.273C476.31 84.988 476.156 84.4933 475.811 84.176C475.465 83.8493 475.017 83.686 474.467 83.686ZM481.959 83.784V90H480.727V83.784H478.445V82.734H484.283V83.784H481.959ZM488.482 90.14C487.988 90.14 487.526 90.056 487.096 89.888C486.667 89.72 486.294 89.4773 485.976 89.16C485.668 88.8333 485.426 88.4367 485.248 87.97C485.071 87.5033 484.982 86.9667 484.982 86.36C484.982 85.7627 485.071 85.2307 485.248 84.764C485.426 84.288 485.668 83.8913 485.976 83.574C486.294 83.2567 486.667 83.014 487.096 82.846C487.526 82.678 487.988 82.594 488.482 82.594C488.986 82.594 489.453 82.678 489.882 82.846C490.312 83.014 490.68 83.2567 490.988 83.574C491.306 83.8913 491.553 84.288 491.73 84.764C491.917 85.2307 492.01 85.7627 492.01 86.36C492.01 86.9667 491.917 87.5033 491.73 87.97C491.553 88.4367 491.306 88.8333 490.988 89.16C490.68 89.4773 490.312 89.72 489.882 89.888C489.453 90.056 488.986 90.14 488.482 90.14ZM488.482 89.034C488.809 89.034 489.108 88.9827 489.378 88.88C489.658 88.768 489.901 88.6047 490.106 88.39C490.312 88.166 490.47 87.886 490.582 87.55C490.694 87.214 490.75 86.8173 490.75 86.36C490.75 85.9027 490.694 85.506 490.582 85.17C490.47 84.834 490.312 84.5587 490.106 84.344C489.901 84.12 489.658 83.9567 489.378 83.854C489.108 83.742 488.809 83.686 488.482 83.686C488.156 83.686 487.857 83.742 487.586 83.854C487.316 83.9567 487.078 84.12 486.872 84.344C486.676 84.5587 486.522 84.834 486.41 85.17C486.298 85.506 486.242 85.9027 486.242 86.36C486.242 86.8173 486.298 87.214 486.41 87.55C486.522 87.886 486.676 88.166 486.872 88.39C487.078 88.6047 487.316 88.768 487.586 88.88C487.857 88.9827 488.156 89.034 488.482 89.034ZM493.512 82.734H496.228C497.105 82.734 497.768 82.888 498.216 83.196C498.664 83.4947 498.888 83.966 498.888 84.61C498.888 85.0393 498.776 85.3847 498.552 85.646C498.337 85.898 498.029 86.08 497.628 86.192C498.664 86.36 499.182 86.934 499.182 87.914C499.182 88.2873 499.107 88.6093 498.958 88.88C498.809 89.1413 498.603 89.356 498.342 89.524C498.081 89.692 497.763 89.8133 497.39 89.888C497.026 89.9627 496.629 90 496.2 90H493.512V82.734ZM494.744 83.784V85.758H496.116C496.583 85.758 496.956 85.674 497.236 85.506C497.525 85.338 497.67 85.0953 497.67 84.778C497.67 84.3953 497.544 84.134 497.292 83.994C497.04 83.854 496.681 83.784 496.214 83.784H494.744ZM494.744 86.738V88.95H496.186C496.447 88.95 496.681 88.936 496.886 88.908C497.101 88.8707 497.283 88.81 497.432 88.726C497.591 88.642 497.712 88.53 497.796 88.39C497.88 88.25 497.922 88.0773 497.922 87.872C497.922 87.452 497.777 87.158 497.488 86.99C497.199 86.822 496.765 86.738 496.186 86.738H494.744Z" fill="#18123D"/>
<g clip-path="url(#clip0_5_84)">
<path fill-rule="evenodd" clip-rule="evenodd" d="M349.5 140C361.919 140 372 150.08 372 162.5C372 174.92 361.919 185 349.5 185C337.081 185 327 174.92 327 162.5C327 150.08 337.081 140 349.5 140Z" fill="#5282FF"/>
<path d="M340 153L359 172" stroke="white" stroke-width="2" stroke-linecap="round"/>
<path d="M359 153L340 172" stroke="white" stroke-width="2" stroke-linecap="round"/>
</g>
<defs>
<filter id="filter0_d_5_84" x="8" y="18" width="684" height="195" filterUnits="userSpaceOnUse" color-interpolation-filters="sRGB">
<feFlood flood-opacity="0" result="BackgroundImageFix"/>
<feColorMatrix in="SourceAlpha" type="matrix" values="0 0 0 0 0 0 0 0 0 0 0 0 0 0 0 0 0 0 127 0" result="hardAlpha"/>
<feOffset/>
<feGaussianBlur stdDeviation="4"/>
<feColorMatrix type="matrix" values="0 0 0 0 0.321569 0 0 0 0 0.509804 0 0 0 0 1 0 0 0 0.3 0"/>
<feBlend mode="normal" in2="BackgroundImageFix" result="effect1_dropShadow_5_84"/>
<feBlend mode="normal" in="SourceGraphic" in2="effect1_dropShadow_5_84" result="shape"/>
</filter>
<clipPath id="clip0_5_84">
<rect width="45" height="45" fill="white" transform="translate(327 140)"/>
</clipPath>
</defs>
</svg>
