<svg width="700" height="230" viewBox="0 0 700 230" fill="none" xmlns="http://www.w3.org/2000/svg">
<g filter="url(#filter0_d_5_53)">
<rect x="16" y="15" width="668" height="199" rx="5" fill="white"/>
</g>
<rect x="27" y="60" width="38" height="38" rx="4" fill="white" stroke="#67B0F8" stroke-width="2"/>
<path d="M49.3194 80.5465C49.3194 81.0132 49.2307 81.4332 49.0534 81.8065C48.876 82.1798 48.6287 82.5018 48.3114 82.7725C47.994 83.0338 47.616 83.2345 47.1774 83.3745C46.7387 83.5145 46.2534 83.5845 45.7214 83.5845C45.068 83.5845 44.5034 83.5052 44.0274 83.3465C43.5514 83.1878 43.164 82.9825 42.8654 82.7305V81.3305C43.164 81.6292 43.556 81.8905 44.0414 82.1145C44.5267 82.3292 45.0914 82.4365 45.7354 82.4365C46.426 82.4365 46.9674 82.2732 47.3594 81.9465C47.7607 81.6198 47.9614 81.1625 47.9614 80.5745C47.9614 80.0145 47.784 79.5805 47.4294 79.2725C47.0747 78.9552 46.5194 78.7965 45.7634 78.7965H44.4754V77.6065H45.8194C46.3514 77.6065 46.7807 77.4665 47.1074 77.1865C47.434 76.9065 47.5974 76.5005 47.5974 75.9685C47.5974 75.4925 47.4434 75.1192 47.1354 74.8485C46.8274 74.5685 46.384 74.4285 45.8054 74.4285C45.208 74.4285 44.6947 74.5405 44.2654 74.7645C43.8454 74.9885 43.4627 75.2498 43.1174 75.5485V74.1765C43.444 73.9058 43.8314 73.6865 44.2794 73.5185C44.7274 73.3505 45.2407 73.2665 45.8194 73.2665C46.2954 73.2665 46.7247 73.3318 47.1074 73.4625C47.49 73.5838 47.812 73.7612 48.0734 73.9945C48.344 74.2278 48.5494 74.5078 48.6894 74.8345C48.8294 75.1518 48.8994 75.5065 48.8994 75.8985C48.8994 76.2158 48.8527 76.5005 48.7594 76.7525C48.666 77.0045 48.5354 77.2238 48.3674 77.4105C48.2087 77.5972 48.022 77.7558 47.8074 77.8865C47.5927 78.0078 47.364 78.0965 47.1214 78.1525C47.4107 78.1992 47.686 78.2878 47.9474 78.4185C48.218 78.5492 48.456 78.7172 48.6614 78.9225C48.8667 79.1185 49.0254 79.3565 49.1374 79.6365C49.2587 79.9072 49.3194 80.2105 49.3194 80.5465Z" fill="#18123D"/>
<rect x="85" y="60" width="38" height="38" rx="4" fill="white" stroke="#67B0F8" stroke-width="2"/>
<path d="M107.235 83.4445H100.837V82.1145C101.687 81.4332 102.419 80.8265 103.035 80.2945C103.661 79.7625 104.174 79.2725 104.575 78.8245C104.977 78.3765 105.275 77.9518 105.471 77.5505C105.667 77.1398 105.765 76.7152 105.765 76.2765C105.765 75.7258 105.597 75.2825 105.261 74.9465C104.935 74.6012 104.454 74.4285 103.819 74.4285C103.287 74.4285 102.793 74.5592 102.335 74.8205C101.878 75.0818 101.467 75.4132 101.103 75.8145V74.4005C101.458 74.0552 101.859 73.7798 102.307 73.5745C102.755 73.3692 103.273 73.2665 103.861 73.2665C104.384 73.2665 104.846 73.3365 105.247 73.4765C105.658 73.6165 105.999 73.8125 106.269 74.0645C106.549 74.3165 106.759 74.6198 106.899 74.9745C107.049 75.3292 107.123 75.7212 107.123 76.1505C107.123 76.6918 107.016 77.2005 106.801 77.6765C106.596 78.1525 106.288 78.6285 105.877 79.1045C105.467 79.5805 104.958 80.0752 104.351 80.5885C103.754 81.0925 103.068 81.6432 102.293 82.2405H107.235V83.4445Z" fill="#18123D"/>
<rect x="143" y="60" width="38" height="38" rx="4" fill="white" stroke="#67B0F8" stroke-width="2"/>
<path d="M163.359 83.4445H162.085V74.9885L159.313 77.1165V75.7025L162.295 73.4065H163.359V83.4445Z" fill="#18123D"/>
<rect x="26" y="122" width="156" height="60" rx="5" fill="#E3EBFF"/>
<path d="M77.9105 157.14C77.2385 157.14 76.6085 157.028 76.0205 156.804C75.4325 156.571 74.9238 156.235 74.4945 155.796C74.0652 155.357 73.7245 154.816 73.4725 154.172C73.2298 153.528 73.1085 152.786 73.1085 151.946C73.1085 151.106 73.2298 150.369 73.4725 149.734C73.7245 149.09 74.0652 148.558 74.4945 148.138C74.9238 147.709 75.4325 147.387 76.0205 147.172C76.6085 146.948 77.2385 146.836 77.9105 146.836C78.5918 146.836 79.2265 146.948 79.8145 147.172C80.4025 147.387 80.9112 147.709 81.3405 148.138C81.7698 148.567 82.1058 149.104 82.3485 149.748C82.5912 150.383 82.7125 151.12 82.7125 151.96C82.7125 152.791 82.5912 153.528 82.3485 154.172C82.1058 154.816 81.7698 155.357 81.3405 155.796C80.9112 156.235 80.4025 156.571 79.8145 156.804C79.2265 157.028 78.5918 157.14 77.9105 157.14ZM77.9105 155.95C78.3958 155.95 78.8438 155.88 79.2545 155.74C79.6652 155.591 80.0198 155.362 80.3185 155.054C80.6265 154.737 80.8645 154.326 81.0325 153.822C81.2098 153.318 81.2985 152.707 81.2985 151.988C81.2985 151.269 81.2098 150.658 81.0325 150.154C80.8645 149.65 80.6265 149.244 80.3185 148.936C80.0198 148.619 79.6652 148.39 79.2545 148.25C78.8438 148.101 78.3958 148.026 77.9105 148.026C77.4252 148.026 76.9772 148.101 76.5665 148.25C76.1558 148.39 75.7965 148.619 75.4885 148.936C75.1898 149.244 74.9518 149.65 74.7745 150.154C74.6065 150.658 74.5225 151.269 74.5225 151.988C74.5225 152.707 74.6065 153.318 74.7745 153.822C74.9518 154.326 75.1898 154.737 75.4885 155.054C75.7965 155.362 76.1558 155.591 76.5665 155.74C76.9772 155.88 77.4252 155.95 77.9105 155.95ZM87.2279 150.784V157H85.9959V150.784H83.7139V149.734H89.5519V150.784H87.2279ZM90.9738 149.734H96.7978V157H95.5658V150.784H92.2058V157H90.9738V149.734ZM102.462 157.14C101.902 157.14 101.416 157.009 101.006 156.748C100.604 156.487 100.282 156.127 100.04 155.67V159.478H98.8078V149.734H99.8858L100.012 151.148C100.254 150.672 100.581 150.294 100.992 150.014C101.402 149.734 101.911 149.594 102.518 149.594C102.938 149.594 103.339 149.673 103.722 149.832C104.114 149.981 104.454 150.215 104.744 150.532C105.042 150.84 105.276 151.232 105.444 151.708C105.621 152.175 105.71 152.725 105.71 153.36C105.71 154.004 105.621 154.564 105.444 155.04C105.266 155.507 105.028 155.899 104.73 156.216C104.431 156.524 104.086 156.757 103.694 156.916C103.302 157.065 102.891 157.14 102.462 157.14ZM102.28 156.034C102.924 156.034 103.442 155.815 103.834 155.376C104.235 154.928 104.436 154.256 104.436 153.36C104.436 152.483 104.235 151.82 103.834 151.372C103.442 150.915 102.924 150.686 102.28 150.686C101.962 150.686 101.664 150.742 101.384 150.854C101.113 150.966 100.875 151.134 100.67 151.358C100.474 151.573 100.315 151.848 100.194 152.184C100.082 152.52 100.026 152.912 100.026 153.36C100.026 153.808 100.082 154.2 100.194 154.536C100.315 154.872 100.474 155.152 100.67 155.376C100.875 155.6 101.113 155.768 101.384 155.88C101.664 155.983 101.962 156.034 102.28 156.034ZM111.39 155.614C111.306 155.782 111.199 155.959 111.068 156.146C110.937 156.323 110.774 156.487 110.578 156.636C110.382 156.785 110.149 156.907 109.878 157C109.617 157.093 109.309 157.14 108.954 157.14C108.301 157.14 107.773 156.958 107.372 156.594C106.971 156.221 106.77 155.689 106.77 154.998C106.77 154.205 107.045 153.621 107.596 153.248C108.156 152.875 108.949 152.688 109.976 152.688H111.334V152.086C111.334 151.582 111.203 151.223 110.942 151.008C110.681 150.793 110.233 150.686 109.598 150.686C109.15 150.686 108.725 150.761 108.324 150.91C107.923 151.05 107.563 151.213 107.246 151.4V150.294C107.507 150.135 107.857 149.981 108.296 149.832C108.744 149.673 109.234 149.594 109.766 149.594C110.681 149.594 111.376 149.785 111.852 150.168C112.328 150.541 112.566 151.125 112.566 151.918V155.824C112.566 155.908 112.566 156.006 112.566 156.118C112.575 156.221 112.58 156.328 112.58 156.44C112.589 156.552 112.599 156.659 112.608 156.762C112.617 156.855 112.627 156.935 112.636 157H111.516C111.488 156.869 111.46 156.687 111.432 156.454C111.413 156.211 111.404 156.001 111.404 155.824L111.39 155.614ZM109.22 156.034C109.603 156.034 109.929 155.955 110.2 155.796C110.471 155.637 110.69 155.455 110.858 155.25C111.026 155.035 111.147 154.83 111.222 154.634C111.297 154.429 111.334 154.284 111.334 154.2V153.668H110.102C109.365 153.668 108.828 153.775 108.492 153.99C108.165 154.195 108.002 154.508 108.002 154.928C108.002 155.255 108.1 155.521 108.296 155.726C108.492 155.931 108.8 156.034 109.22 156.034ZM114.503 149.734H117.219C118.096 149.734 118.759 149.888 119.207 150.196C119.655 150.495 119.879 150.966 119.879 151.61C119.879 152.039 119.767 152.385 119.543 152.646C119.328 152.898 119.02 153.08 118.619 153.192C119.655 153.36 120.173 153.934 120.173 154.914C120.173 155.287 120.098 155.609 119.949 155.88C119.8 156.141 119.594 156.356 119.333 156.524C119.072 156.692 118.754 156.813 118.381 156.888C118.017 156.963 117.62 157 117.191 157H114.503V149.734ZM115.735 150.784V152.758H117.107C117.574 152.758 117.947 152.674 118.227 152.506C118.516 152.338 118.661 152.095 118.661 151.778C118.661 151.395 118.535 151.134 118.283 150.994C118.031 150.854 117.672 150.784 117.205 150.784H115.735ZM115.735 153.738V155.95H117.177C117.438 155.95 117.672 155.936 117.877 155.908C118.092 155.871 118.274 155.81 118.423 155.726C118.582 155.642 118.703 155.53 118.787 155.39C118.871 155.25 118.913 155.077 118.913 154.872C118.913 154.452 118.768 154.158 118.479 153.99C118.19 153.822 117.756 153.738 117.177 153.738H115.735ZM123.899 153.906H123.255V157H122.023V149.734H123.255V152.856H123.955L126.503 149.734H127.903L124.921 153.318L127.959 157H126.461L123.899 153.906ZM133.374 155.614C133.29 155.782 133.183 155.959 133.052 156.146C132.922 156.323 132.758 156.487 132.562 156.636C132.366 156.785 132.133 156.907 131.862 157C131.601 157.093 131.293 157.14 130.938 157.14C130.285 157.14 129.758 156.958 129.356 156.594C128.955 156.221 128.754 155.689 128.754 154.998C128.754 154.205 129.03 153.621 129.58 153.248C130.14 152.875 130.934 152.688 131.96 152.688H133.318V152.086C133.318 151.582 133.188 151.223 132.926 151.008C132.665 150.793 132.217 150.686 131.582 150.686C131.134 150.686 130.71 150.761 130.308 150.91C129.907 151.05 129.548 151.213 129.23 151.4V150.294C129.492 150.135 129.842 149.981 130.28 149.832C130.728 149.673 131.218 149.594 131.75 149.594C132.665 149.594 133.36 149.785 133.836 150.168C134.312 150.541 134.55 151.125 134.55 151.918V155.824C134.55 155.908 134.55 156.006 134.55 156.118C134.56 156.221 134.564 156.328 134.564 156.44C134.574 156.552 134.583 156.659 134.592 156.762C134.602 156.855 134.611 156.935 134.62 157H133.5C133.472 156.869 133.444 156.687 133.416 156.454C133.398 156.211 133.388 156.001 133.388 155.824L133.374 155.614ZM131.204 156.034C131.587 156.034 131.914 155.955 132.184 155.796C132.455 155.637 132.674 155.455 132.842 155.25C133.01 155.035 133.132 154.83 133.206 154.634C133.281 154.429 133.318 154.284 133.318 154.2V153.668H132.086C131.349 153.668 130.812 153.775 130.476 153.99C130.15 154.195 129.986 154.508 129.986 154.928C129.986 155.255 130.084 155.521 130.28 155.726C130.476 155.931 130.784 156.034 131.204 156.034Z" fill="#18123D"/>
<rect x="429" y="60" width="38" height="38" rx="4" fill="white" stroke="#67B0F8" stroke-width="2"/>
<path d="M451.319 80.5465C451.319 81.0132 451.231 81.4332 451.053 81.8065C450.876 82.1798 450.629 82.5018 450.311 82.7725C449.994 83.0338 449.616 83.2345 449.177 83.3745C448.739 83.5145 448.253 83.5845 447.721 83.5845C447.068 83.5845 446.503 83.5052 446.027 83.3465C445.551 83.1878 445.164 82.9825 444.865 82.7305V81.3305C445.164 81.6292 445.556 81.8905 446.041 82.1145C446.527 82.3292 447.091 82.4365 447.735 82.4365C448.426 82.4365 448.967 82.2732 449.359 81.9465C449.761 81.6198 449.961 81.1625 449.961 80.5745C449.961 80.0145 449.784 79.5805 449.429 79.2725C449.075 78.9552 448.519 78.7965 447.763 78.7965H446.475V77.6065H447.819C448.351 77.6065 448.781 77.4665 449.107 77.1865C449.434 76.9065 449.597 76.5005 449.597 75.9685C449.597 75.4925 449.443 75.1192 449.135 74.8485C448.827 74.5685 448.384 74.4285 447.805 74.4285C447.208 74.4285 446.695 74.5405 446.265 74.7645C445.845 74.9885 445.463 75.2498 445.117 75.5485V74.1765C445.444 73.9058 445.831 73.6865 446.279 73.5185C446.727 73.3505 447.241 73.2665 447.819 73.2665C448.295 73.2665 448.725 73.3318 449.107 73.4625C449.49 73.5838 449.812 73.7612 450.073 73.9945C450.344 74.2278 450.549 74.5078 450.689 74.8345C450.829 75.1518 450.899 75.5065 450.899 75.8985C450.899 76.2158 450.853 76.5005 450.759 76.7525C450.666 77.0045 450.535 77.2238 450.367 77.4105C450.209 77.5972 450.022 77.7558 449.807 77.8865C449.593 78.0078 449.364 78.0965 449.121 78.1525C449.411 78.1992 449.686 78.2878 449.947 78.4185C450.218 78.5492 450.456 78.7172 450.661 78.9225C450.867 79.1185 451.025 79.3565 451.137 79.6365C451.259 79.9072 451.319 80.2105 451.319 80.5465Z" fill="#18123D"/>
<rect x="577" y="60" width="38" height="38" rx="4" fill="white" stroke="#67B0F8" stroke-width="2"/>
<path d="M599.235 83.4445H592.837V82.1145C593.687 81.4332 594.419 80.8265 595.035 80.2945C595.661 79.7625 596.174 79.2725 596.575 78.8245C596.977 78.3765 597.275 77.9518 597.471 77.5505C597.667 77.1398 597.765 76.7152 597.765 76.2765C597.765 75.7258 597.597 75.2825 597.261 74.9465C596.935 74.6012 596.454 74.4285 595.819 74.4285C595.287 74.4285 594.793 74.5592 594.335 74.8205C593.878 75.0818 593.467 75.4132 593.103 75.8145V74.4005C593.458 74.0552 593.859 73.7798 594.307 73.5745C594.755 73.3692 595.273 73.2665 595.861 73.2665C596.384 73.2665 596.846 73.3365 597.247 73.4765C597.658 73.6165 597.999 73.8125 598.269 74.0645C598.549 74.3165 598.759 74.6198 598.899 74.9745C599.049 75.3292 599.123 75.7212 599.123 76.1505C599.123 76.6918 599.016 77.2005 598.801 77.6765C598.596 78.1525 598.288 78.6285 597.877 79.1045C597.467 79.5805 596.958 80.0752 596.351 80.5885C595.754 81.0925 595.068 81.6432 594.293 82.2405H599.235V83.4445Z" fill="#18123D"/>
<rect x="635" y="60" width="38" height="38" rx="4" fill="white" stroke="#67B0F8" stroke-width="2"/>
<path d="M655.359 83.4445H654.085V74.9885L651.313 77.1165V75.7025L654.295 73.4065H655.359V83.4445Z" fill="#18123D"/>
<rect x="518" y="122" width="156" height="60" rx="5" fill="#E3EBFF"/>
<path d="M575.007 146.962H582.553V157H581.223V148.166H576.323V157H575.007V146.962ZM588.378 157.14C587.818 157.14 587.332 157.009 586.922 156.748C586.52 156.487 586.198 156.127 585.956 155.67V159.478H584.724V149.734H585.802L585.928 151.148C586.17 150.672 586.497 150.294 586.908 150.014C587.318 149.734 587.827 149.594 588.434 149.594C588.854 149.594 589.255 149.673 589.638 149.832C590.03 149.981 590.37 150.215 590.66 150.532C590.958 150.84 591.192 151.232 591.36 151.708C591.537 152.175 591.626 152.725 591.626 153.36C591.626 154.004 591.537 154.564 591.36 155.04C591.182 155.507 590.944 155.899 590.646 156.216C590.347 156.524 590.002 156.757 589.61 156.916C589.218 157.065 588.807 157.14 588.378 157.14ZM588.196 156.034C588.84 156.034 589.358 155.815 589.75 155.376C590.151 154.928 590.352 154.256 590.352 153.36C590.352 152.483 590.151 151.82 589.75 151.372C589.358 150.915 588.84 150.686 588.196 150.686C587.878 150.686 587.58 150.742 587.3 150.854C587.029 150.966 586.791 151.134 586.586 151.358C586.39 151.573 586.231 151.848 586.11 152.184C585.998 152.52 585.942 152.912 585.942 153.36C585.942 153.808 585.998 154.2 586.11 154.536C586.231 154.872 586.39 155.152 586.586 155.376C586.791 155.6 587.029 155.768 587.3 155.88C587.58 155.983 587.878 156.034 588.196 156.034ZM594.35 155.32L598.228 149.734H599.474V157H598.242V151.428L594.378 157H593.118V149.734H594.35V155.32ZM607.268 156.384C607.165 156.459 607.039 156.538 606.89 156.622C606.74 156.706 606.558 156.79 606.344 156.874C606.129 156.949 605.886 157.009 605.616 157.056C605.345 157.112 605.042 157.14 604.706 157.14C603.483 157.14 602.554 156.809 601.92 156.146C601.285 155.483 600.968 154.555 600.968 153.36C600.968 152.772 601.052 152.245 601.22 151.778C601.397 151.311 601.64 150.919 601.948 150.602C602.256 150.275 602.62 150.028 603.04 149.86C603.46 149.683 603.917 149.594 604.412 149.594C604.934 149.594 605.401 149.683 605.812 149.86C606.222 150.037 606.558 150.299 606.82 150.644C607.09 150.989 607.272 151.419 607.366 151.932C607.468 152.436 607.468 153.024 607.366 153.696H602.242C602.288 154.48 602.522 155.068 602.942 155.46C603.362 155.843 603.987 156.034 604.818 156.034C605.378 156.034 605.858 155.955 606.26 155.796C606.661 155.637 606.997 155.465 607.268 155.278V156.384ZM604.384 150.686C603.852 150.686 603.394 150.849 603.012 151.176C602.629 151.503 602.386 151.997 602.284 152.66H606.19C606.227 151.988 606.073 151.493 605.728 151.176C605.382 150.849 604.934 150.686 604.384 150.686ZM615.949 151.162L613.485 156.188H612.505L610.181 151.134V157H609.019V149.734H610.853L613.079 154.606L615.459 149.734H617.167V157H615.949V151.162Z" fill="#18123D"/>
<path d="M674 36L664 30.2265L664 41.7735L674 36ZM665 35L182 35L182 37L665 37L665 35Z" fill="#4E496B"/>
<path d="M576 79.0001L566 73.2266L566 84.7736L576 79.0001ZM468 79.0001L478 84.7736L478 73.2266L468 79.0001ZM567 78.0001L477 78.0001L477 80.0001L567 80.0001L567 78.0001Z" fill="#4E496B"/>
<line x1="181.999" y1="151" x2="518.001" y2="151" stroke="#A6A5B4" stroke-width="2" stroke-dasharray="8 8"/>
<path d="M501.378 60.81H502.666V64.38H501.448L501.308 62H494.098L493.944 64.38H492.754V60.81H493.44C493.757 60.5207 494.009 60.1334 494.196 59.648C494.392 59.1534 494.541 58.5467 494.644 57.828C494.747 57.1094 494.821 56.2647 494.868 55.294C494.915 54.3234 494.952 53.2127 494.98 51.962H501.378V60.81ZM500.048 60.81V53.166H496.212C496.184 54.23 496.142 55.1727 496.086 55.994C496.039 56.806 495.965 57.52 495.862 58.136C495.769 58.752 495.647 59.2794 495.498 59.718C495.358 60.1474 495.181 60.5114 494.966 60.81H500.048ZM509.172 54.734V57.856H509.83L512.14 54.734H513.498L510.796 58.29L513.596 62H512.098L509.774 58.906H509.172V62H507.94V58.906H507.324L504.972 62H503.516L506.316 58.332L503.614 54.734H505.028L507.296 57.856H507.94V54.734H509.172ZM516.126 60.32L520.004 54.734H521.25V62H520.018V56.428L516.154 62H514.894V54.734H516.126V60.32ZM526.187 55.784V62H524.955V55.784H522.673V54.734H528.511V55.784H526.187ZM532.996 55.784V62H531.764V55.784H529.482V54.734H535.32V55.784H532.996ZM542.318 61.384C542.216 61.4587 542.09 61.538 541.94 61.622C541.791 61.706 541.609 61.79 541.394 61.874C541.18 61.9487 540.937 62.0094 540.666 62.056C540.396 62.112 540.092 62.14 539.756 62.14C538.534 62.14 537.605 61.8087 536.97 61.146C536.336 60.4834 536.018 59.5547 536.018 58.36C536.018 57.772 536.102 57.2447 536.27 56.778C536.448 56.3114 536.69 55.9194 536.998 55.602C537.306 55.2754 537.67 55.028 538.09 54.86C538.51 54.6827 538.968 54.594 539.462 54.594C539.985 54.594 540.452 54.6827 540.862 54.86C541.273 55.0374 541.609 55.2987 541.87 55.644C542.141 55.9894 542.323 56.4187 542.416 56.932C542.519 57.436 542.519 58.024 542.416 58.696H537.292C537.339 59.48 537.572 60.068 537.992 60.46C538.412 60.8427 539.038 61.034 539.868 61.034C540.428 61.034 540.909 60.9547 541.31 60.796C541.712 60.6374 542.048 60.4647 542.318 60.278V61.384ZM539.434 55.686C538.902 55.686 538.445 55.8494 538.062 56.176C537.68 56.5027 537.437 56.9974 537.334 57.66H541.24C541.278 56.988 541.124 56.4934 540.778 56.176C540.433 55.8494 539.985 55.686 539.434 55.686ZM547.724 62.14C547.164 62.14 546.678 62.0094 546.268 61.748C545.866 61.4867 545.544 61.1274 545.302 60.67V64.478H544.07V54.734H545.148L545.274 56.148C545.516 55.672 545.843 55.294 546.254 55.014C546.664 54.734 547.173 54.594 547.78 54.594C548.2 54.594 548.601 54.6734 548.984 54.832C549.376 54.9814 549.716 55.2147 550.006 55.532C550.304 55.84 550.538 56.232 550.706 56.708C550.883 57.1747 550.972 57.7254 550.972 58.36C550.972 59.004 550.883 59.564 550.706 60.04C550.528 60.5067 550.29 60.8987 549.992 61.216C549.693 61.524 549.348 61.7574 548.956 61.916C548.564 62.0654 548.153 62.14 547.724 62.14ZM547.542 61.034C548.186 61.034 548.704 60.8147 549.096 60.376C549.497 59.928 549.698 59.256 549.698 58.36C549.698 57.4827 549.497 56.82 549.096 56.372C548.704 55.9147 548.186 55.686 547.542 55.686C547.224 55.686 546.926 55.742 546.646 55.854C546.375 55.966 546.137 56.134 545.932 56.358C545.736 56.5727 545.577 56.848 545.456 57.184C545.344 57.52 545.288 57.912 545.288 58.36C545.288 58.808 545.344 59.2 545.456 59.536C545.577 59.872 545.736 60.152 545.932 60.376C546.137 60.6 546.375 60.768 546.646 60.88C546.926 60.9827 547.224 61.034 547.542 61.034Z" fill="#18123D"/>
<g clip-path="url(#clip0_5_53)">
<path fill-rule="evenodd" clip-rule="evenodd" d="M349.5 129C361.919 129 372 139.08 372 151.5C372 163.92 361.919 174 349.5 174C337.081 174 327 163.92 327 151.5C327 139.08 337.081 129 349.5 129Z" fill="#5282FF"/>
<path d="M340 142L359 161" stroke="white" stroke-width="2" stroke-linecap="round"/>
<path d="M359 142L340 161" stroke="white" stroke-width="2" stroke-linecap="round"/>
</g>
<defs>
<filter id="filter0_d_5_53" x="8" y="7" width="684" height="215" filterUnits="userSpaceOnUse" color-interpolation-filters="sRGB">
<feFlood flood-opacity="0" result="BackgroundImageFix"/>
<feColorMatrix in="SourceAlpha" type="matrix" values="0 0 0 0 0 0 0 0 0 0 0 0 0 0 0 0 0 0 127 0" result="hardAlpha"/>
<feOffset/>
<feGaussianBlur stdDeviation="4"/>
<feColorMatrix type="matrix" values="0 0 0 0 0.321569 0 0 0 0 0.509804 0 0 0 0 1 0 0 0 0.3 0"/>
<feBlend mode="normal" in2="BackgroundImageFix" result="effect1_dropShadow_5_53"/>
<feBlend mode="normal" in="SourceGraphic" in2="effect1_dropShadow_5_53" result="shape"/>
</filter>
<clipPath id="clip0_5_53">
<rect width="45" height="45" fill="white" transform="translate(327 129)"/>
</clipPath>
</defs>
</svg>
