<svg xmlns="http://www.w3.org/2000/svg" width="700" height="230" fill="none"><g filter="url(#a)"><rect width="668" height="194" x="16" y="18" fill="#fff" rx="5"/></g><rect width="38" height="38" x="27" y="63" fill="#fff" stroke="#67B0F8" stroke-width="2" rx="4"/><path fill="#18123D" d="M49.32 83.546a2.9 2.9 0 0 1-.267 1.26 2.881 2.881 0 0 1-.742.966 3.377 3.377 0 0 1-1.134.602 4.77 4.77 0 0 1-1.456.21c-.653 0-1.218-.079-1.694-.237-.476-.16-.863-.364-1.162-.616v-1.4c.299.298.691.56 1.176.784.486.214 1.05.322 1.694.322.691 0 1.232-.164 1.624-.49.402-.327.602-.785.602-1.373 0-.56-.177-.993-.532-1.302-.354-.317-.91-.476-1.666-.476h-1.288v-1.19h1.344c.532 0 .962-.14 1.288-.42.327-.28.49-.686.49-1.218 0-.475-.154-.849-.462-1.12-.308-.28-.751-.42-1.33-.42-.597 0-1.11.112-1.54.337-.42.224-.802.485-1.148.784v-1.373a4.01 4.01 0 0 1 1.162-.657c.448-.169.962-.253 1.54-.253.476 0 .906.066 1.288.197.383.12.705.298.966.532.271.233.476.513.616.84.14.317.21.672.21 1.064 0 .317-.046.602-.14.853a2.021 2.021 0 0 1-.392.659 2.294 2.294 0 0 1-.56.475c-.214.122-.443.21-.686.267.29.046.565.135.826.265.271.131.509.3.714.504.206.197.364.434.476.715a2.2 2.2 0 0 1 .182.91Z"/><rect width="38" height="38" x="85" y="63" fill="#fff" stroke="#67B0F8" stroke-width="2" rx="4"/><path fill="#18123D" d="M107.235 86.445h-6.398v-1.33a78.864 78.864 0 0 0 2.198-1.82 15.893 15.893 0 0 0 1.54-1.47c.402-.449.7-.873.896-1.275.196-.41.294-.835.294-1.273 0-.551-.168-.995-.504-1.33-.326-.346-.807-.519-1.442-.519-.532 0-1.026.131-1.484.392a5.022 5.022 0 0 0-1.232.995V77.4a4.26 4.26 0 0 1 1.204-.826c.448-.205.966-.308 1.554-.308.523 0 .985.07 1.386.21.411.14.752.337 1.022.588.28.253.49.556.63.91.15.355.224.747.224 1.176 0 .542-.107 1.05-.322 1.526a5.595 5.595 0 0 1-.924 1.428c-.41.477-.919.971-1.526 1.484a59.856 59.856 0 0 1-2.058 1.653h4.942v1.204Z"/><rect width="38" height="38" x="143" y="63" fill="#fff" stroke="#67B0F8" stroke-width="2" rx="4"/><path fill="#18123D" d="M163.359 86.445h-1.274v-8.456l-2.772 2.127v-1.413l2.982-2.297h1.064v10.038Z"/><rect width="156" height="60" x="26" y="125" fill="#E3EBFF" rx="5"/><path fill="#18123D" d="M77.91 160.14a5.264 5.264 0 0 1-1.89-.336 4.347 4.347 0 0 1-1.525-1.008c-.43-.439-.77-.98-1.023-1.624-.242-.644-.363-1.386-.363-2.226 0-.84.12-1.577.364-2.212.252-.644.592-1.176 1.022-1.596.429-.429.938-.751 1.525-.966a5.264 5.264 0 0 1 1.89-.336c.682 0 1.317.112 1.904.336a4.142 4.142 0 0 1 1.527.966c.429.429.765.966 1.008 1.61.242.635.364 1.372.364 2.212 0 .831-.122 1.568-.364 2.212a4.613 4.613 0 0 1-1.008 1.624c-.43.439-.938.775-1.526 1.008a5.304 5.304 0 0 1-1.904.336Zm0-1.19c.486 0 .934-.07 1.344-.21.411-.149.766-.378 1.064-.686.308-.317.547-.728.715-1.232.177-.504.266-1.115.266-1.834 0-.719-.09-1.33-.267-1.834-.167-.504-.406-.91-.713-1.218a2.59 2.59 0 0 0-1.065-.686 3.913 3.913 0 0 0-1.344-.224c-.485 0-.933.075-1.343.224a2.7 2.7 0 0 0-1.078.686c-.3.308-.537.714-.715 1.218-.168.504-.252 1.115-.252 1.834 0 .719.084 1.33.252 1.834.178.504.416.915.715 1.232a2.91 2.91 0 0 0 1.078.686c.41.14.858.21 1.344.21Zm9.318-5.166V160h-1.232v-6.216h-2.282v-1.05h5.838v1.05h-2.324Zm3.746-1.05h5.824V160h-1.232v-6.216h-3.36V160h-1.232v-7.266Zm11.488 7.406c-.56 0-1.046-.131-1.456-.392a2.84 2.84 0 0 1-.966-1.078v3.808h-1.232v-9.744h1.078l.126 1.414c.242-.476.569-.854.98-1.134.41-.28.919-.42 1.526-.42.42 0 .821.079 1.204.238.392.149.732.383 1.022.7.298.308.532.7.7 1.176.177.467.266 1.017.266 1.652 0 .644-.089 1.204-.266 1.68a3.526 3.526 0 0 1-.714 1.176 3.002 3.002 0 0 1-1.036.7 3.44 3.44 0 0 1-1.232.224Zm-.182-1.106c.644 0 1.162-.219 1.554-.658.401-.448.602-1.12.602-2.016 0-.877-.201-1.54-.602-1.988-.392-.457-.91-.686-1.554-.686-.318 0-.616.056-.896.168a1.99 1.99 0 0 0-.714.504c-.196.215-.355.49-.476.826a3.723 3.723 0 0 0-.168 1.176c0 .448.056.84.168 1.176.121.336.28.616.476.84.205.224.443.392.714.504.28.103.578.154.896.154Zm9.11-.42a4.24 4.24 0 0 1-.322.532 2.444 2.444 0 0 1-1.19.854c-.261.093-.569.14-.924.14-.653 0-1.181-.182-1.582-.546-.401-.373-.602-.905-.602-1.596 0-.793.275-1.377.826-1.75.56-.373 1.353-.56 2.38-.56h1.358v-.602c0-.504-.131-.863-.392-1.078-.261-.215-.709-.322-1.344-.322a3.63 3.63 0 0 0-1.274.224c-.401.14-.761.303-1.078.49v-1.106a5.383 5.383 0 0 1 1.05-.462 4.367 4.367 0 0 1 1.47-.238c.915 0 1.61.191 2.086.574.476.373.714.957.714 1.75v4.2c.009.103.014.21.014.322l.028.322c.009.093.019.173.028.238h-1.12a6.439 6.439 0 0 1-.084-.546 8.21 8.21 0 0 1-.028-.63l-.014-.21Zm-2.17.42c.383 0 .709-.079.98-.238.271-.159.49-.341.658-.546.168-.215.289-.42.364-.616.075-.205.112-.35.112-.434v-.532h-1.232c-.737 0-1.274.107-1.61.322-.327.205-.49.518-.49.938 0 .327.098.593.294.798.196.205.504.308.924.308Zm5.283-6.3h2.716c.877 0 1.54.154 1.988.462.448.299.672.77.672 1.414 0 .429-.112.775-.336 1.036-.215.252-.523.434-.924.546 1.036.168 1.554.742 1.554 1.722 0 .373-.075.695-.224.966a1.85 1.85 0 0 1-.616.644 2.746 2.746 0 0 1-.952.364 5.904 5.904 0 0 1-1.19.112h-2.688v-7.266Zm1.232 1.05v1.974h1.372c.467 0 .84-.084 1.12-.252.289-.168.434-.411.434-.728 0-.383-.126-.644-.378-.784s-.611-.21-1.078-.21h-1.47Zm0 2.954v2.212h1.442c.261 0 .495-.014.7-.042.215-.037.397-.098.546-.182a.906.906 0 0 0 .364-.336.991.991 0 0 0 .126-.518c0-.42-.145-.714-.434-.882-.289-.168-.723-.252-1.302-.252h-1.442Zm8.164.168h-.644V160h-1.232v-7.266h1.232v3.122h.7l2.548-3.122h1.4l-2.982 3.584 3.038 3.682h-1.498l-2.562-3.094Zm9.475 1.708a4.24 4.24 0 0 1-.322.532 2.419 2.419 0 0 1-1.19.854c-.261.093-.569.14-.924.14-.653 0-1.18-.182-1.582-.546-.401-.373-.602-.905-.602-1.596 0-.793.276-1.377.826-1.75.56-.373 1.354-.56 2.38-.56h1.358v-.602c0-.504-.13-.863-.392-1.078-.261-.215-.709-.322-1.344-.322-.448 0-.872.075-1.274.224-.401.14-.76.303-1.078.49v-1.106a5.438 5.438 0 0 1 1.05-.462 4.367 4.367 0 0 1 1.47-.238c.915 0 1.61.191 2.086.574.476.373.714.957.714 1.75v4.2c.01.103.014.21.014.322l.028.322c.01.093.019.173.028.238h-1.12a6.439 6.439 0 0 1-.084-.546 8.754 8.754 0 0 1-.028-.63l-.014-.21Zm-2.17.42c.383 0 .71-.079.98-.238.271-.159.49-.341.658-.546.168-.215.29-.42.364-.616.075-.205.112-.35.112-.434v-.532h-1.232c-.737 0-1.274.107-1.61.322-.326.205-.49.518-.49.938 0 .327.098.593.294.798.196.205.504.308.924.308Z"/><rect width="38" height="38" x="519" y="63" fill="#fff" stroke="#67B0F8" stroke-width="2" rx="4"/><path fill="#18123D" d="M541.319 83.546c0 .467-.088.887-.266 1.26a2.868 2.868 0 0 1-.742.966 3.37 3.37 0 0 1-1.134.602c-.438.14-.924.21-1.456.21-.653 0-1.218-.079-1.694-.238-.476-.158-.863-.364-1.162-.616v-1.4c.299.3.691.56 1.176.784.486.215 1.05.322 1.694.322.691 0 1.232-.163 1.624-.49.402-.326.602-.784.602-1.372 0-.56-.177-.994-.532-1.302-.354-.317-.91-.476-1.666-.476h-1.288v-1.19h1.344c.532 0 .962-.14 1.288-.42.327-.28.49-.686.49-1.218 0-.476-.154-.849-.462-1.12-.308-.28-.751-.42-1.33-.42-.597 0-1.11.112-1.54.336-.42.224-.802.486-1.148.784v-1.372c.327-.27.714-.49 1.162-.658.448-.168.962-.252 1.54-.252.476 0 .906.066 1.288.196.383.122.705.3.966.532.271.234.476.514.616.84.14.318.21.672.21 1.064 0 .318-.046.602-.14.854a2.015 2.015 0 0 1-.392.658 2.275 2.275 0 0 1-.56.476c-.214.122-.443.21-.686.266.29.047.565.136.826.266.271.131.509.3.714.504.206.196.364.434.476.714.122.271.182.574.182.91Z"/><rect width="38" height="38" x="577" y="63" fill="#fff" stroke="#67B0F8" stroke-width="2" rx="4"/><path fill="#18123D" d="M599.235 86.445h-6.398v-1.33a78.864 78.864 0 0 0 2.198-1.82 15.893 15.893 0 0 0 1.54-1.47c.402-.449.7-.873.896-1.275.196-.41.294-.835.294-1.273 0-.551-.168-.995-.504-1.33-.326-.346-.807-.519-1.442-.519-.532 0-1.026.131-1.484.392a5.022 5.022 0 0 0-1.232.995V77.4a4.26 4.26 0 0 1 1.204-.826c.448-.205.966-.308 1.554-.308.523 0 .985.07 1.386.21.411.14.752.337 1.022.588.28.253.49.556.63.91.15.355.224.747.224 1.176 0 .542-.107 1.05-.322 1.526a5.595 5.595 0 0 1-.924 1.428c-.41.477-.919.971-1.526 1.484a59.856 59.856 0 0 1-2.058 1.653h4.942v1.204Z"/><rect width="38" height="38" x="635" y="63" fill="#fff" stroke="#67B0F8" stroke-width="2" rx="4"/><path fill="#18123D" d="M655.359 86.445h-1.274v-8.456l-2.772 2.127v-1.413l2.982-2.297h1.064v10.038Z"/><rect width="156" height="60" x="518" y="125" fill="#E3EBFF" rx="5"/><path fill="#18123D" d="M575.007 149.962h7.546V160h-1.33v-8.834h-4.9V160h-1.316v-10.038Zm13.371 10.178c-.56 0-1.046-.131-1.456-.392a2.84 2.84 0 0 1-.966-1.078v3.808h-1.232v-9.744h1.078l.126 1.414c.242-.476.569-.854.98-1.134.41-.28.919-.42 1.526-.42.42 0 .821.079 1.204.238.392.149.732.383 1.022.7.298.308.532.7.7 1.176.177.467.266 1.017.266 1.652 0 .644-.089 1.204-.266 1.68a3.526 3.526 0 0 1-.714 1.176 3.002 3.002 0 0 1-1.036.7 3.44 3.44 0 0 1-1.232.224Zm-.182-1.106c.644 0 1.162-.219 1.554-.658.401-.448.602-1.12.602-2.016 0-.877-.201-1.54-.602-1.988-.392-.457-.91-.686-1.554-.686-.318 0-.616.056-.896.168a1.99 1.99 0 0 0-.714.504c-.196.215-.355.49-.476.826a3.723 3.723 0 0 0-.168 1.176c0 .448.056.84.168 1.176.121.336.28.616.476.84.205.224.443.392.714.504.28.103.578.154.896.154Zm6.154-.714 3.878-5.586h1.246V160h-1.232v-5.572L594.378 160h-1.26v-7.266h1.232v5.586Zm12.918 1.064a3.919 3.919 0 0 1-.378.238c-.15.084-.332.168-.546.252a4.632 4.632 0 0 1-.728.182 4.51 4.51 0 0 1-.91.084c-1.223 0-2.152-.331-2.786-.994-.635-.663-.952-1.591-.952-2.786 0-.588.084-1.115.252-1.582.177-.467.42-.859.728-1.176a3.024 3.024 0 0 1 1.092-.742c.42-.177.877-.266 1.372-.266.522 0 .989.089 1.4.266.41.177.746.439 1.008.784.27.345.452.775.546 1.288.102.504.102 1.092 0 1.764h-5.124c.046.784.28 1.372.7 1.764.42.383 1.045.574 1.876.574.56 0 1.04-.079 1.442-.238a5.07 5.07 0 0 0 1.008-.518v1.106Zm-2.884-5.698c-.532 0-.99.163-1.372.49-.383.327-.626.821-.728 1.484h3.906c.037-.672-.117-1.167-.462-1.484-.346-.327-.794-.49-1.344-.49Zm11.565.476-2.464 5.026h-.98l-2.324-5.054V160h-1.162v-7.266h1.834l2.226 4.872 2.38-4.872h1.708V160h-1.218v-5.838Z"/><path fill="#4E496B" d="m674 39-10-5.773v11.547L674 39Zm-9-1H182v2h483v-2Z"/><path stroke="#A6A5B4" stroke-dasharray="8 8" stroke-width="2" d="M182 145h336.001M182.001 163h336.001"/><path fill="#18123D" d="M228.264 171.962h7.546V182h-1.33v-8.834h-4.9V182h-1.316v-10.038Zm12.699 10.178c-.495 0-.957-.084-1.386-.252a3.224 3.224 0 0 1-1.12-.728 3.542 3.542 0 0 1-.728-1.19c-.178-.467-.266-1.003-.266-1.61 0-.597.088-1.129.266-1.596.177-.476.42-.873.728-1.19.317-.317.69-.56 1.12-.728a3.767 3.767 0 0 1 1.386-.252c.504 0 .97.084 1.4.252.429.168.798.411 1.106.728.317.317.564.714.742 1.19.186.467.28.999.28 1.596 0 .607-.094 1.143-.28 1.61a3.448 3.448 0 0 1-.742 1.19c-.308.317-.677.56-1.106.728-.43.168-.896.252-1.4.252Zm0-1.106c.326 0 .625-.051.896-.154.28-.112.522-.275.728-.49.205-.224.364-.504.476-.84.112-.336.168-.733.168-1.19 0-.457-.056-.854-.168-1.19a2.17 2.17 0 0 0-.476-.826 1.838 1.838 0 0 0-.728-.49 2.325 2.325 0 0 0-.896-.168c-.327 0-.626.056-.896.168a1.849 1.849 0 0 0-.714.49c-.196.215-.35.49-.462.826a3.775 3.775 0 0 0-.168 1.19c0 .457.056.854.168 1.19.112.336.266.616.462.84.205.215.443.378.714.49.27.103.569.154.896.154Zm5.384-1.288c.131-.476.215-1.12.252-1.932.038-.812.056-1.839.056-3.08h4.886V182h-1.246v-6.216h-2.478a42.616 42.616 0 0 1-.098 2.66c-.046.775-.154 1.428-.322 1.96-.158.532-.396.938-.714 1.218-.308.271-.723.406-1.246.406h-.112a.682.682 0 0 1-.126-.014v-1.218a.996.996 0 0 0 .182.014c.476 0 .798-.355.966-1.064Zm10.174 2.394c-.494 0-.956-.084-1.386-.252a3.242 3.242 0 0 1-1.12-.728 3.558 3.558 0 0 1-.728-1.19c-.177-.467-.266-1.003-.266-1.61 0-.597.089-1.129.266-1.596.178-.476.42-.873.728-1.19.318-.317.691-.56 1.12-.728.43-.168.892-.252 1.386-.252.504 0 .971.084 1.4.252.43.168.798.411 1.106.728.318.317.565.714.742 1.19.187.467.28.999.28 1.596 0 .607-.093 1.143-.28 1.61a3.418 3.418 0 0 1-.742 1.19c-.308.317-.676.56-1.106.728a3.807 3.807 0 0 1-1.4.252Zm0-1.106c.327 0 .626-.051.896-.154a2.04 2.04 0 0 0 .728-.49 2.29 2.29 0 0 0 .476-.84c.112-.336.168-.733.168-1.19 0-.457-.056-.854-.168-1.19a2.158 2.158 0 0 0-.476-.826 1.831 1.831 0 0 0-.728-.49 2.318 2.318 0 0 0-.896-.168c-.326 0-.625.056-.896.168-.27.103-.508.266-.714.49-.196.215-.35.49-.462.826a3.775 3.775 0 0 0-.168 1.19c0 .457.056.854.168 1.19.112.336.266.616.462.84.206.215.444.378.714.49.271.103.57.154.896.154Zm8.166 1.106c-.56 0-1.069-.084-1.526-.252a3.335 3.335 0 0 1-1.148-.742 3.277 3.277 0 0 1-.728-1.19c-.168-.467-.252-.999-.252-1.596 0-.588.084-1.115.252-1.582.177-.467.425-.859.742-1.176a3.065 3.065 0 0 1 1.162-.742 4.277 4.277 0 0 1 1.554-.266c.448 0 .859.051 1.232.154.373.093.681.233.924.42v1.106a3.263 3.263 0 0 0-1.008-.434 4.145 4.145 0 0 0-1.134-.154c-.849 0-1.475.219-1.876.658-.392.439-.588 1.111-.588 2.016s.191 1.577.574 2.016c.383.439.989.658 1.82.658.439 0 .84-.051 1.204-.154a4.969 4.969 0 0 0 1.008-.42v1.106a4.29 4.29 0 0 1-2.212.574Zm8.12-1.526a4.24 4.24 0 0 1-.322.532 2.444 2.444 0 0 1-1.19.854c-.261.093-.569.14-.924.14-.653 0-1.181-.182-1.582-.546-.401-.373-.602-.905-.602-1.596 0-.793.275-1.377.826-1.75.56-.373 1.353-.56 2.38-.56h1.358v-.602c0-.504-.131-.863-.392-1.078-.261-.215-.709-.322-1.344-.322a3.63 3.63 0 0 0-1.274.224c-.401.14-.761.303-1.078.49v-1.106a5.383 5.383 0 0 1 1.05-.462 4.367 4.367 0 0 1 1.47-.238c.915 0 1.61.191 2.086.574.476.373.714.957.714 1.75v4.2c.009.103.014.21.014.322l.028.322c.009.093.019.173.028.238h-1.12a6.439 6.439 0 0 1-.084-.546 8.21 8.21 0 0 1-.028-.63l-.014-.21Zm-2.17.42c.383 0 .709-.079.98-.238.271-.159.49-.341.658-.546.168-.215.289-.42.364-.616.075-.205.112-.35.112-.434v-.532h-1.232c-.737 0-1.274.107-1.61.322-.327.205-.49.518-.49.938 0 .327.098.593.294.798.196.205.504.308.924.308Zm-60.964 9.7h5.824V198h-1.232v-6.216h-3.36V198h-1.232v-7.266Zm11.488 7.406c-.56 0-1.045-.131-1.456-.392a2.856 2.856 0 0 1-.966-1.078v3.808h-1.232v-9.744h1.078l.126 1.414a2.98 2.98 0 0 1 .98-1.134c.411-.28.919-.42 1.526-.42.42 0 .821.079 1.204.238.392.149.733.383 1.022.7.299.308.532.7.7 1.176.177.467.266 1.017.266 1.652 0 .644-.089 1.204-.266 1.68a3.494 3.494 0 0 1-.714 1.176 3.002 3.002 0 0 1-1.036.7 3.44 3.44 0 0 1-1.232.224Zm-.182-1.106c.644 0 1.162-.219 1.554-.658.401-.448.602-1.12.602-2.016 0-.877-.201-1.54-.602-1.988-.392-.457-.91-.686-1.554-.686-.317 0-.616.056-.896.168a1.99 1.99 0 0 0-.714.504c-.196.215-.355.49-.476.826a3.723 3.723 0 0 0-.168 1.176c0 .448.056.84.168 1.176.121.336.28.616.476.84.205.224.443.392.714.504.28.103.579.154.896.154Zm7.905 1.106c-.495 0-.957-.084-1.386-.252a3.224 3.224 0 0 1-1.12-.728 3.542 3.542 0 0 1-.728-1.19c-.178-.467-.266-1.003-.266-1.61 0-.597.088-1.129.266-1.596.177-.476.42-.873.728-1.19.317-.317.69-.56 1.12-.728a3.767 3.767 0 0 1 1.386-.252c.504 0 .97.084 1.4.252.429.168.798.411 1.106.728.317.317.564.714.742 1.19.186.467.28.999.28 1.596 0 .607-.094 1.143-.28 1.61a3.448 3.448 0 0 1-.742 1.19c-.308.317-.677.56-1.106.728-.43.168-.896.252-1.4.252Zm0-1.106c.326 0 .625-.051.896-.154.28-.112.522-.275.728-.49.205-.224.364-.504.476-.84.112-.336.168-.733.168-1.19 0-.457-.056-.854-.168-1.19a2.17 2.17 0 0 0-.476-.826 1.838 1.838 0 0 0-.728-.49 2.325 2.325 0 0 0-.896-.168c-.327 0-.626.056-.896.168a1.849 1.849 0 0 0-.714.49c-.196.215-.35.49-.462.826a3.775 3.775 0 0 0-.168 1.19c0 .457.056.854.168 1.19.112.336.266.616.462.84.205.215.443.378.714.49.27.103.569.154.896.154Zm5.029-6.3h5.824V198h-1.232v-6.216h-3.36V198h-1.232v-7.266Zm11.404 7.182a8.282 8.282 0 0 1-.532 1.148 3.776 3.776 0 0 1-.63.854 2.248 2.248 0 0 1-.784.518c-.289.121-.62.182-.994.182-.186 0-.359-.014-.518-.042a1.58 1.58 0 0 1-.434-.112v-1.19c.103.075.234.131.392.168.159.047.332.07.518.07.346 0 .63-.084.854-.252.224-.159.439-.415.644-.77l-2.954-7.756h1.358l2.31 6.132 2.296-6.132h1.19l-2.716 7.182Zm6.935.224c-.56 0-1.068-.084-1.526-.252a3.345 3.345 0 0 1-1.148-.742 3.277 3.277 0 0 1-.728-1.19c-.168-.467-.252-.999-.252-1.596 0-.588.084-1.115.252-1.582.178-.467.425-.859.742-1.176a3.073 3.073 0 0 1 1.162-.742 4.284 4.284 0 0 1 1.554-.266c.448 0 .859.051 1.232.154.374.093.682.233.924.42v1.106a3.243 3.243 0 0 0-1.008-.434 4.145 4.145 0 0 0-1.134-.154c-.849 0-1.474.219-1.876.658-.392.439-.588 1.111-.588 2.016s.192 1.577.574 2.016c.383.439.99.658 1.82.658.439 0 .84-.051 1.204-.154.374-.112.71-.252 1.008-.42v1.106a4.29 4.29 0 0 1-2.212.574Zm5.74-3.234h-.644V198h-1.232v-7.266h1.232v3.122h.7l2.548-3.122h1.4l-2.982 3.584 3.038 3.682h-1.498l-2.562-3.094Zm9.476 1.708a4.24 4.24 0 0 1-.322.532 2.444 2.444 0 0 1-1.19.854c-.261.093-.569.14-.924.14-.653 0-1.181-.182-1.582-.546-.401-.373-.602-.905-.602-1.596 0-.793.275-1.377.826-1.75.56-.373 1.353-.56 2.38-.56h1.358v-.602c0-.504-.131-.863-.392-1.078-.261-.215-.709-.322-1.344-.322a3.63 3.63 0 0 0-1.274.224c-.401.14-.761.303-1.078.49v-1.106a5.383 5.383 0 0 1 1.05-.462 4.367 4.367 0 0 1 1.47-.238c.915 0 1.61.191 2.086.574.476.373.714.957.714 1.75v4.2c.009.103.014.21.014.322l.028.322c.009.093.019.173.028.238h-1.12a6.439 6.439 0 0 1-.084-.546 8.21 8.21 0 0 1-.028-.63l-.014-.21Zm-2.17.42c.383 0 .709-.079.98-.238.271-.159.49-.341.658-.546.168-.215.289-.42.364-.616.075-.205.112-.35.112-.434v-.532h-1.232c-.737 0-1.274.107-1.61.322-.327.205-.49.518-.49.938 0 .327.098.593.294.798.196.205.504.308.924.308Zm10.029-2.254h-3.514V198h-1.232v-7.266h1.232v2.996h3.514v-2.996h1.232V198h-1.232v-3.22Zm4.484 1.54 3.878-5.586h1.246V198h-1.232v-5.572L279.839 198h-1.26v-7.266h1.232v5.586Zm7.135-3.234c0-.411.075-.761.224-1.05.15-.299.36-.541.63-.728.271-.196.593-.341.966-.434.374-.093.78-.14 1.218-.14h2.338V198h-1.232v-2.632h-1.33L287.898 198h-1.47l2.1-2.94c-.504-.149-.896-.378-1.176-.686-.27-.308-.406-.737-.406-1.288Zm4.144 1.232v-2.534h-1.106c-.522 0-.952.098-1.288.294-.336.196-.504.513-.504.952 0 .457.15.789.448.994.299.196.724.294 1.274.294h1.176ZM426.264 171.962h7.546V182h-1.33v-8.834h-4.9V182h-1.316v-10.038Zm12.699 10.178c-.495 0-.957-.084-1.386-.252a3.224 3.224 0 0 1-1.12-.728 3.542 3.542 0 0 1-.728-1.19c-.178-.467-.266-1.003-.266-1.61 0-.597.088-1.129.266-1.596.177-.476.42-.873.728-1.19.317-.317.69-.56 1.12-.728a3.767 3.767 0 0 1 1.386-.252c.504 0 .97.084 1.4.252.429.168.798.411 1.106.728.317.317.564.714.742 1.19.186.467.28.999.28 1.596 0 .607-.094 1.143-.28 1.61a3.448 3.448 0 0 1-.742 1.19c-.308.317-.677.56-1.106.728-.43.168-.896.252-1.4.252Zm0-1.106c.326 0 .625-.051.896-.154.28-.112.522-.275.728-.49.205-.224.364-.504.476-.84.112-.336.168-.733.168-1.19 0-.457-.056-.854-.168-1.19a2.17 2.17 0 0 0-.476-.826 1.838 1.838 0 0 0-.728-.49 2.325 2.325 0 0 0-.896-.168c-.327 0-.626.056-.896.168a1.849 1.849 0 0 0-.714.49c-.196.215-.35.49-.462.826a3.775 3.775 0 0 0-.168 1.19c0 .457.056.854.168 1.19.112.336.266.616.462.84.205.215.443.378.714.49.27.103.569.154.896.154Zm5.384-1.288c.131-.476.215-1.12.252-1.932.038-.812.056-1.839.056-3.08h4.886V182h-1.246v-6.216h-2.478a42.616 42.616 0 0 1-.098 2.66c-.046.775-.154 1.428-.322 1.96-.158.532-.396.938-.714 1.218-.308.271-.723.406-1.246.406h-.112a.682.682 0 0 1-.126-.014v-1.218a.996.996 0 0 0 .182.014c.476 0 .798-.355.966-1.064Zm10.174 2.394c-.494 0-.956-.084-1.386-.252a3.242 3.242 0 0 1-1.12-.728 3.558 3.558 0 0 1-.728-1.19c-.177-.467-.266-1.003-.266-1.61 0-.597.089-1.129.266-1.596.178-.476.42-.873.728-1.19.318-.317.691-.56 1.12-.728.43-.168.892-.252 1.386-.252.504 0 .971.084 1.4.252.43.168.798.411 1.106.728.318.317.565.714.742 1.19.187.467.28.999.28 1.596 0 .607-.093 1.143-.28 1.61a3.418 3.418 0 0 1-.742 1.19c-.308.317-.676.56-1.106.728a3.807 3.807 0 0 1-1.4.252Zm0-1.106c.327 0 .626-.051.896-.154a2.04 2.04 0 0 0 .728-.49 2.29 2.29 0 0 0 .476-.84c.112-.336.168-.733.168-1.19 0-.457-.056-.854-.168-1.19a2.158 2.158 0 0 0-.476-.826 1.831 1.831 0 0 0-.728-.49 2.318 2.318 0 0 0-.896-.168c-.326 0-.625.056-.896.168-.27.103-.508.266-.714.49-.196.215-.35.49-.462.826a3.775 3.775 0 0 0-.168 1.19c0 .457.056.854.168 1.19.112.336.266.616.462.84.206.215.444.378.714.49.271.103.57.154.896.154Zm8.166 1.106c-.56 0-1.069-.084-1.526-.252a3.335 3.335 0 0 1-1.148-.742 3.277 3.277 0 0 1-.728-1.19c-.168-.467-.252-.999-.252-1.596 0-.588.084-1.115.252-1.582.177-.467.425-.859.742-1.176a3.065 3.065 0 0 1 1.162-.742 4.277 4.277 0 0 1 1.554-.266c.448 0 .859.051 1.232.154.373.093.681.233.924.42v1.106a3.263 3.263 0 0 0-1.008-.434 4.145 4.145 0 0 0-1.134-.154c-.849 0-1.475.219-1.876.658-.392.439-.588 1.111-.588 2.016s.191 1.577.574 2.016c.383.439.989.658 1.82.658.439 0 .84-.051 1.204-.154a4.969 4.969 0 0 0 1.008-.42v1.106a4.29 4.29 0 0 1-2.212.574Zm8.12-1.526a4.24 4.24 0 0 1-.322.532 2.444 2.444 0 0 1-1.19.854c-.261.093-.569.14-.924.14-.653 0-1.181-.182-1.582-.546-.401-.373-.602-.905-.602-1.596 0-.793.275-1.377.826-1.75.56-.373 1.353-.56 2.38-.56h1.358v-.602c0-.504-.131-.863-.392-1.078-.261-.215-.709-.322-1.344-.322a3.63 3.63 0 0 0-1.274.224c-.401.14-.761.303-1.078.49v-1.106a5.383 5.383 0 0 1 1.05-.462 4.367 4.367 0 0 1 1.47-.238c.915 0 1.61.191 2.086.574.476.373.714.957.714 1.75v4.2c.009.103.014.21.014.322l.028.322c.009.093.019.173.028.238h-1.12a6.439 6.439 0 0 1-.084-.546 8.21 8.21 0 0 1-.028-.63l-.014-.21Zm-2.17.42c.383 0 .709-.079.98-.238.271-.159.49-.341.658-.546.168-.215.289-.42.364-.616.075-.205.112-.35.112-.434v-.532h-1.232c-.737 0-1.274.107-1.61.322-.327.205-.49.518-.49.938 0 .327.098.593.294.798.196.205.504.308.924.308Zm-60.964 9.7h5.824V198h-1.232v-6.216h-3.36V198h-1.232v-7.266Zm11.488 7.406c-.56 0-1.045-.131-1.456-.392a2.856 2.856 0 0 1-.966-1.078v3.808h-1.232v-9.744h1.078l.126 1.414a2.98 2.98 0 0 1 .98-1.134c.411-.28.919-.42 1.526-.42.42 0 .821.079 1.204.238.392.149.733.383 1.022.7.299.308.532.7.7 1.176.177.467.266 1.017.266 1.652 0 .644-.089 1.204-.266 1.68a3.494 3.494 0 0 1-.714 1.176 3.002 3.002 0 0 1-1.036.7 3.44 3.44 0 0 1-1.232.224Zm-.182-1.106c.644 0 1.162-.219 1.554-.658.401-.448.602-1.12.602-2.016 0-.877-.201-1.54-.602-1.988-.392-.457-.91-.686-1.554-.686-.317 0-.616.056-.896.168a1.99 1.99 0 0 0-.714.504c-.196.215-.355.49-.476.826a3.723 3.723 0 0 0-.168 1.176c0 .448.056.84.168 1.176.121.336.28.616.476.84.205.224.443.392.714.504.28.103.579.154.896.154Zm7.905 1.106c-.495 0-.957-.084-1.386-.252a3.224 3.224 0 0 1-1.12-.728 3.542 3.542 0 0 1-.728-1.19c-.178-.467-.266-1.003-.266-1.61 0-.597.088-1.129.266-1.596.177-.476.42-.873.728-1.19.317-.317.69-.56 1.12-.728a3.767 3.767 0 0 1 1.386-.252c.504 0 .97.084 1.4.252.429.168.798.411 1.106.728.317.317.564.714.742 1.19.186.467.28.999.28 1.596 0 .607-.094 1.143-.28 1.61a3.448 3.448 0 0 1-.742 1.19c-.308.317-.677.56-1.106.728-.43.168-.896.252-1.4.252Zm0-1.106c.326 0 .625-.051.896-.154.28-.112.522-.275.728-.49.205-.224.364-.504.476-.84.112-.336.168-.733.168-1.19 0-.457-.056-.854-.168-1.19a2.17 2.17 0 0 0-.476-.826 1.838 1.838 0 0 0-.728-.49 2.325 2.325 0 0 0-.896-.168c-.327 0-.626.056-.896.168a1.849 1.849 0 0 0-.714.49c-.196.215-.35.49-.462.826a3.775 3.775 0 0 0-.168 1.19c0 .457.056.854.168 1.19.112.336.266.616.462.84.205.215.443.378.714.49.27.103.569.154.896.154Zm5.029-6.3h5.824V198h-1.232v-6.216h-3.36V198h-1.232v-7.266Zm11.404 7.182a8.282 8.282 0 0 1-.532 1.148 3.776 3.776 0 0 1-.63.854 2.248 2.248 0 0 1-.784.518c-.289.121-.62.182-.994.182-.186 0-.359-.014-.518-.042a1.58 1.58 0 0 1-.434-.112v-1.19c.103.075.234.131.392.168.159.047.332.07.518.07.346 0 .63-.084.854-.252.224-.159.439-.415.644-.77l-2.954-7.756h1.358l2.31 6.132 2.296-6.132h1.19l-2.716 7.182Zm6.935.224c-.56 0-1.068-.084-1.526-.252a3.345 3.345 0 0 1-1.148-.742 3.277 3.277 0 0 1-.728-1.19c-.168-.467-.252-.999-.252-1.596 0-.588.084-1.115.252-1.582.178-.467.425-.859.742-1.176a3.073 3.073 0 0 1 1.162-.742 4.284 4.284 0 0 1 1.554-.266c.448 0 .859.051 1.232.154.374.093.682.233.924.42v1.106a3.243 3.243 0 0 0-1.008-.434 4.145 4.145 0 0 0-1.134-.154c-.849 0-1.474.219-1.876.658-.392.439-.588 1.111-.588 2.016s.192 1.577.574 2.016c.383.439.99.658 1.82.658.439 0 .84-.051 1.204-.154.374-.112.71-.252 1.008-.42v1.106a4.29 4.29 0 0 1-2.212.574Zm5.74-3.234h-.644V198h-1.232v-7.266h1.232v3.122h.7l2.548-3.122h1.4l-2.982 3.584 3.038 3.682h-1.498l-2.562-3.094Zm9.476 1.708a4.24 4.24 0 0 1-.322.532 2.444 2.444 0 0 1-1.19.854c-.261.093-.569.14-.924.14-.653 0-1.181-.182-1.582-.546-.401-.373-.602-.905-.602-1.596 0-.793.275-1.377.826-1.75.56-.373 1.353-.56 2.38-.56h1.358v-.602c0-.504-.131-.863-.392-1.078-.261-.215-.709-.322-1.344-.322a3.63 3.63 0 0 0-1.274.224c-.401.14-.761.303-1.078.49v-1.106a5.383 5.383 0 0 1 1.05-.462 4.367 4.367 0 0 1 1.47-.238c.915 0 1.61.191 2.086.574.476.373.714.957.714 1.75v4.2c.009.103.014.21.014.322l.028.322c.009.093.019.173.028.238h-1.12a6.439 6.439 0 0 1-.084-.546 8.21 8.21 0 0 1-.028-.63l-.014-.21Zm-2.17.42c.383 0 .709-.079.98-.238.271-.159.49-.341.658-.546.168-.215.289-.42.364-.616.075-.205.112-.35.112-.434v-.532h-1.232c-.737 0-1.274.107-1.61.322-.327.205-.49.518-.49.938 0 .327.098.593.294.798.196.205.504.308.924.308Zm10.029-2.254h-3.514V198h-1.232v-7.266h1.232v2.996h3.514v-2.996h1.232V198h-1.232v-3.22Zm4.484 1.54 3.878-5.586h1.246V198h-1.232v-5.572L477.839 198h-1.26v-7.266h1.232v5.586Zm7.135-3.234c0-.411.075-.761.224-1.05.15-.299.36-.541.63-.728.271-.196.593-.341.966-.434.374-.093.78-.14 1.218-.14h2.338V198h-1.232v-2.632h-1.33L485.898 198h-1.47l2.1-2.94c-.504-.149-.896-.378-1.176-.686-.27-.308-.406-.737-.406-1.288Zm4.144 1.232v-2.534h-1.106c-.522 0-.952.098-1.288.294-.336.196-.504.513-.504.952 0 .457.15.789.448.994.299.196.724.294 1.274.294h1.176Z"/><g clip-path="url(#b)"><path fill="#5282FF" fill-rule="evenodd" d="M349.5 132c12.419 0 22.5 10.08 22.5 22.5S361.919 177 349.5 177 327 166.92 327 154.5s10.081-22.5 22.5-22.5Z" clip-rule="evenodd"/><path stroke="#fff" stroke-linecap="round" stroke-width="2" d="m340 145 19 19M359 145l-19 19"/></g><defs><clipPath id="b"><path fill="#fff" d="M327 132h45v45h-45z"/></clipPath><filter id="a" width="684" height="210" x="8" y="10" color-interpolation-filters="sRGB" filterUnits="userSpaceOnUse"><feFlood flood-opacity="0" result="BackgroundImageFix"/><feColorMatrix in="SourceAlpha" result="hardAlpha" values="0 0 0 0 0 0 0 0 0 0 0 0 0 0 0 0 0 0 127 0"/><feOffset/><feGaussianBlur stdDeviation="4"/><feColorMatrix values="0 0 0 0 0.321569 0 0 0 0 0.509804 0 0 0 0 1 0 0 0 0.3 0"/><feBlend in2="BackgroundImageFix" result="effect1_dropShadow_5_115"/><feBlend in="SourceGraphic" in2="effect1_dropShadow_5_115" result="shape"/></filter></defs></svg>