<svg xmlns="http://www.w3.org/2000/svg" width="700" height="410" fill="none" viewBox="0 0 700 410">
    <g clip-path="url(#clip0_104_145)">
        <g filter="url(#filter0_d_104_145)">
            <rect width="296" height="193" x="6" y="210" fill="#fff" rx="5"/>
        </g>
        <rect width="90" height="153" x="207" y="245" fill="#fff" stroke="#5282FF" stroke-width="2" rx="4"/>
        <g filter="url(#filter1_d_104_145)">
            <rect width="80" height="143" x="16" y="250" fill="#fff" rx="5"/>
        </g>
        <path fill="#262626" d="M30.908 268.1c-.4 0-.763-.06-1.09-.18a2.385 2.385 0 0 1-.82-.53 2.338 2.338 0 0 1-.52-.85 3.35 3.35 0 0 1-.18-1.14c0-.42.06-.797.18-1.13.127-.333.304-.613.53-.84.227-.233.504-.41.83-.53.327-.127.697-.19 1.11-.19.32 0 .614.037.88.11.267.067.487.167.66.3v.79a2.339 2.339 0 0 0-.72-.31c-.26-.073-.53-.11-.81-.11-.606 0-1.053.157-1.34.47-.28.313-.42.793-.42 1.44 0 .647.137 1.127.41 1.44.274.313.707.47 1.3.47.314 0 .6-.037.86-.11.267-.08.507-.18.72-.3v.79a3.065 3.065 0 0 1-1.58.41Zm5.983-1.03c-.14.293-.357.54-.65.74-.287.193-.663.29-1.13.29-.48 0-.87-.133-1.17-.4-.294-.273-.44-.693-.44-1.26v-3.63h.89v3.63c0 .173.023.317.07.43a.74.74 0 0 0 .51.4c.12.027.25.04.39.04.387 0 .697-.087.93-.26.233-.173.433-.41.6-.71v-3.53h.88V268h-.78l-.08-.93h-.02Zm3.984 1.03c-.273 0-.517-.023-.73-.07a3.43 3.43 0 0 1-.55-.15 3 3 0 0 1-.39-.2 2.643 2.643 0 0 1-.25-.19v-.79c.067.067.157.14.27.22.114.073.25.143.41.21.16.067.34.123.54.17.207.04.437.06.69.06.373 0 .67-.06.89-.18.22-.12.33-.323.33-.61a.582.582 0 0 0-.11-.37.667.667 0 0 0-.28-.22 1.71 1.71 0 0 0-.42-.14 20.236 20.236 0 0 1-1.14-.25 2.265 2.265 0 0 1-.58-.25 1.361 1.361 0 0 1-.42-.43c-.106-.18-.16-.413-.16-.7 0-.467.18-.833.54-1.1.367-.267.877-.4 1.53-.4.367 0 .69.037.97.11.287.073.507.153.66.24v.79a2.353 2.353 0 0 0-.65-.28c-.253-.08-.57-.12-.95-.12-.393 0-.697.053-.91.16-.206.107-.31.3-.31.58 0 .14.03.253.09.34.06.08.14.147.24.2.107.047.227.083.36.11.133.027.273.057.42.09.227.047.46.097.7.15.24.053.453.137.64.25.194.113.35.267.47.46.127.187.19.44.19.76 0 .3-.06.55-.18.75-.12.2-.28.36-.48.48a2.062 2.062 0 0 1-.67.24c-.246.053-.5.08-.76.08Zm5.714-.21c-.107.06-.243.11-.41.15-.167.04-.343.06-.53.06a1.73 1.73 0 0 1-.65-.11 1.249 1.249 0 0 1-.43-.29 1.24 1.24 0 0 1-.25-.42 1.738 1.738 0 0 1-.07-.49v-3.23h-.62v-.75h.62v-1.09h.88v1.09h1.51v.75h-1.51v3.12c0 .22.053.38.16.48.113.1.31.15.59.15.26 0 .497-.073.71-.22v.8Zm3.252.21c-.353 0-.683-.06-.99-.18a2.301 2.301 0 0 1-.8-.52 2.534 2.534 0 0 1-.52-.85 3.223 3.223 0 0 1-.19-1.15c0-.427.063-.807.19-1.14.127-.34.3-.623.52-.85.227-.227.493-.4.8-.52.307-.12.637-.18.99-.18.36 0 .694.06 1 .18.307.12.57.293.79.52.227.227.404.51.53.85.133.333.2.713.2 1.14 0 .433-.066.817-.2 1.15a2.452 2.452 0 0 1-.53.85c-.22.227-.483.4-.79.52-.306.12-.64.18-1 .18Zm0-.79c.233 0 .447-.037.64-.11.2-.08.373-.197.52-.35.147-.16.26-.36.34-.6.08-.24.12-.523.12-.85 0-.327-.04-.61-.12-.85a1.543 1.543 0 0 0-.34-.59 1.304 1.304 0 0 0-.52-.35 1.658 1.658 0 0 0-.64-.12c-.233 0-.447.04-.64.12-.193.073-.363.19-.51.35-.14.153-.25.35-.33.59-.08.24-.12.523-.12.85 0 .327.04.61.12.85.08.24.19.44.33.6.147.153.317.27.51.35.194.073.407.11.64.11Zm4.473.69h-.88v-5.19h.77l.09.93h.02c.14-.293.35-.537.63-.73.28-.2.646-.3 1.1-.3.4 0 .727.097.98.29.26.187.433.47.52.85a1.8 1.8 0 0 1 .67-.83c.306-.207.677-.31 1.11-.31.48 0 .86.137 1.14.41.28.267.42.68.42 1.24V268h-.89v-3.53c0-.34-.084-.587-.25-.74-.167-.16-.394-.24-.68-.24-.194 0-.364.03-.51.09a1.2 1.2 0 0 0-.39.23 1.98 1.98 0 0 0-.31.35c-.093.133-.18.273-.26.42V268h-.88v-3.63c0-.333-.084-.563-.25-.69-.167-.127-.393-.19-.68-.19-.187 0-.353.023-.5.07-.147.047-.28.113-.4.2a1.572 1.572 0 0 0-.31.32c-.093.12-.18.253-.26.4V268Zm12.078-.44a2.844 2.844 0 0 1-.66.35 3.289 3.289 0 0 1-.52.13c-.193.04-.41.06-.65.06-.873 0-1.537-.237-1.99-.71-.453-.473-.68-1.137-.68-1.99 0-.42.06-.797.18-1.13.127-.333.3-.613.52-.84.22-.233.48-.41.78-.53.3-.127.627-.19.98-.19.373 0 .707.063 1 .19.293.127.533.313.72.56.193.247.323.553.39.92.073.36.073.78 0 1.26h-3.66c.033.56.2.98.5 1.26.3.273.747.41 1.34.41.4 0 .743-.057 1.03-.17a3.59 3.59 0 0 0 .72-.37v.79Zm-2.06-4.07c-.38 0-.707.117-.98.35-.273.233-.447.587-.52 1.06h2.79c.027-.48-.083-.833-.33-1.06-.247-.233-.567-.35-.96-.35Zm5.803.2c-.374.033-.714.13-1.02.29a1.44 1.44 0 0 0-.67.72v3.3h-.88v-5.19h.77l.09 1.13h.02c.146-.307.356-.573.63-.8.28-.233.633-.377 1.06-.43v.98Zm.252 4.71h4.1v.75h-4.1v-.75Zm5.777-7.57V268h-.94v-7.17h.94Zm1.667 0h2.41c.48 0 .927.057 1.34.17.413.113.773.3 1.08.56.307.26.547.603.72 1.03.174.427.26.953.26 1.58 0 .633-.09 1.19-.27 1.67a3.28 3.28 0 0 1-.73 1.19c-.306.32-.677.563-1.11.73-.427.16-.893.24-1.4.24h-2.3v-7.17Zm.94.86v5.46h1.36a2.9 2.9 0 0 0 1.01-.17c.307-.113.57-.287.79-.52.22-.24.39-.543.51-.91s.18-.803.18-1.31c0-.5-.06-.913-.18-1.24-.12-.333-.287-.597-.5-.79a1.67 1.67 0 0 0-.75-.4 3.6 3.6 0 0 0-.95-.12h-1.47Z"/>
        <rect width="64" height="28" x="24" y="281" fill="#fff" stroke="#5282FF" stroke-width="2" rx="4"/>
        <path fill="#000" fill-opacity=".85" d="M50.523 298.1c-.34 0-.657-.07-.95-.21a2.098 2.098 0 0 1-.75-.67c-.207-.307-.37-.69-.49-1.15-.12-.467-.18-1.02-.18-1.66 0-.64.06-1.19.18-1.65.12-.467.283-.85.49-1.15.213-.3.463-.52.75-.66.293-.14.61-.21.95-.21.34 0 .653.07.94.21.287.14.533.36.74.66.207.293.367.67.48 1.13.12.46.18 1.01.18 1.65 0 .64-.06 1.193-.18 1.66-.113.46-.273.843-.48 1.15a1.987 1.987 0 0 1-.74.68c-.287.147-.6.22-.94.22Zm-.01-.79c.227 0 .427-.05.6-.15.173-.1.32-.263.44-.49.12-.227.21-.523.27-.89.067-.373.1-.827.1-1.36 0-.533-.03-.983-.09-1.35-.06-.373-.15-.673-.27-.9a1.181 1.181 0 0 0-.44-.49c-.173-.1-.373-.15-.6-.15-.227 0-.43.05-.61.15-.173.1-.323.263-.45.49-.12.227-.213.527-.28.9a8.55 8.55 0 0 0-.09 1.35c0 .533.03.987.09 1.36.067.367.16.663.28.89.12.227.267.39.44.49.18.1.383.15.61.15Zm5.508.79c-.34 0-.657-.07-.95-.21a2.096 2.096 0 0 1-.75-.67c-.207-.307-.37-.69-.49-1.15-.12-.467-.18-1.02-.18-1.66 0-.64.06-1.19.18-1.65.12-.467.283-.85.49-1.15.213-.3.463-.52.75-.66.293-.14.61-.21.95-.21.34 0 .653.07.94.21.287.14.533.36.74.66.207.293.367.67.48 1.13.12.46.18 1.01.18 1.65 0 .64-.06 1.193-.18 1.66-.113.46-.273.843-.48 1.15a1.988 1.988 0 0 1-.74.68c-.287.147-.6.22-.94.22Zm-.01-.79c.227 0 .427-.05.6-.15.173-.1.32-.263.44-.49.12-.227.21-.523.27-.89.067-.373.1-.827.1-1.36 0-.533-.03-.983-.09-1.35-.06-.373-.15-.673-.27-.9a1.18 1.18 0 0 0-.44-.49 1.18 1.18 0 0 0-.6-.15c-.227 0-.43.05-.61.15-.173.1-.323.263-.45.49-.12.227-.213.527-.28.9a8.55 8.55 0 0 0-.09 1.35c0 .533.03.987.09 1.36.067.367.16.663.28.89.12.227.267.39.44.49.18.1.383.15.61.15Zm6.458.69h-.91v-6.04l-1.98 1.52v-1.01l2.13-1.64h.76V298Z"/>
        <rect width="64" height="28" x="24" y="319" fill="#fff" stroke="#5282FF" stroke-width="2" rx="4"/>
        <path fill="#000" fill-opacity=".85" d="M50.523 336.1c-.34 0-.657-.07-.95-.21a2.098 2.098 0 0 1-.75-.67c-.207-.307-.37-.69-.49-1.15-.12-.467-.18-1.02-.18-1.66 0-.64.06-1.19.18-1.65.12-.467.283-.85.49-1.15.213-.3.463-.52.75-.66.293-.14.61-.21.95-.21.34 0 .653.07.94.21.287.14.533.36.74.66.207.293.367.67.48 1.13.12.46.18 1.01.18 1.65 0 .64-.06 1.193-.18 1.66-.113.46-.273.843-.48 1.15a1.987 1.987 0 0 1-.74.68c-.287.147-.6.22-.94.22Zm-.01-.79c.227 0 .427-.05.6-.15.173-.1.32-.263.44-.49.12-.227.21-.523.27-.89.067-.373.1-.827.1-1.36 0-.533-.03-.983-.09-1.35-.06-.373-.15-.673-.27-.9a1.181 1.181 0 0 0-.44-.49c-.173-.1-.373-.15-.6-.15-.227 0-.43.05-.61.15-.173.1-.323.263-.45.49-.12.227-.213.527-.28.9a8.55 8.55 0 0 0-.09 1.35c0 .533.03.987.09 1.36.067.367.16.663.28.89.12.227.267.39.44.49.18.1.383.15.61.15Zm5.508.79c-.34 0-.657-.07-.95-.21a2.096 2.096 0 0 1-.75-.67c-.207-.307-.37-.69-.49-1.15-.12-.467-.18-1.02-.18-1.66 0-.64.06-1.19.18-1.65.12-.467.283-.85.49-1.15.213-.3.463-.52.75-.66.293-.14.61-.21.95-.21.34 0 .653.07.94.21.287.14.533.36.74.66.207.293.367.67.48 1.13.12.46.18 1.01.18 1.65 0 .64-.06 1.193-.18 1.66-.113.46-.273.843-.48 1.15a1.988 1.988 0 0 1-.74.68c-.287.147-.6.22-.94.22Zm-.01-.79c.227 0 .427-.05.6-.15.173-.1.32-.263.44-.49.12-.227.21-.523.27-.89.067-.373.1-.827.1-1.36 0-.533-.03-.983-.09-1.35-.06-.373-.15-.673-.27-.9a1.18 1.18 0 0 0-.44-.49 1.18 1.18 0 0 0-.6-.15c-.227 0-.43.05-.61.15-.173.1-.323.263-.45.49-.12.227-.213.527-.28.9a8.55 8.55 0 0 0-.09 1.35c0 .533.03.987.09 1.36.067.367.16.663.28.89.12.227.267.39.44.49.18.1.383.15.61.15Zm7.798.69h-4.57v-.95c.607-.487 1.13-.92 1.57-1.3.447-.38.813-.73 1.1-1.05.287-.32.5-.623.64-.91.14-.293.21-.597.21-.91 0-.393-.12-.71-.36-.95-.233-.247-.577-.37-1.03-.37-.38 0-.733.093-1.06.28-.327.187-.62.423-.88.71v-1.01a3.04 3.04 0 0 1 .86-.59c.32-.147.69-.22 1.11-.22a3 3 0 0 1 .99.15c.293.1.537.24.73.42.2.18.35.397.45.65.107.253.16.533.16.84 0 .387-.077.75-.23 1.09-.147.34-.367.68-.66 1.02a9.82 9.82 0 0 1-1.09 1.06c-.427.36-.917.753-1.47 1.18h3.53v.86Z"/>
        <rect width="64" height="28" x="24" y="357" fill="#fff" stroke="#5282FF" stroke-width="2" rx="4"/>
        <path fill="#000" fill-opacity=".85" d="M50.523 374.1c-.34 0-.657-.07-.95-.21a2.098 2.098 0 0 1-.75-.67c-.207-.307-.37-.69-.49-1.15-.12-.467-.18-1.02-.18-1.66 0-.64.06-1.19.18-1.65.12-.467.283-.85.49-1.15.213-.3.463-.52.75-.66.293-.14.61-.21.95-.21.34 0 .653.07.94.21.287.14.533.36.74.66.207.293.367.67.48 1.13.12.46.18 1.01.18 1.65 0 .64-.06 1.193-.18 1.66-.113.46-.273.843-.48 1.15a1.987 1.987 0 0 1-.74.68c-.287.147-.6.22-.94.22Zm-.01-.79c.227 0 .427-.05.6-.15.173-.1.32-.263.44-.49.12-.227.21-.523.27-.89.067-.373.1-.827.1-1.36 0-.533-.03-.983-.09-1.35-.06-.373-.15-.673-.27-.9a1.181 1.181 0 0 0-.44-.49c-.173-.1-.373-.15-.6-.15-.227 0-.43.05-.61.15-.173.1-.323.263-.45.49-.12.227-.213.527-.28.9a8.55 8.55 0 0 0-.09 1.35c0 .533.03.987.09 1.36.067.367.16.663.28.89.12.227.267.39.44.49.18.1.383.15.61.15Zm5.508.79c-.34 0-.657-.07-.95-.21a2.096 2.096 0 0 1-.75-.67c-.207-.307-.37-.69-.49-1.15-.12-.467-.18-1.02-.18-1.66 0-.64.06-1.19.18-1.65.12-.467.283-.85.49-1.15.213-.3.463-.52.75-.66.293-.14.61-.21.95-.21.34 0 .653.07.94.21.287.14.533.36.74.66.207.293.367.67.48 1.13.12.46.18 1.01.18 1.65 0 .64-.06 1.193-.18 1.66-.113.46-.273.843-.48 1.15a1.988 1.988 0 0 1-.74.68c-.287.147-.6.22-.94.22Zm-.01-.79c.227 0 .427-.05.6-.15.173-.1.32-.263.44-.49.12-.227.21-.523.27-.89.067-.373.1-.827.1-1.36 0-.533-.03-.983-.09-1.35-.06-.373-.15-.673-.27-.9a1.18 1.18 0 0 0-.44-.49 1.18 1.18 0 0 0-.6-.15c-.227 0-.43.05-.61.15-.173.1-.323.263-.45.49-.12.227-.213.527-.28.9a8.55 8.55 0 0 0-.09 1.35c0 .533.03.987.09 1.36.067.367.16.663.28.89.12.227.267.39.44.49.18.1.383.15.61.15Zm7.858-1.38c0 .333-.063.633-.19.9a2.05 2.05 0 0 1-.53.69c-.227.187-.497.33-.81.43-.313.1-.66.15-1.04.15-.467 0-.87-.057-1.21-.17a2.495 2.495 0 0 1-.83-.44v-1c.213.213.493.4.84.56.347.153.75.23 1.21.23.493 0 .88-.117 1.16-.35.287-.233.43-.56.43-.98 0-.4-.127-.71-.38-.93-.253-.227-.65-.34-1.19-.34h-.92v-.85h.96c.38 0 .687-.1.92-.3.233-.2.35-.49.35-.87 0-.34-.11-.607-.33-.8-.22-.2-.537-.3-.95-.3-.427 0-.793.08-1.1.24-.3.16-.573.347-.82.56v-.98c.233-.193.51-.35.83-.47.32-.12.687-.18 1.1-.18.34 0 .647.047.92.14.273.087.503.213.69.38.193.167.34.367.44.6.1.227.15.48.15.76 0 .227-.033.43-.1.61a1.44 1.44 0 0 1-.28.47 1.638 1.638 0 0 1-.4.34c-.153.087-.317.15-.49.19.207.033.403.097.59.19.193.093.363.213.51.36.147.14.26.31.34.51.087.193.13.41.13.65Z"/>
        <g filter="url(#filter2_d_104_145)">
            <rect width="80" height="143" x="114" y="250" fill="#fff" rx="5"/>
        </g>
        <path fill="#262626" d="M132.436 268.1c-.353 0-.683-.06-.99-.18a2.301 2.301 0 0 1-.8-.52 2.54 2.54 0 0 1-.52-.85 3.217 3.217 0 0 1-.19-1.15c0-.427.063-.807.19-1.14.127-.34.3-.623.52-.85.227-.227.493-.4.8-.52.307-.12.637-.18.99-.18.36 0 .693.06 1 .18.307.12.57.293.79.52.227.227.403.51.53.85.133.333.2.713.2 1.14 0 .433-.067.817-.2 1.15a2.452 2.452 0 0 1-.53.85c-.22.227-.483.4-.79.52-.307.12-.64.18-1 .18Zm0-.79c.233 0 .447-.037.64-.11.2-.08.373-.197.52-.35.147-.16.26-.36.34-.6.08-.24.12-.523.12-.85 0-.327-.04-.61-.12-.85a1.539 1.539 0 0 0-.34-.59 1.306 1.306 0 0 0-.52-.35 1.658 1.658 0 0 0-.64-.12c-.233 0-.447.04-.64.12-.193.073-.363.19-.51.35-.14.153-.25.35-.33.59-.08.24-.12.523-.12.85 0 .327.04.61.12.85.08.24.19.44.33.6.147.153.317.27.51.35.193.073.407.11.64.11Zm6.163-3.62c-.374.033-.714.13-1.02.29-.3.153-.524.393-.67.72v3.3h-.88v-5.19h.77l.09 1.13h.02c.146-.307.356-.573.63-.8.28-.233.633-.377 1.06-.43v.98Zm4.743 3.29c-.16.34-.383.613-.67.82-.286.2-.65.3-1.09.3-.313 0-.61-.053-.89-.16a2.14 2.14 0 0 1-.74-.5 2.526 2.526 0 0 1-.51-.84 3.45 3.45 0 0 1-.19-1.2c0-.453.064-.847.19-1.18.127-.34.297-.62.51-.84.214-.227.46-.393.74-.5.287-.113.587-.17.9-.17.394 0 .734.083 1.02.25.287.16.517.39.69.69v-2.82h.88V268h-.77l-.07-1.02Zm-1.63.33c.227 0 .437-.037.63-.11.194-.08.36-.2.5-.36.147-.16.26-.36.34-.6.087-.24.13-.52.13-.84 0-.32-.043-.6-.13-.84-.08-.24-.193-.44-.34-.6a1.234 1.234 0 0 0-.5-.35 1.63 1.63 0 0 0-.63-.12c-.46 0-.836.163-1.13.49-.286.32-.43.793-.43 1.42 0 .633.147 1.11.44 1.43.294.32.667.48 1.12.48Zm8.036.25a2.77 2.77 0 0 1-1.18.48c-.193.04-.41.06-.65.06-.873 0-1.536-.237-1.99-.71-.453-.473-.68-1.137-.68-1.99 0-.42.06-.797.18-1.13.127-.333.3-.613.52-.84.22-.233.48-.41.78-.53.3-.127.627-.19.98-.19.374 0 .707.063 1 .19.294.127.534.313.72.56.194.247.324.553.39.92.074.36.074.78 0 1.26h-3.66c.034.56.2.98.5 1.26.3.273.747.41 1.34.41.4 0 .744-.057 1.03-.17a3.59 3.59 0 0 0 .72-.37v.79Zm-2.06-4.07c-.38 0-.706.117-.98.35-.273.233-.446.587-.52 1.06h2.79c.027-.48-.083-.833-.33-1.06-.246-.233-.566-.35-.96-.35Zm5.803.2c-.373.033-.713.13-1.02.29-.3.153-.523.393-.67.72v3.3h-.88v-5.19h.77l.09 1.13h.02c.147-.307.357-.573.63-.8.28-.233.634-.377 1.06-.43v.98Zm.253 4.71h4.1v.75h-4.1v-.75Zm7.256-.51c-.106.06-.243.11-.41.15-.166.04-.343.06-.53.06a1.73 1.73 0 0 1-.65-.11 1.258 1.258 0 0 1-.43-.29 1.256 1.256 0 0 1-.25-.42 1.764 1.764 0 0 1-.07-.49v-3.23h-.62v-.75h.62v-1.09h.88v1.09h1.51v.75h-1.51v3.12c0 .22.054.38.16.48.114.1.31.15.59.15.26 0 .497-.073.71-.22v.8Zm3.252.21c-.353 0-.683-.06-.99-.18a2.31 2.31 0 0 1-.8-.52 2.54 2.54 0 0 1-.52-.85 3.239 3.239 0 0 1-.19-1.15c0-.427.064-.807.19-1.14.127-.34.3-.623.52-.85.227-.227.494-.4.8-.52.307-.12.637-.18.99-.18.36 0 .694.06 1 .18.307.12.57.293.79.52.227.227.404.51.53.85.134.333.2.713.2 1.14 0 .433-.066.817-.2 1.15a2.438 2.438 0 0 1-.53.85c-.22.227-.483.4-.79.52-.306.12-.64.18-1 .18Zm0-.79c.234 0 .447-.037.64-.11.2-.08.374-.197.52-.35.147-.16.26-.36.34-.6.08-.24.12-.523.12-.85 0-.327-.04-.61-.12-.85a1.539 1.539 0 0 0-.34-.59 1.3 1.3 0 0 0-.52-.35 1.655 1.655 0 0 0-.64-.12c-.233 0-.446.04-.64.12-.193.073-.363.19-.51.35-.14.153-.25.35-.33.59-.08.24-.12.523-.12.85 0 .327.04.61.12.85.08.24.19.44.33.6.147.153.317.27.51.35.194.073.407.11.64.11Zm6.133.58c-.107.06-.243.11-.41.15-.167.04-.343.06-.53.06a1.73 1.73 0 0 1-.65-.11 1.249 1.249 0 0 1-.43-.29 1.24 1.24 0 0 1-.25-.42 1.728 1.728 0 0 1-.07-.49v-3.23h-.62v-.75h.62v-1.09h.88v1.09h1.51v.75h-1.51v3.12c0 .22.053.38.16.48.113.1.31.15.59.15.26 0 .497-.073.71-.22v.8Zm4.211-.88c-.06.12-.137.247-.23.38a1.731 1.731 0 0 1-.85.61c-.187.067-.407.1-.66.1-.467 0-.843-.13-1.13-.39-.287-.267-.43-.647-.43-1.14 0-.567.197-.983.59-1.25.4-.267.967-.4 1.7-.4h.97v-.43c0-.36-.093-.617-.28-.77-.187-.153-.507-.23-.96-.23-.32 0-.623.053-.91.16a4.35 4.35 0 0 0-.77.35v-.79c.187-.113.437-.223.75-.33.32-.113.67-.17 1.05-.17.653 0 1.15.137 1.49.41.34.267.51.683.51 1.25v3c.007.073.01.15.01.23l.02.23c.007.067.013.123.02.17h-.8a4.525 4.525 0 0 1-.06-.39 6.145 6.145 0 0 1-.02-.45l-.01-.15Zm-1.55.3c.273 0 .507-.057.7-.17.193-.113.35-.243.47-.39.12-.153.207-.3.26-.44.053-.147.08-.25.08-.31v-.38h-.88c-.527 0-.91.077-1.15.23-.233.147-.35.37-.35.67 0 .233.07.423.21.57.14.147.36.22.66.22Zm4.654-6.48V268h-.88v-7.17h.88Z"/>
        <rect width="64" height="28" x="122" y="281" fill="#fff" stroke="#5282FF" stroke-width="2" rx="4"/>
        <path fill="#000" fill-opacity=".85" d="M138.228 298h-.91v-6.04l-1.98 1.52v-1.01l2.13-1.64h.76V298Zm4.548.1c-.34 0-.657-.07-.95-.21a2.091 2.091 0 0 1-.75-.67c-.207-.307-.37-.69-.49-1.15-.12-.467-.18-1.02-.18-1.66 0-.64.06-1.19.18-1.65.12-.467.283-.85.49-1.15.213-.3.463-.52.75-.66.293-.14.61-.21.95-.21.34 0 .653.07.94.21.287.14.533.36.74.66.207.293.367.67.48 1.13.12.46.18 1.01.18 1.65 0 .64-.06 1.193-.18 1.66-.113.46-.273.843-.48 1.15a1.988 1.988 0 0 1-.74.68c-.287.147-.6.22-.94.22Zm-.01-.79c.227 0 .427-.05.6-.15.173-.1.32-.263.44-.49.12-.227.21-.523.27-.89.067-.373.1-.827.1-1.36 0-.533-.03-.983-.09-1.35-.06-.373-.15-.673-.27-.9a1.181 1.181 0 0 0-.44-.49c-.173-.1-.373-.15-.6-.15-.227 0-.43.05-.61.15-.173.1-.323.263-.45.49-.12.227-.213.527-.28.9a8.55 8.55 0 0 0-.09 1.35c0 .533.03.987.09 1.36.067.367.16.663.28.89.12.227.267.39.44.49.18.1.383.15.61.15Zm8.506.79c-.34 0-.657-.07-.95-.21a2.091 2.091 0 0 1-.75-.67c-.207-.307-.37-.69-.49-1.15-.12-.467-.18-1.02-.18-1.66 0-.64.06-1.19.18-1.65.12-.467.283-.85.49-1.15.213-.3.463-.52.75-.66.293-.14.61-.21.95-.21.34 0 .653.07.94.21.287.14.533.36.74.66.207.293.367.67.48 1.13.12.46.18 1.01.18 1.65 0 .64-.06 1.193-.18 1.66-.113.46-.273.843-.48 1.15a1.988 1.988 0 0 1-.74.68c-.287.147-.6.22-.94.22Zm-.01-.79c.227 0 .427-.05.6-.15.173-.1.32-.263.44-.49.12-.227.21-.523.27-.89.067-.373.1-.827.1-1.36 0-.533-.03-.983-.09-1.35-.06-.373-.15-.673-.27-.9a1.181 1.181 0 0 0-.44-.49c-.173-.1-.373-.15-.6-.15-.227 0-.43.05-.61.15-.173.1-.323.263-.45.49-.12.227-.213.527-.28.9a8.55 8.55 0 0 0-.09 1.35c0 .533.03.987.09 1.36.067.367.16.663.28.89.12.227.267.39.44.49.18.1.383.15.61.15Zm5.508.79c-.34 0-.657-.07-.95-.21a2.091 2.091 0 0 1-.75-.67c-.207-.307-.37-.69-.49-1.15-.12-.467-.18-1.02-.18-1.66 0-.64.06-1.19.18-1.65.12-.467.283-.85.49-1.15.213-.3.463-.52.75-.66.293-.14.61-.21.95-.21.34 0 .653.07.94.21.287.14.533.36.74.66.207.293.367.67.48 1.13.12.46.18 1.01.18 1.65 0 .64-.06 1.193-.18 1.66-.113.46-.273.843-.48 1.15a1.988 1.988 0 0 1-.74.68c-.287.147-.6.22-.94.22Zm-.01-.79c.227 0 .427-.05.6-.15.173-.1.32-.263.44-.49.12-.227.21-.523.27-.89.067-.373.1-.827.1-1.36 0-.533-.03-.983-.09-1.35-.06-.373-.15-.673-.27-.9a1.181 1.181 0 0 0-.44-.49c-.173-.1-.373-.15-.6-.15-.227 0-.43.05-.61.15-.173.1-.323.263-.45.49-.12.227-.213.527-.28.9a8.55 8.55 0 0 0-.09 1.35c0 .533.03.987.09 1.36.067.367.16.663.28.89.12.227.267.39.44.49.18.1.383.15.61.15Zm5.508.79c-.34 0-.657-.07-.95-.21a2.091 2.091 0 0 1-.75-.67c-.207-.307-.37-.69-.49-1.15-.12-.467-.18-1.02-.18-1.66 0-.64.06-1.19.18-1.65.12-.467.283-.85.49-1.15.213-.3.463-.52.75-.66.293-.14.61-.21.95-.21.34 0 .653.07.94.21.287.14.533.36.74.66.207.293.367.67.48 1.13.12.46.18 1.01.18 1.65 0 .64-.06 1.193-.18 1.66-.113.46-.273.843-.48 1.15a1.988 1.988 0 0 1-.74.68c-.287.147-.6.22-.94.22Zm-.01-.79c.227 0 .427-.05.6-.15.173-.1.32-.263.44-.49.12-.227.21-.523.27-.89.067-.373.1-.827.1-1.36 0-.533-.03-.983-.09-1.35-.06-.373-.15-.673-.27-.9a1.181 1.181 0 0 0-.44-.49c-.173-.1-.373-.15-.6-.15-.227 0-.43.05-.61.15-.173.1-.323.263-.45.49-.12.227-.213.527-.28.9a8.55 8.55 0 0 0-.09 1.35c0 .533.03.987.09 1.36.067.367.16.663.28.89.12.227.267.39.44.49.18.1.383.15.61.15Zm6.866-3.26v-3.22h1.69c.747 0 1.327.163 1.74.49.42.327.63.82.63 1.48 0 .34-.06.633-.18.88a1.53 1.53 0 0 1-.5.61c-.213.153-.47.27-.77.35-.3.073-.633.11-1 .11h-.67v.85h2.09v.7h-2.09v1.7h-.94v-1.7h-.82v-.7h.82v-.85h-.82v-.7h.82Zm.94-2.41v2.41h.67c.487 0 .857-.1 1.11-.3.26-.207.39-.523.39-.95 0-.393-.113-.683-.34-.87-.22-.193-.58-.29-1.08-.29h-.75Z"/>
        <rect width="64" height="28" x="122" y="319" fill="#fff" stroke="#5282FF" stroke-width="2" rx="4"/>
        <path fill="#000" fill-opacity=".85" d="M139.628 333.93c0 .333-.064.633-.19.9a2.065 2.065 0 0 1-.53.69c-.227.187-.497.33-.81.43-.314.1-.66.15-1.04.15-.467 0-.87-.057-1.21-.17a2.49 2.49 0 0 1-.83-.44v-1c.213.213.493.4.84.56.346.153.75.23 1.21.23.493 0 .88-.117 1.16-.35.286-.233.43-.56.43-.98 0-.4-.127-.71-.38-.93-.254-.227-.65-.34-1.19-.34h-.92v-.85h.96c.38 0 .686-.1.92-.3.233-.2.35-.49.35-.87 0-.34-.11-.607-.33-.8-.22-.2-.537-.3-.95-.3-.427 0-.794.08-1.1.24-.3.16-.574.347-.82.56v-.98c.233-.193.51-.35.83-.47.32-.12.686-.18 1.1-.18.34 0 .646.047.92.14.273.087.503.213.69.38.193.167.34.367.44.6.1.227.15.48.15.76 0 .227-.034.43-.1.61a1.659 1.659 0 0 1-.68.81c-.154.087-.317.15-.49.19.206.033.403.097.59.19.193.093.363.213.51.36.146.14.26.31.34.51.086.193.13.41.13.65Zm3.148 2.17c-.34 0-.657-.07-.95-.21a2.091 2.091 0 0 1-.75-.67c-.207-.307-.37-.69-.49-1.15-.12-.467-.18-1.02-.18-1.66 0-.64.06-1.19.18-1.65.12-.467.283-.85.49-1.15.213-.3.463-.52.75-.66.293-.14.61-.21.95-.21.34 0 .653.07.94.21.287.14.533.36.74.66.207.293.367.67.48 1.13.12.46.18 1.01.18 1.65 0 .64-.06 1.193-.18 1.66-.113.46-.273.843-.48 1.15a1.988 1.988 0 0 1-.74.68c-.287.147-.6.22-.94.22Zm-.01-.79c.227 0 .427-.05.6-.15.173-.1.32-.263.44-.49.12-.227.21-.523.27-.89.067-.373.1-.827.1-1.36 0-.533-.03-.983-.09-1.35-.06-.373-.15-.673-.27-.9a1.181 1.181 0 0 0-.44-.49c-.173-.1-.373-.15-.6-.15-.227 0-.43.05-.61.15-.173.1-.323.263-.45.49-.12.227-.213.527-.28.9a8.55 8.55 0 0 0-.09 1.35c0 .533.03.987.09 1.36.067.367.16.663.28.89.12.227.267.39.44.49.18.1.383.15.61.15Zm8.506.79c-.34 0-.657-.07-.95-.21a2.091 2.091 0 0 1-.75-.67c-.207-.307-.37-.69-.49-1.15-.12-.467-.18-1.02-.18-1.66 0-.64.06-1.19.18-1.65.12-.467.283-.85.49-1.15.213-.3.463-.52.75-.66.293-.14.61-.21.95-.21.34 0 .653.07.94.21.287.14.533.36.74.66.207.293.367.67.48 1.13.12.46.18 1.01.18 1.65 0 .64-.06 1.193-.18 1.66-.113.46-.273.843-.48 1.15a1.988 1.988 0 0 1-.74.68c-.287.147-.6.22-.94.22Zm-.01-.79c.227 0 .427-.05.6-.15.173-.1.32-.263.44-.49.12-.227.21-.523.27-.89.067-.373.1-.827.1-1.36 0-.533-.03-.983-.09-1.35-.06-.373-.15-.673-.27-.9a1.181 1.181 0 0 0-.44-.49c-.173-.1-.373-.15-.6-.15-.227 0-.43.05-.61.15-.173.1-.323.263-.45.49-.12.227-.213.527-.28.9a8.55 8.55 0 0 0-.09 1.35c0 .533.03.987.09 1.36.067.367.16.663.28.89.12.227.267.39.44.49.18.1.383.15.61.15Zm5.508.79c-.34 0-.657-.07-.95-.21a2.091 2.091 0 0 1-.75-.67c-.207-.307-.37-.69-.49-1.15-.12-.467-.18-1.02-.18-1.66 0-.64.06-1.19.18-1.65.12-.467.283-.85.49-1.15.213-.3.463-.52.75-.66.293-.14.61-.21.95-.21.34 0 .653.07.94.21.287.14.533.36.74.66.207.293.367.67.48 1.13.12.46.18 1.01.18 1.65 0 .64-.06 1.193-.18 1.66-.113.46-.273.843-.48 1.15a1.988 1.988 0 0 1-.74.68c-.287.147-.6.22-.94.22Zm-.01-.79c.227 0 .427-.05.6-.15.173-.1.32-.263.44-.49.12-.227.21-.523.27-.89.067-.373.1-.827.1-1.36 0-.533-.03-.983-.09-1.35-.06-.373-.15-.673-.27-.9a1.181 1.181 0 0 0-.44-.49c-.173-.1-.373-.15-.6-.15-.227 0-.43.05-.61.15-.173.1-.323.263-.45.49-.12.227-.213.527-.28.9a8.55 8.55 0 0 0-.09 1.35c0 .533.03.987.09 1.36.067.367.16.663.28.89.12.227.267.39.44.49.18.1.383.15.61.15Zm5.508.79c-.34 0-.657-.07-.95-.21a2.091 2.091 0 0 1-.75-.67c-.207-.307-.37-.69-.49-1.15-.12-.467-.18-1.02-.18-1.66 0-.64.06-1.19.18-1.65.12-.467.283-.85.49-1.15.213-.3.463-.52.75-.66.293-.14.61-.21.95-.21.34 0 .653.07.94.21.287.14.533.36.74.66.207.293.367.67.48 1.13.12.46.18 1.01.18 1.65 0 .64-.06 1.193-.18 1.66-.113.46-.273.843-.48 1.15a1.988 1.988 0 0 1-.74.68c-.287.147-.6.22-.94.22Zm-.01-.79c.227 0 .427-.05.6-.15.173-.1.32-.263.44-.49.12-.227.21-.523.27-.89.067-.373.1-.827.1-1.36 0-.533-.03-.983-.09-1.35-.06-.373-.15-.673-.27-.9a1.181 1.181 0 0 0-.44-.49c-.173-.1-.373-.15-.6-.15-.227 0-.43.05-.61.15-.173.1-.323.263-.45.49-.12.227-.213.527-.28.9a8.55 8.55 0 0 0-.09 1.35c0 .533.03.987.09 1.36.067.367.16.663.28.89.12.227.267.39.44.49.18.1.383.15.61.15Zm6.866-3.26v-3.22h1.69c.747 0 1.327.163 1.74.49.42.327.63.82.63 1.48 0 .34-.06.633-.18.88a1.53 1.53 0 0 1-.5.61c-.213.153-.47.27-.77.35-.3.073-.633.11-1 .11h-.67v.85h2.09v.7h-2.09v1.7h-.94v-1.7h-.82v-.7h.82v-.85h-.82v-.7h.82Zm.94-2.41v2.41h.67c.487 0 .857-.1 1.11-.3.26-.207.39-.523.39-.95 0-.393-.113-.683-.34-.87-.22-.193-.58-.29-1.08-.29h-.75Z"/>
        <rect width="64" height="28" x="122" y="357" fill="#fff" stroke="#5282FF" stroke-width="2" rx="4"/>
        <path fill="#000" fill-opacity=".85" d="M142.197 371.63c0 .373-.06.713-.18 1.02-.113.3-.28.56-.5.78a2.23 2.23 0 0 1-.79.5c-.307.113-.65.17-1.03.17-.427 0-.797-.043-1.11-.13a2.617 2.617 0 0 1-.8-.38v-.98c.227.187.487.347.78.48.3.127.677.19 1.13.19.493 0 .873-.15 1.14-.45.273-.3.41-.693.41-1.18 0-.52-.133-.9-.4-1.14-.267-.24-.603-.36-1.01-.36-.3 0-.54.05-.72.15a1.41 1.41 0 0 0-.4.3h-.73v-3.77h3.88v.86h-3.06v2.05c.133-.1.297-.187.49-.26.193-.08.423-.12.69-.12.307 0 .593.05.86.15a1.914 1.914 0 0 1 1.18 1.14c.113.28.17.607.17.98Zm6.326 2.47c-.34 0-.657-.07-.95-.21a2.091 2.091 0 0 1-.75-.67c-.207-.307-.37-.69-.49-1.15-.12-.467-.18-1.02-.18-1.66 0-.64.06-1.19.18-1.65.12-.467.283-.85.49-1.15.213-.3.463-.52.75-.66.293-.14.61-.21.95-.21.34 0 .653.07.94.21.287.14.533.36.74.66.207.293.367.67.48 1.13.12.46.18 1.01.18 1.65 0 .64-.06 1.193-.18 1.66-.113.46-.273.843-.48 1.15a1.988 1.988 0 0 1-.74.68c-.287.147-.6.22-.94.22Zm-.01-.79c.227 0 .427-.05.6-.15.173-.1.32-.263.44-.49.12-.227.21-.523.27-.89.067-.373.1-.827.1-1.36 0-.533-.03-.983-.09-1.35-.06-.373-.15-.673-.27-.9a1.181 1.181 0 0 0-.44-.49c-.173-.1-.373-.15-.6-.15-.227 0-.43.05-.61.15-.173.1-.323.263-.45.49-.12.227-.213.527-.28.9a8.55 8.55 0 0 0-.09 1.35c0 .533.03.987.09 1.36.067.367.16.663.28.89.12.227.267.39.44.49.18.1.383.15.61.15Zm5.508.79c-.34 0-.657-.07-.95-.21a2.091 2.091 0 0 1-.75-.67c-.207-.307-.37-.69-.49-1.15-.12-.467-.18-1.02-.18-1.66 0-.64.06-1.19.18-1.65.12-.467.283-.85.49-1.15.213-.3.463-.52.75-.66.293-.14.61-.21.95-.21.34 0 .653.07.94.21.287.14.533.36.74.66.207.293.367.67.48 1.13.12.46.18 1.01.18 1.65 0 .64-.06 1.193-.18 1.66-.113.46-.273.843-.48 1.15a1.988 1.988 0 0 1-.74.68c-.287.147-.6.22-.94.22Zm-.01-.79c.227 0 .427-.05.6-.15.173-.1.32-.263.44-.49.12-.227.21-.523.27-.89.067-.373.1-.827.1-1.36 0-.533-.03-.983-.09-1.35-.06-.373-.15-.673-.27-.9a1.181 1.181 0 0 0-.44-.49c-.173-.1-.373-.15-.6-.15-.227 0-.43.05-.61.15-.173.1-.323.263-.45.49-.12.227-.213.527-.28.9a8.55 8.55 0 0 0-.09 1.35c0 .533.03.987.09 1.36.067.367.16.663.28.89.12.227.267.39.44.49.18.1.383.15.61.15Zm5.508.79c-.34 0-.657-.07-.95-.21a2.091 2.091 0 0 1-.75-.67c-.207-.307-.37-.69-.49-1.15-.12-.467-.18-1.02-.18-1.66 0-.64.06-1.19.18-1.65.12-.467.283-.85.49-1.15.213-.3.463-.52.75-.66.293-.14.61-.21.95-.21.34 0 .653.07.94.21.287.14.533.36.74.66.207.293.367.67.48 1.13.12.46.18 1.01.18 1.65 0 .64-.06 1.193-.18 1.66-.113.46-.273.843-.48 1.15a1.988 1.988 0 0 1-.74.68c-.287.147-.6.22-.94.22Zm-.01-.79c.227 0 .427-.05.6-.15.173-.1.32-.263.44-.49.12-.227.21-.523.27-.89.067-.373.1-.827.1-1.36 0-.533-.03-.983-.09-1.35-.06-.373-.15-.673-.27-.9a1.181 1.181 0 0 0-.44-.49c-.173-.1-.373-.15-.6-.15-.227 0-.43.05-.61.15-.173.1-.323.263-.45.49-.12.227-.213.527-.28.9a8.55 8.55 0 0 0-.09 1.35c0 .533.03.987.09 1.36.067.367.16.663.28.89.12.227.267.39.44.49.18.1.383.15.61.15Zm6.866-3.26v-3.22h1.69c.747 0 1.327.163 1.74.49.42.327.63.82.63 1.48 0 .34-.06.633-.18.88a1.53 1.53 0 0 1-.5.61c-.213.153-.47.27-.77.35-.3.073-.633.11-1 .11h-.67v.85h2.09v.7h-2.09v1.7h-.94v-1.7h-.82v-.7h.82v-.85h-.82v-.7h.82Zm.94-2.41v2.41h.67c.487 0 .857-.1 1.11-.3.26-.207.39-.523.39-.95 0-.393-.113-.683-.34-.87-.22-.193-.58-.29-1.08-.29h-.75Z"/>
        <g filter="url(#filter3_d_104_145)">
            <rect width="80" height="143" x="212" y="250" fill="#fff" rx="5"/>
        </g>
        <path fill="#262626" d="M220.723 268.1c-.274 0-.517-.023-.73-.07-.207-.04-.39-.09-.55-.15a2.912 2.912 0 0 1-.39-.2 2.592 2.592 0 0 1-.25-.19v-.79c.066.067.156.14.27.22.113.073.25.143.41.21.16.067.34.123.54.17.206.04.436.06.69.06.373 0 .67-.06.89-.18.22-.12.33-.323.33-.61a.584.584 0 0 0-.11-.37.67.67 0 0 0-.28-.22 1.71 1.71 0 0 0-.42-.14 19.99 19.99 0 0 1-1.14-.25 2.249 2.249 0 0 1-.58-.25 1.347 1.347 0 0 1-.42-.43c-.107-.18-.16-.413-.16-.7 0-.467.18-.833.54-1.1.366-.267.876-.4 1.53-.4.366 0 .69.037.97.11.286.073.506.153.66.24v.79a2.362 2.362 0 0 0-.65-.28c-.254-.08-.57-.12-.95-.12-.394 0-.697.053-.91.16-.207.107-.31.3-.31.58 0 .14.03.253.09.34.06.08.14.147.24.2.106.047.226.083.36.11.133.027.273.057.42.09.226.047.46.097.7.15.24.053.453.137.64.25.193.113.35.267.47.46.126.187.19.44.19.76 0 .3-.06.55-.18.75-.12.2-.28.36-.48.48a2.071 2.071 0 0 1-.67.24c-.247.053-.5.08-.76.08Zm6.165-1.09c-.06.12-.137.247-.23.38a1.731 1.731 0 0 1-.85.61c-.187.067-.407.1-.66.1-.467 0-.843-.13-1.13-.39-.287-.267-.43-.647-.43-1.14 0-.567.197-.983.59-1.25.4-.267.967-.4 1.7-.4h.97v-.43c0-.36-.093-.617-.28-.77-.187-.153-.507-.23-.96-.23-.32 0-.623.053-.91.16a4.35 4.35 0 0 0-.77.35v-.79c.187-.113.437-.223.75-.33.32-.113.67-.17 1.05-.17.653 0 1.15.137 1.49.41.34.267.51.683.51 1.25v3c.007.073.01.15.01.23l.02.23c.007.067.013.123.02.17h-.8a4.525 4.525 0 0 1-.06-.39 6.145 6.145 0 0 1-.02-.45l-.01-.15Zm-1.55.3c.273 0 .507-.057.7-.17.193-.113.35-.243.47-.39.12-.153.207-.3.26-.44.053-.147.08-.25.08-.31v-.38h-.88c-.527 0-.91.077-1.15.23-.233.147-.35.37-.35.67 0 .233.07.423.21.57.14.147.36.22.66.22Zm4.654-6.48V268h-.88v-7.17h.88Zm5.564 6.73a2.77 2.77 0 0 1-1.18.48c-.193.04-.41.06-.65.06-.873 0-1.537-.237-1.99-.71-.453-.473-.68-1.137-.68-1.99 0-.42.06-.797.18-1.13.127-.333.3-.613.52-.84.22-.233.48-.41.78-.53.3-.127.627-.19.98-.19.373 0 .707.063 1 .19.293.127.533.313.72.56.193.247.323.553.39.92.073.36.073.78 0 1.26h-3.66c.033.56.2.98.5 1.26.3.273.747.41 1.34.41.4 0 .743-.057 1.03-.17a3.59 3.59 0 0 0 .72-.37v.79Zm-2.06-4.07c-.38 0-.707.117-.98.35-.273.233-.447.587-.52 1.06h2.79c.027-.48-.083-.833-.33-1.06-.247-.233-.567-.35-.96-.35Zm4.893 4.61c-.274 0-.517-.023-.73-.07-.207-.04-.39-.09-.55-.15a2.912 2.912 0 0 1-.39-.2 2.592 2.592 0 0 1-.25-.19v-.79c.066.067.156.14.27.22.113.073.25.143.41.21.16.067.34.123.54.17.206.04.436.06.69.06.373 0 .67-.06.89-.18.22-.12.33-.323.33-.61a.584.584 0 0 0-.11-.37.67.67 0 0 0-.28-.22 1.71 1.71 0 0 0-.42-.14 19.99 19.99 0 0 1-1.14-.25 2.249 2.249 0 0 1-.58-.25 1.347 1.347 0 0 1-.42-.43c-.107-.18-.16-.413-.16-.7 0-.467.18-.833.54-1.1.366-.267.876-.4 1.53-.4.366 0 .69.037.97.11.286.073.506.153.66.24v.79a2.362 2.362 0 0 0-.65-.28c-.254-.08-.57-.12-.95-.12-.394 0-.697.053-.91.16-.207.107-.31.3-.31.58 0 .14.03.253.09.34.06.08.14.147.24.2.106.047.226.083.36.11.133.027.273.057.42.09.226.047.46.097.7.15.24.053.453.137.64.25.193.113.35.267.47.46.126.187.19.44.19.76 0 .3-.06.55-.18.75-.12.2-.28.36-.48.48a2.071 2.071 0 0 1-.67.24c-.247.053-.5.08-.76.08Zm5.784 0c-.4 0-.747-.093-1.04-.28a2.03 2.03 0 0 1-.69-.77v2.72h-.88v-6.96h.77l.09 1.01c.173-.34.406-.61.7-.81.293-.2.656-.3 1.09-.3.3 0 .586.057.86.17.28.107.523.273.73.5.213.22.38.5.5.84.126.333.19.727.19 1.18 0 .46-.064.86-.19 1.2a2.526 2.526 0 0 1-.51.84 2.14 2.14 0 0 1-.74.5c-.28.107-.574.16-.88.16Zm-.13-.79c.46 0 .83-.157 1.11-.47.286-.32.43-.8.43-1.44 0-.627-.144-1.1-.43-1.42-.28-.327-.65-.49-1.11-.49-.227 0-.44.04-.64.12-.194.08-.364.2-.51.36-.14.153-.254.35-.34.59-.08.24-.12.52-.12.84 0 .32.04.6.12.84.086.24.2.44.34.6.146.16.316.28.51.36.2.073.413.11.64.11Zm7.646.25a2.77 2.77 0 0 1-1.18.48c-.193.04-.41.06-.65.06-.873 0-1.537-.237-1.99-.71-.453-.473-.68-1.137-.68-1.99 0-.42.06-.797.18-1.13.127-.333.3-.613.52-.84.22-.233.48-.41.78-.53.3-.127.627-.19.98-.19.373 0 .707.063 1 .19.293.127.533.313.72.56.193.247.323.553.39.92.073.36.073.78 0 1.26h-3.66c.033.56.2.98.5 1.26.3.273.747.41 1.34.41.4 0 .743-.057 1.03-.17a3.59 3.59 0 0 0 .72-.37v.79Zm-2.06-4.07c-.38 0-.707.117-.98.35-.273.233-.447.587-.52 1.06h2.79c.027-.48-.083-.833-.33-1.06-.247-.233-.567-.35-.96-.35Zm5.803.2c-.374.033-.714.13-1.02.29-.3.153-.524.393-.67.72v3.3h-.88v-5.19h.77l.09 1.13h.02c.146-.307.356-.573.63-.8.28-.233.633-.377 1.06-.43v.98Zm2.732 4.41a3.42 3.42 0 0 1-.73-.07c-.206-.04-.39-.09-.55-.15a3.04 3.04 0 0 1-.39-.2 2.724 2.724 0 0 1-.25-.19v-.79c.067.067.157.14.27.22.114.073.25.143.41.21.16.067.34.123.54.17.207.04.437.06.69.06.374 0 .67-.06.89-.18.22-.12.33-.323.33-.61a.578.578 0 0 0-.11-.37.663.663 0 0 0-.28-.22 1.71 1.71 0 0 0-.42-.14 20.616 20.616 0 0 1-1.14-.25 2.28 2.28 0 0 1-.58-.25 1.368 1.368 0 0 1-.42-.43c-.106-.18-.16-.413-.16-.7 0-.467.18-.833.54-1.1.367-.267.877-.4 1.53-.4.367 0 .69.037.97.11.287.073.507.153.66.24v.79a2.35 2.35 0 0 0-.65-.28c-.253-.08-.57-.12-.95-.12-.393 0-.696.053-.91.16-.206.107-.31.3-.31.58 0 .14.03.253.09.34.06.08.14.147.24.2.107.047.227.083.36.11.134.027.274.057.42.09.227.047.46.097.7.15.24.053.454.137.64.25.194.113.35.267.47.46.127.187.19.44.19.76 0 .3-.06.55-.18.75-.12.2-.28.36-.48.48a2.054 2.054 0 0 1-.67.24c-.246.053-.5.08-.76.08Zm5.304 0c-.353 0-.683-.06-.99-.18a2.301 2.301 0 0 1-.8-.52 2.54 2.54 0 0 1-.52-.85 3.217 3.217 0 0 1-.19-1.15c0-.427.063-.807.19-1.14.127-.34.3-.623.52-.85.227-.227.493-.4.8-.52.307-.12.637-.18.99-.18.36 0 .693.06 1 .18.307.12.57.293.79.52.227.227.403.51.53.85.133.333.2.713.2 1.14 0 .433-.067.817-.2 1.15a2.452 2.452 0 0 1-.53.85c-.22.227-.483.4-.79.52-.307.12-.64.18-1 .18Zm0-.79c.233 0 .447-.037.64-.11.2-.08.373-.197.52-.35.147-.16.26-.36.34-.6.08-.24.12-.523.12-.85 0-.327-.04-.61-.12-.85a1.539 1.539 0 0 0-.34-.59 1.306 1.306 0 0 0-.52-.35 1.658 1.658 0 0 0-.64-.12c-.233 0-.447.04-.64.12-.193.073-.363.19-.51.35-.14.153-.25.35-.33.59-.08.24-.12.523-.12.85 0 .327.04.61.12.85.08.24.19.44.33.6.147.153.317.27.51.35.193.073.407.11.64.11Zm6.053-3.82c-.4 0-.727.093-.98.28-.247.18-.447.413-.6.7V268h-.88v-5.19h.83l.03.93h.02c.14-.3.36-.547.66-.74.3-.193.68-.29 1.14-.29.513 0 .92.137 1.22.41.306.267.46.68.46 1.24V268h-.88v-3.55c0-.36-.09-.61-.27-.75-.18-.14-.43-.21-.75-.21Zm2.472 4.91h4.1v.75h-4.1v-.75Zm5.776-7.57V268h-.94v-7.17h.94Zm1.668 0h2.41c.48 0 .926.057 1.34.17.413.113.773.3 1.08.56.306.26.546.603.72 1.03.173.427.26.953.26 1.58 0 .633-.09 1.19-.27 1.67-.174.473-.417.87-.73 1.19-.307.32-.677.563-1.11.73-.427.16-.894.24-1.4.24h-2.3v-7.17Zm.94.86v5.46h1.36c.366 0 .703-.057 1.01-.17.306-.113.57-.287.79-.52.22-.24.39-.543.51-.91s.18-.803.18-1.31c0-.5-.06-.913-.18-1.24-.12-.333-.287-.597-.5-.79a1.673 1.673 0 0 0-.75-.4c-.294-.08-.61-.12-.95-.12h-1.47Z"/>
        <rect width="64" height="28" x="220" y="281" fill="#fff" stroke="#5282FF" stroke-width="2" rx="4"/>
        <path fill="#000" fill-opacity=".85" d="M254.371 295.93c0 .333-.063.633-.19.9a2.052 2.052 0 0 1-.53.69c-.227.187-.497.33-.81.43-.313.1-.66.15-1.04.15-.467 0-.87-.057-1.21-.17a2.49 2.49 0 0 1-.83-.44v-1c.213.213.493.4.84.56.347.153.75.23 1.21.23.493 0 .88-.117 1.16-.35.287-.233.43-.56.43-.98 0-.4-.127-.71-.38-.93-.253-.227-.65-.34-1.19-.34h-.92v-.85h.96c.38 0 .687-.1.92-.3.233-.2.35-.49.35-.87 0-.34-.11-.607-.33-.8-.22-.2-.537-.3-.95-.3-.427 0-.793.08-1.1.24-.3.16-.573.347-.82.56v-.98c.233-.193.51-.35.83-.47.32-.12.687-.18 1.1-.18.34 0 .647.047.92.14.273.087.503.213.69.38.193.167.34.367.44.6.1.227.15.48.15.76 0 .227-.033.43-.1.61s-.16.337-.28.47a1.64 1.64 0 0 1-.4.34c-.153.087-.317.15-.49.19.207.033.403.097.59.19.193.093.363.213.51.36.147.14.26.31.34.51.087.193.13.41.13.65Z"/>
        <rect width="64" height="28" x="220" y="319" fill="#fff" stroke="#5282FF" stroke-width="2" rx="4"/>
        <path fill="#000" fill-opacity=".85" d="M252.971 336h-.91v-6.04l-1.98 1.52v-1.01l2.13-1.64h.76V336Z"/>
        <rect width="64" height="28" x="220" y="357" fill="#fff" stroke="#5282FF" stroke-width="2" rx="4"/>
        <path fill="#000" fill-opacity=".85" d="M254.371 371.93c0 .333-.063.633-.19.9a2.052 2.052 0 0 1-.53.69c-.227.187-.497.33-.81.43-.313.1-.66.15-1.04.15-.467 0-.87-.057-1.21-.17a2.49 2.49 0 0 1-.83-.44v-1c.213.213.493.4.84.56.347.153.75.23 1.21.23.493 0 .88-.117 1.16-.35.287-.233.43-.56.43-.98 0-.4-.127-.71-.38-.93-.253-.227-.65-.34-1.19-.34h-.92v-.85h.96c.38 0 .687-.1.92-.3.233-.2.35-.49.35-.87 0-.34-.11-.607-.33-.8-.22-.2-.537-.3-.95-.3-.427 0-.793.08-1.1.24-.3.16-.573.347-.82.56v-.98c.233-.193.51-.35.83-.47.32-.12.687-.18 1.1-.18.34 0 .647.047.92.14.273.087.503.213.69.38.193.167.34.367.44.6.1.227.15.48.15.76 0 .227-.033.43-.1.61s-.16.337-.28.47a1.64 1.64 0 0 1-.4.34c-.153.087-.317.15-.49.19.207.033.403.097.59.19.193.093.363.213.51.36.147.14.26.31.34.51.087.193.13.41.13.65Z"/>
        <rect width="80" height="30" x="114" y="114" fill="#FFF2BF" rx="5"/>
        <path fill="#000" fill-opacity=".85" d="M127.916 119.83h5.39V127h-.95v-6.31h-3.5V127h-.94v-7.17Zm11.071 6.73c-.074.053-.164.11-.27.17-.107.06-.237.12-.39.18a3.316 3.316 0 0 1-.52.13c-.194.04-.41.06-.65.06-.874 0-1.537-.237-1.99-.71-.454-.473-.68-1.137-.68-1.99 0-.42.06-.797.18-1.13.126-.333.3-.613.52-.84.22-.233.48-.41.78-.53.3-.127.626-.19.98-.19.373 0 .706.063 1 .19.293.127.533.313.72.56.193.247.323.553.39.92.073.36.073.78 0 1.26h-3.66c.033.56.2.98.5 1.26.3.273.746.41 1.34.41.4 0 .743-.057 1.03-.17.286-.113.526-.237.72-.37v.79Zm-2.06-4.07c-.38 0-.707.117-.98.35-.274.233-.447.587-.52 1.06h2.79c.026-.48-.084-.833-.33-1.06-.247-.233-.567-.35-.96-.35Zm5.921 4.61c-.4 0-.747-.093-1.04-.28a2.03 2.03 0 0 1-.69-.77v2.72h-.88v-6.96h.77l.09 1.01c.173-.34.406-.61.7-.81.293-.2.656-.3 1.09-.3.3 0 .586.057.86.17.28.107.523.273.73.5.213.22.38.5.5.84.126.333.19.727.19 1.18 0 .46-.064.86-.19 1.2a2.526 2.526 0 0 1-.51.84 2.14 2.14 0 0 1-.74.5c-.28.107-.574.16-.88.16Zm-.13-.79c.46 0 .83-.157 1.11-.47.286-.32.43-.8.43-1.44 0-.627-.144-1.1-.43-1.42-.28-.327-.65-.49-1.11-.49-.227 0-.44.04-.64.12-.194.08-.364.2-.51.36-.14.153-.254.35-.34.59-.08.24-.12.52-.12.84 0 .32.04.6.12.84.086.24.2.44.34.6.146.16.316.28.51.36.2.073.413.11.64.11Zm3.516-4.5h1.94c.626 0 1.1.11 1.42.33.32.213.48.55.48 1.01 0 .307-.08.553-.24.74-.154.18-.374.31-.66.39.74.12 1.11.53 1.11 1.23 0 .267-.054.497-.16.69-.107.187-.254.34-.44.46-.187.12-.414.207-.68.26-.26.053-.544.08-.85.08h-1.92v-5.19Zm.88.75v1.41h.98c.333 0 .6-.06.8-.18a.57.57 0 0 0 .31-.52c0-.273-.09-.46-.27-.56-.18-.1-.437-.15-.77-.15h-1.05Zm0 2.11v1.58h1.03c.186 0 .353-.01.5-.03.153-.027.283-.07.39-.13a.65.65 0 0 0 .26-.24c.06-.1.09-.223.09-.37 0-.3-.104-.51-.31-.63-.207-.12-.517-.18-.93-.18h-1.03Zm5.371 1.13 2.77-3.99h.89V127h-.88v-3.98l-2.76 3.98h-.9v-5.19h.88v3.99Zm9.116 1.2h-.88v-2.28c-.18.14-.39.25-.63.33-.233.073-.5.11-.8.11-.586 0-1.036-.143-1.35-.43-.306-.293-.46-.76-.46-1.4v-1.52h.89v1.53c0 .407.094.69.28.85.187.16.45.24.79.24.234 0 .46-.033.68-.1.22-.067.42-.17.6-.31v-2.21h.88V127Zm4.829-2.3h-2.51v2.3h-.88v-5.19h.88v2.14h2.51v-2.14h.88V127h-.88v-2.3Zm6.163.57c0 .3-.053.56-.16.78-.106.22-.256.4-.45.54-.193.14-.423.243-.69.31-.266.067-.556.1-.87.1h-1.67v-5.19h.88v1.81h.85c.66 0 1.177.13 1.55.39.374.26.56.68.56 1.26Zm1.63 1.73h-.88v-5.19h.88V127Zm-4.59-2.63v1.88h.79c.38 0 .687-.07.92-.21.24-.147.36-.387.36-.72 0-.34-.106-.583-.32-.73-.213-.147-.513-.22-.9-.22h-.85Zm8.324-3.25c-.266 0-.5-.033-.7-.1a1.544 1.544 0 0 1-.49-.29 1.344 1.344 0 0 1-.29-.43 1.585 1.585 0 0 1-.09-.54h.88c0 .253.06.437.18.55.127.113.297.17.51.17.214 0 .38-.057.5-.17.12-.113.18-.297.18-.55h.88c0 .38-.13.703-.39.97-.253.26-.643.39-1.17.39Zm-1.41 4.68 2.77-3.99h.89V127h-.88v-3.98l-2.76 3.98h-.9v-5.19h.88v3.99Zm-32.303 9.99h-.46V138h-.88v-5.19h.88v2.23h.5l1.82-2.23h1l-2.13 2.56 2.17 2.63h-1.07l-1.83-2.21Zm4.226.6c.093-.34.153-.8.18-1.38.026-.58.04-1.313.04-2.2h3.49V138h-.89v-4.44h-1.77c-.007.713-.03 1.347-.07 1.9-.034.553-.11 1.02-.23 1.4-.114.38-.284.67-.51.87-.22.193-.517.29-.89.29h-.08a.434.434 0 0 1-.09-.01v-.87c.033.007.076.01.13.01.34 0 .57-.253.69-.76Zm11.687-.99c0 .433-.064.817-.19 1.15-.12.333-.29.617-.51.85-.214.227-.467.4-.76.52-.294.12-.614.18-.96.18a2.5 2.5 0 0 1-.9-.16 2.234 2.234 0 0 1-.74-.46 2.484 2.484 0 0 1-.51-.76c-.134-.3-.214-.64-.24-1.02h-.86v2.3h-.88v-5.19h.88v2.14h.88c.04-.36.126-.677.26-.95a2.202 2.202 0 0 1 1.23-1.14c.273-.1.566-.15.88-.15.346 0 .666.06.96.18.293.12.546.293.76.52.22.227.39.51.51.85.126.333.19.713.19 1.14Zm-2.42 1.91c.22 0 .42-.037.6-.11a1.33 1.33 0 0 0 .48-.35c.133-.16.236-.36.31-.6.08-.24.12-.523.12-.85 0-.327-.04-.61-.12-.85a1.61 1.61 0 0 0-.31-.59 1.184 1.184 0 0 0-.48-.35c-.18-.08-.38-.12-.6-.12-.214 0-.414.04-.6.12-.18.073-.337.19-.47.35a1.7 1.7 0 0 0-.32.59c-.074.24-.11.523-.11.85 0 .327.036.61.11.85.08.24.186.44.32.6.133.153.29.27.47.35.186.073.386.11.6.11Zm7.36.69h-.88v-2.28c-.18.14-.39.25-.63.33-.233.073-.5.11-.8.11-.586 0-1.036-.143-1.35-.43-.306-.293-.46-.76-.46-1.4v-1.52h.89v1.53c0 .407.094.69.28.85.187.16.45.24.79.24.234 0 .46-.033.68-.1.22-.067.42-.17.6-.31v-2.21h.88V138Z"/>
        <rect width="80" height="30" x="408" y="318" fill="#FFF2BF" rx="5"/>
        <path fill="#000" fill-opacity=".85" d="M427.278 323.83h2.43c.786 0 1.383.133 1.79.4.413.267.62.717.62 1.35 0 .26-.037.487-.11.68a1.427 1.427 0 0 1-.74.82 2.49 2.49 0 0 1-.58.2c.56.067.98.23 1.259.49.287.253.431.64.431 1.16 0 .373-.07.693-.21.96-.134.26-.32.473-.56.64-.24.16-.524.28-.85.36-.327.073-.684.11-1.07.11h-2.41v-7.17Zm.94.86v2.2h1.42c.226 0 .433-.023.62-.07.186-.053.346-.13.48-.23a1.12 1.12 0 0 0 .31-.39c.08-.16.12-.35.12-.57 0-.367-.127-.613-.38-.74-.254-.133-.614-.2-1.08-.2h-1.49Zm0 3.05v2.41h1.47c.253 0 .483-.02.69-.06.206-.04.383-.107.53-.2a.935.935 0 0 0 .35-.37 1.15 1.15 0 0 0 .13-.57c0-.453-.147-.767-.44-.94-.287-.18-.744-.27-1.37-.27h-1.36Zm8.775.96h-2.51v2.3h-.88v-5.19h.88v2.14h2.51v-2.14h.88V331h-.88v-2.3Zm6.453 1.86c-.074.053-.164.11-.27.17-.107.06-.237.12-.39.18a3.316 3.316 0 0 1-.52.13c-.194.04-.41.06-.65.06-.874 0-1.537-.237-1.99-.71-.454-.473-.68-1.137-.68-1.99 0-.42.06-.797.18-1.13.126-.333.3-.613.52-.84.22-.233.48-.41.78-.53.3-.127.626-.19.98-.19.373 0 .706.063 1 .19.293.127.533.313.72.56.193.247.323.553.39.92.073.36.073.78 0 1.26h-3.66c.033.56.2.98.5 1.26.3.273.746.41 1.34.41.4 0 .743-.057 1.03-.17.286-.113.526-.237.72-.37v.79Zm-2.06-4.07c-.38 0-.707.117-.98.35-.274.233-.447.587-.52 1.06h2.79c.026-.48-.084-.833-.33-1.06-.247-.233-.567-.35-.96-.35Zm9.791 4.51h-6.48v-5.19h.88v4.44h1.92v-4.44h.88v4.44h1.92v-4.44h.88V331Zm4.829-2.3h-2.51v2.3h-.88v-5.19h.88v2.14h2.51v-2.14h.88V331h-.88v-2.3Zm3.203 1.1 2.77-3.99h.89V331h-.88v-3.98l-2.76 3.98h-.9v-5.19h.88v3.99Zm7.387-4.68c-.267 0-.5-.033-.7-.1a1.533 1.533 0 0 1-.49-.29 1.328 1.328 0 0 1-.29-.43 1.585 1.585 0 0 1-.09-.54h.88c0 .253.06.437.18.55.127.113.297.17.51.17.213 0 .38-.057.5-.17.12-.113.18-.297.18-.55h.88c0 .38-.13.703-.39.97-.253.26-.643.39-1.17.39Zm-1.41 4.68 2.77-3.99h.89V331h-.88v-3.98l-2.76 3.98h-.9v-5.19h.88v3.99Zm-26.942 9.99h-.46V342h-.88v-5.19h.88v2.23h.5l1.82-2.23h1l-2.13 2.56 2.17 2.63h-1.07l-1.83-2.21Zm4.226.6c.093-.34.153-.8.18-1.38.026-.58.04-1.313.04-2.2h3.49V342h-.89v-4.44h-1.77c-.007.713-.03 1.347-.07 1.9-.034.553-.11 1.02-.23 1.4-.114.38-.284.67-.51.87-.22.193-.517.29-.89.29h-.08a.434.434 0 0 1-.09-.01v-.87c.033.007.076.01.13.01.34 0 .57-.253.69-.76Zm11.687-.99c0 .433-.064.817-.19 1.15-.12.333-.29.617-.51.85-.214.227-.467.4-.76.52-.294.12-.614.18-.96.18a2.5 2.5 0 0 1-.9-.16 2.234 2.234 0 0 1-.74-.46 2.484 2.484 0 0 1-.51-.76c-.134-.3-.214-.64-.24-1.02h-.86v2.3h-.88v-5.19h.88v2.14h.88c.04-.36.126-.677.26-.95a2.202 2.202 0 0 1 1.23-1.14c.273-.1.566-.15.88-.15.346 0 .666.06.96.18.293.12.546.293.76.52.22.227.39.51.51.85.126.333.19.713.19 1.14Zm-2.42 1.91c.22 0 .42-.037.6-.11a1.33 1.33 0 0 0 .48-.35c.133-.16.236-.36.31-.6.08-.24.12-.523.12-.85 0-.327-.04-.61-.12-.85a1.61 1.61 0 0 0-.31-.59 1.184 1.184 0 0 0-.48-.35c-.18-.08-.38-.12-.6-.12-.214 0-.414.04-.6.12-.18.073-.337.19-.47.35a1.7 1.7 0 0 0-.32.59c-.074.24-.11.523-.11.85 0 .327.036.61.11.85.08.24.186.44.32.6.133.153.29.27.47.35.186.073.386.11.6.11Zm7.36.69h-.88v-2.28c-.18.14-.39.25-.63.33-.233.073-.5.11-.8.11-.586 0-1.036-.143-1.35-.43-.306-.293-.46-.76-.46-1.4v-1.52h.89v1.53c0 .407.094.69.28.85.187.16.45.24.79.24.234 0 .46-.033.68-.1.22-.067.42-.17.6-.31v-2.21h.88V342Z"/>
        <g filter="url(#filter4_d_104_145)">
            <rect width="394" height="193" x="300" y="6" fill="#fff" rx="5"/>
        </g>
        <path fill="#262626" d="M472.241 29.1a4.259 4.259 0 0 1-1.5-.25 3.237 3.237 0 0 1-1.15-.72 3.324 3.324 0 0 1-.73-1.16 4.52 4.52 0 0 1-.25-1.55c0-.58.08-1.097.24-1.55a3.18 3.18 0 0 1 .71-1.15 3.07 3.07 0 0 1 1.14-.73c.446-.167.956-.25 1.53-.25.493 0 .913.05 1.26.15.353.093.633.203.84.33v1.08a3.022 3.022 0 0 0-.94-.38 4.45 4.45 0 0 0-1.12-.14c-.807 0-1.407.22-1.8.66-.387.433-.58 1.093-.58 1.98 0 1.76.813 2.64 2.44 2.64.38 0 .736-.047 1.07-.14.34-.093.65-.24.93-.44v1.07c-.187.14-.457.267-.81.38-.354.113-.78.17-1.28.17Zm5.52 0c-.366 0-.706-.06-1.02-.18a2.398 2.398 0 0 1-.82-.52 2.598 2.598 0 0 1-.54-.85 3.239 3.239 0 0 1-.19-1.15c0-.433.064-.817.19-1.15a2.49 2.49 0 0 1 .54-.84c.234-.233.507-.407.82-.52.314-.12.654-.18 1.02-.18.367 0 .707.06 1.02.18.314.113.587.287.82.52.234.227.417.507.55.84.134.333.2.717.2 1.15 0 .433-.066.817-.2 1.15a2.48 2.48 0 0 1-.55.85 2.38 2.38 0 0 1-.82.52c-.313.12-.653.18-1.02.18Zm0-.97c.4 0 .73-.14.99-.42.267-.28.4-.717.4-1.31 0-.587-.133-1.02-.4-1.3-.26-.287-.59-.43-.99-.43-.393 0-.723.143-.99.43-.26.28-.39.713-.39 1.3 0 .593.13 1.03.39 1.31.267.28.597.42.99.42Zm5.754-3.38V29h-1.16v-4.25h-1.57v-.94h4.33v.94h-1.6Zm5.345 4.35c-.394 0-.734-.087-1.02-.26a2.07 2.07 0 0 1-.68-.72v2.65H486v-6.96h1.06l.08.92a1.99 1.99 0 0 1 .69-.74c.286-.187.636-.28 1.05-.28.306 0 .596.057.87.17.28.107.523.273.73.5.206.22.37.5.49.84.126.333.19.727.19 1.18 0 .46-.064.86-.19 1.2-.12.333-.287.613-.5.84-.207.22-.45.387-.73.5-.28.107-.574.16-.88.16Zm-.28-.97c.413 0 .746-.14 1-.42.26-.287.39-.723.39-1.31 0-.58-.13-1.013-.39-1.3-.254-.287-.584-.43-.99-.43-.207 0-.397.037-.57.11a1.191 1.191 0 0 0-.46.32 1.6 1.6 0 0 0-.3.55c-.074.213-.11.463-.11.75 0 .293.036.55.11.77.073.213.173.393.3.54.126.14.276.247.45.32.18.067.37.1.57.1Zm6.274.81c-.113.313-.236.59-.37.83-.126.24-.276.44-.45.6-.166.167-.363.29-.59.37-.22.087-.48.13-.78.13-.326 0-.606-.053-.84-.16v-1.04c.094.073.21.13.35.17.14.04.294.06.46.06a.97.97 0 0 0 .56-.15c.147-.093.28-.237.4-.43l-2.09-5.51h1.25l1.45 4.03 1.44-4.03h1.08l-1.87 5.13Zm2.177-.88c.154-.133.274-.317.36-.55a3.95 3.95 0 0 0 .22-.87c.054-.353.094-.763.12-1.23.027-.467.05-1 .07-1.6h3.8v4.25h.78v2.42h-1.01l-.09-1.48h-3.58l-.09 1.48h-1.02v-2.42h.44Zm3.41 0v-3.31h-1.64c-.033.82-.09 1.5-.17 2.04-.073.533-.196.957-.37 1.27h2.18Zm6.164-1.25h-2.19V29h-1.16v-5.19h1.16v2.06h2.19v-2.06h1.16V29h-1.16v-2.19Zm3.611.62 2.4-3.62h1.14V29h-1.15v-3.6l-2.38 3.6h-1.16v-5.19h1.15v3.62Zm6.456-.54h-.45V29h-1.16v-5.19h1.16v2.14h.49l1.65-2.14h1.22l-1.96 2.5 2.04 2.69h-1.37l-1.62-2.11Zm4.911.54 2.4-3.62h1.14V29h-1.15v-3.6l-2.38 3.6h-1.16v-5.19h1.15v3.62Zm-388.927 198.4h5.61V233h-1.22v-6.12h-3.18V233h-1.21v-7.17Zm9.878 7.27c-.393 0-.733-.087-1.02-.26a2.08 2.08 0 0 1-.68-.72v2.65h-1.16v-6.96h1.06l.08.92c.174-.313.404-.56.69-.74.287-.187.637-.28 1.05-.28.307 0 .597.057.87.17.28.107.524.273.73.5.207.22.37.5.49.84.127.333.19.727.19 1.18 0 .46-.063.86-.19 1.2-.12.333-.286.613-.5.84a2.03 2.03 0 0 1-.73.5c-.28.107-.573.16-.88.16Zm-.28-.97c.414 0 .747-.14 1-.42.26-.287.39-.723.39-1.31 0-.58-.13-1.013-.39-1.3-.253-.287-.583-.43-.99-.43-.206 0-.396.037-.57.11a1.206 1.206 0 0 0-.46.32c-.126.147-.226.33-.3.55-.073.213-.11.463-.11.75 0 .293.037.55.11.77.074.213.174.393.3.54.127.14.277.247.45.32.18.067.37.1.57.1Zm5.813.97c-.367 0-.707-.06-1.02-.18a2.384 2.384 0 0 1-.82-.52 2.566 2.566 0 0 1-.54-.85 3.217 3.217 0 0 1-.19-1.15c0-.433.063-.817.19-1.15a2.46 2.46 0 0 1 .54-.84c.233-.233.507-.407.82-.52.313-.12.653-.18 1.02-.18s.707.06 1.02.18c.313.113.587.287.82.52.233.227.417.507.55.84.133.333.2.717.2 1.15 0 .433-.067.817-.2 1.15a2.496 2.496 0 0 1-.55.85c-.233.227-.507.4-.82.52-.313.12-.653.18-1.02.18Zm0-.97c.4 0 .73-.14.99-.42.267-.28.4-.717.4-1.31 0-.587-.133-1.02-.4-1.3-.26-.287-.59-.43-.99-.43-.393 0-.723.143-.99.43-.26.28-.39.713-.39 1.3 0 .593.13 1.03.39 1.31.267.28.597.42.99.42Zm3.352-.07c.154-.133.274-.317.36-.55a3.95 3.95 0 0 0 .22-.87c.054-.353.094-.763.12-1.23.027-.467.05-1 .07-1.6h3.8v4.25h.78v2.42h-1.01l-.09-1.48h-3.58l-.09 1.48h-1.02v-2.42h.44Zm3.41 0v-3.31h-1.64c-.033.82-.09 1.5-.17 2.04-.073.533-.196.957-.37 1.27h2.18Zm5.755.03a1.7 1.7 0 0 1-.22.36 1.517 1.517 0 0 1-.79.56c-.18.06-.39.09-.63.09-.226 0-.436-.033-.63-.1a1.41 1.41 0 0 1-.51-.28 1.45 1.45 0 0 1-.34-.47 1.71 1.71 0 0 1-.12-.66c0-.567.21-.99.63-1.27.42-.287 1.014-.43 1.78-.43h.79v-.32c0-.34-.086-.573-.26-.7-.173-.133-.46-.2-.86-.2-.34 0-.66.05-.96.15a4.196 4.196 0 0 0-.78.33v-.97c.207-.113.48-.22.82-.32.34-.1.71-.15 1.11-.15.667 0 1.18.14 1.54.42.367.273.55.713.55 1.32v2.92c.007.073.01.15.01.23l.02.23.02.17h-1.07a4.525 4.525 0 0 1-.06-.39 18.142 18.142 0 0 1-.03-.45l-.01-.07Zm-1.32.11c.247 0 .45-.05.61-.15.167-.107.3-.227.4-.36.1-.14.17-.277.21-.41.04-.133.06-.227.06-.28v-.35h-.72c-.46 0-.796.073-1.01.22a.676.676 0 0 0-.32.6c0 .227.064.407.19.54.134.127.327.19.58.19Zm7.522-4.39v2.14h.43l1.49-2.14h1.19l-1.77 2.49 1.87 2.7h-1.36l-1.45-2.11h-.4V233h-1.16v-2.11h-.4l-1.48 2.11h-1.32l1.87-2.65-1.78-2.54h1.23l1.46 2.14h.42v-2.14h1.16Zm5.132 3.62 2.4-3.62h1.14V233h-1.15v-3.6l-2.38 3.6h-1.16v-5.19h1.15v3.62Z"/>
        <rect width="90" height="153" x="305" y="41" fill="#fff" stroke="#5282FF" stroke-width="2" rx="4"/>
        <g filter="url(#filter5_d_104_145)">
            <rect width="80" height="143" x="310" y="46" fill="#fff" rx="5"/>
        </g>
        <path fill="#262626" d="M326.124 63.56a3.044 3.044 0 0 1-.66.35 3.261 3.261 0 0 1-.52.13c-.193.04-.41.06-.65.06-.873 0-1.536-.237-1.99-.71-.453-.473-.68-1.137-.68-1.99 0-.42.06-.797.18-1.13.127-.333.3-.613.52-.84.22-.233.48-.41.78-.53.3-.127.627-.19.98-.19.374 0 .707.063 1 .19.294.127.534.313.72.56.194.247.324.553.39.92.074.36.074.78 0 1.26h-3.66c.034.56.2.98.5 1.26.3.273.747.41 1.34.41.4 0 .744-.057 1.03-.17a3.59 3.59 0 0 0 .72-.37v.79Zm-2.06-4.07c-.38 0-.706.117-.98.35-.273.233-.446.587-.52 1.06h2.79c.027-.48-.083-.833-.33-1.06-.246-.233-.566-.35-.96-.35Zm4.113 4.51h-.88v-5.19h.77l.09.93h.02c.14-.293.35-.537.63-.73.28-.2.647-.3 1.1-.3.4 0 .727.097.98.29.26.187.433.47.52.85.147-.353.37-.63.67-.83.307-.207.677-.31 1.11-.31.48 0 .86.137 1.14.41.28.267.42.68.42 1.24V64h-.89v-3.53c0-.34-.083-.587-.25-.74-.167-.16-.393-.24-.68-.24-.193 0-.363.03-.51.09a1.2 1.2 0 0 0-.39.23c-.113.1-.217.217-.31.35-.093.133-.18.273-.26.42V64h-.88v-3.63c0-.333-.083-.563-.25-.69-.167-.127-.393-.19-.68-.19-.187 0-.353.023-.5.07-.147.047-.28.113-.4.2a1.575 1.575 0 0 0-.31.32c-.093.12-.18.253-.26.4V64Zm10.558.1c-.4 0-.746-.093-1.04-.28a2.047 2.047 0 0 1-.69-.77v2.72h-.88v-6.96h.77l.09 1.01c.174-.34.407-.61.7-.81.294-.2.657-.3 1.09-.3.3 0 .587.057.86.17.28.107.524.273.73.5.214.22.38.5.5.84.127.333.19.727.19 1.18 0 .46-.063.86-.19 1.2a2.487 2.487 0 0 1-.51.84 2.13 2.13 0 0 1-.74.5c-.28.107-.573.16-.88.16Zm-.13-.79c.46 0 .83-.157 1.11-.47.287-.32.43-.8.43-1.44 0-.627-.143-1.1-.43-1.42-.28-.327-.65-.49-1.11-.49-.226 0-.44.04-.64.12-.193.08-.363.2-.51.36-.14.153-.253.35-.34.59-.08.24-.12.52-.12.84 0 .32.04.6.12.84.087.24.2.44.34.6.147.16.317.28.51.36.2.073.414.11.64.11Zm4.396-6.48V64h-.88v-7.17h.88Zm3.565 7.27c-.354 0-.684-.06-.99-.18a2.296 2.296 0 0 1-.8-.52 2.523 2.523 0 0 1-.52-.85 3.217 3.217 0 0 1-.19-1.15c0-.427.063-.807.19-1.14.126-.34.3-.623.52-.85.226-.227.493-.4.8-.52.306-.12.636-.18.99-.18.36 0 .693.06 1 .18.306.12.57.293.79.52.226.227.403.51.53.85.133.333.2.713.2 1.14 0 .433-.067.817-.2 1.15a2.467 2.467 0 0 1-.53.85c-.22.227-.484.4-.79.52-.307.12-.64.18-1 .18Zm0-.79c.233 0 .446-.037.64-.11.2-.08.373-.197.52-.35.146-.16.26-.36.34-.6.08-.24.12-.523.12-.85 0-.327-.04-.61-.12-.85a1.554 1.554 0 0 0-.34-.59 1.31 1.31 0 0 0-.52-.35 1.662 1.662 0 0 0-.64-.12c-.234 0-.447.04-.64.12-.194.073-.364.19-.51.35-.14.153-.25.35-.33.59-.08.24-.12.523-.12.85 0 .327.04.61.12.85.08.24.19.44.33.6.146.153.316.27.51.35.193.073.406.11.64.11Zm6.045.63c-.12.313-.247.587-.38.82-.134.24-.284.443-.45.61-.167.167-.354.29-.56.37a1.82 1.82 0 0 1-.71.13c-.134 0-.257-.01-.37-.03a1.103 1.103 0 0 1-.31-.08v-.85a.766.766 0 0 0 .28.12c.113.033.236.05.37.05a.99.99 0 0 0 .61-.18c.16-.113.313-.297.46-.55l-2.11-5.54h.97l1.65 4.38 1.64-4.38h.85l-1.94 5.13Zm6.795-.38a2.968 2.968 0 0 1-.66.35 3.316 3.316 0 0 1-.52.13c-.194.04-.41.06-.65.06-.874 0-1.537-.237-1.99-.71-.454-.473-.68-1.137-.68-1.99 0-.42.06-.797.18-1.13.126-.333.3-.613.52-.84.22-.233.48-.41.78-.53.3-.127.626-.19.98-.19.373 0 .706.063 1 .19.293.127.533.313.72.56.193.247.323.553.39.92.073.36.073.78 0 1.26h-3.66c.033.56.2.98.5 1.26.3.273.746.41 1.34.41.4 0 .743-.057 1.03-.17.286-.113.526-.237.72-.37v.79Zm-2.06-4.07c-.38 0-.707.117-.98.35-.274.233-.447.587-.52 1.06h2.79c.026-.48-.084-.833-.33-1.06-.247-.233-.567-.35-.96-.35Zm7.362 4.07a3.044 3.044 0 0 1-.66.35 3.261 3.261 0 0 1-.52.13c-.193.04-.41.06-.65.06-.873 0-1.536-.237-1.99-.71-.453-.473-.68-1.137-.68-1.99 0-.42.06-.797.18-1.13.127-.333.3-.613.52-.84.22-.233.48-.41.78-.53.3-.127.627-.19.98-.19.374 0 .707.063 1 .19.294.127.534.313.72.56.194.247.324.553.39.92.074.36.074.78 0 1.26h-3.66c.034.56.2.98.5 1.26.3.273.747.41 1.34.41.4 0 .744-.057 1.03-.17a3.59 3.59 0 0 0 .72-.37v.79Zm-2.06-4.07c-.38 0-.706.117-.98.35-.273.233-.446.587-.52 1.06h2.79c.027-.48-.083-.833-.33-1.06-.246-.233-.566-.35-.96-.35Zm2.413 4.91h4.1v.75h-4.1v-.75Zm5.777-7.57V64h-.94v-7.17h.94Zm1.667 0h2.41c.48 0 .927.057 1.34.17.413.113.773.3 1.08.56a2.6 2.6 0 0 1 .72 1.03c.173.427.26.953.26 1.58 0 .633-.09 1.19-.27 1.67a3.29 3.29 0 0 1-.73 1.19c-.307.32-.677.563-1.11.73-.427.16-.893.24-1.4.24h-2.3v-7.17Zm.94.86v5.46h1.36a2.9 2.9 0 0 0 1.01-.17c.307-.113.57-.287.79-.52.22-.24.39-.543.51-.91s.18-.803.18-1.31c0-.5-.06-.913-.18-1.24-.12-.333-.287-.597-.5-.79a1.673 1.673 0 0 0-.75-.4c-.293-.08-.61-.12-.95-.12h-1.47Z"/>
        <rect width="64" height="28" x="318" y="77" fill="#fff" stroke="#5282FF" stroke-width="2" rx="4"/>
        <path fill="#000" fill-opacity=".85" d="M350.971 94h-.91v-6.04l-1.98 1.52v-1.01l2.13-1.64h.76V94Z"/>
        <rect width="64" height="28" x="318" y="115" fill="#fff" stroke="#5282FF" stroke-width="2" rx="4"/>
        <path fill="#000" fill-opacity=".85" d="M352.311 132h-4.57v-.95c.607-.487 1.13-.92 1.57-1.3.447-.38.813-.73 1.1-1.05.287-.32.5-.623.64-.91.14-.293.21-.597.21-.91 0-.393-.12-.71-.36-.95-.233-.247-.577-.37-1.03-.37-.38 0-.733.093-1.06.28-.327.187-.62.423-.88.71v-1.01c.253-.247.54-.443.86-.59.32-.147.69-.22 1.11-.22.373 0 .703.05.99.15.293.1.537.24.73.42.2.18.35.397.45.65.107.253.16.533.16.84 0 .387-.077.75-.23 1.09-.147.34-.367.68-.66 1.02-.293.34-.657.693-1.09 1.06-.427.36-.917.753-1.47 1.18h3.53v.86Z"/>
        <rect width="64" height="28" x="318" y="153" fill="#fff" stroke="#5282FF" stroke-width="2" rx="4"/>
        <path fill="#000" fill-opacity=".85" d="M352.371 167.93c0 .333-.063.633-.19.9a2.052 2.052 0 0 1-.53.69c-.227.187-.497.33-.81.43-.313.1-.66.15-1.04.15-.467 0-.87-.057-1.21-.17a2.49 2.49 0 0 1-.83-.44v-1c.213.213.493.4.84.56.347.153.75.23 1.21.23.493 0 .88-.117 1.16-.35.287-.233.43-.56.43-.98 0-.4-.127-.71-.38-.93-.253-.227-.65-.34-1.19-.34h-.92v-.85h.96c.38 0 .687-.1.92-.3.233-.2.35-.49.35-.87 0-.34-.11-.607-.33-.8-.22-.2-.537-.3-.95-.3-.427 0-.793.08-1.1.24-.3.16-.573.347-.82.56v-.98c.233-.193.51-.35.83-.47.32-.12.687-.18 1.1-.18.34 0 .647.047.92.14.273.087.503.213.69.38.193.167.34.367.44.6.1.227.15.48.15.76 0 .227-.033.43-.1.61s-.16.337-.28.47a1.64 1.64 0 0 1-.4.34c-.153.087-.317.15-.49.19.207.033.403.097.59.19.193.093.363.213.51.36.147.14.26.31.34.51.087.193.13.41.13.65Z"/>
        <g filter="url(#filter6_d_104_145)">
            <rect width="80" height="143" x="408" y="46" fill="#fff" rx="5"/>
        </g>
        <path fill="#262626" d="M426.277 59.56V64h-.88v-4.44h-.63v-.75h.63v-.13c0-.613.164-1.09.49-1.43.327-.34.774-.51 1.34-.51.247 0 .467.03.66.09v.8a1.16 1.16 0 0 0-.26-.07 2.065 2.065 0 0 0-.36-.03c-.306 0-.55.093-.73.28-.173.187-.26.477-.26.87v.13h1.5v.75h-1.5Zm2.981-1.51a.581.581 0 0 1-.43-.16.575.575 0 0 1-.16-.41.563.563 0 0 1 .59-.58.52.52 0 0 1 .41.17c.1.113.15.25.15.41 0 .16-.05.297-.15.41a.535.535 0 0 1-.41.16Zm.43.76V64h-.88v-5.19h.88Zm4.004.88c-.373.033-.713.13-1.02.29-.3.153-.523.393-.67.72V64h-.88v-5.19h.77l.09 1.13h.02c.147-.307.357-.573.63-.8.28-.233.634-.377 1.06-.43v.98Zm2.733 4.41c-.273 0-.517-.023-.73-.07-.207-.04-.39-.09-.55-.15a3.04 3.04 0 0 1-.39-.2 2.592 2.592 0 0 1-.25-.19v-.79c.067.067.157.14.27.22.113.073.25.143.41.21.16.067.34.123.54.17.207.04.437.06.69.06.373 0 .67-.06.89-.18.22-.12.33-.323.33-.61a.584.584 0 0 0-.11-.37.67.67 0 0 0-.28-.22 1.71 1.71 0 0 0-.42-.14 20.829 20.829 0 0 0-.49-.1 18.53 18.53 0 0 1-.65-.15 2.274 2.274 0 0 1-.58-.25 1.368 1.368 0 0 1-.42-.43c-.107-.18-.16-.413-.16-.7 0-.467.18-.833.54-1.1.367-.267.877-.4 1.53-.4.367 0 .69.037.97.11.287.073.507.153.66.24v.79a2.35 2.35 0 0 0-.65-.28c-.253-.08-.57-.12-.95-.12-.393 0-.697.053-.91.16-.207.107-.31.3-.31.58 0 .14.03.253.09.34.06.08.14.147.24.2.107.047.227.083.36.11.133.027.273.057.42.09.227.047.46.097.7.15.24.053.453.137.64.25.193.113.35.267.47.46.127.187.19.44.19.76 0 .3-.06.55-.18.75-.12.2-.28.36-.48.48a2.049 2.049 0 0 1-.67.24c-.247.053-.5.08-.76.08Zm5.714-.21c-.107.06-.243.11-.41.15-.167.04-.343.06-.53.06a1.73 1.73 0 0 1-.65-.11 1.253 1.253 0 0 1-.43-.29 1.234 1.234 0 0 1-.25-.42 1.73 1.73 0 0 1-.07-.49v-3.23h-.62v-.75h.62v-1.09h.88v1.09h1.51v.75h-1.51v3.12c0 .22.053.38.16.48.113.1.31.15.59.15.26 0 .497-.073.71-.22v.8Zm.351.51h4.1v.75h-4.1v-.75Zm7.176-4.91c-.4 0-.726.093-.98.28a2.06 2.06 0 0 0-.6.7V64h-.88v-5.19h.83l.03.93h.02c.14-.3.36-.547.66-.74.3-.193.68-.29 1.14-.29.514 0 .92.137 1.22.41.307.267.46.68.46 1.24V64h-.88v-3.55c0-.36-.09-.61-.27-.75-.18-.14-.43-.21-.75-.21Zm6.332 3.52a2.96 2.96 0 0 1-.23.38 1.731 1.731 0 0 1-.85.61 1.95 1.95 0 0 1-.66.1c-.466 0-.843-.13-1.13-.39-.286-.267-.43-.647-.43-1.14 0-.567.197-.983.59-1.25.4-.267.967-.4 1.7-.4h.97v-.43c0-.36-.093-.617-.28-.77-.186-.153-.506-.23-.96-.23-.32 0-.623.053-.91.16-.286.1-.543.217-.77.35v-.79a3.91 3.91 0 0 1 .75-.33c.32-.113.67-.17 1.05-.17.654 0 1.15.137 1.49.41.34.267.51.683.51 1.25v3c.007.073.01.15.01.23l.02.23.02.17h-.8a4.564 4.564 0 0 1-.06-.39 6.159 6.159 0 0 1-.02-.45l-.01-.15Zm-1.55.3c.274 0 .507-.057.7-.17.194-.113.35-.243.47-.39.12-.153.207-.3.26-.44.054-.147.08-.25.08-.31v-.38h-.88c-.526 0-.91.077-1.15.23-.233.147-.35.37-.35.67 0 .233.07.423.21.57.14.147.36.22.66.22Zm4.654.69h-.88v-5.19h.77l.09.93h.02c.14-.293.35-.537.63-.73.28-.2.647-.3 1.1-.3.4 0 .727.097.98.29.26.187.433.47.52.85.147-.353.37-.63.67-.83.307-.207.677-.31 1.11-.31.48 0 .86.137 1.14.41.28.267.42.68.42 1.24V64h-.89v-3.53c0-.34-.083-.587-.25-.74-.167-.16-.393-.24-.68-.24-.193 0-.363.03-.51.09a1.2 1.2 0 0 0-.39.23c-.113.1-.217.217-.31.35-.093.133-.18.273-.26.42V64h-.88v-3.63c0-.333-.083-.563-.25-.69-.167-.127-.393-.19-.68-.19-.187 0-.353.023-.5.07-.147.047-.28.113-.4.2a1.575 1.575 0 0 0-.31.32c-.093.12-.18.253-.26.4V64Zm12.078-.44a2.77 2.77 0 0 1-.66.35 3.289 3.289 0 0 1-.52.13c-.193.04-.41.06-.65.06-.873 0-1.537-.237-1.99-.71-.453-.473-.68-1.137-.68-1.99 0-.42.06-.797.18-1.13.127-.333.3-.613.52-.84.22-.233.48-.41.78-.53.3-.127.627-.19.98-.19a2.5 2.5 0 0 1 1 .19c.293.127.533.313.72.56.193.247.323.553.39.92.073.36.073.78 0 1.26h-3.66c.033.56.2.98.5 1.26.3.273.747.41 1.34.41.4 0 .743-.057 1.03-.17a3.59 3.59 0 0 0 .72-.37v.79Zm-2.06-4.07c-.38 0-.707.117-.98.35-.273.233-.447.587-.52 1.06h2.79c.027-.48-.083-.833-.33-1.06-.247-.233-.567-.35-.96-.35Z"/>
        <rect width="64" height="28" x="416" y="77" fill="#fff" stroke="#5282FF" stroke-width="2" rx="4"/>
        <path fill="#000" fill-opacity=".85" d="M438.943 86.83h1.4l2.57 7.17h-1l-.74-2.05h-3.17l-.73 2.05h-.88l2.55-7.17Zm1.93 4.27-1.28-3.57-1.28 3.57h2.56Zm6.354.6h-2.51V94h-.88v-5.19h.88v2.14h2.51v-2.14h.88V94h-.88v-2.3Zm5.713 0h-2.51V94h-.88v-5.19h.88v2.14h2.51v-2.14h.88V94h-.88v-2.3Zm5.363 1.31c-.06.12-.137.247-.23.38a1.731 1.731 0 0 1-.85.61c-.187.067-.407.1-.66.1-.467 0-.843-.13-1.13-.39-.287-.267-.43-.647-.43-1.14 0-.567.197-.983.59-1.25.4-.267.967-.4 1.7-.4h.97v-.43c0-.36-.093-.617-.28-.77-.187-.153-.507-.23-.96-.23-.32 0-.623.053-.91.16a4.33 4.33 0 0 0-.77.35v-.79a3.91 3.91 0 0 1 .75-.33c.32-.113.67-.17 1.05-.17.653 0 1.15.137 1.49.41.34.267.51.683.51 1.25v3c.007.073.01.15.01.23l.02.23c.007.067.013.123.02.17h-.8a4.564 4.564 0 0 1-.06-.39 6.159 6.159 0 0 1-.02-.45l-.01-.15Zm-1.55.3c.273 0 .507-.057.7-.17a1.73 1.73 0 0 0 .47-.39c.12-.153.207-.3.26-.44.053-.147.08-.25.08-.31v-.38h-.88c-.527 0-.91.077-1.15.23-.233.147-.35.37-.35.67 0 .233.07.423.21.57.14.147.36.22.66.22Z"/>
        <rect width="64" height="28" x="416" y="115" fill="#fff" stroke="#5282FF" stroke-width="2" rx="4"/>
        <path fill="#000" fill-opacity=".85" d="M428.04 128.93h-.76V132h-.94v-7.17h.94v3.25h.7l2.56-3.25h1.06l-2.83 3.58 2.94 3.59h-1.17l-2.5-3.07Zm7.099 3.17c-.4 0-.747-.093-1.04-.28a2.03 2.03 0 0 1-.69-.77v2.72h-.88v-6.96h.77l.09 1.01c.173-.34.406-.61.7-.81.293-.2.656-.3 1.09-.3.3 0 .586.057.86.17.28.107.523.273.73.5.213.22.38.5.5.84.126.333.19.727.19 1.18 0 .46-.064.86-.19 1.2a2.526 2.526 0 0 1-.51.84 2.14 2.14 0 0 1-.74.5c-.28.107-.574.16-.88.16Zm-.13-.79c.46 0 .83-.157 1.11-.47.286-.32.43-.8.43-1.44 0-.627-.144-1.1-.43-1.42-.28-.327-.65-.49-1.11-.49-.227 0-.44.04-.64.12-.194.08-.364.2-.51.36-.14.153-.254.35-.34.59-.08.24-.12.52-.12.84 0 .32.04.6.12.84.086.24.2.44.34.6.146.16.316.28.51.36.2.073.413.11.64.11Zm4.396-.51 2.77-3.99h.89V132h-.88v-3.98l-2.76 3.98h-.9v-5.19h.88v3.99Zm7.336 1.3c-.4 0-.763-.06-1.09-.18a2.388 2.388 0 0 1-.82-.53 2.346 2.346 0 0 1-.52-.85 3.35 3.35 0 0 1-.18-1.14c0-.42.06-.797.18-1.13.127-.333.304-.613.53-.84.227-.233.504-.41.83-.53.327-.127.697-.19 1.11-.19.32 0 .614.037.88.11.267.067.487.167.66.3v.79a2.333 2.333 0 0 0-.72-.31c-.26-.073-.53-.11-.81-.11-.606 0-1.053.157-1.34.47-.28.313-.42.793-.42 1.44 0 .647.137 1.127.41 1.44.274.313.707.47 1.3.47.314 0 .6-.037.86-.11.267-.08.507-.18.72-.3v.79a3.065 3.065 0 0 1-1.58.41Zm4.85-4.54V132h-.88v-4.44h-1.63v-.75h4.17v.75h-1.66Zm3.556 3.24 2.77-3.99h.89V132h-.88v-3.98l-2.76 3.98h-.9v-5.19h.88v3.99Zm8.486-1.1h-2.51v2.3h-.88v-5.19h.88v2.14h2.51v-2.14h.88V132h-.88v-2.3Zm5.363 1.31a2.94 2.94 0 0 1-.23.38 1.731 1.731 0 0 1-.85.61 1.95 1.95 0 0 1-.66.1c-.466 0-.843-.13-1.13-.39-.286-.267-.43-.647-.43-1.14 0-.567.197-.983.59-1.25.4-.267.967-.4 1.7-.4h.97v-.43c0-.36-.093-.617-.28-.77-.186-.153-.506-.23-.96-.23-.32 0-.623.053-.91.16-.286.1-.543.217-.77.35v-.79c.187-.113.437-.223.75-.33.32-.113.67-.17 1.05-.17.654 0 1.15.137 1.49.41.34.267.51.683.51 1.25v3c.007.073.01.15.01.23l.02.23.02.17h-.8a4.525 4.525 0 0 1-.06-.39 6.145 6.145 0 0 1-.02-.45l-.01-.15Zm-1.55.3c.274 0 .507-.057.7-.17.194-.113.35-.243.47-.39.12-.153.207-.3.26-.44.054-.147.08-.25.08-.31v-.38h-.88c-.526 0-.91.077-1.15.23-.233.147-.35.37-.35.67 0 .233.07.423.21.57.14.147.36.22.66.22Z"/>
        <rect width="64" height="28" x="416" y="153" fill="#fff" stroke="#5282FF" stroke-width="2" rx="4"/>
        <path fill="#000" fill-opacity=".85" d="m434.646 167.86 2.33-5.03h1.22V170h-.95v-5.77l-2.2 4.67-.47.01h-.42l.01-.01-2.17-4.75V170h-.89v-7.17h1.31l2.23 5.03Zm8.139 1.15a2.94 2.94 0 0 1-.23.38 1.731 1.731 0 0 1-.85.61 1.95 1.95 0 0 1-.66.1c-.466 0-.843-.13-1.13-.39-.286-.267-.43-.647-.43-1.14 0-.567.197-.983.59-1.25.4-.267.967-.4 1.7-.4h.97v-.43c0-.36-.093-.617-.28-.77-.186-.153-.506-.23-.96-.23-.32 0-.623.053-.91.16-.286.1-.543.217-.77.35v-.79c.187-.113.437-.223.75-.33.32-.113.67-.17 1.05-.17.654 0 1.15.137 1.49.41.34.267.51.683.51 1.25v3c.007.073.01.15.01.23l.02.23.02.17h-.8a4.525 4.525 0 0 1-.06-.39 6.145 6.145 0 0 1-.02-.45l-.01-.15Zm-1.55.3c.274 0 .507-.057.7-.17.194-.113.35-.243.47-.39.12-.153.207-.3.26-.44.054-.147.08-.25.08-.31v-.38h-.88c-.526 0-.91.077-1.15.23-.233.147-.35.37-.35.67 0 .233.07.423.21.57.14.147.36.22.66.22Zm5.815-3.75V170h-.88v-4.44h-1.63v-.75h4.17v.75h-1.66Zm2.676-.75h1.94c.627 0 1.1.11 1.42.33.32.213.48.55.48 1.01 0 .307-.08.553-.24.74-.153.18-.373.31-.66.39.74.12 1.11.53 1.11 1.23 0 .267-.053.497-.16.69-.107.187-.253.34-.44.46a1.95 1.95 0 0 1-.68.26c-.26.053-.543.08-.85.08h-1.92v-5.19Zm.88.75v1.41h.98c.333 0 .6-.06.8-.18a.569.569 0 0 0 .31-.52c0-.273-.09-.46-.27-.56-.18-.1-.437-.15-.77-.15h-1.05Zm0 2.11v1.58h1.03c.187 0 .353-.01.5-.03.153-.027.283-.07.39-.13a.65.65 0 0 0 .26-.24c.06-.1.09-.223.09-.37 0-.3-.103-.51-.31-.63-.207-.12-.517-.18-.93-.18h-1.03Zm8.621 1.89a2.77 2.77 0 0 1-1.18.48c-.193.04-.41.06-.65.06-.873 0-1.537-.237-1.99-.71-.453-.473-.68-1.137-.68-1.99 0-.42.06-.797.18-1.13.127-.333.3-.613.52-.84.22-.233.48-.41.78-.53.3-.127.627-.19.98-.19.373 0 .707.063 1 .19.293.127.533.313.72.56.193.247.323.553.39.92.073.36.073.78 0 1.26h-3.66c.033.56.2.98.5 1.26.3.273.747.41 1.34.41.4 0 .743-.057 1.03-.17a3.59 3.59 0 0 0 .72-.37v.79Zm-2.06-4.07c-.38 0-.707.117-.98.35-.273.233-.447.587-.52 1.06h2.79c.027-.48-.083-.833-.33-1.06-.247-.233-.567-.35-.96-.35Zm5.601-1.37c-.267 0-.5-.033-.7-.1a1.522 1.522 0 0 1-.49-.29 1.312 1.312 0 0 1-.29-.43 1.585 1.585 0 0 1-.09-.54h.88c0 .253.06.437.18.55.126.113.296.17.51.17.213 0 .38-.057.5-.17.12-.113.18-.297.18-.55h.88c0 .38-.13.703-.39.97-.254.26-.644.39-1.17.39Zm-1.41 4.68 2.77-3.99h.89V170h-.88v-3.98l-2.76 3.98h-.9v-5.19h.88v3.99Z"/>
        <g filter="url(#filter7_d_104_145)">
            <rect width="80" height="143" x="506" y="46" fill="#fff" rx="5"/>
        </g>
        <path fill="#262626" d="M525.017 56.83V64h-.88v-7.17h.88Zm4.474 6.18a2.96 2.96 0 0 1-.23.38 1.731 1.731 0 0 1-.85.61 1.95 1.95 0 0 1-.66.1c-.466 0-.843-.13-1.13-.39-.286-.267-.43-.647-.43-1.14 0-.567.197-.983.59-1.25.4-.267.967-.4 1.7-.4h.97v-.43c0-.36-.093-.617-.28-.77-.186-.153-.506-.23-.96-.23-.32 0-.623.053-.91.16-.286.1-.543.217-.77.35v-.79a3.91 3.91 0 0 1 .75-.33c.32-.113.67-.17 1.05-.17.654 0 1.15.137 1.49.41.34.267.51.683.51 1.25v3c.007.073.01.15.01.23l.02.23.02.17h-.8a4.564 4.564 0 0 1-.06-.39 6.159 6.159 0 0 1-.02-.45l-.01-.15Zm-1.55.3c.274 0 .507-.057.7-.17.194-.113.35-.243.47-.39.12-.153.207-.3.26-.44.054-.147.08-.25.08-.31v-.38h-.88c-.526 0-.91.077-1.15.23-.233.147-.35.37-.35.67 0 .233.07.423.21.57.14.147.36.22.66.22Zm5.434.79c-.273 0-.517-.023-.73-.07-.207-.04-.39-.09-.55-.15a3.04 3.04 0 0 1-.39-.2 2.592 2.592 0 0 1-.25-.19v-.79c.067.067.157.14.27.22.113.073.25.143.41.21.16.067.34.123.54.17.207.04.437.06.69.06.373 0 .67-.06.89-.18.22-.12.33-.323.33-.61a.584.584 0 0 0-.11-.37.67.67 0 0 0-.28-.22 1.71 1.71 0 0 0-.42-.14 20.829 20.829 0 0 0-.49-.1 18.53 18.53 0 0 1-.65-.15 2.274 2.274 0 0 1-.58-.25 1.368 1.368 0 0 1-.42-.43c-.107-.18-.16-.413-.16-.7 0-.467.18-.833.54-1.1.367-.267.877-.4 1.53-.4.367 0 .69.037.97.11.287.073.507.153.66.24v.79a2.35 2.35 0 0 0-.65-.28c-.253-.08-.57-.12-.95-.12-.393 0-.697.053-.91.16-.207.107-.31.3-.31.58 0 .14.03.253.09.34.06.08.14.147.24.2.107.047.227.083.36.11.133.027.273.057.42.09.227.047.46.097.7.15.24.053.453.137.64.25.193.113.35.267.47.46.127.187.19.44.19.76 0 .3-.06.55-.18.75-.12.2-.28.36-.48.48a2.049 2.049 0 0 1-.67.24c-.247.053-.5.08-.76.08Zm5.714-.21c-.107.06-.243.11-.41.15-.167.04-.343.06-.53.06a1.73 1.73 0 0 1-.65-.11 1.253 1.253 0 0 1-.43-.29 1.234 1.234 0 0 1-.25-.42 1.73 1.73 0 0 1-.07-.49v-3.23h-.62v-.75h.62v-1.09h.88v1.09h1.51v.75h-1.51v3.12c0 .22.053.38.16.48.113.1.31.15.59.15.26 0 .497-.073.71-.22v.8Zm.351.51h4.1v.75h-4.1v-.75Zm7.177-4.91c-.4 0-.727.093-.98.28-.247.18-.447.413-.6.7V64h-.88v-5.19h.83l.03.93h.02c.14-.3.36-.547.66-.74.3-.193.68-.29 1.14-.29.513 0 .92.137 1.22.41.306.267.46.68.46 1.24V64h-.88v-3.55c0-.36-.09-.61-.27-.75-.18-.14-.43-.21-.75-.21Zm6.331 3.52a2.96 2.96 0 0 1-.23.38 1.731 1.731 0 0 1-.85.61 1.95 1.95 0 0 1-.66.1c-.466 0-.843-.13-1.13-.39-.286-.267-.43-.647-.43-1.14 0-.567.197-.983.59-1.25.4-.267.967-.4 1.7-.4h.97v-.43c0-.36-.093-.617-.28-.77-.186-.153-.506-.23-.96-.23-.32 0-.623.053-.91.16-.286.1-.543.217-.77.35v-.79a3.91 3.91 0 0 1 .75-.33c.32-.113.67-.17 1.05-.17.654 0 1.15.137 1.49.41.34.267.51.683.51 1.25v3c.007.073.01.15.01.23l.02.23.02.17h-.8a4.564 4.564 0 0 1-.06-.39 6.159 6.159 0 0 1-.02-.45l-.01-.15Zm-1.55.3c.274 0 .507-.057.7-.17.194-.113.35-.243.47-.39.12-.153.207-.3.26-.44.054-.147.08-.25.08-.31v-.38h-.88c-.526 0-.91.077-1.15.23-.233.147-.35.37-.35.67 0 .233.07.423.21.57.14.147.36.22.66.22Zm4.654.69h-.88v-5.19h.77l.09.93h.02c.14-.293.35-.537.63-.73.28-.2.647-.3 1.1-.3.4 0 .727.097.98.29.26.187.433.47.52.85.147-.353.37-.63.67-.83.307-.207.677-.31 1.11-.31.48 0 .86.137 1.14.41.28.267.42.68.42 1.24V64h-.89v-3.53c0-.34-.083-.587-.25-.74-.167-.16-.393-.24-.68-.24-.193 0-.363.03-.51.09a1.2 1.2 0 0 0-.39.23c-.113.1-.217.217-.31.35-.093.133-.18.273-.26.42V64h-.88v-3.63c0-.333-.083-.563-.25-.69-.167-.127-.393-.19-.68-.19-.187 0-.353.023-.5.07-.147.047-.28.113-.4.2a1.575 1.575 0 0 0-.31.32c-.093.12-.18.253-.26.4V64Zm12.078-.44a3.044 3.044 0 0 1-.66.35 3.261 3.261 0 0 1-.52.13c-.193.04-.41.06-.65.06-.873 0-1.536-.237-1.99-.71-.453-.473-.68-1.137-.68-1.99 0-.42.06-.797.18-1.13.127-.333.3-.613.52-.84.22-.233.48-.41.78-.53.3-.127.627-.19.98-.19.374 0 .707.063 1 .19.294.127.534.313.72.56.194.247.324.553.39.92.074.36.074.78 0 1.26h-3.66c.034.56.2.98.5 1.26.3.273.747.41 1.34.41.4 0 .744-.057 1.03-.17a3.59 3.59 0 0 0 .72-.37v.79Zm-2.06-4.07c-.38 0-.706.117-.98.35-.273.233-.446.587-.52 1.06h2.79c.027-.48-.083-.833-.33-1.06-.246-.233-.566-.35-.96-.35Z"/>
        <rect width="64" height="28" x="514" y="77" fill="#fff" stroke="#5282FF" stroke-width="2" rx="4"/>
        <path fill="#000" fill-opacity=".85" d="M527.084 86.83h5.39V94h-.95v-6.31h-3.5V94h-.94v-7.17Zm11.071 6.73a2.968 2.968 0 0 1-.66.35 3.316 3.316 0 0 1-.52.13c-.194.04-.41.06-.65.06-.874 0-1.537-.237-1.99-.71-.454-.473-.68-1.137-.68-1.99 0-.42.06-.797.18-1.13.126-.333.3-.613.52-.84.22-.233.48-.41.78-.53.3-.127.626-.19.98-.19.373 0 .706.063 1 .19.293.127.533.313.72.56.193.247.323.553.39.92.073.36.073.78 0 1.26h-3.66c.033.56.2.98.5 1.26.3.273.746.41 1.34.41.4 0 .743-.057 1.03-.17.286-.113.526-.237.72-.37v.79Zm-2.06-4.07c-.38 0-.707.117-.98.35-.274.233-.447.587-.52 1.06h2.79c.026-.48-.084-.833-.33-1.06-.247-.233-.567-.35-.96-.35Zm5.352.07V94h-.88v-4.44h-1.63v-.75h4.17v.75h-1.66Zm5.285 4.54c-.4 0-.746-.093-1.04-.28a2.047 2.047 0 0 1-.69-.77v2.72h-.88v-6.96h.77l.09 1.01c.174-.34.407-.61.7-.81.294-.2.657-.3 1.09-.3.3 0 .587.057.86.17.28.107.524.273.73.5.214.22.38.5.5.84.127.333.19.727.19 1.18 0 .46-.063.86-.19 1.2a2.487 2.487 0 0 1-.51.84 2.13 2.13 0 0 1-.74.5c-.28.107-.573.16-.88.16Zm-.13-.79c.46 0 .83-.157 1.11-.47.287-.32.43-.8.43-1.44 0-.627-.143-1.1-.43-1.42-.28-.327-.65-.49-1.11-.49-.226 0-.44.04-.64.12-.193.08-.363.2-.51.36-.14.153-.253.35-.34.59-.08.24-.12.52-.12.84 0 .32.04.6.12.84.087.24.2.44.34.6.147.16.317.28.51.36.2.073.414.11.64.11Zm5.646.79c-.353 0-.683-.06-.99-.18a2.315 2.315 0 0 1-.8-.52 2.54 2.54 0 0 1-.52-.85 3.239 3.239 0 0 1-.19-1.15c0-.427.064-.807.19-1.14.127-.34.3-.623.52-.85.227-.227.494-.4.8-.52.307-.12.637-.18.99-.18.36 0 .694.06 1 .18.307.12.57.293.79.52.227.227.404.51.53.85.134.333.2.713.2 1.14 0 .433-.066.817-.2 1.15a2.438 2.438 0 0 1-.53.85c-.22.227-.483.4-.79.52-.306.12-.64.18-1 .18Zm0-.79c.234 0 .447-.037.64-.11.2-.08.374-.197.52-.35.147-.16.26-.36.34-.6.08-.24.12-.523.12-.85 0-.327-.04-.61-.12-.85a1.541 1.541 0 0 0-.34-.59 1.302 1.302 0 0 0-.52-.35 1.655 1.655 0 0 0-.64-.12c-.233 0-.446.04-.64.12-.193.073-.363.19-.51.35-.14.153-.25.35-.33.59-.08.24-.12.523-.12.85 0 .327.04.61.12.85.08.24.19.44.33.6.147.153.317.27.51.35.194.073.407.11.64.11Zm3.593-4.5h1.94c.627 0 1.1.11 1.42.33.32.213.48.55.48 1.01 0 .307-.08.553-.24.74-.153.18-.373.31-.66.39.74.12 1.11.53 1.11 1.23 0 .267-.053.497-.16.69a1.32 1.32 0 0 1-.44.46 1.95 1.95 0 0 1-.68.26c-.26.053-.543.08-.85.08h-1.92v-5.19Zm.88.75v1.41h.98c.333 0 .6-.06.8-.18a.569.569 0 0 0 .31-.52c0-.273-.09-.46-.27-.56-.18-.1-.437-.15-.77-.15h-1.05Zm0 2.11v1.58h1.03c.187 0 .353-.01.5-.03.153-.027.283-.07.39-.13a.65.65 0 0 0 .26-.24c.06-.1.09-.223.09-.37 0-.3-.103-.51-.31-.63-.207-.12-.517-.18-.93-.18h-1.03Zm7.531 1.34a2.96 2.96 0 0 1-.23.38 1.731 1.731 0 0 1-.85.61 1.95 1.95 0 0 1-.66.1c-.466 0-.843-.13-1.13-.39-.286-.267-.43-.647-.43-1.14 0-.567.197-.983.59-1.25.4-.267.967-.4 1.7-.4h.97v-.43c0-.36-.093-.617-.28-.77-.186-.153-.506-.23-.96-.23-.32 0-.623.053-.91.16-.286.1-.543.217-.77.35v-.79a3.91 3.91 0 0 1 .75-.33c.32-.113.67-.17 1.05-.17.654 0 1.15.137 1.49.41.34.267.51.683.51 1.25v3c.007.073.01.15.01.23l.02.23.02.17h-.8a4.564 4.564 0 0 1-.06-.39 6.159 6.159 0 0 1-.02-.45l-.01-.15Zm-1.55.3c.274 0 .507-.057.7-.17.194-.113.35-.243.47-.39.12-.153.207-.3.26-.44.054-.147.08-.25.08-.31v-.38h-.88c-.526 0-.91.077-1.15.23-.233.147-.35.37-.35.67 0 .233.07.423.21.57.14.147.36.22.66.22Z"/>
        <rect width="64" height="28" x="514" y="115" fill="#fff" stroke="#5282FF" stroke-width="2" rx="4"/>
        <path fill="#000" fill-opacity=".85" d="M528.181 128.72v-.8h1.01c.5 0 .88-.107 1.14-.32.26-.22.39-.52.39-.9 0-.407-.137-.693-.41-.86-.274-.173-.634-.26-1.08-.26a4.713 4.713 0 0 0-2.21.52v-.89c.22-.113.506-.22.86-.32.36-.1.813-.15 1.36-.15.746 0 1.34.157 1.78.47.44.307.66.783.66 1.43 0 .42-.127.767-.38 1.04-.247.273-.61.467-1.09.58.566.073.993.247 1.28.52.293.267.44.65.44 1.15 0 .38-.074.71-.22.99a1.878 1.878 0 0 1-.6.67c-.247.173-.54.303-.88.39-.34.08-.7.12-1.08.12-.54 0-1.004-.063-1.39-.19-.387-.133-.67-.277-.85-.43v-.9c.62.447 1.356.67 2.21.67.246 0 .48-.02.7-.06.22-.047.413-.12.58-.22.166-.1.296-.233.39-.4.1-.167.15-.373.15-.62 0-.453-.147-.77-.44-.95-.287-.187-.717-.28-1.29-.28h-1.03Zm8.024 2.29a2.94 2.94 0 0 1-.23.38 1.731 1.731 0 0 1-.85.61 1.95 1.95 0 0 1-.66.1c-.466 0-.843-.13-1.13-.39-.286-.267-.43-.647-.43-1.14 0-.567.197-.983.59-1.25.4-.267.967-.4 1.7-.4h.97v-.43c0-.36-.093-.617-.28-.77-.186-.153-.506-.23-.96-.23-.32 0-.623.053-.91.16-.286.1-.543.217-.77.35v-.79c.187-.113.437-.223.75-.33.32-.113.67-.17 1.05-.17.654 0 1.15.137 1.49.41.34.267.51.683.51 1.25v3c.007.073.01.15.01.23l.02.23.02.17h-.8a4.525 4.525 0 0 1-.06-.39 6.145 6.145 0 0 1-.02-.45l-.01-.15Zm-1.55.3c.274 0 .507-.057.7-.17.194-.113.35-.243.47-.39.12-.153.207-.3.26-.44.054-.147.08-.25.08-.31v-.38h-.88c-.526 0-.91.077-1.15.23-.233.147-.35.37-.35.67 0 .233.07.423.21.57.14.147.36.22.66.22Zm6.064-5.19c-.267 0-.5-.033-.7-.1a1.533 1.533 0 0 1-.49-.29 1.328 1.328 0 0 1-.29-.43 1.585 1.585 0 0 1-.09-.54h.88c0 .253.06.437.18.55.127.113.297.17.51.17.213 0 .38-.057.5-.17.12-.113.18-.297.18-.55h.88c0 .38-.13.703-.39.97-.253.26-.643.39-1.17.39Zm-1.41 4.68 2.77-3.99h.89V132h-.88v-3.98l-2.76 3.98h-.9v-5.19h.88v3.99Zm9.327 1.2h-4.23v-5.19h.88v4.44h2.55v-4.44h.88v4.44h.78v2.23h-.75l-.11-1.48Zm5.808-.44c-.074.053-.164.11-.27.17-.107.06-.237.12-.39.18a3.316 3.316 0 0 1-.52.13c-.194.04-.41.06-.65.06-.874 0-1.537-.237-1.99-.71-.454-.473-.68-1.137-.68-1.99 0-.42.06-.797.18-1.13.126-.333.3-.613.52-.84.22-.233.48-.41.78-.53.3-.127.626-.19.98-.19.373 0 .706.063 1 .19.293.127.533.313.72.56.193.247.323.553.39.92.073.36.073.78 0 1.26h-3.66c.033.56.2.98.5 1.26.3.273.746.41 1.34.41.4 0 .743-.057 1.03-.17.286-.113.526-.237.72-.37v.79Zm-2.06-4.07c-.38 0-.707.117-.98.35-.274.233-.447.587-.52 1.06h2.79c.026-.48-.084-.833-.33-1.06-.247-.233-.567-.35-.96-.35Zm3.311-.68h1.94c.626 0 1.1.11 1.42.33.32.213.48.55.48 1.01 0 .307-.08.553-.24.74-.154.18-.374.31-.66.39.74.12 1.11.53 1.11 1.23 0 .267-.054.497-.16.69-.107.187-.254.34-.44.46-.187.12-.414.207-.68.26-.26.053-.544.08-.85.08h-1.92v-5.19Zm.88.75v1.41h.98c.333 0 .6-.06.8-.18a.57.57 0 0 0 .31-.52c0-.273-.09-.46-.27-.56-.18-.1-.437-.15-.77-.15h-1.05Zm0 2.11v1.58h1.03c.186 0 .353-.01.5-.03.153-.027.283-.07.39-.13a.65.65 0 0 0 .26-.24c.06-.1.09-.223.09-.37 0-.3-.104-.51-.31-.63-.207-.12-.517-.18-.93-.18h-1.03Zm7.531 1.34c-.06.12-.137.247-.23.38a1.757 1.757 0 0 1-.85.61c-.187.067-.407.1-.66.1-.467 0-.844-.13-1.13-.39-.287-.267-.43-.647-.43-1.14 0-.567.196-.983.59-1.25.4-.267.966-.4 1.7-.4h.97v-.43c0-.36-.094-.617-.28-.77-.187-.153-.507-.23-.96-.23-.32 0-.624.053-.91.16-.287.1-.544.217-.77.35v-.79c.186-.113.436-.223.75-.33.32-.113.67-.17 1.05-.17.653 0 1.15.137 1.49.41.34.267.51.683.51 1.25v3c.006.073.01.15.01.23a11.08 11.08 0 0 0 .04.4h-.8a4.525 4.525 0 0 1-.06-.39 5.63 5.63 0 0 1-.02-.45l-.01-.15Zm-1.55.3c.273 0 .506-.057.7-.17.193-.113.35-.243.47-.39.12-.153.206-.3.26-.44.053-.147.08-.25.08-.31v-.38h-.88c-.527 0-.91.077-1.15.23-.234.147-.35.37-.35.67 0 .233.07.423.21.57.14.147.36.22.66.22Z"/>
        <rect width="64" height="28" x="514" y="153" fill="#fff" stroke="#5282FF" stroke-width="2" rx="4"/>
        <path fill="#000" fill-opacity=".85" d="M536.335 168.06a6.99 6.99 0 0 1-.42.84c-.146.24-.31.443-.49.61-.18.167-.386.293-.62.38-.226.08-.49.12-.79.12h-.1a.492.492 0 0 1-.1-.01v-.94c.034.007.067.01.1.01h.11c.354 0 .63-.08.83-.24.207-.16.377-.36.51-.6l-2.66-5.4h1.07l2.07 4.32 1.79-4.32h.97l-2.27 5.23Zm2.738.33c.093-.34.153-.8.18-1.38.027-.58.04-1.313.04-2.2h3.49V170h-.89v-4.44h-1.77c-.007.713-.03 1.347-.07 1.9-.033.553-.11 1.02-.23 1.4-.113.38-.283.67-.51.87-.22.193-.517.29-.89.29h-.08a.434.434 0 0 1-.09-.01v-.87c.033.007.077.01.13.01.34 0 .57-.253.69-.76Zm6.477-.6h-.46V170h-.88v-5.19h.88v2.23h.5l1.82-2.23h1l-2.13 2.56 2.17 2.63h-1.07l-1.83-2.21Zm5.761 2.31c-.353 0-.683-.06-.99-.18a2.301 2.301 0 0 1-.8-.52 2.54 2.54 0 0 1-.52-.85 3.217 3.217 0 0 1-.19-1.15c0-.427.063-.807.19-1.14.127-.34.3-.623.52-.85.227-.227.493-.4.8-.52.307-.12.637-.18.99-.18.36 0 .693.06 1 .18.307.12.57.293.79.52.227.227.403.51.53.85.133.333.2.713.2 1.14 0 .433-.067.817-.2 1.15a2.452 2.452 0 0 1-.53.85c-.22.227-.483.4-.79.52-.307.12-.64.18-1 .18Zm0-.79c.233 0 .447-.037.64-.11.2-.08.373-.197.52-.35.147-.16.26-.36.34-.6.08-.24.12-.523.12-.85 0-.327-.04-.61-.12-.85a1.539 1.539 0 0 0-.34-.59 1.306 1.306 0 0 0-.52-.35 1.658 1.658 0 0 0-.64-.12c-.233 0-.447.04-.64.12-.193.073-.363.19-.51.35-.14.153-.25.35-.33.59-.08.24-.12.523-.12.85 0 .327.04.61.12.85.08.24.19.44.33.6.147.153.317.27.51.35.193.073.407.11.64.11Zm3.593-4.5h1.94c.626 0 1.1.11 1.42.33.32.213.48.55.48 1.01 0 .307-.08.553-.24.74-.154.18-.374.31-.66.39.74.12 1.11.53 1.11 1.23 0 .267-.054.497-.16.69-.107.187-.254.34-.44.46-.187.12-.414.207-.68.26-.26.053-.544.08-.85.08h-1.92v-5.19Zm.88.75v1.41h.98c.333 0 .6-.06.8-.18a.57.57 0 0 0 .31-.52c0-.273-.09-.46-.27-.56-.18-.1-.437-.15-.77-.15h-1.05Zm0 2.11v1.58h1.03c.186 0 .353-.01.5-.03.153-.027.283-.07.39-.13a.65.65 0 0 0 .26-.24c.06-.1.09-.223.09-.37 0-.3-.104-.51-.31-.63-.207-.12-.517-.18-.93-.18h-1.03Z"/>
        <g filter="url(#filter8_d_104_145)">
            <rect width="80" height="143" x="604" y="46" fill="#fff" rx="5"/>
        </g>
        <path fill="#262626" d="M621.687 62.98a2.08 2.08 0 0 1-.67.82c-.287.2-.65.3-1.09.3a2.48 2.48 0 0 1-.89-.16 2.135 2.135 0 0 1-.74-.5 2.52 2.52 0 0 1-.51-.84c-.127-.34-.19-.74-.19-1.2 0-.453.063-.847.19-1.18.127-.34.297-.62.51-.84.213-.227.46-.393.74-.5a2.43 2.43 0 0 1 .9-.17c.393 0 .733.083 1.02.25.287.16.517.39.69.69v-2.82h.88V64h-.77l-.07-1.02Zm-1.63.33c.227 0 .437-.037.63-.11.193-.08.36-.2.5-.36.147-.16.26-.36.34-.6.087-.24.13-.52.13-.84 0-.32-.043-.6-.13-.84-.08-.24-.193-.44-.34-.6a1.243 1.243 0 0 0-.5-.35 1.63 1.63 0 0 0-.63-.12c-.46 0-.837.163-1.13.49-.287.32-.43.793-.43 1.42 0 .633.147 1.11.44 1.43.293.32.667.48 1.12.48Zm8.036.25a2.77 2.77 0 0 1-.66.35 3.289 3.289 0 0 1-.52.13c-.193.04-.41.06-.65.06-.873 0-1.537-.237-1.99-.71-.453-.473-.68-1.137-.68-1.99 0-.42.06-.797.18-1.13.127-.333.3-.613.52-.84.22-.233.48-.41.78-.53.3-.127.627-.19.98-.19a2.5 2.5 0 0 1 1 .19c.293.127.533.313.72.56.193.247.323.553.39.92.073.36.073.78 0 1.26h-3.66c.033.56.2.98.5 1.26.3.273.747.41 1.34.41.4 0 .743-.057 1.03-.17a3.59 3.59 0 0 0 .72-.37v.79Zm-2.06-4.07c-.38 0-.707.117-.98.35-.273.233-.447.587-.52 1.06h2.79c.027-.48-.083-.833-.33-1.06-.247-.233-.567-.35-.96-.35Zm5.843 4.61c-.4 0-.747-.093-1.04-.28a2.03 2.03 0 0 1-.69-.77v2.72h-.88v-6.96h.77l.09 1.01c.173-.34.407-.61.7-.81.293-.2.657-.3 1.09-.3.3 0 .587.057.86.17.28.107.523.273.73.5.213.22.38.5.5.84.127.333.19.727.19 1.18 0 .46-.063.86-.19 1.2a2.52 2.52 0 0 1-.51.84 2.13 2.13 0 0 1-.74.5c-.28.107-.573.16-.88.16Zm-.13-.79c.46 0 .83-.157 1.11-.47.287-.32.43-.8.43-1.44 0-.627-.143-1.1-.43-1.42-.28-.327-.65-.49-1.11-.49-.227 0-.44.04-.64.12-.193.08-.363.2-.51.36-.14.153-.253.35-.34.59-.08.24-.12.52-.12.84 0 .32.04.6.12.84.087.24.2.44.34.6.147.16.317.28.51.36.2.073.413.11.64.11Zm6.507-.3c-.06.12-.137.247-.23.38a1.731 1.731 0 0 1-.85.61c-.187.067-.407.1-.66.1-.467 0-.843-.13-1.13-.39-.287-.267-.43-.647-.43-1.14 0-.567.197-.983.59-1.25.4-.267.967-.4 1.7-.4h.97v-.43c0-.36-.093-.617-.28-.77-.187-.153-.507-.23-.96-.23-.32 0-.623.053-.91.16a4.33 4.33 0 0 0-.77.35v-.79a3.91 3.91 0 0 1 .75-.33c.32-.113.67-.17 1.05-.17.653 0 1.15.137 1.49.41.34.267.51.683.51 1.25v3c.007.073.01.15.01.23l.02.23c.007.067.013.123.02.17h-.8a4.564 4.564 0 0 1-.06-.39 6.159 6.159 0 0 1-.02-.45l-.01-.15Zm-1.55.3c.273 0 .507-.057.7-.17a1.73 1.73 0 0 0 .47-.39c.12-.153.207-.3.26-.44.053-.147.08-.25.08-.31v-.38h-.88c-.527 0-.91.077-1.15.23-.233.147-.35.37-.35.67 0 .233.07.423.21.57.14.147.36.22.66.22Zm6.344-3.62c-.373.033-.713.13-1.02.29-.3.153-.523.393-.67.72V64h-.88v-5.19h.77l.09 1.13h.02c.147-.307.357-.573.63-.8.28-.233.633-.377 1.06-.43v.98Zm3.661 4.2c-.106.06-.243.11-.41.15-.166.04-.343.06-.53.06a1.73 1.73 0 0 1-.65-.11 1.263 1.263 0 0 1-.43-.29 1.25 1.25 0 0 1-.25-.42 1.766 1.766 0 0 1-.07-.49v-3.23h-.62v-.75h.62v-1.09h.88v1.09h1.51v.75h-1.51v3.12c0 .22.054.38.16.48.114.1.31.15.59.15.26 0 .497-.073.71-.22v.8Zm2.051.11h-.88v-5.19h.77l.09.93h.02c.14-.293.35-.537.63-.73.28-.2.647-.3 1.1-.3.4 0 .727.097.98.29.26.187.434.47.52.85.147-.353.37-.63.67-.83.307-.207.677-.31 1.11-.31.48 0 .86.137 1.14.41.28.267.42.68.42 1.24V64h-.89v-3.53c0-.34-.083-.587-.25-.74-.166-.16-.393-.24-.68-.24-.193 0-.363.03-.51.09a1.22 1.22 0 0 0-.39.23c-.113.1-.216.217-.31.35-.093.133-.18.273-.26.42V64h-.88v-3.63c0-.333-.083-.563-.25-.69-.166-.127-.393-.19-.68-.19a1.65 1.65 0 0 0-.5.07c-.146.047-.28.113-.4.2a1.602 1.602 0 0 0-.31.32c-.093.12-.18.253-.26.4V64Zm12.078-.44a3.044 3.044 0 0 1-.66.35 3.261 3.261 0 0 1-.52.13c-.193.04-.41.06-.65.06-.873 0-1.536-.237-1.99-.71-.453-.473-.68-1.137-.68-1.99 0-.42.06-.797.18-1.13.127-.333.3-.613.52-.84.22-.233.48-.41.78-.53.3-.127.627-.19.98-.19.374 0 .707.063 1 .19.294.127.534.313.72.56.194.247.324.553.39.92.074.36.074.78 0 1.26h-3.66c.034.56.2.98.5 1.26.3.273.747.41 1.34.41.4 0 .744-.057 1.03-.17a3.59 3.59 0 0 0 .72-.37v.79Zm-2.06-4.07c-.38 0-.706.117-.98.35-.273.233-.446.587-.52 1.06h2.79c.027-.48-.083-.833-.33-1.06-.246-.233-.566-.35-.96-.35Zm5.693 0c-.4 0-.727.093-.98.28-.247.18-.447.413-.6.7V64h-.88v-5.19h.83l.03.93h.02c.14-.3.36-.547.66-.74.3-.193.68-.29 1.14-.29.513 0 .92.137 1.22.41.307.267.46.68.46 1.24V64h-.88v-3.55c0-.36-.09-.61-.27-.75-.18-.14-.43-.21-.75-.21Zm5.832 4.4c-.107.06-.243.11-.41.15-.167.04-.343.06-.53.06a1.73 1.73 0 0 1-.65-.11 1.253 1.253 0 0 1-.43-.29 1.234 1.234 0 0 1-.25-.42 1.73 1.73 0 0 1-.07-.49v-3.23h-.62v-.75h.62v-1.09h.88v1.09h1.51v.75h-1.51v3.12c0 .22.053.38.16.48.113.1.31.15.59.15.26 0 .497-.073.71-.22v.8Z"/>
        <rect width="64" height="28" x="612" y="77" fill="#fff" stroke="#5282FF" stroke-width="2" rx="4"/>
        <path fill="#000" fill-opacity=".85" d="M623.136 86.83h5.39V94h-.95v-6.31h-3.5V94h-.94v-7.17Zm9.55 7.27c-.4 0-.746-.093-1.04-.28a2.047 2.047 0 0 1-.69-.77v2.72h-.88v-6.96h.77l.09 1.01c.174-.34.407-.61.7-.81.294-.2.657-.3 1.09-.3.3 0 .587.057.86.17.28.107.524.273.73.5.214.22.38.5.5.84.127.333.19.727.19 1.18 0 .46-.063.86-.19 1.2a2.487 2.487 0 0 1-.51.84 2.13 2.13 0 0 1-.74.5c-.28.107-.573.16-.88.16Zm-.13-.79c.46 0 .83-.157 1.11-.47.287-.32.43-.8.43-1.44 0-.627-.143-1.1-.43-1.42-.28-.327-.65-.49-1.11-.49-.226 0-.44.04-.64.12-.193.08-.363.2-.51.36-.14.153-.253.35-.34.59-.08.24-.12.52-.12.84 0 .32.04.6.12.84.087.24.2.44.34.6.147.16.317.28.51.36.2.073.414.11.64.11Zm5.647.79c-.354 0-.684-.06-.99-.18a2.296 2.296 0 0 1-.8-.52 2.523 2.523 0 0 1-.52-.85 3.217 3.217 0 0 1-.19-1.15c0-.427.063-.807.19-1.14.126-.34.3-.623.52-.85.226-.227.493-.4.8-.52.306-.12.636-.18.99-.18.36 0 .693.06 1 .18.306.12.57.293.79.52.226.227.403.51.53.85.133.333.2.713.2 1.14 0 .433-.067.817-.2 1.15a2.467 2.467 0 0 1-.53.85c-.22.227-.484.4-.79.52-.307.12-.64.18-1 .18Zm0-.79c.233 0 .446-.037.64-.11.2-.08.373-.197.52-.35.146-.16.26-.36.34-.6.08-.24.12-.523.12-.85 0-.327-.04-.61-.12-.85a1.554 1.554 0 0 0-.34-.59 1.31 1.31 0 0 0-.52-.35 1.662 1.662 0 0 0-.64-.12c-.234 0-.447.04-.64.12-.194.073-.364.19-.51.35-.14.153-.25.35-.33.59-.08.24-.12.523-.12.85 0 .327.04.61.12.85.08.24.19.44.33.6.146.153.316.27.51.35.193.073.406.11.64.11Zm3.263-.06c.187-.113.334-.29.44-.53.107-.24.19-.543.25-.91s.1-.8.12-1.3c.027-.5.05-1.067.07-1.7h3.57v4.44h.78v2.23h-.77l-.11-1.48h-3.86l-.09 1.48h-.79v-2.23h.39Zm3.57 0v-3.69h-1.9c-.033.98-.096 1.767-.19 2.36-.086.587-.24 1.03-.46 1.33h2.55Zm5.571-.24c-.06.12-.137.247-.23.38a1.757 1.757 0 0 1-.85.61c-.187.067-.407.1-.66.1-.467 0-.844-.13-1.13-.39-.287-.267-.43-.647-.43-1.14 0-.567.196-.983.59-1.25.4-.267.966-.4 1.7-.4h.97v-.43c0-.36-.094-.617-.28-.77-.187-.153-.507-.23-.96-.23-.32 0-.624.053-.91.16-.287.1-.544.217-.77.35v-.79c.186-.113.436-.223.75-.33.32-.113.67-.17 1.05-.17.653 0 1.15.137 1.49.41.34.267.51.683.51 1.25v3c.006.073.01.15.01.23a11.264 11.264 0 0 0 .04.4h-.8a4.564 4.564 0 0 1-.06-.39 5.643 5.643 0 0 1-.02-.45l-.01-.15Zm-1.55.3c.273 0 .506-.057.7-.17a1.73 1.73 0 0 0 .47-.39c.12-.153.206-.3.26-.44.053-.147.08-.25.08-.31v-.38h-.88c-.527 0-.91.077-1.15.23-.234.147-.35.37-.35.67 0 .233.07.423.21.57.14.147.36.22.66.22Zm7.303-4.5v2.23h.47l1.65-2.23h.97l-1.93 2.54 2 2.65h-1.07l-1.66-2.21h-.43V94h-.88v-2.21h-.44L653.36 94h-1.04l2-2.62-1.93-2.57h1.01l1.62 2.23h.46v-2.23h.88Zm4.968 3.99 2.77-3.99h.89V94h-.88v-3.98l-2.76 3.98h-.9v-5.19h.88v3.99Z"/>
        <rect width="64" height="28" x="612" y="115" fill="#fff" stroke="#5282FF" stroke-width="2" rx="4"/>
        <path fill="#000" fill-opacity=".85" d="M632.546 131.15h.92v2.55h-.87l-.1-1.7h-5.15l-.11 1.7h-.85v-2.55h.49a2.13 2.13 0 0 0 .54-.83c.14-.353.247-.787.32-1.3.074-.513.127-1.117.16-1.81.034-.693.06-1.487.08-2.38h4.57v6.32Zm-.95 0v-5.46h-2.74c-.02.76-.05 1.433-.09 2.02-.033.58-.086 1.09-.16 1.53-.066.44-.153.817-.26 1.13-.1.307-.226.567-.38.78h3.63Zm3.867-.35 2.77-3.99h.89V132h-.88v-3.98l-2.76 3.98h-.9v-5.19h.88v3.99Zm8.777-.31c0 .293-.06.543-.18.75-.113.2-.27.367-.47.5a2.03 2.03 0 0 1-.7.27c-.26.06-.533.09-.82.09-.38 0-.717-.04-1.01-.12a2.345 2.345 0 0 1-.68-.29v-.79c.207.127.453.227.74.3.287.073.597.11.93.11.38 0 .697-.06.95-.18.26-.127.39-.34.39-.64 0-.293-.11-.5-.33-.62-.213-.12-.543-.18-.99-.18h-.69v-.71h.72c.367 0 .647-.067.84-.2a.662.662 0 0 0 .29-.58.525.525 0 0 0-.1-.33.616.616 0 0 0-.25-.22c-.107-.06-.233-.1-.38-.12-.14-.027-.29-.04-.45-.04-.307 0-.593.037-.86.11-.26.073-.497.177-.71.31v-.79c.173-.113.397-.21.67-.29.28-.08.603-.12.97-.12.633 0 1.11.12 1.43.36.327.24.49.587.49 1.04 0 .34-.093.607-.28.8-.18.193-.437.327-.77.4.413.053.723.183.93.39.213.207.32.47.32.79Zm4.331.52c-.06.12-.137.247-.23.38a1.757 1.757 0 0 1-.85.61c-.187.067-.407.1-.66.1-.467 0-.844-.13-1.13-.39-.287-.267-.43-.647-.43-1.14 0-.567.196-.983.59-1.25.4-.267.966-.4 1.7-.4h.97v-.43c0-.36-.094-.617-.28-.77-.187-.153-.507-.23-.96-.23-.32 0-.624.053-.91.16-.287.1-.544.217-.77.35v-.79c.186-.113.436-.223.75-.33.32-.113.67-.17 1.05-.17.653 0 1.15.137 1.49.41.34.267.51.683.51 1.25v3c.006.073.01.15.01.23a11.08 11.08 0 0 0 .04.4h-.8a4.525 4.525 0 0 1-.06-.39 5.63 5.63 0 0 1-.02-.45l-.01-.15Zm-1.55.3c.273 0 .506-.057.7-.17.193-.113.35-.243.47-.39.12-.153.206-.3.26-.44.053-.147.08-.25.08-.31v-.38h-.88c-.527 0-.91.077-1.15.23-.234.147-.35.37-.35.67 0 .233.07.423.21.57.14.147.36.22.66.22Zm6.063-5.19c-.266 0-.5-.033-.7-.1a1.544 1.544 0 0 1-.49-.29 1.344 1.344 0 0 1-.29-.43 1.585 1.585 0 0 1-.09-.54h.88c0 .253.06.437.18.55.127.113.297.17.51.17.214 0 .38-.057.5-.17.12-.113.18-.297.18-.55h.88c0 .38-.13.703-.39.97-.253.26-.643.39-1.17.39Zm-1.41 4.68 2.77-3.99h.89V132h-.88v-3.98l-2.76 3.98h-.9v-5.19h.88v3.99Zm8.487-1.1h-2.51v2.3h-.88v-5.19h.88v2.14h2.51v-2.14h.88V132h-.88v-2.3Z"/>
        <rect width="64" height="28" x="612" y="153" fill="#fff" stroke="#5282FF" stroke-width="2" rx="4"/>
        <path fill="#000" fill-opacity=".85" d="M623.136 162.83h5.39V170h-.95v-6.31h-3.5V170h-.94v-7.17Zm9.55 7.27c-.4 0-.746-.093-1.04-.28a2.047 2.047 0 0 1-.69-.77v2.72h-.88v-6.96h.77l.09 1.01c.174-.34.407-.61.7-.81.294-.2.657-.3 1.09-.3.3 0 .587.057.86.17.28.107.524.273.73.5.214.22.38.5.5.84.127.333.19.727.19 1.18 0 .46-.063.86-.19 1.2a2.493 2.493 0 0 1-.51.84 2.13 2.13 0 0 1-.74.5c-.28.107-.573.16-.88.16Zm-.13-.79c.46 0 .83-.157 1.11-.47.287-.32.43-.8.43-1.44 0-.627-.143-1.1-.43-1.42-.28-.327-.65-.49-1.11-.49-.226 0-.44.04-.64.12-.193.08-.363.2-.51.36-.14.153-.253.35-.34.59-.08.24-.12.52-.12.84 0 .32.04.6.12.84.087.24.2.44.34.6.147.16.317.28.51.36.2.073.414.11.64.11Zm5.647.79c-.354 0-.684-.06-.99-.18a2.292 2.292 0 0 1-.8-.52 2.523 2.523 0 0 1-.52-.85 3.217 3.217 0 0 1-.19-1.15c0-.427.063-.807.19-1.14.126-.34.3-.623.52-.85.226-.227.493-.4.8-.52.306-.12.636-.18.99-.18.36 0 .693.06 1 .18.306.12.57.293.79.52.226.227.403.51.53.85.133.333.2.713.2 1.14 0 .433-.067.817-.2 1.15a2.467 2.467 0 0 1-.53.85c-.22.227-.484.4-.79.52-.307.12-.64.18-1 .18Zm0-.79c.233 0 .446-.037.64-.11.2-.08.373-.197.52-.35.146-.16.26-.36.34-.6.08-.24.12-.523.12-.85 0-.327-.04-.61-.12-.85a1.552 1.552 0 0 0-.34-.59 1.306 1.306 0 0 0-.52-.35 1.662 1.662 0 0 0-.64-.12c-.234 0-.447.04-.64.12-.194.073-.364.19-.51.35-.14.153-.25.35-.33.59-.08.24-.12.523-.12.85 0 .327.04.61.12.85.08.24.19.44.33.6.146.153.316.27.51.35.193.073.406.11.64.11Zm3.263-.06c.187-.113.334-.29.44-.53.107-.24.19-.543.25-.91s.1-.8.12-1.3c.027-.5.05-1.067.07-1.7h3.57v4.44h.78v2.23h-.77l-.11-1.48h-3.86l-.09 1.48h-.79v-2.23h.39Zm3.57 0v-3.69h-1.9c-.033.98-.096 1.767-.19 2.36-.086.587-.24 1.03-.46 1.33h2.55Zm5.571-.24c-.06.12-.137.247-.23.38a1.757 1.757 0 0 1-.85.61c-.187.067-.407.1-.66.1-.467 0-.844-.13-1.13-.39-.287-.267-.43-.647-.43-1.14 0-.567.196-.983.59-1.25.4-.267.966-.4 1.7-.4h.97v-.43c0-.36-.094-.617-.28-.77-.187-.153-.507-.23-.96-.23-.32 0-.624.053-.91.16-.287.1-.544.217-.77.35v-.79c.186-.113.436-.223.75-.33.32-.113.67-.17 1.05-.17.653 0 1.15.137 1.49.41.34.267.51.683.51 1.25v3c.006.073.01.15.01.23a11.08 11.08 0 0 0 .04.4h-.8a4.525 4.525 0 0 1-.06-.39 5.63 5.63 0 0 1-.02-.45l-.01-.15Zm-1.55.3c.273 0 .506-.057.7-.17.193-.113.35-.243.47-.39.12-.153.206-.3.26-.44.053-.147.08-.25.08-.31v-.38h-.88c-.527 0-.91.077-1.15.23-.234.147-.35.37-.35.67 0 .233.07.423.21.57.14.147.36.22.66.22Zm7.303-4.5v2.23h.47l1.65-2.23h.97l-1.93 2.54 2 2.65h-1.07l-1.66-2.21h-.43V170h-.88v-2.21h-.44l-1.68 2.21h-1.04l2-2.62-1.93-2.57h1.01l1.62 2.23h.46v-2.23h.88Zm4.968 3.99 2.77-3.99h.89V170h-.88v-3.98l-2.76 3.98h-.9v-5.19h.88v3.99Z"/>
        <path fill="#4E496B" d="m252 244 5.774-10h-11.548L252 244Zm1-9v-83h-2v83h2Zm7-90h44v-2h-44v2Zm-7 7a7 7 0 0 1 7-7v-2a9 9 0 0 0-9 9h2Zm45 181 10 5.773v-11.547L298 333Zm110-1H307v2h101v-2ZM304 129l-10-5.774v11.548L304 129Zm-110 1h101v-2H194v2Z"/>
    </g>
    <defs>
        <filter id="filter0_d_104_145" width="312" height="209" x="-2" y="202" color-interpolation-filters="sRGB" filterUnits="userSpaceOnUse">
            <feFlood flood-opacity="0" result="BackgroundImageFix"/>
            <feColorMatrix in="SourceAlpha" result="hardAlpha" values="0 0 0 0 0 0 0 0 0 0 0 0 0 0 0 0 0 0 127 0"/>
            <feOffset/>
            <feGaussianBlur stdDeviation="4"/>
            <feColorMatrix values="0 0 0 0 0.321569 0 0 0 0 0.509804 0 0 0 0 1 0 0 0 0.2 0"/>
            <feBlend in2="BackgroundImageFix" result="effect1_dropShadow_104_145"/>
            <feBlend in="SourceGraphic" in2="effect1_dropShadow_104_145" result="shape"/>
        </filter>
        <filter id="filter1_d_104_145" width="96" height="159" x="8" y="242" color-interpolation-filters="sRGB" filterUnits="userSpaceOnUse">
            <feFlood flood-opacity="0" result="BackgroundImageFix"/>
            <feColorMatrix in="SourceAlpha" result="hardAlpha" values="0 0 0 0 0 0 0 0 0 0 0 0 0 0 0 0 0 0 127 0"/>
            <feOffset/>
            <feGaussianBlur stdDeviation="4"/>
            <feColorMatrix values="0 0 0 0 0.321569 0 0 0 0 0.509804 0 0 0 0 1 0 0 0 0.2 0"/>
            <feBlend in2="BackgroundImageFix" result="effect1_dropShadow_104_145"/>
            <feBlend in="SourceGraphic" in2="effect1_dropShadow_104_145" result="shape"/>
        </filter>
        <filter id="filter2_d_104_145" width="96" height="159" x="106" y="242" color-interpolation-filters="sRGB" filterUnits="userSpaceOnUse">
            <feFlood flood-opacity="0" result="BackgroundImageFix"/>
            <feColorMatrix in="SourceAlpha" result="hardAlpha" values="0 0 0 0 0 0 0 0 0 0 0 0 0 0 0 0 0 0 127 0"/>
            <feOffset/>
            <feGaussianBlur stdDeviation="4"/>
            <feColorMatrix values="0 0 0 0 0.321569 0 0 0 0 0.509804 0 0 0 0 1 0 0 0 0.2 0"/>
            <feBlend in2="BackgroundImageFix" result="effect1_dropShadow_104_145"/>
            <feBlend in="SourceGraphic" in2="effect1_dropShadow_104_145" result="shape"/>
        </filter>
        <filter id="filter3_d_104_145" width="96" height="159" x="204" y="242" color-interpolation-filters="sRGB" filterUnits="userSpaceOnUse">
            <feFlood flood-opacity="0" result="BackgroundImageFix"/>
            <feColorMatrix in="SourceAlpha" result="hardAlpha" values="0 0 0 0 0 0 0 0 0 0 0 0 0 0 0 0 0 0 127 0"/>
            <feOffset/>
            <feGaussianBlur stdDeviation="4"/>
            <feColorMatrix values="0 0 0 0 0.321569 0 0 0 0 0.509804 0 0 0 0 1 0 0 0 0.2 0"/>
            <feBlend in2="BackgroundImageFix" result="effect1_dropShadow_104_145"/>
            <feBlend in="SourceGraphic" in2="effect1_dropShadow_104_145" result="shape"/>
        </filter>
        <filter id="filter4_d_104_145" width="410" height="209" x="292" y="-2" color-interpolation-filters="sRGB" filterUnits="userSpaceOnUse">
            <feFlood flood-opacity="0" result="BackgroundImageFix"/>
            <feColorMatrix in="SourceAlpha" result="hardAlpha" values="0 0 0 0 0 0 0 0 0 0 0 0 0 0 0 0 0 0 127 0"/>
            <feOffset/>
            <feGaussianBlur stdDeviation="4"/>
            <feColorMatrix values="0 0 0 0 0.321569 0 0 0 0 0.509804 0 0 0 0 1 0 0 0 0.2 0"/>
            <feBlend in2="BackgroundImageFix" result="effect1_dropShadow_104_145"/>
            <feBlend in="SourceGraphic" in2="effect1_dropShadow_104_145" result="shape"/>
        </filter>
        <filter id="filter5_d_104_145" width="96" height="159" x="302" y="38" color-interpolation-filters="sRGB" filterUnits="userSpaceOnUse">
            <feFlood flood-opacity="0" result="BackgroundImageFix"/>
            <feColorMatrix in="SourceAlpha" result="hardAlpha" values="0 0 0 0 0 0 0 0 0 0 0 0 0 0 0 0 0 0 127 0"/>
            <feOffset/>
            <feGaussianBlur stdDeviation="4"/>
            <feColorMatrix values="0 0 0 0 0.321569 0 0 0 0 0.509804 0 0 0 0 1 0 0 0 0.2 0"/>
            <feBlend in2="BackgroundImageFix" result="effect1_dropShadow_104_145"/>
            <feBlend in="SourceGraphic" in2="effect1_dropShadow_104_145" result="shape"/>
        </filter>
        <filter id="filter6_d_104_145" width="96" height="159" x="400" y="38" color-interpolation-filters="sRGB" filterUnits="userSpaceOnUse">
            <feFlood flood-opacity="0" result="BackgroundImageFix"/>
            <feColorMatrix in="SourceAlpha" result="hardAlpha" values="0 0 0 0 0 0 0 0 0 0 0 0 0 0 0 0 0 0 127 0"/>
            <feOffset/>
            <feGaussianBlur stdDeviation="4"/>
            <feColorMatrix values="0 0 0 0 0.321569 0 0 0 0 0.509804 0 0 0 0 1 0 0 0 0.2 0"/>
            <feBlend in2="BackgroundImageFix" result="effect1_dropShadow_104_145"/>
            <feBlend in="SourceGraphic" in2="effect1_dropShadow_104_145" result="shape"/>
        </filter>
        <filter id="filter7_d_104_145" width="96" height="159" x="498" y="38" color-interpolation-filters="sRGB" filterUnits="userSpaceOnUse">
            <feFlood flood-opacity="0" result="BackgroundImageFix"/>
            <feColorMatrix in="SourceAlpha" result="hardAlpha" values="0 0 0 0 0 0 0 0 0 0 0 0 0 0 0 0 0 0 127 0"/>
            <feOffset/>
            <feGaussianBlur stdDeviation="4"/>
            <feColorMatrix values="0 0 0 0 0.321569 0 0 0 0 0.509804 0 0 0 0 1 0 0 0 0.2 0"/>
            <feBlend in2="BackgroundImageFix" result="effect1_dropShadow_104_145"/>
            <feBlend in="SourceGraphic" in2="effect1_dropShadow_104_145" result="shape"/>
        </filter>
        <filter id="filter8_d_104_145" width="96" height="159" x="596" y="38" color-interpolation-filters="sRGB" filterUnits="userSpaceOnUse">
            <feFlood flood-opacity="0" result="BackgroundImageFix"/>
            <feColorMatrix in="SourceAlpha" result="hardAlpha" values="0 0 0 0 0 0 0 0 0 0 0 0 0 0 0 0 0 0 127 0"/>
            <feOffset/>
            <feGaussianBlur stdDeviation="4"/>
            <feColorMatrix values="0 0 0 0 0.321569 0 0 0 0 0.509804 0 0 0 0 1 0 0 0 0.2 0"/>
            <feBlend in2="BackgroundImageFix" result="effect1_dropShadow_104_145"/>
            <feBlend in="SourceGraphic" in2="effect1_dropShadow_104_145" result="shape"/>
        </filter>
        <clipPath id="clip0_104_145">
            <path fill="#fff" d="M0 0h700v410H0z"/>
        </clipPath>
    </defs>
</svg>
