<svg width="700" height="424" viewBox="0 0 700 424" fill="none" xmlns="http://www.w3.org/2000/svg">
<g filter="url(#filter0_d_1_217)">
<rect x="262" y="25" width="176" height="152" rx="10" fill="white"/>
<path d="M328.544 58.548V57.134H330.014C330.602 57.134 331.055 57.008 331.372 56.756C331.699 56.504 331.862 56.1353 331.862 55.65C331.862 55.1367 331.685 54.782 331.33 54.586C330.985 54.3807 330.518 54.278 329.93 54.278C329.323 54.278 328.759 54.348 328.236 54.488C327.723 54.6187 327.279 54.7773 326.906 54.964V53.494C327.205 53.3353 327.606 53.186 328.11 53.046C328.623 52.906 329.258 52.836 330.014 52.836C330.565 52.836 331.059 52.892 331.498 53.004C331.937 53.1067 332.31 53.27 332.618 53.494C332.926 53.7087 333.159 53.984 333.318 54.32C333.486 54.6467 333.57 55.034 333.57 55.482C333.57 56.1073 333.388 56.6067 333.024 56.98C332.66 57.344 332.161 57.6007 331.526 57.75C332.291 57.862 332.879 58.1093 333.29 58.492C333.71 58.8747 333.92 59.4207 333.92 60.13C333.92 60.662 333.813 61.1193 333.598 61.502C333.393 61.8753 333.108 62.188 332.744 62.44C332.38 62.6827 331.955 62.86 331.47 62.972C330.985 63.084 330.462 63.14 329.902 63.14C329.155 63.14 328.516 63.0607 327.984 62.902C327.452 62.734 327.051 62.5567 326.78 62.37V60.872C327.172 61.124 327.634 61.3247 328.166 61.474C328.707 61.6233 329.277 61.698 329.874 61.698C330.201 61.698 330.504 61.67 330.784 61.614C331.064 61.558 331.307 61.4693 331.512 61.348C331.717 61.2173 331.876 61.0493 331.988 60.844C332.109 60.6293 332.17 60.368 332.17 60.06C332.17 59.5 331.988 59.108 331.624 58.884C331.269 58.66 330.728 58.548 330 58.548H328.544ZM339.64 61.726C339.565 61.894 339.463 62.062 339.332 62.23C339.211 62.398 339.057 62.552 338.87 62.692C338.693 62.8227 338.478 62.93 338.226 63.014C337.974 63.098 337.68 63.14 337.344 63.14C337.027 63.14 336.733 63.0933 336.462 63C336.191 62.916 335.953 62.7853 335.748 62.608C335.552 62.4307 335.393 62.2113 335.272 61.95C335.16 61.6793 335.104 61.3713 335.104 61.026C335.104 60.2327 335.398 59.64 335.986 59.248C336.574 58.8467 337.405 58.646 338.478 58.646H339.584V58.198C339.584 57.722 339.463 57.3953 339.22 57.218C338.977 57.0313 338.576 56.938 338.016 56.938C337.54 56.938 337.092 57.008 336.672 57.148C336.261 57.2787 335.897 57.4327 335.58 57.61V56.252C335.869 56.0933 336.252 55.944 336.728 55.804C337.204 55.664 337.722 55.594 338.282 55.594C339.215 55.594 339.934 55.79 340.438 56.182C340.951 56.5647 341.208 57.1807 341.208 58.03V61.824C341.208 61.908 341.208 62.006 341.208 62.118C341.217 62.2207 341.222 62.328 341.222 62.44C341.231 62.552 341.241 62.6593 341.25 62.762C341.259 62.8553 341.269 62.9347 341.278 63H339.78C339.752 62.8693 339.724 62.6873 339.696 62.454C339.677 62.2207 339.663 62.0107 339.654 61.824L339.64 61.726ZM337.792 61.88C338.137 61.88 338.422 61.81 338.646 61.67C338.879 61.5207 339.066 61.3527 339.206 61.166C339.346 60.97 339.444 60.7787 339.5 60.592C339.556 60.4053 339.584 60.2747 339.584 60.2V59.71H338.576C337.932 59.71 337.461 59.8127 337.162 60.018C336.863 60.214 336.714 60.494 336.714 60.858C336.714 61.1753 336.803 61.4273 336.98 61.614C337.167 61.7913 337.437 61.88 337.792 61.88ZM342.96 55.734H349.134V63H347.51V57.05H344.584V63H342.96V55.734ZM354.962 63.14C354.411 63.14 353.935 63.0187 353.534 62.776C353.142 62.524 352.825 62.188 352.582 61.768V65.478H350.958V55.734H352.442L352.554 57.022C352.797 56.5833 353.119 56.238 353.52 55.986C353.921 55.7247 354.411 55.594 354.99 55.594C355.419 55.594 355.825 55.6733 356.208 55.832C356.6 55.9813 356.941 56.2147 357.23 56.532C357.519 56.84 357.748 57.232 357.916 57.708C358.093 58.1747 358.182 58.7253 358.182 59.36C358.182 60.004 358.093 60.564 357.916 61.04C357.748 61.5067 357.515 61.8987 357.216 62.216C356.927 62.524 356.586 62.7573 356.194 62.916C355.802 63.0653 355.391 63.14 354.962 63.14ZM354.57 61.782C355.149 61.782 355.615 61.586 355.97 61.194C356.334 60.7927 356.516 60.1813 356.516 59.36C356.516 58.548 356.334 57.9413 355.97 57.54C355.615 57.1387 355.153 56.938 354.584 56.938C354.295 56.938 354.029 56.9893 353.786 57.092C353.543 57.1853 353.329 57.3347 353.142 57.54C352.965 57.7453 352.825 58.002 352.722 58.31C352.619 58.6087 352.568 58.9587 352.568 59.36C352.568 59.7707 352.619 60.13 352.722 60.438C352.825 60.7367 352.965 60.9887 353.142 61.194C353.319 61.39 353.529 61.5393 353.772 61.642C354.024 61.7353 354.29 61.782 354.57 61.782ZM362.707 63.14C362.194 63.14 361.718 63.056 361.279 62.888C360.841 62.72 360.458 62.4773 360.131 62.16C359.814 61.8333 359.562 61.4367 359.375 60.97C359.198 60.5033 359.109 59.9667 359.109 59.36C359.109 58.7533 359.198 58.2167 359.375 57.75C359.562 57.2833 359.814 56.8913 360.131 56.574C360.458 56.2473 360.841 56.0047 361.279 55.846C361.718 55.678 362.194 55.594 362.707 55.594C363.221 55.594 363.697 55.678 364.135 55.846C364.574 56.0047 364.957 56.2473 365.283 56.574C365.61 56.8913 365.867 57.2833 366.053 57.75C366.24 58.2167 366.333 58.7533 366.333 59.36C366.333 59.9667 366.24 60.5033 366.053 60.97C365.867 61.4367 365.61 61.8333 365.283 62.16C364.957 62.4773 364.574 62.72 364.135 62.888C363.697 63.056 363.221 63.14 362.707 63.14ZM362.707 61.782C363.267 61.782 363.729 61.586 364.093 61.194C364.467 60.802 364.653 60.1907 364.653 59.36C364.653 58.5387 364.467 57.932 364.093 57.54C363.729 57.1387 363.267 56.938 362.707 56.938C362.157 56.938 361.695 57.1387 361.321 57.54C360.957 57.932 360.775 58.5387 360.775 59.36C360.775 60.1907 360.957 60.802 361.321 61.194C361.695 61.586 362.157 61.782 362.707 61.782ZM371.038 63.14C370.45 63.14 369.923 63.056 369.456 62.888C368.99 62.7107 368.593 62.4633 368.266 62.146C367.94 61.8193 367.688 61.4227 367.51 60.956C367.333 60.4893 367.244 59.9573 367.244 59.36C367.244 58.772 367.333 58.2447 367.51 57.778C367.688 57.3113 367.94 56.9193 368.266 56.602C368.593 56.2753 368.994 56.028 369.47 55.86C369.946 55.6827 370.478 55.594 371.066 55.594C371.57 55.594 372.009 55.65 372.382 55.762C372.765 55.874 373.068 56.014 373.292 56.182V57.526C373.003 57.3393 372.686 57.1947 372.34 57.092C372.004 56.9893 371.612 56.938 371.164 56.938C369.662 56.938 368.91 57.7453 368.91 59.36C368.91 60.9747 369.648 61.782 371.122 61.782C371.598 61.782 372.004 61.7307 372.34 61.628C372.686 61.516 373.003 61.376 373.292 61.208V62.552C373.05 62.7107 372.746 62.8507 372.382 62.972C372.018 63.084 371.57 63.14 371.038 63.14Z" fill="black" fill-opacity="0.85"/>
<path d="M309.884 89.316H308.972V93H307.844V84.396H308.972V88.296H309.812L312.884 84.396H314.156L310.76 88.692L314.288 93H312.884L309.884 89.316ZM317.639 93.12C317.215 93.12 316.819 93.048 316.451 92.904C316.083 92.76 315.763 92.552 315.491 92.28C315.227 92 315.019 91.66 314.867 91.26C314.715 90.86 314.639 90.4 314.639 89.88C314.639 89.368 314.715 88.912 314.867 88.512C315.019 88.104 315.227 87.764 315.491 87.492C315.763 87.22 316.083 87.012 316.451 86.868C316.819 86.724 317.215 86.652 317.639 86.652C318.071 86.652 318.471 86.724 318.839 86.868C319.207 87.012 319.523 87.22 319.787 87.492C320.059 87.764 320.271 88.104 320.423 88.512C320.583 88.912 320.663 89.368 320.663 89.88C320.663 90.4 320.583 90.86 320.423 91.26C320.271 91.66 320.059 92 319.787 92.28C319.523 92.552 319.207 92.76 318.839 92.904C318.471 93.048 318.071 93.12 317.639 93.12ZM317.639 92.172C317.919 92.172 318.175 92.128 318.407 92.04C318.647 91.944 318.855 91.804 319.031 91.62C319.207 91.428 319.343 91.188 319.439 90.9C319.535 90.612 319.583 90.272 319.583 89.88C319.583 89.488 319.535 89.148 319.439 88.86C319.343 88.572 319.207 88.336 319.031 88.152C318.855 87.96 318.647 87.82 318.407 87.732C318.175 87.636 317.919 87.588 317.639 87.588C317.359 87.588 317.103 87.636 316.871 87.732C316.639 87.82 316.435 87.96 316.259 88.152C316.091 88.336 315.959 88.572 315.863 88.86C315.767 89.148 315.719 89.488 315.719 89.88C315.719 90.272 315.767 90.612 315.863 90.9C315.959 91.188 316.091 91.428 316.259 91.62C316.435 91.804 316.639 91.944 316.871 92.04C317.103 92.128 317.359 92.172 317.639 92.172ZM326.018 90.24H323.006V93H321.95V86.772H323.006V89.34H326.018V86.772H327.074V93H326.018V90.24ZM333.761 92.472C333.673 92.536 333.565 92.604 333.437 92.676C333.309 92.748 333.153 92.82 332.969 92.892C332.785 92.956 332.577 93.008 332.345 93.048C332.113 93.096 331.853 93.12 331.565 93.12C330.517 93.12 329.721 92.836 329.177 92.268C328.633 91.7 328.361 90.904 328.361 89.88C328.361 89.376 328.433 88.924 328.577 88.524C328.729 88.124 328.937 87.788 329.201 87.516C329.465 87.236 329.777 87.024 330.137 86.88C330.497 86.728 330.889 86.652 331.313 86.652C331.761 86.652 332.161 86.728 332.513 86.88C332.865 87.032 333.153 87.256 333.377 87.552C333.609 87.848 333.765 88.216 333.845 88.656C333.933 89.088 333.933 89.592 333.845 90.168H329.453C329.493 90.84 329.693 91.344 330.053 91.68C330.413 92.008 330.949 92.172 331.661 92.172C332.141 92.172 332.553 92.104 332.897 91.968C333.241 91.832 333.529 91.684 333.761 91.524V92.472ZM331.289 87.588C330.833 87.588 330.441 87.728 330.113 88.008C329.785 88.288 329.577 88.712 329.489 89.28H332.837C332.869 88.704 332.737 88.28 332.441 88.008C332.145 87.728 331.761 87.588 331.289 87.588ZM339.969 93H338.913V90.264C338.697 90.432 338.445 90.564 338.157 90.66C337.877 90.748 337.557 90.792 337.197 90.792C336.493 90.792 335.953 90.62 335.577 90.276C335.209 89.924 335.025 89.364 335.025 88.596V86.772H336.093V88.608C336.093 89.096 336.205 89.436 336.429 89.628C336.653 89.82 336.969 89.916 337.377 89.916C337.657 89.916 337.929 89.876 338.193 89.796C338.457 89.716 338.697 89.592 338.913 89.424V86.772H339.969V93ZM345.764 90.24H342.752V93H341.696V86.772H342.752V89.34H345.764V86.772H346.82V93H345.764V90.24ZM352.2 91.812C352.128 91.956 352.036 92.108 351.924 92.268C351.812 92.42 351.672 92.56 351.504 92.688C351.336 92.816 351.136 92.92 350.904 93C350.68 93.08 350.416 93.12 350.112 93.12C349.552 93.12 349.1 92.964 348.756 92.652C348.412 92.332 348.24 91.876 348.24 91.284C348.24 90.604 348.476 90.104 348.948 89.784C349.428 89.464 350.108 89.304 350.988 89.304H352.152V88.788C352.152 88.356 352.04 88.048 351.816 87.864C351.592 87.68 351.208 87.588 350.664 87.588C350.28 87.588 349.916 87.652 349.572 87.78C349.228 87.9 348.92 88.04 348.648 88.2V87.252C348.872 87.116 349.172 86.984 349.548 86.856C349.932 86.72 350.352 86.652 350.808 86.652C351.592 86.652 352.188 86.816 352.596 87.144C353.004 87.464 353.208 87.964 353.208 88.644V91.992C353.208 92.064 353.208 92.148 353.208 92.244C353.216 92.332 353.22 92.424 353.22 92.52C353.228 92.616 353.236 92.708 353.244 92.796C353.252 92.876 353.26 92.944 353.268 93H352.308C352.284 92.888 352.26 92.732 352.236 92.532C352.22 92.324 352.212 92.144 352.212 91.992L352.2 91.812ZM350.34 92.172C350.668 92.172 350.948 92.104 351.18 91.968C351.412 91.832 351.6 91.676 351.744 91.5C351.888 91.316 351.992 91.14 352.056 90.972C352.12 90.796 352.152 90.672 352.152 90.6V90.144H351.096C350.464 90.144 350.004 90.236 349.716 90.42C349.436 90.596 349.296 90.864 349.296 91.224C349.296 91.504 349.38 91.732 349.548 91.908C349.716 92.084 349.98 92.172 350.34 92.172ZM354.868 88.788C354.868 88.436 354.932 88.136 355.06 87.888C355.188 87.632 355.368 87.424 355.6 87.264C355.832 87.096 356.108 86.972 356.428 86.892C356.748 86.812 357.096 86.772 357.472 86.772H359.476V93H358.42V90.744H357.28L355.684 93H354.424L356.224 90.48C355.792 90.352 355.456 90.156 355.216 89.892C354.984 89.628 354.868 89.26 354.868 88.788ZM358.42 89.844V87.672H357.472C357.024 87.672 356.656 87.756 356.368 87.924C356.08 88.092 355.936 88.364 355.936 88.74C355.936 89.132 356.064 89.416 356.32 89.592C356.576 89.76 356.94 89.844 357.412 89.844H358.42ZM366.352 87.672V93H365.296V87.672H363.34V86.772H368.344V87.672H366.352ZM371.943 93.12C371.519 93.12 371.123 93.048 370.755 92.904C370.387 92.76 370.067 92.552 369.795 92.28C369.531 92 369.323 91.66 369.171 91.26C369.019 90.86 368.943 90.4 368.943 89.88C368.943 89.368 369.019 88.912 369.171 88.512C369.323 88.104 369.531 87.764 369.795 87.492C370.067 87.22 370.387 87.012 370.755 86.868C371.123 86.724 371.519 86.652 371.943 86.652C372.375 86.652 372.775 86.724 373.143 86.868C373.511 87.012 373.827 87.22 374.091 87.492C374.363 87.764 374.575 88.104 374.727 88.512C374.887 88.912 374.967 89.368 374.967 89.88C374.967 90.4 374.887 90.86 374.727 91.26C374.575 91.66 374.363 92 374.091 92.28C373.827 92.552 373.511 92.76 373.143 92.904C372.775 93.048 372.375 93.12 371.943 93.12ZM371.943 92.172C372.223 92.172 372.479 92.128 372.711 92.04C372.951 91.944 373.159 91.804 373.335 91.62C373.511 91.428 373.647 91.188 373.743 90.9C373.839 90.612 373.887 90.272 373.887 89.88C373.887 89.488 373.839 89.148 373.743 88.86C373.647 88.572 373.511 88.336 373.335 88.152C373.159 87.96 372.951 87.82 372.711 87.732C372.479 87.636 372.223 87.588 371.943 87.588C371.663 87.588 371.407 87.636 371.175 87.732C370.943 87.82 370.739 87.96 370.563 88.152C370.395 88.336 370.263 88.572 370.167 88.86C370.071 89.148 370.023 89.488 370.023 89.88C370.023 90.272 370.071 90.612 370.167 90.9C370.263 91.188 370.395 91.428 370.563 91.62C370.739 91.804 370.943 91.944 371.175 92.04C371.407 92.128 371.663 92.172 371.943 92.172ZM380.903 93H379.847V90.264C379.631 90.432 379.379 90.564 379.091 90.66C378.811 90.748 378.491 90.792 378.131 90.792C377.427 90.792 376.887 90.62 376.511 90.276C376.143 89.924 375.959 89.364 375.959 88.596V86.772H377.027V88.608C377.027 89.096 377.139 89.436 377.363 89.628C377.587 89.82 377.903 89.916 378.311 89.916C378.591 89.916 378.863 89.876 379.127 89.796C379.391 89.716 379.631 89.592 379.847 89.424V86.772H380.903V93ZM384.238 90.348H383.686V93H382.63V86.772H383.686V89.448H384.286L386.47 86.772H387.67L385.114 89.844L387.718 93H386.434L384.238 90.348ZM392.36 91.812C392.288 91.956 392.196 92.108 392.084 92.268C391.972 92.42 391.832 92.56 391.664 92.688C391.496 92.816 391.296 92.92 391.064 93C390.84 93.08 390.576 93.12 390.272 93.12C389.712 93.12 389.26 92.964 388.916 92.652C388.572 92.332 388.4 91.876 388.4 91.284C388.4 90.604 388.636 90.104 389.108 89.784C389.588 89.464 390.268 89.304 391.148 89.304H392.312V88.788C392.312 88.356 392.2 88.048 391.976 87.864C391.752 87.68 391.368 87.588 390.824 87.588C390.44 87.588 390.076 87.652 389.732 87.78C389.388 87.9 389.08 88.04 388.808 88.2V87.252C389.032 87.116 389.332 86.984 389.708 86.856C390.092 86.72 390.512 86.652 390.968 86.652C391.752 86.652 392.348 86.816 392.756 87.144C393.164 87.464 393.368 87.964 393.368 88.644V91.992C393.368 92.064 393.368 92.148 393.368 92.244C393.376 92.332 393.38 92.424 393.38 92.52C393.388 92.616 393.396 92.708 393.404 92.796C393.412 92.876 393.42 92.944 393.428 93H392.468C392.444 92.888 392.42 92.732 392.396 92.532C392.38 92.324 392.372 92.144 392.372 91.992L392.36 91.812ZM390.5 92.172C390.828 92.172 391.108 92.104 391.34 91.968C391.572 91.832 391.76 91.676 391.904 91.5C392.048 91.316 392.152 91.14 392.216 90.972C392.28 90.796 392.312 90.672 392.312 90.6V90.144H391.256C390.624 90.144 390.164 90.236 389.876 90.42C389.596 90.596 389.456 90.864 389.456 91.224C389.456 91.504 389.54 91.732 389.708 91.908C389.876 92.084 390.14 92.172 390.5 92.172ZM337.604 109.432L340.4 103.396H341.864V112H340.724V105.076L338.084 110.68L337.52 110.692H337.016L337.028 110.68L334.424 104.98V112H333.356V103.396H334.928L337.604 109.432ZM348.679 111.472C348.591 111.536 348.483 111.604 348.355 111.676C348.227 111.748 348.071 111.82 347.887 111.892C347.703 111.956 347.495 112.008 347.263 112.048C347.031 112.096 346.771 112.12 346.483 112.12C345.435 112.12 344.639 111.836 344.095 111.268C343.551 110.7 343.279 109.904 343.279 108.88C343.279 108.376 343.351 107.924 343.495 107.524C343.647 107.124 343.855 106.788 344.119 106.516C344.383 106.236 344.695 106.024 345.055 105.88C345.415 105.728 345.807 105.652 346.231 105.652C346.679 105.652 347.079 105.728 347.431 105.88C347.783 106.032 348.071 106.256 348.295 106.552C348.527 106.848 348.683 107.216 348.763 107.656C348.851 108.088 348.851 108.592 348.763 109.168H344.371C344.411 109.84 344.611 110.344 344.971 110.68C345.331 111.008 345.867 111.172 346.579 111.172C347.059 111.172 347.471 111.104 347.815 110.968C348.159 110.832 348.447 110.684 348.679 110.524V111.472ZM346.207 106.588C345.751 106.588 345.359 106.728 345.031 107.008C344.703 107.288 344.495 107.712 344.407 108.28H347.755C347.787 107.704 347.655 107.28 347.359 107.008C347.063 106.728 346.679 106.588 346.207 106.588ZM352.63 106.672V112H351.574V106.672H349.618V105.772H354.622V106.672H352.63ZM358.221 112.12C357.797 112.12 357.401 112.048 357.033 111.904C356.665 111.76 356.345 111.552 356.073 111.28C355.809 111 355.601 110.66 355.449 110.26C355.297 109.86 355.221 109.4 355.221 108.88C355.221 108.368 355.297 107.912 355.449 107.512C355.601 107.104 355.809 106.764 356.073 106.492C356.345 106.22 356.665 106.012 357.033 105.868C357.401 105.724 357.797 105.652 358.221 105.652C358.653 105.652 359.053 105.724 359.421 105.868C359.789 106.012 360.105 106.22 360.369 106.492C360.641 106.764 360.853 107.104 361.005 107.512C361.165 107.912 361.245 108.368 361.245 108.88C361.245 109.4 361.165 109.86 361.005 110.26C360.853 110.66 360.641 111 360.369 111.28C360.105 111.552 359.789 111.76 359.421 111.904C359.053 112.048 358.653 112.12 358.221 112.12ZM358.221 111.172C358.501 111.172 358.757 111.128 358.989 111.04C359.229 110.944 359.437 110.804 359.613 110.62C359.789 110.428 359.925 110.188 360.021 109.9C360.117 109.612 360.165 109.272 360.165 108.88C360.165 108.488 360.117 108.148 360.021 107.86C359.925 107.572 359.789 107.336 359.613 107.152C359.437 106.96 359.229 106.82 358.989 106.732C358.757 106.636 358.501 106.588 358.221 106.588C357.941 106.588 357.685 106.636 357.453 106.732C357.221 106.82 357.017 106.96 356.841 107.152C356.673 107.336 356.541 107.572 356.445 107.86C356.349 108.148 356.301 108.488 356.301 108.88C356.301 109.272 356.349 109.612 356.445 109.9C356.541 110.188 356.673 110.428 356.841 110.62C357.017 110.804 357.221 110.944 357.453 111.04C357.685 111.128 357.941 111.172 358.221 111.172ZM362.137 111.1C362.361 110.964 362.537 110.752 362.665 110.464C362.793 110.176 362.893 109.812 362.965 109.372C363.037 108.932 363.085 108.412 363.109 107.812C363.141 107.212 363.169 106.532 363.193 105.772H367.477V111.1H368.413V113.776H367.489L367.357 112H362.725L362.617 113.776H361.669V111.1H362.137ZM366.421 111.1V106.672H364.141C364.101 107.848 364.025 108.792 363.913 109.504C363.809 110.208 363.625 110.74 363.361 111.1H366.421ZM323.316 127.064V126.104H324.528C325.128 126.104 325.584 125.976 325.896 125.72C326.208 125.456 326.364 125.096 326.364 124.64C326.364 124.152 326.2 123.808 325.872 123.608C325.544 123.4 325.112 123.296 324.576 123.296C324.024 123.296 323.528 123.356 323.088 123.476C322.648 123.596 322.26 123.744 321.924 123.92V122.852C322.188 122.716 322.532 122.588 322.956 122.468C323.388 122.348 323.932 122.288 324.588 122.288C325.484 122.288 326.196 122.476 326.724 122.852C327.252 123.22 327.516 123.792 327.516 124.568C327.516 125.072 327.364 125.488 327.06 125.816C326.764 126.144 326.328 126.376 325.752 126.512C326.432 126.6 326.944 126.808 327.288 127.136C327.64 127.456 327.816 127.916 327.816 128.516C327.816 128.972 327.728 129.368 327.552 129.704C327.376 130.032 327.136 130.3 326.832 130.508C326.536 130.716 326.184 130.872 325.776 130.976C325.368 131.072 324.936 131.12 324.48 131.12C323.832 131.12 323.276 131.044 322.812 130.892C322.348 130.732 322.008 130.56 321.792 130.376V129.296C322.536 129.832 323.42 130.1 324.444 130.1C324.74 130.1 325.02 130.076 325.284 130.028C325.548 129.972 325.78 129.884 325.98 129.764C326.18 129.644 326.336 129.484 326.448 129.284C326.568 129.084 326.628 128.836 326.628 128.54C326.628 127.996 326.452 127.616 326.1 127.4C325.756 127.176 325.24 127.064 324.552 127.064H323.316ZM332.946 129.812C332.874 129.956 332.782 130.108 332.67 130.268C332.558 130.42 332.418 130.56 332.25 130.688C332.082 130.816 331.882 130.92 331.65 131C331.426 131.08 331.162 131.12 330.858 131.12C330.298 131.12 329.846 130.964 329.502 130.652C329.158 130.332 328.986 129.876 328.986 129.284C328.986 128.604 329.222 128.104 329.694 127.784C330.174 127.464 330.854 127.304 331.734 127.304H332.898V126.788C332.898 126.356 332.786 126.048 332.562 125.864C332.338 125.68 331.954 125.588 331.41 125.588C331.026 125.588 330.662 125.652 330.318 125.78C329.974 125.9 329.666 126.04 329.394 126.2V125.252C329.618 125.116 329.918 124.984 330.294 124.856C330.678 124.72 331.098 124.652 331.554 124.652C332.338 124.652 332.934 124.816 333.342 125.144C333.75 125.464 333.954 125.964 333.954 126.644V129.992C333.954 130.064 333.954 130.148 333.954 130.244C333.962 130.332 333.966 130.424 333.966 130.52C333.974 130.616 333.982 130.708 333.99 130.796C333.998 130.876 334.006 130.944 334.014 131H333.054C333.03 130.888 333.006 130.732 332.982 130.532C332.966 130.324 332.958 130.144 332.958 129.992L332.946 129.812ZM331.086 130.172C331.414 130.172 331.694 130.104 331.926 129.968C332.158 129.832 332.346 129.676 332.49 129.5C332.634 129.316 332.738 129.14 332.802 128.972C332.866 128.796 332.898 128.672 332.898 128.6V128.144H331.842C331.21 128.144 330.75 128.236 330.462 128.42C330.182 128.596 330.042 128.864 330.042 129.224C330.042 129.504 330.126 129.732 330.294 129.908C330.462 130.084 330.726 130.172 331.086 130.172ZM335.614 124.772H339.574V125.672H336.67V131H335.614V124.772ZM343.233 131.12C342.809 131.12 342.413 131.048 342.045 130.904C341.677 130.76 341.357 130.552 341.085 130.28C340.821 130 340.613 129.66 340.461 129.26C340.309 128.86 340.233 128.4 340.233 127.88C340.233 127.368 340.309 126.912 340.461 126.512C340.613 126.104 340.821 125.764 341.085 125.492C341.357 125.22 341.677 125.012 342.045 124.868C342.413 124.724 342.809 124.652 343.233 124.652C343.665 124.652 344.065 124.724 344.433 124.868C344.801 125.012 345.117 125.22 345.381 125.492C345.653 125.764 345.865 126.104 346.017 126.512C346.177 126.912 346.257 127.368 346.257 127.88C346.257 128.4 346.177 128.86 346.017 129.26C345.865 129.66 345.653 130 345.381 130.28C345.117 130.552 344.801 130.76 344.433 130.904C344.065 131.048 343.665 131.12 343.233 131.12ZM343.233 130.172C343.513 130.172 343.769 130.128 344.001 130.04C344.241 129.944 344.449 129.804 344.625 129.62C344.801 129.428 344.937 129.188 345.033 128.9C345.129 128.612 345.177 128.272 345.177 127.88C345.177 127.488 345.129 127.148 345.033 126.86C344.937 126.572 344.801 126.336 344.625 126.152C344.449 125.96 344.241 125.82 344.001 125.732C343.769 125.636 343.513 125.588 343.233 125.588C342.953 125.588 342.697 125.636 342.465 125.732C342.233 125.82 342.029 125.96 341.853 126.152C341.685 126.336 341.553 126.572 341.457 126.86C341.361 127.148 341.312 127.488 341.312 127.88C341.312 128.272 341.361 128.612 341.457 128.9C341.553 129.188 341.685 129.428 341.853 129.62C342.029 129.804 342.233 129.944 342.465 130.04C342.697 130.128 342.953 130.172 343.233 130.172ZM347.848 129.068C347.96 128.66 348.032 128.108 348.064 127.412C348.096 126.716 348.112 125.836 348.112 124.772H352.3V131H351.232V125.672H349.108C349.1 126.528 349.072 127.288 349.024 127.952C348.984 128.616 348.892 129.176 348.748 129.632C348.612 130.088 348.408 130.436 348.136 130.676C347.872 130.908 347.516 131.024 347.068 131.024C347.036 131.024 347.004 131.024 346.972 131.024C346.94 131.024 346.904 131.02 346.864 131.012V129.968C346.904 129.976 346.956 129.98 347.02 129.98C347.428 129.98 347.704 129.676 347.848 129.068ZM356.568 131.12C356.144 131.12 355.748 131.048 355.38 130.904C355.012 130.76 354.692 130.552 354.42 130.28C354.156 130 353.948 129.66 353.796 129.26C353.644 128.86 353.568 128.4 353.568 127.88C353.568 127.368 353.644 126.912 353.796 126.512C353.948 126.104 354.156 125.764 354.42 125.492C354.692 125.22 355.012 125.012 355.38 124.868C355.748 124.724 356.144 124.652 356.568 124.652C357 124.652 357.4 124.724 357.768 124.868C358.136 125.012 358.452 125.22 358.716 125.492C358.988 125.764 359.2 126.104 359.352 126.512C359.512 126.912 359.592 127.368 359.592 127.88C359.592 128.4 359.512 128.86 359.352 129.26C359.2 129.66 358.988 130 358.716 130.28C358.452 130.552 358.136 130.76 357.768 130.904C357.4 131.048 357 131.12 356.568 131.12ZM356.568 130.172C356.848 130.172 357.104 130.128 357.336 130.04C357.576 129.944 357.784 129.804 357.96 129.62C358.136 129.428 358.272 129.188 358.368 128.9C358.464 128.612 358.512 128.272 358.512 127.88C358.512 127.488 358.464 127.148 358.368 126.86C358.272 126.572 358.136 126.336 357.96 126.152C357.784 125.96 357.576 125.82 357.336 125.732C357.104 125.636 356.848 125.588 356.568 125.588C356.288 125.588 356.032 125.636 355.8 125.732C355.568 125.82 355.364 125.96 355.188 126.152C355.02 126.336 354.888 126.572 354.792 126.86C354.696 127.148 354.648 127.488 354.648 127.88C354.648 128.272 354.696 128.612 354.792 128.9C354.888 129.188 355.02 129.428 355.188 129.62C355.364 129.804 355.568 129.944 355.8 130.04C356.032 130.128 356.288 130.172 356.568 130.172ZM360.88 124.772H363.208C363.96 124.772 364.528 124.904 364.912 125.168C365.296 125.424 365.488 125.828 365.488 126.38C365.488 126.748 365.392 127.044 365.2 127.268C365.016 127.484 364.752 127.64 364.408 127.736C365.296 127.88 365.74 128.372 365.74 129.212C365.74 129.532 365.676 129.808 365.548 130.04C365.42 130.264 365.244 130.448 365.02 130.592C364.796 130.736 364.524 130.84 364.204 130.904C363.892 130.968 363.552 131 363.184 131H360.88V124.772ZM361.936 125.672V127.364H363.112C363.512 127.364 363.832 127.292 364.072 127.148C364.32 127.004 364.444 126.796 364.444 126.524C364.444 126.196 364.336 125.972 364.12 125.852C363.904 125.732 363.596 125.672 363.196 125.672H361.936ZM361.936 128.204V130.1H363.172C363.396 130.1 363.596 130.088 363.772 130.064C363.956 130.032 364.112 129.98 364.24 129.908C364.376 129.836 364.48 129.74 364.552 129.62C364.624 129.5 364.66 129.352 364.66 129.176C364.66 128.816 364.536 128.564 364.288 128.42C364.04 128.276 363.668 128.204 363.172 128.204H361.936ZM368.933 128.348H368.381V131H367.325V124.772H368.381V127.448H368.981L371.165 124.772H372.365L369.809 127.844L372.413 131H371.129L368.933 128.348ZM374.58 129.56L377.904 124.772H378.972V131H377.916V126.224L374.604 131H373.524V124.772H374.58V129.56ZM297.078 142.44V150H295.938V142.44H293.286V141.396H299.73V142.44H297.078ZM305.121 149.472C305.033 149.536 304.925 149.604 304.797 149.676C304.669 149.748 304.513 149.82 304.329 149.892C304.145 149.956 303.937 150.008 303.705 150.048C303.473 150.096 303.213 150.12 302.925 150.12C301.877 150.12 301.081 149.836 300.537 149.268C299.993 148.7 299.721 147.904 299.721 146.88C299.721 146.376 299.793 145.924 299.937 145.524C300.089 145.124 300.297 144.788 300.561 144.516C300.825 144.236 301.137 144.024 301.497 143.88C301.857 143.728 302.249 143.652 302.673 143.652C303.121 143.652 303.521 143.728 303.873 143.88C304.225 144.032 304.513 144.256 304.737 144.552C304.969 144.848 305.125 145.216 305.205 145.656C305.293 146.088 305.293 146.592 305.205 147.168H300.813C300.853 147.84 301.053 148.344 301.413 148.68C301.773 149.008 302.309 149.172 303.021 149.172C303.501 149.172 303.913 149.104 304.257 148.968C304.601 148.832 304.889 148.684 305.121 148.524V149.472ZM302.649 144.588C302.193 144.588 301.801 144.728 301.473 145.008C301.145 145.288 300.937 145.712 300.849 146.28H304.197C304.229 145.704 304.097 145.28 303.801 145.008C303.505 144.728 303.121 144.588 302.649 144.588ZM307.102 148.068C307.214 147.66 307.286 147.108 307.318 146.412C307.35 145.716 307.366 144.836 307.366 143.772H311.554V150H310.486V144.672H308.362C308.354 145.528 308.326 146.288 308.278 146.952C308.238 147.616 308.146 148.176 308.002 148.632C307.866 149.088 307.662 149.436 307.39 149.676C307.126 149.908 306.77 150.024 306.322 150.024C306.29 150.024 306.258 150.024 306.226 150.024C306.194 150.024 306.158 150.02 306.118 150.012V148.968C306.158 148.976 306.21 148.98 306.274 148.98C306.682 148.98 306.958 148.676 307.102 148.068ZM315.822 150.12C315.398 150.12 315.002 150.048 314.634 149.904C314.266 149.76 313.946 149.552 313.674 149.28C313.41 149 313.202 148.66 313.05 148.26C312.898 147.86 312.822 147.4 312.822 146.88C312.822 146.368 312.898 145.912 313.05 145.512C313.202 145.104 313.41 144.764 313.674 144.492C313.946 144.22 314.266 144.012 314.634 143.868C315.002 143.724 315.398 143.652 315.822 143.652C316.254 143.652 316.654 143.724 317.022 143.868C317.39 144.012 317.706 144.22 317.97 144.492C318.242 144.764 318.454 145.104 318.606 145.512C318.766 145.912 318.846 146.368 318.846 146.88C318.846 147.4 318.766 147.86 318.606 148.26C318.454 148.66 318.242 149 317.97 149.28C317.706 149.552 317.39 149.76 317.022 149.904C316.654 150.048 316.254 150.12 315.822 150.12ZM315.822 149.172C316.102 149.172 316.358 149.128 316.59 149.04C316.83 148.944 317.038 148.804 317.214 148.62C317.39 148.428 317.526 148.188 317.622 147.9C317.718 147.612 317.766 147.272 317.766 146.88C317.766 146.488 317.718 146.148 317.622 145.86C317.526 145.572 317.39 145.336 317.214 145.152C317.038 144.96 316.83 144.82 316.59 144.732C316.358 144.636 316.102 144.588 315.822 144.588C315.542 144.588 315.286 144.636 315.054 144.732C314.822 144.82 314.618 144.96 314.442 145.152C314.274 145.336 314.142 145.572 314.046 145.86C313.95 146.148 313.902 146.488 313.902 146.88C313.902 147.272 313.95 147.612 314.046 147.9C314.142 148.188 314.274 148.428 314.442 148.62C314.618 148.804 314.822 148.944 315.054 149.04C315.286 149.128 315.542 149.172 315.822 149.172ZM327.186 148.188C327.186 148.54 327.114 148.84 326.97 149.088C326.834 149.328 326.646 149.528 326.406 149.688C326.166 149.84 325.886 149.948 325.566 150.012C325.254 150.084 324.926 150.12 324.582 150.12C324.126 150.12 323.722 150.072 323.37 149.976C323.026 149.88 322.754 149.764 322.554 149.628V148.68C322.802 148.832 323.098 148.952 323.442 149.04C323.786 149.128 324.158 149.172 324.558 149.172C325.014 149.172 325.394 149.1 325.698 148.956C326.01 148.804 326.166 148.548 326.166 148.188C326.166 147.836 326.034 147.588 325.77 147.444C325.514 147.3 325.118 147.228 324.582 147.228H323.754V146.376H324.618C325.058 146.376 325.394 146.296 325.626 146.136C325.858 145.976 325.974 145.744 325.974 145.44C325.974 145.28 325.934 145.148 325.854 145.044C325.782 144.932 325.682 144.844 325.554 144.78C325.426 144.708 325.274 144.66 325.098 144.636C324.93 144.604 324.75 144.588 324.558 144.588C324.19 144.588 323.846 144.632 323.526 144.72C323.214 144.808 322.93 144.932 322.674 145.092V144.144C322.882 144.008 323.15 143.892 323.478 143.796C323.814 143.7 324.202 143.652 324.642 143.652C325.402 143.652 325.974 143.796 326.358 144.084C326.75 144.372 326.946 144.788 326.946 145.332C326.946 145.74 326.834 146.06 326.61 146.292C326.394 146.524 326.086 146.684 325.686 146.772C326.182 146.836 326.554 146.992 326.802 147.24C327.058 147.488 327.186 147.804 327.186 148.188ZM332.383 148.812C332.311 148.956 332.219 149.108 332.107 149.268C331.995 149.42 331.855 149.56 331.687 149.688C331.519 149.816 331.319 149.92 331.087 150C330.863 150.08 330.599 150.12 330.295 150.12C329.735 150.12 329.283 149.964 328.939 149.652C328.595 149.332 328.423 148.876 328.423 148.284C328.423 147.604 328.659 147.104 329.131 146.784C329.611 146.464 330.291 146.304 331.171 146.304H332.335V145.788C332.335 145.356 332.223 145.048 331.999 144.864C331.775 144.68 331.391 144.588 330.847 144.588C330.463 144.588 330.099 144.652 329.755 144.78C329.411 144.9 329.103 145.04 328.831 145.2V144.252C329.055 144.116 329.355 143.984 329.731 143.856C330.115 143.72 330.535 143.652 330.991 143.652C331.775 143.652 332.371 143.816 332.779 144.144C333.187 144.464 333.391 144.964 333.391 145.644V148.992C333.391 149.064 333.391 149.148 333.391 149.244C333.399 149.332 333.403 149.424 333.403 149.52C333.411 149.616 333.419 149.708 333.427 149.796C333.435 149.876 333.443 149.944 333.451 150H332.491C332.467 149.888 332.443 149.732 332.419 149.532C332.403 149.324 332.395 149.144 332.395 148.992L332.383 148.812ZM330.523 149.172C330.851 149.172 331.131 149.104 331.363 148.968C331.595 148.832 331.783 148.676 331.927 148.5C332.071 148.316 332.175 148.14 332.239 147.972C332.303 147.796 332.335 147.672 332.335 147.6V147.144H331.279C330.647 147.144 330.187 147.236 329.899 147.42C329.619 147.596 329.479 147.864 329.479 148.224C329.479 148.504 329.563 148.732 329.731 148.908C329.899 149.084 330.163 149.172 330.523 149.172ZM335.052 143.772H340.044V150H338.988V144.672H336.108V150H335.052V143.772ZM344.898 150.12C344.418 150.12 344.002 150.008 343.65 149.784C343.306 149.56 343.03 149.252 342.822 148.86V152.124H341.766V143.772H342.69L342.798 144.984C343.006 144.576 343.286 144.252 343.638 144.012C343.99 143.772 344.426 143.652 344.946 143.652C345.306 143.652 345.65 143.72 345.978 143.856C346.314 143.984 346.606 144.184 346.854 144.456C347.11 144.72 347.31 145.056 347.454 145.464C347.606 145.864 347.682 146.336 347.682 146.88C347.682 147.432 347.606 147.912 347.454 148.32C347.302 148.72 347.098 149.056 346.842 149.328C346.586 149.592 346.29 149.792 345.954 149.928C345.618 150.056 345.266 150.12 344.898 150.12ZM344.742 149.172C345.294 149.172 345.738 148.984 346.074 148.608C346.418 148.224 346.59 147.648 346.59 146.88C346.59 146.128 346.418 145.56 346.074 145.176C345.738 144.784 345.294 144.588 344.742 144.588C344.47 144.588 344.214 144.636 343.974 144.732C343.742 144.828 343.538 144.972 343.362 145.164C343.194 145.348 343.058 145.584 342.954 145.872C342.858 146.16 342.81 146.496 342.81 146.88C342.81 147.264 342.858 147.6 342.954 147.888C343.058 148.176 343.194 148.416 343.362 148.608C343.538 148.8 343.742 148.944 343.974 149.04C344.214 149.128 344.47 149.172 344.742 149.172ZM351.518 150.12C351.094 150.12 350.698 150.048 350.33 149.904C349.962 149.76 349.642 149.552 349.37 149.28C349.106 149 348.898 148.66 348.746 148.26C348.594 147.86 348.518 147.4 348.518 146.88C348.518 146.368 348.594 145.912 348.746 145.512C348.898 145.104 349.106 144.764 349.37 144.492C349.642 144.22 349.962 144.012 350.33 143.868C350.698 143.724 351.094 143.652 351.518 143.652C351.95 143.652 352.35 143.724 352.718 143.868C353.086 144.012 353.402 144.22 353.666 144.492C353.938 144.764 354.15 145.104 354.302 145.512C354.462 145.912 354.542 146.368 354.542 146.88C354.542 147.4 354.462 147.86 354.302 148.26C354.15 148.66 353.938 149 353.666 149.28C353.402 149.552 353.086 149.76 352.718 149.904C352.35 150.048 351.95 150.12 351.518 150.12ZM351.518 149.172C351.798 149.172 352.054 149.128 352.286 149.04C352.526 148.944 352.734 148.804 352.91 148.62C353.086 148.428 353.222 148.188 353.318 147.9C353.414 147.612 353.462 147.272 353.462 146.88C353.462 146.488 353.414 146.148 353.318 145.86C353.222 145.572 353.086 145.336 352.91 145.152C352.734 144.96 352.526 144.82 352.286 144.732C352.054 144.636 351.798 144.588 351.518 144.588C351.238 144.588 350.982 144.636 350.75 144.732C350.518 144.82 350.314 144.96 350.138 145.152C349.97 145.336 349.838 145.572 349.742 145.86C349.646 146.148 349.598 146.488 349.598 146.88C349.598 147.272 349.646 147.612 349.742 147.9C349.838 148.188 349.97 148.428 350.138 148.62C350.314 148.804 350.518 148.944 350.75 149.04C350.982 149.128 351.238 149.172 351.518 149.172ZM358.517 150.12C358.037 150.12 357.601 150.048 357.209 149.904C356.825 149.752 356.497 149.54 356.225 149.268C355.953 148.988 355.745 148.648 355.601 148.248C355.457 147.848 355.385 147.392 355.385 146.88C355.385 146.376 355.457 145.924 355.601 145.524C355.753 145.124 355.965 144.788 356.237 144.516C356.509 144.236 356.841 144.024 357.233 143.88C357.625 143.728 358.069 143.652 358.565 143.652C358.949 143.652 359.301 143.696 359.621 143.784C359.941 143.864 360.205 143.984 360.413 144.144V145.092C360.157 144.924 359.869 144.8 359.549 144.72C359.237 144.632 358.913 144.588 358.577 144.588C357.849 144.588 357.313 144.776 356.969 145.152C356.633 145.528 356.465 146.104 356.465 146.88C356.465 147.656 356.629 148.232 356.957 148.608C357.285 148.984 357.805 149.172 358.517 149.172C358.893 149.172 359.237 149.128 359.549 149.04C359.869 148.944 360.157 148.824 360.413 148.68V149.628C360.189 149.764 359.917 149.88 359.597 149.976C359.285 150.072 358.925 150.12 358.517 150.12ZM365.477 148.812C365.405 148.956 365.313 149.108 365.201 149.268C365.089 149.42 364.949 149.56 364.781 149.688C364.613 149.816 364.413 149.92 364.181 150C363.957 150.08 363.693 150.12 363.389 150.12C362.829 150.12 362.377 149.964 362.033 149.652C361.689 149.332 361.517 148.876 361.517 148.284C361.517 147.604 361.753 147.104 362.225 146.784C362.705 146.464 363.385 146.304 364.265 146.304H365.429V145.788C365.429 145.356 365.317 145.048 365.093 144.864C364.869 144.68 364.485 144.588 363.941 144.588C363.557 144.588 363.193 144.652 362.849 144.78C362.505 144.9 362.197 145.04 361.925 145.2V144.252C362.149 144.116 362.449 143.984 362.825 143.856C363.209 143.72 363.629 143.652 364.085 143.652C364.869 143.652 365.465 143.816 365.873 144.144C366.281 144.464 366.485 144.964 366.485 145.644V148.992C366.485 149.064 366.485 149.148 366.485 149.244C366.493 149.332 366.497 149.424 366.497 149.52C366.505 149.616 366.513 149.708 366.521 149.796C366.529 149.876 366.537 149.944 366.545 150H365.585C365.561 149.888 365.537 149.732 365.513 149.532C365.497 149.324 365.489 149.144 365.489 148.992L365.477 148.812ZM363.617 149.172C363.945 149.172 364.225 149.104 364.457 148.968C364.689 148.832 364.877 148.676 365.021 148.5C365.165 148.316 365.269 148.14 365.333 147.972C365.397 147.796 365.429 147.672 365.429 147.6V147.144H364.373C363.741 147.144 363.281 147.236 362.993 147.42C362.713 147.596 362.573 147.864 362.573 148.224C362.573 148.504 362.657 148.732 362.825 148.908C362.993 149.084 363.257 149.172 363.617 149.172ZM372.726 151.668C372.102 150.956 371.638 150.144 371.334 149.232C371.03 148.312 370.878 147.34 370.878 146.316C370.878 145.812 370.914 145.308 370.986 144.804C371.066 144.3 371.182 143.816 371.334 143.352C371.494 142.88 371.686 142.44 371.91 142.032C372.142 141.624 372.414 141.256 372.726 140.928H373.77C373.442 141.24 373.162 141.6 372.93 142.008C372.698 142.416 372.502 142.852 372.342 143.316C372.19 143.78 372.078 144.264 372.006 144.768C371.934 145.272 371.898 145.776 371.898 146.28C371.898 147.304 372.046 148.276 372.342 149.196C372.646 150.116 373.122 150.94 373.77 151.668H372.726ZM377.676 141.396V148.404C377.676 148.62 377.636 148.832 377.556 149.04C377.476 149.248 377.352 149.432 377.184 149.592C377.024 149.752 376.816 149.88 376.56 149.976C376.312 150.072 376.016 150.12 375.672 150.12C375.464 150.12 375.252 150.1 375.036 150.06C374.828 150.028 374.636 149.98 374.46 149.916V148.944C374.764 149.048 375.08 149.1 375.408 149.1C375.8 149.1 376.084 149.02 376.26 148.86C376.444 148.692 376.536 148.428 376.536 148.068V141.396H377.676ZM382.045 150.12C381.653 150.12 381.301 150.092 380.989 150.036C380.677 149.988 380.401 149.924 380.161 149.844C379.929 149.756 379.729 149.664 379.561 149.568C379.401 149.464 379.273 149.364 379.177 149.268V148.188C379.297 148.292 379.453 148.4 379.645 148.512C379.837 148.616 380.057 148.712 380.305 148.8C380.561 148.888 380.833 148.96 381.121 149.016C381.417 149.072 381.725 149.1 382.045 149.1C382.669 149.1 383.165 148.984 383.533 148.752C383.901 148.512 384.085 148.152 384.085 147.672C384.085 147.432 384.041 147.236 383.953 147.084C383.865 146.924 383.737 146.792 383.569 146.688C383.401 146.576 383.189 146.484 382.933 146.412C382.685 146.332 382.393 146.248 382.057 146.16C381.721 146.072 381.385 145.972 381.049 145.86C380.713 145.748 380.409 145.6 380.137 145.416C379.873 145.232 379.657 145 379.489 144.72C379.329 144.44 379.249 144.084 379.249 143.652C379.249 142.908 379.509 142.328 380.029 141.912C380.549 141.496 381.345 141.288 382.417 141.288C382.729 141.288 383.005 141.308 383.245 141.348C383.493 141.38 383.709 141.424 383.893 141.48C384.085 141.528 384.249 141.584 384.385 141.648C384.529 141.712 384.657 141.772 384.769 141.828V142.908C384.433 142.692 384.069 142.54 383.677 142.452C383.293 142.356 382.873 142.308 382.417 142.308C382.033 142.308 381.709 142.34 381.445 142.404C381.189 142.46 380.981 142.544 380.821 142.656C380.661 142.768 380.545 142.904 380.473 143.064C380.401 143.224 380.365 143.404 380.365 143.604C380.365 143.844 380.417 144.044 380.521 144.204C380.633 144.364 380.777 144.5 380.953 144.612C381.137 144.716 381.345 144.804 381.577 144.876C381.809 144.948 382.053 145.012 382.309 145.068C382.645 145.148 382.989 145.24 383.341 145.344C383.693 145.448 384.009 145.592 384.289 145.776C384.569 145.96 384.797 146.2 384.973 146.496C385.157 146.784 385.249 147.16 385.249 147.624C385.249 148.08 385.157 148.468 384.973 148.788C384.797 149.1 384.561 149.356 384.265 149.556C383.969 149.756 383.629 149.9 383.245 149.988C382.861 150.076 382.461 150.12 382.045 150.12ZM390.288 150.12C389.712 150.12 389.172 150.024 388.668 149.832C388.164 149.632 387.728 149.344 387.36 148.968C386.992 148.592 386.7 148.128 386.484 147.576C386.276 147.024 386.172 146.388 386.172 145.668C386.172 144.948 386.276 144.316 386.484 143.772C386.7 143.22 386.992 142.764 387.36 142.404C387.728 142.036 388.164 141.76 388.668 141.576C389.172 141.384 389.712 141.288 390.288 141.288C390.872 141.288 391.416 141.384 391.92 141.576C392.424 141.76 392.86 142.036 393.228 142.404C393.596 142.772 393.884 143.232 394.092 143.784C394.3 144.328 394.404 144.96 394.404 145.68C394.404 146.392 394.3 147.024 394.092 147.576C393.884 148.128 393.596 148.592 393.228 148.968C392.86 149.344 392.424 149.632 391.92 149.832C391.416 150.024 390.872 150.12 390.288 150.12ZM390.288 149.1C390.704 149.1 391.088 149.04 391.44 148.92C391.792 148.792 392.096 148.596 392.352 148.332C392.616 148.06 392.82 147.708 392.964 147.276C393.116 146.844 393.192 146.32 393.192 145.704C393.192 145.088 393.116 144.564 392.964 144.132C392.82 143.7 392.616 143.352 392.352 143.088C392.096 142.816 391.792 142.62 391.44 142.5C391.088 142.372 390.704 142.308 390.288 142.308C389.872 142.308 389.488 142.372 389.136 142.5C388.784 142.62 388.476 142.816 388.212 143.088C387.956 143.352 387.752 143.7 387.6 144.132C387.456 144.564 387.384 145.088 387.384 145.704C387.384 146.32 387.456 146.844 387.6 147.276C387.752 147.708 387.956 148.06 388.212 148.332C388.476 148.596 388.784 148.792 389.136 148.92C389.488 149.04 389.872 149.1 390.288 149.1ZM402.834 150H401.298L396.978 142.776V150H395.91V141.396H397.434L401.754 148.62V141.396H402.834V150ZM405.272 151.668C405.896 150.956 406.36 150.144 406.664 149.232C406.968 148.312 407.12 147.34 407.12 146.316C407.12 145.812 407.08 145.308 407 144.804C406.928 144.3 406.812 143.816 406.652 143.352C406.5 142.88 406.308 142.44 406.076 142.032C405.852 141.624 405.584 141.256 405.272 140.928H404.228C404.556 141.24 404.836 141.6 405.068 142.008C405.3 142.416 405.492 142.852 405.644 143.316C405.804 143.78 405.92 144.264 405.992 144.768C406.064 145.272 406.1 145.776 406.1 146.28C406.1 147.304 405.948 148.276 405.644 149.196C405.348 150.116 404.876 150.94 404.228 151.668H405.272Z" fill="black" fill-opacity="0.85"/>
</g>
<g filter="url(#filter1_d_1_217)">
<rect x="262" y="248" width="176" height="152" rx="10" fill="white"/>
<path d="M335.607 286.14C334.926 286.14 334.286 286.028 333.689 285.804C333.101 285.58 332.588 285.249 332.149 284.81C331.72 284.371 331.379 283.835 331.127 283.2C330.875 282.556 330.749 281.814 330.749 280.974C330.749 280.134 330.875 279.397 331.127 278.762C331.379 278.118 331.72 277.581 332.149 277.152C332.588 276.713 333.101 276.387 333.689 276.172C334.286 275.948 334.926 275.836 335.607 275.836C336.298 275.836 336.937 275.948 337.525 276.172C338.122 276.387 338.64 276.709 339.079 277.138C339.518 277.567 339.858 278.104 340.101 278.748C340.353 279.383 340.479 280.12 340.479 280.96C340.479 281.791 340.353 282.528 340.101 283.172C339.858 283.816 339.518 284.357 339.079 284.796C338.64 285.235 338.122 285.571 337.525 285.804C336.937 286.028 336.298 286.14 335.607 286.14ZM335.607 284.684C336.046 284.684 336.452 284.619 336.825 284.488C337.208 284.357 337.534 284.147 337.805 283.858C338.085 283.559 338.304 283.177 338.463 282.71C338.622 282.234 338.701 281.66 338.701 280.988C338.701 280.316 338.622 279.747 338.463 279.28C338.304 278.813 338.085 278.435 337.805 278.146C337.534 277.847 337.208 277.633 336.825 277.502C336.452 277.362 336.046 277.292 335.607 277.292C335.168 277.292 334.762 277.362 334.389 277.502C334.016 277.633 333.689 277.847 333.409 278.146C333.138 278.435 332.924 278.813 332.765 279.28C332.606 279.747 332.527 280.316 332.527 280.988C332.527 281.66 332.606 282.234 332.765 282.71C332.924 283.177 333.138 283.559 333.409 283.858C333.689 284.147 334.016 284.357 334.389 284.488C334.762 284.619 335.168 284.684 335.607 284.684ZM345.217 280.05V286H343.593V280.05H341.395V278.734H347.457V280.05H345.217ZM348.695 278.734H351.663C353.502 278.734 354.421 279.341 354.421 280.554C354.421 281.002 354.295 281.357 354.043 281.618C353.8 281.87 353.441 282.061 352.965 282.192C353.553 282.276 353.992 282.458 354.281 282.738C354.57 283.018 354.715 283.415 354.715 283.928C354.715 284.283 354.64 284.591 354.491 284.852C354.342 285.113 354.132 285.328 353.861 285.496C353.6 285.664 353.278 285.79 352.895 285.874C352.512 285.958 352.092 286 351.635 286H348.695V278.734ZM350.305 279.98V281.702H351.495C351.887 281.702 352.204 281.632 352.447 281.492C352.69 281.343 352.811 281.128 352.811 280.848C352.811 280.521 352.704 280.297 352.489 280.176C352.284 280.045 351.98 279.98 351.579 279.98H350.305ZM350.305 282.85V284.754H351.551C351.999 284.754 352.358 284.689 352.629 284.558C352.909 284.427 353.049 284.185 353.049 283.83C353.049 283.475 352.923 283.223 352.671 283.074C352.428 282.925 352.041 282.85 351.509 282.85H350.305ZM362.386 285.468C362.284 285.533 362.158 285.608 362.008 285.692C361.859 285.767 361.682 285.837 361.476 285.902C361.271 285.967 361.033 286.023 360.762 286.07C360.492 286.117 360.184 286.14 359.838 286.14C358.504 286.14 357.505 285.809 356.842 285.146C356.189 284.483 355.862 283.555 355.862 282.36C355.862 281.772 355.951 281.245 356.128 280.778C356.306 280.311 356.553 279.919 356.87 279.602C357.188 279.275 357.566 279.028 358.004 278.86C358.443 278.683 358.924 278.594 359.446 278.594C359.988 278.594 360.473 278.683 360.902 278.86C361.341 279.037 361.7 279.303 361.98 279.658C362.26 280.013 362.452 280.451 362.554 280.974C362.666 281.497 362.671 282.108 362.568 282.808H357.542C357.608 283.471 357.827 283.97 358.2 284.306C358.574 284.633 359.157 284.796 359.95 284.796C360.529 284.796 361.01 284.726 361.392 284.586C361.784 284.437 362.116 284.283 362.386 284.124V285.468ZM359.446 279.882C358.97 279.882 358.569 280.027 358.242 280.316C357.916 280.605 357.701 281.035 357.598 281.604H361.014C361.033 281.016 360.902 280.582 360.622 280.302C360.342 280.022 359.95 279.882 359.446 279.882ZM367.228 280.05V286H365.604V280.05H363.406V278.734H369.468V280.05H367.228Z" fill="black" fill-opacity="0.85"/>
<path d="M323.468 312.064V311.104H324.68C325.28 311.104 325.736 310.976 326.048 310.72C326.36 310.456 326.516 310.096 326.516 309.64C326.516 309.152 326.352 308.808 326.024 308.608C325.696 308.4 325.264 308.296 324.728 308.296C324.176 308.296 323.68 308.356 323.24 308.476C322.8 308.596 322.412 308.744 322.076 308.92V307.852C322.34 307.716 322.684 307.588 323.108 307.468C323.54 307.348 324.084 307.288 324.74 307.288C325.636 307.288 326.348 307.476 326.876 307.852C327.404 308.22 327.668 308.792 327.668 309.568C327.668 310.072 327.516 310.488 327.212 310.816C326.916 311.144 326.48 311.376 325.904 311.512C326.584 311.6 327.096 311.808 327.44 312.136C327.792 312.456 327.968 312.916 327.968 313.516C327.968 313.972 327.88 314.368 327.704 314.704C327.528 315.032 327.288 315.3 326.984 315.508C326.688 315.716 326.336 315.872 325.928 315.976C325.52 316.072 325.088 316.12 324.632 316.12C323.984 316.12 323.428 316.044 322.964 315.892C322.5 315.732 322.16 315.56 321.944 315.376V314.296C322.688 314.832 323.572 315.1 324.596 315.1C324.892 315.1 325.172 315.076 325.436 315.028C325.7 314.972 325.932 314.884 326.132 314.764C326.332 314.644 326.488 314.484 326.6 314.284C326.72 314.084 326.78 313.836 326.78 313.54C326.78 312.996 326.604 312.616 326.252 312.4C325.908 312.176 325.392 312.064 324.704 312.064H323.468ZM333.098 314.812C333.026 314.956 332.934 315.108 332.822 315.268C332.71 315.42 332.57 315.56 332.402 315.688C332.234 315.816 332.034 315.92 331.802 316C331.578 316.08 331.314 316.12 331.01 316.12C330.45 316.12 329.998 315.964 329.654 315.652C329.31 315.332 329.138 314.876 329.138 314.284C329.138 313.604 329.374 313.104 329.846 312.784C330.326 312.464 331.006 312.304 331.886 312.304H333.05V311.788C333.05 311.356 332.938 311.048 332.714 310.864C332.49 310.68 332.106 310.588 331.562 310.588C331.178 310.588 330.814 310.652 330.47 310.78C330.126 310.9 329.818 311.04 329.546 311.2V310.252C329.77 310.116 330.07 309.984 330.446 309.856C330.83 309.72 331.25 309.652 331.706 309.652C332.49 309.652 333.086 309.816 333.494 310.144C333.902 310.464 334.106 310.964 334.106 311.644V314.992C334.106 315.064 334.106 315.148 334.106 315.244C334.114 315.332 334.118 315.424 334.118 315.52C334.126 315.616 334.134 315.708 334.142 315.796C334.15 315.876 334.158 315.944 334.166 316H333.206C333.182 315.888 333.158 315.732 333.134 315.532C333.118 315.324 333.11 315.144 333.11 314.992L333.098 314.812ZM331.238 315.172C331.566 315.172 331.846 315.104 332.078 314.968C332.31 314.832 332.498 314.676 332.642 314.5C332.786 314.316 332.89 314.14 332.954 313.972C333.018 313.796 333.05 313.672 333.05 313.6V313.144H331.994C331.362 313.144 330.902 313.236 330.614 313.42C330.334 313.596 330.194 313.864 330.194 314.224C330.194 314.504 330.278 314.732 330.446 314.908C330.614 315.084 330.878 315.172 331.238 315.172ZM335.766 309.772H339.726V310.672H336.822V316H335.766V309.772ZM343.385 316.12C342.961 316.12 342.565 316.048 342.197 315.904C341.829 315.76 341.509 315.552 341.237 315.28C340.973 315 340.765 314.66 340.613 314.26C340.461 313.86 340.385 313.4 340.385 312.88C340.385 312.368 340.461 311.912 340.613 311.512C340.765 311.104 340.973 310.764 341.237 310.492C341.509 310.22 341.829 310.012 342.197 309.868C342.565 309.724 342.961 309.652 343.385 309.652C343.817 309.652 344.217 309.724 344.585 309.868C344.953 310.012 345.269 310.22 345.533 310.492C345.805 310.764 346.017 311.104 346.169 311.512C346.329 311.912 346.409 312.368 346.409 312.88C346.409 313.4 346.329 313.86 346.169 314.26C346.017 314.66 345.805 315 345.533 315.28C345.269 315.552 344.953 315.76 344.585 315.904C344.217 316.048 343.817 316.12 343.385 316.12ZM343.385 315.172C343.665 315.172 343.921 315.128 344.153 315.04C344.393 314.944 344.601 314.804 344.777 314.62C344.953 314.428 345.089 314.188 345.185 313.9C345.281 313.612 345.329 313.272 345.329 312.88C345.329 312.488 345.281 312.148 345.185 311.86C345.089 311.572 344.953 311.336 344.777 311.152C344.601 310.96 344.393 310.82 344.153 310.732C343.921 310.636 343.665 310.588 343.385 310.588C343.105 310.588 342.849 310.636 342.617 310.732C342.385 310.82 342.181 310.96 342.005 311.152C341.837 311.336 341.705 311.572 341.609 311.86C341.513 312.148 341.465 312.488 341.465 312.88C341.465 313.272 341.513 313.612 341.609 313.9C341.705 314.188 341.837 314.428 342.005 314.62C342.181 314.804 342.385 314.944 342.617 315.04C342.849 315.128 343.105 315.172 343.385 315.172ZM348 314.068C348.112 313.66 348.184 313.108 348.216 312.412C348.248 311.716 348.264 310.836 348.264 309.772H352.452V316H351.384V310.672H349.26C349.252 311.528 349.224 312.288 349.176 312.952C349.136 313.616 349.044 314.176 348.9 314.632C348.764 315.088 348.56 315.436 348.288 315.676C348.024 315.908 347.668 316.024 347.22 316.024C347.188 316.024 347.156 316.024 347.124 316.024C347.092 316.024 347.056 316.02 347.016 316.012V314.968C347.056 314.976 347.108 314.98 347.172 314.98C347.58 314.98 347.856 314.676 348 314.068ZM356.721 316.12C356.297 316.12 355.901 316.048 355.533 315.904C355.165 315.76 354.845 315.552 354.573 315.28C354.309 315 354.101 314.66 353.949 314.26C353.797 313.86 353.721 313.4 353.721 312.88C353.721 312.368 353.797 311.912 353.949 311.512C354.101 311.104 354.309 310.764 354.573 310.492C354.845 310.22 355.165 310.012 355.533 309.868C355.901 309.724 356.297 309.652 356.721 309.652C357.153 309.652 357.553 309.724 357.921 309.868C358.289 310.012 358.605 310.22 358.869 310.492C359.141 310.764 359.353 311.104 359.505 311.512C359.665 311.912 359.745 312.368 359.745 312.88C359.745 313.4 359.665 313.86 359.505 314.26C359.353 314.66 359.141 315 358.869 315.28C358.605 315.552 358.289 315.76 357.921 315.904C357.553 316.048 357.153 316.12 356.721 316.12ZM356.721 315.172C357.001 315.172 357.257 315.128 357.489 315.04C357.729 314.944 357.937 314.804 358.113 314.62C358.289 314.428 358.425 314.188 358.521 313.9C358.617 313.612 358.665 313.272 358.665 312.88C358.665 312.488 358.617 312.148 358.521 311.86C358.425 311.572 358.289 311.336 358.113 311.152C357.937 310.96 357.729 310.82 357.489 310.732C357.257 310.636 357.001 310.588 356.721 310.588C356.441 310.588 356.185 310.636 355.953 310.732C355.721 310.82 355.517 310.96 355.341 311.152C355.173 311.336 355.041 311.572 354.945 311.86C354.849 312.148 354.801 312.488 354.801 312.88C354.801 313.272 354.849 313.612 354.945 313.9C355.041 314.188 355.173 314.428 355.341 314.62C355.517 314.804 355.721 314.944 355.953 315.04C356.185 315.128 356.441 315.172 356.721 315.172ZM361.032 309.772H363.36C364.112 309.772 364.68 309.904 365.064 310.168C365.448 310.424 365.64 310.828 365.64 311.38C365.64 311.748 365.544 312.044 365.352 312.268C365.168 312.484 364.904 312.64 364.56 312.736C365.448 312.88 365.892 313.372 365.892 314.212C365.892 314.532 365.828 314.808 365.7 315.04C365.572 315.264 365.396 315.448 365.172 315.592C364.948 315.736 364.676 315.84 364.356 315.904C364.044 315.968 363.704 316 363.336 316H361.032V309.772ZM362.088 310.672V312.364H363.264C363.664 312.364 363.984 312.292 364.224 312.148C364.472 312.004 364.596 311.796 364.596 311.524C364.596 311.196 364.488 310.972 364.272 310.852C364.056 310.732 363.748 310.672 363.348 310.672H362.088ZM362.088 313.204V315.1H363.324C363.548 315.1 363.748 315.088 363.924 315.064C364.108 315.032 364.264 314.98 364.392 314.908C364.528 314.836 364.632 314.74 364.704 314.62C364.776 314.5 364.812 314.352 364.812 314.176C364.812 313.816 364.688 313.564 364.44 313.42C364.192 313.276 363.82 313.204 363.324 313.204H362.088ZM370.033 316.12C369.609 316.12 369.213 316.048 368.845 315.904C368.477 315.76 368.157 315.552 367.885 315.28C367.621 315 367.413 314.66 367.261 314.26C367.109 313.86 367.033 313.4 367.033 312.88C367.033 312.368 367.109 311.912 367.261 311.512C367.413 311.104 367.621 310.764 367.885 310.492C368.157 310.22 368.477 310.012 368.845 309.868C369.213 309.724 369.609 309.652 370.033 309.652C370.465 309.652 370.865 309.724 371.233 309.868C371.601 310.012 371.917 310.22 372.181 310.492C372.453 310.764 372.665 311.104 372.817 311.512C372.977 311.912 373.057 312.368 373.057 312.88C373.057 313.4 372.977 313.86 372.817 314.26C372.665 314.66 372.453 315 372.181 315.28C371.917 315.552 371.601 315.76 371.233 315.904C370.865 316.048 370.465 316.12 370.033 316.12ZM370.033 315.172C370.313 315.172 370.569 315.128 370.801 315.04C371.041 314.944 371.249 314.804 371.425 314.62C371.601 314.428 371.737 314.188 371.833 313.9C371.929 313.612 371.977 313.272 371.977 312.88C371.977 312.488 371.929 312.148 371.833 311.86C371.737 311.572 371.601 311.336 371.425 311.152C371.249 310.96 371.041 310.82 370.801 310.732C370.569 310.636 370.313 310.588 370.033 310.588C369.753 310.588 369.497 310.636 369.265 310.732C369.033 310.82 368.829 310.96 368.653 311.152C368.485 311.336 368.353 311.572 368.257 311.86C368.161 312.148 368.113 312.488 368.113 312.88C368.113 313.272 368.161 313.612 368.257 313.9C368.353 314.188 368.485 314.428 368.653 314.62C368.829 314.804 369.033 314.944 369.265 315.04C369.497 315.128 369.753 315.172 370.033 315.172ZM375.952 313.348H375.4V316H374.344V309.772H375.4V312.448H376L378.184 309.772H379.384L376.828 312.844L379.432 316H378.148L375.952 313.348ZM323.056 331.316H322.144V335H321.016V326.396H322.144V330.296H322.984L326.056 326.396H327.328L323.932 330.692L327.46 335H326.056L323.056 331.316ZM330.811 335.12C330.387 335.12 329.991 335.048 329.623 334.904C329.255 334.76 328.935 334.552 328.663 334.28C328.399 334 328.191 333.66 328.039 333.26C327.887 332.86 327.811 332.4 327.811 331.88C327.811 331.368 327.887 330.912 328.039 330.512C328.191 330.104 328.399 329.764 328.663 329.492C328.935 329.22 329.255 329.012 329.623 328.868C329.991 328.724 330.387 328.652 330.811 328.652C331.243 328.652 331.643 328.724 332.011 328.868C332.379 329.012 332.695 329.22 332.959 329.492C333.231 329.764 333.443 330.104 333.595 330.512C333.755 330.912 333.835 331.368 333.835 331.88C333.835 332.4 333.755 332.86 333.595 333.26C333.443 333.66 333.231 334 332.959 334.28C332.695 334.552 332.379 334.76 332.011 334.904C331.643 335.048 331.243 335.12 330.811 335.12ZM330.811 334.172C331.091 334.172 331.347 334.128 331.579 334.04C331.819 333.944 332.027 333.804 332.203 333.62C332.379 333.428 332.515 333.188 332.611 332.9C332.707 332.612 332.755 332.272 332.755 331.88C332.755 331.488 332.707 331.148 332.611 330.86C332.515 330.572 332.379 330.336 332.203 330.152C332.027 329.96 331.819 329.82 331.579 329.732C331.347 329.636 331.091 329.588 330.811 329.588C330.531 329.588 330.275 329.636 330.043 329.732C329.811 329.82 329.607 329.96 329.431 330.152C329.263 330.336 329.131 330.572 329.035 330.86C328.939 331.148 328.891 331.488 328.891 331.88C328.891 332.272 328.939 332.612 329.035 332.9C329.131 333.188 329.263 333.428 329.431 333.62C329.607 333.804 329.811 333.944 330.043 334.04C330.275 334.128 330.531 334.172 330.811 334.172ZM334.727 334.1C334.951 333.964 335.127 333.752 335.255 333.464C335.383 333.176 335.483 332.812 335.555 332.372C335.627 331.932 335.675 331.412 335.699 330.812C335.731 330.212 335.759 329.532 335.783 328.772H340.067V334.1H341.003V336.776H340.079L339.947 335H335.315L335.207 336.776H334.259V334.1H334.727ZM339.011 334.1V329.672H336.731C336.691 330.848 336.615 331.792 336.503 332.504C336.399 333.208 336.215 333.74 335.951 334.1H339.011ZM347.299 335.12C346.875 335.12 346.479 335.048 346.111 334.904C345.743 334.76 345.423 334.552 345.151 334.28C344.887 334 344.679 333.66 344.527 333.26C344.375 332.86 344.299 332.4 344.299 331.88C344.299 331.368 344.375 330.912 344.527 330.512C344.679 330.104 344.887 329.764 345.151 329.492C345.423 329.22 345.743 329.012 346.111 328.868C346.479 328.724 346.875 328.652 347.299 328.652C347.731 328.652 348.131 328.724 348.499 328.868C348.867 329.012 349.183 329.22 349.447 329.492C349.719 329.764 349.931 330.104 350.083 330.512C350.243 330.912 350.323 331.368 350.323 331.88C350.323 332.4 350.243 332.86 350.083 333.26C349.931 333.66 349.719 334 349.447 334.28C349.183 334.552 348.867 334.76 348.499 334.904C348.131 335.048 347.731 335.12 347.299 335.12ZM347.299 334.172C347.579 334.172 347.835 334.128 348.067 334.04C348.307 333.944 348.515 333.804 348.691 333.62C348.867 333.428 349.003 333.188 349.099 332.9C349.195 332.612 349.243 332.272 349.243 331.88C349.243 331.488 349.195 331.148 349.099 330.86C349.003 330.572 348.867 330.336 348.691 330.152C348.515 329.96 348.307 329.82 348.067 329.732C347.835 329.636 347.579 329.588 347.299 329.588C347.019 329.588 346.763 329.636 346.531 329.732C346.299 329.82 346.095 329.96 345.919 330.152C345.751 330.336 345.619 330.572 345.523 330.86C345.427 331.148 345.379 331.488 345.379 331.88C345.379 332.272 345.427 332.612 345.523 332.9C345.619 333.188 345.751 333.428 345.919 333.62C346.095 333.804 346.299 333.944 346.531 334.04C346.763 334.128 347.019 334.172 347.299 334.172ZM353.942 329.672V335H352.886V329.672H350.93V328.772H355.934V329.672H353.942ZM357.153 328.772H359.481C360.233 328.772 360.801 328.904 361.185 329.168C361.569 329.424 361.761 329.828 361.761 330.38C361.761 330.748 361.665 331.044 361.473 331.268C361.289 331.484 361.025 331.64 360.681 331.736C361.569 331.88 362.013 332.372 362.013 333.212C362.013 333.532 361.949 333.808 361.821 334.04C361.693 334.264 361.517 334.448 361.293 334.592C361.069 334.736 360.797 334.84 360.477 334.904C360.165 334.968 359.825 335 359.457 335H357.153V328.772ZM358.209 329.672V331.364H359.385C359.785 331.364 360.105 331.292 360.345 331.148C360.593 331.004 360.717 330.796 360.717 330.524C360.717 330.196 360.609 329.972 360.393 329.852C360.177 329.732 359.869 329.672 359.469 329.672H358.209ZM358.209 332.204V334.1H359.445C359.669 334.1 359.869 334.088 360.045 334.064C360.229 334.032 360.385 333.98 360.513 333.908C360.649 333.836 360.753 333.74 360.825 333.62C360.897 333.5 360.933 333.352 360.933 333.176C360.933 332.816 360.809 332.564 360.561 332.42C360.313 332.276 359.941 332.204 359.445 332.204H358.209ZM368.554 334.472C368.466 334.536 368.358 334.604 368.23 334.676C368.102 334.748 367.946 334.82 367.762 334.892C367.578 334.956 367.37 335.008 367.138 335.048C366.906 335.096 366.646 335.12 366.358 335.12C365.31 335.12 364.514 334.836 363.97 334.268C363.426 333.7 363.154 332.904 363.154 331.88C363.154 331.376 363.226 330.924 363.37 330.524C363.522 330.124 363.73 329.788 363.994 329.516C364.258 329.236 364.57 329.024 364.93 328.88C365.29 328.728 365.682 328.652 366.106 328.652C366.554 328.652 366.954 328.728 367.306 328.88C367.658 329.032 367.946 329.256 368.17 329.552C368.402 329.848 368.558 330.216 368.638 330.656C368.726 331.088 368.726 331.592 368.638 332.168H364.246C364.286 332.84 364.486 333.344 364.846 333.68C365.206 334.008 365.742 334.172 366.454 334.172C366.934 334.172 367.346 334.104 367.69 333.968C368.034 333.832 368.322 333.684 368.554 333.524V334.472ZM366.082 329.588C365.626 329.588 365.234 329.728 364.906 330.008C364.578 330.288 364.37 330.712 364.282 331.28H367.63C367.662 330.704 367.53 330.28 367.234 330.008C366.938 329.728 366.554 329.588 366.082 329.588ZM372.505 329.672V335H371.449V329.672H369.493V328.772H374.497V329.672H372.505ZM379.188 333.812C379.116 333.956 379.024 334.108 378.912 334.268C378.8 334.42 378.66 334.56 378.492 334.688C378.324 334.816 378.124 334.92 377.892 335C377.668 335.08 377.404 335.12 377.1 335.12C376.54 335.12 376.088 334.964 375.744 334.652C375.4 334.332 375.228 333.876 375.228 333.284C375.228 332.604 375.464 332.104 375.936 331.784C376.416 331.464 377.096 331.304 377.976 331.304H379.14V330.788C379.14 330.356 379.028 330.048 378.804 329.864C378.58 329.68 378.196 329.588 377.652 329.588C377.268 329.588 376.904 329.652 376.56 329.78C376.216 329.9 375.908 330.04 375.636 330.2V329.252C375.86 329.116 376.16 328.984 376.536 328.856C376.92 328.72 377.34 328.652 377.796 328.652C378.58 328.652 379.176 328.816 379.584 329.144C379.992 329.464 380.196 329.964 380.196 330.644V333.992C380.196 334.064 380.196 334.148 380.196 334.244C380.204 334.332 380.208 334.424 380.208 334.52C380.216 334.616 380.224 334.708 380.232 334.796C380.24 334.876 380.248 334.944 380.256 335H379.296C379.272 334.888 379.248 334.732 379.224 334.532C379.208 334.324 379.2 334.144 379.2 333.992L379.188 333.812ZM377.328 334.172C377.656 334.172 377.936 334.104 378.168 333.968C378.4 333.832 378.588 333.676 378.732 333.5C378.876 333.316 378.98 333.14 379.044 332.972C379.108 332.796 379.14 332.672 379.14 332.6V332.144H378.084C377.452 332.144 376.992 332.236 376.704 332.42C376.424 332.596 376.284 332.864 376.284 333.224C376.284 333.504 376.368 333.732 376.536 333.908C376.704 334.084 376.968 334.172 377.328 334.172ZM301.209 346.44V354H300.069V346.44H297.417V345.396H303.861V346.44H301.209ZM309.252 353.472C309.164 353.536 309.056 353.604 308.928 353.676C308.8 353.748 308.644 353.82 308.46 353.892C308.276 353.956 308.068 354.008 307.836 354.048C307.604 354.096 307.344 354.12 307.056 354.12C306.008 354.12 305.212 353.836 304.668 353.268C304.124 352.7 303.852 351.904 303.852 350.88C303.852 350.376 303.924 349.924 304.068 349.524C304.22 349.124 304.428 348.788 304.692 348.516C304.956 348.236 305.268 348.024 305.628 347.88C305.988 347.728 306.38 347.652 306.804 347.652C307.252 347.652 307.652 347.728 308.004 347.88C308.356 348.032 308.644 348.256 308.868 348.552C309.1 348.848 309.256 349.216 309.336 349.656C309.424 350.088 309.424 350.592 309.336 351.168H304.944C304.984 351.84 305.184 352.344 305.544 352.68C305.904 353.008 306.44 353.172 307.152 353.172C307.632 353.172 308.044 353.104 308.388 352.968C308.732 352.832 309.02 352.684 309.252 352.524V353.472ZM306.78 348.588C306.324 348.588 305.932 348.728 305.604 349.008C305.276 349.288 305.068 349.712 304.98 350.28H308.328C308.36 349.704 308.228 349.28 307.932 349.008C307.636 348.728 307.252 348.588 306.78 348.588ZM311.233 352.068C311.345 351.66 311.417 351.108 311.449 350.412C311.481 349.716 311.497 348.836 311.497 347.772H315.685V354H314.617V348.672H312.493C312.485 349.528 312.457 350.288 312.409 350.952C312.369 351.616 312.277 352.176 312.133 352.632C311.997 353.088 311.793 353.436 311.521 353.676C311.257 353.908 310.901 354.024 310.453 354.024C310.421 354.024 310.389 354.024 310.357 354.024C310.325 354.024 310.289 354.02 310.249 354.012V352.968C310.289 352.976 310.341 352.98 310.405 352.98C310.813 352.98 311.089 352.676 311.233 352.068ZM319.953 354.12C319.529 354.12 319.133 354.048 318.765 353.904C318.397 353.76 318.077 353.552 317.805 353.28C317.541 353 317.333 352.66 317.181 352.26C317.029 351.86 316.953 351.4 316.953 350.88C316.953 350.368 317.029 349.912 317.181 349.512C317.333 349.104 317.541 348.764 317.805 348.492C318.077 348.22 318.397 348.012 318.765 347.868C319.133 347.724 319.529 347.652 319.953 347.652C320.385 347.652 320.785 347.724 321.153 347.868C321.521 348.012 321.837 348.22 322.101 348.492C322.373 348.764 322.585 349.104 322.737 349.512C322.897 349.912 322.977 350.368 322.977 350.88C322.977 351.4 322.897 351.86 322.737 352.26C322.585 352.66 322.373 353 322.101 353.28C321.837 353.552 321.521 353.76 321.153 353.904C320.785 354.048 320.385 354.12 319.953 354.12ZM319.953 353.172C320.233 353.172 320.489 353.128 320.721 353.04C320.961 352.944 321.169 352.804 321.345 352.62C321.521 352.428 321.657 352.188 321.753 351.9C321.849 351.612 321.897 351.272 321.897 350.88C321.897 350.488 321.849 350.148 321.753 349.86C321.657 349.572 321.521 349.336 321.345 349.152C321.169 348.96 320.961 348.82 320.721 348.732C320.489 348.636 320.233 348.588 319.953 348.588C319.673 348.588 319.417 348.636 319.185 348.732C318.953 348.82 318.749 348.96 318.573 349.152C318.405 349.336 318.273 349.572 318.177 349.86C318.081 350.148 318.033 350.488 318.033 350.88C318.033 351.272 318.081 351.612 318.177 351.9C318.273 352.188 318.405 352.428 318.573 352.62C318.749 352.804 318.953 352.944 319.185 353.04C319.417 353.128 319.673 353.172 319.953 353.172ZM329.457 354.12C329.033 354.12 328.637 354.048 328.269 353.904C327.901 353.76 327.581 353.552 327.309 353.28C327.045 353 326.837 352.66 326.685 352.26C326.533 351.86 326.457 351.4 326.457 350.88C326.457 350.368 326.533 349.912 326.685 349.512C326.837 349.104 327.045 348.764 327.309 348.492C327.581 348.22 327.901 348.012 328.269 347.868C328.637 347.724 329.033 347.652 329.457 347.652C329.889 347.652 330.289 347.724 330.657 347.868C331.025 348.012 331.341 348.22 331.605 348.492C331.877 348.764 332.089 349.104 332.241 349.512C332.401 349.912 332.481 350.368 332.481 350.88C332.481 351.4 332.401 351.86 332.241 352.26C332.089 352.66 331.877 353 331.605 353.28C331.341 353.552 331.025 353.76 330.657 353.904C330.289 354.048 329.889 354.12 329.457 354.12ZM329.457 353.172C329.737 353.172 329.993 353.128 330.225 353.04C330.465 352.944 330.673 352.804 330.849 352.62C331.025 352.428 331.161 352.188 331.257 351.9C331.353 351.612 331.401 351.272 331.401 350.88C331.401 350.488 331.353 350.148 331.257 349.86C331.161 349.572 331.025 349.336 330.849 349.152C330.673 348.96 330.465 348.82 330.225 348.732C329.993 348.636 329.737 348.588 329.457 348.588C329.177 348.588 328.921 348.636 328.689 348.732C328.457 348.82 328.253 348.96 328.077 349.152C327.909 349.336 327.777 349.572 327.681 349.86C327.585 350.148 327.537 350.488 327.537 350.88C327.537 351.272 327.585 351.612 327.681 351.9C327.777 352.188 327.909 352.428 328.077 352.62C328.253 352.804 328.457 352.944 328.689 353.04C328.921 353.128 329.177 353.172 329.457 353.172ZM336.101 348.672V354H335.045V348.672H333.089V347.772H338.093V348.672H336.101ZM339.311 347.772H341.639C342.391 347.772 342.959 347.904 343.343 348.168C343.727 348.424 343.919 348.828 343.919 349.38C343.919 349.748 343.823 350.044 343.631 350.268C343.447 350.484 343.183 350.64 342.839 350.736C343.727 350.88 344.171 351.372 344.171 352.212C344.171 352.532 344.107 352.808 343.979 353.04C343.851 353.264 343.675 353.448 343.451 353.592C343.227 353.736 342.955 353.84 342.635 353.904C342.323 353.968 341.983 354 341.615 354H339.311V347.772ZM340.367 348.672V350.364H341.543C341.943 350.364 342.263 350.292 342.503 350.148C342.751 350.004 342.875 349.796 342.875 349.524C342.875 349.196 342.767 348.972 342.551 348.852C342.335 348.732 342.027 348.672 341.627 348.672H340.367ZM340.367 351.204V353.1H341.603C341.827 353.1 342.027 353.088 342.203 353.064C342.387 353.032 342.543 352.98 342.671 352.908C342.807 352.836 342.911 352.74 342.983 352.62C343.055 352.5 343.091 352.352 343.091 352.176C343.091 351.816 342.967 351.564 342.719 351.42C342.471 351.276 342.099 351.204 341.603 351.204H340.367ZM350.713 353.472C350.625 353.536 350.517 353.604 350.389 353.676C350.261 353.748 350.105 353.82 349.921 353.892C349.737 353.956 349.529 354.008 349.297 354.048C349.065 354.096 348.805 354.12 348.517 354.12C347.469 354.12 346.673 353.836 346.129 353.268C345.585 352.7 345.313 351.904 345.313 350.88C345.313 350.376 345.385 349.924 345.529 349.524C345.681 349.124 345.889 348.788 346.153 348.516C346.417 348.236 346.729 348.024 347.089 347.88C347.449 347.728 347.841 347.652 348.265 347.652C348.713 347.652 349.113 347.728 349.465 347.88C349.817 348.032 350.105 348.256 350.329 348.552C350.561 348.848 350.717 349.216 350.797 349.656C350.885 350.088 350.885 350.592 350.797 351.168H346.405C346.445 351.84 346.645 352.344 347.005 352.68C347.365 353.008 347.901 353.172 348.613 353.172C349.093 353.172 349.505 353.104 349.849 352.968C350.193 352.832 350.481 352.684 350.713 352.524V353.472ZM348.241 348.588C347.785 348.588 347.393 348.728 347.065 349.008C346.737 349.288 346.529 349.712 346.441 350.28H349.789C349.821 349.704 349.689 349.28 349.393 349.008C349.097 348.728 348.713 348.588 348.241 348.588ZM354.663 348.672V354H353.607V348.672H351.651V347.772H356.655V348.672H354.663ZM361.346 352.812C361.274 352.956 361.182 353.108 361.07 353.268C360.958 353.42 360.818 353.56 360.65 353.688C360.482 353.816 360.282 353.92 360.05 354C359.826 354.08 359.562 354.12 359.258 354.12C358.698 354.12 358.246 353.964 357.902 353.652C357.558 353.332 357.386 352.876 357.386 352.284C357.386 351.604 357.622 351.104 358.094 350.784C358.574 350.464 359.254 350.304 360.134 350.304H361.298V349.788C361.298 349.356 361.186 349.048 360.962 348.864C360.738 348.68 360.354 348.588 359.81 348.588C359.426 348.588 359.062 348.652 358.718 348.78C358.374 348.9 358.066 349.04 357.794 349.2V348.252C358.018 348.116 358.318 347.984 358.694 347.856C359.078 347.72 359.498 347.652 359.954 347.652C360.738 347.652 361.334 347.816 361.742 348.144C362.15 348.464 362.354 348.964 362.354 349.644V352.992C362.354 353.064 362.354 353.148 362.354 353.244C362.362 353.332 362.366 353.424 362.366 353.52C362.374 353.616 362.382 353.708 362.39 353.796C362.398 353.876 362.406 353.944 362.414 354H361.454C361.43 353.888 361.406 353.732 361.382 353.532C361.366 353.324 361.358 353.144 361.358 352.992L361.346 352.812ZM359.486 353.172C359.814 353.172 360.094 353.104 360.326 352.968C360.558 352.832 360.746 352.676 360.89 352.5C361.034 352.316 361.138 352.14 361.202 351.972C361.266 351.796 361.298 351.672 361.298 351.6V351.144H360.242C359.61 351.144 359.15 351.236 358.862 351.42C358.582 351.596 358.442 351.864 358.442 352.224C358.442 352.504 358.526 352.732 358.694 352.908C358.862 353.084 359.126 353.172 359.486 353.172ZM368.595 355.668C367.971 354.956 367.507 354.144 367.203 353.232C366.899 352.312 366.747 351.34 366.747 350.316C366.747 349.812 366.783 349.308 366.855 348.804C366.935 348.3 367.051 347.816 367.203 347.352C367.363 346.88 367.555 346.44 367.779 346.032C368.011 345.624 368.283 345.256 368.595 344.928H369.639C369.311 345.24 369.031 345.6 368.799 346.008C368.567 346.416 368.371 346.852 368.211 347.316C368.059 347.78 367.947 348.264 367.875 348.768C367.803 349.272 367.767 349.776 367.767 350.28C367.767 351.304 367.915 352.276 368.211 353.196C368.515 354.116 368.991 354.94 369.639 355.668H368.595ZM373.545 345.396V352.404C373.545 352.62 373.505 352.832 373.425 353.04C373.345 353.248 373.221 353.432 373.053 353.592C372.893 353.752 372.685 353.88 372.429 353.976C372.181 354.072 371.885 354.12 371.541 354.12C371.333 354.12 371.121 354.1 370.905 354.06C370.697 354.028 370.505 353.98 370.329 353.916V352.944C370.633 353.048 370.949 353.1 371.277 353.1C371.669 353.1 371.953 353.02 372.129 352.86C372.313 352.692 372.405 352.428 372.405 352.068V345.396H373.545ZM377.914 354.12C377.522 354.12 377.17 354.092 376.858 354.036C376.546 353.988 376.27 353.924 376.03 353.844C375.798 353.756 375.598 353.664 375.43 353.568C375.27 353.464 375.142 353.364 375.046 353.268V352.188C375.166 352.292 375.322 352.4 375.514 352.512C375.706 352.616 375.926 352.712 376.174 352.8C376.43 352.888 376.702 352.96 376.99 353.016C377.286 353.072 377.594 353.1 377.914 353.1C378.538 353.1 379.034 352.984 379.402 352.752C379.77 352.512 379.954 352.152 379.954 351.672C379.954 351.432 379.91 351.236 379.822 351.084C379.734 350.924 379.606 350.792 379.438 350.688C379.27 350.576 379.058 350.484 378.802 350.412C378.554 350.332 378.262 350.248 377.926 350.16C377.59 350.072 377.254 349.972 376.918 349.86C376.582 349.748 376.278 349.6 376.006 349.416C375.742 349.232 375.526 349 375.358 348.72C375.198 348.44 375.118 348.084 375.118 347.652C375.118 346.908 375.378 346.328 375.898 345.912C376.418 345.496 377.214 345.288 378.286 345.288C378.598 345.288 378.874 345.308 379.114 345.348C379.362 345.38 379.578 345.424 379.762 345.48C379.954 345.528 380.118 345.584 380.254 345.648C380.398 345.712 380.526 345.772 380.638 345.828V346.908C380.302 346.692 379.938 346.54 379.546 346.452C379.162 346.356 378.742 346.308 378.286 346.308C377.902 346.308 377.578 346.34 377.314 346.404C377.058 346.46 376.85 346.544 376.69 346.656C376.53 346.768 376.414 346.904 376.342 347.064C376.27 347.224 376.234 347.404 376.234 347.604C376.234 347.844 376.286 348.044 376.39 348.204C376.502 348.364 376.646 348.5 376.822 348.612C377.006 348.716 377.214 348.804 377.446 348.876C377.678 348.948 377.922 349.012 378.178 349.068C378.514 349.148 378.858 349.24 379.21 349.344C379.562 349.448 379.878 349.592 380.158 349.776C380.438 349.96 380.666 350.2 380.842 350.496C381.026 350.784 381.118 351.16 381.118 351.624C381.118 352.08 381.026 352.468 380.842 352.788C380.666 353.1 380.43 353.356 380.134 353.556C379.838 353.756 379.498 353.9 379.114 353.988C378.73 354.076 378.33 354.12 377.914 354.12ZM386.157 354.12C385.581 354.12 385.041 354.024 384.537 353.832C384.033 353.632 383.597 353.344 383.229 352.968C382.861 352.592 382.569 352.128 382.353 351.576C382.145 351.024 382.041 350.388 382.041 349.668C382.041 348.948 382.145 348.316 382.353 347.772C382.569 347.22 382.861 346.764 383.229 346.404C383.597 346.036 384.033 345.76 384.537 345.576C385.041 345.384 385.581 345.288 386.157 345.288C386.741 345.288 387.285 345.384 387.789 345.576C388.293 345.76 388.729 346.036 389.097 346.404C389.465 346.772 389.753 347.232 389.961 347.784C390.169 348.328 390.273 348.96 390.273 349.68C390.273 350.392 390.169 351.024 389.961 351.576C389.753 352.128 389.465 352.592 389.097 352.968C388.729 353.344 388.293 353.632 387.789 353.832C387.285 354.024 386.741 354.12 386.157 354.12ZM386.157 353.1C386.573 353.1 386.957 353.04 387.309 352.92C387.661 352.792 387.965 352.596 388.221 352.332C388.485 352.06 388.689 351.708 388.833 351.276C388.985 350.844 389.061 350.32 389.061 349.704C389.061 349.088 388.985 348.564 388.833 348.132C388.689 347.7 388.485 347.352 388.221 347.088C387.965 346.816 387.661 346.62 387.309 346.5C386.957 346.372 386.573 346.308 386.157 346.308C385.741 346.308 385.357 346.372 385.005 346.5C384.653 346.62 384.345 346.816 384.081 347.088C383.825 347.352 383.621 347.7 383.469 348.132C383.325 348.564 383.253 349.088 383.253 349.704C383.253 350.32 383.325 350.844 383.469 351.276C383.621 351.708 383.825 352.06 384.081 352.332C384.345 352.596 384.653 352.792 385.005 352.92C385.357 353.04 385.741 353.1 386.157 353.1ZM398.703 354H397.167L392.847 346.776V354H391.779V345.396H393.303L397.623 352.62V345.396H398.703V354ZM401.141 355.668C401.765 354.956 402.229 354.144 402.533 353.232C402.837 352.312 402.989 351.34 402.989 350.316C402.989 349.812 402.949 349.308 402.869 348.804C402.797 348.3 402.681 347.816 402.521 347.352C402.369 346.88 402.177 346.44 401.945 346.032C401.721 345.624 401.453 345.256 401.141 344.928H400.097C400.425 345.24 400.705 345.6 400.937 346.008C401.169 346.416 401.361 346.852 401.513 347.316C401.673 347.78 401.789 348.264 401.861 348.768C401.933 349.272 401.969 349.776 401.969 350.28C401.969 351.304 401.817 352.276 401.513 353.196C401.217 354.116 400.745 354.94 400.097 355.668H401.141Z" fill="black" fill-opacity="0.85"/>
</g>
<rect x="26" y="178" width="138" height="69" rx="9" fill="white" stroke="#5282FF" stroke-width="2"/>
<path d="M96.048 213.316H95.136V217H94.008V208.396H95.136V212.296H95.976L99.048 208.396H100.32L96.924 212.692L100.452 217H99.048L96.048 213.316ZM102.032 215.068C102.144 214.66 102.216 214.108 102.248 213.412C102.28 212.716 102.296 211.836 102.296 210.772H106.484V217H105.416V211.672H103.292C103.284 212.528 103.256 213.288 103.208 213.952C103.168 214.616 103.076 215.176 102.932 215.632C102.796 216.088 102.592 216.436 102.32 216.676C102.056 216.908 101.7 217.024 101.252 217.024C101.22 217.024 101.188 217.024 101.156 217.024C101.124 217.024 101.088 217.02 101.048 217.012V215.968C101.088 215.976 101.14 215.98 101.204 215.98C101.612 215.98 101.888 215.676 102.032 215.068ZM109.252 215.56L112.576 210.772H113.644V217H112.588V212.224L109.276 217H108.196V210.772H109.252V215.56ZM120.324 216.472C120.236 216.536 120.128 216.604 120 216.676C119.872 216.748 119.716 216.82 119.532 216.892C119.348 216.956 119.14 217.008 118.908 217.048C118.676 217.096 118.416 217.12 118.128 217.12C117.08 217.12 116.284 216.836 115.74 216.268C115.196 215.7 114.924 214.904 114.924 213.88C114.924 213.376 114.996 212.924 115.14 212.524C115.292 212.124 115.5 211.788 115.764 211.516C116.028 211.236 116.34 211.024 116.7 210.88C117.06 210.728 117.452 210.652 117.876 210.652C118.324 210.652 118.724 210.728 119.076 210.88C119.428 211.032 119.716 211.256 119.94 211.552C120.172 211.848 120.328 212.216 120.408 212.656C120.496 213.088 120.496 213.592 120.408 214.168H116.016C116.056 214.84 116.256 215.344 116.616 215.68C116.976 216.008 117.512 216.172 118.224 216.172C118.704 216.172 119.116 216.104 119.46 215.968C119.804 215.832 120.092 215.684 120.324 215.524V216.472ZM117.852 211.588C117.396 211.588 117.004 211.728 116.676 212.008C116.348 212.288 116.14 212.712 116.052 213.28H119.4C119.432 212.704 119.3 212.28 119.004 212.008C118.708 211.728 118.324 211.588 117.852 211.588ZM125.893 214.24H122.881V217H121.825V210.772H122.881V213.34H125.893V210.772H126.949V217H125.893V214.24ZM131.188 211.672V217H130.132V211.672H128.176V210.772H133.18V211.672H131.188Z" fill="black" fill-opacity="0.85"/>
<g clip-path="url(#clip0_1_217)">
<path fill-rule="evenodd" clip-rule="evenodd" d="M70 196C78.8311 196 86 203.168 86 212C86 220.832 78.8311 228 70 228C61.1689 228 54 220.832 54 212C54 203.168 61.1689 196 70 196Z" fill="#5282FF"/>
<path fill-rule="evenodd" clip-rule="evenodd" d="M64.9971 219.001H65.9908L65.9988 219C66.9125 219 67.5953 218.353 67.9372 217.882C68.0851 217.628 68.1731 217.39 68.2291 217.001H63.4106C62.6308 217.001 61.997 216.367 61.997 215.587V205.411C61.997 204.631 62.6298 203.997 63.4096 203.997H76.5834C77.3632 203.997 77.997 204.631 77.997 205.411V215.587C77.997 216.367 77.3642 217.001 76.5834 217.001H71.767C71.8269 217.406 71.9189 217.658 72.0589 217.882C72.4098 218.362 73.2385 219 73.9983 219L74.0043 219.001H74.9959C75.5898 219.001 75.9956 219.311 75.9956 220H63.9974C63.9804 219.337 64.3533 219.001 64.9971 219.001ZM76.9963 215.148V207.85C76.9963 207.38 76.6144 207 76.1456 207H63.8484C63.3786 207 62.9987 207.38 62.9987 207.85V215.148C62.9987 215.618 63.3786 215.999 63.8484 215.999H76.1446C76.6144 215.999 76.9963 215.618 76.9963 215.149V215.148ZM76.9943 205.499V205.498C76.9941 205.366 76.9416 205.239 76.8483 205.146C76.755 205.052 76.6285 205 76.4965 204.999H76.4945C76.3624 205 76.236 205.052 76.1427 205.146C76.0494 205.239 75.9969 205.366 75.9966 205.498V205.499C75.9969 205.631 76.0494 205.758 76.1427 205.851C76.236 205.945 76.3624 205.998 76.4945 205.998H76.4965C76.6285 205.998 76.755 205.945 76.8483 205.851C76.9416 205.758 76.9941 205.631 76.9943 205.499Z" fill="white"/>
</g>
<rect x="536" y="178" width="138" height="69" rx="9" fill="white" stroke="#5282FF" stroke-width="2"/>
<path d="M607.74 217.12C607.1 217.12 606.52 217.02 606 216.82C605.48 216.62 605.032 216.332 604.656 215.956C604.288 215.572 604.004 215.108 603.804 214.564C603.604 214.012 603.504 213.392 603.504 212.704C603.504 212.008 603.596 211.388 603.78 210.844C603.964 210.3 604.236 209.84 604.596 209.464C604.956 209.08 605.396 208.788 605.916 208.588C606.444 208.388 607.044 208.288 607.716 208.288C608.3 208.288 608.812 208.352 609.252 208.48C609.692 208.6 610.052 208.744 610.332 208.912V209.992C609.972 209.76 609.556 209.588 609.084 209.476C608.62 209.364 608.16 209.308 607.704 209.308C606.688 209.308 605.936 209.592 605.448 210.16C604.968 210.72 604.728 211.568 604.728 212.704C604.728 213.848 604.988 214.7 605.508 215.26C606.036 215.82 606.812 216.1 607.836 216.1C608.276 216.1 608.704 216.04 609.12 215.92C609.544 215.8 609.948 215.596 610.332 215.308V216.388C610.1 216.572 609.76 216.74 609.312 216.892C608.872 217.044 608.348 217.12 607.74 217.12ZM616.812 216.472C616.724 216.536 616.616 216.604 616.488 216.676C616.36 216.748 616.204 216.82 616.02 216.892C615.836 216.956 615.628 217.008 615.396 217.048C615.164 217.096 614.904 217.12 614.616 217.12C613.568 217.12 612.772 216.836 612.228 216.268C611.684 215.7 611.412 214.904 611.412 213.88C611.412 213.376 611.484 212.924 611.628 212.524C611.78 212.124 611.988 211.788 612.252 211.516C612.516 211.236 612.828 211.024 613.188 210.88C613.548 210.728 613.94 210.652 614.364 210.652C614.812 210.652 615.212 210.728 615.564 210.88C615.916 211.032 616.204 211.256 616.428 211.552C616.66 211.848 616.816 212.216 616.896 212.656C616.984 213.088 616.984 213.592 616.896 214.168H612.504C612.544 214.84 612.744 215.344 613.104 215.68C613.464 216.008 614 216.172 614.712 216.172C615.192 216.172 615.604 216.104 615.948 215.968C616.292 215.832 616.58 215.684 616.812 215.524V216.472ZM614.34 211.588C613.884 211.588 613.492 211.728 613.164 212.008C612.836 212.288 612.628 212.712 612.54 213.28H615.888C615.92 212.704 615.788 212.28 615.492 212.008C615.196 211.728 614.812 211.588 614.34 211.588ZM621.445 217.12C620.965 217.12 620.549 217.008 620.197 216.784C619.853 216.56 619.577 216.252 619.369 215.86V219.124H618.313V210.772H619.237L619.345 211.984C619.553 211.576 619.833 211.252 620.185 211.012C620.537 210.772 620.973 210.652 621.493 210.652C621.853 210.652 622.197 210.72 622.525 210.856C622.861 210.984 623.153 211.184 623.401 211.456C623.657 211.72 623.857 212.056 624.001 212.464C624.153 212.864 624.229 213.336 624.229 213.88C624.229 214.432 624.153 214.912 624.001 215.32C623.849 215.72 623.645 216.056 623.389 216.328C623.133 216.592 622.837 216.792 622.501 216.928C622.165 217.056 621.813 217.12 621.445 217.12ZM621.289 216.172C621.841 216.172 622.285 215.984 622.621 215.608C622.965 215.224 623.137 214.648 623.137 213.88C623.137 213.128 622.965 212.56 622.621 212.176C622.285 211.784 621.841 211.588 621.289 211.588C621.017 211.588 620.761 211.636 620.521 211.732C620.289 211.828 620.085 211.972 619.909 212.164C619.741 212.348 619.605 212.584 619.501 212.872C619.405 213.16 619.357 213.496 619.357 213.88C619.357 214.264 619.405 214.6 619.501 214.888C619.605 215.176 619.741 215.416 619.909 215.608C620.085 215.8 620.289 215.944 620.521 216.04C620.761 216.128 621.017 216.172 621.289 216.172ZM625.509 210.772H627.837C628.589 210.772 629.157 210.904 629.541 211.168C629.925 211.424 630.117 211.828 630.117 212.38C630.117 212.748 630.021 213.044 629.829 213.268C629.645 213.484 629.381 213.64 629.037 213.736C629.925 213.88 630.369 214.372 630.369 215.212C630.369 215.532 630.305 215.808 630.177 216.04C630.049 216.264 629.873 216.448 629.649 216.592C629.425 216.736 629.153 216.84 628.833 216.904C628.521 216.968 628.181 217 627.813 217H625.509V210.772ZM626.565 211.672V213.364H627.741C628.141 213.364 628.461 213.292 628.701 213.148C628.949 213.004 629.073 212.796 629.073 212.524C629.073 212.196 628.965 211.972 628.749 211.852C628.533 211.732 628.225 211.672 627.825 211.672H626.565ZM626.565 214.204V216.1H627.801C628.025 216.1 628.225 216.088 628.401 216.064C628.585 216.032 628.741 215.98 628.869 215.908C629.005 215.836 629.109 215.74 629.181 215.62C629.253 215.5 629.289 215.352 629.289 215.176C629.289 214.816 629.165 214.564 628.917 214.42C628.669 214.276 628.297 214.204 627.801 214.204H626.565ZM636.91 216.472C636.822 216.536 636.714 216.604 636.586 216.676C636.458 216.748 636.302 216.82 636.118 216.892C635.934 216.956 635.726 217.008 635.494 217.048C635.262 217.096 635.002 217.12 634.714 217.12C633.666 217.12 632.87 216.836 632.326 216.268C631.782 215.7 631.51 214.904 631.51 213.88C631.51 213.376 631.582 212.924 631.726 212.524C631.878 212.124 632.086 211.788 632.35 211.516C632.614 211.236 632.926 211.024 633.286 210.88C633.646 210.728 634.038 210.652 634.462 210.652C634.91 210.652 635.31 210.728 635.662 210.88C636.014 211.032 636.302 211.256 636.526 211.552C636.758 211.848 636.914 212.216 636.994 212.656C637.082 213.088 637.082 213.592 636.994 214.168H632.602C632.642 214.84 632.842 215.344 633.202 215.68C633.562 216.008 634.098 216.172 634.81 216.172C635.29 216.172 635.702 216.104 636.046 215.968C636.39 215.832 636.678 215.684 636.91 215.524V216.472ZM634.438 211.588C633.982 211.588 633.59 211.728 633.262 212.008C632.934 212.288 632.726 212.712 632.638 213.28H635.986C636.018 212.704 635.886 212.28 635.59 212.008C635.294 211.728 634.91 211.588 634.438 211.588ZM641.543 217.12C641.063 217.12 640.647 217.008 640.295 216.784C639.951 216.56 639.675 216.252 639.467 215.86V219.124H638.411V210.772H639.335L639.443 211.984C639.651 211.576 639.931 211.252 640.283 211.012C640.635 210.772 641.071 210.652 641.591 210.652C641.951 210.652 642.295 210.72 642.623 210.856C642.959 210.984 643.251 211.184 643.499 211.456C643.755 211.72 643.955 212.056 644.099 212.464C644.251 212.864 644.327 213.336 644.327 213.88C644.327 214.432 644.251 214.912 644.099 215.32C643.947 215.72 643.743 216.056 643.487 216.328C643.231 216.592 642.935 216.792 642.599 216.928C642.263 217.056 641.911 217.12 641.543 217.12ZM641.387 216.172C641.939 216.172 642.383 215.984 642.719 215.608C643.063 215.224 643.235 214.648 643.235 213.88C643.235 213.128 643.063 212.56 642.719 212.176C642.383 211.784 641.939 211.588 641.387 211.588C641.115 211.588 640.859 211.636 640.619 211.732C640.387 211.828 640.183 211.972 640.007 212.164C639.839 212.348 639.703 212.584 639.599 212.872C639.503 213.16 639.455 213.496 639.455 213.88C639.455 214.264 639.503 214.6 639.599 214.888C639.703 215.176 639.839 215.416 640.007 215.608C640.183 215.8 640.387 215.944 640.619 216.04C640.859 216.128 641.115 216.172 641.387 216.172Z" fill="black" fill-opacity="0.85"/>
<g clip-path="url(#clip1_1_217)">
<path fill-rule="evenodd" clip-rule="evenodd" d="M580 196C588.831 196 596 203.168 596 212C596 220.832 588.831 228 580 228C571.169 228 564 220.832 564 212C564 203.168 571.169 196 580 196Z" fill="#5282FF"/>
<path fill-rule="evenodd" clip-rule="evenodd" d="M574 217.172L573.998 214.877C574.504 215.277 575.133 215.564 575.74 215.769C576.914 216.169 578.405 216.395 580 216.395C581.595 216.395 583.086 216.169 584.259 215.769C584.866 215.564 585.496 215.277 586 214.877V217.172C586 218.456 583.312 219.499 580 219.499C576.688 219.499 574 218.456 574 217.172ZM574 213.034L573.998 210.74C574.504 211.138 575.133 211.426 575.74 211.63C576.914 212.031 578.405 212.257 580 212.257C581.595 212.257 583.086 212.031 584.259 211.63C584.866 211.426 585.496 211.138 586 210.74V213.033C586 214.318 583.312 215.36 580 215.36C576.688 215.36 574 214.318 574 213.033V213.034ZM574 208.895L573.998 206.601C574.006 206.608 574.014 206.614 574.022 206.621C574.29 205.433 576.866 204.499 580 204.499C583.132 204.499 585.707 205.433 585.976 206.62L586 206.601V208.895C586 210.179 583.312 211.223 580 211.223C576.688 211.223 574 210.179 574 208.895Z" fill="white"/>
</g>
<path d="M190 200L200 205.774V194.226L190 200ZM199 201H510V199H199V201Z" fill="#4E496B"/>
<path d="M510 225L500 219.226L500 230.774L510 225ZM501 224L190 224L190 226L501 226L501 224Z" fill="#4E496B"/>
<defs>
<filter id="filter0_d_1_217" x="254" y="17" width="192" height="168" filterUnits="userSpaceOnUse" color-interpolation-filters="sRGB">
<feFlood flood-opacity="0" result="BackgroundImageFix"/>
<feColorMatrix in="SourceAlpha" type="matrix" values="0 0 0 0 0 0 0 0 0 0 0 0 0 0 0 0 0 0 127 0" result="hardAlpha"/>
<feOffset/>
<feGaussianBlur stdDeviation="4"/>
<feColorMatrix type="matrix" values="0 0 0 0 0.321569 0 0 0 0 0.509804 0 0 0 0 1 0 0 0 0.2 0"/>
<feBlend mode="normal" in2="BackgroundImageFix" result="effect1_dropShadow_1_217"/>
<feBlend mode="normal" in="SourceGraphic" in2="effect1_dropShadow_1_217" result="shape"/>
</filter>
<filter id="filter1_d_1_217" x="254" y="240" width="192" height="168" filterUnits="userSpaceOnUse" color-interpolation-filters="sRGB">
<feFlood flood-opacity="0" result="BackgroundImageFix"/>
<feColorMatrix in="SourceAlpha" type="matrix" values="0 0 0 0 0 0 0 0 0 0 0 0 0 0 0 0 0 0 127 0" result="hardAlpha"/>
<feOffset/>
<feGaussianBlur stdDeviation="4"/>
<feColorMatrix type="matrix" values="0 0 0 0 0.321569 0 0 0 0 0.509804 0 0 0 0 1 0 0 0 0.2 0"/>
<feBlend mode="normal" in2="BackgroundImageFix" result="effect1_dropShadow_1_217"/>
<feBlend mode="normal" in="SourceGraphic" in2="effect1_dropShadow_1_217" result="shape"/>
</filter>
<clipPath id="clip0_1_217">
<rect width="32" height="32" fill="white" transform="translate(54 196)"/>
</clipPath>
<clipPath id="clip1_1_217">
<rect width="32" height="32" fill="white" transform="translate(564 196)"/>
</clipPath>
</defs>
</svg>
