<svg width="700" height="320" viewBox="0 0 700 320" fill="none" xmlns="http://www.w3.org/2000/svg">
<g filter="url(#filter0_d_3_193)">
<rect x="28" y="11" width="643" height="298" rx="10" fill="white" shape-rendering="crispEdges"/>
<path d="M255.252 37.44V45H254.112V37.44H251.46V36.396H257.904V37.44H255.252ZM261.541 45.12C261.061 45.12 260.645 45.008 260.293 44.784C259.949 44.56 259.673 44.252 259.465 43.86V47.124H258.409V38.772H259.333L259.441 39.984C259.649 39.576 259.929 39.252 260.281 39.012C260.633 38.772 261.069 38.652 261.589 38.652C261.949 38.652 262.293 38.72 262.621 38.856C262.957 38.984 263.249 39.184 263.497 39.456C263.753 39.72 263.953 40.056 264.097 40.464C264.249 40.864 264.325 41.336 264.325 41.88C264.325 42.432 264.249 42.912 264.097 43.32C263.945 43.72 263.741 44.056 263.485 44.328C263.229 44.592 262.933 44.792 262.597 44.928C262.261 45.056 261.909 45.12 261.541 45.12ZM261.385 44.172C261.937 44.172 262.381 43.984 262.717 43.608C263.061 43.224 263.233 42.648 263.233 41.88C263.233 41.128 263.061 40.56 262.717 40.176C262.381 39.784 261.937 39.588 261.385 39.588C261.113 39.588 260.857 39.636 260.617 39.732C260.385 39.828 260.181 39.972 260.005 40.164C259.837 40.348 259.701 40.584 259.597 40.872C259.501 41.16 259.453 41.496 259.453 41.88C259.453 42.264 259.501 42.6 259.597 42.888C259.701 43.176 259.837 43.416 260.005 43.608C260.181 43.8 260.385 43.944 260.617 44.04C260.857 44.128 261.113 44.172 261.385 44.172ZM269.194 43.812C269.122 43.956 269.03 44.108 268.918 44.268C268.806 44.42 268.666 44.56 268.498 44.688C268.33 44.816 268.13 44.92 267.898 45C267.674 45.08 267.41 45.12 267.106 45.12C266.546 45.12 266.094 44.964 265.75 44.652C265.406 44.332 265.234 43.876 265.234 43.284C265.234 42.604 265.47 42.104 265.942 41.784C266.422 41.464 267.102 41.304 267.982 41.304H269.146V40.788C269.146 40.356 269.034 40.048 268.81 39.864C268.586 39.68 268.202 39.588 267.658 39.588C267.274 39.588 266.91 39.652 266.566 39.78C266.222 39.9 265.914 40.04 265.642 40.2V39.252C265.866 39.116 266.166 38.984 266.542 38.856C266.926 38.72 267.346 38.652 267.802 38.652C268.586 38.652 269.182 38.816 269.59 39.144C269.998 39.464 270.202 39.964 270.202 40.644V43.992C270.202 44.064 270.202 44.148 270.202 44.244C270.21 44.332 270.214 44.424 270.214 44.52C270.222 44.616 270.23 44.708 270.238 44.796C270.246 44.876 270.254 44.944 270.262 45H269.302C269.278 44.888 269.254 44.732 269.23 44.532C269.214 44.324 269.206 44.144 269.206 43.992L269.194 43.812ZM267.334 44.172C267.662 44.172 267.942 44.104 268.174 43.968C268.406 43.832 268.594 43.676 268.738 43.5C268.882 43.316 268.986 43.14 269.05 42.972C269.114 42.796 269.146 42.672 269.146 42.6V42.144H268.09C267.458 42.144 266.998 42.236 266.71 42.42C266.43 42.596 266.29 42.864 266.29 43.224C266.29 43.504 266.374 43.732 266.542 43.908C266.71 44.084 266.974 44.172 267.334 44.172ZM275.93 42.24H272.918V45H271.862V38.772H272.918V41.34H275.93V38.772H276.986V45H275.93V42.24ZM281.406 45.12C280.926 45.12 280.49 45.048 280.098 44.904C279.714 44.752 279.386 44.54 279.114 44.268C278.842 43.988 278.634 43.648 278.49 43.248C278.346 42.848 278.274 42.392 278.274 41.88C278.274 41.376 278.346 40.924 278.49 40.524C278.642 40.124 278.854 39.788 279.126 39.516C279.398 39.236 279.73 39.024 280.122 38.88C280.514 38.728 280.958 38.652 281.454 38.652C281.838 38.652 282.19 38.696 282.51 38.784C282.83 38.864 283.094 38.984 283.302 39.144V40.092C283.046 39.924 282.758 39.8 282.438 39.72C282.126 39.632 281.802 39.588 281.466 39.588C280.738 39.588 280.202 39.776 279.858 40.152C279.522 40.528 279.354 41.104 279.354 41.88C279.354 42.656 279.518 43.232 279.846 43.608C280.174 43.984 280.694 44.172 281.406 44.172C281.782 44.172 282.126 44.128 282.438 44.04C282.758 43.944 283.046 43.824 283.302 43.68V44.628C283.078 44.764 282.806 44.88 282.486 44.976C282.174 45.072 281.814 45.12 281.406 45.12ZM284.718 38.772H289.71V45H288.654V39.672H285.774V45H284.718V38.772ZM293.988 45.12C293.564 45.12 293.168 45.048 292.8 44.904C292.432 44.76 292.112 44.552 291.84 44.28C291.576 44 291.368 43.66 291.216 43.26C291.064 42.86 290.988 42.4 290.988 41.88C290.988 41.368 291.064 40.912 291.216 40.512C291.368 40.104 291.576 39.764 291.84 39.492C292.112 39.22 292.432 39.012 292.8 38.868C293.168 38.724 293.564 38.652 293.988 38.652C294.42 38.652 294.82 38.724 295.188 38.868C295.556 39.012 295.872 39.22 296.136 39.492C296.408 39.764 296.62 40.104 296.772 40.512C296.932 40.912 297.012 41.368 297.012 41.88C297.012 42.4 296.932 42.86 296.772 43.26C296.62 43.66 296.408 44 296.136 44.28C295.872 44.552 295.556 44.76 295.188 44.904C294.82 45.048 294.42 45.12 293.988 45.12ZM293.988 44.172C294.268 44.172 294.524 44.128 294.756 44.04C294.996 43.944 295.204 43.804 295.38 43.62C295.556 43.428 295.692 43.188 295.788 42.9C295.884 42.612 295.932 42.272 295.932 41.88C295.932 41.488 295.884 41.148 295.788 40.86C295.692 40.572 295.556 40.336 295.38 40.152C295.204 39.96 294.996 39.82 294.756 39.732C294.524 39.636 294.268 39.588 293.988 39.588C293.708 39.588 293.452 39.636 293.22 39.732C292.988 39.82 292.784 39.96 292.608 40.152C292.44 40.336 292.308 40.572 292.212 40.86C292.116 41.148 292.068 41.488 292.068 41.88C292.068 42.272 292.116 42.612 292.212 42.9C292.308 43.188 292.44 43.428 292.608 43.62C292.784 43.804 292.988 43.944 293.22 44.04C293.452 44.128 293.708 44.172 293.988 44.172ZM301.432 45.12C300.952 45.12 300.536 45.008 300.184 44.784C299.84 44.56 299.564 44.252 299.356 43.86V47.124H298.3V38.772H299.224L299.332 39.984C299.54 39.576 299.82 39.252 300.172 39.012C300.524 38.772 300.96 38.652 301.48 38.652C301.84 38.652 302.184 38.72 302.512 38.856C302.848 38.984 303.14 39.184 303.388 39.456C303.644 39.72 303.844 40.056 303.988 40.464C304.14 40.864 304.216 41.336 304.216 41.88C304.216 42.432 304.14 42.912 303.988 43.32C303.836 43.72 303.632 44.056 303.376 44.328C303.12 44.592 302.824 44.792 302.488 44.928C302.152 45.056 301.8 45.12 301.432 45.12ZM301.276 44.172C301.828 44.172 302.272 43.984 302.608 43.608C302.952 43.224 303.124 42.648 303.124 41.88C303.124 41.128 302.952 40.56 302.608 40.176C302.272 39.784 301.828 39.588 301.276 39.588C301.004 39.588 300.748 39.636 300.508 39.732C300.276 39.828 300.072 39.972 299.896 40.164C299.728 40.348 299.592 40.584 299.488 40.872C299.392 41.16 299.344 41.496 299.344 41.88C299.344 42.264 299.392 42.6 299.488 42.888C299.592 43.176 299.728 43.416 299.896 43.608C300.072 43.8 300.276 43.944 300.508 44.04C300.748 44.128 301.004 44.172 301.276 44.172ZM307.886 39.672V45H306.83V39.672H304.874V38.772H309.878V39.672H307.886ZM315.164 42.24H312.152V45H311.096V38.772H312.152V41.34H315.164V38.772H316.22V45H315.164V42.24ZM322.56 42.924C322.56 43.284 322.496 43.596 322.368 43.86C322.24 44.124 322.06 44.34 321.828 44.508C321.596 44.676 321.32 44.8 321 44.88C320.68 44.96 320.332 45 319.956 45H317.952V38.772H319.008V40.944H320.028C320.82 40.944 321.44 41.1 321.888 41.412C322.336 41.724 322.56 42.228 322.56 42.924ZM324.516 45H323.46V38.772H324.516V45ZM319.008 41.844V44.1H319.956C320.412 44.1 320.78 44.016 321.06 43.848C321.348 43.672 321.492 43.384 321.492 42.984C321.492 42.576 321.364 42.284 321.108 42.108C320.852 41.932 320.492 41.844 320.028 41.844H319.008ZM328.997 37.944C328.677 37.944 328.397 37.904 328.157 37.824C327.925 37.736 327.729 37.62 327.569 37.476C327.417 37.324 327.301 37.152 327.221 36.96C327.149 36.76 327.113 36.544 327.113 36.312H328.169C328.169 36.616 328.241 36.836 328.385 36.972C328.537 37.108 328.741 37.176 328.997 37.176C329.253 37.176 329.453 37.108 329.597 36.972C329.741 36.836 329.813 36.616 329.813 36.312H330.869C330.869 36.768 330.713 37.156 330.401 37.476C330.097 37.788 329.629 37.944 328.997 37.944ZM327.305 43.56L330.629 38.772H331.697V45H330.641V40.224L327.329 45H326.249V38.772H327.305V43.56ZM339.189 45.12C338.709 45.12 338.293 45.008 337.941 44.784C337.597 44.56 337.321 44.252 337.113 43.86V47.124H336.057V38.772H336.981L337.089 39.984C337.297 39.576 337.577 39.252 337.929 39.012C338.281 38.772 338.717 38.652 339.237 38.652C339.597 38.652 339.941 38.72 340.269 38.856C340.605 38.984 340.897 39.184 341.145 39.456C341.401 39.72 341.601 40.056 341.745 40.464C341.897 40.864 341.973 41.336 341.973 41.88C341.973 42.432 341.897 42.912 341.745 43.32C341.593 43.72 341.389 44.056 341.133 44.328C340.877 44.592 340.581 44.792 340.245 44.928C339.909 45.056 339.557 45.12 339.189 45.12ZM339.033 44.172C339.585 44.172 340.029 43.984 340.365 43.608C340.709 43.224 340.881 42.648 340.881 41.88C340.881 41.128 340.709 40.56 340.365 40.176C340.029 39.784 339.585 39.588 339.033 39.588C338.761 39.588 338.505 39.636 338.265 39.732C338.033 39.828 337.829 39.972 337.653 40.164C337.485 40.348 337.349 40.584 337.245 40.872C337.149 41.16 337.101 41.496 337.101 41.88C337.101 42.264 337.149 42.6 337.245 42.888C337.349 43.176 337.485 43.416 337.653 43.608C337.829 43.8 338.033 43.944 338.265 44.04C338.505 44.128 338.761 44.172 339.033 44.172ZM348.209 44.472C348.121 44.536 348.013 44.604 347.885 44.676C347.757 44.748 347.601 44.82 347.417 44.892C347.233 44.956 347.025 45.008 346.793 45.048C346.561 45.096 346.301 45.12 346.013 45.12C344.965 45.12 344.169 44.836 343.625 44.268C343.081 43.7 342.809 42.904 342.809 41.88C342.809 41.376 342.881 40.924 343.025 40.524C343.177 40.124 343.385 39.788 343.649 39.516C343.913 39.236 344.225 39.024 344.585 38.88C344.945 38.728 345.337 38.652 345.761 38.652C346.209 38.652 346.609 38.728 346.961 38.88C347.313 39.032 347.601 39.256 347.825 39.552C348.057 39.848 348.213 40.216 348.293 40.656C348.381 41.088 348.381 41.592 348.293 42.168H343.901C343.941 42.84 344.141 43.344 344.501 43.68C344.861 44.008 345.397 44.172 346.109 44.172C346.589 44.172 347.001 44.104 347.345 43.968C347.689 43.832 347.977 43.684 348.209 43.524V44.472ZM345.737 39.588C345.281 39.588 344.889 39.728 344.561 40.008C344.233 40.288 344.025 40.712 343.937 41.28H347.285C347.317 40.704 347.185 40.28 346.889 40.008C346.593 39.728 346.209 39.588 345.737 39.588ZM353.887 38.772V41.448H354.451L356.431 38.772H357.595L355.279 41.82L357.679 45H356.395L354.403 42.348H353.887V45H352.831V42.348H352.303L350.287 45H349.039L351.439 41.856L349.123 38.772H350.335L352.279 41.448H352.831V38.772H353.887ZM359.848 43.56L363.172 38.772H364.24V45H363.184V40.224L359.872 45H358.792V38.772H359.848V43.56ZM371.904 39.996L369.792 44.304H368.952L366.96 39.972V45H365.964V38.772H367.536L369.444 42.948L371.484 38.772H372.948V45H371.904V39.996ZM385.083 45H377.307V38.772H378.363V44.1H380.667V38.772H381.723V44.1H384.027V38.772H385.083V45ZM387.867 43.56L391.191 38.772H392.259V45H391.203V40.224L387.891 45H386.811V38.772H387.867V43.56ZM401.279 41.88C401.279 42.4 401.191 42.856 401.015 43.248C400.839 43.64 400.599 43.972 400.295 44.244C399.999 44.516 399.647 44.724 399.239 44.868C398.831 45.004 398.399 45.08 397.943 45.096V47.124H396.887V45.096C396.415 45.08 395.975 45 395.567 44.856C395.167 44.712 394.815 44.508 394.511 44.244C394.207 43.972 393.967 43.64 393.791 43.248C393.623 42.856 393.539 42.4 393.539 41.88C393.539 41.368 393.627 40.916 393.803 40.524C393.979 40.124 394.219 39.792 394.523 39.528C394.827 39.256 395.179 39.052 395.579 38.916C395.987 38.772 396.423 38.692 396.887 38.676V36.276H397.943V38.676C398.407 38.692 398.839 38.772 399.239 38.916C399.647 39.06 399.999 39.268 400.295 39.54C400.599 39.804 400.839 40.132 401.015 40.524C401.191 40.916 401.279 41.368 401.279 41.88ZM400.199 41.88C400.199 41.496 400.139 41.164 400.019 40.884C399.907 40.604 399.747 40.372 399.539 40.188C399.339 40.004 399.103 39.864 398.831 39.768C398.559 39.664 398.263 39.604 397.943 39.588V44.172C398.263 44.156 398.559 44.1 398.831 44.004C399.111 43.9 399.351 43.756 399.551 43.572C399.751 43.388 399.907 43.156 400.019 42.876C400.139 42.596 400.199 42.264 400.199 41.88ZM394.619 41.88C394.619 42.264 394.675 42.596 394.787 42.876C394.907 43.156 395.067 43.392 395.267 43.584C395.475 43.768 395.715 43.908 395.987 44.004C396.267 44.1 396.567 44.156 396.887 44.172V39.588C396.559 39.604 396.255 39.664 395.975 39.768C395.703 39.864 395.467 40.008 395.267 40.2C395.067 40.384 394.907 40.616 394.787 40.896C394.675 41.176 394.619 41.504 394.619 41.88ZM405.705 45.12C405.225 45.12 404.809 45.008 404.457 44.784C404.113 44.56 403.837 44.252 403.629 43.86V47.124H402.573V38.772H403.497L403.605 39.984C403.813 39.576 404.093 39.252 404.445 39.012C404.797 38.772 405.233 38.652 405.753 38.652C406.113 38.652 406.457 38.72 406.785 38.856C407.121 38.984 407.413 39.184 407.661 39.456C407.917 39.72 408.117 40.056 408.261 40.464C408.413 40.864 408.489 41.336 408.489 41.88C408.489 42.432 408.413 42.912 408.261 43.32C408.109 43.72 407.905 44.056 407.649 44.328C407.393 44.592 407.097 44.792 406.761 44.928C406.425 45.056 406.073 45.12 405.705 45.12ZM405.549 44.172C406.101 44.172 406.545 43.984 406.881 43.608C407.225 43.224 407.397 42.648 407.397 41.88C407.397 41.128 407.225 40.56 406.881 40.176C406.545 39.784 406.101 39.588 405.549 39.588C405.277 39.588 405.021 39.636 404.781 39.732C404.549 39.828 404.345 39.972 404.169 40.164C404.001 40.348 403.865 40.584 403.761 40.872C403.665 41.16 403.617 41.496 403.617 41.88C403.617 42.264 403.665 42.6 403.761 42.888C403.865 43.176 404.001 43.416 404.169 43.608C404.345 43.8 404.549 43.944 404.781 44.04C405.021 44.128 405.277 44.172 405.549 44.172ZM412.324 45.12C411.9 45.12 411.504 45.048 411.136 44.904C410.768 44.76 410.448 44.552 410.176 44.28C409.912 44 409.704 43.66 409.552 43.26C409.4 42.86 409.324 42.4 409.324 41.88C409.324 41.368 409.4 40.912 409.552 40.512C409.704 40.104 409.912 39.764 410.176 39.492C410.448 39.22 410.768 39.012 411.136 38.868C411.504 38.724 411.9 38.652 412.324 38.652C412.756 38.652 413.156 38.724 413.524 38.868C413.892 39.012 414.208 39.22 414.472 39.492C414.744 39.764 414.956 40.104 415.108 40.512C415.268 40.912 415.348 41.368 415.348 41.88C415.348 42.4 415.268 42.86 415.108 43.26C414.956 43.66 414.744 44 414.472 44.28C414.208 44.552 413.892 44.76 413.524 44.904C413.156 45.048 412.756 45.12 412.324 45.12ZM412.324 44.172C412.604 44.172 412.86 44.128 413.092 44.04C413.332 43.944 413.54 43.804 413.716 43.62C413.892 43.428 414.028 43.188 414.124 42.9C414.22 42.612 414.268 42.272 414.268 41.88C414.268 41.488 414.22 41.148 414.124 40.86C414.028 40.572 413.892 40.336 413.716 40.152C413.54 39.96 413.332 39.82 413.092 39.732C412.86 39.636 412.604 39.588 412.324 39.588C412.044 39.588 411.788 39.636 411.556 39.732C411.324 39.82 411.12 39.96 410.944 40.152C410.776 40.336 410.644 40.572 410.548 40.86C410.452 41.148 410.404 41.488 410.404 41.88C410.404 42.272 410.452 42.612 410.548 42.9C410.644 43.188 410.776 43.428 410.944 43.62C411.12 43.804 411.324 43.944 411.556 44.04C411.788 44.128 412.044 44.172 412.324 44.172ZM416.635 38.772H418.963C419.715 38.772 420.283 38.904 420.667 39.168C421.051 39.424 421.243 39.828 421.243 40.38C421.243 40.748 421.147 41.044 420.955 41.268C420.771 41.484 420.507 41.64 420.163 41.736C421.051 41.88 421.495 42.372 421.495 43.212C421.495 43.532 421.431 43.808 421.303 44.04C421.175 44.264 420.999 44.448 420.775 44.592C420.551 44.736 420.279 44.84 419.959 44.904C419.647 44.968 419.307 45 418.939 45H416.635V38.772ZM417.691 39.672V41.364H418.867C419.267 41.364 419.587 41.292 419.827 41.148C420.075 41.004 420.199 40.796 420.199 40.524C420.199 40.196 420.091 39.972 419.875 39.852C419.659 39.732 419.351 39.672 418.951 39.672H417.691ZM417.691 42.204V44.1H418.927C419.151 44.1 419.351 44.088 419.527 44.064C419.711 44.032 419.867 43.98 419.995 43.908C420.131 43.836 420.235 43.74 420.307 43.62C420.379 43.5 420.415 43.352 420.415 43.176C420.415 42.816 420.291 42.564 420.043 42.42C419.795 42.276 419.423 42.204 418.927 42.204H417.691ZM426.729 43.812C426.657 43.956 426.565 44.108 426.453 44.268C426.341 44.42 426.201 44.56 426.033 44.688C425.865 44.816 425.665 44.92 425.433 45C425.209 45.08 424.945 45.12 424.641 45.12C424.081 45.12 423.629 44.964 423.285 44.652C422.941 44.332 422.769 43.876 422.769 43.284C422.769 42.604 423.005 42.104 423.477 41.784C423.957 41.464 424.637 41.304 425.517 41.304H426.681V40.788C426.681 40.356 426.569 40.048 426.345 39.864C426.121 39.68 425.737 39.588 425.193 39.588C424.809 39.588 424.445 39.652 424.101 39.78C423.757 39.9 423.449 40.04 423.177 40.2V39.252C423.401 39.116 423.701 38.984 424.077 38.856C424.461 38.72 424.881 38.652 425.337 38.652C426.121 38.652 426.717 38.816 427.125 39.144C427.533 39.464 427.737 39.964 427.737 40.644V43.992C427.737 44.064 427.737 44.148 427.737 44.244C427.745 44.332 427.749 44.424 427.749 44.52C427.757 44.616 427.765 44.708 427.773 44.796C427.781 44.876 427.789 44.944 427.797 45H426.837C426.813 44.888 426.789 44.732 426.765 44.532C426.749 44.324 426.741 44.144 426.741 43.992L426.729 43.812ZM424.869 44.172C425.197 44.172 425.477 44.104 425.709 43.968C425.941 43.832 426.129 43.676 426.273 43.5C426.417 43.316 426.521 43.14 426.585 42.972C426.649 42.796 426.681 42.672 426.681 42.6V42.144H425.625C424.993 42.144 424.533 42.236 424.245 42.42C423.965 42.596 423.825 42.864 423.825 43.224C423.825 43.504 423.909 43.732 424.077 43.908C424.245 44.084 424.509 44.172 424.869 44.172ZM433.465 42.24H430.453V45H429.397V38.772H430.453V41.34H433.465V38.772H434.521V45H433.465V42.24ZM437.309 43.56L440.633 38.772H441.701V45H440.645V40.224L437.333 45H436.253V38.772H437.309V43.56ZM443.425 40.788C443.425 40.436 443.489 40.136 443.617 39.888C443.745 39.632 443.925 39.424 444.157 39.264C444.389 39.096 444.665 38.972 444.985 38.892C445.305 38.812 445.653 38.772 446.029 38.772H448.033V45H446.977V42.744H445.837L444.241 45H442.981L444.781 42.48C444.349 42.352 444.013 42.156 443.773 41.892C443.541 41.628 443.425 41.26 443.425 40.788ZM446.977 41.844V39.672H446.029C445.581 39.672 445.213 39.756 444.925 39.924C444.637 40.092 444.493 40.364 444.493 40.74C444.493 41.132 444.621 41.416 444.877 41.592C445.133 41.76 445.497 41.844 445.969 41.844H446.977Z" fill="#262626"/>
</g>
<rect x="-1" y="1" width="163" height="216" rx="9" transform="matrix(-1 0 0 1 486 71)" stroke="#5282FF" stroke-width="2"/>
<rect x="-1" y="1" width="289" height="97" rx="9" transform="matrix(-1 0 0 1 486 152)" stroke="#5282FF" stroke-width="2"/>
<rect x="-1" y="1" width="602" height="138" rx="9" transform="matrix(-1 0 0 1 650 131)" stroke="#5282FF" stroke-width="2"/>
<path d="M363.787 98H354.391V89.396H355.519V96.98H358.495V89.396H359.659V96.98H362.647V89.396H363.787V98ZM366.717 96.56L370.041 91.772H371.109V98H370.053V93.224L366.741 98H365.661V91.772H366.717V96.56ZM380.129 94.88C380.129 95.4 380.041 95.856 379.865 96.248C379.689 96.64 379.449 96.972 379.145 97.244C378.849 97.516 378.497 97.724 378.089 97.868C377.681 98.004 377.249 98.08 376.793 98.096V100.124H375.737V98.096C375.265 98.08 374.825 98 374.417 97.856C374.017 97.712 373.665 97.508 373.361 97.244C373.057 96.972 372.817 96.64 372.641 96.248C372.473 95.856 372.389 95.4 372.389 94.88C372.389 94.368 372.477 93.916 372.653 93.524C372.829 93.124 373.069 92.792 373.373 92.528C373.677 92.256 374.029 92.052 374.429 91.916C374.837 91.772 375.273 91.692 375.737 91.676V89.276H376.793V91.676C377.257 91.692 377.689 91.772 378.089 91.916C378.497 92.06 378.849 92.268 379.145 92.54C379.449 92.804 379.689 93.132 379.865 93.524C380.041 93.916 380.129 94.368 380.129 94.88ZM379.049 94.88C379.049 94.496 378.989 94.164 378.869 93.884C378.757 93.604 378.597 93.372 378.389 93.188C378.189 93.004 377.953 92.864 377.681 92.768C377.409 92.664 377.113 92.604 376.793 92.588V97.172C377.113 97.156 377.409 97.1 377.681 97.004C377.961 96.9 378.201 96.756 378.401 96.572C378.601 96.388 378.757 96.156 378.869 95.876C378.989 95.596 379.049 95.264 379.049 94.88ZM373.469 94.88C373.469 95.264 373.525 95.596 373.637 95.876C373.757 96.156 373.917 96.392 374.117 96.584C374.325 96.768 374.565 96.908 374.837 97.004C375.117 97.1 375.417 97.156 375.737 97.172V92.588C375.409 92.604 375.105 92.664 374.825 92.768C374.553 92.864 374.317 93.008 374.117 93.2C373.917 93.384 373.757 93.616 373.637 93.896C373.525 94.176 373.469 94.504 373.469 94.88ZM384.555 98.12C384.075 98.12 383.659 98.008 383.307 97.784C382.963 97.56 382.687 97.252 382.479 96.86V100.124H381.423V91.772H382.347L382.455 92.984C382.663 92.576 382.943 92.252 383.295 92.012C383.647 91.772 384.083 91.652 384.603 91.652C384.963 91.652 385.307 91.72 385.635 91.856C385.971 91.984 386.263 92.184 386.511 92.456C386.767 92.72 386.967 93.056 387.111 93.464C387.263 93.864 387.339 94.336 387.339 94.88C387.339 95.432 387.263 95.912 387.111 96.32C386.959 96.72 386.755 97.056 386.499 97.328C386.243 97.592 385.947 97.792 385.611 97.928C385.275 98.056 384.923 98.12 384.555 98.12ZM384.399 97.172C384.951 97.172 385.395 96.984 385.731 96.608C386.075 96.224 386.247 95.648 386.247 94.88C386.247 94.128 386.075 93.56 385.731 93.176C385.395 92.784 384.951 92.588 384.399 92.588C384.127 92.588 383.871 92.636 383.631 92.732C383.399 92.828 383.195 92.972 383.019 93.164C382.851 93.348 382.715 93.584 382.611 93.872C382.515 94.16 382.467 94.496 382.467 94.88C382.467 95.264 382.515 95.6 382.611 95.888C382.715 96.176 382.851 96.416 383.019 96.608C383.195 96.8 383.399 96.944 383.631 97.04C383.871 97.128 384.127 97.172 384.399 97.172ZM391.619 97.928C391.475 98.304 391.323 98.632 391.163 98.912C391.003 99.2 390.823 99.444 390.623 99.644C390.423 99.844 390.199 99.992 389.951 100.088C389.703 100.192 389.419 100.244 389.099 100.244C388.939 100.244 388.791 100.232 388.655 100.208C388.519 100.192 388.395 100.16 388.283 100.112V99.092C388.371 99.156 388.483 99.204 388.619 99.236C388.755 99.276 388.903 99.296 389.063 99.296C389.359 99.296 389.603 99.224 389.795 99.08C389.987 98.944 390.171 98.724 390.347 98.42L387.815 91.772H388.979L390.959 97.028L392.927 91.772H393.947L391.619 97.928ZM399.832 97.472C399.744 97.536 399.636 97.604 399.508 97.676C399.38 97.748 399.224 97.82 399.04 97.892C398.856 97.956 398.648 98.008 398.416 98.048C398.184 98.096 397.924 98.12 397.636 98.12C396.588 98.12 395.792 97.836 395.248 97.268C394.704 96.7 394.432 95.904 394.432 94.88C394.432 94.376 394.504 93.924 394.648 93.524C394.8 93.124 395.008 92.788 395.272 92.516C395.536 92.236 395.848 92.024 396.208 91.88C396.568 91.728 396.96 91.652 397.384 91.652C397.832 91.652 398.232 91.728 398.584 91.88C398.936 92.032 399.224 92.256 399.448 92.552C399.68 92.848 399.836 93.216 399.916 93.656C400.004 94.088 400.004 94.592 399.916 95.168H395.524C395.564 95.84 395.764 96.344 396.124 96.68C396.484 97.008 397.02 97.172 397.732 97.172C398.212 97.172 398.624 97.104 398.968 96.968C399.312 96.832 399.6 96.684 399.832 96.524V97.472ZM397.36 92.588C396.904 92.588 396.512 92.728 396.184 93.008C395.856 93.288 395.648 93.712 395.56 94.28H398.908C398.94 93.704 398.808 93.28 398.512 93.008C398.216 92.728 397.832 92.588 397.36 92.588ZM403.782 92.672V98H402.726V92.672H400.77V91.772H405.774V92.672H403.782ZM409.505 98.12C409.025 98.12 408.589 98.048 408.197 97.904C407.813 97.752 407.485 97.54 407.213 97.268C406.941 96.988 406.733 96.648 406.589 96.248C406.445 95.848 406.373 95.392 406.373 94.88C406.373 94.376 406.445 93.924 406.589 93.524C406.741 93.124 406.953 92.788 407.225 92.516C407.497 92.236 407.829 92.024 408.221 91.88C408.613 91.728 409.057 91.652 409.553 91.652C409.937 91.652 410.289 91.696 410.609 91.784C410.929 91.864 411.193 91.984 411.401 92.144V93.092C411.145 92.924 410.857 92.8 410.537 92.72C410.225 92.632 409.901 92.588 409.565 92.588C408.837 92.588 408.301 92.776 407.957 93.152C407.621 93.528 407.453 94.104 407.453 94.88C407.453 95.656 407.617 96.232 407.945 96.608C408.273 96.984 408.793 97.172 409.505 97.172C409.881 97.172 410.225 97.128 410.537 97.04C410.857 96.944 411.145 96.824 411.401 96.68V97.628C411.177 97.764 410.905 97.88 410.585 97.976C410.273 98.072 409.913 98.12 409.505 98.12ZM412.817 93.788C412.817 93.436 412.881 93.136 413.009 92.888C413.137 92.632 413.317 92.424 413.549 92.264C413.781 92.096 414.057 91.972 414.377 91.892C414.697 91.812 415.045 91.772 415.421 91.772H417.425V98H416.369V95.744H415.229L413.633 98H412.373L414.173 95.48C413.741 95.352 413.405 95.156 413.165 94.892C412.933 94.628 412.817 94.26 412.817 93.788ZM416.369 94.844V92.672H415.421C414.973 92.672 414.605 92.756 414.317 92.924C414.029 93.092 413.885 93.364 413.885 93.74C413.885 94.132 414.013 94.416 414.269 94.592C414.525 94.76 414.889 94.844 415.361 94.844H416.369ZM424.302 92.672V98H423.246V92.672H421.29V91.772H426.294V92.672H424.302ZM429.893 98.12C429.469 98.12 429.073 98.048 428.705 97.904C428.337 97.76 428.017 97.552 427.745 97.28C427.481 97 427.273 96.66 427.121 96.26C426.969 95.86 426.893 95.4 426.893 94.88C426.893 94.368 426.969 93.912 427.121 93.512C427.273 93.104 427.481 92.764 427.745 92.492C428.017 92.22 428.337 92.012 428.705 91.868C429.073 91.724 429.469 91.652 429.893 91.652C430.325 91.652 430.725 91.724 431.093 91.868C431.461 92.012 431.777 92.22 432.041 92.492C432.313 92.764 432.525 93.104 432.677 93.512C432.837 93.912 432.917 94.368 432.917 94.88C432.917 95.4 432.837 95.86 432.677 96.26C432.525 96.66 432.313 97 432.041 97.28C431.777 97.552 431.461 97.76 431.093 97.904C430.725 98.048 430.325 98.12 429.893 98.12ZM429.893 97.172C430.173 97.172 430.429 97.128 430.661 97.04C430.901 96.944 431.109 96.804 431.285 96.62C431.461 96.428 431.597 96.188 431.693 95.9C431.789 95.612 431.837 95.272 431.837 94.88C431.837 94.488 431.789 94.148 431.693 93.86C431.597 93.572 431.461 93.336 431.285 93.152C431.109 92.96 430.901 92.82 430.661 92.732C430.429 92.636 430.173 92.588 429.893 92.588C429.613 92.588 429.357 92.636 429.125 92.732C428.893 92.82 428.689 92.96 428.513 93.152C428.345 93.336 428.213 93.572 428.117 93.86C428.021 94.148 427.973 94.488 427.973 94.88C427.973 95.272 428.021 95.612 428.117 95.9C428.213 96.188 428.345 96.428 428.513 96.62C428.689 96.804 428.893 96.944 429.125 97.04C429.357 97.128 429.613 97.172 429.893 97.172ZM434.508 96.068C434.62 95.66 434.692 95.108 434.724 94.412C434.756 93.716 434.772 92.836 434.772 91.772H438.96V98H437.892V92.672H435.768C435.76 93.528 435.732 94.288 435.684 94.952C435.644 95.616 435.552 96.176 435.408 96.632C435.272 97.088 435.068 97.436 434.796 97.676C434.532 97.908 434.176 98.024 433.728 98.024C433.696 98.024 433.664 98.024 433.632 98.024C433.6 98.024 433.564 98.02 433.524 98.012V96.968C433.564 96.976 433.616 96.98 433.68 96.98C434.088 96.98 434.364 96.676 434.508 96.068ZM445.305 95.924C445.305 96.284 445.241 96.596 445.113 96.86C444.985 97.124 444.805 97.34 444.573 97.508C444.341 97.676 444.065 97.8 443.745 97.88C443.425 97.96 443.077 98 442.701 98H440.637V91.772H441.693V93.944H442.773C443.565 93.944 444.185 94.1 444.633 94.412C445.081 94.724 445.305 95.228 445.305 95.924ZM441.693 94.844V97.1H442.701C443.157 97.1 443.525 97.016 443.805 96.848C444.093 96.672 444.237 96.384 444.237 95.984C444.237 95.576 444.109 95.284 443.853 95.108C443.597 94.932 443.237 94.844 442.773 94.844H441.693ZM448.257 95.348H447.705V98H446.649V91.772H447.705V94.448H448.305L450.489 91.772H451.689L449.133 94.844L451.737 98H450.453L448.257 95.348ZM455.17 98.12C454.746 98.12 454.35 98.048 453.982 97.904C453.614 97.76 453.294 97.552 453.022 97.28C452.758 97 452.55 96.66 452.398 96.26C452.246 95.86 452.17 95.4 452.17 94.88C452.17 94.368 452.246 93.912 452.398 93.512C452.55 93.104 452.758 92.764 453.022 92.492C453.294 92.22 453.614 92.012 453.982 91.868C454.35 91.724 454.746 91.652 455.17 91.652C455.602 91.652 456.002 91.724 456.37 91.868C456.738 92.012 457.054 92.22 457.318 92.492C457.59 92.764 457.802 93.104 457.954 93.512C458.114 93.912 458.194 94.368 458.194 94.88C458.194 95.4 458.114 95.86 457.954 96.26C457.802 96.66 457.59 97 457.318 97.28C457.054 97.552 456.738 97.76 456.37 97.904C456.002 98.048 455.602 98.12 455.17 98.12ZM455.17 97.172C455.45 97.172 455.706 97.128 455.938 97.04C456.178 96.944 456.386 96.804 456.562 96.62C456.738 96.428 456.874 96.188 456.97 95.9C457.066 95.612 457.114 95.272 457.114 94.88C457.114 94.488 457.066 94.148 456.97 93.86C456.874 93.572 456.738 93.336 456.562 93.152C456.386 92.96 456.178 92.82 455.938 92.732C455.706 92.636 455.45 92.588 455.17 92.588C454.89 92.588 454.634 92.636 454.402 92.732C454.17 92.82 453.966 92.96 453.79 93.152C453.622 93.336 453.49 93.572 453.394 93.86C453.298 94.148 453.25 94.488 453.25 94.88C453.25 95.272 453.298 95.612 453.394 95.9C453.49 96.188 453.622 96.428 453.79 96.62C453.966 96.804 454.17 96.944 454.402 97.04C454.634 97.128 454.89 97.172 455.17 97.172ZM354.382 105.772H359.374V112H358.318V106.672H355.438V112H354.382V105.772ZM363.652 112.12C363.228 112.12 362.832 112.048 362.464 111.904C362.096 111.76 361.776 111.552 361.504 111.28C361.24 111 361.032 110.66 360.88 110.26C360.728 109.86 360.652 109.4 360.652 108.88C360.652 108.368 360.728 107.912 360.88 107.512C361.032 107.104 361.24 106.764 361.504 106.492C361.776 106.22 362.096 106.012 362.464 105.868C362.832 105.724 363.228 105.652 363.652 105.652C364.084 105.652 364.484 105.724 364.852 105.868C365.22 106.012 365.536 106.22 365.8 106.492C366.072 106.764 366.284 107.104 366.436 107.512C366.596 107.912 366.676 108.368 366.676 108.88C366.676 109.4 366.596 109.86 366.436 110.26C366.284 110.66 366.072 111 365.8 111.28C365.536 111.552 365.22 111.76 364.852 111.904C364.484 112.048 364.084 112.12 363.652 112.12ZM363.652 111.172C363.932 111.172 364.188 111.128 364.42 111.04C364.66 110.944 364.868 110.804 365.044 110.62C365.22 110.428 365.356 110.188 365.452 109.9C365.548 109.612 365.596 109.272 365.596 108.88C365.596 108.488 365.548 108.148 365.452 107.86C365.356 107.572 365.22 107.336 365.044 107.152C364.868 106.96 364.66 106.82 364.42 106.732C364.188 106.636 363.932 106.588 363.652 106.588C363.372 106.588 363.116 106.636 362.884 106.732C362.652 106.82 362.448 106.96 362.272 107.152C362.104 107.336 361.972 107.572 361.876 107.86C361.78 108.148 361.732 108.488 361.732 108.88C361.732 109.272 361.78 109.612 361.876 109.9C361.972 110.188 362.104 110.428 362.272 110.62C362.448 110.804 362.652 110.944 362.884 111.04C363.116 111.128 363.372 111.172 363.652 111.172ZM368.268 110.068C368.38 109.66 368.452 109.108 368.484 108.412C368.516 107.716 368.532 106.836 368.532 105.772H372.72V112H371.652V106.672H369.528C369.52 107.528 369.492 108.288 369.444 108.952C369.404 109.616 369.312 110.176 369.168 110.632C369.032 111.088 368.828 111.436 368.556 111.676C368.292 111.908 367.936 112.024 367.488 112.024C367.456 112.024 367.424 112.024 367.392 112.024C367.36 112.024 367.324 112.02 367.284 112.012V110.968C367.324 110.976 367.376 110.98 367.44 110.98C367.848 110.98 368.124 110.676 368.268 110.068ZM379.388 111.472C379.3 111.536 379.192 111.604 379.064 111.676C378.936 111.748 378.78 111.82 378.596 111.892C378.412 111.956 378.204 112.008 377.972 112.048C377.74 112.096 377.48 112.12 377.192 112.12C376.144 112.12 375.348 111.836 374.804 111.268C374.26 110.7 373.988 109.904 373.988 108.88C373.988 108.376 374.06 107.924 374.204 107.524C374.356 107.124 374.564 106.788 374.828 106.516C375.092 106.236 375.404 106.024 375.764 105.88C376.124 105.728 376.516 105.652 376.94 105.652C377.388 105.652 377.788 105.728 378.14 105.88C378.492 106.032 378.78 106.256 379.004 106.552C379.236 106.848 379.392 107.216 379.472 107.656C379.56 108.088 379.56 108.592 379.472 109.168H375.08C375.12 109.84 375.32 110.344 375.68 110.68C376.04 111.008 376.576 111.172 377.288 111.172C377.768 111.172 378.18 111.104 378.524 110.968C378.868 110.832 379.156 110.684 379.388 110.524V111.472ZM376.916 106.588C376.46 106.588 376.068 106.728 375.74 107.008C375.412 107.288 375.204 107.712 375.116 108.28H378.464C378.496 107.704 378.364 107.28 378.068 107.008C377.772 106.728 377.388 106.588 376.916 106.588ZM385.305 110.188C385.305 110.54 385.233 110.84 385.089 111.088C384.953 111.328 384.765 111.528 384.525 111.688C384.285 111.84 384.005 111.948 383.685 112.012C383.373 112.084 383.045 112.12 382.701 112.12C382.245 112.12 381.841 112.072 381.489 111.976C381.145 111.88 380.873 111.764 380.673 111.628V110.68C380.921 110.832 381.217 110.952 381.561 111.04C381.905 111.128 382.277 111.172 382.677 111.172C383.133 111.172 383.513 111.1 383.817 110.956C384.129 110.804 384.285 110.548 384.285 110.188C384.285 109.836 384.153 109.588 383.889 109.444C383.633 109.3 383.237 109.228 382.701 109.228H381.873V108.376H382.737C383.177 108.376 383.513 108.296 383.745 108.136C383.977 107.976 384.093 107.744 384.093 107.44C384.093 107.28 384.053 107.148 383.973 107.044C383.901 106.932 383.801 106.844 383.673 106.78C383.545 106.708 383.393 106.66 383.217 106.636C383.049 106.604 382.869 106.588 382.677 106.588C382.309 106.588 381.965 106.632 381.645 106.72C381.333 106.808 381.049 106.932 380.793 107.092V106.144C381.001 106.008 381.269 105.892 381.597 105.796C381.933 105.7 382.321 105.652 382.761 105.652C383.521 105.652 384.093 105.796 384.477 106.084C384.869 106.372 385.065 106.788 385.065 107.332C385.065 107.74 384.953 108.06 384.729 108.292C384.513 108.524 384.205 108.684 383.805 108.772C384.301 108.836 384.673 108.992 384.921 109.24C385.177 109.488 385.305 109.804 385.305 110.188ZM390.922 109.24H387.91V112H386.854V105.772H387.91V108.34H390.922V105.772H391.978V112H390.922V109.24ZM397.358 110.812C397.286 110.956 397.194 111.108 397.082 111.268C396.97 111.42 396.83 111.56 396.662 111.688C396.494 111.816 396.294 111.92 396.062 112C395.838 112.08 395.574 112.12 395.27 112.12C394.71 112.12 394.258 111.964 393.914 111.652C393.57 111.332 393.398 110.876 393.398 110.284C393.398 109.604 393.634 109.104 394.106 108.784C394.586 108.464 395.266 108.304 396.146 108.304H397.31V107.788C397.31 107.356 397.198 107.048 396.974 106.864C396.75 106.68 396.366 106.588 395.822 106.588C395.438 106.588 395.074 106.652 394.73 106.78C394.386 106.9 394.078 107.04 393.806 107.2V106.252C394.03 106.116 394.33 105.984 394.706 105.856C395.09 105.72 395.51 105.652 395.966 105.652C396.75 105.652 397.346 105.816 397.754 106.144C398.162 106.464 398.366 106.964 398.366 107.644V110.992C398.366 111.064 398.366 111.148 398.366 111.244C398.374 111.332 398.378 111.424 398.378 111.52C398.386 111.616 398.394 111.708 398.402 111.796C398.41 111.876 398.418 111.944 398.426 112H397.466C397.442 111.888 397.418 111.732 397.394 111.532C397.378 111.324 397.37 111.144 397.37 110.992L397.358 110.812ZM395.498 111.172C395.826 111.172 396.106 111.104 396.338 110.968C396.57 110.832 396.758 110.676 396.902 110.5C397.046 110.316 397.15 110.14 397.214 109.972C397.278 109.796 397.31 109.672 397.31 109.6V109.144H396.254C395.622 109.144 395.162 109.236 394.874 109.42C394.594 109.596 394.454 109.864 394.454 110.224C394.454 110.504 394.538 110.732 394.706 110.908C394.874 111.084 395.138 111.172 395.498 111.172ZM400.026 107.788C400.026 107.436 400.09 107.136 400.218 106.888C400.346 106.632 400.526 106.424 400.758 106.264C400.99 106.096 401.266 105.972 401.586 105.892C401.906 105.812 402.254 105.772 402.63 105.772H404.634V112H403.578V109.744H402.438L400.842 112H399.582L401.382 109.48C400.95 109.352 400.614 109.156 400.374 108.892C400.142 108.628 400.026 108.26 400.026 107.788ZM403.578 108.844V106.672H402.63C402.182 106.672 401.814 106.756 401.526 106.924C401.238 107.092 401.094 107.364 401.094 107.74C401.094 108.132 401.222 108.416 401.478 108.592C401.734 108.76 402.098 108.844 402.57 108.844H403.578ZM413.071 109.24H410.059V112H409.003V105.772H410.059V108.34H413.071V105.772H414.127V112H413.071V109.24ZM419.506 110.812C419.434 110.956 419.342 111.108 419.23 111.268C419.118 111.42 418.978 111.56 418.81 111.688C418.642 111.816 418.442 111.92 418.21 112C417.986 112.08 417.722 112.12 417.418 112.12C416.858 112.12 416.406 111.964 416.062 111.652C415.718 111.332 415.546 110.876 415.546 110.284C415.546 109.604 415.782 109.104 416.254 108.784C416.734 108.464 417.414 108.304 418.294 108.304H419.458V107.788C419.458 107.356 419.346 107.048 419.122 106.864C418.898 106.68 418.514 106.588 417.97 106.588C417.586 106.588 417.222 106.652 416.878 106.78C416.534 106.9 416.226 107.04 415.954 107.2V106.252C416.178 106.116 416.478 105.984 416.854 105.856C417.238 105.72 417.658 105.652 418.114 105.652C418.898 105.652 419.494 105.816 419.902 106.144C420.31 106.464 420.514 106.964 420.514 107.644V110.992C420.514 111.064 420.514 111.148 420.514 111.244C420.522 111.332 420.526 111.424 420.526 111.52C420.534 111.616 420.542 111.708 420.55 111.796C420.558 111.876 420.566 111.944 420.574 112H419.614C419.59 111.888 419.566 111.732 419.542 111.532C419.526 111.324 419.518 111.144 419.518 110.992L419.506 110.812ZM417.646 111.172C417.974 111.172 418.254 111.104 418.486 110.968C418.718 110.832 418.906 110.676 419.05 110.5C419.194 110.316 419.298 110.14 419.362 109.972C419.426 109.796 419.458 109.672 419.458 109.6V109.144H418.402C417.77 109.144 417.31 109.236 417.022 109.42C416.742 109.596 416.602 109.864 416.602 110.224C416.602 110.504 416.686 110.732 416.854 110.908C417.022 111.084 417.286 111.172 417.646 111.172ZM422.175 105.772H426.135V106.672H423.231V112H422.175V105.772ZM430.545 112.12C430.065 112.12 429.649 112.008 429.297 111.784C428.953 111.56 428.677 111.252 428.469 110.86V114.124H427.413V105.772H428.337L428.445 106.984C428.653 106.576 428.933 106.252 429.285 106.012C429.637 105.772 430.073 105.652 430.593 105.652C430.953 105.652 431.297 105.72 431.625 105.856C431.961 105.984 432.253 106.184 432.501 106.456C432.757 106.72 432.957 107.056 433.101 107.464C433.253 107.864 433.329 108.336 433.329 108.88C433.329 109.432 433.253 109.912 433.101 110.32C432.949 110.72 432.745 111.056 432.489 111.328C432.233 111.592 431.937 111.792 431.601 111.928C431.265 112.056 430.913 112.12 430.545 112.12ZM430.389 111.172C430.941 111.172 431.385 110.984 431.721 110.608C432.065 110.224 432.237 109.648 432.237 108.88C432.237 108.128 432.065 107.56 431.721 107.176C431.385 106.784 430.941 106.588 430.389 106.588C430.117 106.588 429.861 106.636 429.621 106.732C429.389 106.828 429.185 106.972 429.009 107.164C428.841 107.348 428.705 107.584 428.601 107.872C428.505 108.16 428.457 108.496 428.457 108.88C428.457 109.264 428.505 109.6 428.601 109.888C428.705 110.176 428.841 110.416 429.009 110.608C429.185 110.8 429.389 110.944 429.621 111.04C429.861 111.128 430.117 111.172 430.389 111.172ZM437.61 111.928C437.466 112.304 437.314 112.632 437.154 112.912C436.994 113.2 436.814 113.444 436.614 113.644C436.414 113.844 436.19 113.992 435.942 114.088C435.694 114.192 435.41 114.244 435.09 114.244C434.93 114.244 434.782 114.232 434.646 114.208C434.51 114.192 434.386 114.16 434.274 114.112V113.092C434.362 113.156 434.474 113.204 434.61 113.236C434.746 113.276 434.894 113.296 435.054 113.296C435.35 113.296 435.594 113.224 435.786 113.08C435.978 112.944 436.162 112.724 436.338 112.42L433.806 105.772H434.97L436.95 111.028L438.918 105.772H439.938L437.61 111.928ZM445.399 110.188C445.399 110.54 445.327 110.84 445.183 111.088C445.047 111.328 444.859 111.528 444.619 111.688C444.379 111.84 444.099 111.948 443.779 112.012C443.467 112.084 443.139 112.12 442.795 112.12C442.339 112.12 441.935 112.072 441.583 111.976C441.239 111.88 440.967 111.764 440.767 111.628V110.68C441.015 110.832 441.311 110.952 441.655 111.04C441.999 111.128 442.371 111.172 442.771 111.172C443.227 111.172 443.607 111.1 443.911 110.956C444.223 110.804 444.379 110.548 444.379 110.188C444.379 109.836 444.247 109.588 443.983 109.444C443.727 109.3 443.331 109.228 442.795 109.228H441.967V108.376H442.831C443.271 108.376 443.607 108.296 443.839 108.136C444.071 107.976 444.187 107.744 444.187 107.44C444.187 107.28 444.147 107.148 444.067 107.044C443.995 106.932 443.895 106.844 443.767 106.78C443.639 106.708 443.487 106.66 443.311 106.636C443.143 106.604 442.963 106.588 442.771 106.588C442.403 106.588 442.059 106.632 441.739 106.72C441.427 106.808 441.143 106.932 440.887 107.092V106.144C441.095 106.008 441.363 105.892 441.691 105.796C442.027 105.7 442.415 105.652 442.855 105.652C443.615 105.652 444.187 105.796 444.571 106.084C444.963 106.372 445.159 106.788 445.159 107.332C445.159 107.74 445.047 108.06 444.823 108.292C444.607 108.524 444.299 108.684 443.899 108.772C444.395 108.836 444.767 108.992 445.015 109.24C445.271 109.488 445.399 109.804 445.399 110.188ZM448.556 109.348H448.004V112H446.948V105.772H448.004V108.448H448.604L450.788 105.772H451.988L449.432 108.844L452.036 112H450.752L448.556 109.348ZM456.678 110.812C456.606 110.956 456.514 111.108 456.402 111.268C456.29 111.42 456.15 111.56 455.982 111.688C455.814 111.816 455.614 111.92 455.382 112C455.158 112.08 454.894 112.12 454.59 112.12C454.03 112.12 453.578 111.964 453.234 111.652C452.89 111.332 452.718 110.876 452.718 110.284C452.718 109.604 452.954 109.104 453.426 108.784C453.906 108.464 454.586 108.304 455.466 108.304H456.63V107.788C456.63 107.356 456.518 107.048 456.294 106.864C456.07 106.68 455.686 106.588 455.142 106.588C454.758 106.588 454.394 106.652 454.05 106.78C453.706 106.9 453.398 107.04 453.126 107.2V106.252C453.35 106.116 453.65 105.984 454.026 105.856C454.41 105.72 454.83 105.652 455.286 105.652C456.07 105.652 456.666 105.816 457.074 106.144C457.482 106.464 457.686 106.964 457.686 107.644V110.992C457.686 111.064 457.686 111.148 457.686 111.244C457.694 111.332 457.698 111.424 457.698 111.52C457.706 111.616 457.714 111.708 457.722 111.796C457.73 111.876 457.738 111.944 457.746 112H456.786C456.762 111.888 456.738 111.732 456.714 111.532C456.698 111.324 456.69 111.144 456.69 110.992L456.678 110.812ZM454.818 111.172C455.146 111.172 455.426 111.104 455.658 110.968C455.89 110.832 456.078 110.676 456.222 110.5C456.366 110.316 456.47 110.14 456.534 109.972C456.598 109.796 456.63 109.672 456.63 109.6V109.144H455.574C454.942 109.144 454.482 109.236 454.194 109.42C453.914 109.596 453.774 109.864 453.774 110.224C453.774 110.504 453.858 110.732 454.026 110.908C454.194 111.084 454.458 111.172 454.818 111.172Z" fill="#262626"/>
<path d="M247.95 197.396V206H246.822V197.396H247.95ZM249.951 197.396H252.699C253.675 197.396 254.431 197.6 254.967 198.008C255.511 198.408 255.783 199.036 255.783 199.892C255.783 200.38 255.703 200.8 255.543 201.152C255.391 201.496 255.175 201.78 254.895 202.004C254.615 202.228 254.279 202.392 253.887 202.496C253.503 202.6 253.075 202.652 252.603 202.652H251.079V206H249.951V197.396ZM251.079 198.428V201.632H252.603C252.907 201.632 253.183 201.6 253.431 201.536C253.679 201.472 253.891 201.372 254.067 201.236C254.251 201.1 254.391 200.924 254.487 200.708C254.591 200.484 254.643 200.216 254.643 199.904C254.643 199.384 254.475 199.008 254.139 198.776C253.803 198.544 253.323 198.428 252.699 198.428H251.079ZM259.006 206.12C258.678 206.12 258.386 206.092 258.13 206.036C257.882 205.988 257.662 205.928 257.47 205.856C257.286 205.776 257.13 205.696 257.002 205.616C256.874 205.528 256.774 205.452 256.702 205.388V204.44C256.782 204.52 256.89 204.608 257.026 204.704C257.162 204.792 257.326 204.876 257.518 204.956C257.71 205.036 257.926 205.104 258.166 205.16C258.414 205.208 258.69 205.232 258.994 205.232C259.442 205.232 259.798 205.16 260.062 205.016C260.326 204.872 260.458 204.628 260.458 204.284C260.458 204.1 260.414 203.952 260.326 203.84C260.246 203.728 260.134 203.64 259.99 203.576C259.846 203.504 259.678 203.448 259.486 203.408C259.302 203.368 259.106 203.328 258.898 203.288C258.634 203.232 258.374 203.172 258.118 203.108C257.862 203.036 257.63 202.936 257.422 202.808C257.214 202.672 257.046 202.5 256.918 202.292C256.79 202.076 256.726 201.796 256.726 201.452C256.726 200.892 256.942 200.452 257.374 200.132C257.814 199.812 258.426 199.652 259.21 199.652C259.65 199.652 260.038 199.696 260.374 199.784C260.718 199.872 260.982 199.968 261.166 200.072V201.02C260.958 200.884 260.698 200.772 260.386 200.684C260.082 200.588 259.702 200.54 259.246 200.54C258.774 200.54 258.41 200.604 258.154 200.732C257.906 200.86 257.782 201.092 257.782 201.428C257.782 201.596 257.818 201.732 257.89 201.836C257.962 201.932 258.058 202.012 258.178 202.076C258.306 202.132 258.45 202.176 258.61 202.208C258.77 202.24 258.938 202.276 259.114 202.316C259.386 202.372 259.666 202.432 259.954 202.496C260.242 202.56 260.498 202.66 260.722 202.796C260.954 202.932 261.142 203.116 261.286 203.348C261.438 203.572 261.514 203.876 261.514 204.26C261.514 204.62 261.442 204.92 261.298 205.16C261.154 205.4 260.962 205.592 260.722 205.736C260.49 205.872 260.222 205.968 259.918 206.024C259.622 206.088 259.318 206.12 259.006 206.12ZM267.771 205.472C267.683 205.536 267.575 205.604 267.447 205.676C267.319 205.748 267.163 205.82 266.979 205.892C266.795 205.956 266.587 206.008 266.355 206.048C266.123 206.096 265.863 206.12 265.575 206.12C264.527 206.12 263.731 205.836 263.187 205.268C262.643 204.7 262.371 203.904 262.371 202.88C262.371 202.376 262.443 201.924 262.587 201.524C262.739 201.124 262.947 200.788 263.211 200.516C263.475 200.236 263.787 200.024 264.147 199.88C264.507 199.728 264.899 199.652 265.323 199.652C265.771 199.652 266.171 199.728 266.523 199.88C266.875 200.032 267.163 200.256 267.387 200.552C267.619 200.848 267.775 201.216 267.855 201.656C267.943 202.088 267.943 202.592 267.855 203.168H263.463C263.503 203.84 263.703 204.344 264.063 204.68C264.423 205.008 264.959 205.172 265.671 205.172C266.151 205.172 266.563 205.104 266.907 204.968C267.251 204.832 267.539 204.684 267.771 204.524V205.472ZM265.299 200.588C264.843 200.588 264.451 200.728 264.123 201.008C263.795 201.288 263.587 201.712 263.499 202.28H266.847C266.879 201.704 266.747 201.28 266.451 201.008C266.155 200.728 265.771 200.588 265.299 200.588ZM271.866 206.12C271.386 206.12 270.95 206.048 270.558 205.904C270.174 205.752 269.846 205.54 269.574 205.268C269.302 204.988 269.094 204.648 268.95 204.248C268.806 203.848 268.734 203.392 268.734 202.88C268.734 202.376 268.806 201.924 268.95 201.524C269.102 201.124 269.314 200.788 269.586 200.516C269.858 200.236 270.19 200.024 270.582 199.88C270.974 199.728 271.418 199.652 271.914 199.652C272.298 199.652 272.65 199.696 272.97 199.784C273.29 199.864 273.554 199.984 273.762 200.144V201.092C273.506 200.924 273.218 200.8 272.898 200.72C272.586 200.632 272.262 200.588 271.926 200.588C271.198 200.588 270.662 200.776 270.318 201.152C269.982 201.528 269.814 202.104 269.814 202.88C269.814 203.656 269.978 204.232 270.306 204.608C270.634 204.984 271.154 205.172 271.866 205.172C272.242 205.172 272.586 205.128 272.898 205.04C273.218 204.944 273.506 204.824 273.762 204.68V205.628C273.538 205.764 273.266 205.88 272.946 205.976C272.634 206.072 272.274 206.12 271.866 206.12Z" fill="#262626"/>
<path d="M76.1638 206.12C75.5238 206.12 74.9438 206.02 74.4238 205.82C73.9038 205.62 73.4558 205.332 73.0798 204.956C72.7118 204.572 72.4278 204.108 72.2278 203.564C72.0278 203.012 71.9278 202.392 71.9278 201.704C71.9278 201.008 72.0198 200.388 72.2038 199.844C72.3878 199.3 72.6598 198.84 73.0198 198.464C73.3798 198.08 73.8198 197.788 74.3398 197.588C74.8678 197.388 75.4678 197.288 76.1398 197.288C76.7238 197.288 77.2358 197.352 77.6758 197.48C78.1158 197.6 78.4758 197.744 78.7558 197.912V198.992C78.3958 198.76 77.9798 198.588 77.5078 198.476C77.0438 198.364 76.5838 198.308 76.1278 198.308C75.1118 198.308 74.3598 198.592 73.8718 199.16C73.3918 199.72 73.1518 200.568 73.1518 201.704C73.1518 202.848 73.4118 203.7 73.9318 204.26C74.4598 204.82 75.2358 205.1 76.2598 205.1C76.6998 205.1 77.1278 205.04 77.5438 204.92C77.9678 204.8 78.3718 204.596 78.7558 204.308V205.388C78.5238 205.572 78.1838 205.74 77.7358 205.892C77.2958 206.044 76.7718 206.12 76.1638 206.12ZM82.7294 200.672V206H81.6734V200.672H79.7174V199.772H84.7214V200.672H82.7294ZM89.4124 204.812C89.3404 204.956 89.2484 205.108 89.1364 205.268C89.0244 205.42 88.8844 205.56 88.7164 205.688C88.5484 205.816 88.3484 205.92 88.1164 206C87.8924 206.08 87.6284 206.12 87.3244 206.12C86.7644 206.12 86.3124 205.964 85.9684 205.652C85.6244 205.332 85.4524 204.876 85.4524 204.284C85.4524 203.604 85.6884 203.104 86.1604 202.784C86.6404 202.464 87.3204 202.304 88.2004 202.304H89.3644V201.788C89.3644 201.356 89.2524 201.048 89.0284 200.864C88.8044 200.68 88.4204 200.588 87.8764 200.588C87.4924 200.588 87.1284 200.652 86.7844 200.78C86.4404 200.9 86.1324 201.04 85.8604 201.2V200.252C86.0844 200.116 86.3844 199.984 86.7604 199.856C87.1444 199.72 87.5644 199.652 88.0204 199.652C88.8044 199.652 89.4004 199.816 89.8084 200.144C90.2164 200.464 90.4204 200.964 90.4204 201.644V204.992C90.4204 205.064 90.4204 205.148 90.4204 205.244C90.4284 205.332 90.4324 205.424 90.4324 205.52C90.4404 205.616 90.4484 205.708 90.4564 205.796C90.4644 205.876 90.4724 205.944 90.4804 206H89.5204C89.4964 205.888 89.4724 205.732 89.4484 205.532C89.4324 205.324 89.4244 205.144 89.4244 204.992L89.4124 204.812ZM87.5524 205.172C87.8804 205.172 88.1604 205.104 88.3924 204.968C88.6244 204.832 88.8124 204.676 88.9564 204.5C89.1004 204.316 89.2044 204.14 89.2684 203.972C89.3324 203.796 89.3644 203.672 89.3644 203.6V203.144H88.3084C87.6764 203.144 87.2164 203.236 86.9284 203.42C86.6484 203.596 86.5084 203.864 86.5084 204.224C86.5084 204.504 86.5924 204.732 86.7604 204.908C86.9284 205.084 87.1924 205.172 87.5524 205.172ZM95.2128 206.12C94.7328 206.12 94.3168 206.008 93.9648 205.784C93.6208 205.56 93.3448 205.252 93.1368 204.86V208.124H92.0808V199.772H93.0048L93.1128 200.984C93.3208 200.576 93.6008 200.252 93.9528 200.012C94.3048 199.772 94.7408 199.652 95.2608 199.652C95.6208 199.652 95.9648 199.72 96.2928 199.856C96.6288 199.984 96.9208 200.184 97.1688 200.456C97.4248 200.72 97.6248 201.056 97.7688 201.464C97.9208 201.864 97.9968 202.336 97.9968 202.88C97.9968 203.432 97.9208 203.912 97.7688 204.32C97.6168 204.72 97.4128 205.056 97.1568 205.328C96.9008 205.592 96.6048 205.792 96.2688 205.928C95.9328 206.056 95.5808 206.12 95.2128 206.12ZM95.0568 205.172C95.6088 205.172 96.0528 204.984 96.3888 204.608C96.7328 204.224 96.9048 203.648 96.9048 202.88C96.9048 202.128 96.7328 201.56 96.3888 201.176C96.0528 200.784 95.6088 200.588 95.0568 200.588C94.7848 200.588 94.5288 200.636 94.2888 200.732C94.0568 200.828 93.8528 200.972 93.6768 201.164C93.5088 201.348 93.3728 201.584 93.2688 201.872C93.1728 202.16 93.1248 202.496 93.1248 202.88C93.1248 203.264 93.1728 203.6 93.2688 203.888C93.3728 204.176 93.5088 204.416 93.6768 204.608C93.8528 204.8 94.0568 204.944 94.2888 205.04C94.5288 205.128 94.7848 205.172 95.0568 205.172ZM103.884 203.924C103.884 204.284 103.82 204.596 103.692 204.86C103.564 205.124 103.384 205.34 103.152 205.508C102.92 205.676 102.644 205.8 102.324 205.88C102.004 205.96 101.656 206 101.28 206H99.2761V199.772H100.332V201.944H101.352C102.144 201.944 102.764 202.1 103.212 202.412C103.66 202.724 103.884 203.228 103.884 203.924ZM105.84 206H104.784V199.772H105.84V206ZM100.332 202.844V205.1H101.28C101.736 205.1 102.104 205.016 102.384 204.848C102.672 204.672 102.816 204.384 102.816 203.984C102.816 203.576 102.688 203.284 102.432 203.108C102.176 202.932 101.816 202.844 101.352 202.844H100.332ZM110.321 198.944C110.001 198.944 109.721 198.904 109.481 198.824C109.249 198.736 109.053 198.62 108.893 198.476C108.741 198.324 108.625 198.152 108.545 197.96C108.473 197.76 108.437 197.544 108.437 197.312H109.493C109.493 197.616 109.565 197.836 109.709 197.972C109.861 198.108 110.065 198.176 110.321 198.176C110.577 198.176 110.777 198.108 110.921 197.972C111.065 197.836 111.137 197.616 111.137 197.312H112.193C112.193 197.768 112.037 198.156 111.725 198.476C111.421 198.788 110.953 198.944 110.321 198.944ZM108.629 204.56L111.953 199.772H113.021V206H111.965V201.224L108.653 206H107.573V199.772H108.629V204.56ZM121.798 204.188C121.798 204.54 121.726 204.84 121.582 205.088C121.446 205.328 121.258 205.528 121.018 205.688C120.778 205.84 120.498 205.948 120.178 206.012C119.866 206.084 119.538 206.12 119.194 206.12C118.738 206.12 118.334 206.072 117.982 205.976C117.638 205.88 117.366 205.764 117.166 205.628V204.68C117.414 204.832 117.71 204.952 118.054 205.04C118.398 205.128 118.77 205.172 119.17 205.172C119.626 205.172 120.006 205.1 120.31 204.956C120.622 204.804 120.778 204.548 120.778 204.188C120.778 203.836 120.646 203.588 120.382 203.444C120.126 203.3 119.73 203.228 119.194 203.228H118.366V202.376H119.23C119.67 202.376 120.006 202.296 120.238 202.136C120.47 201.976 120.586 201.744 120.586 201.44C120.586 201.28 120.546 201.148 120.466 201.044C120.394 200.932 120.294 200.844 120.166 200.78C120.038 200.708 119.886 200.66 119.71 200.636C119.542 200.604 119.362 200.588 119.17 200.588C118.802 200.588 118.458 200.632 118.138 200.72C117.826 200.808 117.542 200.932 117.286 201.092V200.144C117.494 200.008 117.762 199.892 118.09 199.796C118.426 199.7 118.814 199.652 119.254 199.652C120.014 199.652 120.586 199.796 120.97 200.084C121.362 200.372 121.558 200.788 121.558 201.332C121.558 201.74 121.446 202.06 121.222 202.292C121.006 202.524 120.698 202.684 120.298 202.772C120.794 202.836 121.166 202.992 121.414 203.24C121.67 203.488 121.798 203.804 121.798 204.188ZM126.994 204.812C126.922 204.956 126.83 205.108 126.718 205.268C126.606 205.42 126.466 205.56 126.298 205.688C126.13 205.816 125.93 205.92 125.698 206C125.474 206.08 125.21 206.12 124.906 206.12C124.346 206.12 123.894 205.964 123.55 205.652C123.206 205.332 123.034 204.876 123.034 204.284C123.034 203.604 123.27 203.104 123.742 202.784C124.222 202.464 124.902 202.304 125.782 202.304H126.946V201.788C126.946 201.356 126.834 201.048 126.61 200.864C126.386 200.68 126.002 200.588 125.458 200.588C125.074 200.588 124.71 200.652 124.366 200.78C124.022 200.9 123.714 201.04 123.442 201.2V200.252C123.666 200.116 123.966 199.984 124.342 199.856C124.726 199.72 125.146 199.652 125.602 199.652C126.386 199.652 126.982 199.816 127.39 200.144C127.798 200.464 128.002 200.964 128.002 201.644V204.992C128.002 205.064 128.002 205.148 128.002 205.244C128.01 205.332 128.014 205.424 128.014 205.52C128.022 205.616 128.03 205.708 128.038 205.796C128.046 205.876 128.054 205.944 128.062 206H127.102C127.078 205.888 127.054 205.732 127.03 205.532C127.014 205.324 127.006 205.144 127.006 204.992L126.994 204.812ZM125.134 205.172C125.462 205.172 125.742 205.104 125.974 204.968C126.206 204.832 126.394 204.676 126.538 204.5C126.682 204.316 126.786 204.14 126.85 203.972C126.914 203.796 126.946 203.672 126.946 203.6V203.144H125.89C125.258 203.144 124.798 203.236 124.51 203.42C124.23 203.596 124.09 203.864 124.09 204.224C124.09 204.504 124.174 204.732 124.342 204.908C124.51 205.084 124.774 205.172 125.134 205.172ZM129.663 199.772H133.623V200.672H130.719V206H129.663V199.772ZM137.281 206.12C136.857 206.12 136.461 206.048 136.093 205.904C135.725 205.76 135.405 205.552 135.133 205.28C134.869 205 134.661 204.66 134.509 204.26C134.357 203.86 134.281 203.4 134.281 202.88C134.281 202.368 134.357 201.912 134.509 201.512C134.661 201.104 134.869 200.764 135.133 200.492C135.405 200.22 135.725 200.012 136.093 199.868C136.461 199.724 136.857 199.652 137.281 199.652C137.713 199.652 138.113 199.724 138.481 199.868C138.849 200.012 139.165 200.22 139.429 200.492C139.701 200.764 139.913 201.104 140.065 201.512C140.225 201.912 140.305 202.368 140.305 202.88C140.305 203.4 140.225 203.86 140.065 204.26C139.913 204.66 139.701 205 139.429 205.28C139.165 205.552 138.849 205.76 138.481 205.904C138.113 206.048 137.713 206.12 137.281 206.12ZM137.281 205.172C137.561 205.172 137.817 205.128 138.049 205.04C138.289 204.944 138.497 204.804 138.673 204.62C138.849 204.428 138.985 204.188 139.081 203.9C139.177 203.612 139.225 203.272 139.225 202.88C139.225 202.488 139.177 202.148 139.081 201.86C138.985 201.572 138.849 201.336 138.673 201.152C138.497 200.96 138.289 200.82 138.049 200.732C137.817 200.636 137.561 200.588 137.281 200.588C137.001 200.588 136.745 200.636 136.513 200.732C136.281 200.82 136.077 200.96 135.901 201.152C135.733 201.336 135.601 201.572 135.505 201.86C135.409 202.148 135.361 202.488 135.361 202.88C135.361 203.272 135.409 203.612 135.505 203.9C135.601 204.188 135.733 204.428 135.901 204.62C136.077 204.804 136.281 204.944 136.513 205.04C136.745 205.128 137.001 205.172 137.281 205.172ZM141.897 204.068C142.009 203.66 142.081 203.108 142.113 202.412C142.145 201.716 142.161 200.836 142.161 199.772H146.349V206H145.281V200.672H143.157C143.149 201.528 143.121 202.288 143.073 202.952C143.033 203.616 142.941 204.176 142.797 204.632C142.661 205.088 142.457 205.436 142.185 205.676C141.921 205.908 141.565 206.024 141.117 206.024C141.085 206.024 141.053 206.024 141.021 206.024C140.989 206.024 140.953 206.02 140.913 206.012V204.968C140.953 204.976 141.005 204.98 141.069 204.98C141.477 204.98 141.753 204.676 141.897 204.068ZM150.617 206.12C150.193 206.12 149.797 206.048 149.429 205.904C149.061 205.76 148.741 205.552 148.469 205.28C148.205 205 147.997 204.66 147.845 204.26C147.693 203.86 147.617 203.4 147.617 202.88C147.617 202.368 147.693 201.912 147.845 201.512C147.997 201.104 148.205 200.764 148.469 200.492C148.741 200.22 149.061 200.012 149.429 199.868C149.797 199.724 150.193 199.652 150.617 199.652C151.049 199.652 151.449 199.724 151.817 199.868C152.185 200.012 152.501 200.22 152.765 200.492C153.037 200.764 153.249 201.104 153.401 201.512C153.561 201.912 153.641 202.368 153.641 202.88C153.641 203.4 153.561 203.86 153.401 204.26C153.249 204.66 153.037 205 152.765 205.28C152.501 205.552 152.185 205.76 151.817 205.904C151.449 206.048 151.049 206.12 150.617 206.12ZM150.617 205.172C150.897 205.172 151.153 205.128 151.385 205.04C151.625 204.944 151.833 204.804 152.009 204.62C152.185 204.428 152.321 204.188 152.417 203.9C152.513 203.612 152.561 203.272 152.561 202.88C152.561 202.488 152.513 202.148 152.417 201.86C152.321 201.572 152.185 201.336 152.009 201.152C151.833 200.96 151.625 200.82 151.385 200.732C151.153 200.636 150.897 200.588 150.617 200.588C150.337 200.588 150.081 200.636 149.849 200.732C149.617 200.82 149.413 200.96 149.237 201.152C149.069 201.336 148.937 201.572 148.841 201.86C148.745 202.148 148.697 202.488 148.697 202.88C148.697 203.272 148.745 203.612 148.841 203.9C148.937 204.188 149.069 204.428 149.237 204.62C149.413 204.804 149.617 204.944 149.849 205.04C150.081 205.128 150.337 205.172 150.617 205.172ZM154.928 199.772H157.256C158.008 199.772 158.576 199.904 158.96 200.168C159.344 200.424 159.536 200.828 159.536 201.38C159.536 201.748 159.44 202.044 159.248 202.268C159.064 202.484 158.8 202.64 158.456 202.736C159.344 202.88 159.788 203.372 159.788 204.212C159.788 204.532 159.724 204.808 159.596 205.04C159.468 205.264 159.292 205.448 159.068 205.592C158.844 205.736 158.572 205.84 158.252 205.904C157.94 205.968 157.6 206 157.232 206H154.928V199.772ZM155.984 200.672V202.364H157.16C157.56 202.364 157.88 202.292 158.12 202.148C158.368 202.004 158.492 201.796 158.492 201.524C158.492 201.196 158.384 200.972 158.168 200.852C157.952 200.732 157.644 200.672 157.244 200.672H155.984ZM155.984 203.204V205.1H157.22C157.444 205.1 157.644 205.088 157.82 205.064C158.004 205.032 158.16 204.98 158.288 204.908C158.424 204.836 158.528 204.74 158.6 204.62C158.672 204.5 158.708 204.352 158.708 204.176C158.708 203.816 158.584 203.564 158.336 203.42C158.088 203.276 157.716 203.204 157.22 203.204H155.984ZM163.93 206.12C163.506 206.12 163.11 206.048 162.742 205.904C162.374 205.76 162.054 205.552 161.782 205.28C161.518 205 161.31 204.66 161.158 204.26C161.006 203.86 160.93 203.4 160.93 202.88C160.93 202.368 161.006 201.912 161.158 201.512C161.31 201.104 161.518 200.764 161.782 200.492C162.054 200.22 162.374 200.012 162.742 199.868C163.11 199.724 163.506 199.652 163.93 199.652C164.362 199.652 164.762 199.724 165.13 199.868C165.498 200.012 165.814 200.22 166.078 200.492C166.35 200.764 166.562 201.104 166.714 201.512C166.874 201.912 166.954 202.368 166.954 202.88C166.954 203.4 166.874 203.86 166.714 204.26C166.562 204.66 166.35 205 166.078 205.28C165.814 205.552 165.498 205.76 165.13 205.904C164.762 206.048 164.362 206.12 163.93 206.12ZM163.93 205.172C164.21 205.172 164.466 205.128 164.698 205.04C164.938 204.944 165.146 204.804 165.322 204.62C165.498 204.428 165.634 204.188 165.73 203.9C165.826 203.612 165.874 203.272 165.874 202.88C165.874 202.488 165.826 202.148 165.73 201.86C165.634 201.572 165.498 201.336 165.322 201.152C165.146 200.96 164.938 200.82 164.698 200.732C164.466 200.636 164.21 200.588 163.93 200.588C163.65 200.588 163.394 200.636 163.162 200.732C162.93 200.82 162.726 200.96 162.55 201.152C162.382 201.336 162.25 201.572 162.154 201.86C162.058 202.148 162.01 202.488 162.01 202.88C162.01 203.272 162.058 203.612 162.154 203.9C162.25 204.188 162.382 204.428 162.55 204.62C162.726 204.804 162.93 204.944 163.162 205.04C163.394 205.128 163.65 205.172 163.93 205.172ZM169.849 203.348H169.297V206H168.241V199.772H169.297V202.448H169.897L172.081 199.772H173.281L170.725 202.844L173.329 206H172.045L169.849 203.348Z" fill="#262626"/>
<rect x="343" y="172" width="126" height="60" rx="10" fill="#D6E1FF"/>
<path d="M353.647 197.396H360.115V206H358.975V198.428H354.775V206H353.647V197.396ZM364.531 206.12C364.107 206.12 363.711 206.048 363.343 205.904C362.975 205.76 362.655 205.552 362.383 205.28C362.119 205 361.911 204.66 361.759 204.26C361.607 203.86 361.531 203.4 361.531 202.88C361.531 202.368 361.607 201.912 361.759 201.512C361.911 201.104 362.119 200.764 362.383 200.492C362.655 200.22 362.975 200.012 363.343 199.868C363.711 199.724 364.107 199.652 364.531 199.652C364.963 199.652 365.363 199.724 365.731 199.868C366.099 200.012 366.415 200.22 366.679 200.492C366.951 200.764 367.163 201.104 367.315 201.512C367.475 201.912 367.555 202.368 367.555 202.88C367.555 203.4 367.475 203.86 367.315 204.26C367.163 204.66 366.951 205 366.679 205.28C366.415 205.552 366.099 205.76 365.731 205.904C365.363 206.048 364.963 206.12 364.531 206.12ZM364.531 205.172C364.811 205.172 365.067 205.128 365.299 205.04C365.539 204.944 365.747 204.804 365.923 204.62C366.099 204.428 366.235 204.188 366.331 203.9C366.427 203.612 366.475 203.272 366.475 202.88C366.475 202.488 366.427 202.148 366.331 201.86C366.235 201.572 366.099 201.336 365.923 201.152C365.747 200.96 365.539 200.82 365.299 200.732C365.067 200.636 364.811 200.588 364.531 200.588C364.251 200.588 363.995 200.636 363.763 200.732C363.531 200.82 363.327 200.96 363.151 201.152C362.983 201.336 362.851 201.572 362.755 201.86C362.659 202.148 362.611 202.488 362.611 202.88C362.611 203.272 362.659 203.612 362.755 203.9C362.851 204.188 362.983 204.428 363.151 204.62C363.327 204.804 363.531 204.944 363.763 205.04C363.995 205.128 364.251 205.172 364.531 205.172ZM369.147 204.068C369.259 203.66 369.331 203.108 369.363 202.412C369.395 201.716 369.411 200.836 369.411 199.772H373.599V206H372.531V200.672H370.407C370.399 201.528 370.371 202.288 370.323 202.952C370.283 203.616 370.191 204.176 370.047 204.632C369.911 205.088 369.707 205.436 369.435 205.676C369.171 205.908 368.815 206.024 368.367 206.024C368.335 206.024 368.303 206.024 368.271 206.024C368.239 206.024 368.203 206.02 368.163 206.012V204.968C368.203 204.976 368.255 204.98 368.319 204.98C368.727 204.98 369.003 204.676 369.147 204.068ZM380.267 205.472C380.179 205.536 380.071 205.604 379.943 205.676C379.815 205.748 379.659 205.82 379.475 205.892C379.291 205.956 379.083 206.008 378.851 206.048C378.619 206.096 378.359 206.12 378.071 206.12C377.023 206.12 376.227 205.836 375.683 205.268C375.139 204.7 374.867 203.904 374.867 202.88C374.867 202.376 374.939 201.924 375.083 201.524C375.235 201.124 375.443 200.788 375.707 200.516C375.971 200.236 376.283 200.024 376.643 199.88C377.003 199.728 377.395 199.652 377.819 199.652C378.267 199.652 378.667 199.728 379.019 199.88C379.371 200.032 379.659 200.256 379.883 200.552C380.115 200.848 380.271 201.216 380.351 201.656C380.439 202.088 380.439 202.592 380.351 203.168H375.959C375.999 203.84 376.199 204.344 376.559 204.68C376.919 205.008 377.455 205.172 378.167 205.172C378.647 205.172 379.059 205.104 379.403 204.968C379.747 204.832 380.035 204.684 380.267 204.524V205.472ZM377.795 200.588C377.339 200.588 376.947 200.728 376.619 201.008C376.291 201.288 376.083 201.712 375.995 202.28H379.343C379.375 201.704 379.243 201.28 378.947 201.008C378.651 200.728 378.267 200.588 377.795 200.588ZM386.184 204.188C386.184 204.54 386.112 204.84 385.968 205.088C385.832 205.328 385.644 205.528 385.404 205.688C385.164 205.84 384.884 205.948 384.564 206.012C384.252 206.084 383.924 206.12 383.58 206.12C383.124 206.12 382.72 206.072 382.368 205.976C382.024 205.88 381.752 205.764 381.552 205.628V204.68C381.8 204.832 382.096 204.952 382.44 205.04C382.784 205.128 383.156 205.172 383.556 205.172C384.012 205.172 384.392 205.1 384.696 204.956C385.008 204.804 385.164 204.548 385.164 204.188C385.164 203.836 385.032 203.588 384.768 203.444C384.512 203.3 384.116 203.228 383.58 203.228H382.752V202.376H383.616C384.056 202.376 384.392 202.296 384.624 202.136C384.856 201.976 384.972 201.744 384.972 201.44C384.972 201.28 384.932 201.148 384.852 201.044C384.78 200.932 384.68 200.844 384.552 200.78C384.424 200.708 384.272 200.66 384.096 200.636C383.928 200.604 383.748 200.588 383.556 200.588C383.188 200.588 382.844 200.632 382.524 200.72C382.212 200.808 381.928 200.932 381.672 201.092V200.144C381.88 200.008 382.148 199.892 382.476 199.796C382.812 199.7 383.2 199.652 383.64 199.652C384.4 199.652 384.972 199.796 385.356 200.084C385.748 200.372 385.944 200.788 385.944 201.332C385.944 201.74 385.832 202.06 385.608 202.292C385.392 202.524 385.084 202.684 384.684 202.772C385.18 202.836 385.552 202.992 385.8 203.24C386.056 203.488 386.184 203.804 386.184 204.188ZM391.801 203.24H388.789V206H387.733V199.772H388.789V202.34H391.801V199.772H392.857V206H391.801V203.24ZM398.237 204.812C398.165 204.956 398.073 205.108 397.961 205.268C397.849 205.42 397.709 205.56 397.541 205.688C397.373 205.816 397.173 205.92 396.941 206C396.717 206.08 396.453 206.12 396.149 206.12C395.589 206.12 395.137 205.964 394.793 205.652C394.449 205.332 394.277 204.876 394.277 204.284C394.277 203.604 394.513 203.104 394.985 202.784C395.465 202.464 396.145 202.304 397.025 202.304H398.189V201.788C398.189 201.356 398.077 201.048 397.853 200.864C397.629 200.68 397.245 200.588 396.701 200.588C396.317 200.588 395.953 200.652 395.609 200.78C395.265 200.9 394.957 201.04 394.685 201.2V200.252C394.909 200.116 395.209 199.984 395.585 199.856C395.969 199.72 396.389 199.652 396.845 199.652C397.629 199.652 398.225 199.816 398.633 200.144C399.041 200.464 399.245 200.964 399.245 201.644V204.992C399.245 205.064 399.245 205.148 399.245 205.244C399.253 205.332 399.257 205.424 399.257 205.52C399.265 205.616 399.273 205.708 399.281 205.796C399.289 205.876 399.297 205.944 399.305 206H398.345C398.321 205.888 398.297 205.732 398.273 205.532C398.257 205.324 398.249 205.144 398.249 204.992L398.237 204.812ZM396.377 205.172C396.705 205.172 396.985 205.104 397.217 204.968C397.449 204.832 397.637 204.676 397.781 204.5C397.925 204.316 398.029 204.14 398.093 203.972C398.157 203.796 398.189 203.672 398.189 203.6V203.144H397.133C396.501 203.144 396.041 203.236 395.753 203.42C395.473 203.596 395.333 203.864 395.333 204.224C395.333 204.504 395.417 204.732 395.585 204.908C395.753 205.084 396.017 205.172 396.377 205.172ZM400.905 201.788C400.905 201.436 400.969 201.136 401.097 200.888C401.225 200.632 401.405 200.424 401.637 200.264C401.869 200.096 402.145 199.972 402.465 199.892C402.785 199.812 403.133 199.772 403.509 199.772H405.513V206H404.457V203.744H403.317L401.721 206H400.461L402.261 203.48C401.829 203.352 401.493 203.156 401.253 202.892C401.021 202.628 400.905 202.26 400.905 201.788ZM404.457 202.844V200.672H403.509C403.061 200.672 402.693 200.756 402.405 200.924C402.117 201.092 401.973 201.364 401.973 201.74C401.973 202.132 402.101 202.416 402.357 202.592C402.613 202.76 402.977 202.844 403.449 202.844H404.457ZM413.95 203.24H410.938V206H409.882V199.772H410.938V202.34H413.95V199.772H415.006V206H413.95V203.24ZM420.385 204.812C420.313 204.956 420.221 205.108 420.109 205.268C419.997 205.42 419.857 205.56 419.689 205.688C419.521 205.816 419.321 205.92 419.089 206C418.865 206.08 418.601 206.12 418.297 206.12C417.737 206.12 417.285 205.964 416.941 205.652C416.597 205.332 416.425 204.876 416.425 204.284C416.425 203.604 416.661 203.104 417.133 202.784C417.613 202.464 418.293 202.304 419.173 202.304H420.337V201.788C420.337 201.356 420.225 201.048 420.001 200.864C419.777 200.68 419.393 200.588 418.849 200.588C418.465 200.588 418.101 200.652 417.757 200.78C417.413 200.9 417.105 201.04 416.833 201.2V200.252C417.057 200.116 417.357 199.984 417.733 199.856C418.117 199.72 418.537 199.652 418.993 199.652C419.777 199.652 420.373 199.816 420.781 200.144C421.189 200.464 421.393 200.964 421.393 201.644V204.992C421.393 205.064 421.393 205.148 421.393 205.244C421.401 205.332 421.405 205.424 421.405 205.52C421.413 205.616 421.421 205.708 421.429 205.796C421.437 205.876 421.445 205.944 421.453 206H420.493C420.469 205.888 420.445 205.732 420.421 205.532C420.405 205.324 420.397 205.144 420.397 204.992L420.385 204.812ZM418.525 205.172C418.853 205.172 419.133 205.104 419.365 204.968C419.597 204.832 419.785 204.676 419.929 204.5C420.073 204.316 420.177 204.14 420.241 203.972C420.305 203.796 420.337 203.672 420.337 203.6V203.144H419.281C418.649 203.144 418.189 203.236 417.901 203.42C417.621 203.596 417.481 203.864 417.481 204.224C417.481 204.504 417.565 204.732 417.733 204.908C417.901 205.084 418.165 205.172 418.525 205.172ZM423.053 199.772H427.013V200.672H424.109V206H423.053V199.772ZM431.424 206.12C430.944 206.12 430.528 206.008 430.176 205.784C429.832 205.56 429.556 205.252 429.348 204.86V208.124H428.292V199.772H429.216L429.324 200.984C429.532 200.576 429.812 200.252 430.164 200.012C430.516 199.772 430.952 199.652 431.472 199.652C431.832 199.652 432.176 199.72 432.504 199.856C432.84 199.984 433.132 200.184 433.38 200.456C433.636 200.72 433.836 201.056 433.98 201.464C434.132 201.864 434.208 202.336 434.208 202.88C434.208 203.432 434.132 203.912 433.98 204.32C433.828 204.72 433.624 205.056 433.368 205.328C433.112 205.592 432.816 205.792 432.48 205.928C432.144 206.056 431.792 206.12 431.424 206.12ZM431.268 205.172C431.82 205.172 432.264 204.984 432.6 204.608C432.944 204.224 433.116 203.648 433.116 202.88C433.116 202.128 432.944 201.56 432.6 201.176C432.264 200.784 431.82 200.588 431.268 200.588C430.996 200.588 430.74 200.636 430.5 200.732C430.268 200.828 430.064 200.972 429.888 201.164C429.72 201.348 429.584 201.584 429.48 201.872C429.384 202.16 429.336 202.496 429.336 202.88C429.336 203.264 429.384 203.6 429.48 203.888C429.584 204.176 429.72 204.416 429.888 204.608C430.064 204.8 430.268 204.944 430.5 205.04C430.74 205.128 430.996 205.172 431.268 205.172ZM438.488 205.928C438.344 206.304 438.192 206.632 438.032 206.912C437.872 207.2 437.692 207.444 437.492 207.644C437.292 207.844 437.068 207.992 436.82 208.088C436.572 208.192 436.288 208.244 435.968 208.244C435.808 208.244 435.66 208.232 435.524 208.208C435.388 208.192 435.264 208.16 435.152 208.112V207.092C435.24 207.156 435.352 207.204 435.488 207.236C435.624 207.276 435.772 207.296 435.932 207.296C436.228 207.296 436.472 207.224 436.664 207.08C436.856 206.944 437.04 206.724 437.216 206.42L434.684 199.772H435.848L437.828 205.028L439.796 199.772H440.816L438.488 205.928ZM446.278 204.188C446.278 204.54 446.206 204.84 446.062 205.088C445.926 205.328 445.738 205.528 445.498 205.688C445.258 205.84 444.978 205.948 444.658 206.012C444.346 206.084 444.018 206.12 443.674 206.12C443.218 206.12 442.814 206.072 442.462 205.976C442.118 205.88 441.846 205.764 441.646 205.628V204.68C441.894 204.832 442.19 204.952 442.534 205.04C442.878 205.128 443.25 205.172 443.65 205.172C444.106 205.172 444.486 205.1 444.79 204.956C445.102 204.804 445.258 204.548 445.258 204.188C445.258 203.836 445.126 203.588 444.862 203.444C444.606 203.3 444.21 203.228 443.674 203.228H442.846V202.376H443.71C444.15 202.376 444.486 202.296 444.718 202.136C444.95 201.976 445.066 201.744 445.066 201.44C445.066 201.28 445.026 201.148 444.946 201.044C444.874 200.932 444.774 200.844 444.646 200.78C444.518 200.708 444.366 200.66 444.19 200.636C444.022 200.604 443.842 200.588 443.65 200.588C443.282 200.588 442.938 200.632 442.618 200.72C442.306 200.808 442.022 200.932 441.766 201.092V200.144C441.974 200.008 442.242 199.892 442.57 199.796C442.906 199.7 443.294 199.652 443.734 199.652C444.494 199.652 445.066 199.796 445.45 200.084C445.842 200.372 446.038 200.788 446.038 201.332C446.038 201.74 445.926 202.06 445.702 202.292C445.486 202.524 445.178 202.684 444.778 202.772C445.274 202.836 445.646 202.992 445.894 203.24C446.15 203.488 446.278 203.804 446.278 204.188ZM449.435 203.348H448.883V206H447.827V199.772H448.883V202.448H449.483L451.667 199.772H452.867L450.311 202.844L452.915 206H451.631L449.435 203.348ZM457.557 204.812C457.485 204.956 457.393 205.108 457.281 205.268C457.169 205.42 457.029 205.56 456.861 205.688C456.693 205.816 456.493 205.92 456.261 206C456.037 206.08 455.773 206.12 455.469 206.12C454.909 206.12 454.457 205.964 454.113 205.652C453.769 205.332 453.597 204.876 453.597 204.284C453.597 203.604 453.833 203.104 454.305 202.784C454.785 202.464 455.465 202.304 456.345 202.304H457.509V201.788C457.509 201.356 457.397 201.048 457.173 200.864C456.949 200.68 456.565 200.588 456.021 200.588C455.637 200.588 455.273 200.652 454.929 200.78C454.585 200.9 454.277 201.04 454.005 201.2V200.252C454.229 200.116 454.529 199.984 454.905 199.856C455.289 199.72 455.709 199.652 456.165 199.652C456.949 199.652 457.545 199.816 457.953 200.144C458.361 200.464 458.565 200.964 458.565 201.644V204.992C458.565 205.064 458.565 205.148 458.565 205.244C458.573 205.332 458.577 205.424 458.577 205.52C458.585 205.616 458.593 205.708 458.601 205.796C458.609 205.876 458.617 205.944 458.625 206H457.665C457.641 205.888 457.617 205.732 457.593 205.532C457.577 205.324 457.569 205.144 457.569 204.992L457.557 204.812ZM455.697 205.172C456.025 205.172 456.305 205.104 456.537 204.968C456.769 204.832 456.957 204.676 457.101 204.5C457.245 204.316 457.349 204.14 457.413 203.972C457.477 203.796 457.509 203.672 457.509 203.6V203.144H456.453C455.821 203.144 455.361 203.236 455.073 203.42C454.793 203.596 454.653 203.864 454.653 204.224C454.653 204.504 454.737 204.732 454.905 204.908C455.073 205.084 455.337 205.172 455.697 205.172Z" fill="#262626"/>
<rect x="506" y="172" width="126" height="60" rx="10" fill="#D6E1FF"/>
<path d="M549.369 198.44V206H548.229V198.44H545.577V197.396H552.021V198.44H549.369ZM555.658 206.12C555.178 206.12 554.762 206.008 554.41 205.784C554.066 205.56 553.79 205.252 553.582 204.86V208.124H552.526V199.772H553.45L553.558 200.984C553.766 200.576 554.046 200.252 554.398 200.012C554.75 199.772 555.186 199.652 555.706 199.652C556.066 199.652 556.41 199.72 556.738 199.856C557.074 199.984 557.366 200.184 557.614 200.456C557.87 200.72 558.07 201.056 558.214 201.464C558.366 201.864 558.442 202.336 558.442 202.88C558.442 203.432 558.366 203.912 558.214 204.32C558.062 204.72 557.858 205.056 557.602 205.328C557.346 205.592 557.05 205.792 556.714 205.928C556.378 206.056 556.026 206.12 555.658 206.12ZM555.502 205.172C556.054 205.172 556.498 204.984 556.834 204.608C557.178 204.224 557.35 203.648 557.35 202.88C557.35 202.128 557.178 201.56 556.834 201.176C556.498 200.784 556.054 200.588 555.502 200.588C555.23 200.588 554.974 200.636 554.734 200.732C554.502 200.828 554.298 200.972 554.122 201.164C553.954 201.348 553.818 201.584 553.714 201.872C553.618 202.16 553.57 202.496 553.57 202.88C553.57 203.264 553.618 203.6 553.714 203.888C553.818 204.176 553.954 204.416 554.122 204.608C554.298 204.8 554.502 204.944 554.734 205.04C554.974 205.128 555.23 205.172 555.502 205.172ZM564.677 205.472C564.589 205.536 564.481 205.604 564.353 205.676C564.225 205.748 564.069 205.82 563.885 205.892C563.701 205.956 563.493 206.008 563.261 206.048C563.029 206.096 562.769 206.12 562.481 206.12C561.433 206.12 560.637 205.836 560.093 205.268C559.549 204.7 559.277 203.904 559.277 202.88C559.277 202.376 559.349 201.924 559.493 201.524C559.645 201.124 559.853 200.788 560.117 200.516C560.381 200.236 560.693 200.024 561.053 199.88C561.413 199.728 561.805 199.652 562.229 199.652C562.677 199.652 563.077 199.728 563.429 199.88C563.781 200.032 564.069 200.256 564.293 200.552C564.525 200.848 564.681 201.216 564.761 201.656C564.849 202.088 564.849 202.592 564.761 203.168H560.369C560.409 203.84 560.609 204.344 560.969 204.68C561.329 205.008 561.865 205.172 562.577 205.172C563.057 205.172 563.469 205.104 563.813 204.968C564.157 204.832 564.445 204.684 564.677 204.524V205.472ZM562.205 200.588C561.749 200.588 561.357 200.728 561.029 201.008C560.701 201.288 560.493 201.712 560.405 202.28H563.753C563.785 201.704 563.653 201.28 563.357 201.008C563.061 200.728 562.677 200.588 562.205 200.588ZM568.926 198.944C568.606 198.944 568.326 198.904 568.086 198.824C567.854 198.736 567.658 198.62 567.498 198.476C567.346 198.324 567.23 198.152 567.15 197.96C567.078 197.76 567.042 197.544 567.042 197.312H568.098C568.098 197.616 568.17 197.836 568.314 197.972C568.466 198.108 568.67 198.176 568.926 198.176C569.182 198.176 569.382 198.108 569.526 197.972C569.67 197.836 569.742 197.616 569.742 197.312H570.798C570.798 197.768 570.642 198.156 570.33 198.476C570.026 198.788 569.558 198.944 568.926 198.944ZM567.234 204.56L570.558 199.772H571.626V206H570.57V201.224L567.258 206H566.178V199.772H567.234V204.56ZM573.83 204.068C573.942 203.66 574.014 203.108 574.046 202.412C574.078 201.716 574.094 200.836 574.094 199.772H578.282V206H577.214V200.672H575.09C575.082 201.528 575.054 202.288 575.006 202.952C574.966 203.616 574.874 204.176 574.73 204.632C574.594 205.088 574.39 205.436 574.118 205.676C573.854 205.908 573.498 206.024 573.05 206.024C573.018 206.024 572.986 206.024 572.954 206.024C572.922 206.024 572.886 206.02 572.846 206.012V204.968C572.886 204.976 572.938 204.98 573.002 204.98C573.41 204.98 573.686 204.676 573.83 204.068ZM584.951 205.472C584.863 205.536 584.755 205.604 584.627 205.676C584.499 205.748 584.343 205.82 584.159 205.892C583.975 205.956 583.767 206.008 583.535 206.048C583.303 206.096 583.043 206.12 582.755 206.12C581.707 206.12 580.911 205.836 580.367 205.268C579.823 204.7 579.551 203.904 579.551 202.88C579.551 202.376 579.623 201.924 579.767 201.524C579.919 201.124 580.127 200.788 580.391 200.516C580.655 200.236 580.967 200.024 581.327 199.88C581.687 199.728 582.079 199.652 582.503 199.652C582.951 199.652 583.351 199.728 583.703 199.88C584.055 200.032 584.343 200.256 584.567 200.552C584.799 200.848 584.955 201.216 585.035 201.656C585.123 202.088 585.123 202.592 585.035 203.168H580.643C580.683 203.84 580.883 204.344 581.243 204.68C581.603 205.008 582.139 205.172 582.851 205.172C583.331 205.172 583.743 205.104 584.087 204.968C584.431 204.832 584.719 204.684 584.951 204.524V205.472ZM582.479 200.588C582.023 200.588 581.631 200.728 581.303 201.008C580.975 201.288 580.767 201.712 580.679 202.28H584.027C584.059 201.704 583.927 201.28 583.631 201.008C583.335 200.728 582.951 200.588 582.479 200.588ZM589.584 206.12C589.104 206.12 588.688 206.008 588.336 205.784C587.992 205.56 587.716 205.252 587.508 204.86V208.124H586.452V199.772H587.376L587.484 200.984C587.692 200.576 587.972 200.252 588.324 200.012C588.676 199.772 589.112 199.652 589.632 199.652C589.992 199.652 590.336 199.72 590.664 199.856C591 199.984 591.292 200.184 591.54 200.456C591.796 200.72 591.996 201.056 592.14 201.464C592.292 201.864 592.368 202.336 592.368 202.88C592.368 203.432 592.292 203.912 592.14 204.32C591.988 204.72 591.784 205.056 591.528 205.328C591.272 205.592 590.976 205.792 590.64 205.928C590.304 206.056 589.952 206.12 589.584 206.12ZM589.428 205.172C589.98 205.172 590.424 204.984 590.76 204.608C591.104 204.224 591.276 203.648 591.276 202.88C591.276 202.128 591.104 201.56 590.76 201.176C590.424 200.784 589.98 200.588 589.428 200.588C589.156 200.588 588.9 200.636 588.66 200.732C588.428 200.828 588.224 200.972 588.048 201.164C587.88 201.348 587.744 201.584 587.64 201.872C587.544 202.16 587.496 202.496 587.496 202.88C587.496 203.264 587.544 203.6 587.64 203.888C587.744 204.176 587.88 204.416 588.048 204.608C588.224 204.8 588.428 204.944 588.66 205.04C588.9 205.128 589.156 205.172 589.428 205.172Z" fill="#262626"/>
<defs>
<filter id="filter0_d_3_193" x="18" y="1" width="663" height="318" filterUnits="userSpaceOnUse" color-interpolation-filters="sRGB">
<feFlood flood-opacity="0" result="BackgroundImageFix"/>
<feColorMatrix in="SourceAlpha" type="matrix" values="0 0 0 0 0 0 0 0 0 0 0 0 0 0 0 0 0 0 127 0" result="hardAlpha"/>
<feOffset/>
<feGaussianBlur stdDeviation="5"/>
<feComposite in2="hardAlpha" operator="out"/>
<feColorMatrix type="matrix" values="0 0 0 0 0.321569 0 0 0 0 0.509804 0 0 0 0 1 0 0 0 0.15 0"/>
<feBlend mode="normal" in2="BackgroundImageFix" result="effect1_dropShadow_3_193"/>
<feBlend mode="normal" in="SourceGraphic" in2="effect1_dropShadow_3_193" result="shape"/>
</filter>
</defs>
</svg>
