<svg width="700" height="320" viewBox="0 0 700 320" fill="none" xmlns="http://www.w3.org/2000/svg">
<g filter="url(#filter0_d_3_183)">
<rect x="12" y="13" width="676" height="295" rx="10" fill="white" shape-rendering="crispEdges"/>
<path d="M261.867 39.44V47H260.727V39.44H258.075V38.396H264.519V39.44H261.867ZM268.319 46.928C268.175 47.304 268.023 47.632 267.863 47.912C267.703 48.2 267.523 48.444 267.323 48.644C267.123 48.844 266.899 48.992 266.651 49.088C266.403 49.192 266.119 49.244 265.799 49.244C265.639 49.244 265.491 49.232 265.355 49.208C265.219 49.192 265.095 49.16 264.983 49.112V48.092C265.071 48.156 265.183 48.204 265.319 48.236C265.455 48.276 265.603 48.296 265.763 48.296C266.059 48.296 266.303 48.224 266.495 48.08C266.687 47.944 266.871 47.724 267.047 47.42L264.515 40.772H265.679L267.659 46.028L269.627 40.772H270.647L268.319 46.928ZM275.76 44.24H272.748V47H271.692V40.772H272.748V43.34H275.76V40.772H276.816V47H275.76V44.24ZM282.616 44.24H279.604V47H278.548V40.772H279.604V43.34H282.616V40.772H283.672V47H282.616V44.24ZM290.359 46.472C290.271 46.536 290.163 46.604 290.035 46.676C289.907 46.748 289.751 46.82 289.567 46.892C289.383 46.956 289.175 47.008 288.943 47.048C288.711 47.096 288.451 47.12 288.163 47.12C287.115 47.12 286.319 46.836 285.775 46.268C285.231 45.7 284.959 44.904 284.959 43.88C284.959 43.376 285.031 42.924 285.175 42.524C285.327 42.124 285.535 41.788 285.799 41.516C286.063 41.236 286.375 41.024 286.735 40.88C287.095 40.728 287.487 40.652 287.911 40.652C288.359 40.652 288.759 40.728 289.111 40.88C289.463 41.032 289.751 41.256 289.975 41.552C290.207 41.848 290.363 42.216 290.443 42.656C290.531 43.088 290.531 43.592 290.443 44.168H286.051C286.091 44.84 286.291 45.344 286.651 45.68C287.011 46.008 287.547 46.172 288.259 46.172C288.739 46.172 289.151 46.104 289.495 45.968C289.839 45.832 290.127 45.684 290.359 45.524V46.472ZM287.887 41.588C287.431 41.588 287.039 41.728 286.711 42.008C286.383 42.288 286.175 42.712 286.087 43.28H289.435C289.467 42.704 289.335 42.28 289.039 42.008C288.743 41.728 288.359 41.588 287.887 41.588ZM292.34 45.068C292.452 44.66 292.524 44.108 292.556 43.412C292.588 42.716 292.604 41.836 292.604 40.772H296.792V47H295.724V41.672H293.6C293.592 42.528 293.564 43.288 293.516 43.952C293.476 44.616 293.384 45.176 293.24 45.632C293.104 46.088 292.9 46.436 292.628 46.676C292.364 46.908 292.008 47.024 291.56 47.024C291.528 47.024 291.496 47.024 291.464 47.024C291.432 47.024 291.396 47.02 291.356 47.012V45.968C291.396 45.976 291.448 45.98 291.512 45.98C291.92 45.98 292.196 45.676 292.34 45.068ZM303.137 44.924C303.137 45.284 303.073 45.596 302.945 45.86C302.817 46.124 302.637 46.34 302.405 46.508C302.173 46.676 301.897 46.8 301.577 46.88C301.257 46.96 300.909 47 300.533 47H298.469V40.772H299.525V42.944H300.605C301.397 42.944 302.017 43.1 302.465 43.412C302.913 43.724 303.137 44.228 303.137 44.924ZM299.525 43.844V46.1H300.533C300.989 46.1 301.357 46.016 301.637 45.848C301.925 45.672 302.069 45.384 302.069 44.984C302.069 44.576 301.941 44.284 301.685 44.108C301.429 43.932 301.069 43.844 300.605 43.844H299.525ZM308.549 44.24H305.537V47H304.481V40.772H305.537V43.34H308.549V40.772H309.605V47H308.549V44.24ZM315.945 44.924C315.945 45.284 315.881 45.596 315.753 45.86C315.625 46.124 315.445 46.34 315.213 46.508C314.981 46.676 314.705 46.8 314.385 46.88C314.065 46.96 313.717 47 313.341 47H311.337V40.772H312.393V42.944H313.413C314.205 42.944 314.825 43.1 315.273 43.412C315.721 43.724 315.945 44.228 315.945 44.924ZM317.901 47H316.845V40.772H317.901V47ZM312.393 43.844V46.1H313.341C313.797 46.1 314.165 46.016 314.445 45.848C314.733 45.672 314.877 45.384 314.877 44.984C314.877 44.576 314.749 44.284 314.493 44.108C314.237 43.932 313.877 43.844 313.413 43.844H312.393ZM322.382 39.944C322.062 39.944 321.782 39.904 321.542 39.824C321.31 39.736 321.114 39.62 320.954 39.476C320.802 39.324 320.686 39.152 320.606 38.96C320.534 38.76 320.498 38.544 320.498 38.312H321.554C321.554 38.616 321.626 38.836 321.77 38.972C321.922 39.108 322.126 39.176 322.382 39.176C322.638 39.176 322.838 39.108 322.982 38.972C323.126 38.836 323.198 38.616 323.198 38.312H324.254C324.254 38.768 324.098 39.156 323.786 39.476C323.482 39.788 323.014 39.944 322.382 39.944ZM320.69 45.56L324.014 40.772H325.082V47H324.026V42.224L320.714 47H319.634V40.772H320.69V45.56ZM332.574 47.12C332.094 47.12 331.678 47.008 331.326 46.784C330.982 46.56 330.706 46.252 330.498 45.86V49.124H329.442V40.772H330.366L330.474 41.984C330.682 41.576 330.962 41.252 331.314 41.012C331.666 40.772 332.102 40.652 332.622 40.652C332.982 40.652 333.326 40.72 333.654 40.856C333.99 40.984 334.282 41.184 334.53 41.456C334.786 41.72 334.986 42.056 335.13 42.464C335.282 42.864 335.358 43.336 335.358 43.88C335.358 44.432 335.282 44.912 335.13 45.32C334.978 45.72 334.774 46.056 334.518 46.328C334.262 46.592 333.966 46.792 333.63 46.928C333.294 47.056 332.942 47.12 332.574 47.12ZM332.418 46.172C332.97 46.172 333.414 45.984 333.75 45.608C334.094 45.224 334.266 44.648 334.266 43.88C334.266 43.128 334.094 42.56 333.75 42.176C333.414 41.784 332.97 41.588 332.418 41.588C332.146 41.588 331.89 41.636 331.65 41.732C331.418 41.828 331.214 41.972 331.038 42.164C330.87 42.348 330.734 42.584 330.63 42.872C330.534 43.16 330.486 43.496 330.486 43.88C330.486 44.264 330.534 44.6 330.63 44.888C330.734 45.176 330.87 45.416 331.038 45.608C331.214 45.8 331.418 45.944 331.65 46.04C331.89 46.128 332.146 46.172 332.418 46.172ZM341.593 46.472C341.505 46.536 341.397 46.604 341.269 46.676C341.141 46.748 340.985 46.82 340.801 46.892C340.617 46.956 340.409 47.008 340.177 47.048C339.945 47.096 339.685 47.12 339.397 47.12C338.349 47.12 337.553 46.836 337.009 46.268C336.465 45.7 336.193 44.904 336.193 43.88C336.193 43.376 336.265 42.924 336.409 42.524C336.561 42.124 336.769 41.788 337.033 41.516C337.297 41.236 337.609 41.024 337.969 40.88C338.329 40.728 338.721 40.652 339.145 40.652C339.593 40.652 339.993 40.728 340.345 40.88C340.697 41.032 340.985 41.256 341.209 41.552C341.441 41.848 341.597 42.216 341.677 42.656C341.765 43.088 341.765 43.592 341.677 44.168H337.285C337.325 44.84 337.525 45.344 337.885 45.68C338.245 46.008 338.781 46.172 339.493 46.172C339.973 46.172 340.385 46.104 340.729 45.968C341.073 45.832 341.361 45.684 341.593 45.524V46.472ZM339.121 41.588C338.665 41.588 338.273 41.728 337.945 42.008C337.617 42.288 337.409 42.712 337.321 43.28H340.669C340.701 42.704 340.569 42.28 340.273 42.008C339.977 41.728 339.593 41.588 339.121 41.588ZM347.272 40.772V43.448H347.836L349.816 40.772H350.98L348.664 43.82L351.064 47H349.78L347.788 44.348H347.272V47H346.216V44.348H345.688L343.672 47H342.424L344.824 43.856L342.508 40.772H343.72L345.664 43.448H346.216V40.772H347.272ZM353.233 45.56L356.557 40.772H357.625V47H356.569V42.224L353.257 47H352.177V40.772H353.233V45.56ZM365.288 41.996L363.176 46.304H362.336L360.344 41.972V47H359.348V40.772H360.92L362.828 44.948L364.868 40.772H366.332V47H365.288V41.996ZM378.468 47H370.692V40.772H371.748V46.1H374.052V40.772H375.108V46.1H377.412V40.772H378.468V47ZM381.252 45.56L384.576 40.772H385.644V47H384.588V42.224L381.276 47H380.196V40.772H381.252V45.56ZM394.664 43.88C394.664 44.4 394.576 44.856 394.4 45.248C394.224 45.64 393.984 45.972 393.68 46.244C393.384 46.516 393.032 46.724 392.624 46.868C392.216 47.004 391.784 47.08 391.328 47.096V49.124H390.272V47.096C389.8 47.08 389.36 47 388.952 46.856C388.552 46.712 388.2 46.508 387.896 46.244C387.592 45.972 387.352 45.64 387.176 45.248C387.008 44.856 386.924 44.4 386.924 43.88C386.924 43.368 387.012 42.916 387.188 42.524C387.364 42.124 387.604 41.792 387.908 41.528C388.212 41.256 388.564 41.052 388.964 40.916C389.372 40.772 389.808 40.692 390.272 40.676V38.276H391.328V40.676C391.792 40.692 392.224 40.772 392.624 40.916C393.032 41.06 393.384 41.268 393.68 41.54C393.984 41.804 394.224 42.132 394.4 42.524C394.576 42.916 394.664 43.368 394.664 43.88ZM393.584 43.88C393.584 43.496 393.524 43.164 393.404 42.884C393.292 42.604 393.132 42.372 392.924 42.188C392.724 42.004 392.488 41.864 392.216 41.768C391.944 41.664 391.648 41.604 391.328 41.588V46.172C391.648 46.156 391.944 46.1 392.216 46.004C392.496 45.9 392.736 45.756 392.936 45.572C393.136 45.388 393.292 45.156 393.404 44.876C393.524 44.596 393.584 44.264 393.584 43.88ZM388.004 43.88C388.004 44.264 388.06 44.596 388.172 44.876C388.292 45.156 388.452 45.392 388.652 45.584C388.86 45.768 389.1 45.908 389.372 46.004C389.652 46.1 389.952 46.156 390.272 46.172V41.588C389.944 41.604 389.64 41.664 389.36 41.768C389.088 41.864 388.852 42.008 388.652 42.2C388.452 42.384 388.292 42.616 388.172 42.896C388.06 43.176 388.004 43.504 388.004 43.88ZM399.09 47.12C398.61 47.12 398.194 47.008 397.842 46.784C397.498 46.56 397.222 46.252 397.014 45.86V49.124H395.958V40.772H396.882L396.99 41.984C397.198 41.576 397.478 41.252 397.83 41.012C398.182 40.772 398.618 40.652 399.138 40.652C399.498 40.652 399.842 40.72 400.17 40.856C400.506 40.984 400.798 41.184 401.046 41.456C401.302 41.72 401.502 42.056 401.646 42.464C401.798 42.864 401.874 43.336 401.874 43.88C401.874 44.432 401.798 44.912 401.646 45.32C401.494 45.72 401.29 46.056 401.034 46.328C400.778 46.592 400.482 46.792 400.146 46.928C399.81 47.056 399.458 47.12 399.09 47.12ZM398.934 46.172C399.486 46.172 399.93 45.984 400.266 45.608C400.61 45.224 400.782 44.648 400.782 43.88C400.782 43.128 400.61 42.56 400.266 42.176C399.93 41.784 399.486 41.588 398.934 41.588C398.662 41.588 398.406 41.636 398.166 41.732C397.934 41.828 397.73 41.972 397.554 42.164C397.386 42.348 397.25 42.584 397.146 42.872C397.05 43.16 397.002 43.496 397.002 43.88C397.002 44.264 397.05 44.6 397.146 44.888C397.25 45.176 397.386 45.416 397.554 45.608C397.73 45.8 397.934 45.944 398.166 46.04C398.406 46.128 398.662 46.172 398.934 46.172ZM405.709 47.12C405.285 47.12 404.889 47.048 404.521 46.904C404.153 46.76 403.833 46.552 403.561 46.28C403.297 46 403.089 45.66 402.937 45.26C402.785 44.86 402.709 44.4 402.709 43.88C402.709 43.368 402.785 42.912 402.937 42.512C403.089 42.104 403.297 41.764 403.561 41.492C403.833 41.22 404.153 41.012 404.521 40.868C404.889 40.724 405.285 40.652 405.709 40.652C406.141 40.652 406.541 40.724 406.909 40.868C407.277 41.012 407.593 41.22 407.857 41.492C408.129 41.764 408.341 42.104 408.493 42.512C408.653 42.912 408.733 43.368 408.733 43.88C408.733 44.4 408.653 44.86 408.493 45.26C408.341 45.66 408.129 46 407.857 46.28C407.593 46.552 407.277 46.76 406.909 46.904C406.541 47.048 406.141 47.12 405.709 47.12ZM405.709 46.172C405.989 46.172 406.245 46.128 406.477 46.04C406.717 45.944 406.925 45.804 407.101 45.62C407.277 45.428 407.413 45.188 407.509 44.9C407.605 44.612 407.653 44.272 407.653 43.88C407.653 43.488 407.605 43.148 407.509 42.86C407.413 42.572 407.277 42.336 407.101 42.152C406.925 41.96 406.717 41.82 406.477 41.732C406.245 41.636 405.989 41.588 405.709 41.588C405.429 41.588 405.173 41.636 404.941 41.732C404.709 41.82 404.505 41.96 404.329 42.152C404.161 42.336 404.029 42.572 403.933 42.86C403.837 43.148 403.789 43.488 403.789 43.88C403.789 44.272 403.837 44.612 403.933 44.9C404.029 45.188 404.161 45.428 404.329 45.62C404.505 45.804 404.709 45.944 404.941 46.04C405.173 46.128 405.429 46.172 405.709 46.172ZM410.02 40.772H412.348C413.1 40.772 413.668 40.904 414.052 41.168C414.436 41.424 414.628 41.828 414.628 42.38C414.628 42.748 414.532 43.044 414.34 43.268C414.156 43.484 413.892 43.64 413.548 43.736C414.436 43.88 414.88 44.372 414.88 45.212C414.88 45.532 414.816 45.808 414.688 46.04C414.56 46.264 414.384 46.448 414.16 46.592C413.936 46.736 413.664 46.84 413.344 46.904C413.032 46.968 412.692 47 412.324 47H410.02V40.772ZM411.076 41.672V43.364H412.252C412.652 43.364 412.972 43.292 413.212 43.148C413.46 43.004 413.584 42.796 413.584 42.524C413.584 42.196 413.476 41.972 413.26 41.852C413.044 41.732 412.736 41.672 412.336 41.672H411.076ZM411.076 44.204V46.1H412.312C412.536 46.1 412.736 46.088 412.912 46.064C413.096 46.032 413.252 45.98 413.38 45.908C413.516 45.836 413.62 45.74 413.692 45.62C413.764 45.5 413.8 45.352 413.8 45.176C413.8 44.816 413.676 44.564 413.428 44.42C413.18 44.276 412.808 44.204 412.312 44.204H411.076ZM420.114 45.812C420.042 45.956 419.95 46.108 419.838 46.268C419.726 46.42 419.586 46.56 419.418 46.688C419.25 46.816 419.05 46.92 418.818 47C418.594 47.08 418.33 47.12 418.026 47.12C417.466 47.12 417.014 46.964 416.67 46.652C416.326 46.332 416.154 45.876 416.154 45.284C416.154 44.604 416.39 44.104 416.862 43.784C417.342 43.464 418.022 43.304 418.902 43.304H420.066V42.788C420.066 42.356 419.954 42.048 419.73 41.864C419.506 41.68 419.122 41.588 418.578 41.588C418.194 41.588 417.83 41.652 417.486 41.78C417.142 41.9 416.834 42.04 416.562 42.2V41.252C416.786 41.116 417.086 40.984 417.462 40.856C417.846 40.72 418.266 40.652 418.722 40.652C419.506 40.652 420.102 40.816 420.51 41.144C420.918 41.464 421.122 41.964 421.122 42.644V45.992C421.122 46.064 421.122 46.148 421.122 46.244C421.13 46.332 421.134 46.424 421.134 46.52C421.142 46.616 421.15 46.708 421.158 46.796C421.166 46.876 421.174 46.944 421.182 47H420.222C420.198 46.888 420.174 46.732 420.15 46.532C420.134 46.324 420.126 46.144 420.126 45.992L420.114 45.812ZM418.254 46.172C418.582 46.172 418.862 46.104 419.094 45.968C419.326 45.832 419.514 45.676 419.658 45.5C419.802 45.316 419.906 45.14 419.97 44.972C420.034 44.796 420.066 44.672 420.066 44.6V44.144H419.01C418.378 44.144 417.918 44.236 417.63 44.42C417.35 44.596 417.21 44.864 417.21 45.224C417.21 45.504 417.294 45.732 417.462 45.908C417.63 46.084 417.894 46.172 418.254 46.172ZM426.85 44.24H423.838V47H422.782V40.772H423.838V43.34H426.85V40.772H427.906V47H426.85V44.24ZM430.693 45.56L434.017 40.772H435.085V47H434.029V42.224L430.717 47H429.637V40.772H430.693V45.56ZM436.809 42.788C436.809 42.436 436.873 42.136 437.001 41.888C437.129 41.632 437.309 41.424 437.541 41.264C437.773 41.096 438.049 40.972 438.369 40.892C438.689 40.812 439.037 40.772 439.413 40.772H441.417V47H440.361V44.744H439.221L437.625 47H436.365L438.165 44.48C437.733 44.352 437.397 44.156 437.157 43.892C436.925 43.628 436.809 43.26 436.809 42.788ZM440.361 43.844V41.672H439.413C438.965 41.672 438.597 41.756 438.309 41.924C438.021 42.092 437.877 42.364 437.877 42.74C437.877 43.132 438.005 43.416 438.261 43.592C438.517 43.76 438.881 43.844 439.353 43.844H440.361Z" fill="#262626"/>
</g>
<rect x="-1" y="1" width="435" height="216" rx="9" transform="matrix(-1 0 0 1 666 73)" stroke="#5282FF" stroke-width="2"/>
<rect x="-1" y="1" width="512" height="97" rx="9" transform="matrix(-1 0 0 1 666 154)" stroke="#5282FF" stroke-width="2"/>
<rect x="-1" y="1" width="634" height="138" rx="9" transform="matrix(-1 0 0 1 666 133)" stroke="#5282FF" stroke-width="2"/>
<path d="M361.574 107H352.178V98.396H353.306V105.98H356.282V98.396H357.446V105.98H360.434V98.396H361.574V107ZM364.504 105.56L367.828 100.772H368.896V107H367.84V102.224L364.528 107H363.448V100.772H364.504V105.56ZM377.916 103.88C377.916 104.4 377.828 104.856 377.652 105.248C377.476 105.64 377.236 105.972 376.932 106.244C376.636 106.516 376.284 106.724 375.876 106.868C375.468 107.004 375.036 107.08 374.58 107.096V109.124H373.524V107.096C373.052 107.08 372.612 107 372.204 106.856C371.804 106.712 371.452 106.508 371.148 106.244C370.844 105.972 370.604 105.64 370.428 105.248C370.26 104.856 370.176 104.4 370.176 103.88C370.176 103.368 370.264 102.916 370.44 102.524C370.616 102.124 370.856 101.792 371.16 101.528C371.464 101.256 371.816 101.052 372.216 100.916C372.624 100.772 373.06 100.692 373.524 100.676V98.276H374.58V100.676C375.044 100.692 375.476 100.772 375.876 100.916C376.284 101.06 376.636 101.268 376.932 101.54C377.236 101.804 377.476 102.132 377.652 102.524C377.828 102.916 377.916 103.368 377.916 103.88ZM376.836 103.88C376.836 103.496 376.776 103.164 376.656 102.884C376.544 102.604 376.384 102.372 376.176 102.188C375.976 102.004 375.74 101.864 375.468 101.768C375.196 101.664 374.9 101.604 374.58 101.588V106.172C374.9 106.156 375.196 106.1 375.468 106.004C375.748 105.9 375.988 105.756 376.188 105.572C376.388 105.388 376.544 105.156 376.656 104.876C376.776 104.596 376.836 104.264 376.836 103.88ZM371.256 103.88C371.256 104.264 371.312 104.596 371.424 104.876C371.544 105.156 371.704 105.392 371.904 105.584C372.112 105.768 372.352 105.908 372.624 106.004C372.904 106.1 373.204 106.156 373.524 106.172V101.588C373.196 101.604 372.892 101.664 372.612 101.768C372.34 101.864 372.104 102.008 371.904 102.2C371.704 102.384 371.544 102.616 371.424 102.896C371.312 103.176 371.256 103.504 371.256 103.88ZM382.342 107.12C381.862 107.12 381.446 107.008 381.094 106.784C380.75 106.56 380.474 106.252 380.266 105.86V109.124H379.21V100.772H380.134L380.242 101.984C380.45 101.576 380.73 101.252 381.082 101.012C381.434 100.772 381.87 100.652 382.39 100.652C382.75 100.652 383.094 100.72 383.422 100.856C383.758 100.984 384.05 101.184 384.298 101.456C384.554 101.72 384.754 102.056 384.898 102.464C385.05 102.864 385.126 103.336 385.126 103.88C385.126 104.432 385.05 104.912 384.898 105.32C384.746 105.72 384.542 106.056 384.286 106.328C384.03 106.592 383.734 106.792 383.398 106.928C383.062 107.056 382.71 107.12 382.342 107.12ZM382.186 106.172C382.738 106.172 383.182 105.984 383.518 105.608C383.862 105.224 384.034 104.648 384.034 103.88C384.034 103.128 383.862 102.56 383.518 102.176C383.182 101.784 382.738 101.588 382.186 101.588C381.914 101.588 381.658 101.636 381.418 101.732C381.186 101.828 380.982 101.972 380.806 102.164C380.638 102.348 380.502 102.584 380.398 102.872C380.302 103.16 380.254 103.496 380.254 103.88C380.254 104.264 380.302 104.6 380.398 104.888C380.502 105.176 380.638 105.416 380.806 105.608C380.982 105.8 381.186 105.944 381.418 106.04C381.658 106.128 381.914 106.172 382.186 106.172ZM389.406 106.928C389.262 107.304 389.11 107.632 388.95 107.912C388.79 108.2 388.61 108.444 388.41 108.644C388.21 108.844 387.986 108.992 387.738 109.088C387.49 109.192 387.206 109.244 386.886 109.244C386.726 109.244 386.578 109.232 386.442 109.208C386.306 109.192 386.182 109.16 386.07 109.112V108.092C386.158 108.156 386.27 108.204 386.406 108.236C386.542 108.276 386.69 108.296 386.85 108.296C387.146 108.296 387.39 108.224 387.582 108.08C387.774 107.944 387.958 107.724 388.134 107.42L385.602 100.772H386.766L388.746 106.028L390.714 100.772H391.734L389.406 106.928ZM397.619 106.472C397.531 106.536 397.423 106.604 397.295 106.676C397.167 106.748 397.011 106.82 396.827 106.892C396.643 106.956 396.435 107.008 396.203 107.048C395.971 107.096 395.711 107.12 395.423 107.12C394.375 107.12 393.579 106.836 393.035 106.268C392.491 105.7 392.219 104.904 392.219 103.88C392.219 103.376 392.291 102.924 392.435 102.524C392.587 102.124 392.795 101.788 393.059 101.516C393.323 101.236 393.635 101.024 393.995 100.88C394.355 100.728 394.747 100.652 395.171 100.652C395.619 100.652 396.019 100.728 396.371 100.88C396.723 101.032 397.011 101.256 397.235 101.552C397.467 101.848 397.623 102.216 397.703 102.656C397.791 103.088 397.791 103.592 397.703 104.168H393.311C393.351 104.84 393.551 105.344 393.911 105.68C394.271 106.008 394.807 106.172 395.519 106.172C395.999 106.172 396.411 106.104 396.755 105.968C397.099 105.832 397.387 105.684 397.619 105.524V106.472ZM395.147 101.588C394.691 101.588 394.299 101.728 393.971 102.008C393.643 102.288 393.435 102.712 393.347 103.28H396.695C396.727 102.704 396.595 102.28 396.299 102.008C396.003 101.728 395.619 101.588 395.147 101.588ZM401.569 101.672V107H400.513V101.672H398.557V100.772H403.561V101.672H401.569ZM407.292 107.12C406.812 107.12 406.376 107.048 405.984 106.904C405.6 106.752 405.272 106.54 405 106.268C404.728 105.988 404.52 105.648 404.376 105.248C404.232 104.848 404.16 104.392 404.16 103.88C404.16 103.376 404.232 102.924 404.376 102.524C404.528 102.124 404.74 101.788 405.012 101.516C405.284 101.236 405.616 101.024 406.008 100.88C406.4 100.728 406.844 100.652 407.34 100.652C407.724 100.652 408.076 100.696 408.396 100.784C408.716 100.864 408.98 100.984 409.188 101.144V102.092C408.932 101.924 408.644 101.8 408.324 101.72C408.012 101.632 407.688 101.588 407.352 101.588C406.624 101.588 406.088 101.776 405.744 102.152C405.408 102.528 405.24 103.104 405.24 103.88C405.24 104.656 405.404 105.232 405.732 105.608C406.06 105.984 406.58 106.172 407.292 106.172C407.668 106.172 408.012 106.128 408.324 106.04C408.644 105.944 408.932 105.824 409.188 105.68V106.628C408.964 106.764 408.692 106.88 408.372 106.976C408.06 107.072 407.7 107.12 407.292 107.12ZM410.604 102.788C410.604 102.436 410.668 102.136 410.796 101.888C410.924 101.632 411.104 101.424 411.336 101.264C411.568 101.096 411.844 100.972 412.164 100.892C412.484 100.812 412.832 100.772 413.208 100.772H415.212V107H414.156V104.744H413.016L411.42 107H410.16L411.96 104.48C411.528 104.352 411.192 104.156 410.952 103.892C410.72 103.628 410.604 103.26 410.604 102.788ZM414.156 103.844V101.672H413.208C412.76 101.672 412.392 101.756 412.104 101.924C411.816 102.092 411.672 102.364 411.672 102.74C411.672 103.132 411.8 103.416 412.056 103.592C412.312 103.76 412.676 103.844 413.148 103.844H414.156ZM422.137 107.12C421.713 107.12 421.317 107.048 420.949 106.904C420.581 106.76 420.261 106.552 419.989 106.28C419.725 106 419.517 105.66 419.365 105.26C419.213 104.86 419.137 104.4 419.137 103.88C419.137 103.368 419.213 102.912 419.365 102.512C419.517 102.104 419.725 101.764 419.989 101.492C420.261 101.22 420.581 101.012 420.949 100.868C421.317 100.724 421.713 100.652 422.137 100.652C422.569 100.652 422.969 100.724 423.337 100.868C423.705 101.012 424.021 101.22 424.285 101.492C424.557 101.764 424.769 102.104 424.921 102.512C425.081 102.912 425.161 103.368 425.161 103.88C425.161 104.4 425.081 104.86 424.921 105.26C424.769 105.66 424.557 106 424.285 106.28C424.021 106.552 423.705 106.76 423.337 106.904C422.969 107.048 422.569 107.12 422.137 107.12ZM422.137 106.172C422.417 106.172 422.673 106.128 422.905 106.04C423.145 105.944 423.353 105.804 423.529 105.62C423.705 105.428 423.841 105.188 423.937 104.9C424.033 104.612 424.081 104.272 424.081 103.88C424.081 103.488 424.033 103.148 423.937 102.86C423.841 102.572 423.705 102.336 423.529 102.152C423.353 101.96 423.145 101.82 422.905 101.732C422.673 101.636 422.417 101.588 422.137 101.588C421.857 101.588 421.601 101.636 421.369 101.732C421.137 101.82 420.933 101.96 420.757 102.152C420.589 102.336 420.457 102.572 420.361 102.86C420.265 103.148 420.217 103.488 420.217 103.88C420.217 104.272 420.265 104.612 420.361 104.9C420.457 105.188 420.589 105.428 420.757 105.62C420.933 105.804 421.137 105.944 421.369 106.04C421.601 106.128 421.857 106.172 422.137 106.172ZM429.58 107.12C429.1 107.12 428.684 107.008 428.332 106.784C427.988 106.56 427.712 106.252 427.504 105.86V109.124H426.448V100.772H427.372L427.48 101.984C427.688 101.576 427.968 101.252 428.32 101.012C428.672 100.772 429.108 100.652 429.628 100.652C429.988 100.652 430.332 100.72 430.66 100.856C430.996 100.984 431.288 101.184 431.536 101.456C431.792 101.72 431.992 102.056 432.136 102.464C432.288 102.864 432.364 103.336 432.364 103.88C432.364 104.432 432.288 104.912 432.136 105.32C431.984 105.72 431.78 106.056 431.524 106.328C431.268 106.592 430.972 106.792 430.636 106.928C430.3 107.056 429.948 107.12 429.58 107.12ZM429.424 106.172C429.976 106.172 430.42 105.984 430.756 105.608C431.1 105.224 431.272 104.648 431.272 103.88C431.272 103.128 431.1 102.56 430.756 102.176C430.42 101.784 429.976 101.588 429.424 101.588C429.152 101.588 428.896 101.636 428.656 101.732C428.424 101.828 428.22 101.972 428.044 102.164C427.876 102.348 427.74 102.584 427.636 102.872C427.54 103.16 427.492 103.496 427.492 103.88C427.492 104.264 427.54 104.6 427.636 104.888C427.74 105.176 427.876 105.416 428.044 105.608C428.22 105.8 428.424 105.944 428.656 106.04C428.896 106.128 429.152 106.172 429.424 106.172ZM434.699 105.56L438.023 100.772H439.091V107H438.035V102.224L434.723 107H433.643V100.772H434.699V105.56ZM440.815 100.772H444.775V101.672H441.871V107H440.815V100.772ZM447.109 105.56L450.433 100.772H451.501V107H450.445V102.224L447.133 107H446.053V100.772H447.109V105.56ZM457.293 104.24H454.281V107H453.225V100.772H454.281V103.34H457.293V100.772H458.349V107H457.293V104.24ZM463.729 105.812C463.657 105.956 463.565 106.108 463.453 106.268C463.341 106.42 463.201 106.56 463.033 106.688C462.865 106.816 462.665 106.92 462.433 107C462.209 107.08 461.945 107.12 461.641 107.12C461.081 107.12 460.629 106.964 460.285 106.652C459.941 106.332 459.769 105.876 459.769 105.284C459.769 104.604 460.005 104.104 460.477 103.784C460.957 103.464 461.637 103.304 462.517 103.304H463.681V102.788C463.681 102.356 463.569 102.048 463.345 101.864C463.121 101.68 462.737 101.588 462.193 101.588C461.809 101.588 461.445 101.652 461.101 101.78C460.757 101.9 460.449 102.04 460.177 102.2V101.252C460.401 101.116 460.701 100.984 461.077 100.856C461.461 100.72 461.881 100.652 462.337 100.652C463.121 100.652 463.717 100.816 464.125 101.144C464.533 101.464 464.737 101.964 464.737 102.644V105.992C464.737 106.064 464.737 106.148 464.737 106.244C464.745 106.332 464.749 106.424 464.749 106.52C464.757 106.616 464.765 106.708 464.773 106.796C464.781 106.876 464.789 106.944 464.797 107H463.837C463.813 106.888 463.789 106.732 463.765 106.532C463.749 106.324 463.741 106.144 463.741 105.992L463.729 105.812ZM461.869 106.172C462.197 106.172 462.477 106.104 462.709 105.968C462.941 105.832 463.129 105.676 463.273 105.5C463.417 105.316 463.521 105.14 463.585 104.972C463.649 104.796 463.681 104.672 463.681 104.6V104.144H462.625C461.993 104.144 461.533 104.236 461.245 104.42C460.965 104.596 460.825 104.864 460.825 105.224C460.825 105.504 460.909 105.732 461.077 105.908C461.245 106.084 461.509 106.172 461.869 106.172ZM466.877 105.068C466.989 104.66 467.061 104.108 467.093 103.412C467.125 102.716 467.141 101.836 467.141 100.772H471.329V107H470.261V101.672H468.137C468.129 102.528 468.101 103.288 468.053 103.952C468.013 104.616 467.921 105.176 467.777 105.632C467.641 106.088 467.437 106.436 467.165 106.676C466.901 106.908 466.545 107.024 466.097 107.024C466.065 107.024 466.033 107.024 466.001 107.024C465.969 107.024 465.933 107.02 465.893 107.012V105.968C465.933 105.976 465.985 105.98 466.049 105.98C466.457 105.98 466.733 105.676 466.877 105.068ZM477.674 104.924C477.674 105.284 477.61 105.596 477.482 105.86C477.354 106.124 477.174 106.34 476.942 106.508C476.71 106.676 476.434 106.8 476.114 106.88C475.794 106.96 475.446 107 475.07 107H473.006V100.772H474.062V102.944H475.142C475.934 102.944 476.554 103.1 477.002 103.412C477.45 103.724 477.674 104.228 477.674 104.924ZM474.062 103.844V106.1H475.07C475.526 106.1 475.894 106.016 476.174 105.848C476.462 105.672 476.606 105.384 476.606 104.984C476.606 104.576 476.478 104.284 476.222 104.108C475.966 103.932 475.606 103.844 475.142 103.844H474.062ZM483.086 104.24H480.074V107H479.018V100.772H480.074V103.34H483.086V100.772H484.142V107H483.086V104.24ZM490.482 104.924C490.482 105.284 490.418 105.596 490.29 105.86C490.162 106.124 489.982 106.34 489.75 106.508C489.518 106.676 489.242 106.8 488.922 106.88C488.602 106.96 488.254 107 487.878 107H485.874V100.772H486.93V102.944H487.95C488.742 102.944 489.362 103.1 489.81 103.412C490.258 103.724 490.482 104.228 490.482 104.924ZM492.438 107H491.382V100.772H492.438V107ZM486.93 103.844V106.1H487.878C488.334 106.1 488.702 106.016 488.982 105.848C489.27 105.672 489.414 105.384 489.414 104.984C489.414 104.576 489.286 104.284 489.03 104.108C488.774 103.932 488.414 103.844 487.95 103.844H486.93ZM496.919 99.944C496.599 99.944 496.319 99.904 496.079 99.824C495.847 99.736 495.651 99.62 495.491 99.476C495.339 99.324 495.223 99.152 495.143 98.96C495.071 98.76 495.035 98.544 495.035 98.312H496.091C496.091 98.616 496.163 98.836 496.307 98.972C496.459 99.108 496.663 99.176 496.919 99.176C497.175 99.176 497.375 99.108 497.519 98.972C497.663 98.836 497.735 98.616 497.735 98.312H498.791C498.791 98.768 498.635 99.156 498.323 99.476C498.019 99.788 497.551 99.944 496.919 99.944ZM495.227 105.56L498.551 100.772H499.619V107H498.563V102.224L495.251 107H494.171V100.772H495.227V105.56ZM505.251 98.396V107H504.123V98.396H505.251ZM507.252 98.396H510C510.976 98.396 511.732 98.6 512.268 99.008C512.812 99.408 513.084 100.036 513.084 100.892C513.084 101.38 513.004 101.8 512.844 102.152C512.692 102.496 512.476 102.78 512.196 103.004C511.916 103.228 511.58 103.392 511.188 103.496C510.804 103.6 510.376 103.652 509.904 103.652H508.38V107H507.252V98.396ZM508.38 99.428V102.632H509.904C510.208 102.632 510.484 102.6 510.732 102.536C510.98 102.472 511.192 102.372 511.368 102.236C511.552 102.1 511.692 101.924 511.788 101.708C511.892 101.484 511.944 101.216 511.944 100.904C511.944 100.384 511.776 100.008 511.44 99.776C511.104 99.544 510.624 99.428 510 99.428H508.38ZM514.113 102.86H516.993V103.82H514.113V102.86ZM518.581 100.772H523.573V107H522.517V101.672H519.637V107H518.581V100.772ZM528.944 105.812C528.872 105.956 528.78 106.108 528.668 106.268C528.556 106.42 528.416 106.56 528.248 106.688C528.08 106.816 527.88 106.92 527.648 107C527.424 107.08 527.16 107.12 526.856 107.12C526.296 107.12 525.844 106.964 525.5 106.652C525.156 106.332 524.984 105.876 524.984 105.284C524.984 104.604 525.22 104.104 525.692 103.784C526.172 103.464 526.852 103.304 527.732 103.304H528.896V102.788C528.896 102.356 528.784 102.048 528.56 101.864C528.336 101.68 527.952 101.588 527.408 101.588C527.024 101.588 526.66 101.652 526.316 101.78C525.972 101.9 525.664 102.04 525.392 102.2V101.252C525.616 101.116 525.916 100.984 526.292 100.856C526.676 100.72 527.096 100.652 527.552 100.652C528.336 100.652 528.932 100.816 529.34 101.144C529.748 101.464 529.952 101.964 529.952 102.644V105.992C529.952 106.064 529.952 106.148 529.952 106.244C529.96 106.332 529.964 106.424 529.964 106.52C529.972 106.616 529.98 106.708 529.988 106.796C529.996 106.876 530.004 106.944 530.012 107H529.052C529.028 106.888 529.004 106.732 528.98 106.532C528.964 106.324 528.956 106.144 528.956 105.992L528.944 105.812ZM527.084 106.172C527.412 106.172 527.692 106.104 527.924 105.968C528.156 105.832 528.344 105.676 528.488 105.5C528.632 105.316 528.736 105.14 528.8 104.972C528.864 104.796 528.896 104.672 528.896 104.6V104.144H527.84C527.208 104.144 526.748 104.236 526.46 104.42C526.18 104.596 526.04 104.864 526.04 105.224C526.04 105.504 526.124 105.732 526.292 105.908C526.46 106.084 526.724 106.172 527.084 106.172ZM533.22 104.348H532.668V107H531.612V100.772H532.668V103.448H533.268L535.452 100.772H536.652L534.096 103.844L536.7 107H535.416L533.22 104.348ZM542.533 106.472C542.445 106.536 542.337 106.604 542.209 106.676C542.081 106.748 541.925 106.82 541.741 106.892C541.557 106.956 541.349 107.008 541.117 107.048C540.885 107.096 540.625 107.12 540.337 107.12C539.289 107.12 538.493 106.836 537.949 106.268C537.405 105.7 537.133 104.904 537.133 103.88C537.133 103.376 537.205 102.924 537.349 102.524C537.501 102.124 537.709 101.788 537.973 101.516C538.237 101.236 538.549 101.024 538.909 100.88C539.269 100.728 539.661 100.652 540.085 100.652C540.533 100.652 540.933 100.728 541.285 100.88C541.637 101.032 541.925 101.256 542.149 101.552C542.381 101.848 542.537 102.216 542.617 102.656C542.705 103.088 542.705 103.592 542.617 104.168H538.225C538.265 104.84 538.465 105.344 538.825 105.68C539.185 106.008 539.721 106.172 540.433 106.172C540.913 106.172 541.325 106.104 541.669 105.968C542.013 105.832 542.301 105.684 542.533 105.524V106.472ZM540.061 101.588C539.605 101.588 539.213 101.728 538.885 102.008C538.557 102.288 538.349 102.712 538.261 103.28H541.609C541.641 102.704 541.509 102.28 541.213 102.008C540.917 101.728 540.533 101.588 540.061 101.588ZM546.483 101.672V107H545.427V101.672H543.471V100.772H548.475V101.672H546.483Z" fill="#262626"/>
<path d="M180.45 199.396V208H179.322V199.396H180.45ZM182.451 199.396H185.199C186.175 199.396 186.931 199.6 187.467 200.008C188.011 200.408 188.283 201.036 188.283 201.892C188.283 202.38 188.203 202.8 188.043 203.152C187.891 203.496 187.675 203.78 187.395 204.004C187.115 204.228 186.779 204.392 186.387 204.496C186.003 204.6 185.575 204.652 185.103 204.652H183.579V208H182.451V199.396ZM183.579 200.428V203.632H185.103C185.407 203.632 185.683 203.6 185.931 203.536C186.179 203.472 186.391 203.372 186.567 203.236C186.751 203.1 186.891 202.924 186.987 202.708C187.091 202.484 187.143 202.216 187.143 201.904C187.143 201.384 186.975 201.008 186.639 200.776C186.303 200.544 185.823 200.428 185.199 200.428H183.579ZM191.506 208.12C191.178 208.12 190.886 208.092 190.63 208.036C190.382 207.988 190.162 207.928 189.97 207.856C189.786 207.776 189.63 207.696 189.502 207.616C189.374 207.528 189.274 207.452 189.202 207.388V206.44C189.282 206.52 189.39 206.608 189.526 206.704C189.662 206.792 189.826 206.876 190.018 206.956C190.21 207.036 190.426 207.104 190.666 207.16C190.914 207.208 191.19 207.232 191.494 207.232C191.942 207.232 192.298 207.16 192.562 207.016C192.826 206.872 192.958 206.628 192.958 206.284C192.958 206.1 192.914 205.952 192.826 205.84C192.746 205.728 192.634 205.64 192.49 205.576C192.346 205.504 192.178 205.448 191.986 205.408C191.802 205.368 191.606 205.328 191.398 205.288C191.134 205.232 190.874 205.172 190.618 205.108C190.362 205.036 190.13 204.936 189.922 204.808C189.714 204.672 189.546 204.5 189.418 204.292C189.29 204.076 189.226 203.796 189.226 203.452C189.226 202.892 189.442 202.452 189.874 202.132C190.314 201.812 190.926 201.652 191.71 201.652C192.15 201.652 192.538 201.696 192.874 201.784C193.218 201.872 193.482 201.968 193.666 202.072V203.02C193.458 202.884 193.198 202.772 192.886 202.684C192.582 202.588 192.202 202.54 191.746 202.54C191.274 202.54 190.91 202.604 190.654 202.732C190.406 202.86 190.282 203.092 190.282 203.428C190.282 203.596 190.318 203.732 190.39 203.836C190.462 203.932 190.558 204.012 190.678 204.076C190.806 204.132 190.95 204.176 191.11 204.208C191.27 204.24 191.438 204.276 191.614 204.316C191.886 204.372 192.166 204.432 192.454 204.496C192.742 204.56 192.998 204.66 193.222 204.796C193.454 204.932 193.642 205.116 193.786 205.348C193.938 205.572 194.014 205.876 194.014 206.26C194.014 206.62 193.942 206.92 193.798 207.16C193.654 207.4 193.462 207.592 193.222 207.736C192.99 207.872 192.722 207.968 192.418 208.024C192.122 208.088 191.818 208.12 191.506 208.12ZM200.271 207.472C200.183 207.536 200.075 207.604 199.947 207.676C199.819 207.748 199.663 207.82 199.479 207.892C199.295 207.956 199.087 208.008 198.855 208.048C198.623 208.096 198.363 208.12 198.075 208.12C197.027 208.12 196.231 207.836 195.687 207.268C195.143 206.7 194.871 205.904 194.871 204.88C194.871 204.376 194.943 203.924 195.087 203.524C195.239 203.124 195.447 202.788 195.711 202.516C195.975 202.236 196.287 202.024 196.647 201.88C197.007 201.728 197.399 201.652 197.823 201.652C198.271 201.652 198.671 201.728 199.023 201.88C199.375 202.032 199.663 202.256 199.887 202.552C200.119 202.848 200.275 203.216 200.355 203.656C200.443 204.088 200.443 204.592 200.355 205.168H195.963C196.003 205.84 196.203 206.344 196.563 206.68C196.923 207.008 197.459 207.172 198.171 207.172C198.651 207.172 199.063 207.104 199.407 206.968C199.751 206.832 200.039 206.684 200.271 206.524V207.472ZM197.799 202.588C197.343 202.588 196.951 202.728 196.623 203.008C196.295 203.288 196.087 203.712 195.999 204.28H199.347C199.379 203.704 199.247 203.28 198.951 203.008C198.655 202.728 198.271 202.588 197.799 202.588ZM204.366 208.12C203.886 208.12 203.45 208.048 203.058 207.904C202.674 207.752 202.346 207.54 202.074 207.268C201.802 206.988 201.594 206.648 201.45 206.248C201.306 205.848 201.234 205.392 201.234 204.88C201.234 204.376 201.306 203.924 201.45 203.524C201.602 203.124 201.814 202.788 202.086 202.516C202.358 202.236 202.69 202.024 203.082 201.88C203.474 201.728 203.918 201.652 204.414 201.652C204.798 201.652 205.15 201.696 205.47 201.784C205.79 201.864 206.054 201.984 206.262 202.144V203.092C206.006 202.924 205.718 202.8 205.398 202.72C205.086 202.632 204.762 202.588 204.426 202.588C203.698 202.588 203.162 202.776 202.818 203.152C202.482 203.528 202.314 204.104 202.314 204.88C202.314 205.656 202.478 206.232 202.806 206.608C203.134 206.984 203.654 207.172 204.366 207.172C204.742 207.172 205.086 207.128 205.398 207.04C205.718 206.944 206.006 206.824 206.262 206.68V207.628C206.038 207.764 205.766 207.88 205.446 207.976C205.134 208.072 204.774 208.12 204.366 208.12Z" fill="#262626"/>
<path d="M50.9658 204.244H46.5498V208H45.4218V199.396H46.5498V203.224H50.9658V199.396H52.1058V208H50.9658V204.244ZM56.5177 208.12C56.0937 208.12 55.6977 208.048 55.3297 207.904C54.9617 207.76 54.6417 207.552 54.3697 207.28C54.1057 207 53.8977 206.66 53.7457 206.26C53.5937 205.86 53.5177 205.4 53.5177 204.88C53.5177 204.368 53.5937 203.912 53.7457 203.512C53.8977 203.104 54.1057 202.764 54.3697 202.492C54.6417 202.22 54.9617 202.012 55.3297 201.868C55.6977 201.724 56.0937 201.652 56.5177 201.652C56.9497 201.652 57.3497 201.724 57.7177 201.868C58.0857 202.012 58.4017 202.22 58.6657 202.492C58.9377 202.764 59.1497 203.104 59.3017 203.512C59.4617 203.912 59.5417 204.368 59.5417 204.88C59.5417 205.4 59.4617 205.86 59.3017 206.26C59.1497 206.66 58.9377 207 58.6657 207.28C58.4017 207.552 58.0857 207.76 57.7177 207.904C57.3497 208.048 56.9497 208.12 56.5177 208.12ZM56.5177 207.172C56.7977 207.172 57.0537 207.128 57.2857 207.04C57.5257 206.944 57.7337 206.804 57.9097 206.62C58.0857 206.428 58.2217 206.188 58.3177 205.9C58.4137 205.612 58.4617 205.272 58.4617 204.88C58.4617 204.488 58.4137 204.148 58.3177 203.86C58.2217 203.572 58.0857 203.336 57.9097 203.152C57.7337 202.96 57.5257 202.82 57.2857 202.732C57.0537 202.636 56.7977 202.588 56.5177 202.588C56.2377 202.588 55.9817 202.636 55.7497 202.732C55.5177 202.82 55.3137 202.96 55.1377 203.152C54.9697 203.336 54.8377 203.572 54.7417 203.86C54.6457 204.148 54.5977 204.488 54.5977 204.88C54.5977 205.272 54.6457 205.612 54.7417 205.9C54.8377 206.188 54.9697 206.428 55.1377 206.62C55.3137 206.804 55.5177 206.944 55.7497 207.04C55.9817 207.128 56.2377 207.172 56.5177 207.172ZM60.8288 201.772H63.1568C63.9088 201.772 64.4768 201.904 64.8608 202.168C65.2448 202.424 65.4368 202.828 65.4368 203.38C65.4368 203.748 65.3408 204.044 65.1488 204.268C64.9648 204.484 64.7008 204.64 64.3568 204.736C65.2448 204.88 65.6888 205.372 65.6888 206.212C65.6888 206.532 65.6248 206.808 65.4968 207.04C65.3688 207.264 65.1928 207.448 64.9688 207.592C64.7448 207.736 64.4728 207.84 64.1528 207.904C63.8408 207.968 63.5008 208 63.1328 208H60.8288V201.772ZM61.8848 202.672V204.364H63.0608C63.4608 204.364 63.7808 204.292 64.0208 204.148C64.2688 204.004 64.3928 203.796 64.3928 203.524C64.3928 203.196 64.2848 202.972 64.0688 202.852C63.8528 202.732 63.5448 202.672 63.1448 202.672H61.8848ZM61.8848 205.204V207.1H63.1208C63.3448 207.1 63.5448 207.088 63.7208 207.064C63.9048 207.032 64.0608 206.98 64.1888 206.908C64.3248 206.836 64.4288 206.74 64.5008 206.62C64.5728 206.5 64.6088 206.352 64.6088 206.176C64.6088 205.816 64.4848 205.564 64.2368 205.42C63.9888 205.276 63.6168 205.204 63.1208 205.204H61.8848ZM71.8822 205.924C71.8822 206.284 71.8182 206.596 71.6902 206.86C71.5622 207.124 71.3822 207.34 71.1502 207.508C70.9182 207.676 70.6422 207.8 70.3222 207.88C70.0022 207.96 69.6542 208 69.2782 208H67.2742V201.772H68.3302V203.944H69.3502C70.1422 203.944 70.7622 204.1 71.2102 204.412C71.6582 204.724 71.8822 205.228 71.8822 205.924ZM73.8382 208H72.7822V201.772H73.8382V208ZM68.3302 204.844V207.1H69.2782C69.7342 207.1 70.1022 207.016 70.3822 206.848C70.6702 206.672 70.8142 206.384 70.8142 205.984C70.8142 205.576 70.6862 205.284 70.4302 205.108C70.1742 204.932 69.8142 204.844 69.3502 204.844H68.3302ZM78.319 200.944C77.999 200.944 77.719 200.904 77.479 200.824C77.247 200.736 77.051 200.62 76.891 200.476C76.739 200.324 76.623 200.152 76.543 199.96C76.471 199.76 76.435 199.544 76.435 199.312H77.491C77.491 199.616 77.563 199.836 77.707 199.972C77.859 200.108 78.063 200.176 78.319 200.176C78.575 200.176 78.775 200.108 78.919 199.972C79.063 199.836 79.135 199.616 79.135 199.312H80.191C80.191 199.768 80.035 200.156 79.723 200.476C79.419 200.788 78.951 200.944 78.319 200.944ZM76.627 206.56L79.951 201.772H81.019V208H79.963V203.224L76.651 208H75.571V201.772H76.627V206.56ZM89.7956 206.188C89.7956 206.54 89.7236 206.84 89.5796 207.088C89.4436 207.328 89.2556 207.528 89.0156 207.688C88.7756 207.84 88.4956 207.948 88.1756 208.012C87.8636 208.084 87.5356 208.12 87.1916 208.12C86.7356 208.12 86.3316 208.072 85.9796 207.976C85.6356 207.88 85.3636 207.764 85.1636 207.628V206.68C85.4116 206.832 85.7076 206.952 86.0516 207.04C86.3956 207.128 86.7676 207.172 87.1676 207.172C87.6236 207.172 88.0036 207.1 88.3076 206.956C88.6196 206.804 88.7756 206.548 88.7756 206.188C88.7756 205.836 88.6436 205.588 88.3796 205.444C88.1236 205.3 87.7276 205.228 87.1916 205.228H86.3636V204.376H87.2276C87.6676 204.376 88.0036 204.296 88.2356 204.136C88.4676 203.976 88.5836 203.744 88.5836 203.44C88.5836 203.28 88.5436 203.148 88.4636 203.044C88.3916 202.932 88.2916 202.844 88.1636 202.78C88.0356 202.708 87.8836 202.66 87.7076 202.636C87.5396 202.604 87.3596 202.588 87.1676 202.588C86.7996 202.588 86.4556 202.632 86.1356 202.72C85.8236 202.808 85.5396 202.932 85.2836 203.092V202.144C85.4916 202.008 85.7596 201.892 86.0876 201.796C86.4236 201.7 86.8116 201.652 87.2516 201.652C88.0116 201.652 88.5836 201.796 88.9676 202.084C89.3596 202.372 89.5556 202.788 89.5556 203.332C89.5556 203.74 89.4436 204.06 89.2196 204.292C89.0036 204.524 88.6956 204.684 88.2956 204.772C88.7916 204.836 89.1636 204.992 89.4116 205.24C89.6676 205.488 89.7956 205.804 89.7956 206.188ZM94.9925 206.812C94.9205 206.956 94.8285 207.108 94.7165 207.268C94.6045 207.42 94.4645 207.56 94.2965 207.688C94.1285 207.816 93.9285 207.92 93.6965 208C93.4725 208.08 93.2085 208.12 92.9045 208.12C92.3445 208.12 91.8925 207.964 91.5485 207.652C91.2045 207.332 91.0325 206.876 91.0325 206.284C91.0325 205.604 91.2685 205.104 91.7405 204.784C92.2205 204.464 92.9005 204.304 93.7805 204.304H94.9445V203.788C94.9445 203.356 94.8325 203.048 94.6085 202.864C94.3845 202.68 94.0005 202.588 93.4565 202.588C93.0725 202.588 92.7085 202.652 92.3645 202.78C92.0205 202.9 91.7125 203.04 91.4405 203.2V202.252C91.6645 202.116 91.9645 201.984 92.3405 201.856C92.7245 201.72 93.1445 201.652 93.6005 201.652C94.3845 201.652 94.9805 201.816 95.3885 202.144C95.7965 202.464 96.0005 202.964 96.0005 203.644V206.992C96.0005 207.064 96.0005 207.148 96.0005 207.244C96.0085 207.332 96.0125 207.424 96.0125 207.52C96.0205 207.616 96.0285 207.708 96.0365 207.796C96.0445 207.876 96.0525 207.944 96.0605 208H95.1005C95.0765 207.888 95.0525 207.732 95.0285 207.532C95.0125 207.324 95.0045 207.144 95.0045 206.992L94.9925 206.812ZM93.1325 207.172C93.4605 207.172 93.7405 207.104 93.9725 206.968C94.2045 206.832 94.3925 206.676 94.5365 206.5C94.6805 206.316 94.7845 206.14 94.8485 205.972C94.9125 205.796 94.9445 205.672 94.9445 205.6V205.144H93.8885C93.2565 205.144 92.7965 205.236 92.5085 205.42C92.2285 205.596 92.0885 205.864 92.0885 206.224C92.0885 206.504 92.1725 206.732 92.3405 206.908C92.5085 207.084 92.7725 207.172 93.1325 207.172ZM97.6609 201.772H101.621V202.672H98.7169V208H97.6609V201.772ZM105.279 208.12C104.855 208.12 104.459 208.048 104.091 207.904C103.723 207.76 103.403 207.552 103.131 207.28C102.867 207 102.659 206.66 102.507 206.26C102.355 205.86 102.279 205.4 102.279 204.88C102.279 204.368 102.355 203.912 102.507 203.512C102.659 203.104 102.867 202.764 103.131 202.492C103.403 202.22 103.723 202.012 104.091 201.868C104.459 201.724 104.855 201.652 105.279 201.652C105.711 201.652 106.111 201.724 106.479 201.868C106.847 202.012 107.163 202.22 107.427 202.492C107.699 202.764 107.911 203.104 108.063 203.512C108.223 203.912 108.303 204.368 108.303 204.88C108.303 205.4 108.223 205.86 108.063 206.26C107.911 206.66 107.699 207 107.427 207.28C107.163 207.552 106.847 207.76 106.479 207.904C106.111 208.048 105.711 208.12 105.279 208.12ZM105.279 207.172C105.559 207.172 105.815 207.128 106.047 207.04C106.287 206.944 106.495 206.804 106.671 206.62C106.847 206.428 106.983 206.188 107.079 205.9C107.175 205.612 107.223 205.272 107.223 204.88C107.223 204.488 107.175 204.148 107.079 203.86C106.983 203.572 106.847 203.336 106.671 203.152C106.495 202.96 106.287 202.82 106.047 202.732C105.815 202.636 105.559 202.588 105.279 202.588C104.999 202.588 104.743 202.636 104.511 202.732C104.279 202.82 104.075 202.96 103.899 203.152C103.731 203.336 103.599 203.572 103.503 203.86C103.407 204.148 103.359 204.488 103.359 204.88C103.359 205.272 103.407 205.612 103.503 205.9C103.599 206.188 103.731 206.428 103.899 206.62C104.075 206.804 104.279 206.944 104.511 207.04C104.743 207.128 104.999 207.172 105.279 207.172ZM109.895 206.068C110.007 205.66 110.079 205.108 110.111 204.412C110.143 203.716 110.159 202.836 110.159 201.772H114.347V208H113.279V202.672H111.155C111.147 203.528 111.119 204.288 111.071 204.952C111.031 205.616 110.939 206.176 110.795 206.632C110.659 207.088 110.455 207.436 110.183 207.676C109.919 207.908 109.563 208.024 109.115 208.024C109.083 208.024 109.051 208.024 109.019 208.024C108.987 208.024 108.951 208.02 108.911 208.012V206.968C108.951 206.976 109.003 206.98 109.067 206.98C109.475 206.98 109.751 206.676 109.895 206.068ZM118.615 208.12C118.191 208.12 117.795 208.048 117.427 207.904C117.059 207.76 116.739 207.552 116.467 207.28C116.203 207 115.995 206.66 115.843 206.26C115.691 205.86 115.615 205.4 115.615 204.88C115.615 204.368 115.691 203.912 115.843 203.512C115.995 203.104 116.203 202.764 116.467 202.492C116.739 202.22 117.059 202.012 117.427 201.868C117.795 201.724 118.191 201.652 118.615 201.652C119.047 201.652 119.447 201.724 119.815 201.868C120.183 202.012 120.499 202.22 120.763 202.492C121.035 202.764 121.247 203.104 121.399 203.512C121.559 203.912 121.639 204.368 121.639 204.88C121.639 205.4 121.559 205.86 121.399 206.26C121.247 206.66 121.035 207 120.763 207.28C120.499 207.552 120.183 207.76 119.815 207.904C119.447 208.048 119.047 208.12 118.615 208.12ZM118.615 207.172C118.895 207.172 119.151 207.128 119.383 207.04C119.623 206.944 119.831 206.804 120.007 206.62C120.183 206.428 120.319 206.188 120.415 205.9C120.511 205.612 120.559 205.272 120.559 204.88C120.559 204.488 120.511 204.148 120.415 203.86C120.319 203.572 120.183 203.336 120.007 203.152C119.831 202.96 119.623 202.82 119.383 202.732C119.151 202.636 118.895 202.588 118.615 202.588C118.335 202.588 118.079 202.636 117.847 202.732C117.615 202.82 117.411 202.96 117.235 203.152C117.067 203.336 116.935 203.572 116.839 203.86C116.743 204.148 116.695 204.488 116.695 204.88C116.695 205.272 116.743 205.612 116.839 205.9C116.935 206.188 117.067 206.428 117.235 206.62C117.411 206.804 117.615 206.944 117.847 207.04C118.079 207.128 118.335 207.172 118.615 207.172ZM122.927 201.772H125.255C126.007 201.772 126.575 201.904 126.959 202.168C127.343 202.424 127.535 202.828 127.535 203.38C127.535 203.748 127.439 204.044 127.247 204.268C127.063 204.484 126.799 204.64 126.455 204.736C127.343 204.88 127.787 205.372 127.787 206.212C127.787 206.532 127.723 206.808 127.595 207.04C127.467 207.264 127.291 207.448 127.067 207.592C126.843 207.736 126.571 207.84 126.251 207.904C125.939 207.968 125.599 208 125.23 208H122.927V201.772ZM123.983 202.672V204.364H125.159C125.559 204.364 125.879 204.292 126.119 204.148C126.367 204.004 126.491 203.796 126.491 203.524C126.491 203.196 126.383 202.972 126.167 202.852C125.951 202.732 125.643 202.672 125.243 202.672H123.983ZM123.983 205.204V207.1H125.219C125.443 207.1 125.643 207.088 125.819 207.064C126.003 207.032 126.159 206.98 126.287 206.908C126.423 206.836 126.527 206.74 126.599 206.62C126.671 206.5 126.707 206.352 126.707 206.176C126.707 205.816 126.583 205.564 126.335 205.42C126.087 205.276 125.715 205.204 125.219 205.204H123.983ZM131.928 208.12C131.504 208.12 131.108 208.048 130.74 207.904C130.372 207.76 130.052 207.552 129.78 207.28C129.516 207 129.308 206.66 129.156 206.26C129.004 205.86 128.928 205.4 128.928 204.88C128.928 204.368 129.004 203.912 129.156 203.512C129.308 203.104 129.516 202.764 129.78 202.492C130.052 202.22 130.372 202.012 130.74 201.868C131.108 201.724 131.504 201.652 131.928 201.652C132.36 201.652 132.76 201.724 133.128 201.868C133.496 202.012 133.812 202.22 134.076 202.492C134.348 202.764 134.56 203.104 134.712 203.512C134.872 203.912 134.952 204.368 134.952 204.88C134.952 205.4 134.872 205.86 134.712 206.26C134.56 206.66 134.348 207 134.076 207.28C133.812 207.552 133.496 207.76 133.128 207.904C132.76 208.048 132.36 208.12 131.928 208.12ZM131.928 207.172C132.208 207.172 132.464 207.128 132.696 207.04C132.936 206.944 133.144 206.804 133.32 206.62C133.496 206.428 133.632 206.188 133.728 205.9C133.824 205.612 133.872 205.272 133.872 204.88C133.872 204.488 133.824 204.148 133.728 203.86C133.632 203.572 133.496 203.336 133.32 203.152C133.144 202.96 132.936 202.82 132.696 202.732C132.464 202.636 132.208 202.588 131.928 202.588C131.648 202.588 131.392 202.636 131.16 202.732C130.928 202.82 130.724 202.96 130.548 203.152C130.38 203.336 130.248 203.572 130.152 203.86C130.056 204.148 130.008 204.488 130.008 204.88C130.008 205.272 130.056 205.612 130.152 205.9C130.248 206.188 130.38 206.428 130.548 206.62C130.724 206.804 130.928 206.944 131.16 207.04C131.392 207.128 131.648 207.172 131.928 207.172ZM137.847 205.348H137.295V208H136.239V201.772H137.295V204.448H137.895L140.079 201.772H141.279L138.723 204.844L141.327 208H140.043L137.847 205.348Z" fill="#262626"/>
<rect x="251" y="174" width="126" height="60" rx="10" fill="#D6E1FF"/>
<path d="M267.664 208.12C267.024 208.12 266.444 208.02 265.924 207.82C265.404 207.62 264.956 207.332 264.58 206.956C264.212 206.572 263.928 206.108 263.728 205.564C263.528 205.012 263.428 204.392 263.428 203.704C263.428 203.008 263.52 202.388 263.704 201.844C263.888 201.3 264.16 200.84 264.52 200.464C264.88 200.08 265.32 199.788 265.84 199.588C266.368 199.388 266.968 199.288 267.64 199.288C268.224 199.288 268.736 199.352 269.176 199.48C269.616 199.6 269.976 199.744 270.256 199.912V200.992C269.896 200.76 269.48 200.588 269.008 200.476C268.544 200.364 268.084 200.308 267.628 200.308C266.612 200.308 265.86 200.592 265.372 201.16C264.892 201.72 264.652 202.568 264.652 203.704C264.652 204.848 264.912 205.7 265.432 206.26C265.96 206.82 266.736 207.1 267.76 207.1C268.2 207.1 268.628 207.04 269.044 206.92C269.468 206.8 269.872 206.596 270.256 206.308V207.388C270.024 207.572 269.684 207.74 269.236 207.892C268.796 208.044 268.272 208.12 267.664 208.12ZM274.229 202.672V208H273.173V202.672H271.217V201.772H276.221V202.672H274.229ZM280.912 206.812C280.84 206.956 280.748 207.108 280.636 207.268C280.524 207.42 280.384 207.56 280.216 207.688C280.048 207.816 279.848 207.92 279.616 208C279.392 208.08 279.128 208.12 278.824 208.12C278.264 208.12 277.812 207.964 277.468 207.652C277.124 207.332 276.952 206.876 276.952 206.284C276.952 205.604 277.188 205.104 277.66 204.784C278.14 204.464 278.82 204.304 279.7 204.304H280.864V203.788C280.864 203.356 280.752 203.048 280.528 202.864C280.304 202.68 279.92 202.588 279.376 202.588C278.992 202.588 278.628 202.652 278.284 202.78C277.94 202.9 277.632 203.04 277.36 203.2V202.252C277.584 202.116 277.884 201.984 278.26 201.856C278.644 201.72 279.064 201.652 279.52 201.652C280.304 201.652 280.9 201.816 281.308 202.144C281.716 202.464 281.92 202.964 281.92 203.644V206.992C281.92 207.064 281.92 207.148 281.92 207.244C281.928 207.332 281.932 207.424 281.932 207.52C281.94 207.616 281.948 207.708 281.956 207.796C281.964 207.876 281.972 207.944 281.98 208H281.02C280.996 207.888 280.972 207.732 280.948 207.532C280.932 207.324 280.924 207.144 280.924 206.992L280.912 206.812ZM279.052 207.172C279.38 207.172 279.66 207.104 279.892 206.968C280.124 206.832 280.312 206.676 280.456 206.5C280.6 206.316 280.704 206.14 280.768 205.972C280.832 205.796 280.864 205.672 280.864 205.6V205.144H279.808C279.176 205.144 278.716 205.236 278.428 205.42C278.148 205.596 278.008 205.864 278.008 206.224C278.008 206.504 278.092 206.732 278.26 206.908C278.428 207.084 278.692 207.172 279.052 207.172ZM286.713 208.12C286.233 208.12 285.817 208.008 285.465 207.784C285.121 207.56 284.845 207.252 284.637 206.86V210.124H283.581V201.772H284.505L284.613 202.984C284.821 202.576 285.101 202.252 285.453 202.012C285.805 201.772 286.241 201.652 286.761 201.652C287.121 201.652 287.465 201.72 287.793 201.856C288.129 201.984 288.421 202.184 288.669 202.456C288.925 202.72 289.125 203.056 289.269 203.464C289.421 203.864 289.497 204.336 289.497 204.88C289.497 205.432 289.421 205.912 289.269 206.32C289.117 206.72 288.913 207.056 288.657 207.328C288.401 207.592 288.105 207.792 287.769 207.928C287.433 208.056 287.081 208.12 286.713 208.12ZM286.557 207.172C287.109 207.172 287.553 206.984 287.889 206.608C288.233 206.224 288.405 205.648 288.405 204.88C288.405 204.128 288.233 203.56 287.889 203.176C287.553 202.784 287.109 202.588 286.557 202.588C286.285 202.588 286.029 202.636 285.789 202.732C285.557 202.828 285.353 202.972 285.177 203.164C285.009 203.348 284.873 203.584 284.769 203.872C284.673 204.16 284.625 204.496 284.625 204.88C284.625 205.264 284.673 205.6 284.769 205.888C284.873 206.176 285.009 206.416 285.177 206.608C285.353 206.8 285.557 206.944 285.789 207.04C286.029 207.128 286.285 207.172 286.557 207.172ZM295.384 205.924C295.384 206.284 295.32 206.596 295.192 206.86C295.064 207.124 294.884 207.34 294.652 207.508C294.42 207.676 294.144 207.8 293.824 207.88C293.504 207.96 293.156 208 292.78 208H290.776V201.772H291.832V203.944H292.852C293.644 203.944 294.264 204.1 294.712 204.412C295.16 204.724 295.384 205.228 295.384 205.924ZM297.34 208H296.284V201.772H297.34V208ZM291.832 204.844V207.1H292.78C293.236 207.1 293.604 207.016 293.884 206.848C294.172 206.672 294.316 206.384 294.316 205.984C294.316 205.576 294.188 205.284 293.932 205.108C293.676 204.932 293.316 204.844 292.852 204.844H291.832ZM301.821 200.944C301.501 200.944 301.221 200.904 300.981 200.824C300.749 200.736 300.553 200.62 300.393 200.476C300.241 200.324 300.125 200.152 300.045 199.96C299.973 199.76 299.937 199.544 299.937 199.312H300.993C300.993 199.616 301.065 199.836 301.209 199.972C301.361 200.108 301.565 200.176 301.821 200.176C302.077 200.176 302.277 200.108 302.421 199.972C302.565 199.836 302.637 199.616 302.637 199.312H303.693C303.693 199.768 303.537 200.156 303.225 200.476C302.921 200.788 302.453 200.944 301.821 200.944ZM300.129 206.56L303.453 201.772H304.521V208H303.465V203.224L300.153 208H299.073V201.772H300.129V206.56ZM313.298 206.188C313.298 206.54 313.226 206.84 313.082 207.088C312.946 207.328 312.758 207.528 312.518 207.688C312.278 207.84 311.998 207.948 311.678 208.012C311.366 208.084 311.038 208.12 310.694 208.12C310.238 208.12 309.834 208.072 309.482 207.976C309.138 207.88 308.866 207.764 308.666 207.628V206.68C308.914 206.832 309.21 206.952 309.554 207.04C309.898 207.128 310.27 207.172 310.67 207.172C311.126 207.172 311.506 207.1 311.81 206.956C312.122 206.804 312.278 206.548 312.278 206.188C312.278 205.836 312.146 205.588 311.882 205.444C311.626 205.3 311.23 205.228 310.694 205.228H309.866V204.376H310.73C311.17 204.376 311.506 204.296 311.738 204.136C311.97 203.976 312.086 203.744 312.086 203.44C312.086 203.28 312.046 203.148 311.966 203.044C311.894 202.932 311.794 202.844 311.666 202.78C311.538 202.708 311.386 202.66 311.21 202.636C311.042 202.604 310.862 202.588 310.67 202.588C310.302 202.588 309.958 202.632 309.638 202.72C309.326 202.808 309.042 202.932 308.786 203.092V202.144C308.994 202.008 309.262 201.892 309.59 201.796C309.926 201.7 310.314 201.652 310.754 201.652C311.514 201.652 312.086 201.796 312.47 202.084C312.862 202.372 313.058 202.788 313.058 203.332C313.058 203.74 312.946 204.06 312.722 204.292C312.506 204.524 312.198 204.684 311.798 204.772C312.294 204.836 312.666 204.992 312.914 205.24C313.17 205.488 313.298 205.804 313.298 206.188ZM318.494 206.812C318.422 206.956 318.33 207.108 318.218 207.268C318.106 207.42 317.966 207.56 317.798 207.688C317.63 207.816 317.43 207.92 317.198 208C316.974 208.08 316.71 208.12 316.406 208.12C315.846 208.12 315.394 207.964 315.05 207.652C314.706 207.332 314.534 206.876 314.534 206.284C314.534 205.604 314.77 205.104 315.242 204.784C315.722 204.464 316.402 204.304 317.282 204.304H318.446V203.788C318.446 203.356 318.334 203.048 318.11 202.864C317.886 202.68 317.502 202.588 316.958 202.588C316.574 202.588 316.21 202.652 315.866 202.78C315.522 202.9 315.214 203.04 314.942 203.2V202.252C315.166 202.116 315.466 201.984 315.842 201.856C316.226 201.72 316.646 201.652 317.102 201.652C317.886 201.652 318.482 201.816 318.89 202.144C319.298 202.464 319.502 202.964 319.502 203.644V206.992C319.502 207.064 319.502 207.148 319.502 207.244C319.51 207.332 319.514 207.424 319.514 207.52C319.522 207.616 319.53 207.708 319.538 207.796C319.546 207.876 319.554 207.944 319.562 208H318.602C318.578 207.888 318.554 207.732 318.53 207.532C318.514 207.324 318.506 207.144 318.506 206.992L318.494 206.812ZM316.634 207.172C316.962 207.172 317.242 207.104 317.474 206.968C317.706 206.832 317.894 206.676 318.038 206.5C318.182 206.316 318.286 206.14 318.35 205.972C318.414 205.796 318.446 205.672 318.446 205.6V205.144H317.39C316.758 205.144 316.298 205.236 316.01 205.42C315.73 205.596 315.59 205.864 315.59 206.224C315.59 206.504 315.674 206.732 315.842 206.908C316.01 207.084 316.274 207.172 316.634 207.172ZM321.163 201.772H325.123V202.672H322.219V208H321.163V201.772ZM328.781 208.12C328.357 208.12 327.961 208.048 327.593 207.904C327.225 207.76 326.905 207.552 326.633 207.28C326.369 207 326.161 206.66 326.009 206.26C325.857 205.86 325.781 205.4 325.781 204.88C325.781 204.368 325.857 203.912 326.009 203.512C326.161 203.104 326.369 202.764 326.633 202.492C326.905 202.22 327.225 202.012 327.593 201.868C327.961 201.724 328.357 201.652 328.781 201.652C329.213 201.652 329.613 201.724 329.981 201.868C330.349 202.012 330.665 202.22 330.929 202.492C331.201 202.764 331.413 203.104 331.565 203.512C331.725 203.912 331.805 204.368 331.805 204.88C331.805 205.4 331.725 205.86 331.565 206.26C331.413 206.66 331.201 207 330.929 207.28C330.665 207.552 330.349 207.76 329.981 207.904C329.613 208.048 329.213 208.12 328.781 208.12ZM328.781 207.172C329.061 207.172 329.317 207.128 329.549 207.04C329.789 206.944 329.997 206.804 330.173 206.62C330.349 206.428 330.485 206.188 330.581 205.9C330.677 205.612 330.725 205.272 330.725 204.88C330.725 204.488 330.677 204.148 330.581 203.86C330.485 203.572 330.349 203.336 330.173 203.152C329.997 202.96 329.789 202.82 329.549 202.732C329.317 202.636 329.061 202.588 328.781 202.588C328.501 202.588 328.245 202.636 328.013 202.732C327.781 202.82 327.577 202.96 327.401 203.152C327.233 203.336 327.101 203.572 327.005 203.86C326.909 204.148 326.861 204.488 326.861 204.88C326.861 205.272 326.909 205.612 327.005 205.9C327.101 206.188 327.233 206.428 327.401 206.62C327.577 206.804 327.781 206.944 328.013 207.04C328.245 207.128 328.501 207.172 328.781 207.172ZM333.397 206.068C333.509 205.66 333.581 205.108 333.613 204.412C333.645 203.716 333.661 202.836 333.661 201.772H337.849V208H336.781V202.672H334.657C334.649 203.528 334.621 204.288 334.573 204.952C334.533 205.616 334.441 206.176 334.297 206.632C334.161 207.088 333.957 207.436 333.685 207.676C333.421 207.908 333.065 208.024 332.617 208.024C332.585 208.024 332.553 208.024 332.521 208.024C332.489 208.024 332.453 208.02 332.413 208.012V206.968C332.453 206.976 332.505 206.98 332.569 206.98C332.977 206.98 333.253 206.676 333.397 206.068ZM342.117 208.12C341.693 208.12 341.297 208.048 340.929 207.904C340.561 207.76 340.241 207.552 339.969 207.28C339.705 207 339.497 206.66 339.345 206.26C339.193 205.86 339.117 205.4 339.117 204.88C339.117 204.368 339.193 203.912 339.345 203.512C339.497 203.104 339.705 202.764 339.969 202.492C340.241 202.22 340.561 202.012 340.929 201.868C341.297 201.724 341.693 201.652 342.117 201.652C342.549 201.652 342.949 201.724 343.317 201.868C343.685 202.012 344.001 202.22 344.265 202.492C344.537 202.764 344.749 203.104 344.901 203.512C345.061 203.912 345.141 204.368 345.141 204.88C345.141 205.4 345.061 205.86 344.901 206.26C344.749 206.66 344.537 207 344.265 207.28C344.001 207.552 343.685 207.76 343.317 207.904C342.949 208.048 342.549 208.12 342.117 208.12ZM342.117 207.172C342.397 207.172 342.653 207.128 342.885 207.04C343.125 206.944 343.333 206.804 343.509 206.62C343.685 206.428 343.821 206.188 343.917 205.9C344.013 205.612 344.061 205.272 344.061 204.88C344.061 204.488 344.013 204.148 343.917 203.86C343.821 203.572 343.685 203.336 343.509 203.152C343.333 202.96 343.125 202.82 342.885 202.732C342.653 202.636 342.397 202.588 342.117 202.588C341.837 202.588 341.581 202.636 341.349 202.732C341.117 202.82 340.913 202.96 340.737 203.152C340.569 203.336 340.437 203.572 340.341 203.86C340.245 204.148 340.197 204.488 340.197 204.88C340.197 205.272 340.245 205.612 340.341 205.9C340.437 206.188 340.569 206.428 340.737 206.62C340.913 206.804 341.117 206.944 341.349 207.04C341.581 207.128 341.837 207.172 342.117 207.172ZM346.428 201.772H348.756C349.508 201.772 350.076 201.904 350.46 202.168C350.844 202.424 351.036 202.828 351.036 203.38C351.036 203.748 350.94 204.044 350.748 204.268C350.564 204.484 350.3 204.64 349.956 204.736C350.844 204.88 351.288 205.372 351.288 206.212C351.288 206.532 351.224 206.808 351.096 207.04C350.968 207.264 350.792 207.448 350.568 207.592C350.344 207.736 350.072 207.84 349.752 207.904C349.44 207.968 349.1 208 348.732 208H346.428V201.772ZM347.484 202.672V204.364H348.66C349.06 204.364 349.38 204.292 349.62 204.148C349.868 204.004 349.992 203.796 349.992 203.524C349.992 203.196 349.884 202.972 349.668 202.852C349.452 202.732 349.144 202.672 348.744 202.672H347.484ZM347.484 205.204V207.1H348.72C348.944 207.1 349.144 207.088 349.32 207.064C349.504 207.032 349.66 206.98 349.788 206.908C349.924 206.836 350.028 206.74 350.1 206.62C350.172 206.5 350.208 206.352 350.208 206.176C350.208 205.816 350.084 205.564 349.836 205.42C349.588 205.276 349.216 205.204 348.72 205.204H347.484ZM355.43 208.12C355.006 208.12 354.61 208.048 354.242 207.904C353.874 207.76 353.554 207.552 353.282 207.28C353.018 207 352.81 206.66 352.658 206.26C352.506 205.86 352.43 205.4 352.43 204.88C352.43 204.368 352.506 203.912 352.658 203.512C352.81 203.104 353.018 202.764 353.282 202.492C353.554 202.22 353.874 202.012 354.242 201.868C354.61 201.724 355.006 201.652 355.43 201.652C355.862 201.652 356.262 201.724 356.63 201.868C356.998 202.012 357.314 202.22 357.578 202.492C357.85 202.764 358.062 203.104 358.214 203.512C358.374 203.912 358.454 204.368 358.454 204.88C358.454 205.4 358.374 205.86 358.214 206.26C358.062 206.66 357.85 207 357.578 207.28C357.314 207.552 356.998 207.76 356.63 207.904C356.262 208.048 355.862 208.12 355.43 208.12ZM355.43 207.172C355.71 207.172 355.966 207.128 356.198 207.04C356.438 206.944 356.646 206.804 356.822 206.62C356.998 206.428 357.134 206.188 357.23 205.9C357.326 205.612 357.374 205.272 357.374 204.88C357.374 204.488 357.326 204.148 357.23 203.86C357.134 203.572 356.998 203.336 356.822 203.152C356.646 202.96 356.438 202.82 356.198 202.732C355.966 202.636 355.71 202.588 355.43 202.588C355.15 202.588 354.894 202.636 354.662 202.732C354.43 202.82 354.226 202.96 354.05 203.152C353.882 203.336 353.75 203.572 353.654 203.86C353.558 204.148 353.51 204.488 353.51 204.88C353.51 205.272 353.558 205.612 353.654 205.9C353.75 206.188 353.882 206.428 354.05 206.62C354.226 206.804 354.43 206.944 354.662 207.04C354.894 207.128 355.15 207.172 355.43 207.172ZM361.349 205.348H360.797V208H359.741V201.772H360.797V204.448H361.397L363.581 201.772H364.781L362.225 204.844L364.829 208H363.545L361.349 205.348Z" fill="#262626"/>
<rect x="387" y="174" width="126" height="60" rx="10" fill="#D6E1FF"/>
<path d="M397.647 199.396H404.115V208H402.975V200.428H398.775V208H397.647V199.396ZM408.531 208.12C408.107 208.12 407.711 208.048 407.343 207.904C406.975 207.76 406.655 207.552 406.383 207.28C406.119 207 405.911 206.66 405.759 206.26C405.607 205.86 405.531 205.4 405.531 204.88C405.531 204.368 405.607 203.912 405.759 203.512C405.911 203.104 406.119 202.764 406.383 202.492C406.655 202.22 406.975 202.012 407.343 201.868C407.711 201.724 408.107 201.652 408.531 201.652C408.963 201.652 409.363 201.724 409.731 201.868C410.099 202.012 410.415 202.22 410.679 202.492C410.951 202.764 411.163 203.104 411.315 203.512C411.475 203.912 411.555 204.368 411.555 204.88C411.555 205.4 411.475 205.86 411.315 206.26C411.163 206.66 410.951 207 410.679 207.28C410.415 207.552 410.099 207.76 409.731 207.904C409.363 208.048 408.963 208.12 408.531 208.12ZM408.531 207.172C408.811 207.172 409.067 207.128 409.299 207.04C409.539 206.944 409.747 206.804 409.923 206.62C410.099 206.428 410.235 206.188 410.331 205.9C410.427 205.612 410.475 205.272 410.475 204.88C410.475 204.488 410.427 204.148 410.331 203.86C410.235 203.572 410.099 203.336 409.923 203.152C409.747 202.96 409.539 202.82 409.299 202.732C409.067 202.636 408.811 202.588 408.531 202.588C408.251 202.588 407.995 202.636 407.763 202.732C407.531 202.82 407.327 202.96 407.151 203.152C406.983 203.336 406.851 203.572 406.755 203.86C406.659 204.148 406.611 204.488 406.611 204.88C406.611 205.272 406.659 205.612 406.755 205.9C406.851 206.188 406.983 206.428 407.151 206.62C407.327 206.804 407.531 206.944 407.763 207.04C407.995 207.128 408.251 207.172 408.531 207.172ZM413.147 206.068C413.259 205.66 413.331 205.108 413.363 204.412C413.395 203.716 413.411 202.836 413.411 201.772H417.599V208H416.531V202.672H414.407C414.399 203.528 414.371 204.288 414.323 204.952C414.283 205.616 414.191 206.176 414.047 206.632C413.911 207.088 413.707 207.436 413.435 207.676C413.171 207.908 412.815 208.024 412.367 208.024C412.335 208.024 412.303 208.024 412.271 208.024C412.239 208.024 412.203 208.02 412.163 208.012V206.968C412.203 206.976 412.255 206.98 412.319 206.98C412.727 206.98 413.003 206.676 413.147 206.068ZM424.267 207.472C424.179 207.536 424.071 207.604 423.943 207.676C423.815 207.748 423.659 207.82 423.475 207.892C423.291 207.956 423.083 208.008 422.851 208.048C422.619 208.096 422.359 208.12 422.071 208.12C421.023 208.12 420.227 207.836 419.683 207.268C419.139 206.7 418.867 205.904 418.867 204.88C418.867 204.376 418.939 203.924 419.083 203.524C419.235 203.124 419.443 202.788 419.707 202.516C419.971 202.236 420.283 202.024 420.643 201.88C421.003 201.728 421.395 201.652 421.819 201.652C422.267 201.652 422.667 201.728 423.019 201.88C423.371 202.032 423.659 202.256 423.883 202.552C424.115 202.848 424.271 203.216 424.351 203.656C424.439 204.088 424.439 204.592 424.351 205.168H419.959C419.999 205.84 420.199 206.344 420.559 206.68C420.919 207.008 421.455 207.172 422.167 207.172C422.647 207.172 423.059 207.104 423.403 206.968C423.747 206.832 424.035 206.684 424.267 206.524V207.472ZM421.795 202.588C421.339 202.588 420.947 202.728 420.619 203.008C420.291 203.288 420.083 203.712 419.995 204.28H423.343C423.375 203.704 423.243 203.28 422.947 203.008C422.651 202.728 422.267 202.588 421.795 202.588ZM430.184 206.188C430.184 206.54 430.112 206.84 429.968 207.088C429.832 207.328 429.644 207.528 429.404 207.688C429.164 207.84 428.884 207.948 428.564 208.012C428.252 208.084 427.924 208.12 427.58 208.12C427.124 208.12 426.72 208.072 426.368 207.976C426.024 207.88 425.752 207.764 425.552 207.628V206.68C425.8 206.832 426.096 206.952 426.44 207.04C426.784 207.128 427.156 207.172 427.556 207.172C428.012 207.172 428.392 207.1 428.696 206.956C429.008 206.804 429.164 206.548 429.164 206.188C429.164 205.836 429.032 205.588 428.768 205.444C428.512 205.3 428.116 205.228 427.58 205.228H426.752V204.376H427.616C428.056 204.376 428.392 204.296 428.624 204.136C428.856 203.976 428.972 203.744 428.972 203.44C428.972 203.28 428.932 203.148 428.852 203.044C428.78 202.932 428.68 202.844 428.552 202.78C428.424 202.708 428.272 202.66 428.096 202.636C427.928 202.604 427.748 202.588 427.556 202.588C427.188 202.588 426.844 202.632 426.524 202.72C426.212 202.808 425.928 202.932 425.672 203.092V202.144C425.88 202.008 426.148 201.892 426.476 201.796C426.812 201.7 427.2 201.652 427.64 201.652C428.4 201.652 428.972 201.796 429.356 202.084C429.748 202.372 429.944 202.788 429.944 203.332C429.944 203.74 429.832 204.06 429.608 204.292C429.392 204.524 429.084 204.684 428.684 204.772C429.18 204.836 429.552 204.992 429.8 205.24C430.056 205.488 430.184 205.804 430.184 206.188ZM435.801 205.24H432.789V208H431.733V201.772H432.789V204.34H435.801V201.772H436.857V208H435.801V205.24ZM442.237 206.812C442.165 206.956 442.073 207.108 441.961 207.268C441.849 207.42 441.709 207.56 441.541 207.688C441.373 207.816 441.173 207.92 440.941 208C440.717 208.08 440.453 208.12 440.149 208.12C439.589 208.12 439.137 207.964 438.793 207.652C438.449 207.332 438.277 206.876 438.277 206.284C438.277 205.604 438.513 205.104 438.985 204.784C439.465 204.464 440.145 204.304 441.025 204.304H442.189V203.788C442.189 203.356 442.077 203.048 441.853 202.864C441.629 202.68 441.245 202.588 440.701 202.588C440.317 202.588 439.953 202.652 439.609 202.78C439.265 202.9 438.957 203.04 438.685 203.2V202.252C438.909 202.116 439.209 201.984 439.585 201.856C439.969 201.72 440.389 201.652 440.845 201.652C441.629 201.652 442.225 201.816 442.633 202.144C443.041 202.464 443.245 202.964 443.245 203.644V206.992C443.245 207.064 443.245 207.148 443.245 207.244C443.253 207.332 443.257 207.424 443.257 207.52C443.265 207.616 443.273 207.708 443.281 207.796C443.289 207.876 443.297 207.944 443.305 208H442.345C442.321 207.888 442.297 207.732 442.273 207.532C442.257 207.324 442.249 207.144 442.249 206.992L442.237 206.812ZM440.377 207.172C440.705 207.172 440.985 207.104 441.217 206.968C441.449 206.832 441.637 206.676 441.781 206.5C441.925 206.316 442.029 206.14 442.093 205.972C442.157 205.796 442.189 205.672 442.189 205.6V205.144H441.133C440.501 205.144 440.041 205.236 439.753 205.42C439.473 205.596 439.333 205.864 439.333 206.224C439.333 206.504 439.417 206.732 439.585 206.908C439.753 207.084 440.017 207.172 440.377 207.172ZM444.905 203.788C444.905 203.436 444.969 203.136 445.097 202.888C445.225 202.632 445.405 202.424 445.637 202.264C445.869 202.096 446.145 201.972 446.465 201.892C446.785 201.812 447.133 201.772 447.509 201.772H449.513V208H448.457V205.744H447.317L445.721 208H444.461L446.261 205.48C445.829 205.352 445.493 205.156 445.253 204.892C445.021 204.628 444.905 204.26 444.905 203.788ZM448.457 204.844V202.672H447.509C447.061 202.672 446.693 202.756 446.405 202.924C446.117 203.092 445.973 203.364 445.973 203.74C445.973 204.132 446.101 204.416 446.357 204.592C446.613 204.76 446.977 204.844 447.449 204.844H448.457ZM457.95 205.24H454.938V208H453.882V201.772H454.938V204.34H457.95V201.772H459.006V208H457.95V205.24ZM464.385 206.812C464.313 206.956 464.221 207.108 464.109 207.268C463.997 207.42 463.857 207.56 463.689 207.688C463.521 207.816 463.321 207.92 463.089 208C462.865 208.08 462.601 208.12 462.297 208.12C461.737 208.12 461.285 207.964 460.941 207.652C460.597 207.332 460.425 206.876 460.425 206.284C460.425 205.604 460.661 205.104 461.133 204.784C461.613 204.464 462.293 204.304 463.173 204.304H464.337V203.788C464.337 203.356 464.225 203.048 464.001 202.864C463.777 202.68 463.393 202.588 462.849 202.588C462.465 202.588 462.101 202.652 461.757 202.78C461.413 202.9 461.105 203.04 460.833 203.2V202.252C461.057 202.116 461.357 201.984 461.733 201.856C462.117 201.72 462.537 201.652 462.993 201.652C463.777 201.652 464.373 201.816 464.781 202.144C465.189 202.464 465.393 202.964 465.393 203.644V206.992C465.393 207.064 465.393 207.148 465.393 207.244C465.401 207.332 465.405 207.424 465.405 207.52C465.413 207.616 465.421 207.708 465.429 207.796C465.437 207.876 465.445 207.944 465.453 208H464.493C464.469 207.888 464.445 207.732 464.421 207.532C464.405 207.324 464.397 207.144 464.397 206.992L464.385 206.812ZM462.525 207.172C462.853 207.172 463.133 207.104 463.365 206.968C463.597 206.832 463.785 206.676 463.929 206.5C464.073 206.316 464.177 206.14 464.241 205.972C464.305 205.796 464.337 205.672 464.337 205.6V205.144H463.281C462.649 205.144 462.189 205.236 461.901 205.42C461.621 205.596 461.481 205.864 461.481 206.224C461.481 206.504 461.565 206.732 461.733 206.908C461.901 207.084 462.165 207.172 462.525 207.172ZM467.053 201.772H471.013V202.672H468.109V208H467.053V201.772ZM475.424 208.12C474.944 208.12 474.528 208.008 474.176 207.784C473.832 207.56 473.556 207.252 473.348 206.86V210.124H472.292V201.772H473.216L473.324 202.984C473.532 202.576 473.812 202.252 474.164 202.012C474.516 201.772 474.952 201.652 475.472 201.652C475.832 201.652 476.176 201.72 476.504 201.856C476.84 201.984 477.132 202.184 477.38 202.456C477.636 202.72 477.836 203.056 477.98 203.464C478.132 203.864 478.208 204.336 478.208 204.88C478.208 205.432 478.132 205.912 477.98 206.32C477.828 206.72 477.624 207.056 477.368 207.328C477.112 207.592 476.816 207.792 476.48 207.928C476.144 208.056 475.792 208.12 475.424 208.12ZM475.268 207.172C475.82 207.172 476.264 206.984 476.6 206.608C476.944 206.224 477.116 205.648 477.116 204.88C477.116 204.128 476.944 203.56 476.6 203.176C476.264 202.784 475.82 202.588 475.268 202.588C474.996 202.588 474.74 202.636 474.5 202.732C474.268 202.828 474.064 202.972 473.888 203.164C473.72 203.348 473.584 203.584 473.48 203.872C473.384 204.16 473.336 204.496 473.336 204.88C473.336 205.264 473.384 205.6 473.48 205.888C473.584 206.176 473.72 206.416 473.888 206.608C474.064 206.8 474.268 206.944 474.5 207.04C474.74 207.128 474.996 207.172 475.268 207.172ZM482.488 207.928C482.344 208.304 482.192 208.632 482.032 208.912C481.872 209.2 481.692 209.444 481.492 209.644C481.292 209.844 481.068 209.992 480.82 210.088C480.572 210.192 480.288 210.244 479.968 210.244C479.808 210.244 479.66 210.232 479.524 210.208C479.388 210.192 479.264 210.16 479.152 210.112V209.092C479.24 209.156 479.352 209.204 479.488 209.236C479.624 209.276 479.772 209.296 479.932 209.296C480.228 209.296 480.472 209.224 480.664 209.08C480.856 208.944 481.04 208.724 481.216 208.42L478.684 201.772H479.848L481.828 207.028L483.796 201.772H484.816L482.488 207.928ZM490.278 206.188C490.278 206.54 490.206 206.84 490.062 207.088C489.926 207.328 489.738 207.528 489.498 207.688C489.258 207.84 488.978 207.948 488.658 208.012C488.346 208.084 488.018 208.12 487.674 208.12C487.218 208.12 486.814 208.072 486.462 207.976C486.118 207.88 485.846 207.764 485.646 207.628V206.68C485.894 206.832 486.19 206.952 486.534 207.04C486.878 207.128 487.25 207.172 487.65 207.172C488.106 207.172 488.486 207.1 488.79 206.956C489.102 206.804 489.258 206.548 489.258 206.188C489.258 205.836 489.126 205.588 488.862 205.444C488.606 205.3 488.21 205.228 487.674 205.228H486.846V204.376H487.71C488.15 204.376 488.486 204.296 488.718 204.136C488.95 203.976 489.066 203.744 489.066 203.44C489.066 203.28 489.026 203.148 488.946 203.044C488.874 202.932 488.774 202.844 488.646 202.78C488.518 202.708 488.366 202.66 488.19 202.636C488.022 202.604 487.842 202.588 487.65 202.588C487.282 202.588 486.938 202.632 486.618 202.72C486.306 202.808 486.022 202.932 485.766 203.092V202.144C485.974 202.008 486.242 201.892 486.57 201.796C486.906 201.7 487.294 201.652 487.734 201.652C488.494 201.652 489.066 201.796 489.45 202.084C489.842 202.372 490.038 202.788 490.038 203.332C490.038 203.74 489.926 204.06 489.702 204.292C489.486 204.524 489.178 204.684 488.778 204.772C489.274 204.836 489.646 204.992 489.894 205.24C490.15 205.488 490.278 205.804 490.278 206.188ZM493.435 205.348H492.883V208H491.827V201.772H492.883V204.448H493.483L495.667 201.772H496.867L494.311 204.844L496.915 208H495.631L493.435 205.348ZM501.557 206.812C501.485 206.956 501.393 207.108 501.281 207.268C501.169 207.42 501.029 207.56 500.861 207.688C500.693 207.816 500.493 207.92 500.261 208C500.037 208.08 499.773 208.12 499.469 208.12C498.909 208.12 498.457 207.964 498.113 207.652C497.769 207.332 497.597 206.876 497.597 206.284C497.597 205.604 497.833 205.104 498.305 204.784C498.785 204.464 499.465 204.304 500.345 204.304H501.509V203.788C501.509 203.356 501.397 203.048 501.173 202.864C500.949 202.68 500.565 202.588 500.021 202.588C499.637 202.588 499.273 202.652 498.929 202.78C498.585 202.9 498.277 203.04 498.005 203.2V202.252C498.229 202.116 498.529 201.984 498.905 201.856C499.289 201.72 499.709 201.652 500.165 201.652C500.949 201.652 501.545 201.816 501.953 202.144C502.361 202.464 502.565 202.964 502.565 203.644V206.992C502.565 207.064 502.565 207.148 502.565 207.244C502.573 207.332 502.577 207.424 502.577 207.52C502.585 207.616 502.593 207.708 502.601 207.796C502.609 207.876 502.617 207.944 502.625 208H501.665C501.641 207.888 501.617 207.732 501.593 207.532C501.577 207.324 501.569 207.144 501.569 206.992L501.557 206.812ZM499.697 207.172C500.025 207.172 500.305 207.104 500.537 206.968C500.769 206.832 500.957 206.676 501.101 206.5C501.245 206.316 501.349 206.14 501.413 205.972C501.477 205.796 501.509 205.672 501.509 205.6V205.144H500.453C499.821 205.144 499.361 205.236 499.073 205.42C498.793 205.596 498.653 205.864 498.653 206.224C498.653 206.504 498.737 206.732 498.905 206.908C499.073 207.084 499.337 207.172 499.697 207.172Z" fill="#262626"/>
<rect x="523" y="174" width="126" height="60" rx="10" fill="#D6E1FF"/>
<path d="M566.369 200.44V208H565.229V200.44H562.577V199.396H569.021V200.44H566.369ZM572.658 208.12C572.178 208.12 571.762 208.008 571.41 207.784C571.066 207.56 570.79 207.252 570.582 206.86V210.124H569.526V201.772H570.45L570.558 202.984C570.766 202.576 571.046 202.252 571.398 202.012C571.75 201.772 572.186 201.652 572.706 201.652C573.066 201.652 573.41 201.72 573.738 201.856C574.074 201.984 574.366 202.184 574.614 202.456C574.87 202.72 575.07 203.056 575.214 203.464C575.366 203.864 575.442 204.336 575.442 204.88C575.442 205.432 575.366 205.912 575.214 206.32C575.062 206.72 574.858 207.056 574.602 207.328C574.346 207.592 574.05 207.792 573.714 207.928C573.378 208.056 573.026 208.12 572.658 208.12ZM572.502 207.172C573.054 207.172 573.498 206.984 573.834 206.608C574.178 206.224 574.35 205.648 574.35 204.88C574.35 204.128 574.178 203.56 573.834 203.176C573.498 202.784 573.054 202.588 572.502 202.588C572.23 202.588 571.974 202.636 571.734 202.732C571.502 202.828 571.298 202.972 571.122 203.164C570.954 203.348 570.818 203.584 570.714 203.872C570.618 204.16 570.57 204.496 570.57 204.88C570.57 205.264 570.618 205.6 570.714 205.888C570.818 206.176 570.954 206.416 571.122 206.608C571.298 206.8 571.502 206.944 571.734 207.04C571.974 207.128 572.23 207.172 572.502 207.172ZM581.677 207.472C581.589 207.536 581.481 207.604 581.353 207.676C581.225 207.748 581.069 207.82 580.885 207.892C580.701 207.956 580.493 208.008 580.261 208.048C580.029 208.096 579.769 208.12 579.481 208.12C578.433 208.12 577.637 207.836 577.093 207.268C576.549 206.7 576.277 205.904 576.277 204.88C576.277 204.376 576.349 203.924 576.493 203.524C576.645 203.124 576.853 202.788 577.117 202.516C577.381 202.236 577.693 202.024 578.053 201.88C578.413 201.728 578.805 201.652 579.229 201.652C579.677 201.652 580.077 201.728 580.429 201.88C580.781 202.032 581.069 202.256 581.293 202.552C581.525 202.848 581.681 203.216 581.761 203.656C581.849 204.088 581.849 204.592 581.761 205.168H577.369C577.409 205.84 577.609 206.344 577.969 206.68C578.329 207.008 578.865 207.172 579.577 207.172C580.057 207.172 580.469 207.104 580.813 206.968C581.157 206.832 581.445 206.684 581.677 206.524V207.472ZM579.205 202.588C578.749 202.588 578.357 202.728 578.029 203.008C577.701 203.288 577.493 203.712 577.405 204.28H580.753C580.785 203.704 580.653 203.28 580.357 203.008C580.061 202.728 579.677 202.588 579.205 202.588ZM585.926 200.944C585.606 200.944 585.326 200.904 585.086 200.824C584.854 200.736 584.658 200.62 584.498 200.476C584.346 200.324 584.23 200.152 584.15 199.96C584.078 199.76 584.042 199.544 584.042 199.312H585.098C585.098 199.616 585.17 199.836 585.314 199.972C585.466 200.108 585.67 200.176 585.926 200.176C586.182 200.176 586.382 200.108 586.526 199.972C586.67 199.836 586.742 199.616 586.742 199.312H587.798C587.798 199.768 587.642 200.156 587.33 200.476C587.026 200.788 586.558 200.944 585.926 200.944ZM584.234 206.56L587.558 201.772H588.626V208H587.57V203.224L584.258 208H583.178V201.772H584.234V206.56ZM590.83 206.068C590.942 205.66 591.014 205.108 591.046 204.412C591.078 203.716 591.094 202.836 591.094 201.772H595.282V208H594.214V202.672H592.09C592.082 203.528 592.054 204.288 592.006 204.952C591.966 205.616 591.874 206.176 591.73 206.632C591.594 207.088 591.39 207.436 591.118 207.676C590.854 207.908 590.498 208.024 590.05 208.024C590.018 208.024 589.986 208.024 589.954 208.024C589.922 208.024 589.886 208.02 589.846 208.012V206.968C589.886 206.976 589.938 206.98 590.002 206.98C590.41 206.98 590.686 206.676 590.83 206.068ZM601.951 207.472C601.863 207.536 601.755 207.604 601.627 207.676C601.499 207.748 601.343 207.82 601.159 207.892C600.975 207.956 600.767 208.008 600.535 208.048C600.303 208.096 600.043 208.12 599.755 208.12C598.707 208.12 597.911 207.836 597.367 207.268C596.823 206.7 596.551 205.904 596.551 204.88C596.551 204.376 596.623 203.924 596.767 203.524C596.919 203.124 597.127 202.788 597.391 202.516C597.655 202.236 597.967 202.024 598.327 201.88C598.687 201.728 599.079 201.652 599.503 201.652C599.951 201.652 600.351 201.728 600.703 201.88C601.055 202.032 601.343 202.256 601.567 202.552C601.799 202.848 601.955 203.216 602.035 203.656C602.123 204.088 602.123 204.592 602.035 205.168H597.643C597.683 205.84 597.883 206.344 598.243 206.68C598.603 207.008 599.139 207.172 599.851 207.172C600.331 207.172 600.743 207.104 601.087 206.968C601.431 206.832 601.719 206.684 601.951 206.524V207.472ZM599.479 202.588C599.023 202.588 598.631 202.728 598.303 203.008C597.975 203.288 597.767 203.712 597.679 204.28H601.027C601.059 203.704 600.927 203.28 600.631 203.008C600.335 202.728 599.951 202.588 599.479 202.588ZM606.584 208.12C606.104 208.12 605.688 208.008 605.336 207.784C604.992 207.56 604.716 207.252 604.508 206.86V210.124H603.452V201.772H604.376L604.484 202.984C604.692 202.576 604.972 202.252 605.324 202.012C605.676 201.772 606.112 201.652 606.632 201.652C606.992 201.652 607.336 201.72 607.664 201.856C608 201.984 608.292 202.184 608.54 202.456C608.796 202.72 608.996 203.056 609.14 203.464C609.292 203.864 609.368 204.336 609.368 204.88C609.368 205.432 609.292 205.912 609.14 206.32C608.988 206.72 608.784 207.056 608.528 207.328C608.272 207.592 607.976 207.792 607.64 207.928C607.304 208.056 606.952 208.12 606.584 208.12ZM606.428 207.172C606.98 207.172 607.424 206.984 607.76 206.608C608.104 206.224 608.276 205.648 608.276 204.88C608.276 204.128 608.104 203.56 607.76 203.176C607.424 202.784 606.98 202.588 606.428 202.588C606.156 202.588 605.9 202.636 605.66 202.732C605.428 202.828 605.224 202.972 605.048 203.164C604.88 203.348 604.744 203.584 604.64 203.872C604.544 204.16 604.496 204.496 604.496 204.88C604.496 205.264 604.544 205.6 604.64 205.888C604.744 206.176 604.88 206.416 605.048 206.608C605.224 206.8 605.428 206.944 605.66 207.04C605.9 207.128 606.156 207.172 606.428 207.172Z" fill="#262626"/>
<defs>
<filter id="filter0_d_3_183" x="2" y="3" width="696" height="315" filterUnits="userSpaceOnUse" color-interpolation-filters="sRGB">
<feFlood flood-opacity="0" result="BackgroundImageFix"/>
<feColorMatrix in="SourceAlpha" type="matrix" values="0 0 0 0 0 0 0 0 0 0 0 0 0 0 0 0 0 0 127 0" result="hardAlpha"/>
<feOffset/>
<feGaussianBlur stdDeviation="5"/>
<feComposite in2="hardAlpha" operator="out"/>
<feColorMatrix type="matrix" values="0 0 0 0 0.321569 0 0 0 0 0.509804 0 0 0 0 1 0 0 0 0.15 0"/>
<feBlend mode="normal" in2="BackgroundImageFix" result="effect1_dropShadow_3_183"/>
<feBlend mode="normal" in="SourceGraphic" in2="effect1_dropShadow_3_183" result="shape"/>
</filter>
</defs>
</svg>
