<svg xmlns="http://www.w3.org/2000/svg" width="700" height="340" fill="none" viewBox="0 0 700 340">
    <path stroke="#4E496B" stroke-width="2" d="M645.5 170h-20.357c-5.523 0-10 4.477-10 10v90c0 5.523-4.477 10-10 10H304.787c-5.523 0-10-4.477-10-10v-90c0-5.523-4.478-10-10-10H264m-84 0h25.357c5.523 0 10-4.477 10-10V70c0-5.523 4.477-10 10-10h139.356c5.523 0 10 4.477 10 10v90c0 5.523 4.478 10 10 10H409.5"/>
    <rect width="100" height="60" x="30" y="140" fill="#D6E1FF" rx="10"/>
    <path fill="#262626" d="M48.832 172.692h-.504l.012-.012-2.604-5.7V174h-1.068v-8.604h1.572l2.676 6.036 2.796-6.036h1.464V174h-1.14v-6.924l-2.64 5.604-.564.012Zm8.316-4.104c-.664 0-1.336.204-2.016.612v-.948a3.804 3.804 0 0 1 1.02-.432 4.142 4.142 0 0 1 1.14-.168c.784 0 1.38.164 1.788.492.408.328.612.828.612 1.5v3.348c0 .136.004.312.012.528.016.208.032.368.048.48h-.96a5.482 5.482 0 0 1-.072-.468 7.173 7.173 0 0 1-.024-.54l-.012-.18a3.359 3.359 0 0 1-.396.6c-.168.2-.392.368-.672.504-.272.136-.612.204-1.02.204-.56 0-1.012-.16-1.356-.48-.344-.32-.516-.772-.516-1.356 0-.68.24-1.18.72-1.5.48-.32 1.156-.48 2.028-.48h1.164v-.516c0-.432-.112-.74-.336-.924-.224-.184-.608-.276-1.152-.276Zm1.488 3.012v-.456H57.58c-.632 0-1.092.092-1.38.276-.28.184-.42.452-.42.804 0 .28.084.508.252.684.176.176.44.264.792.264.328 0 .608-.064.84-.192.232-.136.42-.296.564-.48.144-.192.248-.372.312-.54.064-.168.096-.288.096-.36Zm4.708 2.52c-.456 0-.892-.064-1.308-.192-.408-.136-.74-.316-.996-.54v-.948c.248.24.58.432.996.576.424.144.856.216 1.296.216.976 0 1.464-.316 1.464-.948a.698.698 0 0 0-.132-.444c-.08-.12-.232-.22-.456-.3a5.694 5.694 0 0 0-.972-.252c-.808-.16-1.372-.376-1.692-.648-.32-.28-.48-.676-.48-1.188 0-.568.22-1.008.66-1.32.44-.32 1.048-.48 1.824-.48.368 0 .728.04 1.08.12.36.072.652.172.876.3v.948c-.464-.32-1.104-.48-1.92-.48-.504 0-.876.072-1.116.216-.232.144-.348.368-.348.672 0 .16.036.292.108.396.072.104.216.196.432.276.216.08.54.164.972.252.552.112.988.248 1.308.408.328.152.56.348.696.588.144.24.216.544.216.912 0 .584-.22 1.04-.66 1.368-.44.328-1.056.492-1.848.492Zm3.305-5.448v-.9h.744v-1.308h1.056v1.308h1.812v.9H68.45v3.744c0 .264.068.456.204.576.136.12.368.18.696.18.312 0 .596-.088.852-.264v.96a1.48 1.48 0 0 1-.504.18 2.767 2.767 0 0 1-.624.072c-.4 0-.724-.076-.972-.228a1.36 1.36 0 0 1-.54-.588 1.767 1.767 0 0 1-.168-.756v-3.876h-.744Zm7.541 5.448c-1.04 0-1.836-.284-2.388-.852-.544-.576-.816-1.372-.816-2.388 0-.68.128-1.26.384-1.74s.608-.848 1.056-1.104a2.993 2.993 0 0 1 1.512-.384c.952 0 1.652.316 2.1.948.448.624.592 1.48.432 2.568h-4.392c.088 1.336.824 2.004 2.208 2.004.76 0 1.46-.216 2.1-.648v.948c-.288.2-.624.36-1.008.48-.384.112-.78.168-1.188.168Zm-.276-5.532c-.456 0-.848.14-1.176.42-.328.28-.536.704-.624 1.272h3.348c.024-.536-.1-.952-.372-1.248-.272-.296-.664-.444-1.176-.444Zm6.964.24c-.496.04-.92.164-1.272.372a1.87 1.87 0 0 0-.756.84V174h-1.056v-6.228h.924l.108 1.356h.024c.2-.416.472-.752.816-1.008a2.553 2.553 0 0 1 1.212-.468v1.176Zm.78 1.992v-.96h2.88v.96h-2.88ZM88.55 174h-2.424v-6.228h2.448c.744 0 1.308.132 1.692.396.392.256.588.66.588 1.212 0 .36-.096.652-.288.876-.184.224-.448.384-.792.48.888.144 1.332.636 1.332 1.476 0 .424-.112.768-.336 1.032-.216.264-.516.456-.9.576-.384.12-.824.18-1.32.18Zm.012-5.328h-1.38v1.692h1.296c.4 0 .72-.072.96-.216.248-.144.372-.352.372-.624 0-.328-.108-.552-.324-.672-.216-.12-.524-.18-.924-.18Zm-.024 2.532h-1.356v1.896h1.356c.448 0 .808-.064 1.08-.192.272-.136.408-.38.408-.732s-.124-.6-.372-.744c-.248-.152-.62-.228-1.116-.228Zm6.91 2.916c-1.04 0-1.836-.284-2.388-.852-.544-.576-.816-1.372-.816-2.388 0-.68.128-1.26.384-1.74s.608-.848 1.056-1.104a2.993 2.993 0 0 1 1.512-.384c.952 0 1.652.316 2.1.948.448.624.592 1.48.432 2.568h-4.392c.088 1.336.824 2.004 2.208 2.004.76 0 1.46-.216 2.1-.648v.948c-.288.2-.624.36-1.008.48-.384.112-.78.168-1.188.168Zm-.276-5.532c-.456 0-.848.14-1.176.42-.328.28-.536.704-.624 1.272h3.348c.024-.536-.1-.952-.372-1.248-.272-.296-.664-.444-1.176-.444Zm3.41-.816h5.005v.9h-1.992V174h-1.056v-5.328h-1.956v-.9ZM109.894 174h-1.284l-2.196-2.652h-.552V174h-1.056v-6.228h1.056v2.676h.6l2.184-2.676h1.2l-2.556 3.072 2.604 3.156Zm3.106-5.412c-.664 0-1.336.204-2.016.612v-.948a3.804 3.804 0 0 1 1.02-.432 4.142 4.142 0 0 1 1.14-.168c.784 0 1.38.164 1.788.492.408.328.612.828.612 1.5v3.348c0 .136.004.312.012.528.016.208.032.368.048.48h-.96a5.482 5.482 0 0 1-.072-.468 7.173 7.173 0 0 1-.024-.54l-.012-.18a3.359 3.359 0 0 1-.396.6c-.168.2-.392.368-.672.504-.272.136-.612.204-1.02.204-.56 0-1.012-.16-1.356-.48-.344-.32-.516-.772-.516-1.356 0-.68.24-1.18.72-1.5.48-.32 1.156-.48 2.028-.48h1.164v-.516c0-.432-.112-.74-.336-.924-.224-.184-.608-.276-1.152-.276Zm1.488 3.012v-.456h-1.056c-.632 0-1.092.092-1.38.276-.28.184-.42.452-.42.804 0 .28.084.508.252.684.176.176.44.264.792.264.328 0 .608-.064.84-.192.232-.136.42-.296.564-.48.144-.192.248-.372.312-.54.064-.168.096-.288.096-.36Z"/>
    <rect width="100" height="60" x="30" y="250" fill="#D6E1FF" rx="10"/>
    <path fill="#262626" d="M60.383 275.396h2.916c.944 0 1.66.16 2.148.48.496.32.744.86.744 1.62 0 .616-.156 1.084-.468 1.404-.312.312-.728.524-1.248.636.664.08 1.168.276 1.512.588.344.304.516.768.516 1.392 0 .592-.14 1.072-.42 1.44-.28.368-.664.636-1.152.804-.488.16-1.04.24-1.656.24h-2.892v-8.604Zm2.832 3.672c.544 0 .984-.12 1.32-.36.344-.248.516-.632.516-1.152 0-.44-.152-.736-.456-.888-.304-.16-.736-.24-1.296-.24h-1.788v2.64h1.704Zm.06 3.912c.608 0 1.1-.104 1.476-.312.376-.208.564-.584.564-1.128 0-.544-.176-.92-.528-1.128-.344-.216-.892-.324-1.644-.324h-1.632v2.892h1.764Zm7.458 1.14c-1.04 0-1.836-.284-2.388-.852-.544-.576-.816-1.372-.816-2.388 0-.68.128-1.26.384-1.74s.608-.848 1.056-1.104a2.993 2.993 0 0 1 1.512-.384c.952 0 1.652.316 2.1.948.448.624.592 1.48.432 2.568h-4.392c.088 1.336.824 2.004 2.208 2.004.76 0 1.46-.216 2.1-.648v.948c-.288.2-.624.36-1.008.48-.384.112-.78.168-1.188.168Zm-.276-5.532c-.456 0-.848.14-1.176.42-.328.28-.536.704-.624 1.272h3.348c.024-.536-.1-.952-.372-1.248-.272-.296-.664-.444-1.176-.444Zm3.41-.816h5.005v.9H76.88V284h-1.056v-5.328h-1.956v-.9ZM85.18 284h-1.284l-2.196-2.652h-.552V284H80.09v-6.228h1.056v2.676h.6l2.184-2.676h1.2l-2.556 3.072L85.179 284Zm3.106-5.412c-.664 0-1.336.204-2.016.612v-.948a3.804 3.804 0 0 1 1.02-.432 4.142 4.142 0 0 1 1.14-.168c.784 0 1.38.164 1.788.492.408.328.612.828.612 1.5v3.348c0 .136.004.312.012.528.016.208.032.368.048.48h-.96a5.482 5.482 0 0 1-.072-.468 7.173 7.173 0 0 1-.024-.54l-.012-.18a3.359 3.359 0 0 1-.396.6c-.168.2-.392.368-.672.504-.272.136-.612.204-1.02.204-.56 0-1.012-.16-1.356-.48-.344-.32-.516-.772-.516-1.356 0-.68.24-1.18.72-1.5.48-.32 1.156-.48 2.028-.48h1.164v-.516c0-.432-.112-.74-.336-.924-.224-.184-.608-.276-1.152-.276Zm1.488 3.012v-.456h-1.056c-.632 0-1.092.092-1.38.276-.28.184-.42.452-.42.804 0 .28.084.508.252.684.176.176.44.264.792.264.328 0 .608-.064.84-.192.232-.136.42-.296.564-.48.144-.192.248-.372.312-.54.064-.168.096-.288.096-.36ZM100.1 284h-5.484v-1.14a52.221 52.221 0 0 0 2.1-1.764c.552-.488.98-.912 1.284-1.272.312-.368.528-.708.648-1.02.128-.312.192-.628.192-.948 0-.496-.148-.884-.444-1.164-.296-.28-.704-.42-1.224-.42-.832 0-1.608.396-2.328 1.188v-1.212c.664-.648 1.452-.972 2.364-.972.864 0 1.544.224 2.04.672.504.44.756 1.04.756 1.8 0 .392-.064.768-.192 1.128-.12.352-.336.724-.648 1.116-.304.384-.724.816-1.26 1.296-.536.48-1.216 1.04-2.04 1.68h4.236V284Z"/>
    <rect width="100" height="60" x="30" y="30" fill="#D6E1FF" rx="10"/>
    <path fill="#262626" d="M60.383 55.396h2.916c.944 0 1.66.16 2.148.48.496.32.744.86.744 1.62 0 .616-.156 1.084-.468 1.404-.312.312-.728.524-1.248.636.664.08 1.168.276 1.512.588.344.304.516.768.516 1.392 0 .592-.14 1.072-.42 1.44-.28.368-.664.636-1.152.804-.488.16-1.04.24-1.656.24h-2.892v-8.604Zm2.832 3.672c.544 0 .984-.12 1.32-.36.344-.248.516-.632.516-1.152 0-.44-.152-.736-.456-.888-.304-.16-.736-.24-1.296-.24h-1.788v2.64h1.704Zm.06 3.912c.608 0 1.1-.104 1.476-.312.376-.208.564-.584.564-1.128 0-.544-.176-.92-.528-1.128-.344-.216-.892-.324-1.644-.324h-1.632v2.892h1.764Zm7.458 1.14c-1.04 0-1.836-.284-2.388-.852-.544-.576-.816-1.372-.816-2.388 0-.68.128-1.26.384-1.74s.608-.848 1.056-1.104a2.993 2.993 0 0 1 1.512-.384c.952 0 1.652.316 2.1.948.448.624.592 1.48.432 2.568h-4.392c.088 1.336.824 2.004 2.208 2.004.76 0 1.46-.216 2.1-.648v.948c-.288.2-.624.36-1.008.48-.384.112-.78.168-1.188.168Zm-.276-5.532c-.456 0-.848.14-1.176.42-.328.28-.536.704-.624 1.272h3.348c.024-.536-.1-.952-.372-1.248-.272-.296-.664-.444-1.176-.444Zm3.41-.816h5.005v.9H76.88V64h-1.056v-5.328h-1.956v-.9ZM85.18 64h-1.284L81.7 61.348h-.552V64H80.09v-6.228h1.056v2.676h.6l2.184-2.676h1.2l-2.556 3.072L85.179 64Zm3.106-5.412c-.664 0-1.336.204-2.016.612v-.948a3.804 3.804 0 0 1 1.02-.432 4.142 4.142 0 0 1 1.14-.168c.784 0 1.38.164 1.788.492.408.328.612.828.612 1.5v3.348c0 .136.004.312.012.528.016.208.032.368.048.48h-.96a5.482 5.482 0 0 1-.072-.468 7.173 7.173 0 0 1-.024-.54l-.012-.18a3.359 3.359 0 0 1-.396.6c-.168.2-.392.368-.672.504-.272.136-.612.204-1.02.204-.56 0-1.012-.16-1.356-.48-.344-.32-.516-.772-.516-1.356 0-.68.24-1.18.72-1.5.48-.32 1.156-.48 2.028-.48h1.164v-.516c0-.432-.112-.74-.336-.924-.224-.184-.608-.276-1.152-.276Zm1.488 3.012v-.456h-1.056c-.632 0-1.092.092-1.38.276-.28.184-.42.452-.42.804 0 .28.084.508.252.684.176.176.44.264.792.264.328 0 .608-.064.84-.192.232-.136.42-.296.564-.48.144-.192.248-.372.312-.54.064-.168.096-.288.096-.36ZM98.49 64H97.4v-7.248l-2.376 1.824v-1.212l2.556-1.968h.912V64Z"/>
    <path stroke="#4E496B" stroke-width="2" d="M170 170h465"/>
    <circle cx="175" cy="170" r="15" fill="#5282FF"/>
    <circle cx="415" cy="170" r="15" fill="#5282FF"/>
    <circle cx="255" cy="60" r="15" fill="#FFDB4D"/>
    <circle cx="335" cy="60" r="15" fill="#FFDB4D"/>
    <circle cx="335" cy="280" r="15" fill="#D6E1FF"/>
    <circle cx="415" cy="280" r="15" fill="#D6E1FF"/>
    <circle cx="495" cy="280" r="15" fill="#D6E1FF"/>
    <circle cx="575" cy="280" r="15" fill="#D6E1FF"/>
    <circle cx="655" cy="170" r="15" fill="#5282FF"/>
</svg>
