<svg width="700" height="340" viewBox="0 0 700 340" fill="none" xmlns="http://www.w3.org/2000/svg">
<path d="M645.5 170L625.143 170C619.62 170 615.143 174.477 615.143 180L615.143 270C615.143 275.523 610.666 280 605.143 280L304.787 280C299.264 280 294.787 275.523 294.787 270L294.787 180C294.787 174.477 290.309 170 284.787 170L264 170" stroke="#4E496B" stroke-width="2"/>
<path d="M180 170L205.357 170C210.88 170 215.357 165.523 215.357 160L215.357 70C215.357 64.4772 219.834 60 225.357 60L364.713 60.0001C370.236 60.0001 374.713 64.4772 374.713 70.0001L374.713 160C374.713 165.523 379.191 170 384.713 170L409.5 170" stroke="#4E496B" stroke-width="2"/>
<rect x="30" y="140" width="100" height="60" rx="10" fill="#D6E1FF"/>
<path d="M48.8322 172.692H48.3402H48.3282L48.3402 172.68L45.7362 166.98V174H44.6682V165.396H46.2402L48.9162 171.432L51.7122 165.396H53.1762V174H52.0362V167.076L49.3962 172.68L48.8322 172.692ZM57.1479 168.588C56.4839 168.588 55.8119 168.792 55.1319 169.2V168.252C55.4279 168.068 55.7679 167.924 56.1519 167.82C56.5439 167.708 56.9239 167.652 57.2919 167.652C58.0759 167.652 58.6719 167.816 59.0799 168.144C59.4879 168.472 59.6919 168.972 59.6919 169.644V172.992C59.6919 173.128 59.6959 173.304 59.7039 173.52C59.7199 173.728 59.7359 173.888 59.7519 174H58.7919C58.7679 173.888 58.7439 173.732 58.7199 173.532C58.7039 173.324 58.6959 173.144 58.6959 172.992L58.6839 172.812C58.5879 173.004 58.4559 173.204 58.2879 173.412C58.1199 173.612 57.8959 173.78 57.6159 173.916C57.3439 174.052 57.0039 174.12 56.5959 174.12C56.0359 174.12 55.5839 173.96 55.2399 173.64C54.8959 173.32 54.7239 172.868 54.7239 172.284C54.7239 171.604 54.9639 171.104 55.4439 170.784C55.9239 170.464 56.5999 170.304 57.4719 170.304H58.6359V169.788C58.6359 169.356 58.5239 169.048 58.2999 168.864C58.0759 168.68 57.6919 168.588 57.1479 168.588ZM58.6359 171.6V171.144H57.5799C56.9479 171.144 56.4879 171.236 56.1999 171.42C55.9199 171.604 55.7799 171.872 55.7799 172.224C55.7799 172.504 55.8639 172.732 56.0319 172.908C56.2079 173.084 56.4719 173.172 56.8239 173.172C57.1519 173.172 57.4319 173.108 57.6639 172.98C57.8959 172.844 58.0839 172.684 58.2279 172.5C58.3719 172.308 58.4759 172.128 58.5399 171.96C58.6039 171.792 58.6359 171.672 58.6359 171.6ZM63.3443 174.12C62.8883 174.12 62.4523 174.056 62.0363 173.928C61.6283 173.792 61.2963 173.612 61.0403 173.388V172.44C61.2883 172.68 61.6203 172.872 62.0363 173.016C62.4603 173.16 62.8923 173.232 63.3323 173.232C64.3083 173.232 64.7963 172.916 64.7963 172.284C64.7963 172.1 64.7523 171.952 64.6643 171.84C64.5843 171.72 64.4323 171.62 64.2083 171.54C63.9843 171.452 63.6603 171.368 63.2363 171.288C62.4283 171.128 61.8643 170.912 61.5443 170.64C61.2243 170.36 61.0643 169.964 61.0643 169.452C61.0643 168.884 61.2843 168.444 61.7243 168.132C62.1643 167.812 62.7723 167.652 63.5483 167.652C63.9163 167.652 64.2763 167.692 64.6283 167.772C64.9883 167.844 65.2803 167.944 65.5043 168.072V169.02C65.0403 168.7 64.4003 168.54 63.5843 168.54C63.0803 168.54 62.7083 168.612 62.4683 168.756C62.2363 168.9 62.1203 169.124 62.1203 169.428C62.1203 169.588 62.1563 169.72 62.2283 169.824C62.3003 169.928 62.4443 170.02 62.6603 170.1C62.8763 170.18 63.2003 170.264 63.6323 170.352C64.1843 170.464 64.6203 170.6 64.9403 170.76C65.2683 170.912 65.5003 171.108 65.6363 171.348C65.7803 171.588 65.8523 171.892 65.8523 172.26C65.8523 172.844 65.6323 173.3 65.1923 173.628C64.7523 173.956 64.1363 174.12 63.3443 174.12ZM66.6491 168.672V167.772H67.3931V166.464H68.4491V167.772H70.2611V168.672H68.4491V172.416C68.4491 172.68 68.5171 172.872 68.6531 172.992C68.7891 173.112 69.0211 173.172 69.3491 173.172C69.6611 173.172 69.9451 173.084 70.2011 172.908V173.868C70.0731 173.948 69.9051 174.008 69.6971 174.048C69.4891 174.096 69.2811 174.12 69.0731 174.12C68.6731 174.12 68.3491 174.044 68.1011 173.892C67.8531 173.74 67.6731 173.544 67.5611 173.304C67.4491 173.064 67.3931 172.812 67.3931 172.548V168.672H66.6491ZM74.1904 174.12C73.1504 174.12 72.3544 173.836 71.8024 173.268C71.2584 172.692 70.9864 171.896 70.9864 170.88C70.9864 170.2 71.1144 169.62 71.3704 169.14C71.6264 168.66 71.9784 168.292 72.4264 168.036C72.8744 167.78 73.3784 167.652 73.9384 167.652C74.8904 167.652 75.5904 167.968 76.0384 168.6C76.4864 169.224 76.6304 170.08 76.4704 171.168H72.0784C72.1664 172.504 72.9024 173.172 74.2864 173.172C75.0464 173.172 75.7464 172.956 76.3864 172.524V173.472C76.0984 173.672 75.7624 173.832 75.3784 173.952C74.9944 174.064 74.5984 174.12 74.1904 174.12ZM73.9144 168.588C73.4584 168.588 73.0664 168.728 72.7384 169.008C72.4104 169.288 72.2024 169.712 72.1144 170.28H75.4624C75.4864 169.744 75.3624 169.328 75.0904 169.032C74.8184 168.736 74.4264 168.588 73.9144 168.588ZM80.8777 168.828C80.3817 168.868 79.9577 168.992 79.6057 169.2C79.2617 169.408 79.0097 169.688 78.8497 170.04V174H77.7937V167.772H78.7177L78.8257 169.128H78.8497C79.0497 168.712 79.3217 168.376 79.6657 168.12C80.0177 167.864 80.4217 167.708 80.8777 167.652V168.828ZM81.6575 170.82V169.86H84.5375V170.82H81.6575ZM88.5497 174H86.1257V167.772H88.5737C89.3177 167.772 89.8817 167.904 90.2657 168.168C90.6577 168.424 90.8537 168.828 90.8537 169.38C90.8537 169.74 90.7577 170.032 90.5657 170.256C90.3817 170.48 90.1177 170.64 89.7737 170.736C90.6617 170.88 91.1057 171.372 91.1057 172.212C91.1057 172.636 90.9937 172.98 90.7697 173.244C90.5537 173.508 90.2537 173.7 89.8697 173.82C89.4857 173.94 89.0457 174 88.5497 174ZM88.5617 168.672H87.1817V170.364H88.4777C88.8777 170.364 89.1977 170.292 89.4377 170.148C89.6857 170.004 89.8097 169.796 89.8097 169.524C89.8097 169.196 89.7017 168.972 89.4857 168.852C89.2697 168.732 88.9617 168.672 88.5617 168.672ZM88.5377 171.204H87.1817V173.1H88.5377C88.9857 173.1 89.3457 173.036 89.6177 172.908C89.8897 172.772 90.0257 172.528 90.0257 172.176C90.0257 171.824 89.9017 171.576 89.6537 171.432C89.4057 171.28 89.0337 171.204 88.5377 171.204ZM95.4482 174.12C94.4082 174.12 93.6122 173.836 93.0602 173.268C92.5162 172.692 92.2442 171.896 92.2442 170.88C92.2442 170.2 92.3722 169.62 92.6282 169.14C92.8842 168.66 93.2362 168.292 93.6842 168.036C94.1322 167.78 94.6362 167.652 95.1962 167.652C96.1482 167.652 96.8482 167.968 97.2962 168.6C97.7442 169.224 97.8882 170.08 97.7282 171.168H93.3362C93.4242 172.504 94.1602 173.172 95.5442 173.172C96.3042 173.172 97.0042 172.956 97.6442 172.524V173.472C97.3562 173.672 97.0202 173.832 96.6362 173.952C96.2522 174.064 95.8562 174.12 95.4482 174.12ZM95.1722 168.588C94.7162 168.588 94.3242 168.728 93.9962 169.008C93.6682 169.288 93.4602 169.712 93.3722 170.28H96.7202C96.7442 169.744 96.6202 169.328 96.3482 169.032C96.0762 168.736 95.6842 168.588 95.1722 168.588ZM98.5827 167.772H103.587V168.672H101.595V174H100.539V168.672H98.5827V167.772ZM109.893 174H108.609L106.413 171.348H105.861V174H104.805V167.772H105.861V170.448H106.461L108.645 167.772H109.845L107.289 170.844L109.893 174ZM112.999 168.588C112.335 168.588 111.663 168.792 110.983 169.2V168.252C111.279 168.068 111.619 167.924 112.003 167.82C112.395 167.708 112.775 167.652 113.143 167.652C113.927 167.652 114.523 167.816 114.931 168.144C115.339 168.472 115.543 168.972 115.543 169.644V172.992C115.543 173.128 115.547 173.304 115.555 173.52C115.571 173.728 115.587 173.888 115.603 174H114.643C114.619 173.888 114.595 173.732 114.571 173.532C114.555 173.324 114.547 173.144 114.547 172.992L114.535 172.812C114.439 173.004 114.307 173.204 114.139 173.412C113.971 173.612 113.747 173.78 113.467 173.916C113.195 174.052 112.855 174.12 112.447 174.12C111.887 174.12 111.435 173.96 111.091 173.64C110.747 173.32 110.575 172.868 110.575 172.284C110.575 171.604 110.815 171.104 111.295 170.784C111.775 170.464 112.451 170.304 113.323 170.304H114.487V169.788C114.487 169.356 114.375 169.048 114.151 168.864C113.927 168.68 113.543 168.588 112.999 168.588ZM114.487 171.6V171.144H113.431C112.799 171.144 112.339 171.236 112.051 171.42C111.771 171.604 111.631 171.872 111.631 172.224C111.631 172.504 111.715 172.732 111.883 172.908C112.059 173.084 112.323 173.172 112.675 173.172C113.003 173.172 113.283 173.108 113.515 172.98C113.747 172.844 113.935 172.684 114.079 172.5C114.223 172.308 114.327 172.128 114.391 171.96C114.455 171.792 114.487 171.672 114.487 171.6Z" fill="#262626"/>
<rect x="30" y="250" width="100" height="60" rx="10" fill="#D6E1FF"/>
<path d="M60.383 275.396H63.299C64.243 275.396 64.959 275.556 65.447 275.876C65.943 276.196 66.191 276.736 66.191 277.496C66.191 278.112 66.035 278.58 65.723 278.9C65.411 279.212 64.995 279.424 64.475 279.536C65.139 279.616 65.643 279.812 65.987 280.124C66.331 280.428 66.503 280.892 66.503 281.516C66.503 282.108 66.363 282.588 66.083 282.956C65.803 283.324 65.419 283.592 64.931 283.76C64.443 283.92 63.891 284 63.275 284H60.383V275.396ZM63.215 279.068C63.759 279.068 64.199 278.948 64.535 278.708C64.879 278.46 65.051 278.076 65.051 277.556C65.051 277.116 64.899 276.82 64.595 276.668C64.291 276.508 63.859 276.428 63.299 276.428H61.511V279.068H63.215ZM63.275 282.98C63.883 282.98 64.375 282.876 64.751 282.668C65.127 282.46 65.315 282.084 65.315 281.54C65.315 280.996 65.139 280.62 64.787 280.412C64.443 280.196 63.895 280.088 63.143 280.088H61.511V282.98H63.275ZM70.7334 284.12C69.6934 284.12 68.8974 283.836 68.3454 283.268C67.8014 282.692 67.5294 281.896 67.5294 280.88C67.5294 280.2 67.6574 279.62 67.9134 279.14C68.1694 278.66 68.5214 278.292 68.9694 278.036C69.4174 277.78 69.9214 277.652 70.4814 277.652C71.4334 277.652 72.1334 277.968 72.5814 278.6C73.0294 279.224 73.1734 280.08 73.0134 281.168H68.6214C68.7094 282.504 69.4454 283.172 70.8294 283.172C71.5894 283.172 72.2894 282.956 72.9294 282.524V283.472C72.6414 283.672 72.3054 283.832 71.9214 283.952C71.5374 284.064 71.1414 284.12 70.7334 284.12ZM70.4574 278.588C70.0014 278.588 69.6094 278.728 69.2814 279.008C68.9534 279.288 68.7454 279.712 68.6574 280.28H72.0054C72.0294 279.744 71.9054 279.328 71.6334 279.032C71.3614 278.736 70.9694 278.588 70.4574 278.588ZM73.8678 277.772H78.8718V278.672H76.8798V284H75.8238V278.672H73.8678V277.772ZM85.1786 284H83.8946L81.6986 281.348H81.1466V284H80.0906V277.772H81.1466V280.448H81.7466L83.9306 277.772H85.1306L82.5746 280.844L85.1786 284ZM88.2846 278.588C87.6206 278.588 86.9486 278.792 86.2686 279.2V278.252C86.5646 278.068 86.9046 277.924 87.2886 277.82C87.6806 277.708 88.0606 277.652 88.4286 277.652C89.2126 277.652 89.8086 277.816 90.2166 278.144C90.6246 278.472 90.8286 278.972 90.8286 279.644V282.992C90.8286 283.128 90.8326 283.304 90.8406 283.52C90.8566 283.728 90.8726 283.888 90.8886 284H89.9286C89.9046 283.888 89.8806 283.732 89.8566 283.532C89.8406 283.324 89.8326 283.144 89.8326 282.992L89.8206 282.812C89.7246 283.004 89.5926 283.204 89.4246 283.412C89.2566 283.612 89.0326 283.78 88.7526 283.916C88.4806 284.052 88.1406 284.12 87.7326 284.12C87.1726 284.12 86.7206 283.96 86.3766 283.64C86.0326 283.32 85.8606 282.868 85.8606 282.284C85.8606 281.604 86.1006 281.104 86.5806 280.784C87.0606 280.464 87.7366 280.304 88.6086 280.304H89.7726V279.788C89.7726 279.356 89.6606 279.048 89.4366 278.864C89.2126 278.68 88.8286 278.588 88.2846 278.588ZM89.7726 281.6V281.144H88.7166C88.0846 281.144 87.6246 281.236 87.3366 281.42C87.0566 281.604 86.9166 281.872 86.9166 282.224C86.9166 282.504 87.0006 282.732 87.1686 282.908C87.3446 283.084 87.6086 283.172 87.9606 283.172C88.2886 283.172 88.5686 283.108 88.8006 282.98C89.0326 282.844 89.2206 282.684 89.3646 282.5C89.5086 282.308 89.6126 282.128 89.6766 281.96C89.7406 281.792 89.7726 281.672 89.7726 281.6ZM100.099 284H94.6153V282.86C95.4713 282.172 96.1713 281.584 96.7153 281.096C97.2673 280.608 97.6953 280.184 97.9993 279.824C98.3113 279.456 98.5273 279.116 98.6473 278.804C98.7753 278.492 98.8393 278.176 98.8393 277.856C98.8393 277.36 98.6913 276.972 98.3953 276.692C98.0993 276.412 97.6913 276.272 97.1713 276.272C96.3393 276.272 95.5633 276.668 94.8433 277.46V276.248C95.5073 275.6 96.2953 275.276 97.2073 275.276C98.0713 275.276 98.7513 275.5 99.2473 275.948C99.7513 276.388 100.003 276.988 100.003 277.748C100.003 278.14 99.9393 278.516 99.8113 278.876C99.6913 279.228 99.4753 279.6 99.1633 279.992C98.8593 280.376 98.4393 280.808 97.9033 281.288C97.3673 281.768 96.6873 282.328 95.8633 282.968H100.099V284Z" fill="#262626"/>
<rect x="30" y="30" width="100" height="60" rx="10" fill="#D6E1FF"/>
<path d="M60.383 55.396H63.299C64.243 55.396 64.959 55.556 65.447 55.876C65.943 56.196 66.191 56.736 66.191 57.496C66.191 58.112 66.035 58.58 65.723 58.9C65.411 59.212 64.995 59.424 64.475 59.536C65.139 59.616 65.643 59.812 65.987 60.124C66.331 60.428 66.503 60.892 66.503 61.516C66.503 62.108 66.363 62.588 66.083 62.956C65.803 63.324 65.419 63.592 64.931 63.76C64.443 63.92 63.891 64 63.275 64H60.383V55.396ZM63.215 59.068C63.759 59.068 64.199 58.948 64.535 58.708C64.879 58.46 65.051 58.076 65.051 57.556C65.051 57.116 64.899 56.82 64.595 56.668C64.291 56.508 63.859 56.428 63.299 56.428H61.511V59.068H63.215ZM63.275 62.98C63.883 62.98 64.375 62.876 64.751 62.668C65.127 62.46 65.315 62.084 65.315 61.54C65.315 60.996 65.139 60.62 64.787 60.412C64.443 60.196 63.895 60.088 63.143 60.088H61.511V62.98H63.275ZM70.7334 64.12C69.6934 64.12 68.8974 63.836 68.3454 63.268C67.8014 62.692 67.5294 61.896 67.5294 60.88C67.5294 60.2 67.6574 59.62 67.9134 59.14C68.1694 58.66 68.5214 58.292 68.9694 58.036C69.4174 57.78 69.9214 57.652 70.4814 57.652C71.4334 57.652 72.1334 57.968 72.5814 58.6C73.0294 59.224 73.1734 60.08 73.0134 61.168H68.6214C68.7094 62.504 69.4454 63.172 70.8294 63.172C71.5894 63.172 72.2894 62.956 72.9294 62.524V63.472C72.6414 63.672 72.3054 63.832 71.9214 63.952C71.5374 64.064 71.1414 64.12 70.7334 64.12ZM70.4574 58.588C70.0014 58.588 69.6094 58.728 69.2814 59.008C68.9534 59.288 68.7454 59.712 68.6574 60.28H72.0054C72.0294 59.744 71.9054 59.328 71.6334 59.032C71.3614 58.736 70.9694 58.588 70.4574 58.588ZM73.8678 57.772H78.8718V58.672H76.8798V64H75.8238V58.672H73.8678V57.772ZM85.1786 64H83.8946L81.6986 61.348H81.1466V64H80.0906V57.772H81.1466V60.448H81.7466L83.9306 57.772H85.1306L82.5746 60.844L85.1786 64ZM88.2846 58.588C87.6206 58.588 86.9486 58.792 86.2686 59.2V58.252C86.5646 58.068 86.9046 57.924 87.2886 57.82C87.6806 57.708 88.0606 57.652 88.4286 57.652C89.2126 57.652 89.8086 57.816 90.2166 58.144C90.6246 58.472 90.8286 58.972 90.8286 59.644V62.992C90.8286 63.128 90.8326 63.304 90.8406 63.52C90.8566 63.728 90.8726 63.888 90.8886 64H89.9286C89.9046 63.888 89.8806 63.732 89.8566 63.532C89.8406 63.324 89.8326 63.144 89.8326 62.992L89.8206 62.812C89.7246 63.004 89.5926 63.204 89.4246 63.412C89.2566 63.612 89.0326 63.78 88.7526 63.916C88.4806 64.052 88.1406 64.12 87.7326 64.12C87.1726 64.12 86.7206 63.96 86.3766 63.64C86.0326 63.32 85.8606 62.868 85.8606 62.284C85.8606 61.604 86.1006 61.104 86.5806 60.784C87.0606 60.464 87.7366 60.304 88.6086 60.304H89.7726V59.788C89.7726 59.356 89.6606 59.048 89.4366 58.864C89.2126 58.68 88.8286 58.588 88.2846 58.588ZM89.7726 61.6V61.144H88.7166C88.0846 61.144 87.6246 61.236 87.3366 61.42C87.0566 61.604 86.9166 61.872 86.9166 62.224C86.9166 62.504 87.0006 62.732 87.1686 62.908C87.3446 63.084 87.6086 63.172 87.9606 63.172C88.2886 63.172 88.5686 63.108 88.8006 62.98C89.0326 62.844 89.2206 62.684 89.3646 62.5C89.5086 62.308 89.6126 62.128 89.6766 61.96C89.7406 61.792 89.7726 61.672 89.7726 61.6ZM98.4913 64H97.3993V56.752L95.0233 58.576V57.364L97.5793 55.396H98.4913V64Z" fill="#262626"/>
<path d="M170 170L635 170" stroke="#4E496B" stroke-width="2"/>
<circle cx="175" cy="170" r="15" fill="#5282FF"/>
<circle cx="415" cy="170" r="15" fill="#5282FF"/>
<circle cx="255" cy="60" r="15" fill="#FFDB4D"/>
<circle cx="335" cy="60" r="15" fill="#FFDB4D"/>
<circle cx="335" cy="280" r="15" fill="#D6E1FF"/>
<circle cx="415" cy="280" r="15" fill="#D6E1FF"/>
<circle cx="495" cy="280" r="15" fill="#D6E1FF"/>
<circle cx="575" cy="280" r="15" fill="#D6E1FF"/>
<circle cx="655" cy="170" r="15" fill="#5282FF"/>
</svg>
