<svg width="700" height="484" viewBox="0 0 700 484" fill="none" xmlns="http://www.w3.org/2000/svg">
<rect x="38" y="35" width="154" height="414" rx="7" fill="white"/>
<rect x="38" y="35" width="154" height="414" rx="7" stroke="#5282FF" stroke-width="2"/>
<path d="M274 242L264 236.226L264 247.773L274 242ZM192 243L265 243L265 241L192 241L192 243Z" fill="#262626"/>
<path d="M350 348L355.774 338L344.227 338L350 348ZM349 272L349 339L351 339L351 272L349 272Z" fill="#262626"/>
<path d="M512 242L502 236.226L502 247.773L512 242ZM430 243L503 243L503 241L430 241L430 243Z" fill="#262626"/>
<path d="M89.6898 243.14C89.0178 243.14 88.3878 243.028 87.7998 242.804C87.2118 242.571 86.7031 242.235 86.2738 241.796C85.8445 241.357 85.5038 240.816 85.2518 240.172C85.0091 239.528 84.8878 238.786 84.8878 237.946C84.8878 237.106 85.0091 236.369 85.2518 235.734C85.5038 235.09 85.8445 234.558 86.2738 234.138C86.7031 233.709 87.2118 233.387 87.7998 233.172C88.3878 232.948 89.0178 232.836 89.6898 232.836C90.3711 232.836 91.0058 232.948 91.5938 233.172C92.1818 233.387 92.6905 233.709 93.1198 234.138C93.5491 234.567 93.8851 235.104 94.1278 235.748C94.3705 236.383 94.4918 237.12 94.4918 237.96C94.4918 238.791 94.3705 239.528 94.1278 240.172C93.8851 240.816 93.5491 241.357 93.1198 241.796C92.6905 242.235 92.1818 242.571 91.5938 242.804C91.0058 243.028 90.3711 243.14 89.6898 243.14ZM89.6898 241.95C90.1751 241.95 90.6231 241.88 91.0338 241.74C91.4445 241.591 91.7991 241.362 92.0978 241.054C92.4058 240.737 92.6438 240.326 92.8118 239.822C92.9891 239.318 93.0778 238.707 93.0778 237.988C93.0778 237.269 92.9891 236.658 92.8118 236.154C92.6438 235.65 92.4058 235.244 92.0978 234.936C91.7991 234.619 91.4445 234.39 91.0338 234.25C90.6231 234.101 90.1751 234.026 89.6898 234.026C89.2045 234.026 88.7565 234.101 88.3458 234.25C87.9351 234.39 87.5758 234.619 87.2678 234.936C86.9691 235.244 86.7311 235.65 86.5538 236.154C86.3858 236.658 86.3018 237.269 86.3018 237.988C86.3018 238.707 86.3858 239.318 86.5538 239.822C86.7311 240.326 86.9691 240.737 87.2678 241.054C87.5758 241.362 87.9351 241.591 88.3458 241.74C88.7565 241.88 89.2045 241.95 89.6898 241.95ZM102.633 239.36C102.633 239.967 102.54 240.503 102.353 240.97C102.176 241.437 101.929 241.833 101.611 242.16C101.303 242.477 100.935 242.72 100.505 242.888C100.076 243.056 99.6092 243.14 99.1052 243.14C98.5919 243.14 98.1206 243.056 97.6912 242.888C97.2619 242.711 96.8932 242.445 96.5852 242.09C96.2772 241.735 96.0346 241.287 95.8572 240.746C95.6892 240.205 95.6052 239.565 95.6052 238.828C95.6052 238.221 95.6239 237.643 95.6612 237.092C95.6986 236.541 95.7826 236.033 95.9132 235.566C96.0439 235.09 96.2306 234.665 96.4732 234.292C96.7252 233.909 97.0612 233.592 97.4812 233.34C97.7146 233.2 97.9572 233.097 98.2092 233.032C98.4612 232.957 98.7132 232.901 98.9652 232.864C99.2266 232.827 99.4879 232.803 99.7492 232.794C100.011 232.785 100.267 232.775 100.519 232.766C100.893 232.738 101.205 232.691 101.457 232.626C101.709 232.561 101.933 232.472 102.129 232.36V233.48C101.924 233.611 101.705 233.704 101.471 233.76C101.247 233.807 100.972 233.849 100.645 233.886C100.113 233.933 99.6232 233.97 99.1752 233.998C98.7366 234.017 98.3352 234.119 97.9712 234.306C97.5046 234.567 97.1732 234.959 96.9772 235.482C96.7906 235.995 96.6739 236.607 96.6272 237.316C97.1126 236.196 98.0272 235.636 99.3712 235.636C99.8286 235.636 100.253 235.72 100.645 235.888C101.047 236.047 101.392 236.285 101.681 236.602C101.98 236.919 102.213 237.311 102.381 237.778C102.549 238.235 102.633 238.763 102.633 239.36ZM99.1052 242.034C99.4319 242.034 99.7306 241.983 100.001 241.88C100.281 241.768 100.524 241.605 100.729 241.39C100.935 241.166 101.093 240.886 101.205 240.55C101.317 240.214 101.373 239.817 101.373 239.36C101.373 238.903 101.317 238.506 101.205 238.17C101.093 237.834 100.935 237.559 100.729 237.344C100.524 237.12 100.281 236.957 100.001 236.854C99.7306 236.742 99.4319 236.686 99.1052 236.686C98.4612 236.686 97.9246 236.901 97.4952 237.33C97.0752 237.759 96.8652 238.422 96.8652 239.318C96.8652 239.785 96.9212 240.191 97.0332 240.536C97.1452 240.872 97.2992 241.152 97.4952 241.376C97.7006 241.6 97.9386 241.768 98.2092 241.88C98.4799 241.983 98.7786 242.034 99.1052 242.034ZM109.551 240.578C109.551 240.998 109.476 241.362 109.327 241.67C109.178 241.978 108.968 242.23 108.697 242.426C108.426 242.622 108.104 242.767 107.731 242.86C107.358 242.953 106.952 243 106.513 243H104.175V235.734H105.407V238.268H106.597C107.521 238.268 108.244 238.45 108.767 238.814C109.29 239.178 109.551 239.766 109.551 240.578ZM111.833 243H110.601V235.734H111.833V243ZM105.407 239.318V241.95H106.513C107.045 241.95 107.474 241.852 107.801 241.656C108.137 241.451 108.305 241.115 108.305 240.648C108.305 240.172 108.156 239.831 107.857 239.626C107.558 239.421 107.138 239.318 106.597 239.318H105.407ZM119.483 243H118.251V239.808C117.999 240.004 117.705 240.158 117.369 240.27C117.042 240.373 116.669 240.424 116.249 240.424C115.427 240.424 114.797 240.223 114.359 239.822C113.929 239.411 113.715 238.758 113.715 237.862V235.734H114.961V237.876C114.961 238.445 115.091 238.842 115.353 239.066C115.614 239.29 115.983 239.402 116.459 239.402C116.785 239.402 117.103 239.355 117.411 239.262C117.719 239.169 117.999 239.024 118.251 238.828V235.734H119.483V243ZM126.243 239.78H122.729V243H121.497V235.734H122.729V238.73H126.243V235.734H127.475V243H126.243V239.78ZM134.871 240.578C134.871 240.998 134.797 241.362 134.647 241.67C134.498 241.978 134.288 242.23 134.017 242.426C133.747 242.622 133.425 242.767 133.051 242.86C132.678 242.953 132.272 243 131.833 243H129.495V235.734H130.727V238.268H131.917C132.841 238.268 133.565 238.45 134.087 238.814C134.61 239.178 134.871 239.766 134.871 240.578ZM137.153 243H135.921V235.734H137.153V243ZM130.727 239.318V241.95H131.833C132.365 241.95 132.795 241.852 133.121 241.656C133.457 241.451 133.625 241.115 133.625 240.648C133.625 240.172 133.476 239.831 133.177 239.626C132.879 239.421 132.459 239.318 131.917 239.318H130.727ZM144.957 242.384C144.854 242.459 144.728 242.538 144.579 242.622C144.43 242.706 144.248 242.79 144.033 242.874C143.818 242.949 143.576 243.009 143.305 243.056C143.034 243.112 142.731 243.14 142.395 243.14C141.172 243.14 140.244 242.809 139.609 242.146C138.974 241.483 138.657 240.555 138.657 239.36C138.657 238.772 138.741 238.245 138.909 237.778C139.086 237.311 139.329 236.919 139.637 236.602C139.945 236.275 140.309 236.028 140.729 235.86C141.149 235.683 141.606 235.594 142.101 235.594C142.624 235.594 143.09 235.683 143.501 235.86C143.912 236.037 144.248 236.299 144.509 236.644C144.78 236.989 144.962 237.419 145.055 237.932C145.158 238.436 145.158 239.024 145.055 239.696H139.931C139.978 240.48 140.211 241.068 140.631 241.46C141.051 241.843 141.676 242.034 142.507 242.034C143.067 242.034 143.548 241.955 143.949 241.796C144.35 241.637 144.686 241.465 144.957 241.278V242.384ZM142.073 236.686C141.541 236.686 141.084 236.849 140.701 237.176C140.318 237.503 140.076 237.997 139.973 238.66H143.879C143.916 237.988 143.762 237.493 143.417 237.176C143.072 236.849 142.624 236.686 142.073 236.686ZM78.2736 249.734H84.0976V257H82.8656V250.784H79.5056V257H78.2736V249.734ZM89.0896 257.14C88.5949 257.14 88.1329 257.056 87.7036 256.888C87.2743 256.72 86.9009 256.477 86.5836 256.16C86.2756 255.833 86.0329 255.437 85.8556 254.97C85.6783 254.503 85.5896 253.967 85.5896 253.36C85.5896 252.763 85.6783 252.231 85.8556 251.764C86.0329 251.288 86.2756 250.891 86.5836 250.574C86.9009 250.257 87.2743 250.014 87.7036 249.846C88.1329 249.678 88.5949 249.594 89.0896 249.594C89.5936 249.594 90.0603 249.678 90.4896 249.846C90.9189 250.014 91.2876 250.257 91.5956 250.574C91.9129 250.891 92.1603 251.288 92.3376 251.764C92.5243 252.231 92.6176 252.763 92.6176 253.36C92.6176 253.967 92.5243 254.503 92.3376 254.97C92.1603 255.437 91.9129 255.833 91.5956 256.16C91.2876 256.477 90.9189 256.72 90.4896 256.888C90.0603 257.056 89.5936 257.14 89.0896 257.14ZM89.0896 256.034C89.4163 256.034 89.7149 255.983 89.9856 255.88C90.2656 255.768 90.5083 255.605 90.7136 255.39C90.9189 255.166 91.0776 254.886 91.1896 254.55C91.3016 254.214 91.3576 253.817 91.3576 253.36C91.3576 252.903 91.3016 252.506 91.1896 252.17C91.0776 251.834 90.9189 251.559 90.7136 251.344C90.5083 251.12 90.2656 250.957 89.9856 250.854C89.7149 250.742 89.4163 250.686 89.0896 250.686C88.7629 250.686 88.4643 250.742 88.1936 250.854C87.9229 250.957 87.6849 251.12 87.4796 251.344C87.2836 251.559 87.1296 251.834 87.0176 252.17C86.9056 252.506 86.8496 252.903 86.8496 253.36C86.8496 253.817 86.9056 254.214 87.0176 254.55C87.1296 254.886 87.2836 255.166 87.4796 255.39C87.6849 255.605 87.9229 255.768 88.1936 255.88C88.4643 255.983 88.7629 256.034 89.0896 256.034ZM97.2553 257.14C96.6953 257.14 96.1867 257.056 95.7293 256.888C95.2813 256.711 94.8987 256.463 94.5813 256.146C94.264 255.819 94.0213 255.423 93.8533 254.956C93.6853 254.489 93.6013 253.957 93.6013 253.36C93.6013 252.772 93.6853 252.245 93.8533 251.778C94.0307 251.311 94.278 250.919 94.5953 250.602C94.9127 250.275 95.3 250.028 95.7573 249.86C96.2147 249.683 96.7327 249.594 97.3113 249.594C97.7593 249.594 98.17 249.645 98.5433 249.748C98.9167 249.841 99.2247 249.981 99.4673 250.168V251.274C99.1687 251.078 98.8327 250.933 98.4593 250.84C98.0953 250.737 97.7173 250.686 97.3253 250.686C96.476 250.686 95.8507 250.905 95.4493 251.344C95.0573 251.783 94.8613 252.455 94.8613 253.36C94.8613 254.265 95.0527 254.937 95.4353 255.376C95.818 255.815 96.4247 256.034 97.2553 256.034C97.694 256.034 98.0953 255.983 98.4593 255.88C98.8327 255.768 99.1687 255.628 99.4673 255.46V256.566C99.206 256.725 98.8887 256.86 98.5153 256.972C98.1513 257.084 97.7313 257.14 97.2553 257.14ZM106.901 256.384C106.799 256.459 106.673 256.538 106.523 256.622C106.374 256.706 106.192 256.79 105.977 256.874C105.763 256.949 105.52 257.009 105.249 257.056C104.979 257.112 104.675 257.14 104.339 257.14C103.117 257.14 102.188 256.809 101.553 256.146C100.919 255.483 100.601 254.555 100.601 253.36C100.601 252.772 100.685 252.245 100.853 251.778C101.031 251.311 101.273 250.919 101.581 250.602C101.889 250.275 102.253 250.028 102.673 249.86C103.093 249.683 103.551 249.594 104.045 249.594C104.568 249.594 105.035 249.683 105.445 249.86C105.856 250.037 106.192 250.299 106.453 250.644C106.724 250.989 106.906 251.419 106.999 251.932C107.102 252.436 107.102 253.024 106.999 253.696H101.875C101.922 254.48 102.155 255.068 102.575 255.46C102.995 255.843 103.621 256.034 104.451 256.034C105.011 256.034 105.492 255.955 105.893 255.796C106.295 255.637 106.631 255.465 106.901 255.278V256.384ZM104.017 250.686C103.485 250.686 103.028 250.849 102.645 251.176C102.263 251.503 102.02 251.997 101.917 252.66H105.823C105.861 251.988 105.707 251.493 105.361 251.176C105.016 250.849 104.568 250.686 104.017 250.686ZM111.51 250.784V257H110.278V250.784H107.996V249.734H113.834V250.784H111.51ZM116.488 255.32L120.366 249.734H121.612V257H120.38V251.428L116.516 257H115.256V249.734H116.488V255.32ZM126.549 250.784V257H125.317V250.784H123.035V249.734H128.873V250.784H126.549ZM135.872 256.384C135.769 256.459 135.643 256.538 135.494 256.622C135.345 256.706 135.163 256.79 134.948 256.874C134.733 256.949 134.491 257.009 134.22 257.056C133.949 257.112 133.646 257.14 133.31 257.14C132.087 257.14 131.159 256.809 130.524 256.146C129.889 255.483 129.572 254.555 129.572 253.36C129.572 252.772 129.656 252.245 129.824 251.778C130.001 251.311 130.244 250.919 130.552 250.602C130.86 250.275 131.224 250.028 131.644 249.86C132.064 249.683 132.521 249.594 133.016 249.594C133.539 249.594 134.005 249.683 134.416 249.86C134.827 250.037 135.163 250.299 135.424 250.644C135.695 250.989 135.877 251.419 135.97 251.932C136.073 252.436 136.073 253.024 135.97 253.696H130.846C130.893 254.48 131.126 255.068 131.546 255.46C131.966 255.843 132.591 256.034 133.422 256.034C133.982 256.034 134.463 255.955 134.864 255.796C135.265 255.637 135.601 255.465 135.872 255.278V256.384ZM132.988 250.686C132.456 250.686 131.999 250.849 131.616 251.176C131.233 251.503 130.991 251.997 130.888 252.66H134.794C134.831 251.988 134.677 251.493 134.332 251.176C133.987 250.849 133.539 250.686 132.988 250.686ZM138.183 254.746C138.314 254.27 138.398 253.626 138.435 252.814C138.473 252.002 138.491 250.975 138.491 249.734H143.377V257H142.131V250.784H139.653C139.644 251.783 139.611 252.669 139.555 253.444C139.509 254.219 139.401 254.872 139.233 255.404C139.075 255.936 138.837 256.342 138.519 256.622C138.211 256.893 137.796 257.028 137.273 257.028C137.236 257.028 137.199 257.028 137.161 257.028C137.124 257.028 137.082 257.023 137.035 257.014V255.796C137.082 255.805 137.143 255.81 137.217 255.81C137.693 255.81 138.015 255.455 138.183 254.746ZM146.607 255.32L150.485 249.734H151.731V257H150.499V251.428L146.635 257H145.375V249.734H146.607V255.32Z" fill="#262626"/>
<path d="M120 203.34C120 204.903 119.506 206.616 118.608 207.913C117.719 209.197 116.497 210 115 210C113.503 210 112.281 209.197 111.392 207.913C110.494 206.616 110 204.903 110 203.34C110 200.338 112.29 198 115 198C117.71 198 120 200.338 120 203.34Z" stroke="#262626" stroke-width="2"/>
<path d="M102 221.566C102 219.314 103.315 217.198 105.663 215.603C108.008 214.008 111.305 213 115 213C118.695 213 121.992 214.008 124.337 215.603C126.685 217.198 128 219.314 128 221.566C128 222.91 126.91 224 125.566 224H104.434C103.09 224 102 222.91 102 221.566Z" stroke="#262626" stroke-width="2"/>
<path d="M90.3493 95.14C89.6027 95.14 88.926 95.0233 88.3193 94.79C87.7127 94.5567 87.19 94.2207 86.7513 93.782C86.322 93.334 85.9907 92.7927 85.7573 92.158C85.524 91.514 85.4073 90.7907 85.4073 89.988C85.4073 89.176 85.5147 88.4527 85.7293 87.818C85.944 87.1833 86.2613 86.6467 86.6813 86.208C87.1013 85.76 87.6147 85.4193 88.2213 85.186C88.8373 84.9527 89.5373 84.836 90.3213 84.836C91.0027 84.836 91.6 84.9107 92.1133 85.06C92.6267 85.2 93.0467 85.368 93.3733 85.564V86.824C92.9533 86.5533 92.468 86.3527 91.9173 86.222C91.376 86.0913 90.8393 86.026 90.3073 86.026C89.122 86.026 88.2447 86.3573 87.6753 87.02C87.1153 87.6733 86.8353 88.6627 86.8353 89.988C86.8353 91.3227 87.1387 92.3167 87.7453 92.97C88.3613 93.6233 89.2667 93.95 90.4613 93.95C90.9747 93.95 91.474 93.88 91.9593 93.74C92.454 93.6 92.9253 93.362 93.3733 93.026V94.286C93.1027 94.5007 92.706 94.6967 92.1833 94.874C91.67 95.0513 91.0587 95.14 90.3493 95.14ZM95.2199 87.734H101.044V95H99.8119V88.784H96.4519V95H95.2199V87.734ZM107.31 93.614C107.226 93.782 107.119 93.9593 106.988 94.146C106.857 94.3233 106.694 94.4867 106.498 94.636C106.302 94.7853 106.069 94.9067 105.798 95C105.537 95.0933 105.229 95.14 104.874 95.14C104.221 95.14 103.693 94.958 103.292 94.594C102.891 94.2207 102.69 93.6887 102.69 92.998C102.69 92.2047 102.965 91.6213 103.516 91.248C104.076 90.8747 104.869 90.688 105.896 90.688H107.254V90.086C107.254 89.582 107.123 89.2227 106.862 89.008C106.601 88.7933 106.153 88.686 105.518 88.686C105.07 88.686 104.645 88.7607 104.244 88.91C103.843 89.05 103.483 89.2133 103.166 89.4V88.294C103.427 88.1353 103.777 87.9813 104.216 87.832C104.664 87.6733 105.154 87.594 105.686 87.594C106.601 87.594 107.296 87.7853 107.772 88.168C108.248 88.5413 108.486 89.1247 108.486 89.918V93.824C108.486 93.908 108.486 94.006 108.486 94.118C108.495 94.2207 108.5 94.328 108.5 94.44C108.509 94.552 108.519 94.6593 108.528 94.762C108.537 94.8553 108.547 94.9347 108.556 95H107.436C107.408 94.8693 107.38 94.6873 107.352 94.454C107.333 94.2113 107.324 94.0013 107.324 93.824L107.31 93.614ZM105.14 94.034C105.523 94.034 105.849 93.9547 106.12 93.796C106.391 93.6373 106.61 93.4553 106.778 93.25C106.946 93.0353 107.067 92.83 107.142 92.634C107.217 92.4287 107.254 92.284 107.254 92.2V91.668H106.022C105.285 91.668 104.748 91.7753 104.412 91.99C104.085 92.1953 103.922 92.508 103.922 92.928C103.922 93.2547 104.02 93.5207 104.216 93.726C104.412 93.9313 104.72 94.034 105.14 94.034ZM117.353 89.162L114.889 94.188H113.909L111.585 89.134V95H110.423V87.734H112.257L114.483 92.606L116.863 87.734H118.571V95H117.353V89.162ZM126.363 94.384C126.261 94.4587 126.135 94.538 125.985 94.622C125.836 94.706 125.654 94.79 125.439 94.874C125.225 94.9487 124.982 95.0093 124.711 95.056C124.441 95.112 124.137 95.14 123.801 95.14C122.579 95.14 121.65 94.8087 121.015 94.146C120.381 93.4833 120.063 92.5547 120.063 91.36C120.063 90.772 120.147 90.2447 120.315 89.778C120.493 89.3113 120.735 88.9193 121.043 88.602C121.351 88.2753 121.715 88.028 122.135 87.86C122.555 87.6827 123.013 87.594 123.507 87.594C124.03 87.594 124.497 87.6827 124.907 87.86C125.318 88.0373 125.654 88.2987 125.915 88.644C126.186 88.9893 126.368 89.4187 126.461 89.932C126.564 90.436 126.564 91.024 126.461 91.696H121.337C121.384 92.48 121.617 93.068 122.037 93.46C122.457 93.8427 123.083 94.034 123.913 94.034C124.473 94.034 124.954 93.9547 125.355 93.796C125.757 93.6373 126.093 93.4647 126.363 93.278V94.384ZM123.479 88.686C122.947 88.686 122.49 88.8493 122.107 89.176C121.725 89.5027 121.482 89.9973 121.379 90.66H125.285C125.323 89.988 125.169 89.4933 124.823 89.176C124.478 88.8493 124.03 88.686 123.479 88.686ZM131.768 95.14C131.208 95.14 130.723 95.0093 130.312 94.748C129.911 94.4867 129.589 94.1273 129.346 93.67V97.478H128.114V87.734H129.192L129.318 89.148C129.561 88.672 129.888 88.294 130.298 88.014C130.709 87.734 131.218 87.594 131.824 87.594C132.244 87.594 132.646 87.6733 133.028 87.832C133.42 87.9813 133.761 88.2147 134.05 88.532C134.349 88.84 134.582 89.232 134.75 89.708C134.928 90.1747 135.016 90.7253 135.016 91.36C135.016 92.004 134.928 92.564 134.75 93.04C134.573 93.5067 134.335 93.8987 134.036 94.216C133.738 94.524 133.392 94.7573 133 94.916C132.608 95.0653 132.198 95.14 131.768 95.14ZM131.586 94.034C132.23 94.034 132.748 93.8147 133.14 93.376C133.542 92.928 133.742 92.256 133.742 91.36C133.742 90.4827 133.542 89.82 133.14 89.372C132.748 88.9147 132.23 88.686 131.586 88.686C131.269 88.686 130.97 88.742 130.69 88.854C130.42 88.966 130.182 89.134 129.976 89.358C129.78 89.5727 129.622 89.848 129.5 90.184C129.388 90.52 129.332 90.912 129.332 91.36C129.332 91.808 129.388 92.2 129.5 92.536C129.622 92.872 129.78 93.152 129.976 93.376C130.182 93.6 130.42 93.768 130.69 93.88C130.97 93.9827 131.269 94.034 131.586 94.034ZM141.885 92.578C141.885 92.998 141.81 93.362 141.661 93.67C141.512 93.978 141.302 94.23 141.031 94.426C140.76 94.622 140.438 94.7667 140.065 94.86C139.692 94.9533 139.286 95 138.847 95H136.509V87.734H137.741V90.268H138.931C139.855 90.268 140.578 90.45 141.101 90.814C141.624 91.178 141.885 91.766 141.885 92.578ZM144.167 95H142.935V87.734H144.167V95ZM137.741 91.318V93.95H138.847C139.379 93.95 139.808 93.852 140.135 93.656C140.471 93.4507 140.639 93.1147 140.639 92.648C140.639 92.172 140.49 91.8313 140.191 91.626C139.892 91.4207 139.472 91.318 138.931 91.318H137.741Z" fill="#262626"/>
<rect x="102" y="75" width="19" height="26" rx="3" transform="rotate(-90 102 75)" stroke="#262626" stroke-width="2" stroke-linecap="round" stroke-linejoin="round"/>
<path d="M103 57L113.759 65.5172C114.486 66.0931 115.514 66.0931 116.241 65.5172L127 57" stroke="#262626" stroke-width="2"/>
<path d="M77.1565 157.962H80.5305C81.2025 157.962 81.8278 158.041 82.4065 158.2C82.9851 158.359 83.4891 158.62 83.9185 158.984C84.3478 159.348 84.6838 159.829 84.9265 160.426C85.1691 161.023 85.2905 161.761 85.2905 162.638C85.2905 163.525 85.1645 164.304 84.9125 164.976C84.6698 165.639 84.3291 166.194 83.8905 166.642C83.4611 167.09 82.9431 167.431 82.3365 167.664C81.7391 167.888 81.0858 168 80.3765 168H77.1565V157.962ZM78.4725 159.166V166.81H80.3765C80.8898 166.81 81.3611 166.731 81.7905 166.572C82.2198 166.413 82.5885 166.171 82.8965 165.844C83.2045 165.508 83.4425 165.083 83.6105 164.57C83.7785 164.057 83.8625 163.445 83.8625 162.736C83.8625 162.036 83.7785 161.457 83.6105 161C83.4425 160.533 83.2091 160.165 82.9105 159.894C82.6211 159.623 82.2711 159.437 81.8605 159.334C81.4498 159.222 81.0065 159.166 80.5305 159.166H78.4725ZM87.0412 157.962H90.4152C91.0872 157.962 91.7126 158.041 92.2912 158.2C92.8699 158.359 93.3739 158.62 93.8032 158.984C94.2326 159.348 94.5686 159.829 94.8112 160.426C95.0539 161.023 95.1752 161.761 95.1752 162.638C95.1752 163.525 95.0492 164.304 94.7972 164.976C94.5546 165.639 94.2139 166.194 93.7752 166.642C93.3459 167.09 92.8279 167.431 92.2212 167.664C91.6239 167.888 90.9706 168 90.2612 168H87.0412V157.962ZM88.3572 159.166V166.81H90.2612C90.7746 166.81 91.2459 166.731 91.6752 166.572C92.1046 166.413 92.4732 166.171 92.7812 165.844C93.0892 165.508 93.3272 165.083 93.4952 164.57C93.6632 164.057 93.7472 163.445 93.7472 162.736C93.7472 162.036 93.6632 161.457 93.4952 161C93.3272 160.533 93.0939 160.165 92.7952 159.894C92.5059 159.623 92.1559 159.437 91.7452 159.334C91.3346 159.222 90.8912 159.166 90.4152 159.166H88.3572ZM99.8084 168.14C99.3137 168.14 98.8517 168.056 98.4224 167.888C97.993 167.72 97.6197 167.477 97.3024 167.16C96.9944 166.833 96.7517 166.437 96.5744 165.97C96.397 165.503 96.3084 164.967 96.3084 164.36C96.3084 163.763 96.397 163.231 96.5744 162.764C96.7517 162.288 96.9944 161.891 97.3024 161.574C97.6197 161.257 97.993 161.014 98.4224 160.846C98.8517 160.678 99.3137 160.594 99.8084 160.594C100.312 160.594 100.779 160.678 101.208 160.846C101.638 161.014 102.006 161.257 102.314 161.574C102.632 161.891 102.879 162.288 103.056 162.764C103.243 163.231 103.336 163.763 103.336 164.36C103.336 164.967 103.243 165.503 103.056 165.97C102.879 166.437 102.632 166.833 102.314 167.16C102.006 167.477 101.638 167.72 101.208 167.888C100.779 168.056 100.312 168.14 99.8084 168.14ZM99.8084 167.034C100.135 167.034 100.434 166.983 100.704 166.88C100.984 166.768 101.227 166.605 101.432 166.39C101.638 166.166 101.796 165.886 101.908 165.55C102.02 165.214 102.076 164.817 102.076 164.36C102.076 163.903 102.02 163.506 101.908 163.17C101.796 162.834 101.638 162.559 101.432 162.344C101.227 162.12 100.984 161.957 100.704 161.854C100.434 161.742 100.135 161.686 99.8084 161.686C99.4817 161.686 99.183 161.742 98.9124 161.854C98.6417 161.957 98.4037 162.12 98.1984 162.344C98.0024 162.559 97.8484 162.834 97.7364 163.17C97.6244 163.506 97.5684 163.903 97.5684 164.36C97.5684 164.817 97.6244 165.214 97.7364 165.55C97.8484 165.886 98.0024 166.166 98.1984 166.39C98.4037 166.605 98.6417 166.768 98.9124 166.88C99.183 166.983 99.4817 167.034 99.8084 167.034ZM107.806 168.14C107.349 168.14 106.938 168.107 106.574 168.042C106.21 167.986 105.888 167.911 105.608 167.818C105.337 167.715 105.104 167.608 104.908 167.496C104.721 167.375 104.572 167.258 104.46 167.146V165.886C104.6 166.007 104.782 166.133 105.006 166.264C105.23 166.385 105.487 166.497 105.776 166.6C106.075 166.703 106.392 166.787 106.728 166.852C107.073 166.917 107.433 166.95 107.806 166.95C108.534 166.95 109.113 166.815 109.542 166.544C109.971 166.264 110.186 165.844 110.186 165.284C110.186 165.004 110.135 164.775 110.032 164.598C109.929 164.411 109.78 164.257 109.584 164.136C109.388 164.005 109.141 163.898 108.842 163.814C108.553 163.721 108.212 163.623 107.82 163.52C107.428 163.417 107.036 163.301 106.644 163.17C106.252 163.039 105.897 162.867 105.58 162.652C105.272 162.437 105.02 162.167 104.824 161.84C104.637 161.513 104.544 161.098 104.544 160.594C104.544 159.726 104.847 159.049 105.454 158.564C106.061 158.079 106.989 157.836 108.24 157.836C108.604 157.836 108.926 157.859 109.206 157.906C109.495 157.943 109.747 157.995 109.962 158.06C110.186 158.116 110.377 158.181 110.536 158.256C110.704 158.331 110.853 158.401 110.984 158.466V159.726C110.592 159.474 110.167 159.297 109.71 159.194C109.262 159.082 108.772 159.026 108.24 159.026C107.792 159.026 107.414 159.063 107.106 159.138C106.807 159.203 106.565 159.301 106.378 159.432C106.191 159.563 106.056 159.721 105.972 159.908C105.888 160.095 105.846 160.305 105.846 160.538C105.846 160.818 105.907 161.051 106.028 161.238C106.159 161.425 106.327 161.583 106.532 161.714C106.747 161.835 106.989 161.938 107.26 162.022C107.531 162.106 107.815 162.181 108.114 162.246C108.506 162.339 108.907 162.447 109.318 162.568C109.729 162.689 110.097 162.857 110.424 163.072C110.751 163.287 111.017 163.567 111.222 163.912C111.437 164.248 111.544 164.687 111.544 165.228C111.544 165.76 111.437 166.213 111.222 166.586C111.017 166.95 110.741 167.249 110.396 167.482C110.051 167.715 109.654 167.883 109.206 167.986C108.758 168.089 108.291 168.14 107.806 168.14ZM113.078 163.17H116.438V164.29H113.078V163.17ZM122.547 166.614C122.463 166.782 122.356 166.959 122.225 167.146C122.095 167.323 121.931 167.487 121.735 167.636C121.539 167.785 121.306 167.907 121.035 168C120.774 168.093 120.466 168.14 120.111 168.14C119.458 168.14 118.931 167.958 118.529 167.594C118.128 167.221 117.927 166.689 117.927 165.998C117.927 165.205 118.203 164.621 118.753 164.248C119.313 163.875 120.107 163.688 121.133 163.688H122.491V163.086C122.491 162.582 122.361 162.223 122.099 162.008C121.838 161.793 121.39 161.686 120.755 161.686C120.307 161.686 119.883 161.761 119.481 161.91C119.08 162.05 118.721 162.213 118.403 162.4V161.294C118.665 161.135 119.015 160.981 119.453 160.832C119.901 160.673 120.391 160.594 120.923 160.594C121.838 160.594 122.533 160.785 123.009 161.168C123.485 161.541 123.723 162.125 123.723 162.918V166.824C123.723 166.908 123.723 167.006 123.723 167.118C123.733 167.221 123.737 167.328 123.737 167.44C123.747 167.552 123.756 167.659 123.765 167.762C123.775 167.855 123.784 167.935 123.793 168H122.673C122.645 167.869 122.617 167.687 122.589 167.454C122.571 167.211 122.561 167.001 122.561 166.824L122.547 166.614ZM120.377 167.034C120.76 167.034 121.087 166.955 121.357 166.796C121.628 166.637 121.847 166.455 122.015 166.25C122.183 166.035 122.305 165.83 122.379 165.634C122.454 165.429 122.491 165.284 122.491 165.2V164.668H121.259C120.522 164.668 119.985 164.775 119.649 164.99C119.323 165.195 119.159 165.508 119.159 165.928C119.159 166.255 119.257 166.521 119.453 166.726C119.649 166.931 119.957 167.034 120.377 167.034ZM128.518 161.784V168H127.286V161.784H125.004V160.734H130.842V161.784H128.518ZM136.315 166.614C136.231 166.782 136.123 166.959 135.993 167.146C135.862 167.323 135.699 167.487 135.503 167.636C135.307 167.785 135.073 167.907 134.803 168C134.541 168.093 134.233 168.14 133.879 168.14C133.225 168.14 132.698 167.958 132.297 167.594C131.895 167.221 131.695 166.689 131.695 165.998C131.695 165.205 131.97 164.621 132.521 164.248C133.081 163.875 133.874 163.688 134.901 163.688H136.259V163.086C136.259 162.582 136.128 162.223 135.867 162.008C135.605 161.793 135.157 161.686 134.523 161.686C134.075 161.686 133.65 161.761 133.249 161.91C132.847 162.05 132.488 162.213 132.171 162.4V161.294C132.432 161.135 132.782 160.981 133.221 160.832C133.669 160.673 134.159 160.594 134.691 160.594C135.605 160.594 136.301 160.785 136.777 161.168C137.253 161.541 137.491 162.125 137.491 162.918V166.824C137.491 166.908 137.491 167.006 137.491 167.118C137.5 167.221 137.505 167.328 137.505 167.44C137.514 167.552 137.523 167.659 137.533 167.762C137.542 167.855 137.551 167.935 137.561 168H136.441C136.413 167.869 136.385 167.687 136.357 167.454C136.338 167.211 136.329 167.001 136.329 166.824L136.315 166.614ZM134.145 167.034C134.527 167.034 134.854 166.955 135.125 166.796C135.395 166.637 135.615 166.455 135.783 166.25C135.951 166.035 136.072 165.83 136.147 165.634C136.221 165.429 136.259 165.284 136.259 165.2V164.668H135.027C134.289 164.668 133.753 164.775 133.417 164.99C133.09 165.195 132.927 165.508 132.927 165.928C132.927 166.255 133.025 166.521 133.221 166.726C133.417 166.931 133.725 167.034 134.145 167.034ZM141.304 164.906H140.66V168H139.428V160.734H140.66V163.856H141.36L143.908 160.734H145.308L142.326 164.318L145.364 168H143.866L141.304 164.906ZM147.892 166.32L151.77 160.734H153.016V168H151.784V162.428L147.92 168H146.66V160.734H147.892V166.32Z" fill="#262626"/>
<rect x="120.986" y="125.414" width="7" height="5" rx="1" transform="rotate(45.5976 120.986 125.414)" stroke="#262626" stroke-width="2"/>
<circle cx="113" cy="137" r="10" fill="white" stroke="#262626" stroke-width="2"/>
<path d="M126.207 126.207C126.598 125.817 126.598 125.183 126.207 124.793C125.817 124.402 125.183 124.402 124.793 124.793L126.207 126.207ZM124.207 128.207L126.207 126.207L124.793 124.793L122.793 126.793L124.207 128.207Z" fill="#262626"/>
<path d="M94.9787 333.674L92.0247 338H90.6247L94.2927 332.722L91.1007 327.962H92.6827L95.2307 331.798L97.7507 327.962H99.1507L95.9027 332.708L99.4447 338H97.8767L94.9787 333.674ZM104.774 336.614C104.69 336.782 104.582 336.959 104.452 337.146C104.321 337.323 104.158 337.487 103.962 337.636C103.766 337.785 103.532 337.907 103.262 338C103 338.093 102.692 338.14 102.338 338.14C101.684 338.14 101.157 337.958 100.756 337.594C100.354 337.221 100.154 336.689 100.154 335.998C100.154 335.205 100.429 334.621 100.98 334.248C101.54 333.875 102.333 333.688 103.36 333.688H104.718V333.086C104.718 332.582 104.587 332.223 104.326 332.008C104.064 331.793 103.616 331.686 102.982 331.686C102.534 331.686 102.109 331.761 101.708 331.91C101.306 332.05 100.947 332.213 100.63 332.4V331.294C100.891 331.135 101.241 330.981 101.68 330.832C102.128 330.673 102.618 330.594 103.15 330.594C104.064 330.594 104.76 330.785 105.236 331.168C105.712 331.541 105.95 332.125 105.95 332.918V336.824C105.95 336.908 105.95 337.006 105.95 337.118C105.959 337.221 105.964 337.328 105.964 337.44C105.973 337.552 105.982 337.659 105.992 337.762C106.001 337.855 106.01 337.935 106.02 338H104.9C104.872 337.869 104.844 337.687 104.816 337.454C104.797 337.211 104.788 337.001 104.788 336.824L104.774 336.614ZM102.604 337.034C102.986 337.034 103.313 336.955 103.584 336.796C103.854 336.637 104.074 336.455 104.242 336.25C104.41 336.035 104.531 335.83 104.606 335.634C104.68 335.429 104.718 335.284 104.718 335.2V334.668H103.486C102.748 334.668 102.212 334.775 101.876 334.99C101.549 335.195 101.386 335.508 101.386 335.928C101.386 336.255 101.484 336.521 101.68 336.726C101.876 336.931 102.184 337.034 102.604 337.034ZM109.763 334.906H109.119V338H107.887V330.734H109.119V333.856H109.819L112.367 330.734H113.767L110.785 334.318L113.823 338H112.325L109.763 334.906ZM120.628 337.384C120.525 337.459 120.399 337.538 120.25 337.622C120.101 337.706 119.919 337.79 119.704 337.874C119.489 337.949 119.247 338.009 118.976 338.056C118.705 338.112 118.402 338.14 118.066 338.14C116.843 338.14 115.915 337.809 115.28 337.146C114.645 336.483 114.328 335.555 114.328 334.36C114.328 333.772 114.412 333.245 114.58 332.778C114.757 332.311 115 331.919 115.308 331.602C115.616 331.275 115.98 331.028 116.4 330.86C116.82 330.683 117.277 330.594 117.772 330.594C118.295 330.594 118.761 330.683 119.172 330.86C119.583 331.037 119.919 331.299 120.18 331.644C120.451 331.989 120.633 332.419 120.726 332.932C120.829 333.436 120.829 334.024 120.726 334.696H115.602C115.649 335.48 115.882 336.068 116.302 336.46C116.722 336.843 117.347 337.034 118.178 337.034C118.738 337.034 119.219 336.955 119.62 336.796C120.021 336.637 120.357 336.465 120.628 336.278V337.384ZM117.744 331.686C117.212 331.686 116.755 331.849 116.372 332.176C115.989 332.503 115.747 332.997 115.644 333.66H119.55C119.587 332.988 119.433 332.493 119.088 332.176C118.743 331.849 118.295 331.686 117.744 331.686ZM126.033 338.14C125.473 338.14 124.988 338.009 124.577 337.748C124.176 337.487 123.854 337.127 123.611 336.67V340.478H122.379V330.734H123.457L123.583 332.148C123.826 331.672 124.152 331.294 124.563 331.014C124.974 330.734 125.482 330.594 126.089 330.594C126.509 330.594 126.91 330.673 127.293 330.832C127.685 330.981 128.026 331.215 128.315 331.532C128.614 331.84 128.847 332.232 129.015 332.708C129.192 333.175 129.281 333.725 129.281 334.36C129.281 335.004 129.192 335.564 129.015 336.04C128.838 336.507 128.6 336.899 128.301 337.216C128.002 337.524 127.657 337.757 127.265 337.916C126.873 338.065 126.462 338.14 126.033 338.14ZM125.851 337.034C126.495 337.034 127.013 336.815 127.405 336.376C127.806 335.928 128.007 335.256 128.007 334.36C128.007 333.483 127.806 332.82 127.405 332.372C127.013 331.915 126.495 331.686 125.851 331.686C125.534 331.686 125.235 331.742 124.955 331.854C124.684 331.966 124.446 332.134 124.241 332.358C124.045 332.573 123.886 332.848 123.765 333.184C123.653 333.52 123.597 333.912 123.597 334.36C123.597 334.808 123.653 335.2 123.765 335.536C123.886 335.872 124.045 336.152 124.241 336.376C124.446 336.6 124.684 336.768 124.955 336.88C125.235 336.983 125.534 337.034 125.851 337.034ZM136.15 335.578C136.15 335.998 136.075 336.362 135.926 336.67C135.776 336.978 135.566 337.23 135.296 337.426C135.025 337.622 134.703 337.767 134.33 337.86C133.956 337.953 133.55 338 133.112 338H130.774V330.734H132.006V333.268H133.196C134.12 333.268 134.843 333.45 135.366 333.814C135.888 334.178 136.15 334.766 136.15 335.578ZM138.432 338H137.2V330.734H138.432V338ZM132.006 334.318V336.95H133.112C133.644 336.95 134.073 336.852 134.4 336.656C134.736 336.451 134.904 336.115 134.904 335.648C134.904 335.172 134.754 334.831 134.456 334.626C134.157 334.421 133.737 334.318 133.196 334.318H132.006Z" fill="#262626"/>
<path d="M103 290C103 289.448 103.448 289 104 289H126C126.552 289 127 289.448 127 290V303C127 309.627 121.627 315 115 315C108.373 315 103 309.627 103 303V290Z" stroke="#262626" stroke-width="2"/>
<path d="M106 298H111" stroke="#262626" stroke-width="2" stroke-linecap="round"/>
<path d="M106 302V302C107.381 303.381 109.619 303.381 111 302V302" stroke="#262626" stroke-width="2" stroke-linecap="round"/>
<path d="M119 302V302C120.381 303.381 122.619 303.381 124 302V302" stroke="#262626" stroke-width="2" stroke-linecap="round"/>
<path d="M119 298H124" stroke="#262626" stroke-width="2" stroke-linecap="round"/>
<path d="M115 315V311.5" stroke="#262626" stroke-width="2" stroke-linecap="round"/>
<path d="M79.6926 407.962H87.2386V418H85.9086V409.166H81.0086V418H79.6926V407.962ZM92.3914 418.14C91.8967 418.14 91.4347 418.056 91.0054 417.888C90.576 417.72 90.2027 417.477 89.8854 417.16C89.5774 416.833 89.3347 416.437 89.1574 415.97C88.98 415.503 88.8914 414.967 88.8914 414.36C88.8914 413.763 88.98 413.231 89.1574 412.764C89.3347 412.288 89.5774 411.891 89.8854 411.574C90.2027 411.257 90.576 411.014 91.0054 410.846C91.4347 410.678 91.8967 410.594 92.3914 410.594C92.8954 410.594 93.362 410.678 93.7914 410.846C94.2207 411.014 94.5894 411.257 94.8974 411.574C95.2147 411.891 95.462 412.288 95.6394 412.764C95.826 413.231 95.9194 413.763 95.9194 414.36C95.9194 414.967 95.826 415.503 95.6394 415.97C95.462 416.437 95.2147 416.833 94.8974 417.16C94.5894 417.477 94.2207 417.72 93.7914 417.888C93.362 418.056 92.8954 418.14 92.3914 418.14ZM92.3914 417.034C92.718 417.034 93.0167 416.983 93.2874 416.88C93.5674 416.768 93.81 416.605 94.0154 416.39C94.2207 416.166 94.3794 415.886 94.4914 415.55C94.6034 415.214 94.6594 414.817 94.6594 414.36C94.6594 413.903 94.6034 413.506 94.4914 413.17C94.3794 412.834 94.2207 412.559 94.0154 412.344C93.81 412.12 93.5674 411.957 93.2874 411.854C93.0167 411.742 92.718 411.686 92.3914 411.686C92.0647 411.686 91.766 411.742 91.4954 411.854C91.2247 411.957 90.9867 412.12 90.7814 412.344C90.5854 412.559 90.4314 412.834 90.3194 413.17C90.2074 413.506 90.1514 413.903 90.1514 414.36C90.1514 414.817 90.2074 415.214 90.3194 415.55C90.4314 415.886 90.5854 416.166 90.7814 416.39C90.9867 416.605 91.2247 416.768 91.4954 416.88C91.766 416.983 92.0647 417.034 92.3914 417.034ZM98.6531 416.32L102.531 410.734H103.777V418H102.545V412.428L98.6811 418H97.4211V410.734H98.6531V416.32ZM108.924 418.14C108.364 418.14 107.856 418.056 107.398 417.888C106.95 417.711 106.568 417.463 106.25 417.146C105.933 416.819 105.69 416.423 105.522 415.956C105.354 415.489 105.27 414.957 105.27 414.36C105.27 413.772 105.354 413.245 105.522 412.778C105.7 412.311 105.947 411.919 106.264 411.602C106.582 411.275 106.969 411.028 107.426 410.86C107.884 410.683 108.402 410.594 108.98 410.594C109.428 410.594 109.839 410.645 110.212 410.748C110.586 410.841 110.894 410.981 111.136 411.168V412.274C110.838 412.078 110.502 411.933 110.128 411.84C109.764 411.737 109.386 411.686 108.994 411.686C108.145 411.686 107.52 411.905 107.118 412.344C106.726 412.783 106.53 413.455 106.53 414.36C106.53 415.265 106.722 415.937 107.104 416.376C107.487 416.815 108.094 417.034 108.924 417.034C109.363 417.034 109.764 416.983 110.128 416.88C110.502 416.768 110.838 416.628 111.136 416.46V417.566C110.875 417.725 110.558 417.86 110.184 417.972C109.82 418.084 109.4 418.14 108.924 418.14ZM114.664 414.906H114.02V418H112.788V410.734H114.02V413.856H114.72L117.268 410.734H118.668L115.686 414.318L118.724 418H117.226L114.664 414.906ZM122.729 418.14C122.235 418.14 121.773 418.056 121.343 417.888C120.914 417.72 120.541 417.477 120.223 417.16C119.915 416.833 119.673 416.437 119.495 415.97C119.318 415.503 119.229 414.967 119.229 414.36C119.229 413.763 119.318 413.231 119.495 412.764C119.673 412.288 119.915 411.891 120.223 411.574C120.541 411.257 120.914 411.014 121.343 410.846C121.773 410.678 122.235 410.594 122.729 410.594C123.233 410.594 123.7 410.678 124.129 410.846C124.559 411.014 124.927 411.257 125.235 411.574C125.553 411.891 125.8 412.288 125.977 412.764C126.164 413.231 126.257 413.763 126.257 414.36C126.257 414.967 126.164 415.503 125.977 415.97C125.8 416.437 125.553 416.833 125.235 417.16C124.927 417.477 124.559 417.72 124.129 417.888C123.7 418.056 123.233 418.14 122.729 418.14ZM122.729 417.034C123.056 417.034 123.355 416.983 123.625 416.88C123.905 416.768 124.148 416.605 124.353 416.39C124.559 416.166 124.717 415.886 124.829 415.55C124.941 415.214 124.997 414.817 124.997 414.36C124.997 413.903 124.941 413.506 124.829 413.17C124.717 412.834 124.559 412.559 124.353 412.344C124.148 412.12 123.905 411.957 123.625 411.854C123.355 411.742 123.056 411.686 122.729 411.686C122.403 411.686 122.104 411.742 121.833 411.854C121.563 411.957 121.325 412.12 121.119 412.344C120.923 412.559 120.769 412.834 120.657 413.17C120.545 413.506 120.489 413.903 120.489 414.36C120.489 414.817 120.545 415.214 120.657 415.55C120.769 415.886 120.923 416.166 121.119 416.39C121.325 416.605 121.563 416.768 121.833 416.88C122.104 416.983 122.403 417.034 122.729 417.034ZM127.759 410.734H130.475C131.352 410.734 132.015 410.888 132.463 411.196C132.911 411.495 133.135 411.966 133.135 412.61C133.135 413.039 133.023 413.385 132.799 413.646C132.584 413.898 132.276 414.08 131.875 414.192C132.911 414.36 133.429 414.934 133.429 415.914C133.429 416.287 133.354 416.609 133.205 416.88C133.056 417.141 132.85 417.356 132.589 417.524C132.328 417.692 132.01 417.813 131.637 417.888C131.273 417.963 130.876 418 130.447 418H127.759V410.734ZM128.991 411.784V413.758H130.363C130.83 413.758 131.203 413.674 131.483 413.506C131.772 413.338 131.917 413.095 131.917 412.778C131.917 412.395 131.791 412.134 131.539 411.994C131.287 411.854 130.928 411.784 130.461 411.784H128.991ZM128.991 414.738V416.95H130.433C130.694 416.95 130.928 416.936 131.133 416.908C131.348 416.871 131.53 416.81 131.679 416.726C131.838 416.642 131.959 416.53 132.043 416.39C132.127 416.25 132.169 416.077 132.169 415.872C132.169 415.452 132.024 415.158 131.735 414.99C131.446 414.822 131.012 414.738 130.433 414.738H128.991ZM140.655 415.578C140.655 415.998 140.58 416.362 140.431 416.67C140.281 416.978 140.071 417.23 139.801 417.426C139.53 417.622 139.208 417.767 138.835 417.86C138.461 417.953 138.055 418 137.617 418H135.279V410.734H136.511V413.268H137.701C138.625 413.268 139.348 413.45 139.871 413.814C140.393 414.178 140.655 414.766 140.655 415.578ZM142.937 418H141.705V410.734H142.937V418ZM136.511 414.318V416.95H137.617C138.149 416.95 138.578 416.852 138.905 416.656C139.241 416.451 139.409 416.115 139.409 415.648C139.409 415.172 139.259 414.831 138.961 414.626C138.662 414.421 138.242 414.318 137.701 414.318H136.511ZM150.74 417.384C150.638 417.459 150.512 417.538 150.362 417.622C150.213 417.706 150.031 417.79 149.816 417.874C149.602 417.949 149.359 418.009 149.088 418.056C148.818 418.112 148.514 418.14 148.178 418.14C146.956 418.14 146.027 417.809 145.392 417.146C144.758 416.483 144.44 415.555 144.44 414.36C144.44 413.772 144.524 413.245 144.692 412.778C144.87 412.311 145.112 411.919 145.42 411.602C145.728 411.275 146.092 411.028 146.512 410.86C146.932 410.683 147.39 410.594 147.884 410.594C148.407 410.594 148.874 410.683 149.284 410.86C149.695 411.037 150.031 411.299 150.292 411.644C150.563 411.989 150.745 412.419 150.838 412.932C150.941 413.436 150.941 414.024 150.838 414.696H145.714C145.761 415.48 145.994 416.068 146.414 416.46C146.834 416.843 147.46 417.034 148.29 417.034C148.85 417.034 149.331 416.955 149.732 416.796C150.134 416.637 150.47 416.465 150.74 416.278V417.384ZM147.856 411.686C147.324 411.686 146.867 411.849 146.484 412.176C146.102 412.503 145.859 412.997 145.756 413.66H149.662C149.7 412.988 149.546 412.493 149.2 412.176C148.855 411.849 148.407 411.686 147.856 411.686ZM71.9472 432.14C71.3872 432.14 70.9018 432.009 70.4912 431.748C70.0898 431.487 69.7678 431.127 69.5252 430.67V434.478H68.2932V424.734H69.3712L69.4972 426.148C69.7398 425.672 70.0665 425.294 70.4772 425.014C70.8878 424.734 71.3965 424.594 72.0032 424.594C72.4232 424.594 72.8245 424.673 73.2072 424.832C73.5992 424.981 73.9398 425.215 74.2292 425.532C74.5278 425.84 74.7612 426.232 74.9292 426.708C75.1065 427.175 75.1952 427.725 75.1952 428.36C75.1952 429.004 75.1065 429.564 74.9292 430.04C74.7518 430.507 74.5138 430.899 74.2152 431.216C73.9165 431.524 73.5712 431.757 73.1792 431.916C72.7872 432.065 72.3765 432.14 71.9472 432.14ZM71.7652 431.034C72.4092 431.034 72.9272 430.815 73.3192 430.376C73.7205 429.928 73.9212 429.256 73.9212 428.36C73.9212 427.483 73.7205 426.82 73.3192 426.372C72.9272 425.915 72.4092 425.686 71.7652 425.686C71.4478 425.686 71.1492 425.742 70.8692 425.854C70.5985 425.966 70.3605 426.134 70.1552 426.358C69.9592 426.573 69.8005 426.848 69.6792 427.184C69.5672 427.52 69.5112 427.912 69.5112 428.36C69.5112 428.808 69.5672 429.2 69.6792 429.536C69.8005 429.872 69.9592 430.152 70.1552 430.376C70.3605 430.6 70.5985 430.768 70.8692 430.88C71.1492 430.983 71.4478 431.034 71.7652 431.034ZM79.6697 432.14C79.175 432.14 78.713 432.056 78.2837 431.888C77.8544 431.72 77.481 431.477 77.1637 431.16C76.8557 430.833 76.613 430.437 76.4357 429.97C76.2584 429.503 76.1697 428.967 76.1697 428.36C76.1697 427.763 76.2584 427.231 76.4357 426.764C76.613 426.288 76.8557 425.891 77.1637 425.574C77.481 425.257 77.8544 425.014 78.2837 424.846C78.713 424.678 79.175 424.594 79.6697 424.594C80.1737 424.594 80.6404 424.678 81.0697 424.846C81.499 425.014 81.8677 425.257 82.1757 425.574C82.493 425.891 82.7404 426.288 82.9177 426.764C83.1044 427.231 83.1977 427.763 83.1977 428.36C83.1977 428.967 83.1044 429.503 82.9177 429.97C82.7404 430.437 82.493 430.833 82.1757 431.16C81.8677 431.477 81.499 431.72 81.0697 431.888C80.6404 432.056 80.1737 432.14 79.6697 432.14ZM79.6697 431.034C79.9964 431.034 80.295 430.983 80.5657 430.88C80.8457 430.768 81.0884 430.605 81.2937 430.39C81.499 430.166 81.6577 429.886 81.7697 429.55C81.8817 429.214 81.9377 428.817 81.9377 428.36C81.9377 427.903 81.8817 427.506 81.7697 427.17C81.6577 426.834 81.499 426.559 81.2937 426.344C81.0884 426.12 80.8457 425.957 80.5657 425.854C80.295 425.742 79.9964 425.686 79.6697 425.686C79.343 425.686 79.0444 425.742 78.7737 425.854C78.503 425.957 78.265 426.12 78.0597 426.344C77.8637 426.559 77.7097 426.834 77.5977 427.17C77.4857 427.506 77.4297 427.903 77.4297 428.36C77.4297 428.817 77.4857 429.214 77.5977 429.55C77.7097 429.886 77.8637 430.166 78.0597 430.39C78.265 430.605 78.503 430.768 78.7737 430.88C79.0444 430.983 79.343 431.034 79.6697 431.034ZM91.2514 428.36C91.2514 428.967 91.1581 429.503 90.9714 429.97C90.7941 430.437 90.5467 430.833 90.2294 431.16C89.9214 431.477 89.5527 431.72 89.1234 431.888C88.6941 432.056 88.2274 432.14 87.7234 432.14C87.2101 432.14 86.7387 432.056 86.3094 431.888C85.8801 431.711 85.5114 431.445 85.2034 431.09C84.8954 430.735 84.6527 430.287 84.4754 429.746C84.3074 429.205 84.2234 428.565 84.2234 427.828C84.2234 427.221 84.2421 426.643 84.2794 426.092C84.3167 425.541 84.4007 425.033 84.5314 424.566C84.6621 424.09 84.8487 423.665 85.0914 423.292C85.3434 422.909 85.6794 422.592 86.0994 422.34C86.3327 422.2 86.5754 422.097 86.8274 422.032C87.0794 421.957 87.3314 421.901 87.5834 421.864C87.8447 421.827 88.1061 421.803 88.3674 421.794C88.6287 421.785 88.8854 421.775 89.1374 421.766C89.5107 421.738 89.8234 421.691 90.0754 421.626C90.3274 421.561 90.5514 421.472 90.7474 421.36V422.48C90.5421 422.611 90.3227 422.704 90.0894 422.76C89.8654 422.807 89.5901 422.849 89.2634 422.886C88.7314 422.933 88.2414 422.97 87.7934 422.998C87.3547 423.017 86.9534 423.119 86.5894 423.306C86.1227 423.567 85.7914 423.959 85.5954 424.482C85.4087 424.995 85.2921 425.607 85.2454 426.316C85.7307 425.196 86.6454 424.636 87.9894 424.636C88.4467 424.636 88.8714 424.72 89.2634 424.888C89.6647 425.047 90.0101 425.285 90.2994 425.602C90.5981 425.919 90.8314 426.311 90.9994 426.778C91.1674 427.235 91.2514 427.763 91.2514 428.36ZM87.7234 431.034C88.0501 431.034 88.3487 430.983 88.6194 430.88C88.8994 430.768 89.1421 430.605 89.3474 430.39C89.5527 430.166 89.7114 429.886 89.8234 429.55C89.9354 429.214 89.9914 428.817 89.9914 428.36C89.9914 427.903 89.9354 427.506 89.8234 427.17C89.7114 426.834 89.5527 426.559 89.3474 426.344C89.1421 426.12 88.8994 425.957 88.6194 425.854C88.3487 425.742 88.0501 425.686 87.7234 425.686C87.0794 425.686 86.5427 425.901 86.1134 426.33C85.6934 426.759 85.4834 427.422 85.4834 428.318C85.4834 428.785 85.5394 429.191 85.6514 429.536C85.7634 429.872 85.9174 430.152 86.1134 430.376C86.3187 430.6 86.5567 430.768 86.8274 430.88C87.0981 430.983 87.3967 431.034 87.7234 431.034ZM95.7752 432.14C95.2805 432.14 94.8185 432.056 94.3892 431.888C93.9598 431.72 93.5865 431.477 93.2692 431.16C92.9612 430.833 92.7185 430.437 92.5412 429.97C92.3638 429.503 92.2752 428.967 92.2752 428.36C92.2752 427.763 92.3638 427.231 92.5412 426.764C92.7185 426.288 92.9612 425.891 93.2692 425.574C93.5865 425.257 93.9598 425.014 94.3892 424.846C94.8185 424.678 95.2805 424.594 95.7752 424.594C96.2792 424.594 96.7458 424.678 97.1752 424.846C97.6045 425.014 97.9732 425.257 98.2812 425.574C98.5985 425.891 98.8458 426.288 99.0232 426.764C99.2098 427.231 99.3032 427.763 99.3032 428.36C99.3032 428.967 99.2098 429.503 99.0232 429.97C98.8458 430.437 98.5985 430.833 98.2812 431.16C97.9732 431.477 97.6045 431.72 97.1752 431.888C96.7458 432.056 96.2792 432.14 95.7752 432.14ZM95.7752 431.034C96.1018 431.034 96.4005 430.983 96.6712 430.88C96.9512 430.768 97.1938 430.605 97.3992 430.39C97.6045 430.166 97.7632 429.886 97.8752 429.55C97.9872 429.214 98.0432 428.817 98.0432 428.36C98.0432 427.903 97.9872 427.506 97.8752 427.17C97.7632 426.834 97.6045 426.559 97.3992 426.344C97.1938 426.12 96.9512 425.957 96.6712 425.854C96.4005 425.742 96.1018 425.686 95.7752 425.686C95.4485 425.686 95.1498 425.742 94.8792 425.854C94.6085 425.957 94.3705 426.12 94.1652 426.344C93.9692 426.559 93.8152 426.834 93.7032 427.17C93.5912 427.506 93.5352 427.903 93.5352 428.36C93.5352 428.817 93.5912 429.214 93.7032 429.55C93.8152 429.886 93.9692 430.166 94.1652 430.39C94.3705 430.605 94.6085 430.768 94.8792 430.88C95.1498 430.983 95.4485 431.034 95.7752 431.034ZM103.526 425.784V432H102.294V425.784H100.012V424.734H105.85V425.784H103.526ZM112.648 429.578C112.648 429.998 112.573 430.362 112.424 430.67C112.274 430.978 112.064 431.23 111.794 431.426C111.523 431.622 111.201 431.767 110.828 431.86C110.454 431.953 110.048 432 109.61 432H107.272V424.734H108.504V427.268H109.694C110.618 427.268 111.341 427.45 111.864 427.814C112.386 428.178 112.648 428.766 112.648 429.578ZM114.93 432H113.698V424.734H114.93V432ZM108.504 428.318V430.95H109.61C110.142 430.95 110.571 430.852 110.898 430.656C111.234 430.451 111.402 430.115 111.402 429.648C111.402 429.172 111.252 428.831 110.954 428.626C110.655 428.421 110.235 428.318 109.694 428.318H108.504ZM121.26 430.32L125.138 424.734H126.384V432H125.152V426.428L121.288 432H120.028V424.734H121.26V430.32ZM138.023 428.36C138.023 428.967 137.93 429.503 137.743 429.97C137.566 430.437 137.318 430.833 137.001 431.16C136.693 431.477 136.324 431.72 135.895 431.888C135.466 432.056 134.999 432.14 134.495 432.14C133.982 432.14 133.51 432.056 133.081 431.888C132.652 431.711 132.283 431.445 131.975 431.09C131.667 430.735 131.424 430.287 131.247 429.746C131.079 429.205 130.995 428.565 130.995 427.828C130.995 427.221 131.014 426.643 131.051 426.092C131.088 425.541 131.172 425.033 131.303 424.566C131.434 424.09 131.62 423.665 131.863 423.292C132.115 422.909 132.451 422.592 132.871 422.34C133.104 422.2 133.347 422.097 133.599 422.032C133.851 421.957 134.103 421.901 134.355 421.864C134.616 421.827 134.878 421.803 135.139 421.794C135.4 421.785 135.657 421.775 135.909 421.766C136.282 421.738 136.595 421.691 136.847 421.626C137.099 421.561 137.323 421.472 137.519 421.36V422.48C137.314 422.611 137.094 422.704 136.861 422.76C136.637 422.807 136.362 422.849 136.035 422.886C135.503 422.933 135.013 422.97 134.565 422.998C134.126 423.017 133.725 423.119 133.361 423.306C132.894 423.567 132.563 423.959 132.367 424.482C132.18 424.995 132.064 425.607 132.017 426.316C132.502 425.196 133.417 424.636 134.761 424.636C135.218 424.636 135.643 424.72 136.035 424.888C136.436 425.047 136.782 425.285 137.071 425.602C137.37 425.919 137.603 426.311 137.771 426.778C137.939 427.235 138.023 427.763 138.023 428.36ZM134.495 431.034C134.822 431.034 135.12 430.983 135.391 430.88C135.671 430.768 135.914 430.605 136.119 430.39C136.324 430.166 136.483 429.886 136.595 429.55C136.707 429.214 136.763 428.817 136.763 428.36C136.763 427.903 136.707 427.506 136.595 427.17C136.483 426.834 136.324 426.559 136.119 426.344C135.914 426.12 135.671 425.957 135.391 425.854C135.12 425.742 134.822 425.686 134.495 425.686C133.851 425.686 133.314 425.901 132.885 426.33C132.465 426.759 132.255 427.422 132.255 428.318C132.255 428.785 132.311 429.191 132.423 429.536C132.535 429.872 132.689 430.152 132.885 430.376C133.09 430.6 133.328 430.768 133.599 430.88C133.87 430.983 134.168 431.034 134.495 431.034ZM142.547 432.14C142.052 432.14 141.59 432.056 141.161 431.888C140.731 431.72 140.358 431.477 140.041 431.16C139.733 430.833 139.49 430.437 139.313 429.97C139.135 429.503 139.047 428.967 139.047 428.36C139.047 427.763 139.135 427.231 139.313 426.764C139.49 426.288 139.733 425.891 140.041 425.574C140.358 425.257 140.731 425.014 141.161 424.846C141.59 424.678 142.052 424.594 142.547 424.594C143.051 424.594 143.517 424.678 143.947 424.846C144.376 425.014 144.745 425.257 145.053 425.574C145.37 425.891 145.617 426.288 145.795 426.764C145.981 427.231 146.075 427.763 146.075 428.36C146.075 428.967 145.981 429.503 145.795 429.97C145.617 430.437 145.37 430.833 145.053 431.16C144.745 431.477 144.376 431.72 143.947 431.888C143.517 432.056 143.051 432.14 142.547 432.14ZM142.547 431.034C142.873 431.034 143.172 430.983 143.443 430.88C143.723 430.768 143.965 430.605 144.171 430.39C144.376 430.166 144.535 429.886 144.647 429.55C144.759 429.214 144.815 428.817 144.815 428.36C144.815 427.903 144.759 427.506 144.647 427.17C144.535 426.834 144.376 426.559 144.171 426.344C143.965 426.12 143.723 425.957 143.443 425.854C143.172 425.742 142.873 425.686 142.547 425.686C142.22 425.686 141.921 425.742 141.651 425.854C141.38 425.957 141.142 426.12 140.937 426.344C140.741 426.559 140.587 426.834 140.475 427.17C140.363 427.506 140.307 427.903 140.307 428.36C140.307 428.817 140.363 429.214 140.475 429.55C140.587 429.886 140.741 430.166 140.937 430.39C141.142 430.605 141.38 430.768 141.651 430.88C141.921 430.983 142.22 431.034 142.547 431.034ZM150.297 425.784V432H149.065V425.784H146.783V424.734H152.621V425.784H150.297ZM159.419 429.578C159.419 429.998 159.344 430.362 159.195 430.67C159.046 430.978 158.836 431.23 158.565 431.426C158.294 431.622 157.972 431.767 157.599 431.86C157.226 431.953 156.82 432 156.381 432H154.043V424.734H155.275V427.268H156.465C157.389 427.268 158.112 427.45 158.635 427.814C159.158 428.178 159.419 428.766 159.419 429.578ZM161.701 432H160.469V424.734H161.701V432ZM155.275 428.318V430.95H156.381C156.913 430.95 157.342 430.852 157.669 430.656C158.005 430.451 158.173 430.115 158.173 429.648C158.173 429.172 158.024 428.831 157.725 428.626C157.426 428.421 157.006 428.318 156.465 428.318H155.275Z" fill="#262626"/>
<path d="M105 383C105 382.448 105.448 382 106 382H123C123.552 382 124 382.448 124 383V392C124 396.971 119.971 401 115 401H114C109.029 401 105 396.971 105 392V383Z" stroke="#262626" stroke-width="2"/>
<path d="M124.5 390H129.5" stroke="#262626" stroke-width="2" stroke-linecap="round"/>
<path d="M123 397.25L125.5 400.58" stroke="#262626" stroke-width="2" stroke-linecap="round"/>
<path d="M124.25 383.5L127.58 381" stroke="#262626" stroke-width="2" stroke-linecap="round"/>
<path d="M104.58 383.5L101.25 381" stroke="#262626" stroke-width="2" stroke-linecap="round"/>
<path d="M106.5 397.25L104 400.58" stroke="#262626" stroke-width="2" stroke-linecap="round"/>
<path d="M100 390H105" stroke="#262626" stroke-width="2" stroke-linecap="round"/>
<path d="M107 379V379C109.94 373.121 118.287 373.003 121.391 378.797L121.5 379" stroke="#262626" stroke-width="2" stroke-linecap="round"/>
<rect x="274" y="212" width="156" height="60" rx="8" fill="#EEF3FE"/>
<path d="M348.174 246H346.518L344.622 239.352L342.714 246H341.046L339.15 237.396H340.326L341.958 245.028L344.166 237.396H345.198L347.358 244.884L348.978 237.396H350.07L348.174 246ZM353.261 237.396H354.941L358.025 246H356.825L355.937 243.54H352.133L351.257 246H350.201L353.261 237.396ZM355.577 242.52L354.041 238.236L352.505 242.52H355.577ZM359.278 237.396H364.534V238.428H360.406V241.284H363.91V242.304H360.406V246H359.278V237.396Z" fill="#262626"/>
<rect x="275" y="349" width="154" height="100" rx="7" fill="white"/>
<rect x="275" y="349" width="154" height="100" rx="7" stroke="#5282FF" stroke-width="2"/>
<rect x="310" y="391" width="19" height="26" rx="3" transform="rotate(-90 310 391)" stroke="#262626" stroke-width="2" stroke-linecap="round" stroke-linejoin="round"/>
<path d="M311 373L321.759 381.517C322.486 382.093 323.514 382.093 324.241 381.517L335 373" stroke="#262626" stroke-width="2"/>
<rect x="384.986" y="368.414" width="7" height="5" rx="1" transform="rotate(45.5976 384.986 368.414)" stroke="#262626" stroke-width="2"/>
<circle cx="377" cy="380" r="10" fill="white" stroke="#262626" stroke-width="2"/>
<path d="M390.207 369.207C390.598 368.817 390.598 368.183 390.207 367.793C389.817 367.402 389.183 367.402 388.793 367.793L390.207 369.207ZM388.207 371.207L390.207 369.207L388.793 367.793L386.793 369.793L388.207 371.207Z" fill="#262626"/>
<path d="M311 404C311 403.448 311.448 403 312 403H334C334.552 403 335 403.448 335 404V417C335 423.627 329.627 429 323 429C316.373 429 311 423.627 311 417V404Z" stroke="#262626" stroke-width="2"/>
<path d="M314 412H319" stroke="#262626" stroke-width="2" stroke-linecap="round"/>
<path d="M314 416V416C315.381 417.381 317.619 417.381 319 416V416" stroke="#262626" stroke-width="2" stroke-linecap="round"/>
<path d="M327 416V416C328.381 417.381 330.619 417.381 332 416V416" stroke="#262626" stroke-width="2" stroke-linecap="round"/>
<path d="M327 412H332" stroke="#262626" stroke-width="2" stroke-linecap="round"/>
<path d="M323 429V425.5" stroke="#262626" stroke-width="2" stroke-linecap="round"/>
<path d="M369 411C369 410.448 369.448 410 370 410H387C387.552 410 388 410.448 388 411V420C388 424.971 383.971 429 379 429H378C373.029 429 369 424.971 369 420V411Z" stroke="#262626" stroke-width="2"/>
<path d="M388.5 418H393.5" stroke="#262626" stroke-width="2" stroke-linecap="round"/>
<path d="M387 425.25L389.5 428.58" stroke="#262626" stroke-width="2" stroke-linecap="round"/>
<path d="M388.25 411.5L391.58 409" stroke="#262626" stroke-width="2" stroke-linecap="round"/>
<path d="M368.58 411.5L365.25 409" stroke="#262626" stroke-width="2" stroke-linecap="round"/>
<path d="M370.5 425.25L368 428.58" stroke="#262626" stroke-width="2" stroke-linecap="round"/>
<path d="M364 418H369" stroke="#262626" stroke-width="2" stroke-linecap="round"/>
<path d="M371 407V407C373.94 401.121 382.287 401.003 385.391 406.797L385.5 407" stroke="#262626" stroke-width="2" stroke-linecap="round"/>
<rect x="512" y="159" width="151" height="130" rx="7" fill="white"/>
<rect x="512" y="159" width="151" height="130" rx="7" stroke="#5282FF" stroke-width="2"/>
<path d="M565.306 256.12C564.73 256.12 564.19 256.024 563.686 255.832C563.182 255.632 562.746 255.344 562.378 254.968C562.01 254.592 561.718 254.128 561.502 253.576C561.294 253.024 561.19 252.388 561.19 251.668C561.19 250.948 561.294 250.316 561.502 249.772C561.718 249.22 562.01 248.764 562.378 248.404C562.746 248.036 563.182 247.76 563.686 247.576C564.19 247.384 564.73 247.288 565.306 247.288C565.89 247.288 566.434 247.384 566.938 247.576C567.442 247.76 567.878 248.036 568.246 248.404C568.614 248.772 568.902 249.232 569.11 249.784C569.318 250.328 569.422 250.96 569.422 251.68C569.422 252.392 569.318 253.024 569.11 253.576C568.902 254.128 568.614 254.592 568.246 254.968C567.878 255.344 567.442 255.632 566.938 255.832C566.434 256.024 565.89 256.12 565.306 256.12ZM565.306 255.1C565.722 255.1 566.106 255.04 566.458 254.92C566.81 254.792 567.114 254.596 567.37 254.332C567.634 254.06 567.838 253.708 567.982 253.276C568.134 252.844 568.21 252.32 568.21 251.704C568.21 251.088 568.134 250.564 567.982 250.132C567.838 249.7 567.634 249.352 567.37 249.088C567.114 248.816 566.81 248.62 566.458 248.5C566.106 248.372 565.722 248.308 565.306 248.308C564.89 248.308 564.506 248.372 564.154 248.5C563.802 248.62 563.494 248.816 563.23 249.088C562.974 249.352 562.77 249.7 562.618 250.132C562.474 250.564 562.402 251.088 562.402 251.704C562.402 252.32 562.474 252.844 562.618 253.276C562.77 253.708 562.974 254.06 563.23 254.332C563.494 254.596 563.802 254.792 564.154 254.92C564.506 255.04 564.89 255.1 565.306 255.1ZM576.4 252.88C576.4 253.4 576.32 253.86 576.16 254.26C576.008 254.66 575.796 255 575.524 255.28C575.26 255.552 574.944 255.76 574.576 255.904C574.208 256.048 573.808 256.12 573.376 256.12C572.936 256.12 572.532 256.048 572.164 255.904C571.796 255.752 571.48 255.524 571.216 255.22C570.952 254.916 570.744 254.532 570.592 254.068C570.448 253.604 570.376 253.056 570.376 252.424C570.376 251.904 570.392 251.408 570.424 250.936C570.456 250.464 570.528 250.028 570.64 249.628C570.752 249.22 570.912 248.856 571.12 248.536C571.336 248.208 571.624 247.936 571.984 247.72C572.184 247.6 572.392 247.512 572.608 247.456C572.824 247.392 573.04 247.344 573.256 247.312C573.48 247.28 573.704 247.26 573.928 247.252C574.152 247.244 574.372 247.236 574.588 247.228C574.908 247.204 575.176 247.164 575.392 247.108C575.608 247.052 575.8 246.976 575.968 246.88V247.84C575.792 247.952 575.604 248.032 575.404 248.08C575.212 248.12 574.976 248.156 574.696 248.188C574.24 248.228 573.82 248.26 573.436 248.284C573.06 248.3 572.716 248.388 572.404 248.548C572.004 248.772 571.72 249.108 571.552 249.556C571.392 249.996 571.292 250.52 571.252 251.128C571.668 250.168 572.452 249.688 573.604 249.688C573.996 249.688 574.36 249.76 574.696 249.904C575.04 250.04 575.336 250.244 575.584 250.516C575.84 250.788 576.04 251.124 576.184 251.524C576.328 251.916 576.4 252.368 576.4 252.88ZM573.376 255.172C573.656 255.172 573.912 255.128 574.144 255.04C574.384 254.944 574.592 254.804 574.768 254.62C574.944 254.428 575.08 254.188 575.176 253.9C575.272 253.612 575.32 253.272 575.32 252.88C575.32 252.488 575.272 252.148 575.176 251.86C575.08 251.572 574.944 251.336 574.768 251.152C574.592 250.96 574.384 250.82 574.144 250.732C573.912 250.636 573.656 250.588 573.376 250.588C572.824 250.588 572.364 250.772 571.996 251.14C571.636 251.508 571.456 252.076 571.456 252.844C571.456 253.244 571.504 253.592 571.6 253.888C571.696 254.176 571.828 254.416 571.996 254.608C572.172 254.8 572.376 254.944 572.608 255.04C572.84 255.128 573.096 255.172 573.376 255.172ZM582.329 253.924C582.329 254.284 582.265 254.596 582.137 254.86C582.009 255.124 581.829 255.34 581.597 255.508C581.365 255.676 581.089 255.8 580.769 255.88C580.449 255.96 580.101 256 579.725 256H577.721V249.772H578.777V251.944H579.797C580.589 251.944 581.209 252.1 581.657 252.412C582.105 252.724 582.329 253.228 582.329 253.924ZM584.285 256H583.229V249.772H584.285V256ZM578.777 252.844V255.1H579.725C580.181 255.1 580.549 255.016 580.829 254.848C581.117 254.672 581.261 254.384 581.261 253.984C581.261 253.576 581.133 253.284 580.877 253.108C580.621 252.932 580.261 252.844 579.797 252.844H578.777ZM590.842 256H589.786V253.264C589.57 253.432 589.318 253.564 589.03 253.66C588.75 253.748 588.43 253.792 588.07 253.792C587.366 253.792 586.826 253.62 586.45 253.276C586.082 252.924 585.898 252.364 585.898 251.596V249.772H586.966V251.608C586.966 252.096 587.078 252.436 587.302 252.628C587.526 252.82 587.842 252.916 588.25 252.916C588.53 252.916 588.802 252.876 589.066 252.796C589.33 252.716 589.57 252.592 589.786 252.424V249.772H590.842V256ZM596.637 253.24H593.625V256H592.569V249.772H593.625V252.34H596.637V249.772H597.693V256H596.637V253.24ZM604.033 253.924C604.033 254.284 603.969 254.596 603.841 254.86C603.713 255.124 603.533 255.34 603.301 255.508C603.069 255.676 602.793 255.8 602.473 255.88C602.153 255.96 601.805 256 601.429 256H599.425V249.772H600.481V251.944H601.501C602.293 251.944 602.913 252.1 603.361 252.412C603.809 252.724 604.033 253.228 604.033 253.924ZM605.989 256H604.933V249.772H605.989V256ZM600.481 252.844V255.1H601.429C601.885 255.1 602.253 255.016 602.533 254.848C602.821 254.672 602.965 254.384 602.965 253.984C602.965 253.576 602.837 253.284 602.581 253.108C602.325 252.932 601.965 252.844 601.501 252.844H600.481ZM612.677 255.472C612.589 255.536 612.481 255.604 612.353 255.676C612.225 255.748 612.069 255.82 611.885 255.892C611.701 255.956 611.493 256.008 611.261 256.048C611.029 256.096 610.769 256.12 610.481 256.12C609.433 256.12 608.637 255.836 608.093 255.268C607.549 254.7 607.277 253.904 607.277 252.88C607.277 252.376 607.349 251.924 607.493 251.524C607.645 251.124 607.853 250.788 608.117 250.516C608.381 250.236 608.693 250.024 609.053 249.88C609.413 249.728 609.805 249.652 610.229 249.652C610.677 249.652 611.077 249.728 611.429 249.88C611.781 250.032 612.069 250.256 612.293 250.552C612.525 250.848 612.681 251.216 612.761 251.656C612.849 252.088 612.849 252.592 612.761 253.168H608.369C608.409 253.84 608.609 254.344 608.969 254.68C609.329 255.008 609.865 255.172 610.577 255.172C611.057 255.172 611.469 255.104 611.813 254.968C612.157 254.832 612.445 254.684 612.677 254.524V255.472ZM610.205 250.588C609.749 250.588 609.357 250.728 609.029 251.008C608.701 251.288 608.493 251.712 608.405 252.28H611.753C611.785 251.704 611.653 251.28 611.357 251.008C611.061 250.728 610.677 250.588 610.205 250.588ZM555.52 263.772H560.512V270H559.456V264.672H556.576V270H555.52V263.772ZM564.791 270.12C564.367 270.12 563.971 270.048 563.603 269.904C563.235 269.76 562.915 269.552 562.643 269.28C562.379 269 562.171 268.66 562.019 268.26C561.867 267.86 561.791 267.4 561.791 266.88C561.791 266.368 561.867 265.912 562.019 265.512C562.171 265.104 562.379 264.764 562.643 264.492C562.915 264.22 563.235 264.012 563.603 263.868C563.971 263.724 564.367 263.652 564.791 263.652C565.223 263.652 565.623 263.724 565.991 263.868C566.359 264.012 566.675 264.22 566.939 264.492C567.211 264.764 567.423 265.104 567.575 265.512C567.735 265.912 567.815 266.368 567.815 266.88C567.815 267.4 567.735 267.86 567.575 268.26C567.423 268.66 567.211 269 566.939 269.28C566.675 269.552 566.359 269.76 565.991 269.904C565.623 270.048 565.223 270.12 564.791 270.12ZM564.791 269.172C565.071 269.172 565.327 269.128 565.559 269.04C565.799 268.944 566.007 268.804 566.183 268.62C566.359 268.428 566.495 268.188 566.591 267.9C566.687 267.612 566.735 267.272 566.735 266.88C566.735 266.488 566.687 266.148 566.591 265.86C566.495 265.572 566.359 265.336 566.183 265.152C566.007 264.96 565.799 264.82 565.559 264.732C565.327 264.636 565.071 264.588 564.791 264.588C564.511 264.588 564.255 264.636 564.023 264.732C563.791 264.82 563.587 264.96 563.411 265.152C563.243 265.336 563.111 265.572 563.015 265.86C562.919 266.148 562.871 266.488 562.871 266.88C562.871 267.272 562.919 267.612 563.015 267.9C563.111 268.188 563.243 268.428 563.411 268.62C563.587 268.804 563.791 268.944 564.023 269.04C564.255 269.128 564.511 269.172 564.791 269.172ZM571.79 270.12C571.31 270.12 570.874 270.048 570.482 269.904C570.098 269.752 569.77 269.54 569.498 269.268C569.226 268.988 569.018 268.648 568.874 268.248C568.73 267.848 568.658 267.392 568.658 266.88C568.658 266.376 568.73 265.924 568.874 265.524C569.026 265.124 569.238 264.788 569.51 264.516C569.782 264.236 570.114 264.024 570.506 263.88C570.898 263.728 571.342 263.652 571.838 263.652C572.222 263.652 572.574 263.696 572.894 263.784C573.214 263.864 573.478 263.984 573.686 264.144V265.092C573.43 264.924 573.142 264.8 572.822 264.72C572.51 264.632 572.186 264.588 571.85 264.588C571.122 264.588 570.586 264.776 570.242 265.152C569.906 265.528 569.738 266.104 569.738 266.88C569.738 267.656 569.902 268.232 570.23 268.608C570.558 268.984 571.078 269.172 571.79 269.172C572.166 269.172 572.51 269.128 572.822 269.04C573.142 268.944 573.43 268.824 573.686 268.68V269.628C573.462 269.764 573.19 269.88 572.87 269.976C572.558 270.072 572.198 270.12 571.79 270.12ZM580.058 269.472C579.97 269.536 579.862 269.604 579.734 269.676C579.606 269.748 579.45 269.82 579.266 269.892C579.082 269.956 578.874 270.008 578.642 270.048C578.41 270.096 578.15 270.12 577.862 270.12C576.814 270.12 576.018 269.836 575.474 269.268C574.93 268.7 574.658 267.904 574.658 266.88C574.658 266.376 574.73 265.924 574.874 265.524C575.026 265.124 575.234 264.788 575.498 264.516C575.762 264.236 576.074 264.024 576.434 263.88C576.794 263.728 577.186 263.652 577.61 263.652C578.058 263.652 578.458 263.728 578.81 263.88C579.162 264.032 579.45 264.256 579.674 264.552C579.906 264.848 580.062 265.216 580.142 265.656C580.23 266.088 580.23 266.592 580.142 267.168H575.75C575.79 267.84 575.99 268.344 576.35 268.68C576.71 269.008 577.246 269.172 577.958 269.172C578.438 269.172 578.85 269.104 579.194 268.968C579.538 268.832 579.826 268.684 580.058 268.524V269.472ZM577.586 264.588C577.13 264.588 576.738 264.728 576.41 265.008C576.082 265.288 575.874 265.712 575.786 266.28H579.134C579.166 265.704 579.034 265.28 578.738 265.008C578.442 264.728 578.058 264.588 577.586 264.588ZM584.009 264.672V270H582.953V264.672H580.997V263.772H586.001V264.672H584.009ZM588.275 268.56L591.599 263.772H592.667V270H591.611V265.224L588.299 270H587.219V263.772H588.275V268.56ZM596.899 264.672V270H595.843V264.672H593.887V263.772H598.891V264.672H596.899ZM604.89 269.472C604.802 269.536 604.694 269.604 604.566 269.676C604.438 269.748 604.282 269.82 604.098 269.892C603.914 269.956 603.706 270.008 603.474 270.048C603.242 270.096 602.982 270.12 602.694 270.12C601.646 270.12 600.85 269.836 600.306 269.268C599.762 268.7 599.49 267.904 599.49 266.88C599.49 266.376 599.562 265.924 599.706 265.524C599.858 265.124 600.066 264.788 600.33 264.516C600.594 264.236 600.906 264.024 601.266 263.88C601.626 263.728 602.018 263.652 602.442 263.652C602.89 263.652 603.29 263.728 603.642 263.88C603.994 264.032 604.282 264.256 604.506 264.552C604.738 264.848 604.894 265.216 604.974 265.656C605.062 266.088 605.062 266.592 604.974 267.168H600.582C600.622 267.84 600.822 268.344 601.182 268.68C601.542 269.008 602.078 269.172 602.79 269.172C603.27 269.172 603.682 269.104 604.026 268.968C604.37 268.832 604.658 268.684 604.89 268.524V269.472ZM602.418 264.588C601.962 264.588 601.57 264.728 601.242 265.008C600.914 265.288 600.706 265.712 600.618 266.28H603.966C603.998 265.704 603.866 265.28 603.57 265.008C603.274 264.728 602.89 264.588 602.418 264.588ZM606.871 268.068C606.983 267.66 607.055 267.108 607.087 266.412C607.119 265.716 607.135 264.836 607.135 263.772H611.323V270H610.255V264.672H608.131C608.123 265.528 608.095 266.288 608.047 266.952C608.007 267.616 607.915 268.176 607.771 268.632C607.635 269.088 607.431 269.436 607.159 269.676C606.895 269.908 606.539 270.024 606.091 270.024C606.059 270.024 606.027 270.024 605.995 270.024C605.963 270.024 605.927 270.02 605.887 270.012V268.968C605.927 268.976 605.979 268.98 606.043 268.98C606.451 268.98 606.727 268.676 606.871 268.068ZM614.092 268.56L617.416 263.772H618.484V270H617.428V265.224L614.116 270H613.036V263.772H614.092V268.56Z" fill="#262626"/>
<path d="M592 218.34C592 219.903 591.506 221.616 590.608 222.913C589.719 224.197 588.497 225 587 225C585.503 225 584.281 224.197 583.392 222.913C582.494 221.616 582 219.903 582 218.34C582 215.338 584.29 213 587 213C589.71 213 592 215.338 592 218.34Z" stroke="#262626" stroke-width="2"/>
<path d="M574 236.566C574 234.314 575.315 232.198 577.663 230.603C580.008 229.008 583.305 228 587 228C590.695 228 593.992 229.008 596.337 230.603C598.685 232.198 600 234.314 600 236.566C600 237.91 598.91 239 597.566 239H576.434C575.09 239 574 237.91 574 236.566Z" stroke="#262626" stroke-width="2"/>
<path d="M542.469 176.396H545.397C546.421 176.396 547.201 176.556 547.737 176.876C548.273 177.196 548.541 177.736 548.541 178.496C548.541 178.808 548.497 179.08 548.409 179.312C548.321 179.536 548.193 179.732 548.025 179.9C547.865 180.06 547.669 180.192 547.437 180.296C547.205 180.4 546.949 180.48 546.669 180.536C547.389 180.624 547.933 180.82 548.301 181.124C548.669 181.428 548.853 181.892 548.853 182.516C548.853 182.964 548.765 183.348 548.589 183.668C548.413 183.98 548.169 184.236 547.857 184.436C547.545 184.628 547.177 184.772 546.753 184.868C546.329 184.956 545.869 185 545.373 185H542.469V176.396ZM543.921 177.656V179.948H545.469C545.949 179.948 546.337 179.848 546.633 179.648C546.929 179.44 547.077 179.116 547.077 178.676C547.077 178.276 546.941 178.008 546.669 177.872C546.405 177.728 546.029 177.656 545.541 177.656H543.921ZM543.921 181.196V183.752H545.517C545.789 183.752 546.037 183.732 546.261 183.692C546.485 183.644 546.677 183.572 546.837 183.476C546.997 183.372 547.121 183.24 547.209 183.08C547.297 182.912 547.341 182.708 547.341 182.468C547.341 181.996 547.185 181.668 546.873 181.484C546.569 181.292 546.077 181.196 545.397 181.196H543.921ZM553.764 183.908C553.7 184.052 553.612 184.196 553.5 184.34C553.396 184.484 553.264 184.616 553.104 184.736C552.952 184.848 552.768 184.94 552.552 185.012C552.336 185.084 552.084 185.12 551.796 185.12C551.524 185.12 551.272 185.08 551.04 185C550.808 184.928 550.604 184.816 550.428 184.664C550.26 184.512 550.124 184.324 550.02 184.1C549.924 183.868 549.876 183.604 549.876 183.308C549.876 182.628 550.128 182.12 550.632 181.784C551.136 181.44 551.848 181.268 552.768 181.268H553.716V180.884C553.716 180.476 553.612 180.196 553.404 180.044C553.196 179.884 552.852 179.804 552.372 179.804C551.964 179.804 551.58 179.864 551.22 179.984C550.868 180.096 550.556 180.228 550.284 180.38V179.216C550.532 179.08 550.86 178.952 551.268 178.832C551.676 178.712 552.12 178.652 552.6 178.652C553.4 178.652 554.016 178.82 554.448 179.156C554.888 179.484 555.108 180.012 555.108 180.74V183.992C555.108 184.064 555.108 184.148 555.108 184.244C555.116 184.332 555.12 184.424 555.12 184.52C555.128 184.616 555.136 184.708 555.144 184.796C555.152 184.876 555.16 184.944 555.168 185H553.884C553.86 184.888 553.836 184.732 553.812 184.532C553.796 184.332 553.784 184.152 553.776 183.992L553.764 183.908ZM552.18 184.04C552.476 184.04 552.72 183.98 552.912 183.86C553.112 183.732 553.272 183.588 553.392 183.428C553.512 183.26 553.596 183.096 553.644 182.936C553.692 182.776 553.716 182.664 553.716 182.6V182.18H552.852C552.3 182.18 551.896 182.268 551.64 182.444C551.384 182.612 551.256 182.852 551.256 183.164C551.256 183.436 551.332 183.652 551.484 183.812C551.644 183.964 551.876 184.04 552.18 184.04ZM564.65 185H556.61V178.772H558.002V183.872H559.934V178.772H561.326V183.872H563.246V178.772H564.65V185ZM568.844 178.772H571.388C572.964 178.772 573.752 179.292 573.752 180.332C573.752 180.716 573.644 181.02 573.428 181.244C573.22 181.46 572.912 181.624 572.504 181.736C573.008 181.808 573.384 181.964 573.632 182.204C573.88 182.444 574.004 182.784 574.004 183.224C574.004 183.528 573.94 183.792 573.812 184.016C573.684 184.24 573.504 184.424 573.272 184.568C573.048 184.712 572.772 184.82 572.444 184.892C572.116 184.964 571.756 185 571.364 185H568.844V178.772ZM570.224 179.84V181.316H571.244C571.58 181.316 571.852 181.256 572.06 181.136C572.268 181.008 572.372 180.824 572.372 180.584C572.372 180.304 572.28 180.112 572.096 180.008C571.92 179.896 571.66 179.84 571.316 179.84H570.224ZM570.224 182.3V183.932H571.292C571.676 183.932 571.984 183.876 572.216 183.764C572.456 183.652 572.576 183.444 572.576 183.14C572.576 182.836 572.468 182.62 572.252 182.492C572.044 182.364 571.712 182.3 571.256 182.3H570.224ZM580.58 184.544C580.492 184.6 580.384 184.664 580.256 184.736C580.128 184.8 579.976 184.86 579.8 184.916C579.624 184.972 579.42 185.02 579.188 185.06C578.956 185.1 578.692 185.12 578.396 185.12C577.252 185.12 576.396 184.836 575.828 184.268C575.268 183.7 574.988 182.904 574.988 181.88C574.988 181.376 575.064 180.924 575.216 180.524C575.368 180.124 575.58 179.788 575.852 179.516C576.124 179.236 576.448 179.024 576.824 178.88C577.2 178.728 577.612 178.652 578.06 178.652C578.524 178.652 578.94 178.728 579.308 178.88C579.684 179.032 579.992 179.26 580.232 179.564C580.472 179.868 580.636 180.244 580.724 180.692C580.82 181.14 580.824 181.664 580.736 182.264H576.428C576.484 182.832 576.672 183.26 576.992 183.548C577.312 183.828 577.812 183.968 578.492 183.968C578.988 183.968 579.4 183.908 579.728 183.788C580.064 183.66 580.348 183.528 580.58 183.392V184.544ZM578.06 179.756C577.652 179.756 577.308 179.88 577.028 180.128C576.748 180.376 576.564 180.744 576.476 181.232H579.404C579.42 180.728 579.308 180.356 579.068 180.116C578.828 179.876 578.492 179.756 578.06 179.756ZM587.872 181.904C587.872 182.424 587.792 182.884 587.632 183.284C587.472 183.684 587.252 184.02 586.972 184.292C586.7 184.564 586.372 184.772 585.988 184.916C585.612 185.052 585.204 185.12 584.764 185.12C584.316 185.12 583.904 185.044 583.528 184.892C583.152 184.74 582.828 184.512 582.556 184.208C582.284 183.896 582.068 183.512 581.908 183.056C581.756 182.592 581.68 182.048 581.68 181.424C581.68 180.856 581.704 180.336 581.752 179.864C581.8 179.392 581.88 178.968 581.992 178.592C582.112 178.216 582.272 177.888 582.472 177.608C582.672 177.32 582.928 177.072 583.24 176.864C583.608 176.632 584 176.484 584.416 176.42C584.84 176.356 585.272 176.316 585.712 176.3C586.2 176.276 586.568 176.236 586.816 176.18C587.064 176.116 587.276 176.036 587.452 175.94V177.176C587.364 177.232 587.272 177.28 587.176 177.32C587.08 177.352 586.968 177.38 586.84 177.404C586.712 177.428 586.564 177.452 586.396 177.476C586.228 177.492 586.032 177.508 585.808 177.524C585.4 177.564 585.028 177.604 584.692 177.644C584.356 177.676 584.056 177.776 583.792 177.944C583.488 178.152 583.264 178.44 583.12 178.808C582.976 179.176 582.88 179.624 582.832 180.152C583.232 179.248 584.004 178.796 585.148 178.796C585.516 178.796 585.864 178.868 586.192 179.012C586.528 179.148 586.82 179.348 587.068 179.612C587.316 179.876 587.512 180.2 587.656 180.584C587.8 180.968 587.872 181.408 587.872 181.904ZM584.764 183.956C585.252 183.956 585.652 183.792 585.964 183.464C586.284 183.128 586.444 182.616 586.444 181.928C586.444 181.24 586.284 180.732 585.964 180.404C585.652 180.068 585.252 179.9 584.764 179.9C584.284 179.9 583.888 180.064 583.576 180.392C583.272 180.72 583.12 181.224 583.12 181.904C583.12 182.608 583.276 183.128 583.588 183.464C583.9 183.792 584.292 183.956 584.764 183.956ZM589.056 180.728H591.996V181.916H589.056V180.728ZM596.439 185.12C595.935 185.12 595.483 185.048 595.083 184.904C594.683 184.752 594.343 184.54 594.063 184.268C593.783 183.988 593.567 183.648 593.415 183.248C593.263 182.848 593.187 182.392 593.187 181.88C593.187 181.376 593.263 180.924 593.415 180.524C593.567 180.124 593.783 179.788 594.063 179.516C594.343 179.236 594.687 179.024 595.095 178.88C595.503 178.728 595.959 178.652 596.463 178.652C596.895 178.652 597.271 178.7 597.591 178.796C597.919 178.892 598.179 179.012 598.371 179.156V180.308C598.123 180.148 597.851 180.024 597.555 179.936C597.267 179.848 596.931 179.804 596.547 179.804C595.259 179.804 594.615 180.496 594.615 181.88C594.615 183.264 595.247 183.956 596.511 183.956C596.919 183.956 597.267 183.912 597.555 183.824C597.851 183.728 598.123 183.608 598.371 183.464V184.616C598.163 184.752 597.903 184.872 597.591 184.976C597.279 185.072 596.895 185.12 596.439 185.12ZM604.861 184.544C604.773 184.6 604.665 184.664 604.537 184.736C604.409 184.8 604.257 184.86 604.081 184.916C603.905 184.972 603.701 185.02 603.469 185.06C603.237 185.1 602.973 185.12 602.677 185.12C601.533 185.12 600.677 184.836 600.109 184.268C599.549 183.7 599.269 182.904 599.269 181.88C599.269 181.376 599.345 180.924 599.497 180.524C599.649 180.124 599.861 179.788 600.133 179.516C600.405 179.236 600.729 179.024 601.105 178.88C601.481 178.728 601.893 178.652 602.341 178.652C602.805 178.652 603.221 178.728 603.589 178.88C603.965 179.032 604.273 179.26 604.513 179.564C604.753 179.868 604.917 180.244 605.005 180.692C605.101 181.14 605.105 181.664 605.017 182.264H600.709C600.765 182.832 600.953 183.26 601.273 183.548C601.593 183.828 602.093 183.968 602.773 183.968C603.269 183.968 603.681 183.908 604.009 183.788C604.345 183.66 604.629 183.528 604.861 183.392V184.544ZM602.341 179.756C601.933 179.756 601.589 179.88 601.309 180.128C601.029 180.376 600.845 180.744 600.757 181.232H603.685C603.701 180.728 603.589 180.356 603.349 180.116C603.109 179.876 602.773 179.756 602.341 179.756ZM609.741 185.12C609.269 185.12 608.861 185.016 608.517 184.808C608.181 184.592 607.909 184.304 607.701 183.944V187.124H606.309V178.772H607.581L607.677 179.876C607.885 179.5 608.161 179.204 608.505 178.988C608.849 178.764 609.269 178.652 609.765 178.652C610.133 178.652 610.481 178.72 610.809 178.856C611.145 178.984 611.437 179.184 611.685 179.456C611.933 179.72 612.129 180.056 612.273 180.464C612.425 180.864 612.501 181.336 612.501 181.88C612.501 182.432 612.425 182.912 612.273 183.32C612.129 183.72 611.929 184.056 611.673 184.328C611.425 184.592 611.133 184.792 610.797 184.928C610.461 185.056 610.109 185.12 609.741 185.12ZM609.405 183.956C609.901 183.956 610.301 183.788 610.605 183.452C610.917 183.108 611.073 182.584 611.073 181.88C611.073 181.184 610.917 180.664 610.605 180.32C610.301 179.976 609.905 179.804 609.417 179.804C609.169 179.804 608.941 179.848 608.733 179.936C608.525 180.016 608.341 180.144 608.181 180.32C608.029 180.496 607.909 180.716 607.821 180.98C607.733 181.236 607.689 181.536 607.689 181.88C607.689 182.232 607.733 182.54 607.821 182.804C607.909 183.06 608.029 183.276 608.181 183.452C608.333 183.62 608.513 183.748 608.721 183.836C608.937 183.916 609.165 183.956 609.405 183.956ZM613.68 178.772H616.224C617.8 178.772 618.588 179.292 618.588 180.332C618.588 180.716 618.48 181.02 618.264 181.244C618.056 181.46 617.748 181.624 617.34 181.736C617.844 181.808 618.22 181.964 618.468 182.204C618.716 182.444 618.84 182.784 618.84 183.224C618.84 183.528 618.776 183.792 618.648 184.016C618.52 184.24 618.34 184.424 618.108 184.568C617.884 184.712 617.608 184.82 617.28 184.892C616.952 184.964 616.592 185 616.2 185H613.68V178.772ZM615.06 179.84V181.316H616.08C616.416 181.316 616.688 181.256 616.896 181.136C617.104 181.008 617.208 180.824 617.208 180.584C617.208 180.304 617.116 180.112 616.932 180.008C616.756 179.896 616.496 179.84 616.152 179.84H615.06ZM615.06 182.3V183.932H616.128C616.512 183.932 616.82 183.876 617.052 183.764C617.292 183.652 617.412 183.444 617.412 183.14C617.412 182.836 617.304 182.62 617.088 182.492C616.88 182.364 616.548 182.3 616.092 182.3H615.06ZM625.416 184.544C625.328 184.6 625.22 184.664 625.092 184.736C624.964 184.8 624.812 184.86 624.636 184.916C624.46 184.972 624.256 185.02 624.024 185.06C623.792 185.1 623.528 185.12 623.232 185.12C622.088 185.12 621.232 184.836 620.664 184.268C620.104 183.7 619.824 182.904 619.824 181.88C619.824 181.376 619.9 180.924 620.052 180.524C620.204 180.124 620.416 179.788 620.688 179.516C620.96 179.236 621.284 179.024 621.66 178.88C622.036 178.728 622.448 178.652 622.896 178.652C623.36 178.652 623.776 178.728 624.144 178.88C624.52 179.032 624.828 179.26 625.068 179.564C625.308 179.868 625.472 180.244 625.56 180.692C625.656 181.14 625.66 181.664 625.572 182.264H621.264C621.32 182.832 621.508 183.26 621.828 183.548C622.148 183.828 622.648 183.968 623.328 183.968C623.824 183.968 624.236 183.908 624.564 183.788C624.9 183.66 625.184 183.528 625.416 183.392V184.544ZM622.896 179.756C622.488 179.756 622.144 179.88 621.864 180.128C621.584 180.376 621.4 180.744 621.312 181.232H624.24C624.256 180.728 624.144 180.356 623.904 180.116C623.664 179.876 623.328 179.756 622.896 179.756ZM630.296 185.12C629.824 185.12 629.416 185.016 629.072 184.808C628.736 184.592 628.464 184.304 628.256 183.944V187.124H626.864V178.772H628.136L628.232 179.876C628.44 179.5 628.716 179.204 629.06 178.988C629.404 178.764 629.824 178.652 630.32 178.652C630.688 178.652 631.036 178.72 631.364 178.856C631.7 178.984 631.992 179.184 632.24 179.456C632.488 179.72 632.684 180.056 632.828 180.464C632.98 180.864 633.056 181.336 633.056 181.88C633.056 182.432 632.98 182.912 632.828 183.32C632.684 183.72 632.484 184.056 632.228 184.328C631.98 184.592 631.688 184.792 631.352 184.928C631.016 185.056 630.664 185.12 630.296 185.12ZM629.96 183.956C630.456 183.956 630.856 183.788 631.16 183.452C631.472 183.108 631.628 182.584 631.628 181.88C631.628 181.184 631.472 180.664 631.16 180.32C630.856 179.976 630.46 179.804 629.972 179.804C629.724 179.804 629.496 179.848 629.288 179.936C629.08 180.016 628.896 180.144 628.736 180.32C628.584 180.496 628.464 180.716 628.376 180.98C628.288 181.236 628.244 181.536 628.244 181.88C628.244 182.232 628.288 182.54 628.376 182.804C628.464 183.06 628.584 183.276 628.736 183.452C628.888 183.62 629.068 183.748 629.276 183.836C629.492 183.916 629.72 183.956 629.96 183.956Z" fill="#262626"/>
</svg>
