<svg xmlns="http://www.w3.org/2000/svg" width="700" height="484" fill="none" viewBox="0 0 700 484">
    <rect width="154" height="414" x="38" y="35" fill="#fff" rx="7"/>
    <rect width="154" height="414" x="38" y="35" stroke="#5282FF" stroke-width="2" rx="7"/>
    <path fill="#262626" d="m274 242-10-5.774v11.547L274 242Zm-82 1h73v-2h-73v2Zm158 105 5.774-10h-11.547L350 348Zm-1-76v67h2v-67h-2Zm163-30-10-5.774v11.547L512 242Zm-82 1h73v-2h-73v2Zm-340.31.14a5.264 5.264 0 0 1-1.89-.336 4.347 4.347 0 0 1-1.526-1.008c-.43-.439-.77-.98-1.022-1.624-.243-.644-.364-1.386-.364-2.226 0-.84.121-1.577.364-2.212.252-.644.593-1.176 1.022-1.596.43-.429.938-.751 1.526-.966a5.264 5.264 0 0 1 1.89-.336c.681 0 1.316.112 1.904.336a4.142 4.142 0 0 1 1.526.966c.43.429.765.966 1.008 1.61.243.635.364 1.372.364 2.212 0 .831-.121 1.568-.364 2.212a4.613 4.613 0 0 1-1.008 1.624c-.43.439-.938.775-1.526 1.008a5.304 5.304 0 0 1-1.904.336Zm0-1.19c.485 0 .933-.07 1.344-.21.41-.149.765-.378 1.064-.686.308-.317.546-.728.714-1.232.177-.504.266-1.115.266-1.834 0-.719-.089-1.33-.266-1.834-.168-.504-.406-.91-.714-1.218a2.59 2.59 0 0 0-1.064-.686 3.913 3.913 0 0 0-1.344-.224c-.486 0-.933.075-1.344.224a2.7 2.7 0 0 0-1.078.686c-.299.308-.537.714-.714 1.218-.168.504-.252 1.115-.252 1.834 0 .719.084 1.33.252 1.834.177.504.415.915.714 1.232a2.91 2.91 0 0 0 1.078.686c.41.14.858.21 1.344.21Zm12.943-2.59c0 .607-.093 1.143-.28 1.61a3.418 3.418 0 0 1-.742 1.19c-.308.317-.676.56-1.106.728a3.806 3.806 0 0 1-1.4.252c-.513 0-.984-.084-1.414-.252a2.92 2.92 0 0 1-1.106-.798c-.308-.355-.55-.803-.728-1.344-.168-.541-.252-1.181-.252-1.918 0-.607.019-1.185.056-1.736a7.56 7.56 0 0 1 .252-1.526 4.51 4.51 0 0 1 .56-1.274c.252-.383.588-.7 1.008-.952.234-.14.476-.243.728-.308.252-.075.504-.131.756-.168.262-.037.523-.061.784-.07l.77-.028c.374-.028.686-.075.938-.14.252-.065.476-.154.672-.266v1.12a2.136 2.136 0 0 1-.658.28 9.086 9.086 0 0 1-.826.126 57.56 57.56 0 0 1-1.47.112c-.438.019-.84.121-1.204.308a2.173 2.173 0 0 0-.994 1.176c-.186.513-.303 1.125-.35 1.834.486-1.12 1.4-1.68 2.744-1.68.458 0 .882.084 1.274.252.402.159.747.397 1.036.714.299.317.532.709.7 1.176.168.457.252.985.252 1.582Zm-3.528 2.674c.327 0 .626-.051.896-.154a2.04 2.04 0 0 0 .728-.49 2.29 2.29 0 0 0 .476-.84c.112-.336.168-.733.168-1.19 0-.457-.056-.854-.168-1.19a2.158 2.158 0 0 0-.476-.826 1.831 1.831 0 0 0-.728-.49 2.32 2.32 0 0 0-.896-.168c-.644 0-1.18.215-1.61.644-.42.429-.63 1.092-.63 1.988 0 .467.056.873.168 1.218.112.336.266.616.462.84.206.224.444.392.714.504.27.103.57.154.896.154Zm10.446-1.456c0 .42-.075.784-.224 1.092-.149.308-.359.56-.63.756a2.776 2.776 0 0 1-.966.434c-.373.093-.779.14-1.218.14h-2.338v-7.266h1.232v2.534h1.19c.924 0 1.647.182 2.17.546.523.364.784.952.784 1.764Zm2.282 2.422h-1.232v-7.266h1.232V243Zm-6.426-3.682v2.632h1.106c.532 0 .961-.098 1.288-.294.336-.205.504-.541.504-1.008 0-.476-.149-.817-.448-1.022-.299-.205-.719-.308-1.26-.308h-1.19ZM119.483 243h-1.232v-3.192c-.252.196-.546.35-.882.462-.327.103-.7.154-1.12.154-.822 0-1.452-.201-1.89-.602-.43-.411-.644-1.064-.644-1.96v-2.128h1.246v2.142c0 .569.13.966.392 1.19.261.224.63.336 1.106.336.326 0 .644-.047.952-.14.308-.093.588-.238.84-.434v-3.094h1.232V243Zm6.76-3.22h-3.514V243h-1.232v-7.266h1.232v2.996h3.514v-2.996h1.232V243h-1.232v-3.22Zm8.628.798c0 .42-.074.784-.224 1.092-.149.308-.359.56-.63.756a2.76 2.76 0 0 1-.966.434c-.373.093-.779.14-1.218.14h-2.338v-7.266h1.232v2.534h1.19c.924 0 1.648.182 2.17.546.523.364.784.952.784 1.764Zm2.282 2.422h-1.232v-7.266h1.232V243Zm-6.426-3.682v2.632h1.106c.532 0 .962-.098 1.288-.294.336-.205.504-.541.504-1.008 0-.476-.149-.817-.448-1.022-.298-.205-.718-.308-1.26-.308h-1.19Zm14.23 3.066a3.919 3.919 0 0 1-.378.238 4.34 4.34 0 0 1-.546.252 4.604 4.604 0 0 1-.728.182 4.51 4.51 0 0 1-.91.084c-1.223 0-2.151-.331-2.786-.994-.635-.663-.952-1.591-.952-2.786 0-.588.084-1.115.252-1.582.177-.467.42-.859.728-1.176a3.024 3.024 0 0 1 1.092-.742c.42-.177.877-.266 1.372-.266.523 0 .989.089 1.4.266.411.177.747.439 1.008.784.271.345.453.775.546 1.288.103.504.103 1.092 0 1.764h-5.124c.047.784.28 1.372.7 1.764.42.383 1.045.574 1.876.574.56 0 1.041-.079 1.442-.238a5.07 5.07 0 0 0 1.008-.518v1.106Zm-2.884-5.698c-.532 0-.989.163-1.372.49-.383.327-.625.821-.728 1.484h3.906c.037-.672-.117-1.167-.462-1.484-.345-.327-.793-.49-1.344-.49Zm-63.8 13.048h5.825V257h-1.232v-6.216h-3.36V257h-1.232v-7.266Zm10.817 7.406a3.77 3.77 0 0 1-1.386-.252 3.233 3.233 0 0 1-1.12-.728 3.547 3.547 0 0 1-.728-1.19c-.178-.467-.266-1.003-.266-1.61 0-.597.088-1.129.266-1.596.177-.476.42-.873.728-1.19.317-.317.69-.56 1.12-.728a3.77 3.77 0 0 1 1.386-.252c.504 0 .97.084 1.4.252.429.168.798.411 1.106.728.317.317.564.714.742 1.19.186.467.28.999.28 1.596 0 .607-.094 1.143-.28 1.61a3.433 3.433 0 0 1-.742 1.19c-.308.317-.677.56-1.106.728-.43.168-.896.252-1.4.252Zm0-1.106a2.5 2.5 0 0 0 .896-.154c.28-.112.522-.275.728-.49a2.3 2.3 0 0 0 .476-.84c.112-.336.168-.733.168-1.19 0-.457-.056-.854-.168-1.19a2.167 2.167 0 0 0-.476-.826 1.833 1.833 0 0 0-.728-.49 2.322 2.322 0 0 0-.896-.168c-.327 0-.626.056-.896.168-.271.103-.51.266-.714.49-.196.215-.35.49-.462.826a3.775 3.775 0 0 0-.168 1.19c0 .457.056.854.168 1.19.112.336.266.616.462.84.205.215.443.378.714.49.27.103.569.154.896.154Zm8.165 1.106c-.56 0-1.068-.084-1.526-.252a3.339 3.339 0 0 1-1.148-.742 3.273 3.273 0 0 1-.728-1.19c-.168-.467-.252-.999-.252-1.596 0-.588.084-1.115.252-1.582.178-.467.425-.859.742-1.176a3.066 3.066 0 0 1 1.162-.742 4.28 4.28 0 0 1 1.554-.266c.448 0 .859.051 1.232.154.374.093.682.233.924.42v1.106a3.255 3.255 0 0 0-1.008-.434 4.145 4.145 0 0 0-1.134-.154c-.849 0-1.474.219-1.876.658-.392.439-.588 1.111-.588 2.016s.192 1.577.574 2.016c.383.439.99.658 1.82.658.439 0 .84-.051 1.204-.154a4.95 4.95 0 0 0 1.008-.42v1.106a4.29 4.29 0 0 1-2.212.574Zm9.646-.756a3.685 3.685 0 0 1-.378.238 4.34 4.34 0 0 1-.546.252 4.576 4.576 0 0 1-.728.182c-.27.056-.574.084-.91.084-1.222 0-2.151-.331-2.786-.994-.634-.663-.952-1.591-.952-2.786 0-.588.084-1.115.252-1.582.178-.467.42-.859.728-1.176a3.024 3.024 0 0 1 1.092-.742 3.5 3.5 0 0 1 1.372-.266c.523 0 .99.089 1.4.266.411.177.747.439 1.008.784.271.345.453.775.546 1.288.103.504.103 1.092 0 1.764h-5.124c.047.784.28 1.372.7 1.764.42.383 1.046.574 1.876.574.56 0 1.041-.079 1.442-.238a5.015 5.015 0 0 0 1.008-.518v1.106Zm-2.884-5.698c-.532 0-.989.163-1.372.49-.382.327-.625.821-.728 1.484h3.906c.038-.672-.116-1.167-.462-1.484-.345-.327-.793-.49-1.344-.49Zm7.493.098V257h-1.232v-6.216h-2.282v-1.05h5.838v1.05h-2.324Zm4.978 4.536 3.878-5.586h1.246V257h-1.232v-5.572L116.516 257h-1.26v-7.266h1.232v5.586Zm10.061-4.536V257h-1.232v-6.216h-2.282v-1.05h5.838v1.05h-2.324Zm9.323 5.6a3.919 3.919 0 0 1-.378.238 4.34 4.34 0 0 1-.546.252 4.604 4.604 0 0 1-.728.182 4.51 4.51 0 0 1-.91.084c-1.223 0-2.151-.331-2.786-.994-.635-.663-.952-1.591-.952-2.786 0-.588.084-1.115.252-1.582.177-.467.42-.859.728-1.176a3.024 3.024 0 0 1 1.092-.742c.42-.177.877-.266 1.372-.266.523 0 .989.089 1.4.266.411.177.747.439 1.008.784.271.345.453.775.546 1.288.103.504.103 1.092 0 1.764h-5.124c.047.784.28 1.372.7 1.764.42.383 1.045.574 1.876.574.56 0 1.041-.079 1.442-.238a5.07 5.07 0 0 0 1.008-.518v1.106Zm-2.884-5.698c-.532 0-.989.163-1.372.49-.383.327-.625.821-.728 1.484h3.906c.037-.672-.117-1.167-.462-1.484-.345-.327-.793-.49-1.344-.49Zm5.195 4.06c.131-.476.215-1.12.252-1.932.038-.812.056-1.839.056-3.08h4.886V257h-1.246v-6.216h-2.478a42.616 42.616 0 0 1-.098 2.66c-.046.775-.154 1.428-.322 1.96-.158.532-.396.938-.714 1.218-.308.271-.723.406-1.246.406h-.112a.682.682 0 0 1-.126-.014v-1.218a.996.996 0 0 0 .182.014c.476 0 .798-.355.966-1.064Zm8.424.574 3.878-5.586h1.246V257h-1.232v-5.572L146.635 257h-1.26v-7.266h1.232v5.586Z"/>
    <path stroke="#262626" stroke-width="2" d="M120 203.34c0 1.563-.494 3.276-1.392 4.573-.889 1.284-2.111 2.087-3.608 2.087-1.497 0-2.719-.803-3.608-2.087-.898-1.297-1.392-3.01-1.392-4.573 0-3.002 2.29-5.34 5-5.34s5 2.338 5 5.34Zm-18 18.226c0-2.252 1.315-4.368 3.663-5.963 2.345-1.595 5.642-2.603 9.337-2.603 3.695 0 6.992 1.008 9.337 2.603 2.348 1.595 3.663 3.711 3.663 5.963a2.434 2.434 0 0 1-2.434 2.434h-21.132a2.434 2.434 0 0 1-2.434-2.434Z"/>
    <path fill="#262626" d="M90.35 95.14c-.747 0-1.424-.117-2.03-.35a4.443 4.443 0 0 1-1.569-1.008 4.635 4.635 0 0 1-.994-1.624c-.233-.644-.35-1.367-.35-2.17 0-.812.108-1.535.322-2.17a4.267 4.267 0 0 1 .952-1.61 4.09 4.09 0 0 1 1.54-1.022c.616-.233 1.316-.35 2.1-.35.682 0 1.279.075 1.792.224.514.14.934.308 1.26.504v1.26a4.643 4.643 0 0 0-1.456-.602 6.84 6.84 0 0 0-1.61-.196c-1.185 0-2.062.331-2.632.994-.56.653-.84 1.643-.84 2.968 0 1.335.304 2.329.91 2.982.616.653 1.522.98 2.716.98.514 0 1.013-.07 1.498-.21.495-.14.966-.378 1.414-.714v1.26c-.27.215-.667.41-1.19.588-.513.177-1.124.266-1.834.266Zm4.87-7.406h5.824V95h-1.232v-6.216h-3.36V95H95.22v-7.266Zm12.09 5.88a4.219 4.219 0 0 1-.322.532 2.444 2.444 0 0 1-1.19.854c-.261.093-.569.14-.924.14-.653 0-1.181-.182-1.582-.546-.401-.373-.602-.905-.602-1.596 0-.793.275-1.377.826-1.75.56-.373 1.353-.56 2.38-.56h1.358v-.602c0-.504-.131-.863-.392-1.078-.261-.215-.709-.322-1.344-.322a3.63 3.63 0 0 0-1.274.224c-.401.14-.761.303-1.078.49v-1.106a5.42 5.42 0 0 1 1.05-.462 4.374 4.374 0 0 1 1.47-.238c.915 0 1.61.191 2.086.574.476.373.714.957.714 1.75v4.2c.009.103.014.21.014.322l.028.322c.009.093.019.173.028.238h-1.12a6.4 6.4 0 0 1-.084-.546 8.197 8.197 0 0 1-.028-.63l-.014-.21Zm-2.17.42c.383 0 .709-.08.98-.238.271-.159.49-.34.658-.546.168-.215.289-.42.364-.616.075-.205.112-.35.112-.434v-.532h-1.232c-.737 0-1.274.107-1.61.322-.327.205-.49.518-.49.938 0 .327.098.593.294.798.196.205.504.308.924.308Zm12.213-4.872-2.464 5.026h-.98l-2.324-5.054V95h-1.162v-7.266h1.834l2.226 4.872 2.38-4.872h1.708V95h-1.218v-5.838Zm9.01 5.222a3.738 3.738 0 0 1-.378.238 4.34 4.34 0 0 1-.546.252 4.576 4.576 0 0 1-.728.182c-.27.056-.574.084-.91.084-1.222 0-2.151-.331-2.786-.994-.634-.663-.952-1.591-.952-2.786 0-.588.084-1.115.252-1.582.178-.467.42-.859.728-1.176a3.028 3.028 0 0 1 1.092-.742 3.5 3.5 0 0 1 1.372-.266c.523 0 .99.089 1.4.266.411.177.747.439 1.008.784.271.345.453.775.546 1.288.103.504.103 1.092 0 1.764h-5.124c.047.784.28 1.372.7 1.764.42.383 1.046.574 1.876.574.56 0 1.041-.08 1.442-.238a5.015 5.015 0 0 0 1.008-.518v1.106Zm-2.884-5.698c-.532 0-.989.163-1.372.49-.382.327-.625.821-.728 1.484h3.906c.038-.672-.116-1.167-.462-1.484-.345-.327-.793-.49-1.344-.49Zm8.289 6.454c-.56 0-1.045-.13-1.456-.392a2.856 2.856 0 0 1-.966-1.078v3.808h-1.232v-9.744h1.078l.126 1.414c.243-.476.57-.854.98-1.134.411-.28.92-.42 1.526-.42.42 0 .822.08 1.204.238.392.15.733.383 1.022.7.299.308.532.7.7 1.176.178.467.266 1.017.266 1.652 0 .644-.088 1.204-.266 1.68a3.5 3.5 0 0 1-.714 1.176 2.988 2.988 0 0 1-1.036.7 3.43 3.43 0 0 1-1.232.224Zm-.182-1.106c.644 0 1.162-.22 1.554-.658.402-.448.602-1.12.602-2.016 0-.877-.2-1.54-.602-1.988-.392-.457-.91-.686-1.554-.686-.317 0-.616.056-.896.168-.27.112-.508.28-.714.504a2.45 2.45 0 0 0-.476.826 3.723 3.723 0 0 0-.168 1.176c0 .448.056.84.168 1.176.122.336.28.616.476.84.206.224.444.392.714.504.28.103.579.154.896.154Zm10.299-1.456c0 .42-.075.784-.224 1.092-.149.308-.359.56-.63.756-.271.196-.593.34-.966.434-.373.093-.779.14-1.218.14h-2.338v-7.266h1.232v2.534h1.19c.924 0 1.647.182 2.17.546.523.364.784.952.784 1.764ZM144.167 95h-1.232v-7.266h1.232V95Zm-6.426-3.682v2.632h1.106c.532 0 .961-.098 1.288-.294.336-.205.504-.541.504-1.008 0-.476-.149-.817-.448-1.022-.299-.205-.719-.308-1.26-.308h-1.19Z"/>
    <rect width="19" height="26" x="102" y="75" stroke="#262626" stroke-linecap="round" stroke-linejoin="round" stroke-width="2" rx="3" transform="rotate(-90 102 75)"/>
    <path stroke="#262626" stroke-width="2" d="m103 57 10.759 8.517a1.999 1.999 0 0 0 2.482 0L127 57"/>
    <path fill="#262626" d="M77.156 157.962h3.374a7.06 7.06 0 0 1 1.876.238 3.89 3.89 0 0 1 1.512.784c.43.364.766.845 1.008 1.442.243.597.364 1.335.364 2.212 0 .887-.126 1.666-.378 2.338-.242.663-.583 1.218-1.022 1.666a4.212 4.212 0 0 1-1.553 1.022 5.54 5.54 0 0 1-1.96.336h-3.22v-10.038Zm1.316 1.204v7.644h1.904c.514 0 .985-.079 1.414-.238.43-.159.798-.401 1.106-.728.308-.336.546-.761.715-1.274.167-.513.251-1.125.251-1.834 0-.7-.084-1.279-.251-1.736-.169-.467-.402-.835-.7-1.106a2.337 2.337 0 0 0-1.05-.56 5.04 5.04 0 0 0-1.33-.168h-2.059Zm8.57-1.204h3.373c.672 0 1.298.079 1.876.238.579.159 1.083.42 1.512.784.43.364.766.845 1.008 1.442.243.597.364 1.335.364 2.212 0 .887-.126 1.666-.378 2.338-.242.663-.583 1.218-1.022 1.666-.43.448-.947.789-1.554 1.022a5.54 5.54 0 0 1-1.96.336h-3.22v-10.038Zm1.315 1.204v7.644h1.904c.514 0 .985-.079 1.414-.238a2.86 2.86 0 0 0 1.106-.728c.308-.336.546-.761.714-1.274.168-.513.252-1.125.252-1.834 0-.7-.084-1.279-.252-1.736-.168-.467-.401-.835-.7-1.106a2.336 2.336 0 0 0-1.05-.56 5.04 5.04 0 0 0-1.33-.168h-2.058Zm11.451 8.974a3.77 3.77 0 0 1-1.386-.252 3.232 3.232 0 0 1-1.12-.728 3.547 3.547 0 0 1-.728-1.19c-.177-.467-.266-1.003-.266-1.61 0-.597.089-1.129.266-1.596.178-.476.42-.873.728-1.19.318-.317.691-.56 1.12-.728a3.77 3.77 0 0 1 1.386-.252c.504 0 .971.084 1.4.252.43.168.798.411 1.106.728.318.317.565.714.742 1.19.187.467.28.999.28 1.596 0 .607-.093 1.143-.28 1.61a3.418 3.418 0 0 1-.742 1.19c-.308.317-.676.56-1.106.728a3.807 3.807 0 0 1-1.4.252Zm0-1.106c.327 0 .626-.051.896-.154a2.04 2.04 0 0 0 .728-.49 2.29 2.29 0 0 0 .476-.84c.112-.336.168-.733.168-1.19 0-.457-.056-.854-.168-1.19a2.158 2.158 0 0 0-.476-.826 1.831 1.831 0 0 0-.728-.49 2.317 2.317 0 0 0-.896-.168c-.326 0-.625.056-.896.168-.27.103-.508.266-.714.49-.196.215-.35.49-.462.826a3.775 3.775 0 0 0-.168 1.19c0 .457.056.854.168 1.19.112.336.266.616.462.84.206.215.444.378.714.49.271.103.57.154.896.154Zm7.998 1.106c-.457 0-.868-.033-1.232-.098a5.95 5.95 0 0 1-.966-.224 4.995 4.995 0 0 1-.7-.322 2.744 2.744 0 0 1-.448-.35v-1.26c.14.121.322.247.546.378.224.121.481.233.77.336.299.103.616.187.952.252.345.065.705.098 1.078.098.728 0 1.307-.135 1.736-.406.429-.28.644-.7.644-1.26 0-.28-.051-.509-.154-.686a1.245 1.245 0 0 0-.448-.462 2.596 2.596 0 0 0-.742-.322c-.289-.093-.63-.191-1.022-.294a18.704 18.704 0 0 1-1.176-.35 4.327 4.327 0 0 1-1.064-.518 2.622 2.622 0 0 1-.756-.812c-.187-.327-.28-.742-.28-1.246 0-.868.303-1.545.91-2.03.607-.485 1.535-.728 2.786-.728.364 0 .686.023.966.07.289.037.541.089.756.154.224.056.415.121.574.196.168.075.317.145.448.21v1.26a3.94 3.94 0 0 0-1.274-.532 6.055 6.055 0 0 0-1.47-.168c-.448 0-.826.037-1.134.112a2 2 0 0 0-.728.294 1.158 1.158 0 0 0-.406.476 1.521 1.521 0 0 0-.126.63c0 .28.061.513.182.7.131.187.299.345.504.476.215.121.457.224.728.308.271.084.555.159.854.224.392.093.793.201 1.204.322.411.121.779.289 1.106.504.327.215.593.495.798.84.215.336.322.775.322 1.316 0 .532-.107.985-.322 1.358a2.618 2.618 0 0 1-.826.896 3.51 3.51 0 0 1-1.19.504 6.232 6.232 0 0 1-1.4.154Zm5.272-4.97h3.36v1.12h-3.36v-1.12Zm9.469 3.444a4.24 4.24 0 0 1-.322.532 2.419 2.419 0 0 1-1.19.854c-.261.093-.569.14-.924.14-.653 0-1.18-.182-1.582-.546-.401-.373-.602-.905-.602-1.596 0-.793.276-1.377.826-1.75.56-.373 1.354-.56 2.38-.56h1.358v-.602c0-.504-.13-.863-.392-1.078-.261-.215-.709-.322-1.344-.322-.448 0-.872.075-1.274.224-.401.14-.76.303-1.078.49v-1.106a5.438 5.438 0 0 1 1.05-.462 4.367 4.367 0 0 1 1.47-.238c.915 0 1.61.191 2.086.574.476.373.714.957.714 1.75v4.2c.01.103.014.21.014.322l.028.322c.01.093.019.173.028.238h-1.12a6.439 6.439 0 0 1-.084-.546 8.754 8.754 0 0 1-.028-.63l-.014-.21Zm-2.17.42c.383 0 .71-.079.98-.238.271-.159.49-.341.658-.546.168-.215.29-.42.364-.616.075-.205.112-.35.112-.434v-.532h-1.232c-.737 0-1.274.107-1.61.322-.326.205-.49.518-.49.938 0 .327.098.593.294.798.196.205.504.308.924.308Zm8.141-5.25V168h-1.232v-6.216h-2.282v-1.05h5.838v1.05h-2.324Zm7.797 4.83a4.363 4.363 0 0 1-.322.532 2.444 2.444 0 0 1-1.19.854c-.262.093-.57.14-.924.14-.654 0-1.181-.182-1.582-.546-.402-.373-.602-.905-.602-1.596 0-.793.275-1.377.826-1.75.56-.373 1.353-.56 2.38-.56h1.358v-.602c0-.504-.131-.863-.392-1.078-.262-.215-.71-.322-1.344-.322a3.63 3.63 0 0 0-1.274.224c-.402.14-.761.303-1.078.49v-1.106a5.383 5.383 0 0 1 1.05-.462 4.367 4.367 0 0 1 1.47-.238c.914 0 1.61.191 2.086.574.476.373.714.957.714 1.75v4.2c.009.103.014.21.014.322.009.112.018.219.028.322.009.093.018.173.028.238h-1.12a6.439 6.439 0 0 1-.084-.546 8.21 8.21 0 0 1-.028-.63l-.014-.21Zm-2.17.42c.382 0 .709-.079.98-.238.27-.159.49-.341.658-.546.168-.215.289-.42.364-.616.074-.205.112-.35.112-.434v-.532h-1.232c-.738 0-1.274.107-1.61.322-.327.205-.49.518-.49.938 0 .327.098.593.294.798.196.205.504.308.924.308Zm7.159-2.128h-.644V168h-1.232v-7.266h1.232v3.122h.7l2.548-3.122h1.4l-2.982 3.584 3.038 3.682h-1.498l-2.562-3.094Zm6.588 1.414 3.878-5.586h1.246V168h-1.232v-5.572L147.92 168h-1.26v-7.266h1.232v5.586Z"/>
    <rect width="7" height="5" x="120.986" y="125.414" stroke="#262626" stroke-width="2" rx="1" transform="rotate(45.598 120.986 125.414)"/>
    <circle cx="113" cy="137" r="10" fill="#fff" stroke="#262626" stroke-width="2"/>
    <path fill="#262626" d="M126.207 126.207a.999.999 0 1 0-1.414-1.414l1.414 1.414Zm-2 2 2-2-1.414-1.414-2 2 1.414 1.414ZM94.979 333.674 92.025 338h-1.4l3.668-5.278-3.192-4.76h1.582l2.548 3.836 2.52-3.836h1.4l-3.248 4.746L99.445 338h-1.568l-2.898-4.326Zm9.795 2.94a4.363 4.363 0 0 1-.322.532 2.444 2.444 0 0 1-1.19.854c-.262.093-.57.14-.924.14-.654 0-1.181-.182-1.582-.546-.402-.373-.602-.905-.602-1.596 0-.793.275-1.377.826-1.75.56-.373 1.353-.56 2.38-.56h1.358v-.602c0-.504-.131-.863-.392-1.078-.262-.215-.71-.322-1.344-.322a3.63 3.63 0 0 0-1.274.224c-.402.14-.761.303-1.078.49v-1.106a5.383 5.383 0 0 1 1.05-.462 4.367 4.367 0 0 1 1.47-.238c.914 0 1.61.191 2.086.574.476.373.714.957.714 1.75v4.2c.009.103.014.21.014.322.009.112.018.219.028.322.009.093.018.173.028.238h-1.12a6.439 6.439 0 0 1-.084-.546 8.21 8.21 0 0 1-.028-.63l-.014-.21Zm-2.17.42c.382 0 .709-.079.98-.238.27-.159.49-.341.658-.546.168-.215.289-.42.364-.616.074-.205.112-.35.112-.434v-.532h-1.232c-.738 0-1.274.107-1.61.322-.327.205-.49.518-.49.938 0 .327.098.593.294.798.196.205.504.308.924.308Zm7.159-2.128h-.644V338h-1.232v-7.266h1.232v3.122h.7l2.548-3.122h1.4l-2.982 3.584 3.038 3.682h-1.498l-2.562-3.094Zm10.865 2.478a3.919 3.919 0 0 1-.378.238 4.34 4.34 0 0 1-.546.252 4.604 4.604 0 0 1-.728.182 4.51 4.51 0 0 1-.91.084c-1.223 0-2.151-.331-2.786-.994-.635-.663-.952-1.591-.952-2.786 0-.588.084-1.115.252-1.582.177-.467.42-.859.728-1.176a3.024 3.024 0 0 1 1.092-.742c.42-.177.877-.266 1.372-.266.523 0 .989.089 1.4.266.411.177.747.439 1.008.784.271.345.453.775.546 1.288.103.504.103 1.092 0 1.764h-5.124c.047.784.28 1.372.7 1.764.42.383 1.045.574 1.876.574.56 0 1.041-.079 1.442-.238a5.07 5.07 0 0 0 1.008-.518v1.106Zm-2.884-5.698c-.532 0-.989.163-1.372.49-.383.327-.625.821-.728 1.484h3.906c.037-.672-.117-1.167-.462-1.484-.345-.327-.793-.49-1.344-.49Zm8.289 6.454c-.56 0-1.045-.131-1.456-.392a2.856 2.856 0 0 1-.966-1.078v3.808h-1.232v-9.744h1.078l.126 1.414a2.98 2.98 0 0 1 .98-1.134c.411-.28.919-.42 1.526-.42.42 0 .821.079 1.204.238.392.149.733.383 1.022.7.299.308.532.7.7 1.176.177.467.266 1.017.266 1.652 0 .644-.089 1.204-.266 1.68a3.494 3.494 0 0 1-.714 1.176 3.002 3.002 0 0 1-1.036.7 3.44 3.44 0 0 1-1.232.224Zm-.182-1.106c.644 0 1.162-.219 1.554-.658.401-.448.602-1.12.602-2.016 0-.877-.201-1.54-.602-1.988-.392-.457-.91-.686-1.554-.686-.317 0-.616.056-.896.168a1.99 1.99 0 0 0-.714.504c-.196.215-.355.49-.476.826a3.723 3.723 0 0 0-.168 1.176c0 .448.056.84.168 1.176.121.336.28.616.476.84.205.224.443.392.714.504.28.103.579.154.896.154Zm10.299-1.456c0 .42-.075.784-.224 1.092a2 2 0 0 1-.63.756 2.776 2.776 0 0 1-.966.434c-.374.093-.78.14-1.218.14h-2.338v-7.266h1.232v2.534h1.19c.924 0 1.647.182 2.17.546.522.364.784.952.784 1.764Zm2.282 2.422H137.2v-7.266h1.232V338Zm-6.426-3.682v2.632h1.106c.532 0 .961-.098 1.288-.294.336-.205.504-.541.504-1.008 0-.476-.15-.817-.448-1.022-.299-.205-.719-.308-1.26-.308h-1.19Z"/>
    <path stroke="#262626" stroke-width="2" d="M103 290a1 1 0 0 1 1-1h22a1 1 0 0 1 1 1v13c0 6.627-5.373 12-12 12s-12-5.373-12-12v-13Z"/>
    <path stroke="#262626" stroke-linecap="round" stroke-width="2" d="M106 298h5m-5 4v0a3.535 3.535 0 0 0 5 0v0m8 0v0a3.535 3.535 0 0 0 5 0v0m-5-4h5m-9 17v-3.5"/>
    <path fill="#262626" d="M79.693 407.962h7.546V418h-1.33v-8.834h-4.9V418h-1.316v-10.038ZM92.39 418.14a3.77 3.77 0 0 1-1.386-.252 3.232 3.232 0 0 1-1.12-.728 3.547 3.547 0 0 1-.728-1.19c-.177-.467-.266-1.003-.266-1.61 0-.597.089-1.129.266-1.596.178-.476.42-.873.728-1.19.318-.317.691-.56 1.12-.728a3.77 3.77 0 0 1 1.386-.252c.504 0 .971.084 1.4.252.43.168.798.411 1.106.728.318.317.565.714.742 1.19.187.467.28.999.28 1.596 0 .607-.093 1.143-.28 1.61a3.435 3.435 0 0 1-.742 1.19c-.308.317-.676.56-1.106.728a3.807 3.807 0 0 1-1.4.252Zm0-1.106c.327 0 .626-.051.896-.154a2.04 2.04 0 0 0 .728-.49 2.3 2.3 0 0 0 .476-.84c.112-.336.168-.733.168-1.19 0-.457-.056-.854-.168-1.19a2.167 2.167 0 0 0-.476-.826 1.834 1.834 0 0 0-.728-.49 2.322 2.322 0 0 0-.896-.168c-.326 0-.625.056-.896.168-.27.103-.508.266-.714.49-.196.215-.35.49-.462.826a3.775 3.775 0 0 0-.168 1.19c0 .457.056.854.168 1.19.112.336.266.616.462.84.206.215.444.378.714.49.271.103.57.154.896.154Zm6.262-.714 3.878-5.586h1.246V418h-1.232v-5.572L98.681 418h-1.26v-7.266h1.232v5.586Zm10.271 1.82c-.56 0-1.068-.084-1.526-.252a3.345 3.345 0 0 1-1.148-.742 3.277 3.277 0 0 1-.728-1.19c-.168-.467-.252-.999-.252-1.596 0-.588.084-1.115.252-1.582.178-.467.425-.859.742-1.176a3.073 3.073 0 0 1 1.162-.742 4.284 4.284 0 0 1 1.554-.266c.448 0 .859.051 1.232.154.374.093.682.233.924.42v1.106a3.243 3.243 0 0 0-1.008-.434 4.145 4.145 0 0 0-1.134-.154c-.849 0-1.474.219-1.876.658-.392.439-.588 1.111-.588 2.016s.192 1.577.574 2.016c.383.439.99.658 1.82.658.439 0 .84-.051 1.204-.154.374-.112.71-.252 1.008-.42v1.106a4.29 4.29 0 0 1-2.212.574Zm5.74-3.234h-.644V418h-1.232v-7.266h1.232v3.122h.7l2.548-3.122h1.4l-2.982 3.584 3.038 3.682h-1.498l-2.562-3.094Zm8.065 3.234c-.494 0-.956-.084-1.386-.252a3.242 3.242 0 0 1-1.12-.728 3.558 3.558 0 0 1-.728-1.19c-.177-.467-.266-1.003-.266-1.61 0-.597.089-1.129.266-1.596.178-.476.42-.873.728-1.19.318-.317.691-.56 1.12-.728.43-.168.892-.252 1.386-.252.504 0 .971.084 1.4.252.43.168.798.411 1.106.728.318.317.565.714.742 1.19.187.467.28.999.28 1.596 0 .607-.093 1.143-.28 1.61a3.418 3.418 0 0 1-.742 1.19c-.308.317-.676.56-1.106.728a3.807 3.807 0 0 1-1.4.252Zm0-1.106c.327 0 .626-.051.896-.154a2.04 2.04 0 0 0 .728-.49 2.29 2.29 0 0 0 .476-.84c.112-.336.168-.733.168-1.19 0-.457-.056-.854-.168-1.19a2.158 2.158 0 0 0-.476-.826 1.831 1.831 0 0 0-.728-.49 2.318 2.318 0 0 0-.896-.168c-.326 0-.625.056-.896.168-.27.103-.508.266-.714.49-.196.215-.35.49-.462.826a3.775 3.775 0 0 0-.168 1.19c0 .457.056.854.168 1.19.112.336.266.616.462.84.206.215.444.378.714.49.271.103.57.154.896.154Zm5.03-6.3h2.716c.877 0 1.54.154 1.988.462.448.299.672.77.672 1.414 0 .429-.112.775-.336 1.036-.215.252-.523.434-.924.546 1.036.168 1.554.742 1.554 1.722 0 .373-.075.695-.224.966a1.85 1.85 0 0 1-.616.644 2.746 2.746 0 0 1-.952.364 5.904 5.904 0 0 1-1.19.112h-2.688v-7.266Zm1.232 1.05v1.974h1.372c.467 0 .84-.084 1.12-.252.289-.168.434-.411.434-.728 0-.383-.126-.644-.378-.784s-.611-.21-1.078-.21h-1.47Zm0 2.954v2.212h1.442c.261 0 .495-.014.7-.042.215-.037.397-.098.546-.182a.906.906 0 0 0 .364-.336.991.991 0 0 0 .126-.518c0-.42-.145-.714-.434-.882-.289-.168-.723-.252-1.302-.252h-1.442Zm11.664.84c0 .42-.075.784-.224 1.092a2 2 0 0 1-.63.756 2.776 2.776 0 0 1-.966.434c-.374.093-.78.14-1.218.14h-2.338v-7.266h1.232v2.534h1.19c.924 0 1.647.182 2.17.546.522.364.784.952.784 1.764Zm2.282 2.422h-1.232v-7.266h1.232V418Zm-6.426-3.682v2.632h1.106c.532 0 .961-.098 1.288-.294.336-.205.504-.541.504-1.008 0-.476-.15-.817-.448-1.022-.299-.205-.719-.308-1.26-.308h-1.19Zm14.229 3.066a3.685 3.685 0 0 1-.378.238 4.34 4.34 0 0 1-.546.252 4.576 4.576 0 0 1-.728.182c-.27.056-.574.084-.91.084-1.222 0-2.151-.331-2.786-.994-.634-.663-.952-1.591-.952-2.786 0-.588.084-1.115.252-1.582.178-.467.42-.859.728-1.176a3.024 3.024 0 0 1 1.092-.742 3.5 3.5 0 0 1 1.372-.266c.523 0 .99.089 1.4.266.411.177.747.439 1.008.784.271.345.453.775.546 1.288.103.504.103 1.092 0 1.764h-5.124c.047.784.28 1.372.7 1.764.42.383 1.046.574 1.876.574.56 0 1.041-.079 1.442-.238a5.015 5.015 0 0 0 1.008-.518v1.106Zm-2.884-5.698c-.532 0-.989.163-1.372.49-.382.327-.625.821-.728 1.484h3.906c.038-.672-.116-1.167-.462-1.484-.345-.327-.793-.49-1.344-.49ZM71.947 432.14c-.56 0-1.045-.131-1.456-.392a2.85 2.85 0 0 1-.966-1.078v3.808h-1.232v-9.744h1.078l.126 1.414a2.98 2.98 0 0 1 .98-1.134c.41-.28.92-.42 1.526-.42.42 0 .822.079 1.204.238.392.149.733.383 1.022.7.299.308.532.7.7 1.176.177.467.266 1.017.266 1.652 0 .644-.088 1.204-.266 1.68a3.507 3.507 0 0 1-.714 1.176 2.999 2.999 0 0 1-1.036.7 3.439 3.439 0 0 1-1.232.224Zm-.182-1.106c.644 0 1.162-.219 1.554-.658.401-.448.602-1.12.602-2.016 0-.877-.2-1.54-.602-1.988-.392-.457-.91-.686-1.554-.686a2.39 2.39 0 0 0-.896.168c-.27.112-.508.28-.714.504-.196.215-.355.49-.476.826a3.723 3.723 0 0 0-.168 1.176c0 .448.056.84.168 1.176.121.336.28.616.476.84.206.224.444.392.714.504.28.103.579.154.896.154Zm7.905 1.106a3.77 3.77 0 0 1-1.386-.252 3.233 3.233 0 0 1-1.12-.728 3.547 3.547 0 0 1-.728-1.19c-.178-.467-.266-1.003-.266-1.61 0-.597.088-1.129.266-1.596.177-.476.42-.873.728-1.19.317-.317.69-.56 1.12-.728a3.77 3.77 0 0 1 1.386-.252c.504 0 .97.084 1.4.252.429.168.798.411 1.106.728.317.317.564.714.742 1.19.186.467.28.999.28 1.596 0 .607-.094 1.143-.28 1.61a3.433 3.433 0 0 1-.742 1.19c-.308.317-.677.56-1.106.728-.43.168-.896.252-1.4.252Zm0-1.106a2.5 2.5 0 0 0 .896-.154c.28-.112.522-.275.728-.49a2.3 2.3 0 0 0 .476-.84c.112-.336.168-.733.168-1.19 0-.457-.056-.854-.168-1.19a2.167 2.167 0 0 0-.476-.826 1.833 1.833 0 0 0-.728-.49 2.322 2.322 0 0 0-.896-.168c-.327 0-.626.056-.896.168a1.849 1.849 0 0 0-.714.49c-.196.215-.35.49-.462.826a3.775 3.775 0 0 0-.168 1.19c0 .457.056.854.168 1.19.112.336.266.616.462.84.205.215.443.378.714.49.27.103.569.154.896.154Zm11.581-2.674c0 .607-.093 1.143-.28 1.61a3.433 3.433 0 0 1-.742 1.19c-.308.317-.676.56-1.106.728a3.807 3.807 0 0 1-1.4.252c-.513 0-.984-.084-1.414-.252a2.92 2.92 0 0 1-1.106-.798c-.308-.355-.55-.803-.728-1.344-.168-.541-.252-1.181-.252-1.918 0-.607.02-1.185.056-1.736a7.546 7.546 0 0 1 .252-1.526c.131-.476.318-.901.56-1.274.252-.383.588-.7 1.008-.952.234-.14.476-.243.728-.308.252-.075.504-.131.756-.168a7.41 7.41 0 0 1 .784-.07l.77-.028c.374-.028.686-.075.938-.14.252-.065.476-.154.672-.266v1.12a2.146 2.146 0 0 1-.658.28 9.086 9.086 0 0 1-.826.126 57.56 57.56 0 0 1-1.47.112c-.438.019-.84.121-1.204.308a2.173 2.173 0 0 0-.994 1.176c-.186.513-.303 1.125-.35 1.834.486-1.12 1.4-1.68 2.744-1.68a3.2 3.2 0 0 1 1.274.252c.402.159.747.397 1.036.714.3.317.532.709.7 1.176.168.457.252.985.252 1.582Zm-3.528 2.674a2.5 2.5 0 0 0 .896-.154 2.04 2.04 0 0 0 .728-.49 2.3 2.3 0 0 0 .476-.84c.112-.336.168-.733.168-1.19 0-.457-.056-.854-.168-1.19a2.167 2.167 0 0 0-.476-.826 1.833 1.833 0 0 0-.728-.49 2.322 2.322 0 0 0-.896-.168c-.644 0-1.18.215-1.61.644-.42.429-.63 1.092-.63 1.988 0 .467.056.873.168 1.218.112.336.266.616.462.84.206.224.444.392.714.504.271.103.57.154.896.154Zm8.052 1.106a3.77 3.77 0 0 1-1.386-.252 3.232 3.232 0 0 1-1.12-.728 3.547 3.547 0 0 1-.728-1.19c-.177-.467-.266-1.003-.266-1.61 0-.597.089-1.129.266-1.596.178-.476.42-.873.728-1.19.317-.317.69-.56 1.12-.728a3.77 3.77 0 0 1 1.386-.252c.504 0 .97.084 1.4.252.43.168.798.411 1.106.728.317.317.565.714.742 1.19.187.467.28.999.28 1.596 0 .607-.093 1.143-.28 1.61a3.435 3.435 0 0 1-.742 1.19c-.308.317-.677.56-1.106.728-.43.168-.896.252-1.4.252Zm0-1.106a2.5 2.5 0 0 0 .896-.154 2.04 2.04 0 0 0 .728-.49 2.3 2.3 0 0 0 .476-.84c.112-.336.168-.733.168-1.19 0-.457-.056-.854-.168-1.19a2.167 2.167 0 0 0-.476-.826 1.834 1.834 0 0 0-.728-.49 2.322 2.322 0 0 0-.896-.168c-.327 0-.625.056-.896.168-.27.103-.508.266-.714.49-.196.215-.35.49-.462.826a3.775 3.775 0 0 0-.168 1.19c0 .457.056.854.168 1.19.112.336.266.616.462.84.206.215.444.378.714.49.27.103.57.154.896.154Zm7.751-5.25V432h-1.232v-6.216h-2.282v-1.05h5.838v1.05h-2.324Zm9.122 3.794c0 .42-.075.784-.224 1.092a2 2 0 0 1-.63.756 2.776 2.776 0 0 1-.966.434c-.374.093-.78.14-1.218.14h-2.338v-7.266h1.232v2.534h1.19c.924 0 1.647.182 2.17.546.522.364.784.952.784 1.764ZM114.93 432h-1.232v-7.266h1.232V432Zm-6.426-3.682v2.632h1.106c.532 0 .961-.098 1.288-.294.336-.205.504-.541.504-1.008 0-.476-.15-.817-.448-1.022-.299-.205-.719-.308-1.26-.308h-1.19Zm12.756 2.002 3.878-5.586h1.246V432h-1.232v-5.572L121.288 432h-1.26v-7.266h1.232v5.586Zm16.763-1.96c0 .607-.093 1.143-.28 1.61a3.433 3.433 0 0 1-.742 1.19c-.308.317-.677.56-1.106.728a3.807 3.807 0 0 1-1.4.252c-.513 0-.985-.084-1.414-.252a2.922 2.922 0 0 1-1.106-.798c-.308-.355-.551-.803-.728-1.344-.168-.541-.252-1.181-.252-1.918 0-.607.019-1.185.056-1.736a7.504 7.504 0 0 1 .252-1.526c.131-.476.317-.901.56-1.274.252-.383.588-.7 1.008-.952.233-.14.476-.243.728-.308.252-.075.504-.131.756-.168a7.41 7.41 0 0 1 .784-.07l.77-.028c.373-.028.686-.075.938-.14.252-.065.476-.154.672-.266v1.12a2.146 2.146 0 0 1-.658.28 9.086 9.086 0 0 1-.826.126 57.56 57.56 0 0 1-1.47.112c-.439.019-.84.121-1.204.308a2.172 2.172 0 0 0-.994 1.176c-.187.513-.303 1.125-.35 1.834.485-1.12 1.4-1.68 2.744-1.68.457 0 .882.084 1.274.252.401.159.747.397 1.036.714.299.317.532.709.7 1.176.168.457.252.985.252 1.582Zm-3.528 2.674a2.5 2.5 0 0 0 .896-.154 2.04 2.04 0 0 0 .728-.49c.205-.224.364-.504.476-.84.112-.336.168-.733.168-1.19 0-.457-.056-.854-.168-1.19a2.17 2.17 0 0 0-.476-.826 1.831 1.831 0 0 0-.728-.49 2.322 2.322 0 0 0-.896-.168c-.644 0-1.181.215-1.61.644-.42.429-.63 1.092-.63 1.988 0 .467.056.873.168 1.218.112.336.266.616.462.84.205.224.443.392.714.504a2.5 2.5 0 0 0 .896.154Zm8.052 1.106c-.495 0-.957-.084-1.386-.252a3.224 3.224 0 0 1-1.12-.728 3.542 3.542 0 0 1-.728-1.19c-.178-.467-.266-1.003-.266-1.61 0-.597.088-1.129.266-1.596.177-.476.42-.873.728-1.19.317-.317.69-.56 1.12-.728a3.767 3.767 0 0 1 1.386-.252c.504 0 .97.084 1.4.252.429.168.798.411 1.106.728.317.317.564.714.742 1.19.186.467.28.999.28 1.596 0 .607-.094 1.143-.28 1.61a3.448 3.448 0 0 1-.742 1.19c-.308.317-.677.56-1.106.728-.43.168-.896.252-1.4.252Zm0-1.106c.326 0 .625-.051.896-.154.28-.112.522-.275.728-.49.205-.224.364-.504.476-.84.112-.336.168-.733.168-1.19 0-.457-.056-.854-.168-1.19a2.17 2.17 0 0 0-.476-.826 1.838 1.838 0 0 0-.728-.49 2.325 2.325 0 0 0-.896-.168c-.327 0-.626.056-.896.168a1.849 1.849 0 0 0-.714.49c-.196.215-.35.49-.462.826a3.775 3.775 0 0 0-.168 1.19c0 .457.056.854.168 1.19.112.336.266.616.462.84.205.215.443.378.714.49.27.103.569.154.896.154Zm7.75-5.25V432h-1.232v-6.216h-2.282v-1.05h5.838v1.05h-2.324Zm9.122 3.794c0 .42-.075.784-.224 1.092-.149.308-.359.56-.63.756a2.776 2.776 0 0 1-.966.434c-.373.093-.779.14-1.218.14h-2.338v-7.266h1.232v2.534h1.19c.924 0 1.647.182 2.17.546.523.364.784.952.784 1.764Zm2.282 2.422h-1.232v-7.266h1.232V432Zm-6.426-3.682v2.632h1.106c.532 0 .961-.098 1.288-.294.336-.205.504-.541.504-1.008 0-.476-.149-.817-.448-1.022-.299-.205-.719-.308-1.26-.308h-1.19Z"/>
    <path stroke="#262626" stroke-width="2" d="M105 383a1 1 0 0 1 1-1h17a1 1 0 0 1 1 1v9a9 9 0 0 1-9 9h-1a9 9 0 0 1-9-9v-9Z"/>
    <path stroke="#262626" stroke-linecap="round" stroke-width="2" d="M124.5 390h5m-6.5 7.25 2.5 3.33m-1.25-17.08 3.33-2.5m-23 2.5-3.33-2.5m5.25 16.25-2.5 3.33M100 390h5m2-11v0c2.94-5.879 11.287-5.997 14.391-.203l.109.203"/>
    <rect width="156" height="60" x="274" y="212" fill="#EEF3FE" rx="8"/>
    <path fill="#262626" d="M348.174 246h-1.656l-1.896-6.648-1.908 6.648h-1.668l-1.896-8.604h1.176l1.632 7.632 2.208-7.632h1.032l2.16 7.488 1.62-7.488h1.092L348.174 246Zm5.087-8.604h1.68l3.084 8.604h-1.2l-.888-2.46h-3.804l-.876 2.46h-1.056l3.06-8.604Zm2.316 5.124-1.536-4.284-1.536 4.284h3.072Zm3.701-5.124h5.256v1.032h-4.128v2.856h3.504v1.02h-3.504V246h-1.128v-8.604Z"/>
    <rect width="154" height="100" x="275" y="349" fill="#fff" rx="7"/>
    <rect width="154" height="100" x="275" y="349" stroke="#5282FF" stroke-width="2" rx="7"/>
    <rect width="19" height="26" x="310" y="391" stroke="#262626" stroke-linecap="round" stroke-linejoin="round" stroke-width="2" rx="3" transform="rotate(-90 310 391)"/>
    <path stroke="#262626" stroke-width="2" d="m311 373 10.759 8.517a1.999 1.999 0 0 0 2.482 0L335 373"/>
    <rect width="7" height="5" x="384.986" y="368.414" stroke="#262626" stroke-width="2" rx="1" transform="rotate(45.598 384.986 368.414)"/>
    <circle cx="377" cy="380" r="10" fill="#fff" stroke="#262626" stroke-width="2"/>
    <path fill="#262626" d="M390.207 369.207a.999.999 0 1 0-1.414-1.414l1.414 1.414Zm-2 2 2-2-1.414-1.414-2 2 1.414 1.414Z"/>
    <path stroke="#262626" stroke-width="2" d="M311 404a1 1 0 0 1 1-1h22a1 1 0 0 1 1 1v13c0 6.627-5.373 12-12 12s-12-5.373-12-12v-13Z"/>
    <path stroke="#262626" stroke-linecap="round" stroke-width="2" d="M314 412h5m-5 4v0a3.535 3.535 0 0 0 5 0v0m8 0v0a3.535 3.535 0 0 0 5 0v0m-5-4h5m-9 17v-3.5"/>
    <path stroke="#262626" stroke-width="2" d="M369 411a1 1 0 0 1 1-1h17a1 1 0 0 1 1 1v9a9 9 0 0 1-9 9h-1a9 9 0 0 1-9-9v-9Z"/>
    <path stroke="#262626" stroke-linecap="round" stroke-width="2" d="M388.5 418h5m-6.5 7.25 2.5 3.33m-1.25-17.08 3.33-2.5m-23 2.5-3.33-2.5m5.25 16.25-2.5 3.33M364 418h5m2-11v0c2.94-5.879 11.287-5.997 14.391-.203l.109.203"/>
    <rect width="151" height="130" x="512" y="159" fill="#fff" rx="7"/>
    <rect width="151" height="130" x="512" y="159" stroke="#5282FF" stroke-width="2" rx="7"/>
    <path fill="#262626" d="M565.306 256.12a4.512 4.512 0 0 1-1.62-.288c-.504-.2-.94-.488-1.308-.864a4.092 4.092 0 0 1-.876-1.392c-.208-.552-.312-1.188-.312-1.908s.104-1.352.312-1.896c.216-.552.508-1.008.876-1.368a3.543 3.543 0 0 1 1.308-.828 4.512 4.512 0 0 1 1.62-.288c.584 0 1.128.096 1.632.288.504.184.94.46 1.308.828.368.368.656.828.864 1.38.208.544.312 1.176.312 1.896 0 .712-.104 1.344-.312 1.896a3.95 3.95 0 0 1-.864 1.392 3.734 3.734 0 0 1-1.308.864 4.546 4.546 0 0 1-1.632.288Zm0-1.02c.416 0 .8-.06 1.152-.18.352-.128.656-.324.912-.588.264-.272.468-.624.612-1.056.152-.432.228-.956.228-1.572 0-.616-.076-1.14-.228-1.572-.144-.432-.348-.78-.612-1.044a2.217 2.217 0 0 0-.912-.588 3.347 3.347 0 0 0-1.152-.192c-.416 0-.8.064-1.152.192-.352.12-.66.316-.924.588-.256.264-.46.612-.612 1.044-.144.432-.216.956-.216 1.572 0 .616.072 1.14.216 1.572.152.432.356.784.612 1.056.264.264.572.46.924.588.352.12.736.18 1.152.18Zm11.094-2.22c0 .52-.08.98-.24 1.38-.152.4-.364.74-.636 1.02-.264.272-.58.48-.948.624a3.265 3.265 0 0 1-1.2.216c-.44 0-.844-.072-1.212-.216a2.509 2.509 0 0 1-.948-.684c-.264-.304-.472-.688-.624-1.152-.144-.464-.216-1.012-.216-1.644 0-.52.016-1.016.048-1.488s.104-.908.216-1.308c.112-.408.272-.772.48-1.092a2.644 2.644 0 0 1 1.488-1.08c.216-.064.432-.112.648-.144.224-.032.448-.052.672-.06l.66-.024c.32-.024.588-.064.804-.12a2.34 2.34 0 0 0 .576-.228v.96a1.847 1.847 0 0 1-.564.24c-.192.04-.428.076-.708.108-.456.04-.876.072-1.26.096-.376.016-.72.104-1.032.264-.4.224-.684.56-.852 1.008-.16.44-.26.964-.3 1.572.416-.96 1.2-1.44 2.352-1.44.392 0 .756.072 1.092.216.344.136.64.34.888.612.256.272.456.608.6 1.008.144.392.216.844.216 1.356Zm-3.024 2.292c.28 0 .536-.044.768-.132.24-.096.448-.236.624-.42.176-.192.312-.432.408-.72.096-.288.144-.628.144-1.02s-.048-.732-.144-1.02a1.855 1.855 0 0 0-.408-.708 1.569 1.569 0 0 0-.624-.42 1.99 1.99 0 0 0-.768-.144c-.552 0-1.012.184-1.38.552-.36.368-.54.936-.54 1.704 0 .4.048.748.144 1.044.096.288.228.528.396.72.176.192.38.336.612.432.232.088.488.132.768.132Zm8.953-1.248c0 .36-.064.672-.192.936s-.308.48-.54.648a2.38 2.38 0 0 1-.828.372c-.32.08-.668.12-1.044.12h-2.004v-6.228h1.056v2.172h1.02c.792 0 1.412.156 1.86.468.448.312.672.816.672 1.512Zm1.956 2.076h-1.056v-6.228h1.056V256Zm-5.508-3.156v2.256h.948c.456 0 .824-.084 1.104-.252.288-.176.432-.464.432-.864 0-.408-.128-.7-.384-.876-.256-.176-.616-.264-1.08-.264h-1.02ZM590.842 256h-1.056v-2.736c-.216.168-.468.3-.756.396-.28.088-.6.132-.96.132-.704 0-1.244-.172-1.62-.516-.368-.352-.552-.912-.552-1.68v-1.824h1.068v1.836c0 .488.112.828.336 1.02.224.192.54.288.948.288.28 0 .552-.04.816-.12.264-.08.504-.204.72-.372v-2.652h1.056V256Zm5.795-2.76h-3.012V256h-1.056v-6.228h1.056v2.568h3.012v-2.568h1.056V256h-1.056v-2.76Zm7.396.684c0 .36-.064.672-.192.936s-.308.48-.54.648a2.38 2.38 0 0 1-.828.372c-.32.08-.668.12-1.044.12h-2.004v-6.228h1.056v2.172h1.02c.792 0 1.412.156 1.86.468.448.312.672.816.672 1.512Zm1.956 2.076h-1.056v-6.228h1.056V256Zm-5.508-3.156v2.256h.948c.456 0 .824-.084 1.104-.252.288-.176.432-.464.432-.864 0-.408-.128-.7-.384-.876-.256-.176-.616-.264-1.08-.264h-1.02Zm12.196 2.628a3.344 3.344 0 0 1-.324.204 3.758 3.758 0 0 1-.468.216 3.946 3.946 0 0 1-.624.156 3.864 3.864 0 0 1-.78.072c-1.048 0-1.844-.284-2.388-.852-.544-.568-.816-1.364-.816-2.388 0-.504.072-.956.216-1.356.152-.4.36-.736.624-1.008.264-.28.576-.492.936-.636.36-.152.752-.228 1.176-.228a3 3 0 0 1 1.2.228c.352.152.64.376.864.672.232.296.388.664.468 1.104.088.432.088.936 0 1.512h-4.392c.04.672.24 1.176.6 1.512.36.328.896.492 1.608.492.48 0 .892-.068 1.236-.204a4.33 4.33 0 0 0 .864-.444v.948Zm-2.472-4.884c-.456 0-.848.14-1.176.42-.328.28-.536.704-.624 1.272h3.348c.032-.576-.1-1-.396-1.272-.296-.28-.68-.42-1.152-.42Zm-54.685 13.184h4.992V270h-1.056v-5.328h-2.88V270h-1.056v-6.228Zm9.271 6.348c-.424 0-.82-.072-1.188-.216a2.767 2.767 0 0 1-.96-.624 3.04 3.04 0 0 1-.624-1.02c-.152-.4-.228-.86-.228-1.38 0-.512.076-.968.228-1.368a2.89 2.89 0 0 1 .624-1.02c.272-.272.592-.48.96-.624a3.231 3.231 0 0 1 1.188-.216c.432 0 .832.072 1.2.216.368.144.684.352.948.624.272.272.484.612.636 1.02.16.4.24.856.24 1.368 0 .52-.08.98-.24 1.38-.152.4-.364.74-.636 1.02-.264.272-.58.48-.948.624a3.265 3.265 0 0 1-1.2.216Zm0-.948c.28 0 .536-.044.768-.132.24-.096.448-.236.624-.42.176-.192.312-.432.408-.72.096-.288.144-.628.144-1.02s-.048-.732-.144-1.02a1.855 1.855 0 0 0-.408-.708 1.569 1.569 0 0 0-.624-.42 1.99 1.99 0 0 0-.768-.144c-.28 0-.536.048-.768.144a1.586 1.586 0 0 0-.612.42c-.168.184-.3.42-.396.708a3.234 3.234 0 0 0-.144 1.02c0 .392.048.732.144 1.02.096.288.228.528.396.72.176.184.38.324.612.42.232.088.488.132.768.132Zm6.999.948a3.77 3.77 0 0 1-1.308-.216 2.861 2.861 0 0 1-.984-.636c-.272-.28-.48-.62-.624-1.02a4.024 4.024 0 0 1-.216-1.368c0-.504.072-.956.216-1.356.152-.4.364-.736.636-1.008a2.63 2.63 0 0 1 .996-.636 3.662 3.662 0 0 1 1.332-.228c.384 0 .736.044 1.056.132.32.08.584.2.792.36v.948a2.798 2.798 0 0 0-.864-.372 3.563 3.563 0 0 0-.972-.132c-.728 0-1.264.188-1.608.564-.336.376-.504.952-.504 1.728s.164 1.352.492 1.728c.328.376.848.564 1.56.564.376 0 .72-.044 1.032-.132.32-.096.608-.216.864-.36v.948a3.678 3.678 0 0 1-1.896.492Zm8.268-.648a3.344 3.344 0 0 1-.324.204 3.758 3.758 0 0 1-.468.216 3.946 3.946 0 0 1-.624.156 3.864 3.864 0 0 1-.78.072c-1.048 0-1.844-.284-2.388-.852-.544-.568-.816-1.364-.816-2.388 0-.504.072-.956.216-1.356.152-.4.36-.736.624-1.008.264-.28.576-.492.936-.636.36-.152.752-.228 1.176-.228a3 3 0 0 1 1.2.228c.352.152.64.376.864.672.232.296.388.664.468 1.104.088.432.088.936 0 1.512h-4.392c.04.672.24 1.176.6 1.512.36.328.896.492 1.608.492.48 0 .892-.068 1.236-.204a4.33 4.33 0 0 0 .864-.444v.948Zm-2.472-4.884c-.456 0-.848.14-1.176.42-.328.28-.536.704-.624 1.272h3.348c.032-.576-.1-1-.396-1.272-.296-.28-.68-.42-1.152-.42Zm6.423.084V270h-1.056v-5.328h-1.956v-.9h5.004v.9h-1.992Zm4.266 3.888 3.324-4.788h1.068V270h-1.056v-4.776L588.299 270h-1.08v-6.228h1.056v4.788Zm8.624-3.888V270h-1.056v-5.328h-1.956v-.9h5.004v.9h-1.992Zm7.991 4.8a3.344 3.344 0 0 1-.324.204 3.758 3.758 0 0 1-.468.216 3.946 3.946 0 0 1-.624.156 3.864 3.864 0 0 1-.78.072c-1.048 0-1.844-.284-2.388-.852-.544-.568-.816-1.364-.816-2.388 0-.504.072-.956.216-1.356.152-.4.36-.736.624-1.008.264-.28.576-.492.936-.636.36-.152.752-.228 1.176-.228a3 3 0 0 1 1.2.228c.352.152.64.376.864.672.232.296.388.664.468 1.104.088.432.088.936 0 1.512h-4.392c.04.672.24 1.176.6 1.512.36.328.896.492 1.608.492.48 0 .892-.068 1.236-.204a4.33 4.33 0 0 0 .864-.444v.948Zm-2.472-4.884c-.456 0-.848.14-1.176.42-.328.28-.536.704-.624 1.272h3.348c.032-.576-.1-1-.396-1.272-.296-.28-.68-.42-1.152-.42Zm4.453 3.48c.112-.408.184-.96.216-1.656s.048-1.576.048-2.64h4.188V270h-1.068v-5.328h-2.124a36.75 36.75 0 0 1-.084 2.28c-.04.664-.132 1.224-.276 1.68-.136.456-.34.804-.612 1.044-.264.232-.62.348-1.068.348h-.096a.556.556 0 0 1-.108-.012v-1.044c.04.008.092.012.156.012.408 0 .684-.304.828-.912Zm7.221.492 3.324-4.788h1.068V270h-1.056v-4.776L614.116 270h-1.08v-6.228h1.056v4.788Z"/>
    <path stroke="#262626" stroke-width="2" d="M592 218.34c0 1.563-.494 3.276-1.392 4.573-.889 1.284-2.111 2.087-3.608 2.087-1.497 0-2.719-.803-3.608-2.087-.898-1.297-1.392-3.01-1.392-4.573 0-3.002 2.29-5.34 5-5.34s5 2.338 5 5.34Zm-18 18.226c0-2.252 1.315-4.368 3.663-5.963 2.345-1.595 5.642-2.603 9.337-2.603 3.695 0 6.992 1.008 9.337 2.603 2.348 1.595 3.663 3.711 3.663 5.963a2.434 2.434 0 0 1-2.434 2.434h-21.132a2.434 2.434 0 0 1-2.434-2.434Z"/>
    <path fill="#262626" d="M542.469 176.396h2.928c1.024 0 1.804.16 2.34.48.536.32.804.86.804 1.62 0 .312-.044.584-.132.816-.088.224-.216.42-.384.588-.16.16-.356.292-.588.396a3.597 3.597 0 0 1-.768.24c.72.088 1.264.284 1.632.588.368.304.552.768.552 1.392 0 .448-.088.832-.264 1.152-.176.312-.42.568-.732.768-.312.192-.68.336-1.104.432a6.792 6.792 0 0 1-1.38.132h-2.904v-8.604Zm1.452 1.26v2.292h1.548c.48 0 .868-.1 1.164-.3.296-.208.444-.532.444-.972 0-.4-.136-.668-.408-.804-.264-.144-.64-.216-1.128-.216h-1.62Zm0 3.54v2.556h1.596c.272 0 .52-.02.744-.06.224-.048.416-.12.576-.216a1.1 1.1 0 0 0 .372-.396c.088-.168.132-.372.132-.612 0-.472-.156-.8-.468-.984-.304-.192-.796-.288-1.476-.288h-1.476Zm9.843 2.712a2.09 2.09 0 0 1-.264.432 1.857 1.857 0 0 1-.396.396 1.98 1.98 0 0 1-.552.276 2.393 2.393 0 0 1-.756.108c-.272 0-.524-.04-.756-.12a1.692 1.692 0 0 1-.612-.336 1.734 1.734 0 0 1-.408-.564 2.056 2.056 0 0 1-.144-.792c0-.68.252-1.188.756-1.524.504-.344 1.216-.516 2.136-.516h.948v-.384c0-.408-.104-.688-.312-.84-.208-.16-.552-.24-1.032-.24-.408 0-.792.06-1.152.18a5.066 5.066 0 0 0-.936.396v-1.164a5.05 5.05 0 0 1 .984-.384c.408-.12.852-.18 1.332-.18.8 0 1.416.168 1.848.504.44.328.66.856.66 1.584v3.504c.008.088.012.18.012.276l.024.276c.008.08.016.148.024.204h-1.284a5.482 5.482 0 0 1-.072-.468c-.016-.2-.028-.38-.036-.54l-.012-.084Zm-1.584.132c.296 0 .54-.06.732-.18.2-.128.36-.272.48-.432.12-.168.204-.332.252-.492.048-.16.072-.272.072-.336v-.42h-.864c-.552 0-.956.088-1.212.264a.81.81 0 0 0-.384.72c0 .272.076.488.228.648.16.152.392.228.696.228Zm12.47.96h-8.04v-6.228h1.392v5.1h1.932v-5.1h1.392v5.1h1.92v-5.1h1.404V185Zm4.194-6.228h2.544c1.576 0 2.364.52 2.364 1.56 0 .384-.108.688-.324.912-.208.216-.516.38-.924.492.504.072.88.228 1.128.468.248.24.372.58.372 1.02 0 .304-.064.568-.192.792a1.55 1.55 0 0 1-.54.552c-.224.144-.5.252-.828.324a5.04 5.04 0 0 1-1.08.108h-2.52v-6.228Zm1.38 1.068v1.476h1.02c.336 0 .608-.06.816-.18a.612.612 0 0 0 .312-.552c0-.28-.092-.472-.276-.576-.176-.112-.436-.168-.78-.168h-1.092Zm0 2.46v1.632h1.068c.384 0 .692-.056.924-.168.24-.112.36-.32.36-.624s-.108-.52-.324-.648c-.208-.128-.54-.192-.996-.192h-1.032Zm10.356 2.244c-.088.056-.196.12-.324.192-.128.064-.28.124-.456.18a4.628 4.628 0 0 1-1.404.204c-1.144 0-2-.284-2.568-.852-.56-.568-.84-1.364-.84-2.388 0-.504.076-.956.228-1.356.152-.4.364-.736.636-1.008.272-.28.596-.492.972-.636a3.268 3.268 0 0 1 1.236-.228c.464 0 .88.076 1.248.228.376.152.684.38.924.684.24.304.404.68.492 1.128.096.448.1.972.012 1.572h-4.308c.056.568.244.996.564 1.284.32.28.82.42 1.5.42.496 0 .908-.06 1.236-.18.336-.128.62-.26.852-.396v1.152Zm-2.52-4.788c-.408 0-.752.124-1.032.372s-.464.616-.552 1.104h2.928c.016-.504-.096-.876-.336-1.116-.24-.24-.576-.36-1.008-.36Zm9.812 2.148c0 .52-.08.98-.24 1.38-.16.4-.38.736-.66 1.008-.272.272-.6.48-.984.624a3.573 3.573 0 0 1-1.224.204c-.448 0-.86-.076-1.236-.228-.376-.152-.7-.38-.972-.684a3.488 3.488 0 0 1-.648-1.152c-.152-.464-.228-1.008-.228-1.632 0-.568.024-1.088.072-1.56.048-.472.128-.896.24-1.272.12-.376.28-.704.48-.984.2-.288.456-.536.768-.744.368-.232.76-.38 1.176-.444a11.47 11.47 0 0 1 1.296-.12c.488-.024.856-.064 1.104-.12.248-.064.46-.144.636-.24v1.236a1.81 1.81 0 0 1-.276.144c-.096.032-.208.06-.336.084-.128.024-.276.048-.444.072-.168.016-.364.032-.588.048-.408.04-.78.08-1.116.12a2.004 2.004 0 0 0-.9.3 1.82 1.82 0 0 0-.672.864c-.144.368-.24.816-.288 1.344.4-.904 1.172-1.356 2.316-1.356.368 0 .716.072 1.044.216.336.136.628.336.876.6.248.264.444.588.588.972.144.384.216.824.216 1.32Zm-3.108 2.052c.488 0 .888-.164 1.2-.492.32-.336.48-.848.48-1.536 0-.688-.16-1.196-.48-1.524-.312-.336-.712-.504-1.2-.504-.48 0-.876.164-1.188.492-.304.328-.456.832-.456 1.512 0 .704.156 1.224.468 1.56.312.328.704.492 1.176.492Zm4.292-3.228h2.94v1.188h-2.94v-1.188Zm7.383 4.392c-.504 0-.956-.072-1.356-.216-.4-.152-.74-.364-1.02-.636-.28-.28-.496-.62-.648-1.02a3.832 3.832 0 0 1-.228-1.368c0-.504.076-.956.228-1.356a2.71 2.71 0 0 1 1.68-1.644 3.895 3.895 0 0 1 1.368-.228c.432 0 .808.048 1.128.144.328.096.588.216.78.36v1.152a3.154 3.154 0 0 0-.816-.372 3.46 3.46 0 0 0-1.008-.132c-1.288 0-1.932.692-1.932 2.076 0 1.384.632 2.076 1.896 2.076.408 0 .756-.044 1.044-.132a4.2 4.2 0 0 0 .816-.36v1.152a3.384 3.384 0 0 1-.78.36c-.312.096-.696.144-1.152.144Zm8.422-.576c-.088.056-.196.12-.324.192-.128.064-.28.124-.456.18a4.628 4.628 0 0 1-1.404.204c-1.144 0-2-.284-2.568-.852-.56-.568-.84-1.364-.84-2.388 0-.504.076-.956.228-1.356.152-.4.364-.736.636-1.008.272-.28.596-.492.972-.636a3.268 3.268 0 0 1 1.236-.228c.464 0 .88.076 1.248.228.376.152.684.38.924.684.24.304.404.68.492 1.128.096.448.1.972.012 1.572h-4.308c.056.568.244.996.564 1.284.32.28.82.42 1.5.42.496 0 .908-.06 1.236-.18.336-.128.62-.26.852-.396v1.152Zm-2.52-4.788c-.408 0-.752.124-1.032.372s-.464.616-.552 1.104h2.928c.016-.504-.096-.876-.336-1.116-.24-.24-.576-.36-1.008-.36Zm7.4 5.364c-.472 0-.88-.104-1.224-.312a2.489 2.489 0 0 1-.816-.864v3.18h-1.392v-8.352h1.272l.096 1.104c.208-.376.484-.672.828-.888.344-.224.764-.336 1.26-.336.368 0 .716.068 1.044.204.336.128.628.328.876.6.248.264.444.6.588 1.008.152.4.228.872.228 1.416 0 .552-.076 1.032-.228 1.44-.144.4-.344.736-.6 1.008-.248.264-.54.464-.876.6a2.941 2.941 0 0 1-1.056.192Zm-.336-1.164c.496 0 .896-.168 1.2-.504.312-.344.468-.868.468-1.572 0-.696-.156-1.216-.468-1.56-.304-.344-.7-.516-1.188-.516-.248 0-.476.044-.684.132-.208.08-.392.208-.552.384a1.93 1.93 0 0 0-.36.66 2.771 2.771 0 0 0-.132.9c0 .352.044.66.132.924.088.256.208.472.36.648.152.168.332.296.54.384.216.08.444.12.684.12Zm4.275-5.184h2.544c1.576 0 2.364.52 2.364 1.56 0 .384-.108.688-.324.912-.208.216-.516.38-.924.492.504.072.88.228 1.128.468.248.24.372.58.372 1.02 0 .304-.064.568-.192.792a1.55 1.55 0 0 1-.54.552c-.224.144-.5.252-.828.324a5.04 5.04 0 0 1-1.08.108h-2.52v-6.228Zm1.38 1.068v1.476h1.02c.336 0 .608-.06.816-.18a.612.612 0 0 0 .312-.552c0-.28-.092-.472-.276-.576-.176-.112-.436-.168-.78-.168h-1.092Zm0 2.46v1.632h1.068c.384 0 .692-.056.924-.168.24-.112.36-.32.36-.624s-.108-.52-.324-.648c-.208-.128-.54-.192-.996-.192h-1.032Zm10.356 2.244c-.088.056-.196.12-.324.192-.128.064-.28.124-.456.18a4.628 4.628 0 0 1-1.404.204c-1.144 0-2-.284-2.568-.852-.56-.568-.84-1.364-.84-2.388 0-.504.076-.956.228-1.356.152-.4.364-.736.636-1.008.272-.28.596-.492.972-.636a3.268 3.268 0 0 1 1.236-.228c.464 0 .88.076 1.248.228.376.152.684.38.924.684.24.304.404.68.492 1.128.096.448.1.972.012 1.572h-4.308c.056.568.244.996.564 1.284.32.28.82.42 1.5.42.496 0 .908-.06 1.236-.18.336-.128.62-.26.852-.396v1.152Zm-2.52-4.788c-.408 0-.752.124-1.032.372s-.464.616-.552 1.104h2.928c.016-.504-.096-.876-.336-1.116-.24-.24-.576-.36-1.008-.36Zm7.4 5.364c-.472 0-.88-.104-1.224-.312a2.489 2.489 0 0 1-.816-.864v3.18h-1.392v-8.352h1.272l.096 1.104c.208-.376.484-.672.828-.888.344-.224.764-.336 1.26-.336.368 0 .716.068 1.044.204.336.128.628.328.876.6.248.264.444.6.588 1.008.152.4.228.872.228 1.416 0 .552-.076 1.032-.228 1.44-.144.4-.344.736-.6 1.008-.248.264-.54.464-.876.6a2.941 2.941 0 0 1-1.056.192Zm-.336-1.164c.496 0 .896-.168 1.2-.504.312-.344.468-.868.468-1.572 0-.696-.156-1.216-.468-1.56-.304-.344-.7-.516-1.188-.516-.248 0-.476.044-.684.132-.208.08-.392.208-.552.384a1.93 1.93 0 0 0-.36.66 2.771 2.771 0 0 0-.132.9c0 .352.044.66.132.924.088.256.208.472.36.648.152.168.332.296.54.384.216.08.444.12.684.12Z"/>
</svg>
