<svg xmlns="http://www.w3.org/2000/svg" width="700" height="540" fill="none" viewBox="0 0 700 540">
    <rect width="130" height="18" x="281" y="28" fill="#fff" rx="4"/>
    <rect width="401" height="466" x="149" y="69" fill="#fff" rx="7"/>
    <rect width="401" height="466" x="149" y="69" stroke="#FFF2BF" stroke-width="2" rx="7"/>
    <rect width="222" height="135" x="235" y="145" fill="#fff" rx="7"/>
    <rect width="222" height="135" x="235" y="145" stroke="#5282FF" stroke-width="2" rx="7"/>
    <path fill="#262626" d="M285.794 106.962h3.416c1.194 0 2.104.187 2.73.56.625.373.938 1.003.938 1.89 0 .364-.052.681-.154.952-.103.261-.252.49-.448.686a2.272 2.272 0 0 1-.686.462c-.271.121-.57.215-.896.28.84.103 1.474.331 1.904.686.429.355.644.896.644 1.624 0 .523-.103.971-.308 1.344-.206.364-.49.663-.854.896a4.225 4.225 0 0 1-1.288.504 7.907 7.907 0 0 1-1.61.154h-3.388v-10.038Zm1.694 1.47v2.674h1.806c.56 0 1.012-.117 1.358-.35.345-.243.518-.621.518-1.134 0-.467-.159-.779-.476-.938-.308-.168-.747-.252-1.316-.252h-1.89Zm0 4.13v2.982h1.862c.317 0 .606-.023.868-.07.261-.056.485-.14.672-.252.186-.121.331-.275.434-.462a1.53 1.53 0 0 0 .154-.714c0-.551-.182-.933-.546-1.148-.355-.224-.929-.336-1.722-.336h-1.722Zm10.45-1.512V117h-1.624v-5.95h-2.198v-1.316h6.062v1.316h-2.24Zm6.451 6.09c-.513 0-.989-.084-1.428-.252a3.35 3.35 0 0 1-1.148-.728 3.617 3.617 0 0 1-.756-1.19c-.177-.467-.266-1.003-.266-1.61 0-.607.089-1.143.266-1.61.187-.467.439-.859.756-1.176a3.09 3.09 0 0 1 1.148-.728 3.962 3.962 0 0 1 1.428-.252c.513 0 .989.084 1.428.252a3.09 3.09 0 0 1 1.148.728c.327.317.583.709.77 1.176.187.467.28 1.003.28 1.61 0 .607-.093 1.143-.28 1.61a3.494 3.494 0 0 1-.77 1.19 3.35 3.35 0 0 1-1.148.728 3.962 3.962 0 0 1-1.428.252Zm0-1.358c.56 0 1.022-.196 1.386-.588.373-.392.56-1.003.56-1.834 0-.821-.187-1.428-.56-1.82-.364-.401-.826-.602-1.386-.602-.551 0-1.013.201-1.386.602-.364.392-.546.999-.546 1.82 0 .831.182 1.442.546 1.834.373.392.835.588 1.386.588Zm8.989 1.358c-.551 0-1.027-.121-1.428-.364a2.906 2.906 0 0 1-.952-1.008v3.71h-1.624v-9.744h1.484l.112 1.288c.243-.439.565-.784.966-1.036.401-.261.891-.392 1.47-.392.429 0 .835.079 1.218.238.392.149.733.383 1.022.7.289.308.518.7.686 1.176.177.467.266 1.017.266 1.652 0 .644-.089 1.204-.266 1.68a3.33 3.33 0 0 1-.7 1.176c-.289.308-.63.541-1.022.7a3.44 3.44 0 0 1-1.232.224Zm-.392-1.358c.579 0 1.045-.196 1.4-.588.364-.401.546-1.013.546-1.834 0-.812-.182-1.419-.546-1.82-.355-.401-.817-.602-1.386-.602-.289 0-.555.051-.798.154a1.678 1.678 0 0 0-.644.448 2.26 2.26 0 0 0-.42.77 3.227 3.227 0 0 0-.154 1.05c0 .411.051.77.154 1.078.103.299.243.551.42.756.177.196.387.345.63.448.252.093.518.14.798.14Zm8.137 1.358c-.513 0-.989-.084-1.428-.252a3.36 3.36 0 0 1-1.148-.728 3.617 3.617 0 0 1-.756-1.19c-.177-.467-.266-1.003-.266-1.61 0-.607.089-1.143.266-1.61.187-.467.439-.859.756-1.176.327-.327.71-.569 1.148-.728a3.962 3.962 0 0 1 1.428-.252c.514 0 .99.084 1.428.252.439.159.822.401 1.148.728.327.317.584.709.77 1.176.187.467.28 1.003.28 1.61 0 .607-.093 1.143-.28 1.61a3.479 3.479 0 0 1-.77 1.19 3.34 3.34 0 0 1-1.148.728 3.955 3.955 0 0 1-1.428.252Zm0-1.358c.56 0 1.022-.196 1.386-.588.374-.392.56-1.003.56-1.834 0-.821-.186-1.428-.56-1.82-.364-.401-.826-.602-1.386-.602a1.82 1.82 0 0 0-1.386.602c-.364.392-.546.999-.546 1.82 0 .831.182 1.442.546 1.834a1.84 1.84 0 0 0 1.386.588Zm11.061.686c-.102.065-.228.14-.378.224a3.598 3.598 0 0 1-.532.21 5.432 5.432 0 0 1-1.638.238c-1.334 0-2.333-.331-2.996-.994-.653-.663-.98-1.591-.98-2.786 0-.588.089-1.115.266-1.582.178-.467.425-.859.742-1.176a3.117 3.117 0 0 1 1.134-.742c.439-.177.92-.266 1.442-.266.542 0 1.027.089 1.456.266.439.177.798.443 1.078.798.28.355.472.793.574 1.316.112.523.117 1.134.014 1.834h-5.026c.066.663.285 1.162.658 1.498.374.327.957.49 1.75.49.579 0 1.06-.07 1.442-.21.392-.149.724-.303.994-.462v1.344Zm-2.94-5.586c-.476 0-.877.145-1.204.434-.326.289-.541.719-.644 1.288h3.416c.019-.588-.112-1.022-.392-1.302s-.672-.42-1.176-.42Zm7.706-1.148h6.174V117H341.5v-5.95h-2.926V117h-1.624v-7.266Zm11.148 7.406c-.513 0-.989-.084-1.428-.252a3.35 3.35 0 0 1-1.148-.728 3.617 3.617 0 0 1-.756-1.19c-.177-.467-.266-1.003-.266-1.61 0-.607.089-1.143.266-1.61.187-.467.439-.859.756-1.176a3.09 3.09 0 0 1 1.148-.728 3.962 3.962 0 0 1 1.428-.252c.513 0 .989.084 1.428.252a3.09 3.09 0 0 1 1.148.728c.327.317.583.709.77 1.176.187.467.28 1.003.28 1.61 0 .607-.093 1.143-.28 1.61a3.494 3.494 0 0 1-.77 1.19 3.35 3.35 0 0 1-1.148.728 3.962 3.962 0 0 1-1.428.252Zm0-1.358c.56 0 1.022-.196 1.386-.588.373-.392.56-1.003.56-1.834 0-.821-.187-1.428-.56-1.82-.364-.401-.826-.602-1.386-.602-.551 0-1.013.201-1.386.602-.364.392-.546.999-.546 1.82 0 .831.182 1.442.546 1.834.373.392.835.588 1.386.588Zm7.239-1.736h-.63V117h-1.624v-7.266h1.624v2.996h.686l2.31-2.996h1.708l-2.744 3.5 2.856 3.766h-1.918l-2.268-2.954Zm8.074 3.094c-.514 0-.99-.084-1.428-.252a3.34 3.34 0 0 1-1.148-.728 3.585 3.585 0 0 1-.756-1.19c-.178-.467-.266-1.003-.266-1.61 0-.607.088-1.143.266-1.61.186-.467.438-.859.756-1.176a3.081 3.081 0 0 1 1.148-.728 3.955 3.955 0 0 1 1.428-.252c.513 0 .989.084 1.428.252.438.159.821.401 1.148.728.326.317.583.709.77 1.176.186.467.28 1.003.28 1.61 0 .607-.094 1.143-.28 1.61a3.509 3.509 0 0 1-.77 1.19 3.36 3.36 0 0 1-1.148.728 3.962 3.962 0 0 1-1.428.252Zm0-1.358c.56 0 1.022-.196 1.386-.588.373-.392.56-1.003.56-1.834 0-.821-.187-1.428-.56-1.82-.364-.401-.826-.602-1.386-.602-.551 0-1.013.201-1.386.602-.364.392-.546.999-.546 1.82 0 .831.182 1.442.546 1.834.373.392.835.588 1.386.588Zm5.409-1.358c.103-.476.168-1.092.196-1.848.038-.765.056-1.713.056-2.842h5.222V117h-1.624v-5.95h-2.114a45.177 45.177 0 0 1-.112 2.548c-.056.737-.172 1.363-.35 1.876-.168.504-.415.891-.742 1.162-.317.271-.746.406-1.288.406-.074 0-.149-.005-.224-.014-.065 0-.135-.005-.21-.014v-1.512c.094.019.164.028.21.028a.747.747 0 0 0 .602-.266c.159-.187.285-.467.378-.84Zm13.39 2.044c-.103.065-.229.14-.378.224-.15.075-.327.145-.532.21a5.449 5.449 0 0 1-1.638.238c-1.335 0-2.334-.331-2.996-.994-.654-.663-.98-1.591-.98-2.786 0-.588.088-1.115.266-1.582.177-.467.424-.859.742-1.176a3.1 3.1 0 0 1 1.134-.742 3.815 3.815 0 0 1 1.442-.266c.541 0 1.026.089 1.456.266.438.177.798.443 1.078.798.28.355.471.793.574 1.316.112.523.116 1.134.014 1.834h-5.026c.065.663.284 1.162.658 1.498.373.327.956.49 1.75.49.578 0 1.059-.07 1.442-.21.392-.149.723-.303.994-.462v1.344Zm-2.94-5.586c-.476 0-.878.145-1.204.434-.327.289-.542.719-.644 1.288h3.416c.018-.588-.112-1.022-.392-1.302s-.672-.42-1.176-.42Zm9.319 3.052h-3.066V117h-1.624v-7.266h1.624v2.884h3.066v-2.884h1.624V117h-1.624v-3.066Zm5.055.868 3.36-5.068h1.596V117h-1.61v-5.04l-3.332 5.04h-1.624v-7.266h1.61v5.068Zm12.861 1.666c-.103.065-.229.14-.378.224-.15.075-.327.145-.532.21a5.449 5.449 0 0 1-1.638.238c-1.335 0-2.334-.331-2.996-.994-.654-.663-.98-1.591-.98-2.786 0-.588.088-1.115.266-1.582.177-.467.424-.859.742-1.176a3.1 3.1 0 0 1 1.134-.742 3.815 3.815 0 0 1 1.442-.266c.541 0 1.026.089 1.456.266.438.177.798.443 1.078.798.28.355.471.793.574 1.316.112.523.116 1.134.014 1.834h-5.026c.065.663.284 1.162.658 1.498.373.327.956.49 1.75.49.578 0 1.059-.07 1.442-.21.392-.149.723-.303.994-.462v1.344Zm-2.94-5.586c-.476 0-.878.145-1.204.434-.327.289-.542.719-.644 1.288h3.416c.018-.588-.112-1.022-.392-1.302s-.672-.42-1.176-.42Z"/>
    <rect width="342" height="369" x="179" y="81" stroke="#5282FF" stroke-width="2" rx="7"/>
    <rect width="380" height="60" x="160" y="464" fill="#EEF3FE" rx="8"/>
    <path fill="#262626" d="M263.846 488.962h3.206c1.139 0 2.021.238 2.646.714.635.467.952 1.199.952 2.198 0 .569-.093 1.059-.28 1.47a2.584 2.584 0 0 1-.756.994 3.153 3.153 0 0 1-1.176.574 5.741 5.741 0 0 1-1.498.182h-1.778V499h-1.316v-10.038Zm1.316 1.204v3.738h1.778c.355 0 .677-.037.966-.112.289-.075.537-.191.742-.35.215-.159.378-.364.49-.616.121-.261.182-.574.182-.938 0-.607-.196-1.045-.588-1.316-.392-.271-.952-.406-1.68-.406h-1.89Zm12.569 8.218a3.685 3.685 0 0 1-.378.238 4.34 4.34 0 0 1-.546.252 4.576 4.576 0 0 1-.728.182c-.27.056-.574.084-.91.084-1.222 0-2.151-.331-2.786-.994-.634-.663-.952-1.591-.952-2.786 0-.588.084-1.115.252-1.582.178-.467.42-.859.728-1.176a3.024 3.024 0 0 1 1.092-.742 3.5 3.5 0 0 1 1.372-.266c.523 0 .99.089 1.4.266.411.177.747.439 1.008.784.271.345.453.775.546 1.288.103.504.103 1.092 0 1.764h-5.124c.047.784.28 1.372.7 1.764.42.383 1.046.574 1.876.574.56 0 1.041-.079 1.442-.238a5.015 5.015 0 0 0 1.008-.518v1.106Zm-2.884-5.698c-.532 0-.989.163-1.372.49-.382.327-.625.821-.728 1.484h3.906c.038-.672-.116-1.167-.462-1.484-.345-.327-.793-.49-1.344-.49Zm6.512 3.22h-.644V499h-1.232v-7.266h1.232v3.122h.7l2.548-3.122h1.4l-2.982 3.584 3.038 3.682h-1.498l-2.562-3.094Zm8.994 3.01a8.282 8.282 0 0 1-.532 1.148 3.776 3.776 0 0 1-.63.854 2.248 2.248 0 0 1-.784.518c-.289.121-.62.182-.994.182-.186 0-.359-.014-.518-.042a1.58 1.58 0 0 1-.434-.112v-1.19c.103.075.234.131.392.168.159.047.332.07.518.07.346 0 .63-.084.854-.252.224-.159.439-.415.644-.77l-2.954-7.756h1.358l2.31 6.132 2.296-6.132h1.19l-2.716 7.182Zm7.59.224c-.56 0-1.045-.131-1.456-.392a2.856 2.856 0 0 1-.966-1.078v3.808h-1.232v-9.744h1.078l.126 1.414c.243-.476.57-.854.98-1.134.411-.28.92-.42 1.526-.42.42 0 .822.079 1.204.238.392.149.733.383 1.022.7.299.308.532.7.7 1.176.178.467.266 1.017.266 1.652 0 .644-.088 1.204-.266 1.68a3.494 3.494 0 0 1-.714 1.176 2.992 2.992 0 0 1-1.036.7 3.436 3.436 0 0 1-1.232.224Zm-.182-1.106c.644 0 1.162-.219 1.554-.658.402-.448.602-1.12.602-2.016 0-.877-.2-1.54-.602-1.988-.392-.457-.91-.686-1.554-.686-.317 0-.616.056-.896.168-.27.112-.508.28-.714.504a2.45 2.45 0 0 0-.476.826 3.723 3.723 0 0 0-.168 1.176c0 .448.056.84.168 1.176.122.336.28.616.476.84.206.224.444.392.714.504.28.103.579.154.896.154Zm8.059 1.106c-.56 0-1.069-.084-1.526-.252a3.335 3.335 0 0 1-1.148-.742 3.263 3.263 0 0 1-.728-1.19c-.168-.467-.252-.999-.252-1.596 0-.588.084-1.115.252-1.582.177-.467.424-.859.742-1.176a3.057 3.057 0 0 1 1.162-.742 4.277 4.277 0 0 1 1.554-.266c.448 0 .858.051 1.232.154.373.093.681.233.924.42v1.106a3.263 3.263 0 0 0-1.008-.434 4.145 4.145 0 0 0-1.134-.154c-.85 0-1.475.219-1.876.658-.392.439-.588 1.111-.588 2.016s.191 1.577.574 2.016c.382.439.989.658 1.82.658.438 0 .84-.051 1.204-.154a4.969 4.969 0 0 0 1.008-.42v1.106a4.29 4.29 0 0 1-2.212.574Zm5.096-1.82 3.878-5.586h1.246V499h-1.232v-5.572L310.944 499h-1.26v-7.266h1.232v5.586Zm7.135-5.586h2.716c.877 0 1.54.154 1.988.462.448.299.672.77.672 1.414 0 .429-.112.775-.336 1.036-.215.252-.523.434-.924.546 1.036.168 1.554.742 1.554 1.722 0 .373-.075.695-.224.966a1.85 1.85 0 0 1-.616.644 2.746 2.746 0 0 1-.952.364 5.904 5.904 0 0 1-1.19.112h-2.688v-7.266Zm1.232 1.05v1.974h1.372c.467 0 .84-.084 1.12-.252.289-.168.434-.411.434-.728 0-.383-.126-.644-.378-.784s-.611-.21-1.078-.21h-1.47Zm0 2.954v2.212h1.442c.261 0 .495-.014.7-.042.215-.037.397-.098.546-.182a.906.906 0 0 0 .364-.336.991.991 0 0 0 .126-.518c0-.42-.145-.714-.434-.882-.289-.168-.723-.252-1.302-.252h-1.442Zm11.034.042h-3.514V499h-1.232v-7.266h1.232v2.996h3.514v-2.996h1.232V499h-1.232v-3.22Zm7.508 1.834a4.363 4.363 0 0 1-.322.532 2.444 2.444 0 0 1-1.19.854c-.262.093-.57.14-.924.14-.654 0-1.181-.182-1.582-.546-.402-.373-.602-.905-.602-1.596 0-.793.275-1.377.826-1.75.56-.373 1.353-.56 2.38-.56h1.358v-.602c0-.504-.131-.863-.392-1.078-.262-.215-.71-.322-1.344-.322a3.63 3.63 0 0 0-1.274.224c-.402.14-.761.303-1.078.49v-1.106a5.383 5.383 0 0 1 1.05-.462 4.367 4.367 0 0 1 1.47-.238c.914 0 1.61.191 2.086.574.476.373.714.957.714 1.75v4.2c.009.103.014.21.014.322.009.112.018.219.028.322.009.093.018.173.028.238h-1.12a6.439 6.439 0 0 1-.084-.546 8.21 8.21 0 0 1-.028-.63l-.014-.21Zm-2.17.42c.382 0 .709-.079.98-.238.27-.159.49-.341.658-.546.168-.215.289-.42.364-.616.074-.205.112-.35.112-.434v-.532h-1.232c-.738 0-1.274.107-1.61.322-.327.205-.49.518-.49.938 0 .327.098.593.294.798.196.205.504.308.924.308Zm5.283-3.948c0-.411.074-.761.224-1.05.149-.299.359-.541.63-.728a2.76 2.76 0 0 1 .966-.434c.373-.093.779-.14 1.218-.14h2.338V499h-1.232v-2.632h-1.33L341.89 499h-1.47l2.1-2.94c-.504-.149-.896-.378-1.176-.686-.271-.308-.406-.737-.406-1.288Zm4.144 1.232v-2.534h-1.106c-.523 0-.952.098-1.288.294-.336.196-.504.513-.504.952 0 .457.149.789.448.994.298.196.723.294 1.274.294h1.176Zm6.328-3.584h4.62v1.05h-3.388V499h-1.232v-7.266Zm9.766 7.406c-.56 0-1.046-.131-1.456-.392a2.84 2.84 0 0 1-.966-1.078v3.808h-1.232v-9.744h1.078l.126 1.414c.242-.476.569-.854.98-1.134.41-.28.919-.42 1.526-.42.42 0 .821.079 1.204.238.392.149.732.383 1.022.7.298.308.532.7.7 1.176.177.467.266 1.017.266 1.652 0 .644-.089 1.204-.266 1.68a3.526 3.526 0 0 1-.714 1.176 3.002 3.002 0 0 1-1.036.7 3.44 3.44 0 0 1-1.232.224Zm-.182-1.106c.644 0 1.162-.219 1.554-.658.401-.448.602-1.12.602-2.016 0-.877-.201-1.54-.602-1.988-.392-.457-.91-.686-1.554-.686-.318 0-.616.056-.896.168a1.99 1.99 0 0 0-.714.504c-.196.215-.355.49-.476.826a3.723 3.723 0 0 0-.168 1.176c0 .448.056.84.168 1.176.121.336.28.616.476.84.205.224.443.392.714.504.28.103.578.154.896.154Zm9.11-.42a4.24 4.24 0 0 1-.322.532 2.444 2.444 0 0 1-1.19.854c-.261.093-.569.14-.924.14-.653 0-1.181-.182-1.582-.546-.401-.373-.602-.905-.602-1.596 0-.793.275-1.377.826-1.75.56-.373 1.353-.56 2.38-.56h1.358v-.602c0-.504-.131-.863-.392-1.078-.261-.215-.709-.322-1.344-.322a3.63 3.63 0 0 0-1.274.224c-.401.14-.761.303-1.078.49v-1.106a5.383 5.383 0 0 1 1.05-.462 4.367 4.367 0 0 1 1.47-.238c.915 0 1.61.191 2.086.574.476.373.714.957.714 1.75v4.2c.009.103.014.21.014.322l.028.322c.009.093.019.173.028.238h-1.12a6.439 6.439 0 0 1-.084-.546 8.21 8.21 0 0 1-.028-.63l-.014-.21Zm-2.17.42c.383 0 .709-.079.98-.238.271-.159.49-.341.658-.546.168-.215.289-.42.364-.616.075-.205.112-.35.112-.434v-.532h-1.232c-.737 0-1.274.107-1.61.322-.327.205-.49.518-.49.938 0 .327.098.593.294.798.196.205.504.308.924.308Zm12.213-4.872-2.464 5.026h-.98l-2.324-5.054V499h-1.162v-7.266h1.834l2.226 4.872 2.38-4.872h1.708V499h-1.218v-5.838Zm10.158 0-2.464 5.026h-.98l-2.324-5.054V499h-1.162v-7.266h1.834l2.226 4.872 2.38-4.872h1.708V499h-1.218v-5.838Zm7.484 4.452a4.24 4.24 0 0 1-.322.532 2.419 2.419 0 0 1-1.19.854c-.261.093-.569.14-.924.14-.653 0-1.18-.182-1.582-.546-.401-.373-.602-.905-.602-1.596 0-.793.276-1.377.826-1.75.56-.373 1.354-.56 2.38-.56h1.358v-.602c0-.504-.13-.863-.392-1.078-.261-.215-.709-.322-1.344-.322-.448 0-.872.075-1.274.224-.401.14-.76.303-1.078.49v-1.106a5.438 5.438 0 0 1 1.05-.462 4.367 4.367 0 0 1 1.47-.238c.915 0 1.61.191 2.086.574.476.373.714.957.714 1.75v4.2c.01.103.014.21.014.322l.028.322c.01.093.019.173.028.238h-1.12a6.439 6.439 0 0 1-.084-.546 8.754 8.754 0 0 1-.028-.63l-.014-.21Zm-2.17.42c.383 0 .71-.079.98-.238.271-.159.49-.341.658-.546.168-.215.29-.42.364-.616.075-.205.112-.35.112-.434v-.532h-1.232c-.737 0-1.274.107-1.61.322-.326.205-.49.518-.49.938 0 .327.098.593.294.798.196.205.504.308.924.308Zm8.141-5.25V499h-1.232v-6.216h-2.282v-1.05h5.838v1.05h-2.324Zm4.978 4.536 3.878-5.586h1.246V499h-1.232v-5.572L408.766 499h-1.26v-7.266h1.232v5.586Zm9.011-1.414h-.644V499h-1.232v-7.266h1.232v3.122h.7l2.548-3.122h1.4l-2.982 3.584 3.038 3.682h-1.498l-2.562-3.094Zm9.476 1.708a4.24 4.24 0 0 1-.322.532 2.444 2.444 0 0 1-1.19.854c-.261.093-.569.14-.924.14-.653 0-1.181-.182-1.582-.546-.401-.373-.602-.905-.602-1.596 0-.793.275-1.377.826-1.75.56-.373 1.353-.56 2.38-.56h1.358v-.602c0-.504-.131-.863-.392-1.078-.261-.215-.709-.322-1.344-.322a3.63 3.63 0 0 0-1.274.224c-.401.14-.761.303-1.078.49v-1.106a5.383 5.383 0 0 1 1.05-.462 4.367 4.367 0 0 1 1.47-.238c.915 0 1.61.191 2.086.574.476.373.714.957.714 1.75v4.2c.009.103.014.21.014.322l.028.322c.009.093.019.173.028.238h-1.12a6.439 6.439 0 0 1-.084-.546 8.21 8.21 0 0 1-.028-.63l-.014-.21Zm-2.17.42c.383 0 .709-.079.98-.238.271-.159.49-.341.658-.546.168-.215.289-.42.364-.616.075-.205.112-.35.112-.434v-.532h-1.232c-.737 0-1.274.107-1.61.322-.327.205-.49.518-.49.938 0 .327.098.593.294.798.196.205.504.308.924.308Z"/>
    <rect width="200" height="60" x="246" y="209" fill="#EEF3FE" rx="8"/>
    <path fill="#262626" d="M269.438 233.962h3.206c1.138 0 2.02.238 2.646.714.634.467.952 1.199.952 2.198 0 .569-.094 1.059-.28 1.47-.178.401-.43.733-.756.994a3.153 3.153 0 0 1-1.176.574 5.746 5.746 0 0 1-1.498.182h-1.778V244h-1.316v-10.038Zm1.316 1.204v3.738h1.778c.354 0 .676-.037.966-.112.289-.075.536-.191.742-.35.214-.159.378-.364.49-.616.121-.261.182-.574.182-.938 0-.607-.196-1.045-.588-1.316-.392-.271-.952-.406-1.68-.406h-1.89Zm12.569 8.218a3.685 3.685 0 0 1-.378.238 4.34 4.34 0 0 1-.546.252 4.576 4.576 0 0 1-.728.182c-.27.056-.574.084-.91.084-1.222 0-2.151-.331-2.786-.994-.634-.663-.952-1.591-.952-2.786 0-.588.084-1.115.252-1.582.178-.467.42-.859.728-1.176a3.024 3.024 0 0 1 1.092-.742 3.5 3.5 0 0 1 1.372-.266c.523 0 .99.089 1.4.266.411.177.747.439 1.008.784.271.345.453.775.546 1.288.103.504.103 1.092 0 1.764h-5.124c.047.784.28 1.372.7 1.764.42.383 1.046.574 1.876.574.56 0 1.041-.079 1.442-.238a5.015 5.015 0 0 0 1.008-.518v1.106Zm-2.884-5.698c-.532 0-.989.163-1.372.49-.382.327-.625.821-.728 1.484h3.906c.038-.672-.116-1.167-.462-1.484-.345-.327-.793-.49-1.344-.49Zm4.635-.952h4.62v1.05h-3.388V244h-1.232v-7.266Zm9.887 7.182a8.4 8.4 0 0 1-.532 1.148 3.837 3.837 0 0 1-.63.854 2.266 2.266 0 0 1-.784.518c-.29.121-.621.182-.994.182-.187 0-.36-.014-.518-.042a1.561 1.561 0 0 1-.434-.112v-1.19c.102.075.233.131.392.168.158.047.331.07.518.07.345 0 .63-.084.854-.252.224-.159.438-.415.644-.77l-2.954-7.756h1.358l2.31 6.132 2.296-6.132h1.19l-2.716 7.182Zm3.935-2.17c.131-.476.215-1.12.252-1.932a69.86 69.86 0 0 0 .056-3.08h4.886V244h-1.246v-6.216h-2.478a42.616 42.616 0 0 1-.098 2.66c-.047.775-.154 1.428-.322 1.96-.159.532-.397.938-.714 1.218-.308.271-.723.406-1.246.406h-.112a.682.682 0 0 1-.126-.014v-1.218a.988.988 0 0 0 .182.014c.476 0 .798-.355.966-1.064Zm7.192-2.66c0-.411.075-.761.224-1.05.149-.299.359-.541.63-.728.271-.196.593-.341.966-.434.373-.093.779-.14 1.218-.14h2.338V244h-1.232v-2.632h-1.33L307.04 244h-1.47l2.1-2.94c-.504-.149-.896-.378-1.176-.686-.271-.308-.406-.737-.406-1.288Zm4.144 1.232v-2.534h-1.106c-.523 0-.952.098-1.288.294-.336.196-.504.513-.504.952 0 .457.149.789.448.994.299.196.723.294 1.274.294h1.176Zm6.907 3.822c-.56 0-1.046-.131-1.456-.392a2.84 2.84 0 0 1-.966-1.078v3.808h-1.232v-9.744h1.078l.126 1.414c.242-.476.569-.854.98-1.134.41-.28.919-.42 1.526-.42.42 0 .821.079 1.204.238.392.149.732.383 1.022.7.298.308.532.7.7 1.176.177.467.266 1.017.266 1.652 0 .644-.089 1.204-.266 1.68a3.526 3.526 0 0 1-.714 1.176 3.002 3.002 0 0 1-1.036.7 3.44 3.44 0 0 1-1.232.224Zm-.182-1.106c.644 0 1.162-.219 1.554-.658.401-.448.602-1.12.602-2.016 0-.877-.201-1.54-.602-1.988-.392-.457-.91-.686-1.554-.686-.318 0-.616.056-.896.168a1.99 1.99 0 0 0-.714.504c-.196.215-.355.49-.476.826a3.723 3.723 0 0 0-.168 1.176c0 .448.056.84.168 1.176.121.336.28.616.476.84.205.224.443.392.714.504.28.103.578.154.896.154Zm9.668-2.254h-3.514V244h-1.232v-7.266h1.232v2.996h3.514v-2.996h1.232V244h-1.232v-3.22Zm8.628.798c0 .42-.075.784-.224 1.092-.149.308-.359.56-.63.756a2.776 2.776 0 0 1-.966.434c-.373.093-.779.14-1.218.14h-2.338v-7.266h1.232v2.534h1.19c.924 0 1.647.182 2.17.546.523.364.784.952.784 1.764Zm2.282 2.422h-1.232v-7.266h1.232V244Zm-6.426-3.682v2.632h1.106c.532 0 .961-.098 1.288-.294.336-.205.504-.541.504-1.008 0-.476-.149-.817-.448-1.022-.299-.205-.719-.308-1.26-.308h-1.19Zm14.23 3.066a3.919 3.919 0 0 1-.378.238c-.15.084-.332.168-.546.252a4.632 4.632 0 0 1-.728.182 4.51 4.51 0 0 1-.91.084c-1.223 0-2.152-.331-2.786-.994-.635-.663-.952-1.591-.952-2.786 0-.588.084-1.115.252-1.582.177-.467.42-.859.728-1.176a3.024 3.024 0 0 1 1.092-.742c.42-.177.877-.266 1.372-.266.522 0 .989.089 1.4.266.41.177.746.439 1.008.784.27.345.452.775.546 1.288.102.504.102 1.092 0 1.764h-5.124c.046.784.28 1.372.7 1.764.42.383 1.045.574 1.876.574.56 0 1.04-.079 1.442-.238a5.07 5.07 0 0 0 1.008-.518v1.106Zm-2.884-5.698c-.532 0-.99.163-1.372.49-.383.327-.626.821-.728 1.484h3.906c.037-.672-.117-1.167-.462-1.484-.346-.327-.794-.49-1.344-.49Zm7.711-.952h2.716c.878 0 1.54.154 1.988.462.448.299.672.77.672 1.414 0 .429-.112.775-.336 1.036-.214.252-.522.434-.924.546 1.036.168 1.554.742 1.554 1.722 0 .373-.074.695-.224.966a1.841 1.841 0 0 1-.616.644 2.738 2.738 0 0 1-.952.364c-.364.075-.76.112-1.19.112h-2.688v-7.266Zm1.232 1.05v1.974h1.372c.467 0 .84-.084 1.12-.252.29-.168.434-.411.434-.728 0-.383-.126-.644-.378-.784s-.611-.21-1.078-.21h-1.47Zm0 2.954v2.212h1.442c.262 0 .495-.014.7-.042.215-.037.397-.098.546-.182a.906.906 0 0 0 .364-.336.991.991 0 0 0 .126-.518c0-.42-.144-.714-.434-.882-.289-.168-.723-.252-1.302-.252h-1.442Zm11.664.84c0 .42-.075.784-.224 1.092a2 2 0 0 1-.63.756 2.776 2.776 0 0 1-.966.434c-.374.093-.78.14-1.218.14h-2.338v-7.266h1.232v2.534h1.19c.924 0 1.647.182 2.17.546.522.364.784.952.784 1.764Zm2.282 2.422h-1.232v-7.266h1.232V244Zm-6.426-3.682v2.632h1.106c.532 0 .961-.098 1.288-.294.336-.205.504-.541.504-1.008 0-.476-.15-.817-.448-1.022-.299-.205-.719-.308-1.26-.308h-1.19Zm12.101 3.822c-.56 0-1.045-.131-1.456-.392a2.856 2.856 0 0 1-.966-1.078v3.808h-1.232v-9.744h1.078l.126 1.414c.243-.476.57-.854.98-1.134.411-.28.92-.42 1.526-.42.42 0 .822.079 1.204.238.392.149.733.383 1.022.7.299.308.532.7.7 1.176.178.467.266 1.017.266 1.652 0 .644-.088 1.204-.266 1.68a3.494 3.494 0 0 1-.714 1.176 2.992 2.992 0 0 1-1.036.7 3.436 3.436 0 0 1-1.232.224Zm-.182-1.106c.644 0 1.162-.219 1.554-.658.402-.448.602-1.12.602-2.016 0-.877-.2-1.54-.602-1.988-.392-.457-.91-.686-1.554-.686-.317 0-.616.056-.896.168-.27.112-.508.28-.714.504a2.45 2.45 0 0 0-.476.826 3.723 3.723 0 0 0-.168 1.176c0 .448.056.84.168 1.176.122.336.28.616.476.84.206.224.444.392.714.504.28.103.579.154.896.154Zm9.111-.42a4.363 4.363 0 0 1-.322.532 2.444 2.444 0 0 1-1.19.854c-.262.093-.57.14-.924.14-.654 0-1.181-.182-1.582-.546-.402-.373-.602-.905-.602-1.596 0-.793.275-1.377.826-1.75.56-.373 1.353-.56 2.38-.56h1.358v-.602c0-.504-.131-.863-.392-1.078-.262-.215-.71-.322-1.344-.322a3.63 3.63 0 0 0-1.274.224c-.402.14-.761.303-1.078.49v-1.106a5.383 5.383 0 0 1 1.05-.462 4.367 4.367 0 0 1 1.47-.238c.914 0 1.61.191 2.086.574.476.373.714.957.714 1.75v4.2c.009.103.014.21.014.322.009.112.018.219.028.322.009.093.018.173.028.238h-1.12a6.439 6.439 0 0 1-.084-.546 8.21 8.21 0 0 1-.028-.63l-.014-.21Zm-2.17.42c.382 0 .709-.079.98-.238.27-.159.49-.341.658-.546.168-.215.289-.42.364-.616.074-.205.112-.35.112-.434v-.532h-1.232c-.738 0-1.274.107-1.61.322-.327.205-.49.518-.49.938 0 .327.098.593.294.798.196.205.504.308.924.308Zm10.225-6.3v3.122h.658l2.31-3.122h1.358l-2.702 3.556 2.8 3.71h-1.498l-2.324-3.094h-.602V244h-1.232v-3.094h-.616L383.803 244h-1.456l2.8-3.668-2.702-3.598h1.414l2.268 3.122h.644v-3.122h1.232Zm11.23 6.65a3.685 3.685 0 0 1-.378.238 4.34 4.34 0 0 1-.546.252 4.576 4.576 0 0 1-.728.182c-.27.056-.574.084-.91.084-1.222 0-2.151-.331-2.786-.994-.634-.663-.952-1.591-.952-2.786 0-.588.084-1.115.252-1.582.178-.467.42-.859.728-1.176a3.024 3.024 0 0 1 1.092-.742 3.5 3.5 0 0 1 1.372-.266c.523 0 .99.089 1.4.266.411.177.747.439 1.008.784.271.345.453.775.546 1.288.103.504.103 1.092 0 1.764h-5.124c.047.784.28 1.372.7 1.764.42.383 1.046.574 1.876.574.56 0 1.041-.079 1.442-.238a5.015 5.015 0 0 0 1.008-.518v1.106Zm-2.884-5.698c-.532 0-.989.163-1.372.49-.382.327-.625.821-.728 1.484h3.906c.038-.672-.116-1.167-.462-1.484-.345-.327-.793-.49-1.344-.49Zm9.382 3.094h-3.514V244h-1.232v-7.266h1.232v2.996h3.514v-2.996h1.232V244h-1.232v-3.22Zm4.484 1.54 3.878-5.586h1.246V244h-1.232v-5.572L410.243 244h-1.26v-7.266h1.232v5.586Zm7.135-3.234c0-.411.074-.761.224-1.05.149-.299.359-.541.63-.728a2.76 2.76 0 0 1 .966-.434c.373-.093.779-.14 1.218-.14h2.338V244h-1.232v-2.632h-1.33L418.302 244h-1.47l2.1-2.94c-.504-.149-.896-.378-1.176-.686-.271-.308-.406-.737-.406-1.288Zm4.144 1.232v-2.534h-1.106c-.523 0-.952.098-1.288.294-.336.196-.504.513-.504.952 0 .457.149.789.448.994.298.196.723.294 1.274.294h1.176Z"/>
    <rect width="260" height="60" x="216" y="294" fill="#EEF3FE" rx="8"/>
    <path fill="#262626" d="M273.267 317.702h-1.064V322h-1.316v-10.038h1.316v4.55h.98l3.584-4.55h1.484l-3.962 5.012 4.116 5.026h-1.638l-3.5-4.298Zm9.047 4.438c-.494 0-.956-.084-1.386-.252a3.242 3.242 0 0 1-1.12-.728 3.558 3.558 0 0 1-.728-1.19c-.177-.467-.266-1.003-.266-1.61 0-.597.089-1.129.266-1.596.178-.476.42-.873.728-1.19.318-.317.691-.56 1.12-.728.43-.168.892-.252 1.386-.252.504 0 .971.084 1.4.252.43.168.798.411 1.106.728.318.317.565.714.742 1.19.187.467.28.999.28 1.596 0 .607-.093 1.143-.28 1.61a3.418 3.418 0 0 1-.742 1.19c-.308.317-.676.56-1.106.728a3.807 3.807 0 0 1-1.4.252Zm0-1.106c.327 0 .626-.051.896-.154a2.04 2.04 0 0 0 .728-.49 2.29 2.29 0 0 0 .476-.84c.112-.336.168-.733.168-1.19 0-.457-.056-.854-.168-1.19a2.158 2.158 0 0 0-.476-.826 1.831 1.831 0 0 0-.728-.49 2.318 2.318 0 0 0-.896-.168c-.326 0-.625.056-.896.168-.27.103-.508.266-.714.49-.196.215-.35.49-.462.826a3.775 3.775 0 0 0-.168 1.19c0 .457.056.854.168 1.19.112.336.266.616.462.84.206.215.444.378.714.49.271.103.57.154.896.154Zm9.776-2.254h-3.514V322h-1.232v-7.266h1.232v2.996h3.514v-2.996h1.232V322h-1.232v-3.22Zm6.178-2.996V322h-1.232v-6.216h-2.282v-1.05h5.838v1.05h-2.324Zm9.323 5.6a3.919 3.919 0 0 1-.378.238c-.15.084-.332.168-.546.252a4.632 4.632 0 0 1-.728.182 4.51 4.51 0 0 1-.91.084c-1.223 0-2.152-.331-2.786-.994-.635-.663-.952-1.591-.952-2.786 0-.588.084-1.115.252-1.582.177-.467.42-.859.728-1.176a3.024 3.024 0 0 1 1.092-.742c.42-.177.877-.266 1.372-.266.522 0 .989.089 1.4.266.41.177.746.439 1.008.784.27.345.452.775.546 1.288.102.504.102 1.092 0 1.764h-5.124c.046.784.28 1.372.7 1.764.42.383 1.045.574 1.876.574.56 0 1.04-.079 1.442-.238a5.07 5.07 0 0 0 1.008-.518v1.106Zm-2.884-5.698c-.532 0-.99.163-1.372.49-.383.327-.626.821-.728 1.484h3.906c.037-.672-.117-1.167-.462-1.484-.346-.327-.794-.49-1.344-.49Zm6.511 3.22h-.644V322h-1.232v-7.266h1.232v3.122h.7l2.548-3.122h1.4l-2.982 3.584 3.038 3.682h-1.498l-2.562-3.094Zm8.219 3.234c-.56 0-1.069-.084-1.526-.252a3.335 3.335 0 0 1-1.148-.742 3.277 3.277 0 0 1-.728-1.19c-.168-.467-.252-.999-.252-1.596 0-.588.084-1.115.252-1.582.177-.467.425-.859.742-1.176a3.065 3.065 0 0 1 1.162-.742 4.277 4.277 0 0 1 1.554-.266c.448 0 .859.051 1.232.154.373.093.681.233.924.42v1.106a3.263 3.263 0 0 0-1.008-.434 4.145 4.145 0 0 0-1.134-.154c-.849 0-1.475.219-1.876.658-.392.439-.588 1.111-.588 2.016s.191 1.577.574 2.016c.383.439.989.658 1.82.658.439 0 .84-.051 1.204-.154a4.969 4.969 0 0 0 1.008-.42v1.106a4.29 4.29 0 0 1-2.212.574Zm6.79-6.356V322h-1.232v-6.216h-2.282v-1.05h5.838v1.05h-2.324Zm8.492 2.996h-3.514V322h-1.232v-7.266h1.232v2.996h3.514v-2.996h1.232V322h-1.232v-3.22Zm6.234 3.36c-.495 0-.957-.084-1.386-.252a3.233 3.233 0 0 1-1.12-.728 3.542 3.542 0 0 1-.728-1.19c-.177-.467-.266-1.003-.266-1.61 0-.597.089-1.129.266-1.596.177-.476.42-.873.728-1.19.317-.317.691-.56 1.12-.728a3.767 3.767 0 0 1 1.386-.252c.504 0 .971.084 1.4.252.429.168.798.411 1.106.728.317.317.565.714.742 1.19.187.467.28.999.28 1.596 0 .607-.093 1.143-.28 1.61a3.433 3.433 0 0 1-.742 1.19c-.308.317-.677.56-1.106.728a3.807 3.807 0 0 1-1.4.252Zm0-1.106a2.5 2.5 0 0 0 .896-.154 2.04 2.04 0 0 0 .728-.49c.205-.224.364-.504.476-.84.112-.336.168-.733.168-1.19 0-.457-.056-.854-.168-1.19a2.17 2.17 0 0 0-.476-.826 1.831 1.831 0 0 0-.728-.49 2.322 2.322 0 0 0-.896-.168c-.327 0-.625.056-.896.168a1.849 1.849 0 0 0-.714.49c-.196.215-.35.49-.462.826a3.775 3.775 0 0 0-.168 1.19c0 .457.056.854.168 1.19.112.336.266.616.462.84.205.215.443.378.714.49a2.5 2.5 0 0 0 .896.154Zm4.998-3.864h3.36v1.12h-3.36v-1.12Zm8.486 4.97c-.56 0-1.069-.084-1.526-.252a3.335 3.335 0 0 1-1.148-.742 3.277 3.277 0 0 1-.728-1.19c-.168-.467-.252-.999-.252-1.596 0-.588.084-1.115.252-1.582.177-.467.425-.859.742-1.176a3.065 3.065 0 0 1 1.162-.742 4.277 4.277 0 0 1 1.554-.266c.448 0 .859.051 1.232.154.373.093.681.233.924.42v1.106a3.263 3.263 0 0 0-1.008-.434 4.145 4.145 0 0 0-1.134-.154c-.849 0-1.475.219-1.876.658-.392.439-.588 1.111-.588 2.016s.191 1.577.574 2.016c.383.439.989.658 1.82.658.439 0 .84-.051 1.204-.154a4.969 4.969 0 0 0 1.008-.42v1.106a4.29 4.29 0 0 1-2.212.574Zm3.864-7.406h2.716c.877 0 1.54.154 1.988.462.448.299.672.77.672 1.414 0 .429-.112.775-.336 1.036-.215.252-.523.434-.924.546 1.036.168 1.554.742 1.554 1.722 0 .373-.075.695-.224.966a1.85 1.85 0 0 1-.616.644 2.746 2.746 0 0 1-.952.364 5.904 5.904 0 0 1-1.19.112h-2.688v-7.266Zm1.232 1.05v1.974h1.372c.467 0 .84-.084 1.12-.252.289-.168.434-.411.434-.728 0-.383-.126-.644-.378-.784s-.611-.21-1.078-.21h-1.47Zm0 2.954v2.212h1.442c.261 0 .495-.014.7-.042.215-.037.397-.098.546-.182a.906.906 0 0 0 .364-.336.991.991 0 0 0 .126-.518c0-.42-.145-.714-.434-.882-.289-.168-.723-.252-1.302-.252h-1.442Zm9.27 3.402c-.495 0-.957-.084-1.386-.252a3.224 3.224 0 0 1-1.12-.728 3.542 3.542 0 0 1-.728-1.19c-.178-.467-.266-1.003-.266-1.61 0-.597.088-1.129.266-1.596.177-.476.42-.873.728-1.19.317-.317.69-.56 1.12-.728a3.767 3.767 0 0 1 1.386-.252c.504 0 .97.084 1.4.252.429.168.798.411 1.106.728.317.317.564.714.742 1.19.186.467.28.999.28 1.596 0 .607-.094 1.143-.28 1.61a3.448 3.448 0 0 1-.742 1.19c-.308.317-.677.56-1.106.728-.43.168-.896.252-1.4.252Zm0-1.106c.326 0 .625-.051.896-.154.28-.112.522-.275.728-.49.205-.224.364-.504.476-.84.112-.336.168-.733.168-1.19 0-.457-.056-.854-.168-1.19a2.17 2.17 0 0 0-.476-.826 1.838 1.838 0 0 0-.728-.49 2.325 2.325 0 0 0-.896-.168c-.327 0-.626.056-.896.168a1.849 1.849 0 0 0-.714.49c-.196.215-.35.49-.462.826a3.773 3.773 0 0 0-.169 1.19c0 .457.057.854.169 1.19.112.336.266.616.462.84.205.215.443.378.714.49.27.103.569.154.896.154Zm11.581-2.674c0 .607-.093 1.143-.28 1.61a3.418 3.418 0 0 1-.742 1.19c-.308.317-.676.56-1.106.728a3.807 3.807 0 0 1-1.4.252c-.513 0-.984-.084-1.414-.252a2.922 2.922 0 0 1-1.106-.798c-.308-.355-.55-.803-.728-1.344-.168-.541-.252-1.181-.252-1.918 0-.607.019-1.185.056-1.736a7.645 7.645 0 0 1 .252-1.526c.131-.476.318-.901.56-1.274.252-.383.588-.7 1.008-.952.234-.14.476-.243.728-.308.252-.075.504-.131.756-.168.262-.037.523-.061.784-.07l.77-.028c.374-.028.686-.075.938-.14.252-.065.476-.154.672-.266v1.12a2.136 2.136 0 0 1-.658.28 9.086 9.086 0 0 1-.826.126 57.56 57.56 0 0 1-1.47.112c-.438.019-.84.121-1.204.308a2.176 2.176 0 0 0-.994 1.176c-.186.513-.303 1.125-.35 1.834.486-1.12 1.4-1.68 2.744-1.68.458 0 .882.084 1.274.252.402.159.747.397 1.036.714.299.317.532.709.7 1.176.168.457.252.985.252 1.582Zm-3.528 2.674c.327 0 .626-.051.896-.154a2.04 2.04 0 0 0 .728-.49 2.29 2.29 0 0 0 .476-.84c.112-.336.168-.733.168-1.19 0-.457-.056-.854-.168-1.19a2.158 2.158 0 0 0-.476-.826 1.831 1.831 0 0 0-.728-.49 2.318 2.318 0 0 0-.896-.168c-.644 0-1.18.215-1.61.644-.42.429-.63 1.092-.63 1.988 0 .467.056.873.168 1.218.112.336.266.616.462.84.206.224.444.392.714.504.271.103.57.154.896.154Zm8.052 1.106c-.495 0-.957-.084-1.386-.252a3.233 3.233 0 0 1-1.12-.728 3.542 3.542 0 0 1-.728-1.19c-.177-.467-.266-1.003-.266-1.61 0-.597.089-1.129.266-1.596.177-.476.42-.873.728-1.19.317-.317.691-.56 1.12-.728a3.767 3.767 0 0 1 1.386-.252c.504 0 .971.084 1.4.252.429.168.798.411 1.106.728.317.317.565.714.742 1.19.187.467.28.999.28 1.596 0 .607-.093 1.143-.28 1.61a3.433 3.433 0 0 1-.742 1.19c-.308.317-.677.56-1.106.728a3.807 3.807 0 0 1-1.4.252Zm0-1.106a2.5 2.5 0 0 0 .896-.154 2.04 2.04 0 0 0 .728-.49c.205-.224.364-.504.476-.84.112-.336.168-.733.168-1.19 0-.457-.056-.854-.168-1.19a2.17 2.17 0 0 0-.476-.826 1.831 1.831 0 0 0-.728-.49 2.322 2.322 0 0 0-.896-.168c-.327 0-.625.056-.896.168a1.849 1.849 0 0 0-.714.49c-.196.215-.35.49-.462.826a3.775 3.775 0 0 0-.168 1.19c0 .457.056.854.168 1.19.112.336.266.616.462.84.205.215.443.378.714.49a2.5 2.5 0 0 0 .896.154Zm4.569-.084c.262-.159.467-.406.616-.742.15-.336.266-.761.35-1.274.084-.513.14-1.12.168-1.82.038-.7.07-1.493.098-2.38h4.998v6.216h1.092v3.122h-1.078l-.154-2.072h-5.404l-.126 2.072h-1.106v-3.122h.546Zm4.998 0v-5.166h-2.66c-.046 1.372-.135 2.473-.266 3.304-.121.821-.336 1.442-.644 1.862h3.57Zm8.357-2.17h-3.514V322h-1.232v-7.266h1.232v2.996h3.514v-2.996h1.232V322h-1.232v-3.22Zm8.628.798c0 .42-.074.784-.224 1.092-.149.308-.359.56-.63.756a2.76 2.76 0 0 1-.966.434c-.373.093-.779.14-1.218.14h-2.338v-7.266h1.232v2.534h1.19c.924 0 1.648.182 2.17.546.523.364.784.952.784 1.764Zm2.282 2.422h-1.232v-7.266h1.232V322Zm-6.426-3.682v2.632h1.106c.532 0 .962-.098 1.288-.294.336-.205.504-.541.504-1.008 0-.476-.149-.817-.448-1.022-.298-.205-.718-.308-1.26-.308h-1.19Zm14.23 3.066a3.919 3.919 0 0 1-.378.238 4.34 4.34 0 0 1-.546.252 4.604 4.604 0 0 1-.728.182 4.51 4.51 0 0 1-.91.084c-1.223 0-2.151-.331-2.786-.994-.635-.663-.952-1.591-.952-2.786 0-.588.084-1.115.252-1.582.177-.467.42-.859.728-1.176a3.024 3.024 0 0 1 1.092-.742c.42-.177.877-.266 1.372-.266.523 0 .989.089 1.4.266.411.177.747.439 1.008.784.271.345.453.775.546 1.288.103.504.103 1.092 0 1.764h-5.124c.047.784.28 1.372.7 1.764.42.383 1.045.574 1.876.574.56 0 1.041-.079 1.442-.238a5.07 5.07 0 0 0 1.008-.518v1.106Zm-2.884-5.698c-.532 0-.989.163-1.372.49-.383.327-.625.821-.728 1.484h3.906c.037-.672-.117-1.167-.462-1.484-.345-.327-.793-.49-1.344-.49Zm-145.8 20.454c-.56 0-1.045-.131-1.456-.392a2.856 2.856 0 0 1-.966-1.078v3.808h-1.232v-9.744h1.078l.126 1.414c.243-.476.57-.854.98-1.134.411-.28.92-.42 1.526-.42.42 0 .822.079 1.204.238.392.149.733.383 1.022.7.299.308.532.7.7 1.176.178.467.266 1.017.266 1.652 0 .644-.088 1.204-.266 1.68a3.494 3.494 0 0 1-.714 1.176 2.992 2.992 0 0 1-1.036.7 3.436 3.436 0 0 1-1.232.224Zm-.182-1.106c.644 0 1.162-.219 1.554-.658.402-.448.602-1.12.602-2.016 0-.877-.2-1.54-.602-1.988-.392-.457-.91-.686-1.554-.686-.317 0-.616.056-.896.168-.27.112-.508.28-.714.504a2.45 2.45 0 0 0-.476.826 3.723 3.723 0 0 0-.168 1.176c0 .448.056.84.168 1.176.122.336.28.616.476.84.206.224.444.392.714.504.28.103.579.154.896.154Zm10.705.35a3.919 3.919 0 0 1-.378.238c-.15.084-.332.168-.546.252a4.632 4.632 0 0 1-.728.182 4.51 4.51 0 0 1-.91.084c-1.223 0-2.152-.331-2.786-.994-.635-.663-.952-1.591-.952-2.786 0-.588.084-1.115.252-1.582.177-.467.42-.859.728-1.176a3.024 3.024 0 0 1 1.092-.742c.42-.177.877-.266 1.372-.266.522 0 .989.089 1.4.266.41.177.746.439 1.008.784.27.345.452.775.546 1.288.102.504.102 1.092 0 1.764h-5.124c.046.784.28 1.372.7 1.764.42.383 1.045.574 1.876.574.56 0 1.04-.079 1.442-.238a5.07 5.07 0 0 0 1.008-.518v1.106Zm-2.884-5.698c-.532 0-.99.163-1.372.49-.383.327-.626.821-.728 1.484h3.906c.037-.672-.117-1.167-.462-1.484-.346-.327-.794-.49-1.344-.49Zm4.635-.952h4.62v1.05h-3.388V336h-1.232v-7.266Zm9.886 7.182a8.282 8.282 0 0 1-.532 1.148 3.776 3.776 0 0 1-.63.854 2.248 2.248 0 0 1-.784.518c-.289.121-.62.182-.994.182-.186 0-.359-.014-.518-.042a1.58 1.58 0 0 1-.434-.112v-1.19c.103.075.234.131.392.168.159.047.332.07.518.07.346 0 .63-.084.854-.252.224-.159.439-.415.644-.77l-2.954-7.756h1.358l2.31 6.132 2.296-6.132h1.19l-2.716 7.182Zm3.936-2.17c.13-.476.214-1.12.252-1.932a69.86 69.86 0 0 0 .056-3.08h4.886V336h-1.246v-6.216h-2.478c-.01.999-.042 1.885-.098 2.66-.047.775-.154 1.428-.322 1.96-.159.532-.397.938-.714 1.218-.308.271-.724.406-1.246.406h-.112a.664.664 0 0 1-.126-.014v-1.218a.98.98 0 0 0 .182.014c.476 0 .798-.355.966-1.064Zm7.192-2.66c0-.411.074-.761.224-1.05.149-.299.359-.541.63-.728a2.76 2.76 0 0 1 .966-.434c.373-.093.779-.14 1.218-.14h2.338V336h-1.232v-2.632h-1.33L307.102 336h-1.47l2.1-2.94c-.504-.149-.896-.378-1.176-.686-.271-.308-.406-.737-.406-1.288Zm4.144 1.232v-2.534h-1.106c-.523 0-.952.098-1.288.294-.336.196-.504.513-.504.952 0 .457.149.789.448.994.298.196.723.294 1.274.294h1.176Zm6.906 3.822c-.56 0-1.045-.131-1.456-.392a2.856 2.856 0 0 1-.966-1.078v3.808h-1.232v-9.744h1.078l.126 1.414a2.98 2.98 0 0 1 .98-1.134c.411-.28.919-.42 1.526-.42.42 0 .821.079 1.204.238.392.149.733.383 1.022.7.299.308.532.7.7 1.176.177.467.266 1.017.266 1.652 0 .644-.089 1.204-.266 1.68a3.494 3.494 0 0 1-.714 1.176 3.002 3.002 0 0 1-1.036.7 3.44 3.44 0 0 1-1.232.224Zm-.182-1.106c.644 0 1.162-.219 1.554-.658.401-.448.602-1.12.602-2.016 0-.877-.201-1.54-.602-1.988-.392-.457-.91-.686-1.554-.686-.317 0-.616.056-.896.168a1.99 1.99 0 0 0-.714.504c-.196.215-.355.49-.476.826a3.723 3.723 0 0 0-.168 1.176c0 .448.056.84.168 1.176.121.336.28.616.476.84.205.224.443.392.714.504.28.103.579.154.896.154Zm9.669-2.254h-3.514V336h-1.232v-7.266h1.232v2.996h3.514v-2.996h1.232V336h-1.232v-3.22Zm8.628.798c0 .42-.075.784-.224 1.092a2 2 0 0 1-.63.756 2.776 2.776 0 0 1-.966.434c-.374.093-.78.14-1.218.14h-2.338v-7.266h1.232v2.534h1.19c.924 0 1.647.182 2.17.546.522.364.784.952.784 1.764Zm2.282 2.422h-1.232v-7.266h1.232V336Zm-6.426-3.682v2.632h1.106c.532 0 .961-.098 1.288-.294.336-.205.504-.541.504-1.008 0-.476-.15-.817-.448-1.022-.299-.205-.719-.308-1.26-.308h-1.19Zm14.229 3.066a3.685 3.685 0 0 1-.378.238 4.34 4.34 0 0 1-.546.252 4.576 4.576 0 0 1-.728.182c-.27.056-.574.084-.91.084-1.222 0-2.151-.331-2.786-.994-.634-.663-.952-1.591-.952-2.786 0-.588.084-1.115.252-1.582.178-.467.42-.859.728-1.176a3.024 3.024 0 0 1 1.092-.742 3.5 3.5 0 0 1 1.372-.266c.523 0 .99.089 1.4.266.411.177.747.439 1.008.784.271.345.453.775.546 1.288.103.504.103 1.092 0 1.764h-5.124c.047.784.28 1.372.7 1.764.42.383 1.046.574 1.876.574.56 0 1.041-.079 1.442-.238a5.015 5.015 0 0 0 1.008-.518v1.106Zm-2.884-5.698c-.532 0-.989.163-1.372.49-.382.327-.625.821-.728 1.484h3.906c.038-.672-.116-1.167-.462-1.484-.345-.327-.793-.49-1.344-.49Zm7.712-.952h2.716c.877 0 1.54.154 1.988.462.448.299.672.77.672 1.414 0 .429-.112.775-.336 1.036-.215.252-.523.434-.924.546 1.036.168 1.554.742 1.554 1.722 0 .373-.075.695-.224.966a1.86 1.86 0 0 1-.616.644 2.754 2.754 0 0 1-.952.364 5.904 5.904 0 0 1-1.19.112h-2.688v-7.266Zm1.232 1.05v1.974h1.372c.466 0 .84-.084 1.12-.252.289-.168.434-.411.434-.728 0-.383-.126-.644-.378-.784s-.612-.21-1.078-.21h-1.47Zm0 2.954v2.212h1.442c.261 0 .494-.014.7-.042a1.71 1.71 0 0 0 .546-.182.912.912 0 0 0 .364-.336.991.991 0 0 0 .126-.518c0-.42-.145-.714-.434-.882-.29-.168-.724-.252-1.302-.252h-1.442Zm11.663.84c0 .42-.074.784-.224 1.092-.149.308-.359.56-.63.756a2.76 2.76 0 0 1-.966.434c-.373.093-.779.14-1.218.14h-2.338v-7.266h1.232v2.534h1.19c.924 0 1.648.182 2.17.546.523.364.784.952.784 1.764Zm2.282 2.422h-1.232v-7.266h1.232V336Zm-6.426-3.682v2.632h1.106c.532 0 .962-.098 1.288-.294.336-.205.504-.541.504-1.008 0-.476-.149-.817-.448-1.022-.298-.205-.718-.308-1.26-.308h-1.19Zm12.102 3.822c-.56 0-1.045-.131-1.456-.392a2.856 2.856 0 0 1-.966-1.078v3.808h-1.232v-9.744h1.078l.126 1.414a2.98 2.98 0 0 1 .98-1.134c.411-.28.919-.42 1.526-.42.42 0 .821.079 1.204.238.392.149.733.383 1.022.7.299.308.532.7.7 1.176.177.467.266 1.017.266 1.652 0 .644-.089 1.204-.266 1.68a3.494 3.494 0 0 1-.714 1.176 3.002 3.002 0 0 1-1.036.7 3.44 3.44 0 0 1-1.232.224Zm-.182-1.106c.644 0 1.162-.219 1.554-.658.401-.448.602-1.12.602-2.016 0-.877-.201-1.54-.602-1.988-.392-.457-.91-.686-1.554-.686-.317 0-.616.056-.896.168a1.99 1.99 0 0 0-.714.504c-.196.215-.355.49-.476.826a3.723 3.723 0 0 0-.168 1.176c0 .448.056.84.168 1.176.121.336.28.616.476.84.205.224.443.392.714.504.28.103.579.154.896.154Zm9.11-.42a4.24 4.24 0 0 1-.322.532 2.444 2.444 0 0 1-1.19.854c-.261.093-.569.14-.924.14-.653 0-1.181-.182-1.582-.546-.401-.373-.602-.905-.602-1.596 0-.793.275-1.377.826-1.75.56-.373 1.353-.56 2.38-.56h1.358v-.602c0-.504-.131-.863-.392-1.078-.261-.215-.709-.322-1.344-.322a3.63 3.63 0 0 0-1.274.224c-.401.14-.761.303-1.078.49v-1.106a5.383 5.383 0 0 1 1.05-.462 4.367 4.367 0 0 1 1.47-.238c.915 0 1.61.191 2.086.574.476.373.714.957.714 1.75v4.2c.009.103.014.21.014.322l.028.322c.009.093.019.173.028.238h-1.12a6.439 6.439 0 0 1-.084-.546 8.21 8.21 0 0 1-.028-.63l-.014-.21Zm-2.17.42c.383 0 .709-.079.98-.238.271-.159.49-.341.658-.546.168-.215.289-.42.364-.616.075-.205.112-.35.112-.434v-.532h-1.232c-.737 0-1.274.107-1.61.322-.327.205-.49.518-.49.938 0 .327.098.593.294.798.196.205.504.308.924.308Zm10.225-6.3v3.122h.658l2.31-3.122h1.358l-2.702 3.556 2.8 3.71h-1.498l-2.324-3.094h-.602V336h-1.232v-3.094h-.616L383.864 336h-1.456l2.8-3.668-2.702-3.598h1.414l2.268 3.122h.644v-3.122h1.232Zm11.231 6.65a3.919 3.919 0 0 1-.378.238 4.34 4.34 0 0 1-.546.252 4.604 4.604 0 0 1-.728.182 4.51 4.51 0 0 1-.91.084c-1.223 0-2.151-.331-2.786-.994-.635-.663-.952-1.591-.952-2.786 0-.588.084-1.115.252-1.582.177-.467.42-.859.728-1.176a3.024 3.024 0 0 1 1.092-.742c.42-.177.877-.266 1.372-.266.523 0 .989.089 1.4.266.411.177.747.439 1.008.784.271.345.453.775.546 1.288.103.504.103 1.092 0 1.764h-5.124c.047.784.28 1.372.7 1.764.42.383 1.045.574 1.876.574.56 0 1.041-.079 1.442-.238a5.07 5.07 0 0 0 1.008-.518v1.106Zm-2.884-5.698c-.532 0-.989.163-1.372.49-.383.327-.625.821-.728 1.484h3.906c.037-.672-.117-1.167-.462-1.484-.345-.327-.793-.49-1.344-.49Zm9.381 3.094h-3.514V336h-1.232v-7.266h1.232v2.996h3.514v-2.996h1.232V336h-1.232v-3.22Zm4.484 1.54 3.878-5.586h1.246V336h-1.232v-5.572L410.304 336h-1.26v-7.266h1.232v5.586Zm7.135-3.234c0-.411.075-.761.224-1.05.15-.299.36-.541.63-.728.271-.196.593-.341.966-.434.374-.093.78-.14 1.218-.14h2.338V336h-1.232v-2.632h-1.33L418.363 336h-1.47l2.1-2.94c-.504-.149-.896-.378-1.176-.686-.27-.308-.406-.737-.406-1.288Zm4.144 1.232v-2.534h-1.106c-.522 0-.952.098-1.288.294-.336.196-.504.513-.504.952 0 .457.15.789.448.994.299.196.724.294 1.274.294h1.176Z"/>
    <rect width="320" height="60" x="190" y="379" fill="#EEF3FE" rx="8"/>
    <path fill="#262626" d="M236.347 402.702h-1.064V407h-1.316v-10.038h1.316v4.55h.98l3.584-4.55h1.484l-3.962 5.012 4.116 5.026h-1.638l-3.5-4.298Zm9.047 4.438c-.494 0-.956-.084-1.386-.252a3.242 3.242 0 0 1-1.12-.728 3.558 3.558 0 0 1-.728-1.19c-.177-.467-.266-1.003-.266-1.61 0-.597.089-1.129.266-1.596.178-.476.42-.873.728-1.19.318-.317.691-.56 1.12-.728.43-.168.892-.252 1.386-.252.504 0 .971.084 1.4.252.43.168.798.411 1.106.728.318.317.565.714.742 1.19.187.467.28.999.28 1.596 0 .607-.093 1.143-.28 1.61a3.418 3.418 0 0 1-.742 1.19c-.308.317-.676.56-1.106.728a3.807 3.807 0 0 1-1.4.252Zm0-1.106c.327 0 .626-.051.896-.154a2.04 2.04 0 0 0 .728-.49 2.29 2.29 0 0 0 .476-.84c.112-.336.168-.733.168-1.19 0-.457-.056-.854-.168-1.19a2.158 2.158 0 0 0-.476-.826 1.831 1.831 0 0 0-.728-.49 2.318 2.318 0 0 0-.896-.168c-.326 0-.625.056-.896.168-.27.103-.508.266-.714.49-.196.215-.35.49-.462.826a3.775 3.775 0 0 0-.168 1.19c0 .457.056.854.168 1.19.112.336.266.616.462.84.206.215.444.378.714.49.271.103.57.154.896.154Zm9.776-2.254h-3.514V407h-1.232v-7.266h1.232v2.996h3.514v-2.996h1.232V407h-1.232v-3.22Zm6.178-2.996V407h-1.232v-6.216h-2.282v-1.05h5.838v1.05h-2.324Zm9.323 5.6a3.919 3.919 0 0 1-.378.238 4.34 4.34 0 0 1-.546.252 4.604 4.604 0 0 1-.728.182 4.51 4.51 0 0 1-.91.084c-1.223 0-2.151-.331-2.786-.994-.635-.663-.952-1.591-.952-2.786 0-.588.084-1.115.252-1.582.177-.467.42-.859.728-1.176a3.024 3.024 0 0 1 1.092-.742c.42-.177.877-.266 1.372-.266.523 0 .989.089 1.4.266.411.177.747.439 1.008.784.271.345.453.775.546 1.288.103.504.103 1.092 0 1.764h-5.124c.047.784.28 1.372.7 1.764.42.383 1.045.574 1.876.574.56 0 1.041-.079 1.442-.238a5.07 5.07 0 0 0 1.008-.518v1.106Zm-2.884-5.698c-.532 0-.989.163-1.372.49-.383.327-.625.821-.728 1.484h3.906c.037-.672-.117-1.167-.462-1.484-.345-.327-.793-.49-1.344-.49Zm6.511 3.22h-.644V407h-1.232v-7.266h1.232v3.122h.7l2.548-3.122h1.4l-2.982 3.584 3.038 3.682h-1.498l-2.562-3.094Zm8.219 3.234c-.56 0-1.069-.084-1.526-.252a3.335 3.335 0 0 1-1.148-.742 3.277 3.277 0 0 1-.728-1.19c-.168-.467-.252-.999-.252-1.596 0-.588.084-1.115.252-1.582.177-.467.425-.859.742-1.176a3.065 3.065 0 0 1 1.162-.742 4.277 4.277 0 0 1 1.554-.266c.448 0 .859.051 1.232.154.373.093.681.233.924.42v1.106a3.263 3.263 0 0 0-1.008-.434 4.145 4.145 0 0 0-1.134-.154c-.849 0-1.475.219-1.876.658-.392.439-.588 1.111-.588 2.016s.191 1.577.574 2.016c.383.439.989.658 1.82.658.439 0 .84-.051 1.204-.154a4.969 4.969 0 0 0 1.008-.42v1.106a4.29 4.29 0 0 1-2.212.574Zm6.79-6.356V407h-1.232v-6.216h-2.282v-1.05h5.838v1.05h-2.324Zm8.492 2.996h-3.514V407h-1.232v-7.266h1.232v2.996h3.514v-2.996h1.232V407h-1.232v-3.22Zm6.234 3.36c-.495 0-.957-.084-1.386-.252a3.233 3.233 0 0 1-1.12-.728 3.542 3.542 0 0 1-.728-1.19c-.177-.467-.266-1.003-.266-1.61 0-.597.089-1.129.266-1.596.177-.476.42-.873.728-1.19.317-.317.691-.56 1.12-.728a3.767 3.767 0 0 1 1.386-.252c.504 0 .971.084 1.4.252.429.168.798.411 1.106.728.317.317.565.714.742 1.19.187.467.28.999.28 1.596 0 .607-.093 1.143-.28 1.61a3.433 3.433 0 0 1-.742 1.19c-.308.317-.677.56-1.106.728a3.807 3.807 0 0 1-1.4.252Zm0-1.106a2.5 2.5 0 0 0 .896-.154 2.04 2.04 0 0 0 .728-.49c.205-.224.364-.504.476-.84.112-.336.168-.733.168-1.19 0-.457-.056-.854-.168-1.19a2.17 2.17 0 0 0-.476-.826 1.831 1.831 0 0 0-.728-.49 2.322 2.322 0 0 0-.896-.168c-.327 0-.625.056-.896.168a1.849 1.849 0 0 0-.714.49c-.196.215-.35.49-.462.826a3.775 3.775 0 0 0-.168 1.19c0 .457.056.854.168 1.19.112.336.266.616.462.84.205.215.443.378.714.49a2.5 2.5 0 0 0 .896.154Zm4.998-3.864h3.36v1.12h-3.36v-1.12Zm10.365 2.716c0 .411-.084.761-.252 1.05-.158.28-.378.513-.658.7-.28.177-.606.303-.98.378a5.087 5.087 0 0 1-1.148.126 5.392 5.392 0 0 1-1.414-.168c-.401-.112-.718-.247-.952-.406v-1.106c.29.177.635.317 1.036.42.402.103.836.154 1.302.154.532 0 .976-.084 1.33-.252.364-.177.546-.476.546-.896 0-.411-.154-.7-.462-.868-.298-.168-.76-.252-1.386-.252h-.966v-.994h1.008c.514 0 .906-.093 1.176-.28.271-.187.406-.457.406-.812a.73.73 0 0 0-.14-.462.862.862 0 0 0-.35-.308 1.48 1.48 0 0 0-.532-.168 3.395 3.395 0 0 0-.63-.056c-.429 0-.83.051-1.204.154a3.826 3.826 0 0 0-.994.434v-1.106c.243-.159.556-.294.938-.406a4.96 4.96 0 0 1 1.358-.168c.887 0 1.554.168 2.002.504.458.336.686.821.686 1.456 0 .476-.13.849-.392 1.12-.252.271-.611.457-1.078.56.579.075 1.013.257 1.302.546.299.289.448.658.448 1.106Zm6.063.728a4.24 4.24 0 0 1-.322.532 2.419 2.419 0 0 1-1.19.854c-.261.093-.569.14-.924.14-.653 0-1.18-.182-1.582-.546-.401-.373-.602-.905-.602-1.596 0-.793.276-1.377.826-1.75.56-.373 1.354-.56 2.38-.56h1.358v-.602c0-.504-.13-.863-.392-1.078-.261-.215-.709-.322-1.344-.322-.448 0-.872.075-1.274.224-.401.14-.76.303-1.078.49v-1.106a5.438 5.438 0 0 1 1.05-.462 4.367 4.367 0 0 1 1.47-.238c.915 0 1.61.191 2.086.574.476.373.714.957.714 1.75v4.2c.01.103.014.21.014.322l.028.322c.01.093.019.173.028.238h-1.12a6.439 6.439 0 0 1-.084-.546 8.754 8.754 0 0 1-.028-.63l-.014-.21Zm-2.17.42c.383 0 .71-.079.98-.238.271-.159.49-.341.658-.546.168-.215.29-.42.364-.616.075-.205.112-.35.112-.434v-.532h-1.232c-.737 0-1.274.107-1.61.322-.326.205-.49.518-.49.938 0 .327.098.593.294.798.196.205.504.308.924.308Zm5.283-6.3h2.716c.878 0 1.54.154 1.988.462.448.299.672.77.672 1.414 0 .429-.112.775-.336 1.036-.214.252-.522.434-.924.546 1.036.168 1.554.742 1.554 1.722 0 .373-.074.695-.224.966a1.841 1.841 0 0 1-.616.644 2.738 2.738 0 0 1-.952.364c-.364.075-.76.112-1.19.112h-2.688v-7.266Zm1.232 1.05v1.974h1.372c.467 0 .84-.084 1.12-.252.29-.168.434-.411.434-.728 0-.383-.126-.644-.378-.784s-.611-.21-1.078-.21h-1.47Zm0 2.954v2.212h1.442c.262 0 .495-.014.7-.042.215-.037.397-.098.546-.182a.906.906 0 0 0 .364-.336.991.991 0 0 0 .126-.518c0-.42-.144-.714-.434-.882-.289-.168-.723-.252-1.302-.252h-1.442Zm7.52 1.582 3.878-5.586h1.246V407h-1.232v-5.572L337.352 407h-1.26v-7.266h1.232v5.586Zm10.271 1.82c-.56 0-1.068-.084-1.526-.252a3.345 3.345 0 0 1-1.148-.742 3.277 3.277 0 0 1-.728-1.19c-.168-.467-.252-.999-.252-1.596 0-.588.084-1.115.252-1.582.178-.467.425-.859.742-1.176a3.073 3.073 0 0 1 1.162-.742 4.284 4.284 0 0 1 1.554-.266c.448 0 .859.051 1.232.154.374.093.682.233.924.42v1.106a3.243 3.243 0 0 0-1.008-.434 4.145 4.145 0 0 0-1.134-.154c-.849 0-1.474.219-1.876.658-.392.439-.588 1.111-.588 2.016s.192 1.577.574 2.016c.383.439.99.658 1.82.658.439 0 .84-.051 1.204-.154.374-.112.71-.252 1.008-.42v1.106a4.29 4.29 0 0 1-2.212.574Zm5.096-1.82 3.878-5.586h1.246V407h-1.232v-5.572L352.719 407h-1.26v-7.266h1.232v5.586Zm14.065-4.158-2.464 5.026h-.98l-2.324-5.054V407h-1.162v-7.266h1.834l2.226 4.872 2.38-4.872h1.708V407h-1.218v-5.838Zm8.605 3.416c0 .42-.075.784-.224 1.092a2 2 0 0 1-.63.756 2.776 2.776 0 0 1-.966.434c-.374.093-.78.14-1.218.14h-2.338v-7.266h1.232v2.534h1.19c.924 0 1.647.182 2.17.546.522.364.784.952.784 1.764Zm2.282 2.422h-1.232v-7.266h1.232V407Zm-6.426-3.682v2.632h1.106c.532 0 .961-.098 1.288-.294.336-.205.504-.541.504-1.008 0-.476-.15-.817-.448-1.022-.299-.205-.719-.308-1.26-.308h-1.19Zm14.229 3.066a3.685 3.685 0 0 1-.378.238 4.34 4.34 0 0 1-.546.252 4.576 4.576 0 0 1-.728.182c-.27.056-.574.084-.91.084-1.222 0-2.151-.331-2.786-.994-.634-.663-.952-1.591-.952-2.786 0-.588.084-1.115.252-1.582.178-.467.42-.859.728-1.176a3.024 3.024 0 0 1 1.092-.742 3.5 3.5 0 0 1 1.372-.266c.523 0 .99.089 1.4.266.411.177.747.439 1.008.784.271.345.453.775.546 1.288.103.504.103 1.092 0 1.764h-5.124c.047.784.28 1.372.7 1.764.42.383 1.046.574 1.876.574.56 0 1.041-.079 1.442-.238a5.015 5.015 0 0 0 1.008-.518v1.106Zm-2.884-5.698c-.532 0-.989.163-1.372.49-.382.327-.625.821-.728 1.484h3.906c.038-.672-.116-1.167-.462-1.484-.345-.327-.793-.49-1.344-.49Zm11.366 6.454c-.56 0-1.046-.131-1.456-.392a2.84 2.84 0 0 1-.966-1.078v3.808h-1.232v-9.744h1.078l.126 1.414c.242-.476.569-.854.98-1.134.41-.28.919-.42 1.526-.42.42 0 .821.079 1.204.238.392.149.732.383 1.022.7.298.308.532.7.7 1.176.177.467.266 1.017.266 1.652 0 .644-.089 1.204-.266 1.68a3.526 3.526 0 0 1-.714 1.176 3.002 3.002 0 0 1-1.036.7 3.44 3.44 0 0 1-1.232.224Zm-.182-1.106c.644 0 1.162-.219 1.554-.658.401-.448.602-1.12.602-2.016 0-.877-.201-1.54-.602-1.988-.392-.457-.91-.686-1.554-.686-.318 0-.616.056-.896.168a1.99 1.99 0 0 0-.714.504c-.196.215-.355.49-.476.826a3.723 3.723 0 0 0-.168 1.176c0 .448.056.84.168 1.176.121.336.28.616.476.84.205.224.443.392.714.504.28.103.578.154.896.154Zm10.704.35a3.919 3.919 0 0 1-.378.238 4.34 4.34 0 0 1-.546.252 4.604 4.604 0 0 1-.728.182 4.51 4.51 0 0 1-.91.084c-1.223 0-2.151-.331-2.786-.994-.635-.663-.952-1.591-.952-2.786 0-.588.084-1.115.252-1.582.177-.467.42-.859.728-1.176a3.024 3.024 0 0 1 1.092-.742c.42-.177.877-.266 1.372-.266.523 0 .989.089 1.4.266.411.177.747.439 1.008.784.271.345.453.775.546 1.288.103.504.103 1.092 0 1.764h-5.124c.047.784.28 1.372.7 1.764.42.383 1.045.574 1.876.574.56 0 1.041-.079 1.442-.238a5.07 5.07 0 0 0 1.008-.518v1.106Zm-2.884-5.698c-.532 0-.989.163-1.372.49-.383.327-.625.821-.728 1.484h3.906c.037-.672-.117-1.167-.462-1.484-.345-.327-.793-.49-1.344-.49Zm4.635-.952h4.62v1.05h-3.388V407h-1.232v-7.266Zm9.887 7.182a8.4 8.4 0 0 1-.532 1.148 3.837 3.837 0 0 1-.63.854 2.266 2.266 0 0 1-.784.518c-.29.121-.621.182-.994.182-.187 0-.36-.014-.518-.042a1.561 1.561 0 0 1-.434-.112v-1.19c.102.075.233.131.392.168.158.047.331.07.518.07.345 0 .63-.084.854-.252.224-.159.438-.415.644-.77l-2.954-7.756h1.358l2.31 6.132 2.296-6.132h1.19l-2.716 7.182Zm3.935-2.17c.131-.476.215-1.12.252-1.932a69.86 69.86 0 0 0 .056-3.08h4.886V407h-1.246v-6.216h-2.478a42.616 42.616 0 0 1-.098 2.66c-.047.775-.154 1.428-.322 1.96-.159.532-.397.938-.714 1.218-.308.271-.723.406-1.246.406h-.112a.682.682 0 0 1-.126-.014v-1.218a.988.988 0 0 0 .182.014c.476 0 .798-.355.966-1.064Zm7.192-2.66c0-.411.075-.761.224-1.05.149-.299.359-.541.63-.728.271-.196.593-.341.966-.434.373-.093.779-.14 1.218-.14h2.338V407h-1.232v-2.632h-1.33L428.167 407h-1.47l2.1-2.94c-.504-.149-.896-.378-1.176-.686-.271-.308-.406-.737-.406-1.288Zm4.144 1.232v-2.534h-1.106c-.523 0-.952.098-1.288.294-.336.196-.504.513-.504.952 0 .457.149.789.448.994.299.196.723.294 1.274.294h1.176Zm6.907 3.822c-.56 0-1.046-.131-1.456-.392a2.84 2.84 0 0 1-.966-1.078v3.808h-1.232v-9.744h1.078l.126 1.414c.242-.476.569-.854.98-1.134.41-.28.919-.42 1.526-.42.42 0 .821.079 1.204.238.392.149.732.383 1.022.7.298.308.532.7.7 1.176.177.467.266 1.017.266 1.652 0 .644-.089 1.204-.266 1.68a3.526 3.526 0 0 1-.714 1.176 3.002 3.002 0 0 1-1.036.7 3.44 3.44 0 0 1-1.232.224Zm-.182-1.106c.644 0 1.162-.219 1.554-.658.401-.448.602-1.12.602-2.016 0-.877-.201-1.54-.602-1.988-.392-.457-.91-.686-1.554-.686-.318 0-.616.056-.896.168a1.99 1.99 0 0 0-.714.504c-.196.215-.355.49-.476.826a3.723 3.723 0 0 0-.168 1.176c0 .448.056.84.168 1.176.121.336.28.616.476.84.205.224.443.392.714.504.28.103.578.154.896.154Zm9.668-2.254h-3.514V407h-1.232v-7.266h1.232v2.996h3.514v-2.996h1.232V407h-1.232v-3.22Zm8.628.798c0 .42-.075.784-.224 1.092-.149.308-.359.56-.63.756a2.776 2.776 0 0 1-.966.434c-.373.093-.779.14-1.218.14h-2.338v-7.266h1.232v2.534h1.19c.924 0 1.647.182 2.17.546.523.364.784.952.784 1.764Zm2.282 2.422h-1.232v-7.266h1.232V407Zm-6.426-3.682v2.632h1.106c.532 0 .961-.098 1.288-.294.336-.205.504-.541.504-1.008 0-.476-.149-.817-.448-1.022-.299-.205-.719-.308-1.26-.308h-1.19Zm14.23 3.066a3.919 3.919 0 0 1-.378.238c-.15.084-.332.168-.546.252a4.632 4.632 0 0 1-.728.182 4.51 4.51 0 0 1-.91.084c-1.223 0-2.152-.331-2.786-.994-.635-.663-.952-1.591-.952-2.786 0-.588.084-1.115.252-1.582.177-.467.42-.859.728-1.176a3.024 3.024 0 0 1 1.092-.742c.42-.177.877-.266 1.372-.266.522 0 .989.089 1.4.266.41.177.746.439 1.008.784.27.345.452.775.546 1.288.102.504.102 1.092 0 1.764h-5.124c.046.784.28 1.372.7 1.764.42.383 1.045.574 1.876.574.56 0 1.04-.079 1.442-.238a5.07 5.07 0 0 0 1.008-.518v1.106Zm-2.884-5.698c-.532 0-.99.163-1.372.49-.383.327-.626.821-.728 1.484h3.906c.037-.672-.117-1.167-.462-1.484-.346-.327-.794-.49-1.344-.49Zm-149.864 13.048h2.716c.877 0 1.54.154 1.988.462.448.299.672.77.672 1.414 0 .429-.112.775-.336 1.036-.215.252-.523.434-.924.546 1.036.168 1.554.742 1.554 1.722 0 .373-.075.695-.224.966a1.85 1.85 0 0 1-.616.644 2.746 2.746 0 0 1-.952.364 5.904 5.904 0 0 1-1.19.112h-2.688v-7.266Zm1.232 1.05v1.974h1.372c.467 0 .84-.084 1.12-.252.289-.168.434-.411.434-.728 0-.383-.126-.644-.378-.784s-.611-.21-1.078-.21h-1.47Zm0 2.954v2.212h1.442c.261 0 .495-.014.7-.042.215-.037.397-.098.546-.182a.906.906 0 0 0 .364-.336.991.991 0 0 0 .126-.518c0-.42-.145-.714-.434-.882-.289-.168-.723-.252-1.302-.252h-1.442Zm11.663.84c0 .42-.074.784-.224 1.092-.149.308-.359.56-.63.756a2.76 2.76 0 0 1-.966.434c-.373.093-.779.14-1.218.14h-2.338v-7.266h1.232v2.534h1.19c.924 0 1.648.182 2.17.546.523.364.784.952.784 1.764Zm2.282 2.422h-1.232v-7.266h1.232V421Zm-6.426-3.682v2.632h1.106c.532 0 .962-.098 1.288-.294.336-.205.504-.541.504-1.008 0-.476-.149-.817-.448-1.022-.298-.205-.718-.308-1.26-.308h-1.19Zm12.102 3.822c-.56 0-1.045-.131-1.456-.392a2.856 2.856 0 0 1-.966-1.078v3.808h-1.232v-9.744h1.078l.126 1.414c.243-.476.57-.854.98-1.134.411-.28.92-.42 1.526-.42.42 0 .822.079 1.204.238.392.149.733.383 1.022.7.299.308.532.7.7 1.176.178.467.266 1.017.266 1.652 0 .644-.088 1.204-.266 1.68a3.494 3.494 0 0 1-.714 1.176 2.992 2.992 0 0 1-1.036.7 3.436 3.436 0 0 1-1.232.224Zm-.182-1.106c.644 0 1.162-.219 1.554-.658.402-.448.602-1.12.602-2.016 0-.877-.2-1.54-.602-1.988-.392-.457-.91-.686-1.554-.686-.317 0-.616.056-.896.168-.27.112-.508.28-.714.504a2.45 2.45 0 0 0-.476.826 3.723 3.723 0 0 0-.168 1.176c0 .448.056.84.168 1.176.122.336.28.616.476.84.206.224.444.392.714.504.28.103.579.154.896.154Zm9.11-.42a4.24 4.24 0 0 1-.322.532 2.419 2.419 0 0 1-1.19.854c-.261.093-.569.14-.924.14-.653 0-1.18-.182-1.582-.546-.401-.373-.602-.905-.602-1.596 0-.793.276-1.377.826-1.75.56-.373 1.354-.56 2.38-.56h1.358v-.602c0-.504-.13-.863-.392-1.078-.261-.215-.709-.322-1.344-.322-.448 0-.872.075-1.274.224-.401.14-.76.303-1.078.49v-1.106a5.438 5.438 0 0 1 1.05-.462 4.367 4.367 0 0 1 1.47-.238c.915 0 1.61.191 2.086.574.476.373.714.957.714 1.75v4.2c.01.103.014.21.014.322l.028.322c.01.093.019.173.028.238h-1.12a6.439 6.439 0 0 1-.084-.546 8.754 8.754 0 0 1-.028-.63l-.014-.21Zm-2.17.42c.383 0 .71-.079.98-.238.271-.159.49-.341.658-.546.168-.215.29-.42.364-.616.075-.205.112-.35.112-.434v-.532h-1.232c-.737 0-1.274.107-1.61.322-.326.205-.49.518-.49.938 0 .327.098.593.294.798.196.205.504.308.924.308Zm10.225-6.3v3.122h.658l2.31-3.122h1.358l-2.702 3.556 2.8 3.71h-1.498l-2.324-3.094h-.602V421h-1.232v-3.094h-.616L347.354 421h-1.456l2.8-3.668-2.702-3.598h1.414l2.268 3.122h.644v-3.122h1.232Zm11.231 6.65a3.919 3.919 0 0 1-.378.238 4.34 4.34 0 0 1-.546.252 4.604 4.604 0 0 1-.728.182 4.51 4.51 0 0 1-.91.084c-1.223 0-2.151-.331-2.786-.994-.635-.663-.952-1.591-.952-2.786 0-.588.084-1.115.252-1.582.177-.467.42-.859.728-1.176a3.024 3.024 0 0 1 1.092-.742c.42-.177.877-.266 1.372-.266.523 0 .989.089 1.4.266.411.177.747.439 1.008.784.271.345.453.775.546 1.288.103.504.103 1.092 0 1.764h-5.124c.047.784.28 1.372.7 1.764.42.383 1.045.574 1.876.574.56 0 1.041-.079 1.442-.238a5.07 5.07 0 0 0 1.008-.518v1.106Zm-2.884-5.698c-.532 0-.989.163-1.372.49-.383.327-.625.821-.728 1.484h3.906c.037-.672-.117-1.167-.462-1.484-.345-.327-.793-.49-1.344-.49Zm9.381 3.094h-3.514V421h-1.232v-7.266h1.232v2.996h3.514v-2.996h1.232V421h-1.232v-3.22Zm4.484 1.54 3.878-5.586h1.246V421h-1.232v-5.572L373.794 421h-1.26v-7.266h1.232v5.586Zm7.136-3.234c0-.411.074-.761.224-1.05.149-.299.359-.541.63-.728a2.76 2.76 0 0 1 .966-.434c.373-.093.779-.14 1.218-.14h2.338V421h-1.232v-2.632h-1.33L381.854 421h-1.47l2.1-2.94c-.504-.149-.896-.378-1.176-.686-.271-.308-.406-.737-.406-1.288Zm4.144 1.232v-2.534h-1.106c-.523 0-.952.098-1.288.294-.336.196-.504.513-.504.952 0 .457.149.789.448.994.298.196.723.294 1.274.294h1.176ZM284.98 170.962h7.854V181h-1.708v-8.568h-4.452V181h-1.694v-10.038Zm15.902 9.506c-.102.065-.228.14-.378.224a3.598 3.598 0 0 1-.532.21 5.432 5.432 0 0 1-1.638.238c-1.334 0-2.333-.331-2.996-.994-.653-.663-.98-1.591-.98-2.786 0-.588.089-1.115.266-1.582.178-.467.425-.859.742-1.176a3.117 3.117 0 0 1 1.134-.742c.439-.177.92-.266 1.442-.266.542 0 1.027.089 1.456.266.439.177.798.443 1.078.798.28.355.472.793.574 1.316.112.523.117 1.134.014 1.834h-5.026c.066.663.285 1.162.658 1.498.374.327.957.49 1.75.49.579 0 1.06-.07 1.442-.21.392-.149.724-.303.994-.462v1.344Zm-2.94-5.586c-.476 0-.877.145-1.204.434-.326.289-.541.719-.644 1.288h3.416c.019-.588-.112-1.022-.392-1.302s-.672-.42-1.176-.42Zm8.634 6.258c-.551 0-1.027-.121-1.428-.364a2.906 2.906 0 0 1-.952-1.008v3.71h-1.624v-9.744h1.484l.112 1.288c.243-.439.565-.784.966-1.036.401-.261.891-.392 1.47-.392.429 0 .835.079 1.218.238.392.149.733.383 1.022.7.289.308.518.7.686 1.176.177.467.266 1.017.266 1.652 0 .644-.089 1.204-.266 1.68a3.33 3.33 0 0 1-.7 1.176c-.289.308-.63.541-1.022.7a3.44 3.44 0 0 1-1.232.224Zm-.392-1.358c.579 0 1.045-.196 1.4-.588.364-.401.546-1.013.546-1.834 0-.812-.182-1.419-.546-1.82-.355-.401-.817-.602-1.386-.602-.289 0-.555.051-.798.154a1.678 1.678 0 0 0-.644.448 2.26 2.26 0 0 0-.42.77 3.227 3.227 0 0 0-.154 1.05c0 .411.051.77.154 1.078.103.299.243.551.42.756.177.196.387.345.63.448.252.093.518.14.798.14Zm4.988-6.048h2.968c1.838 0 2.758.607 2.758 1.82 0 .448-.126.803-.378 1.064-.243.252-.602.443-1.078.574.588.084 1.026.266 1.316.546.289.28.434.677.434 1.19 0 .355-.075.663-.224.924-.15.261-.36.476-.63.644a2.954 2.954 0 0 1-.966.378 5.885 5.885 0 0 1-1.26.126h-2.94v-7.266Zm1.61 1.246v1.722h1.19c.392 0 .709-.07.952-.21a.715.715 0 0 0 .364-.644c0-.327-.108-.551-.322-.672-.206-.131-.509-.196-.91-.196h-1.274Zm0 2.87v1.904h1.246c.448 0 .807-.065 1.078-.196.28-.131.42-.373.42-.728s-.126-.607-.378-.756c-.243-.149-.63-.224-1.162-.224h-1.204Zm9.155 3.29c-.513 0-.989-.084-1.428-.252a3.35 3.35 0 0 1-1.148-.728 3.617 3.617 0 0 1-.756-1.19c-.177-.467-.266-1.003-.266-1.61 0-.607.089-1.143.266-1.61.187-.467.439-.859.756-1.176a3.09 3.09 0 0 1 1.148-.728 3.962 3.962 0 0 1 1.428-.252c.513 0 .989.084 1.428.252a3.09 3.09 0 0 1 1.148.728c.327.317.583.709.77 1.176.187.467.28 1.003.28 1.61 0 .607-.093 1.143-.28 1.61a3.494 3.494 0 0 1-.77 1.19 3.35 3.35 0 0 1-1.148.728 3.962 3.962 0 0 1-1.428.252Zm0-1.358c.56 0 1.022-.196 1.386-.588.373-.392.56-1.003.56-1.834 0-.821-.187-1.428-.56-1.82-.364-.401-.826-.602-1.386-.602-.551 0-1.013.201-1.386.602-.364.392-.546.999-.546 1.82 0 .831.182 1.442.546 1.834.373.392.835.588 1.386.588Zm11.061.686c-.103.065-.229.14-.378.224-.15.075-.327.145-.532.21a5.449 5.449 0 0 1-1.638.238c-1.335 0-2.334-.331-2.996-.994-.654-.663-.98-1.591-.98-2.786 0-.588.088-1.115.266-1.582.177-.467.424-.859.742-1.176a3.1 3.1 0 0 1 1.134-.742 3.815 3.815 0 0 1 1.442-.266c.541 0 1.026.089 1.456.266.438.177.798.443 1.078.798.28.355.471.793.574 1.316.112.523.116 1.134.014 1.834h-5.026c.065.663.284 1.162.658 1.498.373.327.956.49 1.75.49.578 0 1.059-.07 1.442-.21.392-.149.723-.303.994-.462v1.344Zm-2.94-5.586c-.476 0-.878.145-1.204.434-.327.289-.542.719-.644 1.288h3.416c.018-.588-.112-1.022-.392-1.302s-.672-.42-1.176-.42Zm7.706-1.148h6.174V181h-1.624v-5.95h-2.926V181h-1.624v-7.266Zm11.148 7.406c-.514 0-.99-.084-1.428-.252a3.34 3.34 0 0 1-1.148-.728 3.585 3.585 0 0 1-.756-1.19c-.178-.467-.266-1.003-.266-1.61 0-.607.088-1.143.266-1.61.186-.467.438-.859.756-1.176a3.081 3.081 0 0 1 1.148-.728 3.955 3.955 0 0 1 1.428-.252c.513 0 .989.084 1.428.252.438.159.821.401 1.148.728.326.317.583.709.77 1.176.186.467.28 1.003.28 1.61 0 .607-.094 1.143-.28 1.61a3.509 3.509 0 0 1-.77 1.19 3.36 3.36 0 0 1-1.148.728 3.962 3.962 0 0 1-1.428.252Zm0-1.358c.56 0 1.022-.196 1.386-.588.373-.392.56-1.003.56-1.834 0-.821-.187-1.428-.56-1.82-.364-.401-.826-.602-1.386-.602-.551 0-1.013.201-1.386.602-.364.392-.546.999-.546 1.82 0 .831.182 1.442.546 1.834.373.392.835.588 1.386.588Zm7.238-1.736h-.63V181h-1.624v-7.266h1.624v2.996h.686l2.31-2.996h1.708l-2.744 3.5 2.856 3.766h-1.918l-2.268-2.954Zm8.074 3.094c-.513 0-.989-.084-1.428-.252a3.35 3.35 0 0 1-1.148-.728 3.617 3.617 0 0 1-.756-1.19c-.177-.467-.266-1.003-.266-1.61 0-.607.089-1.143.266-1.61.187-.467.439-.859.756-1.176a3.09 3.09 0 0 1 1.148-.728 3.962 3.962 0 0 1 1.428-.252c.513 0 .989.084 1.428.252a3.09 3.09 0 0 1 1.148.728c.327.317.583.709.77 1.176.187.467.28 1.003.28 1.61 0 .607-.093 1.143-.28 1.61a3.494 3.494 0 0 1-.77 1.19 3.35 3.35 0 0 1-1.148.728 3.962 3.962 0 0 1-1.428.252Zm0-1.358c.56 0 1.022-.196 1.386-.588.373-.392.56-1.003.56-1.834 0-.821-.187-1.428-.56-1.82-.364-.401-.826-.602-1.386-.602-.551 0-1.013.201-1.386.602-.364.392-.546.999-.546 1.82 0 .831.182 1.442.546 1.834.373.392.835.588 1.386.588Zm5.41-1.358c.102-.476.168-1.092.196-1.848.037-.765.056-1.713.056-2.842h5.222V181h-1.624v-5.95h-2.114a46.141 46.141 0 0 1-.112 2.548c-.056.737-.173 1.363-.35 1.876-.168.504-.416.891-.742 1.162-.318.271-.747.406-1.288.406-.075 0-.15-.005-.224-.014-.066 0-.136-.005-.21-.014v-1.512c.093.019.163.028.21.028a.749.749 0 0 0 .602-.266c.158-.187.284-.467.378-.84Zm13.389 2.044c-.103.065-.229.14-.378.224a3.642 3.642 0 0 1-.532.21 5.449 5.449 0 0 1-1.638.238c-1.335 0-2.333-.331-2.996-.994-.653-.663-.98-1.591-.98-2.786 0-.588.089-1.115.266-1.582.177-.467.425-.859.742-1.176a3.1 3.1 0 0 1 1.134-.742 3.82 3.82 0 0 1 1.442-.266 3.79 3.79 0 0 1 1.456.266c.439.177.798.443 1.078.798.28.355.471.793.574 1.316.112.523.117 1.134.014 1.834h-5.026c.065.663.285 1.162.658 1.498.373.327.957.49 1.75.49.579 0 1.059-.07 1.442-.21.392-.149.723-.303.994-.462v1.344Zm-2.94-5.586c-.476 0-.877.145-1.204.434-.327.289-.541.719-.644 1.288h3.416c.019-.588-.112-1.022-.392-1.302s-.672-.42-1.176-.42Zm9.32 3.052h-3.066V181h-1.624v-7.266h1.624v2.884h3.066v-2.884h1.624V181h-1.624v-3.066Zm5.055.868 3.36-5.068h1.596V181h-1.61v-5.04l-3.332 5.04h-1.624v-7.266h1.61v5.068Zm12.86 1.666c-.103.065-.229.14-.378.224a3.642 3.642 0 0 1-.532.21 5.449 5.449 0 0 1-1.638.238c-1.335 0-2.333-.331-2.996-.994-.653-.663-.98-1.591-.98-2.786 0-.588.089-1.115.266-1.582.177-.467.425-.859.742-1.176a3.1 3.1 0 0 1 1.134-.742 3.82 3.82 0 0 1 1.442-.266 3.79 3.79 0 0 1 1.456.266c.439.177.798.443 1.078.798.28.355.471.793.574 1.316.112.523.117 1.134.014 1.834h-5.026c.065.663.285 1.162.658 1.498.373.327.957.49 1.75.49.579 0 1.059-.07 1.442-.21.392-.149.723-.303.994-.462v1.344Zm-2.94-5.586c-.476 0-.877.145-1.204.434-.327.289-.541.719-.644 1.288h3.416c.019-.588-.112-1.022-.392-1.302s-.672-.42-1.176-.42ZM292.676 32.432V41h-1.708v-8.568h-3.052v-1.47h7.798v1.47h-3.038Zm7.474 8.708c-.55 0-1.026-.121-1.428-.364a2.906 2.906 0 0 1-.952-1.008v3.71h-1.624v-9.744h1.484l.112 1.288c.243-.439.565-.784.966-1.036.402-.261.892-.392 1.47-.392.43 0 .836.08 1.218.238.392.15.733.383 1.022.7.29.308.518.7.686 1.176.178.467.266 1.017.266 1.652 0 .644-.088 1.204-.266 1.68a3.335 3.335 0 0 1-.7 1.176c-.289.308-.63.541-1.022.7a3.43 3.43 0 0 1-1.232.224Zm-.392-1.358c.579 0 1.046-.196 1.4-.588.364-.401.546-1.013.546-1.834 0-.812-.182-1.419-.546-1.82-.354-.401-.816-.602-1.386-.602a2.03 2.03 0 0 0-.798.154 1.686 1.686 0 0 0-.644.448 2.263 2.263 0 0 0-.42.77 3.251 3.251 0 0 0-.154 1.05c0 .41.052.77.154 1.078.103.299.243.55.42.756.178.196.388.345.63.448.252.093.518.14.798.14Zm11.064.686a8.68 8.68 0 0 1-.378.224 3.711 3.711 0 0 1-.532.21 5.384 5.384 0 0 1-1.638.238c-1.335 0-2.333-.331-2.996-.994-.653-.663-.98-1.591-.98-2.786 0-.588.089-1.115.266-1.582.177-.467.425-.859.742-1.176a3.104 3.104 0 0 1 1.134-.742 3.813 3.813 0 0 1 1.442-.266 3.79 3.79 0 0 1 1.456.266c.439.177.798.443 1.078.798.28.355.471.793.574 1.316.112.523.117 1.134.014 1.834h-5.026c.065.663.285 1.162.658 1.498.373.327.957.49 1.75.49.579 0 1.059-.07 1.442-.21.392-.15.723-.303.994-.462v1.344Zm-2.94-5.586c-.476 0-.877.145-1.204.434-.327.29-.541.719-.644 1.288h3.416c.019-.588-.112-1.022-.392-1.302s-.672-.42-1.176-.42Zm7.782.168V41h-1.624v-5.95h-2.198v-1.316h6.062v1.316h-2.24Zm9.33 3.444c0 .42-.079.789-.238 1.106a2.071 2.071 0 0 1-.63.784c-.27.205-.592.36-.966.462a4.635 4.635 0 0 1-1.232.154h-2.8v-7.266h1.624v2.352h1.218c.952 0 1.694.196 2.226.588.532.392.798.999.798 1.82Zm-4.242-1.12v2.352h1.05c.448 0 .812-.089 1.092-.266.28-.187.42-.49.42-.91 0-.42-.126-.719-.378-.896-.252-.187-.616-.28-1.092-.28h-1.092Zm11.644 3.094a8.68 8.68 0 0 1-.378.224 3.711 3.711 0 0 1-.532.21 5.384 5.384 0 0 1-1.638.238c-1.335 0-2.333-.331-2.996-.994-.653-.663-.98-1.591-.98-2.786 0-.588.089-1.115.266-1.582.177-.467.425-.859.742-1.176a3.104 3.104 0 0 1 1.134-.742 3.813 3.813 0 0 1 1.442-.266 3.79 3.79 0 0 1 1.456.266c.439.177.798.443 1.078.798.28.355.471.793.574 1.316.112.523.117 1.134.014 1.834h-5.026c.065.663.285 1.162.658 1.498.373.327.957.49 1.75.49.579 0 1.059-.07 1.442-.21.392-.15.723-.303.994-.462v1.344Zm-2.94-5.586c-.476 0-.877.145-1.204.434-.327.29-.541.719-.644 1.288h3.416c.019-.588-.112-1.022-.392-1.302s-.672-.42-1.176-.42Zm7.706-1.148h6.174V41h-1.624v-5.95h-2.926V41h-1.624v-7.266Zm11.148 7.406c-.513 0-.989-.084-1.428-.252a3.345 3.345 0 0 1-1.148-.728 3.617 3.617 0 0 1-.756-1.19c-.177-.467-.266-1.003-.266-1.61 0-.607.089-1.143.266-1.61a3.46 3.46 0 0 1 .756-1.176 3.09 3.09 0 0 1 1.148-.728 3.962 3.962 0 0 1 1.428-.252c.513 0 .989.084 1.428.252a3.09 3.09 0 0 1 1.148.728c.327.317.583.71.77 1.176.187.467.28 1.003.28 1.61 0 .607-.093 1.143-.28 1.61a3.494 3.494 0 0 1-.77 1.19 3.35 3.35 0 0 1-1.148.728 3.962 3.962 0 0 1-1.428.252Zm0-1.358c.56 0 1.022-.196 1.386-.588.373-.392.56-1.003.56-1.834 0-.821-.187-1.428-.56-1.82-.364-.401-.826-.602-1.386-.602-.551 0-1.013.2-1.386.602-.364.392-.546.999-.546 1.82 0 .83.182 1.442.546 1.834.373.392.835.588 1.386.588Zm7.239-1.736h-.63V41h-1.624v-7.266h1.624v2.996h.686l2.31-2.996h1.708l-2.744 3.5L359.735 41h-1.918l-2.268-2.954Zm8.074 3.094c-.514 0-.99-.084-1.428-.252a3.336 3.336 0 0 1-1.148-.728 3.585 3.585 0 0 1-.756-1.19c-.178-.467-.267-1.003-.267-1.61 0-.607.089-1.143.267-1.61a3.43 3.43 0 0 1 .756-1.176c.326-.327.709-.57 1.148-.728a3.955 3.955 0 0 1 1.428-.252c.513 0 .989.084 1.428.252.438.159.821.401 1.148.728.326.317.583.71.77 1.176.186.467.28 1.003.28 1.61 0 .607-.094 1.143-.28 1.61a3.509 3.509 0 0 1-.77 1.19 3.36 3.36 0 0 1-1.148.728 3.962 3.962 0 0 1-1.428.252Zm0-1.358c.56 0 1.022-.196 1.386-.588.373-.392.56-1.003.56-1.834 0-.821-.187-1.428-.56-1.82-.364-.401-.826-.602-1.386-.602-.551 0-1.013.2-1.386.602-.364.392-.546.999-.546 1.82 0 .83.182 1.442.546 1.834.373.392.835.588 1.386.588Zm5.409-1.358c.103-.476.168-1.092.196-1.848.038-.765.056-1.713.056-2.842h5.222V41h-1.624v-5.95h-2.114a45.22 45.22 0 0 1-.112 2.548c-.056.737-.172 1.363-.35 1.876-.168.504-.415.891-.742 1.162-.317.27-.746.406-1.288.406-.074 0-.149-.005-.224-.014-.065 0-.135-.005-.21-.014v-1.512c.094.019.164.028.21.028a.746.746 0 0 0 .602-.266c.159-.187.285-.467.378-.84Zm13.39 2.044a8.68 8.68 0 0 1-.378.224c-.15.075-.327.145-.532.21a5.46 5.46 0 0 1-.714.168 5.48 5.48 0 0 1-.924.07c-1.335 0-2.334-.331-2.996-.994-.654-.663-.98-1.591-.98-2.786 0-.588.088-1.115.266-1.582.177-.467.424-.859.742-1.176a3.104 3.104 0 0 1 1.134-.742 3.81 3.81 0 0 1 1.442-.266c.541 0 1.026.089 1.456.266.438.177.798.443 1.078.798.28.355.471.793.574 1.316.112.523.116 1.134.014 1.834h-5.026c.065.663.284 1.162.658 1.498.373.327.956.49 1.75.49.578 0 1.059-.07 1.442-.21.392-.15.723-.303.994-.462v1.344Zm-2.94-5.586c-.476 0-.878.145-1.204.434-.327.29-.542.719-.644 1.288h3.416c.018-.588-.112-1.022-.392-1.302s-.672-.42-1.176-.42Zm9.319 3.052h-3.066V41h-1.624v-7.266h1.624v2.884h3.066v-2.884h1.624V41h-1.624v-3.066Zm5.055.868 3.36-5.068h1.596V41h-1.61v-5.04L393.87 41h-1.624v-7.266h1.61v5.068Zm12.86 1.666a7.62 7.62 0 0 1-.378.224 3.665 3.665 0 0 1-.532.21 5.384 5.384 0 0 1-1.638.238c-1.334 0-2.333-.331-2.996-.994-.653-.663-.98-1.591-.98-2.786 0-.588.089-1.115.266-1.582.178-.467.425-.859.742-1.176a3.121 3.121 0 0 1 1.134-.742c.439-.177.92-.266 1.442-.266a3.78 3.78 0 0 1 1.456.266c.439.177.798.443 1.078.798.28.355.472.793.574 1.316.112.523.117 1.134.014 1.834h-5.026c.066.663.285 1.162.658 1.498.374.327.957.49 1.75.49.579 0 1.06-.07 1.442-.21.392-.15.724-.303.994-.462v1.344Zm-2.94-5.586c-.476 0-.877.145-1.204.434-.326.29-.541.719-.644 1.288h3.416c.019-.588-.112-1.022-.392-1.302s-.672-.42-1.176-.42Z"/>
</svg>
