<svg xmlns="http://www.w3.org/2000/svg" width="768" height="494" fill="none" viewBox="0 0 768 494">
    <g filter="url(#filter0_d_31_278)">
        <rect width="374" height="380" x="198" y="14" fill="#fff" rx="10"/>
    </g>
    <path fill="#000" d="M338.154 32.804c-.688 0-1.384.192-2.088.576v-1.164a4.473 4.473 0 0 1 1.08-.408 5.081 5.081 0 0 1 1.236-.156c.8 0 1.416.168 1.848.504.44.336.66.864.66 1.584v3.252c0 .136.004.312.012.528.016.208.032.368.048.48h-1.296a5.482 5.482 0 0 1-.072-.468 7.173 7.173 0 0 1-.024-.54l-.012-.072c-.088.192-.216.38-.384.564-.16.184-.368.336-.624.456s-.576.18-.96.18c-.536 0-.992-.152-1.368-.456-.368-.312-.552-.764-.552-1.356 0-.672.252-1.18.756-1.524.504-.344 1.216-.516 2.136-.516h.948v-.384c0-.4-.104-.68-.312-.84-.208-.16-.552-.24-1.032-.24Zm1.344 2.796v-.42h-.864c-.56 0-.968.088-1.224.264a.818.818 0 0 0-.372.72c0 .272.076.488.228.648.16.152.392.228.696.228.296 0 .544-.06.744-.18.2-.128.356-.276.468-.444.12-.168.204-.328.252-.48.048-.16.072-.272.072-.336Zm2.893-3.828h1.272l.096 1.116c.2-.376.472-.676.816-.9.352-.224.776-.336 1.272-.336.488 0 .94.12 1.356.36.416.232.748.588.996 1.068.256.472.384 1.072.384 1.8s-.128 1.332-.384 1.812c-.248.48-.584.84-1.008 1.08a2.761 2.761 0 0 1-1.368.348c-.472 0-.88-.104-1.224-.312a2.489 2.489 0 0 1-.816-.864v3.18h-1.392v-8.352Zm4.764 3.108c0-.688-.156-1.204-.468-1.548-.304-.352-.7-.528-1.188-.528s-.9.172-1.236.516c-.328.344-.492.864-.492 1.56 0 .704.164 1.228.492 1.572.336.336.744.504 1.224.504.488 0 .888-.172 1.2-.516.312-.344.468-.864.468-1.56Zm2.596-3.108h1.272l.096 1.116c.2-.376.472-.676.816-.9.352-.224.776-.336 1.272-.336.488 0 .94.12 1.356.36.416.232.748.588.996 1.068.256.472.384 1.072.384 1.8s-.128 1.332-.384 1.812c-.248.48-.584.84-1.008 1.08a2.761 2.761 0 0 1-1.368.348c-.472 0-.88-.104-1.224-.312a2.489 2.489 0 0 1-.816-.864v3.18h-1.392v-8.352Zm4.764 3.108c0-.688-.156-1.204-.468-1.548-.304-.352-.7-.528-1.188-.528s-.9.172-1.236.516c-.328.344-.492.864-.492 1.56 0 .704.164 1.228.492 1.572.336.336.744.504 1.224.504.488 0 .888-.172 1.2-.516.312-.344.468-.864.468-1.56Zm3.175 3.192a.951.951 0 0 1-.684-.264.921.921 0 0 1-.264-.66c0-.264.088-.484.264-.66a.929.929 0 0 1 .684-.276c.272 0 .5.092.684.276a.876.876 0 0 1 .276.66.9.9 0 0 1-.276.66.951.951 0 0 1-.684.264Zm2.315-6.3h1.272l.096 1.116c.2-.376.472-.676.816-.9.352-.224.776-.336 1.272-.336.488 0 .94.12 1.356.36.416.232.748.588.996 1.068.256.472.384 1.072.384 1.8s-.128 1.332-.384 1.812c-.248.48-.584.84-1.008 1.08a2.761 2.761 0 0 1-1.368.348c-.472 0-.88-.104-1.224-.312a2.489 2.489 0 0 1-.816-.864v3.18h-1.392v-8.352Zm4.764 3.108c0-.688-.156-1.204-.468-1.548-.304-.352-.7-.528-1.188-.528s-.9.172-1.236.516c-.328.344-.492.864-.492 1.56 0 .704.164 1.228.492 1.572.336.336.744.504 1.224.504.488 0 .888-.172 1.2-.516.312-.344.468-.864.468-1.56Zm3.198 5.364c-.4 0-.736-.064-1.008-.192v-1.248c.256.184.58.276.972.276.256 0 .472-.056.648-.168.184-.104.352-.28.504-.528l-2.508-6.612h1.5l1.74 4.836 1.728-4.836h1.296l-2.244 6.156c-.208.56-.436 1.008-.684 1.344-.24.344-.516.592-.828.744-.312.152-.684.228-1.116.228Zm10.382-7.656c-.664 0-1.336.204-2.016.612v-.948a3.804 3.804 0 0 1 1.02-.432 4.142 4.142 0 0 1 1.14-.168c.784 0 1.38.164 1.788.492.408.328.612.828.612 1.5v3.348c0 .136.004.312.012.528.016.208.032.368.048.48h-.96a5.482 5.482 0 0 1-.072-.468 7.173 7.173 0 0 1-.024-.54l-.012-.18a3.359 3.359 0 0 1-.396.6c-.168.2-.392.368-.672.504-.272.136-.612.204-1.02.204-.56 0-1.012-.16-1.356-.48-.344-.32-.516-.772-.516-1.356 0-.68.24-1.18.72-1.5.48-.32 1.156-.48 2.028-.48h1.164v-.516c0-.432-.112-.74-.336-.924-.224-.184-.608-.276-1.152-.276Zm1.488 3.012v-.456h-1.056c-.632 0-1.092.092-1.38.276-.28.184-.42.452-.42.804 0 .28.084.508.252.684.176.176.44.264.792.264.328 0 .608-.064.84-.192.232-.136.42-.296.564-.48.144-.192.248-.372.312-.54.064-.168.096-.288.096-.36Zm2.716-3.828h.924l.108 1.212c.2-.4.476-.72.828-.96.36-.248.8-.372 1.32-.372.488 0 .936.12 1.344.36.416.232.752.588 1.008 1.068.256.472.384 1.072.384 1.8s-.132 1.332-.396 1.812c-.256.48-.596.84-1.02 1.08a2.761 2.761 0 0 1-1.368.348c-.472 0-.884-.112-1.236-.336a2.408 2.408 0 0 1-.84-.924v3.264h-1.056v-8.352Zm4.824 3.108c0-.752-.172-1.32-.516-1.704-.344-.392-.788-.588-1.332-.588s-1.004.192-1.38.576c-.368.376-.552.948-.552 1.716 0 .776.184 1.352.552 1.728.376.376.836.564 1.38.564.544 0 .988-.192 1.332-.576.344-.384.516-.956.516-1.716Zm2.372-3.108h.924l.108 1.212c.2-.4.476-.72.828-.96.36-.248.8-.372 1.32-.372.488 0 .936.12 1.344.36.416.232.752.588 1.008 1.068.256.472.384 1.072.384 1.8s-.132 1.332-.396 1.812c-.256.48-.596.84-1.02 1.08a2.761 2.761 0 0 1-1.368.348c-.472 0-.884-.112-1.236-.336a2.408 2.408 0 0 1-.84-.924v3.264h-1.056v-8.352Zm4.824 3.108c0-.752-.172-1.32-.516-1.704-.344-.392-.788-.588-1.332-.588s-1.004.192-1.38.576c-.368.376-.552.948-.552 1.716 0 .776.184 1.352.552 1.728.376.376.836.564 1.38.564.544 0 .988-.192 1.332-.576.344-.384.516-.956.516-1.716Zm2.371-5.484H398V38h-1.056v-8.604Zm3.317 1.464c-.216 0-.388-.064-.516-.192a.692.692 0 0 1-.192-.492.675.675 0 0 1 .708-.696c.208 0 .372.068.492.204.12.136.18.3.18.492s-.06.356-.18.492c-.12.128-.284.192-.492.192Zm-.54.912h1.056V38h-1.056v-6.228Zm5.466 6.348c-.968 0-1.732-.284-2.292-.852-.56-.576-.84-1.372-.84-2.388 0-1.016.284-1.808.852-2.376.568-.568 1.344-.852 2.328-.852.376 0 .728.044 1.056.132.328.08.592.2.792.36v.948a3.423 3.423 0 0 0-1.836-.504c-.72 0-1.252.192-1.596.576-.344.376-.516.948-.516 1.716s.164 1.344.492 1.728c.336.376.856.564 1.56.564.68 0 1.312-.164 1.896-.492v.948c-.52.328-1.152.492-1.896.492Zm5.295-5.532c-.664 0-1.336.204-2.016.612v-.948a3.804 3.804 0 0 1 1.02-.432 4.142 4.142 0 0 1 1.14-.168c.784 0 1.38.164 1.788.492.408.328.612.828.612 1.5v3.348c0 .136.004.312.012.528.016.208.032.368.048.48h-.96a5.482 5.482 0 0 1-.072-.468 7.173 7.173 0 0 1-.024-.54l-.012-.18a3.359 3.359 0 0 1-.396.6c-.168.2-.392.368-.672.504-.272.136-.612.204-1.02.204-.56 0-1.012-.16-1.356-.48-.344-.32-.516-.772-.516-1.356 0-.68.24-1.18.72-1.5.48-.32 1.156-.48 2.028-.48h1.164v-.516c0-.432-.112-.74-.336-.924-.224-.184-.608-.276-1.152-.276Zm1.488 3.012v-.456h-1.056c-.632 0-1.092.092-1.38.276-.28.184-.42.452-.42.804 0 .28.084.508.252.684.176.176.44.264.792.264.328 0 .608-.064.84-.192.232-.136.42-.296.564-.48.144-.192.248-.372.312-.54.064-.168.096-.288.096-.36Zm2.212-2.928v-.9h.744v-1.308h1.056v1.308h1.812v.9h-1.812v3.744c0 .264.068.456.204.576.136.12.368.18.696.18.312 0 .596-.088.852-.264v.96a1.48 1.48 0 0 1-.504.18 2.767 2.767 0 0 1-.624.072c-.4 0-.724-.076-.972-.228a1.36 1.36 0 0 1-.54-.588 1.767 1.767 0 0 1-.168-.756v-3.876h-.744Zm5.497-1.812c-.216 0-.388-.064-.516-.192a.692.692 0 0 1-.192-.492.675.675 0 0 1 .708-.696c.208 0 .372.068.492.204.12.136.18.3.18.492s-.06.356-.18.492c-.12.128-.284.192-.492.192Zm-.54.912h1.056V38h-1.056v-6.228Zm5.334 6.348c-.568 0-1.08-.124-1.536-.372a2.784 2.784 0 0 1-1.068-1.104c-.264-.488-.396-1.076-.396-1.764s.132-1.272.396-1.752.62-.844 1.068-1.092a3.083 3.083 0 0 1 1.536-.384c.576 0 1.092.128 1.548.384a2.68 2.68 0 0 1 1.08 1.092c.264.48.396 1.064.396 1.752s-.132 1.276-.396 1.764a2.76 2.76 0 0 1-1.08 1.104 3.187 3.187 0 0 1-1.548.372Zm0-.948c.56 0 1.024-.184 1.392-.552.368-.376.552-.956.552-1.74s-.184-1.36-.552-1.728c-.368-.376-.832-.564-1.392-.564-.552 0-1.012.188-1.38.564-.36.368-.54.944-.54 1.728s.18 1.364.54 1.74c.368.368.828.552 1.38.552Zm7.263-4.584c-.48 0-.872.112-1.176.336a2.455 2.455 0 0 0-.72.84V38h-1.056v-6.228h.996l.036 1.116h.024c.168-.352.432-.644.792-.876.36-.24.816-.36 1.368-.36.616 0 1.104.164 1.464.492.368.328.552.824.552 1.488V38h-1.056v-4.26c0-.424-.112-.72-.336-.888-.216-.176-.512-.264-.888-.264Z"/>
    <rect width="140" height="318" x="411" y="55" fill="#fff" stroke="#5282FF" stroke-width="2" rx="9"/>
    <path fill="#000" d="M428.729 69.396h2.748c.976 0 1.732.204 2.268.612.544.4.816 1.028.816 1.884 0 .648-.136 1.176-.408 1.584a2.312 2.312 0 0 1-1.116.9c-.472.184-1.024.276-1.656.276h-1.524V78h-1.128v-8.604Zm2.652 4.236c.608 0 1.1-.132 1.476-.396.376-.264.564-.708.564-1.332 0-.52-.168-.896-.504-1.128-.336-.232-.816-.348-1.44-.348h-1.62v3.204h1.524Zm7.553-.804c-.496.04-.92.164-1.272.372a1.87 1.87 0 0 0-.756.84V78h-1.056v-6.228h.924l.108 1.356h.024c.2-.416.472-.752.816-1.008a2.553 2.553 0 0 1 1.212-.468v1.176Zm3.539 5.292c-.568 0-1.08-.124-1.536-.372a2.784 2.784 0 0 1-1.068-1.104c-.264-.488-.396-1.076-.396-1.764s.132-1.272.396-1.752.62-.844 1.068-1.092a3.083 3.083 0 0 1 1.536-.384c.576 0 1.092.128 1.548.384a2.68 2.68 0 0 1 1.08 1.092c.264.48.396 1.064.396 1.752s-.132 1.276-.396 1.764a2.76 2.76 0 0 1-1.08 1.104 3.187 3.187 0 0 1-1.548.372Zm0-.948c.56 0 1.024-.184 1.392-.552.368-.376.552-.956.552-1.74s-.184-1.36-.552-1.728c-.368-.376-.832-.564-1.392-.564-.552 0-1.012.188-1.38.564-.36.368-.54.944-.54 1.728s.18 1.364.54 1.74c.368.368.828.552 1.38.552Zm6.999.948c-.968 0-1.732-.284-2.292-.852-.56-.576-.84-1.372-.84-2.388 0-1.016.284-1.808.852-2.376.568-.568 1.344-.852 2.328-.852.376 0 .728.044 1.056.132.328.08.592.2.792.36v.948a3.423 3.423 0 0 0-1.836-.504c-.72 0-1.252.192-1.596.576-.344.376-.516.948-.516 1.716s.164 1.344.492 1.728c.336.376.856.564 1.56.564.68 0 1.312-.164 1.896-.492v.948c-.52.328-1.152.492-1.896.492Zm5.943 0c-1.04 0-1.836-.284-2.388-.852-.544-.576-.816-1.372-.816-2.388 0-.68.128-1.26.384-1.74s.608-.848 1.056-1.104a2.993 2.993 0 0 1 1.512-.384c.952 0 1.652.316 2.1.948.448.624.592 1.48.432 2.568h-4.392c.088 1.336.824 2.004 2.208 2.004.76 0 1.46-.216 2.1-.648v.948c-.288.2-.624.36-1.008.48-.384.112-.78.168-1.188.168Zm-.276-5.532c-.456 0-.848.14-1.176.42-.328.28-.536.704-.624 1.272h3.348c.024-.536-.1-.952-.372-1.248-.272-.296-.664-.444-1.176-.444Zm5.871 5.532c-.456 0-.892-.064-1.308-.192-.408-.136-.74-.316-.996-.54v-.948c.248.24.58.432.996.576.424.144.856.216 1.296.216.976 0 1.464-.316 1.464-.948a.698.698 0 0 0-.132-.444c-.08-.12-.232-.22-.456-.3a5.694 5.694 0 0 0-.972-.252c-.808-.16-1.372-.376-1.692-.648-.32-.28-.48-.676-.48-1.188 0-.568.22-1.008.66-1.32.44-.32 1.048-.48 1.824-.48.368 0 .728.04 1.08.12.36.072.652.172.876.3v.948c-.464-.32-1.104-.48-1.92-.48-.504 0-.876.072-1.116.216-.232.144-.348.368-.348.672 0 .16.036.292.108.396.072.104.216.196.432.276.216.08.54.164.972.252.552.112.988.248 1.308.408.328.152.56.348.696.588.144.24.216.544.216.912 0 .584-.22 1.04-.66 1.368-.44.328-1.056.492-1.848.492Zm5.801 0c-.456 0-.892-.064-1.308-.192-.408-.136-.74-.316-.996-.54v-.948c.248.24.58.432.996.576.424.144.856.216 1.296.216.976 0 1.464-.316 1.464-.948a.698.698 0 0 0-.132-.444c-.08-.12-.232-.22-.456-.3a5.694 5.694 0 0 0-.972-.252c-.808-.16-1.372-.376-1.692-.648-.32-.28-.48-.676-.48-1.188 0-.568.22-1.008.66-1.32.44-.32 1.048-.48 1.824-.48.368 0 .728.04 1.08.12.36.072.652.172.876.3v.948c-.464-.32-1.104-.48-1.92-.48-.504 0-.876.072-1.116.216-.232.144-.348.368-.348.672 0 .16.036.292.108.396.072.104.216.196.432.276.216.08.54.164.972.252.552.112.988.248 1.308.408.328.152.56.348.696.588.144.24.216.544.216.912 0 .584-.22 1.04-.66 1.368-.44.328-1.056.492-1.848.492Zm6.365 0c-.568 0-1.08-.124-1.536-.372a2.784 2.784 0 0 1-1.068-1.104c-.264-.488-.396-1.076-.396-1.764s.132-1.272.396-1.752.62-.844 1.068-1.092a3.083 3.083 0 0 1 1.536-.384c.576 0 1.092.128 1.548.384a2.68 2.68 0 0 1 1.08 1.092c.264.48.396 1.064.396 1.752s-.132 1.276-.396 1.764a2.76 2.76 0 0 1-1.08 1.104 3.187 3.187 0 0 1-1.548.372Zm0-.948c.56 0 1.024-.184 1.392-.552.368-.376.552-.956.552-1.74s-.184-1.36-.552-1.728c-.368-.376-.832-.564-1.392-.564-.552 0-1.012.188-1.38.564-.36.368-.54.944-.54 1.728s.18 1.364.54 1.74c.368.368.828.552 1.38.552Zm7.395-4.344c-.496.04-.92.164-1.272.372a1.87 1.87 0 0 0-.756.84V78h-1.056v-6.228h.924l.108 1.356h.024c.2-.416.472-.752.816-1.008a2.553 2.553 0 0 1 1.212-.468v1.176ZM484.632 78v-5.328h-.756v-.9h.756v-.156c0-.736.196-1.308.588-1.716.392-.408.928-.612 1.608-.612.304 0 .568.036.792.108v.96a1.406 1.406 0 0 0-.312-.084 2.484 2.484 0 0 0-.432-.036c-.368 0-.66.112-.876.336-.208.224-.312.572-.312 1.044v.156h1.8v.9h-1.8V78h-1.056Zm8.089-1.116a2.257 2.257 0 0 1-.78.876c-.344.24-.796.36-1.356.36-.576 0-1.044-.164-1.404-.492-.352-.328-.528-.828-.528-1.5v-4.356h1.068v4.356c0 .408.112.684.336.828.224.144.5.216.828.216.464 0 .836-.104 1.116-.312.28-.208.52-.492.72-.852v-4.236h1.056V78h-.936l-.096-1.116h-.024Zm5.741-4.296c-.48 0-.872.112-1.176.336a2.455 2.455 0 0 0-.72.84V78h-1.056v-6.228h.996l.036 1.116h.024c.168-.352.432-.644.792-.876.36-.24.816-.36 1.368-.36.616 0 1.104.164 1.464.492.368.328.552.824.552 1.488V78h-1.056v-4.26c0-.424-.112-.72-.336-.888-.216-.176-.512-.264-.888-.264Zm6.639 5.532c-.968 0-1.732-.284-2.292-.852-.56-.576-.84-1.372-.84-2.388 0-1.016.284-1.808.852-2.376.568-.568 1.344-.852 2.328-.852.376 0 .728.044 1.056.132.328.08.592.2.792.36v.948a3.423 3.423 0 0 0-1.836-.504c-.72 0-1.252.192-1.596.576-.344.376-.516.948-.516 1.716s.164 1.344.492 1.728c.336.376.856.564 1.56.564.68 0 1.312-.164 1.896-.492v.948c-.52.328-1.152.492-1.896.492Zm2.738-5.448v-.9h.744v-1.308h1.056v1.308h1.812v.9h-1.812v3.744c0 .264.068.456.204.576.136.12.368.18.696.18.312 0 .596-.088.852-.264v.96a1.48 1.48 0 0 1-.504.18 2.767 2.767 0 0 1-.624.072c-.4 0-.724-.076-.972-.228a1.36 1.36 0 0 1-.54-.588 1.767 1.767 0 0 1-.168-.756v-3.876h-.744Zm5.497-1.812c-.216 0-.388-.064-.516-.192a.692.692 0 0 1-.192-.492.675.675 0 0 1 .708-.696c.208 0 .372.068.492.204.12.136.18.3.18.492s-.06.356-.18.492c-.12.128-.284.192-.492.192Zm-.54.912h1.056V78h-1.056v-6.228Zm5.333 6.348c-.568 0-1.08-.124-1.536-.372a2.784 2.784 0 0 1-1.068-1.104c-.264-.488-.396-1.076-.396-1.764s.132-1.272.396-1.752.62-.844 1.068-1.092a3.083 3.083 0 0 1 1.536-.384c.576 0 1.092.128 1.548.384a2.68 2.68 0 0 1 1.08 1.092c.264.48.396 1.064.396 1.752s-.132 1.276-.396 1.764a2.76 2.76 0 0 1-1.08 1.104 3.187 3.187 0 0 1-1.548.372Zm0-.948c.56 0 1.024-.184 1.392-.552.368-.376.552-.956.552-1.74s-.184-1.36-.552-1.728c-.368-.376-.832-.564-1.392-.564-.552 0-1.012.188-1.38.564-.36.368-.54.944-.54 1.728s.18 1.364.54 1.74c.368.368.828.552 1.38.552Zm7.263-4.584c-.48 0-.872.112-1.176.336a2.455 2.455 0 0 0-.72.84V78h-1.056v-6.228h.996l.036 1.116h.024c.168-.352.432-.644.792-.876.36-.24.816-.36 1.368-.36.616 0 1.104.164 1.464.492.368.328.552.824.552 1.488V78h-1.056v-4.26c0-.424-.112-.72-.336-.888-.216-.176-.512-.264-.888-.264Zm5.943 5.532c-.456 0-.892-.064-1.308-.192-.408-.136-.74-.316-.996-.54v-.948c.248.24.58.432.996.576.424.144.856.216 1.296.216.976 0 1.464-.316 1.464-.948a.698.698 0 0 0-.132-.444c-.08-.12-.232-.22-.456-.3a5.694 5.694 0 0 0-.972-.252c-.808-.16-1.372-.376-1.692-.648-.32-.28-.48-.676-.48-1.188 0-.568.22-1.008.66-1.32.44-.32 1.048-.48 1.824-.48.368 0 .728.04 1.08.12.36.072.652.172.876.3v.948c-.464-.32-1.104-.48-1.92-.48-.504 0-.876.072-1.116.216-.232.144-.348.368-.348.672 0 .16.036.292.108.396.072.104.216.196.432.276.216.08.54.164.972.252.552.112.988.248 1.308.408.328.152.56.348.696.588.144.24.216.544.216.912 0 .584-.22 1.04-.66 1.368-.44.328-1.056.492-1.848.492Z"/>
    <rect width="102" height="44" x="430" y="94" fill="#D6E1FF" rx="8"/>
    <path fill="#000" d="M463.554 112.86c-.216 0-.388-.064-.516-.192a.692.692 0 0 1-.192-.492.675.675 0 0 1 .708-.696c.208 0 .372.068.492.204.12.136.18.3.18.492s-.06.356-.18.492c-.12.128-.284.192-.492.192Zm-.54.912h1.056V120h-1.056v-6.228Zm5.73.816c-.48 0-.872.112-1.176.336a2.455 2.455 0 0 0-.72.84V120h-1.056v-6.228h.996l.036 1.116h.024c.168-.352.432-.644.792-.876.36-.24.816-.36 1.368-.36.616 0 1.104.164 1.464.492.368.328.552.824.552 1.488V120h-1.056v-4.26c0-.424-.112-.72-.336-.888-.216-.176-.512-.264-.888-.264Zm3.506 2.292c0-.728.128-1.328.384-1.8.256-.48.596-.836 1.02-1.068.432-.24.9-.36 1.404-.36.472 0 .88.1 1.224.3.344.192.62.468.828.828v-3.384h1.056V120h-.924l-.084-1.224a2.46 2.46 0 0 1-.816.984c-.344.24-.776.36-1.296.36-.496 0-.96-.116-1.392-.348-.424-.24-.764-.6-1.02-1.08-.256-.48-.384-1.084-.384-1.812Zm4.872 0c0-.776-.184-1.352-.552-1.728a1.838 1.838 0 0 0-1.368-.564c-.544 0-.992.196-1.344.588-.352.384-.528.952-.528 1.704 0 .76.176 1.332.528 1.716.352.384.8.576 1.344.576s1-.188 1.368-.564c.368-.376.552-.952.552-1.728Zm5.527 3.24c-1.04 0-1.836-.284-2.388-.852-.544-.576-.816-1.372-.816-2.388 0-.68.128-1.26.384-1.74s.608-.848 1.056-1.104a2.993 2.993 0 0 1 1.512-.384c.952 0 1.652.316 2.1.948.448.624.592 1.48.432 2.568h-4.392c.088 1.336.824 2.004 2.208 2.004.76 0 1.46-.216 2.1-.648v.948c-.288.2-.624.36-1.008.48-.384.112-.78.168-1.188.168Zm-.276-5.532c-.456 0-.848.14-1.176.42-.328.28-.536.704-.624 1.272h3.348c.024-.536-.1-.952-.372-1.248-.272-.296-.664-.444-1.176-.444Zm3.401-.816h1.224l1.488 2.196 1.5-2.196h1.092l-2.064 2.976 2.172 3.252h-1.224l-1.668-2.472-1.68 2.472h-1.104l2.256-3.228-1.992-3Zm9.443 7.896h-1.044a7.27 7.27 0 0 1-1.392-2.448 9.196 9.196 0 0 1-.456-2.904c0-.68.068-1.348.204-2.004.136-.664.34-1.284.612-1.86a5.938 5.938 0 0 1 1.032-1.524h1.044a5.198 5.198 0 0 0-1.068 1.488 8.184 8.184 0 0 0-.612 1.86 10.44 10.44 0 0 0-.192 2.004c0 1.016.148 1.988.444 2.916.304.928.78 1.752 1.428 2.472Zm.786 0a6.694 6.694 0 0 0 1.416-2.472c.304-.928.456-1.9.456-2.916 0-.68-.068-1.348-.204-2.004a7.466 7.466 0 0 0-.612-1.86 5.015 5.015 0 0 0-1.056-1.488h1.044c.416.432.76.94 1.032 1.524.272.576.476 1.196.612 1.86.136.656.204 1.324.204 2.004a8.98 8.98 0 0 1-.468 2.904 7.11 7.11 0 0 1-1.38 2.448h-1.044Z"/>
    <rect width="102" height="44" x="430" y="148" fill="#D6E1FF" rx="8"/>
    <path fill="#000" d="M445.981 167.772h.924l.108 1.212c.2-.4.476-.72.828-.96.36-.248.8-.372 1.32-.372.488 0 .936.12 1.344.36.416.232.752.588 1.008 1.068.256.472.384 1.072.384 1.8s-.132 1.332-.396 1.812c-.256.48-.596.84-1.02 1.08a2.761 2.761 0 0 1-1.368.348c-.472 0-.884-.112-1.236-.336a2.408 2.408 0 0 1-.84-.924v3.264h-1.056v-8.352Zm4.824 3.108c0-.752-.172-1.32-.516-1.704-.344-.392-.788-.588-1.332-.588s-1.004.192-1.38.576c-.368.376-.552.948-.552 1.716 0 .776.184 1.352.552 1.728.376.376.836.564 1.38.564.544 0 .988-.192 1.332-.576.344-.384.516-.956.516-1.716Zm4.928 3.24c-.568 0-1.08-.124-1.536-.372a2.784 2.784 0 0 1-1.068-1.104c-.264-.488-.396-1.076-.396-1.764s.132-1.272.396-1.752.62-.844 1.068-1.092a3.083 3.083 0 0 1 1.536-.384c.576 0 1.092.128 1.548.384a2.68 2.68 0 0 1 1.08 1.092c.264.48.396 1.064.396 1.752s-.132 1.276-.396 1.764a2.76 2.76 0 0 1-1.08 1.104 3.187 3.187 0 0 1-1.548.372Zm0-.948c.56 0 1.024-.184 1.392-.552.368-.376.552-.956.552-1.74s-.184-1.36-.552-1.728c-.368-.376-.832-.564-1.392-.564-.552 0-1.012.188-1.38.564-.36.368-.541.944-.541 1.728s.181 1.364.541 1.74c.368.368.828.552 1.38.552Zm6.303.948c-.456 0-.892-.064-1.308-.192-.408-.136-.74-.316-.996-.54v-.948c.248.24.58.432.996.576.424.144.856.216 1.296.216.976 0 1.464-.316 1.464-.948a.698.698 0 0 0-.132-.444c-.08-.12-.232-.22-.456-.3a5.694 5.694 0 0 0-.972-.252c-.808-.16-1.372-.376-1.692-.648-.32-.28-.48-.676-.48-1.188 0-.568.22-1.008.66-1.32.44-.32 1.048-.48 1.824-.48.368 0 .728.04 1.08.12.36.072.652.172.876.3v.948c-.464-.32-1.104-.48-1.92-.48-.504 0-.876.072-1.116.216-.232.144-.348.368-.348.672 0 .16.036.292.108.396.072.104.216.196.432.276.216.08.54.164.972.252.552.112.988.248 1.308.408.328.152.56.348.696.588.144.24.216.544.216.912 0 .584-.22 1.04-.66 1.368-.44.328-1.056.492-1.848.492Zm3.304-5.448v-.9h.744v-1.308h1.056v1.308h1.812v.9h-1.812v3.744c0 .264.068.456.204.576.136.12.368.18.696.18.312 0 .596-.088.852-.264v.96a1.48 1.48 0 0 1-.504.18 2.767 2.767 0 0 1-.624.072c-.4 0-.724-.076-.972-.228a1.36 1.36 0 0 1-.54-.588 1.767 1.767 0 0 1-.168-.756v-3.876h-.744Zm7.946 6.996h-1.044a7.27 7.27 0 0 1-1.392-2.448 9.196 9.196 0 0 1-.456-2.904c0-.68.068-1.348.204-2.004.136-.664.34-1.284.612-1.86a5.938 5.938 0 0 1 1.032-1.524h1.044a5.198 5.198 0 0 0-1.068 1.488 8.184 8.184 0 0 0-.612 1.86 10.44 10.44 0 0 0-.192 2.004c0 1.016.148 1.988.444 2.916.304.928.78 1.752 1.428 2.472Zm1.254-7.896h.924l.108 1.212c.2-.4.476-.72.828-.96.36-.248.8-.372 1.32-.372.488 0 .936.12 1.344.36.416.232.752.588 1.008 1.068.256.472.384 1.072.384 1.8s-.132 1.332-.396 1.812c-.256.48-.596.84-1.02 1.08a2.761 2.761 0 0 1-1.368.348c-.472 0-.884-.112-1.236-.336a2.408 2.408 0 0 1-.84-.924v3.264h-1.056v-8.352Zm4.824 3.108c0-.752-.172-1.32-.516-1.704-.344-.392-.788-.588-1.332-.588s-1.004.192-1.38.576c-.368.376-.552.948-.552 1.716 0 .776.184 1.352.552 1.728.376.376.836.564 1.38.564.544 0 .988-.192 1.332-.576.344-.384.516-.956.516-1.716Zm4.927 3.24c-.568 0-1.08-.124-1.536-.372a2.784 2.784 0 0 1-1.068-1.104c-.264-.488-.396-1.076-.396-1.764s.132-1.272.396-1.752.62-.844 1.068-1.092a3.083 3.083 0 0 1 1.536-.384c.576 0 1.092.128 1.548.384a2.68 2.68 0 0 1 1.08 1.092c.264.48.396 1.064.396 1.752s-.132 1.276-.396 1.764a2.76 2.76 0 0 1-1.08 1.104 3.187 3.187 0 0 1-1.548.372Zm0-.948c.56 0 1.024-.184 1.392-.552.368-.376.552-.956.552-1.74s-.184-1.36-.552-1.728c-.368-.376-.832-.564-1.392-.564-.552 0-1.012.188-1.38.564-.36.368-.54.944-.54 1.728s.18 1.364.54 1.74c.368.368.828.552 1.38.552Zm6.303.948c-.456 0-.892-.064-1.308-.192-.408-.136-.74-.316-.996-.54v-.948c.248.24.58.432.996.576.424.144.856.216 1.296.216.976 0 1.464-.316 1.464-.948a.698.698 0 0 0-.132-.444c-.08-.12-.232-.22-.456-.3a5.694 5.694 0 0 0-.972-.252c-.808-.16-1.372-.376-1.692-.648-.32-.28-.48-.676-.48-1.188 0-.568.22-1.008.66-1.32.44-.32 1.048-.48 1.824-.48.368 0 .728.04 1.08.12.36.072.652.172.876.3v.948c-.464-.32-1.104-.48-1.92-.48-.504 0-.876.072-1.116.216-.232.144-.348.368-.348.672 0 .16.036.292.108.396.072.104.216.196.432.276.216.08.54.164.972.252.552.112.988.248 1.308.408.328.152.56.348.696.588.144.24.216.544.216.912 0 .584-.22 1.04-.66 1.368-.44.328-1.056.492-1.848.492Zm3.305-5.448v-.9h.744v-1.308h1.056v1.308h1.812v.9h-1.812v3.744c0 .264.068.456.204.576.136.12.368.18.696.18.312 0 .596-.088.852-.264v.96a1.48 1.48 0 0 1-.504.18 2.767 2.767 0 0 1-.624.072c-.4 0-.724-.076-.972-.228a1.36 1.36 0 0 1-.54-.588 1.767 1.767 0 0 1-.168-.756v-3.876h-.744Zm3.973 6.708v-.9h4.92v.9h-4.92Zm6.2-8.52c-.216 0-.388-.064-.516-.192a.692.692 0 0 1-.192-.492.675.675 0 0 1 .708-.696c.208 0 .372.068.492.204.12.136.18.3.18.492s-.06.356-.18.492c-.12.128-.284.192-.492.192Zm-.54.912h1.056V174h-1.056v-6.228Zm2.333 3.108c0-.728.128-1.328.384-1.8.256-.48.596-.836 1.02-1.068.432-.24.9-.36 1.404-.36.472 0 .88.1 1.224.3.344.192.62.468.828.828v-3.384h1.056V174h-.924l-.084-1.224a2.46 2.46 0 0 1-.816.984c-.344.24-.776.36-1.296.36-.496 0-.96-.116-1.392-.348-.424-.24-.764-.6-1.02-1.08-.256-.48-.384-1.084-.384-1.812Zm4.872 0c0-.776-.184-1.352-.552-1.728a1.838 1.838 0 0 0-1.368-.564c-.544 0-.992.196-1.344.588-.352.384-.528.952-.528 1.704 0 .76.176 1.332.528 1.716.352.384.8.576 1.344.576s1-.188 1.368-.564c.368-.376.552-.952.552-1.728Zm2.3 4.788a6.694 6.694 0 0 0 1.416-2.472c.304-.928.456-1.9.456-2.916 0-.68-.068-1.348-.204-2.004a7.466 7.466 0 0 0-.612-1.86 5.015 5.015 0 0 0-1.056-1.488h1.044c.416.432.76.94 1.032 1.524.272.576.476 1.196.612 1.86.136.656.204 1.324.204 2.004a8.98 8.98 0 0 1-.468 2.904 7.11 7.11 0 0 1-1.38 2.448h-1.044Z"/>
    <rect width="102" height="44" x="430" y="202" fill="#D6E1FF" rx="8"/>
    <path fill="#000" d="M463.681 228.12c-.968 0-1.732-.284-2.292-.852-.56-.576-.84-1.372-.84-2.388 0-1.016.284-1.808.852-2.376.568-.568 1.344-.852 2.328-.852.376 0 .728.044 1.056.132.328.08.592.2.792.36v.948a3.423 3.423 0 0 0-1.836-.504c-.72 0-1.252.192-1.596.576-.344.376-.516.948-.516 1.716s.164 1.344.492 1.728c.336.376.856.564 1.56.564.68 0 1.312-.164 1.896-.492v.948c-.52.328-1.152.492-1.896.492Zm6.267-5.292c-.496.04-.92.164-1.272.372a1.87 1.87 0 0 0-.756.84V228h-1.056v-6.228h.924l.108 1.356h.024c.2-.416.472-.752.816-1.008a2.553 2.553 0 0 1 1.212-.468v1.176Zm3.742 5.292c-1.04 0-1.836-.284-2.388-.852-.544-.576-.816-1.372-.816-2.388 0-.68.128-1.26.384-1.74s.608-.848 1.056-1.104a2.993 2.993 0 0 1 1.512-.384c.952 0 1.652.316 2.1.948.448.624.592 1.48.432 2.568h-4.392c.088 1.336.824 2.004 2.208 2.004.76 0 1.46-.216 2.1-.648v.948c-.288.2-.624.36-1.008.48-.384.112-.78.168-1.188.168Zm-.276-5.532c-.456 0-.848.14-1.176.42-.328.28-.536.704-.624 1.272h3.348c.024-.536-.1-.952-.372-1.248-.272-.296-.664-.444-1.176-.444Zm5.992 0c-.664 0-1.336.204-2.016.612v-.948a3.804 3.804 0 0 1 1.02-.432 4.142 4.142 0 0 1 1.14-.168c.784 0 1.38.164 1.788.492.408.328.612.828.612 1.5v3.348c0 .136.004.312.012.528.016.208.032.368.048.48h-.96a5.482 5.482 0 0 1-.072-.468 7.173 7.173 0 0 1-.024-.54l-.012-.18a3.359 3.359 0 0 1-.396.6c-.168.2-.392.368-.672.504-.272.136-.612.204-1.02.204-.56 0-1.012-.16-1.356-.48-.344-.32-.516-.772-.516-1.356 0-.68.24-1.18.72-1.5.48-.32 1.156-.48 2.028-.48h1.164v-.516c0-.432-.112-.74-.336-.924-.224-.184-.608-.276-1.152-.276Zm1.488 3.012v-.456h-1.056c-.632 0-1.092.092-1.38.276-.28.184-.42.452-.42.804 0 .28.084.508.252.684.176.176.44.264.792.264.328 0 .608-.064.84-.192.232-.136.42-.296.564-.48.144-.192.248-.372.312-.54.064-.168.096-.288.096-.36Zm2.212-2.928v-.9h.744v-1.308h1.056v1.308h1.812v.9h-1.812v3.744c0 .264.068.456.204.576.136.12.368.18.696.18.312 0 .596-.088.852-.264v.96a1.48 1.48 0 0 1-.504.18 2.767 2.767 0 0 1-.624.072c-.4 0-.724-.076-.972-.228a1.36 1.36 0 0 1-.54-.588 1.767 1.767 0 0 1-.168-.756v-3.876h-.744Zm7.541 5.448c-1.04 0-1.836-.284-2.388-.852-.544-.576-.816-1.372-.816-2.388 0-.68.128-1.26.384-1.74s.608-.848 1.056-1.104a2.993 2.993 0 0 1 1.512-.384c.952 0 1.652.316 2.1.948.448.624.592 1.48.432 2.568h-4.392c.088 1.336.824 2.004 2.208 2.004.76 0 1.46-.216 2.1-.648v.948c-.288.2-.624.36-1.008.48-.384.112-.78.168-1.188.168Zm-.276-5.532c-.456 0-.848.14-1.176.42-.328.28-.536.704-.624 1.272h3.348c.024-.536-.1-.952-.372-1.248-.272-.296-.664-.444-1.176-.444Zm6.868 7.08h-1.044a7.27 7.27 0 0 1-1.392-2.448 9.196 9.196 0 0 1-.456-2.904c0-.68.068-1.348.204-2.004.136-.664.34-1.284.612-1.86a5.938 5.938 0 0 1 1.032-1.524h1.044a5.198 5.198 0 0 0-1.068 1.488 8.184 8.184 0 0 0-.612 1.86 10.44 10.44 0 0 0-.192 2.004c0 1.016.148 1.988.444 2.916.304.928.78 1.752 1.428 2.472Zm.786 0a6.694 6.694 0 0 0 1.416-2.472c.304-.928.456-1.9.456-2.916 0-.68-.068-1.348-.204-2.004a7.466 7.466 0 0 0-.612-1.86 5.015 5.015 0 0 0-1.056-1.488h1.044c.416.432.76.94 1.032 1.524.272.576.476 1.196.612 1.86.136.656.204 1.324.204 2.004a8.98 8.98 0 0 1-.468 2.904 7.11 7.11 0 0 1-1.38 2.448h-1.044Z"/>
    <rect width="102" height="44" x="430" y="256" fill="#D6E1FF" rx="8"/>
    <path fill="#000" d="M465.001 282.12c-1.04 0-1.836-.284-2.388-.852-.544-.576-.816-1.372-.816-2.388 0-.68.128-1.26.384-1.74s.608-.848 1.056-1.104a2.993 2.993 0 0 1 1.512-.384c.952 0 1.652.316 2.1.948.448.624.592 1.48.432 2.568h-4.392c.088 1.336.824 2.004 2.208 2.004.76 0 1.46-.216 2.1-.648v.948c-.288.2-.624.36-1.008.48-.384.112-.78.168-1.188.168Zm-.276-5.532c-.456 0-.848.14-1.176.42-.328.28-.536.704-.624 1.272h3.348c.024-.536-.1-.952-.372-1.248-.272-.296-.664-.444-1.176-.444Zm3.435 2.292c0-.728.128-1.328.384-1.8.256-.48.596-.836 1.02-1.068.432-.24.9-.36 1.404-.36.472 0 .88.1 1.224.3.344.192.62.468.828.828v-3.384h1.056V282h-.924l-.084-1.224a2.46 2.46 0 0 1-.816.984c-.344.24-.776.36-1.296.36-.496 0-.96-.116-1.392-.348-.424-.24-.764-.6-1.02-1.08-.256-.48-.384-1.084-.384-1.812Zm4.872 0c0-.776-.184-1.352-.552-1.728a1.838 1.838 0 0 0-1.368-.564c-.544 0-.992.196-1.344.588-.352.384-.528.952-.528 1.704 0 .76.176 1.332.528 1.716.352.384.8.576 1.344.576s1-.188 1.368-.564c.368-.376.552-.952.552-1.728Zm3.308-4.02c-.216 0-.388-.064-.516-.192a.692.692 0 0 1-.192-.492.675.675 0 0 1 .708-.696c.208 0 .372.068.492.204.12.136.18.3.18.492s-.06.356-.18.492c-.12.128-.284.192-.492.192Zm-.54.912h1.056V282H475.8v-6.228Zm2.273.9v-.9h.744v-1.308h1.056v1.308h1.812v.9h-1.812v3.744c0 .264.068.456.204.576.136.12.368.18.696.18.312 0 .596-.088.852-.264v.96a1.48 1.48 0 0 1-.504.18 2.767 2.767 0 0 1-.624.072c-.4 0-.724-.076-.972-.228a1.36 1.36 0 0 1-.54-.588 1.767 1.767 0 0 1-.168-.756v-3.876h-.744Zm7.945 6.996h-1.044a7.27 7.27 0 0 1-1.392-2.448 9.196 9.196 0 0 1-.456-2.904c0-.68.068-1.348.204-2.004.136-.664.34-1.284.612-1.86a5.938 5.938 0 0 1 1.032-1.524h1.044a5.198 5.198 0 0 0-1.068 1.488 8.184 8.184 0 0 0-.612 1.86 10.44 10.44 0 0 0-.192 2.004c0 1.016.148 1.988.444 2.916.304.928.78 1.752 1.428 2.472Zm1.794-8.808c-.216 0-.388-.064-.516-.192a.692.692 0 0 1-.192-.492.675.675 0 0 1 .708-.696c.208 0 .372.068.492.204.12.136.18.3.18.492s-.06.356-.18.492c-.12.128-.284.192-.492.192Zm-.54.912h1.056V282h-1.056v-6.228Zm2.334 3.108c0-.728.128-1.328.384-1.8.256-.48.596-.836 1.02-1.068.432-.24.9-.36 1.404-.36.472 0 .88.1 1.224.3.344.192.62.468.828.828v-3.384h1.056V282h-.924l-.084-1.224a2.46 2.46 0 0 1-.816.984c-.344.24-.776.36-1.296.36-.496 0-.96-.116-1.392-.348-.424-.24-.764-.6-1.02-1.08-.256-.48-.384-1.084-.384-1.812Zm4.872 0c0-.776-.184-1.352-.552-1.728a1.838 1.838 0 0 0-1.368-.564c-.544 0-.992.196-1.344.588-.352.384-.528.952-.528 1.704 0 .76.176 1.332.528 1.716.352.384.8.576 1.344.576s1-.188 1.368-.564c.368-.376.552-.952.552-1.728Zm2.299 4.788a6.694 6.694 0 0 0 1.416-2.472c.304-.928.456-1.9.456-2.916 0-.68-.068-1.348-.204-2.004a7.466 7.466 0 0 0-.612-1.86 5.015 5.015 0 0 0-1.056-1.488h1.044c.416.432.76.94 1.032 1.524.272.576.476 1.196.612 1.86.136.656.204 1.324.204 2.004a8.98 8.98 0 0 1-.468 2.904 7.11 7.11 0 0 1-1.38 2.448h-1.044Z"/>
    <rect width="102" height="44" x="430" y="310" fill="#D6E1FF" rx="8"/>
    <path fill="#000" d="M455.522 332.88c0-.728.128-1.328.384-1.8.256-.48.596-.836 1.02-1.068.432-.24.9-.36 1.404-.36.472 0 .88.1 1.224.3.344.192.62.468.828.828v-3.384h1.056V336h-.924l-.084-1.224a2.46 2.46 0 0 1-.816.984c-.344.24-.776.36-1.296.36-.496 0-.96-.116-1.392-.348-.424-.24-.764-.6-1.02-1.08-.256-.48-.384-1.084-.384-1.812Zm4.872 0c0-.776-.184-1.352-.552-1.728a1.838 1.838 0 0 0-1.368-.564c-.544 0-.992.196-1.344.588-.352.384-.528.952-.528 1.704 0 .76.176 1.332.528 1.716.352.384.8.576 1.344.576s1-.188 1.368-.564c.368-.376.552-.952.552-1.728Zm5.527 3.24c-1.04 0-1.836-.284-2.388-.852-.544-.576-.816-1.372-.816-2.388 0-.68.128-1.26.384-1.74s.608-.848 1.056-1.104a2.993 2.993 0 0 1 1.512-.384c.952 0 1.652.316 2.1.948.448.624.592 1.48.432 2.568h-4.392c.088 1.336.824 2.004 2.208 2.004.76 0 1.46-.216 2.1-.648v.948c-.288.2-.624.36-1.008.48-.384.112-.78.168-1.188.168Zm-.276-5.532c-.456 0-.848.14-1.176.42-.328.28-.536.704-.624 1.272h3.348c.024-.536-.1-.952-.372-1.248-.272-.296-.664-.444-1.176-.444Zm3.879-3.192h1.056V336h-1.056v-8.604Zm5.538 8.724c-1.04 0-1.836-.284-2.388-.852-.544-.576-.816-1.372-.816-2.388 0-.68.128-1.26.384-1.74s.608-.848 1.056-1.104a2.993 2.993 0 0 1 1.512-.384c.952 0 1.652.316 2.1.948.448.624.592 1.48.432 2.568h-4.392c.088 1.336.824 2.004 2.208 2.004.76 0 1.46-.216 2.1-.648v.948c-.288.2-.624.36-1.008.48-.384.112-.78.168-1.188.168Zm-.276-5.532c-.456 0-.848.14-1.176.42-.328.28-.536.704-.624 1.272h3.348c.024-.536-.1-.952-.372-1.248-.272-.296-.664-.444-1.176-.444Zm3.375.084v-.9h.744v-1.308h1.056v1.308h1.812v.9h-1.812v3.744c0 .264.068.456.204.576.136.12.368.18.696.18.312 0 .596-.088.852-.264v.96a1.48 1.48 0 0 1-.504.18 2.767 2.767 0 0 1-.624.072c-.4 0-.724-.076-.972-.228a1.36 1.36 0 0 1-.54-.588 1.767 1.767 0 0 1-.168-.756v-3.876h-.744Zm7.541 5.448c-1.04 0-1.836-.284-2.388-.852-.544-.576-.816-1.372-.816-2.388 0-.68.128-1.26.384-1.74s.608-.848 1.056-1.104a2.993 2.993 0 0 1 1.512-.384c.952 0 1.652.316 2.1.948.448.624.592 1.48.432 2.568h-4.392c.088 1.336.824 2.004 2.208 2.004.76 0 1.46-.216 2.1-.648v.948c-.288.2-.624.36-1.008.48-.384.112-.78.168-1.188.168Zm-.276-5.532c-.456 0-.848.14-1.176.42-.328.28-.536.704-.624 1.272h3.348c.024-.536-.1-.952-.372-1.248-.272-.296-.664-.444-1.176-.444Zm6.867 7.08h-1.044a7.27 7.27 0 0 1-1.392-2.448 9.196 9.196 0 0 1-.456-2.904c0-.68.068-1.348.204-2.004.136-.664.34-1.284.612-1.86a5.938 5.938 0 0 1 1.032-1.524h1.044a5.198 5.198 0 0 0-1.068 1.488 8.184 8.184 0 0 0-.612 1.86 10.44 10.44 0 0 0-.192 2.004c0 1.016.148 1.988.444 2.916.304.928.78 1.752 1.428 2.472Zm1.795-8.808c-.216 0-.388-.064-.516-.192a.692.692 0 0 1-.192-.492.675.675 0 0 1 .708-.696c.208 0 .372.068.492.204.12.136.18.3.18.492s-.06.356-.18.492c-.12.128-.284.192-.492.192Zm-.54.912h1.056V336h-1.056v-6.228Zm2.333 3.108c0-.728.128-1.328.384-1.8.256-.48.596-.836 1.02-1.068.432-.24.9-.36 1.404-.36.472 0 .88.1 1.224.3.344.192.62.468.828.828v-3.384h1.056V336h-.924l-.084-1.224a2.46 2.46 0 0 1-.816.984c-.344.24-.776.36-1.296.36-.496 0-.96-.116-1.392-.348-.424-.24-.764-.6-1.02-1.08-.256-.48-.384-1.084-.384-1.812Zm4.872 0c0-.776-.184-1.352-.552-1.728a1.838 1.838 0 0 0-1.368-.564c-.544 0-.992.196-1.344.588-.352.384-.528.952-.528 1.704 0 .76.176 1.332.528 1.716.352.384.8.576 1.344.576s1-.188 1.368-.564c.368-.376.552-.952.552-1.728Zm2.299 4.788a6.694 6.694 0 0 0 1.416-2.472c.304-.928.456-1.9.456-2.916 0-.68-.068-1.348-.204-2.004a7.466 7.466 0 0 0-.612-1.86 5.015 5.015 0 0 0-1.056-1.488h1.044c.416.432.76.94 1.032 1.524.272.576.476 1.196.612 1.86.136.656.204 1.324.204 2.004a8.98 8.98 0 0 1-.468 2.904 7.11 7.11 0 0 1-1.38 2.448h-1.044Z"/>
    <g filter="url(#filter1_d_31_278)">
        <rect width="142" height="380" x="612" y="14" fill="#fff" rx="10"/>
    </g>
    <path fill="#000" d="M645.111 69.396h1.44V76.2c0 .344-.076.664-.228.96-.152.288-.392.52-.72.696-.32.176-.736.264-1.248.264-.504 0-.94-.076-1.308-.228v-1.224c.176.08.34.136.492.168.16.032.324.048.492.048.408 0 .688-.092.84-.276.16-.192.24-.46.24-.804v-6.408Zm3.787 1.584a.885.885 0 0 1-.636-.24.84.84 0 0 1-.24-.6c0-.24.08-.444.24-.612a.862.862 0 0 1 .636-.252c.248 0 .452.084.612.252a.833.833 0 0 1 .252.612.82.82 0 0 1-.252.6.829.829 0 0 1-.612.24Zm-.696.792h1.392V78h-1.392v-6.228Zm6.001 1.032c-.4 0-.736.088-1.008.264-.264.176-.48.396-.648.66V78h-1.392v-6.228h1.32l.048 1.02h.024c.168-.328.42-.6.756-.816.344-.216.78-.324 1.308-.324.608 0 1.104.164 1.488.492.384.328.576.828.576 1.5V78h-1.392v-4.212c0-.36-.096-.612-.288-.756-.192-.152-.456-.228-.792-.228Zm4.8-1.824a.87.87 0 0 1-.624-.24.84.84 0 0 1-.24-.6c0-.24.08-.444.24-.612a.847.847 0 0 1 .624-.252c.256 0 .464.084.624.252a.833.833 0 0 1 .252.612.844.844 0 0 1-.876.84Zm.708.792v6.6c0 .552-.168 1-.504 1.344-.328.352-.816.528-1.464.528-.456 0-.836-.084-1.14-.252v-1.128c.112.064.244.116.396.156.144.04.3.06.468.06.312 0 .532-.076.66-.228a.863.863 0 0 0 .192-.576v-6.504h1.392Zm3.742 1.032c-.688 0-1.384.192-2.088.576v-1.164a4.473 4.473 0 0 1 1.08-.408 5.081 5.081 0 0 1 1.236-.156c.8 0 1.416.168 1.848.504.44.336.66.864.66 1.584v3.252c0 .136.004.312.012.528.016.208.032.368.048.48h-1.296a5.482 5.482 0 0 1-.072-.468 7.173 7.173 0 0 1-.024-.54l-.012-.072c-.088.192-.216.38-.384.564-.16.184-.368.336-.624.456s-.576.18-.96.18c-.536 0-.992-.152-1.368-.456-.368-.312-.552-.764-.552-1.356 0-.672.252-1.18.756-1.524.504-.344 1.216-.516 2.136-.516h.948v-.384c0-.4-.104-.68-.312-.84-.208-.16-.552-.24-1.032-.24Zm1.344 2.796v-.42h-.864c-.56 0-.968.088-1.224.264a.818.818 0 0 0-.372.72c0 .272.076.488.228.648.16.152.392.228.696.228.296 0 .544-.06.744-.18.2-.128.356-.276.468-.444.12-.168.204-.328.252-.48.048-.16.072-.272.072-.336Zm4.876-2.928v-.9h.744v-1.308h1.056v1.308h1.812v.9h-1.812v3.744c0 .264.068.456.204.576.136.12.368.18.696.18.312 0 .596-.088.852-.264v.96a1.48 1.48 0 0 1-.504.18 2.767 2.767 0 0 1-.624.072c-.4 0-.724-.076-.972-.228a1.36 1.36 0 0 1-.54-.588 1.767 1.767 0 0 1-.168-.756v-3.876h-.744Zm7.541 5.448c-1.04 0-1.836-.284-2.388-.852-.544-.576-.816-1.372-.816-2.388 0-.68.128-1.26.384-1.74s.608-.848 1.056-1.104a2.993 2.993 0 0 1 1.512-.384c.952 0 1.652.316 2.1.948.448.624.592 1.48.432 2.568h-4.392c.088 1.336.824 2.004 2.208 2.004.76 0 1.46-.216 2.1-.648v.948c-.288.2-.624.36-1.008.48-.384.112-.78.168-1.188.168Zm-.276-5.532c-.456 0-.848.14-1.176.42-.328.28-.536.704-.624 1.272h3.348c.024-.536-.1-.952-.372-1.248-.272-.296-.664-.444-1.176-.444Zm7.815 1.056c0-.4-.1-.676-.3-.828-.2-.152-.472-.228-.816-.228-.448 0-.804.112-1.068.336-.264.216-.496.5-.696.852V78h-1.056v-6.228h.924l.108 1.116h.024a2.21 2.21 0 0 1 .756-.876c.344-.24.784-.36 1.32-.36.472 0 .864.116 1.176.348.312.224.52.564.624 1.02.176-.424.444-.756.804-.996.368-.248.812-.372 1.332-.372.568 0 1.02.164 1.356.492.344.328.516.824.516 1.488V78h-1.068v-4.236c0-.408-.1-.704-.3-.888-.2-.192-.472-.288-.816-.288-.456 0-.816.132-1.08.396a3.78 3.78 0 0 0-.684.912V78h-1.056v-4.356Zm6.658-1.872h.924l.108 1.212c.2-.4.476-.72.828-.96.36-.248.8-.372 1.32-.372.488 0 .936.12 1.344.36.416.232.752.588 1.008 1.068.256.472.384 1.072.384 1.8s-.132 1.332-.396 1.812c-.256.48-.596.84-1.02 1.08a2.761 2.761 0 0 1-1.368.348c-.472 0-.884-.112-1.236-.336a2.408 2.408 0 0 1-.84-.924v3.264h-1.056v-8.352Zm4.824 3.108c0-.752-.172-1.32-.516-1.704-.344-.392-.788-.588-1.332-.588s-1.004.192-1.38.576c-.368.376-.552.948-.552 1.716 0 .776.184 1.352.552 1.728.376.376.836.564 1.38.564.544 0 .988-.192 1.332-.576.344-.384.516-.956.516-1.716Zm2.371-5.484h1.056V78h-1.056v-8.604Zm4.89 3.192c-.664 0-1.336.204-2.016.612v-.948a3.804 3.804 0 0 1 1.02-.432 4.142 4.142 0 0 1 1.14-.168c.784 0 1.38.164 1.788.492.408.328.612.828.612 1.5v3.348c0 .136.004.312.012.528.016.208.032.368.048.48h-.96a5.482 5.482 0 0 1-.072-.468 7.173 7.173 0 0 1-.024-.54l-.012-.18a3.359 3.359 0 0 1-.396.6c-.168.2-.392.368-.672.504-.272.136-.612.204-1.02.204-.56 0-1.012-.16-1.356-.48-.344-.32-.516-.772-.516-1.356 0-.68.24-1.18.72-1.5.48-.32 1.156-.48 2.028-.48h1.164v-.516c0-.432-.112-.74-.336-.924-.224-.184-.608-.276-1.152-.276Zm1.488 3.012v-.456h-1.056c-.632 0-1.092.092-1.38.276-.28.184-.42.452-.42.804 0 .28.084.508.252.684.176.176.44.264.792.264.328 0 .608-.064.84-.192.232-.136.42-.296.564-.48.144-.192.248-.372.312-.54.064-.168.096-.288.096-.36Zm2.212-2.928v-.9h.744v-1.308h1.056v1.308h1.812v.9h-1.812v3.744c0 .264.068.456.204.576.136.12.368.18.696.18.312 0 .596-.088.852-.264v.96a1.48 1.48 0 0 1-.504.18 2.767 2.767 0 0 1-.624.072c-.4 0-.724-.076-.972-.228a1.36 1.36 0 0 1-.54-.588 1.767 1.767 0 0 1-.168-.756v-3.876h-.744Zm7.541 5.448c-1.04 0-1.836-.284-2.388-.852-.544-.576-.816-1.372-.816-2.388 0-.68.128-1.26.384-1.74s.608-.848 1.056-1.104a2.993 2.993 0 0 1 1.512-.384c.952 0 1.652.316 2.1.948.448.624.592 1.48.432 2.568h-4.392c.088 1.336.824 2.004 2.208 2.004.76 0 1.46-.216 2.1-.648v.948c-.288.2-.624.36-1.008.48-.384.112-.78.168-1.188.168Zm-.276-5.532c-.456 0-.848.14-1.176.42-.328.28-.536.704-.624 1.272h3.348c.024-.536-.1-.952-.372-1.248-.272-.296-.664-.444-1.176-.444Zm5.872 5.532c-.456 0-.892-.064-1.308-.192-.408-.136-.74-.316-.996-.54v-.948c.248.24.58.432.996.576.424.144.856.216 1.296.216.976 0 1.464-.316 1.464-.948a.698.698 0 0 0-.132-.444c-.08-.12-.232-.22-.456-.3a5.694 5.694 0 0 0-.972-.252c-.808-.16-1.372-.376-1.692-.648-.32-.28-.48-.676-.48-1.188 0-.568.22-1.008.66-1.32.44-.32 1.048-.48 1.824-.48.368 0 .728.04 1.08.12.36.072.652.172.876.3v.948c-.464-.32-1.104-.48-1.92-.48-.504 0-.876.072-1.116.216-.232.144-.348.368-.348.672 0 .16.036.292.108.396.072.104.216.196.432.276.216.08.54.164.972.252.552.112.988.248 1.308.408.328.152.56.348.696.588.144.24.216.544.216.912 0 .584-.22 1.04-.66 1.368-.44.328-1.056.492-1.848.492ZM652.125 38l-3-8.604h1.176l2.748 7.92 2.748-7.92h1.08L653.889 38h-1.764Zm6.334-7.14c-.216 0-.388-.064-.516-.192a.692.692 0 0 1-.192-.492.675.675 0 0 1 .708-.696c.208 0 .372.068.492.204.12.136.18.3.18.492s-.06.356-.18.492c-.12.128-.284.192-.492.192Zm-.54.912h1.056V38h-1.056v-6.228Zm4.769 6.348c-.456 0-.892-.064-1.308-.192-.408-.136-.74-.316-.996-.54v-.948c.248.24.58.432.996.576.424.144.856.216 1.296.216.976 0 1.464-.316 1.464-.948a.698.698 0 0 0-.132-.444c-.08-.12-.232-.22-.456-.3a5.694 5.694 0 0 0-.972-.252c-.808-.16-1.372-.376-1.692-.648-.32-.28-.48-.676-.48-1.188 0-.568.22-1.008.66-1.32.44-.32 1.048-.48 1.824-.48.368 0 .728.04 1.08.12.36.072.652.172.876.3v.948c-.464-.32-1.104-.48-1.92-.48-.504 0-.876.072-1.116.216-.232.144-.348.368-.348.672 0 .16.036.292.108.396.072.104.216.196.432.276.216.08.54.164.972.252.552.112.988.248 1.308.408.328.152.56.348.696.588.144.24.216.544.216.912 0 .584-.22 1.04-.66 1.368-.44.328-1.056.492-1.848.492Zm7.805-1.236a2.257 2.257 0 0 1-.78.876c-.344.24-.796.36-1.356.36-.576 0-1.044-.164-1.404-.492-.352-.328-.528-.828-.528-1.5v-4.356h1.068v4.356c0 .408.112.684.336.828.224.144.5.216.828.216.464 0 .836-.104 1.116-.312.28-.208.52-.492.72-.852v-4.236h1.056V38h-.936l-.096-1.116h-.024Zm4.901-4.296c-.664 0-1.336.204-2.016.612v-.948a3.804 3.804 0 0 1 1.02-.432 4.142 4.142 0 0 1 1.14-.168c.784 0 1.38.164 1.788.492.408.328.612.828.612 1.5v3.348c0 .136.004.312.012.528.016.208.032.368.048.48h-.96a5.482 5.482 0 0 1-.072-.468 7.173 7.173 0 0 1-.024-.54l-.012-.18a3.359 3.359 0 0 1-.396.6c-.168.2-.392.368-.672.504-.272.136-.612.204-1.02.204-.56 0-1.012-.16-1.356-.48-.344-.32-.516-.772-.516-1.356 0-.68.24-1.18.72-1.5.48-.32 1.156-.48 2.028-.48h1.164v-.516c0-.432-.112-.74-.336-.924-.224-.184-.608-.276-1.152-.276Zm1.488 3.012v-.456h-1.056c-.632 0-1.092.092-1.38.276-.28.184-.42.452-.42.804 0 .28.084.508.252.684.176.176.44.264.792.264.328 0 .608-.064.84-.192.232-.136.42-.296.564-.48.144-.192.248-.372.312-.54.064-.168.096-.288.096-.36Zm2.716-6.204h1.056V38h-1.056v-8.604Zm3.318 1.464c-.216 0-.388-.064-.516-.192a.692.692 0 0 1-.192-.492.675.675 0 0 1 .708-.696c.208 0 .372.068.492.204.12.136.18.3.18.492s-.06.356-.18.492c-.12.128-.284.192-.492.192Zm-.54.912h1.056V38h-1.056v-6.228Zm6.941 5.328v.9h-4.608v-.684l3.276-4.644h-3.18v-.9h4.5v.684l-3.276 4.644h3.288Zm3.397-4.512c-.664 0-1.336.204-2.016.612v-.948a3.804 3.804 0 0 1 1.02-.432 4.142 4.142 0 0 1 1.14-.168c.784 0 1.38.164 1.788.492.408.328.612.828.612 1.5v3.348c0 .136.004.312.012.528.016.208.032.368.048.48h-.96a5.482 5.482 0 0 1-.072-.468 7.173 7.173 0 0 1-.024-.54l-.012-.18a3.359 3.359 0 0 1-.396.6c-.168.2-.392.368-.672.504-.272.136-.612.204-1.02.204-.56 0-1.012-.16-1.356-.48-.344-.32-.516-.772-.516-1.356 0-.68.24-1.18.72-1.5.48-.32 1.156-.48 2.028-.48h1.164v-.516c0-.432-.112-.74-.336-.924-.224-.184-.608-.276-1.152-.276Zm1.488 3.012v-.456h-1.056c-.632 0-1.092.092-1.38.276-.28.184-.42.452-.42.804 0 .28.084.508.252.684.176.176.44.264.792.264.328 0 .608-.064.84-.192.232-.136.42-.296.564-.48.144-.192.248-.372.312-.54.064-.168.096-.288.096-.36Zm2.213-2.928v-.9h.744v-1.308h1.056v1.308h1.812v.9h-1.812v3.744c0 .264.068.456.204.576.136.12.368.18.696.18.312 0 .596-.088.852-.264v.96a1.48 1.48 0 0 1-.504.18 2.767 2.767 0 0 1-.624.072c-.4 0-.724-.076-.972-.228a1.36 1.36 0 0 1-.54-.588 1.767 1.767 0 0 1-.168-.756v-3.876h-.744Zm5.497-1.812c-.216 0-.388-.064-.516-.192a.692.692 0 0 1-.192-.492.675.675 0 0 1 .708-.696c.208 0 .372.068.492.204.12.136.18.3.18.492s-.06.356-.18.492c-.12.128-.284.192-.492.192Zm-.54.912h1.056V38h-1.056v-6.228Zm5.333 6.348c-.568 0-1.08-.124-1.536-.372a2.784 2.784 0 0 1-1.068-1.104c-.264-.488-.396-1.076-.396-1.764s.132-1.272.396-1.752.62-.844 1.068-1.092a3.083 3.083 0 0 1 1.536-.384c.576 0 1.092.128 1.548.384a2.68 2.68 0 0 1 1.08 1.092c.264.48.396 1.064.396 1.752s-.132 1.276-.396 1.764a2.76 2.76 0 0 1-1.08 1.104 3.187 3.187 0 0 1-1.548.372Zm0-.948c.56 0 1.024-.184 1.392-.552.368-.376.552-.956.552-1.74s-.184-1.36-.552-1.728c-.368-.376-.832-.564-1.392-.564-.552 0-1.012.188-1.38.564-.36.368-.54.944-.54 1.728s.18 1.364.54 1.74c.368.368.828.552 1.38.552Zm7.263-4.584c-.48 0-.872.112-1.176.336a2.455 2.455 0 0 0-.72.84V38h-1.056v-6.228h.996l.036 1.116h.024c.168-.352.432-.644.792-.876.36-.24.816-.36 1.368-.36.616 0 1.104.164 1.464.492.368.328.552.824.552 1.488V38h-1.056v-4.26c0-.424-.112-.72-.336-.888-.216-.176-.512-.264-.888-.264Z"/>
    <rect width="102" height="44" x="632" y="94" fill="#D6E1FF" rx="8"/>
    <path fill="#000" d="M655.939 112.86c-.216 0-.388-.064-.516-.192a.692.692 0 0 1-.192-.492.675.675 0 0 1 .708-.696c.208 0 .372.068.492.204.12.136.18.3.18.492s-.06.356-.18.492c-.12.128-.284.192-.492.192Zm-.54.912h1.056V120h-1.056v-6.228Zm5.73.816c-.48 0-.872.112-1.176.336a2.455 2.455 0 0 0-.72.84V120h-1.056v-6.228h.996l.036 1.116h.024c.168-.352.432-.644.792-.876.36-.24.816-.36 1.368-.36.616 0 1.104.164 1.464.492.368.328.552.824.552 1.488V120h-1.056v-4.26c0-.424-.112-.72-.336-.888-.216-.176-.512-.264-.888-.264Zm3.506 2.292c0-.728.128-1.328.384-1.8.256-.48.596-.836 1.02-1.068.432-.24.9-.36 1.404-.36.472 0 .88.1 1.224.3.344.192.62.468.828.828v-3.384h1.056V120h-.924l-.084-1.224a2.46 2.46 0 0 1-.816.984c-.344.24-.776.36-1.296.36-.496 0-.96-.116-1.392-.348-.424-.24-.764-.6-1.02-1.08-.256-.48-.384-1.084-.384-1.812Zm4.872 0c0-.776-.184-1.352-.552-1.728a1.838 1.838 0 0 0-1.368-.564c-.544 0-.992.196-1.344.588-.352.384-.528.952-.528 1.704 0 .76.176 1.332.528 1.716.352.384.8.576 1.344.576s1-.188 1.368-.564c.368-.376.552-.952.552-1.728Zm5.527 3.24c-1.04 0-1.836-.284-2.388-.852-.544-.576-.816-1.372-.816-2.388 0-.68.128-1.26.384-1.74s.608-.848 1.056-1.104a2.993 2.993 0 0 1 1.512-.384c.952 0 1.652.316 2.1.948.448.624.592 1.48.432 2.568h-4.392c.088 1.336.824 2.004 2.208 2.004.76 0 1.46-.216 2.1-.648v.948c-.288.2-.624.36-1.008.48-.384.112-.78.168-1.188.168Zm-.276-5.532c-.456 0-.848.14-1.176.42-.328.28-.536.704-.624 1.272h3.348c.024-.536-.1-.952-.372-1.248-.272-.296-.664-.444-1.176-.444Zm3.401-.816h1.224l1.488 2.196 1.5-2.196h1.092l-2.064 2.976 2.172 3.252h-1.224l-1.668-2.472-1.68 2.472h-1.104l2.256-3.228-1.992-3Zm7.148 6.3a.789.789 0 0 1-.564-.216.759.759 0 0 1-.216-.54c0-.224.072-.408.216-.552a.789.789 0 0 1 .564-.216c.224 0 .408.072.552.216a.748.748 0 0 1 .216.552.759.759 0 0 1-.216.54.748.748 0 0 1-.552.216Zm5.247-5.484c-.48 0-.872.112-1.176.336a2.455 2.455 0 0 0-.72.84V120h-1.056v-8.604h1.056v2.376l-.024 1.116h.024c.168-.352.432-.644.792-.876.36-.24.816-.36 1.368-.36.616 0 1.104.164 1.464.492.368.328.552.824.552 1.488V120h-1.056v-4.26c0-.424-.112-.72-.336-.888-.216-.176-.512-.264-.888-.264Zm3.447.084v-.9h.744v-1.308h1.056v1.308h1.812v.9h-1.812v3.744c0 .264.068.456.204.576.136.12.368.18.696.18.312 0 .596-.088.852-.264v.96a1.48 1.48 0 0 1-.504.18 2.767 2.767 0 0 1-.624.072c-.4 0-.724-.076-.972-.228a1.36 1.36 0 0 1-.54-.588 1.767 1.767 0 0 1-.168-.756v-3.876h-.744Zm8.893.972c0-.4-.1-.676-.3-.828-.2-.152-.472-.228-.816-.228-.448 0-.804.112-1.068.336-.264.216-.496.5-.696.852V120h-1.056v-6.228h.924l.108 1.116h.024a2.21 2.21 0 0 1 .756-.876c.344-.24.784-.36 1.32-.36.472 0 .864.116 1.176.348.312.224.52.564.624 1.02.176-.424.444-.756.804-.996.368-.248.812-.372 1.332-.372.568 0 1.02.164 1.356.492.344.328.516.824.516 1.488V120h-1.068v-4.236c0-.408-.1-.704-.3-.888-.2-.192-.472-.288-.816-.288-.456 0-.816.132-1.08.396a3.78 3.78 0 0 0-.684.912V120h-1.056v-4.356Zm6.658-4.248h1.056V120h-1.056v-8.604Z"/>
    <rect width="102" height="44" x="632" y="148" fill="#D6E1FF" rx="8"/>
    <path fill="#000" d="M657.848 167.772h.924l.108 1.212c.2-.4.476-.72.828-.96.36-.248.8-.372 1.32-.372.488 0 .936.12 1.344.36.416.232.752.588 1.008 1.068.256.472.384 1.072.384 1.8s-.132 1.332-.396 1.812c-.256.48-.596.84-1.02 1.08a2.761 2.761 0 0 1-1.368.348c-.472 0-.884-.112-1.236-.336a2.408 2.408 0 0 1-.84-.924v3.264h-1.056v-8.352Zm4.824 3.108c0-.752-.172-1.32-.516-1.704-.344-.392-.788-.588-1.332-.588s-1.004.192-1.38.576c-.368.376-.552.948-.552 1.716 0 .776.184 1.352.552 1.728.376.376.836.564 1.38.564.544 0 .988-.192 1.332-.576.344-.384.516-.956.516-1.716Zm4.928 3.24c-.568 0-1.08-.124-1.536-.372a2.784 2.784 0 0 1-1.068-1.104c-.264-.488-.396-1.076-.396-1.764s.132-1.272.396-1.752.62-.844 1.068-1.092a3.083 3.083 0 0 1 1.536-.384c.576 0 1.092.128 1.548.384a2.68 2.68 0 0 1 1.08 1.092c.264.48.396 1.064.396 1.752s-.132 1.276-.396 1.764a2.76 2.76 0 0 1-1.08 1.104 3.187 3.187 0 0 1-1.548.372Zm0-.948c.56 0 1.024-.184 1.392-.552.368-.376.552-.956.552-1.74s-.184-1.36-.552-1.728c-.368-.376-.832-.564-1.392-.564-.552 0-1.012.188-1.38.564-.36.368-.54.944-.54 1.728s.18 1.364.54 1.74c.368.368.828.552 1.38.552Zm6.303.948c-.456 0-.892-.064-1.308-.192-.408-.136-.74-.316-.996-.54v-.948c.248.24.58.432.996.576.424.144.856.216 1.296.216.976 0 1.464-.316 1.464-.948a.698.698 0 0 0-.132-.444c-.08-.12-.232-.22-.456-.3a5.694 5.694 0 0 0-.972-.252c-.808-.16-1.372-.376-1.692-.648-.32-.28-.48-.676-.48-1.188 0-.568.22-1.008.66-1.32.44-.32 1.048-.48 1.824-.48.368 0 .728.04 1.08.12.36.072.652.172.876.3v.948c-.464-.32-1.104-.48-1.92-.48-.504 0-.876.072-1.116.216-.232.144-.348.368-.348.672 0 .16.036.292.108.396.072.104.216.196.432.276.216.08.54.164.972.252.552.112.988.248 1.308.408.328.152.56.348.696.588.144.24.216.544.216.912 0 .584-.22 1.04-.66 1.368-.44.328-1.056.492-1.848.492Zm3.305-5.448v-.9h.744v-1.308h1.056v1.308h1.812v.9h-1.812v3.744c0 .264.068.456.204.576.136.12.368.18.696.18.312 0 .596-.088.852-.264v.96a1.48 1.48 0 0 1-.504.18 2.767 2.767 0 0 1-.624.072c-.4 0-.724-.076-.972-.228a1.36 1.36 0 0 1-.54-.588 1.767 1.767 0 0 1-.168-.756v-3.876h-.744Zm5.65 5.4a.789.789 0 0 1-.564-.216.759.759 0 0 1-.216-.54c0-.224.072-.408.216-.552a.789.789 0 0 1 .564-.216c.224 0 .408.072.552.216a.748.748 0 0 1 .216.552.759.759 0 0 1-.216.54.748.748 0 0 1-.552.216Zm5.247-5.484c-.48 0-.872.112-1.176.336a2.455 2.455 0 0 0-.72.84V174h-1.056v-8.604h1.056v2.376l-.024 1.116h.024c.168-.352.432-.644.792-.876.36-.24.816-.36 1.368-.36.616 0 1.104.164 1.464.492.368.328.552.824.552 1.488V174h-1.056v-4.26c0-.424-.112-.72-.336-.888-.216-.176-.512-.264-.888-.264Zm3.446.084v-.9h.744v-1.308h1.056v1.308h1.812v.9h-1.812v3.744c0 .264.068.456.204.576.136.12.368.18.696.18.312 0 .596-.088.852-.264v.96a1.48 1.48 0 0 1-.504.18 2.767 2.767 0 0 1-.624.072c-.4 0-.724-.076-.972-.228a1.36 1.36 0 0 1-.54-.588 1.767 1.767 0 0 1-.168-.756v-3.876h-.744Zm8.894.972c0-.4-.1-.676-.3-.828-.2-.152-.472-.228-.816-.228-.448 0-.804.112-1.068.336-.264.216-.496.5-.696.852V174h-1.056v-6.228h.924l.108 1.116h.024a2.21 2.21 0 0 1 .756-.876c.344-.24.784-.36 1.32-.36.472 0 .864.116 1.176.348.312.224.52.564.624 1.02.176-.424.444-.756.804-.996.368-.248.812-.372 1.332-.372.568 0 1.02.164 1.356.492.344.328.516.824.516 1.488V174h-1.068v-4.236c0-.408-.1-.704-.3-.888-.2-.192-.472-.288-.816-.288-.456 0-.816.132-1.08.396a3.78 3.78 0 0 0-.684.912V174h-1.056v-4.356Zm6.657-4.248h1.056V174h-1.056v-8.604Z"/>
    <rect width="102" height="44" x="632" y="202" fill="#D6E1FF" rx="8"/>
    <path fill="#000" d="M656.124 228.12c-.968 0-1.732-.284-2.292-.852-.56-.576-.84-1.372-.84-2.388 0-1.016.284-1.808.852-2.376.568-.568 1.344-.852 2.328-.852.376 0 .728.044 1.056.132.328.08.592.2.792.36v.948a3.423 3.423 0 0 0-1.836-.504c-.72 0-1.252.192-1.596.576-.344.376-.516.948-.516 1.716s.164 1.344.492 1.728c.336.376.856.564 1.56.564.68 0 1.312-.164 1.896-.492v.948c-.52.328-1.152.492-1.896.492Zm6.267-5.292c-.496.04-.92.164-1.272.372a1.87 1.87 0 0 0-.756.84V228h-1.056v-6.228h.924l.108 1.356h.024c.2-.416.472-.752.816-1.008a2.553 2.553 0 0 1 1.212-.468v1.176Zm3.743 5.292c-1.04 0-1.836-.284-2.388-.852-.544-.576-.816-1.372-.816-2.388 0-.68.128-1.26.384-1.74s.608-.848 1.056-1.104a2.993 2.993 0 0 1 1.512-.384c.952 0 1.652.316 2.1.948.448.624.592 1.48.432 2.568h-4.392c.088 1.336.824 2.004 2.208 2.004.76 0 1.46-.216 2.1-.648v.948c-.288.2-.624.36-1.008.48-.384.112-.78.168-1.188.168Zm-.276-5.532c-.456 0-.848.14-1.176.42-.328.28-.536.704-.624 1.272h3.348c.024-.536-.1-.952-.372-1.248-.272-.296-.664-.444-1.176-.444Zm5.991 0c-.664 0-1.336.204-2.016.612v-.948a3.804 3.804 0 0 1 1.02-.432 4.142 4.142 0 0 1 1.14-.168c.784 0 1.38.164 1.788.492.408.328.612.828.612 1.5v3.348c0 .136.004.312.012.528.016.208.032.368.048.48h-.96a5.482 5.482 0 0 1-.072-.468 7.173 7.173 0 0 1-.024-.54l-.012-.18a3.359 3.359 0 0 1-.396.6c-.168.2-.392.368-.672.504-.272.136-.612.204-1.02.204-.56 0-1.012-.16-1.356-.48-.344-.32-.516-.772-.516-1.356 0-.68.24-1.18.72-1.5.48-.32 1.156-.48 2.028-.48h1.164v-.516c0-.432-.112-.74-.336-.924-.224-.184-.608-.276-1.152-.276Zm1.488 3.012v-.456h-1.056c-.632 0-1.092.092-1.38.276-.28.184-.42.452-.42.804 0 .28.084.508.252.684.176.176.44.264.792.264.328 0 .608-.064.84-.192.232-.136.42-.296.564-.48.144-.192.248-.372.312-.54.064-.168.096-.288.096-.36Zm2.212-2.928v-.9h.744v-1.308h1.056v1.308h1.812v.9h-1.812v3.744c0 .264.068.456.204.576.136.12.368.18.696.18.312 0 .596-.088.852-.264v.96a1.48 1.48 0 0 1-.504.18 2.767 2.767 0 0 1-.624.072c-.4 0-.724-.076-.972-.228a1.36 1.36 0 0 1-.54-.588 1.767 1.767 0 0 1-.168-.756v-3.876h-.744Zm7.542 5.448c-1.04 0-1.836-.284-2.388-.852-.544-.576-.816-1.372-.816-2.388 0-.68.128-1.26.384-1.74s.608-.848 1.056-1.104a2.993 2.993 0 0 1 1.512-.384c.952 0 1.652.316 2.1.948.448.624.592 1.48.432 2.568h-4.392c.088 1.336.824 2.004 2.208 2.004.76 0 1.46-.216 2.1-.648v.948c-.288.2-.624.36-1.008.48-.384.112-.78.168-1.188.168Zm-.276-5.532c-.456 0-.848.14-1.176.42-.328.28-.536.704-.624 1.272h3.348c.024-.536-.1-.952-.372-1.248-.272-.296-.664-.444-1.176-.444Zm4.455 5.484a.789.789 0 0 1-.564-.216.759.759 0 0 1-.216-.54c0-.224.072-.408.216-.552a.789.789 0 0 1 .564-.216c.224 0 .408.072.552.216a.748.748 0 0 1 .216.552.759.759 0 0 1-.216.54.748.748 0 0 1-.552.216Zm5.247-5.484c-.48 0-.872.112-1.176.336a2.455 2.455 0 0 0-.72.84V228h-1.056v-8.604h1.056v2.376l-.024 1.116h.024c.168-.352.432-.644.792-.876.36-.24.816-.36 1.368-.36.616 0 1.104.164 1.464.492.368.328.552.824.552 1.488V228h-1.056v-4.26c0-.424-.112-.72-.336-.888-.216-.176-.512-.264-.888-.264Zm3.447.084v-.9h.744v-1.308h1.056v1.308h1.812v.9h-1.812v3.744c0 .264.068.456.204.576.136.12.368.18.696.18.312 0 .596-.088.852-.264v.96a1.48 1.48 0 0 1-.504.18 2.767 2.767 0 0 1-.624.072c-.4 0-.724-.076-.972-.228a1.36 1.36 0 0 1-.54-.588 1.767 1.767 0 0 1-.168-.756v-3.876h-.744Zm8.893.972c0-.4-.1-.676-.3-.828-.2-.152-.472-.228-.816-.228-.448 0-.804.112-1.068.336-.264.216-.496.5-.696.852V228h-1.056v-6.228h.924l.108 1.116h.024a2.21 2.21 0 0 1 .756-.876c.344-.24.784-.36 1.32-.36.472 0 .864.116 1.176.348.312.224.52.564.624 1.02.176-.424.444-.756.804-.996.368-.248.812-.372 1.332-.372.568 0 1.02.164 1.356.492.344.328.516.824.516 1.488V228h-1.068v-4.236c0-.408-.1-.704-.3-.888-.2-.192-.472-.288-.816-.288-.456 0-.816.132-1.08.396a3.78 3.78 0 0 0-.684.912V228h-1.056v-4.356Zm6.657-4.248h1.056V228h-1.056v-8.604Z"/>
    <rect width="102" height="44" x="632" y="256" fill="#D6E1FF" rx="8"/>
    <path fill="#000" d="M662.372 282.12c-1.04 0-1.836-.284-2.388-.852-.544-.576-.816-1.372-.816-2.388 0-.68.128-1.26.384-1.74s.608-.848 1.056-1.104a2.993 2.993 0 0 1 1.512-.384c.952 0 1.652.316 2.1.948.448.624.592 1.48.432 2.568h-4.392c.088 1.336.824 2.004 2.208 2.004.76 0 1.46-.216 2.1-.648v.948c-.288.2-.624.36-1.008.48-.384.112-.78.168-1.188.168Zm-.276-5.532c-.456 0-.848.14-1.176.42-.328.28-.536.704-.624 1.272h3.348c.024-.536-.1-.952-.372-1.248-.272-.296-.664-.444-1.176-.444Zm3.435 2.292c0-.728.128-1.328.384-1.8.256-.48.596-.836 1.02-1.068.432-.24.9-.36 1.404-.36.472 0 .88.1 1.224.3.344.192.62.468.828.828v-3.384h1.056V282h-.924l-.084-1.224a2.46 2.46 0 0 1-.816.984c-.344.24-.776.36-1.296.36-.496 0-.96-.116-1.392-.348-.424-.24-.764-.6-1.02-1.08-.256-.48-.384-1.084-.384-1.812Zm4.872 0c0-.776-.184-1.352-.552-1.728a1.838 1.838 0 0 0-1.368-.564c-.544 0-.992.196-1.344.588-.352.384-.528.952-.528 1.704 0 .76.176 1.332.528 1.716.352.384.8.576 1.344.576s1-.188 1.368-.564c.368-.376.552-.952.552-1.728Zm3.308-4.02c-.216 0-.388-.064-.516-.192a.692.692 0 0 1-.192-.492.675.675 0 0 1 .708-.696c.208 0 .372.068.492.204.12.136.18.3.18.492s-.06.356-.18.492c-.12.128-.284.192-.492.192Zm-.54.912h1.056V282h-1.056v-6.228Zm2.273.9v-.9h.744v-1.308h1.056v1.308h1.812v.9h-1.812v3.744c0 .264.068.456.204.576.136.12.368.18.696.18.312 0 .596-.088.852-.264v.96a1.48 1.48 0 0 1-.504.18 2.767 2.767 0 0 1-.624.072c-.4 0-.724-.076-.972-.228a1.36 1.36 0 0 1-.54-.588 1.767 1.767 0 0 1-.168-.756v-3.876h-.744Zm5.65 5.4a.789.789 0 0 1-.564-.216.759.759 0 0 1-.216-.54c0-.224.072-.408.216-.552a.789.789 0 0 1 .564-.216c.224 0 .408.072.552.216a.748.748 0 0 1 .216.552.759.759 0 0 1-.216.54.748.748 0 0 1-.552.216Zm5.247-5.484c-.48 0-.872.112-1.176.336a2.455 2.455 0 0 0-.72.84V282h-1.056v-8.604h1.056v2.376l-.024 1.116h.024c.168-.352.432-.644.792-.876.36-.24.816-.36 1.368-.36.616 0 1.104.164 1.464.492.368.328.552.824.552 1.488V282h-1.056v-4.26c0-.424-.112-.72-.336-.888-.216-.176-.512-.264-.888-.264Zm3.447.084v-.9h.744v-1.308h1.056v1.308h1.812v.9h-1.812v3.744c0 .264.068.456.204.576.136.12.368.18.696.18.312 0 .596-.088.852-.264v.96a1.48 1.48 0 0 1-.504.18 2.767 2.767 0 0 1-.624.072c-.4 0-.724-.076-.972-.228a1.36 1.36 0 0 1-.54-.588 1.767 1.767 0 0 1-.168-.756v-3.876h-.744Zm8.893.972c0-.4-.1-.676-.3-.828-.2-.152-.472-.228-.816-.228-.448 0-.804.112-1.068.336-.264.216-.496.5-.696.852V282h-1.056v-6.228h.924l.108 1.116h.024a2.21 2.21 0 0 1 .756-.876c.344-.24.784-.36 1.32-.36.472 0 .864.116 1.176.348.312.224.52.564.624 1.02.176-.424.444-.756.804-.996.368-.248.812-.372 1.332-.372.568 0 1.02.164 1.356.492.344.328.516.824.516 1.488V282h-1.068v-4.236c0-.408-.1-.704-.3-.888-.2-.192-.472-.288-.816-.288-.456 0-.816.132-1.08.396a3.78 3.78 0 0 0-.684.912V282h-1.056v-4.356Zm6.658-4.248h1.056V282h-1.056v-8.604Z"/>
    <rect width="140" height="318" x="219" y="55" fill="#fff" stroke="#5282FF" stroke-width="2" rx="9"/>
    <rect width="102" height="44" x="238" y="94" fill="#D6E1FF" rx="8"/>
    <path fill="#000" d="M284.626 118.884a2.257 2.257 0 0 1-.78.876c-.344.24-.796.36-1.356.36-.576 0-1.044-.164-1.404-.492-.352-.328-.528-.828-.528-1.5v-4.356h1.068v4.356c0 .408.112.684.336.828.224.144.5.216.828.216.464 0 .836-.104 1.116-.312.28-.208.52-.492.72-.852v-4.236h1.056V120h-.936l-.096-1.116h-.024Zm5.873-4.056c-.496.04-.92.164-1.272.372a1.87 1.87 0 0 0-.756.84V120h-1.056v-6.228h.924l.108 1.356h.024c.2-.416.472-.752.816-1.008a2.553 2.553 0 0 1 1.212-.468v1.176Zm1.17-3.432h1.056V120h-1.056v-8.604Zm2.756 10.044h-.96l3.804-10.512h.96l-3.804 10.512Z"/>
    <rect width="102" height="44" x="238" y="148" fill="#D6E1FF" rx="8"/>
    <path fill="#000" d="M277.313 172.884a2.257 2.257 0 0 1-.78.876c-.344.24-.796.36-1.356.36-.576 0-1.044-.164-1.404-.492-.352-.328-.528-.828-.528-1.5v-4.356h1.068v4.356c0 .408.112.684.336.828.224.144.5.216.828.216.464 0 .836-.104 1.116-.312.28-.208.52-.492.72-.852v-4.236h1.056V174h-.936l-.096-1.116h-.024Zm5.873-4.056c-.496.04-.92.164-1.272.372a1.87 1.87 0 0 0-.756.84V174h-1.056v-6.228h.924l.108 1.356h.024c.2-.416.472-.752.816-1.008a2.553 2.553 0 0 1 1.212-.468v1.176Zm1.17-3.432h1.056V174h-1.056v-8.604Zm2.756 10.044h-.96l3.804-10.512h.96l-3.804 10.512Zm5.214-8.58c-.216 0-.388-.064-.516-.192a.692.692 0 0 1-.192-.492.675.675 0 0 1 .708-.696c.208 0 .372.068.492.204.12.136.18.3.18.492s-.06.356-.18.492c-.12.128-.284.192-.492.192Zm-.54.912h1.056V174h-1.056v-6.228Zm2.333 3.108c0-.728.128-1.328.384-1.8.256-.48.596-.836 1.02-1.068.432-.24.9-.36 1.404-.36.472 0 .88.1 1.224.3.344.192.62.468.828.828v-3.384h1.056V174h-.924l-.084-1.224a2.46 2.46 0 0 1-.816.984c-.344.24-.776.36-1.296.36-.496 0-.96-.116-1.392-.348-.424-.24-.764-.6-1.02-1.08-.256-.48-.384-1.084-.384-1.812Zm4.872 0c0-.776-.184-1.352-.552-1.728a1.838 1.838 0 0 0-1.368-.564c-.544 0-.992.196-1.344.588-.352.384-.528.952-.528 1.704 0 .76.176 1.332.528 1.716.352.384.8.576 1.344.576s1-.188 1.368-.564c.368-.376.552-.952.552-1.728Zm2.746 4.56h-.96l3.804-10.512h.96l-3.804 10.512Z"/>
    <rect width="102" height="44" x="238" y="202" fill="#D6E1FF" rx="8"/>
    <path fill="#000" d="M265.969 226.884a2.257 2.257 0 0 1-.78.876c-.344.24-.796.36-1.356.36-.576 0-1.044-.164-1.404-.492-.352-.328-.528-.828-.528-1.5v-4.356h1.068v4.356c0 .408.112.684.336.828.224.144.5.216.828.216.464 0 .836-.104 1.116-.312.28-.208.52-.492.72-.852v-4.236h1.056V228h-.936l-.096-1.116h-.024Zm5.874-4.056c-.496.04-.92.164-1.272.372a1.87 1.87 0 0 0-.756.84V228h-1.056v-6.228h.924l.108 1.356h.024c.2-.416.472-.752.816-1.008a2.553 2.553 0 0 1 1.212-.468v1.176Zm1.169-3.432h1.056V228h-1.056v-8.604Zm2.757 10.044h-.96l3.804-10.512h.96l-3.804 10.512Zm6.646-1.32c-.968 0-1.732-.284-2.292-.852-.56-.576-.84-1.372-.84-2.388 0-1.016.284-1.808.852-2.376.568-.568 1.344-.852 2.328-.852.376 0 .728.044 1.056.132.328.08.592.2.792.36v.948a3.423 3.423 0 0 0-1.836-.504c-.72 0-1.252.192-1.596.576-.344.376-.516.948-.516 1.716s.164 1.344.492 1.728c.336.376.856.564 1.56.564.68 0 1.312-.164 1.896-.492v.948c-.52.328-1.152.492-1.896.492Zm6.267-5.292c-.496.04-.92.164-1.272.372a1.87 1.87 0 0 0-.756.84V228h-1.056v-6.228h.924l.108 1.356h.024c.2-.416.472-.752.816-1.008a2.553 2.553 0 0 1 1.212-.468v1.176Zm3.743 5.292c-1.04 0-1.836-.284-2.388-.852-.544-.576-.816-1.372-.816-2.388 0-.68.128-1.26.384-1.74s.608-.848 1.056-1.104a2.993 2.993 0 0 1 1.512-.384c.952 0 1.652.316 2.1.948.448.624.592 1.48.432 2.568h-4.392c.088 1.336.824 2.004 2.208 2.004.76 0 1.46-.216 2.1-.648v.948c-.288.2-.624.36-1.008.48-.384.112-.78.168-1.188.168Zm-.276-5.532c-.456 0-.848.14-1.176.42-.328.28-.536.704-.624 1.272h3.348c.024-.536-.1-.952-.372-1.248-.272-.296-.664-.444-1.176-.444Zm5.991 0c-.664 0-1.336.204-2.016.612v-.948a3.804 3.804 0 0 1 1.02-.432 4.142 4.142 0 0 1 1.14-.168c.784 0 1.38.164 1.788.492.408.328.612.828.612 1.5v3.348c0 .136.004.312.012.528.016.208.032.368.048.48h-.96a5.482 5.482 0 0 1-.072-.468 7.173 7.173 0 0 1-.024-.54l-.012-.18a3.359 3.359 0 0 1-.396.6c-.168.2-.392.368-.672.504-.272.136-.612.204-1.02.204-.56 0-1.012-.16-1.356-.48-.344-.32-.516-.772-.516-1.356 0-.68.24-1.18.72-1.5.48-.32 1.156-.48 2.028-.48h1.164v-.516c0-.432-.112-.74-.336-.924-.224-.184-.608-.276-1.152-.276Zm1.488 3.012v-.456h-1.056c-.632 0-1.092.092-1.38.276-.28.184-.42.452-.42.804 0 .28.084.508.252.684.176.176.44.264.792.264.328 0 .608-.064.84-.192.232-.136.42-.296.564-.48.144-.192.248-.372.312-.54.064-.168.096-.288.096-.36Zm2.212-2.928v-.9h.744v-1.308h1.056v1.308h1.812v.9h-1.812v3.744c0 .264.068.456.204.576.136.12.368.18.696.18.312 0 .596-.088.852-.264v.96a1.48 1.48 0 0 1-.504.18 2.767 2.767 0 0 1-.624.072c-.4 0-.724-.076-.972-.228a1.36 1.36 0 0 1-.54-.588 1.767 1.767 0 0 1-.168-.756v-3.876h-.744Zm7.542 5.448c-1.04 0-1.836-.284-2.388-.852-.544-.576-.816-1.372-.816-2.388 0-.68.128-1.26.384-1.74s.608-.848 1.056-1.104a2.993 2.993 0 0 1 1.512-.384c.952 0 1.652.316 2.1.948.448.624.592 1.48.432 2.568h-4.392c.088 1.336.824 2.004 2.208 2.004.76 0 1.46-.216 2.1-.648v.948c-.288.2-.624.36-1.008.48-.384.112-.78.168-1.188.168Zm-.276-5.532c-.456 0-.848.14-1.176.42-.328.28-.536.704-.624 1.272h3.348c.024-.536-.1-.952-.372-1.248-.272-.296-.664-.444-1.176-.444Zm3.975 6.852h-.96l3.804-10.512h.96l-3.804 10.512Z"/>
    <rect width="102" height="44" x="238" y="256" fill="#D6E1FF" rx="8"/>
    <path fill="#000" d="M264.891 280.884a2.257 2.257 0 0 1-.78.876c-.344.24-.796.36-1.356.36-.576 0-1.044-.164-1.404-.492-.352-.328-.528-.828-.528-1.5v-4.356h1.068v4.356c0 .408.112.684.336.828.224.144.5.216.828.216.464 0 .836-.104 1.116-.312.28-.208.52-.492.72-.852v-4.236h1.056V282h-.936l-.096-1.116h-.024Zm5.873-4.056c-.496.04-.92.164-1.272.372a1.87 1.87 0 0 0-.756.84V282h-1.056v-6.228h.924l.108 1.356h.024c.2-.416.472-.752.816-1.008a2.553 2.553 0 0 1 1.212-.468v1.176Zm1.17-3.432h1.056V282h-1.056v-8.604Zm2.756 10.044h-.96l3.804-10.512h.96l-3.804 10.512Zm5.214-8.58c-.216 0-.388-.064-.516-.192a.692.692 0 0 1-.192-.492.675.675 0 0 1 .708-.696c.208 0 .372.068.492.204.12.136.18.3.18.492s-.06.356-.18.492c-.12.128-.284.192-.492.192Zm-.54.912h1.056V282h-1.056v-6.228Zm2.333 3.108c0-.728.128-1.328.384-1.8.256-.48.596-.836 1.02-1.068.432-.24.9-.36 1.404-.36.472 0 .88.1 1.224.3.344.192.62.468.828.828v-3.384h1.056V282h-.924l-.084-1.224a2.46 2.46 0 0 1-.816.984c-.344.24-.776.36-1.296.36-.496 0-.96-.116-1.392-.348-.424-.24-.764-.6-1.02-1.08-.256-.48-.384-1.084-.384-1.812Zm4.872 0c0-.776-.184-1.352-.552-1.728a1.838 1.838 0 0 0-1.368-.564c-.544 0-.992.196-1.344.588-.352.384-.528.952-.528 1.704 0 .76.176 1.332.528 1.716.352.384.8.576 1.344.576s1-.188 1.368-.564c.368-.376.552-.952.552-1.728Zm2.746 4.56h-.96l3.804-10.512h.96l-3.804 10.512Zm6.719-1.32c-1.04 0-1.836-.284-2.388-.852-.544-.576-.816-1.372-.816-2.388 0-.68.128-1.26.384-1.74s.608-.848 1.056-1.104a2.993 2.993 0 0 1 1.512-.384c.952 0 1.652.316 2.1.948.448.624.592 1.48.432 2.568h-4.392c.088 1.336.824 2.004 2.208 2.004.76 0 1.46-.216 2.1-.648v.948c-.288.2-.624.36-1.008.48-.384.112-.78.168-1.188.168Zm-.276-5.532c-.456 0-.848.14-1.176.42-.328.28-.536.704-.624 1.272h3.348c.024-.536-.1-.952-.372-1.248-.272-.296-.664-.444-1.176-.444Zm3.435 2.292c0-.728.128-1.328.384-1.8.256-.48.596-.836 1.02-1.068.432-.24.9-.36 1.404-.36.472 0 .88.1 1.224.3.344.192.62.468.828.828v-3.384h1.056V282h-.924l-.084-1.224a2.46 2.46 0 0 1-.816.984c-.344.24-.776.36-1.296.36-.496 0-.96-.116-1.392-.348-.424-.24-.764-.6-1.02-1.08-.256-.48-.384-1.084-.384-1.812Zm4.872 0c0-.776-.184-1.352-.552-1.728a1.838 1.838 0 0 0-1.368-.564c-.544 0-.992.196-1.344.588-.352.384-.528.952-.528 1.704 0 .76.176 1.332.528 1.716.352.384.8.576 1.344.576s1-.188 1.368-.564c.368-.376.552-.952.552-1.728Zm3.308-4.02c-.216 0-.388-.064-.516-.192a.692.692 0 0 1-.192-.492.675.675 0 0 1 .708-.696c.208 0 .372.068.492.204.12.136.18.3.18.492s-.06.356-.18.492c-.12.128-.284.192-.492.192Zm-.54.912h1.056V282h-1.056v-6.228Zm2.273.9v-.9h.744v-1.308h1.056v1.308h1.812v.9h-1.812v3.744c0 .264.068.456.204.576.136.12.368.18.696.18.312 0 .596-.088.852-.264v.96a1.48 1.48 0 0 1-.504.18 2.767 2.767 0 0 1-.624.072c-.4 0-.724-.076-.972-.228a1.36 1.36 0 0 1-.54-.588 1.767 1.767 0 0 1-.168-.756v-3.876h-.744Zm5.053 6.768h-.96l3.804-10.512h.96l-3.804 10.512Z"/>
    <rect width="102" height="44" x="238" y="310" fill="#D6E1FF" rx="8"/>
    <path fill="#000" d="M261.001 334.884a2.257 2.257 0 0 1-.78.876c-.344.24-.796.36-1.356.36-.576 0-1.044-.164-1.404-.492-.352-.328-.528-.828-.528-1.5v-4.356h1.068v4.356c0 .408.112.684.336.828.224.144.5.216.828.216.464 0 .836-.104 1.116-.312.28-.208.52-.492.72-.852v-4.236h1.056V336h-.936l-.096-1.116h-.024Zm5.873-4.056c-.496.04-.92.164-1.272.372a1.87 1.87 0 0 0-.756.84V336h-1.056v-6.228h.924l.108 1.356h.024c.2-.416.472-.752.816-1.008a2.553 2.553 0 0 1 1.212-.468v1.176Zm1.17-3.432h1.056V336h-1.056v-8.604Zm2.756 10.044h-.96l3.804-10.512h.96L270.8 337.44Zm5.213-8.58c-.216 0-.388-.064-.516-.192a.692.692 0 0 1-.192-.492.675.675 0 0 1 .708-.696c.208 0 .372.068.492.204.12.136.18.3.18.492s-.06.356-.18.492c-.12.128-.284.192-.492.192Zm-.54.912h1.056V336h-1.056v-6.228Zm2.334 3.108c0-.728.128-1.328.384-1.8.256-.48.596-.836 1.02-1.068.432-.24.9-.36 1.404-.36.472 0 .88.1 1.224.3.344.192.62.468.828.828v-3.384h1.056V336h-.924l-.084-1.224a2.46 2.46 0 0 1-.816.984c-.344.24-.776.36-1.296.36-.496 0-.96-.116-1.392-.348-.424-.24-.764-.6-1.02-1.08-.256-.48-.384-1.084-.384-1.812Zm4.872 0c0-.776-.184-1.352-.552-1.728a1.838 1.838 0 0 0-1.368-.564c-.544 0-.992.196-1.344.588-.352.384-.528.952-.528 1.704 0 .76.176 1.332.528 1.716.352.384.8.576 1.344.576s1-.188 1.368-.564c.368-.376.552-.952.552-1.728Zm2.746 4.56h-.96l3.804-10.512h.96l-3.804 10.512Zm3.515-4.56c0-.728.128-1.328.384-1.8.256-.48.596-.836 1.02-1.068.432-.24.9-.36 1.404-.36.472 0 .88.1 1.224.3.344.192.62.468.828.828v-3.384h1.056V336h-.924l-.084-1.224a2.46 2.46 0 0 1-.816.984c-.344.24-.776.36-1.296.36-.496 0-.96-.116-1.392-.348-.424-.24-.764-.6-1.02-1.08-.256-.48-.384-1.084-.384-1.812Zm4.872 0c0-.776-.184-1.352-.552-1.728a1.838 1.838 0 0 0-1.368-.564c-.544 0-.992.196-1.344.588-.352.384-.528.952-.528 1.704 0 .76.176 1.332.528 1.716.352.384.8.576 1.344.576s1-.188 1.368-.564c.368-.376.552-.952.552-1.728Zm5.527 3.24c-1.04 0-1.836-.284-2.388-.852-.544-.576-.816-1.372-.816-2.388 0-.68.128-1.26.384-1.74s.608-.848 1.056-1.104a2.993 2.993 0 0 1 1.512-.384c.952 0 1.652.316 2.1.948.448.624.592 1.48.432 2.568h-4.392c.088 1.336.824 2.004 2.208 2.004.76 0 1.46-.216 2.1-.648v.948c-.288.2-.624.36-1.008.48-.384.112-.78.168-1.188.168Zm-.276-5.532c-.456 0-.848.14-1.176.42-.328.28-.536.704-.624 1.272h3.348c.024-.536-.1-.952-.372-1.248-.272-.296-.664-.444-1.176-.444Zm3.879-3.192h1.056V336h-1.056v-8.604Zm5.537 8.724c-1.04 0-1.836-.284-2.388-.852-.544-.576-.816-1.372-.816-2.388 0-.68.128-1.26.384-1.74s.608-.848 1.056-1.104a2.993 2.993 0 0 1 1.512-.384c.952 0 1.652.316 2.1.948.448.624.592 1.48.432 2.568h-4.392c.088 1.336.824 2.004 2.208 2.004.76 0 1.46-.216 2.1-.648v.948c-.288.2-.624.36-1.008.48-.384.112-.78.168-1.188.168Zm-.276-5.532c-.456 0-.848.14-1.176.42-.328.28-.536.704-.624 1.272h3.348c.024-.536-.1-.952-.372-1.248-.272-.296-.664-.444-1.176-.444Zm3.376.084v-.9h.744v-1.308h1.056v1.308h1.812v.9h-1.812v3.744c0 .264.068.456.204.576.136.12.368.18.696.18.312 0 .596-.088.852-.264v.96a1.48 1.48 0 0 1-.504.18 2.767 2.767 0 0 1-.624.072c-.4 0-.724-.076-.972-.228a1.36 1.36 0 0 1-.54-.588 1.767 1.767 0 0 1-.168-.756v-3.876h-.744Zm7.541 5.448c-1.04 0-1.836-.284-2.388-.852-.544-.576-.816-1.372-.816-2.388 0-.68.128-1.26.384-1.74s.608-.848 1.056-1.104a2.993 2.993 0 0 1 1.512-.384c.952 0 1.652.316 2.1.948.448.624.592 1.48.432 2.568h-4.392c.088 1.336.824 2.004 2.208 2.004.76 0 1.46-.216 2.1-.648v.948c-.288.2-.624.36-1.008.48-.384.112-.78.168-1.188.168Zm-.276-5.532c-.456 0-.848.14-1.176.42-.328.28-.536.704-.624 1.272h3.348c.024-.536-.1-.952-.372-1.248-.272-.296-.664-.444-1.176-.444ZM271.141 69.396h2.88c1.008 0 1.78.2 2.316.6.536.392.804 1.012.804 1.86 0 .752-.18 1.328-.54 1.728-.36.392-.84.656-1.44.792l2.34 3.624h-1.272l-2.244-3.492h-1.716V78h-1.128v-8.604Zm2.772 4.092c.616 0 1.112-.12 1.488-.36.376-.24.564-.672.564-1.296 0-.512-.172-.872-.516-1.08-.336-.216-.812-.324-1.428-.324h-1.752v3.06h1.644Zm7.28 4.632c-.568 0-1.08-.124-1.536-.372a2.784 2.784 0 0 1-1.068-1.104c-.264-.488-.396-1.076-.396-1.764s.132-1.272.396-1.752.62-.844 1.068-1.092a3.083 3.083 0 0 1 1.536-.384c.576 0 1.092.128 1.548.384a2.68 2.68 0 0 1 1.08 1.092c.264.48.396 1.064.396 1.752s-.132 1.276-.396 1.764a2.76 2.76 0 0 1-1.08 1.104 3.187 3.187 0 0 1-1.548.372Zm0-.948c.56 0 1.024-.184 1.392-.552.368-.376.552-.956.552-1.74s-.184-1.36-.552-1.728c-.368-.376-.832-.564-1.392-.564-.552 0-1.012.188-1.38.564-.36.368-.54.944-.54 1.728s.18 1.364.54 1.74c.368.368.828.552 1.38.552Zm8.308-.288a2.257 2.257 0 0 1-.78.876c-.344.24-.796.36-1.356.36-.576 0-1.044-.164-1.404-.492-.352-.328-.528-.828-.528-1.5v-4.356h1.068v4.356c0 .408.112.684.336.828.224.144.5.216.828.216.464 0 .836-.104 1.116-.312.28-.208.52-.492.72-.852v-4.236h1.056V78h-.936l-.096-1.116h-.024Zm2.285-4.212v-.9h.744v-1.308h1.056v1.308h1.812v.9h-1.812v3.744c0 .264.068.456.204.576.136.12.368.18.696.18.312 0 .596-.088.852-.264v.96a1.48 1.48 0 0 1-.504.18 2.767 2.767 0 0 1-.624.072c-.4 0-.724-.076-.972-.228a1.36 1.36 0 0 1-.54-.588 1.767 1.767 0 0 1-.168-.756v-3.876h-.744Zm7.541 5.448c-1.04 0-1.836-.284-2.388-.852-.544-.576-.816-1.372-.816-2.388 0-.68.128-1.26.384-1.74s.608-.848 1.056-1.104a2.993 2.993 0 0 1 1.512-.384c.952 0 1.652.316 2.1.948.448.624.592 1.48.432 2.568h-4.392c.088 1.336.824 2.004 2.208 2.004.76 0 1.46-.216 2.1-.648v.948c-.288.2-.624.36-1.008.48-.384.112-.78.168-1.188.168Zm-.276-5.532c-.456 0-.848.14-1.176.42-.328.28-.536.704-.624 1.272h3.348c.024-.536-.1-.952-.372-1.248-.272-.296-.664-.444-1.176-.444Zm5.871 5.532c-.456 0-.892-.064-1.308-.192-.408-.136-.74-.316-.996-.54v-.948c.248.24.58.432.996.576.424.144.856.216 1.296.216.976 0 1.464-.316 1.464-.948a.698.698 0 0 0-.132-.444c-.08-.12-.232-.22-.456-.3a5.694 5.694 0 0 0-.972-.252c-.808-.16-1.372-.376-1.692-.648-.32-.28-.48-.676-.48-1.188 0-.568.22-1.008.66-1.32.44-.32 1.048-.48 1.824-.48.368 0 .728.04 1.08.12.36.072.652.172.876.3v.948c-.464-.32-1.104-.48-1.92-.48-.504 0-.876.072-1.116.216-.232.144-.348.368-.348.672 0 .16.036.292.108.396.072.104.216.196.432.276.216.08.54.164.972.252.552.112.988.248 1.308.408.328.152.56.348.696.588.144.24.216.544.216.912 0 .584-.22 1.04-.66 1.368-.44.328-1.056.492-1.848.492Z"/>
    <rect width="102" height="44" x="430" y="424" fill="#D6E1FF" rx="10"/>
    <path fill="#000" d="M465.774 443.12c-.568 0-1.1-.068-1.596-.204-.488-.144-.892-.344-1.212-.6v-1.284c.2.16.452.304.756.432.312.128.644.232.996.312.36.072.704.108 1.032.108 1.264 0 1.896-.4 1.896-1.2 0-.248-.056-.452-.168-.612-.104-.16-.296-.296-.576-.408-.272-.12-.664-.24-1.176-.36-.688-.16-1.232-.352-1.632-.576-.4-.232-.688-.508-.864-.828-.168-.328-.252-.716-.252-1.164 0-.784.284-1.388.852-1.812.576-.424 1.392-.636 2.448-.636.888 0 1.664.18 2.328.54v1.272c-.56-.376-1.324-.564-2.292-.564-1.256 0-1.884.372-1.884 1.116 0 .328.128.584.384.768.256.184.728.352 1.416.504.728.168 1.3.364 1.716.588.424.224.724.504.9.84.184.328.276.724.276 1.188 0 .824-.292 1.46-.876 1.908-.584.448-1.408.672-2.472.672Zm6.922-.132a5.398 5.398 0 0 1-1.464-.912 3.718 3.718 0 0 1-.948-1.368c-.224-.544-.336-1.2-.336-1.968 0-.952.18-1.76.54-2.424.368-.664.864-1.168 1.488-1.512.632-.344 1.34-.516 2.124-.516.776 0 1.48.168 2.112.504a3.695 3.695 0 0 1 1.512 1.464c.376.648.564 1.452.564 2.412 0 .672-.096 1.288-.288 1.848a3.423 3.423 0 0 1-.948 1.428c-.432.392-1.012.692-1.74.9.48.128.976.236 1.488.324.512.096 1.028.176 1.548.24l-.504 1.296a26.265 26.265 0 0 1-2.94-.864c-.824-.296-1.56-.58-2.208-.852Zm4.068-4.284c0-.768-.116-1.384-.348-1.848-.232-.464-.548-.8-.948-1.008a2.895 2.895 0 0 0-1.356-.312c-.504 0-.956.104-1.356.312-.392.208-.704.544-.936 1.008-.232.464-.348 1.08-.348 1.848s.116 1.388.348 1.86c.232.464.544.8.936 1.008.4.208.852.312 1.356.312.504 0 .956-.104 1.356-.312.4-.208.716-.544.948-1.008.232-.472.348-1.092.348-1.86Zm2.922-4.308h1.452v7.356h3.936V443h-5.388v-8.604Zm7.349 1.584a.885.885 0 0 1-.636-.24.84.84 0 0 1-.24-.6c0-.24.08-.444.24-.612a.862.862 0 0 1 .636-.252c.248 0 .452.084.612.252a.833.833 0 0 1 .252.612.82.82 0 0 1-.252.6.829.829 0 0 1-.612.24Zm-.696.792h1.392V443h-1.392v-6.228Zm2.461 1.128v-1.128h.744v-1.308h1.392v1.308h1.788v1.128h-1.788v3.312c0 .256.06.444.18.564.12.12.324.18.612.18.336 0 .64-.104.912-.312v1.164c-.328.208-.756.312-1.284.312-.448 0-.804-.08-1.068-.24a1.423 1.423 0 0 1-.576-.636 2.22 2.22 0 0 1-.168-.876V437.9h-.744Zm8.004 5.22c-1.136 0-1.988-.284-2.556-.852-.568-.576-.852-1.372-.852-2.388 0-.672.132-1.248.396-1.728a2.72 2.72 0 0 1 1.092-1.116c.464-.256.992-.384 1.584-.384 1 0 1.736.324 2.208.972.48.648.636 1.528.468 2.64h-4.308c.056.568.244.996.564 1.284.328.28.828.42 1.5.42.744 0 1.44-.192 2.088-.576v1.152c-.608.384-1.336.576-2.184.576Zm-.336-5.364c-.408 0-.756.128-1.044.384-.28.248-.464.616-.552 1.104h2.94c.016-.48-.092-.848-.324-1.104-.232-.256-.572-.384-1.02-.384Zm-39.997 16.124c0-.728.128-1.328.384-1.8.256-.48.596-.836 1.02-1.068.432-.24.9-.36 1.404-.36.472 0 .88.1 1.224.3.344.192.62.468.828.828v-3.384h1.056V457h-.924l-.084-1.224a2.46 2.46 0 0 1-.816.984c-.344.24-.776.36-1.296.36-.496 0-.96-.116-1.392-.348-.424-.24-.764-.6-1.02-1.08-.256-.48-.384-1.084-.384-1.812Zm4.872 0c0-.776-.184-1.352-.552-1.728a1.838 1.838 0 0 0-1.368-.564c-.544 0-.992.196-1.344.588-.352.384-.528.952-.528 1.704 0 .76.176 1.332.528 1.716.352.384.8.576 1.344.576s1-.188 1.368-.564c.368-.376.552-.952.552-1.728Zm4.879-2.292c-.664 0-1.336.204-2.016.612v-.948a3.804 3.804 0 0 1 1.02-.432 4.142 4.142 0 0 1 1.14-.168c.784 0 1.38.164 1.788.492.408.328.612.828.612 1.5v3.348c0 .136.004.312.012.528.016.208.032.368.048.48h-.96a5.482 5.482 0 0 1-.072-.468 7.173 7.173 0 0 1-.024-.54l-.012-.18a3.359 3.359 0 0 1-.396.6c-.168.2-.392.368-.672.504-.272.136-.612.204-1.02.204-.56 0-1.012-.16-1.356-.48-.344-.32-.516-.772-.516-1.356 0-.68.24-1.18.72-1.5.48-.32 1.156-.48 2.028-.48h1.164v-.516c0-.432-.112-.74-.336-.924-.224-.184-.608-.276-1.152-.276Zm1.488 3.012v-.456h-1.056c-.632 0-1.092.092-1.38.276-.28.184-.42.452-.42.804 0 .28.084.508.252.684.176.176.44.264.792.264.328 0 .608-.064.84-.192.232-.136.42-.296.564-.48.144-.192.248-.372.312-.54.064-.168.096-.288.096-.36Zm2.213-2.928v-.9h.744v-1.308h1.056v1.308h1.812v.9h-1.812v3.744c0 .264.068.456.204.576.136.12.368.18.696.18.312 0 .596-.088.852-.264v.96a1.48 1.48 0 0 1-.504.18 2.767 2.767 0 0 1-.624.072c-.4 0-.724-.076-.972-.228a1.36 1.36 0 0 1-.54-.588 1.767 1.767 0 0 1-.168-.756v-3.876h-.744Zm7.069-.084c-.664 0-1.336.204-2.016.612v-.948a3.804 3.804 0 0 1 1.02-.432 4.142 4.142 0 0 1 1.14-.168c.784 0 1.38.164 1.788.492.408.328.612.828.612 1.5v3.348c0 .136.004.312.012.528.016.208.032.368.048.48h-.96a5.482 5.482 0 0 1-.072-.468 7.173 7.173 0 0 1-.024-.54l-.012-.18a3.359 3.359 0 0 1-.396.6c-.168.2-.392.368-.672.504-.272.136-.612.204-1.02.204-.56 0-1.012-.16-1.356-.48-.344-.32-.516-.772-.516-1.356 0-.68.24-1.18.72-1.5.48-.32 1.156-.48 2.028-.48h1.164v-.516c0-.432-.112-.74-.336-.924-.224-.184-.608-.276-1.152-.276Zm1.488 3.012v-.456h-1.056c-.632 0-1.092.092-1.38.276-.28.184-.42.452-.42.804 0 .28.084.508.252.684.176.176.44.264.792.264.328 0 .608-.064.84-.192.232-.136.42-.296.564-.48.144-.192.248-.372.312-.54.064-.168.096-.288.096-.36Zm2.716-6.204h1.056l-.024 3.588c.208-.4.488-.72.84-.96.352-.248.788-.372 1.308-.372.488 0 .936.12 1.344.36.416.232.752.588 1.008 1.068.256.472.384 1.072.384 1.8s-.132 1.332-.396 1.812c-.256.48-.596.84-1.02 1.08a2.761 2.761 0 0 1-1.368.348c-.48 0-.9-.116-1.26-.348a2.48 2.48 0 0 1-.84-.948l-.036 1.176h-.996v-8.604Zm4.824 5.484c0-.752-.172-1.32-.516-1.704-.344-.392-.788-.588-1.332-.588s-1.004.192-1.38.576c-.368.376-.552.948-.552 1.716 0 .776.184 1.352.552 1.728.376.376.836.564 1.38.564.544 0 .988-.192 1.332-.576.344-.384.516-.956.516-1.716Zm4.425-2.292c-.664 0-1.336.204-2.016.612v-.948a3.804 3.804 0 0 1 1.02-.432 4.142 4.142 0 0 1 1.14-.168c.784 0 1.38.164 1.788.492.408.328.612.828.612 1.5v3.348c0 .136.004.312.012.528.016.208.032.368.048.48h-.96a5.482 5.482 0 0 1-.072-.468 7.173 7.173 0 0 1-.024-.54l-.012-.18a3.359 3.359 0 0 1-.396.6c-.168.2-.392.368-.672.504-.272.136-.612.204-1.02.204-.56 0-1.012-.16-1.356-.48-.344-.32-.516-.772-.516-1.356 0-.68.24-1.18.72-1.5.48-.32 1.156-.48 2.028-.48h1.164v-.516c0-.432-.112-.74-.336-.924-.224-.184-.608-.276-1.152-.276Zm1.488 3.012v-.456h-1.056c-.632 0-1.092.092-1.38.276-.28.184-.42.452-.42.804 0 .28.084.508.252.684.176.176.44.264.792.264.328 0 .608-.064.84-.192.232-.136.42-.296.564-.48.144-.192.248-.372.312-.54.064-.168.096-.288.096-.36Zm4.708 2.52c-.456 0-.892-.064-1.308-.192-.408-.136-.74-.316-.996-.54v-.948c.248.24.58.432.996.576.424.144.856.216 1.296.216.976 0 1.464-.316 1.464-.948a.698.698 0 0 0-.132-.444c-.08-.12-.232-.22-.456-.3a5.694 5.694 0 0 0-.972-.252c-.808-.16-1.372-.376-1.692-.648-.32-.28-.48-.676-.48-1.188 0-.568.22-1.008.66-1.32.44-.32 1.048-.48 1.824-.48.368 0 .728.04 1.08.12.36.072.652.172.876.3v.948c-.464-.32-1.104-.48-1.92-.48-.504 0-.876.072-1.116.216-.232.144-.348.368-.348.672 0 .16.036.292.108.396.072.104.216.196.432.276.216.08.54.164.972.252.552.112.988.248 1.308.408.328.152.56.348.696.588.144.24.216.544.216.912 0 .584-.22 1.04-.66 1.368-.44.328-1.056.492-1.848.492Zm6.569 0c-1.04 0-1.836-.284-2.388-.852-.544-.576-.816-1.372-.816-2.388 0-.68.128-1.26.384-1.74s.608-.848 1.056-1.104a2.993 2.993 0 0 1 1.512-.384c.952 0 1.652.316 2.1.948.448.624.592 1.48.432 2.568h-4.392c.088 1.336.824 2.004 2.208 2.004.76 0 1.46-.216 2.1-.648v.948c-.288.2-.624.36-1.008.48-.384.112-.78.168-1.188.168Zm-.276-5.532c-.456 0-.848.14-1.176.42-.328.28-.536.704-.624 1.272h3.348c.024-.536-.1-.952-.372-1.248-.272-.296-.664-.444-1.176-.444Z"/>
    <path fill="#fff" d="M345 111h80v10h-80z"/>
    <path fill="#4E496B" d="m425 116-10 5.774v-11.547L425 116Zm-9 1h-71v-2h71v2Z"/>
    <path fill="#fff" d="M345 273h80v10h-80zm0 54h80v10h-80zm0-162h80v10h-80zm0 54h80v10h-80zm202-108h8v10h-8zm0 162h8v10h-8zm0 54h8v10h-8zm0-162h8v10h-8zm0 54h8v10h-8z"/>
    <path fill="#4E496B" d="m425 170-10 5.774v-11.547L425 170Zm-9 1h-71v-2h71v2Zm-223 39-10 5.774v-11.547L193 210Zm-9 1h-31v-2h31v2Zm241 13-10 5.774v-11.547L425 224Zm-9 1h-71v-2h71v2Zm9 53-10 5.774v-11.547L425 278Zm-9 1h-71v-2h71v2Zm211-163-10 5.774v-11.547L627 116Zm-9 1h-81v-2h81v2Zm9 53-10 5.774v-11.547L627 170Zm-9 1h-81v-2h81v2Zm9 53-10 5.774v-11.547L627 224Zm-9 1h-81v-2h81v2Zm9 53-10 5.774v-11.547L627 278Zm-9 1h-81v-2h81v2Zm-193 53-10 5.774v-11.547L425 332Zm-9 1h-71v-2h71v2Zm267-28 5.774 10h-11.548L683 305Zm-5 27v1-1Zm0 1H537v-2h141v2Zm4-6v-13h2v13h-2Zm-4 4a4 4 0 0 0 4-4h2a6 6 0 0 1-6 6v-2Z"/>
    <rect width="102" height="44" x="26" y="39" fill="#D6E1FF" rx="8"/>
    <path fill="#000" d="M42.197 62.072v-5.676h1.14v5.664c0 .688.2 1.204.6 1.548.4.336.94.504 1.62.504.448 0 .844-.076 1.188-.228.352-.152.628-.38.828-.684.208-.304.312-.684.312-1.14v-5.664h1.08v5.628c0 .664-.152 1.228-.456 1.692a2.843 2.843 0 0 1-1.224 1.044c-.52.24-1.104.36-1.752.36-.632 0-1.2-.112-1.704-.336a2.79 2.79 0 0 1-1.2-1.032c-.288-.456-.432-1.016-.432-1.68Zm10.36 3.048c-.456 0-.892-.064-1.308-.192-.408-.136-.74-.316-.996-.54v-.948c.248.24.58.432.996.576.424.144.856.216 1.296.216.976 0 1.464-.316 1.464-.948a.698.698 0 0 0-.132-.444c-.08-.12-.232-.22-.456-.3a5.694 5.694 0 0 0-.972-.252c-.808-.16-1.372-.376-1.692-.648-.32-.28-.48-.676-.48-1.188 0-.568.22-1.008.66-1.32.44-.32 1.048-.48 1.824-.48.368 0 .728.04 1.08.12.36.072.652.172.876.3v.948c-.464-.32-1.104-.48-1.92-.48-.504 0-.876.072-1.116.216-.232.144-.348.368-.348.672 0 .16.036.292.108.396.072.104.216.196.432.276.216.08.54.164.972.252.552.112.988.248 1.308.408.328.152.56.348.696.588.144.24.216.544.216.912 0 .584-.22 1.04-.66 1.368-.44.328-1.056.492-1.848.492Zm6.569 0c-1.04 0-1.836-.284-2.388-.852-.544-.576-.816-1.372-.816-2.388 0-.68.128-1.26.384-1.74s.608-.848 1.056-1.104a2.993 2.993 0 0 1 1.512-.384c.952 0 1.652.316 2.1.948.448.624.592 1.48.432 2.568h-4.392c.088 1.336.824 2.004 2.208 2.004.76 0 1.46-.216 2.1-.648v.948c-.288.2-.624.36-1.008.48-.384.112-.78.168-1.188.168Zm-.276-5.532c-.456 0-.848.14-1.176.42-.328.28-.536.704-.624 1.272h3.348c.024-.536-.1-.952-.372-1.248-.272-.296-.664-.444-1.176-.444Zm6.963.24c-.496.04-.92.164-1.272.372a1.87 1.87 0 0 0-.756.84V65H62.73v-6.228h.924l.108 1.356h.024c.2-.416.472-.752.816-1.008a2.553 2.553 0 0 1 1.212-.468v1.176Zm3.69-3.432h1.056l-.024 3.588c.208-.4.488-.72.84-.96.352-.248.788-.372 1.308-.372.488 0 .936.12 1.344.36.416.232.752.588 1.008 1.068.256.472.384 1.072.384 1.8s-.132 1.332-.396 1.812c-.256.48-.596.84-1.02 1.08a2.761 2.761 0 0 1-1.368.348c-.48 0-.9-.116-1.26-.348a2.48 2.48 0 0 1-.84-.948L70.499 65h-.996v-8.604Zm4.824 5.484c0-.752-.172-1.32-.516-1.704-.344-.392-.788-.588-1.332-.588s-1.004.192-1.38.576c-.368.376-.552.948-.552 1.716 0 .776.184 1.352.552 1.728.376.376.836.564 1.38.564.544 0 .988-.192 1.332-.576.344-.384.516-.956.516-1.716Zm5.455-2.052c-.496.04-.92.164-1.272.372a1.87 1.87 0 0 0-.756.84V65h-1.056v-6.228h.924l.108 1.356h.024c.2-.416.472-.752.816-1.008a2.553 2.553 0 0 1 1.212-.468v1.176Zm3.538 5.292c-.568 0-1.08-.124-1.536-.372a2.784 2.784 0 0 1-1.068-1.104c-.264-.488-.396-1.076-.396-1.764s.132-1.272.396-1.752.62-.844 1.068-1.092a3.083 3.083 0 0 1 1.536-.384c.576 0 1.092.128 1.548.384a2.68 2.68 0 0 1 1.08 1.092c.264.48.396 1.064.396 1.752s-.132 1.276-.396 1.764a2.76 2.76 0 0 1-1.08 1.104 3.187 3.187 0 0 1-1.548.372Zm0-.948c.56 0 1.024-.184 1.392-.552.368-.376.552-.956.552-1.74s-.184-1.36-.552-1.728c-.368-.376-.832-.564-1.392-.564-.552 0-1.012.188-1.38.564-.36.368-.54.944-.54 1.728s.18 1.364.54 1.74c.368.368.828.552 1.38.552Zm12.39-5.4L94.294 65h-1.62l-1.32-4.812L89.998 65h-1.572l-1.416-6.228h1.116l1.188 5.436 1.512-5.436h1.188l1.476 5.376 1.176-5.376h1.044Zm3.218 6.348c-.456 0-.892-.064-1.308-.192-.408-.136-.74-.316-.996-.54v-.948c.248.24.58.432.996.576.424.144.856.216 1.296.216.976 0 1.464-.316 1.464-.948a.698.698 0 0 0-.132-.444c-.08-.12-.232-.22-.456-.3a5.694 5.694 0 0 0-.972-.252c-.808-.16-1.372-.376-1.692-.648-.32-.28-.48-.676-.48-1.188 0-.568.22-1.008.66-1.32.44-.32 1.048-.48 1.824-.48.368 0 .728.04 1.08.12.36.072.652.172.876.3v.948c-.464-.32-1.104-.48-1.92-.48-.504 0-.876.072-1.116.216-.232.144-.348.368-.348.672 0 .16.036.292.108.396.072.104.216.196.432.276.216.08.54.164.972.252.552.112.988.248 1.308.408.328.152.56.348.696.588.144.24.216.544.216.912 0 .584-.22 1.04-.66 1.368-.44.328-1.056.492-1.848.492Zm6.569 0c-1.04 0-1.836-.284-2.388-.852-.544-.576-.816-1.372-.816-2.388 0-.68.128-1.26.384-1.74s.608-.848 1.056-1.104a2.993 2.993 0 0 1 1.512-.384c.952 0 1.652.316 2.1.948.448.624.592 1.48.432 2.568h-4.392c.088 1.336.824 2.004 2.208 2.004.76 0 1.46-.216 2.1-.648v.948c-.288.2-.624.36-1.008.48-.384.112-.78.168-1.188.168Zm-.276-5.532c-.456 0-.848.14-1.176.42-.328.28-.536.704-.624 1.272h3.348c.024-.536-.1-.952-.372-1.248-.272-.296-.664-.444-1.176-.444Zm6.963.24c-.496.04-.92.164-1.272.372a1.87 1.87 0 0 0-.756.84V65H109.1v-6.228h.924l.108 1.356h.024c.2-.416.472-.752.816-1.008a2.553 2.553 0 0 1 1.212-.468v1.176Z"/>
    <rect width="140" height="151" x="7" y="134" fill="#fff" stroke="#5282FF" stroke-width="2" rx="9"/>
    <rect width="102" height="44" x="26" y="222" fill="#D6E1FF" rx="8"/>
    <path fill="#000" d="M51.182 232.396h5.472v1.26h-4.02v2.52h3.408v1.248h-3.408V241h-1.452v-8.604Zm6.641 0h1.392V241h-1.392v-8.604Zm5.15 3.408c-.689 0-1.385.192-2.089.576v-1.164a4.473 4.473 0 0 1 1.08-.408 5.081 5.081 0 0 1 1.236-.156c.8 0 1.416.168 1.848.504.44.336.66.864.66 1.584v3.252c0 .136.004.312.012.528.016.208.032.368.048.48h-1.296a5.482 5.482 0 0 1-.072-.468 7.173 7.173 0 0 1-.024-.54l-.012-.072c-.088.192-.216.38-.384.564-.16.184-.368.336-.624.456s-.576.18-.96.18c-.536 0-.992-.152-1.368-.456-.368-.312-.552-.764-.552-1.356 0-.672.252-1.18.756-1.524.504-.344 1.216-.516 2.136-.516h.948v-.384c0-.4-.104-.68-.312-.84-.208-.16-.552-.24-1.032-.24Zm1.343 2.796v-.42h-.864c-.56 0-.968.088-1.224.264a.818.818 0 0 0-.372.72c0 .272.076.488.228.648.16.152.392.228.696.228.296 0 .544-.06.744-.18.2-.128.356-.276.468-.444.12-.168.204-.328.252-.48.048-.16.072-.272.072-.336Zm4.946 2.52c-.448 0-.884-.064-1.308-.192-.416-.128-.752-.3-1.008-.516v-1.104c.248.224.576.404.984.54.416.128.844.192 1.284.192.848 0 1.272-.26 1.272-.78a.58.58 0 0 0-.12-.384c-.072-.104-.208-.188-.408-.252a6.074 6.074 0 0 0-.864-.216c-.776-.136-1.328-.344-1.656-.624-.328-.28-.492-.692-.492-1.236 0-.592.224-1.056.672-1.392.448-.336 1.072-.504 1.872-.504.376 0 .74.044 1.092.132.36.08.644.184.852.312v1.104c-.448-.312-1.076-.468-1.884-.468-.456 0-.788.06-.996.18a.569.569 0 0 0-.312.54c0 .144.032.26.096.348.064.08.192.152.384.216.2.064.5.132.9.204.784.144 1.34.368 1.668.672.336.296.504.716.504 1.26 0 .616-.224 1.1-.672 1.452-.448.344-1.068.516-1.86.516Zm9.21-.12H76.84l-1.944-2.532h-.552V241h-1.392v-8.604h1.392v4.956h.588l1.98-2.58h1.452l-2.352 3.012 2.46 3.216Zm11.467-6.228L88.523 241h-1.62l-1.32-4.812L84.227 241h-1.572l-1.416-6.228h1.116l1.188 5.436 1.512-5.436h1.188l1.476 5.376 1.176-5.376h1.044Zm3.869 6.348c-1.04 0-1.836-.284-2.388-.852-.544-.576-.816-1.372-.816-2.388 0-.68.128-1.26.384-1.74s.608-.848 1.056-1.104a2.993 2.993 0 0 1 1.512-.384c.952 0 1.652.316 2.1.948.448.624.592 1.48.432 2.568h-4.392c.088 1.336.824 2.004 2.208 2.004.76 0 1.46-.216 2.1-.648v.948c-.288.2-.624.36-1.008.48-.384.112-.78.168-1.188.168Zm-.276-5.532c-.456 0-.848.14-1.176.42-.328.28-.536.704-.624 1.272h3.348c.024-.536-.1-.952-.372-1.248-.272-.296-.664-.444-1.176-.444Zm3.879-3.192h1.056l-.024 3.588c.208-.4.488-.72.84-.96.352-.248.788-.372 1.308-.372.488 0 .936.12 1.344.36.416.232.752.588 1.008 1.068.256.472.384 1.072.384 1.8s-.132 1.332-.396 1.812c-.256.48-.596.84-1.02 1.08a2.761 2.761 0 0 1-1.368.348c-.48 0-.9-.116-1.26-.348a2.48 2.48 0 0 1-.84-.948L98.407 241h-.996v-8.604Zm4.824 5.484c0-.752-.172-1.32-.516-1.704-.344-.392-.788-.588-1.332-.588s-1.004.192-1.38.576c-.368.376-.552.948-.552 1.716 0 .776.184 1.352.552 1.728.376.376.836.564 1.38.564.544 0 .988-.192 1.332-.576.344-.384.516-.956.516-1.716Zm-39.12 17.24a4.42 4.42 0 0 1-1.307-.192c-.408-.136-.74-.316-.996-.54v-.948c.248.24.58.432.996.576.424.144.856.216 1.296.216.976 0 1.464-.316 1.464-.948a.698.698 0 0 0-.132-.444c-.08-.12-.232-.22-.456-.3a5.694 5.694 0 0 0-.972-.252c-.808-.16-1.372-.376-1.692-.648-.32-.28-.48-.676-.48-1.188 0-.568.22-1.008.66-1.32.44-.32 1.048-.48 1.824-.48.368 0 .728.04 1.08.12.36.072.652.172.876.3v.948c-.464-.32-1.104-.48-1.92-.48-.504 0-.876.072-1.116.216-.232.144-.348.368-.348.672 0 .16.036.292.108.396.072.104.216.196.432.276.216.08.54.164.972.252.552.112.988.248 1.308.408.328.152.56.348.696.588.144.24.216.544.216.912 0 .584-.22 1.04-.66 1.368-.44.328-1.056.492-1.848.492Zm6.57 0c-1.04 0-1.837-.284-2.389-.852-.544-.576-.816-1.372-.816-2.388 0-.68.129-1.26.385-1.74s.608-.848 1.056-1.104a2.993 2.993 0 0 1 1.511-.384c.953 0 1.653.316 2.1.948.449.624.593 1.48.433 2.568h-4.392c.088 1.336.824 2.004 2.208 2.004.76 0 1.46-.216 2.1-.648v.948c-.288.2-.624.36-1.008.48-.385.112-.78.168-1.189.168Zm-.276-5.532c-.457 0-.849.14-1.177.42-.328.28-.535.704-.623 1.272h3.348c.024-.536-.1-.952-.372-1.248-.272-.296-.664-.444-1.176-.444Zm6.963.24c-.496.04-.92.164-1.272.372a1.87 1.87 0 0 0-.756.84V255h-1.056v-6.228h.924l.108 1.356h.024c.2-.416.472-.752.816-1.008a2.553 2.553 0 0 1 1.212-.468v1.176Zm.719-1.056h1.14l1.896 5.664 1.884-5.664h1.056L80.93 255h-1.704l-2.136-6.228Zm9.539 6.348c-1.04 0-1.836-.284-2.388-.852-.544-.576-.816-1.372-.816-2.388 0-.68.128-1.26.384-1.74s.608-.848 1.056-1.104a2.993 2.993 0 0 1 1.512-.384c.952 0 1.652.316 2.1.948.448.624.592 1.48.432 2.568h-4.392c.088 1.336.824 2.004 2.208 2.004.76 0 1.46-.216 2.1-.648v.948c-.288.2-.624.36-1.008.48-.384.112-.78.168-1.188.168Zm-.276-5.532c-.456 0-.848.14-1.176.42-.328.28-.536.704-.624 1.272h3.348c.024-.536-.1-.952-.372-1.248-.272-.296-.664-.444-1.176-.444Zm6.963.24c-.496.04-.92.164-1.272.372a1.87 1.87 0 0 0-.756.84V255h-1.056v-6.228h.924l.108 1.356h.024c.2-.416.472-.752.816-1.008a2.553 2.553 0 0 1 1.212-.468v1.176ZM38.332 162l-3-8.604h1.176l2.748 7.92 2.748-7.92h1.08L40.096 162h-1.764Zm6.334-7.14c-.216 0-.388-.064-.516-.192a.692.692 0 0 1-.192-.492.675.675 0 0 1 .708-.696c.208 0 .372.068.492.204.12.136.18.3.18.492s-.06.356-.18.492c-.12.128-.284.192-.492.192Zm-.54.912h1.056V162h-1.056v-6.228Zm5.861 1.056c-.496.04-.92.164-1.272.372a1.87 1.87 0 0 0-.756.84V162h-1.056v-6.228h.924l.108 1.356h.024c.2-.416.472-.752.816-1.008a2.553 2.553 0 0 1 1.212-.468v1.176Zm.842-.156v-.9h.744v-1.308h1.056v1.308h1.812v.9h-1.812v3.744c0 .264.068.456.204.576.136.12.368.18.696.18.312 0 .596-.088.852-.264v.96a1.48 1.48 0 0 1-.504.18 2.767 2.767 0 0 1-.624.072c-.4 0-.724-.076-.972-.228a1.36 1.36 0 0 1-.54-.588 1.767 1.767 0 0 1-.168-.756v-3.876h-.744Zm8.953 4.212a2.257 2.257 0 0 1-.78.876c-.344.24-.796.36-1.356.36-.576 0-1.044-.164-1.404-.492-.352-.328-.528-.828-.528-1.5v-4.356h1.068v4.356c0 .408.112.684.336.828.224.144.5.216.828.216.464 0 .836-.104 1.116-.312.28-.208.52-.492.72-.852v-4.236h1.056V162h-.936l-.096-1.116h-.024Zm4.901-4.296c-.664 0-1.336.204-2.016.612v-.948a3.804 3.804 0 0 1 1.02-.432 4.142 4.142 0 0 1 1.14-.168c.784 0 1.38.164 1.788.492.408.328.612.828.612 1.5v3.348c0 .136.004.312.012.528.016.208.032.368.048.48h-.96a5.482 5.482 0 0 1-.072-.468 7.173 7.173 0 0 1-.024-.54l-.012-.18a3.359 3.359 0 0 1-.396.6c-.168.2-.392.368-.672.504-.272.136-.612.204-1.02.204-.56 0-1.012-.16-1.356-.48-.344-.32-.516-.772-.516-1.356 0-.68.24-1.18.72-1.5.48-.32 1.156-.48 2.028-.48h1.164v-.516c0-.432-.112-.74-.336-.924-.224-.184-.608-.276-1.152-.276Zm1.488 3.012v-.456h-1.056c-.632 0-1.092.092-1.38.276-.28.184-.42.452-.42.804 0 .28.084.508.252.684.176.176.44.264.792.264.328 0 .608-.064.84-.192.232-.136.42-.296.564-.48.144-.192.248-.372.312-.54.064-.168.096-.288.096-.36Zm2.716-6.204h1.056V162h-1.056v-8.604Zm9.488 7.296h-.504l.012-.012-2.604-5.7V162h-1.068v-8.604h1.572l2.676 6.036 2.796-6.036h1.464V162h-1.14v-6.924l-2.64 5.604-.564.012Zm8.316-4.104c-.664 0-1.336.204-2.016.612v-.948a3.804 3.804 0 0 1 1.02-.432 4.142 4.142 0 0 1 1.14-.168c.784 0 1.38.164 1.788.492.408.328.612.828.612 1.5v3.348c0 .136.004.312.012.528.016.208.032.368.048.48h-.96a5.482 5.482 0 0 1-.072-.468 7.173 7.173 0 0 1-.024-.54l-.012-.18a3.359 3.359 0 0 1-.396.6c-.168.2-.392.368-.672.504-.272.136-.612.204-1.02.204-.56 0-1.012-.16-1.356-.48-.344-.32-.516-.772-.516-1.356 0-.68.24-1.18.72-1.5.48-.32 1.156-.48 2.028-.48h1.164v-.516c0-.432-.112-.74-.336-.924-.224-.184-.608-.276-1.152-.276Zm1.488 3.012v-.456h-1.056c-.632 0-1.092.092-1.38.276-.28.184-.42.452-.42.804 0 .28.084.508.252.684.176.176.44.264.792.264.328 0 .608-.064.84-.192.232-.136.42-.296.564-.48.144-.192.248-.372.312-.54.064-.168.096-.288.096-.36Zm5.404 2.52c-.968 0-1.732-.284-2.292-.852-.56-.576-.84-1.372-.84-2.388 0-1.016.284-1.808.852-2.376.568-.568 1.344-.852 2.328-.852.376 0 .728.044 1.056.132.328.08.592.2.792.36v.948a3.423 3.423 0 0 0-1.836-.504c-.72 0-1.252.192-1.596.576-.344.376-.516.948-.516 1.716s.164 1.344.492 1.728c.336.376.856.564 1.56.564.68 0 1.312-.164 1.896-.492v.948c-.52.328-1.152.492-1.896.492Zm6.135-5.532c-.48 0-.872.112-1.176.336a2.455 2.455 0 0 0-.72.84V162h-1.056v-8.604h1.056v2.376l-.024 1.116h.024c.168-.352.432-.644.792-.876.36-.24.816-.36 1.368-.36.616 0 1.104.164 1.464.492.368.328.552.824.552 1.488V162h-1.056v-4.26c0-.424-.112-.72-.336-.888-.216-.176-.512-.264-.888-.264Zm4.491-1.728c-.216 0-.388-.064-.516-.192a.692.692 0 0 1-.192-.492.675.675 0 0 1 .708-.696c.208 0 .372.068.492.204.12.136.18.3.18.492s-.06.356-.18.492c-.12.128-.284.192-.492.192Zm-.54.912h1.056V162h-1.056v-6.228Zm5.729.816c-.48 0-.872.112-1.176.336a2.455 2.455 0 0 0-.72.84V162h-1.056v-6.228h.996l.036 1.116h.024c.168-.352.432-.644.792-.876.36-.24.816-.36 1.368-.36.616 0 1.104.164 1.464.492.368.328.552.824.552 1.488V162h-1.056v-4.26c0-.424-.112-.72-.336-.888-.216-.176-.512-.264-.888-.264Zm6.71 5.532c-1.04 0-1.836-.284-2.388-.852-.544-.576-.816-1.372-.816-2.388 0-.68.128-1.26.384-1.74s.608-.848 1.056-1.104a2.993 2.993 0 0 1 1.512-.384c.952 0 1.652.316 2.1.948.448.624.592 1.48.432 2.568h-4.392c.088 1.336.824 2.004 2.208 2.004.76 0 1.46-.216 2.1-.648v.948c-.288.2-.624.36-1.008.48-.384.112-.78.168-1.188.168Zm-.276-5.532c-.456 0-.848.14-1.176.42-.328.28-.536.704-.624 1.272h3.348c.024-.536-.1-.952-.372-1.248-.272-.296-.664-.444-1.176-.444Z"/>
    <path fill="#000" fill-rule="evenodd" d="M89 191.708v10.134a4 4 0 0 1-2.596 3.745l-9.656 3.622a4.013 4.013 0 0 1-.842.214A.992.992 0 0 0 76 209v-13.295l12.95-4.625c.033.205.05.416.05.628Zm-.85-2.466a4.002 4.002 0 0 0-1.361-1.112l-6.343-3.171a4 4 0 0 0-3.194-.168l-9.656 3.622c-.59.22-1.103.57-1.515 1.01l8.984 4.492 13.084-4.673Zm-23.029 1.937L74 195.618V209c0 .083.01.164.03.241a4.033 4.033 0 0 1-.476-.2l-6.343-3.172A3.998 3.998 0 0 1 65 202.292v-10.134c0-.336.042-.664.121-.979Zm-2.121.979a6 6 0 0 1 3.893-5.618l9.657-3.621a6 6 0 0 1 4.79.251l6.343 3.172A6 6 0 0 1 91 191.708v10.134a6 6 0 0 1-3.893 5.618l-9.657 3.621a6 6 0 0 1-4.79-.251l-6.343-3.172A6 6 0 0 1 63 202.292v-10.134Z" clip-rule="evenodd"/>
    <path fill="#4E496B" d="m87 88-5.773 10h11.546L87 88Zm-1 9v31h2V97h-2Zm-19 31 5.773-10H61.227L67 128Zm1-9V88h-2v31h2Zm9 172 5.773 10H71.227L77 291Zm-1 192V300h2v183h-2Zm6 4h596v2H82v-2Zm600-4v-84h2v84h-2Zm-4 4a4 4 0 0 0 4-4h2a6 6 0 0 1-6 6v-2Zm-600-4a4 4 0 0 0 4 4v2a6 6 0 0 1-6-6h2Zm393-64-5.773-10h11.547L471 419Zm1-40v31h-2v-31h2Zm19 0 5.773 10h-11.547L491 379Zm-1 40v-31h2v31h-2Z"/>
    <defs>
        <filter id="filter0_d_31_278" width="390" height="396" x="190" y="6" color-interpolation-filters="sRGB" filterUnits="userSpaceOnUse">
            <feFlood flood-opacity="0" result="BackgroundImageFix"/>
            <feColorMatrix in="SourceAlpha" result="hardAlpha" values="0 0 0 0 0 0 0 0 0 0 0 0 0 0 0 0 0 0 127 0"/>
            <feOffset/>
            <feGaussianBlur stdDeviation="4"/>
            <feColorMatrix values="0 0 0 0 0.321569 0 0 0 0 0.509804 0 0 0 0 1 0 0 0 0.2 0"/>
            <feBlend in2="BackgroundImageFix" result="effect1_dropShadow_31_278"/>
            <feBlend in="SourceGraphic" in2="effect1_dropShadow_31_278" result="shape"/>
        </filter>
        <filter id="filter1_d_31_278" width="158" height="396" x="604" y="6" color-interpolation-filters="sRGB" filterUnits="userSpaceOnUse">
            <feFlood flood-opacity="0" result="BackgroundImageFix"/>
            <feColorMatrix in="SourceAlpha" result="hardAlpha" values="0 0 0 0 0 0 0 0 0 0 0 0 0 0 0 0 0 0 127 0"/>
            <feOffset/>
            <feGaussianBlur stdDeviation="4"/>
            <feColorMatrix values="0 0 0 0 0.321569 0 0 0 0 0.509804 0 0 0 0 1 0 0 0 0.2 0"/>
            <feBlend in2="BackgroundImageFix" result="effect1_dropShadow_31_278"/>
            <feBlend in="SourceGraphic" in2="effect1_dropShadow_31_278" result="shape"/>
        </filter>
    </defs>
</svg>
