<svg xmlns="http://www.w3.org/2000/svg" width="700" height="513" fill="none" viewBox="0 0 700 513">
    <g filter="url(#filter0_d_11_45)">
        <path fill="#fff" d="M200 154H40c-5.523 0-10 4.477-10 10v134c0 5.523 4.477 10 10 10h160c5.523 0 10-4.477 10-10V164c0-5.523-4.477-10-10-10Z"/>
    </g>
    <path fill="#000" fill-opacity=".85" d="M94.125 179h-1.392v-6.228h1.272l.096 1.02h.024c.168-.328.412-.6.732-.816.328-.216.744-.324 1.248-.324.456 0 .844.108 1.164.324.32.216.536.544.648.984.176-.4.44-.716.792-.948.352-.24.78-.36 1.284-.36.28 0 .536.04.768.12.24.08.444.204.612.372.168.16.3.364.396.612.096.248.144.54.144.876V179h-1.404v-4.176c0-.36-.088-.62-.264-.78-.176-.16-.416-.24-.72-.24-.368 0-.672.1-.912.3-.232.2-.428.44-.588.72V179h-1.404v-4.272c0-.36-.088-.604-.264-.732-.176-.128-.412-.192-.708-.192-.384 0-.692.088-.924.264a2.28 2.28 0 0 0-.6.66V179Zm14.972-.804c0 .456-.064.864-.192 1.224-.12.368-.316.68-.588.936-.272.256-.624.452-1.056.588-.424.136-.94.204-1.548.204-.32 0-.6-.02-.84-.06a3.705 3.705 0 0 1-.624-.132 2.47 2.47 0 0 1-.456-.168 2.6 2.6 0 0 1-.312-.168v-1.152c.12.072.248.14.384.204.144.064.304.12.48.168.184.048.388.084.612.108.224.032.48.048.768.048.688 0 1.188-.128 1.5-.384.32-.256.48-.712.48-1.368v-.624c-.192.344-.448.62-.768.828-.32.2-.716.3-1.188.3-.36 0-.708-.064-1.044-.192a2.604 2.604 0 0 1-.876-.564 2.908 2.908 0 0 1-.6-.948c-.144-.384-.216-.828-.216-1.332 0-.512.072-.956.216-1.332.152-.384.352-.704.6-.96.256-.256.552-.448.888-.576a2.951 2.951 0 0 1 1.056-.192c.48 0 .884.104 1.212.312.328.2.592.48.792.84v-.036c0-.144.008-.316.024-.516.024-.208.048-.368.072-.48h1.284a7.72 7.72 0 0 0-.048.48c-.008.208-.012.38-.012.516v4.428Zm-3-.612c.472 0 .86-.152 1.164-.456.304-.312.456-.784.456-1.416 0-.64-.156-1.116-.468-1.428-.304-.32-.692-.48-1.164-.48-.232 0-.448.04-.648.12-.2.08-.376.2-.528.36-.144.16-.26.36-.348.6-.08.232-.12.508-.12.828 0 .624.156 1.092.468 1.404.312.312.708.468 1.188.468Zm5.981 1.416h-1.392v-6.228h1.272l.096 1.02h.024c.168-.328.412-.6.732-.816.328-.216.744-.324 1.248-.324.456 0 .844.108 1.164.324.32.216.536.544.648.984.176-.4.44-.716.792-.948.352-.24.78-.36 1.284-.36.28 0 .536.04.768.12.24.08.444.204.612.372.168.16.3.364.396.612.096.248.144.54.144.876V179h-1.404v-4.176c0-.36-.088-.62-.264-.78-.176-.16-.416-.24-.72-.24-.368 0-.672.1-.912.3-.232.2-.428.44-.588.72V179h-1.404v-4.272c0-.36-.088-.604-.264-.732-.176-.128-.412-.192-.708-.192-.384 0-.692.088-.924.264a2.279 2.279 0 0 0-.6.66V179Zm12.632-.192c-.144.088-.324.16-.54.216-.242.067-.493.1-.744.096-.336 0-.62-.044-.852-.132a1.549 1.549 0 0 1-.552-.384 1.456 1.456 0 0 1-.312-.552 2.4 2.4 0 0 1-.096-.684V173.9h-.744v-1.128h.744v-1.308h1.392v1.308h1.788v1.128h-1.788v3.312c0 .256.06.444.18.564.128.12.336.18.624.18.192 0 .36-.028.504-.084.144-.056.276-.132.396-.228v1.164Zm1.055-4.08h2.94v1.188h-2.94v-1.188Zm7.71 4.272h-1.896l-2.124-6.228h1.464l1.668 5.1 1.704-5.1h1.308L133.475 179Zm6.413.12c-.472 0-.88-.104-1.224-.312a2.483 2.483 0 0 1-.816-.864v3.18h-1.392v-8.352h1.272l.096 1.104c.208-.376.484-.672.828-.888.344-.224.764-.336 1.26-.336.368 0 .716.068 1.044.204.336.128.628.328.876.6.248.264.444.6.588 1.008.152.4.228.872.228 1.416 0 .552-.076 1.032-.228 1.44-.144.4-.344.736-.6 1.008-.248.264-.54.464-.876.6a2.951 2.951 0 0 1-1.056.192Zm-.336-1.164c.496 0 .896-.168 1.2-.504.312-.344.468-.868.468-1.572 0-.696-.156-1.216-.468-1.56-.304-.344-.7-.516-1.188-.516-.248 0-.476.044-.684.132-.208.08-.392.208-.552.384a1.94 1.94 0 0 0-.36.66 2.777 2.777 0 0 0-.132.9c0 .352.044.66.132.924.088.256.208.472.36.648.152.168.332.296.54.384.216.08.444.12.684.12Zm7.143 1.164c-.504 0-.956-.072-1.356-.216-.4-.152-.74-.364-1.02-.636-.28-.28-.496-.62-.648-1.02a3.818 3.818 0 0 1-.228-1.368c0-.504.076-.956.228-1.356.139-.383.362-.729.652-1.014a2.72 2.72 0 0 1 1.028-.63 3.911 3.911 0 0 1 1.368-.228c.432 0 .808.048 1.128.144.328.096.588.216.78.36v1.152a3.152 3.152 0 0 0-.816-.372 3.469 3.469 0 0 0-1.008-.132c-1.288 0-1.932.692-1.932 2.076 0 1.384.632 2.076 1.896 2.076.408 0 .756-.044 1.044-.132.284-.091.558-.211.816-.36v1.152a3.365 3.365 0 0 1-.78.36c-.312.096-.696.144-1.152.144Z"/>
    <mask id="mask0_11_45" width="32" height="32" x="67" y="211" maskUnits="userSpaceOnUse" style="mask-type:luminance">
        <path fill="#fff" d="M67 211h32v32H67v-32Z"/>
    </mask>
    <g fill-rule="evenodd" clip-rule="evenodd" mask="url(#mask0_11_45)">
        <path fill="#5282FF" d="M83 211c8.831 0 16 7.169 16 16s-7.169 16-16 16-16-7.169-16-16 7.169-16 16-16Z"/>
        <path fill="#fff" d="m82.48 234.988-5.959-3.507c-.286-.169-.521-.578-.521-.914v-7.02a.85.85 0 0 1 .017-.172l6.483 3.481-.001 8.143a3.152 3.152 0 0 1-.019-.012v.001Zm1.02.012v-8.144l6.481-3.481a.852.852 0 0 1 .019.172v7.02c0 .336-.233.747-.52.915l-5.96 3.505-.02.013Zm-.501-9.015-6.364-3.418 5.845-3.441c.288-.168.755-.168 1.041 0l5.843 3.44-6.365 3.419Z"/>
    </g>
    <mask id="mask1_11_45" width="32" height="32" x="67" y="258" maskUnits="userSpaceOnUse" style="mask-type:luminance">
        <path fill="#fff" d="M67 258h32v32H67v-32Z"/>
    </mask>
    <g fill-rule="evenodd" clip-rule="evenodd" mask="url(#mask1_11_45)">
        <path fill="#5282FF" d="M83 258c8.831 0 16 7.169 16 16s-7.169 16-16 16-16-7.169-16-16 7.169-16 16-16Z"/>
        <path fill="#fff" d="m82.48 281.988-5.959-3.507c-.286-.169-.521-.578-.521-.914v-7.02a.85.85 0 0 1 .017-.172l6.483 3.481-.001 8.143-.019-.012v.001Zm1.02.012v-8.144l6.481-3.481a.852.852 0 0 1 .019.172v7.02c0 .336-.233.747-.52.915l-5.96 3.505-.02.013Zm-.501-9.015-6.364-3.418 5.845-3.441c.288-.168.755-.168 1.041 0l5.843 3.44-6.365 3.419Z"/>
    </g>
    <g filter="url(#filter1_d_11_45)">
        <path fill="#fff" d="M660 154H500c-5.523 0-10 4.477-10 10v134c0 5.523 4.477 10 10 10h160c5.523 0 10-4.477 10-10V164c0-5.523-4.477-10-10-10Z"/>
    </g>
    <path fill="#000" fill-opacity=".85" d="M555.948 179.12c-.472 0-.88-.104-1.224-.312a2.483 2.483 0 0 1-.816-.864v3.18h-1.392v-8.352h1.272l.096 1.104c.208-.376.484-.672.828-.888.344-.224.764-.336 1.26-.336.368 0 .716.068 1.044.204.336.128.628.328.876.6.248.264.444.6.588 1.008.152.4.228.872.228 1.416 0 .552-.076 1.032-.228 1.44-.144.4-.344.736-.6 1.008-.248.264-.54.464-.876.6a2.951 2.951 0 0 1-1.056.192Zm-.336-1.164c.496 0 .896-.168 1.2-.504.312-.344.468-.868.468-1.572 0-.696-.156-1.216-.468-1.56-.304-.344-.7-.516-1.188-.516-.248 0-.476.044-.684.132-.208.08-.392.208-.552.384a1.94 1.94 0 0 0-.36.66 2.777 2.777 0 0 0-.132.9c0 .352.044.66.132.924.088.256.208.472.36.648.152.168.332.296.54.384.216.08.444.12.684.12Zm8.247.024c-.168.32-.42.592-.756.816-.328.216-.76.324-1.296.324-.584 0-1.06-.168-1.428-.504-.368-.336-.552-.848-.552-1.536v-4.308h1.404v4.272c0 .36.1.604.3.732.2.12.444.18.732.18.392 0 .712-.08.96-.24.257-.177.473-.406.636-.672v-4.272h1.38V179h-1.272l-.084-1.02h-.024Zm9.146-2.1c0 .552-.076 1.032-.228 1.44-.144.4-.344.736-.6 1.008-.248.264-.54.464-.876.6a2.951 2.951 0 0 1-1.056.192c-.48 0-.896-.108-1.248-.324a2.46 2.46 0 0 1-.828-.912l-.036 1.116h-1.32v-8.604h1.392l-.012 3.468c.208-.376.484-.672.828-.888.344-.216.76-.324 1.248-.324.368 0 .716.068 1.044.204.336.128.628.328.876.6.248.264.444.6.588 1.008.152.4.228.872.228 1.416Zm-3.096 2.076c.496 0 .896-.168 1.2-.504.312-.344.468-.868.468-1.572 0-.696-.156-1.216-.468-1.56-.304-.344-.7-.516-1.188-.516-.248 0-.476.044-.684.132-.208.08-.392.208-.552.384a1.94 1.94 0 0 0-.36.66 2.777 2.777 0 0 0-.132.9c0 .352.044.66.132.924.088.256.208.472.36.648.152.168.332.296.54.384.216.08.444.12.684.12Zm5.667-7.56V179h-1.392v-8.604h1.392Zm2.269 1.584a.858.858 0 0 1-.636-.252.829.829 0 0 1-.24-.6.836.836 0 0 1 .532-.792.858.858 0 0 1 .344-.06c.248 0 .452.084.612.252a.818.818 0 0 1 .252.6.828.828 0 0 1-.252.6.815.815 0 0 1-.612.252Zm.696.792V179h-1.392v-6.228h1.392Zm4.429 6.348c-.504 0-.956-.072-1.356-.216-.4-.152-.74-.364-1.02-.636-.28-.28-.496-.62-.648-1.02a3.818 3.818 0 0 1-.228-1.368c0-.504.076-.956.228-1.356a2.715 2.715 0 0 1 1.68-1.644 3.911 3.911 0 0 1 1.368-.228c.432 0 .808.048 1.128.144.328.096.588.216.78.36v1.152a3.152 3.152 0 0 0-.816-.372 3.469 3.469 0 0 0-1.008-.132c-1.288 0-1.932.692-1.932 2.076 0 1.384.632 2.076 1.896 2.076.408 0 .756-.044 1.044-.132.284-.091.558-.211.816-.36v1.152a3.365 3.365 0 0 1-.78.36c-.312.096-.696.144-1.152.144Zm3.012-4.392h2.94v1.188h-2.94v-1.188Zm7.71 4.272h-1.896l-2.124-6.228h1.464l1.668 5.1 1.704-5.1h1.308L593.692 179Zm6.413.12c-.472 0-.88-.104-1.224-.312a2.483 2.483 0 0 1-.816-.864v3.18h-1.392v-8.352h1.272l.096 1.104c.208-.376.484-.672.828-.888.344-.224.764-.336 1.26-.336.368 0 .716.068 1.044.204.336.128.628.328.876.6.248.264.444.6.588 1.008.152.4.228.872.228 1.416 0 .552-.076 1.032-.228 1.44-.144.4-.344.736-.6 1.008-.248.264-.54.464-.876.6a2.951 2.951 0 0 1-1.056.192Zm-.336-1.164c.496 0 .896-.168 1.2-.504.312-.344.468-.868.468-1.572 0-.696-.156-1.216-.468-1.56-.304-.344-.7-.516-1.188-.516-.248 0-.476.044-.684.132-.208.08-.392.208-.552.384a1.94 1.94 0 0 0-.36.66 2.777 2.777 0 0 0-.132.9c0 .352.044.66.132.924.088.256.208.472.36.648.152.168.332.296.54.384.216.08.444.12.684.12Zm7.143 1.164c-.504 0-.956-.072-1.356-.216-.4-.152-.74-.364-1.02-.636-.28-.28-.496-.62-.648-1.02a3.818 3.818 0 0 1-.228-1.368c0-.504.076-.956.228-1.356.139-.383.362-.729.652-1.014a2.72 2.72 0 0 1 1.028-.63 3.911 3.911 0 0 1 1.368-.228c.432 0 .808.048 1.128.144.328.096.588.216.78.36v1.152a3.152 3.152 0 0 0-.816-.372 3.469 3.469 0 0 0-1.008-.132c-1.288 0-1.932.692-1.932 2.076 0 1.384.632 2.076 1.896 2.076.408 0 .756-.044 1.044-.132.284-.091.558-.211.816-.36v1.152a3.365 3.365 0 0 1-.78.36c-.312.096-.696.144-1.152.144Z"/>
    <g filter="url(#filter2_d_11_45)">
        <path fill="#fff" d="M430 154H270c-5.523 0-10 4.477-10 10v134c0 5.523 4.477 10 10 10h160c5.523 0 10-4.477 10-10V164c0-5.523-4.477-10-10-10Z"/>
    </g>
    <path fill="#000" fill-opacity=".85" d="M400.919 179.12c-.472 0-.88-.104-1.224-.312a2.483 2.483 0 0 1-.816-.864v3.18h-1.392v-8.352h1.272l.096 1.104c.208-.376.484-.672.828-.888.344-.224.764-.336 1.26-.336.368 0 .716.068 1.044.204.336.128.628.328.876.6.248.264.444.6.588 1.008.152.4.228.872.228 1.416 0 .552-.076 1.032-.228 1.44-.144.4-.344.736-.6 1.008-.248.264-.54.464-.876.6a2.951 2.951 0 0 1-1.056.192Zm-.336-1.164c.496 0 .896-.168 1.2-.504.312-.344.468-.868.468-1.572 0-.696-.156-1.216-.468-1.56-.304-.344-.7-.516-1.188-.516-.248 0-.476.044-.684.132-.208.08-.392.208-.552.384a1.94 1.94 0 0 0-.36.66 2.777 2.777 0 0 0-.132.9c0 .352.044.66.132.924.088.256.208.472.36.648.152.168.332.296.54.384.216.08.444.12.684.12Zm8.247.024c-.168.32-.42.592-.756.816-.328.216-.76.324-1.296.324-.584 0-1.06-.168-1.428-.504-.368-.336-.552-.848-.552-1.536v-4.308h1.404v4.272c0 .36.1.604.3.732.2.12.444.18.732.18.392 0 .712-.08.96-.24.257-.177.473-.406.636-.672v-4.272h1.38V179h-1.272l-.084-1.02h-.024Zm9.146-2.1c0 .552-.076 1.032-.228 1.44-.144.4-.344.736-.6 1.008-.248.264-.54.464-.876.6a2.951 2.951 0 0 1-1.056.192c-.48 0-.896-.108-1.248-.324a2.46 2.46 0 0 1-.828-.912l-.036 1.116h-1.32v-8.604h1.392l-.012 3.468c.208-.376.484-.672.828-.888.344-.216.76-.324 1.248-.324.368 0 .716.068 1.044.204.336.128.628.328.876.6.248.264.444.6.588 1.008.152.4.228.872.228 1.416Zm-3.096 2.076c.496 0 .896-.168 1.2-.504.312-.344.468-.868.468-1.572 0-.696-.156-1.216-.468-1.56-.304-.344-.7-.516-1.188-.516-.248 0-.476.044-.684.132-.208.08-.392.208-.552.384a1.94 1.94 0 0 0-.36.66 2.777 2.777 0 0 0-.132.9c0 .352.044.66.132.924.088.256.208.472.36.648.152.168.332.296.54.384.216.08.444.12.684.12Zm5.667-7.56V179h-1.392v-8.604h1.392Zm2.269 1.584a.858.858 0 0 1-.636-.252.829.829 0 0 1-.24-.6.836.836 0 0 1 .532-.792.858.858 0 0 1 .344-.06c.248 0 .452.084.612.252a.818.818 0 0 1 .252.6.828.828 0 0 1-.252.6.806.806 0 0 1-.612.252Zm.696.792V179h-1.392v-6.228h1.392Zm4.429 6.348c-.504 0-.956-.072-1.356-.216-.4-.152-.74-.364-1.02-.636-.28-.28-.496-.62-.648-1.02a3.818 3.818 0 0 1-.228-1.368c0-.504.076-.956.228-1.356a2.715 2.715 0 0 1 1.68-1.644 3.911 3.911 0 0 1 1.368-.228c.432 0 .808.048 1.128.144.328.096.588.216.78.36v1.152a3.152 3.152 0 0 0-.816-.372 3.469 3.469 0 0 0-1.008-.132c-1.288 0-1.932.692-1.932 2.076 0 1.384.632 2.076 1.896 2.076.408 0 .756-.044 1.044-.132.284-.091.558-.211.816-.36v1.152a3.365 3.365 0 0 1-.78.36c-.312.096-.696.144-1.152.144ZM272.037 179h-1.392v-6.228h1.272l.096 1.02h.024c.168-.328.412-.6.732-.816.328-.216.744-.324 1.248-.324.456 0 .844.108 1.164.324.32.216.536.544.648.984.176-.4.44-.716.792-.948.352-.24.78-.36 1.284-.36.28 0 .536.04.768.12.24.08.444.204.612.372.168.16.3.364.396.612.096.248.144.54.144.876V179h-1.404v-4.176c0-.36-.088-.62-.264-.78-.176-.16-.416-.24-.72-.24-.368 0-.672.1-.912.3-.232.2-.428.44-.588.72V179h-1.404v-4.272c0-.36-.088-.604-.264-.732-.176-.128-.412-.192-.708-.192-.384 0-.692.088-.924.264a2.293 2.293 0 0 0-.6.66V179Zm14.972-.804c0 .456-.064.864-.192 1.224-.12.368-.316.68-.588.936-.272.256-.624.452-1.056.588-.424.136-.94.204-1.548.204-.32 0-.6-.02-.84-.06a3.705 3.705 0 0 1-.624-.132 2.47 2.47 0 0 1-.456-.168 2.678 2.678 0 0 1-.312-.168v-1.152c.12.072.248.14.384.204.144.064.304.12.48.168.184.048.388.084.612.108.224.032.48.048.768.048.688 0 1.188-.128 1.5-.384.32-.256.48-.712.48-1.368v-.624c-.192.344-.448.62-.768.828-.32.2-.716.3-1.188.3-.36 0-.708-.064-1.044-.192a2.604 2.604 0 0 1-.876-.564 2.908 2.908 0 0 1-.6-.948c-.144-.384-.216-.828-.216-1.332 0-.512.072-.956.216-1.332.152-.384.352-.704.6-.96.256-.256.552-.448.888-.576a2.951 2.951 0 0 1 1.056-.192c.48 0 .884.104 1.212.312.328.2.592.48.792.84v-.036c0-.144.008-.316.024-.516.024-.208.048-.368.072-.48h1.284a7.72 7.72 0 0 0-.048.48c-.008.208-.012.38-.012.516v4.428Zm-3-.612c.472 0 .86-.152 1.164-.456.304-.312.456-.784.456-1.416 0-.64-.156-1.116-.468-1.428-.304-.32-.692-.48-1.164-.48-.232 0-.448.04-.648.12-.2.08-.376.2-.528.36-.144.16-.26.36-.348.6-.08.232-.12.508-.12.828 0 .624.156 1.092.468 1.404.312.312.708.468 1.188.468ZM289.99 179h-1.392v-6.228h1.272l.096 1.02h.024c.168-.328.412-.6.732-.816.328-.216.744-.324 1.248-.324.456 0 .844.108 1.164.324.32.216.536.544.648.984.176-.4.44-.716.792-.948.352-.24.78-.36 1.284-.36.28 0 .536.04.768.12.24.08.444.204.612.372.168.16.3.364.396.612.096.248.144.54.144.876V179h-1.404v-4.176c0-.36-.088-.62-.264-.78-.176-.16-.416-.24-.72-.24-.368 0-.672.1-.912.3-.232.2-.428.44-.588.72V179h-1.404v-4.272c0-.36-.088-.604-.264-.732-.176-.128-.412-.192-.708-.192-.384 0-.692.088-.924.264a2.293 2.293 0 0 0-.6.66V179Zm12.632-.192c-.144.088-.324.16-.54.216-.242.067-.493.1-.744.096-.336 0-.62-.044-.852-.132a1.549 1.549 0 0 1-.552-.384 1.456 1.456 0 0 1-.312-.552 2.4 2.4 0 0 1-.096-.684V173.9h-.744v-1.128h.744v-1.308h1.392v1.308h1.788v1.128h-1.788v3.312c0 .256.06.444.18.564.128.12.336.18.624.18.192 0 .36-.028.504-.084.144-.056.276-.132.396-.228v1.164Zm41.245 111.028c-.2.392-.468.704-.804.936-.336.232-.756.348-1.26.348-.368 0-.72-.064-1.056-.192a2.57 2.57 0 0 1-.888-.6 3.022 3.022 0 0 1-.612-1.008c-.152-.408-.228-.888-.228-1.44 0-.544.076-1.016.228-1.416.152-.408.356-.744.612-1.008.252-.264.559-.469.9-.6a2.788 2.788 0 0 1 1.056-.204c.464 0 .86.092 1.188.276.336.184.608.444.816.78v-3.312h1.38V291h-1.26l-.072-1.164Zm-1.74.12c.24 0 .46-.04.66-.12.208-.088.388-.216.54-.384.16-.176.284-.392.372-.648.088-.264.132-.572.132-.924 0-.352-.044-.656-.132-.912a1.798 1.798 0 0 0-.36-.648 1.346 1.346 0 0 0-.54-.384 1.703 1.703 0 0 0-.672-.132c-.488 0-.892.176-1.212.528-.312.352-.468.868-.468 1.548 0 .696.156 1.216.468 1.56.312.344.716.516 1.212.516Zm6.039 1.044h-1.392v-6.228h1.272l.096 1.02h.024c.168-.328.412-.6.732-.816.328-.216.744-.324 1.248-.324.456 0 .844.108 1.164.324.32.216.536.544.648.984.176-.4.44-.716.792-.948.352-.24.78-.36 1.284-.36.28 0 .536.04.768.12.24.08.444.204.612.372.168.16.3.364.396.612.096.248.144.54.144.876V291h-1.404v-4.176c0-.36-.088-.62-.264-.78-.176-.16-.416-.24-.72-.24-.368 0-.672.1-.912.3-.232.2-.428.44-.588.72V291h-1.404v-4.272c0-.36-.088-.604-.264-.732-.176-.128-.412-.192-.708-.192-.384 0-.692.088-.924.264a2.293 2.293 0 0 0-.6.66V291Zm13.784 0h-4.86v-.936l3.144-4.188h-3.048v-1.104h4.752v.888l-3.144 4.224h3.156V291Z"/>
    <path fill="#fff" stroke="#5282FF" stroke-width="2" d="M410 35H290a9 9 0 0 0-9 9v50a9 9 0 0 0 9 9h120a9 9 0 0 0 9-9V44a9 9 0 0 0-9-9Z"/>
    <path fill="#FF5958" d="m420 59 10 5.773V53.227L420 59Zm160 95 5.773-10h-11.547L580 154ZM429 60h143v-2H429v2Zm150 7v78h2V67h-2Zm-7-7a7 7 0 0 1 7 7h2a9.006 9.006 0 0 0-2.636-6.364A9.003 9.003 0 0 0 572 58v2Zm-292 0-10 5.773V54.227L280 60Zm-160 95-5.773-10h11.547L120 155Zm151-94H128v-2h143v2Zm-150 7v78h-2V68h2Zm7-7a7 7 0 0 0-7 7h-2a9 9 0 0 1 9-9v2Zm132 114-10-5.774v11.548L260 175Zm-50 0 10 5.773v-11.547L210 175Zm41-1h-32v2h32v-2Zm99 134-5.774 10h11.548L350 308Zm0 50 5.774-10h-11.548L350 358Zm-1-41v32h2v-32h-2Zm91-138 10 5.774v-11.548L440 179Zm50 0-10-5.774v11.548L490 179Zm-41 1h32v-2h-32v2Z"/>
    <mask id="mask2_11_45" width="32" height="32" x="333" y="211" maskUnits="userSpaceOnUse" style="mask-type:luminance">
        <path fill="#fff" d="M333 211h32v32h-32v-32Z"/>
    </mask>
    <g mask="url(#mask2_11_45)">
        <path fill="#5282FF" fill-rule="evenodd" d="M349 211c8.831 0 16 7.168 16 16s-7.169 16-16 16-16-7.168-16-16 7.169-16 16-16Z" clip-rule="evenodd"/>
        <path fill="#fff" d="M342.497 222.83h4.56v1.05h-3.35v2.1h2.84v1.04h-2.84V230h-1.21v-7.17Zm13.03 7.17h-1.65l-1.45-5.31-1.47 5.31h-1.66l-1.54-7.17h1.24l1.22 5.97 1.67-5.97h1.19l1.64 5.89 1.25-5.89h1.11l-1.55 7.17Z"/>
    </g>
    <g filter="url(#filter3_d_11_45)">
        <path fill="#fff" d="M430 358H270c-5.523 0-10 4.477-10 10v101c0 5.523 4.477 10 10 10h160c5.523 0 10-4.477 10-10V368c0-5.523-4.477-10-10-10Z"/>
    </g>
    <path fill="#000" fill-opacity=".85" d="M331.955 381.836c-.2.392-.468.704-.804.936-.336.232-.756.348-1.26.348-.368 0-.72-.064-1.056-.192a2.561 2.561 0 0 1-.888-.6 3.022 3.022 0 0 1-.612-1.008c-.152-.408-.228-.888-.228-1.44 0-.544.076-1.016.228-1.416.152-.408.356-.744.612-1.008.252-.264.559-.469.9-.6a2.788 2.788 0 0 1 1.056-.204c.464 0 .86.092 1.188.276.336.184.608.444.816.78v-3.312h1.38V383h-1.26l-.072-1.164Zm-1.74.12c.24 0 .46-.04.66-.12.208-.088.388-.216.54-.384.16-.176.284-.392.372-.648.088-.264.132-.572.132-.924 0-.352-.044-.656-.132-.912a1.798 1.798 0 0 0-.36-.648 1.346 1.346 0 0 0-.54-.384 1.703 1.703 0 0 0-.672-.132c-.488 0-.892.176-1.212.528-.312.352-.468.868-.468 1.548 0 .696.156 1.216.468 1.56.312.344.716.516 1.212.516Zm6.039 1.044h-1.392v-6.228h1.272l.096 1.02h.024c.168-.328.412-.6.732-.816.328-.216.744-.324 1.248-.324.456 0 .844.108 1.164.324.32.216.536.544.648.984.176-.4.44-.716.792-.948.352-.24.78-.36 1.284-.36.28 0 .536.04.768.12.24.08.444.204.612.372.168.16.3.364.396.612.096.248.144.54.144.876V383h-1.404v-4.176c0-.36-.088-.62-.264-.78-.176-.16-.416-.24-.72-.24-.368 0-.672.1-.912.3-.232.2-.428.44-.588.72V383h-1.404v-4.272c0-.36-.088-.604-.264-.732-.176-.128-.412-.192-.708-.192-.384 0-.692.088-.924.264a2.293 2.293 0 0 0-.6.66V383Zm13.784 0h-4.86v-.936l3.144-4.188h-3.048v-1.104h4.752v.888l-3.144 4.224h3.156V383Zm.97-4.272h2.94v1.188h-2.94v-1.188Zm7.709 4.272h-1.896l-2.124-6.228h1.464l1.668 5.1 1.704-5.1h1.308L358.717 383Zm6.413.12c-.472 0-.88-.104-1.224-.312a2.483 2.483 0 0 1-.816-.864v3.18h-1.392v-8.352h1.272l.096 1.104c.208-.376.484-.672.828-.888.344-.224.764-.336 1.26-.336.368 0 .716.068 1.044.204.336.128.628.328.876.6.248.264.444.6.588 1.008.152.4.228.872.228 1.416 0 .552-.076 1.032-.228 1.44-.144.4-.344.736-.6 1.008-.248.264-.54.464-.876.6a2.951 2.951 0 0 1-1.056.192Zm-.336-1.164c.496 0 .896-.168 1.2-.504.312-.344.468-.868.468-1.572 0-.696-.156-1.216-.468-1.56-.304-.344-.7-.516-1.188-.516-.248 0-.476.044-.684.132-.208.08-.392.208-.552.384a1.94 1.94 0 0 0-.36.66 2.777 2.777 0 0 0-.132.9c0 .352.044.66.132.924.088.256.208.472.36.648.152.168.332.296.54.384.216.08.444.12.684.12Zm7.143 1.164c-.504 0-.956-.072-1.356-.216-.4-.152-.74-.364-1.02-.636-.28-.28-.496-.62-.648-1.02a3.818 3.818 0 0 1-.228-1.368c0-.504.076-.956.228-1.356a2.712 2.712 0 0 1 1.68-1.644 3.911 3.911 0 0 1 1.368-.228c.432 0 .808.048 1.128.144.328.096.588.216.78.36v1.152a3.185 3.185 0 0 0-.816-.372 3.469 3.469 0 0 0-1.008-.132c-1.288 0-1.932.692-1.932 2.076 0 1.384.632 2.076 1.896 2.076.408 0 .756-.044 1.044-.132.284-.091.558-.211.816-.36v1.152a3.365 3.365 0 0 1-.78.36c-.312.096-.696.144-1.152.144Z"/>
    <path fill="#5282FF" d="M365 418c0-8.837-7.163-16-16-16s-16 7.163-16 16 7.163 16 16 16 16-7.163 16-16Z"/>
    <path fill="#fff" fill-rule="evenodd" d="m348.48 425.988-5.959-3.507c-.286-.168-.521-.577-.521-.914v-7.02c0-.057.005-.113.017-.171l6.483 3.481-.001 8.142-.019-.012v.001Zm1.02.012v-8.143l6.481-3.481a.815.815 0 0 1 .019.171v7.02c0 .337-.233.748-.52.915l-5.96 3.505-.02.013Zm-.501-9.015-6.364-3.418 5.845-3.441c.288-.168.755-.168 1.041 0l5.843 3.44-6.365 3.419Z" clip-rule="evenodd"/>
    <path fill="#5282FF" d="M532 179c0-8.837-7.163-16-16-16s-16 7.163-16 16 7.163 16 16 16 16-7.163 16-16Z"/>
    <path fill="#fff" d="M524 174c0-1.1-.9-2-2-2s-2 .9-2 2c0 .7.4 1.4 1 1.7v2.3h-4v-2.3c.6-.4 1-1 1-1.7 0-1.1-.9-2-2-2s-2 .9-2 2c0 .7.4 1.4 1 1.7v2.3h-4v-2.3c.6-.4 1-1 1-1.7 0-1.1-.9-2-2-2s-2 .9-2 2c0 .7.4 1.4 1 1.7v2.3c0 1.1.9 2 2 2h1v2.3c-.6.4-1 1-1 1.7 0 1.1.9 2 2 2s2-.9 2-2c0-.7-.4-1.4-1-1.7V180h4v2.3c-.6.4-1 1-1 1.7 0 1.1.9 2 2 2s2-.9 2-2c0-.7-.4-1.4-1-1.7V180h1c1.1 0 2-.9 2-2v-2.3c.6-.3 1-1 1-1.7Z"/>
    <path fill="#5282FF" d="M300 383c0-8.837-7.163-16-16-16s-16 7.163-16 16 7.163 16 16 16 16-7.163 16-16Z"/>
    <path fill="#fff" d="M292 378c0-1.1-.9-2-2-2s-2 .9-2 2c0 .7.4 1.4 1 1.7v2.3h-4v-2.3c.6-.4 1-1 1-1.7 0-1.1-.9-2-2-2s-2 .9-2 2c0 .7.4 1.4 1 1.7v2.3h-4v-2.3c.6-.4 1-1 1-1.7 0-1.1-.9-2-2-2s-2 .9-2 2c0 .7.4 1.4 1 1.7v2.3c0 1.1.9 2 2 2h1v2.3c-.6.4-1 1-1 1.7 0 1.1.9 2 2 2s2-.9 2-2c0-.7-.4-1.4-1-1.7V384h4v2.3c-.6.4-1 1-1 1.7 0 1.1.9 2 2 2s2-.9 2-2c0-.7-.4-1.4-1-1.7V384h1c1.1 0 2-.9 2-2v-2.3c.6-.3 1-1 1-1.7Z"/>
    <path fill="#5282FF" d="M71 179c0-8.837-7.163-16-16-16s-16 7.163-16 16 7.163 16 16 16 16-7.163 16-16Z"/>
    <path fill="#fff" d="M63 174c0-1.1-.9-2-2-2s-2 .9-2 2c0 .7.4 1.4 1 1.7v2.3h-4v-2.3c.6-.4 1-1 1-1.7 0-1.1-.9-2-2-2s-2 .9-2 2c0 .7.4 1.4 1 1.7v2.3h-4v-2.3c.6-.4 1-1 1-1.7 0-1.1-.9-2-2-2s-2 .9-2 2c0 .7.4 1.4 1 1.7v2.3c0 1.1.9 2 2 2h1v2.3c-.6.4-1 1-1 1.7 0 1.1.9 2 2 2s2-.9 2-2c0-.7-.4-1.4-1-1.7V180h4v2.3c-.6.4-1 1-1 1.7 0 1.1.9 2 2 2s2-.9 2-2c0-.7-.4-1.4-1-1.7V180h1c1.1 0 2-.9 2-2v-2.3c.6-.3 1-1 1-1.7Z"/>
    <path fill="#000" d="M331.952 65.66V74h-1.104v-8.34h1.104Zm4.421 3c-.464 0-.84.112-1.128.336a2.68 2.68 0 0 0-.708.84V74h-1.02v-6.036h.96l.036 1.08h.024c.16-.344.416-.628.768-.852.352-.232.796-.348 1.332-.348.6 0 1.076.16 1.428.48.352.312.528.792.528 1.44V74h-1.032v-4.188c0-.432-.104-.732-.312-.9-.208-.168-.5-.252-.876-.252Zm6.553 5.244a2.013 2.013 0 0 1-.96.216c-.616 0-1.064-.14-1.344-.42-.28-.28-.42-.648-.42-1.104v-3.888h-.72v-.744h.72v-1.272h1.032v1.272h1.752v.744h-1.752v3.756c0 .304.064.52.192.648.136.12.38.18.732.18.136 0 .268-.02.396-.06.136-.04.26-.088.372-.144v.816Zm5.939-.456a2.283 2.283 0 0 1-.3.216c-.128.08-.28.156-.456.228a3.58 3.58 0 0 1-.612.156 3.622 3.622 0 0 1-.756.072c-1.016 0-1.788-.272-2.316-.816-.528-.552-.792-1.328-.792-2.328 0-.488.072-.924.216-1.308.144-.392.344-.724.6-.996s.56-.476.912-.612a2.982 2.982 0 0 1 1.14-.216c.432 0 .816.076 1.152.228.344.144.624.36.84.648.224.288.376.644.456 1.068.08.424.08.912 0 1.464h-4.26c.072 1.368.788 2.052 2.148 2.052.464 0 .864-.068 1.2-.204.336-.136.612-.28.828-.432v.78Zm-2.388-4.872c-.48 0-.88.164-1.2.492-.32.32-.512.808-.576 1.464h3.276c.048-.672-.072-1.164-.36-1.476-.28-.32-.66-.48-1.14-.48Zm6.598.324c-.432.04-.828.16-1.188.36-.352.192-.612.492-.78.9V74h-1.02v-6.036h.9l.096 1.308h.024c.168-.36.412-.672.732-.936.328-.264.74-.428 1.236-.492V68.9Zm3.864-.24c-.464 0-.84.112-1.128.336a2.68 2.68 0 0 0-.708.84V74h-1.02v-6.036h.96l.036 1.08h.024c.16-.344.416-.628.768-.852.352-.232.796-.348 1.332-.348.6 0 1.076.16 1.428.48.352.312.528.792.528 1.44V74h-1.032v-4.188c0-.432-.104-.732-.312-.9-.208-.168-.5-.252-.876-.252Zm8.473 4.788a2.283 2.283 0 0 1-.3.216c-.128.08-.28.156-.456.228a3.58 3.58 0 0 1-.612.156 3.622 3.622 0 0 1-.756.072c-1.016 0-1.788-.272-2.316-.816-.528-.552-.792-1.328-.792-2.328 0-.488.072-.924.216-1.308.144-.392.344-.724.6-.996s.56-.476.912-.612a2.982 2.982 0 0 1 1.14-.216c.432 0 .816.076 1.152.228.344.144.624.36.84.648.224.288.376.644.456 1.068.08.424.08.912 0 1.464h-4.26c.072 1.368.788 2.052 2.148 2.052.464 0 .864-.068 1.2-.204.336-.136.612-.28.828-.432v.78Zm-2.388-4.872c-.48 0-.88.164-1.2.492-.32.32-.512.808-.576 1.464h3.276c.048-.672-.072-1.164-.36-1.476-.28-.32-.66-.48-1.14-.48Zm6.562 5.328a2.013 2.013 0 0 1-.96.216c-.616 0-1.064-.14-1.344-.42-.28-.28-.42-.648-.42-1.104v-3.888h-.72v-.744h.72v-1.272h1.032v1.272h1.752v.744h-1.752v3.756c0 .304.064.52.192.648.136.12.38.18.732.18.136 0 .268-.02.396-.06.136-.04.26-.088.372-.144v.816ZM322.879 453.66h1.536l2.988 8.34h-1.164l-.888-2.472h-3.612l-.876 2.472h-.96l2.976-8.34Zm2.184 5.064-1.524-4.26-1.512 4.26h3.036Zm6.199 3.396c-.456 0-.856-.108-1.2-.324a2.407 2.407 0 0 1-.816-.9v3.348h-1.02v-8.28h.9l.096 1.188c.2-.4.472-.716.816-.948.344-.24.768-.36 1.272-.36.352 0 .688.064 1.008.192.32.128.6.32.84.576.248.256.444.584.588.984.144.392.216.852.216 1.38 0 .528-.076.992-.228 1.392-.144.392-.34.72-.588.984a2.41 2.41 0 0 1-.864.576 2.72 2.72 0 0 1-1.02.192Zm-.156-.732c.536 0 .968-.188 1.296-.564.336-.384.504-1 .504-1.848 0-.824-.168-1.428-.504-1.812-.328-.392-.76-.588-1.296-.588-.264 0-.512.048-.744.144a1.46 1.46 0 0 0-.588.432c-.168.192-.3.44-.396.744a3.603 3.603 0 0 0-.144 1.08c0 .432.048.8.144 1.104.096.304.228.552.396.744.168.192.364.336.588.432.232.088.48.132.744.132Zm6.976.732c-.456 0-.856-.108-1.2-.324a2.407 2.407 0 0 1-.816-.9v3.348h-1.02v-8.28h.9l.096 1.188c.2-.4.472-.716.816-.948.344-.24.768-.36 1.272-.36.352 0 .688.064 1.008.192.32.128.6.32.84.576.248.256.444.584.588.984.144.392.216.852.216 1.38 0 .528-.076.992-.228 1.392-.144.392-.34.72-.588.984a2.41 2.41 0 0 1-.864.576 2.72 2.72 0 0 1-1.02.192Zm-.156-.732c.536 0 .968-.188 1.296-.564.336-.384.504-1 .504-1.848 0-.824-.168-1.428-.504-1.812-.328-.392-.76-.588-1.296-.588-.264 0-.512.048-.744.144a1.46 1.46 0 0 0-.588.432c-.168.192-.3.44-.396.744a3.603 3.603 0 0 0-.144 1.08c0 .432.048.8.144 1.104.096.304.228.552.396.744.168.192.364.336.588.432.232.088.48.132.744.132Zm4.96-8.088v8.7h-1.02v-8.7h1.02Zm1.957 1.776a.681.681 0 0 1-.504-.192.66.66 0 0 1-.18-.468c0-.184.06-.344.18-.48a.66.66 0 0 1 .504-.204c.2 0 .36.068.48.204.12.136.18.296.18.48a.66.66 0 0 1-.18.468.627.627 0 0 1-.48.192Zm.504.888V462h-1.02v-6.036h1.02Zm4.106 6.156c-.472 0-.896-.068-1.272-.204a2.647 2.647 0 0 1-.948-.624 2.808 2.808 0 0 1-.612-.984 4.05 4.05 0 0 1-.204-1.332c0-.992.272-1.76.816-2.304.552-.552 1.308-.828 2.268-.828.368 0 .708.044 1.02.132.312.088.568.216.768.384v.78a2.857 2.857 0 0 0-.828-.36 3.71 3.71 0 0 0-.948-.12c-.704 0-1.224.192-1.56.576-.328.384-.492.964-.492 1.74 0 .784.16 1.368.48 1.752.32.384.824.576 1.512.576.36 0 .692-.044.996-.132.312-.088.592-.208.84-.36v.78c-.216.168-.476.3-.78.396a3.81 3.81 0 0 1-1.056.132Zm6.597-.12a2.49 2.49 0 0 1-.096-.444 6.428 6.428 0 0 1-.048-.564c-.064.128-.148.26-.252.396a1.934 1.934 0 0 1-.396.36c-.16.104-.348.192-.564.264a2.393 2.393 0 0 1-.756.108c-.552 0-1.004-.14-1.356-.42-.344-.288-.516-.72-.516-1.296 0-.624.252-1.096.756-1.416.504-.328 1.308-.492 2.412-.492h.624v-.576c0-.432-.108-.748-.324-.948-.216-.208-.588-.312-1.116-.312-.376 0-.74.064-1.092.192-.344.12-.632.276-.864.468v-.78c.192-.208.476-.376.852-.504a3.814 3.814 0 0 1 1.236-.192c.76 0 1.336.16 1.728.48.4.312.6.796.6 1.452v3.252c0 .136.008.308.024.516.016.2.036.352.06.456h-.912Zm-1.896-.624c.272 0 .512-.044.72-.132a1.77 1.77 0 0 0 .54-.36c.144-.144.252-.304.324-.48.08-.176.12-.348.12-.516v-.756h-.528c-.432 0-.792.024-1.08.072-.28.04-.508.112-.684.216a.835.835 0 0 0-.372.372 1.282 1.282 0 0 0-.108.552c0 .36.096.624.288.792.192.16.452.24.78.24Zm7.059.528a2.013 2.013 0 0 1-.96.216c-.616 0-1.064-.14-1.344-.42-.28-.28-.42-.648-.42-1.104v-3.888h-.72v-.744h.72v-1.272h1.032v1.272h1.752v.744h-1.752v3.756c0 .304.064.52.192.648.136.12.38.18.732.18.136 0 .268-.02.396-.06.136-.04.26-.088.372-.144v.816Zm1.642-6.828a.681.681 0 0 1-.504-.192.66.66 0 0 1-.18-.468c0-.184.06-.344.18-.48a.66.66 0 0 1 .504-.204c.2 0 .36.068.48.204.12.136.18.296.18.48a.66.66 0 0 1-.18.468.627.627 0 0 1-.48.192Zm.504.888V462h-1.02v-6.036h1.02Zm3.973 6.156c-.408 0-.792-.068-1.152-.204a2.782 2.782 0 0 1-.924-.612c-.256-.272-.46-.6-.612-.984a3.883 3.883 0 0 1-.216-1.344c0-.504.072-.948.216-1.332.152-.392.356-.72.612-.984.264-.264.572-.464.924-.6.36-.144.744-.216 1.152-.216.416 0 .804.072 1.164.216.36.136.672.336.936.6.264.264.468.592.612.984.152.384.228.828.228 1.332 0 .504-.076.952-.228 1.344a2.808 2.808 0 0 1-.612.984 2.754 2.754 0 0 1-.936.612c-.36.136-.748.204-1.164.204Zm0-.732c.272 0 .524-.044.756-.132a1.49 1.49 0 0 0 .6-.42c.168-.192.3-.44.396-.744.096-.312.144-.684.144-1.116 0-.432-.048-.8-.144-1.104a2.053 2.053 0 0 0-.396-.744 1.49 1.49 0 0 0-.6-.42 2.115 2.115 0 0 0-.756-.132 2.08 2.08 0 0 0-.744.132c-.224.088-.42.228-.588.42-.168.192-.3.44-.396.744a4.012 4.012 0 0 0-.132 1.104c0 .432.044.804.132 1.116.096.304.228.552.396.744.168.192.364.332.588.42.232.088.48.132.744.132Zm6.875-4.728c-.464 0-.84.112-1.128.336a2.68 2.68 0 0 0-.708.84V462h-1.02v-6.036h.96l.036 1.08h.024c.16-.344.416-.628.768-.852.352-.232.796-.348 1.332-.348.6 0 1.076.16 1.428.48.352.312.528.792.528 1.44V462h-1.032v-4.188c0-.432-.104-.732-.312-.9-.208-.168-.5-.252-.876-.252Zm-255.919-234v6.792c0 .216-.04.424-.12.624-.072.2-.188.38-.348.54a1.84 1.84 0 0 1-.612.372c-.248.088-.54.132-.876.132-.2 0-.412-.02-.636-.06a1.323 1.323 0 0 1-.528-.18v-.78c.296.096.604.144.924.144.384 0 .66-.08.828-.24.176-.16.264-.412.264-.756v-6.588h1.104Zm5.422 7.26a2.13 2.13 0 0 1-.756.852c-.336.232-.776.348-1.32.348-.56 0-1.012-.16-1.356-.48-.344-.32-.516-.804-.516-1.452v-4.224h1.032v4.224c0 .424.108.712.324.864.216.152.484.228.804.228.448 0 .808-.108 1.08-.324.28-.216.516-.512.708-.888v-4.104h1.02V231h-.9l-.096-1.08h-.024Zm3.483 1.08h-1.02v-6.036h.9l.096 1.08h.024c.16-.336.404-.62.732-.852.328-.232.756-.348 1.284-.348.456 0 .836.112 1.14.336.312.216.512.552.6 1.008.176-.424.44-.752.792-.984.352-.24.78-.36 1.284-.36.552 0 .992.16 1.32.48.328.312.492.792.492 1.44V231h-1.032v-4.104c0-.432-.096-.744-.288-.936-.192-.192-.456-.288-.792-.288-.224 0-.424.036-.6.108-.168.072-.32.168-.456.288-.136.12-.256.264-.36.432-.104.16-.204.332-.3.516V231h-1.02v-4.224c0-.424-.096-.712-.288-.864-.192-.16-.456-.24-.792-.24-.44 0-.788.112-1.044.336-.256.224-.48.524-.672.9V231Zm12.059.12c-.456 0-.856-.108-1.2-.324a2.407 2.407 0 0 1-.816-.9v3.348h-1.02v-8.28h.9l.096 1.188c.2-.4.472-.716.816-.948.344-.24.768-.36 1.272-.36.352 0 .688.064 1.008.192.32.128.6.32.84.576.248.256.444.584.588.984.144.392.216.852.216 1.38 0 .528-.076.992-.228 1.392-.144.392-.34.72-.588.984a2.41 2.41 0 0 1-.864.576 2.72 2.72 0 0 1-1.02.192Zm-.156-.732c.536 0 .968-.188 1.296-.564.336-.384.504-1 .504-1.848 0-.824-.168-1.428-.504-1.812-.328-.392-.76-.588-1.296-.588-.264 0-.512.048-.744.144a1.46 1.46 0 0 0-.588.432c-.168.192-.3.44-.396.744a3.603 3.603 0 0 0-.144 1.08c0 .432.048.8.144 1.104.096.304.228.552.396.744.168.192.364.336.588.432.232.088.48.132.744.132Zm10.148.612h-1.632l-2.904-8.34h1.14l2.652 7.68 2.676-7.68h.96l-2.892 8.34Zm7.847-2.352 2.784-5.988h1.32V231h-1.104v-6.708l-2.556 5.424-.552.012h-.48l-2.52-5.496V231h-.948v-8.34h1.308l2.748 5.988Zm-47.397 37.012h5.1v.816h-3.996v3.036h3.396v.816h-3.396V274h-1.104v-8.34Zm14.424 8.34h-1.476l-1.92-6.636-1.908 6.636h-1.512l-1.848-8.34h1.14l1.608 7.368 2.124-7.368h.996l2.076 7.248 1.596-7.248h.96l-1.836 8.34Zm6.022 0h-1.02v-6.036h.9l.096 1.08h.024c.16-.336.404-.62.732-.852.328-.232.756-.348 1.284-.348.456 0 .836.112 1.14.336.312.216.512.552.6 1.008.176-.424.44-.752.792-.984.352-.24.78-.36 1.284-.36.552 0 .992.16 1.32.48.328.312.492.792.492 1.44V274h-1.032v-4.104c0-.432-.096-.744-.288-.936-.192-.192-.456-.288-.792-.288-.224 0-.424.036-.6.108-.168.072-.32.168-.456.288-.136.12-.256.264-.36.432-.104.16-.204.332-.3.516V274h-1.02v-4.224c0-.424-.096-.712-.288-.864-.192-.16-.456-.24-.792-.24-.44 0-.788.112-1.044.336-.256.224-.48.524-.672.9V274Zm12.707 0a2.49 2.49 0 0 1-.096-.444 6.428 6.428 0 0 1-.048-.564c-.064.128-.148.26-.252.396a1.934 1.934 0 0 1-.396.36c-.16.104-.348.192-.564.264a2.393 2.393 0 0 1-.756.108c-.552 0-1.004-.14-1.356-.42-.344-.288-.516-.72-.516-1.296 0-.624.252-1.096.756-1.416.504-.328 1.308-.492 2.412-.492h.624v-.576c0-.432-.108-.748-.324-.948-.216-.208-.588-.312-1.116-.312-.376 0-.74.064-1.092.192-.344.12-.632.276-.864.468v-.78c.192-.208.476-.376.852-.504a3.814 3.814 0 0 1 1.236-.192c.76 0 1.336.16 1.728.48.4.312.6.796.6 1.452v3.252c0 .136.008.308.024.516.016.2.036.352.06.456h-.912Zm-1.896-.624c.272 0 .512-.044.72-.132a1.77 1.77 0 0 0 .54-.36c.144-.144.252-.304.324-.48.08-.176.12-.348.12-.516v-.756h-.528c-.432 0-.792.024-1.08.072-.28.04-.508.112-.684.216a.835.835 0 0 0-.372.372 1.282 1.282 0 0 0-.108.552c0 .36.096.624.288.792.192.16.452.24.78.24Zm6.963-4.716c-.464 0-.84.112-1.128.336a2.68 2.68 0 0 0-.708.84V274h-1.02v-6.036h.96l.036 1.08h.024c.16-.344.416-.628.768-.852.352-.232.796-.348 1.332-.348.6 0 1.076.16 1.428.48.352.312.528.792.528 1.44V274h-1.032v-4.188c0-.432-.104-.732-.312-.9-.208-.168-.5-.252-.876-.252Zm7.285 5.34a2.49 2.49 0 0 1-.096-.444 6.428 6.428 0 0 1-.048-.564c-.064.128-.148.26-.252.396a1.934 1.934 0 0 1-.396.36c-.16.104-.348.192-.564.264a2.393 2.393 0 0 1-.756.108c-.552 0-1.004-.14-1.356-.42-.344-.288-.516-.72-.516-1.296 0-.624.252-1.096.756-1.416.504-.328 1.308-.492 2.412-.492h.624v-.576c0-.432-.108-.748-.324-.948-.216-.208-.588-.312-1.116-.312-.376 0-.74.064-1.092.192-.344.12-.632.276-.864.468v-.78c.192-.208.476-.376.852-.504a3.814 3.814 0 0 1 1.236-.192c.76 0 1.336.16 1.728.48.4.312.6.796.6 1.452v3.252c0 .136.008.308.024.516.016.2.036.352.06.456h-.912Zm-1.896-.624c.272 0 .512-.044.72-.132a1.77 1.77 0 0 0 .54-.36c.144-.144.252-.304.324-.48.08-.176.12-.348.12-.516v-.756h-.528c-.432 0-.792.024-1.08.072-.28.04-.508.112-.684.216a.835.835 0 0 0-.372.372 1.282 1.282 0 0 0-.108.552c0 .36.096.624.288.792.192.16.452.24.78.24Zm9.374.288c0 .392-.056.748-.168 1.068a1.95 1.95 0 0 1-.54.816c-.24.232-.552.408-.936.528-.384.128-.848.192-1.392.192-.368 0-.684-.028-.948-.084a3.589 3.589 0 0 1-.636-.192 1.89 1.89 0 0 1-.492-.276v-.78c.128.096.292.184.492.264.168.064.384.12.648.168.264.056.58.084.948.084.744 0 1.264-.152 1.56-.456.296-.296.444-.736.444-1.32v-1.104c-.184.36-.436.648-.756.864-.312.216-.708.324-1.188.324-.36 0-.7-.06-1.02-.18a2.515 2.515 0 0 1-.852-.564 2.75 2.75 0 0 1-.576-.924c-.144-.368-.216-.796-.216-1.284 0-.496.072-.928.216-1.296a2.6 2.6 0 0 1 .576-.924 2.35 2.35 0 0 1 .864-.552 2.814 2.814 0 0 1 1.032-.192c.48 0 .884.108 1.212.324.336.216.596.512.78.888l.012-.132v-.24l.024-.264.024-.252c.008-.08.016-.148.024-.204h.924c-.016.104-.032.26-.048.468-.008.2-.012.364-.012.492v4.74Zm-2.772-.636c.504 0 .924-.18 1.26-.54.336-.368.504-.928.504-1.68 0-.752-.168-1.312-.504-1.68a1.649 1.649 0 0 0-1.272-.552c-.256 0-.496.048-.72.144a1.414 1.414 0 0 0-.576.42 2.07 2.07 0 0 0-.384.696c-.088.28-.132.604-.132.972 0 .376.044.704.132.984.096.272.224.5.384.684.168.184.36.324.576.42.224.088.468.132.732.132Zm9.068.42a2.283 2.283 0 0 1-.3.216c-.128.08-.28.156-.456.228a3.58 3.58 0 0 1-.612.156 3.622 3.622 0 0 1-.756.072c-1.016 0-1.788-.272-2.316-.816-.528-.552-.792-1.328-.792-2.328 0-.488.072-.924.216-1.308.144-.392.344-.724.6-.996s.56-.476.912-.612a2.982 2.982 0 0 1 1.14-.216c.432 0 .816.076 1.152.228.344.144.624.36.84.648.224.288.376.644.456 1.068.08.424.08.912 0 1.464h-4.26c.072 1.368.788 2.052 2.148 2.052.464 0 .864-.068 1.2-.204.336-.136.612-.28.828-.432v.78Zm-2.388-4.872c-.48 0-.88.164-1.2.492-.32.32-.512.808-.576 1.464h3.276c.048-.672-.072-1.164-.36-1.476-.28-.32-.66-.48-1.14-.48Zm4.63 5.424h-1.02v-6.036h.9l.096 1.08h.024c.16-.336.404-.62.732-.852.328-.232.756-.348 1.284-.348.456 0 .836.112 1.14.336.312.216.512.552.6 1.008.176-.424.44-.752.792-.984.352-.24.78-.36 1.284-.36.552 0 .992.16 1.32.48.328.312.492.792.492 1.44V274h-1.032v-4.104c0-.432-.096-.744-.288-.936-.192-.192-.456-.288-.792-.288-.224 0-.424.036-.6.108-.168.072-.32.168-.456.288-.136.12-.256.264-.36.432-.104.16-.204.332-.3.516V274h-1.02v-4.224c0-.424-.096-.712-.288-.864-.192-.16-.456-.24-.792-.24-.44 0-.788.112-1.044.336-.256.224-.48.524-.672.9V274Zm13.895-.552a2.283 2.283 0 0 1-.3.216c-.128.08-.28.156-.456.228a3.58 3.58 0 0 1-.612.156 3.622 3.622 0 0 1-.756.072c-1.016 0-1.788-.272-2.316-.816-.528-.552-.792-1.328-.792-2.328 0-.488.072-.924.216-1.308.144-.392.344-.724.6-.996s.56-.476.912-.612a2.982 2.982 0 0 1 1.14-.216c.432 0 .816.076 1.152.228.344.144.624.36.84.648.224.288.376.644.456 1.068.08.424.08.912 0 1.464h-4.26c.072 1.368.788 2.052 2.148 2.052.464 0 .864-.068 1.2-.204.336-.136.612-.28.828-.432v.78Zm-2.388-4.872c-.48 0-.88.164-1.2.492-.32.32-.512.808-.576 1.464h3.276c.048-.672-.072-1.164-.36-1.476-.28-.32-.66-.48-1.14-.48Zm6.465.084c-.464 0-.84.112-1.128.336a2.68 2.68 0 0 0-.708.84V274h-1.02v-6.036h.96l.036 1.08h.024c.16-.344.416-.628.768-.852.352-.232.796-.348 1.332-.348.6 0 1.076.16 1.428.48.352.312.528.792.528 1.44V274h-1.032v-4.188c0-.432-.104-.732-.312-.9-.208-.168-.5-.252-.876-.252Zm6.553 5.244a2.013 2.013 0 0 1-.96.216c-.616 0-1.064-.14-1.344-.42-.28-.28-.42-.648-.42-1.104v-3.888h-.72v-.744h.72v-1.272h1.032v1.272h1.752v.744h-1.752v3.756c0 .304.064.52.192.648.136.12.38.18.732.18.136 0 .268-.02.396-.06.136-.04.26-.088.372-.144v.816Zm-56.262 14.216c-.416 0-.764-.04-1.044-.12a3.015 3.015 0 0 1-.684-.252 1.645 1.645 0 0 1-.492-.384v-.78c.168.136.364.256.588.36.192.088.42.172.684.252.272.072.588.108.948.108.432 0 .776-.072 1.032-.216.256-.144.384-.384.384-.72 0-.192-.04-.344-.12-.456a.801.801 0 0 0-.336-.264 1.612 1.612 0 0 0-.48-.156c-.184-.04-.376-.08-.576-.12-.256-.056-.508-.12-.756-.192a2.565 2.565 0 0 1-.672-.3 1.56 1.56 0 0 1-.492-.504c-.12-.208-.18-.472-.18-.792 0-.584.208-1.02.624-1.308.424-.288 1.016-.432 1.776-.432.328 0 .608.024.84.072.232.04.428.088.588.144.184.064.34.136.468.216v.78a2.723 2.723 0 0 0-.48-.192 5.102 5.102 0 0 0-.588-.132 3.82 3.82 0 0 0-.792-.072c-.456 0-.808.064-1.056.192-.24.128-.36.352-.36.672 0 .176.036.316.108.42a.802.802 0 0 0 .288.252c.12.056.256.1.408.132l.492.096c.264.056.532.116.804.18.28.064.532.16.756.288.224.128.408.304.552.528.144.216.216.508.216.876 0 .352-.072.644-.216.876a1.62 1.62 0 0 1-.552.564 2.455 2.455 0 0 1-.792.288 4.081 4.081 0 0 1-.888.096Zm8.331-.672a2.283 2.283 0 0 1-.3.216c-.128.08-.28.156-.456.228a3.58 3.58 0 0 1-.612.156 3.622 3.622 0 0 1-.756.072c-1.016 0-1.788-.272-2.316-.816-.528-.552-.792-1.328-.792-2.328 0-.488.072-.924.216-1.308.144-.392.344-.724.6-.996s.56-.476.912-.612a2.982 2.982 0 0 1 1.14-.216c.432 0 .816.076 1.152.228.344.144.624.36.84.648.224.288.376.644.456 1.068.08.424.08.912 0 1.464h-4.26c.072 1.368.788 2.052 2.148 2.052.464 0 .864-.068 1.2-.204.336-.136.612-.28.828-.432v.78Zm-2.388-4.872c-.48 0-.88.164-1.2.492-.32.32-.512.808-.576 1.464h3.276c.048-.672-.072-1.164-.36-1.476-.28-.32-.66-.48-1.14-.48Zm6.598.324c-.432.04-.828.16-1.188.36-.352.192-.612.492-.78.9V288h-1.02v-6.036h.9l.096 1.308h.024c.168-.36.412-.672.732-.936.328-.264.74-.428 1.236-.492v1.056Zm4.099 5.1h-1.572l-2.064-6.036h1.068l1.86 5.544 1.836-5.544h.948L156.118 288Zm7.546-.552a2.283 2.283 0 0 1-.3.216c-.128.08-.28.156-.456.228a3.58 3.58 0 0 1-.612.156 3.622 3.622 0 0 1-.756.072c-1.016 0-1.788-.272-2.316-.816-.528-.552-.792-1.328-.792-2.328 0-.488.072-.924.216-1.308.144-.392.344-.724.6-.996s.56-.476.912-.612a2.982 2.982 0 0 1 1.14-.216c.432 0 .816.076 1.152.228.344.144.624.36.84.648.224.288.376.644.456 1.068.08.424.08.912 0 1.464h-4.26c.072 1.368.788 2.052 2.148 2.052.464 0 .864-.068 1.2-.204.336-.136.612-.28.828-.432v.78Zm-2.388-4.872c-.48 0-.88.164-1.2.492-.32.32-.512.808-.576 1.464h3.276c.048-.672-.072-1.164-.36-1.476-.28-.32-.66-.48-1.14-.48Zm6.598.324c-.432.04-.828.16-1.188.36-.352.192-.612.492-.78.9V288h-1.02v-6.036h.9l.096 1.308h.024c.168-.36.412-.672.732-.936.328-.264.74-.428 1.236-.492v1.056Z"/>
    <defs>
        <filter id="filter0_d_11_45" width="196" height="170" x="22" y="146" color-interpolation-filters="sRGB" filterUnits="userSpaceOnUse">
            <feFlood flood-opacity="0" result="BackgroundImageFix"/>
            <feColorMatrix in="SourceAlpha" result="hardAlpha" values="0 0 0 0 0 0 0 0 0 0 0 0 0 0 0 0 0 0 127 0"/>
            <feOffset/>
            <feGaussianBlur stdDeviation="4"/>
            <feColorMatrix values="0 0 0 0 0.321569 0 0 0 0 0.509804 0 0 0 0 1 0 0 0 0.2 0"/>
            <feBlend in2="BackgroundImageFix" result="effect1_dropShadow_11_45"/>
            <feBlend in="SourceGraphic" in2="effect1_dropShadow_11_45" result="shape"/>
        </filter>
        <filter id="filter1_d_11_45" width="196" height="170" x="482" y="146" color-interpolation-filters="sRGB" filterUnits="userSpaceOnUse">
            <feFlood flood-opacity="0" result="BackgroundImageFix"/>
            <feColorMatrix in="SourceAlpha" result="hardAlpha" values="0 0 0 0 0 0 0 0 0 0 0 0 0 0 0 0 0 0 127 0"/>
            <feOffset/>
            <feGaussianBlur stdDeviation="4"/>
            <feColorMatrix values="0 0 0 0 0.321569 0 0 0 0 0.509804 0 0 0 0 1 0 0 0 0.2 0"/>
            <feBlend in2="BackgroundImageFix" result="effect1_dropShadow_11_45"/>
            <feBlend in="SourceGraphic" in2="effect1_dropShadow_11_45" result="shape"/>
        </filter>
        <filter id="filter2_d_11_45" width="196" height="170" x="252" y="146" color-interpolation-filters="sRGB" filterUnits="userSpaceOnUse">
            <feFlood flood-opacity="0" result="BackgroundImageFix"/>
            <feColorMatrix in="SourceAlpha" result="hardAlpha" values="0 0 0 0 0 0 0 0 0 0 0 0 0 0 0 0 0 0 127 0"/>
            <feOffset/>
            <feGaussianBlur stdDeviation="4"/>
            <feColorMatrix values="0 0 0 0 0.321569 0 0 0 0 0.509804 0 0 0 0 1 0 0 0 0.2 0"/>
            <feBlend in2="BackgroundImageFix" result="effect1_dropShadow_11_45"/>
            <feBlend in="SourceGraphic" in2="effect1_dropShadow_11_45" result="shape"/>
        </filter>
        <filter id="filter3_d_11_45" width="196" height="137" x="252" y="350" color-interpolation-filters="sRGB" filterUnits="userSpaceOnUse">
            <feFlood flood-opacity="0" result="BackgroundImageFix"/>
            <feColorMatrix in="SourceAlpha" result="hardAlpha" values="0 0 0 0 0 0 0 0 0 0 0 0 0 0 0 0 0 0 127 0"/>
            <feOffset/>
            <feGaussianBlur stdDeviation="4"/>
            <feColorMatrix values="0 0 0 0 0.321569 0 0 0 0 0.509804 0 0 0 0 1 0 0 0 0.2 0"/>
            <feBlend in2="BackgroundImageFix" result="effect1_dropShadow_11_45"/>
            <feBlend in="SourceGraphic" in2="effect1_dropShadow_11_45" result="shape"/>
        </filter>
    </defs>
</svg>
