<svg width="700" height="430" viewBox="0 0 700 430" fill="none" xmlns="http://www.w3.org/2000/svg">
<g filter="url(#filter0_d_1_2)">
<path d="M161 139H31C28.2386 139 26 141.239 26 144V247C26 249.761 28.2386 252 31 252H161C163.761 252 166 249.761 166 247V144C166 141.239 163.761 139 161 139Z" fill="white"/>
</g>
<g filter="url(#filter1_d_1_2)">
<path d="M334 139H204C201.239 139 199 141.239 199 144V247C199 249.761 201.239 252 204 252H334C336.761 252 339 249.761 339 247V144C339 141.239 336.761 139 334 139Z" fill="white"/>
</g>
<g filter="url(#filter2_d_1_2)">
<path d="M669 139H377C374.239 139 372 141.239 372 144V410C372 412.761 374.239 415 377 415H669C671.761 415 674 412.761 674 410V144C674 141.239 671.761 139 669 139Z" fill="white"/>
</g>
<path d="M424 338L429.774 328H418.226L424 338ZM425 329C425 324.976 425 322.073 425 319.992H423C423 322.073 423 324.976 423 329H425ZM429 316H516V314H429V316ZM425 319.992C425 317.785 426.789 316 429 316V314C425.688 314 423 316.677 423 319.992H425Z" fill="#4E496B"/>
<path d="M523 305C523 307.076 523 308.724 523 310.032C523 312.793 520.761 314.968 518 314.968H453" stroke="#4E496B" stroke-width="2"/>
<path d="M523 302C523 305.553 523 308.138 523 310.018C523 312.78 525.239 314.985 528 314.985H614" stroke="#4E496B" stroke-width="2"/>
<path d="M622 338L616.226 328H627.774L622 338ZM621 329C621 324.976 621 322.073 621 319.992H623C623 322.073 623 324.976 623 329H621ZM617 316H550V314H617V316ZM621 319.992C621 317.785 619.211 316 617 316V314C620.312 314 623 316.677 623 319.992H621Z" fill="#4E496B"/>
<path d="M523 338L528.774 328H517.226L523 338ZM522 296V329H524V296H522Z" fill="#4E496B"/>
<path d="M67.6577 161.645V165H66.3157V161.656L63.6867 157.113H65.1827L67.0637 160.501L68.9777 157.113H70.2647L67.6577 161.645ZM73.7789 163.999C73.7202 164.131 73.6396 164.263 73.5369 164.395C73.4416 164.527 73.3206 164.648 73.1739 164.758C73.0346 164.861 72.8659 164.945 72.6679 165.011C72.4699 165.077 72.2389 165.11 71.9749 165.11C71.7256 165.11 71.4946 165.073 71.2819 165C71.0692 164.934 70.8822 164.831 70.7209 164.692C70.5669 164.553 70.4422 164.38 70.3469 164.175C70.2589 163.962 70.2149 163.72 70.2149 163.449C70.2149 162.826 70.4459 162.36 70.9079 162.052C71.3699 161.737 72.0226 161.579 72.8659 161.579H73.7349V161.227C73.7349 160.853 73.6396 160.596 73.4489 160.457C73.2582 160.31 72.9429 160.237 72.5029 160.237C72.1289 160.237 71.7769 160.292 71.4469 160.402C71.1242 160.505 70.8382 160.626 70.5889 160.765V159.698C70.8162 159.573 71.1169 159.456 71.4909 159.346C71.8649 159.236 72.2719 159.181 72.7119 159.181C73.4452 159.181 74.0099 159.335 74.4059 159.643C74.8092 159.944 75.0109 160.428 75.0109 161.095V164.076C75.0109 164.142 75.0109 164.219 75.0109 164.307C75.0182 164.388 75.0219 164.472 75.0219 164.56C75.0292 164.648 75.0366 164.732 75.0439 164.813C75.0512 164.886 75.0586 164.949 75.0659 165H73.8889C73.8669 164.897 73.8449 164.754 73.8229 164.571C73.8082 164.388 73.7972 164.223 73.7899 164.076L73.7789 163.999ZM72.3269 164.12C72.5982 164.12 72.8219 164.065 72.9979 163.955C73.1812 163.838 73.3279 163.706 73.4379 163.559C73.5479 163.405 73.6249 163.255 73.6689 163.108C73.7129 162.961 73.7349 162.859 73.7349 162.8V162.415H72.9429C72.4369 162.415 72.0666 162.496 71.8319 162.657C71.5972 162.811 71.4799 163.031 71.4799 163.317C71.4799 163.566 71.5496 163.764 71.6889 163.911C71.8356 164.05 72.0482 164.12 72.3269 164.12ZM79.1814 160.237C78.8074 160.237 78.4994 160.318 78.2574 160.479C78.0154 160.633 77.8174 160.835 77.6634 161.084V165H76.3874V159.291H77.5974L77.6414 160.226H77.6634C77.8174 159.925 78.0484 159.676 78.3564 159.478C78.6717 159.28 79.0714 159.181 79.5554 159.181C80.1127 159.181 80.5674 159.331 80.9194 159.632C81.2787 159.933 81.4584 160.391 81.4584 161.007V165H80.1714V161.139C80.1714 160.809 80.0834 160.578 79.9074 160.446C79.7314 160.307 79.4894 160.237 79.1814 160.237ZM86.9139 163.933C86.7306 164.292 86.4849 164.578 86.1769 164.791C85.8689 165.004 85.4839 165.11 85.0219 165.11C84.6846 165.11 84.3619 165.051 84.0539 164.934C83.7459 164.809 83.4746 164.626 83.2399 164.384C83.0053 164.135 82.8183 163.827 82.6789 163.46C82.5396 163.086 82.4699 162.646 82.4699 162.14C82.4699 161.641 82.5396 161.209 82.6789 160.842C82.8183 160.468 83.0053 160.16 83.2399 159.918C83.4819 159.669 83.7569 159.485 84.0649 159.368C84.3729 159.243 84.6956 159.181 85.0329 159.181C85.4583 159.181 85.8213 159.265 86.1219 159.434C86.4299 159.603 86.6793 159.841 86.8699 160.149V157.113H88.1349V165H86.9799L86.9139 163.933ZM85.3189 164.043C85.5389 164.043 85.7406 164.006 85.9239 163.933C86.1146 163.852 86.2796 163.735 86.4189 163.581C86.5656 163.42 86.6793 163.222 86.7599 162.987C86.8406 162.745 86.8809 162.463 86.8809 162.14C86.8809 161.817 86.8406 161.539 86.7599 161.304C86.6793 161.062 86.5693 160.864 86.4299 160.71C86.2906 160.549 86.1256 160.431 85.9349 160.358C85.7443 160.277 85.5389 160.237 85.3189 160.237C84.8716 160.237 84.5013 160.398 84.2079 160.721C83.9219 161.044 83.7789 161.517 83.7789 162.14C83.7789 162.778 83.9219 163.255 84.2079 163.57C84.4939 163.885 84.8643 164.043 85.3189 164.043ZM94.3528 164.582C94.2721 164.633 94.1731 164.692 94.0558 164.758C93.9384 164.817 93.7991 164.872 93.6378 164.923C93.4764 164.974 93.2894 165.018 93.0768 165.055C92.8641 165.092 92.6221 165.11 92.3508 165.11C91.3021 165.11 90.5174 164.85 89.9968 164.329C89.4834 163.808 89.2268 163.079 89.2268 162.14C89.2268 161.678 89.2964 161.264 89.4358 160.897C89.5751 160.53 89.7694 160.222 90.0188 159.973C90.2681 159.716 90.5651 159.522 90.9098 159.39C91.2544 159.251 91.6321 159.181 92.0428 159.181C92.4681 159.181 92.8494 159.251 93.1868 159.39C93.5314 159.529 93.8138 159.738 94.0338 160.017C94.2538 160.296 94.4041 160.64 94.4848 161.051C94.5728 161.462 94.5764 161.942 94.4958 162.492H90.5468C90.5981 163.013 90.7704 163.405 91.0638 163.669C91.3571 163.926 91.8154 164.054 92.4388 164.054C92.8934 164.054 93.2711 163.999 93.5718 163.889C93.8798 163.772 94.1401 163.651 94.3528 163.526V164.582ZM92.0428 160.193C91.6688 160.193 91.3534 160.307 91.0968 160.534C90.8401 160.761 90.6714 161.099 90.5908 161.546H93.2748C93.2894 161.084 93.1868 160.743 92.9668 160.523C92.7468 160.303 92.4388 160.193 92.0428 160.193ZM97.5539 162.899L96.1679 165H94.9139L96.9269 162.03L95.1119 159.291H96.5639L97.8179 161.172L99.0389 159.291H100.293L98.4449 162.052L100.403 165H98.9509L97.5539 162.899ZM107.347 165.11C106.739 165.11 106.189 165.018 105.697 164.835C105.206 164.652 104.784 164.388 104.432 164.043C104.088 163.691 103.82 163.266 103.629 162.767C103.446 162.261 103.354 161.693 103.354 161.062C103.354 160.424 103.442 159.856 103.618 159.357C103.802 158.858 104.062 158.437 104.399 158.092C104.744 157.74 105.162 157.472 105.653 157.289C106.145 157.106 106.706 157.014 107.336 157.014C107.879 157.014 108.341 157.069 108.722 157.179C109.111 157.282 109.419 157.403 109.646 157.542V158.73C109.36 158.547 109.016 158.407 108.612 158.312C108.216 158.209 107.806 158.158 107.38 158.158C106.493 158.158 105.833 158.4 105.4 158.884C104.975 159.361 104.762 160.087 104.762 161.062C104.762 162.998 105.657 163.966 107.446 163.966C107.864 163.966 108.257 163.915 108.623 163.812C108.997 163.709 109.338 163.548 109.646 163.328V164.505C109.441 164.659 109.144 164.798 108.755 164.923C108.367 165.048 107.897 165.11 107.347 165.11ZM112.21 157.113V165H110.934V157.113H112.21ZM116.116 165.11C115.713 165.11 115.339 165.044 114.994 164.912C114.65 164.78 114.349 164.589 114.092 164.34C113.843 164.083 113.645 163.772 113.498 163.405C113.359 163.038 113.289 162.617 113.289 162.14C113.289 161.663 113.359 161.242 113.498 160.875C113.645 160.508 113.843 160.2 114.092 159.951C114.349 159.694 114.65 159.504 114.994 159.379C115.339 159.247 115.713 159.181 116.116 159.181C116.52 159.181 116.894 159.247 117.238 159.379C117.583 159.504 117.884 159.694 118.14 159.951C118.397 160.2 118.599 160.508 118.745 160.875C118.892 161.242 118.965 161.663 118.965 162.14C118.965 162.617 118.892 163.038 118.745 163.405C118.599 163.772 118.397 164.083 118.14 164.34C117.884 164.589 117.583 164.78 117.238 164.912C116.894 165.044 116.52 165.11 116.116 165.11ZM116.116 164.043C116.556 164.043 116.919 163.889 117.205 163.581C117.499 163.273 117.645 162.793 117.645 162.14C117.645 161.495 117.499 161.018 117.205 160.71C116.919 160.395 116.556 160.237 116.116 160.237C115.684 160.237 115.321 160.395 115.027 160.71C114.741 161.018 114.598 161.495 114.598 162.14C114.598 162.793 114.741 163.273 115.027 163.581C115.321 163.889 115.684 164.043 116.116 164.043ZM123.674 164.065C123.52 164.358 123.289 164.608 122.981 164.813C122.68 165.011 122.284 165.11 121.793 165.11C121.258 165.11 120.821 164.956 120.484 164.648C120.147 164.34 119.978 163.871 119.978 163.24V159.291H121.265V163.207C121.265 163.537 121.357 163.761 121.54 163.878C121.723 163.988 121.947 164.043 122.211 164.043C122.57 164.043 122.864 163.97 123.091 163.823C123.318 163.669 123.513 163.464 123.674 163.207V159.291H124.939V165H123.773L123.696 164.065H123.674ZM130.473 163.933C130.29 164.292 130.044 164.578 129.736 164.791C129.428 165.004 129.043 165.11 128.581 165.11C128.244 165.11 127.921 165.051 127.613 164.934C127.305 164.809 127.034 164.626 126.799 164.384C126.565 164.135 126.378 163.827 126.238 163.46C126.099 163.086 126.029 162.646 126.029 162.14C126.029 161.641 126.099 161.209 126.239 160.842C126.378 160.468 126.565 160.16 126.8 159.918C127.042 159.669 127.317 159.485 127.625 159.368C127.933 159.243 128.255 159.181 128.593 159.181C129.018 159.181 129.381 159.265 129.682 159.434C129.99 159.603 130.239 159.841 130.43 160.149V157.113H131.695L131.694 165H130.539L130.473 163.933ZM128.878 164.043C129.098 164.043 129.3 164.006 129.483 163.933C129.674 163.852 129.839 163.735 129.978 163.581C130.125 163.42 130.239 163.222 130.319 162.987C130.4 162.745 130.44 162.463 130.441 162.14C130.441 161.817 130.4 161.539 130.32 161.304C130.239 161.062 130.129 160.864 129.99 160.71C129.85 160.549 129.685 160.431 129.495 160.358C129.304 160.277 129.099 160.237 128.879 160.237C128.431 160.237 128.061 160.398 127.768 160.721C127.482 161.044 127.339 161.517 127.338 162.14C127.338 162.778 127.481 163.255 127.767 163.57C128.053 163.885 128.424 164.043 128.878 164.043Z" fill="#18123D"/>
<path d="M523 66C523 81.4554 523 89.7242 523 94.1197C523 96.8811 520.761 98.8933 518 98.8933L158 98.8929" stroke="#4E496B" stroke-width="2"/>
<path d="M96 139L101.774 129H90.2265L96 139ZM97 130C97 115.807 97 108.058 97 103.856H95C95 108.058 95 115.807 95 130H97ZM101 100.129L424 100.13V98.1298L101 98.1295V100.129ZM97 103.856C97 101.72 98.7155 100.129 101 100.129V98.1295C97.7616 98.1295 95 100.47 95 103.856H97Z" fill="#4E496B"/>
<path d="M372 288.881L362 294.654V283.107L372 288.881ZM97 252.001C97 270.05 97 279.358 97 284.121H95C95 279.358 95 270.05 95 252.001H97ZM101 287.881H363V289.881H101V287.881ZM97 284.121C97 286.267 98.7251 287.881 101 287.881V289.881C97.752 289.881 95 287.498 95 284.121H97Z" fill="#4E496B"/>
<path d="M142.979 184H49C46.2386 184 44 186.239 44 189V229C44 231.761 46.2386 234 49 234H142.979C145.74 234 147.979 231.761 147.979 229V189C147.979 186.239 145.74 184 142.979 184Z" fill="#E3EBFF"/>
<path d="M55.6804 198.224H56.7254V203.416C56.7254 204.054 56.905 204.527 57.2644 204.835C57.631 205.143 58.1297 205.297 58.7604 205.297C59.0684 205.297 59.3507 205.261 59.6074 205.187C59.8714 205.107 60.0987 204.989 60.2894 204.835C60.48 204.674 60.6267 204.476 60.7294 204.241C60.8394 204.007 60.8944 203.732 60.8944 203.416V198.224H61.8844V203.383C61.8844 203.838 61.8037 204.241 61.6424 204.593C61.481 204.945 61.2574 205.242 60.9714 205.484C60.6927 205.726 60.3627 205.91 59.9814 206.034C59.6 206.159 59.1857 206.221 58.7384 206.221C58.3057 206.221 57.9024 206.163 57.5284 206.045C57.1544 205.928 56.828 205.752 56.5494 205.517C56.278 205.283 56.0654 204.993 55.9114 204.648C55.7574 204.296 55.6804 203.889 55.6804 203.427V198.224ZM65.1776 206.221C64.8769 206.221 64.6092 206.196 64.3746 206.144C64.1472 206.1 63.9456 206.045 63.7696 205.979C63.6009 205.906 63.4579 205.833 63.3406 205.759C63.2232 205.679 63.1316 205.609 63.0656 205.55V204.681C63.1389 204.755 63.2379 204.835 63.3626 204.923C63.4872 205.004 63.6376 205.081 63.8136 205.154C63.9896 205.228 64.1876 205.29 64.4076 205.341C64.6349 205.385 64.8879 205.407 65.1666 205.407C65.5772 205.407 65.9036 205.341 66.1456 205.209C66.3876 205.077 66.5086 204.854 66.5086 204.538C66.5086 204.37 66.4682 204.234 66.3876 204.131C66.3142 204.029 66.2116 203.948 66.0796 203.889C65.9476 203.823 65.7936 203.772 65.6176 203.735C65.4489 203.699 65.2692 203.662 65.0786 203.625C64.8366 203.574 64.5982 203.519 64.3636 203.46C64.1289 203.394 63.9162 203.303 63.7256 203.185C63.5349 203.061 63.3809 202.903 63.2636 202.712C63.1462 202.514 63.0876 202.258 63.0876 201.942C63.0876 201.429 63.2856 201.026 63.6816 200.732C64.0849 200.439 64.6459 200.292 65.3646 200.292C65.7679 200.292 66.1236 200.333 66.4316 200.413C66.7469 200.494 66.9889 200.582 67.1576 200.677V201.546C66.9669 201.422 66.7286 201.319 66.4426 201.238C66.1639 201.15 65.8156 201.106 65.3976 201.106C64.9649 201.106 64.6312 201.165 64.3966 201.282C64.1692 201.4 64.0556 201.612 64.0556 201.92C64.0556 202.074 64.0886 202.199 64.1546 202.294C64.2206 202.382 64.3086 202.456 64.4186 202.514C64.5359 202.566 64.6679 202.606 64.8146 202.635C64.9612 202.665 65.1152 202.698 65.2766 202.734C65.5259 202.786 65.7826 202.841 66.0466 202.899C66.3106 202.958 66.5452 203.05 66.7506 203.174C66.9632 203.299 67.1356 203.468 67.2676 203.68C67.4069 203.886 67.4766 204.164 67.4766 204.516C67.4766 204.846 67.4106 205.121 67.2786 205.341C67.1466 205.561 66.9706 205.737 66.7506 205.869C66.5379 205.994 66.2922 206.082 66.0136 206.133C65.7422 206.192 65.4636 206.221 65.1776 206.221ZM73.212 205.627C73.1313 205.686 73.0323 205.748 72.915 205.814C72.7976 205.88 72.6546 205.946 72.486 206.012C72.3173 206.071 72.1266 206.119 71.914 206.155C71.7013 206.199 71.463 206.221 71.199 206.221C70.2383 206.221 69.5086 205.961 69.01 205.44C68.5113 204.92 68.262 204.19 68.262 203.251C68.262 202.789 68.328 202.375 68.46 202.008C68.5993 201.642 68.79 201.334 69.032 201.084C69.274 200.828 69.56 200.633 69.89 200.501C70.22 200.362 70.5793 200.292 70.968 200.292C71.3786 200.292 71.7453 200.362 72.068 200.501C72.3906 200.641 72.6546 200.846 72.86 201.117C73.0726 201.389 73.2156 201.726 73.289 202.129C73.3696 202.525 73.3696 202.987 73.289 203.515H69.263C69.2996 204.131 69.483 204.593 69.813 204.901C70.143 205.202 70.6343 205.352 71.287 205.352C71.727 205.352 72.1046 205.29 72.42 205.165C72.7353 205.041 72.9993 204.905 73.212 204.758V205.627ZM70.946 201.15C70.528 201.15 70.1686 201.279 69.868 201.535C69.5673 201.792 69.3766 202.181 69.296 202.701H72.365C72.3943 202.173 72.2733 201.785 72.002 201.535C71.7306 201.279 71.3786 201.15 70.946 201.15ZM77.329 201.37C76.9183 201.407 76.5443 201.513 76.207 201.689C75.877 201.858 75.6313 202.122 75.47 202.481V206.111H74.502V200.402H75.349L75.448 201.645H75.47C75.6313 201.308 75.8623 201.015 76.163 200.765C76.471 200.509 76.8596 200.351 77.329 200.292V201.37ZM85.3068 203.02C85.3068 203.482 85.2371 203.908 85.0978 204.296C84.9658 204.685 84.7605 205.022 84.4818 205.308C84.2031 205.594 83.8511 205.818 83.4258 205.979C83.0078 206.141 82.5128 206.221 81.9408 206.221C81.3835 206.221 80.8738 206.126 80.4118 205.935C79.9498 205.737 79.5538 205.462 79.2238 205.11C78.8938 204.758 78.6371 204.333 78.4538 203.834C78.2705 203.336 78.1788 202.782 78.1788 202.173C78.1788 201.565 78.2668 201.011 78.4428 200.512C78.6188 200.014 78.8755 199.588 79.2128 199.236C79.5575 198.884 79.9828 198.613 80.4888 198.422C80.9948 198.224 81.5778 198.125 82.2378 198.125C82.5751 198.125 82.8758 198.147 83.1398 198.191C83.4111 198.235 83.6495 198.29 83.8548 198.356C84.0601 198.422 84.2361 198.496 84.3828 198.576C84.5368 198.657 84.6688 198.734 84.7788 198.807V199.797C84.6028 199.695 84.4231 199.599 84.2398 199.511C84.0565 199.416 83.8585 199.335 83.6458 199.269C83.4405 199.203 83.2168 199.152 82.9748 199.115C82.7401 199.079 82.4835 199.06 82.2048 199.06C81.7061 199.06 81.2735 199.13 80.9068 199.269C80.5475 199.409 80.2468 199.614 80.0048 199.885C79.7701 200.149 79.5941 200.476 79.4768 200.864C79.3595 201.246 79.3008 201.682 79.3008 202.173C79.3008 203.156 79.5318 203.922 79.9938 204.472C80.4631 205.015 81.1121 205.286 81.9408 205.286C82.3515 205.286 82.7035 205.235 82.9968 205.132C83.2901 205.022 83.5285 204.876 83.7118 204.692C83.8951 204.502 84.0271 204.278 84.1078 204.021C84.1958 203.757 84.2398 203.471 84.2398 203.163V202.943H81.6988V202.008H85.3068V203.02ZM89.9846 205.022C89.9186 205.154 89.8343 205.294 89.7316 205.44C89.629 205.58 89.5006 205.708 89.3466 205.825C89.1926 205.943 89.0093 206.038 88.7966 206.111C88.5913 206.185 88.3493 206.221 88.0706 206.221C87.5573 206.221 87.143 206.078 86.8276 205.792C86.5123 205.499 86.3546 205.081 86.3546 204.538C86.3546 203.915 86.571 203.457 87.0036 203.163C87.4436 202.87 88.067 202.723 88.8736 202.723H89.9406V202.25C89.9406 201.854 89.838 201.572 89.6326 201.403C89.4273 201.235 89.0753 201.15 88.5766 201.15C88.2246 201.15 87.891 201.209 87.5756 201.326C87.2603 201.436 86.978 201.565 86.7286 201.711V200.842C86.934 200.718 87.209 200.597 87.5536 200.479C87.9056 200.355 88.2906 200.292 88.7086 200.292C89.4273 200.292 89.9736 200.443 90.3476 200.743C90.7216 201.037 90.9086 201.495 90.9086 202.118V205.187C90.9086 205.253 90.9086 205.33 90.9086 205.418C90.916 205.499 90.9196 205.583 90.9196 205.671C90.927 205.759 90.9343 205.844 90.9416 205.924C90.949 205.998 90.9563 206.06 90.9636 206.111H90.0836C90.0616 206.009 90.0396 205.866 90.0176 205.682C90.003 205.492 89.9956 205.327 89.9956 205.187L89.9846 205.022ZM88.2796 205.352C88.5803 205.352 88.837 205.29 89.0496 205.165C89.2623 205.041 89.4346 204.898 89.5666 204.736C89.6986 204.568 89.794 204.406 89.8526 204.252C89.9113 204.091 89.9406 203.977 89.9406 203.911V203.493H88.9726C88.3933 203.493 87.9716 203.578 87.7076 203.746C87.451 203.908 87.3226 204.153 87.3226 204.483C87.3226 204.74 87.3996 204.949 87.5536 205.11C87.7076 205.272 87.9496 205.352 88.2796 205.352ZM95.2247 205.99C95.1073 206.056 94.957 206.111 94.7737 206.155C94.5903 206.199 94.396 206.221 94.1907 206.221C93.912 206.221 93.6737 206.181 93.4757 206.1C93.285 206.02 93.1273 205.913 93.0027 205.781C92.878 205.642 92.7863 205.488 92.7277 205.319C92.6763 205.143 92.6507 204.964 92.6507 204.78V201.227H91.9687V200.402H92.6507V199.203H93.6187V200.402H95.2797V201.227H93.6187V204.659C93.6187 204.901 93.6773 205.077 93.7947 205.187C93.9193 205.297 94.1357 205.352 94.4437 205.352C94.7297 205.352 94.99 205.272 95.2247 205.11V205.99ZM101.002 205.627C100.921 205.686 100.822 205.748 100.705 205.814C100.588 205.88 100.445 205.946 100.276 206.012C100.107 206.071 99.9167 206.119 99.704 206.155C99.4913 206.199 99.253 206.221 98.989 206.221C98.0283 206.221 97.2987 205.961 96.8 205.44C96.3013 204.92 96.052 204.19 96.052 203.251C96.052 202.789 96.118 202.375 96.25 202.008C96.3893 201.642 96.58 201.334 96.822 201.084C97.064 200.828 97.35 200.633 97.68 200.501C98.01 200.362 98.3693 200.292 98.758 200.292C99.1687 200.292 99.5353 200.362 99.858 200.501C100.181 200.641 100.445 200.846 100.65 201.117C100.863 201.389 101.006 201.726 101.079 202.129C101.16 202.525 101.16 202.987 101.079 203.515H97.053C97.0897 204.131 97.273 204.593 97.603 204.901C97.933 205.202 98.4243 205.352 99.077 205.352C99.517 205.352 99.8947 205.29 100.21 205.165C100.525 205.041 100.789 204.905 101.002 204.758V205.627ZM98.736 201.15C98.318 201.15 97.9587 201.279 97.658 201.535C97.3573 201.792 97.1667 202.181 97.086 202.701H100.155C100.184 202.173 100.063 201.785 99.792 201.535C99.5207 201.279 99.1687 201.15 98.736 201.15ZM111.188 206.111H109.78L105.82 199.489V206.111H104.841V198.224H106.238L110.198 204.846V198.224H111.188V206.111ZM119.693 203.02C119.693 203.482 119.623 203.908 119.484 204.296C119.352 204.685 119.146 205.022 118.868 205.308C118.589 205.594 118.237 205.818 117.812 205.979C117.394 206.141 116.899 206.221 116.327 206.221C115.769 206.221 115.26 206.126 114.798 205.935C114.336 205.737 113.94 205.462 113.61 205.11C113.28 204.758 113.023 204.333 112.84 203.834C112.656 203.336 112.565 202.782 112.565 202.173C112.565 201.565 112.653 201.011 112.829 200.512C113.005 200.014 113.261 199.588 113.599 199.236C113.943 198.884 114.369 198.613 114.875 198.422C115.381 198.224 115.964 198.125 116.624 198.125C116.961 198.125 117.262 198.147 117.526 198.191C117.797 198.235 118.035 198.29 118.241 198.356C118.446 198.422 118.622 198.496 118.769 198.576C118.923 198.657 119.055 198.734 119.165 198.807V199.797C118.989 199.695 118.809 199.599 118.626 199.511C118.442 199.416 118.244 199.335 118.032 199.269C117.826 199.203 117.603 199.152 117.361 199.115C117.126 199.079 116.869 199.06 116.591 199.06C116.092 199.06 115.659 199.13 115.293 199.269C114.933 199.409 114.633 199.614 114.391 199.885C114.156 200.149 113.98 200.476 113.863 200.864C113.745 201.246 113.687 201.682 113.687 202.173C113.687 203.156 113.918 203.922 114.38 204.472C114.849 205.015 115.498 205.286 116.327 205.286C116.737 205.286 117.089 205.235 117.383 205.132C117.676 205.022 117.914 204.876 118.098 204.692C118.281 204.502 118.413 204.278 118.494 204.021C118.582 203.757 118.626 203.471 118.626 203.163V202.943H116.085V202.008H119.693V203.02ZM121.158 198.224H125.976V199.17H122.192V201.788H125.404V202.723H122.192V206.111H121.158V198.224ZM135.086 206.111H133.568L131.83 200.017L130.081 206.111H128.552L126.814 198.224H127.892L129.388 205.22L131.412 198.224H132.358L134.338 205.088L135.823 198.224H136.824L135.086 206.111ZM66.8226 211.224H69.3966C70.3499 211.224 71.0906 211.415 71.6186 211.796C72.1466 212.178 72.4106 212.783 72.4106 213.611C72.4106 214.066 72.3373 214.458 72.1906 214.788C72.0439 215.118 71.8349 215.39 71.5636 215.602C71.2996 215.815 70.9769 215.973 70.5956 216.075C70.2216 216.171 69.8036 216.218 69.3416 216.218H68.1536V219.111H66.8226V211.224ZM68.1536 212.379V215.074H69.3416C69.8769 215.074 70.2986 214.968 70.6066 214.755C70.9146 214.543 71.0686 214.176 71.0686 213.655C71.0686 213.208 70.9256 212.885 70.6396 212.687C70.3609 212.482 69.9466 212.379 69.3966 212.379H68.1536ZM76.6801 214.634C76.2621 214.627 75.8845 214.693 75.5471 214.832C75.2098 214.972 74.9531 215.192 74.7771 215.492V219.111H73.5011V213.402H74.6671L74.7551 214.59H74.7771C74.9605 214.238 75.2098 213.945 75.5251 213.71C75.8478 213.476 76.2328 213.336 76.6801 213.292V214.634ZM80.0796 219.221C79.6763 219.221 79.3023 219.155 78.9576 219.023C78.613 218.891 78.3123 218.701 78.0556 218.451C77.8063 218.195 77.6083 217.883 77.4616 217.516C77.3223 217.15 77.2526 216.728 77.2526 216.251C77.2526 215.775 77.3223 215.353 77.4616 214.986C77.6083 214.62 77.8063 214.312 78.0556 214.062C78.3123 213.806 78.613 213.615 78.9576 213.49C79.3023 213.358 79.6763 213.292 80.0796 213.292C80.483 213.292 80.857 213.358 81.2016 213.49C81.5463 213.615 81.847 213.806 82.1036 214.062C82.3603 214.312 82.562 214.62 82.7086 214.986C82.8553 215.353 82.9286 215.775 82.9286 216.251C82.9286 216.728 82.8553 217.15 82.7086 217.516C82.562 217.883 82.3603 218.195 82.1036 218.451C81.847 218.701 81.5463 218.891 81.2016 219.023C80.857 219.155 80.483 219.221 80.0796 219.221ZM80.0796 218.154C80.5196 218.154 80.8826 218 81.1686 217.692C81.462 217.384 81.6086 216.904 81.6086 216.251C81.6086 215.606 81.462 215.129 81.1686 214.821C80.8826 214.506 80.5196 214.348 80.0796 214.348C79.647 214.348 79.284 214.506 78.9906 214.821C78.7046 215.129 78.5616 215.606 78.5616 216.251C78.5616 216.904 78.7046 217.384 78.9906 217.692C79.284 218 79.647 218.154 80.0796 218.154ZM85.7732 217.01L84.3872 219.111H83.1332L85.1462 216.141L83.3312 213.402H84.7832L86.0372 215.283L87.2582 213.402H88.5122L86.6642 216.163L88.6222 219.111H87.1702L85.7732 217.01ZM92.5763 219.045C92.4516 219.39 92.3159 219.694 92.1693 219.958C92.0299 220.222 91.8649 220.442 91.6743 220.618C91.4909 220.802 91.2746 220.937 91.0253 221.025C90.7833 221.121 90.4973 221.168 90.1673 221.168C89.8079 221.168 89.4999 221.11 89.2433 220.992V219.848C89.3459 219.929 89.4743 219.991 89.6283 220.035C89.7823 220.079 89.9509 220.101 90.1343 220.101C90.3836 220.101 90.5889 220.046 90.7503 219.936C90.9116 219.834 91.0583 219.676 91.1903 219.463L88.8913 213.402H90.2663L91.8613 217.835L93.4453 213.402H94.6333L92.5763 219.045ZM102 216.46L104.343 211.224H105.993V219.111H104.651V213.182L102.528 217.901L101.791 217.912H101.318L99.2386 213.105V219.111H98.0286V211.224H99.8106L102 216.46ZM110.018 219.221C109.615 219.221 109.241 219.155 108.896 219.023C108.551 218.891 108.251 218.701 107.994 218.451C107.745 218.195 107.547 217.883 107.4 217.516C107.261 217.15 107.191 216.728 107.191 216.251C107.191 215.775 107.261 215.353 107.4 214.986C107.547 214.62 107.745 214.312 107.994 214.062C108.251 213.806 108.551 213.615 108.896 213.49C109.241 213.358 109.615 213.292 110.018 213.292C110.421 213.292 110.795 213.358 111.14 213.49C111.485 213.615 111.785 213.806 112.042 214.062C112.299 214.312 112.5 214.62 112.647 214.986C112.794 215.353 112.867 215.775 112.867 216.251C112.867 216.728 112.794 217.15 112.647 217.516C112.5 217.883 112.299 218.195 112.042 218.451C111.785 218.701 111.485 218.891 111.14 219.023C110.795 219.155 110.421 219.221 110.018 219.221ZM110.018 218.154C110.458 218.154 110.821 218 111.107 217.692C111.4 217.384 111.547 216.904 111.547 216.251C111.547 215.606 111.4 215.129 111.107 214.821C110.821 214.506 110.458 214.348 110.018 214.348C109.585 214.348 109.222 214.506 108.929 214.821C108.643 215.129 108.5 215.606 108.5 216.251C108.5 216.904 108.643 217.384 108.929 217.692C109.222 218 109.585 218.154 110.018 218.154ZM118.027 218.044C117.843 218.404 117.598 218.69 117.29 218.902C116.982 219.115 116.597 219.221 116.135 219.221C115.797 219.221 115.475 219.163 115.167 219.045C114.859 218.921 114.587 218.737 114.353 218.495C114.118 218.246 113.931 217.938 113.792 217.571C113.652 217.197 113.583 216.757 113.583 216.251C113.583 215.753 113.652 215.32 113.792 214.953C113.931 214.579 114.118 214.271 114.353 214.029C114.595 213.78 114.87 213.597 115.178 213.479C115.486 213.355 115.808 213.292 116.146 213.292C116.571 213.292 116.934 213.377 117.235 213.545C117.543 213.714 117.792 213.952 117.983 214.26V211.224H119.248V219.111H118.093L118.027 218.044ZM116.432 218.154C116.652 218.154 116.853 218.118 117.037 218.044C117.227 217.964 117.392 217.846 117.532 217.692C117.678 217.531 117.792 217.333 117.873 217.098C117.953 216.856 117.994 216.574 117.994 216.251C117.994 215.929 117.953 215.65 117.873 215.415C117.792 215.173 117.682 214.975 117.543 214.821C117.403 214.66 117.238 214.543 117.048 214.469C116.857 214.389 116.652 214.348 116.432 214.348C115.984 214.348 115.614 214.51 115.321 214.832C115.035 215.155 114.892 215.628 114.892 216.251C114.892 216.889 115.035 217.366 115.321 217.681C115.607 217.997 115.977 218.154 116.432 218.154ZM125.466 218.693C125.385 218.745 125.286 218.803 125.169 218.869C125.051 218.928 124.912 218.983 124.751 219.034C124.589 219.086 124.402 219.13 124.19 219.166C123.977 219.203 123.735 219.221 123.464 219.221C122.415 219.221 121.63 218.961 121.11 218.44C120.596 217.92 120.34 217.19 120.34 216.251C120.34 215.789 120.409 215.375 120.549 215.008C120.688 214.642 120.882 214.334 121.132 214.084C121.381 213.828 121.678 213.633 122.023 213.501C122.367 213.362 122.745 213.292 123.156 213.292C123.581 213.292 123.962 213.362 124.3 213.501C124.644 213.641 124.927 213.85 125.147 214.128C125.367 214.407 125.517 214.752 125.598 215.162C125.686 215.573 125.689 216.053 125.609 216.603H121.66C121.711 217.124 121.883 217.516 122.177 217.78C122.47 218.037 122.928 218.165 123.552 218.165C124.006 218.165 124.384 218.11 124.685 218C124.993 217.883 125.253 217.762 125.466 217.637V218.693ZM123.156 214.304C122.782 214.304 122.466 214.418 122.21 214.645C121.953 214.873 121.784 215.21 121.704 215.657H124.388C124.402 215.195 124.3 214.854 124.08 214.634C123.86 214.414 123.552 214.304 123.156 214.304Z" fill="#18123D"/>
<path fill-rule="evenodd" clip-rule="evenodd" d="M269 184C282.799 184 294 195.2 294 209C294 222.8 282.799 234 269 234C255.201 234 244 222.8 244 209C244 195.2 255.201 184 269 184Z" fill="#5282FF"/>
<path fill-rule="evenodd" clip-rule="evenodd" d="M258.938 219.829C258.483 219.632 258.205 219.451 258.097 218.993C257.957 217.895 258.23 217.072 258.938 216.495C261.21 215.004 264.25 214.356 265.802 213.337C266.327 212.909 266.302 212.334 266.255 211.93C266.208 211.536 265.996 211.133 265.646 210.659C264.332 209.139 263.13 206.897 263.13 202.326C263.13 200.202 264.077 198.377 265.536 197.385C266.568 196.683 267.958 196.495 269 196.495C270.043 196.495 271.432 196.683 272.464 197.385C273.924 198.377 274.871 200.202 274.871 202.326C274.871 206.897 273.669 209.139 272.355 210.659C272.005 211.132 271.793 211.536 271.746 211.93C271.699 212.334 271.674 212.909 272.199 213.337C273.75 214.357 276.791 215.004 279.063 216.495C279.771 217.073 280.043 217.895 279.903 218.993C279.794 219.451 279.518 219.633 279.063 219.829C276.56 220.823 272.738 221.495 269 221.495C265.263 221.495 261.441 220.823 258.938 219.829Z" fill="white"/>
<path fill-rule="evenodd" clip-rule="evenodd" d="M424 338C437.799 338 449 349.2 449 363C449 376.8 437.799 388 424 388C410.201 388 399 376.8 399 363C399 349.2 410.201 338 424 338Z" fill="#5282FF"/>
<path fill-rule="evenodd" clip-rule="evenodd" d="M413.938 373.829C413.483 373.632 413.205 373.451 413.097 372.993C412.957 371.895 413.23 371.072 413.938 370.495C416.21 369.004 419.25 368.356 420.802 367.337C421.327 366.909 421.302 366.334 421.255 365.93C421.208 365.536 420.996 365.133 420.646 364.659C419.332 363.139 418.13 360.897 418.13 356.326C418.13 354.202 419.077 352.377 420.536 351.385C421.568 350.683 422.958 350.495 424 350.495C425.043 350.495 426.432 350.683 427.464 351.385C428.924 352.377 429.871 354.202 429.871 356.326C429.871 360.897 428.669 363.139 427.355 364.659C427.005 365.132 426.793 365.536 426.746 365.93C426.699 366.334 426.674 366.909 427.199 367.337C428.75 368.357 431.791 369.004 434.063 370.495C434.771 371.073 435.043 371.895 434.903 372.993C434.794 373.451 434.518 373.633 434.063 373.829C431.56 374.823 427.738 375.495 424 375.495C420.263 375.495 416.441 374.823 413.938 373.829Z" fill="white"/>
<path d="M523 166L528.774 156H517.227L523 166ZM522 66V157H524V66H522Z" fill="#4E496B"/>
<path d="M523 246L528.774 236H517.226L523 246ZM522 216V237H524V216H522Z" fill="#4E496B"/>
<path d="M199 194L189 188.226V199.774L199 194ZM190 193H166V195H190V193Z" fill="#4E496B"/>
<path fill-rule="evenodd" clip-rule="evenodd" d="M622 338C635.799 338 647 349.2 647 363C647 376.8 635.799 388 622 388C608.201 388 597 376.8 597 363C597 349.2 608.201 338 622 338Z" fill="#5282FF"/>
<path fill-rule="evenodd" clip-rule="evenodd" d="M611.938 373.829C611.483 373.632 611.205 373.451 611.097 372.993C610.957 371.895 611.23 371.072 611.938 370.495C614.21 369.004 617.25 368.356 618.802 367.337C619.327 366.909 619.302 366.334 619.255 365.93C619.208 365.536 618.996 365.133 618.646 364.659C617.332 363.139 616.13 360.897 616.13 356.326C616.13 354.202 617.077 352.377 618.536 351.385C619.568 350.683 620.958 350.495 622 350.495C623.043 350.495 624.432 350.683 625.464 351.385C626.924 352.377 627.871 354.202 627.871 356.326C627.871 360.897 626.669 363.139 625.355 364.659C625.005 365.132 624.793 365.536 624.746 365.93C624.699 366.334 624.674 366.909 625.199 367.337C626.75 368.357 629.791 369.004 632.063 370.495C632.771 371.073 633.043 371.895 632.903 372.993C632.794 373.451 632.518 373.633 632.063 373.829C629.56 374.823 625.738 375.495 622 375.495C618.263 375.495 614.441 374.823 611.938 373.829Z" fill="white"/>
<path fill-rule="evenodd" clip-rule="evenodd" d="M523 338C536.799 338 548 349.2 548 363C548 376.8 536.799 388 523 388C509.201 388 498 376.8 498 363C498 349.2 509.201 338 523 338Z" fill="#5282FF"/>
<path fill-rule="evenodd" clip-rule="evenodd" d="M512.938 373.829C512.483 373.632 512.205 373.451 512.097 372.993C511.957 371.895 512.23 371.072 512.938 370.495C515.21 369.004 518.25 368.356 519.802 367.337C520.327 366.909 520.302 366.334 520.255 365.93C520.208 365.536 519.996 365.133 519.646 364.659C518.332 363.139 517.13 360.897 517.13 356.326C517.13 354.202 518.077 352.377 519.536 351.385C520.568 350.683 521.958 350.495 523 350.495C524.043 350.495 525.432 350.683 526.464 351.385C527.924 352.377 528.871 354.202 528.871 356.326C528.871 360.897 527.669 363.139 526.355 364.659C526.005 365.132 525.793 365.536 525.746 365.93C525.699 366.334 525.674 366.909 526.199 367.337C527.75 368.357 530.791 369.004 533.063 370.495C533.771 371.073 534.043 371.895 533.903 372.993C533.794 373.451 533.518 373.633 533.063 373.829C530.56 374.823 526.738 375.495 523 375.495C519.263 375.495 515.441 374.823 512.938 373.829Z" fill="white"/>
<path fill-rule="evenodd" clip-rule="evenodd" d="M523 166C536.799 166 548 177.2 548 191C548 204.8 536.799 216 523 216C509.201 216 498 204.8 498 191C498 177.2 509.201 166 523 166Z" fill="#5282FF"/>
<path fill-rule="evenodd" clip-rule="evenodd" d="M509.302 184.838L511.641 182.499L509.213 180.07C509.107 179.964 509.048 179.821 509.048 179.671C509.047 179.522 509.106 179.379 509.212 179.274L511.226 177.259C511.446 177.04 511.802 177.039 512.023 177.26L514.451 179.688L516.839 177.301C517.303 176.837 517.754 176.991 517.845 177.644L518.96 185.94C519.049 186.592 518.588 187.053 517.936 186.964L509.643 185.843C508.99 185.752 508.836 185.304 509.302 184.838Z" fill="white"/>
<path fill-rule="evenodd" clip-rule="evenodd" d="M536.669 197.132L534.33 199.472L536.758 201.9C536.864 202.007 536.923 202.15 536.923 202.299C536.923 202.449 536.864 202.592 536.759 202.697L534.744 204.712C534.525 204.931 534.168 204.931 533.948 204.711L531.519 202.282L529.132 204.67C528.668 205.133 528.216 204.98 528.126 204.327L527.011 196.031C526.921 195.379 527.383 194.918 528.034 195.007L536.328 196.127C536.981 196.218 537.134 196.667 536.669 197.132Z" fill="white"/>
<path fill-rule="evenodd" clip-rule="evenodd" d="M533.838 187.669L531.499 185.33L529.07 187.758C528.964 187.864 528.821 187.923 528.671 187.923C528.522 187.923 528.379 187.864 528.274 187.759L526.259 185.744C526.04 185.525 526.039 185.168 526.26 184.948L528.688 182.519L526.301 180.132C525.837 179.668 525.991 179.216 526.644 179.126L534.94 178.011C535.592 177.921 536.053 178.383 535.964 179.034L534.843 187.328C534.752 187.981 534.304 188.134 533.838 187.669Z" fill="white"/>
<path fill-rule="evenodd" clip-rule="evenodd" d="M512.132 194.302L514.472 196.641L516.9 194.213C517.007 194.107 517.15 194.048 517.299 194.048C517.449 194.047 517.592 194.106 517.697 194.212L519.712 196.226C519.931 196.446 519.931 196.802 519.711 197.023L517.282 199.451L519.67 201.839C520.133 202.303 519.98 202.754 519.327 202.845L511.031 203.96C510.379 204.049 509.918 203.588 510.007 202.936L511.127 194.643C511.218 193.99 511.667 193.836 512.132 194.302Z" fill="white"/>
<path fill-rule="evenodd" clip-rule="evenodd" d="M523 246C536.799 246 548 257.2 548 271C548 284.8 536.799 296 523 296C509.201 296 498 284.8 498 271C498 257.2 509.201 246 523 246Z" fill="#5282FF"/>
<path fill-rule="evenodd" clip-rule="evenodd" d="M516.002 259.156V262.465H519.436C519.586 262.465 519.729 262.525 519.835 262.63C519.941 262.735 520 262.878 520 263.027V265.876C520 266.187 519.748 266.439 519.436 266.439H516.002V269.815C516.002 270.471 515.574 270.682 515.048 270.284L508.393 265.206C507.869 264.809 507.869 264.157 508.393 263.759L515.05 258.687C515.576 258.289 516.002 258.498 516.002 259.156Z" fill="white"/>
<path fill-rule="evenodd" clip-rule="evenodd" d="M529.513 282.329V279.021H526.079C525.929 279.02 525.785 278.961 525.68 278.855C525.574 278.75 525.515 278.607 525.515 278.458V275.609C525.515 275.299 525.767 275.046 526.079 275.046H529.513V271.67C529.513 271.014 529.941 270.803 530.467 271.201L537.122 276.279C537.646 276.677 537.646 277.329 537.122 277.726L530.465 282.799C529.939 283.196 529.513 282.987 529.513 282.329Z" fill="white"/>
<path fill-rule="evenodd" clip-rule="evenodd" d="M529.513 266.329V263.021H526.079C525.929 263.02 525.785 262.961 525.68 262.855C525.574 262.75 525.515 262.607 525.515 262.458V259.609C525.515 259.299 525.767 259.046 526.079 259.046H529.513V255.67C529.513 255.014 529.941 254.803 530.467 255.201L537.122 260.279C537.646 260.677 537.646 261.329 537.122 261.726L530.465 266.799C529.939 267.196 529.513 266.987 529.513 266.329Z" fill="white"/>
<path fill-rule="evenodd" clip-rule="evenodd" d="M516.002 275.156V278.465H519.436C519.586 278.465 519.729 278.525 519.835 278.63C519.941 278.735 520 278.878 520 279.027V281.876C520 282.187 519.748 282.439 519.436 282.439H516.002V285.815C516.002 286.471 515.574 286.682 515.048 286.284L508.393 281.206C507.869 280.809 507.869 280.157 508.393 279.759L515.05 274.687C515.576 274.289 516.002 274.498 516.002 275.156Z" fill="white"/>
<path fill-rule="evenodd" clip-rule="evenodd" d="M560 47.0896C560 37.616 553.368 29.7696 544.715 28.3944C541.29 19.9331 533.305 14 524 14C514.695 14 506.71 19.9333 503.285 28.3949C494.632 29.7702 488 37.6166 488 47.0901C488 57.5332 496.059 65.9991 506 65.9991V66.0002H542V65.9986C551.941 65.9986 560 57.5327 560 47.0896Z" fill="white"/>
<mask id="mask0_1_2" style="mask-type:luminance" maskUnits="userSpaceOnUse" x="488" y="14" width="72" height="53">
<path fill-rule="evenodd" clip-rule="evenodd" d="M560 47.0896C560 37.616 553.368 29.7696 544.715 28.3944C541.29 19.9331 533.305 14 524 14C514.695 14 506.71 19.9333 503.285 28.3949C494.632 29.7702 488 37.6166 488 47.0901C488 57.5332 496.059 65.9991 506 65.9991V66.0002H542V65.9986C551.941 65.9986 560 57.5327 560 47.0896Z" fill="#67B0F8"/>
</mask>
<g mask="url(#mask0_1_2)">
<path d="M544.715 28.3944L542.861 29.1448L543.285 30.1922L544.401 30.3696L544.715 28.3944ZM503.285 28.3949L503.599 30.3701L504.715 30.1927L505.139 29.1453L503.285 28.3949ZM506 65.9991H508V63.9991H506V65.9991ZM506 66.0002H504V68.0002H506V66.0002ZM542 66.0002V68.0002H544V66.0002H542ZM542 65.9986V63.9986H540V65.9986H542ZM544.401 30.3696C552.027 31.5816 558 38.5416 558 47.0896H562C562 36.6905 554.709 27.9577 545.029 26.4192L544.401 30.3696ZM524 16C532.417 16 539.714 21.3686 542.861 29.1448L546.569 27.6439C542.867 18.4976 534.193 12 524 12V16ZM505.139 29.1453C508.286 21.3688 515.583 16 524 16V12C513.807 12 505.133 18.4979 501.431 27.6445L505.139 29.1453ZM490 47.0901C490 38.5421 495.973 31.5821 503.599 30.3701L502.971 26.4197C493.291 27.9583 486 36.691 486 47.0901H490ZM506 63.9991C497.255 63.9991 490 56.5226 490 47.0901H486C486 58.5438 494.863 67.999 506 67.9991V63.9991ZM508 66.0002V65.9991H504V66.0002H508ZM542 64.0002H506V68.0002H542V64.0002ZM540 65.9986V66.0002H544V65.9986H540ZM558 47.0896C558 56.5222 550.745 63.9986 542 63.9986V67.9986C553.138 67.9986 562 58.5433 562 47.0896H558Z" fill="#67B0F8"/>
</g>
<path d="M506.805 42.113V50H505.771V42.113H506.805ZM511.213 45.039C510.773 45.039 510.414 45.1417 510.135 45.347C509.864 45.545 509.644 45.8017 509.475 46.117V50H508.507V44.291H509.42L509.453 45.314H509.475C509.629 44.984 509.871 44.7127 510.201 44.5C510.531 44.2873 510.949 44.181 511.455 44.181C512.02 44.181 512.467 44.3313 512.797 44.632C513.135 44.9253 513.303 45.38 513.303 45.996V50H512.335V46.095C512.335 45.699 512.236 45.424 512.038 45.27C511.84 45.116 511.565 45.039 511.213 45.039ZM517.628 49.879C517.511 49.945 517.361 50 517.177 50.044C516.994 50.088 516.8 50.11 516.594 50.11C516.316 50.11 516.077 50.0697 515.879 49.989C515.689 49.9083 515.531 49.802 515.406 49.67C515.282 49.5307 515.19 49.3767 515.131 49.208C515.08 49.032 515.054 48.8523 515.054 48.669V45.116H514.372V44.291H515.054V43.092H516.022V44.291H517.683V45.116H516.022V48.548C516.022 48.79 516.081 48.966 516.198 49.076C516.323 49.186 516.539 49.241 516.847 49.241C517.133 49.241 517.394 49.1603 517.628 48.999V49.879ZM523.406 49.516C523.325 49.5747 523.226 49.637 523.109 49.703C522.991 49.769 522.848 49.835 522.68 49.901C522.511 49.9597 522.32 50.0073 522.108 50.044C521.895 50.088 521.657 50.11 521.393 50.11C520.432 50.11 519.702 49.8497 519.204 49.329C518.705 48.8083 518.456 48.0787 518.456 47.14C518.456 46.678 518.522 46.2637 518.654 45.897C518.793 45.5303 518.984 45.2223 519.226 44.973C519.468 44.7163 519.754 44.522 520.084 44.39C520.414 44.2507 520.773 44.181 521.162 44.181C521.572 44.181 521.939 44.2507 522.262 44.39C522.584 44.5293 522.848 44.7347 523.054 45.006C523.266 45.2773 523.409 45.6147 523.483 46.018C523.563 46.414 523.563 46.876 523.483 47.404H519.457C519.493 48.02 519.677 48.482 520.007 48.79C520.337 49.0907 520.828 49.241 521.481 49.241C521.921 49.241 522.298 49.1787 522.614 49.054C522.929 48.9293 523.193 48.7937 523.406 48.647V49.516ZM521.14 45.039C520.722 45.039 520.362 45.1673 520.062 45.424C519.761 45.6807 519.57 46.0693 519.49 46.59H522.559C522.588 46.062 522.467 45.6733 522.196 45.424C521.924 45.1673 521.572 45.039 521.14 45.039ZM527.523 45.259C527.112 45.2957 526.738 45.402 526.401 45.578C526.071 45.7467 525.825 46.0107 525.664 46.37V50H524.696V44.291H525.543L525.642 45.534H525.664C525.825 45.1967 526.056 44.9033 526.357 44.654C526.665 44.3973 527.053 44.2397 527.523 44.181V45.259ZM531.409 45.039C530.969 45.039 530.609 45.1417 530.331 45.347C530.059 45.545 529.839 45.8017 529.671 46.117V50H528.703V44.291H529.616L529.649 45.314H529.671C529.825 44.984 530.067 44.7127 530.397 44.5C530.727 44.2873 531.145 44.181 531.651 44.181C532.215 44.181 532.663 44.3313 532.993 44.632C533.33 44.9253 533.499 45.38 533.499 45.996V50H532.531V46.095C532.531 45.699 532.432 45.424 532.234 45.27C532.036 45.116 531.761 45.039 531.409 45.039ZM539.573 49.516C539.492 49.5747 539.393 49.637 539.276 49.703C539.158 49.769 539.015 49.835 538.847 49.901C538.678 49.9597 538.487 50.0073 538.275 50.044C538.062 50.088 537.824 50.11 537.56 50.11C536.599 50.11 535.869 49.8497 535.371 49.329C534.872 48.8083 534.623 48.0787 534.623 47.14C534.623 46.678 534.689 46.2637 534.821 45.897C534.96 45.5303 535.151 45.2223 535.393 44.973C535.635 44.7163 535.921 44.522 536.251 44.39C536.581 44.2507 536.94 44.181 537.329 44.181C537.739 44.181 538.106 44.2507 538.429 44.39C538.751 44.5293 539.015 44.7347 539.221 45.006C539.433 45.2773 539.576 45.6147 539.65 46.018C539.73 46.414 539.73 46.876 539.65 47.404H535.624C535.66 48.02 535.844 48.482 536.174 48.79C536.504 49.0907 536.995 49.241 537.648 49.241C538.088 49.241 538.465 49.1787 538.781 49.054C539.096 48.9293 539.36 48.7937 539.573 48.647V49.516ZM537.307 45.039C536.889 45.039 536.529 45.1673 536.229 45.424C535.928 45.6807 535.737 46.0693 535.657 46.59H538.726C538.755 46.062 538.634 45.6733 538.363 45.424C538.091 45.1673 537.739 45.039 537.307 45.039ZM543.657 49.879C543.539 49.945 543.389 50 543.206 50.044C543.022 50.088 542.828 50.11 542.623 50.11C542.344 50.11 542.106 50.0697 541.908 49.989C541.717 49.9083 541.559 49.802 541.435 49.67C541.31 49.5307 541.218 49.3767 541.16 49.208C541.108 49.032 541.083 48.8523 541.083 48.669V45.116H540.401V44.291H541.083V43.092H542.051V44.291H543.712V45.116H542.051V48.548C542.051 48.79 542.109 48.966 542.227 49.076C542.351 49.186 542.568 49.241 542.876 49.241C543.162 49.241 543.422 49.1603 543.657 48.999V49.879Z" fill="#18123D"/>
<path d="M626.593 165.14C626.058 165.14 625.556 165.052 625.086 164.876C624.624 164.7 624.221 164.44 623.876 164.095C623.539 163.75 623.271 163.329 623.073 162.83C622.875 162.324 622.776 161.741 622.776 161.081C622.776 160.421 622.875 159.842 623.073 159.343C623.271 158.837 623.539 158.415 623.876 158.078C624.221 157.733 624.624 157.477 625.086 157.308C625.556 157.132 626.058 157.044 626.593 157.044C627.136 157.044 627.638 157.132 628.1 157.308C628.57 157.477 628.977 157.73 629.321 158.067C629.666 158.404 629.934 158.826 630.124 159.332C630.322 159.831 630.421 160.41 630.421 161.07C630.421 161.723 630.322 162.302 630.124 162.808C629.934 163.314 629.666 163.739 629.321 164.084C628.977 164.429 628.57 164.693 628.1 164.876C627.638 165.052 627.136 165.14 626.593 165.14ZM626.593 163.996C626.938 163.996 627.257 163.945 627.55 163.842C627.851 163.739 628.108 163.574 628.32 163.347C628.54 163.112 628.713 162.812 628.837 162.445C628.962 162.071 629.024 161.62 629.024 161.092C629.024 160.564 628.962 160.117 628.837 159.75C628.713 159.383 628.54 159.086 628.32 158.859C628.108 158.624 627.851 158.456 627.55 158.353C627.257 158.243 626.938 158.188 626.593 158.188C626.249 158.188 625.93 158.243 625.636 158.353C625.343 158.456 625.086 158.624 624.866 158.859C624.654 159.086 624.485 159.383 624.36 159.75C624.236 160.117 624.173 160.564 624.173 161.092C624.173 161.62 624.236 162.071 624.36 162.445C624.485 162.812 624.654 163.112 624.866 163.347C625.086 163.574 625.343 163.739 625.636 163.842C625.93 163.945 626.249 163.996 626.593 163.996Z" fill="#18123D"/>
<path d="M633.231 160.355V165.03H631.966V160.355H631.284V159.321H631.966V159.222C631.966 158.533 632.164 157.997 632.56 157.616C632.956 157.235 633.484 157.044 634.144 157.044C634.335 157.044 634.493 157.051 634.617 157.066C634.742 157.081 634.856 157.106 634.958 157.143V158.221C634.892 158.192 634.797 158.166 634.672 158.144C634.548 158.115 634.405 158.1 634.243 158.1C633.935 158.1 633.69 158.192 633.506 158.375C633.323 158.558 633.231 158.841 633.231 159.222V159.321H634.837V160.355H633.231Z" fill="#18123D"/>
<path d="M637.41 160.355V165.03H636.145V160.355H635.463V159.321H636.145V159.222C636.145 158.533 636.343 157.997 636.739 157.616C637.135 157.235 637.663 157.044 638.323 157.044C638.514 157.044 638.671 157.051 638.796 157.066C638.921 157.081 639.034 157.106 639.137 157.143V158.221C639.071 158.192 638.976 158.166 638.851 158.144C638.726 158.115 638.583 158.1 638.422 158.1C638.114 158.1 637.868 158.192 637.685 158.375C637.502 158.558 637.41 158.841 637.41 159.222V159.321H639.016V160.355H637.41Z" fill="#18123D"/>
<path d="M640.738 158.595C640.503 158.595 640.309 158.518 640.155 158.364C640.008 158.21 639.935 158.027 639.935 157.814C639.935 157.601 640.008 157.418 640.155 157.264C640.309 157.11 640.503 157.033 640.738 157.033C640.965 157.033 641.152 157.11 641.299 157.264C641.453 157.418 641.53 157.601 641.53 157.814C641.53 158.027 641.453 158.21 641.299 158.364C641.152 158.518 640.965 158.595 640.738 158.595ZM641.376 159.321V165.03H640.1V159.321H641.376Z" fill="#18123D"/>
<path d="M645.436 165.14C644.974 165.14 644.559 165.074 644.193 164.942C643.826 164.803 643.514 164.608 643.258 164.359C643.001 164.102 642.803 163.791 642.664 163.424C642.524 163.057 642.455 162.639 642.455 162.17C642.455 161.708 642.524 161.294 642.664 160.927C642.803 160.56 643.001 160.252 643.258 160.003C643.514 159.746 643.83 159.552 644.204 159.42C644.578 159.281 644.996 159.211 645.458 159.211C645.854 159.211 646.198 159.255 646.492 159.343C646.792 159.431 647.031 159.541 647.207 159.673V160.729C646.979 160.582 646.73 160.469 646.459 160.388C646.195 160.307 645.887 160.267 645.535 160.267C644.354 160.267 643.764 160.901 643.764 162.17C643.764 163.439 644.343 164.073 645.502 164.073C645.876 164.073 646.195 164.033 646.459 163.952C646.73 163.864 646.979 163.754 647.207 163.622V164.678C647.016 164.803 646.778 164.913 646.492 165.008C646.206 165.096 645.854 165.14 645.436 165.14Z" fill="#18123D"/>
<path d="M653.081 164.612C653 164.663 652.901 164.722 652.784 164.788C652.666 164.847 652.527 164.902 652.366 164.953C652.204 165.004 652.017 165.048 651.805 165.085C651.592 165.122 651.35 165.14 651.079 165.14C650.03 165.14 649.245 164.88 648.725 164.359C648.211 163.838 647.955 163.109 647.955 162.17C647.955 161.708 648.024 161.294 648.164 160.927C648.303 160.56 648.497 160.252 648.747 160.003C648.996 159.746 649.293 159.552 649.638 159.42C649.982 159.281 650.36 159.211 650.771 159.211C651.196 159.211 651.577 159.281 651.915 159.42C652.259 159.559 652.542 159.768 652.762 160.047C652.982 160.326 653.132 160.67 653.213 161.081C653.301 161.492 653.304 161.972 653.224 162.522H649.275C649.326 163.043 649.498 163.435 649.792 163.699C650.085 163.956 650.543 164.084 651.167 164.084C651.621 164.084 651.999 164.029 652.3 163.919C652.608 163.802 652.868 163.681 653.081 163.556V164.612ZM650.771 160.223C650.397 160.223 650.081 160.337 649.825 160.564C649.568 160.791 649.399 161.129 649.319 161.576H652.003C652.017 161.114 651.915 160.773 651.695 160.553C651.475 160.333 651.167 160.223 650.771 160.223Z" fill="#18123D"/>
<path d="M250.129 151.095H252.846C253.843 151.095 254.595 151.282 255.101 151.656C255.607 152.03 255.86 152.627 255.86 153.449C255.86 154.109 255.706 154.618 255.398 154.978C255.097 155.33 254.686 155.575 254.166 155.715L256.201 158.982H254.672L252.747 155.869H251.46V158.982H250.129V151.095ZM251.46 152.25V154.758H252.802C253.066 154.758 253.3 154.736 253.506 154.692C253.718 154.648 253.898 154.574 254.045 154.472C254.191 154.369 254.301 154.233 254.375 154.065C254.455 153.896 254.496 153.687 254.496 153.438C254.496 152.998 254.353 152.69 254.067 152.514C253.788 152.338 253.381 152.25 252.846 152.25H251.46Z" fill="#18123D"/>
<path d="M261.86 158.564C261.78 158.615 261.681 158.674 261.563 158.74C261.446 158.798 261.307 158.853 261.145 158.905C260.984 158.956 260.797 159 260.584 159.037C260.372 159.073 260.13 159.092 259.858 159.092C258.81 159.092 258.025 158.831 257.504 158.311C256.991 157.79 256.734 157.06 256.734 156.122C256.734 155.66 256.804 155.245 256.943 154.879C257.083 154.512 257.277 154.204 257.526 153.955C257.776 153.698 258.073 153.504 258.417 153.372C258.762 153.232 259.14 153.163 259.55 153.163C259.976 153.163 260.357 153.232 260.694 153.372C261.039 153.511 261.321 153.72 261.541 153.999C261.761 154.277 261.912 154.622 261.992 155.033C262.08 155.443 262.084 155.924 262.003 156.474H258.054C258.106 156.994 258.278 157.387 258.571 157.651C258.865 157.907 259.323 158.036 259.946 158.036C260.401 158.036 260.779 157.981 261.079 157.871C261.387 157.753 261.648 157.632 261.86 157.508V158.564ZM259.55 154.175C259.176 154.175 258.861 154.288 258.604 154.516C258.348 154.743 258.179 155.08 258.098 155.528H260.782C260.797 155.066 260.694 154.725 260.474 154.505C260.254 154.285 259.946 154.175 259.55 154.175Z" fill="#18123D"/>
<path d="M264.41 158.982H263.134V153.273H264.3L264.388 154.208H264.41C264.564 153.907 264.788 153.658 265.081 153.46C265.382 153.262 265.763 153.163 266.225 153.163C266.643 153.163 266.999 153.262 267.292 153.46C267.586 153.658 267.784 153.958 267.886 154.362C268.048 153.995 268.29 153.705 268.612 153.493C268.935 153.273 269.327 153.163 269.789 153.163C270.046 153.163 270.281 153.199 270.493 153.273C270.713 153.346 270.9 153.46 271.054 153.614C271.208 153.76 271.329 153.947 271.417 154.175C271.505 154.402 271.549 154.67 271.549 154.978V158.982H270.262V155.154C270.262 154.824 270.182 154.585 270.02 154.439C269.859 154.292 269.639 154.219 269.36 154.219C269.023 154.219 268.744 154.31 268.524 154.494C268.312 154.677 268.132 154.897 267.985 155.154V158.982H266.698V155.066C266.698 154.736 266.618 154.512 266.456 154.395C266.295 154.277 266.079 154.219 265.807 154.219C265.455 154.219 265.173 154.299 264.96 154.461C264.748 154.615 264.564 154.816 264.41 155.066V158.982Z" fill="#18123D"/>
<path d="M275.395 159.092C274.992 159.092 274.618 159.026 274.273 158.894C273.929 158.762 273.628 158.571 273.371 158.322C273.122 158.065 272.924 157.753 272.777 157.387C272.638 157.02 272.568 156.598 272.568 156.122C272.568 155.645 272.638 155.223 272.777 154.857C272.924 154.49 273.122 154.182 273.371 153.933C273.628 153.676 273.929 153.485 274.273 153.361C274.618 153.229 274.992 153.163 275.395 153.163C275.799 153.163 276.173 153.229 276.517 153.361C276.862 153.485 277.163 153.676 277.419 153.933C277.676 154.182 277.878 154.49 278.024 154.857C278.171 155.223 278.244 155.645 278.244 156.122C278.244 156.598 278.171 157.02 278.024 157.387C277.878 157.753 277.676 158.065 277.419 158.322C277.163 158.571 276.862 158.762 276.517 158.894C276.173 159.026 275.799 159.092 275.395 159.092ZM275.395 158.025C275.835 158.025 276.198 157.871 276.484 157.563C276.778 157.255 276.924 156.774 276.924 156.122C276.924 155.476 276.778 155 276.484 154.692C276.198 154.376 275.835 154.219 275.395 154.219C274.963 154.219 274.6 154.376 274.306 154.692C274.02 155 273.877 155.476 273.877 156.122C273.877 156.774 274.02 157.255 274.306 157.563C274.6 157.871 274.963 158.025 275.395 158.025Z" fill="#18123D"/>
<path d="M282.381 158.806C282.249 158.886 282.084 158.952 281.886 159.004C281.688 159.062 281.461 159.092 281.204 159.092C280.896 159.092 280.636 159.051 280.423 158.971C280.218 158.883 280.049 158.765 279.917 158.619C279.785 158.472 279.69 158.303 279.631 158.113C279.572 157.915 279.543 157.706 279.543 157.486V154.307H278.861V153.273H279.543V152.074H280.819V153.273H282.458V154.307H280.819V157.343C280.819 157.577 280.874 157.75 280.984 157.86C281.101 157.97 281.292 158.025 281.556 158.025C281.732 158.025 281.886 157.999 282.018 157.948C282.15 157.896 282.271 157.827 282.381 157.739V158.806Z" fill="#18123D"/>
<path d="M288.286 158.564C288.206 158.615 288.107 158.674 287.989 158.74C287.872 158.798 287.733 158.853 287.571 158.905C287.41 158.956 287.223 159 287.01 159.037C286.798 159.073 286.556 159.092 286.284 159.092C285.236 159.092 284.451 158.831 283.93 158.311C283.417 157.79 283.16 157.06 283.16 156.122C283.16 155.66 283.23 155.245 283.369 154.879C283.509 154.512 283.703 154.204 283.952 153.955C284.202 153.698 284.499 153.504 284.843 153.372C285.188 153.232 285.566 153.163 285.976 153.163C286.402 153.163 286.783 153.232 287.12 153.372C287.465 153.511 287.747 153.72 287.967 153.999C288.187 154.277 288.338 154.622 288.418 155.033C288.506 155.443 288.51 155.924 288.429 156.474H284.48C284.532 156.994 284.704 157.387 284.997 157.651C285.291 157.907 285.749 158.036 286.372 158.036C286.827 158.036 287.205 157.981 287.505 157.871C287.813 157.753 288.074 157.632 288.286 157.508V158.564ZM285.976 154.175C285.602 154.175 285.287 154.288 285.03 154.516C284.774 154.743 284.605 155.08 284.524 155.528H287.208C287.223 155.066 287.12 154.725 286.9 154.505C286.68 154.285 286.372 154.175 285.976 154.175Z" fill="#18123D"/>
<path d="M262.478 171.047C262.324 171.34 262.093 171.589 261.785 171.795C261.485 171.993 261.089 172.092 260.597 172.092C260.062 172.092 259.626 171.938 259.288 171.63C258.951 171.322 258.782 170.852 258.782 170.222V166.273H260.069V170.189C260.069 170.519 260.161 170.742 260.344 170.86C260.528 170.97 260.751 171.025 261.015 171.025C261.375 171.025 261.668 170.951 261.895 170.805C262.123 170.651 262.317 170.445 262.478 170.189V166.273H263.743V171.982H262.577L262.5 171.047H262.478Z" fill="#18123D"/>
<path d="M267.067 172.092C266.781 172.092 266.521 172.066 266.286 172.015C266.059 171.971 265.857 171.916 265.681 171.85C265.505 171.784 265.355 171.714 265.23 171.641C265.113 171.567 265.017 171.501 264.944 171.443V170.431C265.017 170.497 265.116 170.57 265.241 170.651C265.373 170.724 265.523 170.797 265.692 170.871C265.868 170.937 266.066 170.992 266.286 171.036C266.506 171.08 266.752 171.102 267.023 171.102C267.426 171.102 267.72 171.043 267.903 170.926C268.094 170.801 268.189 170.621 268.189 170.387C268.189 170.233 268.152 170.112 268.079 170.024C268.006 169.936 267.907 169.866 267.782 169.815C267.657 169.763 267.511 169.727 267.342 169.705C267.181 169.675 267.012 169.642 266.836 169.606C266.609 169.562 266.381 169.507 266.154 169.441C265.934 169.367 265.732 169.268 265.549 169.144C265.373 169.019 265.226 168.858 265.109 168.66C264.999 168.462 264.944 168.209 264.944 167.901C264.944 167.358 265.146 166.933 265.549 166.625C265.952 166.317 266.528 166.163 267.276 166.163C267.701 166.163 268.068 166.207 268.376 166.295C268.691 166.383 268.922 166.474 269.069 166.57V167.582C268.893 167.464 268.666 167.362 268.387 167.274C268.108 167.186 267.756 167.142 267.331 167.142C266.913 167.142 266.609 167.197 266.418 167.307C266.227 167.417 266.132 167.589 266.132 167.824C266.132 167.956 266.165 168.062 266.231 168.143C266.304 168.216 266.396 168.275 266.506 168.319C266.623 168.363 266.755 168.399 266.902 168.429C267.056 168.451 267.214 168.476 267.375 168.506C267.602 168.55 267.833 168.605 268.068 168.671C268.31 168.729 268.526 168.825 268.717 168.957C268.915 169.081 269.076 169.25 269.201 169.463C269.326 169.675 269.388 169.95 269.388 170.288C269.388 170.632 269.322 170.922 269.19 171.157C269.058 171.384 268.882 171.567 268.662 171.707C268.442 171.846 268.193 171.945 267.914 172.004C267.635 172.062 267.353 172.092 267.067 172.092Z" fill="#18123D"/>
<path d="M275.224 171.564C275.143 171.615 275.044 171.674 274.927 171.74C274.809 171.798 274.67 171.853 274.509 171.905C274.347 171.956 274.16 172 273.948 172.037C273.735 172.073 273.493 172.092 273.222 172.092C272.173 172.092 271.388 171.831 270.868 171.311C270.354 170.79 270.098 170.06 270.098 169.122C270.098 168.66 270.167 168.245 270.307 167.879C270.446 167.512 270.64 167.204 270.89 166.955C271.139 166.698 271.436 166.504 271.781 166.372C272.125 166.232 272.503 166.163 272.914 166.163C273.339 166.163 273.72 166.232 274.058 166.372C274.402 166.511 274.685 166.72 274.905 166.999C275.125 167.277 275.275 167.622 275.356 168.033C275.444 168.443 275.447 168.924 275.367 169.474H271.418C271.469 169.994 271.641 170.387 271.935 170.651C272.228 170.907 272.686 171.036 273.31 171.036C273.764 171.036 274.142 170.981 274.443 170.871C274.751 170.753 275.011 170.632 275.224 170.508V171.564ZM272.914 167.175C272.54 167.175 272.224 167.288 271.968 167.516C271.711 167.743 271.542 168.08 271.462 168.528H274.146C274.16 168.066 274.058 167.725 273.838 167.505C273.618 167.285 273.31 167.175 272.914 167.175Z" fill="#18123D"/>
<path d="M279.677 167.505C279.259 167.497 278.881 167.563 278.544 167.703C278.206 167.842 277.95 168.062 277.774 168.363V171.982H276.498V166.273H277.664L277.752 167.461H277.774C277.957 167.109 278.206 166.815 278.522 166.581C278.844 166.346 279.229 166.207 279.677 166.163V167.505Z" fill="#18123D"/>
<defs>
<filter id="filter0_d_1_2" x="16" y="129" width="160" height="133" filterUnits="userSpaceOnUse" color-interpolation-filters="sRGB">
<feFlood flood-opacity="0" result="BackgroundImageFix"/>
<feColorMatrix in="SourceAlpha" type="matrix" values="0 0 0 0 0 0 0 0 0 0 0 0 0 0 0 0 0 0 127 0" result="hardAlpha"/>
<feOffset/>
<feGaussianBlur stdDeviation="5"/>
<feComposite in2="hardAlpha" operator="out"/>
<feColorMatrix type="matrix" values="0 0 0 0 0.592157 0 0 0 0 0.74902 0 0 0 0 0.905882 0 0 0 0.4 0"/>
<feBlend mode="normal" in2="BackgroundImageFix" result="effect1_dropShadow_1_2"/>
<feBlend mode="normal" in="SourceGraphic" in2="effect1_dropShadow_1_2" result="shape"/>
</filter>
<filter id="filter1_d_1_2" x="189" y="129" width="160" height="133" filterUnits="userSpaceOnUse" color-interpolation-filters="sRGB">
<feFlood flood-opacity="0" result="BackgroundImageFix"/>
<feColorMatrix in="SourceAlpha" type="matrix" values="0 0 0 0 0 0 0 0 0 0 0 0 0 0 0 0 0 0 127 0" result="hardAlpha"/>
<feOffset/>
<feGaussianBlur stdDeviation="5"/>
<feComposite in2="hardAlpha" operator="out"/>
<feColorMatrix type="matrix" values="0 0 0 0 0.592157 0 0 0 0 0.74902 0 0 0 0 0.905882 0 0 0 0.4 0"/>
<feBlend mode="normal" in2="BackgroundImageFix" result="effect1_dropShadow_1_2"/>
<feBlend mode="normal" in="SourceGraphic" in2="effect1_dropShadow_1_2" result="shape"/>
</filter>
<filter id="filter2_d_1_2" x="362" y="129" width="322" height="296" filterUnits="userSpaceOnUse" color-interpolation-filters="sRGB">
<feFlood flood-opacity="0" result="BackgroundImageFix"/>
<feColorMatrix in="SourceAlpha" type="matrix" values="0 0 0 0 0 0 0 0 0 0 0 0 0 0 0 0 0 0 127 0" result="hardAlpha"/>
<feOffset/>
<feGaussianBlur stdDeviation="5"/>
<feComposite in2="hardAlpha" operator="out"/>
<feColorMatrix type="matrix" values="0 0 0 0 0.592157 0 0 0 0 0.74902 0 0 0 0 0.905882 0 0 0 0.4 0"/>
<feBlend mode="normal" in2="BackgroundImageFix" result="effect1_dropShadow_1_2"/>
<feBlend mode="normal" in="SourceGraphic" in2="effect1_dropShadow_1_2" result="shape"/>
</filter>
</defs>
</svg>
