<svg xmlns="http://www.w3.org/2000/svg" width="33.7" height="24" viewBox="0 0 2.176 1.55"><path d="M.618 1.545c-.29-.028-.49-.18-.58-.44A.66.665 0 010 .866.76.76 0 01.003.774L.007.761.79.76c.739-.002.784-.002.811-.01a.348.351 0 00.046-.018l.017-.009-.013-.028a.36.36 0 01-.002-.273.513.513 0 01.06-.102c.002-.001.015.004.027.013.087.06.142.135.161.221L1.9.566l.066-.002c.05-.001.077 0 .106.007a.216.216 0 01.097.04l.027.017-.025.049a.294.294 0 01-.28.166h-.036L1.818.92a1.06 1.06 0 01-.482.497 1.282 1.282 0 01-.49.13 1.51 1.51 0 01-.228 0zM.169.605V.5h.225v.207H.17zm.268 0V.5h.225v.207H.437zm.268 0V.5H.93v.207H.705zm.268 0V.5h.224v.207H.973zm.267 0V.5h.23l-.001.102-.002.103h-.113L1.24.709zM.437.354V.25h.225v.207H.437zm.268 0V.25H.93v.207H.705zm.268 0V.25h.224v.207H.973zm0-.249V0h.224v.212H.973z"/></svg>