<svg xmlns="http://www.w3.org/2000/svg" width="20" height="17" fill="none"><path fill="#3B6080" fill-rule="evenodd" d="m8.05 4.076.548.549h7.027c1.035 0 1.875.84 1.875 1.875v6.25c0 1.036-.84 1.875-1.875 1.875H4.375A1.875 1.875 0 0 1 2.5 12.75V4.625c0-1.036.84-1.875 1.875-1.875h1.572c.497 0 .974.198 1.326.55l.776.776Zm-7.425.549a3.75 3.75 0 0 1 3.75-3.75h1.572a3.75 3.75 0 0 1 2.651 1.098l.777.777h6.25a3.75 3.75 0 0 1 3.75 3.75v6.25a3.75 3.75 0 0 1-3.75 3.75H4.375a3.75 3.75 0 0 1-3.75-3.75V4.625Zm10.038 1.837a.937.937 0 1 0-1.326 1.326l.9.9H7.5a.937.937 0 1 0 0 1.874h2.737l-.9.9a.937.937 0 1 0 1.326 1.326l2.5-2.5a.938.938 0 0 0 0-1.326l-2.5-2.5Z" clip-rule="evenodd"/></svg>