<svg xmlns="http://www.w3.org/2000/svg" width="700" height="582" fill="none" viewBox="0 0 700 582">
    <g filter="url(#filter0_d_1170_331)">
        <rect width="473" height="518" x="201" y="32" fill="#fff" rx="15"/>
    </g>
    <rect width="192" height="391" x="236.5" y="123.5" fill="#fff" stroke="#5282FF" rx="4.5"/>
    <path fill="#18123D" d="M302.726 161.16c-.886 0-1.686-.133-2.4-.4a5.189 5.189 0 0 1-1.84-1.152 5.33 5.33 0 0 1-1.168-1.856c-.267-.736-.4-1.563-.4-2.48 0-.928.128-1.755.384-2.48a5.097 5.097 0 0 1 1.136-1.84 4.92 4.92 0 0 1 1.824-1.168c.714-.267 1.53-.4 2.448-.4.789 0 1.461.08 2.016.24.565.149 1.013.325 1.344.528v1.728c-.416-.267-.918-.469-1.504-.608a7.13 7.13 0 0 0-1.792-.224c-1.291 0-2.251.352-2.88 1.056-.619.693-.928 1.749-.928 3.168 0 2.816 1.301 4.224 3.904 4.224.608 0 1.178-.075 1.712-.224a4.654 4.654 0 0 0 1.488-.704v1.712c-.299.224-.731.427-1.296.608-.566.181-1.248.272-2.048.272Zm8.833 0a4.523 4.523 0 0 1-1.632-.288 3.808 3.808 0 0 1-1.312-.832 4.111 4.111 0 0 1-.864-1.36c-.203-.533-.304-1.147-.304-1.84 0-.693.101-1.307.304-1.84a3.94 3.94 0 0 1 .864-1.344c.373-.373.81-.651 1.312-.832a4.523 4.523 0 0 1 1.632-.288c.586 0 1.13.096 1.632.288.501.181.938.459 1.312.832.373.363.666.811.88 1.344.213.533.32 1.147.32 1.84 0 .693-.107 1.307-.32 1.84a4.008 4.008 0 0 1-.88 1.36c-.374.363-.811.64-1.312.832a4.53 4.53 0 0 1-1.632.288Zm0-1.552c.64 0 1.168-.224 1.584-.672.426-.448.64-1.147.64-2.096 0-.939-.214-1.632-.64-2.08-.416-.459-.944-.688-1.584-.688-.63 0-1.158.229-1.584.688-.416.448-.624 1.141-.624 2.08 0 .949.208 1.648.624 2.096.426.448.954.672 1.584.672Zm11.73-.992c0 .448-.096.832-.288 1.152-.181.32-.437.587-.768.8a3.5 3.5 0 0 1-1.136.448 6.476 6.476 0 0 1-1.392.144c-.704 0-1.28-.069-1.728-.208-.448-.149-.794-.299-1.04-.448v-1.52c.31.203.694.368 1.152.496.47.117.976.176 1.52.176.566 0 1.014-.085 1.344-.256.331-.171.496-.459.496-.864 0-.384-.149-.656-.448-.816-.298-.171-.762-.256-1.392-.256h-1.168v-1.408h1.2c.502 0 .886-.085 1.152-.256.278-.171.416-.427.416-.768 0-.373-.154-.629-.464-.768-.298-.149-.688-.224-1.168-.224-.522 0-.992.064-1.408.192a4.141 4.141 0 0 0-1.104.48v-1.52c.267-.171.63-.32 1.088-.448.459-.139 1.024-.208 1.696-.208 1.024 0 1.803.187 2.336.56.534.373.8.917.8 1.632 0 .544-.149.971-.448 1.28-.298.299-.736.517-1.312.656 1.376.213 2.064.864 2.064 1.952Zm1.617.88c.246-.213.438-.507.576-.88.15-.373.267-.837.352-1.392.086-.565.15-1.221.192-1.968.043-.747.08-1.6.112-2.56h6.08v6.8h1.248v3.872h-1.616l-.144-2.368h-5.728l-.144 2.368h-1.632v-3.872h.704Zm5.456 0V154.2h-2.624c-.053 1.312-.144 2.4-.272 3.264-.117.853-.314 1.531-.592 2.032h3.488Zm9.209.048a2.832 2.832 0 0 1-.352.576 2.491 2.491 0 0 1-.528.528 2.652 2.652 0 0 1-.736.368 3.191 3.191 0 0 1-1.008.144c-.363 0-.699-.053-1.008-.16a2.24 2.24 0 0 1-.816-.448 2.302 2.302 0 0 1-.544-.752 2.739 2.739 0 0 1-.192-1.056c0-.907.336-1.584 1.008-2.032.672-.459 1.621-.688 2.848-.688h1.264v-.512c0-.544-.139-.917-.416-1.12-.278-.213-.736-.32-1.376-.32-.544 0-1.056.08-1.536.24-.47.149-.886.325-1.248.528v-1.552c.33-.181.768-.352 1.312-.512a6.272 6.272 0 0 1 1.776-.24c1.066 0 1.888.224 2.464.672.586.437.88 1.141.88 2.112v4.672c.01.117.016.24.016.368.01.128.021.251.032.368.01.107.021.197.032.272h-1.712a7.266 7.266 0 0 1-.096-.624 20.643 20.643 0 0 1-.048-.72l-.016-.112Zm-2.112.176c.394 0 .72-.08.976-.24.266-.171.48-.363.64-.576a2.26 2.26 0 0 0 .336-.656c.064-.213.096-.363.096-.448v-.56h-1.152c-.736 0-1.275.117-1.616.352-.342.224-.512.544-.512.96 0 .363.101.651.304.864.213.203.522.304.928.304Zm9.65-8.016a3.5 3.5 0 0 1-1.168-.176 2.454 2.454 0 0 1-.816-.48 2.075 2.075 0 0 1-.48-.736 2.597 2.597 0 0 1-.16-.912h1.632c0 .373.085.645.256.816.181.16.426.24.736.24.309 0 .549-.08.72-.24.17-.171.256-.443.256-.816h1.648c0 .32-.054.624-.16.912a2.002 2.002 0 0 1-.496.736 2.268 2.268 0 0 1-.816.48 3.452 3.452 0 0 1-1.152.176Zm-1.904 6.784 3.84-5.792h1.824V161h-1.84v-5.76l-3.808 5.76h-1.856v-8.304h1.84v5.792Zm11.466-4.288v6.8h-1.856v-6.8h-2.512v-1.504h6.928v1.504h-2.56Zm10.716 6.192a8.82 8.82 0 0 1-.432.256 4.33 4.33 0 0 1-.608.24 6.091 6.091 0 0 1-1.872.272c-1.525 0-2.667-.379-3.424-1.136-.747-.757-1.12-1.819-1.12-3.184 0-.672.101-1.275.304-1.808.203-.533.485-.981.848-1.344a3.564 3.564 0 0 1 1.296-.848 4.35 4.35 0 0 1 1.648-.304c.619 0 1.173.101 1.664.304a2.95 2.95 0 0 1 1.232.912c.32.405.539.907.656 1.504.128.597.133 1.296.016 2.096h-5.744c.075.757.325 1.328.752 1.712.427.373 1.093.56 2 .56.661 0 1.211-.08 1.648-.24a7.703 7.703 0 0 0 1.136-.528v1.536Zm-3.36-6.384c-.544 0-1.003.165-1.376.496-.373.331-.619.821-.736 1.472h3.904c.021-.672-.128-1.168-.448-1.488-.32-.32-.768-.48-1.344-.48Zm-73.6 16.688h7.056V179h-1.856v-6.8h-3.344v6.8h-1.856v-8.304Zm9.861 5.36c.117-.544.192-1.248.224-2.112.043-.875.064-1.957.064-3.248h5.968V179h-1.856v-6.8h-2.416a52.039 52.039 0 0 1-.128 2.912c-.064.843-.197 1.557-.4 2.144-.192.576-.475 1.019-.848 1.328-.363.309-.853.464-1.472.464a2 2 0 0 1-.256-.016 1.87 1.87 0 0 1-.24-.016v-1.728c.107.021.187.032.24.032a.853.853 0 0 0 .688-.304c.181-.213.325-.533.432-.96Zm13.142 1.488a2.788 2.788 0 0 1-.352.576 2.491 2.491 0 0 1-.528.528 2.652 2.652 0 0 1-.736.368 3.191 3.191 0 0 1-1.008.144c-.363 0-.699-.053-1.008-.16a2.256 2.256 0 0 1-.816-.448 2.317 2.317 0 0 1-.544-.752 2.739 2.739 0 0 1-.192-1.056c0-.907.336-1.584 1.008-2.032.672-.459 1.621-.688 2.848-.688h1.264v-.512c0-.544-.139-.917-.416-1.12-.277-.213-.736-.32-1.376-.32-.544 0-1.056.08-1.536.24a6.729 6.729 0 0 0-1.248.528v-1.552c.331-.181.768-.352 1.312-.512a6.272 6.272 0 0 1 1.776-.24c1.067 0 1.888.224 2.464.672.587.437.88 1.141.88 2.112v4.672c.011.117.016.24.016.368l.032.368c.011.107.021.197.032.272h-1.712a7.266 7.266 0 0 1-.096-.624 27.094 27.094 0 0 1-.048-.72l-.016-.112Zm-2.112.176c.395 0 .72-.08.976-.24.267-.171.48-.363.64-.576a2.26 2.26 0 0 0 .336-.656c.064-.213.096-.363.096-.448v-.56h-1.152c-.736 0-1.275.117-1.616.352a1.082 1.082 0 0 0-.512.96c0 .363.101.651.304.864.213.203.523.304.928.304Zm9.509-5.52v6.8h-1.856v-6.8h-2.512v-1.504h6.928v1.504h-2.56Zm10.716 6.192a8.82 8.82 0 0 1-.432.256 4.33 4.33 0 0 1-.608.24 6.091 6.091 0 0 1-1.872.272c-1.525 0-2.667-.379-3.424-1.136-.747-.757-1.12-1.819-1.12-3.184 0-.672.101-1.275.304-1.808.203-.533.485-.981.848-1.344a3.564 3.564 0 0 1 1.296-.848 4.35 4.35 0 0 1 1.648-.304c.619 0 1.173.101 1.664.304a2.95 2.95 0 0 1 1.232.912c.32.405.539.907.656 1.504.128.597.133 1.296.016 2.096h-5.744c.075.757.325 1.328.752 1.712.427.373 1.093.56 2 .56.661 0 1.211-.08 1.648-.24a7.703 7.703 0 0 0 1.136-.528v1.536Zm-3.36-6.384c-.544 0-1.003.165-1.376.496-.373.331-.619.821-.736 1.472h3.904c.021-.672-.128-1.168-.448-1.488-.32-.32-.768-.48-1.344-.48Zm11.31-1.312v3.424h.688l2.384-3.424h1.904l-2.832 3.984 2.992 4.32h-2.176l-2.32-3.376h-.64V179h-1.856v-3.376h-.64L334.629 179h-2.112l2.992-4.24-2.848-4.064h1.968l2.336 3.424h.672v-3.424h1.856Zm11.732 4.8h-3.504V179h-1.856v-8.304h1.856v3.296h3.504v-3.296h1.856V179h-1.856v-3.504Zm10.529.64c0 .48-.091.901-.272 1.264a2.38 2.38 0 0 1-.72.896c-.31.235-.678.411-1.104.528a5.316 5.316 0 0 1-1.408.176h-3.088v-8.304h1.856v2.688h1.296c1.088 0 1.93.224 2.528.672.608.448.912 1.141.912 2.08Zm2.8 2.864h-1.856v-8.304h1.856V179Zm-7.536-4.144v2.688h1.088c.512 0 .928-.101 1.248-.304.33-.213.496-.56.496-1.04s-.144-.821-.432-1.024c-.288-.213-.704-.32-1.248-.32h-1.152Zm13.356-5.152c-.448 0-.837-.059-1.168-.176a2.454 2.454 0 0 1-.816-.48 2.103 2.103 0 0 1-.48-.736 2.62 2.62 0 0 1-.16-.912h1.632c0 .373.086.645.256.816.182.16.427.24.736.24.31 0 .55-.08.72-.24.171-.171.256-.443.256-.816h1.648c0 .32-.053.624-.16.912a1.99 1.99 0 0 1-.496.736 2.25 2.25 0 0 1-.816.48c-.33.117-.714.176-1.152.176Zm-1.904 6.784 3.84-5.792h1.824V179h-1.84v-5.76l-3.808 5.76h-1.856v-8.304h1.84v5.792Zm-60.313 20.056a2.832 2.832 0 0 1-.352.576 2.491 2.491 0 0 1-.528.528 2.652 2.652 0 0 1-.736.368 3.191 3.191 0 0 1-1.008.144c-.363 0-.699-.053-1.008-.16a2.24 2.24 0 0 1-.816-.448 2.302 2.302 0 0 1-.544-.752 2.739 2.739 0 0 1-.192-1.056c0-.907.336-1.584 1.008-2.032.672-.459 1.621-.688 2.848-.688h1.264v-.512c0-.544-.139-.917-.416-1.12-.278-.213-.736-.32-1.376-.32-.544 0-1.056.08-1.536.24-.47.149-.886.325-1.248.528v-1.552c.33-.181.768-.352 1.312-.512a6.272 6.272 0 0 1 1.776-.24c1.066 0 1.888.224 2.464.672.586.437.88 1.141.88 2.112v4.672c.01.117.016.24.016.368.01.128.021.251.032.368.01.107.021.197.032.272h-1.712a7.266 7.266 0 0 1-.096-.624 20.643 20.643 0 0 1-.048-.72l-.016-.112Zm-2.112.176c.394 0 .72-.08.976-.24.266-.171.48-.363.64-.576a2.26 2.26 0 0 0 .336-.656c.064-.213.096-.363.096-.448v-.56h-1.152c-.736 0-1.275.117-1.616.352-.342.224-.512.544-.512.96 0 .363.101.651.304.864.213.203.522.304.928.304Zm8.482-2.096h-.72V198h-1.856v-8.304h1.856v3.424h.784l2.64-3.424h1.952l-3.136 4 3.264 4.304h-2.192l-2.592-3.376Zm8.593 0h-.72V198h-1.856v-8.304h1.856v3.424h.784l2.64-3.424h1.952l-3.136 4 3.264 4.304h-2.192l-2.592-3.376Zm10.646 1.92a2.788 2.788 0 0 1-.352.576 2.491 2.491 0 0 1-.528.528 2.652 2.652 0 0 1-.736.368 3.191 3.191 0 0 1-1.008.144c-.363 0-.699-.053-1.008-.16a2.256 2.256 0 0 1-.816-.448 2.317 2.317 0 0 1-.544-.752 2.739 2.739 0 0 1-.192-1.056c0-.907.336-1.584 1.008-2.032.672-.459 1.621-.688 2.848-.688h1.264v-.512c0-.544-.139-.917-.416-1.12-.277-.213-.736-.32-1.376-.32-.544 0-1.056.08-1.536.24a6.729 6.729 0 0 0-1.248.528v-1.552c.331-.181.768-.352 1.312-.512a6.272 6.272 0 0 1 1.776-.24c1.067 0 1.888.224 2.464.672.587.437.88 1.141.88 2.112v4.672c.011.117.016.24.016.368l.032.368c.011.107.021.197.032.272h-1.712a7.266 7.266 0 0 1-.096-.624 27.094 27.094 0 0 1-.048-.72l-.016-.112Zm-2.112.176c.395 0 .72-.08.976-.24.267-.171.48-.363.64-.576a2.26 2.26 0 0 0 .336-.656c.064-.213.096-.363.096-.448v-.56h-1.152c-.736 0-1.275.117-1.616.352a1.082 1.082 0 0 0-.512.96c0 .363.101.651.304.864.213.203.523.304.928.304Zm10.386 1.184a9.16 9.16 0 0 1-.592 1.328 3.55 3.55 0 0 1-.72.96 2.484 2.484 0 0 1-.944.592c-.352.139-.768.208-1.248.208-.523 0-.971-.085-1.344-.256v-1.664c.149.117.336.208.56.272.224.064.469.096.736.096.363 0 .661-.08.896-.24.235-.149.448-.379.64-.688l-3.344-8.816h2l2.32 6.448 2.304-6.448h1.728l-2.992 8.208Zm9.614-3.408h-3.504V198h-1.856v-8.304h1.856v3.296h3.504v-3.296h1.856V198h-1.856v-3.504Zm7.649-3.296v6.8h-1.856v-6.8h-2.512v-1.504h6.928v1.504h-2.56Z"/>
    <rect width="139" height="69" x="26.5" y="180.5" fill="#fff" stroke="#5282FF" rx="4.5"/>
    <path fill="#18123D" d="M45.804 194.457h1.82l3.341 9.321h-1.3l-.962-2.665h-4.121l-.949 2.665h-1.144l3.315-9.321Zm2.509 5.551-1.664-4.641-1.664 4.641h3.328Zm3.853-2.977h2.522c.815 0 1.43.143 1.846.429.416.277.624.715.624 1.313 0 .398-.104.719-.312.962-.2.234-.485.403-.858.507.962.156 1.443.689 1.443 1.599 0 .346-.07.645-.208.897a1.73 1.73 0 0 1-.572.598 2.558 2.558 0 0 1-.884.338 5.528 5.528 0 0 1-1.105.104h-2.496v-6.747Zm1.144.975v1.833h1.274c.433 0 .78-.078 1.04-.234.269-.156.403-.382.403-.676 0-.356-.117-.598-.351-.728-.234-.13-.568-.195-1.001-.195H53.31Zm0 2.743v2.054h1.339c.243 0 .46-.013.65-.039.2-.035.368-.091.507-.169a.843.843 0 0 0 .338-.312.922.922 0 0 0 .117-.481c0-.39-.134-.663-.403-.819-.269-.156-.672-.234-1.209-.234H53.31Zm8.428-2.743v5.772h-1.144v-5.772h-2.119v-.975h5.421v.975h-2.158Zm6.057 5.902a3.5 3.5 0 0 1-1.287-.234 3.008 3.008 0 0 1-1.04-.676 3.305 3.305 0 0 1-.676-1.105c-.164-.434-.247-.932-.247-1.495 0-.555.083-1.049.247-1.482a3.13 3.13 0 0 1 .676-1.105c.295-.295.642-.52 1.04-.676a3.5 3.5 0 0 1 1.287-.234c.468 0 .902.078 1.3.234a2.86 2.86 0 0 1 1.027.676c.295.294.525.663.69 1.105.173.433.26.927.26 1.482 0 .563-.087 1.061-.26 1.495a3.196 3.196 0 0 1-.69 1.105c-.286.294-.628.52-1.027.676a3.536 3.536 0 0 1-1.3.234Zm0-1.027c.304 0 .581-.048.832-.143a1.9 1.9 0 0 0 .676-.455 2.13 2.13 0 0 0 .442-.78c.104-.312.156-.681.156-1.105 0-.425-.052-.793-.156-1.105a2.006 2.006 0 0 0-.442-.767 1.695 1.695 0 0 0-.676-.455 2.155 2.155 0 0 0-.832-.156c-.303 0-.58.052-.832.156a1.715 1.715 0 0 0-.663.455 2.107 2.107 0 0 0-.429.767c-.104.312-.156.68-.156 1.105 0 .424.052.793.156 1.105.104.312.247.572.43.78.19.199.411.351.662.455.252.095.529.143.832.143Zm8.064 1.027c-.52 0-.97-.122-1.352-.364a2.654 2.654 0 0 1-.897-1.001v3.536h-1.144v-9.048h1l.118 1.313c.225-.442.528-.793.91-1.053.381-.26.853-.39 1.417-.39.39 0 .763.073 1.118.221.364.138.68.355.949.65.277.286.494.65.65 1.092.165.433.247.944.247 1.534 0 .598-.082 1.118-.247 1.56a3.268 3.268 0 0 1-.663 1.092 2.789 2.789 0 0 1-.962.65 3.2 3.2 0 0 1-1.144.208Zm-.17-1.027c.599 0 1.08-.204 1.444-.611.373-.416.559-1.04.559-1.872 0-.815-.186-1.43-.56-1.846-.363-.425-.844-.637-1.442-.637a2.22 2.22 0 0 0-.832.156c-.252.104-.473.26-.663.468-.182.199-.33.455-.442.767a3.457 3.457 0 0 0-.156 1.092c0 .416.052.78.156 1.092.112.312.26.572.442.78.19.208.412.364.663.468.26.095.537.143.832.143Zm5.716-.663 3.6-5.187h1.158v6.747h-1.144v-5.174l-3.588 5.174h-1.17v-6.747h1.144v5.187Zm11.41-.403c0 .381-.079.706-.235.975-.147.26-.35.476-.61.65-.26.164-.564.281-.91.351a4.728 4.728 0 0 1-1.067.117 5.01 5.01 0 0 1-1.313-.156c-.372-.104-.667-.23-.884-.377v-1.027c.269.164.59.294.962.39a4.89 4.89 0 0 0 1.21.143c.493 0 .905-.078 1.234-.234.338-.165.507-.442.507-.832 0-.382-.143-.65-.429-.806-.277-.156-.706-.234-1.287-.234h-.897v-.923h.936c.477 0 .84-.087 1.092-.26.252-.174.377-.425.377-.754a.68.68 0 0 0-.13-.429.797.797 0 0 0-.325-.286 1.38 1.38 0 0 0-.494-.156 3.098 3.098 0 0 0-.585-.052 4.18 4.18 0 0 0-1.118.143 3.515 3.515 0 0 0-.923.403v-1.027a3.26 3.26 0 0 1 .871-.377 4.605 4.605 0 0 1 1.261-.156c.824 0 1.443.156 1.86.468.424.312.636.762.636 1.352 0 .442-.121.788-.364 1.04-.234.251-.567.424-1 .52.537.069.94.238 1.208.507.278.268.416.611.416 1.027Zm2.821.403 3.601-5.187h1.157v6.747H99.25v-5.174l-3.588 5.174h-1.17v-6.747h1.144v5.187Zm10.019 1.69c-.52 0-.971-.122-1.352-.364a2.65 2.65 0 0 1-.897-1.001v3.536h-1.144v-9.048h1.001l.117 1.313c.225-.442.528-.793.91-1.053.381-.26.853-.39 1.417-.39.39 0 .762.073 1.118.221.364.138.68.355.949.65.277.286.494.65.65 1.092.164.433.247.944.247 1.534 0 .598-.083 1.118-.247 1.56a3.278 3.278 0 0 1-.663 1.092 2.796 2.796 0 0 1-.962.65 3.203 3.203 0 0 1-1.144.208Zm-.169-1.027c.598 0 1.079-.204 1.443-.611.372-.416.559-1.04.559-1.872 0-.815-.187-1.43-.559-1.846-.364-.425-.845-.637-1.443-.637-.295 0-.572.052-.832.156-.252.104-.473.26-.663.468-.182.199-.33.455-.442.767a3.457 3.457 0 0 0-.156 1.092c0 .416.052.78.156 1.092.112.312.26.572.442.78.19.208.411.364.663.468.26.095.537.143.832.143Zm7.822.819a7.822 7.822 0 0 1-.494 1.066 3.538 3.538 0 0 1-.585.793 2.1 2.1 0 0 1-.728.481 2.381 2.381 0 0 1-.923.169c-.173 0-.334-.013-.481-.039a1.47 1.47 0 0 1-.403-.104v-1.105c.095.069.217.121.364.156.147.043.308.065.481.065.321 0 .585-.078.793-.234.208-.148.407-.386.598-.715l-2.743-7.202h1.261l2.145 5.694 2.132-5.694h1.105l-2.522 6.669Zm6.632-7.566c-.347 0-.65-.044-.91-.13a2.013 2.013 0 0 1-.637-.377 1.725 1.725 0 0 1-.377-.559 2.06 2.06 0 0 1-.117-.702h1.144c0 .329.078.567.234.715.165.147.386.221.663.221s.494-.074.65-.221c.156-.148.234-.386.234-.715h1.144c0 .494-.169.914-.507 1.261-.329.338-.836.507-1.521.507Zm-1.833 6.084 3.601-5.187h1.157v6.747h-1.144v-5.174l-3.588 5.174h-1.17v-6.747h1.144v5.187Zm9.342-4.212v5.772h-1.144v-5.772h-2.119v-.975h5.421v.975h-2.158Zm8.657 5.2a3.605 3.605 0 0 1-.351.221 3.982 3.982 0 0 1-.507.234 4.358 4.358 0 0 1-.676.169 4.183 4.183 0 0 1-.845.078c-1.135 0-1.997-.308-2.587-.923-.589-.616-.884-1.478-.884-2.587 0-.546.078-1.036.234-1.469.165-.434.39-.798.676-1.092a2.804 2.804 0 0 1 1.014-.689c.39-.165.815-.247 1.274-.247.486 0 .919.082 1.3.247.382.164.694.407.936.728.252.32.421.719.507 1.196.096.468.096 1.014 0 1.638h-4.758c.044.728.26 1.274.65 1.638.39.355.971.533 1.742.533.52 0 .967-.074 1.339-.221.373-.148.685-.308.936-.481v1.027Zm-2.678-5.291c-.494 0-.918.151-1.274.455-.355.303-.58.762-.676 1.378h3.627c.035-.624-.108-1.084-.429-1.378-.32-.304-.736-.455-1.248-.455Zm7.216 5.993c-.52 0-.992-.078-1.417-.234a3.118 3.118 0 0 1-1.066-.689 3.056 3.056 0 0 1-.676-1.105 4.365 4.365 0 0 1-.234-1.482c0-.546.078-1.036.234-1.469.165-.434.395-.798.689-1.092a2.85 2.85 0 0 1 1.079-.689 3.963 3.963 0 0 1 1.443-.247c.416 0 .798.047 1.144.143.347.086.633.216.858.39v1.027a3.009 3.009 0 0 0-.936-.403 3.835 3.835 0 0 0-1.053-.143c-.788 0-1.369.203-1.742.611-.364.407-.546 1.031-.546 1.872 0 .84.178 1.464.533 1.872.356.407.919.611 1.69.611.408 0 .78-.048 1.118-.143.347-.104.659-.234.936-.39v1.027a3.984 3.984 0 0 1-2.054.533Zm8.606-2.379c0 .39-.069.728-.208 1.014-.138.286-.333.52-.585.702-.251.182-.55.316-.897.403-.346.086-.723.13-1.131.13h-2.236v-6.747h1.144v2.353h1.17c.858 0 1.53.169 2.015.507.486.338.728.884.728 1.638Zm-3.913-1.17v2.444h1.092c.494 0 .893-.091 1.196-.273.312-.191.468-.503.468-.936 0-.442-.138-.759-.416-.949-.277-.191-.667-.286-1.17-.286h-1.17Zm-79.468 19.549c-.52 0-.992-.078-1.417-.234a3.115 3.115 0 0 1-1.066-.689 3.046 3.046 0 0 1-.676-1.105 4.365 4.365 0 0 1-.234-1.482c0-.546.078-1.036.234-1.469.165-.434.394-.798.689-1.092a2.842 2.842 0 0 1 1.079-.689 3.96 3.96 0 0 1 1.443-.247c.416 0 .797.047 1.144.143.347.086.633.216.858.39v1.027a3.015 3.015 0 0 0-.936-.403 3.835 3.835 0 0 0-1.053-.143c-.789 0-1.37.203-1.742.611-.364.407-.546 1.031-.546 1.872 0 .84.178 1.464.533 1.872.355.407.919.611 1.69.611.407 0 .78-.048 1.118-.143.347-.104.659-.234.936-.39v1.027a3.984 3.984 0 0 1-2.054.533Zm6.444-6.877h5.408v6.747h-1.144v-5.772h-3.12v5.772h-1.144v-6.747Zm10.044 6.877a3.5 3.5 0 0 1-1.287-.234 3.006 3.006 0 0 1-1.04-.676 3.303 3.303 0 0 1-.676-1.105c-.165-.434-.247-.932-.247-1.495 0-.555.082-1.049.247-1.482a3.13 3.13 0 0 1 .676-1.105c.294-.295.641-.52 1.04-.676a3.5 3.5 0 0 1 1.287-.234c.468 0 .901.078 1.3.234.398.156.74.381 1.027.676.294.294.524.663.689 1.105.173.433.26.927.26 1.482 0 .563-.087 1.061-.26 1.495a3.199 3.199 0 0 1-.69 1.105 2.87 2.87 0 0 1-1.026.676 3.537 3.537 0 0 1-1.3.234Zm0-1.027c.303 0 .58-.048.832-.143.26-.104.485-.256.676-.455.19-.208.338-.468.442-.78.104-.312.156-.681.156-1.105 0-.425-.052-.793-.156-1.105a2.008 2.008 0 0 0-.442-.767 1.696 1.696 0 0 0-.676-.455 2.156 2.156 0 0 0-.832-.156c-.303 0-.58.052-.832.156a1.713 1.713 0 0 0-.663.455 2.107 2.107 0 0 0-.43.767c-.103.312-.155.68-.155 1.105 0 .424.052.793.156 1.105.104.312.247.572.429.78.19.199.412.351.663.455.251.095.528.143.832.143Zm11.105-4.524-2.288 4.667h-.91l-2.158-4.693v5.447h-1.079v-6.747h1.703l2.067 4.524 2.21-4.524h1.586v6.747h-1.13v-5.421Zm5.767 5.551a3.5 3.5 0 0 1-1.287-.234 3.008 3.008 0 0 1-1.04-.676 3.305 3.305 0 0 1-.676-1.105c-.165-.434-.247-.932-.247-1.495 0-.555.082-1.049.247-1.482a3.13 3.13 0 0 1 .676-1.105c.295-.295.641-.52 1.04-.676a3.5 3.5 0 0 1 1.287-.234c.468 0 .901.078 1.3.234a2.86 2.86 0 0 1 1.027.676c.295.294.524.663.689 1.105.173.433.26.927.26 1.482 0 .563-.087 1.061-.26 1.495a3.197 3.197 0 0 1-.689 1.105c-.286.294-.628.52-1.027.676a3.538 3.538 0 0 1-1.3.234Zm0-1.027c.303 0 .58-.048.832-.143.26-.104.485-.256.676-.455a2.13 2.13 0 0 0 .442-.78c.104-.312.156-.681.156-1.105 0-.425-.052-.793-.156-1.105a2.003 2.003 0 0 0-.442-.767 1.698 1.698 0 0 0-.676-.455 2.156 2.156 0 0 0-.832-.156c-.303 0-.58.052-.832.156a1.715 1.715 0 0 0-.663.455 2.107 2.107 0 0 0-.43.767c-.103.312-.155.68-.155 1.105 0 .424.052.793.156 1.105.104.312.247.572.429.78.19.199.412.351.663.455.251.095.529.143.832.143Zm13.094-.078h1.014v2.899h-.975l-.143-1.924h-8.32v-6.747h1.144v5.772h2.496v-5.772h1.144v5.772h2.496v-5.772h1.144v5.772Zm7.233-1.274c0 .39-.069.728-.208 1.014-.139.286-.334.52-.585.702-.251.182-.55.316-.897.403-.347.086-.724.13-1.131.13h-2.236v-6.747h1.144v2.353h1.17c.858 0 1.53.169 2.015.507.485.338.728.884.728 1.638Zm-3.913-1.17v2.444h1.092c.494 0 .893-.091 1.196-.273.312-.191.468-.503.468-.936 0-.442-.139-.759-.416-.949-.277-.191-.667-.286-1.17-.286h-1.17Zm13.885.039c0 .563-.083 1.061-.247 1.495a3.144 3.144 0 0 1-.663 1.105c-.278.294-.607.52-.988.676a3.27 3.27 0 0 1-1.248.234c-.416 0-.806-.07-1.17-.208a2.904 2.904 0 0 1-.962-.598 3.232 3.232 0 0 1-.663-.988 3.888 3.888 0 0 1-.312-1.326h-1.118v2.99h-1.144v-6.747h1.144v2.782h1.144c.052-.468.164-.88.338-1.235a2.854 2.854 0 0 1 1.599-1.482 3.3 3.3 0 0 1 1.144-.195c.45 0 .866.078 1.248.234.381.156.71.381.988.676.286.294.507.663.663 1.105.164.433.247.927.247 1.482Zm-3.146 2.483c.286 0 .546-.048.78-.143.242-.104.45-.256.624-.455.173-.208.307-.468.403-.78.104-.312.156-.681.156-1.105 0-.425-.052-.793-.156-1.105a2.09 2.09 0 0 0-.403-.767 1.538 1.538 0 0 0-.624-.455 1.9 1.9 0 0 0-.78-.156c-.278 0-.538.052-.78.156a1.546 1.546 0 0 0-.611.455 2.214 2.214 0 0 0-.416.767c-.096.312-.143.68-.143 1.105 0 .424.047.793.143 1.105.104.312.242.572.416.78.173.199.377.351.611.455.242.095.502.143.78.143Zm-58.713 9.358c0-.494.082-.915.247-1.261a2.27 2.27 0 0 1 .69-.871 3 3 0 0 1 1.078-.494 5.68 5.68 0 0 1 1.378-.156h2.9v9.321h-1.236v-3.731h-1.69l-2.574 3.731h-1.495l2.821-3.952c-.685-.148-1.209-.429-1.573-.845-.364-.425-.546-1.006-.546-1.742Zm5.057 1.703v-3.367h-1.664c-.312 0-.598.03-.858.091a1.817 1.817 0 0 0-.663.273c-.182.13-.325.303-.429.52-.104.208-.156.468-.156.78 0 .589.17 1.022.507 1.3.338.268.828.403 1.47.403h1.793Zm7.663 1.846h-3.263v2.99h-1.144v-6.747h1.144v2.782h3.263v-2.782h1.144v6.747H80.39v-2.99Zm2.656 2.015c.243-.148.433-.377.572-.689.139-.312.247-.707.325-1.183.078-.477.13-1.04.156-1.69.035-.65.065-1.387.091-2.21h4.641v5.772h1.014v2.899h-1l-.144-1.924h-5.018l-.117 1.924h-1.027v-2.899h.507Zm4.641 0v-4.797h-2.47c-.043 1.274-.125 2.296-.247 3.068-.112.762-.312 1.339-.598 1.729h3.315Zm8.595.403a3.706 3.706 0 0 1-.858.455 4.39 4.39 0 0 1-.676.169 4.186 4.186 0 0 1-.845.078c-1.135 0-1.998-.308-2.587-.923-.59-.616-.884-1.478-.884-2.587 0-.546.078-1.036.234-1.469.165-.434.39-.798.676-1.092a2.804 2.804 0 0 1 1.014-.689c.39-.165.815-.247 1.274-.247.485 0 .919.082 1.3.247.381.164.693.407.936.728.251.32.42.719.507 1.196.095.468.095 1.014 0 1.638h-4.758c.043.728.26 1.274.65 1.638.39.355.97.533 1.742.533.52 0 .966-.074 1.34-.221.372-.148.684-.308.935-.481v1.027Zm-2.678-5.291c-.494 0-.919.151-1.274.455-.355.303-.58.762-.676 1.378h3.627c.035-.624-.108-1.084-.429-1.378-.32-.304-.737-.455-1.248-.455Zm6.046 2.99h-.598v2.873h-1.144v-6.747h1.144v2.899h.65l2.366-2.899h1.3l-2.769 3.328 2.821 3.419h-1.391l-2.379-2.873Zm7.632 3.003c-.52 0-.992-.078-1.417-.234a3.118 3.118 0 0 1-1.066-.689 3.042 3.042 0 0 1-.676-1.105 4.365 4.365 0 0 1-.234-1.482c0-.546.078-1.036.234-1.469.165-.434.394-.798.689-1.092a2.842 2.842 0 0 1 1.079-.689 3.963 3.963 0 0 1 1.443-.247c.416 0 .797.047 1.144.143.347.086.633.216.858.39v1.027a3.009 3.009 0 0 0-.936-.403 3.835 3.835 0 0 0-1.053-.143c-.789 0-1.369.203-1.742.611-.364.407-.546 1.031-.546 1.872 0 .84.178 1.464.533 1.872.355.407.919.611 1.69.611.407 0 .78-.048 1.118-.143.347-.104.659-.234.936-.39v1.027a3.984 3.984 0 0 1-2.054.533Zm7.823-9.451v9.321h-1.222v-9.321h1.222Zm2.167 0h3.133c.624 0 1.205.073 1.742.221.538.147 1.006.39 1.404.728.399.338.711.784.936 1.339.226.554.338 1.239.338 2.054 0 .823-.117 1.547-.351 2.171-.225.615-.541 1.131-.949 1.547a3.91 3.91 0 0 1-1.443.949 5.14 5.14 0 0 1-1.82.312h-2.99v-9.321Zm1.222 1.118v7.098h1.768c.477 0 .915-.074 1.313-.221a2.666 2.666 0 0 0 1.027-.676c.286-.312.507-.707.663-1.183.156-.477.234-1.045.234-1.703 0-.65-.078-1.188-.234-1.612-.156-.434-.372-.776-.65-1.027a2.153 2.153 0 0 0-.975-.52 4.678 4.678 0 0 0-1.235-.156h-1.911Z"/>
    <rect width="139" height="142" x="499.5" y="372.5" fill="#fff" stroke="#5282FF" rx="4.5"/>
    <path fill="#18123D" d="M522.232 423.784h1.196v3.315h-1.131l-.13-2.21h-6.695l-.143 2.21h-1.105v-3.315h.637c.295-.269.529-.628.702-1.079.182-.459.321-1.023.416-1.69.096-.667.165-1.452.208-2.353.044-.901.078-1.933.104-3.094h5.941v8.216Zm-1.235 0v-7.098h-3.562a63.743 63.743 0 0 1-.117 2.626 18.541 18.541 0 0 1-.208 1.989 8.514 8.514 0 0 1-.338 1.469c-.13.399-.294.737-.494 1.014h4.719Zm4.403-.988c.122-.442.2-1.04.234-1.794.035-.754.052-1.707.052-2.86h4.537v6.747h-1.157v-5.772h-2.301a39.299 39.299 0 0 1-.091 2.47c-.043.719-.143 1.326-.299 1.82-.147.494-.368.871-.663 1.131-.286.251-.671.377-1.157.377h-.104a.588.588 0 0 1-.117-.013v-1.131c.044.009.1.013.169.013.442 0 .741-.329.897-.988Zm6.679-2.47c0-.381.069-.706.208-.975.138-.277.333-.503.585-.676.251-.182.55-.316.897-.403.346-.087.723-.13 1.131-.13h2.171v6.747h-1.144v-2.444h-1.235l-1.729 2.444h-1.365l1.95-2.73c-.468-.139-.832-.351-1.092-.637-.252-.286-.377-.685-.377-1.196Zm3.848 1.144v-2.353H534.9c-.486 0-.884.091-1.196.273-.312.182-.468.477-.468.884 0 .425.138.732.416.923.277.182.671.273 1.183.273h1.092Zm5.876-3.328h5.408v6.747h-1.144v-5.772h-3.12v5.772h-1.144v-6.747Zm10.668 6.877c-.52 0-.971-.121-1.352-.364a2.642 2.642 0 0 1-.897-1.001v3.536h-1.144v-9.048h1.001l.117 1.313c.225-.442.528-.793.91-1.053.381-.26.853-.39 1.417-.39.39 0 .762.074 1.118.221.364.139.68.355.949.65.277.286.494.65.65 1.092.164.433.247.945.247 1.534 0 .598-.083 1.118-.247 1.56a3.278 3.278 0 0 1-.663 1.092 2.782 2.782 0 0 1-.962.65 3.182 3.182 0 0 1-1.144.208Zm-.169-1.027c.598 0 1.079-.204 1.443-.611.372-.416.559-1.04.559-1.872 0-.815-.187-1.43-.559-1.846-.364-.425-.845-.637-1.443-.637-.295 0-.572.052-.832.156-.252.104-.473.26-.663.468-.182.199-.33.455-.442.767a3.457 3.457 0 0 0-.156 1.092c0 .416.052.78.156 1.092.112.312.26.572.442.78.19.208.411.364.663.468.26.095.537.143.832.143Zm7.34 1.027c-.46 0-.889-.078-1.287-.234a2.984 2.984 0 0 1-1.04-.676 3.283 3.283 0 0 1-.676-1.105c-.165-.433-.247-.932-.247-1.495 0-.555.082-1.049.247-1.482.164-.442.39-.81.676-1.105.294-.295.641-.52 1.04-.676a3.495 3.495 0 0 1 1.287-.234c.468 0 .901.078 1.3.234.398.156.741.381 1.027.676.294.295.524.663.689 1.105.173.433.26.927.26 1.482 0 .563-.087 1.062-.26 1.495a3.203 3.203 0 0 1-.689 1.105c-.286.295-.629.52-1.027.676a3.538 3.538 0 0 1-1.3.234Zm0-1.027c.303 0 .58-.048.832-.143.26-.104.485-.256.676-.455.19-.208.338-.468.442-.78.104-.312.156-.68.156-1.105 0-.425-.052-.793-.156-1.105a2.015 2.015 0 0 0-.442-.767 1.698 1.698 0 0 0-.676-.455 2.16 2.16 0 0 0-.832-.156c-.304 0-.581.052-.832.156a1.704 1.704 0 0 0-.663.455 2.107 2.107 0 0 0-.429.767c-.104.312-.156.68-.156 1.105 0 .425.052.793.156 1.105.104.312.247.572.429.78.19.199.411.351.663.455.251.095.528.143.832.143Zm4.243-.078c.242-.147.433-.377.572-.689.138-.312.247-.706.325-1.183.078-.477.13-1.04.156-1.69.034-.65.065-1.387.09-2.21h4.642v5.772h1.014v2.899h-1.001l-.143-1.924h-5.018l-.117 1.924h-1.027v-2.899h.507Zm4.641 0v-4.797h-2.47c-.044 1.274-.126 2.297-.247 3.068-.113.763-.312 1.339-.598 1.729h3.315Zm5.994 1.105c-.459 0-.888-.078-1.287-.234a3.002 3.002 0 0 1-1.04-.676 3.3 3.3 0 0 1-.676-1.105c-.164-.433-.247-.932-.247-1.495 0-.555.083-1.049.247-1.482.165-.442.39-.81.676-1.105.295-.295.642-.52 1.04-.676a3.503 3.503 0 0 1 1.287-.234c.468 0 .902.078 1.3.234a2.86 2.86 0 0 1 1.027.676c.295.295.525.663.689 1.105.174.433.26.927.26 1.482 0 .563-.086 1.062-.26 1.495a3.173 3.173 0 0 1-.689 1.105 2.86 2.86 0 0 1-1.027.676 3.534 3.534 0 0 1-1.3.234Zm0-1.027c.304 0 .581-.048.832-.143a1.9 1.9 0 0 0 .676-.455 2.13 2.13 0 0 0 .442-.78c.104-.312.156-.68.156-1.105 0-.425-.052-.793-.156-1.105a2.003 2.003 0 0 0-.442-.767 1.691 1.691 0 0 0-.676-.455 2.152 2.152 0 0 0-.832-.156c-.303 0-.58.052-.832.156a1.719 1.719 0 0 0-.663.455 2.107 2.107 0 0 0-.429.767c-.104.312-.156.68-.156 1.105 0 .425.052.793.156 1.105.104.312.247.572.429.78.191.199.412.351.663.455.252.095.529.143.832.143Zm5-1.196c.122-.442.2-1.04.234-1.794.035-.754.052-1.707.052-2.86h4.537v6.747h-1.157v-5.772h-2.301a39.299 39.299 0 0 1-.091 2.47c-.043.719-.143 1.326-.299 1.82-.147.494-.368.871-.663 1.131-.286.251-.671.377-1.157.377h-.104a.588.588 0 0 1-.117-.013v-1.131c.044.009.1.013.169.013.442 0 .741-.329.897-.988Zm11.268-4.654v2.899h.611l2.145-2.899h1.261l-2.509 3.302 2.6 3.445h-1.391l-2.158-2.873h-.559v2.873h-1.144v-2.873h-.572l-2.184 2.873h-1.352l2.6-3.406-2.509-3.341h1.313l2.106 2.899h.598v-2.899h1.144Zm10.428 6.175a3.605 3.605 0 0 1-.351.221 4.116 4.116 0 0 1-.507.234 4.275 4.275 0 0 1-.676.169 4.183 4.183 0 0 1-.845.078c-1.135 0-1.998-.308-2.587-.923-.589-.615-.884-1.478-.884-2.587 0-.546.078-1.036.234-1.469.165-.433.39-.797.676-1.092a2.816 2.816 0 0 1 1.014-.689c.39-.165.815-.247 1.274-.247.485 0 .919.082 1.3.247.381.165.693.407.936.728.251.321.42.719.507 1.196.095.468.095 1.014 0 1.638h-4.758c.043.728.26 1.274.65 1.638.39.355.971.533 1.742.533.52 0 .966-.074 1.339-.221.373-.147.685-.308.936-.481v1.027Zm-2.678-5.291c-.494 0-.919.152-1.274.455-.355.303-.581.763-.676 1.378h3.627c.035-.624-.108-1.083-.429-1.378-.321-.303-.737-.455-1.248-.455Zm8.711 2.873h-3.263v2.99h-1.144v-6.747h1.144v2.782h3.263v-2.782h1.144v6.747h-1.144v-2.99Zm4.164 1.43 3.601-5.187h1.157v6.747h-1.144v-5.174l-3.588 5.174h-1.17v-6.747h1.144v5.187Zm6.626-3.003c0-.381.069-.706.208-.975.138-.277.333-.503.585-.676.251-.182.55-.316.897-.403.346-.087.723-.13 1.131-.13h2.171v6.747h-1.144v-2.444h-1.235l-1.729 2.444h-1.365l1.95-2.73c-.468-.139-.832-.351-1.092-.637-.252-.286-.377-.685-.377-1.196Zm3.848 1.144v-2.353h-1.027c-.486 0-.884.091-1.196.273-.312.182-.468.477-.468.884 0 .425.138.732.416.923.277.182.671.273 1.183.273h1.092Zm-70.819 18.549c-.52 0-.971-.121-1.352-.364a2.642 2.642 0 0 1-.897-1.001v3.536h-1.144v-9.048h1.001l.117 1.313c.225-.442.528-.793.91-1.053.381-.26.853-.39 1.417-.39.39 0 .762.074 1.118.221.364.139.68.355.949.65.277.286.494.65.65 1.092.164.433.247.945.247 1.534 0 .598-.083 1.118-.247 1.56a3.278 3.278 0 0 1-.663 1.092 2.782 2.782 0 0 1-.962.65 3.182 3.182 0 0 1-1.144.208Zm-.169-1.027c.598 0 1.079-.204 1.443-.611.372-.416.559-1.04.559-1.872 0-.815-.187-1.43-.559-1.846-.364-.425-.845-.637-1.443-.637-.295 0-.572.052-.832.156-.252.104-.473.26-.663.468-.182.199-.33.455-.442.767a3.457 3.457 0 0 0-.156 1.092c0 .416.052.78.156 1.092.112.312.26.572.442.78.19.208.411.364.663.468.26.095.537.143.832.143Zm8.459-.39a3.85 3.85 0 0 1-.299.494 2.253 2.253 0 0 1-1.105.793c-.242.087-.528.13-.858.13-.606 0-1.096-.169-1.469-.507-.372-.347-.559-.841-.559-1.482 0-.737.256-1.278.767-1.625.52-.347 1.257-.52 2.21-.52h1.261v-.559c0-.468-.121-.802-.364-1.001-.242-.199-.658-.299-1.248-.299-.416 0-.81.069-1.183.208-.372.13-.706.282-1.001.455v-1.027c.243-.147.568-.29.975-.429a4.07 4.07 0 0 1 1.365-.221c.85 0 1.495.178 1.937.533.442.347.663.888.663 1.625v3.9c.009.095.013.195.013.299l.026.299c.009.087.018.16.026.221h-1.04a5.896 5.896 0 0 1-.078-.507 7.937 7.937 0 0 1-.026-.585l-.013-.195Zm-2.015.39c.356 0 .659-.074.91-.221.252-.147.455-.316.611-.507.156-.199.269-.39.338-.572.07-.191.104-.325.104-.403v-.494h-1.144c-.684 0-1.183.1-1.495.299-.303.191-.455.481-.455.871 0 .303.091.55.273.741.182.191.468.286.858.286Zm10.99-2.483c0 .563-.087 1.062-.26 1.495a3.188 3.188 0 0 1-.689 1.105 2.86 2.86 0 0 1-1.027.676 3.538 3.538 0 0 1-1.3.234c-.477 0-.914-.078-1.313-.234a2.722 2.722 0 0 1-1.027-.741c-.286-.329-.511-.745-.676-1.248-.156-.503-.234-1.096-.234-1.781 0-.563.017-1.101.052-1.612.035-.511.113-.984.234-1.417.121-.442.295-.836.52-1.183a2.868 2.868 0 0 1 1.612-1.17 5.2 5.2 0 0 1 .702-.156 6.88 6.88 0 0 1 .728-.065l.715-.026c.347-.026.637-.069.871-.13.234-.061.442-.143.624-.247v1.04a2.009 2.009 0 0 1-.611.26 8.957 8.957 0 0 1-.767.117c-.494.043-.949.078-1.365.104a2.67 2.67 0 0 0-1.118.286 2.024 2.024 0 0 0-.923 1.092c-.173.477-.282 1.044-.325 1.703.451-1.04 1.3-1.56 2.548-1.56.425 0 .819.078 1.183.234.373.147.693.368.962.663.277.295.494.659.65 1.092.156.425.234.914.234 1.469Zm-3.276 2.483c.303 0 .581-.048.832-.143.26-.104.485-.256.676-.455a2.13 2.13 0 0 0 .442-.78c.104-.312.156-.68.156-1.105 0-.425-.052-.793-.156-1.105a2.003 2.003 0 0 0-.442-.767 1.698 1.698 0 0 0-.676-.455 2.156 2.156 0 0 0-.832-.156c-.598 0-1.096.199-1.495.598-.39.399-.585 1.014-.585 1.846 0 .433.052.81.156 1.131.104.312.247.572.429.78.191.208.412.364.663.468.251.095.529.143.832.143Zm7.477 1.027c-.46 0-.889-.078-1.287-.234a2.984 2.984 0 0 1-1.04-.676 3.283 3.283 0 0 1-.676-1.105c-.165-.433-.247-.932-.247-1.495 0-.555.082-1.049.247-1.482.164-.442.39-.81.676-1.105.294-.295.641-.52 1.04-.676a3.495 3.495 0 0 1 1.287-.234c.468 0 .901.078 1.3.234.398.156.741.381 1.027.676.294.295.524.663.689 1.105.173.433.26.927.26 1.482 0 .563-.087 1.062-.26 1.495a3.203 3.203 0 0 1-.689 1.105c-.286.295-.629.52-1.027.676a3.538 3.538 0 0 1-1.3.234Zm0-1.027c.303 0 .58-.048.832-.143.26-.104.485-.256.676-.455.19-.208.338-.468.442-.78.104-.312.156-.68.156-1.105 0-.425-.052-.793-.156-1.105a2.015 2.015 0 0 0-.442-.767 1.698 1.698 0 0 0-.676-.455 2.16 2.16 0 0 0-.832-.156c-.304 0-.581.052-.832.156a1.704 1.704 0 0 0-.663.455 2.107 2.107 0 0 0-.429.767c-.104.312-.156.68-.156 1.105 0 .425.052.793.156 1.105.104.312.247.572.429.78.19.199.411.351.663.455.251.095.528.143.832.143Zm7.197-4.875v5.772h-1.144v-5.772h-2.119v-.975h5.421v.975h-2.158Zm8.47 3.523c0 .39-.069.728-.208 1.014-.139.286-.334.52-.585.702-.251.182-.55.316-.897.403-.347.087-.724.13-1.131.13h-2.171v-6.747h1.144v2.353h1.105c.858 0 1.53.169 2.015.507.485.338.728.884.728 1.638Zm2.119 2.249h-1.144v-6.747h1.144v6.747Zm-5.967-3.419v2.444h1.027c.494 0 .893-.091 1.196-.273.312-.191.468-.503.468-.936 0-.442-.139-.758-.416-.949-.277-.191-.667-.286-1.17-.286h-1.105Zm-49.338 18.132a3.968 3.968 0 0 1-.299.494 2.253 2.253 0 0 1-1.105.793c-.243.087-.529.13-.858.13-.607 0-1.096-.169-1.469-.507-.373-.347-.559-.841-.559-1.482 0-.737.256-1.278.767-1.625.52-.347 1.257-.52 2.21-.52h1.261v-.559c0-.468-.121-.802-.364-1.001-.243-.199-.659-.299-1.248-.299-.416 0-.81.069-1.183.208-.373.13-.706.282-1.001.455v-1.027c.243-.147.568-.29.975-.429a4.07 4.07 0 0 1 1.365-.221c.849 0 1.495.178 1.937.533.442.347.663.888.663 1.625v3.9c.009.095.013.195.013.299l.026.299c.009.087.017.16.026.221h-1.04a5.896 5.896 0 0 1-.078-.507 7.937 7.937 0 0 1-.026-.585l-.013-.195Zm-2.015.39c.355 0 .659-.074.91-.221.251-.147.455-.316.611-.507.156-.199.269-.39.338-.572.069-.191.104-.325.104-.403v-.494h-1.144c-.685 0-1.183.1-1.495.299-.303.191-.455.481-.455.871 0 .303.091.55.273.741.182.191.468.286.858.286Zm6.648-1.976h-.598v2.873h-1.144v-6.747h1.144v2.899h.65l2.366-2.899h1.3l-2.769 3.328 2.821 3.419h-1.391l-2.379-2.873Zm7.691-2.899v5.772h-1.144v-5.772h-2.119v-.975h5.421v.975h-2.158Zm4.622 4.212 3.601-5.187h1.157v6.747h-1.144v-5.174l-3.588 5.174h-1.17v-6.747h1.144v5.187Zm6.625-5.187h2.522c.815 0 1.43.143 1.846.429.416.277.624.715.624 1.313 0 .399-.104.719-.312.962-.199.234-.485.403-.858.507.962.156 1.443.689 1.443 1.599 0 .347-.069.646-.208.897a1.704 1.704 0 0 1-.572.598 2.53 2.53 0 0 1-.884.338 5.525 5.525 0 0 1-1.105.104h-2.496v-6.747Zm1.144.975v1.833h1.274c.434 0 .78-.078 1.04-.234.269-.156.403-.381.403-.676 0-.355-.117-.598-.351-.728-.234-.13-.567-.195-1.001-.195h-1.365Zm0 2.743v2.054h1.339c.243 0 .46-.013.65-.039.2-.035.369-.091.507-.169a.839.839 0 0 0 .338-.312.92.92 0 0 0 .117-.481c0-.39-.134-.663-.403-.819-.268-.156-.671-.234-1.209-.234h-1.339Zm6.983 1.469 3.601-5.187h1.157v6.747h-1.144v-5.174l-3.588 5.174h-1.17v-6.747h1.144v5.187Zm10.018 1.69c-.52 0-.97-.121-1.352-.364a2.658 2.658 0 0 1-.897-1.001v3.536h-1.144v-9.048h1.001l.117 1.313c.226-.442.529-.793.91-1.053.382-.26.854-.39 1.417-.39.39 0 .763.074 1.118.221.364.139.681.355.949.65.278.286.494.65.65 1.092.165.433.247.945.247 1.534 0 .598-.082 1.118-.247 1.56a3.246 3.246 0 0 1-.663 1.092 2.772 2.772 0 0 1-.962.65 3.178 3.178 0 0 1-1.144.208Zm-.169-1.027c.598 0 1.079-.204 1.443-.611.373-.416.559-1.04.559-1.872 0-.815-.186-1.43-.559-1.846-.364-.425-.845-.637-1.443-.637-.294 0-.572.052-.832.156-.251.104-.472.26-.663.468a2.263 2.263 0 0 0-.442.767 3.457 3.457 0 0 0-.156 1.092c0 .416.052.78.156 1.092.113.312.26.572.442.78.191.208.412.364.663.468.26.095.538.143.832.143Zm7.823.819a7.766 7.766 0 0 1-.494 1.066 3.6 3.6 0 0 1-.585.793c-.217.217-.46.377-.728.481a2.367 2.367 0 0 1-.923.169c-.174 0-.334-.013-.481-.039a1.427 1.427 0 0 1-.403-.104v-1.105c.095.069.216.121.364.156.147.043.307.065.481.065.32 0 .585-.078.793-.234.208-.147.407-.386.598-.715l-2.743-7.202h1.261l2.145 5.694 2.132-5.694h1.105l-2.522 6.669Zm6.632-7.566a2.87 2.87 0 0 1-.91-.13 1.984 1.984 0 0 1-.637-.377 1.709 1.709 0 0 1-.377-.559 2.06 2.06 0 0 1-.117-.702h1.144c0 .329.078.568.234.715.164.147.385.221.663.221.277 0 .494-.074.65-.221.156-.147.234-.386.234-.715h1.144c0 .494-.169.914-.507 1.261-.33.338-.837.507-1.521.507Zm-1.833 6.084 3.601-5.187h1.157v6.747h-1.144v-5.174l-3.588 5.174h-1.17v-6.747h1.144v5.187Zm9.342-4.212v5.772h-1.144v-5.772h-2.119v-.975h5.421v.975h-2.158Zm8.657 5.2a3.605 3.605 0 0 1-.351.221 4.116 4.116 0 0 1-.507.234 4.275 4.275 0 0 1-.676.169 4.183 4.183 0 0 1-.845.078c-1.135 0-1.998-.308-2.587-.923-.589-.615-.884-1.478-.884-2.587 0-.546.078-1.036.234-1.469.165-.433.39-.797.676-1.092a2.816 2.816 0 0 1 1.014-.689c.39-.165.815-.247 1.274-.247.485 0 .919.082 1.3.247.381.165.693.407.936.728.251.321.42.719.507 1.196.095.468.095 1.014 0 1.638h-4.758c.043.728.26 1.274.65 1.638.39.355.971.533 1.742.533.52 0 .966-.074 1.339-.221.373-.147.685-.308.936-.481v1.027Zm-2.678-5.291c-.494 0-.919.152-1.274.455-.355.303-.581.763-.676 1.378h3.627c.035-.624-.108-1.083-.429-1.378-.321-.303-.737-.455-1.248-.455Zm-84.842 14.116h5.408v6.747h-1.144v-5.772h-3.12v5.772h-1.144v-6.747Zm7.794 4.654c.121-.442.199-1.04.234-1.794s.052-1.707.052-2.86h4.537v6.747h-1.157v-5.772h-2.301a40.074 40.074 0 0 1-.091 2.47c-.043.719-.143 1.326-.299 1.82-.147.494-.368.871-.663 1.131-.286.251-.672.377-1.157.377h-.104a.573.573 0 0 1-.117-.013v-1.131c.043.009.1.013.169.013.442 0 .741-.329.897-.988Zm10.63.806a3.85 3.85 0 0 1-.299.494 2.253 2.253 0 0 1-1.105.793c-.242.087-.528.13-.858.13-.606 0-1.096-.169-1.469-.507-.372-.347-.559-.841-.559-1.482 0-.737.256-1.278.767-1.625.52-.347 1.257-.52 2.21-.52h1.261v-.559c0-.468-.121-.802-.364-1.001-.242-.199-.658-.299-1.248-.299-.416 0-.81.069-1.183.208-.372.13-.706.282-1.001.455v-1.027c.243-.147.568-.29.975-.429a4.07 4.07 0 0 1 1.365-.221c.85 0 1.495.178 1.937.533.442.347.663.888.663 1.625v3.9c.009.095.013.195.013.299l.026.299c.009.087.018.16.026.221h-1.04a5.896 5.896 0 0 1-.078-.507 7.937 7.937 0 0 1-.026-.585l-.013-.195Zm-2.015.39c.356 0 .659-.074.91-.221.252-.147.455-.316.611-.507.156-.199.269-.39.338-.572.07-.191.104-.325.104-.403v-.494h-1.144c-.684 0-1.183.1-1.495.299-.303.191-.455.481-.455.871 0 .303.091.55.273.741.182.191.468.286.858.286Zm7.56-4.875v5.772h-1.144v-5.772h-2.119v-.975h5.421v.975h-2.158Zm7.885 2.782h-3.263v2.99h-1.144v-6.747h1.144v2.782h3.263v-2.782h1.144v6.747h-1.144v-2.99Zm6.335 2.912a7.766 7.766 0 0 1-.494 1.066 3.6 3.6 0 0 1-.585.793c-.217.217-.46.377-.728.481a2.367 2.367 0 0 1-.923.169c-.174 0-.334-.013-.481-.039a1.427 1.427 0 0 1-.403-.104v-1.105c.095.069.216.121.364.156.147.043.307.065.481.065.32 0 .585-.078.793-.234.208-.147.407-.386.598-.715l-2.743-7.202h1.261l2.145 5.694 2.132-5.694h1.105l-2.522 6.669Zm12.169-3.302c0 .563-.082 1.062-.247 1.495a3.135 3.135 0 0 1-.663 1.105c-.277.295-.606.52-.988.676a3.262 3.262 0 0 1-1.248.234c-.416 0-.806-.069-1.17-.208a2.914 2.914 0 0 1-.962-.598 3.268 3.268 0 0 1-.663-.988 3.935 3.935 0 0 1-.312-1.326h-1.118v2.99h-1.144v-6.747h1.144v2.782h1.144a3.75 3.75 0 0 1 .338-1.235c.174-.364.395-.667.663-.91.278-.251.59-.442.936-.572.356-.13.737-.195 1.144-.195.451 0 .867.078 1.248.234.382.156.711.381.988.676.286.295.507.663.663 1.105.165.433.247.927.247 1.482Zm-3.146 2.483c.286 0 .546-.048.78-.143.243-.104.451-.256.624-.455.174-.208.308-.468.403-.78.104-.312.156-.68.156-1.105 0-.425-.052-.793-.156-1.105a2.06 2.06 0 0 0-.403-.767 1.525 1.525 0 0 0-.624-.455 1.9 1.9 0 0 0-.78-.156c-.277 0-.537.052-.78.156a1.553 1.553 0 0 0-.611.455 2.23 2.23 0 0 0-.416.767 3.81 3.81 0 0 0-.143 1.105c0 .425.048.793.143 1.105.104.312.243.572.416.78.174.199.377.351.611.455.243.095.503.143.78.143Zm7.39-5.85h2.522c.815 0 1.43.143 1.846.429.416.277.624.715.624 1.313 0 .399-.104.719-.312.962-.199.234-.485.403-.858.507.962.156 1.443.689 1.443 1.599 0 .347-.069.646-.208.897a1.712 1.712 0 0 1-.572.598 2.537 2.537 0 0 1-.884.338 5.525 5.525 0 0 1-1.105.104h-2.496v-6.747Zm1.144.975v1.833h1.274c.433 0 .78-.078 1.04-.234.269-.156.403-.381.403-.676 0-.355-.117-.598-.351-.728-.234-.13-.568-.195-1.001-.195h-1.365Zm0 2.743v2.054h1.339c.243 0 .459-.013.65-.039.199-.035.368-.091.507-.169a.845.845 0 0 0 .338-.312.92.92 0 0 0 .117-.481c0-.39-.134-.663-.403-.819-.269-.156-.672-.234-1.209-.234h-1.339Zm11.208 2.457a3.867 3.867 0 0 1-.858.455c-.2.069-.425.126-.676.169a4.19 4.19 0 0 1-.845.078c-1.136 0-1.998-.308-2.587-.923-.59-.615-.884-1.478-.884-2.587 0-.546.078-1.036.234-1.469.164-.433.39-.797.676-1.092a2.816 2.816 0 0 1 1.014-.689c.39-.165.814-.247 1.274-.247.485 0 .918.082 1.3.247.381.165.693.407.936.728.251.321.42.719.507 1.196.095.468.095 1.014 0 1.638h-4.758c.043.728.26 1.274.65 1.638.39.355.97.533 1.742.533.52 0 .966-.074 1.339-.221.372-.147.684-.308.936-.481v1.027Zm-2.678-5.291c-.494 0-.919.152-1.274.455-.356.303-.581.763-.676 1.378h3.627c.034-.624-.109-1.083-.429-1.378-.321-.303-.737-.455-1.248-.455Zm7.697 5.993c-.52 0-.971-.121-1.352-.364a2.642 2.642 0 0 1-.897-1.001v3.536h-1.144v-9.048h1.001l.117 1.313c.225-.442.528-.793.91-1.053.381-.26.853-.39 1.417-.39.39 0 .762.074 1.118.221.364.139.68.355.949.65.277.286.494.65.65 1.092.164.433.247.945.247 1.534 0 .598-.083 1.118-.247 1.56a3.278 3.278 0 0 1-.663 1.092 2.782 2.782 0 0 1-.962.65 3.182 3.182 0 0 1-1.144.208Zm-.169-1.027c.598 0 1.079-.204 1.443-.611.372-.416.559-1.04.559-1.872 0-.815-.187-1.43-.559-1.846-.364-.425-.845-.637-1.443-.637-.295 0-.572.052-.832.156-.252.104-.473.26-.663.468-.182.199-.33.455-.442.767a3.457 3.457 0 0 0-.156 1.092c0 .416.052.78.156 1.092.112.312.26.572.442.78.19.208.411.364.663.468.26.095.537.143.832.143Zm7.483 1.027c-.52 0-.993-.078-1.417-.234a3.093 3.093 0 0 1-1.066-.689 3.034 3.034 0 0 1-.676-1.105 4.357 4.357 0 0 1-.234-1.482c0-.546.078-1.036.234-1.469.164-.433.394-.797.689-1.092a2.846 2.846 0 0 1 1.079-.689 3.955 3.955 0 0 1 1.443-.247c.416 0 .797.048 1.144.143.346.087.632.217.858.39v1.027a3.053 3.053 0 0 0-.936-.403 3.873 3.873 0 0 0-1.053-.143c-.789 0-1.37.204-1.742.611-.364.407-.546 1.031-.546 1.872 0 .841.177 1.465.533 1.872.355.407.918.611 1.69.611.407 0 .78-.048 1.118-.143.346-.104.658-.234.936-.39v1.027a3.984 3.984 0 0 1-2.054.533Zm4.732-1.69 3.601-5.187h1.157v6.747h-1.144v-5.174l-3.588 5.174h-1.17v-6.747h1.144v5.187Zm15.14-1.82c0 .563-.082 1.062-.247 1.495a3.135 3.135 0 0 1-.663 1.105c-.277.295-.607.52-.988.676a3.262 3.262 0 0 1-1.248.234c-.416 0-.806-.069-1.17-.208a2.904 2.904 0 0 1-.962-.598 3.232 3.232 0 0 1-.663-.988 3.935 3.935 0 0 1-.312-1.326h-1.118v2.99h-1.144v-6.747h1.144v2.782h1.144a3.75 3.75 0 0 1 .338-1.235 2.865 2.865 0 0 1 1.599-1.482c.355-.13.737-.195 1.144-.195.451 0 .867.078 1.248.234.381.156.711.381.988.676.286.295.507.663.663 1.105.165.433.247.927.247 1.482Zm-3.146 2.483c.286 0 .546-.048.78-.143.243-.104.451-.256.624-.455.173-.208.308-.468.403-.78.104-.312.156-.68.156-1.105 0-.425-.052-.793-.156-1.105a2.074 2.074 0 0 0-.403-.767 1.525 1.525 0 0 0-.624-.455 1.9 1.9 0 0 0-.78-.156c-.277 0-.537.052-.78.156a1.546 1.546 0 0 0-.611.455 2.23 2.23 0 0 0-.416.767 3.81 3.81 0 0 0-.143 1.105c0 .425.048.793.143 1.105.104.312.243.572.416.78.173.199.377.351.611.455.243.095.503.143.78.143Z"/>
    <rect width="139" height="178" x="499.5" y="123.5" fill="#fff" stroke="#FFDB4D" rx="4.5"/>
    <path fill="#18123D" d="M540.861 177.568h7.007v9.321h-1.235v-8.203h-4.55v8.203h-1.222v-9.321Zm11.792 9.451c-.46 0-.889-.078-1.287-.234a2.984 2.984 0 0 1-1.04-.676 3.283 3.283 0 0 1-.676-1.105c-.165-.433-.247-.932-.247-1.495 0-.555.082-1.049.247-1.482.164-.442.39-.81.676-1.105.294-.295.641-.52 1.04-.676a3.495 3.495 0 0 1 1.287-.234c.468 0 .901.078 1.3.234.398.156.741.381 1.027.676.294.295.524.663.689 1.105.173.433.26.927.26 1.482 0 .563-.087 1.062-.26 1.495a3.203 3.203 0 0 1-.689 1.105c-.286.295-.629.52-1.027.676a3.538 3.538 0 0 1-1.3.234Zm0-1.027c.303 0 .58-.048.832-.143.26-.104.485-.256.676-.455.19-.208.338-.468.442-.78.104-.312.156-.68.156-1.105 0-.425-.052-.793-.156-1.105a2.015 2.015 0 0 0-.442-.767 1.698 1.698 0 0 0-.676-.455 2.16 2.16 0 0 0-.832-.156c-.304 0-.581.052-.832.156a1.704 1.704 0 0 0-.663.455 2.107 2.107 0 0 0-.429.767c-.104.312-.156.68-.156 1.105 0 .425.052.793.156 1.105.104.312.247.572.429.78.19.199.411.351.663.455.251.095.528.143.832.143Zm5-1.196c.121-.442.199-1.04.234-1.794a65.41 65.41 0 0 0 .052-2.86h4.537v6.747h-1.157v-5.772h-2.301a40.074 40.074 0 0 1-.091 2.47c-.044.719-.143 1.326-.299 1.82-.148.494-.369.871-.663 1.131-.286.251-.672.377-1.157.377h-.104a.573.573 0 0 1-.117-.013v-1.131a.858.858 0 0 0 .169.013c.442 0 .741-.329.897-.988Zm9.993 2.015a7.766 7.766 0 0 1-.494 1.066 3.538 3.538 0 0 1-.585.793 2.087 2.087 0 0 1-.728.481 2.363 2.363 0 0 1-.923.169c-.173 0-.334-.013-.481-.039a1.436 1.436 0 0 1-.403-.104v-1.105c.095.069.217.121.364.156.147.043.308.065.481.065.321 0 .585-.078.793-.234.208-.147.407-.386.598-.715l-2.743-7.202h1.261l2.145 5.694 2.132-5.694h1.105l-2.522 6.669Zm8.881.078h-1.144v-2.964a2.724 2.724 0 0 1-.819.429c-.304.095-.65.143-1.04.143-.763 0-1.348-.186-1.755-.559-.399-.381-.598-.988-.598-1.82v-1.976h1.157v1.989c0 .529.121.897.364 1.105.242.208.585.312 1.027.312.303 0 .598-.043.884-.13.286-.087.546-.221.78-.403v-2.873h1.144v6.747Zm3.014-1.56 3.601-5.187h1.157v6.747h-1.144v-5.174l-3.588 5.174h-1.17v-6.747h1.144v5.187Zm9.343-4.212v5.772h-1.144v-5.772h-2.119v-.975h5.421v.975h-2.158Zm8.657 5.2a3.605 3.605 0 0 1-.351.221 4.116 4.116 0 0 1-.507.234 4.275 4.275 0 0 1-.676.169 4.183 4.183 0 0 1-.845.078c-1.135 0-1.998-.308-2.587-.923-.589-.615-.884-1.478-.884-2.587 0-.546.078-1.036.234-1.469.165-.433.39-.797.676-1.092a2.816 2.816 0 0 1 1.014-.689c.39-.165.815-.247 1.274-.247.485 0 .919.082 1.3.247.381.165.693.407.936.728.251.321.42.719.507 1.196.095.468.095 1.014 0 1.638h-4.758c.043.728.26 1.274.65 1.638.39.355.971.533 1.742.533.52 0 .966-.074 1.339-.221.373-.147.685-.308.936-.481v1.027Zm-2.678-5.291c-.494 0-.919.152-1.274.455-.355.303-.581.763-.676 1.378h3.627c.035-.624-.108-1.083-.429-1.378-.321-.303-.737-.455-1.248-.455Zm-72.479 20.993c-.52 0-.992-.078-1.417-.234a3.103 3.103 0 0 1-1.066-.689 3.034 3.034 0 0 1-.676-1.105 4.357 4.357 0 0 1-.234-1.482c0-.546.078-1.036.234-1.469a3.06 3.06 0 0 1 .689-1.092 2.854 2.854 0 0 1 1.079-.689 3.963 3.963 0 0 1 1.443-.247c.416 0 .797.048 1.144.143.347.087.633.217.858.39v1.027a3.032 3.032 0 0 0-.936-.403 3.873 3.873 0 0 0-1.053-.143c-.789 0-1.369.204-1.742.611-.364.407-.546 1.031-.546 1.872 0 .841.178 1.465.533 1.872.355.407.919.611 1.69.611.407 0 .78-.048 1.118-.143.347-.104.659-.234.936-.39v1.027a3.984 3.984 0 0 1-2.054.533Zm6.305-5.902v5.772h-1.144v-5.772h-2.119v-.975h5.421v.975h-2.158Zm7.24 4.485a3.968 3.968 0 0 1-.299.494 2.253 2.253 0 0 1-1.105.793c-.243.087-.529.13-.858.13-.607 0-1.096-.169-1.469-.507-.373-.347-.559-.841-.559-1.482 0-.737.256-1.278.767-1.625.52-.347 1.257-.52 2.21-.52h1.261v-.559c0-.468-.121-.802-.364-1.001-.243-.199-.659-.299-1.248-.299-.416 0-.81.069-1.183.208-.373.13-.706.282-1.001.455v-1.027c.243-.147.568-.29.975-.429a4.07 4.07 0 0 1 1.365-.221c.849 0 1.495.178 1.937.533.442.347.663.888.663 1.625v3.9c.009.095.013.195.013.299l.026.299c.009.087.017.16.026.221h-1.04a5.896 5.896 0 0 1-.078-.507 7.937 7.937 0 0 1-.026-.585l-.013-.195Zm-2.015.39c.355 0 .659-.074.91-.221.251-.147.455-.316.611-.507.156-.199.269-.39.338-.572.069-.191.104-.325.104-.403v-.494h-1.144c-.685 0-1.183.1-1.495.299-.303.191-.455.481-.455.871 0 .303.091.55.273.741.182.191.468.286.858.286Zm8.299 1.027c-.52 0-.971-.121-1.352-.364a2.642 2.642 0 0 1-.897-1.001v3.536h-1.144v-9.048h1.001l.117 1.313c.225-.442.528-.793.91-1.053.381-.26.853-.39 1.417-.39.39 0 .762.074 1.118.221.364.139.68.355.949.65.277.286.494.65.65 1.092.164.433.247.945.247 1.534 0 .598-.083 1.118-.247 1.56a3.278 3.278 0 0 1-.663 1.092 2.782 2.782 0 0 1-.962.65 3.182 3.182 0 0 1-1.144.208Zm-.169-1.027c.598 0 1.079-.204 1.443-.611.372-.416.559-1.04.559-1.872 0-.815-.187-1.43-.559-1.846-.364-.425-.845-.637-1.443-.637-.295 0-.572.052-.832.156-.252.104-.473.26-.663.468-.182.199-.33.455-.442.767a3.457 3.457 0 0 0-.156 1.092c0 .416.052.78.156 1.092.112.312.26.572.442.78.19.208.411.364.663.468.26.095.537.143.832.143Zm7.161-4.875v5.772h-1.144v-5.772h-2.119v-.975h5.421v.975h-2.158Zm6.057 5.902c-.46 0-.889-.078-1.287-.234a2.984 2.984 0 0 1-1.04-.676 3.283 3.283 0 0 1-.676-1.105c-.165-.433-.247-.932-.247-1.495 0-.555.082-1.049.247-1.482.164-.442.39-.81.676-1.105.294-.295.641-.52 1.04-.676a3.495 3.495 0 0 1 1.287-.234c.468 0 .901.078 1.3.234.398.156.741.381 1.027.676.294.295.524.663.689 1.105.173.433.26.927.26 1.482 0 .563-.087 1.062-.26 1.495a3.203 3.203 0 0 1-.689 1.105c-.286.295-.629.52-1.027.676a3.538 3.538 0 0 1-1.3.234Zm0-1.027c.303 0 .58-.048.832-.143.26-.104.485-.256.676-.455.19-.208.338-.468.442-.78.104-.312.156-.68.156-1.105 0-.425-.052-.793-.156-1.105a2.015 2.015 0 0 0-.442-.767 1.698 1.698 0 0 0-.676-.455 2.16 2.16 0 0 0-.832-.156c-.304 0-.581.052-.832.156a1.704 1.704 0 0 0-.663.455 2.107 2.107 0 0 0-.429.767c-.104.312-.156.68-.156 1.105 0 .425.052.793.156 1.105.104.312.247.572.429.78.19.199.411.351.663.455.251.095.528.143.832.143Zm4.67-5.85h2.522c.815 0 1.43.143 1.846.429.416.277.624.715.624 1.313 0 .399-.104.719-.312.962-.199.234-.485.403-.858.507.962.156 1.443.689 1.443 1.599 0 .347-.069.646-.208.897a1.712 1.712 0 0 1-.572.598 2.537 2.537 0 0 1-.884.338 5.525 5.525 0 0 1-1.105.104h-2.496v-6.747Zm1.144.975v1.833h1.274c.433 0 .78-.078 1.04-.234.269-.156.403-.381.403-.676 0-.355-.117-.598-.351-.728-.234-.13-.568-.195-1.001-.195h-1.365Zm0 2.743v2.054h1.339c.243 0 .459-.013.65-.039.199-.035.368-.091.507-.169a.845.845 0 0 0 .338-.312.92.92 0 0 0 .117-.481c0-.39-.134-.663-.403-.819-.269-.156-.672-.234-1.209-.234h-1.339Zm10.831.78c0 .39-.07.728-.208 1.014-.139.286-.334.52-.585.702a2.595 2.595 0 0 1-.897.403c-.347.087-.724.13-1.131.13h-2.171v-6.747h1.144v2.353h1.105c.858 0 1.529.169 2.015.507.485.338.728.884.728 1.638Zm2.119 2.249h-1.144v-6.747h1.144v6.747Zm-5.967-3.419v2.444h1.027c.494 0 .892-.091 1.196-.273.312-.191.468-.503.468-.936 0-.442-.139-.758-.416-.949-.278-.191-.668-.286-1.17-.286h-1.105Zm10.821-4.225a2.87 2.87 0 0 1-.91-.13 1.984 1.984 0 0 1-.637-.377 1.709 1.709 0 0 1-.377-.559 2.06 2.06 0 0 1-.117-.702h1.144c0 .329.078.568.234.715.164.147.385.221.663.221.277 0 .494-.074.65-.221.156-.147.234-.386.234-.715h1.144c0 .494-.169.914-.507 1.261-.33.338-.837.507-1.521.507Zm-1.833 6.084 3.601-5.187h1.157v6.747h-1.144v-5.174l-3.588 5.174h-1.17v-6.747h1.144v5.187Zm9.482-5.187h4.29v.975h-3.146v5.772h-1.144v-6.747Zm9.068 6.877c-.52 0-.971-.121-1.352-.364a2.642 2.642 0 0 1-.897-1.001v3.536h-1.144v-9.048h1.001l.117 1.313c.225-.442.528-.793.91-1.053.381-.26.853-.39 1.417-.39.39 0 .762.074 1.118.221.364.139.68.355.949.65.277.286.494.65.65 1.092.164.433.247.945.247 1.534 0 .598-.083 1.118-.247 1.56a3.278 3.278 0 0 1-.663 1.092 2.782 2.782 0 0 1-.962.65 3.182 3.182 0 0 1-1.144.208Zm-.169-1.027c.598 0 1.079-.204 1.443-.611.372-.416.559-1.04.559-1.872 0-.815-.187-1.43-.559-1.846-.364-.425-.845-.637-1.443-.637-.295 0-.572.052-.832.156-.252.104-.473.26-.663.468-.182.199-.33.455-.442.767a3.457 3.457 0 0 0-.156 1.092c0 .416.052.78.156 1.092.112.312.26.572.442.78.19.208.411.364.663.468.26.095.537.143.832.143Zm8.459-.39a3.968 3.968 0 0 1-.299.494 2.253 2.253 0 0 1-1.105.793c-.243.087-.529.13-.858.13-.607 0-1.096-.169-1.469-.507-.373-.347-.559-.841-.559-1.482 0-.737.256-1.278.767-1.625.52-.347 1.257-.52 2.21-.52h1.261v-.559c0-.468-.121-.802-.364-1.001-.243-.199-.659-.299-1.248-.299-.416 0-.81.069-1.183.208-.373.13-.706.282-1.001.455v-1.027c.243-.147.568-.29.975-.429a4.07 4.07 0 0 1 1.365-.221c.849 0 1.495.178 1.937.533.442.347.663.888.663 1.625v3.9c.009.095.013.195.013.299l.026.299c.009.087.017.16.026.221h-1.04a5.896 5.896 0 0 1-.078-.507 7.937 7.937 0 0 1-.026-.585l-.013-.195Zm-2.015.39c.355 0 .659-.074.91-.221.251-.147.455-.316.611-.507.156-.199.269-.39.338-.572.069-.191.104-.325.104-.403v-.494h-1.144c-.685 0-1.183.1-1.495.299-.303.191-.455.481-.455.871 0 .303.091.55.273.741.182.191.468.286.858.286Zm9.313-2.093h-3.263v2.99h-1.144v-6.747h1.144v2.782h3.263v-2.782h1.144v6.747h-1.144v-2.99Zm5.737-2.782v5.772h-1.144v-5.772h-2.119v-.975h5.421v.975h-2.158Zm-75.841 19.212 3.601-5.187h1.157v6.747h-1.144v-5.174l-3.588 5.174h-1.17v-6.747h1.144v5.187Zm13.889-1.43h-3.263v2.99h-1.144v-6.747h1.144v2.782h3.263v-2.782h1.144v6.747h-1.144v-2.99Zm6.972 1.703a3.968 3.968 0 0 1-.299.494 2.28 2.28 0 0 1-.455.455 2.306 2.306 0 0 1-.65.338c-.243.087-.529.13-.858.13-.607 0-1.097-.169-1.469-.507-.373-.347-.559-.841-.559-1.482 0-.737.255-1.278.767-1.625.52-.347 1.256-.52 2.21-.52h1.261v-.559c0-.468-.122-.802-.364-1.001-.243-.199-.659-.299-1.248-.299-.416 0-.811.069-1.183.208-.373.13-.707.282-1.001.455v-1.027c.242-.147.567-.29.975-.429a4.07 4.07 0 0 1 1.365-.221c.849 0 1.495.178 1.937.533.442.347.663.888.663 1.625v3.9c.008.095.013.195.013.299.008.104.017.204.026.299.008.087.017.16.026.221h-1.04a5.896 5.896 0 0 1-.078-.507 7.42 7.42 0 0 1-.026-.585l-.013-.195Zm-2.015.39c.355 0 .658-.074.91-.221.251-.147.455-.316.611-.507.156-.199.268-.39.338-.572.069-.191.104-.325.104-.403v-.494h-1.144c-.685 0-1.183.1-1.495.299-.304.191-.455.481-.455.871 0 .303.091.55.273.741.182.191.468.286.858.286Zm9.941.897h-1.144v-2.964a2.724 2.724 0 0 1-.819.429c-.303.095-.65.143-1.04.143-.763 0-1.348-.186-1.755-.559-.399-.381-.598-.988-.598-1.82v-1.976h1.157v1.989c0 .529.121.897.364 1.105.243.208.585.312 1.027.312.303 0 .598-.043.884-.13.286-.087.546-.221.78-.403v-2.873h1.144v6.747Zm6.278-2.99h-3.263v2.99h-1.144v-6.747h1.144v2.782h3.263v-2.782h1.144v6.747h-1.144v-2.99Zm4.163 1.43 3.601-5.187h1.157v6.747h-1.144v-5.174l-3.588 5.174h-1.17v-6.747h1.144v5.187Zm9.343-4.212v5.772h-1.144v-5.772h-2.119v-.975h5.421v.975h-2.158Zm8.657 5.2a3.605 3.605 0 0 1-.351.221 4.116 4.116 0 0 1-.507.234 4.275 4.275 0 0 1-.676.169 4.183 4.183 0 0 1-.845.078c-1.135 0-1.998-.308-2.587-.923-.589-.615-.884-1.478-.884-2.587 0-.546.078-1.036.234-1.469.165-.433.39-.797.676-1.092a2.816 2.816 0 0 1 1.014-.689c.39-.165.815-.247 1.274-.247.485 0 .919.082 1.3.247.381.165.693.407.936.728.251.321.42.719.507 1.196.095.468.095 1.014 0 1.638h-4.758c.043.728.26 1.274.65 1.638.39.355.971.533 1.742.533.52 0 .966-.074 1.339-.221.373-.147.685-.308.936-.481v1.027Zm-2.678-5.291c-.494 0-.919.152-1.274.455-.355.303-.581.763-.676 1.378h3.627c.035-.624-.108-1.083-.429-1.378-.321-.303-.737-.455-1.248-.455Zm-56.502 18.9c0 .381-.078.706-.234.975-.148.26-.351.477-.611.65a2.65 2.65 0 0 1-.91.351 4.732 4.732 0 0 1-1.066.117c-.494 0-.932-.052-1.313-.156-.373-.104-.668-.23-.884-.377v-1.027c.268.165.589.295.962.39.372.095.775.143 1.209.143.494 0 .905-.078 1.235-.234.338-.165.507-.442.507-.832 0-.381-.143-.65-.429-.806-.278-.156-.707-.234-1.287-.234h-.897v-.923h.936c.476 0 .84-.087 1.092-.26.251-.173.377-.425.377-.754a.689.689 0 0 0-.13-.429.809.809 0 0 0-.325-.286 1.387 1.387 0 0 0-.494-.156 3.098 3.098 0 0 0-.585-.052 4.21 4.21 0 0 0-1.118.143c-.338.095-.646.23-.923.403v-1.027c.225-.147.515-.273.871-.377a4.602 4.602 0 0 1 1.261-.156c.823 0 1.443.156 1.859.468.424.312.637.763.637 1.352 0 .442-.122.789-.364 1.04-.234.251-.568.425-1.001.52.537.069.94.238 1.209.507.277.269.416.611.416 1.027Zm6.085-1.027h-3.263v2.99h-1.144v-6.747h1.144v2.782h3.263v-2.782h1.144v6.747h-1.144v-2.99Zm6.971 1.703a3.85 3.85 0 0 1-.299.494 2.253 2.253 0 0 1-1.105.793c-.242.087-.528.13-.858.13-.606 0-1.096-.169-1.469-.507-.372-.347-.559-.841-.559-1.482 0-.737.256-1.278.767-1.625.52-.347 1.257-.52 2.21-.52h1.261v-.559c0-.468-.121-.802-.364-1.001-.242-.199-.658-.299-1.248-.299-.416 0-.81.069-1.183.208-.372.13-.706.282-1.001.455v-1.027c.243-.147.568-.29.975-.429a4.07 4.07 0 0 1 1.365-.221c.85 0 1.495.178 1.937.533.442.347.663.888.663 1.625v3.9c.009.095.013.195.013.299l.026.299c.009.087.018.16.026.221h-1.04a5.896 5.896 0 0 1-.078-.507 7.937 7.937 0 0 1-.026-.585l-.013-.195Zm-2.015.39c.356 0 .659-.074.91-.221.252-.147.455-.316.611-.507.156-.199.269-.39.338-.572.07-.191.104-.325.104-.403v-.494h-1.144c-.684 0-1.183.1-1.495.299-.303.191-.455.481-.455.871 0 .303.091.55.273.741.182.191.468.286.858.286Zm6.648-1.976h-.598v2.873h-1.144v-6.747h1.144v2.899h.65l2.366-2.899h1.3l-2.769 3.328 2.821 3.419h-1.391l-2.379-2.873Zm7.489 3.003c-.459 0-.888-.078-1.287-.234a2.993 2.993 0 0 1-1.04-.676 3.3 3.3 0 0 1-.676-1.105c-.165-.433-.247-.932-.247-1.495 0-.555.082-1.049.247-1.482.165-.442.39-.81.676-1.105.295-.295.641-.52 1.04-.676a3.503 3.503 0 0 1 1.287-.234c.468 0 .901.078 1.3.234a2.86 2.86 0 0 1 1.027.676c.295.295.524.663.689 1.105.173.433.26.927.26 1.482 0 .563-.087 1.062-.26 1.495a3.188 3.188 0 0 1-.689 1.105 2.86 2.86 0 0 1-1.027.676 3.538 3.538 0 0 1-1.3.234Zm0-1.027c.303 0 .581-.048.832-.143.26-.104.485-.256.676-.455a2.13 2.13 0 0 0 .442-.78c.104-.312.156-.68.156-1.105 0-.425-.052-.793-.156-1.105a2.003 2.003 0 0 0-.442-.767 1.698 1.698 0 0 0-.676-.455 2.156 2.156 0 0 0-.832-.156c-.303 0-.581.052-.832.156a1.719 1.719 0 0 0-.663.455 2.107 2.107 0 0 0-.429.767c-.104.312-.156.68-.156 1.105 0 .425.052.793.156 1.105.104.312.247.572.429.78.191.199.412.351.663.455.251.095.529.143.832.143Zm11.106-4.524-2.288 4.667h-.91l-2.158-4.693v5.447h-1.079v-6.747h1.703l2.067 4.524 2.21-4.524h1.586v6.747h-1.131v-5.421Zm5.909 5.551c-.52 0-.992-.078-1.417-.234a3.103 3.103 0 0 1-1.066-.689 3.034 3.034 0 0 1-.676-1.105 4.357 4.357 0 0 1-.234-1.482c0-.546.078-1.036.234-1.469a3.06 3.06 0 0 1 .689-1.092 2.854 2.854 0 0 1 1.079-.689 3.963 3.963 0 0 1 1.443-.247c.416 0 .797.048 1.144.143.347.087.633.217.858.39v1.027a3.032 3.032 0 0 0-.936-.403 3.873 3.873 0 0 0-1.053-.143c-.789 0-1.369.204-1.742.611-.364.407-.546 1.031-.546 1.872 0 .841.178 1.465.533 1.872.355.407.919.611 1.69.611.407 0 .78-.048 1.118-.143.347-.104.659-.234.936-.39v1.027a3.984 3.984 0 0 1-2.054.533Zm6.305-5.902v5.772h-1.144v-5.772h-2.119v-.975h5.421v.975h-2.158Zm3.478-.975h2.522c.815 0 1.43.143 1.846.429.416.277.624.715.624 1.313 0 .399-.104.719-.312.962-.199.234-.485.403-.858.507.962.156 1.443.689 1.443 1.599 0 .347-.069.646-.208.897a1.704 1.704 0 0 1-.572.598 2.53 2.53 0 0 1-.884.338 5.525 5.525 0 0 1-1.105.104h-2.496v-6.747Zm1.144.975v1.833h1.274c.434 0 .78-.078 1.04-.234.269-.156.403-.381.403-.676 0-.355-.117-.598-.351-.728-.234-.13-.567-.195-1.001-.195h-1.365Zm0 2.743v2.054h1.339c.243 0 .46-.013.65-.039.2-.035.369-.091.507-.169a.839.839 0 0 0 .338-.312.92.92 0 0 0 .117-.481c0-.39-.134-.663-.403-.819-.268-.156-.671-.234-1.209-.234h-1.339Zm8.608 3.159c-.459 0-.888-.078-1.287-.234a2.993 2.993 0 0 1-1.04-.676 3.3 3.3 0 0 1-.676-1.105c-.165-.433-.247-.932-.247-1.495 0-.555.082-1.049.247-1.482.165-.442.39-.81.676-1.105.295-.295.641-.52 1.04-.676a3.503 3.503 0 0 1 1.287-.234c.468 0 .901.078 1.3.234a2.86 2.86 0 0 1 1.027.676c.295.295.524.663.689 1.105.173.433.26.927.26 1.482 0 .563-.087 1.062-.26 1.495a3.188 3.188 0 0 1-.689 1.105 2.86 2.86 0 0 1-1.027.676 3.538 3.538 0 0 1-1.3.234Zm0-1.027c.303 0 .581-.048.832-.143.26-.104.485-.256.676-.455a2.13 2.13 0 0 0 .442-.78c.104-.312.156-.68.156-1.105 0-.425-.052-.793-.156-1.105a2.003 2.003 0 0 0-.442-.767 1.698 1.698 0 0 0-.676-.455 2.156 2.156 0 0 0-.832-.156c-.303 0-.581.052-.832.156a1.719 1.719 0 0 0-.663.455 2.107 2.107 0 0 0-.429.767c-.104.312-.156.68-.156 1.105 0 .425.052.793.156 1.105.104.312.247.572.429.78.191.199.412.351.663.455.251.095.529.143.832.143ZM542.1 248.019c-.52 0-.992-.078-1.417-.234a3.103 3.103 0 0 1-1.066-.689 3.034 3.034 0 0 1-.676-1.105 4.357 4.357 0 0 1-.234-1.482c0-.546.078-1.036.234-1.469a3.06 3.06 0 0 1 .689-1.092 2.854 2.854 0 0 1 1.079-.689 3.963 3.963 0 0 1 1.443-.247c.416 0 .797.048 1.144.143.347.087.633.217.858.39v1.027a3.032 3.032 0 0 0-.936-.403 3.873 3.873 0 0 0-1.053-.143c-.789 0-1.369.204-1.742.611-.364.407-.546 1.031-.546 1.872 0 .841.178 1.465.533 1.872.355.407.919.611 1.69.611.407 0 .78-.048 1.118-.143.347-.104.659-.234.936-.39v1.027a3.984 3.984 0 0 1-2.054.533Zm9.213 0c-.459 0-.888-.078-1.287-.234a3.002 3.002 0 0 1-1.04-.676 3.3 3.3 0 0 1-.676-1.105c-.164-.433-.247-.932-.247-1.495 0-.555.083-1.049.247-1.482.165-.442.39-.81.676-1.105.295-.295.642-.52 1.04-.676a3.503 3.503 0 0 1 1.287-.234c.468 0 .902.078 1.3.234a2.86 2.86 0 0 1 1.027.676c.295.295.525.663.689 1.105.174.433.26.927.26 1.482 0 .563-.086 1.062-.26 1.495a3.173 3.173 0 0 1-.689 1.105 2.86 2.86 0 0 1-1.027.676 3.534 3.534 0 0 1-1.3.234Zm0-1.027c.304 0 .581-.048.832-.143a1.9 1.9 0 0 0 .676-.455 2.13 2.13 0 0 0 .442-.78c.104-.312.156-.68.156-1.105 0-.425-.052-.793-.156-1.105a2.003 2.003 0 0 0-.442-.767 1.691 1.691 0 0 0-.676-.455 2.152 2.152 0 0 0-.832-.156c-.303 0-.58.052-.832.156a1.719 1.719 0 0 0-.663.455 2.107 2.107 0 0 0-.429.767c-.104.312-.156.68-.156 1.105 0 .425.052.793.156 1.105.104.312.247.572.429.78.191.199.412.351.663.455.252.095.529.143.832.143Zm10.755-2.483c0 .563-.087 1.062-.26 1.495a3.188 3.188 0 0 1-.689 1.105 2.86 2.86 0 0 1-1.027.676 3.538 3.538 0 0 1-1.3.234c-.477 0-.914-.078-1.313-.234a2.722 2.722 0 0 1-1.027-.741c-.286-.329-.511-.745-.676-1.248-.156-.503-.234-1.096-.234-1.781 0-.563.017-1.101.052-1.612.035-.511.113-.984.234-1.417.121-.442.295-.836.52-1.183a2.868 2.868 0 0 1 1.612-1.17 5.2 5.2 0 0 1 .702-.156 6.88 6.88 0 0 1 .728-.065l.715-.026c.347-.026.637-.069.871-.13.234-.061.442-.143.624-.247v1.04a2.009 2.009 0 0 1-.611.26 8.957 8.957 0 0 1-.767.117c-.494.043-.949.078-1.365.104a2.67 2.67 0 0 0-1.118.286 2.024 2.024 0 0 0-.923 1.092c-.173.477-.282 1.044-.325 1.703.451-1.04 1.3-1.56 2.548-1.56.425 0 .819.078 1.183.234.373.147.693.368.962.663.277.295.494.659.65 1.092.156.425.234.914.234 1.469Zm-3.276 2.483c.303 0 .581-.048.832-.143.26-.104.485-.256.676-.455a2.13 2.13 0 0 0 .442-.78c.104-.312.156-.68.156-1.105 0-.425-.052-.793-.156-1.105a2.003 2.003 0 0 0-.442-.767 1.698 1.698 0 0 0-.676-.455 2.156 2.156 0 0 0-.832-.156c-.598 0-1.096.199-1.495.598-.39.399-.585 1.014-.585 1.846 0 .433.052.81.156 1.131.104.312.247.572.429.78.191.208.412.364.663.468.251.095.529.143.832.143Zm5.037-1.196c.121-.442.199-1.04.234-1.794s.052-1.707.052-2.86h4.537v6.747h-1.157v-5.772h-2.301a40.074 40.074 0 0 1-.091 2.47c-.043.719-.143 1.326-.299 1.82-.147.494-.368.871-.663 1.131-.286.251-.672.377-1.157.377h-.104a.573.573 0 0 1-.117-.013v-1.131c.043.009.1.013.169.013.442 0 .741-.329.897-.988Zm10.63.806a3.85 3.85 0 0 1-.299.494 2.253 2.253 0 0 1-1.105.793c-.242.087-.528.13-.858.13-.606 0-1.096-.169-1.469-.507-.372-.347-.559-.841-.559-1.482 0-.737.256-1.278.767-1.625.52-.347 1.257-.52 2.21-.52h1.261v-.559c0-.468-.121-.802-.364-1.001-.242-.199-.658-.299-1.248-.299-.416 0-.81.069-1.183.208-.372.13-.706.282-1.001.455v-1.027c.243-.147.568-.29.975-.429a4.07 4.07 0 0 1 1.365-.221c.85 0 1.495.178 1.937.533.442.347.663.888.663 1.625v3.9c.009.095.013.195.013.299l.026.299c.009.087.018.16.026.221h-1.04a5.896 5.896 0 0 1-.078-.507 7.937 7.937 0 0 1-.026-.585l-.013-.195Zm-2.015.39c.356 0 .659-.074.91-.221.252-.147.455-.316.611-.507.156-.199.269-.39.338-.572.07-.191.104-.325.104-.403v-.494h-1.144c-.684 0-1.183.1-1.495.299-.303.191-.455.481-.455.871 0 .303.091.55.273.741.182.191.468.286.858.286Zm6.648-1.976h-.598v2.873h-1.144v-6.747h1.144v2.899h.65l2.366-2.899h1.3l-2.769 3.328 2.821 3.419h-1.391l-2.379-2.873Zm7.489 3.003c-.459 0-.888-.078-1.287-.234a2.993 2.993 0 0 1-1.04-.676 3.3 3.3 0 0 1-.676-1.105c-.165-.433-.247-.932-.247-1.495 0-.555.082-1.049.247-1.482.165-.442.39-.81.676-1.105.295-.295.641-.52 1.04-.676a3.503 3.503 0 0 1 1.287-.234c.468 0 .901.078 1.3.234a2.86 2.86 0 0 1 1.027.676c.295.295.524.663.689 1.105.173.433.26.927.26 1.482 0 .563-.087 1.062-.26 1.495a3.188 3.188 0 0 1-.689 1.105 2.86 2.86 0 0 1-1.027.676 3.538 3.538 0 0 1-1.3.234Zm0-1.027c.303 0 .581-.048.832-.143.26-.104.485-.256.676-.455a2.13 2.13 0 0 0 .442-.78c.104-.312.156-.68.156-1.105 0-.425-.052-.793-.156-1.105a2.003 2.003 0 0 0-.442-.767 1.698 1.698 0 0 0-.676-.455 2.156 2.156 0 0 0-.832-.156c-.303 0-.581.052-.832.156a1.719 1.719 0 0 0-.663.455 2.107 2.107 0 0 0-.429.767c-.104.312-.156.68-.156 1.105 0 .425.052.793.156 1.105.104.312.247.572.429.78.191.199.412.351.663.455.251.095.529.143.832.143Zm11.105-4.524-2.288 4.667h-.91l-2.158-4.693v5.447h-1.079v-6.747h1.703l2.067 4.524 2.21-4.524h1.586v6.747h-1.131v-5.421Z"/>
    <path fill="#5282FF" fill-rule="evenodd" d="M96 123c13.799 0 25 11.2 25 25s-11.201 25-25 25-25-11.2-25-25 11.201-25 25-25Z" clip-rule="evenodd"/>
    <path fill="#fff" fill-rule="evenodd" d="M85.938 158.829c-.455-.197-.733-.378-.841-.836-.14-1.098.133-1.921.84-2.497 2.272-1.492 5.313-2.14 6.865-3.159.525-.428.5-1.002.453-1.407-.047-.393-.26-.796-.61-1.271-1.314-1.52-2.515-3.761-2.515-8.333 0-2.124.947-3.949 2.406-4.94 1.031-.703 2.422-.891 3.464-.891 1.042 0 2.431.188 3.464.891 1.459.991 2.406 2.816 2.406 4.94 0 4.572-1.201 6.813-2.515 8.333-.35.473-.563.878-.61 1.271-.047.405-.072.979.453 1.407 1.552 1.02 4.593 1.667 6.865 3.159.707.578.979 1.399.84 2.497-.109.458-.386.641-.84.836-2.504.995-6.326 1.666-10.063 1.666-3.737 0-7.56-.671-10.063-1.666Z" clip-rule="evenodd"/>
    <path fill="#000" fill-opacity=".7" d="m498.964 217-5-2.887v5.774l5-2.887Zm-69.964.5h65.464v-1H429v1Zm140 154.464 2.887-5h-5.774l2.887 5ZM568.5 302v65.464h1V302h-1Zm-332.536-85-5-2.887v5.774l5-2.887Zm-69.964.5h65.464v-1H166v1Z"/>
    <rect width="140" height="69" x="262" y="222" fill="#D3E3FC" rx="5"/>
    <path fill="#18123D" d="M298.554 244.346h7.007v9.321h-1.235v-8.203h-4.55v8.203h-1.222v-9.321Zm12.416 9.451c-.52 0-.971-.122-1.352-.364a2.65 2.65 0 0 1-.897-1.001v3.536h-1.144v-9.048h1.001l.117 1.313c.225-.442.529-.793.91-1.053.381-.26.854-.39 1.417-.39.39 0 .763.073 1.118.221.364.138.68.355.949.65.277.286.494.65.65 1.092.165.433.247.944.247 1.534 0 .598-.082 1.118-.247 1.56a3.278 3.278 0 0 1-.663 1.092 2.786 2.786 0 0 1-.962.65 3.2 3.2 0 0 1-1.144.208Zm-.169-1.027c.598 0 1.079-.204 1.443-.611.373-.416.559-1.04.559-1.872 0-.815-.186-1.43-.559-1.846-.364-.425-.845-.637-1.443-.637-.295 0-.572.052-.832.156-.251.104-.472.26-.663.468a2.263 2.263 0 0 0-.442.767 3.457 3.457 0 0 0-.156 1.092c0 .416.052.78.156 1.092.113.312.26.572.442.78.191.208.412.364.663.468.26.095.537.143.832.143Zm5.715-.663 3.601-5.187h1.157v6.747h-1.144v-5.174l-3.588 5.174h-1.17v-6.747h1.144v5.187Zm6.626-5.187h2.522c.814 0 1.43.143 1.846.429.416.277.624.715.624 1.313 0 .398-.104.719-.312.962-.2.234-.486.403-.858.507.962.156 1.443.689 1.443 1.599 0 .346-.07.645-.208.897a1.73 1.73 0 0 1-.572.598 2.565 2.565 0 0 1-.884.338 5.532 5.532 0 0 1-1.105.104h-2.496v-6.747Zm1.144.975v1.833h1.274c.433 0 .78-.078 1.04-.234.268-.156.403-.382.403-.676 0-.356-.117-.598-.351-.728-.234-.13-.568-.195-1.001-.195h-1.365Zm0 2.743v2.054h1.339c.242 0 .459-.013.65-.039.199-.035.368-.091.507-.169a.845.845 0 0 0 .338-.312.922.922 0 0 0 .117-.481c0-.39-.135-.663-.403-.819-.269-.156-.672-.234-1.209-.234h-1.339Zm5.648-1.534c0-.382.069-.707.208-.975.138-.278.333-.503.585-.676a2.56 2.56 0 0 1 .897-.403c.346-.087.723-.13 1.131-.13h2.171v6.747h-1.144v-2.444h-1.235l-1.729 2.444h-1.365l1.95-2.73c-.468-.139-.832-.351-1.092-.637-.252-.286-.377-.685-.377-1.196Zm3.848 1.144v-2.353h-1.027c-.486 0-.884.091-1.196.273-.312.182-.468.476-.468.884 0 .424.138.732.416.923.277.182.671.273 1.183.273h1.092Zm7.609-3.328v2.899h.611l2.145-2.899h1.261l-2.509 3.302 2.6 3.445h-1.391l-2.158-2.873h-.559v2.873h-1.144v-2.873h-.572l-2.184 2.873h-1.352l2.6-3.406-2.509-3.341h1.313l2.106 2.899h.598v-2.899h1.144Zm6.457 5.187 3.601-5.187h1.157v6.747h-1.144v-5.174l-3.588 5.174h-1.17v-6.747h1.144v5.187Zm9.343-4.212v5.772h-1.144v-5.772h-2.119v-.975h5.421v.975h-2.158Zm8.656 5.2a3.605 3.605 0 0 1-.351.221 3.982 3.982 0 0 1-.507.234 4.358 4.358 0 0 1-.676.169 4.183 4.183 0 0 1-.845.078c-1.135 0-1.997-.308-2.587-.923-.589-.616-.884-1.478-.884-2.587 0-.546.078-1.036.234-1.469.165-.434.39-.798.676-1.092a2.804 2.804 0 0 1 1.014-.689c.39-.165.815-.247 1.274-.247.486 0 .919.082 1.3.247.382.164.694.407.936.728.252.32.421.719.507 1.196.096.468.096 1.014 0 1.638h-4.758c.044.728.26 1.274.65 1.638.39.355.971.533 1.742.533.52 0 .967-.074 1.339-.221.373-.148.685-.308.936-.481v1.027Zm-2.678-5.291c-.494 0-.918.151-1.274.455-.355.303-.58.762-.676 1.378h3.627c.035-.624-.108-1.084-.429-1.378-.32-.304-.736-.455-1.248-.455Zm-45.719 17.99h-.598v2.873h-1.144v-6.747h1.144v2.899h.65l2.366-2.899h1.3l-2.769 3.328 2.821 3.419h-1.391l-2.379-2.873Zm8.799 1.586a3.92 3.92 0 0 1-.299.494 2.279 2.279 0 0 1-.455.455 2.318 2.318 0 0 1-.65.338c-.242.086-.528.13-.858.13-.606 0-1.096-.169-1.469-.507-.372-.347-.559-.841-.559-1.482 0-.737.256-1.279.767-1.625.52-.347 1.257-.52 2.21-.52h1.261v-.559c0-.468-.121-.802-.364-1.001-.242-.2-.658-.299-1.248-.299-.416 0-.81.069-1.183.208a5.61 5.61 0 0 0-1.001.455v-1.027a4.99 4.99 0 0 1 .975-.429 4.046 4.046 0 0 1 1.365-.221c.85 0 1.495.177 1.937.533.442.346.663.888.663 1.625v3.9c.009.095.013.195.013.299l.026.299c.009.086.018.16.026.221h-1.04a6.026 6.026 0 0 1-.078-.507 7.983 7.983 0 0 1-.026-.585l-.013-.195Zm-2.015.39c.356 0 .659-.074.91-.221.252-.148.455-.317.611-.507.156-.2.269-.39.338-.572.07-.191.104-.325.104-.403v-.494h-1.144c-.684 0-1.183.099-1.495.299-.303.19-.455.481-.455.871 0 .303.091.55.273.741.182.19.468.286.858.286Zm8.299 1.027c-.52 0-.971-.122-1.352-.364a2.65 2.65 0 0 1-.897-1.001v3.536h-1.144v-9.048h1.001l.117 1.313c.225-.442.529-.793.91-1.053.381-.26.854-.39 1.417-.39.39 0 .763.073 1.118.221.364.138.68.355.949.65.277.286.494.65.65 1.092.165.433.247.944.247 1.534 0 .598-.082 1.118-.247 1.56a3.278 3.278 0 0 1-.663 1.092 2.786 2.786 0 0 1-.962.65 3.2 3.2 0 0 1-1.144.208Zm-.169-1.027c.598 0 1.079-.204 1.443-.611.373-.416.559-1.04.559-1.872 0-.815-.186-1.43-.559-1.846-.364-.425-.845-.637-1.443-.637-.295 0-.572.052-.832.156-.251.104-.472.26-.663.468a2.263 2.263 0 0 0-.442.767 3.457 3.457 0 0 0-.156 1.092c0 .416.052.78.156 1.092.113.312.26.572.442.78.191.208.412.364.663.468.26.095.537.143.832.143Zm7.161-4.875v5.772h-1.144v-5.772h-2.119v-.975h5.421v.975h-2.158Zm6.984 5.694a7.822 7.822 0 0 1-.494 1.066 3.6 3.6 0 0 1-.585.793 2.11 2.11 0 0 1-.728.481 2.385 2.385 0 0 1-.923.169c-.174 0-.334-.013-.481-.039a1.462 1.462 0 0 1-.403-.104v-1.105c.095.069.216.121.364.156.147.043.307.065.481.065.32 0 .585-.078.793-.234.208-.148.407-.386.598-.715l-2.743-7.202h1.261l2.145 5.694 2.132-5.694h1.105l-2.522 6.669Z"/>
    <rect width="140" height="69" x="262" y="321" fill="#D3E3FC" rx="5"/>
    <path fill="#18123D" d="M292.312 350.145a9.1 9.1 0 0 1-.546 1.092 3.69 3.69 0 0 1-.637.793 2.418 2.418 0 0 1-.806.494 3.08 3.08 0 0 1-1.027.156h-.13a.725.725 0 0 1-.13-.013v-1.222a.725.725 0 0 0 .13.013h.143c.46 0 .819-.104 1.079-.312.269-.208.49-.468.663-.78l-3.458-7.02h1.391l2.691 5.616 2.327-5.616h1.261l-2.951 6.799Zm5.175-.351h-.598v2.873h-1.144v-6.747h1.144v2.899h.65l2.366-2.899h1.3l-2.769 3.328 2.821 3.419h-1.391l-2.379-2.873Zm8.799 1.586c-.078.156-.178.32-.299.494a2.279 2.279 0 0 1-.455.455 2.332 2.332 0 0 1-.65.338c-.243.086-.529.13-.858.13-.607 0-1.096-.169-1.469-.507-.373-.347-.559-.841-.559-1.482 0-.737.256-1.279.767-1.625.52-.347 1.257-.52 2.21-.52h1.261v-.559c0-.468-.121-.802-.364-1.001-.243-.2-.659-.299-1.248-.299-.416 0-.81.069-1.183.208-.373.13-.706.281-1.001.455v-1.027a4.99 4.99 0 0 1 .975-.429 4.046 4.046 0 0 1 1.365-.221c.849 0 1.495.177 1.937.533.442.346.663.888.663 1.625v3.9c.009.095.013.195.013.299l.026.299c.009.086.017.16.026.221h-1.04a6.026 6.026 0 0 1-.078-.507 7.983 7.983 0 0 1-.026-.585l-.013-.195Zm-2.015.39c.355 0 .659-.074.91-.221.251-.148.455-.317.611-.507.156-.2.269-.39.338-.572.069-.191.104-.325.104-.403v-.494h-1.144c-.685 0-1.183.099-1.495.299-.303.19-.455.481-.455.871 0 .303.091.55.273.741.182.19.468.286.858.286Zm9.495-5.85v2.899h.611l2.145-2.899h1.261l-2.509 3.302 2.6 3.445h-1.391l-2.158-2.873h-.559v2.873h-1.144v-2.873h-.572l-2.184 2.873h-1.352l2.6-3.406-2.509-3.341h1.313l2.106 2.899h.598v-2.899h1.144Zm6.457 5.187 3.601-5.187h1.157v6.747h-1.144v-5.174l-3.588 5.174h-1.17v-6.747h1.144v5.187Zm9.343-4.212v5.772h-1.144v-5.772h-2.119v-.975h5.421v.975h-2.158Zm8.656 5.2a3.605 3.605 0 0 1-.351.221 3.982 3.982 0 0 1-.507.234 4.358 4.358 0 0 1-.676.169 4.183 4.183 0 0 1-.845.078c-1.135 0-1.997-.308-2.587-.923-.589-.616-.884-1.478-.884-2.587 0-.546.078-1.036.234-1.469.165-.434.39-.798.676-1.092a2.804 2.804 0 0 1 1.014-.689c.39-.165.815-.247 1.274-.247.486 0 .919.082 1.3.247.382.164.694.407.936.728.252.32.421.719.507 1.196.096.468.096 1.014 0 1.638h-4.758c.044.728.26 1.274.65 1.638.39.355.971.533 1.742.533.52 0 .967-.074 1.339-.221.373-.148.685-.308.936-.481v1.027Zm-2.678-5.291c-.494 0-.918.151-1.274.455-.355.303-.58.762-.676 1.378h3.627c.035-.624-.108-1.084-.429-1.378-.32-.304-.736-.455-1.248-.455Zm7.161-.884h5.408v6.747h-1.144v-5.772h-3.12v5.772h-1.144v-6.747Zm10.043 6.877c-.459 0-.888-.078-1.287-.234a3.017 3.017 0 0 1-1.04-.676 3.31 3.31 0 0 1-.676-1.105c-.164-.434-.247-.932-.247-1.495 0-.555.083-1.049.247-1.482a3.13 3.13 0 0 1 .676-1.105c.295-.295.642-.52 1.04-.676a3.503 3.503 0 0 1 1.287-.234c.468 0 .902.078 1.3.234a2.86 2.86 0 0 1 1.027.676c.295.294.525.663.689 1.105.174.433.26.927.26 1.482 0 .563-.086 1.061-.26 1.495a3.182 3.182 0 0 1-.689 1.105c-.286.294-.628.52-1.027.676a3.534 3.534 0 0 1-1.3.234Zm0-1.027c.304 0 .581-.048.832-.143a1.9 1.9 0 0 0 .676-.455 2.13 2.13 0 0 0 .442-.78c.104-.312.156-.681.156-1.105 0-.425-.052-.793-.156-1.105a2.003 2.003 0 0 0-.442-.767 1.691 1.691 0 0 0-.676-.455 2.152 2.152 0 0 0-.832-.156c-.303 0-.58.052-.832.156a1.719 1.719 0 0 0-.663.455 2.107 2.107 0 0 0-.429.767c-.104.312-.156.68-.156 1.105 0 .424.052.793.156 1.105.104.312.247.572.429.78.191.199.412.351.663.455.252.095.529.143.832.143Zm9.706.897h-1.144v-2.964a2.724 2.724 0 0 1-.819.429c-.303.095-.65.143-1.04.143-.762 0-1.347-.187-1.755-.559-.398-.382-.598-.988-.598-1.82v-1.976h1.157v1.989c0 .528.122.897.364 1.105.243.208.585.312 1.027.312.304 0 .598-.044.884-.13.286-.087.546-.221.78-.403v-2.873h1.144v6.747Zm4.588-5.772v5.772h-1.144v-5.772h-2.119v-.975h5.421v.975h-2.158Zm6.984 5.694a7.822 7.822 0 0 1-.494 1.066 3.538 3.538 0 0 1-.585.793 2.1 2.1 0 0 1-.728.481 2.381 2.381 0 0 1-.923.169c-.173 0-.334-.013-.481-.039a1.47 1.47 0 0 1-.403-.104v-1.105c.095.069.217.121.364.156.147.043.308.065.481.065.321 0 .585-.078.793-.234.208-.148.407-.386.598-.715l-2.743-7.202h1.261l2.145 5.694 2.132-5.694h1.105l-2.522 6.669Zm-70.942 13.518 3.601-5.187h1.157v6.747h-1.144v-5.174l-3.588 5.174h-1.17v-6.747h1.144v5.187Zm12.199-4.212v5.772h-1.144v-5.772h-2.119v-.975h5.421v.975h-2.158Zm8.657 5.2a3.605 3.605 0 0 1-.351.221 3.982 3.982 0 0 1-.507.234 4.358 4.358 0 0 1-.676.169 4.183 4.183 0 0 1-.845.078c-1.135 0-1.997-.308-2.587-.923-.589-.616-.884-1.478-.884-2.587 0-.546.078-1.036.234-1.469.165-.434.39-.798.676-1.092a2.804 2.804 0 0 1 1.014-.689c.39-.165.815-.247 1.274-.247.486 0 .919.082 1.3.247.382.164.694.407.936.728.252.32.421.719.507 1.196.096.468.096 1.014 0 1.638h-4.758c.044.728.26 1.274.65 1.638.39.355.971.533 1.742.533.52 0 .967-.074 1.339-.221.373-.148.685-.308.936-.481v1.027Zm-2.678-5.291c-.494 0-.918.151-1.274.455-.355.303-.58.762-.676 1.378h3.627c.035-.624-.108-1.084-.429-1.378-.32-.304-.736-.455-1.248-.455Zm4.824 3.77c.122-.442.2-1.04.234-1.794.035-.754.052-1.708.052-2.86h4.537v6.747h-1.157v-5.772h-2.301c-.008.927-.039 1.75-.091 2.47-.043.719-.143 1.326-.299 1.82-.147.494-.368.871-.663 1.131-.286.251-.671.377-1.157.377h-.104a.673.673 0 0 1-.117-.013v-1.131c.044.008.1.013.169.013.442 0 .741-.33.897-.988Zm12.048 1.521a3.867 3.867 0 0 1-.858.455c-.2.069-.425.125-.676.169a4.19 4.19 0 0 1-.845.078c-1.136 0-1.998-.308-2.587-.923-.59-.616-.884-1.478-.884-2.587 0-.546.078-1.036.234-1.469a3.13 3.13 0 0 1 .676-1.092 2.804 2.804 0 0 1 1.014-.689c.39-.165.814-.247 1.274-.247.485 0 .918.082 1.3.247.381.164.693.407.936.728.251.32.42.719.507 1.196.095.468.095 1.014 0 1.638h-4.758c.043.728.26 1.274.65 1.638.39.355.97.533 1.742.533.52 0 .966-.074 1.339-.221.372-.148.684-.308.936-.481v1.027Zm-2.678-5.291c-.494 0-.919.151-1.274.455-.356.303-.581.762-.676 1.378h3.627c.034-.624-.109-1.084-.429-1.378-.321-.304-.737-.455-1.248-.455Zm12.208 2.483c0 .563-.096 1.057-.286 1.482a3.187 3.187 0 0 1-.78 1.079c-.321.294-.702.52-1.144.676-.442.147-.91.229-1.404.247v2.197h-1.144v-2.197a4.774 4.774 0 0 1-1.43-.26 3.56 3.56 0 0 1-1.144-.663 3.16 3.16 0 0 1-.78-1.079c-.182-.425-.273-.919-.273-1.482 0-.555.095-1.045.286-1.469.19-.434.45-.793.78-1.079.329-.295.71-.516 1.144-.663a4.71 4.71 0 0 1 1.417-.26v-2.6h1.144v2.6c.502.017.97.104 1.404.26a3.28 3.28 0 0 1 1.144.676c.329.286.589.641.78 1.066.19.424.286.914.286 1.469Zm-1.17 0c0-.416-.065-.776-.195-1.079a1.963 1.963 0 0 0-.52-.754 2.198 2.198 0 0 0-.767-.455 3.1 3.1 0 0 0-.962-.195v4.966c.346-.018.667-.078.962-.182.303-.113.563-.269.78-.468.216-.2.385-.451.507-.754.13-.304.195-.663.195-1.079Zm-6.045 0c0 .416.06.775.182 1.079.13.303.303.559.52.767.225.199.485.351.78.455.303.104.628.164.975.182v-4.966a3.254 3.254 0 0 0-.988.195c-.295.104-.551.26-.767.468-.217.199-.39.45-.52.754a2.843 2.843 0 0 0-.182 1.066Zm11.385 3.51c-.459 0-.888-.078-1.287-.234a3.017 3.017 0 0 1-1.04-.676 3.31 3.31 0 0 1-.676-1.105c-.164-.434-.247-.932-.247-1.495 0-.555.083-1.049.247-1.482a3.13 3.13 0 0 1 .676-1.105c.295-.295.642-.52 1.04-.676a3.503 3.503 0 0 1 1.287-.234c.468 0 .902.078 1.3.234a2.86 2.86 0 0 1 1.027.676c.295.294.525.663.689 1.105.174.433.26.927.26 1.482 0 .563-.086 1.061-.26 1.495a3.182 3.182 0 0 1-.689 1.105c-.286.294-.628.52-1.027.676a3.534 3.534 0 0 1-1.3.234Zm0-1.027c.304 0 .581-.048.832-.143a1.9 1.9 0 0 0 .676-.455 2.13 2.13 0 0 0 .442-.78c.104-.312.156-.681.156-1.105 0-.425-.052-.793-.156-1.105a2.003 2.003 0 0 0-.442-.767 1.691 1.691 0 0 0-.676-.455 2.152 2.152 0 0 0-.832-.156c-.303 0-.58.052-.832.156a1.719 1.719 0 0 0-.663.455 2.107 2.107 0 0 0-.429.767c-.104.312-.156.68-.156 1.105 0 .424.052.793.156 1.105.104.312.247.572.429.78.191.199.412.351.663.455.252.095.529.143.832.143Zm9.078-2.093h-3.263v2.99h-1.144v-6.747h1.144v2.782h3.263v-2.782h1.144v6.747h-1.144v-2.99Z"/>
    <rect width="140" height="69" x="262" y="420" fill="#D3E3FC" rx="5"/>
    <path fill="#18123D" d="M295.623 442.346h1.82l3.341 9.321h-1.3l-.962-2.665h-4.121l-.949 2.665h-1.144l3.315-9.321Zm2.509 5.551-1.664-4.641-1.664 4.641h3.328Zm5.595.897h-.598v2.873h-1.144v-6.747h1.144v2.899h.65l2.366-2.899h1.3l-2.769 3.328 2.821 3.419h-1.391l-2.379-2.873Zm7.691-2.899v5.772h-1.144v-5.772h-2.119v-.975h5.421v.975h-2.158Zm4.622 4.212 3.601-5.187h1.157v6.747h-1.144v-5.174l-3.588 5.174h-1.17v-6.747h1.144v5.187Zm6.625-5.187h2.522c.815 0 1.43.143 1.846.429.416.277.624.715.624 1.313 0 .398-.104.719-.312.962-.199.234-.485.403-.858.507.962.156 1.443.689 1.443 1.599 0 .346-.069.645-.208.897a1.712 1.712 0 0 1-.572.598 2.549 2.549 0 0 1-.884.338 5.525 5.525 0 0 1-1.105.104h-2.496v-6.747Zm1.144.975v1.833h1.274c.434 0 .78-.078 1.04-.234.269-.156.403-.382.403-.676 0-.356-.117-.598-.351-.728-.234-.13-.567-.195-1.001-.195h-1.365Zm0 2.743v2.054h1.339c.243 0 .46-.013.65-.039.2-.035.369-.091.507-.169a.839.839 0 0 0 .338-.312.922.922 0 0 0 .117-.481c0-.39-.134-.663-.403-.819-.268-.156-.671-.234-1.209-.234h-1.339Zm6.983 1.469 3.601-5.187h1.157v6.747h-1.144v-5.174l-3.588 5.174h-1.17v-6.747h1.144v5.187Zm10.018 1.69c-.52 0-.97-.122-1.352-.364a2.666 2.666 0 0 1-.897-1.001v3.536h-1.144v-9.048h1.001l.117 1.313c.226-.442.529-.793.91-1.053.382-.26.854-.39 1.417-.39.39 0 .763.073 1.118.221.364.138.681.355.949.65.278.286.494.65.65 1.092.165.433.247.944.247 1.534 0 .598-.082 1.118-.247 1.56a3.246 3.246 0 0 1-.663 1.092 2.786 2.786 0 0 1-.962.65 3.2 3.2 0 0 1-1.144.208Zm-.169-1.027c.598 0 1.079-.204 1.443-.611.373-.416.559-1.04.559-1.872 0-.815-.186-1.43-.559-1.846-.364-.425-.845-.637-1.443-.637-.294 0-.572.052-.832.156-.251.104-.472.26-.663.468a2.263 2.263 0 0 0-.442.767 3.457 3.457 0 0 0-.156 1.092c0 .416.052.78.156 1.092.113.312.26.572.442.78.191.208.412.364.663.468.26.095.538.143.832.143Zm7.823.819a7.822 7.822 0 0 1-.494 1.066 3.538 3.538 0 0 1-.585.793 2.1 2.1 0 0 1-.728.481 2.381 2.381 0 0 1-.923.169c-.173 0-.334-.013-.481-.039a1.47 1.47 0 0 1-.403-.104v-1.105c.095.069.217.121.364.156.147.043.308.065.481.065.321 0 .585-.078.793-.234.208-.148.407-.386.598-.715l-2.743-7.202h1.261l2.145 5.694 2.132-5.694h1.105l-2.522 6.669Zm6.632-7.566c-.347 0-.65-.044-.91-.13a2.002 2.002 0 0 1-.637-.377 1.709 1.709 0 0 1-.377-.559 2.06 2.06 0 0 1-.117-.702h1.144c0 .329.078.567.234.715.164.147.385.221.663.221.277 0 .494-.074.65-.221.156-.148.234-.386.234-.715h1.144c0 .494-.169.914-.507 1.261-.33.338-.837.507-1.521.507Zm-1.833 6.084 3.601-5.187h1.157v6.747h-1.144v-5.174l-3.588 5.174h-1.17v-6.747h1.144v5.187Zm9.342-4.212v5.772h-1.144v-5.772h-2.119v-.975h5.421v.975h-2.158Zm8.657 5.2a3.605 3.605 0 0 1-.351.221 4.116 4.116 0 0 1-.507.234 4.387 4.387 0 0 1-.676.169 4.183 4.183 0 0 1-.845.078c-1.135 0-1.998-.308-2.587-.923-.589-.616-.884-1.478-.884-2.587 0-.546.078-1.036.234-1.469.165-.434.39-.798.676-1.092a2.804 2.804 0 0 1 1.014-.689c.39-.165.815-.247 1.274-.247.485 0 .919.082 1.3.247.381.164.693.407.936.728.251.32.42.719.507 1.196.095.468.095 1.014 0 1.638h-4.758c.043.728.26 1.274.65 1.638.39.355.971.533 1.742.533.52 0 .966-.074 1.339-.221.373-.148.685-.308.936-.481v1.027Zm-2.678-5.291c-.494 0-.919.151-1.274.455-.355.303-.581.762-.676 1.378h3.627c.035-.624-.108-1.084-.429-1.378-.321-.304-.737-.455-1.248-.455Zm-86.601 14.116h5.408v6.747h-1.144v-5.772h-3.12v5.772h-1.144v-6.747Zm10.668 6.877c-.52 0-.971-.122-1.352-.364a2.65 2.65 0 0 1-.897-1.001v3.536h-1.144v-9.048h1.001l.117 1.313c.225-.442.528-.793.91-1.053.381-.26.853-.39 1.417-.39.39 0 .762.073 1.118.221.364.138.68.355.949.65.277.286.494.65.65 1.092.164.433.247.944.247 1.534 0 .598-.083 1.118-.247 1.56a3.278 3.278 0 0 1-.663 1.092 2.796 2.796 0 0 1-.962.65 3.203 3.203 0 0 1-1.144.208Zm-.169-1.027c.598 0 1.079-.204 1.443-.611.372-.416.559-1.04.559-1.872 0-.815-.187-1.43-.559-1.846-.364-.425-.845-.637-1.443-.637-.295 0-.572.052-.832.156-.252.104-.473.26-.663.468-.182.199-.33.455-.442.767a3.457 3.457 0 0 0-.156 1.092c0 .416.052.78.156 1.092.112.312.26.572.442.78.19.208.411.364.663.468.26.095.537.143.832.143Zm7.34 1.027c-.46 0-.889-.078-1.287-.234a2.998 2.998 0 0 1-1.04-.676 3.293 3.293 0 0 1-.676-1.105c-.165-.434-.247-.932-.247-1.495 0-.555.082-1.049.247-1.482.164-.442.39-.811.676-1.105.294-.295.641-.52 1.04-.676a3.495 3.495 0 0 1 1.287-.234c.468 0 .901.078 1.3.234.398.156.741.381 1.027.676.294.294.524.663.689 1.105.173.433.26.927.26 1.482 0 .563-.087 1.061-.26 1.495a3.212 3.212 0 0 1-.689 1.105c-.286.294-.629.52-1.027.676a3.538 3.538 0 0 1-1.3.234Zm0-1.027c.303 0 .58-.048.832-.143.26-.104.485-.256.676-.455.19-.208.338-.468.442-.78.104-.312.156-.681.156-1.105 0-.425-.052-.793-.156-1.105a2.015 2.015 0 0 0-.442-.767 1.698 1.698 0 0 0-.676-.455 2.16 2.16 0 0 0-.832-.156c-.304 0-.581.052-.832.156a1.704 1.704 0 0 0-.663.455 2.107 2.107 0 0 0-.429.767c-.104.312-.156.68-.156 1.105 0 .424.052.793.156 1.105.104.312.247.572.429.78.19.199.411.351.663.455.251.095.528.143.832.143Zm10.754-2.483c0 .563-.087 1.061-.26 1.495a3.197 3.197 0 0 1-.689 1.105c-.286.294-.628.52-1.027.676a3.538 3.538 0 0 1-1.3.234c-.477 0-.914-.078-1.313-.234a2.722 2.722 0 0 1-1.027-.741c-.286-.33-.511-.746-.676-1.248-.156-.503-.234-1.097-.234-1.781 0-.564.017-1.101.052-1.612.035-.512.113-.984.234-1.417.121-.442.295-.837.52-1.183.234-.356.546-.65.936-.884a2.54 2.54 0 0 1 .676-.286c.234-.07.468-.122.702-.156.243-.035.485-.057.728-.065l.715-.026c.347-.026.637-.07.871-.13.234-.061.442-.143.624-.247v1.04a2.009 2.009 0 0 1-.611.26 8.957 8.957 0 0 1-.767.117c-.494.043-.949.078-1.365.104-.407.017-.78.112-1.118.286a2.017 2.017 0 0 0-.923 1.092c-.173.476-.282 1.044-.325 1.703.451-1.04 1.3-1.56 2.548-1.56.425 0 .819.078 1.183.234.373.147.693.368.962.663.277.294.494.658.65 1.092.156.424.234.914.234 1.469Zm-3.276 2.483c.303 0 .581-.048.832-.143.26-.104.485-.256.676-.455a2.13 2.13 0 0 0 .442-.78c.104-.312.156-.681.156-1.105 0-.425-.052-.793-.156-1.105a2.003 2.003 0 0 0-.442-.767 1.698 1.698 0 0 0-.676-.455 2.156 2.156 0 0 0-.832-.156c-.598 0-1.096.199-1.495.598-.39.398-.585 1.014-.585 1.846 0 .433.052.81.156 1.131.104.312.247.572.429.78.191.208.412.364.663.468.251.095.529.143.832.143Zm9.115-2.093h-3.263v2.99h-1.144v-6.747h1.144v2.782h3.263v-2.782h1.144v6.747h-1.144v-2.99Zm8.012.741c0 .39-.07.728-.208 1.014-.139.286-.334.52-.585.702a2.595 2.595 0 0 1-.897.403c-.347.086-.724.13-1.131.13h-2.171v-6.747h1.144v2.353h1.105c.858 0 1.529.169 2.015.507.485.338.728.884.728 1.638Zm2.119 2.249h-1.144v-6.747h1.144v6.747Zm-5.967-3.419v2.444h1.027c.494 0 .892-.091 1.196-.273.312-.191.468-.503.468-.936 0-.442-.139-.759-.416-.949-.278-.191-.668-.286-1.17-.286h-1.105Zm10.821-4.225c-.347 0-.65-.044-.91-.13a2.002 2.002 0 0 1-.637-.377 1.709 1.709 0 0 1-.377-.559 2.06 2.06 0 0 1-.117-.702h1.144c0 .329.078.567.234.715.164.147.385.221.663.221.277 0 .494-.074.65-.221.156-.148.234-.386.234-.715h1.144c0 .494-.169.914-.507 1.261-.33.338-.837.507-1.521.507Zm-1.833 6.084 3.601-5.187h1.157v6.747h-1.144v-5.174l-3.588 5.174h-1.17v-6.747h1.144v5.187Zm9.482-5.187h5.408v6.747h-1.144v-5.772h-3.12v5.772h-1.144v-6.747Zm12.643 6.175a3.605 3.605 0 0 1-.351.221 3.982 3.982 0 0 1-.507.234 4.358 4.358 0 0 1-.676.169 4.183 4.183 0 0 1-.845.078c-1.135 0-1.997-.308-2.587-.923-.589-.616-.884-1.478-.884-2.587 0-.546.078-1.036.234-1.469.165-.434.39-.798.676-1.092a2.804 2.804 0 0 1 1.014-.689c.39-.165.815-.247 1.274-.247.486 0 .919.082 1.3.247.382.164.694.407.936.728.252.32.421.719.507 1.196.096.468.096 1.014 0 1.638h-4.758c.044.728.26 1.274.65 1.638.39.355.971.533 1.742.533.52 0 .967-.074 1.339-.221.373-.148.685-.308.936-.481v1.027Zm-2.678-5.291c-.494 0-.918.151-1.274.455-.355.303-.58.762-.676 1.378h3.627c.035-.624-.108-1.084-.429-1.378-.32-.304-.736-.455-1.248-.455Zm7.697 5.993c-.52 0-.97-.122-1.352-.364a2.666 2.666 0 0 1-.897-1.001v3.536h-1.144v-9.048h1.001l.117 1.313c.226-.442.529-.793.91-1.053.382-.26.854-.39 1.417-.39.39 0 .763.073 1.118.221.364.138.681.355.949.65.278.286.494.65.65 1.092.165.433.247.944.247 1.534 0 .598-.082 1.118-.247 1.56a3.246 3.246 0 0 1-.663 1.092 2.786 2.786 0 0 1-.962.65 3.2 3.2 0 0 1-1.144.208Zm-.169-1.027c.598 0 1.079-.204 1.443-.611.373-.416.559-1.04.559-1.872 0-.815-.186-1.43-.559-1.846-.364-.425-.845-.637-1.443-.637-.294 0-.572.052-.832.156-.251.104-.472.26-.663.468a2.263 2.263 0 0 0-.442.767 3.457 3.457 0 0 0-.156 1.092c0 .416.052.78.156 1.092.113.312.26.572.442.78.191.208.412.364.663.468.26.095.538.143.832.143Zm5.715-.663 3.601-5.187h1.157v6.747h-1.144v-5.174l-3.588 5.174h-1.17v-6.747h1.144v5.187Zm9.395 1.69c-.46 0-.889-.078-1.287-.234a2.998 2.998 0 0 1-1.04-.676 3.293 3.293 0 0 1-.676-1.105c-.165-.434-.247-.932-.247-1.495 0-.555.082-1.049.247-1.482.164-.442.39-.811.676-1.105.294-.295.641-.52 1.04-.676a3.495 3.495 0 0 1 1.287-.234c.468 0 .901.078 1.3.234.398.156.741.381 1.027.676.294.294.524.663.689 1.105.173.433.26.927.26 1.482 0 .563-.087 1.061-.26 1.495a3.212 3.212 0 0 1-.689 1.105c-.286.294-.629.52-1.027.676a3.538 3.538 0 0 1-1.3.234Zm0-1.027c.303 0 .58-.048.832-.143.26-.104.485-.256.676-.455.19-.208.338-.468.442-.78.104-.312.156-.681.156-1.105 0-.425-.052-.793-.156-1.105a2.015 2.015 0 0 0-.442-.767 1.698 1.698 0 0 0-.676-.455 2.16 2.16 0 0 0-.832-.156c-.304 0-.581.052-.832.156a1.704 1.704 0 0 0-.663.455 2.107 2.107 0 0 0-.429.767c-.104.312-.156.68-.156 1.105 0 .424.052.793.156 1.105.104.312.247.572.429.78.19.199.411.351.663.455.251.095.528.143.832.143Zm4.243-.078c.242-.148.433-.377.572-.689.138-.312.247-.707.325-1.183.078-.477.13-1.04.156-1.69.034-.65.065-1.387.091-2.21h4.641v5.772h1.014v2.899h-1.001l-.143-1.924h-5.018l-.117 1.924h-1.027v-2.899h.507Zm4.641 0v-4.797h-2.47c-.044 1.274-.126 2.296-.247 3.068-.113.762-.312 1.339-.598 1.729h3.315Z"/>
    <path fill="#262626" d="M437.967 88.25v-3.835c0-2.892-.357-3.738-1.462-6.142l-5.785-12.61h-4.095l7.41 16.12v6.467h3.932Zm2.568-11.668 4.81-10.92h-3.997l-4.81 10.92h3.997Zm41.08 11.993c1.82 0 3.315-.845 4.355-2.438l.195 2.113h3.575V65.663h-3.867v8.157c-.975-1.463-2.405-2.242-4.095-2.242-3.738 0-6.338 3.152-6.338 8.612 0 5.395 2.535 8.385 6.175 8.385Zm23.758-1.43v-3.152c-1.203.812-3.218 1.527-5.103 1.527-2.828 0-3.9-1.332-4.063-4.063h9.328V79.41c0-5.688-2.502-7.832-6.37-7.832-4.713 0-6.955 3.607-6.955 8.547 0 5.688 2.795 8.45 7.735 8.45 2.47 0 4.29-.65 5.428-1.43ZM456.72 77.102c0-3.965-2.015-5.46-6.11-5.46-2.535 0-4.582 1.073-5.752 1.918v3.348c1.235-1.008 3.12-2.178 5.297-2.178 1.852 0 2.697.65 2.697 2.405v1.04h-.617c-5.915 0-8.547 1.918-8.547 5.33 0 3.152 2.015 4.973 5.005 4.973 2.274 0 3.25-.748 3.997-1.528h.162c.033.422.163.975.293 1.3h3.77a41.038 41.038 0 0 1-.195-3.997v-7.151Zm7.02-.585c.715-.877 1.852-1.624 3.25-1.624 1.365 0 1.982.584 1.982 1.82V88.25h3.868V76.322c0-3.25-1.3-4.68-4.453-4.68-2.307 0-3.672.846-4.452 1.626h-.195l-.098-1.366h-3.77V88.25h3.868V76.517Zm53.527 11.733h4.356l-5.33-8.418 4.614-7.93h-3.867l-2.795 4.94-3.12-4.94h-4.355l4.94 7.833-5.135 8.515h3.932l3.283-5.525 3.477 5.525Zm-34.514-13.617c2.08 0 3.12 1.657 3.12 5.427 0 3.803-1.105 5.46-3.283 5.46-2.113 0-3.153-1.625-3.153-5.33 0-3.868 1.105-5.558 3.316-5.558v.001Zm16.347 0c1.918 0 2.503 1.592 2.503 3.64v.325h-5.395c.097-2.6 1.04-3.965 2.892-3.965Zm-46.247 9.717c-.488.715-1.398 1.3-2.763 1.3-1.625 0-2.438-.942-2.438-2.372 0-1.886 1.333-2.535 4.648-2.535h.552v3.607h.001Z"/>
    <path fill="#B4C9FF" d="M559.25 77c0-8.284-6.716-15-15-15-8.284 0-15 6.716-15 15 0 8.284 6.716 15 15 15 8.284 0 15-6.716 15-15Z"/>
    <path fill="#fff" d="M550.812 77a6.561 6.561 0 0 0-11.203-4.64 6.561 6.561 0 0 0 4.641 11.203A6.563 6.563 0 0 0 550.812 77Z"/>
    <path fill="url(#paint0_radial_1170_331)" fill-rule="evenodd" d="M544.058 62.001c-8.196.103-14.808 6.779-14.808 14.999a14.94 14.94 0 0 0 3.641 9.797l1.808-11.367c.361-2.27.542-3.405 1.07-4.327a5.79 5.79 0 0 1 1.816-1.944c.883-.59 2.003-.847 4.244-1.362l4.053-.932c1.141-.262 1.712-.393 2.127-.232.347.135.63.399.788.736.189.404.097.982-.087 2.138l-1.011 6.354v.002c-.217 1.36-.325 2.041-.641 2.594a3.477 3.477 0 0 1-1.09 1.166c-.53.354-1.202.508-2.546.817l-3.102.714-.528 3.337c-.185 1.158-.277 1.736-.088 2.14.158.338.441.602.789.737.415.16.986.03 2.128-.234l4.052-.933c2.24-.516 3.36-.774 4.243-1.364a5.793 5.793 0 0 0 1.816-1.945c.527-.921.707-2.056 1.068-4.327l1.585-9.987c.082-.514.155-.973.215-1.385A14.966 14.966 0 0 0 544.442 62h-.384v.001Z" clip-rule="evenodd"/>
    <path fill="#B4C9FF" fill-rule="evenodd" d="M541.826 62.195C534.695 63.353 529.25 69.54 529.25 77a14.943 14.943 0 0 0 3.65 9.807c.081-.55.166-1.1.256-1.65l.038-.236.062-.39h-.005l1.448-9.101c.361-2.27.542-3.406 1.07-4.327a5.79 5.79 0 0 1 1.816-1.945c.818-.545 1.839-.806 3.765-1.25l.476-.11v-5.604.001Zm2.599 29.804h-.35.35Z" clip-rule="evenodd"/>
    <path fill="url(#paint1_radial_1170_331)" fill-rule="evenodd" d="M544.078 92a14.963 14.963 0 0 1-11.178-5.193c.06-.412.133-.87.214-1.385l1.586-9.987c.361-2.27.541-3.405 1.068-4.327a5.805 5.805 0 0 1 1.815-1.945c.883-.59 2.003-.847 4.243-1.363l4.052-.934c1.142-.263 1.714-.394 2.129-.233.348.135.63.398.789.736.189.404.097.983-.088 2.14l-.528 3.337-3.102.714c-1.344.309-2.016.463-2.546.817a3.48 3.48 0 0 0-1.09 1.167c-.316.552-.424 1.233-.641 2.593v.003l-1.011 6.353c-.184 1.156-.276 1.735-.087 2.138.158.338.44.601.788.736.415.162.986.03 2.127-.232l4.053-.932c2.24-.515 3.361-.773 4.244-1.361a5.79 5.79 0 0 0 1.816-1.945c.528-.921.708-2.057 1.07-4.327l1.808-11.366A14.943 14.943 0 0 1 559.25 77c0 8.227-6.623 14.907-14.828 15h-.344Z" clip-rule="evenodd"/>
    <path fill="#B4C9FF" fill-rule="evenodd" d="M544.258 62h-.016l-.165.001h.346l-.165-.001Zm11.342 5.193A14.943 14.943 0 0 1 559.25 77c0 7.46-5.445 13.647-12.576 14.805v-5.602l.091-.021.386-.09c1.925-.444 2.946-.705 3.764-1.25a5.808 5.808 0 0 0 1.817-1.945c.527-.921.708-2.057 1.069-4.327l1.448-9.1h-.005l.062-.39.037-.235.064-.4c.073-.46.138-.876.193-1.252Z" clip-rule="evenodd"/>
    <path fill="#262626" fill-rule="evenodd" d="M575.695 88.575c2.437 0 4.095-.877 5.102-1.56v-3.152c-1.3.942-2.73 1.657-4.81 1.657-3.575 0-5.265-2.892-5.265-8.547 0-5.818 1.625-8.58 5.46-8.58 1.788 0 3.445.78 4.615 1.527v-3.152c-1.04-.748-2.73-1.43-4.81-1.43-6.012 0-9.262 4.42-9.262 11.634 0 7.41 3.38 11.603 8.97 11.603Zm11.575-22.913h-3.867V88.25h3.867V65.662Zm2.592 14.43c0-5.492 2.958-8.514 7.215-8.514 4.258 0 7.215 3.022 7.215 8.482 0 5.492-2.957 8.515-7.215 8.515-4.257 0-7.215-3.023-7.215-8.482v-.001Zm3.998 0c0 3.77 1.072 5.428 3.217 5.428s3.218-1.657 3.218-5.46c0-3.77-1.073-5.427-3.218-5.427s-3.217 1.657-3.217 5.46v-.001Zm21.967 3.543c-.715.877-1.853 1.625-3.25 1.625-1.365 0-1.983-.585-1.983-1.82V71.902h-3.867V83.83c0 3.25 1.3 4.68 4.452 4.68 2.308 0 3.673-.845 4.453-1.625h.195l.097 1.365h3.77V71.902h-3.867v11.733Zm17.002 2.502c-1.04 1.593-2.535 2.438-4.355 2.438-3.64 0-6.175-2.99-6.175-8.385 0-5.46 2.6-8.613 6.337-8.613 1.69 0 3.12.78 4.095 2.243v-8.158h3.868V88.25h-3.575l-.195-2.113Zm-.098-6.077c0-3.77-1.04-5.427-3.12-5.427-2.21 0-3.315 1.69-3.315 5.557 0 3.705 1.04 5.33 3.153 5.33 2.177 0 3.282-1.657 3.282-5.46Z" clip-rule="evenodd"/>
    <defs>
        <radialGradient id="paint0_radial_1170_331" cx="0" cy="0" r="1" gradientTransform="matrix(4.1246 18.7676 -38.3068 8.4188 541.315 60.766)" gradientUnits="userSpaceOnUse">
            <stop offset=".274" stop-color="#B3C8FF"/>
            <stop offset=".472" stop-color="#9EB9FF"/>
            <stop offset=".768" stop-color="#6F97FF"/>
            <stop offset="1" stop-color="#5282FF"/>
        </radialGradient>
        <radialGradient id="paint1_radial_1170_331" cx="0" cy="0" r="1" gradientTransform="matrix(-4.1246 -18.7676 38.3068 -8.4188 547.185 93.235)" gradientUnits="userSpaceOnUse">
            <stop offset=".274" stop-color="#B3C8FF"/>
            <stop offset=".472" stop-color="#9EB9FF"/>
            <stop offset=".768" stop-color="#6F97FF"/>
            <stop offset="1" stop-color="#5282FF"/>
        </radialGradient>
        <filter id="filter0_d_1170_331" width="489" height="534" x="193" y="24" color-interpolation-filters="sRGB" filterUnits="userSpaceOnUse">
            <feFlood flood-opacity="0" result="BackgroundImageFix"/>
            <feColorMatrix in="SourceAlpha" result="hardAlpha" values="0 0 0 0 0 0 0 0 0 0 0 0 0 0 0 0 0 0 127 0"/>
            <feOffset/>
            <feGaussianBlur stdDeviation="4"/>
            <feColorMatrix values="0 0 0 0 0.321569 0 0 0 0 0.509804 0 0 0 0 1 0 0 0 0.2 0"/>
            <feBlend in2="BackgroundImageFix" result="effect1_dropShadow_1170_331"/>
            <feBlend in="SourceGraphic" in2="effect1_dropShadow_1170_331" result="shape"/>
        </filter>
    </defs>
</svg>
