<svg xmlns="http://www.w3.org/2000/svg" width="1001" height="760" fill="none" viewBox="0 0 1001 760">
    <g filter="url(#filter0_d_52_592)">
        <rect width="989" height="329" x="6" y="174" fill="#fff" rx="5"/>
    </g>
    <rect width="180" height="110" x="39" y="208" fill="#DAF4F2" stroke="#5282FF" stroke-width="2" rx="4"/>
    <path fill="#000" fill-opacity=".85" d="M77.936 261.38a5.408 5.408 0 0 0-2.04.58c-.6.307-1.047.787-1.34 1.44v6.6h-1.76v-10.38h1.54l.18 2.26h.04a4.694 4.694 0 0 1 1.26-1.6c.56-.467 1.266-.753 2.12-.86v1.96Zm8.805 6.76c-.28.587-.714 1.08-1.3 1.48-.574.387-1.327.58-2.26.58-.96 0-1.74-.267-2.34-.8-.587-.547-.88-1.387-.88-2.52v-7.26h1.78v7.26c0 .347.046.633.14.86a1.477 1.477 0 0 0 1.02.8c.24.053.5.08.78.08.773 0 1.393-.173 1.86-.52.466-.347.866-.82 1.2-1.42v-7.06h1.76V270h-1.56l-.16-1.86h-.04Zm4.408-5.04h4.8v1.6h-4.8v-1.6Zm12.123 7.1c-.8 0-1.527-.12-2.18-.36a4.77 4.77 0 0 1-1.64-1.06 4.674 4.674 0 0 1-1.04-1.7c-.24-.667-.36-1.427-.36-2.28 0-.84.12-1.593.36-2.26a4.69 4.69 0 0 1 1.06-1.68 4.376 4.376 0 0 1 1.66-1.06c.653-.253 1.393-.38 2.22-.38.64 0 1.226.073 1.76.22.533.133.973.333 1.32.6v1.58a4.662 4.662 0 0 0-1.44-.62 5.926 5.926 0 0 0-1.62-.22c-1.214 0-2.107.313-2.68.94-.56.627-.84 1.587-.84 2.88s.273 2.253.82 2.88c.546.627 1.413.94 2.6.94.626 0 1.2-.073 1.72-.22a7.092 7.092 0 0 0 1.44-.6v1.58c-.374.227-.827.42-1.36.58-.52.16-1.12.24-1.8.24Zm13.565-1.08c-.147.107-.327.22-.54.34-.214.12-.474.24-.78.36a6.605 6.605 0 0 1-1.04.26c-.387.08-.82.12-1.3.12-1.747 0-3.074-.473-3.98-1.42-.907-.947-1.36-2.273-1.36-3.98 0-.84.12-1.593.36-2.26.253-.667.6-1.227 1.04-1.68.44-.467.96-.82 1.56-1.06.6-.253 1.253-.38 1.96-.38.746 0 1.413.127 2 .38a3.53 3.53 0 0 1 1.44 1.12c.386.493.646 1.107.78 1.84.146.72.146 1.56 0 2.52h-7.32c.066 1.12.4 1.96 1 2.52.6.547 1.493.82 2.68.82.8 0 1.486-.113 2.06-.34a7.235 7.235 0 0 0 1.44-.74v1.58Zm-4.12-8.14c-.76 0-1.414.233-1.96.7-.547.467-.894 1.173-1.04 2.12h5.58c.053-.96-.167-1.667-.66-2.12-.494-.467-1.134-.7-1.92-.7Zm11.385 0c-.8 0-1.453.187-1.96.56-.493.36-.893.827-1.2 1.4V270h-1.76v-10.38h1.66l.06 1.86h.04c.28-.6.72-1.093 1.32-1.48.6-.387 1.36-.58 2.28-.58 1.027 0 1.84.273 2.44.82.614.533.92 1.36.92 2.48V270h-1.76v-7.1c0-.72-.18-1.22-.54-1.5-.36-.28-.86-.42-1.5-.42Zm11.664 8.8c-.213.12-.487.22-.82.3a4.53 4.53 0 0 1-1.06.12c-.507 0-.94-.073-1.3-.22a2.511 2.511 0 0 1-.86-.58 2.46 2.46 0 0 1-.5-.84 3.496 3.496 0 0 1-.14-.98v-6.46h-1.24v-1.5h1.24v-2.18h1.76v2.18h3.02v1.5h-3.02v6.24c0 .44.107.76.32.96.227.2.62.3 1.18.3.52 0 .993-.147 1.42-.44v1.6Zm7.482-8.4a5.405 5.405 0 0 0-2.04.58c-.6.307-1.047.787-1.34 1.44v6.6h-1.76v-10.38h1.54l.18 2.26h.04a4.686 4.686 0 0 1 1.26-1.6c.56-.467 1.267-.753 2.12-.86v1.96Zm8.03 6.64c-.12.24-.274.493-.46.76-.187.253-.42.487-.7.7a3.55 3.55 0 0 1-1 .52c-.374.133-.814.2-1.32.2-.934 0-1.687-.26-2.26-.78-.574-.533-.86-1.293-.86-2.28 0-1.133.393-1.967 1.18-2.5.8-.533 1.933-.8 3.4-.8h1.94v-.86c0-.72-.187-1.233-.56-1.54-.374-.307-1.014-.46-1.92-.46-.64 0-1.247.107-1.82.32-.574.2-1.087.433-1.54.7v-1.58c.373-.227.873-.447 1.5-.66.64-.227 1.34-.34 2.1-.34 1.306 0 2.3.273 2.98.82.68.533 1.02 1.367 1.02 2.5v6c.013.147.02.3.02.46.013.16.026.313.04.46.013.133.026.247.04.34h-1.6a9.18 9.18 0 0 1-.12-.78c-.027-.347-.04-.647-.04-.9l-.02-.3Zm-3.1.6c.546 0 1.013-.113 1.4-.34.386-.227.7-.487.94-.78.24-.307.413-.6.52-.88.106-.293.16-.5.16-.62v-.76h-1.76c-1.054 0-1.82.153-2.3.46-.467.293-.7.74-.7 1.34 0 .467.14.847.42 1.14.28.293.72.44 1.32.44Zm9.307-12.96V270h-1.76v-14.34h1.76Zm8.869 14.34h-1.82v-12.08l-3.96 3.04v-2.02l4.26-3.28h1.52V270Zm4.756-6.9h4.8v1.6h-4.8v-1.6Zm13.527 4.92c-.12.24-.273.493-.46.76a3.462 3.462 0 0 1-1.7 1.22c-.373.133-.813.2-1.32.2-.933 0-1.686-.26-2.26-.78-.573-.533-.86-1.293-.86-2.28 0-1.133.394-1.967 1.18-2.5.8-.533 1.934-.8 3.4-.8h1.94v-.86c0-.72-.186-1.233-.56-1.54-.373-.307-1.013-.46-1.92-.46-.64 0-1.246.107-1.82.32-.573.2-1.086.433-1.54.7v-1.58c.374-.227.874-.447 1.5-.66.64-.227 1.34-.34 2.1-.34 1.307 0 2.3.273 2.98.82.68.533 1.02 1.367 1.02 2.5v6c.014.147.02.3.02.46l.04.46c.014.133.027.247.04.34h-1.6a9.18 9.18 0 0 1-.12-.78c-.026-.347-.04-.647-.04-.9l-.02-.3Zm-3.1.6c.547 0 1.014-.113 1.4-.34.387-.227.7-.487.94-.78.24-.307.414-.6.52-.88.107-.293.16-.5.16-.62v-.76h-1.76c-1.053 0-1.82.153-2.3.46-.466.293-.7.74-.7 1.34 0 .467.14.847.42 1.14.28.293.72.44 1.32.44Z"/>
    <rect width="180" height="110" x="782" y="208" fill="#FFF5CC" stroke="#5282FF" stroke-width="2" rx="4"/>
    <path fill="#000" fill-opacity=".85" d="M821.209 259.38a5.405 5.405 0 0 0-2.04.58c-.6.307-1.047.787-1.34 1.44v6.6h-1.76v-10.38h1.54l.18 2.26h.04a4.686 4.686 0 0 1 1.26-1.6c.56-.467 1.267-.753 2.12-.86v1.96Zm8.805 6.76c-.28.587-.713 1.08-1.3 1.48-.573.387-1.327.58-2.26.58-.96 0-1.74-.267-2.34-.8-.587-.547-.88-1.387-.88-2.52v-7.26h1.78v7.26c0 .347.047.633.14.86.107.213.247.387.42.52s.373.227.6.28c.24.053.5.08.78.08.773 0 1.393-.173 1.86-.52.467-.347.867-.82 1.2-1.42v-7.06h1.76V268h-1.56l-.16-1.86h-.04Zm4.409-5.04h4.8v1.6h-4.8v-1.6Zm12.122 7.1c-.8 0-1.527-.12-2.18-.36a4.766 4.766 0 0 1-1.64-1.06 4.68 4.68 0 0 1-1.04-1.7c-.24-.667-.36-1.427-.36-2.28 0-.84.12-1.593.36-2.26a4.692 4.692 0 0 1 1.06-1.68 4.38 4.38 0 0 1 1.66-1.06c.653-.253 1.393-.38 2.22-.38.64 0 1.227.073 1.76.22.533.133.973.333 1.32.6v1.58a4.662 4.662 0 0 0-1.44-.62 5.926 5.926 0 0 0-1.62-.22c-1.213 0-2.107.313-2.68.94-.56.627-.84 1.587-.84 2.88s.273 2.253.82 2.88c.547.627 1.413.94 2.6.94.627 0 1.2-.073 1.72-.22a7.092 7.092 0 0 0 1.44-.6v1.58a5.86 5.86 0 0 1-1.36.58c-.52.16-1.12.24-1.8.24Zm13.565-1.08c-.147.107-.327.22-.54.34-.213.12-.473.24-.78.36a6.577 6.577 0 0 1-1.04.26c-.387.08-.82.12-1.3.12-1.747 0-3.073-.473-3.98-1.42s-1.36-2.273-1.36-3.98c0-.84.12-1.593.36-2.26.253-.667.6-1.227 1.04-1.68.44-.467.96-.82 1.56-1.06.6-.253 1.253-.38 1.96-.38.747 0 1.413.127 2 .38a3.518 3.518 0 0 1 1.44 1.12c.387.493.647 1.107.78 1.84.147.72.147 1.56 0 2.52h-7.32c.067 1.12.4 1.96 1 2.52.6.547 1.493.82 2.68.82.8 0 1.487-.113 2.06-.34a7.235 7.235 0 0 0 1.44-.74v1.58Zm-4.12-8.14c-.76 0-1.413.233-1.96.7-.547.467-.893 1.173-1.04 2.12h5.58c.053-.96-.167-1.667-.66-2.12-.493-.467-1.133-.7-1.92-.7Zm11.386 0c-.8 0-1.454.187-1.96.56a4.08 4.08 0 0 0-1.2 1.4V268h-1.76v-10.38h1.66l.06 1.86h.04c.28-.6.72-1.093 1.32-1.48.6-.387 1.36-.58 2.28-.58 1.026 0 1.84.273 2.44.82.613.533.92 1.36.92 2.48V268h-1.76v-7.1c0-.72-.18-1.22-.54-1.5-.36-.28-.86-.42-1.5-.42Zm11.664 8.8c-.214.12-.487.22-.82.3-.334.08-.687.12-1.06.12-.507 0-.94-.073-1.3-.22a2.502 2.502 0 0 1-.86-.58 2.445 2.445 0 0 1-.5-.84 3.46 3.46 0 0 1-.14-.98v-6.46h-1.24v-1.5h1.24v-2.18h1.76v2.18h3.02v1.5h-3.02v6.24c0 .44.106.76.32.96.226.2.62.3 1.18.3.52 0 .993-.147 1.42-.44v1.6Zm7.481-8.4a5.415 5.415 0 0 0-2.04.58c-.6.307-1.046.787-1.34 1.44v6.6h-1.76v-10.38h1.54l.18 2.26h.04a4.71 4.71 0 0 1 1.26-1.6c.56-.467 1.267-.753 2.12-.86v1.96Zm8.03 6.64c-.12.24-.273.493-.46.76a3.462 3.462 0 0 1-1.7 1.22c-.373.133-.813.2-1.32.2-.933 0-1.686-.26-2.26-.78-.573-.533-.86-1.293-.86-2.28 0-1.133.394-1.967 1.18-2.5.8-.533 1.934-.8 3.4-.8h1.94v-.86c0-.72-.186-1.233-.56-1.54-.373-.307-1.013-.46-1.92-.46-.64 0-1.246.107-1.82.32-.573.2-1.086.433-1.54.7v-1.58c.374-.227.874-.447 1.5-.66.64-.227 1.34-.34 2.1-.34 1.307 0 2.3.273 2.98.82.68.533 1.02 1.367 1.02 2.5v6c.014.147.02.3.02.46l.04.46c.014.133.027.247.04.34h-1.6a9.18 9.18 0 0 1-.12-.78c-.026-.347-.04-.647-.04-.9l-.02-.3Zm-3.1.6c.547 0 1.014-.113 1.4-.34.387-.227.7-.487.94-.78.24-.307.414-.6.52-.88.107-.293.16-.5.16-.62v-.76h-1.76c-1.053 0-1.82.153-2.3.46-.466.293-.7.74-.7 1.34 0 .467.14.847.42 1.14.28.293.72.44 1.32.44Zm9.308-12.96V268h-1.76v-14.34h1.76Zm8.869 14.34h-1.82v-12.08l-3.96 3.04v-2.02l4.26-3.28h1.52V268Zm4.756-6.9h4.8v1.6h-4.8v-1.6Zm12.122 7.1c-.8 0-1.527-.12-2.18-.36a4.766 4.766 0 0 1-1.64-1.06 4.68 4.68 0 0 1-1.04-1.7c-.24-.667-.36-1.427-.36-2.28 0-.84.12-1.593.36-2.26a4.692 4.692 0 0 1 1.06-1.68 4.38 4.38 0 0 1 1.66-1.06c.653-.253 1.393-.38 2.22-.38.64 0 1.227.073 1.76.22.533.133.973.333 1.32.6v1.58a4.662 4.662 0 0 0-1.44-.62 5.926 5.926 0 0 0-1.62-.22c-1.213 0-2.107.313-2.68.94-.56.627-.84 1.587-.84 2.88s.273 2.253.82 2.88c.547.627 1.413.94 2.6.94.627 0 1.2-.073 1.72-.22a7.092 7.092 0 0 0 1.44-.6v1.58a5.86 5.86 0 0 1-1.36.58c-.52.16-1.12.24-1.8.24Z"/>
    <rect width="180" height="110" x="783" y="363" fill="#F7E0FF" stroke="#5282FF" stroke-dasharray="8 8" stroke-width="2" rx="4"/>
    <path fill="#000" fill-opacity=".85" d="M809.113 416.38c-.76-.04-1.46.1-2.1.42-.626.307-1.113.84-1.46 1.6l-1.4 6.6h-1.72l2.2-10.38h1.5l-.3 2.26h.04a4.502 4.502 0 0 1 1.42-1.76c.614-.453 1.354-.687 2.22-.7l-.4 1.96Zm4.549 7.32c.4 0 .753-.053 1.06-.16.32-.107.6-.253.84-.44.253-.187.48-.4.68-.64.2-.253.386-.513.56-.78l1.5-7.06h1.72l-2.2 10.38h-1.52l.24-1.86h-.04a5.868 5.868 0 0 1-1.38 1.48c-.534.387-1.22.58-2.06.58-1.08 0-1.88-.333-2.4-1-.52-.68-.66-1.62-.42-2.82l1.44-6.76h1.72l-1.42 6.66c-.094.44-.114.813-.06 1.12.053.307.16.56.32.76.16.187.36.327.6.42.253.08.526.12.82.12Zm8.214-5.6h4.7l-.32 1.6h-4.72l.34-1.6Zm11.024 7.1c-.627 0-1.22-.093-1.78-.28a4.119 4.119 0 0 1-1.48-.86 4.302 4.302 0 0 1-1-1.46c-.253-.6-.38-1.313-.38-2.14 0-.867.133-1.667.4-2.4a5.57 5.57 0 0 1 1.14-1.9 5.2 5.2 0 0 1 1.78-1.28c.707-.307 1.493-.46 2.36-.46.587 0 1.12.073 1.6.22.493.133.9.313 1.22.54l-.32 1.48c-.427-.24-.84-.42-1.24-.54-.4-.133-.84-.2-1.32-.2-.667 0-1.247.12-1.74.36-.48.24-.88.56-1.2.96-.307.4-.54.867-.7 1.4a6.291 6.291 0 0 0-.22 1.68c0 1.173.293 2.033.88 2.58.6.533 1.367.8 2.3.8.36 0 .767-.04 1.22-.12a6.369 6.369 0 0 0 1.4-.46l-.32 1.52c-.427.2-.867.34-1.32.42-.44.093-.867.14-1.28.14Zm12.677-.58c-.294.133-.68.26-1.16.38-.48.133-1.067.2-1.76.2-.774 0-1.474-.093-2.1-.28a4.27 4.27 0 0 1-1.6-.9c-.44-.4-.78-.9-1.02-1.5s-.36-1.3-.36-2.1c0-.893.14-1.707.42-2.44.293-.733.68-1.36 1.16-1.88a5.243 5.243 0 0 1 1.72-1.24 5.258 5.258 0 0 1 2.14-.44c.76 0 1.426.14 2 .42.573.28 1.02.68 1.34 1.2.333.507.52 1.12.56 1.84.04.72-.094 1.52-.4 2.4h-7.18v.12c0 1.133.293 1.967.88 2.5.586.533 1.446.8 2.58.8.6 0 1.166-.06 1.7-.18.546-.12 1.013-.253 1.4-.4l-.32 1.5Zm-2.7-8.7c-.84 0-1.554.26-2.14.78-.574.52-.974 1.22-1.2 2.1h5.68c.08-.48.073-.9-.02-1.26-.08-.36-.234-.66-.46-.9-.214-.24-.48-.42-.8-.54a3 3 0 0 0-1.06-.18Zm11.701 0a3.66 3.66 0 0 0-1.12.16 3.335 3.335 0 0 0-.9.44 4.14 4.14 0 0 0-.7.66c-.213.24-.406.493-.58.76l-1.5 7.06h-1.72l2.2-10.38h1.62l-.34 1.86h.04c.4-.587.894-1.073 1.48-1.46.587-.4 1.314-.6 2.18-.6 1.107 0 1.914.353 2.42 1.06.507.707.614 1.733.32 3.08l-1.38 6.44h-1.72l1.38-6.48c.107-.507.14-.927.1-1.26-.026-.333-.12-.6-.28-.8-.16-.2-.366-.34-.62-.42a2.922 2.922 0 0 0-.88-.12Zm9.692 9.02c-.427.173-.914.26-1.46.26-.534 0-.987-.08-1.36-.24a2.205 2.205 0 0 1-.88-.7 2.52 2.52 0 0 1-.38-1.06 3.855 3.855 0 0 1 .08-1.34l1.26-5.82h-1.22l.32-1.42h1.2l.48-2.18h1.72l-.48 2.18h2.98l-.32 1.42h-2.96l-1.28 5.92c-.267 1.16.133 1.74 1.2 1.74.24 0 .48-.013.72-.04.24-.04.453-.093.64-.16l-.26 1.44Zm8.945-8.56c-.76-.04-1.46.1-2.1.42-.627.307-1.113.84-1.46 1.6l-1.4 6.6h-1.72l2.2-10.38h1.5l-.3 2.26h.04a4.493 4.493 0 0 1 1.42-1.76c.613-.453 1.353-.687 2.22-.7l-.4 1.96Zm6.393 8.62c0-.147.007-.38.02-.7.027-.333.073-.687.14-1.06-.147.24-.32.48-.52.72-.187.24-.413.453-.68.64a3.385 3.385 0 0 1-.88.42c-.32.12-.68.18-1.08.18-.36 0-.72-.053-1.08-.16a2.678 2.678 0 0 1-.98-.48c-.28-.24-.513-.54-.7-.9-.187-.373-.28-.82-.28-1.34 0-1.093.413-1.947 1.24-2.56s2.013-.92 3.56-.92h2.3l.04-.14c.12-.547.14-1 .06-1.36-.067-.36-.213-.64-.44-.84a1.696 1.696 0 0 0-.84-.44 4.395 4.395 0 0 0-1.14-.14c-.6 0-1.147.06-1.64.18-.493.12-.973.3-1.44.54l.3-1.48c.387-.227.84-.407 1.36-.54.533-.133 1.14-.2 1.82-.2.653 0 1.24.08 1.76.24.533.16.967.42 1.3.78.347.36.573.827.68 1.4.107.573.073 1.267-.1 2.08l-.96 4.4c-.027.093-.053.22-.08.38a7.301 7.301 0 0 1-.06.48c-.027.16-.053.313-.08.46-.013.147-.02.267-.02.36h-1.58Zm-2.62-1.2c.467 0 .88-.087 1.24-.26.36-.187.667-.407.92-.66.267-.267.48-.533.64-.8.16-.28.273-.513.34-.7l.26-1.22h-2.16c-1.053 0-1.807.193-2.26.58a1.86 1.86 0 0 0-.68 1.48c0 .52.147.913.44 1.18.307.267.727.4 1.26.4Zm11.572-13.14L885.52 425h-1.72l3.04-14.34h1.72Zm5.312 14.34h-1.78l2.56-12.08-4.56 3.04.44-2.02 4.88-3.28h1.5l-3.04 14.34Zm6.656-6.9h4.7l-.32 1.6h-4.72l.34-1.6Zm13.587 5.46c-.387.48-.853.873-1.4 1.18-.547.307-1.18.46-1.9.46-.6 0-1.147-.1-1.64-.3a3.571 3.571 0 0 1-1.26-.9c-.347-.4-.62-.88-.82-1.44-.187-.573-.28-1.22-.28-1.94a7.8 7.8 0 0 1 .34-2.28c.24-.747.58-1.407 1.02-1.98.453-.587 1-1.053 1.64-1.4.653-.36 1.4-.54 2.24-.54.84 0 1.553.187 2.14.56.587.373 1.02.9 1.3 1.58l1.24-5.9h1.74l-3.06 14.34h-1.5l.2-1.44Zm.68-4.58c0-1.027-.247-1.793-.74-2.3-.48-.507-1.127-.76-1.94-.76-.6 0-1.12.127-1.56.38a3.29 3.29 0 0 0-1.08.98c-.28.413-.493.893-.64 1.44a7.166 7.166 0 0 0-.2 1.7c0 1.12.24 1.947.72 2.48.48.533 1.113.8 1.9.8.627 0 1.16-.14 1.6-.42.453-.293.82-.667 1.1-1.12.293-.453.507-.96.64-1.52s.2-1.113.2-1.66Zm10.773 8.8c-.56-.787-.993-1.713-1.3-2.78-.307-1.08-.46-2.307-.46-3.68 0-2.267.44-4.387 1.32-6.36a14.772 14.772 0 0 1 3.76-5.08h1.9c-.747.64-1.447 1.38-2.1 2.22-.64.84-1.2 1.76-1.68 2.76-.467 1-.84 2.067-1.12 3.2a15.384 15.384 0 0 0-.4 3.54c0 1.253.153 2.4.46 3.44.32 1.04.76 1.953 1.32 2.74h-1.7Zm9.854-9.98-.98-2.68-1.84 2.18-1.16-1.16 2.3-1.78-2.68-1.08.76-1.44 2.38 1.62.22-2.88 1.6.28-.78 2.78 2.78-.74.24 1.62-2.9.12 1.52 2.44-1.46.72Zm6.471-7.92c.56.787.993 1.72 1.3 2.8.307 1.067.46 2.287.46 3.66 0 2.267-.447 4.387-1.34 6.36a14.555 14.555 0 0 1-3.74 5.08h-1.9c.747-.64 1.44-1.38 2.08-2.22a14.42 14.42 0 0 0 1.68-2.76c.48-1 .853-2.067 1.12-3.2.28-1.133.42-2.313.42-3.54 0-1.253-.16-2.4-.48-3.44-.307-1.04-.74-1.953-1.3-2.74h1.7Z"/>
    <rect width="180" height="110" x="39" y="363" fill="#E3EBFF" stroke="#5282FF" stroke-width="2" rx="4"/>
    <path fill="#000" fill-opacity=".85" d="M77.203 416.38a5.41 5.41 0 0 0-2.04.58c-.6.307-1.047.787-1.34 1.44v6.6h-1.76v-10.38h1.54l.18 2.26h.04a4.696 4.696 0 0 1 1.26-1.6c.56-.467 1.267-.753 2.12-.86v1.96Zm8.805 6.76c-.28.587-.713 1.08-1.3 1.48-.573.387-1.326.58-2.26.58-.96 0-1.74-.267-2.34-.8-.587-.547-.88-1.387-.88-2.52v-7.26h1.78v7.26c0 .347.047.633.14.86a1.477 1.477 0 0 0 1.02.8c.24.053.5.08.78.08.774 0 1.394-.173 1.86-.52.467-.347.867-.82 1.2-1.42v-7.06h1.76V425h-1.56l-.16-1.86h-.04Zm4.409-5.04h4.8v1.6h-4.8v-1.6Zm12.122 7.1c-.8 0-1.527-.12-2.18-.36a4.77 4.77 0 0 1-1.64-1.06 4.675 4.675 0 0 1-1.04-1.7c-.24-.667-.36-1.427-.36-2.28 0-.84.12-1.593.36-2.26a4.693 4.693 0 0 1 1.06-1.68 4.381 4.381 0 0 1 1.66-1.06c.653-.253 1.393-.38 2.22-.38.64 0 1.227.073 1.76.22.533.133.973.333 1.32.6v1.58a4.662 4.662 0 0 0-1.44-.62 5.926 5.926 0 0 0-1.62-.22c-1.213 0-2.107.313-2.68.94-.56.627-.84 1.587-.84 2.88s.273 2.253.82 2.88c.547.627 1.413.94 2.6.94.627 0 1.2-.073 1.72-.22a7.092 7.092 0 0 0 1.44-.6v1.58a5.86 5.86 0 0 1-1.36.58c-.52.16-1.12.24-1.8.24Zm13.565-1.08c-.146.107-.326.22-.54.34-.213.12-.473.24-.78.36a6.55 6.55 0 0 1-1.04.26c-.386.08-.82.12-1.3.12-1.746 0-3.073-.473-3.98-1.42-.906-.947-1.36-2.273-1.36-3.98 0-.84.12-1.593.36-2.26.254-.667.6-1.227 1.04-1.68.44-.467.96-.82 1.56-1.06.6-.253 1.254-.38 1.96-.38.747 0 1.414.127 2 .38a3.518 3.518 0 0 1 1.44 1.12c.387.493.647 1.107.78 1.84.147.72.147 1.56 0 2.52h-7.32c.067 1.12.4 1.96 1 2.52.6.547 1.494.82 2.68.82.8 0 1.487-.113 2.06-.34.574-.227 1.054-.473 1.44-.74v1.58Zm-4.12-8.14c-.76 0-1.413.233-1.96.7-.546.467-.893 1.173-1.04 2.12h5.58c.054-.96-.166-1.667-.66-2.12-.493-.467-1.133-.7-1.92-.7Zm11.386 0c-.8 0-1.454.187-1.96.56a4.08 4.08 0 0 0-1.2 1.4V425h-1.76v-10.38h1.66l.06 1.86h.04c.28-.6.72-1.093 1.32-1.48.6-.387 1.36-.58 2.28-.58 1.026 0 1.84.273 2.44.82.613.533.92 1.36.92 2.48V425h-1.76v-7.1c0-.72-.18-1.22-.54-1.5-.36-.28-.86-.42-1.5-.42Zm11.664 8.8c-.214.12-.487.22-.82.3-.334.08-.687.12-1.06.12-.507 0-.94-.073-1.3-.22a2.502 2.502 0 0 1-.86-.58 2.445 2.445 0 0 1-.5-.84 3.46 3.46 0 0 1-.14-.98v-6.46h-1.24v-1.5h1.24v-2.18h1.76v2.18h3.02v1.5h-3.02v6.24c0 .44.106.76.32.96.226.2.62.3 1.18.3.52 0 .993-.147 1.42-.44v1.6Zm7.482-8.4a5.405 5.405 0 0 0-2.04.58c-.6.307-1.047.787-1.34 1.44v6.6h-1.76v-10.38h1.54l.18 2.26h.04a4.686 4.686 0 0 1 1.26-1.6c.56-.467 1.266-.753 2.12-.86v1.96Zm8.029 6.64c-.12.24-.273.493-.46.76a3.462 3.462 0 0 1-1.7 1.22c-.373.133-.813.2-1.32.2-.933 0-1.686-.26-2.26-.78-.573-.533-.86-1.293-.86-2.28 0-1.133.394-1.967 1.18-2.5.8-.533 1.934-.8 3.4-.8h1.94v-.86c0-.72-.186-1.233-.56-1.54-.373-.307-1.013-.46-1.92-.46-.64 0-1.246.107-1.82.32-.573.2-1.086.433-1.54.7v-1.58c.374-.227.874-.447 1.5-.66.64-.227 1.34-.34 2.1-.34 1.307 0 2.3.273 2.98.82.68.533 1.02 1.367 1.02 2.5v6c.014.147.02.3.02.46l.04.46c.014.133.027.247.04.34h-1.6a9.18 9.18 0 0 1-.12-.78c-.026-.347-.04-.647-.04-.9l-.02-.3Zm-3.1.6c.547 0 1.014-.113 1.4-.34.387-.227.7-.487.94-.78.24-.307.414-.6.52-.88.107-.293.16-.5.16-.62v-.76h-1.76c-1.053 0-1.82.153-2.3.46-.466.293-.7.74-.7 1.34 0 .467.14.847.42 1.14.28.293.72.44 1.32.44Zm9.308-12.96V425h-1.76v-14.34h1.76Zm8.869 14.34h-1.82v-12.08l-3.96 3.04v-2.02l4.26-3.28h1.52V425Zm4.756-6.9h4.8v1.6h-4.8v-1.6Zm17.307 1.7c0 .92-.127 1.72-.38 2.4-.254.667-.594 1.227-1.02 1.68-.427.44-.92.773-1.48 1a4.91 4.91 0 0 1-1.76.32c-.8 0-1.5-.187-2.1-.56-.587-.387-1.054-.92-1.4-1.6l-.06 1.96h-1.66v-14.34h1.76l-.04 5.98c.346-.68.813-1.22 1.4-1.62.586-.4 1.313-.6 2.18-.6.6 0 1.173.113 1.72.34.56.213 1.046.547 1.46 1 .426.44.76 1 1 1.68.253.667.38 1.453.38 2.36Zm-4.9 3.82c.92 0 1.66-.313 2.22-.94.573-.64.86-1.6.86-2.88 0-1.253-.287-2.2-.86-2.84-.56-.653-1.3-.98-2.22-.98-.454 0-.88.08-1.28.24-.387.16-.727.4-1.02.72-.28.307-.507.7-.68 1.18-.16.48-.24 1.04-.24 1.68 0 .64.08 1.2.24 1.68.173.48.4.88.68 1.2.293.32.633.56 1.02.72.4.147.826.22 1.28.22Z"/>
    <rect width="180" height="80" x="189" y="564" fill="#fff" stroke="#FF5958" stroke-width="2" rx="4"/>
    <path fill="#000" fill-opacity=".85" d="M237.537 579.66h4.58c1.627 0 2.887.34 3.78 1.02.907.667 1.36 1.713 1.36 3.14 0 .813-.133 1.513-.4 2.1a3.695 3.695 0 0 1-1.08 1.42c-.466.373-1.026.647-1.68.82-.64.173-1.353.26-2.14.26h-2.54V594h-1.88v-14.34Zm1.88 1.72v5.34h2.54c.507 0 .967-.053 1.38-.16a2.885 2.885 0 0 0 1.06-.5c.307-.227.54-.52.7-.88.174-.373.26-.82.26-1.34 0-.867-.28-1.493-.84-1.88-.56-.387-1.36-.58-2.4-.58h-2.7Zm13.957 12.82c-.707 0-1.367-.12-1.98-.36a4.607 4.607 0 0 1-1.6-1.04 5.063 5.063 0 0 1-1.04-1.7c-.254-.667-.38-1.433-.38-2.3 0-.853.126-1.613.38-2.28.253-.68.6-1.247 1.04-1.7.453-.453.986-.8 1.6-1.04a5.383 5.383 0 0 1 1.98-.36c.72 0 1.386.12 2 .36.613.24 1.14.587 1.58 1.04.453.453.806 1.02 1.06 1.7.266.667.4 1.427.4 2.28 0 .867-.134 1.633-.4 2.3a4.92 4.92 0 0 1-1.06 1.7c-.44.453-.967.8-1.58 1.04-.614.24-1.28.36-2 .36Zm0-1.58a3.58 3.58 0 0 0 1.28-.22c.4-.16.746-.393 1.04-.7.293-.32.52-.72.68-1.2.16-.48.24-1.047.24-1.7s-.08-1.22-.24-1.7c-.16-.48-.387-.873-.68-1.18a2.622 2.622 0 0 0-1.04-.7 3.32 3.32 0 0 0-1.28-.24c-.467 0-.894.08-1.28.24-.387.147-.727.38-1.02.7-.28.307-.5.7-.66 1.18-.16.48-.24 1.047-.24 1.7s.08 1.22.24 1.7c.16.48.38.88.66 1.2.293.307.633.54 1.02.7.386.147.813.22 1.28.22Zm7.425-12.96h4.58c1.627 0 2.887.34 3.78 1.02.907.667 1.36 1.713 1.36 3.14 0 .813-.133 1.513-.4 2.1a3.695 3.695 0 0 1-1.08 1.42 4.502 4.502 0 0 1-1.68.82c-.64.173-1.353.26-2.14.26h-2.54V594h-1.88v-14.34Zm1.88 1.72v5.34h2.54c.507 0 .967-.053 1.38-.16a2.893 2.893 0 0 0 1.06-.5c.307-.227.54-.52.7-.88.173-.373.26-.82.26-1.34 0-.867-.28-1.493-.84-1.88-.56-.387-1.36-.58-2.4-.58h-2.7ZM288.941 594h-2.56l-7.2-12.04V594h-1.78v-14.34h2.54l7.2 12.04v-12.04h1.8V594Zm9.363.2c-.96 0-1.86-.16-2.7-.48a6.212 6.212 0 0 1-2.18-1.44c-.614-.627-1.1-1.4-1.46-2.32-.347-.92-.52-1.98-.52-3.18 0-1.2.173-2.253.52-3.16.36-.92.846-1.68 1.46-2.28a5.91 5.91 0 0 1 2.18-1.38 7.52 7.52 0 0 1 2.7-.48c.973 0 1.88.16 2.72.48.84.307 1.566.767 2.18 1.38.613.613 1.093 1.38 1.44 2.3.346.907.52 1.96.52 3.16 0 1.187-.174 2.24-.52 3.16-.347.92-.827 1.693-1.44 2.32a6.22 6.22 0 0 1-2.18 1.44c-.84.32-1.747.48-2.72.48Zm0-1.7c.693 0 1.333-.1 1.92-.3a3.989 3.989 0 0 0 1.52-.98c.44-.453.78-1.04 1.02-1.76.253-.72.38-1.593.38-2.62 0-1.027-.127-1.9-.38-2.62-.24-.72-.58-1.3-1.02-1.74a3.705 3.705 0 0 0-1.52-.98 5.59 5.59 0 0 0-1.92-.32c-.694 0-1.334.107-1.92.32-.587.2-1.1.527-1.54.98-.427.44-.767 1.02-1.02 1.74-.24.72-.36 1.593-.36 2.62 0 1.027.12 1.9.36 2.62.253.72.593 1.307 1.02 1.76.44.44.953.767 1.54.98.586.2 1.226.3 1.92.3Zm9.37-12.84h4.8c1.693 0 2.98.333 3.86 1 .893.653 1.34 1.687 1.34 3.1 0 1.253-.307 2.213-.92 2.88-.6.667-1.393 1.107-2.38 1.32l3.9 6.04h-2.12l-3.74-5.82h-2.86V594h-1.88v-14.34Zm1.88 1.72v5.1h2.74c.507 0 .967-.047 1.38-.14a2.844 2.844 0 0 0 1.08-.46c.307-.213.54-.493.7-.84.173-.36.26-.8.26-1.32 0-.853-.28-1.453-.84-1.8-.56-.36-1.36-.54-2.4-.54h-2.92Zm11.147-1.72h4.82c.96 0 1.854.113 2.68.34.827.227 1.547.6 2.16 1.12.614.52 1.094 1.207 1.44 2.06.347.853.52 1.907.52 3.16 0 1.267-.18 2.38-.54 3.34-.346.947-.833 1.74-1.46 2.38a6.015 6.015 0 0 1-2.22 1.46c-.853.32-1.786.48-2.8.48h-4.6v-14.34Zm1.88 1.72v10.92h2.72c.734 0 1.407-.113 2.02-.34a4.083 4.083 0 0 0 1.58-1.04c.44-.48.78-1.087 1.02-1.82.24-.733.36-1.607.36-2.62 0-1-.12-1.827-.36-2.48-.24-.667-.573-1.193-1-1.58a3.335 3.335 0 0 0-1.5-.8 7.196 7.196 0 0 0-1.9-.24h-2.94Z"/>
    <g clip-path="url(#clip0_52_592)">
        <path fill="#5282FF" fill-rule="evenodd" d="M267.374 631.869v-3.741c0-.624.538-1.131 1.201-1.131h.924v-2.922c-.003-.019-.003-.046-.003-.075v-.003c0-.274.133-.525.374-.725a.992.992 0 0 1 .691-.275h.003c.019 0 .039.003.054.003.028 0 .053-.003.079-.003h7.3v-2h-11.688c-2.93 0-5.309-1.997-5.309-4.997 0-2.757 2.745-5 5.674-5h.805c.493-2.283 2.64-4.003 5.209-4.003.578 0 1.134.088 1.655.251 1.139-2.499 3.776-4.251 6.844-4.251 4.105 0 7.439 3.136 7.439 7 0 .342-.028.675-.076 1.003h1.139c2.929 0 5.309 2.24 5.309 4.997V616c0 2.757-2.38 4.997-5.309 4.997h-9.564v2h7.295c.022 0 .048.003.079.003.017 0 .037-.003.059-.003h.003c.108 0 .213.019.691.288l.009.003c.006-.003.037.027.074.064a.893.893 0 0 1 .286.645V624c0 .013-.003.024-.003.048a.558.558 0 0 1 .006.08v2.869h.923c.663 0 1.201.507 1.201 1.131v3.741c0 .624-.538 1.131-1.201 1.131h-3.974c-.663 0-1.202-.507-1.202-1.131v-3.741c0-.624.539-1.131 1.202-1.131h.923V625h-6.371v1.997h.923c.663 0 1.202.507 1.202 1.131v3.741c0 .624-.539 1.131-1.202 1.131h-3.974c-.663 0-1.201-.507-1.201-1.131v-3.741c0-.624.538-1.131 1.201-1.131h.923V625h-6.371v1.997h.924c.663 0 1.201.507 1.201 1.131v3.741c0 .624-.538 1.131-1.201 1.131h-3.975c-.663 0-1.201-.507-1.201-1.131Zm20.887-8.578-.009-.006c-.042-.037-.014-.016.015.008-.029-.029-.032-.034-.006-.002Zm0 0c-.258-.184-.136-.11.006 0-.057-.043-.071-.054-.006 0Z" clip-rule="evenodd"/>
    </g>
    <rect width="180" height="80" x="428" y="564" fill="#fff" stroke="#FF5958" stroke-width="2" rx="4"/>
    <path fill="#000" fill-opacity=".85" d="M480.256 578.66h4.58c1.627 0 2.887.34 3.78 1.02.907.667 1.36 1.713 1.36 3.14 0 .813-.133 1.513-.4 2.1a3.695 3.695 0 0 1-1.08 1.42c-.466.373-1.026.647-1.68.82-.64.173-1.353.26-2.14.26h-2.54V593h-1.88v-14.34Zm1.88 1.72v5.34h2.54c.507 0 .967-.053 1.38-.16a2.885 2.885 0 0 0 1.06-.5c.307-.227.54-.52.7-.88.174-.373.26-.82.26-1.34 0-.867-.28-1.493-.84-1.88-.56-.387-1.36-.58-2.4-.58h-2.7Zm13.957 12.82c-.707 0-1.367-.12-1.98-.36a4.607 4.607 0 0 1-1.6-1.04 5.063 5.063 0 0 1-1.04-1.7c-.254-.667-.38-1.433-.38-2.3 0-.853.126-1.613.38-2.28.253-.68.6-1.247 1.04-1.7.453-.453.986-.8 1.6-1.04a5.383 5.383 0 0 1 1.98-.36c.72 0 1.386.12 2 .36.613.24 1.14.587 1.58 1.04.453.453.806 1.02 1.06 1.7.266.667.4 1.427.4 2.28 0 .867-.134 1.633-.4 2.3a4.92 4.92 0 0 1-1.06 1.7c-.44.453-.967.8-1.58 1.04-.614.24-1.28.36-2 .36Zm0-1.58a3.58 3.58 0 0 0 1.28-.22c.4-.16.746-.393 1.04-.7.293-.32.52-.72.68-1.2.16-.48.24-1.047.24-1.7s-.08-1.22-.24-1.7c-.16-.48-.387-.873-.68-1.18a2.622 2.622 0 0 0-1.04-.7 3.32 3.32 0 0 0-1.28-.24c-.467 0-.894.08-1.28.24-.387.147-.727.38-1.02.7-.28.307-.5.7-.66 1.18-.16.48-.24 1.047-.24 1.7s.08 1.22.24 1.7c.16.48.38.88.66 1.2.293.307.633.54 1.02.7.386.147.813.22 1.28.22Zm7.425-12.96h4.58c1.627 0 2.887.34 3.78 1.02.907.667 1.36 1.713 1.36 3.14 0 .813-.133 1.513-.4 2.1a3.695 3.695 0 0 1-1.08 1.42 4.502 4.502 0 0 1-1.68.82c-.64.173-1.353.26-2.14.26h-2.54V593h-1.88v-14.34Zm1.88 1.72v5.34h2.54c.507 0 .967-.053 1.38-.16a2.893 2.893 0 0 0 1.06-.5c.307-.227.54-.52.7-.88.173-.373.26-.82.26-1.34 0-.867-.28-1.493-.84-1.88-.56-.387-1.36-.58-2.4-.58h-2.7Zm20.741 12.82c-.96 0-1.86-.16-2.7-.48a6.22 6.22 0 0 1-2.18-1.44c-.613-.627-1.1-1.4-1.46-2.32-.346-.92-.52-1.98-.52-3.18 0-1.2.174-2.253.52-3.16.36-.92.847-1.68 1.46-2.28a5.919 5.919 0 0 1 2.18-1.38 7.52 7.52 0 0 1 2.7-.48c.974 0 1.88.16 2.72.48a5.91 5.91 0 0 1 2.18 1.38c.614.613 1.094 1.38 1.44 2.3.347.907.52 1.96.52 3.16 0 1.187-.173 2.24-.52 3.16-.346.92-.826 1.693-1.44 2.32a6.212 6.212 0 0 1-2.18 1.44c-.84.32-1.746.48-2.72.48Zm0-1.7c.694 0 1.334-.1 1.92-.3a3.973 3.973 0 0 0 1.52-.98c.44-.453.78-1.04 1.02-1.76.254-.72.38-1.593.38-2.62 0-1.027-.126-1.9-.38-2.62-.24-.72-.58-1.3-1.02-1.74a3.692 3.692 0 0 0-1.52-.98 5.581 5.581 0 0 0-1.92-.32 5.59 5.59 0 0 0-1.92.32c-.586.2-1.1.527-1.54.98-.426.44-.766 1.02-1.02 1.74-.24.72-.36 1.593-.36 2.62 0 1.027.12 1.9.36 2.62.254.72.594 1.307 1.02 1.76.44.44.954.767 1.54.98.587.2 1.227.3 1.92.3Zm13.273 1.7c-.653 0-1.24-.047-1.76-.14-.52-.08-.98-.187-1.38-.32-.386-.147-.72-.3-1-.46a3.978 3.978 0 0 1-.64-.5v-1.8c.2.173.46.353.78.54.32.173.687.333 1.1.48.427.147.88.267 1.36.36.494.093 1.007.14 1.54.14 1.04 0 1.867-.193 2.48-.58.614-.4.92-1 .92-1.8 0-.4-.073-.727-.22-.98a1.773 1.773 0 0 0-.64-.66 3.714 3.714 0 0 0-1.06-.46 28.16 28.16 0 0 0-1.46-.42 26.72 26.72 0 0 1-1.68-.5 6.201 6.201 0 0 1-1.52-.74c-.44-.307-.8-.693-1.08-1.16-.266-.467-.4-1.06-.4-1.78 0-1.24.434-2.207 1.3-2.9.867-.693 2.194-1.04 3.98-1.04.52 0 .98.033 1.38.1.414.053.774.127 1.08.22.32.08.594.173.82.28.24.107.454.207.64.3v1.8a5.614 5.614 0 0 0-1.82-.76 8.65 8.65 0 0 0-2.1-.24c-.64 0-1.18.053-1.62.16-.426.093-.773.233-1.04.42-.266.187-.46.413-.58.68-.12.267-.18.567-.18.9 0 .4.087.733.26 1 .187.267.427.493.72.68.307.173.654.32 1.04.44.387.12.794.227 1.22.32.56.133 1.134.287 1.72.46a5.868 5.868 0 0 1 1.58.72 3.64 3.64 0 0 1 1.14 1.2c.307.48.46 1.107.46 1.88 0 .76-.153 1.407-.46 1.94-.293.52-.686.947-1.18 1.28a5.01 5.01 0 0 1-1.7.72c-.64.147-1.306.22-2 .22Zm12.959-12.8V593h-1.9v-12.6h-4.42v-1.74h10.74v1.74h-4.42Z"/>
    <g clip-path="url(#clip1_52_592)">
        <path fill="#5282FF" fill-rule="evenodd" d="M506.374 631.869v-3.741c0-.624.538-1.131 1.201-1.131h.924v-2.922c-.003-.019-.003-.046-.003-.075v-.003c0-.274.133-.525.374-.725a.992.992 0 0 1 .691-.275h.003c.019 0 .039.003.054.003.028 0 .053-.003.079-.003h7.3v-2h-11.688c-2.93 0-5.309-1.997-5.309-4.997 0-2.757 2.745-5 5.674-5h.805c.493-2.283 2.64-4.003 5.209-4.003.578 0 1.134.088 1.655.251 1.139-2.499 3.776-4.251 6.844-4.251 4.105 0 7.439 3.136 7.439 7 0 .342-.028.675-.076 1.003h1.139c2.929 0 5.309 2.24 5.309 4.997V616c0 2.757-2.38 4.997-5.309 4.997h-9.564v2h7.295c.022 0 .048.003.079.003.017 0 .037-.003.059-.003h.003c.108 0 .213.019.691.288l.009.003c.006-.003.037.027.074.064a.893.893 0 0 1 .286.645V624c0 .013-.003.024-.003.048a.558.558 0 0 1 .006.08v2.869h.923c.663 0 1.201.507 1.201 1.131v3.741c0 .624-.538 1.131-1.201 1.131h-3.974c-.663 0-1.202-.507-1.202-1.131v-3.741c0-.624.539-1.131 1.202-1.131h.923V625h-6.371v1.997h.923c.663 0 1.202.507 1.202 1.131v3.741c0 .624-.539 1.131-1.202 1.131h-3.974c-.663 0-1.201-.507-1.201-1.131v-3.741c0-.624.538-1.131 1.201-1.131h.923V625h-6.371v1.997h.924c.663 0 1.201.507 1.201 1.131v3.741c0 .624-.538 1.131-1.201 1.131h-3.975c-.663 0-1.201-.507-1.201-1.131Zm20.887-8.578-.009-.006c-.042-.037-.014-.016.015.008-.029-.029-.032-.034-.006-.002Zm0 0c-.258-.184-.136-.11.006 0-.057-.043-.071-.054-.006 0Z" clip-rule="evenodd"/>
    </g>
    <rect width="180" height="80" x="667" y="564" fill="#fff" stroke="#FF5958" stroke-width="2" rx="4"/>
    <path fill="#000" fill-opacity=".85" d="M723.68 579.66h4.58c1.627 0 2.887.34 3.78 1.02.907.667 1.36 1.713 1.36 3.14 0 .813-.133 1.513-.4 2.1a3.695 3.695 0 0 1-1.08 1.42 4.502 4.502 0 0 1-1.68.82c-.64.173-1.353.26-2.14.26h-2.54V594h-1.88v-14.34Zm1.88 1.72v5.34h2.54c.507 0 .967-.053 1.38-.16a2.893 2.893 0 0 0 1.06-.5c.307-.227.54-.52.7-.88.173-.373.26-.82.26-1.34 0-.867-.28-1.493-.84-1.88-.56-.387-1.36-.58-2.4-.58h-2.7Zm13.956 12.82a5.39 5.39 0 0 1-1.98-.36 4.626 4.626 0 0 1-1.6-1.04 5.079 5.079 0 0 1-1.04-1.7c-.253-.667-.38-1.433-.38-2.3 0-.853.127-1.613.38-2.28.254-.68.6-1.247 1.04-1.7.454-.453.987-.8 1.6-1.04a5.39 5.39 0 0 1 1.98-.36c.72 0 1.387.12 2 .36a4.41 4.41 0 0 1 1.58 1.04c.454.453.807 1.02 1.06 1.7.267.667.4 1.427.4 2.28 0 .867-.133 1.633-.4 2.3a4.89 4.89 0 0 1-1.06 1.7c-.44.453-.966.8-1.58 1.04a5.44 5.44 0 0 1-2 .36Zm0-1.58c.467 0 .894-.073 1.28-.22.4-.16.747-.393 1.04-.7.294-.32.52-.72.68-1.2.16-.48.24-1.047.24-1.7s-.08-1.22-.24-1.7c-.16-.48-.386-.873-.68-1.18a2.615 2.615 0 0 0-1.04-.7 3.313 3.313 0 0 0-1.28-.24c-.466 0-.893.08-1.28.24-.386.147-.726.38-1.02.7-.28.307-.5.7-.66 1.18-.16.48-.24 1.047-.24 1.7s.08 1.22.24 1.7c.16.48.38.88.66 1.2.294.307.634.54 1.02.7.387.147.814.22 1.28.22Zm7.426-12.96h4.58c1.626 0 2.886.34 3.78 1.02.906.667 1.36 1.713 1.36 3.14 0 .813-.134 1.513-.4 2.1a3.714 3.714 0 0 1-1.08 1.42 4.502 4.502 0 0 1-1.68.82c-.64.173-1.354.26-2.14.26h-2.54V594h-1.88v-14.34Zm1.88 1.72v5.34h2.54c.506 0 .966-.053 1.38-.16a2.9 2.9 0 0 0 1.06-.5c.306-.227.54-.52.7-.88.173-.373.26-.82.26-1.34 0-.867-.28-1.493-.84-1.88-.56-.387-1.36-.58-2.4-.58h-2.7Zm18.721 12.82c-.653 0-1.24-.047-1.76-.14-.52-.08-.98-.187-1.38-.32-.386-.147-.72-.3-1-.46a3.978 3.978 0 0 1-.64-.5v-1.8c.2.173.46.353.78.54.32.173.687.333 1.1.48.427.147.88.267 1.36.36.494.093 1.007.14 1.54.14 1.04 0 1.867-.193 2.48-.58.614-.4.92-1 .92-1.8 0-.4-.073-.727-.22-.98a1.773 1.773 0 0 0-.64-.66 3.714 3.714 0 0 0-1.06-.46 28.16 28.16 0 0 0-1.46-.42 26.72 26.72 0 0 1-1.68-.5 6.201 6.201 0 0 1-1.52-.74c-.44-.307-.8-.693-1.08-1.16-.266-.467-.4-1.06-.4-1.78 0-1.24.434-2.207 1.3-2.9.867-.693 2.194-1.04 3.98-1.04.52 0 .98.033 1.38.1.414.053.774.127 1.08.22.32.08.594.173.82.28.24.107.454.207.64.3v1.8a5.614 5.614 0 0 0-1.82-.76 8.65 8.65 0 0 0-2.1-.24c-.64 0-1.18.053-1.62.16-.426.093-.773.233-1.04.42-.266.187-.46.413-.58.68-.12.267-.18.567-.18.9 0 .4.087.733.26 1 .187.267.427.493.72.68.307.173.654.32 1.04.44.387.12.794.227 1.22.32.56.133 1.134.287 1.72.46a5.868 5.868 0 0 1 1.58.72 3.64 3.64 0 0 1 1.14 1.2c.307.48.46 1.107.46 1.88 0 .76-.153 1.407-.46 1.94-.293.52-.686.947-1.18 1.28a5.01 5.01 0 0 1-1.7.72c-.64.147-1.306.22-2 .22Zm12.959-12.8V594h-1.9v-12.6h-4.42v-1.74h10.74v1.74h-4.42Zm6.733-1.74h4.82c.96 0 1.853.113 2.68.34.826.227 1.546.6 2.16 1.12.613.52 1.093 1.207 1.44 2.06.346.853.52 1.907.52 3.16 0 1.267-.18 2.38-.54 3.34-.347.947-.834 1.74-1.46 2.38a6.032 6.032 0 0 1-2.22 1.46c-.854.32-1.787.48-2.8.48h-4.6v-14.34Zm1.88 1.72v10.92h2.72c.733 0 1.406-.113 2.02-.34a4.09 4.09 0 0 0 1.58-1.04c.44-.48.78-1.087 1.02-1.82.24-.733.36-1.607.36-2.62 0-1-.12-1.827-.36-2.48-.24-.667-.574-1.193-1-1.58a3.345 3.345 0 0 0-1.5-.8 7.201 7.201 0 0 0-1.9-.24h-2.94Z"/>
    <path fill="#5282FF" fill-rule="evenodd" d="M757.391 604.866c.6-.635 1.144-.866 1.609-.866.465 0 1.009.231 1.609.866.602.636 1.19 1.611 1.705 2.899.943 2.356 1.574 5.593 1.673 9.235h-9.974c.099-3.642.73-6.879 1.673-9.235.515-1.288 1.103-2.263 1.705-2.899ZM752.013 617c.098-3.845.763-7.345 1.816-9.978.369-.922.793-1.758 1.272-2.472-5.527 1.6-9.647 6.514-10.066 12.45h6.978Zm-6.978 2h6.978c.098 3.845.763 7.345 1.816 9.978.369.922.793 1.758 1.272 2.472-5.527-1.6-9.647-6.514-10.066-12.45ZM743 618c0-8.837 7.163-16 16-16s16 7.163 16 16-7.163 16-16 16-16-7.163-16-16Zm29.965-1c-.419-5.936-4.539-10.85-10.066-12.45.479.714.903 1.55 1.272 2.472 1.053 2.633 1.718 6.133 1.816 9.978h6.978Zm-6.978 2h6.978c-.419 5.936-4.539 10.85-10.066 12.45.479-.714.903-1.55 1.272-2.472 1.053-2.633 1.718-6.133 1.816-9.978Zm-2 0c-.099 3.642-.73 6.879-1.673 9.235-.515 1.288-1.103 2.263-1.705 2.899-.6.635-1.144.866-1.609.866-.465 0-1.009-.231-1.609-.866-.602-.636-1.19-1.611-1.705-2.899-.943-2.356-1.574-5.593-1.673-9.235h9.974Z" clip-rule="evenodd"/>
    <rect width="180" height="80" x="276" y="21" fill="#fff" stroke="#FF5958" stroke-width="2" rx="4"/>
    <path fill="#000" fill-opacity=".85" d="M331.491 31.66h4.58c1.626 0 2.886.34 3.78 1.02.906.667 1.36 1.713 1.36 3.14 0 .813-.134 1.513-.4 2.1a3.714 3.714 0 0 1-1.08 1.42 4.502 4.502 0 0 1-1.68.82c-.64.173-1.354.26-2.14.26h-2.54V46h-1.88V31.66Zm1.88 1.72v5.34h2.54a5.53 5.53 0 0 0 1.38-.16 2.9 2.9 0 0 0 1.06-.5c.306-.227.54-.52.7-.88.173-.373.26-.82.26-1.34 0-.867-.28-1.493-.84-1.88-.56-.387-1.36-.58-2.4-.58h-2.7Zm13.956 12.82c-.707 0-1.367-.12-1.98-.36a4.612 4.612 0 0 1-1.6-1.04 5.063 5.063 0 0 1-1.04-1.7c-.253-.667-.38-1.433-.38-2.3 0-.853.127-1.613.38-2.28.253-.68.6-1.247 1.04-1.7.453-.453.987-.8 1.6-1.04a5.383 5.383 0 0 1 1.98-.36c.72 0 1.387.12 2 .36s1.14.587 1.58 1.04c.453.453.807 1.02 1.06 1.7.267.667.4 1.427.4 2.28 0 .867-.133 1.633-.4 2.3a4.905 4.905 0 0 1-1.06 1.7c-.44.453-.967.8-1.58 1.04a5.44 5.44 0 0 1-2 .36Zm0-1.58c.467 0 .893-.073 1.28-.22.4-.16.747-.393 1.04-.7.293-.32.52-.72.68-1.2.16-.48.24-1.047.24-1.7s-.08-1.22-.24-1.7c-.16-.48-.387-.873-.68-1.18a2.612 2.612 0 0 0-1.04-.7 3.316 3.316 0 0 0-1.28-.24c-.467 0-.893.08-1.28.24-.387.147-.727.38-1.02.7-.28.307-.5.7-.66 1.18-.16.48-.24 1.047-.24 1.7s.08 1.22.24 1.7c.16.48.38.88.66 1.2.293.307.633.54 1.02.7.387.147.813.22 1.28.22Zm7.425-12.96h4.58c1.627 0 2.887.34 3.78 1.02.907.667 1.36 1.713 1.36 3.14 0 .813-.133 1.513-.4 2.1a3.695 3.695 0 0 1-1.08 1.42c-.466.373-1.026.647-1.68.82-.64.173-1.353.26-2.14.26h-2.54V46h-1.88V31.66Zm1.88 1.72v5.34h2.54c.507 0 .967-.053 1.38-.16a2.885 2.885 0 0 0 1.06-.5c.307-.227.54-.52.7-.88.174-.373.26-.82.26-1.34 0-.867-.28-1.493-.84-1.88-.56-.387-1.36-.58-2.4-.58h-2.7Zm21.802 8.34 4.66-10.06h2.44V46h-1.9V34.46l-4.4 9.34-.94.02h-.84l.02-.02-4.34-9.5V46h-1.78V31.66h2.62l4.46 10.06Zm19.199-4.18c0 1.347-.12 2.56-.36 3.64-.226 1.067-.58 1.973-1.06 2.72a4.822 4.822 0 0 1-1.8 1.72c-.733.387-1.6.58-2.6.58-.733 0-1.34-.067-1.82-.2a6.44 6.44 0 0 1-1.26-.54V43.7c.907.587 1.934.88 3.08.88.614 0 1.154-.127 1.62-.38.48-.267.88-.627 1.2-1.08a5.464 5.464 0 0 0 .78-1.64c.187-.627.307-1.3.36-2.02-.413.52-.906.907-1.48 1.16-.573.24-1.193.36-1.86.36-.64 0-1.24-.1-1.8-.3a4.254 4.254 0 0 1-1.46-.92 4.29 4.29 0 0 1-.98-1.48c-.226-.587-.34-1.26-.34-2.02 0-.72.12-1.373.36-1.96a4.618 4.618 0 0 1 1.02-1.5 4.374 4.374 0 0 1 1.5-.98 4.92 4.92 0 0 1 1.88-.36c.894 0 1.66.153 2.3.46.64.293 1.16.707 1.56 1.24.4.533.694 1.173.88 1.92.187.747.28 1.567.28 2.46Zm-4.96-4.46c-.386 0-.76.067-1.12.2a2.625 2.625 0 0 0-.92.6 2.73 2.73 0 0 0-.64.98c-.16.387-.24.84-.24 1.36 0 .52.074.98.22 1.38.16.4.367.74.62 1.02.267.267.56.467.88.6.32.133.654.2 1 .2.44 0 .847-.067 1.22-.2.387-.147.714-.353.98-.62.28-.28.5-.62.66-1.02.16-.4.24-.867.24-1.4 0-.933-.26-1.68-.78-2.24-.52-.573-1.226-.86-2.12-.86Z"/>
    <g clip-path="url(#clip2_52_592)">
        <path fill="#5282FF" fill-rule="evenodd" d="M387.374 89.87v-3.742c0-.624.538-1.13 1.201-1.13h.924v-2.923c-.003-.019-.003-.046-.003-.075v-.003c0-.274.133-.525.374-.725a.994.994 0 0 1 .691-.275h.003c.019 0 .039.003.054.003.028 0 .053-.003.079-.003h7.3v-2h-11.688C383.379 78.997 381 77 381 74c0-2.757 2.745-5 5.674-5h.805c.493-2.283 2.64-4.003 5.209-4.003.578 0 1.134.088 1.655.251 1.139-2.499 3.776-4.25 6.844-4.25 4.105 0 7.439 3.135 7.439 7 0 .34-.028.674-.076 1.002h1.139c2.929 0 5.309 2.24 5.309 4.997V74c0 2.757-2.38 4.997-5.309 4.997h-9.564v2h7.295c.022 0 .048.003.079.003.017 0 .037-.003.059-.003h.003c.108 0 .213.019.691.288l.009.003c.006-.003.037.027.074.064.167.155.286.39.286.645V82c0 .013-.003.024-.003.048a.56.56 0 0 1 .006.08v2.87h.923c.663 0 1.201.506 1.201 1.13v3.741c0 .624-.538 1.13-1.201 1.13h-3.974c-.663 0-1.202-.506-1.202-1.13v-3.741c0-.624.539-1.13 1.202-1.13h.923V83h-6.371v1.997h.923c.663 0 1.202.507 1.202 1.13v3.742c0 .624-.539 1.13-1.202 1.13h-3.974c-.663 0-1.201-.506-1.201-1.13v-3.741c0-.624.538-1.13 1.201-1.13h.923V83h-6.371v1.997h.924c.663 0 1.201.507 1.201 1.13v3.742c0 .624-.538 1.13-1.201 1.13h-3.975c-.663 0-1.201-.506-1.201-1.13Zm20.887-8.58-.009-.005c-.042-.037-.014-.016.015.008-.029-.03-.032-.034-.006-.002Zm0 0c-.258-.183-.136-.109.006 0-.057-.042-.071-.053-.006 0Z" clip-rule="evenodd"/>
    </g>
    <path fill="#5282FF" fill-rule="evenodd" d="M332.391 63.866c.6-.635 1.144-.866 1.609-.866.465 0 1.009.231 1.609.866.602.636 1.19 1.611 1.705 2.899.943 2.356 1.574 5.593 1.673 9.235h-9.974c.099-3.642.73-6.88 1.673-9.235.515-1.288 1.103-2.263 1.705-2.9ZM327.013 76c.098-3.846.763-7.345 1.816-9.978.369-.922.793-1.758 1.272-2.472-5.527 1.6-9.647 6.514-10.066 12.45h6.978Zm-6.978 2h6.978c.098 3.846.763 7.345 1.816 9.978.369.922.793 1.758 1.272 2.472-5.527-1.6-9.647-6.514-10.066-12.45ZM318 77c0-8.837 7.163-16 16-16s16 7.163 16 16-7.163 16-16 16-16-7.163-16-16Zm29.965-1c-.419-5.936-4.539-10.85-10.066-12.45.479.714.903 1.55 1.272 2.472 1.053 2.633 1.718 6.132 1.816 9.978h6.978Zm-6.978 2h6.978c-.419 5.936-4.539 10.85-10.066 12.45.479-.714.903-1.55 1.272-2.472 1.053-2.633 1.718-6.132 1.816-9.978Zm-2 0c-.099 3.642-.73 6.88-1.673 9.235-.515 1.288-1.103 2.263-1.705 2.9-.6.634-1.144.865-1.609.865-.465 0-1.009-.231-1.609-.866-.602-.636-1.19-1.611-1.705-2.899-.943-2.356-1.574-5.593-1.673-9.235h9.974Z" clip-rule="evenodd"/>
    <rect width="854" height="52" x="81" y="683" fill="#fff" stroke="#86829F" stroke-width="2" rx="4"/>
    <path fill="#000" fill-opacity=".85" d="M147.39 713.14a5.264 5.264 0 0 1-1.89-.336 4.344 4.344 0 0 1-1.526-1.008 4.783 4.783 0 0 1-1.022-1.624c-.243-.644-.364-1.386-.364-2.226 0-.84.121-1.577.364-2.212.252-.644.593-1.176 1.022-1.596a4.14 4.14 0 0 1 1.526-.966 5.264 5.264 0 0 1 1.89-.336c.681 0 1.316.112 1.904.336a4.14 4.14 0 0 1 1.526.966c.429.429.765.966 1.008 1.61.243.635.364 1.372.364 2.212 0 .831-.121 1.568-.364 2.212a4.622 4.622 0 0 1-1.008 1.624 4.344 4.344 0 0 1-1.526 1.008 5.305 5.305 0 0 1-1.904.336Zm0-1.19c.485 0 .933-.07 1.344-.21a2.786 2.786 0 0 0 1.064-.686c.308-.317.546-.728.714-1.232.177-.504.266-1.115.266-1.834 0-.719-.089-1.33-.266-1.834-.168-.504-.406-.91-.714-1.218a2.59 2.59 0 0 0-1.064-.686 3.916 3.916 0 0 0-1.344-.224c-.485 0-.933.075-1.344.224-.411.14-.77.369-1.078.686-.299.308-.537.714-.714 1.218-.168.504-.252 1.115-.252 1.834 0 .719.084 1.33.252 1.834.177.504.415.915.714 1.232.308.308.667.537 1.078.686.411.14.859.21 1.344.21Zm12.943-2.59c0 .607-.093 1.143-.28 1.61a3.418 3.418 0 0 1-.742 1.19c-.308.317-.676.56-1.106.728a3.807 3.807 0 0 1-1.4.252c-.513 0-.984-.084-1.414-.252a2.922 2.922 0 0 1-1.106-.798c-.308-.355-.55-.803-.728-1.344-.168-.541-.252-1.181-.252-1.918 0-.607.019-1.185.056-1.736a7.645 7.645 0 0 1 .252-1.526c.131-.476.318-.901.56-1.274.252-.383.588-.7 1.008-.952.234-.14.476-.243.728-.308.252-.075.504-.131.756-.168.262-.037.523-.061.784-.07l.77-.028c.374-.028.686-.075.938-.14.252-.065.476-.154.672-.266v1.12a2.136 2.136 0 0 1-.658.28 9.086 9.086 0 0 1-.826.126 57.56 57.56 0 0 1-1.47.112c-.438.019-.84.121-1.204.308a2.176 2.176 0 0 0-.994 1.176c-.186.513-.303 1.125-.35 1.834.486-1.12 1.4-1.68 2.744-1.68.458 0 .882.084 1.274.252.402.159.747.397 1.036.714.299.317.532.709.7 1.176.168.457.252.985.252 1.582Zm-3.528 2.674c.327 0 .626-.051.896-.154a2.04 2.04 0 0 0 .728-.49 2.29 2.29 0 0 0 .476-.84c.112-.336.168-.733.168-1.19 0-.457-.056-.854-.168-1.19a2.158 2.158 0 0 0-.476-.826 1.831 1.831 0 0 0-.728-.49 2.318 2.318 0 0 0-.896-.168c-.644 0-1.18.215-1.61.644-.42.429-.63 1.092-.63 1.988 0 .467.056.873.168 1.218.112.336.266.616.462.84.206.224.444.392.714.504.271.103.57.154.896.154Zm8.052 1.106c-.494 0-.956-.084-1.386-.252a3.242 3.242 0 0 1-1.12-.728 3.558 3.558 0 0 1-.728-1.19c-.177-.467-.266-1.003-.266-1.61 0-.597.089-1.129.266-1.596.178-.476.42-.873.728-1.19.318-.317.691-.56 1.12-.728.43-.168.892-.252 1.386-.252.504 0 .971.084 1.4.252.43.168.798.411 1.106.728.318.317.565.714.742 1.19.187.467.28.999.28 1.596 0 .607-.093 1.143-.28 1.61a3.418 3.418 0 0 1-.742 1.19c-.308.317-.676.56-1.106.728a3.807 3.807 0 0 1-1.4.252Zm0-1.106c.327 0 .626-.051.896-.154a2.04 2.04 0 0 0 .728-.49 2.29 2.29 0 0 0 .476-.84c.112-.336.168-.733.168-1.19 0-.457-.056-.854-.168-1.19a2.158 2.158 0 0 0-.476-.826 1.831 1.831 0 0 0-.728-.49 2.318 2.318 0 0 0-.896-.168c-.326 0-.625.056-.896.168-.27.103-.508.266-.714.49-.196.215-.35.49-.462.826a3.775 3.775 0 0 0-.168 1.19c0 .457.056.854.168 1.19.112.336.266.616.462.84.206.215.444.378.714.49.271.103.57.154.896.154Zm8.684 1.106c-.56 0-1.045-.131-1.456-.392a2.856 2.856 0 0 1-.966-1.078v3.808h-1.232v-9.744h1.078l.126 1.414a2.98 2.98 0 0 1 .98-1.134c.411-.28.919-.42 1.526-.42.42 0 .821.079 1.204.238.392.149.733.383 1.022.7.299.308.532.7.7 1.176.177.467.266 1.017.266 1.652 0 .644-.089 1.204-.266 1.68a3.494 3.494 0 0 1-.714 1.176 3.002 3.002 0 0 1-1.036.7 3.44 3.44 0 0 1-1.232.224Zm-.182-1.106c.644 0 1.162-.219 1.554-.658.401-.448.602-1.12.602-2.016 0-.877-.201-1.54-.602-1.988-.392-.457-.91-.686-1.554-.686-.317 0-.616.056-.896.168a1.99 1.99 0 0 0-.714.504c-.196.215-.355.49-.476.826a3.723 3.723 0 0 0-.168 1.176c0 .448.056.84.168 1.176.121.336.28.616.476.84.205.224.443.392.714.504.28.103.579.154.896.154Zm8.424.882a8.282 8.282 0 0 1-.532 1.148 3.837 3.837 0 0 1-.63.854 2.257 2.257 0 0 1-.784.518 2.557 2.557 0 0 1-.994.182c-.187 0-.359-.014-.518-.042a1.57 1.57 0 0 1-.434-.112v-1.19c.103.075.233.131.392.168.159.047.331.07.518.07.345 0 .63-.084.854-.252.224-.159.439-.415.644-.77l-2.954-7.756h1.358l2.31 6.132 2.296-6.132h1.19l-2.716 7.182Zm3.12-.966c.261-.159.467-.406.616-.742.149-.336.266-.761.35-1.274.084-.513.14-1.12.168-1.82.037-.7.07-1.493.098-2.38h4.998v6.216h1.092v3.122h-1.078l-.154-2.072h-5.404l-.126 2.072h-1.106v-3.122h.546Zm4.998 0v-5.166h-2.66c-.047 1.372-.135 2.473-.266 3.304-.121.821-.336 1.442-.644 1.862h3.57Zm6.456 1.19c-.494 0-.956-.084-1.386-.252a3.242 3.242 0 0 1-1.12-.728 3.558 3.558 0 0 1-.728-1.19c-.177-.467-.266-1.003-.266-1.61 0-.597.089-1.129.266-1.596.178-.476.42-.873.728-1.19.318-.317.691-.56 1.12-.728.43-.168.892-.252 1.386-.252.504 0 .971.084 1.4.252.43.168.798.411 1.106.728.318.317.565.714.742 1.19.187.467.28.999.28 1.596 0 .607-.093 1.143-.28 1.61a3.418 3.418 0 0 1-.742 1.19c-.308.317-.676.56-1.106.728a3.807 3.807 0 0 1-1.4.252Zm0-1.106c.327 0 .626-.051.896-.154a2.04 2.04 0 0 0 .728-.49 2.29 2.29 0 0 0 .476-.84c.112-.336.168-.733.168-1.19 0-.457-.056-.854-.168-1.19a2.158 2.158 0 0 0-.476-.826 1.831 1.831 0 0 0-.728-.49 2.318 2.318 0 0 0-.896-.168c-.326 0-.625.056-.896.168-.27.103-.508.266-.714.49-.196.215-.35.49-.462.826a3.775 3.775 0 0 0-.168 1.19c0 .457.056.854.168 1.19.112.336.266.616.462.84.206.215.444.378.714.49.271.103.57.154.896.154Zm5.03-6.3h2.716c.877 0 1.54.154 1.988.462.448.299.672.77.672 1.414 0 .429-.112.775-.336 1.036-.215.252-.523.434-.924.546 1.036.168 1.554.742 1.554 1.722 0 .373-.075.695-.224.966a1.85 1.85 0 0 1-.616.644 2.746 2.746 0 0 1-.952.364 5.904 5.904 0 0 1-1.19.112h-2.688v-7.266Zm1.232 1.05v1.974h1.372c.467 0 .84-.084 1.12-.252.289-.168.434-.411.434-.728 0-.383-.126-.644-.378-.784s-.611-.21-1.078-.21h-1.47Zm0 2.954v2.212h1.442c.261 0 .495-.014.7-.042.215-.037.397-.098.546-.182a.906.906 0 0 0 .364-.336.991.991 0 0 0 .126-.518c0-.42-.145-.714-.434-.882-.289-.168-.723-.252-1.302-.252h-1.442Zm10.543 1.876a4.24 4.24 0 0 1-.322.532 2.419 2.419 0 0 1-1.19.854c-.261.093-.569.14-.924.14-.653 0-1.18-.182-1.582-.546-.401-.373-.602-.905-.602-1.596 0-.793.276-1.377.826-1.75.56-.373 1.354-.56 2.38-.56h1.358v-.602c0-.504-.13-.863-.392-1.078-.261-.215-.709-.322-1.344-.322-.448 0-.872.075-1.274.224-.401.14-.76.303-1.078.49v-1.106a5.438 5.438 0 0 1 1.05-.462 4.367 4.367 0 0 1 1.47-.238c.915 0 1.61.191 2.086.574.476.373.714.957.714 1.75v4.2c.01.103.014.21.014.322l.028.322c.01.093.019.173.028.238h-1.12a6.439 6.439 0 0 1-.084-.546 8.754 8.754 0 0 1-.028-.63l-.014-.21Zm-2.17.42c.383 0 .71-.079.98-.238.271-.159.49-.341.658-.546.168-.215.29-.42.364-.616.075-.205.112-.35.112-.434v-.532h-1.232c-.737 0-1.274.107-1.61.322-.326.205-.49.518-.49.938 0 .327.098.593.294.798.196.205.504.308.924.308Zm10.03-2.254h-3.514V713h-1.232v-7.266h1.232v2.996h3.514v-2.996h1.232V713h-1.232v-3.22Zm4.484 1.54 3.878-5.586h1.246V713h-1.232v-5.572L225.534 713h-1.26v-7.266h1.232v5.586Zm12.917 1.064a3.919 3.919 0 0 1-.378.238c-.15.084-.332.168-.546.252a4.632 4.632 0 0 1-.728.182 4.51 4.51 0 0 1-.91.084c-1.223 0-2.152-.331-2.786-.994-.635-.663-.952-1.591-.952-2.786 0-.588.084-1.115.252-1.582.177-.467.42-.859.728-1.176a3.024 3.024 0 0 1 1.092-.742c.42-.177.877-.266 1.372-.266.522 0 .989.089 1.4.266.41.177.746.439 1.008.784.27.345.452.775.546 1.288.102.504.102 1.092 0 1.764h-5.124c.046.784.28 1.372.7 1.764.42.383 1.045.574 1.876.574.56 0 1.04-.079 1.442-.238a5.07 5.07 0 0 0 1.008-.518v1.106Zm-2.884-5.698c-.532 0-.99.163-1.372.49-.383.327-.626.821-.728 1.484h3.906c.037-.672-.117-1.167-.462-1.484-.346-.327-.794-.49-1.344-.49Zm7.879-3.724h3.374c.672 0 1.298.079 1.876.238.579.159 1.083.42 1.512.784.43.364.766.845 1.008 1.442.243.597.364 1.335.364 2.212 0 .887-.126 1.666-.378 2.338-.242.663-.583 1.218-1.022 1.666a4.208 4.208 0 0 1-1.554 1.022 5.536 5.536 0 0 1-1.96.336h-3.22v-10.038Zm1.316 1.204v7.644h1.904c.514 0 .985-.079 1.414-.238.43-.159.798-.401 1.106-.728.308-.336.546-.761.714-1.274.168-.513.252-1.125.252-1.834 0-.7-.084-1.279-.252-1.736-.168-.467-.401-.835-.7-1.106a2.333 2.333 0 0 0-1.05-.56 5.036 5.036 0 0 0-1.33-.168h-2.058ZM262.662 713h-1.932l-2.212-7.756-2.226 7.756h-1.946l-2.212-10.038h1.372l1.904 8.904 2.576-8.904h1.204l2.52 8.736 1.89-8.736h1.274L262.662 713Zm3.684-10.038h3.374c.672 0 1.297.079 1.876.238.579.159 1.083.42 1.512.784.429.364.765.845 1.008 1.442s.364 1.335.364 2.212c0 .887-.126 1.666-.378 2.338-.243.663-.583 1.218-1.022 1.666a4.208 4.208 0 0 1-1.554 1.022 5.54 5.54 0 0 1-1.96.336h-3.22v-10.038Zm1.316 1.204v7.644h1.904c.513 0 .985-.079 1.414-.238a2.864 2.864 0 0 0 1.106-.728c.308-.336.546-.761.714-1.274.168-.513.252-1.125.252-1.834 0-.7-.084-1.279-.252-1.736-.168-.467-.401-.835-.7-1.106a2.333 2.333 0 0 0-1.05-.56 5.041 5.041 0 0 0-1.33-.168h-2.058Zm13.525 5.838 3.262-7.042h1.708V713h-1.33v-8.078l-3.08 6.538-.658.014h-.588l.014-.014-3.038-6.65V713h-1.246v-10.038h1.834l3.122 7.042Zm83.203 3.136a5.264 5.264 0 0 1-1.89-.336 4.344 4.344 0 0 1-1.526-1.008 4.783 4.783 0 0 1-1.022-1.624c-.243-.644-.364-1.386-.364-2.226 0-.84.121-1.577.364-2.212.252-.644.593-1.176 1.022-1.596a4.14 4.14 0 0 1 1.526-.966 5.264 5.264 0 0 1 1.89-.336c.681 0 1.316.112 1.904.336a4.14 4.14 0 0 1 1.526.966c.429.429.765.966 1.008 1.61.243.635.364 1.372.364 2.212 0 .831-.121 1.568-.364 2.212a4.622 4.622 0 0 1-1.008 1.624 4.344 4.344 0 0 1-1.526 1.008 5.305 5.305 0 0 1-1.904.336Zm0-1.19c.485 0 .933-.07 1.344-.21a2.786 2.786 0 0 0 1.064-.686c.308-.317.546-.728.714-1.232.177-.504.266-1.115.266-1.834 0-.719-.089-1.33-.266-1.834-.168-.504-.406-.91-.714-1.218a2.59 2.59 0 0 0-1.064-.686 3.916 3.916 0 0 0-1.344-.224c-.485 0-.933.075-1.344.224-.411.14-.77.369-1.078.686-.299.308-.537.714-.714 1.218-.168.504-.252 1.115-.252 1.834 0 .719.084 1.33.252 1.834.177.504.415.915.714 1.232.308.308.667.537 1.078.686.411.14.859.21 1.344.21Zm12.943-2.59c0 .607-.093 1.143-.28 1.61a3.418 3.418 0 0 1-.742 1.19c-.308.317-.676.56-1.106.728a3.807 3.807 0 0 1-1.4.252c-.513 0-.984-.084-1.414-.252a2.922 2.922 0 0 1-1.106-.798c-.308-.355-.55-.803-.728-1.344-.168-.541-.252-1.181-.252-1.918 0-.607.019-1.185.056-1.736a7.645 7.645 0 0 1 .252-1.526c.131-.476.318-.901.56-1.274.252-.383.588-.7 1.008-.952.234-.14.476-.243.728-.308.252-.075.504-.131.756-.168.262-.037.523-.061.784-.07l.77-.028c.374-.028.686-.075.938-.14.252-.065.476-.154.672-.266v1.12a2.136 2.136 0 0 1-.658.28 9.086 9.086 0 0 1-.826.126 57.56 57.56 0 0 1-1.47.112c-.438.019-.84.121-1.204.308a2.176 2.176 0 0 0-.994 1.176c-.186.513-.303 1.125-.35 1.834.486-1.12 1.4-1.68 2.744-1.68.458 0 .882.084 1.274.252.402.159.747.397 1.036.714.299.317.532.709.7 1.176.168.457.252.985.252 1.582Zm-3.528 2.674c.327 0 .626-.051.896-.154a2.04 2.04 0 0 0 .728-.49 2.29 2.29 0 0 0 .476-.84c.112-.336.168-.733.168-1.19 0-.457-.056-.854-.168-1.19a2.158 2.158 0 0 0-.476-.826 1.831 1.831 0 0 0-.728-.49 2.318 2.318 0 0 0-.896-.168c-.644 0-1.18.215-1.61.644-.42.429-.63 1.092-.63 1.988 0 .467.056.873.168 1.218.112.336.266.616.462.84.206.224.444.392.714.504.271.103.57.154.896.154Zm8.052 1.106c-.494 0-.956-.084-1.386-.252a3.242 3.242 0 0 1-1.12-.728 3.558 3.558 0 0 1-.728-1.19c-.177-.467-.266-1.003-.266-1.61 0-.597.089-1.129.266-1.596.178-.476.42-.873.728-1.19.318-.317.691-.56 1.12-.728.43-.168.892-.252 1.386-.252.504 0 .971.084 1.4.252.43.168.798.411 1.106.728.318.317.565.714.742 1.19.187.467.28.999.28 1.596 0 .607-.093 1.143-.28 1.61a3.418 3.418 0 0 1-.742 1.19c-.308.317-.676.56-1.106.728a3.807 3.807 0 0 1-1.4.252Zm0-1.106c.327 0 .626-.051.896-.154a2.04 2.04 0 0 0 .728-.49 2.29 2.29 0 0 0 .476-.84c.112-.336.168-.733.168-1.19 0-.457-.056-.854-.168-1.19a2.158 2.158 0 0 0-.476-.826 1.831 1.831 0 0 0-.728-.49 2.318 2.318 0 0 0-.896-.168c-.326 0-.625.056-.896.168-.27.103-.508.266-.714.49-.196.215-.35.49-.462.826a3.775 3.775 0 0 0-.168 1.19c0 .457.056.854.168 1.19.112.336.266.616.462.84.206.215.444.378.714.49.271.103.57.154.896.154Zm8.684 1.106c-.56 0-1.045-.131-1.456-.392a2.856 2.856 0 0 1-.966-1.078v3.808h-1.232v-9.744h1.078l.126 1.414a2.98 2.98 0 0 1 .98-1.134c.411-.28.919-.42 1.526-.42.42 0 .821.079 1.204.238.392.149.733.383 1.022.7.299.308.532.7.7 1.176.177.467.266 1.017.266 1.652 0 .644-.089 1.204-.266 1.68a3.494 3.494 0 0 1-.714 1.176 3.002 3.002 0 0 1-1.036.7 3.44 3.44 0 0 1-1.232.224Zm-.182-1.106c.644 0 1.162-.219 1.554-.658.401-.448.602-1.12.602-2.016 0-.877-.201-1.54-.602-1.988-.392-.457-.91-.686-1.554-.686-.317 0-.616.056-.896.168a1.99 1.99 0 0 0-.714.504c-.196.215-.355.49-.476.826a3.723 3.723 0 0 0-.168 1.176c0 .448.056.84.168 1.176.121.336.28.616.476.84.205.224.443.392.714.504.28.103.579.154.896.154Zm8.424.882a8.282 8.282 0 0 1-.532 1.148 3.837 3.837 0 0 1-.63.854 2.257 2.257 0 0 1-.784.518 2.557 2.557 0 0 1-.994.182c-.187 0-.359-.014-.518-.042a1.57 1.57 0 0 1-.434-.112v-1.19c.103.075.233.131.392.168.159.047.331.07.518.07.345 0 .63-.084.854-.252.224-.159.439-.415.644-.77l-2.954-7.756h1.358l2.31 6.132 2.296-6.132h1.19l-2.716 7.182Zm3.12-.966c.261-.159.467-.406.616-.742.149-.336.266-.761.35-1.274.084-.513.14-1.12.168-1.82.037-.7.07-1.493.098-2.38h4.998v6.216h1.092v3.122h-1.078l-.154-2.072h-5.404l-.126 2.072h-1.106v-3.122h.546Zm4.998 0v-5.166h-2.66c-.047 1.372-.135 2.473-.266 3.304-.121.821-.336 1.442-.644 1.862h3.57Zm6.456 1.19c-.494 0-.956-.084-1.386-.252a3.242 3.242 0 0 1-1.12-.728 3.558 3.558 0 0 1-.728-1.19c-.177-.467-.266-1.003-.266-1.61 0-.597.089-1.129.266-1.596.178-.476.42-.873.728-1.19.318-.317.691-.56 1.12-.728.43-.168.892-.252 1.386-.252.504 0 .971.084 1.4.252.43.168.798.411 1.106.728.318.317.565.714.742 1.19.187.467.28.999.28 1.596 0 .607-.093 1.143-.28 1.61a3.418 3.418 0 0 1-.742 1.19c-.308.317-.676.56-1.106.728a3.807 3.807 0 0 1-1.4.252Zm0-1.106c.327 0 .626-.051.896-.154a2.04 2.04 0 0 0 .728-.49 2.29 2.29 0 0 0 .476-.84c.112-.336.168-.733.168-1.19 0-.457-.056-.854-.168-1.19a2.158 2.158 0 0 0-.476-.826 1.831 1.831 0 0 0-.728-.49 2.318 2.318 0 0 0-.896-.168c-.326 0-.625.056-.896.168-.27.103-.508.266-.714.49-.196.215-.35.49-.462.826a3.775 3.775 0 0 0-.168 1.19c0 .457.056.854.168 1.19.112.336.266.616.462.84.206.215.444.378.714.49.271.103.57.154.896.154Zm5.03-6.3h2.716c.877 0 1.54.154 1.988.462.448.299.672.77.672 1.414 0 .429-.112.775-.336 1.036-.215.252-.523.434-.924.546 1.036.168 1.554.742 1.554 1.722 0 .373-.075.695-.224.966a1.85 1.85 0 0 1-.616.644 2.746 2.746 0 0 1-.952.364 5.904 5.904 0 0 1-1.19.112h-2.688v-7.266Zm1.232 1.05v1.974h1.372c.467 0 .84-.084 1.12-.252.289-.168.434-.411.434-.728 0-.383-.126-.644-.378-.784s-.611-.21-1.078-.21h-1.47Zm0 2.954v2.212h1.442c.261 0 .495-.014.7-.042.215-.037.397-.098.546-.182a.906.906 0 0 0 .364-.336.991.991 0 0 0 .126-.518c0-.42-.145-.714-.434-.882-.289-.168-.723-.252-1.302-.252h-1.442Zm10.543 1.876a4.24 4.24 0 0 1-.322.532 2.419 2.419 0 0 1-1.19.854c-.261.093-.569.14-.924.14-.653 0-1.18-.182-1.582-.546-.401-.373-.602-.905-.602-1.596 0-.793.276-1.377.826-1.75.56-.373 1.354-.56 2.38-.56h1.358v-.602c0-.504-.13-.863-.392-1.078-.261-.215-.709-.322-1.344-.322-.448 0-.872.075-1.274.224-.401.14-.76.303-1.078.49v-1.106a5.438 5.438 0 0 1 1.05-.462 4.367 4.367 0 0 1 1.47-.238c.915 0 1.61.191 2.086.574.476.373.714.957.714 1.75v4.2c.01.103.014.21.014.322l.028.322c.01.093.019.173.028.238h-1.12a6.439 6.439 0 0 1-.084-.546 8.754 8.754 0 0 1-.028-.63l-.014-.21Zm-2.17.42c.383 0 .71-.079.98-.238.271-.159.49-.341.658-.546.168-.215.29-.42.364-.616.075-.205.112-.35.112-.434v-.532h-1.232c-.737 0-1.274.107-1.61.322-.326.205-.49.518-.49.938 0 .327.098.593.294.798.196.205.504.308.924.308Zm10.03-2.254h-3.514V713h-1.232v-7.266h1.232v2.996h3.514v-2.996h1.232V713h-1.232v-3.22Zm4.484 1.54 3.878-5.586h1.246V713h-1.232v-5.572L442.534 713h-1.26v-7.266h1.232v5.586Zm12.917 1.064a3.919 3.919 0 0 1-.378.238c-.15.084-.332.168-.546.252a4.632 4.632 0 0 1-.728.182 4.51 4.51 0 0 1-.91.084c-1.223 0-2.152-.331-2.786-.994-.635-.663-.952-1.591-.952-2.786 0-.588.084-1.115.252-1.582.177-.467.42-.859.728-1.176a3.024 3.024 0 0 1 1.092-.742c.42-.177.877-.266 1.372-.266.522 0 .989.089 1.4.266.41.177.746.439 1.008.784.27.345.452.775.546 1.288.102.504.102 1.092 0 1.764h-5.124c.046.784.28 1.372.7 1.764.42.383 1.045.574 1.876.574.56 0 1.04-.079 1.442-.238a5.07 5.07 0 0 0 1.008-.518v1.106Zm-2.884-5.698c-.532 0-.99.163-1.372.49-.383.327-.626.821-.728 1.484h3.906c.037-.672-.117-1.167-.462-1.484-.346-.327-.794-.49-1.344-.49Zm9.195-3.724V713h-1.316v-10.038h1.316Zm2.335 0h3.206c1.138 0 2.02.238 2.646.714.634.467.952 1.199.952 2.198 0 .569-.094 1.059-.28 1.47-.178.401-.43.733-.756.994a3.153 3.153 0 0 1-1.176.574 5.746 5.746 0 0 1-1.498.182h-1.778V713h-1.316v-10.038Zm1.316 1.204v3.738h1.778c.354 0 .676-.037.966-.112.289-.075.536-.191.742-.35.214-.159.378-.364.49-.616.121-.261.182-.574.182-.938 0-.607-.196-1.045-.588-1.316-.392-.271-.952-.406-1.68-.406h-1.89Zm4.931 9.394 4.032-11.144h1.12l-4.032 11.144h-1.12Zm11.287-3.556 3.262-7.042h1.708V713h-1.33v-8.078l-3.08 6.538-.658.014h-.588l.014-.014-3.038-6.65V713h-1.246v-10.038h1.834l3.122 7.042Zm7.307-7.042h3.206c1.139 0 2.021.238 2.646.714.635.467.952 1.199.952 2.198 0 .569-.093 1.059-.28 1.47a2.584 2.584 0 0 1-.756.994 3.138 3.138 0 0 1-1.176.574 5.741 5.741 0 0 1-1.498.182h-1.778V713h-1.316v-10.038Zm1.316 1.204v3.738h1.778c.355 0 .677-.037.966-.112.29-.075.537-.191.742-.35.215-.159.378-.364.49-.616.122-.261.182-.574.182-.938 0-.607-.196-1.045-.588-1.316-.392-.271-.952-.406-1.68-.406h-1.89ZM503.657 713h-6.202v-10.038h1.316v8.848h4.886V713Zm4.61.14c-.457 0-.868-.033-1.232-.098a5.95 5.95 0 0 1-.966-.224 4.995 4.995 0 0 1-.7-.322 2.744 2.744 0 0 1-.448-.35v-1.26c.14.121.322.247.546.378.224.121.481.233.77.336.299.103.616.187.952.252.345.065.705.098 1.078.098.728 0 1.307-.135 1.736-.406.429-.28.644-.7.644-1.26 0-.28-.051-.509-.154-.686a1.245 1.245 0 0 0-.448-.462 2.596 2.596 0 0 0-.742-.322c-.289-.093-.63-.191-1.022-.294a18.704 18.704 0 0 1-1.176-.35 4.327 4.327 0 0 1-1.064-.518 2.622 2.622 0 0 1-.756-.812c-.187-.327-.28-.742-.28-1.246 0-.868.303-1.545.91-2.03.607-.485 1.535-.728 2.786-.728.364 0 .686.023.966.07.289.037.541.089.756.154.224.056.415.121.574.196.168.075.317.145.448.21v1.26a3.94 3.94 0 0 0-1.274-.532 6.055 6.055 0 0 0-1.47-.168c-.448 0-.826.037-1.134.112a2 2 0 0 0-.728.294 1.158 1.158 0 0 0-.406.476 1.521 1.521 0 0 0-.126.63c0 .28.061.513.182.7.131.187.299.345.504.476.215.121.457.224.728.308.271.084.555.159.854.224.392.093.793.201 1.204.322.411.121.779.289 1.106.504.327.215.593.495.798.84.215.336.322.775.322 1.316 0 .532-.107.985-.322 1.358a2.618 2.618 0 0 1-.826.896 3.51 3.51 0 0 1-1.19.504 6.232 6.232 0 0 1-1.4.154Z"/>
    <path fill="#5282FF" fill-rule="evenodd" d="M111 699c0-.342.162-.758.645-1.234.486-.479 1.241-.956 2.254-1.378 2.023-.843 4.886-1.388 8.101-1.388 3.215 0 6.078.545 8.101 1.388 1.013.422 1.768.899 2.254 1.378.483.476.645.892.645 1.234 0 .342-.162.758-.645 1.234-.486.479-1.241.956-2.254 1.378-2.023.843-4.886 1.388-8.101 1.388-3.215 0-6.078-.545-8.101-1.388-1.013-.422-1.768-.899-2.254-1.378-.483-.476-.645-.892-.645-1.234Zm-2 0c0-1.039.509-1.938 1.241-2.659.728-.717 1.731-1.317 2.889-1.8 2.321-.967 5.457-1.541 8.87-1.541 3.413 0 6.549.574 8.87 1.541 1.158.483 2.161 1.083 2.889 1.8.732.721 1.241 1.62 1.241 2.659v18c0 1.039-.509 1.938-1.241 2.659-.728.717-1.731 1.317-2.889 1.8-2.321.967-5.457 1.541-8.87 1.541-3.413 0-6.549-.574-8.87-1.541-1.158-.483-2.161-1.083-2.889-1.8-.732-.721-1.241-1.62-1.241-2.659v-18Zm24 3.296V717c0 .342-.162.758-.645 1.234-.486.479-1.241.956-2.254 1.378-2.023.843-4.886 1.388-8.101 1.388-3.215 0-6.078-.545-8.101-1.388-1.013-.422-1.768-.899-2.254-1.378-.483-.476-.645-.892-.645-1.234v-14.704c.611.443 1.334.831 2.13 1.163 2.321.967 5.457 1.541 8.87 1.541 3.413 0 6.549-.574 8.87-1.541.796-.332 1.519-.72 2.13-1.163Zm202.293-9.003a.999.999 0 0 1 1.414 0l4 4a.999.999 0 1 1-1.414 1.414L337 696.414v23.172l2.293-2.293a.999.999 0 1 1 1.414 1.414l-4 4a.999.999 0 0 1-1.414 0l-4-4a.999.999 0 1 1 1.414-1.414l2.293 2.293v-23.172l-2.293 2.293a.999.999 0 1 1-1.414-1.414l4-4ZM351 708a1 1 0 0 1-1 1h-7.586l2.293 2.293a.999.999 0 1 1-1.414 1.414l-4-4a.999.999 0 0 1 0-1.414l4-4a.999.999 0 1 1 1.414 1.414L342.414 707H350a1 1 0 0 1 1 1Zm-30 0a1 1 0 0 1 1-1h7.586l-2.293-2.293a.999.999 0 1 1 1.414-1.414l4 4a.999.999 0 0 1 0 1.414l-4 4a.999.999 0 1 1-1.414-1.414l2.293-2.293H322a1 1 0 0 1-1-1Z" clip-rule="evenodd"/>
    <g clip-path="url(#clip3_52_592)">
        <path fill="#5282FF" fill-rule="evenodd" d="M564.374 720.869v-3.741c0-.624.538-1.131 1.201-1.131h.924v-2.922c-.003-.019-.003-.046-.003-.075v-.003c0-.274.133-.525.374-.725a.992.992 0 0 1 .691-.275h.003c.019 0 .039.003.054.003.028 0 .053-.003.079-.003h7.3v-2h-11.688c-2.93 0-5.309-1.997-5.309-4.997 0-2.757 2.745-5 5.674-5h.805c.493-2.283 2.64-4.003 5.209-4.003.578 0 1.134.088 1.655.251 1.139-2.499 3.776-4.251 6.844-4.251 4.105 0 7.439 3.136 7.439 7 0 .342-.028.675-.076 1.003h1.139c2.929 0 5.309 2.24 5.309 4.997V705c0 2.757-2.38 4.997-5.309 4.997h-9.564v2h7.295c.022 0 .048.003.079.003.017 0 .037-.003.059-.003h.003c.108 0 .213.019.691.288l.009.003c.006-.003.037.027.074.064a.893.893 0 0 1 .286.645V713c0 .013-.003.024-.003.048a.558.558 0 0 1 .006.08v2.869h.923c.663 0 1.201.507 1.201 1.131v3.741c0 .624-.538 1.131-1.201 1.131h-3.974c-.663 0-1.202-.507-1.202-1.131v-3.741c0-.624.539-1.131 1.202-1.131h.923V714h-6.371v1.997h.923c.663 0 1.202.507 1.202 1.131v3.741c0 .624-.539 1.131-1.202 1.131h-3.974c-.663 0-1.201-.507-1.201-1.131v-3.741c0-.624.538-1.131 1.201-1.131h.923V714h-6.371v1.997h.924c.663 0 1.201.507 1.201 1.131v3.741c0 .624-.538 1.131-1.201 1.131h-3.975c-.663 0-1.201-.507-1.201-1.131Zm20.887-8.578-.009-.006c-.042-.037-.014-.016.015.008-.029-.029-.032-.034-.006-.002Zm0 0c-.258-.184-.136-.11.006 0-.057-.043-.071-.054-.006 0Z" clip-rule="evenodd"/>
    </g>
    <path fill="#000" fill-opacity=".85" d="M606.53 713.14c-.747 0-1.423-.117-2.03-.35a4.434 4.434 0 0 1-1.568-1.008 4.611 4.611 0 0 1-.994-1.624c-.233-.644-.35-1.367-.35-2.17 0-.812.107-1.535.322-2.17a4.27 4.27 0 0 1 .952-1.61c.42-.448.933-.789 1.54-1.022.616-.233 1.316-.35 2.1-.35.681 0 1.279.075 1.792.224.513.14.933.308 1.26.504v1.26a4.64 4.64 0 0 0-1.456-.602 6.823 6.823 0 0 0-1.61-.196c-1.185 0-2.063.331-2.632.994-.56.653-.84 1.643-.84 2.968 0 1.335.303 2.329.91 2.982.616.653 1.521.98 2.716.98.513 0 1.013-.07 1.498-.21.495-.14.966-.378 1.414-.714v1.26c-.271.215-.667.411-1.19.588-.513.177-1.125.266-1.834.266Zm6.103-10.178V713h-1.232v-10.038h1.232Zm4.99 10.178c-.495 0-.957-.084-1.386-.252a3.224 3.224 0 0 1-1.12-.728 3.542 3.542 0 0 1-.728-1.19c-.178-.467-.266-1.003-.266-1.61 0-.597.088-1.129.266-1.596.177-.476.42-.873.728-1.19.317-.317.69-.56 1.12-.728a3.767 3.767 0 0 1 1.386-.252c.504 0 .97.084 1.4.252.429.168.798.411 1.106.728.317.317.564.714.742 1.19.186.467.28.999.28 1.596 0 .607-.094 1.143-.28 1.61a3.448 3.448 0 0 1-.742 1.19c-.308.317-.677.56-1.106.728-.43.168-.896.252-1.4.252Zm0-1.106c.326 0 .625-.051.896-.154.28-.112.522-.275.728-.49.205-.224.364-.504.476-.84.112-.336.168-.733.168-1.19 0-.457-.056-.854-.168-1.19a2.17 2.17 0 0 0-.476-.826 1.838 1.838 0 0 0-.728-.49 2.325 2.325 0 0 0-.896-.168c-.327 0-.626.056-.896.168a1.849 1.849 0 0 0-.714.49c-.196.215-.35.49-.462.826a3.775 3.775 0 0 0-.168 1.19c0 .457.056.854.168 1.19.112.336.266.616.462.84.205.215.443.378.714.49.27.103.569.154.896.154Zm9.692-.336c-.196.411-.5.756-.91 1.036-.402.271-.929.406-1.582.406-.672 0-1.218-.187-1.638-.56-.411-.383-.616-.971-.616-1.764v-5.082h1.246v5.082c0 .243.032.443.098.602.074.149.172.271.294.364.121.093.261.159.42.196.168.037.35.056.546.056.541 0 .975-.121 1.302-.364.326-.243.606-.574.84-.994v-4.942h1.232V713h-1.092l-.112-1.302h-.028Zm8.462-.126a2.916 2.916 0 0 1-.938 1.148c-.402.28-.91.42-1.526.42-.439 0-.854-.075-1.246-.224a2.992 2.992 0 0 1-1.036-.7 3.494 3.494 0 0 1-.714-1.176c-.178-.476-.266-1.036-.266-1.68 0-.635.088-1.185.266-1.652.177-.476.415-.868.714-1.176a2.752 2.752 0 0 1 1.036-.7 3.387 3.387 0 0 1 1.26-.238c.55 0 1.026.117 1.428.35.401.224.723.546.966.966v-3.948h1.232V713h-1.078l-.098-1.428Zm-2.282.462c.317 0 .611-.051.882-.154.27-.112.504-.28.7-.504.205-.224.364-.504.476-.84.121-.336.182-.728.182-1.176 0-.448-.061-.84-.182-1.176a2.305 2.305 0 0 0-.476-.84 1.746 1.746 0 0 0-.7-.49 2.287 2.287 0 0 0-.882-.168c-.644 0-1.172.229-1.582.686-.402.448-.602 1.111-.602 1.988 0 .887.205 1.554.616 2.002.41.448.933.672 1.568.672Zm10.028-9.072V713h-1.316v-10.038h1.316Zm5.611 3.724c-.56 0-1.018.131-1.372.392a2.853 2.853 0 0 0-.84.98V713h-1.232v-7.266h1.162l.042 1.302h.028a2.46 2.46 0 0 1 .924-1.036c.42-.271.952-.406 1.596-.406.718 0 1.288.191 1.708.574.429.373.644.952.644 1.736V713h-1.232v-4.97c0-.504-.126-.854-.378-1.05-.252-.196-.602-.294-1.05-.294Zm8.164 6.16c-.149.084-.34.154-.574.21-.233.056-.48.084-.742.084-.354 0-.658-.051-.91-.154a1.77 1.77 0 0 1-.602-.406 1.737 1.737 0 0 1-.35-.588 2.452 2.452 0 0 1-.098-.686v-4.522h-.868v-1.05h.868v-1.526h1.232v1.526h2.114v1.05h-2.114v4.368c0 .308.075.532.224.672.159.14.434.21.826.21.364 0 .696-.103.994-.308v1.12Zm7.353-.462a3.685 3.685 0 0 1-.378.238 4.34 4.34 0 0 1-.546.252 4.576 4.576 0 0 1-.728.182c-.27.056-.574.084-.91.084-1.222 0-2.151-.331-2.786-.994-.634-.663-.952-1.591-.952-2.786 0-.588.084-1.115.252-1.582.178-.467.42-.859.728-1.176a3.024 3.024 0 0 1 1.092-.742 3.5 3.5 0 0 1 1.372-.266c.523 0 .99.089 1.4.266.411.177.747.439 1.008.784.271.345.453.775.546 1.288.103.504.103 1.092 0 1.764h-5.124c.047.784.28 1.372.7 1.764.42.383 1.046.574 1.876.574.56 0 1.041-.079 1.442-.238a5.015 5.015 0 0 0 1.008-.518v1.106Zm-2.884-5.698c-.532 0-.989.163-1.372.49-.382.327-.625.821-.728 1.484h3.906c.038-.672-.116-1.167-.462-1.484-.345-.327-.793-.49-1.344-.49Zm8.124.28a3.784 3.784 0 0 0-1.428.406c-.42.215-.733.551-.938 1.008V713h-1.232v-7.266h1.078l.126 1.582h.028c.205-.429.499-.803.882-1.12.392-.327.887-.527 1.484-.602v1.372Zm4.433 6.174c-.56 0-1.069-.084-1.526-.252a3.335 3.335 0 0 1-1.148-.742 3.263 3.263 0 0 1-.728-1.19c-.168-.467-.252-.999-.252-1.596 0-.588.084-1.115.252-1.582.177-.467.424-.859.742-1.176a3.057 3.057 0 0 1 1.162-.742 4.277 4.277 0 0 1 1.554-.266c.448 0 .858.051 1.232.154.373.093.681.233.924.42v1.106a3.263 3.263 0 0 0-1.008-.434 4.145 4.145 0 0 0-1.134-.154c-.85 0-1.475.219-1.876.658-.392.439-.588 1.111-.588 2.016s.191 1.577.574 2.016c.382.439.989.658 1.82.658.438 0 .84-.051 1.204-.154a4.969 4.969 0 0 0 1.008-.42v1.106a4.29 4.29 0 0 1-2.212.574Zm6.695 0c-.494 0-.956-.084-1.386-.252a3.242 3.242 0 0 1-1.12-.728 3.558 3.558 0 0 1-.728-1.19c-.177-.467-.266-1.003-.266-1.61 0-.597.089-1.129.266-1.596.178-.476.42-.873.728-1.19.318-.317.691-.56 1.12-.728.43-.168.892-.252 1.386-.252.504 0 .971.084 1.4.252.43.168.798.411 1.106.728.318.317.565.714.742 1.19.187.467.28.999.28 1.596 0 .607-.093 1.143-.28 1.61a3.418 3.418 0 0 1-.742 1.19c-.308.317-.676.56-1.106.728a3.807 3.807 0 0 1-1.4.252Zm0-1.106c.327 0 .626-.051.896-.154a2.04 2.04 0 0 0 .728-.49 2.29 2.29 0 0 0 .476-.84c.112-.336.168-.733.168-1.19 0-.457-.056-.854-.168-1.19a2.158 2.158 0 0 0-.476-.826 1.831 1.831 0 0 0-.728-.49 2.318 2.318 0 0 0-.896-.168c-.326 0-.625.056-.896.168-.27.103-.508.266-.714.49-.196.215-.35.49-.462.826a3.775 3.775 0 0 0-.168 1.19c0 .457.056.854.168 1.19.112.336.266.616.462.84.206.215.444.378.714.49.271.103.57.154.896.154Zm8.474-5.348c-.56 0-1.017.131-1.372.392a2.874 2.874 0 0 0-.84.98V713h-1.232v-7.266h1.162l.042 1.302h.028a2.46 2.46 0 0 1 .924-1.036c.42-.271.952-.406 1.596-.406.719 0 1.288.191 1.708.574.429.373.644.952.644 1.736V713h-1.232v-4.97c0-.504-.126-.854-.378-1.05-.252-.196-.602-.294-1.05-.294Zm8.053 0c-.56 0-1.018.131-1.372.392a2.853 2.853 0 0 0-.84.98V713h-1.232v-7.266h1.162l.042 1.302h.028a2.46 2.46 0 0 1 .924-1.036c.42-.271.952-.406 1.596-.406.718 0 1.288.191 1.708.574.429.373.644.952.644 1.736V713h-1.232v-4.97c0-.504-.126-.854-.378-1.05-.252-.196-.602-.294-1.05-.294Zm10.39 5.698a3.685 3.685 0 0 1-.378.238 4.34 4.34 0 0 1-.546.252 4.576 4.576 0 0 1-.728.182c-.27.056-.574.084-.91.084-1.222 0-2.151-.331-2.786-.994-.634-.663-.952-1.591-.952-2.786 0-.588.084-1.115.252-1.582.178-.467.42-.859.728-1.176a3.024 3.024 0 0 1 1.092-.742 3.5 3.5 0 0 1 1.372-.266c.523 0 .99.089 1.4.266.411.177.747.439 1.008.784.271.345.453.775.546 1.288.103.504.103 1.092 0 1.764h-5.124c.047.784.28 1.372.7 1.764.42.383 1.046.574 1.876.574.56 0 1.041-.079 1.442-.238a5.015 5.015 0 0 0 1.008-.518v1.106Zm-2.884-5.698c-.532 0-.989.163-1.372.49-.382.327-.625.821-.728 1.484h3.906c.038-.672-.116-1.167-.462-1.484-.345-.327-.793-.49-1.344-.49Zm7.662 6.454c-.56 0-1.068-.084-1.526-.252a3.345 3.345 0 0 1-1.148-.742 3.277 3.277 0 0 1-.728-1.19c-.168-.467-.252-.999-.252-1.596 0-.588.084-1.115.252-1.582.178-.467.425-.859.742-1.176a3.073 3.073 0 0 1 1.162-.742 4.284 4.284 0 0 1 1.554-.266c.448 0 .859.051 1.232.154.374.093.682.233.924.42v1.106a3.243 3.243 0 0 0-1.008-.434 4.145 4.145 0 0 0-1.134-.154c-.849 0-1.474.219-1.876.658-.392.439-.588 1.111-.588 2.016s.192 1.577.574 2.016c.383.439.99.658 1.82.658.439 0 .84-.051 1.204-.154.374-.112.71-.252 1.008-.42v1.106a4.29 4.29 0 0 1-2.212.574Zm7.338-.294c-.149.084-.34.154-.574.21-.233.056-.48.084-.742.084-.354 0-.658-.051-.91-.154a1.77 1.77 0 0 1-.602-.406 1.737 1.737 0 0 1-.35-.588 2.452 2.452 0 0 1-.098-.686v-4.522h-.868v-1.05h.868v-1.526h1.232v1.526h2.114v1.05h-2.114v4.368c0 .308.075.532.224.672.159.14.434.21.826.21.364 0 .696-.103.994-.308v1.12Zm69.44-9.884V713h-1.316v-10.038h1.316Zm5.61 3.724c-.56 0-1.017.131-1.372.392a2.874 2.874 0 0 0-.84.98V713h-1.232v-7.266h1.162l.042 1.302h.028a2.46 2.46 0 0 1 .924-1.036c.42-.271.952-.406 1.596-.406.719 0 1.288.191 1.708.574.43.373.644.952.644 1.736V713h-1.232v-4.97c0-.504-.126-.854-.378-1.05-.252-.196-.602-.294-1.05-.294Zm8.165 6.16a2.252 2.252 0 0 1-.574.21 3.171 3.171 0 0 1-.742.084c-.355 0-.658-.051-.91-.154a1.76 1.76 0 0 1-.602-.406 1.72 1.72 0 0 1-.35-.588 2.452 2.452 0 0 1-.098-.686v-4.522h-.868v-1.05h.868v-1.526h1.232v1.526h2.114v1.05h-2.114v4.368c0 .308.075.532.224.672.159.14.434.21.826.21.364 0 .695-.103.994-.308v1.12Zm7.353-.462a3.919 3.919 0 0 1-.378.238 4.34 4.34 0 0 1-.546.252 4.604 4.604 0 0 1-.728.182 4.51 4.51 0 0 1-.91.084c-1.223 0-2.151-.331-2.786-.994-.635-.663-.952-1.591-.952-2.786 0-.588.084-1.115.252-1.582.177-.467.42-.859.728-1.176a3.024 3.024 0 0 1 1.092-.742c.42-.177.877-.266 1.372-.266.523 0 .989.089 1.4.266.411.177.747.439 1.008.784.271.345.453.775.546 1.288.103.504.103 1.092 0 1.764h-5.124c.047.784.28 1.372.7 1.764.42.383 1.045.574 1.876.574.56 0 1.041-.079 1.442-.238a5.07 5.07 0 0 0 1.008-.518v1.106Zm-2.884-5.698c-.532 0-.989.163-1.372.49-.383.327-.625.821-.728 1.484h3.906c.037-.672-.117-1.167-.462-1.484-.345-.327-.793-.49-1.344-.49Zm8.124.28a3.784 3.784 0 0 0-1.428.406c-.42.215-.733.551-.938 1.008V713h-1.232v-7.266h1.078l.126 1.582h.028c.205-.429.499-.803.882-1.12.392-.327.887-.527 1.484-.602v1.372Zm4.946-.28c-.56 0-1.018.131-1.372.392a2.853 2.853 0 0 0-.84.98V713h-1.232v-7.266h1.162l.042 1.302h.028a2.46 2.46 0 0 1 .924-1.036c.42-.271.952-.406 1.596-.406.718 0 1.288.191 1.708.574.429.373.644.952.644 1.736V713h-1.232v-4.97c0-.504-.126-.854-.378-1.05-.252-.196-.602-.294-1.05-.294Zm10.39 5.698a3.685 3.685 0 0 1-.378.238 4.34 4.34 0 0 1-.546.252 4.576 4.576 0 0 1-.728.182c-.27.056-.574.084-.91.084-1.222 0-2.151-.331-2.786-.994-.634-.663-.952-1.591-.952-2.786 0-.588.084-1.115.252-1.582.178-.467.42-.859.728-1.176a3.024 3.024 0 0 1 1.092-.742 3.5 3.5 0 0 1 1.372-.266c.523 0 .99.089 1.4.266.411.177.747.439 1.008.784.271.345.453.775.546 1.288.103.504.103 1.092 0 1.764h-5.124c.047.784.28 1.372.7 1.764.42.383 1.046.574 1.876.574.56 0 1.041-.079 1.442-.238a5.015 5.015 0 0 0 1.008-.518v1.106Zm-2.884-5.698c-.532 0-.989.163-1.372.49-.382.327-.625.821-.728 1.484h3.906c.038-.672-.116-1.167-.462-1.484-.345-.327-.793-.49-1.344-.49Zm8.082 6.16a2.252 2.252 0 0 1-.574.21 3.171 3.171 0 0 1-.742.084c-.355 0-.658-.051-.91-.154a1.76 1.76 0 0 1-.602-.406 1.72 1.72 0 0 1-.35-.588 2.452 2.452 0 0 1-.098-.686v-4.522h-.868v-1.05h.868v-1.526h1.232v1.526h2.114v1.05h-2.114v4.368c0 .308.075.532.224.672.159.14.434.21.826.21.364 0 .695-.103.994-.308v1.12Zm4.884-9.884h3.206c1.138 0 2.02.238 2.646.714.634.467.952 1.199.952 2.198 0 .569-.094 1.059-.28 1.47-.178.401-.43.733-.756.994a3.153 3.153 0 0 1-1.176.574 5.746 5.746 0 0 1-1.498.182h-1.778V713h-1.316v-10.038Zm1.316 1.204v3.738h1.778c.354 0 .676-.037.966-.112.289-.075.536-.191.742-.35.214-.159.378-.364.49-.616.121-.261.182-.574.182-.938 0-.607-.196-1.045-.588-1.316-.392-.271-.952-.406-1.68-.406h-1.89Zm12.569 8.218a3.919 3.919 0 0 1-.378.238 4.34 4.34 0 0 1-.546.252 4.604 4.604 0 0 1-.728.182 4.51 4.51 0 0 1-.91.084c-1.223 0-2.151-.331-2.786-.994-.635-.663-.952-1.591-.952-2.786 0-.588.084-1.115.252-1.582.177-.467.42-.859.728-1.176a3.024 3.024 0 0 1 1.092-.742c.42-.177.877-.266 1.372-.266.523 0 .989.089 1.4.266.411.177.747.439 1.008.784.271.345.453.775.546 1.288.103.504.103 1.092 0 1.764h-5.124c.047.784.28 1.372.7 1.764.42.383 1.045.574 1.876.574.56 0 1.041-.079 1.442-.238a5.07 5.07 0 0 0 1.008-.518v1.106Zm-2.884-5.698c-.532 0-.989.163-1.372.49-.383.327-.625.821-.728 1.484h3.906c.037-.672-.117-1.167-.462-1.484-.345-.327-.793-.49-1.344-.49Zm10.308 5.698a3.919 3.919 0 0 1-.378.238 4.34 4.34 0 0 1-.546.252 4.604 4.604 0 0 1-.728.182 4.51 4.51 0 0 1-.91.084c-1.223 0-2.151-.331-2.786-.994-.635-.663-.952-1.591-.952-2.786 0-.588.084-1.115.252-1.582.177-.467.42-.859.728-1.176a3.024 3.024 0 0 1 1.092-.742c.42-.177.877-.266 1.372-.266.523 0 .989.089 1.4.266.411.177.747.439 1.008.784.271.345.453.775.546 1.288.103.504.103 1.092 0 1.764h-5.124c.047.784.28 1.372.7 1.764.42.383 1.045.574 1.876.574.56 0 1.041-.079 1.442-.238a5.07 5.07 0 0 0 1.008-.518v1.106Zm-2.884-5.698c-.532 0-.989.163-1.372.49-.383.327-.625.821-.728 1.484h3.906c.037-.672-.117-1.167-.462-1.484-.345-.327-.793-.49-1.344-.49Zm8.124.28a3.784 3.784 0 0 0-1.428.406c-.42.215-.733.551-.938 1.008V713h-1.232v-7.266h1.078l.126 1.582h.028c.205-.429.499-.803.882-1.12.392-.327.886-.527 1.484-.602v1.372Zm2.131-2.296c-.252 0-.452-.075-.602-.224a.81.81 0 0 1-.224-.574.81.81 0 0 1 .224-.574c.15-.159.35-.238.602-.238.243 0 .434.079.574.238.14.159.21.35.21.574 0 .224-.07.415-.21.574-.14.149-.331.224-.574.224Zm.602 1.064V713h-1.232v-7.266h1.232Zm5.453.952c-.56 0-1.018.131-1.372.392a2.853 2.853 0 0 0-.84.98V713h-1.232v-7.266h1.162l.042 1.302h.028a2.46 2.46 0 0 1 .924-1.036c.42-.271.952-.406 1.596-.406.718 0 1.288.191 1.708.574.429.373.644.952.644 1.736V713h-1.232v-4.97c0-.504-.126-.854-.378-1.05-.252-.196-.602-.294-1.05-.294Zm10.852 5.698c0 .467-.07.891-.21 1.274a2.29 2.29 0 0 1-.644.994c-.289.271-.667.481-1.134.63-.457.149-1.012.224-1.666.224-.354 0-.667-.019-.938-.056a4.345 4.345 0 0 1-.714-.154 2.562 2.562 0 0 1-.504-.196 2.377 2.377 0 0 1-.35-.196v-1.106c.15.084.304.159.462.224a4.105 4.105 0 0 0 1.204.322c.252.037.537.056.854.056.896 0 1.522-.168 1.876-.504.355-.336.532-.835.532-1.498v-1.12a2.637 2.637 0 0 1-.91 1.036c-.382.261-.858.392-1.428.392a3.44 3.44 0 0 1-1.232-.224 3.058 3.058 0 0 1-1.022-.658 3.414 3.414 0 0 1-.7-1.106c-.168-.448-.252-.966-.252-1.554 0-.597.084-1.115.252-1.554.178-.448.411-.821.7-1.12a2.914 2.914 0 0 1 1.036-.672 3.48 3.48 0 0 1 1.246-.224c.579 0 1.064.131 1.456.392.402.261.714.616.938 1.064l.014-.154c0-.168.01-.369.028-.602.019-.243.038-.429.056-.56h1.12c-.018.131-.037.317-.056.56a16.97 16.97 0 0 0-.014.602v5.488Zm-3.346-.784c.308 0 .588-.047.84-.14.262-.103.486-.257.672-.462.196-.205.346-.457.448-.756a3.15 3.15 0 0 0 .168-1.078c0-.831-.205-1.451-.616-1.862-.401-.411-.91-.616-1.526-.616a2.42 2.42 0 0 0-.868.154c-.261.103-.49.257-.686.462a2.285 2.285 0 0 0-.448.784 3.15 3.15 0 0 0-.168 1.078c0 .411.056.77.168 1.078.112.299.266.551.462.756.196.196.425.345.686.448.271.103.56.154.868.154Z"/>
    <path fill="#5282FF" fill-rule="evenodd" d="M763.391 694.866c.6-.635 1.144-.866 1.609-.866.465 0 1.009.231 1.609.866.602.636 1.19 1.611 1.705 2.899.943 2.356 1.574 5.593 1.673 9.235h-9.974c.099-3.642.73-6.879 1.673-9.235.515-1.288 1.103-2.263 1.705-2.899ZM758.013 707c.098-3.845.763-7.345 1.816-9.978.369-.922.793-1.758 1.272-2.472-5.527 1.6-9.647 6.514-10.066 12.45h6.978Zm-6.978 2h6.978c.098 3.845.763 7.345 1.816 9.978.369.922.793 1.758 1.272 2.472-5.527-1.6-9.647-6.514-10.066-12.45ZM749 708c0-8.837 7.163-16 16-16s16 7.163 16 16-7.163 16-16 16-16-7.163-16-16Zm29.965-1c-.419-5.936-4.539-10.85-10.066-12.45.479.714.903 1.55 1.272 2.472 1.053 2.633 1.718 6.133 1.816 9.978h6.978Zm-6.978 2h6.978c-.419 5.936-4.539 10.85-10.066 12.45.479-.714.903-1.55 1.272-2.472 1.053-2.633 1.718-6.133 1.816-9.978Zm-2 0c-.099 3.642-.73 6.879-1.673 9.235-.515 1.288-1.103 2.263-1.705 2.899-.6.635-1.144.866-1.609.866-.465 0-1.009-.231-1.609-.866-.602-.636-1.19-1.611-1.705-2.899-.943-2.356-1.574-5.593-1.673-9.235h9.974Z" clip-rule="evenodd"/>
    <rect width="180" height="80" x="558" y="21" fill="#fff" stroke="#FF5958" stroke-width="2" rx="4"/>
    <path fill="#000" fill-opacity=".85" d="M595.912 36.66h4.58c1.627 0 2.887.34 3.78 1.02.907.667 1.36 1.713 1.36 3.14 0 .813-.133 1.513-.4 2.1a3.695 3.695 0 0 1-1.08 1.42c-.466.373-1.026.647-1.68.82-.64.173-1.353.26-2.14.26h-2.54V51h-1.88V36.66Zm1.88 1.72v5.34h2.54c.507 0 .967-.053 1.38-.16a2.885 2.885 0 0 0 1.06-.5c.307-.227.54-.52.7-.88.174-.373.26-.82.26-1.34 0-.867-.28-1.493-.84-1.88-.56-.387-1.36-.58-2.4-.58h-2.7Zm13.957 12.82c-.707 0-1.367-.12-1.98-.36a4.603 4.603 0 0 1-1.6-1.04 5.063 5.063 0 0 1-1.04-1.7c-.254-.667-.38-1.433-.38-2.3 0-.853.126-1.613.38-2.28.253-.68.6-1.247 1.04-1.7.453-.453.986-.8 1.6-1.04a5.383 5.383 0 0 1 1.98-.36c.72 0 1.386.12 2 .36.613.24 1.14.587 1.58 1.04.453.453.806 1.02 1.06 1.7.266.667.4 1.427.4 2.28 0 .867-.134 1.633-.4 2.3a4.92 4.92 0 0 1-1.06 1.7c-.44.453-.967.8-1.58 1.04-.614.24-1.28.36-2 .36Zm0-1.58a3.58 3.58 0 0 0 1.28-.22c.4-.16.746-.393 1.04-.7.293-.32.52-.72.68-1.2.16-.48.24-1.047.24-1.7s-.08-1.22-.24-1.7c-.16-.48-.387-.873-.68-1.18a2.62 2.62 0 0 0-1.04-.7 3.32 3.32 0 0 0-1.28-.24c-.467 0-.894.08-1.28.24-.387.147-.727.38-1.02.7-.28.307-.5.7-.66 1.18-.16.48-.24 1.047-.24 1.7s.08 1.22.24 1.7c.16.48.38.88.66 1.2.293.307.633.54 1.02.7.386.147.813.22 1.28.22Zm7.425-12.96h4.58c1.627 0 2.887.34 3.78 1.02.907.667 1.36 1.713 1.36 3.14 0 .813-.133 1.513-.4 2.1a3.695 3.695 0 0 1-1.08 1.42 4.502 4.502 0 0 1-1.68.82c-.64.173-1.353.26-2.14.26h-2.54V51h-1.88V36.66Zm1.88 1.72v5.34h2.54c.507 0 .967-.053 1.38-.16a2.893 2.893 0 0 0 1.06-.5c.307-.227.54-.52.7-.88.173-.373.26-.82.26-1.34 0-.867-.28-1.493-.84-1.88-.56-.387-1.36-.58-2.4-.58h-2.7Zm19.962.02V51h-1.9V38.4h-4.42v-1.74h10.74v1.74h-4.42Zm6.732-1.74h8.88v1.72h-7v4.34h5.94v1.7h-5.94v4.88h7.1V51h-8.98V36.66Zm21.193 8.08h-7.36V51h-1.88V36.66h1.88v6.38h7.36v-6.38h1.9V51h-1.9v-6.26ZM685.714 51h-2.56l-7.2-12.04V51h-1.78V36.66h2.54l7.2 12.04V36.66h1.8V51Zm9.363.2c-.96 0-1.86-.16-2.7-.48a6.22 6.22 0 0 1-2.18-1.44c-.613-.627-1.1-1.4-1.46-2.32-.347-.92-.52-1.98-.52-3.18 0-1.2.173-2.253.52-3.16.36-.92.847-1.68 1.46-2.28a5.903 5.903 0 0 1 2.18-1.38 7.52 7.52 0 0 1 2.7-.48c.973 0 1.88.16 2.72.48a5.91 5.91 0 0 1 2.18 1.38c.613.613 1.093 1.38 1.44 2.3.347.907.52 1.96.52 3.16 0 1.187-.173 2.24-.52 3.16-.347.92-.827 1.693-1.44 2.32a6.22 6.22 0 0 1-2.18 1.44c-.84.32-1.747.48-2.72.48Zm0-1.7c.693 0 1.333-.1 1.92-.3a3.985 3.985 0 0 0 1.52-.98c.44-.453.78-1.04 1.02-1.76.253-.72.38-1.593.38-2.62 0-1.027-.127-1.9-.38-2.62-.24-.72-.58-1.3-1.02-1.74a3.695 3.695 0 0 0-1.52-.98 5.582 5.582 0 0 0-1.92-.32 5.59 5.59 0 0 0-1.92.32c-.587.2-1.1.527-1.54.98-.427.44-.767 1.02-1.02 1.74-.24.72-.36 1.593-.36 2.62 0 1.027.12 1.9.36 2.62.253.72.593 1.307 1.02 1.76.44.44.953.767 1.54.98.587.2 1.227.3 1.92.3Z"/>
    <path fill="#5282FF" fill-rule="evenodd" d="M678.391 61.866c.6-.635 1.144-.866 1.609-.866.465 0 1.009.231 1.609.866.602.636 1.19 1.611 1.705 2.899.943 2.356 1.574 5.593 1.673 9.235h-9.974c.099-3.642.73-6.88 1.673-9.235.515-1.288 1.103-2.263 1.705-2.9ZM673.013 74c.098-3.846.763-7.345 1.816-9.978.369-.922.793-1.758 1.272-2.472-5.527 1.6-9.647 6.514-10.066 12.45h6.978Zm-6.978 2h6.978c.098 3.846.763 7.345 1.816 9.978.369.922.793 1.758 1.272 2.472-5.527-1.6-9.647-6.514-10.066-12.45ZM664 75c0-8.837 7.163-16 16-16s16 7.163 16 16-7.163 16-16 16-16-7.163-16-16Zm29.965-1c-.419-5.936-4.539-10.85-10.066-12.45.479.714.903 1.55 1.272 2.472 1.053 2.633 1.718 6.132 1.816 9.978h6.978Zm-6.978 2h6.978c-.419 5.936-4.539 10.85-10.066 12.45.479-.714.903-1.55 1.272-2.472 1.053-2.633 1.718-6.132 1.816-9.978Zm-2 0c-.099 3.642-.73 6.88-1.673 9.235-.515 1.288-1.103 2.263-1.705 2.9-.6.634-1.144.865-1.609.865-.465 0-1.009-.231-1.609-.866-.602-.636-1.19-1.611-1.705-2.899-.943-2.356-1.574-5.593-1.673-9.235h9.974Z" clip-rule="evenodd"/>
    <g clip-path="url(#clip4_52_592)">
        <path fill="#5282FF" fill-rule="evenodd" d="M601.374 87.87v-3.742c0-.624.538-1.13 1.201-1.13h.924v-2.923c-.003-.019-.003-.046-.003-.075v-.003c0-.274.133-.525.374-.725a.994.994 0 0 1 .691-.275h.003c.019 0 .039.003.054.003.028 0 .053-.003.079-.003h7.3v-2h-11.688C597.379 76.997 595 75 595 72c0-2.757 2.745-5 5.674-5h.805c.493-2.283 2.64-4.003 5.209-4.003.578 0 1.134.088 1.655.251 1.139-2.499 3.776-4.25 6.844-4.25 4.105 0 7.439 3.135 7.439 7 0 .34-.028.674-.076 1.002h1.139c2.929 0 5.309 2.24 5.309 4.997V72c0 2.757-2.38 4.997-5.309 4.997h-9.564v2h7.295c.022 0 .048.003.079.003.017 0 .037-.003.059-.003h.003c.108 0 .213.019.691.288l.009.003c.006-.003.037.027.074.064.167.155.286.39.286.645V80c0 .013-.003.024-.003.048a.56.56 0 0 1 .006.08v2.87h.923c.663 0 1.201.506 1.201 1.13v3.741c0 .624-.538 1.13-1.201 1.13h-3.974c-.663 0-1.202-.506-1.202-1.13v-3.741c0-.624.539-1.13 1.202-1.13h.923V81h-6.371v1.997h.923c.663 0 1.202.507 1.202 1.13v3.742c0 .624-.539 1.13-1.202 1.13h-3.974c-.663 0-1.201-.506-1.201-1.13v-3.741c0-.624.538-1.13 1.201-1.13h.923V81h-6.371v1.997h.924c.663 0 1.201.507 1.201 1.13v3.742c0 .624-.538 1.13-1.201 1.13h-3.975c-.663 0-1.201-.506-1.201-1.13Zm20.887-8.58-.009-.005c-.042-.037-.014-.016.015.008-.029-.03-.032-.034-.006-.002Zm0 0c-.258-.183-.136-.109.006 0-.057-.042-.071-.053-.006 0Z" clip-rule="evenodd"/>
    </g>
    <path fill="#5282FF" d="m407 267-9.969-5.827-.062 11.546L407 267Zm-185-1 9.969 5.827.062-11.546L222 266Zm176.006-.049-167.001-.902-.011 2 167.001.902.011-2ZM452 220l-.651-11.529-9.659 6.328L452 220Zm-76-116 .651 11.529 9.659-6.328L376 104Zm71.904 107.924L381.769 110.98l-1.673 1.096 66.135 100.944 1.673-1.096ZM591 220l9.746-6.192-10.236-5.345L591 220Zm59-113-9.746 6.192 10.236 5.345L650 107Zm-53.948 105.485 50.669-97.044-1.773-.926-50.669 97.044 1.773.926ZM777 267l-10-5.774v11.548L777 267Zm-141 0 10 5.774v-11.548L636 267Zm132-1H645v2h123v-2Zm11 152-10-5.774v11.548L779 418Zm-73 0 10 5.774v-11.548L706 418Zm64-1h-55v2h55v-2Zm-457 1-10-5.774v11.548L313 418Zm-91 0 10 5.774v-11.548L222 418Zm82-1h-73v2h73v-2Zm71 48-11.104 3.169 8.297 8.032L375 465Zm-91 94 11.104-3.169-8.297-8.032L284 559Zm84.022-88.229-78.481 81.067 1.437 1.391 78.481-81.067-1.437-1.391ZM666 463l2.507 11.272 8.508-7.807L666 463Zm89 97-2.507-11.272-8.508 7.807L755 560Zm-83.652-89.692 76.831 83.737 1.473-1.353-76.831-83.737-1.473 1.353ZM518 467l-5.774 10h11.548L518 467Zm0 93 5.774-10h-11.548L518 560Zm-1-84v75h2v-75h-2Z"/>
    <path fill="#fff" fill-rule="evenodd" stroke="#86829F" stroke-linecap="round" stroke-linejoin="round" stroke-width="2" d="M307 377.475c0 46.13 38.996 83.525 87.1 83.525h241.2c40.703 0 73.7-31.642 73.7-70.675 0-36.867-29.437-67.141-67-70.387v-.288C642 255.778 588.006 204 521.4 204c-57.58 0-105.734 38.696-117.728 90.449a91.669 91.669 0 0 0-9.572-.499c-48.104 0-87.1 37.395-87.1 83.525Z" clip-rule="evenodd"/>
    <path fill="#000" fill-opacity=".85" d="M407.429 330.88V346h-2.28v-15.12h-5.304v-2.088h12.888v2.088h-5.304Zm12.579 15.36c-.96 0-1.792-.224-2.496-.672-.688-.448-1.24-1.064-1.656-1.848v6.528h-2.112v-16.704h1.848l.216 2.424c.416-.816.976-1.464 1.68-1.944s1.576-.72 2.616-.72c.72 0 1.408.136 2.064.408a4.523 4.523 0 0 1 1.752 1.2c.512.528.912 1.2 1.2 2.016.304.8.456 1.744.456 2.832 0 1.104-.152 2.064-.456 2.88-.304.8-.712 1.472-1.224 2.016a5.132 5.132 0 0 1-1.776 1.2 5.882 5.882 0 0 1-2.112.384Zm-.312-1.896c1.104 0 1.992-.376 2.664-1.128.688-.768 1.032-1.92 1.032-3.456 0-1.504-.344-2.64-1.032-3.408-.672-.784-1.56-1.176-2.664-1.176-.544 0-1.056.096-1.536.288a3.42 3.42 0 0 0-1.224.864c-.336.368-.608.84-.816 1.416-.192.576-.288 1.248-.288 2.016s.096 1.44.288 2.016c.208.576.48 1.056.816 1.44.352.384.76.672 1.224.864.48.176.992.264 1.536.264Zm15.617-.72a7.296 7.296 0 0 1-.552.912 4.176 4.176 0 0 1-.84.84 4.249 4.249 0 0 1-1.2.624c-.448.16-.976.24-1.584.24-1.12 0-2.024-.312-2.712-.936-.688-.64-1.032-1.552-1.032-2.736 0-1.36.472-2.36 1.416-3 .96-.64 2.32-.96 4.08-.96h2.328v-1.032c0-.864-.224-1.48-.672-1.848-.448-.368-1.216-.552-2.304-.552-.768 0-1.496.128-2.184.384-.688.24-1.304.52-1.848.84v-1.896c.448-.272 1.048-.536 1.8-.792.768-.272 1.608-.408 2.52-.408 1.568 0 2.76.328 3.576.984.816.64 1.224 1.64 1.224 3v7.2c.016.176.024.36.024.552l.048.552c.016.16.032.296.048.408h-1.92a10.964 10.964 0 0 1-.144-.936 14.347 14.347 0 0 1-.048-1.08l-.024-.36Zm-3.72.72c.656 0 1.216-.136 1.68-.408.464-.272.84-.584 1.128-.936.288-.368.496-.72.624-1.056.128-.352.192-.6.192-.744v-.912h-2.112c-1.264 0-2.184.184-2.76.552-.56.352-.84.888-.84 1.608 0 .56.168 1.016.504 1.368.336.352.864.528 1.584.528Zm17.193-3.864h-6.024V346h-2.112v-12.456h2.112v5.136h6.024v-5.136h2.112V346h-2.112v-5.52Zm10.951 5.76c-.96 0-1.832-.144-2.616-.432a5.723 5.723 0 0 1-1.968-1.272 5.61 5.61 0 0 1-1.248-2.04c-.288-.8-.432-1.712-.432-2.736 0-1.008.144-1.912.432-2.712.304-.8.728-1.472 1.272-2.016a5.26 5.26 0 0 1 1.992-1.272c.784-.304 1.672-.456 2.664-.456.768 0 1.472.088 2.112.264.64.16 1.168.4 1.584.72v1.896a5.596 5.596 0 0 0-1.728-.744 7.127 7.127 0 0 0-1.944-.264c-1.456 0-2.528.376-3.216 1.128-.672.752-1.008 1.904-1.008 3.456s.328 2.704.984 3.456c.656.752 1.696 1.128 3.12 1.128.752 0 1.44-.088 2.064-.264a8.491 8.491 0 0 0 1.728-.72v1.896c-.448.272-.992.504-1.632.696-.624.192-1.344.288-2.16.288Zm6.624-12.696h9.984V346h-2.112v-10.656h-5.76V346h-2.112v-12.456Zm18.542 12.696c-.848 0-1.64-.144-2.376-.432a5.534 5.534 0 0 1-1.92-1.248c-.528-.56-.944-1.24-1.248-2.04-.304-.8-.456-1.72-.456-2.76 0-1.024.152-1.936.456-2.736.304-.816.72-1.496 1.248-2.04a5.534 5.534 0 0 1 1.92-1.248 6.462 6.462 0 0 1 2.376-.432 6.53 6.53 0 0 1 2.4.432 5.294 5.294 0 0 1 1.896 1.248c.544.544.968 1.224 1.272 2.04.32.8.48 1.712.48 2.736 0 1.04-.16 1.96-.48 2.76-.304.8-.728 1.48-1.272 2.04-.528.544-1.16.96-1.896 1.248a6.53 6.53 0 0 1-2.4.432Zm0-1.896a4.3 4.3 0 0 0 1.536-.264 3.51 3.51 0 0 0 1.248-.84c.352-.384.624-.864.816-1.44.192-.576.288-1.256.288-2.04s-.096-1.464-.288-2.04c-.192-.576-.464-1.048-.816-1.416a3.137 3.137 0 0 0-1.248-.84 3.98 3.98 0 0 0-1.536-.288 3.98 3.98 0 0 0-1.536.288 3.171 3.171 0 0 0-1.224.84c-.336.368-.6.84-.792 1.416-.192.576-.289 1.256-.289 2.04s.097 1.464.289 2.04c.192.576.456 1.056.792 1.44.352.368.76.648 1.224.84a4.3 4.3 0 0 0 1.536.264Zm14.886 1.896c-.96 0-1.792-.224-2.496-.672-.688-.448-1.24-1.064-1.656-1.848v6.528h-2.112v-16.704h1.848l.216 2.424c.416-.816.976-1.464 1.68-1.944s1.576-.72 2.616-.72c.72 0 1.408.136 2.064.408a4.523 4.523 0 0 1 1.752 1.2c.512.528.912 1.2 1.2 2.016.304.8.456 1.744.456 2.832 0 1.104-.152 2.064-.456 2.88-.304.8-.712 1.472-1.224 2.016a5.132 5.132 0 0 1-1.776 1.2 5.882 5.882 0 0 1-2.112.384Zm-.312-1.896c1.104 0 1.992-.376 2.664-1.128.688-.768 1.032-1.92 1.032-3.456 0-1.504-.344-2.64-1.032-3.408-.672-.784-1.56-1.176-2.664-1.176-.544 0-1.056.096-1.536.288a3.42 3.42 0 0 0-1.224.864c-.336.368-.608.84-.816 1.416-.192.576-.288 1.248-.288 2.016s.096 1.44.288 2.016c.208.576.48 1.056.816 1.44.352.384.76.672 1.224.864.48.176.992.264 1.536.264Zm13.22-9V346h-2.112v-10.656h-3.912v-1.8h10.008v1.8h-3.984Zm14.558 5.136h-6.024V346h-2.112v-12.456h2.112v5.136h6.024v-5.136h2.112V346h-2.112v-5.52Zm12.871 3.144a7.296 7.296 0 0 1-.552.912 4.176 4.176 0 0 1-.84.84 4.249 4.249 0 0 1-1.2.624c-.448.16-.976.24-1.584.24-1.12 0-2.024-.312-2.712-.936-.688-.64-1.032-1.552-1.032-2.736 0-1.36.472-2.36 1.416-3 .96-.64 2.32-.96 4.08-.96h2.328v-1.032c0-.864-.224-1.48-.672-1.848-.448-.368-1.216-.552-2.304-.552-.768 0-1.496.128-2.184.384-.688.24-1.304.52-1.848.84v-1.896c.448-.272 1.048-.536 1.8-.792.768-.272 1.608-.408 2.52-.408 1.568 0 2.76.328 3.576.984.816.64 1.224 1.64 1.224 3v7.2c.016.176.024.36.024.552l.048.552c.016.16.032.296.048.408h-1.92a10.964 10.964 0 0 1-.144-.936 14.347 14.347 0 0 1-.048-1.08l-.024-.36Zm-3.72.72c.656 0 1.216-.136 1.68-.408.464-.272.84-.584 1.128-.936.288-.368.496-.72.624-1.056.128-.352.192-.6.192-.744v-.912h-2.112c-1.264 0-2.184.184-2.76.552-.56.352-.84.888-.84 1.608 0 .56.168 1.016.504 1.368.336.352.864.528 1.584.528Zm9.056-6.768c0-.704.128-1.304.384-1.8a3.262 3.262 0 0 1 1.08-1.248c.464-.336 1.016-.584 1.656-.744.64-.16 1.336-.24 2.088-.24h4.008V346h-2.112v-4.512h-2.28L547.094 346h-2.52l3.6-5.04c-.864-.256-1.536-.648-2.016-1.176-.464-.528-.696-1.264-.696-2.208Zm7.104 2.112v-4.344h-1.896c-.896 0-1.632.168-2.208.504-.576.336-.864.88-.864 1.632 0 .784.256 1.352.768 1.704.512.336 1.24.504 2.184.504h2.016Zm16.226 6.552c-.96 0-1.832-.144-2.616-.432a5.723 5.723 0 0 1-1.968-1.272 5.61 5.61 0 0 1-1.248-2.04c-.288-.8-.432-1.712-.432-2.736 0-1.008.144-1.912.432-2.712.304-.8.728-1.472 1.272-2.016a5.26 5.26 0 0 1 1.992-1.272c.784-.304 1.672-.456 2.664-.456.768 0 1.472.088 2.112.264.64.16 1.168.4 1.584.72v1.896a5.596 5.596 0 0 0-1.728-.744 7.127 7.127 0 0 0-1.944-.264c-1.456 0-2.528.376-3.216 1.128-.672.752-1.008 1.904-1.008 3.456s.328 2.704.984 3.456c.656.752 1.696 1.128 3.12 1.128.752 0 1.44-.088 2.064-.264a8.491 8.491 0 0 0 1.728-.72v1.896c-.448.272-.992.504-1.632.696-.624.192-1.344.288-2.16.288Zm16.536-1.296a6.688 6.688 0 0 1-.648.408 7.515 7.515 0 0 1-.936.432 7.892 7.892 0 0 1-1.248.312 7.727 7.727 0 0 1-1.56.144c-2.096 0-3.688-.568-4.776-1.704-1.088-1.136-1.632-2.728-1.632-4.776 0-1.008.144-1.912.432-2.712.304-.8.72-1.472 1.248-2.016a5.192 5.192 0 0 1 1.872-1.272 5.985 5.985 0 0 1 2.352-.456c.896 0 1.696.152 2.4.456.704.304 1.28.752 1.728 1.344.464.592.776 1.328.936 2.208.176.864.176 1.872 0 3.024h-8.784c.08 1.344.48 2.352 1.2 3.024.72.656 1.792.984 3.216.984.96 0 1.784-.136 2.472-.408.688-.272 1.264-.568 1.728-.888v1.896Zm-4.944-9.768c-.912 0-1.696.28-2.352.84-.656.56-1.072 1.408-1.248 2.544h6.696c.064-1.152-.2-2-.792-2.544-.592-.56-1.36-.84-2.304-.84Zm12.844.168V346h-2.112v-10.656h-3.912v-1.8h10.008v1.8h-3.984Zm15.686 6.504c0 .72-.128 1.344-.384 1.872s-.616.96-1.08 1.296c-.464.336-1.016.584-1.656.744-.64.16-1.336.24-2.088.24h-4.128v-12.456h2.112v4.344h2.16c1.584 0 2.824.312 3.72.936.896.624 1.344 1.632 1.344 3.024Zm-7.224-2.16v4.512h2.016c.912 0 1.648-.168 2.208-.504.576-.352.864-.928.864-1.728 0-.816-.256-1.4-.768-1.752-.512-.352-1.232-.528-2.16-.528h-2.16Zm-162.424 34.848V382h-2.304v-7.392l-5.88-9.816h2.592l4.512 7.824 4.608-7.824h2.304l-5.832 9.744Zm14.024 5.088a7.296 7.296 0 0 1-.552.912 4.176 4.176 0 0 1-.84.84 4.249 4.249 0 0 1-1.2.624c-.448.16-.976.24-1.584.24-1.12 0-2.024-.312-2.712-.936-.688-.64-1.032-1.552-1.032-2.736 0-1.36.472-2.36 1.416-3 .96-.64 2.32-.96 4.08-.96h2.328v-1.032c0-.864-.224-1.48-.672-1.848-.448-.368-1.216-.552-2.304-.552-.768 0-1.496.128-2.184.384-.688.24-1.304.52-1.848.84v-1.896c.448-.272 1.048-.536 1.8-.792.768-.272 1.608-.408 2.52-.408 1.568 0 2.76.328 3.576.984.816.64 1.224 1.64 1.224 3v7.2c.016.176.024.36.024.552l.048.552c.016.16.032.296.048.408h-1.92a10.964 10.964 0 0 1-.144-.936 14.347 14.347 0 0 1-.048-1.08l-.024-.36Zm-3.72.72c.656 0 1.216-.136 1.68-.408.464-.272.84-.584 1.128-.936.288-.368.496-.72.624-1.056.128-.352.192-.6.192-.744v-.912h-2.112c-1.264 0-2.184.184-2.76.552-.56.352-.84.888-.84 1.608 0 .56.168 1.016.504 1.368.336.352.864.528 1.584.528Zm14.96-9.168c-.96 0-1.744.224-2.352.672a4.91 4.91 0 0 0-1.44 1.68V382h-2.112v-12.456h1.992l.072 2.232h.048c.336-.72.864-1.312 1.584-1.776.72-.464 1.632-.696 2.736-.696 1.232 0 2.208.328 2.928.984.736.64 1.104 1.632 1.104 2.976V382h-2.112v-8.52c0-.864-.216-1.464-.648-1.8-.432-.336-1.032-.504-1.8-.504Zm16.829 8.376a4.997 4.997 0 0 1-1.608 1.968c-.688.48-1.56.72-2.616.72a5.949 5.949 0 0 1-2.136-.384 5.132 5.132 0 0 1-1.776-1.2c-.512-.544-.92-1.216-1.224-2.016-.304-.816-.456-1.776-.456-2.88 0-1.088.152-2.032.456-2.832.304-.816.712-1.488 1.224-2.016a4.727 4.727 0 0 1 1.776-1.2 5.822 5.822 0 0 1 2.16-.408c.944 0 1.76.2 2.448.6.688.384 1.24.936 1.656 1.656v-6.768h2.112V382h-1.848l-.168-2.448Zm-3.912.792c.544 0 1.048-.088 1.512-.264.464-.192.864-.48 1.2-.864.352-.384.624-.864.816-1.44.208-.576.312-1.248.312-2.016s-.104-1.44-.312-2.016c-.192-.576-.464-1.056-.816-1.44a2.98 2.98 0 0 0-1.2-.84 3.916 3.916 0 0 0-1.512-.288c-1.104 0-2.008.392-2.712 1.176-.688.768-1.032 1.904-1.032 3.408 0 1.52.352 2.664 1.056 3.432.704.768 1.6 1.152 2.688 1.152Zm19.287.6a6.688 6.688 0 0 1-.648.408 7.515 7.515 0 0 1-.936.432 7.892 7.892 0 0 1-1.248.312 7.727 7.727 0 0 1-1.56.144c-2.096 0-3.688-.568-4.776-1.704-1.088-1.136-1.632-2.728-1.632-4.776 0-1.008.144-1.912.432-2.712.304-.8.72-1.472 1.248-2.016a5.192 5.192 0 0 1 1.872-1.272 5.985 5.985 0 0 1 2.352-.456c.896 0 1.696.152 2.4.456.704.304 1.28.752 1.728 1.344.464.592.776 1.328.936 2.208.176.864.176 1.872 0 3.024h-8.784c.08 1.344.48 2.352 1.2 3.024.72.656 1.792.984 3.216.984.96 0 1.784-.136 2.472-.408.688-.272 1.264-.568 1.728-.888v1.896Zm-4.944-9.768c-.912 0-1.696.28-2.352.84-.656.56-1.072 1.408-1.248 2.544h6.696c.064-1.152-.2-2-.792-2.544-.592-.56-1.36-.84-2.304-.84Zm11.841 5.88-3.36 4.944h-2.208l4.512-6.456-3.984-6h2.448l2.976 4.392 3-4.392h2.184l-4.128 5.952 4.344 6.504h-2.448l-3.336-4.944Zm20.896 5.184c-1.28 0-2.44-.2-3.48-.6a7.617 7.617 0 0 1-2.688-1.728c-.736-.768-1.304-1.696-1.704-2.784-.4-1.104-.6-2.344-.6-3.72 0-1.392.184-2.632.552-3.72.368-1.088.912-2.008 1.632-2.76a7.01 7.01 0 0 1 2.64-1.752c1.056-.4 2.256-.6 3.6-.6 1.168 0 2.192.128 3.072.384.88.24 1.6.528 2.16.864v2.16c-.72-.464-1.552-.808-2.496-1.032a11.73 11.73 0 0 0-2.76-.336c-2.032 0-3.536.568-4.512 1.704-.96 1.12-1.44 2.816-1.44 5.088 0 2.288.52 3.992 1.56 5.112 1.056 1.12 2.608 1.68 4.656 1.68.88 0 1.736-.12 2.568-.36a7.375 7.375 0 0 0 2.424-1.224v2.16c-.464.368-1.144.704-2.04 1.008-.88.304-1.928.456-3.144.456Zm10.461-17.448V382h-2.112v-17.208h2.112Zm8.555 17.448c-.848 0-1.64-.144-2.376-.432a5.534 5.534 0 0 1-1.92-1.248c-.528-.56-.944-1.24-1.248-2.04-.304-.8-.456-1.72-.456-2.76 0-1.024.152-1.936.456-2.736.304-.816.72-1.496 1.248-2.04a5.534 5.534 0 0 1 1.92-1.248 6.462 6.462 0 0 1 2.376-.432 6.53 6.53 0 0 1 2.4.432 5.294 5.294 0 0 1 1.896 1.248c.544.544.968 1.224 1.272 2.04.32.8.48 1.712.48 2.736 0 1.04-.16 1.96-.48 2.76-.304.8-.728 1.48-1.272 2.04-.528.544-1.16.96-1.896 1.248a6.53 6.53 0 0 1-2.4.432Zm0-1.896a4.3 4.3 0 0 0 1.536-.264 3.51 3.51 0 0 0 1.248-.84c.352-.384.624-.864.816-1.44.192-.576.288-1.256.288-2.04s-.096-1.464-.288-2.04c-.192-.576-.464-1.048-.816-1.416a3.137 3.137 0 0 0-1.248-.84 3.98 3.98 0 0 0-1.536-.288 3.98 3.98 0 0 0-1.536.288 3.171 3.171 0 0 0-1.224.84c-.336.368-.6.84-.792 1.416-.192.576-.288 1.256-.288 2.04s.096 1.464.288 2.04c.192.576.456 1.056.792 1.44.352.368.76.648 1.224.84a4.3 4.3 0 0 0 1.536.264Zm16.615-.576c-.336.704-.856 1.296-1.56 1.776-.688.464-1.592.696-2.712.696-1.152 0-2.088-.32-2.808-.96-.704-.656-1.057-1.664-1.057-3.024v-8.712h2.137v8.712c0 .416.056.76.168 1.032.128.256.296.464.504.624.208.16.448.272.72.336.288.064.6.096.936.096.928 0 1.672-.208 2.232-.624.56-.416 1.04-.984 1.44-1.704v-8.472h2.112V382h-1.872l-.192-2.232h-.048Zm14.506-.216a4.997 4.997 0 0 1-1.608 1.968c-.688.48-1.56.72-2.616.72a5.949 5.949 0 0 1-2.136-.384 5.132 5.132 0 0 1-1.776-1.2c-.512-.544-.92-1.216-1.224-2.016-.304-.816-.456-1.776-.456-2.88 0-1.088.152-2.032.456-2.832.304-.816.712-1.488 1.224-2.016a4.727 4.727 0 0 1 1.776-1.2 5.822 5.822 0 0 1 2.16-.408c.944 0 1.76.2 2.448.6.688.384 1.24.936 1.656 1.656v-6.768h2.112V382h-1.848l-.168-2.448Zm-3.912.792c.544 0 1.048-.088 1.512-.264.464-.192.864-.48 1.2-.864.352-.384.624-.864.816-1.44.208-.576.312-1.248.312-2.016s-.104-1.44-.312-2.016c-.192-.576-.464-1.056-.816-1.44a2.98 2.98 0 0 0-1.2-.84 3.916 3.916 0 0 0-1.512-.288c-1.104 0-2.008.392-2.712 1.176-.688.768-1.032 1.904-1.032 3.408 0 1.52.352 2.664 1.056 3.432.704.768 1.6 1.152 2.688 1.152Z"/>
    <path fill="#5282FF" fill-rule="evenodd" d="M353 412c0-.342.162-.758.645-1.234.486-.479 1.241-.956 2.254-1.378 2.023-.843 4.886-1.388 8.101-1.388 3.215 0 6.078.545 8.101 1.388 1.013.422 1.768.899 2.254 1.378.483.476.645.892.645 1.234 0 .342-.162.758-.645 1.234-.486.479-1.241.956-2.254 1.378-2.023.843-4.886 1.388-8.101 1.388-3.215 0-6.078-.545-8.101-1.388-1.013-.422-1.768-.899-2.254-1.378-.483-.476-.645-.892-.645-1.234Zm-2 0c0-1.039.509-1.938 1.241-2.659.728-.717 1.731-1.317 2.889-1.8 2.321-.967 5.457-1.541 8.87-1.541 3.413 0 6.549.574 8.87 1.541 1.158.483 2.161 1.083 2.889 1.8.732.721 1.241 1.62 1.241 2.659v18c0 1.039-.509 1.938-1.241 2.659-.728.717-1.731 1.317-2.889 1.8-2.321.967-5.457 1.541-8.87 1.541-3.413 0-6.549-.574-8.87-1.541-1.158-.483-2.161-1.083-2.889-1.8-.732-.721-1.241-1.62-1.241-2.659v-18Zm24 3.296V430c0 .342-.162.758-.645 1.234-.486.479-1.241.956-2.254 1.378-2.023.843-4.886 1.388-8.101 1.388-3.215 0-6.078-.545-8.101-1.388-1.013-.422-1.768-.899-2.254-1.378-.483-.476-.645-.892-.645-1.234v-14.704c.611.443 1.334.831 2.13 1.163 2.321.967 5.457 1.541 8.87 1.541 3.413 0 6.549-.574 8.87-1.541.796-.332 1.519-.72 2.13-1.163ZM504 222c0-.342.162-.758.645-1.234.486-.479 1.241-.956 2.254-1.378 2.023-.843 4.886-1.388 8.101-1.388 3.215 0 6.078.545 8.101 1.388 1.013.422 1.768.899 2.254 1.378.483.476.645.892.645 1.234 0 .342-.162.758-.645 1.234-.486.479-1.241.956-2.254 1.378-2.023.843-4.886 1.388-8.101 1.388-3.215 0-6.078-.545-8.101-1.388-1.013-.422-1.768-.899-2.254-1.378-.483-.476-.645-.892-.645-1.234Zm-2 0c0-1.039.509-1.938 1.241-2.659.728-.717 1.731-1.317 2.889-1.8 2.321-.967 5.457-1.541 8.87-1.541 3.413 0 6.549.574 8.87 1.541 1.158.483 2.161 1.083 2.889 1.8.732.721 1.241 1.62 1.241 2.659v18c0 1.039-.509 1.938-1.241 2.659-.728.717-1.731 1.317-2.889 1.8-2.321.967-5.457 1.541-8.87 1.541-3.413 0-6.549-.574-8.87-1.541-1.158-.483-2.161-1.083-2.889-1.8-.732-.721-1.241-1.62-1.241-2.659v-18Zm24 3.296V240c0 .342-.162.758-.645 1.234-.486.479-1.241.956-2.254 1.378-2.023.843-4.886 1.388-8.101 1.388-3.215 0-6.078-.545-8.101-1.388-1.013-.422-1.768-.899-2.254-1.378-.483-.476-.645-.892-.645-1.234v-14.704c.611.443 1.334.831 2.13 1.163 2.321.967 5.457 1.541 8.87 1.541 3.413 0 6.549-.574 8.87-1.541.796-.332 1.519-.72 2.13-1.163ZM637 411c0-.342.162-.758.645-1.234.486-.479 1.241-.956 2.254-1.378 2.023-.843 4.886-1.388 8.101-1.388 3.215 0 6.078.545 8.101 1.388 1.013.422 1.768.899 2.254 1.378.483.476.645.892.645 1.234 0 .342-.162.758-.645 1.234-.486.479-1.241.956-2.254 1.378-2.023.843-4.886 1.388-8.101 1.388-3.215 0-6.078-.545-8.101-1.388-1.013-.422-1.768-.899-2.254-1.378-.483-.476-.645-.892-.645-1.234Zm-2 0c0-1.039.509-1.938 1.241-2.659.728-.717 1.731-1.317 2.889-1.8 2.321-.967 5.457-1.541 8.87-1.541 3.413 0 6.549.574 8.87 1.541 1.158.483 2.161 1.083 2.889 1.8.732.721 1.241 1.62 1.241 2.659v18c0 1.039-.509 1.938-1.241 2.659-.728.717-1.731 1.317-2.889 1.8-2.321.967-5.457 1.541-8.87 1.541-3.413 0-6.549-.574-8.87-1.541-1.158-.483-2.161-1.083-2.889-1.8-.732-.721-1.241-1.62-1.241-2.659v-18Zm24 3.296V429c0 .342-.162.758-.645 1.234-.486.479-1.241.956-2.254 1.378-2.023.843-4.886 1.388-8.101 1.388-3.215 0-6.078-.545-8.101-1.388-1.013-.422-1.768-.899-2.254-1.378-.483-.476-.645-.892-.645-1.234v-14.704c.611.443 1.334.831 2.13 1.163 2.321.967 5.457 1.541 8.87 1.541 3.413 0 6.549-.574 8.87-1.541.796-.332 1.519-.72 2.13-1.163Zm-252.707-8.003a.999.999 0 0 1 1.414 0l4 4a.999.999 0 1 1-1.414 1.414L408 409.414v23.172l2.293-2.293a.999.999 0 1 1 1.414 1.414l-4 4a.999.999 0 0 1-1.414 0l-4-4a.999.999 0 1 1 1.414-1.414l2.293 2.293v-23.172l-2.293 2.293a.999.999 0 1 1-1.414-1.414l4-4ZM422 421a1 1 0 0 1-1 1h-7.586l2.293 2.293a.999.999 0 1 1-1.414 1.414l-4-4a.999.999 0 0 1 0-1.414l4-4a.999.999 0 1 1 1.414 1.414L413.414 420H421a1 1 0 0 1 1 1Zm-30 0a1 1 0 0 1 1-1h7.586l-2.293-2.293a.999.999 0 1 1 1.414-1.414l4 4a.999.999 0 0 1 0 1.414l-4 4a.999.999 0 1 1-1.414-1.414l2.293-2.293H393a1 1 0 0 1-1-1Zm213.293-13.707a.999.999 0 0 1 1.414 0l4 4a.999.999 0 1 1-1.414 1.414L607 410.414v23.172l2.293-2.293a.999.999 0 1 1 1.414 1.414l-4 4a.999.999 0 0 1-1.414 0l-4-4a.999.999 0 1 1 1.414-1.414l2.293 2.293v-23.172l-2.293 2.293a.999.999 0 1 1-1.414-1.414l4-4ZM621 422a1 1 0 0 1-1 1h-7.586l2.293 2.293a.999.999 0 1 1-1.414 1.414l-4-4a.999.999 0 0 1 0-1.414l4-4a.999.999 0 1 1 1.414 1.414L612.414 421H620a1 1 0 0 1 1 1Zm-30 0a1 1 0 0 1 1-1h7.586l-2.293-2.293a.999.999 0 1 1 1.414-1.414l4 4a.999.999 0 0 1 0 1.414l-4 4a.999.999 0 1 1-1.414-1.414l2.293-2.293H592a1 1 0 0 1-1-1Zm-76.707-166.707a.999.999 0 0 1 1.414 0l4 4a.999.999 0 1 1-1.414 1.414L516 258.414v23.172l2.293-2.293a.999.999 0 1 1 1.414 1.414l-4 4a.999.999 0 0 1-1.414 0l-4-4a.999.999 0 1 1 1.414-1.414l2.293 2.293v-23.172l-2.293 2.293a.999.999 0 1 1-1.414-1.414l4-4ZM530 270a1 1 0 0 1-1 1h-7.586l2.293 2.293a.999.999 0 1 1-1.414 1.414l-4-4a.999.999 0 0 1 0-1.414l4-4a.999.999 0 1 1 1.414 1.414L521.414 269H529a1 1 0 0 1 1 1Zm-30 0a1 1 0 0 1 1-1h7.586l-2.293-2.293a.999.999 0 1 1 1.414-1.414l4 4a.999.999 0 0 1 0 1.414l-4 4a.999.999 0 1 1-1.414-1.414l2.293-2.293H501a1 1 0 0 1-1-1Z" clip-rule="evenodd"/>
    <defs>
        <clipPath id="clip0_52_592">
            <path fill="#fff" d="M261 603h34v32h-34z"/>
        </clipPath>
        <clipPath id="clip1_52_592">
            <path fill="#fff" d="M500 603h34v32h-34z"/>
        </clipPath>
        <clipPath id="clip2_52_592">
            <path fill="#fff" d="M381 61h34v32h-34z"/>
        </clipPath>
        <clipPath id="clip3_52_592">
            <path fill="#fff" d="M558 692h34v32h-34z"/>
        </clipPath>
        <clipPath id="clip4_52_592">
            <path fill="#fff" d="M595 59h34v32h-34z"/>
        </clipPath>
        <filter id="filter0_d_52_592" width="1001" height="341" x="0" y="168" color-interpolation-filters="sRGB" filterUnits="userSpaceOnUse">
            <feFlood flood-opacity="0" result="BackgroundImageFix"/>
            <feColorMatrix in="SourceAlpha" result="hardAlpha" values="0 0 0 0 0 0 0 0 0 0 0 0 0 0 0 0 0 0 127 0"/>
            <feOffset/>
            <feGaussianBlur stdDeviation="3"/>
            <feColorMatrix values="0 0 0 0 0.321569 0 0 0 0 0.509804 0 0 0 0 1 0 0 0 0.2 0"/>
            <feBlend in2="BackgroundImageFix" result="effect1_dropShadow_52_592"/>
            <feBlend in="SourceGraphic" in2="effect1_dropShadow_52_592" result="shape"/>
        </filter>
    </defs>
</svg>
