<svg xmlns="http://www.w3.org/2000/svg" width="700" height="620" fill="none" viewBox="0 0 700 620">
    <rect width="75" height="62" x="151" y="421" fill="#fff" rx="8"/>
    <rect width="75" height="62" x="313" y="421" fill="#fff" rx="8"/>
    <rect width="75" height="62" x="475" y="421" fill="#fff" rx="8"/>
    <rect width="75" height="62" x="177" y="11" fill="#fff" rx="8"/>
    <rect width="75" height="62" x="449" y="11" fill="#fff" rx="8"/>
    <rect width="576.5" height="212.5" x="61.75" y="141.75" fill="#fff" rx="9.25"/>
    <rect width="576.5" height="212.5" x="61.75" y="141.75" stroke="#5282FF" stroke-width="1.5" rx="9.25"/>
    <rect width="371" height="98" x="61" y="510" fill="#fff" rx="10"/>
    <rect width="99" height="46" x="505" y="225" fill="#D6E1FF" rx="10"/>
    <path fill="#000" d="M523.995 246.828c-.496.04-.92.164-1.272.372a1.87 1.87 0 0 0-.756.84V252h-1.056v-6.228h.924l.108 1.356h.024c.2-.416.472-.752.816-1.008a2.553 2.553 0 0 1 1.212-.468v1.176Zm5.283 4.056a2.257 2.257 0 0 1-.78.876c-.344.24-.796.36-1.356.36-.576 0-1.044-.164-1.404-.492-.352-.328-.528-.828-.528-1.5v-4.356h1.068v4.356c0 .408.112.684.336.828.224.144.5.216.828.216.464 0 .836-.104 1.116-.312.28-.208.52-.492.72-.852v-4.236h1.056V252h-.936l-.096-1.116h-.024Zm2.645-2.064v-.96h2.88v.96h-2.88Zm7.274 3.3c-.968 0-1.732-.284-2.292-.852-.56-.576-.84-1.372-.84-2.388 0-1.016.284-1.808.852-2.376.568-.568 1.344-.852 2.328-.852.376 0 .728.044 1.056.132.328.08.592.2.792.36v.948a3.423 3.423 0 0 0-1.836-.504c-.72 0-1.252.192-1.596.576-.344.376-.516.948-.516 1.716s.164 1.344.492 1.728c.336.376.856.564 1.56.564.68 0 1.312-.164 1.896-.492v.948c-.52.328-1.152.492-1.896.492Zm5.943 0c-1.04 0-1.836-.284-2.388-.852-.544-.576-.816-1.372-.816-2.388 0-.68.128-1.26.384-1.74s.608-.848 1.056-1.104a2.993 2.993 0 0 1 1.512-.384c.952 0 1.652.316 2.1.948.448.624.592 1.48.432 2.568h-4.392c.088 1.336.824 2.004 2.208 2.004.76 0 1.46-.216 2.1-.648v.948c-.288.2-.624.36-1.008.48-.384.112-.78.168-1.188.168Zm-.276-5.532c-.456 0-.848.14-1.176.42-.328.28-.536.704-.624 1.272h3.348c.024-.536-.1-.952-.372-1.248-.272-.296-.664-.444-1.176-.444Zm6.831 0c-.48 0-.872.112-1.176.336a2.455 2.455 0 0 0-.72.84V252h-1.056v-6.228h.996l.036 1.116h.024c.168-.352.432-.644.792-.876.36-.24.816-.36 1.368-.36.616 0 1.104.164 1.464.492.368.328.552.824.552 1.488V252h-1.056v-4.26c0-.424-.112-.72-.336-.888-.216-.176-.512-.264-.888-.264Zm3.446.084v-.9h.744v-1.308h1.056v1.308h1.812v.9h-1.812v3.744c0 .264.068.456.204.576.136.12.368.18.696.18.312 0 .596-.088.852-.264v.96a1.48 1.48 0 0 1-.504.18 2.767 2.767 0 0 1-.624.072c-.4 0-.724-.076-.972-.228a1.36 1.36 0 0 1-.54-.588 1.767 1.767 0 0 1-.168-.756v-3.876h-.744Zm8.041.156c-.496.04-.92.164-1.272.372a1.87 1.87 0 0 0-.756.84V252h-1.056v-6.228h.924l.108 1.356h.024c.2-.416.472-.752.816-1.008a2.553 2.553 0 0 1 1.212-.468v1.176Zm3.282-.24c-.664 0-1.336.204-2.016.612v-.948a3.804 3.804 0 0 1 1.02-.432 4.142 4.142 0 0 1 1.14-.168c.784 0 1.38.164 1.788.492.408.328.612.828.612 1.5v3.348c0 .136.004.312.012.528.016.208.032.368.048.48h-.96a5.482 5.482 0 0 1-.072-.468 7.173 7.173 0 0 1-.024-.54l-.012-.18a3.359 3.359 0 0 1-.396.6c-.168.2-.392.368-.672.504-.272.136-.612.204-1.02.204-.56 0-1.012-.16-1.356-.48-.344-.32-.516-.772-.516-1.356 0-.68.24-1.18.72-1.5.48-.32 1.156-.48 2.028-.48h1.164v-.516c0-.432-.112-.74-.336-.924-.224-.184-.608-.276-1.152-.276Zm1.488 3.012v-.456h-1.056c-.632 0-1.092.092-1.38.276-.28.184-.42.452-.42.804 0 .28.084.508.252.684.176.176.44.264.792.264.328 0 .608-.064.84-.192.232-.136.42-.296.564-.48.144-.192.248-.372.312-.54.064-.168.096-.288.096-.36Zm2.717-6.204h1.056V252h-1.056v-8.604Zm5.417 8.604h-1.104v-7.2l-1.824 1.776v-1.212l2.028-1.968h.9V252Zm1.95-3.18v-.96h2.88v.96h-2.88Zm4.142.06c0-.728.128-1.328.384-1.8.256-.48.596-.836 1.02-1.068.432-.24.9-.36 1.404-.36.472 0 .88.1 1.224.3.344.192.62.468.828.828v-3.384h1.056V252h-.924l-.084-1.224a2.46 2.46 0 0 1-.816.984c-.344.24-.776.36-1.296.36-.496 0-.96-.116-1.392-.348-.424-.24-.764-.6-1.02-1.08-.256-.48-.384-1.084-.384-1.812Zm4.872 0c0-.776-.184-1.352-.552-1.728a1.838 1.838 0 0 0-1.368-.564c-.544 0-.992.196-1.344.588-.352.384-.528.952-.528 1.704 0 .76.176 1.332.528 1.716.352.384.8.576 1.344.576s1-.188 1.368-.564c.368-.376.552-.952.552-1.728Z"/>
    <rect width="99" height="46" x="93" y="173" fill="#D6E1FF" rx="10"/>
    <path fill="#000" d="M112.552 194.828c-.496.04-.92.164-1.272.372a1.87 1.87 0 0 0-.756.84V200h-1.056v-6.228h.924l.108 1.356h.024c.2-.416.472-.752.816-1.008a2.553 2.553 0 0 1 1.212-.468v1.176Zm5.283 4.056a2.257 2.257 0 0 1-.78.876c-.344.24-.796.36-1.356.36-.576 0-1.044-.164-1.404-.492-.352-.328-.528-.828-.528-1.5v-4.356h1.068v4.356c0 .408.112.684.336.828.224.144.5.216.828.216.464 0 .836-.104 1.116-.312.28-.208.52-.492.72-.852v-4.236h1.056V200h-.936l-.096-1.116h-.024Zm2.645-2.064v-.96h2.88v.96h-2.88Zm7.273 3.3c-.968 0-1.732-.284-2.292-.852-.56-.576-.84-1.372-.84-2.388 0-1.016.284-1.808.852-2.376.568-.568 1.344-.852 2.328-.852.376 0 .728.044 1.056.132.328.08.592.2.792.36v.948a3.423 3.423 0 0 0-1.836-.504c-.72 0-1.252.192-1.596.576-.344.376-.516.948-.516 1.716s.164 1.344.492 1.728c.336.376.856.564 1.56.564.68 0 1.312-.164 1.896-.492v.948c-.52.328-1.152.492-1.896.492Zm5.943 0c-1.04 0-1.836-.284-2.388-.852-.544-.576-.816-1.372-.816-2.388 0-.68.128-1.26.384-1.74s.608-.848 1.056-1.104a2.993 2.993 0 0 1 1.512-.384c.952 0 1.652.316 2.1.948.448.624.592 1.48.432 2.568h-4.392c.088 1.336.824 2.004 2.208 2.004.76 0 1.46-.216 2.1-.648v.948c-.288.2-.624.36-1.008.48-.384.112-.78.168-1.188.168Zm-.276-5.532c-.456 0-.848.14-1.176.42-.328.28-.536.704-.624 1.272h3.348c.024-.536-.1-.952-.372-1.248-.272-.296-.664-.444-1.176-.444Zm6.832 0c-.48 0-.872.112-1.176.336a2.455 2.455 0 0 0-.72.84V200H137.3v-6.228h.996l.036 1.116h.024c.168-.352.432-.644.792-.876.36-.24.816-.36 1.368-.36.616 0 1.104.164 1.464.492.368.328.552.824.552 1.488V200h-1.056v-4.26c0-.424-.112-.72-.336-.888-.216-.176-.512-.264-.888-.264Zm3.446.084v-.9h.744v-1.308h1.056v1.308h1.812v.9h-1.812v3.744c0 .264.068.456.204.576.136.12.368.18.696.18.312 0 .596-.088.852-.264v.96a1.48 1.48 0 0 1-.504.18 2.767 2.767 0 0 1-.624.072c-.4 0-.724-.076-.972-.228a1.36 1.36 0 0 1-.54-.588 1.767 1.767 0 0 1-.168-.756v-3.876h-.744Zm8.041.156c-.496.04-.92.164-1.272.372a1.87 1.87 0 0 0-.756.84V200h-1.056v-6.228h.924l.108 1.356h.024c.2-.416.472-.752.816-1.008a2.553 2.553 0 0 1 1.212-.468v1.176Zm3.282-.24c-.664 0-1.336.204-2.016.612v-.948a3.804 3.804 0 0 1 1.02-.432 4.142 4.142 0 0 1 1.14-.168c.784 0 1.38.164 1.788.492.408.328.612.828.612 1.5v3.348c0 .136.004.312.012.528.016.208.032.368.048.48h-.96a5.482 5.482 0 0 1-.072-.468 7.173 7.173 0 0 1-.024-.54l-.012-.18a3.359 3.359 0 0 1-.396.6c-.168.2-.392.368-.672.504-.272.136-.612.204-1.02.204-.56 0-1.012-.16-1.356-.48-.344-.32-.516-.772-.516-1.356 0-.68.24-1.18.72-1.5.48-.32 1.156-.48 2.028-.48h1.164v-.516c0-.432-.112-.74-.336-.924-.224-.184-.608-.276-1.152-.276Zm1.488 3.012v-.456h-1.056c-.632 0-1.092.092-1.38.276-.28.184-.42.452-.42.804 0 .28.084.508.252.684.176.176.44.264.792.264.328 0 .608-.064.84-.192.232-.136.42-.296.564-.48.144-.192.248-.372.312-.54.064-.168.096-.288.096-.36Zm2.716-6.204h1.056V200h-1.056v-8.604Zm5.418 8.604h-1.104v-7.2l-1.824 1.776v-1.212l2.028-1.968h.9V200Zm1.95-3.18v-.96h2.88v.96h-2.88Zm6.463-2.232c-.664 0-1.336.204-2.016.612v-.948a3.804 3.804 0 0 1 1.02-.432 4.142 4.142 0 0 1 1.14-.168c.784 0 1.38.164 1.788.492.408.328.612.828.612 1.5v3.348c0 .136.004.312.012.528.016.208.032.368.048.48h-.96a5.482 5.482 0 0 1-.072-.468 7.173 7.173 0 0 1-.024-.54l-.012-.18a3.359 3.359 0 0 1-.396.6c-.168.2-.392.368-.672.504-.272.136-.612.204-1.02.204-.56 0-1.012-.16-1.356-.48-.344-.32-.516-.772-.516-1.356 0-.68.24-1.18.72-1.5.48-.32 1.156-.48 2.028-.48h1.164v-.516c0-.432-.112-.74-.336-.924-.224-.184-.608-.276-1.152-.276Zm1.488 3.012v-.456h-1.056c-.632 0-1.092.092-1.38.276-.28.184-.42.452-.42.804 0 .28.084.508.252.684.176.176.44.264.792.264.328 0 .608-.064.84-.192.232-.136.42-.296.564-.48.144-.192.248-.372.312-.54.064-.168.096-.288.096-.36Z"/>
    <rect width="32" height="32" x="172" y="427" fill="#5282FF" rx="16"/>
    <path fill="#fff" fill-rule="evenodd" d="M182.999 449.435v-1.871c0-.312.254-.565.566-.565h.434v-1.462l-.001-.037v-.001a.48.48 0 0 1 .176-.363.455.455 0 0 1 .325-.137h.002l.025.001.037-.001h3.436v-1h-5.501c-1.378 0-2.498-.999-2.498-2.499 0-1.379 1.292-2.5 2.67-2.5h.379a2.504 2.504 0 0 1 3.23-1.876 3.502 3.502 0 0 1 6.686 1.876h.536a2.5 2.5 0 0 1 2.498 2.499v.001a2.5 2.5 0 0 1-2.498 2.499H189v1h3.433l.037.001.028-.001h.001c.051 0 .1.009.326.144l.004.001a.458.458 0 0 1 .169.355v.001l-.001.024a.407.407 0 0 1 .002.04v1.435h.435c.312 0 .565.253.565.565v1.871a.565.565 0 0 1-.565.565h-1.87a.566.566 0 0 1-.566-.565v-1.871c0-.312.254-.565.566-.565h.434V446H189v.999h.435c.311 0 .565.253.565.565v1.871a.566.566 0 0 1-.565.565h-1.871a.565.565 0 0 1-.565-.565v-1.871c0-.312.253-.565.565-.565h.435V446h-2.998v.999h.434c.312 0 .565.253.565.565v1.871a.565.565 0 0 1-.565.565h-1.87a.566.566 0 0 1-.566-.565Zm9.83-4.29-.004-.002c-.02-.019-.007-.008.006.004-.013-.015-.014-.018-.002-.002Zm0 0c-.122-.092-.064-.054.002 0-.026-.021-.033-.026-.002 0Z" clip-rule="evenodd"/>
    <path fill="#000" d="M159.975 466.396h2.748c.976 0 1.732.204 2.268.612.544.4.816 1.028.816 1.884 0 .648-.136 1.176-.408 1.584a2.312 2.312 0 0 1-1.116.9c-.472.184-1.024.276-1.656.276h-1.524V475h-1.128v-8.604Zm2.652 4.236c.608 0 1.1-.132 1.476-.396.376-.264.564-.708.564-1.332 0-.52-.168-.896-.504-1.128-.336-.232-.816-.348-1.44-.348h-1.62v3.204h1.524Zm6.779 4.488c-.568 0-1.08-.124-1.536-.372a2.784 2.784 0 0 1-1.068-1.104c-.264-.488-.396-1.076-.396-1.764s.132-1.272.396-1.752.62-.844 1.068-1.092a3.083 3.083 0 0 1 1.536-.384c.576 0 1.092.128 1.548.384a2.68 2.68 0 0 1 1.08 1.092c.264.48.396 1.064.396 1.752s-.132 1.276-.396 1.764a2.76 2.76 0 0 1-1.08 1.104 3.187 3.187 0 0 1-1.548.372Zm0-.948c.56 0 1.024-.184 1.392-.552.368-.376.552-.956.552-1.74s-.184-1.36-.552-1.728c-.368-.376-.832-.564-1.392-.564-.552 0-1.012.188-1.38.564-.36.368-.54.944-.54 1.728s.18 1.364.54 1.74c.368.368.828.552 1.38.552Zm4.456-7.776h2.748c.976 0 1.732.204 2.268.612.544.4.816 1.028.816 1.884 0 .648-.136 1.176-.408 1.584a2.312 2.312 0 0 1-1.116.9c-.472.184-1.024.276-1.656.276h-1.524V475h-1.128v-8.604Zm2.652 4.236c.608 0 1.1-.132 1.476-.396.376-.264.564-.708.564-1.332 0-.52-.168-.896-.504-1.128-.336-.232-.816-.348-1.44-.348h-1.62v3.204h1.524Zm7.074-4.236h1.524l4.32 7.224v-7.224h1.08V475h-1.536l-4.32-7.212V475h-1.068v-8.604Zm12.542 8.724a4.252 4.252 0 0 1-2.088-.516 3.781 3.781 0 0 1-1.488-1.5c-.36-.664-.54-1.476-.54-2.436s.18-1.764.54-2.412c.368-.656.864-1.148 1.488-1.476.624-.328 1.32-.492 2.088-.492.784 0 1.484.168 2.1.504a3.564 3.564 0 0 1 1.476 1.464c.36.648.54 1.456.54 2.424 0 .952-.18 1.76-.54 2.424a3.703 3.703 0 0 1-1.476 1.5c-.616.344-1.316.516-2.1.516Zm0-1.02c.552 0 1.048-.112 1.488-.336.44-.224.784-.584 1.032-1.08.256-.504.384-1.164.384-1.98 0-.824-.128-1.484-.384-1.98-.248-.496-.592-.856-1.032-1.08a3.233 3.233 0 0 0-1.488-.336c-.552 0-1.048.112-1.488.336-.432.224-.776.584-1.032 1.08-.256.496-.384 1.156-.384 1.98 0 .816.128 1.476.384 1.98.256.496.6.856 1.032 1.08.44.224.936.336 1.488.336Zm5.622-7.704h2.88c1.008 0 1.78.2 2.316.6.536.392.804 1.012.804 1.86 0 .752-.18 1.328-.54 1.728-.36.392-.84.656-1.44.792l2.34 3.624h-1.272l-2.244-3.492h-1.716V475h-1.128v-8.604Zm2.772 4.092c.616 0 1.112-.12 1.488-.36.376-.24.564-.672.564-1.296 0-.512-.172-.872-.516-1.08-.336-.216-.812-.324-1.428-.324h-1.752v3.06h1.644Zm5.045-4.092h2.892c.576 0 1.112.068 1.608.204.496.136.928.36 1.296.672.368.304.656.712.864 1.224.208.512.312 1.148.312 1.908 0 1.008-.184 1.856-.552 2.544-.36.68-.856 1.192-1.488 1.536-.632.344-1.356.516-2.172.516h-2.76v-8.604Zm2.76 7.584c.592 0 1.112-.12 1.56-.36.448-.248.796-.628 1.044-1.14.256-.52.384-1.184.384-1.992s-.124-1.432-.372-1.872c-.248-.44-.588-.748-1.02-.924-.424-.176-.912-.264-1.464-.264h-1.764v6.552h1.632Z"/>
    <rect width="32" height="32" x="334" y="427" fill="#5282FF" rx="16"/>
    <path fill="#fff" fill-rule="evenodd" d="M344.999 449.435v-1.871c0-.312.254-.565.566-.565h.434v-1.462l-.001-.037v-.001a.48.48 0 0 1 .176-.363.455.455 0 0 1 .325-.137h.001l.026.001.037-.001h3.436v-1h-5.501c-1.378 0-2.498-.999-2.498-2.499 0-1.379 1.292-2.5 2.67-2.5h.379a2.504 2.504 0 0 1 3.23-1.876 3.503 3.503 0 0 1 6.686 1.876h.535a2.5 2.5 0 0 1 2.499 2.499v.001a2.5 2.5 0 0 1-2.499 2.499H351v1h3.433l.037.001.028-.001h.001c.051 0 .1.009.326.144l.004.001a.458.458 0 0 1 .169.355v.001l-.001.024a.407.407 0 0 1 .002.04v1.435h.435c.312 0 .565.253.565.565v1.871a.565.565 0 0 1-.565.565h-1.871a.566.566 0 0 1-.565-.565v-1.871c0-.312.254-.565.565-.565h.435V446H351v.999h.434c.312 0 .566.253.566.565v1.871a.566.566 0 0 1-.566.565h-1.87a.565.565 0 0 1-.565-.565v-1.871c0-.312.253-.565.565-.565h.435V446H347v.999h.435c.312 0 .565.253.565.565v1.871a.565.565 0 0 1-.565.565h-1.87a.566.566 0 0 1-.566-.565Zm9.83-4.29-.004-.002c-.02-.019-.007-.008.006.004-.013-.015-.014-.018-.002-.002Zm0 0c-.122-.092-.064-.054.002 0-.026-.021-.033-.026-.002 0Z" clip-rule="evenodd"/>
    <path fill="#000" d="M327.506 466.396h2.748c.976 0 1.732.204 2.268.612.544.4.816 1.028.816 1.884 0 .648-.136 1.176-.408 1.584a2.312 2.312 0 0 1-1.116.9c-.472.184-1.024.276-1.656.276h-1.524V475h-1.128v-8.604Zm2.652 4.236c.608 0 1.1-.132 1.476-.396.376-.264.564-.708.564-1.332 0-.52-.168-.896-.504-1.128-.336-.232-.816-.348-1.44-.348h-1.62v3.204h1.524Zm6.78 4.488c-.568 0-1.08-.124-1.536-.372a2.784 2.784 0 0 1-1.068-1.104c-.264-.488-.396-1.076-.396-1.764s.132-1.272.396-1.752.62-.844 1.068-1.092a3.083 3.083 0 0 1 1.536-.384c.576 0 1.092.128 1.548.384a2.68 2.68 0 0 1 1.08 1.092c.264.48.396 1.064.396 1.752s-.132 1.276-.396 1.764a2.76 2.76 0 0 1-1.08 1.104 3.187 3.187 0 0 1-1.548.372Zm0-.948c.56 0 1.024-.184 1.392-.552.368-.376.552-.956.552-1.74s-.184-1.36-.552-1.728c-.368-.376-.832-.564-1.392-.564-.552 0-1.012.188-1.38.564-.36.368-.54.944-.54 1.728s.18 1.364.54 1.74c.368.368.828.552 1.38.552Zm4.455-7.776h2.748c.976 0 1.732.204 2.268.612.544.4.816 1.028.816 1.884 0 .648-.136 1.176-.408 1.584a2.312 2.312 0 0 1-1.116.9c-.472.184-1.024.276-1.656.276h-1.524V475h-1.128v-8.604Zm2.652 4.236c.608 0 1.1-.132 1.476-.396.376-.264.564-.708.564-1.332 0-.52-.168-.896-.504-1.128-.336-.232-.816-.348-1.44-.348h-1.62v3.204h1.524Zm10.686 4.488a4.252 4.252 0 0 1-2.088-.516 3.781 3.781 0 0 1-1.488-1.5c-.36-.664-.54-1.476-.54-2.436s.18-1.764.54-2.412c.368-.656.864-1.148 1.488-1.476.624-.328 1.32-.492 2.088-.492.784 0 1.484.168 2.1.504a3.564 3.564 0 0 1 1.476 1.464c.36.648.54 1.456.54 2.424 0 .952-.18 1.76-.54 2.424a3.703 3.703 0 0 1-1.476 1.5c-.616.344-1.316.516-2.1.516Zm0-1.02c.552 0 1.048-.112 1.488-.336.44-.224.784-.584 1.032-1.08.256-.504.384-1.164.384-1.98 0-.824-.128-1.484-.384-1.98-.248-.496-.592-.856-1.032-1.08a3.233 3.233 0 0 0-1.488-.336c-.552 0-1.048.112-1.488.336-.432.224-.776.584-1.032 1.08-.256.496-.384 1.156-.384 1.98 0 .816.128 1.476.384 1.98.256.496.6.856 1.032 1.08.44.224.936.336 1.488.336Zm7.964 1.02a6.009 6.009 0 0 1-1.692-.228c-.512-.16-.904-.368-1.176-.624v-1.08c.2.176.456.332.768.468.32.136.664.244 1.032.324.368.08.724.12 1.068.12.648 0 1.148-.124 1.5-.372.36-.248.54-.6.54-1.056 0-.272-.056-.492-.168-.66-.104-.176-.304-.328-.6-.456-.288-.128-.708-.26-1.26-.396-.72-.184-1.284-.388-1.692-.612-.408-.224-.696-.488-.864-.792-.168-.312-.252-.68-.252-1.104 0-.768.272-1.352.816-1.752.544-.408 1.328-.612 2.352-.612.448 0 .86.044 1.236.132.376.088.748.224 1.116.408v1.08c-.6-.4-1.384-.6-2.352-.6-1.368 0-2.052.432-2.052 1.296 0 .376.14.672.42.888.288.216.796.408 1.524.576.752.168 1.34.364 1.764.588.424.224.724.496.9.816.184.312.276.696.276 1.152 0 .776-.284 1.388-.852 1.836-.568.44-1.352.66-2.352.66Zm3.983-7.68v-1.044h6.444v1.044h-2.652V475h-1.14v-7.56h-2.652Z"/>
    <path fill="#5282FF" fill-rule="evenodd" d="M515.316 452.128C514.265 454.295 513.058 455 512 455c-1.058 0-2.265-.705-3.316-2.872-.874-1.805-1.471-4.343-1.637-7.378 1.588.163 3.247.25 4.953.25 1.706 0 3.365-.087 4.953-.25-.166 3.035-.763 5.573-1.637 7.378Zm1.683-9.394A46.305 46.305 0 0 1 512 443c-1.734 0-3.41-.093-4.999-.266.029-3.694.67-6.77 1.683-8.862 1.05-2.166 2.257-2.871 3.315-2.872H512c1.058 0 2.265.705 3.316 2.872 1.013 2.092 1.654 5.168 1.683 8.862Zm1.969 1.761c-.174 4.002-1.052 7.4-2.483 9.639 4.293-1.731 7.355-5.873 7.509-10.748a35.983 35.983 0 0 1-5.026 1.109Zm4.916-3.171c-1.458.472-3.104.86-4.888 1.143-.067-4.418-.966-8.184-2.511-10.601 3.909 1.576 6.797 5.151 7.399 9.458Zm-18.88 1.143c.067-4.418.966-8.184 2.511-10.601-3.909 1.576-6.797 5.151-7.399 9.458 1.458.472 3.104.86 4.888 1.143Zm-4.998.919c.154 4.875 3.216 9.017 7.509 10.748-1.431-2.239-2.309-5.637-2.483-9.639a35.983 35.983 0 0 1-5.026-1.109ZM526 443c0-7.732-6.268-14-14-14s-14 6.268-14 14 6.268 14 14 14 14-6.268 14-14Z" clip-rule="evenodd"/>
    <path fill="#000" d="M489.858 466.396h2.748c.976 0 1.732.204 2.268.612.544.4.816 1.028.816 1.884 0 .648-.136 1.176-.408 1.584a2.312 2.312 0 0 1-1.116.9c-.472.184-1.024.276-1.656.276h-1.524V475h-1.128v-8.604Zm2.652 4.236c.608 0 1.1-.132 1.476-.396.376-.264.564-.708.564-1.332 0-.52-.168-.896-.504-1.128-.336-.232-.816-.348-1.44-.348h-1.62v3.204h1.524Zm6.779 4.488c-.568 0-1.08-.124-1.536-.372a2.784 2.784 0 0 1-1.068-1.104c-.264-.488-.396-1.076-.396-1.764s.132-1.272.396-1.752.62-.844 1.068-1.092a3.083 3.083 0 0 1 1.536-.384c.576 0 1.092.128 1.548.384a2.68 2.68 0 0 1 1.08 1.092c.264.48.396 1.064.396 1.752s-.132 1.276-.396 1.764a2.76 2.76 0 0 1-1.08 1.104 3.187 3.187 0 0 1-1.548.372Zm0-.948c.56 0 1.024-.184 1.392-.552.368-.376.552-.956.552-1.74s-.184-1.36-.552-1.728c-.368-.376-.832-.564-1.392-.564-.552 0-1.012.188-1.38.564-.36.368-.54.944-.54 1.728s.18 1.364.54 1.74c.368.368.828.552 1.38.552Zm4.455-7.776h2.748c.976 0 1.732.204 2.268.612.544.4.816 1.028.816 1.884 0 .648-.136 1.176-.408 1.584a2.312 2.312 0 0 1-1.116.9c-.472.184-1.024.276-1.656.276h-1.524V475h-1.128v-8.604Zm2.652 4.236c.608 0 1.1-.132 1.476-.396.376-.264.564-.708.564-1.332 0-.52-.168-.896-.504-1.128-.336-.232-.816-.348-1.44-.348h-1.62v3.204h1.524Zm9.475 4.488a6.009 6.009 0 0 1-1.692-.228c-.512-.16-.904-.368-1.176-.624v-1.08c.2.176.456.332.768.468.32.136.664.244 1.032.324.368.08.724.12 1.068.12.648 0 1.148-.124 1.5-.372.36-.248.54-.6.54-1.056 0-.272-.056-.492-.168-.66-.104-.176-.304-.328-.6-.456-.288-.128-.708-.26-1.26-.396-.72-.184-1.284-.388-1.692-.612-.408-.224-.696-.488-.864-.792-.168-.312-.252-.68-.252-1.104 0-.768.272-1.352.816-1.752.544-.408 1.328-.612 2.352-.612.448 0 .86.044 1.236.132.376.088.748.224 1.116.408v1.08c-.6-.4-1.384-.6-2.352-.6-1.368 0-2.052.432-2.052 1.296 0 .376.14.672.42.888.288.216.796.408 1.524.576.752.168 1.34.364 1.764.588.424.224.724.496.9.816.184.312.276.696.276 1.152 0 .776-.284 1.388-.852 1.836-.568.44-1.352.66-2.352.66Zm3.983-7.68v-1.044h6.444v1.044h-2.652V475h-1.14v-7.56h-2.652Zm7.832-1.044h2.892c.576 0 1.112.068 1.608.204.496.136.928.36 1.296.672.368.304.656.712.864 1.224.208.512.312 1.148.312 1.908 0 1.008-.184 1.856-.552 2.544-.36.68-.856 1.192-1.488 1.536-.632.344-1.356.516-2.172.516h-2.76v-8.604Zm2.76 7.584c.592 0 1.112-.12 1.56-.36.448-.248.796-.628 1.044-1.14.256-.52.384-1.184.384-1.992s-.124-1.432-.372-1.872c-.248-.44-.588-.748-1.02-.924-.424-.176-.912-.264-1.464-.264h-1.764v6.552h1.632ZM454.594 55.396h2.748c.976 0 1.732.204 2.268.612.544.4.816 1.028.816 1.884 0 .648-.136 1.176-.408 1.584a2.312 2.312 0 0 1-1.116.9c-.472.184-1.024.276-1.656.276h-1.524V64h-1.128v-8.604Zm2.652 4.236c.608 0 1.1-.132 1.476-.396.376-.264.564-.708.564-1.332 0-.52-.168-.896-.504-1.128-.336-.232-.816-.348-1.44-.348h-1.62v3.204h1.524Zm6.779 4.488c-.568 0-1.08-.124-1.536-.372a2.784 2.784 0 0 1-1.068-1.104c-.264-.488-.396-1.076-.396-1.764s.132-1.272.396-1.752.62-.844 1.068-1.092a3.083 3.083 0 0 1 1.536-.384c.576 0 1.092.128 1.548.384a2.68 2.68 0 0 1 1.08 1.092c.264.48.396 1.064.396 1.752s-.132 1.276-.396 1.764a2.76 2.76 0 0 1-1.08 1.104 3.187 3.187 0 0 1-1.548.372Zm0-.948c.56 0 1.024-.184 1.392-.552.368-.376.552-.956.552-1.74s-.184-1.36-.552-1.728c-.368-.376-.832-.564-1.392-.564-.552 0-1.012.188-1.38.564-.36.368-.54.944-.54 1.728s.18 1.364.54 1.74c.368.368.828.552 1.38.552Zm4.456-7.776h2.748c.976 0 1.732.204 2.268.612.544.4.816 1.028.816 1.884 0 .648-.136 1.176-.408 1.584a2.312 2.312 0 0 1-1.116.9c-.472.184-1.024.276-1.656.276h-1.524V64h-1.128v-8.604Zm2.652 4.236c.608 0 1.1-.132 1.476-.396.376-.264.564-.708.564-1.332 0-.52-.168-.896-.504-1.128-.336-.232-.816-.348-1.44-.348h-1.62v3.204h1.524Zm6.426-3.192v-1.044h6.444v1.044h-2.652V64h-1.14v-7.56h-2.652Zm7.832-1.044h5.328v1.032h-4.2v2.604h3.564v1.02h-3.564v2.928h4.26V64h-5.388v-8.604Zm7.172 0h1.128v3.828h4.416v-3.828h1.14V64h-1.14v-3.756h-4.416V64h-1.128v-8.604Zm8.695 0h1.524l4.32 7.224v-7.224h1.08V64h-1.536l-4.32-7.212V64h-1.068v-8.604ZM513.8 64.12a4.252 4.252 0 0 1-2.088-.516 3.781 3.781 0 0 1-1.488-1.5c-.36-.664-.54-1.476-.54-2.436s.18-1.764.54-2.412c.368-.656.864-1.148 1.488-1.476.624-.328 1.32-.492 2.088-.492.784 0 1.484.168 2.1.504a3.564 3.564 0 0 1 1.476 1.464c.36.648.54 1.456.54 2.424 0 .952-.18 1.76-.54 2.424a3.703 3.703 0 0 1-1.476 1.5c-.616.344-1.316.516-2.1.516Zm0-1.02c.552 0 1.048-.112 1.488-.336.44-.224.784-.584 1.032-1.08.256-.504.384-1.164.384-1.98 0-.824-.128-1.484-.384-1.98-.248-.496-.592-.856-1.032-1.08a3.233 3.233 0 0 0-1.488-.336c-.552 0-1.048.112-1.488.336-.432.224-.776.584-1.032 1.08-.256.496-.384 1.156-.384 1.98 0 .816.128 1.476.384 1.98.256.496.6.856 1.032 1.08.44.224.936.336 1.488.336Z"/>
    <rect width="32" height="32" x="453" y="16" fill="#5282FF" rx="16"/>
    <path fill="#fff" fill-rule="evenodd" d="M463.999 38.435v-1.871c0-.312.254-.565.566-.565h.434v-1.462l-.001-.037v-.001a.48.48 0 0 1 .176-.363.454.454 0 0 1 .325-.137h.001l.026.001.037-.001h3.436v-1h-5.501C462.12 32.999 461 32 461 30.5c0-1.379 1.292-2.5 2.67-2.5h.379a2.504 2.504 0 0 1 3.23-1.876A3.503 3.503 0 0 1 473.965 28h.535a2.5 2.5 0 0 1 2.499 2.499v.001a2.5 2.5 0 0 1-2.499 2.499H470v1h3.433l.037.001.028-.001h.001c.051 0 .1.009.326.144l.004.001a.458.458 0 0 1 .169.355l-.001.025a.42.42 0 0 1 .002.04v1.435h.435c.312 0 .565.253.565.565v1.87a.565.565 0 0 1-.565.566h-1.871a.566.566 0 0 1-.565-.565v-1.871c0-.312.254-.565.565-.565h.435v-1H470v1h.434c.312 0 .566.253.566.565v1.87a.566.566 0 0 1-.566.566h-1.87a.565.565 0 0 1-.565-.565v-1.871c0-.312.253-.565.565-.565h.435v-1H466v1h.435c.312 0 .565.253.565.565v1.87a.565.565 0 0 1-.565.566h-1.87a.566.566 0 0 1-.566-.565Zm9.83-4.29-.004-.002c-.02-.019-.007-.008.006.004-.013-.015-.014-.018-.002-.002Zm0 0c-.122-.092-.064-.054.002 0-.026-.021-.033-.026-.002 0Z" clip-rule="evenodd"/>
    <path fill="#5282FF" fill-rule="evenodd" d="M508.316 41.128C507.265 43.295 506.058 44 505 44c-1.058 0-2.265-.705-3.316-2.872-.874-1.805-1.471-4.343-1.637-7.378 1.588.163 3.247.25 4.953.25 1.706 0 3.365-.087 4.953-.25-.166 3.035-.763 5.573-1.637 7.378Zm1.683-9.394A46.227 46.227 0 0 1 505 32c-1.734 0-3.41-.093-4.999-.266.029-3.694.67-6.77 1.683-8.862 1.05-2.166 2.257-2.871 3.315-2.872H505c1.058 0 2.265.705 3.316 2.872 1.013 2.092 1.654 5.169 1.683 8.862Zm1.969 1.761c-.174 4.002-1.052 7.4-2.483 9.639 4.293-1.731 7.355-5.873 7.509-10.748a35.824 35.824 0 0 1-5.026 1.11Zm4.916-3.17c-1.458.47-3.104.859-4.888 1.142-.067-4.418-.966-8.184-2.511-10.6a12.011 12.011 0 0 1 7.399 9.457Zm-18.88 1.142c.067-4.418.966-8.184 2.511-10.6a12.011 12.011 0 0 0-7.399 9.457c1.458.472 3.104.86 4.888 1.143Zm-4.998.919c.154 4.875 3.216 9.017 7.509 10.748-1.431-2.24-2.309-5.637-2.483-9.639a35.824 35.824 0 0 1-5.026-1.11ZM519 32c0-7.732-6.268-14-14-14s-14 6.268-14 14 6.268 14 14 14 14-6.268 14-14Z" clip-rule="evenodd"/>
    <path fill="#000" d="M194.207 55.396h2.748c.976 0 1.732.204 2.268.612.544.4.816 1.028.816 1.884 0 .648-.136 1.176-.408 1.584a2.312 2.312 0 0 1-1.116.9c-.472.184-1.024.276-1.656.276h-1.524V64h-1.128v-8.604Zm2.652 4.236c.608 0 1.1-.132 1.476-.396.376-.264.564-.708.564-1.332 0-.52-.168-.896-.504-1.128-.336-.232-.816-.348-1.44-.348h-1.62v3.204h1.524Zm6.78 4.488c-.568 0-1.08-.124-1.536-.372a2.784 2.784 0 0 1-1.068-1.104c-.264-.488-.396-1.076-.396-1.764s.132-1.272.396-1.752.62-.844 1.068-1.092a3.083 3.083 0 0 1 1.536-.384c.576 0 1.092.128 1.548.384a2.68 2.68 0 0 1 1.08 1.092c.264.48.396 1.064.396 1.752s-.132 1.276-.396 1.764a2.76 2.76 0 0 1-1.08 1.104 3.187 3.187 0 0 1-1.548.372Zm0-.948c.56 0 1.024-.184 1.392-.552.368-.376.552-.956.552-1.74s-.184-1.36-.552-1.728c-.368-.376-.832-.564-1.392-.564-.552 0-1.012.188-1.38.564-.36.368-.54.944-.54 1.728s.18 1.364.54 1.74c.368.368.828.552 1.38.552Zm4.455-7.776h2.748c.976 0 1.732.204 2.268.612.544.4.816 1.028.816 1.884 0 .648-.136 1.176-.408 1.584a2.312 2.312 0 0 1-1.116.9c-.472.184-1.024.276-1.656.276h-1.524V64h-1.128v-8.604Zm2.652 4.236c.608 0 1.1-.132 1.476-.396.376-.264.564-.708.564-1.332 0-.52-.168-.896-.504-1.128-.336-.232-.816-.348-1.44-.348h-1.62v3.204h1.524Zm11.239 3.06h-.504l.012-.012-2.604-5.7V64h-1.068v-8.604h1.572l2.676 6.036 2.796-6.036h1.464V64h-1.14v-6.924l-2.64 5.604-.564.012Zm5.891-4.464c0-.592.136-1.108.408-1.548.272-.448.64-.792 1.104-1.032.464-.248.98-.372 1.548-.372.76 0 1.372.16 1.836.48.472.32.812.764 1.02 1.332.216.568.324 1.224.324 1.968 0 1-.128 1.88-.384 2.64-.256.76-.652 1.356-1.188 1.788-.536.424-1.224.636-2.064.636-.808 0-1.476-.148-2.004-.444V62.62c.536.352 1.204.528 2.004.528.536 0 .984-.136 1.344-.408.36-.28.64-.652.84-1.116.2-.472.324-.996.372-1.572-.28.368-.612.64-.996.816a2.966 2.966 0 0 1-1.224.252 3.28 3.28 0 0 1-1.488-.336 2.584 2.584 0 0 1-1.068-.984c-.256-.432-.384-.956-.384-1.572Zm3.06-1.98c-.328 0-.64.072-.936.216-.296.144-.536.36-.72.648-.176.288-.264.648-.264 1.08 0 .432.088.796.264 1.092.176.296.404.52.684.672.28.144.572.216.876.216.576 0 1.06-.168 1.452-.504.392-.344.588-.844.588-1.5 0-.568-.176-1.028-.528-1.38-.344-.36-.816-.54-1.416-.54Z"/>
    <rect width="32" height="32" x="215" y="16" fill="#5282FF" rx="16"/>
    <path fill="#fff" fill-rule="evenodd" d="M225.999 38.435v-1.871c0-.312.254-.565.566-.565h.434v-1.462l-.001-.037v-.001a.48.48 0 0 1 .176-.363.454.454 0 0 1 .325-.137h.002l.025.001.037-.001h3.436v-1h-5.501C224.12 32.999 223 32 223 30.5c0-1.379 1.292-2.5 2.67-2.5h.379a2.504 2.504 0 0 1 3.23-1.876A3.502 3.502 0 0 1 235.965 28h.536a2.5 2.5 0 0 1 2.498 2.499v.001a2.5 2.5 0 0 1-2.498 2.499H232v1h3.433l.037.001.028-.001h.001c.051 0 .1.009.326.144l.004.001a.458.458 0 0 1 .169.355l-.001.025a.42.42 0 0 1 .002.04v1.435h.435c.312 0 .565.253.565.565v1.87a.565.565 0 0 1-.565.566h-1.87a.566.566 0 0 1-.566-.565v-1.871c0-.312.254-.565.566-.565h.434v-1H232v1h.435c.311 0 .565.253.565.565v1.87a.566.566 0 0 1-.565.566h-1.871a.565.565 0 0 1-.565-.565v-1.871c0-.312.253-.565.565-.565h.435v-1h-2.998v1h.434c.312 0 .565.253.565.565v1.87a.565.565 0 0 1-.565.566h-1.87a.566.566 0 0 1-.566-.565Zm9.83-4.29-.004-.002c-.02-.019-.007-.008.006.004-.013-.015-.014-.018-.002-.002Zm0 0c-.122-.092-.064-.054.002 0-.026-.021-.033-.026-.002 0Z" clip-rule="evenodd"/>
    <path fill="#5282FF" fill-rule="evenodd" d="M198.316 41.128C197.265 43.295 196.058 44 195 44c-1.058 0-2.265-.705-3.316-2.872-.874-1.805-1.471-4.343-1.637-7.378 1.588.163 3.247.25 4.953.25 1.706 0 3.365-.087 4.953-.25-.166 3.035-.763 5.573-1.637 7.378Zm1.683-9.394A46.227 46.227 0 0 1 195 32c-1.734 0-3.41-.093-4.999-.266.029-3.694.67-6.77 1.683-8.862 1.05-2.166 2.257-2.871 3.315-2.872H195c1.058 0 2.265.705 3.316 2.872 1.013 2.092 1.654 5.169 1.683 8.862Zm1.969 1.761c-.174 4.002-1.052 7.4-2.483 9.639 4.293-1.731 7.355-5.873 7.509-10.748a35.824 35.824 0 0 1-5.026 1.11Zm4.916-3.17c-1.458.47-3.104.859-4.888 1.142-.067-4.418-.966-8.184-2.511-10.6a12.011 12.011 0 0 1 7.399 9.457Zm-18.88 1.142c.067-4.418.966-8.184 2.511-10.6a12.011 12.011 0 0 0-7.399 9.457c1.458.472 3.104.86 4.888 1.143Zm-4.998.919c.154 4.875 3.216 9.017 7.509 10.748-1.431-2.24-2.309-5.637-2.483-9.639a35.824 35.824 0 0 1-5.026-1.11ZM209 32c0-7.732-6.268-14-14-14s-14 6.268-14 14 6.268 14 14 14 14-6.268 14-14Z" clip-rule="evenodd"/>
    <rect width="99" height="46" x="93" y="277" fill="#D6E1FF" rx="10"/>
    <path fill="#000" d="M112.053 298.828c-.496.04-.92.164-1.272.372a1.87 1.87 0 0 0-.756.84V304h-1.056v-6.228h.924l.108 1.356h.024c.2-.416.472-.752.816-1.008a2.553 2.553 0 0 1 1.212-.468v1.176Zm5.284 4.056a2.257 2.257 0 0 1-.78.876c-.344.24-.796.36-1.356.36-.576 0-1.044-.164-1.404-.492-.352-.328-.528-.828-.528-1.5v-4.356h1.068v4.356c0 .408.112.684.336.828.224.144.5.216.828.216.464 0 .836-.104 1.116-.312.28-.208.52-.492.72-.852v-4.236h1.056V304h-.936l-.096-1.116h-.024Zm2.645-2.064v-.96h2.88v.96h-2.88Zm7.273 3.3c-.968 0-1.732-.284-2.292-.852-.56-.576-.84-1.372-.84-2.388 0-1.016.284-1.808.852-2.376.568-.568 1.344-.852 2.328-.852.376 0 .728.044 1.056.132.328.08.592.2.792.36v.948a3.423 3.423 0 0 0-1.836-.504c-.72 0-1.252.192-1.596.576-.344.376-.516.948-.516 1.716s.164 1.344.492 1.728c.336.376.856.564 1.56.564.68 0 1.312-.164 1.896-.492v.948c-.52.328-1.152.492-1.896.492Zm5.943 0c-1.04 0-1.836-.284-2.388-.852-.544-.576-.816-1.372-.816-2.388 0-.68.128-1.26.384-1.74s.608-.848 1.056-1.104a2.993 2.993 0 0 1 1.512-.384c.952 0 1.652.316 2.1.948.448.624.592 1.48.432 2.568h-4.392c.088 1.336.824 2.004 2.208 2.004.76 0 1.46-.216 2.1-.648v.948c-.288.2-.624.36-1.008.48-.384.112-.78.168-1.188.168Zm-.276-5.532c-.456 0-.848.14-1.176.42-.328.28-.536.704-.624 1.272h3.348c.024-.536-.1-.952-.372-1.248-.272-.296-.664-.444-1.176-.444Zm6.832 0c-.48 0-.872.112-1.176.336a2.455 2.455 0 0 0-.72.84V304h-1.056v-6.228h.996l.036 1.116h.024c.168-.352.432-.644.792-.876.36-.24.816-.36 1.368-.36.616 0 1.104.164 1.464.492.368.328.552.824.552 1.488V304h-1.056v-4.26c0-.424-.112-.72-.336-.888-.216-.176-.512-.264-.888-.264Zm3.446.084v-.9h.744v-1.308H145v1.308h1.812v.9H145v3.744c0 .264.068.456.204.576.136.12.368.18.696.18.312 0 .596-.088.852-.264v.96a1.48 1.48 0 0 1-.504.18 2.767 2.767 0 0 1-.624.072c-.4 0-.724-.076-.972-.228a1.36 1.36 0 0 1-.54-.588 1.767 1.767 0 0 1-.168-.756v-3.876h-.744Zm8.041.156c-.496.04-.92.164-1.272.372a1.87 1.87 0 0 0-.756.84V304h-1.056v-6.228h.924l.108 1.356h.024c.2-.416.472-.752.816-1.008a2.553 2.553 0 0 1 1.212-.468v1.176Zm3.282-.24c-.664 0-1.336.204-2.016.612v-.948a3.804 3.804 0 0 1 1.02-.432 4.142 4.142 0 0 1 1.14-.168c.784 0 1.38.164 1.788.492.408.328.612.828.612 1.5v3.348c0 .136.004.312.012.528.016.208.032.368.048.48h-.96a5.482 5.482 0 0 1-.072-.468 7.173 7.173 0 0 1-.024-.54l-.012-.18a3.359 3.359 0 0 1-.396.6c-.168.2-.392.368-.672.504-.272.136-.612.204-1.02.204-.56 0-1.012-.16-1.356-.48-.344-.32-.516-.772-.516-1.356 0-.68.24-1.18.72-1.5.48-.32 1.156-.48 2.028-.48h1.164v-.516c0-.432-.112-.74-.336-.924-.224-.184-.608-.276-1.152-.276Zm1.488 3.012v-.456h-1.056c-.632 0-1.092.092-1.38.276-.28.184-.42.452-.42.804 0 .28.084.508.252.684.176.176.44.264.792.264.328 0 .608-.064.84-.192.232-.136.42-.296.564-.48.144-.192.248-.372.312-.54.064-.168.096-.288.096-.36Zm2.716-6.204h1.056V304h-1.056v-8.604Zm5.418 8.604h-1.104v-7.2l-1.824 1.776v-1.212l2.028-1.968h.9V304Zm1.95-3.18v-.96h2.88v.96h-2.88Zm4.468-5.424h1.056l-.024 3.588c.208-.4.488-.72.84-.96.352-.248.788-.372 1.308-.372.488 0 .936.12 1.344.36.416.232.752.588 1.008 1.068.256.472.384 1.072.384 1.8s-.132 1.332-.396 1.812c-.256.48-.596.84-1.02 1.08a2.761 2.761 0 0 1-1.368.348c-.48 0-.9-.116-1.26-.348a2.48 2.48 0 0 1-.84-.948l-.036 1.176h-.996v-8.604Zm4.824 5.484c0-.752-.172-1.32-.516-1.704-.344-.392-.788-.588-1.332-.588s-1.004.192-1.38.576c-.368.376-.552.948-.552 1.716 0 .776.184 1.352.552 1.728.376.376.836.564 1.38.564.544 0 .988-.192 1.332-.576.344-.384.516-.956.516-1.716Z"/>
    <path fill="#4E496B" d="M486 79.333a5.333 5.333 0 1 0 0-10.666 5.333 5.333 0 1 0 0 10.666ZM371 164v-38.522h-2V164h2Zm7-45.522h100v-2H378v2Zm109-9V74h-2v35.478h2Zm-9 9a9 9 0 0 0 9-9h-2a7 7 0 0 1-7 7v2Zm-107 7a7 7 0 0 1 7-7v-2a9 9 0 0 0-9 9h2Zm141 287.189a5.332 5.332 0 0 1 5.333 5.333 5.332 5.332 0 0 1-5.333 5.333 5.332 5.332 0 0 1-5.333-5.333 5.332 5.332 0 0 1 5.333-5.333Zm-8-36.146v-1 1Zm-87 0v-1 1ZM410 333v35.521h-2V333h2Zm7 42.521h87v2h-87v-2Zm96 9V418h-2v-33.479h2Zm-9-9a9 9 0 0 1 9 9h-2a7 7 0 0 0-7-7v-2Zm-94-7a7 7 0 0 0 7 7v2a9 9 0 0 1-9-9h2Zm-222 44.146a5.332 5.332 0 0 0-5.333 5.333 5.332 5.332 0 0 0 5.333 5.333 5.332 5.332 0 0 0 5.333-5.333 5.332 5.332 0 0 0-5.333-5.333Zm8-36.146v-1 1Zm87 0v-1 1ZM290 333v35.521h2V333h-2Zm-7 42.521h-87v2h87v-2Zm-96 9V418h2v-33.479h-2Zm9-9a9 9 0 0 0-9 9h2a7 7 0 0 1 7-7v-2Zm94-7a7 7 0 0 1-7 7v2a9 9 0 0 0 9-9h-2ZM214 79.333a5.333 5.333 0 1 1 0-10.666 5.333 5.333 0 1 1 0 10.666Zm124 38.145v1-1ZM345 164v-38.522h2V164h-2Zm-7-45.522H222v-2h116v2Zm-125-9V74h2v35.478h-2Zm9 9a9 9 0 0 1-9-9h2a7 7 0 0 0 7 7v2Zm123 7a7 7 0 0 0-7-7v-2a9 9 0 0 1 9 9h-2ZM197.333 196a5.332 5.332 0 0 0-5.333-5.333 5.332 5.332 0 0 0-5.333 5.333 5.332 5.332 0 0 0 5.333 5.333 5.332 5.332 0 0 0 5.333-5.333ZM293 195H192v2h101v-2Zm-95.667 105a5.332 5.332 0 0 0-5.333-5.333 5.332 5.332 0 0 0-5.333 5.333 5.332 5.332 0 0 0 5.333 5.333 5.332 5.332 0 0 0 5.333-5.333ZM231 299h-39v2h39v-2Zm268.667-51a5.332 5.332 0 0 1 5.333-5.333 5.332 5.332 0 0 1 5.333 5.333 5.332 5.332 0 0 1-5.333 5.333 5.332 5.332 0 0 1-5.333-5.333ZM460 247h45v2h-45v-2ZM350 412.667a5.332 5.332 0 0 0-5.333 5.333 5.332 5.332 0 0 0 5.333 5.333 5.332 5.332 0 0 0 5.333-5.333 5.332 5.332 0 0 0-5.333-5.333ZM349 333v85h2v-85h-2Z"/>
    <path fill="#000" d="M120.62 544.12a4.252 4.252 0 0 1-2.088-.516 3.781 3.781 0 0 1-1.488-1.5c-.36-.664-.54-1.476-.54-2.436s.18-1.764.54-2.412c.368-.656.864-1.148 1.488-1.476.624-.328 1.32-.492 2.088-.492.784 0 1.484.168 2.1.504a3.564 3.564 0 0 1 1.476 1.464c.36.648.54 1.456.54 2.424 0 .952-.18 1.76-.54 2.424a3.703 3.703 0 0 1-1.476 1.5c-.616.344-1.316.516-2.1.516Zm0-1.02c.552 0 1.048-.112 1.488-.336.44-.224.784-.584 1.032-1.08.256-.504.384-1.164.384-1.98 0-.824-.128-1.484-.384-1.98-.248-.496-.592-.856-1.032-1.08a3.233 3.233 0 0 0-1.488-.336c-.552 0-1.048.112-1.488.336-.432.224-.776.584-1.032 1.08-.256.496-.384 1.156-.384 1.98 0 .816.128 1.476.384 1.98.256.496.6.856 1.032 1.08.44.224.936.336 1.488.336Zm8.298-5.412c.528 0 1 .124 1.416.372.424.248.76.612 1.008 1.092.248.472.372 1.048.372 1.728 0 .688-.132 1.276-.396 1.764a2.76 2.76 0 0 1-1.08 1.104 3.187 3.187 0 0 1-1.548.372c-.584 0-1.104-.132-1.56-.396-.448-.272-.8-.68-1.056-1.224-.256-.544-.384-1.236-.384-2.076 0-.912.052-1.672.156-2.28.112-.608.284-1.104.516-1.488.232-.392.544-.704.936-.936.192-.112.392-.2.6-.264a4.14 4.14 0 0 1 .78-.144c.32-.04.728-.068 1.224-.084.312-.024.576-.064.792-.12a2.57 2.57 0 0 0 .588-.228v.96c-.152.096-.32.172-.504.228-.184.048-.44.088-.768.12-.472.048-.848.08-1.128.096-.272.016-.492.04-.66.072a1.83 1.83 0 0 0-1.284 1.056c-.176.376-.296.936-.36 1.68.416-.936 1.196-1.404 2.34-1.404Zm-.228 5.484c.56 0 1.024-.184 1.392-.552.368-.376.552-.956.552-1.74s-.184-1.36-.552-1.728c-.368-.376-.832-.564-1.392-.564-.552 0-1.012.184-1.38.552-.36.368-.54.936-.54 1.704 0 .8.18 1.388.54 1.764.368.376.828.564 1.38.564Zm6.902.948c-.568 0-1.08-.124-1.536-.372a2.784 2.784 0 0 1-1.068-1.104c-.264-.488-.396-1.076-.396-1.764s.132-1.272.396-1.752.62-.844 1.068-1.092a3.083 3.083 0 0 1 1.536-.384c.576 0 1.092.128 1.548.384a2.68 2.68 0 0 1 1.08 1.092c.264.48.396 1.064.396 1.752s-.132 1.276-.396 1.764a2.76 2.76 0 0 1-1.08 1.104 3.187 3.187 0 0 1-1.548.372Zm0-.948c.56 0 1.024-.184 1.392-.552.368-.376.552-.956.552-1.74s-.184-1.36-.552-1.728c-.368-.376-.832-.564-1.392-.564-.552 0-1.012.188-1.38.564-.36.368-.54.944-.54 1.728s.18 1.364.54 1.74c.368.368.828.552 1.38.552Zm4.311-5.4h.924l.108 1.212c.2-.4.476-.72.828-.96.36-.248.8-.372 1.32-.372.488 0 .936.12 1.344.36.416.232.752.588 1.008 1.068.256.472.384 1.072.384 1.8s-.132 1.332-.396 1.812c-.256.48-.596.84-1.02 1.08a2.761 2.761 0 0 1-1.368.348c-.472 0-.884-.112-1.236-.336a2.408 2.408 0 0 1-.84-.924v3.264h-1.056v-8.352Zm4.824 3.108c0-.752-.172-1.32-.516-1.704-.344-.392-.788-.588-1.332-.588s-1.004.192-1.38.576c-.368.376-.552.948-.552 1.716 0 .776.184 1.352.552 1.728.376.376.836.564 1.38.564.544 0 .988-.192 1.332-.576.344-.384.516-.956.516-1.716Zm2.853 5.364c-.328 0-.6-.044-.816-.132v-1.02c.16.136.42.204.78.204.28 0 .516-.068.708-.204.2-.128.392-.352.576-.672l-2.532-6.648h1.164l1.98 5.256 1.968-5.256h1.02l-2.328 6.156c-.32.824-.676 1.416-1.068 1.776-.392.36-.876.54-1.452.54Zm5.674-.468h-.948V543.1h.588c.256-.256.436-.616.54-1.08.112-.464.18-1.044.204-1.74.024-.704.036-1.54.036-2.508h4.5v5.328h.936v2.676h-.924l-.132-1.776h-4.692l-.108 1.776Zm3.864-7.104h-2.46c-.008 1.136-.048 2.056-.12 2.76-.064.696-.228 1.252-.492 1.668h3.072v-4.428Zm5.532 5.448c-.568 0-1.08-.124-1.536-.372a2.784 2.784 0 0 1-1.068-1.104c-.264-.488-.396-1.076-.396-1.764s.132-1.272.396-1.752.62-.844 1.068-1.092a3.083 3.083 0 0 1 1.536-.384c.576 0 1.092.128 1.548.384a2.68 2.68 0 0 1 1.08 1.092c.264.48.396 1.064.396 1.752s-.132 1.276-.396 1.764a2.76 2.76 0 0 1-1.08 1.104 3.187 3.187 0 0 1-1.548.372Zm0-.948c.56 0 1.024-.184 1.392-.552.368-.376.552-.956.552-1.74s-.184-1.36-.552-1.728c-.368-.376-.832-.564-1.392-.564-.552 0-1.012.188-1.38.564-.36.368-.54.944-.54 1.728s.18 1.364.54 1.74c.368.368.828.552 1.38.552Zm6.736.828h-2.424v-6.228h2.448c.744 0 1.308.132 1.692.396.392.256.588.66.588 1.212 0 .36-.096.652-.288.876-.184.224-.448.384-.792.48.888.144 1.332.636 1.332 1.476 0 .424-.112.768-.336 1.032-.216.264-.516.456-.9.576-.384.12-.824.18-1.32.18Zm.012-5.328h-1.38v1.692h1.296c.4 0 .72-.072.96-.216.248-.144.372-.352.372-.624 0-.328-.108-.552-.324-.672-.216-.12-.524-.18-.924-.18Zm-.024 2.532h-1.356v1.896h1.356c.448 0 .808-.064 1.08-.192.272-.136.408-.38.408-.732s-.124-.6-.372-.744c-.248-.152-.62-.228-1.116-.228Zm6.262-2.616c-.664 0-1.336.204-2.016.612v-.948a3.804 3.804 0 0 1 1.02-.432 4.142 4.142 0 0 1 1.14-.168c.784 0 1.38.164 1.788.492.408.328.612.828.612 1.5v3.348c0 .136.004.312.012.528.016.208.032.368.048.48h-.96a5.482 5.482 0 0 1-.072-.468 7.173 7.173 0 0 1-.024-.54l-.012-.18a3.359 3.359 0 0 1-.396.6c-.168.2-.392.368-.672.504-.272.136-.612.204-1.02.204-.56 0-1.012-.16-1.356-.48-.344-.32-.516-.772-.516-1.356 0-.68.24-1.18.72-1.5.48-.32 1.156-.48 2.028-.48h1.164v-.516c0-.432-.112-.74-.336-.924-.224-.184-.608-.276-1.152-.276Zm1.488 3.012v-.456h-1.056c-.632 0-1.092.092-1.38.276-.28.184-.42.452-.42.804 0 .28.084.508.252.684.176.176.44.264.792.264.328 0 .608-.064.84-.192.232-.136.42-.296.564-.48.144-.192.248-.372.312-.54.064-.168.096-.288.096-.36Zm3.773-3.828v2.568h3.012v-2.568h1.056V544h-1.056v-2.76h-3.012V544h-1.056v-6.228h1.056Zm6.855 0v4.764l3.204-4.764h1.068V544h-1.056v-4.752L187.776 544h-1.08v-6.228h1.056Zm8.759 6.348c-1.04 0-1.836-.284-2.388-.852-.544-.576-.816-1.372-.816-2.388 0-.68.128-1.26.384-1.74s.608-.848 1.056-1.104a2.993 2.993 0 0 1 1.512-.384c.952 0 1.652.316 2.1.948.448.624.592 1.48.432 2.568h-4.392c.088 1.336.824 2.004 2.208 2.004.76 0 1.46-.216 2.1-.648v.948c-.288.2-.624.36-1.008.48-.384.112-.78.168-1.188.168Zm-.276-5.532c-.456 0-.848.14-1.176.42-.328.28-.536.704-.624 1.272h3.348c.024-.536-.1-.952-.372-1.248-.272-.296-.664-.444-1.176-.444Zm6.519-3.192h2.892c.576 0 1.112.068 1.608.204.496.136.928.36 1.296.672.368.304.656.712.864 1.224.208.512.312 1.148.312 1.908 0 1.008-.184 1.856-.552 2.544-.36.68-.856 1.192-1.488 1.536-.632.344-1.356.516-2.172.516h-2.76v-8.604Zm2.76 7.584c.592 0 1.112-.12 1.56-.36.448-.248.796-.628 1.044-1.14.256-.52.384-1.184.384-1.992s-.124-1.432-.372-1.872c-.248-.44-.588-.748-1.02-.924-.424-.176-.912-.264-1.464-.264h-1.764v6.552h1.632Zm8.333 1.02h-1.668l-1.896-8.604h1.176l1.632 7.632 2.208-7.632h1.032l2.16 7.488 1.62-7.488h1.092L219.307 544h-1.656l-1.896-6.648-1.908 6.648Zm8.618-8.604h2.892c.576 0 1.112.068 1.608.204.496.136.928.36 1.296.672.368.304.656.712.864 1.224.208.512.312 1.148.312 1.908 0 1.008-.184 1.856-.552 2.544-.36.68-.856 1.192-1.488 1.536-.632.344-1.356.516-2.172.516h-2.76v-8.604Zm2.76 7.584c.592 0 1.112-.12 1.56-.36.448-.248.796-.628 1.044-1.14.256-.52.384-1.184.384-1.992s-.124-1.432-.372-1.872c-.248-.44-.588-.748-1.02-.924-.424-.176-.912-.264-1.464-.264h-1.764v6.552h1.632Zm9.877-.288h-.504l.012-.012-2.604-5.7V544h-1.068v-8.604h1.572l2.676 6.036 2.796-6.036h1.464V544h-1.14v-6.924l-2.64 5.604-.564.012ZM120.62 582.12a4.252 4.252 0 0 1-2.088-.516 3.781 3.781 0 0 1-1.488-1.5c-.36-.664-.54-1.476-.54-2.436s.18-1.764.54-2.412c.368-.656.864-1.148 1.488-1.476.624-.328 1.32-.492 2.088-.492.784 0 1.484.168 2.1.504a3.564 3.564 0 0 1 1.476 1.464c.36.648.54 1.456.54 2.424 0 .952-.18 1.76-.54 2.424a3.703 3.703 0 0 1-1.476 1.5c-.616.344-1.316.516-2.1.516Zm0-1.02c.552 0 1.048-.112 1.488-.336.44-.224.784-.584 1.032-1.08.256-.504.384-1.164.384-1.98 0-.824-.128-1.484-.384-1.98-.248-.496-.592-.856-1.032-1.08a3.233 3.233 0 0 0-1.488-.336c-.552 0-1.048.112-1.488.336-.432.224-.776.584-1.032 1.08-.256.496-.384 1.156-.384 1.98 0 .816.128 1.476.384 1.98.256.496.6.856 1.032 1.08.44.224.936.336 1.488.336Zm8.298-5.412c.528 0 1 .124 1.416.372.424.248.76.612 1.008 1.092.248.472.372 1.048.372 1.728 0 .688-.132 1.276-.396 1.764a2.76 2.76 0 0 1-1.08 1.104 3.187 3.187 0 0 1-1.548.372c-.584 0-1.104-.132-1.56-.396-.448-.272-.8-.68-1.056-1.224-.256-.544-.384-1.236-.384-2.076 0-.912.052-1.672.156-2.28.112-.608.284-1.104.516-1.488.232-.392.544-.704.936-.936.192-.112.392-.2.6-.264a4.14 4.14 0 0 1 .78-.144c.32-.04.728-.068 1.224-.084.312-.024.576-.064.792-.12a2.57 2.57 0 0 0 .588-.228v.96c-.152.096-.32.172-.504.228-.184.048-.44.088-.768.12-.472.048-.848.08-1.128.096-.272.016-.492.04-.66.072a1.83 1.83 0 0 0-1.284 1.056c-.176.376-.296.936-.36 1.68.416-.936 1.196-1.404 2.34-1.404Zm-.228 5.484c.56 0 1.024-.184 1.392-.552.368-.376.552-.956.552-1.74s-.184-1.36-.552-1.728c-.368-.376-.832-.564-1.392-.564-.552 0-1.012.184-1.38.552-.36.368-.54.936-.54 1.704 0 .8.18 1.388.54 1.764.368.376.828.564 1.38.564Zm6.902.948c-.568 0-1.08-.124-1.536-.372a2.784 2.784 0 0 1-1.068-1.104c-.264-.488-.396-1.076-.396-1.764s.132-1.272.396-1.752.62-.844 1.068-1.092a3.083 3.083 0 0 1 1.536-.384c.576 0 1.092.128 1.548.384a2.68 2.68 0 0 1 1.08 1.092c.264.48.396 1.064.396 1.752s-.132 1.276-.396 1.764a2.76 2.76 0 0 1-1.08 1.104 3.187 3.187 0 0 1-1.548.372Zm0-.948c.56 0 1.024-.184 1.392-.552.368-.376.552-.956.552-1.74s-.184-1.36-.552-1.728c-.368-.376-.832-.564-1.392-.564-.552 0-1.012.188-1.38.564-.36.368-.54.944-.54 1.728s.18 1.364.54 1.74c.368.368.828.552 1.38.552Zm4.311-5.4h.924l.108 1.212c.2-.4.476-.72.828-.96.36-.248.8-.372 1.32-.372.488 0 .936.12 1.344.36.416.232.752.588 1.008 1.068.256.472.384 1.072.384 1.8s-.132 1.332-.396 1.812c-.256.48-.596.84-1.02 1.08a2.761 2.761 0 0 1-1.368.348c-.472 0-.884-.112-1.236-.336a2.408 2.408 0 0 1-.84-.924v3.264h-1.056v-8.352Zm4.824 3.108c0-.752-.172-1.32-.516-1.704-.344-.392-.788-.588-1.332-.588s-1.004.192-1.38.576c-.368.376-.552.948-.552 1.716 0 .776.184 1.352.552 1.728.376.376.836.564 1.38.564.544 0 .988-.192 1.332-.576.344-.384.516-.956.516-1.716Zm2.853 5.364c-.328 0-.6-.044-.816-.132v-1.02c.16.136.42.204.78.204.28 0 .516-.068.708-.204.2-.128.392-.352.576-.672l-2.532-6.648h1.164l1.98 5.256 1.968-5.256h1.02l-2.328 6.156c-.32.824-.676 1.416-1.068 1.776-.392.36-.876.54-1.452.54Zm5.674-.468h-.948V581.1h.588c.256-.256.436-.616.54-1.08.112-.464.18-1.044.204-1.74.024-.704.036-1.54.036-2.508h4.5v5.328h.936v2.676h-.924l-.132-1.776h-4.692l-.108 1.776Zm3.864-7.104h-2.46c-.008 1.136-.048 2.056-.12 2.76-.064.696-.228 1.252-.492 1.668h3.072v-4.428Zm5.532 5.448c-.568 0-1.08-.124-1.536-.372a2.784 2.784 0 0 1-1.068-1.104c-.264-.488-.396-1.076-.396-1.764s.132-1.272.396-1.752.62-.844 1.068-1.092a3.083 3.083 0 0 1 1.536-.384c.576 0 1.092.128 1.548.384a2.68 2.68 0 0 1 1.08 1.092c.264.48.396 1.064.396 1.752s-.132 1.276-.396 1.764a2.76 2.76 0 0 1-1.08 1.104 3.187 3.187 0 0 1-1.548.372Zm0-.948c.56 0 1.024-.184 1.392-.552.368-.376.552-.956.552-1.74s-.184-1.36-.552-1.728c-.368-.376-.832-.564-1.392-.564-.552 0-1.012.188-1.38.564-.36.368-.54.944-.54 1.728s.18 1.364.54 1.74c.368.368.828.552 1.38.552Zm6.736.828h-2.424v-6.228h2.448c.744 0 1.308.132 1.692.396.392.256.588.66.588 1.212 0 .36-.096.652-.288.876-.184.224-.448.384-.792.48.888.144 1.332.636 1.332 1.476 0 .424-.112.768-.336 1.032-.216.264-.516.456-.9.576-.384.12-.824.18-1.32.18Zm.012-5.328h-1.38v1.692h1.296c.4 0 .72-.072.96-.216.248-.144.372-.352.372-.624 0-.328-.108-.552-.324-.672-.216-.12-.524-.18-.924-.18Zm-.024 2.532h-1.356v1.896h1.356c.448 0 .808-.064 1.08-.192.272-.136.408-.38.408-.732s-.124-.6-.372-.744c-.248-.152-.62-.228-1.116-.228Zm6.262-2.616c-.664 0-1.336.204-2.016.612v-.948a3.804 3.804 0 0 1 1.02-.432 4.142 4.142 0 0 1 1.14-.168c.784 0 1.38.164 1.788.492.408.328.612.828.612 1.5v3.348c0 .136.004.312.012.528.016.208.032.368.048.48h-.96a5.482 5.482 0 0 1-.072-.468 7.173 7.173 0 0 1-.024-.54l-.012-.18a3.359 3.359 0 0 1-.396.6c-.168.2-.392.368-.672.504-.272.136-.612.204-1.02.204-.56 0-1.012-.16-1.356-.48-.344-.32-.516-.772-.516-1.356 0-.68.24-1.18.72-1.5.48-.32 1.156-.48 2.028-.48h1.164v-.516c0-.432-.112-.74-.336-.924-.224-.184-.608-.276-1.152-.276Zm1.488 3.012v-.456h-1.056c-.632 0-1.092.092-1.38.276-.28.184-.42.452-.42.804 0 .28.084.508.252.684.176.176.44.264.792.264.328 0 .608-.064.84-.192.232-.136.42-.296.564-.48.144-.192.248-.372.312-.54.064-.168.096-.288.096-.36Zm3.773-3.828v2.568h3.012v-2.568h1.056V582h-1.056v-2.76h-3.012V582h-1.056v-6.228h1.056Zm6.855 0v4.764l3.204-4.764h1.068V582h-1.056v-4.752L187.776 582h-1.08v-6.228h1.056Zm8.759 6.348c-1.04 0-1.836-.284-2.388-.852-.544-.576-.816-1.372-.816-2.388 0-.68.128-1.26.384-1.74s.608-.848 1.056-1.104a2.993 2.993 0 0 1 1.512-.384c.952 0 1.652.316 2.1.948.448.624.592 1.48.432 2.568h-4.392c.088 1.336.824 2.004 2.208 2.004.76 0 1.46-.216 2.1-.648v.948c-.288.2-.624.36-1.008.48-.384.112-.78.168-1.188.168Zm-.276-5.532c-.456 0-.848.14-1.176.42-.328.28-.536.704-.624 1.272h3.348c.024-.536-.1-.952-.372-1.248-.272-.296-.664-.444-1.176-.444Zm6.519-3.192h1.128V582h-1.128v-8.604Zm3.129 0h2.748c.976 0 1.732.204 2.268.612.544.4.816 1.028.816 1.884 0 .648-.136 1.176-.408 1.584a2.312 2.312 0 0 1-1.116.9c-.472.184-1.024.276-1.656.276h-1.524V582h-1.128v-8.604Zm2.652 4.236c.608 0 1.1-.132 1.476-.396.376-.264.564-.708.564-1.332 0-.52-.168-.896-.504-1.128-.336-.232-.816-.348-1.44-.348h-1.62v3.204h1.524Zm3.663 4.848h-.96l3.456-9.552h.96l-3.456 9.552Zm8.63-1.788h-.504l.012-.012-2.604-5.7V582h-1.068v-8.604h1.572l2.676 6.036 2.796-6.036h1.464V582h-1.14v-6.924l-2.64 5.604-.564.012Zm6.348-7.296h2.748c.976 0 1.732.204 2.268.612.544.4.816 1.028.816 1.884 0 .648-.136 1.176-.408 1.584a2.312 2.312 0 0 1-1.116.9c-.472.184-1.024.276-1.656.276h-1.524V582h-1.128v-8.604Zm2.652 4.236c.608 0 1.1-.132 1.476-.396.376-.264.564-.708.564-1.332 0-.52-.168-.896-.504-1.128-.336-.232-.816-.348-1.44-.348h-1.62v3.204h1.524Zm4.672-4.236h1.128v7.584h4.188V582H234.5v-8.604Zm9.267 8.724a6.009 6.009 0 0 1-1.692-.228c-.512-.16-.904-.368-1.176-.624v-1.08c.2.176.456.332.768.468.32.136.664.244 1.032.324.368.08.724.12 1.068.12.648 0 1.148-.124 1.5-.372.36-.248.54-.6.54-1.056 0-.272-.056-.492-.168-.66-.104-.176-.304-.328-.6-.456-.288-.128-.708-.26-1.26-.396-.72-.184-1.284-.388-1.692-.612-.408-.224-.696-.488-.864-.792-.168-.312-.252-.68-.252-1.104 0-.768.272-1.352.816-1.752.544-.408 1.328-.612 2.352-.612.448 0 .86.044 1.236.132.376.088.748.224 1.116.408v1.08c-.6-.4-1.384-.6-2.352-.6-1.368 0-2.052.432-2.052 1.296 0 .376.14.672.42.888.288.216.796.408 1.524.576.752.168 1.34.364 1.764.588.424.224.724.496.9.816.184.312.276.696.276 1.152 0 .776-.284 1.388-.852 1.836-.568.44-1.352.66-2.352.66Zm73.973-38c-.848 0-1.592-.176-2.232-.528a3.683 3.683 0 0 1-1.476-1.512c-.352-.664-.528-1.456-.528-2.376 0-1.384.364-2.464 1.092-3.24.728-.784 1.768-1.176 3.12-1.176.504 0 .984.056 1.44.168a3.76 3.76 0 0 1 1.176.456v1.08a4.28 4.28 0 0 0-1.212-.504 5.54 5.54 0 0 0-1.416-.18c-1.008 0-1.756.284-2.244.852-.488.568-.732 1.416-.732 2.544 0 1.136.264 1.988.792 2.556.528.56 1.3.84 2.316.84.96 0 1.792-.264 2.496-.792v1.08c-.28.224-.652.404-1.116.54a5.528 5.528 0 0 1-1.476.192Zm4.175-8.724h1.056V544h-1.056v-8.604Zm5.333 8.724c-.568 0-1.08-.124-1.536-.372a2.784 2.784 0 0 1-1.068-1.104c-.264-.488-.396-1.076-.396-1.764s.132-1.272.396-1.752.62-.844 1.068-1.092a3.083 3.083 0 0 1 1.536-.384c.576 0 1.092.128 1.548.384a2.68 2.68 0 0 1 1.08 1.092c.264.48.396 1.064.396 1.752s-.132 1.276-.396 1.764a2.76 2.76 0 0 1-1.08 1.104 3.187 3.187 0 0 1-1.548.372Zm0-.948c.56 0 1.024-.184 1.392-.552.368-.376.552-.956.552-1.74s-.184-1.36-.552-1.728c-.368-.376-.832-.564-1.392-.564-.552 0-1.012.188-1.38.564-.36.368-.54.944-.54 1.728s.18 1.364.54 1.74c.368.368.828.552 1.38.552Zm8.307-.288a2.257 2.257 0 0 1-.78.876c-.344.24-.796.36-1.356.36-.576 0-1.044-.164-1.404-.492-.352-.328-.528-.828-.528-1.5v-4.356h1.068v4.356c0 .408.112.684.336.828.224.144.5.216.828.216.464 0 .836-.104 1.116-.312.28-.208.52-.492.72-.852v-4.236h1.056V544h-.936l-.096-1.116h-.024Zm2.345-2.004c0-.728.128-1.328.384-1.8.256-.48.596-.836 1.02-1.068.432-.24.9-.36 1.404-.36.472 0 .88.1 1.224.3.344.192.62.468.828.828v-3.384h1.056V544h-.924l-.084-1.224a2.46 2.46 0 0 1-.816.984c-.344.24-.776.36-1.296.36-.496 0-.96-.116-1.392-.348-.424-.24-.764-.6-1.02-1.08-.256-.48-.384-1.084-.384-1.812Zm4.872 0c0-.776-.184-1.352-.552-1.728a1.838 1.838 0 0 0-1.368-.564c-.544 0-.992.196-1.344.588-.352.384-.528.952-.528 1.704 0 .76.176 1.332.528 1.716.352.384.8.576 1.344.576s1-.188 1.368-.564c.368-.376.552-.952.552-1.728Zm5.314-5.484h1.128V544h-1.128v-8.604Zm5.937 3.192c-.48 0-.872.112-1.176.336a2.455 2.455 0 0 0-.72.84V544h-1.056v-6.228h.996l.036 1.116h.024c.168-.352.432-.644.792-.876.36-.24.816-.36 1.368-.36.616 0 1.104.164 1.464.492.368.328.552.824.552 1.488V544h-1.056v-4.26c0-.424-.112-.72-.336-.888-.216-.176-.512-.264-.888-.264Zm3.446.084v-.9h.744v-1.308h1.056v1.308h1.812v.9h-1.812v3.744c0 .264.068.456.204.576.136.12.368.18.696.18.312 0 .596-.088.852-.264v.96a1.48 1.48 0 0 1-.504.18 2.767 2.767 0 0 1-.624.072c-.4 0-.724-.076-.972-.228a1.36 1.36 0 0 1-.54-.588 1.767 1.767 0 0 1-.168-.756v-3.876h-.744Zm7.542 5.448c-1.04 0-1.836-.284-2.388-.852-.544-.576-.816-1.372-.816-2.388 0-.68.128-1.26.384-1.74s.608-.848 1.056-1.104a2.993 2.993 0 0 1 1.512-.384c.952 0 1.652.316 2.1.948.448.624.592 1.48.432 2.568h-4.392c.088 1.336.824 2.004 2.208 2.004.76 0 1.46-.216 2.1-.648v.948c-.288.2-.624.36-1.008.48-.384.112-.78.168-1.188.168Zm-.276-5.532c-.456 0-.848.14-1.176.42-.328.28-.536.704-.624 1.272h3.348c.024-.536-.1-.952-.372-1.248-.272-.296-.664-.444-1.176-.444Zm6.963.24c-.496.04-.92.164-1.272.372a1.87 1.87 0 0 0-.756.84V544h-1.056v-6.228h.924l.108 1.356h.024c.2-.416.472-.752.816-1.008a2.553 2.553 0 0 1 1.212-.468v1.176Zm3.67 5.292c-.968 0-1.732-.284-2.292-.852-.56-.576-.84-1.372-.84-2.388 0-1.016.284-1.808.852-2.376.568-.568 1.344-.852 2.328-.852.376 0 .728.044 1.056.132.328.08.592.2.792.36v.948a3.423 3.423 0 0 0-1.836-.504c-.72 0-1.252.192-1.596.576-.344.376-.516.948-.516 1.716s.164 1.344.492 1.728c.336.376.856.564 1.56.564.68 0 1.312-.164 1.896-.492v.948c-.52.328-1.152.492-1.896.492Zm5.74 0c-.568 0-1.08-.124-1.536-.372a2.784 2.784 0 0 1-1.068-1.104c-.264-.488-.396-1.076-.396-1.764s.132-1.272.396-1.752.62-.844 1.068-1.092a3.083 3.083 0 0 1 1.536-.384c.576 0 1.092.128 1.548.384a2.68 2.68 0 0 1 1.08 1.092c.264.48.396 1.064.396 1.752s-.132 1.276-.396 1.764a2.76 2.76 0 0 1-1.08 1.104 3.187 3.187 0 0 1-1.548.372Zm0-.948c.56 0 1.024-.184 1.392-.552.368-.376.552-.956.552-1.74s-.184-1.36-.552-1.728c-.368-.376-.832-.564-1.392-.564-.552 0-1.012.188-1.38.564-.36.368-.54.944-.54 1.728s.18 1.364.54 1.74c.368.368.828.552 1.38.552Zm7.263-4.584c-.48 0-.872.112-1.176.336a2.455 2.455 0 0 0-.72.84V544h-1.056v-6.228h.996l.036 1.116h.024c.168-.352.432-.644.792-.876.36-.24.816-.36 1.368-.36.616 0 1.104.164 1.464.492.368.328.552.824.552 1.488V544h-1.056v-4.26c0-.424-.112-.72-.336-.888-.216-.176-.512-.264-.888-.264Zm6.902 0c-.48 0-.872.112-1.176.336a2.455 2.455 0 0 0-.72.84V544h-1.056v-6.228h.996l.036 1.116h.024c.168-.352.432-.644.792-.876.36-.24.816-.36 1.368-.36.616 0 1.104.164 1.464.492.368.328.552.824.552 1.488V544h-1.056v-4.26c0-.424-.112-.72-.336-.888-.216-.176-.512-.264-.888-.264Zm6.71 5.532c-1.04 0-1.836-.284-2.388-.852-.544-.576-.816-1.372-.816-2.388 0-.68.128-1.26.384-1.74s.608-.848 1.056-1.104a2.993 2.993 0 0 1 1.512-.384c.952 0 1.652.316 2.1.948.448.624.592 1.48.432 2.568h-4.392c.088 1.336.824 2.004 2.208 2.004.76 0 1.46-.216 2.1-.648v.948c-.288.2-.624.36-1.008.48-.384.112-.78.168-1.188.168Zm-.276-5.532c-.456 0-.848.14-1.176.42-.328.28-.536.704-.624 1.272h3.348c.024-.536-.1-.952-.372-1.248-.272-.296-.664-.444-1.176-.444Zm6.568 5.532c-.968 0-1.732-.284-2.292-.852-.56-.576-.84-1.372-.84-2.388 0-1.016.284-1.808.852-2.376.568-.568 1.344-.852 2.328-.852.376 0 .728.044 1.056.132.328.08.592.2.792.36v.948a3.423 3.423 0 0 0-1.836-.504c-.72 0-1.252.192-1.596.576-.344.376-.516.948-.516 1.716s.164 1.344.492 1.728c.336.376.856.564 1.56.564.68 0 1.312-.164 1.896-.492v.948c-.52.328-1.152.492-1.896.492Zm2.737-5.448v-.9h.744v-1.308h1.056v1.308h1.812v.9h-1.812v3.744c0 .264.068.456.204.576.136.12.368.18.696.18.312 0 .596-.088.852-.264v.96a1.48 1.48 0 0 1-.504.18 2.767 2.767 0 0 1-.624.072c-.4 0-.724-.076-.972-.228a1.36 1.36 0 0 1-.54-.588 1.767 1.767 0 0 1-.168-.756v-3.876h-.744Zm-97.004 34.724h1.128V582h-1.128v-8.604Zm5.937 3.192c-.48 0-.872.112-1.176.336a2.455 2.455 0 0 0-.72.84V582h-1.056v-6.228h.996l.036 1.116h.024c.168-.352.432-.644.792-.876.36-.24.816-.36 1.368-.36.616 0 1.104.164 1.464.492.368.328.552.824.552 1.488V582h-1.056v-4.26c0-.424-.112-.72-.336-.888-.216-.176-.512-.264-.888-.264Zm3.446.084v-.9h.744v-1.308h1.056v1.308h1.812v.9h-1.812v3.744c0 .264.068.456.204.576.136.12.368.18.696.18.312 0 .596-.088.852-.264v.96a1.48 1.48 0 0 1-.504.18 2.767 2.767 0 0 1-.624.072c-.4 0-.724-.076-.972-.228a1.36 1.36 0 0 1-.54-.588 1.767 1.767 0 0 1-.168-.756v-3.876h-.744Zm7.542 5.448c-1.04 0-1.836-.284-2.388-.852-.544-.576-.816-1.372-.816-2.388 0-.68.128-1.26.384-1.74s.608-.848 1.056-1.104a2.993 2.993 0 0 1 1.512-.384c.952 0 1.652.316 2.1.948.448.624.592 1.48.432 2.568h-4.392c.088 1.336.824 2.004 2.208 2.004.76 0 1.46-.216 2.1-.648v.948c-.288.2-.624.36-1.008.48-.384.112-.78.168-1.188.168Zm-.276-5.532c-.456 0-.848.14-1.176.42-.328.28-.536.704-.624 1.272h3.348c.024-.536-.1-.952-.372-1.248-.272-.296-.664-.444-1.176-.444Zm6.963.24c-.496.04-.92.164-1.272.372a1.87 1.87 0 0 0-.756.84V582h-1.056v-6.228h.924l.108 1.356h.024c.2-.416.472-.752.816-1.008a2.553 2.553 0 0 1 1.212-.468v1.176Zm4.239-.24c-.48 0-.872.112-1.176.336a2.455 2.455 0 0 0-.72.84V582h-1.056v-6.228h.996l.036 1.116h.024c.168-.352.432-.644.792-.876.36-.24.816-.36 1.368-.36.616 0 1.104.164 1.464.492.368.328.552.824.552 1.488V582h-1.056v-4.26c0-.424-.112-.72-.336-.888-.216-.176-.512-.264-.888-.264Zm6.71 5.532c-1.04 0-1.836-.284-2.388-.852-.544-.576-.816-1.372-.816-2.388 0-.68.128-1.26.384-1.74s.608-.848 1.056-1.104a2.993 2.993 0 0 1 1.512-.384c.952 0 1.652.316 2.1.948.448.624.592 1.48.432 2.568h-4.392c.088 1.336.824 2.004 2.208 2.004.76 0 1.46-.216 2.1-.648v.948c-.288.2-.624.36-1.008.48-.384.112-.78.168-1.188.168Zm-.276-5.532c-.456 0-.848.14-1.176.42-.328.28-.536.704-.624 1.272h3.348c.024-.536-.1-.952-.372-1.248-.272-.296-.664-.444-1.176-.444Zm3.376.084v-.9h.744v-1.308h1.056v1.308h1.812v.9h-1.812v3.744c0 .264.068.456.204.576.136.12.368.18.696.18.312 0 .596-.088.852-.264v.96a1.48 1.48 0 0 1-.504.18 2.767 2.767 0 0 1-.624.072c-.4 0-.724-.076-.972-.228a1.36 1.36 0 0 1-.54-.588 1.767 1.767 0 0 1-.168-.756v-3.876h-.744Zm7.503-3.276h2.748c.976 0 1.732.204 2.268.612.544.4.816 1.028.816 1.884 0 .648-.136 1.176-.408 1.584a2.312 2.312 0 0 1-1.116.9c-.472.184-1.024.276-1.656.276H360.3V582h-1.128v-8.604Zm2.652 4.236c.608 0 1.1-.132 1.476-.396.376-.264.564-.708.564-1.332 0-.52-.168-.896-.504-1.128-.336-.232-.816-.348-1.44-.348h-1.62v3.204h1.524Zm6.984 4.488c-1.04 0-1.836-.284-2.388-.852-.544-.576-.816-1.372-.816-2.388 0-.68.128-1.26.384-1.74s.608-.848 1.056-1.104a2.993 2.993 0 0 1 1.512-.384c.952 0 1.652.316 2.1.948.448.624.592 1.48.432 2.568h-4.392c.088 1.336.824 2.004 2.208 2.004.76 0 1.46-.216 2.1-.648v.948c-.288.2-.624.36-1.008.48-.384.112-.78.168-1.188.168Zm-.276-5.532c-.456 0-.848.14-1.176.42-.328.28-.536.704-.624 1.272h3.348c.024-.536-.1-.952-.372-1.248-.272-.296-.664-.444-1.176-.444Zm6.639 5.532c-1.04 0-1.836-.284-2.388-.852-.544-.576-.816-1.372-.816-2.388 0-.68.128-1.26.384-1.74s.608-.848 1.056-1.104a2.993 2.993 0 0 1 1.512-.384c.952 0 1.652.316 2.1.948.448.624.592 1.48.432 2.568h-4.392c.088 1.336.824 2.004 2.208 2.004.76 0 1.46-.216 2.1-.648v.948c-.288.2-.624.36-1.008.48-.384.112-.78.168-1.188.168Zm-.276-5.532c-.456 0-.848.14-1.176.42-.328.28-.536.704-.624 1.272h3.348c.024-.536-.1-.952-.372-1.248-.272-.296-.664-.444-1.176-.444Zm6.963.24c-.496.04-.92.164-1.272.372a1.87 1.87 0 0 0-.756.84V582h-1.056v-6.228h.924l.108 1.356h.024c.2-.416.472-.752.816-1.008a2.553 2.553 0 0 1 1.212-.468v1.176Zm1.827-1.968c-.216 0-.388-.064-.516-.192a.692.692 0 0 1-.192-.492.675.675 0 0 1 .708-.696c.208 0 .372.068.492.204.12.136.18.3.18.492s-.06.356-.18.492c-.12.128-.284.192-.492.192Zm-.54.912h1.056V582h-1.056v-6.228Zm5.73.816c-.48 0-.872.112-1.176.336a2.455 2.455 0 0 0-.72.84V582h-1.056v-6.228h.996l.036 1.116h.024c.168-.352.432-.644.792-.876.36-.24.816-.36 1.368-.36.616 0 1.104.164 1.464.492.368.328.552.824.552 1.488V582h-1.056v-4.26c0-.424-.112-.72-.336-.888-.216-.176-.512-.264-.888-.264Zm4.022 7.044v-.948c.336.184.672.316 1.008.396.336.08.72.12 1.152.12.768 0 1.304-.148 1.608-.444.304-.288.456-.712.456-1.272v-.96a2.265 2.265 0 0 1-.78.888c-.328.224-.736.336-1.224.336s-.944-.112-1.368-.336a2.63 2.63 0 0 1-1.008-1.02c-.248-.448-.372-1.008-.372-1.68 0-.68.124-1.244.372-1.692.256-.456.592-.796 1.008-1.02a2.853 2.853 0 0 1 1.392-.348c.496 0 .912.112 1.248.336.344.224.612.528.804.912l.012-.132c0-.144.008-.316.024-.516.016-.208.032-.368.048-.48h.96a6.754 6.754 0 0 0-.048.48c-.008.208-.012.38-.012.516v4.704c0 .536-.108 1.004-.324 1.404-.208.4-.54.712-.996.936-.456.224-1.06.336-1.812.336-.912 0-1.628-.172-2.148-.516Zm4.236-4.92c0-.712-.176-1.244-.528-1.596-.344-.352-.78-.528-1.308-.528s-.972.176-1.332.528c-.352.352-.528.884-.528 1.596 0 .696.176 1.22.528 1.572.36.344.808.516 1.344.516.52 0 .952-.172 1.296-.516.352-.344.528-.868.528-1.572Z"/>
    <path fill="#000" fill-rule="evenodd" d="M100 532c0 .899-.543 1.851-2.351 2.683C95.836 535.518 93.155 536 90 536c-3.155 0-5.836-.482-7.649-1.317C80.543 533.851 80 532.899 80 532c0-.112.008-.226.027-.339.129-.796.742-1.616 2.324-2.344C84.164 528.482 86.845 528 90 528c3.155 0 5.836.482 7.649 1.317 1.808.832 2.351 1.784 2.351 2.683Zm0 3.62c-2.15 1.587-5.826 2.38-10 2.38s-7.85-.793-10-2.38V548c0 .899.543 1.851 2.351 2.683C84.164 551.518 86.845 552 90 552c3.155 0 5.836-.482 7.649-1.317 1.808-.832 2.351-1.784 2.351-2.683v-12.38ZM90 526c6.627 0 12 2 12 6v16c0 4-5.373 6-12 6s-12-2-12-6v-16c0-.5.084-.969.244-1.406C79.363 527.531 84.2 526 90 526Zm-7.053 52.838H76a1 1 0 0 1 0-2h6.947l-3.177-3.177a1 1 0 1 1 1.414-1.414l4.884 4.884a1.001 1.001 0 0 1 0 1.414l-4.884 4.884a1 1 0 1 1-1.414-1.414l3.177-3.177Zm14.189-2h6.947a1 1 0 0 1 0 2h-6.947l3.177 3.177a.999.999 0 1 1-1.414 1.414l-4.884-4.884a.999.999 0 0 1 0-1.414l4.884-4.884a.999.999 0 1 1 1.414 1.414l-3.177 3.177Z" clip-rule="evenodd"/>
    <path stroke="#000" stroke-linecap="round" stroke-linejoin="round" stroke-width="2" d="M89.838 591.676V564m-4.884 4.884L89.838 564l4.884 4.884m0 17.908-4.884 4.884-4.884-4.884"/>
    <rect width="32" height="32" x="271" y="524" fill="#5282FF" rx="16"/>
    <path fill="#fff" fill-rule="evenodd" d="M281.999 546.435v-1.871c0-.312.254-.565.566-.565h.434v-1.462l-.001-.037v-.001a.48.48 0 0 1 .176-.363.455.455 0 0 1 .325-.137h.002l.025.001.037-.001h3.436v-1h-5.501c-1.378 0-2.498-.999-2.498-2.499 0-1.379 1.292-2.5 2.67-2.5h.379a2.504 2.504 0 0 1 3.23-1.876 3.502 3.502 0 0 1 6.686 1.876h.536a2.5 2.5 0 0 1 2.498 2.499v.001a2.5 2.5 0 0 1-2.498 2.499H288v1h3.433l.037.001.028-.001h.001c.051 0 .1.009.326.144l.004.001a.458.458 0 0 1 .169.355v.001l-.001.024a.407.407 0 0 1 .002.04v1.435h.435c.312 0 .565.253.565.565v1.871a.565.565 0 0 1-.565.565h-1.87a.566.566 0 0 1-.566-.565v-1.871c0-.312.254-.565.566-.565h.434V543H288v.999h.435c.311 0 .565.253.565.565v1.871a.566.566 0 0 1-.565.565h-1.871a.565.565 0 0 1-.565-.565v-1.871c0-.312.253-.565.565-.565h.435V543h-2.998v.999h.434c.312 0 .565.253.565.565v1.871a.565.565 0 0 1-.565.565h-1.87a.566.566 0 0 1-.566-.565Zm9.83-4.29-.004-.002c-.02-.019-.007-.008.006.004-.013-.015-.014-.018-.002-.002Zm0 0c-.122-.092-.064-.054.002 0-.026-.021-.033-.026-.002 0Z" clip-rule="evenodd"/>
    <path fill="#5282FF" fill-rule="evenodd" d="M290.316 587.128C289.265 589.295 288.058 590 287 590c-1.058 0-2.265-.705-3.316-2.872-.874-1.805-1.471-4.343-1.637-7.378 1.588.163 3.247.25 4.953.25 1.706 0 3.365-.087 4.953-.25-.166 3.035-.763 5.573-1.637 7.378Zm1.683-9.394A46.305 46.305 0 0 1 287 578c-1.734 0-3.41-.093-4.999-.266.029-3.694.67-6.77 1.683-8.862 1.05-2.166 2.257-2.871 3.315-2.872H287c1.058 0 2.265.705 3.316 2.872 1.013 2.092 1.654 5.168 1.683 8.862Zm1.969 1.761c-.174 4.002-1.052 7.4-2.483 9.639 4.293-1.731 7.355-5.873 7.509-10.748a35.983 35.983 0 0 1-5.026 1.109Zm4.916-3.171c-1.458.472-3.104.86-4.888 1.143-.067-4.418-.966-8.184-2.511-10.601 3.909 1.576 6.797 5.151 7.399 9.458Zm-18.88 1.143c.067-4.418.966-8.184 2.511-10.601-3.909 1.576-6.797 5.151-7.399 9.458 1.458.472 3.104.86 4.888 1.143Zm-4.998.919c.154 4.875 3.216 9.017 7.509 10.748-1.431-2.239-2.309-5.637-2.483-9.639a35.983 35.983 0 0 1-5.026-1.109ZM301 578c0-7.732-6.268-14-14-14s-14 6.268-14 14 6.268 14 14 14 14-6.268 14-14Z" clip-rule="evenodd"/>
    <path stroke="#5282FF" stroke-linecap="round" stroke-linejoin="round" stroke-width="2" d="M232 275.65c0 28.36 22.99 51.35 51.35 51.35h142.2c23.997 0 43.45-19.453 43.45-43.45 0-22.665-17.354-41.277-39.5-43.273v-.177c0-39.267-31.833-71.1-71.1-71.1-33.946 0-62.336 23.79-69.407 55.607a51.808 51.808 0 0 0-5.643-.307c-28.36 0-51.35 22.99-51.35 51.35Z" clip-rule="evenodd"/>
    <path fill="#000" d="M305.76 252.44v-1.044h6.444v1.044h-2.652V260h-1.14v-7.56h-2.652Zm6.95 1.332h.924l.108 1.212c.2-.4.476-.72.828-.96.36-.248.8-.372 1.32-.372.488 0 .936.12 1.344.36.416.232.752.588 1.008 1.068.256.472.384 1.072.384 1.8s-.132 1.332-.396 1.812c-.256.48-.596.84-1.02 1.08a2.761 2.761 0 0 1-1.368.348c-.472 0-.884-.112-1.236-.336a2.408 2.408 0 0 1-.84-.924v3.264h-1.056v-8.352Zm4.824 3.108c0-.752-.172-1.32-.516-1.704-.344-.392-.788-.588-1.332-.588s-1.004.192-1.38.576c-.368.376-.552.948-.552 1.716 0 .776.184 1.352.552 1.728.376.376.836.564 1.38.564.544 0 .988-.192 1.332-.576.344-.384.516-.956.516-1.716Zm4.424-2.292c-.664 0-1.336.204-2.016.612v-.948a3.804 3.804 0 0 1 1.02-.432 4.142 4.142 0 0 1 1.14-.168c.784 0 1.38.164 1.788.492.408.328.612.828.612 1.5v3.348c0 .136.004.312.012.528.016.208.032.368.048.48h-.96a5.482 5.482 0 0 1-.072-.468 7.173 7.173 0 0 1-.024-.54l-.012-.18a3.359 3.359 0 0 1-.396.6c-.168.2-.392.368-.672.504-.272.136-.612.204-1.02.204-.56 0-1.012-.16-1.356-.48-.344-.32-.516-.772-.516-1.356 0-.68.24-1.18.72-1.5.48-.32 1.156-.48 2.028-.48h1.164v-.516c0-.432-.112-.74-.336-.924-.224-.184-.608-.276-1.152-.276Zm1.488 3.012v-.456h-1.056c-.632 0-1.092.092-1.38.276-.28.184-.42.452-.42.804 0 .28.084.508.252.684.176.176.44.264.792.264.328 0 .608-.064.84-.192.232-.136.42-.296.564-.48.144-.192.248-.372.312-.54.064-.168.096-.288.096-.36Zm3.773-3.828v2.568h3.012v-2.568h1.056V260h-1.056v-2.76h-3.012V260h-1.056v-6.228h1.056Zm8.487 6.348c-.968 0-1.732-.284-2.292-.852-.56-.576-.84-1.372-.84-2.388 0-1.016.284-1.808.852-2.376.568-.568 1.344-.852 2.328-.852.376 0 .728.044 1.056.132.328.08.592.2.792.36v.948a3.423 3.423 0 0 0-1.836-.504c-.72 0-1.252.192-1.596.576-.344.376-.516.948-.516 1.716s.164 1.344.492 1.728c.336.376.856.564 1.56.564.68 0 1.312-.164 1.896-.492v.948c-.52.328-1.152.492-1.896.492Zm3.312-.12v-6.228h4.992V260h-1.056v-5.328h-2.88V260h-1.056Zm9.271.12c-.568 0-1.08-.124-1.536-.372a2.784 2.784 0 0 1-1.068-1.104c-.264-.488-.396-1.076-.396-1.764s.132-1.272.396-1.752.62-.844 1.068-1.092a3.083 3.083 0 0 1 1.536-.384c.576 0 1.092.128 1.548.384a2.68 2.68 0 0 1 1.08 1.092c.264.48.396 1.064.396 1.752s-.132 1.276-.396 1.764a2.76 2.76 0 0 1-1.08 1.104 3.187 3.187 0 0 1-1.548.372Zm0-.948c.56 0 1.024-.184 1.392-.552.368-.376.552-.956.552-1.74s-.184-1.36-.552-1.728c-.368-.376-.832-.564-1.392-.564-.552 0-1.012.188-1.38.564-.36.368-.54.944-.54 1.728s.18 1.364.54 1.74c.368.368.828.552 1.38.552Zm4.311-5.4h.924l.108 1.212c.2-.4.476-.72.828-.96.36-.248.8-.372 1.32-.372.488 0 .936.12 1.344.36.416.232.752.588 1.008 1.068.256.472.384 1.072.384 1.8s-.132 1.332-.396 1.812c-.256.48-.596.84-1.02 1.08a2.761 2.761 0 0 1-1.368.348c-.472 0-.884-.112-1.236-.336a2.408 2.408 0 0 1-.84-.924v3.264H352.6v-8.352Zm4.824 3.108c0-.752-.172-1.32-.516-1.704-.344-.392-.788-.588-1.332-.588s-1.004.192-1.38.576c-.368.376-.552.948-.552 1.716 0 .776.184 1.352.552 1.728.376.376.836.564 1.38.564.544 0 .988-.192 1.332-.576.344-.384.516-.956.516-1.716Zm1.75-3.108h5.004v.9h-1.992V260h-1.056v-5.328h-1.956v-.9Zm7.279 0v2.568h3.012v-2.568h1.056V260h-1.056v-2.76h-3.012V260h-1.056v-6.228h1.056Zm7.912.816c-.664 0-1.336.204-2.016.612v-.948a3.804 3.804 0 0 1 1.02-.432 4.142 4.142 0 0 1 1.14-.168c.784 0 1.38.164 1.788.492.408.328.612.828.612 1.5v3.348c0 .136.004.312.012.528.016.208.032.368.048.48h-.96a5.482 5.482 0 0 1-.072-.468 7.173 7.173 0 0 1-.024-.54l-.012-.18a3.359 3.359 0 0 1-.396.6c-.168.2-.392.368-.672.504-.272.136-.612.204-1.02.204-.56 0-1.012-.16-1.356-.48-.344-.32-.516-.772-.516-1.356 0-.68.24-1.18.72-1.5.48-.32 1.156-.48 2.028-.48h1.164v-.516c0-.432-.112-.74-.336-.924-.224-.184-.608-.276-1.152-.276Zm1.488 3.012v-.456h-1.056c-.632 0-1.092.092-1.38.276-.28.184-.42.452-.42.804 0 .28.084.508.252.684.176.176.44.264.792.264.328 0 .608-.064.84-.192.232-.136.42-.296.564-.48.144-.192.248-.372.312-.54.064-.168.096-.288.096-.36Zm2.272 2.4 1.8-2.52c-.424-.12-.756-.316-.996-.588-.24-.272-.36-.64-.36-1.104 0-.472.112-.856.336-1.152.224-.296.532-.512.924-.648.392-.144.84-.216 1.344-.216h2.004V260h-1.056v-2.256h-1.14L379.385 260h-1.26Zm3.048-5.328c-.448 0-.816.084-1.104.252-.288.168-.432.44-.432.816 0 .392.128.676.384.852.264.168.628.252 1.092.252h1.008v-2.172h-.948Zm8.826 5.448c-.968 0-1.732-.284-2.292-.852-.56-.576-.84-1.372-.84-2.388 0-1.016.284-1.808.852-2.376.568-.568 1.344-.852 2.328-.852.376 0 .728.044 1.056.132.328.08.592.2.792.36v.948a3.423 3.423 0 0 0-1.836-.504c-.72 0-1.252.192-1.596.576-.344.376-.516.948-.516 1.716s.164 1.344.492 1.728c.336.376.856.564 1.56.564.68 0 1.312-.164 1.896-.492v.948c-.52.328-1.152.492-1.896.492Zm6.072 0c-1.04 0-1.836-.284-2.388-.852-.544-.576-.816-1.372-.816-2.388 0-.68.128-1.26.384-1.74s.608-.848 1.056-1.104a2.993 2.993 0 0 1 1.512-.384c.952 0 1.652.316 2.1.948.448.624.592 1.48.432 2.568h-4.392c.088 1.336.824 2.004 2.208 2.004.76 0 1.46-.216 2.1-.648v.948c-.288.2-.624.36-1.008.48-.384.112-.78.168-1.188.168Zm-.276-5.532c-.456 0-.848.14-1.176.42-.328.28-.536.704-.624 1.272h3.348c.024-.536-.1-.952-.372-1.248-.272-.296-.664-.444-1.176-.444Zm3.411-.816h5.004v.9h-1.992V260h-1.056v-5.328h-1.956v-.9Zm7.242 0v2.1h1.14c.792 0 1.412.16 1.86.48.448.312.672.824.672 1.536 0 .488-.112.888-.336 1.2a1.99 1.99 0 0 1-.924.696c-.392.144-.84.216-1.344.216h-2.124v-6.228h1.056Zm1.068 5.328c.456 0 .824-.088 1.104-.264.288-.184.432-.48.432-.888 0-.416-.128-.716-.384-.9-.256-.184-.616-.276-1.08-.276h-1.14v2.328h1.068Zm-79.1 6.296-2.916 4.872V274h-1.152v-3.696l-2.94-4.908h1.296l2.256 3.912 2.304-3.912h1.152Zm2.56 3.192c-.664 0-1.336.204-2.016.612v-.948a3.804 3.804 0 0 1 1.02-.432 4.142 4.142 0 0 1 1.14-.168c.784 0 1.38.164 1.788.492.408.328.612.828.612 1.5v3.348c0 .136.004.312.012.528.016.208.032.368.048.48h-.96a5.482 5.482 0 0 1-.072-.468 7.173 7.173 0 0 1-.024-.54l-.012-.18a3.359 3.359 0 0 1-.396.6c-.168.2-.392.368-.672.504-.272.136-.612.204-1.02.204-.56 0-1.012-.16-1.356-.48-.344-.32-.516-.772-.516-1.356 0-.68.24-1.18.72-1.5.48-.32 1.156-.48 2.028-.48h1.164v-.516c0-.432-.112-.74-.336-.924-.224-.184-.608-.276-1.152-.276Zm1.488 3.012v-.456h-1.056c-.632 0-1.092.092-1.38.276-.28.184-.42.452-.42.804 0 .28.084.508.252.684.176.176.44.264.792.264.328 0 .608-.064.84-.192.232-.136.42-.296.564-.48.144-.192.248-.372.312-.54.064-.168.096-.288.096-.36Zm5.668-3.012c-.48 0-.872.112-1.176.336a2.455 2.455 0 0 0-.72.84V274h-1.056v-6.228h.996l.036 1.116h.024c.168-.352.432-.644.792-.876.36-.24.816-.36 1.368-.36.616 0 1.104.164 1.464.492.368.328.552.824.552 1.488V274h-1.056v-4.26c0-.424-.112-.72-.336-.888-.216-.176-.512-.264-.888-.264Zm3.507 2.292c0-.728.128-1.328.384-1.8.256-.48.596-.836 1.02-1.068.432-.24.9-.36 1.404-.36.472 0 .88.1 1.224.3.344.192.62.468.828.828v-3.384h1.056V274h-.924l-.084-1.224a2.46 2.46 0 0 1-.816.984c-.344.24-.776.36-1.296.36-.496 0-.96-.116-1.392-.348-.424-.24-.764-.6-1.02-1.08-.256-.48-.384-1.084-.384-1.812Zm4.872 0c0-.776-.184-1.352-.552-1.728a1.838 1.838 0 0 0-1.368-.564c-.544 0-.992.196-1.344.588-.352.384-.528.952-.528 1.704 0 .76.176 1.332.528 1.716.352.384.8.576 1.344.576s1-.188 1.368-.564c.368-.376.552-.952.552-1.728Zm5.527 3.24c-1.04 0-1.836-.284-2.388-.852-.544-.576-.816-1.372-.816-2.388 0-.68.128-1.26.384-1.74s.608-.848 1.056-1.104a2.993 2.993 0 0 1 1.512-.384c.952 0 1.652.316 2.1.948.448.624.592 1.48.432 2.568h-4.392c.088 1.336.824 2.004 2.208 2.004.76 0 1.46-.216 2.1-.648v.948c-.288.2-.624.36-1.008.48-.384.112-.78.168-1.188.168Zm-.276-5.532c-.456 0-.848.14-1.176.42-.328.28-.536.704-.624 1.272h3.348c.024-.536-.1-.952-.372-1.248-.272-.296-.664-.444-1.176-.444Zm3.401-.816h1.224l1.488 2.196 1.5-2.196h1.092l-2.064 2.976 2.172 3.252h-1.224l-1.668-2.472-1.68 2.472h-1.104l2.256-3.228-1.992-3Zm12.733 6.348c-.848 0-1.592-.176-2.232-.528a3.683 3.683 0 0 1-1.476-1.512c-.352-.664-.528-1.456-.528-2.376 0-1.384.364-2.464 1.092-3.24.728-.784 1.768-1.176 3.12-1.176.504 0 .984.056 1.44.168a3.76 3.76 0 0 1 1.176.456v1.08a4.28 4.28 0 0 0-1.212-.504 5.54 5.54 0 0 0-1.416-.18c-1.008 0-1.756.284-2.244.852-.488.568-.732 1.416-.732 2.544 0 1.136.264 1.988.792 2.556.528.56 1.3.84 2.316.84.96 0 1.792-.264 2.496-.792v1.08c-.28.224-.652.404-1.116.54a5.528 5.528 0 0 1-1.476.192Zm4.175-8.724h1.056V274h-1.056v-8.604Zm5.333 8.724c-.568 0-1.08-.124-1.536-.372a2.784 2.784 0 0 1-1.068-1.104c-.264-.488-.396-1.076-.396-1.764s.132-1.272.396-1.752.62-.844 1.068-1.092a3.083 3.083 0 0 1 1.536-.384c.576 0 1.092.128 1.548.384a2.68 2.68 0 0 1 1.08 1.092c.264.48.396 1.064.396 1.752s-.132 1.276-.396 1.764a2.76 2.76 0 0 1-1.08 1.104 3.187 3.187 0 0 1-1.548.372Zm0-.948c.56 0 1.024-.184 1.392-.552.368-.376.552-.956.552-1.74s-.184-1.36-.552-1.728c-.368-.376-.832-.564-1.392-.564-.552 0-1.012.188-1.38.564-.36.368-.54.944-.54 1.728s.18 1.364.54 1.74c.368.368.828.552 1.38.552Zm8.308-.288a2.257 2.257 0 0 1-.78.876c-.344.24-.796.36-1.356.36-.576 0-1.044-.164-1.404-.492-.352-.328-.528-.828-.528-1.5v-4.356h1.068v4.356c0 .408.112.684.336.828.224.144.5.216.828.216.464 0 .836-.104 1.116-.312.28-.208.52-.492.72-.852v-4.236h1.056V274h-.936l-.096-1.116h-.024Zm2.345-2.004c0-.728.128-1.328.384-1.8.256-.48.596-.836 1.02-1.068.432-.24.9-.36 1.404-.36.472 0 .88.1 1.224.3.344.192.62.468.828.828v-3.384h1.056V274h-.924l-.084-1.224a2.46 2.46 0 0 1-.816.984c-.344.24-.776.36-1.296.36-.496 0-.96-.116-1.392-.348-.424-.24-.764-.6-1.02-1.08-.256-.48-.384-1.084-.384-1.812Zm4.872 0c0-.776-.184-1.352-.552-1.728a1.838 1.838 0 0 0-1.368-.564c-.544 0-.992.196-1.344.588-.352.384-.528.952-.528 1.704 0 .76.176 1.332.528 1.716.352.384.8.576 1.344.576s1-.188 1.368-.564c.368-.376.552-.952.552-1.728Z"/>
    <path fill="#000" fill-rule="evenodd" d="M294 296c0 .899-.543 1.851-2.351 2.683-1.813.835-4.494 1.317-7.649 1.317-3.155 0-5.836-.482-7.649-1.317-1.808-.832-2.351-1.784-2.351-2.683 0-.112.008-.226.027-.339.128-.796.742-1.616 2.324-2.344 1.813-.835 4.494-1.317 7.649-1.317 3.155 0 5.836.482 7.649 1.317 1.808.832 2.351 1.784 2.351 2.683Zm0 3.62c-2.15 1.587-5.826 2.38-10 2.38s-7.85-.793-10-2.38V312c0 .899.543 1.851 2.351 2.683 1.813.835 4.494 1.317 7.649 1.317 3.155 0 5.836-.482 7.649-1.317 1.808-.832 2.351-1.784 2.351-2.683v-12.38ZM284 290c6.627 0 12 2 12 6v16c0 4-5.373 6-12 6s-12-2-12-6v-16c0-.5.084-.969.244-1.406C273.363 291.531 278.201 290 284 290Zm27.947 14.838H305a1 1 0 0 1 0-2h6.947l-3.177-3.177a.999.999 0 1 1 1.414-1.414l4.884 4.884a1 1 0 0 1 0 1.414l-4.884 4.884a.999.999 0 1 1-1.414-1.414l3.177-3.177Zm14.189-2h6.947a1 1 0 0 1 0 2h-6.947l3.177 3.177a.999.999 0 1 1-1.414 1.414l-4.884-4.884a.997.997 0 0 1 0-1.414l4.884-4.884a.999.999 0 1 1 1.414 1.414l-3.177 3.177Z" clip-rule="evenodd"/>
    <path stroke="#000" stroke-linecap="round" stroke-linejoin="round" stroke-width="2" d="M318.838 317.676V290m-4.884 4.884 4.884-4.884 4.884 4.884m0 17.908-4.884 4.884-4.884-4.884"/>
    <path fill="#000" fill-rule="evenodd" d="M437.083 296c0 .899-.543 1.851-2.351 2.683-1.813.835-4.494 1.317-7.649 1.317-3.155 0-5.836-.482-7.649-1.317-1.808-.832-2.351-1.784-2.351-2.683 0-.112.009-.226.027-.339.129-.796.742-1.616 2.324-2.344 1.813-.835 4.494-1.317 7.649-1.317 3.155 0 5.836.482 7.649 1.317 1.808.832 2.351 1.784 2.351 2.683Zm0 3.62c-2.15 1.587-5.826 2.38-10 2.38s-7.85-.793-10-2.38V312c0 .899.543 1.851 2.351 2.683 1.813.835 4.494 1.317 7.649 1.317 3.155 0 5.836-.482 7.649-1.317 1.808-.832 2.351-1.784 2.351-2.683v-12.38Zm-10-9.62c6.628 0 12 2 12 6v16c0 4-5.372 6-12 6-6.627 0-12-2-12-6v-16c0-.5.084-.969.244-1.406 1.119-3.063 5.957-4.594 11.756-4.594Zm-42.136 14.838H378a1 1 0 0 1 0-2h6.947l-3.177-3.177a.999.999 0 1 1 1.414-1.414l4.884 4.884a1 1 0 0 1 0 1.414l-4.884 4.884a.999.999 0 1 1-1.414-1.414l3.177-3.177Zm14.189-2h6.947a1 1 0 0 1 0 2h-6.947l3.177 3.177a.999.999 0 1 1-1.414 1.414l-4.884-4.884a.997.997 0 0 1 0-1.414l4.884-4.884a.999.999 0 1 1 1.414 1.414l-3.177 3.177Z" clip-rule="evenodd"/>
    <path stroke="#000" stroke-linecap="round" stroke-linejoin="round" stroke-width="2" d="M391.838 317.676V290m-4.884 4.884 4.884-4.884 4.884 4.884m0 17.908-4.884 4.884-4.884-4.884"/>
    <path fill="#000" fill-rule="evenodd" d="M368 181c0 .899-.543 1.851-2.351 2.683-1.813.835-4.494 1.317-7.649 1.317-3.155 0-5.836-.482-7.649-1.317-1.808-.832-2.351-1.784-2.351-2.683 0-.112.008-.226.027-.339.128-.796.742-1.616 2.324-2.344 1.813-.835 4.494-1.317 7.649-1.317 3.155 0 5.836.482 7.649 1.317 1.808.832 2.351 1.784 2.351 2.683Zm0 3.62c-2.15 1.587-5.826 2.38-10 2.38s-7.85-.793-10-2.38V197c0 .899.543 1.851 2.351 2.683 1.813.835 4.494 1.317 7.649 1.317 3.155 0 5.836-.482 7.649-1.317 1.808-.832 2.351-1.784 2.351-2.683v-12.38ZM358 175c6.627 0 12 2 12 6v16c0 4-5.373 6-12 6s-12-2-12-6v-16c0-.5.084-.969.244-1.406C347.363 176.531 352.201 175 358 175Zm-7.053 48.838H344a1 1 0 0 1 0-2h6.947l-3.177-3.177a.999.999 0 1 1 1.414-1.414l4.884 4.884a1 1 0 0 1 0 1.414l-4.884 4.884a.999.999 0 1 1-1.414-1.414l3.177-3.177Zm14.189-2h6.947a1 1 0 0 1 0 2h-6.947l3.177 3.177a.999.999 0 1 1-1.414 1.414l-4.884-4.884a.997.997 0 0 1 0-1.414l4.884-4.884a.999.999 0 1 1 1.414 1.414l-3.177 3.177Z" clip-rule="evenodd"/>
    <path stroke="#000" stroke-linecap="round" stroke-linejoin="round" stroke-width="2" d="M357.838 236.676V209m-4.884 4.884 4.884-4.884 4.884 4.884m0 17.908-4.884 4.884-4.884-4.884"/>
</svg>
