<svg xmlns="http://www.w3.org/2000/svg" width="24" height="24" fill="currentColor" aria-hidden="true" class="yc-icon"><svg xmlns="http://www.w3.org/2000/svg" viewBox="0 0 24 24"><path d="M11.844 16.156a4 4 0 1 1 0-8 4 4 0 0 1 0 8m6-4c0-.029-.004-.058-.004-.087l1.848-.34-.362-1.968-1.852.342a5.992 5.992 0 0 0-1.454-2.246l1.068-1.55-1.646-1.134-1.07 1.55a5.95 5.95 0 0 0-2.528-.567c-.03 0-.058.004-.087.004l-.341-1.848-1.967.363.34 1.851A5.996 5.996 0 0 0 7.546 7.98l-1.55-1.068L4.86 8.558l1.55 1.07a5.95 5.95 0 0 0-.567 2.528c0 .03.004.058.004.087L4 12.584l.362 1.967 1.852-.342a5.992 5.992 0 0 0 1.454 2.246L6.6 18.005l1.646 1.134 1.069-1.55a5.95 5.95 0 0 0 2.529.567c.029 0 .058-.004.087-.004L12.27 20l1.968-.363-.341-1.85a5.996 5.996 0 0 0 2.245-1.455l1.55 1.068 1.134-1.646-1.55-1.069a5.95 5.95 0 0 0 .567-2.529"/></svg></svg>