<svg xmlns="http://www.w3.org/2000/svg" xmlns:xlink="http://www.w3.org/1999/xlink" width="16" height="16" class="yc-icon" fill="currentColor" stroke="none" aria-hidden="true"><svg viewBox="0 0 16 16" fill="none" xmlns="http://www.w3.org/2000/svg"><path d="M2.719 10.969c-.686 0-1.219.558-1.219 1.219 0 .685.533 1.218 1.219 1.218.66 0 1.219-.533 1.219-1.219 0-.66-.56-1.218-1.22-1.218zm0-4.063c-.686 0-1.219.559-1.219 1.219 0 .686.533 1.219 1.219 1.219.66 0 1.219-.533 1.219-1.219 0-.66-.56-1.219-1.22-1.219zm0-4.062c-.686 0-1.219.558-1.219 1.219 0 .685.533 1.218 1.219 1.218.66 0 1.219-.533 1.219-1.218 0-.66-.56-1.22-1.22-1.22zm11.375.61H5.969a.418.418 0 00-.407.405v.407c0 .228.178.406.407.406h8.125a.418.418 0 00.406-.406v-.407a.437.437 0 00-.406-.406zm0 4.062H5.969a.418.418 0 00-.407.406v.406c0 .229.178.406.407.406h8.125a.418.418 0 00.406-.406v-.406a.437.437 0 00-.406-.406zm0 4.062H5.969a.418.418 0 00-.407.406v.407c0 .228.178.406.407.406h8.125a.418.418 0 00.406-.406v-.407a.437.437 0 00-.406-.406z" fill="currentColor"></path></svg></svg>