<svg xmlns="http://www.w3.org/2000/svg" width="960" height="552" fill="none" viewBox="0 0 960 552">
    <rect width="92" height="24" x="623" y="518" fill="#fff" rx="5"/>
    <rect width="74" height="24" x="314" y="518" fill="#fff" rx="5"/>
    <rect width="40" height="34" x="86" y="10" fill="#fff" rx="5"/>
    <rect width="110" height="60" x="137" y="22" fill="#D6E1FF" rx="10"/>
    <path fill="#262626" d="M167.468 46.679h1.82L172.629 56h-1.3l-.962-2.665h-4.121L165.297 56h-1.144l3.315-9.321Zm2.509 5.551-1.664-4.641-1.664 4.641h3.328Zm4.009-5.551h2.977c1.057 0 1.876.221 2.457.663.589.433.884 1.114.884 2.041 0 .529-.087.984-.26 1.365-.165.373-.399.68-.702.923-.304.243-.668.42-1.092.533a5.32 5.32 0 0 1-1.391.169h-1.651V56h-1.222v-9.321Zm1.222 1.118v3.471h1.651c.329 0 .628-.035.897-.104.268-.07.498-.178.689-.325a1.41 1.41 0 0 0 .455-.572c.112-.243.169-.533.169-.871 0-.563-.182-.97-.546-1.222-.364-.251-.884-.377-1.56-.377h-1.755Zm7.934-1.118V56h-1.222v-9.321h1.222Zm8.261 9.451c-.52 0-.97-.121-1.352-.364a2.658 2.658 0 0 1-.897-1.001v3.536h-1.144v-9.048h1.001l.117 1.313c.226-.442.529-.793.91-1.053.382-.26.854-.39 1.417-.39.39 0 .763.074 1.118.221.364.139.681.355.949.65.278.286.494.65.65 1.092.165.433.247.945.247 1.534 0 .598-.082 1.118-.247 1.56a3.24 3.24 0 0 1-.663 1.092 2.777 2.777 0 0 1-.962.65 3.184 3.184 0 0 1-1.144.208Zm-.169-1.027c.598 0 1.079-.204 1.443-.611.373-.416.559-1.04.559-1.872 0-.815-.186-1.43-.559-1.846-.364-.425-.845-.637-1.443-.637-.294 0-.572.052-.832.156-.251.104-.472.26-.663.468-.182.2-.329.455-.442.767a3.457 3.457 0 0 0-.156 1.092c0 .416.052.78.156 1.092.113.312.26.572.442.78.191.208.412.364.663.468.26.095.538.143.832.143Zm7.912-4.706a3.514 3.514 0 0 0-1.326.377c-.39.2-.68.511-.871.936V56h-1.144v-6.747h1.001l.117 1.469h.026a3.06 3.06 0 0 1 .819-1.04c.364-.303.823-.49 1.378-.559v1.274Zm3.973 5.733c-.459 0-.888-.078-1.287-.234a2.997 2.997 0 0 1-1.04-.676 3.3 3.3 0 0 1-.676-1.105c-.165-.433-.247-.932-.247-1.495 0-.555.082-1.049.247-1.482.165-.442.39-.81.676-1.105.295-.295.641-.52 1.04-.676a3.503 3.503 0 0 1 1.287-.234c.468 0 .901.078 1.3.234a2.86 2.86 0 0 1 1.027.676c.295.295.524.663.689 1.105.173.433.26.927.26 1.482 0 .563-.087 1.062-.26 1.495a3.188 3.188 0 0 1-.689 1.105 2.86 2.86 0 0 1-1.027.676 3.538 3.538 0 0 1-1.3.234Zm0-1.027c.303 0 .581-.048.832-.143.26-.104.485-.256.676-.455a2.13 2.13 0 0 0 .442-.78c.104-.312.156-.68.156-1.105 0-.425-.052-.793-.156-1.105a2.005 2.005 0 0 0-.442-.767 1.701 1.701 0 0 0-.676-.455 2.156 2.156 0 0 0-.832-.156c-.303 0-.581.052-.832.156a1.722 1.722 0 0 0-.663.455 2.11 2.11 0 0 0-.429.767c-.104.312-.156.68-.156 1.105 0 .425.052.793.156 1.105.104.312.247.572.429.78.191.2.412.351.663.455.251.095.529.143.832.143Zm6.692-1.781L207.991 56h-1.196l2.444-3.497-2.158-3.25h1.326l1.612 2.379 1.625-2.379h1.183l-2.236 3.224L212.944 56h-1.326l-1.807-2.678Zm7.641 2.6a7.65 7.65 0 0 1-.494 1.066 3.531 3.531 0 0 1-.585.793 2.082 2.082 0 0 1-.728.481 2.365 2.365 0 0 1-.923.169 2.78 2.78 0 0 1-.481-.039 1.455 1.455 0 0 1-.403-.104v-1.105c.096.07.217.121.364.156.148.043.308.065.481.065.321 0 .585-.078.793-.234.208-.147.408-.386.598-.715l-2.743-7.202h1.261l2.145 5.694 2.132-5.694h1.105l-2.522 6.669Z"/>
    <rect width="108" height="58" x="85" y="153" fill="#fff" rx="9"/>
    <rect width="108" height="58" x="85" y="153" stroke="#5282FF" stroke-width="2" rx="9"/>
    <path fill="#262626" d="M114.057 168.679V178h-1.222v-9.321h1.222Zm5.21 3.458c-.52 0-.945.121-1.274.364a2.649 2.649 0 0 0-.78.91V178h-1.144v-6.747h1.079l.039 1.209h.026c.182-.39.468-.711.858-.962.39-.251.884-.377 1.482-.377.667 0 1.196.178 1.586.533.398.347.598.884.598 1.612V178h-1.144v-4.615c0-.468-.117-.793-.351-.975-.234-.182-.559-.273-.975-.273Zm5.826.091V178h-1.144v-5.772h-.819v-.975h.819v-.169c0-.797.213-1.417.637-1.859.425-.442 1.006-.663 1.742-.663.321 0 .607.039.858.117v1.04a1.494 1.494 0 0 0-.338-.091 2.686 2.686 0 0 0-.468-.039c-.398 0-.715.121-.949.364-.225.243-.338.62-.338 1.131v.169h1.95v.975h-1.95Zm8.405 5.2a3.605 3.605 0 0 1-.351.221 3.982 3.982 0 0 1-.507.234 4.248 4.248 0 0 1-.676.169 4.183 4.183 0 0 1-.845.078c-1.135 0-1.997-.308-2.587-.923-.589-.615-.884-1.478-.884-2.587 0-.546.078-1.036.234-1.469.165-.433.39-.797.676-1.092a2.816 2.816 0 0 1 1.014-.689c.39-.165.815-.247 1.274-.247.486 0 .919.082 1.3.247.382.165.694.407.936.728.252.321.421.719.507 1.196.096.468.096 1.014 0 1.638h-4.758c.044.728.26 1.274.65 1.638.39.355.971.533 1.742.533.52 0 .967-.074 1.339-.221.373-.147.685-.308.936-.481v1.027Zm-2.678-5.291a1.9 1.9 0 0 0-1.274.455c-.355.303-.58.763-.676 1.378h3.627c.035-.624-.108-1.083-.429-1.378-.32-.303-.736-.455-1.248-.455Zm7.544.26a3.509 3.509 0 0 0-1.326.377c-.39.199-.68.511-.871.936V178h-1.144v-6.747h1.001l.117 1.469h.026a3.06 3.06 0 0 1 .819-1.04c.364-.303.823-.49 1.378-.559v1.274Zm6.573 5.031a3.605 3.605 0 0 1-.351.221 4.116 4.116 0 0 1-.507.234 4.275 4.275 0 0 1-.676.169 4.183 4.183 0 0 1-.845.078c-1.135 0-1.998-.308-2.587-.923-.589-.615-.884-1.478-.884-2.587 0-.546.078-1.036.234-1.469.165-.433.39-.797.676-1.092a2.816 2.816 0 0 1 1.014-.689c.39-.165.815-.247 1.274-.247.485 0 .919.082 1.3.247.381.165.693.407.936.728.251.321.42.719.507 1.196.095.468.095 1.014 0 1.638h-4.758c.043.728.26 1.274.65 1.638.39.355.971.533 1.742.533.52 0 .966-.074 1.339-.221.373-.147.685-.308.936-.481v1.027Zm-2.678-5.291c-.494 0-.919.152-1.274.455-.355.303-.581.763-.676 1.378h3.627c.035-.624-.108-1.083-.429-1.378-.321-.303-.737-.455-1.248-.455Zm7.4 0c-.52 0-.944.121-1.274.364a2.67 2.67 0 0 0-.78.91V178h-1.144v-6.747h1.079l.039 1.209h.026c.182-.39.468-.711.858-.962.39-.251.884-.377 1.482-.377.668 0 1.196.178 1.586.533.399.347.598.884.598 1.612V178h-1.144v-4.615c0-.468-.117-.793-.351-.975-.234-.182-.559-.273-.975-.273Zm7.192 5.993c-.52 0-.992-.078-1.417-.234a3.103 3.103 0 0 1-1.066-.689 3.034 3.034 0 0 1-.676-1.105 4.357 4.357 0 0 1-.234-1.482c0-.546.078-1.036.234-1.469a3.06 3.06 0 0 1 .689-1.092 2.854 2.854 0 0 1 1.079-.689 3.963 3.963 0 0 1 1.443-.247c.416 0 .797.048 1.144.143.347.087.633.217.858.39v1.027a3.032 3.032 0 0 0-.936-.403 3.873 3.873 0 0 0-1.053-.143c-.789 0-1.369.204-1.742.611-.364.407-.546 1.031-.546 1.872 0 .841.178 1.465.533 1.872.355.407.919.611 1.69.611.407 0 .78-.048 1.118-.143.347-.104.659-.234.936-.39v1.027a3.984 3.984 0 0 1-2.054.533Zm8.817-.702a3.605 3.605 0 0 1-.351.221 3.982 3.982 0 0 1-.507.234 4.248 4.248 0 0 1-.676.169 4.183 4.183 0 0 1-.845.078c-1.135 0-1.997-.308-2.587-.923-.589-.615-.884-1.478-.884-2.587 0-.546.078-1.036.234-1.469.165-.433.39-.797.676-1.092a2.816 2.816 0 0 1 1.014-.689c.39-.165.815-.247 1.274-.247.486 0 .919.082 1.3.247.382.165.694.407.936.728.252.321.421.719.507 1.196.096.468.096 1.014 0 1.638h-4.758c.044.728.26 1.274.65 1.638.39.355.971.533 1.742.533.52 0 .967-.074 1.339-.221.373-.147.685-.308.936-.481v1.027Zm-2.678-5.291a1.9 1.9 0 0 0-1.274.455c-.355.303-.58.763-.676 1.378h3.627c.035-.624-.108-1.083-.429-1.378-.32-.303-.736-.455-1.248-.455Zm-35.268 24.164h-1.144v-3.523a2.472 2.472 0 0 1-.871.988c-.364.243-.819.364-1.365.364-.407 0-.793-.069-1.157-.208a2.782 2.782 0 0 1-.962-.65 3.278 3.278 0 0 1-.663-1.092c-.164-.442-.247-.962-.247-1.56 0-.589.083-1.101.247-1.534.165-.442.386-.806.663-1.092.278-.295.598-.511.962-.65a3.163 3.163 0 0 1 1.17-.221c.529 0 .984.117 1.365.351.39.234.694.559.91.975l.013-.117a7.33 7.33 0 0 1 .091-1.079h1.053a9.52 9.52 0 0 0-.052.52c-.008.225-.013.412-.013.559v7.969Zm-3.211-3.198c.295 0 .568-.048.819-.143a1.73 1.73 0 0 0 .65-.468 2.13 2.13 0 0 0 .442-.78c.113-.312.169-.676.169-1.092 0-.416-.056-.78-.169-1.092a2.003 2.003 0 0 0-.442-.767 1.73 1.73 0 0 0-.65-.468 2.119 2.119 0 0 0-.819-.156c-.598 0-1.087.212-1.469.637-.372.416-.559 1.031-.559 1.846 0 .823.191 1.443.572 1.859.382.416.867.624 1.456.624Zm9.407-.312a2.417 2.417 0 0 1-.845.962c-.372.251-.862.377-1.469.377-.624 0-1.131-.173-1.521-.52-.381-.355-.572-.901-.572-1.638v-4.719h1.157v4.719c0 .225.031.412.091.559.07.139.161.251.273.338.113.087.243.147.39.182.156.035.325.052.507.052.503 0 .906-.113 1.209-.338a2.83 2.83 0 0 0 .78-.923v-4.589h1.144V194h-1.014l-.104-1.209h-.026Zm8.391.637a3.605 3.605 0 0 1-.351.221 4.116 4.116 0 0 1-.507.234 4.275 4.275 0 0 1-.676.169 4.183 4.183 0 0 1-.845.078c-1.135 0-1.998-.308-2.587-.923-.589-.615-.884-1.478-.884-2.587 0-.546.078-1.036.234-1.469.165-.433.39-.797.676-1.092a2.816 2.816 0 0 1 1.014-.689c.39-.165.815-.247 1.274-.247.485 0 .919.082 1.3.247.381.165.693.407.936.728.251.321.42.719.507 1.196.095.468.095 1.014 0 1.638h-4.758c.043.728.26 1.274.65 1.638.39.355.971.533 1.742.533.52 0 .966-.074 1.339-.221.373-.147.685-.308.936-.481v1.027Zm-2.678-5.291c-.494 0-.919.152-1.274.455-.355.303-.581.763-.676 1.378h3.627c.035-.624-.108-1.083-.429-1.378-.321-.303-.737-.455-1.248-.455Zm8.531 4.654a2.417 2.417 0 0 1-.845.962c-.372.251-.862.377-1.469.377-.624 0-1.131-.173-1.521-.52-.381-.355-.572-.901-.572-1.638v-4.719h1.157v4.719c0 .225.031.412.091.559.07.139.161.251.273.338.113.087.243.147.39.182.156.035.325.052.507.052.503 0 .906-.113 1.209-.338a2.83 2.83 0 0 0 .78-.923v-4.589h1.144V194h-1.014l-.104-1.209h-.026Zm8.391.637a3.605 3.605 0 0 1-.351.221 4.116 4.116 0 0 1-.507.234 4.275 4.275 0 0 1-.676.169 4.183 4.183 0 0 1-.845.078c-1.135 0-1.998-.308-2.587-.923-.589-.615-.884-1.478-.884-2.587 0-.546.078-1.036.234-1.469.165-.433.39-.797.676-1.092a2.816 2.816 0 0 1 1.014-.689c.39-.165.815-.247 1.274-.247.485 0 .919.082 1.3.247.381.165.693.407.936.728.251.321.42.719.507 1.196.095.468.095 1.014 0 1.638h-4.758c.043.728.26 1.274.65 1.638.39.355.971.533 1.742.533.52 0 .966-.074 1.339-.221.373-.147.685-.308.936-.481v1.027Zm-2.678-5.291c-.494 0-.919.152-1.274.455-.355.303-.581.763-.676 1.378h3.627c.035-.624-.108-1.083-.429-1.378-.321-.303-.737-.455-1.248-.455Z"/>
    <rect width="110" height="60" x="508" y="152" fill="#FFEA96" rx="10"/>
    <path fill="#262626" d="M547.509 169.81V178h-1.235v-8.19h-2.873v-1.131h6.981v1.131h-2.873Zm7.775 6.981a2.424 2.424 0 0 1-.845.962c-.373.251-.862.377-1.469.377-.624 0-1.131-.173-1.521-.52-.381-.355-.572-.901-.572-1.638v-4.719h1.157v4.719c0 .225.03.412.091.559a.953.953 0 0 0 .663.52c.156.035.325.052.507.052.503 0 .906-.113 1.209-.338.303-.225.563-.533.78-.923v-4.589h1.144V178h-1.014l-.104-1.209h-.026Zm6.22-4.654c-.52 0-.945.121-1.274.364a2.649 2.649 0 0 0-.78.91V178h-1.144v-6.747h1.079l.039 1.209h.026c.182-.39.468-.711.858-.962.39-.251.884-.377 1.482-.377.667 0 1.196.178 1.586.533.398.347.598.884.598 1.612V178h-1.144v-4.615c0-.468-.117-.793-.351-.975-.234-.182-.559-.273-.975-.273Zm4.864-1.872c-.234 0-.42-.069-.559-.208a.752.752 0 0 1-.208-.533.733.733 0 0 1 .767-.754c.226 0 .403.074.533.221.13.147.195.325.195.533a.777.777 0 0 1-.195.533c-.13.139-.307.208-.533.208Zm.559.988V178h-1.144v-6.747h1.144Zm5.063.884c-.52 0-.945.121-1.274.364a2.649 2.649 0 0 0-.78.91V178h-1.144v-6.747h1.079l.039 1.209h.026c.182-.39.468-.711.858-.962.39-.251.884-.377 1.482-.377.667 0 1.196.178 1.586.533.399.347.598.884.598 1.612V178h-1.144v-4.615c0-.468-.117-.793-.351-.975-.234-.182-.559-.273-.975-.273Zm10.077 5.291c0 .433-.065.828-.195 1.183-.121.364-.32.672-.598.923-.268.251-.619.446-1.053.585-.424.139-.94.208-1.547.208-.329 0-.619-.017-.871-.052a4.022 4.022 0 0 1-.663-.143 2.42 2.42 0 0 1-.468-.182 2.193 2.193 0 0 1-.325-.182v-1.027c.139.078.282.147.429.208a3.835 3.835 0 0 0 1.118.299c.234.035.499.052.793.052.832 0 1.413-.156 1.742-.468.33-.312.494-.776.494-1.391v-1.04a2.45 2.45 0 0 1-.845.962c-.355.243-.797.364-1.326.364-.398 0-.78-.069-1.144-.208a2.84 2.84 0 0 1-.949-.611 3.171 3.171 0 0 1-.65-1.027c-.156-.416-.234-.897-.234-1.443 0-.555.078-1.036.234-1.443a3.14 3.14 0 0 1 .65-1.04c.278-.277.598-.485.962-.624s.75-.208 1.157-.208c.538 0 .988.121 1.352.364.373.243.663.572.871.988l.013-.143c0-.156.009-.342.026-.559a9.52 9.52 0 0 1 .052-.52h1.04a9.52 9.52 0 0 0-.052.52c-.008.225-.013.412-.013.559v5.096Zm-3.107-.728c.286 0 .546-.043.78-.13.243-.095.451-.238.624-.429.182-.191.321-.425.416-.702.104-.286.156-.62.156-1.001 0-.771-.19-1.348-.572-1.729-.372-.381-.845-.572-1.417-.572-.286 0-.554.048-.806.143a1.759 1.759 0 0 0-.637.429 2.117 2.117 0 0 0-.416.728c-.104.286-.156.62-.156 1.001 0 .381.052.715.156 1.001.104.277.247.511.429.702.182.182.395.321.637.416.252.095.52.143.806.143Zm-33.413 17.43c-.356 0-.672-.03-.949-.091a4.446 4.446 0 0 1-.715-.195 3.81 3.81 0 0 1-.507-.26 3.382 3.382 0 0 1-.325-.247v-1.027c.086.087.203.182.351.286.147.095.325.186.533.273.208.087.442.16.702.221.268.052.567.078.897.078.485 0 .871-.078 1.157-.234.286-.156.429-.42.429-.793a.759.759 0 0 0-.143-.481.87.87 0 0 0-.364-.286 2.228 2.228 0 0 0-.546-.182c-.2-.043-.412-.087-.637-.13a25.532 25.532 0 0 1-.845-.195 2.931 2.931 0 0 1-.754-.325 1.755 1.755 0 0 1-.546-.559c-.139-.234-.208-.537-.208-.91 0-.607.234-1.083.702-1.43.476-.347 1.139-.52 1.989-.52.476 0 .897.048 1.261.143.372.095.658.199.858.312v1.027a3.068 3.068 0 0 0-.845-.364c-.33-.104-.741-.156-1.235-.156-.512 0-.906.069-1.183.208-.269.139-.403.39-.403.754 0 .182.039.329.117.442a.924.924 0 0 0 .312.26c.138.061.294.108.468.143.173.035.355.074.546.117.294.061.598.126.91.195.312.069.589.178.832.325.251.147.455.347.611.598.164.243.247.572.247.988 0 .39-.078.715-.234.975-.156.26-.364.468-.624.624a2.685 2.685 0 0 1-.871.312c-.321.069-.65.104-.988.104Zm9.495-.702a3.867 3.867 0 0 1-.858.455c-.2.069-.425.126-.676.169a4.19 4.19 0 0 1-.845.078c-1.136 0-1.998-.308-2.587-.923-.59-.615-.884-1.478-.884-2.587 0-.546.078-1.036.234-1.469.164-.433.39-.797.676-1.092a2.816 2.816 0 0 1 1.014-.689c.39-.165.814-.247 1.274-.247.485 0 .918.082 1.3.247.381.165.693.407.936.728.251.321.42.719.507 1.196.095.468.095 1.014 0 1.638h-4.758c.043.728.26 1.274.65 1.638.39.355.97.533 1.742.533.52 0 .966-.074 1.339-.221.372-.147.684-.308.936-.481v1.027Zm-2.678-5.291c-.494 0-.919.152-1.274.455-.356.303-.581.763-.676 1.378h3.627c.034-.624-.109-1.083-.429-1.378-.321-.303-.737-.455-1.248-.455Zm7.543.26a3.509 3.509 0 0 0-1.326.377c-.39.199-.68.511-.871.936V194h-1.144v-6.747h1.001l.117 1.469h.026a3.06 3.06 0 0 1 .819-1.04c.364-.303.824-.49 1.378-.559v1.274Zm4.939 5.603H563l-2.314-6.747h1.235l2.054 6.136 2.041-6.136h1.144L564.846 194Zm3.96-7.735c-.234 0-.421-.069-.559-.208a.748.748 0 0 1-.208-.533c0-.208.069-.386.208-.533.138-.147.325-.221.559-.221.225 0 .403.074.533.221.13.147.195.325.195.533a.777.777 0 0 1-.195.533c-.13.139-.308.208-.533.208Zm.559.988V194h-1.144v-6.747h1.144Zm4.776 6.877c-.52 0-.992-.078-1.417-.234a3.103 3.103 0 0 1-1.066-.689 3.048 3.048 0 0 1-.676-1.105 4.357 4.357 0 0 1-.234-1.482c0-.546.078-1.036.234-1.469.165-.433.395-.797.689-1.092a2.861 2.861 0 0 1 1.079-.689 3.963 3.963 0 0 1 1.443-.247c.416 0 .798.048 1.144.143.347.087.633.217.858.39v1.027a3.032 3.032 0 0 0-.936-.403 3.873 3.873 0 0 0-1.053-.143c-.788 0-1.369.204-1.742.611-.364.407-.546 1.031-.546 1.872 0 .841.178 1.465.533 1.872.356.407.919.611 1.69.611.408 0 .78-.048 1.118-.143.347-.104.659-.234.936-.39v1.027a3.984 3.984 0 0 1-2.054.533Zm8.818-.702a3.867 3.867 0 0 1-.858.455c-.2.069-.425.126-.676.169a4.19 4.19 0 0 1-.845.078c-1.136 0-1.998-.308-2.587-.923-.59-.615-.884-1.478-.884-2.587 0-.546.078-1.036.234-1.469.164-.433.39-.797.676-1.092a2.816 2.816 0 0 1 1.014-.689c.39-.165.814-.247 1.274-.247.485 0 .918.082 1.3.247.381.165.693.407.936.728.251.321.42.719.507 1.196.095.468.095 1.014 0 1.638h-4.758c.043.728.26 1.274.65 1.638.39.355.97.533 1.742.533.52 0 .966-.074 1.339-.221.372-.147.684-.308.936-.481v1.027Zm-2.678-5.291c-.494 0-.919.152-1.274.455-.356.303-.581.763-.676 1.378h3.627c.034-.624-.109-1.083-.429-1.378-.321-.303-.737-.455-1.248-.455Z"/>
    <rect width="110" height="60" x="614" y="282" fill="#FFEA96" rx="10"/>
    <path fill="#262626" d="M653.509 299.81V308h-1.235v-8.19h-2.873v-1.131h6.981v1.131h-2.873Zm7.775 6.981a2.424 2.424 0 0 1-.845.962c-.373.251-.862.377-1.469.377-.624 0-1.131-.173-1.521-.52-.381-.355-.572-.901-.572-1.638v-4.719h1.157v4.719c0 .225.03.412.091.559a.953.953 0 0 0 .663.52c.156.035.325.052.507.052.503 0 .906-.113 1.209-.338.303-.225.563-.533.78-.923v-4.589h1.144V308h-1.014l-.104-1.209h-.026Zm6.22-4.654c-.52 0-.945.121-1.274.364a2.649 2.649 0 0 0-.78.91V308h-1.144v-6.747h1.079l.039 1.209h.026c.182-.39.468-.711.858-.962.39-.251.884-.377 1.482-.377.667 0 1.196.178 1.586.533.398.347.598.884.598 1.612V308h-1.144v-4.615c0-.468-.117-.793-.351-.975-.234-.182-.559-.273-.975-.273Zm4.864-1.872c-.234 0-.42-.069-.559-.208a.752.752 0 0 1-.208-.533.733.733 0 0 1 .767-.754c.226 0 .403.074.533.221.13.147.195.325.195.533a.777.777 0 0 1-.195.533c-.13.139-.307.208-.533.208Zm.559.988V308h-1.144v-6.747h1.144Zm5.063.884c-.52 0-.945.121-1.274.364a2.649 2.649 0 0 0-.78.91V308h-1.144v-6.747h1.079l.039 1.209h.026c.182-.39.468-.711.858-.962.39-.251.884-.377 1.482-.377.667 0 1.196.178 1.586.533.399.347.598.884.598 1.612V308h-1.144v-4.615c0-.468-.117-.793-.351-.975-.234-.182-.559-.273-.975-.273Zm10.077 5.291c0 .433-.065.828-.195 1.183-.121.364-.32.672-.598.923-.268.251-.619.446-1.053.585-.424.139-.94.208-1.547.208-.329 0-.619-.017-.871-.052a4.022 4.022 0 0 1-.663-.143 2.42 2.42 0 0 1-.468-.182 2.193 2.193 0 0 1-.325-.182v-1.027c.139.078.282.147.429.208a3.835 3.835 0 0 0 1.118.299c.234.035.499.052.793.052.832 0 1.413-.156 1.742-.468.33-.312.494-.776.494-1.391v-1.04a2.45 2.45 0 0 1-.845.962c-.355.243-.797.364-1.326.364-.398 0-.78-.069-1.144-.208a2.84 2.84 0 0 1-.949-.611 3.171 3.171 0 0 1-.65-1.027c-.156-.416-.234-.897-.234-1.443 0-.555.078-1.036.234-1.443a3.14 3.14 0 0 1 .65-1.04c.278-.277.598-.485.962-.624s.75-.208 1.157-.208c.538 0 .988.121 1.352.364.373.243.663.572.871.988l.013-.143c0-.156.009-.342.026-.559a9.52 9.52 0 0 1 .052-.52h1.04a9.52 9.52 0 0 0-.052.52c-.008.225-.013.412-.013.559v5.096Zm-3.107-.728c.286 0 .546-.043.78-.13.243-.095.451-.238.624-.429.182-.191.321-.425.416-.702.104-.286.156-.62.156-1.001 0-.771-.19-1.348-.572-1.729-.372-.381-.845-.572-1.417-.572-.286 0-.554.048-.806.143a1.759 1.759 0 0 0-.637.429 2.117 2.117 0 0 0-.416.728c-.104.286-.156.62-.156 1.001 0 .381.052.715.156 1.001.104.277.247.511.429.702.182.182.395.321.637.416.252.095.52.143.806.143Zm-23.046 17.157a2.105 2.105 0 0 1-.533.195 2.95 2.95 0 0 1-.689.078c-.33 0-.611-.048-.845-.143a1.615 1.615 0 0 1-.559-.377 1.594 1.594 0 0 1-.325-.546 2.25 2.25 0 0 1-.091-.637v-4.199h-.806v-.975h.806v-1.417h1.144v1.417h1.963v.975h-1.963v4.056c0 .286.069.494.208.624.147.13.403.195.767.195.338 0 .645-.095.923-.286v1.04Zm4.228.273c-.46 0-.889-.078-1.287-.234a2.984 2.984 0 0 1-1.04-.676 3.283 3.283 0 0 1-.676-1.105c-.165-.433-.247-.932-.247-1.495 0-.555.082-1.049.247-1.482.164-.442.39-.81.676-1.105.294-.295.641-.52 1.04-.676a3.495 3.495 0 0 1 1.287-.234c.468 0 .901.078 1.3.234.398.156.741.381 1.027.676.294.295.524.663.689 1.105.173.433.26.927.26 1.482 0 .563-.087 1.062-.26 1.495a3.203 3.203 0 0 1-.689 1.105c-.286.295-.629.52-1.027.676a3.538 3.538 0 0 1-1.3.234Zm0-1.027c.303 0 .58-.048.832-.143.26-.104.485-.256.676-.455.19-.208.338-.468.442-.78.104-.312.156-.68.156-1.105 0-.425-.052-.793-.156-1.105a2.015 2.015 0 0 0-.442-.767 1.698 1.698 0 0 0-.676-.455 2.16 2.16 0 0 0-.832-.156c-.304 0-.581.052-.832.156a1.704 1.704 0 0 0-.663.455 2.107 2.107 0 0 0-.429.767c-.104.312-.156.68-.156 1.105 0 .425.052.793.156 1.105.104.312.247.572.429.78.19.199.411.351.663.455.251.095.528.143.832.143Zm7.439 1.027c-.459 0-.888-.078-1.287-.234a2.993 2.993 0 0 1-1.04-.676 3.3 3.3 0 0 1-.676-1.105c-.165-.433-.247-.932-.247-1.495 0-.555.082-1.049.247-1.482.165-.442.39-.81.676-1.105.295-.295.641-.52 1.04-.676a3.503 3.503 0 0 1 1.287-.234c.468 0 .901.078 1.3.234a2.86 2.86 0 0 1 1.027.676c.295.295.524.663.689 1.105.173.433.26.927.26 1.482 0 .563-.087 1.062-.26 1.495a3.188 3.188 0 0 1-.689 1.105 2.86 2.86 0 0 1-1.027.676 3.538 3.538 0 0 1-1.3.234Zm0-1.027c.303 0 .581-.048.832-.143.26-.104.485-.256.676-.455a2.13 2.13 0 0 0 .442-.78c.104-.312.156-.68.156-1.105 0-.425-.052-.793-.156-1.105a2.003 2.003 0 0 0-.442-.767 1.698 1.698 0 0 0-.676-.455 2.156 2.156 0 0 0-.832-.156c-.303 0-.581.052-.832.156a1.719 1.719 0 0 0-.663.455 2.107 2.107 0 0 0-.429.767c-.104.312-.156.68-.156 1.105 0 .425.052.793.156 1.105.104.312.247.572.429.78.191.199.412.351.663.455.251.095.529.143.832.143Zm5.814-8.424V324h-1.144v-9.321h1.144Z"/>
    <rect width="110" height="60" x="296" y="152" fill="#FFEA96" rx="10"/>
    <path fill="#262626" d="M329.247 168.679h3.133c.624 0 1.204.074 1.742.221a3.62 3.62 0 0 1 1.404.728c.398.338.71.784.936 1.339.225.555.338 1.239.338 2.054 0 .823-.117 1.547-.351 2.171-.226.615-.542 1.131-.949 1.547-.399.416-.88.732-1.443.949a5.148 5.148 0 0 1-1.82.312h-2.99v-9.321Zm1.222 1.118v7.098h1.768c.476 0 .914-.074 1.313-.221a2.662 2.662 0 0 0 1.027-.676c.286-.312.507-.706.663-1.183.156-.477.234-1.044.234-1.703 0-.65-.078-1.187-.234-1.612-.156-.433-.373-.776-.65-1.027a2.173 2.173 0 0 0-.975-.52 4.683 4.683 0 0 0-1.235-.156h-1.911Zm11.752 6.916a3.85 3.85 0 0 1-.299.494 2.253 2.253 0 0 1-1.105.793c-.242.087-.528.13-.858.13-.606 0-1.096-.169-1.469-.507-.372-.347-.559-.841-.559-1.482 0-.737.256-1.278.767-1.625.52-.347 1.257-.52 2.21-.52h1.261v-.559c0-.468-.121-.802-.364-1.001-.242-.199-.658-.299-1.248-.299-.416 0-.81.069-1.183.208-.372.13-.706.282-1.001.455v-1.027c.243-.147.568-.29.975-.429a4.07 4.07 0 0 1 1.365-.221c.85 0 1.495.178 1.937.533.442.347.663.888.663 1.625v3.9c.009.095.013.195.013.299l.026.299c.009.087.018.16.026.221h-1.04a5.896 5.896 0 0 1-.078-.507 7.937 7.937 0 0 1-.026-.585l-.013-.195Zm-2.015.39c.356 0 .659-.074.91-.221.252-.147.455-.316.611-.507.156-.199.269-.39.338-.572.07-.191.104-.325.104-.403v-.494h-1.144c-.684 0-1.183.1-1.495.299-.303.191-.455.481-.455.871 0 .303.091.55.273.741.182.191.468.286.858.286Zm8.208.754a2.077 2.077 0 0 1-.533.195 2.938 2.938 0 0 1-.689.078c-.329 0-.611-.048-.845-.143a1.634 1.634 0 0 1-.559-.377 1.626 1.626 0 0 1-.325-.546 2.286 2.286 0 0 1-.091-.637v-4.199h-.806v-.975h.806v-1.417h1.144v1.417h1.963v.975h-1.963v4.056c0 .286.07.494.208.624.148.13.403.195.767.195.338 0 .646-.095.923-.286v1.04Zm5.474-1.144a3.85 3.85 0 0 1-.299.494 2.253 2.253 0 0 1-1.105.793c-.242.087-.528.13-.858.13-.606 0-1.096-.169-1.469-.507-.372-.347-.559-.841-.559-1.482 0-.737.256-1.278.767-1.625.52-.347 1.257-.52 2.21-.52h1.261v-.559c0-.468-.121-.802-.364-1.001-.242-.199-.658-.299-1.248-.299-.416 0-.81.069-1.183.208-.372.13-.706.282-1.001.455v-1.027c.243-.147.568-.29.975-.429a4.07 4.07 0 0 1 1.365-.221c.85 0 1.495.178 1.937.533.442.347.663.888.663 1.625v3.9c.009.095.013.195.013.299l.026.299c.009.087.018.16.026.221h-1.04a5.896 5.896 0 0 1-.078-.507 7.937 7.937 0 0 1-.026-.585l-.013-.195Zm-2.015.39c.356 0 .659-.074.91-.221.252-.147.455-.316.611-.507.156-.199.269-.39.338-.572.07-.191.104-.325.104-.403v-.494h-1.144c-.684 0-1.183.1-1.495.299-.303.191-.455.481-.455.871 0 .303.091.55.273.741.182.191.468.286.858.286Zm7.064 1.027a4.45 4.45 0 0 1-.949-.091 4.475 4.475 0 0 1-.715-.195 3.938 3.938 0 0 1-.507-.26 3.514 3.514 0 0 1-.325-.247v-1.027c.087.087.204.182.351.286.148.095.325.186.533.273.208.087.442.16.702.221.269.052.568.078.897.078.486 0 .871-.078 1.157-.234.286-.156.429-.42.429-.793 0-.199-.047-.36-.143-.481a.864.864 0 0 0-.364-.286 2.228 2.228 0 0 0-.546-.182 26.073 26.073 0 0 0-.637-.13 26.13 26.13 0 0 1-.845-.195 2.962 2.962 0 0 1-.754-.325 1.776 1.776 0 0 1-.546-.559c-.138-.234-.208-.537-.208-.91 0-.607.234-1.083.702-1.43.477-.347 1.14-.52 1.989-.52.477 0 .897.048 1.261.143.373.095.659.199.858.312v1.027a3.055 3.055 0 0 0-.845-.364c-.329-.104-.741-.156-1.235-.156-.511 0-.905.069-1.183.208-.268.139-.403.39-.403.754 0 .182.039.329.117.442a.924.924 0 0 0 .312.26c.139.061.295.108.468.143.174.035.356.074.546.117.295.061.598.126.91.195.312.069.59.178.832.325.252.147.455.347.611.598.165.243.247.572.247.988 0 .39-.078.715-.234.975-.156.26-.364.468-.624.624a2.668 2.668 0 0 1-.871.312 4.68 4.68 0 0 1-.988.104Zm9.495-.702a3.605 3.605 0 0 1-.351.221 3.982 3.982 0 0 1-.507.234 4.248 4.248 0 0 1-.676.169 4.183 4.183 0 0 1-.845.078c-1.135 0-1.997-.308-2.587-.923-.589-.615-.884-1.478-.884-2.587 0-.546.078-1.036.234-1.469.165-.433.39-.797.676-1.092a2.816 2.816 0 0 1 1.014-.689c.39-.165.815-.247 1.274-.247.486 0 .919.082 1.3.247.382.165.694.407.936.728.252.321.421.719.507 1.196.096.468.096 1.014 0 1.638h-4.758c.044.728.26 1.274.65 1.638.39.355.971.533 1.742.533.52 0 .967-.074 1.339-.221.373-.147.685-.308.936-.481v1.027Zm-2.678-5.291a1.9 1.9 0 0 0-1.274.455c-.355.303-.58.763-.676 1.378h3.627c.035-.624-.108-1.083-.429-1.378-.32-.303-.736-.455-1.248-.455Zm7.505 5.72a2.091 2.091 0 0 1-.533.195 2.944 2.944 0 0 1-.689.078c-.329 0-.611-.048-.845-.143a1.625 1.625 0 0 1-.559-.377 1.61 1.61 0 0 1-.325-.546 2.25 2.25 0 0 1-.091-.637v-4.199h-.806v-.975h.806v-1.417h1.144v1.417h1.963v.975h-1.963v4.056c0 .286.069.494.208.624.147.13.403.195.767.195.338 0 .646-.095.923-.286v1.04Zm-39.712 16.273c-.356 0-.672-.03-.949-.091a4.446 4.446 0 0 1-.715-.195 3.81 3.81 0 0 1-.507-.26 3.382 3.382 0 0 1-.325-.247v-1.027c.086.087.203.182.351.286.147.095.325.186.533.273.208.087.442.16.702.221.268.052.567.078.897.078.485 0 .871-.078 1.157-.234.286-.156.429-.42.429-.793a.759.759 0 0 0-.143-.481.87.87 0 0 0-.364-.286 2.228 2.228 0 0 0-.546-.182c-.2-.043-.412-.087-.637-.13a25.532 25.532 0 0 1-.845-.195 2.931 2.931 0 0 1-.754-.325 1.755 1.755 0 0 1-.546-.559c-.139-.234-.208-.537-.208-.91 0-.607.234-1.083.702-1.43.476-.347 1.139-.52 1.989-.52.476 0 .897.048 1.261.143.372.095.658.199.858.312v1.027a3.068 3.068 0 0 0-.845-.364c-.33-.104-.741-.156-1.235-.156-.512 0-.906.069-1.183.208-.269.139-.403.39-.403.754 0 .182.039.329.117.442a.924.924 0 0 0 .312.26c.138.061.294.108.468.143.173.035.355.074.546.117.294.061.598.126.91.195.312.069.589.178.832.325.251.147.455.347.611.598.164.243.247.572.247.988 0 .39-.078.715-.234.975-.156.26-.364.468-.624.624a2.685 2.685 0 0 1-.871.312c-.321.069-.65.104-.988.104Zm9.495-.702a3.867 3.867 0 0 1-.858.455c-.2.069-.425.126-.676.169a4.19 4.19 0 0 1-.845.078c-1.136 0-1.998-.308-2.587-.923-.59-.615-.884-1.478-.884-2.587 0-.546.078-1.036.234-1.469.164-.433.39-.797.676-1.092a2.816 2.816 0 0 1 1.014-.689c.39-.165.814-.247 1.274-.247.485 0 .918.082 1.3.247.381.165.693.407.936.728.251.321.42.719.507 1.196.095.468.095 1.014 0 1.638h-4.758c.043.728.26 1.274.65 1.638.39.355.97.533 1.742.533.52 0 .966-.074 1.339-.221.372-.147.684-.308.936-.481v1.027Zm-2.678-5.291c-.494 0-.919.152-1.274.455-.356.303-.581.763-.676 1.378h3.627c.034-.624-.109-1.083-.429-1.378-.321-.303-.737-.455-1.248-.455Zm7.543.26a3.509 3.509 0 0 0-1.326.377c-.39.199-.68.511-.871.936V194h-1.144v-6.747h1.001l.117 1.469h.026a3.06 3.06 0 0 1 .819-1.04c.364-.303.824-.49 1.378-.559v1.274Zm4.939 5.603H351l-2.314-6.747h1.235l2.054 6.136 2.041-6.136h1.144L352.846 194Zm3.96-7.735c-.234 0-.421-.069-.559-.208a.748.748 0 0 1-.208-.533c0-.208.069-.386.208-.533.138-.147.325-.221.559-.221.225 0 .403.074.533.221.13.147.195.325.195.533a.777.777 0 0 1-.195.533c-.13.139-.308.208-.533.208Zm.559.988V194h-1.144v-6.747h1.144Zm4.776 6.877c-.52 0-.992-.078-1.417-.234a3.103 3.103 0 0 1-1.066-.689 3.048 3.048 0 0 1-.676-1.105 4.357 4.357 0 0 1-.234-1.482c0-.546.078-1.036.234-1.469.165-.433.395-.797.689-1.092a2.861 2.861 0 0 1 1.079-.689 3.963 3.963 0 0 1 1.443-.247c.416 0 .798.048 1.144.143.347.087.633.217.858.39v1.027a3.032 3.032 0 0 0-.936-.403 3.873 3.873 0 0 0-1.053-.143c-.788 0-1.369.204-1.742.611-.364.407-.546 1.031-.546 1.872 0 .841.178 1.465.533 1.872.356.407.919.611 1.69.611.408 0 .78-.048 1.118-.143.347-.104.659-.234.936-.39v1.027a3.984 3.984 0 0 1-2.054.533Zm8.818-.702a3.867 3.867 0 0 1-.858.455c-.2.069-.425.126-.676.169a4.19 4.19 0 0 1-.845.078c-1.136 0-1.998-.308-2.587-.923-.59-.615-.884-1.478-.884-2.587 0-.546.078-1.036.234-1.469.164-.433.39-.797.676-1.092a2.816 2.816 0 0 1 1.014-.689c.39-.165.814-.247 1.274-.247.485 0 .918.082 1.3.247.381.165.693.407.936.728.251.321.42.719.507 1.196.095.468.095 1.014 0 1.638h-4.758c.043.728.26 1.274.65 1.638.39.355.97.533 1.742.533.52 0 .966-.074 1.339-.221.372-.147.684-.308.936-.481v1.027Zm-2.678-5.291c-.494 0-.919.152-1.274.455-.356.303-.581.763-.676 1.378h3.627c.034-.624-.109-1.083-.429-1.378-.321-.303-.737-.455-1.248-.455Z"/>
    <rect width="110" height="60" x="402" y="282" fill="#FFEA96" rx="10"/>
    <path fill="#262626" d="M435.247 298.679h3.133c.624 0 1.204.074 1.742.221a3.62 3.62 0 0 1 1.404.728c.398.338.71.784.936 1.339.225.555.338 1.239.338 2.054 0 .823-.117 1.547-.351 2.171-.226.615-.542 1.131-.949 1.547-.399.416-.88.732-1.443.949a5.148 5.148 0 0 1-1.82.312h-2.99v-9.321Zm1.222 1.118v7.098h1.768c.476 0 .914-.074 1.313-.221a2.662 2.662 0 0 0 1.027-.676c.286-.312.507-.706.663-1.183.156-.477.234-1.044.234-1.703 0-.65-.078-1.187-.234-1.612-.156-.433-.373-.776-.65-1.027a2.173 2.173 0 0 0-.975-.52 4.683 4.683 0 0 0-1.235-.156h-1.911Zm11.752 6.916a3.85 3.85 0 0 1-.299.494 2.253 2.253 0 0 1-1.105.793c-.242.087-.528.13-.858.13-.606 0-1.096-.169-1.469-.507-.372-.347-.559-.841-.559-1.482 0-.737.256-1.278.767-1.625.52-.347 1.257-.52 2.21-.52h1.261v-.559c0-.468-.121-.802-.364-1.001-.242-.199-.658-.299-1.248-.299-.416 0-.81.069-1.183.208-.372.13-.706.282-1.001.455v-1.027c.243-.147.568-.29.975-.429a4.07 4.07 0 0 1 1.365-.221c.85 0 1.495.178 1.937.533.442.347.663.888.663 1.625v3.9c.009.095.013.195.013.299l.026.299c.009.087.018.16.026.221h-1.04a5.896 5.896 0 0 1-.078-.507 7.937 7.937 0 0 1-.026-.585l-.013-.195Zm-2.015.39c.356 0 .659-.074.91-.221.252-.147.455-.316.611-.507.156-.199.269-.39.338-.572.07-.191.104-.325.104-.403v-.494h-1.144c-.684 0-1.183.1-1.495.299-.303.191-.455.481-.455.871 0 .303.091.55.273.741.182.191.468.286.858.286Zm8.208.754a2.077 2.077 0 0 1-.533.195 2.938 2.938 0 0 1-.689.078c-.329 0-.611-.048-.845-.143a1.634 1.634 0 0 1-.559-.377 1.626 1.626 0 0 1-.325-.546 2.286 2.286 0 0 1-.091-.637v-4.199h-.806v-.975h.806v-1.417h1.144v1.417h1.963v.975h-1.963v4.056c0 .286.07.494.208.624.148.13.403.195.767.195.338 0 .646-.095.923-.286v1.04Zm5.474-1.144a3.85 3.85 0 0 1-.299.494 2.253 2.253 0 0 1-1.105.793c-.242.087-.528.13-.858.13-.606 0-1.096-.169-1.469-.507-.372-.347-.559-.841-.559-1.482 0-.737.256-1.278.767-1.625.52-.347 1.257-.52 2.21-.52h1.261v-.559c0-.468-.121-.802-.364-1.001-.242-.199-.658-.299-1.248-.299-.416 0-.81.069-1.183.208-.372.13-.706.282-1.001.455v-1.027c.243-.147.568-.29.975-.429a4.07 4.07 0 0 1 1.365-.221c.85 0 1.495.178 1.937.533.442.347.663.888.663 1.625v3.9c.009.095.013.195.013.299l.026.299c.009.087.018.16.026.221h-1.04a5.896 5.896 0 0 1-.078-.507 7.937 7.937 0 0 1-.026-.585l-.013-.195Zm-2.015.39c.356 0 .659-.074.91-.221.252-.147.455-.316.611-.507.156-.199.269-.39.338-.572.07-.191.104-.325.104-.403v-.494h-1.144c-.684 0-1.183.1-1.495.299-.303.191-.455.481-.455.871 0 .303.091.55.273.741.182.191.468.286.858.286Zm7.064 1.027a4.45 4.45 0 0 1-.949-.091 4.475 4.475 0 0 1-.715-.195 3.938 3.938 0 0 1-.507-.26 3.514 3.514 0 0 1-.325-.247v-1.027c.087.087.204.182.351.286.148.095.325.186.533.273.208.087.442.16.702.221.269.052.568.078.897.078.486 0 .871-.078 1.157-.234.286-.156.429-.42.429-.793 0-.199-.047-.36-.143-.481a.864.864 0 0 0-.364-.286 2.228 2.228 0 0 0-.546-.182 26.073 26.073 0 0 0-.637-.13 26.13 26.13 0 0 1-.845-.195 2.962 2.962 0 0 1-.754-.325 1.776 1.776 0 0 1-.546-.559c-.138-.234-.208-.537-.208-.91 0-.607.234-1.083.702-1.43.477-.347 1.14-.52 1.989-.52.477 0 .897.048 1.261.143.373.095.659.199.858.312v1.027a3.055 3.055 0 0 0-.845-.364c-.329-.104-.741-.156-1.235-.156-.511 0-.905.069-1.183.208-.268.139-.403.39-.403.754 0 .182.039.329.117.442a.924.924 0 0 0 .312.26c.139.061.295.108.468.143.174.035.356.074.546.117.295.061.598.126.91.195.312.069.59.178.832.325.252.147.455.347.611.598.165.243.247.572.247.988 0 .39-.078.715-.234.975-.156.26-.364.468-.624.624a2.668 2.668 0 0 1-.871.312 4.68 4.68 0 0 1-.988.104Zm9.495-.702a3.605 3.605 0 0 1-.351.221 3.982 3.982 0 0 1-.507.234 4.248 4.248 0 0 1-.676.169 4.183 4.183 0 0 1-.845.078c-1.135 0-1.997-.308-2.587-.923-.589-.615-.884-1.478-.884-2.587 0-.546.078-1.036.234-1.469.165-.433.39-.797.676-1.092a2.816 2.816 0 0 1 1.014-.689c.39-.165.815-.247 1.274-.247.486 0 .919.082 1.3.247.382.165.694.407.936.728.252.321.421.719.507 1.196.096.468.096 1.014 0 1.638h-4.758c.044.728.26 1.274.65 1.638.39.355.971.533 1.742.533.52 0 .967-.074 1.339-.221.373-.147.685-.308.936-.481v1.027Zm-2.678-5.291a1.9 1.9 0 0 0-1.274.455c-.355.303-.58.763-.676 1.378h3.627c.035-.624-.108-1.083-.429-1.378-.32-.303-.736-.455-1.248-.455Zm7.505 5.72a2.091 2.091 0 0 1-.533.195 2.944 2.944 0 0 1-.689.078c-.329 0-.611-.048-.845-.143a1.625 1.625 0 0 1-.559-.377 1.61 1.61 0 0 1-.325-.546 2.25 2.25 0 0 1-.091-.637v-4.199h-.806v-.975h.806v-1.417h1.144v1.417h1.963v.975h-1.963v4.056c0 .286.069.494.208.624.147.13.403.195.767.195.338 0 .646-.095.923-.286v1.04Zm-29.345 16a2.105 2.105 0 0 1-.533.195 2.95 2.95 0 0 1-.689.078c-.33 0-.611-.048-.845-.143a1.615 1.615 0 0 1-.559-.377 1.594 1.594 0 0 1-.325-.546 2.25 2.25 0 0 1-.091-.637v-4.199h-.806v-.975h.806v-1.417h1.144v1.417h1.963v.975h-1.963v4.056c0 .286.069.494.208.624.147.13.403.195.767.195.338 0 .645-.095.923-.286v1.04Zm4.228.273c-.46 0-.889-.078-1.287-.234a2.984 2.984 0 0 1-1.04-.676 3.283 3.283 0 0 1-.676-1.105c-.165-.433-.247-.932-.247-1.495 0-.555.082-1.049.247-1.482.164-.442.39-.81.676-1.105.294-.295.641-.52 1.04-.676a3.495 3.495 0 0 1 1.287-.234c.468 0 .901.078 1.3.234.398.156.741.381 1.027.676.294.295.524.663.689 1.105.173.433.26.927.26 1.482 0 .563-.087 1.062-.26 1.495a3.203 3.203 0 0 1-.689 1.105c-.286.295-.629.52-1.027.676a3.538 3.538 0 0 1-1.3.234Zm0-1.027c.303 0 .58-.048.832-.143.26-.104.485-.256.676-.455.19-.208.338-.468.442-.78.104-.312.156-.68.156-1.105 0-.425-.052-.793-.156-1.105a2.015 2.015 0 0 0-.442-.767 1.698 1.698 0 0 0-.676-.455 2.16 2.16 0 0 0-.832-.156c-.304 0-.581.052-.832.156a1.704 1.704 0 0 0-.663.455 2.107 2.107 0 0 0-.429.767c-.104.312-.156.68-.156 1.105 0 .425.052.793.156 1.105.104.312.247.572.429.78.19.199.411.351.663.455.251.095.528.143.832.143Zm7.439 1.027c-.459 0-.888-.078-1.287-.234a2.993 2.993 0 0 1-1.04-.676 3.3 3.3 0 0 1-.676-1.105c-.165-.433-.247-.932-.247-1.495 0-.555.082-1.049.247-1.482.165-.442.39-.81.676-1.105.295-.295.641-.52 1.04-.676a3.503 3.503 0 0 1 1.287-.234c.468 0 .901.078 1.3.234a2.86 2.86 0 0 1 1.027.676c.295.295.524.663.689 1.105.173.433.26.927.26 1.482 0 .563-.087 1.062-.26 1.495a3.188 3.188 0 0 1-.689 1.105 2.86 2.86 0 0 1-1.027.676 3.538 3.538 0 0 1-1.3.234Zm0-1.027c.303 0 .581-.048.832-.143.26-.104.485-.256.676-.455a2.13 2.13 0 0 0 .442-.78c.104-.312.156-.68.156-1.105 0-.425-.052-.793-.156-1.105a2.003 2.003 0 0 0-.442-.767 1.698 1.698 0 0 0-.676-.455 2.156 2.156 0 0 0-.832-.156c-.303 0-.581.052-.832.156a1.719 1.719 0 0 0-.663.455 2.107 2.107 0 0 0-.429.767c-.104.312-.156.68-.156 1.105 0 .425.052.793.156 1.105.104.312.247.572.429.78.191.199.412.351.663.455.251.095.529.143.832.143Zm5.814-8.424V324h-1.144v-9.321h1.144Z"/>
    <rect width="108" height="58" x="721" y="153" fill="#fff" rx="9"/>
    <rect width="108" height="58" x="721" y="153" stroke="#5282FF" stroke-width="2" rx="9"/>
    <path fill="#262626" d="M750.057 168.679V178h-1.222v-9.321h1.222Zm5.21 3.458c-.52 0-.945.121-1.274.364a2.649 2.649 0 0 0-.78.91V178h-1.144v-6.747h1.079l.039 1.209h.026c.182-.39.468-.711.858-.962.39-.251.884-.377 1.482-.377.667 0 1.196.178 1.586.533.398.347.598.884.598 1.612V178h-1.144v-4.615c0-.468-.117-.793-.351-.975-.234-.182-.559-.273-.975-.273Zm5.826.091V178h-1.144v-5.772h-.819v-.975h.819v-.169c0-.797.213-1.417.637-1.859.425-.442 1.006-.663 1.742-.663.321 0 .607.039.858.117v1.04a1.494 1.494 0 0 0-.338-.091 2.686 2.686 0 0 0-.468-.039c-.398 0-.715.121-.949.364-.225.243-.338.62-.338 1.131v.169h1.95v.975h-1.95Zm8.405 5.2a3.605 3.605 0 0 1-.351.221 3.982 3.982 0 0 1-.507.234 4.248 4.248 0 0 1-.676.169 4.183 4.183 0 0 1-.845.078c-1.135 0-1.997-.308-2.587-.923-.589-.615-.884-1.478-.884-2.587 0-.546.078-1.036.234-1.469.165-.433.39-.797.676-1.092a2.816 2.816 0 0 1 1.014-.689c.39-.165.815-.247 1.274-.247.486 0 .919.082 1.3.247.382.165.694.407.936.728.252.321.421.719.507 1.196.096.468.096 1.014 0 1.638h-4.758c.044.728.26 1.274.65 1.638.39.355.971.533 1.742.533.52 0 .967-.074 1.339-.221.373-.147.685-.308.936-.481v1.027Zm-2.678-5.291a1.9 1.9 0 0 0-1.274.455c-.355.303-.58.763-.676 1.378h3.627c.035-.624-.108-1.083-.429-1.378-.32-.303-.736-.455-1.248-.455Zm7.544.26a3.509 3.509 0 0 0-1.326.377c-.39.199-.68.511-.871.936V178h-1.144v-6.747h1.001l.117 1.469h.026a3.06 3.06 0 0 1 .819-1.04c.364-.303.823-.49 1.378-.559v1.274Zm6.573 5.031a3.605 3.605 0 0 1-.351.221 4.116 4.116 0 0 1-.507.234 4.275 4.275 0 0 1-.676.169 4.183 4.183 0 0 1-.845.078c-1.135 0-1.998-.308-2.587-.923-.589-.615-.884-1.478-.884-2.587 0-.546.078-1.036.234-1.469.165-.433.39-.797.676-1.092a2.816 2.816 0 0 1 1.014-.689c.39-.165.815-.247 1.274-.247.485 0 .919.082 1.3.247.381.165.693.407.936.728.251.321.42.719.507 1.196.095.468.095 1.014 0 1.638h-4.758c.043.728.26 1.274.65 1.638.39.355.971.533 1.742.533.52 0 .966-.074 1.339-.221.373-.147.685-.308.936-.481v1.027Zm-2.678-5.291c-.494 0-.919.152-1.274.455-.355.303-.581.763-.676 1.378h3.627c.035-.624-.108-1.083-.429-1.378-.321-.303-.737-.455-1.248-.455Zm7.4 0c-.52 0-.944.121-1.274.364a2.67 2.67 0 0 0-.78.91V178h-1.144v-6.747h1.079l.039 1.209h.026c.182-.39.468-.711.858-.962.39-.251.884-.377 1.482-.377.668 0 1.196.178 1.586.533.399.347.598.884.598 1.612V178h-1.144v-4.615c0-.468-.117-.793-.351-.975-.234-.182-.559-.273-.975-.273Zm7.192 5.993c-.52 0-.992-.078-1.417-.234a3.103 3.103 0 0 1-1.066-.689 3.034 3.034 0 0 1-.676-1.105 4.357 4.357 0 0 1-.234-1.482c0-.546.078-1.036.234-1.469a3.06 3.06 0 0 1 .689-1.092 2.854 2.854 0 0 1 1.079-.689 3.963 3.963 0 0 1 1.443-.247c.416 0 .797.048 1.144.143.347.087.633.217.858.39v1.027a3.032 3.032 0 0 0-.936-.403 3.873 3.873 0 0 0-1.053-.143c-.789 0-1.369.204-1.742.611-.364.407-.546 1.031-.546 1.872 0 .841.178 1.465.533 1.872.355.407.919.611 1.69.611.407 0 .78-.048 1.118-.143.347-.104.659-.234.936-.39v1.027a3.984 3.984 0 0 1-2.054.533Zm8.817-.702a3.605 3.605 0 0 1-.351.221 3.982 3.982 0 0 1-.507.234 4.248 4.248 0 0 1-.676.169 4.183 4.183 0 0 1-.845.078c-1.135 0-1.997-.308-2.587-.923-.589-.615-.884-1.478-.884-2.587 0-.546.078-1.036.234-1.469.165-.433.39-.797.676-1.092a2.816 2.816 0 0 1 1.014-.689c.39-.165.815-.247 1.274-.247.486 0 .919.082 1.3.247.382.165.694.407.936.728.252.321.421.719.507 1.196.096.468.096 1.014 0 1.638h-4.758c.044.728.26 1.274.65 1.638.39.355.971.533 1.742.533.52 0 .967-.074 1.339-.221.373-.147.685-.308.936-.481v1.027Zm-2.678-5.291a1.9 1.9 0 0 0-1.274.455c-.355.303-.58.763-.676 1.378h3.627c.035-.624-.108-1.083-.429-1.378-.32-.303-.736-.455-1.248-.455Zm-41.293 18.483c0 .598-.082 1.118-.247 1.56a3.278 3.278 0 0 1-.663 1.092 2.772 2.772 0 0 1-.962.65 3.178 3.178 0 0 1-1.144.208c-.52 0-.975-.121-1.365-.364a2.662 2.662 0 0 1-.91-1.04l-.039 1.274h-1.079v-9.321h1.144l-.026 3.887c.225-.442.529-.793.91-1.053.381-.26.854-.39 1.417-.39.39 0 .763.074 1.118.221.364.139.68.355.949.65.277.286.494.65.65 1.092.165.433.247.945.247 1.534Zm-3.185 2.483c.598 0 1.079-.204 1.443-.611.373-.416.559-1.04.559-1.872 0-.815-.186-1.43-.559-1.846-.364-.425-.845-.637-1.443-.637-.295 0-.572.052-.832.156-.251.104-.472.26-.663.468a2.263 2.263 0 0 0-.442.767 3.457 3.457 0 0 0-.156 1.092c0 .416.052.78.156 1.092.113.312.26.572.442.78.191.208.412.364.663.468.26.095.537.143.832.143Zm8.459-.39a3.85 3.85 0 0 1-.299.494 2.253 2.253 0 0 1-1.105.793c-.242.087-.528.13-.858.13-.606 0-1.096-.169-1.469-.507-.372-.347-.559-.841-.559-1.482 0-.737.256-1.278.767-1.625.52-.347 1.257-.52 2.21-.52h1.261v-.559c0-.468-.121-.802-.364-1.001-.242-.199-.658-.299-1.248-.299-.416 0-.81.069-1.183.208-.372.13-.706.282-1.001.455v-1.027c.243-.147.568-.29.975-.429a4.07 4.07 0 0 1 1.365-.221c.85 0 1.495.178 1.937.533.442.347.663.888.663 1.625v3.9c.009.095.013.195.013.299l.026.299c.009.087.018.16.026.221h-1.04a5.896 5.896 0 0 1-.078-.507 7.937 7.937 0 0 1-.026-.585l-.013-.195Zm-2.015.39c.356 0 .659-.074.91-.221.252-.147.455-.316.611-.507.156-.199.269-.39.338-.572.07-.191.104-.325.104-.403v-.494h-1.144c-.684 0-1.183.1-1.495.299-.303.191-.455.481-.455.871 0 .303.091.55.273.741.182.191.468.286.858.286Zm7.818 1.027c-.52 0-.992-.078-1.417-.234a3.103 3.103 0 0 1-1.066-.689 3.048 3.048 0 0 1-.676-1.105 4.357 4.357 0 0 1-.234-1.482c0-.546.078-1.036.234-1.469.165-.433.395-.797.689-1.092a2.861 2.861 0 0 1 1.079-.689 3.963 3.963 0 0 1 1.443-.247c.416 0 .798.048 1.144.143.347.087.633.217.858.39v1.027a3.032 3.032 0 0 0-.936-.403 3.873 3.873 0 0 0-1.053-.143c-.788 0-1.369.204-1.742.611-.364.407-.546 1.031-.546 1.872 0 .841.178 1.465.533 1.872.356.407.919.611 1.69.611.408 0 .78-.048 1.118-.143.347-.104.659-.234.936-.39v1.027a3.984 3.984 0 0 1-2.054.533Zm5.191-3.003h-.598V194h-1.144v-9.321h1.144v5.473h.65l2.366-2.899h1.3l-2.769 3.328 2.821 3.419h-1.391l-2.379-2.873Zm9.822 2.301a3.605 3.605 0 0 1-.351.221 4.116 4.116 0 0 1-.507.234 4.275 4.275 0 0 1-.676.169 4.183 4.183 0 0 1-.845.078c-1.135 0-1.998-.308-2.587-.923-.589-.615-.884-1.478-.884-2.587 0-.546.078-1.036.234-1.469.165-.433.39-.797.676-1.092a2.816 2.816 0 0 1 1.014-.689c.39-.165.815-.247 1.274-.247.485 0 .919.082 1.3.247.381.165.693.407.936.728.251.321.42.719.507 1.196.095.468.095 1.014 0 1.638h-4.758c.043.728.26 1.274.65 1.638.39.355.971.533 1.742.533.52 0 .966-.074 1.339-.221.373-.147.685-.308.936-.481v1.027Zm-2.678-5.291c-.494 0-.919.152-1.274.455-.355.303-.581.763-.676 1.378h3.627c.035-.624-.108-1.083-.429-1.378-.321-.303-.737-.455-1.248-.455Zm7.4 0c-.52 0-.944.121-1.274.364a2.67 2.67 0 0 0-.78.91V194h-1.144v-6.747h1.079l.039 1.209h.026c.182-.39.468-.711.858-.962.39-.251.884-.377 1.482-.377.668 0 1.196.178 1.586.533.399.347.598.884.598 1.612V194h-1.144v-4.615c0-.468-.117-.793-.351-.975-.234-.182-.559-.273-.975-.273Zm9.116 4.537a2.706 2.706 0 0 1-.871 1.066c-.373.26-.845.39-1.417.39-.407 0-.793-.069-1.157-.208a2.772 2.772 0 0 1-.962-.65 3.278 3.278 0 0 1-.663-1.092c-.165-.442-.247-.962-.247-1.56 0-.589.082-1.101.247-1.534.165-.442.386-.806.663-1.092.277-.295.598-.511.962-.65a3.163 3.163 0 0 1 1.17-.221c.511 0 .953.108 1.326.325.373.208.672.507.897.897v-3.666h1.144V194h-1.001l-.091-1.326Zm-2.119.429c.295 0 .568-.048.819-.143.251-.104.468-.26.65-.468a2.13 2.13 0 0 0 .442-.78c.113-.312.169-.676.169-1.092 0-.416-.056-.78-.169-1.092a2.13 2.13 0 0 0-.442-.78 1.613 1.613 0 0 0-.65-.455 2.119 2.119 0 0 0-.819-.156c-.598 0-1.088.212-1.469.637-.373.416-.559 1.031-.559 1.846 0 .823.191 1.443.572 1.859.381.416.867.624 1.456.624Z"/>
    <rect width="110" height="60" x="826" y="282" fill="#D6E1FF" rx="10"/>
    <path fill="#262626" d="m868.432 297.218 3.029-6.539h1.586V300h-1.235v-7.501l-2.86 6.071-.611.013h-.546l.013-.013-2.821-6.175V300h-1.157v-9.321h1.703l2.899 6.539Zm9.398 2.912c-.459 0-.888-.078-1.287-.234a3.002 3.002 0 0 1-1.04-.676 3.3 3.3 0 0 1-.676-1.105c-.164-.433-.247-.932-.247-1.495 0-.555.083-1.049.247-1.482.165-.442.39-.81.676-1.105.295-.295.642-.52 1.04-.676a3.503 3.503 0 0 1 1.287-.234c.468 0 .902.078 1.3.234a2.86 2.86 0 0 1 1.027.676c.295.295.525.663.689 1.105.174.433.26.927.26 1.482 0 .563-.086 1.062-.26 1.495a3.173 3.173 0 0 1-.689 1.105 2.86 2.86 0 0 1-1.027.676 3.534 3.534 0 0 1-1.3.234Zm0-1.027c.304 0 .581-.048.832-.143a1.9 1.9 0 0 0 .676-.455 2.13 2.13 0 0 0 .442-.78c.104-.312.156-.68.156-1.105 0-.425-.052-.793-.156-1.105a2.003 2.003 0 0 0-.442-.767 1.691 1.691 0 0 0-.676-.455 2.152 2.152 0 0 0-.832-.156c-.303 0-.58.052-.832.156a1.719 1.719 0 0 0-.663.455 2.107 2.107 0 0 0-.429.767c-.104.312-.156.68-.156 1.105 0 .425.052.793.156 1.105.104.312.247.572.429.78.191.199.412.351.663.455.252.095.529.143.832.143Zm9.507-.429a2.706 2.706 0 0 1-.871 1.066c-.373.26-.845.39-1.417.39-.407 0-.793-.069-1.157-.208a2.772 2.772 0 0 1-.962-.65 3.278 3.278 0 0 1-.663-1.092c-.165-.442-.247-.962-.247-1.56 0-.589.082-1.101.247-1.534.165-.442.386-.806.663-1.092.277-.295.598-.511.962-.65a3.163 3.163 0 0 1 1.17-.221c.511 0 .953.108 1.326.325.373.208.672.507.897.897v-3.666h1.144V300h-1.001l-.091-1.326Zm-2.119.429c.295 0 .568-.048.819-.143.251-.104.468-.26.65-.468a2.13 2.13 0 0 0 .442-.78c.113-.312.169-.676.169-1.092 0-.416-.056-.78-.169-1.092a2.13 2.13 0 0 0-.442-.78 1.613 1.613 0 0 0-.65-.455 2.119 2.119 0 0 0-.819-.156c-.598 0-1.088.212-1.469.637-.373.416-.559 1.031-.559 1.846 0 .823.191 1.443.572 1.859.381.416.867.624 1.456.624Zm10.447.325a3.605 3.605 0 0 1-.351.221 4.116 4.116 0 0 1-.507.234 4.275 4.275 0 0 1-.676.169 4.183 4.183 0 0 1-.845.078c-1.135 0-1.998-.308-2.587-.923-.589-.615-.884-1.478-.884-2.587 0-.546.078-1.036.234-1.469.165-.433.39-.797.676-1.092a2.816 2.816 0 0 1 1.014-.689c.39-.165.815-.247 1.274-.247.485 0 .919.082 1.3.247.381.165.693.407.936.728.251.321.42.719.507 1.196.095.468.095 1.014 0 1.638h-4.758c.043.728.26 1.274.65 1.638.39.355.971.533 1.742.533.52 0 .966-.074 1.339-.221.373-.147.685-.308.936-.481v1.027Zm-2.678-5.291c-.494 0-.919.152-1.274.455-.355.303-.581.763-.676 1.378h3.627c.035-.624-.108-1.083-.429-1.378-.321-.303-.737-.455-1.248-.455Zm5.346-3.458V300h-1.144v-9.321h1.144Zm-40.597 16h3.12c1.101 0 1.937.217 2.509.65.581.425.871 1.096.871 2.015 0 .815-.199 1.439-.598 1.872-.39.433-.906.719-1.547.858l2.535 3.926h-1.378l-2.431-3.783h-1.859V316h-1.222v-9.321Zm1.222 1.118v3.315h1.781c.329 0 .628-.03.897-.091.277-.061.511-.16.702-.299a1.34 1.34 0 0 0 .455-.546c.113-.234.169-.52.169-.858 0-.555-.182-.945-.546-1.17-.364-.234-.884-.351-1.56-.351h-1.898Zm12.268 7.631a3.605 3.605 0 0 1-.351.221 3.982 3.982 0 0 1-.507.234 4.248 4.248 0 0 1-.676.169 4.183 4.183 0 0 1-.845.078c-1.135 0-1.997-.308-2.587-.923-.589-.615-.884-1.478-.884-2.587 0-.546.078-1.036.234-1.469.165-.433.39-.797.676-1.092a2.816 2.816 0 0 1 1.014-.689c.39-.165.815-.247 1.274-.247.486 0 .919.082 1.3.247.382.165.694.407.936.728.252.321.421.719.507 1.196.096.468.096 1.014 0 1.638h-4.758c.044.728.26 1.274.65 1.638.39.355.971.533 1.742.533.52 0 .967-.074 1.339-.221.373-.147.685-.308.936-.481v1.027Zm-2.678-5.291a1.9 1.9 0 0 0-1.274.455c-.355.303-.58.763-.676 1.378h3.627c.035-.624-.108-1.083-.429-1.378-.32-.303-.736-.455-1.248-.455Zm10.001 5.291c0 .433-.065.828-.195 1.183a2.132 2.132 0 0 1-.598.923c-.269.251-.62.446-1.053.585-.425.139-.94.208-1.547.208-.329 0-.62-.017-.871-.052a4.022 4.022 0 0 1-.663-.143 2.42 2.42 0 0 1-.468-.182 2.193 2.193 0 0 1-.325-.182v-1.027c.139.078.282.147.429.208a3.835 3.835 0 0 0 1.118.299 5.4 5.4 0 0 0 .793.052c.832 0 1.413-.156 1.742-.468.329-.312.494-.776.494-1.391v-1.04a2.45 2.45 0 0 1-.845.962c-.355.243-.797.364-1.326.364-.399 0-.78-.069-1.144-.208a2.83 2.83 0 0 1-.949-.611 3.154 3.154 0 0 1-.65-1.027c-.156-.416-.234-.897-.234-1.443 0-.555.078-1.036.234-1.443.165-.416.381-.763.65-1.04.277-.277.598-.485.962-.624s.75-.208 1.157-.208c.537 0 .988.121 1.352.364.373.243.663.572.871.988l.013-.143c0-.156.009-.342.026-.559.017-.225.035-.399.052-.52h1.04a8.605 8.605 0 0 0-.052.52c-.009.225-.013.412-.013.559v5.096Zm-3.107-.728c.286 0 .546-.043.78-.13.243-.095.451-.238.624-.429.182-.191.321-.425.416-.702.104-.286.156-.62.156-1.001 0-.771-.191-1.348-.572-1.729-.373-.381-.845-.572-1.417-.572a2.26 2.26 0 0 0-.806.143 1.75 1.75 0 0 0-.637.429 2.117 2.117 0 0 0-.416.728c-.104.286-.156.62-.156 1.001 0 .381.052.715.156 1.001.104.277.247.511.429.702.182.182.394.321.637.416.251.095.52.143.806.143Zm5.549-6.435c-.234 0-.42-.069-.559-.208a.752.752 0 0 1-.208-.533.733.733 0 0 1 .767-.754c.226 0 .403.074.533.221.13.147.195.325.195.533a.777.777 0 0 1-.195.533c-.13.139-.307.208-.533.208Zm.559.988V316h-1.144v-6.747h1.144Zm4.023 6.877c-.355 0-.672-.03-.949-.091a4.446 4.446 0 0 1-.715-.195 3.938 3.938 0 0 1-.507-.26 3.382 3.382 0 0 1-.325-.247v-1.027c.087.087.204.182.351.286.147.095.325.186.533.273.208.087.442.16.702.221.269.052.568.078.897.078.485 0 .871-.078 1.157-.234.286-.156.429-.42.429-.793a.759.759 0 0 0-.143-.481.87.87 0 0 0-.364-.286 2.228 2.228 0 0 0-.546-.182 27.077 27.077 0 0 0-.637-.13 25.532 25.532 0 0 1-.845-.195 2.947 2.947 0 0 1-.754-.325 1.776 1.776 0 0 1-.546-.559c-.139-.234-.208-.537-.208-.91 0-.607.234-1.083.702-1.43.477-.347 1.14-.52 1.989-.52.477 0 .897.048 1.261.143.373.095.659.199.858.312v1.027a3.055 3.055 0 0 0-.845-.364c-.329-.104-.741-.156-1.235-.156-.511 0-.906.069-1.183.208-.269.139-.403.39-.403.754 0 .182.039.329.117.442a.924.924 0 0 0 .312.26c.139.061.295.108.468.143.173.035.355.074.546.117.295.061.598.126.91.195.312.069.589.178.832.325.251.147.455.347.611.598.165.243.247.572.247.988 0 .39-.078.715-.234.975-.156.26-.364.468-.624.624a2.677 2.677 0 0 1-.871.312c-.321.069-.65.104-.988.104Zm7.428-.273a2.077 2.077 0 0 1-.533.195 2.938 2.938 0 0 1-.689.078c-.329 0-.611-.048-.845-.143a1.634 1.634 0 0 1-.559-.377 1.626 1.626 0 0 1-.325-.546 2.286 2.286 0 0 1-.091-.637v-4.199h-.806v-.975h.806v-1.417h1.144v1.417h1.963v.975h-1.963v4.056c0 .286.07.494.208.624.148.13.403.195.767.195.338 0 .646-.095.923-.286v1.04Zm4.863-5.46a3.509 3.509 0 0 0-1.326.377c-.39.199-.68.511-.871.936V316h-1.144v-6.747h1.001l.117 1.469h.026a3.06 3.06 0 0 1 .819-1.04c.364-.303.824-.49 1.378-.559v1.274Zm4.837 5.525a7.766 7.766 0 0 1-.494 1.066 3.6 3.6 0 0 1-.585.793c-.217.217-.46.377-.728.481a2.367 2.367 0 0 1-.923.169c-.174 0-.334-.013-.481-.039a1.427 1.427 0 0 1-.403-.104v-1.105c.095.069.216.121.364.156.147.043.307.065.481.065.32 0 .585-.078.793-.234.208-.147.407-.386.598-.715l-2.743-7.202h1.261l2.145 5.694 2.132-5.694h1.105l-2.522 6.669Zm-39.154 16.208c-.356 0-.672-.03-.949-.091a4.446 4.446 0 0 1-.715-.195 3.81 3.81 0 0 1-.507-.26 3.382 3.382 0 0 1-.325-.247v-1.027c.086.087.203.182.351.286.147.095.325.186.533.273.208.087.442.16.702.221.268.052.567.078.897.078.485 0 .871-.078 1.157-.234.286-.156.429-.42.429-.793a.759.759 0 0 0-.143-.481.87.87 0 0 0-.364-.286 2.228 2.228 0 0 0-.546-.182c-.2-.043-.412-.087-.637-.13a25.532 25.532 0 0 1-.845-.195 2.931 2.931 0 0 1-.754-.325 1.755 1.755 0 0 1-.546-.559c-.139-.234-.208-.537-.208-.91 0-.607.234-1.083.702-1.43.476-.347 1.139-.52 1.989-.52.476 0 .897.048 1.261.143.372.095.658.199.858.312v1.027a3.068 3.068 0 0 0-.845-.364c-.33-.104-.741-.156-1.235-.156-.512 0-.906.069-1.183.208-.269.139-.403.39-.403.754 0 .182.039.329.117.442a.924.924 0 0 0 .312.26c.138.061.294.108.468.143.173.035.355.074.546.117.294.061.598.126.91.195.312.069.589.178.832.325.251.147.455.347.611.598.164.243.247.572.247.988 0 .39-.078.715-.234.975-.156.26-.364.468-.624.624a2.685 2.685 0 0 1-.871.312c-.321.069-.65.104-.988.104Zm9.495-.702a3.867 3.867 0 0 1-.858.455c-.2.069-.425.126-.676.169a4.19 4.19 0 0 1-.845.078c-1.136 0-1.998-.308-2.587-.923-.59-.615-.884-1.478-.884-2.587 0-.546.078-1.036.234-1.469.164-.433.39-.797.676-1.092a2.816 2.816 0 0 1 1.014-.689c.39-.165.814-.247 1.274-.247.485 0 .918.082 1.3.247.381.165.693.407.936.728.251.321.42.719.507 1.196.095.468.095 1.014 0 1.638h-4.758c.043.728.26 1.274.65 1.638.39.355.97.533 1.742.533.52 0 .966-.074 1.339-.221.372-.147.684-.308.936-.481v1.027Zm-2.678-5.291c-.494 0-.919.152-1.274.455-.356.303-.581.763-.676 1.378h3.627c.034-.624-.109-1.083-.429-1.378-.321-.303-.737-.455-1.248-.455Zm7.543.26a3.509 3.509 0 0 0-1.326.377c-.39.199-.68.511-.871.936V332h-1.144v-6.747h1.001l.117 1.469h.026a3.06 3.06 0 0 1 .819-1.04c.364-.303.824-.49 1.378-.559v1.274Zm4.939 5.603H881l-2.314-6.747h1.235l2.054 6.136 2.041-6.136h1.144L882.846 332Zm3.96-7.735c-.234 0-.421-.069-.559-.208a.748.748 0 0 1-.208-.533c0-.208.069-.386.208-.533.138-.147.325-.221.559-.221.225 0 .403.074.533.221.13.147.195.325.195.533a.777.777 0 0 1-.195.533c-.13.139-.308.208-.533.208Zm.559.988V332h-1.144v-6.747h1.144Zm4.776 6.877c-.52 0-.992-.078-1.417-.234a3.103 3.103 0 0 1-1.066-.689 3.048 3.048 0 0 1-.676-1.105 4.357 4.357 0 0 1-.234-1.482c0-.546.078-1.036.234-1.469.165-.433.395-.797.689-1.092a2.861 2.861 0 0 1 1.079-.689 3.963 3.963 0 0 1 1.443-.247c.416 0 .798.048 1.144.143.347.087.633.217.858.39v1.027a3.032 3.032 0 0 0-.936-.403 3.873 3.873 0 0 0-1.053-.143c-.788 0-1.369.204-1.742.611-.364.407-.546 1.031-.546 1.872 0 .841.178 1.465.533 1.872.356.407.919.611 1.69.611.408 0 .78-.048 1.118-.143.347-.104.659-.234.936-.39v1.027a3.984 3.984 0 0 1-2.054.533Zm8.818-.702a3.867 3.867 0 0 1-.858.455c-.2.069-.425.126-.676.169a4.19 4.19 0 0 1-.845.078c-1.136 0-1.998-.308-2.587-.923-.59-.615-.884-1.478-.884-2.587 0-.546.078-1.036.234-1.469.164-.433.39-.797.676-1.092a2.816 2.816 0 0 1 1.014-.689c.39-.165.814-.247 1.274-.247.485 0 .918.082 1.3.247.381.165.693.407.936.728.251.321.42.719.507 1.196.095.468.095 1.014 0 1.638h-4.758c.043.728.26 1.274.65 1.638.39.355.97.533 1.742.533.52 0 .966-.074 1.339-.221.372-.147.684-.308.936-.481v1.027Zm-2.678-5.291c-.494 0-.919.152-1.274.455-.356.303-.581.763-.676 1.378h3.627c.034-.624-.109-1.083-.429-1.378-.321-.303-.737-.455-1.248-.455Z"/>
    <rect width="108" height="58" x="350" y="23" fill="#fff" rx="9"/>
    <rect width="108" height="58" x="350" y="23" stroke="#5282FF" stroke-width="2" rx="9"/>
    <path fill="#262626" d="M368.117 46.679h5.772v1.118h-4.55v2.821h3.861v1.105h-3.861v3.172h4.615V56h-5.837v-9.321ZM376.874 56h-1.144v-6.747h1.001l.117 1.209h.026c.182-.381.455-.698.819-.949.364-.26.841-.39 1.43-.39.52 0 .945.126 1.274.377.338.243.564.611.676 1.105a2.34 2.34 0 0 1 .871-1.079c.399-.269.88-.403 1.443-.403.624 0 1.118.178 1.482.533.364.347.546.884.546 1.612V56h-1.157v-4.589c0-.442-.108-.763-.325-.962-.216-.208-.511-.312-.884-.312-.251 0-.472.039-.663.117-.19.07-.359.169-.507.299-.147.13-.281.282-.403.455a5.825 5.825 0 0 0-.338.546V56h-1.144v-4.719c0-.433-.108-.732-.325-.897-.216-.165-.511-.247-.884-.247-.242 0-.459.03-.65.091-.19.06-.364.147-.52.26a2.074 2.074 0 0 0-.403.416 3.87 3.87 0 0 0-.338.52V56Zm16.742-3.38c0 .598-.082 1.118-.247 1.56a3.272 3.272 0 0 1-.663 1.092 2.777 2.777 0 0 1-.962.65 3.184 3.184 0 0 1-1.144.208c-.52 0-.975-.121-1.365-.364a2.664 2.664 0 0 1-.91-1.04L388.286 56h-1.079v-9.321h1.144l-.026 3.887c.225-.442.529-.793.91-1.053.381-.26.854-.39 1.417-.39.39 0 .763.074 1.118.221.364.139.68.355.949.65.277.286.494.65.65 1.092.165.433.247.945.247 1.534Zm-3.185 2.483c.598 0 1.079-.204 1.443-.611.373-.416.559-1.04.559-1.872 0-.815-.186-1.43-.559-1.846-.364-.425-.845-.637-1.443-.637-.295 0-.572.052-.832.156-.251.104-.472.26-.663.468-.182.2-.329.455-.442.767a3.457 3.457 0 0 0-.156 1.092c0 .416.052.78.156 1.092.113.312.26.572.442.78.191.208.412.364.663.468.26.095.537.143.832.143Zm9.94.325c-.095.07-.212.143-.351.221a4.116 4.116 0 0 1-.507.234c-.199.07-.425.126-.676.169a4.183 4.183 0 0 1-.845.078c-1.135 0-1.998-.308-2.587-.923-.589-.615-.884-1.478-.884-2.587 0-.546.078-1.036.234-1.469.165-.433.39-.797.676-1.092a2.813 2.813 0 0 1 1.014-.689c.39-.165.815-.247 1.274-.247.485 0 .919.082 1.3.247.381.165.693.407.936.728.251.32.42.72.507 1.196.095.468.095 1.014 0 1.638h-4.758c.043.728.26 1.274.65 1.638.39.355.971.533 1.742.533.52 0 .966-.074 1.339-.221.373-.147.685-.308.936-.481v1.027Zm-2.678-5.291c-.494 0-.919.152-1.274.455-.355.303-.581.763-.676 1.378h3.627c.035-.624-.108-1.083-.429-1.378-.321-.303-.737-.455-1.248-.455Zm9.038 4.537a2.704 2.704 0 0 1-.871 1.066c-.372.26-.845.39-1.417.39-.407 0-.793-.07-1.157-.208a2.786 2.786 0 0 1-.962-.65 3.272 3.272 0 0 1-.663-1.092c-.164-.442-.247-.962-.247-1.56 0-.59.083-1.1.247-1.534.165-.442.386-.806.663-1.092.278-.295.598-.511.962-.65a3.157 3.157 0 0 1 1.17-.221c.512 0 .954.108 1.326.325.373.208.672.507.897.897v-3.666h1.144V56h-1.001l-.091-1.326Zm-2.119.429c.295 0 .568-.048.819-.143a1.73 1.73 0 0 0 .65-.468 2.13 2.13 0 0 0 .442-.78c.113-.312.169-.676.169-1.092 0-.416-.056-.78-.169-1.092a2.13 2.13 0 0 0-.442-.78 1.609 1.609 0 0 0-.65-.455 2.119 2.119 0 0 0-.819-.156c-.598 0-1.087.212-1.469.637-.372.416-.559 1.031-.559 1.846 0 .823.191 1.443.572 1.859.382.416.867.624 1.456.624Zm9.914-.429a2.704 2.704 0 0 1-.871 1.066c-.372.26-.845.39-1.417.39-.407 0-.793-.07-1.157-.208a2.786 2.786 0 0 1-.962-.65 3.272 3.272 0 0 1-.663-1.092c-.164-.442-.247-.962-.247-1.56 0-.59.083-1.1.247-1.534.165-.442.386-.806.663-1.092.278-.295.598-.511.962-.65a3.157 3.157 0 0 1 1.17-.221c.512 0 .954.108 1.326.325.373.208.672.507.897.897v-3.666h1.144V56h-1.001l-.091-1.326Zm-2.119.429c.295 0 .568-.048.819-.143a1.73 1.73 0 0 0 .65-.468 2.13 2.13 0 0 0 .442-.78c.113-.312.169-.676.169-1.092 0-.416-.056-.78-.169-1.092a2.13 2.13 0 0 0-.442-.78 1.609 1.609 0 0 0-.65-.455 2.119 2.119 0 0 0-.819-.156c-.598 0-1.087.212-1.469.637-.372.416-.559 1.031-.559 1.846 0 .823.191 1.443.572 1.859.382.416.867.624 1.456.624Zm5.663-6.838c-.234 0-.42-.07-.559-.208a.753.753 0 0 1-.208-.533.733.733 0 0 1 .767-.754c.226 0 .403.074.533.221.13.147.195.325.195.533a.778.778 0 0 1-.195.533c-.13.139-.307.208-.533.208Zm.559.988V56h-1.144v-6.747h1.144Zm5.063.884c-.52 0-.945.121-1.274.364a2.652 2.652 0 0 0-.78.91V56h-1.144v-6.747h1.079l.039 1.209h.026c.182-.39.468-.71.858-.962.39-.251.884-.377 1.482-.377.667 0 1.196.178 1.586.533.399.347.598.884.598 1.612V56h-1.144v-4.615c0-.468-.117-.793-.351-.975-.234-.182-.559-.273-.975-.273Zm10.078 5.291c0 .433-.065.828-.195 1.183a2.143 2.143 0 0 1-.598.923c-.269.251-.62.446-1.053.585-.425.139-.941.208-1.547.208-.33 0-.62-.017-.871-.052a3.977 3.977 0 0 1-.663-.143 2.4 2.4 0 0 1-.468-.182 2.143 2.143 0 0 1-.325-.182v-1.027c.138.078.281.147.429.208a3.814 3.814 0 0 0 1.118.299 5.4 5.4 0 0 0 .793.052c.832 0 1.412-.156 1.742-.468.329-.312.494-.776.494-1.391v-1.04c-.2.399-.481.72-.845.962-.356.243-.798.364-1.326.364a3.2 3.2 0 0 1-1.144-.208 2.82 2.82 0 0 1-.949-.611 3.138 3.138 0 0 1-.65-1.027c-.156-.416-.234-.897-.234-1.443 0-.555.078-1.036.234-1.443a3.11 3.11 0 0 1 .65-1.04 2.71 2.71 0 0 1 .962-.624 3.219 3.219 0 0 1 1.157-.208c.537 0 .988.121 1.352.364.372.243.663.572.871.988l.013-.143c0-.156.008-.342.026-.559a7.85 7.85 0 0 1 .052-.52h1.04a7.85 7.85 0 0 0-.052.52c-.009.225-.013.412-.013.559v5.096Zm-3.107-.728c.286 0 .546-.043.78-.13.242-.095.45-.238.624-.429a1.9 1.9 0 0 0 .416-.702c.104-.286.156-.62.156-1.001 0-.771-.191-1.348-.572-1.729-.373-.381-.845-.572-1.417-.572a2.26 2.26 0 0 0-.806.143 1.758 1.758 0 0 0-.637.429c-.174.19-.312.433-.416.728-.104.286-.156.62-.156 1.001 0 .381.052.715.156 1.001.104.277.247.511.429.702.182.182.394.32.637.416.251.095.52.143.806.143Zm7.122 1.43c-.355 0-.672-.03-.949-.091a4.446 4.446 0 0 1-.715-.195 3.938 3.938 0 0 1-.507-.26 3.382 3.382 0 0 1-.325-.247V54.31c.087.087.204.182.351.286.147.095.325.186.533.273.208.087.442.16.702.221.269.052.568.078.897.078.485 0 .871-.078 1.157-.234.286-.156.429-.42.429-.793 0-.2-.048-.36-.143-.481a.87.87 0 0 0-.364-.286 2.24 2.24 0 0 0-.546-.182 27.077 27.077 0 0 0-.637-.13c-.286-.06-.568-.126-.845-.195a2.957 2.957 0 0 1-.754-.325 1.776 1.776 0 0 1-.546-.559c-.139-.234-.208-.537-.208-.91 0-.607.234-1.083.702-1.43.477-.347 1.14-.52 1.989-.52a5 5 0 0 1 1.261.143c.373.095.659.2.858.312v1.027a3.055 3.055 0 0 0-.845-.364c-.329-.104-.741-.156-1.235-.156-.511 0-.906.07-1.183.208-.269.139-.403.39-.403.754 0 .182.039.33.117.442.078.104.182.19.312.26.139.06.295.108.468.143.173.035.355.074.546.117.295.06.598.126.91.195.312.07.589.178.832.325.251.147.455.347.611.598.165.243.247.572.247.988 0 .39-.078.715-.234.975-.156.26-.364.468-.624.624a2.663 2.663 0 0 1-.871.312c-.321.07-.65.104-.988.104Z"/>
    <path fill="#4E496B" fill-rule="evenodd" d="M28 45a5 5 0 1 1-10 0 5 5 0 0 1 10 0Zm2 0a7 7 0 1 1-14 0 7 7 0 0 1 14 0ZM11 61c0-.94.819-2.412 3.13-3.778C16.333 55.919 19.476 55 23 55c3.524 0 6.667.92 8.87 2.222C34.18 58.588 35 60.06 35 61a3 3 0 0 1-3 3H14a3 3 0 0 1-3-3Zm12-8c-7.7 0-14 4-14 8a5 5 0 0 0 5 5h18a5 5 0 0 0 5-5c0-4-6.3-8-14-8Zm547.266-10a.97.97 0 0 0-.945.751l-2.707 11.73h7.303l-2.707-11.73a.97.97 0 0 0-.944-.751Zm4.112 14.481 1.178 5.106a1.001 1.001 0 0 0 1.949-.45l-4.346-18.836a2.97 2.97 0 0 0-5.786 0l-4.347 18.836a1 1 0 1 0 1.949.45l1.178-5.106h8.225ZM584.929 41a1 1 0 0 1 1 1v20.362a1 1 0 0 1-2 0V42a1 1 0 0 1 1-1Zm352.337 132a.97.97 0 0 0-.945.751l-2.707 11.73h7.303l-2.707-11.73a.969.969 0 0 0-.944-.751Zm4.112 14.481 1.178 5.106a1.001 1.001 0 0 0 1.949-.45l-4.346-18.836a2.97 2.97 0 0 0-5.786 0l-4.347 18.836a1.001 1.001 0 0 0 1.949.45l1.178-5.106h8.225ZM951.929 171a1 1 0 0 1 1 1v20.362a1 1 0 0 1-2 0V172a1 1 0 0 1 1-1Z" clip-rule="evenodd"/>
    <path fill="#4E496B" d="m132 52-10-5.773v11.547L132 52Zm-93 1h84v-2H39v2Zm305-1-10-5.773v11.547L344 52Zm-92 1h83v-2h-83v2Zm569 259-10-5.774v11.547L821 312Zm-92 1h83v-2h-83v2Z"/>
    <path stroke="#C6C6C6" stroke-dasharray="6 2" stroke-width="2" d="M876 346v45c0 5.523-4.477 10-10 10H683m-322 77v-67c0-5.523 4.477-10 10-10h130m10 0h47m10 0h76"/>
    <path fill="#4E496B" d="m557 52-10-5.773v11.547L557 52Zm-93 1h84v-2h-84v2Zm464 129-10-5.773v11.547L928 182Zm-93 1h84v-2h-84v2Zm-60-36-5.774-10h11.548L775 147Zm-573-33.903v1-1ZM774 138v-14.903h2V138h-2Zm-583-34.903V86h2v17.097h-2Zm574 11H202v-2h563v2Zm-572-11a9 9 0 0 0 9 9v2c-6.075 0-11-4.925-11-11h2Zm581 20a9 9 0 0 0-9-9v-2c6.075 0 11 4.925 11 11h-2Z"/>
    <path fill="#4E496B" d="m563 147-5.774-10h11.548L563 147Zm-10-33.903v1-1ZM562 138v-14.903h2V138h-2Zm-371-34.903V86h2v17.097h-2Zm362 11H202v-2h351v2Zm-360-11a9 9 0 0 0 9 9v2c-6.075 0-11-4.925-11-11h2Zm369 20a9 9 0 0 0-9-9v-2c6.075 0 11 4.925 11 11h-2Z"/>
    <path fill="#4E496B" d="m351 147-5.774-10h11.548L351 147Zm-1-9v-14.903h2V138h-2Zm-159-34.903V86h2v17.097h-2Zm150 11H202v-2h139v2Zm-148-11a9 9 0 0 0 9 9v2c-6.075 0-11-4.925-11-11h2Zm157 20a9 9 0 0 0-9-9v-2c6.075 0 11 4.925 11 11h-2Z"/>
    <path stroke="#C6C6C6" stroke-dasharray="6 2" stroke-width="2" d="M457 347v5c0 5.523 4.477 10 10 10h83m110 116V372c0-5.523-4.477-10-10-10h-83"/>
    <path stroke="#C6C6C6" stroke-dasharray="6 2" stroke-width="2" d="M554 217v164c0 5.523-4.477 10-10 10h-33m-160 87v-77c0-5.523 4.477-10 10-10h140m71-174v126c0 5.523 4.477 10 10 10h77c5.523 0 10 4.477 10 10v115"/>
    <path stroke="#C6C6C6" stroke-dasharray="6 2" stroke-width="2" d="M650 478v-96c0-5.523-4.477-10-10-10h-73M361 217v145c0 5.523 4.477 10 10 10h179"/>
    <path stroke="#C6C6C6" stroke-dasharray="6 2" stroke-width="2" d="M506 439v-47c0-5.523-4.477-10-10-10H361c-5.523 0-10-4.477-10-10V217m164 222v-18c0-5.523 4.477-10 10-10h28c5.523 0 10-4.477 10-10V217m-75 241h-48.475c-5.522 0-10 4.477-10 10v20c0 5.523-4.477 10-10 10H368M141 216v146c0 5.523 4.477 10 10 10h172c5.523 0 10 4.477 10 10v96m554-132v54c0 5.523-4.477 10-10 10H697c-5.523 0-10 4.477-10 10v58"/>
    <path fill="#4E496B" fill-rule="evenodd" d="M358.649 492.683c1.808-.832 2.351-1.784 2.351-2.683 0-.112-.008-.226-.027-.339-.128-.796-.742-1.616-2.324-2.344-1.813-.835-4.494-1.317-7.649-1.317-3.155 0-5.836.482-7.649 1.317-1.808.832-2.351 1.784-2.351 2.683 0 .899.543 1.851 2.351 2.683 1.813.835 4.494 1.317 7.649 1.317 3.155 0 5.836-.482 7.649-1.317Zm2.351.937c-2.15 1.587-5.826 2.38-10 2.38s-7.85-.793-10-2.38V498c0 .899.543 1.851 2.351 2.683 1.813.835 4.494 1.317 7.649 1.317 3.155 0 5.836-.482 7.649-1.317 1.808-.832 2.351-1.784 2.351-2.683v-4.38Zm0 8c-2.15 1.587-5.826 2.38-10 2.38s-7.85-.793-10-2.38V506c0 .899.543 1.851 2.351 2.683 1.813.835 4.494 1.317 7.649 1.317 3.155 0 5.836-.482 7.649-1.317 1.808-.832 2.351-1.784 2.351-2.683v-4.38Zm1.756-13.026C361.637 485.531 356.799 484 351 484c-6.576 0-11.916 1.969-11.999 5.907l-.001.09V506c0 4 5.373 6 12 6s12-2 12-6v-16c0-.5-.084-.969-.244-1.406Zm313.893 4.089c1.808-.832 2.351-1.784 2.351-2.683 0-.112-.008-.226-.027-.339-.128-.796-.742-1.616-2.324-2.344-1.813-.835-4.494-1.317-7.649-1.317-3.155 0-5.836.482-7.649 1.317-1.808.832-2.351 1.784-2.351 2.683 0 .899.543 1.851 2.351 2.683 1.813.835 4.494 1.317 7.649 1.317 3.155 0 5.836-.482 7.649-1.317Zm2.351.937c-2.15 1.587-5.826 2.38-10 2.38s-7.85-.793-10-2.38V498c0 .899.543 1.851 2.351 2.683 1.813.835 4.494 1.317 7.649 1.317 3.155 0 5.836-.482 7.649-1.317 1.808-.832 2.351-1.784 2.351-2.683v-4.38Zm0 8c-2.15 1.587-5.826 2.38-10 2.38s-7.85-.793-10-2.38V506c0 .899.543 1.851 2.351 2.683 1.813.835 4.494 1.317 7.649 1.317 3.155 0 5.836-.482 7.649-1.317 1.808-.832 2.351-1.784 2.351-2.683v-4.38Zm1.756-13.026C679.637 485.531 674.799 484 669 484c-6.576 0-11.916 1.969-11.999 5.907l-.001.09V506c0 4 5.373 6 12 6s12-2 12-6v-16c0-.5-.084-.969-.244-1.406Z" clip-rule="evenodd"/>
    <path stroke="#C6C6C6" stroke-dasharray="6 2" stroke-width="2" d="M342 478V217m336 261V346"/>
    <path fill="#262626" d="M91.305 15.679h3.12c1.101 0 1.937.217 2.51.65.58.425.87 1.096.87 2.015 0 .815-.199 1.439-.598 1.872-.39.433-.905.72-1.547.858L98.195 25h-1.378l-2.43-3.783h-1.86V25h-1.222v-9.321Zm1.222 1.118v3.315h1.781c.33 0 .629-.03.897-.091.278-.06.512-.16.702-.299.2-.139.351-.32.455-.546.113-.234.17-.52.17-.858 0-.555-.183-.945-.547-1.17-.364-.234-.884-.351-1.56-.351h-1.898Zm7.246-1.118h5.772v1.118h-4.55v2.821h3.861v1.105h-3.861v3.172h4.615V25h-5.837v-9.321Zm10.306 9.451c-.424 0-.806-.03-1.144-.091a5.489 5.489 0 0 1-.897-.208 4.634 4.634 0 0 1-.65-.299 2.596 2.596 0 0 1-.416-.325v-1.17c.13.113.299.23.507.351.208.113.447.217.715.312.278.095.572.173.884.234.321.06.655.091 1.001.091.676 0 1.214-.126 1.612-.377.399-.26.598-.65.598-1.17 0-.26-.047-.472-.143-.637a1.157 1.157 0 0 0-.416-.429 2.415 2.415 0 0 0-.689-.299 17.698 17.698 0 0 0-.949-.273 17.368 17.368 0 0 1-1.092-.325 4.029 4.029 0 0 1-.988-.481c-.286-.2-.52-.45-.702-.754-.173-.303-.26-.689-.26-1.157 0-.806.282-1.434.845-1.885.564-.45 1.426-.676 2.587-.676.338 0 .637.022.897.065.269.035.503.082.702.143.208.052.386.113.533.182.156.07.295.134.416.195v1.17a3.645 3.645 0 0 0-1.183-.494 5.622 5.622 0 0 0-1.365-.156c-.416 0-.767.035-1.053.104a1.87 1.87 0 0 0-.676.273 1.08 1.08 0 0 0-.377.442 1.41 1.41 0 0 0-.117.585c0 .26.057.477.169.65.122.173.278.32.468.442.2.113.425.208.676.286.252.078.516.147.793.208.364.087.737.186 1.118.299.382.113.724.269 1.027.468.304.2.551.46.741.78.2.312.299.72.299 1.222 0 .494-.099.914-.299 1.261-.19.338-.446.615-.767.832a3.23 3.23 0 0 1-1.105.468 5.802 5.802 0 0 1-1.3.143Zm8.423-8.32V25h-1.235v-8.19h-2.873v-1.131h6.981v1.131h-2.873ZM96.344 38.428c0 .433-.065.828-.195 1.183-.121.364-.32.672-.598.923-.268.251-.62.446-1.053.585-.424.139-.94.208-1.547.208-.329 0-.62-.017-.87-.052a4.003 4.003 0 0 1-.664-.143 2.4 2.4 0 0 1-.468-.182 2.172 2.172 0 0 1-.325-.182v-1.027c.139.078.282.147.43.208a3.827 3.827 0 0 0 1.118.299c.233.035.498.052.792.052.832 0 1.413-.156 1.742-.468.33-.312.494-.776.494-1.391v-1.04c-.199.399-.48.72-.845.962-.355.243-.797.364-1.326.364-.398 0-.78-.07-1.144-.208a2.83 2.83 0 0 1-.949-.611 3.153 3.153 0 0 1-.65-1.027c-.156-.416-.234-.897-.234-1.443 0-.555.078-1.036.234-1.443a3.14 3.14 0 0 1 .65-1.04c.278-.277.598-.485.962-.624s.75-.208 1.157-.208c.538 0 .988.121 1.352.364.373.243.663.572.871.988l.013-.143c0-.156.009-.342.026-.559a9.52 9.52 0 0 1 .052-.52h1.04a8.523 8.523 0 0 0-.052.52c-.008.225-.013.412-.013.559v5.096Zm-3.107-.728c.286 0 .546-.043.78-.13.243-.095.451-.238.624-.429.182-.19.321-.425.416-.702.104-.286.156-.62.156-1.001 0-.771-.19-1.348-.572-1.729-.372-.381-.845-.572-1.417-.572-.286 0-.554.048-.806.143a1.76 1.76 0 0 0-.637.429 2.11 2.11 0 0 0-.416.728c-.104.286-.156.62-.156 1.001 0 .381.052.715.156 1.001.104.277.247.511.43.702.181.182.394.32.636.416.252.095.52.143.806.143Zm5.12-8.021h3.121c1.1 0 1.937.217 2.509.65.58.425.871 1.096.871 2.015 0 .815-.2 1.439-.598 1.872-.39.433-.906.72-1.547.858L105.248 39h-1.378l-2.431-3.783h-1.86V39h-1.221v-9.321Zm1.223 1.118v3.315h1.781c.329 0 .628-.03.897-.091.277-.06.511-.16.702-.299.199-.139.351-.32.455-.546.112-.234.169-.52.169-.858 0-.555-.182-.945-.546-1.17-.364-.234-.884-.351-1.56-.351H99.58Zm7.245-1.118h2.977c1.058 0 1.877.221 2.457.663.59.433.884 1.114.884 2.041 0 .529-.086.984-.26 1.365-.164.373-.398.68-.702.923-.303.243-.667.42-1.092.533a5.314 5.314 0 0 1-1.391.169h-1.651V39h-1.222v-9.321Zm1.222 1.118v3.471h1.651c.33 0 .629-.035.897-.104.269-.07.499-.178.689-.325.2-.147.351-.338.455-.572a2.05 2.05 0 0 0 .169-.871c0-.563-.182-.97-.546-1.222-.364-.251-.884-.377-1.56-.377h-1.755Zm10.756 8.333c-.693 0-1.322-.108-1.885-.325a4.127 4.127 0 0 1-1.456-.936 4.285 4.285 0 0 1-.923-1.508c-.217-.598-.325-1.27-.325-2.015 0-.754.1-1.426.299-2.015a3.95 3.95 0 0 1 .884-1.495 3.8 3.8 0 0 1 1.43-.949c.572-.217 1.222-.325 1.95-.325.633 0 1.187.07 1.664.208.477.13.867.286 1.17.468v1.17a4.315 4.315 0 0 0-1.352-.559 6.358 6.358 0 0 0-1.495-.182c-1.101 0-1.915.308-2.444.923-.52.607-.78 1.525-.78 2.756 0 1.24.282 2.162.845 2.769.572.607 1.413.91 2.522.91.477 0 .94-.065 1.391-.195.459-.13.897-.351 1.313-.663v1.17c-.251.2-.62.381-1.105.546-.477.165-1.044.247-1.703.247Zm198.129 485.549h2.977c1.058 0 1.877.221 2.457.663.59.433.884 1.114.884 2.041 0 .529-.086.984-.26 1.365-.164.373-.398.68-.702.923-.303.243-.667.42-1.092.533a5.302 5.302 0 0 1-1.391.169h-1.651V534h-1.222v-9.321Zm1.222 1.118v3.471h1.651c.33 0 .629-.035.897-.104.269-.069.499-.178.689-.325.2-.147.351-.338.455-.572a2.05 2.05 0 0 0 .169-.871c0-.563-.182-.971-.546-1.222-.364-.251-.884-.377-1.56-.377h-1.755Zm9.072 8.333c-.459 0-.888-.078-1.287-.234a2.993 2.993 0 0 1-1.04-.676 3.3 3.3 0 0 1-.676-1.105c-.165-.433-.247-.932-.247-1.495 0-.555.082-1.049.247-1.482.165-.442.39-.81.676-1.105.295-.295.641-.52 1.04-.676a3.503 3.503 0 0 1 1.287-.234c.468 0 .901.078 1.3.234a2.86 2.86 0 0 1 1.027.676c.295.295.524.663.689 1.105.173.433.26.927.26 1.482 0 .563-.087 1.062-.26 1.495a3.188 3.188 0 0 1-.689 1.105 2.86 2.86 0 0 1-1.027.676 3.538 3.538 0 0 1-1.3.234Zm0-1.027c.303 0 .581-.048.832-.143.26-.104.485-.256.676-.455a2.13 2.13 0 0 0 .442-.78c.104-.312.156-.68.156-1.105 0-.425-.052-.793-.156-1.105a2.003 2.003 0 0 0-.442-.767 1.698 1.698 0 0 0-.676-.455 2.156 2.156 0 0 0-.832-.156c-.303 0-.581.052-.832.156a1.719 1.719 0 0 0-.663.455 2.107 2.107 0 0 0-.429.767c-.104.312-.156.68-.156 1.105 0 .425.052.793.156 1.105.104.312.247.572.429.78.191.199.412.351.663.455.251.095.529.143.832.143Zm6.828 1.027a4.45 4.45 0 0 1-.949-.091 4.475 4.475 0 0 1-.715-.195 3.938 3.938 0 0 1-.507-.26 3.514 3.514 0 0 1-.325-.247v-1.027c.087.087.204.182.351.286.148.095.325.186.533.273.208.087.442.16.702.221.269.052.568.078.897.078.486 0 .871-.078 1.157-.234.286-.156.429-.42.429-.793 0-.199-.047-.36-.143-.481a.864.864 0 0 0-.364-.286 2.228 2.228 0 0 0-.546-.182 26.073 26.073 0 0 0-.637-.13 26.13 26.13 0 0 1-.845-.195 2.962 2.962 0 0 1-.754-.325 1.776 1.776 0 0 1-.546-.559c-.138-.234-.208-.537-.208-.91 0-.607.234-1.083.702-1.43.477-.347 1.14-.52 1.989-.52.477 0 .897.048 1.261.143.373.095.659.199.858.312v1.027a3.055 3.055 0 0 0-.845-.364c-.329-.104-.741-.156-1.235-.156-.511 0-.905.069-1.183.208-.268.139-.403.39-.403.754 0 .182.039.329.117.442a.924.924 0 0 0 .312.26c.139.061.295.108.468.143.174.035.356.074.546.117.295.061.598.126.91.195.312.069.59.178.832.325.252.147.455.347.611.598.165.243.247.572.247.988 0 .39-.078.715-.234.975-.156.26-.364.468-.624.624a2.668 2.668 0 0 1-.871.312 4.68 4.68 0 0 1-.988.104Zm7.429-.273a2.105 2.105 0 0 1-.533.195 2.95 2.95 0 0 1-.689.078c-.33 0-.611-.048-.845-.143a1.615 1.615 0 0 1-.559-.377 1.594 1.594 0 0 1-.325-.546 2.25 2.25 0 0 1-.091-.637v-4.199h-.806v-.975h.806v-1.417h1.144v1.417h1.963v.975h-1.963v4.056c0 .286.069.494.208.624.147.13.403.195.767.195.338 0 .645-.095.923-.286v1.04Zm7.256-.429c0 .433-.065.828-.195 1.183-.121.364-.32.672-.598.923-.268.251-.619.446-1.053.585-.424.139-.94.208-1.547.208-.329 0-.619-.017-.871-.052a4.022 4.022 0 0 1-.663-.143 2.42 2.42 0 0 1-.468-.182 2.193 2.193 0 0 1-.325-.182v-1.027c.139.078.282.147.429.208a3.835 3.835 0 0 0 1.118.299c.234.035.499.052.793.052.832 0 1.413-.156 1.742-.468.33-.312.494-.776.494-1.391v-1.04a2.45 2.45 0 0 1-.845.962c-.355.243-.797.364-1.326.364-.398 0-.78-.069-1.144-.208a2.84 2.84 0 0 1-.949-.611 3.171 3.171 0 0 1-.65-1.027c-.156-.416-.234-.897-.234-1.443 0-.555.078-1.036.234-1.443a3.14 3.14 0 0 1 .65-1.04c.278-.277.598-.485.962-.624s.75-.208 1.157-.208c.538 0 .988.121 1.352.364.373.243.663.572.871.988l.013-.143c0-.156.009-.342.026-.559a9.52 9.52 0 0 1 .052-.52h1.04a9.52 9.52 0 0 0-.052.52c-.008.225-.013.412-.013.559v5.096Zm-3.107-.728c.286 0 .546-.043.78-.13.243-.095.451-.238.624-.429.182-.191.321-.425.416-.702.104-.286.156-.62.156-1.001 0-.771-.19-1.348-.572-1.729-.372-.381-.845-.572-1.417-.572-.286 0-.554.048-.806.143a1.759 1.759 0 0 0-.637.429 2.117 2.117 0 0 0-.416.728c-.104.286-.156.62-.156 1.001 0 .381.052.715.156 1.001.104.277.247.511.429.702.182.182.395.321.637.416.252.095.52.143.806.143Zm8.306-4.303a3.499 3.499 0 0 0-1.326.377 1.87 1.87 0 0 0-.871.936V534h-1.144v-6.747h1.001l.117 1.469h.026c.19-.399.463-.745.819-1.04.364-.303.823-.49 1.378-.559v1.274Zm6.573 5.031a3.867 3.867 0 0 1-.858.455c-.2.069-.425.126-.676.169a4.19 4.19 0 0 1-.845.078c-1.136 0-1.998-.308-2.587-.923-.59-.615-.884-1.478-.884-2.587 0-.546.078-1.036.234-1.469.164-.433.39-.797.676-1.092a2.816 2.816 0 0 1 1.014-.689c.39-.165.814-.247 1.274-.247.485 0 .918.082 1.3.247.381.165.693.407.936.728.251.321.42.719.507 1.196.095.468.095 1.014 0 1.638h-4.758c.043.728.26 1.274.65 1.638.39.355.97.533 1.742.533.52 0 .966-.074 1.339-.221.372-.147.684-.308.936-.481v1.027Zm-2.678-5.291c-.494 0-.919.152-1.274.455-.356.303-.581.763-.676 1.378h3.627c.034-.624-.109-1.083-.429-1.378-.321-.303-.737-.455-1.248-.455Zm6.958 5.993c-.425 0-.806-.03-1.144-.091a5.458 5.458 0 0 1-.897-.208 4.6 4.6 0 0 1-.65-.299 2.613 2.613 0 0 1-.416-.325v-1.17c.13.113.299.23.507.351.208.113.446.217.715.312.277.095.572.173.884.234.321.061.654.091 1.001.091.676 0 1.213-.126 1.612-.377.399-.26.598-.65.598-1.17 0-.26-.048-.472-.143-.637a1.161 1.161 0 0 0-.416-.429 2.436 2.436 0 0 0-.689-.299 17.414 17.414 0 0 0-.949-.273 17.368 17.368 0 0 1-1.092-.325 4.029 4.029 0 0 1-.988-.481 2.434 2.434 0 0 1-.702-.754c-.173-.303-.26-.689-.26-1.157 0-.806.282-1.434.845-1.885.563-.451 1.426-.676 2.587-.676.338 0 .637.022.897.065.269.035.503.082.702.143.208.052.386.113.533.182.156.069.295.134.416.195v1.17a3.638 3.638 0 0 0-1.183-.494 5.622 5.622 0 0 0-1.365-.156c-.416 0-.767.035-1.053.104a1.88 1.88 0 0 0-.676.273 1.08 1.08 0 0 0-.377.442 1.408 1.408 0 0 0-.117.585c0 .26.056.477.169.65.121.173.277.321.468.442.199.113.425.208.676.286.251.078.516.147.793.208.364.087.737.186 1.118.299.381.113.724.269 1.027.468.303.199.55.459.741.78.199.312.299.719.299 1.222 0 .494-.1.914-.299 1.261a2.437 2.437 0 0 1-.767.832 3.24 3.24 0 0 1-1.105.468 5.82 5.82 0 0 1-1.3.143Zm13.064 1.625a22.53 22.53 0 0 1-1.885-.455 22.942 22.942 0 0 1-1.521-.481 38.7 38.7 0 0 1-1.274-.481 54.266 54.266 0 0 0-1.079-.429 5.235 5.235 0 0 1-1.144-.624 4.033 4.033 0 0 1-.897-.936 4.326 4.326 0 0 1-.585-1.274 6.289 6.289 0 0 1-.208-1.69c0-.78.113-1.469.338-2.067a4.296 4.296 0 0 1 .936-1.508 3.933 3.933 0 0 1 1.404-.923 4.746 4.746 0 0 1 1.768-.325c.624 0 1.209.104 1.755.312a3.824 3.824 0 0 1 1.417.897c.408.39.724.884.949 1.482.234.589.351 1.274.351 2.054 0 .563-.06 1.092-.182 1.586a3.934 3.934 0 0 1-.572 1.326c-.268.39-.615.728-1.04 1.014-.424.286-.949.507-1.573.663a19.595 19.595 0 0 0 3.484.715l-.442 1.144Zm-4.134-2.73c.451 0 .867-.065 1.248-.195.382-.139.711-.351.988-.637.286-.295.507-.676.663-1.144.165-.468.247-1.036.247-1.703s-.082-1.235-.247-1.703c-.156-.468-.377-.845-.663-1.131a2.392 2.392 0 0 0-.988-.637 3.616 3.616 0 0 0-1.248-.208c-.45 0-.866.069-1.248.208-.381.13-.715.342-1.001.637-.277.286-.498.663-.663 1.131-.156.468-.234 1.036-.234 1.703s.078 1.235.234 1.703c.165.468.386.849.663 1.144.286.286.62.498 1.001.637.382.13.798.195 1.248.195Zm11.85.975h-5.759v-9.321h1.222v8.216h4.537V534Z"/>
    <rect width="64" height="24" x="474" y="482" fill="#fff" rx="5"/>
    <path fill="#4E496B" fill-rule="evenodd" d="M513.649 453.683c1.808-.832 2.351-1.784 2.351-2.683 0-.112-.008-.226-.027-.339-.128-.796-.742-1.616-2.324-2.344-1.813-.835-4.494-1.317-7.649-1.317-3.155 0-5.836.482-7.649 1.317-1.808.832-2.351 1.784-2.351 2.683 0 .899.543 1.851 2.351 2.683 1.813.835 4.494 1.317 7.649 1.317 3.155 0 5.836-.482 7.649-1.317Zm2.351.937c-2.15 1.587-5.826 2.38-10 2.38s-7.85-.793-10-2.38V459c0 .899.543 1.851 2.351 2.683 1.813.835 4.494 1.317 7.649 1.317 3.155 0 5.836-.482 7.649-1.317 1.808-.832 2.351-1.784 2.351-2.683v-4.38Zm0 8c-2.15 1.587-5.826 2.38-10 2.38s-7.85-.793-10-2.38V467c0 .899.543 1.851 2.351 2.683 1.813.835 4.494 1.317 7.649 1.317 3.155 0 5.836-.482 7.649-1.317 1.808-.832 2.351-1.784 2.351-2.683v-4.38Zm1.756-13.026C516.637 446.531 511.799 445 506 445c-6.576 0-11.916 1.969-11.999 5.907l-.001.09V467c0 4 5.373 6 12 6s12-2 12-6v-16c0-.5-.084-.969-.244-1.406Z" clip-rule="evenodd"/>
    <path fill="#262626" d="M483 489.81V498h-1.235v-8.19h-2.873v-1.131h6.981v1.131H483Zm8.739 7.618a3.867 3.867 0 0 1-.858.455c-.2.069-.425.126-.676.169a4.19 4.19 0 0 1-.845.078c-1.136 0-1.998-.308-2.587-.923-.59-.615-.884-1.478-.884-2.587 0-.546.078-1.036.234-1.469.164-.433.39-.797.676-1.092a2.816 2.816 0 0 1 1.014-.689c.39-.165.814-.247 1.274-.247.485 0 .918.082 1.3.247.381.165.693.407.936.728.251.321.42.719.507 1.196.095.468.095 1.014 0 1.638h-4.758c.043.728.26 1.274.65 1.638.39.355.97.533 1.742.533.52 0 .966-.074 1.339-.221.372-.147.684-.308.936-.481v1.027Zm-2.678-5.291c-.494 0-.919.152-1.274.455-.356.303-.581.763-.676 1.378h3.627c.034-.624-.109-1.083-.429-1.378-.321-.303-.737-.455-1.248-.455Zm5.346 5.863h-1.144v-6.747h1.001l.117 1.209h.026c.182-.381.455-.698.819-.949.364-.26.841-.39 1.43-.39.52 0 .945.126 1.274.377.338.243.563.611.676 1.105.191-.459.481-.819.871-1.079.399-.269.88-.403 1.443-.403.624 0 1.118.178 1.482.533.364.347.546.884.546 1.612V498h-1.157v-4.589c0-.442-.108-.763-.325-.962-.217-.208-.511-.312-.884-.312-.251 0-.472.039-.663.117-.191.069-.36.169-.507.299-.147.13-.282.282-.403.455a5.748 5.748 0 0 0-.338.546V498h-1.144v-4.719c0-.433-.108-.732-.325-.897-.217-.165-.511-.247-.884-.247-.243 0-.459.03-.65.091a1.824 1.824 0 0 0-.52.26 2.048 2.048 0 0 0-.403.416 3.851 3.851 0 0 0-.338.52V498Zm13.726.13c-.52 0-.971-.121-1.352-.364a2.642 2.642 0 0 1-.897-1.001v3.536h-1.144v-9.048h1.001l.117 1.313c.225-.442.528-.793.91-1.053.381-.26.853-.39 1.417-.39.39 0 .762.074 1.118.221.364.139.68.355.949.65.277.286.494.65.65 1.092.164.433.247.945.247 1.534 0 .598-.083 1.118-.247 1.56a3.278 3.278 0 0 1-.663 1.092 2.782 2.782 0 0 1-.962.65 3.182 3.182 0 0 1-1.144.208Zm-.169-1.027c.598 0 1.079-.204 1.443-.611.372-.416.559-1.04.559-1.872 0-.815-.187-1.43-.559-1.846-.364-.425-.845-.637-1.443-.637-.295 0-.572.052-.832.156-.252.104-.473.26-.663.468-.182.199-.33.455-.442.767a3.457 3.457 0 0 0-.156 1.092c0 .416.052.78.156 1.092.112.312.26.572.442.78.19.208.411.364.663.468.26.095.537.143.832.143Zm7.34 1.027c-.46 0-.889-.078-1.287-.234a2.984 2.984 0 0 1-1.04-.676 3.283 3.283 0 0 1-.676-1.105c-.165-.433-.247-.932-.247-1.495 0-.555.082-1.049.247-1.482.164-.442.39-.81.676-1.105.294-.295.641-.52 1.04-.676a3.495 3.495 0 0 1 1.287-.234c.468 0 .901.078 1.3.234.398.156.741.381 1.027.676.294.295.524.663.689 1.105.173.433.26.927.26 1.482 0 .563-.087 1.062-.26 1.495a3.203 3.203 0 0 1-.689 1.105c-.286.295-.629.52-1.027.676a3.538 3.538 0 0 1-1.3.234Zm0-1.027c.303 0 .58-.048.832-.143.26-.104.485-.256.676-.455.19-.208.338-.468.442-.78.104-.312.156-.68.156-1.105 0-.425-.052-.793-.156-1.105a2.015 2.015 0 0 0-.442-.767 1.698 1.698 0 0 0-.676-.455 2.16 2.16 0 0 0-.832-.156c-.304 0-.581.052-.832.156a1.704 1.704 0 0 0-.663.455 2.107 2.107 0 0 0-.429.767c-.104.312-.156.68-.156 1.105 0 .425.052.793.156 1.105.104.312.247.572.429.78.19.199.411.351.663.455.251.095.528.143.832.143Zm8.011-4.706a3.509 3.509 0 0 0-1.326.377c-.39.199-.68.511-.871.936V498h-1.144v-6.747h1.001l.117 1.469h.026a3.06 3.06 0 0 1 .819-1.04c.364-.303.823-.49 1.378-.559v1.274Zm5.219 4.316a3.85 3.85 0 0 1-.299.494 2.253 2.253 0 0 1-1.105.793c-.242.087-.528.13-.858.13-.606 0-1.096-.169-1.469-.507-.372-.347-.559-.841-.559-1.482 0-.737.256-1.278.767-1.625.52-.347 1.257-.52 2.21-.52h1.261v-.559c0-.468-.121-.802-.364-1.001-.242-.199-.658-.299-1.248-.299-.416 0-.81.069-1.183.208-.372.13-.706.282-1.001.455v-1.027c.243-.147.568-.29.975-.429a4.07 4.07 0 0 1 1.365-.221c.85 0 1.495.178 1.937.533.442.347.663.888.663 1.625v3.9c.009.095.013.195.013.299l.026.299c.009.087.018.16.026.221h-1.04a5.896 5.896 0 0 1-.078-.507 7.937 7.937 0 0 1-.026-.585l-.013-.195Zm-2.015.39c.356 0 .659-.074.91-.221.252-.147.455-.316.611-.507.156-.199.269-.39.338-.572.07-.191.104-.325.104-.403v-.494h-1.144c-.684 0-1.183.1-1.495.299-.303.191-.455.481-.455.871 0 .303.091.55.273.741.182.191.468.286.858.286Zm6.05-8.424V498h-1.144v-9.321h1.144Zm97.574 45.451a4.888 4.888 0 0 1-1.755-.312 4.048 4.048 0 0 1-1.417-.936 4.425 4.425 0 0 1-.949-1.508c-.226-.598-.338-1.287-.338-2.067 0-.78.112-1.465.338-2.054.234-.598.55-1.092.949-1.482a3.824 3.824 0 0 1 1.417-.897 4.888 4.888 0 0 1 1.755-.312c.632 0 1.222.104 1.768.312a3.832 3.832 0 0 1 1.417.897c.398.399.71.897.936 1.495.225.589.338 1.274.338 2.054 0 .771-.113 1.456-.338 2.054a4.296 4.296 0 0 1-.936 1.508 4.058 4.058 0 0 1-1.417.936 4.928 4.928 0 0 1-1.768.312Zm0-1.105c.45 0 .866-.065 1.248-.195.381-.139.71-.351.988-.637.286-.295.507-.676.663-1.144.164-.468.247-1.036.247-1.703s-.083-1.235-.247-1.703c-.156-.468-.377-.845-.663-1.131a2.405 2.405 0 0 0-.988-.637 3.624 3.624 0 0 0-1.248-.208c-.451 0-.867.069-1.248.208-.382.13-.715.342-1.001.637-.278.286-.499.663-.663 1.131-.156.468-.234 1.036-.234 1.703s.078 1.235.234 1.703c.164.468.385.849.663 1.144.286.286.619.498 1.001.637.381.13.797.195 1.248.195Zm12.344-2.405c0 .598-.083 1.118-.247 1.56a3.278 3.278 0 0 1-.663 1.092 2.782 2.782 0 0 1-.962.65 3.182 3.182 0 0 1-1.144.208c-.52 0-.975-.121-1.365-.364a2.654 2.654 0 0 1-.91-1.04l-.039 1.274h-1.079v-9.321h1.144l-.026 3.887c.225-.442.528-.793.91-1.053.381-.26.853-.39 1.417-.39.39 0 .762.074 1.118.221.364.139.68.355.949.65.277.286.494.65.65 1.092.164.433.247.945.247 1.534Zm-3.185 2.483c.598 0 1.079-.204 1.443-.611.372-.416.559-1.04.559-1.872 0-.815-.187-1.43-.559-1.846-.364-.425-.845-.637-1.443-.637-.295 0-.572.052-.832.156-.252.104-.473.26-.663.468-.182.199-.33.455-.442.767a3.457 3.457 0 0 0-.156 1.092c0 .416.052.78.156 1.092.112.312.26.572.442.78.19.208.411.364.663.468.26.095.537.143.832.143Zm5.247-6.838a.735.735 0 0 1-.546-.208.748.748 0 0 1-.208-.533c0-.208.069-.386.208-.533a.714.714 0 0 1 .546-.221c.225 0 .403.074.533.221a.752.752 0 0 1 .208.533c0 .208-.07.386-.208.533-.13.139-.308.208-.533.208Zm.572 8.307c0 .251-.035.49-.104.715-.07.225-.182.42-.338.585a1.46 1.46 0 0 1-.572.403 2.039 2.039 0 0 1-.832.156c-.174 0-.364-.022-.572-.065a2.048 2.048 0 0 1-.611-.208v-1.105c.121.095.264.178.429.247.164.069.351.104.559.104.329 0 .559-.078.689-.234a.834.834 0 0 0 .208-.572v-7.345h1.144v7.319Zm7.231-1.144a3.605 3.605 0 0 1-.351.221 4.116 4.116 0 0 1-.507.234 4.275 4.275 0 0 1-.676.169 4.183 4.183 0 0 1-.845.078c-1.135 0-1.998-.308-2.587-.923-.589-.615-.884-1.478-.884-2.587 0-.546.078-1.036.234-1.469.165-.433.39-.797.676-1.092a2.816 2.816 0 0 1 1.014-.689c.39-.165.815-.247 1.274-.247.485 0 .919.082 1.3.247.381.165.693.407.936.728.251.321.42.719.507 1.196.095.468.095 1.014 0 1.638h-4.758c.043.728.26 1.274.65 1.638.39.355.971.533 1.742.533.52 0 .966-.074 1.339-.221.373-.147.685-.308.936-.481v1.027Zm-2.678-5.291c-.494 0-.919.152-1.274.455-.355.303-.581.763-.676 1.378h3.627c.035-.624-.108-1.083-.429-1.378-.321-.303-.737-.455-1.248-.455Zm7.114 5.993c-.52 0-.992-.078-1.417-.234a3.103 3.103 0 0 1-1.066-.689 3.048 3.048 0 0 1-.676-1.105 4.357 4.357 0 0 1-.234-1.482c0-.546.078-1.036.234-1.469.165-.433.395-.797.689-1.092a2.861 2.861 0 0 1 1.079-.689 3.963 3.963 0 0 1 1.443-.247c.416 0 .798.048 1.144.143.347.087.633.217.858.39v1.027a3.032 3.032 0 0 0-.936-.403 3.873 3.873 0 0 0-1.053-.143c-.788 0-1.369.204-1.742.611-.364.407-.546 1.031-.546 1.872 0 .841.178 1.465.533 1.872.356.407.919.611 1.69.611.408 0 .78-.048 1.118-.143.347-.104.659-.234.936-.39v1.027a3.984 3.984 0 0 1-2.054.533Zm6.814-.273a2.077 2.077 0 0 1-.533.195 2.938 2.938 0 0 1-.689.078c-.329 0-.611-.048-.845-.143a1.634 1.634 0 0 1-.559-.377 1.626 1.626 0 0 1-.325-.546 2.286 2.286 0 0 1-.091-.637v-4.199h-.806v-.975h.806v-1.417h1.144v1.417h1.963v.975h-1.963v4.056c0 .286.07.494.208.624.148.13.403.195.767.195.338 0 .646-.095.923-.286v1.04Zm7.135.273c-.425 0-.806-.03-1.144-.091a5.458 5.458 0 0 1-.897-.208 4.6 4.6 0 0 1-.65-.299 2.613 2.613 0 0 1-.416-.325v-1.17c.13.113.299.23.507.351.208.113.446.217.715.312.277.095.572.173.884.234.321.061.654.091 1.001.091.676 0 1.213-.126 1.612-.377.399-.26.598-.65.598-1.17 0-.26-.048-.472-.143-.637a1.161 1.161 0 0 0-.416-.429 2.436 2.436 0 0 0-.689-.299 17.414 17.414 0 0 0-.949-.273 17.368 17.368 0 0 1-1.092-.325 4.029 4.029 0 0 1-.988-.481 2.434 2.434 0 0 1-.702-.754c-.173-.303-.26-.689-.26-1.157 0-.806.282-1.434.845-1.885.563-.451 1.426-.676 2.587-.676.338 0 .637.022.897.065.269.035.503.082.702.143.208.052.386.113.533.182.156.069.295.134.416.195v1.17a3.638 3.638 0 0 0-1.183-.494 5.622 5.622 0 0 0-1.365-.156c-.416 0-.767.035-1.053.104a1.88 1.88 0 0 0-.676.273 1.08 1.08 0 0 0-.377.442 1.408 1.408 0 0 0-.117.585c0 .26.056.477.169.65.121.173.277.321.468.442.199.113.425.208.676.286.251.078.516.147.793.208.364.087.737.186 1.118.299.381.113.724.269 1.027.468.303.199.55.459.741.78.199.312.299.719.299 1.222 0 .494-.1.914-.299 1.261a2.437 2.437 0 0 1-.767.832 3.24 3.24 0 0 1-1.105.468 5.82 5.82 0 0 1-1.3.143Zm8.163-.273a2.091 2.091 0 0 1-.533.195 2.944 2.944 0 0 1-.689.078c-.329 0-.611-.048-.845-.143a1.625 1.625 0 0 1-.559-.377 1.61 1.61 0 0 1-.325-.546 2.25 2.25 0 0 1-.091-.637v-4.199h-.806v-.975h.806v-1.417h1.144v1.417h1.963v.975h-1.963v4.056c0 .286.069.494.208.624.147.13.403.195.767.195.338 0 .646-.095.923-.286v1.04Zm4.228.273c-.459 0-.888-.078-1.287-.234a2.993 2.993 0 0 1-1.04-.676 3.3 3.3 0 0 1-.676-1.105c-.165-.433-.247-.932-.247-1.495 0-.555.082-1.049.247-1.482.165-.442.39-.81.676-1.105.295-.295.641-.52 1.04-.676a3.503 3.503 0 0 1 1.287-.234c.468 0 .901.078 1.3.234a2.86 2.86 0 0 1 1.027.676c.295.295.524.663.689 1.105.173.433.26.927.26 1.482 0 .563-.087 1.062-.26 1.495a3.188 3.188 0 0 1-.689 1.105 2.86 2.86 0 0 1-1.027.676 3.538 3.538 0 0 1-1.3.234Zm0-1.027c.303 0 .581-.048.832-.143.26-.104.485-.256.676-.455a2.13 2.13 0 0 0 .442-.78c.104-.312.156-.68.156-1.105 0-.425-.052-.793-.156-1.105a2.003 2.003 0 0 0-.442-.767 1.698 1.698 0 0 0-.676-.455 2.156 2.156 0 0 0-.832-.156c-.303 0-.581.052-.832.156a1.719 1.719 0 0 0-.663.455 2.107 2.107 0 0 0-.429.767c-.104.312-.156.68-.156 1.105 0 .425.052.793.156 1.105.104.312.247.572.429.78.191.199.412.351.663.455.251.095.529.143.832.143Zm8.011-4.706a3.509 3.509 0 0 0-1.326.377c-.39.199-.68.511-.871.936V534h-1.144v-6.747h1.001l.117 1.469h.026a3.06 3.06 0 0 1 .819-1.04c.364-.303.824-.49 1.378-.559v1.274Zm5.22 4.316a3.968 3.968 0 0 1-.299.494 2.28 2.28 0 0 1-.455.455 2.306 2.306 0 0 1-.65.338c-.243.087-.529.13-.858.13-.607 0-1.097-.169-1.469-.507-.373-.347-.559-.841-.559-1.482 0-.737.255-1.278.767-1.625.52-.347 1.256-.52 2.21-.52h1.261v-.559c0-.468-.122-.802-.364-1.001-.243-.199-.659-.299-1.248-.299-.416 0-.811.069-1.183.208-.373.13-.707.282-1.001.455v-1.027c.242-.147.567-.29.975-.429a4.07 4.07 0 0 1 1.365-.221c.849 0 1.495.178 1.937.533.442.347.663.888.663 1.625v3.9c.008.095.013.195.013.299.008.104.017.204.026.299.008.087.017.16.026.221h-1.04a5.896 5.896 0 0 1-.078-.507 7.42 7.42 0 0 1-.026-.585l-.013-.195Zm-2.015.39c.355 0 .658-.074.91-.221.251-.147.455-.316.611-.507.156-.199.268-.39.338-.572.069-.191.104-.325.104-.403v-.494h-1.144c-.685 0-1.183.1-1.495.299-.304.191-.455.481-.455.871 0 .303.091.55.273.741.182.191.468.286.858.286Zm10.703.325c0 .433-.065.828-.195 1.183-.121.364-.32.672-.598.923-.268.251-.619.446-1.053.585-.424.139-.94.208-1.547.208-.329 0-.619-.017-.871-.052a4.022 4.022 0 0 1-.663-.143 2.42 2.42 0 0 1-.468-.182 2.193 2.193 0 0 1-.325-.182v-1.027c.139.078.282.147.429.208a3.835 3.835 0 0 0 1.118.299c.234.035.499.052.793.052.832 0 1.413-.156 1.742-.468.33-.312.494-.776.494-1.391v-1.04a2.45 2.45 0 0 1-.845.962c-.355.243-.797.364-1.326.364-.398 0-.78-.069-1.144-.208a2.84 2.84 0 0 1-.949-.611 3.171 3.171 0 0 1-.65-1.027c-.156-.416-.234-.897-.234-1.443 0-.555.078-1.036.234-1.443a3.14 3.14 0 0 1 .65-1.04c.278-.277.598-.485.962-.624s.75-.208 1.157-.208c.538 0 .988.121 1.352.364.373.243.663.572.871.988l.013-.143c0-.156.009-.342.026-.559a9.52 9.52 0 0 1 .052-.52h1.04a9.52 9.52 0 0 0-.052.52c-.008.225-.013.412-.013.559v5.096Zm-3.107-.728c.286 0 .546-.043.78-.13.243-.095.451-.238.624-.429.182-.191.321-.425.416-.702.104-.286.156-.62.156-1.001 0-.771-.19-1.348-.572-1.729-.372-.381-.845-.572-1.417-.572-.286 0-.554.048-.806.143a1.759 1.759 0 0 0-.637.429 2.117 2.117 0 0 0-.416.728c-.104.286-.156.62-.156 1.001 0 .381.052.715.156 1.001.104.277.247.511.429.702.182.182.395.321.637.416.252.095.52.143.806.143Zm10.334.728a3.867 3.867 0 0 1-.858.455c-.2.069-.425.126-.676.169a4.19 4.19 0 0 1-.845.078c-1.136 0-1.998-.308-2.587-.923-.59-.615-.884-1.478-.884-2.587 0-.546.078-1.036.234-1.469.164-.433.39-.797.676-1.092a2.816 2.816 0 0 1 1.014-.689c.39-.165.814-.247 1.274-.247.485 0 .918.082 1.3.247.381.165.693.407.936.728.251.321.42.719.507 1.196.095.468.095 1.014 0 1.638h-4.758c.043.728.26 1.274.65 1.638.39.355.97.533 1.742.533.52 0 .966-.074 1.339-.221.372-.147.684-.308.936-.481v1.027Zm-2.678-5.291c-.494 0-.919.152-1.274.455-.356.303-.581.763-.676 1.378h3.627c.034-.624-.109-1.083-.429-1.378-.321-.303-.737-.455-1.248-.455Z"/>
    <path fill="#4E496B" d="m131.905 67.008-10.001 5.773.001-11.547 10 5.774Zm-67.9-.007v1-1ZM79 183H64.043v-2H79v2Zm-25.956-10.995-.04-95h2l.04 94.999-2 .001ZM64.005 66.001l58.9.006-.001 2-58.899-.006v-2Zm-11 11.005C53.001 70.928 57.927 66 64.004 66v2a9 9 0 0 0-9 9.004h-2ZM64.042 183c-6.073 0-10.997-4.922-11-10.995l2-.001a9 9 0 0 0 9 8.996v2Zm604.955 94-5.773-10h11.547l-5.774 10Zm.003-84.987h-1 1Zm-46.001-10.955 35.987-.045.002 2-35.987.045-.002-2ZM670 192.013 669.997 268h-2l.003-75.987h2Zm-11.014-11c6.08-.008 11.014 4.919 11.014 11h-2a9 9 0 0 0-9.012-9l-.002-2ZM397 311.993l-10.001-5.771.002 11.547 9.999-5.776ZM369.017 217l-.015 84.996h2l.015-84.996h-2Zm10.988 95.997 7.995-.002v-2l-7.996.002.001 2Zm-11.003-11.001c-.001 6.077 4.926 11.003 11.003 11.001l-.001-2a8.999 8.999 0 0 1-9.002-9.001h-2ZM380 217l-5.773 10h11.546L380 217Zm270 40.015h-1 1Zm-9.999-10v-1 1ZM651 277v-19.985h-2V277h2Zm-10.999-30.985-250.002-.014v2l250.002.014v-2ZM381 237.001V226h-2v11.001h2Zm8.999 9a9 9 0 0 1-8.999-9h-2c0 6.074 4.924 10.999 10.999 11v-2ZM651 257.015c0-6.075-4.924-11-10.999-11v2a9 9 0 0 1 8.999 9h2ZM881 277l5.774-10h-11.548L881 277Zm-106-60-5.774 10h11.547L775 217Zm107 51v-10.986h-2V268h2Zm-10.998-21.986-86.003-.013-.001 2 86.003.013.001-2ZM776 237.001V226h-2v11.001h2Zm8.999 9a9 9 0 0 1-8.999-9h-2c0 6.075 4.924 11 10.998 11l.001-2ZM882 257.014c0-6.075-4.924-10.999-10.998-11l-.001 2a9 9 0 0 1 8.999 9h2ZM141 148l-5.773-10h11.547L141 148Zm41-35v1-1Zm11-27v17h-2V86h2Zm-11 28h-31v-2h31v2Zm-40 9v16h-2v-16h2Zm9-9a9 9 0 0 0-9 9h-2c0-6.075 4.925-11 11-11v2Zm42-11c0 6.075-4.925 11-11 11v-2a9 9 0 0 0 9-9h2Z"/>
</svg>
