<svg width="700" height="500" viewBox="0 0 700 500" fill="none" xmlns="http://www.w3.org/2000/svg">
<rect x="218.023" y="17.7153" width="261.104" height="47.415" rx="9" fill="white"/>
<path d="M251.899 35.5701L247.255 46.2351H243.826L239.317 35.4081V49.2051H235.888V29.8461H240.937L245.824 42.1041L251.143 29.8461H255.76V49.2051H251.899V35.5701ZM267.368 49.0431C267.062 49.8891 266.738 50.6361 266.396 51.2841C266.054 51.9321 265.649 52.4721 265.181 52.9041C264.731 53.3541 264.191 53.6871 263.561 53.9031C262.931 54.1371 262.175 54.2541 261.293 54.2541C260.753 54.2541 260.276 54.2091 259.862 54.1191C259.448 54.0471 259.043 53.9211 258.647 53.7411V50.5011C258.953 50.7171 259.322 50.8881 259.754 51.0141C260.204 51.1581 260.69 51.2301 261.212 51.2301C261.788 51.2301 262.256 51.1221 262.616 50.9061C262.976 50.7081 263.282 50.4021 263.534 49.9881L257.945 35.1921H261.914L265.424 45.3171L268.853 35.1921H272.282L267.368 49.0431ZM274.381 43.7241C274.579 42.8601 274.696 41.7261 274.732 40.3221C274.786 38.9181 274.813 37.2081 274.813 35.1921H285.397V49.2051H281.671V38.1351H278.134C278.116 39.8091 278.044 41.3391 277.918 42.7251C277.792 44.0931 277.558 45.2631 277.216 46.2351C276.874 47.2071 276.388 47.9631 275.758 48.5031C275.128 49.0431 274.3 49.3131 273.274 49.3131C273.076 49.3131 272.878 49.3041 272.68 49.2861C272.482 49.2681 272.275 49.2411 272.059 49.2051V45.8571C272.149 45.8751 272.23 45.8931 272.302 45.9111C272.374 45.9111 272.455 45.9111 272.545 45.9111C273.031 45.9111 273.418 45.7401 273.706 45.3981C274.012 45.0381 274.237 44.4801 274.381 43.7241ZM300.602 44.2371C300.602 45.0471 300.449 45.7671 300.143 46.3971C299.855 47.0091 299.45 47.5311 298.928 47.9631C298.406 48.3771 297.776 48.6921 297.038 48.9081C296.318 49.1061 295.526 49.2051 294.662 49.2051H288.641V35.1921H292.394V39.4581H294.716C296.57 39.4581 298.01 39.8631 299.036 40.6731C300.08 41.4651 300.602 42.6531 300.602 44.2371ZM292.394 42.2931V46.3971H294.23C294.986 46.3971 295.589 46.2441 296.039 45.9381C296.507 45.6141 296.741 45.0831 296.741 44.3451C296.741 43.6251 296.525 43.1031 296.093 42.7791C295.679 42.4551 295.067 42.2931 294.257 42.2931H292.394ZM308.286 38.1351V49.2051H304.533V38.1351H300.429V35.1921H312.444V38.1351H308.286ZM318.286 44.0751L323.956 35.1921H327.574V49.2051H323.875V40.3491L318.259 49.2051H314.587V35.1921H318.286V44.0751ZM334.502 44.0751L340.172 35.1921H343.79V49.2051H340.091V40.3491L334.475 49.2051H330.803V35.1921H334.502V44.0751ZM353.769 49.4751C352.599 49.4751 351.546 49.3131 350.61 48.9891C349.692 48.6471 348.909 48.1701 348.261 47.5581C347.613 46.9281 347.109 46.1631 346.749 45.2631C346.407 44.3631 346.236 43.3371 346.236 42.1851C346.236 41.0511 346.407 40.0341 346.749 39.1341C347.109 38.2341 347.613 37.4781 348.261 36.8661C348.909 36.2361 349.701 35.7591 350.637 35.4351C351.573 35.0931 352.626 34.9221 353.796 34.9221C354.876 34.9221 355.776 35.0391 356.496 35.2731C357.216 35.4891 357.783 35.7501 358.197 36.0561V39.0261C357.657 38.6841 357.081 38.4141 356.469 38.2161C355.857 38.0001 355.074 37.8921 354.12 37.8921C351.42 37.8921 350.07 39.3231 350.07 42.1851C350.07 45.0471 351.402 46.4781 354.066 46.4781C355.056 46.4781 355.857 46.3791 356.469 46.1811C357.081 45.9651 357.657 45.6951 358.197 45.3711V48.3141C357.783 48.6201 357.207 48.8901 356.469 49.1241C355.749 49.3581 354.849 49.4751 353.769 49.4751ZM367.585 38.1351V49.2051H363.832V38.1351H359.728V35.1921H371.743V38.1351H367.585ZM379.888 49.4751C378.88 49.4751 377.944 49.3221 377.08 49.0161C376.234 48.6921 375.487 48.2241 374.839 47.6121C374.209 46.9821 373.714 46.2171 373.354 45.3171C372.994 44.3991 372.814 43.3551 372.814 42.1851C372.814 41.0151 372.994 39.9801 373.354 39.0801C373.714 38.1621 374.209 37.3971 374.839 36.7851C375.487 36.1731 376.234 35.7141 377.08 35.4081C377.944 35.0841 378.88 34.9221 379.888 34.9221C380.896 34.9221 381.832 35.0841 382.696 35.4081C383.578 35.7141 384.334 36.1731 384.964 36.7851C385.612 37.3971 386.116 38.1621 386.476 39.0801C386.854 39.9801 387.043 41.0151 387.043 42.1851C387.043 43.3551 386.854 44.3991 386.476 45.3171C386.116 46.2171 385.612 46.9821 384.964 47.6121C384.334 48.2241 383.578 48.6921 382.696 49.0161C381.832 49.3221 380.896 49.4751 379.888 49.4751ZM379.888 46.4781C380.86 46.4781 381.652 46.1271 382.264 45.4251C382.876 44.7231 383.182 43.6431 383.182 42.1851C383.182 40.7451 382.876 39.6741 382.264 38.9721C381.652 38.2701 380.86 37.9191 379.888 37.9191C378.97 37.9191 378.196 38.2701 377.566 38.9721C376.954 39.6741 376.648 40.7451 376.648 42.1851C376.648 43.6431 376.954 44.7231 377.566 45.4251C378.196 46.1271 378.97 46.4781 379.888 46.4781ZM401.143 49.2051H397.39V43.6161C396.958 43.9401 396.427 44.2011 395.797 44.3991C395.167 44.5791 394.456 44.6691 393.664 44.6691C392.062 44.6691 390.838 44.2191 389.992 43.3191C389.146 42.4191 388.723 41.0781 388.723 39.2961V35.1921H392.476V39.1071C392.476 40.0251 392.665 40.6641 393.043 41.0241C393.439 41.3841 394.042 41.5641 394.852 41.5641C395.32 41.5641 395.77 41.5101 396.202 41.4021C396.634 41.2761 397.03 41.0871 397.39 40.8351V35.1921H401.143V49.2051ZM413.305 43.5351H408.094V49.2051H404.368V35.1921H408.094V40.5921H413.305V35.1921H417.031V49.2051H413.305V43.5351ZM423.966 44.0751L429.636 35.1921H433.254V49.2051H429.555V40.3491L423.939 49.2051H420.267V35.1921H423.966V44.0751ZM441.424 43.7511H440.209V49.2051H436.483V35.1921H440.209V40.7811H441.478L445.582 35.1921H449.335L444.421 41.8341L449.686 49.2051H445.312L441.424 43.7511ZM455.132 44.0751L460.802 35.1921H464.42V49.2051H460.721V40.3491L455.105 49.2051H451.433V35.1921H455.132V44.0751Z" fill="black"/>
<rect x="190.648" y="79.896" width="496.831" height="390.085" rx="13.3169" fill="white" stroke="#5282FF" stroke-width="2" stroke-dasharray="4.44 4.44"/>
<path d="M270.463 176.77L260.463 170.997L260.463 182.544L270.463 176.77ZM134.767 176.77L134.767 177.77L261.463 177.77L261.463 176.77L261.463 175.77L134.767 175.77L134.767 176.77Z" fill="#4E496B"/>
<path d="M270.107 301.904L260.107 296.131L260.107 307.678L270.107 301.904ZM134.411 301.904L134.411 302.904L261.107 302.904L261.107 301.904L261.107 300.904L134.411 300.904L134.411 301.904Z" fill="#4E496B"/>
<path d="M270.188 426.217L260.188 420.443L260.188 431.99L270.188 426.217ZM134.492 426.217L134.492 427.217L261.188 427.217L261.188 426.217L261.188 425.217L134.492 425.217L134.492 426.217Z" fill="#4E496B"/>
<path d="M380.641 176.77L370.641 170.997L370.641 182.544L380.641 176.77ZM325.461 176.77L325.461 177.77L371.641 177.77L371.641 176.77L371.641 175.77L325.461 175.77L325.461 176.77Z" fill="#4E496B"/>
<path d="M491.916 176.77L481.916 170.997L481.916 182.544L491.916 176.77ZM436.735 176.77L436.735 177.77L482.916 177.77L482.916 176.77L482.916 175.77L436.735 175.77L436.735 176.77Z" fill="#4E496B"/>
<path d="M604.455 176.77L594.455 170.997L594.455 182.544L604.455 176.77ZM549.274 176.77L549.274 177.77L595.455 177.77L595.455 176.77L595.455 175.77L549.274 175.77L549.274 176.77Z" fill="#4E496B"/>
<path d="M325.097 301.764L451.094 301.764C455.17 301.764 458.475 298.459 458.475 294.382L458.475 184.123C458.475 180.047 461.78 176.742 465.856 176.742H473.481" stroke="#4E496B" stroke-width="2"/>
<path d="M325.097 426.785L451.094 426.785C455.17 426.785 458.475 423.48 458.475 419.404L458.475 288.77" stroke="#4E496B" stroke-width="2"/>
<path d="M501.003 191.514H507.901V192.85H502.463V196.221H507.078V197.542H502.463V201.333H507.979V202.653H501.003V191.514ZM515.73 201.069C515.481 201.597 515.134 202.022 514.689 202.343C514.243 202.653 513.679 202.809 512.995 202.809C512.509 202.809 512.048 202.726 511.613 202.56C511.178 202.384 510.794 202.125 510.463 201.783C510.131 201.431 509.867 200.996 509.671 200.478C509.474 199.95 509.375 199.329 509.375 198.614C509.375 197.91 509.474 197.298 509.671 196.781C509.867 196.252 510.131 195.817 510.463 195.475C510.794 195.123 511.178 194.864 511.613 194.699C512.058 194.523 512.524 194.435 513.011 194.435C513.622 194.435 514.15 194.564 514.596 194.823C515.041 195.072 515.398 195.429 515.668 195.895V191.514H517.035V202.653H515.839L515.73 201.069ZM513.197 201.581C513.549 201.581 513.876 201.524 514.176 201.41C514.476 201.286 514.735 201.1 514.953 200.851C515.181 200.603 515.357 200.292 515.481 199.919C515.616 199.546 515.683 199.111 515.683 198.614C515.683 198.117 515.616 197.682 515.481 197.309C515.357 196.936 515.181 196.625 514.953 196.377C514.735 196.128 514.476 195.947 514.176 195.833C513.876 195.709 513.549 195.646 513.197 195.646C512.483 195.646 511.897 195.9 511.442 196.408C510.996 196.905 510.774 197.64 510.774 198.614C510.774 199.598 511.002 200.338 511.457 200.836C511.913 201.333 512.493 201.581 513.197 201.581ZM519.965 193.409C519.685 193.409 519.463 193.326 519.297 193.161C519.131 192.984 519.048 192.772 519.048 192.524C519.048 192.275 519.131 192.063 519.297 191.887C519.463 191.71 519.685 191.622 519.965 191.622C520.234 191.622 520.447 191.71 520.602 191.887C520.757 192.063 520.835 192.275 520.835 192.524C520.835 192.772 520.757 192.984 520.602 193.161C520.447 193.326 520.234 193.409 519.965 193.409ZM520.633 194.59V202.653H519.266V194.59H520.633ZM526.808 202.482C526.642 202.576 526.43 202.653 526.171 202.715C525.912 202.778 525.638 202.809 525.348 202.809C524.954 202.809 524.617 202.752 524.338 202.638C524.068 202.524 523.846 202.374 523.67 202.187C523.494 201.99 523.364 201.773 523.281 201.535C523.209 201.286 523.173 201.032 523.173 200.773V195.755H522.209V194.59H523.173V192.896H524.54V194.59H526.886V195.755H524.54V200.603C524.54 200.944 524.623 201.193 524.788 201.348C524.964 201.504 525.27 201.581 525.705 201.581C526.109 201.581 526.477 201.467 526.808 201.24V202.482ZM531.861 202.809C531.312 202.809 530.799 202.715 530.323 202.529C529.846 202.343 529.432 202.073 529.08 201.721C528.738 201.359 528.469 200.918 528.272 200.401C528.075 199.883 527.977 199.287 527.977 198.614C527.977 197.951 528.075 197.361 528.272 196.843C528.469 196.314 528.738 195.874 529.08 195.522C529.432 195.17 529.846 194.901 530.323 194.714C530.799 194.528 531.312 194.435 531.861 194.435C532.42 194.435 532.938 194.528 533.414 194.714C533.891 194.901 534.3 195.17 534.642 195.522C534.994 195.874 535.268 196.314 535.465 196.843C535.672 197.361 535.776 197.951 535.776 198.614C535.776 199.287 535.672 199.883 535.465 200.401C535.268 200.918 534.994 201.359 534.642 201.721C534.3 202.073 533.891 202.343 533.414 202.529C532.938 202.715 532.42 202.809 531.861 202.809ZM531.861 201.581C532.223 201.581 532.555 201.524 532.855 201.41C533.166 201.286 533.435 201.105 533.663 200.867C533.891 200.618 534.067 200.307 534.191 199.934C534.315 199.562 534.378 199.121 534.378 198.614C534.378 198.106 534.315 197.666 534.191 197.293C534.067 196.92 533.891 196.615 533.663 196.377C533.435 196.128 533.166 195.947 532.855 195.833C532.555 195.709 532.223 195.646 531.861 195.646C531.498 195.646 531.167 195.709 530.866 195.833C530.566 195.947 530.302 196.128 530.074 196.377C529.856 196.615 529.686 196.92 529.561 197.293C529.437 197.666 529.375 198.106 529.375 198.614C529.375 199.121 529.437 199.562 529.561 199.934C529.686 200.307 529.856 200.618 530.074 200.867C530.302 201.105 530.566 201.286 530.866 201.41C531.167 201.524 531.498 201.581 531.861 201.581ZM541.435 195.957C540.855 196.009 540.327 196.159 539.851 196.408C539.384 196.646 539.037 197.019 538.81 197.526V202.653H537.442V194.59H538.639L538.779 196.346H538.81C539.037 195.869 539.364 195.455 539.788 195.103C540.223 194.74 540.772 194.517 541.435 194.435V195.957Z" fill="black"/>
<rect x="503.084" y="151.136" width="35.5118" height="35.5118" rx="17.7559" fill="#5282FF"/>
<path d="M518.202 163.728V172.95C518.202 173.35 518.135 173.727 518.002 174.082C517.88 174.426 517.686 174.731 517.42 174.998C517.153 175.253 516.815 175.458 516.404 175.614C515.994 175.758 515.505 175.83 514.939 175.83C514.618 175.83 514.29 175.802 513.957 175.747C513.624 175.702 513.302 175.614 512.992 175.48V173.516C513.258 173.638 513.497 173.727 513.708 173.783C513.918 173.827 514.146 173.849 514.39 173.849C514.69 173.849 514.934 173.816 515.122 173.749C515.322 173.672 515.472 173.566 515.572 173.433C515.683 173.3 515.755 173.139 515.788 172.95C515.833 172.762 515.855 172.551 515.855 172.318V163.728H518.202ZM523.916 175.83C523.428 175.83 522.984 175.797 522.585 175.73C522.196 175.664 521.841 175.58 521.519 175.48C521.208 175.381 520.931 175.27 520.687 175.148C520.454 175.014 520.248 174.887 520.071 174.765V172.767C520.248 172.9 520.47 173.033 520.737 173.167C521.014 173.289 521.319 173.4 521.652 173.5C521.985 173.599 522.34 173.683 522.718 173.749C523.095 173.816 523.478 173.849 523.866 173.849C524.61 173.849 525.204 173.749 525.647 173.55C526.091 173.35 526.313 172.984 526.313 172.451C526.313 172.162 526.252 171.924 526.13 171.735C526.008 171.546 525.836 171.391 525.614 171.269C525.392 171.147 525.12 171.041 524.798 170.953C524.488 170.864 524.144 170.775 523.766 170.686C523.334 170.586 522.89 170.459 522.435 170.304C521.991 170.148 521.591 169.937 521.236 169.671C520.881 169.405 520.587 169.066 520.354 168.656C520.132 168.234 520.021 167.701 520.021 167.058C520.021 166.492 520.132 165.992 520.354 165.559C520.576 165.115 520.892 164.749 521.303 164.461C521.713 164.172 522.207 163.956 522.784 163.812C523.372 163.656 524.027 163.578 524.749 163.578C525.603 163.578 526.286 163.662 526.796 163.828C527.318 163.984 527.712 164.139 527.978 164.294V166.292C527.623 166.07 527.184 165.892 526.663 165.759C526.141 165.626 525.536 165.559 524.848 165.559C524.016 165.559 523.4 165.676 523.001 165.909C522.601 166.131 522.401 166.458 522.401 166.891C522.401 167.157 522.462 167.379 522.585 167.557C522.718 167.723 522.89 167.862 523.101 167.973C523.311 168.084 523.556 168.178 523.833 168.256C524.121 168.323 524.427 168.395 524.749 168.472C525.215 168.583 525.681 168.711 526.147 168.855C526.624 169 527.051 169.205 527.429 169.471C527.806 169.738 528.111 170.087 528.344 170.52C528.588 170.942 528.71 171.491 528.71 172.168C528.71 172.889 528.572 173.483 528.294 173.949C528.028 174.415 527.673 174.792 527.229 175.081C526.785 175.358 526.274 175.553 525.697 175.664C525.12 175.775 524.527 175.83 523.916 175.83Z" fill="white"/>
<path d="M387.07 97.709H392.756C393.984 97.709 395.126 97.8411 396.182 98.1052C397.254 98.3693 398.178 98.8044 398.955 99.4103C399.748 100.016 400.361 100.816 400.796 101.811C401.247 102.805 401.472 104.032 401.472 105.493C401.472 106.969 401.247 108.266 400.796 109.385C400.346 110.488 399.724 111.412 398.932 112.158C398.14 112.904 397.192 113.471 396.089 113.859C395.001 114.232 393.813 114.418 392.523 114.418H387.07V97.709ZM390.402 100.506V111.645H392.686C393.479 111.645 394.201 111.529 394.854 111.296C395.506 111.063 396.066 110.705 396.532 110.224C396.998 109.726 397.363 109.105 397.627 108.359C397.891 107.598 398.023 106.697 398.023 105.656C398.023 104.646 397.891 103.807 397.627 103.139C397.378 102.471 397.021 101.943 396.555 101.554C396.104 101.166 395.568 100.894 394.947 100.739C394.325 100.583 393.65 100.506 392.919 100.506H390.402ZM410.717 114.418C410.671 114.185 410.624 113.882 410.577 113.51C410.546 113.121 410.515 112.787 410.484 112.507C410.36 112.772 410.197 113.028 409.995 113.277C409.808 113.525 409.568 113.758 409.272 113.976C408.977 114.178 408.628 114.341 408.224 114.465C407.835 114.589 407.377 114.652 406.849 114.652C406.336 114.652 405.847 114.582 405.38 114.442C404.93 114.302 404.526 114.084 404.169 113.789C403.827 113.494 403.555 113.129 403.353 112.694C403.151 112.259 403.05 111.746 403.05 111.156C403.05 109.866 403.555 108.872 404.565 108.173C405.575 107.474 407.012 107.124 408.876 107.124H410.368V106.588C410.368 105.842 410.173 105.337 409.785 105.073C409.412 104.794 408.806 104.654 407.967 104.654C407.128 104.654 406.359 104.763 405.66 104.98C404.961 105.198 404.347 105.438 403.819 105.703V103.139C404.347 102.875 405.023 102.634 405.847 102.417C406.67 102.199 407.571 102.09 408.55 102.09C410.135 102.09 411.37 102.424 412.255 103.092C413.156 103.76 413.607 104.825 413.607 106.285V112.461C413.607 112.601 413.607 112.764 413.607 112.95C413.623 113.121 413.63 113.3 413.63 113.486C413.646 113.673 413.661 113.851 413.677 114.022C413.692 114.178 413.708 114.31 413.724 114.418H410.717ZM407.827 112.344C408.356 112.344 408.783 112.236 409.109 112.018C409.435 111.785 409.692 111.521 409.878 111.226C410.065 110.931 410.189 110.643 410.251 110.363C410.329 110.068 410.368 109.859 410.368 109.734V109.012H408.993C408.029 109.012 407.323 109.175 406.872 109.501C406.437 109.812 406.219 110.239 406.219 110.783C406.219 111.28 406.359 111.669 406.639 111.948C406.934 112.212 407.33 112.344 407.827 112.344ZM423.277 113.952C422.966 114.154 422.585 114.317 422.135 114.442C421.7 114.582 421.156 114.652 420.503 114.652C419.804 114.652 419.222 114.558 418.756 114.372C418.289 114.17 417.909 113.906 417.614 113.579C417.334 113.253 417.132 112.873 417.008 112.438C416.883 111.987 416.821 111.505 416.821 110.993V104.864H415.376V102.323H416.821V99.7831H420.037V102.323H423.463V104.864H420.037V110.643C420.037 111.125 420.146 111.482 420.364 111.715C420.581 111.948 420.938 112.065 421.436 112.065C421.855 112.065 422.212 112.003 422.508 111.878C422.803 111.738 423.059 111.575 423.277 111.389V113.952ZM432.747 114.418C432.701 114.185 432.654 113.882 432.608 113.51C432.576 113.121 432.545 112.787 432.514 112.507C432.39 112.772 432.227 113.028 432.025 113.277C431.839 113.525 431.598 113.758 431.303 113.976C431.007 114.178 430.658 114.341 430.254 114.465C429.865 114.589 429.407 114.652 428.879 114.652C428.366 114.652 427.877 114.582 427.411 114.442C426.96 114.302 426.556 114.084 426.199 113.789C425.857 113.494 425.585 113.129 425.383 112.694C425.181 112.259 425.08 111.746 425.08 111.156C425.08 109.866 425.585 108.872 426.595 108.173C427.605 107.474 429.042 107.124 430.906 107.124H432.398V106.588C432.398 105.842 432.204 105.337 431.815 105.073C431.442 104.794 430.836 104.654 429.997 104.654C429.158 104.654 428.389 104.763 427.69 104.98C426.991 105.198 426.377 105.438 425.849 105.703V103.139C426.377 102.875 427.053 102.634 427.877 102.417C428.7 102.199 429.601 102.09 430.58 102.09C432.165 102.09 433.4 102.424 434.285 103.092C435.187 103.76 435.637 104.825 435.637 106.285V112.461C435.637 112.601 435.637 112.764 435.637 112.95C435.653 113.121 435.66 113.3 435.66 113.486C435.676 113.673 435.692 113.851 435.707 114.022C435.723 114.178 435.738 114.31 435.754 114.418H432.747ZM429.858 112.344C430.386 112.344 430.813 112.236 431.139 112.018C431.466 111.785 431.722 111.521 431.908 111.226C432.095 110.931 432.219 110.643 432.281 110.363C432.359 110.068 432.398 109.859 432.398 109.734V109.012H431.023C430.06 109.012 429.353 109.175 428.902 109.501C428.467 109.812 428.25 110.239 428.25 110.783C428.25 111.28 428.389 111.669 428.669 111.948C428.964 112.212 429.36 112.344 429.858 112.344ZM449.199 114.418H438.595V97.709H441.928V111.645H449.199V114.418ZM461.821 113.626C461.635 113.735 461.417 113.851 461.169 113.976C460.936 114.084 460.648 114.193 460.307 114.302C459.98 114.395 459.592 114.473 459.141 114.535C458.706 114.613 458.186 114.652 457.58 114.652C455.218 114.652 453.471 114.1 452.336 112.997C451.202 111.894 450.635 110.348 450.635 108.359C450.635 107.38 450.783 106.503 451.078 105.726C451.389 104.949 451.816 104.296 452.36 103.768C452.903 103.224 453.548 102.813 454.294 102.533C455.055 102.238 455.894 102.09 456.811 102.09C457.743 102.09 458.582 102.246 459.328 102.556C460.074 102.852 460.687 103.294 461.169 103.885C461.666 104.475 462.008 105.221 462.194 106.122C462.381 107.023 462.381 108.064 462.194 109.245H453.991C454.115 110.193 454.457 110.907 455.016 111.389C455.591 111.855 456.5 112.088 457.743 112.088C458.737 112.088 459.545 111.979 460.167 111.762C460.804 111.544 461.355 111.319 461.821 111.086V113.626ZM456.857 104.491C456.143 104.491 455.545 104.708 455.063 105.143C454.581 105.578 454.255 106.207 454.084 107.031H459.118C459.134 106.176 458.947 105.539 458.559 105.12C458.17 104.7 457.603 104.491 456.857 104.491ZM470.593 104.654C469.94 104.654 469.373 104.786 468.892 105.05C468.426 105.314 468.045 105.656 467.75 106.075V114.418H464.534V102.323H467.563L467.703 104.141H467.75C468.076 103.551 468.558 103.061 469.195 102.673C469.832 102.285 470.639 102.09 471.618 102.09C472.193 102.09 472.729 102.176 473.226 102.347C473.739 102.502 474.174 102.743 474.531 103.069C474.904 103.38 475.192 103.776 475.394 104.258C475.611 104.739 475.72 105.306 475.72 105.959V114.418H472.481V106.308C472.481 105.703 472.31 105.275 471.968 105.027C471.642 104.778 471.183 104.654 470.593 104.654ZM482.426 114.652C481.835 114.652 481.299 114.605 480.818 114.512C480.336 114.418 479.901 114.302 479.513 114.162C479.14 114.022 478.821 113.875 478.557 113.719C478.293 113.564 478.083 113.424 477.928 113.3V110.923C478.083 111.063 478.293 111.21 478.557 111.366C478.821 111.521 479.132 111.669 479.489 111.808C479.862 111.933 480.282 112.041 480.748 112.135C481.214 112.212 481.727 112.251 482.286 112.251C483.125 112.251 483.7 112.135 484.01 111.902C484.321 111.669 484.477 111.366 484.477 110.993C484.477 110.697 484.399 110.472 484.244 110.317C484.088 110.146 483.878 110.022 483.614 109.944C483.366 109.851 483.078 109.781 482.752 109.734C482.426 109.688 482.084 109.625 481.727 109.548C481.276 109.455 480.818 109.338 480.352 109.198C479.901 109.043 479.489 108.833 479.117 108.569C478.759 108.305 478.464 107.963 478.231 107.544C477.998 107.109 477.881 106.565 477.881 105.912C477.881 104.716 478.316 103.784 479.186 103.116C480.056 102.432 481.299 102.09 482.915 102.09C483.847 102.09 484.64 102.191 485.292 102.393C485.945 102.595 486.411 102.797 486.691 102.999V105.376C486.349 105.143 485.883 104.933 485.292 104.747C484.717 104.561 483.972 104.467 483.055 104.467C482.2 104.467 481.602 104.568 481.261 104.77C480.934 104.972 480.771 105.268 480.771 105.656C480.771 105.92 480.841 106.122 480.981 106.262C481.136 106.402 481.338 106.51 481.587 106.588C481.835 106.666 482.115 106.728 482.426 106.775C482.752 106.806 483.086 106.844 483.428 106.891C483.878 106.969 484.337 107.077 484.803 107.217C485.269 107.342 485.688 107.544 486.061 107.823C486.45 108.103 486.76 108.476 486.993 108.942C487.242 109.392 487.366 109.967 487.366 110.666C487.366 111.412 487.227 112.041 486.947 112.554C486.667 113.051 486.294 113.463 485.828 113.789C485.362 114.1 484.834 114.317 484.244 114.442C483.653 114.582 483.047 114.652 482.426 114.652Z" fill="black"/>
<rect x="12.521" y="131.977" width="122.072" height="89.8893" rx="9.9877" fill="#D6E1FF"/>
<path d="M73.5576 150.907L74.2422 150.914C81.2784 151.048 86.8738 153.265 86.874 157.565V175.321C86.874 179.76 80.9121 181.98 73.5576 181.98L72.8721 181.973C65.8357 181.839 60.2402 179.621 60.2402 175.321V157.565C60.2405 153.126 66.203 150.907 73.5576 150.907ZM84.6543 170.458C82.2688 172.219 78.1903 173.102 73.5576 173.102L72.8721 173.095C68.5238 173.012 64.7272 172.132 62.46 170.458V175.321C62.46 176.318 63.0623 177.375 65.0693 178.299C67.0806 179.225 70.0567 179.76 73.5576 179.76C77.0584 179.76 80.0338 179.225 82.0449 178.299C84.052 177.375 84.6543 176.318 84.6543 175.321V170.458ZM84.6543 161.58C82.2688 163.341 78.1903 164.224 73.5576 164.224L72.8721 164.217C68.5238 164.134 64.7272 163.254 62.46 161.58V166.443C62.46 167.441 63.0623 168.497 65.0693 169.421C67.0806 170.347 70.0567 170.882 73.5576 170.882C77.0583 170.882 80.0338 170.347 82.0449 169.421C84.052 168.497 84.6543 167.441 84.6543 166.443V161.58ZM73.5576 153.126C70.0566 153.126 67.0806 153.661 65.0693 154.587C63.0624 155.512 62.4601 156.567 62.46 157.565C62.46 158.563 63.0623 159.619 65.0693 160.543C67.0806 161.47 70.0567 162.004 73.5576 162.004C77.0583 162.004 80.0338 161.469 82.0449 160.543C84.052 159.619 84.6543 158.563 84.6543 157.565C84.6542 156.567 84.0518 155.512 82.0449 154.587C80.0337 153.661 77.0584 153.127 73.5576 153.126Z" fill="black"/>
<path d="M54.9201 202.102H56.3494V206.064H54.9978L54.8424 203.423H46.8411L46.6702 206.064H45.3496V202.102H46.1109C46.4631 201.781 46.7427 201.351 46.9499 200.813C47.1674 200.264 47.3331 199.591 47.4471 198.793C47.561 197.995 47.6439 197.058 47.6956 195.981C47.7474 194.904 47.7889 193.671 47.8199 192.283H54.9201V202.102ZM53.4441 202.102V193.619H49.1871C49.1561 194.8 49.1095 195.846 49.0473 196.758C48.9955 197.659 48.9127 198.451 48.7987 199.135C48.6951 199.818 48.5605 200.404 48.3948 200.89C48.2394 201.367 48.0426 201.771 47.8044 202.102H53.4441ZM62.8078 201.885C62.7146 202.071 62.5955 202.268 62.4505 202.475C62.3055 202.672 62.1242 202.853 61.9067 203.019C61.6892 203.185 61.4303 203.319 61.1299 203.423C60.8399 203.526 60.4981 203.578 60.1045 203.578C59.3795 203.578 58.7943 203.376 58.3489 202.972C57.9035 202.558 57.6808 201.968 57.6808 201.201C57.6808 200.321 57.9864 199.673 58.5975 199.259C59.2189 198.845 60.0993 198.638 61.2387 198.638H62.7457V197.97C62.7457 197.41 62.6007 197.011 62.3107 196.773C62.0207 196.535 61.5235 196.416 60.8192 196.416C60.322 196.416 59.8507 196.499 59.4054 196.665C58.96 196.82 58.5612 197.001 58.2091 197.208V195.981C58.4991 195.805 58.8875 195.634 59.3743 195.468C59.8715 195.292 60.4152 195.204 61.0056 195.204C62.0207 195.204 62.7923 195.416 63.3205 195.841C63.8488 196.255 64.1129 196.903 64.1129 197.783V202.118C64.1129 202.211 64.1129 202.32 64.1129 202.444C64.1233 202.558 64.1284 202.677 64.1284 202.801C64.1388 202.926 64.1492 203.045 64.1595 203.159C64.1699 203.262 64.1802 203.35 64.1906 203.423H62.9477C62.9166 203.278 62.8855 203.076 62.8545 202.817C62.8337 202.548 62.8234 202.315 62.8234 202.118L62.8078 201.885ZM60.3997 202.351C60.8244 202.351 61.1869 202.263 61.4872 202.087C61.7876 201.911 62.031 201.709 62.2175 201.481C62.4039 201.243 62.5385 201.015 62.6214 200.797C62.7043 200.569 62.7457 200.409 62.7457 200.316V199.725H61.3785C60.5602 199.725 59.9647 199.844 59.5918 200.083C59.2293 200.31 59.048 200.657 59.048 201.123C59.048 201.486 59.1568 201.781 59.3743 202.009C59.5918 202.237 59.9336 202.351 60.3997 202.351ZM71.5295 199.849H67.6298V203.423H66.2626V195.359H67.6298V198.684H71.5295V195.359H72.8967V203.423H71.5295V199.849ZM80.4053 199.849H76.5056V203.423H75.1384V195.359H76.5056V198.684H80.4053V195.359H81.7725V203.423H80.4053V199.849ZM89.9802 200.735C89.9802 201.201 89.8973 201.605 89.7316 201.947C89.5659 202.289 89.3329 202.568 89.0325 202.786C88.7321 203.003 88.3748 203.164 87.9605 203.267C87.5462 203.371 87.0956 203.423 86.6088 203.423H84.0142V195.359H85.3814V198.172H86.702C87.7274 198.172 88.5301 198.374 89.1102 198.777C89.6902 199.181 89.9802 199.834 89.9802 200.735ZM92.5126 203.423H91.1454V195.359H92.5126V203.423ZM85.3814 199.337V202.258H86.6088C87.1992 202.258 87.6756 202.149 88.0381 201.931C88.411 201.703 88.5975 201.331 88.5975 200.813C88.5975 200.284 88.4317 199.906 88.1003 199.679C87.7689 199.451 87.3028 199.337 86.702 199.337H85.3814ZM101.173 202.739C101.059 202.822 100.919 202.91 100.753 203.003C100.588 203.097 100.386 203.19 100.147 203.283C99.9091 203.366 99.6398 203.433 99.3394 203.485C99.0391 203.547 98.7024 203.578 98.3296 203.578C96.9727 203.578 95.9421 203.211 95.2378 202.475C94.5335 201.74 94.1813 200.709 94.1813 199.383C94.1813 198.731 94.2746 198.146 94.461 197.628C94.6578 197.11 94.9271 196.675 95.2689 196.323C95.6107 195.96 96.0146 195.686 96.4807 195.499C96.9468 195.302 97.4544 195.204 98.0033 195.204C98.5833 195.204 99.1012 195.302 99.557 195.499C100.013 195.696 100.386 195.986 100.676 196.369C100.976 196.753 101.178 197.229 101.281 197.799C101.395 198.358 101.395 199.011 101.281 199.756H95.5952C95.647 200.626 95.9059 201.279 96.372 201.714C96.8381 202.139 97.532 202.351 98.4539 202.351C99.0753 202.351 99.6087 202.263 100.054 202.087C100.499 201.911 100.872 201.719 101.173 201.512V202.739ZM97.9722 196.416C97.3819 196.416 96.8743 196.597 96.4497 196.96C96.025 197.322 95.7557 197.871 95.6418 198.607H99.9764C100.018 197.861 99.847 197.312 99.4637 196.96C99.0805 196.597 98.5833 196.416 97.9722 196.416Z" fill="black"/>
<rect x="12.521" y="256.656" width="122.072" height="89.8893" rx="9.9877" fill="#D6E1FF"/>
<path d="M73.5576 275.586L74.2422 275.593C81.2784 275.727 86.8738 277.944 86.874 282.244V300C86.874 304.439 80.9121 306.659 73.5576 306.659L72.8721 306.652C65.8357 306.518 60.2402 304.3 60.2402 300V282.244C60.2405 277.805 66.203 275.586 73.5576 275.586ZM84.6543 295.137C82.2688 296.898 78.1903 297.781 73.5576 297.781L72.8721 297.774C68.5238 297.691 64.7272 296.811 62.46 295.137V300C62.46 300.998 63.0623 302.054 65.0693 302.979C67.0806 303.905 70.0567 304.439 73.5576 304.439C77.0584 304.439 80.0338 303.905 82.0449 302.979C84.052 302.054 84.6543 300.998 84.6543 300V295.137ZM84.6543 286.259C82.2688 288.02 78.1903 288.903 73.5576 288.903L72.8721 288.896C68.5238 288.813 64.7272 287.933 62.46 286.259V291.122C62.46 292.12 63.0623 293.176 65.0693 294.101C67.0806 295.027 70.0567 295.562 73.5576 295.562C77.0583 295.561 80.0338 295.027 82.0449 294.101C84.052 293.176 84.6543 292.12 84.6543 291.122V286.259ZM73.5576 277.806C70.0566 277.806 67.0806 278.34 65.0693 279.267C63.0624 280.191 62.4601 281.247 62.46 282.244C62.46 283.242 63.0623 284.298 65.0693 285.223C67.0806 286.149 70.0567 286.684 73.5576 286.684C77.0583 286.684 80.0338 286.149 82.0449 285.223C84.052 284.298 84.6543 283.242 84.6543 282.244C84.6542 281.247 84.0518 280.191 82.0449 279.267C80.0337 278.341 77.0584 277.806 73.5576 277.806Z" fill="black"/>
<path d="M54.9201 326.781H56.3494V330.743H54.9978L54.8424 328.102H46.8411L46.6702 330.743H45.3496V326.781H46.1109C46.4631 326.46 46.7427 326.03 46.9499 325.491C47.1674 324.942 47.3331 324.269 47.4471 323.472C47.561 322.674 47.6439 321.737 47.6956 320.66C47.7474 319.582 47.7889 318.35 47.8199 316.962H54.9201V326.781ZM53.4441 326.781V318.298H49.1871C49.1561 319.479 49.1095 320.525 49.0473 321.436C48.9955 322.338 48.9127 323.13 48.7987 323.814C48.6951 324.497 48.5605 325.082 48.3948 325.569C48.2394 326.046 48.0426 326.45 47.8044 326.781H53.4441ZM62.8078 326.563C62.7146 326.75 62.5955 326.947 62.4505 327.154C62.3055 327.351 62.1242 327.532 61.9067 327.698C61.6892 327.863 61.4303 327.998 61.1299 328.102C60.8399 328.205 60.4981 328.257 60.1045 328.257C59.3795 328.257 58.7943 328.055 58.3489 327.651C57.9035 327.237 57.6808 326.646 57.6808 325.88C57.6808 324.999 57.9864 324.352 58.5975 323.938C59.2189 323.523 60.0993 323.316 61.2387 323.316H62.7457V322.648C62.7457 322.089 62.6007 321.69 62.3107 321.452C62.0207 321.214 61.5235 321.095 60.8192 321.095C60.322 321.095 59.8507 321.177 59.4054 321.343C58.96 321.499 58.5612 321.68 58.2091 321.887V320.66C58.4991 320.484 58.8875 320.313 59.3743 320.147C59.8715 319.971 60.4152 319.883 61.0056 319.883C62.0207 319.883 62.7923 320.095 63.3205 320.52C63.8488 320.934 64.1129 321.581 64.1129 322.462V326.797C64.1129 326.89 64.1129 326.998 64.1129 327.123C64.1233 327.237 64.1284 327.356 64.1284 327.48C64.1388 327.604 64.1492 327.724 64.1595 327.837C64.1699 327.941 64.1802 328.029 64.1906 328.102H62.9477C62.9166 327.957 62.8855 327.755 62.8545 327.496C62.8337 327.226 62.8234 326.993 62.8234 326.797L62.8078 326.563ZM60.3997 327.03C60.8244 327.03 61.1869 326.942 61.4872 326.765C61.7876 326.589 62.031 326.387 62.2175 326.16C62.4039 325.921 62.5385 325.693 62.6214 325.476C62.7043 325.248 62.7457 325.087 62.7457 324.994V324.404H61.3785C60.5602 324.404 59.9647 324.523 59.5918 324.761C59.2293 324.989 59.048 325.336 59.048 325.802C59.048 326.165 59.1568 326.46 59.3743 326.688C59.5918 326.916 59.9336 327.03 60.3997 327.03ZM71.5295 324.528H67.6298V328.102H66.2626V320.038H67.6298V323.363H71.5295V320.038H72.8967V328.102H71.5295V324.528ZM80.4053 324.528H76.5056V328.102H75.1384V320.038H76.5056V323.363H80.4053V320.038H81.7725V328.102H80.4053V324.528ZM89.9802 325.414C89.9802 325.88 89.8973 326.284 89.7316 326.626C89.5659 326.967 89.3329 327.247 89.0325 327.465C88.7321 327.682 88.3748 327.843 87.9605 327.946C87.5462 328.05 87.0956 328.102 86.6088 328.102H84.0142V320.038H85.3814V322.85H86.702C87.7274 322.85 88.5301 323.052 89.1102 323.456C89.6902 323.86 89.9802 324.513 89.9802 325.414ZM92.5126 328.102H91.1454V320.038H92.5126V328.102ZM85.3814 324.015V326.936H86.6088C87.1992 326.936 87.6756 326.828 88.0381 326.61C88.411 326.382 88.5975 326.009 88.5975 325.491C88.5975 324.963 88.4317 324.585 88.1003 324.357C87.7689 324.129 87.3028 324.015 86.702 324.015H85.3814ZM101.173 327.418C101.059 327.501 100.919 327.589 100.753 327.682C100.588 327.775 100.386 327.869 100.147 327.962C99.9091 328.045 99.6398 328.112 99.3394 328.164C99.0391 328.226 98.7024 328.257 98.3296 328.257C96.9727 328.257 95.9421 327.889 95.2378 327.154C94.5335 326.418 94.1813 325.388 94.1813 324.062C94.1813 323.41 94.2746 322.824 94.461 322.306C94.6578 321.789 94.9271 321.354 95.2689 321.001C95.6107 320.639 96.0146 320.364 96.4807 320.178C96.9468 319.981 97.4544 319.883 98.0033 319.883C98.5833 319.883 99.1012 319.981 99.557 320.178C100.013 320.375 100.386 320.665 100.676 321.048C100.976 321.431 101.178 321.908 101.281 322.477C101.395 323.037 101.395 323.689 101.281 324.435H95.5952C95.647 325.305 95.9059 325.958 96.372 326.393C96.8381 326.817 97.532 327.03 98.4539 327.03C99.0753 327.03 99.6087 326.942 100.054 326.765C100.499 326.589 100.872 326.398 101.173 326.191V327.418ZM97.9722 321.095C97.3819 321.095 96.8743 321.276 96.4497 321.638C96.025 322.001 95.7557 322.55 95.6418 323.285H99.9764C100.018 322.54 99.847 321.991 99.4637 321.638C99.0805 321.276 98.5833 321.095 97.9722 321.095Z" fill="black"/>
<rect x="12.521" y="381.336" width="122.072" height="89.8893" rx="9.9877" fill="#D6E1FF"/>
<path d="M73.5576 400.266L74.2422 400.272C81.2784 400.407 86.8738 402.624 86.874 406.924V424.68C86.874 429.119 80.9121 431.339 73.5576 431.339L72.8721 431.332C65.8357 431.198 60.2402 428.98 60.2402 424.68V406.924C60.2405 402.485 66.203 400.266 73.5576 400.266ZM84.6543 419.816C82.2688 421.578 78.1903 422.461 73.5576 422.461L72.8721 422.454C68.5238 422.371 64.7272 421.49 62.46 419.816V424.68C62.46 425.677 63.0623 426.734 65.0693 427.658C67.0806 428.584 70.0567 429.119 73.5576 429.119C77.0584 429.119 80.0338 428.584 82.0449 427.658C84.052 426.734 84.6543 425.677 84.6543 424.68V419.816ZM84.6543 410.938C82.2688 412.7 78.1903 413.583 73.5576 413.583L72.8721 413.576C68.5238 413.493 64.7272 412.613 62.46 410.938V415.802C62.46 416.799 63.0623 417.856 65.0693 418.78C67.0806 419.706 70.0567 420.241 73.5576 420.241C77.0583 420.241 80.0338 419.706 82.0449 418.78C84.052 417.856 84.6543 416.799 84.6543 415.802V410.938ZM73.5576 402.485C70.0566 402.485 67.0806 403.02 65.0693 403.946C63.0624 404.87 62.4601 405.926 62.46 406.924C62.46 407.921 63.0623 408.978 65.0693 409.902C67.0806 410.828 70.0567 411.363 73.5576 411.363C77.0583 411.363 80.0338 410.828 82.0449 409.902C84.052 408.978 84.6543 407.921 84.6543 406.924C84.6542 405.926 84.0518 404.87 82.0449 403.946C80.0337 403.02 77.0584 402.485 73.5576 402.485Z" fill="black"/>
<path d="M54.9201 451.462H56.3494V455.423H54.9978L54.8424 452.782H46.8411L46.6702 455.423H45.3496V451.462H46.1109C46.4631 451.141 46.7427 450.711 46.9499 450.172C47.1674 449.623 47.3331 448.95 47.4471 448.152C47.561 447.355 47.6439 446.417 47.6956 445.34C47.7474 444.263 47.7889 443.031 47.8199 441.643H54.9201V451.462ZM53.4441 451.462V442.979H49.1871C49.1561 444.16 49.1095 445.206 49.0473 446.117C48.9955 447.018 48.9127 447.811 48.7987 448.494C48.6951 449.178 48.5605 449.763 48.3948 450.25C48.2394 450.726 48.0426 451.13 47.8044 451.462H53.4441ZM62.8078 451.244C62.7146 451.431 62.5955 451.627 62.4505 451.835C62.3055 452.031 62.1242 452.213 61.9067 452.378C61.6892 452.544 61.4303 452.679 61.1299 452.782C60.8399 452.886 60.4981 452.938 60.1045 452.938C59.3795 452.938 58.7943 452.736 58.3489 452.332C57.9035 451.917 57.6808 451.327 57.6808 450.561C57.6808 449.68 57.9864 449.033 58.5975 448.618C59.2189 448.204 60.0993 447.997 61.2387 447.997H62.7457V447.329C62.7457 446.77 62.6007 446.371 62.3107 446.133C62.0207 445.894 61.5235 445.775 60.8192 445.775C60.322 445.775 59.8507 445.858 59.4054 446.024C58.96 446.179 58.5612 446.361 58.2091 446.568V445.34C58.4991 445.164 58.8875 444.993 59.3743 444.828C59.8715 444.651 60.4152 444.563 61.0056 444.563C62.0207 444.563 62.7923 444.776 63.3205 445.2C63.8488 445.615 64.1129 446.262 64.1129 447.143V451.477C64.1129 451.57 64.1129 451.679 64.1129 451.803C64.1233 451.917 64.1284 452.036 64.1284 452.161C64.1388 452.285 64.1492 452.404 64.1595 452.518C64.1699 452.622 64.1802 452.71 64.1906 452.782H62.9477C62.9166 452.637 62.8855 452.435 62.8545 452.176C62.8337 451.907 62.8234 451.674 62.8234 451.477L62.8078 451.244ZM60.3997 451.71C60.8244 451.71 61.1869 451.622 61.4872 451.446C61.7876 451.27 62.031 451.068 62.2175 450.84C62.4039 450.602 62.5385 450.374 62.6214 450.157C62.7043 449.929 62.7457 449.768 62.7457 449.675V449.085H61.3785C60.5602 449.085 59.9647 449.204 59.5918 449.442C59.2293 449.67 59.048 450.017 59.048 450.483C59.048 450.845 59.1568 451.141 59.3743 451.368C59.5918 451.596 59.9336 451.71 60.3997 451.71ZM71.5295 449.209H67.6298V452.782H66.2626V444.719H67.6298V448.044H71.5295V444.719H72.8967V452.782H71.5295V449.209ZM80.4053 449.209H76.5056V452.782H75.1384V444.719H76.5056V448.044H80.4053V444.719H81.7725V452.782H80.4053V449.209ZM89.9802 450.094C89.9802 450.561 89.8973 450.964 89.7316 451.306C89.5659 451.648 89.3329 451.928 89.0325 452.145C88.7321 452.363 88.3748 452.523 87.9605 452.627C87.5462 452.73 87.0956 452.782 86.6088 452.782H84.0142V444.719H85.3814V447.531H86.702C87.7274 447.531 88.5301 447.733 89.1102 448.137C89.6902 448.541 89.9802 449.193 89.9802 450.094ZM92.5126 452.782H91.1454V444.719H92.5126V452.782ZM85.3814 448.696V451.617H86.6088C87.1992 451.617 87.6756 451.508 88.0381 451.291C88.411 451.063 88.5975 450.69 88.5975 450.172C88.5975 449.644 88.4317 449.266 88.1003 449.038C87.7689 448.81 87.3028 448.696 86.702 448.696H85.3814ZM101.173 452.099C101.059 452.181 100.919 452.27 100.753 452.363C100.588 452.456 100.386 452.549 100.147 452.642C99.9091 452.725 99.6398 452.793 99.3394 452.844C99.0391 452.907 98.7024 452.938 98.3296 452.938C96.9727 452.938 95.9421 452.57 95.2378 451.835C94.5335 451.099 94.1813 450.069 94.1813 448.743C94.1813 448.09 94.2746 447.505 94.461 446.987C94.6578 446.469 94.9271 446.034 95.2689 445.682C95.6107 445.32 96.0146 445.045 96.4807 444.859C96.9468 444.662 97.4544 444.563 98.0033 444.563C98.5833 444.563 99.1012 444.662 99.557 444.859C100.013 445.055 100.386 445.345 100.676 445.729C100.976 446.112 101.178 446.588 101.281 447.158C101.395 447.717 101.395 448.37 101.281 449.116H95.5952C95.647 449.986 95.9059 450.638 96.372 451.073C96.8381 451.498 97.532 451.71 98.4539 451.71C99.0753 451.71 99.6087 451.622 100.054 451.446C100.499 451.27 100.872 451.078 101.173 450.871V452.099ZM97.9722 445.775C97.3819 445.775 96.8743 445.957 96.4497 446.319C96.025 446.682 95.7557 447.231 95.6418 447.966H99.9764C100.018 447.22 99.847 446.671 99.4637 446.319C99.0805 445.957 98.5833 445.775 97.9722 445.775Z" fill="black"/>
<path d="M247.794 191.536H256.168V202.676H254.692V192.872H249.255V202.676H247.794V191.536ZM261.887 202.831C261.338 202.831 260.825 202.738 260.349 202.551C259.872 202.365 259.458 202.096 259.106 201.744C258.764 201.381 258.495 200.941 258.298 200.423C258.101 199.905 258.003 199.31 258.003 198.636C258.003 197.973 258.101 197.383 258.298 196.865C258.495 196.337 258.764 195.897 259.106 195.545C259.458 195.192 259.872 194.923 260.349 194.737C260.825 194.55 261.338 194.457 261.887 194.457C262.446 194.457 262.964 194.55 263.44 194.737C263.917 194.923 264.326 195.192 264.668 195.545C265.02 195.897 265.294 196.337 265.491 196.865C265.698 197.383 265.802 197.973 265.802 198.636C265.802 199.31 265.698 199.905 265.491 200.423C265.294 200.941 265.02 201.381 264.668 201.744C264.326 202.096 263.917 202.365 263.44 202.551C262.964 202.738 262.446 202.831 261.887 202.831ZM261.887 201.604C262.249 201.604 262.581 201.547 262.881 201.433C263.192 201.309 263.461 201.127 263.689 200.889C263.917 200.641 264.093 200.33 264.217 199.957C264.341 199.584 264.404 199.144 264.404 198.636C264.404 198.129 264.341 197.689 264.217 197.316C264.093 196.943 263.917 196.637 263.689 196.399C263.461 196.15 263.192 195.969 262.881 195.855C262.581 195.731 262.249 195.669 261.887 195.669C261.524 195.669 261.193 195.731 260.892 195.855C260.592 195.969 260.328 196.15 260.1 196.399C259.882 196.637 259.712 196.943 259.587 197.316C259.463 197.689 259.401 198.129 259.401 198.636C259.401 199.144 259.463 199.584 259.587 199.957C259.712 200.33 259.882 200.641 260.1 200.889C260.328 201.127 260.592 201.309 260.892 201.433C261.193 201.547 261.524 201.604 261.887 201.604ZM266.957 201.511C267.247 201.334 267.475 201.06 267.641 200.687C267.807 200.314 267.936 199.843 268.029 199.273C268.123 198.704 268.185 198.03 268.216 197.254C268.257 196.477 268.294 195.596 268.325 194.612H273.871V201.511H275.083V204.975H273.887L273.716 202.676H267.719L267.579 204.975H266.352V201.511H266.957ZM272.504 201.511V195.778H269.552C269.5 197.3 269.402 198.522 269.257 199.444C269.122 200.356 268.884 201.044 268.542 201.511H272.504ZM278.593 199.242H277.878V202.676H276.511V194.612H277.878V198.077H278.655L281.483 194.612H283.036L279.727 198.59L283.098 202.676H281.436L278.593 199.242ZM285.159 200.174C285.304 199.646 285.397 198.932 285.438 198.03C285.48 197.129 285.5 195.99 285.5 194.612H290.923V202.676H289.54V195.778H286.79C286.78 196.886 286.743 197.87 286.681 198.73C286.629 199.589 286.51 200.314 286.324 200.905C286.148 201.495 285.884 201.946 285.531 202.256C285.19 202.557 284.729 202.707 284.149 202.707C284.107 202.707 284.066 202.707 284.024 202.707C283.983 202.707 283.936 202.702 283.885 202.691V201.34C283.936 201.35 284.004 201.355 284.087 201.355C284.615 201.355 284.972 200.962 285.159 200.174ZM303.316 198.636C303.316 199.31 303.218 199.905 303.021 200.423C302.835 200.941 302.57 201.381 302.229 201.744C301.897 202.096 301.504 202.365 301.048 202.551C300.592 202.738 300.095 202.831 299.556 202.831C299.059 202.831 298.593 202.748 298.158 202.583C297.723 202.417 297.34 202.179 297.008 201.868C296.687 201.547 296.423 201.153 296.216 200.687C296.009 200.221 295.885 199.693 295.843 199.102H294.507V202.676H293.14V194.612H294.507V197.937H295.874C295.936 197.378 296.071 196.886 296.278 196.461C296.485 196.026 296.749 195.664 297.071 195.374C297.402 195.073 297.775 194.845 298.189 194.69C298.614 194.535 299.07 194.457 299.556 194.457C300.095 194.457 300.592 194.55 301.048 194.737C301.504 194.923 301.897 195.192 302.229 195.545C302.57 195.897 302.835 196.337 303.021 196.865C303.218 197.383 303.316 197.973 303.316 198.636ZM299.556 201.604C299.898 201.604 300.209 201.547 300.489 201.433C300.779 201.309 301.027 201.127 301.234 200.889C301.441 200.641 301.602 200.33 301.716 199.957C301.84 199.584 301.902 199.144 301.902 198.636C301.902 198.129 301.84 197.689 301.716 197.316C301.602 196.943 301.441 196.637 301.234 196.399C301.027 196.15 300.779 195.969 300.489 195.855C300.209 195.731 299.898 195.669 299.556 195.669C299.225 195.669 298.914 195.731 298.624 195.855C298.345 195.969 298.101 196.15 297.894 196.399C297.687 196.637 297.521 196.943 297.397 197.316C297.283 197.689 297.226 198.129 297.226 198.636C297.226 199.144 297.283 199.584 297.397 199.957C297.521 200.33 297.687 200.641 297.894 200.889C298.101 201.127 298.345 201.309 298.624 201.433C298.914 201.547 299.225 201.604 299.556 201.604ZM310.992 202.676H309.625V199.133C309.345 199.351 309.019 199.522 308.646 199.646C308.284 199.76 307.869 199.817 307.403 199.817C306.492 199.817 305.793 199.594 305.306 199.149C304.83 198.693 304.591 197.968 304.591 196.974V194.612H305.974V196.989C305.974 197.621 306.119 198.061 306.409 198.31C306.699 198.559 307.108 198.683 307.636 198.683C307.999 198.683 308.351 198.631 308.693 198.528C309.035 198.424 309.345 198.263 309.625 198.046V194.612H310.992V202.676ZM319.644 201.992C319.531 202.075 319.391 202.163 319.225 202.256C319.059 202.35 318.857 202.443 318.619 202.536C318.381 202.619 318.112 202.686 317.811 202.738C317.511 202.8 317.174 202.831 316.801 202.831C315.444 202.831 314.414 202.463 313.71 201.728C313.005 200.993 312.653 199.962 312.653 198.636C312.653 197.984 312.746 197.399 312.933 196.881C313.13 196.363 313.399 195.928 313.741 195.576C314.082 195.213 314.486 194.939 314.952 194.752C315.419 194.555 315.926 194.457 316.475 194.457C317.055 194.457 317.573 194.555 318.029 194.752C318.484 194.949 318.857 195.239 319.147 195.622C319.448 196.005 319.65 196.482 319.753 197.052C319.867 197.611 319.867 198.263 319.753 199.009H314.067C314.119 199.879 314.378 200.532 314.844 200.967C315.31 201.391 316.004 201.604 316.926 201.604C317.547 201.604 318.08 201.516 318.526 201.34C318.971 201.164 319.344 200.972 319.644 200.765V201.992ZM316.444 195.669C315.854 195.669 315.346 195.85 314.921 196.213C314.497 196.575 314.227 197.124 314.114 197.859H318.448C318.49 197.114 318.319 196.565 317.935 196.213C317.552 195.85 317.055 195.669 316.444 195.669ZM326.855 199.102H322.955V202.676H321.588V194.612H322.955V197.937H326.855V194.612H328.222V202.676H326.855V199.102ZM331.831 200.811L336.134 194.612H337.517V202.676H336.15V196.492L331.862 202.676H330.464V194.612H331.831V200.811ZM346.166 201.992C346.052 202.075 345.912 202.163 345.746 202.256C345.58 202.35 345.378 202.443 345.14 202.536C344.902 202.619 344.633 202.686 344.332 202.738C344.032 202.8 343.695 202.831 343.322 202.831C341.966 202.831 340.935 202.463 340.231 201.728C339.526 200.993 339.174 199.962 339.174 198.636C339.174 197.984 339.267 197.399 339.454 196.881C339.651 196.363 339.92 195.928 340.262 195.576C340.604 195.213 341.008 194.939 341.474 194.752C341.94 194.555 342.447 194.457 342.996 194.457C343.576 194.457 344.094 194.555 344.55 194.752C345.006 194.949 345.378 195.239 345.668 195.622C345.969 196.005 346.171 196.482 346.274 197.052C346.388 197.611 346.388 198.263 346.274 199.009H340.588C340.64 199.879 340.899 200.532 341.365 200.967C341.831 201.391 342.525 201.604 343.447 201.604C344.068 201.604 344.602 201.516 345.047 201.34C345.492 201.164 345.865 200.972 346.166 200.765V201.992ZM342.965 195.669C342.375 195.669 341.867 195.85 341.443 196.213C341.018 196.575 340.749 197.124 340.635 197.859H344.969C345.011 197.114 344.84 196.565 344.457 196.213C344.073 195.85 343.576 195.669 342.965 195.669Z" fill="black"/>
<path fill-rule="evenodd" clip-rule="evenodd" d="M296.241 153.657C297.974 153.007 299.9 153.109 301.556 153.936L308.596 157.456C310.852 158.584 312.277 160.889 312.277 163.411V174.657L312.271 174.917C312.167 177.587 310.473 179.947 307.956 180.892L297.239 184.91C295.614 185.52 293.819 185.469 292.237 184.778L291.923 184.632L284.884 181.112C282.629 179.984 281.204 177.678 281.204 175.156V163.91C281.204 161.135 282.925 158.65 285.524 157.676L296.241 153.657ZM295.63 167.846V182.601C295.63 182.768 295.591 182.927 295.525 183.069C295.841 183.024 296.155 182.946 296.459 182.832L307.176 178.813C308.909 178.164 310.057 176.508 310.057 174.657V163.411C310.057 163.175 310.036 162.942 310 162.714L295.63 167.846ZM283.56 162.823C283.472 163.173 283.423 163.538 283.423 163.91V175.156C283.423 176.837 284.373 178.375 285.876 179.127L292.917 182.646C293.088 182.732 293.265 182.805 293.444 182.867C293.423 182.782 293.411 182.692 293.411 182.601V167.749L283.56 162.823ZM300.564 155.921C299.46 155.369 298.176 155.302 297.02 155.735L286.303 159.754C285.65 159.999 285.079 160.387 284.623 160.875L294.594 165.859L309.11 160.675C308.712 160.167 308.202 159.741 307.603 159.441L300.564 155.921Z" fill="black"/>
<path d="M247.705 316.23H256.08V327.369H254.604V317.566H249.166V327.369H247.705V316.23ZM261.798 327.525C261.249 327.525 260.736 327.431 260.26 327.245C259.783 327.058 259.369 326.789 259.017 326.437C258.675 326.074 258.406 325.634 258.209 325.116C258.012 324.598 257.914 324.003 257.914 323.33C257.914 322.667 258.012 322.076 258.209 321.559C258.406 321.03 258.675 320.59 259.017 320.238C259.369 319.886 259.783 319.616 260.26 319.43C260.736 319.244 261.249 319.15 261.798 319.15C262.357 319.15 262.875 319.244 263.351 319.43C263.828 319.616 264.237 319.886 264.579 320.238C264.931 320.59 265.205 321.03 265.402 321.559C265.609 322.076 265.713 322.667 265.713 323.33C265.713 324.003 265.609 324.598 265.402 325.116C265.205 325.634 264.931 326.074 264.579 326.437C264.237 326.789 263.828 327.058 263.351 327.245C262.875 327.431 262.357 327.525 261.798 327.525ZM261.798 326.297C262.16 326.297 262.492 326.24 262.792 326.126C263.103 326.002 263.372 325.821 263.6 325.582C263.828 325.334 264.004 325.023 264.128 324.65C264.253 324.277 264.315 323.837 264.315 323.33C264.315 322.822 264.253 322.382 264.128 322.009C264.004 321.636 263.828 321.331 263.6 321.092C263.372 320.844 263.103 320.663 262.792 320.549C262.492 320.424 262.16 320.362 261.798 320.362C261.435 320.362 261.104 320.424 260.803 320.549C260.503 320.663 260.239 320.844 260.011 321.092C259.794 321.331 259.623 321.636 259.498 322.009C259.374 322.382 259.312 322.822 259.312 323.33C259.312 323.837 259.374 324.277 259.498 324.65C259.623 325.023 259.794 325.334 260.011 325.582C260.239 325.821 260.503 326.002 260.803 326.126C261.104 326.24 261.435 326.297 261.798 326.297ZM266.869 326.204C267.159 326.028 267.386 325.753 267.552 325.38C267.718 325.008 267.847 324.536 267.941 323.967C268.034 323.397 268.096 322.724 268.127 321.947C268.168 321.17 268.205 320.29 268.236 319.306H273.782V326.204H274.994V329.669H273.798L273.627 327.369H267.63L267.49 329.669H266.263V326.204H266.869ZM272.415 326.204V320.471H269.463C269.411 321.994 269.313 323.216 269.168 324.138C269.033 325.049 268.795 325.738 268.453 326.204H272.415ZM278.504 323.936H277.789V327.369H276.422V319.306H277.789V322.77H278.566L281.394 319.306H282.947L279.638 323.283L283.01 327.369H281.347L278.504 323.936ZM285.07 324.868C285.215 324.34 285.308 323.625 285.349 322.724C285.391 321.823 285.412 320.683 285.412 319.306H290.834V327.369H289.451V320.471H286.701C286.691 321.579 286.654 322.563 286.592 323.423C286.541 324.283 286.421 325.008 286.235 325.598C286.059 326.188 285.795 326.639 285.443 326.95C285.101 327.25 284.64 327.4 284.06 327.4C284.018 327.4 283.977 327.4 283.936 327.4C283.894 327.4 283.848 327.395 283.796 327.385V326.033C283.848 326.043 283.915 326.049 283.998 326.049C284.526 326.049 284.883 325.655 285.07 324.868ZM303.227 323.33C303.227 324.003 303.129 324.598 302.932 325.116C302.746 325.634 302.482 326.074 302.14 326.437C301.808 326.789 301.415 327.058 300.959 327.245C300.503 327.431 300.006 327.525 299.468 327.525C298.97 327.525 298.504 327.442 298.069 327.276C297.634 327.11 297.251 326.872 296.92 326.561C296.598 326.24 296.334 325.847 296.127 325.38C295.92 324.914 295.796 324.386 295.754 323.796H294.418V327.369H293.051V319.306H294.418V322.631H295.785C295.848 322.071 295.982 321.579 296.189 321.155C296.396 320.72 296.661 320.357 296.982 320.067C297.313 319.767 297.686 319.539 298.1 319.383C298.525 319.228 298.981 319.15 299.468 319.15C300.006 319.15 300.503 319.244 300.959 319.43C301.415 319.616 301.808 319.886 302.14 320.238C302.482 320.59 302.746 321.03 302.932 321.559C303.129 322.076 303.227 322.667 303.227 323.33ZM299.468 326.297C299.809 326.297 300.12 326.24 300.4 326.126C300.69 326.002 300.938 325.821 301.145 325.582C301.353 325.334 301.513 325.023 301.627 324.65C301.751 324.277 301.814 323.837 301.814 323.33C301.814 322.822 301.751 322.382 301.627 322.009C301.513 321.636 301.353 321.331 301.145 321.092C300.938 320.844 300.69 320.663 300.4 320.549C300.12 320.424 299.809 320.362 299.468 320.362C299.136 320.362 298.825 320.424 298.535 320.549C298.256 320.663 298.012 320.844 297.805 321.092C297.598 321.331 297.432 321.636 297.308 322.009C297.194 322.382 297.137 322.822 297.137 323.33C297.137 323.837 297.194 324.277 297.308 324.65C297.432 325.023 297.598 325.334 297.805 325.582C298.012 325.821 298.256 326.002 298.535 326.126C298.825 326.24 299.136 326.297 299.468 326.297ZM310.903 327.369H309.536V323.827C309.257 324.044 308.93 324.215 308.557 324.34C308.195 324.453 307.781 324.51 307.315 324.51C306.403 324.51 305.704 324.288 305.217 323.842C304.741 323.387 304.502 322.662 304.502 321.667V319.306H305.885V321.683C305.885 322.315 306.03 322.755 306.32 323.003C306.61 323.252 307.019 323.376 307.548 323.376C307.91 323.376 308.262 323.324 308.604 323.221C308.946 323.117 309.257 322.957 309.536 322.739V319.306H310.903V327.369ZM319.556 326.686C319.442 326.768 319.302 326.856 319.136 326.95C318.97 327.043 318.768 327.136 318.53 327.229C318.292 327.312 318.023 327.379 317.722 327.431C317.422 327.493 317.085 327.525 316.712 327.525C315.356 327.525 314.325 327.157 313.621 326.421C312.916 325.686 312.564 324.655 312.564 323.33C312.564 322.677 312.657 322.092 312.844 321.574C313.041 321.056 313.31 320.621 313.652 320.269C313.994 319.906 314.398 319.632 314.864 319.446C315.33 319.249 315.837 319.15 316.386 319.15C316.966 319.15 317.484 319.249 317.94 319.446C318.396 319.642 318.768 319.932 319.058 320.316C319.359 320.699 319.561 321.175 319.664 321.745C319.778 322.304 319.778 322.957 319.664 323.703H313.978C314.03 324.573 314.289 325.225 314.755 325.66C315.221 326.085 315.915 326.297 316.837 326.297C317.458 326.297 317.992 326.209 318.437 326.033C318.882 325.857 319.255 325.665 319.556 325.458V326.686ZM316.355 320.362C315.765 320.362 315.257 320.543 314.833 320.906C314.408 321.269 314.139 321.817 314.025 322.553H318.359C318.401 321.807 318.23 321.258 317.847 320.906C317.463 320.543 316.966 320.362 316.355 320.362ZM326.766 323.796H322.866V327.369H321.499V319.306H322.866V322.631H326.766V319.306H328.133V327.369H326.766V323.796ZM331.742 325.505L336.046 319.306H337.428V327.369H336.061V321.186L331.773 327.369H330.375V319.306H331.742V325.505ZM346.077 326.686C345.963 326.768 345.823 326.856 345.657 326.95C345.492 327.043 345.29 327.136 345.051 327.229C344.813 327.312 344.544 327.379 344.243 327.431C343.943 327.493 343.607 327.525 343.234 327.525C341.877 327.525 340.846 327.157 340.142 326.421C339.438 325.686 339.085 324.655 339.085 323.33C339.085 322.677 339.179 322.092 339.365 321.574C339.562 321.056 339.831 320.621 340.173 320.269C340.515 319.906 340.919 319.632 341.385 319.446C341.851 319.249 342.358 319.15 342.907 319.15C343.487 319.15 344.005 319.249 344.461 319.446C344.917 319.642 345.29 319.932 345.58 320.316C345.88 320.699 346.082 321.175 346.186 321.745C346.299 322.304 346.299 322.957 346.186 323.703H340.499C340.551 324.573 340.81 325.225 341.276 325.66C341.742 326.085 342.436 326.297 343.358 326.297C343.979 326.297 344.513 326.209 344.958 326.033C345.404 325.857 345.776 325.665 346.077 325.458V326.686ZM342.876 320.362C342.286 320.362 341.778 320.543 341.354 320.906C340.929 321.269 340.66 321.817 340.546 322.553H344.88C344.922 321.807 344.751 321.258 344.368 320.906C343.985 320.543 343.487 320.362 342.876 320.362Z" fill="black"/>
<path fill-rule="evenodd" clip-rule="evenodd" d="M296.152 278.35C297.885 277.699 299.811 277.801 301.467 278.629L308.507 282.148C310.763 283.276 312.188 285.582 312.188 288.103V299.35L312.182 299.609C312.079 302.279 310.384 304.64 307.867 305.584L297.15 309.602C295.525 310.212 293.73 310.162 292.148 309.471L291.834 309.324L284.795 305.805C282.54 304.677 281.115 302.371 281.115 299.849V288.602C281.115 285.827 282.836 283.343 285.435 282.368L296.152 278.35ZM295.542 292.538V307.293C295.542 307.461 295.503 307.619 295.436 307.762C295.753 307.717 296.066 307.639 296.371 307.524L307.087 303.506C308.82 302.856 309.968 301.2 309.968 299.35V288.103C309.968 287.867 309.947 287.635 309.911 287.406L295.542 292.538ZM283.471 287.516C283.383 287.866 283.335 288.23 283.334 288.602V299.849C283.334 301.53 284.284 303.067 285.788 303.819L292.828 307.339C292.999 307.425 293.176 307.497 293.355 307.56C293.334 307.474 293.322 307.385 293.322 307.293V292.441L283.471 287.516ZM300.475 280.613C299.371 280.061 298.087 279.994 296.931 280.428L286.214 284.446C285.561 284.691 284.99 285.079 284.534 285.567L294.505 290.552L309.021 285.367C308.623 284.859 308.113 284.433 307.514 284.134L300.475 280.613Z" fill="black"/>
<path d="M250.252 440.983H252.427L256.42 452.123H254.866L253.716 448.938H248.791L247.657 452.123H246.29L250.252 440.983ZM253.25 447.617L251.261 442.071L249.273 447.617H253.25ZM258.041 440.983H261.599C262.863 440.983 263.842 441.248 264.536 441.776C265.24 442.294 265.592 443.107 265.592 444.215C265.592 444.847 265.488 445.391 265.281 445.846C265.084 446.292 264.805 446.659 264.442 446.949C264.08 447.239 263.645 447.452 263.137 447.586C262.64 447.721 262.086 447.788 261.475 447.788H259.502V452.123H258.041V440.983ZM259.502 442.32V446.468H261.475C261.868 446.468 262.226 446.426 262.547 446.343C262.868 446.261 263.142 446.131 263.37 445.955C263.609 445.779 263.79 445.551 263.914 445.271C264.049 444.981 264.116 444.634 264.116 444.231C264.116 443.557 263.899 443.07 263.464 442.77C263.029 442.47 262.407 442.32 261.599 442.32H259.502ZM268.984 440.983V452.123H267.524V440.983H268.984ZM279.821 452.278C278.992 452.278 278.241 452.149 277.568 451.89C276.895 451.631 276.315 451.258 275.828 450.771C275.351 450.274 274.984 449.673 274.725 448.969C274.466 448.254 274.336 447.452 274.336 446.561C274.336 445.66 274.455 444.857 274.694 444.153C274.932 443.449 275.284 442.853 275.75 442.366C276.216 441.869 276.786 441.491 277.459 441.232C278.143 440.973 278.919 440.844 279.79 440.844C280.546 440.844 281.209 440.926 281.778 441.092C282.348 441.248 282.814 441.434 283.176 441.651V443.05C282.71 442.749 282.172 442.527 281.561 442.382C280.96 442.237 280.364 442.164 279.774 442.164C278.459 442.164 277.485 442.532 276.853 443.267C276.232 443.992 275.921 445.09 275.921 446.561C275.921 448.042 276.258 449.145 276.931 449.87C277.614 450.595 278.619 450.958 279.945 450.958C280.515 450.958 281.069 450.88 281.607 450.725C282.156 450.569 282.679 450.305 283.176 449.932V451.331C282.876 451.569 282.436 451.786 281.856 451.983C281.286 452.18 280.608 452.278 279.821 452.278ZM288.459 452.278C287.91 452.278 287.397 452.185 286.921 451.999C286.445 451.812 286.03 451.543 285.678 451.191C285.336 450.828 285.067 450.388 284.87 449.87C284.673 449.352 284.575 448.757 284.575 448.084C284.575 447.421 284.673 446.83 284.87 446.312C285.067 445.784 285.336 445.344 285.678 444.992C286.03 444.64 286.445 444.37 286.921 444.184C287.397 443.997 287.91 443.904 288.459 443.904C289.018 443.904 289.536 443.997 290.013 444.184C290.489 444.37 290.898 444.64 291.24 444.992C291.592 445.344 291.867 445.784 292.064 446.312C292.271 446.83 292.374 447.421 292.374 448.084C292.374 448.757 292.271 449.352 292.064 449.87C291.867 450.388 291.592 450.828 291.24 451.191C290.898 451.543 290.489 451.812 290.013 451.999C289.536 452.185 289.018 452.278 288.459 452.278ZM288.459 451.051C288.822 451.051 289.153 450.994 289.453 450.88C289.764 450.756 290.033 450.575 290.261 450.336C290.489 450.088 290.665 449.777 290.79 449.404C290.914 449.031 290.976 448.591 290.976 448.084C290.976 447.576 290.914 447.136 290.79 446.763C290.665 446.39 290.489 446.085 290.261 445.846C290.033 445.598 289.764 445.416 289.453 445.303C289.153 445.178 288.822 445.116 288.459 445.116C288.097 445.116 287.765 445.178 287.465 445.303C287.164 445.416 286.9 445.598 286.672 445.846C286.455 446.085 286.284 446.39 286.16 446.763C286.035 447.136 285.973 447.576 285.973 448.084C285.973 448.591 286.035 449.031 286.16 449.404C286.284 449.777 286.455 450.088 286.672 450.336C286.9 450.575 287.164 450.756 287.465 450.88C287.765 450.994 288.097 451.051 288.459 451.051ZM297.863 445.116C297.241 445.116 296.734 445.261 296.34 445.551C295.957 445.831 295.646 446.193 295.408 446.639V452.123H294.041V444.06H295.33L295.377 445.505H295.408C295.626 445.038 295.967 444.655 296.433 444.355C296.899 444.054 297.49 443.904 298.205 443.904C299.002 443.904 299.634 444.117 300.1 444.541C300.576 444.956 300.815 445.598 300.815 446.468V452.123H299.447V446.608C299.447 446.048 299.308 445.66 299.028 445.442C298.748 445.225 298.36 445.116 297.863 445.116ZM306.799 445.116C306.178 445.116 305.67 445.261 305.277 445.551C304.893 445.831 304.583 446.193 304.344 446.639V452.123H302.977V444.06H304.267L304.313 445.505H304.344C304.562 445.038 304.904 444.655 305.37 444.355C305.836 444.054 306.426 443.904 307.141 443.904C307.939 443.904 308.57 444.117 309.036 444.541C309.513 444.956 309.751 445.598 309.751 446.468V452.123H308.384V446.608C308.384 446.048 308.244 445.66 307.964 445.442C307.685 445.225 307.296 445.116 306.799 445.116ZM318.33 451.439C318.216 451.522 318.077 451.61 317.911 451.704C317.745 451.797 317.543 451.89 317.305 451.983C317.067 452.066 316.797 452.133 316.497 452.185C316.197 452.247 315.86 452.278 315.487 452.278C314.13 452.278 313.1 451.911 312.395 451.175C311.691 450.44 311.339 449.409 311.339 448.084C311.339 447.431 311.432 446.846 311.619 446.328C311.815 445.81 312.085 445.375 312.426 445.023C312.768 444.66 313.172 444.386 313.638 444.199C314.104 444.003 314.612 443.904 315.161 443.904C315.741 443.904 316.259 444.003 316.714 444.199C317.17 444.396 317.543 444.686 317.833 445.07C318.133 445.453 318.335 445.929 318.439 446.499C318.553 447.058 318.553 447.711 318.439 448.456H312.753C312.804 449.326 313.063 449.979 313.53 450.414C313.996 450.839 314.69 451.051 315.611 451.051C316.233 451.051 316.766 450.963 317.212 450.787C317.657 450.611 318.03 450.419 318.33 450.212V451.439ZM315.13 445.116C314.539 445.116 314.032 445.297 313.607 445.66C313.183 446.022 312.913 446.571 312.799 447.307H317.134C317.175 446.561 317.005 446.012 316.621 445.66C316.238 445.297 315.741 445.116 315.13 445.116ZM323.632 452.278C323.011 452.278 322.447 452.185 321.939 451.999C321.442 451.802 321.017 451.527 320.665 451.175C320.313 450.813 320.044 450.373 319.857 449.855C319.671 449.337 319.577 448.746 319.577 448.084C319.577 447.431 319.671 446.846 319.857 446.328C320.054 445.81 320.328 445.375 320.681 445.023C321.033 444.66 321.463 444.386 321.97 444.199C322.478 444.003 323.052 443.904 323.695 443.904C324.192 443.904 324.648 443.961 325.062 444.075C325.476 444.179 325.818 444.334 326.087 444.541V445.769C325.756 445.551 325.383 445.391 324.969 445.287C324.565 445.173 324.145 445.116 323.71 445.116C322.768 445.116 322.074 445.36 321.628 445.846C321.193 446.333 320.976 447.079 320.976 448.084C320.976 449.088 321.188 449.834 321.613 450.321C322.037 450.808 322.711 451.051 323.632 451.051C324.119 451.051 324.565 450.994 324.969 450.88C325.383 450.756 325.756 450.6 326.087 450.414V451.641C325.797 451.817 325.445 451.968 325.031 452.092C324.627 452.216 324.161 452.278 323.632 452.278ZM331.776 451.952C331.61 452.045 331.398 452.123 331.139 452.185C330.88 452.247 330.605 452.278 330.315 452.278C329.922 452.278 329.585 452.221 329.305 452.108C329.036 451.994 328.813 451.843 328.637 451.657C328.461 451.46 328.332 451.243 328.249 451.004C328.176 450.756 328.14 450.502 328.14 450.243V445.225H327.177V444.06H328.14V442.366H329.507V444.06H331.853V445.225H329.507V450.072C329.507 450.414 329.59 450.663 329.756 450.818C329.932 450.973 330.238 451.051 330.673 451.051C331.077 451.051 331.444 450.937 331.776 450.709V451.952ZM336.828 452.278C336.279 452.278 335.767 452.185 335.29 451.999C334.814 451.812 334.399 451.543 334.047 451.191C333.706 450.828 333.436 450.388 333.239 449.87C333.043 449.352 332.944 448.757 332.944 448.084C332.944 447.421 333.043 446.83 333.239 446.312C333.436 445.784 333.706 445.344 334.047 444.992C334.399 444.64 334.814 444.37 335.29 444.184C335.767 443.997 336.279 443.904 336.828 443.904C337.388 443.904 337.906 443.997 338.382 444.184C338.858 444.37 339.268 444.64 339.609 444.992C339.962 445.344 340.236 445.784 340.433 446.312C340.64 446.83 340.744 447.421 340.744 448.084C340.744 448.757 340.64 449.352 340.433 449.87C340.236 450.388 339.962 450.828 339.609 451.191C339.268 451.543 338.858 451.812 338.382 451.999C337.906 452.185 337.388 452.278 336.828 452.278ZM336.828 451.051C337.191 451.051 337.522 450.994 337.823 450.88C338.133 450.756 338.403 450.575 338.631 450.336C338.858 450.088 339.035 449.777 339.159 449.404C339.283 449.031 339.345 448.591 339.345 448.084C339.345 447.576 339.283 447.136 339.159 446.763C339.035 446.39 338.858 446.085 338.631 445.846C338.403 445.598 338.133 445.416 337.823 445.303C337.522 445.178 337.191 445.116 336.828 445.116C336.466 445.116 336.134 445.178 335.834 445.303C335.534 445.416 335.27 445.598 335.042 445.846C334.824 446.085 334.653 446.39 334.529 446.763C334.405 447.136 334.343 447.576 334.343 448.084C334.343 448.591 334.405 449.031 334.529 449.404C334.653 449.777 334.824 450.088 335.042 450.336C335.27 450.575 335.534 450.756 335.834 450.88C336.134 450.994 336.466 451.051 336.828 451.051ZM346.403 445.427C345.823 445.479 345.295 445.629 344.818 445.877C344.352 446.116 344.005 446.489 343.777 446.996V452.123H342.41V444.06H343.606L343.746 445.815H343.777C344.005 445.339 344.331 444.925 344.756 444.572C345.191 444.21 345.74 443.987 346.403 443.904V445.427Z" fill="black"/>
<path fill-rule="evenodd" clip-rule="evenodd" d="M295.966 403.103C297.699 402.453 299.625 402.555 301.281 403.383L308.321 406.902C310.577 408.03 312.002 410.336 312.002 412.857V424.103L311.996 424.363C311.892 427.033 310.198 429.394 307.681 430.338L296.964 434.356C295.339 434.966 293.544 434.916 291.962 434.225L291.648 434.078L284.609 430.559C282.354 429.431 280.929 427.125 280.929 424.602V413.356C280.929 410.581 282.65 408.097 285.249 407.122L295.966 403.103ZM295.355 417.292V432.047C295.355 432.215 295.317 432.373 295.25 432.516C295.567 432.471 295.88 432.392 296.185 432.278L306.901 428.26C308.634 427.61 309.782 425.954 309.782 424.103V412.857C309.782 412.621 309.761 412.389 309.725 412.16L295.355 417.292ZM283.285 412.269C283.197 412.62 283.148 412.984 283.148 413.356V424.602C283.148 426.284 284.098 427.821 285.602 428.573L292.642 432.093C292.813 432.179 292.99 432.251 293.169 432.313C293.148 432.228 293.136 432.139 293.136 432.047V417.195L283.285 412.269ZM300.289 405.367C299.185 404.815 297.901 404.748 296.745 405.182L286.028 409.2C285.375 409.445 284.804 409.833 284.348 410.321L294.319 415.306L308.835 410.121C308.437 409.613 307.927 409.187 307.328 408.888L300.289 405.367Z" fill="black"/>
<path d="M389.024 201.355H390.453V205.317H389.102L388.946 202.676H380.945L380.774 205.317H379.454V201.355H380.215C380.567 201.034 380.847 200.604 381.054 200.066C381.271 199.517 381.437 198.843 381.551 198.046C381.665 197.248 381.748 196.311 381.8 195.234C381.851 194.157 381.893 192.924 381.924 191.536H389.024V201.355ZM387.548 201.355V192.872H383.291C383.26 194.053 383.213 195.099 383.151 196.011C383.099 196.912 383.017 197.704 382.903 198.388C382.799 199.071 382.664 199.657 382.499 200.143C382.343 200.62 382.147 201.024 381.908 201.355H387.548ZM396.912 201.138C396.819 201.324 396.699 201.521 396.554 201.728C396.409 201.925 396.228 202.106 396.011 202.272C395.793 202.438 395.534 202.572 395.234 202.676C394.944 202.779 394.602 202.831 394.208 202.831C393.483 202.831 392.898 202.629 392.453 202.225C392.007 201.811 391.785 201.221 391.785 200.454C391.785 199.574 392.09 198.926 392.701 198.512C393.323 198.098 394.203 197.891 395.343 197.891H396.85V197.222C396.85 196.663 396.705 196.264 396.415 196.026C396.125 195.788 395.627 195.669 394.923 195.669C394.426 195.669 393.955 195.752 393.509 195.917C393.064 196.073 392.665 196.254 392.313 196.461V195.234C392.603 195.058 392.991 194.887 393.478 194.721C393.975 194.545 394.519 194.457 395.11 194.457C396.125 194.457 396.896 194.669 397.424 195.094C397.953 195.508 398.217 196.156 398.217 197.036V201.371C398.217 201.464 398.217 201.573 398.217 201.697C398.227 201.811 398.232 201.93 398.232 202.054C398.243 202.179 398.253 202.298 398.263 202.412C398.274 202.515 398.284 202.603 398.294 202.676H397.052C397.02 202.531 396.989 202.329 396.958 202.07C396.938 201.801 396.927 201.568 396.927 201.371L396.912 201.138ZM394.504 201.604C394.928 201.604 395.291 201.516 395.591 201.34C395.892 201.164 396.135 200.962 396.321 200.734C396.508 200.496 396.642 200.268 396.725 200.05C396.808 199.822 396.85 199.662 396.85 199.568V198.978H395.482C394.664 198.978 394.069 199.097 393.696 199.335C393.333 199.563 393.152 199.91 393.152 200.376C393.152 200.739 393.261 201.034 393.478 201.262C393.696 201.49 394.037 201.604 394.504 201.604ZM403.538 195.778V202.676H402.171V195.778H399.638V194.612H406.117V195.778H403.538ZM412.19 201.138C412.097 201.324 411.978 201.521 411.833 201.728C411.688 201.925 411.507 202.106 411.289 202.272C411.072 202.438 410.813 202.572 410.512 202.676C410.222 202.779 409.88 202.831 409.487 202.831C408.762 202.831 408.177 202.629 407.731 202.225C407.286 201.811 407.063 201.221 407.063 200.454C407.063 199.574 407.369 198.926 407.98 198.512C408.601 198.098 409.482 197.891 410.621 197.891H412.128V197.222C412.128 196.663 411.983 196.264 411.693 196.026C411.403 195.788 410.906 195.669 410.202 195.669C409.704 195.669 409.233 195.752 408.788 195.917C408.342 196.073 407.944 196.254 407.591 196.461V195.234C407.881 195.058 408.27 194.887 408.757 194.721C409.254 194.545 409.798 194.457 410.388 194.457C411.403 194.457 412.175 194.669 412.703 195.094C413.231 195.508 413.495 196.156 413.495 197.036V201.371C413.495 201.464 413.495 201.573 413.495 201.697C413.506 201.811 413.511 201.93 413.511 202.054C413.521 202.179 413.532 202.298 413.542 202.412C413.552 202.515 413.563 202.603 413.573 202.676H412.33C412.299 202.531 412.268 202.329 412.237 202.07C412.216 201.801 412.206 201.568 412.206 201.371L412.19 201.138ZM409.782 201.604C410.207 201.604 410.569 201.516 410.87 201.34C411.17 201.164 411.413 200.962 411.6 200.734C411.786 200.496 411.921 200.268 412.004 200.05C412.087 199.822 412.128 199.662 412.128 199.568V198.978H410.761C409.943 198.978 409.347 199.097 408.974 199.335C408.612 199.563 408.43 199.91 408.43 200.376C408.43 200.739 408.539 201.034 408.757 201.262C408.974 201.49 409.316 201.604 409.782 201.604ZM419.125 202.831C418.504 202.831 417.939 202.738 417.432 202.551C416.935 202.355 416.51 202.08 416.158 201.728C415.806 201.366 415.536 200.925 415.35 200.407C415.163 199.89 415.07 199.299 415.07 198.636C415.07 197.984 415.163 197.399 415.35 196.881C415.547 196.363 415.821 195.928 416.173 195.576C416.525 195.213 416.955 194.939 417.463 194.752C417.97 194.555 418.545 194.457 419.187 194.457C419.684 194.457 420.14 194.514 420.555 194.628C420.969 194.731 421.311 194.887 421.58 195.094V196.321C421.248 196.104 420.876 195.943 420.461 195.84C420.057 195.726 419.638 195.669 419.203 195.669C418.26 195.669 417.566 195.912 417.121 196.399C416.686 196.886 416.468 197.632 416.468 198.636C416.468 199.641 416.681 200.387 417.105 200.874C417.53 201.36 418.203 201.604 419.125 201.604C419.612 201.604 420.057 201.547 420.461 201.433C420.876 201.309 421.248 201.153 421.58 200.967V202.194C421.29 202.37 420.938 202.52 420.523 202.645C420.12 202.769 419.653 202.831 419.125 202.831ZM429.83 201.992C429.716 202.075 429.576 202.163 429.41 202.256C429.245 202.35 429.043 202.443 428.804 202.536C428.566 202.619 428.297 202.686 427.996 202.738C427.696 202.8 427.359 202.831 426.987 202.831C425.63 202.831 424.599 202.463 423.895 201.728C423.191 200.993 422.838 199.962 422.838 198.636C422.838 197.984 422.932 197.399 423.118 196.881C423.315 196.363 423.584 195.928 423.926 195.576C424.268 195.213 424.672 194.939 425.138 194.752C425.604 194.555 426.111 194.457 426.66 194.457C427.24 194.457 427.758 194.555 428.214 194.752C428.67 194.949 429.043 195.239 429.333 195.622C429.633 196.005 429.835 196.482 429.939 197.052C430.052 197.611 430.052 198.263 429.939 199.009H424.252C424.304 199.879 424.563 200.532 425.029 200.967C425.495 201.391 426.189 201.604 427.111 201.604C427.732 201.604 428.266 201.516 428.711 201.34C429.157 201.164 429.529 200.972 429.83 200.765V201.992ZM426.629 195.669C426.039 195.669 425.531 195.85 425.107 196.213C424.682 196.575 424.413 197.124 424.299 197.859H428.633C428.675 197.114 428.504 196.565 428.121 196.213C427.738 195.85 427.24 195.669 426.629 195.669ZM434.944 195.778V202.676H433.577V195.778H431.045V194.612H437.523V195.778H434.944Z" fill="black"/>
<path d="M417.479 157.076C421.157 157.076 424.139 160.057 424.139 163.734V177.052L424.13 177.395C423.951 180.913 421.042 183.71 417.479 183.71H399.724C396.161 183.71 393.253 180.912 393.074 177.395L393.065 177.052V163.734C393.066 160.057 396.046 157.076 399.724 157.076H417.479ZM395.285 175.387V177.052C395.285 179.503 397.272 181.49 399.724 181.49H407.492V175.387H395.285ZM409.711 175.387V181.49H417.479C419.931 181.49 421.919 179.503 421.919 177.052V175.387H409.711ZM395.285 173.168H407.492V167.618H395.285V173.168ZM409.711 173.168H421.919V167.618H409.711V173.168ZM399.724 159.296C397.272 159.296 395.285 161.283 395.285 163.734V165.399H421.919V163.734C421.919 161.283 419.931 159.296 417.479 159.296H399.724Z" fill="black"/>
<path d="M388.726 287.311C388.219 287.311 387.763 287.274 387.359 287.202C386.955 287.14 386.598 287.057 386.287 286.953C385.987 286.839 385.728 286.72 385.51 286.596C385.303 286.461 385.137 286.332 385.013 286.208V284.809C385.169 284.944 385.371 285.084 385.619 285.229C385.868 285.363 386.153 285.488 386.474 285.602C386.805 285.716 387.157 285.809 387.53 285.881C387.913 285.954 388.312 285.99 388.726 285.99C389.534 285.99 390.176 285.84 390.653 285.539C391.129 285.229 391.368 284.763 391.368 284.141C391.368 283.83 391.311 283.577 391.197 283.38C391.083 283.173 390.917 283.002 390.7 282.867C390.482 282.722 390.208 282.603 389.876 282.51C389.555 282.406 389.177 282.298 388.742 282.184C388.307 282.07 387.872 281.94 387.437 281.795C387.002 281.65 386.608 281.459 386.256 281.22C385.914 280.982 385.635 280.682 385.417 280.319C385.21 279.957 385.106 279.496 385.106 278.937C385.106 277.973 385.443 277.222 386.116 276.684C386.79 276.145 387.82 275.876 389.208 275.876C389.612 275.876 389.969 275.902 390.28 275.954C390.601 275.995 390.881 276.052 391.119 276.124C391.368 276.187 391.58 276.259 391.756 276.342C391.942 276.425 392.108 276.502 392.253 276.575V277.973C391.818 277.694 391.347 277.497 390.839 277.383C390.342 277.259 389.798 277.196 389.208 277.196C388.711 277.196 388.291 277.238 387.95 277.321C387.618 277.393 387.349 277.502 387.142 277.647C386.935 277.792 386.784 277.968 386.691 278.175C386.598 278.382 386.551 278.615 386.551 278.874C386.551 279.185 386.619 279.444 386.753 279.651C386.898 279.858 387.085 280.034 387.313 280.179C387.551 280.314 387.82 280.428 388.12 280.521C388.421 280.614 388.737 280.697 389.068 280.77C389.503 280.873 389.949 280.992 390.404 281.127C390.86 281.262 391.269 281.448 391.632 281.686C391.994 281.925 392.289 282.235 392.517 282.619C392.756 282.992 392.875 283.478 392.875 284.079C392.875 284.669 392.756 285.172 392.517 285.586C392.289 285.99 391.984 286.321 391.601 286.58C391.217 286.839 390.777 287.026 390.28 287.14C389.783 287.254 389.265 287.311 388.726 287.311ZM404.34 289.253C403.511 289.087 402.76 288.906 402.087 288.709C401.424 288.522 400.818 288.331 400.269 288.134C399.72 287.937 399.213 287.746 398.746 287.559C398.291 287.373 397.861 287.202 397.457 287.047C396.96 286.85 396.504 286.601 396.09 286.301C395.675 285.99 395.318 285.617 395.018 285.182C394.717 284.747 394.484 284.24 394.319 283.66C394.153 283.069 394.07 282.396 394.07 281.64C394.07 280.708 394.205 279.884 394.474 279.17C394.743 278.455 395.116 277.854 395.593 277.367C396.069 276.881 396.628 276.513 397.27 276.264C397.923 276.005 398.627 275.876 399.383 275.876C400.129 275.876 400.828 276 401.481 276.249C402.133 276.487 402.698 276.844 403.174 277.321C403.661 277.787 404.039 278.377 404.308 279.092C404.588 279.796 404.728 280.614 404.728 281.547C404.728 282.22 404.655 282.852 404.51 283.442C404.376 284.022 404.148 284.55 403.827 285.027C403.506 285.493 403.091 285.897 402.584 286.239C402.076 286.58 401.45 286.845 400.704 287.031C401.325 287.217 401.973 287.383 402.646 287.528C403.319 287.673 404.06 287.792 404.868 287.885L404.34 289.253ZM399.399 285.99C399.938 285.99 400.435 285.912 400.89 285.757C401.346 285.591 401.74 285.338 402.071 284.996C402.413 284.644 402.677 284.188 402.864 283.629C403.06 283.069 403.159 282.391 403.159 281.593C403.159 280.796 403.06 280.117 402.864 279.558C402.677 278.999 402.413 278.548 402.071 278.206C401.74 277.854 401.346 277.6 400.89 277.445C400.435 277.279 399.938 277.196 399.399 277.196C398.86 277.196 398.363 277.279 397.907 277.445C397.452 277.6 397.053 277.854 396.711 278.206C396.38 278.548 396.116 278.999 395.919 279.558C395.732 280.117 395.639 280.796 395.639 281.593C395.639 282.391 395.732 283.069 395.919 283.629C396.116 284.188 396.38 284.644 396.711 284.996C397.053 285.338 397.452 285.591 397.907 285.757C398.363 285.912 398.86 285.99 399.399 285.99ZM413.561 287.155H406.678V276.016H408.139V285.835H413.561V287.155Z" fill="black"/>
<path d="M627.298 202.757H625.822V197.894C624.983 198.412 624.061 198.671 623.056 198.671C621.772 198.671 620.783 198.355 620.089 197.723C619.395 197.081 619.048 196.081 619.048 194.725V191.617H620.524V194.725C620.524 195.605 620.736 196.278 621.161 196.744C621.596 197.2 622.233 197.428 623.072 197.428C623.579 197.428 624.066 197.371 624.532 197.257C624.998 197.133 625.428 196.931 625.822 196.651V191.617H627.298V202.757ZM634.423 201.219C634.329 201.405 634.21 201.602 634.065 201.809C633.92 202.006 633.739 202.187 633.521 202.353C633.304 202.519 633.045 202.653 632.745 202.757C632.455 202.86 632.113 202.912 631.719 202.912C630.994 202.912 630.409 202.71 629.964 202.306C629.518 201.892 629.296 201.302 629.296 200.535C629.296 199.655 629.601 199.007 630.212 198.593C630.834 198.179 631.714 197.972 632.853 197.972H634.36V197.304C634.36 196.744 634.215 196.345 633.925 196.107C633.635 195.869 633.138 195.75 632.434 195.75C631.937 195.75 631.466 195.833 631.02 195.998C630.575 196.154 630.176 196.335 629.824 196.542V195.315C630.114 195.139 630.502 194.968 630.989 194.802C631.486 194.626 632.03 194.538 632.62 194.538C633.635 194.538 634.407 194.75 634.935 195.175C635.464 195.589 635.728 196.237 635.728 197.117V201.452C635.728 201.545 635.728 201.654 635.728 201.778C635.738 201.892 635.743 202.011 635.743 202.135C635.754 202.26 635.764 202.379 635.774 202.493C635.785 202.596 635.795 202.684 635.805 202.757H634.562C634.531 202.612 634.5 202.41 634.469 202.151C634.448 201.882 634.438 201.649 634.438 201.452L634.423 201.219ZM632.014 201.685C632.439 201.685 632.802 201.597 633.102 201.421C633.402 201.245 633.646 201.043 633.832 200.815C634.019 200.577 634.153 200.349 634.236 200.131C634.319 199.903 634.36 199.743 634.36 199.65V199.059H632.993C632.175 199.059 631.579 199.178 631.207 199.417C630.844 199.644 630.663 199.991 630.663 200.457C630.663 200.82 630.772 201.115 630.989 201.343C631.207 201.571 631.548 201.685 632.014 201.685ZM641.932 202.912C641.311 202.912 640.772 202.767 640.317 202.477C639.871 202.187 639.514 201.788 639.245 201.281V205.507H637.877V194.693H639.074L639.214 196.263C639.483 195.734 639.845 195.315 640.301 195.004C640.757 194.693 641.321 194.538 641.995 194.538C642.461 194.538 642.906 194.626 643.331 194.802C643.766 194.968 644.144 195.227 644.465 195.579C644.796 195.921 645.055 196.356 645.242 196.884C645.438 197.402 645.537 198.013 645.537 198.717C645.537 199.432 645.438 200.053 645.242 200.582C645.045 201.1 644.781 201.535 644.449 201.887C644.118 202.229 643.735 202.488 643.3 202.664C642.865 202.829 642.409 202.912 641.932 202.912ZM641.73 201.685C642.445 201.685 643.02 201.441 643.455 200.955C643.9 200.457 644.123 199.712 644.123 198.717C644.123 197.744 643.9 197.008 643.455 196.511C643.02 196.004 642.445 195.75 641.73 195.75C641.378 195.75 641.047 195.812 640.736 195.936C640.436 196.061 640.172 196.247 639.944 196.496C639.726 196.734 639.55 197.039 639.415 197.412C639.291 197.785 639.229 198.22 639.229 198.717C639.229 199.215 639.291 199.65 639.415 200.022C639.55 200.395 639.726 200.706 639.944 200.955C640.172 201.203 640.436 201.39 640.736 201.514C641.047 201.628 641.378 201.685 641.73 201.685ZM650.289 195.859V202.757H648.921V195.859H646.389V194.693H652.868V195.859H650.289Z" fill="black"/>
<g clip-path="url(#clip0_195_912)">
<path d="M648.961 157.672C651.412 157.673 653.4 159.66 653.4 162.112V179.868L653.395 180.095C653.276 182.441 651.336 184.306 648.961 184.306H626.804L626.766 184.307H622.327L622.099 184.301C619.753 184.183 617.888 182.243 617.888 179.868V175.429C617.888 173.054 619.753 171.114 622.099 170.996L622.327 170.99H626.766C627.574 170.99 628.332 171.206 628.985 171.584V168.77C628.985 166.395 630.851 164.455 633.196 164.336L633.425 164.331H637.863C638.672 164.331 639.43 164.547 640.083 164.925V162.112C640.083 159.737 641.948 157.797 644.294 157.678L644.522 157.672H648.961ZM622.327 173.209C621.101 173.209 620.107 174.203 620.107 175.429V179.868C620.108 181.093 621.102 182.087 622.327 182.087H626.766C627.991 182.087 628.985 181.093 628.985 179.868V175.429C628.985 174.203 627.991 173.209 626.766 173.209H622.327ZM633.425 166.55C632.199 166.55 631.205 167.544 631.205 168.77V179.867C631.205 181.092 632.199 182.086 633.425 182.086H637.863C639.089 182.086 640.083 181.092 640.083 179.867V168.77C640.083 167.544 639.089 166.55 637.863 166.55H633.425ZM644.522 159.892C643.297 159.892 642.303 160.886 642.303 162.112V179.868C642.303 181.093 643.297 182.086 644.522 182.086H648.961C650.186 182.086 651.18 181.093 651.181 179.868V162.112C651.181 160.886 650.187 159.892 648.961 159.892H644.522Z" fill="black"/>
</g>
<defs>
<clipPath id="clip0_195_912">
<rect width="35.5118" height="35.5118" fill="white" transform="translate(617.888 153.233)"/>
</clipPath>
</defs>
</svg>
