<svg xmlns="http://www.w3.org/2000/svg" width="29" height="32" fill="black" viewBox="0 0 40 44">
    <path fill-rule="evenodd" clip-rule="evenodd" d="M21 13.993v-3.027a.4.4 0 0 0-.683-.283L16 15l4.317 4.317a.4.4 0 0 0 .683-.283V16.01c3.388.488 6.003 3.425 6.003 6.96 0 3.877-3.143 7.034-7.001 7.034-3.858 0-7.002-3.157-7.002-7.033a7.01 7.01 0 0 1 1.134-3.831c.3-.462.264-1.089-.15-1.452-.415-.365-1.054-.326-1.37.128A9.006 9.006 0 0 0 11 22.971c0 4.971 4.03 9.033 9.002 9.033 4.971 0 9.001-4.062 9.001-9.033 0-4.634-3.501-8.477-8.003-8.978z"></path>
</svg>