<svg width="700" height="460" viewBox="0 0 700 460" fill="none" xmlns="http://www.w3.org/2000/svg">
<rect x="89" y="43" width="200" height="374" rx="5" fill="white" stroke="#5282FF" stroke-width="2"/>
<path d="M123.315 63.396H130.083V72H128.619V64.656H124.767V72H123.315V63.396ZM131.772 65.772H133.044L133.14 66.888C133.34 66.512 133.612 66.212 133.956 65.988C134.308 65.764 134.732 65.652 135.228 65.652C135.716 65.652 136.168 65.772 136.584 66.012C137 66.244 137.332 66.6 137.58 67.08C137.836 67.552 137.964 68.152 137.964 68.88C137.964 69.608 137.836 70.212 137.58 70.692C137.332 71.172 136.996 71.532 136.572 71.772C136.156 72.004 135.7 72.12 135.204 72.12C134.732 72.12 134.324 72.016 133.98 71.808C133.644 71.592 133.372 71.304 133.164 70.944V74.124H131.772V65.772ZM136.536 68.88C136.536 68.192 136.38 67.676 136.068 67.332C135.764 66.98 135.368 66.804 134.88 66.804C134.392 66.804 133.98 66.976 133.644 67.32C133.316 67.664 133.152 68.184 133.152 68.88C133.152 69.584 133.316 70.108 133.644 70.452C133.98 70.788 134.388 70.956 134.868 70.956C135.356 70.956 135.756 70.784 136.068 70.44C136.38 70.096 136.536 69.576 136.536 68.88ZM141.832 72.12C141.248 72.12 140.72 71.996 140.248 71.748C139.784 71.492 139.416 71.124 139.144 70.644C138.88 70.164 138.748 69.576 138.748 68.88C138.748 68.192 138.88 67.608 139.144 67.128C139.416 66.648 139.784 66.284 140.248 66.036C140.72 65.78 141.248 65.652 141.832 65.652C142.416 65.652 142.94 65.78 143.404 66.036C143.876 66.284 144.248 66.648 144.52 67.128C144.792 67.608 144.928 68.192 144.928 68.88C144.928 69.576 144.792 70.164 144.52 70.644C144.248 71.124 143.876 71.492 143.404 71.748C142.94 71.996 142.416 72.12 141.832 72.12ZM141.832 70.956C142.312 70.956 142.708 70.788 143.02 70.452C143.34 70.116 143.5 69.592 143.5 68.88C143.5 68.176 143.34 67.656 143.02 67.32C142.708 66.976 142.312 66.804 141.832 66.804C141.352 66.804 140.952 66.976 140.632 67.32C140.32 67.656 140.164 68.176 140.164 68.88C140.164 69.592 140.32 70.116 140.632 70.452C140.952 70.788 141.352 70.956 141.832 70.956ZM150.448 63.276V65.676C151.088 65.716 151.66 65.864 152.164 66.12C152.668 66.368 153.064 66.724 153.352 67.188C153.648 67.652 153.796 68.216 153.796 68.88C153.796 69.552 153.648 70.12 153.352 70.584C153.056 71.048 152.656 71.408 152.152 71.664C151.648 71.912 151.08 72.056 150.448 72.096V74.124H149.068V72.084C148.428 72.052 147.856 71.912 147.352 71.664C146.848 71.408 146.448 71.048 146.152 70.584C145.864 70.12 145.72 69.552 145.72 68.88C145.72 68.208 145.864 67.64 146.152 67.176C146.448 66.712 146.848 66.356 147.352 66.108C147.864 65.852 148.436 65.712 149.068 65.688V63.276H150.448ZM152.38 68.88C152.38 68.216 152.2 67.712 151.84 67.368C151.48 67.024 151.016 66.828 150.448 66.78V70.98C151.024 70.94 151.488 70.748 151.84 70.404C152.2 70.052 152.38 69.544 152.38 68.88ZM147.136 68.88C147.136 69.552 147.316 70.06 147.676 70.404C148.036 70.748 148.5 70.94 149.068 70.98V66.78C148.5 66.828 148.036 67.024 147.676 67.368C147.316 67.712 147.136 68.216 147.136 68.88ZM156.355 65.772V70.08L159.175 65.772H160.543V72H159.151V67.704L156.367 72H154.975V65.772H156.355ZM161.62 70.716C161.884 70.764 162.096 70.716 162.256 70.572C162.424 70.42 162.552 70.16 162.64 69.792C162.688 69.568 162.728 69.288 162.76 68.952C162.792 68.616 162.816 68.192 162.832 67.68C162.848 67.168 162.856 66.532 162.856 65.772H167.404V72H166.012V66.9H164.128C164.112 67.708 164.084 68.372 164.044 68.892C164.004 69.412 163.944 69.856 163.864 70.224C163.704 70.92 163.444 71.412 163.084 71.7C162.732 71.98 162.244 72.084 161.62 72.012V70.716ZM170.348 65.772V67.752H171.428C172.236 67.752 172.868 67.924 173.324 68.268C173.78 68.604 174.008 69.124 174.008 69.828C174.008 70.316 173.896 70.724 173.672 71.052C173.448 71.372 173.136 71.612 172.736 71.772C172.344 71.924 171.892 72 171.38 72H168.956V65.772H170.348ZM171.284 70.908C171.668 70.908 171.98 70.828 172.22 70.668C172.46 70.508 172.58 70.248 172.58 69.888C172.58 69.528 172.472 69.268 172.256 69.108C172.04 68.94 171.728 68.856 171.32 68.856H170.348V70.908H171.284ZM180.654 65.796C181.142 65.796 181.59 65.92 181.998 66.168C182.414 66.408 182.746 66.76 182.994 67.224C183.25 67.688 183.378 68.248 183.378 68.904C183.378 69.592 183.242 70.176 182.97 70.656C182.698 71.136 182.326 71.5 181.854 71.748C181.39 71.996 180.862 72.12 180.27 72.12C179.678 72.12 179.15 71.984 178.686 71.712C178.222 71.44 177.854 71.032 177.582 70.488C177.318 69.944 177.186 69.256 177.186 68.424C177.186 67.568 177.238 66.848 177.342 66.264C177.446 65.68 177.61 65.196 177.834 64.812C178.066 64.428 178.37 64.112 178.746 63.864C178.93 63.744 179.13 63.648 179.346 63.576C179.562 63.496 179.818 63.436 180.114 63.396C180.418 63.348 180.786 63.316 181.218 63.3C181.666 63.276 182.018 63.24 182.274 63.192C182.538 63.136 182.766 63.052 182.958 62.94V64.176C182.798 64.28 182.606 64.356 182.382 64.404C182.158 64.452 181.798 64.496 181.302 64.536C180.91 64.568 180.59 64.6 180.342 64.632C180.102 64.656 179.902 64.692 179.742 64.74C179.59 64.78 179.442 64.848 179.298 64.944C179.018 65.136 178.798 65.408 178.638 65.76C178.486 66.104 178.382 66.572 178.326 67.164C178.734 66.252 179.51 65.796 180.654 65.796ZM180.27 70.956C180.758 70.956 181.158 70.792 181.47 70.464C181.79 70.136 181.95 69.624 181.95 68.928C181.95 68.24 181.79 67.732 181.47 67.404C181.158 67.076 180.758 66.912 180.27 66.912C179.798 66.912 179.406 67.076 179.094 67.404C178.782 67.732 178.626 68.232 178.626 68.904C178.626 69.608 178.782 70.128 179.094 70.464C179.406 70.792 179.798 70.956 180.27 70.956ZM187.589 72.12C186.453 72.12 185.601 71.836 185.033 71.268C184.465 70.692 184.181 69.896 184.181 68.88C184.181 68.208 184.313 67.632 184.577 67.152C184.841 66.664 185.205 66.292 185.669 66.036C186.133 65.78 186.661 65.652 187.253 65.652C188.253 65.652 188.989 65.976 189.461 66.624C189.941 67.272 190.097 68.152 189.929 69.264H185.621C185.677 69.832 185.865 70.26 186.185 70.548C186.513 70.828 187.013 70.968 187.685 70.968C188.429 70.968 189.125 70.776 189.773 70.392V71.544C189.165 71.928 188.437 72.12 187.589 72.12ZM187.253 66.756C186.845 66.756 186.497 66.884 186.209 67.14C185.929 67.388 185.745 67.756 185.657 68.244H188.597C188.613 67.764 188.505 67.396 188.273 67.14C188.041 66.884 187.701 66.756 187.253 66.756ZM193.105 72.12C192.689 72.12 192.297 72.076 191.929 71.988C191.561 71.9 191.265 71.78 191.041 71.628V70.488C191.281 70.648 191.577 70.772 191.929 70.86C192.289 70.948 192.661 70.992 193.045 70.992C193.461 70.992 193.793 70.928 194.041 70.8C194.297 70.664 194.425 70.448 194.425 70.152C194.425 69.864 194.309 69.66 194.077 69.54C193.853 69.412 193.509 69.348 193.045 69.348H192.169V68.304H193.069C193.445 68.304 193.733 68.24 193.933 68.112C194.133 67.976 194.233 67.78 194.233 67.524C194.233 67.244 194.117 67.052 193.885 66.948C193.661 66.836 193.373 66.78 193.021 66.78C192.301 66.78 191.673 66.948 191.137 67.284V66.144C191.385 65.992 191.689 65.872 192.049 65.784C192.409 65.696 192.785 65.652 193.177 65.652C193.961 65.652 194.557 65.796 194.965 66.084C195.373 66.364 195.577 66.772 195.577 67.308C195.577 67.708 195.461 68.024 195.229 68.256C195.005 68.488 194.677 68.656 194.245 68.76C195.285 68.904 195.805 69.388 195.805 70.212C195.805 70.652 195.681 71.016 195.433 71.304C195.193 71.584 194.869 71.792 194.461 71.928C194.053 72.056 193.601 72.12 193.105 72.12ZM199.851 72.12C199.267 72.12 198.739 71.996 198.267 71.748C197.803 71.492 197.435 71.124 197.163 70.644C196.899 70.164 196.767 69.576 196.767 68.88C196.767 68.192 196.899 67.608 197.163 67.128C197.435 66.648 197.803 66.284 198.267 66.036C198.739 65.78 199.267 65.652 199.851 65.652C200.435 65.652 200.959 65.78 201.423 66.036C201.895 66.284 202.267 66.648 202.539 67.128C202.811 67.608 202.947 68.192 202.947 68.88C202.947 69.576 202.811 70.164 202.539 70.644C202.267 71.124 201.895 71.492 201.423 71.748C200.959 71.996 200.435 72.12 199.851 72.12ZM199.851 70.956C200.331 70.956 200.727 70.788 201.039 70.452C201.359 70.116 201.519 69.592 201.519 68.88C201.519 68.176 201.359 67.656 201.039 67.32C200.727 66.976 200.331 66.804 199.851 66.804C199.371 66.804 198.971 66.976 198.651 67.32C198.339 67.656 198.183 68.176 198.183 68.88C198.183 69.592 198.339 70.116 198.651 70.452C198.971 70.788 199.371 70.956 199.851 70.956ZM204.124 72V65.772H209.416V72H208.024V66.9H205.516V72H204.124ZM213.175 66.804C212.487 66.804 211.791 66.996 211.087 67.38V66.216C211.391 66.048 211.751 65.912 212.167 65.808C212.583 65.704 212.995 65.652 213.403 65.652C214.203 65.652 214.819 65.82 215.251 66.156C215.691 66.492 215.911 67.02 215.911 67.74V70.992C215.911 71.128 215.915 71.304 215.923 71.52C215.939 71.728 215.955 71.888 215.971 72H214.675C214.651 71.888 214.627 71.732 214.603 71.532C214.587 71.324 214.579 71.144 214.579 70.992L214.567 70.92C214.479 71.112 214.351 71.3 214.183 71.484C214.023 71.668 213.815 71.82 213.559 71.94C213.303 72.06 212.983 72.12 212.599 72.12C212.063 72.12 211.607 71.968 211.231 71.664C210.863 71.352 210.679 70.9 210.679 70.308C210.679 69.636 210.931 69.128 211.435 68.784C211.939 68.44 212.651 68.268 213.571 68.268H214.519V67.884C214.519 67.484 214.415 67.204 214.207 67.044C213.999 66.884 213.655 66.804 213.175 66.804ZM214.519 69.6V69.18H213.655C213.095 69.18 212.687 69.268 212.431 69.444C212.183 69.612 212.059 69.852 212.059 70.164C212.059 70.436 212.135 70.652 212.287 70.812C212.447 70.964 212.679 71.04 212.983 71.04C213.279 71.04 213.527 70.98 213.727 70.86C213.927 70.732 214.083 70.584 214.195 70.416C214.315 70.248 214.399 70.088 214.447 69.936C214.495 69.776 214.519 69.664 214.519 69.6ZM220.281 72.12C219.273 72.12 218.477 71.836 217.893 71.268C217.317 70.692 217.029 69.896 217.029 68.88C217.029 67.872 217.321 67.084 217.905 66.516C218.489 65.94 219.289 65.652 220.305 65.652C221.121 65.652 221.757 65.82 222.213 66.156V67.308C221.933 67.132 221.645 67.004 221.349 66.924C221.061 66.844 220.741 66.804 220.389 66.804C219.093 66.804 218.445 67.496 218.445 68.88C218.445 70.264 219.081 70.956 220.353 70.956C221.025 70.956 221.645 70.792 222.213 70.464V71.616C221.693 71.952 221.049 72.12 220.281 72.12ZM224.875 65.772V68.244H227.491V65.772H228.895V72H227.491V69.372H224.875V72H223.483V65.772H224.875ZM233.156 72.12C232.572 72.12 232.044 71.996 231.572 71.748C231.108 71.492 230.74 71.124 230.468 70.644C230.204 70.164 230.072 69.576 230.072 68.88C230.072 68.192 230.204 67.608 230.468 67.128C230.74 66.648 231.108 66.284 231.572 66.036C232.044 65.78 232.572 65.652 233.156 65.652C233.74 65.652 234.264 65.78 234.728 66.036C235.2 66.284 235.572 66.648 235.844 67.128C236.116 67.608 236.252 68.192 236.252 68.88C236.252 69.576 236.116 70.164 235.844 70.644C235.572 71.124 235.2 71.492 234.728 71.748C234.264 71.996 233.74 72.12 233.156 72.12ZM233.156 70.956C233.636 70.956 234.032 70.788 234.344 70.452C234.664 70.116 234.824 69.592 234.824 68.88C234.824 68.176 234.664 67.656 234.344 67.32C234.032 66.976 233.636 66.804 233.156 66.804C232.676 66.804 232.276 66.976 231.956 67.32C231.644 67.656 231.488 68.176 231.488 68.88C231.488 69.592 231.644 70.116 231.956 70.452C232.276 70.788 232.676 70.956 233.156 70.956ZM240.296 72.12C239.288 72.12 238.492 71.836 237.908 71.268C237.332 70.692 237.044 69.896 237.044 68.88C237.044 67.872 237.336 67.084 237.92 66.516C238.504 65.94 239.304 65.652 240.32 65.652C241.136 65.652 241.772 65.82 242.228 66.156V67.308C241.948 67.132 241.66 67.004 241.364 66.924C241.076 66.844 240.756 66.804 240.404 66.804C239.108 66.804 238.46 67.496 238.46 68.88C238.46 70.264 239.096 70.956 240.368 70.956C241.04 70.956 241.66 70.792 242.228 70.464V71.616C241.708 71.952 241.064 72.12 240.296 72.12ZM243.007 65.772H248.203V66.9H246.271V72H244.891V66.9H243.007V65.772ZM250.644 65.772V70.08L253.464 65.772H254.832V72H253.44V67.704L250.656 72H249.264V65.772H250.644Z" fill="black" fill-opacity="0.85"/>
<rect x="104" y="93" width="170" height="46" rx="10" fill="#D6E1FF"/>
<path d="M141.41 120V111.396H146.654V112.428H142.538V114.852H144.242C145.194 114.852 145.926 115.048 146.438 115.44C146.95 115.832 147.206 116.464 147.206 117.336C147.206 117.976 147.074 118.492 146.81 118.884C146.546 119.276 146.178 119.56 145.706 119.736C145.234 119.912 144.69 120 144.074 120H141.41ZM144.074 118.98C144.642 118.98 145.106 118.864 145.466 118.632C145.834 118.4 146.018 117.984 146.018 117.384C146.018 116.872 145.862 116.492 145.55 116.244C145.238 115.996 144.79 115.872 144.206 115.872H142.538V118.98H144.074ZM150.831 114.588C150.167 114.588 149.495 114.792 148.815 115.2V114.252C149.111 114.068 149.451 113.924 149.835 113.82C150.227 113.708 150.607 113.652 150.975 113.652C151.759 113.652 152.355 113.816 152.763 114.144C153.171 114.472 153.375 114.972 153.375 115.644V118.992C153.375 119.128 153.379 119.304 153.387 119.52C153.403 119.728 153.419 119.888 153.435 120H152.475C152.451 119.888 152.427 119.732 152.403 119.532C152.387 119.324 152.379 119.144 152.379 118.992L152.367 118.812C152.271 119.004 152.139 119.204 151.971 119.412C151.803 119.612 151.579 119.78 151.299 119.916C151.027 120.052 150.687 120.12 150.279 120.12C149.719 120.12 149.267 119.96 148.923 119.64C148.579 119.32 148.407 118.868 148.407 118.284C148.407 117.604 148.647 117.104 149.127 116.784C149.607 116.464 150.283 116.304 151.155 116.304H152.319V115.788C152.319 115.356 152.207 115.048 151.983 114.864C151.759 114.68 151.375 114.588 150.831 114.588ZM152.319 117.6V117.144H151.263C150.631 117.144 150.171 117.236 149.883 117.42C149.603 117.604 149.463 117.872 149.463 118.224C149.463 118.504 149.547 118.732 149.715 118.908C149.891 119.084 150.155 119.172 150.507 119.172C150.835 119.172 151.115 119.108 151.347 118.98C151.579 118.844 151.767 118.684 151.911 118.5C152.055 118.308 152.159 118.128 152.223 117.96C152.287 117.792 152.319 117.672 152.319 117.6ZM156.848 120.12C156.456 120.12 156.076 120.076 155.708 119.988C155.348 119.9 155.052 119.78 154.82 119.628V118.68C155.076 118.832 155.38 118.952 155.732 119.04C156.084 119.128 156.448 119.172 156.824 119.172C157.28 119.172 157.66 119.1 157.964 118.956C158.276 118.804 158.432 118.548 158.432 118.188C158.432 117.836 158.3 117.588 158.036 117.444C157.78 117.3 157.384 117.228 156.848 117.228H156.02V116.376H156.884C157.324 116.376 157.66 116.296 157.892 116.136C158.124 115.976 158.24 115.744 158.24 115.44C158.24 115.12 158.1 114.9 157.82 114.78C157.548 114.652 157.216 114.588 156.824 114.588C156.12 114.588 155.492 114.756 154.94 115.092V114.144C155.18 113.984 155.472 113.864 155.816 113.784C156.168 113.696 156.532 113.652 156.908 113.652C157.668 113.652 158.24 113.796 158.624 114.084C159.016 114.372 159.212 114.788 159.212 115.332C159.212 115.74 159.1 116.064 158.876 116.304C158.652 116.536 158.344 116.692 157.952 116.772C158.44 116.836 158.812 116.992 159.068 117.24C159.324 117.488 159.452 117.804 159.452 118.188C159.452 118.652 159.328 119.028 159.08 119.316C158.84 119.596 158.524 119.8 158.132 119.928C157.74 120.056 157.312 120.12 156.848 120.12ZM163.557 120.12C162.989 120.12 162.477 119.996 162.021 119.748C161.573 119.492 161.217 119.124 160.953 118.644C160.689 118.156 160.557 117.568 160.557 116.88C160.557 116.192 160.689 115.608 160.953 115.128C161.217 114.648 161.573 114.284 162.021 114.036C162.477 113.78 162.989 113.652 163.557 113.652C164.133 113.652 164.649 113.78 165.105 114.036C165.561 114.284 165.921 114.648 166.185 115.128C166.449 115.608 166.581 116.192 166.581 116.88C166.581 117.568 166.449 118.156 166.185 118.644C165.921 119.124 165.561 119.492 165.105 119.748C164.649 119.996 164.133 120.12 163.557 120.12ZM163.557 119.172C164.117 119.172 164.581 118.988 164.949 118.62C165.317 118.244 165.501 117.664 165.501 116.88C165.501 116.096 165.317 115.52 164.949 115.152C164.581 114.776 164.117 114.588 163.557 114.588C163.005 114.588 162.545 114.776 162.177 115.152C161.817 115.52 161.637 116.096 161.637 116.88C161.637 117.664 161.817 118.244 162.177 118.62C162.545 118.988 163.005 119.172 163.557 119.172ZM170.292 120H167.868V113.772H170.316C171.06 113.772 171.624 113.904 172.008 114.168C172.4 114.424 172.596 114.828 172.596 115.38C172.596 115.74 172.5 116.032 172.308 116.256C172.124 116.48 171.86 116.64 171.516 116.736C172.404 116.88 172.848 117.372 172.848 118.212C172.848 118.636 172.736 118.98 172.512 119.244C172.296 119.508 171.996 119.7 171.612 119.82C171.228 119.94 170.788 120 170.292 120ZM170.304 114.672H168.924V116.364H170.22C170.62 116.364 170.94 116.292 171.18 116.148C171.428 116.004 171.552 115.796 171.552 115.524C171.552 115.196 171.444 114.972 171.228 114.852C171.012 114.732 170.704 114.672 170.304 114.672ZM170.28 117.204H168.924V119.1H170.28C170.728 119.1 171.088 119.036 171.36 118.908C171.632 118.772 171.768 118.528 171.768 118.176C171.768 117.824 171.644 117.576 171.396 117.432C171.148 117.28 170.776 117.204 170.28 117.204ZM175.486 113.772V115.872H176.566C177.358 115.872 177.978 116.032 178.426 116.352C178.874 116.664 179.098 117.176 179.098 117.888C179.098 118.384 178.986 118.788 178.762 119.1C178.538 119.404 178.23 119.632 177.838 119.784C177.446 119.928 176.998 120 176.494 120H174.43V113.772H175.486ZM181.054 113.772V120H179.998V113.772H181.054ZM176.494 119.1C176.942 119.1 177.31 119.012 177.598 118.836C177.886 118.652 178.03 118.356 178.03 117.948C178.03 117.532 177.902 117.232 177.646 117.048C177.39 116.864 177.03 116.772 176.566 116.772H175.486V119.1H176.494ZM185.487 120.12C184.447 120.12 183.651 119.836 183.099 119.268C182.555 118.692 182.283 117.896 182.283 116.88C182.283 116.2 182.411 115.62 182.667 115.14C182.923 114.66 183.275 114.292 183.723 114.036C184.171 113.78 184.675 113.652 185.235 113.652C186.187 113.652 186.887 113.968 187.335 114.6C187.783 115.224 187.927 116.08 187.767 117.168H183.375C183.463 118.504 184.199 119.172 185.583 119.172C186.343 119.172 187.043 118.956 187.683 118.524V119.472C187.395 119.672 187.059 119.832 186.675 119.952C186.291 120.064 185.895 120.12 185.487 120.12ZM185.211 114.588C184.755 114.588 184.363 114.728 184.035 115.008C183.707 115.288 183.499 115.712 183.411 116.28H186.759C186.783 115.744 186.659 115.328 186.387 115.032C186.115 114.736 185.723 114.588 185.211 114.588ZM191.587 120V113.772H196.579V120H195.523V114.672H192.643V120H191.587ZM198.302 113.772H199.226L199.334 114.984C199.534 114.584 199.81 114.264 200.162 114.024C200.522 113.776 200.962 113.652 201.482 113.652C201.97 113.652 202.418 113.772 202.826 114.012C203.242 114.244 203.578 114.6 203.834 115.08C204.09 115.552 204.217 116.152 204.217 116.88C204.217 117.608 204.086 118.212 203.822 118.692C203.566 119.172 203.226 119.532 202.802 119.772C202.386 120.004 201.93 120.12 201.434 120.12C200.962 120.12 200.55 120.008 200.198 119.784C199.846 119.56 199.566 119.252 199.358 118.86V122.124H198.302V113.772ZM203.126 116.88C203.126 116.128 202.954 115.56 202.61 115.176C202.266 114.784 201.822 114.588 201.278 114.588C200.734 114.588 200.274 114.78 199.898 115.164C199.53 115.54 199.346 116.112 199.346 116.88C199.346 117.656 199.53 118.232 199.898 118.608C200.274 118.984 200.734 119.172 201.278 119.172C201.822 119.172 202.266 118.98 202.61 118.596C202.954 118.212 203.126 117.64 203.126 116.88ZM207.55 114.588C206.886 114.588 206.214 114.792 205.534 115.2V114.252C205.83 114.068 206.17 113.924 206.554 113.82C206.946 113.708 207.326 113.652 207.694 113.652C208.478 113.652 209.074 113.816 209.482 114.144C209.89 114.472 210.094 114.972 210.094 115.644V118.992C210.094 119.128 210.098 119.304 210.106 119.52C210.122 119.728 210.138 119.888 210.154 120H209.194C209.17 119.888 209.146 119.732 209.122 119.532C209.106 119.324 209.098 119.144 209.098 118.992L209.086 118.812C208.99 119.004 208.858 119.204 208.69 119.412C208.522 119.612 208.298 119.78 208.018 119.916C207.746 120.052 207.406 120.12 206.998 120.12C206.438 120.12 205.986 119.96 205.642 119.64C205.298 119.32 205.126 118.868 205.126 118.284C205.126 117.604 205.366 117.104 205.846 116.784C206.326 116.464 207.002 116.304 207.874 116.304H209.038V115.788C209.038 115.356 208.926 115.048 208.702 114.864C208.478 114.68 208.094 114.588 207.55 114.588ZM209.038 117.6V117.144H207.982C207.35 117.144 206.89 117.236 206.602 117.42C206.322 117.604 206.182 117.872 206.182 118.224C206.182 118.504 206.266 118.732 206.434 118.908C206.61 119.084 206.874 119.172 207.226 119.172C207.554 119.172 207.834 119.108 208.066 118.98C208.298 118.844 208.486 118.684 208.63 118.5C208.774 118.308 208.878 118.128 208.942 117.96C209.006 117.792 209.038 117.672 209.038 117.6ZM214.179 120H211.755V113.772H214.203C214.947 113.772 215.511 113.904 215.895 114.168C216.287 114.424 216.483 114.828 216.483 115.38C216.483 115.74 216.387 116.032 216.195 116.256C216.011 116.48 215.747 116.64 215.403 116.736C216.291 116.88 216.735 117.372 216.735 118.212C216.735 118.636 216.623 118.98 216.399 119.244C216.183 119.508 215.883 119.7 215.499 119.82C215.115 119.94 214.675 120 214.179 120ZM214.191 114.672H212.811V116.364H214.107C214.507 116.364 214.827 116.292 215.067 116.148C215.315 116.004 215.439 115.796 215.439 115.524C215.439 115.196 215.331 114.972 215.115 114.852C214.899 114.732 214.591 114.672 214.191 114.672ZM214.167 117.204H212.811V119.1H214.167C214.615 119.1 214.975 119.036 215.247 118.908C215.519 118.772 215.655 118.528 215.655 118.176C215.655 117.824 215.531 117.576 215.283 117.432C215.035 117.28 214.663 117.204 214.167 117.204ZM219.373 113.772V118.536L222.577 113.772H223.645V120H222.589V115.248L219.397 120H218.317V113.772H219.373ZM224.868 118.968C225.348 119.04 225.676 118.74 225.852 118.068C225.916 117.828 225.968 117.528 226.008 117.168C226.048 116.8 226.076 116.344 226.092 115.8C226.108 115.248 226.116 114.572 226.116 113.772H230.424V120H229.356V114.672H227.112C227.104 115.624 227.076 116.388 227.028 116.964C226.988 117.532 226.92 118.008 226.824 118.392C226.672 118.992 226.44 119.42 226.128 119.676C225.816 119.932 225.396 120.044 224.868 120.012V118.968ZM234.257 114.588C233.593 114.588 232.921 114.792 232.241 115.2V114.252C232.537 114.068 232.877 113.924 233.261 113.82C233.653 113.708 234.033 113.652 234.401 113.652C235.185 113.652 235.781 113.816 236.189 114.144C236.597 114.472 236.801 114.972 236.801 115.644V118.992C236.801 119.128 236.805 119.304 236.813 119.52C236.829 119.728 236.845 119.888 236.861 120H235.901C235.877 119.888 235.853 119.732 235.829 119.532C235.813 119.324 235.805 119.144 235.805 118.992L235.793 118.812C235.697 119.004 235.565 119.204 235.397 119.412C235.229 119.612 235.005 119.78 234.725 119.916C234.453 120.052 234.113 120.12 233.705 120.12C233.145 120.12 232.693 119.96 232.349 119.64C232.005 119.32 231.833 118.868 231.833 118.284C231.833 117.604 232.073 117.104 232.553 116.784C233.033 116.464 233.709 116.304 234.581 116.304H235.745V115.788C235.745 115.356 235.633 115.048 235.409 114.864C235.185 114.68 234.801 114.588 234.257 114.588ZM235.745 117.6V117.144H234.689C234.057 117.144 233.597 117.236 233.309 117.42C233.029 117.604 232.889 117.872 232.889 118.224C232.889 118.504 232.973 118.732 233.141 118.908C233.317 119.084 233.581 119.172 233.933 119.172C234.261 119.172 234.541 119.108 234.773 118.98C235.005 118.844 235.193 118.684 235.337 118.5C235.481 118.308 235.585 118.128 235.649 117.96C235.713 117.792 235.745 117.672 235.745 117.6Z" fill="black"/>
<rect x="104" y="225" width="170" height="46" rx="10" fill="#D6E1FF"/>
<path d="M151.401 243.396H157.869V252H156.729V244.428H152.529V252H151.401V243.396ZM159.729 245.772H160.653L160.761 246.984C160.961 246.584 161.237 246.264 161.589 246.024C161.949 245.776 162.389 245.652 162.909 245.652C163.397 245.652 163.845 245.772 164.253 246.012C164.669 246.244 165.005 246.6 165.261 247.08C165.517 247.552 165.645 248.152 165.645 248.88C165.645 249.608 165.513 250.212 165.249 250.692C164.993 251.172 164.653 251.532 164.229 251.772C163.813 252.004 163.357 252.12 162.861 252.12C162.389 252.12 161.977 252.008 161.625 251.784C161.273 251.56 160.993 251.252 160.785 250.86V254.124H159.729V245.772ZM164.553 248.88C164.553 248.128 164.381 247.56 164.037 247.176C163.693 246.784 163.249 246.588 162.705 246.588C162.161 246.588 161.701 246.78 161.325 247.164C160.957 247.54 160.773 248.112 160.773 248.88C160.773 249.656 160.957 250.232 161.325 250.608C161.701 250.984 162.161 251.172 162.705 251.172C163.249 251.172 163.693 250.98 164.037 250.596C164.381 250.212 164.553 249.64 164.553 248.88ZM168.978 246.588C168.314 246.588 167.642 246.792 166.962 247.2V246.252C167.258 246.068 167.598 245.924 167.982 245.82C168.374 245.708 168.754 245.652 169.122 245.652C169.906 245.652 170.502 245.816 170.91 246.144C171.318 246.472 171.522 246.972 171.522 247.644V250.992C171.522 251.128 171.526 251.304 171.534 251.52C171.55 251.728 171.566 251.888 171.582 252H170.622C170.598 251.888 170.574 251.732 170.55 251.532C170.534 251.324 170.526 251.144 170.526 250.992L170.514 250.812C170.418 251.004 170.286 251.204 170.118 251.412C169.95 251.612 169.726 251.78 169.446 251.916C169.174 252.052 168.834 252.12 168.426 252.12C167.866 252.12 167.414 251.96 167.07 251.64C166.726 251.32 166.554 250.868 166.554 250.284C166.554 249.604 166.794 249.104 167.274 248.784C167.754 248.464 168.43 248.304 169.302 248.304H170.466V247.788C170.466 247.356 170.354 247.048 170.13 246.864C169.906 246.68 169.522 246.588 168.978 246.588ZM170.466 249.6V249.144H169.41C168.778 249.144 168.318 249.236 168.03 249.42C167.75 249.604 167.61 249.872 167.61 250.224C167.61 250.504 167.694 250.732 167.862 250.908C168.038 251.084 168.302 251.172 168.654 251.172C168.982 251.172 169.262 251.108 169.494 250.98C169.726 250.844 169.914 250.684 170.058 250.5C170.202 250.308 170.306 250.128 170.37 249.96C170.434 249.792 170.466 249.672 170.466 249.6ZM175.606 252H173.182V245.772H175.63C176.374 245.772 176.938 245.904 177.322 246.168C177.714 246.424 177.91 246.828 177.91 247.38C177.91 247.74 177.814 248.032 177.622 248.256C177.438 248.48 177.174 248.64 176.83 248.736C177.718 248.88 178.162 249.372 178.162 250.212C178.162 250.636 178.05 250.98 177.826 251.244C177.61 251.508 177.31 251.7 176.926 251.82C176.542 251.94 176.102 252 175.606 252ZM175.618 246.672H174.238V248.364H175.534C175.934 248.364 176.254 248.292 176.494 248.148C176.742 248.004 176.866 247.796 176.866 247.524C176.866 247.196 176.758 246.972 176.542 246.852C176.326 246.732 176.018 246.672 175.618 246.672ZM175.594 249.204H174.238V251.1H175.594C176.042 251.1 176.402 251.036 176.674 250.908C176.946 250.772 177.082 250.528 177.082 250.176C177.082 249.824 176.958 249.576 176.71 249.432C176.462 249.28 176.09 249.204 175.594 249.204ZM180.801 245.772V250.536L184.005 245.772H185.073V252H184.017V247.248L180.825 252H179.745V245.772H180.801ZM186.296 250.968C186.776 251.04 187.104 250.74 187.28 250.068C187.344 249.828 187.396 249.528 187.436 249.168C187.476 248.8 187.504 248.344 187.52 247.8C187.536 247.248 187.544 246.572 187.544 245.772H191.852V252H190.784V246.672H188.54C188.532 247.624 188.504 248.388 188.456 248.964C188.416 249.532 188.348 250.008 188.252 250.392C188.1 250.992 187.868 251.42 187.556 251.676C187.244 251.932 186.824 252.044 186.296 252.012V250.968ZM195.685 246.588C195.021 246.588 194.349 246.792 193.669 247.2V246.252C193.965 246.068 194.305 245.924 194.689 245.82C195.081 245.708 195.461 245.652 195.829 245.652C196.613 245.652 197.209 245.816 197.617 246.144C198.025 246.472 198.229 246.972 198.229 247.644V250.992C198.229 251.128 198.233 251.304 198.241 251.52C198.257 251.728 198.273 251.888 198.289 252H197.329C197.305 251.888 197.281 251.732 197.257 251.532C197.241 251.324 197.233 251.144 197.233 250.992L197.221 250.812C197.125 251.004 196.993 251.204 196.825 251.412C196.657 251.612 196.433 251.78 196.153 251.916C195.881 252.052 195.541 252.12 195.133 252.12C194.573 252.12 194.121 251.96 193.777 251.64C193.433 251.32 193.261 250.868 193.261 250.284C193.261 249.604 193.501 249.104 193.981 248.784C194.461 248.464 195.137 248.304 196.009 248.304H197.173V247.788C197.173 247.356 197.061 247.048 196.837 246.864C196.613 246.68 196.229 246.588 195.685 246.588ZM197.173 249.6V249.144H196.117C195.485 249.144 195.025 249.236 194.737 249.42C194.457 249.604 194.317 249.872 194.317 250.224C194.317 250.504 194.401 250.732 194.569 250.908C194.745 251.084 195.009 251.172 195.361 251.172C195.689 251.172 195.969 251.108 196.201 250.98C196.433 250.844 196.621 250.684 196.765 250.5C196.909 250.308 197.013 250.128 197.077 249.96C197.141 249.792 197.173 249.672 197.173 249.6ZM205.232 252H203.564L201.668 243.396H202.844L204.476 251.028L206.684 243.396H207.716L209.876 250.884L211.496 243.396H212.588L210.692 252H209.036L207.14 245.352L205.232 252ZM220.543 252H219.343L218.455 249.54H214.651L213.775 252H212.719L215.779 243.396H217.459L220.543 252ZM215.023 248.52H218.095L216.559 244.236L215.023 248.52ZM221.795 243.396H227.051V244.428H222.923V247.284H226.427V248.304H222.923V252H221.795V243.396Z" fill="black"/>
<rect x="104" y="159" width="170" height="46" rx="10" fill="#D6E1FF"/>
<path d="M118.992 177.396H125.46V186H124.32V178.428H120.12V186H118.992V177.396ZM127.321 179.772H128.245L128.353 180.984C128.553 180.584 128.829 180.264 129.181 180.024C129.541 179.776 129.981 179.652 130.501 179.652C130.989 179.652 131.437 179.772 131.845 180.012C132.261 180.244 132.597 180.6 132.853 181.08C133.109 181.552 133.237 182.152 133.237 182.88C133.237 183.608 133.105 184.212 132.841 184.692C132.585 185.172 132.245 185.532 131.821 185.772C131.405 186.004 130.949 186.12 130.453 186.12C129.981 186.12 129.569 186.008 129.217 185.784C128.865 185.56 128.585 185.252 128.377 184.86V188.124H127.321V179.772ZM132.145 182.88C132.145 182.128 131.973 181.56 131.629 181.176C131.285 180.784 130.841 180.588 130.297 180.588C129.753 180.588 129.293 180.78 128.917 181.164C128.549 181.54 128.365 182.112 128.365 182.88C128.365 183.656 128.549 184.232 128.917 184.608C129.293 184.984 129.753 185.172 130.297 185.172C130.841 185.172 131.285 184.98 131.629 184.596C131.973 184.212 132.145 183.64 132.145 182.88ZM136.57 180.588C135.906 180.588 135.234 180.792 134.554 181.2V180.252C134.85 180.068 135.19 179.924 135.574 179.82C135.966 179.708 136.346 179.652 136.714 179.652C137.498 179.652 138.094 179.816 138.502 180.144C138.91 180.472 139.114 180.972 139.114 181.644V184.992C139.114 185.128 139.118 185.304 139.126 185.52C139.142 185.728 139.158 185.888 139.174 186H138.214C138.19 185.888 138.166 185.732 138.142 185.532C138.126 185.324 138.118 185.144 138.118 184.992L138.106 184.812C138.01 185.004 137.878 185.204 137.71 185.412C137.542 185.612 137.318 185.78 137.038 185.916C136.766 186.052 136.426 186.12 136.018 186.12C135.458 186.12 135.006 185.96 134.662 185.64C134.318 185.32 134.146 184.868 134.146 184.284C134.146 183.604 134.386 183.104 134.866 182.784C135.346 182.464 136.022 182.304 136.894 182.304H138.058V181.788C138.058 181.356 137.946 181.048 137.722 180.864C137.498 180.68 137.114 180.588 136.57 180.588ZM138.058 183.6V183.144H137.002C136.37 183.144 135.91 183.236 135.622 183.42C135.342 183.604 135.202 183.872 135.202 184.224C135.202 184.504 135.286 184.732 135.454 184.908C135.63 185.084 135.894 185.172 136.246 185.172C136.574 185.172 136.854 185.108 137.086 184.98C137.318 184.844 137.506 184.684 137.65 184.5C137.794 184.308 137.898 184.128 137.962 183.96C138.026 183.792 138.058 183.672 138.058 183.6ZM143.198 186H140.774V179.772H143.222C143.966 179.772 144.53 179.904 144.914 180.168C145.306 180.424 145.502 180.828 145.502 181.38C145.502 181.74 145.406 182.032 145.214 182.256C145.03 182.48 144.766 182.64 144.422 182.736C145.31 182.88 145.754 183.372 145.754 184.212C145.754 184.636 145.642 184.98 145.418 185.244C145.202 185.508 144.902 185.7 144.518 185.82C144.134 185.94 143.694 186 143.198 186ZM143.21 180.672H141.83V182.364H143.126C143.526 182.364 143.846 182.292 144.086 182.148C144.334 182.004 144.458 181.796 144.458 181.524C144.458 181.196 144.35 180.972 144.134 180.852C143.918 180.732 143.61 180.672 143.21 180.672ZM143.186 183.204H141.83V185.1H143.186C143.634 185.1 143.994 185.036 144.266 184.908C144.538 184.772 144.674 184.528 144.674 184.176C144.674 183.824 144.55 183.576 144.302 183.432C144.054 183.28 143.682 183.204 143.186 183.204ZM148.393 179.772V184.536L151.597 179.772H152.665V186H151.609V181.248L148.417 186H147.337V179.772H148.393ZM153.887 184.968C154.367 185.04 154.695 184.74 154.871 184.068C154.935 183.828 154.987 183.528 155.027 183.168C155.067 182.8 155.095 182.344 155.111 181.8C155.127 181.248 155.135 180.572 155.135 179.772H159.443V186H158.375V180.672H156.131C156.123 181.624 156.095 182.388 156.047 182.964C156.007 183.532 155.939 184.008 155.843 184.392C155.691 184.992 155.459 185.42 155.147 185.676C154.835 185.932 154.415 186.044 153.887 186.012V184.968ZM163.277 180.588C162.613 180.588 161.941 180.792 161.261 181.2V180.252C161.557 180.068 161.897 179.924 162.281 179.82C162.673 179.708 163.053 179.652 163.421 179.652C164.205 179.652 164.801 179.816 165.209 180.144C165.617 180.472 165.821 180.972 165.821 181.644V184.992C165.821 185.128 165.825 185.304 165.833 185.52C165.849 185.728 165.865 185.888 165.881 186H164.921C164.897 185.888 164.873 185.732 164.849 185.532C164.833 185.324 164.825 185.144 164.825 184.992L164.813 184.812C164.717 185.004 164.585 185.204 164.417 185.412C164.249 185.612 164.025 185.78 163.745 185.916C163.473 186.052 163.133 186.12 162.725 186.12C162.165 186.12 161.713 185.96 161.369 185.64C161.025 185.32 160.853 184.868 160.853 184.284C160.853 183.604 161.093 183.104 161.573 182.784C162.053 182.464 162.729 182.304 163.601 182.304H164.765V181.788C164.765 181.356 164.653 181.048 164.429 180.864C164.205 180.68 163.821 180.588 163.277 180.588ZM164.765 183.6V183.144H163.709C163.077 183.144 162.617 183.236 162.329 183.42C162.049 183.604 161.909 183.872 161.909 184.224C161.909 184.504 161.993 184.732 162.161 184.908C162.337 185.084 162.601 185.172 162.953 185.172C163.281 185.172 163.561 185.108 163.793 184.98C164.025 184.844 164.213 184.684 164.357 184.5C164.501 184.308 164.605 184.128 164.669 183.96C164.733 183.792 164.765 183.672 164.765 183.6ZM172.428 186.12C171.82 186.12 171.256 186.044 170.736 185.892C170.224 185.732 169.832 185.524 169.56 185.268V184.188C169.76 184.364 170.016 184.52 170.328 184.656C170.648 184.792 170.992 184.9 171.36 184.98C171.728 185.06 172.084 185.1 172.428 185.1C173.076 185.1 173.576 184.976 173.928 184.728C174.288 184.48 174.468 184.128 174.468 183.672C174.468 183.4 174.412 183.18 174.3 183.012C174.196 182.836 173.996 182.684 173.7 182.556C173.412 182.428 172.992 182.296 172.44 182.16C171.72 181.976 171.156 181.772 170.748 181.548C170.34 181.324 170.052 181.06 169.884 180.756C169.716 180.444 169.632 180.076 169.632 179.652C169.632 178.884 169.904 178.3 170.448 177.9C170.992 177.492 171.776 177.288 172.8 177.288C173.248 177.288 173.66 177.332 174.036 177.42C174.412 177.508 174.784 177.644 175.152 177.828V178.908C174.552 178.508 173.768 178.308 172.8 178.308C171.432 178.308 170.748 178.74 170.748 179.604C170.748 179.98 170.888 180.276 171.168 180.492C171.456 180.708 171.964 180.9 172.692 181.068C173.444 181.236 174.032 181.432 174.456 181.656C174.88 181.88 175.18 182.152 175.356 182.472C175.54 182.784 175.632 183.168 175.632 183.624C175.632 184.4 175.348 185.012 174.78 185.46C174.212 185.9 173.428 186.12 172.428 186.12ZM180.851 181.644C180.851 181.244 180.751 180.968 180.551 180.816C180.351 180.664 180.079 180.588 179.735 180.588C179.287 180.588 178.931 180.7 178.667 180.924C178.403 181.14 178.171 181.424 177.971 181.776V186H176.915V179.772H177.839L177.947 180.888H177.971C178.139 180.536 178.391 180.244 178.727 180.012C179.071 179.772 179.511 179.652 180.047 179.652C180.519 179.652 180.911 179.768 181.223 180C181.535 180.224 181.743 180.564 181.847 181.02C182.023 180.596 182.291 180.264 182.651 180.024C183.019 179.776 183.463 179.652 183.983 179.652C184.551 179.652 185.003 179.816 185.339 180.144C185.683 180.472 185.855 180.968 185.855 181.632V186H184.787V181.764C184.787 181.356 184.687 181.06 184.487 180.876C184.287 180.684 184.015 180.588 183.671 180.588C183.215 180.588 182.855 180.72 182.591 180.984C182.327 181.24 182.099 181.544 181.907 181.896V186H180.851V181.644ZM189.621 180.588C188.957 180.588 188.285 180.792 187.605 181.2V180.252C187.901 180.068 188.241 179.924 188.625 179.82C189.017 179.708 189.397 179.652 189.765 179.652C190.549 179.652 191.145 179.816 191.553 180.144C191.961 180.472 192.165 180.972 192.165 181.644V184.992C192.165 185.128 192.169 185.304 192.177 185.52C192.193 185.728 192.209 185.888 192.225 186H191.265C191.241 185.888 191.217 185.732 191.193 185.532C191.177 185.324 191.169 185.144 191.169 184.992L191.157 184.812C191.061 185.004 190.929 185.204 190.761 185.412C190.593 185.612 190.369 185.78 190.089 185.916C189.817 186.052 189.477 186.12 189.069 186.12C188.509 186.12 188.057 185.96 187.713 185.64C187.369 185.32 187.197 184.868 187.197 184.284C187.197 183.604 187.437 183.104 187.917 182.784C188.397 182.464 189.073 182.304 189.945 182.304H191.109V181.788C191.109 181.356 190.997 181.048 190.773 180.864C190.549 180.68 190.165 180.588 189.621 180.588ZM191.109 183.6V183.144H190.053C189.421 183.144 188.961 183.236 188.673 183.42C188.393 183.604 188.253 183.872 188.253 184.224C188.253 184.504 188.337 184.732 188.505 184.908C188.681 185.084 188.945 185.172 189.297 185.172C189.625 185.172 189.905 185.108 190.137 184.98C190.369 184.844 190.557 184.684 190.701 184.5C190.845 184.308 190.949 184.128 191.013 183.96C191.077 183.792 191.109 183.672 191.109 183.6ZM196.909 180.828C196.413 180.868 195.989 180.992 195.637 181.2C195.293 181.408 195.041 181.688 194.881 182.04V186H193.825V179.772H194.749L194.857 181.128H194.881C195.081 180.712 195.353 180.376 195.697 180.12C196.049 179.864 196.453 179.708 196.909 179.652V180.828ZM197.751 180.672V179.772H198.495V178.464H199.551V179.772H201.363V180.672H199.551V184.416C199.551 184.68 199.619 184.872 199.755 184.992C199.891 185.112 200.123 185.172 200.451 185.172C200.763 185.172 201.047 185.084 201.303 184.908V185.868C201.175 185.948 201.007 186.008 200.799 186.048C200.591 186.096 200.383 186.12 200.175 186.12C199.775 186.12 199.451 186.044 199.203 185.892C198.955 185.74 198.775 185.544 198.663 185.304C198.551 185.064 198.495 184.812 198.495 184.548V180.672H197.751ZM205.254 177.396H208.002C208.978 177.396 209.734 177.6 210.27 178.008C210.814 178.408 211.086 179.036 211.086 179.892C211.086 180.54 210.95 181.068 210.678 181.476C210.414 181.884 210.042 182.184 209.562 182.376C209.09 182.56 208.538 182.652 207.906 182.652H206.382V186H205.254V177.396ZM207.906 181.632C208.514 181.632 209.006 181.5 209.382 181.236C209.758 180.972 209.946 180.528 209.946 179.904C209.946 179.384 209.778 179.008 209.442 178.776C209.106 178.544 208.626 178.428 208.002 178.428H206.382V181.632H207.906ZM215.46 180.828C214.964 180.868 214.54 180.992 214.188 181.2C213.844 181.408 213.592 181.688 213.432 182.04V186H212.376V179.772H213.3L213.408 181.128H213.432C213.632 180.712 213.904 180.376 214.248 180.12C214.6 179.864 215.004 179.708 215.46 179.652V180.828ZM218.998 186.12C218.43 186.12 217.918 185.996 217.462 185.748C217.014 185.492 216.658 185.124 216.394 184.644C216.13 184.156 215.998 183.568 215.998 182.88C215.998 182.192 216.13 181.608 216.394 181.128C216.658 180.648 217.014 180.284 217.462 180.036C217.918 179.78 218.43 179.652 218.998 179.652C219.574 179.652 220.09 179.78 220.546 180.036C221.002 180.284 221.362 180.648 221.626 181.128C221.89 181.608 222.022 182.192 222.022 182.88C222.022 183.568 221.89 184.156 221.626 184.644C221.362 185.124 221.002 185.492 220.546 185.748C220.09 185.996 219.574 186.12 218.998 186.12ZM218.998 185.172C219.558 185.172 220.022 184.988 220.39 184.62C220.758 184.244 220.942 183.664 220.942 182.88C220.942 182.096 220.758 181.52 220.39 181.152C220.022 180.776 219.558 180.588 218.998 180.588C218.446 180.588 217.986 180.776 217.618 181.152C217.258 181.52 217.078 182.096 217.078 182.88C217.078 183.664 217.258 184.244 217.618 184.62C217.986 184.988 218.446 185.172 218.998 185.172ZM222.805 180.672V179.772H223.549V178.464H224.605V179.772H226.417V180.672H224.605V184.416C224.605 184.68 224.673 184.872 224.809 184.992C224.945 185.112 225.177 185.172 225.505 185.172C225.817 185.172 226.101 185.084 226.357 184.908V185.868C226.229 185.948 226.061 186.008 225.853 186.048C225.645 186.096 225.437 186.12 225.229 186.12C224.829 186.12 224.505 186.044 224.257 185.892C224.009 185.74 223.829 185.544 223.717 185.304C223.605 185.064 223.549 184.812 223.549 184.548V180.672H222.805ZM230.347 186.12C229.307 186.12 228.511 185.836 227.959 185.268C227.415 184.692 227.143 183.896 227.143 182.88C227.143 182.2 227.271 181.62 227.527 181.14C227.783 180.66 228.135 180.292 228.583 180.036C229.031 179.78 229.535 179.652 230.095 179.652C231.047 179.652 231.747 179.968 232.195 180.6C232.643 181.224 232.787 182.08 232.627 183.168H228.235C228.323 184.504 229.059 185.172 230.443 185.172C231.203 185.172 231.903 184.956 232.543 184.524V185.472C232.255 185.672 231.919 185.832 231.535 185.952C231.151 186.064 230.755 186.12 230.347 186.12ZM230.071 180.588C229.615 180.588 229.223 180.728 228.895 181.008C228.567 181.288 228.359 181.712 228.271 182.28H231.619C231.643 181.744 231.519 181.328 231.247 181.032C230.975 180.736 230.583 180.588 230.071 180.588ZM236.638 186.12C235.67 186.12 234.906 185.836 234.346 185.268C233.786 184.692 233.506 183.896 233.506 182.88C233.506 181.864 233.79 181.072 234.358 180.504C234.926 179.936 235.702 179.652 236.686 179.652C237.062 179.652 237.414 179.696 237.742 179.784C238.07 179.864 238.334 179.984 238.534 180.144V181.092C237.99 180.756 237.378 180.588 236.698 180.588C235.978 180.588 235.446 180.78 235.102 181.164C234.758 181.54 234.586 182.112 234.586 182.88C234.586 183.648 234.75 184.224 235.078 184.608C235.414 184.984 235.934 185.172 236.638 185.172C237.318 185.172 237.95 185.008 238.534 184.68V185.628C238.014 185.956 237.382 186.12 236.638 186.12ZM239.376 180.672V179.772H240.12V178.464H241.176V179.772H242.988V180.672H241.176V184.416C241.176 184.68 241.244 184.872 241.38 184.992C241.516 185.112 241.748 185.172 242.076 185.172C242.388 185.172 242.672 185.084 242.928 184.908V185.868C242.8 185.948 242.632 186.008 242.424 186.048C242.216 186.096 242.008 186.12 241.8 186.12C241.4 186.12 241.076 186.044 240.828 185.892C240.58 185.74 240.4 185.544 240.288 185.304C240.176 185.064 240.12 184.812 240.12 184.548V180.672H239.376ZM244.873 178.86C244.657 178.86 244.485 178.796 244.357 178.668C244.229 178.532 244.165 178.368 244.165 178.176C244.165 177.984 244.229 177.82 244.357 177.684C244.485 177.548 244.657 177.48 244.873 177.48C245.081 177.48 245.245 177.548 245.365 177.684C245.485 177.82 245.545 177.984 245.545 178.176C245.545 178.368 245.485 178.532 245.365 178.668C245.245 178.796 245.081 178.86 244.873 178.86ZM244.333 179.772H245.389V186H244.333V179.772ZM249.666 186.12C249.098 186.12 248.586 185.996 248.13 185.748C247.682 185.492 247.326 185.124 247.062 184.644C246.798 184.156 246.666 183.568 246.666 182.88C246.666 182.192 246.798 181.608 247.062 181.128C247.326 180.648 247.682 180.284 248.13 180.036C248.586 179.78 249.098 179.652 249.666 179.652C250.242 179.652 250.758 179.78 251.214 180.036C251.67 180.284 252.03 180.648 252.294 181.128C252.558 181.608 252.69 182.192 252.69 182.88C252.69 183.568 252.558 184.156 252.294 184.644C252.03 185.124 251.67 185.492 251.214 185.748C250.758 185.996 250.242 186.12 249.666 186.12ZM249.666 185.172C250.226 185.172 250.69 184.988 251.058 184.62C251.426 184.244 251.61 183.664 251.61 182.88C251.61 182.096 251.426 181.52 251.058 181.152C250.69 180.776 250.226 180.588 249.666 180.588C249.114 180.588 248.654 180.776 248.286 181.152C247.926 181.52 247.746 182.096 247.746 182.88C247.746 183.664 247.926 184.244 248.286 184.62C248.654 184.988 249.114 185.172 249.666 185.172ZM256.929 180.588C256.449 180.588 256.057 180.7 255.753 180.924C255.457 181.14 255.217 181.42 255.033 181.764V186H253.977V179.772H254.973L255.009 180.888H255.033C255.201 180.536 255.465 180.244 255.825 180.012C256.185 179.772 256.641 179.652 257.193 179.652C257.809 179.652 258.297 179.816 258.657 180.144C259.025 180.472 259.209 180.968 259.209 181.632V186H258.153V181.74C258.153 181.316 258.041 181.02 257.817 180.852C257.601 180.676 257.305 180.588 256.929 180.588Z" fill="black"/>
<rect x="411" y="43" width="200" height="177" rx="5" fill="white" stroke="#5282FF" stroke-width="2"/>
<path d="M471.506 63.396H478.274V72H476.81V64.656H472.958V72H471.506V63.396ZM479.964 65.772H481.236L481.332 66.888C481.532 66.512 481.804 66.212 482.148 65.988C482.5 65.764 482.924 65.652 483.42 65.652C483.908 65.652 484.36 65.772 484.776 66.012C485.192 66.244 485.524 66.6 485.772 67.08C486.028 67.552 486.156 68.152 486.156 68.88C486.156 69.608 486.028 70.212 485.772 70.692C485.524 71.172 485.188 71.532 484.764 71.772C484.348 72.004 483.892 72.12 483.396 72.12C482.924 72.12 482.516 72.016 482.172 71.808C481.836 71.592 481.564 71.304 481.356 70.944V74.124H479.964V65.772ZM484.728 68.88C484.728 68.192 484.572 67.676 484.26 67.332C483.956 66.98 483.56 66.804 483.072 66.804C482.584 66.804 482.172 66.976 481.836 67.32C481.508 67.664 481.344 68.184 481.344 68.88C481.344 69.584 481.508 70.108 481.836 70.452C482.172 70.788 482.58 70.956 483.06 70.956C483.548 70.956 483.948 70.784 484.26 70.44C484.572 70.096 484.728 69.576 484.728 68.88ZM490.023 72.12C489.439 72.12 488.911 71.996 488.439 71.748C487.975 71.492 487.607 71.124 487.335 70.644C487.071 70.164 486.939 69.576 486.939 68.88C486.939 68.192 487.071 67.608 487.335 67.128C487.607 66.648 487.975 66.284 488.439 66.036C488.911 65.78 489.439 65.652 490.023 65.652C490.607 65.652 491.131 65.78 491.595 66.036C492.067 66.284 492.439 66.648 492.711 67.128C492.983 67.608 493.119 68.192 493.119 68.88C493.119 69.576 492.983 70.164 492.711 70.644C492.439 71.124 492.067 71.492 491.595 71.748C491.131 71.996 490.607 72.12 490.023 72.12ZM490.023 70.956C490.503 70.956 490.899 70.788 491.211 70.452C491.531 70.116 491.691 69.592 491.691 68.88C491.691 68.176 491.531 67.656 491.211 67.32C490.899 66.976 490.503 66.804 490.023 66.804C489.543 66.804 489.143 66.976 488.823 67.32C488.511 67.656 488.355 68.176 488.355 68.88C488.355 69.592 488.511 70.116 488.823 70.452C489.143 70.788 489.543 70.956 490.023 70.956ZM498.64 63.276V65.676C499.28 65.716 499.852 65.864 500.356 66.12C500.86 66.368 501.256 66.724 501.544 67.188C501.84 67.652 501.988 68.216 501.988 68.88C501.988 69.552 501.84 70.12 501.544 70.584C501.248 71.048 500.848 71.408 500.344 71.664C499.84 71.912 499.272 72.056 498.64 72.096V74.124H497.26V72.084C496.62 72.052 496.048 71.912 495.544 71.664C495.04 71.408 494.64 71.048 494.344 70.584C494.056 70.12 493.912 69.552 493.912 68.88C493.912 68.208 494.056 67.64 494.344 67.176C494.64 66.712 495.04 66.356 495.544 66.108C496.056 65.852 496.628 65.712 497.26 65.688V63.276H498.64ZM500.572 68.88C500.572 68.216 500.392 67.712 500.032 67.368C499.672 67.024 499.208 66.828 498.64 66.78V70.98C499.216 70.94 499.68 70.748 500.032 70.404C500.392 70.052 500.572 69.544 500.572 68.88ZM495.328 68.88C495.328 69.552 495.508 70.06 495.868 70.404C496.228 70.748 496.692 70.94 497.26 70.98V66.78C496.692 66.828 496.228 67.024 495.868 67.368C495.508 67.712 495.328 68.216 495.328 68.88ZM504.547 65.772V70.08L507.367 65.772H508.735V72H507.343V67.704L504.559 72H503.167V65.772H504.547ZM509.812 70.716C510.076 70.764 510.288 70.716 510.448 70.572C510.616 70.42 510.744 70.16 510.832 69.792C510.88 69.568 510.92 69.288 510.952 68.952C510.984 68.616 511.008 68.192 511.024 67.68C511.04 67.168 511.048 66.532 511.048 65.772H515.596V72H514.204V66.9H512.32C512.304 67.708 512.276 68.372 512.236 68.892C512.196 69.412 512.136 69.856 512.056 70.224C511.896 70.92 511.636 71.412 511.276 71.7C510.924 71.98 510.436 72.084 509.812 72.012V70.716ZM518.539 65.772V67.752H519.619C520.427 67.752 521.059 67.924 521.515 68.268C521.971 68.604 522.199 69.124 522.199 69.828C522.199 70.316 522.087 70.724 521.863 71.052C521.639 71.372 521.327 71.612 520.927 71.772C520.535 71.924 520.083 72 519.571 72H517.147V65.772H518.539ZM519.475 70.908C519.859 70.908 520.171 70.828 520.411 70.668C520.651 70.508 520.771 70.248 520.771 69.888C520.771 69.528 520.663 69.268 520.447 69.108C520.231 68.94 519.919 68.856 519.511 68.856H518.539V70.908H519.475ZM529.025 72H527.033L525.185 63.396H526.673L528.137 70.572L530.141 63.396H531.557L533.537 70.452L535.037 63.396H536.369L534.509 72H532.529L530.777 65.64L529.025 72ZM544.344 72H542.844L542.052 69.744H538.428L537.636 72H536.352L539.388 63.396H541.296L544.344 72ZM538.872 68.496H541.608L540.24 64.62L538.872 68.496ZM545.463 63.396H550.935V64.656H546.915V67.176H550.323V68.424H546.915V72H545.463V63.396Z" fill="black" fill-opacity="0.85"/>
<rect x="426" y="93" width="170" height="46" rx="10" fill="#D6E1FF"/>
<path d="M447.83 111.396H448.958V115.224H453.374V111.396H454.514V120H453.374V116.244H448.958V120H447.83V111.396ZM458.482 114.588C457.818 114.588 457.146 114.792 456.466 115.2V114.252C456.762 114.068 457.102 113.924 457.486 113.82C457.878 113.708 458.258 113.652 458.626 113.652C459.41 113.652 460.006 113.816 460.414 114.144C460.822 114.472 461.026 114.972 461.026 115.644V118.992C461.026 119.128 461.03 119.304 461.038 119.52C461.054 119.728 461.07 119.888 461.086 120H460.126C460.102 119.888 460.078 119.732 460.054 119.532C460.038 119.324 460.03 119.144 460.03 118.992L460.018 118.812C459.922 119.004 459.79 119.204 459.622 119.412C459.454 119.612 459.23 119.78 458.95 119.916C458.678 120.052 458.338 120.12 457.93 120.12C457.37 120.12 456.918 119.96 456.574 119.64C456.23 119.32 456.058 118.868 456.058 118.284C456.058 117.604 456.298 117.104 456.778 116.784C457.258 116.464 457.934 116.304 458.806 116.304H459.97V115.788C459.97 115.356 459.858 115.048 459.634 114.864C459.41 114.68 459.026 114.588 458.482 114.588ZM459.97 117.6V117.144H458.914C458.282 117.144 457.822 117.236 457.534 117.42C457.254 117.604 457.114 117.872 457.114 118.224C457.114 118.504 457.198 118.732 457.366 118.908C457.542 119.084 457.806 119.172 458.158 119.172C458.486 119.172 458.766 119.108 458.998 118.98C459.23 118.844 459.418 118.684 459.562 118.5C459.706 118.308 459.81 118.128 459.874 117.96C459.938 117.792 459.97 117.672 459.97 117.6ZM465.506 113.688C466.034 113.688 466.506 113.812 466.922 114.06C467.346 114.308 467.682 114.672 467.93 115.152C468.178 115.624 468.302 116.2 468.302 116.88C468.302 117.568 468.17 118.156 467.906 118.644C467.642 119.124 467.282 119.492 466.826 119.748C466.37 119.996 465.854 120.12 465.278 120.12C464.694 120.12 464.174 119.988 463.718 119.724C463.27 119.452 462.918 119.044 462.662 118.5C462.406 117.956 462.278 117.264 462.278 116.424C462.278 115.512 462.33 114.752 462.434 114.144C462.546 113.536 462.718 113.04 462.95 112.656C463.182 112.264 463.494 111.952 463.886 111.72C464.078 111.608 464.278 111.52 464.486 111.456C464.694 111.392 464.954 111.344 465.266 111.312C465.586 111.272 465.994 111.244 466.49 111.228C466.802 111.204 467.066 111.164 467.282 111.108C467.498 111.052 467.694 110.976 467.87 110.88V111.84C467.718 111.936 467.55 112.012 467.366 112.068C467.182 112.116 466.926 112.156 466.598 112.188C466.126 112.236 465.75 112.268 465.47 112.284C465.198 112.3 464.978 112.324 464.81 112.356C464.642 112.388 464.474 112.452 464.306 112.548C463.962 112.74 463.702 113.028 463.526 113.412C463.35 113.788 463.23 114.348 463.166 115.092C463.582 114.156 464.362 113.688 465.506 113.688ZM465.278 119.172C465.838 119.172 466.302 118.988 466.67 118.62C467.038 118.244 467.222 117.664 467.222 116.88C467.222 116.096 467.038 115.52 466.67 115.152C466.302 114.776 465.838 114.588 465.278 114.588C464.726 114.588 464.266 114.772 463.898 115.14C463.538 115.508 463.358 116.076 463.358 116.844C463.358 117.644 463.538 118.232 463.898 118.608C464.266 118.984 464.726 119.172 465.278 119.172ZM472.18 120.12C471.612 120.12 471.1 119.996 470.644 119.748C470.196 119.492 469.84 119.124 469.576 118.644C469.312 118.156 469.18 117.568 469.18 116.88C469.18 116.192 469.312 115.608 469.576 115.128C469.84 114.648 470.196 114.284 470.644 114.036C471.1 113.78 471.612 113.652 472.18 113.652C472.756 113.652 473.272 113.78 473.728 114.036C474.184 114.284 474.544 114.648 474.808 115.128C475.072 115.608 475.204 116.192 475.204 116.88C475.204 117.568 475.072 118.156 474.808 118.644C474.544 119.124 474.184 119.492 473.728 119.748C473.272 119.996 472.756 120.12 472.18 120.12ZM472.18 119.172C472.74 119.172 473.204 118.988 473.572 118.62C473.94 118.244 474.124 117.664 474.124 116.88C474.124 116.096 473.94 115.52 473.572 115.152C473.204 114.776 472.74 114.588 472.18 114.588C471.628 114.588 471.168 114.776 470.8 115.152C470.44 115.52 470.26 116.096 470.26 116.88C470.26 117.664 470.44 118.244 470.8 118.62C471.168 118.988 471.628 119.172 472.18 119.172ZM476.491 113.772H477.415L477.523 114.984C477.723 114.584 477.999 114.264 478.351 114.024C478.711 113.776 479.151 113.652 479.671 113.652C480.159 113.652 480.607 113.772 481.015 114.012C481.431 114.244 481.767 114.6 482.023 115.08C482.279 115.552 482.407 116.152 482.407 116.88C482.407 117.608 482.275 118.212 482.011 118.692C481.755 119.172 481.415 119.532 480.991 119.772C480.575 120.004 480.119 120.12 479.623 120.12C479.151 120.12 478.739 120.008 478.387 119.784C478.035 119.56 477.755 119.252 477.547 118.86V122.124H476.491V113.772ZM481.315 116.88C481.315 116.128 481.143 115.56 480.799 115.176C480.455 114.784 480.011 114.588 479.467 114.588C478.923 114.588 478.463 114.78 478.087 115.164C477.719 115.54 477.535 116.112 477.535 116.88C477.535 117.656 477.719 118.232 478.087 118.608C478.463 118.984 478.923 119.172 479.467 119.172C480.011 119.172 480.455 118.98 480.799 118.596C481.143 118.212 481.315 117.64 481.315 116.88ZM488.909 113.688C489.437 113.688 489.909 113.812 490.325 114.06C490.749 114.308 491.085 114.672 491.333 115.152C491.581 115.624 491.705 116.2 491.705 116.88C491.705 117.568 491.573 118.156 491.309 118.644C491.045 119.124 490.685 119.492 490.229 119.748C489.773 119.996 489.257 120.12 488.681 120.12C488.097 120.12 487.577 119.988 487.121 119.724C486.673 119.452 486.321 119.044 486.065 118.5C485.809 117.956 485.681 117.264 485.681 116.424C485.681 115.512 485.733 114.752 485.837 114.144C485.949 113.536 486.121 113.04 486.353 112.656C486.585 112.264 486.897 111.952 487.289 111.72C487.481 111.608 487.681 111.52 487.889 111.456C488.097 111.392 488.357 111.344 488.669 111.312C488.989 111.272 489.397 111.244 489.893 111.228C490.205 111.204 490.469 111.164 490.685 111.108C490.901 111.052 491.097 110.976 491.273 110.88V111.84C491.121 111.936 490.953 112.012 490.769 112.068C490.585 112.116 490.329 112.156 490.001 112.188C489.529 112.236 489.153 112.268 488.873 112.284C488.601 112.3 488.381 112.324 488.213 112.356C488.045 112.388 487.877 112.452 487.709 112.548C487.365 112.74 487.105 113.028 486.929 113.412C486.753 113.788 486.633 114.348 486.569 115.092C486.985 114.156 487.765 113.688 488.909 113.688ZM488.681 119.172C489.241 119.172 489.705 118.988 490.073 118.62C490.441 118.244 490.625 117.664 490.625 116.88C490.625 116.096 490.441 115.52 490.073 115.152C489.705 114.776 489.241 114.588 488.681 114.588C488.129 114.588 487.669 114.772 487.301 115.14C486.941 115.508 486.761 116.076 486.761 116.844C486.761 117.644 486.941 118.232 487.301 118.608C487.669 118.984 488.129 119.172 488.681 119.172ZM495.138 114.588C494.474 114.588 493.802 114.792 493.122 115.2V114.252C493.418 114.068 493.758 113.924 494.142 113.82C494.534 113.708 494.914 113.652 495.282 113.652C496.066 113.652 496.662 113.816 497.07 114.144C497.478 114.472 497.682 114.972 497.682 115.644V118.992C497.682 119.128 497.686 119.304 497.694 119.52C497.71 119.728 497.726 119.888 497.742 120H496.782C496.758 119.888 496.734 119.732 496.71 119.532C496.694 119.324 496.686 119.144 496.686 118.992L496.674 118.812C496.578 119.004 496.446 119.204 496.278 119.412C496.11 119.612 495.886 119.78 495.606 119.916C495.334 120.052 494.994 120.12 494.586 120.12C494.026 120.12 493.574 119.96 493.23 119.64C492.886 119.32 492.714 118.868 492.714 118.284C492.714 117.604 492.954 117.104 493.434 116.784C493.914 116.464 494.59 116.304 495.462 116.304H496.626V115.788C496.626 115.356 496.514 115.048 496.29 114.864C496.066 114.68 495.682 114.588 495.138 114.588ZM496.626 117.6V117.144H495.57C494.938 117.144 494.478 117.236 494.19 117.42C493.91 117.604 493.77 117.872 493.77 118.224C493.77 118.504 493.854 118.732 494.022 118.908C494.198 119.084 494.462 119.172 494.814 119.172C495.142 119.172 495.422 119.108 495.654 118.98C495.886 118.844 496.074 118.684 496.218 118.5C496.362 118.308 496.466 118.128 496.53 117.96C496.594 117.792 496.626 117.672 496.626 117.6ZM501.155 120.12C500.763 120.12 500.383 120.076 500.015 119.988C499.655 119.9 499.359 119.78 499.127 119.628V118.68C499.383 118.832 499.687 118.952 500.039 119.04C500.391 119.128 500.755 119.172 501.131 119.172C501.587 119.172 501.967 119.1 502.271 118.956C502.583 118.804 502.739 118.548 502.739 118.188C502.739 117.836 502.607 117.588 502.343 117.444C502.087 117.3 501.691 117.228 501.155 117.228H500.327V116.376H501.191C501.631 116.376 501.967 116.296 502.199 116.136C502.431 115.976 502.547 115.744 502.547 115.44C502.547 115.12 502.407 114.9 502.127 114.78C501.855 114.652 501.523 114.588 501.131 114.588C500.427 114.588 499.799 114.756 499.247 115.092V114.144C499.487 113.984 499.779 113.864 500.123 113.784C500.475 113.696 500.839 113.652 501.215 113.652C501.975 113.652 502.547 113.796 502.931 114.084C503.323 114.372 503.519 114.788 503.519 115.332C503.519 115.74 503.407 116.064 503.183 116.304C502.959 116.536 502.651 116.692 502.259 116.772C502.747 116.836 503.119 116.992 503.375 117.24C503.631 117.488 503.759 117.804 503.759 118.188C503.759 118.652 503.635 119.028 503.387 119.316C503.147 119.596 502.831 119.8 502.439 119.928C502.047 120.056 501.619 120.12 501.155 120.12ZM507.863 120.12C507.295 120.12 506.783 119.996 506.327 119.748C505.879 119.492 505.523 119.124 505.259 118.644C504.995 118.156 504.863 117.568 504.863 116.88C504.863 116.192 504.995 115.608 505.259 115.128C505.523 114.648 505.879 114.284 506.327 114.036C506.783 113.78 507.295 113.652 507.863 113.652C508.439 113.652 508.955 113.78 509.411 114.036C509.867 114.284 510.227 114.648 510.491 115.128C510.755 115.608 510.887 116.192 510.887 116.88C510.887 117.568 510.755 118.156 510.491 118.644C510.227 119.124 509.867 119.492 509.411 119.748C508.955 119.996 508.439 120.12 507.863 120.12ZM507.863 119.172C508.423 119.172 508.887 118.988 509.255 118.62C509.623 118.244 509.807 117.664 509.807 116.88C509.807 116.096 509.623 115.52 509.255 115.152C508.887 114.776 508.423 114.588 507.863 114.588C507.311 114.588 506.851 114.776 506.483 115.152C506.123 115.52 505.943 116.096 505.943 116.88C505.943 117.664 506.123 118.244 506.483 118.62C506.851 118.988 507.311 119.172 507.863 119.172ZM514.599 120H512.175V113.772H514.623C515.367 113.772 515.931 113.904 516.315 114.168C516.707 114.424 516.903 114.828 516.903 115.38C516.903 115.74 516.807 116.032 516.615 116.256C516.431 116.48 516.167 116.64 515.823 116.736C516.711 116.88 517.155 117.372 517.155 118.212C517.155 118.636 517.043 118.98 516.819 119.244C516.603 119.508 516.303 119.7 515.919 119.82C515.535 119.94 515.095 120 514.599 120ZM514.611 114.672H513.231V116.364H514.527C514.927 116.364 515.247 116.292 515.487 116.148C515.735 116.004 515.859 115.796 515.859 115.524C515.859 115.196 515.751 114.972 515.535 114.852C515.319 114.732 515.011 114.672 514.611 114.672ZM514.587 117.204H513.231V119.1H514.587C515.035 119.1 515.395 119.036 515.667 118.908C515.939 118.772 516.075 118.528 516.075 118.176C516.075 117.824 515.951 117.576 515.703 117.432C515.455 117.28 515.083 117.204 514.587 117.204ZM519.793 113.772V115.872H520.873C521.665 115.872 522.285 116.032 522.733 116.352C523.181 116.664 523.405 117.176 523.405 117.888C523.405 118.384 523.293 118.788 523.069 119.1C522.845 119.404 522.537 119.632 522.145 119.784C521.753 119.928 521.305 120 520.801 120H518.737V113.772H519.793ZM525.361 113.772V120H524.305V113.772H525.361ZM520.801 119.1C521.249 119.1 521.617 119.012 521.905 118.836C522.193 118.652 522.337 118.356 522.337 117.948C522.337 117.532 522.209 117.232 521.953 117.048C521.697 116.864 521.337 116.772 520.873 116.772H519.793V119.1H520.801ZM526.614 113.772H527.838L529.326 115.968L530.826 113.772H531.918L529.854 116.748L532.026 120H530.802L529.134 117.528L527.454 120H526.35L528.606 116.772L526.614 113.772ZM535.471 120V113.772H540.463V120H539.407V114.672H536.527V120H535.471ZM542.186 113.772H543.11L543.218 114.984C543.418 114.584 543.694 114.264 544.046 114.024C544.406 113.776 544.846 113.652 545.366 113.652C545.854 113.652 546.302 113.772 546.71 114.012C547.126 114.244 547.462 114.6 547.718 115.08C547.974 115.552 548.102 116.152 548.102 116.88C548.102 117.608 547.97 118.212 547.706 118.692C547.45 119.172 547.11 119.532 546.686 119.772C546.27 120.004 545.814 120.12 545.318 120.12C544.846 120.12 544.434 120.008 544.082 119.784C543.73 119.56 543.45 119.252 543.242 118.86V122.124H542.186V113.772ZM547.01 116.88C547.01 116.128 546.838 115.56 546.494 115.176C546.15 114.784 545.706 114.588 545.162 114.588C544.618 114.588 544.158 114.78 543.782 115.164C543.414 115.54 543.23 116.112 543.23 116.88C543.23 117.656 543.414 118.232 543.782 118.608C544.158 118.984 544.618 119.172 545.162 119.172C545.706 119.172 546.15 118.98 546.494 118.596C546.838 118.212 547.01 117.64 547.01 116.88ZM551.435 114.588C550.771 114.588 550.099 114.792 549.419 115.2V114.252C549.715 114.068 550.055 113.924 550.439 113.82C550.831 113.708 551.211 113.652 551.579 113.652C552.363 113.652 552.959 113.816 553.367 114.144C553.775 114.472 553.979 114.972 553.979 115.644V118.992C553.979 119.128 553.983 119.304 553.991 119.52C554.007 119.728 554.023 119.888 554.039 120H553.079C553.055 119.888 553.031 119.732 553.007 119.532C552.991 119.324 552.983 119.144 552.983 118.992L552.971 118.812C552.875 119.004 552.743 119.204 552.575 119.412C552.407 119.612 552.183 119.78 551.903 119.916C551.631 120.052 551.291 120.12 550.883 120.12C550.323 120.12 549.871 119.96 549.527 119.64C549.183 119.32 549.011 118.868 549.011 118.284C549.011 117.604 549.251 117.104 549.731 116.784C550.211 116.464 550.887 116.304 551.759 116.304H552.923V115.788C552.923 115.356 552.811 115.048 552.587 114.864C552.363 114.68 551.979 114.588 551.435 114.588ZM552.923 117.6V117.144H551.867C551.235 117.144 550.775 117.236 550.487 117.42C550.207 117.604 550.067 117.872 550.067 118.224C550.067 118.504 550.151 118.732 550.319 118.908C550.495 119.084 550.759 119.172 551.111 119.172C551.439 119.172 551.719 119.108 551.951 118.98C552.183 118.844 552.371 118.684 552.515 118.5C552.659 118.308 552.763 118.128 552.827 117.96C552.891 117.792 552.923 117.672 552.923 117.6ZM558.063 120H555.639V113.772H558.087C558.831 113.772 559.395 113.904 559.779 114.168C560.171 114.424 560.367 114.828 560.367 115.38C560.367 115.74 560.271 116.032 560.079 116.256C559.895 116.48 559.631 116.64 559.287 116.736C560.175 116.88 560.619 117.372 560.619 118.212C560.619 118.636 560.507 118.98 560.283 119.244C560.067 119.508 559.767 119.7 559.383 119.82C558.999 119.94 558.559 120 558.063 120ZM558.075 114.672H556.695V116.364H557.991C558.391 116.364 558.711 116.292 558.951 116.148C559.199 116.004 559.323 115.796 559.323 115.524C559.323 115.196 559.215 114.972 558.999 114.852C558.783 114.732 558.475 114.672 558.075 114.672ZM558.051 117.204H556.695V119.1H558.051C558.499 119.1 558.859 119.036 559.131 118.908C559.403 118.772 559.539 118.528 559.539 118.176C559.539 117.824 559.415 117.576 559.167 117.432C558.919 117.28 558.547 117.204 558.051 117.204ZM563.258 113.772V118.536L566.462 113.772H567.53V120H566.474V115.248L563.282 120H562.202V113.772H563.258ZM568.753 118.968C569.233 119.04 569.561 118.74 569.737 118.068C569.801 117.828 569.853 117.528 569.893 117.168C569.933 116.8 569.961 116.344 569.977 115.8C569.993 115.248 570.001 114.572 570.001 113.772H574.309V120H573.241V114.672H570.997C570.989 115.624 570.961 116.388 570.913 116.964C570.873 117.532 570.805 118.008 570.709 118.392C570.557 118.992 570.325 119.42 570.013 119.676C569.701 119.932 569.281 120.044 568.753 120.012V118.968Z" fill="black"/>
<rect x="426" y="159" width="170" height="46" rx="10" fill="#D6E1FF"/>
<path d="M451.375 177.396H457.843V186H456.703V178.428H452.503V186H451.375V177.396ZM459.704 179.772H460.628L460.736 180.984C460.936 180.584 461.212 180.264 461.564 180.024C461.924 179.776 462.364 179.652 462.884 179.652C463.372 179.652 463.82 179.772 464.228 180.012C464.644 180.244 464.98 180.6 465.236 181.08C465.492 181.552 465.62 182.152 465.62 182.88C465.62 183.608 465.488 184.212 465.224 184.692C464.968 185.172 464.628 185.532 464.204 185.772C463.788 186.004 463.332 186.12 462.836 186.12C462.364 186.12 461.952 186.008 461.6 185.784C461.248 185.56 460.968 185.252 460.76 184.86V188.124H459.704V179.772ZM464.528 182.88C464.528 182.128 464.356 181.56 464.012 181.176C463.668 180.784 463.224 180.588 462.68 180.588C462.136 180.588 461.676 180.78 461.3 181.164C460.932 181.54 460.748 182.112 460.748 182.88C460.748 183.656 460.932 184.232 461.3 184.608C461.676 184.984 462.136 185.172 462.68 185.172C463.224 185.172 463.668 184.98 464.012 184.596C464.356 184.212 464.528 183.64 464.528 182.88ZM468.953 180.588C468.289 180.588 467.617 180.792 466.937 181.2V180.252C467.233 180.068 467.573 179.924 467.957 179.82C468.349 179.708 468.729 179.652 469.097 179.652C469.881 179.652 470.477 179.816 470.885 180.144C471.293 180.472 471.497 180.972 471.497 181.644V184.992C471.497 185.128 471.501 185.304 471.509 185.52C471.525 185.728 471.541 185.888 471.557 186H470.597C470.573 185.888 470.549 185.732 470.525 185.532C470.509 185.324 470.501 185.144 470.501 184.992L470.489 184.812C470.393 185.004 470.261 185.204 470.093 185.412C469.925 185.612 469.701 185.78 469.421 185.916C469.149 186.052 468.809 186.12 468.401 186.12C467.841 186.12 467.389 185.96 467.045 185.64C466.701 185.32 466.529 184.868 466.529 184.284C466.529 183.604 466.769 183.104 467.249 182.784C467.729 182.464 468.405 182.304 469.277 182.304H470.441V181.788C470.441 181.356 470.329 181.048 470.105 180.864C469.881 180.68 469.497 180.588 468.953 180.588ZM470.441 183.6V183.144H469.385C468.753 183.144 468.293 183.236 468.005 183.42C467.725 183.604 467.585 183.872 467.585 184.224C467.585 184.504 467.669 184.732 467.837 184.908C468.013 185.084 468.277 185.172 468.629 185.172C468.957 185.172 469.237 185.108 469.469 184.98C469.701 184.844 469.889 184.684 470.033 184.5C470.177 184.308 470.281 184.128 470.345 183.96C470.409 183.792 470.441 183.672 470.441 183.6ZM475.581 186H473.157V179.772H475.605C476.349 179.772 476.913 179.904 477.297 180.168C477.689 180.424 477.885 180.828 477.885 181.38C477.885 181.74 477.789 182.032 477.597 182.256C477.413 182.48 477.149 182.64 476.805 182.736C477.693 182.88 478.137 183.372 478.137 184.212C478.137 184.636 478.025 184.98 477.801 185.244C477.585 185.508 477.285 185.7 476.901 185.82C476.517 185.94 476.077 186 475.581 186ZM475.593 180.672H474.213V182.364H475.509C475.909 182.364 476.229 182.292 476.469 182.148C476.717 182.004 476.841 181.796 476.841 181.524C476.841 181.196 476.733 180.972 476.517 180.852C476.301 180.732 475.993 180.672 475.593 180.672ZM475.569 183.204H474.213V185.1H475.569C476.017 185.1 476.377 185.036 476.649 184.908C476.921 184.772 477.057 184.528 477.057 184.176C477.057 183.824 476.933 183.576 476.685 183.432C476.437 183.28 476.065 183.204 475.569 183.204ZM480.775 179.772V184.536L483.979 179.772H485.047V186H483.991V181.248L480.799 186H479.719V179.772H480.775ZM486.27 184.968C486.75 185.04 487.078 184.74 487.254 184.068C487.318 183.828 487.37 183.528 487.41 183.168C487.45 182.8 487.478 182.344 487.494 181.8C487.51 181.248 487.518 180.572 487.518 179.772H491.826V186H490.758V180.672H488.514C488.506 181.624 488.478 182.388 488.43 182.964C488.39 183.532 488.322 184.008 488.226 184.392C488.074 184.992 487.842 185.42 487.53 185.676C487.218 185.932 486.798 186.044 486.27 186.012V184.968ZM495.66 180.588C494.996 180.588 494.324 180.792 493.644 181.2V180.252C493.94 180.068 494.28 179.924 494.664 179.82C495.056 179.708 495.436 179.652 495.804 179.652C496.588 179.652 497.184 179.816 497.592 180.144C498 180.472 498.204 180.972 498.204 181.644V184.992C498.204 185.128 498.208 185.304 498.216 185.52C498.232 185.728 498.248 185.888 498.264 186H497.304C497.28 185.888 497.256 185.732 497.232 185.532C497.216 185.324 497.208 185.144 497.208 184.992L497.196 184.812C497.1 185.004 496.968 185.204 496.8 185.412C496.632 185.612 496.408 185.78 496.128 185.916C495.856 186.052 495.516 186.12 495.108 186.12C494.548 186.12 494.096 185.96 493.752 185.64C493.408 185.32 493.236 184.868 493.236 184.284C493.236 183.604 493.476 183.104 493.956 182.784C494.436 182.464 495.112 182.304 495.984 182.304H497.148V181.788C497.148 181.356 497.036 181.048 496.812 180.864C496.588 180.68 496.204 180.588 495.66 180.588ZM497.148 183.6V183.144H496.092C495.46 183.144 495 183.236 494.712 183.42C494.432 183.604 494.292 183.872 494.292 184.224C494.292 184.504 494.376 184.732 494.544 184.908C494.72 185.084 494.984 185.172 495.336 185.172C495.664 185.172 495.944 185.108 496.176 184.98C496.408 184.844 496.596 184.684 496.74 184.5C496.884 184.308 496.988 184.128 497.052 183.96C497.116 183.792 497.148 183.672 497.148 183.6ZM499.72 182.82V181.86H502.6V182.82H499.72ZM505.244 179.772V184.536L508.448 179.772H509.516V186H508.46V181.248L505.268 186H504.188V179.772H505.244ZM513.931 186.12C512.963 186.12 512.199 185.836 511.639 185.268C511.079 184.692 510.799 183.896 510.799 182.88C510.799 181.864 511.083 181.072 511.651 180.504C512.219 179.936 512.995 179.652 513.979 179.652C514.355 179.652 514.707 179.696 515.035 179.784C515.363 179.864 515.627 179.984 515.827 180.144V181.092C515.283 180.756 514.671 180.588 513.991 180.588C513.271 180.588 512.739 180.78 512.395 181.164C512.051 181.54 511.879 182.112 511.879 182.88C511.879 183.648 512.043 184.224 512.371 184.608C512.707 184.984 513.227 185.172 513.931 185.172C514.611 185.172 515.243 185.008 515.827 184.68V185.628C515.307 185.956 514.675 186.12 513.931 186.12ZM522.331 186H521.047L518.851 183.348H518.299V186H517.243V179.772H518.299V182.448H518.899L521.083 179.772H522.283L519.727 182.844L522.331 186ZM522.938 184.968C523.418 185.04 523.746 184.74 523.922 184.068C523.986 183.828 524.038 183.528 524.078 183.168C524.118 182.8 524.146 182.344 524.162 181.8C524.178 181.248 524.186 180.572 524.186 179.772H528.494V186H527.426V180.672H525.182C525.174 181.624 525.146 182.388 525.098 182.964C525.058 183.532 524.99 184.008 524.894 184.392C524.742 184.992 524.51 185.42 524.198 185.676C523.886 185.932 523.466 186.044 522.938 186.012V184.968ZM535.232 186.12C534.72 186.12 534.256 186.008 533.84 185.784C533.424 185.56 533.084 185.236 532.82 184.812C532.564 184.38 532.412 183.856 532.364 183.24H531.272V186H530.216V179.772H531.272V182.34H532.388C532.452 181.764 532.612 181.276 532.868 180.876C533.132 180.476 533.468 180.172 533.876 179.964C534.284 179.756 534.736 179.652 535.232 179.652C535.784 179.652 536.28 179.78 536.72 180.036C537.16 180.284 537.504 180.648 537.752 181.128C538.008 181.608 538.136 182.192 538.136 182.88C538.136 183.568 538.008 184.156 537.752 184.644C537.504 185.124 537.16 185.492 536.72 185.748C536.28 185.996 535.784 186.12 535.232 186.12ZM535.232 185.172C535.752 185.172 536.184 184.988 536.528 184.62C536.872 184.244 537.044 183.664 537.044 182.88C537.044 182.096 536.872 181.52 536.528 181.152C536.184 180.776 535.752 180.588 535.232 180.588C534.72 180.588 534.292 180.776 533.948 181.152C533.604 181.52 533.432 182.096 533.432 182.88C533.432 183.664 533.604 184.244 533.948 184.62C534.292 184.988 534.72 185.172 535.232 185.172ZM541.471 182.916C541.743 182.916 542.011 182.876 542.275 182.796C542.547 182.716 542.791 182.592 543.007 182.424V179.772H544.063V186H543.007V183.264C542.559 183.616 541.987 183.792 541.291 183.792C540.587 183.792 540.047 183.616 539.671 183.264C539.303 182.912 539.119 182.356 539.119 181.596V179.772H540.187V181.608C540.187 182.096 540.299 182.436 540.523 182.628C540.747 182.82 541.063 182.916 541.471 182.916ZM548.55 186.12C547.51 186.12 546.714 185.836 546.162 185.268C545.618 184.692 545.346 183.896 545.346 182.88C545.346 182.2 545.474 181.62 545.73 181.14C545.986 180.66 546.338 180.292 546.786 180.036C547.234 179.78 547.738 179.652 548.298 179.652C549.25 179.652 549.95 179.968 550.398 180.6C550.846 181.224 550.99 182.08 550.83 183.168H546.438C546.526 184.504 547.262 185.172 548.646 185.172C549.406 185.172 550.106 184.956 550.746 184.524V185.472C550.458 185.672 550.122 185.832 549.738 185.952C549.354 186.064 548.958 186.12 548.55 186.12ZM548.274 180.588C547.818 180.588 547.426 180.728 547.098 181.008C546.77 181.288 546.562 181.712 546.474 182.28H549.822C549.846 181.744 549.722 181.328 549.45 181.032C549.178 180.736 548.786 180.588 548.274 180.588ZM553.303 179.772V182.34H556.315V179.772H557.371V186H556.315V183.24H553.303V186H552.247V179.772H553.303ZM560.158 179.772V184.536L563.362 179.772H564.43V186H563.374V181.248L560.182 186H559.102V179.772H560.158ZM565.713 186L567.513 183.48C567.089 183.36 566.757 183.164 566.517 182.892C566.277 182.62 566.157 182.252 566.157 181.788C566.157 181.316 566.269 180.932 566.493 180.636C566.717 180.34 567.025 180.124 567.417 179.988C567.809 179.844 568.257 179.772 568.761 179.772H570.765V186H569.709V183.744H568.569L566.973 186H565.713ZM568.761 180.672C568.313 180.672 567.945 180.756 567.657 180.924C567.369 181.092 567.225 181.364 567.225 181.74C567.225 182.132 567.353 182.416 567.609 182.592C567.873 182.76 568.237 182.844 568.701 182.844H569.709V180.672H568.761Z" fill="black"/>
<rect x="411" y="240" width="200" height="111" rx="5" fill="white" stroke="#5282FF" stroke-width="2"/>
<path d="M473.205 260.396H479.973V269H478.509V261.656H474.657V269H473.205V260.396ZM481.663 262.772H482.935L483.031 263.888C483.231 263.512 483.503 263.212 483.847 262.988C484.199 262.764 484.623 262.652 485.119 262.652C485.607 262.652 486.059 262.772 486.475 263.012C486.891 263.244 487.223 263.6 487.471 264.08C487.727 264.552 487.855 265.152 487.855 265.88C487.855 266.608 487.727 267.212 487.471 267.692C487.223 268.172 486.887 268.532 486.463 268.772C486.047 269.004 485.591 269.12 485.095 269.12C484.623 269.12 484.215 269.016 483.871 268.808C483.535 268.592 483.263 268.304 483.055 267.944V271.124H481.663V262.772ZM486.427 265.88C486.427 265.192 486.271 264.676 485.959 264.332C485.655 263.98 485.259 263.804 484.771 263.804C484.283 263.804 483.871 263.976 483.535 264.32C483.207 264.664 483.043 265.184 483.043 265.88C483.043 266.584 483.207 267.108 483.535 267.452C483.871 267.788 484.279 267.956 484.759 267.956C485.247 267.956 485.647 267.784 485.959 267.44C486.271 267.096 486.427 266.576 486.427 265.88ZM491.722 269.12C491.138 269.12 490.61 268.996 490.138 268.748C489.674 268.492 489.306 268.124 489.034 267.644C488.77 267.164 488.638 266.576 488.638 265.88C488.638 265.192 488.77 264.608 489.034 264.128C489.306 263.648 489.674 263.284 490.138 263.036C490.61 262.78 491.138 262.652 491.722 262.652C492.306 262.652 492.83 262.78 493.294 263.036C493.766 263.284 494.138 263.648 494.41 264.128C494.682 264.608 494.818 265.192 494.818 265.88C494.818 266.576 494.682 267.164 494.41 267.644C494.138 268.124 493.766 268.492 493.294 268.748C492.83 268.996 492.306 269.12 491.722 269.12ZM491.722 267.956C492.202 267.956 492.598 267.788 492.91 267.452C493.23 267.116 493.39 266.592 493.39 265.88C493.39 265.176 493.23 264.656 492.91 264.32C492.598 263.976 492.202 263.804 491.722 263.804C491.242 263.804 490.842 263.976 490.522 264.32C490.21 264.656 490.054 265.176 490.054 265.88C490.054 266.592 490.21 267.116 490.522 267.452C490.842 267.788 491.242 267.956 491.722 267.956ZM500.339 260.276V262.676C500.979 262.716 501.551 262.864 502.055 263.12C502.559 263.368 502.955 263.724 503.243 264.188C503.539 264.652 503.687 265.216 503.687 265.88C503.687 266.552 503.539 267.12 503.243 267.584C502.947 268.048 502.547 268.408 502.043 268.664C501.539 268.912 500.971 269.056 500.339 269.096V271.124H498.959V269.084C498.319 269.052 497.747 268.912 497.243 268.664C496.739 268.408 496.339 268.048 496.043 267.584C495.755 267.12 495.611 266.552 495.611 265.88C495.611 265.208 495.755 264.64 496.043 264.176C496.339 263.712 496.739 263.356 497.243 263.108C497.755 262.852 498.327 262.712 498.959 262.688V260.276H500.339ZM502.271 265.88C502.271 265.216 502.091 264.712 501.731 264.368C501.371 264.024 500.907 263.828 500.339 263.78V267.98C500.915 267.94 501.379 267.748 501.731 267.404C502.091 267.052 502.271 266.544 502.271 265.88ZM497.027 265.88C497.027 266.552 497.207 267.06 497.567 267.404C497.927 267.748 498.391 267.94 498.959 267.98V263.78C498.391 263.828 497.927 264.024 497.567 264.368C497.207 264.712 497.027 265.216 497.027 265.88ZM506.246 262.772V267.08L509.066 262.772H510.434V269H509.042V264.704L506.258 269H504.866V262.772H506.246ZM511.511 267.716C511.775 267.764 511.987 267.716 512.147 267.572C512.315 267.42 512.443 267.16 512.531 266.792C512.579 266.568 512.619 266.288 512.651 265.952C512.683 265.616 512.707 265.192 512.723 264.68C512.739 264.168 512.747 263.532 512.747 262.772H517.295V269H515.903V263.9H514.019C514.003 264.708 513.975 265.372 513.935 265.892C513.895 266.412 513.835 266.856 513.755 267.224C513.595 267.92 513.335 268.412 512.975 268.7C512.623 268.98 512.135 269.084 511.511 269.012V267.716ZM520.238 262.772V264.752H521.318C522.126 264.752 522.758 264.924 523.214 265.268C523.67 265.604 523.898 266.124 523.898 266.828C523.898 267.316 523.786 267.724 523.562 268.052C523.338 268.372 523.026 268.612 522.626 268.772C522.234 268.924 521.782 269 521.27 269H518.846V262.772H520.238ZM521.174 267.908C521.558 267.908 521.87 267.828 522.11 267.668C522.35 267.508 522.47 267.248 522.47 266.888C522.47 266.528 522.362 266.268 522.146 266.108C521.93 265.94 521.618 265.856 521.21 265.856H520.238V267.908H521.174ZM534.829 269H533.329L532.537 266.744H528.913L528.121 269H526.837L529.873 260.396H531.781L534.829 269ZM529.357 265.496H532.093L530.725 261.62L529.357 265.496ZM535.947 260.396H538.911C539.983 260.396 540.795 260.604 541.347 261.02C541.907 261.428 542.187 262.076 542.187 262.964C542.187 263.684 542.023 264.24 541.695 264.632C541.367 265.016 540.919 265.284 540.351 265.436L542.571 269H540.903L538.803 265.604H537.399V269H535.947V260.396ZM538.851 264.392C539.427 264.392 539.879 264.288 540.207 264.08C540.543 263.872 540.711 263.496 540.711 262.952C540.711 262.48 540.555 262.148 540.243 261.956C539.939 261.756 539.495 261.656 538.911 261.656H537.399V264.392H538.851ZM543.858 260.396H545.31V267.752H549.246V269H543.858V260.396Z" fill="black" fill-opacity="0.85"/>
<rect x="426" y="290" width="170" height="46" rx="10" fill="#D6E1FF"/>
<path d="M474.994 308.396H481.462V317H480.322V309.428H476.122V317H474.994V308.396ZM483.323 310.772H484.247L484.355 311.984C484.555 311.584 484.831 311.264 485.183 311.024C485.543 310.776 485.983 310.652 486.503 310.652C486.991 310.652 487.439 310.772 487.847 311.012C488.263 311.244 488.599 311.6 488.855 312.08C489.111 312.552 489.239 313.152 489.239 313.88C489.239 314.608 489.107 315.212 488.843 315.692C488.587 316.172 488.247 316.532 487.823 316.772C487.407 317.004 486.951 317.12 486.455 317.12C485.983 317.12 485.571 317.008 485.219 316.784C484.867 316.56 484.587 316.252 484.379 315.86V319.124H483.323V310.772ZM488.147 313.88C488.147 313.128 487.975 312.56 487.631 312.176C487.287 311.784 486.843 311.588 486.299 311.588C485.755 311.588 485.295 311.78 484.919 312.164C484.551 312.54 484.367 313.112 484.367 313.88C484.367 314.656 484.551 315.232 484.919 315.608C485.295 315.984 485.755 316.172 486.299 316.172C486.843 316.172 487.287 315.98 487.631 315.596C487.975 315.212 488.147 314.64 488.147 313.88ZM492.572 311.588C491.908 311.588 491.236 311.792 490.556 312.2V311.252C490.852 311.068 491.192 310.924 491.576 310.82C491.968 310.708 492.348 310.652 492.716 310.652C493.5 310.652 494.096 310.816 494.504 311.144C494.912 311.472 495.116 311.972 495.116 312.644V315.992C495.116 316.128 495.12 316.304 495.128 316.52C495.144 316.728 495.16 316.888 495.176 317H494.216C494.192 316.888 494.168 316.732 494.144 316.532C494.128 316.324 494.12 316.144 494.12 315.992L494.108 315.812C494.012 316.004 493.88 316.204 493.712 316.412C493.544 316.612 493.32 316.78 493.04 316.916C492.768 317.052 492.428 317.12 492.02 317.12C491.46 317.12 491.008 316.96 490.664 316.64C490.32 316.32 490.148 315.868 490.148 315.284C490.148 314.604 490.388 314.104 490.868 313.784C491.348 313.464 492.024 313.304 492.896 313.304H494.06V312.788C494.06 312.356 493.948 312.048 493.724 311.864C493.5 311.68 493.116 311.588 492.572 311.588ZM494.06 314.6V314.144H493.004C492.372 314.144 491.912 314.236 491.624 314.42C491.344 314.604 491.204 314.872 491.204 315.224C491.204 315.504 491.288 315.732 491.456 315.908C491.632 316.084 491.896 316.172 492.248 316.172C492.576 316.172 492.856 316.108 493.088 315.98C493.32 315.844 493.508 315.684 493.652 315.5C493.796 315.308 493.9 315.128 493.964 314.96C494.028 314.792 494.06 314.672 494.06 314.6ZM499.2 317H496.776V310.772H499.224C499.968 310.772 500.532 310.904 500.916 311.168C501.308 311.424 501.504 311.828 501.504 312.38C501.504 312.74 501.408 313.032 501.216 313.256C501.032 313.48 500.768 313.64 500.424 313.736C501.312 313.88 501.756 314.372 501.756 315.212C501.756 315.636 501.644 315.98 501.42 316.244C501.204 316.508 500.904 316.7 500.52 316.82C500.136 316.94 499.696 317 499.2 317ZM499.212 311.672H497.832V313.364H499.128C499.528 313.364 499.848 313.292 500.088 313.148C500.336 313.004 500.46 312.796 500.46 312.524C500.46 312.196 500.352 311.972 500.136 311.852C499.92 311.732 499.612 311.672 499.212 311.672ZM499.188 314.204H497.832V316.1H499.188C499.636 316.1 499.996 316.036 500.268 315.908C500.54 315.772 500.676 315.528 500.676 315.176C500.676 314.824 500.552 314.576 500.304 314.432C500.056 314.28 499.684 314.204 499.188 314.204ZM504.395 310.772V315.536L507.599 310.772H508.667V317H507.611V312.248L504.419 317H503.339V310.772H504.395ZM509.889 315.968C510.369 316.04 510.697 315.74 510.873 315.068C510.937 314.828 510.989 314.528 511.029 314.168C511.069 313.8 511.097 313.344 511.113 312.8C511.129 312.248 511.137 311.572 511.137 310.772H515.445V317H514.377V311.672H512.133C512.125 312.624 512.097 313.388 512.049 313.964C512.009 314.532 511.941 315.008 511.845 315.392C511.693 315.992 511.461 316.42 511.149 316.676C510.837 316.932 510.417 317.044 509.889 317.012V315.968ZM519.279 311.588C518.615 311.588 517.943 311.792 517.263 312.2V311.252C517.559 311.068 517.899 310.924 518.283 310.82C518.675 310.708 519.055 310.652 519.423 310.652C520.207 310.652 520.803 310.816 521.211 311.144C521.619 311.472 521.823 311.972 521.823 312.644V315.992C521.823 316.128 521.827 316.304 521.835 316.52C521.851 316.728 521.867 316.888 521.883 317H520.923C520.899 316.888 520.875 316.732 520.851 316.532C520.835 316.324 520.827 316.144 520.827 315.992L520.815 315.812C520.719 316.004 520.587 316.204 520.419 316.412C520.251 316.612 520.027 316.78 519.747 316.916C519.475 317.052 519.135 317.12 518.727 317.12C518.167 317.12 517.715 316.96 517.371 316.64C517.027 316.32 516.855 315.868 516.855 315.284C516.855 314.604 517.095 314.104 517.575 313.784C518.055 313.464 518.731 313.304 519.603 313.304H520.767V312.788C520.767 312.356 520.655 312.048 520.431 311.864C520.207 311.68 519.823 311.588 519.279 311.588ZM520.767 314.6V314.144H519.711C519.079 314.144 518.619 314.236 518.331 314.42C518.051 314.604 517.911 314.872 517.911 315.224C517.911 315.504 517.995 315.732 518.163 315.908C518.339 316.084 518.603 316.172 518.955 316.172C519.283 316.172 519.563 316.108 519.795 315.98C520.027 315.844 520.215 315.684 520.359 315.5C520.503 315.308 520.607 315.128 520.671 314.96C520.735 314.792 520.767 314.672 520.767 314.6ZM533.085 317H531.885L530.997 314.54H527.193L526.317 317H525.261L528.321 308.396H530.001L533.085 317ZM527.565 313.52H530.637L529.101 309.236L527.565 313.52ZM534.338 308.396H537.218C538.226 308.396 538.998 308.596 539.534 308.996C540.07 309.388 540.338 310.008 540.338 310.856C540.338 311.608 540.158 312.184 539.798 312.584C539.438 312.976 538.958 313.24 538.358 313.376L540.698 317H539.426L537.182 313.508H537.11H535.466V317H534.338V308.396ZM537.11 312.488C537.726 312.488 538.222 312.368 538.598 312.128C538.974 311.888 539.162 311.456 539.162 310.832C539.162 310.32 538.99 309.96 538.646 309.752C538.31 309.536 537.834 309.428 537.218 309.428H535.466V312.488H537.11ZM542.154 308.396H543.282V315.98H547.47V317H542.154V308.396Z" fill="black"/>
<rect x="426" y="371" width="170" height="46" rx="10" fill="#D6E1FF"/>
<path d="M475.619 398.12C475.011 398.12 474.447 398.044 473.927 397.892C473.415 397.732 473.023 397.524 472.751 397.268V396.188C472.951 396.364 473.207 396.52 473.519 396.656C473.839 396.792 474.183 396.9 474.551 396.98C474.919 397.06 475.275 397.1 475.619 397.1C476.267 397.1 476.767 396.976 477.119 396.728C477.479 396.48 477.659 396.128 477.659 395.672C477.659 395.4 477.603 395.18 477.491 395.012C477.387 394.836 477.187 394.684 476.891 394.556C476.603 394.428 476.183 394.296 475.631 394.16C474.911 393.976 474.347 393.772 473.939 393.548C473.531 393.324 473.243 393.06 473.075 392.756C472.907 392.444 472.823 392.076 472.823 391.652C472.823 390.884 473.095 390.3 473.639 389.9C474.183 389.492 474.967 389.288 475.991 389.288C476.439 389.288 476.851 389.332 477.227 389.42C477.603 389.508 477.975 389.644 478.343 389.828V390.908C477.743 390.508 476.959 390.308 475.991 390.308C474.623 390.308 473.939 390.74 473.939 391.604C473.939 391.98 474.079 392.276 474.359 392.492C474.647 392.708 475.155 392.9 475.883 393.068C476.635 393.236 477.223 393.432 477.647 393.656C478.071 393.88 478.371 394.152 478.547 394.472C478.731 394.784 478.823 395.168 478.823 395.624C478.823 396.4 478.539 397.012 477.971 397.46C477.403 397.9 476.619 398.12 475.619 398.12ZM484.042 393.644C484.042 393.244 483.942 392.968 483.742 392.816C483.542 392.664 483.27 392.588 482.926 392.588C482.478 392.588 482.122 392.7 481.858 392.924C481.594 393.14 481.362 393.424 481.162 393.776V398H480.106V391.772H481.03L481.138 392.888H481.162C481.33 392.536 481.582 392.244 481.918 392.012C482.262 391.772 482.702 391.652 483.238 391.652C483.71 391.652 484.102 391.768 484.414 392C484.726 392.224 484.934 392.564 485.038 393.02C485.214 392.596 485.482 392.264 485.842 392.024C486.21 391.776 486.654 391.652 487.174 391.652C487.742 391.652 488.194 391.816 488.53 392.144C488.874 392.472 489.046 392.968 489.046 393.632V398H487.978V393.764C487.978 393.356 487.878 393.06 487.678 392.876C487.478 392.684 487.206 392.588 486.862 392.588C486.406 392.588 486.046 392.72 485.782 392.984C485.518 393.24 485.29 393.544 485.098 393.896V398H484.042V393.644ZM492.812 392.588C492.148 392.588 491.476 392.792 490.796 393.2V392.252C491.092 392.068 491.432 391.924 491.816 391.82C492.208 391.708 492.588 391.652 492.956 391.652C493.74 391.652 494.336 391.816 494.744 392.144C495.152 392.472 495.356 392.972 495.356 393.644V396.992C495.356 397.128 495.36 397.304 495.368 397.52C495.384 397.728 495.4 397.888 495.416 398H494.456C494.432 397.888 494.408 397.732 494.384 397.532C494.368 397.324 494.36 397.144 494.36 396.992L494.348 396.812C494.252 397.004 494.12 397.204 493.952 397.412C493.784 397.612 493.56 397.78 493.28 397.916C493.008 398.052 492.668 398.12 492.26 398.12C491.7 398.12 491.248 397.96 490.904 397.64C490.56 397.32 490.388 396.868 490.388 396.284C490.388 395.604 490.628 395.104 491.108 394.784C491.588 394.464 492.264 394.304 493.136 394.304H494.3V393.788C494.3 393.356 494.188 393.048 493.964 392.864C493.74 392.68 493.356 392.588 492.812 392.588ZM494.3 395.6V395.144H493.244C492.612 395.144 492.152 395.236 491.864 395.42C491.584 395.604 491.444 395.872 491.444 396.224C491.444 396.504 491.528 396.732 491.696 396.908C491.872 397.084 492.136 397.172 492.488 397.172C492.816 397.172 493.096 397.108 493.328 396.98C493.56 396.844 493.748 396.684 493.892 396.5C494.036 396.308 494.14 396.128 494.204 395.96C494.268 395.792 494.3 395.672 494.3 395.6ZM500.1 392.828C499.604 392.868 499.18 392.992 498.828 393.2C498.484 393.408 498.232 393.688 498.072 394.04V398H497.016V391.772H497.94L498.048 393.128H498.072C498.272 392.712 498.544 392.376 498.888 392.12C499.24 391.864 499.644 391.708 500.1 391.652V392.828ZM500.942 392.672V391.772H501.686V390.464H502.742V391.772H504.554V392.672H502.742V396.416C502.742 396.68 502.81 396.872 502.946 396.992C503.082 397.112 503.314 397.172 503.642 397.172C503.954 397.172 504.238 397.084 504.494 396.908V397.868C504.366 397.948 504.198 398.008 503.99 398.048C503.782 398.096 503.574 398.12 503.366 398.12C502.966 398.12 502.642 398.044 502.394 397.892C502.146 397.74 501.966 397.544 501.854 397.304C501.742 397.064 501.686 396.812 501.686 396.548V392.672H500.942ZM509.775 398.12C508.927 398.12 508.183 397.944 507.543 397.592C506.911 397.24 506.419 396.736 506.067 396.08C505.715 395.416 505.539 394.624 505.539 393.704C505.539 392.32 505.903 391.24 506.631 390.464C507.359 389.68 508.399 389.288 509.751 389.288C510.255 389.288 510.735 389.344 511.191 389.456C511.655 389.56 512.047 389.712 512.367 389.912V390.992C512.023 390.776 511.619 390.608 511.155 390.488C510.699 390.368 510.227 390.308 509.739 390.308C508.731 390.308 507.983 390.592 507.495 391.16C507.007 391.728 506.763 392.576 506.763 393.704C506.763 394.84 507.027 395.692 507.555 396.26C508.083 396.82 508.855 397.1 509.871 397.1C510.831 397.1 511.663 396.836 512.367 396.308V397.388C512.087 397.612 511.715 397.792 511.251 397.928C510.787 398.056 510.295 398.12 509.775 398.12ZM515.945 392.588C515.281 392.588 514.609 392.792 513.929 393.2V392.252C514.225 392.068 514.565 391.924 514.949 391.82C515.341 391.708 515.721 391.652 516.089 391.652C516.873 391.652 517.469 391.816 517.877 392.144C518.285 392.472 518.489 392.972 518.489 393.644V396.992C518.489 397.128 518.493 397.304 518.501 397.52C518.517 397.728 518.533 397.888 518.549 398H517.589C517.565 397.888 517.541 397.732 517.517 397.532C517.501 397.324 517.493 397.144 517.493 396.992L517.481 396.812C517.385 397.004 517.253 397.204 517.085 397.412C516.917 397.612 516.693 397.78 516.413 397.916C516.141 398.052 515.801 398.12 515.393 398.12C514.833 398.12 514.381 397.96 514.037 397.64C513.693 397.32 513.521 396.868 513.521 396.284C513.521 395.604 513.761 395.104 514.241 394.784C514.721 394.464 515.397 394.304 516.269 394.304H517.433V393.788C517.433 393.356 517.321 393.048 517.097 392.864C516.873 392.68 516.489 392.588 515.945 392.588ZM517.433 395.6V395.144H516.377C515.745 395.144 515.285 395.236 514.997 395.42C514.717 395.604 514.577 395.872 514.577 396.224C514.577 396.504 514.661 396.732 514.829 396.908C515.005 397.084 515.269 397.172 515.621 397.172C515.949 397.172 516.229 397.108 516.461 396.98C516.693 396.844 516.881 396.684 517.025 396.5C517.169 396.308 517.273 396.128 517.337 395.96C517.401 395.792 517.433 395.672 517.433 395.6ZM520.149 391.772H521.073L521.181 392.984C521.381 392.584 521.657 392.264 522.009 392.024C522.369 391.776 522.809 391.652 523.329 391.652C523.817 391.652 524.265 391.772 524.673 392.012C525.089 392.244 525.425 392.6 525.681 393.08C525.937 393.552 526.065 394.152 526.065 394.88C526.065 395.608 525.933 396.212 525.669 396.692C525.413 397.172 525.073 397.532 524.649 397.772C524.233 398.004 523.777 398.12 523.281 398.12C522.809 398.12 522.397 398.008 522.045 397.784C521.693 397.56 521.413 397.252 521.205 396.86V400.124H520.149V391.772ZM524.973 394.88C524.973 394.128 524.801 393.56 524.457 393.176C524.113 392.784 523.669 392.588 523.125 392.588C522.581 392.588 522.121 392.78 521.745 393.164C521.377 393.54 521.193 394.112 521.193 394.88C521.193 395.656 521.377 396.232 521.745 396.608C522.121 396.984 522.581 397.172 523.125 397.172C523.669 397.172 524.113 396.98 524.457 396.596C524.801 396.212 524.973 395.64 524.973 394.88ZM526.782 392.672V391.772H527.526V390.464H528.582V391.772H530.394V392.672H528.582V396.416C528.582 396.68 528.65 396.872 528.786 396.992C528.922 397.112 529.154 397.172 529.482 397.172C529.794 397.172 530.078 397.084 530.334 396.908V397.868C530.206 397.948 530.038 398.008 529.83 398.048C529.622 398.096 529.414 398.12 529.206 398.12C528.806 398.12 528.482 398.044 528.234 397.892C527.986 397.74 527.806 397.544 527.694 397.304C527.582 397.064 527.526 396.812 527.526 396.548V392.672H526.782ZM534.251 398.12C533.283 398.12 532.519 397.836 531.959 397.268C531.399 396.692 531.119 395.896 531.119 394.88C531.119 393.864 531.403 393.072 531.971 392.504C532.539 391.936 533.315 391.652 534.299 391.652C534.675 391.652 535.027 391.696 535.355 391.784C535.683 391.864 535.947 391.984 536.147 392.144V393.092C535.603 392.756 534.991 392.588 534.311 392.588C533.591 392.588 533.059 392.78 532.715 393.164C532.371 393.54 532.199 394.112 532.199 394.88C532.199 395.648 532.363 396.224 532.691 396.608C533.027 396.984 533.547 397.172 534.251 397.172C534.931 397.172 535.563 397.008 536.147 396.68V397.628C535.627 397.956 534.995 398.12 534.251 398.12ZM540.386 392.588C539.906 392.588 539.514 392.7 539.21 392.924C538.914 393.14 538.674 393.42 538.49 393.764V398H537.434V389.396H538.49V391.772L538.466 392.888H538.49C538.658 392.536 538.922 392.244 539.282 392.012C539.642 391.772 540.098 391.652 540.65 391.652C541.266 391.652 541.754 391.816 542.114 392.144C542.482 392.472 542.666 392.968 542.666 393.632V398H541.61V393.74C541.61 393.316 541.498 393.02 541.274 392.852C541.058 392.676 540.762 392.588 540.386 392.588ZM546.449 392.588C545.785 392.588 545.113 392.792 544.433 393.2V392.252C544.729 392.068 545.069 391.924 545.453 391.82C545.845 391.708 546.225 391.652 546.593 391.652C547.377 391.652 547.973 391.816 548.381 392.144C548.789 392.472 548.993 392.972 548.993 393.644V396.992C548.993 397.128 548.997 397.304 549.005 397.52C549.021 397.728 549.037 397.888 549.053 398H548.093C548.069 397.888 548.045 397.732 548.021 397.532C548.005 397.324 547.997 397.144 547.997 396.992L547.985 396.812C547.889 397.004 547.757 397.204 547.589 397.412C547.421 397.612 547.197 397.78 546.917 397.916C546.645 398.052 546.305 398.12 545.897 398.12C545.337 398.12 544.885 397.96 544.541 397.64C544.197 397.32 544.025 396.868 544.025 396.284C544.025 395.604 544.265 395.104 544.745 394.784C545.225 394.464 545.901 394.304 546.773 394.304H547.937V393.788C547.937 393.356 547.825 393.048 547.601 392.864C547.377 392.68 546.993 392.588 546.449 392.588ZM547.937 395.6V395.144H546.881C546.249 395.144 545.789 395.236 545.501 395.42C545.221 395.604 545.081 395.872 545.081 396.224C545.081 396.504 545.165 396.732 545.333 396.908C545.509 397.084 545.773 397.172 546.125 397.172C546.453 397.172 546.733 397.108 546.965 396.98C547.197 396.844 547.385 396.684 547.529 396.5C547.673 396.308 547.777 396.128 547.841 395.96C547.905 395.792 547.937 395.672 547.937 395.6Z" fill="black"/>
<path d="M289 388.667C286.054 388.667 283.667 391.054 283.667 394C283.667 396.946 286.054 399.333 289 399.333C291.946 399.333 294.333 396.946 294.333 394C294.333 391.054 291.946 388.667 289 388.667ZM426 393H289V395H426V393Z" fill="#4E496B"/>
<path d="M289 290.667C286.054 290.667 283.667 293.054 283.667 296C283.667 298.946 286.054 301.333 289 301.333C291.946 301.333 294.333 298.946 294.333 296C294.333 293.054 291.946 290.667 289 290.667ZM410 295H289V297H410V295Z" fill="#4E496B"/>
<path d="M274 242.667C271.054 242.667 268.667 245.054 268.667 248C268.667 250.946 271.054 253.333 274 253.333C276.946 253.333 279.333 250.946 279.333 248C279.333 245.054 276.946 242.667 274 242.667ZM343 247H274V249H343V247ZM354 238V141H352V238H354ZM363 132H410V130H363V132ZM354 141C354 136.029 358.029 132 363 132V130C356.925 130 352 134.925 352 141H354ZM343 249C349.075 249 354 244.075 354 238H352C352 242.971 347.971 247 343 247V249Z" fill="#4E496B"/>
</svg>
