<svg width="700" height="379" viewBox="0 0 700 379" fill="none" xmlns="http://www.w3.org/2000/svg">
<path d="M445 331H255C252.791 331 251 332.791 251 335V365C251 367.209 252.791 369 255 369H445C447.209 369 449 367.209 449 365V335C449 332.791 447.209 331 445 331Z" fill="white" stroke="#67B0F8" stroke-width="2"/>
<path d="M320.525 354.584C319.965 354.584 319.456 354.5 318.999 354.332C318.569 354.167 318.178 353.914 317.851 353.59C317.525 353.251 317.277 352.845 317.123 352.4C316.955 351.934 316.871 351.402 316.871 350.804C316.871 350.216 316.955 349.689 317.123 349.222C317.3 348.756 317.547 348.364 317.865 348.046C318.191 347.714 318.588 347.46 319.027 347.304C319.524 347.12 320.051 347.03 320.581 347.038C321.029 347.038 321.439 347.09 321.813 347.192C322.186 347.286 322.494 347.426 322.737 347.612V348.718C322.428 348.518 322.087 348.371 321.729 348.284C321.36 348.181 320.978 348.129 320.595 348.13C319.745 348.13 319.12 348.35 318.719 348.788C318.327 349.227 318.131 349.899 318.131 350.804C318.131 351.71 318.322 352.382 318.705 352.82C319.087 353.259 319.694 353.478 320.525 353.478C320.963 353.478 321.365 353.427 321.729 353.324C322.079 353.221 322.417 353.081 322.737 352.904V354.01C322.065 354.398 321.301 354.596 320.525 354.584ZM329.446 353.016C329.238 353.473 328.915 353.869 328.508 354.164C328.107 354.444 327.598 354.584 326.982 354.584C326.544 354.584 326.128 354.51 325.736 354.36C325.345 354.202 324.992 353.964 324.7 353.66C324.387 353.319 324.144 352.919 323.986 352.484C323.809 352.008 323.72 351.448 323.72 350.804C323.72 350.17 323.809 349.619 323.986 349.152C324.164 348.676 324.402 348.284 324.7 347.976C324.999 347.659 325.344 347.426 325.736 347.276C326.137 347.118 326.565 347.037 326.996 347.038C327.547 347.038 328.023 347.155 328.424 347.388C328.826 347.612 329.148 347.934 329.39 348.354V344.406H330.622V354.444H329.544L329.446 353.016ZM327.164 353.478C327.482 353.478 327.776 353.427 328.046 353.324C328.317 353.212 328.55 353.044 328.746 352.82C328.963 352.577 329.125 352.291 329.222 351.98C329.344 351.644 329.404 351.252 329.404 350.804C329.404 350.356 329.344 349.964 329.222 349.628C329.125 349.317 328.963 349.031 328.746 348.788C328.557 348.569 328.316 348.401 328.046 348.298C327.766 348.184 327.466 348.127 327.164 348.13C326.52 348.13 325.993 348.359 325.582 348.816C325.181 349.264 324.98 349.927 324.98 350.804C324.98 351.691 325.186 352.358 325.596 352.806C326.007 353.254 326.53 353.478 327.164 353.478ZM336.077 348.13C335.517 348.13 335.06 348.261 334.705 348.522C334.354 348.781 334.067 349.116 333.865 349.502V354.444H332.633V347.178H333.795L333.837 348.48H333.865C334.067 348.053 334.388 347.693 334.789 347.444C335.209 347.174 335.741 347.038 336.385 347.038C337.104 347.038 337.673 347.23 338.093 347.612C338.522 347.986 338.737 348.564 338.737 349.348V354.444H337.505V349.474C337.505 348.97 337.379 348.62 337.127 348.424C336.875 348.228 336.525 348.13 336.077 348.13ZM341.358 354.528C341.087 354.528 340.868 354.444 340.7 354.276C340.619 354.193 340.554 354.094 340.511 353.986C340.468 353.878 340.446 353.762 340.448 353.646C340.448 353.385 340.532 353.17 340.7 353.002C340.868 352.834 341.087 352.75 341.358 352.75C341.619 352.75 341.834 352.834 342.002 353.002C342.086 353.087 342.151 353.187 342.194 353.298C342.238 353.409 342.258 353.527 342.254 353.646C342.256 353.762 342.234 353.878 342.191 353.986C342.148 354.094 342.083 354.193 342.002 354.276C341.917 354.36 341.817 354.425 341.706 354.468C341.595 354.512 341.477 354.532 341.358 354.528ZM346.882 354.444H344.894L342.402 347.178H343.732L345.944 353.786L348.142 347.178H349.374L346.882 354.444ZM351.146 346.114C350.894 346.114 350.693 346.04 350.544 345.89C350.471 345.814 350.413 345.724 350.375 345.625C350.336 345.527 350.318 345.422 350.32 345.316C350.32 345.092 350.394 344.901 350.544 344.742C350.693 344.584 350.894 344.504 351.146 344.504C351.388 344.504 351.58 344.584 351.72 344.742C351.86 344.901 351.93 345.092 351.93 345.316C351.93 345.54 351.86 345.732 351.72 345.89C351.58 346.04 351.388 346.114 351.146 346.114ZM351.748 347.178V354.444H350.516V347.178H351.748ZM359.538 353.828C359.417 353.914 359.29 353.994 359.16 354.066C358.984 354.163 358.802 354.247 358.614 354.318C358.377 354.399 358.133 354.46 357.886 354.5C357.586 354.559 357.281 354.587 356.976 354.584C355.753 354.584 354.825 354.253 354.19 353.59C353.555 352.928 353.238 351.999 353.238 350.804C353.238 350.216 353.322 349.689 353.49 349.222C353.667 348.756 353.91 348.364 354.218 348.046C354.523 347.722 354.896 347.468 355.31 347.304C355.73 347.127 356.187 347.038 356.682 347.038C357.205 347.038 357.671 347.127 358.082 347.304C358.481 347.472 358.829 347.743 359.09 348.088C359.361 348.434 359.543 348.863 359.636 349.376C359.739 349.88 359.739 350.468 359.636 351.14H354.512C354.559 351.924 354.792 352.512 355.212 352.904C355.632 353.287 356.257 353.478 357.088 353.478C357.648 353.478 358.129 353.399 358.53 353.24C358.884 353.106 359.223 352.932 359.538 352.722V353.828ZM356.654 348.13C356.122 348.13 355.665 348.294 355.282 348.62C354.899 348.947 354.657 349.442 354.554 350.104H358.46C358.497 349.432 358.343 348.938 357.998 348.62C357.653 348.294 357.205 348.13 356.654 348.13ZM369.09 354.444H367.2L365.66 348.83L364.078 354.444H362.244L360.592 347.178H361.894L363.28 353.52L365.044 347.178H366.43L368.152 353.45L369.524 347.178H370.742L369.09 354.444ZM377.886 353.828C377.765 353.914 377.638 353.994 377.508 354.066C377.358 354.15 377.176 354.234 376.962 354.318C376.725 354.399 376.481 354.46 376.234 354.5C375.934 354.559 375.629 354.587 375.324 354.584C374.101 354.584 373.172 354.253 372.538 353.59C371.903 352.928 371.586 351.999 371.586 350.804C371.586 350.216 371.67 349.689 371.838 349.222C372.015 348.756 372.258 348.364 372.566 348.046C372.871 347.722 373.244 347.468 373.658 347.304C374.078 347.127 374.535 347.038 375.03 347.038C375.552 347.038 376.019 347.127 376.43 347.304C376.84 347.482 377.176 347.743 377.438 348.088C377.708 348.434 377.89 348.863 377.984 349.376C378.086 349.88 378.086 350.468 377.984 351.14H372.86C372.906 351.924 373.14 352.512 373.56 352.904C373.98 353.287 374.605 353.478 375.436 353.478C375.996 353.478 376.476 353.399 376.878 353.24C377.232 353.106 377.571 352.932 377.886 352.722V353.828ZM375.002 348.13C374.47 348.13 374.012 348.294 373.63 348.62C373.247 348.947 373.004 349.442 372.902 350.104H376.808C376.845 349.432 376.691 348.938 376.346 348.62C376 348.294 375.552 348.13 375.002 348.13ZM383.125 348.41C382.627 348.45 382.142 348.588 381.697 348.816C381.277 349.031 380.965 349.367 380.759 349.824V354.444H379.527V347.178H380.605L380.731 348.76H380.759C380.965 348.331 381.259 347.958 381.641 347.64C382.033 347.314 382.528 347.113 383.125 347.038V348.41Z" fill="#18123D"/>
<path d="M215 251H25C22.7909 251 21 252.791 21 255V285C21 287.209 22.7909 289 25 289H215C217.209 289 219 287.209 219 285V255C219 252.791 217.209 251 215 251Z" fill="white" stroke="#67B0F8" stroke-width="2"/>
<path d="M215 331H25C22.7909 331 21 332.791 21 335V365C21 367.209 22.7909 369 25 369H215C217.209 369 219 367.209 219 365V335C219 332.791 217.209 331 215 331Z" fill="white" stroke="#67B0F8" stroke-width="2"/>
<path d="M102.185 353.614C102.101 353.782 101.994 353.959 101.863 354.146C101.732 354.323 101.569 354.487 101.373 354.636C101.177 354.785 100.944 354.907 100.673 355C100.412 355.093 100.104 355.14 99.7489 355.14C99.0956 355.14 98.5682 354.958 98.1669 354.594C97.7656 354.221 97.5649 353.689 97.5649 352.998C97.5649 352.205 97.8402 351.621 98.3909 351.248C98.9509 350.875 99.7442 350.688 100.771 350.688H102.129V350.086C102.129 349.582 101.998 349.223 101.737 349.008C101.476 348.793 101.028 348.686 100.393 348.686C99.9449 348.686 99.5202 348.761 99.1189 348.91C98.7176 349.05 98.3582 349.213 98.0409 349.4V348.294C98.3022 348.135 98.6522 347.981 99.0909 347.832C99.5389 347.673 100.029 347.594 100.561 347.594C101.476 347.594 102.171 347.785 102.647 348.168C103.123 348.541 103.361 349.125 103.361 349.918V353.824C103.361 353.908 103.361 354.006 103.361 354.118C103.37 354.221 103.375 354.328 103.375 354.44C103.384 354.552 103.394 354.659 103.403 354.762C103.412 354.855 103.422 354.935 103.431 355H102.311C102.283 354.869 102.255 354.687 102.227 354.454C102.208 354.211 102.199 354.001 102.199 353.824L102.185 353.614ZM100.015 354.034C100.398 354.034 100.724 353.955 100.995 353.796C101.266 353.637 101.485 353.455 101.653 353.25C101.821 353.035 101.942 352.83 102.017 352.634C102.092 352.429 102.129 352.284 102.129 352.2V351.668H100.897C100.16 351.668 99.6229 351.775 99.2869 351.99C98.9602 352.195 98.7969 352.508 98.7969 352.928C98.7969 353.255 98.8949 353.521 99.0909 353.726C99.2869 353.931 99.5949 354.034 100.015 354.034ZM109.96 353.698C109.764 354.109 109.461 354.454 109.05 354.734C108.649 355.005 108.121 355.14 107.468 355.14C106.796 355.14 106.25 354.953 105.83 354.58C105.419 354.197 105.214 353.609 105.214 352.816V347.734H106.46V352.816C106.46 353.059 106.493 353.259 106.558 353.418C106.633 353.567 106.731 353.689 106.852 353.782C106.973 353.875 107.113 353.941 107.272 353.978C107.44 354.015 107.622 354.034 107.818 354.034C108.359 354.034 108.793 353.913 109.12 353.67C109.447 353.427 109.727 353.096 109.96 352.676V347.734H111.192V355H110.1L109.988 353.698H109.96ZM118.422 353.572C118.198 354.048 117.885 354.431 117.484 354.72C117.083 355 116.574 355.14 115.958 355.14C115.519 355.14 115.104 355.065 114.712 354.916C114.32 354.757 113.975 354.524 113.676 354.216C113.377 353.899 113.139 353.507 112.962 353.04C112.785 352.564 112.696 352.004 112.696 351.36C112.696 350.725 112.785 350.175 112.962 349.708C113.139 349.232 113.377 348.84 113.676 348.532C113.975 348.215 114.32 347.981 114.712 347.832C115.113 347.673 115.533 347.594 115.972 347.594C116.523 347.594 116.999 347.711 117.4 347.944C117.801 348.168 118.123 348.49 118.366 348.91V344.962H119.598V355H118.52L118.422 353.572ZM116.14 354.034C116.457 354.034 116.751 353.983 117.022 353.88C117.293 353.768 117.526 353.6 117.722 353.376C117.927 353.152 118.086 352.872 118.198 352.536C118.319 352.2 118.38 351.808 118.38 351.36C118.38 350.912 118.319 350.52 118.198 350.184C118.086 349.848 117.927 349.568 117.722 349.344C117.526 349.12 117.293 348.957 117.022 348.854C116.751 348.742 116.457 348.686 116.14 348.686C115.496 348.686 114.969 348.915 114.558 349.372C114.157 349.82 113.956 350.483 113.956 351.36C113.956 352.247 114.161 352.914 114.572 353.362C114.983 353.81 115.505 354.034 116.14 354.034ZM122.239 346.67C121.987 346.67 121.786 346.595 121.637 346.446C121.487 346.287 121.413 346.096 121.413 345.872C121.413 345.648 121.487 345.457 121.637 345.298C121.786 345.139 121.987 345.06 122.239 345.06C122.481 345.06 122.673 345.139 122.813 345.298C122.953 345.457 123.023 345.648 123.023 345.872C123.023 346.096 122.953 346.287 122.813 346.446C122.673 346.595 122.481 346.67 122.239 346.67ZM122.841 347.734V355H121.609V347.734H122.841ZM128.405 354.846C128.255 354.93 128.064 355 127.831 355.056C127.597 355.112 127.35 355.14 127.089 355.14C126.734 355.14 126.431 355.089 126.179 354.986C125.936 354.883 125.735 354.748 125.577 354.58C125.418 354.403 125.301 354.207 125.227 353.992C125.161 353.768 125.129 353.539 125.129 353.306V348.784H124.261V347.734H125.129V346.208H126.361V347.734H128.475V348.784H126.361V353.152C126.361 353.46 126.435 353.684 126.585 353.824C126.743 353.964 127.019 354.034 127.411 354.034C127.775 354.034 128.106 353.931 128.405 353.726V354.846ZM132.958 355.14C132.463 355.14 132.001 355.056 131.572 354.888C131.142 354.72 130.769 354.477 130.452 354.16C130.144 353.833 129.901 353.437 129.724 352.97C129.546 352.503 129.458 351.967 129.458 351.36C129.458 350.763 129.546 350.231 129.724 349.764C129.901 349.288 130.144 348.891 130.452 348.574C130.769 348.257 131.142 348.014 131.572 347.846C132.001 347.678 132.463 347.594 132.958 347.594C133.462 347.594 133.928 347.678 134.358 347.846C134.787 348.014 135.156 348.257 135.464 348.574C135.781 348.891 136.028 349.288 136.206 349.764C136.392 350.231 136.486 350.763 136.486 351.36C136.486 351.967 136.392 352.503 136.206 352.97C136.028 353.437 135.781 353.833 135.464 354.16C135.156 354.477 134.787 354.72 134.358 354.888C133.928 355.056 133.462 355.14 132.958 355.14ZM132.958 354.034C133.284 354.034 133.583 353.983 133.854 353.88C134.134 353.768 134.376 353.605 134.582 353.39C134.787 353.166 134.946 352.886 135.058 352.55C135.17 352.214 135.226 351.817 135.226 351.36C135.226 350.903 135.17 350.506 135.058 350.17C134.946 349.834 134.787 349.559 134.582 349.344C134.376 349.12 134.134 348.957 133.854 348.854C133.583 348.742 133.284 348.686 132.958 348.686C132.631 348.686 132.332 348.742 132.062 348.854C131.791 348.957 131.553 349.12 131.348 349.344C131.152 349.559 130.998 349.834 130.886 350.17C130.774 350.506 130.718 350.903 130.718 351.36C130.718 351.817 130.774 352.214 130.886 352.55C130.998 352.886 131.152 353.166 131.348 353.39C131.553 353.605 131.791 353.768 132.062 353.88C132.332 353.983 132.631 354.034 132.958 354.034ZM141.585 348.966C141.063 349.013 140.587 349.148 140.157 349.372C139.737 349.587 139.425 349.923 139.219 350.38V355H137.987V347.734H139.065L139.191 349.316H139.219C139.425 348.887 139.719 348.513 140.101 348.196C140.493 347.869 140.988 347.669 141.585 347.594V348.966Z" fill="#18123D"/>
<path d="M120 300L120 330" stroke="#4E496B" stroke-width="2"/>
<path d="M103.941 274.444H101.953L99.461 267.178H100.791L103.003 273.786L105.201 267.178H106.433L103.941 274.444ZM108.205 266.114C107.953 266.114 107.753 266.04 107.603 265.89C107.455 265.736 107.375 265.529 107.379 265.316C107.375 265.103 107.456 264.896 107.603 264.742C107.753 264.584 107.953 264.504 108.205 264.504C108.448 264.504 108.639 264.584 108.779 264.742C108.919 264.901 108.989 265.092 108.989 265.316C108.989 265.54 108.919 265.732 108.779 265.89C108.639 266.04 108.448 266.114 108.205 266.114ZM108.807 267.178V274.444H107.575V267.178H108.807ZM116.598 273.828C116.477 273.914 116.35 273.994 116.22 274.066C116.07 274.15 115.888 274.234 115.674 274.318C115.437 274.399 115.193 274.46 114.946 274.5C114.646 274.559 114.341 274.587 114.036 274.584C112.813 274.584 111.884 274.253 111.25 273.59C110.615 272.928 110.298 271.999 110.298 270.804C110.298 270.216 110.382 269.689 110.55 269.222C110.727 268.756 110.97 268.364 111.278 268.046C111.583 267.722 111.956 267.468 112.37 267.304C112.79 267.127 113.247 267.038 113.742 267.038C114.264 267.038 114.731 267.127 115.142 267.304C115.552 267.482 115.888 267.743 116.15 268.088C116.42 268.434 116.602 268.863 116.696 269.376C116.798 269.88 116.798 270.468 116.696 271.14H111.572C111.618 271.924 111.852 272.512 112.272 272.904C112.692 273.287 113.317 273.478 114.148 273.478C114.708 273.478 115.188 273.399 115.59 273.24C115.944 273.106 116.283 272.932 116.598 272.722V273.828ZM113.714 268.13C113.182 268.13 112.724 268.294 112.342 268.62C111.959 268.947 111.716 269.442 111.614 270.104H115.52C115.557 269.432 115.403 268.938 115.058 268.62C114.712 268.294 114.264 268.13 113.714 268.13ZM126.149 274.444H124.259L122.719 268.83L121.137 274.444H119.303L117.651 267.178H118.953L120.339 273.52L122.103 267.178H123.489L125.211 273.45L126.583 267.178H127.801L126.149 274.444ZM134.945 273.828C134.824 273.915 134.698 273.994 134.567 274.066C134.391 274.163 134.209 274.247 134.021 274.318C133.784 274.399 133.54 274.46 133.293 274.5C133.023 274.556 132.719 274.584 132.383 274.584C131.161 274.584 130.232 274.253 129.597 273.59C128.963 272.928 128.645 271.999 128.645 270.804C128.645 270.216 128.729 269.689 128.897 269.222C129.075 268.756 129.317 268.364 129.625 268.046C129.93 267.722 130.303 267.468 130.717 267.304C131.152 267.124 131.618 267.034 132.089 267.038C132.612 267.038 133.079 267.127 133.489 267.304C133.888 267.472 134.236 267.743 134.497 268.088C134.768 268.434 134.95 268.863 135.043 269.376C135.146 269.88 135.146 270.468 135.043 271.14H129.919C129.966 271.924 130.199 272.512 130.619 272.904C131.039 273.287 131.665 273.478 132.495 273.478C133.055 273.478 133.536 273.399 133.937 273.24C134.292 273.106 134.63 272.933 134.945 272.722V273.828ZM132.061 268.13C131.529 268.13 131.072 268.294 130.689 268.62C130.307 268.947 130.064 269.442 129.961 270.104H133.867C133.905 269.432 133.751 268.938 133.405 268.62C133.06 268.294 132.612 268.13 132.061 268.13ZM140.185 268.41C139.687 268.45 139.202 268.588 138.757 268.816C138.337 269.031 138.024 269.367 137.819 269.824V274.444H136.587V267.178H137.665L137.791 268.76H137.819C138.024 268.331 138.318 267.958 138.701 267.64C139.093 267.314 139.588 267.113 140.185 267.038V268.41Z" fill="#18123D"/>
<path d="M445 251H255C252.791 251 251 252.791 251 255V285C251 287.209 252.791 289 255 289H445C447.209 289 449 287.209 449 285V255C449 252.791 447.209 251 445 251Z" fill="white" stroke="#67B0F8" stroke-width="2"/>
<path d="M322.309 274.584C321.749 274.584 321.24 274.5 320.783 274.332C320.353 274.167 319.962 273.914 319.635 273.59C319.31 273.25 319.061 272.844 318.907 272.4C318.739 271.934 318.655 271.402 318.655 270.804C318.655 270.216 318.739 269.689 318.907 269.222C319.068 268.782 319.321 268.381 319.649 268.046C319.975 267.714 320.373 267.46 320.811 267.304C321.308 267.12 321.835 267.03 322.365 267.038C322.813 267.038 323.224 267.09 323.597 267.192C323.97 267.286 324.278 267.426 324.521 267.612V268.718C324.212 268.518 323.871 268.371 323.513 268.284C323.144 268.181 322.762 268.129 322.379 268.13C321.53 268.13 320.904 268.35 320.503 268.788C320.111 269.227 319.915 269.899 319.915 270.804C319.915 271.71 320.106 272.382 320.489 272.82C320.872 273.259 321.478 273.478 322.309 273.478C322.748 273.478 323.149 273.427 323.513 273.324C323.863 273.221 324.201 273.081 324.521 272.904V274.01C323.849 274.398 323.085 274.596 322.309 274.584ZM331.231 273.016C331.022 273.473 330.699 273.869 330.293 274.164C329.891 274.444 329.383 274.584 328.767 274.584C328.328 274.584 327.913 274.51 327.521 274.36C327.13 274.203 326.777 273.964 326.485 273.66C326.171 273.319 325.929 272.919 325.771 272.484C325.593 272.008 325.505 271.448 325.505 270.804C325.505 270.17 325.593 269.619 325.771 269.152C325.948 268.676 326.186 268.284 326.485 267.976C326.783 267.659 327.129 267.426 327.521 267.276C327.922 267.118 328.35 267.037 328.781 267.038C329.331 267.038 329.807 267.155 330.209 267.388C330.61 267.612 330.932 267.934 331.175 268.354V264.406H332.407V274.444H331.329L331.231 273.016ZM328.949 273.478C329.266 273.478 329.56 273.427 329.831 273.324C330.101 273.212 330.335 273.044 330.531 272.82C330.736 272.596 330.895 272.316 331.007 271.98C331.128 271.644 331.189 271.252 331.189 270.804C331.189 270.356 331.128 269.964 331.007 269.628C330.909 269.318 330.747 269.031 330.531 268.788C330.342 268.569 330.101 268.401 329.831 268.298C329.551 268.184 329.251 268.127 328.949 268.13C328.305 268.13 327.777 268.359 327.367 268.816C326.965 269.264 326.765 269.927 326.765 270.804C326.765 271.691 326.97 272.358 327.381 272.806C327.791 273.254 328.314 273.478 328.949 273.478ZM337.861 268.13C337.301 268.13 336.844 268.261 336.489 268.522C336.138 268.781 335.851 269.116 335.649 269.502V274.444H334.417V267.178H335.579L335.621 268.48H335.649C335.851 268.053 336.172 267.693 336.573 267.444C336.993 267.174 337.525 267.038 338.169 267.038C338.888 267.038 339.457 267.23 339.877 267.612C340.306 267.986 340.521 268.564 340.521 269.348V274.444H339.289V269.474C339.289 268.97 339.163 268.62 338.911 268.424C338.659 268.228 338.309 268.13 337.861 268.13ZM343.142 274.528C342.871 274.528 342.652 274.444 342.484 274.276C342.403 274.193 342.338 274.094 342.295 273.986C342.252 273.878 342.23 273.762 342.232 273.646C342.232 273.385 342.316 273.17 342.484 273.002C342.652 272.834 342.871 272.75 343.142 272.75C343.403 272.75 343.618 272.834 343.786 273.002C343.87 273.087 343.935 273.187 343.978 273.298C344.022 273.409 344.042 273.527 344.038 273.646C344.04 273.762 344.018 273.878 343.975 273.986C343.932 274.094 343.867 274.193 343.786 274.276C343.701 274.36 343.601 274.425 343.49 274.468C343.379 274.512 343.261 274.532 343.142 274.528ZM351.328 273.828C351.207 273.914 351.08 273.994 350.95 274.066C350.774 274.163 350.592 274.247 350.404 274.318C350.167 274.399 349.923 274.46 349.676 274.5C349.376 274.559 349.071 274.587 348.766 274.584C347.543 274.584 346.615 274.253 345.98 273.59C345.345 272.928 345.028 271.999 345.028 270.804C345.028 270.216 345.112 269.689 345.28 269.222C345.457 268.756 345.7 268.364 346.008 268.046C346.313 267.722 346.686 267.468 347.1 267.304C347.52 267.127 347.977 267.038 348.472 267.038C348.995 267.038 349.461 267.127 349.872 267.304C350.271 267.472 350.619 267.743 350.88 268.088C351.151 268.434 351.333 268.863 351.426 269.376C351.529 269.88 351.529 270.468 351.426 271.14H346.302C346.349 271.924 346.582 272.512 347.002 272.904C347.422 273.287 348.047 273.478 348.878 273.478C349.438 273.478 349.919 273.399 350.32 273.24C350.674 273.106 351.013 272.932 351.328 272.722V273.828ZM348.444 268.13C347.912 268.13 347.455 268.294 347.072 268.62C346.689 268.947 346.447 269.442 346.344 270.104H350.25C350.287 269.432 350.133 268.938 349.788 268.62C349.443 268.294 348.995 268.13 348.444 268.13ZM358.178 273.016C357.969 273.473 357.646 273.869 357.24 274.164C356.839 274.444 356.33 274.584 355.714 274.584C355.275 274.584 354.86 274.51 354.468 274.36C354.077 274.202 353.724 273.964 353.432 273.66C353.118 273.319 352.876 272.919 352.718 272.484C352.541 272.008 352.452 271.448 352.452 270.804C352.452 270.17 352.541 269.619 352.718 269.152C352.895 268.676 353.133 268.284 353.432 267.976C353.731 267.659 354.076 267.426 354.468 267.276C354.869 267.118 355.297 267.037 355.728 267.038C356.279 267.038 356.755 267.155 357.156 267.388C357.557 267.612 357.879 267.934 358.122 268.354V264.406H359.354V274.444H358.276L358.178 273.016ZM355.896 273.478C356.213 273.478 356.507 273.427 356.778 273.324C357.049 273.212 357.282 273.044 357.478 272.82C357.683 272.596 357.842 272.316 357.954 271.98C358.075 271.644 358.136 271.252 358.136 270.804C358.136 270.356 358.075 269.964 357.954 269.628C357.856 269.318 357.694 269.031 357.478 268.788C357.289 268.569 357.048 268.401 356.778 268.298C356.498 268.184 356.198 268.127 355.896 268.13C355.252 268.13 354.725 268.359 354.314 268.816C353.913 269.264 353.712 269.927 353.712 270.804C353.712 271.691 353.917 272.358 354.328 272.806C354.739 273.254 355.261 273.478 355.896 273.478ZM361.994 266.114C361.742 266.114 361.542 266.04 361.392 265.89C361.244 265.736 361.164 265.529 361.168 265.316C361.164 265.103 361.245 264.896 361.392 264.742C361.542 264.584 361.742 264.504 361.994 264.504C362.237 264.504 362.428 264.584 362.568 264.742C362.708 264.901 362.778 265.092 362.778 265.316C362.778 265.54 362.708 265.732 362.568 265.89C362.428 266.04 362.237 266.114 361.994 266.114ZM362.596 267.178V274.444H361.364V267.178H362.596ZM368.161 274.29C368.011 274.374 367.82 274.444 367.587 274.5C367.344 274.557 367.095 274.585 366.845 274.584C366.49 274.584 366.187 274.533 365.935 274.43C365.708 274.339 365.503 274.2 365.333 274.024C365.178 273.854 365.059 273.654 364.983 273.436C364.917 273.213 364.884 272.982 364.885 272.75V268.228H364.017V267.178H364.885V265.652H366.117V267.178H368.231V268.228H366.117V272.596C366.117 272.904 366.191 273.128 366.341 273.268C366.499 273.408 366.775 273.478 367.167 273.478C367.531 273.478 367.862 273.376 368.161 273.17V274.29ZM372.714 274.584C372.219 274.584 371.757 274.5 371.328 274.332C370.908 274.171 370.526 273.923 370.208 273.604C369.889 273.26 369.641 272.855 369.48 272.414C369.302 271.948 369.214 271.411 369.214 270.804C369.214 270.207 369.302 269.675 369.48 269.208C369.657 268.732 369.9 268.336 370.208 268.018C370.525 267.701 370.898 267.458 371.328 267.29C371.77 267.12 372.24 267.034 372.714 267.038C373.218 267.038 373.684 267.122 374.114 267.29C374.543 267.458 374.912 267.701 375.22 268.018C375.537 268.336 375.784 268.732 375.962 269.208C376.148 269.675 376.242 270.207 376.242 270.804C376.242 271.411 376.148 271.948 375.962 272.414C375.799 272.857 375.546 273.263 375.22 273.604C374.912 273.922 374.543 274.164 374.114 274.332C373.684 274.5 373.218 274.584 372.714 274.584ZM372.714 273.478C373.04 273.478 373.339 273.427 373.61 273.324C373.89 273.212 374.132 273.049 374.338 272.834C374.543 272.61 374.702 272.33 374.814 271.994C374.933 271.609 374.99 271.207 374.982 270.804C374.982 270.347 374.926 269.95 374.814 269.614C374.719 269.307 374.556 269.025 374.338 268.788C374.138 268.568 373.889 268.4 373.61 268.298C373.325 268.183 373.021 268.126 372.714 268.13C372.387 268.13 372.088 268.186 371.818 268.298C371.545 268.403 371.3 268.57 371.104 268.788C370.908 269.003 370.754 269.278 370.642 269.614C370.523 269.999 370.466 270.401 370.474 270.804C370.474 271.262 370.53 271.658 370.642 271.994C370.754 272.33 370.908 272.61 371.104 272.834C371.309 273.049 371.547 273.212 371.818 273.324C372.088 273.427 372.387 273.478 372.714 273.478ZM381.341 268.41C380.843 268.45 380.358 268.588 379.913 268.816C379.493 269.031 379.181 269.367 378.975 269.824V274.444H377.743V267.178H378.821L378.947 268.76H378.975C379.181 268.331 379.475 267.958 379.857 267.64C380.249 267.314 380.744 267.113 381.341 267.038V268.41Z" fill="#18123D"/>
<path d="M445 171H255C252.791 171 251 172.791 251 175V205C251 207.209 252.791 209 255 209H445C447.209 209 449 207.209 449 205V175C449 172.791 447.209 171 445 171Z" fill="white" stroke="#67B0F8" stroke-width="2"/>
<path d="M321.113 194.584C320.553 194.584 320.044 194.5 319.587 194.332C319.157 194.167 318.766 193.914 318.439 193.59C318.113 193.251 317.865 192.845 317.711 192.4C317.543 191.934 317.459 191.402 317.459 190.804C317.459 190.216 317.543 189.689 317.711 189.222C317.888 188.756 318.135 188.364 318.453 188.046C318.779 187.714 319.176 187.46 319.615 187.304C320.112 187.12 320.639 187.03 321.169 187.038C321.617 187.038 322.027 187.09 322.401 187.192C322.774 187.286 323.082 187.426 323.325 187.612V188.718C323.016 188.518 322.675 188.371 322.317 188.284C321.948 188.181 321.566 188.129 321.183 188.13C320.333 188.13 319.708 188.35 319.307 188.788C318.915 189.227 318.719 189.899 318.719 190.804C318.719 191.71 318.91 192.382 319.293 192.82C319.675 193.259 320.282 193.478 321.113 193.478C321.551 193.478 321.953 193.427 322.317 193.324C322.667 193.221 323.005 193.081 323.325 192.904V194.01C322.653 194.398 321.889 194.596 321.113 194.584ZM330.034 193.016C329.826 193.473 329.503 193.869 329.096 194.164C328.695 194.444 328.186 194.584 327.57 194.584C327.132 194.584 326.716 194.51 326.324 194.36C325.933 194.202 325.58 193.964 325.288 193.66C324.975 193.319 324.732 192.919 324.574 192.484C324.397 192.008 324.308 191.448 324.308 190.804C324.308 190.17 324.397 189.619 324.574 189.152C324.752 188.676 324.99 188.284 325.288 187.976C325.587 187.659 325.932 187.426 326.324 187.276C326.725 187.118 327.153 187.037 327.584 187.038C328.135 187.038 328.611 187.155 329.012 187.388C329.414 187.612 329.736 187.934 329.978 188.354V184.406H331.21V194.444H330.132L330.034 193.016ZM327.752 193.478C328.07 193.478 328.364 193.427 328.634 193.324C328.905 193.212 329.138 193.044 329.334 192.82C329.551 192.577 329.713 192.291 329.81 191.98C329.932 191.644 329.992 191.252 329.992 190.804C329.992 190.356 329.932 189.964 329.81 189.628C329.713 189.317 329.551 189.031 329.334 188.788C329.145 188.569 328.904 188.401 328.634 188.298C328.354 188.184 328.054 188.127 327.752 188.13C327.108 188.13 326.581 188.359 326.17 188.816C325.769 189.264 325.568 189.927 325.568 190.804C325.568 191.691 325.774 192.358 326.184 192.806C326.595 193.254 327.118 193.478 327.752 193.478ZM336.665 188.13C336.105 188.13 335.647 188.261 335.293 188.522C334.942 188.78 334.654 189.115 334.453 189.502V194.444H333.221V187.178H334.383L334.425 188.48H334.453C334.655 188.053 334.976 187.693 335.377 187.444C335.797 187.174 336.329 187.038 336.973 187.038C337.691 187.038 338.261 187.23 338.681 187.612C339.11 187.986 339.325 188.564 339.325 189.348V194.444H338.093V189.474C338.093 188.97 337.967 188.62 337.715 188.424C337.463 188.228 337.113 188.13 336.665 188.13ZM341.946 194.528C341.675 194.528 341.456 194.444 341.288 194.276C341.207 194.193 341.142 194.094 341.099 193.986C341.056 193.878 341.034 193.762 341.036 193.646C341.036 193.385 341.12 193.17 341.288 193.002C341.456 192.834 341.675 192.75 341.946 192.75C342.207 192.75 342.422 192.834 342.59 193.002C342.674 193.087 342.739 193.187 342.783 193.298C342.826 193.409 342.846 193.527 342.842 193.646C342.844 193.762 342.822 193.878 342.779 193.986C342.736 194.094 342.671 194.193 342.59 194.276C342.505 194.36 342.405 194.425 342.294 194.468C342.183 194.512 342.065 194.532 341.946 194.528ZM348.879 193.058C348.785 193.243 348.677 193.421 348.557 193.59C348.258 193.991 347.842 194.289 347.367 194.444C347.069 194.543 346.757 194.591 346.443 194.584C345.79 194.584 345.262 194.402 344.861 194.038C344.46 193.665 344.259 193.133 344.259 192.442C344.259 191.649 344.534 191.066 345.085 190.692C345.645 190.319 346.438 190.132 347.465 190.132H348.823V189.53C348.823 189.026 348.692 188.667 348.431 188.452C348.17 188.238 347.722 188.13 347.087 188.13C346.652 188.128 346.221 188.204 345.813 188.354C345.412 188.494 345.052 188.658 344.735 188.844V187.738C345.068 187.548 345.42 187.393 345.785 187.276C346.258 187.114 346.755 187.033 347.255 187.038C348.17 187.038 348.865 187.23 349.341 187.612C349.817 187.986 350.055 188.569 350.055 189.362V193.562C350.064 193.665 350.069 193.772 350.069 193.884L350.097 194.206C350.106 194.3 350.116 194.379 350.125 194.444H349.005C348.969 194.263 348.941 194.081 348.921 193.898C348.904 193.688 348.894 193.478 348.893 193.268L348.879 193.058ZM346.709 193.478C347.092 193.478 347.418 193.399 347.689 193.24C347.96 193.082 348.179 192.9 348.347 192.694C348.498 192.508 348.621 192.3 348.711 192.078C348.786 191.873 348.823 191.728 348.823 191.644V191.112H347.591C346.854 191.112 346.317 191.22 345.981 191.434C345.654 191.64 345.491 191.952 345.491 192.372C345.491 192.699 345.589 192.965 345.785 193.17C345.981 193.376 346.289 193.478 346.709 193.478ZM357.2 193.016C356.992 193.473 356.669 193.869 356.262 194.164C355.861 194.444 355.352 194.584 354.736 194.584C354.298 194.584 353.882 194.51 353.49 194.36C353.099 194.202 352.746 193.964 352.454 193.66C352.141 193.319 351.898 192.919 351.74 192.484C351.563 192.008 351.474 191.448 351.474 190.804C351.474 190.17 351.563 189.619 351.74 189.152C351.918 188.676 352.156 188.284 352.454 187.976C352.753 187.659 353.098 187.426 353.49 187.276C353.891 187.118 354.319 187.037 354.75 187.038C355.301 187.038 355.777 187.155 356.178 187.388C356.58 187.612 356.902 187.934 357.144 188.354V184.406H358.376V194.444H357.298L357.2 193.016ZM354.918 193.478C355.236 193.478 355.53 193.427 355.8 193.324C356.071 193.212 356.304 193.044 356.5 192.82C356.717 192.577 356.879 192.291 356.976 191.98C357.098 191.644 357.158 191.252 357.158 190.804C357.158 190.356 357.098 189.964 356.976 189.628C356.879 189.317 356.717 189.031 356.5 188.788C356.311 188.569 356.07 188.401 355.8 188.298C355.52 188.184 355.22 188.127 354.918 188.13C354.274 188.13 353.747 188.359 353.336 188.816C352.935 189.264 352.734 189.927 352.734 190.804C352.734 191.691 352.94 192.358 353.35 192.806C353.761 193.254 354.284 193.478 354.918 193.478ZM361.619 194.444H360.387V187.178H361.465L361.591 188.48H361.619C361.815 188.07 362.109 187.729 362.501 187.458C362.893 187.178 363.406 187.038 364.041 187.038C364.601 187.038 365.058 187.174 365.413 187.444C365.777 187.706 366.019 188.102 366.141 188.634C366.329 188.161 366.656 187.756 367.079 187.472C367.508 187.183 368.026 187.038 368.633 187.038C369.305 187.038 369.837 187.23 370.229 187.612C370.621 187.986 370.817 188.564 370.817 189.348V194.444H369.571V189.502C369.571 189.026 369.454 188.681 369.221 188.466C368.987 188.242 368.67 188.13 368.269 188.13C367.998 188.13 367.76 188.172 367.555 188.256C367.354 188.328 367.169 188.437 367.009 188.578C366.85 188.718 366.705 188.882 366.575 189.068C366.443 189.257 366.321 189.453 366.211 189.656V194.444H364.979V189.362C364.979 188.896 364.862 188.574 364.629 188.396C364.395 188.219 364.078 188.13 363.677 188.13C363.415 188.13 363.182 188.163 362.977 188.228C362.777 188.291 362.588 188.386 362.417 188.508C362.252 188.636 362.106 188.787 361.983 188.956C361.847 189.133 361.725 189.32 361.619 189.516V194.444ZM373.376 186.114C373.124 186.114 372.924 186.04 372.774 185.89C372.626 185.736 372.546 185.529 372.55 185.316C372.546 185.103 372.627 184.896 372.774 184.742C372.924 184.584 373.124 184.504 373.376 184.504C373.619 184.504 373.81 184.584 373.95 184.742C374.09 184.901 374.16 185.092 374.16 185.316C374.16 185.54 374.09 185.732 373.95 185.89C373.81 186.04 373.619 186.114 373.376 186.114ZM373.978 187.178V194.444H372.746V187.178H373.978ZM379.43 188.13C378.87 188.13 378.413 188.261 378.058 188.522C377.707 188.781 377.42 189.116 377.218 189.502V194.444H375.986V187.178H377.148L377.19 188.48H377.218C377.42 188.053 377.741 187.693 378.142 187.444C378.562 187.174 379.094 187.038 379.738 187.038C380.457 187.038 381.026 187.23 381.446 187.612C381.876 187.986 382.09 188.564 382.09 189.348V194.444H380.858V189.474C380.858 188.97 380.732 188.62 380.48 188.424C380.228 188.228 379.878 188.13 379.43 188.13Z" fill="#18123D"/>
<path d="M215 171H25C22.7909 171 21 172.791 21 175V205C21 207.209 22.7909 209 25 209H215C217.209 209 219 207.209 219 205V175C219 172.791 217.209 171 215 171Z" fill="white" stroke="#67B0F8" stroke-width="2"/>
<path d="M108.141 193.828C108.02 193.915 107.894 193.994 107.763 194.066C107.587 194.163 107.405 194.247 107.217 194.318C106.98 194.399 106.736 194.46 106.489 194.5C106.219 194.556 105.915 194.584 105.579 194.584C104.357 194.584 103.428 194.253 102.793 193.59C102.159 192.928 101.841 191.999 101.841 190.804C101.841 190.216 101.925 189.689 102.093 189.222C102.271 188.756 102.513 188.364 102.821 188.046C103.126 187.722 103.499 187.468 103.913 187.304C104.348 187.124 104.814 187.034 105.285 187.038C105.808 187.038 106.275 187.127 106.685 187.304C107.084 187.472 107.432 187.743 107.693 188.088C107.964 188.434 108.146 188.863 108.239 189.376C108.342 189.88 108.342 190.468 108.239 191.14H103.115C103.162 191.924 103.395 192.512 103.815 192.904C104.235 193.287 104.861 193.478 105.691 193.478C106.251 193.478 106.732 193.399 107.133 193.24C107.488 193.106 107.826 192.933 108.141 192.722V193.828ZM105.257 188.13C104.725 188.13 104.268 188.294 103.885 188.62C103.503 188.947 103.26 189.442 103.157 190.104H107.063C107.101 189.432 106.947 188.938 106.601 188.62C106.256 188.294 105.808 188.13 105.257 188.13ZM114.991 193.016C114.783 193.473 114.46 193.869 114.053 194.164C113.652 194.444 113.143 194.584 112.527 194.584C112.089 194.584 111.673 194.51 111.281 194.36C110.89 194.202 110.537 193.964 110.245 193.66C109.932 193.319 109.689 192.919 109.531 192.484C109.354 192.008 109.265 191.448 109.265 190.804C109.265 190.17 109.354 189.619 109.531 189.152C109.709 188.676 109.947 188.284 110.245 187.976C110.544 187.659 110.889 187.426 111.281 187.276C111.682 187.118 112.11 187.037 112.541 187.038C113.092 187.038 113.568 187.155 113.969 187.388C114.371 187.612 114.693 187.934 114.935 188.354V184.406H116.167V194.444H115.089L114.991 193.016ZM112.709 193.478C113.027 193.478 113.321 193.427 113.591 193.324C113.862 193.212 114.095 193.044 114.291 192.82C114.508 192.577 114.67 192.291 114.767 191.98C114.889 191.644 114.949 191.252 114.949 190.804C114.949 190.356 114.889 189.964 114.767 189.628C114.67 189.317 114.508 189.031 114.291 188.788C114.102 188.569 113.861 188.401 113.591 188.298C113.311 188.184 113.011 188.127 112.709 188.13C112.065 188.13 111.538 188.359 111.127 188.816C110.726 189.264 110.525 189.927 110.525 190.804C110.525 191.691 110.731 192.358 111.141 192.806C111.552 193.254 112.075 193.478 112.709 193.478ZM118.808 186.114C118.556 186.114 118.355 186.04 118.206 185.89C118.058 185.736 117.978 185.529 117.982 185.316C117.978 185.103 118.059 184.896 118.206 184.742C118.355 184.584 118.556 184.504 118.808 184.504C119.051 184.504 119.242 184.584 119.382 184.742C119.522 184.901 119.592 185.092 119.592 185.316C119.592 185.54 119.522 185.732 119.382 185.89C119.242 186.04 119.051 186.114 118.808 186.114ZM119.41 187.178V194.444H118.178V187.178H119.41ZM124.974 194.29C124.793 194.386 124.6 194.456 124.4 194.5C124.157 194.557 123.908 194.585 123.658 194.584C123.303 194.584 123 194.533 122.748 194.43C122.521 194.338 122.316 194.2 122.146 194.024C121.991 193.853 121.872 193.653 121.796 193.436C121.731 193.213 121.698 192.982 121.698 192.75V188.228H120.83V187.178H121.698V185.652H122.93V187.178H125.044V188.228H122.93V192.596C122.93 192.904 123.005 193.128 123.154 193.268C123.313 193.408 123.588 193.478 123.98 193.478C124.344 193.478 124.675 193.376 124.974 193.17V194.29ZM129.527 194.584C129.032 194.584 128.57 194.5 128.141 194.332C127.721 194.17 127.339 193.922 127.021 193.604C126.702 193.26 126.454 192.855 126.293 192.414C126.116 191.948 126.027 191.411 126.027 190.804C126.027 190.207 126.116 189.675 126.293 189.208C126.47 188.732 126.713 188.336 127.021 188.018C127.338 187.701 127.712 187.458 128.141 187.29C128.583 187.12 129.053 187.034 129.527 187.038C130.031 187.038 130.498 187.122 130.927 187.29C131.356 187.458 131.725 187.701 132.033 188.018C132.35 188.336 132.598 188.732 132.775 189.208C132.962 189.675 133.055 190.207 133.055 190.804C133.055 191.411 132.962 191.948 132.775 192.414C132.612 192.858 132.36 193.263 132.033 193.604C131.725 193.922 131.356 194.164 130.927 194.332C130.48 194.503 130.005 194.589 129.527 194.584ZM129.527 193.478C129.833 193.482 130.136 193.43 130.423 193.324C130.698 193.215 130.947 193.048 131.151 192.834C131.356 192.61 131.515 192.33 131.627 191.994C131.746 191.609 131.803 191.207 131.795 190.804C131.795 190.347 131.739 189.95 131.627 189.614C131.532 189.307 131.369 189.025 131.151 188.788C130.952 188.568 130.702 188.4 130.423 188.298C130.138 188.183 129.834 188.126 129.527 188.13C129.2 188.13 128.902 188.186 128.631 188.298C128.358 188.403 128.113 188.57 127.917 188.788C127.721 189.003 127.567 189.278 127.455 189.614C127.336 189.999 127.279 190.401 127.287 190.804C127.287 191.262 127.343 191.658 127.455 191.994C127.567 192.33 127.721 192.61 127.917 192.834C128.122 193.049 128.36 193.212 128.631 193.324C128.918 193.43 129.221 193.482 129.527 193.478ZM138.155 188.41C137.657 188.45 137.172 188.588 136.727 188.816C136.307 189.031 135.994 189.367 135.789 189.824V194.444H134.557V187.178H135.635L135.761 188.76H135.789C135.994 188.331 136.288 187.958 136.671 187.64C137.063 187.314 137.557 187.113 138.155 187.038V188.41Z" fill="#18123D"/>
<path d="M445 91H255C252.791 91 251 92.7909 251 95V125C251 127.209 252.791 129 255 129H445C447.209 129 449 127.209 449 125V95C449 92.7909 447.209 91 445 91Z" fill="white" stroke="#67B0F8" stroke-width="2"/>
<path d="M273.648 100.41C273.15 100.45 272.665 100.588 272.22 100.816C271.8 101.031 271.487 101.367 271.282 101.824V106.444H270.05V99.178H271.128L271.254 100.76H271.282C271.49 100.327 271.791 99.9442 272.164 99.64C272.556 99.314 273.051 99.113 273.648 99.038V100.41ZM280.726 105.828C280.605 105.915 280.479 105.994 280.348 106.066C280.172 106.163 279.99 106.247 279.802 106.318C279.565 106.399 279.321 106.46 279.074 106.5C278.804 106.556 278.5 106.584 278.164 106.584C276.942 106.584 276.013 106.253 275.378 105.59C274.744 104.928 274.426 103.999 274.426 102.804C274.426 102.216 274.51 101.689 274.678 101.222C274.856 100.756 275.098 100.364 275.406 100.046C275.711 99.7215 276.084 99.4682 276.498 99.304C276.918 99.127 277.376 99.038 277.87 99.038C278.393 99.038 278.86 99.128 279.27 99.305C279.681 99.482 280.017 99.743 280.278 100.088C280.549 100.434 280.731 100.863 280.824 101.376C280.927 101.88 280.927 102.468 280.824 103.14H275.7C275.747 103.924 275.98 104.512 276.4 104.904C276.82 105.287 277.446 105.478 278.276 105.478C278.836 105.478 279.317 105.399 279.718 105.24C280.073 105.106 280.411 104.933 280.726 104.722V105.828ZM277.842 100.13C277.31 100.13 276.853 100.294 276.47 100.62C276.088 100.947 275.845 101.442 275.742 102.104H279.648C279.686 101.432 279.532 100.938 279.186 100.62C278.841 100.294 278.393 100.13 277.842 100.13ZM284.692 106.584C284.31 106.584 283.969 106.552 283.67 106.486C283.408 106.437 283.15 106.367 282.9 106.276C282.711 106.196 282.529 106.103 282.354 105.996C282.232 105.915 282.115 105.826 282.004 105.73V104.624C282.098 104.718 282.224 104.82 282.382 104.932C282.541 105.035 282.732 105.133 282.956 105.226C283.18 105.32 283.432 105.399 283.712 105.464C284.002 105.52 284.324 105.548 284.678 105.548C285.201 105.548 285.616 105.464 285.924 105.296C286.232 105.128 286.386 104.844 286.386 104.442C286.386 104.228 286.335 104.055 286.232 103.924C286.131 103.788 285.996 103.682 285.84 103.616C285.653 103.526 285.456 103.46 285.252 103.42C285.024 103.371 284.795 103.324 284.566 103.28C284.261 103.216 283.958 103.146 283.656 103.07C283.37 102.992 283.097 102.874 282.844 102.72C282.606 102.566 282.405 102.36 282.256 102.118C282.107 101.866 282.032 101.54 282.032 101.138C282.032 100.485 282.284 99.972 282.788 99.598C283.302 99.225 284.016 99.038 284.93 99.038C285.444 99.038 285.896 99.09 286.288 99.192C286.69 99.295 286.998 99.407 287.212 99.529V100.634C286.93 100.459 286.623 100.326 286.302 100.242C285.948 100.13 285.504 100.074 284.972 100.074C284.422 100.074 283.997 100.149 283.698 100.298C283.409 100.448 283.264 100.718 283.264 101.11C283.256 101.278 283.3 101.444 283.39 101.586C283.48 101.703 283.595 101.799 283.726 101.866C283.876 101.932 284.044 101.983 284.23 102.02C284.417 102.058 284.613 102.1 284.818 102.146C285.136 102.212 285.462 102.282 285.798 102.356C286.134 102.431 286.433 102.548 286.694 102.706C286.965 102.865 287.184 103.08 287.352 103.35C287.53 103.612 287.618 103.966 287.618 104.414C287.618 104.834 287.534 105.184 287.366 105.464C287.202 105.741 286.971 105.972 286.694 106.136C286.424 106.295 286.111 106.407 285.756 106.472C285.411 106.547 285.056 106.584 284.692 106.584ZM292.118 106.584C291.623 106.584 291.161 106.5 290.732 106.332C290.312 106.17 289.93 105.922 289.612 105.604C289.293 105.26 289.045 104.855 288.884 104.414C288.707 103.948 288.618 103.411 288.618 102.804C288.618 102.207 288.707 101.675 288.884 101.208C289.061 100.732 289.304 100.336 289.612 100.018C289.929 99.701 290.303 99.458 290.732 99.29C291.174 99.1196 291.644 99.0341 292.118 99.038C292.622 99.038 293.089 99.123 293.518 99.29C293.947 99.458 294.316 99.701 294.624 100.018C294.941 100.336 295.189 100.732 295.366 101.208C295.553 101.675 295.646 102.207 295.646 102.804C295.646 103.411 295.553 103.948 295.366 104.414C295.203 104.858 294.951 105.263 294.624 105.604C294.316 105.922 293.947 106.164 293.518 106.332C293.071 106.503 292.596 106.589 292.118 106.584ZM292.118 105.478C292.424 105.482 292.727 105.43 293.014 105.324C293.289 105.215 293.538 105.048 293.742 104.834C293.947 104.61 294.106 104.33 294.218 103.994C294.337 103.609 294.394 103.207 294.386 102.804C294.386 102.347 294.33 101.95 294.218 101.614C294.123 101.307 293.96 101.025 293.742 100.788C293.543 100.568 293.293 100.4 293.014 100.298C292.729 100.183 292.425 100.126 292.118 100.13C291.791 100.13 291.493 100.186 291.222 100.298C290.949 100.403 290.704 100.57 290.508 100.788C290.312 101.003 290.158 101.278 290.046 101.614C289.927 101.999 289.87 102.401 289.878 102.804C289.878 103.262 289.934 103.658 290.046 103.994C290.158 104.33 290.312 104.61 290.508 104.834C290.713 105.049 290.951 105.212 291.222 105.324C291.509 105.43 291.812 105.482 292.118 105.478ZM301.81 105.142C301.614 105.553 301.31 105.898 300.9 106.178C300.498 106.449 299.971 106.584 299.318 106.584C298.646 106.584 298.1 106.398 297.68 106.024C297.269 105.642 297.064 105.054 297.064 104.26V99.178H298.31V104.26C298.31 104.503 298.342 104.704 298.408 104.862C298.482 105.012 298.58 105.133 298.702 105.226C298.823 105.32 298.963 105.385 299.122 105.422C299.29 105.46 299.472 105.478 299.668 105.478C300.209 105.478 300.643 105.357 300.97 105.114C301.296 104.872 301.576 104.54 301.81 104.12V99.178H303.042V106.444H301.95L301.838 105.142H301.81ZM308.662 100.41C308.164 100.45 307.679 100.588 307.234 100.816C306.814 101.031 306.501 101.367 306.296 101.824V106.444H305.064V99.178H306.142L306.268 100.76H306.296C306.504 100.327 306.805 99.9442 307.178 99.64C307.57 99.314 308.064 99.113 308.662 99.038V100.41ZM313.094 106.584C312.534 106.584 312.025 106.5 311.568 106.332C311.138 106.167 310.747 105.914 310.42 105.59C310.095 105.25 309.846 104.844 309.692 104.4C309.524 103.934 309.44 103.402 309.44 102.804C309.44 102.216 309.524 101.689 309.692 101.222C309.853 100.782 310.106 100.381 310.434 100.046C310.76 99.7139 311.157 99.4601 311.596 99.304C312.093 99.1196 312.62 99.0294 313.15 99.038C313.598 99.038 314.009 99.09 314.382 99.192C314.755 99.286 315.063 99.426 315.306 99.612V100.718C314.997 100.518 314.656 100.371 314.298 100.284C313.929 100.181 313.547 100.129 313.164 100.13C312.315 100.13 311.689 100.35 311.288 100.788C310.896 101.227 310.7 101.899 310.7 102.804C310.7 103.71 310.891 104.382 311.274 104.82C311.657 105.259 312.263 105.478 313.094 105.478C313.533 105.478 313.934 105.427 314.298 105.324C314.648 105.221 314.986 105.081 315.306 104.904V106.01C314.634 106.398 313.87 106.596 313.094 106.584ZM322.59 105.828C322.469 105.914 322.342 105.994 322.212 106.066C322.062 106.15 321.88 106.234 321.666 106.318C321.429 106.399 321.185 106.46 320.938 106.5C320.638 106.559 320.333 106.587 320.028 106.584C318.805 106.584 317.876 106.253 317.242 105.59C316.607 104.928 316.29 103.999 316.29 102.804C316.29 102.216 316.374 101.689 316.542 101.222C316.719 100.756 316.962 100.364 317.27 100.046C317.575 99.7215 317.948 99.4682 318.362 99.304C318.782 99.127 319.239 99.038 319.734 99.038C320.256 99.038 320.723 99.128 321.134 99.305C321.544 99.482 321.88 99.743 322.142 100.088C322.412 100.434 322.594 100.863 322.688 101.376C322.79 101.88 322.79 102.468 322.688 103.14H317.564C317.61 103.924 317.844 104.512 318.264 104.904C318.684 105.287 319.309 105.478 320.14 105.478C320.7 105.478 321.18 105.399 321.582 105.24C321.936 105.106 322.275 104.932 322.59 104.722V105.828ZM319.706 100.13C319.174 100.13 318.716 100.294 318.334 100.62C317.951 100.947 317.708 101.442 317.606 102.104H321.512C321.549 101.432 321.395 100.938 321.05 100.62C320.704 100.294 320.256 100.13 319.706 100.13ZM324.064 101.614H327.424V102.734H324.064V101.614ZM330.508 106.444H329.276V99.178H330.354L330.48 100.48H330.508C330.704 100.07 330.998 99.73 331.39 99.458C331.782 99.178 332.296 99.038 332.93 99.038C333.49 99.038 333.948 99.174 334.302 99.445C334.666 99.705 334.909 100.102 335.03 100.634C335.236 100.14 335.548 99.752 335.968 99.472C336.398 99.183 336.916 99.039 337.522 99.039C338.194 99.039 338.726 99.229 339.118 99.612C339.51 99.986 339.706 100.564 339.706 101.348V106.444H338.46V101.502C338.46 101.026 338.344 100.681 338.11 100.466C337.877 100.242 337.56 100.13 337.158 100.13C336.888 100.13 336.65 100.172 336.444 100.256C336.243 100.328 336.058 100.437 335.898 100.578C335.74 100.718 335.595 100.882 335.464 101.068C335.334 101.255 335.212 101.451 335.1 101.656V106.444H333.868V101.362C333.868 100.896 333.752 100.574 333.518 100.396C333.285 100.219 332.968 100.13 332.566 100.13C332.305 100.13 332.072 100.163 331.866 100.228C331.666 100.291 331.477 100.386 331.306 100.508C331.141 100.637 330.995 100.787 330.872 100.956C330.742 101.124 330.62 101.311 330.508 101.516V106.444ZM345.892 105.058C345.798 105.243 345.69 105.421 345.57 105.59C345.271 105.991 344.855 106.289 344.38 106.444C344.082 106.543 343.77 106.591 343.456 106.584C342.803 106.584 342.275 106.402 341.874 106.038C341.473 105.665 341.272 105.133 341.272 104.442C341.272 103.649 341.547 103.066 342.098 102.692C342.658 102.319 343.451 102.132 344.478 102.132H345.836V101.53C345.836 101.026 345.705 100.667 345.444 100.452C345.183 100.238 344.735 100.13 344.1 100.13C343.665 100.128 343.234 100.204 342.826 100.354C342.425 100.494 342.065 100.658 341.748 100.844V99.739C342.081 99.548 342.433 99.3928 342.798 99.276C343.271 99.1136 343.768 99.0334 344.268 99.039C345.183 99.039 345.878 99.229 346.354 99.612C346.83 99.986 347.068 100.569 347.068 101.362V105.562C347.077 105.665 347.082 105.772 347.082 105.884L347.11 106.206C347.119 106.3 347.129 106.379 347.138 106.444H346.018C345.982 106.263 345.954 106.081 345.934 105.898C345.917 105.688 345.907 105.478 345.906 105.268L345.892 105.058ZM343.722 105.478C344.105 105.478 344.431 105.399 344.702 105.24C344.973 105.082 345.192 104.9 345.36 104.694C345.511 104.508 345.634 104.3 345.724 104.078C345.799 103.873 345.836 103.728 345.836 103.644V103.112H344.604C343.867 103.112 343.33 103.22 342.994 103.434C342.667 103.64 342.504 103.952 342.504 104.372C342.504 104.699 342.602 104.965 342.798 105.17C342.994 105.376 343.302 105.478 343.722 105.478ZM352.449 100.13C351.889 100.13 351.432 100.261 351.077 100.522C350.726 100.781 350.439 101.116 350.237 101.502V106.444H349.005V99.178H350.167L350.209 100.48H350.237C350.433 100.06 350.741 99.715 351.161 99.445C351.581 99.174 352.113 99.039 352.757 99.039C353.476 99.039 354.045 99.229 354.465 99.612C354.894 99.986 355.109 100.564 355.109 101.348V106.444H353.877V101.474C353.877 100.97 353.751 100.62 353.499 100.424C353.247 100.228 352.897 100.13 352.449 100.13ZM361.314 105.058C361.22 105.243 361.112 105.421 360.992 105.59C360.693 105.991 360.277 106.289 359.802 106.444C359.54 106.538 359.232 106.584 358.878 106.584C358.224 106.584 357.697 106.402 357.296 106.038C356.894 105.665 356.694 105.133 356.694 104.442C356.694 103.649 356.969 103.066 357.52 102.692C358.08 102.319 358.873 102.132 359.9 102.132H361.258V101.53C361.258 101.026 361.127 100.667 360.866 100.452C360.604 100.238 360.156 100.13 359.522 100.13C359.087 100.128 358.656 100.204 358.248 100.354C357.846 100.494 357.487 100.658 357.17 100.844V99.739C357.503 99.548 357.855 99.3928 358.22 99.276C358.693 99.1136 359.19 99.0334 359.69 99.039C360.604 99.039 361.3 99.229 361.776 99.612C362.252 99.986 362.49 100.569 362.49 101.362V105.562C362.499 105.665 362.504 105.772 362.504 105.884C362.513 105.996 362.522 106.104 362.532 106.206C362.541 106.3 362.55 106.379 362.56 106.444H361.44C361.404 106.263 361.376 106.081 361.356 105.898C361.339 105.688 361.329 105.478 361.328 105.268L361.314 105.058ZM359.144 105.478C359.526 105.478 359.853 105.399 360.124 105.24C360.394 105.082 360.614 104.9 360.782 104.694C360.933 104.508 361.056 104.3 361.146 104.078C361.22 103.873 361.258 103.728 361.258 103.644V103.112H360.026C359.288 103.112 358.752 103.22 358.416 103.434C358.089 103.64 357.926 103.952 357.926 104.372C357.926 104.699 358.024 104.965 358.22 105.17C358.416 105.376 358.724 105.478 359.144 105.478ZM370.671 105.828C370.671 106.295 370.601 106.72 370.461 107.102C370.337 107.484 370.115 107.827 369.817 108.096C369.528 108.367 369.15 108.577 368.683 108.726C368.226 108.876 367.67 108.95 367.017 108.95C366.662 108.95 366.35 108.932 366.079 108.894C365.837 108.864 365.598 108.812 365.365 108.74C365.191 108.693 365.022 108.627 364.861 108.544C364.739 108.489 364.622 108.424 364.511 108.348V107.242C364.66 107.326 364.814 107.401 364.973 107.466C365.356 107.634 365.762 107.743 366.177 107.788C366.429 107.826 366.714 107.844 367.031 107.844C367.927 107.844 368.552 107.676 368.907 107.34C369.262 107.004 369.439 106.505 369.439 105.842V104.722C369.224 105.152 368.921 105.497 368.529 105.758C368.146 106.02 367.67 106.15 367.101 106.15C366.672 106.15 366.261 106.076 365.869 105.926C365.487 105.778 365.14 105.554 364.847 105.268C364.544 104.948 364.306 104.573 364.147 104.162C363.979 103.714 363.895 103.196 363.895 102.608C363.895 102.011 363.979 101.493 364.147 101.054C364.324 100.606 364.558 100.233 364.847 99.934C365.141 99.6391 365.494 99.4104 365.883 99.263C366.275 99.113 366.69 99.038 367.129 99.038C367.708 99.038 368.193 99.169 368.585 99.43C368.986 99.692 369.299 100.046 369.523 100.494L369.537 100.34C369.537 100.172 369.546 99.972 369.565 99.738C369.584 99.496 369.602 99.309 369.621 99.178H370.741C370.722 99.309 370.704 99.496 370.685 99.738C370.676 99.981 370.671 100.182 370.671 100.34V105.828ZM367.325 105.044C367.633 105.044 367.913 104.998 368.165 104.904C368.422 104.805 368.652 104.646 368.837 104.442C369.033 104.237 369.182 103.985 369.285 103.686C369.403 103.339 369.46 102.974 369.453 102.608C369.453 101.778 369.248 101.157 368.837 100.746C368.436 100.336 367.927 100.13 367.311 100.13C367.003 100.13 366.714 100.182 366.443 100.284C366.182 100.387 365.953 100.541 365.757 100.746C365.557 100.975 365.405 101.241 365.309 101.53C365.191 101.877 365.134 102.242 365.141 102.608C365.141 103.019 365.197 103.378 365.309 103.686C365.421 103.985 365.575 104.237 365.771 104.442C365.967 104.638 366.196 104.788 366.457 104.89C366.728 104.993 367.017 105.044 367.325 105.044ZM378.453 105.828C378.332 105.914 378.205 105.994 378.075 106.066C377.899 106.163 377.717 106.247 377.529 106.318C377.292 106.399 377.048 106.46 376.801 106.5C376.501 106.559 376.196 106.587 375.891 106.584C374.668 106.584 373.74 106.253 373.105 105.59C372.47 104.928 372.153 103.999 372.153 102.804C372.153 102.216 372.237 101.689 372.405 101.222C372.582 100.756 372.825 100.364 373.133 100.046C373.438 99.7215 373.811 99.4682 374.225 99.304C374.645 99.127 375.102 99.038 375.597 99.038C376.077 99.03 376.554 99.1209 376.997 99.305C377.408 99.482 377.744 99.743 378.005 100.088C378.276 100.434 378.458 100.863 378.551 101.376C378.654 101.88 378.654 102.468 378.551 103.14H373.427C373.474 103.924 373.707 104.512 374.127 104.904C374.547 105.287 375.172 105.478 376.003 105.478C376.563 105.478 377.044 105.399 377.445 105.24C377.799 105.106 378.138 104.932 378.453 104.722V105.828ZM375.569 100.13C375.037 100.13 374.58 100.294 374.197 100.62C373.814 100.947 373.572 101.442 373.469 102.104H377.375C377.412 101.432 377.258 100.938 376.913 100.62C376.568 100.294 376.12 100.13 375.569 100.13ZM383.693 100.41C383.195 100.45 382.71 100.588 382.265 100.816C381.845 101.031 381.532 101.367 381.327 101.824V106.444H380.095V99.178H381.173L381.299 100.76H381.327C381.535 100.327 381.836 99.9442 382.209 99.64C382.601 99.314 383.096 99.113 383.693 99.038V100.41ZM385.032 106.528C384.762 106.528 384.542 106.444 384.374 106.276C384.293 106.193 384.228 106.094 384.185 105.986C384.142 105.878 384.12 105.762 384.122 105.646C384.122 105.385 384.206 105.17 384.374 105.002C384.542 104.834 384.762 104.75 385.032 104.75C385.294 104.75 385.508 104.834 385.676 105.002C385.76 105.087 385.825 105.187 385.868 105.298C385.912 105.409 385.932 105.527 385.928 105.646C385.93 105.762 385.908 105.878 385.865 105.986C385.822 106.094 385.757 106.193 385.676 106.276C385.592 106.36 385.491 106.425 385.38 106.469C385.269 106.512 385.151 106.532 385.032 106.528ZM390.573 106.584C390.013 106.584 389.504 106.5 389.047 106.332C388.617 106.167 388.226 105.914 387.899 105.59C387.573 105.251 387.325 104.845 387.171 104.4C387.003 103.934 386.919 103.402 386.919 102.804C386.919 102.216 387.003 101.689 387.171 101.222C387.348 100.756 387.595 100.364 387.913 100.046C388.239 99.7137 388.636 99.4599 389.075 99.304C389.572 99.1196 390.099 99.0294 390.629 99.038C391.077 99.038 391.487 99.09 391.861 99.192C392.234 99.286 392.542 99.426 392.785 99.612V100.718C392.476 100.518 392.135 100.371 391.777 100.284C391.408 100.181 391.026 100.129 390.643 100.13C389.793 100.13 389.168 100.35 388.767 100.788C388.375 101.227 388.179 101.899 388.179 102.804C388.179 103.71 388.37 104.382 388.753 104.82C389.135 105.259 389.742 105.478 390.573 105.478C391.011 105.478 391.413 105.427 391.777 105.324C392.127 105.221 392.465 105.081 392.785 104.904V106.01C392.113 106.398 391.349 106.596 390.573 106.584ZM395.518 96.406V106.444H394.286V96.406H395.518ZM400.508 106.584C400.014 106.584 399.552 106.5 399.122 106.332C398.702 106.17 398.321 105.922 398.002 105.604C397.683 105.259 397.436 104.855 397.274 104.414C397.097 103.948 397.008 103.411 397.008 102.804C397.008 102.207 397.097 101.675 397.274 101.208C397.452 100.732 397.694 100.336 398.002 100.018C398.32 99.701 398.693 99.458 399.122 99.29C399.552 99.122 400.014 99.038 400.508 99.038C401.012 99.038 401.479 99.123 401.908 99.29C402.338 99.458 402.706 99.701 403.014 100.018C403.332 100.336 403.579 100.732 403.756 101.208C403.943 101.675 404.036 102.207 404.036 102.804C404.036 103.411 403.943 103.948 403.756 104.414C403.594 104.858 403.341 105.263 403.014 105.604C402.706 105.922 402.338 106.164 401.908 106.332C401.461 106.503 400.986 106.589 400.508 106.584ZM400.508 105.478C400.835 105.478 401.134 105.427 401.404 105.324C401.679 105.215 401.928 105.048 402.132 104.834C402.349 104.591 402.511 104.305 402.608 103.994C402.727 103.609 402.784 103.207 402.776 102.804C402.776 102.347 402.72 101.95 402.608 101.614C402.513 101.307 402.35 101.024 402.132 100.788C401.933 100.568 401.683 100.4 401.404 100.298C401.119 100.183 400.815 100.126 400.508 100.13C400.182 100.13 399.883 100.186 399.612 100.298C399.342 100.401 399.104 100.564 398.898 100.788C398.702 101.003 398.548 101.278 398.436 101.614C398.317 101.999 398.26 102.401 398.268 102.804C398.268 103.262 398.324 103.658 398.436 103.994C398.548 104.33 398.702 104.61 398.898 104.834C399.104 105.049 399.342 105.212 399.612 105.324C399.883 105.427 400.182 105.478 400.508 105.478ZM410.2 105.142C409.995 105.563 409.681 105.921 409.29 106.178C408.889 106.449 408.362 106.584 407.708 106.584C407.036 106.584 406.49 106.398 406.07 106.024C405.66 105.642 405.454 105.054 405.454 104.26V99.178H406.7V104.26C406.7 104.503 406.733 104.704 406.798 104.862C406.866 105.004 406.966 105.128 407.09 105.225C407.214 105.322 407.358 105.389 407.512 105.422C407.68 105.46 407.862 105.478 408.058 105.478C408.6 105.478 409.034 105.357 409.36 105.114C409.687 104.872 409.967 104.54 410.2 104.12V99.178H411.432V106.444H410.34L410.228 105.142H410.2ZM418.662 105.016C418.454 105.473 418.131 105.869 417.724 106.164C417.323 106.444 416.814 106.584 416.198 106.584C415.76 106.584 415.344 106.51 414.952 106.36C414.561 106.202 414.208 105.964 413.916 105.66C413.603 105.319 413.36 104.919 413.202 104.484C413.025 104.008 412.936 103.448 412.936 102.804C412.936 102.17 413.025 101.619 413.202 101.152C413.38 100.676 413.618 100.284 413.916 99.977C414.215 99.659 414.56 99.426 414.952 99.277C415.353 99.1181 415.781 99.037 416.212 99.038C416.763 99.038 417.239 99.155 417.64 99.388C418.042 99.612 418.364 99.934 418.606 100.354V96.406H419.838V106.444H418.76L418.662 105.016ZM416.38 105.478C416.698 105.478 416.992 105.427 417.262 105.324C417.533 105.212 417.766 105.044 417.962 104.82C418.179 104.577 418.341 104.291 418.438 103.98C418.56 103.644 418.62 103.252 418.62 102.804C418.62 102.356 418.56 101.964 418.438 101.628C418.341 101.317 418.179 101.031 417.962 100.788C417.773 100.569 417.532 100.401 417.262 100.298C416.982 100.184 416.682 100.127 416.38 100.13C415.736 100.13 415.209 100.359 414.798 100.816C414.397 101.264 414.196 101.927 414.196 102.804C414.196 103.691 414.402 104.358 414.812 104.806C415.223 105.254 415.746 105.478 416.38 105.478ZM424.173 106.584C423.79 106.584 423.449 106.552 423.151 106.486C422.889 106.438 422.631 106.367 422.381 106.276C422.192 106.197 422.01 106.103 421.835 105.996C421.713 105.915 421.596 105.826 421.485 105.73V104.624C421.578 104.718 421.704 104.82 421.863 104.932C422.021 105.035 422.213 105.133 422.437 105.226C422.661 105.32 422.913 105.399 423.193 105.464C423.482 105.52 423.804 105.548 424.159 105.548C424.681 105.548 425.097 105.464 425.405 105.296C425.713 105.128 425.867 104.844 425.867 104.442C425.867 104.228 425.815 104.055 425.713 103.924C425.612 103.788 425.477 103.682 425.321 103.616C425.134 103.526 424.937 103.46 424.733 103.42C424.505 103.371 424.276 103.325 424.047 103.28C423.742 103.216 423.439 103.146 423.137 103.07C422.838 102.986 422.567 102.87 422.325 102.72C422.086 102.566 421.885 102.36 421.737 102.118C421.587 101.866 421.513 101.54 421.513 101.138C421.513 100.485 421.765 99.972 422.269 99.598C422.782 99.225 423.496 99.038 424.411 99.038C424.924 99.038 425.377 99.09 425.769 99.192C426.17 99.295 426.478 99.407 426.693 99.529V100.634C426.411 100.459 426.104 100.327 425.783 100.242C425.428 100.13 424.985 100.074 424.453 100.074C423.902 100.074 423.477 100.149 423.179 100.298C422.889 100.448 422.745 100.718 422.745 101.11C422.737 101.278 422.781 101.444 422.871 101.586C422.961 101.703 423.076 101.799 423.207 101.866C423.356 101.932 423.524 101.983 423.711 102.02C423.897 102.058 424.093 102.1 424.299 102.146C424.616 102.212 424.943 102.282 425.279 102.356C425.615 102.431 425.913 102.548 426.175 102.706C426.445 102.865 426.665 103.08 426.833 103.35C427.01 103.612 427.099 103.966 427.099 104.414C427.099 104.834 427.015 105.184 426.847 105.464C426.682 105.741 426.451 105.972 426.175 106.136C425.884 106.302 425.567 106.416 425.237 106.472C424.891 106.547 424.537 106.584 424.173 106.584ZM429.288 106.528C429.018 106.528 428.798 106.444 428.63 106.276C428.549 106.193 428.484 106.094 428.441 105.986C428.398 105.878 428.376 105.762 428.378 105.646C428.378 105.385 428.462 105.17 428.63 105.002C428.798 104.834 429.018 104.75 429.288 104.75C429.55 104.75 429.764 104.834 429.932 105.002C430.016 105.087 430.081 105.187 430.124 105.298C430.168 105.409 430.188 105.527 430.184 105.646C430.186 105.762 430.164 105.878 430.121 105.986C430.078 106.094 430.013 106.193 429.932 106.276C429.848 106.36 429.747 106.425 429.636 106.469C429.525 106.512 429.407 106.532 429.288 106.528ZM325.71 123.444H324.478V116.178H325.556L325.682 117.48H325.71C325.906 117.07 326.2 116.729 326.592 116.458C326.984 116.178 327.497 116.038 328.132 116.038C328.692 116.038 329.149 116.174 329.504 116.444C329.868 116.706 330.11 117.102 330.232 117.634C330.42 117.161 330.747 116.756 331.17 116.472C331.599 116.183 332.117 116.038 332.724 116.038C333.396 116.038 333.928 116.23 334.32 116.612C334.712 116.986 334.908 117.564 334.908 118.348V123.444H333.662V118.502C333.662 118.026 333.545 117.681 333.312 117.466C333.078 117.242 332.761 117.13 332.36 117.13C332.089 117.13 331.851 117.172 331.646 117.256C331.445 117.328 331.26 117.437 331.1 117.578C330.941 117.718 330.796 117.882 330.666 118.068C330.534 118.257 330.412 118.453 330.302 118.656V123.444H329.07V118.362C329.07 117.896 328.953 117.574 328.72 117.396C328.486 117.219 328.169 117.13 327.768 117.13C327.506 117.13 327.273 117.163 327.068 117.228C326.868 117.291 326.679 117.386 326.508 117.508C326.343 117.636 326.197 117.787 326.074 117.956C325.938 118.133 325.816 118.32 325.71 118.516V123.444ZM342.619 122.828C342.498 122.914 342.371 122.994 342.241 123.066C342.065 123.163 341.883 123.247 341.695 123.318C341.458 123.399 341.214 123.46 340.967 123.5C340.667 123.559 340.362 123.587 340.057 123.584C338.834 123.584 337.906 123.253 337.271 122.59C336.636 121.928 336.319 120.999 336.319 119.804C336.319 119.216 336.403 118.689 336.571 118.222C336.748 117.756 336.991 117.364 337.299 117.046C337.604 116.722 337.977 116.468 338.391 116.304C338.811 116.127 339.268 116.038 339.763 116.038C340.286 116.038 340.752 116.127 341.163 116.304C341.562 116.472 341.91 116.743 342.171 117.088C342.442 117.434 342.624 117.863 342.717 118.376C342.82 118.88 342.82 119.468 342.717 120.14H337.593C337.64 120.924 337.873 121.512 338.293 121.904C338.713 122.287 339.338 122.478 340.169 122.478C340.729 122.478 341.21 122.399 341.611 122.24C341.965 122.106 342.304 121.932 342.619 121.722V122.828ZM339.735 117.13C339.203 117.13 338.746 117.294 338.363 117.62C337.98 117.947 337.738 118.442 337.635 119.104H341.541C341.578 118.432 341.424 117.938 341.079 117.62C340.734 117.294 340.286 117.13 339.735 117.13ZM345.493 123.444H344.261V116.178H345.339L345.465 117.48H345.493C345.689 117.07 345.983 116.729 346.375 116.458C346.767 116.178 347.28 116.038 347.915 116.038C348.475 116.038 348.932 116.174 349.287 116.444C349.651 116.706 349.894 117.102 350.015 117.634C350.203 117.161 350.53 116.756 350.953 116.472C351.382 116.183 351.9 116.038 352.507 116.038C353.179 116.038 353.711 116.23 354.103 116.612C354.495 116.986 354.691 117.564 354.691 118.348V123.444H353.445V118.502C353.445 118.026 353.328 117.681 353.095 117.466C352.862 117.242 352.544 117.13 352.143 117.13C351.872 117.13 351.634 117.172 351.429 117.256C351.228 117.328 351.043 117.437 350.883 117.578C350.724 117.718 350.58 117.882 350.449 118.068C350.317 118.257 350.195 118.453 350.085 118.656V123.444H348.853V118.362C348.853 117.896 348.736 117.574 348.503 117.396C348.27 117.219 347.952 117.13 347.551 117.13C347.29 117.13 347.056 117.163 346.851 117.228C346.651 117.291 346.462 117.386 346.291 117.508C346.126 117.636 345.98 117.787 345.857 117.956C345.721 118.133 345.599 118.32 345.493 118.516V123.444ZM363.522 119.804C363.522 120.448 363.434 121.008 363.256 121.484C363.098 121.919 362.856 122.319 362.542 122.66C362.25 122.964 361.897 123.203 361.506 123.36C361.114 123.51 360.704 123.584 360.274 123.584C359.714 123.584 359.224 123.454 358.804 123.192C358.385 122.911 358.047 122.525 357.824 122.072L357.782 123.444H356.62V113.406H357.852L357.824 117.592C358.067 117.116 358.394 116.738 358.804 116.458C359.215 116.178 359.724 116.038 360.33 116.038C360.75 116.038 361.152 116.118 361.534 116.276C361.926 116.426 362.267 116.659 362.556 116.976C362.855 117.284 363.088 117.676 363.256 118.152C363.434 118.619 363.522 119.17 363.522 119.804ZM360.092 122.478C360.736 122.478 361.254 122.259 361.646 121.82C362.048 121.372 362.248 120.7 362.248 119.804C362.248 118.927 362.048 118.264 361.646 117.816C361.254 117.359 360.736 117.13 360.092 117.13C359.775 117.13 359.476 117.186 359.196 117.298C358.926 117.41 358.688 117.578 358.482 117.802C358.271 118.044 358.109 118.324 358.006 118.628C357.887 119.008 357.831 119.406 357.838 119.804C357.838 120.252 357.894 120.644 358.006 120.98C358.128 121.316 358.286 121.596 358.482 121.82C358.688 122.044 358.926 122.212 359.196 122.324C359.476 122.427 359.775 122.478 360.092 122.478ZM370.797 122.828C370.676 122.914 370.549 122.994 370.419 123.066C370.269 123.15 370.087 123.234 369.873 123.318C369.636 123.399 369.392 123.46 369.145 123.5C368.845 123.559 368.54 123.587 368.235 123.584C367.012 123.584 366.083 123.253 365.449 122.59C364.814 121.928 364.497 120.999 364.497 119.804C364.497 119.216 364.581 118.689 364.749 118.222C364.926 117.756 365.169 117.364 365.477 117.046C365.782 116.722 366.155 116.468 366.569 116.304C366.989 116.127 367.446 116.038 367.941 116.038C368.463 116.038 368.93 116.127 369.341 116.304C369.751 116.482 370.087 116.743 370.349 117.088C370.619 117.434 370.801 117.863 370.895 118.376C370.997 118.88 370.997 119.468 370.895 120.14H365.771C365.817 120.924 366.051 121.512 366.471 121.904C366.891 122.287 367.516 122.478 368.347 122.478C368.907 122.478 369.387 122.399 369.789 122.24C370.143 122.106 370.482 121.932 370.797 121.722V122.828ZM367.913 117.13C367.381 117.13 366.923 117.294 366.541 117.62C366.158 117.947 365.915 118.442 365.813 119.104H369.719C369.756 118.432 369.602 117.938 369.257 117.62C368.911 117.294 368.463 117.13 367.913 117.13ZM376.037 117.41C375.539 117.45 375.054 117.588 374.609 117.816C374.189 118.031 373.876 118.367 373.671 118.824V123.444H372.439V116.178H373.517L373.643 117.76H373.671C373.876 117.331 374.17 116.958 374.553 116.64C374.945 116.314 375.439 116.113 376.037 116.038V117.41Z" fill="#18123D"/>
<path d="M215 91H25C22.7909 91 21 92.7909 21 95V125C21 127.209 22.7909 129 25 129H215C217.209 129 219 127.209 219 125V95C219 92.7909 217.209 91 215 91Z" fill="white" stroke="#67B0F8" stroke-width="2"/>
<path d="M105.556 113.058C105.462 113.243 105.354 113.421 105.234 113.59C104.935 113.991 104.519 114.289 104.044 114.444C103.746 114.543 103.434 114.591 103.12 114.584C102.467 114.584 101.939 114.402 101.538 114.038C101.137 113.665 100.936 113.133 100.936 112.442C100.936 111.649 101.211 111.066 101.762 110.692C102.322 110.319 103.115 110.132 104.142 110.132H105.5V109.53C105.5 109.026 105.369 108.667 105.108 108.452C104.847 108.238 104.399 108.13 103.764 108.13C103.329 108.128 102.898 108.204 102.49 108.354C102.089 108.494 101.729 108.658 101.412 108.844V107.738C101.745 107.548 102.097 107.393 102.462 107.276C102.935 107.114 103.432 107.033 103.932 107.038C104.847 107.038 105.542 107.23 106.018 107.612C106.494 107.986 106.732 108.569 106.732 109.362V113.562C106.741 113.665 106.746 113.772 106.746 113.884L106.774 114.206C106.783 114.3 106.793 114.379 106.802 114.444H105.682C105.646 114.263 105.618 114.081 105.598 113.898C105.581 113.688 105.571 113.478 105.57 113.268L105.556 113.058ZM103.386 113.478C103.769 113.478 104.095 113.399 104.366 113.24C104.637 113.082 104.856 112.9 105.024 112.694C105.175 112.508 105.298 112.3 105.388 112.078C105.463 111.873 105.5 111.728 105.5 111.644V111.112H104.268C103.531 111.112 102.994 111.22 102.658 111.434C102.331 111.64 102.168 111.952 102.168 112.372C102.168 112.699 102.266 112.965 102.462 113.17C102.658 113.376 102.966 113.478 103.386 113.478ZM113.877 113.016C113.668 113.473 113.345 113.869 112.939 114.164C112.538 114.444 112.029 114.584 111.413 114.584C110.974 114.584 110.559 114.51 110.167 114.36C109.776 114.202 109.423 113.964 109.131 113.66C108.817 113.319 108.575 112.919 108.417 112.484C108.24 112.008 108.151 111.448 108.151 110.804C108.151 110.17 108.24 109.619 108.417 109.152C108.594 108.676 108.832 108.284 109.131 107.976C109.43 107.659 109.775 107.426 110.167 107.276C110.568 107.118 110.996 107.037 111.427 107.038C111.978 107.038 112.454 107.155 112.855 107.388C113.256 107.612 113.578 107.934 113.821 108.354V104.406H115.053V114.444H113.975L113.877 113.016ZM111.595 113.478C111.912 113.478 112.206 113.427 112.477 113.324C112.748 113.212 112.981 113.044 113.177 112.82C113.382 112.596 113.541 112.316 113.653 111.98C113.774 111.644 113.835 111.252 113.835 110.804C113.835 110.356 113.774 109.964 113.653 109.628C113.555 109.318 113.393 109.031 113.177 108.788C112.988 108.569 112.747 108.401 112.477 108.298C112.197 108.184 111.897 108.127 111.595 108.13C110.951 108.13 110.424 108.359 110.013 108.816C109.612 109.264 109.411 109.927 109.411 110.804C109.411 111.691 109.616 112.358 110.027 112.806C110.438 113.254 110.96 113.478 111.595 113.478ZM118.296 114.444H117.064V107.178H118.142L118.268 108.48H118.296C118.492 108.07 118.786 107.729 119.178 107.458C119.57 107.178 120.083 107.038 120.718 107.038C121.278 107.038 121.735 107.174 122.09 107.444C122.454 107.706 122.696 108.102 122.818 108.634C123.006 108.161 123.333 107.756 123.756 107.472C124.185 107.183 124.703 107.038 125.31 107.038C125.982 107.038 126.514 107.23 126.906 107.612C127.298 107.986 127.494 108.564 127.494 109.348V114.444H126.248V109.502C126.248 109.026 126.131 108.681 125.898 108.466C125.664 108.242 125.347 108.13 124.946 108.13C124.675 108.13 124.437 108.172 124.232 108.256C124.031 108.328 123.846 108.437 123.686 108.578C123.527 108.718 123.382 108.882 123.252 109.068C123.12 109.257 122.998 109.453 122.888 109.656V114.444H121.656V109.362C121.656 108.896 121.539 108.574 121.306 108.396C121.072 108.219 120.755 108.13 120.354 108.13C120.092 108.13 119.859 108.163 119.654 108.228C119.454 108.291 119.265 108.386 119.094 108.508C118.929 108.636 118.783 108.787 118.66 108.956C118.524 109.133 118.402 109.32 118.296 109.516V114.444ZM130.053 106.114C129.801 106.114 129.6 106.04 129.451 105.89C129.303 105.736 129.223 105.529 129.227 105.316C129.223 105.103 129.304 104.896 129.451 104.742C129.6 104.584 129.801 104.504 130.053 104.504C130.296 104.504 130.487 104.584 130.627 104.742C130.767 104.901 130.837 105.092 130.837 105.316C130.837 105.54 130.767 105.732 130.627 105.89C130.487 106.04 130.296 106.114 130.053 106.114ZM130.655 107.178V114.444H129.423V107.178H130.655ZM136.107 108.13C135.547 108.13 135.09 108.261 134.735 108.522C134.384 108.781 134.097 109.116 133.895 109.502V114.444H132.663V107.178H133.825L133.867 108.48H133.895C134.097 108.053 134.418 107.693 134.819 107.444C135.239 107.174 135.771 107.038 136.415 107.038C137.134 107.038 137.703 107.23 138.123 107.612C138.553 107.986 138.767 108.564 138.767 109.348V114.444H137.535V109.474C137.535 108.97 137.409 108.62 137.157 108.424C136.905 108.228 136.555 108.13 136.107 108.13Z" fill="#18123D"/>
<path d="M215 11H25C22.7909 11 21 12.7909 21 15V45C21 47.2091 22.7909 49 25 49H215C217.209 49 219 47.2091 219 45V15C219 12.7909 217.209 11 215 11Z" fill="white" stroke="#67B0F8" stroke-width="2"/>
<path d="M43.648 20.41C43.1498 20.4499 42.6644 20.5882 42.22 20.817C41.7989 21.0328 41.467 21.3895 41.282 21.825V26.445H40.05V19.178H41.128L41.254 20.76H41.282C41.487 20.331 41.782 19.958 42.164 19.64C42.556 19.314 43.051 19.113 43.648 19.038V20.41ZM50.726 25.828C50.6047 25.9148 50.4785 25.9946 50.348 26.067C50.172 26.1634 49.9896 26.2476 49.802 26.319C49.5647 26.399 49.3212 26.4595 49.074 26.5C48.804 26.556 48.5 26.584 48.164 26.584C46.942 26.584 46.014 26.254 45.378 25.59C44.744 24.928 44.426 24 44.426 22.805C44.426 22.217 44.51 21.689 44.678 21.223C44.856 20.756 45.098 20.363 45.406 20.047C45.711 19.7223 46.0839 19.469 46.498 19.305C46.9327 19.1244 47.3993 19.0336 47.87 19.038C48.393 19.038 48.86 19.128 49.27 19.305C49.681 19.482 50.017 19.743 50.278 20.089C50.549 20.434 50.731 20.863 50.824 21.377C50.927 21.881 50.927 22.468 50.824 23.141H45.7C45.747 23.925 45.98 24.513 46.4 24.905C46.82 25.287 47.446 25.478 48.276 25.478C48.836 25.478 49.317 25.399 49.718 25.24C50.0723 25.106 50.4104 24.9326 50.726 24.723V25.828ZM47.842 20.131C47.31 20.131 46.853 20.294 46.47 20.621C46.088 20.947 45.845 21.441 45.742 22.105H49.648C49.686 21.433 49.532 20.938 49.186 20.62C48.841 20.294 48.393 20.13 47.842 20.13V20.131ZM54.692 26.584C54.3488 26.5879 54.0062 26.555 53.67 26.486C53.4079 26.4375 53.1504 26.3672 52.9 26.276C52.7114 26.1961 52.5289 26.1025 52.354 25.996C52.2322 25.9147 52.1153 25.8262 52.004 25.731V24.624C52.098 24.718 52.224 24.821 52.382 24.933C52.541 25.035 52.732 25.133 52.956 25.227C53.18 25.32 53.432 25.399 53.712 25.465C54.0306 25.5236 54.3541 25.5517 54.678 25.549C55.201 25.549 55.616 25.465 55.924 25.297C56.232 25.128 56.386 24.844 56.386 24.442C56.386 24.228 56.335 24.055 56.232 23.924C56.1317 23.7877 55.9962 23.6812 55.84 23.616C55.6532 23.526 55.4556 23.4604 55.252 23.421C55.0239 23.3715 54.7952 23.3249 54.566 23.281C54.2615 23.2164 53.9581 23.1464 53.656 23.071C53.358 22.986 53.086 22.87 52.844 22.721C52.6056 22.5667 52.4047 22.361 52.256 22.119C52.106 21.866 52.032 21.539 52.032 21.139C52.032 20.485 52.284 19.972 52.788 19.599C53.302 19.225 54.016 19.039 54.93 19.039C55.444 19.039 55.896 19.089 56.288 19.192C56.69 19.295 56.998 19.407 57.212 19.529V20.634C56.9302 20.4582 56.6234 20.326 56.302 20.242C55.948 20.131 55.504 20.074 54.972 20.074C54.422 20.074 53.997 20.149 53.698 20.298C53.408 20.448 53.264 20.718 53.264 21.111C53.2562 21.2788 53.3002 21.445 53.39 21.587C53.48 21.704 53.5947 21.7996 53.726 21.867C53.876 21.932 54.044 21.983 54.23 22.02C54.417 22.058 54.613 22.1 54.818 22.147C55.136 22.212 55.462 22.282 55.798 22.357C56.134 22.431 56.433 22.547 56.694 22.707C56.964 22.865 57.184 23.08 57.352 23.35C57.53 23.612 57.618 23.966 57.618 24.414C57.618 24.834 57.534 25.184 57.366 25.464C57.2017 25.7409 56.9706 25.9722 56.694 26.137C56.4033 26.3025 56.0858 26.4158 55.756 26.472C55.411 26.547 55.056 26.584 54.692 26.584ZM62.118 26.584C61.6443 26.5878 61.1741 26.5023 60.732 26.332C60.3121 26.1704 59.9306 25.9227 59.612 25.605C59.293 25.2604 59.0455 24.8559 58.884 24.415C58.706 23.948 58.618 23.411 58.618 22.805C58.618 22.207 58.706 21.675 58.884 21.209C59.041 20.7659 59.289 20.3605 59.612 20.019C59.929 19.701 60.302 19.459 60.732 19.291C61.174 19.1203 61.6442 19.0345 62.118 19.038C62.622 19.038 63.088 19.122 63.518 19.291C63.948 19.459 64.316 19.701 64.624 20.018C64.941 20.336 65.189 20.733 65.366 21.208C65.552 21.675 65.646 22.208 65.646 22.805C65.646 23.411 65.552 23.948 65.366 24.415C65.2031 24.8584 64.9505 25.2635 64.624 25.605C64.316 25.922 63.947 26.165 63.518 26.332C63.088 26.5 62.622 26.584 62.118 26.584ZM62.118 25.479C62.444 25.479 62.743 25.427 63.014 25.325C63.294 25.212 63.536 25.049 63.742 24.835C63.9583 24.5918 64.1206 24.3055 64.218 23.995C64.33 23.658 64.386 23.262 64.386 22.805C64.386 22.347 64.33 21.951 64.218 21.615C64.1227 21.3077 63.9601 21.0255 63.742 20.789C63.5427 20.569 63.2928 20.4009 63.014 20.299C62.7294 20.1843 62.4248 20.1272 62.118 20.131C61.791 20.131 61.492 20.186 61.222 20.299C60.952 20.401 60.713 20.564 60.508 20.789C60.312 21.003 60.158 21.279 60.046 21.614C59.9268 21.9991 59.8701 22.4009 59.878 22.804C59.878 23.262 59.934 23.659 60.046 23.994C60.158 24.331 60.312 24.61 60.508 24.834C60.713 25.049 60.951 25.212 61.222 25.324C61.492 25.427 61.792 25.479 62.118 25.479ZM71.81 25.142C71.614 25.553 71.31 25.898 70.9 26.179C70.498 26.449 69.97 26.584 69.318 26.584C68.646 26.584 68.1 26.398 67.68 26.024C67.269 25.642 67.064 25.054 67.064 24.26V19.178H68.31V24.26C68.31 24.503 68.342 24.704 68.408 24.862C68.4765 25.0035 68.5765 25.1275 68.7002 25.2246C68.824 25.3216 68.9682 25.3891 69.122 25.422C69.29 25.46 69.472 25.478 69.668 25.478C70.208 25.478 70.643 25.358 70.97 25.114C71.3178 24.8465 71.6043 24.5075 71.81 24.12V19.178H73.042V26.445H71.95L71.838 25.142H71.81ZM78.662 20.41C78.1638 20.4499 77.6784 20.5882 77.234 20.817C76.8129 21.0328 76.481 21.3895 76.296 21.825V26.445H75.064V19.178H76.142L76.268 20.76H76.296C76.501 20.331 76.795 19.958 77.178 19.64C77.57 19.314 78.064 19.113 78.662 19.038V20.41ZM83.094 26.584C82.534 26.584 82.025 26.5 81.568 26.332C81.1383 26.1664 80.7474 25.9138 80.42 25.59C80.0947 25.2502 79.8464 24.8443 79.692 24.4C79.524 23.934 79.44 23.402 79.44 22.805C79.44 22.217 79.524 21.689 79.692 21.223C79.8527 20.7826 80.1057 20.3816 80.434 20.047C80.7601 19.7148 81.1574 19.461 81.596 19.305C82.0929 19.1203 82.6199 19.0298 83.15 19.038C83.598 19.038 84.009 19.09 84.382 19.192C84.755 19.286 85.063 19.426 85.306 19.612V20.719C84.9969 20.5184 84.6561 20.3717 84.298 20.285C83.9289 20.1816 83.5473 20.1298 83.164 20.131C82.314 20.131 81.689 20.35 81.288 20.788C80.896 21.228 80.7 21.899 80.7 22.805C80.7 23.71 80.891 24.382 81.274 24.82C81.657 25.26 82.264 25.479 83.094 25.479C83.533 25.479 83.934 25.427 84.298 25.325C84.6485 25.2226 84.9865 25.0817 85.306 24.905V26.01C84.6341 26.3978 83.8697 26.5962 83.094 26.584ZM92.59 25.828C92.4687 25.9148 92.3425 25.9946 92.212 26.067C92.036 26.1634 91.8536 26.2476 91.666 26.319C91.4287 26.399 91.1852 26.4595 90.938 26.5C90.668 26.556 90.364 26.584 90.028 26.584C88.805 26.584 87.876 26.254 87.242 25.59C86.607 24.928 86.29 24 86.29 22.805C86.29 22.217 86.374 21.689 86.542 21.223C86.719 20.756 86.962 20.363 87.27 20.047C87.575 19.7223 87.9479 19.469 88.362 19.305C88.7967 19.1244 89.2633 19.0336 89.734 19.038C90.256 19.038 90.724 19.128 91.134 19.305C91.544 19.482 91.88 19.743 92.142 20.089C92.412 20.434 92.594 20.863 92.688 21.377C92.79 21.881 92.79 22.468 92.688 23.141H87.564C87.61 23.925 87.844 24.513 88.264 24.905C88.684 25.287 89.309 25.478 90.14 25.478C90.7 25.478 91.18 25.399 91.582 25.24C91.9363 25.106 92.2744 24.9326 92.59 24.723V25.828ZM89.706 20.131C89.174 20.131 88.716 20.294 88.334 20.621C87.951 20.947 87.708 21.441 87.606 22.105H91.512C91.549 21.433 91.395 20.938 91.05 20.62C90.704 20.294 90.256 20.13 89.706 20.13V20.131ZM94.064 21.614H97.424V22.734H94.064V21.614ZM100.508 26.444H99.277V19.18H100.354L100.48 20.482H100.508C100.704 20.071 100.998 19.73 101.39 19.459C101.782 19.179 102.296 19.039 102.93 19.039C103.49 19.039 103.948 19.175 104.302 19.446C104.666 19.706 104.909 20.103 105.03 20.636C105.236 20.141 105.548 19.753 105.968 19.473C106.398 19.184 106.916 19.039 107.522 19.039C108.194 19.039 108.726 19.231 109.118 19.614C109.51 19.987 109.706 20.565 109.706 21.35V26.446H108.46V21.504C108.46 21.027 108.344 20.682 108.11 20.467C107.877 20.243 107.56 20.132 107.158 20.132C106.888 20.132 106.65 20.173 106.444 20.257C106.243 20.329 106.058 20.4383 105.898 20.579C105.735 20.7248 105.589 20.8892 105.464 21.069C105.332 21.2582 105.211 21.4545 105.1 21.657V26.446H103.868V21.364C103.868 20.897 103.752 20.574 103.518 20.398C103.285 20.22 102.968 20.132 102.566 20.132C102.305 20.132 102.072 20.164 101.866 20.23C101.666 20.2929 101.477 20.3874 101.306 20.51C101.141 20.6379 100.995 20.7884 100.872 20.957C100.742 21.126 100.62 21.312 100.508 21.517V26.446V26.444ZM115.892 25.058C115.798 25.243 115.69 25.4208 115.57 25.59C115.27 25.9898 114.855 26.2882 114.38 26.445C114.119 26.538 113.811 26.585 113.456 26.585C112.803 26.585 112.275 26.402 111.874 26.038C111.473 25.665 111.272 25.133 111.272 24.442C111.272 23.649 111.547 23.066 112.098 22.692C112.658 22.319 113.451 22.132 114.478 22.132H115.836V21.53C115.836 21.026 115.705 20.667 115.444 20.452C115.183 20.238 114.735 20.13 114.1 20.13C113.665 20.1279 113.234 20.2041 112.826 20.355C112.425 20.495 112.065 20.658 111.748 20.845V19.738C112.081 19.5473 112.433 19.3924 112.798 19.276C113.271 19.1132 113.768 19.0327 114.268 19.038C115.183 19.038 115.878 19.23 116.354 19.613C116.83 19.986 117.068 20.569 117.068 21.363V25.562C117.077 25.665 117.082 25.772 117.082 25.884L117.11 26.206C117.119 26.3 117.129 26.379 117.138 26.445H116.018C115.982 26.2639 115.954 26.0814 115.934 25.898C115.917 25.6884 115.907 25.4783 115.906 25.268L115.892 25.058ZM113.722 25.478C114.105 25.478 114.431 25.399 114.702 25.24C114.973 25.082 115.192 24.9 115.36 24.695C115.528 24.48 115.649 24.275 115.724 24.078C115.799 23.873 115.836 23.728 115.836 23.645V23.113H114.604C113.867 23.113 113.33 23.22 112.994 23.435C112.667 23.64 112.504 23.953 112.504 24.373C112.504 24.699 112.602 24.965 112.798 25.17C112.994 25.376 113.302 25.478 113.722 25.478ZM122.449 20.13C121.889 20.13 121.432 20.261 121.077 20.523C120.726 20.7816 120.439 21.1168 120.237 21.503V26.445H119.005V19.178H120.167L120.209 20.48H120.237C120.433 20.06 120.741 19.715 121.161 19.445C121.581 19.174 122.113 19.038 122.757 19.038C123.476 19.038 124.045 19.23 124.465 19.613C124.894 19.986 125.109 20.564 125.109 21.349V26.445H123.877V21.475C123.877 20.97 123.751 20.62 123.499 20.425C123.247 20.228 122.897 20.131 122.449 20.131V20.13ZM131.314 25.058C131.22 25.2428 131.112 25.4206 130.992 25.59C130.861 25.768 130.698 25.931 130.502 26.08C130.306 26.23 130.072 26.351 129.802 26.445C129.54 26.538 129.232 26.585 128.878 26.585C128.224 26.585 127.697 26.402 127.296 26.038C126.894 25.665 126.694 25.133 126.694 24.442C126.694 23.649 126.969 23.066 127.52 22.692C128.08 22.319 128.873 22.132 129.9 22.132H131.258V21.53C131.258 21.026 131.127 20.667 130.866 20.452C130.604 20.238 130.156 20.13 129.522 20.13C129.087 20.1279 128.656 20.2041 128.248 20.355C127.846 20.495 127.487 20.658 127.17 20.845V19.738C127.503 19.5473 127.855 19.3924 128.22 19.276C128.693 19.1132 129.19 19.0327 129.69 19.038C130.604 19.038 131.3 19.23 131.776 19.613C132.252 19.986 132.49 20.569 132.49 21.363V25.562C132.499 25.665 132.504 25.772 132.504 25.884C132.513 25.997 132.522 26.104 132.532 26.206C132.541 26.3 132.55 26.379 132.56 26.445H131.44C131.404 26.2639 131.376 26.0814 131.356 25.898C131.339 25.6884 131.329 25.4783 131.328 25.268L131.314 25.058ZM129.144 25.478C129.526 25.478 129.853 25.399 130.124 25.24C130.394 25.082 130.614 24.9 130.782 24.695C130.95 24.48 131.071 24.275 131.146 24.078C131.22 23.873 131.258 23.728 131.258 23.645V23.113H130.026C129.288 23.113 128.752 23.22 128.416 23.435C128.089 23.64 127.926 23.953 127.926 24.373C127.926 24.699 128.024 24.965 128.22 25.17C128.416 25.376 128.724 25.478 129.144 25.478ZM140.671 25.828C140.671 26.295 140.601 26.72 140.461 27.102C140.337 27.4839 140.115 27.8266 139.817 28.096C139.528 28.367 139.15 28.577 138.683 28.726C138.226 28.876 137.67 28.951 137.017 28.951C136.662 28.951 136.35 28.931 136.079 28.895C135.837 28.8639 135.598 28.8124 135.365 28.741C135.191 28.6931 135.022 28.6271 134.861 28.544C134.739 28.4891 134.622 28.4239 134.511 28.349V27.242C134.66 27.326 134.814 27.402 134.973 27.466C135.141 27.541 135.323 27.606 135.519 27.663C135.715 27.718 135.934 27.761 136.177 27.788C136.429 27.826 136.714 27.844 137.031 27.844C137.927 27.844 138.552 27.676 138.907 27.34C139.262 27.005 139.439 26.505 139.439 25.843V24.723C139.224 25.152 138.921 25.497 138.529 25.759C138.146 26.019 137.67 26.151 137.101 26.151C136.672 26.151 136.261 26.076 135.869 25.927C135.488 25.7781 135.14 25.554 134.847 25.268C134.544 24.9485 134.307 24.5732 134.147 24.163C133.979 23.715 133.895 23.197 133.895 22.608C133.895 22.011 133.979 21.493 134.147 21.055C134.324 20.607 134.558 20.233 134.847 19.935C135.141 19.6397 135.494 19.4106 135.883 19.263C136.275 19.113 136.69 19.038 137.129 19.038C137.708 19.038 138.193 19.169 138.585 19.43C138.986 19.692 139.299 20.047 139.523 20.494L139.537 20.34C139.537 20.172 139.546 19.972 139.565 19.738C139.584 19.496 139.602 19.309 139.621 19.178H140.741C140.722 19.309 140.704 19.496 140.685 19.738C140.676 19.981 140.671 20.182 140.671 20.34V25.828ZM137.325 25.044C137.633 25.044 137.913 24.998 138.165 24.904C138.426 24.802 138.65 24.648 138.837 24.442C139.033 24.237 139.182 23.985 139.285 23.686C139.403 23.3392 139.46 22.9744 139.453 22.608C139.453 21.778 139.248 21.158 138.837 20.747C138.436 20.336 137.927 20.131 137.311 20.131C137.003 20.131 136.714 20.181 136.443 20.285C136.182 20.387 135.953 20.541 135.757 20.747C135.557 20.9756 135.404 21.2423 135.309 21.531C135.191 21.8778 135.134 22.2426 135.141 22.609C135.141 23.019 135.197 23.379 135.309 23.686C135.421 23.986 135.575 24.237 135.771 24.442C135.967 24.639 136.196 24.788 136.457 24.89C136.728 24.993 137.017 25.044 137.325 25.044ZM148.453 25.828C148.168 26.0311 147.857 26.1958 147.529 26.318C147.292 26.3983 147.048 26.4592 146.801 26.5C146.501 26.5587 146.196 26.5869 145.891 26.584C144.668 26.584 143.74 26.254 143.105 25.59C142.47 24.928 142.153 24 142.153 22.805C142.153 22.217 142.237 21.689 142.405 21.223C142.582 20.756 142.825 20.363 143.133 20.047C143.438 19.7223 143.811 19.469 144.225 19.305C144.645 19.127 145.102 19.038 145.597 19.038C146.077 19.03 146.554 19.1209 146.997 19.305C147.396 19.473 147.744 19.7435 148.005 20.089C148.276 20.434 148.458 20.863 148.551 21.377C148.654 21.881 148.654 22.468 148.551 23.141H143.427C143.474 23.925 143.707 24.513 144.127 24.905C144.547 25.287 145.172 25.478 146.003 25.478C146.563 25.478 147.044 25.399 147.445 25.24C147.799 25.1058 148.137 24.9324 148.453 24.723V25.828ZM145.569 20.131C145.037 20.131 144.58 20.294 144.197 20.621C143.814 20.947 143.572 21.441 143.469 22.105H147.375C147.412 21.433 147.258 20.938 146.913 20.62C146.568 20.294 146.12 20.13 145.569 20.13V20.131ZM153.693 20.411C153.195 20.4502 152.71 20.5879 152.265 20.816C151.845 21.031 151.532 21.367 151.327 21.825V26.445H150.095V19.178H151.173L151.299 20.76H151.327C151.532 20.331 151.826 19.958 152.209 19.64C152.601 19.314 153.096 19.113 153.693 19.038V20.411ZM155.032 26.528C154.762 26.528 154.542 26.445 154.374 26.276C154.293 26.1927 154.228 26.0942 154.185 25.9861C154.142 25.878 154.12 25.7624 154.122 25.646C154.122 25.386 154.206 25.17 154.374 25.003C154.542 24.834 154.762 24.75 155.032 24.75C155.294 24.75 155.508 24.834 155.676 25.003C155.76 25.0874 155.825 25.1879 155.868 25.2985C155.912 25.409 155.932 25.5273 155.928 25.646C155.929 25.7624 155.908 25.878 155.865 25.9861C155.822 26.0942 155.757 26.1927 155.676 26.276C155.592 26.3599 155.491 26.4257 155.38 26.4692C155.269 26.5127 155.151 26.532 155.032 26.528ZM160.573 26.584C160.013 26.584 159.504 26.5 159.047 26.332C158.617 26.1665 158.226 25.9139 157.899 25.59C157.573 25.2504 157.325 24.8445 157.171 24.4C157.003 23.934 156.919 23.402 156.919 22.805C156.919 22.217 157.003 21.689 157.171 21.223C157.348 20.756 157.595 20.363 157.913 20.047C158.239 19.7145 158.636 19.4607 159.075 19.305C159.572 19.1202 160.099 19.0297 160.629 19.038C161.077 19.038 161.487 19.09 161.861 19.192C162.234 19.286 162.542 19.426 162.785 19.612V20.719C162.476 20.5186 162.135 20.3718 161.777 20.285C161.408 20.1816 161.026 20.1298 160.643 20.131C159.793 20.131 159.168 20.35 158.767 20.788C158.375 21.228 158.179 21.899 158.179 22.805C158.179 23.71 158.37 24.382 158.753 24.82C159.135 25.26 159.742 25.479 160.573 25.479C161.011 25.479 161.413 25.427 161.777 25.325C162.127 25.2224 162.465 25.0816 162.785 24.905V26.01C162.113 26.3978 161.349 26.5962 160.573 26.584ZM165.518 16.407V26.445H164.286V16.407H165.518ZM170.508 26.584C170.014 26.584 169.552 26.5 169.122 26.332C168.702 26.1701 168.321 25.9225 168.002 25.605C167.683 25.2602 167.436 24.8558 167.274 24.415C167.097 23.948 167.008 23.411 167.008 22.805C167.008 22.207 167.097 21.675 167.274 21.209C167.431 20.766 167.679 20.3607 168.002 20.019C168.32 19.701 168.693 19.459 169.122 19.291C169.552 19.122 170.014 19.038 170.508 19.038C171.012 19.038 171.479 19.122 171.908 19.291C172.338 19.459 172.706 19.701 173.014 20.018C173.332 20.336 173.579 20.733 173.756 21.208C173.943 21.675 174.036 22.208 174.036 22.805C174.036 23.411 173.943 23.948 173.756 24.415C173.594 24.8586 173.341 25.2638 173.014 25.605C172.706 25.922 172.338 26.165 171.908 26.332C171.461 26.5032 170.986 26.5887 170.508 26.584ZM170.508 25.479C170.835 25.479 171.134 25.427 171.404 25.325C171.684 25.212 171.927 25.049 172.132 24.835C172.349 24.592 172.511 24.3056 172.608 23.995C172.72 23.658 172.776 23.262 172.776 22.805C172.776 22.347 172.72 21.951 172.608 21.615C172.513 21.3076 172.35 21.0253 172.132 20.789C171.933 20.5689 171.683 20.4007 171.404 20.299C171.119 20.1842 170.815 20.1271 170.508 20.131C170.182 20.131 169.883 20.186 169.612 20.299C169.342 20.401 169.104 20.564 168.898 20.789C168.702 21.003 168.548 21.279 168.436 21.614C168.317 21.9991 168.26 22.4009 168.268 22.804C168.268 23.262 168.324 23.659 168.436 23.994C168.548 24.331 168.702 24.61 168.898 24.834C169.104 25.049 169.342 25.212 169.612 25.324C169.883 25.427 170.182 25.479 170.508 25.479ZM180.2 25.142C180.004 25.553 179.701 25.898 179.29 26.179C178.889 26.449 178.362 26.584 177.708 26.584C177.036 26.584 176.49 26.398 176.07 26.024C175.66 25.642 175.454 25.054 175.454 24.26V19.178H176.7V24.26C176.7 24.503 176.733 24.704 176.798 24.862C176.873 25.012 176.971 25.133 177.092 25.227C177.214 25.32 177.354 25.385 177.512 25.422C177.68 25.46 177.862 25.478 178.058 25.478C178.6 25.478 179.034 25.358 179.36 25.114C179.708 24.8467 179.995 24.5077 180.2 24.12V19.178H181.432V26.445H180.34L180.228 25.142H180.2ZM188.662 25.017C188.454 25.4742 188.131 25.8697 187.724 26.165C187.323 26.445 186.814 26.585 186.198 26.585C185.76 26.585 185.344 26.51 184.952 26.36C184.561 26.2021 184.208 25.9636 183.916 25.66C183.603 25.3188 183.361 24.9196 183.202 24.485C183.025 24.009 182.936 23.448 182.936 22.805C182.936 22.17 183.025 21.619 183.202 21.153C183.38 20.677 183.618 20.285 183.916 19.977C184.215 19.659 184.56 19.426 184.952 19.277C185.353 19.1181 185.781 19.037 186.212 19.038C186.763 19.038 187.239 19.155 187.64 19.388C188.042 19.612 188.364 19.934 188.606 20.354V16.407H189.838V26.445H188.76L188.662 25.017ZM186.38 25.479C186.698 25.479 186.992 25.427 187.262 25.325C187.533 25.212 187.766 25.045 187.962 24.82C188.179 24.577 188.341 24.2906 188.438 23.98C188.56 23.645 188.62 23.253 188.62 22.805C188.62 22.357 188.56 21.965 188.438 21.628C188.341 21.3173 188.179 21.031 187.962 20.788C187.773 20.5688 187.533 20.4004 187.262 20.298C186.982 20.1844 186.682 20.1277 186.38 20.131C185.736 20.131 185.209 20.359 184.798 20.817C184.397 21.265 184.196 21.927 184.196 22.805C184.196 23.691 184.402 24.358 184.812 24.807C185.223 25.255 185.746 25.479 186.38 25.479ZM194.173 26.584C193.79 26.584 193.449 26.552 193.151 26.486C192.889 26.4376 192.631 26.3673 192.381 26.276C192.192 26.1962 192.01 26.1026 191.835 25.996C191.713 25.9148 191.596 25.8263 191.485 25.731V24.624C191.578 24.718 191.704 24.821 191.863 24.933C192.021 25.035 192.213 25.133 192.437 25.227C192.661 25.32 192.913 25.399 193.193 25.465C193.482 25.52 193.804 25.549 194.159 25.549C194.681 25.549 195.097 25.465 195.405 25.297C195.713 25.128 195.867 24.844 195.867 24.442C195.867 24.228 195.815 24.055 195.713 23.924C195.613 23.7878 195.477 23.6814 195.321 23.616C195.134 23.526 194.937 23.4604 194.733 23.421C194.505 23.3716 194.276 23.325 194.047 23.281C193.742 23.2165 193.439 23.1464 193.137 23.071C192.838 22.986 192.567 22.87 192.325 22.721C192.086 22.5668 191.886 22.3611 191.737 22.119C191.587 21.866 191.513 21.539 191.513 21.139C191.513 20.485 191.765 19.972 192.269 19.599C192.782 19.225 193.496 19.039 194.411 19.039C194.924 19.039 195.377 19.089 195.769 19.192C196.17 19.295 196.478 19.407 196.693 19.529V20.634C196.411 20.4582 196.104 20.326 195.783 20.242C195.428 20.131 194.985 20.074 194.453 20.074C193.902 20.074 193.477 20.149 193.179 20.298C192.889 20.448 192.745 20.718 192.745 21.111C192.737 21.2788 192.781 21.445 192.871 21.587C192.961 21.704 193.076 21.7996 193.207 21.867C193.356 21.932 193.524 21.983 193.711 22.02C193.897 22.058 194.093 22.1 194.299 22.147C194.616 22.212 194.943 22.282 195.279 22.357C195.615 22.431 195.913 22.547 196.175 22.707C196.445 22.865 196.665 23.08 196.833 23.35C197.01 23.612 197.099 23.966 197.099 24.414C197.099 24.834 197.015 25.184 196.847 25.464C196.683 25.7409 196.452 25.9722 196.175 26.137C195.904 26.295 195.591 26.407 195.237 26.472C194.887 26.547 194.531 26.5846 194.173 26.584ZM199.288 26.529C199.018 26.529 198.798 26.445 198.63 26.276C198.549 26.1927 198.484 26.0942 198.441 25.9861C198.398 25.878 198.377 25.7624 198.378 25.646C198.378 25.386 198.462 25.17 198.63 25.003C198.798 24.834 199.018 24.75 199.288 24.75C199.55 24.75 199.764 24.834 199.932 25.003C200.016 25.0874 200.081 25.1879 200.124 25.2985C200.168 25.409 200.188 25.5273 200.184 25.646C200.186 25.7624 200.164 25.878 200.121 25.9861C200.078 26.0942 200.013 26.1927 199.932 26.276C199.848 26.3599 199.747 26.4257 199.636 26.4692C199.525 26.5127 199.407 26.533 199.288 26.529ZM104.234 43.584C103.739 43.584 103.277 43.5 102.848 43.332C102.428 43.1703 102.047 42.9227 101.728 42.605C101.409 42.2605 101.161 41.856 101 41.415C100.823 40.948 100.734 40.411 100.734 39.805C100.734 39.207 100.823 38.675 101 38.209C101.177 37.732 101.42 37.336 101.728 37.019C102.045 36.701 102.419 36.459 102.848 36.291C103.29 36.1206 103.76 36.0351 104.234 36.039C104.738 36.039 105.205 36.123 105.634 36.291C106.063 36.459 106.432 36.701 106.74 37.019C107.057 37.336 107.305 37.733 107.482 38.209C107.669 38.675 107.762 39.207 107.762 39.804C107.762 40.411 107.669 40.948 107.482 41.414C107.319 41.8575 107.067 42.2626 106.74 42.604C106.432 42.922 106.063 43.164 105.634 43.333C105.187 43.5042 104.712 43.5887 104.234 43.584ZM104.234 42.478C104.561 42.478 104.859 42.428 105.13 42.324C105.41 42.213 105.653 42.049 105.858 41.834C106.063 41.61 106.222 41.33 106.334 40.994C106.446 40.658 106.502 40.262 106.502 39.804C106.502 39.347 106.446 38.95 106.334 38.614C106.238 38.3071 106.076 38.0253 105.858 37.789C105.659 37.5689 105.409 37.4007 105.13 37.299C104.845 37.184 104.541 37.1265 104.234 37.13C103.907 37.13 103.609 37.186 103.338 37.298C103.064 37.4023 102.82 37.5703 102.624 37.788C102.428 38.003 102.274 38.278 102.162 38.615C102.043 39.0001 101.986 39.4019 101.994 39.805C101.994 40.262 102.05 40.658 102.162 40.995C102.274 41.331 102.428 41.611 102.624 41.835C102.829 42.049 103.067 42.212 103.338 42.325C103.609 42.427 103.907 42.478 104.234 42.478ZM117.105 43.444H115.215L113.675 37.83L112.093 43.444H110.259L108.607 36.178H109.909L111.295 42.521L113.059 36.178H114.445L116.167 42.451L117.539 36.178H118.757L117.105 43.444ZM123.632 37.13C123.072 37.13 122.614 37.261 122.26 37.522C121.909 37.7801 121.621 38.1154 121.42 38.502V43.444H120.188V36.178H121.35L121.392 37.481H121.42C121.616 37.061 121.924 36.715 122.344 36.444C122.764 36.174 123.296 36.038 123.94 36.038C124.658 36.038 125.228 36.23 125.648 36.613C126.077 36.986 126.292 37.565 126.292 38.349V43.445H125.06V38.475C125.06 37.97 124.934 37.62 124.682 37.425C124.43 37.228 124.08 37.13 123.632 37.13ZM134.022 42.828C133.901 42.9147 133.775 42.9942 133.644 43.066C133.468 43.1625 133.286 43.2467 133.098 43.318C132.861 43.3988 132.617 43.46 132.37 43.501C132.1 43.557 131.796 43.585 131.46 43.585C130.238 43.585 129.309 43.253 128.674 42.59C128.04 41.928 127.722 41 127.722 39.804C127.722 39.217 127.806 38.689 127.974 38.222C128.152 37.756 128.394 37.364 128.702 37.047C129.007 36.7223 129.38 36.469 129.794 36.305C130.214 36.127 130.672 36.038 131.166 36.038C131.689 36.038 132.156 36.128 132.566 36.305C132.965 36.473 133.313 36.7435 133.574 37.089C133.845 37.434 134.027 37.863 134.12 38.377C134.223 38.88 134.223 39.468 134.12 40.141H128.996C129.043 40.925 129.276 41.513 129.696 41.905C130.116 42.287 130.742 42.478 131.572 42.478C132.132 42.478 132.613 42.399 133.014 42.24C133.368 42.1059 133.707 41.9321 134.022 41.722V42.828ZM131.138 37.13C130.606 37.13 130.149 37.294 129.766 37.62C129.384 37.947 129.141 38.442 129.038 39.105H132.944C132.982 38.433 132.828 37.938 132.482 37.621C132.137 37.294 131.689 37.13 131.138 37.13ZM139.262 37.41C138.764 37.4501 138.278 37.5884 137.834 37.817C137.414 38.031 137.102 38.367 136.896 38.825V43.445H135.664V36.178H136.742L136.868 37.761H136.896C137.102 37.331 137.396 36.958 137.778 36.641C138.17 36.314 138.665 36.113 139.262 36.039V37.41Z" fill="#18123D"/>
<path d="M350 290L355.774 300H344.227L350 290ZM351 299V330H349V299H351ZM350 210L355.774 220H344.227L350 210ZM351 219V250H349V219H351ZM120 210L125.774 220H114.227L120 210ZM121 219V250H119V219H121ZM120 130L125.774 140H114.227L120 130ZM121 139V170H119V139H121ZM120 50L125.774 60H114.227L120 50ZM121 59V90H119V59H121Z" fill="#4E496B"/>
<path d="M120 290L125.773 300H114.227L120 290ZM349 330V314.993H351V330H349ZM345 311H125V309H345V311ZM119 305V299H121V305H119ZM125 311C123.409 311 121.883 310.368 120.757 309.243C119.632 308.117 119 306.591 119 305H121C121 306.061 121.421 307.078 122.172 307.828C122.922 308.579 123.939 309 125 309V311ZM349 314.993C349 314.468 348.896 313.948 348.695 313.463C348.494 312.979 348.199 312.538 347.828 312.167C347.456 311.796 347.015 311.503 346.53 311.302C346.045 311.102 345.525 310.999 345 311V309C348.312 309 351 311.677 351 314.993H349ZM120 130L125.773 140H114.227L120 130ZM349 170V154.993H351V170H349ZM345 151H125V149H345V151ZM119 145V139H121V145H119ZM125 151C123.409 151 121.883 150.368 120.757 149.243C119.632 148.117 119 146.591 119 145H121C121 146.061 121.421 147.078 122.172 147.828C122.922 148.579 123.939 149 125 149V151ZM349 154.993C349 154.468 348.896 153.948 348.695 153.463C348.494 152.979 348.199 152.538 347.828 152.167C347.456 151.796 347.015 151.503 346.53 151.302C346.045 151.102 345.525 150.999 345 151V149C348.312 149 351 151.677 351 154.993H349ZM120 210L125.773 220H114.227L120 210ZM349 250V234.993H351V250H349ZM345 231H125V229H345V231ZM119 225V219H121V225H119ZM125 231C123.409 231 121.883 230.368 120.757 229.243C119.632 228.117 119 226.591 119 225H121C121 226.061 121.421 227.078 122.172 227.828C122.922 228.579 123.939 229 125 229V231ZM349 234.993C349 234.468 348.896 233.948 348.695 233.463C348.494 232.979 348.199 232.538 347.828 232.167C347.456 231.796 347.015 231.503 346.53 231.302C346.045 231.102 345.525 230.999 345 231V229C348.312 229 351 231.677 351 234.993H349ZM120 50L125.773 60H114.227L120 50ZM349 90V74.993H351V90H349ZM345 71H125V69H345V71ZM119 65V59H121V65H119ZM125 71C123.409 71 121.883 70.3679 120.757 69.2426C119.632 68.1174 119 66.5913 119 65H121C121 66.0609 121.421 67.0783 122.172 67.8284C122.922 68.5786 123.939 69 125 69V71ZM349 74.993C349 74.4681 348.896 73.9483 348.695 73.4635C348.494 72.9786 348.199 72.5382 347.828 72.1673C347.456 71.7965 347.015 71.5025 346.53 71.3022C346.045 71.1019 345.525 70.9992 345 71V69C348.312 69 351 71.677 351 74.993H349Z" fill="#4E496B"/>
</svg>
