<svg xmlns="http://www.w3.org/2000/svg" width="16" height="16" fill="none" viewBox="0 0 16 16">
    <path fill="currentColor" fill-rule="evenodd" d="M3.74 4.8 1.97 3.03a.75.75 0 0 1 1.06-1.06l11 11a.75.75 0 1 1-1.06 1.06l-.957-.956q-1.021.231-2.057.344a2 2 0 0 1-3.912 0 18 18 0 0 1-2.12-.359l-.822-.19a2.067 2.067 0 0 1-.997-3.474L2.3 9.2c.457-.457.769-1.04.895-1.673zm6.996 6.997a16.6 16.6 0 0 1-6.476-.2l-.82-.189a.567.567 0 0 1-.274-.953l.194-.193a4.77 4.77 0 0 0 1.305-2.44l.35-1.747zm.599-3.975q.042.21.101.412l3.025 3.024a2.07 2.07 0 0 0-.566-1.863L13.7 9.2a3.27 3.27 0 0 1-.895-1.673l-.62-3.096a4.27 4.27 0 0 0-6.96-2.408L6.292 3.09a2.77 2.77 0 0 1 4.424 1.637z" clip-rule="evenodd"/>
</svg>
