<svg xmlns="http://www.w3.org/2000/svg" width="16" height="16" fill="none" viewBox="0 0 16 16">
    <path fill="currentColor" fill-rule="evenodd" d="M7.345 2.634q.136.069.268.145L8 3l.387-.221q.133-.076.268-.145a6.7 6.7 0 0 1 6.052-.03c.486.242.793.74.793 1.283v8.938c0 .65-.526 1.175-1.175 1.175h-.04c-.187 0-.37-.05-.529-.146a4.8 4.8 0 0 0-4.61-.177l-.199.1A2.1 2.1 0 0 1 8 14h-.117a1.6 1.6 0 0 1-.726-.171l-.233-.117a4.94 4.94 0 0 0-4.748.183.74.74 0 0 1-.381.105h-.12A1.175 1.175 0 0 1 .5 12.825V3.887c0-.543.307-1.04.793-1.284a6.7 6.7 0 0 1 6.052.03m1.405 9.572V4.3l.382-.218A5.2 5.2 0 0 1 14 3.927v8.357a6.3 6.3 0 0 0-5.25-.078m-1.5.005V4.299l-.382-.218A5.2 5.2 0 0 0 2 3.927v8.365a6.44 6.44 0 0 1 5.25-.082" clip-rule="evenodd"/>
</svg>
