<svg xmlns="http://www.w3.org/2000/svg" width="16" height="16" fill="none" viewBox="0 0 16 16">
    <path fill="currentColor" fill-rule="evenodd" d="M13.5 10.421V5.475l-2 .714V8.25a.75.75 0 0 1-1.5 0V6.725l-2.25.804v6.088l4.777-1.792a1.5 1.5 0 0 0 .973-1.404m-2.254-5.734 1.6-.571a2 2 0 0 0-.175-.104L9.499 2.427a1.5 1.5 0 0 0-1.197-.063l-.941.353 3.724 1.862q.09.045.16.108M5.444 3.435l3.878 1.94-2.273.811-3.805-1.903q.108-.063.23-.109zm.806 4.029L2.5 5.589v5.057a1.5 1.5 0 0 0 .83 1.342l2.92 1.46zM1 5.579c0-.436.094-.856.266-1.236a.75.75 0 0 1 .2-.37c.342-.54.855-.968 1.48-1.203L7.777.96a3 3 0 0 1 2.394.125l3.172 1.586A3 3 0 0 1 15 5.354v5.067a3 3 0 0 1-1.947 2.809l-4.828 1.81a3 3 0 0 1-2.395-.125l-3.172-1.586A3 3 0 0 1 1 10.646z" clip-rule="evenodd"/>
</svg>
