<svg xmlns="http://www.w3.org/2000/svg" width="16" height="16" fill="none" viewBox="0 0 16 16"><path fill="currentColor" fill-rule="evenodd" d="M10.218 3.216a.75.75 0 1 0-1.436-.431l-3 10a.75.75 0 0 0 1.436.43l3-10ZM4.53 4.97a.75.75 0 0 1 0 1.06L2.56 8l1.97 1.97a.75.75 0 0 1-1.06 1.06l-2.5-2.5a.75.75 0 0 1 0-1.06l2.5-2.5a.75.75 0 0 1 1.06 0Zm6.94 6.06a.75.75 0 0 1 0-1.06L13.44 8l-1.97-1.97a.75.75 0 0 1 1.06-1.06l2.5 2.5a.75.75 0 0 1 0 1.06l-2.5 2.5a.75.75 0 0 1-1.06 0Z" clip-rule="evenodd"/></svg>