<svg xmlns="http://www.w3.org/2000/svg" width="16" height="16" fill="none" viewBox="0 0 16 16"><path fill="currentColor" fill-rule="evenodd" d="M4.25 2.5a.841.841 0 0 0-.837.921l.2 2.096A2.399 2.399 0 0 1 2.04 8a2.399 2.399 0 0 1 1.571 2.483l-.2 2.096a.841.841 0 0 0 .838.921.75.75 0 0 1 0 1.5 2.341 2.341 0 0 1-2.33-2.563l.199-2.096a.898.898 0 0 0-.677-.957l-.139-.035a1.39 1.39 0 0 1 0-2.698l.14-.035a.898.898 0 0 0 .676-.957l-.2-2.096A2.341 2.341 0 0 1 4.25 1a.75.75 0 0 1 0 1.5Zm4.805 2.639a.78.78 0 0 1 .989-.668.75.75 0 1 0 .412-1.442 2.279 2.279 0 0 0-2.892 1.953L7.456 6H6.5a.75.75 0 0 0 0 1.5h.798l-.353 3.361a.779.779 0 0 1-.989.668.75.75 0 1 0-.412 1.442 2.279 2.279 0 0 0 2.892-1.953l.37-3.518h.944a.75.75 0 0 0 0-1.5h-.785l.09-.861Zm3.533 7.44a.841.841 0 0 1-.838.921.75.75 0 0 0 0 1.5 2.341 2.341 0 0 0 2.33-2.563l-.199-2.096a.898.898 0 0 1 .677-.957l.139-.035a1.39 1.39 0 0 0 0-2.698l-.14-.035a.898.898 0 0 1-.676-.957l.2-2.096A2.341 2.341 0 0 0 11.75 1a.75.75 0 0 0 0 1.5c.496 0 .884.427.838.921l-.2 2.096A2.399 2.399 0 0 0 13.959 8a2.399 2.399 0 0 0-1.571 2.483l.2 2.096Z" clip-rule="evenodd"/></svg>