<svg xmlns="http://www.w3.org/2000/svg" width="16" height="16" fill="none" viewBox="0 0 16 16">
    <path fill="currentColor" fill-rule="evenodd" d="M5 13.5h6a1.5 1.5 0 0 0 1.5-1.5V7.243a1.5 1.5 0 0 0-.44-1.061L8.819 2.939a1.5 1.5 0 0 0-1.06-.439H5A1.5 1.5 0 0 0 3.5 4v8A1.5 1.5 0 0 0 5 13.5m9-6.257a3 3 0 0 0-.879-2.122L9.88 1.88A3 3 0 0 0 7.757 1H5a3 3 0 0 0-3 3v8a3 3 0 0 0 3 3h6a3 3 0 0 0 3-3zM5 8.25a.75.75 0 0 1 .75-.75h4.5a.75.75 0 0 1 0 1.5h-4.5A.75.75 0 0 1 5 8.25m.75 2.25a.75.75 0 0 0 0 1.5h2.5a.75.75 0 0 0 0-1.5z" clip-rule="evenodd"/>
</svg>
