<svg xmlns="http://www.w3.org/2000/svg" width="16" height="16" fill="none" viewBox="0 0 16 16">
    <path fill="currentColor" fill-rule="evenodd" d="m6.379 4.5-.44-.44-.621-.62A1.5 1.5 0 0 0 4.258 3H3a1.5 1.5 0 0 0-1.5 1.5v5.25l1.376-2.293A3 3 0 0 1 5.45 6h7.05A1.5 1.5 0 0 0 11 4.5zM14 6.026V6a3 3 0 0 0-3-3H7l-.621-.621A3 3 0 0 0 4.257 1.5H3a3 3 0 0 0-3 3V11a3 3 0 0 0 3 3h8.301a3 3 0 0 0 2.573-1.457l1.791-2.985A2.35 2.35 0 0 0 14 6.026M10 12.5h1.301a1.5 1.5 0 0 0 1.287-.728l1.791-2.986 1.286.772-1.286-.772a.85.85 0 0 0-.728-1.286H5.449a1.5 1.5 0 0 0-1.287.728l-1.791 2.986a.85.85 0 0 0 .728 1.286z" clip-rule="evenodd"/>
</svg>
