<svg xmlns="http://www.w3.org/2000/svg" width="16" height="16" fill="none" viewBox="0 0 16 16"><g clip-path="url(#a)"><path fill="currentColor" fill-rule="evenodd" d="M4.312 4.29a.764.764 0 0 1 1.103-.62.75.75 0 1 0 .67-1.34 2.264 2.264 0 0 0-3.268 1.836L2.706 5.5H1.75a.75.75 0 0 0 0 1.5h.83l-.392 4.71a.764.764 0 0 1-1.103.62.75.75 0 0 0-.67 1.34 2.264 2.264 0 0 0 3.268-1.836L4.086 7H5.25a.75.75 0 1 0 0-1.5H4.21l.102-1.21Zm6.014 2.23a.75.75 0 0 0-1.152.96l.85 1.02-.85 1.02a.75.75 0 0 0 1.152.96L11 9.672l.674.808a.75.75 0 0 0 1.152-.96l-.85-1.02.85-1.02a.75.75 0 0 0-1.152-.96L11 7.328l-.674-.808ZM8.02 4.55a.75.75 0 0 1 .43.969l-.145.378a7.25 7.25 0 0 0 0 5.205l.145.378a.75.75 0 0 1-1.4.539l-.145-.378a8.75 8.75 0 0 1 0-6.282l.145-.378a.75.75 0 0 1 .97-.431Zm5.961 0a.75.75 0 0 1 .97.43l.145.379a8.75 8.75 0 0 1 0 6.282l-.146.378a.75.75 0 1 1-1.4-.538l.146-.379a7.25 7.25 0 0 0 0-5.205l-.146-.378a.75.75 0 0 1 .431-.97Z" clip-rule="evenodd"/></g><defs><clipPath id="a"><path fill="currentColor" d="M0 0h16v16H0z"/></clipPath></defs></svg>