<svg xmlns="http://www.w3.org/2000/svg" width="16" height="16" fill="none" viewBox="0 0 16 16"><path fill="currentColor" fill-rule="evenodd" d="M7.199 2H8.8c.11 0 .199.089.199.199 0 1.808 1.958 2.939 3.524 2.034a.199.199 0 0 1 .271.073l.802 1.388a.199.199 0 0 1-.073.271c-1.566.905-1.566 3.165 0 4.07a.199.199 0 0 1 .073.271l-.802 1.388a.199.199 0 0 1-.271.073C10.958 10.862 9 11.993 9 13.8c0 .11-.089.199-.199.199H7.2a.199.199 0 0 1-.2-.198c0-1.808-1.958-2.939-3.524-2.034a.199.199 0 0 1-.272-.073l-.8-1.388a.199.199 0 0 1 .072-.271c1.566-.905 1.566-3.165 0-4.07a.199.199 0 0 1-.073-.271l.801-1.388a.199.199 0 0 1 .272-.073C5.042 5.138 7 4.007 7 2.2c0-.11.089-.199.199-.199ZM5.5 2.199C5.5 1.26 6.26.5 7.199.5H8.8c.938 0 1.699.76 1.699 1.699a.85.85 0 0 0 1.274.735 1.699 1.699 0 0 1 2.32.622l.802 1.388c.469.812.19 1.851-.622 2.32a.85.85 0 0 0 0 1.472 1.7 1.7 0 0 1 .622 2.32l-.802 1.388a1.699 1.699 0 0 1-2.32.622.85.85 0 0 0-1.274.735c0 .938-.76 1.699-1.699 1.699H7.2c-.938 0-1.699-.76-1.699-1.699a.85.85 0 0 0-1.274-.735 1.698 1.698 0 0 1-2.32-.622l-.802-1.388a1.699 1.699 0 0 1 .622-2.32.85.85 0 0 0 0-1.472 1.699 1.699 0 0 1-.622-2.32l.801-1.388a1.699 1.699 0 0 1 2.32-.622A.85.85 0 0 0 5.5 2.2Zm5 6.667a1 1 0 0 0 0-1.732l-3-1.732a1 1 0 0 0-1.5.866v3.464a1 1 0 0 0 1.5.866l3-1.732Z" clip-rule="evenodd"/></svg>