<svg xmlns="http://www.w3.org/2000/svg" width="16" height="16" fill="none" viewBox="0 0 16 16">
    <path fill="currentColor" fill-rule="evenodd" d="M12.5 12.618c.307-.275.5-.674.5-1.118V6.977a1.5 1.5 0 0 0-.585-1.189l-3.5-2.692a1.5 1.5 0 0 0-1.83 0l-3.5 2.692A1.5 1.5 0 0 0 3 6.978V11.5A1.496 1.496 0 0 0 4.493 13H5V9.5a2 2 0 0 1 2-2h2a2 2 0 0 1 2 2V13h.507c.381-.002.73-.146.993-.382m2-1.118a3 3 0 0 1-3 3h-7a3 3 0 0 1-3-3V6.977A3 3 0 0 1 2.67 4.6l3.5-2.692a3 3 0 0 1 3.66 0l3.5 2.692a3 3 0 0 1 1.17 2.378zm-5-2A.5.5 0 0 0 9 9H7a.5.5 0 0 0-.5.5V13h3z" clip-rule="evenodd"/>
</svg>
