<svg xmlns="http://www.w3.org/2000/svg" width="20" height="20" fill="none" viewBox="0 0 20 20">
    <path stroke="var(--g-color-text-primary)" stroke-linecap="round" stroke-linejoin="round" stroke-opacity=".85" stroke-width="1.5" d="M3.32 18.877v-4.453M1.094 16.65h4.453M10.89 1.955 9.346 5.971c-.251.653-.377.98-.572 1.254a2.672 2.672 0 0 1-.63.63c-.274.194-.6.32-1.253.571L2.875 9.971l4.016 1.544c.653.251.98.377 1.254.572.243.173.456.386.63.63.194.274.32.6.571 1.254l1.545 4.015 1.544-4.015c.251-.653.377-.98.572-1.255.173-.243.386-.456.63-.629.274-.195.6-.32 1.253-.572l4.016-1.544-4.015-1.545c-.653-.251-.98-.377-1.255-.572a2.672 2.672 0 0 1-.629-.629c-.195-.275-.32-.601-.572-1.254l-1.544-4.016Z"/>
</svg>
