<svg xmlns="http://www.w3.org/2000/svg" width="16" height="16" fill="none" viewBox="0 0 16 16"><path fill="currentColor" fill-rule="evenodd" d="M11.5 3h-7A1.5 1.5 0 0 0 3 4.5v5.027l.962-.7a1.75 1.75 0 0 1 2.079.016l.928.696 2.368-2.03a1.75 1.75 0 0 1 2.325.043L13 8.787V4.5A1.5 1.5 0 0 0 11.5 3Zm3 7.498V4.5a3 3 0 0 0-3-3h-7a3 3 0 0 0-3 3v7a3 3 0 0 0 3 3h7a3 3 0 0 0 3-3v-1.002Zm-1.5.33-2.355-2.174a.25.25 0 0 0-.332-.006L7.488 11.07l-.457.392-.481-.361-1.41-1.057a.25.25 0 0 0-.296-.002L3 11.381v.119A1.5 1.5 0 0 0 4.5 13h7a1.5 1.5 0 0 0 1.5-1.5v-.672ZM7.5 6a1.5 1.5 0 1 1-3 0 1.5 1.5 0 0 1 3 0Z" clip-rule="evenodd"/></svg>