<svg xmlns="http://www.w3.org/2000/svg" width="700" height="366" fill="none"><g clip-path="url(#a)"><path fill="#fff" d="M0 0h700v366H0z"/><g filter="url(#b)"><rect width="700" height="366" fill="#fff" rx="15"/></g><g filter="url(#c)"><rect width="240" height="310" x="100" y="8" fill="#fff" rx="15"/></g><path fill="#DDF2E1" d="M120 253c0-1.326.527-2.598 1.464-3.536A5.004 5.004 0 0 1 125 248h190c1.326 0 2.598.527 3.536 1.464A5.004 5.004 0 0 1 320 253v40a5.004 5.004 0 0 1-1.464 3.536A5.004 5.004 0 0 1 315 298H125a5.004 5.004 0 0 1-3.536-1.464A5.004 5.004 0 0 1 120 293v-40Z"/><path fill="#DAEEF9" d="M191 124c0-1.326.527-2.598 1.464-3.536A5.004 5.004 0 0 1 196 119h50c1.326 0 2.598.527 3.536 1.464A5.004 5.004 0 0 1 251 124v29a5.004 5.004 0 0 1-1.464 3.536A5.004 5.004 0 0 1 246 158h-50a5.004 5.004 0 0 1-3.536-1.464A5.004 5.004 0 0 1 191 153v-29Z"/><path fill="#DDF2E1" d="M120 183c0-1.326.527-2.598 1.464-3.536A5.004 5.004 0 0 1 125 178h190c1.326 0 2.598.527 3.536 1.464A5.004 5.004 0 0 1 320 183v40a5.004 5.004 0 0 1-1.464 3.536A5.004 5.004 0 0 1 315 228H125a5.004 5.004 0 0 1-3.536-1.464A5.004 5.004 0 0 1 120 223v-40Z"/><path fill="#FFDADA" d="M191 73a5.002 5.002 0 0 1 5-5h50a5.002 5.002 0 0 1 5 5v30a5.004 5.004 0 0 1-1.464 3.536A5.004 5.004 0 0 1 246 108h-50a5.004 5.004 0 0 1-3.536-1.464A5.004 5.004 0 0 1 191 103V73Z"/><path fill="#FFF5CC" d="M120 73a5.002 5.002 0 0 1 5-5h50a5.002 5.002 0 0 1 5 5v80a5.004 5.004 0 0 1-1.464 3.536A5.004 5.004 0 0 1 175 158h-50a5.004 5.004 0 0 1-3.536-1.464A5.004 5.004 0 0 1 120 153V73Z"/><path stroke="#000" d="M120 47.5h200"/><g filter="url(#d)"><rect width="240" height="310" x="359" y="8" fill="#fff" rx="15"/></g><path fill="#DDF2E1" d="M380 253c0-1.326.527-2.598 1.464-3.536A5.004 5.004 0 0 1 385 248h190c1.326 0 2.598.527 3.536 1.464A5.004 5.004 0 0 1 580 253v40a5.004 5.004 0 0 1-1.464 3.536A5.004 5.004 0 0 1 575 298H385a5.004 5.004 0 0 1-3.536-1.464A5.004 5.004 0 0 1 380 293v-40Z"/><path fill="#FFF5CC" d="M451 124c0-1.326.527-2.598 1.464-3.536A5.004 5.004 0 0 1 456 119h50c1.326 0 2.598.527 3.536 1.464A5.004 5.004 0 0 1 511 124v29a5.004 5.004 0 0 1-1.464 3.536A5.004 5.004 0 0 1 506 158h-50a5.004 5.004 0 0 1-3.536-1.464A5.004 5.004 0 0 1 451 153v-29Z"/><path fill="#DDF2E1" d="M380 183c0-1.326.527-2.598 1.464-3.536A5.004 5.004 0 0 1 385 178h190c1.326 0 2.598.527 3.536 1.464A5.004 5.004 0 0 1 580 183v40a5.004 5.004 0 0 1-1.464 3.536A5.004 5.004 0 0 1 575 228H385a5.004 5.004 0 0 1-3.536-1.464A5.004 5.004 0 0 1 380 223v-40Z"/><path fill="#FFF5CC" d="M451 73a5.002 5.002 0 0 1 5-5h50a5.002 5.002 0 0 1 5 5v30a5.004 5.004 0 0 1-1.464 3.536A5.004 5.004 0 0 1 506 108h-50a5.004 5.004 0 0 1-3.536-1.464A5.004 5.004 0 0 1 451 103V73Z"/><path fill="#000" d="M471.18 94h-2.205l-3.75-10.755h1.47l3.435 9.9 3.435-9.9h1.35L471.18 94Zm10.527-3.21 3.495-7.545h1.83V94h-1.425v-8.655l-3.3 7.005-.705.015h-.63l.015-.015-3.255-7.125V94h-1.335V83.245h1.965l3.345 7.545ZM499.162 94h-6.855v-1.425c.91-.73 1.695-1.38 2.355-1.95.67-.57 1.22-1.095 1.65-1.575.43-.48.75-.935.96-1.365.21-.44.315-.895.315-1.365 0-.59-.18-1.065-.54-1.425-.35-.37-.865-.555-1.545-.555-.57 0-1.1.14-1.59.42-.49.28-.93.635-1.32 1.065V84.31c.38-.37.81-.665 1.29-.885.48-.22 1.035-.33 1.665-.33.56 0 1.055.075 1.485.225.44.15.805.36 1.095.63.3.27.525.595.675.975.16.38.24.8.24 1.26a3.93 3.93 0 0 1-.345 1.635c-.22.51-.55 1.02-.99 1.53-.44.51-.985 1.04-1.635 1.59-.64.54-1.375 1.13-2.205 1.77h5.295V94Z"/><path fill="#FFF5CC" d="M519 73a5.002 5.002 0 0 1 5-5h50a5.002 5.002 0 0 1 5 5v80a5.004 5.004 0 0 1-1.464 3.536A5.004 5.004 0 0 1 574 158h-50a5.004 5.004 0 0 1-3.536-1.464A5.004 5.004 0 0 1 519 153V73Z"/><path fill="#000" d="M540.18 94h-2.205l-3.75-10.755h1.47l3.435 9.9 3.435-9.9h1.35L540.18 94Zm10.527-3.21 3.495-7.545h1.83V94h-1.425v-8.655l-3.3 7.005-.705.015h-.63l.015-.015-3.255-7.125V94h-1.335V83.245h1.965l3.345 7.545Zm16.24.66V94h-1.32v-2.55h-4.65v-.93l4.2-7.275h1.77v7.065h1.455v1.14h-1.455Zm-1.32-1.14v-5.595l-3.285 5.595h3.285Z"/><path fill="#FFF5CC" d="M380 73a5.002 5.002 0 0 1 5-5h50a5.002 5.002 0 0 1 5 5v80a5.004 5.004 0 0 1-1.464 3.536A5.004 5.004 0 0 1 435 158h-50a5.004 5.004 0 0 1-3.536-1.464A5.004 5.004 0 0 1 380 153V73Z"/><path stroke="#000" d="M380 47.5h200"/><path fill="#FFDADA" stroke="#FF4645" stroke-linecap="round" stroke-linejoin="round" stroke-miterlimit="3" stroke-width=".01" d="M293 356a8 8 0 1 0 0-16 8 8 0 0 0 0 16Z"/><path fill="#DAEEF9" stroke="#A5C733" stroke-linecap="round" stroke-linejoin="round" stroke-miterlimit="3" stroke-width=".01" d="M458 356a8 8 0 1 0 0-16 8 8 0 0 0 0 16Z"/><path fill="#FFF5CC" stroke="#FC0" stroke-linecap="round" stroke-linejoin="round" stroke-miterlimit="3" stroke-width=".01" d="M128 356a8 8 0 1 0 0-16 8 8 0 0 0 0 16Z"/><path fill="#000" d="M438.218 22.245h3.615c.72 0 1.39.085 2.01.255.62.17 1.16.45 1.62.84.46.39.82.905 1.08 1.545.26.64.39 1.43.39 2.37 0 .95-.135 1.785-.405 2.505-.26.71-.625 1.305-1.095 1.785-.46.48-1.015.845-1.665 1.095-.64.24-1.34.36-2.1.36h-3.45V22.245Zm1.41 1.29v8.19h2.04a4.34 4.34 0 0 0 1.515-.255c.46-.17.855-.43 1.185-.78.33-.36.585-.815.765-1.365.18-.55.27-1.205.27-1.965 0-.75-.09-1.37-.27-1.86-.18-.5-.43-.895-.75-1.185-.31-.29-.685-.49-1.125-.6a5.4 5.4 0 0 0-1.425-.18h-2.205Zm15.269 8.805a4.18 4.18 0 0 1-.405.255c-.16.09-.355.18-.585.27-.23.08-.49.145-.78.195-.29.06-.615.09-.975.09-1.31 0-2.305-.355-2.985-1.065-.68-.71-1.02-1.705-1.02-2.985 0-.63.09-1.195.27-1.695.19-.5.45-.92.78-1.26.33-.35.72-.615 1.17-.795.45-.19.94-.285 1.47-.285.56 0 1.06.095 1.5.285.44.19.8.47 1.08.84.29.37.485.83.585 1.38.11.54.11 1.17 0 1.89h-5.49c.05.84.3 1.47.75 1.89.45.41 1.12.615 2.01.615.6 0 1.115-.085 1.545-.255.43-.17.79-.355 1.08-.555v1.185Zm-3.09-6.105c-.57 0-1.06.175-1.47.525-.41.35-.67.88-.78 1.59h4.185c.04-.72-.125-1.25-.495-1.59-.37-.35-.85-.525-1.44-.525Zm10.429 5.235c-.24.51-.575.92-1.005 1.23-.43.3-.975.45-1.635.45-.47 0-.915-.08-1.335-.24-.42-.17-.79-.42-1.11-.75-.32-.34-.575-.76-.765-1.26-.19-.51-.285-1.11-.285-1.8 0-.68.095-1.27.285-1.77.19-.51.445-.93.765-1.26.32-.34.69-.59 1.11-.75.43-.17.88-.255 1.35-.255.59 0 1.1.125 1.53.375.43.24.775.585 1.035 1.035v-4.23h1.32V33h-1.155l-.105-1.53Zm-2.445.495c.34 0 .655-.055.945-.165.29-.12.54-.3.75-.54.22-.24.39-.54.51-.9.13-.36.195-.78.195-1.26s-.065-.9-.195-1.26c-.12-.36-.29-.66-.51-.9-.21-.24-.46-.415-.75-.525-.29-.12-.605-.18-.945-.18-.69 0-1.255.245-1.695.735-.43.48-.645 1.19-.645 2.13 0 .95.22 1.665.66 2.145.44.48 1 .72 1.68.72Zm6.534-7.89c-.27 0-.485-.08-.645-.24a.865.865 0 0 1-.24-.615c0-.24.08-.445.24-.615.16-.17.375-.255.645-.255.26 0 .465.085.615.255.15.17.225.375.225.615s-.075.445-.225.615c-.15.16-.355.24-.615.24Zm.645 1.14V33h-1.32v-7.785h1.32Zm5.512 7.935c-.6 0-1.145-.09-1.635-.27-.48-.19-.89-.455-1.23-.795-.34-.35-.6-.775-.78-1.275-.18-.5-.27-1.07-.27-1.71 0-.63.09-1.195.27-1.695.19-.5.455-.92.795-1.26.34-.35.755-.615 1.245-.795.49-.19 1.045-.285 1.665-.285.48 0 .92.055 1.32.165.4.1.73.25.99.45v1.185c-.32-.21-.68-.365-1.08-.465a4.454 4.454 0 0 0-1.215-.165c-.91 0-1.58.235-2.01.705-.42.47-.63 1.19-.63 2.16 0 .97.205 1.69.615 2.16.41.47 1.06.705 1.95.705.47 0 .9-.055 1.29-.165.4-.12.76-.27 1.08-.45v1.185a4.597 4.597 0 0 1-2.37.615Zm8.538-1.635c-.09.18-.205.37-.345.57A2.61 2.61 0 0 1 479.4 33c-.28.1-.61.15-.99.15-.7 0-1.265-.195-1.695-.585-.43-.4-.645-.97-.645-1.71 0-.85.295-1.475.885-1.875.6-.4 1.45-.6 2.55-.6h1.455v-.645c0-.54-.14-.925-.42-1.155-.28-.23-.76-.345-1.44-.345-.48 0-.935.08-1.365.24a6.49 6.49 0 0 0-1.155.525v-1.185c.28-.17.655-.335 1.125-.495a4.688 4.688 0 0 1 1.575-.255c.98 0 1.725.205 2.235.615.51.4.765 1.025.765 1.875v4.5c.01.11.015.225.015.345l.03.345c.01.1.02.185.03.255h-1.2c-.03-.14-.06-.335-.09-.585-.02-.26-.03-.485-.03-.675l-.015-.225Zm-2.325.45c.41 0 .76-.085 1.05-.255.29-.17.525-.365.705-.585.18-.23.31-.45.39-.66.08-.22.12-.375.12-.465v-.57h-1.32c-.79 0-1.365.115-1.725.345-.35.22-.525.555-.525 1.005 0 .35.105.635.315.855.21.22.54.33.99.33Zm9.471.87c-.16.09-.365.165-.615.225s-.515.09-.795.09c-.38 0-.705-.055-.975-.165a1.88 1.88 0 0 1-.645-.435 1.85 1.85 0 0 1-.375-.63 2.612 2.612 0 0 1-.105-.735V26.34h-.93v-1.125h.93V23.58h1.32v1.635h2.265v1.125h-2.265v4.68c0 .33.08.57.24.72.17.15.465.225.885.225.39 0 .745-.11 1.065-.33v1.2Zm7.878-.495a4.18 4.18 0 0 1-.405.255c-.16.09-.355.18-.585.27-.23.08-.49.145-.78.195-.29.06-.615.09-.975.09-1.31 0-2.305-.355-2.985-1.065-.68-.71-1.02-1.705-1.02-2.985 0-.63.09-1.195.27-1.695.19-.5.45-.92.78-1.26.33-.35.72-.615 1.17-.795.45-.19.94-.285 1.47-.285.56 0 1.06.095 1.5.285.44.19.8.47 1.08.84.29.37.485.83.585 1.38.11.54.11 1.17 0 1.89h-5.49c.05.84.3 1.47.75 1.89.45.41 1.12.615 2.01.615.6 0 1.115-.085 1.545-.255.43-.17.79-.355 1.08-.555v1.185Zm-3.09-6.105c-.57 0-1.06.175-1.47.525-.41.35-.67.88-.78 1.59h4.185c.04-.72-.125-1.25-.495-1.59-.37-.35-.85-.525-1.44-.525Zm10.429 5.235c-.24.51-.575.92-1.005 1.23-.43.3-.975.45-1.635.45-.47 0-.915-.08-1.335-.24-.42-.17-.79-.42-1.11-.75-.32-.34-.575-.76-.765-1.26-.19-.51-.285-1.11-.285-1.8 0-.68.095-1.27.285-1.77.19-.51.445-.93.765-1.26.32-.34.69-.59 1.11-.75.43-.17.88-.255 1.35-.255.59 0 1.1.125 1.53.375.43.24.775.585 1.035 1.035v-4.23h1.32V33h-1.155l-.105-1.53Zm-2.445.495c.34 0 .655-.055.945-.165.29-.12.54-.3.75-.54.22-.24.39-.54.51-.9.13-.36.195-.78.195-1.26s-.065-.9-.195-1.26c-.12-.36-.29-.66-.51-.9-.21-.24-.46-.415-.75-.525-.29-.12-.605-.18-.945-.18-.69 0-1.255.245-1.695.735-.43.48-.645 1.19-.645 2.13 0 .95.22 1.665.66 2.145.44.48 1 .72 1.68.72Zm12.845-5.73c-.6 0-1.09.14-1.47.42-.37.27-.67.62-.9 1.05V33h-1.32V22.245h1.32v2.97l-.03 1.395h.03c.21-.44.54-.805.99-1.095.45-.3 1.02-.45 1.71-.45.77 0 1.38.205 1.83.615.46.4.69 1.02.69 1.86V33h-1.32v-5.325c0-.54-.135-.915-.405-1.125-.27-.21-.645-.315-1.125-.315Zm8.133 6.915c-.53 0-1.025-.09-1.485-.27-.46-.18-.86-.44-1.2-.78a3.8 3.8 0 0 1-.78-1.275c-.19-.5-.285-1.075-.285-1.725 0-.64.095-1.21.285-1.71.19-.51.45-.935.78-1.275.34-.34.74-.6 1.2-.78.46-.18.955-.27 1.485-.27.54 0 1.04.09 1.5.27.46.18.855.44 1.185.78.34.34.605.765.795 1.275.2.5.3 1.07.3 1.71 0 .65-.1 1.225-.3 1.725-.19.5-.455.925-.795 1.275-.33.34-.725.6-1.185.78-.46.18-.96.27-1.5.27Zm0-1.185c.35 0 .67-.055.96-.165.3-.12.56-.295.78-.525.22-.24.39-.54.51-.9s.18-.785.18-1.275c0-.49-.06-.915-.18-1.275-.12-.36-.29-.655-.51-.885a1.96 1.96 0 0 0-.78-.525c-.29-.12-.61-.18-.96-.18s-.67.06-.96.18c-.29.11-.545.285-.765.525-.21.23-.375.525-.495.885s-.18.785-.18 1.275c0 .49.06.915.18 1.275.12.36.285.66.495.9.22.23.475.405.765.525.29.11.61.165.96.165Zm7.879 1.185c-.41 0-.775-.035-1.095-.105a5.141 5.141 0 0 1-.825-.225c-.23-.1-.425-.2-.585-.3a3.952 3.952 0 0 1-.375-.285V31.05c.1.1.235.21.405.33.17.11.375.215.615.315s.51.185.81.255c.31.06.655.09 1.035.09.56 0 1.005-.09 1.335-.27.33-.18.495-.485.495-.915 0-.23-.055-.415-.165-.555-.1-.14-.24-.25-.42-.33-.18-.09-.39-.16-.63-.21-.23-.05-.475-.1-.735-.15-.33-.07-.655-.145-.975-.225-.32-.09-.61-.215-.87-.375-.26-.17-.47-.385-.63-.645-.16-.27-.24-.62-.24-1.05 0-.7.27-1.25.81-1.65.55-.4 1.315-.6 2.295-.6.55 0 1.035.055 1.455.165.43.11.76.23.99.36v1.185a3.53 3.53 0 0 0-.975-.42c-.38-.12-.855-.18-1.425-.18-.59 0-1.045.08-1.365.24-.31.16-.465.45-.465.87 0 .21.045.38.135.51.09.12.21.22.36.3.16.07.34.125.54.165.2.04.41.085.63.135.34.07.69.145 1.05.225.36.08.68.205.96.375.29.17.525.4.705.69.19.28.285.66.285 1.14 0 .45-.09.825-.27 1.125-.18.3-.42.54-.72.72-.29.17-.625.29-1.005.36-.37.08-.75.12-1.14.12Zm8.571-.315c-.16.09-.365.165-.615.225s-.515.09-.795.09c-.38 0-.705-.055-.975-.165a1.88 1.88 0 0 1-.645-.435 1.85 1.85 0 0 1-.375-.63 2.612 2.612 0 0 1-.105-.735V26.34h-.93v-1.125h.93V23.58h1.32v1.635h2.265v1.125h-2.265v4.68c0 .33.08.57.24.72.17.15.465.225.885.225.39 0 .745-.11 1.065-.33v1.2ZM187.237 33h-2.205l-3.75-10.755h1.47l3.435 9.9 3.435-9.9h1.35L187.237 33Zm5.712-8.925c-.27 0-.485-.08-.645-.24a.865.865 0 0 1-.24-.615c0-.24.08-.445.24-.615.16-.17.375-.255.645-.255.26 0 .465.085.615.255.15.17.225.375.225.615s-.075.445-.225.615c-.15.16-.355.24-.615.24Zm.645 1.14V33h-1.32v-7.785h1.32Zm6.007 1.32c-.56.05-1.07.195-1.53.435-.45.23-.785.59-1.005 1.08V33h-1.32v-7.785h1.155l.135 1.695h.03c.22-.46.535-.86.945-1.2.42-.35.95-.565 1.59-.645v1.47Zm5.492 6.3c-.16.09-.365.165-.615.225s-.515.09-.795.09c-.38 0-.705-.055-.975-.165a1.88 1.88 0 0 1-.645-.435 1.85 1.85 0 0 1-.375-.63 2.612 2.612 0 0 1-.105-.735V26.34h-.93v-1.125h.93V23.58h1.32v1.635h2.265v1.125h-2.265v4.68c0 .33.08.57.24.72.17.15.465.225.885.225.39 0 .745-.11 1.065-.33v1.2Zm6.751-1.23c-.21.44-.535.81-.975 1.11-.43.29-.995.435-1.695.435-.72 0-1.305-.2-1.755-.6-.44-.41-.66-1.04-.66-1.89v-5.445h1.335v5.445c0 .26.035.475.105.645a1.108 1.108 0 0 0 .765.6c.18.04.375.06.585.06.58 0 1.045-.13 1.395-.39.35-.26.65-.615.9-1.065v-5.295h1.32V33h-1.17l-.12-1.395h-.03Zm8.046-.09c-.09.18-.205.37-.345.57a2.61 2.61 0 0 1-1.275.915c-.28.1-.61.15-.99.15-.7 0-1.265-.195-1.695-.585-.43-.4-.645-.97-.645-1.71 0-.85.295-1.475.885-1.875.6-.4 1.45-.6 2.55-.6h1.455v-.645c0-.54-.14-.925-.42-1.155-.28-.23-.76-.345-1.44-.345-.48 0-.935.08-1.365.24a6.49 6.49 0 0 0-1.155.525v-1.185c.28-.17.655-.335 1.125-.495a4.688 4.688 0 0 1 1.575-.255c.98 0 1.725.205 2.235.615.51.4.765 1.025.765 1.875v4.5c.01.11.015.225.015.345l.03.345c.01.1.02.185.03.255h-1.2c-.03-.14-.06-.335-.09-.585-.02-.26-.03-.485-.03-.675l-.015-.225Zm-2.325.45c.41 0 .76-.085 1.05-.255.29-.17.525-.365.705-.585.18-.23.31-.45.39-.66.08-.22.12-.375.12-.465v-.57h-1.32c-.79 0-1.365.115-1.725.345-.35.22-.525.555-.525 1.005 0 .35.105.635.315.855.21.22.54.33.99.33Zm6.981-9.72V33h-1.32V22.245h1.32Zm9.138 3.99c-.6 0-1.09.14-1.47.42-.37.27-.67.62-.9 1.05V33h-1.32V22.245h1.32v2.97l-.03 1.395h.03c.21-.44.54-.805.99-1.095.45-.3 1.02-.45 1.71-.45.77 0 1.38.205 1.83.615.46.4.69 1.02.69 1.86V33h-1.32v-5.325c0-.54-.135-.915-.405-1.125-.27-.21-.645-.315-1.125-.315Zm8.133 6.915c-.53 0-1.025-.09-1.485-.27-.46-.18-.86-.44-1.2-.78a3.8 3.8 0 0 1-.78-1.275c-.19-.5-.285-1.075-.285-1.725 0-.64.095-1.21.285-1.71.19-.51.45-.935.78-1.275.34-.34.74-.6 1.2-.78.46-.18.955-.27 1.485-.27.54 0 1.04.09 1.5.27.46.18.855.44 1.185.78.34.34.605.765.795 1.275.2.5.3 1.07.3 1.71 0 .65-.1 1.225-.3 1.725-.19.5-.455.925-.795 1.275-.33.34-.725.6-1.185.78-.46.18-.96.27-1.5.27Zm0-1.185c.35 0 .67-.055.96-.165.3-.12.56-.295.78-.525.22-.24.39-.54.51-.9s.18-.785.18-1.275c0-.49-.06-.915-.18-1.275-.12-.36-.29-.655-.51-.885a1.96 1.96 0 0 0-.78-.525c-.29-.12-.61-.18-.96-.18s-.67.06-.96.18c-.29.11-.545.285-.765.525-.21.23-.375.525-.495.885s-.18.785-.18 1.275c0 .49.06.915.18 1.275.12.36.285.66.495.9.22.23.475.405.765.525.29.11.61.165.96.165Zm7.878 1.185c-.41 0-.775-.035-1.095-.105a5.141 5.141 0 0 1-.825-.225c-.23-.1-.425-.2-.585-.3a3.952 3.952 0 0 1-.375-.285V31.05c.1.1.235.21.405.33.17.11.375.215.615.315s.51.185.81.255c.31.06.655.09 1.035.09.56 0 1.005-.09 1.335-.27.33-.18.495-.485.495-.915 0-.23-.055-.415-.165-.555-.1-.14-.24-.25-.42-.33-.18-.09-.39-.16-.63-.21-.23-.05-.475-.1-.735-.15-.33-.07-.655-.145-.975-.225-.32-.09-.61-.215-.87-.375-.26-.17-.47-.385-.63-.645-.16-.27-.24-.62-.24-1.05 0-.7.27-1.25.81-1.65.55-.4 1.315-.6 2.295-.6.55 0 1.035.055 1.455.165.43.11.76.23.99.36v1.185a3.53 3.53 0 0 0-.975-.42c-.38-.12-.855-.18-1.425-.18-.59 0-1.045.08-1.365.24-.31.16-.465.45-.465.87 0 .21.045.38.135.51.09.12.21.22.36.3.16.07.34.125.54.165.2.04.41.085.63.135.34.07.69.145 1.05.225.36.08.68.205.96.375.29.17.525.4.705.69.19.28.285.66.285 1.14 0 .45-.09.825-.27 1.125-.18.3-.42.54-.72.72-.29.17-.625.29-1.005.36-.37.08-.75.12-1.14.12Zm8.571-.315c-.16.09-.365.165-.615.225s-.515.09-.795.09c-.38 0-.705-.055-.975-.165a1.88 1.88 0 0 1-.645-.435 1.85 1.85 0 0 1-.375-.63 2.612 2.612 0 0 1-.105-.735V26.34h-.93v-1.125h.93V23.58h1.32v1.635h2.265v1.125h-2.265v4.68c0 .33.08.57.24.72.17.15.465.225.885.225.39 0 .745-.11 1.065-.33v1.2ZM187.19 203.305h-5.52V208h-1.41v-10.755h1.41v4.785h5.52v-4.785h1.425V208h-1.425v-4.695Zm7.569 4.605c-.18.47-.37.88-.57 1.23-.2.36-.425.665-.675.915-.25.25-.53.435-.84.555-.31.13-.665.195-1.065.195-.2 0-.385-.015-.555-.045a1.67 1.67 0 0 1-.465-.12v-1.275c.11.08.25.14.42.18.17.05.355.075.555.075.37 0 .675-.09.915-.27.24-.17.47-.445.69-.825l-3.165-8.31h1.455l2.475 6.57 2.46-6.57h1.275l-2.91 7.695Zm8.059.24c-.6 0-1.12-.14-1.56-.42a3.054 3.054 0 0 1-1.035-1.155v4.08h-1.32v-10.44h1.155l.135 1.515c.26-.51.61-.915 1.05-1.215.44-.3.985-.45 1.635-.45.45 0 .88.085 1.29.255.42.16.785.41 1.095.75.32.33.57.75.75 1.26.19.5.285 1.09.285 1.77 0 .69-.095 1.29-.285 1.8-.19.5-.445.92-.765 1.26-.32.33-.69.58-1.11.75-.42.16-.86.24-1.32.24Zm-.195-1.185c.69 0 1.245-.235 1.665-.705.43-.48.645-1.2.645-2.16 0-.94-.215-1.65-.645-2.13-.42-.49-.975-.735-1.665-.735-.34 0-.66.06-.96.18-.29.12-.545.3-.765.54-.21.23-.38.525-.51.885-.12.36-.18.78-.18 1.26s.06.9.18 1.26c.13.36.3.66.51.9.22.24.475.42.765.54.3.11.62.165.96.165Zm11.469.375a4.18 4.18 0 0 1-.405.255c-.16.09-.355.18-.585.27-.23.08-.49.145-.78.195-.29.06-.615.09-.975.09-1.31 0-2.305-.355-2.985-1.065-.68-.71-1.02-1.705-1.02-2.985 0-.63.09-1.195.27-1.695.19-.5.45-.92.78-1.26.33-.35.72-.615 1.17-.795.45-.19.94-.285 1.47-.285.56 0 1.06.095 1.5.285.44.19.8.47 1.08.84.29.37.485.83.585 1.38.11.54.11 1.17 0 1.89h-5.49c.05.84.3 1.47.75 1.89.45.41 1.12.615 2.01.615.6 0 1.115-.085 1.545-.255.43-.17.79-.355 1.08-.555v1.185Zm-3.09-6.105c-.57 0-1.06.175-1.47.525-.41.35-.67.88-.78 1.59h4.185c.04-.72-.125-1.25-.495-1.59-.37-.35-.85-.525-1.44-.525Zm8.704.3c-.56.05-1.07.195-1.53.435-.45.23-.785.59-1.005 1.08V208h-1.32v-7.785h1.155l.135 1.695h.03c.22-.46.535-.86.945-1.2.42-.35.95-.565 1.59-.645v1.47Zm5.699 6.465h-2.13l-2.67-7.785h1.425l2.37 7.08 2.355-7.08h1.32l-2.67 7.785Zm4.569-8.925c-.27 0-.485-.08-.645-.24a.865.865 0 0 1-.24-.615c0-.24.08-.445.24-.615.16-.17.375-.255.645-.255.26 0 .465.085.615.255.15.17.225.375.225.615s-.075.445-.225.615c-.15.16-.355.24-.615.24Zm.645 1.14V208h-1.32v-7.785h1.32Zm4.641 7.935c-.41 0-.775-.035-1.095-.105a5.141 5.141 0 0 1-.825-.225c-.23-.1-.425-.2-.585-.3a3.952 3.952 0 0 1-.375-.285v-1.185c.1.1.235.21.405.33.17.11.375.215.615.315s.51.185.81.255c.31.06.655.09 1.035.09.56 0 1.005-.09 1.335-.27.33-.18.495-.485.495-.915 0-.23-.055-.415-.165-.555-.1-.14-.24-.25-.42-.33-.18-.09-.39-.16-.63-.21-.23-.05-.475-.1-.735-.15-.33-.07-.655-.145-.975-.225-.32-.09-.61-.215-.87-.375-.26-.17-.47-.385-.63-.645-.16-.27-.24-.62-.24-1.05 0-.7.27-1.25.81-1.65.55-.4 1.315-.6 2.295-.6.55 0 1.035.055 1.455.165.43.11.76.23.99.36v1.185a3.53 3.53 0 0 0-.975-.42c-.38-.12-.855-.18-1.425-.18-.59 0-1.045.08-1.365.24-.31.16-.465.45-.465.87 0 .21.045.38.135.51.09.12.21.22.36.3.16.07.34.125.54.165.2.04.41.085.63.135.34.07.69.145 1.05.225.36.08.68.205.96.375.29.17.525.4.705.69.19.28.285.66.285 1.14 0 .45-.09.825-.27 1.125-.18.3-.42.54-.72.72-.29.17-.625.29-1.005.36-.37.08-.75.12-1.14.12Zm7.956 0c-.53 0-1.025-.09-1.485-.27-.46-.18-.86-.44-1.2-.78a3.8 3.8 0 0 1-.78-1.275c-.19-.5-.285-1.075-.285-1.725 0-.64.095-1.21.285-1.71.19-.51.45-.935.78-1.275.34-.34.74-.6 1.2-.78.46-.18.955-.27 1.485-.27.54 0 1.04.09 1.5.27.46.18.855.44 1.185.78.34.34.605.765.795 1.275.2.5.3 1.07.3 1.71 0 .65-.1 1.225-.3 1.725-.19.5-.455.925-.795 1.275-.33.34-.725.6-1.185.78-.46.18-.96.27-1.5.27Zm0-1.185c.35 0 .67-.055.96-.165.3-.12.56-.295.78-.525.22-.24.39-.54.51-.9s.18-.785.18-1.275c0-.49-.06-.915-.18-1.275-.12-.36-.29-.655-.51-.885a1.96 1.96 0 0 0-.78-.525c-.29-.12-.61-.18-.96-.18s-.67.06-.96.18c-.29.11-.545.285-.765.525-.21.23-.375.525-.495.885s-.18.785-.18 1.275c0 .49.06.915.18 1.275.12.36.285.66.495.9.22.23.475.405.765.525.29.11.61.165.96.165Zm9.244-5.43c-.56.05-1.07.195-1.53.435-.45.23-.785.59-1.005 1.08V208h-1.32v-7.785h1.155l.135 1.695h.03c.22-.46.535-.86.945-1.2.42-.35.95-.565 1.59-.645v1.47ZM140.18 94h-2.205l-3.75-10.755h1.47l3.435 9.9 3.435-9.9h1.35L140.18 94Zm10.527-3.21 3.495-7.545h1.83V94h-1.425v-8.655l-3.3 7.005-.705.015h-.63l.015-.015-3.255-7.125V94h-1.335V83.245h1.965l3.345 7.545ZM166.152 94h-1.365v-9.06l-2.97 2.28v-1.515l3.195-2.46h1.14V94ZM401.18 94h-2.205l-3.75-10.755h1.47l3.435 9.9 3.435-9.9h1.35L401.18 94Zm10.527-3.21 3.495-7.545h1.83V94h-1.425v-8.655l-3.3 7.005-.705.015h-.63l.015-.015-3.255-7.125V94h-1.335V83.245h1.965l3.345 7.545ZM427.152 94h-1.365v-9.06l-2.97 2.28v-1.515l3.195-2.46h1.14V94ZM210.18 95h-2.205l-3.75-10.755h1.47l3.435 9.9 3.435-9.9h1.35L210.18 95Zm10.527-3.21 3.495-7.545h1.83V95h-1.425v-8.655l-3.3 7.005-.705.015h-.63l.015-.015-3.255-7.125V95h-1.335V84.245h1.965l3.345 7.545ZM238.162 95h-6.855v-1.425c.91-.73 1.695-1.38 2.355-1.95.67-.57 1.22-1.095 1.65-1.575.43-.48.75-.935.96-1.365.21-.44.315-.895.315-1.365 0-.59-.18-1.065-.54-1.425-.35-.37-.865-.555-1.545-.555-.57 0-1.1.14-1.59.42-.49.28-.93.635-1.32 1.065V85.31c.38-.37.81-.665 1.29-.885.48-.22 1.035-.33 1.665-.33.56 0 1.055.075 1.485.225.44.15.805.36 1.095.63.3.27.525.595.675.975.16.38.24.8.24 1.26a3.93 3.93 0 0 1-.345 1.635c-.22.51-.55 1.02-.99 1.53-.44.51-.985 1.04-1.635 1.59-.64.54-1.375 1.13-2.205 1.77h5.295V95ZM210.18 144h-2.205l-3.75-10.755h1.47l3.435 9.9 3.435-9.9h1.35L210.18 144Zm10.527-3.21 3.495-7.545h1.83V144h-1.425v-8.655l-3.3 7.005-.705.015h-.63l.015-.015-3.255-7.125V144h-1.335v-10.755h1.965l3.345 7.545Zm17.545.105c0 .5-.095.95-.285 1.35-.19.4-.455.745-.795 1.035-.34.28-.745.495-1.215.645-.47.15-.99.225-1.56.225-.7 0-1.305-.085-1.815-.255-.51-.17-.925-.39-1.245-.66v-1.5c.32.32.74.6 1.26.84.52.23 1.125.345 1.815.345.74 0 1.32-.175 1.74-.525.43-.35.645-.84.645-1.47 0-.6-.19-1.065-.57-1.395-.38-.34-.975-.51-1.785-.51h-1.38v-1.275h1.44c.57 0 1.03-.15 1.38-.45.35-.3.525-.735.525-1.305 0-.51-.165-.91-.495-1.2-.33-.3-.805-.45-1.425-.45-.64 0-1.19.12-1.65.36-.45.24-.86.52-1.23.84v-1.47c.35-.29.765-.525 1.245-.705.48-.18 1.03-.27 1.65-.27.51 0 .97.07 1.38.21.41.13.755.32 1.035.57.29.25.51.55.66.9.15.34.225.72.225 1.14 0 .34-.05.645-.15.915-.1.27-.24.505-.42.705-.17.2-.37.37-.6.51-.23.13-.475.225-.735.285.31.05.605.145.885.285.29.14.545.32.765.54.22.21.39.465.51.765.13.29.195.615.195.975ZM470.18 144h-2.205l-3.75-10.755h1.47l3.435 9.9 3.435-9.9h1.35L470.18 144Zm10.527-3.21 3.495-7.545h1.83V144h-1.425v-8.655l-3.3 7.005-.705.015h-.63l.015-.015-3.255-7.125V144h-1.335v-10.755h1.965l3.345 7.545Zm17.545.105c0 .5-.095.95-.285 1.35-.19.4-.455.745-.795 1.035-.34.28-.745.495-1.215.645-.47.15-.99.225-1.56.225-.7 0-1.305-.085-1.815-.255-.51-.17-.925-.39-1.245-.66v-1.5c.32.32.74.6 1.26.84.52.23 1.125.345 1.815.345.74 0 1.32-.175 1.74-.525.43-.35.645-.84.645-1.47 0-.6-.19-1.065-.57-1.395-.38-.34-.975-.51-1.785-.51h-1.38v-1.275h1.44c.57 0 1.03-.15 1.38-.45.35-.3.525-.735.525-1.305 0-.51-.165-.91-.495-1.2-.33-.3-.805-.45-1.425-.45-.64 0-1.19.12-1.65.36-.45.24-.86.52-1.23.84v-1.47c.35-.29.765-.525 1.245-.705.48-.18 1.03-.27 1.65-.27.51 0 .97.07 1.38.21.41.13.755.32 1.035.57.29.25.51.55.66.9.15.34.225.72.225 1.14 0 .34-.05.645-.15.915-.1.27-.24.505-.42.705-.17.2-.37.37-.6.51-.23.13-.475.225-.735.285.31.05.605.145.885.285.29.14.545.32.765.54.22.21.39.465.51.765.13.29.195.615.195.975ZM448.19 203.305h-5.52V208h-1.41v-10.755h1.41v4.785h5.52v-4.785h1.425V208h-1.425v-4.695Zm7.569 4.605c-.18.47-.37.88-.57 1.23-.2.36-.425.665-.675.915-.25.25-.53.435-.84.555-.31.13-.665.195-1.065.195-.2 0-.385-.015-.555-.045a1.67 1.67 0 0 1-.465-.12v-1.275c.11.08.25.14.42.18.17.05.355.075.555.075.37 0 .675-.09.915-.27.24-.17.47-.445.69-.825l-3.165-8.31h1.455l2.475 6.57 2.46-6.57h1.275l-2.91 7.695Zm8.059.24c-.6 0-1.12-.14-1.56-.42a3.054 3.054 0 0 1-1.035-1.155v4.08h-1.32v-10.44h1.155l.135 1.515c.26-.51.61-.915 1.05-1.215.44-.3.985-.45 1.635-.45.45 0 .88.085 1.29.255.42.16.785.41 1.095.75.32.33.57.75.75 1.26.19.5.285 1.09.285 1.77 0 .69-.095 1.29-.285 1.8-.19.5-.445.92-.765 1.26-.32.33-.69.58-1.11.75-.42.16-.86.24-1.32.24Zm-.195-1.185c.69 0 1.245-.235 1.665-.705.43-.48.645-1.2.645-2.16 0-.94-.215-1.65-.645-2.13-.42-.49-.975-.735-1.665-.735-.34 0-.66.06-.96.18-.29.12-.545.3-.765.54-.21.23-.38.525-.51.885-.12.36-.18.78-.18 1.26s.06.9.18 1.26c.13.36.3.66.51.9.22.24.475.42.765.54.3.11.62.165.96.165Zm11.469.375a4.18 4.18 0 0 1-.405.255c-.16.09-.355.18-.585.27-.23.08-.49.145-.78.195-.29.06-.615.09-.975.09-1.31 0-2.305-.355-2.985-1.065-.68-.71-1.02-1.705-1.02-2.985 0-.63.09-1.195.27-1.695.19-.5.45-.92.78-1.26.33-.35.72-.615 1.17-.795.45-.19.94-.285 1.47-.285.56 0 1.06.095 1.5.285.44.19.8.47 1.08.84.29.37.485.83.585 1.38.11.54.11 1.17 0 1.89h-5.49c.05.84.3 1.47.75 1.89.45.41 1.12.615 2.01.615.6 0 1.115-.085 1.545-.255.43-.17.79-.355 1.08-.555v1.185Zm-3.09-6.105c-.57 0-1.06.175-1.47.525-.41.35-.67.88-.78 1.59h4.185c.04-.72-.125-1.25-.495-1.59-.37-.35-.85-.525-1.44-.525Zm8.704.3c-.56.05-1.07.195-1.53.435-.45.23-.785.59-1.005 1.08V208h-1.32v-7.785h1.155l.135 1.695h.03c.22-.46.535-.86.945-1.2.42-.35.95-.565 1.59-.645v1.47Zm5.699 6.465h-2.13l-2.67-7.785h1.425l2.37 7.08 2.355-7.08h1.32l-2.67 7.785Zm4.569-8.925c-.27 0-.485-.08-.645-.24a.865.865 0 0 1-.24-.615c0-.24.08-.445.24-.615.16-.17.375-.255.645-.255.26 0 .465.085.615.255.15.17.225.375.225.615s-.075.445-.225.615c-.15.16-.355.24-.615.24Zm.645 1.14V208h-1.32v-7.785h1.32Zm4.641 7.935c-.41 0-.775-.035-1.095-.105a5.141 5.141 0 0 1-.825-.225c-.23-.1-.425-.2-.585-.3a3.952 3.952 0 0 1-.375-.285v-1.185c.1.1.235.21.405.33.17.11.375.215.615.315s.51.185.81.255c.31.06.655.09 1.035.09.56 0 1.005-.09 1.335-.27.33-.18.495-.485.495-.915 0-.23-.055-.415-.165-.555-.1-.14-.24-.25-.42-.33-.18-.09-.39-.16-.63-.21-.23-.05-.475-.1-.735-.15-.33-.07-.655-.145-.975-.225-.32-.09-.61-.215-.87-.375-.26-.17-.47-.385-.63-.645-.16-.27-.24-.62-.24-1.05 0-.7.27-1.25.81-1.65.55-.4 1.315-.6 2.295-.6.55 0 1.035.055 1.455.165.43.11.76.23.99.36v1.185a3.53 3.53 0 0 0-.975-.42c-.38-.12-.855-.18-1.425-.18-.59 0-1.045.08-1.365.24-.31.16-.465.45-.465.87 0 .21.045.38.135.51.09.12.21.22.36.3.16.07.34.125.54.165.2.04.41.085.63.135.34.07.69.145 1.05.225.36.08.68.205.96.375.29.17.525.4.705.69.19.28.285.66.285 1.14 0 .45-.09.825-.27 1.125-.18.3-.42.54-.72.72-.29.17-.625.29-1.005.36-.37.08-.75.12-1.14.12Zm7.956 0c-.53 0-1.025-.09-1.485-.27-.46-.18-.86-.44-1.2-.78a3.8 3.8 0 0 1-.78-1.275c-.19-.5-.285-1.075-.285-1.725 0-.64.095-1.21.285-1.71.19-.51.45-.935.78-1.275.34-.34.74-.6 1.2-.78.46-.18.955-.27 1.485-.27.54 0 1.04.09 1.5.27.46.18.855.44 1.185.78.34.34.605.765.795 1.275.2.5.3 1.07.3 1.71 0 .65-.1 1.225-.3 1.725-.19.5-.455.925-.795 1.275-.33.34-.725.6-1.185.78-.46.18-.96.27-1.5.27Zm0-1.185c.35 0 .67-.055.96-.165.3-.12.56-.295.78-.525.22-.24.39-.54.51-.9s.18-.785.18-1.275c0-.49-.06-.915-.18-1.275-.12-.36-.29-.655-.51-.885a1.96 1.96 0 0 0-.78-.525c-.29-.12-.61-.18-.96-.18s-.67.06-.96.18c-.29.11-.545.285-.765.525-.21.23-.375.525-.495.885s-.18.785-.18 1.275c0 .49.06.915.18 1.275.12.36.285.66.495.9.22.23.475.405.765.525.29.11.61.165.96.165Zm9.244-5.43c-.56.05-1.07.195-1.53.435-.45.23-.785.59-1.005 1.08V208h-1.32v-7.785h1.155l.135 1.695h.03c.22-.46.535-.86.945-1.2.42-.35.95-.565 1.59-.645v1.47ZM150.925 353.15c-.8 0-1.525-.125-2.175-.375a4.76 4.76 0 0 1-1.68-1.08 4.944 4.944 0 0 1-1.065-1.74c-.25-.69-.375-1.465-.375-2.325 0-.87.115-1.645.345-2.325.23-.68.57-1.255 1.02-1.725.45-.48 1-.845 1.65-1.095.66-.25 1.41-.375 2.25-.375.73 0 1.37.08 1.92.24.55.15 1 .33 1.35.54v1.35c-.45-.29-.97-.505-1.56-.645a7.331 7.331 0 0 0-1.725-.21c-1.27 0-2.21.355-2.82 1.065-.6.7-.9 1.76-.9 3.18 0 1.43.325 2.495.975 3.195.66.7 1.63 1.05 2.91 1.05.55 0 1.085-.075 1.605-.225a4.61 4.61 0 0 0 1.515-.765v1.35c-.29.23-.715.44-1.275.63-.55.19-1.205.285-1.965.285Zm10.213-1.545c-.21.44-.535.81-.975 1.11-.43.29-.995.435-1.695.435-.72 0-1.305-.2-1.755-.6-.44-.41-.66-1.04-.66-1.89v-5.445h1.335v5.445c0 .26.035.475.105.645a1.108 1.108 0 0 0 .765.6c.18.04.375.06.585.06.58 0 1.045-.13 1.395-.39.35-.26.65-.615.9-1.065v-5.295h1.32V353h-1.17l-.12-1.395h-.03Zm5.977 1.545c-.41 0-.775-.035-1.095-.105a5.141 5.141 0 0 1-.825-.225c-.23-.1-.425-.2-.585-.3a3.952 3.952 0 0 1-.375-.285v-1.185c.1.1.235.21.405.33.17.11.375.215.615.315s.51.185.81.255c.31.06.655.09 1.035.09.56 0 1.005-.09 1.335-.27.33-.18.495-.485.495-.915 0-.23-.055-.415-.165-.555-.1-.14-.24-.25-.42-.33-.18-.09-.39-.16-.63-.21-.23-.05-.475-.1-.735-.15-.33-.07-.655-.145-.975-.225-.32-.09-.61-.215-.87-.375-.26-.17-.47-.385-.63-.645-.16-.27-.24-.62-.24-1.05 0-.7.27-1.25.81-1.65.55-.4 1.315-.6 2.295-.6.55 0 1.035.055 1.455.165.43.11.76.23.99.36v1.185a3.53 3.53 0 0 0-.975-.42c-.38-.12-.855-.18-1.425-.18-.59 0-1.045.08-1.365.24-.31.16-.465.45-.465.87 0 .21.045.38.135.51.09.12.21.22.36.3.16.07.34.125.54.165.2.04.41.085.63.135.34.07.69.145 1.05.225.36.08.68.205.96.375.29.17.525.4.705.69.19.28.285.66.285 1.14 0 .45-.09.825-.27 1.125-.18.3-.42.54-.72.72-.29.17-.625.29-1.005.36-.37.08-.75.12-1.14.12Zm8.571-.315c-.16.09-.365.165-.615.225s-.515.09-.795.09c-.38 0-.705-.055-.975-.165a1.88 1.88 0 0 1-.645-.435 1.85 1.85 0 0 1-.375-.63 2.612 2.612 0 0 1-.105-.735v-4.845h-.93v-1.125h.93v-1.635h1.32v1.635h2.265v1.125h-2.265v4.68c0 .33.08.57.24.72.17.15.465.225.885.225.39 0 .745-.11 1.065-.33v1.2Zm4.878.315c-.53 0-1.025-.09-1.485-.27-.46-.18-.86-.44-1.2-.78a3.8 3.8 0 0 1-.78-1.275c-.19-.5-.285-1.075-.285-1.725 0-.64.095-1.21.285-1.71.19-.51.45-.935.78-1.275.34-.34.74-.6 1.2-.78.46-.18.955-.27 1.485-.27.54 0 1.04.09 1.5.27.46.18.855.44 1.185.78.34.34.605.765.795 1.275.2.5.3 1.07.3 1.71 0 .65-.1 1.225-.3 1.725-.19.5-.455.925-.795 1.275-.33.34-.725.6-1.185.78-.46.18-.96.27-1.5.27Zm0-1.185c.35 0 .67-.055.96-.165.3-.12.56-.295.78-.525.22-.24.39-.54.51-.9s.18-.785.18-1.275c0-.49-.06-.915-.18-1.275-.12-.36-.29-.655-.51-.885a1.96 1.96 0 0 0-.78-.525c-.29-.12-.61-.18-.96-.18s-.67.06-.96.18c-.29.11-.545.285-.765.525-.21.23-.375.525-.495.885s-.18.785-.18 1.275c0 .49.06.915.18 1.275.12.36.285.66.495.9.22.23.475.405.765.525.29.11.61.165.96.165Zm6.709 1.035h-1.32v-7.785h1.155l.135 1.395h.03c.21-.44.525-.805.945-1.095.42-.3.97-.45 1.65-.45.6 0 1.09.145 1.47.435.39.28.65.705.78 1.275.22-.53.555-.945 1.005-1.245.46-.31 1.015-.465 1.665-.465.72 0 1.29.205 1.71.615.42.4.63 1.02.63 1.86V353h-1.335v-5.295c0-.51-.125-.88-.375-1.11-.25-.24-.59-.36-1.02-.36-.29 0-.545.045-.765.135a1.81 1.81 0 0 0-.585.345c-.17.15-.325.325-.465.525s-.27.41-.39.63V353h-1.32v-5.445c0-.5-.125-.845-.375-1.035-.25-.19-.59-.285-1.02-.285-.28 0-.53.035-.75.105-.22.07-.42.17-.6.3-.17.13-.325.29-.465.48-.14.18-.27.38-.39.6V353Zm18.117-.66a4.18 4.18 0 0 1-.405.255c-.16.09-.355.18-.585.27-.23.08-.49.145-.78.195-.29.06-.615.09-.975.09-1.31 0-2.305-.355-2.985-1.065-.68-.71-1.02-1.705-1.02-2.985 0-.63.09-1.195.27-1.695.19-.5.45-.92.78-1.26.33-.35.72-.615 1.17-.795.45-.19.94-.285 1.47-.285.56 0 1.06.095 1.5.285.44.19.8.47 1.08.84.29.37.485.83.585 1.38.11.54.11 1.17 0 1.89h-5.49c.05.84.3 1.47.75 1.89.45.41 1.12.615 2.01.615.6 0 1.115-.085 1.545-.255.43-.17.79-.355 1.08-.555v1.185Zm-3.09-6.105c-.57 0-1.06.175-1.47.525-.41.35-.67.88-.78 1.59h4.185c.04-.72-.125-1.25-.495-1.59-.37-.35-.85-.525-1.44-.525Zm8.704.3c-.56.05-1.07.195-1.53.435-.45.23-.785.59-1.005 1.08V353h-1.32v-7.785h1.155l.135 1.695h.03c.22-.46.535-.86.945-1.2.42-.35.95-.565 1.59-.645v1.47Zm9.405 6.465h-1.365v-9.06l-2.97 2.28v-1.515l3.195-2.46h1.14V353ZM315.925 353.15c-.8 0-1.525-.125-2.175-.375a4.76 4.76 0 0 1-1.68-1.08 4.944 4.944 0 0 1-1.065-1.74c-.25-.69-.375-1.465-.375-2.325 0-.87.115-1.645.345-2.325.23-.68.57-1.255 1.02-1.725.45-.48 1-.845 1.65-1.095.66-.25 1.41-.375 2.25-.375.73 0 1.37.08 1.92.24.55.15 1 .33 1.35.54v1.35c-.45-.29-.97-.505-1.56-.645a7.331 7.331 0 0 0-1.725-.21c-1.27 0-2.21.355-2.82 1.065-.6.7-.9 1.76-.9 3.18 0 1.43.325 2.495.975 3.195.66.7 1.63 1.05 2.91 1.05.55 0 1.085-.075 1.605-.225a4.61 4.61 0 0 0 1.515-.765v1.35c-.29.23-.715.44-1.275.63-.55.19-1.205.285-1.965.285Zm10.213-1.545c-.21.44-.535.81-.975 1.11-.43.29-.995.435-1.695.435-.72 0-1.305-.2-1.755-.6-.44-.41-.66-1.04-.66-1.89v-5.445h1.335v5.445c0 .26.035.475.105.645a1.108 1.108 0 0 0 .765.6c.18.04.375.06.585.06.58 0 1.045-.13 1.395-.39.35-.26.65-.615.9-1.065v-5.295h1.32V353h-1.17l-.12-1.395h-.03Zm5.977 1.545c-.41 0-.775-.035-1.095-.105a5.141 5.141 0 0 1-.825-.225c-.23-.1-.425-.2-.585-.3a3.952 3.952 0 0 1-.375-.285v-1.185c.1.1.235.21.405.33.17.11.375.215.615.315s.51.185.81.255c.31.06.655.09 1.035.09.56 0 1.005-.09 1.335-.27.33-.18.495-.485.495-.915 0-.23-.055-.415-.165-.555-.1-.14-.24-.25-.42-.33-.18-.09-.39-.16-.63-.21-.23-.05-.475-.1-.735-.15-.33-.07-.655-.145-.975-.225-.32-.09-.61-.215-.87-.375-.26-.17-.47-.385-.63-.645-.16-.27-.24-.62-.24-1.05 0-.7.27-1.25.81-1.65.55-.4 1.315-.6 2.295-.6.55 0 1.035.055 1.455.165.43.11.76.23.99.36v1.185a3.53 3.53 0 0 0-.975-.42c-.38-.12-.855-.18-1.425-.18-.59 0-1.045.08-1.365.24-.31.16-.465.45-.465.87 0 .21.045.38.135.51.09.12.21.22.36.3.16.07.34.125.54.165.2.04.41.085.63.135.34.07.69.145 1.05.225.36.08.68.205.96.375.29.17.525.4.705.69.19.28.285.66.285 1.14 0 .45-.09.825-.27 1.125-.18.3-.42.54-.72.72-.29.17-.625.29-1.005.36-.37.08-.75.12-1.14.12Zm8.571-.315c-.16.09-.365.165-.615.225s-.515.09-.795.09c-.38 0-.705-.055-.975-.165a1.88 1.88 0 0 1-.645-.435 1.85 1.85 0 0 1-.375-.63 2.612 2.612 0 0 1-.105-.735v-4.845h-.93v-1.125h.93v-1.635h1.32v1.635h2.265v1.125h-2.265v4.68c0 .33.08.57.24.72.17.15.465.225.885.225.39 0 .745-.11 1.065-.33v1.2Zm4.878.315c-.53 0-1.025-.09-1.485-.27-.46-.18-.86-.44-1.2-.78a3.8 3.8 0 0 1-.78-1.275c-.19-.5-.285-1.075-.285-1.725 0-.64.095-1.21.285-1.71.19-.51.45-.935.78-1.275.34-.34.74-.6 1.2-.78.46-.18.955-.27 1.485-.27.54 0 1.04.09 1.5.27.46.18.855.44 1.185.78.34.34.605.765.795 1.275.2.5.3 1.07.3 1.71 0 .65-.1 1.225-.3 1.725-.19.5-.455.925-.795 1.275-.33.34-.725.6-1.185.78-.46.18-.96.27-1.5.27Zm0-1.185c.35 0 .67-.055.96-.165.3-.12.56-.295.78-.525.22-.24.39-.54.51-.9s.18-.785.18-1.275c0-.49-.06-.915-.18-1.275-.12-.36-.29-.655-.51-.885a1.96 1.96 0 0 0-.78-.525c-.29-.12-.61-.18-.96-.18s-.67.06-.96.18c-.29.11-.545.285-.765.525-.21.23-.375.525-.495.885s-.18.785-.18 1.275c0 .49.06.915.18 1.275.12.36.285.66.495.9.22.23.475.405.765.525.29.11.61.165.96.165Zm6.709 1.035h-1.32v-7.785h1.155l.135 1.395h.03c.21-.44.525-.805.945-1.095.42-.3.97-.45 1.65-.45.6 0 1.09.145 1.47.435.39.28.65.705.78 1.275.22-.53.555-.945 1.005-1.245.46-.31 1.015-.465 1.665-.465.72 0 1.29.205 1.71.615.42.4.63 1.02.63 1.86V353h-1.335v-5.295c0-.51-.125-.88-.375-1.11-.25-.24-.59-.36-1.02-.36-.29 0-.545.045-.765.135a1.81 1.81 0 0 0-.585.345c-.17.15-.325.325-.465.525s-.27.41-.39.63V353h-1.32v-5.445c0-.5-.125-.845-.375-1.035-.25-.19-.59-.285-1.02-.285-.28 0-.53.035-.75.105-.22.07-.42.17-.6.3-.17.13-.325.29-.465.48-.14.18-.27.38-.39.6V353Zm18.117-.66a4.18 4.18 0 0 1-.405.255c-.16.09-.355.18-.585.27-.23.08-.49.145-.78.195-.29.06-.615.09-.975.09-1.31 0-2.305-.355-2.985-1.065-.68-.71-1.02-1.705-1.02-2.985 0-.63.09-1.195.27-1.695.19-.5.45-.92.78-1.26.33-.35.72-.615 1.17-.795.45-.19.94-.285 1.47-.285.56 0 1.06.095 1.5.285.44.19.8.47 1.08.84.29.37.485.83.585 1.38.11.54.11 1.17 0 1.89h-5.49c.05.84.3 1.47.75 1.89.45.41 1.12.615 2.01.615.6 0 1.115-.085 1.545-.255.43-.17.79-.355 1.08-.555v1.185Zm-3.09-6.105c-.57 0-1.06.175-1.47.525-.41.35-.67.88-.78 1.59h4.185c.04-.72-.125-1.25-.495-1.59-.37-.35-.85-.525-1.44-.525Zm8.704.3c-.56.05-1.07.195-1.53.435-.45.23-.785.59-1.005 1.08V353h-1.32v-7.785h1.155l.135 1.695h.03c.22-.46.535-.86.945-1.2.42-.35.95-.565 1.59-.645v1.47ZM387.419 353h-6.855v-1.425c.91-.73 1.695-1.38 2.355-1.95.67-.57 1.22-1.095 1.65-1.575.43-.48.75-.935.96-1.365.21-.44.315-.895.315-1.365 0-.59-.18-1.065-.54-1.425-.35-.37-.865-.555-1.545-.555-.57 0-1.1.14-1.59.42-.49.28-.93.635-1.32 1.065v-1.515c.38-.37.81-.665 1.29-.885.48-.22 1.035-.33 1.665-.33.56 0 1.055.075 1.485.225.44.15.805.36 1.095.63.3.27.525.595.675.975.16.38.24.8.24 1.26a3.93 3.93 0 0 1-.345 1.635c-.22.51-.55 1.02-.99 1.53-.44.51-.985 1.04-1.635 1.59-.64.54-1.375 1.13-2.205 1.77h5.295V353ZM480.925 353.15c-.8 0-1.525-.125-2.175-.375a4.76 4.76 0 0 1-1.68-1.08 4.944 4.944 0 0 1-1.065-1.74c-.25-.69-.375-1.465-.375-2.325 0-.87.115-1.645.345-2.325.23-.68.57-1.255 1.02-1.725.45-.48 1-.845 1.65-1.095.66-.25 1.41-.375 2.25-.375.73 0 1.37.08 1.92.24.55.15 1 .33 1.35.54v1.35c-.45-.29-.97-.505-1.56-.645a7.331 7.331 0 0 0-1.725-.21c-1.27 0-2.21.355-2.82 1.065-.6.7-.9 1.76-.9 3.18 0 1.43.325 2.495.975 3.195.66.7 1.63 1.05 2.91 1.05.55 0 1.085-.075 1.605-.225a4.61 4.61 0 0 0 1.515-.765v1.35c-.29.23-.715.44-1.275.63-.55.19-1.205.285-1.965.285Zm10.213-1.545c-.21.44-.535.81-.975 1.11-.43.29-.995.435-1.695.435-.72 0-1.305-.2-1.755-.6-.44-.41-.66-1.04-.66-1.89v-5.445h1.335v5.445c0 .26.035.475.105.645a1.108 1.108 0 0 0 .765.6c.18.04.375.06.585.06.58 0 1.045-.13 1.395-.39.35-.26.65-.615.9-1.065v-5.295h1.32V353h-1.17l-.12-1.395h-.03Zm5.977 1.545c-.41 0-.775-.035-1.095-.105a5.141 5.141 0 0 1-.825-.225c-.23-.1-.425-.2-.585-.3a3.952 3.952 0 0 1-.375-.285v-1.185c.1.1.235.21.405.33.17.11.375.215.615.315s.51.185.81.255c.31.06.655.09 1.035.09.56 0 1.005-.09 1.335-.27.33-.18.495-.485.495-.915 0-.23-.055-.415-.165-.555-.1-.14-.24-.25-.42-.33-.18-.09-.39-.16-.63-.21-.23-.05-.475-.1-.735-.15-.33-.07-.655-.145-.975-.225-.32-.09-.61-.215-.87-.375-.26-.17-.47-.385-.63-.645-.16-.27-.24-.62-.24-1.05 0-.7.27-1.25.81-1.65.55-.4 1.315-.6 2.295-.6.55 0 1.035.055 1.455.165.43.11.76.23.99.36v1.185a3.53 3.53 0 0 0-.975-.42c-.38-.12-.855-.18-1.425-.18-.59 0-1.045.08-1.365.24-.31.16-.465.45-.465.87 0 .21.045.38.135.51.09.12.21.22.36.3.16.07.34.125.54.165.2.04.41.085.63.135.34.07.69.145 1.05.225.36.08.68.205.96.375.29.17.525.4.705.69.19.28.285.66.285 1.14 0 .45-.09.825-.27 1.125-.18.3-.42.54-.72.72-.29.17-.625.29-1.005.36-.37.08-.75.12-1.14.12Zm8.571-.315c-.16.09-.365.165-.615.225s-.515.09-.795.09c-.38 0-.705-.055-.975-.165a1.88 1.88 0 0 1-.645-.435 1.85 1.85 0 0 1-.375-.63 2.612 2.612 0 0 1-.105-.735v-4.845h-.93v-1.125h.93v-1.635h1.32v1.635h2.265v1.125h-2.265v4.68c0 .33.08.57.24.72.17.15.465.225.885.225.39 0 .745-.11 1.065-.33v1.2Zm4.878.315c-.53 0-1.025-.09-1.485-.27-.46-.18-.86-.44-1.2-.78a3.8 3.8 0 0 1-.78-1.275c-.19-.5-.285-1.075-.285-1.725 0-.64.095-1.21.285-1.71.19-.51.45-.935.78-1.275.34-.34.74-.6 1.2-.78.46-.18.955-.27 1.485-.27.54 0 1.04.09 1.5.27.46.18.855.44 1.185.78.34.34.605.765.795 1.275.2.5.3 1.07.3 1.71 0 .65-.1 1.225-.3 1.725-.19.5-.455.925-.795 1.275-.33.34-.725.6-1.185.78-.46.18-.96.27-1.5.27Zm0-1.185c.35 0 .67-.055.96-.165.3-.12.56-.295.78-.525.22-.24.39-.54.51-.9s.18-.785.18-1.275c0-.49-.06-.915-.18-1.275-.12-.36-.29-.655-.51-.885a1.96 1.96 0 0 0-.78-.525c-.29-.12-.61-.18-.96-.18s-.67.06-.96.18c-.29.11-.545.285-.765.525-.21.23-.375.525-.495.885s-.18.785-.18 1.275c0 .49.06.915.18 1.275.12.36.285.66.495.9.22.23.475.405.765.525.29.11.61.165.96.165Zm6.709 1.035h-1.32v-7.785h1.155l.135 1.395h.03c.21-.44.525-.805.945-1.095.42-.3.97-.45 1.65-.45.6 0 1.09.145 1.47.435.39.28.65.705.78 1.275.22-.53.555-.945 1.005-1.245.46-.31 1.015-.465 1.665-.465.72 0 1.29.205 1.71.615.42.4.63 1.02.63 1.86V353h-1.335v-5.295c0-.51-.125-.88-.375-1.11-.25-.24-.59-.36-1.02-.36-.29 0-.545.045-.765.135a1.81 1.81 0 0 0-.585.345c-.17.15-.325.325-.465.525s-.27.41-.39.63V353h-1.32v-5.445c0-.5-.125-.845-.375-1.035-.25-.19-.59-.285-1.02-.285-.28 0-.53.035-.75.105-.22.07-.42.17-.6.3-.17.13-.325.29-.465.48-.14.18-.27.38-.39.6V353Zm18.117-.66a4.18 4.18 0 0 1-.405.255c-.16.09-.355.18-.585.27-.23.08-.49.145-.78.195-.29.06-.615.09-.975.09-1.31 0-2.305-.355-2.985-1.065-.68-.71-1.02-1.705-1.02-2.985 0-.63.09-1.195.27-1.695.19-.5.45-.92.78-1.26.33-.35.72-.615 1.17-.795.45-.19.94-.285 1.47-.285.56 0 1.06.095 1.5.285.44.19.8.47 1.08.84.29.37.485.83.585 1.38.11.54.11 1.17 0 1.89h-5.49c.05.84.3 1.47.75 1.89.45.41 1.12.615 2.01.615.6 0 1.115-.085 1.545-.255.43-.17.79-.355 1.08-.555v1.185Zm-3.09-6.105c-.57 0-1.06.175-1.47.525-.41.35-.67.88-.78 1.59h4.185c.04-.72-.125-1.25-.495-1.59-.37-.35-.85-.525-1.44-.525Zm8.704.3c-.56.05-1.07.195-1.53.435-.45.23-.785.59-1.005 1.08V353h-1.32v-7.785h1.155l.135 1.695h.03c.22-.46.535-.86.945-1.2.42-.35.95-.565 1.59-.645v1.47Zm11.505 3.36c0 .5-.095.95-.285 1.35-.19.4-.455.745-.795 1.035-.34.28-.745.495-1.215.645-.47.15-.99.225-1.56.225-.7 0-1.305-.085-1.815-.255-.51-.17-.925-.39-1.245-.66v-1.5c.32.32.74.6 1.26.84.52.23 1.125.345 1.815.345.74 0 1.32-.175 1.74-.525.43-.35.645-.84.645-1.47 0-.6-.19-1.065-.57-1.395-.38-.34-.975-.51-1.785-.51h-1.38v-1.275h1.44c.57 0 1.03-.15 1.38-.45.35-.3.525-.735.525-1.305 0-.51-.165-.91-.495-1.2-.33-.3-.805-.45-1.425-.45-.64 0-1.19.12-1.65.36-.45.24-.86.52-1.23.84v-1.47c.35-.29.765-.525 1.245-.705.48-.18 1.03-.27 1.65-.27.51 0 .97.07 1.38.21.41.13.755.32 1.035.57.29.25.51.55.66.9.15.34.225.72.225 1.14 0 .34-.05.645-.15.915-.1.27-.24.505-.42.705-.17.2-.37.37-.6.51-.23.13-.475.225-.735.285.31.05.605.145.885.285.29.14.545.32.765.54.22.21.39.465.51.765.13.29.195.615.195.975Z"/><path fill="#FFDADA" d="M260 73a5.002 5.002 0 0 1 5-5h50a5.002 5.002 0 0 1 5 5v80a5.004 5.004 0 0 1-1.464 3.536A5.004 5.004 0 0 1 315 158h-50a5.004 5.004 0 0 1-3.536-1.464A5.004 5.004 0 0 1 260 153V73Z"/><path fill="#000" d="M279.18 95h-2.205l-3.75-10.755h1.47l3.435 9.9 3.435-9.9h1.35L279.18 95Zm10.527-3.21 3.495-7.545h1.83V95h-1.425v-8.655l-3.3 7.005-.705.015h-.63l.015-.015-3.255-7.125V95h-1.335V84.245h1.965l3.345 7.545Zm16.24.66V95h-1.32v-2.55h-4.65v-.93l4.2-7.275h1.77v7.065h1.455v1.14h-1.455Zm-1.32-1.14v-5.595l-3.285 5.595h3.285ZM436.19 273.305h-5.52V278h-1.41v-10.755h1.41v4.785h5.52v-4.785h1.425V278h-1.425v-4.695Zm6.939 4.845c-.53 0-1.025-.09-1.485-.27-.46-.18-.86-.44-1.2-.78a3.8 3.8 0 0 1-.78-1.275c-.19-.5-.285-1.075-.285-1.725 0-.64.095-1.21.285-1.71.19-.51.45-.935.78-1.275.34-.34.74-.6 1.2-.78.46-.18.955-.27 1.485-.27.54 0 1.04.09 1.5.27.46.18.855.44 1.185.78.34.34.605.765.795 1.275.2.5.3 1.07.3 1.71 0 .65-.1 1.225-.3 1.725-.19.5-.455.925-.795 1.275-.33.34-.725.6-1.185.78-.46.18-.96.27-1.5.27Zm0-1.185c.35 0 .67-.055.96-.165.3-.12.56-.295.78-.525.22-.24.39-.54.51-.9s.18-.785.18-1.275c0-.49-.06-.915-.18-1.275-.12-.36-.29-.655-.51-.885a1.96 1.96 0 0 0-.78-.525c-.29-.12-.61-.18-.96-.18s-.67.06-.96.18c-.29.11-.545.285-.765.525-.21.23-.375.525-.495.885s-.18.785-.18 1.275c0 .49.06.915.18 1.275.12.36.285.66.495.9.22.23.475.405.765.525.29.11.61.165.96.165Zm7.879 1.185c-.41 0-.775-.035-1.095-.105a5.141 5.141 0 0 1-.825-.225c-.23-.1-.425-.2-.585-.3a3.952 3.952 0 0 1-.375-.285v-1.185c.1.1.235.21.405.33.17.11.375.215.615.315s.51.185.81.255c.31.06.655.09 1.035.09.56 0 1.005-.09 1.335-.27.33-.18.495-.485.495-.915 0-.23-.055-.415-.165-.555-.1-.14-.24-.25-.42-.33-.18-.09-.39-.16-.63-.21-.23-.05-.475-.1-.735-.15-.33-.07-.655-.145-.975-.225-.32-.09-.61-.215-.87-.375-.26-.17-.47-.385-.63-.645-.16-.27-.24-.62-.24-1.05 0-.7.27-1.25.81-1.65.55-.4 1.315-.6 2.295-.6.55 0 1.035.055 1.455.165.43.11.76.23.99.36v1.185a3.53 3.53 0 0 0-.975-.42c-.38-.12-.855-.18-1.425-.18-.59 0-1.045.08-1.365.24-.31.16-.465.45-.465.87 0 .21.045.38.135.51.09.12.21.22.36.3.16.07.34.125.54.165.2.04.41.085.63.135.34.07.69.145 1.05.225.36.08.68.205.96.375.29.17.525.4.705.69.19.28.285.66.285 1.14 0 .45-.09.825-.27 1.125-.18.3-.42.54-.72.72-.29.17-.625.29-1.005.36-.37.08-.75.12-1.14.12Zm8.571-.315c-.16.09-.365.165-.615.225s-.515.09-.795.09c-.38 0-.705-.055-.975-.165a1.88 1.88 0 0 1-.645-.435 1.85 1.85 0 0 1-.375-.63 2.612 2.612 0 0 1-.105-.735v-4.845h-.93v-1.125h.93v-1.635h1.32v1.635h2.265v1.125h-2.265v4.68c0 .33.08.57.24.72.17.15.465.225.885.225.39 0 .745-.11 1.065-.33v1.2Zm8.743-6.6c-.6 0-1.09.14-1.47.42-.37.27-.67.62-.9 1.05V278h-1.32v-10.755h1.32v2.97l-.03 1.395h.03c.21-.44.54-.805.99-1.095.45-.3 1.02-.45 1.71-.45.77 0 1.38.205 1.83.615.46.4.69 1.02.69 1.86V278h-1.32v-5.325c0-.54-.135-.915-.405-1.125-.27-.21-.645-.315-1.125-.315Zm9.498 5.28c-.09.18-.205.37-.345.57a2.61 2.61 0 0 1-1.275.915c-.28.1-.61.15-.99.15-.7 0-1.265-.195-1.695-.585-.43-.4-.645-.97-.645-1.71 0-.85.295-1.475.885-1.875.6-.4 1.45-.6 2.55-.6h1.455v-.645c0-.54-.14-.925-.42-1.155-.28-.23-.76-.345-1.44-.345-.48 0-.935.08-1.365.24a6.49 6.49 0 0 0-1.155.525v-1.185c.28-.17.655-.335 1.125-.495a4.688 4.688 0 0 1 1.575-.255c.98 0 1.725.205 2.235.615.51.4.765 1.025.765 1.875v4.5c.01.11.015.225.015.345l.03.345c.01.1.02.185.03.255h-1.2c-.03-.14-.06-.335-.09-.585-.02-.26-.03-.485-.03-.675l-.015-.225Zm-2.325.45c.41 0 .76-.085 1.05-.255.29-.17.525-.365.705-.585.18-.23.31-.45.39-.66.08-.22.12-.375.12-.465v-.57h-1.32c-.79 0-1.365.115-1.725.345-.35.22-.525.555-.525 1.005 0 .35.105.635.315.855.21.22.54.33.99.33Zm9.515-5.43c-.56.05-1.07.195-1.53.435-.45.23-.785.59-1.005 1.08V278h-1.32v-7.785h1.155l.135 1.695h.03c.22-.46.535-.86.945-1.2.42-.35.95-.565 1.59-.645v1.47Zm7.116 4.935c-.24.51-.575.92-1.005 1.23-.43.3-.975.45-1.635.45-.47 0-.915-.08-1.335-.24-.42-.17-.79-.42-1.11-.75-.32-.34-.575-.76-.765-1.26-.19-.51-.285-1.11-.285-1.8 0-.68.095-1.27.285-1.77.19-.51.445-.93.765-1.26.32-.34.69-.59 1.11-.75.43-.17.88-.255 1.35-.255.59 0 1.1.125 1.53.375.43.24.775.585 1.035 1.035v-4.23h1.32V278h-1.155l-.105-1.53Zm-2.445.495c.34 0 .655-.055.945-.165.29-.12.54-.3.75-.54.22-.24.39-.54.51-.9.13-.36.195-.78.195-1.26s-.065-.9-.195-1.26c-.12-.36-.29-.66-.51-.9-.21-.24-.46-.415-.75-.525-.29-.12-.605-.18-.945-.18-.69 0-1.255.245-1.695.735-.43.48-.645 1.19-.645 2.13 0 .95.22 1.665.66 2.145.44.48 1 .72 1.68.72ZM504.015 278h-2.025l-1.65-6.015-1.695 6.015h-1.965l-1.77-7.785h1.395l1.485 6.795 1.89-6.795h1.485l1.845 6.72 1.47-6.72h1.305l-1.77 7.785Zm7.789-1.485c-.09.18-.205.37-.345.57a2.61 2.61 0 0 1-1.275.915c-.28.1-.61.15-.99.15-.7 0-1.265-.195-1.695-.585-.43-.4-.645-.97-.645-1.71 0-.85.295-1.475.885-1.875.6-.4 1.45-.6 2.55-.6h1.455v-.645c0-.54-.14-.925-.42-1.155-.28-.23-.76-.345-1.44-.345-.48 0-.935.08-1.365.24a6.49 6.49 0 0 0-1.155.525v-1.185c.28-.17.655-.335 1.125-.495a4.688 4.688 0 0 1 1.575-.255c.98 0 1.725.205 2.235.615.51.4.765 1.025.765 1.875v4.5c.01.11.015.225.015.345l.03.345c.01.1.02.185.03.255h-1.2c-.03-.14-.06-.335-.09-.585-.02-.26-.03-.485-.03-.675l-.015-.225Zm-2.325.45c.41 0 .76-.085 1.05-.255.29-.17.525-.365.705-.585.18-.23.31-.45.39-.66.08-.22.12-.375.12-.465v-.57h-1.32c-.79 0-1.365.115-1.725.345-.35.22-.525.555-.525 1.005 0 .35.105.635.315.855.21.22.54.33.99.33Zm9.516-5.43c-.56.05-1.07.195-1.53.435-.45.23-.785.59-1.005 1.08V278h-1.32v-7.785h1.155l.135 1.695h.03c.22-.46.535-.86.945-1.2.42-.35.95-.565 1.59-.645v1.47Zm7.584 5.805a4.18 4.18 0 0 1-.405.255c-.16.09-.355.18-.585.27-.23.08-.49.145-.78.195-.29.06-.615.09-.975.09-1.31 0-2.305-.355-2.985-1.065-.68-.71-1.02-1.705-1.02-2.985 0-.63.09-1.195.27-1.695.19-.5.45-.92.78-1.26.33-.35.72-.615 1.17-.795.45-.19.94-.285 1.47-.285.56 0 1.06.095 1.5.285.44.19.8.47 1.08.84.29.37.485.83.585 1.38.11.54.11 1.17 0 1.89h-5.49c.05.84.3 1.47.75 1.89.45.41 1.12.615 2.01.615.6 0 1.115-.085 1.545-.255.43-.17.79-.355 1.08-.555v1.185Zm-3.09-6.105c-.57 0-1.06.175-1.47.525-.41.35-.67.88-.78 1.59h4.185c.04-.72-.125-1.25-.495-1.59-.37-.35-.85-.525-1.44-.525ZM174.19 273.305h-5.52V278h-1.41v-10.755h1.41v4.785h5.52v-4.785h1.425V278h-1.425v-4.695Zm6.939 4.845c-.53 0-1.025-.09-1.485-.27-.46-.18-.86-.44-1.2-.78a3.8 3.8 0 0 1-.78-1.275c-.19-.5-.285-1.075-.285-1.725 0-.64.095-1.21.285-1.71.19-.51.45-.935.78-1.275.34-.34.74-.6 1.2-.78.46-.18.955-.27 1.485-.27.54 0 1.04.09 1.5.27.46.18.855.44 1.185.78.34.34.605.765.795 1.275.2.5.3 1.07.3 1.71 0 .65-.1 1.225-.3 1.725-.19.5-.455.925-.795 1.275-.33.34-.725.6-1.185.78-.46.18-.96.27-1.5.27Zm0-1.185c.35 0 .67-.055.96-.165.3-.12.56-.295.78-.525.22-.24.39-.54.51-.9s.18-.785.18-1.275c0-.49-.06-.915-.18-1.275-.12-.36-.29-.655-.51-.885a1.96 1.96 0 0 0-.78-.525c-.29-.12-.61-.18-.96-.18s-.67.06-.96.18c-.29.11-.545.285-.765.525-.21.23-.375.525-.495.885s-.18.785-.18 1.275c0 .49.06.915.18 1.275.12.36.285.66.495.9.22.23.475.405.765.525.29.11.61.165.96.165Zm7.879 1.185c-.41 0-.775-.035-1.095-.105a5.141 5.141 0 0 1-.825-.225c-.23-.1-.425-.2-.585-.3a3.952 3.952 0 0 1-.375-.285v-1.185c.1.1.235.21.405.33.17.11.375.215.615.315s.51.185.81.255c.31.06.655.09 1.035.09.56 0 1.005-.09 1.335-.27.33-.18.495-.485.495-.915 0-.23-.055-.415-.165-.555-.1-.14-.24-.25-.42-.33-.18-.09-.39-.16-.63-.21-.23-.05-.475-.1-.735-.15-.33-.07-.655-.145-.975-.225-.32-.09-.61-.215-.87-.375-.26-.17-.47-.385-.63-.645-.16-.27-.24-.62-.24-1.05 0-.7.27-1.25.81-1.65.55-.4 1.315-.6 2.295-.6.55 0 1.035.055 1.455.165.43.11.76.23.99.36v1.185a3.53 3.53 0 0 0-.975-.42c-.38-.12-.855-.18-1.425-.18-.59 0-1.045.08-1.365.24-.31.16-.465.45-.465.87 0 .21.045.38.135.51.09.12.21.22.36.3.16.07.34.125.54.165.2.04.41.085.63.135.34.07.69.145 1.05.225.36.08.68.205.96.375.29.17.525.4.705.69.19.28.285.66.285 1.14 0 .45-.09.825-.27 1.125-.18.3-.42.54-.72.72-.29.17-.625.29-1.005.36-.37.08-.75.12-1.14.12Zm8.571-.315c-.16.09-.365.165-.615.225s-.515.09-.795.09c-.38 0-.705-.055-.975-.165a1.88 1.88 0 0 1-.645-.435 1.85 1.85 0 0 1-.375-.63 2.612 2.612 0 0 1-.105-.735v-4.845h-.93v-1.125h.93v-1.635h1.32v1.635h2.265v1.125h-2.265v4.68c0 .33.08.57.24.72.17.15.465.225.885.225.39 0 .745-.11 1.065-.33v1.2Zm8.743-6.6c-.6 0-1.09.14-1.47.42-.37.27-.67.62-.9 1.05V278h-1.32v-10.755h1.32v2.97l-.03 1.395h.03c.21-.44.54-.805.99-1.095.45-.3 1.02-.45 1.71-.45.77 0 1.38.205 1.83.615.46.4.69 1.02.69 1.86V278h-1.32v-5.325c0-.54-.135-.915-.405-1.125-.27-.21-.645-.315-1.125-.315Zm9.498 5.28c-.09.18-.205.37-.345.57a2.61 2.61 0 0 1-1.275.915c-.28.1-.61.15-.99.15-.7 0-1.265-.195-1.695-.585-.43-.4-.645-.97-.645-1.71 0-.85.295-1.475.885-1.875.6-.4 1.45-.6 2.55-.6h1.455v-.645c0-.54-.14-.925-.42-1.155-.28-.23-.76-.345-1.44-.345-.48 0-.935.08-1.365.24a6.49 6.49 0 0 0-1.155.525v-1.185c.28-.17.655-.335 1.125-.495a4.688 4.688 0 0 1 1.575-.255c.98 0 1.725.205 2.235.615.51.4.765 1.025.765 1.875v4.5c.01.11.015.225.015.345l.03.345c.01.1.02.185.03.255h-1.2c-.03-.14-.06-.335-.09-.585-.02-.26-.03-.485-.03-.675l-.015-.225Zm-2.325.45c.41 0 .76-.085 1.05-.255.29-.17.525-.365.705-.585.18-.23.31-.45.39-.66.08-.22.12-.375.12-.465v-.57h-1.32c-.79 0-1.365.115-1.725.345-.35.22-.525.555-.525 1.005 0 .35.105.635.315.855.21.22.54.33.99.33Zm9.515-5.43c-.56.05-1.07.195-1.53.435-.45.23-.785.59-1.005 1.08V278h-1.32v-7.785h1.155l.135 1.695h.03c.22-.46.535-.86.945-1.2.42-.35.95-.565 1.59-.645v1.47Zm7.116 4.935c-.24.51-.575.92-1.005 1.23-.43.3-.975.45-1.635.45-.47 0-.915-.08-1.335-.24-.42-.17-.79-.42-1.11-.75-.32-.34-.575-.76-.765-1.26-.19-.51-.285-1.11-.285-1.8 0-.68.095-1.27.285-1.77.19-.51.445-.93.765-1.26.32-.34.69-.59 1.11-.75.43-.17.88-.255 1.35-.255.59 0 1.1.125 1.53.375.43.24.775.585 1.035 1.035v-4.23h1.32V278h-1.155l-.105-1.53Zm-2.445.495c.34 0 .655-.055.945-.165.29-.12.54-.3.75-.54.22-.24.39-.54.51-.9.13-.36.195-.78.195-1.26s-.065-.9-.195-1.26c-.12-.36-.29-.66-.51-.9-.21-.24-.46-.415-.75-.525-.29-.12-.605-.18-.945-.18-.69 0-1.255.245-1.695.735-.43.48-.645 1.19-.645 2.13 0 .95.22 1.665.66 2.145.44.48 1 .72 1.68.72ZM242.015 278h-2.025l-1.65-6.015-1.695 6.015h-1.965l-1.77-7.785h1.395l1.485 6.795 1.89-6.795h1.485l1.845 6.72 1.47-6.72h1.305l-1.77 7.785Zm7.789-1.485c-.09.18-.205.37-.345.57a2.61 2.61 0 0 1-1.275.915c-.28.1-.61.15-.99.15-.7 0-1.265-.195-1.695-.585-.43-.4-.645-.97-.645-1.71 0-.85.295-1.475.885-1.875.6-.4 1.45-.6 2.55-.6h1.455v-.645c0-.54-.14-.925-.42-1.155-.28-.23-.76-.345-1.44-.345-.48 0-.935.08-1.365.24a6.49 6.49 0 0 0-1.155.525v-1.185c.28-.17.655-.335 1.125-.495a4.688 4.688 0 0 1 1.575-.255c.98 0 1.725.205 2.235.615.51.4.765 1.025.765 1.875v4.5c.01.11.015.225.015.345l.03.345c.01.1.02.185.03.255h-1.2c-.03-.14-.06-.335-.09-.585-.02-.26-.03-.485-.03-.675l-.015-.225Zm-2.325.45c.41 0 .76-.085 1.05-.255.29-.17.525-.365.705-.585.18-.23.31-.45.39-.66.08-.22.12-.375.12-.465v-.57h-1.32c-.79 0-1.365.115-1.725.345-.35.22-.525.555-.525 1.005 0 .35.105.635.315.855.21.22.54.33.99.33Zm9.516-5.43c-.56.05-1.07.195-1.53.435-.45.23-.785.59-1.005 1.08V278h-1.32v-7.785h1.155l.135 1.695h.03c.22-.46.535-.86.945-1.2.42-.35.95-.565 1.59-.645v1.47Zm7.584 5.805a4.18 4.18 0 0 1-.405.255c-.16.09-.355.18-.585.27-.23.08-.49.145-.78.195-.29.06-.615.09-.975.09-1.31 0-2.305-.355-2.985-1.065-.68-.71-1.02-1.705-1.02-2.985 0-.63.09-1.195.27-1.695.19-.5.45-.92.78-1.26.33-.35.72-.615 1.17-.795.45-.19.94-.285 1.47-.285.56 0 1.06.095 1.5.285.44.19.8.47 1.08.84.29.37.485.83.585 1.38.11.54.11 1.17 0 1.89h-5.49c.05.84.3 1.47.75 1.89.45.41 1.12.615 2.01.615.6 0 1.115-.085 1.545-.255.43-.17.79-.355 1.08-.555v1.185Zm-3.09-6.105c-.57 0-1.06.175-1.47.525-.41.35-.67.88-.78 1.59h4.185c.04-.72-.125-1.25-.495-1.59-.37-.35-.85-.525-1.44-.525Z"/></g><defs><filter id="b" width="730" height="396" x="-15" y="-15" color-interpolation-filters="sRGB" filterUnits="userSpaceOnUse"><feFlood flood-opacity="0" result="BackgroundImageFix"/><feColorMatrix in="SourceAlpha" values="0 0 0 0 0 0 0 0 0 0 0 0 0 0 0 0 0 0 127 0"/><feOffset/><feGaussianBlur stdDeviation="7.5"/><feColorMatrix values="0 0 0 0 0.592157 0 0 0 0 0.74902 0 0 0 0 0.905882 0 0 0 0.4 0"/><feBlend in2="BackgroundImageFix" result="effect1_dropShadow"/><feBlend in="SourceGraphic" in2="effect1_dropShadow" result="shape"/></filter><filter id="c" width="270" height="340" x="85" y="-7" color-interpolation-filters="sRGB" filterUnits="userSpaceOnUse"><feFlood flood-opacity="0" result="BackgroundImageFix"/><feColorMatrix in="SourceAlpha" values="0 0 0 0 0 0 0 0 0 0 0 0 0 0 0 0 0 0 127 0"/><feOffset/><feGaussianBlur stdDeviation="7.5"/><feColorMatrix values="0 0 0 0 0.592157 0 0 0 0 0.74902 0 0 0 0 0.905882 0 0 0 0.4 0"/><feBlend in2="BackgroundImageFix" result="effect1_dropShadow"/><feBlend in="SourceGraphic" in2="effect1_dropShadow" result="shape"/></filter><filter id="d" width="270" height="340" x="344" y="-7" color-interpolation-filters="sRGB" filterUnits="userSpaceOnUse"><feFlood flood-opacity="0" result="BackgroundImageFix"/><feColorMatrix in="SourceAlpha" values="0 0 0 0 0 0 0 0 0 0 0 0 0 0 0 0 0 0 127 0"/><feOffset/><feGaussianBlur stdDeviation="7.5"/><feColorMatrix values="0 0 0 0 0.592157 0 0 0 0 0.74902 0 0 0 0 0.905882 0 0 0 0.4 0"/><feBlend in2="BackgroundImageFix" result="effect1_dropShadow"/><feBlend in="SourceGraphic" in2="effect1_dropShadow" result="shape"/></filter><clipPath id="a"><path fill="#fff" d="M0 0h700v366H0z"/></clipPath></defs></svg>