<svg xmlns="http://www.w3.org/2000/svg" width="700" height="475" fill="none" viewBox="0 0 700 475">
    <rect width="520" height="50" x="90" y="376" fill="#fff" rx="10"/>
    <rect width="238" height="298" x="91" y="63" fill="#fff" stroke="#5282FF" stroke-width="2" rx="9"/>
    <rect width="238" height="298" x="371" y="63" fill="#fff" stroke="#5282FF" stroke-width="2" rx="9"/>
    <path fill="#FFDEDE" d="M305 411a10 10 0 1 0 0-19.999A10 10 0 0 0 305 411Z"/>
    <path fill="#CCF0D2" d="M470 411a10 10 0 1 0 0-19.999A10 10 0 0 0 470 411Z"/>
    <path fill="#FFF2BF" d="M140 411a10 10 0 1 0 0-19.999A10 10 0 0 0 140 411Z"/>
    <path fill="#000" d="M171.157 81.962h3.36c1.176 0 2.077.233 2.702.7.626.457.938 1.18.938 2.17 0 .877-.21 1.55-.63 2.016-.42.457-.98.765-1.68.924l2.73 4.228h-1.484l-2.618-4.074h-2.002V92h-1.316V81.962Zm3.234 4.774c.719 0 1.298-.14 1.736-.42.439-.28.658-.784.658-1.512 0-.597-.2-1.017-.602-1.26-.392-.252-.947-.378-1.666-.378h-2.044v3.57h1.918Zm8.733 5.404c-1.214 0-2.142-.331-2.786-.994-.635-.672-.952-1.6-.952-2.786 0-.793.149-1.47.448-2.03a3.15 3.15 0 0 1 1.232-1.288 3.488 3.488 0 0 1 1.764-.448c1.11 0 1.927.369 2.45 1.106.522.728.69 1.727.504 2.996h-5.124c.102 1.559.961 2.338 2.576 2.338.886 0 1.703-.252 2.45-.756v1.106a4.3 4.3 0 0 1-1.176.56c-.448.13-.91.196-1.386.196Zm-.322-6.454c-.532 0-.99.163-1.372.49-.383.327-.626.821-.728 1.484h3.906c.028-.625-.117-1.11-.434-1.456-.318-.345-.775-.518-1.372-.518Zm4.609 8.218v-1.106c.392.215.784.369 1.176.462.392.093.84.14 1.344.14.896 0 1.522-.173 1.876-.518.355-.336.532-.83.532-1.484v-1.12a2.63 2.63 0 0 1-.91 1.036c-.382.261-.858.392-1.428.392a3.36 3.36 0 0 1-1.596-.392 3.072 3.072 0 0 1-1.176-1.19c-.289-.523-.434-1.176-.434-1.96 0-.793.145-1.451.434-1.974.299-.532.691-.929 1.176-1.19a3.329 3.329 0 0 1 1.624-.406c.579 0 1.064.13 1.456.392.402.261.714.616.938 1.064l.014-.154c0-.168.01-.369.028-.602.019-.243.038-.43.056-.56h1.12a8.529 8.529 0 0 0-.056.56 16.97 16.97 0 0 0-.014.602v5.488c0 .625-.126 1.171-.378 1.638-.242.467-.63.83-1.162 1.092-.532.261-1.236.392-2.114.392-1.064 0-1.899-.2-2.506-.602Zm4.942-5.74c0-.83-.205-1.451-.616-1.862-.401-.41-.91-.616-1.526-.616s-1.134.205-1.554.616c-.41.41-.616 1.031-.616 1.862 0 .812.206 1.423.616 1.834.42.401.943.602 1.568.602.607 0 1.111-.2 1.512-.602.411-.401.616-1.013.616-1.834Zm7.88 2.534a2.63 2.63 0 0 1-.91 1.022c-.401.28-.928.42-1.582.42-.672 0-1.218-.191-1.638-.574-.41-.383-.616-.966-.616-1.75v-5.082h1.246v5.082c0 .476.131.798.392.966.262.168.584.252.966.252.542 0 .976-.121 1.302-.364a3.06 3.06 0 0 0 .84-.994v-4.942h1.232V92h-1.092l-.112-1.302h-.028Zm3.254-8.736h1.232V92h-1.232V81.962Zm5.705 3.724c-.775 0-1.559.238-2.352.714v-1.106a4.43 4.43 0 0 1 1.19-.504c.457-.13.9-.196 1.33-.196.914 0 1.61.191 2.086.574.476.383.714.966.714 1.75v3.906c0 .159.004.364.014.616.018.243.037.43.056.56h-1.12a6.4 6.4 0 0 1-.084-.546 8.197 8.197 0 0 1-.028-.63l-.014-.21a3.92 3.92 0 0 1-.462.7c-.196.233-.458.43-.784.588-.318.159-.714.238-1.19.238-.654 0-1.181-.187-1.582-.56-.402-.373-.602-.9-.602-1.582 0-.793.28-1.377.84-1.75.56-.373 1.348-.56 2.366-.56h1.358v-.602c0-.504-.131-.863-.392-1.078-.262-.215-.71-.322-1.344-.322Zm1.736 3.514v-.532h-1.232c-.738 0-1.274.107-1.61.322-.327.215-.49.527-.49.938 0 .327.098.593.294.798.205.205.513.308.924.308.382 0 .709-.075.98-.224.27-.159.49-.345.658-.56.168-.224.289-.434.364-.63.074-.196.112-.336.112-.42Zm6.767-3.234c-.579.047-1.073.191-1.484.434a2.19 2.19 0 0 0-.882.98V92h-1.232v-7.266h1.078l.126 1.582h.028c.233-.485.551-.877.952-1.176a2.98 2.98 0 0 1 1.414-.546v1.372Zm7.748-.28c-.56 0-1.017.13-1.372.392a2.871 2.871 0 0 0-.84.98V92h-1.232V81.962h1.232v2.772l-.028 1.302h.028a2.48 2.48 0 0 1 .924-1.022c.42-.28.952-.42 1.596-.42.719 0 1.288.191 1.708.574.43.383.644.961.644 1.736V92h-1.232v-4.97c0-.495-.13-.84-.392-1.036-.252-.205-.597-.308-1.036-.308Zm7.591 6.454c-.663 0-1.26-.145-1.792-.434a3.246 3.246 0 0 1-1.246-1.288c-.308-.57-.462-1.255-.462-2.058 0-.803.154-1.484.462-2.044a3.15 3.15 0 0 1 1.246-1.274 3.596 3.596 0 0 1 1.792-.448c.672 0 1.274.15 1.806.448.532.29.952.714 1.26 1.274.308.56.462 1.241.462 2.044 0 .803-.154 1.489-.462 2.058a3.22 3.22 0 0 1-1.26 1.288c-.532.29-1.134.434-1.806.434Zm0-1.106c.653 0 1.195-.215 1.624-.644.429-.439.644-1.115.644-2.03 0-.915-.215-1.587-.644-2.016-.429-.439-.971-.658-1.624-.658-.644 0-1.181.22-1.61.658-.42.43-.63 1.101-.63 2.016s.21 1.591.63 2.03c.429.43.966.644 1.61.644Zm7.354 1.106a5.16 5.16 0 0 1-1.526-.224c-.476-.159-.864-.369-1.162-.63V90.18c.289.28.676.504 1.162.672.494.168.998.252 1.512.252 1.138 0 1.708-.369 1.708-1.106 0-.215-.052-.387-.154-.518-.094-.14-.271-.257-.532-.35-.262-.103-.64-.2-1.134-.294-.943-.187-1.601-.439-1.974-.756-.374-.327-.56-.789-.56-1.386 0-.663.256-1.176.77-1.54.513-.373 1.222-.56 2.128-.56.429 0 .849.047 1.26.14.42.084.76.2 1.022.35v1.106c-.542-.373-1.288-.56-2.24-.56-.588 0-1.022.084-1.302.252-.271.168-.406.43-.406.784 0 .187.042.34.126.462.084.121.252.229.504.322s.63.191 1.134.294c.644.13 1.152.29 1.526.476.382.177.653.406.812.686.168.28.252.635.252 1.064 0 .681-.257 1.213-.77 1.596-.514.383-1.232.574-2.156.574Zm3.855-6.356v-1.05h.868v-1.526h1.232v1.526h2.114v1.05h-2.114v4.368c0 .308.08.532.238.672.159.14.43.21.812.21.364 0 .696-.103.994-.308v1.12a1.722 1.722 0 0 1-.588.21 3.222 3.222 0 0 1-.728.084c-.466 0-.844-.089-1.134-.266a1.59 1.59 0 0 1-.63-.686 2.071 2.071 0 0 1-.196-.882v-4.522h-.868Z"/>
    <rect width="60" height="90" x="110" y="112" fill="#FFF2BF" rx="10"/>
    <rect width="60" height="200" x="110" y="272" fill="#E3EBFF" rx="10" transform="rotate(-90 110 272)"/>
    <path fill="#000" d="m128.999 162-3.5-10.038h1.372l3.206 9.24 3.206-9.24h1.26L131.057 162h-2.058Zm11.785-1.526h-.588l.014-.014-3.038-6.65V162h-1.246v-10.038h1.834l3.122 7.042 3.262-7.042h1.708V162h-1.33v-8.078l-3.08 6.538-.658.014ZM152.222 162h-1.274v-8.456l-2.772 2.128v-1.414l2.982-2.296h1.064V162Z"/>
    <rect width="60" height="90" x="250" y="112" fill="#FFDEDE" rx="10"/>
    <rect width="60" height="40" x="180" y="112" fill="#FFDEDE" rx="10"/>
    <rect width="60" height="40" x="180" y="162" fill="#CCF0D2" rx="10"/>
    <path fill="#000" d="m268.999 162-3.5-10.038h1.372l3.206 9.24 3.206-9.24h1.26L271.057 162h-2.058Zm11.785-1.526h-.588l.014-.014-3.038-6.65V162h-1.246v-10.038h1.834l3.122 7.042 3.262-7.042h1.708V162h-1.33v-8.078l-3.08 6.538-.658.014Zm12.18 1.526h-1.232v-2.38h-4.34v-.868l3.92-6.79h1.652v6.594h1.358v1.064h-1.358V162Zm-4.298-3.444h3.066v-5.222l-3.066 5.222ZM198.999 137l-3.5-10.038h1.372l3.206 9.24 3.206-9.24h1.26L201.057 137h-2.058Zm11.785-1.526h-.588l.014-.014-3.038-6.65V137h-1.246v-10.038h1.834l3.122 7.042 3.262-7.042h1.708V137h-1.33v-8.078l-3.08 6.538-.658.014ZM224.098 137H217.7v-1.33a62.22 62.22 0 0 0 2.45-2.058c.644-.569 1.143-1.064 1.498-1.484.364-.429.616-.826.756-1.19.149-.364.224-.733.224-1.106 0-.579-.173-1.031-.518-1.358-.346-.327-.822-.49-1.428-.49-.971 0-1.876.462-2.716 1.386v-1.414c.774-.756 1.694-1.134 2.758-1.134 1.008 0 1.801.261 2.38.784.588.513.882 1.213.882 2.1 0 .457-.075.896-.224 1.316-.14.411-.392.845-.756 1.302-.355.448-.845.952-1.47 1.512a45.807 45.807 0 0 1-2.38 1.96h4.942V137Zm-25.099 50-3.5-10.038h1.372l3.206 9.24 3.206-9.24h1.26L201.057 187h-2.058Zm11.785-1.526h-.588l.014-.014-3.038-6.65V187h-1.246v-10.038h1.834l3.122 7.042 3.262-7.042h1.708V187h-1.33v-8.078l-3.08 6.538-.658.014Zm8.554-3.122v-1.19h1.344c.522 0 .947-.14 1.274-.42.336-.289.504-.695.504-1.218 0-.476-.154-.849-.462-1.12-.308-.28-.752-.42-1.33-.42a3.56 3.56 0 0 0-1.372.266c-.42.177-.859.462-1.316.854v-1.372c.746-.607 1.647-.91 2.702-.91.961 0 1.712.243 2.254.728.55.485.826 1.12.826 1.904 0 .635-.178 1.139-.532 1.512a2.491 2.491 0 0 1-1.246.742c.392.056.751.191 1.078.406.336.205.606.476.812.812.205.336.308.728.308 1.176 0 .616-.154 1.153-.462 1.61a3.05 3.05 0 0 1-1.274 1.064c-.532.243-1.153.364-1.862.364-1.232 0-2.184-.285-2.856-.854v-1.4c.354.345.784.616 1.288.812a4.325 4.325 0 0 0 1.582.294c.69 0 1.232-.163 1.624-.49.401-.336.602-.793.602-1.372 0-.56-.182-.994-.546-1.302-.355-.317-.906-.476-1.652-.476h-1.288Zm-42.697 54.61h1.316v4.466h5.152v-4.466h1.33V247h-1.33v-4.382h-5.152V247h-1.316v-10.038Zm10.606 12.656c-.382 0-.7-.051-.952-.154v-1.19c.187.159.49.238.91.238.327 0 .602-.079.826-.238.234-.149.458-.411.672-.784l-2.954-7.756h1.358l2.31 6.132 2.296-6.132h1.19l-2.716 7.182c-.373.961-.788 1.652-1.246 2.072-.457.42-1.022.63-1.694.63Zm6.808-9.884h1.078l.126 1.414c.233-.467.555-.84.966-1.12.42-.289.933-.434 1.54-.434.569 0 1.092.14 1.568.42.485.271.877.686 1.176 1.246.299.551.448 1.251.448 2.1 0 .849-.154 1.554-.462 2.114-.299.56-.695.98-1.19 1.26a3.216 3.216 0 0 1-1.596.406c-.551 0-1.031-.131-1.442-.392a2.81 2.81 0 0 1-.98-1.078v3.808h-1.232v-9.744Zm5.628 3.626c0-.877-.201-1.54-.602-1.988-.401-.457-.919-.686-1.554-.686s-1.171.224-1.61.672c-.429.439-.644 1.106-.644 2.002 0 .905.215 1.577.644 2.016.439.439.975.658 1.61.658.635 0 1.153-.224 1.554-.672.401-.448.602-1.115.602-2.002Zm5.986 3.78c-1.213 0-2.142-.331-2.786-.994-.634-.672-.952-1.601-.952-2.786 0-.793.15-1.47.448-2.03.299-.56.71-.989 1.232-1.288a3.49 3.49 0 0 1 1.764-.448c1.111 0 1.928.369 2.45 1.106.523.728.691 1.727.504 2.996h-5.124c.103 1.559.962 2.338 2.576 2.338.887 0 1.704-.252 2.45-.756v1.106a4.3 4.3 0 0 1-1.176.56c-.448.131-.91.196-1.386.196Zm-.322-6.454c-.532 0-.989.163-1.372.49-.382.327-.625.821-.728 1.484h3.906c.028-.625-.116-1.111-.434-1.456-.317-.345-.774-.518-1.372-.518Zm8.124.28c-.578.047-1.073.191-1.484.434a2.185 2.185 0 0 0-.882.98V247h-1.232v-7.266h1.078l.126 1.582h.028c.234-.485.551-.877.952-1.176a2.973 2.973 0 0 1 1.414-.546v1.372Zm.839-1.232h1.33l2.212 6.608 2.198-6.608h1.232L218.79 247h-1.988l-2.492-7.266Zm8.744-1.064c-.252 0-.453-.075-.602-.224a.81.81 0 0 1-.224-.574.81.81 0 0 1 .224-.574c.149-.159.35-.238.602-.238.243 0 .434.079.574.238.14.159.21.35.21.574 0 .224-.07.415-.21.574-.14.149-.331.224-.574.224Zm-.63 1.064h1.232V247h-1.232v-7.266Zm5.564 7.406c-.532 0-1.04-.075-1.526-.224-.476-.159-.863-.369-1.162-.63v-1.106c.29.28.677.504 1.162.672.495.168.999.252 1.512.252 1.139 0 1.708-.369 1.708-1.106 0-.215-.051-.387-.154-.518-.093-.14-.27-.257-.532-.35-.261-.103-.639-.201-1.134-.294-.942-.187-1.6-.439-1.974-.756-.373-.327-.56-.789-.56-1.386 0-.663.257-1.176.77-1.54.514-.373 1.223-.56 2.128-.56.43 0 .85.047 1.26.14.42.084.761.201 1.022.35v1.106c-.541-.373-1.288-.56-2.24-.56-.588 0-1.022.084-1.302.252-.27.168-.406.429-.406.784 0 .187.042.341.126.462.084.121.252.229.504.322s.63.191 1.134.294c.644.131 1.153.289 1.526.476.383.177.654.406.812.686.168.28.252.635.252 1.064 0 .681-.256 1.213-.77 1.596-.513.383-1.232.574-2.156.574Zm7.426 0c-.663 0-1.26-.145-1.792-.434a3.248 3.248 0 0 1-1.246-1.288c-.308-.569-.462-1.255-.462-2.058 0-.803.154-1.484.462-2.044.308-.56.723-.985 1.246-1.274a3.592 3.592 0 0 1 1.792-.448c.672 0 1.274.149 1.806.448.532.289.952.714 1.26 1.274.308.56.462 1.241.462 2.044 0 .803-.154 1.489-.462 2.058-.308.56-.728.989-1.26 1.288-.532.289-1.134.434-1.806.434Zm0-1.106c.653 0 1.194-.215 1.624-.644.429-.439.644-1.115.644-2.03 0-.915-.215-1.587-.644-2.016-.43-.439-.971-.658-1.624-.658-.644 0-1.181.219-1.61.658-.42.429-.63 1.101-.63 2.016s.21 1.591.63 2.03c.429.429.966.644 1.61.644Zm8.628-5.068c-.579.047-1.074.191-1.484.434a2.174 2.174 0 0 0-.882.98V247h-1.232v-7.266h1.078l.126 1.582h.028c.233-.485.55-.877.952-1.176.41-.299.882-.481 1.414-.546v1.372Z"/>
    <rect width="60" height="200" x="110" y="342" fill="#D6E1FF" rx="10" transform="rotate(-90 110 342)"/>
    <rect width="60" height="200" x="110" y="342" fill="#E3EBFF" rx="10" transform="rotate(-90 110 342)"/>
    <path fill="#000" d="M165.129 306.962h1.316v4.466h5.152v-4.466h1.33V317h-1.33v-4.382h-5.152V317h-1.316v-10.038Zm12.959 10.178c-.663 0-1.26-.145-1.792-.434a3.248 3.248 0 0 1-1.246-1.288c-.308-.569-.462-1.255-.462-2.058 0-.803.154-1.484.462-2.044.308-.56.723-.985 1.246-1.274a3.592 3.592 0 0 1 1.792-.448c.672 0 1.274.149 1.806.448.532.289.952.714 1.26 1.274.308.56.462 1.241.462 2.044 0 .803-.154 1.489-.462 2.058-.308.56-.728.989-1.26 1.288-.532.289-1.134.434-1.806.434Zm0-1.106c.653 0 1.194-.215 1.624-.644.429-.439.644-1.115.644-2.03 0-.915-.215-1.587-.644-2.016-.43-.439-.971-.658-1.624-.658-.644 0-1.181.219-1.61.658-.42.429-.63 1.101-.63 2.016s.21 1.591.63 2.03c.429.429.966.644 1.61.644Zm7.353 1.106c-.532 0-1.04-.075-1.526-.224-.476-.159-.863-.369-1.162-.63v-1.106c.29.28.677.504 1.162.672.495.168.999.252 1.512.252 1.139 0 1.708-.369 1.708-1.106 0-.215-.051-.387-.154-.518-.093-.14-.27-.257-.532-.35-.261-.103-.639-.201-1.134-.294-.942-.187-1.6-.439-1.974-.756-.373-.327-.56-.789-.56-1.386 0-.663.257-1.176.77-1.54.514-.373 1.223-.56 2.128-.56.43 0 .85.047 1.26.14.42.084.761.201 1.022.35v1.106c-.541-.373-1.288-.56-2.24-.56-.588 0-1.022.084-1.302.252-.27.168-.406.429-.406.784 0 .187.042.341.126.462.084.121.252.229.504.322s.63.191 1.134.294c.644.131 1.153.289 1.526.476.383.177.654.406.812.686.168.28.252.635.252 1.064 0 .681-.256 1.213-.77 1.596-.513.383-1.232.574-2.156.574Zm3.856-6.356v-1.05h.868v-1.526h1.232v1.526h2.114v1.05h-2.114v4.368c0 .308.079.532.238.672.159.14.429.21.812.21.364 0 .695-.103.994-.308v1.12a1.735 1.735 0 0 1-.588.21 3.228 3.228 0 0 1-.728.084c-.467 0-.845-.089-1.134-.266a1.588 1.588 0 0 1-.63-.686 2.057 2.057 0 0 1-.196-.882v-4.522h-.868Zm12.03-.098c-.56 0-1.017.131-1.372.392a2.874 2.874 0 0 0-.84.98V317h-1.232v-10.038h1.232v2.772l-.028 1.302h.028a2.48 2.48 0 0 1 .924-1.022c.42-.28.952-.42 1.596-.42.719 0 1.288.191 1.708.574.429.383.644.961.644 1.736V317h-1.232v-4.97c0-.495-.131-.84-.392-1.036-.252-.205-.597-.308-1.036-.308Zm7.073 0c-.775 0-1.559.238-2.352.714v-1.106a4.412 4.412 0 0 1 1.19-.504c.457-.131.9-.196 1.33-.196.914 0 1.61.191 2.086.574.476.383.714.966.714 1.75v3.906c0 .159.004.364.014.616.018.243.037.429.056.56h-1.12a6.439 6.439 0 0 1-.084-.546 8.21 8.21 0 0 1-.028-.63l-.014-.21a3.93 3.93 0 0 1-.462.7 2.354 2.354 0 0 1-.784.588c-.318.159-.714.238-1.19.238-.654 0-1.181-.187-1.582-.56-.402-.373-.602-.901-.602-1.582 0-.793.28-1.377.84-1.75.56-.373 1.348-.56 2.366-.56h1.358v-.602c0-.504-.131-.863-.392-1.078-.262-.215-.71-.322-1.344-.322Zm1.736 3.514v-.532h-1.232c-.738 0-1.274.107-1.61.322-.327.215-.49.527-.49.938 0 .327.098.593.294.798.205.205.513.308.924.308.382 0 .709-.075.98-.224.27-.159.49-.345.658-.56.168-.224.289-.434.364-.63.074-.196.112-.336.112-.42Zm6.767-3.234c-.579.047-1.073.191-1.484.434a2.185 2.185 0 0 0-.882.98V317h-1.232v-7.266h1.078l.126 1.582h.028c.233-.485.551-.877.952-1.176a2.973 2.973 0 0 1 1.414-.546v1.372Zm.778 2.394c0-.849.15-1.549.448-2.1.299-.56.696-.975 1.19-1.246.504-.28 1.05-.42 1.638-.42.551 0 1.027.117 1.428.35.402.224.724.546.966.966v-3.948h1.232V317h-1.078l-.098-1.428a2.865 2.865 0 0 1-.952 1.148c-.401.28-.905.42-1.512.42-.578 0-1.12-.135-1.624-.406-.494-.28-.891-.7-1.19-1.26-.298-.56-.448-1.265-.448-2.114Zm5.684 0c0-.905-.214-1.577-.644-2.016-.429-.439-.961-.658-1.596-.658-.634 0-1.157.229-1.568.686-.41.448-.616 1.111-.616 1.988 0 .887.206 1.554.616 2.002.411.448.934.672 1.568.672.635 0 1.167-.219 1.596-.658.43-.439.644-1.111.644-2.016Zm12.791-3.626L234.504 317h-1.89l-1.54-5.614-1.582 5.614h-1.834l-1.652-7.266h1.302l1.386 6.342 1.764-6.342h1.386l1.722 6.272 1.372-6.272h1.218Zm3.826.952c-.775 0-1.559.238-2.352.714v-1.106a4.412 4.412 0 0 1 1.19-.504c.457-.131.9-.196 1.33-.196.914 0 1.61.191 2.086.574.476.383.714.966.714 1.75v3.906c0 .159.004.364.014.616.018.243.037.429.056.56h-1.12a6.439 6.439 0 0 1-.084-.546 8.21 8.21 0 0 1-.028-.63l-.014-.21a3.93 3.93 0 0 1-.462.7 2.354 2.354 0 0 1-.784.588c-.318.159-.714.238-1.19.238-.654 0-1.181-.187-1.582-.56-.402-.373-.602-.901-.602-1.582 0-.793.28-1.377.84-1.75.56-.373 1.348-.56 2.366-.56h1.358v-.602c0-.504-.131-.863-.392-1.078-.262-.215-.71-.322-1.344-.322Zm1.736 3.514v-.532h-1.232c-.738 0-1.274.107-1.61.322-.327.215-.49.527-.49.938 0 .327.098.593.294.798.205.205.513.308.924.308.382 0 .709-.075.98-.224.27-.159.49-.345.658-.56.168-.224.289-.434.364-.63.074-.196.112-.336.112-.42Zm6.767-3.234c-.579.047-1.073.191-1.484.434a2.185 2.185 0 0 0-.882.98V317h-1.232v-7.266h1.078l.126 1.582h.028c.233-.485.551-.877.952-1.176a2.973 2.973 0 0 1 1.414-.546v1.372Zm4.366 6.174c-1.213 0-2.142-.331-2.786-.994-.635-.672-.952-1.601-.952-2.786 0-.793.149-1.47.448-2.03.299-.56.709-.989 1.232-1.288a3.49 3.49 0 0 1 1.764-.448c1.111 0 1.927.369 2.45 1.106.523.728.691 1.727.504 2.996h-5.124c.103 1.559.961 2.338 2.576 2.338.887 0 1.703-.252 2.45-.756v1.106a4.3 4.3 0 0 1-1.176.56c-.448.131-.91.196-1.386.196Zm-.322-6.454c-.532 0-.989.163-1.372.49-.383.327-.625.821-.728 1.484h3.906c.028-.625-.117-1.111-.434-1.456s-.775-.518-1.372-.518ZM164.3 406.14c-.99 0-1.858-.205-2.604-.616a4.293 4.293 0 0 1-1.722-1.764c-.411-.775-.616-1.699-.616-2.772 0-1.615.424-2.875 1.274-3.78.849-.915 2.062-1.372 3.64-1.372.588 0 1.148.065 1.68.196.541.121.998.299 1.372.532v1.26a5.007 5.007 0 0 0-1.414-.588 6.466 6.466 0 0 0-1.652-.21c-1.176 0-2.049.331-2.618.994-.57.663-.854 1.652-.854 2.968 0 1.325.308 2.319.924 2.982.616.653 1.516.98 2.702.98 1.12 0 2.09-.308 2.912-.924v1.26c-.327.261-.761.471-1.302.63a6.47 6.47 0 0 1-1.722.224Zm9.532-1.442a2.633 2.633 0 0 1-.91 1.022c-.401.28-.929.42-1.582.42-.672 0-1.218-.191-1.638-.574-.411-.383-.616-.966-.616-1.75v-5.082h1.246v5.082c0 .476.131.798.392.966.261.168.583.252.966.252.541 0 .975-.121 1.302-.364.327-.243.607-.574.84-.994v-4.942h1.232V406h-1.092l-.112-1.302h-.028Zm5.578 1.442a5.169 5.169 0 0 1-1.526-.224c-.476-.159-.863-.369-1.162-.63v-1.106c.289.28.677.504 1.162.672.495.168.999.252 1.512.252 1.139 0 1.708-.369 1.708-1.106 0-.215-.051-.387-.154-.518-.093-.14-.271-.257-.532-.35-.261-.103-.639-.201-1.134-.294-.943-.187-1.601-.439-1.974-.756-.373-.327-.56-.789-.56-1.386 0-.663.257-1.176.77-1.54.513-.373 1.223-.56 2.128-.56.429 0 .849.047 1.26.14.42.084.761.201 1.022.35v1.106c-.541-.373-1.288-.56-2.24-.56-.588 0-1.022.084-1.302.252-.271.168-.406.429-.406.784 0 .187.042.341.126.462.084.121.252.229.504.322s.63.191 1.134.294c.644.131 1.153.289 1.526.476.383.177.653.406.812.686.168.28.252.635.252 1.064 0 .681-.257 1.213-.77 1.596s-1.232.574-2.156.574Zm3.856-6.356v-1.05h.868v-1.526h1.232v1.526h2.114v1.05h-2.114v4.368c0 .308.079.532.238.672.158.14.429.21.812.21.364 0 .695-.103.994-.308v1.12c-.15.093-.346.163-.588.21a3.235 3.235 0 0 1-.728.084c-.467 0-.845-.089-1.134-.266-.29-.177-.5-.406-.63-.686a2.057 2.057 0 0 1-.196-.882v-4.522h-.868Zm8.56 6.356c-.663 0-1.26-.145-1.792-.434a3.248 3.248 0 0 1-1.246-1.288c-.308-.569-.462-1.255-.462-2.058 0-.803.154-1.484.462-2.044.308-.56.723-.985 1.246-1.274a3.592 3.592 0 0 1 1.792-.448c.672 0 1.274.149 1.806.448.532.289.952.714 1.26 1.274.308.56.462 1.241.462 2.044 0 .803-.154 1.489-.462 2.058-.308.56-.728.989-1.26 1.288-.532.289-1.134.434-1.806.434Zm0-1.106c.653 0 1.195-.215 1.624-.644.429-.439.644-1.115.644-2.03 0-.915-.215-1.587-.644-2.016-.429-.439-.971-.658-1.624-.658-.644 0-1.181.219-1.61.658-.42.429-.63 1.101-.63 2.016s.21 1.591.63 2.03c.429.429.966.644 1.61.644Zm9.622-4.116c0-.467-.117-.789-.35-.966-.234-.177-.551-.266-.952-.266-.523 0-.938.131-1.246.392a3.484 3.484 0 0 0-.812.994V406h-1.232v-7.266h1.078l.126 1.302h.028c.196-.411.49-.751.882-1.022.401-.28.914-.42 1.54-.42.55 0 1.008.135 1.372.406.364.261.606.658.728 1.19.205-.495.518-.882.938-1.162.429-.289.947-.434 1.554-.434.662 0 1.19.191 1.582.574.401.383.602.961.602 1.736V406h-1.246v-4.942c0-.476-.117-.821-.35-1.036-.234-.224-.551-.336-.952-.336-.532 0-.952.154-1.26.462a4.41 4.41 0 0 0-.798 1.064V406h-1.232v-5.082Zm10.987 5.222c-1.213 0-2.142-.331-2.786-.994-.635-.672-.952-1.601-.952-2.786 0-.793.149-1.47.448-2.03.299-.56.709-.989 1.232-1.288a3.49 3.49 0 0 1 1.764-.448c1.111 0 1.927.369 2.45 1.106.523.728.691 1.727.504 2.996h-5.124c.103 1.559.961 2.338 2.576 2.338.887 0 1.703-.252 2.45-.756v1.106a4.3 4.3 0 0 1-1.176.56c-.448.131-.91.196-1.386.196Zm-.322-6.454c-.532 0-.989.163-1.372.49-.383.327-.625.821-.728 1.484h3.906c.028-.625-.117-1.111-.434-1.456s-.775-.518-1.372-.518Zm8.124.28c-.579.047-1.073.191-1.484.434a2.185 2.185 0 0 0-.882.98V406h-1.232v-7.266h1.078l.126 1.582h.028c.233-.485.551-.877.952-1.176a2.973 2.973 0 0 1 1.414-.546v1.372Zm8.504 6.034h-1.274v-8.456l-2.772 2.128v-1.414l2.982-2.296h1.064V406Zm100.559.14c-.99 0-1.858-.205-2.604-.616a4.293 4.293 0 0 1-1.722-1.764c-.411-.775-.616-1.699-.616-2.772 0-1.615.424-2.875 1.274-3.78.849-.915 2.062-1.372 3.64-1.372.588 0 1.148.065 1.68.196.541.121.998.299 1.372.532v1.26a5.007 5.007 0 0 0-1.414-.588 6.466 6.466 0 0 0-1.652-.21c-1.176 0-2.049.331-2.618.994-.57.663-.854 1.652-.854 2.968 0 1.325.308 2.319.924 2.982.616.653 1.516.98 2.702.98 1.12 0 2.09-.308 2.912-.924v1.26c-.327.261-.761.471-1.302.63a6.47 6.47 0 0 1-1.722.224Zm9.532-1.442a2.633 2.633 0 0 1-.91 1.022c-.401.28-.929.42-1.582.42-.672 0-1.218-.191-1.638-.574-.411-.383-.616-.966-.616-1.75v-5.082h1.246v5.082c0 .476.131.798.392.966.261.168.583.252.966.252.541 0 .975-.121 1.302-.364.327-.243.607-.574.84-.994v-4.942h1.232V406h-1.092l-.112-1.302h-.028Zm5.578 1.442a5.169 5.169 0 0 1-1.526-.224c-.476-.159-.863-.369-1.162-.63v-1.106c.289.28.677.504 1.162.672.495.168.999.252 1.512.252 1.139 0 1.708-.369 1.708-1.106 0-.215-.051-.387-.154-.518-.093-.14-.271-.257-.532-.35-.261-.103-.639-.201-1.134-.294-.943-.187-1.601-.439-1.974-.756-.373-.327-.56-.789-.56-1.386 0-.663.257-1.176.77-1.54.513-.373 1.223-.56 2.128-.56.429 0 .849.047 1.26.14.42.084.761.201 1.022.35v1.106c-.541-.373-1.288-.56-2.24-.56-.588 0-1.022.084-1.302.252-.271.168-.406.429-.406.784 0 .187.042.341.126.462.084.121.252.229.504.322s.63.191 1.134.294c.644.131 1.153.289 1.526.476.383.177.653.406.812.686.168.28.252.635.252 1.064 0 .681-.257 1.213-.77 1.596s-1.232.574-2.156.574Zm3.856-6.356v-1.05h.868v-1.526h1.232v1.526h2.114v1.05h-2.114v4.368c0 .308.079.532.238.672.158.14.429.21.812.21.364 0 .695-.103.994-.308v1.12c-.15.093-.346.163-.588.21a3.235 3.235 0 0 1-.728.084c-.467 0-.845-.089-1.134-.266-.29-.177-.5-.406-.63-.686a2.057 2.057 0 0 1-.196-.882v-4.522h-.868Zm8.56 6.356c-.663 0-1.26-.145-1.792-.434a3.248 3.248 0 0 1-1.246-1.288c-.308-.569-.462-1.255-.462-2.058 0-.803.154-1.484.462-2.044.308-.56.723-.985 1.246-1.274a3.592 3.592 0 0 1 1.792-.448c.672 0 1.274.149 1.806.448.532.289.952.714 1.26 1.274.308.56.462 1.241.462 2.044 0 .803-.154 1.489-.462 2.058-.308.56-.728.989-1.26 1.288-.532.289-1.134.434-1.806.434Zm0-1.106c.653 0 1.195-.215 1.624-.644.429-.439.644-1.115.644-2.03 0-.915-.215-1.587-.644-2.016-.429-.439-.971-.658-1.624-.658-.644 0-1.181.219-1.61.658-.42.429-.63 1.101-.63 2.016s.21 1.591.63 2.03c.429.429.966.644 1.61.644Zm9.622-4.116c0-.467-.117-.789-.35-.966-.234-.177-.551-.266-.952-.266-.523 0-.938.131-1.246.392a3.484 3.484 0 0 0-.812.994V406h-1.232v-7.266h1.078l.126 1.302h.028c.196-.411.49-.751.882-1.022.401-.28.914-.42 1.54-.42.55 0 1.008.135 1.372.406.364.261.606.658.728 1.19.205-.495.518-.882.938-1.162.429-.289.947-.434 1.554-.434.662 0 1.19.191 1.582.574.401.383.602.961.602 1.736V406h-1.246v-4.942c0-.476-.117-.821-.35-1.036-.234-.224-.551-.336-.952-.336-.532 0-.952.154-1.26.462a4.41 4.41 0 0 0-.798 1.064V406h-1.232v-5.082Zm10.987 5.222c-1.213 0-2.142-.331-2.786-.994-.635-.672-.952-1.601-.952-2.786 0-.793.149-1.47.448-2.03.299-.56.709-.989 1.232-1.288a3.49 3.49 0 0 1 1.764-.448c1.111 0 1.927.369 2.45 1.106.523.728.691 1.727.504 2.996h-5.124c.103 1.559.961 2.338 2.576 2.338.887 0 1.703-.252 2.45-.756v1.106a4.3 4.3 0 0 1-1.176.56c-.448.131-.91.196-1.386.196Zm-.322-6.454c-.532 0-.989.163-1.372.49-.383.327-.625.821-.728 1.484h3.906c.028-.625-.117-1.111-.434-1.456s-.775-.518-1.372-.518Zm8.124.28c-.579.047-1.073.191-1.484.434a2.185 2.185 0 0 0-.882.98V406h-1.232v-7.266h1.078l.126 1.582h.028c.233-.485.551-.877.952-1.176a2.973 2.973 0 0 1 1.414-.546v1.372Zm10.38 6.034h-6.398v-1.33a60.776 60.776 0 0 0 2.45-2.058c.644-.569 1.144-1.064 1.498-1.484.364-.429.616-.826.756-1.19a2.88 2.88 0 0 0 .224-1.106c0-.579-.172-1.031-.518-1.358-.345-.327-.821-.49-1.428-.49-.97 0-1.876.462-2.716 1.386v-1.414c.775-.756 1.694-1.134 2.758-1.134 1.008 0 1.802.261 2.38.784.588.513.882 1.213.882 2.1 0 .457-.074.896-.224 1.316-.14.411-.392.845-.756 1.302-.354.448-.844.952-1.47 1.512a44.97 44.97 0 0 1-2.38 1.96h4.942V406Zm98.683.14c-.99 0-1.858-.205-2.604-.616a4.293 4.293 0 0 1-1.722-1.764c-.411-.775-.616-1.699-.616-2.772 0-1.615.424-2.875 1.274-3.78.849-.915 2.062-1.372 3.64-1.372.588 0 1.148.065 1.68.196.541.121.998.299 1.372.532v1.26a5.007 5.007 0 0 0-1.414-.588 6.466 6.466 0 0 0-1.652-.21c-1.176 0-2.049.331-2.618.994-.57.663-.854 1.652-.854 2.968 0 1.325.308 2.319.924 2.982.616.653 1.516.98 2.702.98 1.12 0 2.09-.308 2.912-.924v1.26c-.327.261-.761.471-1.302.63a6.47 6.47 0 0 1-1.722.224Zm9.532-1.442a2.633 2.633 0 0 1-.91 1.022c-.401.28-.929.42-1.582.42-.672 0-1.218-.191-1.638-.574-.411-.383-.616-.966-.616-1.75v-5.082h1.246v5.082c0 .476.131.798.392.966.261.168.583.252.966.252.541 0 .975-.121 1.302-.364.327-.243.607-.574.84-.994v-4.942h1.232V406h-1.092l-.112-1.302h-.028Zm5.578 1.442a5.169 5.169 0 0 1-1.526-.224c-.476-.159-.863-.369-1.162-.63v-1.106c.289.28.677.504 1.162.672.495.168.999.252 1.512.252 1.139 0 1.708-.369 1.708-1.106 0-.215-.051-.387-.154-.518-.093-.14-.271-.257-.532-.35-.261-.103-.639-.201-1.134-.294-.943-.187-1.601-.439-1.974-.756-.373-.327-.56-.789-.56-1.386 0-.663.257-1.176.77-1.54.513-.373 1.223-.56 2.128-.56.429 0 .849.047 1.26.14.42.084.761.201 1.022.35v1.106c-.541-.373-1.288-.56-2.24-.56-.588 0-1.022.084-1.302.252-.271.168-.406.429-.406.784 0 .187.042.341.126.462.084.121.252.229.504.322s.63.191 1.134.294c.644.131 1.153.289 1.526.476.383.177.653.406.812.686.168.28.252.635.252 1.064 0 .681-.257 1.213-.77 1.596s-1.232.574-2.156.574Zm3.856-6.356v-1.05h.868v-1.526h1.232v1.526h2.114v1.05h-2.114v4.368c0 .308.079.532.238.672.158.14.429.21.812.21.364 0 .695-.103.994-.308v1.12c-.15.093-.346.163-.588.21a3.235 3.235 0 0 1-.728.084c-.467 0-.845-.089-1.134-.266-.29-.177-.5-.406-.63-.686a2.057 2.057 0 0 1-.196-.882v-4.522h-.868Zm8.56 6.356c-.663 0-1.26-.145-1.792-.434a3.248 3.248 0 0 1-1.246-1.288c-.308-.569-.462-1.255-.462-2.058 0-.803.154-1.484.462-2.044.308-.56.723-.985 1.246-1.274a3.592 3.592 0 0 1 1.792-.448c.672 0 1.274.149 1.806.448.532.289.952.714 1.26 1.274.308.56.462 1.241.462 2.044 0 .803-.154 1.489-.462 2.058-.308.56-.728.989-1.26 1.288-.532.289-1.134.434-1.806.434Zm0-1.106c.653 0 1.195-.215 1.624-.644.429-.439.644-1.115.644-2.03 0-.915-.215-1.587-.644-2.016-.429-.439-.971-.658-1.624-.658-.644 0-1.181.219-1.61.658-.42.429-.63 1.101-.63 2.016s.21 1.591.63 2.03c.429.429.966.644 1.61.644Zm9.622-4.116c0-.467-.117-.789-.35-.966-.234-.177-.551-.266-.952-.266-.523 0-.938.131-1.246.392a3.484 3.484 0 0 0-.812.994V406h-1.232v-7.266h1.078l.126 1.302h.028c.196-.411.49-.751.882-1.022.401-.28.914-.42 1.54-.42.55 0 1.008.135 1.372.406.364.261.606.658.728 1.19.205-.495.518-.882.938-1.162.429-.289.947-.434 1.554-.434.662 0 1.19.191 1.582.574.401.383.602.961.602 1.736V406h-1.246v-4.942c0-.476-.117-.821-.35-1.036-.234-.224-.551-.336-.952-.336-.532 0-.952.154-1.26.462a4.41 4.41 0 0 0-.798 1.064V406h-1.232v-5.082Zm10.987 5.222c-1.213 0-2.142-.331-2.786-.994-.635-.672-.952-1.601-.952-2.786 0-.793.149-1.47.448-2.03.299-.56.709-.989 1.232-1.288a3.49 3.49 0 0 1 1.764-.448c1.111 0 1.927.369 2.45 1.106.523.728.691 1.727.504 2.996h-5.124c.103 1.559.961 2.338 2.576 2.338.887 0 1.703-.252 2.45-.756v1.106a4.3 4.3 0 0 1-1.176.56c-.448.131-.91.196-1.386.196Zm-.322-6.454c-.532 0-.989.163-1.372.49-.383.327-.625.821-.728 1.484h3.906c.028-.625-.117-1.111-.434-1.456s-.775-.518-1.372-.518Zm8.124.28c-.579.047-1.073.191-1.484.434a2.185 2.185 0 0 0-.882.98V406h-1.232v-7.266h1.078l.126 1.582h.028c.233-.485.551-.877.952-1.176a2.973 2.973 0 0 1 1.414-.546v1.372Zm5.62 1.386v-1.19h1.344c.523 0 .948-.14 1.274-.42.336-.289.504-.695.504-1.218 0-.476-.154-.849-.462-1.12-.308-.28-.751-.42-1.33-.42-.485 0-.942.089-1.372.266-.42.177-.858.462-1.316.854v-1.372c.747-.607 1.648-.91 2.702-.91.962 0 1.713.243 2.254.728.551.485.826 1.12.826 1.904 0 .635-.177 1.139-.532 1.512-.345.373-.76.621-1.246.742.392.056.752.191 1.078.406.336.205.607.476.812.812.206.336.308.728.308 1.176 0 .616-.154 1.153-.462 1.61a3.044 3.044 0 0 1-1.274 1.064c-.532.243-1.152.364-1.862.364-1.232 0-2.184-.285-2.856-.854v-1.4c.355.345.784.616 1.288.812a4.33 4.33 0 0 0 1.582.294c.691 0 1.232-.163 1.624-.49.402-.336.602-.793.602-1.372 0-.56-.182-.994-.546-1.302-.354-.317-.905-.476-1.652-.476h-1.288Z"/>
    <rect width="60" height="90" x="390" y="112" fill="#FFF2BF" rx="10"/>
    <rect width="60" height="200" x="390" y="272" fill="#E3EBFF" rx="10" transform="rotate(-90 390 272)"/>
    <path fill="#000" d="m408.999 162-3.5-10.038h1.372l3.206 9.24 3.206-9.24h1.26L411.057 162h-2.058Zm11.785-1.526h-.588l.014-.014-3.038-6.65V162h-1.246v-10.038h1.834l3.122 7.042 3.262-7.042h1.708V162h-1.33v-8.078l-3.08 6.538-.658.014ZM432.222 162h-1.274v-8.456l-2.772 2.128v-1.414l2.982-2.296h1.064V162Z"/>
    <rect width="60" height="90" x="530" y="112" fill="#FFF2BF" rx="10"/>
    <rect width="60" height="40" x="460" y="112" fill="#FFF2BF" rx="10"/>
    <rect width="60" height="40" x="460" y="162" fill="#FFF2BF" rx="10"/>
    <path fill="#000" d="m548.999 162-3.5-10.038h1.372l3.206 9.24 3.206-9.24h1.26L551.057 162h-2.058Zm11.785-1.526h-.588l.014-.014-3.038-6.65V162h-1.246v-10.038h1.834l3.122 7.042 3.262-7.042h1.708V162h-1.33v-8.078l-3.08 6.538-.658.014Zm12.18 1.526h-1.232v-2.38h-4.34v-.868l3.92-6.79h1.652v6.594h1.358v1.064h-1.358V162Zm-4.298-3.444h3.066v-5.222l-3.066 5.222ZM478.999 137l-3.5-10.038h1.372l3.206 9.24 3.206-9.24h1.26L481.057 137h-2.058Zm11.785-1.526h-.588l.014-.014-3.038-6.65V137h-1.246v-10.038h1.834l3.122 7.042 3.262-7.042h1.708V137h-1.33v-8.078l-3.08 6.538-.658.014ZM504.098 137H497.7v-1.33a62.22 62.22 0 0 0 2.45-2.058c.644-.569 1.143-1.064 1.498-1.484.364-.429.616-.826.756-1.19.149-.364.224-.733.224-1.106 0-.579-.173-1.031-.518-1.358-.346-.327-.822-.49-1.428-.49-.971 0-1.876.462-2.716 1.386v-1.414c.774-.756 1.694-1.134 2.758-1.134 1.008 0 1.801.261 2.38.784.588.513.882 1.213.882 2.1 0 .457-.075.896-.224 1.316-.14.411-.392.845-.756 1.302-.355.448-.845.952-1.47 1.512a45.807 45.807 0 0 1-2.38 1.96h4.942V137Zm-25.099 50-3.5-10.038h1.372l3.206 9.24 3.206-9.24h1.26L481.057 187h-2.058Zm11.785-1.526h-.588l.014-.014-3.038-6.65V187h-1.246v-10.038h1.834l3.122 7.042 3.262-7.042h1.708V187h-1.33v-8.078l-3.08 6.538-.658.014Zm8.554-3.122v-1.19h1.344c.522 0 .947-.14 1.274-.42.336-.289.504-.695.504-1.218 0-.476-.154-.849-.462-1.12-.308-.28-.752-.42-1.33-.42a3.56 3.56 0 0 0-1.372.266c-.42.177-.859.462-1.316.854v-1.372c.746-.607 1.647-.91 2.702-.91.961 0 1.712.243 2.254.728.55.485.826 1.12.826 1.904 0 .635-.178 1.139-.532 1.512a2.491 2.491 0 0 1-1.246.742c.392.056.751.191 1.078.406.336.205.606.476.812.812.205.336.308.728.308 1.176 0 .616-.154 1.153-.462 1.61a3.05 3.05 0 0 1-1.274 1.064c-.532.243-1.153.364-1.862.364-1.232 0-2.184-.285-2.856-.854v-1.4c.354.345.784.616 1.288.812a4.325 4.325 0 0 0 1.582.294c.69 0 1.232-.163 1.624-.49.401-.336.602-.793.602-1.372 0-.56-.182-.994-.546-1.302-.355-.317-.906-.476-1.652-.476h-1.288Zm-42.697 54.61h1.316v4.466h5.152v-4.466h1.33V247h-1.33v-4.382h-5.152V247h-1.316v-10.038Zm10.606 12.656c-.382 0-.7-.051-.952-.154v-1.19c.187.159.49.238.91.238.327 0 .602-.079.826-.238.234-.149.458-.411.672-.784l-2.954-7.756h1.358l2.31 6.132 2.296-6.132h1.19l-2.716 7.182c-.373.961-.788 1.652-1.246 2.072-.457.42-1.022.63-1.694.63Zm6.808-9.884h1.078l.126 1.414c.233-.467.555-.84.966-1.12.42-.289.933-.434 1.54-.434.569 0 1.092.14 1.568.42.485.271.877.686 1.176 1.246.299.551.448 1.251.448 2.1 0 .849-.154 1.554-.462 2.114-.299.56-.695.98-1.19 1.26a3.216 3.216 0 0 1-1.596.406c-.551 0-1.031-.131-1.442-.392a2.81 2.81 0 0 1-.98-1.078v3.808h-1.232v-9.744Zm5.628 3.626c0-.877-.201-1.54-.602-1.988-.401-.457-.919-.686-1.554-.686s-1.171.224-1.61.672c-.429.439-.644 1.106-.644 2.002 0 .905.215 1.577.644 2.016.439.439.975.658 1.61.658.635 0 1.153-.224 1.554-.672.401-.448.602-1.115.602-2.002Zm5.986 3.78c-1.213 0-2.142-.331-2.786-.994-.634-.672-.952-1.601-.952-2.786 0-.793.15-1.47.448-2.03.299-.56.71-.989 1.232-1.288a3.49 3.49 0 0 1 1.764-.448c1.111 0 1.928.369 2.45 1.106.523.728.691 1.727.504 2.996h-5.124c.103 1.559.962 2.338 2.576 2.338.887 0 1.704-.252 2.45-.756v1.106a4.3 4.3 0 0 1-1.176.56c-.448.131-.91.196-1.386.196Zm-.322-6.454c-.532 0-.989.163-1.372.49-.382.327-.625.821-.728 1.484h3.906c.028-.625-.116-1.111-.434-1.456-.317-.345-.774-.518-1.372-.518Zm8.124.28c-.578.047-1.073.191-1.484.434a2.185 2.185 0 0 0-.882.98V247h-1.232v-7.266h1.078l.126 1.582h.028c.234-.485.551-.877.952-1.176a2.973 2.973 0 0 1 1.414-.546v1.372Zm.839-1.232h1.33l2.212 6.608 2.198-6.608h1.232L498.79 247h-1.988l-2.492-7.266Zm8.744-1.064c-.252 0-.453-.075-.602-.224a.81.81 0 0 1-.224-.574.81.81 0 0 1 .224-.574c.149-.159.35-.238.602-.238.243 0 .434.079.574.238.14.159.21.35.21.574 0 .224-.07.415-.21.574-.14.149-.331.224-.574.224Zm-.63 1.064h1.232V247h-1.232v-7.266Zm5.564 7.406c-.532 0-1.04-.075-1.526-.224-.476-.159-.863-.369-1.162-.63v-1.106c.29.28.677.504 1.162.672.495.168.999.252 1.512.252 1.139 0 1.708-.369 1.708-1.106 0-.215-.051-.387-.154-.518-.093-.14-.27-.257-.532-.35-.261-.103-.639-.201-1.134-.294-.942-.187-1.6-.439-1.974-.756-.373-.327-.56-.789-.56-1.386 0-.663.257-1.176.77-1.54.514-.373 1.223-.56 2.128-.56.43 0 .85.047 1.26.14.42.084.761.201 1.022.35v1.106c-.541-.373-1.288-.56-2.24-.56-.588 0-1.022.084-1.302.252-.27.168-.406.429-.406.784 0 .187.042.341.126.462.084.121.252.229.504.322s.63.191 1.134.294c.644.131 1.153.289 1.526.476.383.177.654.406.812.686.168.28.252.635.252 1.064 0 .681-.256 1.213-.77 1.596-.513.383-1.232.574-2.156.574Zm7.426 0c-.663 0-1.26-.145-1.792-.434a3.248 3.248 0 0 1-1.246-1.288c-.308-.569-.462-1.255-.462-2.058 0-.803.154-1.484.462-2.044.308-.56.723-.985 1.246-1.274a3.592 3.592 0 0 1 1.792-.448c.672 0 1.274.149 1.806.448.532.289.952.714 1.26 1.274.308.56.462 1.241.462 2.044 0 .803-.154 1.489-.462 2.058-.308.56-.728.989-1.26 1.288-.532.289-1.134.434-1.806.434Zm0-1.106c.653 0 1.194-.215 1.624-.644.429-.439.644-1.115.644-2.03 0-.915-.215-1.587-.644-2.016-.43-.439-.971-.658-1.624-.658-.644 0-1.181.219-1.61.658-.42.429-.63 1.101-.63 2.016s.21 1.591.63 2.03c.429.429.966.644 1.61.644Zm8.628-5.068c-.579.047-1.074.191-1.484.434a2.174 2.174 0 0 0-.882.98V247h-1.232v-7.266h1.078l.126 1.582h.028c.233-.485.55-.877.952-1.176.41-.299.882-.481 1.414-.546v1.372Z"/>
    <rect width="60" height="200" x="390" y="342" fill="#D6E1FF" rx="10" transform="rotate(-90 390 342)"/>
    <rect width="60" height="200" x="390" y="342" fill="#E3EBFF" rx="10" transform="rotate(-90 390 342)"/>
    <path fill="#000" d="M445.129 306.962h1.316v4.466h5.152v-4.466h1.33V317h-1.33v-4.382h-5.152V317h-1.316v-10.038Zm12.959 10.178c-.663 0-1.26-.145-1.792-.434a3.248 3.248 0 0 1-1.246-1.288c-.308-.569-.462-1.255-.462-2.058 0-.803.154-1.484.462-2.044.308-.56.723-.985 1.246-1.274a3.592 3.592 0 0 1 1.792-.448c.672 0 1.274.149 1.806.448.532.289.952.714 1.26 1.274.308.56.462 1.241.462 2.044 0 .803-.154 1.489-.462 2.058-.308.56-.728.989-1.26 1.288-.532.289-1.134.434-1.806.434Zm0-1.106c.653 0 1.194-.215 1.624-.644.429-.439.644-1.115.644-2.03 0-.915-.215-1.587-.644-2.016-.43-.439-.971-.658-1.624-.658-.644 0-1.181.219-1.61.658-.42.429-.63 1.101-.63 2.016s.21 1.591.63 2.03c.429.429.966.644 1.61.644Zm7.353 1.106c-.532 0-1.04-.075-1.526-.224-.476-.159-.863-.369-1.162-.63v-1.106c.29.28.677.504 1.162.672.495.168.999.252 1.512.252 1.139 0 1.708-.369 1.708-1.106 0-.215-.051-.387-.154-.518-.093-.14-.27-.257-.532-.35-.261-.103-.639-.201-1.134-.294-.942-.187-1.6-.439-1.974-.756-.373-.327-.56-.789-.56-1.386 0-.663.257-1.176.77-1.54.514-.373 1.223-.56 2.128-.56.43 0 .85.047 1.26.14.42.084.761.201 1.022.35v1.106c-.541-.373-1.288-.56-2.24-.56-.588 0-1.022.084-1.302.252-.27.168-.406.429-.406.784 0 .187.042.341.126.462.084.121.252.229.504.322s.63.191 1.134.294c.644.131 1.153.289 1.526.476.383.177.654.406.812.686.168.28.252.635.252 1.064 0 .681-.256 1.213-.77 1.596-.513.383-1.232.574-2.156.574Zm3.856-6.356v-1.05h.868v-1.526h1.232v1.526h2.114v1.05h-2.114v4.368c0 .308.079.532.238.672.159.14.429.21.812.21.364 0 .695-.103.994-.308v1.12a1.735 1.735 0 0 1-.588.21 3.228 3.228 0 0 1-.728.084c-.467 0-.845-.089-1.134-.266a1.588 1.588 0 0 1-.63-.686 2.057 2.057 0 0 1-.196-.882v-4.522h-.868Zm12.03-.098c-.56 0-1.017.131-1.372.392a2.874 2.874 0 0 0-.84.98V317h-1.232v-10.038h1.232v2.772l-.028 1.302h.028a2.48 2.48 0 0 1 .924-1.022c.42-.28.952-.42 1.596-.42.719 0 1.288.191 1.708.574.429.383.644.961.644 1.736V317h-1.232v-4.97c0-.495-.131-.84-.392-1.036-.252-.205-.597-.308-1.036-.308Zm7.073 0c-.775 0-1.559.238-2.352.714v-1.106a4.412 4.412 0 0 1 1.19-.504c.457-.131.9-.196 1.33-.196.914 0 1.61.191 2.086.574.476.383.714.966.714 1.75v3.906c0 .159.004.364.014.616.018.243.037.429.056.56h-1.12a6.439 6.439 0 0 1-.084-.546 8.21 8.21 0 0 1-.028-.63l-.014-.21a3.93 3.93 0 0 1-.462.7 2.354 2.354 0 0 1-.784.588c-.318.159-.714.238-1.19.238-.654 0-1.181-.187-1.582-.56-.402-.373-.602-.901-.602-1.582 0-.793.28-1.377.84-1.75.56-.373 1.348-.56 2.366-.56h1.358v-.602c0-.504-.131-.863-.392-1.078-.262-.215-.71-.322-1.344-.322Zm1.736 3.514v-.532h-1.232c-.738 0-1.274.107-1.61.322-.327.215-.49.527-.49.938 0 .327.098.593.294.798.205.205.513.308.924.308.382 0 .709-.075.98-.224.27-.159.49-.345.658-.56.168-.224.289-.434.364-.63.074-.196.112-.336.112-.42Zm6.767-3.234c-.579.047-1.073.191-1.484.434a2.185 2.185 0 0 0-.882.98V317h-1.232v-7.266h1.078l.126 1.582h.028c.233-.485.551-.877.952-1.176a2.973 2.973 0 0 1 1.414-.546v1.372Zm.778 2.394c0-.849.15-1.549.448-2.1.299-.56.696-.975 1.19-1.246.504-.28 1.05-.42 1.638-.42.551 0 1.027.117 1.428.35.402.224.724.546.966.966v-3.948h1.232V317h-1.078l-.098-1.428a2.865 2.865 0 0 1-.952 1.148c-.401.28-.905.42-1.512.42-.578 0-1.12-.135-1.624-.406-.494-.28-.891-.7-1.19-1.26-.298-.56-.448-1.265-.448-2.114Zm5.684 0c0-.905-.214-1.577-.644-2.016-.429-.439-.961-.658-1.596-.658-.634 0-1.157.229-1.568.686-.41.448-.616 1.111-.616 1.988 0 .887.206 1.554.616 2.002.411.448.934.672 1.568.672.635 0 1.167-.219 1.596-.658.43-.439.644-1.111.644-2.016Zm12.791-3.626L514.504 317h-1.89l-1.54-5.614-1.582 5.614h-1.834l-1.652-7.266h1.302l1.386 6.342 1.764-6.342h1.386l1.722 6.272 1.372-6.272h1.218Zm3.826.952c-.775 0-1.559.238-2.352.714v-1.106a4.412 4.412 0 0 1 1.19-.504c.457-.131.9-.196 1.33-.196.914 0 1.61.191 2.086.574.476.383.714.966.714 1.75v3.906c0 .159.004.364.014.616.018.243.037.429.056.56h-1.12a6.439 6.439 0 0 1-.084-.546 8.21 8.21 0 0 1-.028-.63l-.014-.21a3.93 3.93 0 0 1-.462.7 2.354 2.354 0 0 1-.784.588c-.318.159-.714.238-1.19.238-.654 0-1.181-.187-1.582-.56-.402-.373-.602-.901-.602-1.582 0-.793.28-1.377.84-1.75.56-.373 1.348-.56 2.366-.56h1.358v-.602c0-.504-.131-.863-.392-1.078-.262-.215-.71-.322-1.344-.322Zm1.736 3.514v-.532h-1.232c-.738 0-1.274.107-1.61.322-.327.215-.49.527-.49.938 0 .327.098.593.294.798.205.205.513.308.924.308.382 0 .709-.075.98-.224.27-.159.49-.345.658-.56.168-.224.289-.434.364-.63.074-.196.112-.336.112-.42Zm6.767-3.234c-.579.047-1.073.191-1.484.434a2.185 2.185 0 0 0-.882.98V317h-1.232v-7.266h1.078l.126 1.582h.028c.233-.485.551-.877.952-1.176a2.973 2.973 0 0 1 1.414-.546v1.372Zm4.366 6.174c-1.213 0-2.142-.331-2.786-.994-.635-.672-.952-1.601-.952-2.786 0-.793.149-1.47.448-2.03.299-.56.709-.989 1.232-1.288a3.49 3.49 0 0 1 1.764-.448c1.111 0 1.927.369 2.45 1.106.523.728.691 1.727.504 2.996h-5.124c.103 1.559.961 2.338 2.576 2.338.887 0 1.703-.252 2.45-.756v1.106a4.3 4.3 0 0 1-1.176.56c-.448.131-.91.196-1.386.196Zm-.322-6.454c-.532 0-.989.163-1.372.49-.383.327-.625.821-.728 1.484h3.906c.028-.625-.117-1.111-.434-1.456s-.775-.518-1.372-.518ZM443.241 81.962h3.374c.672 0 1.298.08 1.876.238.579.159 1.083.42 1.512.784.43.355.766.83 1.008 1.428.243.597.364 1.34.364 2.226 0 1.176-.214 2.165-.644 2.968-.42.793-.998 1.39-1.736 1.792-.737.401-1.582.602-2.534.602h-3.22V81.962Zm3.22 8.848c.691 0 1.298-.14 1.82-.42.523-.29.929-.733 1.218-1.33.299-.607.448-1.381.448-2.324 0-.943-.144-1.67-.434-2.184-.289-.513-.686-.873-1.19-1.078-.494-.205-1.064-.308-1.708-.308h-2.058v7.644h1.904Zm9.786 1.33c-1.214 0-2.142-.331-2.786-.994-.635-.672-.952-1.6-.952-2.786 0-.793.149-1.47.448-2.03a3.15 3.15 0 0 1 1.232-1.288 3.488 3.488 0 0 1 1.764-.448c1.11 0 1.927.369 2.45 1.106.522.728.69 1.727.504 2.996h-5.124c.102 1.559.961 2.338 2.576 2.338.886 0 1.703-.252 2.45-.756v1.106a4.3 4.3 0 0 1-1.176.56c-.448.13-.91.196-1.386.196Zm-.322-6.454c-.532 0-.99.163-1.372.49-.383.327-.626.821-.728 1.484h3.906c.028-.625-.117-1.11-.434-1.456-.318-.345-.775-.518-1.372-.518Zm4.007 2.674c0-.85.15-1.55.448-2.1.299-.56.696-.975 1.19-1.246.504-.28 1.05-.42 1.638-.42.551 0 1.027.117 1.428.35.402.224.724.546.966.966v-3.948h1.232V92h-1.078l-.098-1.428a2.867 2.867 0 0 1-.952 1.148c-.401.28-.905.42-1.512.42-.578 0-1.12-.135-1.624-.406-.494-.28-.891-.7-1.19-1.26-.298-.56-.448-1.265-.448-2.114Zm5.684 0c0-.905-.214-1.577-.644-2.016-.429-.439-.961-.658-1.596-.658-.634 0-1.157.229-1.568.686-.41.448-.616 1.11-.616 1.988 0 .887.206 1.554.616 2.002.411.448.934.672 1.568.672.635 0 1.167-.22 1.596-.658.43-.439.644-1.11.644-2.016Zm3.859-4.69c-.252 0-.453-.075-.602-.224a.809.809 0 0 1-.224-.574.81.81 0 0 1 .224-.574c.149-.159.35-.238.602-.238.243 0 .434.08.574.238.14.159.21.35.21.574 0 .224-.07.415-.21.574-.14.15-.331.224-.574.224Zm-.63 1.064h1.232V92h-1.232v-7.266Zm6.376 7.406c-1.129 0-2.021-.331-2.674-.994-.653-.672-.98-1.6-.98-2.786 0-1.185.331-2.11.994-2.772.663-.663 1.568-.994 2.716-.994.439 0 .849.051 1.232.154.383.093.691.233.924.42v1.106a3.995 3.995 0 0 0-2.142-.588c-.84 0-1.461.224-1.862.672-.401.439-.602 1.106-.602 2.002 0 .896.191 1.568.574 2.016.392.439.999.658 1.82.658a4.44 4.44 0 0 0 2.212-.574v1.106c-.607.383-1.344.574-2.212.574Zm6.178-6.454c-.775 0-1.559.238-2.352.714v-1.106a4.43 4.43 0 0 1 1.19-.504c.457-.13.9-.196 1.33-.196.914 0 1.61.191 2.086.574.476.383.714.966.714 1.75v3.906c0 .159.004.364.014.616.018.243.037.43.056.56h-1.12a6.4 6.4 0 0 1-.084-.546 8.197 8.197 0 0 1-.028-.63l-.014-.21a3.92 3.92 0 0 1-.462.7c-.196.233-.458.43-.784.588-.318.159-.714.238-1.19.238-.654 0-1.181-.187-1.582-.56-.402-.373-.602-.9-.602-1.582 0-.793.28-1.377.84-1.75.56-.373 1.348-.56 2.366-.56h1.358v-.602c0-.504-.131-.863-.392-1.078-.262-.215-.71-.322-1.344-.322Zm1.736 3.514v-.532h-1.232c-.738 0-1.274.107-1.61.322-.327.215-.49.527-.49.938 0 .327.098.593.294.798.205.205.513.308.924.308.382 0 .709-.075.98-.224.27-.159.49-.345.658-.56.168-.224.289-.434.364-.63.074-.196.112-.336.112-.42Zm2.581-3.416v-1.05h.868v-1.526h1.232v1.526h2.114v1.05h-2.114v4.368c0 .308.079.532.238.672.159.14.429.21.812.21.364 0 .695-.103.994-.308v1.12a1.722 1.722 0 0 1-.588.21 3.228 3.228 0 0 1-.728.084c-.467 0-.845-.089-1.134-.266a1.59 1.59 0 0 1-.63-.686 2.057 2.057 0 0 1-.196-.882v-4.522h-.868Zm8.798 6.356c-1.213 0-2.142-.331-2.786-.994-.635-.672-.952-1.6-.952-2.786 0-.793.149-1.47.448-2.03.299-.56.709-.99 1.232-1.288a3.493 3.493 0 0 1 1.764-.448c1.111 0 1.927.369 2.45 1.106.523.728.691 1.727.504 2.996h-5.124c.103 1.559.961 2.338 2.576 2.338.887 0 1.703-.252 2.45-.756v1.106a4.3 4.3 0 0 1-1.176.56c-.448.13-.91.196-1.386.196Zm-.322-6.454c-.532 0-.989.163-1.372.49-.383.327-.625.821-.728 1.484h3.906c.028-.625-.117-1.11-.434-1.456-.317-.345-.775-.518-1.372-.518Zm4.008 2.674c0-.85.149-1.55.448-2.1.299-.56.695-.975 1.19-1.246.504-.28 1.05-.42 1.638-.42.551 0 1.027.117 1.428.35.401.224.723.546.966.966v-3.948h1.232V92h-1.078l-.098-1.428a2.867 2.867 0 0 1-.952 1.148c-.401.28-.905.42-1.512.42-.579 0-1.12-.135-1.624-.406-.495-.28-.891-.7-1.19-1.26-.299-.56-.448-1.265-.448-2.114Zm5.684 0c0-.905-.215-1.577-.644-2.016-.429-.439-.961-.658-1.596-.658-.635 0-1.157.229-1.568.686-.411.448-.616 1.11-.616 1.988 0 .887.205 1.554.616 2.002.411.448.933.672 1.568.672s1.167-.22 1.596-.658c.429-.439.644-1.11.644-2.016Zm9.475-2.674c-.56 0-1.017.13-1.372.392a2.871 2.871 0 0 0-.84.98V92h-1.232V81.962h1.232v2.772l-.028 1.302h.028a2.48 2.48 0 0 1 .924-1.022c.42-.28.952-.42 1.596-.42.719 0 1.288.191 1.708.574.43.383.644.961.644 1.736V92h-1.232v-4.97c0-.495-.13-.84-.392-1.036-.252-.205-.597-.308-1.036-.308Zm7.591 6.454c-.663 0-1.26-.145-1.792-.434a3.246 3.246 0 0 1-1.246-1.288c-.308-.57-.462-1.255-.462-2.058 0-.803.154-1.484.462-2.044a3.15 3.15 0 0 1 1.246-1.274 3.596 3.596 0 0 1 1.792-.448c.672 0 1.274.15 1.806.448.532.29.952.714 1.26 1.274.308.56.462 1.241.462 2.044 0 .803-.154 1.489-.462 2.058a3.22 3.22 0 0 1-1.26 1.288c-.532.29-1.134.434-1.806.434Zm0-1.106c.653 0 1.195-.215 1.624-.644.429-.439.644-1.115.644-2.03 0-.915-.215-1.587-.644-2.016-.429-.439-.971-.658-1.624-.658-.644 0-1.181.22-1.61.658-.42.43-.63 1.101-.63 2.016s.21 1.591.63 2.03c.429.43.966.644 1.61.644Zm7.354 1.106a5.16 5.16 0 0 1-1.526-.224c-.476-.159-.864-.369-1.162-.63V90.18c.289.28.676.504 1.162.672.494.168.998.252 1.512.252 1.138 0 1.708-.369 1.708-1.106 0-.215-.052-.387-.154-.518-.094-.14-.271-.257-.532-.35-.262-.103-.64-.2-1.134-.294-.943-.187-1.601-.439-1.974-.756-.374-.327-.56-.789-.56-1.386 0-.663.256-1.176.77-1.54.513-.373 1.222-.56 2.128-.56.429 0 .849.047 1.26.14.42.084.76.2 1.022.35v1.106c-.542-.373-1.288-.56-2.24-.56-.588 0-1.022.084-1.302.252-.271.168-.406.43-.406.784 0 .187.042.34.126.462.084.121.252.229.504.322s.63.191 1.134.294c.644.13 1.152.29 1.526.476.382.177.653.406.812.686.168.28.252.635.252 1.064 0 .681-.257 1.213-.77 1.596-.514.383-1.232.574-2.156.574Zm3.855-6.356v-1.05h.868v-1.526h1.232v1.526h2.114v1.05h-2.114v4.368c0 .308.08.532.238.672.159.14.43.21.812.21.364 0 .696-.103.994-.308v1.12a1.722 1.722 0 0 1-.588.21 3.222 3.222 0 0 1-.728.084c-.466 0-.844-.089-1.134-.266a1.59 1.59 0 0 1-.63-.686 2.071 2.071 0 0 1-.196-.882v-4.522h-.868Z"/>
</svg>
