<svg width="368" height="16" viewBox="0 0 368 16" fill="none" xmlns="http://www.w3.org/2000/svg">
<path d="M4.28588 1.528H7.78988C8.97388 1.528 9.88054 1.77867 10.5099 2.28C11.1392 2.78133 11.4539 3.55467 11.4539 4.6C11.4539 5.112 11.3739 5.576 11.2139 5.992C11.0539 6.408 10.8245 6.77067 10.5259 7.08C10.2272 7.38933 9.86988 7.64533 9.45388 7.848C9.04854 8.05067 8.58988 8.18933 8.07788 8.264L10.0779 13H8.50988L6.57388 8.344H4.31788L3.32588 13H1.83788L4.28588 1.528ZM5.50188 2.84L4.58988 7.048H7.22988C7.61388 7.048 7.97121 7 8.30188 6.904C8.63254 6.79733 8.91521 6.648 9.14988 6.456C9.39521 6.25333 9.58721 6.00267 9.72588 5.704C9.86454 5.40533 9.93388 5.064 9.93388 4.68C9.93388 3.99733 9.72588 3.52267 9.30988 3.256C8.90454 2.97867 8.33388 2.84 7.59788 2.84H5.50188ZM18.3019 12.696C18.0672 12.8027 17.7579 12.904 17.3739 13C16.9899 13.1067 16.5205 13.16 15.9659 13.16C15.3472 13.16 14.7872 13.0853 14.2859 12.936C13.7845 12.776 13.3579 12.536 13.0059 12.216C12.6539 11.896 12.3819 11.496 12.1899 11.016C11.9979 10.536 11.9019 9.976 11.9019 9.336C11.9019 8.62133 12.0139 7.97067 12.2379 7.384C12.4725 6.79733 12.7819 6.296 13.1659 5.88C13.5605 5.45333 14.0192 5.12267 14.5419 4.888C15.0752 4.65333 15.6459 4.536 16.2539 4.536C16.8619 4.536 17.3952 4.648 17.8539 4.872C18.3125 5.096 18.6699 5.416 18.9259 5.832C19.1925 6.23733 19.3419 6.728 19.3739 7.304C19.4059 7.88 19.2992 8.52 19.0539 9.224H13.3099V9.32C13.3099 10.2267 13.5445 10.8933 14.0139 11.32C14.4832 11.7467 15.1712 11.96 16.0779 11.96C16.5579 11.96 17.0112 11.912 17.4379 11.816C17.8752 11.72 18.2485 11.6133 18.5579 11.496L18.3019 12.696ZM16.1419 5.736C15.4699 5.736 14.8992 5.944 14.4299 6.36C13.9712 6.776 13.6512 7.336 13.4699 8.04H18.0139C18.0779 7.656 18.0725 7.32 17.9979 7.032C17.9339 6.744 17.8112 6.504 17.6299 6.312C17.4592 6.12 17.2459 5.976 16.9899 5.88C16.7339 5.784 16.4512 5.736 16.1419 5.736ZM25.027 13C25.027 12.8827 25.0323 12.696 25.043 12.44C25.0643 12.1733 25.1017 11.8907 25.155 11.592C25.0377 11.784 24.899 11.976 24.739 12.168C24.5897 12.36 24.4083 12.5307 24.195 12.68C23.9923 12.8187 23.7577 12.9307 23.491 13.016C23.235 13.112 22.947 13.16 22.627 13.16C22.339 13.16 22.051 13.1173 21.763 13.032C21.475 12.9573 21.2137 12.8293 20.979 12.648C20.755 12.456 20.5683 12.216 20.419 11.928C20.2697 11.6293 20.195 11.272 20.195 10.856C20.195 9.98133 20.5257 9.29867 21.187 8.808C21.8483 8.31733 22.7977 8.072 24.035 8.072H25.875L25.907 7.96C26.003 7.52267 26.019 7.16 25.955 6.872C25.9017 6.584 25.7843 6.36 25.603 6.2C25.4323 6.02933 25.2083 5.912 24.931 5.848C24.6537 5.77333 24.3497 5.736 24.019 5.736C23.539 5.736 23.1017 5.784 22.707 5.88C22.3123 5.976 21.9283 6.12 21.555 6.312L21.795 5.128C22.1043 4.94667 22.467 4.80267 22.883 4.696C23.3097 4.58933 23.795 4.536 24.339 4.536C24.8617 4.536 25.331 4.6 25.747 4.728C26.1737 4.856 26.5203 5.064 26.787 5.352C27.0643 5.64 27.2457 6.01333 27.331 6.472C27.4163 6.93067 27.3897 7.48533 27.251 8.136L26.483 11.656C26.4617 11.7307 26.4403 11.832 26.419 11.96C26.4083 12.0773 26.3923 12.2053 26.371 12.344C26.3497 12.472 26.3283 12.5947 26.307 12.712C26.2963 12.8293 26.291 12.9253 26.291 13H25.027ZM22.931 12.04C23.3043 12.04 23.635 11.9707 23.923 11.832C24.211 11.6827 24.4563 11.5067 24.659 11.304C24.8723 11.0907 25.043 10.8773 25.171 10.664C25.299 10.44 25.3897 10.2533 25.443 10.104L25.651 9.128H23.923C23.0803 9.128 22.4777 9.28267 22.115 9.592C21.7523 9.90133 21.571 10.296 21.571 10.776C21.571 11.192 21.6883 11.5067 21.923 11.72C22.1683 11.9333 22.5043 12.04 22.931 12.04ZM34.445 11.848C34.1357 12.232 33.7623 12.5467 33.325 12.792C32.8877 13.0373 32.381 13.16 31.805 13.16C31.325 13.16 30.8877 13.08 30.493 12.92C30.0983 12.7493 29.7623 12.5093 29.485 12.2C29.2077 11.88 28.989 11.496 28.829 11.048C28.6797 10.5893 28.605 10.072 28.605 9.496C28.605 8.87733 28.6957 8.26933 28.877 7.672C29.069 7.07467 29.341 6.54667 29.693 6.088C30.0557 5.61867 30.493 5.24533 31.005 4.968C31.5277 4.68 32.125 4.536 32.797 4.536C33.469 4.536 34.0397 4.68533 34.509 4.984C34.9783 5.28267 35.325 5.704 35.549 6.248L36.541 1.528H37.933L35.485 13H34.285L34.445 11.848ZM34.989 8.184C34.989 7.36267 34.7917 6.74933 34.397 6.344C34.013 5.93867 33.4957 5.736 32.845 5.736C32.365 5.736 31.949 5.83733 31.597 6.04C31.2557 6.232 30.9677 6.49333 30.733 6.824C30.509 7.15467 30.3383 7.53867 30.221 7.976C30.1143 8.41333 30.061 8.86667 30.061 9.336C30.061 10.232 30.253 10.8933 30.637 11.32C31.021 11.7467 31.5277 11.96 32.157 11.96C32.6583 11.96 33.085 11.848 33.437 11.624C33.7997 11.3893 34.093 11.0907 34.317 10.728C34.5517 10.3653 34.7223 9.96 34.829 9.512C34.9357 9.064 34.989 8.62133 34.989 8.184ZM48.732 13H46.588L45.932 3.992L41.612 13H39.404L39.372 1.528H40.844L40.812 11.688L45.708 1.528H47.116L47.868 11.592L52.156 1.528H53.644L48.732 13ZM57.9281 6.104C57.3201 6.072 56.7601 6.184 56.2481 6.44C55.7468 6.68533 55.3575 7.112 55.0801 7.72L53.9601 13H52.5841L54.3441 4.696H55.5441L55.3041 6.504H55.3361C55.6028 5.928 55.9815 5.45867 56.4721 5.096C56.9628 4.73333 57.5548 4.54667 58.2481 4.536L57.9281 6.104ZM61.0229 3.48C60.7775 3.48 60.5642 3.38933 60.3829 3.208C60.2015 3.02667 60.1109 2.81333 60.1109 2.568C60.1109 2.312 60.2015 2.09333 60.3829 1.912C60.5642 1.73067 60.7775 1.64 61.0229 1.64C61.2789 1.64 61.4975 1.73067 61.6789 1.912C61.8602 2.09333 61.9509 2.312 61.9509 2.568C61.9509 2.81333 61.8602 3.02667 61.6789 3.208C61.4975 3.38933 61.2789 3.48 61.0229 3.48ZM61.4389 4.696L59.6789 13H58.3029L60.0629 4.696H61.4389ZM65.9283 12.952C65.5869 13.0907 65.1976 13.16 64.7603 13.16C64.3336 13.16 63.9709 13.096 63.6723 12.968C63.3736 12.8293 63.1389 12.6427 62.9683 12.408C62.8083 12.1627 62.7069 11.88 62.6643 11.56C62.6216 11.2293 62.6429 10.872 62.7283 10.488L63.7363 5.832H62.7603L63.0163 4.696H63.9763L64.3603 2.952H65.7363L65.3523 4.696H67.7363L67.4803 5.832H65.1123L64.0883 10.568C63.8749 11.496 64.1949 11.96 65.0483 11.96C65.2403 11.96 65.4323 11.9493 65.6243 11.928C65.8163 11.896 65.9869 11.8533 66.1363 11.8L65.9283 12.952ZM74.2081 12.696C73.9735 12.8027 73.6641 12.904 73.2801 13C72.8961 13.1067 72.4268 13.16 71.8721 13.16C71.2535 13.16 70.6935 13.0853 70.1921 12.936C69.6908 12.776 69.2641 12.536 68.9121 12.216C68.5601 11.896 68.2881 11.496 68.0961 11.016C67.9041 10.536 67.8081 9.976 67.8081 9.336C67.8081 8.62133 67.9201 7.97067 68.1441 7.384C68.3788 6.79733 68.6881 6.296 69.0721 5.88C69.4668 5.45333 69.9255 5.12267 70.4481 4.888C70.9815 4.65333 71.5521 4.536 72.1601 4.536C72.7681 4.536 73.3015 4.648 73.7601 4.872C74.2188 5.096 74.5761 5.416 74.8321 5.832C75.0988 6.23733 75.2481 6.728 75.2801 7.304C75.3121 7.88 75.2055 8.52 74.9601 9.224H69.2161V9.32C69.2161 10.2267 69.4508 10.8933 69.9201 11.32C70.3895 11.7467 71.0775 11.96 71.9841 11.96C72.4641 11.96 72.9175 11.912 73.3441 11.816C73.7815 11.72 74.1548 11.6133 74.4641 11.496L74.2081 12.696ZM72.0481 5.736C71.3761 5.736 70.8055 5.944 70.3361 6.36C69.8775 6.776 69.5575 7.336 69.3761 8.04H73.9201C73.9841 7.656 73.9788 7.32 73.9041 7.032C73.8401 6.744 73.7175 6.504 73.5361 6.312C73.3655 6.12 73.1521 5.976 72.8961 5.88C72.6401 5.784 72.3575 5.736 72.0481 5.736ZM80.2895 1.528L77.8415 13H76.3535L78.8015 1.528H80.2895ZM85.5829 13.16C84.8789 13.16 84.2335 13.048 83.6469 12.824C83.0709 12.5893 82.5695 12.2587 82.1429 11.832C81.7269 11.3947 81.4015 10.8613 81.1669 10.232C80.9322 9.592 80.8149 8.86667 80.8149 8.056C80.8149 7.11733 80.9589 6.24267 81.2469 5.432C81.5455 4.62133 81.9509 3.91733 82.4629 3.32C82.9749 2.72267 83.5829 2.25333 84.2869 1.912C84.9909 1.56 85.7535 1.384 86.5749 1.384C87.2789 1.384 87.9242 1.50133 88.5109 1.736C89.0975 1.96 89.5989 2.29067 90.0149 2.728C90.4415 3.15467 90.7722 3.688 91.0069 4.328C91.2415 4.95733 91.3589 5.67733 91.3589 6.488C91.3589 7.42667 91.2095 8.30133 90.9109 9.112C90.6229 9.92267 90.2175 10.632 89.6949 11.24C89.1829 11.8373 88.5749 12.3067 87.8709 12.648C87.1669 12.9893 86.4042 13.16 85.5829 13.16ZM82.3829 8.12C82.3829 8.77067 82.4629 9.33067 82.6229 9.8C82.7935 10.2693 83.0229 10.6587 83.3109 10.968C83.6095 11.2667 83.9562 11.4907 84.3509 11.64C84.7562 11.7787 85.1935 11.848 85.6629 11.848C86.2922 11.848 86.8575 11.704 87.3589 11.416C87.8709 11.1173 88.3082 10.7173 88.6709 10.216C89.0335 9.71467 89.3109 9.13867 89.5029 8.488C89.6949 7.83733 89.7909 7.14933 89.7909 6.424C89.7909 5.77333 89.7055 5.21333 89.5349 4.744C89.3749 4.27467 89.1509 3.89067 88.8629 3.592C88.5749 3.28267 88.2282 3.05867 87.8229 2.92C87.4282 2.77067 86.9962 2.696 86.5269 2.696C85.8975 2.696 85.3269 2.84533 84.8149 3.144C84.3029 3.432 83.8655 3.82667 83.5029 4.328C83.1402 4.82933 82.8629 5.41067 82.6709 6.072C82.4789 6.72267 82.3829 7.40533 82.3829 8.12ZM94.3328 1.528H97.9008C98.9568 1.528 99.7994 1.77867 100.429 2.28C101.069 2.78133 101.389 3.54933 101.389 4.584C101.389 5.21333 101.277 5.77333 101.053 6.264C100.829 6.75467 100.519 7.17067 100.125 7.512C99.7301 7.84267 99.2608 8.09867 98.7168 8.28C98.1728 8.45067 97.5861 8.536 96.9568 8.536H94.3328L93.3728 13H91.8848L94.3328 1.528ZM95.5488 2.84L94.6048 7.24H97.2768C98.0341 7.24 98.6474 7.02667 99.1168 6.6C99.5968 6.16267 99.8368 5.52267 99.8368 4.68C99.8368 4.008 99.6501 3.53333 99.2768 3.256C98.9141 2.97867 98.3968 2.84 97.7248 2.84H95.5488ZM105.552 13.16C104.997 13.16 104.49 13.112 104.032 13.016C103.584 12.9307 103.189 12.8187 102.848 12.68C102.506 12.5307 102.213 12.3653 101.968 12.184C101.733 12.0027 101.552 11.8267 101.424 11.656L101.696 10.36C102.048 10.7653 102.565 11.1173 103.248 11.416C103.941 11.704 104.736 11.848 105.632 11.848C107.37 11.848 108.24 11.2027 108.24 9.912C108.24 9.63467 108.192 9.4 108.096 9.208C108.01 9.00533 107.872 8.82933 107.68 8.68C107.498 8.52 107.269 8.38133 106.992 8.264C106.714 8.136 106.389 8.00267 106.016 7.864C105.642 7.72533 105.264 7.576 104.88 7.416C104.506 7.24533 104.165 7.04267 103.856 6.808C103.557 6.56267 103.312 6.264 103.12 5.912C102.938 5.54933 102.848 5.10667 102.848 4.584C102.848 3.61333 103.205 2.84 103.92 2.264C104.645 1.67733 105.658 1.384 106.96 1.384C107.792 1.384 108.49 1.496 109.056 1.72C109.632 1.93333 110.064 2.16267 110.352 2.408L110.08 3.704C109.642 3.36267 109.157 3.112 108.624 2.952C108.101 2.78133 107.546 2.696 106.96 2.696C106.053 2.696 105.381 2.86667 104.944 3.208C104.506 3.53867 104.288 3.97067 104.288 4.504C104.288 4.81333 104.357 5.07467 104.496 5.288C104.634 5.49067 104.81 5.66667 105.024 5.816C105.248 5.95467 105.493 6.07733 105.76 6.184C106.037 6.29067 106.314 6.39733 106.592 6.504C106.986 6.64267 107.37 6.79733 107.744 6.968C108.117 7.128 108.448 7.33067 108.736 7.576C109.034 7.82133 109.274 8.12533 109.456 8.488C109.637 8.84 109.728 9.27733 109.728 9.8C109.728 10.8347 109.376 11.656 108.672 12.264C107.968 12.8613 106.928 13.16 105.552 13.16ZM114.848 6.648L115.088 5.528H122.816L122.592 6.648H114.848ZM114.208 9.688L114.432 8.568H122.176L121.952 9.688H114.208ZM129.385 13.16C128.702 13.16 128.142 12.9147 127.705 12.424C127.278 11.9333 127.065 11.2027 127.065 10.232C127.065 9.42133 127.166 8.65867 127.369 7.944C127.572 7.21867 127.854 6.584 128.217 6.04C128.59 5.48533 129.028 5.05333 129.529 4.744C130.041 4.424 130.601 4.264 131.209 4.264C131.817 4.264 132.292 4.408 132.633 4.696C132.985 4.984 133.246 5.33067 133.417 5.736H133.497C133.582 5.55467 133.694 5.336 133.833 5.08C133.972 4.81333 134.121 4.59467 134.281 4.424H135.433C135.316 4.648 135.182 4.96267 135.033 5.368C134.894 5.76267 134.75 6.2 134.601 6.68C134.462 7.16 134.34 7.63467 134.233 8.104L133.673 10.616C133.63 10.7867 133.598 10.9467 133.577 11.096C133.566 11.2347 133.561 11.352 133.561 11.448C133.561 11.832 133.726 12.024 134.057 12.024C134.228 12.024 134.398 11.992 134.569 11.928V12.952C134.484 12.9947 134.345 13.0373 134.153 13.08C133.961 13.1333 133.774 13.16 133.593 13.16C132.633 13.16 132.153 12.632 132.153 11.576H132.105C131.742 12.0133 131.342 12.3867 130.905 12.696C130.468 13.0053 129.961 13.16 129.385 13.16ZM129.865 11.992C130.249 11.992 130.622 11.8533 130.985 11.576C131.358 11.288 131.689 10.904 131.977 10.424C132.276 9.93333 132.51 9.384 132.681 8.776C132.766 8.46667 132.82 8.17867 132.841 7.912C132.873 7.63467 132.889 7.384 132.889 7.16C132.889 6.65867 132.75 6.248 132.473 5.928C132.206 5.608 131.838 5.448 131.369 5.448C130.953 5.448 130.569 5.58133 130.217 5.848C129.865 6.104 129.561 6.456 129.305 6.904C129.049 7.352 128.852 7.864 128.713 8.44C128.574 9.016 128.505 9.61867 128.505 10.248C128.505 10.8347 128.622 11.272 128.857 11.56C129.102 11.848 129.438 11.992 129.865 11.992ZM143.897 7.24L143.113 5.096L141.641 6.84L140.713 5.912L142.553 4.488L140.409 3.624L141.017 2.472L142.921 3.768L143.097 1.464L144.377 1.688L143.753 3.912L145.977 3.32L146.169 4.616L143.849 4.712L145.065 6.664L143.897 7.24ZM160.67 13H158.526L157.87 3.992L153.549 13H151.342L151.31 1.528H152.782L152.75 11.688L157.646 1.528H159.054L159.806 11.592L164.094 1.528H165.582L160.67 13ZM169.866 6.104C169.258 6.072 168.698 6.184 168.186 6.44C167.684 6.68533 167.295 7.112 167.018 7.72L165.898 13H164.522L166.282 4.696H167.482L167.242 6.504H167.274C167.54 5.928 167.919 5.45867 168.41 5.096C168.9 4.73333 169.492 4.54667 170.186 4.536L169.866 6.104ZM172.96 3.48C172.715 3.48 172.502 3.38933 172.32 3.208C172.139 3.02667 172.048 2.81333 172.048 2.568C172.048 2.312 172.139 2.09333 172.32 1.912C172.502 1.73067 172.715 1.64 172.96 1.64C173.216 1.64 173.435 1.73067 173.616 1.912C173.798 2.09333 173.888 2.312 173.888 2.568C173.888 2.81333 173.798 3.02667 173.616 3.208C173.435 3.38933 173.216 3.48 172.96 3.48ZM173.376 4.696L171.616 13H170.24L172 4.696H173.376ZM177.866 12.952C177.524 13.0907 177.135 13.16 176.698 13.16C176.271 13.16 175.908 13.096 175.61 12.968C175.311 12.8293 175.076 12.6427 174.906 12.408C174.746 12.1627 174.644 11.88 174.602 11.56C174.559 11.2293 174.58 10.872 174.666 10.488L175.674 5.832H174.698L174.954 4.696H175.914L176.298 2.952H177.674L177.29 4.696H179.674L179.418 5.832H177.05L176.026 10.568C175.812 11.496 176.132 11.96 176.986 11.96C177.178 11.96 177.37 11.9493 177.562 11.928C177.754 11.896 177.924 11.8533 178.074 11.8L177.866 12.952ZM186.146 12.696C185.911 12.8027 185.602 12.904 185.218 13C184.834 13.1067 184.364 13.16 183.81 13.16C183.191 13.16 182.631 13.0853 182.13 12.936C181.628 12.776 181.202 12.536 180.85 12.216C180.498 11.896 180.226 11.496 180.034 11.016C179.842 10.536 179.746 9.976 179.746 9.336C179.746 8.62133 179.858 7.97067 180.082 7.384C180.316 6.79733 180.626 6.296 181.01 5.88C181.404 5.45333 181.863 5.12267 182.386 4.888C182.919 4.65333 183.49 4.536 184.098 4.536C184.706 4.536 185.239 4.648 185.698 4.872C186.156 5.096 186.514 5.416 186.77 5.832C187.036 6.23733 187.186 6.728 187.218 7.304C187.25 7.88 187.143 8.52 186.898 9.224H181.154V9.32C181.154 10.2267 181.388 10.8933 181.858 11.32C182.327 11.7467 183.015 11.96 183.922 11.96C184.402 11.96 184.855 11.912 185.282 11.816C185.719 11.72 186.092 11.6133 186.402 11.496L186.146 12.696ZM183.986 5.736C183.314 5.736 182.743 5.944 182.274 6.36C181.815 6.776 181.495 7.336 181.314 8.04H185.858C185.922 7.656 185.916 7.32 185.842 7.032C185.778 6.744 185.655 6.504 185.474 6.312C185.303 6.12 185.09 5.976 184.834 5.88C184.578 5.784 184.295 5.736 183.986 5.736ZM192.227 1.528L189.779 13H188.291L190.739 1.528H192.227ZM197.52 13.16C196.816 13.16 196.171 13.048 195.584 12.824C195.008 12.5893 194.507 12.2587 194.08 11.832C193.664 11.3947 193.339 10.8613 193.104 10.232C192.87 9.592 192.752 8.86667 192.752 8.056C192.752 7.11733 192.896 6.24267 193.184 5.432C193.483 4.62133 193.888 3.91733 194.4 3.32C194.912 2.72267 195.52 2.25333 196.224 1.912C196.928 1.56 197.691 1.384 198.512 1.384C199.216 1.384 199.862 1.50133 200.448 1.736C201.035 1.96 201.536 2.29067 201.952 2.728C202.379 3.15467 202.71 3.688 202.944 4.328C203.179 4.95733 203.296 5.67733 203.296 6.488C203.296 7.42667 203.147 8.30133 202.848 9.112C202.56 9.92267 202.155 10.632 201.632 11.24C201.12 11.8373 200.512 12.3067 199.808 12.648C199.104 12.9893 198.342 13.16 197.52 13.16ZM194.32 8.12C194.32 8.77067 194.4 9.33067 194.56 9.8C194.731 10.2693 194.96 10.6587 195.248 10.968C195.547 11.2667 195.894 11.4907 196.288 11.64C196.694 11.7787 197.131 11.848 197.6 11.848C198.23 11.848 198.795 11.704 199.296 11.416C199.808 11.1173 200.246 10.7173 200.608 10.216C200.971 9.71467 201.248 9.13867 201.44 8.488C201.632 7.83733 201.728 7.14933 201.728 6.424C201.728 5.77333 201.643 5.21333 201.472 4.744C201.312 4.27467 201.088 3.89067 200.8 3.592C200.512 3.28267 200.166 3.05867 199.76 2.92C199.366 2.77067 198.934 2.696 198.464 2.696C197.835 2.696 197.264 2.84533 196.752 3.144C196.24 3.432 195.803 3.82667 195.44 4.328C195.078 4.82933 194.8 5.41067 194.608 6.072C194.416 6.72267 194.32 7.40533 194.32 8.12ZM206.27 1.528H209.838C210.894 1.528 211.737 1.77867 212.366 2.28C213.006 2.78133 213.326 3.54933 213.326 4.584C213.326 5.21333 213.214 5.77333 212.99 6.264C212.766 6.75467 212.457 7.17067 212.062 7.512C211.668 7.84267 211.198 8.09867 210.654 8.28C210.11 8.45067 209.524 8.536 208.894 8.536H206.27L205.31 13H203.822L206.27 1.528ZM207.486 2.84L206.542 7.24H209.214C209.972 7.24 210.585 7.02667 211.054 6.6C211.534 6.16267 211.774 5.52267 211.774 4.68C211.774 4.008 211.588 3.53333 211.214 3.256C210.852 2.97867 210.334 2.84 209.662 2.84H207.486ZM217.489 13.16C216.935 13.16 216.428 13.112 215.969 13.016C215.521 12.9307 215.127 12.8187 214.785 12.68C214.444 12.5307 214.151 12.3653 213.905 12.184C213.671 12.0027 213.489 11.8267 213.361 11.656L213.633 10.36C213.985 10.7653 214.503 11.1173 215.185 11.416C215.879 11.704 216.673 11.848 217.569 11.848C219.308 11.848 220.177 11.2027 220.177 9.912C220.177 9.63467 220.129 9.4 220.033 9.208C219.948 9.00533 219.809 8.82933 219.617 8.68C219.436 8.52 219.207 8.38133 218.929 8.264C218.652 8.136 218.327 8.00267 217.953 7.864C217.58 7.72533 217.201 7.576 216.817 7.416C216.444 7.24533 216.103 7.04267 215.793 6.808C215.495 6.56267 215.249 6.264 215.057 5.912C214.876 5.54933 214.785 5.10667 214.785 4.584C214.785 3.61333 215.143 2.84 215.857 2.264C216.583 1.67733 217.596 1.384 218.897 1.384C219.729 1.384 220.428 1.496 220.993 1.72C221.569 1.93333 222.001 2.16267 222.289 2.408L222.017 3.704C221.58 3.36267 221.095 3.112 220.561 2.952C220.039 2.78133 219.484 2.696 218.897 2.696C217.991 2.696 217.319 2.86667 216.881 3.208C216.444 3.53867 216.225 3.97067 216.225 4.504C216.225 4.81333 216.295 5.07467 216.433 5.288C216.572 5.49067 216.748 5.66667 216.961 5.816C217.185 5.95467 217.431 6.07733 217.697 6.184C217.975 6.29067 218.252 6.39733 218.529 6.504C218.924 6.64267 219.308 6.79733 219.681 6.968C220.055 7.128 220.385 7.33067 220.673 7.576C220.972 7.82133 221.212 8.12533 221.393 8.488C221.575 8.84 221.665 9.27733 221.665 9.8C221.665 10.8347 221.313 11.656 220.609 12.264C219.905 12.8613 218.865 13.16 217.489 13.16ZM231.01 8.168L230.306 11.528H228.978L229.698 8.168H226.498L226.738 7.048H229.938L230.641 3.672H231.97L231.266 7.048H234.466L234.21 8.168H231.01ZM240.458 15.224C240.202 14.936 239.957 14.616 239.722 14.264C239.498 13.912 239.295 13.512 239.114 13.064C238.943 12.616 238.805 12.12 238.698 11.576C238.602 11.0213 238.554 10.408 238.554 9.736C238.554 8.76533 238.645 7.848 238.826 6.984C239.018 6.10933 239.295 5.29867 239.658 4.552C240.031 3.79467 240.49 3.112 241.034 2.504C241.589 1.88533 242.223 1.352 242.938 0.903999H244.602C243.93 1.288 243.306 1.77867 242.73 2.376C242.165 2.97333 241.669 3.656 241.242 4.424C240.815 5.18133 240.479 6.01867 240.234 6.936C239.999 7.84267 239.882 8.79733 239.882 9.8C239.882 10.4613 239.941 11.0693 240.058 11.624C240.186 12.1787 240.341 12.68 240.522 13.128C240.714 13.5867 240.922 13.9867 241.146 14.328C241.381 14.68 241.605 14.9787 241.818 15.224H240.458ZM247.751 13H246.327L248.375 3.336L244.727 5.768L245.079 4.152L248.983 1.528H250.183L247.751 13ZM256.591 7.48H260.351L260.095 8.76H256.319L256.591 7.48ZM267.588 13.16C266.905 13.16 266.345 12.9147 265.908 12.424C265.481 11.9333 265.268 11.2027 265.268 10.232C265.268 9.42133 265.369 8.65867 265.572 7.944C265.775 7.21867 266.057 6.584 266.42 6.04C266.793 5.48533 267.231 5.05333 267.732 4.744C268.244 4.424 268.804 4.264 269.412 4.264C270.02 4.264 270.495 4.408 270.836 4.696C271.188 4.984 271.449 5.33067 271.62 5.736H271.7C271.785 5.55467 271.897 5.336 272.036 5.08C272.175 4.81333 272.324 4.59467 272.484 4.424H273.636C273.519 4.648 273.385 4.96267 273.236 5.368C273.097 5.76267 272.953 6.2 272.804 6.68C272.665 7.16 272.543 7.63467 272.436 8.104L271.876 10.616C271.833 10.7867 271.801 10.9467 271.78 11.096C271.769 11.2347 271.764 11.352 271.764 11.448C271.764 11.832 271.929 12.024 272.26 12.024C272.431 12.024 272.601 11.992 272.772 11.928V12.952C272.687 12.9947 272.548 13.0373 272.356 13.08C272.164 13.1333 271.977 13.16 271.796 13.16C270.836 13.16 270.356 12.632 270.356 11.576H270.308C269.945 12.0133 269.545 12.3867 269.108 12.696C268.671 13.0053 268.164 13.16 267.588 13.16ZM268.068 11.992C268.452 11.992 268.825 11.8533 269.188 11.576C269.561 11.288 269.892 10.904 270.18 10.424C270.479 9.93333 270.713 9.384 270.884 8.776C270.969 8.46667 271.023 8.17867 271.044 7.912C271.076 7.63467 271.092 7.384 271.092 7.16C271.092 6.65867 270.953 6.248 270.676 5.928C270.409 5.608 270.041 5.448 269.572 5.448C269.156 5.448 268.772 5.58133 268.42 5.848C268.068 6.104 267.764 6.456 267.508 6.904C267.252 7.352 267.055 7.864 266.916 8.44C266.777 9.016 266.708 9.61867 266.708 10.248C266.708 10.8347 266.825 11.272 267.06 11.56C267.305 11.848 267.641 11.992 268.068 11.992ZM280.036 0.903999C280.292 1.192 280.532 1.512 280.756 1.864C280.991 2.216 281.193 2.616 281.364 3.064C281.545 3.512 281.684 4.01333 281.78 4.568C281.887 5.112 281.94 5.72 281.94 6.392C281.94 7.36267 281.844 8.28533 281.652 9.16C281.471 10.024 281.193 10.8347 280.82 11.592C280.457 12.3387 279.999 13.016 279.444 13.624C278.9 14.2427 278.271 14.776 277.556 15.224H275.892C276.564 14.84 277.183 14.3493 277.748 13.752C278.324 13.1547 278.825 12.4773 279.252 11.72C279.679 10.952 280.009 10.1147 280.244 9.208C280.489 8.29067 280.612 7.33067 280.612 6.328C280.612 5.66667 280.548 5.05867 280.42 4.504C280.303 3.94933 280.148 3.448 279.956 3C279.775 2.54133 279.567 2.14133 279.332 1.8C279.108 1.448 278.889 1.14933 278.676 0.903999H280.036ZM290.412 7.24L289.628 5.096L288.156 6.84L287.228 5.912L289.068 4.488L286.924 3.624L287.532 2.472L289.436 3.768L289.612 1.464L290.892 1.688L290.268 3.912L292.492 3.32L292.684 4.616L290.364 4.712L291.58 6.664L290.412 7.24ZM298.817 1.528H302.321C303.505 1.528 304.412 1.77867 305.041 2.28C305.67 2.78133 305.985 3.55467 305.985 4.6C305.985 5.112 305.905 5.576 305.745 5.992C305.585 6.408 305.356 6.77067 305.057 7.08C304.758 7.38933 304.401 7.64533 303.985 7.848C303.58 8.05067 303.121 8.18933 302.609 8.264L304.609 13H303.041L301.105 8.344H298.849L297.857 13H296.369L298.817 1.528ZM300.033 2.84L299.121 7.048H301.761C302.145 7.048 302.502 7 302.833 6.904C303.164 6.79733 303.446 6.648 303.681 6.456C303.926 6.25333 304.118 6.00267 304.257 5.704C304.396 5.40533 304.465 5.064 304.465 4.68C304.465 3.99733 304.257 3.52267 303.841 3.256C303.436 2.97867 302.865 2.84 302.129 2.84H300.033ZM312.833 12.696C312.598 12.8027 312.289 12.904 311.905 13C311.521 13.1067 311.052 13.16 310.497 13.16C309.878 13.16 309.318 13.0853 308.817 12.936C308.316 12.776 307.889 12.536 307.537 12.216C307.185 11.896 306.913 11.496 306.721 11.016C306.529 10.536 306.433 9.976 306.433 9.336C306.433 8.62133 306.545 7.97067 306.769 7.384C307.004 6.79733 307.313 6.296 307.697 5.88C308.092 5.45333 308.55 5.12267 309.073 4.888C309.606 4.65333 310.177 4.536 310.785 4.536C311.393 4.536 311.926 4.648 312.385 4.872C312.844 5.096 313.201 5.416 313.457 5.832C313.724 6.23733 313.873 6.728 313.905 7.304C313.937 7.88 313.83 8.52 313.585 9.224H307.841V9.32C307.841 10.2267 308.076 10.8933 308.545 11.32C309.014 11.7467 309.702 11.96 310.609 11.96C311.089 11.96 311.542 11.912 311.969 11.816C312.406 11.72 312.78 11.6133 313.089 11.496L312.833 12.696ZM310.673 5.736C310.001 5.736 309.43 5.944 308.961 6.36C308.502 6.776 308.182 7.336 308.001 8.04H312.545C312.609 7.656 312.604 7.32 312.529 7.032C312.465 6.744 312.342 6.504 312.161 6.312C311.99 6.12 311.777 5.976 311.521 5.88C311.265 5.784 310.982 5.736 310.673 5.736ZM319.558 13C319.558 12.8827 319.564 12.696 319.574 12.44C319.596 12.1733 319.633 11.8907 319.686 11.592C319.569 11.784 319.43 11.976 319.27 12.168C319.121 12.36 318.94 12.5307 318.726 12.68C318.524 12.8187 318.289 12.9307 318.022 13.016C317.766 13.112 317.478 13.16 317.158 13.16C316.87 13.16 316.582 13.1173 316.294 13.032C316.006 12.9573 315.745 12.8293 315.51 12.648C315.286 12.456 315.1 12.216 314.95 11.928C314.801 11.6293 314.726 11.272 314.726 10.856C314.726 9.98133 315.057 9.29867 315.718 8.808C316.38 8.31733 317.329 8.072 318.566 8.072H320.406L320.438 7.96C320.534 7.52267 320.55 7.16 320.486 6.872C320.433 6.584 320.316 6.36 320.134 6.2C319.964 6.02933 319.74 5.912 319.462 5.848C319.185 5.77333 318.881 5.736 318.55 5.736C318.07 5.736 317.633 5.784 317.238 5.88C316.844 5.976 316.46 6.12 316.086 6.312L316.326 5.128C316.636 4.94667 316.998 4.80267 317.414 4.696C317.841 4.58933 318.326 4.536 318.87 4.536C319.393 4.536 319.862 4.6 320.278 4.728C320.705 4.856 321.052 5.064 321.318 5.352C321.596 5.64 321.777 6.01333 321.862 6.472C321.948 6.93067 321.921 7.48533 321.782 8.136L321.014 11.656C320.993 11.7307 320.972 11.832 320.95 11.96C320.94 12.0773 320.924 12.2053 320.902 12.344C320.881 12.472 320.86 12.5947 320.838 12.712C320.828 12.8293 320.822 12.9253 320.822 13H319.558ZM317.462 12.04C317.836 12.04 318.166 11.9707 318.454 11.832C318.742 11.6827 318.988 11.5067 319.19 11.304C319.404 11.0907 319.574 10.8773 319.702 10.664C319.83 10.44 319.921 10.2533 319.974 10.104L320.182 9.128H318.454C317.612 9.128 317.009 9.28267 316.646 9.592C316.284 9.90133 316.102 10.296 316.102 10.776C316.102 11.192 316.22 11.5067 316.454 11.72C316.7 11.9333 317.036 12.04 317.462 12.04ZM328.976 11.848C328.667 12.232 328.294 12.5467 327.856 12.792C327.419 13.0373 326.912 13.16 326.336 13.16C325.856 13.16 325.419 13.08 325.024 12.92C324.63 12.7493 324.294 12.5093 324.016 12.2C323.739 11.88 323.52 11.496 323.36 11.048C323.211 10.5893 323.136 10.072 323.136 9.496C323.136 8.87733 323.227 8.26933 323.408 7.672C323.6 7.07467 323.872 6.54667 324.224 6.088C324.587 5.61867 325.024 5.24533 325.536 4.968C326.059 4.68 326.656 4.536 327.328 4.536C328 4.536 328.571 4.68533 329.04 4.984C329.51 5.28267 329.856 5.704 330.08 6.248L331.072 1.528H332.464L330.016 13H328.816L328.976 11.848ZM329.52 8.184C329.52 7.36267 329.323 6.74933 328.928 6.344C328.544 5.93867 328.027 5.736 327.376 5.736C326.896 5.736 326.48 5.83733 326.128 6.04C325.787 6.232 325.499 6.49333 325.264 6.824C325.04 7.15467 324.87 7.53867 324.752 7.976C324.646 8.41333 324.592 8.86667 324.592 9.336C324.592 10.232 324.784 10.8933 325.168 11.32C325.552 11.7467 326.059 11.96 326.688 11.96C327.19 11.96 327.616 11.848 327.968 11.624C328.331 11.3893 328.624 11.0907 328.848 10.728C329.083 10.3653 329.254 9.96 329.36 9.512C329.467 9.064 329.52 8.62133 329.52 8.184ZM336.383 1.528L333.935 13H332.447L334.895 1.528H336.383ZM341.677 13.16C340.973 13.16 340.327 13.048 339.741 12.824C339.165 12.5893 338.663 12.2587 338.237 11.832C337.821 11.3947 337.495 10.8613 337.261 10.232C337.026 9.592 336.909 8.86667 336.909 8.056C336.909 7.11733 337.053 6.24267 337.341 5.432C337.639 4.62133 338.045 3.91733 338.557 3.32C339.069 2.72267 339.677 2.25333 340.381 1.912C341.085 1.56 341.847 1.384 342.669 1.384C343.373 1.384 344.018 1.50133 344.605 1.736C345.191 1.96 345.693 2.29067 346.109 2.728C346.535 3.15467 346.866 3.688 347.101 4.328C347.335 4.95733 347.453 5.67733 347.453 6.488C347.453 7.42667 347.303 8.30133 347.005 9.112C346.717 9.92267 346.311 10.632 345.789 11.24C345.277 11.8373 344.669 12.3067 343.965 12.648C343.261 12.9893 342.498 13.16 341.677 13.16ZM338.477 8.12C338.477 8.77067 338.557 9.33067 338.717 9.8C338.887 10.2693 339.117 10.6587 339.405 10.968C339.703 11.2667 340.05 11.4907 340.445 11.64C340.85 11.7787 341.287 11.848 341.757 11.848C342.386 11.848 342.951 11.704 343.453 11.416C343.965 11.1173 344.402 10.7173 344.765 10.216C345.127 9.71467 345.405 9.13867 345.597 8.488C345.789 7.83733 345.885 7.14933 345.885 6.424C345.885 5.77333 345.799 5.21333 345.629 4.744C345.469 4.27467 345.245 3.89067 344.957 3.592C344.669 3.28267 344.322 3.05867 343.917 2.92C343.522 2.77067 343.09 2.696 342.621 2.696C341.991 2.696 341.421 2.84533 340.909 3.144C340.397 3.432 339.959 3.82667 339.597 4.328C339.234 4.82933 338.957 5.41067 338.765 6.072C338.573 6.72267 338.477 7.40533 338.477 8.12ZM350.427 1.528H353.995C355.051 1.528 355.893 1.77867 356.523 2.28C357.163 2.78133 357.483 3.54933 357.483 4.584C357.483 5.21333 357.371 5.77333 357.147 6.264C356.923 6.75467 356.613 7.17067 356.219 7.512C355.824 7.84267 355.355 8.09867 354.811 8.28C354.267 8.45067 353.68 8.536 353.051 8.536H350.427L349.467 13H347.979L350.427 1.528ZM351.643 2.84L350.699 7.24H353.371C354.128 7.24 354.741 7.02667 355.211 6.6C355.691 6.16267 355.931 5.52267 355.931 4.68C355.931 4.008 355.744 3.53333 355.371 3.256C355.008 2.97867 354.491 2.84 353.819 2.84H351.643ZM361.646 13.16C361.091 13.16 360.584 13.112 360.126 13.016C359.678 12.9307 359.283 12.8187 358.942 12.68C358.6 12.5307 358.307 12.3653 358.062 12.184C357.827 12.0027 357.646 11.8267 357.518 11.656L357.79 10.36C358.142 10.7653 358.659 11.1173 359.342 11.416C360.035 11.704 360.83 11.848 361.726 11.848C363.464 11.848 364.334 11.2027 364.334 9.912C364.334 9.63467 364.286 9.4 364.19 9.208C364.104 9.00533 363.966 8.82933 363.774 8.68C363.592 8.52 363.363 8.38133 363.086 8.264C362.808 8.136 362.483 8.00267 362.11 7.864C361.736 7.72533 361.358 7.576 360.974 7.416C360.6 7.24533 360.259 7.04267 359.95 6.808C359.651 6.56267 359.406 6.264 359.214 5.912C359.032 5.54933 358.942 5.10667 358.942 4.584C358.942 3.61333 359.299 2.84 360.014 2.264C360.739 1.67733 361.752 1.384 363.054 1.384C363.886 1.384 364.584 1.496 365.15 1.72C365.726 1.93333 366.158 2.16267 366.446 2.408L366.174 3.704C365.736 3.36267 365.251 3.112 364.718 2.952C364.195 2.78133 363.64 2.696 363.054 2.696C362.147 2.696 361.475 2.86667 361.038 3.208C360.6 3.53867 360.382 3.97067 360.382 4.504C360.382 4.81333 360.451 5.07467 360.59 5.288C360.728 5.49067 360.904 5.66667 361.118 5.816C361.342 5.95467 361.587 6.07733 361.854 6.184C362.131 6.29067 362.408 6.39733 362.686 6.504C363.08 6.64267 363.464 6.79733 363.838 6.968C364.211 7.128 364.542 7.33067 364.83 7.576C365.128 7.82133 365.368 8.12533 365.55 8.488C365.731 8.84 365.822 9.27733 365.822 9.8C365.822 10.8347 365.47 11.656 364.766 12.264C364.062 12.8613 363.022 13.16 361.646 13.16Z" fill="currentColor" fill-opacity="0.7"/>
</svg>
