<svg width="700" height="400" viewBox="0 0 700 400" fill="none" xmlns="http://www.w3.org/2000/svg">
<rect x="276" y="377" width="148" height="20" rx="5" fill="white"/>
<rect x="3" y="3" width="694" height="326" rx="9" fill="white" stroke="#5282FF" stroke-width="2"/>
<path d="M554 290L548.226 300L559.774 300L554 290ZM553 299L553 362L555 362L555 299L553 299ZM546 369L262 369L262 371L546 371L546 369ZM553 362C553 365.866 549.866 369 546 369L546 371C550.971 371 555 366.971 555 362L553 362Z" fill="#4E496B"/>
<path d="M146 290L151.774 300L140.226 300L146 290ZM147 299L147 362L145 362L145 299L147 299ZM154 369L438 369L438 371L154 371L154 369ZM147 362C147 365.866 150.134 369 154 369L154 371C149.029 371 145 366.971 145 362L147 362Z" fill="#4E496B"/>
<path d="M350 290L344.226 300L355.774 300L350 290ZM349 299L349 370L351 370L351 299L349 299Z" fill="#4E496B"/>
<g filter="url(#filter0_d_28_151)">
<rect x="16" y="42" width="260" height="248" rx="10" fill="white"/>
</g>
<g filter="url(#filter1_d_28_151)">
<rect x="288" y="42" width="124" height="248" rx="10" fill="white"/>
</g>
<rect x="303" y="83" width="94" height="92" rx="9" fill="white" stroke="#5282FF" stroke-width="2"/>
<path d="M333.588 97.396H336.468C337.476 97.396 338.248 97.596 338.784 97.996C339.32 98.388 339.588 99.008 339.588 99.856C339.588 100.608 339.408 101.184 339.048 101.584C338.688 101.976 338.208 102.24 337.608 102.376L339.948 106H338.676L336.432 102.508H336.36H334.716V106H333.588V97.396ZM336.36 101.488C336.976 101.488 337.472 101.368 337.848 101.128C338.224 100.888 338.412 100.456 338.412 99.832C338.412 99.32 338.24 98.96 337.896 98.752C337.56 98.536 337.084 98.428 336.468 98.428H334.716V101.488H336.36ZM343.255 100.588C342.591 100.588 341.919 100.792 341.239 101.2V100.252C341.535 100.068 341.875 99.924 342.259 99.82C342.651 99.708 343.031 99.652 343.399 99.652C344.183 99.652 344.779 99.816 345.187 100.144C345.595 100.472 345.799 100.972 345.799 101.644V104.992C345.799 105.128 345.803 105.304 345.811 105.52C345.827 105.728 345.843 105.888 345.859 106H344.899C344.875 105.888 344.851 105.732 344.827 105.532C344.811 105.324 344.803 105.144 344.803 104.992L344.791 104.812C344.695 105.004 344.563 105.204 344.395 105.412C344.227 105.612 344.003 105.78 343.723 105.916C343.451 106.052 343.111 106.12 342.703 106.12C342.143 106.12 341.691 105.96 341.347 105.64C341.003 105.32 340.831 104.868 340.831 104.284C340.831 103.604 341.071 103.104 341.551 102.784C342.031 102.464 342.707 102.304 343.579 102.304H344.743V101.788C344.743 101.356 344.631 101.048 344.407 100.864C344.183 100.68 343.799 100.588 343.255 100.588ZM344.743 103.6V103.144H343.687C343.055 103.144 342.595 103.236 342.307 103.42C342.027 103.604 341.887 103.872 341.887 104.224C341.887 104.504 341.971 104.732 342.139 104.908C342.315 105.084 342.579 105.172 342.931 105.172C343.259 105.172 343.539 105.108 343.771 104.98C344.003 104.844 344.191 104.684 344.335 104.5C344.479 104.308 344.583 104.128 344.647 103.96C344.711 103.792 344.743 103.672 344.743 103.6ZM350.148 106.12C349.18 106.12 348.416 105.836 347.856 105.268C347.296 104.692 347.016 103.896 347.016 102.88C347.016 101.864 347.3 101.072 347.868 100.504C348.436 99.936 349.212 99.652 350.196 99.652C350.572 99.652 350.924 99.696 351.252 99.784C351.58 99.864 351.844 99.984 352.044 100.144V101.092C351.5 100.756 350.888 100.588 350.208 100.588C349.488 100.588 348.956 100.78 348.612 101.164C348.268 101.54 348.096 102.112 348.096 102.88C348.096 103.648 348.26 104.224 348.588 104.608C348.924 104.984 349.444 105.172 350.148 105.172C350.828 105.172 351.46 105.008 352.044 104.68V105.628C351.524 105.956 350.892 106.12 350.148 106.12ZM358.419 106H357.135L354.939 103.348H354.387V106H353.331V97.396H354.387V102.448H354.987L357.171 99.772H358.371L355.815 102.844L358.419 106ZM362.814 102.016V100.996H363.966C364.414 100.996 364.778 100.876 365.058 100.636C365.346 100.388 365.49 100.04 365.49 99.592C365.49 99.184 365.358 98.864 365.094 98.632C364.83 98.392 364.45 98.272 363.954 98.272C363.538 98.272 363.146 98.348 362.778 98.5C362.418 98.652 362.042 98.896 361.65 99.232V98.056C362.29 97.536 363.062 97.276 363.966 97.276C364.79 97.276 365.434 97.484 365.898 97.9C366.37 98.316 366.606 98.86 366.606 99.532C366.606 100.076 366.454 100.508 366.15 100.828C365.854 101.148 365.498 101.36 365.082 101.464C365.418 101.512 365.726 101.628 366.006 101.812C366.294 101.988 366.526 102.22 366.702 102.508C366.878 102.796 366.966 103.132 366.966 103.516C366.966 104.044 366.834 104.504 366.57 104.896C366.306 105.288 365.942 105.592 365.478 105.808C365.022 106.016 364.49 106.12 363.882 106.12C362.826 106.12 362.01 105.876 361.434 105.388V104.188C361.738 104.484 362.106 104.716 362.538 104.884C362.97 105.052 363.422 105.136 363.894 105.136C364.486 105.136 364.95 104.996 365.286 104.716C365.63 104.428 365.802 104.036 365.802 103.54C365.802 103.06 365.646 102.688 365.334 102.424C365.03 102.152 364.558 102.016 363.918 102.016H362.814Z" fill="black" fill-opacity="0.85"/>
<rect x="315" y="122" width="70" height="40" rx="10" fill="#E3EBFF"/>
<path d="M335.006 137.396H337.898C338.474 137.396 339.01 137.464 339.506 137.6C340.002 137.736 340.434 137.96 340.802 138.272C341.17 138.576 341.458 138.984 341.666 139.496C341.874 140.008 341.978 140.644 341.978 141.404C341.978 142.412 341.794 143.26 341.426 143.948C341.066 144.628 340.57 145.14 339.938 145.484C339.306 145.828 338.582 146 337.766 146H335.006V137.396ZM337.766 144.98C338.358 144.98 338.878 144.86 339.326 144.62C339.774 144.372 340.122 143.992 340.37 143.48C340.626 142.96 340.754 142.296 340.754 141.488C340.754 140.68 340.63 140.056 340.382 139.616C340.134 139.176 339.794 138.868 339.362 138.692C338.938 138.516 338.45 138.428 337.898 138.428H336.134V144.98H337.766ZM343.875 138.86C343.659 138.86 343.487 138.796 343.359 138.668C343.231 138.532 343.167 138.368 343.167 138.176C343.167 137.984 343.231 137.82 343.359 137.684C343.487 137.548 343.659 137.48 343.875 137.48C344.083 137.48 344.247 137.548 344.367 137.684C344.487 137.82 344.547 137.984 344.547 138.176C344.547 138.368 344.487 138.532 344.367 138.668C344.247 138.796 344.083 138.86 343.875 138.86ZM343.335 139.772H344.391V146H343.335V139.772ZM348.104 146.12C347.648 146.12 347.212 146.056 346.796 145.928C346.388 145.792 346.056 145.612 345.8 145.388V144.44C346.048 144.68 346.38 144.872 346.796 145.016C347.22 145.16 347.652 145.232 348.092 145.232C349.068 145.232 349.556 144.916 349.556 144.284C349.556 144.1 349.512 143.952 349.424 143.84C349.344 143.72 349.192 143.62 348.968 143.54C348.744 143.452 348.42 143.368 347.996 143.288C347.188 143.128 346.624 142.912 346.304 142.64C345.984 142.36 345.824 141.964 345.824 141.452C345.824 140.884 346.044 140.444 346.484 140.132C346.924 139.812 347.532 139.652 348.308 139.652C348.676 139.652 349.036 139.692 349.388 139.772C349.748 139.844 350.04 139.944 350.264 140.072V141.02C349.8 140.7 349.16 140.54 348.344 140.54C347.84 140.54 347.468 140.612 347.228 140.756C346.996 140.9 346.88 141.124 346.88 141.428C346.88 141.588 346.916 141.72 346.988 141.824C347.06 141.928 347.204 142.02 347.42 142.1C347.636 142.18 347.96 142.264 348.392 142.352C348.944 142.464 349.38 142.6 349.7 142.76C350.028 142.912 350.26 143.108 350.396 143.348C350.54 143.588 350.612 143.892 350.612 144.26C350.612 144.844 350.392 145.3 349.952 145.628C349.512 145.956 348.896 146.12 348.104 146.12ZM357.001 146H355.717L353.521 143.348H352.969V146H351.913V137.396H352.969V142.448H353.569L355.753 139.772H356.953L354.397 142.844L357.001 146ZM365.668 143.18C365.668 143.764 365.54 144.28 365.284 144.728C365.036 145.168 364.696 145.512 364.264 145.76C363.832 146 363.348 146.12 362.812 146.12C362.092 146.12 361.512 145.96 361.072 145.64C360.632 145.32 360.308 144.876 360.1 144.308C359.9 143.74 359.8 143.088 359.8 142.352C359.8 141.344 359.92 140.46 360.16 139.7C360.408 138.94 360.784 138.348 361.288 137.924C361.8 137.492 362.456 137.276 363.256 137.276C363.944 137.276 364.548 137.424 365.068 137.72V138.788C364.548 138.436 363.944 138.26 363.256 138.26C362.76 138.26 362.344 138.396 362.008 138.668C361.672 138.94 361.408 139.312 361.216 139.784C361.032 140.248 360.92 140.772 360.88 141.356C361.144 140.996 361.448 140.728 361.792 140.552C362.136 140.376 362.512 140.288 362.92 140.288C363.44 140.288 363.904 140.4 364.312 140.624C364.728 140.848 365.056 141.176 365.296 141.608C365.544 142.032 365.668 142.556 365.668 143.18ZM362.776 145.16C363.088 145.16 363.376 145.088 363.64 144.944C363.904 144.792 364.116 144.572 364.276 144.284C364.444 143.996 364.528 143.636 364.528 143.204C364.528 142.772 364.448 142.408 364.288 142.112C364.128 141.816 363.924 141.596 363.676 141.452C363.428 141.3 363.168 141.224 362.896 141.224C362.368 141.224 361.924 141.396 361.564 141.74C361.212 142.076 361.036 142.572 361.036 143.228C361.036 143.804 361.192 144.272 361.504 144.632C361.816 144.984 362.24 145.16 362.776 145.16Z" fill="black" fill-opacity="0.85"/>
<rect x="167" y="83" width="94" height="142" rx="9" fill="white" stroke="#5282FF" stroke-width="2"/>
<path d="M199.006 97.396H201.898C202.474 97.396 203.01 97.464 203.506 97.6C204.002 97.736 204.434 97.96 204.802 98.272C205.17 98.576 205.458 98.984 205.666 99.496C205.874 100.008 205.978 100.644 205.978 101.404C205.978 102.412 205.794 103.26 205.426 103.948C205.066 104.628 204.57 105.14 203.938 105.484C203.306 105.828 202.582 106 201.766 106H199.006V97.396ZM201.766 104.98C202.358 104.98 202.878 104.86 203.326 104.62C203.774 104.372 204.122 103.992 204.37 103.48C204.626 102.96 204.754 102.296 204.754 101.488C204.754 100.68 204.63 100.056 204.382 99.616C204.134 99.176 203.794 98.868 203.362 98.692C202.938 98.516 202.45 98.428 201.898 98.428H200.134V104.98H201.766ZM207.875 98.86C207.659 98.86 207.487 98.796 207.359 98.668C207.231 98.532 207.167 98.368 207.167 98.176C207.167 97.984 207.231 97.82 207.359 97.684C207.487 97.548 207.659 97.48 207.875 97.48C208.083 97.48 208.247 97.548 208.367 97.684C208.487 97.82 208.547 97.984 208.547 98.176C208.547 98.368 208.487 98.532 208.367 98.668C208.247 98.796 208.083 98.86 207.875 98.86ZM207.335 99.772H208.391V106H207.335V99.772ZM212.104 106.12C211.648 106.12 211.212 106.056 210.796 105.928C210.388 105.792 210.056 105.612 209.8 105.388V104.44C210.048 104.68 210.38 104.872 210.796 105.016C211.22 105.16 211.652 105.232 212.092 105.232C213.068 105.232 213.556 104.916 213.556 104.284C213.556 104.1 213.512 103.952 213.424 103.84C213.344 103.72 213.192 103.62 212.968 103.54C212.744 103.452 212.42 103.368 211.996 103.288C211.188 103.128 210.624 102.912 210.304 102.64C209.984 102.36 209.824 101.964 209.824 101.452C209.824 100.884 210.044 100.444 210.484 100.132C210.924 99.812 211.532 99.652 212.308 99.652C212.676 99.652 213.036 99.692 213.388 99.772C213.748 99.844 214.04 99.944 214.264 100.072V101.02C213.8 100.7 213.16 100.54 212.344 100.54C211.84 100.54 211.468 100.612 211.228 100.756C210.996 100.9 210.88 101.124 210.88 101.428C210.88 101.588 210.916 101.72 210.988 101.824C211.06 101.928 211.204 102.02 211.42 102.1C211.636 102.18 211.96 102.264 212.392 102.352C212.944 102.464 213.38 102.6 213.7 102.76C214.028 102.912 214.26 103.108 214.396 103.348C214.54 103.588 214.612 103.892 214.612 104.26C214.612 104.844 214.392 105.3 213.952 105.628C213.512 105.956 212.896 106.12 212.104 106.12ZM221.001 106H219.717L217.521 103.348H216.969V106H215.913V97.396H216.969V102.448H217.569L219.753 99.772H220.953L218.397 102.844L221.001 106ZM229.476 106H223.992V104.86C224.848 104.172 225.548 103.584 226.092 103.096C226.644 102.608 227.072 102.184 227.376 101.824C227.688 101.456 227.904 101.116 228.024 100.804C228.152 100.492 228.216 100.176 228.216 99.856C228.216 99.36 228.068 98.972 227.772 98.692C227.476 98.412 227.068 98.272 226.548 98.272C225.716 98.272 224.94 98.668 224.22 99.46V98.248C224.884 97.6 225.672 97.276 226.584 97.276C227.448 97.276 228.128 97.5 228.624 97.948C229.128 98.388 229.38 98.988 229.38 99.748C229.38 100.14 229.316 100.516 229.188 100.876C229.068 101.228 228.852 101.6 228.54 101.992C228.236 102.376 227.816 102.808 227.28 103.288C226.744 103.768 226.064 104.328 225.24 104.968H229.476V106Z" fill="black" fill-opacity="0.85"/>
<rect x="179" y="122" width="70" height="40" rx="10" fill="#E3EBFF"/>
<path d="M199.006 137.396H201.898C202.474 137.396 203.01 137.464 203.506 137.6C204.002 137.736 204.434 137.96 204.802 138.272C205.17 138.576 205.458 138.984 205.666 139.496C205.874 140.008 205.978 140.644 205.978 141.404C205.978 142.412 205.794 143.26 205.426 143.948C205.066 144.628 204.57 145.14 203.938 145.484C203.306 145.828 202.582 146 201.766 146H199.006V137.396ZM201.766 144.98C202.358 144.98 202.878 144.86 203.326 144.62C203.774 144.372 204.122 143.992 204.37 143.48C204.626 142.96 204.754 142.296 204.754 141.488C204.754 140.68 204.63 140.056 204.382 139.616C204.134 139.176 203.794 138.868 203.362 138.692C202.938 138.516 202.45 138.428 201.898 138.428H200.134V144.98H201.766ZM207.875 138.86C207.659 138.86 207.487 138.796 207.359 138.668C207.231 138.532 207.167 138.368 207.167 138.176C207.167 137.984 207.231 137.82 207.359 137.684C207.487 137.548 207.659 137.48 207.875 137.48C208.083 137.48 208.247 137.548 208.367 137.684C208.487 137.82 208.547 137.984 208.547 138.176C208.547 138.368 208.487 138.532 208.367 138.668C208.247 138.796 208.083 138.86 207.875 138.86ZM207.335 139.772H208.391V146H207.335V139.772ZM212.104 146.12C211.648 146.12 211.212 146.056 210.796 145.928C210.388 145.792 210.056 145.612 209.8 145.388V144.44C210.048 144.68 210.38 144.872 210.796 145.016C211.22 145.16 211.652 145.232 212.092 145.232C213.068 145.232 213.556 144.916 213.556 144.284C213.556 144.1 213.512 143.952 213.424 143.84C213.344 143.72 213.192 143.62 212.968 143.54C212.744 143.452 212.42 143.368 211.996 143.288C211.188 143.128 210.624 142.912 210.304 142.64C209.984 142.36 209.824 141.964 209.824 141.452C209.824 140.884 210.044 140.444 210.484 140.132C210.924 139.812 211.532 139.652 212.308 139.652C212.676 139.652 213.036 139.692 213.388 139.772C213.748 139.844 214.04 139.944 214.264 140.072V141.02C213.8 140.7 213.16 140.54 212.344 140.54C211.84 140.54 211.468 140.612 211.228 140.756C210.996 140.9 210.88 141.124 210.88 141.428C210.88 141.588 210.916 141.72 210.988 141.824C211.06 141.928 211.204 142.02 211.42 142.1C211.636 142.18 211.96 142.264 212.392 142.352C212.944 142.464 213.38 142.6 213.7 142.76C214.028 142.912 214.26 143.108 214.396 143.348C214.54 143.588 214.612 143.892 214.612 144.26C214.612 144.844 214.392 145.3 213.952 145.628C213.512 145.956 212.896 146.12 212.104 146.12ZM221.001 146H219.717L217.521 143.348H216.969V146H215.913V137.396H216.969V142.448H217.569L219.753 139.772H220.953L218.397 142.844L221.001 146ZM228.504 146H227.448V143.96H223.728V143.216L227.088 137.396H228.504V143.048H229.668V143.96H228.504V146ZM224.82 143.048H227.448V138.572L224.82 143.048Z" fill="black" fill-opacity="0.85"/>
<rect x="179" y="172" width="70" height="40" rx="10" fill="#E3EBFF"/>
<path d="M199.006 187.396H201.898C202.474 187.396 203.01 187.464 203.506 187.6C204.002 187.736 204.434 187.96 204.802 188.272C205.17 188.576 205.458 188.984 205.666 189.496C205.874 190.008 205.978 190.644 205.978 191.404C205.978 192.412 205.794 193.26 205.426 193.948C205.066 194.628 204.57 195.14 203.938 195.484C203.306 195.828 202.582 196 201.766 196H199.006V187.396ZM201.766 194.98C202.358 194.98 202.878 194.86 203.326 194.62C203.774 194.372 204.122 193.992 204.37 193.48C204.626 192.96 204.754 192.296 204.754 191.488C204.754 190.68 204.63 190.056 204.382 189.616C204.134 189.176 203.794 188.868 203.362 188.692C202.938 188.516 202.45 188.428 201.898 188.428H200.134V194.98H201.766ZM207.875 188.86C207.659 188.86 207.487 188.796 207.359 188.668C207.231 188.532 207.167 188.368 207.167 188.176C207.167 187.984 207.231 187.82 207.359 187.684C207.487 187.548 207.659 187.48 207.875 187.48C208.083 187.48 208.247 187.548 208.367 187.684C208.487 187.82 208.547 187.984 208.547 188.176C208.547 188.368 208.487 188.532 208.367 188.668C208.247 188.796 208.083 188.86 207.875 188.86ZM207.335 189.772H208.391V196H207.335V189.772ZM212.104 196.12C211.648 196.12 211.212 196.056 210.796 195.928C210.388 195.792 210.056 195.612 209.8 195.388V194.44C210.048 194.68 210.38 194.872 210.796 195.016C211.22 195.16 211.652 195.232 212.092 195.232C213.068 195.232 213.556 194.916 213.556 194.284C213.556 194.1 213.512 193.952 213.424 193.84C213.344 193.72 213.192 193.62 212.968 193.54C212.744 193.452 212.42 193.368 211.996 193.288C211.188 193.128 210.624 192.912 210.304 192.64C209.984 192.36 209.824 191.964 209.824 191.452C209.824 190.884 210.044 190.444 210.484 190.132C210.924 189.812 211.532 189.652 212.308 189.652C212.676 189.652 213.036 189.692 213.388 189.772C213.748 189.844 214.04 189.944 214.264 190.072V191.02C213.8 190.7 213.16 190.54 212.344 190.54C211.84 190.54 211.468 190.612 211.228 190.756C210.996 190.9 210.88 191.124 210.88 191.428C210.88 191.588 210.916 191.72 210.988 191.824C211.06 191.928 211.204 192.02 211.42 192.1C211.636 192.18 211.96 192.264 212.392 192.352C212.944 192.464 213.38 192.6 213.7 192.76C214.028 192.912 214.26 193.108 214.396 193.348C214.54 193.588 214.612 193.892 214.612 194.26C214.612 194.844 214.392 195.3 213.952 195.628C213.512 195.956 212.896 196.12 212.104 196.12ZM221.001 196H219.717L217.521 193.348H216.969V196H215.913V187.396H216.969V192.448H217.569L219.753 189.772H220.953L218.397 192.844L221.001 196ZM226.332 196.12C225.372 196.12 224.608 195.916 224.04 195.508V194.332C224.376 194.604 224.728 194.808 225.096 194.944C225.464 195.072 225.876 195.136 226.332 195.136C226.924 195.136 227.38 194.956 227.7 194.596C228.028 194.236 228.192 193.764 228.192 193.18C228.192 192.556 228.032 192.1 227.712 191.812C227.392 191.524 226.988 191.38 226.5 191.38C226.148 191.38 225.864 191.44 225.648 191.56C225.432 191.672 225.268 191.792 225.156 191.92H224.28V187.396H228.936V188.428H225.264V190.888C225.424 190.768 225.62 190.664 225.852 190.576C226.084 190.48 226.36 190.432 226.68 190.432C227.176 190.432 227.624 190.536 228.024 190.744C228.424 190.944 228.74 191.248 228.972 191.656C229.212 192.056 229.332 192.556 229.332 193.156C229.332 193.748 229.208 194.268 228.96 194.716C228.72 195.164 228.376 195.512 227.928 195.76C227.48 196 226.948 196.12 226.332 196.12Z" fill="black" fill-opacity="0.85"/>
<path d="M119.51 57.396H122.258C123.234 57.396 123.99 57.6 124.526 58.008C125.07 58.408 125.342 59.036 125.342 59.892C125.342 60.54 125.206 61.068 124.934 61.476C124.67 61.884 124.298 62.184 123.818 62.376C123.346 62.56 122.794 62.652 122.162 62.652H120.638V66H119.51V57.396ZM122.162 61.632C122.77 61.632 123.262 61.5 123.638 61.236C124.014 60.972 124.202 60.528 124.202 59.904C124.202 59.384 124.034 59.008 123.698 58.776C123.362 58.544 122.882 58.428 122.258 58.428H120.638V61.632H122.162ZM128.497 60.588C127.833 60.588 127.161 60.792 126.481 61.2V60.252C126.777 60.068 127.117 59.924 127.501 59.82C127.893 59.708 128.273 59.652 128.641 59.652C129.425 59.652 130.021 59.816 130.429 60.144C130.837 60.472 131.041 60.972 131.041 61.644V64.992C131.041 65.128 131.045 65.304 131.053 65.52C131.069 65.728 131.085 65.888 131.101 66H130.141C130.117 65.888 130.093 65.732 130.069 65.532C130.053 65.324 130.045 65.144 130.045 64.992L130.033 64.812C129.937 65.004 129.805 65.204 129.637 65.412C129.469 65.612 129.245 65.78 128.965 65.916C128.693 66.052 128.353 66.12 127.945 66.12C127.385 66.12 126.933 65.96 126.589 65.64C126.245 65.32 126.073 64.868 126.073 64.284C126.073 63.604 126.313 63.104 126.793 62.784C127.273 62.464 127.949 62.304 128.821 62.304H129.985V61.788C129.985 61.356 129.873 61.048 129.649 60.864C129.425 60.68 129.041 60.588 128.497 60.588ZM129.985 63.6V63.144H128.929C128.297 63.144 127.837 63.236 127.549 63.42C127.269 63.604 127.129 63.872 127.129 64.224C127.129 64.504 127.213 64.732 127.381 64.908C127.557 65.084 127.821 65.172 128.173 65.172C128.501 65.172 128.781 65.108 129.013 64.98C129.245 64.844 129.433 64.684 129.577 64.5C129.721 64.308 129.825 64.128 129.889 63.96C129.953 63.792 129.985 63.672 129.985 63.6ZM135.786 60.828C135.29 60.868 134.866 60.992 134.514 61.2C134.17 61.408 133.918 61.688 133.758 62.04V66H132.702V59.772H133.626L133.734 61.128H133.758C133.958 60.712 134.23 60.376 134.574 60.12C134.926 59.864 135.33 59.708 135.786 59.652V60.828ZM136.628 60.672V59.772H137.372V58.464H138.428V59.772H140.24V60.672H138.428V64.416C138.428 64.68 138.496 64.872 138.632 64.992C138.768 65.112 139 65.172 139.328 65.172C139.64 65.172 139.924 65.084 140.18 64.908V65.868C140.052 65.948 139.884 66.008 139.676 66.048C139.468 66.096 139.26 66.12 139.052 66.12C138.652 66.12 138.328 66.044 138.08 65.892C137.832 65.74 137.652 65.544 137.54 65.304C137.428 65.064 137.372 64.812 137.372 64.548V60.672H136.628ZM142.125 58.86C141.909 58.86 141.737 58.796 141.609 58.668C141.481 58.532 141.417 58.368 141.417 58.176C141.417 57.984 141.481 57.82 141.609 57.684C141.737 57.548 141.909 57.48 142.125 57.48C142.333 57.48 142.497 57.548 142.617 57.684C142.737 57.82 142.797 57.984 142.797 58.176C142.797 58.368 142.737 58.532 142.617 58.668C142.497 58.796 142.333 58.86 142.125 58.86ZM141.585 59.772H142.641V66H141.585V59.772ZM143.858 60.672V59.772H144.602V58.464H145.658V59.772H147.47V60.672H145.658V64.416C145.658 64.68 145.726 64.872 145.862 64.992C145.998 65.112 146.23 65.172 146.558 65.172C146.87 65.172 147.154 65.084 147.41 64.908V65.868C147.282 65.948 147.114 66.008 146.906 66.048C146.698 66.096 146.49 66.12 146.282 66.12C145.882 66.12 145.558 66.044 145.31 65.892C145.062 65.74 144.882 65.544 144.77 65.304C144.658 65.064 144.602 64.812 144.602 64.548V60.672H143.858ZM149.355 58.86C149.139 58.86 148.967 58.796 148.839 58.668C148.711 58.532 148.647 58.368 148.647 58.176C148.647 57.984 148.711 57.82 148.839 57.684C148.967 57.548 149.139 57.48 149.355 57.48C149.563 57.48 149.727 57.548 149.847 57.684C149.967 57.82 150.027 57.984 150.027 58.176C150.027 58.368 149.967 58.532 149.847 58.668C149.727 58.796 149.563 58.86 149.355 58.86ZM148.815 59.772H149.871V66H148.815V59.772ZM154.149 66.12C153.581 66.12 153.069 65.996 152.613 65.748C152.165 65.492 151.809 65.124 151.545 64.644C151.281 64.156 151.149 63.568 151.149 62.88C151.149 62.192 151.281 61.608 151.545 61.128C151.809 60.648 152.165 60.284 152.613 60.036C153.069 59.78 153.581 59.652 154.149 59.652C154.725 59.652 155.241 59.78 155.697 60.036C156.153 60.284 156.513 60.648 156.777 61.128C157.041 61.608 157.173 62.192 157.173 62.88C157.173 63.568 157.041 64.156 156.777 64.644C156.513 65.124 156.153 65.492 155.697 65.748C155.241 65.996 154.725 66.12 154.149 66.12ZM154.149 65.172C154.709 65.172 155.173 64.988 155.541 64.62C155.909 64.244 156.093 63.664 156.093 62.88C156.093 62.096 155.909 61.52 155.541 61.152C155.173 60.776 154.709 60.588 154.149 60.588C153.597 60.588 153.137 60.776 152.769 61.152C152.409 61.52 152.229 62.096 152.229 62.88C152.229 63.664 152.409 64.244 152.769 64.62C153.137 64.988 153.597 65.172 154.149 65.172ZM161.412 60.588C160.932 60.588 160.54 60.7 160.236 60.924C159.94 61.14 159.7 61.42 159.516 61.764V66H158.46V59.772H159.456L159.492 60.888H159.516C159.684 60.536 159.948 60.244 160.308 60.012C160.668 59.772 161.124 59.652 161.676 59.652C162.292 59.652 162.78 59.816 163.14 60.144C163.508 60.472 163.692 60.968 163.692 61.632V66H162.636V61.74C162.636 61.316 162.524 61.02 162.3 60.852C162.084 60.676 161.788 60.588 161.412 60.588ZM171.364 66H170.272V58.752L167.896 60.576V59.364L170.452 57.396H171.364V66Z" fill="black" fill-opacity="0.85"/>
<g filter="url(#filter2_d_28_151)">
<rect x="424" y="42" width="260" height="248" rx="10" fill="white"/>
</g>
<path d="M527.51 57.396H530.258C531.234 57.396 531.99 57.6 532.526 58.008C533.07 58.408 533.342 59.036 533.342 59.892C533.342 60.54 533.206 61.068 532.934 61.476C532.67 61.884 532.298 62.184 531.818 62.376C531.346 62.56 530.794 62.652 530.162 62.652H528.638V66H527.51V57.396ZM530.162 61.632C530.77 61.632 531.262 61.5 531.638 61.236C532.014 60.972 532.202 60.528 532.202 59.904C532.202 59.384 532.034 59.008 531.698 58.776C531.362 58.544 530.882 58.428 530.258 58.428H528.638V61.632H530.162ZM536.497 60.588C535.833 60.588 535.161 60.792 534.481 61.2V60.252C534.777 60.068 535.117 59.924 535.501 59.82C535.893 59.708 536.273 59.652 536.641 59.652C537.425 59.652 538.021 59.816 538.429 60.144C538.837 60.472 539.041 60.972 539.041 61.644V64.992C539.041 65.128 539.045 65.304 539.053 65.52C539.069 65.728 539.085 65.888 539.101 66H538.141C538.117 65.888 538.093 65.732 538.069 65.532C538.053 65.324 538.045 65.144 538.045 64.992L538.033 64.812C537.937 65.004 537.805 65.204 537.637 65.412C537.469 65.612 537.245 65.78 536.965 65.916C536.693 66.052 536.353 66.12 535.945 66.12C535.385 66.12 534.933 65.96 534.589 65.64C534.245 65.32 534.073 64.868 534.073 64.284C534.073 63.604 534.313 63.104 534.793 62.784C535.273 62.464 535.949 62.304 536.821 62.304H537.985V61.788C537.985 61.356 537.873 61.048 537.649 60.864C537.425 60.68 537.041 60.588 536.497 60.588ZM537.985 63.6V63.144H536.929C536.297 63.144 535.837 63.236 535.549 63.42C535.269 63.604 535.129 63.872 535.129 64.224C535.129 64.504 535.213 64.732 535.381 64.908C535.557 65.084 535.821 65.172 536.173 65.172C536.501 65.172 536.781 65.108 537.013 64.98C537.245 64.844 537.433 64.684 537.577 64.5C537.721 64.308 537.825 64.128 537.889 63.96C537.953 63.792 537.985 63.672 537.985 63.6ZM543.786 60.828C543.29 60.868 542.866 60.992 542.514 61.2C542.17 61.408 541.918 61.688 541.758 62.04V66H540.702V59.772H541.626L541.734 61.128H541.758C541.958 60.712 542.23 60.376 542.574 60.12C542.926 59.864 543.33 59.708 543.786 59.652V60.828ZM544.628 60.672V59.772H545.372V58.464H546.428V59.772H548.24V60.672H546.428V64.416C546.428 64.68 546.496 64.872 546.632 64.992C546.768 65.112 547 65.172 547.328 65.172C547.64 65.172 547.924 65.084 548.18 64.908V65.868C548.052 65.948 547.884 66.008 547.676 66.048C547.468 66.096 547.26 66.12 547.052 66.12C546.652 66.12 546.328 66.044 546.08 65.892C545.832 65.74 545.652 65.544 545.54 65.304C545.428 65.064 545.372 64.812 545.372 64.548V60.672H544.628ZM550.125 58.86C549.909 58.86 549.737 58.796 549.609 58.668C549.481 58.532 549.417 58.368 549.417 58.176C549.417 57.984 549.481 57.82 549.609 57.684C549.737 57.548 549.909 57.48 550.125 57.48C550.333 57.48 550.497 57.548 550.617 57.684C550.737 57.82 550.797 57.984 550.797 58.176C550.797 58.368 550.737 58.532 550.617 58.668C550.497 58.796 550.333 58.86 550.125 58.86ZM549.585 59.772H550.641V66H549.585V59.772ZM551.858 60.672V59.772H552.602V58.464H553.658V59.772H555.47V60.672H553.658V64.416C553.658 64.68 553.726 64.872 553.862 64.992C553.998 65.112 554.23 65.172 554.558 65.172C554.87 65.172 555.154 65.084 555.41 64.908V65.868C555.282 65.948 555.114 66.008 554.906 66.048C554.698 66.096 554.49 66.12 554.282 66.12C553.882 66.12 553.558 66.044 553.31 65.892C553.062 65.74 552.882 65.544 552.77 65.304C552.658 65.064 552.602 64.812 552.602 64.548V60.672H551.858ZM557.355 58.86C557.139 58.86 556.967 58.796 556.839 58.668C556.711 58.532 556.647 58.368 556.647 58.176C556.647 57.984 556.711 57.82 556.839 57.684C556.967 57.548 557.139 57.48 557.355 57.48C557.563 57.48 557.727 57.548 557.847 57.684C557.967 57.82 558.027 57.984 558.027 58.176C558.027 58.368 557.967 58.532 557.847 58.668C557.727 58.796 557.563 58.86 557.355 58.86ZM556.815 59.772H557.871V66H556.815V59.772ZM562.149 66.12C561.581 66.12 561.069 65.996 560.613 65.748C560.165 65.492 559.809 65.124 559.545 64.644C559.281 64.156 559.149 63.568 559.149 62.88C559.149 62.192 559.281 61.608 559.545 61.128C559.809 60.648 560.165 60.284 560.613 60.036C561.069 59.78 561.581 59.652 562.149 59.652C562.725 59.652 563.241 59.78 563.697 60.036C564.153 60.284 564.513 60.648 564.777 61.128C565.041 61.608 565.173 62.192 565.173 62.88C565.173 63.568 565.041 64.156 564.777 64.644C564.513 65.124 564.153 65.492 563.697 65.748C563.241 65.996 562.725 66.12 562.149 66.12ZM562.149 65.172C562.709 65.172 563.173 64.988 563.541 64.62C563.909 64.244 564.093 63.664 564.093 62.88C564.093 62.096 563.909 61.52 563.541 61.152C563.173 60.776 562.709 60.588 562.149 60.588C561.597 60.588 561.137 60.776 560.769 61.152C560.409 61.52 560.229 62.096 560.229 62.88C560.229 63.664 560.409 64.244 560.769 64.62C561.137 64.988 561.597 65.172 562.149 65.172ZM569.412 60.588C568.932 60.588 568.54 60.7 568.236 60.924C567.94 61.14 567.7 61.42 567.516 61.764V66H566.46V59.772H567.456L567.492 60.888H567.516C567.684 60.536 567.948 60.244 568.308 60.012C568.668 59.772 569.124 59.652 569.676 59.652C570.292 59.652 570.78 59.816 571.14 60.144C571.508 60.472 571.692 60.968 571.692 61.632V66H570.636V61.74C570.636 61.316 570.524 61.02 570.3 60.852C570.084 60.676 569.788 60.588 569.412 60.588ZM576.892 62.016V60.996H578.044C578.492 60.996 578.856 60.876 579.136 60.636C579.424 60.388 579.568 60.04 579.568 59.592C579.568 59.184 579.436 58.864 579.172 58.632C578.908 58.392 578.528 58.272 578.032 58.272C577.616 58.272 577.224 58.348 576.856 58.5C576.496 58.652 576.12 58.896 575.728 59.232V58.056C576.368 57.536 577.14 57.276 578.044 57.276C578.868 57.276 579.512 57.484 579.976 57.9C580.448 58.316 580.684 58.86 580.684 59.532C580.684 60.076 580.532 60.508 580.228 60.828C579.932 61.148 579.576 61.36 579.16 61.464C579.496 61.512 579.804 61.628 580.084 61.812C580.372 61.988 580.604 62.22 580.78 62.508C580.956 62.796 581.044 63.132 581.044 63.516C581.044 64.044 580.912 64.504 580.648 64.896C580.384 65.288 580.02 65.592 579.556 65.808C579.1 66.016 578.568 66.12 577.96 66.12C576.904 66.12 576.088 65.876 575.512 65.388V64.188C575.816 64.484 576.184 64.716 576.616 64.884C577.048 65.052 577.5 65.136 577.972 65.136C578.564 65.136 579.028 64.996 579.364 64.716C579.708 64.428 579.88 64.036 579.88 63.54C579.88 63.06 579.724 62.688 579.412 62.424C579.108 62.152 578.636 62.016 577.996 62.016H576.892Z" fill="black" fill-opacity="0.85"/>
<path d="M323.51 57.396H326.258C327.234 57.396 327.99 57.6 328.526 58.008C329.07 58.408 329.342 59.036 329.342 59.892C329.342 60.54 329.206 61.068 328.934 61.476C328.67 61.884 328.298 62.184 327.818 62.376C327.346 62.56 326.794 62.652 326.162 62.652H324.638V66H323.51V57.396ZM326.162 61.632C326.77 61.632 327.262 61.5 327.638 61.236C328.014 60.972 328.202 60.528 328.202 59.904C328.202 59.384 328.034 59.008 327.698 58.776C327.362 58.544 326.882 58.428 326.258 58.428H324.638V61.632H326.162ZM332.497 60.588C331.833 60.588 331.161 60.792 330.481 61.2V60.252C330.777 60.068 331.117 59.924 331.501 59.82C331.893 59.708 332.273 59.652 332.641 59.652C333.425 59.652 334.021 59.816 334.429 60.144C334.837 60.472 335.041 60.972 335.041 61.644V64.992C335.041 65.128 335.045 65.304 335.053 65.52C335.069 65.728 335.085 65.888 335.101 66H334.141C334.117 65.888 334.093 65.732 334.069 65.532C334.053 65.324 334.045 65.144 334.045 64.992L334.033 64.812C333.937 65.004 333.805 65.204 333.637 65.412C333.469 65.612 333.245 65.78 332.965 65.916C332.693 66.052 332.353 66.12 331.945 66.12C331.385 66.12 330.933 65.96 330.589 65.64C330.245 65.32 330.073 64.868 330.073 64.284C330.073 63.604 330.313 63.104 330.793 62.784C331.273 62.464 331.949 62.304 332.821 62.304H333.985V61.788C333.985 61.356 333.873 61.048 333.649 60.864C333.425 60.68 333.041 60.588 332.497 60.588ZM333.985 63.6V63.144H332.929C332.297 63.144 331.837 63.236 331.549 63.42C331.269 63.604 331.129 63.872 331.129 64.224C331.129 64.504 331.213 64.732 331.381 64.908C331.557 65.084 331.821 65.172 332.173 65.172C332.501 65.172 332.781 65.108 333.013 64.98C333.245 64.844 333.433 64.684 333.577 64.5C333.721 64.308 333.825 64.128 333.889 63.96C333.953 63.792 333.985 63.672 333.985 63.6ZM339.786 60.828C339.29 60.868 338.866 60.992 338.514 61.2C338.17 61.408 337.918 61.688 337.758 62.04V66H336.702V59.772H337.626L337.734 61.128H337.758C337.958 60.712 338.23 60.376 338.574 60.12C338.926 59.864 339.33 59.708 339.786 59.652V60.828ZM340.628 60.672V59.772H341.372V58.464H342.428V59.772H344.24V60.672H342.428V64.416C342.428 64.68 342.496 64.872 342.632 64.992C342.768 65.112 343 65.172 343.328 65.172C343.64 65.172 343.924 65.084 344.18 64.908V65.868C344.052 65.948 343.884 66.008 343.676 66.048C343.468 66.096 343.26 66.12 343.052 66.12C342.652 66.12 342.328 66.044 342.08 65.892C341.832 65.74 341.652 65.544 341.54 65.304C341.428 65.064 341.372 64.812 341.372 64.548V60.672H340.628ZM346.125 58.86C345.909 58.86 345.737 58.796 345.609 58.668C345.481 58.532 345.417 58.368 345.417 58.176C345.417 57.984 345.481 57.82 345.609 57.684C345.737 57.548 345.909 57.48 346.125 57.48C346.333 57.48 346.497 57.548 346.617 57.684C346.737 57.82 346.797 57.984 346.797 58.176C346.797 58.368 346.737 58.532 346.617 58.668C346.497 58.796 346.333 58.86 346.125 58.86ZM345.585 59.772H346.641V66H345.585V59.772ZM347.858 60.672V59.772H348.602V58.464H349.658V59.772H351.47V60.672H349.658V64.416C349.658 64.68 349.726 64.872 349.862 64.992C349.998 65.112 350.23 65.172 350.558 65.172C350.87 65.172 351.154 65.084 351.41 64.908V65.868C351.282 65.948 351.114 66.008 350.906 66.048C350.698 66.096 350.49 66.12 350.282 66.12C349.882 66.12 349.558 66.044 349.31 65.892C349.062 65.74 348.882 65.544 348.77 65.304C348.658 65.064 348.602 64.812 348.602 64.548V60.672H347.858ZM353.355 58.86C353.139 58.86 352.967 58.796 352.839 58.668C352.711 58.532 352.647 58.368 352.647 58.176C352.647 57.984 352.711 57.82 352.839 57.684C352.967 57.548 353.139 57.48 353.355 57.48C353.563 57.48 353.727 57.548 353.847 57.684C353.967 57.82 354.027 57.984 354.027 58.176C354.027 58.368 353.967 58.532 353.847 58.668C353.727 58.796 353.563 58.86 353.355 58.86ZM352.815 59.772H353.871V66H352.815V59.772ZM358.149 66.12C357.581 66.12 357.069 65.996 356.613 65.748C356.165 65.492 355.809 65.124 355.545 64.644C355.281 64.156 355.149 63.568 355.149 62.88C355.149 62.192 355.281 61.608 355.545 61.128C355.809 60.648 356.165 60.284 356.613 60.036C357.069 59.78 357.581 59.652 358.149 59.652C358.725 59.652 359.241 59.78 359.697 60.036C360.153 60.284 360.513 60.648 360.777 61.128C361.041 61.608 361.173 62.192 361.173 62.88C361.173 63.568 361.041 64.156 360.777 64.644C360.513 65.124 360.153 65.492 359.697 65.748C359.241 65.996 358.725 66.12 358.149 66.12ZM358.149 65.172C358.709 65.172 359.173 64.988 359.541 64.62C359.909 64.244 360.093 63.664 360.093 62.88C360.093 62.096 359.909 61.52 359.541 61.152C359.173 60.776 358.709 60.588 358.149 60.588C357.597 60.588 357.137 60.776 356.769 61.152C356.409 61.52 356.229 62.096 356.229 62.88C356.229 63.664 356.409 64.244 356.769 64.62C357.137 64.988 357.597 65.172 358.149 65.172ZM365.412 60.588C364.932 60.588 364.54 60.7 364.236 60.924C363.94 61.14 363.7 61.42 363.516 61.764V66H362.46V59.772H363.456L363.492 60.888H363.516C363.684 60.536 363.948 60.244 364.308 60.012C364.668 59.772 365.124 59.652 365.676 59.652C366.292 59.652 366.78 59.816 367.14 60.144C367.508 60.472 367.692 60.968 367.692 61.632V66H366.636V61.74C366.636 61.316 366.524 61.02 366.3 60.852C366.084 60.676 365.788 60.588 365.412 60.588ZM376.972 66H371.488V64.86C372.344 64.172 373.044 63.584 373.588 63.096C374.14 62.608 374.568 62.184 374.872 61.824C375.184 61.456 375.4 61.116 375.52 60.804C375.648 60.492 375.712 60.176 375.712 59.856C375.712 59.36 375.564 58.972 375.268 58.692C374.972 58.412 374.564 58.272 374.044 58.272C373.212 58.272 372.436 58.668 371.716 59.46V58.248C372.38 57.6 373.168 57.276 374.08 57.276C374.944 57.276 375.624 57.5 376.12 57.948C376.624 58.388 376.876 58.988 376.876 59.748C376.876 60.14 376.812 60.516 376.684 60.876C376.564 61.228 376.348 61.6 376.036 61.992C375.732 62.376 375.312 62.808 374.776 63.288C374.24 63.768 373.56 64.328 372.736 64.968H376.972V66Z" fill="black" fill-opacity="0.85"/>
<path d="M314.869 26H313.669L312.781 23.54H308.977L308.101 26H307.045L310.105 17.396H311.785L314.869 26ZM309.349 22.52H312.421L310.885 18.236L309.349 22.52ZM314.753 19.772H315.893L317.789 25.436L319.673 19.772H320.729L318.593 26H316.889L314.753 19.772ZM323.761 20.588C323.097 20.588 322.425 20.792 321.745 21.2V20.252C322.041 20.068 322.381 19.924 322.765 19.82C323.157 19.708 323.537 19.652 323.905 19.652C324.689 19.652 325.285 19.816 325.693 20.144C326.101 20.472 326.305 20.972 326.305 21.644V24.992C326.305 25.128 326.309 25.304 326.317 25.52C326.333 25.728 326.349 25.888 326.365 26H325.405C325.381 25.888 325.357 25.732 325.333 25.532C325.317 25.324 325.309 25.144 325.309 24.992L325.297 24.812C325.201 25.004 325.069 25.204 324.901 25.412C324.733 25.612 324.509 25.78 324.229 25.916C323.957 26.052 323.617 26.12 323.209 26.12C322.649 26.12 322.197 25.96 321.853 25.64C321.509 25.32 321.337 24.868 321.337 24.284C321.337 23.604 321.577 23.104 322.057 22.784C322.537 22.464 323.213 22.304 324.085 22.304H325.249V21.788C325.249 21.356 325.137 21.048 324.913 20.864C324.689 20.68 324.305 20.588 323.761 20.588ZM325.249 23.6V23.144H324.193C323.561 23.144 323.101 23.236 322.813 23.42C322.533 23.604 322.393 23.872 322.393 24.224C322.393 24.504 322.477 24.732 322.645 24.908C322.821 25.084 323.085 25.172 323.437 25.172C323.765 25.172 324.045 25.108 324.277 24.98C324.509 24.844 324.697 24.684 324.841 24.5C324.985 24.308 325.089 24.128 325.153 23.96C325.217 23.792 325.249 23.672 325.249 23.6ZM328.506 18.86C328.29 18.86 328.118 18.796 327.99 18.668C327.862 18.532 327.798 18.368 327.798 18.176C327.798 17.984 327.862 17.82 327.99 17.684C328.118 17.548 328.29 17.48 328.506 17.48C328.714 17.48 328.878 17.548 328.998 17.684C329.118 17.82 329.178 17.984 329.178 18.176C329.178 18.368 329.118 18.532 328.998 18.668C328.878 18.796 328.714 18.86 328.506 18.86ZM327.966 19.772H329.022V26H327.966V19.772ZM330.743 17.396H331.799V26H330.743V17.396ZM335.632 20.588C334.968 20.588 334.296 20.792 333.616 21.2V20.252C333.912 20.068 334.252 19.924 334.636 19.82C335.028 19.708 335.408 19.652 335.776 19.652C336.56 19.652 337.156 19.816 337.564 20.144C337.972 20.472 338.176 20.972 338.176 21.644V24.992C338.176 25.128 338.18 25.304 338.188 25.52C338.204 25.728 338.22 25.888 338.236 26H337.276C337.252 25.888 337.228 25.732 337.204 25.532C337.188 25.324 337.18 25.144 337.18 24.992L337.168 24.812C337.072 25.004 336.94 25.204 336.772 25.412C336.604 25.612 336.38 25.78 336.1 25.916C335.828 26.052 335.488 26.12 335.08 26.12C334.52 26.12 334.068 25.96 333.724 25.64C333.38 25.32 333.208 24.868 333.208 24.284C333.208 23.604 333.448 23.104 333.928 22.784C334.408 22.464 335.084 22.304 335.956 22.304H337.12V21.788C337.12 21.356 337.008 21.048 336.784 20.864C336.56 20.68 336.176 20.588 335.632 20.588ZM337.12 23.6V23.144H336.064C335.432 23.144 334.972 23.236 334.684 23.42C334.404 23.604 334.264 23.872 334.264 24.224C334.264 24.504 334.348 24.732 334.516 24.908C334.692 25.084 334.956 25.172 335.308 25.172C335.636 25.172 335.916 25.108 336.148 24.98C336.38 24.844 336.568 24.684 336.712 24.5C336.856 24.308 336.96 24.128 337.024 23.96C337.088 23.792 337.12 23.672 337.12 23.6ZM339.837 17.396H340.893L340.869 20.984C341.077 20.584 341.357 20.264 341.709 20.024C342.061 19.776 342.497 19.652 343.017 19.652C343.505 19.652 343.953 19.772 344.361 20.012C344.777 20.244 345.113 20.6 345.369 21.08C345.625 21.552 345.753 22.152 345.753 22.88C345.753 23.608 345.621 24.212 345.357 24.692C345.101 25.172 344.761 25.532 344.337 25.772C343.921 26.004 343.465 26.12 342.969 26.12C342.489 26.12 342.069 26.004 341.709 25.772C341.357 25.54 341.077 25.224 340.869 24.824L340.833 26H339.837V17.396ZM344.661 22.88C344.661 22.128 344.489 21.56 344.145 21.176C343.801 20.784 343.357 20.588 342.813 20.588C342.269 20.588 341.809 20.78 341.433 21.164C341.065 21.54 340.881 22.112 340.881 22.88C340.881 23.656 341.065 24.232 341.433 24.608C341.809 24.984 342.269 25.172 342.813 25.172C343.357 25.172 343.801 24.98 344.145 24.596C344.489 24.212 344.661 23.64 344.661 22.88ZM347.572 18.86C347.356 18.86 347.184 18.796 347.056 18.668C346.928 18.532 346.864 18.368 346.864 18.176C346.864 17.984 346.928 17.82 347.056 17.684C347.184 17.548 347.356 17.48 347.572 17.48C347.78 17.48 347.944 17.548 348.064 17.684C348.184 17.82 348.244 17.984 348.244 18.176C348.244 18.368 348.184 18.532 348.064 18.668C347.944 18.796 347.78 18.86 347.572 18.86ZM347.032 19.772H348.088V26H347.032V19.772ZM349.809 17.396H350.865V26H349.809V17.396ZM353.127 18.86C352.911 18.86 352.739 18.796 352.611 18.668C352.483 18.532 352.419 18.368 352.419 18.176C352.419 17.984 352.483 17.82 352.611 17.684C352.739 17.548 352.911 17.48 353.127 17.48C353.335 17.48 353.499 17.548 353.619 17.684C353.739 17.82 353.799 17.984 353.799 18.176C353.799 18.368 353.739 18.532 353.619 18.668C353.499 18.796 353.335 18.86 353.127 18.86ZM352.587 19.772H353.643V26H352.587V19.772ZM354.86 20.672V19.772H355.604V18.464H356.66V19.772H358.472V20.672H356.66V24.416C356.66 24.68 356.728 24.872 356.864 24.992C357 25.112 357.232 25.172 357.56 25.172C357.872 25.172 358.156 25.084 358.412 24.908V25.868C358.284 25.948 358.116 26.008 357.908 26.048C357.7 26.096 357.492 26.12 357.284 26.12C356.884 26.12 356.56 26.044 356.312 25.892C356.064 25.74 355.884 25.544 355.772 25.304C355.66 25.064 355.604 24.812 355.604 24.548V20.672H354.86ZM360.416 28.244C360.088 28.244 359.816 28.2 359.6 28.112V27.092C359.76 27.228 360.02 27.296 360.38 27.296C360.66 27.296 360.896 27.228 361.088 27.092C361.288 26.964 361.48 26.74 361.664 26.42L359.132 19.772H360.296L362.276 25.028L364.244 19.772H365.264L362.936 25.928C362.616 26.752 362.26 27.344 361.868 27.704C361.476 28.064 360.992 28.244 360.416 28.244ZM372.817 25.1V26H368.209V25.316L371.485 20.672H368.305V19.772H372.805V20.456L369.529 25.1H372.817ZM376.483 26.12C375.915 26.12 375.403 25.996 374.947 25.748C374.499 25.492 374.143 25.124 373.879 24.644C373.615 24.156 373.483 23.568 373.483 22.88C373.483 22.192 373.615 21.608 373.879 21.128C374.143 20.648 374.499 20.284 374.947 20.036C375.403 19.78 375.915 19.652 376.483 19.652C377.059 19.652 377.575 19.78 378.031 20.036C378.487 20.284 378.847 20.648 379.111 21.128C379.375 21.608 379.507 22.192 379.507 22.88C379.507 23.568 379.375 24.156 379.111 24.644C378.847 25.124 378.487 25.492 378.031 25.748C377.575 25.996 377.059 26.12 376.483 26.12ZM376.483 25.172C377.043 25.172 377.507 24.988 377.875 24.62C378.243 24.244 378.427 23.664 378.427 22.88C378.427 22.096 378.243 21.52 377.875 21.152C377.507 20.776 377.043 20.588 376.483 20.588C375.931 20.588 375.471 20.776 375.103 21.152C374.743 21.52 374.562 22.096 374.562 22.88C374.562 23.664 374.743 24.244 375.103 24.62C375.471 24.988 375.931 25.172 376.483 25.172ZM383.746 20.588C383.266 20.588 382.874 20.7 382.57 20.924C382.274 21.14 382.034 21.42 381.85 21.764V26H380.794V19.772H381.79L381.826 20.888H381.85C382.018 20.536 382.282 20.244 382.642 20.012C383.002 19.772 383.458 19.652 384.01 19.652C384.626 19.652 385.114 19.816 385.474 20.144C385.842 20.472 386.026 20.968 386.026 21.632V26H384.97V21.74C384.97 21.316 384.858 21.02 384.634 20.852C384.418 20.676 384.122 20.588 383.746 20.588ZM390.456 26.12C389.416 26.12 388.62 25.836 388.068 25.268C387.524 24.692 387.252 23.896 387.252 22.88C387.252 22.2 387.38 21.62 387.636 21.14C387.892 20.66 388.244 20.292 388.692 20.036C389.14 19.78 389.644 19.652 390.204 19.652C391.156 19.652 391.856 19.968 392.304 20.6C392.752 21.224 392.896 22.08 392.736 23.168H388.344C388.432 24.504 389.168 25.172 390.552 25.172C391.312 25.172 392.012 24.956 392.652 24.524V25.472C392.364 25.672 392.028 25.832 391.644 25.952C391.26 26.064 390.864 26.12 390.456 26.12ZM390.18 20.588C389.724 20.588 389.332 20.728 389.004 21.008C388.676 21.288 388.468 21.712 388.38 22.28H391.728C391.752 21.744 391.628 21.328 391.356 21.032C391.084 20.736 390.692 20.588 390.18 20.588Z" fill="black" fill-opacity="0.85"/>
<path d="M281.199 382.396H283.947C284.923 382.396 285.679 382.6 286.215 383.008C286.759 383.408 287.031 384.036 287.031 384.892C287.031 385.54 286.895 386.068 286.623 386.476C286.359 386.884 285.987 387.184 285.507 387.376C285.035 387.56 284.483 387.652 283.851 387.652H282.327V391H281.199V382.396ZM283.851 386.632C284.459 386.632 284.951 386.5 285.327 386.236C285.703 385.972 285.891 385.528 285.891 384.904C285.891 384.384 285.723 384.008 285.387 383.776C285.051 383.544 284.571 383.428 283.947 383.428H282.327V386.632H283.851ZM290.187 385.588C289.523 385.588 288.851 385.792 288.171 386.2V385.252C288.467 385.068 288.807 384.924 289.191 384.82C289.583 384.708 289.963 384.652 290.331 384.652C291.115 384.652 291.711 384.816 292.119 385.144C292.527 385.472 292.731 385.972 292.731 386.644V389.992C292.731 390.128 292.735 390.304 292.743 390.52C292.759 390.728 292.775 390.888 292.791 391H291.831C291.807 390.888 291.783 390.732 291.759 390.532C291.743 390.324 291.735 390.144 291.735 389.992L291.723 389.812C291.627 390.004 291.495 390.204 291.327 390.412C291.159 390.612 290.935 390.78 290.655 390.916C290.383 391.052 290.043 391.12 289.635 391.12C289.075 391.12 288.623 390.96 288.279 390.64C287.935 390.32 287.763 389.868 287.763 389.284C287.763 388.604 288.003 388.104 288.483 387.784C288.963 387.464 289.639 387.304 290.511 387.304H291.675V386.788C291.675 386.356 291.563 386.048 291.339 385.864C291.115 385.68 290.731 385.588 290.187 385.588ZM291.675 388.6V388.144H290.619C289.987 388.144 289.527 388.236 289.239 388.42C288.959 388.604 288.819 388.872 288.819 389.224C288.819 389.504 288.903 389.732 289.071 389.908C289.247 390.084 289.511 390.172 289.863 390.172C290.191 390.172 290.471 390.108 290.703 389.98C290.935 389.844 291.123 389.684 291.267 389.5C291.411 389.308 291.515 389.128 291.579 388.96C291.643 388.792 291.675 388.672 291.675 388.6ZM297.475 385.828C296.979 385.868 296.555 385.992 296.203 386.2C295.859 386.408 295.607 386.688 295.447 387.04V391H294.391V384.772H295.315L295.423 386.128H295.447C295.647 385.712 295.919 385.376 296.263 385.12C296.615 384.864 297.019 384.708 297.475 384.652V385.828ZM298.317 385.672V384.772H299.061V383.464H300.117V384.772H301.929V385.672H300.117V389.416C300.117 389.68 300.185 389.872 300.321 389.992C300.457 390.112 300.689 390.172 301.017 390.172C301.329 390.172 301.613 390.084 301.869 389.908V390.868C301.741 390.948 301.573 391.008 301.365 391.048C301.157 391.096 300.949 391.12 300.741 391.12C300.341 391.12 300.017 391.044 299.769 390.892C299.521 390.74 299.341 390.544 299.229 390.304C299.117 390.064 299.061 389.812 299.061 389.548V385.672H298.317ZM303.814 383.86C303.598 383.86 303.426 383.796 303.298 383.668C303.17 383.532 303.106 383.368 303.106 383.176C303.106 382.984 303.17 382.82 303.298 382.684C303.426 382.548 303.598 382.48 303.814 382.48C304.022 382.48 304.186 382.548 304.306 382.684C304.426 382.82 304.486 382.984 304.486 383.176C304.486 383.368 304.426 383.532 304.306 383.668C304.186 383.796 304.022 383.86 303.814 383.86ZM303.274 384.772H304.33V391H303.274V384.772ZM305.548 385.672V384.772H306.292V383.464H307.348V384.772H309.16V385.672H307.348V389.416C307.348 389.68 307.416 389.872 307.552 389.992C307.688 390.112 307.92 390.172 308.248 390.172C308.56 390.172 308.844 390.084 309.1 389.908V390.868C308.972 390.948 308.804 391.008 308.596 391.048C308.388 391.096 308.18 391.12 307.972 391.12C307.572 391.12 307.248 391.044 307 390.892C306.752 390.74 306.572 390.544 306.46 390.304C306.348 390.064 306.292 389.812 306.292 389.548V385.672H305.548ZM311.045 383.86C310.829 383.86 310.657 383.796 310.529 383.668C310.401 383.532 310.337 383.368 310.337 383.176C310.337 382.984 310.401 382.82 310.529 382.684C310.657 382.548 310.829 382.48 311.045 382.48C311.253 382.48 311.417 382.548 311.537 382.684C311.657 382.82 311.717 382.984 311.717 383.176C311.717 383.368 311.657 383.532 311.537 383.668C311.417 383.796 311.253 383.86 311.045 383.86ZM310.505 384.772H311.561V391H310.505V384.772ZM315.838 391.12C315.27 391.12 314.758 390.996 314.302 390.748C313.854 390.492 313.498 390.124 313.234 389.644C312.97 389.156 312.838 388.568 312.838 387.88C312.838 387.192 312.97 386.608 313.234 386.128C313.498 385.648 313.854 385.284 314.302 385.036C314.758 384.78 315.27 384.652 315.838 384.652C316.414 384.652 316.93 384.78 317.386 385.036C317.842 385.284 318.202 385.648 318.466 386.128C318.73 386.608 318.862 387.192 318.862 387.88C318.862 388.568 318.73 389.156 318.466 389.644C318.202 390.124 317.842 390.492 317.386 390.748C316.93 390.996 316.414 391.12 315.838 391.12ZM315.838 390.172C316.398 390.172 316.862 389.988 317.23 389.62C317.598 389.244 317.782 388.664 317.782 387.88C317.782 387.096 317.598 386.52 317.23 386.152C316.862 385.776 316.398 385.588 315.838 385.588C315.286 385.588 314.826 385.776 314.458 386.152C314.098 386.52 313.918 387.096 313.918 387.88C313.918 388.664 314.098 389.244 314.458 389.62C314.826 389.988 315.286 390.172 315.838 390.172ZM323.101 385.588C322.621 385.588 322.229 385.7 321.925 385.924C321.629 386.14 321.389 386.42 321.205 386.764V391H320.149V384.772H321.145L321.181 385.888H321.205C321.373 385.536 321.637 385.244 321.997 385.012C322.357 384.772 322.813 384.652 323.365 384.652C323.981 384.652 324.469 384.816 324.829 385.144C325.197 385.472 325.381 385.968 325.381 386.632V391H324.325V386.74C324.325 386.316 324.213 386.02 323.989 385.852C323.773 385.676 323.477 385.588 323.101 385.588ZM329.454 384.772H330.378L330.486 385.984C330.686 385.584 330.962 385.264 331.314 385.024C331.674 384.776 332.114 384.652 332.634 384.652C333.122 384.652 333.57 384.772 333.978 385.012C334.394 385.244 334.73 385.6 334.986 386.08C335.242 386.552 335.37 387.152 335.37 387.88C335.37 388.608 335.238 389.212 334.974 389.692C334.718 390.172 334.378 390.532 333.954 390.772C333.538 391.004 333.082 391.12 332.586 391.12C332.114 391.12 331.702 391.008 331.35 390.784C330.998 390.56 330.718 390.252 330.51 389.86V393.124H329.454V384.772ZM334.278 387.88C334.278 387.128 334.106 386.56 333.762 386.176C333.418 385.784 332.974 385.588 332.43 385.588C331.886 385.588 331.426 385.78 331.05 386.164C330.682 386.54 330.498 387.112 330.498 387.88C330.498 388.656 330.682 389.232 331.05 389.608C331.426 389.984 331.886 390.172 332.43 390.172C332.974 390.172 333.418 389.98 333.762 389.596C334.106 389.212 334.278 388.64 334.278 387.88ZM336.649 382.396H337.705V391H336.649V382.396ZM341.539 385.588C340.875 385.588 340.203 385.792 339.523 386.2V385.252C339.819 385.068 340.159 384.924 340.543 384.82C340.935 384.708 341.315 384.652 341.683 384.652C342.467 384.652 343.063 384.816 343.471 385.144C343.879 385.472 344.083 385.972 344.083 386.644V389.992C344.083 390.128 344.087 390.304 344.095 390.52C344.111 390.728 344.127 390.888 344.143 391H343.183C343.159 390.888 343.135 390.732 343.111 390.532C343.095 390.324 343.087 390.144 343.087 389.992L343.075 389.812C342.979 390.004 342.847 390.204 342.679 390.412C342.511 390.612 342.287 390.78 342.007 390.916C341.735 391.052 341.395 391.12 340.987 391.12C340.427 391.12 339.975 390.96 339.631 390.64C339.287 390.32 339.115 389.868 339.115 389.284C339.115 388.604 339.355 388.104 339.835 387.784C340.315 387.464 340.991 387.304 341.863 387.304H343.027V386.788C343.027 386.356 342.915 386.048 342.691 385.864C342.467 385.68 342.083 385.588 341.539 385.588ZM343.027 388.6V388.144H341.971C341.339 388.144 340.879 388.236 340.591 388.42C340.311 388.604 340.171 388.872 340.171 389.224C340.171 389.504 340.255 389.732 340.423 389.908C340.599 390.084 340.863 390.172 341.215 390.172C341.543 390.172 341.823 390.108 342.055 389.98C342.287 389.844 342.475 389.684 342.619 389.5C342.763 389.308 342.867 389.128 342.931 388.96C342.995 388.792 343.027 388.672 343.027 388.6ZM348.431 391.12C347.463 391.12 346.699 390.836 346.139 390.268C345.579 389.692 345.299 388.896 345.299 387.88C345.299 386.864 345.583 386.072 346.151 385.504C346.719 384.936 347.495 384.652 348.479 384.652C348.855 384.652 349.207 384.696 349.535 384.784C349.863 384.864 350.127 384.984 350.327 385.144V386.092C349.783 385.756 349.171 385.588 348.491 385.588C347.771 385.588 347.239 385.78 346.895 386.164C346.551 386.54 346.379 387.112 346.379 387.88C346.379 388.648 346.543 389.224 346.871 389.608C347.207 389.984 347.727 390.172 348.431 390.172C349.111 390.172 349.743 390.008 350.327 389.68V390.628C349.807 390.956 349.175 391.12 348.431 391.12ZM354.374 391.12C353.334 391.12 352.538 390.836 351.986 390.268C351.442 389.692 351.17 388.896 351.17 387.88C351.17 387.2 351.298 386.62 351.554 386.14C351.81 385.66 352.162 385.292 352.61 385.036C353.058 384.78 353.562 384.652 354.122 384.652C355.074 384.652 355.774 384.968 356.222 385.6C356.67 386.224 356.814 387.08 356.654 388.168H352.262C352.35 389.504 353.086 390.172 354.47 390.172C355.23 390.172 355.93 389.956 356.57 389.524V390.472C356.282 390.672 355.946 390.832 355.562 390.952C355.178 391.064 354.782 391.12 354.374 391.12ZM354.098 385.588C353.642 385.588 353.25 385.728 352.922 386.008C352.594 386.288 352.386 386.712 352.298 387.28H355.646C355.67 386.744 355.546 386.328 355.274 386.032C355.002 385.736 354.61 385.588 354.098 385.588ZM361.913 386.644C361.913 386.244 361.813 385.968 361.613 385.816C361.413 385.664 361.141 385.588 360.797 385.588C360.349 385.588 359.993 385.7 359.729 385.924C359.465 386.14 359.233 386.424 359.033 386.776V391H357.977V384.772H358.901L359.009 385.888H359.033C359.201 385.536 359.453 385.244 359.789 385.012C360.133 384.772 360.573 384.652 361.109 384.652C361.581 384.652 361.973 384.768 362.285 385C362.597 385.224 362.805 385.564 362.909 386.02C363.085 385.596 363.353 385.264 363.713 385.024C364.081 384.776 364.525 384.652 365.045 384.652C365.613 384.652 366.065 384.816 366.401 385.144C366.745 385.472 366.917 385.968 366.917 386.632V391H365.849V386.764C365.849 386.356 365.749 386.06 365.549 385.876C365.349 385.684 365.077 385.588 364.733 385.588C364.277 385.588 363.917 385.72 363.653 385.984C363.389 386.24 363.161 386.544 362.969 386.896V391H361.913V386.644ZM371.331 391.12C370.291 391.12 369.495 390.836 368.943 390.268C368.399 389.692 368.127 388.896 368.127 387.88C368.127 387.2 368.255 386.62 368.511 386.14C368.767 385.66 369.119 385.292 369.567 385.036C370.015 384.78 370.519 384.652 371.079 384.652C372.031 384.652 372.731 384.968 373.179 385.6C373.627 386.224 373.771 387.08 373.611 388.168H369.219C369.307 389.504 370.043 390.172 371.427 390.172C372.187 390.172 372.887 389.956 373.527 389.524V390.472C373.239 390.672 372.903 390.832 372.519 390.952C372.135 391.064 371.739 391.12 371.331 391.12ZM371.055 385.588C370.599 385.588 370.207 385.728 369.879 386.008C369.551 386.288 369.343 386.712 369.255 387.28H372.603C372.627 386.744 372.503 386.328 372.231 386.032C371.959 385.736 371.567 385.588 371.055 385.588ZM377.886 385.588C377.406 385.588 377.014 385.7 376.71 385.924C376.414 386.14 376.174 386.42 375.99 386.764V391H374.934V384.772H375.93L375.966 385.888H375.99C376.158 385.536 376.422 385.244 376.782 385.012C377.142 384.772 377.598 384.652 378.15 384.652C378.766 384.652 379.254 384.816 379.614 385.144C379.982 385.472 380.166 385.968 380.166 386.632V391H379.11V386.74C379.11 386.316 378.998 386.02 378.774 385.852C378.558 385.676 378.262 385.588 377.886 385.588ZM381.333 385.672V384.772H382.077V383.464H383.133V384.772H384.945V385.672H383.133V389.416C383.133 389.68 383.201 389.872 383.337 389.992C383.473 390.112 383.705 390.172 384.033 390.172C384.345 390.172 384.629 390.084 384.885 389.908V390.868C384.757 390.948 384.589 391.008 384.381 391.048C384.173 391.096 383.965 391.12 383.757 391.12C383.357 391.12 383.033 391.044 382.785 390.892C382.537 390.74 382.357 390.544 382.245 390.304C382.133 390.064 382.077 389.812 382.077 389.548V385.672H381.333ZM388.764 392.632V391.684C389.1 391.868 389.436 392 389.772 392.08C390.108 392.16 390.492 392.2 390.924 392.2C391.692 392.2 392.228 392.052 392.532 391.756C392.836 391.468 392.988 391.044 392.988 390.484V389.524C392.804 389.892 392.544 390.188 392.208 390.412C391.88 390.636 391.472 390.748 390.984 390.748C390.496 390.748 390.04 390.636 389.616 390.412C389.2 390.18 388.864 389.84 388.608 389.392C388.36 388.944 388.236 388.384 388.236 387.712C388.236 387.032 388.36 386.468 388.608 386.02C388.864 385.564 389.2 385.224 389.616 385C390.04 384.768 390.504 384.652 391.008 384.652C391.504 384.652 391.92 384.764 392.256 384.988C392.6 385.212 392.868 385.516 393.06 385.9L393.072 385.768C393.072 385.624 393.08 385.452 393.096 385.252C393.112 385.044 393.128 384.884 393.144 384.772H394.104C394.088 384.876 394.072 385.036 394.056 385.252C394.048 385.46 394.044 385.632 394.044 385.768V390.472C394.044 391.008 393.936 391.476 393.72 391.876C393.512 392.276 393.18 392.588 392.724 392.812C392.268 393.036 391.664 393.148 390.912 393.148C390 393.148 389.284 392.976 388.764 392.632ZM393 387.712C393 387 392.824 386.468 392.472 386.116C392.128 385.764 391.692 385.588 391.164 385.588C390.636 385.588 390.192 385.764 389.832 386.116C389.48 386.468 389.304 387 389.304 387.712C389.304 388.408 389.48 388.932 389.832 389.284C390.192 389.628 390.64 389.8 391.176 389.8C391.696 389.8 392.128 389.628 392.472 389.284C392.824 388.94 393 388.416 393 387.712ZM398.843 385.828C398.347 385.868 397.923 385.992 397.571 386.2C397.227 386.408 396.975 386.688 396.815 387.04V391H395.759V384.772H396.683L396.791 386.128H396.815C397.015 385.712 397.287 385.376 397.631 385.12C397.983 384.864 398.387 384.708 398.843 384.652V385.828ZM402.381 391.12C401.813 391.12 401.301 390.996 400.845 390.748C400.397 390.492 400.041 390.124 399.777 389.644C399.513 389.156 399.381 388.568 399.381 387.88C399.381 387.192 399.513 386.608 399.777 386.128C400.041 385.648 400.397 385.284 400.845 385.036C401.301 384.78 401.813 384.652 402.381 384.652C402.957 384.652 403.473 384.78 403.929 385.036C404.385 385.284 404.745 385.648 405.009 386.128C405.273 386.608 405.405 387.192 405.405 387.88C405.405 388.568 405.273 389.156 405.009 389.644C404.745 390.124 404.385 390.492 403.929 390.748C403.473 390.996 402.957 391.12 402.381 391.12ZM402.381 390.172C402.941 390.172 403.405 389.988 403.773 389.62C404.141 389.244 404.325 388.664 404.325 387.88C404.325 387.096 404.141 386.52 403.773 386.152C403.405 385.776 402.941 385.588 402.381 385.588C401.829 385.588 401.369 385.776 401.001 386.152C400.641 386.52 400.461 387.096 400.461 387.88C400.461 388.664 400.641 389.244 401.001 389.62C401.369 389.988 401.829 390.172 402.381 390.172ZM410.688 389.884C410.52 390.228 410.26 390.52 409.908 390.76C409.564 391 409.112 391.12 408.552 391.12C407.976 391.12 407.508 390.956 407.148 390.628C406.796 390.3 406.62 389.8 406.62 389.128V384.772H407.688V389.128C407.688 389.536 407.8 389.812 408.024 389.956C408.248 390.1 408.524 390.172 408.852 390.172C409.316 390.172 409.688 390.068 409.968 389.86C410.248 389.652 410.488 389.368 410.688 389.008V384.772H411.744V391H410.808L410.712 389.884H410.688ZM413.477 384.772H414.401L414.509 385.984C414.709 385.584 414.985 385.264 415.337 385.024C415.697 384.776 416.137 384.652 416.657 384.652C417.145 384.652 417.593 384.772 418.001 385.012C418.417 385.244 418.753 385.6 419.009 386.08C419.265 386.552 419.393 387.152 419.393 387.88C419.393 388.608 419.261 389.212 418.997 389.692C418.741 390.172 418.401 390.532 417.977 390.772C417.561 391.004 417.105 391.12 416.609 391.12C416.137 391.12 415.725 391.008 415.373 390.784C415.021 390.56 414.741 390.252 414.533 389.86V393.124H413.477V384.772ZM418.301 387.88C418.301 387.128 418.129 386.56 417.785 386.176C417.441 385.784 416.997 385.588 416.453 385.588C415.909 385.588 415.449 385.78 415.073 386.164C414.705 386.54 414.521 387.112 414.521 387.88C414.521 388.656 414.705 389.232 415.073 389.608C415.449 389.984 415.909 390.172 416.453 390.172C416.997 390.172 417.441 389.98 417.785 389.596C418.129 389.212 418.301 388.64 418.301 387.88Z" fill="black" fill-opacity="0.85"/>
<rect x="575" y="83" width="94" height="142" rx="9" fill="white" stroke="#5282FF" stroke-width="2"/>
<path d="M605.588 97.396H608.468C609.476 97.396 610.248 97.596 610.784 97.996C611.32 98.388 611.588 99.008 611.588 99.856C611.588 100.608 611.408 101.184 611.048 101.584C610.688 101.976 610.208 102.24 609.608 102.376L611.948 106H610.676L608.432 102.508H608.36H606.716V106H605.588V97.396ZM608.36 101.488C608.976 101.488 609.472 101.368 609.848 101.128C610.224 100.888 610.412 100.456 610.412 99.832C610.412 99.32 610.24 98.96 609.896 98.752C609.56 98.536 609.084 98.428 608.468 98.428H606.716V101.488H608.36ZM615.255 100.588C614.591 100.588 613.919 100.792 613.239 101.2V100.252C613.535 100.068 613.875 99.924 614.259 99.82C614.651 99.708 615.031 99.652 615.399 99.652C616.183 99.652 616.779 99.816 617.187 100.144C617.595 100.472 617.799 100.972 617.799 101.644V104.992C617.799 105.128 617.803 105.304 617.811 105.52C617.827 105.728 617.843 105.888 617.859 106H616.899C616.875 105.888 616.851 105.732 616.827 105.532C616.811 105.324 616.803 105.144 616.803 104.992L616.791 104.812C616.695 105.004 616.563 105.204 616.395 105.412C616.227 105.612 616.003 105.78 615.723 105.916C615.451 106.052 615.111 106.12 614.703 106.12C614.143 106.12 613.691 105.96 613.347 105.64C613.003 105.32 612.831 104.868 612.831 104.284C612.831 103.604 613.071 103.104 613.551 102.784C614.031 102.464 614.707 102.304 615.579 102.304H616.743V101.788C616.743 101.356 616.631 101.048 616.407 100.864C616.183 100.68 615.799 100.588 615.255 100.588ZM616.743 103.6V103.144H615.687C615.055 103.144 614.595 103.236 614.307 103.42C614.027 103.604 613.887 103.872 613.887 104.224C613.887 104.504 613.971 104.732 614.139 104.908C614.315 105.084 614.579 105.172 614.931 105.172C615.259 105.172 615.539 105.108 615.771 104.98C616.003 104.844 616.191 104.684 616.335 104.5C616.479 104.308 616.583 104.128 616.647 103.96C616.711 103.792 616.743 103.672 616.743 103.6ZM622.148 106.12C621.18 106.12 620.416 105.836 619.856 105.268C619.296 104.692 619.016 103.896 619.016 102.88C619.016 101.864 619.3 101.072 619.868 100.504C620.436 99.936 621.212 99.652 622.196 99.652C622.572 99.652 622.924 99.696 623.252 99.784C623.58 99.864 623.844 99.984 624.044 100.144V101.092C623.5 100.756 622.888 100.588 622.208 100.588C621.488 100.588 620.956 100.78 620.612 101.164C620.268 101.54 620.096 102.112 620.096 102.88C620.096 103.648 620.26 104.224 620.588 104.608C620.924 104.984 621.444 105.172 622.148 105.172C622.828 105.172 623.46 105.008 624.044 104.68V105.628C623.524 105.956 622.892 106.12 622.148 106.12ZM630.419 106H629.135L626.939 103.348H626.387V106H625.331V97.396H626.387V102.448H626.987L629.171 99.772H630.371L627.815 102.844L630.419 106ZM635.75 106.12C634.79 106.12 634.026 105.916 633.458 105.508V104.332C633.794 104.604 634.146 104.808 634.514 104.944C634.882 105.072 635.294 105.136 635.75 105.136C636.342 105.136 636.798 104.956 637.118 104.596C637.446 104.236 637.61 103.764 637.61 103.18C637.61 102.556 637.45 102.1 637.13 101.812C636.81 101.524 636.406 101.38 635.918 101.38C635.566 101.38 635.282 101.44 635.066 101.56C634.85 101.672 634.686 101.792 634.574 101.92H633.698V97.396H638.354V98.428H634.682V100.888C634.842 100.768 635.038 100.664 635.27 100.576C635.502 100.48 635.778 100.432 636.098 100.432C636.594 100.432 637.042 100.536 637.442 100.744C637.842 100.944 638.158 101.248 638.39 101.656C638.63 102.056 638.75 102.556 638.75 103.156C638.75 103.748 638.626 104.268 638.378 104.716C638.138 105.164 637.794 105.512 637.346 105.76C636.898 106 636.366 106.12 635.75 106.12Z" fill="black" fill-opacity="0.85"/>
<rect x="587" y="122" width="70" height="40" rx="10" fill="#E3EBFF"/>
<path d="M603.707 137.396H606.599C607.175 137.396 607.711 137.464 608.207 137.6C608.703 137.736 609.135 137.96 609.503 138.272C609.871 138.576 610.159 138.984 610.367 139.496C610.575 140.008 610.679 140.644 610.679 141.404C610.679 142.412 610.495 143.26 610.127 143.948C609.767 144.628 609.271 145.14 608.639 145.484C608.007 145.828 607.283 146 606.467 146H603.707V137.396ZM606.467 144.98C607.059 144.98 607.579 144.86 608.027 144.62C608.475 144.372 608.823 143.992 609.071 143.48C609.327 142.96 609.455 142.296 609.455 141.488C609.455 140.68 609.331 140.056 609.083 139.616C608.835 139.176 608.495 138.868 608.063 138.692C607.639 138.516 607.151 138.428 606.599 138.428H604.835V144.98H606.467ZM612.576 138.86C612.36 138.86 612.188 138.796 612.06 138.668C611.932 138.532 611.868 138.368 611.868 138.176C611.868 137.984 611.932 137.82 612.06 137.684C612.188 137.548 612.36 137.48 612.576 137.48C612.784 137.48 612.948 137.548 613.068 137.684C613.188 137.82 613.248 137.984 613.248 138.176C613.248 138.368 613.188 138.532 613.068 138.668C612.948 138.796 612.784 138.86 612.576 138.86ZM612.036 139.772H613.092V146H612.036V139.772ZM616.805 146.12C616.349 146.12 615.913 146.056 615.497 145.928C615.089 145.792 614.757 145.612 614.501 145.388V144.44C614.749 144.68 615.081 144.872 615.497 145.016C615.921 145.16 616.353 145.232 616.793 145.232C617.769 145.232 618.257 144.916 618.257 144.284C618.257 144.1 618.213 143.952 618.125 143.84C618.045 143.72 617.893 143.62 617.669 143.54C617.445 143.452 617.121 143.368 616.697 143.288C615.889 143.128 615.325 142.912 615.005 142.64C614.685 142.36 614.525 141.964 614.525 141.452C614.525 140.884 614.745 140.444 615.185 140.132C615.625 139.812 616.233 139.652 617.009 139.652C617.377 139.652 617.737 139.692 618.089 139.772C618.449 139.844 618.741 139.944 618.965 140.072V141.02C618.501 140.7 617.861 140.54 617.045 140.54C616.541 140.54 616.169 140.612 615.929 140.756C615.697 140.9 615.581 141.124 615.581 141.428C615.581 141.588 615.617 141.72 615.689 141.824C615.761 141.928 615.905 142.02 616.121 142.1C616.337 142.18 616.661 142.264 617.093 142.352C617.645 142.464 618.081 142.6 618.401 142.76C618.729 142.912 618.961 143.108 619.097 143.348C619.241 143.588 619.313 143.892 619.313 144.26C619.313 144.844 619.093 145.3 618.653 145.628C618.213 145.956 617.597 146.12 616.805 146.12ZM625.702 146H624.418L622.222 143.348H621.67V146H620.614V137.396H621.67V142.448H622.27L624.454 139.772H625.654L623.098 142.844L625.702 146ZM632.569 146H631.477V138.752L629.101 140.576V139.364L631.657 137.396H632.569V146ZM638.027 146.12C637.483 146.12 636.995 145.964 636.563 145.652C636.131 145.34 635.791 144.86 635.543 144.212C635.303 143.556 635.183 142.716 635.183 141.692C635.183 140.66 635.303 139.82 635.543 139.172C635.791 138.524 636.131 138.048 636.563 137.744C636.995 137.44 637.483 137.288 638.027 137.288C638.571 137.288 639.055 137.44 639.479 137.744C639.903 138.048 640.235 138.524 640.475 139.172C640.715 139.812 640.835 140.644 640.835 141.668C640.835 142.684 640.715 143.524 640.475 144.188C640.235 144.844 639.903 145.332 639.479 145.652C639.055 145.964 638.571 146.12 638.027 146.12ZM638.015 145.172C638.375 145.172 638.679 145.064 638.927 144.848C639.183 144.624 639.375 144.26 639.503 143.756C639.639 143.244 639.707 142.56 639.707 141.704C639.707 140.848 639.643 140.168 639.515 139.664C639.387 139.152 639.195 138.788 638.939 138.572C638.691 138.348 638.387 138.236 638.027 138.236C637.667 138.236 637.359 138.348 637.103 138.572C636.847 138.788 636.651 139.152 636.515 139.664C636.379 140.168 636.311 140.848 636.311 141.704C636.311 142.56 636.375 143.244 636.503 143.756C636.639 144.26 636.835 144.624 637.091 144.848C637.347 145.064 637.655 145.172 638.015 145.172Z" fill="black" fill-opacity="0.85"/>
<rect x="587" y="172" width="70" height="40" rx="10" fill="#E3EBFF"/>
<path d="M603.707 187.396H606.599C607.175 187.396 607.711 187.464 608.207 187.6C608.703 187.736 609.135 187.96 609.503 188.272C609.871 188.576 610.159 188.984 610.367 189.496C610.575 190.008 610.679 190.644 610.679 191.404C610.679 192.412 610.495 193.26 610.127 193.948C609.767 194.628 609.271 195.14 608.639 195.484C608.007 195.828 607.283 196 606.467 196H603.707V187.396ZM606.467 194.98C607.059 194.98 607.579 194.86 608.027 194.62C608.475 194.372 608.823 193.992 609.071 193.48C609.327 192.96 609.455 192.296 609.455 191.488C609.455 190.68 609.331 190.056 609.083 189.616C608.835 189.176 608.495 188.868 608.063 188.692C607.639 188.516 607.151 188.428 606.599 188.428H604.835V194.98H606.467ZM612.576 188.86C612.36 188.86 612.188 188.796 612.06 188.668C611.932 188.532 611.868 188.368 611.868 188.176C611.868 187.984 611.932 187.82 612.06 187.684C612.188 187.548 612.36 187.48 612.576 187.48C612.784 187.48 612.948 187.548 613.068 187.684C613.188 187.82 613.248 187.984 613.248 188.176C613.248 188.368 613.188 188.532 613.068 188.668C612.948 188.796 612.784 188.86 612.576 188.86ZM612.036 189.772H613.092V196H612.036V189.772ZM616.805 196.12C616.349 196.12 615.913 196.056 615.497 195.928C615.089 195.792 614.757 195.612 614.501 195.388V194.44C614.749 194.68 615.081 194.872 615.497 195.016C615.921 195.16 616.353 195.232 616.793 195.232C617.769 195.232 618.257 194.916 618.257 194.284C618.257 194.1 618.213 193.952 618.125 193.84C618.045 193.72 617.893 193.62 617.669 193.54C617.445 193.452 617.121 193.368 616.697 193.288C615.889 193.128 615.325 192.912 615.005 192.64C614.685 192.36 614.525 191.964 614.525 191.452C614.525 190.884 614.745 190.444 615.185 190.132C615.625 189.812 616.233 189.652 617.009 189.652C617.377 189.652 617.737 189.692 618.089 189.772C618.449 189.844 618.741 189.944 618.965 190.072V191.02C618.501 190.7 617.861 190.54 617.045 190.54C616.541 190.54 616.169 190.612 615.929 190.756C615.697 190.9 615.581 191.124 615.581 191.428C615.581 191.588 615.617 191.72 615.689 191.824C615.761 191.928 615.905 192.02 616.121 192.1C616.337 192.18 616.661 192.264 617.093 192.352C617.645 192.464 618.081 192.6 618.401 192.76C618.729 192.912 618.961 193.108 619.097 193.348C619.241 193.588 619.313 193.892 619.313 194.26C619.313 194.844 619.093 195.3 618.653 195.628C618.213 195.956 617.597 196.12 616.805 196.12ZM625.702 196H624.418L622.222 193.348H621.67V196H620.614V187.396H621.67V192.448H622.27L624.454 189.772H625.654L623.098 192.844L625.702 196ZM632.569 196H631.477V188.752L629.101 190.576V189.364L631.657 187.396H632.569V196ZM639.167 196H638.075V188.752L635.699 190.576V189.364L638.255 187.396H639.167V196Z" fill="black" fill-opacity="0.85"/>
<rect x="31" y="83" width="94" height="192" rx="9" fill="white" stroke="#5282FF" stroke-width="2"/>
<path d="M61.5881 97.396H64.4681C65.4761 97.396 66.2481 97.596 66.7841 97.996C67.3201 98.388 67.5881 99.008 67.5881 99.856C67.5881 100.608 67.4081 101.184 67.0481 101.584C66.6881 101.976 66.2081 102.24 65.6081 102.376L67.9481 106H66.6761L64.4321 102.508H64.3601H62.7161V106H61.5881V97.396ZM64.3601 101.488C64.9761 101.488 65.4721 101.368 65.8481 101.128C66.2241 100.888 66.4121 100.456 66.4121 99.832C66.4121 99.32 66.2401 98.96 65.8961 98.752C65.5601 98.536 65.0841 98.428 64.4681 98.428H62.7161V101.488H64.3601ZM71.2553 100.588C70.5913 100.588 69.9193 100.792 69.2393 101.2V100.252C69.5353 100.068 69.8753 99.924 70.2593 99.82C70.6513 99.708 71.0313 99.652 71.3993 99.652C72.1833 99.652 72.7793 99.816 73.1873 100.144C73.5953 100.472 73.7993 100.972 73.7993 101.644V104.992C73.7993 105.128 73.8033 105.304 73.8113 105.52C73.8273 105.728 73.8433 105.888 73.8593 106H72.8993C72.8753 105.888 72.8513 105.732 72.8273 105.532C72.8113 105.324 72.8033 105.144 72.8033 104.992L72.7913 104.812C72.6953 105.004 72.5633 105.204 72.3953 105.412C72.2273 105.612 72.0033 105.78 71.7233 105.916C71.4513 106.052 71.1113 106.12 70.7033 106.12C70.1433 106.12 69.6913 105.96 69.3473 105.64C69.0033 105.32 68.8313 104.868 68.8313 104.284C68.8313 103.604 69.0713 103.104 69.5513 102.784C70.0313 102.464 70.7073 102.304 71.5793 102.304H72.7433V101.788C72.7433 101.356 72.6313 101.048 72.4073 100.864C72.1833 100.68 71.7993 100.588 71.2553 100.588ZM72.7433 103.6V103.144H71.6873C71.0553 103.144 70.5953 103.236 70.3073 103.42C70.0273 103.604 69.8873 103.872 69.8873 104.224C69.8873 104.504 69.9713 104.732 70.1393 104.908C70.3153 105.084 70.5793 105.172 70.9313 105.172C71.2593 105.172 71.5393 105.108 71.7713 104.98C72.0033 104.844 72.1913 104.684 72.3353 104.5C72.4793 104.308 72.5833 104.128 72.6473 103.96C72.7113 103.792 72.7433 103.672 72.7433 103.6ZM78.1477 106.12C77.1797 106.12 76.4157 105.836 75.8557 105.268C75.2957 104.692 75.0157 103.896 75.0157 102.88C75.0157 101.864 75.2997 101.072 75.8677 100.504C76.4357 99.936 77.2117 99.652 78.1957 99.652C78.5717 99.652 78.9237 99.696 79.2517 99.784C79.5797 99.864 79.8437 99.984 80.0437 100.144V101.092C79.4997 100.756 78.8877 100.588 78.2077 100.588C77.4877 100.588 76.9557 100.78 76.6117 101.164C76.2677 101.54 76.0957 102.112 76.0957 102.88C76.0957 103.648 76.2597 104.224 76.5877 104.608C76.9237 104.984 77.4437 105.172 78.1477 105.172C78.8277 105.172 79.4597 105.008 80.0437 104.68V105.628C79.5237 105.956 78.8917 106.12 78.1477 106.12ZM86.4188 106H85.1348L82.9388 103.348H82.3868V106H81.3308V97.396H82.3868V102.448H82.9868L85.1708 99.772H86.3708L83.8148 102.844L86.4188 106ZM93.2863 106H92.1943V98.752L89.8183 100.576V99.364L92.3743 97.396H93.2863V106Z" fill="black" fill-opacity="0.85"/>
<rect x="43" y="122" width="70" height="40" rx="10" fill="#E3EBFF"/>
<path d="M63.006 137.396H65.898C66.474 137.396 67.01 137.464 67.506 137.6C68.002 137.736 68.434 137.96 68.802 138.272C69.17 138.576 69.458 138.984 69.666 139.496C69.874 140.008 69.978 140.644 69.978 141.404C69.978 142.412 69.794 143.26 69.426 143.948C69.066 144.628 68.57 145.14 67.938 145.484C67.306 145.828 66.582 146 65.766 146H63.006V137.396ZM65.766 144.98C66.358 144.98 66.878 144.86 67.326 144.62C67.774 144.372 68.122 143.992 68.37 143.48C68.626 142.96 68.754 142.296 68.754 141.488C68.754 140.68 68.63 140.056 68.382 139.616C68.134 139.176 67.794 138.868 67.362 138.692C66.938 138.516 66.45 138.428 65.898 138.428H64.134V144.98H65.766ZM71.8747 138.86C71.6587 138.86 71.4867 138.796 71.3587 138.668C71.2307 138.532 71.1667 138.368 71.1667 138.176C71.1667 137.984 71.2307 137.82 71.3587 137.684C71.4867 137.548 71.6587 137.48 71.8747 137.48C72.0827 137.48 72.2467 137.548 72.3667 137.684C72.4867 137.82 72.5467 137.984 72.5467 138.176C72.5467 138.368 72.4867 138.532 72.3667 138.668C72.2467 138.796 72.0827 138.86 71.8747 138.86ZM71.3347 139.772H72.3907V146H71.3347V139.772ZM76.104 146.12C75.648 146.12 75.212 146.056 74.796 145.928C74.388 145.792 74.056 145.612 73.8 145.388V144.44C74.048 144.68 74.38 144.872 74.796 145.016C75.22 145.16 75.652 145.232 76.092 145.232C77.068 145.232 77.556 144.916 77.556 144.284C77.556 144.1 77.512 143.952 77.424 143.84C77.344 143.72 77.192 143.62 76.968 143.54C76.744 143.452 76.42 143.368 75.996 143.288C75.188 143.128 74.624 142.912 74.304 142.64C73.984 142.36 73.824 141.964 73.824 141.452C73.824 140.884 74.044 140.444 74.484 140.132C74.924 139.812 75.532 139.652 76.308 139.652C76.676 139.652 77.036 139.692 77.388 139.772C77.748 139.844 78.04 139.944 78.264 140.072V141.02C77.8 140.7 77.16 140.54 76.344 140.54C75.84 140.54 75.468 140.612 75.228 140.756C74.996 140.9 74.88 141.124 74.88 141.428C74.88 141.588 74.916 141.72 74.988 141.824C75.06 141.928 75.204 142.02 75.42 142.1C75.636 142.18 75.96 142.264 76.392 142.352C76.944 142.464 77.38 142.6 77.7 142.76C78.028 142.912 78.26 143.108 78.396 143.348C78.54 143.588 78.612 143.892 78.612 144.26C78.612 144.844 78.392 145.3 77.952 145.628C77.512 145.956 76.896 146.12 76.104 146.12ZM85.0008 146H83.7168L81.5208 143.348H80.9688V146H79.9128V137.396H80.9688V142.448H81.5688L83.7528 139.772H84.9528L82.3968 142.844L85.0008 146ZM91.8683 146H90.7763V138.752L88.4003 140.576V139.364L90.9563 137.396H91.8683V146Z" fill="black" fill-opacity="0.85"/>
<rect x="43" y="172" width="70" height="40" rx="10" fill="#E3EBFF"/>
<path d="M63.006 187.396H65.898C66.474 187.396 67.01 187.464 67.506 187.6C68.002 187.736 68.434 187.96 68.802 188.272C69.17 188.576 69.458 188.984 69.666 189.496C69.874 190.008 69.978 190.644 69.978 191.404C69.978 192.412 69.794 193.26 69.426 193.948C69.066 194.628 68.57 195.14 67.938 195.484C67.306 195.828 66.582 196 65.766 196H63.006V187.396ZM65.766 194.98C66.358 194.98 66.878 194.86 67.326 194.62C67.774 194.372 68.122 193.992 68.37 193.48C68.626 192.96 68.754 192.296 68.754 191.488C68.754 190.68 68.63 190.056 68.382 189.616C68.134 189.176 67.794 188.868 67.362 188.692C66.938 188.516 66.45 188.428 65.898 188.428H64.134V194.98H65.766ZM71.8747 188.86C71.6587 188.86 71.4867 188.796 71.3587 188.668C71.2307 188.532 71.1667 188.368 71.1667 188.176C71.1667 187.984 71.2307 187.82 71.3587 187.684C71.4867 187.548 71.6587 187.48 71.8747 187.48C72.0827 187.48 72.2467 187.548 72.3667 187.684C72.4867 187.82 72.5467 187.984 72.5467 188.176C72.5467 188.368 72.4867 188.532 72.3667 188.668C72.2467 188.796 72.0827 188.86 71.8747 188.86ZM71.3347 189.772H72.3907V196H71.3347V189.772ZM76.104 196.12C75.648 196.12 75.212 196.056 74.796 195.928C74.388 195.792 74.056 195.612 73.8 195.388V194.44C74.048 194.68 74.38 194.872 74.796 195.016C75.22 195.16 75.652 195.232 76.092 195.232C77.068 195.232 77.556 194.916 77.556 194.284C77.556 194.1 77.512 193.952 77.424 193.84C77.344 193.72 77.192 193.62 76.968 193.54C76.744 193.452 76.42 193.368 75.996 193.288C75.188 193.128 74.624 192.912 74.304 192.64C73.984 192.36 73.824 191.964 73.824 191.452C73.824 190.884 74.044 190.444 74.484 190.132C74.924 189.812 75.532 189.652 76.308 189.652C76.676 189.652 77.036 189.692 77.388 189.772C77.748 189.844 78.04 189.944 78.264 190.072V191.02C77.8 190.7 77.16 190.54 76.344 190.54C75.84 190.54 75.468 190.612 75.228 190.756C74.996 190.9 74.88 191.124 74.88 191.428C74.88 191.588 74.916 191.72 74.988 191.824C75.06 191.928 75.204 192.02 75.42 192.1C75.636 192.18 75.96 192.264 76.392 192.352C76.944 192.464 77.38 192.6 77.7 192.76C78.028 192.912 78.26 193.108 78.396 193.348C78.54 193.588 78.612 193.892 78.612 194.26C78.612 194.844 78.392 195.3 77.952 195.628C77.512 195.956 76.896 196.12 76.104 196.12ZM85.0008 196H83.7168L81.5208 193.348H80.9688V196H79.9128V187.396H80.9688V192.448H81.5688L83.7528 189.772H84.9528L82.3968 192.844L85.0008 196ZM93.4763 196H87.9923V194.86C88.8483 194.172 89.5483 193.584 90.0923 193.096C90.6443 192.608 91.0723 192.184 91.3763 191.824C91.6883 191.456 91.9043 191.116 92.0243 190.804C92.1523 190.492 92.2163 190.176 92.2163 189.856C92.2163 189.36 92.0683 188.972 91.7723 188.692C91.4763 188.412 91.0683 188.272 90.5483 188.272C89.7163 188.272 88.9403 188.668 88.2203 189.46V188.248C88.8843 187.6 89.6723 187.276 90.5843 187.276C91.4483 187.276 92.1283 187.5 92.6243 187.948C93.1283 188.388 93.3803 188.988 93.3803 189.748C93.3803 190.14 93.3163 190.516 93.1883 190.876C93.0683 191.228 92.8523 191.6 92.5403 191.992C92.2363 192.376 91.8163 192.808 91.2803 193.288C90.7443 193.768 90.0643 194.328 89.2403 194.968H93.4763V196Z" fill="black" fill-opacity="0.85"/>
<rect x="43" y="222" width="70" height="40" rx="10" fill="#E3EBFF"/>
<path d="M63.006 237.396H65.898C66.474 237.396 67.01 237.464 67.506 237.6C68.002 237.736 68.434 237.96 68.802 238.272C69.17 238.576 69.458 238.984 69.666 239.496C69.874 240.008 69.978 240.644 69.978 241.404C69.978 242.412 69.794 243.26 69.426 243.948C69.066 244.628 68.57 245.14 67.938 245.484C67.306 245.828 66.582 246 65.766 246H63.006V237.396ZM65.766 244.98C66.358 244.98 66.878 244.86 67.326 244.62C67.774 244.372 68.122 243.992 68.37 243.48C68.626 242.96 68.754 242.296 68.754 241.488C68.754 240.68 68.63 240.056 68.382 239.616C68.134 239.176 67.794 238.868 67.362 238.692C66.938 238.516 66.45 238.428 65.898 238.428H64.134V244.98H65.766ZM71.8747 238.86C71.6587 238.86 71.4867 238.796 71.3587 238.668C71.2307 238.532 71.1667 238.368 71.1667 238.176C71.1667 237.984 71.2307 237.82 71.3587 237.684C71.4867 237.548 71.6587 237.48 71.8747 237.48C72.0827 237.48 72.2467 237.548 72.3667 237.684C72.4867 237.82 72.5467 237.984 72.5467 238.176C72.5467 238.368 72.4867 238.532 72.3667 238.668C72.2467 238.796 72.0827 238.86 71.8747 238.86ZM71.3347 239.772H72.3907V246H71.3347V239.772ZM76.104 246.12C75.648 246.12 75.212 246.056 74.796 245.928C74.388 245.792 74.056 245.612 73.8 245.388V244.44C74.048 244.68 74.38 244.872 74.796 245.016C75.22 245.16 75.652 245.232 76.092 245.232C77.068 245.232 77.556 244.916 77.556 244.284C77.556 244.1 77.512 243.952 77.424 243.84C77.344 243.72 77.192 243.62 76.968 243.54C76.744 243.452 76.42 243.368 75.996 243.288C75.188 243.128 74.624 242.912 74.304 242.64C73.984 242.36 73.824 241.964 73.824 241.452C73.824 240.884 74.044 240.444 74.484 240.132C74.924 239.812 75.532 239.652 76.308 239.652C76.676 239.652 77.036 239.692 77.388 239.772C77.748 239.844 78.04 239.944 78.264 240.072V241.02C77.8 240.7 77.16 240.54 76.344 240.54C75.84 240.54 75.468 240.612 75.228 240.756C74.996 240.9 74.88 241.124 74.88 241.428C74.88 241.588 74.916 241.72 74.988 241.824C75.06 241.928 75.204 242.02 75.42 242.1C75.636 242.18 75.96 242.264 76.392 242.352C76.944 242.464 77.38 242.6 77.7 242.76C78.028 242.912 78.26 243.108 78.396 243.348C78.54 243.588 78.612 243.892 78.612 244.26C78.612 244.844 78.392 245.3 77.952 245.628C77.512 245.956 76.896 246.12 76.104 246.12ZM85.0008 246H83.7168L81.5208 243.348H80.9688V246H79.9128V237.396H80.9688V242.448H81.5688L83.7528 239.772H84.9528L82.3968 242.844L85.0008 246ZM89.3963 242.016V240.996H90.5483C90.9963 240.996 91.3603 240.876 91.6403 240.636C91.9283 240.388 92.0723 240.04 92.0723 239.592C92.0723 239.184 91.9403 238.864 91.6763 238.632C91.4123 238.392 91.0323 238.272 90.5363 238.272C90.1203 238.272 89.7283 238.348 89.3603 238.5C89.0003 238.652 88.6243 238.896 88.2323 239.232V238.056C88.8723 237.536 89.6443 237.276 90.5483 237.276C91.3723 237.276 92.0163 237.484 92.4803 237.9C92.9523 238.316 93.1883 238.86 93.1883 239.532C93.1883 240.076 93.0363 240.508 92.7323 240.828C92.4363 241.148 92.0803 241.36 91.6643 241.464C92.0003 241.512 92.3083 241.628 92.5883 241.812C92.8763 241.988 93.1083 242.22 93.2843 242.508C93.4603 242.796 93.5483 243.132 93.5483 243.516C93.5483 244.044 93.4163 244.504 93.1523 244.896C92.8883 245.288 92.5243 245.592 92.0603 245.808C91.6043 246.016 91.0723 246.12 90.4643 246.12C89.4083 246.12 88.5923 245.876 88.0163 245.388V244.188C88.3203 244.484 88.6883 244.716 89.1203 244.884C89.5523 245.052 90.0043 245.136 90.4763 245.136C91.0683 245.136 91.5323 244.996 91.8683 244.716C92.2123 244.428 92.3843 244.036 92.3843 243.54C92.3843 243.06 92.2283 242.688 91.9163 242.424C91.6123 242.152 91.1403 242.016 90.5003 242.016H89.3963Z" fill="black" fill-opacity="0.85"/>
<rect x="439" y="83" width="94" height="192" rx="9" fill="white" stroke="#5282FF" stroke-width="2"/>
<path d="M469.588 97.396H472.468C473.476 97.396 474.248 97.596 474.784 97.996C475.32 98.388 475.588 99.008 475.588 99.856C475.588 100.608 475.408 101.184 475.048 101.584C474.688 101.976 474.208 102.24 473.608 102.376L475.948 106H474.676L472.432 102.508H472.36H470.716V106H469.588V97.396ZM472.36 101.488C472.976 101.488 473.472 101.368 473.848 101.128C474.224 100.888 474.412 100.456 474.412 99.832C474.412 99.32 474.24 98.96 473.896 98.752C473.56 98.536 473.084 98.428 472.468 98.428H470.716V101.488H472.36ZM479.255 100.588C478.591 100.588 477.919 100.792 477.239 101.2V100.252C477.535 100.068 477.875 99.924 478.259 99.82C478.651 99.708 479.031 99.652 479.399 99.652C480.183 99.652 480.779 99.816 481.187 100.144C481.595 100.472 481.799 100.972 481.799 101.644V104.992C481.799 105.128 481.803 105.304 481.811 105.52C481.827 105.728 481.843 105.888 481.859 106H480.899C480.875 105.888 480.851 105.732 480.827 105.532C480.811 105.324 480.803 105.144 480.803 104.992L480.791 104.812C480.695 105.004 480.563 105.204 480.395 105.412C480.227 105.612 480.003 105.78 479.723 105.916C479.451 106.052 479.111 106.12 478.703 106.12C478.143 106.12 477.691 105.96 477.347 105.64C477.003 105.32 476.831 104.868 476.831 104.284C476.831 103.604 477.071 103.104 477.551 102.784C478.031 102.464 478.707 102.304 479.579 102.304H480.743V101.788C480.743 101.356 480.631 101.048 480.407 100.864C480.183 100.68 479.799 100.588 479.255 100.588ZM480.743 103.6V103.144H479.687C479.055 103.144 478.595 103.236 478.307 103.42C478.027 103.604 477.887 103.872 477.887 104.224C477.887 104.504 477.971 104.732 478.139 104.908C478.315 105.084 478.579 105.172 478.931 105.172C479.259 105.172 479.539 105.108 479.771 104.98C480.003 104.844 480.191 104.684 480.335 104.5C480.479 104.308 480.583 104.128 480.647 103.96C480.711 103.792 480.743 103.672 480.743 103.6ZM486.148 106.12C485.18 106.12 484.416 105.836 483.856 105.268C483.296 104.692 483.016 103.896 483.016 102.88C483.016 101.864 483.3 101.072 483.868 100.504C484.436 99.936 485.212 99.652 486.196 99.652C486.572 99.652 486.924 99.696 487.252 99.784C487.58 99.864 487.844 99.984 488.044 100.144V101.092C487.5 100.756 486.888 100.588 486.208 100.588C485.488 100.588 484.956 100.78 484.612 101.164C484.268 101.54 484.096 102.112 484.096 102.88C484.096 103.648 484.26 104.224 484.588 104.608C484.924 104.984 485.444 105.172 486.148 105.172C486.828 105.172 487.46 105.008 488.044 104.68V105.628C487.524 105.956 486.892 106.12 486.148 106.12ZM494.419 106H493.135L490.939 103.348H490.387V106H489.331V97.396H490.387V102.448H490.987L493.171 99.772H494.371L491.815 102.844L494.419 106ZM501.922 106H500.866V103.96H497.146V103.216L500.506 97.396H501.922V103.048H503.086V103.96H501.922V106ZM498.238 103.048H500.866V98.572L498.238 103.048Z" fill="black" fill-opacity="0.85"/>
<rect x="451" y="122" width="70" height="40" rx="10" fill="#E3EBFF"/>
<path d="M471.006 137.396H473.898C474.474 137.396 475.01 137.464 475.506 137.6C476.002 137.736 476.434 137.96 476.802 138.272C477.17 138.576 477.458 138.984 477.666 139.496C477.874 140.008 477.978 140.644 477.978 141.404C477.978 142.412 477.794 143.26 477.426 143.948C477.066 144.628 476.57 145.14 475.938 145.484C475.306 145.828 474.582 146 473.766 146H471.006V137.396ZM473.766 144.98C474.358 144.98 474.878 144.86 475.326 144.62C475.774 144.372 476.122 143.992 476.37 143.48C476.626 142.96 476.754 142.296 476.754 141.488C476.754 140.68 476.63 140.056 476.382 139.616C476.134 139.176 475.794 138.868 475.362 138.692C474.938 138.516 474.45 138.428 473.898 138.428H472.134V144.98H473.766ZM479.875 138.86C479.659 138.86 479.487 138.796 479.359 138.668C479.231 138.532 479.167 138.368 479.167 138.176C479.167 137.984 479.231 137.82 479.359 137.684C479.487 137.548 479.659 137.48 479.875 137.48C480.083 137.48 480.247 137.548 480.367 137.684C480.487 137.82 480.547 137.984 480.547 138.176C480.547 138.368 480.487 138.532 480.367 138.668C480.247 138.796 480.083 138.86 479.875 138.86ZM479.335 139.772H480.391V146H479.335V139.772ZM484.104 146.12C483.648 146.12 483.212 146.056 482.796 145.928C482.388 145.792 482.056 145.612 481.8 145.388V144.44C482.048 144.68 482.38 144.872 482.796 145.016C483.22 145.16 483.652 145.232 484.092 145.232C485.068 145.232 485.556 144.916 485.556 144.284C485.556 144.1 485.512 143.952 485.424 143.84C485.344 143.72 485.192 143.62 484.968 143.54C484.744 143.452 484.42 143.368 483.996 143.288C483.188 143.128 482.624 142.912 482.304 142.64C481.984 142.36 481.824 141.964 481.824 141.452C481.824 140.884 482.044 140.444 482.484 140.132C482.924 139.812 483.532 139.652 484.308 139.652C484.676 139.652 485.036 139.692 485.388 139.772C485.748 139.844 486.04 139.944 486.264 140.072V141.02C485.8 140.7 485.16 140.54 484.344 140.54C483.84 140.54 483.468 140.612 483.228 140.756C482.996 140.9 482.88 141.124 482.88 141.428C482.88 141.588 482.916 141.72 482.988 141.824C483.06 141.928 483.204 142.02 483.42 142.1C483.636 142.18 483.96 142.264 484.392 142.352C484.944 142.464 485.38 142.6 485.7 142.76C486.028 142.912 486.26 143.108 486.396 143.348C486.54 143.588 486.612 143.892 486.612 144.26C486.612 144.844 486.392 145.3 485.952 145.628C485.512 145.956 484.896 146.12 484.104 146.12ZM493.001 146H491.717L489.521 143.348H488.969V146H487.913V137.396H488.969V142.448H489.569L491.753 139.772H492.953L490.397 142.844L493.001 146ZM501.476 138.368L497.828 146H496.652L500.324 138.428H495.944V137.396H501.476V138.368Z" fill="black" fill-opacity="0.85"/>
<rect x="451" y="172" width="70" height="40" rx="10" fill="#E3EBFF"/>
<path d="M471.006 187.396H473.898C474.474 187.396 475.01 187.464 475.506 187.6C476.002 187.736 476.434 187.96 476.802 188.272C477.17 188.576 477.458 188.984 477.666 189.496C477.874 190.008 477.978 190.644 477.978 191.404C477.978 192.412 477.794 193.26 477.426 193.948C477.066 194.628 476.57 195.14 475.938 195.484C475.306 195.828 474.582 196 473.766 196H471.006V187.396ZM473.766 194.98C474.358 194.98 474.878 194.86 475.326 194.62C475.774 194.372 476.122 193.992 476.37 193.48C476.626 192.96 476.754 192.296 476.754 191.488C476.754 190.68 476.63 190.056 476.382 189.616C476.134 189.176 475.794 188.868 475.362 188.692C474.938 188.516 474.45 188.428 473.898 188.428H472.134V194.98H473.766ZM479.875 188.86C479.659 188.86 479.487 188.796 479.359 188.668C479.231 188.532 479.167 188.368 479.167 188.176C479.167 187.984 479.231 187.82 479.359 187.684C479.487 187.548 479.659 187.48 479.875 187.48C480.083 187.48 480.247 187.548 480.367 187.684C480.487 187.82 480.547 187.984 480.547 188.176C480.547 188.368 480.487 188.532 480.367 188.668C480.247 188.796 480.083 188.86 479.875 188.86ZM479.335 189.772H480.391V196H479.335V189.772ZM484.104 196.12C483.648 196.12 483.212 196.056 482.796 195.928C482.388 195.792 482.056 195.612 481.8 195.388V194.44C482.048 194.68 482.38 194.872 482.796 195.016C483.22 195.16 483.652 195.232 484.092 195.232C485.068 195.232 485.556 194.916 485.556 194.284C485.556 194.1 485.512 193.952 485.424 193.84C485.344 193.72 485.192 193.62 484.968 193.54C484.744 193.452 484.42 193.368 483.996 193.288C483.188 193.128 482.624 192.912 482.304 192.64C481.984 192.36 481.824 191.964 481.824 191.452C481.824 190.884 482.044 190.444 482.484 190.132C482.924 189.812 483.532 189.652 484.308 189.652C484.676 189.652 485.036 189.692 485.388 189.772C485.748 189.844 486.04 189.944 486.264 190.072V191.02C485.8 190.7 485.16 190.54 484.344 190.54C483.84 190.54 483.468 190.612 483.228 190.756C482.996 190.9 482.88 191.124 482.88 191.428C482.88 191.588 482.916 191.72 482.988 191.824C483.06 191.928 483.204 192.02 483.42 192.1C483.636 192.18 483.96 192.264 484.392 192.352C484.944 192.464 485.38 192.6 485.7 192.76C486.028 192.912 486.26 193.108 486.396 193.348C486.54 193.588 486.612 193.892 486.612 194.26C486.612 194.844 486.392 195.3 485.952 195.628C485.512 195.956 484.896 196.12 484.104 196.12ZM493.001 196H491.717L489.521 193.348H488.969V196H487.913V187.396H488.969V192.448H489.569L491.753 189.772H492.953L490.397 192.844L493.001 196ZM498.74 196.12C498.18 196.12 497.68 196.024 497.24 195.832C496.808 195.64 496.468 195.364 496.22 195.004C495.972 194.636 495.848 194.196 495.848 193.684C495.848 193.132 495.992 192.664 496.28 192.28C496.576 191.888 496.972 191.604 497.468 191.428C497.068 191.268 496.748 191.024 496.508 190.696C496.276 190.368 496.16 189.964 496.16 189.484C496.16 189.012 496.272 188.612 496.496 188.284C496.72 187.956 497.028 187.708 497.42 187.54C497.812 187.372 498.252 187.288 498.74 187.288C499.22 187.288 499.652 187.372 500.036 187.54C500.42 187.7 500.724 187.94 500.948 188.26C501.18 188.58 501.296 188.98 501.296 189.46C501.296 189.948 501.176 190.356 500.936 190.684C500.696 191.012 500.38 191.26 499.988 191.428C500.468 191.596 500.852 191.868 501.14 192.244C501.436 192.62 501.584 193.088 501.584 193.648C501.584 194.16 501.46 194.604 501.212 194.98C500.964 195.348 500.624 195.632 500.192 195.832C499.768 196.024 499.284 196.12 498.74 196.12ZM498.74 190.996C499.164 190.996 499.512 190.876 499.784 190.636C500.064 190.388 500.204 190.048 500.204 189.616C500.204 189.184 500.064 188.848 499.784 188.608C499.512 188.36 499.164 188.236 498.74 188.236C498.316 188.236 497.96 188.36 497.672 188.608C497.392 188.848 497.252 189.184 497.252 189.616C497.252 190.048 497.392 190.388 497.672 190.636C497.96 190.876 498.316 190.996 498.74 190.996ZM498.74 195.172C499.236 195.172 499.648 195.028 499.976 194.74C500.312 194.444 500.48 194.032 500.48 193.504C500.48 192.976 500.312 192.568 499.976 192.28C499.648 191.984 499.236 191.836 498.74 191.836C498.228 191.836 497.8 191.984 497.456 192.28C497.12 192.568 496.952 192.976 496.952 193.504C496.952 194.032 497.12 194.444 497.456 194.74C497.8 195.028 498.228 195.172 498.74 195.172Z" fill="black" fill-opacity="0.85"/>
<rect x="451" y="222" width="70" height="40" rx="10" fill="#E3EBFF"/>
<path d="M471.006 237.396H473.898C474.474 237.396 475.01 237.464 475.506 237.6C476.002 237.736 476.434 237.96 476.802 238.272C477.17 238.576 477.458 238.984 477.666 239.496C477.874 240.008 477.978 240.644 477.978 241.404C477.978 242.412 477.794 243.26 477.426 243.948C477.066 244.628 476.57 245.14 475.938 245.484C475.306 245.828 474.582 246 473.766 246H471.006V237.396ZM473.766 244.98C474.358 244.98 474.878 244.86 475.326 244.62C475.774 244.372 476.122 243.992 476.37 243.48C476.626 242.96 476.754 242.296 476.754 241.488C476.754 240.68 476.63 240.056 476.382 239.616C476.134 239.176 475.794 238.868 475.362 238.692C474.938 238.516 474.45 238.428 473.898 238.428H472.134V244.98H473.766ZM479.875 238.86C479.659 238.86 479.487 238.796 479.359 238.668C479.231 238.532 479.167 238.368 479.167 238.176C479.167 237.984 479.231 237.82 479.359 237.684C479.487 237.548 479.659 237.48 479.875 237.48C480.083 237.48 480.247 237.548 480.367 237.684C480.487 237.82 480.547 237.984 480.547 238.176C480.547 238.368 480.487 238.532 480.367 238.668C480.247 238.796 480.083 238.86 479.875 238.86ZM479.335 239.772H480.391V246H479.335V239.772ZM484.104 246.12C483.648 246.12 483.212 246.056 482.796 245.928C482.388 245.792 482.056 245.612 481.8 245.388V244.44C482.048 244.68 482.38 244.872 482.796 245.016C483.22 245.16 483.652 245.232 484.092 245.232C485.068 245.232 485.556 244.916 485.556 244.284C485.556 244.1 485.512 243.952 485.424 243.84C485.344 243.72 485.192 243.62 484.968 243.54C484.744 243.452 484.42 243.368 483.996 243.288C483.188 243.128 482.624 242.912 482.304 242.64C481.984 242.36 481.824 241.964 481.824 241.452C481.824 240.884 482.044 240.444 482.484 240.132C482.924 239.812 483.532 239.652 484.308 239.652C484.676 239.652 485.036 239.692 485.388 239.772C485.748 239.844 486.04 239.944 486.264 240.072V241.02C485.8 240.7 485.16 240.54 484.344 240.54C483.84 240.54 483.468 240.612 483.228 240.756C482.996 240.9 482.88 241.124 482.88 241.428C482.88 241.588 482.916 241.72 482.988 241.824C483.06 241.928 483.204 242.02 483.42 242.1C483.636 242.18 483.96 242.264 484.392 242.352C484.944 242.464 485.38 242.6 485.7 242.76C486.028 242.912 486.26 243.108 486.396 243.348C486.54 243.588 486.612 243.892 486.612 244.26C486.612 244.844 486.392 245.3 485.952 245.628C485.512 245.956 484.896 246.12 484.104 246.12ZM493.001 246H491.717L489.521 243.348H488.969V246H487.913V237.396H488.969V242.448H489.569L491.753 239.772H492.953L490.397 242.844L493.001 246ZM495.8 240.156C495.8 239.58 495.924 239.076 496.172 238.644C496.428 238.212 496.772 237.876 497.204 237.636C497.636 237.396 498.12 237.276 498.656 237.276C499.376 237.276 499.956 237.432 500.396 237.744C500.844 238.048 501.168 238.476 501.368 239.028C501.568 239.572 501.668 240.204 501.668 240.924C501.668 242.004 501.544 242.932 501.296 243.708C501.048 244.484 500.664 245.08 500.144 245.496C499.632 245.912 498.976 246.12 498.176 246.12C497.456 246.12 496.84 245.972 496.328 245.676V244.62C496.872 244.972 497.488 245.148 498.176 245.148C498.672 245.148 499.088 245.012 499.424 244.74C499.76 244.468 500.02 244.1 500.204 243.636C500.396 243.172 500.512 242.652 500.552 242.076C500.304 242.388 500.008 242.62 499.664 242.772C499.32 242.916 498.948 242.988 498.548 242.988C498.036 242.988 497.572 242.88 497.156 242.664C496.74 242.448 496.408 242.128 496.16 241.704C495.92 241.28 495.8 240.764 495.8 240.156ZM498.692 238.248C498.388 238.248 498.1 238.32 497.828 238.464C497.564 238.6 497.348 238.808 497.18 239.088C497.02 239.36 496.94 239.708 496.94 240.132C496.94 240.548 497.02 240.9 497.18 241.188C497.34 241.476 497.544 241.692 497.792 241.836C498.04 241.98 498.3 242.052 498.572 242.052C499.1 242.052 499.54 241.888 499.892 241.56C500.252 241.224 500.432 240.74 500.432 240.108C500.432 239.548 500.276 239.1 499.964 238.764C499.652 238.42 499.228 238.248 498.692 238.248Z" fill="black" fill-opacity="0.85"/>
<defs>
<filter id="filter0_d_28_151" x="8" y="34" width="276" height="264" filterUnits="userSpaceOnUse" color-interpolation-filters="sRGB">
<feFlood flood-opacity="0" result="BackgroundImageFix"/>
<feColorMatrix in="SourceAlpha" type="matrix" values="0 0 0 0 0 0 0 0 0 0 0 0 0 0 0 0 0 0 127 0" result="hardAlpha"/>
<feOffset/>
<feGaussianBlur stdDeviation="4"/>
<feColorMatrix type="matrix" values="0 0 0 0 0.321569 0 0 0 0 0.509804 0 0 0 0 1 0 0 0 0.2 0"/>
<feBlend mode="normal" in2="BackgroundImageFix" result="effect1_dropShadow_28_151"/>
<feBlend mode="normal" in="SourceGraphic" in2="effect1_dropShadow_28_151" result="shape"/>
</filter>
<filter id="filter1_d_28_151" x="280" y="34" width="140" height="264" filterUnits="userSpaceOnUse" color-interpolation-filters="sRGB">
<feFlood flood-opacity="0" result="BackgroundImageFix"/>
<feColorMatrix in="SourceAlpha" type="matrix" values="0 0 0 0 0 0 0 0 0 0 0 0 0 0 0 0 0 0 127 0" result="hardAlpha"/>
<feOffset/>
<feGaussianBlur stdDeviation="4"/>
<feColorMatrix type="matrix" values="0 0 0 0 0.321569 0 0 0 0 0.509804 0 0 0 0 1 0 0 0 0.2 0"/>
<feBlend mode="normal" in2="BackgroundImageFix" result="effect1_dropShadow_28_151"/>
<feBlend mode="normal" in="SourceGraphic" in2="effect1_dropShadow_28_151" result="shape"/>
</filter>
<filter id="filter2_d_28_151" x="416" y="34" width="276" height="264" filterUnits="userSpaceOnUse" color-interpolation-filters="sRGB">
<feFlood flood-opacity="0" result="BackgroundImageFix"/>
<feColorMatrix in="SourceAlpha" type="matrix" values="0 0 0 0 0 0 0 0 0 0 0 0 0 0 0 0 0 0 127 0" result="hardAlpha"/>
<feOffset/>
<feGaussianBlur stdDeviation="4"/>
<feColorMatrix type="matrix" values="0 0 0 0 0.321569 0 0 0 0 0.509804 0 0 0 0 1 0 0 0 0.2 0"/>
<feBlend mode="normal" in2="BackgroundImageFix" result="effect1_dropShadow_28_151"/>
<feBlend mode="normal" in="SourceGraphic" in2="effect1_dropShadow_28_151" result="shape"/>
</filter>
</defs>
</svg>
