<svg xmlns="http://www.w3.org/2000/svg" width="700" height="295" fill="none" viewBox="0 0 700 295">
    <g filter="url(#filter0_d_5_122)">
        <rect width="660" height="267" x="20" y="20" fill="#fff" rx="10"/>
    </g>
    <path fill="#000" d="M140.85 263.962h1.96L146.408 274h-1.4l-1.036-2.87h-4.438l-1.022 2.87h-1.232l3.57-10.038Zm2.702 5.978-1.792-4.998-1.792 4.998h3.584Zm7.338 4.06h-1.988l-2.492-7.266h1.33l2.212 6.608 2.198-6.608h1.232L150.89 274Zm7.821-1.386a4.24 4.24 0 0 1-.322.532 2.419 2.419 0 0 1-1.19.854c-.261.093-.569.14-.924.14-.653 0-1.18-.182-1.582-.546-.401-.373-.602-.905-.602-1.596 0-.793.276-1.377.826-1.75.56-.373 1.354-.56 2.38-.56h1.358v-.602c0-.504-.13-.863-.392-1.078-.261-.215-.709-.322-1.344-.322-.448 0-.872.075-1.274.224-.401.14-.76.303-1.078.49v-1.106a5.438 5.438 0 0 1 1.05-.462 4.367 4.367 0 0 1 1.47-.238c.915 0 1.61.191 2.086.574.476.373.714.957.714 1.75v4.2c.01.103.014.21.014.322l.028.322c.01.093.019.173.028.238h-1.12a6.439 6.439 0 0 1-.084-.546 8.754 8.754 0 0 1-.028-.63l-.014-.21Zm-2.17.42c.383 0 .71-.079.98-.238.271-.159.49-.341.658-.546.168-.215.29-.42.364-.616.075-.205.112-.35.112-.434v-.532h-1.232c-.737 0-1.274.107-1.61.322-.326.205-.49.518-.49.938 0 .327.098.593.294.798.196.205.504.308.924.308Zm5.913-7.364c-.252 0-.452-.075-.602-.224a.81.81 0 0 1-.224-.574.81.81 0 0 1 .224-.574c.15-.159.35-.238.602-.238.243 0 .434.079.574.238.14.159.21.35.21.574 0 .224-.07.415-.21.574-.14.149-.331.224-.574.224Zm.602 1.064V274h-1.232v-7.266h1.232Zm3.241-2.772V274h-1.232v-10.038h1.232Zm6.264 8.652a4.24 4.24 0 0 1-.322.532 2.444 2.444 0 0 1-1.19.854c-.261.093-.569.14-.924.14-.653 0-1.181-.182-1.582-.546-.401-.373-.602-.905-.602-1.596 0-.793.275-1.377.826-1.75.56-.373 1.353-.56 2.38-.56h1.358v-.602c0-.504-.131-.863-.392-1.078-.261-.215-.709-.322-1.344-.322a3.63 3.63 0 0 0-1.274.224c-.401.14-.761.303-1.078.49v-1.106a5.383 5.383 0 0 1 1.05-.462 4.367 4.367 0 0 1 1.47-.238c.915 0 1.61.191 2.086.574.476.373.714.957.714 1.75v4.2c.009.103.014.21.014.322l.028.322c.009.093.019.173.028.238h-1.12a6.439 6.439 0 0 1-.084-.546 8.21 8.21 0 0 1-.028-.63l-.014-.21Zm-2.17.42c.383 0 .709-.079.98-.238.271-.159.49-.341.658-.546.168-.215.289-.42.364-.616.075-.205.112-.35.112-.434v-.532h-1.232c-.737 0-1.274.107-1.61.322-.327.205-.49.518-.49.938 0 .327.098.593.294.798.196.205.504.308.924.308Zm12.185-2.674c0 .644-.089 1.204-.266 1.68a3.494 3.494 0 0 1-.714 1.176 3.002 3.002 0 0 1-1.036.7 3.44 3.44 0 0 1-1.232.224c-.56 0-1.05-.131-1.47-.392a2.872 2.872 0 0 1-.98-1.12l-.042 1.372h-1.162v-10.038h1.232l-.028 4.186a2.98 2.98 0 0 1 .98-1.134c.411-.28.919-.42 1.526-.42.42 0 .821.079 1.204.238.392.149.733.383 1.022.7.299.308.532.7.7 1.176.177.467.266 1.017.266 1.652Zm-3.43 2.674c.644 0 1.162-.219 1.554-.658.401-.448.602-1.12.602-2.016 0-.877-.201-1.54-.602-1.988-.392-.457-.91-.686-1.554-.686-.317 0-.616.056-.896.168a1.99 1.99 0 0 0-.714.504c-.196.215-.355.49-.476.826a3.723 3.723 0 0 0-.168 1.176c0 .448.056.84.168 1.176.121.336.28.616.476.84.205.224.443.392.714.504.28.103.579.154.896.154Zm6.155-9.072V274h-1.232v-10.038h1.232Zm7.79 9.422a3.919 3.919 0 0 1-.378.238c-.15.084-.332.168-.546.252a4.632 4.632 0 0 1-.728.182 4.51 4.51 0 0 1-.91.084c-1.223 0-2.152-.331-2.786-.994-.635-.663-.952-1.591-.952-2.786 0-.588.084-1.115.252-1.582.177-.467.42-.859.728-1.176a3.024 3.024 0 0 1 1.092-.742c.42-.177.877-.266 1.372-.266.522 0 .989.089 1.4.266.41.177.746.439 1.008.784.27.345.452.775.546 1.288.102.504.102 1.092 0 1.764h-5.124c.046.784.28 1.372.7 1.764.42.383 1.045.574 1.876.574.56 0 1.04-.079 1.442-.238a5.07 5.07 0 0 0 1.008-.518v1.106Zm-2.884-5.698c-.532 0-.99.163-1.372.49-.383.327-.626.821-.728 1.484h3.906c.037-.672-.117-1.167-.462-1.484-.346-.327-.794-.49-1.344-.49Zm11.158 6.16c-.15.084-.341.154-.574.21a3.177 3.177 0 0 1-.742.084c-.355 0-.658-.051-.91-.154a1.75 1.75 0 0 1-.602-.406 1.705 1.705 0 0 1-.35-.588 2.416 2.416 0 0 1-.098-.686v-4.522h-.868v-1.05h.868v-1.526h1.232v1.526h2.114v1.05h-2.114v4.368c0 .308.074.532.224.672.158.14.434.21.826.21.364 0 .695-.103.994-.308v1.12Zm4.553.294c-.495 0-.957-.084-1.386-.252a3.224 3.224 0 0 1-1.12-.728 3.542 3.542 0 0 1-.728-1.19c-.178-.467-.266-1.003-.266-1.61 0-.597.088-1.129.266-1.596.177-.476.42-.873.728-1.19.317-.317.69-.56 1.12-.728a3.767 3.767 0 0 1 1.386-.252c.504 0 .97.084 1.4.252.429.168.798.411 1.106.728.317.317.564.714.742 1.19.186.467.28.999.28 1.596 0 .607-.094 1.143-.28 1.61a3.448 3.448 0 0 1-.742 1.19c-.308.317-.677.56-1.106.728-.43.168-.896.252-1.4.252Zm0-1.106c.326 0 .625-.051.896-.154.28-.112.522-.275.728-.49.205-.224.364-.504.476-.84.112-.336.168-.733.168-1.19 0-.457-.056-.854-.168-1.19a2.17 2.17 0 0 0-.476-.826 1.838 1.838 0 0 0-.728-.49 2.325 2.325 0 0 0-.896-.168c-.327 0-.626.056-.896.168a1.849 1.849 0 0 0-.714.49c-.196.215-.35.49-.462.826a3.775 3.775 0 0 0-.168 1.19c0 .457.056.854.168 1.19.112.336.266.616.462.84.205.215.443.378.714.49.27.103.569.154.896.154Zm11.662.812c-.15.084-.341.154-.574.21a3.177 3.177 0 0 1-.742.084c-.355 0-.658-.051-.91-.154a1.75 1.75 0 0 1-.602-.406 1.705 1.705 0 0 1-.35-.588 2.416 2.416 0 0 1-.098-.686v-4.522h-.868v-1.05h.868v-1.526h1.232v1.526h2.114v1.05h-2.114v4.368c0 .308.074.532.224.672.158.14.434.21.826.21.364 0 .695-.103.994-.308v1.12Zm5.083-6.16c-.56 0-1.017.131-1.372.392a2.874 2.874 0 0 0-.84.98V274h-1.232v-10.038h1.232v2.772l-.028 1.302h.028a2.48 2.48 0 0 1 .924-1.022c.42-.28.952-.42 1.596-.42.719 0 1.288.191 1.708.574.429.373.644.952.644 1.736V274h-1.232v-4.97c0-.504-.126-.854-.378-1.05-.252-.196-.602-.294-1.05-.294Zm10.391 5.698a3.919 3.919 0 0 1-.378.238c-.15.084-.332.168-.546.252a4.632 4.632 0 0 1-.728.182 4.51 4.51 0 0 1-.91.084c-1.223 0-2.152-.331-2.786-.994-.635-.663-.952-1.591-.952-2.786 0-.588.084-1.115.252-1.582.177-.467.42-.859.728-1.176a3.024 3.024 0 0 1 1.092-.742c.42-.177.877-.266 1.372-.266.522 0 .989.089 1.4.266.41.177.746.439 1.008.784.27.345.452.775.546 1.288.102.504.102 1.092 0 1.764h-5.124c.046.784.28 1.372.7 1.764.42.383 1.045.574 1.876.574.56 0 1.04-.079 1.442-.238a5.07 5.07 0 0 0 1.008-.518v1.106Zm-2.884-5.698c-.532 0-.99.163-1.372.49-.383.327-.626.821-.728 1.484h3.906c.037-.672-.117-1.167-.462-1.484-.346-.327-.794-.49-1.344-.49Zm12.264 5.012c-.196.411-.5.756-.91 1.036-.402.271-.929.406-1.582.406-.672 0-1.218-.187-1.638-.56-.411-.383-.616-.971-.616-1.764v-5.082h1.246v5.082c0 .243.032.443.098.602.074.149.172.271.294.364.121.093.261.159.42.196.168.037.35.056.546.056.541 0 .975-.121 1.302-.364.326-.243.606-.574.84-.994v-4.942h1.232V274h-1.092l-.112-1.302h-.028Zm5.578 1.442c-.383 0-.724-.033-1.022-.098a4.78 4.78 0 0 1-.77-.21 4.152 4.152 0 0 1-.546-.28 3.603 3.603 0 0 1-.35-.266v-1.106c.093.093.219.196.378.308.158.103.35.201.574.294.224.093.476.173.756.238.289.056.611.084.966.084.522 0 .938-.084 1.246-.252.308-.168.462-.453.462-.854 0-.215-.052-.387-.154-.518a.939.939 0 0 0-.392-.308 2.429 2.429 0 0 0-.588-.196 30.242 30.242 0 0 0-.686-.14 24.244 24.244 0 0 1-.91-.21 3.182 3.182 0 0 1-.812-.35 1.898 1.898 0 0 1-.588-.602c-.15-.252-.224-.579-.224-.98 0-.653.252-1.167.756-1.54.513-.373 1.227-.56 2.142-.56.513 0 .966.051 1.358.154.401.103.709.215.924.336v1.106a3.3 3.3 0 0 0-.91-.392c-.355-.112-.798-.168-1.33-.168-.551 0-.976.075-1.274.224-.29.149-.434.42-.434.812a.82.82 0 0 0 .126.476c.084.112.196.205.336.28.149.065.317.117.504.154.186.037.382.079.588.126.317.065.644.135.98.21.336.075.634.191.896.35.27.159.49.373.658.644.177.261.266.616.266 1.064 0 .42-.084.77-.252 1.05a1.93 1.93 0 0 1-.672.672 2.86 2.86 0 0 1-.938.336c-.346.075-.7.112-1.064.112Zm10.225-.756a3.685 3.685 0 0 1-.378.238 4.34 4.34 0 0 1-.546.252 4.576 4.576 0 0 1-.728.182c-.27.056-.574.084-.91.084-1.222 0-2.151-.331-2.786-.994-.634-.663-.952-1.591-.952-2.786 0-.588.084-1.115.252-1.582.178-.467.42-.859.728-1.176a3.024 3.024 0 0 1 1.092-.742 3.5 3.5 0 0 1 1.372-.266c.523 0 .99.089 1.4.266.411.177.747.439 1.008.784.271.345.453.775.546 1.288.103.504.103 1.092 0 1.764h-5.124c.047.784.28 1.372.7 1.764.42.383 1.046.574 1.876.574.56 0 1.041-.079 1.442-.238a5.015 5.015 0 0 0 1.008-.518v1.106Zm-2.884-5.698c-.532 0-.989.163-1.372.49-.382.327-.625.821-.728 1.484h3.906c.038-.672-.116-1.167-.462-1.484-.345-.327-.793-.49-1.344-.49Zm8.124.28a3.784 3.784 0 0 0-1.428.406c-.42.215-.733.551-.938 1.008V274h-1.232v-7.266h1.078l.126 1.582h.028c.205-.429.499-.803.882-1.12.392-.327.887-.527 1.484-.602v1.372Z"/>
    <path fill="#FFF2BF" d="M117 279a10 10 0 1 0 0-19.999A10 10 0 0 0 117 279Z"/>
    <path fill="#000" d="M137.938 232.962h1.33v6.608c0 .812.229 1.414.686 1.806.467.392 1.101.588 1.904.588a3.93 3.93 0 0 0 1.078-.14 2.56 2.56 0 0 0 .868-.448c.243-.205.429-.457.56-.756.14-.299.21-.649.21-1.05v-6.608h1.26v6.566c0 .579-.103 1.092-.308 1.54a3.22 3.22 0 0 1-.854 1.134 3.616 3.616 0 0 1-1.26.7 5.054 5.054 0 0 1-1.582.238 5.128 5.128 0 0 1-1.54-.224 3.56 3.56 0 0 1-1.246-.672 3.13 3.13 0 0 1-.812-1.106c-.196-.448-.294-.966-.294-1.554v-6.622Zm12.087 10.178c-.382 0-.723-.033-1.022-.098a4.808 4.808 0 0 1-.77-.21 4.282 4.282 0 0 1-.546-.28 3.732 3.732 0 0 1-.35-.266v-1.106c.094.093.22.196.378.308.159.103.35.201.574.294.224.093.476.173.756.238.29.056.612.084.966.084.523 0 .938-.084 1.246-.252.308-.168.462-.453.462-.854 0-.215-.051-.387-.154-.518a.932.932 0 0 0-.392-.308 2.429 2.429 0 0 0-.588-.196 28.153 28.153 0 0 0-.686-.14 24.708 24.708 0 0 1-.91-.21 3.213 3.213 0 0 1-.812-.35 1.92 1.92 0 0 1-.588-.602c-.149-.252-.224-.579-.224-.98 0-.653.252-1.167.756-1.54.514-.373 1.228-.56 2.142-.56.514 0 .966.051 1.358.154.402.103.71.215.924.336v1.106a3.286 3.286 0 0 0-.91-.392c-.354-.112-.798-.168-1.33-.168-.55 0-.975.075-1.274.224-.289.149-.434.42-.434.812a.82.82 0 0 0 .126.476c.084.112.196.205.336.28.15.065.318.117.504.154.187.037.383.079.588.126.318.065.644.135.98.21.336.075.635.191.896.35.271.159.49.373.658.644.178.261.266.616.266 1.064 0 .42-.084.77-.252 1.05a1.93 1.93 0 0 1-.672.672c-.27.159-.583.271-.938.336-.345.075-.7.112-1.064.112Zm10.226-.756a3.919 3.919 0 0 1-.378.238 4.34 4.34 0 0 1-.546.252 4.604 4.604 0 0 1-.728.182 4.51 4.51 0 0 1-.91.084c-1.223 0-2.151-.331-2.786-.994-.635-.663-.952-1.591-.952-2.786 0-.588.084-1.115.252-1.582.177-.467.42-.859.728-1.176a3.024 3.024 0 0 1 1.092-.742c.42-.177.877-.266 1.372-.266.523 0 .989.089 1.4.266.411.177.747.439 1.008.784.271.345.453.775.546 1.288.103.504.103 1.092 0 1.764h-5.124c.047.784.28 1.372.7 1.764.42.383 1.045.574 1.876.574.56 0 1.041-.079 1.442-.238a5.07 5.07 0 0 0 1.008-.518v1.106Zm-2.884-5.698c-.532 0-.989.163-1.372.49-.383.327-.625.821-.728 1.484h3.906c.037-.672-.117-1.167-.462-1.484-.345-.327-.793-.49-1.344-.49Zm9.734 4.886a2.916 2.916 0 0 1-.938 1.148c-.402.28-.91.42-1.526.42-.439 0-.854-.075-1.246-.224a2.992 2.992 0 0 1-1.036-.7 3.494 3.494 0 0 1-.714-1.176c-.178-.476-.266-1.036-.266-1.68 0-.635.088-1.185.266-1.652.177-.476.415-.868.714-1.176a2.752 2.752 0 0 1 1.036-.7 3.387 3.387 0 0 1 1.26-.238c.55 0 1.026.117 1.428.35.401.224.723.546.966.966v-3.948h1.232V243h-1.078l-.098-1.428Zm-2.282.462c.317 0 .611-.051.882-.154.27-.112.504-.28.7-.504.205-.224.364-.504.476-.84.121-.336.182-.728.182-1.176 0-.448-.061-.84-.182-1.176a2.305 2.305 0 0 0-.476-.84 1.746 1.746 0 0 0-.7-.49 2.287 2.287 0 0 0-.882-.168c-.644 0-1.172.229-1.582.686-.402.448-.602 1.111-.602 1.988 0 .887.205 1.554.616 2.002.41.448.933.672 1.568.672Zm15.446-2.674c0 .644-.088 1.204-.266 1.68a3.494 3.494 0 0 1-.714 1.176 2.992 2.992 0 0 1-1.036.7 3.436 3.436 0 0 1-1.232.224c-.56 0-1.05-.131-1.47-.392a2.88 2.88 0 0 1-.98-1.12l-.042 1.372h-1.162v-10.038h1.232l-.028 4.186c.243-.476.57-.854.98-1.134.411-.28.92-.42 1.526-.42.42 0 .822.079 1.204.238.392.149.733.383 1.022.7.299.308.532.7.7 1.176.178.467.266 1.017.266 1.652Zm-3.43 2.674c.644 0 1.162-.219 1.554-.658.402-.448.602-1.12.602-2.016 0-.877-.2-1.54-.602-1.988-.392-.457-.91-.686-1.554-.686-.317 0-.616.056-.896.168-.27.112-.508.28-.714.504a2.45 2.45 0 0 0-.476.826 3.723 3.723 0 0 0-.168 1.176c0 .448.056.84.168 1.176.122.336.28.616.476.84.206.224.444.392.714.504.28.103.579.154.896.154Zm8.425.882a8.4 8.4 0 0 1-.532 1.148 3.837 3.837 0 0 1-.63.854 2.266 2.266 0 0 1-.784.518c-.29.121-.621.182-.994.182-.187 0-.36-.014-.518-.042a1.561 1.561 0 0 1-.434-.112v-1.19c.102.075.233.131.392.168.158.047.331.07.518.07.345 0 .63-.084.854-.252.224-.159.438-.415.644-.77l-2.954-7.756h1.358l2.31 6.132 2.296-6.132h1.19l-2.716 7.182Zm10.499-.07c-.149.084-.34.154-.574.21-.233.056-.48.084-.742.084-.354 0-.658-.051-.91-.154a1.77 1.77 0 0 1-.602-.406 1.737 1.737 0 0 1-.35-.588 2.452 2.452 0 0 1-.098-.686v-4.522h-.868v-1.05h.868v-1.526h1.232v1.526h2.114v1.05h-2.114v4.368c0 .308.075.532.224.672.159.14.434.21.826.21.364 0 .696-.103.994-.308v1.12Zm5.084-6.16c-.56 0-1.018.131-1.372.392a2.853 2.853 0 0 0-.84.98V243h-1.232v-10.038h1.232v2.772l-.028 1.302h.028a2.48 2.48 0 0 1 .924-1.022c.42-.28.952-.42 1.596-.42.718 0 1.288.191 1.708.574.429.373.644.952.644 1.736V243h-1.232v-4.97c0-.504-.126-.854-.378-1.05-.252-.196-.602-.294-1.05-.294Zm10.39 5.698a3.685 3.685 0 0 1-.378.238 4.34 4.34 0 0 1-.546.252 4.576 4.576 0 0 1-.728.182c-.27.056-.574.084-.91.084-1.222 0-2.151-.331-2.786-.994-.634-.663-.952-1.591-.952-2.786 0-.588.084-1.115.252-1.582.178-.467.42-.859.728-1.176a3.024 3.024 0 0 1 1.092-.742 3.5 3.5 0 0 1 1.372-.266c.523 0 .99.089 1.4.266.411.177.747.439 1.008.784.271.345.453.775.546 1.288.103.504.103 1.092 0 1.764h-5.124c.047.784.28 1.372.7 1.764.42.383 1.046.574 1.876.574.56 0 1.041-.079 1.442-.238a5.015 5.015 0 0 0 1.008-.518v1.106Zm-2.884-5.698c-.532 0-.989.163-1.372.49-.382.327-.625.821-.728 1.484h3.906c.038-.672-.116-1.167-.462-1.484-.345-.327-.793-.49-1.344-.49Zm9.926 6.454c-.382 0-.723-.033-1.022-.098a4.808 4.808 0 0 1-.77-.21 4.282 4.282 0 0 1-.546-.28 3.732 3.732 0 0 1-.35-.266v-1.106c.094.093.22.196.378.308.159.103.35.201.574.294.224.093.476.173.756.238.29.056.612.084.966.084.523 0 .938-.084 1.246-.252.308-.168.462-.453.462-.854 0-.215-.051-.387-.154-.518a.932.932 0 0 0-.392-.308 2.429 2.429 0 0 0-.588-.196 28.153 28.153 0 0 0-.686-.14 24.708 24.708 0 0 1-.91-.21 3.213 3.213 0 0 1-.812-.35 1.92 1.92 0 0 1-.588-.602c-.149-.252-.224-.579-.224-.98 0-.653.252-1.167.756-1.54.514-.373 1.228-.56 2.142-.56.514 0 .966.051 1.358.154.402.103.71.215.924.336v1.106a3.286 3.286 0 0 0-.91-.392c-.354-.112-.798-.168-1.33-.168-.55 0-.975.075-1.274.224-.289.149-.434.42-.434.812a.82.82 0 0 0 .126.476c.084.112.196.205.336.28.15.065.318.117.504.154.187.037.383.079.588.126.318.065.644.135.98.21.336.075.635.191.896.35.271.159.49.373.658.644.178.261.266.616.266 1.064 0 .42-.084.77-.252 1.05a1.93 1.93 0 0 1-.672.672c-.27.159-.583.271-.938.336-.345.075-.7.112-1.064.112Zm8.014-.224a8.282 8.282 0 0 1-.532 1.148 3.837 3.837 0 0 1-.63.854 2.257 2.257 0 0 1-.784.518 2.557 2.557 0 0 1-.994.182c-.187 0-.359-.014-.518-.042a1.57 1.57 0 0 1-.434-.112v-1.19c.103.075.233.131.392.168.159.047.331.07.518.07.345 0 .63-.084.854-.252.224-.159.439-.415.644-.77l-2.954-7.756h1.358l2.31 6.132 2.296-6.132h1.19l-2.716 7.182Zm6.191.224c-.382 0-.723-.033-1.022-.098a4.808 4.808 0 0 1-.77-.21 4.282 4.282 0 0 1-.546-.28 3.732 3.732 0 0 1-.35-.266v-1.106c.094.093.22.196.378.308.159.103.35.201.574.294.224.093.476.173.756.238.29.056.612.084.966.084.523 0 .938-.084 1.246-.252.308-.168.462-.453.462-.854 0-.215-.051-.387-.154-.518a.932.932 0 0 0-.392-.308 2.429 2.429 0 0 0-.588-.196 28.153 28.153 0 0 0-.686-.14 24.708 24.708 0 0 1-.91-.21 3.213 3.213 0 0 1-.812-.35 1.92 1.92 0 0 1-.588-.602c-.149-.252-.224-.579-.224-.98 0-.653.252-1.167.756-1.54.514-.373 1.228-.56 2.142-.56.514 0 .966.051 1.358.154.402.103.71.215.924.336v1.106a3.286 3.286 0 0 0-.91-.392c-.354-.112-.798-.168-1.33-.168-.55 0-.975.075-1.274.224-.289.149-.434.42-.434.812a.82.82 0 0 0 .126.476c.084.112.196.205.336.28.15.065.318.117.504.154.187.037.383.079.588.126.318.065.644.135.98.21.336.075.635.191.896.35.271.159.49.373.658.644.178.261.266.616.266 1.064 0 .42-.084.77-.252 1.05a1.93 1.93 0 0 1-.672.672c-.27.159-.583.271-.938.336-.345.075-.7.112-1.064.112Zm8-.294a2.252 2.252 0 0 1-.574.21 3.171 3.171 0 0 1-.742.084c-.355 0-.658-.051-.91-.154a1.76 1.76 0 0 1-.602-.406 1.72 1.72 0 0 1-.35-.588 2.452 2.452 0 0 1-.098-.686v-4.522h-.868v-1.05h.868v-1.526h1.232v1.526h2.114v1.05h-2.114v4.368c0 .308.075.532.224.672.159.14.434.21.826.21.364 0 .695-.103.994-.308v1.12Zm7.353-.462a3.919 3.919 0 0 1-.378.238 4.34 4.34 0 0 1-.546.252 4.604 4.604 0 0 1-.728.182 4.51 4.51 0 0 1-.91.084c-1.223 0-2.151-.331-2.786-.994-.635-.663-.952-1.591-.952-2.786 0-.588.084-1.115.252-1.582.177-.467.42-.859.728-1.176a3.024 3.024 0 0 1 1.092-.742c.42-.177.877-.266 1.372-.266.523 0 .989.089 1.4.266.411.177.747.439 1.008.784.271.345.453.775.546 1.288.103.504.103 1.092 0 1.764h-5.124c.047.784.28 1.372.7 1.764.42.383 1.045.574 1.876.574.56 0 1.041-.079 1.442-.238a5.07 5.07 0 0 0 1.008-.518v1.106Zm-2.884-5.698c-.532 0-.989.163-1.372.49-.383.327-.625.821-.728 1.484h3.906c.037-.672-.117-1.167-.462-1.484-.345-.327-.793-.49-1.344-.49Zm5.758 6.314h-1.232v-7.266h1.078l.126 1.302h.028c.196-.411.49-.751.882-1.022.392-.28.905-.42 1.54-.42.56 0 1.017.135 1.372.406.364.261.606.658.728 1.19.205-.495.518-.882.938-1.162.429-.289.947-.434 1.554-.434.672 0 1.204.191 1.596.574.392.373.588.952.588 1.736V243h-1.246v-4.942c0-.476-.117-.821-.35-1.036-.234-.224-.551-.336-.952-.336-.271 0-.509.042-.714.126a1.681 1.681 0 0 0-.546.322 2.71 2.71 0 0 0-.434.49 6.225 6.225 0 0 0-.364.588V243h-1.232v-5.082c0-.467-.117-.789-.35-.966-.234-.177-.551-.266-.952-.266-.262 0-.495.033-.7.098a1.96 1.96 0 0 0-.56.28 2.179 2.179 0 0 0-.434.448 4.124 4.124 0 0 0-.364.56V243Z"/>
    <path fill="#E3EBFF" d="M117 248a10 10 0 1 0 0-19.999A10 10 0 0 0 117 248Z"/>
    <path fill="#FFF2BF" stroke="#fff" d="M596.5 139.5h69v59h-69z"/>
    <path fill="#7F7AA1" d="M633.101 171.62V174h-1.232v-2.38h-4.34v-.868l3.92-6.79h1.652v6.594h1.358v1.064h-1.358Zm-1.232-1.064v-5.222l-3.066 5.222h3.066Z"/>
    <path fill="#FFF2BF" stroke="#fff" d="M491.5 139.5h104v59h-104v-59Z"/>
    <path fill="#7F7AA1" d="M546.459 170.71c0 .513-.088.98-.266 1.4-.168.42-.401.784-.7 1.092a3.184 3.184 0 0 1-1.064.7 3.5 3.5 0 0 1-1.302.238c-.634 0-1.176-.107-1.624-.322a2.888 2.888 0 0 1-1.078-.896 4.002 4.002 0 0 1-.616-1.4 7.607 7.607 0 0 1-.196-1.778c0-.877.08-1.68.238-2.408.159-.728.402-1.349.728-1.862a3.53 3.53 0 0 1 1.246-1.218c.514-.289 1.12-.434 1.82-.434.504 0 .92.051 1.246.154.327.103.616.224.868.364v1.246c-.606-.411-1.311-.616-2.114-.616-.438 0-.821.093-1.148.28a2.648 2.648 0 0 0-.84.77c-.224.317-.401.7-.532 1.148-.13.439-.214.91-.252 1.414.308-.42.663-.733 1.064-.938.402-.205.84-.308 1.316-.308.448 0 .868.075 1.26.224.392.14.733.355 1.022.644.29.289.514.644.672 1.064.168.42.252.901.252 1.442Zm-3.374 2.31c.271 0 .528-.047.77-.14.252-.103.472-.247.658-.434.187-.187.336-.42.448-.7a2.78 2.78 0 0 0 .168-1.008 2.74 2.74 0 0 0-.168-.994 2.006 2.006 0 0 0-.434-.728 1.639 1.639 0 0 0-.616-.434 1.624 1.624 0 0 0-.686-.154 2.42 2.42 0 0 0-.868.154c-.261.103-.49.252-.686.448a2.198 2.198 0 0 0-.448.728 2.78 2.78 0 0 0-.168 1.008c0 .672.182 1.218.546 1.638.364.411.859.616 1.484.616Z"/>
    <path fill="#FFF2BF" stroke="#fff" d="M386.5 139.5h104v59h-104v-59Z"/>
    <path fill="#7F7AA1" d="M441.459 170.71c0 .513-.088.98-.266 1.4-.168.42-.401.784-.7 1.092a3.184 3.184 0 0 1-1.064.7 3.5 3.5 0 0 1-1.302.238c-.634 0-1.176-.107-1.624-.322a2.888 2.888 0 0 1-1.078-.896 4.002 4.002 0 0 1-.616-1.4 7.607 7.607 0 0 1-.196-1.778c0-.877.08-1.68.238-2.408.159-.728.402-1.349.728-1.862a3.53 3.53 0 0 1 1.246-1.218c.514-.289 1.12-.434 1.82-.434.504 0 .92.051 1.246.154.327.103.616.224.868.364v1.246c-.606-.411-1.311-.616-2.114-.616-.438 0-.821.093-1.148.28a2.648 2.648 0 0 0-.84.77c-.224.317-.401.7-.532 1.148-.13.439-.214.91-.252 1.414.308-.42.663-.733 1.064-.938.402-.205.84-.308 1.316-.308.448 0 .868.075 1.26.224.392.14.733.355 1.022.644.29.289.514.644.672 1.064.168.42.252.901.252 1.442Zm-3.374 2.31c.271 0 .528-.047.77-.14.252-.103.472-.247.658-.434.187-.187.336-.42.448-.7a2.78 2.78 0 0 0 .168-1.008 2.74 2.74 0 0 0-.168-.994 2.006 2.006 0 0 0-.434-.728 1.639 1.639 0 0 0-.616-.434 1.624 1.624 0 0 0-.686-.154 2.42 2.42 0 0 0-.868.154c-.261.103-.49.252-.686.448a2.198 2.198 0 0 0-.448.728 2.78 2.78 0 0 0-.168 1.008c0 .672.182 1.218.546 1.638.364.411.859.616 1.484.616Z"/>
    <path fill="#FFF2BF" stroke="#fff" d="M281.5 139.5h104v59h-104z"/>
    <path fill="#7F7AA1" d="M336.459 170.71c0 .513-.088.98-.266 1.4-.168.42-.401.784-.7 1.092a3.184 3.184 0 0 1-1.064.7 3.5 3.5 0 0 1-1.302.238c-.634 0-1.176-.107-1.624-.322a2.888 2.888 0 0 1-1.078-.896 4.002 4.002 0 0 1-.616-1.4 7.607 7.607 0 0 1-.196-1.778c0-.877.08-1.68.238-2.408.159-.728.402-1.349.728-1.862a3.53 3.53 0 0 1 1.246-1.218c.514-.289 1.12-.434 1.82-.434.504 0 .92.051 1.246.154.327.103.616.224.868.364v1.246c-.606-.411-1.311-.616-2.114-.616-.438 0-.821.093-1.148.28a2.648 2.648 0 0 0-.84.77c-.224.317-.401.7-.532 1.148-.13.439-.214.91-.252 1.414.308-.42.663-.733 1.064-.938.402-.205.84-.308 1.316-.308.448 0 .868.075 1.26.224.392.14.733.355 1.022.644.29.289.514.644.672 1.064.168.42.252.901.252 1.442Zm-3.374 2.31c.271 0 .528-.047.77-.14.252-.103.472-.247.658-.434.187-.187.336-.42.448-.7a2.78 2.78 0 0 0 .168-1.008 2.74 2.74 0 0 0-.168-.994 2.006 2.006 0 0 0-.434-.728 1.639 1.639 0 0 0-.616-.434 1.624 1.624 0 0 0-.686-.154 2.42 2.42 0 0 0-.868.154c-.261.103-.49.252-.686.448a2.198 2.198 0 0 0-.448.728 2.78 2.78 0 0 0-.168 1.008c0 .672.182 1.218.546 1.638.364.411.859.616 1.484.616Z"/>
    <path fill="#FFF2BF" stroke="#fff" d="M176.5 139.5h104v59h-104z"/>
    <path fill="#7F7AA1" d="M231.459 170.71c0 .513-.088.98-.266 1.4-.168.42-.401.784-.7 1.092a3.184 3.184 0 0 1-1.064.7 3.5 3.5 0 0 1-1.302.238c-.634 0-1.176-.107-1.624-.322a2.888 2.888 0 0 1-1.078-.896 4.002 4.002 0 0 1-.616-1.4 7.607 7.607 0 0 1-.196-1.778c0-.877.08-1.68.238-2.408.159-.728.402-1.349.728-1.862a3.53 3.53 0 0 1 1.246-1.218c.514-.289 1.12-.434 1.82-.434.504 0 .92.051 1.246.154.327.103.616.224.868.364v1.246c-.606-.411-1.311-.616-2.114-.616-.438 0-.821.093-1.148.28a2.648 2.648 0 0 0-.84.77c-.224.317-.401.7-.532 1.148-.13.439-.214.91-.252 1.414.308-.42.663-.733 1.064-.938.402-.205.84-.308 1.316-.308.448 0 .868.075 1.26.224.392.14.733.355 1.022.644.29.289.514.644.672 1.064.168.42.252.901.252 1.442Zm-3.374 2.31c.271 0 .528-.047.77-.14.252-.103.472-.247.658-.434.187-.187.336-.42.448-.7a2.78 2.78 0 0 0 .168-1.008 2.74 2.74 0 0 0-.168-.994 2.006 2.006 0 0 0-.434-.728 1.639 1.639 0 0 0-.616-.434 1.624 1.624 0 0 0-.686-.154 2.42 2.42 0 0 0-.868.154c-.261.103-.49.252-.686.448a2.198 2.198 0 0 0-.448.728 2.78 2.78 0 0 0-.168 1.008c0 .672.182 1.218.546 1.638.364.411.859.616 1.484.616Z"/>
    <path fill="#E3EBFF" stroke="#fff" d="M106.5 139.5h69v59h-69z"/>
    <path fill="#7F7AA1" d="M143.101 171.62V174h-1.232v-2.38h-4.34v-.868l3.92-6.79h1.652v6.594h1.358v1.064h-1.358Zm-1.232-1.064v-5.222l-3.066 5.222h3.066Z"/>
    <path fill="#000" d="M81.36 174h-1.275v-8.456l-2.772 2.128v-1.414l2.982-2.296h1.064V174Z"/>
    <path fill="#000" fill-rule="evenodd" d="M48.897 152.241a1.241 1.241 0 0 0-2.483 0v3.104h-.62a7.448 7.448 0 0 0-7.45 7.448v.621h-3.103a1.241 1.241 0 0 0 0 2.483h3.104v6.206H35.24a1.242 1.242 0 0 0 0 2.483h3.104v.621a7.448 7.448 0 0 0 7.448 7.448h.62v3.104a1.241 1.241 0 0 0 2.484 0v-3.104h6.206v3.104a1.241 1.241 0 0 0 2.483 0v-3.104h.62a7.448 7.448 0 0 0 7.45-7.448v-.621h3.103a1.241 1.241 0 0 0 0-2.483h-3.104v-6.206h3.104a1.242 1.242 0 0 0 0-2.483h-3.104v-.621a7.448 7.448 0 0 0-7.448-7.448h-.62v-3.104a1.241 1.241 0 0 0-2.484 0v3.104h-6.206v-3.104Zm-8.07 21.103v-10.551a4.965 4.965 0 0 1 4.966-4.965h12.414a4.965 4.965 0 0 1 4.965 4.965v12.414a4.965 4.965 0 0 1-4.965 4.965H45.793a4.965 4.965 0 0 1-4.965-4.965v-1.863Zm16.76-8.689c0-.686-.557-1.242-1.242-1.242h-8.69c-.685 0-1.241.556-1.241 1.242v8.69a1.243 1.243 0 0 0 1.241 1.241h8.69c.685 0 1.241-.556 1.241-1.241v-8.69Zm-8.69 1.241h6.206v6.207h-6.206v-6.207Z" clip-rule="evenodd"/>
    <path fill="#7F7AA1" d="M420.387 233h-6.398v-1.33a79.815 79.815 0 0 0 2.198-1.82 16.13 16.13 0 0 0 1.54-1.47c.401-.448.7-.873.896-1.274.196-.411.294-.835.294-1.274 0-.551-.168-.994-.504-1.33-.327-.345-.808-.518-1.442-.518-.532 0-1.027.131-1.484.392a5.004 5.004 0 0 0-1.232.994v-1.414a4.246 4.246 0 0 1 1.204-.826c.448-.205.966-.308 1.554-.308.522 0 .984.07 1.386.21.41.14.751.336 1.022.588.28.252.49.555.63.91.149.355.224.747.224 1.176a3.68 3.68 0 0 1-.322 1.526 5.65 5.65 0 0 1-.924 1.428c-.411.476-.92.971-1.526 1.484a61.477 61.477 0 0 1-2.058 1.652h4.942V233Zm7.823-2.744c0 .448-.084.854-.252 1.218a2.668 2.668 0 0 1-.7.91 3.24 3.24 0 0 1-1.05.56c-.401.131-.84.196-1.316.196-.495 0-.947-.061-1.358-.182a3.211 3.211 0 0 1-1.064-.56 2.715 2.715 0 0 1-.7-.896 2.78 2.78 0 0 1-.252-1.204c0-.653.168-1.199.504-1.638.345-.448.807-.779 1.386-.994a2.506 2.506 0 0 1-1.12-.854c-.271-.383-.406-.854-.406-1.414 0-.411.075-.775.224-1.092.159-.317.369-.583.63-.798a2.74 2.74 0 0 1 .952-.504 4.171 4.171 0 0 1 1.204-.168c.42 0 .807.056 1.162.168.364.103.681.261.952.476.271.215.481.481.63.798.159.308.238.672.238 1.092 0 .569-.14 1.05-.42 1.442a2.52 2.52 0 0 1-1.106.854 2.82 2.82 0 0 1 1.344.952c.345.439.518.985.518 1.638Zm-3.318-3.094c.504 0 .915-.14 1.232-.42.317-.289.476-.686.476-1.19 0-.504-.159-.896-.476-1.176-.317-.289-.728-.434-1.232-.434s-.919.145-1.246.434c-.327.28-.49.672-.49 1.176 0 .504.163.901.49 1.19.327.28.742.42 1.246.42Zm0 4.872c.289 0 .555-.042.798-.126.252-.093.467-.219.644-.378.187-.168.331-.373.434-.616.103-.243.154-.518.154-.826 0-.308-.051-.583-.154-.826a1.587 1.587 0 0 0-.434-.602 1.703 1.703 0 0 0-.644-.378 2.215 2.215 0 0 0-.798-.14c-.299 0-.579.047-.84.14-.252.084-.471.21-.658.378a1.587 1.587 0 0 0-.434.602 2.097 2.097 0 0 0-.154.826c0 .308.051.583.154.826.103.243.247.448.434.616.187.159.406.285.658.378.261.084.541.126.84.126Z"/>
    <path stroke="#7F7AA1" d="M665 201a9.243 9.243 0 0 1-9.243 9.243h-225A9.757 9.757 0 0 0 421 220m-244-19a9.243 9.243 0 0 0 9.243 9.243h225A9.757 9.757 0 0 1 421 220"/>
    <path fill="#FFF2BF" stroke="#fff" d="M596.5 60.5h69v59h-69z"/>
    <path fill="#7F7AA1" d="M633.101 92.62V95h-1.232v-2.38h-4.34v-.868l3.92-6.79h1.652v6.594h1.358v1.064h-1.358Zm-1.232-1.064v-5.222l-3.066 5.222h3.066Z"/>
    <path fill="#FFF2BF" stroke="#fff" d="M491.5 60.5h104v59h-104v-59Z"/>
    <path fill="#7F7AA1" d="M546.459 91.71c0 .513-.088.98-.266 1.4-.168.42-.401.784-.7 1.092a3.188 3.188 0 0 1-1.064.7 3.506 3.506 0 0 1-1.302.238c-.634 0-1.176-.107-1.624-.322a2.888 2.888 0 0 1-1.078-.896 4 4 0 0 1-.616-1.4 7.609 7.609 0 0 1-.196-1.778c0-.877.08-1.68.238-2.408.159-.728.402-1.349.728-1.862a3.536 3.536 0 0 1 1.246-1.218c.514-.29 1.12-.434 1.82-.434.504 0 .92.051 1.246.154.327.103.616.224.868.364v1.246c-.606-.41-1.311-.616-2.114-.616-.438 0-.821.093-1.148.28a2.648 2.648 0 0 0-.84.77c-.224.317-.401.7-.532 1.148-.13.439-.214.91-.252 1.414.308-.42.663-.733 1.064-.938a2.85 2.85 0 0 1 1.316-.308c.448 0 .868.075 1.26.224.392.14.733.355 1.022.644.29.29.514.644.672 1.064.168.42.252.9.252 1.442Zm-3.374 2.31c.271 0 .528-.047.77-.14.252-.103.472-.247.658-.434.187-.187.336-.42.448-.7.112-.29.168-.625.168-1.008a2.74 2.74 0 0 0-.168-.994 2.003 2.003 0 0 0-.434-.728 1.642 1.642 0 0 0-.616-.434 1.628 1.628 0 0 0-.686-.154 2.42 2.42 0 0 0-.868.154 1.99 1.99 0 0 0-.686.448 2.194 2.194 0 0 0-.448.728c-.112.29-.168.625-.168 1.008 0 .672.182 1.218.546 1.638.364.41.859.616 1.484.616Z"/>
    <path fill="#FFF2BF" stroke="#fff" d="M386.5 60.5h104v59h-104v-59Z"/>
    <path fill="#7F7AA1" d="M441.459 91.71c0 .513-.088.98-.266 1.4-.168.42-.401.784-.7 1.092a3.188 3.188 0 0 1-1.064.7 3.506 3.506 0 0 1-1.302.238c-.634 0-1.176-.107-1.624-.322a2.888 2.888 0 0 1-1.078-.896 4 4 0 0 1-.616-1.4 7.609 7.609 0 0 1-.196-1.778c0-.877.08-1.68.238-2.408.159-.728.402-1.349.728-1.862a3.536 3.536 0 0 1 1.246-1.218c.514-.29 1.12-.434 1.82-.434.504 0 .92.051 1.246.154.327.103.616.224.868.364v1.246c-.606-.41-1.311-.616-2.114-.616-.438 0-.821.093-1.148.28a2.648 2.648 0 0 0-.84.77c-.224.317-.401.7-.532 1.148-.13.439-.214.91-.252 1.414.308-.42.663-.733 1.064-.938a2.85 2.85 0 0 1 1.316-.308c.448 0 .868.075 1.26.224.392.14.733.355 1.022.644.29.29.514.644.672 1.064.168.42.252.9.252 1.442Zm-3.374 2.31c.271 0 .528-.047.77-.14.252-.103.472-.247.658-.434.187-.187.336-.42.448-.7.112-.29.168-.625.168-1.008a2.74 2.74 0 0 0-.168-.994 2.003 2.003 0 0 0-.434-.728 1.642 1.642 0 0 0-.616-.434 1.628 1.628 0 0 0-.686-.154 2.42 2.42 0 0 0-.868.154 1.99 1.99 0 0 0-.686.448 2.194 2.194 0 0 0-.448.728c-.112.29-.168.625-.168 1.008 0 .672.182 1.218.546 1.638.364.41.859.616 1.484.616Z"/>
    <path fill="#FFF2BF" stroke="#fff" d="M281.5 60.5h104v59h-104z"/>
    <path fill="#7F7AA1" d="M336.459 91.71c0 .513-.088.98-.266 1.4-.168.42-.401.784-.7 1.092a3.188 3.188 0 0 1-1.064.7 3.506 3.506 0 0 1-1.302.238c-.634 0-1.176-.107-1.624-.322a2.888 2.888 0 0 1-1.078-.896 4 4 0 0 1-.616-1.4 7.609 7.609 0 0 1-.196-1.778c0-.877.08-1.68.238-2.408.159-.728.402-1.349.728-1.862a3.536 3.536 0 0 1 1.246-1.218c.514-.29 1.12-.434 1.82-.434.504 0 .92.051 1.246.154.327.103.616.224.868.364v1.246c-.606-.41-1.311-.616-2.114-.616-.438 0-.821.093-1.148.28a2.648 2.648 0 0 0-.84.77c-.224.317-.401.7-.532 1.148-.13.439-.214.91-.252 1.414.308-.42.663-.733 1.064-.938a2.85 2.85 0 0 1 1.316-.308c.448 0 .868.075 1.26.224.392.14.733.355 1.022.644.29.29.514.644.672 1.064.168.42.252.9.252 1.442Zm-3.374 2.31c.271 0 .528-.047.77-.14.252-.103.472-.247.658-.434.187-.187.336-.42.448-.7.112-.29.168-.625.168-1.008a2.74 2.74 0 0 0-.168-.994 2.003 2.003 0 0 0-.434-.728 1.642 1.642 0 0 0-.616-.434 1.628 1.628 0 0 0-.686-.154 2.42 2.42 0 0 0-.868.154 1.99 1.99 0 0 0-.686.448 2.194 2.194 0 0 0-.448.728c-.112.29-.168.625-.168 1.008 0 .672.182 1.218.546 1.638.364.41.859.616 1.484.616Z"/>
    <path fill="#FFF2BF" stroke="#fff" d="M176.5 60.5h104v59h-104z"/>
    <path fill="#7F7AA1" d="M231.459 91.71c0 .513-.088.98-.266 1.4-.168.42-.401.784-.7 1.092a3.188 3.188 0 0 1-1.064.7 3.506 3.506 0 0 1-1.302.238c-.634 0-1.176-.107-1.624-.322a2.888 2.888 0 0 1-1.078-.896 4 4 0 0 1-.616-1.4 7.609 7.609 0 0 1-.196-1.778c0-.877.08-1.68.238-2.408.159-.728.402-1.349.728-1.862a3.536 3.536 0 0 1 1.246-1.218c.514-.29 1.12-.434 1.82-.434.504 0 .92.051 1.246.154.327.103.616.224.868.364v1.246c-.606-.41-1.311-.616-2.114-.616-.438 0-.821.093-1.148.28a2.648 2.648 0 0 0-.84.77c-.224.317-.401.7-.532 1.148-.13.439-.214.91-.252 1.414.308-.42.663-.733 1.064-.938a2.85 2.85 0 0 1 1.316-.308c.448 0 .868.075 1.26.224.392.14.733.355 1.022.644.29.29.514.644.672 1.064.168.42.252.9.252 1.442Zm-3.374 2.31c.271 0 .528-.047.77-.14.252-.103.472-.247.658-.434.187-.187.336-.42.448-.7.112-.29.168-.625.168-1.008a2.74 2.74 0 0 0-.168-.994 2.003 2.003 0 0 0-.434-.728 1.642 1.642 0 0 0-.616-.434 1.628 1.628 0 0 0-.686-.154 2.42 2.42 0 0 0-.868.154 1.99 1.99 0 0 0-.686.448 2.194 2.194 0 0 0-.448.728c-.112.29-.168.625-.168 1.008 0 .672.182 1.218.546 1.638.364.41.859.616 1.484.616Z"/>
    <path fill="#E3EBFF" stroke="#fff" d="M106.5 60.5h69v59h-69z"/>
    <path fill="#7F7AA1" d="M143.101 92.62V95h-1.232v-2.38h-4.34v-.868l3.92-6.79h1.652v6.594h1.358v1.064h-1.358Zm-1.232-1.064v-5.222l-3.066 5.222h3.066Z"/>
    <path fill="#000" d="M80.03 95.14c-.477 0-.92-.098-1.33-.294-.402-.205-.752-.518-1.05-.938-.29-.43-.519-.966-.687-1.61-.168-.653-.252-1.428-.252-2.324 0-.896.084-1.666.252-2.31.168-.653.397-1.19.686-1.61.299-.42.649-.728 1.05-.924a3.049 3.049 0 0 1 1.33-.294c.476 0 .915.098 1.316.294.402.196.747.504 1.036.924.29.41.514.938.672 1.582.168.644.252 1.414.252 2.31 0 .896-.084 1.67-.252 2.324-.158.644-.382 1.18-.672 1.61-.289.43-.634.747-1.036.952a2.85 2.85 0 0 1-1.316.308Zm-.015-1.106c.318 0 .598-.07.84-.21.243-.14.448-.369.616-.686.168-.317.294-.733.378-1.246.094-.523.14-1.157.14-1.904 0-.747-.042-1.377-.126-1.89-.084-.523-.21-.943-.378-1.26-.168-.317-.373-.546-.616-.686a1.65 1.65 0 0 0-.84-.21c-.317 0-.602.07-.854.21-.242.14-.452.369-.63.686-.168.317-.298.737-.392 1.26-.084.513-.126 1.143-.126 1.89 0 .747.042 1.381.126 1.904.094.513.224.929.392 1.246.168.317.374.546.616.686.252.14.537.21.854.21Z"/>
    <path fill="#000" fill-rule="evenodd" d="M48.897 73.241a1.241 1.241 0 0 0-2.483 0v3.104h-.62a7.448 7.448 0 0 0-7.45 7.448v.62h-3.103a1.241 1.241 0 0 0 0 2.484h3.104v6.206H35.24a1.241 1.241 0 0 0 0 2.483h3.104v.62a7.448 7.448 0 0 0 7.448 7.449h.62v3.104a1.241 1.241 0 0 0 2.484 0v-3.104h6.206v3.104a1.241 1.241 0 0 0 2.483 0v-3.104h.62a7.448 7.448 0 0 0 7.45-7.448v-.62h3.103a1.241 1.241 0 0 0 0-2.484h-3.104v-6.206h3.104a1.241 1.241 0 0 0 0-2.483h-3.104v-.62a7.448 7.448 0 0 0-7.448-7.45h-.62v-3.103a1.241 1.241 0 0 0-2.484 0v3.104h-6.206V73.24Zm-8.07 21.103V83.793a4.965 4.965 0 0 1 4.966-4.965h12.414a4.965 4.965 0 0 1 4.965 4.965v12.414a4.965 4.965 0 0 1-4.965 4.965H45.793a4.965 4.965 0 0 1-4.965-4.965v-1.863Zm16.76-8.69c0-.685-.557-1.24-1.242-1.24h-8.69a1.24 1.24 0 0 0-1.241 1.24v8.69a1.241 1.241 0 0 0 1.241 1.242h8.69c.685 0 1.241-.556 1.241-1.241v-8.69Zm-8.69 1.242h6.206v6.207h-6.206v-6.207Z" clip-rule="evenodd"/>
    <path stroke="#7F7AA1" d="M665 59a9.243 9.243 0 0 0-9.243-9.243h-260A9.757 9.757 0 0 1 386 40"/>
    <path fill="#7F7AA1" d="M385.471 34.102c0 .467-.089.887-.266 1.26a2.896 2.896 0 0 1-.742.966 3.39 3.39 0 0 1-1.134.602c-.439.14-.924.21-1.456.21-.654 0-1.218-.08-1.694-.238-.476-.159-.864-.364-1.162-.616v-1.4c.298.299.69.56 1.176.784.485.215 1.05.322 1.694.322.69 0 1.232-.163 1.624-.49.401-.327.602-.784.602-1.372 0-.56-.178-.994-.532-1.302-.355-.317-.91-.476-1.666-.476h-1.288v-1.19h1.344c.532 0 .961-.14 1.288-.42.326-.28.49-.686.49-1.218 0-.476-.154-.85-.462-1.12-.308-.28-.752-.42-1.33-.42-.598 0-1.111.112-1.54.336a6.2 6.2 0 0 0-1.148.784v-1.372a4 4 0 0 1 1.162-.658c.448-.168.961-.252 1.54-.252.476 0 .905.065 1.288.196.382.121.704.299.966.532.27.233.476.513.616.84.14.317.21.672.21 1.064 0 .317-.047.602-.14.854a2.034 2.034 0 0 1-.392.658 2.315 2.315 0 0 1-.56.476c-.215.121-.444.21-.686.266.289.047.564.135.826.266.27.13.508.299.714.504.205.196.364.434.476.714.121.27.182.574.182.91ZM393.084 37h-6.398v-1.33a80.363 80.363 0 0 0 2.198-1.82 16.01 16.01 0 0 0 1.54-1.47c.401-.448.7-.873.896-1.274.196-.41.294-.835.294-1.274 0-.55-.168-.994-.504-1.33-.327-.345-.807-.518-1.442-.518a2.94 2.94 0 0 0-1.484.392 5.022 5.022 0 0 0-1.232.994v-1.414a4.26 4.26 0 0 1 1.204-.826c.448-.205.966-.308 1.554-.308.523 0 .985.07 1.386.21.411.14.751.336 1.022.588.28.252.49.555.63.91.149.355.224.747.224 1.176 0 .541-.107 1.05-.322 1.526a5.595 5.595 0 0 1-.924 1.428c-.411.476-.919.97-1.526 1.484a59.856 59.856 0 0 1-2.058 1.652h4.942V37Z"/>
    <path stroke="#7F7AA1" d="M107 59a9.243 9.243 0 0 1 9.243-9.243h260A9.757 9.757 0 0 0 386 40"/>
    <defs>
        <filter id="filter0_d_5_122" width="676" height="283" x="12" y="12" color-interpolation-filters="sRGB" filterUnits="userSpaceOnUse">
            <feFlood flood-opacity="0" result="BackgroundImageFix"/>
            <feColorMatrix in="SourceAlpha" result="hardAlpha" values="0 0 0 0 0 0 0 0 0 0 0 0 0 0 0 0 0 0 127 0"/>
            <feOffset/>
            <feGaussianBlur stdDeviation="4"/>
            <feColorMatrix values="0 0 0 0 0.321569 0 0 0 0 0.509804 0 0 0 0 1 0 0 0 0.2 0"/>
            <feBlend in2="BackgroundImageFix" result="effect1_dropShadow_5_122"/>
            <feBlend in="SourceGraphic" in2="effect1_dropShadow_5_122" result="shape"/>
        </filter>
    </defs>
</svg>
