<?xml version="1.0" encoding="UTF-8"?>
<svg xmlns="http://www.w3.org/2000/svg" xmlns:xlink="http://www.w3.org/1999/xlink" width="20px" height="16px" viewBox="0 0 20 16" version="1.1">
<g id="surface1">
<path style=" stroke:none;fill-rule:nonzero;fill:rgb(0%,0%,0%);fill-opacity:1;" d="M 12 10 L 8 10 C 7.449219 10 7 10.449219 7 11 L 7 15 C 7 15.550781 7.449219 16 8 16 L 12 16 C 12.550781 16 13 15.550781 13 15 L 13 11 C 13 10.449219 12.550781 10 12 10 Z M 6 1 C 6 0.449219 5.550781 0 5 0 L 1 0 C 0.449219 0 0 0.449219 0 1 L 0 5 C 0 5.550781 0.449219 6 1 6 L 3.992188 6 L 6.277344 10 C 6.625 9.40625 7.261719 9 8 9 L 8.007812 9 L 6 5.484375 L 6 4 L 13 4 L 13 2 L 6 2 Z M 19 0 L 15 0 C 14.449219 0 14 0.449219 14 1 L 14 5 C 14 5.550781 14.449219 6 15 6 L 19 6 C 19.550781 6 20 5.550781 20 5 L 20 1 C 20 0.449219 19.550781 0 19 0 Z M 19 0 "/>
</g>
</svg>
