<svg xmlns="http://www.w3.org/2000/svg" width="16" height="16" fill="currentColor" aria-hidden="true" class="yc-icon">
    <svg xmlns="http://www.w3.org/2000/svg" fill="none" viewBox="0 0 16 16">
        <path fill="currentColor" d="m8.99 8.125 4.621-4.621a.2.2 0 0 0 0-.28 1.21 1.21 0 0 0-1.726 0l-3.91 3.91-1.092-1.091c.178-.356.304-.736.304-1.168A2.438 2.438 0 0 0 4.75 2.437a2.422 2.422 0 0 0-2.438 2.438A2.406 2.406 0 0 0 4.75 7.313c.406 0 .787-.102 1.143-.28l1.091 1.092-1.091 1.117c-.356-.178-.737-.305-1.143-.305a2.422 2.422 0 0 0-2.438 2.438 2.406 2.406 0 0 0 2.438 2.438 2.422 2.422 0 0 0 2.438-2.438c0-.406-.127-.787-.305-1.143l1.092-1.091 3.91 3.91a1.21 1.21 0 0 0 1.726 0 .2.2 0 0 0 0-.28l-4.62-4.646zM4.75 6.094a1.203 1.203 0 0 1-1.219-1.219c0-.66.533-1.219 1.219-1.219.66 0 1.219.559 1.219 1.219A1.22 1.22 0 0 1 4.75 6.094zm0 6.5a1.203 1.203 0 0 1-1.219-1.219c0-.66.533-1.219 1.219-1.219.66 0 1.219.559 1.219 1.219a1.22 1.22 0 0 1-1.219 1.219z"/>
    </svg>
</svg>
