<svg xmlns="http://www.w3.org/2000/svg" width="16" height="16" fill="currentColor" aria-hidden="true" class="yc-icon">
    <svg xmlns="http://www.w3.org/2000/svg" fill="none" viewBox="0 0 16 16">
        <path fill="currentColor" d="M1.5 3.656v8.938c0 .685.533 1.219 1.219 1.219H13.28a1.22 1.22 0 0 0 1.219-1.22V3.657c0-.66-.559-1.219-1.219-1.219H2.72a1.22 1.22 0 0 0-1.219 1.22Zm11.984 5.688H6.502V6.906h6.982v2.438Zm0 1.015v2.133a.309.309 0 0 1-.304.305H6.502v-2.438h6.982ZM2.516 6.906h2.97v2.438h-2.97V6.906Zm3.986-1.015V3.453h6.678c.152 0 .304.152.304.305V5.89H6.502ZM5.486 3.453v2.438h-2.97V3.758c0-.153.127-.305.304-.305h2.666Zm-2.97 6.906h2.97v2.438H2.82a.293.293 0 0 1-.304-.305V10.36Z"/>
    </svg>
</svg>
