<svg xmlns="http://www.w3.org/2000/svg" width="16" height="16" fill="currentColor" aria-hidden="true" class="yc-icon"><path d="M11.281 10.545H.72a.418.418 0 0 0-.406.406v.406c0 .229.177.407.406.407H11.28a.418.418 0 0 0 .406-.407v-.406a.437.437 0 0 0-.406-.406ZM.998 9.02l2.438-2.437a.622.622 0 0 0 .101-.305A.625.625 0 0 0 3.436 6L.998 3.562a.4.4 0 0 0-.685.28v4.875c0 .38.431.558.685.304Zm10.36-4.976H5.491c-.178 0-.304.152-.304.33v.584c0 .178.126.305.304.305h5.865c.178 0 .33-.127.33-.305v-.584a.336.336 0 0 0-.33-.33ZM11.28.998H.72a.418.418 0 0 0-.406.406v.407c0 .228.177.406.406.406H11.28a.418.418 0 0 0 .406-.406v-.407a.437.437 0 0 0-.406-.406Zm.076 6.297H5.492c-.178 0-.304.152-.304.33v.584c0 .178.126.305.304.305h5.865c.178 0 .33-.127.33-.305v-.584a.336.336 0 0 0-.33-.33Z"/></svg>