<svg xmlns="http://www.w3.org/2000/svg" xmlns:xlink="http://www.w3.org/1999/xlink" width="16" height="16" class="yc-icon" fill="currentColor" stroke="none" aria-hidden="true"><svg viewBox="0 0 16 16" fill="none" xmlns="http://www.w3.org/2000/svg"><path d="M13.688 10.486v-6.83c0-.66-.56-1.219-1.22-1.219H3.532c-.685 0-1.219.56-1.219 1.22v8.937c0 .685.534 1.219 1.22 1.219h6.804c.28 0 .66-.153.863-.356l2.108-2.107c.203-.204.38-.584.38-.864zm-3.25 2.032v-1.956h1.93l-1.93 1.956zm2.03-8.862v5.688h-2.64c-.355 0-.61.279-.61.61v2.64H3.532V3.656h8.938z" fill="currentColor"></path></svg></svg>