<svg xmlns="http://www.w3.org/2000/svg" width="20" height="20" fill="currentColor" aria-hidden="true" class="yc-icon ye-command-menu__item-icon">
    <svg xmlns="http://www.w3.org/2000/svg" fill="none" viewBox="0 0 16 16">
        <path fill="currentColor" fill-rule="evenodd" d="M5.25 3.5H4A1.5 1.5 0 0 0 2.5 5v6A1.5 1.5 0 0 0 4 12.5h8a1.5 1.5 0 0 0 1.5-1.5V7H6a.75.75 0 0 1-.75-.75V3.5Zm1.5 0h2.5v2h-2.5v-2Zm4 0H12A1.5 1.5 0 0 1 13.5 5v.5h-2.75v-2ZM15 5a3 3 0 0 0-3-3H4a3 3 0 0 0-3 3v6a3 3 0 0 0 3 3h8a3 3 0 0 0 3-3V5Z" clip-rule="evenodd"/>
    </svg>
</svg>
