<svg xmlns="http://www.w3.org/2000/svg" width="20" height="20" fill="currentColor" aria-hidden="true" class="yc-icon ye-command-menu__item-icon">
    <svg xmlns="http://www.w3.org/2000/svg" viewBox="0 0 14 12">
        <path d="M12.281.438H1.72C1.033.438.5.996.5 1.655v8.938c0 .685.533 1.219 1.219 1.219H12.28a1.22 1.22 0 0 0 1.219-1.22V1.657c0-.66-.559-1.218-1.219-1.218zm-.152 10.156H1.87c-.101 0-.152-.051-.152-.153V1.81c0-.077.05-.153.152-.153h10.26c.076 0 .152.076.152.153v8.632c0 .102-.076.153-.152.153zm-1.066-2.336a.328.328 0 0 0-.305-.305H5.68a.309.309 0 0 0-.305.305v.61c0 .177.127.304.305.304h5.078a.309.309 0 0 0 .305-.305v-.61zm0-2.438a.328.328 0 0 0-.305-.304H5.68a.309.309 0 0 0-.305.304v.61c0 .177.127.304.305.304h5.078a.309.309 0 0 0 .305-.304v-.61zm0-2.437a.328.328 0 0 0-.305-.305H5.68a.309.309 0 0 0-.305.305v.61c0 .177.127.304.305.304h5.078a.309.309 0 0 0 .305-.305v-.61zm-6.399.304a.944.944 0 0 0-.914-.914.927.927 0 0 0-.914.914.91.91 0 0 0 .914.915.927.927 0 0 0 .914-.915zm0 2.438a.944.944 0 0 0-.914-.914.927.927 0 0 0-.914.914.91.91 0 0 0 .914.914.927.927 0 0 0 .914-.914zm0 2.438a.944.944 0 0 0-.914-.915.927.927 0 0 0-.914.915.91.91 0 0 0 .914.914.927.927 0 0 0 .914-.915z"/>
    </svg>
</svg>
