<svg xmlns="http://www.w3.org/2000/svg" width="16" height="16" fill="currentColor" aria-hidden="true" class="yc-icon"><svg xmlns="http://www.w3.org/2000/svg" fill="none" viewBox="0 0 16 16"><path fill="currentColor" d="M4.005 2H5.43v7.08c0 .87.245 1.515.735 1.935.5.42 1.18.63 2.04.63.42 0 .805-.05 1.155-.15.36-.11.67-.27.93-.48.26-.22.46-.49.6-.81.15-.32.225-.695.225-1.125V2h1.35v7.035c0 .62-.11 1.17-.33 1.65-.22.48-.525.885-.915 1.215-.38.33-.83.58-1.35.75-.52.17-1.085.255-1.695.255-.59 0-1.14-.08-1.65-.24-.51-.16-.955-.4-1.335-.72-.37-.32-.66-.715-.87-1.185-.21-.48-.315-1.035-.315-1.665V2zM3 14.885h10.38v.885H3v-.885z"/></svg></svg>