<svg width="700" height="530" viewBox="0 0 700 530" fill="none" xmlns="http://www.w3.org/2000/svg">
<rect x="94" y="286" width="148" height="42" rx="4" fill="white" stroke="#67B0F8" stroke-width="2"/>
<path d="M122.563 310.699H123.851V314.269H122.633L122.493 311.889H115.283L115.129 314.269H113.939V310.699H114.625C114.943 310.41 115.195 310.022 115.381 309.537C115.577 309.042 115.727 308.436 115.829 307.717C115.932 306.998 116.007 306.154 116.053 305.183C116.1 304.212 116.137 303.102 116.165 301.851H122.563V310.699ZM121.233 310.699V303.055H117.397C117.369 304.119 117.327 305.062 117.271 305.883C117.225 306.695 117.15 307.409 117.047 308.025C116.954 308.641 116.833 309.168 116.683 309.607C116.543 310.036 116.366 310.4 116.151 310.699H121.233ZM131.129 311.273C131.026 311.348 130.9 311.427 130.751 311.511C130.601 311.595 130.419 311.679 130.205 311.763C129.99 311.838 129.747 311.898 129.477 311.945C129.206 312.001 128.903 312.029 128.567 312.029C127.344 312.029 126.415 311.698 125.781 311.035C125.146 310.372 124.829 309.444 124.829 308.249C124.829 307.661 124.913 307.134 125.081 306.667C125.258 306.2 125.501 305.808 125.809 305.491C126.117 305.164 126.481 304.917 126.901 304.749C127.321 304.572 127.778 304.483 128.273 304.483C128.795 304.483 129.262 304.572 129.673 304.749C130.083 304.926 130.419 305.188 130.681 305.533C130.951 305.878 131.133 306.308 131.227 306.821C131.329 307.325 131.329 307.913 131.227 308.585H126.103C126.149 309.369 126.383 309.957 126.803 310.349C127.223 310.732 127.848 310.923 128.679 310.923C129.239 310.923 129.719 310.844 130.121 310.685C130.522 310.526 130.858 310.354 131.129 310.167V311.273ZM128.245 305.575C127.713 305.575 127.255 305.738 126.873 306.065C126.49 306.392 126.247 306.886 126.145 307.549H130.051C130.088 306.877 129.934 306.382 129.589 306.065C129.243 305.738 128.795 305.575 128.245 305.575ZM137.136 310.503C137.052 310.671 136.945 310.848 136.814 311.035C136.683 311.212 136.52 311.376 136.324 311.525C136.128 311.674 135.895 311.796 135.624 311.889C135.363 311.982 135.055 312.029 134.7 312.029C134.047 312.029 133.519 311.847 133.118 311.483C132.717 311.11 132.516 310.578 132.516 309.887C132.516 309.094 132.791 308.51 133.342 308.137C133.902 307.764 134.695 307.577 135.722 307.577H137.08V306.975C137.08 306.471 136.949 306.112 136.688 305.897C136.427 305.682 135.979 305.575 135.344 305.575C134.896 305.575 134.471 305.65 134.07 305.799C133.669 305.939 133.309 306.102 132.992 306.289V305.183C133.253 305.024 133.603 304.87 134.042 304.721C134.49 304.562 134.98 304.483 135.512 304.483C136.427 304.483 137.122 304.674 137.598 305.057C138.074 305.43 138.312 306.014 138.312 306.807V310.713C138.312 310.797 138.312 310.895 138.312 311.007C138.321 311.11 138.326 311.217 138.326 311.329C138.335 311.441 138.345 311.548 138.354 311.651C138.363 311.744 138.373 311.824 138.382 311.889H137.262C137.234 311.758 137.206 311.576 137.178 311.343C137.159 311.1 137.15 310.89 137.15 310.713L137.136 310.503ZM134.966 310.923C135.349 310.923 135.675 310.844 135.946 310.685C136.217 310.526 136.436 310.344 136.604 310.139C136.772 309.924 136.893 309.719 136.968 309.523C137.043 309.318 137.08 309.173 137.08 309.089V308.557H135.848C135.111 308.557 134.574 308.664 134.238 308.879C133.911 309.084 133.748 309.397 133.748 309.817C133.748 310.144 133.846 310.41 134.042 310.615C134.238 310.82 134.546 310.923 134.966 310.923ZM142.125 308.795H141.481V311.889H140.249V304.623H141.481V307.745H142.181L144.729 304.623H146.129L143.147 308.207L146.185 311.889H144.687L142.125 308.795ZM150.408 305.673V311.889H149.176V305.673H146.894V304.623H152.732V305.673H150.408ZM155.385 310.209L159.263 304.623H160.509V311.889H159.277V306.317L155.413 311.889H154.153V304.623H155.385V310.209ZM162.521 304.623H165.237C166.114 304.623 166.777 304.777 167.225 305.085C167.673 305.384 167.897 305.855 167.897 306.499C167.897 306.928 167.785 307.274 167.561 307.535C167.346 307.787 167.038 307.969 166.637 308.081C167.673 308.249 168.191 308.823 168.191 309.803C168.191 310.176 168.116 310.498 167.967 310.769C167.817 311.03 167.612 311.245 167.351 311.413C167.089 311.581 166.772 311.702 166.399 311.777C166.035 311.852 165.638 311.889 165.209 311.889H162.521V304.623ZM163.753 305.673V307.647H165.125C165.591 307.647 165.965 307.563 166.245 307.395C166.534 307.227 166.679 306.984 166.679 306.667C166.679 306.284 166.553 306.023 166.301 305.883C166.049 305.743 165.689 305.673 165.223 305.673H163.753ZM163.753 308.627V310.839H165.195C165.456 310.839 165.689 310.825 165.895 310.797C166.109 310.76 166.291 310.699 166.441 310.615C166.599 310.531 166.721 310.419 166.805 310.279C166.889 310.139 166.931 309.966 166.931 309.761C166.931 309.341 166.786 309.047 166.497 308.879C166.207 308.711 165.773 308.627 165.195 308.627H163.753ZM171.272 310.209L175.15 304.623H176.396V311.889H175.164V306.317L171.3 311.889H170.04V304.623H171.272V310.209ZM182.061 312.029C181.501 312.029 181.016 311.898 180.605 311.637C180.204 311.376 179.882 311.016 179.639 310.559V314.367H178.407V304.623H179.485L179.611 306.037C179.854 305.561 180.181 305.183 180.591 304.903C181.002 304.623 181.511 304.483 182.117 304.483C182.537 304.483 182.939 304.562 183.321 304.721C183.713 304.87 184.054 305.104 184.343 305.421C184.642 305.729 184.875 306.121 185.043 306.597C185.221 307.064 185.309 307.614 185.309 308.249C185.309 308.893 185.221 309.453 185.043 309.929C184.866 310.396 184.628 310.788 184.329 311.105C184.031 311.413 183.685 311.646 183.293 311.805C182.901 311.954 182.491 312.029 182.061 312.029ZM181.879 310.923C182.523 310.923 183.041 310.704 183.433 310.265C183.835 309.817 184.035 309.145 184.035 308.249C184.035 307.372 183.835 306.709 183.433 306.261C183.041 305.804 182.523 305.575 181.879 305.575C181.562 305.575 181.263 305.631 180.983 305.743C180.713 305.855 180.475 306.023 180.269 306.247C180.073 306.462 179.915 306.737 179.793 307.073C179.681 307.409 179.625 307.801 179.625 308.249C179.625 308.697 179.681 309.089 179.793 309.425C179.915 309.761 180.073 310.041 180.269 310.265C180.475 310.489 180.713 310.657 180.983 310.769C181.263 310.872 181.562 310.923 181.879 310.923ZM189.784 312.029C189.289 312.029 188.827 311.945 188.398 311.777C187.969 311.609 187.595 311.366 187.278 311.049C186.97 310.722 186.727 310.326 186.55 309.859C186.373 309.392 186.284 308.856 186.284 308.249C186.284 307.652 186.373 307.12 186.55 306.653C186.727 306.177 186.97 305.78 187.278 305.463C187.595 305.146 187.969 304.903 188.398 304.735C188.827 304.567 189.289 304.483 189.784 304.483C190.288 304.483 190.755 304.567 191.184 304.735C191.613 304.903 191.982 305.146 192.29 305.463C192.607 305.78 192.855 306.177 193.032 306.653C193.219 307.12 193.312 307.652 193.312 308.249C193.312 308.856 193.219 309.392 193.032 309.859C192.855 310.326 192.607 310.722 192.29 311.049C191.982 311.366 191.613 311.609 191.184 311.777C190.755 311.945 190.288 312.029 189.784 312.029ZM189.784 310.923C190.111 310.923 190.409 310.872 190.68 310.769C190.96 310.657 191.203 310.494 191.408 310.279C191.613 310.055 191.772 309.775 191.884 309.439C191.996 309.103 192.052 308.706 192.052 308.249C192.052 307.792 191.996 307.395 191.884 307.059C191.772 306.723 191.613 306.448 191.408 306.233C191.203 306.009 190.96 305.846 190.68 305.743C190.409 305.631 190.111 305.575 189.784 305.575C189.457 305.575 189.159 305.631 188.888 305.743C188.617 305.846 188.379 306.009 188.174 306.233C187.978 306.448 187.824 306.723 187.712 307.059C187.6 307.395 187.544 307.792 187.544 308.249C187.544 308.706 187.6 309.103 187.712 309.439C187.824 309.775 187.978 310.055 188.174 310.279C188.379 310.494 188.617 310.657 188.888 310.769C189.159 310.872 189.457 310.923 189.784 310.923ZM194.814 304.623H197.53C198.407 304.623 199.07 304.777 199.518 305.085C199.966 305.384 200.19 305.855 200.19 306.499C200.19 306.928 200.078 307.274 199.854 307.535C199.639 307.787 199.331 307.969 198.93 308.081C199.966 308.249 200.484 308.823 200.484 309.803C200.484 310.176 200.409 310.498 200.26 310.769C200.11 311.03 199.905 311.245 199.644 311.413C199.382 311.581 199.065 311.702 198.692 311.777C198.328 311.852 197.931 311.889 197.502 311.889H194.814V304.623ZM196.046 305.673V307.647H197.418C197.884 307.647 198.258 307.563 198.538 307.395C198.827 307.227 198.972 306.984 198.972 306.667C198.972 306.284 198.846 306.023 198.594 305.883C198.342 305.743 197.982 305.673 197.516 305.673H196.046ZM196.046 308.627V310.839H197.488C197.749 310.839 197.982 310.825 198.188 310.797C198.402 310.76 198.584 310.699 198.734 310.615C198.892 310.531 199.014 310.419 199.098 310.279C199.182 310.139 199.224 309.966 199.224 309.761C199.224 309.341 199.079 309.047 198.79 308.879C198.5 308.711 198.066 308.627 197.488 308.627H196.046ZM206.589 310.503C206.505 310.671 206.398 310.848 206.267 311.035C206.136 311.212 205.973 311.376 205.777 311.525C205.581 311.674 205.348 311.796 205.077 311.889C204.816 311.982 204.508 312.029 204.153 312.029C203.5 312.029 202.972 311.847 202.571 311.483C202.17 311.11 201.969 310.578 201.969 309.887C201.969 309.094 202.244 308.51 202.795 308.137C203.355 307.764 204.148 307.577 205.175 307.577H206.533V306.975C206.533 306.471 206.402 306.112 206.141 305.897C205.88 305.682 205.432 305.575 204.797 305.575C204.349 305.575 203.924 305.65 203.523 305.799C203.122 305.939 202.762 306.102 202.445 306.289V305.183C202.706 305.024 203.056 304.87 203.495 304.721C203.943 304.562 204.433 304.483 204.965 304.483C205.88 304.483 206.575 304.674 207.051 305.057C207.527 305.43 207.765 306.014 207.765 306.807V310.713C207.765 310.797 207.765 310.895 207.765 311.007C207.774 311.11 207.779 311.217 207.779 311.329C207.788 311.441 207.798 311.548 207.807 311.651C207.816 311.744 207.826 311.824 207.835 311.889H206.715C206.687 311.758 206.659 311.576 206.631 311.343C206.612 311.1 206.603 310.89 206.603 310.713L206.589 310.503ZM204.419 310.923C204.802 310.923 205.128 310.844 205.399 310.685C205.67 310.526 205.889 310.344 206.057 310.139C206.225 309.924 206.346 309.719 206.421 309.523C206.496 309.318 206.533 309.173 206.533 309.089V308.557H205.301C204.564 308.557 204.027 308.664 203.691 308.879C203.364 309.084 203.201 309.397 203.201 309.817C203.201 310.144 203.299 310.41 203.495 310.615C203.691 310.82 203.999 310.923 204.419 310.923ZM212.56 305.673V311.889H211.328V305.673H209.046V304.623H214.884V305.673H212.56ZM221.71 309.467C221.71 309.887 221.635 310.251 221.486 310.559C221.336 310.867 221.126 311.119 220.856 311.315C220.585 311.511 220.263 311.656 219.89 311.749C219.516 311.842 219.11 311.889 218.672 311.889H216.264V304.623H217.496V307.157H218.756C219.68 307.157 220.403 307.339 220.926 307.703C221.448 308.067 221.71 308.655 221.71 309.467ZM217.496 308.207V310.839H218.672C219.204 310.839 219.633 310.741 219.96 310.545C220.296 310.34 220.464 310.004 220.464 309.537C220.464 309.061 220.314 308.72 220.016 308.515C219.717 308.31 219.297 308.207 218.756 308.207H217.496Z" fill="#18123D"/>
<rect x="457" y="285" width="150" height="44" rx="5" fill="#FFDADA"/>
<path d="M510.996 312.029C510.324 312.029 509.694 311.917 509.106 311.693C508.518 311.46 508.01 311.124 507.58 310.685C507.151 310.246 506.81 309.705 506.558 309.061C506.316 308.417 506.194 307.675 506.194 306.835C506.194 305.995 506.316 305.258 506.558 304.623C506.81 303.979 507.151 303.447 507.58 303.027C508.01 302.598 508.518 302.276 509.106 302.061C509.694 301.837 510.324 301.725 510.996 301.725C511.678 301.725 512.312 301.837 512.9 302.061C513.488 302.276 513.997 302.598 514.426 303.027C514.856 303.456 515.192 303.993 515.434 304.637C515.677 305.272 515.798 306.009 515.798 306.849C515.798 307.68 515.677 308.417 515.434 309.061C515.192 309.705 514.856 310.246 514.426 310.685C513.997 311.124 513.488 311.46 512.9 311.693C512.312 311.917 511.678 312.029 510.996 312.029ZM510.996 310.839C511.482 310.839 511.93 310.769 512.34 310.629C512.751 310.48 513.106 310.251 513.404 309.943C513.712 309.626 513.95 309.215 514.118 308.711C514.296 308.207 514.384 307.596 514.384 306.877C514.384 306.158 514.296 305.547 514.118 305.043C513.95 304.539 513.712 304.133 513.404 303.825C513.106 303.508 512.751 303.279 512.34 303.139C511.93 302.99 511.482 302.915 510.996 302.915C510.511 302.915 510.063 302.99 509.652 303.139C509.242 303.279 508.882 303.508 508.574 303.825C508.276 304.133 508.038 304.539 507.86 305.043C507.692 305.547 507.608 306.158 507.608 306.877C507.608 307.596 507.692 308.207 507.86 308.711C508.038 309.215 508.276 309.626 508.574 309.943C508.882 310.251 509.242 310.48 509.652 310.629C510.063 310.769 510.511 310.839 510.996 310.839ZM526.46 311.889H517.388V304.623H518.62V310.839H521.308V304.623H522.54V310.839H525.228V304.623H526.46V311.889ZM529.708 310.209L533.586 304.623H534.832V311.889H533.6V306.317L529.736 311.889H528.476V304.623H529.708V310.209ZM543.395 308.249C543.395 308.856 543.302 309.392 543.115 309.859C542.938 310.326 542.69 310.722 542.373 311.049C542.065 311.366 541.696 311.609 541.267 311.777C540.838 311.945 540.371 312.029 539.867 312.029C539.354 312.029 538.882 311.945 538.453 311.777C538.024 311.6 537.655 311.334 537.347 310.979C537.039 310.624 536.796 310.176 536.619 309.635C536.451 309.094 536.367 308.454 536.367 307.717C536.367 307.11 536.386 306.532 536.423 305.981C536.46 305.43 536.544 304.922 536.675 304.455C536.806 303.979 536.992 303.554 537.235 303.181C537.487 302.798 537.823 302.481 538.243 302.229C538.476 302.089 538.719 301.986 538.971 301.921C539.223 301.846 539.475 301.79 539.727 301.753C539.988 301.716 540.25 301.692 540.511 301.683C540.772 301.674 541.029 301.664 541.281 301.655C541.654 301.627 541.967 301.58 542.219 301.515C542.471 301.45 542.695 301.361 542.891 301.249V302.369C542.686 302.5 542.466 302.593 542.233 302.649C542.009 302.696 541.734 302.738 541.407 302.775C540.875 302.822 540.385 302.859 539.937 302.887C539.498 302.906 539.097 303.008 538.733 303.195C538.266 303.456 537.935 303.848 537.739 304.371C537.552 304.884 537.436 305.496 537.389 306.205C537.874 305.085 538.789 304.525 540.133 304.525C540.59 304.525 541.015 304.609 541.407 304.777C541.808 304.936 542.154 305.174 542.443 305.491C542.742 305.808 542.975 306.2 543.143 306.667C543.311 307.124 543.395 307.652 543.395 308.249ZM539.867 310.923C540.194 310.923 540.492 310.872 540.763 310.769C541.043 310.657 541.286 310.494 541.491 310.279C541.696 310.055 541.855 309.775 541.967 309.439C542.079 309.103 542.135 308.706 542.135 308.249C542.135 307.792 542.079 307.395 541.967 307.059C541.855 306.723 541.696 306.448 541.491 306.233C541.286 306.009 541.043 305.846 540.763 305.743C540.492 305.631 540.194 305.575 539.867 305.575C539.223 305.575 538.686 305.79 538.257 306.219C537.837 306.648 537.627 307.311 537.627 308.207C537.627 308.674 537.683 309.08 537.795 309.425C537.907 309.761 538.061 310.041 538.257 310.265C538.462 310.489 538.7 310.657 538.971 310.769C539.242 310.872 539.54 310.923 539.867 310.923ZM546.813 308.795H546.169V311.889H544.937V304.623H546.169V307.745H546.869L549.417 304.623H550.817L547.835 308.207L550.873 311.889H549.375L546.813 308.795ZM556.288 310.503C556.204 310.671 556.097 310.848 555.966 311.035C555.836 311.212 555.672 311.376 555.476 311.525C555.28 311.674 555.047 311.796 554.776 311.889C554.515 311.982 554.207 312.029 553.852 312.029C553.199 312.029 552.672 311.847 552.27 311.483C551.869 311.11 551.668 310.578 551.668 309.887C551.668 309.094 551.944 308.51 552.494 308.137C553.054 307.764 553.848 307.577 554.874 307.577H556.232V306.975C556.232 306.471 556.102 306.112 555.84 305.897C555.579 305.682 555.131 305.575 554.496 305.575C554.048 305.575 553.624 305.65 553.222 305.799C552.821 305.939 552.462 306.102 552.144 306.289V305.183C552.406 305.024 552.756 304.87 553.194 304.721C553.642 304.562 554.132 304.483 554.664 304.483C555.579 304.483 556.274 304.674 556.75 305.057C557.226 305.43 557.464 306.014 557.464 306.807V310.713C557.464 310.797 557.464 310.895 557.464 311.007C557.474 311.11 557.478 311.217 557.478 311.329C557.488 311.441 557.497 311.548 557.506 311.651C557.516 311.744 557.525 311.824 557.534 311.889H556.414C556.386 311.758 556.358 311.576 556.33 311.343C556.312 311.1 556.302 310.89 556.302 310.713L556.288 310.503ZM554.118 310.923C554.501 310.923 554.828 310.844 555.098 310.685C555.369 310.526 555.588 310.344 555.756 310.139C555.924 309.924 556.046 309.719 556.12 309.523C556.195 309.318 556.232 309.173 556.232 309.089V308.557H555C554.263 308.557 553.726 308.664 553.39 308.879C553.064 309.084 552.9 309.397 552.9 309.817C552.9 310.144 552.998 310.41 553.194 310.615C553.39 310.82 553.698 310.923 554.118 310.923Z" fill="#18123D"/>
<rect x="275" y="201" width="150" height="44" rx="5" fill="#D3E3FC"/>
<path d="M321.494 228.029C320.747 228.029 320.071 227.912 319.464 227.679C318.857 227.446 318.335 227.11 317.896 226.671C317.467 226.223 317.135 225.682 316.902 225.047C316.669 224.403 316.552 223.68 316.552 222.877C316.552 222.065 316.659 221.342 316.874 220.707C317.089 220.072 317.406 219.536 317.826 219.097C318.246 218.649 318.759 218.308 319.366 218.075C319.982 217.842 320.682 217.725 321.466 217.725C322.147 217.725 322.745 217.8 323.258 217.949C323.771 218.089 324.191 218.257 324.518 218.453V219.713C324.098 219.442 323.613 219.242 323.062 219.111C322.521 218.98 321.984 218.915 321.452 218.915C320.267 218.915 319.389 219.246 318.82 219.909C318.26 220.562 317.98 221.552 317.98 222.877C317.98 224.212 318.283 225.206 318.89 225.859C319.506 226.512 320.411 226.839 321.606 226.839C322.119 226.839 322.619 226.769 323.104 226.629C323.599 226.489 324.07 226.251 324.518 225.915V227.175C324.247 227.39 323.851 227.586 323.328 227.763C322.815 227.94 322.203 228.029 321.494 228.029ZM329.278 228.029C328.783 228.029 328.321 227.945 327.892 227.777C327.463 227.609 327.089 227.366 326.772 227.049C326.464 226.722 326.221 226.326 326.044 225.859C325.867 225.392 325.778 224.856 325.778 224.249C325.778 223.652 325.867 223.12 326.044 222.653C326.221 222.177 326.464 221.78 326.772 221.463C327.089 221.146 327.463 220.903 327.892 220.735C328.321 220.567 328.783 220.483 329.278 220.483C329.782 220.483 330.249 220.567 330.678 220.735C331.107 220.903 331.476 221.146 331.784 221.463C332.101 221.78 332.349 222.177 332.526 222.653C332.713 223.12 332.806 223.652 332.806 224.249C332.806 224.856 332.713 225.392 332.526 225.859C332.349 226.326 332.101 226.722 331.784 227.049C331.476 227.366 331.107 227.609 330.678 227.777C330.249 227.945 329.782 228.029 329.278 228.029ZM329.278 226.923C329.605 226.923 329.903 226.872 330.174 226.769C330.454 226.657 330.697 226.494 330.902 226.279C331.107 226.055 331.266 225.775 331.378 225.439C331.49 225.103 331.546 224.706 331.546 224.249C331.546 223.792 331.49 223.395 331.378 223.059C331.266 222.723 331.107 222.448 330.902 222.233C330.697 222.009 330.454 221.846 330.174 221.743C329.903 221.631 329.605 221.575 329.278 221.575C328.951 221.575 328.653 221.631 328.382 221.743C328.111 221.846 327.873 222.009 327.668 222.233C327.472 222.448 327.318 222.723 327.206 223.059C327.094 223.395 327.038 223.792 327.038 224.249C327.038 224.706 327.094 225.103 327.206 225.439C327.318 225.775 327.472 226.055 327.668 226.279C327.873 226.494 328.111 226.657 328.382 226.769C328.653 226.872 328.951 226.923 329.278 226.923ZM339.391 225.775C339.391 226.186 339.307 226.536 339.139 226.825C338.981 227.105 338.761 227.338 338.481 227.525C338.201 227.702 337.875 227.828 337.501 227.903C337.137 227.987 336.755 228.029 336.353 228.029C335.821 228.029 335.35 227.973 334.939 227.861C334.538 227.749 334.221 227.614 333.987 227.455V226.349C334.277 226.526 334.622 226.666 335.023 226.769C335.425 226.872 335.859 226.923 336.325 226.923C336.857 226.923 337.301 226.839 337.655 226.671C338.019 226.494 338.201 226.195 338.201 225.775C338.201 225.364 338.047 225.075 337.739 224.907C337.441 224.739 336.979 224.655 336.353 224.655H335.387V223.661H336.395C336.909 223.661 337.301 223.568 337.571 223.381C337.842 223.194 337.977 222.924 337.977 222.569C337.977 222.382 337.931 222.228 337.837 222.107C337.753 221.976 337.637 221.874 337.487 221.799C337.338 221.715 337.161 221.659 336.955 221.631C336.759 221.594 336.549 221.575 336.325 221.575C335.896 221.575 335.495 221.626 335.121 221.729C334.757 221.832 334.426 221.976 334.127 222.163V221.057C334.37 220.898 334.683 220.763 335.065 220.651C335.457 220.539 335.91 220.483 336.423 220.483C337.31 220.483 337.977 220.651 338.425 220.987C338.883 221.323 339.111 221.808 339.111 222.443C339.111 222.919 338.981 223.292 338.719 223.563C338.467 223.834 338.108 224.02 337.641 224.123C338.22 224.198 338.654 224.38 338.943 224.669C339.242 224.958 339.391 225.327 339.391 225.775ZM340.806 226.839C341.068 226.68 341.273 226.433 341.422 226.097C341.572 225.761 341.688 225.336 341.772 224.823C341.856 224.31 341.912 223.703 341.94 223.003C341.978 222.303 342.01 221.51 342.038 220.623H347.036V226.839H348.128V229.961H347.05L346.896 227.889H341.492L341.366 229.961H340.26V226.839H340.806ZM345.804 226.839V221.673H343.144C343.098 223.045 343.009 224.146 342.878 224.977C342.757 225.798 342.542 226.419 342.234 226.839H345.804ZM353.603 226.503C353.519 226.671 353.412 226.848 353.281 227.035C353.15 227.212 352.987 227.376 352.791 227.525C352.595 227.674 352.362 227.796 352.091 227.889C351.83 227.982 351.522 228.029 351.167 228.029C350.514 228.029 349.986 227.847 349.585 227.483C349.184 227.11 348.983 226.578 348.983 225.887C348.983 225.094 349.258 224.51 349.809 224.137C350.369 223.764 351.162 223.577 352.189 223.577H353.547V222.975C353.547 222.471 353.416 222.112 353.155 221.897C352.894 221.682 352.446 221.575 351.811 221.575C351.363 221.575 350.938 221.65 350.537 221.799C350.136 221.939 349.776 222.102 349.459 222.289V221.183C349.72 221.024 350.07 220.87 350.509 220.721C350.957 220.562 351.447 220.483 351.979 220.483C352.894 220.483 353.589 220.674 354.065 221.057C354.541 221.43 354.779 222.014 354.779 222.807V226.713C354.779 226.797 354.779 226.895 354.779 227.007C354.788 227.11 354.793 227.217 354.793 227.329C354.802 227.441 354.812 227.548 354.821 227.651C354.83 227.744 354.84 227.824 354.849 227.889H353.729C353.701 227.758 353.673 227.576 353.645 227.343C353.626 227.1 353.617 226.89 353.617 226.713L353.603 226.503ZM351.433 226.923C351.816 226.923 352.142 226.844 352.413 226.685C352.684 226.526 352.903 226.344 353.071 226.139C353.239 225.924 353.36 225.719 353.435 225.523C353.51 225.318 353.547 225.173 353.547 225.089V224.557H352.315C351.578 224.557 351.041 224.664 350.705 224.879C350.378 225.084 350.215 225.397 350.215 225.817C350.215 226.144 350.313 226.41 350.509 226.615C350.705 226.82 351.013 226.923 351.433 226.923ZM362.498 227.273C362.395 227.348 362.269 227.427 362.12 227.511C361.971 227.595 361.789 227.679 361.574 227.763C361.359 227.838 361.117 227.898 360.846 227.945C360.575 228.001 360.272 228.029 359.936 228.029C358.713 228.029 357.785 227.698 357.15 227.035C356.515 226.372 356.198 225.444 356.198 224.249C356.198 223.661 356.282 223.134 356.45 222.667C356.627 222.2 356.87 221.808 357.178 221.491C357.486 221.164 357.85 220.917 358.27 220.749C358.69 220.572 359.147 220.483 359.642 220.483C360.165 220.483 360.631 220.572 361.042 220.749C361.453 220.926 361.789 221.188 362.05 221.533C362.321 221.878 362.503 222.308 362.596 222.821C362.699 223.325 362.699 223.913 362.596 224.585H357.472C357.519 225.369 357.752 225.957 358.172 226.349C358.592 226.732 359.217 226.923 360.048 226.923C360.608 226.923 361.089 226.844 361.49 226.685C361.891 226.526 362.227 226.354 362.498 226.167V227.273ZM359.614 221.575C359.082 221.575 358.625 221.738 358.242 222.065C357.859 222.392 357.617 222.886 357.514 223.549H361.42C361.457 222.877 361.303 222.382 360.958 222.065C360.613 221.738 360.165 221.575 359.614 221.575ZM367.107 221.673V227.889H365.875V221.673H363.593V220.623H369.431V221.673H367.107ZM373.784 228.029C373.224 228.029 372.715 227.945 372.258 227.777C371.81 227.6 371.427 227.352 371.11 227.035C370.792 226.708 370.55 226.312 370.382 225.845C370.214 225.378 370.13 224.846 370.13 224.249C370.13 223.661 370.214 223.134 370.382 222.667C370.559 222.2 370.806 221.808 371.124 221.491C371.441 221.164 371.828 220.917 372.286 220.749C372.743 220.572 373.261 220.483 373.84 220.483C374.288 220.483 374.698 220.534 375.072 220.637C375.445 220.73 375.753 220.87 375.996 221.057V222.163C375.697 221.967 375.361 221.822 374.988 221.729C374.624 221.626 374.246 221.575 373.854 221.575C373.004 221.575 372.379 221.794 371.978 222.233C371.586 222.672 371.39 223.344 371.39 224.249C371.39 225.154 371.581 225.826 371.964 226.265C372.346 226.704 372.953 226.923 373.784 226.923C374.222 226.923 374.624 226.872 374.988 226.769C375.361 226.657 375.697 226.517 375.996 226.349V227.455C375.734 227.614 375.417 227.749 375.044 227.861C374.68 227.973 374.26 228.029 373.784 228.029ZM377.648 222.975C377.648 222.564 377.722 222.214 377.872 221.925C378.021 221.626 378.231 221.384 378.502 221.197C378.772 221.001 379.094 220.856 379.468 220.763C379.841 220.67 380.247 220.623 380.686 220.623H383.024V227.889H381.792V225.257H380.462L378.6 227.889H377.13L379.23 224.949C378.726 224.8 378.334 224.571 378.054 224.263C377.783 223.955 377.648 223.526 377.648 222.975ZM381.792 224.207V221.673H380.686C380.163 221.673 379.734 221.771 379.398 221.967C379.062 222.163 378.894 222.48 378.894 222.919C378.894 223.376 379.043 223.708 379.342 223.913C379.64 224.109 380.065 224.207 380.616 224.207H381.792Z" fill="#18123D"/>
<rect x="276" y="118" width="148" height="42" rx="4" fill="white" stroke="#67B0F8" stroke-width="2"/>
<path d="M307.489 133.851H309.449L313.047 143.889H311.647L310.611 141.019H306.173L305.151 143.889H303.919L307.489 133.851ZM310.191 139.829L308.399 134.831L306.607 139.829H310.191ZM316.216 140.795H315.572V143.889H314.34V136.623H315.572V139.745H316.272L318.82 136.623H320.22L317.238 140.207L320.276 143.889H318.778L316.216 140.795ZM324.498 137.673V143.889H323.266V137.673H320.984V136.623H326.822V137.673H324.498ZM329.476 142.209L333.354 136.623H334.6V143.889H333.368V138.317L329.504 143.889H328.244V136.623H329.476V142.209ZM336.612 136.623H339.328C340.205 136.623 340.868 136.777 341.316 137.085C341.764 137.384 341.988 137.855 341.988 138.499C341.988 138.928 341.876 139.274 341.652 139.535C341.437 139.787 341.129 139.969 340.728 140.081C341.764 140.249 342.282 140.823 342.282 141.803C342.282 142.176 342.207 142.498 342.058 142.769C341.908 143.03 341.703 143.245 341.442 143.413C341.18 143.581 340.863 143.702 340.49 143.777C340.126 143.852 339.729 143.889 339.3 143.889H336.612V136.623ZM337.844 137.673V139.647H339.216C339.682 139.647 340.056 139.563 340.336 139.395C340.625 139.227 340.77 138.984 340.77 138.667C340.77 138.284 340.644 138.023 340.392 137.883C340.14 137.743 339.78 137.673 339.314 137.673H337.844ZM337.844 140.627V142.839H339.286C339.547 142.839 339.78 142.825 339.986 142.797C340.2 142.76 340.382 142.699 340.532 142.615C340.69 142.531 340.812 142.419 340.896 142.279C340.98 142.139 341.022 141.966 341.022 141.761C341.022 141.341 340.877 141.047 340.588 140.879C340.298 140.711 339.864 140.627 339.286 140.627H337.844ZM345.363 142.209L349.241 136.623H350.487V143.889H349.255V138.317L345.391 143.889H344.131V136.623H345.363V142.209ZM356.152 144.029C355.592 144.029 355.107 143.898 354.696 143.637C354.295 143.376 353.973 143.016 353.73 142.559V146.367H352.498V136.623H353.576L353.702 138.037C353.945 137.561 354.272 137.183 354.682 136.903C355.093 136.623 355.602 136.483 356.208 136.483C356.628 136.483 357.03 136.562 357.412 136.721C357.804 136.87 358.145 137.104 358.434 137.421C358.733 137.729 358.966 138.121 359.134 138.597C359.312 139.064 359.4 139.614 359.4 140.249C359.4 140.893 359.312 141.453 359.134 141.929C358.957 142.396 358.719 142.788 358.42 143.105C358.122 143.413 357.776 143.646 357.384 143.805C356.992 143.954 356.582 144.029 356.152 144.029ZM355.97 142.923C356.614 142.923 357.132 142.704 357.524 142.265C357.926 141.817 358.126 141.145 358.126 140.249C358.126 139.372 357.926 138.709 357.524 138.261C357.132 137.804 356.614 137.575 355.97 137.575C355.653 137.575 355.354 137.631 355.074 137.743C354.804 137.855 354.566 138.023 354.36 138.247C354.164 138.462 354.006 138.737 353.884 139.073C353.772 139.409 353.716 139.801 353.716 140.249C353.716 140.697 353.772 141.089 353.884 141.425C354.006 141.761 354.164 142.041 354.36 142.265C354.566 142.489 354.804 142.657 355.074 142.769C355.354 142.872 355.653 142.923 355.97 142.923ZM363.875 144.029C363.38 144.029 362.918 143.945 362.489 143.777C362.059 143.609 361.686 143.366 361.369 143.049C361.061 142.722 360.818 142.326 360.641 141.859C360.463 141.392 360.375 140.856 360.375 140.249C360.375 139.652 360.463 139.12 360.641 138.653C360.818 138.177 361.061 137.78 361.369 137.463C361.686 137.146 362.059 136.903 362.489 136.735C362.918 136.567 363.38 136.483 363.875 136.483C364.379 136.483 364.845 136.567 365.275 136.735C365.704 136.903 366.073 137.146 366.381 137.463C366.698 137.78 366.945 138.177 367.123 138.653C367.309 139.12 367.403 139.652 367.403 140.249C367.403 140.856 367.309 141.392 367.123 141.859C366.945 142.326 366.698 142.722 366.381 143.049C366.073 143.366 365.704 143.609 365.275 143.777C364.845 143.945 364.379 144.029 363.875 144.029ZM363.875 142.923C364.201 142.923 364.5 142.872 364.771 142.769C365.051 142.657 365.293 142.494 365.499 142.279C365.704 142.055 365.863 141.775 365.975 141.439C366.087 141.103 366.143 140.706 366.143 140.249C366.143 139.792 366.087 139.395 365.975 139.059C365.863 138.723 365.704 138.448 365.499 138.233C365.293 138.009 365.051 137.846 364.771 137.743C364.5 137.631 364.201 137.575 363.875 137.575C363.548 137.575 363.249 137.631 362.979 137.743C362.708 137.846 362.47 138.009 362.265 138.233C362.069 138.448 361.915 138.723 361.803 139.059C361.691 139.395 361.635 139.792 361.635 140.249C361.635 140.706 361.691 141.103 361.803 141.439C361.915 141.775 362.069 142.055 362.265 142.279C362.47 142.494 362.708 142.657 362.979 142.769C363.249 142.872 363.548 142.923 363.875 142.923ZM368.904 136.623H371.62C372.498 136.623 373.16 136.777 373.608 137.085C374.056 137.384 374.28 137.855 374.28 138.499C374.28 138.928 374.168 139.274 373.944 139.535C373.73 139.787 373.422 139.969 373.02 140.081C374.056 140.249 374.574 140.823 374.574 141.803C374.574 142.176 374.5 142.498 374.35 142.769C374.201 143.03 373.996 143.245 373.734 143.413C373.473 143.581 373.156 143.702 372.782 143.777C372.418 143.852 372.022 143.889 371.592 143.889H368.904V136.623ZM370.136 137.673V139.647H371.508C371.975 139.647 372.348 139.563 372.628 139.395C372.918 139.227 373.062 138.984 373.062 138.667C373.062 138.284 372.936 138.023 372.684 137.883C372.432 137.743 372.073 137.673 371.606 137.673H370.136ZM370.136 140.627V142.839H371.578C371.84 142.839 372.073 142.825 372.278 142.797C372.493 142.76 372.675 142.699 372.824 142.615C372.983 142.531 373.104 142.419 373.188 142.279C373.272 142.139 373.314 141.966 373.314 141.761C373.314 141.341 373.17 141.047 372.88 140.879C372.591 140.711 372.157 140.627 371.578 140.627H370.136ZM380.68 142.503C380.596 142.671 380.489 142.848 380.358 143.035C380.227 143.212 380.064 143.376 379.868 143.525C379.672 143.674 379.439 143.796 379.168 143.889C378.907 143.982 378.599 144.029 378.244 144.029C377.591 144.029 377.063 143.847 376.662 143.483C376.261 143.11 376.06 142.578 376.06 141.887C376.06 141.094 376.335 140.51 376.886 140.137C377.446 139.764 378.239 139.577 379.266 139.577H380.624V138.975C380.624 138.471 380.493 138.112 380.232 137.897C379.971 137.682 379.523 137.575 378.888 137.575C378.44 137.575 378.015 137.65 377.614 137.799C377.213 137.939 376.853 138.102 376.536 138.289V137.183C376.797 137.024 377.147 136.87 377.586 136.721C378.034 136.562 378.524 136.483 379.056 136.483C379.971 136.483 380.666 136.674 381.142 137.057C381.618 137.43 381.856 138.014 381.856 138.807V142.713C381.856 142.797 381.856 142.895 381.856 143.007C381.865 143.11 381.87 143.217 381.87 143.329C381.879 143.441 381.889 143.548 381.898 143.651C381.907 143.744 381.917 143.824 381.926 143.889H380.806C380.778 143.758 380.75 143.576 380.722 143.343C380.703 143.1 380.694 142.89 380.694 142.713L380.68 142.503ZM378.51 142.923C378.893 142.923 379.219 142.844 379.49 142.685C379.761 142.526 379.98 142.344 380.148 142.139C380.316 141.924 380.437 141.719 380.512 141.523C380.587 141.318 380.624 141.173 380.624 141.089V140.557H379.392C378.655 140.557 378.118 140.664 377.782 140.879C377.455 141.084 377.292 141.397 377.292 141.817C377.292 142.144 377.39 142.41 377.586 142.615C377.782 142.82 378.09 142.923 378.51 142.923ZM386.651 137.673V143.889H385.419V137.673H383.137V136.623H388.975V137.673H386.651ZM395.801 141.467C395.801 141.887 395.726 142.251 395.577 142.559C395.427 142.867 395.217 143.119 394.947 143.315C394.676 143.511 394.354 143.656 393.981 143.749C393.607 143.842 393.201 143.889 392.763 143.889H390.355V136.623H391.587V139.157H392.847C393.771 139.157 394.494 139.339 395.017 139.703C395.539 140.067 395.801 140.655 395.801 141.467ZM391.587 140.207V142.839H392.763C393.295 142.839 393.724 142.741 394.051 142.545C394.387 142.34 394.555 142.004 394.555 141.537C394.555 141.061 394.405 140.72 394.107 140.515C393.808 140.31 393.388 140.207 392.847 140.207H391.587Z" fill="#18123D"/>
<rect x="275" y="33" width="150" height="44" rx="5" fill="#D3E3FC"/>
<path d="M331.659 60.0289C330.912 60.0289 330.236 59.9122 329.629 59.6789C329.022 59.4456 328.5 59.1096 328.061 58.6709C327.632 58.2229 327.3 57.6816 327.067 57.0469C326.834 56.4029 326.717 55.6796 326.717 54.8769C326.717 54.0649 326.824 53.3416 327.039 52.7069C327.254 52.0722 327.571 51.5356 327.991 51.0969C328.411 50.6489 328.924 50.3082 329.531 50.0749C330.147 49.8416 330.847 49.7249 331.631 49.7249C332.312 49.7249 332.91 49.7996 333.423 49.9489C333.936 50.0889 334.356 50.2569 334.683 50.4529V51.7129C334.263 51.4422 333.778 51.2416 333.227 51.1109C332.686 50.9802 332.149 50.9149 331.617 50.9149C330.432 50.9149 329.554 51.2462 328.985 51.9089C328.425 52.5622 328.145 53.5516 328.145 54.8769C328.145 56.2116 328.448 57.2056 329.055 57.8589C329.671 58.5122 330.576 58.8389 331.771 58.8389C332.284 58.8389 332.784 58.7689 333.269 58.6289C333.764 58.4889 334.235 58.2509 334.683 57.9149V59.1749C334.412 59.3896 334.016 59.5856 333.493 59.7629C332.98 59.9402 332.368 60.0289 331.659 60.0289ZM339.443 60.0289C338.948 60.0289 338.486 59.9449 338.057 59.7769C337.628 59.6089 337.254 59.3662 336.937 59.0489C336.629 58.7222 336.386 58.3256 336.209 57.8589C336.032 57.3922 335.943 56.8556 335.943 56.2489C335.943 55.6516 336.032 55.1196 336.209 54.6529C336.386 54.1769 336.629 53.7802 336.937 53.4629C337.254 53.1456 337.628 52.9029 338.057 52.7349C338.486 52.5669 338.948 52.4829 339.443 52.4829C339.947 52.4829 340.414 52.5669 340.843 52.7349C341.272 52.9029 341.641 53.1456 341.949 53.4629C342.266 53.7802 342.514 54.1769 342.691 54.6529C342.878 55.1196 342.971 55.6516 342.971 56.2489C342.971 56.8556 342.878 57.3922 342.691 57.8589C342.514 58.3256 342.266 58.7222 341.949 59.0489C341.641 59.3662 341.272 59.6089 340.843 59.7769C340.414 59.9449 339.947 60.0289 339.443 60.0289ZM339.443 58.9229C339.77 58.9229 340.068 58.8716 340.339 58.7689C340.619 58.6569 340.862 58.4936 341.067 58.2789C341.272 58.0549 341.431 57.7749 341.543 57.4389C341.655 57.1029 341.711 56.7062 341.711 56.2489C341.711 55.7916 341.655 55.3949 341.543 55.0589C341.431 54.7229 341.272 54.4476 341.067 54.2329C340.862 54.0089 340.619 53.8456 340.339 53.7429C340.068 53.6309 339.77 53.5749 339.443 53.5749C339.116 53.5749 338.818 53.6309 338.547 53.7429C338.276 53.8456 338.038 54.0089 337.833 54.2329C337.637 54.4476 337.483 54.7229 337.371 55.0589C337.259 55.3949 337.203 55.7916 337.203 56.2489C337.203 56.7062 337.259 57.1029 337.371 57.4389C337.483 57.7749 337.637 58.0549 337.833 58.2789C338.038 58.4936 338.276 58.6569 338.547 58.7689C338.818 58.8716 339.116 58.9229 339.443 58.9229ZM349.556 57.7749C349.556 58.1856 349.472 58.5356 349.304 58.8249C349.146 59.1049 348.926 59.3382 348.646 59.5249C348.366 59.7022 348.04 59.8282 347.666 59.9029C347.302 59.9869 346.92 60.0289 346.518 60.0289C345.986 60.0289 345.515 59.9729 345.104 59.8609C344.703 59.7489 344.386 59.6136 344.152 59.4549V58.3489C344.442 58.5262 344.787 58.6662 345.188 58.7689C345.59 58.8716 346.024 58.9229 346.49 58.9229C347.022 58.9229 347.466 58.8389 347.82 58.6709C348.184 58.4936 348.366 58.1949 348.366 57.7749C348.366 57.3642 348.212 57.0749 347.904 56.9069C347.606 56.7389 347.144 56.6549 346.518 56.6549H345.552V55.6609H346.56C347.074 55.6609 347.466 55.5676 347.736 55.3809C348.007 55.1942 348.142 54.9236 348.142 54.5689C348.142 54.3822 348.096 54.2282 348.002 54.1069C347.918 53.9762 347.802 53.8736 347.652 53.7989C347.503 53.7149 347.326 53.6589 347.12 53.6309C346.924 53.5936 346.714 53.5749 346.49 53.5749C346.061 53.5749 345.66 53.6262 345.286 53.7289C344.922 53.8316 344.591 53.9762 344.292 54.1629V53.0569C344.535 52.8982 344.848 52.7629 345.23 52.6509C345.622 52.5389 346.075 52.4829 346.588 52.4829C347.475 52.4829 348.142 52.6509 348.59 52.9869C349.048 53.3229 349.276 53.8082 349.276 54.4429C349.276 54.9189 349.146 55.2922 348.884 55.5629C348.632 55.8336 348.273 56.0202 347.806 56.1229C348.385 56.1976 348.819 56.3796 349.108 56.6689C349.407 56.9582 349.556 57.3269 349.556 57.7749ZM350.971 58.8389C351.233 58.6802 351.438 58.4329 351.587 58.0969C351.737 57.7609 351.853 57.3362 351.937 56.8229C352.021 56.3096 352.077 55.7029 352.105 55.0029C352.143 54.3029 352.175 53.5096 352.203 52.6229H357.201V58.8389H358.293V61.9609H357.215L357.061 59.8889H351.657L351.531 61.9609H350.425V58.8389H350.971ZM355.969 58.8389V53.6729H353.309C353.263 55.0449 353.174 56.1462 353.043 56.9769C352.922 57.7982 352.707 58.4189 352.399 58.8389H355.969ZM363.768 58.5029C363.684 58.6709 363.577 58.8482 363.446 59.0349C363.315 59.2122 363.152 59.3756 362.956 59.5249C362.76 59.6742 362.527 59.7956 362.256 59.8889C361.995 59.9822 361.687 60.0289 361.332 60.0289C360.679 60.0289 360.151 59.8469 359.75 59.4829C359.349 59.1096 359.148 58.5776 359.148 57.8869C359.148 57.0936 359.423 56.5102 359.974 56.1369C360.534 55.7636 361.327 55.5769 362.354 55.5769H363.712V54.9749C363.712 54.4709 363.581 54.1116 363.32 53.8969C363.059 53.6822 362.611 53.5749 361.976 53.5749C361.528 53.5749 361.103 53.6496 360.702 53.7989C360.301 53.9389 359.941 54.1022 359.624 54.2889V53.1829C359.885 53.0242 360.235 52.8702 360.674 52.7209C361.122 52.5622 361.612 52.4829 362.144 52.4829C363.059 52.4829 363.754 52.6742 364.23 53.0569C364.706 53.4302 364.944 54.0136 364.944 54.8069V58.7129C364.944 58.7969 364.944 58.8949 364.944 59.0069C364.953 59.1096 364.958 59.2169 364.958 59.3289C364.967 59.4409 364.977 59.5482 364.986 59.6509C364.995 59.7442 365.005 59.8236 365.014 59.8889H363.894C363.866 59.7582 363.838 59.5762 363.81 59.3429C363.791 59.1002 363.782 58.8902 363.782 58.7129L363.768 58.5029ZM361.598 58.9229C361.981 58.9229 362.307 58.8436 362.578 58.6849C362.849 58.5262 363.068 58.3442 363.236 58.1389C363.404 57.9242 363.525 57.7189 363.6 57.5229C363.675 57.3176 363.712 57.1729 363.712 57.0889V56.5569H362.48C361.743 56.5569 361.206 56.6642 360.87 56.8789C360.543 57.0842 360.38 57.3969 360.38 57.8169C360.38 58.1436 360.478 58.4096 360.674 58.6149C360.87 58.8202 361.178 58.9229 361.598 58.9229ZM371.627 56.6689H368.113V59.8889H366.881V52.6229H368.113V55.6189H371.627V52.6229H372.859V59.8889H371.627V56.6689Z" fill="#18123D"/>
<path d="M350 285L344.226 275L355.774 275L350 285ZM349 276L349 245L351 245L351 276L349 276Z" fill="#4E496B"/>
<path d="M350 369L344.226 359L355.774 359L350 369ZM349 360L349 329L351 329L351 360L349 360Z" fill="#4E496B"/>
<path d="M243 307L253 312.774L253 301.226L243 307ZM252 308L275 308L275 306L252 306L252 308Z" fill="#4E496B"/>
<path d="M168 369L162.226 359L173.774 359L168 369ZM167 360L167 329L169 329L169 360L167 360Z" fill="#4E496B"/>
<path d="M168 453L162.226 443L173.774 443L168 453ZM167 444L167 413L169 413L169 444L167 444Z" fill="#4E496B"/>
<rect x="275" y="285" width="150" height="44" rx="5" fill="#D3E3FC"/>
<path d="M315.131 307.591H314.067V311.889H312.751V301.851H314.067V306.401H315.047L318.631 301.851H320.115L316.153 306.863L320.269 311.889H318.631L315.131 307.591ZM324.178 312.029C323.684 312.029 323.222 311.945 322.792 311.777C322.363 311.609 321.99 311.366 321.672 311.049C321.364 310.722 321.122 310.326 320.944 309.859C320.767 309.392 320.678 308.856 320.678 308.249C320.678 307.652 320.767 307.12 320.944 306.653C321.122 306.177 321.364 305.78 321.672 305.463C321.99 305.146 322.363 304.903 322.792 304.735C323.222 304.567 323.684 304.483 324.178 304.483C324.682 304.483 325.149 304.567 325.578 304.735C326.008 304.903 326.376 305.146 326.684 305.463C327.002 305.78 327.249 306.177 327.426 306.653C327.613 307.12 327.706 307.652 327.706 308.249C327.706 308.856 327.613 309.392 327.426 309.859C327.249 310.326 327.002 310.722 326.684 311.049C326.376 311.366 326.008 311.609 325.578 311.777C325.149 311.945 324.682 312.029 324.178 312.029ZM324.178 310.923C324.505 310.923 324.804 310.872 325.074 310.769C325.354 310.657 325.597 310.494 325.802 310.279C326.008 310.055 326.166 309.775 326.278 309.439C326.39 309.103 326.446 308.706 326.446 308.249C326.446 307.792 326.39 307.395 326.278 307.059C326.166 306.723 326.008 306.448 325.802 306.233C325.597 306.009 325.354 305.846 325.074 305.743C324.804 305.631 324.505 305.575 324.178 305.575C323.852 305.575 323.553 305.631 323.282 305.743C323.012 305.846 322.774 306.009 322.568 306.233C322.372 306.448 322.218 306.723 322.106 307.059C321.994 307.395 321.938 307.792 321.938 308.249C321.938 308.706 321.994 309.103 322.106 309.439C322.218 309.775 322.372 310.055 322.568 310.279C322.774 310.494 323.012 310.657 323.282 310.769C323.553 310.872 323.852 310.923 324.178 310.923ZM329.208 304.623H335.032V311.889H333.8V305.673H330.44V311.889H329.208V304.623ZM338.274 310.209L342.152 304.623H343.398V311.889H342.166V306.317L338.302 311.889H337.042V304.623H338.274V310.209ZM349.063 312.029C348.503 312.029 348.018 311.898 347.607 311.637C347.206 311.376 346.884 311.016 346.641 310.559V314.367H345.409V304.623H346.487L346.613 306.037C346.856 305.561 347.183 305.183 347.593 304.903C348.004 304.623 348.513 304.483 349.119 304.483C349.539 304.483 349.941 304.562 350.323 304.721C350.715 304.87 351.056 305.104 351.345 305.421C351.644 305.729 351.877 306.121 352.045 306.597C352.223 307.064 352.311 307.614 352.311 308.249C352.311 308.893 352.223 309.453 352.045 309.929C351.868 310.396 351.63 310.788 351.331 311.105C351.033 311.413 350.687 311.646 350.295 311.805C349.903 311.954 349.493 312.029 349.063 312.029ZM348.881 310.923C349.525 310.923 350.043 310.704 350.435 310.265C350.837 309.817 351.037 309.145 351.037 308.249C351.037 307.372 350.837 306.709 350.435 306.261C350.043 305.804 349.525 305.575 348.881 305.575C348.564 305.575 348.265 305.631 347.985 305.743C347.715 305.855 347.477 306.023 347.271 306.247C347.075 306.462 346.917 306.737 346.795 307.073C346.683 307.409 346.627 307.801 346.627 308.249C346.627 308.697 346.683 309.089 346.795 309.425C346.917 309.761 347.075 310.041 347.271 310.265C347.477 310.489 347.715 310.657 347.985 310.769C348.265 310.872 348.564 310.923 348.881 310.923ZM357.306 311.805C357.138 312.244 356.96 312.626 356.774 312.953C356.587 313.289 356.377 313.574 356.144 313.807C355.91 314.04 355.649 314.213 355.36 314.325C355.07 314.446 354.739 314.507 354.366 314.507C354.179 314.507 354.006 314.493 353.848 314.465C353.689 314.446 353.544 314.409 353.414 314.353V313.163C353.516 313.238 353.647 313.294 353.806 313.331C353.964 313.378 354.137 313.401 354.324 313.401C354.669 313.401 354.954 313.317 355.178 313.149C355.402 312.99 355.616 312.734 355.822 312.379L352.868 304.623H354.226L356.536 310.755L358.832 304.623H360.022L357.306 311.805ZM366.887 311.273C366.784 311.348 366.658 311.427 366.509 311.511C366.359 311.595 366.177 311.679 365.963 311.763C365.748 311.838 365.505 311.898 365.235 311.945C364.964 312.001 364.661 312.029 364.325 312.029C363.102 312.029 362.173 311.698 361.539 311.035C360.904 310.372 360.587 309.444 360.587 308.249C360.587 307.661 360.671 307.134 360.839 306.667C361.016 306.2 361.259 305.808 361.567 305.491C361.875 305.164 362.239 304.917 362.659 304.749C363.079 304.572 363.536 304.483 364.031 304.483C364.553 304.483 365.02 304.572 365.431 304.749C365.841 304.926 366.177 305.188 366.439 305.533C366.709 305.878 366.891 306.308 366.985 306.821C367.087 307.325 367.087 307.913 366.985 308.585H361.861C361.907 309.369 362.141 309.957 362.561 310.349C362.981 310.732 363.606 310.923 364.437 310.923C364.997 310.923 365.477 310.844 365.879 310.685C366.28 310.526 366.616 310.354 366.887 310.167V311.273ZM364.003 305.575C363.471 305.575 363.013 305.738 362.631 306.065C362.248 306.392 362.005 306.886 361.903 307.549H365.809C365.846 306.877 365.692 306.382 365.347 306.065C365.001 305.738 364.553 305.575 364.003 305.575ZM371.496 305.673V311.889H370.264V305.673H367.982V304.623H373.82V305.673H371.496ZM378.172 312.029C377.612 312.029 377.104 311.945 376.646 311.777C376.198 311.6 375.816 311.352 375.498 311.035C375.181 310.708 374.938 310.312 374.77 309.845C374.602 309.378 374.518 308.846 374.518 308.249C374.518 307.661 374.602 307.134 374.77 306.667C374.948 306.2 375.195 305.808 375.512 305.491C375.83 305.164 376.217 304.917 376.674 304.749C377.132 304.572 377.65 304.483 378.228 304.483C378.676 304.483 379.087 304.534 379.46 304.637C379.834 304.73 380.142 304.87 380.384 305.057V306.163C380.086 305.967 379.75 305.822 379.376 305.729C379.012 305.626 378.634 305.575 378.242 305.575C377.393 305.575 376.768 305.794 376.366 306.233C375.974 306.672 375.778 307.344 375.778 308.249C375.778 309.154 375.97 309.826 376.352 310.265C376.735 310.704 377.342 310.923 378.172 310.923C378.611 310.923 379.012 310.872 379.376 310.769C379.75 310.657 380.086 310.517 380.384 310.349V311.455C380.123 311.614 379.806 311.749 379.432 311.861C379.068 311.973 378.648 312.029 378.172 312.029ZM382.036 306.975C382.036 306.564 382.111 306.214 382.26 305.925C382.41 305.626 382.62 305.384 382.89 305.197C383.161 305.001 383.483 304.856 383.856 304.763C384.23 304.67 384.636 304.623 385.074 304.623H387.412V311.889H386.18V309.257H384.85L382.988 311.889H381.518L383.618 308.949C383.114 308.8 382.722 308.571 382.442 308.263C382.172 307.955 382.036 307.526 382.036 306.975ZM386.18 308.207V305.673H385.074C384.552 305.673 384.122 305.771 383.786 305.967C383.45 306.163 383.282 306.48 383.282 306.919C383.282 307.376 383.432 307.708 383.73 307.913C384.029 308.109 384.454 308.207 385.004 308.207H386.18Z" fill="#18123D"/>
<rect x="93" y="369" width="150" height="44" rx="5" fill="#D3E3FC"/>
<path d="M116.474 396.029C115.802 396.029 115.172 395.917 114.584 395.693C113.996 395.46 113.487 395.124 113.058 394.685C112.629 394.246 112.288 393.705 112.036 393.061C111.793 392.417 111.672 391.675 111.672 390.835C111.672 389.995 111.793 389.258 112.036 388.623C112.288 387.979 112.629 387.447 113.058 387.027C113.487 386.598 113.996 386.276 114.584 386.061C115.172 385.837 115.802 385.725 116.474 385.725C117.155 385.725 117.79 385.837 118.378 386.061C118.966 386.276 119.475 386.598 119.904 387.027C120.333 387.456 120.669 387.993 120.912 388.637C121.155 389.272 121.276 390.009 121.276 390.849C121.276 391.68 121.155 392.417 120.912 393.061C120.669 393.705 120.333 394.246 119.904 394.685C119.475 395.124 118.966 395.46 118.378 395.693C117.79 395.917 117.155 396.029 116.474 396.029ZM116.474 394.839C116.959 394.839 117.407 394.769 117.818 394.629C118.229 394.48 118.583 394.251 118.882 393.943C119.19 393.626 119.428 393.215 119.596 392.711C119.773 392.207 119.862 391.596 119.862 390.877C119.862 390.158 119.773 389.547 119.596 389.043C119.428 388.539 119.19 388.133 118.882 387.825C118.583 387.508 118.229 387.279 117.818 387.139C117.407 386.99 116.959 386.915 116.474 386.915C115.989 386.915 115.541 386.99 115.13 387.139C114.719 387.279 114.36 387.508 114.052 387.825C113.753 388.133 113.515 388.539 113.338 389.043C113.17 389.547 113.086 390.158 113.086 390.877C113.086 391.596 113.17 392.207 113.338 392.711C113.515 393.215 113.753 393.626 114.052 393.943C114.36 394.251 114.719 394.48 115.13 394.629C115.541 394.769 115.989 394.839 116.474 394.839ZM126.07 396.029C125.51 396.029 125.001 395.945 124.544 395.777C124.096 395.6 123.713 395.352 123.396 395.035C123.078 394.708 122.836 394.312 122.668 393.845C122.5 393.378 122.416 392.846 122.416 392.249C122.416 391.661 122.5 391.134 122.668 390.667C122.845 390.2 123.092 389.808 123.41 389.491C123.727 389.164 124.114 388.917 124.572 388.749C125.029 388.572 125.547 388.483 126.126 388.483C126.574 388.483 126.984 388.534 127.358 388.637C127.731 388.73 128.039 388.87 128.282 389.057V390.163C127.983 389.967 127.647 389.822 127.274 389.729C126.91 389.626 126.532 389.575 126.14 389.575C125.29 389.575 124.665 389.794 124.264 390.233C123.872 390.672 123.676 391.344 123.676 392.249C123.676 393.154 123.867 393.826 124.25 394.265C124.632 394.704 125.239 394.923 126.07 394.923C126.508 394.923 126.91 394.872 127.274 394.769C127.647 394.657 127.983 394.517 128.282 394.349V395.455C128.02 395.614 127.703 395.749 127.33 395.861C126.966 395.973 126.546 396.029 126.07 396.029ZM132.86 389.673V395.889H131.628V389.673H129.346V388.623H135.184V389.673H132.86ZM140.657 394.503C140.573 394.671 140.465 394.848 140.335 395.035C140.204 395.212 140.041 395.376 139.845 395.525C139.649 395.674 139.415 395.796 139.145 395.889C138.883 395.982 138.575 396.029 138.221 396.029C137.567 396.029 137.04 395.847 136.639 395.483C136.237 395.11 136.037 394.578 136.037 393.887C136.037 393.094 136.312 392.51 136.863 392.137C137.423 391.764 138.216 391.577 139.243 391.577H140.601V390.975C140.601 390.471 140.47 390.112 140.209 389.897C139.947 389.682 139.499 389.575 138.865 389.575C138.417 389.575 137.992 389.65 137.591 389.799C137.189 389.939 136.83 390.102 136.513 390.289V389.183C136.774 389.024 137.124 388.87 137.563 388.721C138.011 388.562 138.501 388.483 139.033 388.483C139.947 388.483 140.643 388.674 141.119 389.057C141.595 389.43 141.833 390.014 141.833 390.807V394.713C141.833 394.797 141.833 394.895 141.833 395.007C141.842 395.11 141.847 395.217 141.847 395.329C141.856 395.441 141.865 395.548 141.875 395.651C141.884 395.744 141.893 395.824 141.903 395.889H140.783C140.755 395.758 140.727 395.576 140.699 395.343C140.68 395.1 140.671 394.89 140.671 394.713L140.657 394.503ZM138.487 394.923C138.869 394.923 139.196 394.844 139.467 394.685C139.737 394.526 139.957 394.344 140.125 394.139C140.293 393.924 140.414 393.719 140.489 393.523C140.563 393.318 140.601 393.173 140.601 393.089V392.557H139.369C138.631 392.557 138.095 392.664 137.759 392.879C137.432 393.084 137.269 393.397 137.269 393.817C137.269 394.144 137.367 394.41 137.563 394.615C137.759 394.82 138.067 394.923 138.487 394.923ZM148.516 392.669H145.002V395.889H143.77V388.623H145.002V391.619H148.516V388.623H149.748V395.889H148.516V392.669ZM156.024 394.503C155.94 394.671 155.832 394.848 155.702 395.035C155.571 395.212 155.408 395.376 155.212 395.525C155.016 395.674 154.782 395.796 154.512 395.889C154.25 395.982 153.942 396.029 153.588 396.029C152.934 396.029 152.407 395.847 152.006 395.483C151.604 395.11 151.404 394.578 151.404 393.887C151.404 393.094 151.679 392.51 152.23 392.137C152.79 391.764 153.583 391.577 154.61 391.577H155.968V390.975C155.968 390.471 155.837 390.112 155.576 389.897C155.314 389.682 154.866 389.575 154.232 389.575C153.784 389.575 153.359 389.65 152.958 389.799C152.556 389.939 152.197 390.102 151.88 390.289V389.183C152.141 389.024 152.491 388.87 152.93 388.721C153.378 388.562 153.868 388.483 154.4 388.483C155.314 388.483 156.01 388.674 156.486 389.057C156.962 389.43 157.2 390.014 157.2 390.807V394.713C157.2 394.797 157.2 394.895 157.2 395.007C157.209 395.11 157.214 395.217 157.214 395.329C157.223 395.441 157.232 395.548 157.242 395.651C157.251 395.744 157.26 395.824 157.27 395.889H156.15C156.122 395.758 156.094 395.576 156.066 395.343C156.047 395.1 156.038 394.89 156.038 394.713L156.024 394.503ZM153.854 394.923C154.236 394.923 154.563 394.844 154.834 394.685C155.104 394.526 155.324 394.344 155.492 394.139C155.66 393.924 155.781 393.719 155.856 393.523C155.93 393.318 155.968 393.173 155.968 393.089V392.557H154.736C153.998 392.557 153.462 392.664 153.126 392.879C152.799 393.084 152.636 393.397 152.636 393.817C152.636 394.144 152.734 394.41 152.93 394.615C153.126 394.82 153.434 394.923 153.854 394.923ZM159.137 388.623H161.853C162.73 388.623 163.393 388.777 163.841 389.085C164.289 389.384 164.513 389.855 164.513 390.499C164.513 390.928 164.401 391.274 164.177 391.535C163.962 391.787 163.654 391.969 163.253 392.081C164.289 392.249 164.807 392.823 164.807 393.803C164.807 394.176 164.732 394.498 164.583 394.769C164.434 395.03 164.228 395.245 163.967 395.413C163.706 395.581 163.388 395.702 163.015 395.777C162.651 395.852 162.254 395.889 161.825 395.889H159.137V388.623ZM160.369 389.673V391.647H161.741C162.208 391.647 162.581 391.563 162.861 391.395C163.15 391.227 163.295 390.984 163.295 390.667C163.295 390.284 163.169 390.023 162.917 389.883C162.665 389.743 162.306 389.673 161.839 389.673H160.369ZM160.369 392.627V394.839H161.811C162.072 394.839 162.306 394.825 162.511 394.797C162.726 394.76 162.908 394.699 163.057 394.615C163.216 394.531 163.337 394.419 163.421 394.279C163.505 394.139 163.547 393.966 163.547 393.761C163.547 393.341 163.402 393.047 163.113 392.879C162.824 392.711 162.39 392.627 161.811 392.627H160.369ZM167.148 393.635C167.279 393.159 167.363 392.515 167.4 391.703C167.437 390.891 167.456 389.864 167.456 388.623H172.342V395.889H171.096V389.673H168.618C168.609 390.672 168.576 391.558 168.52 392.333C168.473 393.108 168.366 393.761 168.198 394.293C168.039 394.825 167.801 395.231 167.484 395.511C167.176 395.782 166.761 395.917 166.238 395.917C166.201 395.917 166.163 395.917 166.126 395.917C166.089 395.917 166.047 395.912 166 395.903V394.685C166.047 394.694 166.107 394.699 166.182 394.699C166.658 394.699 166.98 394.344 167.148 393.635ZM175.572 394.209L179.45 388.623H180.696V395.889H179.464V390.317L175.6 395.889H174.34V388.623H175.572V394.209ZM182.707 388.623H185.423C186.3 388.623 186.963 388.777 187.411 389.085C187.859 389.384 188.083 389.855 188.083 390.499C188.083 390.928 187.971 391.274 187.747 391.535C187.532 391.787 187.224 391.969 186.823 392.081C187.859 392.249 188.377 392.823 188.377 393.803C188.377 394.176 188.302 394.498 188.153 394.769C188.004 395.03 187.798 395.245 187.537 395.413C187.276 395.581 186.958 395.702 186.585 395.777C186.221 395.852 185.824 395.889 185.395 395.889H182.707V388.623ZM183.939 389.673V391.647H185.311C185.778 391.647 186.151 391.563 186.431 391.395C186.72 391.227 186.865 390.984 186.865 390.667C186.865 390.284 186.739 390.023 186.487 389.883C186.235 389.743 185.876 389.673 185.409 389.673H183.939ZM183.939 392.627V394.839H185.381C185.642 394.839 185.876 394.825 186.081 394.797C186.296 394.76 186.478 394.699 186.627 394.615C186.786 394.531 186.907 394.419 186.991 394.279C187.075 394.139 187.117 393.966 187.117 393.761C187.117 393.341 186.972 393.047 186.683 392.879C186.394 392.711 185.96 392.627 185.381 392.627H183.939ZM194.483 394.503C194.399 394.671 194.291 394.848 194.161 395.035C194.03 395.212 193.867 395.376 193.671 395.525C193.475 395.674 193.241 395.796 192.971 395.889C192.709 395.982 192.401 396.029 192.047 396.029C191.393 396.029 190.866 395.847 190.465 395.483C190.063 395.11 189.863 394.578 189.863 393.887C189.863 393.094 190.138 392.51 190.689 392.137C191.249 391.764 192.042 391.577 193.069 391.577H194.427V390.975C194.427 390.471 194.296 390.112 194.035 389.897C193.773 389.682 193.325 389.575 192.691 389.575C192.243 389.575 191.818 389.65 191.417 389.799C191.015 389.939 190.656 390.102 190.339 390.289V389.183C190.6 389.024 190.95 388.87 191.389 388.721C191.837 388.562 192.327 388.483 192.859 388.483C193.773 388.483 194.469 388.674 194.945 389.057C195.421 389.43 195.659 390.014 195.659 390.807V394.713C195.659 394.797 195.659 394.895 195.659 395.007C195.668 395.11 195.673 395.217 195.673 395.329C195.682 395.441 195.691 395.548 195.701 395.651C195.71 395.744 195.719 395.824 195.729 395.889H194.609C194.581 395.758 194.553 395.576 194.525 395.343C194.506 395.1 194.497 394.89 194.497 394.713L194.483 394.503ZM192.313 394.923C192.695 394.923 193.022 394.844 193.293 394.685C193.563 394.526 193.783 394.344 193.951 394.139C194.119 393.924 194.24 393.719 194.315 393.523C194.389 393.318 194.427 393.173 194.427 393.089V392.557H193.195C192.457 392.557 191.921 392.664 191.585 392.879C191.258 393.084 191.095 393.397 191.095 393.817C191.095 394.144 191.193 394.41 191.389 394.615C191.585 394.82 191.893 394.923 192.313 394.923ZM203.378 395.273C203.275 395.348 203.149 395.427 203 395.511C202.851 395.595 202.669 395.679 202.454 395.763C202.239 395.838 201.997 395.898 201.726 395.945C201.455 396.001 201.152 396.029 200.816 396.029C199.593 396.029 198.665 395.698 198.03 395.035C197.395 394.372 197.078 393.444 197.078 392.249C197.078 391.661 197.162 391.134 197.33 390.667C197.507 390.2 197.75 389.808 198.058 389.491C198.366 389.164 198.73 388.917 199.15 388.749C199.57 388.572 200.027 388.483 200.522 388.483C201.045 388.483 201.511 388.572 201.922 388.749C202.333 388.926 202.669 389.188 202.93 389.533C203.201 389.878 203.383 390.308 203.476 390.821C203.579 391.325 203.579 391.913 203.476 392.585H198.352C198.399 393.369 198.632 393.957 199.052 394.349C199.472 394.732 200.097 394.923 200.928 394.923C201.488 394.923 201.969 394.844 202.37 394.685C202.771 394.526 203.107 394.354 203.378 394.167V395.273ZM200.494 389.575C199.962 389.575 199.505 389.738 199.122 390.065C198.739 390.392 198.497 390.886 198.394 391.549H202.3C202.337 390.877 202.183 390.382 201.838 390.065C201.493 389.738 201.045 389.575 200.494 389.575ZM207.987 389.673V395.889H206.755V389.673H204.473V388.623H210.311V389.673H207.987ZM214.663 396.029C214.103 396.029 213.595 395.945 213.137 395.777C212.689 395.6 212.307 395.352 211.989 395.035C211.672 394.708 211.429 394.312 211.261 393.845C211.093 393.378 211.009 392.846 211.009 392.249C211.009 391.661 211.093 391.134 211.261 390.667C211.439 390.2 211.686 389.808 212.003 389.491C212.321 389.164 212.708 388.917 213.165 388.749C213.623 388.572 214.141 388.483 214.719 388.483C215.167 388.483 215.578 388.534 215.951 388.637C216.325 388.73 216.633 388.87 216.875 389.057V390.163C216.577 389.967 216.241 389.822 215.867 389.729C215.503 389.626 215.125 389.575 214.733 389.575C213.884 389.575 213.259 389.794 212.857 390.233C212.465 390.672 212.269 391.344 212.269 392.249C212.269 393.154 212.461 393.826 212.843 394.265C213.226 394.704 213.833 394.923 214.663 394.923C215.102 394.923 215.503 394.872 215.867 394.769C216.241 394.657 216.577 394.517 216.875 394.349V395.455C216.614 395.614 216.297 395.749 215.923 395.861C215.559 395.973 215.139 396.029 214.663 396.029ZM218.527 390.975C218.527 390.564 218.602 390.214 218.751 389.925C218.901 389.626 219.111 389.384 219.381 389.197C219.652 389.001 219.974 388.856 220.347 388.763C220.721 388.67 221.127 388.623 221.565 388.623H223.903V395.889H222.671V393.257H221.341L219.479 395.889H218.009L220.109 392.949C219.605 392.8 219.213 392.571 218.933 392.263C218.663 391.955 218.527 391.526 218.527 390.975ZM222.671 392.207V389.673H221.565C221.043 389.673 220.613 389.771 220.277 389.967C219.941 390.163 219.773 390.48 219.773 390.919C219.773 391.376 219.923 391.708 220.221 391.913C220.52 392.109 220.945 392.207 221.495 392.207H222.671Z" fill="#18123D"/>
<rect x="93" y="453" width="150" height="44" rx="5" fill="#FFF5CC"/>
<path d="M134.179 480.029C133.507 480.029 132.877 479.917 132.289 479.693C131.701 479.46 131.192 479.124 130.763 478.685C130.334 478.246 129.993 477.705 129.741 477.061C129.498 476.417 129.377 475.675 129.377 474.835C129.377 473.995 129.498 473.258 129.741 472.623C129.993 471.979 130.334 471.447 130.763 471.027C131.192 470.598 131.701 470.276 132.289 470.061C132.877 469.837 133.507 469.725 134.179 469.725C134.86 469.725 135.495 469.837 136.083 470.061C136.671 470.276 137.18 470.598 137.609 471.027C138.038 471.456 138.374 471.993 138.617 472.637C138.86 473.272 138.981 474.009 138.981 474.849C138.981 475.68 138.86 476.417 138.617 477.061C138.374 477.705 138.038 478.246 137.609 478.685C137.18 479.124 136.671 479.46 136.083 479.693C135.495 479.917 134.86 480.029 134.179 480.029ZM134.179 478.839C134.664 478.839 135.112 478.769 135.523 478.629C135.934 478.48 136.288 478.251 136.587 477.943C136.895 477.626 137.133 477.215 137.301 476.711C137.478 476.207 137.567 475.596 137.567 474.877C137.567 474.158 137.478 473.547 137.301 473.043C137.133 472.539 136.895 472.133 136.587 471.825C136.288 471.508 135.934 471.279 135.523 471.139C135.112 470.99 134.664 470.915 134.179 470.915C133.694 470.915 133.246 470.99 132.835 471.139C132.424 471.279 132.065 471.508 131.757 471.825C131.458 472.133 131.22 472.539 131.043 473.043C130.875 473.547 130.791 474.158 130.791 474.877C130.791 475.596 130.875 476.207 131.043 476.711C131.22 477.215 131.458 477.626 131.757 477.943C132.065 478.251 132.424 478.48 132.835 478.629C133.246 478.769 133.694 478.839 134.179 478.839ZM143.775 480.029C143.215 480.029 142.706 479.945 142.249 479.777C141.801 479.6 141.418 479.352 141.101 479.035C140.783 478.708 140.541 478.312 140.373 477.845C140.205 477.378 140.121 476.846 140.121 476.249C140.121 475.661 140.205 475.134 140.373 474.667C140.55 474.2 140.797 473.808 141.115 473.491C141.432 473.164 141.819 472.917 142.277 472.749C142.734 472.572 143.252 472.483 143.831 472.483C144.279 472.483 144.689 472.534 145.063 472.637C145.436 472.73 145.744 472.87 145.987 473.057V474.163C145.688 473.967 145.352 473.822 144.979 473.729C144.615 473.626 144.237 473.575 143.845 473.575C142.995 473.575 142.37 473.794 141.969 474.233C141.577 474.672 141.381 475.344 141.381 476.249C141.381 477.154 141.572 477.826 141.955 478.265C142.337 478.704 142.944 478.923 143.775 478.923C144.213 478.923 144.615 478.872 144.979 478.769C145.352 478.657 145.688 478.517 145.987 478.349V479.455C145.725 479.614 145.408 479.749 145.035 479.861C144.671 479.973 144.251 480.029 143.775 480.029ZM150.565 473.673V479.889H149.333V473.673H147.051V472.623H152.889V473.673H150.565ZM158.362 478.503C158.278 478.671 158.17 478.848 158.04 479.035C157.909 479.212 157.746 479.376 157.55 479.525C157.354 479.674 157.12 479.796 156.85 479.889C156.588 479.982 156.28 480.029 155.926 480.029C155.272 480.029 154.745 479.847 154.344 479.483C153.942 479.11 153.742 478.578 153.742 477.887C153.742 477.094 154.017 476.51 154.568 476.137C155.128 475.764 155.921 475.577 156.948 475.577H158.306V474.975C158.306 474.471 158.175 474.112 157.914 473.897C157.652 473.682 157.204 473.575 156.57 473.575C156.122 473.575 155.697 473.65 155.296 473.799C154.894 473.939 154.535 474.102 154.218 474.289V473.183C154.479 473.024 154.829 472.87 155.268 472.721C155.716 472.562 156.206 472.483 156.738 472.483C157.652 472.483 158.348 472.674 158.824 473.057C159.3 473.43 159.538 474.014 159.538 474.807V478.713C159.538 478.797 159.538 478.895 159.538 479.007C159.547 479.11 159.552 479.217 159.552 479.329C159.561 479.441 159.57 479.548 159.58 479.651C159.589 479.744 159.598 479.824 159.608 479.889H158.488C158.46 479.758 158.432 479.576 158.404 479.343C158.385 479.1 158.376 478.89 158.376 478.713L158.362 478.503ZM156.192 478.923C156.574 478.923 156.901 478.844 157.172 478.685C157.442 478.526 157.662 478.344 157.83 478.139C157.998 477.924 158.119 477.719 158.194 477.523C158.268 477.318 158.306 477.173 158.306 477.089V476.557H157.074C156.336 476.557 155.8 476.664 155.464 476.879C155.137 477.084 154.974 477.397 154.974 477.817C154.974 478.144 155.072 478.41 155.268 478.615C155.464 478.82 155.772 478.923 156.192 478.923ZM166.221 476.669H162.707V479.889H161.475V472.623H162.707V475.619H166.221V472.623H167.453V479.889H166.221V476.669ZM172.455 480.029C171.96 480.029 171.498 479.945 171.069 479.777C170.639 479.609 170.266 479.366 169.949 479.049C169.641 478.722 169.398 478.326 169.221 477.859C169.043 477.392 168.955 476.856 168.955 476.249C168.955 475.652 169.043 475.12 169.221 474.653C169.398 474.177 169.641 473.78 169.949 473.463C170.266 473.146 170.639 472.903 171.069 472.735C171.498 472.567 171.96 472.483 172.455 472.483C172.959 472.483 173.425 472.567 173.855 472.735C174.284 472.903 174.653 473.146 174.961 473.463C175.278 473.78 175.525 474.177 175.703 474.653C175.889 475.12 175.983 475.652 175.983 476.249C175.983 476.856 175.889 477.392 175.703 477.859C175.525 478.326 175.278 478.722 174.961 479.049C174.653 479.366 174.284 479.609 173.855 479.777C173.425 479.945 172.959 480.029 172.455 480.029ZM172.455 478.923C172.781 478.923 173.08 478.872 173.351 478.769C173.631 478.657 173.873 478.494 174.079 478.279C174.284 478.055 174.443 477.775 174.555 477.439C174.667 477.103 174.723 476.706 174.723 476.249C174.723 475.792 174.667 475.395 174.555 475.059C174.443 474.723 174.284 474.448 174.079 474.233C173.873 474.009 173.631 473.846 173.351 473.743C173.08 473.631 172.781 473.575 172.455 473.575C172.128 473.575 171.829 473.631 171.559 473.743C171.288 473.846 171.05 474.009 170.845 474.233C170.649 474.448 170.495 474.723 170.383 475.059C170.271 475.395 170.215 475.792 170.215 476.249C170.215 476.706 170.271 477.103 170.383 477.439C170.495 477.775 170.649 478.055 170.845 478.279C171.05 478.494 171.288 478.657 171.559 478.769C171.829 478.872 172.128 478.923 172.455 478.923ZM177.485 472.623H180.201C181.078 472.623 181.741 472.777 182.189 473.085C182.637 473.384 182.861 473.855 182.861 474.499C182.861 474.928 182.749 475.274 182.525 475.535C182.31 475.787 182.002 475.969 181.601 476.081C182.637 476.249 183.155 476.823 183.155 477.803C183.155 478.176 183.08 478.498 182.931 478.769C182.781 479.03 182.576 479.245 182.315 479.413C182.053 479.581 181.736 479.702 181.363 479.777C180.999 479.852 180.602 479.889 180.173 479.889H177.485V472.623ZM178.717 473.673V475.647H180.089C180.555 475.647 180.929 475.563 181.209 475.395C181.498 475.227 181.643 474.984 181.643 474.667C181.643 474.284 181.517 474.023 181.265 473.883C181.013 473.743 180.653 473.673 180.187 473.673H178.717ZM178.717 476.627V478.839H180.159C180.42 478.839 180.653 478.825 180.859 478.797C181.073 478.76 181.255 478.699 181.405 478.615C181.563 478.531 181.685 478.419 181.769 478.279C181.853 478.139 181.895 477.966 181.895 477.761C181.895 477.341 181.75 477.047 181.461 476.879C181.171 476.711 180.737 476.627 180.159 476.627H178.717ZM185.496 477.635C185.626 477.159 185.71 476.515 185.748 475.703C185.785 474.891 185.804 473.864 185.804 472.623H190.69V479.889H189.444V473.673H186.966C186.956 474.672 186.924 475.558 186.868 476.333C186.821 477.108 186.714 477.761 186.546 478.293C186.387 478.825 186.149 479.231 185.832 479.511C185.524 479.782 185.108 479.917 184.586 479.917C184.548 479.917 184.511 479.917 184.474 479.917C184.436 479.917 184.394 479.912 184.348 479.903V478.685C184.394 478.694 184.455 478.699 184.53 478.699C185.006 478.699 185.328 478.344 185.496 477.635ZM198.47 479.273C198.367 479.348 198.241 479.427 198.092 479.511C197.942 479.595 197.76 479.679 197.546 479.763C197.331 479.838 197.088 479.898 196.818 479.945C196.547 480.001 196.244 480.029 195.908 480.029C194.685 480.029 193.756 479.698 193.122 479.035C192.487 478.372 192.17 477.444 192.17 476.249C192.17 475.661 192.254 475.134 192.422 474.667C192.599 474.2 192.842 473.808 193.15 473.491C193.458 473.164 193.822 472.917 194.242 472.749C194.662 472.572 195.119 472.483 195.614 472.483C196.136 472.483 196.603 472.572 197.014 472.749C197.424 472.926 197.76 473.188 198.022 473.533C198.292 473.878 198.474 474.308 198.568 474.821C198.67 475.325 198.67 475.913 198.568 476.585H193.444C193.49 477.369 193.724 477.957 194.144 478.349C194.564 478.732 195.189 478.923 196.02 478.923C196.58 478.923 197.06 478.844 197.462 478.685C197.863 478.526 198.199 478.354 198.47 478.167V479.273ZM195.586 473.575C195.054 473.575 194.596 473.738 194.214 474.065C193.831 474.392 193.588 474.886 193.486 475.549H197.392C197.429 474.877 197.275 474.382 196.93 474.065C196.584 473.738 196.136 473.575 195.586 473.575ZM204.967 476.669H201.453V479.889H200.221V472.623H201.453V475.619H204.967V472.623H206.199V479.889H204.967V476.669Z" fill="#18123D"/>
<rect x="275" y="369" width="150" height="44" rx="5" fill="#DDF2E1"/>
<path d="M319.55 391.297V390.177H320.964C321.664 390.177 322.196 390.028 322.56 389.729C322.924 389.421 323.106 389.001 323.106 388.469C323.106 387.9 322.915 387.498 322.532 387.265C322.149 387.022 321.645 386.901 321.02 386.901C320.376 386.901 319.797 386.971 319.284 387.111C318.771 387.251 318.318 387.424 317.926 387.629V386.383C318.234 386.224 318.635 386.075 319.13 385.935C319.634 385.795 320.269 385.725 321.034 385.725C322.079 385.725 322.91 385.944 323.526 386.383C324.142 386.812 324.45 387.48 324.45 388.385C324.45 388.973 324.273 389.458 323.918 389.841C323.573 390.224 323.064 390.494 322.392 390.653C323.185 390.756 323.783 390.998 324.184 391.381C324.595 391.754 324.8 392.291 324.8 392.991C324.8 393.523 324.697 393.985 324.492 394.377C324.287 394.76 324.007 395.072 323.652 395.315C323.307 395.558 322.896 395.74 322.42 395.861C321.944 395.973 321.44 396.029 320.908 396.029C320.152 396.029 319.503 395.94 318.962 395.763C318.421 395.576 318.024 395.376 317.772 395.161V393.901C318.64 394.526 319.671 394.839 320.866 394.839C321.211 394.839 321.538 394.811 321.846 394.755C322.154 394.69 322.425 394.587 322.658 394.447C322.891 394.307 323.073 394.12 323.204 393.887C323.344 393.654 323.414 393.364 323.414 393.019C323.414 392.384 323.209 391.941 322.798 391.689C322.397 391.428 321.795 391.297 320.992 391.297H319.55ZM330.785 394.503C330.701 394.671 330.593 394.848 330.463 395.035C330.332 395.212 330.169 395.376 329.973 395.525C329.777 395.674 329.543 395.796 329.273 395.889C329.011 395.982 328.703 396.029 328.349 396.029C327.695 396.029 327.168 395.847 326.767 395.483C326.365 395.11 326.165 394.578 326.165 393.887C326.165 393.094 326.44 392.51 326.991 392.137C327.551 391.764 328.344 391.577 329.371 391.577H330.729V390.975C330.729 390.471 330.598 390.112 330.337 389.897C330.075 389.682 329.627 389.575 328.993 389.575C328.545 389.575 328.12 389.65 327.719 389.799C327.317 389.939 326.958 390.102 326.641 390.289V389.183C326.902 389.024 327.252 388.87 327.691 388.721C328.139 388.562 328.629 388.483 329.161 388.483C330.075 388.483 330.771 388.674 331.247 389.057C331.723 389.43 331.961 390.014 331.961 390.807V394.713C331.961 394.797 331.961 394.895 331.961 395.007C331.97 395.11 331.975 395.217 331.975 395.329C331.984 395.441 331.993 395.548 332.003 395.651C332.012 395.744 332.021 395.824 332.031 395.889H330.911C330.883 395.758 330.855 395.576 330.827 395.343C330.808 395.1 330.799 394.89 330.799 394.713L330.785 394.503ZM328.615 394.923C328.997 394.923 329.324 394.844 329.595 394.685C329.865 394.526 330.085 394.344 330.253 394.139C330.421 393.924 330.542 393.719 330.617 393.523C330.691 393.318 330.729 393.173 330.729 393.089V392.557H329.497C328.759 392.557 328.223 392.664 327.887 392.879C327.56 393.084 327.397 393.397 327.397 393.817C327.397 394.144 327.495 394.41 327.691 394.615C327.887 394.82 328.195 394.923 328.615 394.923ZM333.898 388.623H336.614C337.491 388.623 338.154 388.777 338.602 389.085C339.05 389.384 339.274 389.855 339.274 390.499C339.274 390.928 339.162 391.274 338.938 391.535C338.723 391.787 338.415 391.969 338.014 392.081C339.05 392.249 339.568 392.823 339.568 393.803C339.568 394.176 339.493 394.498 339.344 394.769C339.194 395.03 338.989 395.245 338.728 395.413C338.466 395.581 338.149 395.702 337.776 395.777C337.412 395.852 337.015 395.889 336.586 395.889H333.898V388.623ZM335.13 389.673V391.647H336.502C336.968 391.647 337.342 391.563 337.622 391.395C337.911 391.227 338.056 390.984 338.056 390.667C338.056 390.284 337.93 390.023 337.678 389.883C337.426 389.743 337.066 389.673 336.6 389.673H335.13ZM335.13 392.627V394.839H336.572C336.833 394.839 337.066 394.825 337.272 394.797C337.486 394.76 337.668 394.699 337.818 394.615C337.976 394.531 338.098 394.419 338.182 394.279C338.266 394.139 338.308 393.966 338.308 393.761C338.308 393.341 338.163 393.047 337.874 392.879C337.584 392.711 337.15 392.627 336.572 392.627H335.13ZM347.199 395.273C347.097 395.348 346.971 395.427 346.821 395.511C346.672 395.595 346.49 395.679 346.275 395.763C346.061 395.838 345.818 395.898 345.547 395.945C345.277 396.001 344.973 396.029 344.637 396.029C343.415 396.029 342.486 395.698 341.851 395.035C341.217 394.372 340.899 393.444 340.899 392.249C340.899 391.661 340.983 391.134 341.151 390.667C341.329 390.2 341.571 389.808 341.879 389.491C342.187 389.164 342.551 388.917 342.971 388.749C343.391 388.572 343.849 388.483 344.343 388.483C344.866 388.483 345.333 388.572 345.743 388.749C346.154 388.926 346.49 389.188 346.751 389.533C347.022 389.878 347.204 390.308 347.297 390.821C347.4 391.325 347.4 391.913 347.297 392.585H342.173C342.22 393.369 342.453 393.957 342.873 394.349C343.293 394.732 343.919 394.923 344.749 394.923C345.309 394.923 345.79 394.844 346.191 394.685C346.593 394.526 346.929 394.354 347.199 394.167V395.273ZM344.315 389.575C343.783 389.575 343.326 389.738 342.943 390.065C342.561 390.392 342.318 390.886 342.215 391.549H346.121C346.159 390.877 346.005 390.382 345.659 390.065C345.314 389.738 344.866 389.575 344.315 389.575ZM352.604 396.029C352.044 396.029 351.559 395.898 351.148 395.637C350.747 395.376 350.425 395.016 350.182 394.559V398.367H348.95V388.623H350.028L350.154 390.037C350.397 389.561 350.724 389.183 351.134 388.903C351.545 388.623 352.054 388.483 352.66 388.483C353.08 388.483 353.482 388.562 353.864 388.721C354.256 388.87 354.597 389.104 354.886 389.421C355.185 389.729 355.418 390.121 355.586 390.597C355.764 391.064 355.852 391.614 355.852 392.249C355.852 392.893 355.764 393.453 355.586 393.929C355.409 394.396 355.171 394.788 354.872 395.105C354.574 395.413 354.228 395.646 353.836 395.805C353.444 395.954 353.034 396.029 352.604 396.029ZM352.422 394.923C353.066 394.923 353.584 394.704 353.976 394.265C354.378 393.817 354.578 393.145 354.578 392.249C354.578 391.372 354.378 390.709 353.976 390.261C353.584 389.804 353.066 389.575 352.422 389.575C352.105 389.575 351.806 389.631 351.526 389.743C351.256 389.855 351.018 390.023 350.812 390.247C350.616 390.462 350.458 390.737 350.336 391.073C350.224 391.409 350.168 391.801 350.168 392.249C350.168 392.697 350.224 393.089 350.336 393.425C350.458 393.761 350.616 394.041 350.812 394.265C351.018 394.489 351.256 394.657 351.526 394.769C351.806 394.872 352.105 394.923 352.422 394.923ZM366.417 395.889H357.345V388.623H358.577V394.839H361.265V388.623H362.497V394.839H365.185V388.623H366.417V395.889ZM374.215 395.273C374.112 395.348 373.986 395.427 373.837 395.511C373.687 395.595 373.505 395.679 373.291 395.763C373.076 395.838 372.833 395.898 372.563 395.945C372.292 396.001 371.989 396.029 371.653 396.029C370.43 396.029 369.501 395.698 368.867 395.035C368.232 394.372 367.915 393.444 367.915 392.249C367.915 391.661 367.999 391.134 368.167 390.667C368.344 390.2 368.587 389.808 368.895 389.491C369.203 389.164 369.567 388.917 369.987 388.749C370.407 388.572 370.864 388.483 371.359 388.483C371.881 388.483 372.348 388.572 372.759 388.749C373.169 388.926 373.505 389.188 373.767 389.533C374.037 389.878 374.219 390.308 374.313 390.821C374.415 391.325 374.415 391.913 374.313 392.585H369.189C369.235 393.369 369.469 393.957 369.889 394.349C370.309 394.732 370.934 394.923 371.765 394.923C372.325 394.923 372.805 394.844 373.207 394.685C373.608 394.526 373.944 394.354 374.215 394.167V395.273ZM371.331 389.575C370.799 389.575 370.341 389.738 369.959 390.065C369.576 390.392 369.333 390.886 369.231 391.549H373.137C373.174 390.877 373.02 390.382 372.675 390.065C372.329 389.738 371.881 389.575 371.331 389.575ZM380.712 392.669H377.198V395.889H375.966V388.623H377.198V391.619H380.712V388.623H381.944V395.889H380.712V392.669Z" fill="#18123D"/>
<path d="M275 139L265 133.227L265 144.774L275 139ZM77 139L77 140L77 139ZM73 159C73 151.689 73 146.986 73 143.993L71 143.993C71 146.986 71 151.689 71 159L73 159ZM77 140L266 140L266 138L77 138L77 140ZM73 143.993C73 141.786 74.789 140 77 140L77 138C73.6881 138 71 140.677 71 143.993L73 143.993Z" fill="#4E496B"/>
<path d="M93 475C85.1199 475 80.126 475 76.9966 475C74.2352 475 72 472.761 72 470L72 159" stroke="#4E496B" stroke-width="2"/>
<path d="M425 139L435 133.227L435 144.774L425 139ZM623 139L623 140L623 139ZM627 159C627 151.689 627 146.986 627 143.993L629 143.993C629 146.986 629 151.689 629 159L627 159ZM623 140L434 140L434 138L623 138L623 140ZM627 143.993C627 141.786 625.211 140 623 140L623 138C626.312 138 629 140.677 629 143.993L627 143.993Z" fill="#4E496B"/>
<path d="M607 307C614.88 307 619.874 307 623.003 307C625.765 307 628 304.761 628 302L628 159" stroke="#4E496B" stroke-width="2"/>
<path d="M425 391C562.987 391 609.423 391 623.016 391C625.777 391 628 388.761 628 386L628 159" stroke="#4E496B" stroke-width="2"/>
<path d="M168 285L173.774 275L162.226 275L168 285ZM169 276C169 273.477 169 271.514 169 269.993L167 269.993C167 271.514 167 273.477 167 276L169 276ZM173 266L324 266L324 264L173 264L173 266ZM169 269.993C169 267.786 170.789 266 173 266L173 264C169.688 264 167 266.677 167 269.993L169 269.993Z" fill="#4E496B"/>
<path d="M350 245C350 252.311 350 257.014 350 260.007C350 262.768 347.761 265 345 265L211 265" stroke="#4E496B" stroke-width="2"/>
<path d="M532 285L526.226 275L537.774 275L532 285ZM531 276C531 273.477 531 271.514 531 269.993L533 269.993C533 271.514 533 273.477 533 276L531 276ZM527 266L376 266L376 264L527 264L527 266ZM531 269.993C531 267.786 529.211 266 527 266L527 264C530.312 264 533 266.677 533 269.993L531 269.993Z" fill="#4E496B"/>
<path d="M350 245C350 252.311 350 257.014 350 260.007C350 262.768 352.239 265 355 265L489 265" stroke="#4E496B" stroke-width="2"/>
<path d="M350 201L344.226 191L355.774 191L350 201ZM349 192L349 161L351 161L351 192L349 192Z" fill="#4E496B"/>
<path d="M350 117L355.774 107L344.226 107L350 117ZM351 108L351 77L349 77L349 108L351 108Z" fill="#4E496B"/>
<path d="M457 307L447 301.226L447 312.774L457 307ZM448 306L425 306L425 308L448 308L448 306Z" fill="#4E496B"/>
</svg>
