<svg width="500" height="650" viewBox="0 0 500 650" fill="none" xmlns="http://www.w3.org/2000/svg">
<rect x="82" y="346" width="148" height="42" rx="4" fill="white" stroke="#67B0F8" stroke-width="2"/>
<path d="M110.564 370.699H111.852V374.269H110.634L110.494 371.889H103.284L103.13 374.269H101.94V370.699H102.626C102.943 370.41 103.195 370.022 103.382 369.537C103.578 369.042 103.727 368.436 103.83 367.717C103.932 366.998 104.007 366.154 104.054 365.183C104.1 364.212 104.138 363.102 104.166 361.851H110.564V370.699ZM109.234 370.699V363.055H105.398C105.37 364.119 105.328 365.062 105.272 365.883C105.225 366.695 105.15 367.409 105.048 368.025C104.954 368.641 104.833 369.168 104.684 369.607C104.544 370.036 104.366 370.4 104.152 370.699H109.234ZM119.129 371.273C119.026 371.348 118.9 371.427 118.751 371.511C118.602 371.595 118.42 371.679 118.205 371.763C117.99 371.838 117.748 371.898 117.477 371.945C117.206 372.001 116.903 372.029 116.567 372.029C115.344 372.029 114.416 371.698 113.781 371.035C113.146 370.372 112.829 369.444 112.829 368.249C112.829 367.661 112.913 367.134 113.081 366.667C113.258 366.2 113.501 365.808 113.809 365.491C114.117 365.164 114.481 364.917 114.901 364.749C115.321 364.572 115.778 364.483 116.273 364.483C116.796 364.483 117.262 364.572 117.673 364.749C118.084 364.926 118.42 365.188 118.681 365.533C118.952 365.878 119.134 366.308 119.227 366.821C119.33 367.325 119.33 367.913 119.227 368.585H114.103C114.15 369.369 114.383 369.957 114.803 370.349C115.223 370.732 115.848 370.923 116.679 370.923C117.239 370.923 117.72 370.844 118.121 370.685C118.522 370.526 118.858 370.354 119.129 370.167V371.273ZM116.245 365.575C115.713 365.575 115.256 365.738 114.873 366.065C114.49 366.392 114.248 366.886 114.145 367.549H118.051C118.088 366.877 117.934 366.382 117.589 366.065C117.244 365.738 116.796 365.575 116.245 365.575ZM125.136 370.503C125.052 370.671 124.945 370.848 124.814 371.035C124.683 371.212 124.52 371.376 124.324 371.525C124.128 371.674 123.895 371.796 123.624 371.889C123.363 371.982 123.055 372.029 122.7 372.029C122.047 372.029 121.519 371.847 121.118 371.483C120.717 371.11 120.516 370.578 120.516 369.887C120.516 369.094 120.791 368.51 121.342 368.137C121.902 367.764 122.695 367.577 123.722 367.577H125.08V366.975C125.08 366.471 124.949 366.112 124.688 365.897C124.427 365.682 123.979 365.575 123.344 365.575C122.896 365.575 122.471 365.65 122.07 365.799C121.669 365.939 121.309 366.102 120.992 366.289V365.183C121.253 365.024 121.603 364.87 122.042 364.721C122.49 364.562 122.98 364.483 123.512 364.483C124.427 364.483 125.122 364.674 125.598 365.057C126.074 365.43 126.312 366.014 126.312 366.807V370.713C126.312 370.797 126.312 370.895 126.312 371.007C126.321 371.11 126.326 371.217 126.326 371.329C126.335 371.441 126.345 371.548 126.354 371.651C126.363 371.744 126.373 371.824 126.382 371.889H125.262C125.234 371.758 125.206 371.576 125.178 371.343C125.159 371.1 125.15 370.89 125.15 370.713L125.136 370.503ZM122.966 370.923C123.349 370.923 123.675 370.844 123.946 370.685C124.217 370.526 124.436 370.344 124.604 370.139C124.772 369.924 124.893 369.719 124.968 369.523C125.043 369.318 125.08 369.173 125.08 369.089V368.557H123.848C123.111 368.557 122.574 368.664 122.238 368.879C121.911 369.084 121.748 369.397 121.748 369.817C121.748 370.144 121.846 370.41 122.042 370.615C122.238 370.82 122.546 370.923 122.966 370.923ZM130.125 368.795H129.481V371.889H128.249V364.623H129.481V367.745H130.181L132.729 364.623H134.129L131.147 368.207L134.185 371.889H132.687L130.125 368.795ZM138.408 365.673V371.889H137.176V365.673H134.894V364.623H140.732V365.673H138.408ZM143.386 370.209L147.264 364.623H148.51V371.889H147.278V366.317L143.414 371.889H142.154V364.623H143.386V370.209ZM150.521 364.623H153.237C154.114 364.623 154.777 364.777 155.225 365.085C155.673 365.384 155.897 365.855 155.897 366.499C155.897 366.928 155.785 367.274 155.561 367.535C155.346 367.787 155.038 367.969 154.637 368.081C155.673 368.249 156.191 368.823 156.191 369.803C156.191 370.176 156.116 370.498 155.967 370.769C155.817 371.03 155.612 371.245 155.351 371.413C155.089 371.581 154.772 371.702 154.399 371.777C154.035 371.852 153.638 371.889 153.209 371.889H150.521V364.623ZM151.753 365.673V367.647H153.125C153.591 367.647 153.965 367.563 154.245 367.395C154.534 367.227 154.679 366.984 154.679 366.667C154.679 366.284 154.553 366.023 154.301 365.883C154.049 365.743 153.689 365.673 153.223 365.673H151.753ZM151.753 368.627V370.839H153.195C153.456 370.839 153.689 370.825 153.895 370.797C154.109 370.76 154.291 370.699 154.441 370.615C154.599 370.531 154.721 370.419 154.805 370.279C154.889 370.139 154.931 369.966 154.931 369.761C154.931 369.341 154.786 369.047 154.497 368.879C154.207 368.711 153.773 368.627 153.195 368.627H151.753ZM159.272 370.209L163.15 364.623H164.396V371.889H163.164V366.317L159.3 371.889H158.04V364.623H159.272V370.209ZM170.061 372.029C169.501 372.029 169.016 371.898 168.605 371.637C168.204 371.376 167.882 371.016 167.639 370.559V374.367H166.407V364.623H167.485L167.611 366.037C167.854 365.561 168.181 365.183 168.591 364.903C169.002 364.623 169.511 364.483 170.117 364.483C170.537 364.483 170.939 364.562 171.321 364.721C171.713 364.87 172.054 365.104 172.343 365.421C172.642 365.729 172.875 366.121 173.043 366.597C173.221 367.064 173.309 367.614 173.309 368.249C173.309 368.893 173.221 369.453 173.043 369.929C172.866 370.396 172.628 370.788 172.329 371.105C172.031 371.413 171.685 371.646 171.293 371.805C170.901 371.954 170.491 372.029 170.061 372.029ZM169.879 370.923C170.523 370.923 171.041 370.704 171.433 370.265C171.835 369.817 172.035 369.145 172.035 368.249C172.035 367.372 171.835 366.709 171.433 366.261C171.041 365.804 170.523 365.575 169.879 365.575C169.562 365.575 169.263 365.631 168.983 365.743C168.713 365.855 168.475 366.023 168.269 366.247C168.073 366.462 167.915 366.737 167.793 367.073C167.681 367.409 167.625 367.801 167.625 368.249C167.625 368.697 167.681 369.089 167.793 369.425C167.915 369.761 168.073 370.041 168.269 370.265C168.475 370.489 168.713 370.657 168.983 370.769C169.263 370.872 169.562 370.923 169.879 370.923ZM177.784 372.029C177.289 372.029 176.827 371.945 176.398 371.777C175.969 371.609 175.595 371.366 175.278 371.049C174.97 370.722 174.727 370.326 174.55 369.859C174.373 369.392 174.284 368.856 174.284 368.249C174.284 367.652 174.373 367.12 174.55 366.653C174.727 366.177 174.97 365.78 175.278 365.463C175.595 365.146 175.969 364.903 176.398 364.735C176.827 364.567 177.289 364.483 177.784 364.483C178.288 364.483 178.755 364.567 179.184 364.735C179.613 364.903 179.982 365.146 180.29 365.463C180.607 365.78 180.855 366.177 181.032 366.653C181.219 367.12 181.312 367.652 181.312 368.249C181.312 368.856 181.219 369.392 181.032 369.859C180.855 370.326 180.607 370.722 180.29 371.049C179.982 371.366 179.613 371.609 179.184 371.777C178.755 371.945 178.288 372.029 177.784 372.029ZM177.784 370.923C178.111 370.923 178.409 370.872 178.68 370.769C178.96 370.657 179.203 370.494 179.408 370.279C179.613 370.055 179.772 369.775 179.884 369.439C179.996 369.103 180.052 368.706 180.052 368.249C180.052 367.792 179.996 367.395 179.884 367.059C179.772 366.723 179.613 366.448 179.408 366.233C179.203 366.009 178.96 365.846 178.68 365.743C178.409 365.631 178.111 365.575 177.784 365.575C177.457 365.575 177.159 365.631 176.888 365.743C176.617 365.846 176.379 366.009 176.174 366.233C175.978 366.448 175.824 366.723 175.712 367.059C175.6 367.395 175.544 367.792 175.544 368.249C175.544 368.706 175.6 369.103 175.712 369.439C175.824 369.775 175.978 370.055 176.174 370.279C176.379 370.494 176.617 370.657 176.888 370.769C177.159 370.872 177.457 370.923 177.784 370.923ZM182.814 364.623H185.53C186.407 364.623 187.07 364.777 187.518 365.085C187.966 365.384 188.19 365.855 188.19 366.499C188.19 366.928 188.078 367.274 187.854 367.535C187.639 367.787 187.331 367.969 186.93 368.081C187.966 368.249 188.484 368.823 188.484 369.803C188.484 370.176 188.409 370.498 188.26 370.769C188.11 371.03 187.905 371.245 187.644 371.413C187.382 371.581 187.065 371.702 186.692 371.777C186.328 371.852 185.931 371.889 185.502 371.889H182.814V364.623ZM184.046 365.673V367.647H185.418C185.884 367.647 186.258 367.563 186.538 367.395C186.827 367.227 186.972 366.984 186.972 366.667C186.972 366.284 186.846 366.023 186.594 365.883C186.342 365.743 185.982 365.673 185.516 365.673H184.046ZM184.046 368.627V370.839H185.488C185.749 370.839 185.982 370.825 186.188 370.797C186.402 370.76 186.584 370.699 186.734 370.615C186.892 370.531 187.014 370.419 187.098 370.279C187.182 370.139 187.224 369.966 187.224 369.761C187.224 369.341 187.079 369.047 186.79 368.879C186.5 368.711 186.066 368.627 185.488 368.627H184.046ZM194.589 370.503C194.505 370.671 194.398 370.848 194.267 371.035C194.137 371.212 193.973 371.376 193.777 371.525C193.581 371.674 193.348 371.796 193.077 371.889C192.816 371.982 192.508 372.029 192.153 372.029C191.5 372.029 190.973 371.847 190.571 371.483C190.17 371.11 189.969 370.578 189.969 369.887C189.969 369.094 190.245 368.51 190.795 368.137C191.355 367.764 192.149 367.577 193.175 367.577H194.533V366.975C194.533 366.471 194.403 366.112 194.141 365.897C193.88 365.682 193.432 365.575 192.797 365.575C192.349 365.575 191.925 365.65 191.523 365.799C191.122 365.939 190.763 366.102 190.445 366.289V365.183C190.707 365.024 191.057 364.87 191.495 364.721C191.943 364.562 192.433 364.483 192.965 364.483C193.88 364.483 194.575 364.674 195.051 365.057C195.527 365.43 195.765 366.014 195.765 366.807V370.713C195.765 370.797 195.765 370.895 195.765 371.007C195.775 371.11 195.779 371.217 195.779 371.329C195.789 371.441 195.798 371.548 195.807 371.651C195.817 371.744 195.826 371.824 195.835 371.889H194.715C194.687 371.758 194.659 371.576 194.631 371.343C194.613 371.1 194.603 370.89 194.603 370.713L194.589 370.503ZM192.419 370.923C192.802 370.923 193.129 370.844 193.399 370.685C193.67 370.526 193.889 370.344 194.057 370.139C194.225 369.924 194.347 369.719 194.421 369.523C194.496 369.318 194.533 369.173 194.533 369.089V368.557H193.301C192.564 368.557 192.027 368.664 191.691 368.879C191.365 369.084 191.201 369.397 191.201 369.817C191.201 370.144 191.299 370.41 191.495 370.615C191.691 370.82 191.999 370.923 192.419 370.923ZM200.56 365.673V371.889H199.328V365.673H197.046V364.623H202.884V365.673H200.56ZM209.71 369.467C209.71 369.887 209.635 370.251 209.486 370.559C209.337 370.867 209.127 371.119 208.856 371.315C208.585 371.511 208.263 371.656 207.89 371.749C207.517 371.842 207.111 371.889 206.672 371.889H204.264V364.623H205.496V367.157H206.756C207.68 367.157 208.403 367.339 208.926 367.703C209.449 368.067 209.71 368.655 209.71 369.467ZM205.496 368.207V370.839H206.672C207.204 370.839 207.633 370.741 207.96 370.545C208.296 370.34 208.464 370.004 208.464 369.537C208.464 369.061 208.315 368.72 208.016 368.515C207.717 368.31 207.297 368.207 206.756 368.207H205.496Z" fill="#18123D"/>
<rect x="263" y="261" width="150" height="44" rx="5" fill="#FFDADA"/>
<path d="M316.996 288.029C316.324 288.029 315.694 287.917 315.106 287.693C314.518 287.46 314.01 287.124 313.58 286.685C313.151 286.246 312.81 285.705 312.558 285.061C312.316 284.417 312.194 283.675 312.194 282.835C312.194 281.995 312.316 281.258 312.558 280.623C312.81 279.979 313.151 279.447 313.58 279.027C314.01 278.598 314.518 278.276 315.106 278.061C315.694 277.837 316.324 277.725 316.996 277.725C317.678 277.725 318.312 277.837 318.9 278.061C319.488 278.276 319.997 278.598 320.426 279.027C320.856 279.456 321.192 279.993 321.434 280.637C321.677 281.272 321.798 282.009 321.798 282.849C321.798 283.68 321.677 284.417 321.434 285.061C321.192 285.705 320.856 286.246 320.426 286.685C319.997 287.124 319.488 287.46 318.9 287.693C318.312 287.917 317.678 288.029 316.996 288.029ZM316.996 286.839C317.482 286.839 317.93 286.769 318.34 286.629C318.751 286.48 319.106 286.251 319.404 285.943C319.712 285.626 319.95 285.215 320.118 284.711C320.296 284.207 320.384 283.596 320.384 282.877C320.384 282.158 320.296 281.547 320.118 281.043C319.95 280.539 319.712 280.133 319.404 279.825C319.106 279.508 318.751 279.279 318.34 279.139C317.93 278.99 317.482 278.915 316.996 278.915C316.511 278.915 316.063 278.99 315.652 279.139C315.242 279.279 314.882 279.508 314.574 279.825C314.276 280.133 314.038 280.539 313.86 281.043C313.692 281.547 313.608 282.158 313.608 282.877C313.608 283.596 313.692 284.207 313.86 284.711C314.038 285.215 314.276 285.626 314.574 285.943C314.882 286.251 315.242 286.48 315.652 286.629C316.063 286.769 316.511 286.839 316.996 286.839ZM332.46 287.889H323.388V280.623H324.62V286.839H327.308V280.623H328.54V286.839H331.228V280.623H332.46V287.889ZM335.708 286.209L339.586 280.623H340.832V287.889H339.6V282.317L335.736 287.889H334.476V280.623H335.708V286.209ZM349.395 284.249C349.395 284.856 349.302 285.392 349.115 285.859C348.938 286.326 348.69 286.722 348.373 287.049C348.065 287.366 347.696 287.609 347.267 287.777C346.838 287.945 346.371 288.029 345.867 288.029C345.354 288.029 344.882 287.945 344.453 287.777C344.024 287.6 343.655 287.334 343.347 286.979C343.039 286.624 342.796 286.176 342.619 285.635C342.451 285.094 342.367 284.454 342.367 283.717C342.367 283.11 342.386 282.532 342.423 281.981C342.46 281.43 342.544 280.922 342.675 280.455C342.806 279.979 342.992 279.554 343.235 279.181C343.487 278.798 343.823 278.481 344.243 278.229C344.476 278.089 344.719 277.986 344.971 277.921C345.223 277.846 345.475 277.79 345.727 277.753C345.988 277.716 346.25 277.692 346.511 277.683C346.772 277.674 347.029 277.664 347.281 277.655C347.654 277.627 347.967 277.58 348.219 277.515C348.471 277.45 348.695 277.361 348.891 277.249V278.369C348.686 278.5 348.466 278.593 348.233 278.649C348.009 278.696 347.734 278.738 347.407 278.775C346.875 278.822 346.385 278.859 345.937 278.887C345.498 278.906 345.097 279.008 344.733 279.195C344.266 279.456 343.935 279.848 343.739 280.371C343.552 280.884 343.436 281.496 343.389 282.205C343.874 281.085 344.789 280.525 346.133 280.525C346.59 280.525 347.015 280.609 347.407 280.777C347.808 280.936 348.154 281.174 348.443 281.491C348.742 281.808 348.975 282.2 349.143 282.667C349.311 283.124 349.395 283.652 349.395 284.249ZM345.867 286.923C346.194 286.923 346.492 286.872 346.763 286.769C347.043 286.657 347.286 286.494 347.491 286.279C347.696 286.055 347.855 285.775 347.967 285.439C348.079 285.103 348.135 284.706 348.135 284.249C348.135 283.792 348.079 283.395 347.967 283.059C347.855 282.723 347.696 282.448 347.491 282.233C347.286 282.009 347.043 281.846 346.763 281.743C346.492 281.631 346.194 281.575 345.867 281.575C345.223 281.575 344.686 281.79 344.257 282.219C343.837 282.648 343.627 283.311 343.627 284.207C343.627 284.674 343.683 285.08 343.795 285.425C343.907 285.761 344.061 286.041 344.257 286.265C344.462 286.489 344.7 286.657 344.971 286.769C345.242 286.872 345.54 286.923 345.867 286.923ZM352.813 284.795H352.169V287.889H350.937V280.623H352.169V283.745H352.869L355.417 280.623H356.817L353.835 284.207L356.873 287.889H355.375L352.813 284.795ZM362.288 286.503C362.204 286.671 362.097 286.848 361.966 287.035C361.836 287.212 361.672 287.376 361.476 287.525C361.28 287.674 361.047 287.796 360.776 287.889C360.515 287.982 360.207 288.029 359.852 288.029C359.199 288.029 358.672 287.847 358.27 287.483C357.869 287.11 357.668 286.578 357.668 285.887C357.668 285.094 357.944 284.51 358.494 284.137C359.054 283.764 359.848 283.577 360.874 283.577H362.232V282.975C362.232 282.471 362.102 282.112 361.84 281.897C361.579 281.682 361.131 281.575 360.496 281.575C360.048 281.575 359.624 281.65 359.222 281.799C358.821 281.939 358.462 282.102 358.144 282.289V281.183C358.406 281.024 358.756 280.87 359.194 280.721C359.642 280.562 360.132 280.483 360.664 280.483C361.579 280.483 362.274 280.674 362.75 281.057C363.226 281.43 363.464 282.014 363.464 282.807V286.713C363.464 286.797 363.464 286.895 363.464 287.007C363.474 287.11 363.478 287.217 363.478 287.329C363.488 287.441 363.497 287.548 363.506 287.651C363.516 287.744 363.525 287.824 363.534 287.889H362.414C362.386 287.758 362.358 287.576 362.33 287.343C362.312 287.1 362.302 286.89 362.302 286.713L362.288 286.503ZM360.118 286.923C360.501 286.923 360.828 286.844 361.098 286.685C361.369 286.526 361.588 286.344 361.756 286.139C361.924 285.924 362.046 285.719 362.12 285.523C362.195 285.318 362.232 285.173 362.232 285.089V284.557H361C360.263 284.557 359.726 284.664 359.39 284.879C359.064 285.084 358.9 285.397 358.9 285.817C358.9 286.144 358.998 286.41 359.194 286.615C359.39 286.82 359.698 286.923 360.118 286.923Z" fill="#18123D"/>
<rect x="81" y="177" width="150" height="44" rx="5" fill="#D3E3FC"/>
<path d="M127.494 204.029C126.747 204.029 126.071 203.912 125.464 203.679C124.857 203.446 124.335 203.11 123.896 202.671C123.467 202.223 123.135 201.682 122.902 201.047C122.669 200.403 122.552 199.68 122.552 198.877C122.552 198.065 122.659 197.342 122.874 196.707C123.089 196.072 123.406 195.536 123.826 195.097C124.246 194.649 124.759 194.308 125.366 194.075C125.982 193.842 126.682 193.725 127.466 193.725C128.147 193.725 128.745 193.8 129.258 193.949C129.771 194.089 130.191 194.257 130.518 194.453V195.713C130.098 195.442 129.613 195.242 129.062 195.111C128.521 194.98 127.984 194.915 127.452 194.915C126.267 194.915 125.389 195.246 124.82 195.909C124.26 196.562 123.98 197.552 123.98 198.877C123.98 200.212 124.283 201.206 124.89 201.859C125.506 202.512 126.411 202.839 127.606 202.839C128.119 202.839 128.619 202.769 129.104 202.629C129.599 202.489 130.07 202.251 130.518 201.915V203.175C130.247 203.39 129.851 203.586 129.328 203.763C128.815 203.94 128.203 204.029 127.494 204.029ZM135.278 204.029C134.783 204.029 134.321 203.945 133.892 203.777C133.463 203.609 133.089 203.366 132.772 203.049C132.464 202.722 132.221 202.326 132.044 201.859C131.867 201.392 131.778 200.856 131.778 200.249C131.778 199.652 131.867 199.12 132.044 198.653C132.221 198.177 132.464 197.78 132.772 197.463C133.089 197.146 133.463 196.903 133.892 196.735C134.321 196.567 134.783 196.483 135.278 196.483C135.782 196.483 136.249 196.567 136.678 196.735C137.107 196.903 137.476 197.146 137.784 197.463C138.101 197.78 138.349 198.177 138.526 198.653C138.713 199.12 138.806 199.652 138.806 200.249C138.806 200.856 138.713 201.392 138.526 201.859C138.349 202.326 138.101 202.722 137.784 203.049C137.476 203.366 137.107 203.609 136.678 203.777C136.249 203.945 135.782 204.029 135.278 204.029ZM135.278 202.923C135.605 202.923 135.903 202.872 136.174 202.769C136.454 202.657 136.697 202.494 136.902 202.279C137.107 202.055 137.266 201.775 137.378 201.439C137.49 201.103 137.546 200.706 137.546 200.249C137.546 199.792 137.49 199.395 137.378 199.059C137.266 198.723 137.107 198.448 136.902 198.233C136.697 198.009 136.454 197.846 136.174 197.743C135.903 197.631 135.605 197.575 135.278 197.575C134.951 197.575 134.653 197.631 134.382 197.743C134.111 197.846 133.873 198.009 133.668 198.233C133.472 198.448 133.318 198.723 133.206 199.059C133.094 199.395 133.038 199.792 133.038 200.249C133.038 200.706 133.094 201.103 133.206 201.439C133.318 201.775 133.472 202.055 133.668 202.279C133.873 202.494 134.111 202.657 134.382 202.769C134.653 202.872 134.951 202.923 135.278 202.923ZM145.391 201.775C145.391 202.186 145.307 202.536 145.139 202.825C144.981 203.105 144.761 203.338 144.481 203.525C144.201 203.702 143.875 203.828 143.501 203.903C143.137 203.987 142.755 204.029 142.353 204.029C141.821 204.029 141.35 203.973 140.939 203.861C140.538 203.749 140.221 203.614 139.987 203.455V202.349C140.277 202.526 140.622 202.666 141.023 202.769C141.425 202.872 141.859 202.923 142.325 202.923C142.857 202.923 143.301 202.839 143.655 202.671C144.019 202.494 144.201 202.195 144.201 201.775C144.201 201.364 144.047 201.075 143.739 200.907C143.441 200.739 142.979 200.655 142.353 200.655H141.387V199.661H142.395C142.909 199.661 143.301 199.568 143.571 199.381C143.842 199.194 143.977 198.924 143.977 198.569C143.977 198.382 143.931 198.228 143.837 198.107C143.753 197.976 143.637 197.874 143.487 197.799C143.338 197.715 143.161 197.659 142.955 197.631C142.759 197.594 142.549 197.575 142.325 197.575C141.896 197.575 141.495 197.626 141.121 197.729C140.757 197.832 140.426 197.976 140.127 198.163V197.057C140.37 196.898 140.683 196.763 141.065 196.651C141.457 196.539 141.91 196.483 142.423 196.483C143.31 196.483 143.977 196.651 144.425 196.987C144.883 197.323 145.111 197.808 145.111 198.443C145.111 198.919 144.981 199.292 144.719 199.563C144.467 199.834 144.108 200.02 143.641 200.123C144.22 200.198 144.654 200.38 144.943 200.669C145.242 200.958 145.391 201.327 145.391 201.775ZM146.806 202.839C147.068 202.68 147.273 202.433 147.422 202.097C147.572 201.761 147.688 201.336 147.772 200.823C147.856 200.31 147.912 199.703 147.94 199.003C147.978 198.303 148.01 197.51 148.038 196.623H153.036V202.839H154.128V205.961H153.05L152.896 203.889H147.492L147.366 205.961H146.26V202.839H146.806ZM151.804 202.839V197.673H149.144C149.098 199.045 149.009 200.146 148.878 200.977C148.757 201.798 148.542 202.419 148.234 202.839H151.804ZM159.603 202.503C159.519 202.671 159.412 202.848 159.281 203.035C159.15 203.212 158.987 203.376 158.791 203.525C158.595 203.674 158.362 203.796 158.091 203.889C157.83 203.982 157.522 204.029 157.167 204.029C156.514 204.029 155.986 203.847 155.585 203.483C155.184 203.11 154.983 202.578 154.983 201.887C154.983 201.094 155.258 200.51 155.809 200.137C156.369 199.764 157.162 199.577 158.189 199.577H159.547V198.975C159.547 198.471 159.416 198.112 159.155 197.897C158.894 197.682 158.446 197.575 157.811 197.575C157.363 197.575 156.938 197.65 156.537 197.799C156.136 197.939 155.776 198.102 155.459 198.289V197.183C155.72 197.024 156.07 196.87 156.509 196.721C156.957 196.562 157.447 196.483 157.979 196.483C158.894 196.483 159.589 196.674 160.065 197.057C160.541 197.43 160.779 198.014 160.779 198.807V202.713C160.779 202.797 160.779 202.895 160.779 203.007C160.788 203.11 160.793 203.217 160.793 203.329C160.802 203.441 160.812 203.548 160.821 203.651C160.83 203.744 160.84 203.824 160.849 203.889H159.729C159.701 203.758 159.673 203.576 159.645 203.343C159.626 203.1 159.617 202.89 159.617 202.713L159.603 202.503ZM157.433 202.923C157.816 202.923 158.142 202.844 158.413 202.685C158.684 202.526 158.903 202.344 159.071 202.139C159.239 201.924 159.36 201.719 159.435 201.523C159.51 201.318 159.547 201.173 159.547 201.089V200.557H158.315C157.578 200.557 157.041 200.664 156.705 200.879C156.378 201.084 156.215 201.397 156.215 201.817C156.215 202.144 156.313 202.41 156.509 202.615C156.705 202.82 157.013 202.923 157.433 202.923ZM168.498 203.273C168.395 203.348 168.269 203.427 168.12 203.511C167.971 203.595 167.789 203.679 167.574 203.763C167.359 203.838 167.117 203.898 166.846 203.945C166.575 204.001 166.272 204.029 165.936 204.029C164.713 204.029 163.785 203.698 163.15 203.035C162.515 202.372 162.198 201.444 162.198 200.249C162.198 199.661 162.282 199.134 162.45 198.667C162.627 198.2 162.87 197.808 163.178 197.491C163.486 197.164 163.85 196.917 164.27 196.749C164.69 196.572 165.147 196.483 165.642 196.483C166.165 196.483 166.631 196.572 167.042 196.749C167.453 196.926 167.789 197.188 168.05 197.533C168.321 197.878 168.503 198.308 168.596 198.821C168.699 199.325 168.699 199.913 168.596 200.585H163.472C163.519 201.369 163.752 201.957 164.172 202.349C164.592 202.732 165.217 202.923 166.048 202.923C166.608 202.923 167.089 202.844 167.49 202.685C167.891 202.526 168.227 202.354 168.498 202.167V203.273ZM165.614 197.575C165.082 197.575 164.625 197.738 164.242 198.065C163.859 198.392 163.617 198.886 163.514 199.549H167.42C167.457 198.877 167.303 198.382 166.958 198.065C166.613 197.738 166.165 197.575 165.614 197.575ZM173.107 197.673V203.889H171.875V197.673H169.593V196.623H175.431V197.673H173.107ZM179.784 204.029C179.224 204.029 178.715 203.945 178.258 203.777C177.81 203.6 177.427 203.352 177.11 203.035C176.792 202.708 176.55 202.312 176.382 201.845C176.214 201.378 176.13 200.846 176.13 200.249C176.13 199.661 176.214 199.134 176.382 198.667C176.559 198.2 176.806 197.808 177.124 197.491C177.441 197.164 177.828 196.917 178.286 196.749C178.743 196.572 179.261 196.483 179.84 196.483C180.288 196.483 180.698 196.534 181.072 196.637C181.445 196.73 181.753 196.87 181.996 197.057V198.163C181.697 197.967 181.361 197.822 180.988 197.729C180.624 197.626 180.246 197.575 179.854 197.575C179.004 197.575 178.379 197.794 177.978 198.233C177.586 198.672 177.39 199.344 177.39 200.249C177.39 201.154 177.581 201.826 177.964 202.265C178.346 202.704 178.953 202.923 179.784 202.923C180.222 202.923 180.624 202.872 180.988 202.769C181.361 202.657 181.697 202.517 181.996 202.349V203.455C181.734 203.614 181.417 203.749 181.044 203.861C180.68 203.973 180.26 204.029 179.784 204.029ZM183.648 198.975C183.648 198.564 183.722 198.214 183.872 197.925C184.021 197.626 184.231 197.384 184.502 197.197C184.772 197.001 185.094 196.856 185.468 196.763C185.841 196.67 186.247 196.623 186.686 196.623H189.024V203.889H187.792V201.257H186.462L184.6 203.889H183.13L185.23 200.949C184.726 200.8 184.334 200.571 184.054 200.263C183.783 199.955 183.648 199.526 183.648 198.975ZM187.792 200.207V197.673H186.686C186.163 197.673 185.734 197.771 185.398 197.967C185.062 198.163 184.894 198.48 184.894 198.919C184.894 199.376 185.043 199.708 185.342 199.913C185.64 200.109 186.065 200.207 186.616 200.207H187.792Z" fill="#18123D"/>
<rect x="82" y="94" width="148" height="42" rx="4" fill="white" stroke="#67B0F8" stroke-width="2"/>
<path d="M113.489 109.851H115.449L119.047 119.889H117.647L116.611 117.019H112.173L111.151 119.889H109.919L113.489 109.851ZM116.191 115.829L114.399 110.831L112.607 115.829H116.191ZM122.216 116.795H121.572V119.889H120.34V112.623H121.572V115.745H122.272L124.82 112.623H126.22L123.238 116.207L126.276 119.889H124.778L122.216 116.795ZM130.498 113.673V119.889H129.266V113.673H126.984V112.623H132.822V113.673H130.498ZM135.476 118.209L139.354 112.623H140.6V119.889H139.368V114.317L135.504 119.889H134.244V112.623H135.476V118.209ZM142.612 112.623H145.328C146.205 112.623 146.868 112.777 147.316 113.085C147.764 113.384 147.988 113.855 147.988 114.499C147.988 114.928 147.876 115.274 147.652 115.535C147.437 115.787 147.129 115.969 146.728 116.081C147.764 116.249 148.282 116.823 148.282 117.803C148.282 118.176 148.207 118.498 148.058 118.769C147.908 119.03 147.703 119.245 147.442 119.413C147.18 119.581 146.863 119.702 146.49 119.777C146.126 119.852 145.729 119.889 145.3 119.889H142.612V112.623ZM143.844 113.673V115.647H145.216C145.682 115.647 146.056 115.563 146.336 115.395C146.625 115.227 146.77 114.984 146.77 114.667C146.77 114.284 146.644 114.023 146.392 113.883C146.14 113.743 145.78 113.673 145.314 113.673H143.844ZM143.844 116.627V118.839H145.286C145.547 118.839 145.78 118.825 145.986 118.797C146.2 118.76 146.382 118.699 146.532 118.615C146.69 118.531 146.812 118.419 146.896 118.279C146.98 118.139 147.022 117.966 147.022 117.761C147.022 117.341 146.877 117.047 146.588 116.879C146.298 116.711 145.864 116.627 145.286 116.627H143.844ZM151.363 118.209L155.241 112.623H156.487V119.889H155.255V114.317L151.391 119.889H150.131V112.623H151.363V118.209ZM162.152 120.029C161.592 120.029 161.107 119.898 160.696 119.637C160.295 119.376 159.973 119.016 159.73 118.559V122.367H158.498V112.623H159.576L159.702 114.037C159.945 113.561 160.272 113.183 160.682 112.903C161.093 112.623 161.602 112.483 162.208 112.483C162.628 112.483 163.03 112.562 163.412 112.721C163.804 112.87 164.145 113.104 164.434 113.421C164.733 113.729 164.966 114.121 165.134 114.597C165.312 115.064 165.4 115.614 165.4 116.249C165.4 116.893 165.312 117.453 165.134 117.929C164.957 118.396 164.719 118.788 164.42 119.105C164.122 119.413 163.776 119.646 163.384 119.805C162.992 119.954 162.582 120.029 162.152 120.029ZM161.97 118.923C162.614 118.923 163.132 118.704 163.524 118.265C163.926 117.817 164.126 117.145 164.126 116.249C164.126 115.372 163.926 114.709 163.524 114.261C163.132 113.804 162.614 113.575 161.97 113.575C161.653 113.575 161.354 113.631 161.074 113.743C160.804 113.855 160.566 114.023 160.36 114.247C160.164 114.462 160.006 114.737 159.884 115.073C159.772 115.409 159.716 115.801 159.716 116.249C159.716 116.697 159.772 117.089 159.884 117.425C160.006 117.761 160.164 118.041 160.36 118.265C160.566 118.489 160.804 118.657 161.074 118.769C161.354 118.872 161.653 118.923 161.97 118.923ZM169.875 120.029C169.38 120.029 168.918 119.945 168.489 119.777C168.059 119.609 167.686 119.366 167.369 119.049C167.061 118.722 166.818 118.326 166.641 117.859C166.463 117.392 166.375 116.856 166.375 116.249C166.375 115.652 166.463 115.12 166.641 114.653C166.818 114.177 167.061 113.78 167.369 113.463C167.686 113.146 168.059 112.903 168.489 112.735C168.918 112.567 169.38 112.483 169.875 112.483C170.379 112.483 170.845 112.567 171.275 112.735C171.704 112.903 172.073 113.146 172.381 113.463C172.698 113.78 172.945 114.177 173.123 114.653C173.309 115.12 173.403 115.652 173.403 116.249C173.403 116.856 173.309 117.392 173.123 117.859C172.945 118.326 172.698 118.722 172.381 119.049C172.073 119.366 171.704 119.609 171.275 119.777C170.845 119.945 170.379 120.029 169.875 120.029ZM169.875 118.923C170.201 118.923 170.5 118.872 170.771 118.769C171.051 118.657 171.293 118.494 171.499 118.279C171.704 118.055 171.863 117.775 171.975 117.439C172.087 117.103 172.143 116.706 172.143 116.249C172.143 115.792 172.087 115.395 171.975 115.059C171.863 114.723 171.704 114.448 171.499 114.233C171.293 114.009 171.051 113.846 170.771 113.743C170.5 113.631 170.201 113.575 169.875 113.575C169.548 113.575 169.249 113.631 168.979 113.743C168.708 113.846 168.47 114.009 168.265 114.233C168.069 114.448 167.915 114.723 167.803 115.059C167.691 115.395 167.635 115.792 167.635 116.249C167.635 116.706 167.691 117.103 167.803 117.439C167.915 117.775 168.069 118.055 168.265 118.279C168.47 118.494 168.708 118.657 168.979 118.769C169.249 118.872 169.548 118.923 169.875 118.923ZM174.904 112.623H177.62C178.498 112.623 179.16 112.777 179.608 113.085C180.057 113.384 180.281 113.855 180.281 114.499C180.281 114.928 180.168 115.274 179.944 115.535C179.73 115.787 179.422 115.969 179.021 116.081C180.057 116.249 180.575 116.823 180.575 117.803C180.575 118.176 180.5 118.498 180.35 118.769C180.201 119.03 179.996 119.245 179.734 119.413C179.473 119.581 179.156 119.702 178.782 119.777C178.418 119.852 178.022 119.889 177.592 119.889H174.904V112.623ZM176.136 113.673V115.647H177.508C177.975 115.647 178.349 115.563 178.629 115.395C178.918 115.227 179.062 114.984 179.062 114.667C179.062 114.284 178.936 114.023 178.684 113.883C178.432 113.743 178.073 113.673 177.606 113.673H176.136ZM176.136 116.627V118.839H177.578C177.84 118.839 178.073 118.825 178.278 118.797C178.493 118.76 178.675 118.699 178.825 118.615C178.983 118.531 179.104 118.419 179.188 118.279C179.272 118.139 179.314 117.966 179.314 117.761C179.314 117.341 179.17 117.047 178.88 116.879C178.591 116.711 178.157 116.627 177.578 116.627H176.136ZM186.68 118.503C186.596 118.671 186.489 118.848 186.358 119.035C186.227 119.212 186.064 119.376 185.868 119.525C185.672 119.674 185.439 119.796 185.168 119.889C184.907 119.982 184.599 120.029 184.244 120.029C183.591 120.029 183.063 119.847 182.662 119.483C182.261 119.11 182.06 118.578 182.06 117.887C182.06 117.094 182.335 116.51 182.886 116.137C183.446 115.764 184.239 115.577 185.266 115.577H186.624V114.975C186.624 114.471 186.493 114.112 186.232 113.897C185.971 113.682 185.523 113.575 184.888 113.575C184.44 113.575 184.015 113.65 183.614 113.799C183.213 113.939 182.853 114.102 182.536 114.289V113.183C182.797 113.024 183.147 112.87 183.586 112.721C184.034 112.562 184.524 112.483 185.056 112.483C185.971 112.483 186.666 112.674 187.142 113.057C187.618 113.43 187.856 114.014 187.856 114.807V118.713C187.856 118.797 187.856 118.895 187.856 119.007C187.865 119.11 187.87 119.217 187.87 119.329C187.879 119.441 187.889 119.548 187.898 119.651C187.907 119.744 187.917 119.824 187.926 119.889H186.806C186.778 119.758 186.75 119.576 186.722 119.343C186.703 119.1 186.694 118.89 186.694 118.713L186.68 118.503ZM184.51 118.923C184.893 118.923 185.219 118.844 185.49 118.685C185.761 118.526 185.98 118.344 186.148 118.139C186.316 117.924 186.437 117.719 186.512 117.523C186.587 117.318 186.624 117.173 186.624 117.089V116.557H185.392C184.655 116.557 184.118 116.664 183.782 116.879C183.455 117.084 183.292 117.397 183.292 117.817C183.292 118.144 183.39 118.41 183.586 118.615C183.782 118.82 184.09 118.923 184.51 118.923ZM192.651 113.673V119.889H191.419V113.673H189.137V112.623H194.975V113.673H192.651ZM201.801 117.467C201.801 117.887 201.726 118.251 201.577 118.559C201.427 118.867 201.217 119.119 200.947 119.315C200.676 119.511 200.354 119.656 199.981 119.749C199.607 119.842 199.201 119.889 198.763 119.889H196.355V112.623H197.587V115.157H198.847C199.771 115.157 200.494 115.339 201.017 115.703C201.539 116.067 201.801 116.655 201.801 117.467ZM197.587 116.207V118.839H198.763C199.295 118.839 199.724 118.741 200.051 118.545C200.387 118.34 200.555 118.004 200.555 117.537C200.555 117.061 200.405 116.72 200.107 116.515C199.808 116.31 199.388 116.207 198.847 116.207H197.587Z" fill="#18123D"/>
<rect x="81" y="9" width="150" height="44" rx="5" fill="#D3E3FC"/>
<path d="M137.659 36.0289C136.912 36.0289 136.236 35.9122 135.629 35.6789C135.022 35.4456 134.5 35.1096 134.061 34.6709C133.632 34.2229 133.3 33.6816 133.067 33.0469C132.834 32.4029 132.717 31.6796 132.717 30.8769C132.717 30.0649 132.824 29.3416 133.039 28.7069C133.254 28.0722 133.571 27.5356 133.991 27.0969C134.411 26.6489 134.924 26.3082 135.531 26.0749C136.147 25.8416 136.847 25.7249 137.631 25.7249C138.312 25.7249 138.91 25.7996 139.423 25.9489C139.936 26.0889 140.356 26.2569 140.683 26.4529V27.7129C140.263 27.4422 139.778 27.2416 139.227 27.1109C138.686 26.9802 138.149 26.9149 137.617 26.9149C136.432 26.9149 135.554 27.2462 134.985 27.9089C134.425 28.5622 134.145 29.5516 134.145 30.8769C134.145 32.2116 134.448 33.2056 135.055 33.8589C135.671 34.5122 136.576 34.8389 137.771 34.8389C138.284 34.8389 138.784 34.7689 139.269 34.6289C139.764 34.4889 140.235 34.2509 140.683 33.9149V35.1749C140.412 35.3896 140.016 35.5856 139.493 35.7629C138.98 35.9402 138.368 36.0289 137.659 36.0289ZM145.443 36.0289C144.948 36.0289 144.486 35.9449 144.057 35.7769C143.628 35.6089 143.254 35.3662 142.937 35.0489C142.629 34.7222 142.386 34.3256 142.209 33.8589C142.032 33.3922 141.943 32.8556 141.943 32.2489C141.943 31.6516 142.032 31.1196 142.209 30.6529C142.386 30.1769 142.629 29.7802 142.937 29.4629C143.254 29.1456 143.628 28.9029 144.057 28.7349C144.486 28.5669 144.948 28.4829 145.443 28.4829C145.947 28.4829 146.414 28.5669 146.843 28.7349C147.272 28.9029 147.641 29.1456 147.949 29.4629C148.266 29.7802 148.514 30.1769 148.691 30.6529C148.878 31.1196 148.971 31.6516 148.971 32.2489C148.971 32.8556 148.878 33.3922 148.691 33.8589C148.514 34.3256 148.266 34.7222 147.949 35.0489C147.641 35.3662 147.272 35.6089 146.843 35.7769C146.414 35.9449 145.947 36.0289 145.443 36.0289ZM145.443 34.9229C145.77 34.9229 146.068 34.8716 146.339 34.7689C146.619 34.6569 146.862 34.4936 147.067 34.2789C147.272 34.0549 147.431 33.7749 147.543 33.4389C147.655 33.1029 147.711 32.7062 147.711 32.2489C147.711 31.7916 147.655 31.3949 147.543 31.0589C147.431 30.7229 147.272 30.4476 147.067 30.2329C146.862 30.0089 146.619 29.8456 146.339 29.7429C146.068 29.6309 145.77 29.5749 145.443 29.5749C145.116 29.5749 144.818 29.6309 144.547 29.7429C144.276 29.8456 144.038 30.0089 143.833 30.2329C143.637 30.4476 143.483 30.7229 143.371 31.0589C143.259 31.3949 143.203 31.7916 143.203 32.2489C143.203 32.7062 143.259 33.1029 143.371 33.4389C143.483 33.7749 143.637 34.0549 143.833 34.2789C144.038 34.4936 144.276 34.6569 144.547 34.7689C144.818 34.8716 145.116 34.9229 145.443 34.9229ZM155.557 33.7749C155.557 34.1856 155.472 34.5356 155.304 34.8249C155.146 35.1049 154.927 35.3382 154.647 35.5249C154.367 35.7022 154.04 35.8282 153.666 35.9029C153.302 35.9869 152.92 36.0289 152.518 36.0289C151.986 36.0289 151.515 35.9729 151.104 35.8609C150.703 35.7489 150.386 35.6136 150.152 35.4549V34.3489C150.442 34.5262 150.787 34.6662 151.188 34.7689C151.59 34.8716 152.024 34.9229 152.49 34.9229C153.022 34.9229 153.466 34.8389 153.82 34.6709C154.184 34.4936 154.366 34.1949 154.366 33.7749C154.366 33.3642 154.212 33.0749 153.905 32.9069C153.606 32.7389 153.144 32.6549 152.518 32.6549H151.552V31.6609H152.56C153.074 31.6609 153.466 31.5676 153.736 31.3809C154.007 31.1942 154.142 30.9236 154.142 30.5689C154.142 30.3822 154.096 30.2282 154.002 30.1069C153.918 29.9762 153.802 29.8736 153.652 29.7989C153.503 29.7149 153.326 29.6589 153.12 29.6309C152.924 29.5936 152.714 29.5749 152.49 29.5749C152.061 29.5749 151.66 29.6262 151.286 29.7289C150.922 29.8316 150.591 29.9762 150.292 30.1629V29.0569C150.535 28.8982 150.848 28.7629 151.23 28.6509C151.622 28.5389 152.075 28.4829 152.588 28.4829C153.475 28.4829 154.142 28.6509 154.59 28.9869C155.048 29.3229 155.276 29.8082 155.276 30.4429C155.276 30.9189 155.146 31.2922 154.884 31.5629C154.632 31.8336 154.273 32.0202 153.807 32.1229C154.385 32.1976 154.819 32.3796 155.108 32.6689C155.407 32.9582 155.557 33.3269 155.557 33.7749ZM156.971 34.8389C157.233 34.6802 157.438 34.4329 157.587 34.0969C157.737 33.7609 157.853 33.3362 157.937 32.8229C158.021 32.3096 158.077 31.7029 158.105 31.0029C158.143 30.3029 158.175 29.5096 158.203 28.6229H163.201V34.8389H164.293V37.9609H163.215L163.061 35.8889H157.657L157.531 37.9609H156.425V34.8389H156.971ZM161.969 34.8389V29.6729H159.309C159.263 31.0449 159.174 32.1462 159.043 32.9769C158.922 33.7982 158.707 34.4189 158.399 34.8389H161.969ZM169.768 34.5029C169.684 34.6709 169.577 34.8482 169.446 35.0349C169.315 35.2122 169.152 35.3756 168.956 35.5249C168.76 35.6742 168.527 35.7956 168.256 35.8889C167.995 35.9822 167.687 36.0289 167.332 36.0289C166.679 36.0289 166.151 35.8469 165.75 35.4829C165.349 35.1096 165.148 34.5776 165.148 33.8869C165.148 33.0936 165.423 32.5102 165.974 32.1369C166.534 31.7636 167.327 31.5769 168.354 31.5769H169.712V30.9749C169.712 30.4709 169.581 30.1116 169.32 29.8969C169.059 29.6822 168.611 29.5749 167.976 29.5749C167.528 29.5749 167.103 29.6496 166.702 29.7989C166.301 29.9389 165.941 30.1022 165.624 30.2889V29.1829C165.885 29.0242 166.235 28.8702 166.674 28.7209C167.122 28.5622 167.612 28.4829 168.144 28.4829C169.059 28.4829 169.754 28.6742 170.23 29.0569C170.706 29.4302 170.944 30.0136 170.944 30.8069V34.7129C170.944 34.7969 170.944 34.8949 170.944 35.0069C170.953 35.1096 170.958 35.2169 170.958 35.3289C170.967 35.4409 170.977 35.5482 170.986 35.6509C170.995 35.7442 171.005 35.8236 171.014 35.8889H169.894C169.866 35.7582 169.838 35.5762 169.81 35.3429C169.791 35.1002 169.782 34.8902 169.782 34.7129L169.768 34.5029ZM167.598 34.9229C167.981 34.9229 168.307 34.8436 168.578 34.6849C168.849 34.5262 169.068 34.3442 169.236 34.1389C169.404 33.9242 169.525 33.7189 169.6 33.5229C169.675 33.3176 169.712 33.1729 169.712 33.0889V32.5569H168.48C167.743 32.5569 167.206 32.6642 166.87 32.8789C166.543 33.0842 166.38 33.3969 166.38 33.8169C166.38 34.1436 166.478 34.4096 166.674 34.6149C166.87 34.8202 167.178 34.9229 167.598 34.9229ZM177.627 32.6689H174.113V35.8889H172.881V28.6229H174.113V31.6189H177.627V28.6229H178.859V35.8889H177.627V32.6689Z" fill="#18123D"/>
<path d="M156 261L150.226 251L161.774 251L156 261ZM156 252L155 252L155 221L156 221L157 221L157 252L156 252Z" fill="#4E496B"/>
<path d="M156 345L150.226 335L161.774 335L156 345ZM156 336L155 336L155 305L156 305L157 305L157 336L156 336Z" fill="#4E496B"/>
<path d="M156 429L150.226 419L161.774 419L156 429ZM156 420L155 420L155 389L156 389L157 389L157 420L156 420Z" fill="#4E496B"/>
<path d="M156 513L150.226 503L161.774 503L156 513ZM156 504L155 504L155 473L156 473L157 473L157 504L156 504Z" fill="#4E496B"/>
<path d="M156 597L150.226 587L161.774 587L156 597ZM156 588L155 588L155 557L156 557L157 557L157 588L156 588Z" fill="#4E496B"/>
<rect x="81" y="261" width="150" height="44" rx="5" fill="#D3E3FC"/>
<path d="M106.898 277.851H110.104C111.242 277.851 112.124 278.089 112.75 278.565C113.384 279.032 113.702 279.764 113.702 280.763C113.702 281.332 113.608 281.822 113.422 282.233C113.244 282.634 112.992 282.966 112.666 283.227C112.339 283.488 111.947 283.68 111.49 283.801C111.042 283.922 110.542 283.983 109.992 283.983H108.214V287.889H106.898V277.851ZM108.214 279.055V282.793H109.992C110.346 282.793 110.668 282.756 110.958 282.681C111.247 282.606 111.494 282.49 111.7 282.331C111.914 282.172 112.078 281.967 112.19 281.715C112.311 281.454 112.372 281.141 112.372 280.777C112.372 280.17 112.176 279.732 111.784 279.461C111.392 279.19 110.832 279.055 110.104 279.055H108.214ZM120.783 287.273C120.681 287.348 120.555 287.427 120.405 287.511C120.256 287.595 120.074 287.679 119.859 287.763C119.645 287.838 119.402 287.898 119.131 287.945C118.861 288.001 118.557 288.029 118.221 288.029C116.999 288.029 116.07 287.698 115.435 287.035C114.801 286.372 114.483 285.444 114.483 284.249C114.483 283.661 114.567 283.134 114.735 282.667C114.913 282.2 115.155 281.808 115.463 281.491C115.771 281.164 116.135 280.917 116.555 280.749C116.975 280.572 117.433 280.483 117.927 280.483C118.45 280.483 118.917 280.572 119.327 280.749C119.738 280.926 120.074 281.188 120.335 281.533C120.606 281.878 120.788 282.308 120.881 282.821C120.984 283.325 120.984 283.913 120.881 284.585H115.757C115.804 285.369 116.037 285.957 116.457 286.349C116.877 286.732 117.503 286.923 118.333 286.923C118.893 286.923 119.374 286.844 119.775 286.685C120.177 286.526 120.513 286.354 120.783 286.167V287.273ZM117.899 281.575C117.367 281.575 116.91 281.738 116.527 282.065C116.145 282.392 115.902 282.886 115.799 283.549H119.705C119.743 282.877 119.589 282.382 119.243 282.065C118.898 281.738 118.45 281.575 117.899 281.575ZM122.534 280.623H128.358V287.889H127.126V281.673H123.766V287.889H122.534V280.623ZM130.928 285.635C131.059 285.159 131.143 284.515 131.18 283.703C131.218 282.891 131.236 281.864 131.236 280.623H136.122V287.889H134.876V281.673H132.398C132.389 282.672 132.356 283.558 132.3 284.333C132.254 285.108 132.146 285.761 131.978 286.293C131.82 286.825 131.582 287.231 131.264 287.511C130.956 287.782 130.541 287.917 130.018 287.917C129.981 287.917 129.944 287.917 129.906 287.917C129.869 287.917 129.827 287.912 129.78 287.903V286.685C129.827 286.694 129.888 286.699 129.962 286.699C130.438 286.699 130.76 286.344 130.928 285.635ZM139.352 286.209L143.23 280.623H144.476V287.889H143.244V282.317L139.38 287.889H138.12V280.623H139.352V286.209ZM152.41 287.889H146.488V280.623H147.72V286.839H151.29V280.623H152.522V286.839H153.614V289.961H152.564L152.41 287.889ZM156.128 286.209L160.006 280.623H161.252V287.889H160.02V282.317L156.156 287.889H154.896V280.623H156.128V286.209ZM166.917 288.029C166.357 288.029 165.872 287.898 165.461 287.637C165.06 287.376 164.738 287.016 164.495 286.559V290.367H163.263V280.623H164.341L164.467 282.037C164.71 281.561 165.036 281.183 165.447 280.903C165.858 280.623 166.366 280.483 166.973 280.483C167.393 280.483 167.794 280.562 168.177 280.721C168.569 280.87 168.91 281.104 169.199 281.421C169.498 281.729 169.731 282.121 169.899 282.597C170.076 283.064 170.165 283.614 170.165 284.249C170.165 284.893 170.076 285.453 169.899 285.929C169.722 286.396 169.484 286.788 169.185 287.105C168.886 287.413 168.541 287.646 168.149 287.805C167.757 287.954 167.346 288.029 166.917 288.029ZM166.735 286.923C167.379 286.923 167.897 286.704 168.289 286.265C168.69 285.817 168.891 285.145 168.891 284.249C168.891 283.372 168.69 282.709 168.289 282.261C167.897 281.804 167.379 281.575 166.735 281.575C166.418 281.575 166.119 281.631 165.839 281.743C165.568 281.855 165.33 282.023 165.125 282.247C164.929 282.462 164.77 282.737 164.649 283.073C164.537 283.409 164.481 283.801 164.481 284.249C164.481 284.697 164.537 285.089 164.649 285.425C164.77 285.761 164.929 286.041 165.125 286.265C165.33 286.489 165.568 286.657 165.839 286.769C166.119 286.872 166.418 286.923 166.735 286.923ZM175.159 287.805C174.991 288.244 174.814 288.626 174.627 288.953C174.44 289.289 174.23 289.574 173.997 289.807C173.764 290.04 173.502 290.213 173.213 290.325C172.924 290.446 172.592 290.507 172.219 290.507C172.032 290.507 171.86 290.493 171.701 290.465C171.542 290.446 171.398 290.409 171.267 290.353V289.163C171.37 289.238 171.5 289.294 171.659 289.331C171.818 289.378 171.99 289.401 172.177 289.401C172.522 289.401 172.807 289.317 173.031 289.149C173.255 288.99 173.47 288.734 173.675 288.379L170.721 280.623H172.079L174.389 286.755L176.685 280.623H177.875L175.159 287.805ZM184.74 287.273C184.638 287.348 184.512 287.427 184.362 287.511C184.213 287.595 184.031 287.679 183.816 287.763C183.602 287.838 183.359 287.898 183.088 287.945C182.818 288.001 182.514 288.029 182.178 288.029C180.956 288.029 180.027 287.698 179.392 287.035C178.758 286.372 178.44 285.444 178.44 284.249C178.44 283.661 178.524 283.134 178.692 282.667C178.87 282.2 179.112 281.808 179.42 281.491C179.728 281.164 180.092 280.917 180.512 280.749C180.932 280.572 181.39 280.483 181.884 280.483C182.407 280.483 182.874 280.572 183.284 280.749C183.695 280.926 184.031 281.188 184.292 281.533C184.563 281.878 184.745 282.308 184.838 282.821C184.941 283.325 184.941 283.913 184.838 284.585H179.714C179.761 285.369 179.994 285.957 180.414 286.349C180.834 286.732 181.46 286.923 182.29 286.923C182.85 286.923 183.331 286.844 183.732 286.685C184.134 286.526 184.47 286.354 184.74 286.167V287.273ZM181.856 281.575C181.324 281.575 180.867 281.738 180.484 282.065C180.102 282.392 179.859 282.886 179.756 283.549H183.662C183.7 282.877 183.546 282.382 183.2 282.065C182.855 281.738 182.407 281.575 181.856 281.575ZM189.349 281.673V287.889H188.117V281.673H185.835V280.623H191.673V281.673H189.349ZM196.026 288.029C195.466 288.029 194.957 287.945 194.5 287.777C194.052 287.6 193.669 287.352 193.352 287.035C193.035 286.708 192.792 286.312 192.624 285.845C192.456 285.378 192.372 284.846 192.372 284.249C192.372 283.661 192.456 283.134 192.624 282.667C192.801 282.2 193.049 281.808 193.366 281.491C193.683 281.164 194.071 280.917 194.528 280.749C194.985 280.572 195.503 280.483 196.082 280.483C196.53 280.483 196.941 280.534 197.314 280.637C197.687 280.73 197.995 280.87 198.238 281.057V282.163C197.939 281.967 197.603 281.822 197.23 281.729C196.866 281.626 196.488 281.575 196.096 281.575C195.247 281.575 194.621 281.794 194.22 282.233C193.828 282.672 193.632 283.344 193.632 284.249C193.632 285.154 193.823 285.826 194.206 286.265C194.589 286.704 195.195 286.923 196.026 286.923C196.465 286.923 196.866 286.872 197.23 286.769C197.603 286.657 197.939 286.517 198.238 286.349V287.455C197.977 287.614 197.659 287.749 197.286 287.861C196.922 287.973 196.502 288.029 196.026 288.029ZM199.89 282.975C199.89 282.564 199.965 282.214 200.114 281.925C200.263 281.626 200.473 281.384 200.744 281.197C201.015 281.001 201.337 280.856 201.71 280.763C202.083 280.67 202.489 280.623 202.928 280.623H205.266V287.889H204.034V285.257H202.704L200.842 287.889H199.372L201.472 284.949C200.968 284.8 200.576 284.571 200.296 284.263C200.025 283.955 199.89 283.526 199.89 282.975ZM204.034 284.207V281.673H202.928C202.405 281.673 201.976 281.771 201.64 281.967C201.304 282.163 201.136 282.48 201.136 282.919C201.136 283.376 201.285 283.708 201.584 283.913C201.883 284.109 202.307 284.207 202.858 284.207H204.034Z" fill="#18123D"/>
<rect x="81" y="429" width="150" height="44" rx="5" fill="#D3E3FC"/>
<path d="M104.474 456.029C103.802 456.029 103.172 455.917 102.584 455.693C101.996 455.46 101.487 455.124 101.058 454.685C100.629 454.246 100.288 453.705 100.036 453.061C99.7933 452.417 99.672 451.675 99.672 450.835C99.672 449.995 99.7933 449.258 100.036 448.623C100.288 447.979 100.629 447.447 101.058 447.027C101.487 446.598 101.996 446.276 102.584 446.061C103.172 445.837 103.802 445.725 104.474 445.725C105.155 445.725 105.79 445.837 106.378 446.061C106.966 446.276 107.475 446.598 107.904 447.027C108.333 447.456 108.669 447.993 108.912 448.637C109.155 449.272 109.276 450.009 109.276 450.849C109.276 451.68 109.155 452.417 108.912 453.061C108.669 453.705 108.333 454.246 107.904 454.685C107.475 455.124 106.966 455.46 106.378 455.693C105.79 455.917 105.155 456.029 104.474 456.029ZM104.474 454.839C104.959 454.839 105.407 454.769 105.818 454.629C106.229 454.48 106.583 454.251 106.882 453.943C107.19 453.626 107.428 453.215 107.596 452.711C107.773 452.207 107.862 451.596 107.862 450.877C107.862 450.158 107.773 449.547 107.596 449.043C107.428 448.539 107.19 448.133 106.882 447.825C106.583 447.508 106.229 447.279 105.818 447.139C105.407 446.99 104.959 446.915 104.474 446.915C103.989 446.915 103.541 446.99 103.13 447.139C102.719 447.279 102.36 447.508 102.052 447.825C101.753 448.133 101.515 448.539 101.338 449.043C101.17 449.547 101.086 450.158 101.086 450.877C101.086 451.596 101.17 452.207 101.338 452.711C101.515 453.215 101.753 453.626 102.052 453.943C102.36 454.251 102.719 454.48 103.13 454.629C103.541 454.769 103.989 454.839 104.474 454.839ZM114.07 456.029C113.51 456.029 113.001 455.945 112.544 455.777C112.096 455.6 111.713 455.352 111.396 455.035C111.078 454.708 110.836 454.312 110.668 453.845C110.5 453.378 110.416 452.846 110.416 452.249C110.416 451.661 110.5 451.134 110.668 450.667C110.845 450.2 111.092 449.808 111.41 449.491C111.727 449.164 112.114 448.917 112.572 448.749C113.029 448.572 113.547 448.483 114.126 448.483C114.574 448.483 114.984 448.534 115.358 448.637C115.731 448.73 116.039 448.87 116.282 449.057V450.163C115.983 449.967 115.647 449.822 115.274 449.729C114.91 449.626 114.532 449.575 114.14 449.575C113.29 449.575 112.665 449.794 112.264 450.233C111.872 450.672 111.676 451.344 111.676 452.249C111.676 453.154 111.867 453.826 112.25 454.265C112.632 454.704 113.239 454.923 114.07 454.923C114.508 454.923 114.91 454.872 115.274 454.769C115.647 454.657 115.983 454.517 116.282 454.349V455.455C116.02 455.614 115.703 455.749 115.33 455.861C114.966 455.973 114.546 456.029 114.07 456.029ZM120.86 449.673V455.889H119.628V449.673H117.346V448.623H123.184V449.673H120.86ZM128.657 454.503C128.573 454.671 128.465 454.848 128.335 455.035C128.204 455.212 128.041 455.376 127.845 455.525C127.649 455.674 127.415 455.796 127.145 455.889C126.883 455.982 126.575 456.029 126.221 456.029C125.567 456.029 125.04 455.847 124.639 455.483C124.237 455.11 124.037 454.578 124.037 453.887C124.037 453.094 124.312 452.51 124.863 452.137C125.423 451.764 126.216 451.577 127.243 451.577H128.601V450.975C128.601 450.471 128.47 450.112 128.209 449.897C127.947 449.682 127.499 449.575 126.865 449.575C126.417 449.575 125.992 449.65 125.591 449.799C125.189 449.939 124.83 450.102 124.513 450.289V449.183C124.774 449.024 125.124 448.87 125.563 448.721C126.011 448.562 126.501 448.483 127.033 448.483C127.947 448.483 128.643 448.674 129.119 449.057C129.595 449.43 129.833 450.014 129.833 450.807V454.713C129.833 454.797 129.833 454.895 129.833 455.007C129.842 455.11 129.847 455.217 129.847 455.329C129.856 455.441 129.865 455.548 129.875 455.651C129.884 455.744 129.893 455.824 129.903 455.889H128.783C128.755 455.758 128.727 455.576 128.699 455.343C128.68 455.1 128.671 454.89 128.671 454.713L128.657 454.503ZM126.487 454.923C126.869 454.923 127.196 454.844 127.467 454.685C127.737 454.526 127.957 454.344 128.125 454.139C128.293 453.924 128.414 453.719 128.489 453.523C128.563 453.318 128.601 453.173 128.601 453.089V452.557H127.369C126.631 452.557 126.095 452.664 125.759 452.879C125.432 453.084 125.269 453.397 125.269 453.817C125.269 454.144 125.367 454.41 125.563 454.615C125.759 454.82 126.067 454.923 126.487 454.923ZM136.516 452.669H133.002V455.889H131.77V448.623H133.002V451.619H136.516V448.623H137.748V455.889H136.516V452.669ZM144.024 454.503C143.94 454.671 143.832 454.848 143.702 455.035C143.571 455.212 143.408 455.376 143.212 455.525C143.016 455.674 142.782 455.796 142.512 455.889C142.25 455.982 141.942 456.029 141.588 456.029C140.934 456.029 140.407 455.847 140.006 455.483C139.604 455.11 139.404 454.578 139.404 453.887C139.404 453.094 139.679 452.51 140.23 452.137C140.79 451.764 141.583 451.577 142.61 451.577H143.968V450.975C143.968 450.471 143.837 450.112 143.576 449.897C143.314 449.682 142.866 449.575 142.232 449.575C141.784 449.575 141.359 449.65 140.958 449.799C140.556 449.939 140.197 450.102 139.88 450.289V449.183C140.141 449.024 140.491 448.87 140.93 448.721C141.378 448.562 141.868 448.483 142.4 448.483C143.314 448.483 144.01 448.674 144.486 449.057C144.962 449.43 145.2 450.014 145.2 450.807V454.713C145.2 454.797 145.2 454.895 145.2 455.007C145.209 455.11 145.214 455.217 145.214 455.329C145.223 455.441 145.232 455.548 145.242 455.651C145.251 455.744 145.26 455.824 145.27 455.889H144.15C144.122 455.758 144.094 455.576 144.066 455.343C144.047 455.1 144.038 454.89 144.038 454.713L144.024 454.503ZM141.854 454.923C142.236 454.923 142.563 454.844 142.834 454.685C143.104 454.526 143.324 454.344 143.492 454.139C143.66 453.924 143.781 453.719 143.856 453.523C143.93 453.318 143.968 453.173 143.968 453.089V452.557H142.736C141.998 452.557 141.462 452.664 141.126 452.879C140.799 453.084 140.636 453.397 140.636 453.817C140.636 454.144 140.734 454.41 140.93 454.615C141.126 454.82 141.434 454.923 141.854 454.923ZM147.137 448.623H149.853C150.73 448.623 151.393 448.777 151.841 449.085C152.289 449.384 152.513 449.855 152.513 450.499C152.513 450.928 152.401 451.274 152.177 451.535C151.962 451.787 151.654 451.969 151.253 452.081C152.289 452.249 152.807 452.823 152.807 453.803C152.807 454.176 152.732 454.498 152.583 454.769C152.434 455.03 152.228 455.245 151.967 455.413C151.706 455.581 151.388 455.702 151.015 455.777C150.651 455.852 150.254 455.889 149.825 455.889H147.137V448.623ZM148.369 449.673V451.647H149.741C150.208 451.647 150.581 451.563 150.861 451.395C151.15 451.227 151.295 450.984 151.295 450.667C151.295 450.284 151.169 450.023 150.917 449.883C150.665 449.743 150.306 449.673 149.839 449.673H148.369ZM148.369 452.627V454.839H149.811C150.072 454.839 150.306 454.825 150.511 454.797C150.726 454.76 150.908 454.699 151.057 454.615C151.216 454.531 151.337 454.419 151.421 454.279C151.505 454.139 151.547 453.966 151.547 453.761C151.547 453.341 151.402 453.047 151.113 452.879C150.824 452.711 150.39 452.627 149.811 452.627H148.369ZM155.148 453.635C155.279 453.159 155.363 452.515 155.4 451.703C155.437 450.891 155.456 449.864 155.456 448.623H160.342V455.889H159.096V449.673H156.618C156.609 450.672 156.576 451.558 156.52 452.333C156.473 453.108 156.366 453.761 156.198 454.293C156.039 454.825 155.801 455.231 155.484 455.511C155.176 455.782 154.761 455.917 154.238 455.917C154.201 455.917 154.163 455.917 154.126 455.917C154.089 455.917 154.047 455.912 154 455.903V454.685C154.047 454.694 154.107 454.699 154.182 454.699C154.658 454.699 154.98 454.344 155.148 453.635ZM163.572 454.209L167.45 448.623H168.696V455.889H167.464V450.317L163.6 455.889H162.34V448.623H163.572V454.209ZM170.707 448.623H173.423C174.301 448.623 174.963 448.777 175.411 449.085C175.859 449.384 176.083 449.855 176.083 450.499C176.083 450.928 175.971 451.274 175.747 451.535C175.533 451.787 175.225 451.969 174.823 452.081C175.859 452.249 176.377 452.823 176.377 453.803C176.377 454.176 176.303 454.498 176.153 454.769C176.004 455.03 175.799 455.245 175.537 455.413C175.276 455.581 174.959 455.702 174.585 455.777C174.221 455.852 173.825 455.889 173.395 455.889H170.707V448.623ZM171.939 449.673V451.647H173.311C173.778 451.647 174.151 451.563 174.431 451.395C174.721 451.227 174.865 450.984 174.865 450.667C174.865 450.284 174.739 450.023 174.487 449.883C174.235 449.743 173.876 449.673 173.409 449.673H171.939ZM171.939 452.627V454.839H173.381C173.643 454.839 173.876 454.825 174.081 454.797C174.296 454.76 174.478 454.699 174.627 454.615C174.786 454.531 174.907 454.419 174.991 454.279C175.075 454.139 175.117 453.966 175.117 453.761C175.117 453.341 174.973 453.047 174.683 452.879C174.394 452.711 173.96 452.627 173.381 452.627H171.939ZM182.483 454.503C182.399 454.671 182.291 454.848 182.161 455.035C182.03 455.212 181.867 455.376 181.671 455.525C181.475 455.674 181.241 455.796 180.971 455.889C180.709 455.982 180.401 456.029 180.047 456.029C179.393 456.029 178.866 455.847 178.465 455.483C178.063 455.11 177.863 454.578 177.863 453.887C177.863 453.094 178.138 452.51 178.689 452.137C179.249 451.764 180.042 451.577 181.069 451.577H182.427V450.975C182.427 450.471 182.296 450.112 182.035 449.897C181.773 449.682 181.325 449.575 180.691 449.575C180.243 449.575 179.818 449.65 179.417 449.799C179.015 449.939 178.656 450.102 178.339 450.289V449.183C178.6 449.024 178.95 448.87 179.389 448.721C179.837 448.562 180.327 448.483 180.859 448.483C181.773 448.483 182.469 448.674 182.945 449.057C183.421 449.43 183.659 450.014 183.659 450.807V454.713C183.659 454.797 183.659 454.895 183.659 455.007C183.668 455.11 183.673 455.217 183.673 455.329C183.682 455.441 183.691 455.548 183.701 455.651C183.71 455.744 183.719 455.824 183.729 455.889H182.609C182.581 455.758 182.553 455.576 182.525 455.343C182.506 455.1 182.497 454.89 182.497 454.713L182.483 454.503ZM180.313 454.923C180.695 454.923 181.022 454.844 181.293 454.685C181.563 454.526 181.783 454.344 181.951 454.139C182.119 453.924 182.24 453.719 182.315 453.523C182.389 453.318 182.427 453.173 182.427 453.089V452.557H181.195C180.457 452.557 179.921 452.664 179.585 452.879C179.258 453.084 179.095 453.397 179.095 453.817C179.095 454.144 179.193 454.41 179.389 454.615C179.585 454.82 179.893 454.923 180.313 454.923ZM191.378 455.273C191.275 455.348 191.149 455.427 191 455.511C190.851 455.595 190.669 455.679 190.454 455.763C190.239 455.838 189.997 455.898 189.726 455.945C189.455 456.001 189.152 456.029 188.816 456.029C187.593 456.029 186.665 455.698 186.03 455.035C185.395 454.372 185.078 453.444 185.078 452.249C185.078 451.661 185.162 451.134 185.33 450.667C185.507 450.2 185.75 449.808 186.058 449.491C186.366 449.164 186.73 448.917 187.15 448.749C187.57 448.572 188.027 448.483 188.522 448.483C189.045 448.483 189.511 448.572 189.922 448.749C190.333 448.926 190.669 449.188 190.93 449.533C191.201 449.878 191.383 450.308 191.476 450.821C191.579 451.325 191.579 451.913 191.476 452.585H186.352C186.399 453.369 186.632 453.957 187.052 454.349C187.472 454.732 188.097 454.923 188.928 454.923C189.488 454.923 189.969 454.844 190.37 454.685C190.771 454.526 191.107 454.354 191.378 454.167V455.273ZM188.494 449.575C187.962 449.575 187.505 449.738 187.122 450.065C186.739 450.392 186.497 450.886 186.394 451.549H190.3C190.337 450.877 190.183 450.382 189.838 450.065C189.493 449.738 189.045 449.575 188.494 449.575ZM195.987 449.673V455.889H194.755V449.673H192.473V448.623H198.311V449.673H195.987ZM202.664 456.029C202.104 456.029 201.595 455.945 201.138 455.777C200.69 455.6 200.307 455.352 199.99 455.035C199.672 454.708 199.43 454.312 199.262 453.845C199.094 453.378 199.01 452.846 199.01 452.249C199.01 451.661 199.094 451.134 199.262 450.667C199.439 450.2 199.686 449.808 200.004 449.491C200.321 449.164 200.708 448.917 201.166 448.749C201.623 448.572 202.141 448.483 202.72 448.483C203.168 448.483 203.578 448.534 203.952 448.637C204.325 448.73 204.633 448.87 204.876 449.057V450.163C204.577 449.967 204.241 449.822 203.868 449.729C203.504 449.626 203.126 449.575 202.734 449.575C201.884 449.575 201.259 449.794 200.858 450.233C200.466 450.672 200.27 451.344 200.27 452.249C200.27 453.154 200.461 453.826 200.844 454.265C201.226 454.704 201.833 454.923 202.664 454.923C203.102 454.923 203.504 454.872 203.868 454.769C204.241 454.657 204.577 454.517 204.876 454.349V455.455C204.614 455.614 204.297 455.749 203.924 455.861C203.56 455.973 203.14 456.029 202.664 456.029ZM206.528 450.975C206.528 450.564 206.602 450.214 206.752 449.925C206.901 449.626 207.111 449.384 207.382 449.197C207.652 449.001 207.974 448.856 208.348 448.763C208.721 448.67 209.127 448.623 209.566 448.623H211.904V455.889H210.672V453.257H209.342L207.48 455.889H206.01L208.11 452.949C207.606 452.8 207.214 452.571 206.934 452.263C206.663 451.955 206.528 451.526 206.528 450.975ZM210.672 452.207V449.673H209.566C209.043 449.673 208.614 449.771 208.278 449.967C207.942 450.163 207.774 450.48 207.774 450.919C207.774 451.376 207.923 451.708 208.222 451.913C208.52 452.109 208.945 452.207 209.496 452.207H210.672Z" fill="#18123D"/>
<rect x="81" y="513" width="150" height="44" rx="5" fill="#FFF5CC"/>
<path d="M122.179 540.029C121.507 540.029 120.877 539.917 120.289 539.693C119.701 539.46 119.192 539.124 118.763 538.685C118.334 538.246 117.993 537.705 117.741 537.061C117.498 536.417 117.377 535.675 117.377 534.835C117.377 533.995 117.498 533.258 117.741 532.623C117.993 531.979 118.334 531.447 118.763 531.027C119.192 530.598 119.701 530.276 120.289 530.061C120.877 529.837 121.507 529.725 122.179 529.725C122.86 529.725 123.495 529.837 124.083 530.061C124.671 530.276 125.18 530.598 125.609 531.027C126.038 531.456 126.374 531.993 126.617 532.637C126.86 533.272 126.981 534.009 126.981 534.849C126.981 535.68 126.86 536.417 126.617 537.061C126.374 537.705 126.038 538.246 125.609 538.685C125.18 539.124 124.671 539.46 124.083 539.693C123.495 539.917 122.86 540.029 122.179 540.029ZM122.179 538.839C122.664 538.839 123.112 538.769 123.523 538.629C123.934 538.48 124.288 538.251 124.587 537.943C124.895 537.626 125.133 537.215 125.301 536.711C125.478 536.207 125.567 535.596 125.567 534.877C125.567 534.158 125.478 533.547 125.301 533.043C125.133 532.539 124.895 532.133 124.587 531.825C124.288 531.508 123.934 531.279 123.523 531.139C123.112 530.99 122.664 530.915 122.179 530.915C121.694 530.915 121.246 530.99 120.835 531.139C120.424 531.279 120.065 531.508 119.757 531.825C119.458 532.133 119.22 532.539 119.043 533.043C118.875 533.547 118.791 534.158 118.791 534.877C118.791 535.596 118.875 536.207 119.043 536.711C119.22 537.215 119.458 537.626 119.757 537.943C120.065 538.251 120.424 538.48 120.835 538.629C121.246 538.769 121.694 538.839 122.179 538.839ZM131.775 540.029C131.215 540.029 130.706 539.945 130.249 539.777C129.801 539.6 129.418 539.352 129.101 539.035C128.784 538.708 128.541 538.312 128.373 537.845C128.205 537.378 128.121 536.846 128.121 536.249C128.121 535.661 128.205 535.134 128.373 534.667C128.55 534.2 128.798 533.808 129.115 533.491C129.432 533.164 129.82 532.917 130.277 532.749C130.734 532.572 131.252 532.483 131.831 532.483C132.279 532.483 132.69 532.534 133.063 532.637C133.436 532.73 133.744 532.87 133.987 533.057V534.163C133.688 533.967 133.352 533.822 132.979 533.729C132.615 533.626 132.237 533.575 131.845 533.575C130.996 533.575 130.37 533.794 129.969 534.233C129.577 534.672 129.381 535.344 129.381 536.249C129.381 537.154 129.572 537.826 129.955 538.265C130.338 538.704 130.944 538.923 131.775 538.923C132.214 538.923 132.615 538.872 132.979 538.769C133.352 538.657 133.688 538.517 133.987 538.349V539.455C133.726 539.614 133.408 539.749 133.035 539.861C132.671 539.973 132.251 540.029 131.775 540.029ZM138.565 533.673V539.889H137.333V533.673H135.051V532.623H140.889V533.673H138.565ZM146.362 538.503C146.278 538.671 146.17 538.848 146.04 539.035C145.909 539.212 145.746 539.376 145.55 539.525C145.354 539.674 145.12 539.796 144.85 539.889C144.588 539.982 144.28 540.029 143.926 540.029C143.272 540.029 142.745 539.847 142.344 539.483C141.942 539.11 141.742 538.578 141.742 537.887C141.742 537.094 142.017 536.51 142.568 536.137C143.128 535.764 143.921 535.577 144.948 535.577H146.306V534.975C146.306 534.471 146.175 534.112 145.914 533.897C145.652 533.682 145.204 533.575 144.57 533.575C144.122 533.575 143.697 533.65 143.296 533.799C142.894 533.939 142.535 534.102 142.218 534.289V533.183C142.479 533.024 142.829 532.87 143.268 532.721C143.716 532.562 144.206 532.483 144.738 532.483C145.652 532.483 146.348 532.674 146.824 533.057C147.3 533.43 147.538 534.014 147.538 534.807V538.713C147.538 538.797 147.538 538.895 147.538 539.007C147.547 539.11 147.552 539.217 147.552 539.329C147.561 539.441 147.57 539.548 147.58 539.651C147.589 539.744 147.598 539.824 147.608 539.889H146.488C146.46 539.758 146.432 539.576 146.404 539.343C146.385 539.1 146.376 538.89 146.376 538.713L146.362 538.503ZM144.192 538.923C144.574 538.923 144.901 538.844 145.172 538.685C145.442 538.526 145.662 538.344 145.83 538.139C145.998 537.924 146.119 537.719 146.194 537.523C146.268 537.318 146.306 537.173 146.306 537.089V536.557H145.074C144.336 536.557 143.8 536.664 143.464 536.879C143.137 537.084 142.974 537.397 142.974 537.817C142.974 538.144 143.072 538.41 143.268 538.615C143.464 538.82 143.772 538.923 144.192 538.923ZM154.221 536.669H150.707V539.889H149.475V532.623H150.707V535.619H154.221V532.623H155.453V539.889H154.221V536.669ZM160.455 540.029C159.96 540.029 159.498 539.945 159.069 539.777C158.64 539.609 158.266 539.366 157.949 539.049C157.641 538.722 157.398 538.326 157.221 537.859C157.044 537.392 156.955 536.856 156.955 536.249C156.955 535.652 157.044 535.12 157.221 534.653C157.398 534.177 157.641 533.78 157.949 533.463C158.266 533.146 158.64 532.903 159.069 532.735C159.498 532.567 159.96 532.483 160.455 532.483C160.959 532.483 161.426 532.567 161.855 532.735C162.284 532.903 162.653 533.146 162.961 533.463C163.278 533.78 163.526 534.177 163.703 534.653C163.89 535.12 163.983 535.652 163.983 536.249C163.983 536.856 163.89 537.392 163.703 537.859C163.526 538.326 163.278 538.722 162.961 539.049C162.653 539.366 162.284 539.609 161.855 539.777C161.426 539.945 160.959 540.029 160.455 540.029ZM160.455 538.923C160.782 538.923 161.08 538.872 161.351 538.769C161.631 538.657 161.874 538.494 162.079 538.279C162.284 538.055 162.443 537.775 162.555 537.439C162.667 537.103 162.723 536.706 162.723 536.249C162.723 535.792 162.667 535.395 162.555 535.059C162.443 534.723 162.284 534.448 162.079 534.233C161.874 534.009 161.631 533.846 161.351 533.743C161.08 533.631 160.782 533.575 160.455 533.575C160.128 533.575 159.83 533.631 159.559 533.743C159.288 533.846 159.05 534.009 158.845 534.233C158.649 534.448 158.495 534.723 158.383 535.059C158.271 535.395 158.215 535.792 158.215 536.249C158.215 536.706 158.271 537.103 158.383 537.439C158.495 537.775 158.649 538.055 158.845 538.279C159.05 538.494 159.288 538.657 159.559 538.769C159.83 538.872 160.128 538.923 160.455 538.923ZM165.485 532.623H168.201C169.078 532.623 169.741 532.777 170.189 533.085C170.637 533.384 170.861 533.855 170.861 534.499C170.861 534.928 170.749 535.274 170.525 535.535C170.31 535.787 170.002 535.969 169.601 536.081C170.637 536.249 171.155 536.823 171.155 537.803C171.155 538.176 171.08 538.498 170.931 538.769C170.781 539.03 170.576 539.245 170.315 539.413C170.053 539.581 169.736 539.702 169.363 539.777C168.999 539.852 168.602 539.889 168.173 539.889H165.485V532.623ZM166.717 533.673V535.647H168.089C168.555 535.647 168.929 535.563 169.209 535.395C169.498 535.227 169.643 534.984 169.643 534.667C169.643 534.284 169.517 534.023 169.265 533.883C169.013 533.743 168.653 533.673 168.187 533.673H166.717ZM166.717 536.627V538.839H168.159C168.42 538.839 168.653 538.825 168.859 538.797C169.073 538.76 169.255 538.699 169.405 538.615C169.563 538.531 169.685 538.419 169.769 538.279C169.853 538.139 169.895 537.966 169.895 537.761C169.895 537.341 169.75 537.047 169.461 536.879C169.171 536.711 168.737 536.627 168.159 536.627H166.717ZM173.496 537.635C173.626 537.159 173.71 536.515 173.748 535.703C173.785 534.891 173.804 533.864 173.804 532.623H178.69V539.889H177.444V533.673H174.966C174.956 534.672 174.924 535.558 174.868 536.333C174.821 537.108 174.714 537.761 174.546 538.293C174.387 538.825 174.149 539.231 173.832 539.511C173.524 539.782 173.108 539.917 172.586 539.917C172.548 539.917 172.511 539.917 172.474 539.917C172.436 539.917 172.394 539.912 172.348 539.903V538.685C172.394 538.694 172.455 538.699 172.53 538.699C173.006 538.699 173.328 538.344 173.496 537.635ZM186.47 539.273C186.367 539.348 186.241 539.427 186.092 539.511C185.942 539.595 185.76 539.679 185.546 539.763C185.331 539.838 185.088 539.898 184.818 539.945C184.547 540.001 184.244 540.029 183.908 540.029C182.685 540.029 181.756 539.698 181.122 539.035C180.487 538.372 180.17 537.444 180.17 536.249C180.17 535.661 180.254 535.134 180.422 534.667C180.599 534.2 180.842 533.808 181.15 533.491C181.458 533.164 181.822 532.917 182.242 532.749C182.662 532.572 183.119 532.483 183.614 532.483C184.136 532.483 184.603 532.572 185.014 532.749C185.424 532.926 185.76 533.188 186.022 533.533C186.292 533.878 186.474 534.308 186.568 534.821C186.67 535.325 186.67 535.913 186.568 536.585H181.444C181.49 537.369 181.724 537.957 182.144 538.349C182.564 538.732 183.189 538.923 184.02 538.923C184.58 538.923 185.06 538.844 185.462 538.685C185.863 538.526 186.199 538.354 186.47 538.167V539.273ZM183.586 533.575C183.054 533.575 182.596 533.738 182.214 534.065C181.831 534.392 181.588 534.886 181.486 535.549H185.392C185.429 534.877 185.275 534.382 184.93 534.065C184.584 533.738 184.136 533.575 183.586 533.575ZM192.967 536.669H189.453V539.889H188.221V532.623H189.453V535.619H192.967V532.623H194.199V539.889H192.967V536.669Z" fill="#18123D"/>
<path d="M231 115L241 109.227L241 120.774L231 115ZM429 115L429 116L429 115ZM434 135L433 135C433 127.689 433 122.986 433 119.993L434 119.993L435 119.993C435 122.986 435 127.689 435 135L434 135ZM429 115L429 116L240 116L240 115L240 114L429 114L429 115ZM434 119.993L433 119.993C433 117.786 431.211 116 429 116L429 115L429 114C432.312 114 435 116.677 435 119.993L434 119.993Z" fill="#4E496B"/>
<path d="M413 283C420.88 283 425.874 283 429.003 283C431.765 283 434 280.761 434 278L434 135" stroke="#4E496B" stroke-width="2"/>
<path d="M231 535C368.987 535 415.422 535 429.016 535C431.777 535 434 532.761 434 530L434 135" stroke="#4E496B" stroke-width="2"/>
<path d="M338 261L332.226 251L343.774 251L338 261ZM338 252L337 252C337 249.477 337 247.514 337 245.993L338 245.993L339 245.993C339 247.514 339 249.477 339 252L338 252ZM333 241L333 242L182 242L182 241L182 240L333 240L333 241ZM338 245.993L337 245.993C337 243.786 335.211 242 333 242L333 241L333 240C336.312 240 339 242.677 339 245.993L338 245.993Z" fill="#4E496B"/>
<path d="M156 221C156 228.311 156 233.014 156 236.007C156 238.768 158.239 241 161 241L295 241" stroke="#4E496B" stroke-width="2"/>
<path d="M156 177L150.226 167L161.774 167L156 177ZM156 168L155 168L155 137L156 137L157 137L157 168L156 168Z" fill="#4E496B"/>
<path d="M156 93L161.774 83L150.226 83L156 93ZM156 84L157 84L157 53L156 53L155 53L155 84L156 84Z" fill="#4E496B"/>
<path d="M263 283L253 277.226L253 288.774L263 283ZM254 283L254 282L231 282L231 283L231 284L254 284L254 283Z" fill="#4E496B"/>
<path d="M81 199C75.9088 199 72.3989 199 69.9956 199C67.2341 199 65 201.239 65 204L65 309" stroke="#4E496B" stroke-width="2"/>
<path d="M81 367L71 361.226L71 372.774L81 367ZM65 362L66 362L65 362ZM72.0003 367L72.0003 366C71.2588 366 70.593 366 69.9956 366L69.9956 367L69.9956 368C70.593 368 71.2588 368 72.0003 368L72.0003 367ZM65 362L66 362L66 309L65 309L64 309L64 362L65 362ZM69.9956 367L69.9956 366C67.7876 366 66 364.21 66 362L65 362L64 362C64 365.313 66.6807 368 69.9956 368L69.9956 367Z" fill="#4E496B"/>
<rect x="81" y="597" width="150" height="44" rx="5" fill="#DDF2E1"/>
<path d="M125.55 619.297V618.177H126.964C127.664 618.177 128.196 618.028 128.56 617.729C128.924 617.421 129.106 617.001 129.106 616.469C129.106 615.9 128.915 615.498 128.532 615.265C128.149 615.022 127.645 614.901 127.02 614.901C126.376 614.901 125.797 614.971 125.284 615.111C124.771 615.251 124.318 615.424 123.926 615.629V614.383C124.234 614.224 124.635 614.075 125.13 613.935C125.634 613.795 126.269 613.725 127.034 613.725C128.079 613.725 128.91 613.944 129.526 614.383C130.142 614.812 130.45 615.48 130.45 616.385C130.45 616.973 130.273 617.458 129.918 617.841C129.573 618.224 129.064 618.494 128.392 618.653C129.185 618.756 129.783 618.998 130.184 619.381C130.595 619.754 130.8 620.291 130.8 620.991C130.8 621.523 130.697 621.985 130.492 622.377C130.287 622.76 130.007 623.072 129.652 623.315C129.307 623.558 128.896 623.74 128.42 623.861C127.944 623.973 127.44 624.029 126.908 624.029C126.152 624.029 125.503 623.94 124.962 623.763C124.421 623.576 124.024 623.376 123.772 623.161V621.901C124.64 622.526 125.671 622.839 126.866 622.839C127.211 622.839 127.538 622.811 127.846 622.755C128.154 622.69 128.425 622.587 128.658 622.447C128.891 622.307 129.073 622.12 129.204 621.887C129.344 621.654 129.414 621.364 129.414 621.019C129.414 620.384 129.209 619.941 128.798 619.689C128.397 619.428 127.795 619.297 126.992 619.297H125.55ZM136.785 622.503C136.701 622.671 136.593 622.848 136.463 623.035C136.332 623.212 136.169 623.376 135.973 623.525C135.777 623.674 135.543 623.796 135.273 623.889C135.011 623.982 134.703 624.029 134.349 624.029C133.695 624.029 133.168 623.847 132.767 623.483C132.365 623.11 132.165 622.578 132.165 621.887C132.165 621.094 132.44 620.51 132.991 620.137C133.551 619.764 134.344 619.577 135.371 619.577H136.729V618.975C136.729 618.471 136.598 618.112 136.337 617.897C136.075 617.682 135.627 617.575 134.993 617.575C134.545 617.575 134.12 617.65 133.719 617.799C133.317 617.939 132.958 618.102 132.641 618.289V617.183C132.902 617.024 133.252 616.87 133.691 616.721C134.139 616.562 134.629 616.483 135.161 616.483C136.075 616.483 136.771 616.674 137.247 617.057C137.723 617.43 137.961 618.014 137.961 618.807V622.713C137.961 622.797 137.961 622.895 137.961 623.007C137.97 623.11 137.975 623.217 137.975 623.329C137.984 623.441 137.993 623.548 138.003 623.651C138.012 623.744 138.021 623.824 138.031 623.889H136.911C136.883 623.758 136.855 623.576 136.827 623.343C136.808 623.1 136.799 622.89 136.799 622.713L136.785 622.503ZM134.615 622.923C134.997 622.923 135.324 622.844 135.595 622.685C135.865 622.526 136.085 622.344 136.253 622.139C136.421 621.924 136.542 621.719 136.617 621.523C136.691 621.318 136.729 621.173 136.729 621.089V620.557H135.497C134.759 620.557 134.223 620.664 133.887 620.879C133.56 621.084 133.397 621.397 133.397 621.817C133.397 622.144 133.495 622.41 133.691 622.615C133.887 622.82 134.195 622.923 134.615 622.923ZM139.898 616.623H142.614C143.491 616.623 144.154 616.777 144.602 617.085C145.05 617.384 145.274 617.855 145.274 618.499C145.274 618.928 145.162 619.274 144.938 619.535C144.723 619.787 144.415 619.969 144.014 620.081C145.05 620.249 145.568 620.823 145.568 621.803C145.568 622.176 145.493 622.498 145.344 622.769C145.194 623.03 144.989 623.245 144.728 623.413C144.466 623.581 144.149 623.702 143.776 623.777C143.412 623.852 143.015 623.889 142.586 623.889H139.898V616.623ZM141.13 617.673V619.647H142.502C142.968 619.647 143.342 619.563 143.622 619.395C143.911 619.227 144.056 618.984 144.056 618.667C144.056 618.284 143.93 618.023 143.678 617.883C143.426 617.743 143.066 617.673 142.6 617.673H141.13ZM141.13 620.627V622.839H142.572C142.833 622.839 143.066 622.825 143.272 622.797C143.486 622.76 143.668 622.699 143.818 622.615C143.976 622.531 144.098 622.419 144.182 622.279C144.266 622.139 144.308 621.966 144.308 621.761C144.308 621.341 144.163 621.047 143.874 620.879C143.584 620.711 143.15 620.627 142.572 620.627H141.13ZM153.199 623.273C153.097 623.348 152.971 623.427 152.821 623.511C152.672 623.595 152.49 623.679 152.275 623.763C152.061 623.838 151.818 623.898 151.547 623.945C151.277 624.001 150.973 624.029 150.637 624.029C149.415 624.029 148.486 623.698 147.851 623.035C147.217 622.372 146.899 621.444 146.899 620.249C146.899 619.661 146.983 619.134 147.151 618.667C147.329 618.2 147.571 617.808 147.879 617.491C148.187 617.164 148.551 616.917 148.971 616.749C149.391 616.572 149.849 616.483 150.343 616.483C150.866 616.483 151.333 616.572 151.743 616.749C152.154 616.926 152.49 617.188 152.751 617.533C153.022 617.878 153.204 618.308 153.297 618.821C153.4 619.325 153.4 619.913 153.297 620.585H148.173C148.22 621.369 148.453 621.957 148.873 622.349C149.293 622.732 149.919 622.923 150.749 622.923C151.309 622.923 151.79 622.844 152.191 622.685C152.593 622.526 152.929 622.354 153.199 622.167V623.273ZM150.315 617.575C149.783 617.575 149.326 617.738 148.943 618.065C148.561 618.392 148.318 618.886 148.215 619.549H152.121C152.159 618.877 152.005 618.382 151.659 618.065C151.314 617.738 150.866 617.575 150.315 617.575ZM158.604 624.029C158.044 624.029 157.559 623.898 157.148 623.637C156.747 623.376 156.425 623.016 156.182 622.559V626.367H154.95V616.623H156.028L156.154 618.037C156.397 617.561 156.724 617.183 157.134 616.903C157.545 616.623 158.054 616.483 158.66 616.483C159.08 616.483 159.482 616.562 159.864 616.721C160.256 616.87 160.597 617.104 160.886 617.421C161.185 617.729 161.418 618.121 161.586 618.597C161.764 619.064 161.852 619.614 161.852 620.249C161.852 620.893 161.764 621.453 161.586 621.929C161.409 622.396 161.171 622.788 160.872 623.105C160.574 623.413 160.228 623.646 159.836 623.805C159.444 623.954 159.034 624.029 158.604 624.029ZM158.422 622.923C159.066 622.923 159.584 622.704 159.976 622.265C160.378 621.817 160.578 621.145 160.578 620.249C160.578 619.372 160.378 618.709 159.976 618.261C159.584 617.804 159.066 617.575 158.422 617.575C158.105 617.575 157.806 617.631 157.526 617.743C157.256 617.855 157.018 618.023 156.812 618.247C156.616 618.462 156.458 618.737 156.336 619.073C156.224 619.409 156.168 619.801 156.168 620.249C156.168 620.697 156.224 621.089 156.336 621.425C156.458 621.761 156.616 622.041 156.812 622.265C157.018 622.489 157.256 622.657 157.526 622.769C157.806 622.872 158.105 622.923 158.422 622.923ZM172.417 623.889H163.345V616.623H164.577V622.839H167.265V616.623H168.497V622.839H171.185V616.623H172.417V623.889ZM180.215 623.273C180.112 623.348 179.986 623.427 179.837 623.511C179.687 623.595 179.505 623.679 179.291 623.763C179.076 623.838 178.833 623.898 178.563 623.945C178.292 624.001 177.989 624.029 177.653 624.029C176.43 624.029 175.501 623.698 174.867 623.035C174.232 622.372 173.915 621.444 173.915 620.249C173.915 619.661 173.999 619.134 174.167 618.667C174.344 618.2 174.587 617.808 174.895 617.491C175.203 617.164 175.567 616.917 175.987 616.749C176.407 616.572 176.864 616.483 177.359 616.483C177.881 616.483 178.348 616.572 178.759 616.749C179.169 616.926 179.505 617.188 179.767 617.533C180.037 617.878 180.219 618.308 180.313 618.821C180.415 619.325 180.415 619.913 180.313 620.585H175.189C175.235 621.369 175.469 621.957 175.889 622.349C176.309 622.732 176.934 622.923 177.765 622.923C178.325 622.923 178.805 622.844 179.207 622.685C179.608 622.526 179.944 622.354 180.215 622.167V623.273ZM177.331 617.575C176.799 617.575 176.341 617.738 175.959 618.065C175.576 618.392 175.333 618.886 175.231 619.549H179.137C179.174 618.877 179.02 618.382 178.675 618.065C178.329 617.738 177.881 617.575 177.331 617.575ZM186.712 620.669H183.198V623.889H181.966V616.623H183.198V619.619H186.712V616.623H187.944V623.889H186.712V620.669Z" fill="#18123D"/>
</svg>
