<svg width="700" height="602" viewBox="0 0 700 602" fill="none" xmlns="http://www.w3.org/2000/svg">
<rect x="276" y="364" width="148" height="42" rx="4" fill="white" stroke="#67B0F8" stroke-width="2"/>
<path d="M304.564 388.699H305.852V392.269H304.634L304.494 389.889H297.283L297.129 392.269H295.939V388.699H296.625C296.943 388.41 297.195 388.022 297.381 387.537C297.577 387.042 297.727 386.436 297.829 385.717C297.932 384.998 298.007 384.154 298.053 383.183C298.1 382.212 298.137 381.102 298.165 379.851H304.564V388.699ZM303.234 388.699V381.055H299.398C299.369 382.119 299.327 383.062 299.272 383.883C299.225 384.695 299.15 385.409 299.048 386.025C298.954 386.641 298.833 387.168 298.683 387.607C298.543 388.036 298.366 388.4 298.151 388.699H303.234ZM313.129 389.273C313.026 389.348 312.9 389.427 312.751 389.511C312.602 389.595 312.42 389.679 312.205 389.763C311.99 389.838 311.748 389.898 311.477 389.945C311.206 390.001 310.903 390.029 310.567 390.029C309.344 390.029 308.416 389.698 307.781 389.035C307.146 388.372 306.829 387.444 306.829 386.249C306.829 385.661 306.913 385.134 307.081 384.667C307.258 384.2 307.501 383.808 307.809 383.491C308.117 383.164 308.481 382.917 308.901 382.749C309.321 382.572 309.778 382.483 310.273 382.483C310.796 382.483 311.262 382.572 311.673 382.749C312.084 382.926 312.42 383.188 312.681 383.533C312.952 383.878 313.134 384.308 313.227 384.821C313.33 385.325 313.33 385.913 313.227 386.585H308.103C308.15 387.369 308.383 387.957 308.803 388.349C309.223 388.732 309.848 388.923 310.679 388.923C311.239 388.923 311.72 388.844 312.121 388.685C312.522 388.526 312.858 388.354 313.129 388.167V389.273ZM310.245 383.575C309.713 383.575 309.256 383.738 308.873 384.065C308.49 384.392 308.248 384.886 308.145 385.549H312.051C312.088 384.877 311.934 384.382 311.589 384.065C311.244 383.738 310.796 383.575 310.245 383.575ZM319.136 388.503C319.052 388.671 318.945 388.848 318.814 389.035C318.683 389.212 318.52 389.376 318.324 389.525C318.128 389.674 317.895 389.796 317.624 389.889C317.363 389.982 317.055 390.029 316.7 390.029C316.047 390.029 315.519 389.847 315.118 389.483C314.717 389.11 314.516 388.578 314.516 387.887C314.516 387.094 314.791 386.51 315.342 386.137C315.902 385.764 316.695 385.577 317.722 385.577H319.08V384.975C319.08 384.471 318.949 384.112 318.688 383.897C318.427 383.682 317.979 383.575 317.344 383.575C316.896 383.575 316.471 383.65 316.07 383.799C315.669 383.939 315.309 384.102 314.992 384.289V383.183C315.253 383.024 315.603 382.87 316.042 382.721C316.49 382.562 316.98 382.483 317.512 382.483C318.427 382.483 319.122 382.674 319.598 383.057C320.074 383.43 320.312 384.014 320.312 384.807V388.713C320.312 388.797 320.312 388.895 320.312 389.007C320.321 389.11 320.326 389.217 320.326 389.329C320.335 389.441 320.345 389.548 320.354 389.651C320.363 389.744 320.373 389.824 320.382 389.889H319.262C319.234 389.758 319.206 389.576 319.178 389.343C319.159 389.1 319.15 388.89 319.15 388.713L319.136 388.503ZM316.966 388.923C317.349 388.923 317.675 388.844 317.946 388.685C318.217 388.526 318.436 388.344 318.604 388.139C318.772 387.924 318.893 387.719 318.968 387.523C319.043 387.318 319.08 387.173 319.08 387.089V386.557H317.848C317.111 386.557 316.574 386.664 316.238 386.879C315.911 387.084 315.748 387.397 315.748 387.817C315.748 388.144 315.846 388.41 316.042 388.615C316.238 388.82 316.546 388.923 316.966 388.923ZM324.125 386.795H323.481V389.889H322.249V382.623H323.481V385.745H324.181L326.729 382.623H328.129L325.147 386.207L328.185 389.889H326.687L324.125 386.795ZM332.408 383.673V389.889H331.176V383.673H328.894V382.623H334.732V383.673H332.408ZM337.386 388.209L341.264 382.623H342.51V389.889H341.278V384.317L337.414 389.889H336.154V382.623H337.386V388.209ZM344.521 382.623H347.237C348.114 382.623 348.777 382.777 349.225 383.085C349.673 383.384 349.897 383.855 349.897 384.499C349.897 384.928 349.785 385.274 349.561 385.535C349.346 385.787 349.038 385.969 348.637 386.081C349.673 386.249 350.191 386.823 350.191 387.803C350.191 388.176 350.116 388.498 349.967 388.769C349.817 389.03 349.612 389.245 349.351 389.413C349.089 389.581 348.772 389.702 348.399 389.777C348.035 389.852 347.638 389.889 347.209 389.889H344.521V382.623ZM345.753 383.673V385.647H347.125C347.591 385.647 347.965 385.563 348.245 385.395C348.534 385.227 348.679 384.984 348.679 384.667C348.679 384.284 348.553 384.023 348.301 383.883C348.049 383.743 347.689 383.673 347.223 383.673H345.753ZM345.753 386.627V388.839H347.195C347.456 388.839 347.689 388.825 347.895 388.797C348.109 388.76 348.291 388.699 348.441 388.615C348.599 388.531 348.721 388.419 348.805 388.279C348.889 388.139 348.931 387.966 348.931 387.761C348.931 387.341 348.786 387.047 348.497 386.879C348.207 386.711 347.773 386.627 347.195 386.627H345.753ZM353.272 388.209L357.15 382.623H358.396V389.889H357.164V384.317L353.3 389.889H352.04V382.623H353.272V388.209ZM364.061 390.029C363.501 390.029 363.016 389.898 362.605 389.637C362.204 389.376 361.882 389.016 361.639 388.559V392.367H360.407V382.623H361.485L361.611 384.037C361.854 383.561 362.181 383.183 362.591 382.903C363.002 382.623 363.511 382.483 364.117 382.483C364.537 382.483 364.939 382.562 365.321 382.721C365.713 382.87 366.054 383.104 366.343 383.421C366.642 383.729 366.875 384.121 367.043 384.597C367.221 385.064 367.309 385.614 367.309 386.249C367.309 386.893 367.221 387.453 367.043 387.929C366.866 388.396 366.628 388.788 366.329 389.105C366.031 389.413 365.685 389.646 365.293 389.805C364.901 389.954 364.491 390.029 364.061 390.029ZM363.879 388.923C364.523 388.923 365.041 388.704 365.433 388.265C365.835 387.817 366.035 387.145 366.035 386.249C366.035 385.372 365.835 384.709 365.433 384.261C365.041 383.804 364.523 383.575 363.879 383.575C363.562 383.575 363.263 383.631 362.983 383.743C362.713 383.855 362.475 384.023 362.269 384.247C362.073 384.462 361.915 384.737 361.793 385.073C361.681 385.409 361.625 385.801 361.625 386.249C361.625 386.697 361.681 387.089 361.793 387.425C361.915 387.761 362.073 388.041 362.269 388.265C362.475 388.489 362.713 388.657 362.983 388.769C363.263 388.872 363.562 388.923 363.879 388.923ZM371.784 390.029C371.289 390.029 370.827 389.945 370.398 389.777C369.969 389.609 369.595 389.366 369.278 389.049C368.97 388.722 368.727 388.326 368.55 387.859C368.373 387.392 368.284 386.856 368.284 386.249C368.284 385.652 368.373 385.12 368.55 384.653C368.727 384.177 368.97 383.78 369.278 383.463C369.595 383.146 369.969 382.903 370.398 382.735C370.827 382.567 371.289 382.483 371.784 382.483C372.288 382.483 372.755 382.567 373.184 382.735C373.613 382.903 373.982 383.146 374.29 383.463C374.607 383.78 374.855 384.177 375.032 384.653C375.219 385.12 375.312 385.652 375.312 386.249C375.312 386.856 375.219 387.392 375.032 387.859C374.855 388.326 374.607 388.722 374.29 389.049C373.982 389.366 373.613 389.609 373.184 389.777C372.755 389.945 372.288 390.029 371.784 390.029ZM371.784 388.923C372.111 388.923 372.409 388.872 372.68 388.769C372.96 388.657 373.203 388.494 373.408 388.279C373.613 388.055 373.772 387.775 373.884 387.439C373.996 387.103 374.052 386.706 374.052 386.249C374.052 385.792 373.996 385.395 373.884 385.059C373.772 384.723 373.613 384.448 373.408 384.233C373.203 384.009 372.96 383.846 372.68 383.743C372.409 383.631 372.111 383.575 371.784 383.575C371.457 383.575 371.159 383.631 370.888 383.743C370.617 383.846 370.379 384.009 370.174 384.233C369.978 384.448 369.824 384.723 369.712 385.059C369.6 385.395 369.544 385.792 369.544 386.249C369.544 386.706 369.6 387.103 369.712 387.439C369.824 387.775 369.978 388.055 370.174 388.279C370.379 388.494 370.617 388.657 370.888 388.769C371.159 388.872 371.457 388.923 371.784 388.923ZM376.814 382.623H379.53C380.407 382.623 381.07 382.777 381.518 383.085C381.966 383.384 382.19 383.855 382.19 384.499C382.19 384.928 382.078 385.274 381.854 385.535C381.639 385.787 381.331 385.969 380.93 386.081C381.966 386.249 382.484 386.823 382.484 387.803C382.484 388.176 382.409 388.498 382.26 388.769C382.11 389.03 381.905 389.245 381.644 389.413C381.382 389.581 381.065 389.702 380.692 389.777C380.328 389.852 379.931 389.889 379.502 389.889H376.814V382.623ZM378.046 383.673V385.647H379.418C379.884 385.647 380.258 385.563 380.538 385.395C380.827 385.227 380.972 384.984 380.972 384.667C380.972 384.284 380.846 384.023 380.594 383.883C380.342 383.743 379.982 383.673 379.516 383.673H378.046ZM378.046 386.627V388.839H379.488C379.749 388.839 379.982 388.825 380.188 388.797C380.402 388.76 380.584 388.699 380.734 388.615C380.892 388.531 381.014 388.419 381.098 388.279C381.182 388.139 381.224 387.966 381.224 387.761C381.224 387.341 381.079 387.047 380.79 386.879C380.5 386.711 380.066 386.627 379.488 386.627H378.046ZM388.589 388.503C388.505 388.671 388.398 388.848 388.267 389.035C388.137 389.212 387.973 389.376 387.777 389.525C387.581 389.674 387.348 389.796 387.077 389.889C386.816 389.982 386.508 390.029 386.153 390.029C385.5 390.029 384.973 389.847 384.571 389.483C384.17 389.11 383.969 388.578 383.969 387.887C383.969 387.094 384.245 386.51 384.795 386.137C385.355 385.764 386.149 385.577 387.175 385.577H388.533V384.975C388.533 384.471 388.403 384.112 388.141 383.897C387.88 383.682 387.432 383.575 386.797 383.575C386.349 383.575 385.925 383.65 385.523 383.799C385.122 383.939 384.763 384.102 384.445 384.289V383.183C384.707 383.024 385.057 382.87 385.495 382.721C385.943 382.562 386.433 382.483 386.965 382.483C387.88 382.483 388.575 382.674 389.051 383.057C389.527 383.43 389.765 384.014 389.765 384.807V388.713C389.765 388.797 389.765 388.895 389.765 389.007C389.775 389.11 389.779 389.217 389.779 389.329C389.789 389.441 389.798 389.548 389.807 389.651C389.817 389.744 389.826 389.824 389.835 389.889H388.715C388.687 389.758 388.659 389.576 388.631 389.343C388.613 389.1 388.603 388.89 388.603 388.713L388.589 388.503ZM386.419 388.923C386.802 388.923 387.129 388.844 387.399 388.685C387.67 388.526 387.889 388.344 388.057 388.139C388.225 387.924 388.347 387.719 388.421 387.523C388.496 387.318 388.533 387.173 388.533 387.089V386.557H387.301C386.564 386.557 386.027 386.664 385.691 386.879C385.365 387.084 385.201 387.397 385.201 387.817C385.201 388.144 385.299 388.41 385.495 388.615C385.691 388.82 385.999 388.923 386.419 388.923ZM394.56 383.673V389.889H393.328V383.673H391.046V382.623H396.884V383.673H394.56ZM403.71 387.467C403.71 387.887 403.635 388.251 403.486 388.559C403.337 388.867 403.127 389.119 402.856 389.315C402.585 389.511 402.263 389.656 401.89 389.749C401.517 389.842 401.111 389.889 400.672 389.889H398.264V382.623H399.496V385.157H400.756C401.68 385.157 402.403 385.339 402.926 385.703C403.449 386.067 403.71 386.655 403.71 387.467ZM399.496 386.207V388.839H400.672C401.204 388.839 401.633 388.741 401.96 388.545C402.296 388.34 402.464 388.004 402.464 387.537C402.464 387.061 402.315 386.72 402.016 386.515C401.717 386.31 401.297 386.207 400.756 386.207H399.496Z" fill="#18123D"/>
<rect x="94" y="279" width="148" height="42" rx="4" fill="white" stroke="#67B0F8" stroke-width="2"/>
<path d="M119.882 294.851H127.428V304.889H126.098V296.055H121.198V304.889H119.882V294.851ZM135.381 304.273C135.278 304.348 135.152 304.427 135.003 304.511C134.853 304.595 134.671 304.679 134.457 304.763C134.242 304.838 133.999 304.898 133.729 304.945C133.458 305.001 133.155 305.029 132.819 305.029C131.596 305.029 130.667 304.698 130.033 304.035C129.398 303.372 129.081 302.444 129.081 301.249C129.081 300.661 129.165 300.134 129.333 299.667C129.51 299.2 129.753 298.808 130.061 298.491C130.369 298.164 130.733 297.917 131.153 297.749C131.573 297.572 132.03 297.483 132.525 297.483C133.047 297.483 133.514 297.572 133.925 297.749C134.335 297.926 134.671 298.188 134.933 298.533C135.203 298.878 135.385 299.308 135.479 299.821C135.581 300.325 135.581 300.913 135.479 301.585H130.355C130.401 302.369 130.635 302.957 131.055 303.349C131.475 303.732 132.1 303.923 132.931 303.923C133.491 303.923 133.971 303.844 134.373 303.685C134.774 303.526 135.11 303.354 135.381 303.167V304.273ZM132.497 298.575C131.965 298.575 131.507 298.738 131.125 299.065C130.742 299.392 130.499 299.886 130.397 300.549H134.303C134.34 299.877 134.186 299.382 133.841 299.065C133.495 298.738 133.047 298.575 132.497 298.575ZM140.786 305.029C140.226 305.029 139.741 304.898 139.33 304.637C138.929 304.376 138.607 304.016 138.364 303.559V307.367H137.132V297.623H138.21L138.336 299.037C138.579 298.561 138.905 298.183 139.316 297.903C139.727 297.623 140.235 297.483 140.842 297.483C141.262 297.483 141.663 297.562 142.046 297.721C142.438 297.87 142.779 298.104 143.068 298.421C143.367 298.729 143.6 299.121 143.768 299.597C143.945 300.064 144.034 300.614 144.034 301.249C144.034 301.893 143.945 302.453 143.768 302.929C143.591 303.396 143.353 303.788 143.054 304.105C142.755 304.413 142.41 304.646 142.018 304.805C141.626 304.954 141.215 305.029 140.786 305.029ZM140.604 303.923C141.248 303.923 141.766 303.704 142.158 303.265C142.559 302.817 142.76 302.145 142.76 301.249C142.76 300.372 142.559 299.709 142.158 299.261C141.766 298.804 141.248 298.575 140.604 298.575C140.287 298.575 139.988 298.631 139.708 298.743C139.437 298.855 139.199 299.023 138.994 299.247C138.798 299.462 138.639 299.737 138.518 300.073C138.406 300.409 138.35 300.801 138.35 301.249C138.35 301.697 138.406 302.089 138.518 302.425C138.639 302.761 138.798 303.041 138.994 303.265C139.199 303.489 139.437 303.657 139.708 303.769C139.988 303.872 140.287 303.923 140.604 303.923ZM151.309 304.273C151.206 304.348 151.08 304.427 150.931 304.511C150.781 304.595 150.599 304.679 150.385 304.763C150.17 304.838 149.927 304.898 149.657 304.945C149.386 305.001 149.083 305.029 148.747 305.029C147.524 305.029 146.595 304.698 145.961 304.035C145.326 303.372 145.009 302.444 145.009 301.249C145.009 300.661 145.093 300.134 145.261 299.667C145.438 299.2 145.681 298.808 145.989 298.491C146.297 298.164 146.661 297.917 147.081 297.749C147.501 297.572 147.958 297.483 148.453 297.483C148.975 297.483 149.442 297.572 149.853 297.749C150.263 297.926 150.599 298.188 150.861 298.533C151.131 298.878 151.313 299.308 151.407 299.821C151.509 300.325 151.509 300.913 151.407 301.585H146.283C146.329 302.369 146.563 302.957 146.983 303.349C147.403 303.732 148.028 303.923 148.859 303.923C149.419 303.923 149.899 303.844 150.301 303.685C150.702 303.526 151.038 303.354 151.309 303.167V304.273ZM148.425 298.575C147.893 298.575 147.435 298.738 147.053 299.065C146.67 299.392 146.427 299.886 146.325 300.549H150.231C150.268 299.877 150.114 299.382 149.769 299.065C149.423 298.738 148.975 298.575 148.425 298.575ZM158.212 302.775C158.212 303.186 158.128 303.536 157.96 303.825C157.801 304.105 157.582 304.338 157.302 304.525C157.022 304.702 156.695 304.828 156.322 304.903C155.958 304.987 155.575 305.029 155.174 305.029C154.642 305.029 154.17 304.973 153.76 304.861C153.358 304.749 153.041 304.614 152.808 304.455V303.349C153.097 303.526 153.442 303.666 153.844 303.769C154.245 303.872 154.679 303.923 155.146 303.923C155.678 303.923 156.121 303.839 156.476 303.671C156.84 303.494 157.022 303.195 157.022 302.775C157.022 302.364 156.868 302.075 156.56 301.907C156.261 301.739 155.799 301.655 155.174 301.655H154.208V300.661H155.216C155.729 300.661 156.121 300.568 156.392 300.381C156.662 300.194 156.798 299.924 156.798 299.569C156.798 299.382 156.751 299.228 156.658 299.107C156.574 298.976 156.457 298.874 156.308 298.799C156.158 298.715 155.981 298.659 155.776 298.631C155.58 298.594 155.37 298.575 155.146 298.575C154.716 298.575 154.315 298.626 153.942 298.729C153.578 298.832 153.246 298.976 152.948 299.163V298.057C153.19 297.898 153.503 297.763 153.886 297.651C154.278 297.539 154.73 297.483 155.244 297.483C156.13 297.483 156.798 297.651 157.246 297.987C157.703 298.323 157.932 298.808 157.932 299.443C157.932 299.919 157.801 300.292 157.54 300.563C157.288 300.834 156.928 301.02 156.462 301.123C157.04 301.198 157.474 301.38 157.764 301.669C158.062 301.958 158.212 302.327 158.212 302.775ZM164.275 303.503C164.191 303.671 164.083 303.848 163.953 304.035C163.822 304.212 163.659 304.376 163.463 304.525C163.267 304.674 163.033 304.796 162.763 304.889C162.501 304.982 162.193 305.029 161.839 305.029C161.185 305.029 160.658 304.847 160.257 304.483C159.855 304.11 159.655 303.578 159.655 302.887C159.655 302.094 159.93 301.51 160.481 301.137C161.041 300.764 161.834 300.577 162.861 300.577H164.219V299.975C164.219 299.471 164.088 299.112 163.827 298.897C163.565 298.682 163.117 298.575 162.483 298.575C162.035 298.575 161.61 298.65 161.209 298.799C160.807 298.939 160.448 299.102 160.131 299.289V298.183C160.392 298.024 160.742 297.87 161.181 297.721C161.629 297.562 162.119 297.483 162.651 297.483C163.565 297.483 164.261 297.674 164.737 298.057C165.213 298.43 165.451 299.014 165.451 299.807V303.713C165.451 303.797 165.451 303.895 165.451 304.007C165.46 304.11 165.465 304.217 165.465 304.329C165.474 304.441 165.483 304.548 165.493 304.651C165.502 304.744 165.511 304.824 165.521 304.889H164.401C164.373 304.758 164.345 304.576 164.317 304.343C164.298 304.1 164.289 303.89 164.289 303.713L164.275 303.503ZM162.105 303.923C162.487 303.923 162.814 303.844 163.085 303.685C163.355 303.526 163.575 303.344 163.743 303.139C163.911 302.924 164.032 302.719 164.107 302.523C164.181 302.318 164.219 302.173 164.219 302.089V301.557H162.987C162.249 301.557 161.713 301.664 161.377 301.879C161.05 302.084 160.887 302.397 160.887 302.817C160.887 303.144 160.985 303.41 161.181 303.615C161.377 303.82 161.685 303.923 162.105 303.923ZM167.388 297.623H172.008V298.673H168.62V304.889H167.388V297.623ZM177.153 305.029C176.593 305.029 176.108 304.898 175.697 304.637C175.296 304.376 174.974 304.016 174.731 303.559V307.367H173.499V297.623H174.577L174.703 299.037C174.946 298.561 175.273 298.183 175.683 297.903C176.094 297.623 176.603 297.483 177.209 297.483C177.629 297.483 178.031 297.562 178.413 297.721C178.805 297.87 179.146 298.104 179.435 298.421C179.734 298.729 179.967 299.121 180.135 299.597C180.313 300.064 180.401 300.614 180.401 301.249C180.401 301.893 180.313 302.453 180.135 302.929C179.958 303.396 179.72 303.788 179.421 304.105C179.123 304.413 178.777 304.646 178.385 304.805C177.993 304.954 177.583 305.029 177.153 305.029ZM176.971 303.923C177.615 303.923 178.133 303.704 178.525 303.265C178.927 302.817 179.127 302.145 179.127 301.249C179.127 300.372 178.927 299.709 178.525 299.261C178.133 298.804 177.615 298.575 176.971 298.575C176.654 298.575 176.355 298.631 176.075 298.743C175.805 298.855 175.567 299.023 175.361 299.247C175.165 299.462 175.007 299.737 174.885 300.073C174.773 300.409 174.717 300.801 174.717 301.249C174.717 301.697 174.773 302.089 174.885 302.425C175.007 302.761 175.165 303.041 175.361 303.265C175.567 303.489 175.805 303.657 176.075 303.769C176.355 303.872 176.654 303.923 176.971 303.923ZM185.395 304.805C185.227 305.244 185.05 305.626 184.863 305.953C184.677 306.289 184.467 306.574 184.233 306.807C184 307.04 183.739 307.213 183.449 307.325C183.16 307.446 182.829 307.507 182.455 307.507C182.269 307.507 182.096 307.493 181.937 307.465C181.779 307.446 181.634 307.409 181.503 307.353V306.163C181.606 306.238 181.737 306.294 181.895 306.331C182.054 306.378 182.227 306.401 182.413 306.401C182.759 306.401 183.043 306.317 183.267 306.149C183.491 305.99 183.706 305.734 183.911 305.379L180.957 297.623H182.315L184.625 303.755L186.921 297.623H188.111L185.395 304.805ZM194.483 302.775C194.483 303.186 194.399 303.536 194.231 303.825C194.073 304.105 193.853 304.338 193.573 304.525C193.293 304.702 192.967 304.828 192.593 304.903C192.229 304.987 191.847 305.029 191.445 305.029C190.913 305.029 190.442 304.973 190.031 304.861C189.63 304.749 189.313 304.614 189.079 304.455V303.349C189.369 303.526 189.714 303.666 190.115 303.769C190.517 303.872 190.951 303.923 191.417 303.923C191.949 303.923 192.393 303.839 192.747 303.671C193.111 303.494 193.293 303.195 193.293 302.775C193.293 302.364 193.139 302.075 192.831 301.907C192.533 301.739 192.071 301.655 191.445 301.655H190.479V300.661H191.487C192.001 300.661 192.393 300.568 192.663 300.381C192.934 300.194 193.069 299.924 193.069 299.569C193.069 299.382 193.023 299.228 192.929 299.107C192.845 298.976 192.729 298.874 192.579 298.799C192.43 298.715 192.253 298.659 192.047 298.631C191.851 298.594 191.641 298.575 191.417 298.575C190.988 298.575 190.587 298.626 190.213 298.729C189.849 298.832 189.518 298.976 189.219 299.163V298.057C189.462 297.898 189.775 297.763 190.157 297.651C190.549 297.539 191.002 297.483 191.515 297.483C192.402 297.483 193.069 297.651 193.517 297.987C193.975 298.323 194.203 298.808 194.203 299.443C194.203 299.919 194.073 300.292 193.811 300.563C193.559 300.834 193.2 301.02 192.733 301.123C193.312 301.198 193.746 301.38 194.035 301.669C194.334 301.958 194.483 302.327 194.483 302.775ZM197.522 303.209L201.4 297.623H202.646V304.889H201.414V299.317L197.55 304.889H196.29V297.623H197.522V303.209ZM207.583 298.673V304.889H206.351V298.673H204.069V297.623H209.907V298.673H207.583ZM216.733 302.467C216.733 302.887 216.659 303.251 216.509 303.559C216.36 303.867 216.15 304.119 215.879 304.315C215.609 304.511 215.287 304.656 214.913 304.749C214.54 304.842 214.134 304.889 213.695 304.889H211.287V297.623H212.519V300.157H213.779C214.703 300.157 215.427 300.339 215.949 300.703C216.472 301.067 216.733 301.655 216.733 302.467ZM212.519 301.207V303.839H213.695C214.227 303.839 214.657 303.741 214.983 303.545C215.319 303.34 215.487 303.004 215.487 302.537C215.487 302.061 215.338 301.72 215.039 301.515C214.741 301.31 214.321 301.207 213.779 301.207H212.519Z" fill="#18123D"/>
<rect x="457" y="279" width="150" height="44" rx="5" fill="#FFDADA"/>
<path d="M510.996 306.029C510.324 306.029 509.694 305.917 509.106 305.693C508.518 305.46 508.01 305.124 507.58 304.685C507.151 304.246 506.81 303.705 506.558 303.061C506.316 302.417 506.194 301.675 506.194 300.835C506.194 299.995 506.316 299.258 506.558 298.623C506.81 297.979 507.151 297.447 507.58 297.027C508.01 296.598 508.518 296.276 509.106 296.061C509.694 295.837 510.324 295.725 510.996 295.725C511.678 295.725 512.312 295.837 512.9 296.061C513.488 296.276 513.997 296.598 514.426 297.027C514.856 297.456 515.192 297.993 515.434 298.637C515.677 299.272 515.798 300.009 515.798 300.849C515.798 301.68 515.677 302.417 515.434 303.061C515.192 303.705 514.856 304.246 514.426 304.685C513.997 305.124 513.488 305.46 512.9 305.693C512.312 305.917 511.678 306.029 510.996 306.029ZM510.996 304.839C511.482 304.839 511.93 304.769 512.34 304.629C512.751 304.48 513.106 304.251 513.404 303.943C513.712 303.626 513.95 303.215 514.118 302.711C514.296 302.207 514.384 301.596 514.384 300.877C514.384 300.158 514.296 299.547 514.118 299.043C513.95 298.539 513.712 298.133 513.404 297.825C513.106 297.508 512.751 297.279 512.34 297.139C511.93 296.99 511.482 296.915 510.996 296.915C510.511 296.915 510.063 296.99 509.652 297.139C509.242 297.279 508.882 297.508 508.574 297.825C508.276 298.133 508.038 298.539 507.86 299.043C507.692 299.547 507.608 300.158 507.608 300.877C507.608 301.596 507.692 302.207 507.86 302.711C508.038 303.215 508.276 303.626 508.574 303.943C508.882 304.251 509.242 304.48 509.652 304.629C510.063 304.769 510.511 304.839 510.996 304.839ZM526.46 305.889H517.388V298.623H518.62V304.839H521.308V298.623H522.54V304.839H525.228V298.623H526.46V305.889ZM529.708 304.209L533.586 298.623H534.832V305.889H533.6V300.317L529.736 305.889H528.476V298.623H529.708V304.209ZM543.395 302.249C543.395 302.856 543.302 303.392 543.115 303.859C542.938 304.326 542.69 304.722 542.373 305.049C542.065 305.366 541.696 305.609 541.267 305.777C540.838 305.945 540.371 306.029 539.867 306.029C539.354 306.029 538.882 305.945 538.453 305.777C538.024 305.6 537.655 305.334 537.347 304.979C537.039 304.624 536.796 304.176 536.619 303.635C536.451 303.094 536.367 302.454 536.367 301.717C536.367 301.11 536.386 300.532 536.423 299.981C536.46 299.43 536.544 298.922 536.675 298.455C536.806 297.979 536.992 297.554 537.235 297.181C537.487 296.798 537.823 296.481 538.243 296.229C538.476 296.089 538.719 295.986 538.971 295.921C539.223 295.846 539.475 295.79 539.727 295.753C539.988 295.716 540.25 295.692 540.511 295.683C540.772 295.674 541.029 295.664 541.281 295.655C541.654 295.627 541.967 295.58 542.219 295.515C542.471 295.45 542.695 295.361 542.891 295.249V296.369C542.686 296.5 542.466 296.593 542.233 296.649C542.009 296.696 541.734 296.738 541.407 296.775C540.875 296.822 540.385 296.859 539.937 296.887C539.498 296.906 539.097 297.008 538.733 297.195C538.266 297.456 537.935 297.848 537.739 298.371C537.552 298.884 537.436 299.496 537.389 300.205C537.874 299.085 538.789 298.525 540.133 298.525C540.59 298.525 541.015 298.609 541.407 298.777C541.808 298.936 542.154 299.174 542.443 299.491C542.742 299.808 542.975 300.2 543.143 300.667C543.311 301.124 543.395 301.652 543.395 302.249ZM539.867 304.923C540.194 304.923 540.492 304.872 540.763 304.769C541.043 304.657 541.286 304.494 541.491 304.279C541.696 304.055 541.855 303.775 541.967 303.439C542.079 303.103 542.135 302.706 542.135 302.249C542.135 301.792 542.079 301.395 541.967 301.059C541.855 300.723 541.696 300.448 541.491 300.233C541.286 300.009 541.043 299.846 540.763 299.743C540.492 299.631 540.194 299.575 539.867 299.575C539.223 299.575 538.686 299.79 538.257 300.219C537.837 300.648 537.627 301.311 537.627 302.207C537.627 302.674 537.683 303.08 537.795 303.425C537.907 303.761 538.061 304.041 538.257 304.265C538.462 304.489 538.7 304.657 538.971 304.769C539.242 304.872 539.54 304.923 539.867 304.923ZM546.813 302.795H546.169V305.889H544.937V298.623H546.169V301.745H546.869L549.417 298.623H550.817L547.835 302.207L550.873 305.889H549.375L546.813 302.795ZM556.288 304.503C556.204 304.671 556.097 304.848 555.966 305.035C555.836 305.212 555.672 305.376 555.476 305.525C555.28 305.674 555.047 305.796 554.776 305.889C554.515 305.982 554.207 306.029 553.852 306.029C553.199 306.029 552.672 305.847 552.27 305.483C551.869 305.11 551.668 304.578 551.668 303.887C551.668 303.094 551.944 302.51 552.494 302.137C553.054 301.764 553.848 301.577 554.874 301.577H556.232V300.975C556.232 300.471 556.102 300.112 555.84 299.897C555.579 299.682 555.131 299.575 554.496 299.575C554.048 299.575 553.624 299.65 553.222 299.799C552.821 299.939 552.462 300.102 552.144 300.289V299.183C552.406 299.024 552.756 298.87 553.194 298.721C553.642 298.562 554.132 298.483 554.664 298.483C555.579 298.483 556.274 298.674 556.75 299.057C557.226 299.43 557.464 300.014 557.464 300.807V304.713C557.464 304.797 557.464 304.895 557.464 305.007C557.474 305.11 557.478 305.217 557.478 305.329C557.488 305.441 557.497 305.548 557.506 305.651C557.516 305.744 557.525 305.824 557.534 305.889H556.414C556.386 305.758 556.358 305.576 556.33 305.343C556.312 305.1 556.302 304.89 556.302 304.713L556.288 304.503ZM554.118 304.923C554.501 304.923 554.828 304.844 555.098 304.685C555.369 304.526 555.588 304.344 555.756 304.139C555.924 303.924 556.046 303.719 556.12 303.523C556.195 303.318 556.232 303.173 556.232 303.089V302.557H555C554.263 302.557 553.726 302.664 553.39 302.879C553.064 303.084 552.9 303.397 552.9 303.817C552.9 304.144 552.998 304.41 553.194 304.615C553.39 304.82 553.698 304.923 554.118 304.923Z" fill="#18123D"/>
<rect x="275" y="195" width="150" height="44" rx="5" fill="#D3E3FC"/>
<path d="M321.494 222.029C320.747 222.029 320.071 221.912 319.464 221.679C318.857 221.446 318.335 221.11 317.896 220.671C317.467 220.223 317.135 219.682 316.902 219.047C316.669 218.403 316.552 217.68 316.552 216.877C316.552 216.065 316.659 215.342 316.874 214.707C317.089 214.072 317.406 213.536 317.826 213.097C318.246 212.649 318.759 212.308 319.366 212.075C319.982 211.842 320.682 211.725 321.466 211.725C322.147 211.725 322.745 211.8 323.258 211.949C323.771 212.089 324.191 212.257 324.518 212.453V213.713C324.098 213.442 323.613 213.242 323.062 213.111C322.521 212.98 321.984 212.915 321.452 212.915C320.267 212.915 319.389 213.246 318.82 213.909C318.26 214.562 317.98 215.552 317.98 216.877C317.98 218.212 318.283 219.206 318.89 219.859C319.506 220.512 320.411 220.839 321.606 220.839C322.119 220.839 322.619 220.769 323.104 220.629C323.599 220.489 324.07 220.251 324.518 219.915V221.175C324.247 221.39 323.851 221.586 323.328 221.763C322.815 221.94 322.203 222.029 321.494 222.029ZM329.278 222.029C328.783 222.029 328.321 221.945 327.892 221.777C327.463 221.609 327.089 221.366 326.772 221.049C326.464 220.722 326.221 220.326 326.044 219.859C325.867 219.392 325.778 218.856 325.778 218.249C325.778 217.652 325.867 217.12 326.044 216.653C326.221 216.177 326.464 215.78 326.772 215.463C327.089 215.146 327.463 214.903 327.892 214.735C328.321 214.567 328.783 214.483 329.278 214.483C329.782 214.483 330.249 214.567 330.678 214.735C331.107 214.903 331.476 215.146 331.784 215.463C332.101 215.78 332.349 216.177 332.526 216.653C332.713 217.12 332.806 217.652 332.806 218.249C332.806 218.856 332.713 219.392 332.526 219.859C332.349 220.326 332.101 220.722 331.784 221.049C331.476 221.366 331.107 221.609 330.678 221.777C330.249 221.945 329.782 222.029 329.278 222.029ZM329.278 220.923C329.605 220.923 329.903 220.872 330.174 220.769C330.454 220.657 330.697 220.494 330.902 220.279C331.107 220.055 331.266 219.775 331.378 219.439C331.49 219.103 331.546 218.706 331.546 218.249C331.546 217.792 331.49 217.395 331.378 217.059C331.266 216.723 331.107 216.448 330.902 216.233C330.697 216.009 330.454 215.846 330.174 215.743C329.903 215.631 329.605 215.575 329.278 215.575C328.951 215.575 328.653 215.631 328.382 215.743C328.111 215.846 327.873 216.009 327.668 216.233C327.472 216.448 327.318 216.723 327.206 217.059C327.094 217.395 327.038 217.792 327.038 218.249C327.038 218.706 327.094 219.103 327.206 219.439C327.318 219.775 327.472 220.055 327.668 220.279C327.873 220.494 328.111 220.657 328.382 220.769C328.653 220.872 328.951 220.923 329.278 220.923ZM339.391 219.775C339.391 220.186 339.307 220.536 339.139 220.825C338.981 221.105 338.761 221.338 338.481 221.525C338.201 221.702 337.875 221.828 337.501 221.903C337.137 221.987 336.755 222.029 336.353 222.029C335.821 222.029 335.35 221.973 334.939 221.861C334.538 221.749 334.221 221.614 333.987 221.455V220.349C334.277 220.526 334.622 220.666 335.023 220.769C335.425 220.872 335.859 220.923 336.325 220.923C336.857 220.923 337.301 220.839 337.655 220.671C338.019 220.494 338.201 220.195 338.201 219.775C338.201 219.364 338.047 219.075 337.739 218.907C337.441 218.739 336.979 218.655 336.353 218.655H335.387V217.661H336.395C336.909 217.661 337.301 217.568 337.571 217.381C337.842 217.194 337.977 216.924 337.977 216.569C337.977 216.382 337.931 216.228 337.837 216.107C337.753 215.976 337.637 215.874 337.487 215.799C337.338 215.715 337.161 215.659 336.955 215.631C336.759 215.594 336.549 215.575 336.325 215.575C335.896 215.575 335.495 215.626 335.121 215.729C334.757 215.832 334.426 215.976 334.127 216.163V215.057C334.37 214.898 334.683 214.763 335.065 214.651C335.457 214.539 335.91 214.483 336.423 214.483C337.31 214.483 337.977 214.651 338.425 214.987C338.883 215.323 339.111 215.808 339.111 216.443C339.111 216.919 338.981 217.292 338.719 217.563C338.467 217.834 338.108 218.02 337.641 218.123C338.22 218.198 338.654 218.38 338.943 218.669C339.242 218.958 339.391 219.327 339.391 219.775ZM340.806 220.839C341.068 220.68 341.273 220.433 341.422 220.097C341.572 219.761 341.688 219.336 341.772 218.823C341.856 218.31 341.912 217.703 341.94 217.003C341.978 216.303 342.01 215.51 342.038 214.623H347.036V220.839H348.128V223.961H347.05L346.896 221.889H341.492L341.366 223.961H340.26V220.839H340.806ZM345.804 220.839V215.673H343.144C343.098 217.045 343.009 218.146 342.878 218.977C342.757 219.798 342.542 220.419 342.234 220.839H345.804ZM353.603 220.503C353.519 220.671 353.412 220.848 353.281 221.035C353.15 221.212 352.987 221.376 352.791 221.525C352.595 221.674 352.362 221.796 352.091 221.889C351.83 221.982 351.522 222.029 351.167 222.029C350.514 222.029 349.986 221.847 349.585 221.483C349.184 221.11 348.983 220.578 348.983 219.887C348.983 219.094 349.258 218.51 349.809 218.137C350.369 217.764 351.162 217.577 352.189 217.577H353.547V216.975C353.547 216.471 353.416 216.112 353.155 215.897C352.894 215.682 352.446 215.575 351.811 215.575C351.363 215.575 350.938 215.65 350.537 215.799C350.136 215.939 349.776 216.102 349.459 216.289V215.183C349.72 215.024 350.07 214.87 350.509 214.721C350.957 214.562 351.447 214.483 351.979 214.483C352.894 214.483 353.589 214.674 354.065 215.057C354.541 215.43 354.779 216.014 354.779 216.807V220.713C354.779 220.797 354.779 220.895 354.779 221.007C354.788 221.11 354.793 221.217 354.793 221.329C354.802 221.441 354.812 221.548 354.821 221.651C354.83 221.744 354.84 221.824 354.849 221.889H353.729C353.701 221.758 353.673 221.576 353.645 221.343C353.626 221.1 353.617 220.89 353.617 220.713L353.603 220.503ZM351.433 220.923C351.816 220.923 352.142 220.844 352.413 220.685C352.684 220.526 352.903 220.344 353.071 220.139C353.239 219.924 353.36 219.719 353.435 219.523C353.51 219.318 353.547 219.173 353.547 219.089V218.557H352.315C351.578 218.557 351.041 218.664 350.705 218.879C350.378 219.084 350.215 219.397 350.215 219.817C350.215 220.144 350.313 220.41 350.509 220.615C350.705 220.82 351.013 220.923 351.433 220.923ZM362.498 221.273C362.395 221.348 362.269 221.427 362.12 221.511C361.971 221.595 361.789 221.679 361.574 221.763C361.359 221.838 361.117 221.898 360.846 221.945C360.575 222.001 360.272 222.029 359.936 222.029C358.713 222.029 357.785 221.698 357.15 221.035C356.515 220.372 356.198 219.444 356.198 218.249C356.198 217.661 356.282 217.134 356.45 216.667C356.627 216.2 356.87 215.808 357.178 215.491C357.486 215.164 357.85 214.917 358.27 214.749C358.69 214.572 359.147 214.483 359.642 214.483C360.165 214.483 360.631 214.572 361.042 214.749C361.453 214.926 361.789 215.188 362.05 215.533C362.321 215.878 362.503 216.308 362.596 216.821C362.699 217.325 362.699 217.913 362.596 218.585H357.472C357.519 219.369 357.752 219.957 358.172 220.349C358.592 220.732 359.217 220.923 360.048 220.923C360.608 220.923 361.089 220.844 361.49 220.685C361.891 220.526 362.227 220.354 362.498 220.167V221.273ZM359.614 215.575C359.082 215.575 358.625 215.738 358.242 216.065C357.859 216.392 357.617 216.886 357.514 217.549H361.42C361.457 216.877 361.303 216.382 360.958 216.065C360.613 215.738 360.165 215.575 359.614 215.575ZM367.107 215.673V221.889H365.875V215.673H363.593V214.623H369.431V215.673H367.107ZM373.784 222.029C373.224 222.029 372.715 221.945 372.258 221.777C371.81 221.6 371.427 221.352 371.11 221.035C370.792 220.708 370.55 220.312 370.382 219.845C370.214 219.378 370.13 218.846 370.13 218.249C370.13 217.661 370.214 217.134 370.382 216.667C370.559 216.2 370.806 215.808 371.124 215.491C371.441 215.164 371.828 214.917 372.286 214.749C372.743 214.572 373.261 214.483 373.84 214.483C374.288 214.483 374.698 214.534 375.072 214.637C375.445 214.73 375.753 214.87 375.996 215.057V216.163C375.697 215.967 375.361 215.822 374.988 215.729C374.624 215.626 374.246 215.575 373.854 215.575C373.004 215.575 372.379 215.794 371.978 216.233C371.586 216.672 371.39 217.344 371.39 218.249C371.39 219.154 371.581 219.826 371.964 220.265C372.346 220.704 372.953 220.923 373.784 220.923C374.222 220.923 374.624 220.872 374.988 220.769C375.361 220.657 375.697 220.517 375.996 220.349V221.455C375.734 221.614 375.417 221.749 375.044 221.861C374.68 221.973 374.26 222.029 373.784 222.029ZM377.648 216.975C377.648 216.564 377.722 216.214 377.872 215.925C378.021 215.626 378.231 215.384 378.502 215.197C378.772 215.001 379.094 214.856 379.468 214.763C379.841 214.67 380.247 214.623 380.686 214.623H383.024V221.889H381.792V219.257H380.462L378.6 221.889H377.13L379.23 218.949C378.726 218.8 378.334 218.571 378.054 218.263C377.783 217.955 377.648 217.526 377.648 216.975ZM381.792 218.207V215.673H380.686C380.163 215.673 379.734 215.771 379.398 215.967C379.062 216.163 378.894 216.48 378.894 216.919C378.894 217.376 379.043 217.708 379.342 217.913C379.64 218.109 380.065 218.207 380.616 218.207H381.792Z" fill="#18123D"/>
<rect x="276" y="112" width="148" height="42" rx="4" fill="white" stroke="#67B0F8" stroke-width="2"/>
<path d="M307.489 127.851H309.449L313.047 137.889H311.647L310.611 135.019H306.173L305.151 137.889H303.919L307.489 127.851ZM310.191 133.829L308.399 128.831L306.607 133.829H310.191ZM316.216 134.795H315.572V137.889H314.34V130.623H315.572V133.745H316.272L318.82 130.623H320.22L317.238 134.207L320.276 137.889H318.778L316.216 134.795ZM324.498 131.673V137.889H323.266V131.673H320.984V130.623H326.822V131.673H324.498ZM329.476 136.209L333.354 130.623H334.6V137.889H333.368V132.317L329.504 137.889H328.244V130.623H329.476V136.209ZM336.612 130.623H339.328C340.205 130.623 340.868 130.777 341.316 131.085C341.764 131.384 341.988 131.855 341.988 132.499C341.988 132.928 341.876 133.274 341.652 133.535C341.437 133.787 341.129 133.969 340.728 134.081C341.764 134.249 342.282 134.823 342.282 135.803C342.282 136.176 342.207 136.498 342.058 136.769C341.908 137.03 341.703 137.245 341.442 137.413C341.18 137.581 340.863 137.702 340.49 137.777C340.126 137.852 339.729 137.889 339.3 137.889H336.612V130.623ZM337.844 131.673V133.647H339.216C339.682 133.647 340.056 133.563 340.336 133.395C340.625 133.227 340.77 132.984 340.77 132.667C340.77 132.284 340.644 132.023 340.392 131.883C340.14 131.743 339.78 131.673 339.314 131.673H337.844ZM337.844 134.627V136.839H339.286C339.547 136.839 339.78 136.825 339.986 136.797C340.2 136.76 340.382 136.699 340.532 136.615C340.69 136.531 340.812 136.419 340.896 136.279C340.98 136.139 341.022 135.966 341.022 135.761C341.022 135.341 340.877 135.047 340.588 134.879C340.298 134.711 339.864 134.627 339.286 134.627H337.844ZM345.363 136.209L349.241 130.623H350.487V137.889H349.255V132.317L345.391 137.889H344.131V130.623H345.363V136.209ZM356.152 138.029C355.592 138.029 355.107 137.898 354.696 137.637C354.295 137.376 353.973 137.016 353.73 136.559V140.367H352.498V130.623H353.576L353.702 132.037C353.945 131.561 354.272 131.183 354.682 130.903C355.093 130.623 355.602 130.483 356.208 130.483C356.628 130.483 357.03 130.562 357.412 130.721C357.804 130.87 358.145 131.104 358.434 131.421C358.733 131.729 358.966 132.121 359.134 132.597C359.312 133.064 359.4 133.614 359.4 134.249C359.4 134.893 359.312 135.453 359.134 135.929C358.957 136.396 358.719 136.788 358.42 137.105C358.122 137.413 357.776 137.646 357.384 137.805C356.992 137.954 356.582 138.029 356.152 138.029ZM355.97 136.923C356.614 136.923 357.132 136.704 357.524 136.265C357.926 135.817 358.126 135.145 358.126 134.249C358.126 133.372 357.926 132.709 357.524 132.261C357.132 131.804 356.614 131.575 355.97 131.575C355.653 131.575 355.354 131.631 355.074 131.743C354.804 131.855 354.566 132.023 354.36 132.247C354.164 132.462 354.006 132.737 353.884 133.073C353.772 133.409 353.716 133.801 353.716 134.249C353.716 134.697 353.772 135.089 353.884 135.425C354.006 135.761 354.164 136.041 354.36 136.265C354.566 136.489 354.804 136.657 355.074 136.769C355.354 136.872 355.653 136.923 355.97 136.923ZM363.875 138.029C363.38 138.029 362.918 137.945 362.489 137.777C362.059 137.609 361.686 137.366 361.369 137.049C361.061 136.722 360.818 136.326 360.641 135.859C360.463 135.392 360.375 134.856 360.375 134.249C360.375 133.652 360.463 133.12 360.641 132.653C360.818 132.177 361.061 131.78 361.369 131.463C361.686 131.146 362.059 130.903 362.489 130.735C362.918 130.567 363.38 130.483 363.875 130.483C364.379 130.483 364.845 130.567 365.275 130.735C365.704 130.903 366.073 131.146 366.381 131.463C366.698 131.78 366.945 132.177 367.123 132.653C367.309 133.12 367.403 133.652 367.403 134.249C367.403 134.856 367.309 135.392 367.123 135.859C366.945 136.326 366.698 136.722 366.381 137.049C366.073 137.366 365.704 137.609 365.275 137.777C364.845 137.945 364.379 138.029 363.875 138.029ZM363.875 136.923C364.201 136.923 364.5 136.872 364.771 136.769C365.051 136.657 365.293 136.494 365.499 136.279C365.704 136.055 365.863 135.775 365.975 135.439C366.087 135.103 366.143 134.706 366.143 134.249C366.143 133.792 366.087 133.395 365.975 133.059C365.863 132.723 365.704 132.448 365.499 132.233C365.293 132.009 365.051 131.846 364.771 131.743C364.5 131.631 364.201 131.575 363.875 131.575C363.548 131.575 363.249 131.631 362.979 131.743C362.708 131.846 362.47 132.009 362.265 132.233C362.069 132.448 361.915 132.723 361.803 133.059C361.691 133.395 361.635 133.792 361.635 134.249C361.635 134.706 361.691 135.103 361.803 135.439C361.915 135.775 362.069 136.055 362.265 136.279C362.47 136.494 362.708 136.657 362.979 136.769C363.249 136.872 363.548 136.923 363.875 136.923ZM368.904 130.623H371.62C372.498 130.623 373.16 130.777 373.608 131.085C374.056 131.384 374.28 131.855 374.28 132.499C374.28 132.928 374.168 133.274 373.944 133.535C373.73 133.787 373.422 133.969 373.02 134.081C374.056 134.249 374.574 134.823 374.574 135.803C374.574 136.176 374.5 136.498 374.35 136.769C374.201 137.03 373.996 137.245 373.734 137.413C373.473 137.581 373.156 137.702 372.782 137.777C372.418 137.852 372.022 137.889 371.592 137.889H368.904V130.623ZM370.136 131.673V133.647H371.508C371.975 133.647 372.348 133.563 372.628 133.395C372.918 133.227 373.062 132.984 373.062 132.667C373.062 132.284 372.936 132.023 372.684 131.883C372.432 131.743 372.073 131.673 371.606 131.673H370.136ZM370.136 134.627V136.839H371.578C371.84 136.839 372.073 136.825 372.278 136.797C372.493 136.76 372.675 136.699 372.824 136.615C372.983 136.531 373.104 136.419 373.188 136.279C373.272 136.139 373.314 135.966 373.314 135.761C373.314 135.341 373.17 135.047 372.88 134.879C372.591 134.711 372.157 134.627 371.578 134.627H370.136ZM380.68 136.503C380.596 136.671 380.489 136.848 380.358 137.035C380.227 137.212 380.064 137.376 379.868 137.525C379.672 137.674 379.439 137.796 379.168 137.889C378.907 137.982 378.599 138.029 378.244 138.029C377.591 138.029 377.063 137.847 376.662 137.483C376.261 137.11 376.06 136.578 376.06 135.887C376.06 135.094 376.335 134.51 376.886 134.137C377.446 133.764 378.239 133.577 379.266 133.577H380.624V132.975C380.624 132.471 380.493 132.112 380.232 131.897C379.971 131.682 379.523 131.575 378.888 131.575C378.44 131.575 378.015 131.65 377.614 131.799C377.213 131.939 376.853 132.102 376.536 132.289V131.183C376.797 131.024 377.147 130.87 377.586 130.721C378.034 130.562 378.524 130.483 379.056 130.483C379.971 130.483 380.666 130.674 381.142 131.057C381.618 131.43 381.856 132.014 381.856 132.807V136.713C381.856 136.797 381.856 136.895 381.856 137.007C381.865 137.11 381.87 137.217 381.87 137.329C381.879 137.441 381.889 137.548 381.898 137.651C381.907 137.744 381.917 137.824 381.926 137.889H380.806C380.778 137.758 380.75 137.576 380.722 137.343C380.703 137.1 380.694 136.89 380.694 136.713L380.68 136.503ZM378.51 136.923C378.893 136.923 379.219 136.844 379.49 136.685C379.761 136.526 379.98 136.344 380.148 136.139C380.316 135.924 380.437 135.719 380.512 135.523C380.587 135.318 380.624 135.173 380.624 135.089V134.557H379.392C378.655 134.557 378.118 134.664 377.782 134.879C377.455 135.084 377.292 135.397 377.292 135.817C377.292 136.144 377.39 136.41 377.586 136.615C377.782 136.82 378.09 136.923 378.51 136.923ZM386.651 131.673V137.889H385.419V131.673H383.137V130.623H388.975V131.673H386.651ZM395.801 135.467C395.801 135.887 395.726 136.251 395.577 136.559C395.427 136.867 395.217 137.119 394.947 137.315C394.676 137.511 394.354 137.656 393.981 137.749C393.607 137.842 393.201 137.889 392.763 137.889H390.355V130.623H391.587V133.157H392.847C393.771 133.157 394.494 133.339 395.017 133.703C395.539 134.067 395.801 134.655 395.801 135.467ZM391.587 134.207V136.839H392.763C393.295 136.839 393.724 136.741 394.051 136.545C394.387 136.34 394.555 136.004 394.555 135.537C394.555 135.061 394.405 134.72 394.107 134.515C393.808 134.31 393.388 134.207 392.847 134.207H391.587Z" fill="#18123D"/>
<rect x="275" y="27" width="150" height="44" rx="5" fill="#D3E3FC"/>
<path d="M331.659 54.0289C330.912 54.0289 330.236 53.9122 329.629 53.6789C329.022 53.4456 328.5 53.1096 328.061 52.6709C327.632 52.2229 327.3 51.6816 327.067 51.0469C326.834 50.4029 326.717 49.6796 326.717 48.8769C326.717 48.0649 326.824 47.3416 327.039 46.7069C327.254 46.0722 327.571 45.5356 327.991 45.0969C328.411 44.6489 328.924 44.3082 329.531 44.0749C330.147 43.8416 330.847 43.7249 331.631 43.7249C332.312 43.7249 332.91 43.7996 333.423 43.9489C333.936 44.0889 334.356 44.2569 334.683 44.4529V45.7129C334.263 45.4422 333.778 45.2416 333.227 45.1109C332.686 44.9802 332.149 44.9149 331.617 44.9149C330.432 44.9149 329.554 45.2462 328.985 45.9089C328.425 46.5622 328.145 47.5516 328.145 48.8769C328.145 50.2116 328.448 51.2056 329.055 51.8589C329.671 52.5122 330.576 52.8389 331.771 52.8389C332.284 52.8389 332.784 52.7689 333.269 52.6289C333.764 52.4889 334.235 52.2509 334.683 51.9149V53.1749C334.412 53.3896 334.016 53.5856 333.493 53.7629C332.98 53.9402 332.368 54.0289 331.659 54.0289ZM339.443 54.0289C338.948 54.0289 338.486 53.9449 338.057 53.7769C337.628 53.6089 337.254 53.3662 336.937 53.0489C336.629 52.7222 336.386 52.3256 336.209 51.8589C336.032 51.3922 335.943 50.8556 335.943 50.2489C335.943 49.6516 336.032 49.1196 336.209 48.6529C336.386 48.1769 336.629 47.7802 336.937 47.4629C337.254 47.1456 337.628 46.9029 338.057 46.7349C338.486 46.5669 338.948 46.4829 339.443 46.4829C339.947 46.4829 340.414 46.5669 340.843 46.7349C341.272 46.9029 341.641 47.1456 341.949 47.4629C342.266 47.7802 342.514 48.1769 342.691 48.6529C342.878 49.1196 342.971 49.6516 342.971 50.2489C342.971 50.8556 342.878 51.3922 342.691 51.8589C342.514 52.3256 342.266 52.7222 341.949 53.0489C341.641 53.3662 341.272 53.6089 340.843 53.7769C340.414 53.9449 339.947 54.0289 339.443 54.0289ZM339.443 52.9229C339.77 52.9229 340.068 52.8716 340.339 52.7689C340.619 52.6569 340.862 52.4936 341.067 52.2789C341.272 52.0549 341.431 51.7749 341.543 51.4389C341.655 51.1029 341.711 50.7062 341.711 50.2489C341.711 49.7916 341.655 49.3949 341.543 49.0589C341.431 48.7229 341.272 48.4476 341.067 48.2329C340.862 48.0089 340.619 47.8456 340.339 47.7429C340.068 47.6309 339.77 47.5749 339.443 47.5749C339.116 47.5749 338.818 47.6309 338.547 47.7429C338.276 47.8456 338.038 48.0089 337.833 48.2329C337.637 48.4476 337.483 48.7229 337.371 49.0589C337.259 49.3949 337.203 49.7916 337.203 50.2489C337.203 50.7062 337.259 51.1029 337.371 51.4389C337.483 51.7749 337.637 52.0549 337.833 52.2789C338.038 52.4936 338.276 52.6569 338.547 52.7689C338.818 52.8716 339.116 52.9229 339.443 52.9229ZM349.556 51.7749C349.556 52.1856 349.472 52.5356 349.304 52.8249C349.146 53.1049 348.926 53.3382 348.646 53.5249C348.366 53.7022 348.04 53.8282 347.666 53.9029C347.302 53.9869 346.92 54.0289 346.518 54.0289C345.986 54.0289 345.515 53.9729 345.104 53.8609C344.703 53.7489 344.386 53.6136 344.152 53.4549V52.3489C344.442 52.5262 344.787 52.6662 345.188 52.7689C345.59 52.8716 346.024 52.9229 346.49 52.9229C347.022 52.9229 347.466 52.8389 347.82 52.6709C348.184 52.4936 348.366 52.1949 348.366 51.7749C348.366 51.3642 348.212 51.0749 347.904 50.9069C347.606 50.7389 347.144 50.6549 346.518 50.6549H345.552V49.6609H346.56C347.074 49.6609 347.466 49.5676 347.736 49.3809C348.007 49.1942 348.142 48.9236 348.142 48.5689C348.142 48.3822 348.096 48.2282 348.002 48.1069C347.918 47.9762 347.802 47.8736 347.652 47.7989C347.503 47.7149 347.326 47.6589 347.12 47.6309C346.924 47.5936 346.714 47.5749 346.49 47.5749C346.061 47.5749 345.66 47.6262 345.286 47.7289C344.922 47.8316 344.591 47.9762 344.292 48.1629V47.0569C344.535 46.8982 344.848 46.7629 345.23 46.6509C345.622 46.5389 346.075 46.4829 346.588 46.4829C347.475 46.4829 348.142 46.6509 348.59 46.9869C349.048 47.3229 349.276 47.8082 349.276 48.4429C349.276 48.9189 349.146 49.2922 348.884 49.5629C348.632 49.8336 348.273 50.0202 347.806 50.1229C348.385 50.1976 348.819 50.3796 349.108 50.6689C349.407 50.9582 349.556 51.3269 349.556 51.7749ZM350.971 52.8389C351.233 52.6802 351.438 52.4329 351.587 52.0969C351.737 51.7609 351.853 51.3362 351.937 50.8229C352.021 50.3096 352.077 49.7029 352.105 49.0029C352.143 48.3029 352.175 47.5096 352.203 46.6229H357.201V52.8389H358.293V55.9609H357.215L357.061 53.8889H351.657L351.531 55.9609H350.425V52.8389H350.971ZM355.969 52.8389V47.6729H353.309C353.263 49.0449 353.174 50.1462 353.043 50.9769C352.922 51.7982 352.707 52.4189 352.399 52.8389H355.969ZM363.768 52.5029C363.684 52.6709 363.577 52.8482 363.446 53.0349C363.315 53.2122 363.152 53.3756 362.956 53.5249C362.76 53.6742 362.527 53.7956 362.256 53.8889C361.995 53.9822 361.687 54.0289 361.332 54.0289C360.679 54.0289 360.151 53.8469 359.75 53.4829C359.349 53.1096 359.148 52.5776 359.148 51.8869C359.148 51.0936 359.423 50.5102 359.974 50.1369C360.534 49.7636 361.327 49.5769 362.354 49.5769H363.712V48.9749C363.712 48.4709 363.581 48.1116 363.32 47.8969C363.059 47.6822 362.611 47.5749 361.976 47.5749C361.528 47.5749 361.103 47.6496 360.702 47.7989C360.301 47.9389 359.941 48.1022 359.624 48.2889V47.1829C359.885 47.0242 360.235 46.8702 360.674 46.7209C361.122 46.5622 361.612 46.4829 362.144 46.4829C363.059 46.4829 363.754 46.6742 364.23 47.0569C364.706 47.4302 364.944 48.0136 364.944 48.8069V52.7129C364.944 52.7969 364.944 52.8949 364.944 53.0069C364.953 53.1096 364.958 53.2169 364.958 53.3289C364.967 53.4409 364.977 53.5482 364.986 53.6509C364.995 53.7442 365.005 53.8236 365.014 53.8889H363.894C363.866 53.7582 363.838 53.5762 363.81 53.3429C363.791 53.1002 363.782 52.8902 363.782 52.7129L363.768 52.5029ZM361.598 52.9229C361.981 52.9229 362.307 52.8436 362.578 52.6849C362.849 52.5262 363.068 52.3442 363.236 52.1389C363.404 51.9242 363.525 51.7189 363.6 51.5229C363.675 51.3176 363.712 51.1729 363.712 51.0889V50.5569H362.48C361.743 50.5569 361.206 50.6642 360.87 50.8789C360.543 51.0842 360.38 51.3969 360.38 51.8169C360.38 52.1436 360.478 52.4096 360.674 52.6149C360.87 52.8202 361.178 52.9229 361.598 52.9229ZM371.627 50.6689H368.113V53.8889H366.881V46.6229H368.113V49.6189H371.627V46.6229H372.859V53.8889H371.627V50.6689Z" fill="#18123D"/>
<path d="M350 279L344.226 269L355.774 269L350 279ZM349 270L349 239L351 239L351 270L349 270Z" fill="#4E496B"/>
<path d="M350 363L344.226 353L355.774 353L350 363ZM349 354L349 323L351 323L351 354L349 354Z" fill="#4E496B"/>
<path d="M350 447L344.226 437L355.774 437L350 447ZM349 438L349 407L351 407L351 438L349 438Z" fill="#4E496B"/>
<path d="M243 301L253 306.774L253 295.226L243 301ZM252 302L275 302L275 300L252 300L252 302Z" fill="#4E496B"/>
<path d="M350 531L344.226 521L355.774 521L350 531ZM349 522L349 491L351 491L351 522L349 522Z" fill="#4E496B"/>
<rect x="275" y="279" width="150" height="44" rx="5" fill="#D3E3FC"/>
<path d="M300.898 295.851H304.104C305.242 295.851 306.124 296.089 306.75 296.565C307.384 297.032 307.702 297.764 307.702 298.763C307.702 299.332 307.608 299.822 307.422 300.233C307.244 300.634 306.992 300.966 306.666 301.227C306.339 301.488 305.947 301.68 305.49 301.801C305.042 301.922 304.542 301.983 303.992 301.983H302.214V305.889H300.898V295.851ZM302.214 297.055V300.793H303.992C304.346 300.793 304.668 300.756 304.958 300.681C305.247 300.606 305.494 300.49 305.7 300.331C305.914 300.172 306.078 299.967 306.19 299.715C306.311 299.454 306.372 299.141 306.372 298.777C306.372 298.17 306.176 297.732 305.784 297.461C305.392 297.19 304.832 297.055 304.104 297.055H302.214ZM314.783 305.273C314.681 305.348 314.555 305.427 314.405 305.511C314.256 305.595 314.074 305.679 313.859 305.763C313.645 305.838 313.402 305.898 313.131 305.945C312.861 306.001 312.557 306.029 312.221 306.029C310.999 306.029 310.07 305.698 309.435 305.035C308.801 304.372 308.483 303.444 308.483 302.249C308.483 301.661 308.567 301.134 308.735 300.667C308.913 300.2 309.155 299.808 309.463 299.491C309.771 299.164 310.135 298.917 310.555 298.749C310.975 298.572 311.433 298.483 311.927 298.483C312.45 298.483 312.917 298.572 313.327 298.749C313.738 298.926 314.074 299.188 314.335 299.533C314.606 299.878 314.788 300.308 314.881 300.821C314.984 301.325 314.984 301.913 314.881 302.585H309.757C309.804 303.369 310.037 303.957 310.457 304.349C310.877 304.732 311.503 304.923 312.333 304.923C312.893 304.923 313.374 304.844 313.775 304.685C314.177 304.526 314.513 304.354 314.783 304.167V305.273ZM311.899 299.575C311.367 299.575 310.91 299.738 310.527 300.065C310.145 300.392 309.902 300.886 309.799 301.549H313.705C313.743 300.877 313.589 300.382 313.243 300.065C312.898 299.738 312.45 299.575 311.899 299.575ZM316.534 298.623H322.358V305.889H321.126V299.673H317.766V305.889H316.534V298.623ZM324.928 303.635C325.059 303.159 325.143 302.515 325.18 301.703C325.218 300.891 325.236 299.864 325.236 298.623H330.122V305.889H328.876V299.673H326.398C326.389 300.672 326.356 301.558 326.3 302.333C326.254 303.108 326.146 303.761 325.978 304.293C325.82 304.825 325.582 305.231 325.264 305.511C324.956 305.782 324.541 305.917 324.018 305.917C323.981 305.917 323.944 305.917 323.906 305.917C323.869 305.917 323.827 305.912 323.78 305.903V304.685C323.827 304.694 323.888 304.699 323.962 304.699C324.438 304.699 324.76 304.344 324.928 303.635ZM333.352 304.209L337.23 298.623H338.476V305.889H337.244V300.317L333.38 305.889H332.12V298.623H333.352V304.209ZM346.41 305.889H340.487V298.623H341.719V304.839H345.29V298.623H346.522V304.839H347.614V307.961H346.564L346.41 305.889ZM350.128 304.209L354.006 298.623H355.252V305.889H354.02V300.317L350.156 305.889H348.896V298.623H350.128V304.209ZM360.917 306.029C360.357 306.029 359.872 305.898 359.461 305.637C359.06 305.376 358.738 305.016 358.495 304.559V308.367H357.263V298.623H358.341L358.467 300.037C358.71 299.561 359.036 299.183 359.447 298.903C359.858 298.623 360.366 298.483 360.973 298.483C361.393 298.483 361.794 298.562 362.177 298.721C362.569 298.87 362.91 299.104 363.199 299.421C363.498 299.729 363.731 300.121 363.899 300.597C364.076 301.064 364.165 301.614 364.165 302.249C364.165 302.893 364.076 303.453 363.899 303.929C363.722 304.396 363.484 304.788 363.185 305.105C362.886 305.413 362.541 305.646 362.149 305.805C361.757 305.954 361.346 306.029 360.917 306.029ZM360.735 304.923C361.379 304.923 361.897 304.704 362.289 304.265C362.69 303.817 362.891 303.145 362.891 302.249C362.891 301.372 362.69 300.709 362.289 300.261C361.897 299.804 361.379 299.575 360.735 299.575C360.418 299.575 360.119 299.631 359.839 299.743C359.568 299.855 359.33 300.023 359.125 300.247C358.929 300.462 358.77 300.737 358.649 301.073C358.537 301.409 358.481 301.801 358.481 302.249C358.481 302.697 358.537 303.089 358.649 303.425C358.77 303.761 358.929 304.041 359.125 304.265C359.33 304.489 359.568 304.657 359.839 304.769C360.119 304.872 360.418 304.923 360.735 304.923ZM369.159 305.805C368.991 306.244 368.814 306.626 368.627 306.953C368.44 307.289 368.23 307.574 367.997 307.807C367.764 308.04 367.502 308.213 367.213 308.325C366.924 308.446 366.592 308.507 366.219 308.507C366.032 308.507 365.86 308.493 365.701 308.465C365.542 308.446 365.398 308.409 365.267 308.353V307.163C365.37 307.238 365.5 307.294 365.659 307.331C365.818 307.378 365.99 307.401 366.177 307.401C366.522 307.401 366.807 307.317 367.031 307.149C367.255 306.99 367.47 306.734 367.675 306.379L364.721 298.623H366.079L368.389 304.755L370.685 298.623H371.875L369.159 305.805ZM378.74 305.273C378.638 305.348 378.512 305.427 378.362 305.511C378.213 305.595 378.031 305.679 377.816 305.763C377.602 305.838 377.359 305.898 377.088 305.945C376.818 306.001 376.514 306.029 376.178 306.029C374.956 306.029 374.027 305.698 373.392 305.035C372.758 304.372 372.44 303.444 372.44 302.249C372.44 301.661 372.524 301.134 372.692 300.667C372.87 300.2 373.112 299.808 373.42 299.491C373.728 299.164 374.092 298.917 374.512 298.749C374.932 298.572 375.39 298.483 375.884 298.483C376.407 298.483 376.874 298.572 377.284 298.749C377.695 298.926 378.031 299.188 378.292 299.533C378.563 299.878 378.745 300.308 378.838 300.821C378.941 301.325 378.941 301.913 378.838 302.585H373.714C373.761 303.369 373.994 303.957 374.414 304.349C374.834 304.732 375.46 304.923 376.29 304.923C376.85 304.923 377.331 304.844 377.732 304.685C378.134 304.526 378.47 304.354 378.74 304.167V305.273ZM375.856 299.575C375.324 299.575 374.867 299.738 374.484 300.065C374.102 300.392 373.859 300.886 373.756 301.549H377.662C377.7 300.877 377.546 300.382 377.2 300.065C376.855 299.738 376.407 299.575 375.856 299.575ZM383.349 299.673V305.889H382.117V299.673H379.835V298.623H385.673V299.673H383.349ZM390.026 306.029C389.466 306.029 388.957 305.945 388.5 305.777C388.052 305.6 387.669 305.352 387.352 305.035C387.035 304.708 386.792 304.312 386.624 303.845C386.456 303.378 386.372 302.846 386.372 302.249C386.372 301.661 386.456 301.134 386.624 300.667C386.801 300.2 387.049 299.808 387.366 299.491C387.683 299.164 388.071 298.917 388.528 298.749C388.985 298.572 389.503 298.483 390.082 298.483C390.53 298.483 390.941 298.534 391.314 298.637C391.687 298.73 391.995 298.87 392.238 299.057V300.163C391.939 299.967 391.603 299.822 391.23 299.729C390.866 299.626 390.488 299.575 390.096 299.575C389.247 299.575 388.621 299.794 388.22 300.233C387.828 300.672 387.632 301.344 387.632 302.249C387.632 303.154 387.823 303.826 388.206 304.265C388.589 304.704 389.195 304.923 390.026 304.923C390.465 304.923 390.866 304.872 391.23 304.769C391.603 304.657 391.939 304.517 392.238 304.349V305.455C391.977 305.614 391.659 305.749 391.286 305.861C390.922 305.973 390.502 306.029 390.026 306.029ZM393.89 300.975C393.89 300.564 393.965 300.214 394.114 299.925C394.263 299.626 394.473 299.384 394.744 299.197C395.015 299.001 395.337 298.856 395.71 298.763C396.083 298.67 396.489 298.623 396.928 298.623H399.266V305.889H398.034V303.257H396.704L394.842 305.889H393.372L395.472 302.949C394.968 302.8 394.576 302.571 394.296 302.263C394.025 301.955 393.89 301.526 393.89 300.975ZM398.034 302.207V299.673H396.928C396.405 299.673 395.976 299.771 395.64 299.967C395.304 300.163 395.136 300.48 395.136 300.919C395.136 301.376 395.285 301.708 395.584 301.913C395.883 302.109 396.307 302.207 396.858 302.207H398.034Z" fill="#18123D"/>
<rect x="275" y="447" width="150" height="44" rx="5" fill="#D3E3FC"/>
<path d="M298.474 474.029C297.802 474.029 297.172 473.917 296.584 473.693C295.996 473.46 295.487 473.124 295.058 472.685C294.629 472.246 294.288 471.705 294.036 471.061C293.793 470.417 293.672 469.675 293.672 468.835C293.672 467.995 293.793 467.258 294.036 466.623C294.288 465.979 294.629 465.447 295.058 465.027C295.487 464.598 295.996 464.276 296.584 464.061C297.172 463.837 297.802 463.725 298.474 463.725C299.155 463.725 299.79 463.837 300.378 464.061C300.966 464.276 301.475 464.598 301.904 465.027C302.333 465.456 302.669 465.993 302.912 466.637C303.155 467.272 303.276 468.009 303.276 468.849C303.276 469.68 303.155 470.417 302.912 471.061C302.669 471.705 302.333 472.246 301.904 472.685C301.475 473.124 300.966 473.46 300.378 473.693C299.79 473.917 299.155 474.029 298.474 474.029ZM298.474 472.839C298.959 472.839 299.407 472.769 299.818 472.629C300.229 472.48 300.583 472.251 300.882 471.943C301.19 471.626 301.428 471.215 301.596 470.711C301.773 470.207 301.862 469.596 301.862 468.877C301.862 468.158 301.773 467.547 301.596 467.043C301.428 466.539 301.19 466.133 300.882 465.825C300.583 465.508 300.229 465.279 299.818 465.139C299.407 464.99 298.959 464.915 298.474 464.915C297.989 464.915 297.541 464.99 297.13 465.139C296.719 465.279 296.36 465.508 296.052 465.825C295.753 466.133 295.515 466.539 295.338 467.043C295.17 467.547 295.086 468.158 295.086 468.877C295.086 469.596 295.17 470.207 295.338 470.711C295.515 471.215 295.753 471.626 296.052 471.943C296.36 472.251 296.719 472.48 297.13 472.629C297.541 472.769 297.989 472.839 298.474 472.839ZM308.07 474.029C307.51 474.029 307.001 473.945 306.544 473.777C306.096 473.6 305.713 473.352 305.396 473.035C305.078 472.708 304.836 472.312 304.668 471.845C304.5 471.378 304.416 470.846 304.416 470.249C304.416 469.661 304.5 469.134 304.668 468.667C304.845 468.2 305.092 467.808 305.41 467.491C305.727 467.164 306.114 466.917 306.572 466.749C307.029 466.572 307.547 466.483 308.126 466.483C308.574 466.483 308.984 466.534 309.358 466.637C309.731 466.73 310.039 466.87 310.282 467.057V468.163C309.983 467.967 309.647 467.822 309.274 467.729C308.91 467.626 308.532 467.575 308.14 467.575C307.29 467.575 306.665 467.794 306.264 468.233C305.872 468.672 305.676 469.344 305.676 470.249C305.676 471.154 305.867 471.826 306.25 472.265C306.632 472.704 307.239 472.923 308.07 472.923C308.508 472.923 308.91 472.872 309.274 472.769C309.647 472.657 309.983 472.517 310.282 472.349V473.455C310.02 473.614 309.703 473.749 309.33 473.861C308.966 473.973 308.546 474.029 308.07 474.029ZM314.86 467.673V473.889H313.628V467.673H311.346V466.623H317.184V467.673H314.86ZM322.657 472.503C322.573 472.671 322.465 472.848 322.335 473.035C322.204 473.212 322.041 473.376 321.845 473.525C321.649 473.674 321.415 473.796 321.145 473.889C320.883 473.982 320.575 474.029 320.221 474.029C319.567 474.029 319.04 473.847 318.639 473.483C318.237 473.11 318.037 472.578 318.037 471.887C318.037 471.094 318.312 470.51 318.863 470.137C319.423 469.764 320.216 469.577 321.243 469.577H322.601V468.975C322.601 468.471 322.47 468.112 322.209 467.897C321.947 467.682 321.499 467.575 320.865 467.575C320.417 467.575 319.992 467.65 319.591 467.799C319.189 467.939 318.83 468.102 318.513 468.289V467.183C318.774 467.024 319.124 466.87 319.563 466.721C320.011 466.562 320.501 466.483 321.033 466.483C321.947 466.483 322.643 466.674 323.119 467.057C323.595 467.43 323.833 468.014 323.833 468.807V472.713C323.833 472.797 323.833 472.895 323.833 473.007C323.842 473.11 323.847 473.217 323.847 473.329C323.856 473.441 323.865 473.548 323.875 473.651C323.884 473.744 323.893 473.824 323.903 473.889H322.783C322.755 473.758 322.727 473.576 322.699 473.343C322.68 473.1 322.671 472.89 322.671 472.713L322.657 472.503ZM320.487 472.923C320.869 472.923 321.196 472.844 321.467 472.685C321.737 472.526 321.957 472.344 322.125 472.139C322.293 471.924 322.414 471.719 322.489 471.523C322.563 471.318 322.601 471.173 322.601 471.089V470.557H321.369C320.631 470.557 320.095 470.664 319.759 470.879C319.432 471.084 319.269 471.397 319.269 471.817C319.269 472.144 319.367 472.41 319.563 472.615C319.759 472.82 320.067 472.923 320.487 472.923ZM330.516 470.669H327.002V473.889H325.77V466.623H327.002V469.619H330.516V466.623H331.748V473.889H330.516V470.669ZM338.024 472.503C337.94 472.671 337.832 472.848 337.702 473.035C337.571 473.212 337.408 473.376 337.212 473.525C337.016 473.674 336.782 473.796 336.512 473.889C336.25 473.982 335.942 474.029 335.588 474.029C334.934 474.029 334.407 473.847 334.006 473.483C333.604 473.11 333.404 472.578 333.404 471.887C333.404 471.094 333.679 470.51 334.23 470.137C334.79 469.764 335.583 469.577 336.61 469.577H337.968V468.975C337.968 468.471 337.837 468.112 337.576 467.897C337.314 467.682 336.866 467.575 336.232 467.575C335.784 467.575 335.359 467.65 334.958 467.799C334.556 467.939 334.197 468.102 333.88 468.289V467.183C334.141 467.024 334.491 466.87 334.93 466.721C335.378 466.562 335.868 466.483 336.4 466.483C337.314 466.483 338.01 466.674 338.486 467.057C338.962 467.43 339.2 468.014 339.2 468.807V472.713C339.2 472.797 339.2 472.895 339.2 473.007C339.209 473.11 339.214 473.217 339.214 473.329C339.223 473.441 339.232 473.548 339.242 473.651C339.251 473.744 339.26 473.824 339.27 473.889H338.15C338.122 473.758 338.094 473.576 338.066 473.343C338.047 473.1 338.038 472.89 338.038 472.713L338.024 472.503ZM335.854 472.923C336.236 472.923 336.563 472.844 336.834 472.685C337.104 472.526 337.324 472.344 337.492 472.139C337.66 471.924 337.781 471.719 337.856 471.523C337.93 471.318 337.968 471.173 337.968 471.089V470.557H336.736C335.998 470.557 335.462 470.664 335.126 470.879C334.799 471.084 334.636 471.397 334.636 471.817C334.636 472.144 334.734 472.41 334.93 472.615C335.126 472.82 335.434 472.923 335.854 472.923ZM341.137 466.623H343.853C344.73 466.623 345.393 466.777 345.841 467.085C346.289 467.384 346.513 467.855 346.513 468.499C346.513 468.928 346.401 469.274 346.177 469.535C345.962 469.787 345.654 469.969 345.253 470.081C346.289 470.249 346.807 470.823 346.807 471.803C346.807 472.176 346.732 472.498 346.583 472.769C346.434 473.03 346.228 473.245 345.967 473.413C345.706 473.581 345.388 473.702 345.015 473.777C344.651 473.852 344.254 473.889 343.825 473.889H341.137V466.623ZM342.369 467.673V469.647H343.741C344.208 469.647 344.581 469.563 344.861 469.395C345.15 469.227 345.295 468.984 345.295 468.667C345.295 468.284 345.169 468.023 344.917 467.883C344.665 467.743 344.306 467.673 343.839 467.673H342.369ZM342.369 470.627V472.839H343.811C344.072 472.839 344.306 472.825 344.511 472.797C344.726 472.76 344.908 472.699 345.057 472.615C345.216 472.531 345.337 472.419 345.421 472.279C345.505 472.139 345.547 471.966 345.547 471.761C345.547 471.341 345.402 471.047 345.113 470.879C344.824 470.711 344.39 470.627 343.811 470.627H342.369ZM349.148 471.635C349.279 471.159 349.363 470.515 349.4 469.703C349.437 468.891 349.456 467.864 349.456 466.623H354.342V473.889H353.096V467.673H350.618C350.609 468.672 350.576 469.558 350.52 470.333C350.473 471.108 350.366 471.761 350.198 472.293C350.039 472.825 349.801 473.231 349.484 473.511C349.176 473.782 348.761 473.917 348.238 473.917C348.201 473.917 348.163 473.917 348.126 473.917C348.089 473.917 348.047 473.912 348 473.903V472.685C348.047 472.694 348.107 472.699 348.182 472.699C348.658 472.699 348.98 472.344 349.148 471.635ZM357.572 472.209L361.45 466.623H362.696V473.889H361.464V468.317L357.6 473.889H356.34V466.623H357.572V472.209ZM364.707 466.623H367.423C368.301 466.623 368.963 466.777 369.411 467.085C369.859 467.384 370.083 467.855 370.083 468.499C370.083 468.928 369.971 469.274 369.747 469.535C369.533 469.787 369.225 469.969 368.823 470.081C369.859 470.249 370.377 470.823 370.377 471.803C370.377 472.176 370.303 472.498 370.153 472.769C370.004 473.03 369.799 473.245 369.537 473.413C369.276 473.581 368.959 473.702 368.585 473.777C368.221 473.852 367.825 473.889 367.395 473.889H364.707V466.623ZM365.939 467.673V469.647H367.311C367.778 469.647 368.151 469.563 368.431 469.395C368.721 469.227 368.865 468.984 368.865 468.667C368.865 468.284 368.739 468.023 368.487 467.883C368.235 467.743 367.876 467.673 367.409 467.673H365.939ZM365.939 470.627V472.839H367.381C367.643 472.839 367.876 472.825 368.081 472.797C368.296 472.76 368.478 472.699 368.627 472.615C368.786 472.531 368.907 472.419 368.991 472.279C369.075 472.139 369.117 471.966 369.117 471.761C369.117 471.341 368.973 471.047 368.683 470.879C368.394 470.711 367.96 470.627 367.381 470.627H365.939ZM376.483 472.503C376.399 472.671 376.291 472.848 376.161 473.035C376.03 473.212 375.867 473.376 375.671 473.525C375.475 473.674 375.241 473.796 374.971 473.889C374.709 473.982 374.401 474.029 374.047 474.029C373.393 474.029 372.866 473.847 372.465 473.483C372.063 473.11 371.863 472.578 371.863 471.887C371.863 471.094 372.138 470.51 372.689 470.137C373.249 469.764 374.042 469.577 375.069 469.577H376.427V468.975C376.427 468.471 376.296 468.112 376.035 467.897C375.773 467.682 375.325 467.575 374.691 467.575C374.243 467.575 373.818 467.65 373.417 467.799C373.015 467.939 372.656 468.102 372.339 468.289V467.183C372.6 467.024 372.95 466.87 373.389 466.721C373.837 466.562 374.327 466.483 374.859 466.483C375.773 466.483 376.469 466.674 376.945 467.057C377.421 467.43 377.659 468.014 377.659 468.807V472.713C377.659 472.797 377.659 472.895 377.659 473.007C377.668 473.11 377.673 473.217 377.673 473.329C377.682 473.441 377.691 473.548 377.701 473.651C377.71 473.744 377.719 473.824 377.729 473.889H376.609C376.581 473.758 376.553 473.576 376.525 473.343C376.506 473.1 376.497 472.89 376.497 472.713L376.483 472.503ZM374.313 472.923C374.695 472.923 375.022 472.844 375.293 472.685C375.563 472.526 375.783 472.344 375.951 472.139C376.119 471.924 376.24 471.719 376.315 471.523C376.389 471.318 376.427 471.173 376.427 471.089V470.557H375.195C374.457 470.557 373.921 470.664 373.585 470.879C373.258 471.084 373.095 471.397 373.095 471.817C373.095 472.144 373.193 472.41 373.389 472.615C373.585 472.82 373.893 472.923 374.313 472.923ZM385.378 473.273C385.275 473.348 385.149 473.427 385 473.511C384.851 473.595 384.669 473.679 384.454 473.763C384.239 473.838 383.997 473.898 383.726 473.945C383.455 474.001 383.152 474.029 382.816 474.029C381.593 474.029 380.665 473.698 380.03 473.035C379.395 472.372 379.078 471.444 379.078 470.249C379.078 469.661 379.162 469.134 379.33 468.667C379.507 468.2 379.75 467.808 380.058 467.491C380.366 467.164 380.73 466.917 381.15 466.749C381.57 466.572 382.027 466.483 382.522 466.483C383.045 466.483 383.511 466.572 383.922 466.749C384.333 466.926 384.669 467.188 384.93 467.533C385.201 467.878 385.383 468.308 385.476 468.821C385.579 469.325 385.579 469.913 385.476 470.585H380.352C380.399 471.369 380.632 471.957 381.052 472.349C381.472 472.732 382.097 472.923 382.928 472.923C383.488 472.923 383.969 472.844 384.37 472.685C384.771 472.526 385.107 472.354 385.378 472.167V473.273ZM382.494 467.575C381.962 467.575 381.505 467.738 381.122 468.065C380.739 468.392 380.497 468.886 380.394 469.549H384.3C384.337 468.877 384.183 468.382 383.838 468.065C383.493 467.738 383.045 467.575 382.494 467.575ZM389.987 467.673V473.889H388.755V467.673H386.473V466.623H392.311V467.673H389.987ZM396.664 474.029C396.104 474.029 395.595 473.945 395.138 473.777C394.69 473.6 394.307 473.352 393.99 473.035C393.672 472.708 393.43 472.312 393.262 471.845C393.094 471.378 393.01 470.846 393.01 470.249C393.01 469.661 393.094 469.134 393.262 468.667C393.439 468.2 393.686 467.808 394.004 467.491C394.321 467.164 394.708 466.917 395.166 466.749C395.623 466.572 396.141 466.483 396.72 466.483C397.168 466.483 397.578 466.534 397.952 466.637C398.325 466.73 398.633 466.87 398.876 467.057V468.163C398.577 467.967 398.241 467.822 397.868 467.729C397.504 467.626 397.126 467.575 396.734 467.575C395.884 467.575 395.259 467.794 394.858 468.233C394.466 468.672 394.27 469.344 394.27 470.249C394.27 471.154 394.461 471.826 394.844 472.265C395.226 472.704 395.833 472.923 396.664 472.923C397.102 472.923 397.504 472.872 397.868 472.769C398.241 472.657 398.577 472.517 398.876 472.349V473.455C398.614 473.614 398.297 473.749 397.924 473.861C397.56 473.973 397.14 474.029 396.664 474.029ZM400.528 468.975C400.528 468.564 400.602 468.214 400.752 467.925C400.901 467.626 401.111 467.384 401.382 467.197C401.652 467.001 401.974 466.856 402.348 466.763C402.721 466.67 403.127 466.623 403.566 466.623H405.904V473.889H404.672V471.257H403.342L401.48 473.889H400.01L402.11 470.949C401.606 470.8 401.214 470.571 400.934 470.263C400.663 469.955 400.528 469.526 400.528 468.975ZM404.672 470.207V467.673H403.566C403.043 467.673 402.614 467.771 402.278 467.967C401.942 468.163 401.774 468.48 401.774 468.919C401.774 469.376 401.923 469.708 402.222 469.913C402.52 470.109 402.945 470.207 403.496 470.207H404.672Z" fill="#18123D"/>
<rect x="275" y="531" width="150" height="44" rx="5" fill="#FFF5CC"/>
<path d="M316.179 558.029C315.507 558.029 314.877 557.917 314.289 557.693C313.701 557.46 313.192 557.124 312.763 556.685C312.334 556.246 311.993 555.705 311.741 555.061C311.498 554.417 311.377 553.675 311.377 552.835C311.377 551.995 311.498 551.258 311.741 550.623C311.993 549.979 312.334 549.447 312.763 549.027C313.192 548.598 313.701 548.276 314.289 548.061C314.877 547.837 315.507 547.725 316.179 547.725C316.86 547.725 317.495 547.837 318.083 548.061C318.671 548.276 319.18 548.598 319.609 549.027C320.038 549.456 320.374 549.993 320.617 550.637C320.86 551.272 320.981 552.009 320.981 552.849C320.981 553.68 320.86 554.417 320.617 555.061C320.374 555.705 320.038 556.246 319.609 556.685C319.18 557.124 318.671 557.46 318.083 557.693C317.495 557.917 316.86 558.029 316.179 558.029ZM316.179 556.839C316.664 556.839 317.112 556.769 317.523 556.629C317.934 556.48 318.288 556.251 318.587 555.943C318.895 555.626 319.133 555.215 319.301 554.711C319.478 554.207 319.567 553.596 319.567 552.877C319.567 552.158 319.478 551.547 319.301 551.043C319.133 550.539 318.895 550.133 318.587 549.825C318.288 549.508 317.934 549.279 317.523 549.139C317.112 548.99 316.664 548.915 316.179 548.915C315.694 548.915 315.246 548.99 314.835 549.139C314.424 549.279 314.065 549.508 313.757 549.825C313.458 550.133 313.22 550.539 313.043 551.043C312.875 551.547 312.791 552.158 312.791 552.877C312.791 553.596 312.875 554.207 313.043 554.711C313.22 555.215 313.458 555.626 313.757 555.943C314.065 556.251 314.424 556.48 314.835 556.629C315.246 556.769 315.694 556.839 316.179 556.839ZM325.775 558.029C325.215 558.029 324.706 557.945 324.249 557.777C323.801 557.6 323.418 557.352 323.101 557.035C322.784 556.708 322.541 556.312 322.373 555.845C322.205 555.378 322.121 554.846 322.121 554.249C322.121 553.661 322.205 553.134 322.373 552.667C322.55 552.2 322.798 551.808 323.115 551.491C323.432 551.164 323.82 550.917 324.277 550.749C324.734 550.572 325.252 550.483 325.831 550.483C326.279 550.483 326.69 550.534 327.063 550.637C327.436 550.73 327.744 550.87 327.987 551.057V552.163C327.688 551.967 327.352 551.822 326.979 551.729C326.615 551.626 326.237 551.575 325.845 551.575C324.996 551.575 324.37 551.794 323.969 552.233C323.577 552.672 323.381 553.344 323.381 554.249C323.381 555.154 323.572 555.826 323.955 556.265C324.338 556.704 324.944 556.923 325.775 556.923C326.214 556.923 326.615 556.872 326.979 556.769C327.352 556.657 327.688 556.517 327.987 556.349V557.455C327.726 557.614 327.408 557.749 327.035 557.861C326.671 557.973 326.251 558.029 325.775 558.029ZM332.565 551.673V557.889H331.333V551.673H329.051V550.623H334.889V551.673H332.565ZM340.362 556.503C340.278 556.671 340.17 556.848 340.04 557.035C339.909 557.212 339.746 557.376 339.55 557.525C339.354 557.674 339.12 557.796 338.85 557.889C338.588 557.982 338.28 558.029 337.926 558.029C337.272 558.029 336.745 557.847 336.344 557.483C335.942 557.11 335.742 556.578 335.742 555.887C335.742 555.094 336.017 554.51 336.568 554.137C337.128 553.764 337.921 553.577 338.948 553.577H340.306V552.975C340.306 552.471 340.175 552.112 339.914 551.897C339.652 551.682 339.204 551.575 338.57 551.575C338.122 551.575 337.697 551.65 337.296 551.799C336.894 551.939 336.535 552.102 336.218 552.289V551.183C336.479 551.024 336.829 550.87 337.268 550.721C337.716 550.562 338.206 550.483 338.738 550.483C339.652 550.483 340.348 550.674 340.824 551.057C341.3 551.43 341.538 552.014 341.538 552.807V556.713C341.538 556.797 341.538 556.895 341.538 557.007C341.547 557.11 341.552 557.217 341.552 557.329C341.561 557.441 341.57 557.548 341.58 557.651C341.589 557.744 341.598 557.824 341.608 557.889H340.488C340.46 557.758 340.432 557.576 340.404 557.343C340.385 557.1 340.376 556.89 340.376 556.713L340.362 556.503ZM338.192 556.923C338.574 556.923 338.901 556.844 339.172 556.685C339.442 556.526 339.662 556.344 339.83 556.139C339.998 555.924 340.119 555.719 340.194 555.523C340.268 555.318 340.306 555.173 340.306 555.089V554.557H339.074C338.336 554.557 337.8 554.664 337.464 554.879C337.137 555.084 336.974 555.397 336.974 555.817C336.974 556.144 337.072 556.41 337.268 556.615C337.464 556.82 337.772 556.923 338.192 556.923ZM348.221 554.669H344.707V557.889H343.475V550.623H344.707V553.619H348.221V550.623H349.453V557.889H348.221V554.669ZM354.455 558.029C353.96 558.029 353.498 557.945 353.069 557.777C352.64 557.609 352.266 557.366 351.949 557.049C351.641 556.722 351.398 556.326 351.221 555.859C351.044 555.392 350.955 554.856 350.955 554.249C350.955 553.652 351.044 553.12 351.221 552.653C351.398 552.177 351.641 551.78 351.949 551.463C352.266 551.146 352.64 550.903 353.069 550.735C353.498 550.567 353.96 550.483 354.455 550.483C354.959 550.483 355.426 550.567 355.855 550.735C356.284 550.903 356.653 551.146 356.961 551.463C357.278 551.78 357.526 552.177 357.703 552.653C357.89 553.12 357.983 553.652 357.983 554.249C357.983 554.856 357.89 555.392 357.703 555.859C357.526 556.326 357.278 556.722 356.961 557.049C356.653 557.366 356.284 557.609 355.855 557.777C355.426 557.945 354.959 558.029 354.455 558.029ZM354.455 556.923C354.782 556.923 355.08 556.872 355.351 556.769C355.631 556.657 355.874 556.494 356.079 556.279C356.284 556.055 356.443 555.775 356.555 555.439C356.667 555.103 356.723 554.706 356.723 554.249C356.723 553.792 356.667 553.395 356.555 553.059C356.443 552.723 356.284 552.448 356.079 552.233C355.874 552.009 355.631 551.846 355.351 551.743C355.08 551.631 354.782 551.575 354.455 551.575C354.128 551.575 353.83 551.631 353.559 551.743C353.288 551.846 353.05 552.009 352.845 552.233C352.649 552.448 352.495 552.723 352.383 553.059C352.271 553.395 352.215 553.792 352.215 554.249C352.215 554.706 352.271 555.103 352.383 555.439C352.495 555.775 352.649 556.055 352.845 556.279C353.05 556.494 353.288 556.657 353.559 556.769C353.83 556.872 354.128 556.923 354.455 556.923ZM359.485 550.623H362.201C363.078 550.623 363.741 550.777 364.189 551.085C364.637 551.384 364.861 551.855 364.861 552.499C364.861 552.928 364.749 553.274 364.525 553.535C364.31 553.787 364.002 553.969 363.601 554.081C364.637 554.249 365.155 554.823 365.155 555.803C365.155 556.176 365.08 556.498 364.931 556.769C364.781 557.03 364.576 557.245 364.315 557.413C364.053 557.581 363.736 557.702 363.363 557.777C362.999 557.852 362.602 557.889 362.173 557.889H359.485V550.623ZM360.717 551.673V553.647H362.089C362.555 553.647 362.929 553.563 363.209 553.395C363.498 553.227 363.643 552.984 363.643 552.667C363.643 552.284 363.517 552.023 363.265 551.883C363.013 551.743 362.653 551.673 362.187 551.673H360.717ZM360.717 554.627V556.839H362.159C362.42 556.839 362.653 556.825 362.859 556.797C363.073 556.76 363.255 556.699 363.405 556.615C363.563 556.531 363.685 556.419 363.769 556.279C363.853 556.139 363.895 555.966 363.895 555.761C363.895 555.341 363.75 555.047 363.461 554.879C363.171 554.711 362.737 554.627 362.159 554.627H360.717ZM367.496 555.635C367.626 555.159 367.71 554.515 367.748 553.703C367.785 552.891 367.804 551.864 367.804 550.623H372.69V557.889H371.444V551.673H368.966C368.956 552.672 368.924 553.558 368.868 554.333C368.821 555.108 368.714 555.761 368.546 556.293C368.387 556.825 368.149 557.231 367.832 557.511C367.524 557.782 367.108 557.917 366.586 557.917C366.548 557.917 366.511 557.917 366.474 557.917C366.436 557.917 366.394 557.912 366.348 557.903V556.685C366.394 556.694 366.455 556.699 366.53 556.699C367.006 556.699 367.328 556.344 367.496 555.635ZM380.47 557.273C380.367 557.348 380.241 557.427 380.092 557.511C379.942 557.595 379.76 557.679 379.546 557.763C379.331 557.838 379.088 557.898 378.818 557.945C378.547 558.001 378.244 558.029 377.908 558.029C376.685 558.029 375.756 557.698 375.122 557.035C374.487 556.372 374.17 555.444 374.17 554.249C374.17 553.661 374.254 553.134 374.422 552.667C374.599 552.2 374.842 551.808 375.15 551.491C375.458 551.164 375.822 550.917 376.242 550.749C376.662 550.572 377.119 550.483 377.614 550.483C378.136 550.483 378.603 550.572 379.014 550.749C379.424 550.926 379.76 551.188 380.022 551.533C380.292 551.878 380.474 552.308 380.568 552.821C380.67 553.325 380.67 553.913 380.568 554.585H375.444C375.49 555.369 375.724 555.957 376.144 556.349C376.564 556.732 377.189 556.923 378.02 556.923C378.58 556.923 379.06 556.844 379.462 556.685C379.863 556.526 380.199 556.354 380.47 556.167V557.273ZM377.586 551.575C377.054 551.575 376.596 551.738 376.214 552.065C375.831 552.392 375.588 552.886 375.486 553.549H379.392C379.429 552.877 379.275 552.382 378.93 552.065C378.584 551.738 378.136 551.575 377.586 551.575ZM386.967 554.669H383.453V557.889H382.221V550.623H383.453V553.619H386.967V550.623H388.199V557.889H386.967V554.669Z" fill="#18123D"/>
<path d="M350 175L340 169.227L340 180.774L350 175ZM77 175L77 176L77 175ZM73 195C73 187.689 73 182.986 73 179.993L71 179.993C71 182.986 71 187.689 71 195L73 195ZM77 176L341 176L341 174L77 174L77 176ZM73 179.993C73 177.786 74.789 176 77 176L77 174C73.6881 174 71 176.677 71 179.993L73 179.993Z" fill="#4E496B"/>
<path d="M93 301C85.1199 301 80.126 301 76.9966 301C74.2352 301 72 298.761 72 296L72 195" stroke="#4E496B" stroke-width="2"/>
<path d="M425 133L435 127.227L435 138.774L425 133ZM623 133L623 134L623 133ZM627 153C627 145.689 627 140.986 627 137.993L629 137.993C629 140.986 629 145.689 629 153L627 153ZM623 134L434 134L434 132L623 132L623 134ZM627 137.993C627 135.786 625.211 134 623 134L623 132C626.312 132 629 134.677 629 137.993L627 137.993Z" fill="#4E496B"/>
<path d="M607 301C614.88 301 619.874 301 623.003 301C625.765 301 628 298.761 628 296L628 153" stroke="#4E496B" stroke-width="2"/>
<path d="M425 553C562.987 553 609.422 553 623.016 553C625.777 553 628 550.761 628 548L628 153" stroke="#4E496B" stroke-width="2"/>
<path d="M532 279L526.226 269L537.774 269L532 279ZM531 270C531 267.477 531 265.514 531 263.993L533 263.993C533 265.514 533 267.477 533 270L531 270ZM527 260L376 260L376 258L527 258L527 260ZM531 263.993C531 261.786 529.211 260 527 260L527 258C530.312 258 533 260.677 533 263.993L531 263.993Z" fill="#4E496B"/>
<path d="M350 239C350 246.311 350 251.014 350 254.007C350 256.768 352.239 259 355 259L489 259" stroke="#4E496B" stroke-width="2"/>
<path d="M350 195L344.226 185L355.774 185L350 195ZM349 186L349 155L351 155L351 186L349 186Z" fill="#4E496B"/>
<path d="M350 111L355.774 101L344.226 101L350 111ZM351 102L351 71L349 71L349 102L351 102Z" fill="#4E496B"/>
<path d="M457 301L447 295.226L447 306.774L457 301ZM448 300L425 300L425 302L448 302L448 300Z" fill="#4E496B"/>
<path d="M275 217C269.909 217 266.399 217 263.996 217C261.234 217 259 219.239 259 222L259 327" stroke="#4E496B" stroke-width="2"/>
<path d="M275 385L265 379.226L265 390.774L275 385ZM259 380L260 380L259 380ZM266 384C265.259 384 264.593 384 263.996 384L263.996 386C264.593 386 265.259 386 266 386L266 384ZM260 380L260 327L258 327L258 380L260 380ZM263.996 384C261.788 384 260 382.21 260 380L258 380C258 383.313 260.681 386 263.996 386L263.996 384Z" fill="#4E496B"/>
</svg>
