<svg width="700" height="650" viewBox="0 0 700 650" fill="none" xmlns="http://www.w3.org/2000/svg">
<rect x="276" y="346" width="148" height="42" rx="4" fill="white" stroke="#67B0F8" stroke-width="2"/>
<path d="M304.564 370.699H305.852V374.269H304.634L304.494 371.889H297.284L297.13 374.269H295.94V370.699H296.626C296.943 370.41 297.195 370.022 297.382 369.537C297.578 369.042 297.727 368.436 297.83 367.717C297.932 366.998 298.007 366.154 298.054 365.183C298.1 364.212 298.138 363.102 298.166 361.851H304.564V370.699ZM303.234 370.699V363.055H299.398C299.37 364.119 299.328 365.062 299.272 365.883C299.225 366.695 299.15 367.409 299.048 368.025C298.954 368.641 298.833 369.168 298.684 369.607C298.544 370.036 298.366 370.4 298.152 370.699H303.234ZM313.129 371.273C313.026 371.348 312.9 371.427 312.751 371.511C312.602 371.595 312.42 371.679 312.205 371.763C311.99 371.838 311.748 371.898 311.477 371.945C311.206 372.001 310.903 372.029 310.567 372.029C309.344 372.029 308.416 371.698 307.781 371.035C307.146 370.372 306.829 369.444 306.829 368.249C306.829 367.661 306.913 367.134 307.081 366.667C307.258 366.2 307.501 365.808 307.809 365.491C308.117 365.164 308.481 364.917 308.901 364.749C309.321 364.572 309.778 364.483 310.273 364.483C310.796 364.483 311.262 364.572 311.673 364.749C312.084 364.926 312.42 365.188 312.681 365.533C312.952 365.878 313.134 366.308 313.227 366.821C313.33 367.325 313.33 367.913 313.227 368.585H308.103C308.15 369.369 308.383 369.957 308.803 370.349C309.223 370.732 309.848 370.923 310.679 370.923C311.239 370.923 311.72 370.844 312.121 370.685C312.522 370.526 312.858 370.354 313.129 370.167V371.273ZM310.245 365.575C309.713 365.575 309.256 365.738 308.873 366.065C308.49 366.392 308.248 366.886 308.145 367.549H312.051C312.088 366.877 311.934 366.382 311.589 366.065C311.244 365.738 310.796 365.575 310.245 365.575ZM319.136 370.503C319.052 370.671 318.945 370.848 318.814 371.035C318.683 371.212 318.52 371.376 318.324 371.525C318.128 371.674 317.895 371.796 317.624 371.889C317.363 371.982 317.055 372.029 316.7 372.029C316.047 372.029 315.519 371.847 315.118 371.483C314.717 371.11 314.516 370.578 314.516 369.887C314.516 369.094 314.791 368.51 315.342 368.137C315.902 367.764 316.695 367.577 317.722 367.577H319.08V366.975C319.08 366.471 318.949 366.112 318.688 365.897C318.427 365.682 317.979 365.575 317.344 365.575C316.896 365.575 316.471 365.65 316.07 365.799C315.669 365.939 315.309 366.102 314.992 366.289V365.183C315.253 365.024 315.603 364.87 316.042 364.721C316.49 364.562 316.98 364.483 317.512 364.483C318.427 364.483 319.122 364.674 319.598 365.057C320.074 365.43 320.312 366.014 320.312 366.807V370.713C320.312 370.797 320.312 370.895 320.312 371.007C320.321 371.11 320.326 371.217 320.326 371.329C320.335 371.441 320.345 371.548 320.354 371.651C320.363 371.744 320.373 371.824 320.382 371.889H319.262C319.234 371.758 319.206 371.576 319.178 371.343C319.159 371.1 319.15 370.89 319.15 370.713L319.136 370.503ZM316.966 370.923C317.349 370.923 317.675 370.844 317.946 370.685C318.217 370.526 318.436 370.344 318.604 370.139C318.772 369.924 318.893 369.719 318.968 369.523C319.043 369.318 319.08 369.173 319.08 369.089V368.557H317.848C317.111 368.557 316.574 368.664 316.238 368.879C315.911 369.084 315.748 369.397 315.748 369.817C315.748 370.144 315.846 370.41 316.042 370.615C316.238 370.82 316.546 370.923 316.966 370.923ZM324.125 368.795H323.481V371.889H322.249V364.623H323.481V367.745H324.181L326.729 364.623H328.129L325.147 368.207L328.185 371.889H326.687L324.125 368.795ZM332.408 365.673V371.889H331.176V365.673H328.894V364.623H334.732V365.673H332.408ZM337.386 370.209L341.264 364.623H342.51V371.889H341.278V366.317L337.414 371.889H336.154V364.623H337.386V370.209ZM344.521 364.623H347.237C348.114 364.623 348.777 364.777 349.225 365.085C349.673 365.384 349.897 365.855 349.897 366.499C349.897 366.928 349.785 367.274 349.561 367.535C349.346 367.787 349.038 367.969 348.637 368.081C349.673 368.249 350.191 368.823 350.191 369.803C350.191 370.176 350.116 370.498 349.967 370.769C349.817 371.03 349.612 371.245 349.351 371.413C349.089 371.581 348.772 371.702 348.399 371.777C348.035 371.852 347.638 371.889 347.209 371.889H344.521V364.623ZM345.753 365.673V367.647H347.125C347.591 367.647 347.965 367.563 348.245 367.395C348.534 367.227 348.679 366.984 348.679 366.667C348.679 366.284 348.553 366.023 348.301 365.883C348.049 365.743 347.689 365.673 347.223 365.673H345.753ZM345.753 368.627V370.839H347.195C347.456 370.839 347.689 370.825 347.895 370.797C348.109 370.76 348.291 370.699 348.441 370.615C348.599 370.531 348.721 370.419 348.805 370.279C348.889 370.139 348.931 369.966 348.931 369.761C348.931 369.341 348.786 369.047 348.497 368.879C348.207 368.711 347.773 368.627 347.195 368.627H345.753ZM353.272 370.209L357.15 364.623H358.396V371.889H357.164V366.317L353.3 371.889H352.04V364.623H353.272V370.209ZM364.061 372.029C363.501 372.029 363.016 371.898 362.605 371.637C362.204 371.376 361.882 371.016 361.639 370.559V374.367H360.407V364.623H361.485L361.611 366.037C361.854 365.561 362.181 365.183 362.591 364.903C363.002 364.623 363.511 364.483 364.117 364.483C364.537 364.483 364.939 364.562 365.321 364.721C365.713 364.87 366.054 365.104 366.343 365.421C366.642 365.729 366.875 366.121 367.043 366.597C367.221 367.064 367.309 367.614 367.309 368.249C367.309 368.893 367.221 369.453 367.043 369.929C366.866 370.396 366.628 370.788 366.329 371.105C366.031 371.413 365.685 371.646 365.293 371.805C364.901 371.954 364.491 372.029 364.061 372.029ZM363.879 370.923C364.523 370.923 365.041 370.704 365.433 370.265C365.835 369.817 366.035 369.145 366.035 368.249C366.035 367.372 365.835 366.709 365.433 366.261C365.041 365.804 364.523 365.575 363.879 365.575C363.562 365.575 363.263 365.631 362.983 365.743C362.713 365.855 362.475 366.023 362.269 366.247C362.073 366.462 361.915 366.737 361.793 367.073C361.681 367.409 361.625 367.801 361.625 368.249C361.625 368.697 361.681 369.089 361.793 369.425C361.915 369.761 362.073 370.041 362.269 370.265C362.475 370.489 362.713 370.657 362.983 370.769C363.263 370.872 363.562 370.923 363.879 370.923ZM371.784 372.029C371.289 372.029 370.827 371.945 370.398 371.777C369.969 371.609 369.595 371.366 369.278 371.049C368.97 370.722 368.727 370.326 368.55 369.859C368.373 369.392 368.284 368.856 368.284 368.249C368.284 367.652 368.373 367.12 368.55 366.653C368.727 366.177 368.97 365.78 369.278 365.463C369.595 365.146 369.969 364.903 370.398 364.735C370.827 364.567 371.289 364.483 371.784 364.483C372.288 364.483 372.755 364.567 373.184 364.735C373.613 364.903 373.982 365.146 374.29 365.463C374.607 365.78 374.855 366.177 375.032 366.653C375.219 367.12 375.312 367.652 375.312 368.249C375.312 368.856 375.219 369.392 375.032 369.859C374.855 370.326 374.607 370.722 374.29 371.049C373.982 371.366 373.613 371.609 373.184 371.777C372.755 371.945 372.288 372.029 371.784 372.029ZM371.784 370.923C372.111 370.923 372.409 370.872 372.68 370.769C372.96 370.657 373.203 370.494 373.408 370.279C373.613 370.055 373.772 369.775 373.884 369.439C373.996 369.103 374.052 368.706 374.052 368.249C374.052 367.792 373.996 367.395 373.884 367.059C373.772 366.723 373.613 366.448 373.408 366.233C373.203 366.009 372.96 365.846 372.68 365.743C372.409 365.631 372.111 365.575 371.784 365.575C371.457 365.575 371.159 365.631 370.888 365.743C370.617 365.846 370.379 366.009 370.174 366.233C369.978 366.448 369.824 366.723 369.712 367.059C369.6 367.395 369.544 367.792 369.544 368.249C369.544 368.706 369.6 369.103 369.712 369.439C369.824 369.775 369.978 370.055 370.174 370.279C370.379 370.494 370.617 370.657 370.888 370.769C371.159 370.872 371.457 370.923 371.784 370.923ZM376.814 364.623H379.53C380.407 364.623 381.07 364.777 381.518 365.085C381.966 365.384 382.19 365.855 382.19 366.499C382.19 366.928 382.078 367.274 381.854 367.535C381.639 367.787 381.331 367.969 380.93 368.081C381.966 368.249 382.484 368.823 382.484 369.803C382.484 370.176 382.409 370.498 382.26 370.769C382.11 371.03 381.905 371.245 381.644 371.413C381.382 371.581 381.065 371.702 380.692 371.777C380.328 371.852 379.931 371.889 379.502 371.889H376.814V364.623ZM378.046 365.673V367.647H379.418C379.884 367.647 380.258 367.563 380.538 367.395C380.827 367.227 380.972 366.984 380.972 366.667C380.972 366.284 380.846 366.023 380.594 365.883C380.342 365.743 379.982 365.673 379.516 365.673H378.046ZM378.046 368.627V370.839H379.488C379.749 370.839 379.982 370.825 380.188 370.797C380.402 370.76 380.584 370.699 380.734 370.615C380.892 370.531 381.014 370.419 381.098 370.279C381.182 370.139 381.224 369.966 381.224 369.761C381.224 369.341 381.079 369.047 380.79 368.879C380.5 368.711 380.066 368.627 379.488 368.627H378.046ZM388.589 370.503C388.505 370.671 388.398 370.848 388.267 371.035C388.137 371.212 387.973 371.376 387.777 371.525C387.581 371.674 387.348 371.796 387.077 371.889C386.816 371.982 386.508 372.029 386.153 372.029C385.5 372.029 384.973 371.847 384.571 371.483C384.17 371.11 383.969 370.578 383.969 369.887C383.969 369.094 384.245 368.51 384.795 368.137C385.355 367.764 386.149 367.577 387.175 367.577H388.533V366.975C388.533 366.471 388.403 366.112 388.141 365.897C387.88 365.682 387.432 365.575 386.797 365.575C386.349 365.575 385.925 365.65 385.523 365.799C385.122 365.939 384.763 366.102 384.445 366.289V365.183C384.707 365.024 385.057 364.87 385.495 364.721C385.943 364.562 386.433 364.483 386.965 364.483C387.88 364.483 388.575 364.674 389.051 365.057C389.527 365.43 389.765 366.014 389.765 366.807V370.713C389.765 370.797 389.765 370.895 389.765 371.007C389.775 371.11 389.779 371.217 389.779 371.329C389.789 371.441 389.798 371.548 389.807 371.651C389.817 371.744 389.826 371.824 389.835 371.889H388.715C388.687 371.758 388.659 371.576 388.631 371.343C388.613 371.1 388.603 370.89 388.603 370.713L388.589 370.503ZM386.419 370.923C386.802 370.923 387.129 370.844 387.399 370.685C387.67 370.526 387.889 370.344 388.057 370.139C388.225 369.924 388.347 369.719 388.421 369.523C388.496 369.318 388.533 369.173 388.533 369.089V368.557H387.301C386.564 368.557 386.027 368.664 385.691 368.879C385.365 369.084 385.201 369.397 385.201 369.817C385.201 370.144 385.299 370.41 385.495 370.615C385.691 370.82 385.999 370.923 386.419 370.923ZM394.56 365.673V371.889H393.328V365.673H391.046V364.623H396.884V365.673H394.56ZM403.71 369.467C403.71 369.887 403.635 370.251 403.486 370.559C403.337 370.867 403.127 371.119 402.856 371.315C402.585 371.511 402.263 371.656 401.89 371.749C401.517 371.842 401.111 371.889 400.672 371.889H398.264V364.623H399.496V367.157H400.756C401.68 367.157 402.403 367.339 402.926 367.703C403.449 368.067 403.71 368.655 403.71 369.467ZM399.496 368.207V370.839H400.672C401.204 370.839 401.633 370.741 401.96 370.545C402.296 370.34 402.464 370.004 402.464 369.537C402.464 369.061 402.315 368.72 402.016 368.515C401.717 368.31 401.297 368.207 400.756 368.207H399.496Z" fill="#18123D"/>
<rect x="94" y="261" width="148" height="42" rx="4" fill="white" stroke="#67B0F8" stroke-width="2"/>
<path d="M119.882 276.851H127.428V286.889H126.098V278.055H121.198V286.889H119.882V276.851ZM135.381 286.273C135.278 286.348 135.152 286.427 135.003 286.511C134.854 286.595 134.672 286.679 134.457 286.763C134.242 286.838 134 286.898 133.729 286.945C133.458 287.001 133.155 287.029 132.819 287.029C131.596 287.029 130.668 286.698 130.033 286.035C129.398 285.372 129.081 284.444 129.081 283.249C129.081 282.661 129.165 282.134 129.333 281.667C129.51 281.2 129.753 280.808 130.061 280.491C130.369 280.164 130.733 279.917 131.153 279.749C131.573 279.572 132.03 279.483 132.525 279.483C133.048 279.483 133.514 279.572 133.925 279.749C134.336 279.926 134.672 280.188 134.933 280.533C135.204 280.878 135.386 281.308 135.479 281.821C135.582 282.325 135.582 282.913 135.479 283.585H130.355C130.402 284.369 130.635 284.957 131.055 285.349C131.475 285.732 132.1 285.923 132.931 285.923C133.491 285.923 133.972 285.844 134.373 285.685C134.774 285.526 135.11 285.354 135.381 285.167V286.273ZM132.497 280.575C131.965 280.575 131.508 280.738 131.125 281.065C130.742 281.392 130.5 281.886 130.397 282.549H134.303C134.34 281.877 134.186 281.382 133.841 281.065C133.496 280.738 133.048 280.575 132.497 280.575ZM140.786 287.029C140.226 287.029 139.741 286.898 139.33 286.637C138.929 286.376 138.607 286.016 138.364 285.559V289.367H137.132V279.623H138.21L138.336 281.037C138.579 280.561 138.905 280.183 139.316 279.903C139.727 279.623 140.235 279.483 140.842 279.483C141.262 279.483 141.663 279.562 142.046 279.721C142.438 279.87 142.779 280.104 143.068 280.421C143.367 280.729 143.6 281.121 143.768 281.597C143.945 282.064 144.034 282.614 144.034 283.249C144.034 283.893 143.945 284.453 143.768 284.929C143.591 285.396 143.353 285.788 143.054 286.105C142.755 286.413 142.41 286.646 142.018 286.805C141.626 286.954 141.215 287.029 140.786 287.029ZM140.604 285.923C141.248 285.923 141.766 285.704 142.158 285.265C142.559 284.817 142.76 284.145 142.76 283.249C142.76 282.372 142.559 281.709 142.158 281.261C141.766 280.804 141.248 280.575 140.604 280.575C140.287 280.575 139.988 280.631 139.708 280.743C139.437 280.855 139.199 281.023 138.994 281.247C138.798 281.462 138.639 281.737 138.518 282.073C138.406 282.409 138.35 282.801 138.35 283.249C138.35 283.697 138.406 284.089 138.518 284.425C138.639 284.761 138.798 285.041 138.994 285.265C139.199 285.489 139.437 285.657 139.708 285.769C139.988 285.872 140.287 285.923 140.604 285.923ZM151.309 286.273C151.206 286.348 151.08 286.427 150.931 286.511C150.781 286.595 150.599 286.679 150.385 286.763C150.17 286.838 149.927 286.898 149.657 286.945C149.386 287.001 149.083 287.029 148.747 287.029C147.524 287.029 146.595 286.698 145.961 286.035C145.326 285.372 145.009 284.444 145.009 283.249C145.009 282.661 145.093 282.134 145.261 281.667C145.438 281.2 145.681 280.808 145.989 280.491C146.297 280.164 146.661 279.917 147.081 279.749C147.501 279.572 147.958 279.483 148.453 279.483C148.975 279.483 149.442 279.572 149.853 279.749C150.263 279.926 150.599 280.188 150.861 280.533C151.131 280.878 151.313 281.308 151.407 281.821C151.509 282.325 151.509 282.913 151.407 283.585H146.283C146.329 284.369 146.563 284.957 146.983 285.349C147.403 285.732 148.028 285.923 148.859 285.923C149.419 285.923 149.899 285.844 150.301 285.685C150.702 285.526 151.038 285.354 151.309 285.167V286.273ZM148.425 280.575C147.893 280.575 147.435 280.738 147.053 281.065C146.67 281.392 146.427 281.886 146.325 282.549H150.231C150.268 281.877 150.114 281.382 149.769 281.065C149.423 280.738 148.975 280.575 148.425 280.575ZM158.212 284.775C158.212 285.186 158.128 285.536 157.96 285.825C157.801 286.105 157.582 286.338 157.302 286.525C157.022 286.702 156.695 286.828 156.322 286.903C155.958 286.987 155.575 287.029 155.174 287.029C154.642 287.029 154.17 286.973 153.76 286.861C153.358 286.749 153.041 286.614 152.808 286.455V285.349C153.097 285.526 153.442 285.666 153.844 285.769C154.245 285.872 154.679 285.923 155.146 285.923C155.678 285.923 156.121 285.839 156.476 285.671C156.84 285.494 157.022 285.195 157.022 284.775C157.022 284.364 156.868 284.075 156.56 283.907C156.261 283.739 155.799 283.655 155.174 283.655H154.208V282.661H155.216C155.729 282.661 156.121 282.568 156.392 282.381C156.662 282.194 156.798 281.924 156.798 281.569C156.798 281.382 156.751 281.228 156.658 281.107C156.574 280.976 156.457 280.874 156.308 280.799C156.158 280.715 155.981 280.659 155.776 280.631C155.58 280.594 155.37 280.575 155.146 280.575C154.716 280.575 154.315 280.626 153.942 280.729C153.578 280.832 153.246 280.976 152.948 281.163V280.057C153.19 279.898 153.503 279.763 153.886 279.651C154.278 279.539 154.73 279.483 155.244 279.483C156.13 279.483 156.798 279.651 157.246 279.987C157.703 280.323 157.932 280.808 157.932 281.443C157.932 281.919 157.801 282.292 157.54 282.563C157.288 282.834 156.928 283.02 156.462 283.123C157.04 283.198 157.474 283.38 157.764 283.669C158.062 283.958 158.212 284.327 158.212 284.775ZM164.275 285.503C164.191 285.671 164.083 285.848 163.953 286.035C163.822 286.212 163.659 286.376 163.463 286.525C163.267 286.674 163.033 286.796 162.763 286.889C162.501 286.982 162.193 287.029 161.839 287.029C161.185 287.029 160.658 286.847 160.257 286.483C159.855 286.11 159.655 285.578 159.655 284.887C159.655 284.094 159.93 283.51 160.481 283.137C161.041 282.764 161.834 282.577 162.861 282.577H164.219V281.975C164.219 281.471 164.088 281.112 163.827 280.897C163.565 280.682 163.117 280.575 162.483 280.575C162.035 280.575 161.61 280.65 161.209 280.799C160.807 280.939 160.448 281.102 160.131 281.289V280.183C160.392 280.024 160.742 279.87 161.181 279.721C161.629 279.562 162.119 279.483 162.651 279.483C163.565 279.483 164.261 279.674 164.737 280.057C165.213 280.43 165.451 281.014 165.451 281.807V285.713C165.451 285.797 165.451 285.895 165.451 286.007C165.46 286.11 165.465 286.217 165.465 286.329C165.474 286.441 165.483 286.548 165.493 286.651C165.502 286.744 165.511 286.824 165.521 286.889H164.401C164.373 286.758 164.345 286.576 164.317 286.343C164.298 286.1 164.289 285.89 164.289 285.713L164.275 285.503ZM162.105 285.923C162.487 285.923 162.814 285.844 163.085 285.685C163.355 285.526 163.575 285.344 163.743 285.139C163.911 284.924 164.032 284.719 164.107 284.523C164.181 284.318 164.219 284.173 164.219 284.089V283.557H162.987C162.249 283.557 161.713 283.664 161.377 283.879C161.05 284.084 160.887 284.397 160.887 284.817C160.887 285.144 160.985 285.41 161.181 285.615C161.377 285.82 161.685 285.923 162.105 285.923ZM167.388 279.623H172.008V280.673H168.62V286.889H167.388V279.623ZM177.153 287.029C176.593 287.029 176.108 286.898 175.697 286.637C175.296 286.376 174.974 286.016 174.731 285.559V289.367H173.499V279.623H174.577L174.703 281.037C174.946 280.561 175.273 280.183 175.683 279.903C176.094 279.623 176.603 279.483 177.209 279.483C177.629 279.483 178.031 279.562 178.413 279.721C178.805 279.87 179.146 280.104 179.435 280.421C179.734 280.729 179.967 281.121 180.135 281.597C180.313 282.064 180.401 282.614 180.401 283.249C180.401 283.893 180.313 284.453 180.135 284.929C179.958 285.396 179.72 285.788 179.421 286.105C179.123 286.413 178.777 286.646 178.385 286.805C177.993 286.954 177.583 287.029 177.153 287.029ZM176.971 285.923C177.615 285.923 178.133 285.704 178.525 285.265C178.927 284.817 179.127 284.145 179.127 283.249C179.127 282.372 178.927 281.709 178.525 281.261C178.133 280.804 177.615 280.575 176.971 280.575C176.654 280.575 176.355 280.631 176.075 280.743C175.805 280.855 175.567 281.023 175.361 281.247C175.165 281.462 175.007 281.737 174.885 282.073C174.773 282.409 174.717 282.801 174.717 283.249C174.717 283.697 174.773 284.089 174.885 284.425C175.007 284.761 175.165 285.041 175.361 285.265C175.567 285.489 175.805 285.657 176.075 285.769C176.355 285.872 176.654 285.923 176.971 285.923ZM185.395 286.805C185.227 287.244 185.05 287.626 184.863 287.953C184.677 288.289 184.467 288.574 184.233 288.807C184 289.04 183.739 289.213 183.449 289.325C183.16 289.446 182.829 289.507 182.455 289.507C182.269 289.507 182.096 289.493 181.937 289.465C181.779 289.446 181.634 289.409 181.503 289.353V288.163C181.606 288.238 181.737 288.294 181.895 288.331C182.054 288.378 182.227 288.401 182.413 288.401C182.759 288.401 183.043 288.317 183.267 288.149C183.491 287.99 183.706 287.734 183.911 287.379L180.957 279.623H182.315L184.625 285.755L186.921 279.623H188.111L185.395 286.805ZM194.483 284.775C194.483 285.186 194.399 285.536 194.231 285.825C194.073 286.105 193.853 286.338 193.573 286.525C193.293 286.702 192.967 286.828 192.593 286.903C192.229 286.987 191.847 287.029 191.445 287.029C190.913 287.029 190.442 286.973 190.031 286.861C189.63 286.749 189.313 286.614 189.079 286.455V285.349C189.369 285.526 189.714 285.666 190.115 285.769C190.517 285.872 190.951 285.923 191.417 285.923C191.949 285.923 192.393 285.839 192.747 285.671C193.111 285.494 193.293 285.195 193.293 284.775C193.293 284.364 193.139 284.075 192.831 283.907C192.533 283.739 192.071 283.655 191.445 283.655H190.479V282.661H191.487C192.001 282.661 192.393 282.568 192.663 282.381C192.934 282.194 193.069 281.924 193.069 281.569C193.069 281.382 193.023 281.228 192.929 281.107C192.845 280.976 192.729 280.874 192.579 280.799C192.43 280.715 192.253 280.659 192.047 280.631C191.851 280.594 191.641 280.575 191.417 280.575C190.988 280.575 190.587 280.626 190.213 280.729C189.849 280.832 189.518 280.976 189.219 281.163V280.057C189.462 279.898 189.775 279.763 190.157 279.651C190.549 279.539 191.002 279.483 191.515 279.483C192.402 279.483 193.069 279.651 193.517 279.987C193.975 280.323 194.203 280.808 194.203 281.443C194.203 281.919 194.073 282.292 193.811 282.563C193.559 282.834 193.2 283.02 192.733 283.123C193.312 283.198 193.746 283.38 194.035 283.669C194.334 283.958 194.483 284.327 194.483 284.775ZM197.522 285.209L201.4 279.623H202.646V286.889H201.414V281.317L197.55 286.889H196.29V279.623H197.522V285.209ZM207.583 280.673V286.889H206.351V280.673H204.069V279.623H209.907V280.673H207.583ZM216.733 284.467C216.733 284.887 216.659 285.251 216.509 285.559C216.36 285.867 216.15 286.119 215.879 286.315C215.609 286.511 215.287 286.656 214.913 286.749C214.54 286.842 214.134 286.889 213.695 286.889H211.287V279.623H212.519V282.157H213.779C214.703 282.157 215.427 282.339 215.949 282.703C216.472 283.067 216.733 283.655 216.733 284.467ZM212.519 283.207V285.839H213.695C214.227 285.839 214.657 285.741 214.983 285.545C215.319 285.34 215.487 285.004 215.487 284.537C215.487 284.061 215.338 283.72 215.039 283.515C214.741 283.31 214.321 283.207 213.779 283.207H212.519Z" fill="#18123D"/>
<rect x="457" y="261" width="150" height="44" rx="5" fill="#FFDADA"/>
<path d="M510.996 288.029C510.324 288.029 509.694 287.917 509.106 287.693C508.518 287.46 508.01 287.124 507.58 286.685C507.151 286.246 506.81 285.705 506.558 285.061C506.316 284.417 506.194 283.675 506.194 282.835C506.194 281.995 506.316 281.258 506.558 280.623C506.81 279.979 507.151 279.447 507.58 279.027C508.01 278.598 508.518 278.276 509.106 278.061C509.694 277.837 510.324 277.725 510.996 277.725C511.678 277.725 512.312 277.837 512.9 278.061C513.488 278.276 513.997 278.598 514.426 279.027C514.856 279.456 515.192 279.993 515.434 280.637C515.677 281.272 515.798 282.009 515.798 282.849C515.798 283.68 515.677 284.417 515.434 285.061C515.192 285.705 514.856 286.246 514.426 286.685C513.997 287.124 513.488 287.46 512.9 287.693C512.312 287.917 511.678 288.029 510.996 288.029ZM510.996 286.839C511.482 286.839 511.93 286.769 512.34 286.629C512.751 286.48 513.106 286.251 513.404 285.943C513.712 285.626 513.95 285.215 514.118 284.711C514.296 284.207 514.384 283.596 514.384 282.877C514.384 282.158 514.296 281.547 514.118 281.043C513.95 280.539 513.712 280.133 513.404 279.825C513.106 279.508 512.751 279.279 512.34 279.139C511.93 278.99 511.482 278.915 510.996 278.915C510.511 278.915 510.063 278.99 509.652 279.139C509.242 279.279 508.882 279.508 508.574 279.825C508.276 280.133 508.038 280.539 507.86 281.043C507.692 281.547 507.608 282.158 507.608 282.877C507.608 283.596 507.692 284.207 507.86 284.711C508.038 285.215 508.276 285.626 508.574 285.943C508.882 286.251 509.242 286.48 509.652 286.629C510.063 286.769 510.511 286.839 510.996 286.839ZM526.46 287.889H517.388V280.623H518.62V286.839H521.308V280.623H522.54V286.839H525.228V280.623H526.46V287.889ZM529.708 286.209L533.586 280.623H534.832V287.889H533.6V282.317L529.736 287.889H528.476V280.623H529.708V286.209ZM543.395 284.249C543.395 284.856 543.302 285.392 543.115 285.859C542.938 286.326 542.69 286.722 542.373 287.049C542.065 287.366 541.696 287.609 541.267 287.777C540.838 287.945 540.371 288.029 539.867 288.029C539.354 288.029 538.882 287.945 538.453 287.777C538.024 287.6 537.655 287.334 537.347 286.979C537.039 286.624 536.796 286.176 536.619 285.635C536.451 285.094 536.367 284.454 536.367 283.717C536.367 283.11 536.386 282.532 536.423 281.981C536.46 281.43 536.544 280.922 536.675 280.455C536.806 279.979 536.992 279.554 537.235 279.181C537.487 278.798 537.823 278.481 538.243 278.229C538.476 278.089 538.719 277.986 538.971 277.921C539.223 277.846 539.475 277.79 539.727 277.753C539.988 277.716 540.25 277.692 540.511 277.683C540.772 277.674 541.029 277.664 541.281 277.655C541.654 277.627 541.967 277.58 542.219 277.515C542.471 277.45 542.695 277.361 542.891 277.249V278.369C542.686 278.5 542.466 278.593 542.233 278.649C542.009 278.696 541.734 278.738 541.407 278.775C540.875 278.822 540.385 278.859 539.937 278.887C539.498 278.906 539.097 279.008 538.733 279.195C538.266 279.456 537.935 279.848 537.739 280.371C537.552 280.884 537.436 281.496 537.389 282.205C537.874 281.085 538.789 280.525 540.133 280.525C540.59 280.525 541.015 280.609 541.407 280.777C541.808 280.936 542.154 281.174 542.443 281.491C542.742 281.808 542.975 282.2 543.143 282.667C543.311 283.124 543.395 283.652 543.395 284.249ZM539.867 286.923C540.194 286.923 540.492 286.872 540.763 286.769C541.043 286.657 541.286 286.494 541.491 286.279C541.696 286.055 541.855 285.775 541.967 285.439C542.079 285.103 542.135 284.706 542.135 284.249C542.135 283.792 542.079 283.395 541.967 283.059C541.855 282.723 541.696 282.448 541.491 282.233C541.286 282.009 541.043 281.846 540.763 281.743C540.492 281.631 540.194 281.575 539.867 281.575C539.223 281.575 538.686 281.79 538.257 282.219C537.837 282.648 537.627 283.311 537.627 284.207C537.627 284.674 537.683 285.08 537.795 285.425C537.907 285.761 538.061 286.041 538.257 286.265C538.462 286.489 538.7 286.657 538.971 286.769C539.242 286.872 539.54 286.923 539.867 286.923ZM546.813 284.795H546.169V287.889H544.937V280.623H546.169V283.745H546.869L549.417 280.623H550.817L547.835 284.207L550.873 287.889H549.375L546.813 284.795ZM556.288 286.503C556.204 286.671 556.097 286.848 555.966 287.035C555.836 287.212 555.672 287.376 555.476 287.525C555.28 287.674 555.047 287.796 554.776 287.889C554.515 287.982 554.207 288.029 553.852 288.029C553.199 288.029 552.672 287.847 552.27 287.483C551.869 287.11 551.668 286.578 551.668 285.887C551.668 285.094 551.944 284.51 552.494 284.137C553.054 283.764 553.848 283.577 554.874 283.577H556.232V282.975C556.232 282.471 556.102 282.112 555.84 281.897C555.579 281.682 555.131 281.575 554.496 281.575C554.048 281.575 553.624 281.65 553.222 281.799C552.821 281.939 552.462 282.102 552.144 282.289V281.183C552.406 281.024 552.756 280.87 553.194 280.721C553.642 280.562 554.132 280.483 554.664 280.483C555.579 280.483 556.274 280.674 556.75 281.057C557.226 281.43 557.464 282.014 557.464 282.807V286.713C557.464 286.797 557.464 286.895 557.464 287.007C557.474 287.11 557.478 287.217 557.478 287.329C557.488 287.441 557.497 287.548 557.506 287.651C557.516 287.744 557.525 287.824 557.534 287.889H556.414C556.386 287.758 556.358 287.576 556.33 287.343C556.312 287.1 556.302 286.89 556.302 286.713L556.288 286.503ZM554.118 286.923C554.501 286.923 554.828 286.844 555.098 286.685C555.369 286.526 555.588 286.344 555.756 286.139C555.924 285.924 556.046 285.719 556.12 285.523C556.195 285.318 556.232 285.173 556.232 285.089V284.557H555C554.263 284.557 553.726 284.664 553.39 284.879C553.064 285.084 552.9 285.397 552.9 285.817C552.9 286.144 552.998 286.41 553.194 286.615C553.39 286.82 553.698 286.923 554.118 286.923Z" fill="#18123D"/>
<rect x="275" y="177" width="150" height="44" rx="5" fill="#D3E3FC"/>
<path d="M321.494 204.029C320.747 204.029 320.071 203.912 319.464 203.679C318.857 203.446 318.335 203.11 317.896 202.671C317.467 202.223 317.135 201.682 316.902 201.047C316.669 200.403 316.552 199.68 316.552 198.877C316.552 198.065 316.659 197.342 316.874 196.707C317.089 196.072 317.406 195.536 317.826 195.097C318.246 194.649 318.759 194.308 319.366 194.075C319.982 193.842 320.682 193.725 321.466 193.725C322.147 193.725 322.745 193.8 323.258 193.949C323.771 194.089 324.191 194.257 324.518 194.453V195.713C324.098 195.442 323.613 195.242 323.062 195.111C322.521 194.98 321.984 194.915 321.452 194.915C320.267 194.915 319.389 195.246 318.82 195.909C318.26 196.562 317.98 197.552 317.98 198.877C317.98 200.212 318.283 201.206 318.89 201.859C319.506 202.512 320.411 202.839 321.606 202.839C322.119 202.839 322.619 202.769 323.104 202.629C323.599 202.489 324.07 202.251 324.518 201.915V203.175C324.247 203.39 323.851 203.586 323.328 203.763C322.815 203.94 322.203 204.029 321.494 204.029ZM329.278 204.029C328.783 204.029 328.321 203.945 327.892 203.777C327.463 203.609 327.089 203.366 326.772 203.049C326.464 202.722 326.221 202.326 326.044 201.859C325.867 201.392 325.778 200.856 325.778 200.249C325.778 199.652 325.867 199.12 326.044 198.653C326.221 198.177 326.464 197.78 326.772 197.463C327.089 197.146 327.463 196.903 327.892 196.735C328.321 196.567 328.783 196.483 329.278 196.483C329.782 196.483 330.249 196.567 330.678 196.735C331.107 196.903 331.476 197.146 331.784 197.463C332.101 197.78 332.349 198.177 332.526 198.653C332.713 199.12 332.806 199.652 332.806 200.249C332.806 200.856 332.713 201.392 332.526 201.859C332.349 202.326 332.101 202.722 331.784 203.049C331.476 203.366 331.107 203.609 330.678 203.777C330.249 203.945 329.782 204.029 329.278 204.029ZM329.278 202.923C329.605 202.923 329.903 202.872 330.174 202.769C330.454 202.657 330.697 202.494 330.902 202.279C331.107 202.055 331.266 201.775 331.378 201.439C331.49 201.103 331.546 200.706 331.546 200.249C331.546 199.792 331.49 199.395 331.378 199.059C331.266 198.723 331.107 198.448 330.902 198.233C330.697 198.009 330.454 197.846 330.174 197.743C329.903 197.631 329.605 197.575 329.278 197.575C328.951 197.575 328.653 197.631 328.382 197.743C328.111 197.846 327.873 198.009 327.668 198.233C327.472 198.448 327.318 198.723 327.206 199.059C327.094 199.395 327.038 199.792 327.038 200.249C327.038 200.706 327.094 201.103 327.206 201.439C327.318 201.775 327.472 202.055 327.668 202.279C327.873 202.494 328.111 202.657 328.382 202.769C328.653 202.872 328.951 202.923 329.278 202.923ZM339.391 201.775C339.391 202.186 339.307 202.536 339.139 202.825C338.981 203.105 338.761 203.338 338.481 203.525C338.201 203.702 337.875 203.828 337.501 203.903C337.137 203.987 336.755 204.029 336.353 204.029C335.821 204.029 335.35 203.973 334.939 203.861C334.538 203.749 334.221 203.614 333.987 203.455V202.349C334.277 202.526 334.622 202.666 335.023 202.769C335.425 202.872 335.859 202.923 336.325 202.923C336.857 202.923 337.301 202.839 337.655 202.671C338.019 202.494 338.201 202.195 338.201 201.775C338.201 201.364 338.047 201.075 337.739 200.907C337.441 200.739 336.979 200.655 336.353 200.655H335.387V199.661H336.395C336.909 199.661 337.301 199.568 337.571 199.381C337.842 199.194 337.977 198.924 337.977 198.569C337.977 198.382 337.931 198.228 337.837 198.107C337.753 197.976 337.637 197.874 337.487 197.799C337.338 197.715 337.161 197.659 336.955 197.631C336.759 197.594 336.549 197.575 336.325 197.575C335.896 197.575 335.495 197.626 335.121 197.729C334.757 197.832 334.426 197.976 334.127 198.163V197.057C334.37 196.898 334.683 196.763 335.065 196.651C335.457 196.539 335.91 196.483 336.423 196.483C337.31 196.483 337.977 196.651 338.425 196.987C338.883 197.323 339.111 197.808 339.111 198.443C339.111 198.919 338.981 199.292 338.719 199.563C338.467 199.834 338.108 200.02 337.641 200.123C338.22 200.198 338.654 200.38 338.943 200.669C339.242 200.958 339.391 201.327 339.391 201.775ZM340.806 202.839C341.068 202.68 341.273 202.433 341.422 202.097C341.572 201.761 341.688 201.336 341.772 200.823C341.856 200.31 341.912 199.703 341.94 199.003C341.978 198.303 342.01 197.51 342.038 196.623H347.036V202.839H348.128V205.961H347.05L346.896 203.889H341.492L341.366 205.961H340.26V202.839H340.806ZM345.804 202.839V197.673H343.144C343.098 199.045 343.009 200.146 342.878 200.977C342.757 201.798 342.542 202.419 342.234 202.839H345.804ZM353.603 202.503C353.519 202.671 353.412 202.848 353.281 203.035C353.15 203.212 352.987 203.376 352.791 203.525C352.595 203.674 352.362 203.796 352.091 203.889C351.83 203.982 351.522 204.029 351.167 204.029C350.514 204.029 349.986 203.847 349.585 203.483C349.184 203.11 348.983 202.578 348.983 201.887C348.983 201.094 349.258 200.51 349.809 200.137C350.369 199.764 351.162 199.577 352.189 199.577H353.547V198.975C353.547 198.471 353.416 198.112 353.155 197.897C352.894 197.682 352.446 197.575 351.811 197.575C351.363 197.575 350.938 197.65 350.537 197.799C350.136 197.939 349.776 198.102 349.459 198.289V197.183C349.72 197.024 350.07 196.87 350.509 196.721C350.957 196.562 351.447 196.483 351.979 196.483C352.894 196.483 353.589 196.674 354.065 197.057C354.541 197.43 354.779 198.014 354.779 198.807V202.713C354.779 202.797 354.779 202.895 354.779 203.007C354.788 203.11 354.793 203.217 354.793 203.329C354.802 203.441 354.812 203.548 354.821 203.651C354.83 203.744 354.84 203.824 354.849 203.889H353.729C353.701 203.758 353.673 203.576 353.645 203.343C353.626 203.1 353.617 202.89 353.617 202.713L353.603 202.503ZM351.433 202.923C351.816 202.923 352.142 202.844 352.413 202.685C352.684 202.526 352.903 202.344 353.071 202.139C353.239 201.924 353.36 201.719 353.435 201.523C353.51 201.318 353.547 201.173 353.547 201.089V200.557H352.315C351.578 200.557 351.041 200.664 350.705 200.879C350.378 201.084 350.215 201.397 350.215 201.817C350.215 202.144 350.313 202.41 350.509 202.615C350.705 202.82 351.013 202.923 351.433 202.923ZM362.498 203.273C362.395 203.348 362.269 203.427 362.12 203.511C361.971 203.595 361.789 203.679 361.574 203.763C361.359 203.838 361.117 203.898 360.846 203.945C360.575 204.001 360.272 204.029 359.936 204.029C358.713 204.029 357.785 203.698 357.15 203.035C356.515 202.372 356.198 201.444 356.198 200.249C356.198 199.661 356.282 199.134 356.45 198.667C356.627 198.2 356.87 197.808 357.178 197.491C357.486 197.164 357.85 196.917 358.27 196.749C358.69 196.572 359.147 196.483 359.642 196.483C360.165 196.483 360.631 196.572 361.042 196.749C361.453 196.926 361.789 197.188 362.05 197.533C362.321 197.878 362.503 198.308 362.596 198.821C362.699 199.325 362.699 199.913 362.596 200.585H357.472C357.519 201.369 357.752 201.957 358.172 202.349C358.592 202.732 359.217 202.923 360.048 202.923C360.608 202.923 361.089 202.844 361.49 202.685C361.891 202.526 362.227 202.354 362.498 202.167V203.273ZM359.614 197.575C359.082 197.575 358.625 197.738 358.242 198.065C357.859 198.392 357.617 198.886 357.514 199.549H361.42C361.457 198.877 361.303 198.382 360.958 198.065C360.613 197.738 360.165 197.575 359.614 197.575ZM367.107 197.673V203.889H365.875V197.673H363.593V196.623H369.431V197.673H367.107ZM373.784 204.029C373.224 204.029 372.715 203.945 372.258 203.777C371.81 203.6 371.427 203.352 371.11 203.035C370.792 202.708 370.55 202.312 370.382 201.845C370.214 201.378 370.13 200.846 370.13 200.249C370.13 199.661 370.214 199.134 370.382 198.667C370.559 198.2 370.806 197.808 371.124 197.491C371.441 197.164 371.828 196.917 372.286 196.749C372.743 196.572 373.261 196.483 373.84 196.483C374.288 196.483 374.698 196.534 375.072 196.637C375.445 196.73 375.753 196.87 375.996 197.057V198.163C375.697 197.967 375.361 197.822 374.988 197.729C374.624 197.626 374.246 197.575 373.854 197.575C373.004 197.575 372.379 197.794 371.978 198.233C371.586 198.672 371.39 199.344 371.39 200.249C371.39 201.154 371.581 201.826 371.964 202.265C372.346 202.704 372.953 202.923 373.784 202.923C374.222 202.923 374.624 202.872 374.988 202.769C375.361 202.657 375.697 202.517 375.996 202.349V203.455C375.734 203.614 375.417 203.749 375.044 203.861C374.68 203.973 374.26 204.029 373.784 204.029ZM377.648 198.975C377.648 198.564 377.722 198.214 377.872 197.925C378.021 197.626 378.231 197.384 378.502 197.197C378.772 197.001 379.094 196.856 379.468 196.763C379.841 196.67 380.247 196.623 380.686 196.623H383.024V203.889H381.792V201.257H380.462L378.6 203.889H377.13L379.23 200.949C378.726 200.8 378.334 200.571 378.054 200.263C377.783 199.955 377.648 199.526 377.648 198.975ZM381.792 200.207V197.673H380.686C380.163 197.673 379.734 197.771 379.398 197.967C379.062 198.163 378.894 198.48 378.894 198.919C378.894 199.376 379.043 199.708 379.342 199.913C379.64 200.109 380.065 200.207 380.616 200.207H381.792Z" fill="#18123D"/>
<rect x="276" y="94" width="148" height="42" rx="4" fill="white" stroke="#67B0F8" stroke-width="2"/>
<path d="M307.489 109.851H309.449L313.047 119.889H311.647L310.611 117.019H306.173L305.151 119.889H303.919L307.489 109.851ZM310.191 115.829L308.399 110.831L306.607 115.829H310.191ZM316.216 116.795H315.572V119.889H314.34V112.623H315.572V115.745H316.272L318.82 112.623H320.22L317.238 116.207L320.276 119.889H318.778L316.216 116.795ZM324.498 113.673V119.889H323.266V113.673H320.984V112.623H326.822V113.673H324.498ZM329.476 118.209L333.354 112.623H334.6V119.889H333.368V114.317L329.504 119.889H328.244V112.623H329.476V118.209ZM336.612 112.623H339.328C340.205 112.623 340.868 112.777 341.316 113.085C341.764 113.384 341.988 113.855 341.988 114.499C341.988 114.928 341.876 115.274 341.652 115.535C341.437 115.787 341.129 115.969 340.728 116.081C341.764 116.249 342.282 116.823 342.282 117.803C342.282 118.176 342.207 118.498 342.058 118.769C341.908 119.03 341.703 119.245 341.442 119.413C341.18 119.581 340.863 119.702 340.49 119.777C340.126 119.852 339.729 119.889 339.3 119.889H336.612V112.623ZM337.844 113.673V115.647H339.216C339.682 115.647 340.056 115.563 340.336 115.395C340.625 115.227 340.77 114.984 340.77 114.667C340.77 114.284 340.644 114.023 340.392 113.883C340.14 113.743 339.78 113.673 339.314 113.673H337.844ZM337.844 116.627V118.839H339.286C339.547 118.839 339.78 118.825 339.986 118.797C340.2 118.76 340.382 118.699 340.532 118.615C340.69 118.531 340.812 118.419 340.896 118.279C340.98 118.139 341.022 117.966 341.022 117.761C341.022 117.341 340.877 117.047 340.588 116.879C340.298 116.711 339.864 116.627 339.286 116.627H337.844ZM345.363 118.209L349.241 112.623H350.487V119.889H349.255V114.317L345.391 119.889H344.131V112.623H345.363V118.209ZM356.152 120.029C355.592 120.029 355.107 119.898 354.696 119.637C354.295 119.376 353.973 119.016 353.73 118.559V122.367H352.498V112.623H353.576L353.702 114.037C353.945 113.561 354.272 113.183 354.682 112.903C355.093 112.623 355.602 112.483 356.208 112.483C356.628 112.483 357.03 112.562 357.412 112.721C357.804 112.87 358.145 113.104 358.434 113.421C358.733 113.729 358.966 114.121 359.134 114.597C359.312 115.064 359.4 115.614 359.4 116.249C359.4 116.893 359.312 117.453 359.134 117.929C358.957 118.396 358.719 118.788 358.42 119.105C358.122 119.413 357.776 119.646 357.384 119.805C356.992 119.954 356.582 120.029 356.152 120.029ZM355.97 118.923C356.614 118.923 357.132 118.704 357.524 118.265C357.926 117.817 358.126 117.145 358.126 116.249C358.126 115.372 357.926 114.709 357.524 114.261C357.132 113.804 356.614 113.575 355.97 113.575C355.653 113.575 355.354 113.631 355.074 113.743C354.804 113.855 354.566 114.023 354.36 114.247C354.164 114.462 354.006 114.737 353.884 115.073C353.772 115.409 353.716 115.801 353.716 116.249C353.716 116.697 353.772 117.089 353.884 117.425C354.006 117.761 354.164 118.041 354.36 118.265C354.566 118.489 354.804 118.657 355.074 118.769C355.354 118.872 355.653 118.923 355.97 118.923ZM363.875 120.029C363.38 120.029 362.918 119.945 362.489 119.777C362.059 119.609 361.686 119.366 361.369 119.049C361.061 118.722 360.818 118.326 360.641 117.859C360.463 117.392 360.375 116.856 360.375 116.249C360.375 115.652 360.463 115.12 360.641 114.653C360.818 114.177 361.061 113.78 361.369 113.463C361.686 113.146 362.059 112.903 362.489 112.735C362.918 112.567 363.38 112.483 363.875 112.483C364.379 112.483 364.845 112.567 365.275 112.735C365.704 112.903 366.073 113.146 366.381 113.463C366.698 113.78 366.945 114.177 367.123 114.653C367.309 115.12 367.403 115.652 367.403 116.249C367.403 116.856 367.309 117.392 367.123 117.859C366.945 118.326 366.698 118.722 366.381 119.049C366.073 119.366 365.704 119.609 365.275 119.777C364.845 119.945 364.379 120.029 363.875 120.029ZM363.875 118.923C364.201 118.923 364.5 118.872 364.771 118.769C365.051 118.657 365.293 118.494 365.499 118.279C365.704 118.055 365.863 117.775 365.975 117.439C366.087 117.103 366.143 116.706 366.143 116.249C366.143 115.792 366.087 115.395 365.975 115.059C365.863 114.723 365.704 114.448 365.499 114.233C365.293 114.009 365.051 113.846 364.771 113.743C364.5 113.631 364.201 113.575 363.875 113.575C363.548 113.575 363.249 113.631 362.979 113.743C362.708 113.846 362.47 114.009 362.265 114.233C362.069 114.448 361.915 114.723 361.803 115.059C361.691 115.395 361.635 115.792 361.635 116.249C361.635 116.706 361.691 117.103 361.803 117.439C361.915 117.775 362.069 118.055 362.265 118.279C362.47 118.494 362.708 118.657 362.979 118.769C363.249 118.872 363.548 118.923 363.875 118.923ZM368.904 112.623H371.62C372.498 112.623 373.16 112.777 373.608 113.085C374.057 113.384 374.281 113.855 374.281 114.499C374.281 114.928 374.168 115.274 373.944 115.535C373.73 115.787 373.422 115.969 373.021 116.081C374.057 116.249 374.575 116.823 374.575 117.803C374.575 118.176 374.5 118.498 374.35 118.769C374.201 119.03 373.996 119.245 373.734 119.413C373.473 119.581 373.156 119.702 372.782 119.777C372.418 119.852 372.022 119.889 371.592 119.889H368.904V112.623ZM370.136 113.673V115.647H371.508C371.975 115.647 372.349 115.563 372.629 115.395C372.918 115.227 373.062 114.984 373.062 114.667C373.062 114.284 372.936 114.023 372.684 113.883C372.432 113.743 372.073 113.673 371.606 113.673H370.136ZM370.136 116.627V118.839H371.578C371.84 118.839 372.073 118.825 372.278 118.797C372.493 118.76 372.675 118.699 372.825 118.615C372.983 118.531 373.104 118.419 373.188 118.279C373.272 118.139 373.314 117.966 373.314 117.761C373.314 117.341 373.17 117.047 372.88 116.879C372.591 116.711 372.157 116.627 371.578 116.627H370.136ZM380.68 118.503C380.596 118.671 380.489 118.848 380.358 119.035C380.227 119.212 380.064 119.376 379.868 119.525C379.672 119.674 379.439 119.796 379.168 119.889C378.907 119.982 378.599 120.029 378.244 120.029C377.591 120.029 377.063 119.847 376.662 119.483C376.261 119.11 376.06 118.578 376.06 117.887C376.06 117.094 376.335 116.51 376.886 116.137C377.446 115.764 378.239 115.577 379.266 115.577H380.624V114.975C380.624 114.471 380.493 114.112 380.232 113.897C379.971 113.682 379.523 113.575 378.888 113.575C378.44 113.575 378.015 113.65 377.614 113.799C377.213 113.939 376.853 114.102 376.536 114.289V113.183C376.797 113.024 377.147 112.87 377.586 112.721C378.034 112.562 378.524 112.483 379.056 112.483C379.971 112.483 380.666 112.674 381.142 113.057C381.618 113.43 381.856 114.014 381.856 114.807V118.713C381.856 118.797 381.856 118.895 381.856 119.007C381.865 119.11 381.87 119.217 381.87 119.329C381.879 119.441 381.889 119.548 381.898 119.651C381.907 119.744 381.917 119.824 381.926 119.889H380.806C380.778 119.758 380.75 119.576 380.722 119.343C380.703 119.1 380.694 118.89 380.694 118.713L380.68 118.503ZM378.51 118.923C378.893 118.923 379.219 118.844 379.49 118.685C379.761 118.526 379.98 118.344 380.148 118.139C380.316 117.924 380.437 117.719 380.512 117.523C380.587 117.318 380.624 117.173 380.624 117.089V116.557H379.392C378.655 116.557 378.118 116.664 377.782 116.879C377.455 117.084 377.292 117.397 377.292 117.817C377.292 118.144 377.39 118.41 377.586 118.615C377.782 118.82 378.09 118.923 378.51 118.923ZM386.651 113.673V119.889H385.419V113.673H383.137V112.623H388.975V113.673H386.651ZM395.801 117.467C395.801 117.887 395.726 118.251 395.577 118.559C395.427 118.867 395.217 119.119 394.947 119.315C394.676 119.511 394.354 119.656 393.981 119.749C393.607 119.842 393.201 119.889 392.763 119.889H390.355V112.623H391.587V115.157H392.847C393.771 115.157 394.494 115.339 395.017 115.703C395.539 116.067 395.801 116.655 395.801 117.467ZM391.587 116.207V118.839H392.763C393.295 118.839 393.724 118.741 394.051 118.545C394.387 118.34 394.555 118.004 394.555 117.537C394.555 117.061 394.405 116.72 394.107 116.515C393.808 116.31 393.388 116.207 392.847 116.207H391.587Z" fill="#18123D"/>
<rect x="275" y="9" width="150" height="44" rx="5" fill="#D3E3FC"/>
<path d="M331.659 36.0289C330.912 36.0289 330.236 35.9122 329.629 35.6789C329.022 35.4456 328.5 35.1096 328.061 34.6709C327.632 34.2229 327.3 33.6816 327.067 33.0469C326.834 32.4029 326.717 31.6796 326.717 30.8769C326.717 30.0649 326.824 29.3416 327.039 28.7069C327.254 28.0722 327.571 27.5356 327.991 27.0969C328.411 26.6489 328.924 26.3082 329.531 26.0749C330.147 25.8416 330.847 25.7249 331.631 25.7249C332.312 25.7249 332.91 25.7996 333.423 25.9489C333.936 26.0889 334.356 26.2569 334.683 26.4529V27.7129C334.263 27.4422 333.778 27.2416 333.227 27.1109C332.686 26.9802 332.149 26.9149 331.617 26.9149C330.432 26.9149 329.554 27.2462 328.985 27.9089C328.425 28.5622 328.145 29.5516 328.145 30.8769C328.145 32.2116 328.448 33.2056 329.055 33.8589C329.671 34.5122 330.576 34.8389 331.771 34.8389C332.284 34.8389 332.784 34.7689 333.269 34.6289C333.764 34.4889 334.235 34.2509 334.683 33.9149V35.1749C334.412 35.3896 334.016 35.5856 333.493 35.7629C332.98 35.9402 332.368 36.0289 331.659 36.0289ZM339.443 36.0289C338.948 36.0289 338.486 35.9449 338.057 35.7769C337.628 35.6089 337.254 35.3662 336.937 35.0489C336.629 34.7222 336.386 34.3256 336.209 33.8589C336.032 33.3922 335.943 32.8556 335.943 32.2489C335.943 31.6516 336.032 31.1196 336.209 30.6529C336.386 30.1769 336.629 29.7802 336.937 29.4629C337.254 29.1456 337.628 28.9029 338.057 28.7349C338.486 28.5669 338.948 28.4829 339.443 28.4829C339.947 28.4829 340.414 28.5669 340.843 28.7349C341.272 28.9029 341.641 29.1456 341.949 29.4629C342.266 29.7802 342.514 30.1769 342.691 30.6529C342.878 31.1196 342.971 31.6516 342.971 32.2489C342.971 32.8556 342.878 33.3922 342.691 33.8589C342.514 34.3256 342.266 34.7222 341.949 35.0489C341.641 35.3662 341.272 35.6089 340.843 35.7769C340.414 35.9449 339.947 36.0289 339.443 36.0289ZM339.443 34.9229C339.77 34.9229 340.068 34.8716 340.339 34.7689C340.619 34.6569 340.862 34.4936 341.067 34.2789C341.272 34.0549 341.431 33.7749 341.543 33.4389C341.655 33.1029 341.711 32.7062 341.711 32.2489C341.711 31.7916 341.655 31.3949 341.543 31.0589C341.431 30.7229 341.272 30.4476 341.067 30.2329C340.862 30.0089 340.619 29.8456 340.339 29.7429C340.068 29.6309 339.77 29.5749 339.443 29.5749C339.116 29.5749 338.818 29.6309 338.547 29.7429C338.276 29.8456 338.038 30.0089 337.833 30.2329C337.637 30.4476 337.483 30.7229 337.371 31.0589C337.259 31.3949 337.203 31.7916 337.203 32.2489C337.203 32.7062 337.259 33.1029 337.371 33.4389C337.483 33.7749 337.637 34.0549 337.833 34.2789C338.038 34.4936 338.276 34.6569 338.547 34.7689C338.818 34.8716 339.116 34.9229 339.443 34.9229ZM349.557 33.7749C349.557 34.1856 349.472 34.5356 349.304 34.8249C349.146 35.1049 348.927 35.3382 348.647 35.5249C348.367 35.7022 348.04 35.8282 347.666 35.9029C347.302 35.9869 346.92 36.0289 346.518 36.0289C345.986 36.0289 345.515 35.9729 345.104 35.8609C344.703 35.7489 344.386 35.6136 344.152 35.4549V34.3489C344.442 34.5262 344.787 34.6662 345.188 34.7689C345.59 34.8716 346.024 34.9229 346.49 34.9229C347.022 34.9229 347.466 34.8389 347.82 34.6709C348.184 34.4936 348.366 34.1949 348.366 33.7749C348.366 33.3642 348.212 33.0749 347.905 32.9069C347.606 32.7389 347.144 32.6549 346.518 32.6549H345.552V31.6609H346.56C347.074 31.6609 347.466 31.5676 347.736 31.3809C348.007 31.1942 348.142 30.9236 348.142 30.5689C348.142 30.3822 348.096 30.2282 348.002 30.1069C347.918 29.9762 347.802 29.8736 347.652 29.7989C347.503 29.7149 347.326 29.6589 347.12 29.6309C346.924 29.5936 346.714 29.5749 346.49 29.5749C346.061 29.5749 345.66 29.6262 345.286 29.7289C344.922 29.8316 344.591 29.9762 344.292 30.1629V29.0569C344.535 28.8982 344.848 28.7629 345.23 28.6509C345.622 28.5389 346.075 28.4829 346.588 28.4829C347.475 28.4829 348.142 28.6509 348.59 28.9869C349.048 29.3229 349.276 29.8082 349.276 30.4429C349.276 30.9189 349.146 31.2922 348.884 31.5629C348.632 31.8336 348.273 32.0202 347.807 32.1229C348.385 32.1976 348.819 32.3796 349.108 32.6689C349.407 32.9582 349.557 33.3269 349.557 33.7749ZM350.971 34.8389C351.233 34.6802 351.438 34.4329 351.587 34.0969C351.737 33.7609 351.853 33.3362 351.937 32.8229C352.021 32.3096 352.077 31.7029 352.105 31.0029C352.143 30.3029 352.175 29.5096 352.203 28.6229H357.201V34.8389H358.293V37.9609H357.215L357.061 35.8889H351.657L351.531 37.9609H350.425V34.8389H350.971ZM355.969 34.8389V29.6729H353.309C353.263 31.0449 353.174 32.1462 353.043 32.9769C352.922 33.7982 352.707 34.4189 352.399 34.8389H355.969ZM363.768 34.5029C363.684 34.6709 363.577 34.8482 363.446 35.0349C363.315 35.2122 363.152 35.3756 362.956 35.5249C362.76 35.6742 362.527 35.7956 362.256 35.8889C361.995 35.9822 361.687 36.0289 361.332 36.0289C360.679 36.0289 360.151 35.8469 359.75 35.4829C359.349 35.1096 359.148 34.5776 359.148 33.8869C359.148 33.0936 359.423 32.5102 359.974 32.1369C360.534 31.7636 361.327 31.5769 362.354 31.5769H363.712V30.9749C363.712 30.4709 363.581 30.1116 363.32 29.8969C363.059 29.6822 362.611 29.5749 361.976 29.5749C361.528 29.5749 361.103 29.6496 360.702 29.7989C360.301 29.9389 359.941 30.1022 359.624 30.2889V29.1829C359.885 29.0242 360.235 28.8702 360.674 28.7209C361.122 28.5622 361.612 28.4829 362.144 28.4829C363.059 28.4829 363.754 28.6742 364.23 29.0569C364.706 29.4302 364.944 30.0136 364.944 30.8069V34.7129C364.944 34.7969 364.944 34.8949 364.944 35.0069C364.953 35.1096 364.958 35.2169 364.958 35.3289C364.967 35.4409 364.977 35.5482 364.986 35.6509C364.995 35.7442 365.005 35.8236 365.014 35.8889H363.894C363.866 35.7582 363.838 35.5762 363.81 35.3429C363.791 35.1002 363.782 34.8902 363.782 34.7129L363.768 34.5029ZM361.598 34.9229C361.981 34.9229 362.307 34.8436 362.578 34.6849C362.849 34.5262 363.068 34.3442 363.236 34.1389C363.404 33.9242 363.525 33.7189 363.6 33.5229C363.675 33.3176 363.712 33.1729 363.712 33.0889V32.5569H362.48C361.743 32.5569 361.206 32.6642 360.87 32.8789C360.543 33.0842 360.38 33.3969 360.38 33.8169C360.38 34.1436 360.478 34.4096 360.674 34.6149C360.87 34.8202 361.178 34.9229 361.598 34.9229ZM371.627 32.6689H368.113V35.8889H366.881V28.6229H368.113V31.6189H371.627V28.6229H372.859V35.8889H371.627V32.6689Z" fill="#18123D"/>
<path d="M350 261L344.226 251L355.774 251L350 261ZM349 252L349 221L351 221L351 252L349 252Z" fill="#4E496B"/>
<path d="M350 345L344.226 335L355.774 335L350 345ZM349 336L349 305L351 305L351 336L349 336Z" fill="#4E496B"/>
<path d="M350 429L344.226 419L355.774 419L350 429ZM349 420L349 389L351 389L351 420L349 420Z" fill="#4E496B"/>
<path d="M243 283L253 288.774L253 277.226L243 283ZM252 284L275 284L275 282L252 282L252 284Z" fill="#4E496B"/>
<path d="M350 513L344.226 503L355.774 503L350 513ZM349 504L349 473L351 473L351 504L349 504Z" fill="#4E496B"/>
<path d="M350 597L344.226 587L355.774 587L350 597ZM349 588L349 557L351 557L351 588L349 588Z" fill="#4E496B"/>
<rect x="275" y="261" width="150" height="44" rx="5" fill="#D3E3FC"/>
<path d="M300.898 277.851H304.104C305.242 277.851 306.124 278.089 306.75 278.565C307.384 279.032 307.702 279.764 307.702 280.763C307.702 281.332 307.608 281.822 307.422 282.233C307.244 282.634 306.992 282.966 306.666 283.227C306.339 283.488 305.947 283.68 305.49 283.801C305.042 283.922 304.542 283.983 303.992 283.983H302.214V287.889H300.898V277.851ZM302.214 279.055V282.793H303.992C304.346 282.793 304.668 282.756 304.958 282.681C305.247 282.606 305.494 282.49 305.7 282.331C305.914 282.172 306.078 281.967 306.19 281.715C306.311 281.454 306.372 281.141 306.372 280.777C306.372 280.17 306.176 279.732 305.784 279.461C305.392 279.19 304.832 279.055 304.104 279.055H302.214ZM314.783 287.273C314.681 287.348 314.555 287.427 314.405 287.511C314.256 287.595 314.074 287.679 313.859 287.763C313.645 287.838 313.402 287.898 313.131 287.945C312.861 288.001 312.557 288.029 312.221 288.029C310.999 288.029 310.07 287.698 309.435 287.035C308.801 286.372 308.483 285.444 308.483 284.249C308.483 283.661 308.567 283.134 308.735 282.667C308.913 282.2 309.155 281.808 309.463 281.491C309.771 281.164 310.135 280.917 310.555 280.749C310.975 280.572 311.433 280.483 311.927 280.483C312.45 280.483 312.917 280.572 313.327 280.749C313.738 280.926 314.074 281.188 314.335 281.533C314.606 281.878 314.788 282.308 314.881 282.821C314.984 283.325 314.984 283.913 314.881 284.585H309.757C309.804 285.369 310.037 285.957 310.457 286.349C310.877 286.732 311.503 286.923 312.333 286.923C312.893 286.923 313.374 286.844 313.775 286.685C314.177 286.526 314.513 286.354 314.783 286.167V287.273ZM311.899 281.575C311.367 281.575 310.91 281.738 310.527 282.065C310.145 282.392 309.902 282.886 309.799 283.549H313.705C313.743 282.877 313.589 282.382 313.243 282.065C312.898 281.738 312.45 281.575 311.899 281.575ZM316.534 280.623H322.358V287.889H321.126V281.673H317.766V287.889H316.534V280.623ZM324.928 285.635C325.059 285.159 325.143 284.515 325.18 283.703C325.218 282.891 325.236 281.864 325.236 280.623H330.122V287.889H328.876V281.673H326.398C326.389 282.672 326.356 283.558 326.3 284.333C326.254 285.108 326.146 285.761 325.978 286.293C325.82 286.825 325.582 287.231 325.264 287.511C324.956 287.782 324.541 287.917 324.018 287.917C323.981 287.917 323.944 287.917 323.906 287.917C323.869 287.917 323.827 287.912 323.78 287.903V286.685C323.827 286.694 323.888 286.699 323.962 286.699C324.438 286.699 324.76 286.344 324.928 285.635ZM333.352 286.209L337.23 280.623H338.476V287.889H337.244V282.317L333.38 287.889H332.12V280.623H333.352V286.209ZM346.41 287.889H340.488V280.623H341.72V286.839H345.29V280.623H346.522V286.839H347.614V289.961H346.564L346.41 287.889ZM350.128 286.209L354.006 280.623H355.252V287.889H354.02V282.317L350.156 287.889H348.896V280.623H350.128V286.209ZM360.917 288.029C360.357 288.029 359.872 287.898 359.461 287.637C359.06 287.376 358.738 287.016 358.495 286.559V290.367H357.263V280.623H358.341L358.467 282.037C358.71 281.561 359.036 281.183 359.447 280.903C359.858 280.623 360.366 280.483 360.973 280.483C361.393 280.483 361.794 280.562 362.177 280.721C362.569 280.87 362.91 281.104 363.199 281.421C363.498 281.729 363.731 282.121 363.899 282.597C364.076 283.064 364.165 283.614 364.165 284.249C364.165 284.893 364.076 285.453 363.899 285.929C363.722 286.396 363.484 286.788 363.185 287.105C362.886 287.413 362.541 287.646 362.149 287.805C361.757 287.954 361.346 288.029 360.917 288.029ZM360.735 286.923C361.379 286.923 361.897 286.704 362.289 286.265C362.69 285.817 362.891 285.145 362.891 284.249C362.891 283.372 362.69 282.709 362.289 282.261C361.897 281.804 361.379 281.575 360.735 281.575C360.418 281.575 360.119 281.631 359.839 281.743C359.568 281.855 359.33 282.023 359.125 282.247C358.929 282.462 358.77 282.737 358.649 283.073C358.537 283.409 358.481 283.801 358.481 284.249C358.481 284.697 358.537 285.089 358.649 285.425C358.77 285.761 358.929 286.041 359.125 286.265C359.33 286.489 359.568 286.657 359.839 286.769C360.119 286.872 360.418 286.923 360.735 286.923ZM369.159 287.805C368.991 288.244 368.814 288.626 368.627 288.953C368.44 289.289 368.23 289.574 367.997 289.807C367.764 290.04 367.502 290.213 367.213 290.325C366.924 290.446 366.592 290.507 366.219 290.507C366.032 290.507 365.86 290.493 365.701 290.465C365.542 290.446 365.398 290.409 365.267 290.353V289.163C365.37 289.238 365.5 289.294 365.659 289.331C365.818 289.378 365.99 289.401 366.177 289.401C366.522 289.401 366.807 289.317 367.031 289.149C367.255 288.99 367.47 288.734 367.675 288.379L364.721 280.623H366.079L368.389 286.755L370.685 280.623H371.875L369.159 287.805ZM378.74 287.273C378.638 287.348 378.512 287.427 378.362 287.511C378.213 287.595 378.031 287.679 377.816 287.763C377.602 287.838 377.359 287.898 377.088 287.945C376.818 288.001 376.514 288.029 376.178 288.029C374.956 288.029 374.027 287.698 373.392 287.035C372.758 286.372 372.44 285.444 372.44 284.249C372.44 283.661 372.524 283.134 372.692 282.667C372.87 282.2 373.112 281.808 373.42 281.491C373.728 281.164 374.092 280.917 374.512 280.749C374.932 280.572 375.39 280.483 375.884 280.483C376.407 280.483 376.874 280.572 377.284 280.749C377.695 280.926 378.031 281.188 378.292 281.533C378.563 281.878 378.745 282.308 378.838 282.821C378.941 283.325 378.941 283.913 378.838 284.585H373.714C373.761 285.369 373.994 285.957 374.414 286.349C374.834 286.732 375.46 286.923 376.29 286.923C376.85 286.923 377.331 286.844 377.732 286.685C378.134 286.526 378.47 286.354 378.74 286.167V287.273ZM375.856 281.575C375.324 281.575 374.867 281.738 374.484 282.065C374.102 282.392 373.859 282.886 373.756 283.549H377.662C377.7 282.877 377.546 282.382 377.2 282.065C376.855 281.738 376.407 281.575 375.856 281.575ZM383.349 281.673V287.889H382.117V281.673H379.835V280.623H385.673V281.673H383.349ZM390.026 288.029C389.466 288.029 388.957 287.945 388.5 287.777C388.052 287.6 387.669 287.352 387.352 287.035C387.035 286.708 386.792 286.312 386.624 285.845C386.456 285.378 386.372 284.846 386.372 284.249C386.372 283.661 386.456 283.134 386.624 282.667C386.801 282.2 387.049 281.808 387.366 281.491C387.683 281.164 388.071 280.917 388.528 280.749C388.985 280.572 389.503 280.483 390.082 280.483C390.53 280.483 390.941 280.534 391.314 280.637C391.687 280.73 391.995 280.87 392.238 281.057V282.163C391.939 281.967 391.603 281.822 391.23 281.729C390.866 281.626 390.488 281.575 390.096 281.575C389.247 281.575 388.621 281.794 388.22 282.233C387.828 282.672 387.632 283.344 387.632 284.249C387.632 285.154 387.823 285.826 388.206 286.265C388.589 286.704 389.195 286.923 390.026 286.923C390.465 286.923 390.866 286.872 391.23 286.769C391.603 286.657 391.939 286.517 392.238 286.349V287.455C391.977 287.614 391.659 287.749 391.286 287.861C390.922 287.973 390.502 288.029 390.026 288.029ZM393.89 282.975C393.89 282.564 393.965 282.214 394.114 281.925C394.263 281.626 394.473 281.384 394.744 281.197C395.015 281.001 395.337 280.856 395.71 280.763C396.083 280.67 396.489 280.623 396.928 280.623H399.266V287.889H398.034V285.257H396.704L394.842 287.889H393.372L395.472 284.949C394.968 284.8 394.576 284.571 394.296 284.263C394.025 283.955 393.89 283.526 393.89 282.975ZM398.034 284.207V281.673H396.928C396.405 281.673 395.976 281.771 395.64 281.967C395.304 282.163 395.136 282.48 395.136 282.919C395.136 283.376 395.285 283.708 395.584 283.913C395.883 284.109 396.307 284.207 396.858 284.207H398.034Z" fill="#18123D"/>
<rect x="275" y="429" width="150" height="44" rx="5" fill="#D3E3FC"/>
<path d="M298.474 456.029C297.802 456.029 297.172 455.917 296.584 455.693C295.996 455.46 295.487 455.124 295.058 454.685C294.629 454.246 294.288 453.705 294.036 453.061C293.793 452.417 293.672 451.675 293.672 450.835C293.672 449.995 293.793 449.258 294.036 448.623C294.288 447.979 294.629 447.447 295.058 447.027C295.487 446.598 295.996 446.276 296.584 446.061C297.172 445.837 297.802 445.725 298.474 445.725C299.155 445.725 299.79 445.837 300.378 446.061C300.966 446.276 301.475 446.598 301.904 447.027C302.333 447.456 302.669 447.993 302.912 448.637C303.155 449.272 303.276 450.009 303.276 450.849C303.276 451.68 303.155 452.417 302.912 453.061C302.669 453.705 302.333 454.246 301.904 454.685C301.475 455.124 300.966 455.46 300.378 455.693C299.79 455.917 299.155 456.029 298.474 456.029ZM298.474 454.839C298.959 454.839 299.407 454.769 299.818 454.629C300.229 454.48 300.583 454.251 300.882 453.943C301.19 453.626 301.428 453.215 301.596 452.711C301.773 452.207 301.862 451.596 301.862 450.877C301.862 450.158 301.773 449.547 301.596 449.043C301.428 448.539 301.19 448.133 300.882 447.825C300.583 447.508 300.229 447.279 299.818 447.139C299.407 446.99 298.959 446.915 298.474 446.915C297.989 446.915 297.541 446.99 297.13 447.139C296.719 447.279 296.36 447.508 296.052 447.825C295.753 448.133 295.515 448.539 295.338 449.043C295.17 449.547 295.086 450.158 295.086 450.877C295.086 451.596 295.17 452.207 295.338 452.711C295.515 453.215 295.753 453.626 296.052 453.943C296.36 454.251 296.719 454.48 297.13 454.629C297.541 454.769 297.989 454.839 298.474 454.839ZM308.07 456.029C307.51 456.029 307.001 455.945 306.544 455.777C306.096 455.6 305.713 455.352 305.396 455.035C305.078 454.708 304.836 454.312 304.668 453.845C304.5 453.378 304.416 452.846 304.416 452.249C304.416 451.661 304.5 451.134 304.668 450.667C304.845 450.2 305.092 449.808 305.41 449.491C305.727 449.164 306.114 448.917 306.572 448.749C307.029 448.572 307.547 448.483 308.126 448.483C308.574 448.483 308.984 448.534 309.358 448.637C309.731 448.73 310.039 448.87 310.282 449.057V450.163C309.983 449.967 309.647 449.822 309.274 449.729C308.91 449.626 308.532 449.575 308.14 449.575C307.29 449.575 306.665 449.794 306.264 450.233C305.872 450.672 305.676 451.344 305.676 452.249C305.676 453.154 305.867 453.826 306.25 454.265C306.632 454.704 307.239 454.923 308.07 454.923C308.508 454.923 308.91 454.872 309.274 454.769C309.647 454.657 309.983 454.517 310.282 454.349V455.455C310.02 455.614 309.703 455.749 309.33 455.861C308.966 455.973 308.546 456.029 308.07 456.029ZM314.86 449.673V455.889H313.628V449.673H311.346V448.623H317.184V449.673H314.86ZM322.657 454.503C322.573 454.671 322.465 454.848 322.335 455.035C322.204 455.212 322.041 455.376 321.845 455.525C321.649 455.674 321.415 455.796 321.145 455.889C320.883 455.982 320.575 456.029 320.221 456.029C319.567 456.029 319.04 455.847 318.639 455.483C318.237 455.11 318.037 454.578 318.037 453.887C318.037 453.094 318.312 452.51 318.863 452.137C319.423 451.764 320.216 451.577 321.243 451.577H322.601V450.975C322.601 450.471 322.47 450.112 322.209 449.897C321.947 449.682 321.499 449.575 320.865 449.575C320.417 449.575 319.992 449.65 319.591 449.799C319.189 449.939 318.83 450.102 318.513 450.289V449.183C318.774 449.024 319.124 448.87 319.563 448.721C320.011 448.562 320.501 448.483 321.033 448.483C321.947 448.483 322.643 448.674 323.119 449.057C323.595 449.43 323.833 450.014 323.833 450.807V454.713C323.833 454.797 323.833 454.895 323.833 455.007C323.842 455.11 323.847 455.217 323.847 455.329C323.856 455.441 323.865 455.548 323.875 455.651C323.884 455.744 323.893 455.824 323.903 455.889H322.783C322.755 455.758 322.727 455.576 322.699 455.343C322.68 455.1 322.671 454.89 322.671 454.713L322.657 454.503ZM320.487 454.923C320.869 454.923 321.196 454.844 321.467 454.685C321.737 454.526 321.957 454.344 322.125 454.139C322.293 453.924 322.414 453.719 322.489 453.523C322.563 453.318 322.601 453.173 322.601 453.089V452.557H321.369C320.631 452.557 320.095 452.664 319.759 452.879C319.432 453.084 319.269 453.397 319.269 453.817C319.269 454.144 319.367 454.41 319.563 454.615C319.759 454.82 320.067 454.923 320.487 454.923ZM330.516 452.669H327.002V455.889H325.77V448.623H327.002V451.619H330.516V448.623H331.748V455.889H330.516V452.669ZM338.024 454.503C337.94 454.671 337.832 454.848 337.702 455.035C337.571 455.212 337.408 455.376 337.212 455.525C337.016 455.674 336.782 455.796 336.512 455.889C336.25 455.982 335.942 456.029 335.588 456.029C334.934 456.029 334.407 455.847 334.006 455.483C333.604 455.11 333.404 454.578 333.404 453.887C333.404 453.094 333.679 452.51 334.23 452.137C334.79 451.764 335.583 451.577 336.61 451.577H337.968V450.975C337.968 450.471 337.837 450.112 337.576 449.897C337.314 449.682 336.866 449.575 336.232 449.575C335.784 449.575 335.359 449.65 334.958 449.799C334.556 449.939 334.197 450.102 333.88 450.289V449.183C334.141 449.024 334.491 448.87 334.93 448.721C335.378 448.562 335.868 448.483 336.4 448.483C337.314 448.483 338.01 448.674 338.486 449.057C338.962 449.43 339.2 450.014 339.2 450.807V454.713C339.2 454.797 339.2 454.895 339.2 455.007C339.209 455.11 339.214 455.217 339.214 455.329C339.223 455.441 339.232 455.548 339.242 455.651C339.251 455.744 339.26 455.824 339.27 455.889H338.15C338.122 455.758 338.094 455.576 338.066 455.343C338.047 455.1 338.038 454.89 338.038 454.713L338.024 454.503ZM335.854 454.923C336.236 454.923 336.563 454.844 336.834 454.685C337.104 454.526 337.324 454.344 337.492 454.139C337.66 453.924 337.781 453.719 337.856 453.523C337.93 453.318 337.968 453.173 337.968 453.089V452.557H336.736C335.998 452.557 335.462 452.664 335.126 452.879C334.799 453.084 334.636 453.397 334.636 453.817C334.636 454.144 334.734 454.41 334.93 454.615C335.126 454.82 335.434 454.923 335.854 454.923ZM341.137 448.623H343.853C344.73 448.623 345.393 448.777 345.841 449.085C346.289 449.384 346.513 449.855 346.513 450.499C346.513 450.928 346.401 451.274 346.177 451.535C345.962 451.787 345.654 451.969 345.253 452.081C346.289 452.249 346.807 452.823 346.807 453.803C346.807 454.176 346.732 454.498 346.583 454.769C346.434 455.03 346.228 455.245 345.967 455.413C345.706 455.581 345.388 455.702 345.015 455.777C344.651 455.852 344.254 455.889 343.825 455.889H341.137V448.623ZM342.369 449.673V451.647H343.741C344.208 451.647 344.581 451.563 344.861 451.395C345.15 451.227 345.295 450.984 345.295 450.667C345.295 450.284 345.169 450.023 344.917 449.883C344.665 449.743 344.306 449.673 343.839 449.673H342.369ZM342.369 452.627V454.839H343.811C344.072 454.839 344.306 454.825 344.511 454.797C344.726 454.76 344.908 454.699 345.057 454.615C345.216 454.531 345.337 454.419 345.421 454.279C345.505 454.139 345.547 453.966 345.547 453.761C345.547 453.341 345.402 453.047 345.113 452.879C344.824 452.711 344.39 452.627 343.811 452.627H342.369ZM349.148 453.635C349.279 453.159 349.363 452.515 349.4 451.703C349.437 450.891 349.456 449.864 349.456 448.623H354.342V455.889H353.096V449.673H350.618C350.609 450.672 350.576 451.558 350.52 452.333C350.473 453.108 350.366 453.761 350.198 454.293C350.039 454.825 349.801 455.231 349.484 455.511C349.176 455.782 348.761 455.917 348.238 455.917C348.201 455.917 348.163 455.917 348.126 455.917C348.089 455.917 348.047 455.912 348 455.903V454.685C348.047 454.694 348.107 454.699 348.182 454.699C348.658 454.699 348.98 454.344 349.148 453.635ZM357.572 454.209L361.45 448.623H362.696V455.889H361.464V450.317L357.6 455.889H356.34V448.623H357.572V454.209ZM364.707 448.623H367.423C368.301 448.623 368.963 448.777 369.411 449.085C369.859 449.384 370.083 449.855 370.083 450.499C370.083 450.928 369.971 451.274 369.747 451.535C369.533 451.787 369.225 451.969 368.823 452.081C369.859 452.249 370.377 452.823 370.377 453.803C370.377 454.176 370.303 454.498 370.153 454.769C370.004 455.03 369.799 455.245 369.537 455.413C369.276 455.581 368.959 455.702 368.585 455.777C368.221 455.852 367.825 455.889 367.395 455.889H364.707V448.623ZM365.939 449.673V451.647H367.311C367.778 451.647 368.151 451.563 368.431 451.395C368.721 451.227 368.865 450.984 368.865 450.667C368.865 450.284 368.739 450.023 368.487 449.883C368.235 449.743 367.876 449.673 367.409 449.673H365.939ZM365.939 452.627V454.839H367.381C367.643 454.839 367.876 454.825 368.081 454.797C368.296 454.76 368.478 454.699 368.627 454.615C368.786 454.531 368.907 454.419 368.991 454.279C369.075 454.139 369.117 453.966 369.117 453.761C369.117 453.341 368.973 453.047 368.683 452.879C368.394 452.711 367.96 452.627 367.381 452.627H365.939ZM376.483 454.503C376.399 454.671 376.291 454.848 376.161 455.035C376.03 455.212 375.867 455.376 375.671 455.525C375.475 455.674 375.241 455.796 374.971 455.889C374.709 455.982 374.401 456.029 374.047 456.029C373.393 456.029 372.866 455.847 372.465 455.483C372.063 455.11 371.863 454.578 371.863 453.887C371.863 453.094 372.138 452.51 372.689 452.137C373.249 451.764 374.042 451.577 375.069 451.577H376.427V450.975C376.427 450.471 376.296 450.112 376.035 449.897C375.773 449.682 375.325 449.575 374.691 449.575C374.243 449.575 373.818 449.65 373.417 449.799C373.015 449.939 372.656 450.102 372.339 450.289V449.183C372.6 449.024 372.95 448.87 373.389 448.721C373.837 448.562 374.327 448.483 374.859 448.483C375.773 448.483 376.469 448.674 376.945 449.057C377.421 449.43 377.659 450.014 377.659 450.807V454.713C377.659 454.797 377.659 454.895 377.659 455.007C377.668 455.11 377.673 455.217 377.673 455.329C377.682 455.441 377.691 455.548 377.701 455.651C377.71 455.744 377.719 455.824 377.729 455.889H376.609C376.581 455.758 376.553 455.576 376.525 455.343C376.506 455.1 376.497 454.89 376.497 454.713L376.483 454.503ZM374.313 454.923C374.695 454.923 375.022 454.844 375.293 454.685C375.563 454.526 375.783 454.344 375.951 454.139C376.119 453.924 376.24 453.719 376.315 453.523C376.389 453.318 376.427 453.173 376.427 453.089V452.557H375.195C374.457 452.557 373.921 452.664 373.585 452.879C373.258 453.084 373.095 453.397 373.095 453.817C373.095 454.144 373.193 454.41 373.389 454.615C373.585 454.82 373.893 454.923 374.313 454.923ZM385.378 455.273C385.275 455.348 385.149 455.427 385 455.511C384.851 455.595 384.669 455.679 384.454 455.763C384.239 455.838 383.997 455.898 383.726 455.945C383.455 456.001 383.152 456.029 382.816 456.029C381.593 456.029 380.665 455.698 380.03 455.035C379.395 454.372 379.078 453.444 379.078 452.249C379.078 451.661 379.162 451.134 379.33 450.667C379.507 450.2 379.75 449.808 380.058 449.491C380.366 449.164 380.73 448.917 381.15 448.749C381.57 448.572 382.027 448.483 382.522 448.483C383.045 448.483 383.511 448.572 383.922 448.749C384.333 448.926 384.669 449.188 384.93 449.533C385.201 449.878 385.383 450.308 385.476 450.821C385.579 451.325 385.579 451.913 385.476 452.585H380.352C380.399 453.369 380.632 453.957 381.052 454.349C381.472 454.732 382.097 454.923 382.928 454.923C383.488 454.923 383.969 454.844 384.37 454.685C384.771 454.526 385.107 454.354 385.378 454.167V455.273ZM382.494 449.575C381.962 449.575 381.505 449.738 381.122 450.065C380.739 450.392 380.497 450.886 380.394 451.549H384.3C384.337 450.877 384.183 450.382 383.838 450.065C383.493 449.738 383.045 449.575 382.494 449.575ZM389.987 449.673V455.889H388.755V449.673H386.473V448.623H392.311V449.673H389.987ZM396.664 456.029C396.104 456.029 395.595 455.945 395.138 455.777C394.69 455.6 394.307 455.352 393.99 455.035C393.672 454.708 393.43 454.312 393.262 453.845C393.094 453.378 393.01 452.846 393.01 452.249C393.01 451.661 393.094 451.134 393.262 450.667C393.439 450.2 393.686 449.808 394.004 449.491C394.321 449.164 394.708 448.917 395.166 448.749C395.623 448.572 396.141 448.483 396.72 448.483C397.168 448.483 397.578 448.534 397.952 448.637C398.325 448.73 398.633 448.87 398.876 449.057V450.163C398.577 449.967 398.241 449.822 397.868 449.729C397.504 449.626 397.126 449.575 396.734 449.575C395.884 449.575 395.259 449.794 394.858 450.233C394.466 450.672 394.27 451.344 394.27 452.249C394.27 453.154 394.461 453.826 394.844 454.265C395.226 454.704 395.833 454.923 396.664 454.923C397.102 454.923 397.504 454.872 397.868 454.769C398.241 454.657 398.577 454.517 398.876 454.349V455.455C398.614 455.614 398.297 455.749 397.924 455.861C397.56 455.973 397.14 456.029 396.664 456.029ZM400.528 450.975C400.528 450.564 400.602 450.214 400.752 449.925C400.901 449.626 401.111 449.384 401.382 449.197C401.652 449.001 401.974 448.856 402.348 448.763C402.721 448.67 403.127 448.623 403.566 448.623H405.904V455.889H404.672V453.257H403.342L401.48 455.889H400.01L402.11 452.949C401.606 452.8 401.214 452.571 400.934 452.263C400.663 451.955 400.528 451.526 400.528 450.975ZM404.672 452.207V449.673H403.566C403.043 449.673 402.614 449.771 402.278 449.967C401.942 450.163 401.774 450.48 401.774 450.919C401.774 451.376 401.923 451.708 402.222 451.913C402.52 452.109 402.945 452.207 403.496 452.207H404.672Z" fill="#18123D"/>
<rect x="275" y="513" width="150" height="44" rx="5" fill="#FFF5CC"/>
<path d="M316.179 540.029C315.507 540.029 314.877 539.917 314.289 539.693C313.701 539.46 313.192 539.124 312.763 538.685C312.334 538.246 311.993 537.705 311.741 537.061C311.498 536.417 311.377 535.675 311.377 534.835C311.377 533.995 311.498 533.258 311.741 532.623C311.993 531.979 312.334 531.447 312.763 531.027C313.192 530.598 313.701 530.276 314.289 530.061C314.877 529.837 315.507 529.725 316.179 529.725C316.86 529.725 317.495 529.837 318.083 530.061C318.671 530.276 319.18 530.598 319.609 531.027C320.038 531.456 320.374 531.993 320.617 532.637C320.86 533.272 320.981 534.009 320.981 534.849C320.981 535.68 320.86 536.417 320.617 537.061C320.374 537.705 320.038 538.246 319.609 538.685C319.18 539.124 318.671 539.46 318.083 539.693C317.495 539.917 316.86 540.029 316.179 540.029ZM316.179 538.839C316.664 538.839 317.112 538.769 317.523 538.629C317.934 538.48 318.288 538.251 318.587 537.943C318.895 537.626 319.133 537.215 319.301 536.711C319.478 536.207 319.567 535.596 319.567 534.877C319.567 534.158 319.478 533.547 319.301 533.043C319.133 532.539 318.895 532.133 318.587 531.825C318.288 531.508 317.934 531.279 317.523 531.139C317.112 530.99 316.664 530.915 316.179 530.915C315.694 530.915 315.246 530.99 314.835 531.139C314.424 531.279 314.065 531.508 313.757 531.825C313.458 532.133 313.22 532.539 313.043 533.043C312.875 533.547 312.791 534.158 312.791 534.877C312.791 535.596 312.875 536.207 313.043 536.711C313.22 537.215 313.458 537.626 313.757 537.943C314.065 538.251 314.424 538.48 314.835 538.629C315.246 538.769 315.694 538.839 316.179 538.839ZM325.775 540.029C325.215 540.029 324.706 539.945 324.249 539.777C323.801 539.6 323.418 539.352 323.101 539.035C322.784 538.708 322.541 538.312 322.373 537.845C322.205 537.378 322.121 536.846 322.121 536.249C322.121 535.661 322.205 535.134 322.373 534.667C322.55 534.2 322.798 533.808 323.115 533.491C323.432 533.164 323.82 532.917 324.277 532.749C324.734 532.572 325.252 532.483 325.831 532.483C326.279 532.483 326.69 532.534 327.063 532.637C327.436 532.73 327.744 532.87 327.987 533.057V534.163C327.688 533.967 327.352 533.822 326.979 533.729C326.615 533.626 326.237 533.575 325.845 533.575C324.996 533.575 324.37 533.794 323.969 534.233C323.577 534.672 323.381 535.344 323.381 536.249C323.381 537.154 323.572 537.826 323.955 538.265C324.338 538.704 324.944 538.923 325.775 538.923C326.214 538.923 326.615 538.872 326.979 538.769C327.352 538.657 327.688 538.517 327.987 538.349V539.455C327.726 539.614 327.408 539.749 327.035 539.861C326.671 539.973 326.251 540.029 325.775 540.029ZM332.565 533.673V539.889H331.333V533.673H329.051V532.623H334.889V533.673H332.565ZM340.362 538.503C340.278 538.671 340.17 538.848 340.04 539.035C339.909 539.212 339.746 539.376 339.55 539.525C339.354 539.674 339.12 539.796 338.85 539.889C338.588 539.982 338.28 540.029 337.926 540.029C337.272 540.029 336.745 539.847 336.344 539.483C335.942 539.11 335.742 538.578 335.742 537.887C335.742 537.094 336.017 536.51 336.568 536.137C337.128 535.764 337.921 535.577 338.948 535.577H340.306V534.975C340.306 534.471 340.175 534.112 339.914 533.897C339.652 533.682 339.204 533.575 338.57 533.575C338.122 533.575 337.697 533.65 337.296 533.799C336.894 533.939 336.535 534.102 336.218 534.289V533.183C336.479 533.024 336.829 532.87 337.268 532.721C337.716 532.562 338.206 532.483 338.738 532.483C339.652 532.483 340.348 532.674 340.824 533.057C341.3 533.43 341.538 534.014 341.538 534.807V538.713C341.538 538.797 341.538 538.895 341.538 539.007C341.547 539.11 341.552 539.217 341.552 539.329C341.561 539.441 341.57 539.548 341.58 539.651C341.589 539.744 341.598 539.824 341.608 539.889H340.488C340.46 539.758 340.432 539.576 340.404 539.343C340.385 539.1 340.376 538.89 340.376 538.713L340.362 538.503ZM338.192 538.923C338.574 538.923 338.901 538.844 339.172 538.685C339.442 538.526 339.662 538.344 339.83 538.139C339.998 537.924 340.119 537.719 340.194 537.523C340.268 537.318 340.306 537.173 340.306 537.089V536.557H339.074C338.336 536.557 337.8 536.664 337.464 536.879C337.137 537.084 336.974 537.397 336.974 537.817C336.974 538.144 337.072 538.41 337.268 538.615C337.464 538.82 337.772 538.923 338.192 538.923ZM348.221 536.669H344.707V539.889H343.475V532.623H344.707V535.619H348.221V532.623H349.453V539.889H348.221V536.669ZM354.455 540.029C353.96 540.029 353.498 539.945 353.069 539.777C352.64 539.609 352.266 539.366 351.949 539.049C351.641 538.722 351.398 538.326 351.221 537.859C351.044 537.392 350.955 536.856 350.955 536.249C350.955 535.652 351.044 535.12 351.221 534.653C351.398 534.177 351.641 533.78 351.949 533.463C352.266 533.146 352.64 532.903 353.069 532.735C353.498 532.567 353.96 532.483 354.455 532.483C354.959 532.483 355.426 532.567 355.855 532.735C356.284 532.903 356.653 533.146 356.961 533.463C357.278 533.78 357.526 534.177 357.703 534.653C357.89 535.12 357.983 535.652 357.983 536.249C357.983 536.856 357.89 537.392 357.703 537.859C357.526 538.326 357.278 538.722 356.961 539.049C356.653 539.366 356.284 539.609 355.855 539.777C355.426 539.945 354.959 540.029 354.455 540.029ZM354.455 538.923C354.782 538.923 355.08 538.872 355.351 538.769C355.631 538.657 355.874 538.494 356.079 538.279C356.284 538.055 356.443 537.775 356.555 537.439C356.667 537.103 356.723 536.706 356.723 536.249C356.723 535.792 356.667 535.395 356.555 535.059C356.443 534.723 356.284 534.448 356.079 534.233C355.874 534.009 355.631 533.846 355.351 533.743C355.08 533.631 354.782 533.575 354.455 533.575C354.128 533.575 353.83 533.631 353.559 533.743C353.288 533.846 353.05 534.009 352.845 534.233C352.649 534.448 352.495 534.723 352.383 535.059C352.271 535.395 352.215 535.792 352.215 536.249C352.215 536.706 352.271 537.103 352.383 537.439C352.495 537.775 352.649 538.055 352.845 538.279C353.05 538.494 353.288 538.657 353.559 538.769C353.83 538.872 354.128 538.923 354.455 538.923ZM359.485 532.623H362.201C363.078 532.623 363.741 532.777 364.189 533.085C364.637 533.384 364.861 533.855 364.861 534.499C364.861 534.928 364.749 535.274 364.525 535.535C364.31 535.787 364.002 535.969 363.601 536.081C364.637 536.249 365.155 536.823 365.155 537.803C365.155 538.176 365.08 538.498 364.931 538.769C364.781 539.03 364.576 539.245 364.315 539.413C364.053 539.581 363.736 539.702 363.363 539.777C362.999 539.852 362.602 539.889 362.173 539.889H359.485V532.623ZM360.717 533.673V535.647H362.089C362.555 535.647 362.929 535.563 363.209 535.395C363.498 535.227 363.643 534.984 363.643 534.667C363.643 534.284 363.517 534.023 363.265 533.883C363.013 533.743 362.653 533.673 362.187 533.673H360.717ZM360.717 536.627V538.839H362.159C362.42 538.839 362.653 538.825 362.859 538.797C363.073 538.76 363.255 538.699 363.405 538.615C363.563 538.531 363.685 538.419 363.769 538.279C363.853 538.139 363.895 537.966 363.895 537.761C363.895 537.341 363.75 537.047 363.461 536.879C363.171 536.711 362.737 536.627 362.159 536.627H360.717ZM367.496 537.635C367.626 537.159 367.71 536.515 367.748 535.703C367.785 534.891 367.804 533.864 367.804 532.623H372.69V539.889H371.444V533.673H368.966C368.956 534.672 368.924 535.558 368.868 536.333C368.821 537.108 368.714 537.761 368.546 538.293C368.387 538.825 368.149 539.231 367.832 539.511C367.524 539.782 367.108 539.917 366.586 539.917C366.548 539.917 366.511 539.917 366.474 539.917C366.436 539.917 366.394 539.912 366.348 539.903V538.685C366.394 538.694 366.455 538.699 366.53 538.699C367.006 538.699 367.328 538.344 367.496 537.635ZM380.47 539.273C380.367 539.348 380.241 539.427 380.092 539.511C379.942 539.595 379.76 539.679 379.546 539.763C379.331 539.838 379.088 539.898 378.818 539.945C378.547 540.001 378.244 540.029 377.908 540.029C376.685 540.029 375.756 539.698 375.122 539.035C374.487 538.372 374.17 537.444 374.17 536.249C374.17 535.661 374.254 535.134 374.422 534.667C374.599 534.2 374.842 533.808 375.15 533.491C375.458 533.164 375.822 532.917 376.242 532.749C376.662 532.572 377.119 532.483 377.614 532.483C378.136 532.483 378.603 532.572 379.014 532.749C379.424 532.926 379.76 533.188 380.022 533.533C380.292 533.878 380.474 534.308 380.568 534.821C380.67 535.325 380.67 535.913 380.568 536.585H375.444C375.49 537.369 375.724 537.957 376.144 538.349C376.564 538.732 377.189 538.923 378.02 538.923C378.58 538.923 379.06 538.844 379.462 538.685C379.863 538.526 380.199 538.354 380.47 538.167V539.273ZM377.586 533.575C377.054 533.575 376.596 533.738 376.214 534.065C375.831 534.392 375.588 534.886 375.486 535.549H379.392C379.429 534.877 379.275 534.382 378.93 534.065C378.584 533.738 378.136 533.575 377.586 533.575ZM386.967 536.669H383.453V539.889H382.221V532.623H383.453V535.619H386.967V532.623H388.199V539.889H386.967V536.669Z" fill="#18123D"/>
<path d="M350 157L340 151.227L340 162.774L350 157ZM77 157L77 158L77 157ZM73 177C73 169.689 73 164.986 73 161.993L71 161.993C71 164.986 71 169.689 71 177L73 177ZM77 158L341 158L341 156L77 156L77 158ZM73 161.993C73 159.786 74.789 158 77 158L77 156C73.6881 156 71 158.677 71 161.993L73 161.993Z" fill="#4E496B"/>
<path d="M93 283C85.1199 283 80.126 283 76.9966 283C74.2352 283 72 280.761 72 278L72 177" stroke="#4E496B" stroke-width="2"/>
<path d="M425 115L435 109.227L435 120.774L425 115ZM623 115L623 116L623 115ZM627 135C627 127.689 627 122.986 627 119.993L629 119.993C629 122.986 629 127.689 629 135L627 135ZM623 116L434 116L434 114L623 114L623 116ZM627 119.993C627 117.786 625.211 116 623 116L623 114C626.312 114 629 116.677 629 119.993L627 119.993Z" fill="#4E496B"/>
<path d="M607 283C614.88 283 619.874 283 623.003 283C625.765 283 628 280.761 628 278L628 135" stroke="#4E496B" stroke-width="2"/>
<path d="M425 535C562.987 535 609.422 535 623.016 535C625.777 535 628 532.761 628 530L628 135" stroke="#4E496B" stroke-width="2"/>
<path d="M532 261L526.226 251L537.774 251L532 261ZM531 252C531 249.477 531 247.514 531 245.993L533 245.993C533 247.514 533 249.477 533 252L531 252ZM527 242L376 242L376 240L527 240L527 242ZM531 245.993C531 243.786 529.211 242 527 242L527 240C530.312 240 533 242.677 533 245.993L531 245.993Z" fill="#4E496B"/>
<path d="M350 221C350 228.311 350 233.014 350 236.007C350 238.768 352.239 241 355 241L489 241" stroke="#4E496B" stroke-width="2"/>
<path d="M350 177L344.226 167L355.774 167L350 177ZM349 168L349 137L351 137L351 168L349 168Z" fill="#4E496B"/>
<path d="M350 93L355.774 83L344.226 83L350 93ZM351 84L351 53L349 53L349 84L351 84Z" fill="#4E496B"/>
<path d="M457 283L447 277.226L447 288.774L457 283ZM448 282L425 282L425 284L448 284L448 282Z" fill="#4E496B"/>
<path d="M275 199C269.909 199 266.399 199 263.996 199C261.234 199 259 201.239 259 204L259 309" stroke="#4E496B" stroke-width="2"/>
<path d="M275 367L265 361.226L265 372.774L275 367ZM259 362L260 362L259 362ZM266 366C265.259 366 264.593 366 263.996 366L263.996 368C264.593 368 265.259 368 266 368L266 366ZM260 362L260 309L258 309L258 362L260 362ZM263.996 366C261.788 366 260 364.21 260 362L258 362C258 365.313 260.681 368 263.996 368L263.996 366Z" fill="#4E496B"/>
<rect x="275" y="597" width="150" height="44" rx="5" fill="#DDF2E1"/>
<path d="M319.55 619.297V618.177H320.964C321.664 618.177 322.196 618.028 322.56 617.729C322.924 617.421 323.106 617.001 323.106 616.469C323.106 615.9 322.915 615.498 322.532 615.265C322.149 615.022 321.645 614.901 321.02 614.901C320.376 614.901 319.797 614.971 319.284 615.111C318.771 615.251 318.318 615.424 317.926 615.629V614.383C318.234 614.224 318.635 614.075 319.13 613.935C319.634 613.795 320.269 613.725 321.034 613.725C322.079 613.725 322.91 613.944 323.526 614.383C324.142 614.812 324.45 615.48 324.45 616.385C324.45 616.973 324.273 617.458 323.918 617.841C323.573 618.224 323.064 618.494 322.392 618.653C323.185 618.756 323.783 618.998 324.184 619.381C324.595 619.754 324.8 620.291 324.8 620.991C324.8 621.523 324.697 621.985 324.492 622.377C324.287 622.76 324.007 623.072 323.652 623.315C323.307 623.558 322.896 623.74 322.42 623.861C321.944 623.973 321.44 624.029 320.908 624.029C320.152 624.029 319.503 623.94 318.962 623.763C318.421 623.576 318.024 623.376 317.772 623.161V621.901C318.64 622.526 319.671 622.839 320.866 622.839C321.211 622.839 321.538 622.811 321.846 622.755C322.154 622.69 322.425 622.587 322.658 622.447C322.891 622.307 323.073 622.12 323.204 621.887C323.344 621.654 323.414 621.364 323.414 621.019C323.414 620.384 323.209 619.941 322.798 619.689C322.397 619.428 321.795 619.297 320.992 619.297H319.55ZM330.785 622.503C330.701 622.671 330.593 622.848 330.463 623.035C330.332 623.212 330.169 623.376 329.973 623.525C329.777 623.674 329.543 623.796 329.273 623.889C329.011 623.982 328.703 624.029 328.349 624.029C327.695 624.029 327.168 623.847 326.767 623.483C326.365 623.11 326.165 622.578 326.165 621.887C326.165 621.094 326.44 620.51 326.991 620.137C327.551 619.764 328.344 619.577 329.371 619.577H330.729V618.975C330.729 618.471 330.598 618.112 330.337 617.897C330.075 617.682 329.627 617.575 328.993 617.575C328.545 617.575 328.12 617.65 327.719 617.799C327.317 617.939 326.958 618.102 326.641 618.289V617.183C326.902 617.024 327.252 616.87 327.691 616.721C328.139 616.562 328.629 616.483 329.161 616.483C330.075 616.483 330.771 616.674 331.247 617.057C331.723 617.43 331.961 618.014 331.961 618.807V622.713C331.961 622.797 331.961 622.895 331.961 623.007C331.97 623.11 331.975 623.217 331.975 623.329C331.984 623.441 331.993 623.548 332.003 623.651C332.012 623.744 332.021 623.824 332.031 623.889H330.911C330.883 623.758 330.855 623.576 330.827 623.343C330.808 623.1 330.799 622.89 330.799 622.713L330.785 622.503ZM328.615 622.923C328.997 622.923 329.324 622.844 329.595 622.685C329.865 622.526 330.085 622.344 330.253 622.139C330.421 621.924 330.542 621.719 330.617 621.523C330.691 621.318 330.729 621.173 330.729 621.089V620.557H329.497C328.759 620.557 328.223 620.664 327.887 620.879C327.56 621.084 327.397 621.397 327.397 621.817C327.397 622.144 327.495 622.41 327.691 622.615C327.887 622.82 328.195 622.923 328.615 622.923ZM333.898 616.623H336.614C337.491 616.623 338.154 616.777 338.602 617.085C339.05 617.384 339.274 617.855 339.274 618.499C339.274 618.928 339.162 619.274 338.938 619.535C338.723 619.787 338.415 619.969 338.014 620.081C339.05 620.249 339.568 620.823 339.568 621.803C339.568 622.176 339.493 622.498 339.344 622.769C339.194 623.03 338.989 623.245 338.728 623.413C338.466 623.581 338.149 623.702 337.776 623.777C337.412 623.852 337.015 623.889 336.586 623.889H333.898V616.623ZM335.13 617.673V619.647H336.502C336.968 619.647 337.342 619.563 337.622 619.395C337.911 619.227 338.056 618.984 338.056 618.667C338.056 618.284 337.93 618.023 337.678 617.883C337.426 617.743 337.066 617.673 336.6 617.673H335.13ZM335.13 620.627V622.839H336.572C336.833 622.839 337.066 622.825 337.272 622.797C337.486 622.76 337.668 622.699 337.818 622.615C337.976 622.531 338.098 622.419 338.182 622.279C338.266 622.139 338.308 621.966 338.308 621.761C338.308 621.341 338.163 621.047 337.874 620.879C337.584 620.711 337.15 620.627 336.572 620.627H335.13ZM347.199 623.273C347.097 623.348 346.971 623.427 346.821 623.511C346.672 623.595 346.49 623.679 346.275 623.763C346.061 623.838 345.818 623.898 345.547 623.945C345.277 624.001 344.973 624.029 344.637 624.029C343.415 624.029 342.486 623.698 341.851 623.035C341.217 622.372 340.899 621.444 340.899 620.249C340.899 619.661 340.983 619.134 341.151 618.667C341.329 618.2 341.571 617.808 341.879 617.491C342.187 617.164 342.551 616.917 342.971 616.749C343.391 616.572 343.849 616.483 344.343 616.483C344.866 616.483 345.333 616.572 345.743 616.749C346.154 616.926 346.49 617.188 346.751 617.533C347.022 617.878 347.204 618.308 347.297 618.821C347.4 619.325 347.4 619.913 347.297 620.585H342.173C342.22 621.369 342.453 621.957 342.873 622.349C343.293 622.732 343.919 622.923 344.749 622.923C345.309 622.923 345.79 622.844 346.191 622.685C346.593 622.526 346.929 622.354 347.199 622.167V623.273ZM344.315 617.575C343.783 617.575 343.326 617.738 342.943 618.065C342.561 618.392 342.318 618.886 342.215 619.549H346.121C346.159 618.877 346.005 618.382 345.659 618.065C345.314 617.738 344.866 617.575 344.315 617.575ZM352.604 624.029C352.044 624.029 351.559 623.898 351.148 623.637C350.747 623.376 350.425 623.016 350.182 622.559V626.367H348.95V616.623H350.028L350.154 618.037C350.397 617.561 350.724 617.183 351.134 616.903C351.545 616.623 352.054 616.483 352.66 616.483C353.08 616.483 353.482 616.562 353.864 616.721C354.256 616.87 354.597 617.104 354.886 617.421C355.185 617.729 355.418 618.121 355.586 618.597C355.764 619.064 355.852 619.614 355.852 620.249C355.852 620.893 355.764 621.453 355.586 621.929C355.409 622.396 355.171 622.788 354.872 623.105C354.574 623.413 354.228 623.646 353.836 623.805C353.444 623.954 353.034 624.029 352.604 624.029ZM352.422 622.923C353.066 622.923 353.584 622.704 353.976 622.265C354.378 621.817 354.578 621.145 354.578 620.249C354.578 619.372 354.378 618.709 353.976 618.261C353.584 617.804 353.066 617.575 352.422 617.575C352.105 617.575 351.806 617.631 351.526 617.743C351.256 617.855 351.018 618.023 350.812 618.247C350.616 618.462 350.458 618.737 350.336 619.073C350.224 619.409 350.168 619.801 350.168 620.249C350.168 620.697 350.224 621.089 350.336 621.425C350.458 621.761 350.616 622.041 350.812 622.265C351.018 622.489 351.256 622.657 351.526 622.769C351.806 622.872 352.105 622.923 352.422 622.923ZM366.417 623.889H357.345V616.623H358.577V622.839H361.265V616.623H362.497V622.839H365.185V616.623H366.417V623.889ZM374.215 623.273C374.112 623.348 373.986 623.427 373.837 623.511C373.687 623.595 373.505 623.679 373.291 623.763C373.076 623.838 372.833 623.898 372.563 623.945C372.292 624.001 371.989 624.029 371.653 624.029C370.43 624.029 369.501 623.698 368.867 623.035C368.232 622.372 367.915 621.444 367.915 620.249C367.915 619.661 367.999 619.134 368.167 618.667C368.344 618.2 368.587 617.808 368.895 617.491C369.203 617.164 369.567 616.917 369.987 616.749C370.407 616.572 370.864 616.483 371.359 616.483C371.881 616.483 372.348 616.572 372.759 616.749C373.169 616.926 373.505 617.188 373.767 617.533C374.037 617.878 374.219 618.308 374.313 618.821C374.415 619.325 374.415 619.913 374.313 620.585H369.189C369.235 621.369 369.469 621.957 369.889 622.349C370.309 622.732 370.934 622.923 371.765 622.923C372.325 622.923 372.805 622.844 373.207 622.685C373.608 622.526 373.944 622.354 374.215 622.167V623.273ZM371.331 617.575C370.799 617.575 370.341 617.738 369.959 618.065C369.576 618.392 369.333 618.886 369.231 619.549H373.137C373.174 618.877 373.02 618.382 372.675 618.065C372.329 617.738 371.881 617.575 371.331 617.575ZM380.712 620.669H377.198V623.889H375.966V616.623H377.198V619.619H380.712V616.623H381.944V623.889H380.712V620.669Z" fill="#18123D"/>
</svg>
