<svg xmlns="http://www.w3.org/2000/svg" width="16" height="16" fill="currentColor" aria-hidden="true" class="yc-icon"><svg xmlns="http://www.w3.org/2000/svg" viewBox="0 0 16 16"><path fill="#b3b3b3" d="M8 1.828c-3.479 0-6.297 2.844-6.297 6.297A6.296 6.296 0 0 0 8 14.422c3.453 0 6.297-2.819 6.297-6.297 0-3.453-2.844-6.297-6.297-6.297Zm0 2.793c.584 0 1.066.483 1.066 1.066 0 .61-.482 1.067-1.066 1.067-.61 0-1.066-.457-1.066-1.066 0-.584.457-1.067 1.066-1.067Zm1.422 6.45a.309.309 0 0 1-.305.304H6.883a.293.293 0 0 1-.305-.305v-.61c0-.151.127-.304.305-.304h.304V8.531h-.304a.293.293 0 0 1-.305-.304v-.61c0-.152.127-.304.305-.304h1.625c.152 0 .305.152.305.304v2.54h.304c.153 0 .305.152.305.304v.61Z"/></svg></svg>