<svg xmlns="http://www.w3.org/2000/svg" xmlns:xlink="http://www.w3.org/1999/xlink" width="12" height="12" class="yc-icon" fill="currentColor" stroke="none" aria-hidden="true"><svg viewBox="0 0 14 15" xmlns="http://www.w3.org/2000/svg"><path d="M8.20312 12.125H8.85938C9.02344 12.125 9.1875 11.9883 9.1875 11.7969V5.89062C9.1875 5.72656 9.02344 5.5625 8.85938 5.5625H8.20312C8.01172 5.5625 7.875 5.72656 7.875 5.89062V11.7969C7.875 11.9883 8.01172 12.125 8.20312 12.125ZM12.6875 2.9375H10.418L9.48828 1.40625C9.26953 1.05078 8.77734 0.75 8.36719 0.75H5.60547C5.19531 0.75 4.70312 1.05078 4.48438 1.40625L3.55469 2.9375H1.3125C1.06641 2.9375 0.875 3.15625 0.875 3.375V3.8125C0.875 4.05859 1.06641 4.25 1.3125 4.25H1.75V13.4375C1.75 14.1758 2.32422 14.75 3.0625 14.75H10.9375C11.6484 14.75 12.25 14.1758 12.25 13.4375V4.25H12.6875C12.9062 4.25 13.125 4.05859 13.125 3.8125V3.375C13.125 3.15625 12.9062 2.9375 12.6875 2.9375ZM5.55078 2.14453C5.57812 2.11719 5.66016 2.0625 5.6875 2.0625H5.71484H8.28516C8.3125 2.0625 8.39453 2.11719 8.42188 2.14453L8.88672 2.9375H5.08594L5.55078 2.14453ZM10.9375 13.4375H3.0625V4.25H10.9375V13.4375ZM5.14062 12.125H5.79688C5.96094 12.125 6.125 11.9883 6.125 11.7969V5.89062C6.125 5.72656 5.96094 5.5625 5.79688 5.5625H5.14062C4.94922 5.5625 4.8125 5.72656 4.8125 5.89062V11.7969C4.8125 11.9883 4.94922 12.125 5.14062 12.125Z"></path></svg></svg>