<svg xmlns="http://www.w3.org/2000/svg" xmlns:xlink="http://www.w3.org/1999/xlink" width="20" height="20" class="yc-icon nv-aside-header-footer-item__icon" fill="currentColor" stroke="none" aria-hidden="true"><svg fill="none" xmlns="http://www.w3.org/2000/svg"><path fill-rule="evenodd" clip-rule="evenodd" d="M10 5.5a1.5 1.5 0 1 0 0-3 1.5 1.5 0 0 0 0 3Zm-6 6a1.5 1.5 0 1 0 0-3 1.5 1.5 0 0 0 0 3Zm7.5-1.5a1.5 1.5 0 1 1-3 0 1.5 1.5 0 0 1 3 0Zm6 0a1.5 1.5 0 1 1-3 0 1.5 1.5 0 0 1 3 0Zm-6 6a1.5 1.5 0 1 1-3 0 1.5 1.5 0 0 1 3 0Zm4.5 1.5a1.5 1.5 0 1 0 0-3 1.5 1.5 0 0 0 0 3ZM5.5 16a1.5 1.5 0 1 1-3 0 1.5 1.5 0 0 1 3 0Zm12-12a1.5 1.5 0 1 1-3 0 1.5 1.5 0 0 1 3 0ZM4 5.5a1.5 1.5 0 1 0 0-3 1.5 1.5 0 0 0 0 3Z" fill="currentColor"></path></svg></svg>