<svg xmlns="http://www.w3.org/2000/svg" width="14" height="14" fill="currentColor" aria-hidden="true" class="yc-icon">
    <svg xmlns="http://www.w3.org/2000/svg" viewBox="0 0 14 14">
        <path d="M7 .828A6.296 6.296 0 0 0 .703 7.125 6.296 6.296 0 0 0 7 13.422a6.296 6.296 0 0 0 6.297-6.297A6.296 6.296 0 0 0 7 .828Zm0 11.375a5.06 5.06 0 0 1-5.078-5.078A5.077 5.077 0 0 1 7 2.047c2.793 0 5.078 2.285 5.078 5.078A5.077 5.077 0 0 1 7 12.203Zm1.549-2.64c.152.101.33.076.431-.077l.483-.634c.101-.153.076-.33-.076-.432L7.71 7.176V3.57a.328.328 0 0 0-.305-.304h-.812a.309.309 0 0 0-.305.304v4.19c0 .076.025.178.102.228l2.158 1.574Z"/>
    </svg>
</svg>
