<svg xmlns="http://www.w3.org/2000/svg" width="16" height="16" fill="currentColor" aria-hidden="true" class="yc-icon GridTableSettingsPopup-ItemIcon"><svg xmlns="http://www.w3.org/2000/svg" fill="none" viewBox="0 0 16 16"><path fill="currentColor" d="m14.12 1.625-4.14.025a.347.347 0 0 0-.355.356v.838c0 .203.152.38.355.38l1.88-.076.05.051-7.084 7.084a.385.385 0 0 0-.101.203c0 .076.05.178.101.229l.584.584c.05.05.152.101.229.101.05 0 .152-.05.203-.101l7.084-7.084.05.05-.076 1.88c0 .203.178.355.381.355h.838a.347.347 0 0 0 .356-.355l.025-4.14a.39.39 0 0 0-.38-.38Zm-1.651 7.313h-.406a.418.418 0 0 0-.407.406v3.91c0 .101-.076.152-.152.152H2.87c-.101 0-.152-.05-.152-.152V4.62c0-.076.05-.152.152-.152h3.91a.418.418 0 0 0 .407-.407v-.406a.437.437 0 0 0-.407-.406H2.72c-.686 0-1.219.559-1.219 1.219v8.937c0 .686.533 1.219 1.219 1.219h8.937c.66 0 1.219-.533 1.219-1.219V9.344a.437.437 0 0 0-.406-.406Z"/></svg></svg>