<svg xmlns="http://www.w3.org/2000/svg" xmlns:xlink="http://www.w3.org/1999/xlink" width="18" height="18" class="yc-icon nv-composite-bar__menu-icon" fill="currentColor" stroke="none" aria-hidden="true"><svg xmlns="http://www.w3.org/2000/svg" fill="none" viewBox="0 0 18 18"><path fill="currentColor" fill-rule="evenodd" d="m12.215 6.27-.381-.932H6.009l-.426-1.274h6.279l.288-1.13a1.5 1.5 0 0 1 1.135-1.095l1.396-.304A1.5 1.5 0 0 1 16.5 3.001v3.005a1.5 1.5 0 0 1-1.819 1.466l-1.396-.303a1.5 1.5 0 0 1-1.07-.899Zm.752 2.364a3 3 0 0 1-2.14-1.796H5.648a1 1 0 0 1-.948-.683l-.649-1.941A1 1 0 0 1 4 3.897v-.333a1 1 0 0 1 1-1h5.696a3 3 0 0 1 2.27-2.19L14.364.07A3 3 0 0 1 18 3v3.005a3 3 0 0 1-3.637 2.932l-1.396-.304Zm1.029-3.021a.75.75 0 0 0 1.5 0v-1.9a.75.75 0 0 0-1.5 0v1.9ZM5.785 15.27l.381-.932h5.825l.426-1.274H6.138l-.288-1.13a1.5 1.5 0 0 0-1.135-1.095l-1.396-.304A1.5 1.5 0 0 0 1.5 12.001v3.005a1.5 1.5 0 0 0 1.819 1.466l1.396-.303a1.5 1.5 0 0 0 1.07-.899Zm-.752 2.364a3 3 0 0 0 2.14-1.796h5.178a1 1 0 0 0 .949-.683l.648-1.941a1 1 0 0 0 .052-.317v-.333a1 1 0 0 0-1-1H7.304a3 3 0 0 0-2.27-2.19L3.636 9.07A3 3 0 0 0 0 12v3.005a3 3 0 0 0 3.637 2.932l1.396-.304Zm-1.029-3.021a.75.75 0 0 1-1.5 0v-1.9a.75.75 0 0 1 1.5 0v1.9Z" clip-rule="evenodd"></path></svg></svg>