<svg xmlns="http://www.w3.org/2000/svg" xmlns:xlink="http://www.w3.org/1999/xlink" width="16" height="16" class="yc-icon nv-composite-bar__menu-icon" fill="currentColor" stroke="none"><svg xmlns="http://www.w3.org/2000/svg" viewBox="0 0 16 16"><path d="M7.525 12.475c-.423.35-.949.525-1.578.525-.327 0-.561-.026-.699-.076v-1.216c.057.014.16.03.307.049s.277.028.393.028c.309 0 .53-.086.67-.258.139-.172.232-.43.285-.772l.612-3.604h-.811l.229-1.139h.779l.131-.789c.124-.781.397-1.348.82-1.698.425-.35.962-.525 1.612-.525.153 0 .286.008.398.021.115.016.2.029.258.045v1.237a1.321 1.321 0 0 0-.307-.055 3.878 3.878 0 0 0-.395-.022c-.307 0-.527.082-.662.246-.134.166-.231.416-.29.752l-.131.789h1.314l-.23 1.139H8.949l-.602 3.625c-.124.781-.399 1.347-.822 1.698zm-2.826 3.507a5.78 5.78 0 0 0 .555-.074l.072-.013v-1.149l-.105.021a4.707 4.707 0 0 1-.881.104c-.568 0-.96-.133-1.167-.396-.21-.272-.316-.618-.316-1.03 0-.27.02-.524.067-.794l.242-1.382c.042-.244.062-.524.062-.832 0-.253-.024-.499-.072-.731a1.968 1.968 0 0 0-.287-.682 2.618 2.618 0 0 0-.565-.601c-.19-.151-.43-.29-.714-.415.281-.122.523-.263.723-.416.241-.188.432-.397.567-.623.133-.222.225-.459.275-.707.048-.238.072-.487.072-.74 0-.298-.021-.572-.062-.818l-.248-1.402a4.36 4.36 0 0 1-.061-.744c0-.435.109-.787.323-1.047.212-.254.607-.382 1.177-.382.126 0 .262.008.405.025.146.018.564.075.564.075V.098L4.702.026A5.045 5.045 0 0 0 4.199 0C3.271 0 2.582.235 2.15.698c-.432.462-.65 1.076-.65 1.823 0 .295.024.563.071.803.047.242.097.48.15.717.053.234.104.475.15.721.047.243.069.511.069.796 0 .235-.022.465-.069.677a1.23 1.23 0 0 1-.264.544c-.132.16-.32.297-.561.409-.238.113-.564.187-.966.222L0 7.417v1.167l.081.006c.421.035.757.115.999.238.24.123.426.273.552.442.126.17.209.369.248.587.041.234.061.479.061.727 0 .273-.022.529-.069.76-.047.232-.098.465-.151.694-.053.231-.103.464-.149.699a3.818 3.818 0 0 0-.072.775c0 .74.214 1.344.64 1.799.427.457 1.119.689 2.059.689.164 0 .332-.006.5-.018zM11.301.018a5.78 5.78 0 0 0-.555.074l-.072.013v1.149l.105-.021c.348-.069.646-.104.881-.104.568 0 .961.133 1.167.396.21.272.316.618.316 1.03 0 .27-.021.524-.067.794l-.241 1.381a4.969 4.969 0 0 0-.062.832c0 .253.024.499.072.731.05.239.146.468.286.682.141.212.33.415.565.601.19.151.43.29.714.415a3.452 3.452 0 0 0-.723.416 2.28 2.28 0 0 0-.567.624 2.203 2.203 0 0 0-.275.707 3.752 3.752 0 0 0-.072.74c0 .298.021.572.062.818l.247 1.401c.041.235.062.485.062.744 0 .435-.108.787-.323 1.047-.212.254-.607.382-1.177.382-.126 0-.262-.008-.405-.025-.146-.018-.564-.075-.564-.075v1.132l.624.071c.168.018.337.027.502.027.929 0 1.617-.235 2.049-.698.433-.462.65-1.076.65-1.823 0-.295-.024-.563-.071-.803-.047-.242-.097-.48-.149-.717a17.592 17.592 0 0 1-.15-.721 4.219 4.219 0 0 1-.07-.796c0-.235.023-.465.069-.677.045-.207.132-.386.265-.545.132-.16.32-.297.561-.409.238-.112.564-.187.967-.222L16 8.583V7.416l-.08-.006c-.422-.035-.758-.115-1-.238a1.568 1.568 0 0 1-.552-.441 1.392 1.392 0 0 1-.248-.588 4.228 4.228 0 0 1 .007-1.487c.048-.232.098-.465.151-.694.053-.231.103-.464.148-.699.051-.238.074-.492.074-.775 0-.74-.215-1.344-.64-1.799C13.434.232 12.74 0 11.801 0c-.164 0-.332.006-.5.018z"></path></svg></svg>
