<svg xmlns="http://www.w3.org/2000/svg" xmlns:xlink="http://www.w3.org/1999/xlink" width="16" height="16" class="yc-icon nv-composite-bar__menu-icon" fill="currentColor" stroke="none"><svg xmlns="http://www.w3.org/2000/svg" viewBox="0 0 16 16"><path d="M6.094 15.27l-.045-.239-.193-.967-.334-.116a6.35 6.35 0 01-1.372-.788l-.297-.255-.925.314-.231.08a.99.99 0 01-1.104-.463L.632 11.16a.983.983 0 01.155-1.19l.181-.155.73-.647-.07-.372a6.46 6.46 0 01-.002-1.594l.068-.372-.727-.647-.18-.153a.983.983 0 01-.154-1.193l.96-1.674a.988.988 0 011.106-.461l.228.08.915.311.298-.258a6.386 6.386 0 011.38-.794l.338-.119.193-.952.043-.239A.993.993 0 017.044 0h1.927a.992.992 0 01.95.734l.043.236.192.957.337.12a6.42 6.42 0 011.371.793l.298.256.925-.31.228-.083a.99.99 0 011.106.461l.962 1.675a.988.988 0 01-.155 1.192l-.182.154-.74.655.068.368a6.52 6.52 0 010 1.585l-.07.37.741.652.183.155a.988.988 0 01.156 1.19l-.963 1.676a.992.992 0 01-1.104.463l-.23-.08-.935-.317-.294.254a6.415 6.415 0 01-1.366.786l-.333.118-.195.972-.044.236a.988.988 0 01-.949.731H7.044a.99.99 0 01-.95-.73zm2.587-.604l.323-1.636.392-.112a5.082 5.082 0 002.148-1.247l.294-.287 1.57.54.678-1.182-1.25-1.095.098-.394a5.163 5.163 0 00.002-2.503l-.098-.395 1.248-1.096-.678-1.18-1.562.535-.294-.287a5.112 5.112 0 00-2.161-1.26L9 2.954l-.32-1.62H7.333l-.317 1.622-.396.111a5.036 5.036 0 00-2.168 1.257l-.294.288-1.553-.534-.677 1.181 1.235 1.086-.098.394a5.17 5.17 0 00.004 2.518l.101.396-1.242 1.089.678 1.182 1.562-.538.293.287a5.06 5.06 0 002.157 1.248l.394.111.32 1.634zm-2.589-4.107a1.606 1.606 0 01-.091-.557v-4.01a1.605 1.605 0 01.091-.555 1.088 1.088 0 011.328-.7 1.581 1.581 0 01.511.238l2.723 1.866a1.52 1.52 0 01.557.659 1.275 1.275 0 010 .996 1.521 1.521 0 01-.556.66L7.93 11.02a1.582 1.582 0 01-.511.238 1.088 1.088 0 01-1.328-.7zm1.242-.744l2.568-1.759A.308.308 0 009.967 8a.332.332 0 00-.065-.059L7.334 6.181z"></path></svg></svg>
