<svg xmlns="http://www.w3.org/2000/svg" width="85" height="20" fill="none" viewBox="0 0 85 20">
    <g clip-path="url(#clip0_3479_35435)">
        <path fill="#000" fill-opacity=".7" fill-rule="evenodd" d="M16.125 10a4.125 4.125 0 1 1-8.25 0 4.125 4.125 0 0 1 8.25 0Zm1.125 0a5.25 5.25 0 1 1-10.5 0 5.25 5.25 0 0 1 10.5 0Zm-6.352-1.898a.562.562 0 1 0-.796.796L11.204 10l-1.102 1.102a.562.562 0 1 0 .796.796L12 10.796l1.102 1.102a.562.562 0 1 0 .796-.796L12.796 10l1.102-1.102a.562.562 0 1 0-.796-.796L12 9.204l-1.102-1.102Z" clip-rule="evenodd"/>
    </g>
    <path fill="#000" fill-opacity=".7" d="M28.135 14.13c-.693 0-1.322-.108-1.885-.325a4.127 4.127 0 0 1-1.456-.936 4.285 4.285 0 0 1-.923-1.508c-.217-.598-.325-1.27-.325-2.015 0-.754.1-1.426.299-2.015.2-.59.494-1.088.884-1.495.39-.416.867-.732 1.43-.949.572-.217 1.222-.325 1.95-.325.633 0 1.187.07 1.664.208.477.13.867.286 1.17.468v1.17a4.312 4.312 0 0 0-1.352-.559 6.354 6.354 0 0 0-1.495-.182c-1.1 0-1.915.308-2.444.923-.52.607-.78 1.525-.78 2.756 0 1.24.282 2.162.845 2.769.572.607 1.413.91 2.522.91.477 0 .94-.065 1.391-.195.46-.13.897-.351 1.313-.663v1.17c-.251.2-.62.381-1.105.546-.477.165-1.044.247-1.703.247Zm8.411-1.417c-.078.156-.178.32-.299.494a2.26 2.26 0 0 1-1.105.793c-.242.087-.529.13-.858.13-.606 0-1.096-.169-1.469-.507-.372-.347-.559-.84-.559-1.482 0-.737.256-1.278.767-1.625.52-.347 1.257-.52 2.21-.52h1.261v-.559c0-.468-.121-.802-.364-1.001-.242-.2-.659-.299-1.248-.299-.416 0-.81.07-1.183.208-.372.13-.706.282-1 .455V7.773c.242-.147.567-.29.974-.429a4.063 4.063 0 0 1 1.365-.221c.85 0 1.495.178 1.937.533.442.347.663.888.663 1.625v3.9c.009.095.013.195.013.299l.026.299c.009.087.017.16.026.221h-1.04a5.934 5.934 0 0 1-.078-.507 7.787 7.787 0 0 1-.026-.585l-.013-.195Zm-2.015.39c.355 0 .659-.074.91-.221.252-.147.455-.316.611-.507.156-.2.269-.39.338-.572.07-.19.104-.325.104-.403v-.494H35.35c-.684 0-1.183.1-1.495.299-.303.19-.455.481-.455.871 0 .303.091.55.273.741.182.19.468.286.858.286Zm8.104-4.966c-.52 0-.945.121-1.274.364a2.67 2.67 0 0 0-.78.91V14h-1.144V7.253h1.079l.039 1.209h.026c.182-.39.468-.71.858-.962.39-.251.884-.377 1.482-.377.667 0 1.196.178 1.586.533.399.347.598.884.598 1.612V14h-1.144V9.385c0-.468-.117-.793-.351-.975-.234-.182-.559-.273-.975-.273Zm7.192 5.993c-.52 0-.993-.078-1.417-.234a3.1 3.1 0 0 1-1.066-.689 3.038 3.038 0 0 1-.677-1.105 4.36 4.36 0 0 1-.233-1.482c0-.546.078-1.036.233-1.469.165-.433.395-.797.69-1.092a2.85 2.85 0 0 1 1.078-.689 3.967 3.967 0 0 1 1.444-.247c.416 0 .797.048 1.144.143.346.087.632.217.857.39v1.027a3.03 3.03 0 0 0-.936-.403 3.86 3.86 0 0 0-1.053-.143c-.788 0-1.369.204-1.741.611-.364.407-.547 1.031-.547 1.872 0 .84.178 1.465.533 1.872.356.407.92.611 1.69.611.408 0 .78-.048 1.118-.143a4.56 4.56 0 0 0 .936-.39v1.027a3.984 3.984 0 0 1-2.054.533Zm8.817-.702a3.646 3.646 0 0 1-.858.455c-.2.07-.425.126-.676.169a4.186 4.186 0 0 1-.845.078c-1.136 0-1.998-.308-2.587-.923-.59-.615-.884-1.478-.884-2.587 0-.546.078-1.036.234-1.469a3.15 3.15 0 0 1 .676-1.092 2.812 2.812 0 0 1 1.014-.689c.39-.165.814-.247 1.274-.247.485 0 .919.082 1.3.247.381.165.693.407.936.728.251.32.42.72.507 1.196.095.468.095 1.014 0 1.638h-4.758c.043.728.26 1.274.65 1.638.39.355.97.533 1.742.533.52 0 .966-.074 1.339-.221a4.7 4.7 0 0 0 .936-.481v1.027Zm-2.678-5.291c-.494 0-.919.152-1.274.455-.355.303-.58.763-.676 1.378h3.627c.035-.624-.108-1.083-.43-1.378-.32-.303-.736-.455-1.247-.455Zm5.346-3.458V14h-1.144V4.679h1.144Zm7.234 8.749a3.51 3.51 0 0 1-.35.221 4.075 4.075 0 0 1-.508.234c-.2.07-.425.126-.676.169a4.185 4.185 0 0 1-.845.078c-1.135 0-1.998-.308-2.587-.923-.59-.615-.884-1.478-.884-2.587 0-.546.078-1.036.234-1.469.165-.433.39-.797.676-1.092a2.812 2.812 0 0 1 1.014-.689c.39-.165.815-.247 1.274-.247.485 0 .919.082 1.3.247.382.165.694.407.936.728.252.32.42.72.507 1.196.096.468.096 1.014 0 1.638H63.88c.044.728.26 1.274.65 1.638.39.355.97.533 1.742.533.52 0 .966-.074 1.34-.221a4.69 4.69 0 0 0 .935-.481v1.027Zm-2.678-5.291a1.9 1.9 0 0 0-1.274.455c-.355.303-.58.763-.676 1.378h3.627c.035-.624-.108-1.083-.429-1.378-.32-.303-.737-.455-1.248-.455Zm9.039 4.537a2.708 2.708 0 0 1-.871 1.066c-.373.26-.845.39-1.417.39-.408 0-.793-.07-1.157-.208a2.78 2.78 0 0 1-.962-.65 3.26 3.26 0 0 1-.663-1.092c-.165-.442-.247-.962-.247-1.56 0-.59.082-1.1.247-1.534.164-.442.385-.806.663-1.092a2.56 2.56 0 0 1 .962-.65 3.153 3.153 0 0 1 1.17-.221c.511 0 .953.108 1.326.325.372.208.671.507.897.897V4.679h1.144V14h-1.001l-.091-1.326Zm-2.12.429c.295 0 .568-.048.82-.143.251-.104.468-.26.65-.468.19-.208.338-.468.442-.78.112-.312.169-.676.169-1.092 0-.416-.057-.78-.17-1.092a2.136 2.136 0 0 0-.441-.78 1.614 1.614 0 0 0-.65-.455 2.121 2.121 0 0 0-.82-.156c-.597 0-1.087.212-1.468.637-.373.416-.56 1.031-.56 1.846 0 .823.191 1.443.573 1.859.381.416.866.624 1.456.624Z"/>
    <defs>
        <clipPath id="clip0_3479_35435">
            <path fill="#fff" d="M6 4h12v12H6z"/>
        </clipPath>
    </defs>
</svg>
