<svg xmlns="http://www.w3.org/2000/svg" width="96" height="20" fill="none" viewBox="0 0 96 20">
    <g clip-path="url(#clip0_3479_35434)">
        <path fill="#3AB935" fill-rule="evenodd" d="M16.125 10a4.125 4.125 0 1 1-8.25 0 4.125 4.125 0 0 1 8.25 0Zm1.125 0a5.25 5.25 0 1 1-10.5 0 5.25 5.25 0 0 1 10.5 0Zm-2.925-1.162a.563.563 0 0 0-.9-.675l-1.86 2.48-1.042-1.04a.562.562 0 1 0-.796.795l1.5 1.5a.563.563 0 0 0 .848-.06l2.25-3Z" clip-rule="evenodd"/>
    </g>
    <path fill="#3AB935" d="M28.135 14.13c-.693 0-1.322-.108-1.885-.325a4.127 4.127 0 0 1-1.456-.936 4.285 4.285 0 0 1-.923-1.508c-.217-.598-.325-1.27-.325-2.015 0-.754.1-1.426.299-2.015.2-.59.494-1.088.884-1.495.39-.416.867-.732 1.43-.949.572-.217 1.222-.325 1.95-.325.633 0 1.187.07 1.664.208.477.13.867.286 1.17.468v1.17a4.312 4.312 0 0 0-1.352-.559 6.354 6.354 0 0 0-1.495-.182c-1.1 0-1.915.308-2.444.923-.52.607-.78 1.525-.78 2.756 0 1.24.282 2.162.845 2.769.572.607 1.413.91 2.522.91.477 0 .94-.065 1.391-.195.46-.13.897-.351 1.313-.663v1.17c-.251.2-.62.381-1.105.546-.477.165-1.044.247-1.703.247Zm7.228 0a3.5 3.5 0 0 1-1.287-.234 2.997 2.997 0 0 1-1.04-.676 3.295 3.295 0 0 1-.676-1.105c-.164-.433-.247-.932-.247-1.495 0-.555.083-1.049.247-1.482.165-.442.39-.81.676-1.105.295-.295.642-.52 1.04-.676a3.5 3.5 0 0 1 1.287-.234c.468 0 .901.078 1.3.234a2.86 2.86 0 0 1 1.027.676c.295.295.525.663.69 1.105.172.433.26.927.26 1.482 0 .563-.087 1.062-.26 1.495a3.188 3.188 0 0 1-.69 1.105 2.86 2.86 0 0 1-1.027.676 3.537 3.537 0 0 1-1.3.234Zm0-1.027c.303 0 .58-.048.832-.143a1.9 1.9 0 0 0 .676-.455c.19-.208.338-.468.442-.78.104-.312.156-.68.156-1.105 0-.425-.052-.793-.156-1.105a2.009 2.009 0 0 0-.442-.767 1.7 1.7 0 0 0-.676-.455 2.156 2.156 0 0 0-.832-.156c-.303 0-.58.052-.832.156a1.718 1.718 0 0 0-.663.455 2.11 2.11 0 0 0-.429.767c-.104.312-.156.68-.156 1.105 0 .425.052.793.156 1.105.104.312.247.572.43.78.19.2.41.351.662.455.252.095.529.143.832.143Zm5.815.897h-1.144V7.253h1l.118 1.209h.026c.182-.381.455-.698.819-.949.364-.26.84-.39 1.43-.39.52 0 .944.126 1.274.377.338.243.563.611.676 1.105.19-.46.48-.819.87-1.079.4-.269.88-.403 1.444-.403.624 0 1.118.178 1.482.533.364.347.546.884.546 1.612V14h-1.157V9.411c0-.442-.109-.763-.325-.962-.217-.208-.512-.312-.884-.312a1.74 1.74 0 0 0-.663.117c-.191.07-.36.169-.507.299a2.56 2.56 0 0 0-.403.455 5.75 5.75 0 0 0-.338.546V14h-1.144V9.281c0-.433-.109-.732-.325-.897-.217-.165-.512-.247-.884-.247-.243 0-.46.03-.65.091-.191.06-.364.147-.52.26a2.045 2.045 0 0 0-.403.416c-.122.156-.234.33-.338.52V14Zm13.725.13c-.52 0-.97-.121-1.352-.364a2.648 2.648 0 0 1-.897-1.001v3.536H51.51V7.253h1.001l.117 1.313c.226-.442.529-.793.91-1.053.382-.26.854-.39 1.417-.39.39 0 .763.074 1.118.221.364.139.68.355.95.65.277.286.493.65.65 1.092.164.433.246.945.246 1.534 0 .598-.082 1.118-.247 1.56a3.26 3.26 0 0 1-.663 1.092 2.78 2.78 0 0 1-.962.65 3.185 3.185 0 0 1-1.144.208Zm-.169-1.027c.598 0 1.08-.204 1.443-.611.373-.416.56-1.04.56-1.872 0-.815-.187-1.43-.56-1.846-.364-.425-.845-.637-1.443-.637a2.22 2.22 0 0 0-.832.156c-.251.104-.472.26-.663.468-.182.2-.33.455-.442.767a3.457 3.457 0 0 0-.156 1.092c0 .416.052.78.156 1.092.113.312.26.572.442.78.19.208.412.364.663.468.26.095.538.143.832.143Zm5.715-8.424V14h-1.144V4.679h1.144Zm7.234 8.749c-.095.07-.212.143-.351.221a4.062 4.062 0 0 1-.507.234c-.2.07-.425.126-.676.169a4.185 4.185 0 0 1-.845.078c-1.135 0-1.998-.308-2.587-.923-.59-.615-.884-1.478-.884-2.587 0-.546.078-1.036.234-1.469.165-.433.39-.797.676-1.092a2.812 2.812 0 0 1 1.014-.689c.39-.165.815-.247 1.274-.247.485 0 .919.082 1.3.247.381.165.693.407.936.728.251.32.42.72.507 1.196.095.468.095 1.014 0 1.638h-4.758c.043.728.26 1.274.65 1.638.39.355.97.533 1.742.533.52 0 .966-.074 1.339-.221.373-.147.685-.308.936-.481v1.027Zm-2.678-5.291c-.494 0-.919.152-1.274.455-.355.303-.58.763-.676 1.378h3.627c.035-.624-.108-1.083-.43-1.378-.32-.303-.736-.455-1.247-.455Zm7.505 5.72a2.091 2.091 0 0 1-.534.195 2.944 2.944 0 0 1-.689.078 2.25 2.25 0 0 1-.845-.143 1.629 1.629 0 0 1-.558-.377 1.604 1.604 0 0 1-.326-.546 2.262 2.262 0 0 1-.09-.637V8.228h-.806v-.975h.805V5.836h1.145v1.417h1.963v.975h-1.963v4.056c0 .286.069.494.208.624.147.13.403.195.767.195.337 0 .645-.095.922-.286v1.04Zm6.827-.429a3.51 3.51 0 0 1-.35.221 4.062 4.062 0 0 1-.508.234c-.2.07-.424.126-.676.169a4.185 4.185 0 0 1-.845.078c-1.135 0-1.997-.308-2.587-.923-.59-.615-.884-1.478-.884-2.587 0-.546.078-1.036.234-1.469.165-.433.39-.797.676-1.092a2.812 2.812 0 0 1 1.014-.689c.39-.165.815-.247 1.274-.247.486 0 .919.082 1.3.247.382.165.694.407.936.728.252.32.42.72.507 1.196.096.468.096 1.014 0 1.638H74.67c.044.728.26 1.274.65 1.638.39.355.97.533 1.742.533.52 0 .967-.074 1.34-.221a4.69 4.69 0 0 0 .935-.481v1.027ZM76.66 8.137a1.9 1.9 0 0 0-1.274.455c-.355.303-.58.763-.676 1.378h3.627c.035-.624-.108-1.083-.429-1.378-.32-.303-.736-.455-1.248-.455Zm9.039 4.537a2.708 2.708 0 0 1-.871 1.066c-.373.26-.845.39-1.417.39-.408 0-.793-.07-1.157-.208a2.78 2.78 0 0 1-.962-.65 3.26 3.26 0 0 1-.663-1.092c-.165-.442-.247-.962-.247-1.56 0-.59.082-1.1.247-1.534.164-.442.385-.806.663-1.092a2.56 2.56 0 0 1 .962-.65 3.153 3.153 0 0 1 1.17-.221c.511 0 .953.108 1.326.325.372.208.671.507.897.897V4.679h1.144V14H85.79l-.091-1.326Zm-2.12.429c.295 0 .568-.048.82-.143.251-.104.468-.26.65-.468.19-.208.338-.468.442-.78.112-.312.169-.676.169-1.092 0-.416-.057-.78-.17-1.092a2.136 2.136 0 0 0-.441-.78 1.614 1.614 0 0 0-.65-.455 2.121 2.121 0 0 0-.82-.156c-.597 0-1.087.212-1.468.637-.373.416-.56 1.031-.56 1.846 0 .823.191 1.443.573 1.859.381.416.866.624 1.456.624Z"/>
    <defs>
        <clipPath id="clip0_3479_35434">
            <path fill="#fff" d="M6 4h12v12H6z"/>
        </clipPath>
    </defs>
</svg>
