<svg xmlns="http://www.w3.org/2000/svg" xmlns:xlink="http://www.w3.org/1999/xlink" width="16" height="16" class="yc-icon" fill="currentColor" stroke="none" aria-hidden="true"><svg viewBox="0 0 16 14" xmlns="http://www.w3.org/2000/svg"><path d="M10.9 9.4v3.1h-9v-9h6.3l.8-.9c.1-.1 0-.4-.2-.4H2c-.7 0-1.2.6-1.2 1.3v9c0 .6.5 1.1 1.2 1.1h9c.6 0 1.2-.5 1.2-1.2V8.7c0-.2-.3-.3-.4-.1l-.8.8Zm4-5.1c.5-.6.5-1.5 0-2.1L13.8 1c-.6-.6-1.6-.6-2.1 0L5 7.7 4.7 10A1 1 0 0 0 6 11.2l2.3-.3L15 4.3Zm-2.5.7L7.6 9.8 6 10l.2-1.7 4.7-4.7L12.4 5ZM14 3c.1.1.1.3 0 .4l-.8.8-1.4-1.5.7-.8h.4l1 1.1Z"></path></svg></svg>