<svg xmlns="http://www.w3.org/2000/svg" width="18" height="18" fill="none"><path fill="#000" fill-rule="evenodd" d="M8.912 2.339a.337.337 0 0 1 .2 0s.007.002.024.011c.02.011.05.032.096.068.099.078.221.193.424.382l6.276 5.838a.676.676 0 1 0 .92-.99L10.56 1.796a8.735 8.735 0 0 0-.49-.435 1.722 1.722 0 0 0-.558-.311c-.325-.1-.672-.1-.997 0a1.708 1.708 0 0 0-.56.311 8.73 8.73 0 0 0-.489.435L1.172 7.65a.675.675 0 0 0 .92.989L8.368 2.8c.202-.188.326-.301.425-.38a.838.838 0 0 1 .096-.068c.017-.01.022-.01.023-.01v-.003ZM4.498 9.5a.675.675 0 0 0-1.35 0v5.49c0 .263 0 .5.015.696.017.21.057.434.17.654.16.317.419.576.736.738.22.112.443.15.654.168.197.016.433.016.696.016h7.162c.262 0 .5 0 .695-.017.212-.017.435-.056.655-.167.318-.162.576-.42.738-.738.111-.22.15-.444.167-.654.016-.197.016-.433.016-.696V9.5a.675.675 0 1 0-1.35 0v5.466c0 .295 0 .475-.011.61a.875.875 0 0 1-.026.15.337.337 0 0 1-.147.148l-.006.002-.022.007a.889.889 0 0 1-.124.017c-.135.011-.315.011-.61.011H5.445c-.295 0-.476 0-.61-.011a.881.881 0 0 1-.147-.023l-.005-.003a.337.337 0 0 1-.15-.153.868.868 0 0 1-.022-.146c-.011-.134-.011-.315-.011-.609V9.501h-.002Z" clip-rule="evenodd"/></svg>