<svg xmlns="http://www.w3.org/2000/svg" xmlns:xlink="http://www.w3.org/1999/xlink" width="18" height="18" class="yc-icon nv-composite-bar__menu-icon" fill="currentColor" stroke="none" aria-hidden="true"><svg xmlns="http://www.w3.org/2000/svg"><path d="M14.397 14.298H4.503c-.807 0-1.801-.882-1.801-1.689V3.603H1.435C.628 3.603 0 4.26 0 5.038v10.527C0 16.372.628 17 1.435 17h11.527c.777 0 1.435-.628 1.435-1.435v-1.267Z"></path><path d="M18 11.962V1.435C18 .658 17.342 0 16.565 0H5.038c-.807 0-1.435.658-1.435 1.435v10.527c0 .807.628 1.435 1.435 1.435h11.527c.777 0 1.435-.628 1.435-1.435ZM6.952 4.785a.472.472 0 0 1-.478-.479V3.35c0-.239.209-.478.478-.478h4.828c.24 0 .478.24.478.478v.957c0 .27-.239.479-.478.479H6.952Zm0 2.87a.472.472 0 0 1-.478-.478V6.22c0-.239.209-.478.478-.478h7.699c.239 0 .478.239.478.478v.957c0 .27-.239.479-.478.479H6.952Zm0 2.872a.472.472 0 0 1-.478-.479v-.957a.49.49 0 0 1 .478-.478h2.914c.24 0 .479.239.479.478v.957c0 .27-.24.479-.479.479H6.952Z"></path></svg></svg>