<svg xmlns="http://www.w3.org/2000/svg" xmlns:xlink="http://www.w3.org/1999/xlink" width="16" height="16" class="yc-icon" fill="currentColor" stroke="none" aria-hidden="true"><svg viewBox="0 0 16 16" xmlns="http://www.w3.org/2000/svg"><path d="M8 1.828c-3.479 0-6.297 2.844-6.297 6.297A6.296 6.296 0 0 0 8 14.422c3.453 0 6.297-2.819 6.297-6.297 0-3.453-2.844-6.297-6.297-6.297Zm3.58 2.717c1.854 1.853 1.955 4.748.406 6.728L4.852 4.14c1.98-1.55 4.875-1.448 6.728.406ZM4.395 11.73C2.54 9.877 2.439 6.982 3.988 5.002l7.135 7.135c-1.98 1.548-4.875 1.447-6.728-.407Z"></path></svg></svg>