<svg xmlns="http://www.w3.org/2000/svg" width="701" height="445" fill="none"><g clip-path="url(#a)"><g filter="url(#b)"><path fill="#fff" d="M585.512 438.704H32.489c-9.66 0-17.489-7.83-17.489-17.488V17.625C15 11.205 20.205 6 26.625 6h558.887C595.17 6 603 13.83 603 23.488v397.728c0 9.658-7.83 17.488-17.488 17.488Z"/></g><rect width="70" height="109" x="40" y="210" fill="#fff" stroke="#67B0F8" stroke-width="2" rx="4"/><path fill="#18123D" d="M65.07 279.628c0 .504-.077.968-.229 1.392a2.893 2.893 0 0 1-.672 1.104 3.13 3.13 0 0 1-1.152.732c-.456.176-.996.264-1.62.264a4.332 4.332 0 0 1-1.668-.312 3.81 3.81 0 0 1-1.296-.9 4.05 4.05 0 0 1-.84-1.392c-.2-.544-.3-1.148-.3-1.812 0-.664.096-1.268.288-1.812a3.818 3.818 0 0 1 .84-1.392c.376-.384.84-.68 1.392-.888.552-.216 1.188-.324 1.908-.324.368 0 .696.024.984.072.296.048.556.108.78.18.224.072.416.152.576.24.168.088.312.172.432.252v1.08a8.262 8.262 0 0 0-.588-.312 3.92 3.92 0 0 0-.648-.264 4.687 4.687 0 0 0-.732-.168 5.457 5.457 0 0 0-.84-.06c-.544 0-1.016.076-1.416.228-.392.152-.72.376-.984.672a2.8 2.8 0 0 0-.576 1.068 4.858 4.858 0 0 0-.192 1.428c0 1.072.252 1.908.756 2.508.512.592 1.22.888 2.124.888.448 0 .832-.056 1.152-.168.32-.12.58-.28.78-.48.2-.208.344-.452.432-.732.096-.288.144-.6.144-.936v-.24h-2.772v-1.02h3.936v1.104Zm1.994-3.768c-.216 0-.388-.064-.516-.192a.692.692 0 0 1-.192-.492.675.675 0 0 1 .708-.696c.208 0 .372.068.492.204.12.136.18.3.18.492s-.06.356-.18.492c-.12.128-.284.192-.492.192Zm.516.912V283h-1.056v-6.228h1.056Zm4.77 6.096a1.93 1.93 0 0 1-.492.18c-.2.048-.413.072-.636.072-.304 0-.564-.044-.78-.132a1.504 1.504 0 0 1-.516-.348 1.48 1.48 0 0 1-.3-.504 2.09 2.09 0 0 1-.085-.588v-3.876h-.743v-.9h.743v-1.308h1.056v1.308h1.813v.9h-1.813v3.744c0 .264.065.456.193.576.135.12.371.18.707.18.313 0 .597-.088.853-.264v.96Zm6.865.132h-5.316v-8.604h1.128v7.584h4.188V283Zm4.996-1.188a3.648 3.648 0 0 1-.276.456 2.088 2.088 0 0 1-1.02.732c-.224.08-.488.12-.792.12-.56 0-1.012-.156-1.356-.468-.344-.32-.516-.776-.516-1.368 0-.68.236-1.18.708-1.5.48-.32 1.16-.48 2.04-.48h1.164v-.516c0-.432-.112-.74-.336-.924-.224-.184-.608-.276-1.152-.276-.384 0-.748.064-1.092.192-.344.12-.652.26-.924.42v-.948c.224-.136.524-.268.9-.396a3.75 3.75 0 0 1 1.26-.204c.784 0 1.38.164 1.788.492.408.32.612.82.612 1.5V282.244c.008.088.012.18.012.276l.024.276c.008.08.016.148.024.204h-.96a5.482 5.482 0 0 1-.072-.468 7.173 7.173 0 0 1-.024-.54l-.012-.18Zm-1.86.36c.328 0 .608-.068.84-.204.232-.136.42-.292.564-.468.144-.184.248-.36.312-.528.064-.176.096-.3.096-.372v-.456h-1.056c-.632 0-1.092.092-1.38.276-.28.176-.42.444-.42.804 0 .28.084.508.252.684.168.176.432.264.792.264Zm10.445-2.292c0 .552-.076 1.032-.228 1.44a3.01 3.01 0 0 1-.612 1.008 2.566 2.566 0 0 1-.888.6 2.941 2.941 0 0 1-1.056.192c-.48 0-.9-.112-1.26-.336a2.46 2.46 0 0 1-.84-.96L87.876 283h-.996v-8.604h1.056l-.024 3.588c.208-.408.488-.732.84-.972s.788-.36 1.308-.36c.36 0 .704.068 1.032.204.336.128.628.328.876.6.256.264.456.6.6 1.008.152.4.228.872.228 1.416Zm-2.94 2.292c.552 0 .996-.188 1.332-.564.344-.384.516-.96.516-1.728 0-.752-.172-1.32-.516-1.704-.336-.392-.78-.588-1.332-.588-.272 0-.528.048-.768.144a1.71 1.71 0 0 0-.612.432c-.168.184-.304.42-.408.708a3.191 3.191 0 0 0-.144 1.008c0 .384.048.72.144 1.008.104.288.24.528.408.72.176.192.38.336.612.432.24.088.496.132.768.132Zm-33.389 6.224h2.88c1.016 0 1.788.2 2.316.6.536.392.804 1.012.804 1.86 0 .752-.184 1.328-.552 1.728-.36.4-.836.664-1.428.792l2.34 3.624h-1.272l-2.244-3.492h-1.716V297h-1.128v-8.604Zm1.128 1.032v3.06h1.644c.304 0 .58-.028.828-.084.256-.056.472-.148.648-.276a1.23 1.23 0 0 0 .42-.504c.104-.216.156-.48.156-.792 0-.512-.168-.872-.504-1.08-.336-.216-.816-.324-1.44-.324h-1.752Zm10.482 6.456a2.233 2.233 0 0 1-.78.888c-.344.232-.796.348-1.356.348-.576 0-1.044-.16-1.404-.48-.352-.328-.528-.832-.528-1.512v-4.356h1.068v4.356c0 .208.028.38.084.516a.886.886 0 0 0 .612.48c.144.032.3.048.468.048.464 0 .836-.104 1.116-.312.28-.208.52-.492.72-.852v-4.236h1.056V297h-.936l-.096-1.116h-.024Zm5.741-4.296c-.48 0-.872.112-1.176.336a2.455 2.455 0 0 0-.72.84V297h-1.056v-6.228h.996l.036 1.116h.024c.168-.36.432-.656.792-.888.36-.232.816-.348 1.368-.348.616 0 1.104.164 1.464.492.368.32.552.816.552 1.488V297h-1.056v-4.26c0-.432-.108-.732-.324-.9-.216-.168-.516-.252-.9-.252Zm6.902 0c-.48 0-.872.112-1.176.336a2.455 2.455 0 0 0-.72.84V297h-1.056v-6.228h.996l.036 1.116h.024c.168-.36.432-.656.792-.888.36-.232.816-.348 1.368-.348.616 0 1.104.164 1.464.492.368.32.552.816.552 1.488V297h-1.056v-4.26c0-.432-.108-.732-.324-.9-.216-.168-.516-.252-.9-.252Zm8.907 4.884a3.344 3.344 0 0 1-.324.204 3.758 3.758 0 0 1-.468.216 3.946 3.946 0 0 1-.624.156 3.864 3.864 0 0 1-.78.072c-1.048 0-1.844-.284-2.388-.852-.544-.568-.816-1.364-.816-2.388 0-.504.072-.956.216-1.356.152-.4.36-.736.624-1.008.264-.28.576-.492.936-.636.36-.152.752-.228 1.176-.228a3 3 0 0 1 1.2.228c.352.152.64.376.864.672.232.296.388.664.468 1.104.088.432.088.936 0 1.512h-4.392c.04.672.24 1.176.6 1.512.36.328.896.492 1.608.492.48 0 .892-.068 1.236-.204a4.33 4.33 0 0 0 .864-.444v.948Zm-2.472-4.884c-.456 0-.848.14-1.176.42-.328.28-.536.704-.624 1.272h3.348c.032-.576-.1-1-.396-1.272-.296-.28-.68-.42-1.152-.42Zm6.963.24c-.448.04-.856.156-1.224.348-.36.184-.628.472-.804.864V297h-1.056v-6.228h.924l.108 1.356h.024c.176-.368.428-.688.756-.96.336-.28.76-.452 1.272-.516v1.176Z"/><path fill="#5282FF" fill-rule="evenodd" d="M75 224c8.831 0 16 7.169 16 16s-7.169 16-16 16-16-7.169-16-16 7.169-16 16-16Z" clip-rule="evenodd"/><path fill="#fff" d="m70.5 232 2.5 6h4.5l2-6 3 9-7.5 6-7-6 2.5-9Z"/><rect width="70" height="109" x="210" y="101" fill="#fff" stroke="#67B0F8" stroke-width="2" rx="4"/><path fill="#18123D" d="m224.92 164.432 2.796-6.036h1.464V167h-1.14v-6.924l-2.64 5.604-.564.012h-.504l.012-.012-2.604-5.7V167h-1.068v-8.604h1.572l2.676 6.036Zm9.768 1.38a3.648 3.648 0 0 1-.276.456 2.088 2.088 0 0 1-1.02.732c-.224.08-.488.12-.792.12-.56 0-1.012-.156-1.356-.468-.344-.32-.516-.776-.516-1.368 0-.68.236-1.18.708-1.5.48-.32 1.16-.48 2.04-.48h1.164v-.516c0-.432-.112-.74-.336-.924-.224-.184-.608-.276-1.152-.276-.384 0-.748.064-1.092.192-.344.12-.652.26-.924.42v-.948c.224-.136.524-.268.9-.396a3.75 3.75 0 0 1 1.26-.204c.784 0 1.38.164 1.788.492.408.32.612.82.612 1.5V166.244c.008.088.012.18.012.276l.024.276c.008.08.016.148.024.204h-.96a5.482 5.482 0 0 1-.072-.468 7.173 7.173 0 0 1-.024-.54l-.012-.18Zm-1.86.36c.328 0 .608-.068.84-.204.232-.136.42-.292.564-.468.144-.184.248-.36.312-.528.064-.176.096-.3.096-.372v-.456h-1.056c-.632 0-1.092.092-1.38.276-.28.176-.42.444-.42.804 0 .28.084.508.252.684.168.176.432.264.792.264Zm7.48-4.584c-.48 0-.872.112-1.176.336a2.455 2.455 0 0 0-.72.84V167h-1.056v-6.228h.996l.036 1.116h.024c.168-.36.432-.656.792-.888.36-.232.816-.348 1.368-.348.616 0 1.104.164 1.464.492.368.32.552.816.552 1.488V167h-1.056v-4.26c0-.432-.108-.732-.324-.9-.216-.168-.516-.252-.9-.252Zm7.599 4.224a3.648 3.648 0 0 1-.276.456 2.088 2.088 0 0 1-1.02.732c-.224.08-.488.12-.792.12-.56 0-1.012-.156-1.356-.468-.344-.32-.516-.776-.516-1.368 0-.68.236-1.18.708-1.5.48-.32 1.16-.48 2.04-.48h1.164v-.516c0-.432-.112-.74-.336-.924-.224-.184-.608-.276-1.152-.276-.384 0-.748.064-1.092.192-.344.12-.652.26-.924.42v-.948c.224-.136.524-.268.9-.396a3.75 3.75 0 0 1 1.26-.204c.784 0 1.38.164 1.788.492.408.32.612.82.612 1.5V166.244c.008.088.012.18.012.276l.024.276c.008.08.016.148.024.204h-.96a5.482 5.482 0 0 1-.072-.468 7.173 7.173 0 0 1-.024-.54l-.012-.18Zm-1.86.36c.328 0 .608-.068.84-.204.232-.136.42-.292.564-.468.144-.184.248-.36.312-.528.064-.176.096-.3.096-.372v-.456h-1.056c-.632 0-1.092.092-1.38.276-.28.176-.42.444-.42.804 0 .28.084.508.252.684.168.176.432.264.792.264Zm9.88.3c0 .4-.06.764-.18 1.092a1.97 1.97 0 0 1-.552.852c-.248.232-.572.412-.972.54-.392.128-.868.192-1.428.192a5.95 5.95 0 0 1-.804-.048 3.698 3.698 0 0 1-.612-.132 2.214 2.214 0 0 1-.432-.168 2.008 2.008 0 0 1-.3-.168v-.948c.128.072.26.136.396.192a3.534 3.534 0 0 0 1.032.276c.216.032.46.048.732.048.768 0 1.304-.144 1.608-.432.304-.288.456-.716.456-1.284v-.96a2.265 2.265 0 0 1-.78.888c-.328.224-.736.336-1.224.336-.368 0-.72-.064-1.056-.192a2.613 2.613 0 0 1-.876-.564 2.912 2.912 0 0 1-.6-.948c-.144-.384-.216-.828-.216-1.332 0-.512.072-.956.216-1.332.152-.384.352-.704.6-.96.256-.256.552-.448.888-.576a2.974 2.974 0 0 1 1.068-.192c.496 0 .912.112 1.248.336.344.224.612.528.804.912l.012-.132c0-.144.008-.316.024-.516.016-.208.032-.368.048-.48h.96a7.943 7.943 0 0 0-.048.48c-.008.208-.012.38-.012.516v4.704Zm-2.868-.672c.264 0 .504-.04.72-.12.224-.088.416-.22.576-.396.168-.176.296-.392.384-.648a2.7 2.7 0 0 0 .144-.924c0-.712-.176-1.244-.528-1.596-.344-.352-.78-.528-1.308-.528a2.08 2.08 0 0 0-.744.132c-.224.088-.42.22-.588.396-.16.176-.288.4-.384.672a2.7 2.7 0 0 0-.144.924c0 .352.048.66.144.924.096.256.228.472.396.648.168.168.364.296.588.384.232.088.48.132.744.132Zm9.538.672a3.344 3.344 0 0 1-.324.204 3.758 3.758 0 0 1-.468.216 3.946 3.946 0 0 1-.624.156 3.864 3.864 0 0 1-.78.072c-1.048 0-1.844-.284-2.388-.852-.544-.568-.816-1.364-.816-2.388 0-.504.072-.956.216-1.356.152-.4.36-.736.624-1.008.264-.28.576-.492.936-.636.36-.152.752-.228 1.176-.228a3 3 0 0 1 1.2.228c.352.152.64.376.864.672.232.296.388.664.468 1.104.088.432.088.936 0 1.512h-4.392c.04.672.24 1.176.6 1.512.36.328.896.492 1.608.492.48 0 .892-.068 1.236-.204a4.33 4.33 0 0 0 .864-.444v.948Zm-2.472-4.884c-.456 0-.848.14-1.176.42-.328.28-.536.704-.624 1.272h3.348c.032-.576-.1-1-.396-1.272-.296-.28-.68-.42-1.152-.42Zm8.344 4.188c-.192.408-.46.736-.804.984-.344.24-.78.36-1.308.36-.376 0-.732-.064-1.068-.192a2.566 2.566 0 0 1-.888-.6 3.01 3.01 0 0 1-.612-1.008c-.152-.408-.228-.888-.228-1.44 0-.544.076-1.016.228-1.416.152-.408.356-.744.612-1.008.256-.272.552-.472.888-.6a2.911 2.911 0 0 1 1.08-.204c.472 0 .88.1 1.224.3.344.192.62.468.828.828v-3.384h1.056V167h-.924l-.084-1.224Zm-1.956.396c.272 0 .524-.044.756-.132.232-.096.432-.24.6-.432.176-.192.312-.432.408-.72.104-.288.156-.624.156-1.008s-.052-.72-.156-1.008a1.971 1.971 0 0 0-.408-.72 1.49 1.49 0 0 0-.6-.42 1.958 1.958 0 0 0-.756-.144c-.552 0-1.004.196-1.356.588-.344.384-.516.952-.516 1.704 0 .76.176 1.332.528 1.716.352.384.8.576 1.344.576Zm-37.716 14.948c-.392 0-.744-.028-1.056-.084a5.07 5.07 0 0 1-.828-.192 4.264 4.264 0 0 1-.6-.276 2.38 2.38 0 0 1-.384-.3v-1.08c.12.104.276.212.468.324.192.104.412.2.66.288.256.088.528.16.816.216.296.056.604.084.924.084.624 0 1.12-.116 1.488-.348.368-.24.552-.6.552-1.08 0-.24-.044-.436-.132-.588a1.07 1.07 0 0 0-.384-.396 2.236 2.236 0 0 0-.636-.276c-.248-.08-.54-.164-.876-.252a16.032 16.032 0 0 1-1.008-.3 3.714 3.714 0 0 1-.912-.444 2.247 2.247 0 0 1-.648-.696c-.16-.28-.24-.636-.24-1.068 0-.744.26-1.324.78-1.74.52-.416 1.316-.624 2.388-.624.312 0 .588.02.828.06.248.032.464.076.648.132.192.048.356.104.492.168.144.064.272.124.384.18v1.08a3.368 3.368 0 0 0-1.092-.456 5.19 5.19 0 0 0-1.26-.144c-.384 0-.708.032-.972.096-.256.056-.464.14-.624.252a.995.995 0 0 0-.348.408c-.072.16-.108.34-.108.54 0 .24.052.44.156.6.112.16.256.296.432.408.184.104.392.192.624.264.232.072.476.136.732.192.336.08.68.172 1.032.276.352.104.668.248.948.432.28.184.508.424.684.72.184.288.276.664.276 1.128 0 .456-.092.844-.276 1.164a2.247 2.247 0 0 1-.708.768 3 3 0 0 1-1.02.432 5.356 5.356 0 0 1-1.2.132Zm9.502-.648a3.344 3.344 0 0 1-.324.204 3.758 3.758 0 0 1-.468.216 3.946 3.946 0 0 1-.624.156 3.864 3.864 0 0 1-.78.072c-1.048 0-1.844-.284-2.388-.852-.544-.568-.816-1.364-.816-2.388 0-.504.072-.956.216-1.356.152-.4.36-.736.624-1.008.264-.28.576-.492.936-.636.36-.152.752-.228 1.176-.228a3 3 0 0 1 1.2.228c.352.152.64.376.864.672.232.296.388.664.468 1.104.088.432.088.936 0 1.512h-4.392c.04.672.24 1.176.6 1.512.36.328.896.492 1.608.492.48 0 .892-.068 1.236-.204a4.33 4.33 0 0 0 .864-.444v.948Zm-2.472-4.884c-.456 0-.848.14-1.176.42-.328.28-.536.704-.624 1.272h3.348c.032-.576-.1-1-.396-1.272-.296-.28-.68-.42-1.152-.42Zm6.963.24c-.448.04-.856.156-1.224.348-.36.184-.628.472-.804.864V181h-1.056v-6.228h.924l.108 1.356h.024c.176-.368.428-.688.756-.96.336-.28.76-.452 1.272-.516v1.176Zm4.559 5.172h-1.704l-2.136-6.228h1.14l1.896 5.664 1.884-5.664h1.056L247.349 181Zm3.655-7.14c-.216 0-.388-.064-.516-.192a.692.692 0 0 1-.192-.492.675.675 0 0 1 .708-.696c.208 0 .372.068.492.204.12.136.18.3.18.492s-.06.356-.18.492c-.12.128-.284.192-.492.192Zm.516.912V181h-1.056v-6.228h1.056Zm4.409 6.348a3.77 3.77 0 0 1-1.308-.216 2.861 2.861 0 0 1-.984-.636c-.272-.28-.48-.62-.624-1.02a4.024 4.024 0 0 1-.216-1.368c0-.504.072-.956.216-1.356.152-.4.364-.736.636-1.008a2.63 2.63 0 0 1 .996-.636 3.662 3.662 0 0 1 1.332-.228c.384 0 .736.044 1.056.132.32.08.584.2.792.36v.948a2.798 2.798 0 0 0-.864-.372 3.563 3.563 0 0 0-.972-.132c-.728 0-1.264.188-1.608.564-.336.376-.504.952-.504 1.728s.164 1.352.492 1.728c.328.376.848.564 1.56.564.376 0 .72-.044 1.032-.132.32-.096.608-.216.864-.36v.948a3.678 3.678 0 0 1-1.896.492Zm8.139-.648a3.344 3.344 0 0 1-.324.204 3.758 3.758 0 0 1-.468.216 3.946 3.946 0 0 1-.624.156 3.864 3.864 0 0 1-.78.072c-1.048 0-1.844-.284-2.388-.852-.544-.568-.816-1.364-.816-2.388 0-.504.072-.956.216-1.356.152-.4.36-.736.624-1.008.264-.28.576-.492.936-.636.36-.152.752-.228 1.176-.228a3 3 0 0 1 1.2.228c.352.152.64.376.864.672.232.296.388.664.468 1.104.088.432.088.936 0 1.512h-4.392c.04.672.24 1.176.6 1.512.36.328.896.492 1.608.492.48 0 .892-.068 1.236-.204a4.33 4.33 0 0 0 .864-.444v.948Zm-2.472-4.884c-.456 0-.848.14-1.176.42-.328.28-.536.704-.624 1.272h3.348c.032-.576-.1-1-.396-1.272-.296-.28-.68-.42-1.152-.42Zm-41.568 14.084V195h-1.056v-5.328h-.756v-.9h.756v-.156c0-.736.196-1.308.588-1.716.392-.408.928-.612 1.608-.612.296 0 .56.036.792.108v.96a1.406 1.406 0 0 0-.312-.084 2.484 2.484 0 0 0-.432-.036c-.368 0-.66.112-.876.336-.208.224-.312.572-.312 1.044v.156h1.8v.9h-1.8Zm5.359 5.448c-.424 0-.82-.072-1.188-.216a2.767 2.767 0 0 1-.96-.624 3.04 3.04 0 0 1-.624-1.02c-.152-.4-.228-.86-.228-1.38 0-.512.076-.968.228-1.368a2.89 2.89 0 0 1 .624-1.02c.272-.272.592-.48.96-.624a3.231 3.231 0 0 1 1.188-.216c.432 0 .832.072 1.2.216.368.144.684.352.948.624.272.272.484.612.636 1.02.16.4.24.856.24 1.368 0 .52-.08.98-.24 1.38-.152.4-.364.74-.636 1.02-.264.272-.58.48-.948.624a3.265 3.265 0 0 1-1.2.216Zm0-.948c.28 0 .536-.044.768-.132.24-.096.448-.236.624-.42.176-.192.312-.432.408-.72.096-.288.144-.628.144-1.02s-.048-.732-.144-1.02a1.855 1.855 0 0 0-.408-.708 1.569 1.569 0 0 0-.624-.42 1.99 1.99 0 0 0-.768-.144c-.28 0-.536.048-.768.144a1.586 1.586 0 0 0-.612.42c-.168.184-.3.42-.396.708a3.234 3.234 0 0 0-.144 1.02c0 .392.048.732.144 1.02.096.288.228.528.396.72.176.184.38.324.612.42.232.088.488.132.768.132Zm7.395-4.344c-.448.04-.856.156-1.224.348-.36.184-.628.472-.804.864V195h-1.056v-6.228h.924l.108 1.356h.024c.176-.368.428-.688.756-.96.336-.28.76-.452 1.272-.516v1.176Zm11.34 1.8c0 .504-.076.968-.228 1.392a2.893 2.893 0 0 1-.672 1.104 3.13 3.13 0 0 1-1.152.732c-.456.176-.996.264-1.62.264a4.332 4.332 0 0 1-1.668-.312 3.81 3.81 0 0 1-1.296-.9 4.05 4.05 0 0 1-.84-1.392c-.2-.544-.3-1.148-.3-1.812 0-.664.096-1.268.288-1.812a3.818 3.818 0 0 1 .84-1.392c.376-.384.84-.68 1.392-.888.552-.216 1.188-.324 1.908-.324.368 0 .696.024.984.072.296.048.556.108.78.18.224.072.416.152.576.24.168.088.312.172.432.252v1.08a8.262 8.262 0 0 0-.588-.312 3.92 3.92 0 0 0-.648-.264 4.687 4.687 0 0 0-.732-.168 5.457 5.457 0 0 0-.84-.06c-.544 0-1.016.076-1.416.228-.392.152-.72.376-.984.672a2.8 2.8 0 0 0-.576 1.068 4.858 4.858 0 0 0-.192 1.428c0 1.072.252 1.908.756 2.508.512.592 1.22.888 2.124.888.448 0 .832-.056 1.152-.168.32-.12.58-.28.78-.48.2-.208.344-.452.432-.732.096-.288.144-.6.144-.936v-.24h-2.772v-1.02h3.936v1.104Zm1.995-3.768c-.216 0-.388-.064-.516-.192a.692.692 0 0 1-.192-.492.675.675 0 0 1 .708-.696c.208 0 .372.068.492.204.12.136.18.3.18.492s-.06.356-.18.492c-.12.128-.284.192-.492.192Zm.516.912V195h-1.056v-6.228h1.056Zm4.769 6.096a1.93 1.93 0 0 1-.492.18c-.2.048-.412.072-.636.072-.304 0-.564-.044-.78-.132a1.504 1.504 0 0 1-.516-.348 1.48 1.48 0 0 1-.3-.504 2.09 2.09 0 0 1-.084-.588v-3.876h-.744v-.9h.744v-1.308h1.056v1.308h1.812v.9h-1.812v3.744c0 .264.064.456.192.576.136.12.372.18.708.18.312 0 .596-.088.852-.264v.96Zm6.865.132h-5.316v-8.604h1.128v7.584h4.188V195Zm4.997-1.188a3.648 3.648 0 0 1-.276.456 2.088 2.088 0 0 1-1.02.732c-.224.08-.488.12-.792.12-.56 0-1.012-.156-1.356-.468-.344-.32-.516-.776-.516-1.368 0-.68.236-1.18.708-1.5.48-.32 1.16-.48 2.04-.48h1.164v-.516c0-.432-.112-.74-.336-.924-.224-.184-.608-.276-1.152-.276-.384 0-.748.064-1.092.192-.344.12-.652.26-.924.42v-.948c.224-.136.524-.268.9-.396a3.75 3.75 0 0 1 1.26-.204c.784 0 1.38.164 1.788.492.408.32.612.82.612 1.5V194.244c.008.088.012.18.012.276l.024.276c.008.08.016.148.024.204h-.96a5.482 5.482 0 0 1-.072-.468 7.173 7.173 0 0 1-.024-.54l-.012-.18Zm-1.86.36c.328 0 .608-.068.84-.204.232-.136.42-.292.564-.468.144-.184.248-.36.312-.528.064-.176.096-.3.096-.372v-.456h-1.056c-.632 0-1.092.092-1.38.276-.28.176-.42.444-.42.804 0 .28.084.508.252.684.168.176.432.264.792.264Zm10.444-2.292c0 .552-.076 1.032-.228 1.44a3.01 3.01 0 0 1-.612 1.008 2.566 2.566 0 0 1-.888.6 2.941 2.941 0 0 1-1.056.192c-.48 0-.9-.112-1.26-.336a2.46 2.46 0 0 1-.84-.96l-.036 1.176h-.996v-8.604h1.056l-.024 3.588c.208-.408.488-.732.84-.972s.788-.36 1.308-.36c.36 0 .704.068 1.032.204.336.128.628.328.876.6.256.264.456.6.6 1.008.152.4.228.872.228 1.416Zm-2.94 2.292c.552 0 .996-.188 1.332-.564.344-.384.516-.96.516-1.728 0-.752-.172-1.32-.516-1.704-.336-.392-.78-.588-1.332-.588-.272 0-.528.048-.768.144a1.71 1.71 0 0 0-.612.432c-.168.184-.304.42-.408.708a3.191 3.191 0 0 0-.144 1.008c0 .384.048.72.144 1.008.104.288.24.528.408.72.176.192.38.336.612.432.24.088.496.132.768.132Z"/><path fill="#5282FF" fill-rule="evenodd" d="M245 115c8.831 0 16 7.169 16 16s-7.169 16-16 16-16-7.169-16-16 7.169-16 16-16Z" clip-rule="evenodd"/><path fill="#fff" d="m240.5 123 2.5 6h4.5l2-6 3 9-7.5 6-7-6 2.5-9Z"/><path fill="#5282FF" d="M364 129c0-8.837 7.163-16 16-16s16 7.163 16 16-7.163 16-16 16-16-7.163-16-16Z"/><path fill="#fff" d="M388 128v-2h-2v-2c0-.6-.4-1-1-1h-2v-2h-2v2h-2v-2h-2v2h-2c-.6 0-1 .4-1 1v2h-2v2h2v2h-2v2h2v2c0 .6.4 1 1 1h2v2h2v-2h2v2h2v-2h2c.6 0 1-.4 1-1v-2h2v-2h-2v-2h2Zm-5 4h-6v-6h6v6Z"/><path fill="#18123D" d="M349.953 151.396h2.916c.944 0 1.66.16 2.148.48.496.32.744.86.744 1.62 0 .312-.044.584-.132.816-.08.224-.196.42-.348.588-.144.16-.324.292-.54.396a2.97 2.97 0 0 1-.696.24c.672.08 1.176.276 1.512.588.344.304.516.768.516 1.392 0 .448-.084.832-.252 1.152-.16.312-.384.568-.672.768a3.191 3.191 0 0 1-1.02.432c-.392.088-.82.132-1.284.132h-2.892v-8.604Zm1.128 1.032v2.64h1.704c.272 0 .52-.028.744-.084.224-.064.416-.156.576-.276.16-.128.284-.284.372-.468.096-.192.144-.42.144-.684 0-.44-.152-.736-.456-.888-.304-.16-.736-.24-1.296-.24h-1.788Zm0 3.66v2.892h1.764c.304 0 .58-.024.828-.072.248-.048.46-.128.636-.24a1.12 1.12 0 0 0 .42-.444c.104-.184.156-.412.156-.684 0-.544-.176-.92-.528-1.128-.344-.216-.892-.324-1.644-.324h-1.632Zm10.111 2.724a3.648 3.648 0 0 1-.276.456 2.088 2.088 0 0 1-1.02.732c-.224.08-.488.12-.792.12-.56 0-1.012-.156-1.356-.468-.344-.32-.516-.776-.516-1.368 0-.68.236-1.18.708-1.5.48-.32 1.16-.48 2.04-.48h1.164v-.516c0-.432-.112-.74-.336-.924-.224-.184-.608-.276-1.152-.276-.384 0-.748.064-1.092.192-.344.12-.652.26-.924.42v-.948c.224-.136.524-.268.9-.396a3.75 3.75 0 0 1 1.26-.204c.784 0 1.38.164 1.788.492.408.32.612.82.612 1.5V159.244c.008.088.012.18.012.276l.024.276c.008.08.016.148.024.204h-.96a5.482 5.482 0 0 1-.072-.468 7.173 7.173 0 0 1-.024-.54l-.012-.18Zm-1.86.36c.328 0 .608-.068.84-.204.232-.136.42-.292.564-.468.144-.184.248-.36.312-.528.064-.176.096-.3.096-.372v-.456h-1.056c-.632 0-1.092.092-1.38.276-.28.176-.42.444-.42.804 0 .28.084.508.252.684.168.176.432.264.792.264Zm6.52.948c-.328 0-.62-.028-.876-.084a4.113 4.113 0 0 1-.66-.18c-.184-.08-.34-.16-.468-.24a3.161 3.161 0 0 1-.3-.228v-.948c.08.08.188.168.324.264.136.088.3.172.492.252.192.08.408.148.648.204.248.048.524.072.828.072.448 0 .804-.072 1.068-.216.264-.144.396-.388.396-.732a.698.698 0 0 0-.132-.444.801.801 0 0 0-.336-.264 2.07 2.07 0 0 0-.504-.168c-.184-.04-.38-.08-.588-.12a22.265 22.265 0 0 1-.78-.18 2.73 2.73 0 0 1-.696-.3 1.633 1.633 0 0 1-.504-.516c-.128-.216-.192-.496-.192-.84 0-.56.216-1 .648-1.32.44-.32 1.052-.48 1.836-.48.44 0 .828.044 1.164.132.344.088.608.184.792.288v.948a2.824 2.824 0 0 0-.78-.336c-.304-.096-.684-.144-1.14-.144-.472 0-.836.064-1.092.192-.248.128-.372.36-.372.696 0 .168.036.304.108.408a.856.856 0 0 0 .288.24c.128.056.272.1.432.132.16.032.328.068.504.108.272.056.552.116.84.18.288.064.544.164.768.3.232.136.42.32.564.552.152.224.228.528.228.912 0 .36-.072.66-.216.9-.144.24-.336.432-.576.576-.232.136-.5.232-.804.288-.296.064-.6.096-.912.096Zm6.857-.252a1.93 1.93 0 0 1-.492.18c-.2.048-.412.072-.636.072-.304 0-.564-.044-.78-.132a1.504 1.504 0 0 1-.516-.348 1.48 1.48 0 0 1-.3-.504 2.09 2.09 0 0 1-.084-.588v-3.876h-.744v-.9h.744v-1.308h1.056v1.308h1.812v.9h-1.812v3.744c0 .264.064.456.192.576.136.12.372.18.708.18.312 0 .596-.088.852-.264v.96Zm1.945-7.008c-.216 0-.388-.064-.516-.192a.692.692 0 0 1-.192-.492.675.675 0 0 1 .708-.696c.208 0 .372.068.492.204.12.136.18.3.18.492s-.06.356-.18.492c-.12.128-.284.192-.492.192Zm.516.912V160h-1.056v-6.228h1.056Zm4.277 6.348c-.424 0-.82-.072-1.188-.216a2.767 2.767 0 0 1-.96-.624 3.04 3.04 0 0 1-.624-1.02c-.152-.4-.228-.86-.228-1.38 0-.512.076-.968.228-1.368a2.89 2.89 0 0 1 .624-1.02c.272-.272.592-.48.96-.624a3.231 3.231 0 0 1 1.188-.216c.432 0 .832.072 1.2.216.368.144.684.352.948.624.272.272.484.612.636 1.02.16.4.24.856.24 1.368 0 .52-.08.98-.24 1.38-.152.4-.364.74-.636 1.02-.264.272-.58.48-.948.624a3.265 3.265 0 0 1-1.2.216Zm0-.948c.28 0 .536-.044.768-.132.24-.096.448-.236.624-.42.176-.192.312-.432.408-.72.096-.288.144-.628.144-1.02s-.048-.732-.144-1.02a1.855 1.855 0 0 0-.408-.708 1.569 1.569 0 0 0-.624-.42 1.99 1.99 0 0 0-.768-.144c-.28 0-.536.048-.768.144a1.586 1.586 0 0 0-.612.42c-.168.184-.3.42-.396.708a3.234 3.234 0 0 0-.144 1.02c0 .392.048.732.144 1.02.096.288.228.528.396.72.176.184.38.324.612.42.232.088.488.132.768.132Zm7.264-4.584c-.48 0-.872.112-1.176.336a2.455 2.455 0 0 0-.72.84V160h-1.056v-6.228h.996l.036 1.116h.024c.168-.36.432-.656.792-.888.36-.232.816-.348 1.368-.348.616 0 1.104.164 1.464.492.368.32.552.816.552 1.488V160h-1.056v-4.26c0-.432-.108-.732-.324-.9-.216-.168-.516-.252-.9-.252ZM397.378 160h-1.764l-3-8.604h1.176l2.748 7.92 2.748-7.92h1.08L397.378 160Zm8.421-2.568 2.796-6.036h1.464V160h-1.14v-6.924l-2.64 5.604-.564.012h-.504l.012-.012-2.604-5.7V160h-1.068v-8.604h1.572l2.676 6.036Z"/><circle cx="516" cy="129" r="16" fill="#5282FF"/><path fill="#fff" d="M509.262 133h-1.764l-3-8.604h1.176l2.748 7.92 2.748-7.92h1.08L509.262 133Zm4.174-8.604h2.748c.976 0 1.732.204 2.268.612.544.4.816 1.028.816 1.884 0 .488-.08.908-.24 1.26a2.22 2.22 0 0 1-.648.852c-.28.224-.616.388-1.008.492a4.91 4.91 0 0 1-1.284.156h-1.524V133h-1.128v-8.604Zm1.128 1.032v3.204h1.524c.304 0 .58-.032.828-.096s.46-.164.636-.3a1.3 1.3 0 0 0 .42-.528c.104-.224.156-.492.156-.804 0-.52-.168-.896-.504-1.128-.336-.232-.816-.348-1.44-.348h-1.62Zm13.12 7.572h-1.536l-4.32-7.224V133h-1.068v-8.604h1.524l4.32 7.224v-7.224h1.08V133Z"/><rect width="70" height="109" x="343" y="210" fill="#fff" stroke="#67B0F8" stroke-width="2" rx="4"/><path fill="#18123D" d="M368.069 272.628c0 .504-.076.968-.228 1.392a2.893 2.893 0 0 1-.672 1.104 3.13 3.13 0 0 1-1.152.732c-.456.176-.996.264-1.62.264a4.332 4.332 0 0 1-1.668-.312 3.81 3.81 0 0 1-1.296-.9 4.05 4.05 0 0 1-.84-1.392c-.2-.544-.3-1.148-.3-1.812 0-.664.096-1.268.288-1.812a3.818 3.818 0 0 1 .84-1.392c.376-.384.84-.68 1.392-.888.552-.216 1.188-.324 1.908-.324.368 0 .696.024.984.072.296.048.556.108.78.18.224.072.416.152.576.24.168.088.312.172.432.252v1.08a8.262 8.262 0 0 0-.588-.312 3.92 3.92 0 0 0-.648-.264 4.687 4.687 0 0 0-.732-.168 5.457 5.457 0 0 0-.84-.06c-.544 0-1.016.076-1.416.228-.392.152-.72.376-.984.672a2.8 2.8 0 0 0-.576 1.068 4.858 4.858 0 0 0-.192 1.428c0 1.072.252 1.908.756 2.508.512.592 1.22.888 2.124.888.448 0 .832-.056 1.152-.168.32-.12.58-.28.78-.48.2-.208.344-.452.432-.732.096-.288.144-.6.144-.936v-.24h-2.772v-1.02h3.936v1.104Zm1.995-3.768c-.216 0-.388-.064-.516-.192a.692.692 0 0 1-.192-.492.675.675 0 0 1 .708-.696c.208 0 .372.068.492.204.12.136.18.3.18.492s-.06.356-.18.492c-.12.128-.284.192-.492.192Zm.516.912V276h-1.056v-6.228h1.056Zm4.77 6.096a1.93 1.93 0 0 1-.492.18c-.2.048-.412.072-.636.072-.304 0-.564-.044-.78-.132a1.504 1.504 0 0 1-.516-.348 1.48 1.48 0 0 1-.3-.504 2.09 2.09 0 0 1-.084-.588v-3.876h-.744v-.9h.744v-1.308h1.056v1.308h1.812v.9h-1.812v3.744c0 .264.064.456.192.576.136.12.372.18.708.18.312 0 .596-.088.852-.264v.96Zm6.865.132h-5.316v-8.604h1.128v7.584h4.188V276Zm4.996-1.188a3.648 3.648 0 0 1-.276.456 2.088 2.088 0 0 1-1.02.732c-.224.08-.488.12-.792.12-.56 0-1.012-.156-1.356-.468-.344-.32-.516-.776-.516-1.368 0-.68.236-1.18.708-1.5.48-.32 1.16-.48 2.04-.48h1.164v-.516c0-.432-.112-.74-.336-.924-.224-.184-.608-.276-1.152-.276-.384 0-.748.064-1.092.192-.344.12-.652.26-.924.42v-.948c.224-.136.524-.268.9-.396a3.75 3.75 0 0 1 1.26-.204c.784 0 1.38.164 1.788.492.408.32.612.82.612 1.5V275.244c.008.088.012.18.012.276l.024.276c.008.08.016.148.024.204h-.96a5.482 5.482 0 0 1-.072-.468 7.173 7.173 0 0 1-.024-.54l-.012-.18Zm-1.86.36c.328 0 .608-.068.84-.204.232-.136.42-.292.564-.468.144-.184.248-.36.312-.528.064-.176.096-.3.096-.372v-.456h-1.056c-.632 0-1.092.092-1.38.276-.28.176-.42.444-.42.804 0 .28.084.508.252.684.168.176.432.264.792.264Zm10.445-2.292c0 .552-.076 1.032-.228 1.44a3.01 3.01 0 0 1-.612 1.008 2.566 2.566 0 0 1-.888.6 2.941 2.941 0 0 1-1.056.192c-.48 0-.9-.112-1.26-.336a2.46 2.46 0 0 1-.84-.96l-.036 1.176h-.996v-8.604h1.056l-.024 3.588c.208-.408.488-.732.84-.972s.788-.36 1.308-.36c.36 0 .704.068 1.032.204.336.128.628.328.876.6.256.264.456.6.6 1.008.152.4.228.872.228 1.416Zm-2.94 2.292c.552 0 .996-.188 1.332-.564.344-.384.516-.96.516-1.728 0-.752-.172-1.32-.516-1.704-.336-.392-.78-.588-1.332-.588-.272 0-.528.048-.768.144a1.71 1.71 0 0 0-.612.432c-.168.184-.304.42-.408.708a3.191 3.191 0 0 0-.144 1.008c0 .384.048.72.144 1.008.104.288.24.528.408.72.176.192.38.336.612.432.24.088.496.132.768.132Zm-30.458 6.224h1.68l3.084 8.604h-1.2l-.888-2.46h-3.804l-.876 2.46h-1.056l3.06-8.604Zm2.316 5.124-1.536-4.284-1.536 4.284h3.072Zm8.85 2.952c0 .4-.06.764-.18 1.092a1.97 1.97 0 0 1-.552.852c-.248.232-.572.412-.972.54-.392.128-.868.192-1.428.192a5.95 5.95 0 0 1-.804-.048 3.698 3.698 0 0 1-.612-.132 2.214 2.214 0 0 1-.432-.168 2.008 2.008 0 0 1-.3-.168v-.948c.128.072.26.136.396.192a3.534 3.534 0 0 0 1.032.276c.216.032.46.048.732.048.768 0 1.304-.144 1.608-.432.304-.288.456-.716.456-1.284v-.96a2.265 2.265 0 0 1-.78.888c-.328.224-.736.336-1.224.336-.368 0-.72-.064-1.056-.192a2.613 2.613 0 0 1-.876-.564 2.912 2.912 0 0 1-.6-.948c-.144-.384-.216-.828-.216-1.332 0-.512.072-.956.216-1.332.152-.384.352-.704.6-.96.256-.256.552-.448.888-.576a2.974 2.974 0 0 1 1.068-.192c.496 0 .912.112 1.248.336.344.224.612.528.804.912l.012-.132c0-.144.008-.316.024-.516.016-.208.032-.368.048-.48h.96a7.943 7.943 0 0 0-.048.48c-.008.208-.012.38-.012.516v4.704Zm-2.868-.672c.264 0 .504-.04.72-.12.224-.088.416-.22.576-.396.168-.176.296-.392.384-.648a2.7 2.7 0 0 0 .144-.924c0-.712-.176-1.244-.528-1.596-.344-.352-.78-.528-1.308-.528a2.08 2.08 0 0 0-.744.132c-.224.088-.42.22-.588.396-.16.176-.288.4-.384.672a2.7 2.7 0 0 0-.144.924c0 .352.048.66.144.924.096.256.228.472.396.648.168.168.364.296.588.384.232.088.48.132.744.132Zm9.538.672a3.344 3.344 0 0 1-.324.204 3.758 3.758 0 0 1-.468.216 3.946 3.946 0 0 1-.624.156 3.864 3.864 0 0 1-.78.072c-1.048 0-1.844-.284-2.388-.852-.544-.568-.816-1.364-.816-2.388 0-.504.072-.956.216-1.356.152-.4.36-.736.624-1.008.264-.28.576-.492.936-.636.36-.152.752-.228 1.176-.228a3 3 0 0 1 1.2.228c.352.152.64.376.864.672.232.296.388.664.468 1.104.088.432.088.936 0 1.512h-4.392c.04.672.24 1.176.6 1.512.36.328.896.492 1.608.492.48 0 .892-.068 1.236-.204a4.33 4.33 0 0 0 .864-.444v.948Zm-2.472-4.884c-.456 0-.848.14-1.176.42-.328.28-.536.704-.624 1.272h3.348c.032-.576-.1-1-.396-1.272-.296-.28-.68-.42-1.152-.42Zm6.831 0c-.48 0-.872.112-1.176.336a2.455 2.455 0 0 0-.72.84V290h-1.056v-6.228h.996l.036 1.116h.024c.168-.36.432-.656.792-.888.36-.232.816-.348 1.368-.348.616 0 1.104.164 1.464.492.368.32.552.816.552 1.488V290h-1.056v-4.26c0-.432-.108-.732-.324-.9-.216-.168-.516-.252-.9-.252Zm6.999 5.28a1.93 1.93 0 0 1-.492.18c-.2.048-.412.072-.636.072-.304 0-.564-.044-.78-.132a1.504 1.504 0 0 1-.516-.348 1.48 1.48 0 0 1-.3-.504 2.09 2.09 0 0 1-.084-.588v-3.876h-.744v-.9h.744v-1.308h1.056v1.308h1.812v.9h-1.812v3.744c0 .264.064.456.192.576.136.12.372.18.708.18.312 0 .596-.088.852-.264v.96Zm.541 1.572 3.804-10.512h.96l-3.804 10.512h-.96Zm-32.666 3.956h2.88c1.016 0 1.788.2 2.316.6.536.392.804 1.012.804 1.86 0 .752-.184 1.328-.552 1.728-.36.4-.836.664-1.428.792l2.34 3.624h-1.272l-2.244-3.492h-1.716V304h-1.128v-8.604Zm1.128 1.032v3.06h1.644c.304 0 .58-.028.828-.084.256-.056.472-.148.648-.276a1.23 1.23 0 0 0 .42-.504c.104-.216.156-.48.156-.792 0-.512-.168-.872-.504-1.08-.336-.216-.816-.324-1.44-.324h-1.752Zm10.482 6.456a2.233 2.233 0 0 1-.78.888c-.344.232-.796.348-1.356.348-.576 0-1.044-.16-1.404-.48-.352-.328-.528-.832-.528-1.512v-4.356h1.068v4.356c0 .208.028.38.084.516a.886.886 0 0 0 .612.48c.144.032.3.048.468.048.464 0 .836-.104 1.116-.312.28-.208.52-.492.72-.852v-4.236h1.056V304h-.936l-.096-1.116h-.024Zm5.741-4.296c-.48 0-.872.112-1.176.336a2.455 2.455 0 0 0-.72.84V304h-1.056v-6.228h.996l.036 1.116h.024c.168-.36.432-.656.792-.888.36-.232.816-.348 1.368-.348.616 0 1.104.164 1.464.492.368.32.552.816.552 1.488V304h-1.056v-4.26c0-.432-.108-.732-.324-.9-.216-.168-.516-.252-.9-.252Zm6.902 0c-.48 0-.872.112-1.176.336a2.455 2.455 0 0 0-.72.84V304h-1.056v-6.228h.996l.036 1.116h.024c.168-.36.432-.656.792-.888.36-.232.816-.348 1.368-.348.616 0 1.104.164 1.464.492.368.32.552.816.552 1.488V304h-1.056v-4.26c0-.432-.108-.732-.324-.9-.216-.168-.516-.252-.9-.252Zm8.907 4.884a3.344 3.344 0 0 1-.324.204 3.758 3.758 0 0 1-.468.216 3.946 3.946 0 0 1-.624.156 3.864 3.864 0 0 1-.78.072c-1.048 0-1.844-.284-2.388-.852-.544-.568-.816-1.364-.816-2.388 0-.504.072-.956.216-1.356.152-.4.36-.736.624-1.008.264-.28.576-.492.936-.636.36-.152.752-.228 1.176-.228a3 3 0 0 1 1.2.228c.352.152.64.376.864.672.232.296.388.664.468 1.104.088.432.088.936 0 1.512h-4.392c.04.672.24 1.176.6 1.512.36.328.896.492 1.608.492.48 0 .892-.068 1.236-.204a4.33 4.33 0 0 0 .864-.444v.948Zm-2.472-4.884c-.456 0-.848.14-1.176.42-.328.28-.536.704-.624 1.272h3.348c.032-.576-.1-1-.396-1.272-.296-.28-.68-.42-1.152-.42Zm6.963.24c-.448.04-.856.156-1.224.348-.36.184-.628.472-.804.864V304h-1.056v-6.228h.924l.108 1.356h.024c.176-.368.428-.688.756-.96.336-.28.76-.452 1.272-.516v1.176Z"/><path fill="#5282FF" fill-rule="evenodd" d="M378 224c8.831 0 16 7.169 16 16s-7.169 16-16 16-16-7.169-16-16 7.169-16 16-16Z" clip-rule="evenodd"/><path fill="#fff" d="m373.5 232 2.5 6h4.5l2-6 3 9-7.5 6-7-6 2.5-9Z"/><rect width="70" height="109" x="616" y="210" fill="#fff" stroke="#67B0F8" stroke-width="2" rx="4"/><path fill="#18123D" d="M640.078 283.12c-.64 0-1.22-.1-1.74-.3-.52-.2-.968-.488-1.344-.864a3.955 3.955 0 0 1-.852-1.392c-.2-.552-.3-1.172-.3-1.86 0-.696.092-1.316.276-1.86a3.657 3.657 0 0 1 .816-1.38c.36-.384.8-.676 1.32-.876.528-.2 1.128-.3 1.8-.3.584 0 1.096.064 1.536.192.44.12.8.264 1.08.432v1.08a3.98 3.98 0 0 0-1.248-.516 5.865 5.865 0 0 0-1.38-.168c-1.016 0-1.768.284-2.256.852-.48.56-.72 1.408-.72 2.544 0 1.144.26 1.996.78 2.556.528.56 1.304.84 2.328.84.44 0 .868-.06 1.284-.18.424-.12.828-.324 1.212-.612v1.08c-.232.184-.572.352-1.02.504-.44.152-.964.228-1.572.228Zm5.231-8.724V283h-1.056v-8.604h1.056Zm2.261 1.464c-.216 0-.388-.064-.516-.192a.692.692 0 0 1-.192-.492.675.675 0 0 1 .708-.696c.208 0 .372.068.492.204.12.136.18.3.18.492s-.06.356-.18.492c-.12.128-.284.192-.492.192Zm.516.912V283h-1.056v-6.228h1.056Zm6.677 5.7a3.344 3.344 0 0 1-.324.204 3.758 3.758 0 0 1-.468.216 3.946 3.946 0 0 1-.624.156 3.864 3.864 0 0 1-.78.072c-1.048 0-1.844-.284-2.388-.852-.544-.568-.816-1.364-.816-2.388 0-.504.072-.956.216-1.356.152-.4.36-.736.624-1.008.264-.28.576-.492.936-.636.36-.152.752-.228 1.176-.228a3 3 0 0 1 1.2.228c.352.152.64.376.864.672.232.296.388.664.468 1.104.088.432.088.936 0 1.512h-4.392c.04.672.24 1.176.6 1.512.36.328.896.492 1.608.492.48 0 .892-.068 1.236-.204a4.33 4.33 0 0 0 .864-.444v.948Zm-2.472-4.884c-.456 0-.848.14-1.176.42-.328.28-.536.704-.624 1.272h3.348c.032-.576-.1-1-.396-1.272-.296-.28-.68-.42-1.152-.42Zm6.832 0c-.48 0-.872.112-1.176.336a2.455 2.455 0 0 0-.72.84V283h-1.056v-6.228h.996l.036 1.116h.024c.168-.36.432-.656.792-.888.36-.232.816-.348 1.368-.348.616 0 1.104.164 1.464.492.368.32.552.816.552 1.488V283h-1.056v-4.26c0-.432-.108-.732-.324-.9-.216-.168-.516-.252-.9-.252Zm6.998 5.28a1.93 1.93 0 0 1-.492.18c-.2.048-.412.072-.636.072-.304 0-.564-.044-.78-.132a1.504 1.504 0 0 1-.516-.348 1.48 1.48 0 0 1-.3-.504 2.09 2.09 0 0 1-.084-.588v-3.876h-.744v-.9h.744v-1.308h1.056v1.308h1.812v.9h-1.812v3.744c0 .264.064.456.192.576.136.12.372.18.708.18.312 0 .596-.088.852-.264v.96Zm-24.927 14.252c-.328 0-.62-.028-.876-.084a4.113 4.113 0 0 1-.66-.18c-.184-.08-.34-.16-.468-.24a3.161 3.161 0 0 1-.3-.228v-.948c.08.08.188.168.324.264.136.088.3.172.492.252.192.08.408.148.648.204.248.048.524.072.828.072.448 0 .804-.072 1.068-.216.264-.144.396-.388.396-.732a.698.698 0 0 0-.132-.444.801.801 0 0 0-.336-.264 2.07 2.07 0 0 0-.504-.168c-.184-.04-.38-.08-.588-.12a22.265 22.265 0 0 1-.78-.18 2.73 2.73 0 0 1-.696-.3 1.633 1.633 0 0 1-.504-.516c-.128-.216-.192-.496-.192-.84 0-.56.216-1 .648-1.32.44-.32 1.052-.48 1.836-.48.44 0 .828.044 1.164.132.344.088.608.184.792.288v.948a2.824 2.824 0 0 0-.78-.336c-.304-.096-.684-.144-1.14-.144-.472 0-.836.064-1.092.192-.248.128-.372.36-.372.696 0 .168.036.304.108.408a.856.856 0 0 0 .288.24c.128.056.272.1.432.132.16.032.328.068.504.108.272.056.552.116.84.18.288.064.544.164.768.3.232.136.42.32.564.552.152.224.228.528.228.912 0 .36-.072.66-.216.9-.144.24-.336.432-.576.576-.232.136-.5.232-.804.288-.296.064-.6.096-.912.096Zm6.857-.252a1.93 1.93 0 0 1-.492.18c-.2.048-.412.072-.636.072-.304 0-.564-.044-.78-.132a1.504 1.504 0 0 1-.516-.348 1.48 1.48 0 0 1-.3-.504 2.09 2.09 0 0 1-.084-.588v-3.876h-.744v-.9h.744v-1.308h1.056v1.308h1.812v.9h-1.812v3.744c0 .264.064.456.192.576.136.12.372.18.708.18.312 0 .596-.088.852-.264v.96Zm5.053-1.056a3.648 3.648 0 0 1-.276.456 2.088 2.088 0 0 1-1.02.732c-.224.08-.488.12-.792.12-.56 0-1.012-.156-1.356-.468-.344-.32-.516-.776-.516-1.368 0-.68.236-1.18.708-1.5.48-.32 1.16-.48 2.04-.48h1.164v-.516c0-.432-.112-.74-.336-.924-.224-.184-.608-.276-1.152-.276-.384 0-.748.064-1.092.192-.344.12-.652.26-.924.42v-.948c.224-.136.524-.268.9-.396a3.75 3.75 0 0 1 1.26-.204c.784 0 1.38.164 1.788.492.408.32.612.82.612 1.5V296.244c.008.088.012.18.012.276l.024.276c.008.08.016.148.024.204h-.96a5.482 5.482 0 0 1-.072-.468 7.173 7.173 0 0 1-.024-.54l-.012-.18Zm-1.86.36c.328 0 .608-.068.84-.204.232-.136.42-.292.564-.468.144-.184.248-.36.312-.528.064-.176.096-.3.096-.372v-.456H652c-.632 0-1.092.092-1.38.276-.28.176-.42.444-.42.804 0 .28.084.508.252.684.168.176.432.264.792.264Zm5.956-4.5V297h-1.056v-5.328h-.756v-.9h.756v-.156c0-.736.196-1.308.588-1.716.392-.408.928-.612 1.608-.612.296 0 .56.036.792.108v.96a1.406 1.406 0 0 0-.312-.084 2.484 2.484 0 0 0-.432-.036c-.368 0-.66.112-.876.336-.208.224-.312.572-.312 1.044v.156h1.8v.9h-1.8Zm4.289 0V297h-1.056v-5.328h-.756v-.9h.756v-.156c0-.736.196-1.308.588-1.716.392-.408.928-.612 1.608-.612.296 0 .56.036.792.108v.96a1.406 1.406 0 0 0-.312-.084 2.484 2.484 0 0 0-.432-.036c-.368 0-.66.112-.876.336-.208.224-.312.572-.312 1.044v.156h1.8v.9h-1.8Z"/><path fill="#5282FF" fill-rule="evenodd" d="M651 224c8.831 0 16 7.168 16 16s-7.169 16-16 16-16-7.168-16-16 7.169-16 16-16Z" clip-rule="evenodd"/><path fill="#fff" fill-rule="evenodd" d="M644.56 246.93c-.291-.125-.469-.241-.538-.534-.09-.703.085-1.23.538-1.599 1.454-.954 3.4-1.369 4.393-2.021.336-.274.32-.642.29-.901-.03-.252-.166-.509-.39-.813-.841-.973-1.61-2.407-1.61-5.333 0-1.36.606-2.527 1.54-3.162.66-.45 1.55-.57 2.217-.57s1.556.12 2.217.57c.934.635 1.54 1.802 1.54 3.162 0 2.926-.769 4.36-1.61 5.333-.224.303-.36.561-.39.813-.03.259-.046.627.29.901.993.653 2.939 1.067 4.393 2.021.453.37.627.896.538 1.599-.07.293-.247.41-.538.534-1.602.637-4.048 1.067-6.44 1.067-2.392 0-4.838-.43-6.44-1.067Z" clip-rule="evenodd"/><path fill="#18123D" d="M51.017 77.12c-.64 0-1.22-.1-1.74-.3-.52-.2-.968-.488-1.344-.864a3.955 3.955 0 0 1-.852-1.392c-.2-.552-.3-1.172-.3-1.86 0-.696.092-1.316.276-1.86a3.657 3.657 0 0 1 .816-1.38c.36-.384.8-.676 1.32-.876.528-.2 1.128-.3 1.8-.3.584 0 1.096.064 1.536.192.44.12.8.264 1.08.432v1.08a3.98 3.98 0 0 0-1.248-.516 5.865 5.865 0 0 0-1.38-.168c-1.016 0-1.768.284-2.256.852-.48.56-.72 1.408-.72 2.544 0 1.144.26 1.996.78 2.556.528.56 1.304.84 2.328.84.44 0 .868-.06 1.284-.18.424-.12.828-.324 1.212-.612v1.08c-.232.184-.572.352-1.02.504-.44.152-.964.228-1.572.228Zm5.231-8.724V77h-1.056v-8.604h1.056Zm2.262 1.464c-.216 0-.389-.064-.517-.192a.692.692 0 0 1-.192-.492.675.675 0 0 1 .708-.696c.209 0 .373.068.492.204.12.136.18.3.18.492s-.06.356-.18.492c-.12.128-.283.192-.491.192Zm.516.912V77h-1.057v-6.228h1.056Zm6.677 5.7a3.344 3.344 0 0 1-.324.204 3.758 3.758 0 0 1-.468.216 3.946 3.946 0 0 1-.624.156 3.864 3.864 0 0 1-.78.072c-1.048 0-1.844-.284-2.388-.852-.544-.568-.816-1.364-.816-2.388 0-.504.072-.956.216-1.356.152-.4.36-.736.624-1.008.264-.28.576-.492.936-.636.36-.152.752-.228 1.176-.228a3 3 0 0 1 1.2.228c.352.152.64.376.864.672.232.296.388.664.468 1.104.088.432.088.936 0 1.512h-4.392c.04.672.24 1.176.6 1.512.36.328.896.492 1.608.492.48 0 .892-.068 1.236-.204a4.33 4.33 0 0 0 .864-.444v.948Zm-2.472-4.884c-.456 0-.848.14-1.176.42-.328.28-.536.704-.624 1.272h3.348c.032-.576-.1-1-.396-1.272-.296-.28-.68-.42-1.152-.42Zm6.831 0c-.48 0-.872.112-1.176.336a2.455 2.455 0 0 0-.72.84V77H67.11v-6.228h.996l.036 1.116h.024c.168-.36.432-.656.792-.888.36-.232.816-.348 1.368-.348.616 0 1.104.164 1.464.492.368.32.552.816.552 1.488V77h-1.056v-4.26c0-.432-.108-.732-.324-.9-.216-.168-.516-.252-.9-.252Zm6.998 5.28a1.93 1.93 0 0 1-.492.18c-.2.048-.412.072-.636.072-.304 0-.564-.044-.78-.132a1.504 1.504 0 0 1-.516-.348 1.48 1.48 0 0 1-.3-.504 2.09 2.09 0 0 1-.084-.588v-3.876h-.744v-.9h.744v-1.308h1.056v1.308h1.812v.9h-1.812v3.744c0 .264.064.456.192.576.136.12.372.18.708.18.312 0 .596-.088.852-.264v.96Zm8.122.132h-1.764l-3-8.604h1.176l2.748 7.92 2.748-7.92h1.08L85.182 77Zm4.174-8.604h2.748c.976 0 1.732.204 2.268.612.544.4.816 1.028.816 1.884 0 .488-.08.908-.24 1.26a2.22 2.22 0 0 1-.648.852c-.28.224-.616.388-1.008.492a4.91 4.91 0 0 1-1.284.156h-1.524V77h-1.128v-8.604Zm1.128 1.032v3.204h1.524c.304 0 .58-.032.828-.096s.46-.164.636-.3a1.3 1.3 0 0 0 .42-.528c.104-.224.156-.492.156-.804 0-.52-.168-.896-.504-1.128-.336-.232-.816-.348-1.44-.348h-1.62Zm9.928 7.692c-.64 0-1.22-.1-1.74-.3-.52-.2-.968-.488-1.344-.864a3.955 3.955 0 0 1-.852-1.392c-.2-.552-.3-1.172-.3-1.86 0-.696.092-1.316.276-1.86a3.657 3.657 0 0 1 .816-1.38c.36-.384.8-.676 1.32-.876.528-.2 1.128-.3 1.8-.3.584 0 1.096.064 1.536.192.44.12.8.264 1.08.432v1.08a3.98 3.98 0 0 0-1.248-.516 5.865 5.865 0 0 0-1.38-.168c-1.016 0-1.768.284-2.256.852-.48.56-.72 1.408-.72 2.544 0 1.144.26 1.996.78 2.556.528.56 1.304.84 2.328.84.44 0 .868-.06 1.284-.18.424-.12.828-.324 1.212-.612v1.08c-.232.184-.572.352-1.02.504-.44.152-.964.228-1.572.228Zm-49.96 6.74c-.215 0-.387-.064-.515-.192a.692.692 0 0 1-.192-.492.675.675 0 0 1 .708-.696c.208 0 .372.068.492.204.12.136.18.3.18.492s-.06.356-.18.492c-.12.128-.284.192-.492.192Zm.517.912V91h-1.056v-6.228h1.056Zm4.673.816c-.48 0-.872.112-1.176.336a2.455 2.455 0 0 0-.72.84V91H52.69v-6.228h.996l.036 1.116h.024c.168-.36.432-.656.792-.888.36-.232.816-.348 1.368-.348.616 0 1.104.164 1.464.492.368.32.552.816.552 1.488V91h-1.056v-4.26c0-.432-.108-.732-.324-.9-.216-.168-.516-.252-.9-.252Zm10.055 1.68V91h-1.152v-3.696l-2.94-4.908h1.296l2.256 3.912 2.304-3.912h1.152l-2.916 4.872Zm7.012 2.544a3.648 3.648 0 0 1-.276.456 2.088 2.088 0 0 1-1.02.732c-.224.08-.488.12-.792.12-.56 0-1.012-.156-1.356-.468-.344-.32-.516-.776-.516-1.368 0-.68.236-1.18.708-1.5.48-.32 1.16-.48 2.04-.48h1.164v-.516c0-.432-.112-.74-.336-.924-.224-.184-.608-.276-1.152-.276-.384 0-.748.064-1.092.192-.344.12-.652.26-.924.42v-.948c.224-.136.524-.268.9-.396a3.75 3.75 0 0 1 1.26-.204c.784 0 1.38.164 1.788.492.408.32.612.82.612 1.5V90.244c.008.088.012.18.012.276l.024.276c.008.08.016.148.024.204h-.96a5.482 5.482 0 0 1-.072-.468 7.173 7.173 0 0 1-.024-.54l-.012-.18Zm-1.86.36c.328 0 .608-.068.84-.204.232-.136.42-.292.564-.468.144-.184.248-.36.312-.528.064-.176.096-.3.096-.372v-.456h-1.056c-.632 0-1.092.092-1.38.276-.28.176-.42.444-.42.804 0 .28.084.508.252.684.168.176.432.264.792.264Zm7.48-4.584c-.48 0-.871.112-1.175.336a2.455 2.455 0 0 0-.72.84V91h-1.056v-6.228h.996l.036 1.116h.024c.168-.36.432-.656.792-.888.36-.232.816-.348 1.368-.348.616 0 1.104.164 1.464.492.368.32.552.816.552 1.488V91h-1.056v-4.26c0-.432-.108-.732-.324-.9-.216-.168-.516-.252-.9-.252Zm8.415 4.188c-.192.408-.46.736-.804.984-.344.24-.78.36-1.308.36-.376 0-.732-.064-1.068-.192a2.566 2.566 0 0 1-.888-.6 3.01 3.01 0 0 1-.612-1.008c-.152-.408-.228-.888-.228-1.44 0-.544.076-1.016.228-1.416.152-.408.356-.744.612-1.008.256-.272.552-.472.888-.6a2.911 2.911 0 0 1 1.08-.204c.472 0 .88.1 1.224.3.344.192.62.468.828.828v-3.384h1.056V91h-.924l-.084-1.224Zm-1.956.396c.272 0 .524-.044.756-.132.232-.096.432-.24.6-.432.176-.192.312-.432.408-.72.104-.288.156-.624.156-1.008s-.052-.72-.156-1.008a1.971 1.971 0 0 0-.408-.72 1.49 1.49 0 0 0-.6-.42 1.958 1.958 0 0 0-.756-.144c-.552 0-1.004.196-1.356.588-.344.384-.516.952-.516 1.704 0 .76.176 1.332.528 1.716.352.384.8.576 1.344.576Zm9.643.3a3.344 3.344 0 0 1-.324.204 3.758 3.758 0 0 1-.468.216 3.946 3.946 0 0 1-.624.156 3.864 3.864 0 0 1-.78.072c-1.048 0-1.844-.284-2.388-.852-.544-.568-.816-1.364-.816-2.388 0-.504.072-.956.216-1.356.152-.4.36-.736.624-1.008.264-.28.576-.492.936-.636.36-.152.752-.228 1.176-.228a3 3 0 0 1 1.2.228c.352.152.64.376.864.672.232.296.388.664.468 1.104.088.432.088.936 0 1.512h-4.392c.04.672.24 1.176.6 1.512.36.328.896.492 1.608.492.48 0 .892-.068 1.236-.204a4.33 4.33 0 0 0 .864-.444v.948Zm-2.472-4.884c-.456 0-.848.14-1.176.42-.328.28-.536.704-.624 1.272h3.348c.032-.576-.1-1-.396-1.272-.296-.28-.68-.42-1.152-.42Zm5.921 2.94L96.2 91h-1.104l2.256-3.228-1.992-3h1.224l1.488 2.196 1.5-2.196h1.092L98.6 87.748 100.772 91h-1.224l-1.668-2.472ZM63.902 105.12c-.64 0-1.22-.1-1.74-.3-.52-.2-.968-.488-1.344-.864a3.955 3.955 0 0 1-.852-1.392c-.2-.552-.3-1.172-.3-1.86 0-.696.092-1.316.276-1.86a3.657 3.657 0 0 1 .816-1.38c.36-.384.8-.676 1.32-.876.528-.2 1.128-.3 1.8-.3.584 0 1.096.064 1.536.192.44.12.8.264 1.08.432v1.08a3.98 3.98 0 0 0-1.248-.516 5.865 5.865 0 0 0-1.38-.168c-1.016 0-1.768.284-2.256.852-.48.56-.72 1.408-.72 2.544 0 1.144.26 1.996.78 2.556.528.56 1.304.84 2.328.84.44 0 .868-.06 1.284-.18.424-.12.828-.324 1.212-.612v1.08c-.232.184-.572.352-1.02.504-.44.152-.964.228-1.572.228Zm5.23-8.724V105h-1.055v-8.604h1.056Zm4.278 8.724c-.424 0-.82-.072-1.188-.216a2.767 2.767 0 0 1-.96-.624 3.04 3.04 0 0 1-.624-1.02c-.152-.4-.228-.86-.228-1.38 0-.512.076-.968.228-1.368a2.89 2.89 0 0 1 .624-1.02c.272-.272.592-.48.96-.624a3.231 3.231 0 0 1 1.188-.216c.432 0 .832.072 1.2.216.368.144.684.352.948.624.272.272.484.612.636 1.02.16.4.24.856.24 1.368 0 .52-.08.98-.24 1.38-.152.4-.364.74-.636 1.02-.264.272-.58.48-.948.624a3.265 3.265 0 0 1-1.2.216Zm0-.948c.28 0 .536-.044.768-.132.24-.096.448-.236.624-.42.176-.192.312-.432.408-.72.096-.288.144-.628.144-1.02s-.048-.732-.144-1.02a1.855 1.855 0 0 0-.408-.708 1.569 1.569 0 0 0-.624-.42 1.99 1.99 0 0 0-.768-.144c-.28 0-.536.048-.768.144a1.586 1.586 0 0 0-.612.42c-.168.184-.3.42-.396.708a3.234 3.234 0 0 0-.144 1.02c0 .392.048.732.144 1.02.096.288.228.528.396.72.176.184.38.324.612.42.232.088.488.132.768.132Zm8.307-.288a2.233 2.233 0 0 1-.78.888c-.344.232-.796.348-1.356.348-.576 0-1.044-.16-1.404-.48-.352-.328-.528-.832-.528-1.512v-4.356h1.068v4.356c0 .208.028.38.084.516a.886.886 0 0 0 .612.48c.144.032.3.048.468.048.464 0 .836-.104 1.116-.312.28-.208.52-.492.72-.852v-4.236h1.056V105h-.936l-.096-1.116h-.024Zm7.254-.108c-.192.408-.46.736-.804.984-.344.24-.78.36-1.308.36-.376 0-.732-.064-1.068-.192a2.566 2.566 0 0 1-.888-.6 3.01 3.01 0 0 1-.612-1.008c-.152-.408-.228-.888-.228-1.44 0-.544.076-1.016.228-1.416.152-.408.356-.744.612-1.008.256-.272.552-.472.888-.6a2.911 2.911 0 0 1 1.08-.204c.472 0 .88.1 1.224.3.344.192.62.468.828.828v-3.384h1.056V105h-.924l-.084-1.224Zm-1.956.396c.272 0 .524-.044.756-.132.232-.096.432-.24.6-.432.176-.192.312-.432.408-.72.104-.288.156-.624.156-1.008s-.052-.72-.156-1.008a1.971 1.971 0 0 0-.408-.72 1.49 1.49 0 0 0-.6-.42 1.958 1.958 0 0 0-.756-.144c-.552 0-1.004.196-1.356.588-.344.384-.516.952-.516 1.704 0 .76.176 1.332.528 1.716.352.384.8.576 1.344.576Z"/><path fill="#5282FF" d="M59 46c0-8.837 7.163-16 16-16s16 7.163 16 16-7.163 16-16 16-16-7.163-16-16Z"/><path fill="#fff" d="M83 41c0-1.1-.9-2-2-2s-2 .9-2 2c0 .7.4 1.4 1 1.7V45h-4v-2.3c.6-.4 1-1 1-1.7 0-1.1-.9-2-2-2s-2 .9-2 2c0 .7.4 1.4 1 1.7V45h-4v-2.3c.6-.4 1-1 1-1.7 0-1.1-.9-2-2-2s-2 .9-2 2c0 .7.4 1.4 1 1.7V45c0 1.1.9 2 2 2h1v2.3c-.6.4-1 1-1 1.7 0 1.1.9 2 2 2s2-.9 2-2c0-.7-.4-1.4-1-1.7V47h4v2.3c-.6.4-1 1-1 1.7 0 1.1.9 2 2 2s2-.9 2-2c0-.7-.4-1.4-1-1.7V47h1c1.1 0 2-.9 2-2v-2.3c.6-.3 1-1 1-1.7Z"/><path fill="#5282FF" d="M101 355c0-8.837 7.163-16 16-16s16 7.163 16 16-7.163 16-16 16-16-7.163-16-16Z"/><path fill="#fff" d="M125 354v-2h-2v-2c0-.6-.4-1-1-1h-2v-2h-2v2h-2v-2h-2v2h-2c-.6 0-1 .4-1 1v2h-2v2h2v2h-2v2h2v2c0 .6.4 1 1 1h2v2h2v-2h2v2h2v-2h2c.6 0 1-.4 1-1v-2h2v-2h-2v-2h2Zm-5 4h-6v-6h6v6Z"/><path fill="#18123D" d="M107.22 386.12c-.64 0-1.22-.1-1.74-.3-.52-.2-.968-.488-1.344-.864a3.955 3.955 0 0 1-.852-1.392c-.2-.552-.3-1.172-.3-1.86 0-.696.092-1.316.276-1.86a3.657 3.657 0 0 1 .816-1.38c.36-.384.8-.676 1.32-.876.528-.2 1.128-.3 1.8-.3.584 0 1.096.064 1.536.192.44.12.8.264 1.08.432v1.08a3.98 3.98 0 0 0-1.248-.516 5.865 5.865 0 0 0-1.38-.168c-1.016 0-1.768.284-2.256.852-.48.56-.72 1.408-.72 2.544 0 1.144.26 1.996.78 2.556.528.56 1.304.84 2.328.84.44 0 .868-.06 1.284-.18.424-.12.828-.324 1.212-.612v1.08c-.232.184-.572.352-1.02.504-.44.152-.964.228-1.572.228Zm5.231-8.724V386h-1.056v-8.604h1.056Zm4.278 8.724c-.424 0-.82-.072-1.188-.216a2.767 2.767 0 0 1-.96-.624 3.04 3.04 0 0 1-.624-1.02c-.152-.4-.228-.86-.228-1.38 0-.512.076-.968.228-1.368a2.89 2.89 0 0 1 .624-1.02c.272-.272.592-.48.96-.624a3.231 3.231 0 0 1 1.188-.216c.432 0 .832.072 1.2.216.368.144.684.352.948.624.272.272.484.612.636 1.02.16.4.24.856.24 1.368 0 .52-.08.98-.24 1.38-.152.4-.364.74-.636 1.02-.264.272-.58.48-.948.624a3.265 3.265 0 0 1-1.2.216Zm0-.948c.28 0 .536-.044.768-.132.24-.096.448-.236.624-.42.176-.192.312-.432.408-.72.096-.288.144-.628.144-1.02s-.048-.732-.144-1.02a1.855 1.855 0 0 0-.408-.708 1.569 1.569 0 0 0-.624-.42 1.99 1.99 0 0 0-.768-.144c-.28 0-.536.048-.768.144a1.586 1.586 0 0 0-.612.42c-.168.184-.3.42-.396.708a3.234 3.234 0 0 0-.144 1.02c0 .392.048.732.144 1.02.096.288.228.528.396.72.176.184.38.324.612.42.232.088.488.132.768.132Zm8.307-.288a2.233 2.233 0 0 1-.78.888c-.344.232-.796.348-1.356.348-.576 0-1.044-.16-1.404-.48-.352-.328-.528-.832-.528-1.512v-4.356h1.068v4.356c0 .208.028.38.084.516a.886.886 0 0 0 .612.48c.144.032.3.048.468.048.464 0 .836-.104 1.116-.312.28-.208.52-.492.72-.852v-4.236h1.056V386h-.936l-.096-1.116h-.024Zm7.253-.108c-.192.408-.46.736-.804.984-.344.24-.78.36-1.308.36-.376 0-.732-.064-1.068-.192a2.566 2.566 0 0 1-.888-.6 3.01 3.01 0 0 1-.612-1.008c-.152-.408-.228-.888-.228-1.44 0-.544.076-1.016.228-1.416.152-.408.356-.744.612-1.008.256-.272.552-.472.888-.6a2.911 2.911 0 0 1 1.08-.204c.472 0 .88.1 1.224.3.344.192.62.468.828.828v-3.384h1.056V386h-.924l-.084-1.224Zm-1.956.396c.272 0 .524-.044.756-.132.232-.096.432-.24.6-.432.176-.192.312-.432.408-.72.104-.288.156-.624.156-1.008s-.052-.72-.156-1.008a1.971 1.971 0 0 0-.408-.72 1.49 1.49 0 0 0-.6-.42 1.958 1.958 0 0 0-.756-.144c-.552 0-1.004.196-1.356.588-.344.384-.516.952-.516 1.704 0 .76.176 1.332.528 1.716.352.384.8.576 1.344.576ZM96.644 400.12c-.64 0-1.22-.1-1.74-.3-.52-.2-.968-.488-1.344-.864a3.955 3.955 0 0 1-.852-1.392c-.2-.552-.3-1.172-.3-1.86 0-.696.092-1.316.276-1.86a3.657 3.657 0 0 1 .816-1.38c.36-.384.8-.676 1.32-.876.528-.2 1.128-.3 1.8-.3.584 0 1.096.064 1.536.192.44.12.8.264 1.08.432v1.08a3.98 3.98 0 0 0-1.248-.516 5.865 5.865 0 0 0-1.38-.168c-1.016 0-1.768.284-2.256.852-.48.56-.72 1.408-.72 2.544 0 1.144.26 1.996.78 2.556.528.56 1.304.84 2.328.84.44 0 .868-.06 1.284-.18.424-.12.828-.324 1.212-.612v1.08c-.232.184-.572.352-1.02.504-.44.152-.964.228-1.572.228Zm6.672 0c-.424 0-.82-.072-1.188-.216a2.767 2.767 0 0 1-.96-.624 3.04 3.04 0 0 1-.624-1.02c-.152-.4-.228-.86-.228-1.38 0-.512.076-.968.228-1.368a2.89 2.89 0 0 1 .624-1.02c.272-.272.592-.48.96-.624a3.231 3.231 0 0 1 1.188-.216c.432 0 .832.072 1.2.216.368.144.684.352.948.624.272.272.484.612.636 1.02.16.4.24.856.24 1.368 0 .52-.08.98-.24 1.38-.152.4-.364.74-.636 1.02-.264.272-.58.48-.948.624a3.265 3.265 0 0 1-1.2.216Zm0-.948c.28 0 .536-.044.768-.132.24-.096.448-.236.624-.42.176-.192.312-.432.408-.72.096-.288.144-.628.144-1.02s-.048-.732-.144-1.02a1.855 1.855 0 0 0-.408-.708 1.569 1.569 0 0 0-.624-.42 1.99 1.99 0 0 0-.768-.144c-.28 0-.536.048-.768.144a1.586 1.586 0 0 0-.612.42c-.168.184-.3.42-.396.708a3.234 3.234 0 0 0-.144 1.02c0 .392.048.732.144 1.02.096.288.228.528.396.72.176.184.38.324.612.42.232.088.488.132.768.132Zm5.368.828h-1.056v-6.228h.924l.108 1.116h.024a2.21 2.21 0 0 1 .756-.876c.336-.24.776-.36 1.32-.36.48 0 .872.116 1.176.348.312.224.52.564.624 1.02.176-.424.444-.756.804-.996.368-.248.812-.372 1.332-.372.576 0 1.032.164 1.368.492.336.32.504.816.504 1.488V400H115.5v-4.236c0-.408-.1-.704-.3-.888-.2-.192-.472-.288-.816-.288-.232 0-.436.036-.612.108a1.448 1.448 0 0 0-.468.276c-.136.12-.26.26-.372.42-.112.16-.216.328-.312.504V400h-1.056v-4.356c0-.4-.1-.676-.3-.828-.2-.152-.472-.228-.816-.228-.224 0-.424.028-.6.084a1.688 1.688 0 0 0-.48.24 1.89 1.89 0 0 0-.372.384 3.545 3.545 0 0 0-.312.48V400Zm12.669.12c-.48 0-.896-.112-1.248-.336a2.444 2.444 0 0 1-.828-.924v3.264h-1.056v-8.352h.924l.108 1.212c.208-.408.488-.732.84-.972s.788-.36 1.308-.36c.36 0 .704.068 1.032.204.336.128.628.328.876.6.256.264.456.6.6 1.008.152.4.228.872.228 1.416 0 .552-.076 1.032-.228 1.44a3.01 3.01 0 0 1-.612 1.008 2.566 2.566 0 0 1-.888.6 2.941 2.941 0 0 1-1.056.192Zm-.156-.948c.552 0 .996-.188 1.332-.564.344-.384.516-.96.516-1.728 0-.752-.172-1.32-.516-1.704-.336-.392-.78-.588-1.332-.588-.272 0-.528.048-.768.144a1.71 1.71 0 0 0-.612.432c-.168.184-.304.42-.408.708a3.191 3.191 0 0 0-.144 1.008c0 .384.048.72.144 1.008.104.288.24.528.408.72.176.192.38.336.612.432.24.088.496.132.768.132Zm8.216-.288a2.233 2.233 0 0 1-.78.888c-.344.232-.796.348-1.356.348-.576 0-1.044-.16-1.404-.48-.352-.328-.528-.832-.528-1.512v-4.356h1.068v4.356c0 .208.028.38.084.516a.886.886 0 0 0 .612.48c.144.032.3.048.468.048.464 0 .836-.104 1.116-.312.28-.208.52-.492.72-.852v-4.236h1.056V400h-.936l-.096-1.116h-.024Zm5.837.984a1.93 1.93 0 0 1-.492.18c-.2.048-.412.072-.636.072-.304 0-.564-.044-.78-.132a1.504 1.504 0 0 1-.516-.348 1.48 1.48 0 0 1-.3-.504 2.09 2.09 0 0 1-.084-.588v-3.876h-.744v-.9h.744v-1.308h1.056v1.308h1.812v.9h-1.812v3.744c0 .264.064.456.192.576.136.12.372.18.708.18.312 0 .596-.088.852-.264v.96Zm6.302-.396a3.344 3.344 0 0 1-.324.204 3.758 3.758 0 0 1-.468.216 3.946 3.946 0 0 1-.624.156 3.864 3.864 0 0 1-.78.072c-1.048 0-1.844-.284-2.388-.852-.544-.568-.816-1.364-.816-2.388 0-.504.072-.956.216-1.356.152-.4.36-.736.624-1.008.264-.28.576-.492.936-.636.36-.152.752-.228 1.176-.228a3 3 0 0 1 1.2.228c.352.152.64.376.864.672.232.296.388.664.468 1.104.088.432.088.936 0 1.512h-4.392c.04.672.24 1.176.6 1.512.36.328.896.492 1.608.492.48 0 .892-.068 1.236-.204a4.33 4.33 0 0 0 .864-.444v.948Zm-2.472-4.884c-.456 0-.848.14-1.176.42-.328.28-.536.704-.624 1.272h3.348c.032-.576-.1-1-.396-1.272-.296-.28-.68-.42-1.152-.42ZM112.633 414h-1.764l-3-8.604h1.176l2.748 7.92 2.748-7.92h1.08L112.633 414Zm8.422-2.568 2.796-6.036h1.464V414h-1.14v-6.924l-2.64 5.604-.564.012h-.504l.012-.012-2.604-5.7V414h-1.068v-8.604h1.572l2.676 6.036Z"/><path fill="#5282FF" d="M364 355c0-8.837 7.163-16 16-16s16 7.163 16 16-7.163 16-16 16-16-7.163-16-16Z"/><path fill="#fff" d="m375.995 363-4.994-6.262 1.781-7.811 7.218-3.474 7.218 3.475 1.781 7.811-4.994 6.261h-8.01ZM384 352.196l-4.001-2.297-3.999 2.297v4.904l4 2.301 4-2.301v-4.904Zm-1.22.7h.007L380 354.499l-2.786-1.604h.005l2.78-1.596 2.781 1.597Z"/><path fill="#18123D" d="m359.92 383.432 2.796-6.036h1.464V386h-1.14v-6.924l-2.64 5.604-.564.012h-.504l.012-.012-2.604-5.7V386h-1.068v-8.604h1.572l2.676 6.036Zm9.768 1.38a3.648 3.648 0 0 1-.276.456 2.088 2.088 0 0 1-1.02.732c-.224.08-.488.12-.792.12-.56 0-1.012-.156-1.356-.468-.344-.32-.516-.776-.516-1.368 0-.68.236-1.18.708-1.5.48-.32 1.16-.48 2.04-.48h1.164v-.516c0-.432-.112-.74-.336-.924-.224-.184-.608-.276-1.152-.276-.384 0-.748.064-1.092.192-.344.12-.652.26-.924.42v-.948c.224-.136.524-.268.9-.396a3.75 3.75 0 0 1 1.26-.204c.784 0 1.38.164 1.788.492.408.32.612.82.612 1.5V385.244c.008.088.012.18.012.276l.024.276c.008.08.016.148.024.204h-.96a5.482 5.482 0 0 1-.072-.468 7.173 7.173 0 0 1-.024-.54l-.012-.18Zm-1.86.36c.328 0 .608-.068.84-.204.232-.136.42-.292.564-.468.144-.184.248-.36.312-.528.064-.176.096-.3.096-.372v-.456h-1.056c-.632 0-1.092.092-1.38.276-.28.176-.42.444-.42.804 0 .28.084.508.252.684.168.176.432.264.792.264Zm7.48-4.584c-.48 0-.872.112-1.176.336a2.455 2.455 0 0 0-.72.84V386h-1.056v-6.228h.996l.036 1.116h.024c.168-.36.432-.656.792-.888.36-.232.816-.348 1.368-.348.616 0 1.104.164 1.464.492.368.32.552.816.552 1.488V386h-1.056v-4.26c0-.432-.108-.732-.324-.9-.216-.168-.516-.252-.9-.252Zm7.599 4.224a3.648 3.648 0 0 1-.276.456 2.088 2.088 0 0 1-1.02.732c-.224.08-.488.12-.792.12-.56 0-1.012-.156-1.356-.468-.344-.32-.516-.776-.516-1.368 0-.68.236-1.18.708-1.5.48-.32 1.16-.48 2.04-.48h1.164v-.516c0-.432-.112-.74-.336-.924-.224-.184-.608-.276-1.152-.276-.384 0-.748.064-1.092.192-.344.12-.652.26-.924.42v-.948c.224-.136.524-.268.9-.396a3.75 3.75 0 0 1 1.26-.204c.784 0 1.38.164 1.788.492.408.32.612.82.612 1.5V385.244c.008.088.012.18.012.276l.024.276c.008.08.016.148.024.204h-.96a5.482 5.482 0 0 1-.072-.468 7.173 7.173 0 0 1-.024-.54l-.012-.18Zm-1.86.36c.328 0 .608-.068.84-.204.232-.136.42-.292.564-.468.144-.184.248-.36.312-.528.064-.176.096-.3.096-.372v-.456h-1.056c-.632 0-1.092.092-1.38.276-.28.176-.42.444-.42.804 0 .28.084.508.252.684.168.176.432.264.792.264Zm9.88.3c0 .4-.06.764-.18 1.092a1.97 1.97 0 0 1-.552.852c-.248.232-.572.412-.972.54-.392.128-.868.192-1.428.192a5.95 5.95 0 0 1-.804-.048 3.698 3.698 0 0 1-.612-.132 2.214 2.214 0 0 1-.432-.168 2.008 2.008 0 0 1-.3-.168v-.948c.128.072.26.136.396.192a3.534 3.534 0 0 0 1.032.276c.216.032.46.048.732.048.768 0 1.304-.144 1.608-.432.304-.288.456-.716.456-1.284v-.96a2.265 2.265 0 0 1-.78.888c-.328.224-.736.336-1.224.336-.368 0-.72-.064-1.056-.192a2.613 2.613 0 0 1-.876-.564 2.912 2.912 0 0 1-.6-.948c-.144-.384-.216-.828-.216-1.332 0-.512.072-.956.216-1.332.152-.384.352-.704.6-.96.256-.256.552-.448.888-.576a2.974 2.974 0 0 1 1.068-.192c.496 0 .912.112 1.248.336.344.224.612.528.804.912l.012-.132c0-.144.008-.316.024-.516.016-.208.032-.368.048-.48h.96a7.943 7.943 0 0 0-.048.48c-.008.208-.012.38-.012.516v4.704Zm-2.868-.672c.264 0 .504-.04.72-.12.224-.088.416-.22.576-.396.168-.176.296-.392.384-.648a2.7 2.7 0 0 0 .144-.924c0-.712-.176-1.244-.528-1.596-.344-.352-.78-.528-1.308-.528a2.08 2.08 0 0 0-.744.132c-.224.088-.42.22-.588.396-.16.176-.288.4-.384.672a2.7 2.7 0 0 0-.144.924c0 .352.048.66.144.924.096.256.228.472.396.648.168.168.364.296.588.384.232.088.48.132.744.132Zm9.538.672a3.344 3.344 0 0 1-.324.204 3.758 3.758 0 0 1-.468.216 3.946 3.946 0 0 1-.624.156 3.864 3.864 0 0 1-.78.072c-1.048 0-1.844-.284-2.388-.852-.544-.568-.816-1.364-.816-2.388 0-.504.072-.956.216-1.356.152-.4.36-.736.624-1.008.264-.28.576-.492.936-.636.36-.152.752-.228 1.176-.228a3 3 0 0 1 1.2.228c.352.152.64.376.864.672.232.296.388.664.468 1.104.088.432.088.936 0 1.512h-4.392c.04.672.24 1.176.6 1.512.36.328.896.492 1.608.492.48 0 .892-.068 1.236-.204a4.33 4.33 0 0 0 .864-.444v.948Zm-2.472-4.884c-.456 0-.848.14-1.176.42-.328.28-.536.704-.624 1.272h3.348c.032-.576-.1-1-.396-1.272-.296-.28-.68-.42-1.152-.42Zm8.344 4.188c-.192.408-.46.736-.804.984-.344.24-.78.36-1.308.36-.376 0-.732-.064-1.068-.192a2.566 2.566 0 0 1-.888-.6 3.01 3.01 0 0 1-.612-1.008c-.152-.408-.228-.888-.228-1.44 0-.544.076-1.016.228-1.416.152-.408.356-.744.612-1.008.256-.272.552-.472.888-.6a2.911 2.911 0 0 1 1.08-.204c.472 0 .88.1 1.224.3.344.192.62.468.828.828v-3.384h1.056V386h-.924l-.084-1.224Zm-1.956.396c.272 0 .524-.044.756-.132.232-.096.432-.24.6-.432.176-.192.312-.432.408-.72.104-.288.156-.624.156-1.008s-.052-.72-.156-1.008a1.971 1.971 0 0 0-.408-.72 1.49 1.49 0 0 0-.6-.42 1.958 1.958 0 0 0-.756-.144c-.552 0-1.004.196-1.356.588-.344.384-.516.952-.516 1.704 0 .76.176 1.332.528 1.716.352.384.8.576 1.344.576Zm-39.035 14.948c-.392 0-.744-.028-1.056-.084a5.07 5.07 0 0 1-.828-.192 4.264 4.264 0 0 1-.6-.276 2.38 2.38 0 0 1-.384-.3v-1.08c.12.104.276.212.468.324.192.104.412.2.66.288.256.088.528.16.816.216.296.056.604.084.924.084.624 0 1.12-.116 1.488-.348.368-.24.552-.6.552-1.08 0-.24-.044-.436-.132-.588a1.07 1.07 0 0 0-.384-.396 2.236 2.236 0 0 0-.636-.276c-.248-.08-.54-.164-.876-.252a16.032 16.032 0 0 1-1.008-.3 3.714 3.714 0 0 1-.912-.444 2.247 2.247 0 0 1-.648-.696c-.16-.28-.24-.636-.24-1.068 0-.744.26-1.324.78-1.74.52-.416 1.316-.624 2.388-.624.312 0 .588.02.828.06.248.032.464.076.648.132.192.048.356.104.492.168.144.064.272.124.384.18v1.08a3.368 3.368 0 0 0-1.092-.456 5.19 5.19 0 0 0-1.26-.144c-.384 0-.708.032-.972.096-.256.056-.464.14-.624.252a.995.995 0 0 0-.348.408c-.072.16-.108.34-.108.54 0 .24.052.44.156.6.112.16.256.296.432.408.184.104.392.192.624.264.232.072.476.136.732.192.336.08.68.172 1.032.276.352.104.668.248.948.432.28.184.508.424.684.72.184.288.276.664.276 1.128 0 .456-.092.844-.276 1.164a2.247 2.247 0 0 1-.708.768 3 3 0 0 1-1.02.432 5.356 5.356 0 0 1-1.2.132Zm9.502-.648a3.344 3.344 0 0 1-.324.204 3.758 3.758 0 0 1-.468.216 3.946 3.946 0 0 1-.624.156 3.864 3.864 0 0 1-.78.072c-1.048 0-1.844-.284-2.388-.852-.544-.568-.816-1.364-.816-2.388 0-.504.072-.956.216-1.356.152-.4.36-.736.624-1.008.264-.28.576-.492.936-.636.36-.152.752-.228 1.176-.228a3 3 0 0 1 1.2.228c.352.152.64.376.864.672.232.296.388.664.468 1.104.088.432.088.936 0 1.512h-4.392c.04.672.24 1.176.6 1.512.36.328.896.492 1.608.492.48 0 .892-.068 1.236-.204a4.33 4.33 0 0 0 .864-.444v.948Zm-2.472-4.884c-.456 0-.848.14-1.176.42-.328.28-.536.704-.624 1.272h3.348c.032-.576-.1-1-.396-1.272-.296-.28-.68-.42-1.152-.42Zm6.963.24c-.448.04-.856.156-1.224.348-.36.184-.628.472-.804.864V400h-1.056v-6.228h.924l.108 1.356h.024c.176-.368.428-.688.756-.96.336-.28.76-.452 1.272-.516v1.176ZM381.03 400h-1.704l-2.136-6.228h1.14l1.896 5.664 1.884-5.664h1.056L381.03 400Zm3.655-7.14c-.216 0-.388-.064-.516-.192a.692.692 0 0 1-.192-.492.675.675 0 0 1 .708-.696c.208 0 .372.068.492.204.12.136.18.3.18.492s-.06.356-.18.492c-.12.128-.284.192-.492.192Zm.516.912V400h-1.056v-6.228h1.056Zm4.41 6.348a3.77 3.77 0 0 1-1.308-.216 2.861 2.861 0 0 1-.984-.636c-.272-.28-.48-.62-.624-1.02a4.024 4.024 0 0 1-.216-1.368c0-.504.072-.956.216-1.356.152-.4.364-.736.636-1.008a2.63 2.63 0 0 1 .996-.636 3.662 3.662 0 0 1 1.332-.228c.384 0 .736.044 1.056.132.32.08.584.2.792.36v.948a2.798 2.798 0 0 0-.864-.372 3.563 3.563 0 0 0-.972-.132c-.728 0-1.264.188-1.608.564-.336.376-.504.952-.504 1.728s.164 1.352.492 1.728c.328.376.848.564 1.56.564.376 0 .72-.044 1.032-.132.32-.096.608-.216.864-.36v.948a3.678 3.678 0 0 1-1.896.492Zm8.139-.648a3.344 3.344 0 0 1-.324.204 3.758 3.758 0 0 1-.468.216 3.946 3.946 0 0 1-.624.156 3.864 3.864 0 0 1-.78.072c-1.048 0-1.844-.284-2.388-.852-.544-.568-.816-1.364-.816-2.388 0-.504.072-.956.216-1.356.152-.4.36-.736.624-1.008.264-.28.576-.492.936-.636.36-.152.752-.228 1.176-.228a3 3 0 0 1 1.2.228c.352.152.64.376.864.672.232.296.388.664.468 1.104.088.432.088.936 0 1.512h-4.392c.04.672.24 1.176.6 1.512.36.328.896.492 1.608.492.48 0 .892-.068 1.236-.204a4.33 4.33 0 0 0 .864-.444v.948Zm-2.472-4.884c-.456 0-.848.14-1.176.42-.328.28-.536.704-.624 1.272h3.348c.032-.576-.1-1-.396-1.272-.296-.28-.68-.42-1.152-.42Zm-53 14.084V414h-1.056v-5.328h-.756v-.9h.756v-.156c0-.736.196-1.308.588-1.716.392-.408.928-.612 1.608-.612.296 0 .56.036.792.108v.96a1.406 1.406 0 0 0-.312-.084 2.484 2.484 0 0 0-.432-.036c-.368 0-.66.112-.876.336-.208.224-.312.572-.312 1.044v.156h1.8v.9h-1.8Zm5.359 5.448c-.424 0-.82-.072-1.188-.216a2.767 2.767 0 0 1-.96-.624 3.04 3.04 0 0 1-.624-1.02c-.152-.4-.228-.86-.228-1.38 0-.512.076-.968.228-1.368a2.89 2.89 0 0 1 .624-1.02c.272-.272.592-.48.96-.624a3.231 3.231 0 0 1 1.188-.216c.432 0 .832.072 1.2.216.368.144.684.352.948.624.272.272.484.612.636 1.02.16.4.24.856.24 1.368 0 .52-.08.98-.24 1.38-.152.4-.364.74-.636 1.02-.264.272-.58.48-.948.624a3.265 3.265 0 0 1-1.2.216Zm0-.948c.28 0 .536-.044.768-.132.24-.096.448-.236.624-.42.176-.192.312-.432.408-.72.096-.288.144-.628.144-1.02s-.048-.732-.144-1.02a1.855 1.855 0 0 0-.408-.708 1.569 1.569 0 0 0-.624-.42 1.99 1.99 0 0 0-.768-.144c-.28 0-.536.048-.768.144a1.586 1.586 0 0 0-.612.42c-.168.184-.3.42-.396.708a3.234 3.234 0 0 0-.144 1.02c0 .392.048.732.144 1.02.096.288.228.528.396.72.176.184.38.324.612.42.232.088.488.132.768.132Zm7.395-4.344c-.448.04-.856.156-1.224.348-.36.184-.628.472-.804.864V414h-1.056v-6.228h.924l.108 1.356h.024c.176-.368.428-.688.756-.96.336-.28.76-.452 1.272-.516v1.176Zm6.108 1.488h-.912V414H359.1v-8.604h1.128v3.9h.84l3.072-3.9h1.272l-3.396 4.296 3.528 4.308h-1.404l-3-3.684Zm9.195 2.568a2.233 2.233 0 0 1-.78.888c-.344.232-.796.348-1.356.348-.576 0-1.044-.16-1.404-.48-.352-.328-.528-.832-.528-1.512v-4.356h1.068v4.356c0 .208.028.38.084.516a.886.886 0 0 0 .612.48c.144.032.3.048.468.048.464 0 .836-.104 1.116-.312.28-.208.52-.492.72-.852v-4.236h1.056V414h-.936l-.096-1.116h-.024Zm8.705-2.004c0 .552-.076 1.032-.228 1.44a3.01 3.01 0 0 1-.612 1.008 2.566 2.566 0 0 1-.888.6 2.941 2.941 0 0 1-1.056.192c-.48 0-.9-.112-1.26-.336a2.46 2.46 0 0 1-.84-.96L374.12 414h-.996v-8.604h1.056l-.024 3.588c.208-.408.488-.732.84-.972s.788-.36 1.308-.36c.36 0 .704.068 1.032.204.336.128.628.328.876.6.256.264.456.6.6 1.008.152.4.228.872.228 1.416Zm-2.94 2.292c.552 0 .996-.188 1.332-.564.344-.384.516-.96.516-1.728 0-.752-.172-1.32-.516-1.704-.336-.392-.78-.588-1.332-.588-.272 0-.528.048-.768.144a1.71 1.71 0 0 0-.612.432c-.168.184-.304.42-.408.708a3.191 3.191 0 0 0-.144 1.008c0 .384.048.72.144 1.008.104.288.24.528.408.72.176.192.38.336.612.432.24.088.496.132.768.132Zm9.175.3a3.344 3.344 0 0 1-.324.204 3.758 3.758 0 0 1-.468.216 3.946 3.946 0 0 1-.624.156 3.864 3.864 0 0 1-.78.072c-1.048 0-1.844-.284-2.388-.852-.544-.568-.816-1.364-.816-2.388 0-.504.072-.956.216-1.356.152-.4.36-.736.624-1.008.264-.28.576-.492.936-.636.36-.152.752-.228 1.176-.228a3 3 0 0 1 1.2.228c.352.152.64.376.864.672.232.296.388.664.468 1.104.088.432.088.936 0 1.512h-4.392c.04.672.24 1.176.6 1.512.36.328.896.492 1.608.492.48 0 .892-.068 1.236-.204a4.33 4.33 0 0 0 .864-.444v.948Zm-2.472-4.884c-.456 0-.848.14-1.176.42-.328.28-.536.704-.624 1.272h3.348c.032-.576-.1-1-.396-1.272-.296-.28-.68-.42-1.152-.42Zm6.963.24c-.448.04-.856.156-1.224.348-.36.184-.628.472-.804.864V414h-1.056v-6.228h.924l.108 1.356h.024c.176-.368.428-.688.756-.96.336-.28.76-.452 1.272-.516v1.176Zm4.239-.24c-.48 0-.872.112-1.176.336a2.455 2.455 0 0 0-.72.84V414h-1.056v-6.228h.996l.036 1.116h.024c.168-.36.432-.656.792-.888.36-.232.816-.348 1.368-.348.616 0 1.104.164 1.464.492.368.32.552.816.552 1.488V414h-1.056v-4.26c0-.432-.108-.732-.324-.9-.216-.168-.516-.252-.9-.252Zm8.907 4.884a3.344 3.344 0 0 1-.324.204 3.758 3.758 0 0 1-.468.216 3.946 3.946 0 0 1-.624.156 3.864 3.864 0 0 1-.78.072c-1.048 0-1.844-.284-2.388-.852-.544-.568-.816-1.364-.816-2.388 0-.504.072-.956.216-1.356.152-.4.36-.736.624-1.008.264-.28.576-.492.936-.636.36-.152.752-.228 1.176-.228a3 3 0 0 1 1.2.228c.352.152.64.376.864.672.232.296.388.664.468 1.104.088.432.088.936 0 1.512h-4.392c.04.672.24 1.176.6 1.512.36.328.896.492 1.608.492.48 0 .892-.068 1.236-.204a4.33 4.33 0 0 0 .864-.444v.948Zm-2.472-4.884c-.456 0-.848.14-1.176.42-.328.28-.536.704-.624 1.272h3.348c.032-.576-.1-1-.396-1.272-.296-.28-.68-.42-1.152-.42Zm6.927 5.28a1.93 1.93 0 0 1-.492.18c-.2.048-.412.072-.636.072-.304 0-.564-.044-.78-.132a1.504 1.504 0 0 1-.516-.348 1.48 1.48 0 0 1-.3-.504 2.09 2.09 0 0 1-.084-.588v-3.876h-.744v-.9h.744v-1.308h1.056v1.308h1.812v.9h-1.812v3.744c0 .264.064.456.192.576.136.12.372.18.708.18.312 0 .596-.088.852-.264v.96Zm6.303-.396a3.344 3.344 0 0 1-.324.204 3.758 3.758 0 0 1-.468.216 3.946 3.946 0 0 1-.624.156 3.864 3.864 0 0 1-.78.072c-1.048 0-1.844-.284-2.388-.852-.544-.568-.816-1.364-.816-2.388 0-.504.072-.956.216-1.356.152-.4.36-.736.624-1.008.264-.28.576-.492.936-.636.36-.152.752-.228 1.176-.228a3 3 0 0 1 1.2.228c.352.152.64.376.864.672.232.296.388.664.468 1.104.088.432.088.936 0 1.512h-4.392c.04.672.24 1.176.6 1.512.36.328.896.492 1.608.492.48 0 .892-.068 1.236-.204a4.33 4.33 0 0 0 .864-.444v.948Zm-2.472-4.884c-.456 0-.848.14-1.176.42-.328.28-.536.704-.624 1.272h3.348c.032-.576-.1-1-.396-1.272-.296-.28-.68-.42-1.152-.42Zm5.871 5.532c-.328 0-.62-.028-.876-.084a4.113 4.113 0 0 1-.66-.18c-.184-.08-.34-.16-.468-.24a3.161 3.161 0 0 1-.3-.228v-.948c.08.08.188.168.324.264.136.088.3.172.492.252.192.08.408.148.648.204.248.048.524.072.828.072.448 0 .804-.072 1.068-.216.264-.144.396-.388.396-.732a.698.698 0 0 0-.132-.444.801.801 0 0 0-.336-.264 2.07 2.07 0 0 0-.504-.168c-.184-.04-.38-.08-.588-.12a22.265 22.265 0 0 1-.78-.18 2.73 2.73 0 0 1-.696-.3 1.633 1.633 0 0 1-.504-.516c-.128-.216-.192-.496-.192-.84 0-.56.216-1 .648-1.32.44-.32 1.052-.48 1.836-.48.44 0 .828.044 1.164.132.344.088.608.184.792.288v.948a2.824 2.824 0 0 0-.78-.336c-.304-.096-.684-.144-1.14-.144-.472 0-.836.064-1.092.192-.248.128-.372.36-.372.696 0 .168.036.304.108.408a.856.856 0 0 0 .288.24c.128.056.272.1.432.132.16.032.328.068.504.108.272.056.552.116.84.18.288.064.544.164.768.3.232.136.42.32.564.552.152.224.228.528.228.912 0 .36-.072.66-.216.9-.144.24-.336.432-.576.576-.232.136-.5.232-.804.288-.296.064-.6.096-.912.096ZM223.267 386.12c-.64 0-1.22-.1-1.74-.3-.52-.2-.968-.488-1.344-.864a3.955 3.955 0 0 1-.852-1.392c-.2-.552-.3-1.172-.3-1.86 0-.696.092-1.316.276-1.86a3.657 3.657 0 0 1 .816-1.38c.36-.384.8-.676 1.32-.876.528-.2 1.128-.3 1.8-.3.584 0 1.096.064 1.536.192.44.12.8.264 1.08.432v1.08a3.98 3.98 0 0 0-1.248-.516 5.865 5.865 0 0 0-1.38-.168c-1.016 0-1.768.284-2.256.852-.48.56-.72 1.408-.72 2.544 0 1.144.26 1.996.78 2.556.528.56 1.304.84 2.328.84.44 0 .868-.06 1.284-.18.424-.12.828-.324 1.212-.612v1.08c-.232.184-.572.352-1.02.504-.44.152-.964.228-1.572.228Zm6.673 0c-.424 0-.82-.072-1.188-.216a2.767 2.767 0 0 1-.96-.624 3.04 3.04 0 0 1-.624-1.02c-.152-.4-.228-.86-.228-1.38 0-.512.076-.968.228-1.368a2.89 2.89 0 0 1 .624-1.02c.272-.272.592-.48.96-.624a3.231 3.231 0 0 1 1.188-.216c.432 0 .832.072 1.2.216.368.144.684.352.948.624.272.272.484.612.636 1.02.16.4.24.856.24 1.368 0 .52-.08.98-.24 1.38-.152.4-.364.74-.636 1.02-.264.272-.58.48-.948.624a3.265 3.265 0 0 1-1.2.216Zm0-.948c.28 0 .536-.044.768-.132.24-.096.448-.236.624-.42.176-.192.312-.432.408-.72.096-.288.144-.628.144-1.02s-.048-.732-.144-1.02a1.855 1.855 0 0 0-.408-.708 1.569 1.569 0 0 0-.624-.42 1.99 1.99 0 0 0-.768-.144c-.28 0-.536.048-.768.144a1.586 1.586 0 0 0-.612.42c-.168.184-.3.42-.396.708a3.234 3.234 0 0 0-.144 1.02c0 .392.048.732.144 1.02.096.288.228.528.396.72.176.184.38.324.612.42.232.088.488.132.768.132Zm7.263-4.584c-.48 0-.872.112-1.176.336a2.455 2.455 0 0 0-.72.84V386h-1.056v-6.228h.996l.036 1.116h.024c.168-.36.432-.656.792-.888.36-.232.816-.348 1.368-.348.616 0 1.104.164 1.464.492.368.32.552.816.552 1.488V386h-1.056v-4.26c0-.432-.108-.732-.324-.9-.216-.168-.516-.252-.9-.252Zm6.998 5.28a1.93 1.93 0 0 1-.492.18c-.2.048-.412.072-.636.072-.304 0-.564-.044-.78-.132a1.504 1.504 0 0 1-.516-.348 1.48 1.48 0 0 1-.3-.504 2.09 2.09 0 0 1-.084-.588v-3.876h-.744v-.9h.744v-1.308h1.056v1.308h1.812v.9h-1.812v3.744c0 .264.064.456.192.576.136.12.372.18.708.18.312 0 .596-.088.852-.264v.96Zm5.053-1.056a3.648 3.648 0 0 1-.276.456 2.088 2.088 0 0 1-1.02.732c-.224.08-.488.12-.792.12-.56 0-1.012-.156-1.356-.468-.344-.32-.516-.776-.516-1.368 0-.68.236-1.18.708-1.5.48-.32 1.16-.48 2.04-.48h1.164v-.516c0-.432-.112-.74-.336-.924-.224-.184-.608-.276-1.152-.276-.384 0-.748.064-1.092.192-.344.12-.652.26-.924.42v-.948c.224-.136.524-.268.9-.396a3.75 3.75 0 0 1 1.26-.204c.784 0 1.38.164 1.788.492.408.32.612.82.612 1.5V385.244c.008.088.012.18.012.276l.024.276c.008.08.016.148.024.204h-.96a5.482 5.482 0 0 1-.072-.468 7.173 7.173 0 0 1-.024-.54l-.012-.18Zm-1.86.36c.328 0 .608-.068.84-.204.232-.136.42-.292.564-.468.144-.184.248-.36.312-.528.064-.176.096-.3.096-.372v-.456h-1.056c-.632 0-1.092.092-1.38.276-.28.176-.42.444-.42.804 0 .28.084.508.252.684.168.176.432.264.792.264Zm5.069-6.312c-.216 0-.388-.064-.516-.192a.692.692 0 0 1-.192-.492.675.675 0 0 1 .708-.696c.208 0 .372.068.492.204.12.136.18.3.18.492s-.06.356-.18.492c-.12.128-.284.192-.492.192Zm.516.912V386h-1.056v-6.228h1.056Zm4.673.816c-.48 0-.872.112-1.176.336a2.455 2.455 0 0 0-.72.84V386H254.7v-6.228h.996l.036 1.116h.024c.168-.36.432-.656.792-.888.36-.232.816-.348 1.368-.348.616 0 1.104.164 1.464.492.368.32.552.816.552 1.488V386h-1.056v-4.26c0-.432-.108-.732-.324-.9-.216-.168-.516-.252-.9-.252Zm8.906 4.884a3.344 3.344 0 0 1-.324.204 3.758 3.758 0 0 1-.468.216 3.946 3.946 0 0 1-.624.156 3.864 3.864 0 0 1-.78.072c-1.048 0-1.844-.284-2.388-.852-.544-.568-.816-1.364-.816-2.388 0-.504.072-.956.216-1.356.152-.4.36-.736.624-1.008.264-.28.576-.492.936-.636.36-.152.752-.228 1.176-.228a3 3 0 0 1 1.2.228c.352.152.64.376.864.672.232.296.388.664.468 1.104.088.432.088.936 0 1.512h-4.392c.04.672.24 1.176.6 1.512.36.328.896.492 1.608.492.48 0 .892-.068 1.236-.204a4.33 4.33 0 0 0 .864-.444v.948Zm-2.472-4.884c-.456 0-.848.14-1.176.42-.328.28-.536.704-.624 1.272h3.348c.032-.576-.1-1-.396-1.272-.296-.28-.68-.42-1.152-.42Zm6.964.24c-.448.04-.856.156-1.224.348-.36.184-.628.472-.804.864V386h-1.056v-6.228h.924l.108 1.356h.024c.176-.368.428-.688.756-.96.336-.28.76-.452 1.272-.516v1.176Zm-47.524 10.568h2.88c1.016 0 1.788.2 2.316.6.536.392.804 1.012.804 1.86 0 .752-.184 1.328-.552 1.728-.36.4-.836.664-1.428.792l2.34 3.624h-1.272l-2.244-3.492h-1.716V400h-1.128v-8.604Zm1.128 1.032v3.06h1.644c.304 0 .58-.028.828-.084.256-.056.472-.148.648-.276a1.23 1.23 0 0 0 .42-.504c.104-.216.156-.48.156-.792 0-.512-.168-.872-.504-1.08-.336-.216-.816-.324-1.44-.324h-1.752Zm11.324 7.044a3.344 3.344 0 0 1-.324.204 3.758 3.758 0 0 1-.468.216 3.946 3.946 0 0 1-.624.156 3.864 3.864 0 0 1-.78.072c-1.048 0-1.844-.284-2.388-.852-.544-.568-.816-1.364-.816-2.388 0-.504.072-.956.216-1.356.152-.4.36-.736.624-1.008.264-.28.576-.492.936-.636.36-.152.752-.228 1.176-.228a3 3 0 0 1 1.2.228c.352.152.64.376.864.672.232.296.388.664.468 1.104.088.432.088.936 0 1.512h-4.392c.04.672.24 1.176.6 1.512.36.328.896.492 1.608.492.48 0 .892-.068 1.236-.204a4.33 4.33 0 0 0 .864-.444v.948Zm-2.472-4.884c-.456 0-.848.14-1.176.42-.328.28-.536.704-.624 1.272h3.348c.032-.576-.1-1-.396-1.272-.296-.28-.68-.42-1.152-.42Zm9.231 4.884c0 .4-.06.764-.18 1.092a1.97 1.97 0 0 1-.552.852c-.248.232-.572.412-.972.54-.392.128-.868.192-1.428.192a5.95 5.95 0 0 1-.804-.048 3.698 3.698 0 0 1-.612-.132 2.214 2.214 0 0 1-.432-.168 2.008 2.008 0 0 1-.3-.168v-.948c.128.072.26.136.396.192a3.534 3.534 0 0 0 1.032.276c.216.032.46.048.732.048.768 0 1.304-.144 1.608-.432.304-.288.456-.716.456-1.284v-.96a2.265 2.265 0 0 1-.78.888c-.328.224-.736.336-1.224.336-.368 0-.72-.064-1.056-.192a2.613 2.613 0 0 1-.876-.564 2.912 2.912 0 0 1-.6-.948c-.144-.384-.216-.828-.216-1.332 0-.512.072-.956.216-1.332.152-.384.352-.704.6-.96.256-.256.552-.448.888-.576a2.974 2.974 0 0 1 1.068-.192c.496 0 .912.112 1.248.336.344.224.612.528.804.912l.012-.132c0-.144.008-.316.024-.516.016-.208.032-.368.048-.48h.96a7.943 7.943 0 0 0-.048.48c-.008.208-.012.38-.012.516v4.704Zm-2.868-.672c.264 0 .504-.04.72-.12.224-.088.416-.22.576-.396.168-.176.296-.392.384-.648a2.7 2.7 0 0 0 .144-.924c0-.712-.176-1.244-.528-1.596-.344-.352-.78-.528-1.308-.528a2.08 2.08 0 0 0-.744.132c-.224.088-.42.22-.588.396-.16.176-.288.4-.384.672a2.7 2.7 0 0 0-.144.924c0 .352.048.66.144.924.096.256.228.472.396.648.168.168.364.296.588.384.232.088.48.132.744.132Zm5.123-5.94c-.216 0-.388-.064-.516-.192a.692.692 0 0 1-.192-.492.675.675 0 0 1 .708-.696c.208 0 .372.068.492.204.12.136.18.3.18.492s-.06.356-.18.492c-.12.128-.284.192-.492.192Zm.516.912V400h-1.056v-6.228h1.056Zm3.713 6.348c-.328 0-.62-.028-.876-.084a4.113 4.113 0 0 1-.66-.18c-.184-.08-.34-.16-.468-.24a3.161 3.161 0 0 1-.3-.228v-.948c.08.08.188.168.324.264.136.088.3.172.492.252.192.08.408.148.648.204.248.048.524.072.828.072.448 0 .804-.072 1.068-.216.264-.144.396-.388.396-.732a.698.698 0 0 0-.132-.444.801.801 0 0 0-.336-.264 2.07 2.07 0 0 0-.504-.168c-.184-.04-.38-.08-.588-.12a22.265 22.265 0 0 1-.78-.18 2.73 2.73 0 0 1-.696-.3 1.633 1.633 0 0 1-.504-.516c-.128-.216-.192-.496-.192-.84 0-.56.216-1 .648-1.32.44-.32 1.052-.48 1.836-.48.44 0 .828.044 1.164.132.344.088.608.184.792.288v.948a2.824 2.824 0 0 0-.78-.336c-.304-.096-.684-.144-1.14-.144-.472 0-.836.064-1.092.192-.248.128-.372.36-.372.696 0 .168.036.304.108.408a.856.856 0 0 0 .288.24c.128.056.272.1.432.132.16.032.328.068.504.108.272.056.552.116.84.18.288.064.544.164.768.3.232.136.42.32.564.552.152.224.228.528.228.912 0 .36-.072.66-.216.9-.144.24-.336.432-.576.576-.232.136-.5.232-.804.288-.296.064-.6.096-.912.096Zm6.857-.252a1.93 1.93 0 0 1-.492.18c-.2.048-.412.072-.636.072-.304 0-.564-.044-.78-.132a1.504 1.504 0 0 1-.516-.348 1.48 1.48 0 0 1-.3-.504 2.09 2.09 0 0 1-.084-.588v-3.876h-.744v-.9h.744v-1.308h1.056v1.308h1.812v.9h-1.812v3.744c0 .264.064.456.192.576.136.12.372.18.708.18.312 0 .596-.088.852-.264v.96Zm4.489-5.04c-.448.04-.856.156-1.224.348-.36.184-.628.472-.804.864V400h-1.056v-6.228h.924l.108 1.356h.024c.176-.368.428-.688.756-.96.336-.28.76-.452 1.272-.516v1.176Zm4.464 5.1a7.132 7.132 0 0 1-.456.984c-.16.288-.34.532-.54.732-.2.2-.424.348-.672.444a2.187 2.187 0 0 1-.852.156c-.16 0-.308-.012-.444-.036a1.336 1.336 0 0 1-.372-.096v-1.02c.088.064.2.112.336.144.136.04.284.06.444.06.296 0 .54-.072.732-.216.192-.136.376-.356.552-.66l-2.532-6.648h1.164l1.98 5.256 1.968-5.256h1.02l-2.328 6.156Z"/><path fill="#5282FF" d="M229 355c0-8.837 7.163-16 16-16s16 7.163 16 16-7.163 16-16 16-16-7.163-16-16Z"/><path fill="#fff" d="M252 356v2h-14v-2h-1v5a1 1 0 0 0 1 1h14a1 1 0 0 0 1-1v-5h-1Zm-5-8h-4v4h4v-4Zm-3 5h-4v4h4v-4Zm2 4h4v-4h-4v4Z"/><path fill="#18123D" d="M541.836 95.12c-.392 0-.744-.028-1.056-.084a5.07 5.07 0 0 1-.828-.192 4.264 4.264 0 0 1-.6-.276 2.38 2.38 0 0 1-.384-.3v-1.08c.12.104.276.212.468.324.192.104.412.2.66.288.256.088.528.16.816.216.296.056.604.084.924.084.624 0 1.12-.116 1.488-.348.368-.24.552-.6.552-1.08 0-.24-.044-.436-.132-.588a1.07 1.07 0 0 0-.384-.396 2.236 2.236 0 0 0-.636-.276c-.248-.08-.54-.164-.876-.252a16.032 16.032 0 0 1-1.008-.3 3.714 3.714 0 0 1-.912-.444 2.247 2.247 0 0 1-.648-.696c-.16-.28-.24-.636-.24-1.068 0-.744.26-1.324.78-1.74.52-.416 1.316-.624 2.388-.624.312 0 .588.02.828.06.248.032.464.076.648.132.192.048.356.104.492.168.144.064.272.124.384.18v1.08a3.368 3.368 0 0 0-1.092-.456 5.19 5.19 0 0 0-1.26-.144c-.384 0-.708.032-.972.096-.256.056-.464.14-.624.252a.995.995 0 0 0-.348.408c-.072.16-.108.34-.108.54 0 .24.052.44.156.6.112.16.256.296.432.408.184.104.392.192.624.264.232.072.476.136.732.192.336.08.68.172 1.032.276.352.104.668.248.948.432.28.184.508.424.684.72.184.288.276.664.276 1.128 0 .456-.092.844-.276 1.164a2.247 2.247 0 0 1-.708.768 3 3 0 0 1-1.02.432 5.356 5.356 0 0 1-1.2.132Zm9.502-.648a3.344 3.344 0 0 1-.324.204 3.758 3.758 0 0 1-.468.216 3.946 3.946 0 0 1-.624.156 3.864 3.864 0 0 1-.78.072c-1.048 0-1.844-.284-2.388-.852-.544-.568-.816-1.364-.816-2.388 0-.504.072-.956.216-1.356.152-.4.36-.736.624-1.008.264-.28.576-.492.936-.636.36-.152.752-.228 1.176-.228a3 3 0 0 1 1.2.228c.352.152.64.376.864.672.232.296.388.664.468 1.104.088.432.088.936 0 1.512h-4.392c.04.672.24 1.176.6 1.512.36.328.896.492 1.608.492.48 0 .892-.068 1.236-.204a4.33 4.33 0 0 0 .864-.444v.948Zm-2.472-4.884c-.456 0-.848.14-1.176.42-.328.28-.536.704-.624 1.272h3.348c.032-.576-.1-1-.396-1.272-.296-.28-.68-.42-1.152-.42Zm6.567 5.532a3.77 3.77 0 0 1-1.308-.216 2.861 2.861 0 0 1-.984-.636c-.272-.28-.48-.62-.624-1.02a4.024 4.024 0 0 1-.216-1.368c0-.504.072-.956.216-1.356.152-.4.364-.736.636-1.008a2.63 2.63 0 0 1 .996-.636 3.662 3.662 0 0 1 1.332-.228c.384 0 .736.044 1.056.132.32.08.584.2.792.36v.948a2.798 2.798 0 0 0-.864-.372 3.563 3.563 0 0 0-.972-.132c-.728 0-1.264.188-1.608.564-.336.376-.504.952-.504 1.728s.164 1.352.492 1.728c.328.376.848.564 1.56.564.376 0 .72-.044 1.032-.132.32-.096.608-.216.864-.36v.948a3.678 3.678 0 0 1-1.896.492Zm7.179-1.236a2.233 2.233 0 0 1-.78.888c-.344.232-.796.348-1.356.348-.576 0-1.044-.16-1.404-.48-.352-.328-.528-.832-.528-1.512v-4.356h1.068v4.356c0 .208.028.38.084.516a.886.886 0 0 0 .612.48c.144.032.3.048.468.048.464 0 .836-.104 1.116-.312.28-.208.52-.492.72-.852v-4.236h1.056V95h-.936l-.096-1.116h-.024Zm5.873-4.056c-.448.04-.856.156-1.224.348-.36.184-.628.472-.804.864V95h-1.056v-6.228h.924l.108 1.356h.024c.176-.368.428-.688.756-.96.336-.28.76-.452 1.272-.516v1.176Zm1.827-1.968c-.216 0-.388-.064-.516-.192a.692.692 0 0 1-.192-.492.675.675 0 0 1 .708-.696c.208 0 .372.068.492.204.12.136.18.3.18.492s-.06.356-.18.492c-.12.128-.284.192-.492.192Zm.516.912V95h-1.056v-6.228h1.056Zm4.77 6.096a1.93 1.93 0 0 1-.492.18c-.2.048-.412.072-.636.072-.304 0-.564-.044-.78-.132a1.504 1.504 0 0 1-.516-.348 1.48 1.48 0 0 1-.3-.504 2.09 2.09 0 0 1-.084-.588v-3.876h-.744v-.9h.744v-1.308h1.056v1.308h1.812v.9h-1.812v3.744c0 .264.064.456.192.576.136.12.372.18.708.18.312 0 .596-.088.852-.264v.96Zm4.523.06a7.132 7.132 0 0 1-.456.984c-.16.288-.34.532-.54.732-.2.2-.424.348-.672.444a2.187 2.187 0 0 1-.852.156c-.16 0-.308-.012-.444-.036a1.336 1.336 0 0 1-.372-.096v-1.02c.088.064.2.112.336.144.136.04.284.06.444.06.296 0 .54-.072.732-.216.192-.136.376-.356.552-.66l-2.532-6.648h1.164l1.98 5.256 1.968-5.256h1.02l-2.328 6.156Zm-28.298 10.7c0 .504-.076.968-.228 1.392a2.893 2.893 0 0 1-.672 1.104 3.13 3.13 0 0 1-1.152.732c-.456.176-.996.264-1.62.264a4.332 4.332 0 0 1-1.668-.312 3.81 3.81 0 0 1-1.296-.9 4.05 4.05 0 0 1-.84-1.392c-.2-.544-.3-1.148-.3-1.812 0-.664.096-1.268.288-1.812a3.818 3.818 0 0 1 .84-1.392c.376-.384.84-.68 1.392-.888.552-.216 1.188-.324 1.908-.324.368 0 .696.024.984.072.296.048.556.108.78.18.224.072.416.152.576.24.168.088.312.172.432.252v1.08a8.262 8.262 0 0 0-.588-.312 3.92 3.92 0 0 0-.648-.264 4.687 4.687 0 0 0-.732-.168 5.457 5.457 0 0 0-.84-.06c-.544 0-1.016.076-1.416.228-.392.152-.72.376-.984.672a2.8 2.8 0 0 0-.576 1.068 4.858 4.858 0 0 0-.192 1.428c0 1.072.252 1.908.756 2.508.512.592 1.22.888 2.124.888.448 0 .832-.056 1.152-.168.32-.12.58-.28.78-.48.2-.208.344-.452.432-.732.096-.288.144-.6.144-.936v-.24h-2.772v-1.02h3.936v1.104Zm4.539-1.8c-.448.04-.856.156-1.224.348-.36.184-.628.472-.804.864V109h-1.056v-6.228h.924l.108 1.356h.024c.176-.368.428-.688.756-.96.336-.28.76-.452 1.272-.516v1.176Zm3.667 5.292c-.424 0-.82-.072-1.188-.216a2.767 2.767 0 0 1-.96-.624 3.04 3.04 0 0 1-.624-1.02c-.152-.4-.228-.86-.228-1.38 0-.512.076-.968.228-1.368a2.89 2.89 0 0 1 .624-1.02c.272-.272.592-.48.96-.624a3.231 3.231 0 0 1 1.188-.216c.432 0 .832.072 1.2.216.368.144.684.352.948.624.272.272.484.612.636 1.02.16.4.24.856.24 1.368 0 .52-.08.98-.24 1.38-.152.4-.364.74-.636 1.02-.264.272-.58.48-.948.624a3.265 3.265 0 0 1-1.2.216Zm0-.948c.28 0 .536-.044.768-.132.24-.096.448-.236.624-.42.176-.192.312-.432.408-.72.096-.288.144-.628.144-1.02s-.048-.732-.144-1.02a1.855 1.855 0 0 0-.408-.708 1.569 1.569 0 0 0-.624-.42 1.99 1.99 0 0 0-.768-.144c-.28 0-.536.048-.768.144a1.586 1.586 0 0 0-.612.42c-.168.184-.3.42-.396.708a3.234 3.234 0 0 0-.144 1.02c0 .392.048.732.144 1.02.096.288.228.528.396.72.176.184.38.324.612.42.232.088.488.132.768.132Zm8.308-.288a2.233 2.233 0 0 1-.78.888c-.344.232-.796.348-1.356.348-.576 0-1.044-.16-1.404-.48-.352-.328-.528-.832-.528-1.512v-4.356h1.068v4.356c0 .208.028.38.084.516a.886.886 0 0 0 .612.48c.144.032.3.048.468.048.464 0 .836-.104 1.116-.312.28-.208.52-.492.72-.852v-4.236h1.056V109h-.936l-.096-1.116h-.024Zm5.921 1.236c-.48 0-.896-.112-1.248-.336a2.444 2.444 0 0 1-.828-.924v3.264h-1.056v-8.352h.924l.108 1.212c.208-.408.488-.732.84-.972s.788-.36 1.308-.36c.36 0 .704.068 1.032.204.336.128.628.328.876.6.256.264.456.6.6 1.008.152.4.228.872.228 1.416 0 .552-.076 1.032-.228 1.44a3.01 3.01 0 0 1-.612 1.008 2.566 2.566 0 0 1-.888.6 2.941 2.941 0 0 1-1.056.192Zm-.156-.948c.552 0 .996-.188 1.332-.564.344-.384.516-.96.516-1.728 0-.752-.172-1.32-.516-1.704-.336-.392-.78-.588-1.332-.588-.272 0-.528.048-.768.144a1.71 1.71 0 0 0-.612.432c-.168.184-.304.42-.408.708a3.191 3.191 0 0 0-.144 1.008c0 .384.048.72.144 1.008.104.288.24.528.408.72.176.192.38.336.612.432.24.088.496.132.768.132Z"/><path fill="#5282FF" fill-rule="evenodd" d="M553.003 74v-6.859h1.904c2.346 0 3.435-.386 4.457-1.141h1.272c1.022.797 2.055 1.141 4.457 1.141h1.904V74c.078 3.125-1.271 6.288-6.997 8-5.726-1.712-7.075-4.875-6.997-8Z" clip-rule="evenodd"/><path stroke="#fff" stroke-linecap="round" stroke-linejoin="round" stroke-width="2" d="m557 73 2.5 2.5L564 71"/><circle cx="651" cy="130" r="16" fill="#5282FF"/><path fill="#fff" fill-rule="evenodd" d="M652.747 136.177c-.799 1.597-1.532 1.823-1.747 1.823-.215 0-.948-.226-1.747-1.823-.639-1.278-1.11-3.083-1.226-5.177h5.946c-.116 2.094-.587 3.899-1.226 5.177Zm1.226-7.177h-5.946c.116-2.094.587-3.899 1.226-5.177.799-1.597 1.532-1.823 1.747-1.823.215 0 .948.226 1.747 1.823.639 1.278 1.11 3.083 1.226 5.177Zm2.002 2c-.121 2.434-.678 4.611-1.512 6.214a8.007 8.007 0 0 0 4.475-6.214h-2.963Zm2.963-2h-2.963c-.121-2.434-.678-4.611-1.512-6.214a8.007 8.007 0 0 1 4.475 6.214Zm-12.913 0c.121-2.434.678-4.611 1.512-6.214a8.007 8.007 0 0 0-4.475 6.214h2.963Zm-4.976 2c.502 5.053 4.766 9 9.951 9 5.523 0 10-4.477 10-10s-4.477-10-10-10c-5.185 0-9.449 3.947-9.951 9H641v2h.049Zm2.013 0h2.963c.121 2.434.678 4.611 1.512 6.214a8.007 8.007 0 0 1-4.475-6.214Z" clip-rule="evenodd"/><path fill="#4E496B" d="m358 355-10-5.773v11.547L358 355Zm-90 1h81v-2h-81v2ZM403 130l10 5.774v-11.548L403 130Zm9 1h81v-2h-81v2ZM288 130l10 5.774v-11.548L288 130Zm9 1h58v-2h-58v2ZM245 332l5.773-10h-11.547L245 332Zm-1-114v105h2V218h-2ZM539 130l10 5.774v-11.548L539 130Zm9 1h80v-2h-80v2ZM651 153l-5.774 10h11.548L651 153Zm-1 9v40h2v-40h-2ZM378 202l5.773-10h-11.547L378 202Zm0-21h1-1Zm-90-4h85.011v-2H288v2Zm89 4v12h2v-12h-2Zm-3.989-4a3.99 3.99 0 0 1 3.989 4h2c0-3.311-2.673-6-5.989-6v2ZM117 332l-5.773-10h11.547L117 332Zm4.993-179v-1 1ZM202 154h-80.007v-2H202v2Zm-84 4v165h-2V158h2Zm3.993-4a3.994 3.994 0 0 0-3.993 4h-2c0-3.312 2.678-6 5.993-6v2Z"/></g><defs><clipPath id="a"><path fill="#fff" d="M0 0h701v445H0z"/></clipPath><filter id="b" width="602.336" height="447.04" x="7.832" y="-1.168" color-interpolation-filters="sRGB" filterUnits="userSpaceOnUse"><feFlood flood-opacity="0" result="BackgroundImageFix"/><feColorMatrix in="SourceAlpha" result="hardAlpha" values="0 0 0 0 0 0 0 0 0 0 0 0 0 0 0 0 0 0 127 0"/><feOffset/><feGaussianBlur stdDeviation="3.584"/><feColorMatrix values="0 0 0 0 0.592157 0 0 0 0 0.74902 0 0 0 0 0.905882 0 0 0 0.4 0"/><feBlend in2="BackgroundImageFix" result="effect1_dropShadow_1_8"/><feBlend in="SourceGraphic" in2="effect1_dropShadow_1_8" result="shape"/></filter></defs></svg>