<svg width="505" height="150" viewBox="0 0 505 150" fill="none" xmlns="http://www.w3.org/2000/svg">
<rect width="505" height="150" rx="10" fill="white"/>
<path d="M455 115C477.091 115 495 97.0914 495 75C495 52.9086 477.091 35 455 35C432.909 35 415 52.9086 415 75C415 97.0914 432.909 115 455 115Z" fill="#D1D0D8"/>
<path d="M436.345 56.396H438.025L441.109 65H439.909L439.021 62.54H435.217L434.341 65H433.285L436.345 56.396ZM438.661 61.52L437.125 57.236L435.589 61.52H438.661ZM443.274 65H442.218V58.772H443.142L443.25 59.888H443.274C443.442 59.536 443.694 59.244 444.03 59.012C444.366 58.772 444.806 58.652 445.35 58.652C445.83 58.652 446.222 58.768 446.526 59C446.838 59.224 447.046 59.564 447.15 60.02C447.326 59.596 447.594 59.264 447.954 59.024C448.322 58.776 448.766 58.652 449.286 58.652C449.862 58.652 450.318 58.816 450.654 59.144C450.99 59.464 451.158 59.96 451.158 60.632V65H450.09V60.764C450.09 60.356 449.99 60.06 449.79 59.876C449.59 59.684 449.318 59.588 448.974 59.588C448.742 59.588 448.538 59.624 448.362 59.696C448.186 59.76 448.03 59.852 447.894 59.972C447.758 60.092 447.634 60.232 447.522 60.392C447.41 60.552 447.306 60.72 447.21 60.896V65H446.154V60.644C446.154 60.244 446.054 59.968 445.854 59.816C445.654 59.664 445.382 59.588 445.038 59.588C444.814 59.588 444.614 59.616 444.438 59.672C444.262 59.728 444.102 59.808 443.958 59.912C443.822 60.016 443.698 60.144 443.586 60.296C443.474 60.44 443.37 60.6 443.274 60.776V65ZM455.367 65.12C454.943 65.12 454.547 65.048 454.179 64.904C453.811 64.76 453.491 64.552 453.219 64.28C452.955 64 452.747 63.66 452.595 63.26C452.443 62.86 452.367 62.4 452.367 61.88C452.367 61.368 452.443 60.912 452.595 60.512C452.747 60.104 452.955 59.764 453.219 59.492C453.491 59.22 453.811 59.012 454.179 58.868C454.547 58.724 454.943 58.652 455.367 58.652C455.799 58.652 456.199 58.724 456.567 58.868C456.935 59.012 457.251 59.22 457.515 59.492C457.787 59.764 457.999 60.104 458.151 60.512C458.311 60.912 458.391 61.368 458.391 61.88C458.391 62.4 458.311 62.86 458.151 63.26C457.999 63.66 457.787 64 457.515 64.28C457.251 64.552 456.935 64.76 456.567 64.904C456.199 65.048 455.799 65.12 455.367 65.12ZM455.367 64.172C455.647 64.172 455.903 64.128 456.135 64.04C456.375 63.944 456.583 63.804 456.759 63.62C456.935 63.428 457.071 63.188 457.167 62.9C457.263 62.612 457.311 62.272 457.311 61.88C457.311 61.488 457.263 61.148 457.167 60.86C457.071 60.572 456.935 60.336 456.759 60.152C456.583 59.96 456.375 59.82 456.135 59.732C455.903 59.636 455.647 59.588 455.367 59.588C455.087 59.588 454.831 59.636 454.599 59.732C454.367 59.82 454.163 59.96 453.987 60.152C453.819 60.336 453.687 60.572 453.591 60.86C453.495 61.148 453.447 61.488 453.447 61.88C453.447 62.272 453.495 62.612 453.591 62.9C453.687 63.188 453.819 63.428 453.987 63.62C454.163 63.804 454.367 63.944 454.599 64.04C454.831 64.128 455.087 64.172 455.367 64.172ZM463.674 63.884C463.506 64.236 463.246 64.532 462.894 64.772C462.55 65.004 462.098 65.12 461.538 65.12C460.962 65.12 460.494 64.96 460.134 64.64C459.782 64.312 459.606 63.808 459.606 63.128V58.772H460.674V63.128C460.674 63.336 460.702 63.508 460.758 63.644C460.822 63.772 460.906 63.876 461.01 63.956C461.114 64.036 461.234 64.092 461.37 64.124C461.514 64.156 461.67 64.172 461.838 64.172C462.302 64.172 462.674 64.068 462.954 63.86C463.234 63.652 463.474 63.368 463.674 63.008V58.772H464.73V65H463.794L463.698 63.884H463.674ZM469.416 59.588C468.936 59.588 468.544 59.7 468.24 59.924C467.944 60.14 467.704 60.42 467.52 60.764V65H466.464V58.772H467.46L467.496 59.888H467.52C467.688 59.528 467.952 59.232 468.312 59C468.672 58.768 469.128 58.652 469.68 58.652C470.296 58.652 470.784 58.816 471.144 59.144C471.512 59.464 471.696 59.96 471.696 60.632V65H470.64V60.74C470.64 60.308 470.532 60.008 470.316 59.84C470.1 59.672 469.8 59.588 469.416 59.588ZM476.414 64.868C476.286 64.94 476.122 65 475.922 65.048C475.722 65.096 475.51 65.12 475.286 65.12C474.982 65.12 474.722 65.076 474.506 64.988C474.298 64.9 474.126 64.784 473.99 64.64C473.854 64.488 473.754 64.32 473.69 64.136C473.634 63.944 473.606 63.748 473.606 63.548V59.672H472.862V58.772H473.606V57.464H474.662V58.772H476.474V59.672H474.662V63.416C474.662 63.68 474.726 63.872 474.854 63.992C474.99 64.112 475.226 64.172 475.562 64.172C475.874 64.172 476.158 64.084 476.414 63.908V64.868ZM423.539 79H421.919L420.599 74.188L419.243 79H417.671L416.255 72.772H417.371L418.559 78.208L420.071 72.772H421.259L422.735 78.148L423.911 72.772H424.955L423.539 79ZM426.72 71.86C426.504 71.86 426.332 71.796 426.204 71.668C426.076 71.532 426.012 71.368 426.012 71.176C426.012 70.984 426.076 70.82 426.204 70.684C426.332 70.548 426.504 70.48 426.72 70.48C426.928 70.48 427.092 70.548 427.212 70.684C427.332 70.82 427.392 70.984 427.392 71.176C427.392 71.368 427.332 71.532 427.212 71.668C427.092 71.796 426.928 71.86 426.72 71.86ZM427.236 72.772V79H426.18V72.772H427.236ZM432.006 78.868C431.878 78.94 431.714 79 431.514 79.048C431.314 79.096 431.102 79.12 430.878 79.12C430.574 79.12 430.314 79.076 430.098 78.988C429.89 78.9 429.718 78.784 429.582 78.64C429.446 78.488 429.346 78.32 429.282 78.136C429.226 77.944 429.198 77.748 429.198 77.548V73.672H428.454V72.772H429.198V71.464H430.254V72.772H432.066V73.672H430.254V77.416C430.254 77.68 430.318 77.872 430.446 77.992C430.582 78.112 430.818 78.172 431.154 78.172C431.466 78.172 431.75 78.084 432.006 77.908V78.868ZM436.363 73.588C435.883 73.588 435.491 73.7 435.187 73.924C434.891 74.14 434.651 74.42 434.467 74.764V79H433.411V70.396H434.467V72.772L434.443 73.888H434.467C434.635 73.536 434.899 73.244 435.259 73.012C435.619 72.772 436.075 72.652 436.627 72.652C437.243 72.652 437.731 72.816 438.091 73.144C438.459 73.464 438.643 73.96 438.643 74.632V79H437.587V74.74C437.587 74.308 437.479 74.008 437.263 73.84C437.047 73.672 436.747 73.588 436.363 73.588ZM444.777 77.776C444.585 78.184 444.317 78.512 443.973 78.76C443.629 79 443.193 79.12 442.665 79.12C442.289 79.12 441.933 79.056 441.597 78.928C441.261 78.792 440.965 78.592 440.709 78.328C440.453 78.056 440.249 77.72 440.097 77.32C439.945 76.912 439.869 76.432 439.869 75.88C439.869 75.336 439.945 74.864 440.097 74.464C440.249 74.056 440.453 73.72 440.709 73.456C440.965 73.184 441.261 72.984 441.597 72.856C441.941 72.72 442.301 72.652 442.677 72.652C443.149 72.652 443.557 72.752 443.901 72.952C444.245 73.144 444.521 73.42 444.729 73.78V70.396H445.785V79H444.861L444.777 77.776ZM442.821 78.172C443.093 78.172 443.345 78.128 443.577 78.04C443.809 77.944 444.009 77.8 444.177 77.608C444.353 77.416 444.489 77.176 444.585 76.888C444.689 76.6 444.741 76.264 444.741 75.88C444.741 75.496 444.689 75.16 444.585 74.872C444.489 74.584 444.353 74.344 444.177 74.152C444.009 73.96 443.809 73.82 443.577 73.732C443.345 73.636 443.093 73.588 442.821 73.588C442.269 73.588 441.817 73.784 441.465 74.176C441.121 74.56 440.949 75.128 440.949 75.88C440.949 76.64 441.125 77.212 441.477 77.596C441.829 77.98 442.277 78.172 442.821 78.172ZM450.593 73.828C450.145 73.868 449.737 73.984 449.369 74.176C449.009 74.36 448.741 74.648 448.565 75.04V79H447.509V72.772H448.433L448.541 74.128H448.565C448.741 73.76 448.993 73.44 449.321 73.168C449.657 72.888 450.081 72.716 450.593 72.652V73.828ZM455.41 77.812C455.338 77.956 455.246 78.108 455.134 78.268C455.022 78.42 454.882 78.56 454.714 78.688C454.546 78.816 454.346 78.92 454.114 79C453.89 79.08 453.626 79.12 453.322 79.12C452.762 79.12 452.31 78.964 451.966 78.652C451.622 78.332 451.45 77.876 451.45 77.284C451.45 76.604 451.686 76.104 452.158 75.784C452.638 75.464 453.318 75.304 454.198 75.304H455.362V74.788C455.362 74.356 455.25 74.048 455.026 73.864C454.802 73.68 454.418 73.588 453.874 73.588C453.49 73.588 453.126 73.652 452.782 73.78C452.438 73.9 452.13 74.04 451.858 74.2V73.252C452.082 73.116 452.382 72.984 452.758 72.856C453.142 72.72 453.562 72.652 454.018 72.652C454.802 72.652 455.398 72.816 455.806 73.144C456.214 73.464 456.418 73.964 456.418 74.644V77.992C456.418 78.064 456.418 78.148 456.418 78.244C456.426 78.332 456.43 78.424 456.43 78.52C456.438 78.616 456.446 78.708 456.454 78.796C456.462 78.876 456.47 78.944 456.478 79H455.518C455.494 78.888 455.47 78.732 455.446 78.532C455.43 78.324 455.422 78.144 455.422 77.992L455.41 77.812ZM453.55 78.172C453.878 78.172 454.158 78.104 454.39 77.968C454.622 77.832 454.81 77.676 454.954 77.5C455.098 77.316 455.202 77.14 455.266 76.972C455.33 76.796 455.362 76.672 455.362 76.6V76.144H454.306C453.674 76.144 453.214 76.236 452.926 76.42C452.646 76.596 452.506 76.864 452.506 77.224C452.506 77.504 452.59 77.732 452.758 77.908C452.926 78.084 453.19 78.172 453.55 78.172ZM464.859 79H463.239L461.919 74.188L460.563 79H458.991L457.575 72.772H458.691L459.879 78.208L461.391 72.772H462.579L464.055 78.148L465.231 72.772H466.275L464.859 79ZM470.453 73.588C469.973 73.588 469.581 73.7 469.277 73.924C468.981 74.14 468.741 74.42 468.557 74.764V79H467.501V72.772H468.497L468.533 73.888H468.557C468.725 73.528 468.989 73.232 469.349 73C469.709 72.768 470.165 72.652 470.717 72.652C471.333 72.652 471.821 72.816 472.181 73.144C472.549 73.464 472.733 73.96 472.733 74.632V79H471.677V74.74C471.677 74.308 471.569 74.008 471.353 73.84C471.137 73.672 470.837 73.588 470.453 73.588ZM480.172 79.12C479.692 79.12 479.276 79.008 478.924 78.784C478.58 78.56 478.304 78.252 478.096 77.86V81.124H477.04V72.772H477.964L478.072 73.984C478.28 73.576 478.56 73.252 478.912 73.012C479.264 72.772 479.7 72.652 480.22 72.652C480.58 72.652 480.924 72.72 481.252 72.856C481.588 72.984 481.88 73.184 482.128 73.456C482.384 73.72 482.584 74.056 482.728 74.464C482.88 74.864 482.956 75.336 482.956 75.88C482.956 76.432 482.88 76.912 482.728 77.32C482.576 77.72 482.372 78.056 482.116 78.328C481.86 78.592 481.564 78.792 481.228 78.928C480.892 79.056 480.54 79.12 480.172 79.12ZM480.016 78.172C480.568 78.172 481.012 77.984 481.348 77.608C481.692 77.224 481.864 76.648 481.864 75.88C481.864 75.128 481.692 74.56 481.348 74.176C481.012 73.784 480.568 73.588 480.016 73.588C479.744 73.588 479.488 73.636 479.248 73.732C479.016 73.828 478.812 73.972 478.636 74.164C478.468 74.348 478.332 74.584 478.228 74.872C478.132 75.16 478.084 75.496 478.084 75.88C478.084 76.264 478.132 76.6 478.228 76.888C478.332 77.176 478.468 77.416 478.636 77.608C478.812 77.8 479.016 77.944 479.248 78.04C479.488 78.128 479.744 78.172 480.016 78.172ZM489.191 78.472C489.103 78.536 488.995 78.604 488.867 78.676C488.739 78.748 488.583 78.82 488.399 78.892C488.215 78.956 488.007 79.008 487.775 79.048C487.543 79.096 487.283 79.12 486.995 79.12C485.947 79.12 485.151 78.836 484.607 78.268C484.063 77.7 483.791 76.904 483.791 75.88C483.791 75.376 483.863 74.924 484.007 74.524C484.159 74.124 484.367 73.788 484.631 73.516C484.895 73.236 485.207 73.024 485.567 72.88C485.927 72.728 486.319 72.652 486.743 72.652C487.191 72.652 487.591 72.728 487.943 72.88C488.295 73.032 488.583 73.256 488.807 73.552C489.039 73.848 489.195 74.216 489.275 74.656C489.363 75.088 489.363 75.592 489.275 76.168H484.883C484.923 76.84 485.123 77.344 485.483 77.68C485.843 78.008 486.379 78.172 487.091 78.172C487.571 78.172 487.983 78.104 488.327 77.968C488.671 77.832 488.959 77.684 489.191 77.524V78.472ZM486.719 73.588C486.263 73.588 485.871 73.728 485.543 74.008C485.215 74.288 485.007 74.712 484.919 75.28H488.267C488.299 74.704 488.167 74.28 487.871 74.008C487.575 73.728 487.191 73.588 486.719 73.588ZM493.682 73.828C493.234 73.868 492.826 73.984 492.458 74.176C492.098 74.36 491.83 74.648 491.654 75.04V79H490.598V72.772H491.522L491.63 74.128H491.654C491.83 73.76 492.082 73.44 492.41 73.168C492.746 72.888 493.17 72.716 493.682 72.652V73.828ZM450.385 91.776C450.193 92.184 449.925 92.512 449.581 92.76C449.237 93 448.801 93.12 448.273 93.12C447.897 93.12 447.541 93.056 447.205 92.928C446.869 92.792 446.573 92.592 446.317 92.328C446.061 92.056 445.857 91.72 445.705 91.32C445.553 90.912 445.477 90.432 445.477 89.88C445.477 89.336 445.553 88.864 445.705 88.464C445.857 88.056 446.061 87.72 446.317 87.456C446.573 87.184 446.869 86.984 447.205 86.856C447.549 86.72 447.909 86.652 448.285 86.652C448.757 86.652 449.165 86.752 449.509 86.952C449.853 87.144 450.129 87.42 450.337 87.78V84.396H451.393V93H450.469L450.385 91.776ZM448.429 92.172C448.701 92.172 448.953 92.128 449.185 92.04C449.417 91.944 449.617 91.8 449.785 91.608C449.961 91.416 450.097 91.176 450.193 90.888C450.297 90.6 450.349 90.264 450.349 89.88C450.349 89.496 450.297 89.16 450.193 88.872C450.097 88.584 449.961 88.344 449.785 88.152C449.617 87.96 449.417 87.82 449.185 87.732C448.953 87.636 448.701 87.588 448.429 87.588C447.877 87.588 447.425 87.784 447.073 88.176C446.729 88.56 446.557 89.128 446.557 89.88C446.557 90.64 446.733 91.212 447.085 91.596C447.437 91.98 447.885 92.172 448.429 92.172ZM456.764 91.812C456.692 91.956 456.6 92.108 456.488 92.268C456.376 92.42 456.236 92.56 456.068 92.688C455.9 92.816 455.7 92.92 455.468 93C455.244 93.08 454.98 93.12 454.676 93.12C454.116 93.12 453.664 92.964 453.32 92.652C452.976 92.332 452.804 91.876 452.804 91.284C452.804 90.604 453.04 90.104 453.512 89.784C453.992 89.464 454.672 89.304 455.552 89.304H456.716V88.788C456.716 88.356 456.604 88.048 456.38 87.864C456.156 87.68 455.772 87.588 455.228 87.588C454.844 87.588 454.48 87.652 454.136 87.78C453.792 87.9 453.484 88.04 453.212 88.2V87.252C453.436 87.116 453.736 86.984 454.112 86.856C454.496 86.72 454.916 86.652 455.372 86.652C456.156 86.652 456.752 86.816 457.16 87.144C457.568 87.464 457.772 87.964 457.772 88.644V91.992C457.772 92.064 457.772 92.148 457.772 92.244C457.78 92.332 457.784 92.424 457.784 92.52C457.792 92.616 457.8 92.708 457.808 92.796C457.816 92.876 457.824 92.944 457.832 93H456.872C456.848 92.888 456.824 92.732 456.8 92.532C456.784 92.324 456.776 92.144 456.776 91.992L456.764 91.812ZM454.904 92.172C455.232 92.172 455.512 92.104 455.744 91.968C455.976 91.832 456.164 91.676 456.308 91.5C456.452 91.316 456.556 91.14 456.62 90.972C456.684 90.796 456.716 90.672 456.716 90.6V90.144H455.66C455.028 90.144 454.568 90.236 454.28 90.42C454 90.596 453.86 90.864 453.86 91.224C453.86 91.504 453.944 91.732 454.112 91.908C454.28 92.084 454.544 92.172 454.904 92.172ZM462.492 92.928C462.348 93.304 462.196 93.632 462.036 93.912C461.876 94.2 461.696 94.444 461.496 94.644C461.296 94.844 461.072 94.992 460.824 95.088C460.576 95.192 460.292 95.244 459.972 95.244C459.812 95.244 459.664 95.232 459.528 95.208C459.392 95.192 459.268 95.16 459.156 95.112V94.092C459.244 94.156 459.356 94.204 459.492 94.236C459.628 94.276 459.776 94.296 459.936 94.296C460.232 94.296 460.476 94.224 460.668 94.08C460.86 93.944 461.044 93.724 461.22 93.42L458.688 86.772H459.852L461.832 92.028L463.8 86.772H464.82L462.492 92.928Z" fill="black"/>
<g filter="url(#filter0_d)">
<path d="M350 25H40C31.7157 25 25 31.7157 25 40V110C25 118.284 31.7157 125 40 125H350C358.284 125 365 118.284 365 110V40C365 31.7157 358.284 25 350 25Z" fill="white"/>
</g>
<path d="M35 40C35 37.2386 37.2386 35 40 35H170C172.761 35 175 37.2386 175 40V110C175 112.761 172.761 115 170 115H40C37.2386 115 35 112.761 35 110V40Z" fill="#DAEEF9"/>
<path d="M65.5402 57.2849H67.2202L70.3042 65.8889H69.1042L68.2162 63.4289H64.4122L63.5362 65.8889H62.4802L65.5402 57.2849ZM67.8562 62.4089L66.3202 58.1249L64.7842 62.4089H67.8562ZM72.4688 65.8889H71.4128V59.6609H72.3368L72.4448 60.7769H72.4688C72.6368 60.4249 72.8888 60.1329 73.2248 59.9009C73.5608 59.6609 74.0008 59.5409 74.5448 59.5409C75.0248 59.5409 75.4168 59.6569 75.7208 59.8889C76.0328 60.1129 76.2408 60.4529 76.3448 60.9089C76.5208 60.4849 76.7888 60.1529 77.1488 59.9129C77.5168 59.6649 77.9608 59.5409 78.4808 59.5409C79.0568 59.5409 79.5128 59.7049 79.8488 60.0329C80.1848 60.3529 80.3528 60.8489 80.3528 61.5209V65.8889H79.2848V61.6529C79.2848 61.2449 79.1848 60.9489 78.9848 60.7649C78.7848 60.5729 78.5128 60.4769 78.1688 60.4769C77.9368 60.4769 77.7328 60.5129 77.5568 60.5849C77.3808 60.6489 77.2248 60.7409 77.0888 60.8609C76.9528 60.9809 76.8288 61.1209 76.7168 61.2809C76.6048 61.4409 76.5008 61.6089 76.4048 61.7849V65.8889H75.3488V61.5329C75.3488 61.1329 75.2488 60.8569 75.0488 60.7049C74.8488 60.5529 74.5768 60.4769 74.2328 60.4769C74.0088 60.4769 73.8088 60.5049 73.6328 60.5609C73.4568 60.6169 73.2968 60.6969 73.1528 60.8009C73.0168 60.9049 72.8928 61.0329 72.7808 61.1849C72.6688 61.3289 72.5648 61.4889 72.4688 61.6649V65.8889ZM84.5626 66.0089C84.1386 66.0089 83.7426 65.9369 83.3746 65.7929C83.0066 65.6489 82.6866 65.4409 82.4146 65.1689C82.1506 64.8889 81.9426 64.5489 81.7906 64.1489C81.6386 63.7489 81.5626 63.2889 81.5626 62.7689C81.5626 62.2569 81.6386 61.8009 81.7906 61.4009C81.9426 60.9929 82.1506 60.6529 82.4146 60.3809C82.6866 60.1089 83.0066 59.9009 83.3746 59.7569C83.7426 59.6129 84.1386 59.5409 84.5626 59.5409C84.9946 59.5409 85.3946 59.6129 85.7626 59.7569C86.1306 59.9009 86.4466 60.1089 86.7106 60.3809C86.9826 60.6529 87.1946 60.9929 87.3466 61.4009C87.5066 61.8009 87.5866 62.2569 87.5866 62.7689C87.5866 63.2889 87.5066 63.7489 87.3466 64.1489C87.1946 64.5489 86.9826 64.8889 86.7106 65.1689C86.4466 65.4409 86.1306 65.6489 85.7626 65.7929C85.3946 65.9369 84.9946 66.0089 84.5626 66.0089ZM84.5626 65.0609C84.8426 65.0609 85.0986 65.0169 85.3306 64.9289C85.5706 64.8329 85.7786 64.6929 85.9546 64.5089C86.1306 64.3169 86.2666 64.0769 86.3626 63.7889C86.4586 63.5009 86.5066 63.1609 86.5066 62.7689C86.5066 62.3769 86.4586 62.0369 86.3626 61.7489C86.2666 61.4609 86.1306 61.2249 85.9546 61.0409C85.7786 60.8489 85.5706 60.7089 85.3306 60.6209C85.0986 60.5249 84.8426 60.4769 84.5626 60.4769C84.2826 60.4769 84.0266 60.5249 83.7946 60.6209C83.5626 60.7089 83.3586 60.8489 83.1826 61.0409C83.0146 61.2249 82.8826 61.4609 82.7866 61.7489C82.6906 62.0369 82.6426 62.3769 82.6426 62.7689C82.6426 63.1609 82.6906 63.5009 82.7866 63.7889C82.8826 64.0769 83.0146 64.3169 83.1826 64.5089C83.3586 64.6929 83.5626 64.8329 83.7946 64.9289C84.0266 65.0169 84.2826 65.0609 84.5626 65.0609ZM92.8698 64.7729C92.7018 65.1249 92.4418 65.4209 92.0898 65.6609C91.7458 65.8929 91.2938 66.0089 90.7338 66.0089C90.1578 66.0089 89.6898 65.8489 89.3298 65.5289C88.9778 65.2009 88.8018 64.6969 88.8018 64.0169V59.6609H89.8698V64.0169C89.8698 64.2249 89.8978 64.3969 89.9538 64.5329C90.0178 64.6609 90.1018 64.7649 90.2058 64.8449C90.3098 64.9249 90.4298 64.9809 90.5658 65.0129C90.7098 65.0449 90.8658 65.0609 91.0338 65.0609C91.4978 65.0609 91.8698 64.9569 92.1498 64.7489C92.4298 64.5409 92.6698 64.2569 92.8698 63.8969V59.6609H93.9258V65.8889H92.9898L92.8938 64.7729H92.8698ZM98.7069 65.7569C98.5789 65.8289 98.4149 65.8889 98.2149 65.9369C98.0149 65.9849 97.8029 66.0089 97.5789 66.0089C97.2749 66.0089 97.0149 65.9649 96.7989 65.8769C96.5909 65.7889 96.4189 65.6729 96.2829 65.5289C96.1469 65.3769 96.0469 65.2089 95.9829 65.0249C95.9269 64.8329 95.8989 64.6369 95.8989 64.4369V60.5609H95.1549V59.6609H95.8989V58.3529H96.9549V59.6609H98.7669V60.5609H96.9549V64.3049C96.9549 64.5689 97.0189 64.7609 97.1469 64.8809C97.2829 65.0009 97.5189 65.0609 97.8549 65.0609C98.1669 65.0609 98.4509 64.9729 98.7069 64.7969V65.7569ZM105.881 66.0089C105.401 66.0089 104.985 65.8969 104.633 65.6729C104.289 65.4489 104.013 65.1409 103.805 64.7489V68.0129H102.749V59.6609H103.673L103.781 60.8729C103.989 60.4649 104.269 60.1409 104.621 59.9009C104.973 59.6609 105.409 59.5409 105.929 59.5409C106.289 59.5409 106.633 59.6089 106.961 59.7449C107.297 59.8729 107.589 60.0729 107.837 60.3449C108.093 60.6089 108.293 60.9449 108.437 61.3529C108.589 61.7529 108.665 62.2249 108.665 62.7689C108.665 63.3209 108.589 63.8009 108.437 64.2089C108.285 64.6089 108.081 64.9449 107.825 65.2169C107.569 65.4809 107.273 65.6809 106.937 65.8169C106.601 65.9449 106.249 66.0089 105.881 66.0089ZM105.725 65.0609C106.277 65.0609 106.721 64.8729 107.057 64.4969C107.401 64.1129 107.573 63.5369 107.573 62.7689C107.573 62.0169 107.401 61.4489 107.057 61.0649C106.721 60.6729 106.277 60.4769 105.725 60.4769C105.453 60.4769 105.197 60.5249 104.957 60.6209C104.725 60.7169 104.521 60.8609 104.345 61.0529C104.177 61.2369 104.041 61.4729 103.937 61.7609C103.841 62.0489 103.793 62.3849 103.793 62.7689C103.793 63.1529 103.841 63.4889 103.937 63.7769C104.041 64.0649 104.177 64.3049 104.345 64.4969C104.521 64.6889 104.725 64.8329 104.957 64.9289C105.197 65.0169 105.453 65.0609 105.725 65.0609ZM114.9 65.3609C114.812 65.4249 114.704 65.4929 114.576 65.5649C114.448 65.6369 114.292 65.7089 114.108 65.7809C113.924 65.8449 113.716 65.8969 113.484 65.9369C113.252 65.9849 112.992 66.0089 112.704 66.0089C111.656 66.0089 110.86 65.7249 110.316 65.1569C109.772 64.5889 109.5 63.7929 109.5 62.7689C109.5 62.2649 109.572 61.8129 109.716 61.4129C109.868 61.0129 110.076 60.6769 110.34 60.4049C110.604 60.1249 110.916 59.9129 111.276 59.7689C111.636 59.6169 112.028 59.5409 112.452 59.5409C112.9 59.5409 113.3 59.6169 113.652 59.7689C114.004 59.9209 114.292 60.1449 114.516 60.4409C114.748 60.7369 114.904 61.1049 114.984 61.5449C115.072 61.9769 115.072 62.4809 114.984 63.0569H110.592C110.632 63.7289 110.832 64.2329 111.192 64.5689C111.552 64.8969 112.088 65.0609 112.8 65.0609C113.28 65.0609 113.692 64.9929 114.036 64.8569C114.38 64.7209 114.668 64.5729 114.9 64.4129V65.3609ZM112.428 60.4769C111.972 60.4769 111.58 60.6169 111.252 60.8969C110.924 61.1769 110.716 61.6009 110.628 62.1689H113.976C114.008 61.5929 113.876 61.1689 113.58 60.8969C113.284 60.6169 112.9 60.4769 112.428 60.4769ZM119.391 60.7169C118.943 60.7569 118.535 60.8729 118.167 61.0649C117.807 61.2489 117.539 61.5369 117.363 61.9289V65.8889H116.307V59.6609H117.231L117.339 61.0169H117.363C117.539 60.6489 117.791 60.3289 118.119 60.0569C118.455 59.7769 118.879 59.6049 119.391 59.5409V60.7169ZM126.375 65.8169C126.231 66.1929 126.079 66.5209 125.919 66.8009C125.759 67.0889 125.579 67.3329 125.379 67.5329C125.179 67.7329 124.955 67.8809 124.707 67.9769C124.459 68.0809 124.175 68.1329 123.855 68.1329C123.695 68.1329 123.547 68.1209 123.411 68.0969C123.275 68.0809 123.151 68.0489 123.039 68.0009V66.9809C123.127 67.0449 123.239 67.0929 123.375 67.1249C123.511 67.1649 123.659 67.1849 123.819 67.1849C124.115 67.1849 124.359 67.1129 124.551 66.9689C124.743 66.8329 124.927 66.6129 125.103 66.3089L122.571 59.6609H123.735L125.715 64.9169L127.683 59.6609H128.703L126.375 65.8169ZM134.529 65.3609C134.441 65.4249 134.333 65.4929 134.205 65.5649C134.077 65.6369 133.921 65.7089 133.737 65.7809C133.553 65.8449 133.345 65.8969 133.113 65.9369C132.881 65.9849 132.621 66.0089 132.333 66.0089C131.285 66.0089 130.489 65.7249 129.945 65.1569C129.401 64.5889 129.129 63.7929 129.129 62.7689C129.129 62.2649 129.201 61.8129 129.345 61.4129C129.497 61.0129 129.705 60.6769 129.969 60.4049C130.233 60.1249 130.545 59.9129 130.905 59.7689C131.265 59.6169 131.657 59.5409 132.081 59.5409C132.529 59.5409 132.929 59.6169 133.281 59.7689C133.633 59.9209 133.921 60.1449 134.145 60.4409C134.377 60.7369 134.533 61.1049 134.613 61.5449C134.701 61.9769 134.701 62.4809 134.613 63.0569H130.221C130.261 63.7289 130.461 64.2329 130.821 64.5689C131.181 64.8969 131.717 65.0609 132.429 65.0609C132.909 65.0609 133.321 64.9929 133.665 64.8569C134.009 64.7209 134.297 64.5729 134.529 64.4129V65.3609ZM132.057 60.4769C131.601 60.4769 131.209 60.6169 130.881 60.8969C130.553 61.1769 130.345 61.6009 130.257 62.1689H133.605C133.637 61.5929 133.505 61.1689 133.209 60.8969C132.913 60.6169 132.529 60.4769 132.057 60.4769ZM139.584 64.7009C139.512 64.8449 139.42 64.9969 139.308 65.1569C139.196 65.3089 139.056 65.4489 138.888 65.5769C138.72 65.7049 138.52 65.8089 138.288 65.8889C138.064 65.9689 137.8 66.0089 137.496 66.0089C136.936 66.0089 136.484 65.8529 136.14 65.5409C135.796 65.2209 135.624 64.7649 135.624 64.1729C135.624 63.4929 135.86 62.9929 136.332 62.6729C136.812 62.3529 137.492 62.1929 138.372 62.1929H139.536V61.6769C139.536 61.2449 139.424 60.9369 139.2 60.7529C138.976 60.5689 138.592 60.4769 138.048 60.4769C137.664 60.4769 137.3 60.5409 136.956 60.6689C136.612 60.7889 136.304 60.9289 136.032 61.0889V60.1409C136.256 60.0049 136.556 59.8729 136.932 59.7449C137.316 59.6089 137.736 59.5409 138.192 59.5409C138.976 59.5409 139.572 59.7049 139.98 60.0329C140.388 60.3529 140.592 60.8529 140.592 61.5329V64.8809C140.592 64.9529 140.592 65.0369 140.592 65.1329C140.6 65.2209 140.604 65.3129 140.604 65.4089C140.612 65.5049 140.62 65.5969 140.628 65.6849C140.636 65.7649 140.644 65.8329 140.652 65.8889H139.692C139.668 65.7769 139.644 65.6209 139.62 65.4209C139.604 65.2129 139.596 65.0329 139.596 64.8809L139.584 64.7009ZM137.724 65.0609C138.052 65.0609 138.332 64.9929 138.564 64.8569C138.796 64.7209 138.984 64.5649 139.128 64.3889C139.272 64.2049 139.376 64.0289 139.44 63.8609C139.504 63.6849 139.536 63.5609 139.536 63.4889V63.0329H138.48C137.848 63.0329 137.388 63.1249 137.1 63.3089C136.82 63.4849 136.68 63.7529 136.68 64.1129C136.68 64.3929 136.764 64.6209 136.932 64.7969C137.1 64.9729 137.364 65.0609 137.724 65.0609ZM145.337 60.7169C144.889 60.7569 144.481 60.8729 144.113 61.0649C143.753 61.2489 143.485 61.5369 143.309 61.9289V65.8889H142.253V59.6609H143.177L143.285 61.0169H143.309C143.485 60.6489 143.737 60.3289 144.065 60.0569C144.401 59.7769 144.825 59.6049 145.337 59.5409V60.7169ZM64.7952 78.7009C64.7232 78.8449 64.6312 78.9969 64.5192 79.1569C64.4072 79.3089 64.2672 79.4489 64.0992 79.5769C63.9312 79.7049 63.7312 79.8089 63.4992 79.8889C63.2752 79.9689 63.0112 80.0089 62.7072 80.0089C62.1472 80.0089 61.6952 79.8529 61.3512 79.5409C61.0072 79.2209 60.8352 78.7649 60.8352 78.1729C60.8352 77.4929 61.0712 76.9929 61.5432 76.6729C62.0232 76.3529 62.7032 76.1929 63.5832 76.1929H64.7472V75.6769C64.7472 75.2449 64.6352 74.9369 64.4112 74.7529C64.1872 74.5689 63.8032 74.4769 63.2592 74.4769C62.8752 74.4769 62.5112 74.5409 62.1672 74.6689C61.8232 74.7889 61.5152 74.9289 61.2432 75.0889V74.1409C61.4672 74.0049 61.7672 73.8729 62.1432 73.7449C62.5272 73.6089 62.9472 73.5409 63.4032 73.5409C64.1872 73.5409 64.7832 73.7049 65.1912 74.0329C65.5992 74.3529 65.8032 74.8529 65.8032 75.5329V78.8809C65.8032 78.9529 65.8032 79.0369 65.8032 79.1329C65.8112 79.2209 65.8152 79.3129 65.8152 79.4089C65.8232 79.5049 65.8312 79.5969 65.8392 79.6849C65.8472 79.7649 65.8552 79.8329 65.8632 79.8889H64.9032C64.8792 79.7769 64.8552 79.6209 64.8312 79.4209C64.8152 79.2129 64.8072 79.0329 64.8072 78.8809L64.7952 78.7009ZM62.9352 79.0609C63.2632 79.0609 63.5432 78.9929 63.7752 78.8569C64.0072 78.7209 64.1952 78.5649 64.3392 78.3889C64.4832 78.2049 64.5872 78.0289 64.6512 77.8609C64.7152 77.6849 64.7472 77.5609 64.7472 77.4889V77.0329H63.6912C63.0592 77.0329 62.5992 77.1249 62.3112 77.3089C62.0312 77.4849 61.8912 77.7529 61.8912 78.1129C61.8912 78.3929 61.9752 78.6209 62.1432 78.7969C62.3112 78.9729 62.5752 79.0609 62.9352 79.0609ZM70.1516 80.0089C69.6716 80.0089 69.2356 79.9369 68.8436 79.7929C68.4596 79.6409 68.1316 79.4289 67.8596 79.1569C67.5876 78.8769 67.3796 78.5369 67.2356 78.1369C67.0916 77.7369 67.0196 77.2809 67.0196 76.7689C67.0196 76.2649 67.0916 75.8129 67.2356 75.4129C67.3876 75.0129 67.5996 74.6769 67.8716 74.4049C68.1436 74.1249 68.4756 73.9129 68.8676 73.7689C69.2596 73.6169 69.7036 73.5409 70.1996 73.5409C70.5836 73.5409 70.9356 73.5849 71.2556 73.6729C71.5756 73.7529 71.8396 73.8729 72.0476 74.0329V74.9809C71.7916 74.8129 71.5036 74.6889 71.1836 74.6089C70.8716 74.5209 70.5476 74.4769 70.2116 74.4769C69.4836 74.4769 68.9476 74.6649 68.6036 75.0409C68.2676 75.4169 68.0996 75.9929 68.0996 76.7689C68.0996 77.5449 68.2636 78.1209 68.5916 78.4969C68.9196 78.8729 69.4396 79.0609 70.1516 79.0609C70.5276 79.0609 70.8716 79.0169 71.1836 78.9289C71.5036 78.8329 71.7916 78.7129 72.0476 78.5689V79.5169C71.8236 79.6529 71.5516 79.7689 71.2316 79.8649C70.9196 79.9609 70.5596 80.0089 70.1516 80.0089ZM76.0227 80.0089C75.5427 80.0089 75.1067 79.9369 74.7147 79.7929C74.3307 79.6409 74.0027 79.4289 73.7307 79.1569C73.4587 78.8769 73.2507 78.5369 73.1067 78.1369C72.9627 77.7369 72.8907 77.2809 72.8907 76.7689C72.8907 76.2649 72.9627 75.8129 73.1067 75.4129C73.2587 75.0129 73.4707 74.6769 73.7427 74.4049C74.0147 74.1249 74.3467 73.9129 74.7387 73.7689C75.1307 73.6169 75.5747 73.5409 76.0707 73.5409C76.4547 73.5409 76.8067 73.5849 77.1267 73.6729C77.4467 73.7529 77.7107 73.8729 77.9187 74.0329V74.9809C77.6627 74.8129 77.3747 74.6889 77.0547 74.6089C76.7427 74.5209 76.4187 74.4769 76.0827 74.4769C75.3547 74.4769 74.8187 74.6649 74.4747 75.0409C74.1387 75.4169 73.9707 75.9929 73.9707 76.7689C73.9707 77.5449 74.1347 78.1209 74.4627 78.4969C74.7907 78.8729 75.3107 79.0609 76.0227 79.0609C76.3987 79.0609 76.7427 79.0169 77.0547 78.9289C77.3747 78.8329 77.6627 78.7129 77.9187 78.5689V79.5169C77.6947 79.6529 77.4227 79.7689 77.1027 79.8649C76.7907 79.9609 76.4307 80.0089 76.0227 80.0089ZM81.7618 80.0089C81.3378 80.0089 80.9418 79.9369 80.5738 79.7929C80.2058 79.6489 79.8858 79.4409 79.6138 79.1689C79.3498 78.8889 79.1418 78.5489 78.9898 78.1489C78.8378 77.7489 78.7618 77.2889 78.7618 76.7689C78.7618 76.2569 78.8378 75.8009 78.9898 75.4009C79.1418 74.9929 79.3498 74.6529 79.6138 74.3809C79.8858 74.1089 80.2058 73.9009 80.5738 73.7569C80.9418 73.6129 81.3378 73.5409 81.7618 73.5409C82.1938 73.5409 82.5938 73.6129 82.9618 73.7569C83.3298 73.9009 83.6458 74.1089 83.9098 74.3809C84.1818 74.6529 84.3938 74.9929 84.5458 75.4009C84.7058 75.8009 84.7858 76.2569 84.7858 76.7689C84.7858 77.2889 84.7058 77.7489 84.5458 78.1489C84.3938 78.5489 84.1818 78.8889 83.9098 79.1689C83.6458 79.4409 83.3298 79.6489 82.9618 79.7929C82.5938 79.9369 82.1938 80.0089 81.7618 80.0089ZM81.7618 79.0609C82.0418 79.0609 82.2978 79.0169 82.5298 78.9289C82.7698 78.8329 82.9778 78.6929 83.1538 78.5089C83.3298 78.3169 83.4658 78.0769 83.5618 77.7889C83.6578 77.5009 83.7058 77.1609 83.7058 76.7689C83.7058 76.3769 83.6578 76.0369 83.5618 75.7489C83.4658 75.4609 83.3298 75.2249 83.1538 75.0409C82.9778 74.8489 82.7698 74.7089 82.5298 74.6209C82.2978 74.5249 82.0418 74.4769 81.7618 74.4769C81.4818 74.4769 81.2258 74.5249 80.9938 74.6209C80.7618 74.7089 80.5578 74.8489 80.3818 75.0409C80.2138 75.2249 80.0818 75.4609 79.9858 75.7489C79.8898 76.0369 79.8418 76.3769 79.8418 76.7689C79.8418 77.1609 79.8898 77.5009 79.9858 77.7889C80.0818 78.0769 80.2138 78.3169 80.3818 78.5089C80.5578 78.6929 80.7618 78.8329 80.9938 78.9289C81.2258 79.0169 81.4818 79.0609 81.7618 79.0609ZM89.157 74.7169C88.709 74.7569 88.301 74.8729 87.933 75.0649C87.573 75.2489 87.305 75.5369 87.129 75.9289V79.8889H86.073V73.6609H86.997L87.105 75.0169H87.129C87.305 74.6489 87.557 74.3289 87.885 74.0569C88.221 73.7769 88.645 73.6049 89.157 73.5409V74.7169ZM94.8495 78.6649C94.6575 79.0729 94.3895 79.4009 94.0455 79.6489C93.7015 79.8889 93.2655 80.0089 92.7375 80.0089C92.3615 80.0089 92.0055 79.9449 91.6695 79.8169C91.3335 79.6809 91.0375 79.4809 90.7815 79.2169C90.5255 78.9449 90.3215 78.6089 90.1695 78.2089C90.0175 77.8009 89.9415 77.3209 89.9415 76.7689C89.9415 76.2249 90.0175 75.7529 90.1695 75.3529C90.3215 74.9449 90.5255 74.6089 90.7815 74.3449C91.0375 74.0729 91.3335 73.8729 91.6695 73.7449C92.0135 73.6089 92.3735 73.5409 92.7495 73.5409C93.2215 73.5409 93.6295 73.6409 93.9735 73.8409C94.3175 74.0329 94.5935 74.3089 94.8015 74.6689V71.2849H95.8575V79.8889H94.9335L94.8495 78.6649ZM92.8935 79.0609C93.1655 79.0609 93.4175 79.0169 93.6495 78.9289C93.8815 78.8329 94.0815 78.6889 94.2495 78.4969C94.4255 78.3049 94.5615 78.0649 94.6575 77.7769C94.7615 77.4889 94.8135 77.1529 94.8135 76.7689C94.8135 76.3849 94.7615 76.0489 94.6575 75.7609C94.5615 75.4729 94.4255 75.2329 94.2495 75.0409C94.0815 74.8489 93.8815 74.7089 93.6495 74.6209C93.4175 74.5249 93.1655 74.4769 92.8935 74.4769C92.3415 74.4769 91.8895 74.6729 91.5375 75.0649C91.1935 75.4489 91.0215 76.0169 91.0215 76.7689C91.0215 77.5289 91.1975 78.1009 91.5495 78.4849C91.9015 78.8689 92.3495 79.0609 92.8935 79.0609ZM98.1208 72.7489C97.9048 72.7489 97.7328 72.6849 97.6048 72.5569C97.4768 72.4209 97.4128 72.2569 97.4128 72.0649C97.4128 71.8729 97.4768 71.7089 97.6048 71.5729C97.7328 71.4369 97.9048 71.3689 98.1208 71.3689C98.3288 71.3689 98.4928 71.4369 98.6128 71.5729C98.7328 71.7089 98.7928 71.8729 98.7928 72.0649C98.7928 72.2569 98.7328 72.4209 98.6128 72.5569C98.4928 72.6849 98.3288 72.7489 98.1208 72.7489ZM98.6368 73.6609V79.8889H97.5808V73.6609H98.6368ZM103.31 74.4769C102.83 74.4769 102.438 74.5889 102.134 74.8129C101.838 75.0289 101.598 75.3089 101.414 75.6529V79.8889H100.358V73.6609H101.354L101.39 74.7769H101.414C101.582 74.4169 101.846 74.1209 102.206 73.8889C102.566 73.6569 103.022 73.5409 103.574 73.5409C104.19 73.5409 104.678 73.7049 105.038 74.0329C105.406 74.3529 105.59 74.8489 105.59 75.5209V79.8889H104.534V75.6289C104.534 75.1969 104.426 74.8969 104.21 74.7289C103.994 74.5609 103.694 74.4769 103.31 74.4769ZM112.612 79.3609C112.612 79.7609 112.552 80.1249 112.432 80.4529C112.32 80.7889 112.136 81.0729 111.88 81.3049C111.632 81.5369 111.308 81.7169 110.908 81.8449C110.516 81.9729 110.04 82.0369 109.481 82.0369C109.177 82.0369 108.909 82.0209 108.677 81.9889C108.445 81.9569 108.241 81.9129 108.065 81.8569C107.897 81.8089 107.753 81.7529 107.633 81.6889C107.513 81.6329 107.413 81.5769 107.333 81.5209V80.5729C107.461 80.6449 107.593 80.7089 107.729 80.7649C107.873 80.8289 108.029 80.8849 108.197 80.9329C108.365 80.9809 108.553 81.0169 108.761 81.0409C108.977 81.0729 109.221 81.0889 109.493 81.0889C110.26 81.0889 110.796 80.9449 111.1 80.6569C111.404 80.3689 111.556 79.9409 111.556 79.3729V78.4129C111.372 78.7809 111.112 79.0769 110.776 79.3009C110.448 79.5249 110.04 79.6369 109.553 79.6369C109.185 79.6369 108.833 79.5729 108.497 79.4449C108.169 79.3169 107.877 79.1289 107.621 78.8809C107.373 78.6249 107.173 78.3089 107.021 77.9329C106.877 77.5489 106.805 77.1049 106.805 76.6009C106.805 76.0889 106.877 75.6449 107.021 75.2689C107.173 74.8849 107.373 74.5649 107.621 74.3089C107.877 74.0529 108.173 73.8609 108.509 73.7329C108.845 73.6049 109.201 73.5409 109.577 73.5409C110.072 73.5409 110.488 73.6529 110.824 73.8769C111.168 74.1009 111.436 74.4049 111.628 74.7889L111.64 74.6569C111.64 74.5129 111.648 74.3409 111.664 74.1409C111.68 73.9329 111.696 73.7729 111.712 73.6609H112.672C112.656 73.7729 112.64 73.9329 112.624 74.1409C112.616 74.3489 112.612 74.5209 112.612 74.6569V79.3609ZM109.745 78.6889C110.008 78.6889 110.248 78.6489 110.464 78.5689C110.688 78.4809 110.88 78.3489 111.04 78.1729C111.208 77.9969 111.336 77.7809 111.424 77.5249C111.52 77.2609 111.568 76.9529 111.568 76.6009C111.568 75.8889 111.392 75.3569 111.04 75.0049C110.696 74.6529 110.26 74.4769 109.733 74.4769C109.469 74.4769 109.221 74.5209 108.989 74.6089C108.765 74.6969 108.569 74.8289 108.401 75.0049C108.241 75.1809 108.113 75.4049 108.017 75.6769C107.921 75.9409 107.873 76.2489 107.873 76.6009C107.873 76.9529 107.921 77.2609 108.017 77.5249C108.113 77.7809 108.245 77.9969 108.413 78.1729C108.581 78.3409 108.777 78.4689 109.001 78.5569C109.233 78.6449 109.481 78.6889 109.745 78.6889ZM120.012 79.7569C119.884 79.8289 119.72 79.8889 119.52 79.9369C119.32 79.9849 119.108 80.0089 118.884 80.0089C118.58 80.0089 118.32 79.9649 118.104 79.8769C117.896 79.7889 117.724 79.6729 117.588 79.5289C117.452 79.3769 117.352 79.2089 117.288 79.0249C117.232 78.8329 117.204 78.6369 117.204 78.4369V74.5609H116.46V73.6609H117.204V72.3529H118.26V73.6609H120.072V74.5609H118.26V78.3049C118.26 78.5689 118.324 78.7609 118.452 78.8809C118.588 79.0009 118.824 79.0609 119.16 79.0609C119.472 79.0609 119.756 78.9729 120.012 78.7969V79.7569ZM123.914 80.0089C123.49 80.0089 123.094 79.9369 122.726 79.7929C122.358 79.6489 122.038 79.4409 121.766 79.1689C121.502 78.8889 121.294 78.5489 121.142 78.1489C120.99 77.7489 120.914 77.2889 120.914 76.7689C120.914 76.2569 120.99 75.8009 121.142 75.4009C121.294 74.9929 121.502 74.6529 121.766 74.3809C122.038 74.1089 122.358 73.9009 122.726 73.7569C123.094 73.6129 123.49 73.5409 123.914 73.5409C124.346 73.5409 124.746 73.6129 125.114 73.7569C125.482 73.9009 125.798 74.1089 126.062 74.3809C126.334 74.6529 126.546 74.9929 126.698 75.4009C126.858 75.8009 126.938 76.2569 126.938 76.7689C126.938 77.2889 126.858 77.7489 126.698 78.1489C126.546 78.5489 126.334 78.8889 126.062 79.1689C125.798 79.4409 125.482 79.6489 125.114 79.7929C124.746 79.9369 124.346 80.0089 123.914 80.0089ZM123.914 79.0609C124.194 79.0609 124.45 79.0169 124.682 78.9289C124.922 78.8329 125.13 78.6929 125.306 78.5089C125.482 78.3169 125.618 78.0769 125.714 77.7889C125.81 77.5009 125.858 77.1609 125.858 76.7689C125.858 76.3769 125.81 76.0369 125.714 75.7489C125.618 75.4609 125.482 75.2249 125.306 75.0409C125.13 74.8489 124.922 74.7089 124.682 74.6209C124.45 74.5249 124.194 74.4769 123.914 74.4769C123.634 74.4769 123.378 74.5249 123.146 74.6209C122.914 74.7089 122.71 74.8489 122.534 75.0409C122.366 75.2249 122.234 75.4609 122.138 75.7489C122.042 76.0369 121.994 76.3769 121.994 76.7689C121.994 77.1609 122.042 77.5009 122.138 77.7889C122.234 78.0769 122.366 78.3169 122.534 78.5089C122.71 78.6929 122.914 78.8329 123.146 78.9289C123.378 79.0169 123.634 79.0609 123.914 79.0609ZM133.91 79.7569C133.782 79.8289 133.618 79.8889 133.418 79.9369C133.218 79.9849 133.006 80.0089 132.782 80.0089C132.478 80.0089 132.218 79.9649 132.002 79.8769C131.794 79.7889 131.622 79.6729 131.486 79.5289C131.35 79.3769 131.25 79.2089 131.186 79.0249C131.13 78.8329 131.102 78.6369 131.102 78.4369V74.5609H130.358V73.6609H131.102V72.3529H132.158V73.6609H133.97V74.5609H132.158V78.3049C132.158 78.5689 132.222 78.7609 132.35 78.8809C132.486 79.0009 132.722 79.0609 133.058 79.0609C133.37 79.0609 133.654 78.9729 133.91 78.7969V79.7569ZM138.267 74.4769C137.787 74.4769 137.395 74.5889 137.091 74.8129C136.795 75.0289 136.555 75.3089 136.371 75.6529V79.8889H135.315V71.2849H136.371V73.6609L136.347 74.7769H136.371C136.539 74.4249 136.803 74.1329 137.163 73.9009C137.523 73.6609 137.979 73.5409 138.531 73.5409C139.147 73.5409 139.635 73.7049 139.995 74.0329C140.363 74.3529 140.547 74.8489 140.547 75.5209V79.8889H139.491V75.6289C139.491 75.1969 139.383 74.8969 139.167 74.7289C138.951 74.5609 138.651 74.4769 138.267 74.4769ZM147.174 79.3609C147.086 79.4249 146.978 79.4929 146.85 79.5649C146.722 79.6369 146.566 79.7089 146.382 79.7809C146.198 79.8449 145.99 79.8969 145.758 79.9369C145.526 79.9849 145.266 80.0089 144.978 80.0089C143.93 80.0089 143.134 79.7249 142.59 79.1569C142.046 78.5889 141.774 77.7929 141.774 76.7689C141.774 76.2649 141.846 75.8129 141.99 75.4129C142.142 75.0129 142.35 74.6769 142.614 74.4049C142.878 74.1249 143.19 73.9129 143.55 73.7689C143.91 73.6169 144.302 73.5409 144.726 73.5409C145.174 73.5409 145.574 73.6169 145.926 73.7689C146.278 73.9209 146.566 74.1449 146.79 74.4409C147.022 74.7369 147.178 75.1049 147.258 75.5449C147.346 75.9769 147.346 76.4809 147.258 77.0569H142.866C142.906 77.7289 143.106 78.2329 143.466 78.5689C143.826 78.8969 144.362 79.0609 145.074 79.0609C145.554 79.0609 145.966 78.9929 146.31 78.8569C146.654 78.7209 146.942 78.5729 147.174 78.4129V79.3609ZM144.702 74.4769C144.246 74.4769 143.854 74.6169 143.526 74.8969C143.198 75.1769 142.99 75.6009 142.902 76.1689H146.25C146.282 75.5929 146.15 75.1689 145.854 74.8969C145.558 74.6169 145.174 74.4769 144.702 74.4769ZM77.7093 92.7009C77.6373 92.8449 77.5453 92.9969 77.4333 93.1569C77.3213 93.3089 77.1813 93.4489 77.0133 93.5769C76.8453 93.7049 76.6453 93.8089 76.4133 93.8889C76.1893 93.9689 75.9253 94.0089 75.6213 94.0089C75.0613 94.0089 74.6093 93.8529 74.2653 93.5409C73.9213 93.2209 73.7493 92.7649 73.7493 92.1729C73.7493 91.4929 73.9853 90.9929 74.4573 90.6729C74.9373 90.3529 75.6173 90.1929 76.4973 90.1929H77.6613V89.6769C77.6613 89.2449 77.5493 88.9369 77.3253 88.7529C77.1013 88.5689 76.7173 88.4769 76.1733 88.4769C75.7893 88.4769 75.4253 88.5409 75.0813 88.6689C74.7373 88.7889 74.4293 88.9289 74.1573 89.0889V88.1409C74.3813 88.0049 74.6813 87.8729 75.0573 87.7449C75.4413 87.6089 75.8613 87.5409 76.3173 87.5409C77.1013 87.5409 77.6973 87.7049 78.1053 88.0329C78.5133 88.3529 78.7173 88.8529 78.7173 89.5329V92.8809C78.7173 92.9529 78.7173 93.0369 78.7173 93.1329C78.7253 93.2209 78.7293 93.3129 78.7293 93.4089C78.7373 93.5049 78.7453 93.5969 78.7533 93.6849C78.7613 93.7649 78.7693 93.8329 78.7773 93.8889H77.8173C77.7933 93.7769 77.7693 93.6209 77.7453 93.4209C77.7293 93.2129 77.7213 93.0329 77.7213 92.8809L77.7093 92.7009ZM75.8493 93.0609C76.1773 93.0609 76.4573 92.9929 76.6893 92.8569C76.9213 92.7209 77.1093 92.5649 77.2533 92.3889C77.3973 92.2049 77.5013 92.0289 77.5653 91.8609C77.6293 91.6849 77.6613 91.5609 77.6613 91.4889V91.0329H76.6053C75.9733 91.0329 75.5133 91.1249 75.2253 91.3089C74.9453 91.4849 74.8053 91.7529 74.8053 92.1129C74.8053 92.3929 74.8893 92.6209 75.0573 92.7969C75.2253 92.9729 75.4893 93.0609 75.8493 93.0609ZM85.7297 93.3609C85.7297 93.7609 85.6697 94.1249 85.5497 94.4529C85.4377 94.7889 85.2537 95.0729 84.9977 95.3049C84.7497 95.5369 84.4257 95.7169 84.0257 95.8449C83.6337 95.9729 83.1577 96.0369 82.5977 96.0369C82.2937 96.0369 82.0257 96.0209 81.7937 95.9889C81.5617 95.9569 81.3577 95.9129 81.1817 95.8569C81.0137 95.8089 80.8697 95.7529 80.7497 95.6889C80.6297 95.6329 80.5297 95.5769 80.4497 95.5209V94.5729C80.5777 94.6449 80.7097 94.7089 80.8457 94.7649C80.9897 94.8289 81.1457 94.8849 81.3137 94.9329C81.4817 94.9809 81.6697 95.0169 81.8777 95.0409C82.0937 95.0729 82.3377 95.0889 82.6097 95.0889C83.3777 95.0889 83.9137 94.9449 84.2177 94.6569C84.5217 94.3689 84.6737 93.9409 84.6737 93.3729V92.4129C84.4897 92.7809 84.2297 93.0769 83.8937 93.3009C83.5657 93.5249 83.1577 93.6369 82.6697 93.6369C82.3017 93.6369 81.9497 93.5729 81.6137 93.4449C81.2857 93.3169 80.9937 93.1289 80.7377 92.8809C80.4897 92.6249 80.2897 92.3089 80.1377 91.9329C79.9937 91.5489 79.9217 91.1049 79.9217 90.6009C79.9217 90.0889 79.9937 89.6449 80.1377 89.2689C80.2897 88.8849 80.4897 88.5649 80.7377 88.3089C80.9937 88.0529 81.2897 87.8609 81.6257 87.7329C81.9617 87.6049 82.3177 87.5409 82.6937 87.5409C83.1897 87.5409 83.6057 87.6529 83.9417 87.8769C84.2857 88.1009 84.5537 88.4049 84.7457 88.7889L84.7577 88.6569C84.7577 88.5129 84.7657 88.3409 84.7817 88.1409C84.7977 87.9329 84.8137 87.7729 84.8297 87.6609H85.7897C85.7737 87.7729 85.7577 87.9329 85.7417 88.1409C85.7337 88.3489 85.7297 88.5209 85.7297 88.6569V93.3609ZM82.8617 92.6889C83.1257 92.6889 83.3657 92.6489 83.5817 92.5689C83.8057 92.4809 83.9977 92.3489 84.1577 92.1729C84.3257 91.9969 84.4537 91.7809 84.5417 91.5249C84.6377 91.2609 84.6857 90.9529 84.6857 90.6009C84.6857 89.8889 84.5097 89.3569 84.1577 89.0049C83.8137 88.6529 83.3777 88.4769 82.8497 88.4769C82.5857 88.4769 82.3377 88.5209 82.1057 88.6089C81.8817 88.6969 81.6857 88.8289 81.5177 89.0049C81.3577 89.1809 81.2297 89.4049 81.1337 89.6769C81.0377 89.9409 80.9897 90.2489 80.9897 90.6009C80.9897 90.9529 81.0377 91.2609 81.1337 91.5249C81.2297 91.7809 81.3617 91.9969 81.5297 92.1729C81.6977 92.3409 81.8937 92.4689 82.1177 92.5569C82.3497 92.6449 82.5977 92.6889 82.8617 92.6889ZM90.5281 88.7169C90.0801 88.7569 89.6721 88.8729 89.3041 89.0649C88.9441 89.2489 88.6761 89.5369 88.5001 89.9289V93.8889H87.4441V87.6609H88.3681L88.4761 89.0169H88.5001C88.6761 88.6489 88.9281 88.3289 89.2561 88.0569C89.5921 87.7769 90.0161 87.6049 90.5281 87.5409V88.7169ZM96.5954 93.3609C96.5074 93.4249 96.3994 93.4929 96.2714 93.5649C96.1434 93.6369 95.9874 93.7089 95.8034 93.7809C95.6194 93.8449 95.4114 93.8969 95.1794 93.9369C94.9474 93.9849 94.6874 94.0089 94.3994 94.0089C93.3514 94.0089 92.5554 93.7249 92.0114 93.1569C91.4674 92.5889 91.1954 91.7929 91.1954 90.7689C91.1954 90.2649 91.2674 89.8129 91.4114 89.4129C91.5634 89.0129 91.7714 88.6769 92.0354 88.4049C92.2994 88.1249 92.6114 87.9129 92.9714 87.7689C93.3314 87.6169 93.7234 87.5409 94.1474 87.5409C94.5954 87.5409 94.9954 87.6169 95.3474 87.7689C95.6994 87.9209 95.9874 88.1449 96.2114 88.4409C96.4434 88.7369 96.5994 89.1049 96.6794 89.5449C96.7674 89.9769 96.7674 90.4809 96.6794 91.0569H92.2874C92.3274 91.7289 92.5274 92.2329 92.8874 92.5689C93.2474 92.8969 93.7834 93.0609 94.4954 93.0609C94.9754 93.0609 95.3874 92.9929 95.7314 92.8569C96.0754 92.7209 96.3634 92.5729 96.5954 92.4129V93.3609ZM94.1234 88.4769C93.6674 88.4769 93.2754 88.6169 92.9474 88.8969C92.6194 89.1769 92.4114 89.6009 92.3234 90.1689H95.6714C95.7034 89.5929 95.5714 89.1689 95.2754 88.8969C94.9794 88.6169 94.5954 88.4769 94.1234 88.4769ZM102.959 93.3609C102.871 93.4249 102.763 93.4929 102.635 93.5649C102.507 93.6369 102.351 93.7089 102.167 93.7809C101.983 93.8449 101.775 93.8969 101.543 93.9369C101.311 93.9849 101.051 94.0089 100.763 94.0089C99.7147 94.0089 98.9187 93.7249 98.3747 93.1569C97.8307 92.5889 97.5587 91.7929 97.5587 90.7689C97.5587 90.2649 97.6307 89.8129 97.7747 89.4129C97.9267 89.0129 98.1347 88.6769 98.3987 88.4049C98.6627 88.1249 98.9747 87.9129 99.3347 87.7689C99.6947 87.6169 100.087 87.5409 100.511 87.5409C100.959 87.5409 101.359 87.6169 101.711 87.7689C102.063 87.9209 102.351 88.1449 102.575 88.4409C102.807 88.7369 102.963 89.1049 103.043 89.5449C103.131 89.9769 103.131 90.4809 103.043 91.0569H98.6507C98.6907 91.7289 98.8907 92.2329 99.2507 92.5689C99.6107 92.8969 100.147 93.0609 100.859 93.0609C101.339 93.0609 101.751 92.9929 102.095 92.8569C102.439 92.7209 102.727 92.5729 102.959 92.4129V93.3609ZM100.487 88.4769C100.031 88.4769 99.6387 88.6169 99.3107 88.8969C98.9827 89.1769 98.7747 89.6009 98.6867 90.1689H102.035C102.067 89.5929 101.935 89.1689 101.639 88.8969C101.343 88.6169 100.959 88.4769 100.487 88.4769ZM105.422 93.8889H104.366V87.6609H105.29L105.398 88.7769H105.422C105.59 88.4249 105.842 88.1329 106.178 87.9009C106.514 87.6609 106.954 87.5409 107.498 87.5409C107.978 87.5409 108.37 87.6569 108.674 87.8889C108.986 88.1129 109.194 88.4529 109.298 88.9089C109.474 88.4849 109.742 88.1529 110.102 87.9129C110.47 87.6649 110.914 87.5409 111.434 87.5409C112.01 87.5409 112.466 87.7049 112.802 88.0329C113.138 88.3529 113.306 88.8489 113.306 89.5209V93.8889H112.238V89.6529C112.238 89.2449 112.138 88.9489 111.938 88.7649C111.738 88.5729 111.466 88.4769 111.122 88.4769C110.89 88.4769 110.686 88.5129 110.51 88.5849C110.334 88.6489 110.178 88.7409 110.042 88.8609C109.906 88.9809 109.782 89.1209 109.67 89.2809C109.558 89.4409 109.454 89.6089 109.358 89.7849V93.8889H108.302V89.5329C108.302 89.1329 108.202 88.8569 108.002 88.7049C107.802 88.5529 107.53 88.4769 107.186 88.4769C106.962 88.4769 106.762 88.5049 106.586 88.5609C106.41 88.6169 106.25 88.6969 106.106 88.8009C105.97 88.9049 105.846 89.0329 105.734 89.1849C105.622 89.3289 105.518 89.4889 105.422 89.6649V93.8889ZM119.916 93.3609C119.828 93.4249 119.72 93.4929 119.592 93.5649C119.464 93.6369 119.308 93.7089 119.124 93.7809C118.94 93.8449 118.732 93.8969 118.5 93.9369C118.268 93.9849 118.008 94.0089 117.72 94.0089C116.672 94.0089 115.876 93.7249 115.332 93.1569C114.788 92.5889 114.516 91.7929 114.516 90.7689C114.516 90.2649 114.588 89.8129 114.732 89.4129C114.884 89.0129 115.092 88.6769 115.356 88.4049C115.62 88.1249 115.932 87.9129 116.292 87.7689C116.652 87.6169 117.044 87.5409 117.468 87.5409C117.916 87.5409 118.316 87.6169 118.668 87.7689C119.02 87.9209 119.308 88.1449 119.532 88.4409C119.764 88.7369 119.92 89.1049 120 89.5449C120.088 89.9769 120.088 90.4809 120 91.0569H115.608C115.648 91.7289 115.848 92.2329 116.208 92.5689C116.568 92.8969 117.104 93.0609 117.816 93.0609C118.296 93.0609 118.708 92.9929 119.052 92.8569C119.396 92.7209 119.684 92.5729 119.916 92.4129V93.3609ZM117.444 88.4769C116.988 88.4769 116.596 88.6169 116.268 88.8969C115.94 89.1769 115.732 89.6009 115.644 90.1689H118.992C119.024 89.5929 118.892 89.1689 118.596 88.8969C118.3 88.6169 117.916 88.4769 117.444 88.4769ZM124.275 88.4769C123.795 88.4769 123.403 88.5889 123.099 88.8129C122.803 89.0289 122.563 89.3089 122.379 89.6529V93.8889H121.323V87.6609H122.319L122.355 88.7769H122.379C122.547 88.4169 122.811 88.1209 123.171 87.8889C123.531 87.6569 123.987 87.5409 124.539 87.5409C125.155 87.5409 125.643 87.7049 126.003 88.0329C126.371 88.3529 126.555 88.8489 126.555 89.5209V93.8889H125.499V89.6289C125.499 89.1969 125.391 88.8969 125.175 88.7289C124.959 88.5609 124.659 88.4769 124.275 88.4769ZM131.273 93.7569C131.145 93.8289 130.981 93.8889 130.781 93.9369C130.581 93.9849 130.369 94.0089 130.145 94.0089C129.841 94.0089 129.581 93.9649 129.365 93.8769C129.157 93.7889 128.985 93.6729 128.849 93.5289C128.713 93.3769 128.613 93.2089 128.549 93.0249C128.493 92.8329 128.465 92.6369 128.465 92.4369V88.5609H127.721V87.6609H128.465V86.3529H129.521V87.6609H131.333V88.5609H129.521V92.3049C129.521 92.5689 129.585 92.7609 129.713 92.8809C129.849 93.0009 130.085 93.0609 130.421 93.0609C130.733 93.0609 131.017 92.9729 131.273 92.7969V93.7569ZM132.58 95.1729C132.652 95.0929 132.724 94.9969 132.796 94.8849C132.868 94.7729 132.932 94.6569 132.988 94.5369C133.052 94.4249 133.1 94.3129 133.132 94.2009C133.172 94.0969 133.2 94.0049 133.216 93.9249C133.048 93.8849 132.912 93.8009 132.808 93.6729C132.704 93.5449 132.652 93.3929 132.652 93.2169C132.652 93.0089 132.716 92.8369 132.844 92.7009C132.98 92.5569 133.16 92.4849 133.384 92.4849C133.608 92.4849 133.788 92.5609 133.924 92.7129C134.068 92.8649 134.14 93.0689 134.14 93.3249C134.14 93.4929 134.116 93.6689 134.068 93.8529C134.02 94.0289 133.96 94.2009 133.888 94.3689C133.816 94.5369 133.732 94.6889 133.636 94.8249C133.548 94.9689 133.46 95.0849 133.372 95.1729H132.58Z" fill="#18123D"/>
<path d="M215 40C215 37.2386 217.239 35 220 35H350C352.761 35 355 37.2386 355 40V110C355 112.761 352.761 115 350 115H220C217.239 115 215 112.761 215 110V40Z" fill="#FCEAD1"/>
<path d="M266.085 77.4049C266.085 77.8049 266.009 78.1649 265.857 78.4849C265.705 78.8049 265.493 79.0809 265.221 79.3129C264.949 79.5369 264.625 79.7089 264.249 79.8289C263.873 79.9489 263.457 80.0089 263.001 80.0089C262.441 80.0089 261.957 79.9409 261.549 79.8049C261.141 79.6689 260.809 79.4929 260.553 79.2769V78.0769C260.809 78.3329 261.145 78.5569 261.561 78.7489C261.977 78.9329 262.461 79.0249 263.013 79.0249C263.605 79.0249 264.069 78.8849 264.405 78.6049C264.749 78.3249 264.921 77.9329 264.921 77.4289C264.921 76.9489 264.769 76.5769 264.465 76.3129C264.161 76.0409 263.685 75.9049 263.037 75.9049H261.933V74.8849H263.085C263.541 74.8849 263.909 74.7649 264.189 74.5249C264.469 74.2849 264.609 73.9369 264.609 73.4809C264.609 73.0729 264.477 72.7529 264.213 72.5209C263.949 72.2809 263.569 72.1609 263.073 72.1609C262.561 72.1609 262.121 72.2569 261.753 72.4489C261.393 72.6409 261.065 72.8649 260.769 73.1209V71.9449C261.049 71.7129 261.381 71.5249 261.765 71.3809C262.149 71.2369 262.589 71.1649 263.085 71.1649C263.493 71.1649 263.861 71.2209 264.189 71.3329C264.517 71.4369 264.793 71.5889 265.017 71.7889C265.249 71.9889 265.425 72.2289 265.545 72.5089C265.665 72.7809 265.725 73.0849 265.725 73.4209C265.725 73.6929 265.685 73.9369 265.605 74.1529C265.525 74.3689 265.413 74.5569 265.269 74.7169C265.133 74.8769 264.973 75.0129 264.789 75.1249C264.605 75.2289 264.409 75.3049 264.201 75.3529C264.449 75.3929 264.685 75.4689 264.909 75.5809C265.141 75.6929 265.345 75.8369 265.521 76.0129C265.697 76.1809 265.833 76.3849 265.929 76.6249C266.033 76.8569 266.085 77.1169 266.085 77.4049ZM272.803 77.0689C272.803 77.5089 272.727 77.9089 272.575 78.2689C272.431 78.6289 272.231 78.9409 271.975 79.2049C271.719 79.4609 271.415 79.6609 271.063 79.8049C270.719 79.9409 270.347 80.0089 269.947 80.0089C269.403 80.0089 268.939 79.9169 268.555 79.7329C268.179 79.5489 267.871 79.2929 267.631 78.9649C267.391 78.6289 267.215 78.2289 267.103 77.7649C266.991 77.3009 266.935 76.7929 266.935 76.2409C266.935 75.4889 267.003 74.8009 267.139 74.1769C267.275 73.5529 267.483 73.0209 267.763 72.5809C268.043 72.1329 268.399 71.7849 268.831 71.5369C269.271 71.2889 269.791 71.1649 270.391 71.1649C270.823 71.1649 271.179 71.2089 271.459 71.2969C271.739 71.3849 271.987 71.4889 272.203 71.6089V72.6769C271.683 72.3249 271.079 72.1489 270.391 72.1489C270.015 72.1489 269.687 72.2289 269.407 72.3889C269.127 72.5489 268.887 72.7689 268.687 73.0489C268.495 73.3209 268.343 73.6489 268.231 74.0329C268.119 74.4089 268.047 74.8129 268.015 75.2449C268.279 74.8849 268.583 74.6169 268.927 74.4409C269.271 74.2649 269.647 74.1769 270.055 74.1769C270.439 74.1769 270.799 74.2409 271.135 74.3689C271.471 74.4889 271.763 74.6729 272.011 74.9209C272.259 75.1689 272.451 75.4729 272.587 75.8329C272.731 76.1929 272.803 76.6049 272.803 77.0689ZM269.911 79.0489C270.143 79.0489 270.363 79.0089 270.571 78.9289C270.787 78.8409 270.975 78.7169 271.135 78.5569C271.295 78.3969 271.423 78.1969 271.519 77.9569C271.615 77.7089 271.663 77.4209 271.663 77.0929C271.663 76.7729 271.615 76.4889 271.519 76.2409C271.431 75.9929 271.307 75.7849 271.147 75.6169C270.995 75.4489 270.819 75.3249 270.619 75.2449C270.427 75.1569 270.231 75.1129 270.031 75.1129C269.767 75.1129 269.519 75.1569 269.287 75.2449C269.063 75.3329 268.867 75.4609 268.699 75.6289C268.539 75.7969 268.411 76.0049 268.315 76.2529C268.219 76.5009 268.171 76.7889 268.171 77.1169C268.171 77.6929 268.327 78.1609 268.639 78.5209C268.951 78.8729 269.375 79.0489 269.911 79.0489ZM279.065 77.0449C279.065 77.4929 278.993 77.9009 278.849 78.2689C278.713 78.6289 278.513 78.9409 278.249 79.2049C277.993 79.4609 277.677 79.6609 277.301 79.8049C276.933 79.9409 276.521 80.0089 276.065 80.0089C275.553 80.0089 275.109 79.9569 274.733 79.8529C274.357 79.7409 274.037 79.5889 273.773 79.3969V78.2209C274.045 78.4449 274.357 78.6369 274.709 78.7969C275.069 78.9489 275.521 79.0249 276.065 79.0249C276.657 79.0249 277.113 78.8449 277.433 78.4849C277.761 78.1249 277.925 77.6529 277.925 77.0689C277.925 76.4449 277.765 75.9889 277.445 75.7009C277.125 75.4129 276.721 75.2689 276.233 75.2689C275.873 75.2689 275.585 75.3289 275.369 75.4489C275.161 75.5609 275.001 75.6809 274.889 75.8089H274.013V71.2849H278.669V72.3169H274.997V74.7769C275.157 74.6569 275.353 74.5529 275.585 74.4649C275.817 74.3689 276.093 74.3209 276.413 74.3209C276.781 74.3209 277.125 74.3809 277.445 74.5009C277.773 74.6129 278.057 74.7849 278.297 75.0169C278.537 75.2409 278.725 75.5249 278.861 75.8689C278.997 76.2049 279.065 76.5969 279.065 77.0449ZM287.699 78.6649C287.507 79.0729 287.239 79.4009 286.895 79.6489C286.551 79.8889 286.115 80.0089 285.587 80.0089C285.211 80.0089 284.855 79.9449 284.519 79.8169C284.183 79.6809 283.887 79.4809 283.631 79.2169C283.375 78.9449 283.171 78.6089 283.019 78.2089C282.867 77.8009 282.791 77.3209 282.791 76.7689C282.791 76.2249 282.867 75.7529 283.019 75.3529C283.171 74.9449 283.375 74.6089 283.631 74.3449C283.887 74.0729 284.183 73.8729 284.519 73.7449C284.863 73.6089 285.223 73.5409 285.599 73.5409C286.071 73.5409 286.479 73.6409 286.823 73.8409C287.167 74.0329 287.443 74.3089 287.651 74.6689V71.2849H288.707V79.8889H287.783L287.699 78.6649ZM285.743 79.0609C286.015 79.0609 286.267 79.0169 286.499 78.9289C286.731 78.8329 286.931 78.6889 287.099 78.4969C287.275 78.3049 287.411 78.0649 287.507 77.7769C287.611 77.4889 287.663 77.1529 287.663 76.7689C287.663 76.3849 287.611 76.0489 287.507 75.7609C287.411 75.4729 287.275 75.2329 287.099 75.0409C286.931 74.8489 286.731 74.7089 286.499 74.6209C286.267 74.5249 286.015 74.4769 285.743 74.4769C285.191 74.4769 284.739 74.6729 284.387 75.0649C284.043 75.4489 283.871 76.0169 283.871 76.7689C283.871 77.5289 284.047 78.1009 284.399 78.4849C284.751 78.8689 285.199 79.0609 285.743 79.0609ZM294.078 78.7009C294.006 78.8449 293.914 78.9969 293.802 79.1569C293.69 79.3089 293.55 79.4489 293.382 79.5769C293.214 79.7049 293.014 79.8089 292.782 79.8889C292.558 79.9689 292.294 80.0089 291.99 80.0089C291.43 80.0089 290.978 79.8529 290.634 79.5409C290.29 79.2209 290.118 78.7649 290.118 78.1729C290.118 77.4929 290.354 76.9929 290.826 76.6729C291.306 76.3529 291.986 76.1929 292.866 76.1929H294.03V75.6769C294.03 75.2449 293.918 74.9369 293.694 74.7529C293.47 74.5689 293.086 74.4769 292.542 74.4769C292.158 74.4769 291.794 74.5409 291.45 74.6689C291.106 74.7889 290.798 74.9289 290.526 75.0889V74.1409C290.75 74.0049 291.05 73.8729 291.426 73.7449C291.81 73.6089 292.23 73.5409 292.686 73.5409C293.47 73.5409 294.066 73.7049 294.474 74.0329C294.882 74.3529 295.086 74.8529 295.086 75.5329V78.8809C295.086 78.9529 295.086 79.0369 295.086 79.1329C295.094 79.2209 295.098 79.3129 295.098 79.4089C295.106 79.5049 295.114 79.5969 295.122 79.6849C295.13 79.7649 295.138 79.8329 295.146 79.8889H294.186C294.162 79.7769 294.138 79.6209 294.114 79.4209C294.098 79.2129 294.09 79.0329 294.09 78.8809L294.078 78.7009ZM292.218 79.0609C292.546 79.0609 292.826 78.9929 293.058 78.8569C293.29 78.7209 293.478 78.5649 293.622 78.3889C293.766 78.2049 293.87 78.0289 293.934 77.8609C293.998 77.6849 294.03 77.5609 294.03 77.4889V77.0329H292.974C292.342 77.0329 291.882 77.1249 291.594 77.3089C291.314 77.4849 291.174 77.7529 291.174 78.1129C291.174 78.3929 291.258 78.6209 291.426 78.7969C291.594 78.9729 291.858 79.0609 292.218 79.0609ZM299.807 79.8169C299.663 80.1929 299.511 80.5209 299.351 80.8009C299.191 81.0889 299.011 81.3329 298.811 81.5329C298.611 81.7329 298.387 81.8809 298.139 81.9769C297.891 82.0809 297.607 82.1329 297.287 82.1329C297.127 82.1329 296.979 82.1209 296.843 82.0969C296.707 82.0809 296.583 82.0489 296.471 82.0009V80.9809C296.559 81.0449 296.671 81.0929 296.807 81.1249C296.943 81.1649 297.091 81.1849 297.251 81.1849C297.547 81.1849 297.791 81.1129 297.983 80.9689C298.175 80.8329 298.359 80.6129 298.535 80.3089L296.003 73.6609H297.167L299.147 78.9169L301.115 73.6609H302.135L299.807 79.8169ZM305.114 80.0089C304.786 80.0089 304.494 79.9809 304.238 79.9249C303.99 79.8769 303.77 79.8169 303.578 79.7449C303.394 79.6649 303.238 79.5849 303.11 79.5049C302.982 79.4169 302.882 79.3409 302.81 79.2769V78.3289C302.89 78.4089 302.998 78.4969 303.134 78.5929C303.27 78.6809 303.434 78.7649 303.626 78.8449C303.818 78.9249 304.034 78.9929 304.274 79.0489C304.522 79.0969 304.798 79.1209 305.102 79.1209C305.55 79.1209 305.906 79.0489 306.17 78.9049C306.434 78.7609 306.566 78.5169 306.566 78.1729C306.566 77.9889 306.522 77.8409 306.434 77.7289C306.354 77.6169 306.242 77.5289 306.098 77.4649C305.954 77.3929 305.786 77.3369 305.594 77.2969C305.41 77.2569 305.214 77.2169 305.006 77.1769C304.742 77.1209 304.482 77.0609 304.226 76.9969C303.97 76.9249 303.738 76.8249 303.53 76.6969C303.322 76.5609 303.154 76.3889 303.026 76.1809C302.898 75.9649 302.834 75.6849 302.834 75.3409C302.834 74.7809 303.05 74.3409 303.482 74.0209C303.922 73.7009 304.534 73.5409 305.318 73.5409C305.758 73.5409 306.146 73.5849 306.482 73.6729C306.826 73.7609 307.09 73.8569 307.274 73.9609V74.9089C307.066 74.7729 306.806 74.6609 306.494 74.5729C306.19 74.4769 305.81 74.4289 305.354 74.4289C304.882 74.4289 304.518 74.4929 304.262 74.6209C304.014 74.7489 303.89 74.9809 303.89 75.3169C303.89 75.4849 303.926 75.6209 303.998 75.7249C304.07 75.8209 304.166 75.9009 304.286 75.9649C304.414 76.0209 304.558 76.0649 304.718 76.0969C304.878 76.1289 305.046 76.1649 305.222 76.2049C305.494 76.2609 305.774 76.3209 306.062 76.3849C306.35 76.4489 306.606 76.5489 306.83 76.6849C307.062 76.8209 307.25 77.0049 307.394 77.2369C307.546 77.4609 307.622 77.7649 307.622 78.1489C307.622 78.5089 307.55 78.8089 307.406 79.0489C307.262 79.2889 307.07 79.4809 306.83 79.6249C306.598 79.7609 306.33 79.8569 306.026 79.9129C305.73 79.9769 305.426 80.0089 305.114 80.0089Z" fill="#18123D"/>
<path d="M194.978 72.432C194.61 72.432 194.306 72.312 194.066 72.072C193.826 71.816 193.706 71.512 193.706 71.16C193.706 70.792 193.826 70.488 194.066 70.248C194.306 70.008 194.61 69.888 194.978 69.888C195.362 69.888 195.666 70.008 195.89 70.248C196.13 70.488 196.25 70.792 196.25 71.16C196.25 71.512 196.13 71.816 195.89 72.072C195.666 72.312 195.362 72.432 194.978 72.432ZM189.434 76.56V75.264H200.546V76.56H189.434ZM194.978 81.936C194.61 81.936 194.306 81.816 194.066 81.576C193.826 81.32 193.706 81.016 193.706 80.664C193.706 80.296 193.826 79.992 194.066 79.752C194.306 79.512 194.61 79.392 194.978 79.392C195.362 79.392 195.666 79.512 195.89 79.752C196.13 79.992 196.25 80.296 196.25 80.664C196.25 81.016 196.13 81.32 195.89 81.576C195.666 81.816 195.362 81.936 194.978 81.936Z" fill="#18123D"/>
<path d="M383.422 74.184V72.888H394.534V74.184H383.422ZM383.422 78.936V77.64H394.534V78.936H383.422Z" fill="#18123D"/>
<defs>
<filter id="filter0_d" x="10" y="10" width="370" height="130" filterUnits="userSpaceOnUse" color-interpolation-filters="sRGB">
<feFlood flood-opacity="0" result="BackgroundImageFix"/>
<feColorMatrix in="SourceAlpha" type="matrix" values="0 0 0 0 0 0 0 0 0 0 0 0 0 0 0 0 0 0 127 0"/>
<feOffset/>
<feGaussianBlur stdDeviation="7.5"/>
<feColorMatrix type="matrix" values="0 0 0 0 0.592157 0 0 0 0 0.74902 0 0 0 0 0.905882 0 0 0 0.4 0"/>
<feBlend mode="normal" in2="BackgroundImageFix" result="effect1_dropShadow"/>
<feBlend mode="normal" in="SourceGraphic" in2="effect1_dropShadow" result="shape"/>
</filter>
</defs>
</svg>
